<svg xmlns="http://www.w3.org/2000/svg" width="640" height="480" fill="none"><path fill="#313131" d="M0 0h640v480H0z"/><g clip-path="url(#a)"><path fill="#2E8BC0" d="M320 400c88.366 0 160-71.634 160-160S408.366 80 320 80s-160 71.634-160 160 71.634 160 160 160Z"/><path fill="#3ECF8E" d="M427.822 291.093c-9.04-3.466-7.431-2.204-13.004-14.053-5.574-11.84-8.951-15.653-21.485-17.04-12.542-1.378-12.071-.4-15.555-6.667-3.485-6.275-17.618 1.698-26.667 5.191-9.075 3.485-6.835 11.076-9.627 10.365a42.945 42.945 0 0 1-16.826-8.062c-6.969-5.583 5.182-9.938 8.675-13.414 3.494-3.493-6.577-1.591-10.071-3.697-3.493-2.08-9.742 4.186-15.315-1.405-5.583-5.573-2.089-13.938-2.783-20.907-.702-6.977 9.049-8.364 15.325-9.76 6.267-1.386 11.138.009 11.138 8.365 0 8.364 7.671 11.155 5.582 1.387-2.089-9.769 2.089-12.543 4.889-17.423 2.782-4.88 7.662-11.857 13.929-22.311 6.275-10.453 10.462-5.582 18.124-4.835 7.671.755 9.76-.738 15.333-.036 5.556.702 0-6.969 2.098-14.631 2.08-7.662 9.751-6.276 17.431-4.178 7.663 2.089-7.68-9.769-10.462-16.035-2.8-6.276-10.462 0-15.324-10.454-4.916-10.453-11.769-17.217-18.045-18.151-6.275-.942 2 13.28-2.88 20.942-4.898 7.663-12.4 6.463-20.089 6.463-7.653 0-14.764-6.463-9.182-16.223 5.565-9.751 16.205-8.746 21.778-17.111 5.582-8.355-19.822-7.59-28.889-10.373-9.067-2.791-19.947-2.764-29.004 4.204-9.067 6.96-28.454 9.138-36.125 11.92-7.662 2.783-9.04-4.622-10.427-10.204-.622-2.48-3.448-3.262-7.431-3.173a160.711 160.711 0 0 0-50.364 43.742c2.107 7.173 12.311-1.68 14.311-3.68 2.089-2.089 12.542.702 13.929 8.364 1.395 7.663.702 16.045-2.08 23.014-2.791 6.96 6.969 16.72 12.542 26.48 5.582 9.769 11.849 9.76 14.64 9.76 2.782 0 18.818 6.275 18.116 13.937-.694 7.672 14.64 14.632 20.915 19.512 6.276 4.897 10.24 9.706 18.382 11.111 8.152 1.404 17.68 14.729 21.858 16.133 3.209 1.067 8.64 6.196 11.92 7.787-4.311 5.457-12.658 16.666-12.658 21.831 0 6.986 9.112 17.964 12.596 20.746 3.476 2.774 13.484 4.889 15.556 11.849 2.097 6.969-1.458 30.427-7.716 36.694-6.293 6.266-8.578 21.084-8.578 21.084s2.214 4.809 9.627 0c8.195-5.307 21.92-20.418 27.404-23.707a184.585 184.585 0 0 0 30.374-22.96c9.76-9.057 6.222-15.404 11.111-24.444 4.88-9.058 11.191-8.649 19.546-16.293 8.374-7.68 2.525-6.16-6.542-9.654Z"/></g><defs><clipPath id="a"><path fill="#fff" d="M160 80h320v320H160z"/></clipPath></defs></svg>