<svg xmlns="http://www.w3.org/2000/svg" width="640" height="480" fill="none"><path fill="#313131" d="M0 0h640v480H0z"/><g clip-path="url(#a)"><path fill="#2E8BC0" d="M320 400c88.366 0 160-71.634 160-160S408.366 80 320 80s-160 71.634-160 160 71.634 160 160 160Z"/><path fill="#3ECF8E" d="M184.996 305.556c-.552-8.889-.552-10.552-.552-21.112 0-10.56 4.996-8.888 10-13.884 5.005-4.996 3.894-5.556 12.223-11.031 8.329-5.476 3.893-11.742 3.333-15.076-.56-3.333-5.556-.56-13.893.543-8.338 1.102-5.547-2.774-10.551-4.996-5.005-2.222-7.218-5.556-10.56-15.556-3.343-10-3.894-12.782-2.774-21.111s5.005-.56 5.556 8.329c.551 8.889 8.338 5.556 8.338 11.111 0 5.556 11.111 11.663 13.884 13.334 2.773 1.671 10.56-8.338 13.333-11.111 2.774-2.774 6.116-6.667 7.218-8.889 1.102-2.223 15.005-3.894 17.778-3.894 2.773 0 9.44 8.338 9.44 12.223 0 3.884 3.333 14.444 6.115 20.551 2.783 6.106 8.889 7.217 14.445 11.662 5.555 4.444 8.338.551 8.338.551s-2.223-9.44-2.223-17.227c0-7.786 6.667-14.444 6.667-14.444s10.56 7.778 11.111 10c.551 2.222 8.889 10 9.44 13.884.551 3.885 4.996 8.889 13.182 10 8.187 1.111 2.374-9.44 5.147-16.666 2.773-7.227 6.667-8.338 11.662-9.44 4.996-1.103 8.889-5.556 12.223-10 3.333-4.445 9.44-10.56 8.888-15.556-.551-4.995-2.222-8.338-4.444-14.444-2.222-6.107 6.667-8.338 10.56-15.556 3.893-7.218 0 0 8.889-2.222s4.995-2.222 6.667-5.556c1.671-3.333 2.773-6.666 1.111-12.782-1.663-6.115-7.778 0-13.885 0-6.106 0 2.231-8.302 2.782-14.969.552-6.666 8.338-4.995 13.885-5.555 5.547-.56 7.218 7.217 8.889 8.889 1.671 1.671 18.889-11.112 23.333-17.227 4.445-6.116-3.884-4.436-1.662-7.013 2.222-2.578-13.333-3.103-19.449-4.089-6.116-.987-21.662-1.671-27.769-5.44-6.107-3.769-29.44-.925-35.555 2.106-6.116 3.031-10-.257-12.783-4.444-2.782-4.187-14.444-2.089-17.777-4.445-3.334-2.355-6.667 3.885-11.112 5.556-4.444 1.671-6.115 2.222-11.662-1.111-5.546-3.333 1.662-7.227-6.115-10-5.209-1.858-11.449-.773-21.156-.987C194.684 125.262 160 178.551 160 240c0 30.4 8.631 58.711 23.351 82.907 2.738-4.605 2.053-10.818 1.645-17.351Zm128.888-10.552c3.894.552 15.005 0 6.116-7.217-8.889-7.218-13.884-1.671-12.782-10 1.102-8.329-5.556-8.338-5.556-8.338 0 6.115-4.444 12.782 0 18.889 4.445 6.106 8.338 6.106 12.222 6.666Z"/><path fill="#3ECF8E" d="M370.56 202.222c-8.889-7.218-2.222-4.995-1.111-13.333 1.111-8.338-5.556-8.338-5.556-8.338 0 6.116-4.444 12.782 0 18.889 4.445 6.107-8.889 11.111-4.995 11.662 3.893.551 20.551-1.662 11.662-8.88Zm-34.489 86.667c5.511 6.115 3.378 0 10.596-2.773 7.217-2.774-6.116-8.889-10.56-12.223-4.445-3.333-8.863-3.457-12.747 3.894-4.409 8.329 7.2 4.986 12.711 11.102ZM401.111 300c-2.773-3.333-8.889-4.996-15.555-4.844-6.667.16-6.116-7.378-12.783-6.827-6.666.551-11.431-4.48-14.444-6.036-6.551-3.377-2.222 4.365 0 12.854 2.222 8.489 10.56 2.062 18.329 6.506 7.769 4.445 8.338-1.671 15.555.551 7.218 2.223 10 7.218 16.925 6.667 6.924-.551-5.245-5.538-8.027-8.871Zm-14.444 24.444c-2.774-5.555-10.898-10.56-14.231-13.377-3.334-2.818-8.552-3.769-12.996-2.134-4.444 1.636-7.218 0-9.44-4.4-2.222-4.4-6.116-2.862-9.44-2.311-3.324.551-16.667 6.116-24.444 10-7.778 3.885-11.316 7.262-16.418 12.222-7.982 7.769-3.582 2.774 0 7.778 3.582 4.996-3.929 20.551-4.48 29.44-.551 8.889 14.24-2.773 19.795-3.893 5.556-1.12 3.92-4.445 8.365-7.778 4.444-3.333 7.333-4.115 12.213.329 4.88 4.444 11.271 8.56 11.271 13.556 0 4.995 17.591 13.333 24.258 10 6.667-3.334 10.56-10 16.667-15.556 6.106-5.556 3.893-16.107 5.555-22.773 1.662-6.667-3.902-5.547-6.675-11.103Z"/></g><defs><clipPath id="a"><path fill="#fff" d="M160 80h320v320H160z"/></clipPath></defs></svg>