<svg xmlns="http://www.w3.org/2000/svg"  viewBox="0 0 48 48" width="512px" height="512px"><path fill="#7e57c2" d="M7,41L7,7c0-2.209,1.791-4,4-4h26c2.209,0,4,1.785,4,3.994c0,8.018,0,25.991,0,34.01C41,43.214,39.209,45,37,45H11C8.791,45,7,43.209,7,41z"/><path fill="#fff" d="M28.292,39.221v-16.68c0,0,1.085-3.991-13.364,1.633c-0.026,0.071-0.026-15.424-0.026-15.424l4.721-0.029v9.928c0,0,13.218-5.206,13.218,3.948v16.623L28.292,39.221L28.292,39.221L28.292,39.221z M30.982,14.73h-5.007c1.802-2.204,3.434-5.98,3.434-5.98h5.178C34.586,8.751,33.7,11.211,30.982,14.73L30.982,14.73L30.982,14.73z M14.987,39.192v-9.498l4.75,4.75L14.987,39.192L14.987,39.192z"/></svg>