<?xml version="1.0" encoding="utf-8"?><svg version="1.1" id="Layer_1" xmlns="http://www.w3.org/2000/svg" xmlns:xlink="http://www.w3.org/1999/xlink" x="0px" y="0px" viewBox="0 0 122.89 122.89" style="enable-background:new 0 0 122.89 122.89" xml:space="preserve"><style type="text/css">.st0{fill-rule:evenodd;clip-rule:evenodd;fill:#478AFF;}</style><g><path class="st0" d="M61.44,33.47c-15.45,0-28,12.54-28,28c0,15.47,12.54,28.01,28,28.01c15.47,0,28.01-12.54,28.01-28.01 C89.44,46.01,76.9,33.48,61.44,33.47L61.44,33.47L61.44,33.47z M117.37,36.01l-0.54-1.17l-0.84,0.98c-2.09,2.37-4.74,4.2-7.7,5.3 l-0.84,0.3l0.33,0.84c2.54,6.11,3.85,12.68,3.85,19.28c0,27.73-22.49,50.24-50.23,50.24S11.18,89.27,11.18,61.53 s22.49-50.23,50.23-50.23c7.46,0,14.81,1.66,21.55,4.86l0.78,0.37l0.33-0.84c1.25-2.89,3.21-5.45,5.68-7.42l0.99-0.84l-1.13-0.59 C80.97,2.35,71.34,0,61.58,0c-0.03,0-0.1,0-0.16,0C27.51,0,0,27.51,0,61.44s27.53,61.44,61.44,61.44 c33.94,0,61.44-27.51,61.44-61.44c0-8.8-1.88-17.51-5.54-25.5L117.37,36.01L117.37,36.01z M114.4,23.19 c0-7.04-5.7-12.75-12.75-12.75c-7.04,0-12.75,5.71-12.75,12.75c0,7.06,5.71,12.77,12.75,12.77 C108.71,35.96,114.4,30.24,114.4,23.19L114.4,23.19z"/></g></svg>