<svg xmlns="http://www.w3.org/2000/svg" width="2500" height="2500" viewBox="0 0 256 256"><path fill="#06C755" d="M256 236c0 11.046-8.954 20-20 20H20c-11.046 0-20-8.954-20-20V20C0 8.954 8.954 0 20 0h216c11.046 0 20 8.954 20 20v216z"/><path fill="#fff" d="M213 116.07c0-38.06-38.16-69.02-85.06-69.02S42.88 78.01 42.88 116.07c0 34.12 30.26 62.69 71.14 68.1 2.77.6 6.54 1.83 7.49 4.2.86 2.15.56 5.52.28 7.69 0 0-1 6-1.22 7.28-.37 2.15-1.71 8.41 7.37 4.59 9.08-3.83 48.99-28.85 66.83-49.39h-.01c12.32-13.51 18.22-27.22 18.22-42.47z"/><path fill="#06C755" d="M184.7 138.04h-23.89a1.62 1.62 0 0 1-1.62-1.62v-.03-37.05-.04c0-.9.73-1.62 1.62-1.62h23.89c.89 0 1.62.73 1.62 1.62v6.03c0 .9-.72 1.62-1.62 1.62h-16.24v6.27h16.24c.89 0 1.62.73 1.62 1.62v6.03c0 .9-.72 1.62-1.62 1.62h-16.24v6.27h16.24c.89 0 1.62.73 1.62 1.62v6.03c0 .89-.72 1.63-1.62 1.63zM96.3 138.04c.89 0 1.62-.73 1.62-1.62v-6.03c0-.89-.73-1.62-1.62-1.62H80.06V99.3c0-.89-.73-1.62-1.62-1.62h-6.03c-.9 0-1.62.72-1.62 1.62v37.08.03c0 .9.72 1.62 1.62 1.62H96.3zM110.68 97.68h-6.03c-.89 0-1.62.73-1.62 1.62v37.11c0 .89.73 1.62 1.62 1.62h6.03c.9 0 1.62-.73 1.62-1.62V99.3c0-.89-.72-1.62-1.62-1.62zM151.7 97.68h-6.03c-.9 0-1.62.73-1.62 1.62v22.04l-16.98-22.93a1.4 1.4 0 0 0-.13-.17l-.01-.01-.1-.1-.03-.03-.09-.07-.04-.03-.08-.06-.05-.03-.09-.05-.05-.03-.1-.04-.05-.02-.1-.03-.06-.02-.1-.02-.07-.01-.09-.01h-6.16c-.89 0-1.62.73-1.62 1.62v37.11c0 .89.73 1.62 1.62 1.62h6.03c.9 0 1.62-.73 1.62-1.62v-22.03l17 22.96c.12.16.26.3.42.41l.01.01.1.06.05.03.08.04.08.04.05.02.11.04h.03c.14.04.28.06.43.06h6.16c.89 0 1.62-.73 1.62-1.62V99.3c0-.89-.73-1.62-1.62-1.62z"/></svg>
