<svg fill="none" height="40" viewBox="0 0 61 40" width="61" xmlns="http://www.w3.org/2000/svg"><path d="m33.9971 39.539h22.5276c.7155 0 1.4185-.1826 2.0381-.5297.6197-.347 1.1342-.8462 1.4918-1.4474.3576-.6011.5457-1.283.5454-1.977-.0003-.6941-.189-1.3758-.5472-1.9766l-15.1289-25.4179c-.3576-.601-.872-1.10008-1.4915-1.44708s-1.3223-.52969-2.0377-.52969-1.4181.18269-2.0377.52969c-.6195.347-1.1339.84608-1.4915 1.44708l-3.8684 6.5035-7.5633-12.71742c-.3579-.60095-.8725-1.099962-1.4922-1.4469-.6197-.346937-1.3226-.52958-2.0381-.52958s-1.4184.182643-2.0381.52958c-.6197.346938-1.1343.84595-1.4922 1.4469l-18.826016 31.63182c-.358151.6008-.54687229 1.2825-.54718361 1.9766-.00031133.694.18779861 1.3759.54540961 1.977.357611.6012.87211 1.1004 1.49176 1.4474.61964.3471 1.32258.5297 2.03811.5297h14.14092c5.6028 0 9.7347-2.3872 12.5778-7.0445l6.9025-11.5952 3.6971-6.2054 11.0959 18.6396h-14.793zm-16.0114-6.2118-9.86859-.0022 14.79299-24.85138 7.3811 12.42568-4.942 8.3051c-1.8881 3.0218-4.033 4.1228-7.3635 4.1228z" fill="#00dc82"/></svg>