<svg xmlns="http://www.w3.org/2000/svg" id="Layer_1" x="0" y="0" version="1.1" viewBox="0 0 1024 1024"
	xml:space="preserve">
	<style>
		.st0 {
			fill: #050a14
		}

		.st1 {
			fill: #00b4ff
		}
	</style>
	<path id="path8860-5-4-8-2-7-1-8_20_" d="M586.2 512a74.2 74.2 0 11-148.4 0 74.2 74.2 0 11148.4 0z" class="st0" />
	<path id="path8862-5-5-9-1-9-2-7_20_"
		d="M841.3 321.8a375.7 375.7 0 00-58.3-76.2l-85.8 49.5a286.7 286.7 0 00-89.5-51.9 352 352 0 00-69.3 98.9c95.5-6.5 194.1 28.1 285.6 99.6l54-31.2a377.5 377.5 0 00-36.7-88.7z"
		class="st0" />
	<path id="path8866-7-5-5-0-3-5-6_20_"
		d="M512 892.2c32.1-.1 64.1-4.3 95.1-12.4v-99a285 285 0 0089.7-51.6 352.3 352.3 0 00-51-109.5c-42.1 85.9-121.3 154-229 197.5v62.3a369.4 369.4 0 0095.2 12.7z"
		class="st0" />
	<path id="path8870-5-3-9-3-0-0-9_20_"
		d="M182.7 321.9a377.8 377.8 0 00-36.8 88.6l85.8 49.5a285.8 285.8 0 00-.2 103.5 352.7 352.7 0 00120.3 10.6C298.4 494.7 279.1 392 295.2 277l-54-31.2a376.9 376.9 0 00-58.5 76.1z"
		class="st0" />
	<g>
		<path id="path8864-4-8-1-2-7-3-1_20_"
			d="M841.3 702.1c16-27.8 28.3-57.6 36.8-88.6L792.4 564c6.4-34.6 6.4-69.6.2-103.5a352.7 352.7 0 00-120.3-10.6C725.7 529.3 745 632 728.9 747l54 31.2a382 382 0 0058.4-76.1z"
			class="st1" />
		<path id="path8868-6-7-4-7-5-7-1_20_"
			d="M182.7 702.1a375.7 375.7 0 0058.3 76.2l85.8-49.5a286.7 286.7 0 0089.5 51.9 352 352 0 0069.3-98.9c-95.5 6.5-194.1-28.1-285.6-99.6l-54 31.2c8.5 31 20.8 60.8 36.7 88.7z"
			class="st1" />
		<path id="path8872-6-3-2-1-4-2-1_20_"
			d="M512 131.7c-32.1.1-64.1 4.3-95.1 12.4v99a285 285 0 00-89.7 51.6 352.3 352.3 0 0051 109.5c42.1-85.9 121.3-154 229-197.5v-62.3a378.3 378.3 0 00-95.2-12.7z"
			class="st1" />
	</g>
	<path
		d="M512 66.4c245.7 0 445.6 199.9 445.6 445.6S757.7 957.6 512 957.6 66.4 757.7 66.4 512 266.3 66.4 512 66.4M512 1a511 511 0 100 1022A511 511 0 00512 1z"
		class="st1" />
</svg>