<svg width="130" height="71" viewBox="0 0 130 71" fill="none" xmlns="http://www.w3.org/2000/svg">
<path d="M39.8347 47.3579C46.2945 47.3579 51.5312 42.1448 51.5312 35.7141C51.5312 29.2834 46.2945 24.0703 39.8347 24.0703C33.3749 24.0703 28.1382 29.2834 28.1382 35.7141C28.1382 42.1448 33.3749 47.3579 39.8347 47.3579ZM12.1884 70.6455C18.6482 70.6455 23.8849 65.4324 23.8849 59.0017C23.8849 52.571 18.6482 47.3579 12.1884 47.3579C5.72864 47.3579 0.491943 52.571 0.491943 59.0017C0.491943 65.4324 5.72864 70.6455 12.1884 70.6455ZM117.811 70.6455C124.271 70.6455 129.508 65.4324 129.508 59.0017C129.508 52.571 124.271 47.3579 117.811 47.3579C111.352 47.3579 106.115 52.571 106.115 59.0017C106.115 65.4324 111.352 70.6455 117.811 70.6455Z" fill="#09090B"/>
<path d="M79.396 36.2041C79.0221 32.314 78.8317 29.0761 75.838 26.8005C72.0468 23.9185 67.7522 25.7885 62.4622 23.8877C57.2642 22.6359 53.4087 18.0415 53.4087 12.5654C53.4087 6.12624 58.7396 0.90625 65.3156 0.90625C70.1861 0.90625 74.3736 3.76968 76.2181 7.8711C79.041 13.209 77.2063 18.6413 80.7531 21.3776C84.9528 24.6176 90.6147 22.2449 96.9324 25.3147C98.9624 26.2434 100.681 27.7162 101.891 29.5416C103.102 31.367 103.806 33.545 103.806 35.8838C103.806 41.3599 99.95 45.9542 94.752 47.206C89.462 49.1068 85.1674 47.2369 81.3762 50.1188C77.1129 53.3596 79.3953 58.7815 75.9206 64.5087C73.9485 68.2801 69.9399 70.8613 65.3156 70.8613C58.7396 70.8613 53.4087 65.6413 53.4087 59.2022C53.4087 54.5246 56.2218 50.4903 60.2818 48.6331C66.5995 45.5633 72.2614 47.936 76.4611 44.696C78.8838 42.8268 79.396 39.9435 79.396 36.2041Z" fill="#D0021B"/>
</svg>
