<svg width="128" height="128" viewBox="0 0 128 128" fill="none" xmlns="http://www.w3.org/2000/svg">
<g clip-path="url(#clip0_1617_18224)">
<circle cx="64" cy="64" r="64" fill="#14141F"/>
<path d="M72.2126 42.443C72.2126 46.7651 68.6722 50.2688 64.3049 50.2688C59.9375 50.2688 56.3971 46.7651 56.3971 42.443C56.3971 38.121 59.9375 34.6173 64.3049 34.6173C68.6722 34.6173 72.2126 38.121 72.2126 42.443Z" fill="white"/>
<path fill-rule="evenodd" clip-rule="evenodd" d="M53.821 32.3072C56.6017 29.5543 60.3723 28.0053 64.3055 28C68.2388 28.0053 72.0094 29.5543 74.7901 32.3072C77.5709 35.0601 79.1348 38.7921 79.1389 42.6846V85.3204C79.1389 89.2137 77.5761 92.9475 74.7943 95.7004C72.0125 98.4534 68.2396 100 64.3055 100C60.3715 100 56.5986 98.4534 53.8168 95.7004C51.035 92.9475 49.4722 89.2137 49.4722 85.3204V42.6846C49.4762 38.7921 51.0402 35.0601 53.821 32.3072ZM71.6548 35.4115C69.7057 33.4825 67.062 32.3989 64.3055 32.3989C62.9406 32.3989 61.5891 32.6649 60.3282 33.1818C59.0672 33.6987 57.9214 34.4564 56.9563 35.4115C55.9912 36.3666 55.2256 37.5005 54.7033 38.7484C54.1809 39.9963 53.9121 41.3338 53.9121 42.6846V85.3204C53.9121 88.0484 55.0071 90.6646 56.9563 92.5935C58.9054 94.5225 61.549 95.6061 64.3055 95.6061C67.062 95.6061 69.7057 94.5225 71.6548 92.5935C73.604 90.6646 74.699 88.0484 74.699 85.3204V42.6846C74.699 39.9566 73.604 37.3404 71.6548 35.4115Z" fill="white"/>
</g>
<defs>
<clipPath id="clip0_1617_18224">
<rect width="128" height="128" fill="white"/>
</clipPath>
</defs>
</svg>
