<svg width="168" height="168" viewBox="0 0 168 168" fill="none" xmlns="http://www.w3.org/2000/svg"><path fill-rule="evenodd" clip-rule="evenodd" d="M67.8984 3.80062C78.0334 -1.26687 89.9666 -1.26687 100.102 3.80062L148.102 27.8006C160.297 33.899 168 46.3647 168 59.9998V108C168 121.635 160.297 134.101 148.102 140.199L100.102 164.199C89.9666 169.266 78.0334 169.266 67.8984 164.199L19.8984 140.199C7.70321 134.101 0.000125181 121.635 0 108V59.9998C0 46.3647 7.70319 33.899 19.8984 27.8006L67.8984 3.80062Z" fill="black"/><path fill-rule="evenodd" clip-rule="evenodd" d="M94.7331 14.5337C87.9765 11.1554 80.0235 11.1554 73.2669 14.5337L25.2669 38.5337C17.1361 42.5992 12 50.9095 12 60V108C12 117.091 17.1361 125.401 25.2669 129.466L73.2669 153.466C80.0235 156.845 87.9765 156.845 94.7331 153.466L142.733 129.466C150.864 125.401 156 117.091 156 108V60C156 50.9095 150.864 42.5992 142.733 38.5337L94.7331 14.5337ZM60 60C60 46.7452 70.7452 36 84 36C97.2548 36 108 46.7452 108 60V108C108 121.255 97.2548 132 84 132C70.7452 132 60 121.255 60 108V60Z" fill="white"/><path d="M96 60C96 66.6274 90.6274 72 84 72C77.3726 72 72 66.6274 72 60C72 53.3726 77.3726 48 84 48C90.6274 48 96 53.3726 96 60Z" fill="white"/></svg>
