<svg width="126" height="184" viewBox="0 0 126 184" fill="none" xmlns="http://www.w3.org/2000/svg">
<path fill-rule="evenodd" clip-rule="evenodd" d="M22.2559 34.7394H104.043C115.676 34.7394 125.106 44.1698 125.106 55.8028V128.504C125.106 140.137 115.676 149.567 104.043 149.567H22.2559C10.6229 149.567 1.19249 140.137 1.19249 128.504V55.8028C1.19249 44.1698 10.6229 34.7394 22.2559 34.7394ZM0.644531 55.8028C0.644531 43.8672 10.3203 34.1914 22.2559 34.1914H104.043C115.979 34.1914 125.654 43.8671 125.654 55.8028V128.504C125.654 140.44 115.979 150.115 104.043 150.115H22.2559C10.3203 150.115 0.644531 140.44 0.644531 128.504V55.8028ZM75.8132 37.6389H104.899L104.94 37.6389C99.389 39.2596 95.2937 44.2945 95.0809 50.3176H95.0078V63.9378H90.596C83.621 57.256 74.158 53.1505 63.7362 53.1505L63.7337 53.1505L75.8418 37.6612L75.8132 37.6389ZM91.1567 64.4858H95.0078V68.9554C93.8376 67.369 92.5496 65.8748 91.1567 64.4858ZM63.7362 53.6985C73.8036 53.6985 82.9634 57.5843 89.7977 63.9378L63.7067 63.9378V53.6985L63.7362 53.6985ZM90.375 64.4858L63.7067 64.4858V81.9098H95.0078V69.891C93.6324 67.9477 92.0803 66.1381 90.375 64.4858ZM63.1588 53.886V63.9378H55.3012L63.1588 53.886ZM63.1588 64.4858H54.8728L41.2524 81.9098H63.1588L63.1588 64.4858ZM62.5969 53.7151L54.6057 63.9378L37.6746 63.9378C44.2502 57.8248 52.9786 53.9962 62.5969 53.7151ZM54.1773 64.4858L37.0973 64.4858C34.85 66.6633 32.8689 69.1137 31.2073 71.7838V81.9098H40.5569L54.1773 64.4858ZM63.0333 53.1567C52.8892 53.3368 43.6942 57.4065 36.8763 63.9378H31.2073V51.4967C31.2185 51.2695 31.2242 51.0408 31.2242 50.8108C31.2242 44.5707 27.0583 39.3036 21.356 37.639L21.4067 37.6389H63.1588V52.9962L63.0333 53.1567ZM36.3156 64.4858H31.2073V70.7648C32.6903 68.496 34.4042 66.3919 36.3156 64.4858ZM30.6594 54.7194V63.9378L21.506 63.9378C25.8961 62.6012 29.353 59.1227 30.6594 54.7194ZM30.6594 64.4858L18.6211 64.4858C18.2528 64.5155 17.8803 64.5306 17.5043 64.5306C11.2643 64.5306 5.99721 60.3647 4.33253 54.6624L4.33246 54.7132V81.9098H26.2223C27.2054 78.2396 28.7128 74.7838 30.6594 71.6276V64.4858ZM18.0106 63.9378H18.5985C25.1405 63.3999 30.3278 58.0812 30.6594 51.4828V50.3176H30.6671C30.4304 43.8848 25.5806 38.6302 19.3282 37.7641C11.56 38.7069 5.40049 44.8664 4.4577 52.6346C5.34576 59.046 10.8485 63.9826 17.5043 63.9826C17.6739 63.9826 17.8426 63.9794 18.0106 63.9731V63.9378ZM107.675 64.4858L95.5558 64.4858V69.7174C98.0087 73.2162 99.8992 77.1381 101.096 81.3519L115.985 62.496C113.894 63.7862 111.43 64.5306 108.792 64.5306C108.416 64.5306 108.044 64.5155 107.675 64.4858ZM95.5558 63.9378L104.79 63.9378C100.306 62.5725 96.7952 58.9721 95.5558 54.4341V63.9378ZM108.293 63.9378V63.9733C108.458 63.9795 108.625 63.9826 108.792 63.9826C111.996 63.9826 114.933 62.8387 117.216 60.937L117.302 60.8279L117.325 60.8456C119.735 58.794 121.397 55.8893 121.844 52.5985C120.886 44.8456 114.731 38.7028 106.973 37.7635C100.559 38.6497 95.6202 44.1535 95.6202 50.8108C95.6202 57.717 100.935 63.3818 107.698 63.9378H108.293ZM75.1637 37.6389H63.7067V52.2953L75.1637 37.6389ZM40.1285 82.4577H31.2073V93.8702L40.1285 82.4577ZM31.2073 94.7599L40.824 82.4577L63.1588 82.4577V100.26H31.2073V94.7599ZM30.6594 94.5712V82.4577H26.6453C25.8655 85.5033 25.4508 88.6951 25.4508 91.9838C25.4508 94.7774 25.75 97.5012 26.3181 100.125L30.6594 94.5712ZM26.9075 100.26L30.6594 95.4609V100.26H26.9075ZM26.4743 100.815L26.4792 100.808H30.6594V111.276C28.7788 108.058 27.3542 104.542 26.4743 100.815ZM25.7837 100.808H4.33246V129.576L4.33255 129.633C4.99897 127.351 6.2427 125.314 7.89504 123.692L25.7837 100.808ZM9.82367 122.115L26.0437 101.365C27.0183 105.294 28.5909 108.986 30.6594 112.34V119.805H18.5541C18.2076 119.779 17.8575 119.765 17.5043 119.765C14.6586 119.765 12.0153 120.632 9.82367 122.115ZM18.0106 120.323V120.353H18.5329C25.1058 120.86 30.3266 126.193 30.6594 132.813V134.067H30.6636C30.3859 140.45 25.5657 145.654 19.3554 146.528C11.5756 145.596 5.4036 139.433 4.45816 131.658C4.79522 129.229 5.79462 127.012 7.26807 125.195L7.35999 125.267L8.30432 124.059C10.6784 121.741 13.9246 120.313 17.5043 120.313C17.6739 120.313 17.8426 120.316 18.0106 120.323ZM21.4888 120.353H30.6594V129.576C29.3513 125.167 25.8871 121.686 21.4888 120.353ZM31.2073 120.353V132.799C31.2185 133.026 31.2242 133.255 31.2242 133.485C31.2242 139.716 27.07 144.977 21.38 146.65L21.4067 146.65H49.5349L62.0648 130.782C52.4718 130.376 43.7794 126.489 37.2175 120.353H31.2073ZM38.0264 120.353C44.5343 126.254 53.0816 129.947 62.4854 130.249L63.1588 129.396V120.353L38.0264 120.353ZM63.1588 119.805L37.4347 119.805C35.048 117.548 32.9516 114.987 31.2073 112.184V100.808H63.1588L63.1588 119.805ZM63.7067 120.353V128.702L70.2998 120.353H63.7067ZM70.7325 119.805H63.7067V100.808H85.7326L70.7325 119.805ZM70.998 120.353L63.7067 129.587V130.269L63.7362 130.269C73.6318 130.269 82.6506 126.515 89.4459 120.353H70.998ZM90.0376 119.805H71.4307L86.4308 100.808H95.0078V114.077C93.5422 116.147 91.876 118.066 90.0376 119.805ZM90.2548 120.353C83.3138 126.844 73.989 130.817 63.7362 130.817L63.7067 130.817V146.65H104.899L104.916 146.65C99.4046 145.03 95.3339 140.042 95.0844 134.067H95.0078V120.353H90.2548ZM95.0078 119.805H90.8289C92.348 118.325 93.7464 116.722 95.0078 115.012V119.805ZM95.5558 120.353V129.862C96.7967 125.318 100.315 121.714 104.808 120.353H95.5558ZM107.742 119.805H95.5558V114.25C98.3561 110.256 100.423 105.71 101.562 100.808H121.973V129.576L121.973 129.665C120.319 123.947 115.044 119.765 108.792 119.765C108.439 119.765 108.089 119.779 107.742 119.805ZM107.763 120.353H108.293V120.323C108.458 120.316 108.625 120.313 108.792 120.313C115.459 120.313 120.969 125.267 121.843 131.694C120.883 139.454 114.715 145.6 106.945 146.529C100.545 145.631 95.6202 140.133 95.6202 133.485C95.6202 126.557 100.97 120.878 107.763 120.353ZM36.6434 119.805H31.2073V113.203C32.7745 115.601 34.5997 117.814 36.6434 119.805ZM63.1588 37.0909H21.4067C20.7051 37.0909 20.013 37.1319 19.3327 37.2117C18.7346 37.1321 18.1243 37.0909 17.5043 37.0909C9.92708 37.0909 3.7845 43.2335 3.7845 50.8108C3.7845 51.4307 3.82562 52.041 3.90527 52.6391C3.82551 53.3194 3.7845 54.0115 3.7845 54.7132V129.576C3.7845 130.279 3.82566 130.972 3.90571 131.653C3.82577 132.253 3.7845 132.864 3.7845 133.485C3.7845 141.062 9.92708 147.205 17.5043 147.205C18.134 147.205 18.7538 147.162 19.3609 147.08C20.0321 147.158 20.7148 147.198 21.4067 147.198H104.899C105.589 147.198 106.27 147.158 106.94 147.081C107.546 147.163 108.164 147.205 108.792 147.205C116.369 147.205 122.512 141.062 122.512 133.485C122.512 132.877 122.472 132.278 122.396 131.691C122.479 130.997 122.521 130.291 122.521 129.576V54.7132C122.521 53.9986 122.479 53.294 122.396 52.6016C122.472 52.0155 122.512 51.4177 122.512 50.8108C122.512 43.2335 116.369 37.0909 108.792 37.0909C108.174 37.0909 107.565 37.1319 106.968 37.2111C106.289 37.1317 105.599 37.0909 104.899 37.0909H63.7067V37.035H63.1588V37.0909ZM63.7067 100.26L63.7067 82.4577H95.0078V89.0621L86.1653 100.26H63.7067ZM86.8635 100.26L95.0078 89.9463V100.26H86.8635ZM62.7449 130.805L50.2331 146.65H63.1588V130.813C63.0206 130.811 62.8827 130.808 62.7449 130.805ZM100.85 82.5478L95.5558 89.2524V100.26H101.125C101.712 97.5952 102.021 94.8256 102.021 91.9838C102.021 88.7275 101.615 85.5662 100.85 82.5478ZM95.5558 88.3682L100.223 82.4577H95.5558V88.3682ZM100.656 81.9098L100.675 81.8846C99.5741 77.8469 97.8284 74.075 95.5558 70.6863V81.9098H100.656ZM121.967 81.9098H101.354L117.611 61.321C119.666 59.595 121.207 57.2775 121.973 54.6306L121.973 54.7132V100.26H101.686C102.265 97.5934 102.569 94.8242 102.569 91.9838C102.569 88.6971 102.161 85.5058 101.392 82.4577H121.967V81.9098ZM30.6594 81.9098V72.6921C28.9892 75.5495 27.6787 78.6428 26.79 81.9098H30.6594ZM121.953 134.033C120.343 140.207 115.469 145.064 109.284 146.648C116.149 146.396 121.672 140.89 121.953 134.033ZM4.34196 133.99C4.60129 140.871 10.1391 146.401 17.0233 146.648C10.8233 145.061 5.94006 140.186 4.34196 133.99ZM95.5558 113.281V100.808H101C99.9332 105.328 98.066 109.538 95.5558 113.281ZM24.9028 91.9838C24.9028 94.8242 25.2078 97.5934 25.7868 100.26H4.33246V82.4577H26.0798C25.3112 85.5058 24.9028 88.6971 24.9028 91.9838ZM121.952 50.2548C121.668 43.4118 116.163 37.9171 109.316 37.6491C115.486 39.2416 120.346 44.0913 121.952 50.2548ZM4.34227 50.2976C5.93793 44.1132 10.8068 39.2444 16.9911 37.6487C10.1246 37.9118 4.60534 43.4311 4.34227 50.2976Z" fill="url(#paint0_radial_1182_99510)"/>
<g filter="url(#filter0_bd_1182_99510)">
<path d="M63.4277 37.0359L63.4277 146.828" stroke="white" stroke-opacity="0.2" stroke-width="0.547955" shape-rendering="crispEdges"/>
</g>
<g filter="url(#filter1_d_1182_99510)">
<path d="M63.0245 121.699C63.0655 124.429 67.1949 125.601 68.8946 123.463L94.5445 91.1876C97.5719 87.3782 94.8566 81.7601 89.988 81.7601H63.6308L63.672 60.962C63.631 58.2314 59.6624 57.0595 57.9627 59.1983L32.9366 91.4731C29.9091 95.2826 32.6245 100.901 37.4932 100.901H62.7292L63.0245 121.699Z" fill="url(#paint1_linear_1182_99510)" fill-opacity="0.79" shape-rendering="crispEdges"/>
<path d="M63.0829 81.759L63.6308 82.308H89.988C94.3989 82.308 96.857 87.3971 94.1155 90.8467L68.4656 123.122C67.7931 123.968 66.5944 124.204 65.4919 123.881C64.3905 123.558 63.5882 122.74 63.5724 121.691L63.2771 100.893L62.7292 100.353H37.4932C33.0821 100.353 30.6241 95.2637 33.3656 91.814L33.3656 91.8141L33.3696 91.8089L58.3916 59.5392C58.3923 59.5384 58.3929 59.5376 58.3935 59.5368C59.07 58.6879 60.2294 58.4597 61.2803 58.7785C62.3287 59.0965 63.106 59.9053 63.124 60.9658L63.0829 81.759Z" stroke="url(#paint2_linear_1182_99510)" stroke-width="1.09591" stroke-miterlimit="10" stroke-linejoin="bevel" shape-rendering="crispEdges"/>
</g>
<defs>
<filter id="filter0_bd_1182_99510" x="26.6328" y="0.513611" width="73.59" height="182.836" filterUnits="userSpaceOnUse" color-interpolation-filters="sRGB">
<feFlood flood-opacity="0" result="BackgroundImageFix"/>
<feGaussianBlur in="BackgroundImageFix" stdDeviation="3.26771"/>
<feComposite in2="SourceAlpha" operator="in" result="effect1_backgroundBlur_1182_99510"/>
<feColorMatrix in="SourceAlpha" type="matrix" values="0 0 0 0 0 0 0 0 0 0 0 0 0 0 0 0 0 0 127 0" result="hardAlpha"/>
<feOffset/>
<feGaussianBlur stdDeviation="18.2608"/>
<feComposite in2="hardAlpha" operator="out"/>
<feColorMatrix type="matrix" values="0 0 0 0 0.0625833 0 0 0 0 0.0135417 0 0 0 0 0.125 0 0 0 0.75 0"/>
<feBlend mode="normal" in2="effect1_backgroundBlur_1182_99510" result="effect2_dropShadow_1182_99510"/>
<feBlend mode="normal" in="SourceGraphic" in2="effect2_dropShadow_1182_99510" result="shape"/>
</filter>
<filter id="filter1_d_1182_99510" x="27.2804" y="58.0938" width="72.9196" height="75.2399" filterUnits="userSpaceOnUse" color-interpolation-filters="sRGB">
<feFlood flood-opacity="0" result="BackgroundImageFix"/>
<feColorMatrix in="SourceAlpha" type="matrix" values="0 0 0 0 0 0 0 0 0 0 0 0 0 0 0 0 0 0 127 0" result="hardAlpha"/>
<feOffset dy="4.38364"/>
<feGaussianBlur stdDeviation="2.19182"/>
<feComposite in2="hardAlpha" operator="out"/>
<feColorMatrix type="matrix" values="0 0 0 0 0 0 0 0 0 0 0 0 0 0 0 0 0 0 0.25 0"/>
<feBlend mode="normal" in2="BackgroundImageFix" result="effect1_dropShadow_1182_99510"/>
<feBlend mode="normal" in="SourceGraphic" in2="effect1_dropShadow_1182_99510" result="shape"/>
</filter>
<radialGradient id="paint0_radial_1182_99510" cx="0" cy="0" r="1" gradientUnits="userSpaceOnUse" gradientTransform="translate(65.661 92.1522) rotate(-180) scale(127.529 57.9608)">
<stop stop-color="#EBEBEB" stop-opacity="0.5"/>
<stop offset="0.9999" stop-color="#C699FF" stop-opacity="0"/>
<stop offset="1" stop-color="#989898" stop-opacity="0"/>
</radialGradient>
<linearGradient id="paint1_linear_1182_99510" x1="77.7052" y1="58.0937" x2="63.6386" y2="137.723" gradientUnits="userSpaceOnUse">
<stop stop-color="#212121"/>
<stop offset="1" stop-color="white" stop-opacity="0.12"/>
</linearGradient>
<linearGradient id="paint2_linear_1182_99510" x1="95.8154" y1="76.078" x2="51.6684" y2="122.642" gradientUnits="userSpaceOnUse">
<stop stop-color="#868585"/>
<stop offset="0.208333" stop-color="#838383"/>
<stop offset="1" stop-color="#5A5A5A"/>
</linearGradient>
</defs>
</svg>
