<svg width="16" height="16" viewBox="0 0 16 16" fill="none" xmlns="http://www.w3.org/2000/svg">
<path fill-rule="evenodd" clip-rule="evenodd" d="M14.3644 4.77374C14.3679 4.90203 14.3693 5.03012 14.3701 5.15827C14.371 5.30448 14.371 5.45074 14.371 5.59694L14.371 5.61482V10.3851L14.371 10.419C14.371 10.56 14.371 10.7008 14.3701 10.8418C14.3693 10.97 14.3679 11.098 14.3643 11.2261C14.3569 11.5053 14.3404 11.787 14.2908 12.063C14.2404 12.3433 14.1582 12.6042 14.0285 12.8589C13.9012 13.1091 13.7348 13.3379 13.5363 13.5363C13.3379 13.7349 13.109 13.9013 12.8587 14.0287C12.6042 14.1582 12.3435 14.2404 12.0633 14.2907C11.7871 14.3404 11.5055 14.357 11.2262 14.3644C11.0979 14.3678 10.9698 14.3694 10.8416 14.3701C10.7059 14.3711 10.5701 14.371 10.4344 14.371L10.3851 14.371H5.61479L5.56546 14.371C5.42967 14.371 5.294 14.3711 5.15832 14.3701C5.03009 14.3694 4.90183 14.3678 4.77379 14.3644C4.49456 14.357 4.21273 14.3404 3.93665 14.2907C3.65646 14.2404 3.39572 14.1583 3.1412 14.0287C2.89094 13.9013 2.66197 13.7349 2.46358 13.5363C2.26504 13.3379 2.09864 13.1091 1.97135 12.8589C1.84168 12.6042 1.75951 12.3433 1.70913 12.063C1.65955 11.787 1.6431 11.5053 1.63559 11.2261C1.63207 11.098 1.63059 10.9699 1.62975 10.8418C1.62888 10.7073 1.62889 10.5729 1.62891 10.4384C1.62891 10.4207 1.62891 10.4029 1.62891 10.3851V7.69203V5.61482C1.62891 5.5988 1.62891 5.58279 1.62891 5.56677C1.6289 5.43062 1.62889 5.29442 1.62975 5.15824C1.63059 5.0301 1.63207 4.90201 1.63559 4.77371C1.6431 4.49463 1.65957 4.21302 1.70913 3.93692C1.75951 3.65653 1.84168 3.39582 1.97135 3.14111C2.09864 2.89097 2.26504 2.66207 2.46358 2.46357C2.51319 2.41395 2.5647 2.36634 2.61797 2.32083C2.77779 2.18434 2.9535 2.06688 3.14118 1.97136C3.20482 1.93899 3.26884 1.90955 3.33344 1.88286C3.52726 1.80273 3.72649 1.74703 3.93659 1.70927C4.14367 1.67196 4.35399 1.6534 4.56399 1.64328C4.63399 1.63991 4.70396 1.63746 4.77377 1.63558C4.90181 1.6321 5.03007 1.63064 5.1583 1.62985C5.31041 1.62897 5.4625 1.62897 5.61477 1.62897H7.01212H10.3851C10.5372 1.62897 10.6895 1.62897 10.8417 1.62983C10.9698 1.63062 11.098 1.63208 11.2262 1.63555C11.5055 1.64311 11.7871 1.6595 12.0633 1.70925C12.3435 1.75958 12.6042 1.84184 12.8587 1.97136C13.109 2.09872 13.3379 2.2651 13.5363 2.46359C13.7348 2.66209 13.9012 2.89099 14.0285 3.14113C14.1582 3.39584 14.2405 3.65655 14.2908 3.93694C14.3404 4.21304 14.3569 4.49465 14.3644 4.77374ZM11.7247 9.49334L11.7256 9.49437C12.8204 10.8415 12.5226 12.2854 12.3825 12.013C11.8103 10.8996 10.7442 11.1838 10.2044 11.464C10.1597 11.4907 10.1139 11.5159 10.0678 11.5407C10.0653 11.5422 10.0626 11.5438 10.0598 11.5454C10.0567 11.5472 10.0535 11.549 10.0508 11.5508L10.0517 11.5495C8.92831 12.1464 7.42003 12.1906 5.9033 11.5388C4.63145 10.9922 3.58646 10.0558 2.90796 8.97051C3.25297 9.22522 3.62568 9.4494 4.02214 9.6352C5.62503 10.3859 7.23492 10.3317 8.37424 9.63447C6.75268 8.38742 5.39918 6.76342 4.36131 5.4472C4.16168 5.21114 3.98007 4.96593 3.82737 4.71129C5.07019 5.84879 7.03337 7.27717 7.73781 7.67251C6.24262 6.09283 4.92514 4.14748 4.98693 4.20977C7.34176 6.58253 9.51444 7.92402 9.51444 7.92402C9.59627 7.96914 9.6572 8.00521 9.70556 8.03698C9.75012 7.92263 9.79044 7.80497 9.82397 7.68238C10.2 6.30796 9.77677 4.73633 8.81962 3.43877C11.0038 4.7504 12.2945 7.24149 11.7657 9.34852C11.7554 9.38939 11.7436 9.42922 11.7319 9.46905C11.7295 9.47714 11.7271 9.48524 11.7247 9.49334Z" fill="url(#paint0_linear_1002_71731)"/>
<defs>
<linearGradient id="paint0_linear_1002_71731" x1="-5.10791" y1="12.7483" x2="13.6219" y2="12.7483" gradientUnits="userSpaceOnUse">
<stop stop-color="#D8FFEC" stop-opacity="0.6"/>
<stop offset="1" stop-color="#F4FFFA"/>
</linearGradient>
</defs>
</svg>
