<svg width="12" height="12" viewBox="0 0 12 12" fill="none" xmlns="http://www.w3.org/2000/svg">
<g clip-path="url(#clip0_334_12849)">
<path d="M1.6875 -1.84375H3.15234V-0.378906H1.6875V-1.84375ZM7.52344 -1.84375H8.98828V-0.378906H7.52344V-1.84375ZM13.3711 -1.84375H14.8359V-0.378906H13.3711V-1.84375ZM4.60547 1.07422H6.07031V2.53906H4.60547V1.07422ZM10.4531 1.07422H11.9062V2.53906H10.4531V1.07422ZM16.2891 1.07422H17.7539V2.53906H16.2891V1.07422ZM13.3711 3.99219H14.8359V5.45703H13.3711V3.99219ZM7.52344 3.99219H8.98828V5.45703H7.52344V3.99219ZM1.6875 3.99219H3.15234V5.45703H1.6875V3.99219ZM16.2891 6.92188H17.7539V8.375H16.2891V6.92188ZM10.4531 6.92188H11.9062V8.375H10.4531V6.92188ZM4.60547 6.92188H6.07031V8.375H4.60547V6.92188ZM1.6875 9.83984H3.15234V11.3047H1.6875V9.83984ZM7.52344 9.83984H8.98828V11.3047H7.52344V9.83984ZM13.3711 9.83984H14.8359V11.3047H13.3711V9.83984ZM16.2891 12.7578H17.7539V14.2227H16.2891V12.7578ZM10.4531 12.7578H11.9062V14.2227H10.4531V12.7578ZM4.60547 12.7578H6.07031V14.2227H4.60547V12.7578ZM1.6875 15.6758H3.15234V17.1406H1.6875V15.6758ZM7.52344 15.6758H8.98828V17.1406H7.52344V15.6758ZM13.3711 15.6758H14.8359V17.1406H13.3711V15.6758ZM4.60547 18.6055H6.07031V20.0586H4.60547V18.6055ZM10.4531 18.6055H11.9062V20.0586H10.4531V18.6055ZM16.2891 18.6055H17.7539V20.0586H16.2891V18.6055ZM13.3711 21.5234H14.8359V22.9883H13.3711V21.5234ZM7.52344 21.5234H8.98828V22.9883H7.52344V21.5234ZM1.6875 21.5234H3.15234V22.9883H1.6875V21.5234ZM4.60547 24.4414H6.07031V25.9062H4.60547V24.4414ZM10.4531 24.4414H11.9062V25.9062H10.4531V24.4414ZM16.2891 24.4414H17.7539V25.9062H16.2891V24.4414Z" fill="black"/>
</g>
<defs>
<clipPath id="clip0_334_12849">
<rect width="12" height="12" fill="white"/>
</clipPath>
</defs>
</svg>
