<svg width="1000" height="295" viewBox="0 0 1000 295" fill="none" xmlns="http://www.w3.org/2000/svg">
<path d="M820.28 182.338C820.28 137.755 848.604 106.4 888.892 106.4C929.18 106.4 957.956 137.737 957.956 182.338C957.956 226.939 929.187 256.5 888.892 256.5C848.598 256.5 820.28 225.588 820.28 182.338ZM778.224 182.338C778.224 248.12 824.262 294.479 888.886 294.479C953.51 294.479 1000 248.12 1000 182.338C1000 116.556 953.962 68.4399 888.886 68.4399C823.81 68.4399 778.224 115.686 778.224 182.338ZM563.521 71.0853L650.292 291.821H691.025L777.791 71.0853H733.966L671.104 241.498H670.214L607.352 71.0853H563.521ZM394.856 174.383C397.508 133.76 424.515 106.4 461.261 106.4C493.128 106.4 517.037 126.712 520.58 157.179H447.089C420.973 157.179 406.801 160.269 396.191 174.402H394.856V174.39V174.383ZM352.805 181.006C352.805 246.788 399.289 294.46 463.468 294.46C506.854 294.46 544.916 272.391 561.295 237.502L525.885 219.835C513.494 242.792 489.585 256.482 463.468 256.482C432.028 256.482 403.704 232.637 403.704 209.679C403.704 197.766 411.673 192.457 423.18 192.457H563.502V180.544C563.502 114.317 521.007 68.4029 459.925 68.4029C398.844 68.4029 352.799 115.649 352.799 180.988M232.399 291.796H272.242V156.285C272.242 127.149 290.382 106.394 315.627 106.394C326.256 106.394 337.311 109.927 342.635 114.774C346.623 104.174 352.818 93.5923 362.111 82.9924C351.482 74.1684 333.342 68.4153 315.627 68.4153C266.937 68.4153 232.399 104.618 232.399 156.267V291.809V291.796ZM39.843 145.698V37.9598H105.358C127.486 37.9598 142.103 50.7611 142.103 70.185C142.103 92.2542 123.072 109.033 84.1191 121.834C57.5571 130.214 45.6116 137.281 41.1785 145.679L39.843 145.692V145.698ZM39.843 253.861V208.835C39.843 188.967 56.6668 169.543 80.1311 162.032C100.943 154.966 118.193 147.899 132.81 140.407C152.286 151.895 164.232 171.744 164.232 192.5C164.232 227.814 130.584 253.861 84.9909 253.861H39.843ZM0 291.821H88.5337C155.829 291.821 206.282 249.884 206.282 194.257C206.282 163.79 190.794 136.43 163.341 118.763C177.513 104.63 184.153 88.2955 184.153 68.4276C184.153 27.3784 154.493 0 109.791 0H0V291.821Z" fill="#000000"/>
</svg>
