<svg xmlns="http://www.w3.org/2000/svg" fill="none" viewBox="0 0 256 256">
  <rect width="256" height="256" fill="#000" rx="60"/>
  <path fill="#FFF" d="M197.9 149.8a59.8 59.8 0 0 1-28.3 45 72.7 72.7 0 0 1-18.3 8L148 165c5-3.6 8.5-9.4 8.9-15.6l41 .3v.1ZM198 110.3h-41.1c.1-6.8-3.5-13.4-8.9-17.5-5.5-4-12.4-6-19.2-5.3-3 .3-5.9 1-8.6 2l-20.6-31c12.2-5.2 26-6.8 39.4-5.6 13.8 1 27 6 37.9 14.5a61.5 61.5 0 0 1 21 43l.1-.1Z"/>
  <path fill="#B2AEB9" d="M151.3 202.8a80.6 80.6 0 0 1-34.7 1.5 70.8 70.8 0 0 1-36-16.8c-24.1-22.3-27.8-63-16.2-92.4a63.4 63.4 0 0 1 35.1-36.7l20.7 31c-2.6 1-5 2.4-7.3 4.2-10.4 8.2-13 23-12.8 36.3.1 12.8 2.8 27 13 34.8a29.4 29.4 0 0 0 16.1 5.6c6.4.3 13-1.1 18.3-4.8l.5-.4 3.3 37.7Z"/>
</svg>
