<svg width="131" height="25" viewBox="0 0 131 25" fill="none" xmlns="http://www.w3.org/2000/svg">
<g id="Logo" clip-path="url(#clip0_44_1159)">
<path id="Vector" d="M14.4732 20.2499L14.3421 17.7334H14.2897C13.0053 19.8829 11.249 20.6431 9.02093 20.6431C6.18992 20.6431 3.98802 19.6208 2.44146 17.9169C0.894901 16.1868 0.00366211 13.7752 0.00366211 10.9443C0.00366211 7.82493 1.10461 5.09877 3.07058 3.29009C4.59094 1.9008 6.58311 1.14062 9.09954 1.14062C13.8179 1.14062 16.5178 3.73571 17.1207 7.40551H13.3985C12.9791 5.59684 11.5898 4.28618 9.1782 4.28618C5.63943 4.28618 3.88318 7.22201 3.88318 10.9443C3.88318 14.7714 5.90158 17.5761 9.12577 17.5761C12.0354 17.5761 13.949 15.4005 13.949 13.3296V13.2248H9.44031V10.2889H17.3304V20.2499H14.4732Z" fill="#000000"/>
<path id="Vector_2" d="M26.0691 20.6435C21.9013 20.6435 19.0441 17.5503 19.0441 13.5398C19.0441 9.52915 21.9013 6.43604 26.0691 6.43604C30.237 6.43604 33.0942 9.52915 33.0942 13.5398C33.0942 17.5503 30.237 20.6435 26.0691 20.6435ZM26.0691 17.9173C28.2448 17.9173 29.4768 16.161 29.4768 13.5398C29.4768 10.9184 28.2448 9.13597 26.0691 9.13597C23.8672 9.13597 22.6615 10.9184 22.6615 13.5398C22.6615 16.161 23.8672 17.9173 26.0691 17.9173Z" fill="#000000"/>
<path id="Vector_3" d="M37.9324 20.25L33.2665 6.80273H36.8839L39.0333 13.7754C39.4265 15.0598 39.6364 15.9248 39.6364 15.9248H39.6888C39.6888 15.9248 39.8722 15.0598 40.2655 13.7754L42.4673 6.80273H46.032L41.34 20.25H37.9324Z" fill="#000000"/>
<path id="Vector_4" d="M54.7926 20.6699C49.7074 20.6699 46.824 18.4156 46.693 14.4575H50.4154C50.6773 16.7117 51.9617 17.603 54.6356 17.603C56.5752 17.603 58.2792 16.9215 58.2792 15.1914C58.2792 13.3565 56.4966 12.9895 53.6393 12.3342C50.2841 11.574 47.2172 10.6828 47.2172 6.77705C47.2172 3.08102 50.2316 1.16748 54.3997 1.16748C58.62 1.16748 61.346 3.2383 61.6344 7.01297H57.9908C57.781 5.12564 56.3132 4.18197 54.3733 4.18197C52.3289 4.18197 50.9917 5.04699 50.9917 6.38386C50.9917 7.90422 52.3025 8.34983 55.081 8.95271C58.9344 9.79155 62.0801 10.709 62.0801 14.7458C62.0801 18.5466 59.0132 20.6699 54.7926 20.6699Z" fill="#000000"/>
<path id="Vector_5" d="M64.0618 20.2501V6.80284H67.6268V20.2501H64.0618ZM64.0618 4.70579V1.50781H67.6268V4.70579H64.0618Z" fill="#000000"/>
<path id="Vector_6" d="M75.8479 24.8375C72.1783 24.8375 69.9236 23.2647 69.5568 20.6435H73.0954C73.3837 21.4823 74.1442 22.1376 75.7954 22.1376C77.8138 22.1376 78.7837 21.1677 78.7837 19.3328V17.8649H78.7052C77.9187 18.7561 76.8963 19.4377 75.1927 19.4377C72.2043 19.4377 69.2684 17.0785 69.2684 13.0155C69.2684 9.00489 71.6801 6.43604 75.0877 6.43604C76.7653 6.43604 77.9972 7.09137 78.8101 8.21852H78.8623V6.80303H82.2963V19.228C82.2963 21.1153 81.6936 22.3997 80.6972 23.3172C79.5703 24.3657 77.8402 24.8375 75.8479 24.8375ZM75.7954 16.5805C78.0497 16.5805 78.9672 14.929 78.9672 12.9368C78.9672 10.9709 77.9187 9.29324 75.7693 9.29324C73.9604 9.29324 72.7549 10.7088 72.7549 12.9631C72.7549 15.2436 73.9604 16.5805 75.7954 16.5805Z" fill="#000000"/>
<path id="Vector_7" d="M88.0783 6.80303V8.63793H88.1568C89.0743 7.19622 90.3062 6.43604 92.1412 6.43604C94.9197 6.43604 96.7807 8.53309 96.7807 11.4689V20.2503H93.216V11.9932C93.216 10.5515 92.3771 9.52916 90.8829 9.52916C89.3102 9.52916 88.1568 10.7874 88.1568 12.6223V20.2503H84.5918V6.80303H88.0783Z" fill="#000000"/>
<path id="Vector_8" d="M107.445 20.2499C107.235 19.9878 107.104 19.3587 107.026 18.7558H106.973C106.292 19.7781 105.322 20.5645 103.015 20.5645C100.263 20.5645 98.3229 19.1227 98.3229 16.449C98.3229 13.487 100.735 12.5433 103.723 12.1239C105.951 11.8094 106.973 11.6259 106.973 10.6036C106.973 9.63365 106.213 9.00454 104.719 9.00454C103.041 9.00454 102.229 9.60746 102.124 10.8919H98.952C99.0569 8.53274 100.813 6.46191 104.745 6.46191C108.782 6.46191 110.407 8.27059 110.407 11.4161V18.2577C110.407 19.28 110.564 19.8829 110.879 20.1188V20.2499H107.445ZM103.88 18.0742C105.925 18.0742 107.052 16.816 107.052 15.5054V13.487C106.423 13.8539 105.453 14.0636 104.562 14.2734C102.7 14.6927 101.783 15.1122 101.783 16.3704C101.783 17.6286 102.622 18.0742 103.88 18.0742Z" fill="#000000"/>
<path id="Vector_9" d="M112.726 20.2501V1.50781H116.291V20.2501H112.726Z" fill="#000000"/>
<path id="Vector_10" d="M124.09 20.6435C120.184 20.6435 118.009 18.7561 117.799 15.8989H121.102C121.338 17.4455 122.439 18.127 124.038 18.127C125.611 18.127 126.502 17.5241 126.502 16.5805C126.502 15.296 124.798 15.1649 122.963 14.798C120.551 14.3261 118.192 13.6708 118.192 10.7349C118.192 7.82533 120.604 6.43604 123.671 6.43604C127.21 6.43604 129.176 8.19232 129.437 10.8923H126.214C126.056 9.45054 125.139 8.92628 123.619 8.92628C122.229 8.92628 121.312 9.45054 121.312 10.4204C121.312 11.5738 123.094 11.6786 125.008 12.0718C127.262 12.5437 129.752 13.1728 129.752 16.3183C129.752 19.0182 127.445 20.6435 124.09 20.6435Z" fill="#000000"/>
</g>
<defs>
<clipPath id="clip0_44_1159">
<rect width="130.286" height="24" fill="white" transform="translate(0 0.90332)"/>
</clipPath>
</defs>
</svg>
