<svg xmlns="http://www.w3.org/2000/svg" fill="none" viewBox="0 0 270 270">
  <path d="M64.5279 215.649C67.4858 212.89 71.4656 211.345 75.6116 211.345H153.628C162.365 211.345 169.448 218.073 169.448 226.371V229.309C169.448 232.633 168.288 235.863 166.149 238.494L147.553 261.365C144.558 265.049 139.933 267.207 135.033 267.207H50.2686C41.5313 267.207 34.4482 260.479 34.4482 252.18V250.005C34.4482 245.972 36.1551 242.108 39.185 239.283L64.5279 215.649Z" fill="black"/>
  <path d="M37.457 3.7644C40.358 1.3412 44.1278 0 48.0365 0H215.111C223.829 0 230.897 6.5373 230.897 14.6014V15.7312C230.897 19.8446 229.02 23.7673 225.73 26.5345L189.841 56.719C186.934 59.1632 183.149 60.5172 179.222 60.5172H15.7856C7.06743 60.5172 0 53.9802 0 45.916V41.5403C0 37.4095 1.89156 33.472 5.20594 30.7036L37.457 3.7644Z" fill="black"/>
  <path d="M201.62 79.3816C198.904 82.3501 197.38 86.3647 197.38 90.5482V254.15C197.38 262.903 203.917 270 211.981 270H215.603C219.91 270 223.997 267.935 226.771 264.36L254.464 228.668C256.681 225.811 257.897 222.195 257.897 218.459V52.4134C257.897 44.5481 252.023 38.1719 244.777 38.1719C241.281 38.1719 237.93 39.6863 235.467 42.3791L201.62 79.3816Z" fill="black"/>
  <path d="M5.42304 116.297C1.98937 119.291 0 123.754 0 128.464V214.79C0 223.171 6.41511 229.966 14.3285 229.966C17.8574 229.966 21.2623 228.586 23.8905 226.092L50.9126 200.447C54.0623 197.457 55.8621 193.19 55.8621 188.711V112.586C55.8621 103.883 49.201 96.828 40.984 96.828H33.0916C29.6422 96.828 26.3 98.098 23.6366 100.419L5.42304 116.297Z" fill="black"/>
</svg>
