<svg xmlns="http://www.w3.org/2000/svg" fill="none" viewBox="0 0 320 320">
  <path d="M112 25.7273H208C227.647 25.7273 242.218 25.7294 253.754 26.6719C265.258 27.6118 273.503 29.4733 280.541 33.0596C293.199 39.5092 303.491 49.8006 309.94 62.4588C313.527 69.4972 315.388 77.7422 316.328 89.2462C317.271 100.782 317.273 115.353 317.273 135V185C317.273 204.647 317.271 219.218 316.328 230.754C315.388 242.258 313.527 250.503 309.94 257.541C303.491 270.199 293.199 280.491 280.541 286.94C273.503 290.527 265.258 292.388 253.754 293.328C242.218 294.271 227.647 294.273 208 294.273H112C92.3532 294.273 77.7821 294.271 66.2462 293.328C54.7422 292.388 46.4972 290.527 39.4588 286.94C26.8006 280.491 16.5092 270.199 10.0596 257.541C6.47334 250.503 4.61182 242.258 3.67191 230.754C2.72939 219.218 2.72727 204.647 2.72727 185V135C2.72727 115.353 2.72939 100.782 3.67191 89.2462C4.61182 77.7422 6.47334 69.4972 10.0596 62.4588C16.5092 49.8006 26.8006 39.5092 39.4588 33.0596C46.4972 29.4733 54.7422 27.6118 66.2462 26.6719C77.7821 25.7294 92.3532 25.7273 112 25.7273Z" fill="black" stroke="white" stroke-width="5.45455"/>
  <path d="M236.363 108C236.363 102.979 240.433 98.9091 245.454 98.9091H263.636C268.657 98.9091 272.727 102.979 272.727 108V153.455C272.727 158.475 268.657 162.545 263.636 162.545H245.454C240.433 162.545 236.363 158.475 236.363 153.455V108Z" fill="white"/>
  <path d="M276.363 200.727C276.363 212.777 266.595 222.545 254.545 222.545C242.495 222.545 232.727 212.777 232.727 200.727C232.727 188.677 242.495 178.909 254.545 178.909C266.595 178.909 276.363 188.677 276.363 200.727Z" fill="white"/>
  <path d="M56.3631 222.545C51.3424 222.545 47.2722 218.475 47.2722 213.455V108C47.2722 102.979 51.3424 98.9091 56.3631 98.9091H79.2665C82.0282 98.9091 84.6401 100.164 86.3653 102.321L112.901 135.49C116.54 140.039 123.459 140.039 127.098 135.49L153.634 102.321C155.359 100.164 157.971 98.9091 160.732 98.9091H183.636C188.657 98.9091 192.727 102.979 192.727 108V213.455C192.727 218.475 188.657 222.545 183.636 222.545H165.454C160.433 222.545 156.363 218.475 156.363 213.455V177.553C156.363 168.959 145.542 165.163 140.173 171.873L127.098 188.217C123.459 192.767 116.54 192.767 112.901 188.217L99.8256 171.873C94.4573 165.163 83.6359 168.959 83.6359 177.553V213.455C83.6359 218.475 79.5657 222.545 74.5449 222.545H56.3631Z" fill="white"/>
</svg>
