<svg xmlns="http://www.w3.org/2000/svg" width="24" height="24" viewBox="0 0 25 25" fill="none">
  <path d="M22.2665 0.0844118L0.748068 6.35936C0.304553 6.48834 0 6.89441 0 7.35623V14.9592C0 15.8005 0.948607 16.2931 1.63676 15.808L20.9967 2.17135C21.203 2.02573 21.441 2.30532 21.2646 2.48588L1.72497 22.4649C1.08258 23.1222 1.54773 24.2289 2.46804 24.2289H8.78377C9.13492 24.2289 9.46277 24.0509 9.65415 23.7571L22.8656 3.4736C23.0012 3.26557 23.3207 3.427 23.2342 3.65916L16.0997 22.8285C15.8467 23.5075 16.3485 24.2289 17.0733 24.2289H23.8874C24.4607 24.2289 24.9259 23.7638 24.9259 23.1905V2.07815C24.9259 0.693517 23.5962 -0.303352 22.2673 0.0844118H22.2665Z" fill="white"/>
</svg>
