<svg width="44" height="43" viewBox="0 0 44 43" fill="none" xmlns="http://www.w3.org/2000/svg">
<path d="M31.4327 40.6546C31.2204 40.7605 27.1683 42.5438 20.0021 42.2083C16.2686 42.0317 13.0305 41.3432 10.7302 40.7076L23.134 26.3358C25.3458 26.9007 28.1946 27.4304 31.4327 27.5893C38.599 27.9424 42.651 26.1415 42.8633 26.0356L31.4327 40.6722V40.6546ZM12.9066 13.041C10.8718 6.17287 11.668 1.82955 11.7211 1.60003L0.184304 16.1484C0.148915 16.3779 -0.647335 20.7212 1.36983 27.5893C2.4315 31.1558 3.86475 34.1396 5.03258 36.223L16.0916 20.8095C15.03 18.7967 13.8267 16.1484 12.9066 13.0586V13.041ZM41.6601 14.5594C40.0322 9.05076 37.4842 4.97228 36.4402 3.41857L26.1775 16.4662L28.1061 25.7002C29.2563 25.8591 30.3887 25.965 31.5389 26.0356C32.1228 26.0533 32.7067 26.0709 33.2729 26.0709C38.829 26.0709 41.9255 24.7644 42.2617 24.6055L43.058 24.2524C43.1287 22.3456 43.0049 18.9733 41.6778 14.5417L41.6601 14.5594ZM35.2193 2.48281C33.4676 1.82955 28.9024 0.32881 23.1517 0.0463175C18.5335 -0.183207 15.2246 0.487712 13.3844 1.01738L13.2251 1.86486C13.1897 2.04142 12.4819 6.15521 14.3753 12.5996C14.6938 13.6942 15.083 14.7712 15.5077 15.8482L24.9565 15.5304L35.237 2.50047L35.2193 2.48281Z" fill="url(#paint0_linear_35_13582)"/>
<path d="M12.9066 13.041C10.8718 6.17291 11.668 1.82958 11.7211 1.60006L0.184304 16.1484C0.148915 16.3779 -0.647335 20.7213 1.36983 27.5894C2.4315 31.1558 3.86475 34.1396 5.03258 36.223L16.0916 20.8095C15.0299 18.7968 13.8267 16.1484 12.9066 13.0587V13.041Z" fill="url(#paint1_linear_35_13582)"/>
<path d="M31.4328 40.6542C31.2205 40.7601 27.1684 42.5433 20.0022 42.2079C16.2686 42.0313 13.0306 41.3427 10.7303 40.7071L23.1341 26.3353C25.3459 26.9003 28.1947 27.43 31.4328 27.5889C38.5991 27.942 42.6511 26.1411 42.8634 26.0352L31.4328 40.6718V40.6542Z" fill="url(#paint2_linear_35_13582)"/>
<defs>
<linearGradient id="paint0_linear_35_13582" x1="88.9601" y1="-41.4937" x2="-3.74735" y2="51.2138" gradientUnits="userSpaceOnUse">
<stop offset="0.462148" stop-color="#F9F8F5"/>
<stop offset="0.617528" stop-color="#B2C565"/>
<stop offset="0.775403" stop-color="#002F0A"/>
</linearGradient>
<linearGradient id="paint1_linear_35_13582" x1="88.9601" y1="-41.4937" x2="-3.74736" y2="51.2137" gradientUnits="userSpaceOnUse">
<stop offset="0.231761" stop-color="#F9F8F5"/>
<stop offset="0.896945" stop-color="#002F0A"/>
</linearGradient>
<linearGradient id="paint2_linear_35_13582" x1="188.374" y1="5.85351" x2="169.071" y2="88.16" gradientUnits="userSpaceOnUse">
<stop offset="0.231761" stop-color="#F9F8F5"/>
<stop offset="0.896945" stop-color="#002F0A"/>
</linearGradient>
</defs>
</svg>
