<svg width="137" height="29" viewBox="0 0 137 29" fill="none" xmlns="http://www.w3.org/2000/svg">
<path fill-rule="evenodd" clip-rule="evenodd" d="M55.6591 23.3496H58.0295L62.8847 11.4367H59.7428L56.858 19.5895L54.0031 11.4367H50.8047L55.6591 23.3496ZM69.4814 23.6083C70.2968 23.617 71.1053 23.4587 71.8571 23.1431C72.6089 22.8274 73.2881 22.3611 73.8528 21.7729C74.4193 21.183 74.8605 20.4844 75.1497 19.7194C75.4389 18.9543 75.5702 18.1386 75.5356 17.3214C75.5356 13.9635 73.137 11.1497 69.4814 11.1497C68.6715 11.1295 67.866 11.2758 67.115 11.5797C66.3639 11.8837 65.6833 12.3386 65.1154 12.9164C64.5457 13.4961 64.0997 14.1854 63.8046 14.9426C63.5094 15.6998 63.3712 16.5091 63.3983 17.3214C63.3594 18.1434 63.4886 18.9648 63.7777 19.7353C64.0669 20.5057 64.5101 21.2092 65.0803 21.8027C65.6485 22.3944 66.3326 22.8627 67.0898 23.1784C67.847 23.494 68.6611 23.6502 69.4814 23.6373V23.6083ZM69.4814 21.0822C67.282 21.0822 66.3967 19.3308 66.3967 17.3504C66.3967 15.3982 67.282 13.7048 69.4814 13.7048C71.6518 13.7048 72.5371 15.4272 72.5371 17.3504C72.5371 19.3308 71.6801 21.0822 69.4814 21.0822ZM82.2178 27.2821L88.5008 11.4367H85.3307L82.275 19.7047L79.3056 11.4374H76.1064L80.7334 23.0352L79.0194 27.2829L82.2178 27.2821ZM93.1271 27.2821V22.1728C93.9841 23.1779 95.2693 23.6075 96.5255 23.6075C99.7811 23.6075 101.609 20.6801 101.609 17.3786C101.609 14.078 99.7811 11.1787 96.4682 11.1787C95.1831 11.1787 93.9551 11.6092 93.1271 12.6135V11.4367H90.1859V27.2829L93.1271 27.2821ZM95.7547 20.9098C93.7552 20.9098 92.8699 19.388 92.8699 17.3786C92.8699 15.37 93.7552 13.791 95.7257 13.791C97.7251 13.791 98.6386 15.37 98.6386 17.3786C98.6386 19.3888 97.7534 20.9098 95.7547 20.9098ZM109.034 23.6083C109.851 23.6201 110.663 23.4644 111.418 23.1507C112.173 22.837 112.856 22.372 113.424 21.7843C113.995 21.1947 114.439 20.4947 114.73 19.7274C115.022 18.96 115.153 18.1413 115.117 17.3214C115.117 13.9635 112.689 11.1497 109.034 11.1497C108.224 11.1299 107.42 11.2764 106.669 11.5802C105.917 11.8845 105.235 12.3397 104.665 12.9178C104.096 13.4958 103.651 14.1844 103.357 14.9411C103.062 15.699 102.924 16.5092 102.951 17.3222C102.913 18.1439 103.042 18.9648 103.331 19.735C103.62 20.5052 104.063 21.2084 104.632 21.8019C105.201 22.3936 105.885 22.8618 106.642 23.1775C107.399 23.4931 108.213 23.6494 109.034 23.6365V23.6083ZM109.034 21.0822C106.835 21.0822 105.978 19.3308 105.978 17.3504C105.978 15.3982 106.835 13.7048 109.034 13.7048C111.233 13.7048 112.09 15.4272 112.09 17.3504C112.09 19.3308 111.233 21.0822 109.034 21.0822ZM121.028 23.6083C123.313 23.6083 125.683 22.3735 125.683 19.5895C125.683 15.2258 119.658 16.3171 119.658 14.5084C119.658 13.9345 120.228 13.4751 121.171 13.4751C122.456 13.4751 123.113 14.2497 123.541 14.9968L125.769 13.762C124.884 12.1548 123.313 11.1787 121.257 11.1787C118.972 11.1787 116.859 12.3845 116.859 14.9106C116.859 19.1011 122.828 17.7526 122.828 19.762C122.828 20.3931 122.256 21.1967 120.914 21.1967C119.315 21.1967 118.687 20.0772 118.372 19.2163L116.087 20.2496C116.659 22.0866 118.544 23.6075 121.057 23.6075L121.028 23.6083ZM132.48 23.6083C133.308 23.6083 134.193 23.4076 134.622 23.2343V20.5938C134.222 20.7953 133.565 21.0242 132.965 21.0242C132.223 21.0242 131.623 20.6808 131.623 19.5323V13.8773H134.622V11.4657H131.623V7.56137H128.796V11.4367H126.854V13.8483H128.767V20.0489C128.767 22.23 130.138 23.6083 132.48 23.6083ZM4.85492 11.4657H11.3372C11.5646 11.4657 11.7829 11.5565 11.9431 11.7175C12.1034 11.8793 12.1942 12.0983 12.1942 12.3265V12.6715C12.1942 12.8997 12.1042 13.1187 11.9431 13.2805C11.8637 13.3603 11.7693 13.4236 11.6653 13.4669C11.5613 13.5101 11.4498 13.5323 11.3372 13.5323H7.62519C7.42524 13.5323 7.11082 13.7048 7.11082 14.1062C7.11082 14.5084 7.39624 14.6809 7.62519 14.6809H12.9368C13.1642 14.6809 13.3817 14.7717 13.5427 14.9327C13.703 15.0945 13.793 15.3135 13.793 15.5417V15.8867C13.793 16.1148 13.703 16.3339 13.5427 16.4949C13.4633 16.5749 13.3689 16.6383 13.265 16.6817C13.161 16.725 13.0494 16.7474 12.9368 16.7475H7.62519C7.42524 16.7475 7.11082 16.9482 7.11082 17.3214C7.11082 17.7236 7.39624 17.9243 7.62519 17.9243H12.3087C12.5353 17.9243 12.7536 18.0151 12.9139 18.1761C13.0741 18.3379 13.1657 18.5577 13.1657 18.7859V19.1011C13.1657 19.33 13.0741 19.5491 12.9139 19.7101C12.8345 19.7898 12.7402 19.8531 12.6364 19.8963C12.5325 19.9395 12.4212 19.9618 12.3087 19.9619H7.62519C7.42524 19.9619 7.11082 20.1634 7.11082 20.5366C7.11082 20.967 7.39624 21.1685 7.62519 21.1685H10.5664C10.7938 21.1685 11.0113 21.2593 11.1723 21.4203C11.3326 21.5821 11.4234 21.8011 11.4234 22.0293V22.3163C11.4234 22.5452 11.3326 22.7635 11.1716 22.9253C11.0922 23.005 10.9979 23.0683 10.8941 23.1115C10.7902 23.1547 10.6789 23.177 10.5664 23.1771H4.85492C4.34055 23.1771 4.05513 23.1489 3.76971 22.4597C2.41533 19.1342 2.43592 15.4072 3.82695 12.0968C4.08337 11.4657 4.39779 11.4657 4.85492 11.4657ZM37.4677 24.3829V28.1147C37.4677 28.5162 37.1251 28.8603 36.6969 28.8603H9.39571C9.19577 28.8603 9.00421 28.7833 8.85998 28.6436C8.71597 28.5041 8.63148 28.3143 8.62416 28.114V24.3821H10.4809C10.7482 24.3828 11.0131 24.3306 11.26 24.2283C11.507 24.126 11.7313 23.9758 11.9198 23.7863C12.1084 23.5968 12.2575 23.3718 12.3586 23.1244C12.4597 22.8769 12.5107 22.6118 12.5086 22.3445V22.0286C12.5064 21.7304 12.4381 21.4364 12.3087 21.1677C12.8372 21.1451 13.3358 20.9164 13.6976 20.5305C14.0604 20.1435 14.2586 19.6307 14.2502 19.1003V18.8134C14.2525 18.392 14.1228 17.9805 13.8793 17.6366C14.4501 17.2634 14.879 16.6315 14.879 15.8859V15.5699C14.879 14.5366 14.0792 13.6468 13.0795 13.5606C13.2222 13.2736 13.2794 12.9859 13.2794 12.6417V12.3548C13.2794 11.2062 12.3652 10.3171 11.28 10.3171H8.62416V7.24542C8.62416 6.81424 8.96758 6.47005 9.39495 6.47005H36.6969C37.1251 6.47005 37.4677 6.81424 37.4677 7.24542V10.3164H34.7547C34.491 10.3153 34.2297 10.3667 33.986 10.4674C33.7423 10.5682 33.5211 10.7163 33.3351 10.9032C33.1491 11.0902 33.002 11.3122 32.9025 11.5564C32.8029 11.8005 32.7529 12.0621 32.7552 12.3258V12.6417C32.7445 12.947 32.8033 13.2522 32.9269 13.5316C32.4393 13.5944 31.9911 13.8326 31.6662 14.2016C31.3402 14.5719 31.1592 15.0476 31.1564 15.5409V15.8859C31.1564 16.6315 31.5563 17.2634 32.1279 17.6076C31.894 17.9549 31.7739 18.3665 31.7845 18.7851V19.1003C31.7845 20.1916 32.6415 21.1097 33.6985 21.1387C33.5687 21.4073 33.5001 21.7012 33.4985 21.9996V22.3445C33.4985 23.4641 34.412 24.3539 35.5262 24.3539H37.4395L37.4677 24.3829ZM30.8992 22.1148C29.908 23.2052 28.699 24.0756 27.3505 24.6698C26.0034 25.2631 24.5465 25.5663 23.0746 25.5597C21.6002 25.5562 20.1425 25.2486 18.7925 24.6561C17.4403 24.0628 16.2246 23.1978 15.2209 22.1148C14.6218 21.4257 15.3926 20.4786 16.2206 21.1097C18.1339 22.5452 20.5042 23.3488 23.0746 23.3488C25.5218 23.3816 27.9113 22.6046 29.8712 21.1387C30.642 20.5648 31.4991 21.4257 30.871 22.1148H30.8992ZM23.5599 0.815052V5.12079C23.5599 5.20703 23.6172 5.26426 23.7026 5.26426H36.1826C37.0968 5.26426 36.9251 4.54689 36.6397 4.31718L33.2131 1.15924C32.8987 0.815052 32.5843 0.670815 31.7845 0.670815H23.7316C23.6454 0.670815 23.5889 0.728815 23.5889 0.815052H23.5599ZM22.4457 5.12079V0.815815C22.4457 0.729579 22.3892 0.672342 22.3038 0.672342H14.3074C13.5076 0.672342 13.1649 0.844052 12.8505 1.16076L9.42395 4.31718C9.13853 4.57513 8.99582 5.26426 9.90932 5.26426H22.303C22.3892 5.26426 22.4457 5.20703 22.4457 5.12079ZM41.0668 11.4649H34.6975C34.5848 11.4649 34.4733 11.4872 34.3693 11.5304C34.2654 11.5736 34.1709 11.6369 34.0915 11.7168C33.9312 11.8786 33.8412 12.0976 33.8412 12.3258V12.6707C33.8404 12.7837 33.862 12.8957 33.9047 13.0002C33.9474 13.1048 34.0105 13.1998 34.0902 13.2799C34.1699 13.3599 34.2646 13.4234 34.369 13.4666C34.4734 13.5098 34.5853 13.5319 34.6982 13.5316H38.4102C38.6102 13.5316 38.8956 13.704 38.8956 14.1054C38.8956 14.5076 38.6102 14.6801 38.4102 14.6801H33.0986C32.986 14.6801 32.8745 14.7023 32.7705 14.7456C32.6665 14.7888 32.5721 14.8521 32.4927 14.9319C32.3324 15.0937 32.2416 15.3128 32.2416 15.5409V15.8859C32.2416 16.1141 32.3324 16.3331 32.4927 16.4941C32.653 16.6559 32.8712 16.7467 33.0986 16.7467H38.4102C38.6102 16.7467 38.8956 16.9474 38.8956 17.3206C38.8956 17.7228 38.6102 17.9235 38.4102 17.9235H33.7267C33.6141 17.9235 33.5026 17.9458 33.3986 17.989C33.2946 18.0322 33.2002 18.0955 33.1208 18.1754C32.9605 18.3372 32.8697 18.5569 32.8697 18.7851V19.1003C32.8697 19.3293 32.9605 19.5483 33.1215 19.7093C33.2818 19.8711 33.4993 19.9612 33.7267 19.9612H38.4102C38.6102 19.9612 38.8956 20.1626 38.8956 20.5358C38.8956 20.9662 38.6102 21.1677 38.4102 21.1677H35.469C35.3564 21.1677 35.2449 21.1899 35.1409 21.2332C35.0369 21.2764 34.9425 21.3397 34.8631 21.4196C34.7028 21.5813 34.612 21.8004 34.612 22.0286V22.3155C34.612 22.5444 34.702 22.7627 34.8631 22.9245C35.0233 23.0863 35.2416 23.1763 35.469 23.1763H41.066C41.6941 23.1763 41.9513 23.1763 42.2657 22.3727C43.5831 19.1137 43.5831 15.4703 42.2657 12.2113C41.9513 11.4649 41.6376 11.4649 41.066 11.4649H41.0668Z" fill="white"/>
</svg>
