<svg width="793" height="112" viewBox="0 0 793 112" fill="none" xmlns="http://www.w3.org/2000/svg">
<path d="M135.372 66.5501C135.972 72.1514 141.067 81.7535 155.852 81.7535C168.74 81.7535 174.934 73.5517 174.934 65.55C174.934 58.3483 170.039 52.447 160.348 50.4465L153.355 48.9462C150.657 48.4461 148.859 46.9458 148.859 44.5452C148.859 41.7445 151.656 39.6442 155.153 39.6442C160.748 39.6442 162.846 43.3449 163.245 46.2457L174.335 43.7451C173.735 38.4439 169.04 29.542 155.053 29.542C144.463 29.542 136.671 36.8436 136.671 45.6454C136.671 52.5469 140.967 58.2484 150.458 60.3487L156.951 61.8491C160.748 62.6492 162.246 64.4498 162.246 66.6502C162.246 69.2508 160.148 71.5513 155.752 71.5513C149.958 71.5513 147.061 67.9504 146.761 64.0495L135.372 66.5501Z" fill="white"/>
<path d="M217.396 80.253H230.084C229.885 78.5525 229.585 75.1518 229.585 71.3509V31.042H216.296V59.6483C216.296 65.3497 212.9 69.3505 207.006 69.3505C200.813 69.3505 198.015 64.9495 198.015 59.4483V31.042H184.728V62.149C184.728 72.8513 191.521 81.5532 203.409 81.5532C208.604 81.5532 214.3 79.5528 216.997 74.9518C216.997 76.9522 217.197 79.2527 217.396 80.253Z" fill="white"/>
<path d="M257.051 99.2573V75.4521C259.448 78.7527 264.444 81.4534 271.238 81.4534C285.125 81.4534 294.414 70.4508 294.414 55.5475C294.414 40.9443 286.124 29.9419 271.738 29.9419C264.345 29.9419 258.85 33.2425 256.653 37.0435V31.0421H243.765V99.2573H257.051ZM281.328 55.6476C281.328 64.4496 275.933 69.5506 269.139 69.5506C262.347 69.5506 256.852 64.3495 256.852 55.6476C256.852 46.9457 262.347 41.8445 269.139 41.8445C275.933 41.8445 281.328 46.9457 281.328 55.6476Z" fill="white"/>
<path d="M301.939 66.8502C301.939 74.552 308.333 81.6536 318.823 81.6536C326.115 81.6536 330.81 78.2527 333.308 74.3518C333.308 76.2523 333.507 78.9528 333.807 80.2533H345.996C345.696 78.5528 345.397 75.052 345.397 72.4515V48.246C345.397 38.3438 339.602 29.542 324.018 29.542C310.83 29.542 303.736 38.0437 302.938 45.7455L314.726 48.246C315.127 43.9451 318.323 40.2443 324.117 40.2443C329.712 40.2443 332.409 43.1449 332.409 46.6457C332.409 48.3462 331.511 49.7465 328.713 50.1465L316.625 51.9469C308.433 53.1472 301.939 58.0482 301.939 66.8502ZM321.619 71.7514C317.324 71.7514 315.225 68.9507 315.225 66.0501C315.225 62.2492 317.923 60.3487 321.321 59.8487L332.409 58.1483V60.3487C332.409 69.0508 327.215 71.7514 321.619 71.7514Z" fill="white"/>
<path d="M371.678 80.2531V74.2518C374.275 78.4528 379.469 81.4534 386.264 81.4534C400.251 81.4534 409.442 70.3509 409.442 55.4476C409.442 40.8442 401.149 29.7419 386.763 29.7419C379.469 29.7419 374.075 32.9426 371.878 36.4432V7.83691H358.791V80.2531H371.678ZM396.154 55.5475C396.154 64.5495 390.76 69.5506 383.965 69.5506C377.272 69.5506 371.678 64.4496 371.678 55.5475C371.678 46.5455 377.272 41.6445 383.965 41.6445C390.76 41.6445 396.154 46.5455 396.154 55.5475Z" fill="white"/>
<path d="M416.965 66.8502C416.965 74.552 423.358 81.6536 433.849 81.6536C441.14 81.6536 445.838 78.2527 448.333 74.3518C448.333 76.2523 448.535 78.9528 448.833 80.2533H461.021C460.723 78.5528 460.423 75.052 460.423 72.4515V48.246C460.423 38.3438 454.628 29.542 439.043 29.542C425.856 29.542 418.764 38.0437 417.964 45.7455L429.752 48.246C430.152 43.9451 433.349 40.2443 439.142 40.2443C444.738 40.2443 447.435 43.1449 447.435 46.6457C447.435 48.3462 446.537 49.7465 443.739 50.1465L431.651 51.9469C423.459 53.1472 416.965 58.0482 416.965 66.8502ZM436.646 71.7514C432.35 71.7514 430.251 68.9507 430.251 66.0501C430.251 62.2492 432.948 60.3487 436.346 59.8487L447.435 58.1483V60.3487C447.435 69.0508 442.24 71.7514 436.646 71.7514Z" fill="white"/>
<path d="M469.62 66.5501C470.218 72.1514 475.315 81.7535 490.099 81.7535C502.987 81.7535 509.181 73.5517 509.181 65.55C509.181 58.3483 504.286 52.447 494.595 50.4465L487.602 48.9462C484.905 48.4461 483.108 46.9458 483.108 44.5452C483.108 41.7445 485.904 39.6442 489.4 39.6442C494.996 39.6442 497.093 43.3449 497.494 46.2457L508.583 43.7451C507.982 38.4439 503.287 29.542 489.302 29.542C478.711 29.542 470.919 36.8436 470.919 45.6454C470.919 52.5469 475.214 58.2484 484.705 60.3487L491.199 61.8491C494.996 62.6492 496.495 64.4498 496.495 66.6502C496.495 69.2508 494.396 71.5513 490.001 71.5513C484.206 71.5513 481.309 67.9504 481.009 64.0495L469.62 66.5501Z" fill="white"/>
<path d="M529.36 50.0464C529.66 45.5455 533.457 40.3442 540.35 40.3442C547.942 40.3442 551.141 45.1455 551.34 50.0464H529.36ZM552.639 62.8494C551.04 67.2502 547.644 70.351 541.45 70.351C534.855 70.351 529.36 65.6499 529.062 59.1486H564.227C564.227 58.9484 564.427 56.948 564.427 55.0475C564.427 39.244 555.336 29.542 540.151 29.542C527.563 29.542 515.973 39.7441 515.973 55.4477C515.973 72.0513 527.861 81.7535 541.349 81.7535C553.437 81.7535 561.23 74.6519 563.728 66.15L552.639 62.8494Z" fill="white"/>
<path d="M63.683 110.073C60.8235 113.674 55.0255 111.701 54.9566 107.103L53.9491 39.8516L99.1689 39.8516C107.36 39.8516 111.928 49.3117 106.835 55.7263L63.683 110.073Z" fill="url(#paint0_linear)"/>
<path d="M63.683 110.073C60.8235 113.674 55.0255 111.701 54.9566 107.103L53.9491 39.8516L99.1689 39.8516C107.36 39.8516 111.928 49.3117 106.835 55.7263L63.683 110.073Z" fill="url(#paint1_linear)" fill-opacity="0.2"/>
<path d="M45.2924 1.85984C48.1519 -1.74155 53.9498 0.231755 54.0187 4.82982L54.4603 72.081H9.80647C1.61572 72.081 -2.95241 62.6209 2.14084 56.2063L45.2924 1.85984Z" fill="#3ECF8E"/>
<path d="M596.612 56.2652C596.612 46.3518 602.219 39.3424 610.83 39.3424C619.44 39.3424 624.647 46.1516 624.647 56.065C624.647 65.9783 619.34 73.4885 610.73 73.4885C601.718 73.4885 596.612 66.1786 596.612 56.2652ZM624.747 73.9892C624.747 76.8931 625.047 79.3965 625.248 80.498H634.359C634.259 79.6969 633.858 76.1922 633.858 71.5859V8H624.547V39.1421C622.945 35.2368 618.339 31.0311 609.828 31.0311C596.211 31.0311 587 42.6468 587 56.2652C587 70.5846 595.711 81.7997 609.828 81.7997C617.338 81.7997 622.444 77.7943 624.747 73.1881V73.9892Z" fill="url(#paint2_linear)"/>
<path d="M596.612 56.2652C596.612 46.3518 602.219 39.3424 610.83 39.3424C619.44 39.3424 624.647 46.1516 624.647 56.065C624.647 65.9783 619.34 73.4885 610.73 73.4885C601.718 73.4885 596.612 66.1786 596.612 56.2652ZM624.747 73.9892C624.747 76.8931 625.047 79.3965 625.248 80.498H634.359C634.259 79.6969 633.858 76.1922 633.858 71.5859V8H624.547V39.1421C622.945 35.2368 618.339 31.0311 609.828 31.0311C596.211 31.0311 587 42.6468 587 56.2652C587 70.5846 595.711 81.7997 609.828 81.7997C617.338 81.7997 622.444 77.7943 624.747 73.1881V73.9892Z" fill="url(#paint3_linear)" fill-opacity="0.2"/>
<path d="M670.493 73.5886C662.483 73.5886 655.474 67.5805 655.474 56.3654C655.474 45.2503 662.483 39.2422 670.493 39.2422C678.503 39.2422 685.512 45.2503 685.512 56.3654C685.512 67.5805 678.503 73.5886 670.493 73.5886ZM670.493 30.8309C656.075 30.8309 645.863 41.7456 645.863 56.3654C645.863 71.0853 656.075 82 670.493 82C684.911 82 695.124 71.0853 695.124 56.3654C695.124 41.7456 684.911 30.8309 670.493 30.8309Z" fill="url(#paint4_linear)"/>
<path d="M670.493 73.5886C662.483 73.5886 655.474 67.5805 655.474 56.3654C655.474 45.2503 662.483 39.2422 670.493 39.2422C678.503 39.2422 685.512 45.2503 685.512 56.3654C685.512 67.5805 678.503 73.5886 670.493 73.5886ZM670.493 30.8309C656.075 30.8309 645.863 41.7456 645.863 56.3654C645.863 71.0853 656.075 82 670.493 82C684.911 82 695.124 71.0853 695.124 56.3654C695.124 41.7456 684.911 30.8309 670.493 30.8309Z" fill="url(#paint5_linear)" fill-opacity="0.2"/>
<path d="M727.391 39.5426C735.601 39.5426 739.105 45.0501 740.307 49.7564L748.818 46.1516C746.815 38.8417 740.207 30.8309 727.391 30.8309C713.674 30.8309 703.161 41.3451 703.161 56.3654C703.161 70.9851 713.473 82 727.491 82C740.007 82 746.915 73.889 749.218 66.9797L740.908 63.3748C739.806 67.18 736.502 73.2882 727.491 73.2882C719.681 73.2882 712.773 67.3802 712.773 56.3654C712.773 45.1502 719.781 39.5426 727.391 39.5426Z" fill="url(#paint6_linear)"/>
<path d="M727.391 39.5426C735.601 39.5426 739.105 45.0501 740.307 49.7564L748.818 46.1516C746.815 38.8417 740.207 30.8309 727.391 30.8309C713.674 30.8309 703.161 41.3451 703.161 56.3654C703.161 70.9851 713.473 82 727.491 82C740.007 82 746.915 73.889 749.218 66.9797L740.908 63.3748C739.806 67.18 736.502 73.2882 727.491 73.2882C719.681 73.2882 712.773 67.3802 712.773 56.3654C712.773 45.1502 719.781 39.5426 727.391 39.5426Z" fill="url(#paint7_linear)" fill-opacity="0.2"/>
<path d="M755.754 67.9811C756.555 73.4885 762.162 82 775.378 82C787.293 82 793 73.889 793 67.0798C793 59.9702 788.394 54.6631 779.683 52.7605L771.874 51.0582C768.169 50.2571 766.367 48.1543 766.367 45.2503C766.367 41.9459 769.571 38.8417 774.377 38.8417C781.986 38.8417 783.989 44.3491 784.389 46.8525L792.7 43.7483C791.698 39.4425 787.593 30.8309 774.377 30.8309C764.965 30.8309 757.255 37.8403 757.255 46.0514C757.255 52.8606 761.761 57.9675 769.27 59.5697L777.481 61.3721C781.486 62.2733 783.688 64.5765 783.688 67.5805C783.688 70.9851 780.785 73.9892 775.478 73.9892C768.67 73.9892 764.865 69.9838 764.264 64.977L755.754 67.9811Z" fill="url(#paint8_linear)"/>
<path d="M755.754 67.9811C756.555 73.4885 762.162 82 775.378 82C787.293 82 793 73.889 793 67.0798C793 59.9702 788.394 54.6631 779.683 52.7605L771.874 51.0582C768.169 50.2571 766.367 48.1543 766.367 45.2503C766.367 41.9459 769.571 38.8417 774.377 38.8417C781.986 38.8417 783.989 44.3491 784.389 46.8525L792.7 43.7483C791.698 39.4425 787.593 30.8309 774.377 30.8309C764.965 30.8309 757.255 37.8403 757.255 46.0514C757.255 52.8606 761.761 57.9675 769.27 59.5697L777.481 61.3721C781.486 62.2733 783.688 64.5765 783.688 67.5805C783.688 70.9851 780.785 73.9892 775.478 73.9892C768.67 73.9892 764.865 69.9838 764.264 64.977L755.754 67.9811Z" fill="url(#paint9_linear)" fill-opacity="0.2"/>
<defs>
<linearGradient id="paint0_linear" x1="53.9491" y1="54.7628" x2="94.1388" y2="71.6184" gradientUnits="userSpaceOnUse">
<stop stop-color="#249361"/>
<stop offset="1" stop-color="#3ECF8E"/>
</linearGradient>
<linearGradient id="paint1_linear" x1="36.1311" y1="30.3669" x2="54.4598" y2="64.8695" gradientUnits="userSpaceOnUse">
<stop/>
<stop offset="1" stop-opacity="0"/>
</linearGradient>
<linearGradient id="paint2_linear" x1="793" y1="66.6917" x2="740.013" y2="-14.3447" gradientUnits="userSpaceOnUse">
<stop stop-color="#249361"/>
<stop offset="1" stop-color="#3ECF8E"/>
</linearGradient>
<linearGradient id="paint3_linear" x1="859.705" y1="91.7371" x2="853.226" y2="47.264" gradientUnits="userSpaceOnUse">
<stop/>
<stop offset="1" stop-opacity="0"/>
</linearGradient>
<linearGradient id="paint4_linear" x1="793" y1="66.6917" x2="740.013" y2="-14.3447" gradientUnits="userSpaceOnUse">
<stop stop-color="#249361"/>
<stop offset="1" stop-color="#3ECF8E"/>
</linearGradient>
<linearGradient id="paint5_linear" x1="859.705" y1="91.7371" x2="853.226" y2="47.264" gradientUnits="userSpaceOnUse">
<stop/>
<stop offset="1" stop-opacity="0"/>
</linearGradient>
<linearGradient id="paint6_linear" x1="793" y1="66.6917" x2="740.013" y2="-14.3447" gradientUnits="userSpaceOnUse">
<stop stop-color="#249361"/>
<stop offset="1" stop-color="#3ECF8E"/>
</linearGradient>
<linearGradient id="paint7_linear" x1="859.705" y1="91.7371" x2="853.226" y2="47.264" gradientUnits="userSpaceOnUse">
<stop/>
<stop offset="1" stop-opacity="0"/>
</linearGradient>
<linearGradient id="paint8_linear" x1="793" y1="66.6917" x2="740.013" y2="-14.3447" gradientUnits="userSpaceOnUse">
<stop stop-color="#249361"/>
<stop offset="1" stop-color="#3ECF8E"/>
</linearGradient>
<linearGradient id="paint9_linear" x1="859.705" y1="91.7371" x2="853.226" y2="47.264" gradientUnits="userSpaceOnUse">
<stop/>
<stop offset="1" stop-opacity="0"/>
</linearGradient>
</defs>
</svg>
