<svg xmlns="http://www.w3.org/2000/svg" xmlns:xlink="http://www.w3.org/1999/xlink" viewBox="0 0 34 42" fill="#fff" fill-rule="evenodd" stroke="#000" stroke-linecap="round" stroke-linejoin="round"><style><![CDATA[.B{fill-rule:nonzero}]]></style><use xlink:href="#C" x=".5" y=".5"/><defs><linearGradient id="A" x1="19.68%" y1="119.30%" x2="69.89%" y2="44.82%"><stop offset="0%" stop-color="#1a237e" stop-opacity=".4"/><stop offset="1%" stop-color="#1a237e" stop-opacity="0"/></linearGradient><radialGradient id="B" cx="3%" cy="7%" r="135%" fx="3%" fy="7%"><stop offset="0%" stop-color="#fff" stop-opacity=".1"/><stop offset="1%" stop-color="#fff" stop-opacity="0"/></radialGradient></defs><symbol id="C" overflow="visible"><g stroke="none"><path d="M15.504 35.667l17.057-17.061H20.159L9.305 29.464zM0 20.159L20.159 0h12.403L6.203 26.362z" fill="#39cefd" class="B"/><path d="M20.158 40.318h12.403L21.707 29.464l-6.203 6.203z" fill="#03569b" class="B"/><path d="M21.707 29.464l-6.203 6.203 9.2-3.187z" fill="url(#A)" class="B"/><path d="M9.304 29.461l6.203-6.203 6.204 6.203-6.204 6.203z" fill="#16b9fd" class="B"/><path d="M32.561 18.606L21.708 29.464l10.854 10.858H20.159L9.301 29.464l10.858-10.858h12.403zM20.159 0L0 20.159l6.203 6.203L32.561 0H20.159z" fill="url(#B)" class="B"/></g></symbol></svg>