<svg xmlns="http://www.w3.org/2000/svg" viewBox="0 0 490.6 436.9"><defs><style>.cls-1{fill:#61dafb;}</style></defs><g id="Layer_2" data-name="Layer 2"><g id="Layer_2-2" data-name="Layer 2"><path class="cls-1" d="M490.6,218.5c0-32.5-40.7-63.3-103.1-82.4,14.4-63.6,8-114.2-20.2-130.4A43.84,43.84,0,0,0,344.9.1V22.4A23.16,23.16,0,0,1,356.3,25c13.6,7.8,19.5,37.5,14.9,75.7-1.1,9.4-2.9,19.3-5.1,29.4a484.62,484.62,0,0,0-63.5-10.9,487.8,487.8,0,0,0-41.6-50c32.6-30.3,63.2-46.9,84-46.9V0h0c-27.5,0-63.5,19.6-99.9,53.6C208.7,19.8,172.7.4,145.2.4V22.7c20.7,0,51.4,16.5,84,46.6a472.31,472.31,0,0,0-41.3,49.9,467,467,0,0,0-63.6,11c-2.3-10-4-19.7-5.2-29-4.7-38.2,1.1-67.9,14.6-75.8,3-1.8,6.9-2.6,11.5-2.6V.5h0a44.59,44.59,0,0,0-22.6,5.6C94.5,22.3,88.2,72.8,102.7,136.2,40.5,155.4,0,186.1,0,218.5s40.7,63.3,103.1,82.4c-14.4,63.6-8,114.2,20.2,130.4,6.5,3.8,14.1,5.6,22.5,5.6,27.5,0,63.5-19.6,99.9-53.6,36.4,33.8,72.4,53.2,99.9,53.2a44.59,44.59,0,0,0,22.6-5.6c28.1-16.2,34.4-66.7,19.9-130.1C450.1,281.7,490.6,250.9,490.6,218.5ZM360.4,151.8c-3.7,12.9-8.3,26.2-13.5,39.5-4.1-8-8.4-16-13.1-24s-9.5-15.8-14.4-23.4C333.6,146,347.3,148.6,360.4,151.8ZM314.6,258.3c-7.8,13.5-15.8,26.3-24.1,38.2-14.9,1.3-30,2-45.2,2s-30.2-.7-45-1.9q-12.45-17.85-24.2-38Q164.7,239,155.3,218.8c6.2-13.4,13.2-26.8,20.7-39.9,7.8-13.5,15.8-26.3,24.1-38.2,14.9-1.3,30-2,45.2-2s30.2.7,45,1.9q12.45,17.85,24.2,38,11.4,19.65,20.8,39.8C329,231.8,322.1,245.2,314.6,258.3Zm32.3-13c5.4,13.4,10,26.8,13.8,39.8-13.1,3.2-26.9,5.9-41.2,8,4.9-7.7,9.8-15.6,14.4-23.7S342.8,253.3,346.9,245.3ZM245.5,352a412.27,412.27,0,0,1-27.8-32c9,.4,18.2.7,27.5.7s18.7-.2,27.8-.7A390.33,390.33,0,0,1,245.5,352Zm-74.4-58.9c-14.2-2.1-27.9-4.7-41-7.9,3.7-12.9,8.3-26.2,13.5-39.5,4.1,8,8.4,16,13.1,24S166.2,285.5,171.1,293.1ZM245,85a412.27,412.27,0,0,1,27.8,32c-9-.4-18.2-.7-27.5-.7s-18.7.2-27.8.7A390.33,390.33,0,0,1,245,85Zm-74,58.9c-4.9,7.7-9.8,15.6-14.4,23.7s-8.9,16-13,24c-5.4-13.4-10-26.8-13.8-39.8C142.9,148.7,156.7,146,171,143.9ZM80.5,269.1C45.1,254,22.2,234.2,22.2,218.5s22.9-35.6,58.3-50.6c8.6-3.7,18-7,27.7-10.1a480.28,480.28,0,0,0,22.5,60.9,473.51,473.51,0,0,0-22.2,60.6C98.6,276.2,89.2,272.8,80.5,269.1ZM134.3,412c-13.6-7.8-19.5-37.5-14.9-75.7,1.1-9.4,2.9-19.3,5.1-29.4A484.62,484.62,0,0,0,188,317.8a487.8,487.8,0,0,0,41.6,50c-32.6,30.3-63.2,46.9-84,46.9A23.87,23.87,0,0,1,134.3,412Zm237.2-76.2c4.7,38.2-1.1,67.9-14.6,75.8-3,1.8-6.9,2.6-11.5,2.6-20.7,0-51.4-16.5-84-46.6a472.31,472.31,0,0,0,41.3-49.9,467,467,0,0,0,63.6-11A279.94,279.94,0,0,1,371.5,335.8ZM410,269.1c-8.6,3.7-18,7-27.7,10.1a480.28,480.28,0,0,0-22.5-60.9A473.51,473.51,0,0,0,382,157.7c9.9,3.1,19.3,6.5,28.1,10.2,35.4,15.1,58.3,34.9,58.3,50.6S445.4,254.1,410,269.1Z"/><circle class="cls-1" cx="245.2" cy="218.5" r="45.7"/></g></g></svg>