<svg xmlns="http://www.w3.org/2000/svg" width="25" height="25" fill="none" viewBox="0 0 25 25"><path fill="url(#a)" d="M15.046 9.946c.117.041.205.168.288.289.113.163.218.315.379.23a1.087 1.087 0 1 0-1.47-.45c.074.14.24.074.414.004.137-.055.28-.112.389-.073"/><path fill="url(#b)" d="M9.634 10.235c.084-.12.171-.248.29-.29.108-.038.25.02.388.074.174.07.34.136.414-.004a1.087 1.087 0 1 0-1.47.45c.16.085.266-.067.378-.23"/><path fill="url(#c)" d="M17.7 10.97a.707.707 0 1 0 0-1.414.707.707 0 0 0 0 1.414"/><path fill="url(#d)" d="M8.296 10.263a.707.707 0 1 1-1.413 0 .707.707 0 0 1 1.413 0"/><path fill="url(#e)" fill-rule="evenodd" d="M10.804 11.819c.518.256 1.103.544 1.732.544.631 0 1.222-.292 1.744-.55.135-.067.272-.134.397-.186a1.4 1.4 0 0 1 .417-.112.62.62 0 0 1 .55.233c.131.169.154.376.154.532 0 .572-.197 1.385-.697 2.066-.514.7-1.346 1.253-2.565 1.253-1.22 0-2.051-.553-2.565-1.253a3.66 3.66 0 0 1-.697-2.066c0-.152.022-.347.139-.512a.62.62 0 0 1 .527-.255c.151.003.298.052.411.096.12.047.251.11.378.173zm-.65.652c.038.396.194.92.518 1.36.126.173.279.333.462.47.235-.287.553-.502.918-.61.087-.026.176.123.268.276.088.148.179.3.27.3.099 0 .195-.15.289-.295.098-.152.194-.3.286-.27q.04.012.08.027c.295.11.555.29.759.52q.23-.188.396-.418c.324-.44.48-.964.518-1.36a10 10 0 0 0-.252.121l-.05.026c-.492.243-1.241.615-2.08.615-.841 0-1.597-.375-2.09-.62zm4.77-.252v.002z" clip-rule="evenodd"/><path fill="url(#f)" fill-rule="evenodd" d="M14.021 20.307a8.5 8.5 0 0 1-2.766.016c-.542.614-1.39.926-2.528.926-.692 0-1.492-.117-2.377-.346-.02-.006-.626-.175-1.287-.437-1.075-.426-1.629-.823-1.852-1.328a1.14 1.14 0 0 1 .08-1.091 1.28 1.28 0 0 1-.172-1.032c.066-.251.203-.46.388-.61a1.3 1.3 0 0 1-.172-.481c-.054-.37.07-.74.346-1.042.215-.234.52-.364.857-.364h.009a8.426 8.426 0 1 1 16.086.006q.06-.006.119-.006c.337 0 .641.13.857.364.276.301.399.671.345 1.042a1.3 1.3 0 0 1-.172.48c.186.15.323.36.389.611.051.198.104.608-.173 1.032q.027.041.05.085c.167.316.177.674.03 1.006-.223.505-.776.902-1.852 1.328-.661.262-1.267.431-1.286.436-.885.23-1.685.347-2.378.347-1.146 0-2-.317-2.541-.942m-1.43-15.86a7.556 7.556 0 0 1 7.368 9.234 1.14 1.14 0 0 0-.805-.32c-.281 0-.571.094-.861.278-.193.122-.405.338-.624.61a1.24 1.24 0 0 0-.812-.519 1 1 0 0 0-.188-.015c-.742 0-1.188.644-1.356 1.223-.084.195-.486 1.086-1.09 1.69-.917.916-1.15 1.861-.701 2.874a7.6 7.6 0 0 1-1.76.012c.456-1.017.226-1.966-.695-2.886-.604-.604-1.006-1.495-1.09-1.69-.169-.58-.615-1.223-1.357-1.223q-.093 0-.188.015a1.24 1.24 0 0 0-.811.52c-.22-.273-.432-.49-.624-.611-.29-.184-.58-.278-.862-.278-.352 0-.667.145-.886.407l-.006.007a7.556 7.556 0 0 1 7.347-9.329M6.134 14.23c.11 0 .246.047.396.142.464.294 1.358 1.833 1.686 2.431.11.2.298.285.467.285.335 0 .597-.333.03-.756-.851-.638-.553-1.68-.146-1.744a.3.3 0 0 1 .052-.004c.37 0 .533.637.533.637s.478 1.2 1.299 2.02c.821.822.864 1.48.265 2.358-.408.598-1.19.779-1.99.779-.83 0-1.682-.195-2.159-.318-.023-.006-2.924-.826-2.557-1.523.062-.118.164-.165.292-.165.274 0 .668.217 1.038.42.327.18.635.35.825.35.09 0 .154-.038.18-.132.079-.281-.456-.488-1.04-.715-.701-.271-1.474-.57-1.346-1.06.042-.158.154-.223.313-.222.405 0 1.11.423 1.684.767.393.236.724.435.855.435q.037 0 .052-.022c.161-.26.073-.442-1.063-1.129l-.26-.157c-.993-.596-1.637-.983-1.22-1.438q.08-.084.217-.082c.69 0 2.318 1.483 2.318 1.483s.44.457.706.457a.16.16 0 0 0 .148-.084c.095-.16-.35-.612-.829-1.099-.472-.48-.977-.994-1.031-1.295-.074-.41.052-.619.285-.619m12.624.142c.15-.095.285-.142.395-.142.234 0 .36.208.286.62-.055.3-.56.814-1.032 1.294-.479.487-.924.94-.829 1.1.036.059.088.083.149.083.266 0 .705-.457.705-.457s1.63-1.483 2.319-1.483q.137-.002.216.082c.418.455-.227.842-1.22 1.438l-.26.157c-1.135.687-1.224.869-1.063 1.129q.015.022.052.022c.131 0 .462-.199.856-.435.573-.344 1.278-.767 1.684-.767.158 0 .27.064.312.222.129.49-.644.789-1.346 1.06-.584.227-1.118.434-1.04.715.026.094.09.133.18.133.19 0 .498-.17.825-.35.37-.204.764-.42 1.039-.42.128 0 .23.046.292.164.367.697-2.534 1.517-2.558 1.523-.477.123-1.328.318-2.159.318-.8 0-1.582-.18-1.99-.78-.598-.877-.556-1.535.266-2.356.82-.82 1.298-2.02 1.298-2.02s.163-.638.533-.638a.3.3 0 0 1 .053.004c.406.064.705 1.106-.147 1.743-.566.424-.304.757.03.757a.53.53 0 0 0 .467-.285c.328-.598 1.223-2.137 1.687-2.43" clip-rule="evenodd"/><defs><linearGradient id="a" x1="3.077" x2="20.694" y1="21.249" y2="2.174" gradientUnits="userSpaceOnUse"><stop stop-color="#ededed" stop-opacity=".5"/><stop offset="1" stop-color="#fff"/></linearGradient><linearGradient id="b" x1="3.077" x2="20.694" y1="21.249" y2="2.174" gradientUnits="userSpaceOnUse"><stop stop-color="#ededed" stop-opacity=".5"/><stop offset="1" stop-color="#fff"/></linearGradient><linearGradient id="c" x1="3.077" x2="20.694" y1="21.249" y2="2.174" gradientUnits="userSpaceOnUse"><stop stop-color="#ededed" stop-opacity=".5"/><stop offset="1" stop-color="#fff"/></linearGradient><linearGradient id="d" x1="3.077" x2="20.694" y1="21.249" y2="2.174" gradientUnits="userSpaceOnUse"><stop stop-color="#ededed" stop-opacity=".5"/><stop offset="1" stop-color="#fff"/></linearGradient><linearGradient id="e" x1="3.077" x2="20.694" y1="21.249" y2="2.174" gradientUnits="userSpaceOnUse"><stop stop-color="#ededed" stop-opacity=".5"/><stop offset="1" stop-color="#fff"/></linearGradient><linearGradient id="f" x1="3.077" x2="20.694" y1="21.249" y2="2.174" gradientUnits="userSpaceOnUse"><stop stop-color="#ededed" stop-opacity=".5"/><stop offset="1" stop-color="#fff"/></linearGradient></defs></svg>