<svg xmlns="http://www.w3.org/2000/svg" width="25" height="25" fill="none" viewBox="0 0 25 25"><path fill="url(#a)" d="M20.247 11.222a4.48 4.48 0 0 0-.384-3.682 4.55 4.55 0 0 0-4.882-2.176 4.5 4.5 0 0 0-3.383-1.506 4.55 4.55 0 0 0-4.328 3.14 4.5 4.5 0 0 0-2.999 2.176 4.535 4.535 0 0 0 .561 5.315 4.47 4.47 0 0 0 .384 3.675 4.55 4.55 0 0 0 4.889 2.183 4.49 4.49 0 0 0 3.376 1.511 4.55 4.55 0 0 0 4.328-3.139 4.47 4.47 0 0 0 2.993-2.176 4.52 4.52 0 0 0-.555-5.315zm-1.402-3.09c.39.682.537 1.48.403 2.255-.025-.019-.073-.043-.104-.061L15.56 8.253a.6.6 0 0 0-.591 0l-4.2 2.426V8.9l3.468-2.005a3.37 3.37 0 0 1 4.608 1.237m-8.076 3.7 1.768-1.025 1.767 1.024v2.042l-1.767 1.024-1.768-1.024zm.823-6.797a3.38 3.38 0 0 1 2.164.78c-.025.012-.073.043-.11.061l-3.584 2.066a.58.58 0 0 0-.293.512v4.852l-1.542-.89v-4.01a3.375 3.375 0 0 1 3.37-3.377zm-6.297 4.73a3.38 3.38 0 0 1 1.756-1.481v4.26c0 .214.11.403.292.512l4.194 2.42-1.548.896-3.463-1.999a3.375 3.375 0 0 1-1.23-4.608m.945 7.82a3.35 3.35 0 0 1-.402-2.255c.024.018.073.043.103.061l3.584 2.073a.6.6 0 0 0 .592 0l4.193-2.426v1.78l-3.468 1.999a3.38 3.38 0 0 1-4.608-1.232zm7.248 3.097a3.36 3.36 0 0 1-2.158-.78c.024-.012.079-.043.11-.061l3.584-2.067a.57.57 0 0 0 .292-.512v-4.846l1.542.89v4.005a3.375 3.375 0 0 1-3.37 3.377zm6.302-4.73a3.36 3.36 0 0 1-1.755 1.475v-4.26a.58.58 0 0 0-.293-.513l-4.2-2.426 1.543-.89 3.468 2a3.37 3.37 0 0 1 1.231 4.608z"/><defs><linearGradient id="a" x1="3.66" x2="21.659" y1="21.858" y2="4.102" gradientUnits="userSpaceOnUse"><stop stop-color="#ededed" stop-opacity=".5"/><stop offset="1" stop-color="#fff"/></linearGradient></defs></svg>