<svg width="206" height="39" viewBox="0 0 206 39" fill="none" xmlns="http://www.w3.org/2000/svg">
<path fill-rule="evenodd" clip-rule="evenodd" d="M20.0849 6.52087C20.0671 5.36119 18.563 4.86349 17.8213 5.77181L6.62761 19.4787C5.3064 21.0965 6.49139 23.4825 8.6161 23.4825H20.1921L20.3282 32.3154C20.3461 33.4751 21.8501 33.9727 22.5919 33.0645L33.7855 19.3576C35.1066 17.7397 33.9217 15.3538 31.797 15.3538H20.1446L20.0849 6.52087Z" fill="#707070"/>
<path d="M48.7031 19.5H55.3042" stroke="#707070"/>
<path d="M52.0039 16.1992L52.0039 22.8003" stroke="#707070"/>
<path d="M95.0822 22.2695C95.0822 25.5578 95.0846 28.845 95.0822 32.1321C95.0809 33.0546 94.597 33.813 93.9084 34.0078C92.9087 34.2884 91.9568 34.025 91.49 33.2115C91.2841 32.8525 91.2425 32.3587 91.2413 31.9263C91.2217 25.8825 91.2302 19.8388 91.2094 13.795C91.207 13.1702 91.1555 12.5159 90.9644 11.9279C90.3248 9.96025 88.2408 8.19724 85.4769 8.67995C83.3757 9.04628 81.7597 10.9 81.7523 13.1898C81.7327 19.4577 81.7291 25.7257 81.7376 31.9936C81.7389 32.6687 81.5722 33.2421 81.0871 33.6991C80.4108 34.3362 79.6071 34.3692 78.8046 34.0299C78.0781 33.7211 77.7681 33.0632 77.7166 32.3146C77.6689 31.6432 77.7007 30.9669 77.7007 30.2931C77.6958 24.6794 77.6676 19.0645 77.7019 13.4495C77.713 11.7686 77.0649 10.4907 75.7515 9.52409C74.236 8.40919 72.5158 8.39816 70.9207 9.11366C69.4137 9.78995 68.3956 11.0703 68.3368 12.8406C68.2657 15.0239 68.2596 17.2083 68.24 19.3928C68.202 23.6392 68.1787 27.8857 68.1408 32.1321C68.1285 33.3511 67.4326 34.0103 66.2675 34.0813C65.1023 34.1524 64.2962 33.2016 64.3048 32.1688C64.3538 25.798 64.3256 19.4283 64.366 13.0575C64.3868 9.87204 65.9771 7.51849 68.5794 5.84859C69.6526 5.16005 70.8949 4.85498 72.2218 4.77902C74.9294 4.62343 77.2976 5.22866 79.1758 7.29796C79.487 7.64101 79.8852 7.64224 80.189 7.28694C81.1459 6.17204 82.3649 5.38548 83.7408 5.04488C84.9047 4.75697 86.1654 4.79127 87.382 4.80353C90.5209 4.83538 92.4946 6.78094 94.0689 9.17614C94.7918 10.2751 95.1079 11.5897 95.0969 12.9595C95.0699 16.0628 95.0883 19.1661 95.0883 22.2695H95.0822Z" fill="#707070"/>
<path d="M124.148 26.6399C124.154 27.1912 123.993 27.4559 123.413 27.3554C123.314 27.3382 123.207 27.3395 123.108 27.3554C122.547 27.4436 122.362 27.2206 122.368 26.646C122.395 24.1565 122.379 21.6657 122.379 19.175V16.3987C122.228 16.5029 122.119 16.5372 122.088 16.6058C120.704 19.5842 119.328 22.5662 117.949 25.5458C117.753 25.9685 117.514 26.3716 117.334 26.8004C117.192 27.141 117.064 27.3958 116.611 27.3971C116.144 27.3971 116.034 27.0859 115.891 26.7771C114.978 24.823 114.07 22.8688 113.161 20.9135C112.502 19.4923 111.845 18.0699 111.182 16.6511C111.146 16.5715 111.063 16.5127 110.905 16.3387V17.5908C110.903 20.5925 110.902 23.5929 110.898 26.5946C110.897 27.364 110.881 27.3787 110.108 27.3824C109.965 27.3824 109.82 27.3652 109.679 27.3848C109.237 27.4473 109.12 27.239 109.122 26.8261C109.13 22.0492 109.13 17.2723 109.122 12.4954C109.122 12.1094 109.239 11.9587 109.646 11.9514C110.791 11.9306 110.778 11.9195 111.274 12.967C112.98 16.5703 114.696 20.1673 116.41 23.7669C116.46 23.8723 116.524 23.9715 116.642 24.1822C116.974 23.5133 117.275 22.935 117.552 22.3457C119.091 19.072 120.623 15.796 122.161 12.5223C122.393 12.0298 123.492 11.6953 123.934 12.0273C124.081 12.1376 124.13 12.4537 124.131 12.6767C124.143 15.3512 124.138 18.0245 124.138 20.6991C124.138 22.6802 124.125 24.66 124.148 26.6399Z" fill="#707070"/>
<path d="M88.3855 13.2181C88.3218 18.5206 88.3218 23.8256 88.2948 29.1293C88.2899 30.08 87.6896 30.9401 86.8687 31.2084C86.1618 31.44 85.3434 31.1533 84.8717 30.3949C84.6732 30.0764 84.6034 29.6316 84.5997 29.2432C84.5777 26.5712 84.5887 23.8991 84.5887 21.227H84.6132C84.6132 18.5537 84.6083 15.8816 84.6132 13.2095C84.6169 12.0076 85.4108 11.1978 86.5134 11.1929C87.3821 11.1904 88.3965 12.1216 88.3843 13.2181H88.3855Z" fill="#707070"/>
<path d="M187.137 18.8271C186.189 16.041 183.301 14.7473 180.579 15.8683C180.067 16.079 179.606 16.4147 179.016 16.7529C179.016 15.4346 179.023 14.2131 179.015 12.9928C179.006 11.8203 179.17 11.9686 177.966 11.96C177.171 11.9551 177.169 11.9625 177.169 12.7882V26.499C177.169 27.0879 177.459 27.3824 178.039 27.3824C178.883 27.3812 178.886 27.3763 178.85 26.5248C178.847 26.4341 178.879 26.341 178.904 26.194C179.055 26.2761 179.181 26.3116 179.257 26.3925C179.832 27.0099 180.558 27.3297 181.358 27.5404C183.167 28.0158 185.349 27.2329 186.378 25.7076C187.837 23.5488 187.952 21.2247 187.137 18.8271ZM184.535 24.9737C183.111 26.5971 180.169 26.1217 179.35 24.1284C178.67 22.4707 178.657 20.7971 179.295 19.1309C179.813 17.7783 180.95 17.2013 182.254 17.1878C183.584 17.1743 184.778 18.0246 185.231 19.2412C185.36 19.5842 185.491 19.9346 185.551 20.2924C185.622 20.7126 185.618 21.1451 185.646 21.5727C185.65 22.8309 185.393 23.996 184.535 24.9737Z" fill="#707070"/>
<path d="M74.8575 13.2609C74.8317 18.6099 74.7913 23.9578 74.779 29.3056C74.7778 30.2319 74.327 30.7979 73.5527 31.1605C72.9327 31.4509 72.1596 31.2867 71.6855 30.6607C71.427 30.3201 71.2824 29.8116 71.2763 29.3767C71.2408 26.6409 71.2591 23.9063 71.2591 21.1705H71.2836C71.2836 18.4151 71.2751 15.6585 71.2873 12.9031C71.2935 11.7907 72.129 11.02 73.2096 11.0788C73.8822 11.1168 74.6418 11.749 74.7766 12.4118C74.8342 12.6887 74.8587 12.9778 74.8575 13.2609Z" fill="#707070"/>
<path d="M160.818 11.9534C160.379 11.9448 160.251 12.1249 160.255 12.5305C160.265 13.7544 160.254 14.9784 160.248 16.2023C160.248 16.353 160.232 16.5049 160.218 16.7254C160.033 16.6139 159.908 16.5551 159.802 16.4731C157.515 14.7162 154.138 15.3153 152.691 17.7877C151.322 20.1265 151.312 22.5768 152.479 24.972C153.803 27.6944 156.902 28.2677 159.19 27.0585C159.61 26.8355 159.973 26.5035 160.468 26.1457C160.468 26.4925 160.448 26.7338 160.475 26.9691C160.49 27.0952 160.576 27.3121 160.643 27.317C161.066 27.3513 161.511 27.4064 161.905 27.2998C162.04 27.2631 162.109 26.7743 162.109 26.4912C162.121 22.0635 162.122 17.6357 162.115 13.208C162.113 11.8101 162.302 11.9853 160.818 11.9534ZM159.498 24.8679C158.054 26.5856 155.199 26.2192 154.252 24.1891C153.48 22.534 153.476 20.8273 154.15 19.1427C154.695 17.7779 155.93 17.1028 157.31 17.2008C158.597 17.2915 159.652 17.8158 160.153 19.4649C160.358 20.1363 160.434 20.8457 160.569 21.5391C160.516 22.7716 160.295 23.9184 159.498 24.8679Z" fill="#707070"/>
<path d="M129.396 22.126C131.867 22.126 134.337 22.1125 136.808 22.137C137.303 22.1419 137.476 21.9778 137.421 21.5061C137.34 20.82 137.336 20.1167 137.184 19.4478C136.346 15.7551 131.703 14.1894 128.728 16.5687C127.494 17.5549 126.874 18.8585 126.657 20.3875C126.43 22.0035 126.561 23.5803 127.4 25.0088C128.529 26.9323 130.291 27.7348 132.478 27.6258C134.627 27.5192 136.208 26.5121 137.205 24.4796C136.75 24.3178 136.303 24.1965 135.894 23.9993C135.55 23.8339 135.386 23.9527 135.189 24.2186C134.004 25.8334 132.609 26.2548 130.7 25.5945C129.437 25.1583 128.488 23.5656 128.69 22.126H129.396ZM128.667 20.0714C129.227 17.1641 132.267 16.5221 134.083 17.7362C134.914 18.2912 135.262 19.1464 135.386 20.1167C135.437 20.5198 135.261 20.6117 134.906 20.608C133.947 20.597 132.988 20.6044 132.03 20.6044C131.072 20.6044 130.111 20.5982 129.152 20.608C128.768 20.6117 128.582 20.5076 128.667 20.0714Z" fill="#707070"/>
<path d="M203.388 24.1786C202.583 25.6206 200.571 26.3337 198.747 25.579C197.592 25.1011 196.554 23.2132 196.869 22.1203H205.669C205.56 21.1806 205.537 20.3254 205.352 19.507C204.922 17.6068 203.819 16.1905 201.898 15.7041C199.844 15.1846 197.892 15.4615 196.326 17.0996C195.385 18.0846 194.939 19.289 194.79 20.6085C194.626 22.0456 194.731 23.4704 195.435 24.7654C196.62 26.9426 198.738 27.9742 201.216 27.5907C203.104 27.2979 204.5 26.2994 205.386 24.4751C204.835 24.2778 204.333 24.0745 203.813 23.9323C203.698 23.9005 203.459 24.05 203.388 24.1786ZM198.876 17.4316C200.351 16.8827 201.881 17.178 202.757 18.1851C203.269 18.7744 203.485 19.4899 203.564 20.2458C203.575 20.3512 203.377 20.5815 203.275 20.5815C201.156 20.5876 199.036 20.568 196.918 20.5497C196.884 20.5497 196.85 20.508 196.817 20.4847C196.869 19.1591 197.752 17.8494 198.876 17.4316Z" fill="#707070"/>
<path d="M174.373 24.8447C174.336 22.8048 174.322 20.7649 174.234 18.7274C174.191 17.7216 173.664 16.9154 172.837 16.3359C171.59 15.4611 170.163 15.3913 168.728 15.5469C167.302 15.7013 166.149 16.3739 165.408 17.6505C164.828 18.6478 164.851 18.6993 165.948 18.997C166.065 19.0288 166.182 19.1305 166.288 19.1146C166.474 19.0876 166.759 19.0435 166.813 18.9222C167.338 17.7412 168.34 17.2707 169.512 17.256C171.115 17.2364 172.208 17.5513 172.496 19.4221C172.545 19.7358 172.52 19.9992 172.119 20.0469C171.574 20.1131 171.023 20.1535 170.486 20.2662C169.161 20.5456 167.808 20.7551 166.531 21.1888C165.197 21.6409 164.468 22.9396 164.523 24.2995C164.58 25.6729 165.441 26.9667 166.671 27.371C168.45 27.9542 170.996 27.7189 172.357 25.9522C172.422 25.8677 172.524 25.8126 172.699 25.6705C172.699 26.0919 172.721 26.4092 172.694 26.7217C172.65 27.2301 172.859 27.4433 173.365 27.3845C173.506 27.3673 173.652 27.3698 173.794 27.3832C174.23 27.4286 174.377 27.2019 174.374 26.8037C174.369 26.1507 174.384 25.4977 174.373 24.8447ZM168.764 26.0919C168.739 26.1483 168.713 26.2034 168.688 26.2598C168.08 25.9816 167.363 25.8261 166.887 25.4009C165.991 24.6033 166.264 23.176 167.388 22.6688C168.152 22.3233 168.995 22.1322 169.819 21.9435C170.529 21.7818 171.266 21.7377 171.985 21.6078C172.32 21.5465 172.503 21.6103 172.505 21.9741C172.52 24.3387 171.22 26.0343 168.764 26.0919Z" fill="#707070"/>
<path d="M149.662 26.745C149.676 27.1885 149.51 27.3613 149.062 27.376C147.714 27.4201 147.727 27.4336 147.713 26.0895C147.692 24.1918 147.702 22.2915 147.596 20.3986C147.56 19.7603 147.309 19.0816 146.982 18.5241C146.234 17.2512 144.961 17.1556 143.695 17.4105C142.57 17.6371 141.823 18.4261 141.64 19.5631C141.466 20.6425 141.426 21.7476 141.391 22.8429C141.352 24.1281 141.369 25.4157 141.391 26.7009C141.4 27.1995 141.231 27.3882 140.716 27.3796C139.258 27.3576 139.454 27.4225 139.453 26.1324C139.449 22.947 139.464 19.7616 139.44 16.5761C139.435 16.0248 139.572 15.77 140.148 15.8521C140.287 15.8717 140.434 15.8704 140.575 15.8521C141.045 15.7932 141.2 16.0162 141.155 16.4548C141.135 16.6533 141.152 16.8567 141.152 17.1936C141.669 16.7856 142.038 16.3924 142.489 16.1559C145.384 14.6379 149.071 15.6769 149.458 19.7175C149.681 22.0453 149.596 24.4013 149.664 26.745H149.662Z" fill="#707070"/>
<path d="M192.03 26.6668C192.035 27.1875 191.913 27.4472 191.352 27.3504C191.233 27.3296 191.107 27.3357 190.986 27.3492C190.403 27.4129 190.207 27.1642 190.209 26.5761C190.226 21.8017 190.224 17.0284 190.204 12.2539C190.203 11.7614 190.35 11.623 190.829 11.6291C192.021 11.6438 192.021 11.6217 192.021 12.8359C192.021 15.0596 192.021 17.2832 192.021 19.5069C192.021 20.7872 192.017 22.0687 192.017 23.349C192.017 24.4554 192.02 25.5605 192.031 26.6668H192.03Z" fill="#707070"/>
</svg>
