<svg xmlns="http://www.w3.org/2000/svg" width="206" height="39" fill="none" viewBox="0 0 206 39"><path fill="#707070" fill-rule="evenodd" d="M20.085 6.52c-.018-1.159-1.522-1.657-2.264-.748L6.628 19.479c-1.322 1.617-.137 4.004 1.988 4.004h11.576l.136 8.832c.018 1.16 1.522 1.658 2.264.75l11.194-13.707c1.32-1.618.136-4.004-1.989-4.004H20.145z" clip-rule="evenodd"/><path stroke="#707070" d="M48.703 19.5h6.601M52.004 16.2v6.6"/><path fill="#707070" d="M95.082 22.27c0 3.288.003 6.575 0 9.862-.001.923-.485 1.681-1.174 1.876-1 .28-1.951.017-2.418-.797-.206-.358-.247-.852-.249-1.285-.02-6.043-.01-12.087-.032-18.131-.002-.625-.053-1.28-.245-1.867-.64-1.968-2.723-3.73-5.487-3.248-2.101.366-3.717 2.22-3.725 4.51a4194 4194 0 0 0-.014 18.804c0 .675-.166 1.248-.65 1.705-.677.637-1.48.67-2.283.33-.727-.308-1.037-.966-1.088-1.714-.048-.672-.016-1.348-.016-2.022-.005-5.614-.033-11.228 0-16.843.012-1.681-.636-2.96-1.95-3.926-1.515-1.115-3.235-1.126-4.83-.41-1.507.676-2.525 1.956-2.584 3.727-.071 2.183-.077 4.367-.097 6.552-.038 4.246-.061 8.493-.1 12.74-.011 1.218-.707 1.877-1.873 1.948s-1.97-.88-1.962-1.912c.049-6.371.02-12.74.061-19.111.02-3.186 1.611-5.54 4.213-7.21 1.074-.688 2.316-.993 3.643-1.069 2.707-.156 5.076.45 6.954 2.519.311.343.71.344 1.013-.011.957-1.115 2.176-1.902 3.552-2.242 1.164-.288 2.424-.254 3.641-.241 3.139.031 5.113 1.977 6.687 4.372.723 1.1 1.039 2.414 1.028 3.784-.027 3.103-.009 6.206-.009 9.31zM124.148 26.64c.006.551-.155.816-.735.715a1 1 0 0 0-.305 0c-.561.089-.746-.134-.74-.709.027-2.49.011-4.98.011-7.471v-2.776c-.151.104-.26.138-.291.207-1.384 2.978-2.76 5.96-4.139 8.94-.196.422-.435.826-.615 1.254-.142.341-.27.596-.723.597-.467 0-.577-.311-.72-.62q-1.368-2.93-2.73-5.864-.987-2.132-1.979-4.262c-.036-.08-.119-.138-.277-.312v1.252q-.002 4.502-.007 9.004c-.001.769-.017.784-.79.787-.143 0-.288-.017-.429.003-.442.062-.559-.146-.557-.559q.012-7.166 0-14.33c0-.387.117-.537.524-.545 1.145-.02 1.132-.032 1.628 1.016 1.706 3.603 3.422 7.2 5.136 10.8.05.105.114.204.232.415.332-.669.633-1.247.91-1.836 1.539-3.274 3.071-6.55 4.609-9.824.232-.492 1.331-.827 1.773-.495.147.11.196.427.197.65.012 2.674.007 5.348.007 8.022 0 1.981-.013 3.961.01 5.94"/><path fill="#707070" d="M88.386 13.218c-.064 5.303-.064 10.608-.091 15.911-.005.951-.605 1.811-1.426 2.08-.707.231-1.526-.056-1.997-.814-.199-.319-.269-.763-.272-1.152-.022-2.672-.011-5.344-.011-8.016h.024c0-2.673-.005-5.345 0-8.017.004-1.202.798-2.012 1.9-2.017.87-.003 1.883.929 1.871 2.025zM187.137 18.827c-.948-2.786-3.836-4.08-6.558-2.959-.512.211-.973.547-1.563.885 0-1.318.007-2.54-.001-3.76-.009-1.173.155-1.024-1.049-1.033-.795-.005-.797.002-.797.828V26.5q0 .883.87.883c.844 0 .847-.006.811-.857-.003-.09.029-.184.054-.331.151.082.277.118.353.198.575.618 1.301.938 2.101 1.148 1.809.476 3.991-.307 5.02-1.832 1.459-2.16 1.574-4.483.759-6.88m-2.602 6.147c-1.424 1.623-4.366 1.148-5.185-.846-.68-1.657-.693-3.33-.055-4.997.518-1.353 1.655-1.93 2.959-1.943a3.17 3.17 0 0 1 2.977 2.053c.129.343.26.694.32 1.051.071.42.067.853.095 1.28.004 1.259-.253 2.424-1.111 3.402M74.858 13.26c-.026 5.35-.067 10.698-.079 16.046-.001.926-.452 1.492-1.226 1.854-.62.29-1.393.127-1.867-.5-.259-.34-.404-.848-.41-1.283-.035-2.736-.017-5.47-.017-8.206h.025c0-2.756-.009-5.512.003-8.268.006-1.112.842-1.883 1.923-1.824.672.038 1.432.67 1.567 1.333.057.277.082.566.08.849M160.818 11.953c-.439-.008-.567.172-.563.578.01 1.223-.001 2.447-.007 3.671 0 .151-.016.303-.03.523-.185-.111-.31-.17-.416-.252-2.287-1.757-5.664-1.158-7.111 1.315-1.369 2.339-1.379 4.789-.212 7.184 1.324 2.722 4.423 3.296 6.711 2.086.42-.223.783-.555 1.278-.912 0 .346-.02.588.007.823.015.126.101.343.168.348.423.034.868.09 1.262-.017.135-.037.204-.526.204-.809q.017-6.64.006-13.283c-.002-1.398.187-1.223-1.297-1.255m-1.32 12.915c-1.444 1.718-4.299 1.351-5.246-.679-.772-1.655-.776-3.362-.102-5.046.545-1.365 1.78-2.04 3.16-1.942 1.287.09 2.342.615 2.843 2.264.205.671.281 1.38.416 2.074-.053 1.233-.274 2.38-1.071 3.329M129.396 22.126c2.471 0 4.941-.014 7.412.011.495.005.668-.16.613-.63-.081-.687-.085-1.39-.237-2.06-.838-3.692-5.481-5.258-8.456-2.878-1.234.986-1.854 2.29-2.071 3.819-.227 1.615-.096 3.192.743 4.62 1.129 1.924 2.891 2.727 5.078 2.618 2.149-.107 3.73-1.114 4.727-3.146-.455-.162-.902-.284-1.311-.48-.344-.166-.508-.047-.705.219-1.185 1.614-2.58 2.036-4.489 1.375-1.263-.436-2.212-2.028-2.01-3.468zm-.729-2.055c.56-2.907 3.6-3.549 5.416-2.335.831.555 1.179 1.41 1.303 2.38.051.404-.125.496-.48.492-.959-.011-1.918-.004-2.876-.004s-1.919-.006-2.878.004c-.384.004-.57-.1-.485-.537M203.388 24.179c-.805 1.442-2.817 2.155-4.641 1.4-1.155-.478-2.193-2.366-1.878-3.459h8.8c-.109-.94-.132-1.795-.317-2.613-.43-1.9-1.533-3.317-3.454-3.803-2.054-.52-4.006-.243-5.572 1.396-.941.985-1.387 2.189-1.536 3.508-.164 1.438-.059 2.862.645 4.157 1.185 2.178 3.303 3.21 5.781 2.826 1.888-.293 3.284-1.292 4.17-3.116-.551-.197-1.053-.4-1.573-.543-.115-.031-.354.118-.425.247m-4.512-6.747c1.475-.55 3.005-.254 3.881.753.512.59.728 1.305.807 2.06.011.106-.187.336-.289.336-2.119.007-4.239-.013-6.357-.031-.034 0-.068-.042-.101-.065.052-1.326.935-2.636 2.059-3.053M174.373 24.845c-.037-2.04-.051-4.08-.139-6.118-.043-1.005-.57-1.812-1.397-2.391-1.247-.875-2.674-.945-4.109-.79-1.426.155-2.579.828-3.32 2.105-.58.997-.557 1.048.54 1.346.117.032.234.134.34.118.186-.027.471-.071.525-.193.525-1.18 1.527-1.651 2.699-1.666 1.603-.02 2.696.295 2.984 2.166.049.314.024.577-.377.625-.545.066-1.096.107-1.633.22-1.325.279-2.678.488-3.955.922-1.334.452-2.063 1.75-2.008 3.11.057 1.374.918 2.668 2.148 3.072 1.779.583 4.325.348 5.686-1.419.065-.084.167-.14.342-.282 0 .422.022.74-.005 1.052-.044.508.165.721.671.662a2 2 0 0 1 .429 0c.436.045.583-.182.58-.58-.005-.653.01-1.306-.001-1.96m-5.609 1.247-.076.168c-.608-.278-1.325-.434-1.801-.86-.896-.797-.623-2.224.501-2.731.764-.346 1.607-.537 2.431-.726.71-.161 1.447-.205 2.166-.335.335-.061.518.002.52.366.015 2.365-1.285 4.06-3.741 4.118M149.662 26.745c.014.444-.152.616-.6.631-1.348.044-1.335.058-1.349-1.287-.021-1.897-.011-3.797-.117-5.69-.036-.639-.287-1.317-.614-1.875-.748-1.273-2.021-1.368-3.287-1.114-1.125.227-1.872 1.016-2.055 2.153-.174 1.08-.214 2.185-.249 3.28a81 81 0 0 0 0 3.858c.009.498-.16.687-.675.679-1.458-.022-1.262.043-1.263-1.248-.004-3.185.011-6.37-.013-9.556-.005-.551.132-.806.708-.724.139.02.286.018.427 0 .47-.059.625.164.58.603-.02.198-.003.402-.003.739.517-.408.886-.802 1.337-1.038 2.895-1.518 6.582-.48 6.969 3.562.223 2.327.138 4.683.206 7.027zM192.03 26.667c.005.52-.117.78-.678.683a1.3 1.3 0 0 0-.366 0c-.583.063-.779-.186-.777-.774q.025-7.161-.005-14.322c-.001-.493.146-.631.625-.625 1.192.015 1.192-.007 1.192 1.207v6.67c0 1.281-.004 2.563-.004 3.843q-.001 1.659.014 3.318z"/></svg>