<svg width="1755" height="342" viewBox="0 0 1755 342" fill="none" xmlns="http://www.w3.org/2000/svg">
<path d="M20.3457 257.968L867.188 112.08L1718.69 250.968" stroke="url(#paint0_radial_4316_121038)" stroke-width="1.1397"/>
<path d="M20.3457 115.831L867.188 141.264L1718.69 115.831" stroke="url(#paint1_radial_4316_121038)" stroke-width="1.1397"/>
<path d="M345.188 60.1396L868.079 141.264L1393.85 60.1396" stroke="url(#paint2_radial_4316_121038)" stroke-width="1.1397"/>
<path d="M232.902 86.2314L867.771 142.755L1506.13 86.2314" stroke="url(#paint3_radial_4316_121038)" stroke-width="1.1397"/>
<path d="M295.096 150.689L867.941 136.029L1443.94 150.689" stroke="url(#paint4_radial_4316_121038)" stroke-width="1.1397"/>
<g filter="url(#filter0_f_4316_121038)">
<ellipse cx="865.124" cy="151.573" rx="271.124" ry="82.5656" fill="#161616"/>
</g>
<path d="M321.689 212.498H1423.53L1024.59 146.214C989.707 140.418 958.375 121.477 937.034 93.2866L934.698 90.2009C917.88 67.9838 891.625 54.9292 863.76 54.9292C836.691 54.9292 811.094 67.2518 794.212 88.4107L790.055 93.6202C767.659 121.689 735.757 140.582 700.377 146.727L321.689 212.498Z" fill="url(#paint5_radial_4316_121038)"/>
<path d="M1754 215.262L1019.22 134.195C986.915 130.631 957.348 114.393 937.009 89.0478V89.0478C919.7 67.4787 893.538 54.9292 865.882 54.9292H864.945C838.067 54.9292 812.559 66.7854 795.231 87.3316V87.3316C773.48 113.122 742.819 129.783 709.345 134L0.744141 223.277" stroke="url(#paint6_linear_4316_121038)" stroke-width="1.1397"/>
<path d="M1727.67 263.927L1014.73 144.526C981.347 138.936 951.627 120.131 932.281 92.3602V92.3602C915.796 68.697 890.879 54.9292 864.541 54.9292H863.648C838.05 54.9292 813.756 67.9365 797.253 90.4774V90.4774C776.583 118.709 745.778 137.834 711.308 143.834L234.791 226.787" stroke="url(#paint7_linear_4316_121038)" stroke-width="1.1397"/>
<path d="M1026.15 165.96L1730.54 308.606M702.311 164.135L34.3711 308.606M993.53 165.96L1526.68 308.606M745.614 164.135L238.233 308.606" stroke="url(#paint8_linear_4316_121038)" stroke-width="1.1397"/>
<g filter="url(#filter1_f_4316_121038)">
<path d="M761.402 127.441L795.229 87.3316C812.557 66.7854 838.066 54.9292 864.944 54.9292H865.881C893.537 54.9292 919.698 67.4787 937.008 89.0478L968.771 128.629" stroke="url(#paint9_linear_4316_121038)" stroke-width="1.1397"/>
</g>
<g filter="url(#filter2_f_4316_121038)">
<path d="M930.203 82.036C914.556 60.4668 890.905 48.1616 865.905 48.1616H865.057C840.76 48.1616 817.7 60.0178 802.035 80.564C818.898 64.5075 841.409 55.49 864.944 55.49H865.882C890.122 55.49 913.214 65.1309 930.203 82.036Z" fill="#1EC77C"/>
</g>
<g filter="url(#filter3_f_4316_121038)">
<path d="M944.969 69.0081C925.715 47.439 896.616 35.1338 865.854 35.1338H864.811C834.915 35.1338 806.542 46.99 787.268 67.5362C808.016 51.4797 835.714 39.2051 864.673 39.2051H865.826C895.651 39.2051 924.064 52.1031 944.969 69.0081Z" fill="#232323"/>
</g>
<path d="M864.384 72.3096V204.318M930.388 138.314L798.379 138.314M921.545 105.312L807.222 171.316M921.544 171.316L807.221 105.311" stroke="url(#paint10_radial_4316_121038)" stroke-width="1.1397"/>
<path d="M849.182 126.548C849.087 126.603 849.028 126.705 849.028 126.815C849.028 126.925 849.087 127.027 849.182 127.083L864.226 135.768C864.321 135.823 864.439 135.823 864.535 135.768L879.579 127.082C879.674 127.027 879.733 126.925 879.733 126.815C879.733 126.704 879.674 126.602 879.579 126.547L871.25 121.738C870.254 121.163 869.912 119.89 870.487 118.893C871.062 117.897 872.336 117.556 873.332 118.131L885.148 124.953C885.793 125.325 886.19 126.013 886.19 126.757V140.621C886.19 141.771 885.257 142.704 884.107 142.704C882.957 142.704 882.024 141.771 882.024 140.621V131.015C882.024 130.904 881.966 130.802 881.87 130.747C881.775 130.692 881.657 130.692 881.561 130.747L866.617 139.375C866.522 139.43 866.463 139.532 866.463 139.643V156.782C866.463 156.892 866.522 156.994 866.617 157.049C866.713 157.104 866.83 157.104 866.926 157.049L875.552 152.069C876.548 151.494 877.821 151.835 878.397 152.832C878.972 153.828 878.63 155.101 877.634 155.677L865.422 162.727C864.778 163.099 863.984 163.099 863.34 162.727L850.893 155.541C849.897 154.966 849.556 153.692 850.131 152.696C850.706 151.7 851.98 151.358 852.976 151.934L861.834 157.048C861.93 157.103 862.048 157.103 862.143 157.048C862.239 156.993 862.298 156.891 862.298 156.781V139.643C862.298 139.532 862.239 139.43 862.143 139.375L847.201 130.748C847.105 130.693 846.988 130.693 846.892 130.748C846.797 130.803 846.738 130.905 846.738 131.016V140.502C846.738 141.652 845.805 142.585 844.655 142.585C843.505 142.585 842.572 141.652 842.572 140.502V126.949H842.573L842.572 126.939C842.571 126.894 842.571 126.848 842.572 126.803L842.572 126.803V126.792V126.757C842.572 126.013 842.969 125.325 843.614 124.953L855.43 118.131C856.426 117.556 857.7 117.897 858.275 118.893C858.85 119.89 858.509 121.163 857.513 121.738L849.182 126.548ZM864.381 108.276C865.532 108.276 866.464 109.208 866.464 110.359V124.759C866.464 125.909 865.532 126.841 864.381 126.841C863.231 126.841 862.299 125.909 862.299 124.759V110.359C862.299 109.208 863.231 108.276 864.381 108.276ZM874.383 144.134C874.958 143.138 876.232 142.797 877.228 143.372L890.859 151.242C891.855 151.817 892.197 153.091 891.621 154.087C891.046 155.083 889.773 155.424 888.776 154.849L875.145 146.979C874.149 146.404 873.808 145.13 874.383 144.134ZM853.007 144.52C853.582 145.516 853.241 146.789 852.245 147.365L839.988 154.441C838.992 155.016 837.718 154.675 837.143 153.679C836.568 152.683 836.909 151.409 837.905 150.834L850.162 143.757C851.158 143.182 852.432 143.523 853.007 144.52Z" fill="url(#paint11_linear_4316_121038)" stroke="url(#paint12_linear_4316_121038)" stroke-width="0.617486" stroke-miterlimit="10" stroke-linejoin="round"/>
<circle cx="864.569" cy="138.671" r="65.9995" stroke="url(#paint13_linear_4316_121038)" stroke-width="1.1397"/>
<circle cx="864.571" cy="138.672" r="65.9995" transform="rotate(-180 864.571 138.672)" stroke="url(#paint14_linear_4316_121038)" stroke-width="1.1397"/>
<circle cx="864.571" cy="138.671" r="65.9995" transform="rotate(90 864.571 138.671)" stroke="url(#paint15_linear_4316_121038)" stroke-width="1.1397"/>
<circle cx="864.569" cy="138.672" r="65.9995" transform="rotate(-90 864.569 138.672)" stroke="url(#paint16_linear_4316_121038)" stroke-width="1.1397"/>
<g filter="url(#filter4_f_4316_121038)">
<circle cx="864.569" cy="138.671" r="65.9995" stroke="url(#paint17_linear_4316_121038)" stroke-width="1.1397"/>
</g>
<g filter="url(#filter5_f_4316_121038)">
<circle cx="864.571" cy="138.672" r="65.9995" transform="rotate(-180 864.571 138.672)" stroke="url(#paint18_linear_4316_121038)" stroke-width="1.1397"/>
</g>
<g filter="url(#filter6_f_4316_121038)">
<circle cx="864.571" cy="138.671" r="65.9995" transform="rotate(90 864.571 138.671)" stroke="url(#paint19_linear_4316_121038)" stroke-width="1.1397"/>
</g>
<g filter="url(#filter7_f_4316_121038)">
<circle cx="864.569" cy="138.672" r="65.9995" transform="rotate(-90 864.569 138.672)" stroke="url(#paint20_linear_4316_121038)" stroke-width="1.1397"/>
</g>
<g filter="url(#filter8_f_4316_121038)">
<circle cx="864.569" cy="138.671" r="65.9995" stroke="url(#paint21_linear_4316_121038)" stroke-width="1.1397"/>
</g>
<g filter="url(#filter9_f_4316_121038)">
<circle cx="864.571" cy="138.672" r="65.9995" transform="rotate(-180 864.571 138.672)" stroke="url(#paint22_linear_4316_121038)" stroke-width="1.1397"/>
</g>
<g filter="url(#filter10_f_4316_121038)">
<circle cx="864.571" cy="138.671" r="65.9995" transform="rotate(90 864.571 138.671)" stroke="url(#paint23_linear_4316_121038)" stroke-width="1.1397"/>
</g>
<g filter="url(#filter11_f_4316_121038)">
<circle cx="864.569" cy="138.672" r="65.9995" transform="rotate(-90 864.569 138.672)" stroke="url(#paint24_linear_4316_121038)" stroke-width="1.1397"/>
</g>
<g filter="url(#filter12_f_4316_121038)">
<ellipse cx="303.093" cy="68.9323" rx="303.093" ry="68.9323" transform="matrix(1 -0.000779452 -0.000779452 -1 562 296.168)" fill="#161616"/>
</g>
<path opacity="0.5" d="M1441.6 92.9694L1440.06 93.1281L1439.29 85.7036L1440.83 85.5449L1440.89 86.1497L1440.01 86.241L1440.65 92.4638L1441.54 92.3726L1441.6 92.9694ZM1442.42 89.0883C1442.5 89.8761 1442.7 90.4184 1443.05 90.7126C1443.27 90.8989 1443.53 90.9999 1443.9 90.9621C1444.27 90.9243 1444.51 90.7707 1444.68 90.5432C1444.96 90.1849 1445.05 89.6131 1444.97 88.8252C1444.88 88.0374 1444.68 87.4952 1444.34 87.201C1444.12 87.0147 1443.85 86.9136 1443.48 86.9515C1443.12 86.9893 1442.88 87.1429 1442.7 87.3704C1442.42 87.7287 1442.34 88.3005 1442.42 89.0883ZM1441.65 89.1681C1441.57 88.4599 1441.63 87.795 1441.92 87.2504C1442.2 86.7145 1442.68 86.3348 1443.41 86.2592C1444.15 86.1835 1444.7 86.4563 1445.08 86.9231C1445.48 87.3971 1445.66 88.0373 1445.74 88.7455C1445.81 89.4537 1445.76 90.1186 1445.47 90.6632C1445.19 91.1991 1444.7 91.5788 1443.97 91.6544C1443.24 91.7301 1442.69 91.4573 1442.3 90.9905C1441.91 90.5165 1441.72 89.8763 1441.65 89.1681ZM1446.59 90.7485C1446.56 90.4382 1446.77 90.1668 1447.08 90.1348C1447.39 90.1027 1447.66 90.3239 1447.7 90.6342C1447.73 90.9446 1447.51 91.2088 1447.2 91.2409C1446.88 91.2729 1446.62 91.0589 1446.59 90.7485ZM1449.06 88.4027C1449.14 89.1905 1449.34 89.7327 1449.68 90.0269C1449.9 90.2132 1450.17 90.3143 1450.54 90.2764C1450.9 90.2386 1451.14 90.085 1451.32 89.8575C1451.6 89.4992 1451.68 88.9274 1451.6 88.1396C1451.52 87.3518 1451.32 86.8095 1450.98 86.5153C1450.76 86.329 1450.49 86.228 1450.12 86.2658C1449.76 86.3036 1449.51 86.4572 1449.34 86.6847C1449.06 87.043 1448.97 87.6148 1449.06 88.4027ZM1448.28 88.4824C1448.21 87.7742 1448.26 87.1093 1448.55 86.5647C1448.83 86.0288 1449.32 85.6491 1450.05 85.5735C1450.78 85.4978 1451.33 85.7706 1451.72 86.2374C1452.11 86.7114 1452.3 87.3516 1452.37 88.0598C1452.45 88.768 1452.4 89.4329 1452.11 89.9775C1451.82 90.5134 1451.34 90.8931 1450.61 90.9687C1449.88 91.0444 1449.32 90.7716 1448.94 90.3048C1448.54 89.8308 1448.36 89.1906 1448.28 88.4824ZM1454.54 88.0205L1454.1 87.4154L1455.47 85.8578L1453 86.1127L1452.93 85.3965L1456.43 85.0348L1456.5 85.735L1455.17 87.2479C1455.93 87.1698 1456.82 87.5928 1456.93 88.6511C1457.02 89.5185 1456.43 90.3754 1455.23 90.4995C1454.03 90.6229 1453.28 89.9129 1453.14 89.0743L1453.89 88.8203C1453.99 89.5014 1454.53 89.8801 1455.15 89.816C1455.86 89.7428 1456.19 89.2657 1456.14 88.7484C1456.07 88.072 1455.5 87.8415 1454.99 87.8941C1454.83 87.9105 1454.67 87.9588 1454.54 88.0205ZM1457.83 89.5875C1457.8 89.301 1458.02 89.0289 1458.35 88.9943C1458.69 88.959 1459.02 89.1824 1459.07 89.6837C1459.18 90.7341 1458.54 91.2425 1458.06 91.3571L1458.01 90.9433C1458.4 90.8155 1458.62 90.3985 1458.59 90.0157C1458.56 90.0341 1458.5 90.0645 1458.42 90.0735C1458.12 90.104 1457.86 89.9297 1457.83 89.5875ZM1462.15 89.1403C1462.12 88.8299 1462.34 88.5586 1462.65 88.5265C1462.96 88.4945 1463.23 88.7157 1463.26 89.026C1463.29 89.3364 1463.07 89.6006 1462.76 89.6326C1462.45 89.6647 1462.19 89.4506 1462.15 89.1403ZM1465.53 89.3067L1464.76 89.3857L1464.39 85.749L1463.14 85.8781L1463.08 85.329C1463.79 85.2391 1464.25 84.7903 1464.31 84.2209L1464.99 84.1502L1465.53 89.3067ZM1466.55 88.6866C1466.52 88.4002 1466.74 88.128 1467.07 88.0935C1467.41 88.0581 1467.74 88.2815 1467.79 88.7828C1467.9 89.8333 1467.26 90.3416 1466.78 90.4563L1466.73 90.0425C1467.11 89.9146 1467.34 89.4976 1467.31 89.1148C1467.28 89.1332 1467.22 89.1636 1467.13 89.1727C1466.84 89.2031 1466.58 89.0288 1466.55 88.6866ZM1472.29 86.6298L1470.13 86.8526L1470.06 86.2001L1472.22 85.9773L1472.29 86.6298ZM1473.75 85.851C1473.83 86.6388 1474.03 87.181 1474.38 87.4752C1474.6 87.6616 1474.87 87.7626 1475.23 87.7248C1475.6 87.687 1475.84 87.5333 1476.02 87.3059C1476.29 86.9475 1476.38 86.3757 1476.3 85.5879C1476.22 84.8001 1476.02 84.2579 1475.67 83.9637C1475.45 83.7773 1475.18 83.6763 1474.82 83.7141C1474.45 83.7519 1474.21 83.9056 1474.03 84.133C1473.76 84.4914 1473.67 85.0632 1473.75 85.851ZM1472.98 85.9307C1472.91 85.2225 1472.96 84.5577 1473.25 84.013C1473.53 83.4772 1474.01 83.0974 1474.75 83.0218C1475.48 82.9462 1476.03 83.219 1476.42 83.6858C1476.81 84.1597 1477 84.7999 1477.07 85.5081C1477.14 86.2164 1477.09 86.8812 1476.8 87.4259C1476.52 87.9617 1476.04 88.3414 1475.3 88.4171C1474.57 88.4927 1474.02 88.2199 1473.64 87.7531C1473.24 87.2792 1473.05 86.639 1472.98 85.9307ZM1477.92 87.5112C1477.89 87.2008 1478.1 86.9295 1478.41 86.8974C1478.72 86.8653 1479 87.0865 1479.03 87.3969C1479.06 87.7072 1478.84 87.9715 1478.53 88.0035C1478.22 88.0356 1477.95 87.8215 1477.92 87.5112ZM1480.39 85.1653C1480.47 85.9531 1480.67 86.4954 1481.01 86.7896C1481.24 86.9759 1481.5 87.0769 1481.87 87.0391C1482.24 87.0013 1482.48 86.8476 1482.65 86.6202C1482.93 86.2619 1483.02 85.69 1482.94 84.9022C1482.85 84.1144 1482.65 83.5722 1482.31 83.278C1482.09 83.0916 1481.82 82.9906 1481.45 83.0284C1481.09 83.0663 1480.85 83.2199 1480.67 83.4473C1480.39 83.8057 1480.31 84.3775 1480.39 85.1653ZM1479.62 85.2451C1479.54 84.5368 1479.6 83.872 1479.89 83.3273C1480.17 82.7915 1480.65 82.4118 1481.38 82.3361C1482.12 82.2605 1482.67 82.5333 1483.05 83.0001C1483.45 83.474 1483.63 84.1142 1483.71 84.8225C1483.78 85.5307 1483.73 86.1955 1483.44 86.7402C1483.16 87.2761 1482.67 87.6558 1481.94 87.7314C1481.21 87.807 1480.66 87.5342 1480.27 87.0674C1479.88 86.5935 1479.69 85.9533 1479.62 85.2451ZM1486.55 87.1349L1485.78 87.2138L1485.41 83.5772L1484.16 83.7062L1484.1 83.1572C1484.82 83.0672 1485.27 82.6184 1485.33 82.049L1486.01 81.9783L1486.55 87.1349ZM1488.91 88.0805L1487.38 88.2392L1487.32 87.6423L1488.2 87.5511L1487.56 81.3282L1486.67 81.4195L1486.61 80.8147L1488.15 80.656L1488.91 88.0805Z" fill="url(#paint25_linear_4316_121038)" fill-opacity="0.37"/>
<path opacity="0.5" d="M243.677 202.374L242.14 202.526L241.404 195.099L242.94 194.946L243 195.551L242.117 195.639L242.734 201.864L243.618 201.777L243.677 202.374ZM244.515 198.496C244.593 199.284 244.792 199.827 245.135 200.123C245.354 200.31 245.622 200.412 245.988 200.376C246.354 200.34 246.596 200.187 246.775 199.96C247.053 199.603 247.141 199.032 247.063 198.243C246.984 197.455 246.786 196.912 246.443 196.617C246.223 196.429 245.956 196.327 245.59 196.364C245.224 196.4 244.981 196.553 244.803 196.779C244.525 197.137 244.437 197.708 244.515 198.496ZM243.743 198.573C243.673 197.864 243.727 197.2 244.019 196.656C244.304 196.121 244.789 195.744 245.521 195.671C246.254 195.598 246.803 195.873 247.187 196.342C247.58 196.817 247.764 197.458 247.835 198.167C247.905 198.875 247.85 199.54 247.559 200.084C247.274 200.618 246.789 200.996 246.056 201.069C245.324 201.141 244.774 200.866 244.39 200.398C243.997 199.922 243.813 199.281 243.743 198.573ZM248.679 200.173C248.648 199.863 248.862 199.592 249.173 199.562C249.483 199.531 249.754 199.753 249.785 200.064C249.816 200.374 249.593 200.637 249.282 200.668C248.972 200.699 248.709 200.484 248.679 200.173ZM251.154 197.838C251.232 198.626 251.431 199.169 251.774 199.465C251.993 199.652 252.261 199.754 252.627 199.718C252.993 199.681 253.235 199.529 253.414 199.302C253.692 198.945 253.78 198.373 253.702 197.585C253.624 196.797 253.425 196.254 253.082 195.958C252.863 195.771 252.595 195.669 252.229 195.705C251.863 195.742 251.621 195.894 251.442 196.121C251.164 196.478 251.076 197.05 251.154 197.838ZM250.382 197.914C250.312 197.206 250.367 196.541 250.658 195.998C250.943 195.463 251.428 195.085 252.16 195.013C252.893 194.94 253.443 195.215 253.827 195.683C254.22 196.159 254.404 196.8 254.474 197.508C254.544 198.217 254.49 198.882 254.198 199.425C253.913 199.96 253.428 200.338 252.696 200.41C251.963 200.483 251.413 200.208 251.029 199.739C250.637 199.264 250.452 198.623 250.382 197.914ZM256.645 197.478L256.199 196.871L257.58 195.319L255.112 195.564L255.041 194.848L258.544 194.5L258.613 195.201L257.276 196.708C258.032 196.633 258.918 197.06 259.023 198.119C259.109 198.986 258.519 199.841 257.317 199.96C256.123 200.078 255.369 199.365 255.237 198.526L255.984 198.275C256.084 198.957 256.62 199.338 257.241 199.276C257.949 199.206 258.288 198.73 258.237 198.213C258.17 197.536 257.6 197.303 257.091 197.354C256.931 197.369 256.775 197.417 256.645 197.478ZM259.92 199.059C259.892 198.772 260.114 198.501 260.449 198.468C260.791 198.434 261.119 198.658 261.168 199.16C261.273 200.211 260.631 200.717 260.144 200.829L260.103 200.415C260.485 200.289 260.709 199.873 260.679 199.49C260.656 199.508 260.595 199.538 260.507 199.547C260.213 199.576 259.954 199.401 259.92 199.059ZM264.251 198.629C264.22 198.319 264.434 198.048 264.745 198.017C265.055 197.987 265.326 198.209 265.357 198.519C265.388 198.83 265.165 199.093 264.854 199.124C264.544 199.155 264.281 198.94 264.251 198.629ZM267.621 198.809L266.857 198.885L266.496 195.247L265.246 195.371L265.191 194.822C265.906 194.735 266.36 194.288 266.425 193.719L267.109 193.651L267.621 198.809ZM268.643 198.194C268.615 197.907 268.837 197.636 269.171 197.603C269.514 197.569 269.842 197.793 269.891 198.295C269.995 199.346 269.354 199.851 268.867 199.964L268.826 199.55C269.207 199.424 269.431 199.008 269.401 198.625C269.379 198.643 269.318 198.673 269.23 198.682C268.936 198.711 268.677 198.536 268.643 198.194ZM274.392 196.16L272.234 196.374L272.17 195.721L274.327 195.508L274.392 196.16ZM275.861 195.388C275.939 196.176 276.138 196.719 276.481 197.014C276.7 197.202 276.968 197.304 277.334 197.267C277.7 197.231 277.942 197.078 278.121 196.852C278.399 196.495 278.487 195.923 278.409 195.135C278.331 194.347 278.132 193.804 277.789 193.508C277.57 193.321 277.302 193.219 276.936 193.255C276.57 193.291 276.328 193.444 276.149 193.671C275.871 194.028 275.783 194.599 275.861 195.388ZM275.089 195.464C275.019 194.756 275.073 194.091 275.365 193.548C275.65 193.013 276.135 192.635 276.867 192.562C277.6 192.49 278.15 192.765 278.534 193.233C278.927 193.709 279.111 194.35 279.181 195.058C279.251 195.767 279.197 196.432 278.905 196.975C278.62 197.51 278.135 197.887 277.403 197.96C276.67 198.033 276.12 197.758 275.736 197.289C275.343 196.814 275.159 196.173 275.089 195.464ZM280.025 197.065C279.994 196.754 280.208 196.484 280.519 196.453C280.829 196.422 281.101 196.645 281.131 196.955C281.162 197.266 280.939 197.529 280.629 197.56C280.318 197.59 280.056 197.375 280.025 197.065ZM282.501 194.729C282.579 195.517 282.777 196.06 283.12 196.356C283.34 196.543 283.607 196.645 283.973 196.609C284.339 196.573 284.582 196.42 284.76 196.193C285.038 195.836 285.126 195.265 285.048 194.477C284.97 193.688 284.771 193.145 284.428 192.85C284.209 192.662 283.942 192.56 283.575 192.597C283.209 192.633 282.967 192.786 282.789 193.012C282.51 193.37 282.422 193.941 282.501 194.729ZM281.728 194.806C281.658 194.097 281.713 193.433 282.005 192.889C282.289 192.354 282.774 191.977 283.507 191.904C284.239 191.831 284.789 192.107 285.173 192.575C285.566 193.05 285.75 193.691 285.82 194.4C285.891 195.108 285.836 195.773 285.544 196.317C285.259 196.851 284.774 197.229 284.042 197.302C283.31 197.374 282.76 197.099 282.376 196.631C281.983 196.155 281.799 195.514 281.728 194.806ZM288.65 196.724L287.886 196.8L287.525 193.162L286.276 193.286L286.221 192.736C286.936 192.649 287.39 192.202 287.454 191.633L288.139 191.565L288.65 196.724ZM291.015 197.679L289.478 197.832L289.419 197.235L290.303 197.147L289.685 190.922L288.802 191.009L288.742 190.404L290.278 190.252L291.015 197.679Z" fill="url(#paint26_linear_4316_121038)" fill-opacity="0.37"/>
<path opacity="0.5" d="M666.601 185.324L665.082 185.601L663.745 178.258L665.265 177.981L665.373 178.579L664.5 178.738L665.62 184.893L666.494 184.734L666.601 185.324ZM667.122 181.391C667.264 182.171 667.506 182.696 667.872 182.963C668.106 183.131 668.38 183.211 668.742 183.146C669.105 183.08 669.333 182.908 669.493 182.667C669.741 182.289 669.783 181.712 669.641 180.933C669.499 180.154 669.257 179.629 668.891 179.362C668.657 179.193 668.382 179.113 668.02 179.179C667.658 179.245 667.429 179.416 667.27 179.657C667.022 180.035 666.98 180.612 667.122 181.391ZM666.359 181.53C666.231 180.83 666.232 180.163 666.478 179.598C666.719 179.042 667.172 178.626 667.896 178.494C668.62 178.362 669.19 178.592 669.611 179.027C670.041 179.47 670.277 180.093 670.404 180.794C670.532 181.494 670.531 182.161 670.284 182.727C670.044 183.283 669.591 183.698 668.867 183.83C668.143 183.962 667.573 183.733 667.152 183.297C666.722 182.855 666.486 182.231 666.359 181.53ZM671.408 182.725C671.352 182.418 671.544 182.131 671.851 182.075C672.158 182.02 672.446 182.219 672.502 182.526C672.558 182.833 672.357 183.114 672.05 183.17C671.743 183.225 671.464 183.032 671.408 182.725ZM673.686 180.196C673.828 180.976 674.07 181.501 674.436 181.768C674.67 181.936 674.944 182.016 675.306 181.951C675.669 181.885 675.897 181.713 676.057 181.472C676.305 181.094 676.347 180.517 676.205 179.738C676.063 178.959 675.821 178.434 675.455 178.167C675.221 177.998 674.946 177.918 674.584 177.984C674.222 178.05 673.993 178.221 673.834 178.462C673.586 178.84 673.544 179.417 673.686 180.196ZM672.923 180.335C672.795 179.635 672.796 178.968 673.042 178.403C673.283 177.847 673.736 177.431 674.46 177.299C675.184 177.167 675.754 177.397 676.175 177.832C676.605 178.274 676.841 178.898 676.968 179.599C677.096 180.299 677.095 180.966 676.848 181.532C676.608 182.088 676.155 182.503 675.431 182.635C674.707 182.767 674.137 182.538 673.716 182.102C673.286 181.66 673.05 181.036 672.923 180.335ZM679.129 179.392L678.635 178.824L679.886 177.165L677.446 177.609L677.317 176.901L680.781 176.27L680.907 176.963L679.696 178.574C680.443 178.438 681.361 178.791 681.552 179.838C681.708 180.696 681.189 181.595 680 181.812C678.82 182.026 678.01 181.377 677.811 180.551L678.535 180.241C678.69 180.912 679.255 181.248 679.869 181.136C680.57 181.009 680.869 180.507 680.776 179.995C680.654 179.326 680.067 179.14 679.563 179.232C679.406 179.261 679.254 179.321 679.129 179.392ZM682.522 180.702C682.471 180.419 682.67 180.13 683.001 180.07C683.339 180.008 683.684 180.206 683.774 180.702C683.964 181.741 683.366 182.297 682.889 182.448L682.815 182.039C683.184 181.882 683.374 181.449 683.313 181.07C683.292 181.09 683.234 181.125 683.147 181.141C682.856 181.194 682.584 181.04 682.522 180.702ZM686.803 179.922C686.748 179.616 686.939 179.329 687.246 179.273C687.553 179.217 687.842 179.416 687.897 179.723C687.953 180.03 687.752 180.311 687.445 180.367C687.138 180.423 686.859 180.229 686.803 179.922ZM690.177 179.829L689.422 179.966L688.767 176.369L687.531 176.594L687.432 176.051C688.138 175.907 688.554 175.424 688.572 174.852L689.249 174.729L690.177 179.829ZM691.146 179.132C691.095 178.848 691.294 178.56 691.625 178.5C691.963 178.438 692.308 178.636 692.398 179.132C692.587 180.17 691.989 180.727 691.513 180.878L691.438 180.469C691.808 180.312 691.998 179.879 691.937 179.5C691.916 179.52 691.857 179.555 691.771 179.571C691.48 179.624 691.208 179.47 691.146 179.132ZM696.711 176.639L694.578 177.027L694.46 176.382L696.593 175.993L696.711 176.639ZM698.113 175.749C698.255 176.529 698.497 177.054 698.862 177.32C699.096 177.489 699.371 177.569 699.733 177.503C700.095 177.438 700.324 177.266 700.484 177.025C700.732 176.647 700.773 176.07 700.631 175.291C700.489 174.512 700.247 173.986 699.882 173.72C699.648 173.551 699.373 173.471 699.011 173.537C698.649 173.603 698.42 173.774 698.26 174.015C698.012 174.393 697.971 174.97 698.113 175.749ZM697.349 175.888C697.222 175.188 697.222 174.521 697.469 173.956C697.709 173.4 698.162 172.984 698.886 172.852C699.61 172.72 700.181 172.95 700.602 173.385C701.032 173.827 701.267 174.451 701.395 175.152C701.522 175.852 701.522 176.519 701.275 177.085C701.035 177.641 700.582 178.056 699.858 178.188C699.134 178.32 698.563 178.09 698.142 177.655C697.712 177.213 697.477 176.589 697.349 175.888ZM702.399 177.083C702.343 176.776 702.534 176.489 702.841 176.433C703.148 176.378 703.437 176.577 703.493 176.884C703.549 177.191 703.348 177.472 703.041 177.527C702.734 177.583 702.455 177.39 702.399 177.083ZM704.677 174.554C704.819 175.333 705.061 175.859 705.426 176.125C705.66 176.294 705.935 176.374 706.297 176.308C706.659 176.243 706.888 176.071 707.048 175.83C707.296 175.452 707.337 174.875 707.195 174.096C707.053 173.317 706.811 172.791 706.446 172.525C706.212 172.356 705.937 172.276 705.575 172.342C705.213 172.408 704.984 172.579 704.824 172.82C704.576 173.198 704.535 173.775 704.677 174.554ZM703.913 174.693C703.786 173.993 703.786 173.326 704.033 172.761C704.273 172.205 704.726 171.789 705.45 171.657C706.174 171.525 706.745 171.755 707.165 172.19C707.596 172.632 707.831 173.256 707.959 173.957C708.086 174.657 708.086 175.324 707.839 175.889C707.599 176.446 707.146 176.861 706.422 176.993C705.698 177.125 705.127 176.895 704.706 176.46C704.276 176.018 704.041 175.394 703.913 174.693ZM710.968 176.043L710.213 176.181L709.558 172.584L708.322 172.809L708.223 172.266C708.929 172.121 709.345 171.639 709.363 171.067L710.04 170.943L710.968 176.043ZM713.402 176.804L711.883 177.08L711.776 176.49L712.649 176.331L711.529 170.176L710.655 170.335L710.546 169.737L712.065 169.461L713.402 176.804Z" fill="url(#paint27_linear_4316_121038)" fill-opacity="0.37"/>
<path opacity="0.5" d="M1370.06 229.599L1368.55 229.301L1369.99 221.977L1371.5 222.275L1371.39 222.872L1370.52 222.7L1369.31 228.839L1370.18 229.01L1370.06 229.599ZM1371.99 226.128C1371.83 226.906 1371.87 227.483 1372.11 227.865C1372.27 228.108 1372.49 228.282 1372.85 228.353C1373.22 228.424 1373.49 228.348 1373.73 228.183C1374.1 227.921 1374.35 227.399 1374.5 226.622C1374.65 225.845 1374.62 225.268 1374.38 224.886C1374.22 224.643 1373.99 224.468 1373.63 224.397C1373.27 224.326 1372.99 224.402 1372.76 224.568C1372.39 224.83 1372.14 225.351 1371.99 226.128ZM1371.23 225.979C1371.36 225.28 1371.61 224.66 1372.04 224.224C1372.47 223.794 1373.04 223.572 1373.77 223.714C1374.49 223.856 1374.93 224.278 1375.17 224.838C1375.41 225.406 1375.4 226.073 1375.26 226.772C1375.12 227.47 1374.88 228.091 1374.44 228.527C1374.02 228.957 1373.44 229.178 1372.72 229.036C1372 228.894 1371.55 228.472 1371.32 227.913C1371.08 227.344 1371.09 226.677 1371.23 225.979ZM1375.49 228.937C1375.55 228.63 1375.83 228.433 1376.14 228.494C1376.44 228.554 1376.64 228.845 1376.58 229.151C1376.52 229.457 1376.23 229.645 1375.92 229.585C1375.62 229.524 1375.43 229.243 1375.49 228.937ZM1378.53 227.415C1378.38 228.192 1378.41 228.77 1378.66 229.152C1378.81 229.394 1379.04 229.569 1379.4 229.64C1379.76 229.711 1380.04 229.635 1380.27 229.469C1380.64 229.208 1380.89 228.686 1381.05 227.909C1381.2 227.132 1381.16 226.555 1380.92 226.173C1380.77 225.93 1380.54 225.755 1380.18 225.684C1379.82 225.613 1379.54 225.689 1379.3 225.855C1378.94 226.116 1378.69 226.638 1378.53 227.415ZM1377.77 227.266C1377.91 226.567 1378.15 225.946 1378.59 225.51C1379.02 225.081 1379.59 224.859 1380.31 225.001C1381.03 225.143 1381.48 225.565 1381.71 226.124C1381.95 226.693 1381.94 227.36 1381.81 228.059C1381.67 228.757 1381.43 229.378 1380.99 229.814C1380.56 230.244 1379.99 230.465 1379.27 230.323C1378.54 230.181 1378.1 229.759 1377.86 229.2C1377.63 228.631 1377.63 227.964 1377.77 227.266ZM1383.89 228.656L1383.64 227.946L1385.41 226.86L1382.98 226.381L1383.12 225.675L1386.57 226.354L1386.44 227.044L1384.72 228.101C1385.47 228.248 1386.19 228.912 1385.99 229.956C1385.82 230.812 1385.01 231.459 1383.82 231.226C1382.64 230.995 1382.13 230.095 1382.24 229.253L1383.03 229.229C1382.93 229.91 1383.33 230.43 1383.95 230.55C1384.64 230.687 1385.11 230.329 1385.21 229.819C1385.34 229.152 1384.86 228.765 1384.36 228.666C1384.2 228.635 1384.04 228.635 1383.89 228.656ZM1386.57 231.115C1386.63 230.833 1386.92 230.637 1387.25 230.702C1387.59 230.768 1387.84 231.078 1387.74 231.573C1387.54 232.609 1386.78 232.908 1386.28 232.875L1386.36 232.467C1386.76 232.456 1387.09 232.122 1387.17 231.747C1387.15 231.758 1387.08 231.769 1386.99 231.752C1386.7 231.695 1386.51 231.453 1386.57 231.115ZM1390.84 231.955C1390.9 231.648 1391.19 231.451 1391.49 231.512C1391.8 231.572 1391.99 231.863 1391.93 232.169C1391.87 232.475 1391.58 232.663 1391.28 232.603C1390.97 232.543 1390.78 232.261 1390.84 231.955ZM1394.02 233.1L1393.26 232.952L1393.97 229.365L1392.74 229.123L1392.84 228.581C1393.55 228.704 1394.12 228.407 1394.34 227.881L1395.02 228.014L1394.02 233.1ZM1395.17 232.806C1395.23 232.523 1395.52 232.328 1395.85 232.393C1396.19 232.459 1396.44 232.769 1396.34 233.263C1396.14 234.299 1395.38 234.599 1394.88 234.566L1394.96 234.157C1395.36 234.147 1395.69 233.813 1395.78 233.438C1395.75 233.449 1395.68 233.46 1395.6 233.443C1395.31 233.386 1395.11 233.143 1395.17 232.806ZM1401.27 232.519L1399.14 232.101L1399.26 231.457L1401.39 231.876L1401.27 232.519ZM1402.9 232.204C1402.74 232.981 1402.78 233.558 1403.02 233.94C1403.17 234.183 1403.4 234.358 1403.76 234.429C1404.12 234.5 1404.4 234.423 1404.64 234.258C1405.01 233.996 1405.25 233.475 1405.41 232.697C1405.56 231.92 1405.53 231.343 1405.28 230.961C1405.13 230.718 1404.9 230.543 1404.54 230.472C1404.18 230.401 1403.9 230.478 1403.67 230.643C1403.3 230.905 1403.05 231.427 1402.9 232.204ZM1402.13 232.054C1402.27 231.355 1402.52 230.735 1402.95 230.299C1403.38 229.869 1403.95 229.647 1404.67 229.789C1405.4 229.931 1405.84 230.354 1406.08 230.913C1406.31 231.482 1406.31 232.148 1406.17 232.847C1406.03 233.546 1405.79 234.166 1405.35 234.602C1404.92 235.032 1404.35 235.254 1403.63 235.112C1402.91 234.97 1402.46 234.548 1402.23 233.988C1401.99 233.419 1402 232.753 1402.13 232.054ZM1406.4 235.012C1406.46 234.706 1406.74 234.509 1407.05 234.569C1407.35 234.629 1407.55 234.92 1407.49 235.226C1407.43 235.532 1407.14 235.72 1406.83 235.66C1406.53 235.6 1406.34 235.318 1406.4 235.012ZM1409.44 233.49C1409.29 234.268 1409.32 234.845 1409.57 235.227C1409.72 235.47 1409.95 235.644 1410.31 235.715C1410.67 235.786 1410.95 235.71 1411.18 235.545C1411.55 235.283 1411.8 234.761 1411.95 233.984C1412.11 233.207 1412.07 232.63 1411.83 232.248C1411.67 232.005 1411.45 231.83 1411.09 231.759C1410.73 231.688 1410.45 231.764 1410.21 231.93C1409.84 232.192 1409.59 232.713 1409.44 233.49ZM1408.68 233.341C1408.82 232.642 1409.06 232.022 1409.5 231.586C1409.93 231.156 1410.5 230.934 1411.22 231.076C1411.94 231.218 1412.39 231.64 1412.62 232.2C1412.86 232.768 1412.85 233.435 1412.72 234.134C1412.58 234.832 1412.33 235.453 1411.9 235.889C1411.47 236.319 1410.9 236.54 1410.17 236.398C1409.45 236.256 1409.01 235.834 1408.77 235.275C1408.53 234.706 1408.54 234.039 1408.68 233.341ZM1414.75 237.176L1414 237.028L1414.71 233.441L1413.47 233.198L1413.58 232.657C1414.29 232.78 1414.85 232.483 1415.08 231.957L1415.75 232.089L1414.75 237.176ZM1416.74 238.773L1415.23 238.476L1415.34 237.887L1416.21 238.058L1417.42 231.92L1416.55 231.748L1416.67 231.152L1418.18 231.45L1416.74 238.773Z" fill="url(#paint28_linear_4316_121038)" fill-opacity="0.37"/>
<path opacity="0.5" d="M493.851 67.3575L492.329 67.0991L493.579 59.7404L495.101 59.9989L494.999 60.5983L494.124 60.4496L493.076 66.6174L493.952 66.766L493.851 67.3575ZM495.683 63.8385C495.55 64.6193 495.599 65.1955 495.851 65.5711C496.014 65.8097 496.245 65.9787 496.607 66.0403C496.97 66.1019 497.244 66.0186 497.476 65.847C497.839 65.5759 498.074 65.0479 498.207 64.2671C498.339 63.4862 498.291 62.91 498.039 62.5344C497.876 62.2959 497.645 62.1268 497.282 62.0652C496.92 62.0036 496.646 62.087 496.414 62.2586C496.051 62.5297 495.816 63.0577 495.683 63.8385ZM494.918 63.7086C495.037 63.0066 495.265 62.38 495.69 61.9328C496.106 61.4922 496.673 61.2558 497.399 61.3791C498.125 61.5023 498.582 61.9127 498.829 62.4658C499.083 63.0282 499.091 63.695 498.972 64.397C498.853 65.0989 498.625 65.7256 498.2 66.1728C497.784 66.6134 497.217 66.8497 496.491 66.7265C495.765 66.6033 495.308 66.1929 495.061 65.6397C494.807 65.0774 494.799 64.4106 494.918 63.7086ZM499.256 66.555C499.309 66.2475 499.587 66.0431 499.894 66.0954C500.202 66.1476 500.405 66.4336 500.353 66.7412C500.3 67.0488 500.016 67.2439 499.708 67.1917C499.401 67.1394 499.204 66.8626 499.256 66.555ZM502.261 64.9554C502.128 65.7362 502.176 66.3124 502.429 66.688C502.591 66.9266 502.822 67.0956 503.185 67.1572C503.548 67.2188 503.822 67.1355 504.054 66.9639C504.416 66.6928 504.652 66.1648 504.785 65.384C504.917 64.6031 504.869 64.0269 504.616 63.6513C504.454 63.4128 504.223 63.2437 503.86 63.1821C503.497 63.1205 503.224 63.2039 502.992 63.3755C502.629 63.6466 502.393 64.1746 502.261 64.9554ZM501.496 64.8255C501.615 64.1236 501.843 63.4969 502.268 63.0497C502.683 62.6091 503.251 62.3728 503.977 62.496C504.702 62.6192 505.16 63.0296 505.407 63.5827C505.66 64.1451 505.669 64.8119 505.55 65.5139C505.43 66.2158 505.202 66.8425 504.777 67.2897C504.362 67.7303 503.794 67.9666 503.069 67.8434C502.343 67.7202 501.885 67.3098 501.638 66.7567C501.385 66.1943 501.376 65.5275 501.496 64.8255ZM507.651 66.0574L507.381 65.3542L509.123 64.2219L506.678 63.8067L506.799 63.0969L510.269 63.6862L510.151 64.3802L508.463 65.4812C509.213 65.6084 509.955 66.2538 509.777 67.3028C509.631 68.1625 508.836 68.8308 507.645 68.6286C506.462 68.4277 505.923 67.5409 506.017 66.6968L506.804 66.6519C506.72 67.3355 507.137 67.8445 507.752 67.9489C508.454 68.0681 508.906 67.6986 508.993 67.186C509.107 66.5156 508.619 66.1406 508.114 66.0548C507.957 66.0281 507.793 66.0328 507.651 66.0574ZM510.394 68.4462C510.442 68.1623 510.728 67.9593 511.059 68.0155C511.398 68.0731 511.655 68.3764 511.571 68.8733C511.394 69.9144 510.642 70.233 510.143 70.2131L510.212 69.8029C510.613 69.7818 510.939 69.4395 511.011 69.0623C510.985 69.074 510.918 69.087 510.831 69.0723C510.539 69.0227 510.336 68.7854 510.394 68.4462ZM514.684 69.1747C514.736 68.8671 515.014 68.6628 515.322 68.715C515.63 68.7672 515.833 69.0532 515.78 69.3608C515.728 69.6684 515.443 69.8635 515.136 69.8113C514.828 69.7591 514.632 69.4823 514.684 69.1747ZM517.887 70.2379L517.13 70.1093L517.742 66.5049L516.504 66.2947L516.596 65.7505C517.309 65.8552 517.865 65.5439 518.077 65.0119L518.755 65.1271L517.887 70.2379ZM519.036 69.9136C519.084 69.6297 519.37 69.4267 519.701 69.4829C520.04 69.5405 520.297 69.8438 520.213 70.3407C520.036 71.3818 519.284 71.7004 518.784 71.6805L518.854 71.2703C519.255 71.2492 519.581 70.9069 519.653 70.5297C519.627 70.5415 519.56 70.5544 519.473 70.5397C519.181 70.4901 518.978 70.2528 519.036 69.9136ZM525.117 69.4694L522.98 69.1065L523.09 68.4597L525.227 68.8226L525.117 69.4694ZM526.738 69.1118C526.606 69.8926 526.654 70.4688 526.907 70.8444C527.069 71.0829 527.3 71.252 527.663 71.3136C528.026 71.3752 528.3 71.2919 528.532 71.1203C528.894 70.8491 529.13 70.3212 529.262 69.5403C529.395 68.7595 529.347 68.1833 529.094 67.8077C528.932 67.5692 528.701 67.4001 528.338 67.3385C527.975 67.2769 527.701 67.3602 527.469 67.5318C527.107 67.803 526.871 68.3309 526.738 69.1118ZM525.973 68.9819C526.093 68.2799 526.321 67.6533 526.746 67.2061C527.161 66.7654 527.729 66.5291 528.454 66.6523C529.18 66.7755 529.638 67.186 529.885 67.7391C530.138 68.3014 530.147 68.9683 530.027 69.6702C529.908 70.3722 529.68 70.9988 529.255 71.446C528.84 71.8867 528.272 72.123 527.546 71.9998C526.821 71.8766 526.363 71.4661 526.116 70.913C525.863 70.3506 525.854 69.6838 525.973 68.9819ZM530.312 71.8283C530.364 71.5207 530.642 71.3164 530.95 71.3686C531.257 71.4209 531.46 71.7069 531.408 72.0145C531.356 72.3221 531.071 72.5172 530.764 72.4649C530.456 72.4127 530.26 72.1359 530.312 71.8283ZM533.316 70.2287C533.184 71.0095 533.232 71.5857 533.485 71.9613C533.647 72.1999 533.878 72.3689 534.241 72.4305C534.603 72.4921 534.877 72.4088 535.109 72.2372C535.472 71.966 535.707 71.4381 535.84 70.6572C535.973 69.8764 535.924 69.3002 535.672 68.9246C535.509 68.6861 535.278 68.517 534.916 68.4554C534.553 68.3938 534.279 68.4771 534.047 68.6487C533.684 68.9199 533.449 69.4479 533.316 70.2287ZM532.551 70.0988C532.67 69.3968 532.898 68.7702 533.323 68.323C533.739 67.8823 534.307 67.646 535.032 67.7692C535.758 67.8924 536.216 68.3029 536.462 68.856C536.716 69.4184 536.724 70.0852 536.605 70.7871C536.486 71.4891 536.258 72.1157 535.833 72.5629C535.417 73.0036 534.85 73.2399 534.124 73.1167C533.399 72.9935 532.941 72.5831 532.694 72.0299C532.44 71.4676 532.432 70.8007 532.551 70.0988ZM538.722 73.7756L537.965 73.6471L538.577 70.0427L537.338 69.8324L537.431 69.2882C538.143 69.393 538.699 69.0816 538.911 68.5496L539.59 68.6648L538.722 73.7756ZM540.75 75.321L539.228 75.0625L539.328 74.471L540.204 74.6197L541.251 68.4519L540.376 68.3033L540.477 67.7039L542 67.9623L540.75 75.321Z" fill="url(#paint29_linear_4316_121038)" fill-opacity="0.37"/>
<defs>
<filter id="filter0_f_4316_121038" x="566" y="41.0078" width="598.248" height="221.131" filterUnits="userSpaceOnUse" color-interpolation-filters="sRGB">
<feFlood flood-opacity="0" result="BackgroundImageFix"/>
<feBlend mode="normal" in="SourceGraphic" in2="BackgroundImageFix" result="shape"/>
<feGaussianBlur stdDeviation="14" result="effect1_foregroundBlur_4316_121038"/>
</filter>
<filter id="filter1_f_4316_121038" x="756.408" y="49.8006" width="217.368" height="83.7441" filterUnits="userSpaceOnUse" color-interpolation-filters="sRGB">
<feFlood flood-opacity="0" result="BackgroundImageFix"/>
<feBlend mode="normal" in="SourceGraphic" in2="BackgroundImageFix" result="shape"/>
<feGaussianBlur stdDeviation="2.2794" result="effect1_foregroundBlur_4316_121038"/>
</filter>
<filter id="filter2_f_4316_121038" x="799.756" y="45.8822" width="132.727" height="38.4333" filterUnits="userSpaceOnUse" color-interpolation-filters="sRGB">
<feFlood flood-opacity="0" result="BackgroundImageFix"/>
<feBlend mode="normal" in="SourceGraphic" in2="BackgroundImageFix" result="shape"/>
<feGaussianBlur stdDeviation="1.1397" result="effect1_foregroundBlur_4316_121038"/>
</filter>
<filter id="filter3_f_4316_121038" x="784.988" y="32.8544" width="162.26" height="38.4333" filterUnits="userSpaceOnUse" color-interpolation-filters="sRGB">
<feFlood flood-opacity="0" result="BackgroundImageFix"/>
<feBlend mode="normal" in="SourceGraphic" in2="BackgroundImageFix" result="shape"/>
<feGaussianBlur stdDeviation="1.1397" result="effect1_foregroundBlur_4316_121038"/>
</filter>
<filter id="filter4_f_4316_121038" x="793.441" y="67.5432" width="142.256" height="142.256" filterUnits="userSpaceOnUse" color-interpolation-filters="sRGB">
<feFlood flood-opacity="0" result="BackgroundImageFix"/>
<feBlend mode="normal" in="SourceGraphic" in2="BackgroundImageFix" result="shape"/>
<feGaussianBlur stdDeviation="2.2794" result="effect1_foregroundBlur_4316_121038"/>
</filter>
<filter id="filter5_f_4316_121038" x="793.443" y="67.5437" width="142.256" height="142.256" filterUnits="userSpaceOnUse" color-interpolation-filters="sRGB">
<feFlood flood-opacity="0" result="BackgroundImageFix"/>
<feBlend mode="normal" in="SourceGraphic" in2="BackgroundImageFix" result="shape"/>
<feGaussianBlur stdDeviation="2.2794" result="effect1_foregroundBlur_4316_121038"/>
</filter>
<filter id="filter6_f_4316_121038" x="793.443" y="67.5432" width="142.256" height="142.256" filterUnits="userSpaceOnUse" color-interpolation-filters="sRGB">
<feFlood flood-opacity="0" result="BackgroundImageFix"/>
<feBlend mode="normal" in="SourceGraphic" in2="BackgroundImageFix" result="shape"/>
<feGaussianBlur stdDeviation="2.2794" result="effect1_foregroundBlur_4316_121038"/>
</filter>
<filter id="filter7_f_4316_121038" x="793.441" y="67.5437" width="142.256" height="142.256" filterUnits="userSpaceOnUse" color-interpolation-filters="sRGB">
<feFlood flood-opacity="0" result="BackgroundImageFix"/>
<feBlend mode="normal" in="SourceGraphic" in2="BackgroundImageFix" result="shape"/>
<feGaussianBlur stdDeviation="2.2794" result="effect1_foregroundBlur_4316_121038"/>
</filter>
<filter id="filter8_f_4316_121038" x="795.721" y="69.8226" width="137.697" height="137.697" filterUnits="userSpaceOnUse" color-interpolation-filters="sRGB">
<feFlood flood-opacity="0" result="BackgroundImageFix"/>
<feBlend mode="normal" in="SourceGraphic" in2="BackgroundImageFix" result="shape"/>
<feGaussianBlur stdDeviation="1.1397" result="effect1_foregroundBlur_4316_121038"/>
</filter>
<filter id="filter9_f_4316_121038" x="795.723" y="69.8231" width="137.697" height="137.697" filterUnits="userSpaceOnUse" color-interpolation-filters="sRGB">
<feFlood flood-opacity="0" result="BackgroundImageFix"/>
<feBlend mode="normal" in="SourceGraphic" in2="BackgroundImageFix" result="shape"/>
<feGaussianBlur stdDeviation="1.1397" result="effect1_foregroundBlur_4316_121038"/>
</filter>
<filter id="filter10_f_4316_121038" x="795.723" y="69.8226" width="137.697" height="137.697" filterUnits="userSpaceOnUse" color-interpolation-filters="sRGB">
<feFlood flood-opacity="0" result="BackgroundImageFix"/>
<feBlend mode="normal" in="SourceGraphic" in2="BackgroundImageFix" result="shape"/>
<feGaussianBlur stdDeviation="1.1397" result="effect1_foregroundBlur_4316_121038"/>
</filter>
<filter id="filter11_f_4316_121038" x="795.721" y="69.8231" width="137.697" height="137.697" filterUnits="userSpaceOnUse" color-interpolation-filters="sRGB">
<feFlood flood-opacity="0" result="BackgroundImageFix"/>
<feBlend mode="normal" in="SourceGraphic" in2="BackgroundImageFix" result="shape"/>
<feGaussianBlur stdDeviation="1.1397" result="effect1_foregroundBlur_4316_121038"/>
</filter>
<filter id="filter12_f_4316_121038" x="516.357" y="112.479" width="697.362" height="229.041" filterUnits="userSpaceOnUse" color-interpolation-filters="sRGB">
<feFlood flood-opacity="0" result="BackgroundImageFix"/>
<feBlend mode="normal" in="SourceGraphic" in2="BackgroundImageFix" result="shape"/>
<feGaussianBlur stdDeviation="22.794" result="effect1_foregroundBlur_4316_121038"/>
</filter>
<radialGradient id="paint0_radial_4316_121038" cx="0" cy="0" r="1" gradientUnits="userSpaceOnUse" gradientTransform="translate(859.159 138.208) rotate(92.2122) scale(263.179 749.441)">
<stop stop-color="#161616" stop-opacity="0"/>
<stop offset="0.489999" stop-color="#414141" stop-opacity="0.84"/>
<stop offset="1" stop-color="#171717" stop-opacity="0"/>
</radialGradient>
<radialGradient id="paint1_radial_4316_121038" cx="0" cy="0" r="1" gradientUnits="userSpaceOnUse" gradientTransform="translate(859.159 136.974) rotate(-103.238) scale(44.3621 730.071)">
<stop stop-color="#161616" stop-opacity="0"/>
<stop offset="0.489999" stop-color="#414141" stop-opacity="0.84"/>
<stop offset="1" stop-color="#171717" stop-opacity="0"/>
</radialGradient>
<radialGradient id="paint2_radial_4316_121038" cx="0" cy="0" r="1" gradientUnits="userSpaceOnUse" gradientTransform="translate(863.122 127.579) rotate(-92.6074) scale(137.882 462.616)">
<stop stop-color="#161616" stop-opacity="0"/>
<stop offset="0.489999" stop-color="#414141" stop-opacity="0.84"/>
<stop offset="1" stop-color="#171717" stop-opacity="0"/>
</radialGradient>
<radialGradient id="paint3_radial_4316_121038" cx="0" cy="0" r="1" gradientUnits="userSpaceOnUse" gradientTransform="translate(861.752 133.22) rotate(-90) scale(115.815 675.283)">
<stop stop-color="#161616" stop-opacity="0"/>
<stop offset="0.592292" stop-color="#414141" stop-opacity="0.84"/>
<stop offset="1" stop-color="#171717" stop-opacity="0"/>
</radialGradient>
<radialGradient id="paint4_radial_4316_121038" cx="0" cy="0" r="1" gradientUnits="userSpaceOnUse" gradientTransform="translate(862.511 138.502) rotate(105.433) scale(25.8224 489.043)">
<stop stop-color="#161616" stop-opacity="0"/>
<stop offset="0.489999" stop-color="#414141" stop-opacity="0.84"/>
<stop offset="1" stop-color="#171717" stop-opacity="0"/>
</radialGradient>
<radialGradient id="paint5_radial_4316_121038" cx="0" cy="0" r="1" gradientUnits="userSpaceOnUse" gradientTransform="translate(862.32 54.7715) rotate(90) scale(193.44 193.44)">
<stop stop-color="#161616"/>
<stop offset="1" stop-color="#161616"/>
</radialGradient>
<linearGradient id="paint6_linear_4316_121038" x1="865.086" y1="54.9292" x2="864.98" y2="193.79" gradientUnits="userSpaceOnUse">
<stop stop-color="#3DCB8C"/>
<stop offset="1" stop-color="#171717"/>
</linearGradient>
<linearGradient id="paint7_linear_4316_121038" x1="863.785" y1="54.9292" x2="863.651" y2="207.271" gradientUnits="userSpaceOnUse">
<stop offset="0.331593" stop-color="#151515" stop-opacity="0"/>
<stop offset="0.594681" stop-color="#A3A3A3"/>
<stop offset="1" stop-color="#171717"/>
</linearGradient>
<linearGradient id="paint8_linear_4316_121038" x1="860.732" y1="176.86" x2="862.471" y2="236.32" gradientUnits="userSpaceOnUse">
<stop offset="0.0114691" stop-color="#171717"/>
<stop offset="0.540433" stop-color="#3DCB8C"/>
<stop offset="1" stop-color="#161616"/>
</linearGradient>
<linearGradient id="paint9_linear_4316_121038" x1="865.087" y1="54.9292" x2="865.087" y2="105.386" gradientUnits="userSpaceOnUse">
<stop stop-color="#3DCB8C"/>
<stop offset="1" stop-color="white" stop-opacity="0"/>
</linearGradient>
<radialGradient id="paint10_radial_4316_121038" cx="0" cy="0" r="1" gradientUnits="userSpaceOnUse" gradientTransform="translate(864.383 138.314) rotate(90) scale(55.0818)">
<stop stop-color="#343434" stop-opacity="0"/>
<stop offset="0.522658" stop-color="#212121"/>
<stop offset="1" stop-color="#232323" stop-opacity="0"/>
</radialGradient>
<linearGradient id="paint11_linear_4316_121038" x1="864.382" y1="107.967" x2="864.382" y2="163.315" gradientUnits="userSpaceOnUse">
<stop stop-color="#E2E2E2"/>
<stop offset="1" stop-color="#202020" stop-opacity="0.29"/>
</linearGradient>
<linearGradient id="paint12_linear_4316_121038" x1="884.129" y1="122.715" x2="865.601" y2="163.788" gradientUnits="userSpaceOnUse">
<stop stop-color="white"/>
<stop offset="1" stop-color="#4D4D4D" stop-opacity="0"/>
</linearGradient>
<linearGradient id="paint13_linear_4316_121038" x1="864.569" y1="72.1021" x2="864.569" y2="105.061" gradientUnits="userSpaceOnUse">
<stop stop-color="#BFBFBF"/>
<stop offset="0.3125" stop-color="#232323" stop-opacity="0"/>
</linearGradient>
<linearGradient id="paint14_linear_4316_121038" x1="864.571" y1="72.1024" x2="864.571" y2="105.061" gradientUnits="userSpaceOnUse">
<stop stop-color="#BFBFBF"/>
<stop offset="0.3125" stop-color="#232323" stop-opacity="0"/>
</linearGradient>
<linearGradient id="paint15_linear_4316_121038" x1="864.571" y1="72.1021" x2="864.571" y2="105.061" gradientUnits="userSpaceOnUse">
<stop stop-color="#BFBFBF"/>
<stop offset="0.3125" stop-color="#232323" stop-opacity="0"/>
</linearGradient>
<linearGradient id="paint16_linear_4316_121038" x1="864.569" y1="72.1024" x2="864.569" y2="105.061" gradientUnits="userSpaceOnUse">
<stop stop-color="#BFBFBF"/>
<stop offset="0.3125" stop-color="#232323" stop-opacity="0"/>
</linearGradient>
<linearGradient id="paint17_linear_4316_121038" x1="864.569" y1="72.1021" x2="864.569" y2="105.061" gradientUnits="userSpaceOnUse">
<stop stop-color="#BFBFBF"/>
<stop offset="0.3125" stop-color="#232323" stop-opacity="0"/>
</linearGradient>
<linearGradient id="paint18_linear_4316_121038" x1="864.571" y1="72.1024" x2="864.571" y2="105.061" gradientUnits="userSpaceOnUse">
<stop stop-color="#BFBFBF"/>
<stop offset="0.3125" stop-color="#232323" stop-opacity="0"/>
</linearGradient>
<linearGradient id="paint19_linear_4316_121038" x1="864.571" y1="72.1021" x2="864.571" y2="105.061" gradientUnits="userSpaceOnUse">
<stop stop-color="#BFBFBF"/>
<stop offset="0.3125" stop-color="#232323" stop-opacity="0"/>
</linearGradient>
<linearGradient id="paint20_linear_4316_121038" x1="864.569" y1="72.1024" x2="864.569" y2="105.061" gradientUnits="userSpaceOnUse">
<stop stop-color="#BFBFBF"/>
<stop offset="0.3125" stop-color="#232323" stop-opacity="0"/>
</linearGradient>
<linearGradient id="paint21_linear_4316_121038" x1="864.569" y1="72.1021" x2="864.569" y2="105.061" gradientUnits="userSpaceOnUse">
<stop stop-color="#00FF8E"/>
<stop offset="0.15625" stop-color="#232323" stop-opacity="0"/>
</linearGradient>
<linearGradient id="paint22_linear_4316_121038" x1="864.571" y1="72.1024" x2="864.571" y2="105.061" gradientUnits="userSpaceOnUse">
<stop stop-color="white"/>
<stop offset="0.15625" stop-color="#232323" stop-opacity="0"/>
</linearGradient>
<linearGradient id="paint23_linear_4316_121038" x1="864.571" y1="72.1021" x2="864.571" y2="105.061" gradientUnits="userSpaceOnUse">
<stop stop-color="white"/>
<stop offset="0.15625" stop-color="#232323" stop-opacity="0"/>
</linearGradient>
<linearGradient id="paint24_linear_4316_121038" x1="864.569" y1="72.1024" x2="864.569" y2="105.061" gradientUnits="userSpaceOnUse">
<stop stop-color="white"/>
<stop offset="0.15625" stop-color="#232323" stop-opacity="0"/>
</linearGradient>
<linearGradient id="paint25_linear_4316_121038" x1="1463.24" y1="78.4848" x2="1464.88" y2="94.4" gradientUnits="userSpaceOnUse">
<stop stop-color="#49FFAA"/>
<stop offset="1" stop-color="#49FFAA" stop-opacity="0"/>
</linearGradient>
<linearGradient id="paint26_linear_4316_121038" x1="265.376" y1="187.978" x2="266.954" y2="203.9" gradientUnits="userSpaceOnUse">
<stop stop-color="#49FFAA"/>
<stop offset="1" stop-color="#49FFAA" stop-opacity="0"/>
</linearGradient>
<linearGradient id="paint27_linear_4316_121038" x1="687.06" y1="169.215" x2="689.926" y2="184.957" gradientUnits="userSpaceOnUse">
<stop stop-color="#49FFAA"/>
<stop offset="1" stop-color="#49FFAA" stop-opacity="0"/>
</linearGradient>
<linearGradient id="paint28_linear_4316_121038" x1="1395" y1="222.082" x2="1391.91" y2="237.782" gradientUnits="userSpaceOnUse">
<stop stop-color="#49FFAA"/>
<stop offset="1" stop-color="#49FFAA" stop-opacity="0"/>
</linearGradient>
<linearGradient id="paint29_linear_4316_121038" x1="518.58" y1="59.198" x2="515.901" y2="74.9722" gradientUnits="userSpaceOnUse">
<stop stop-color="#49FFAA"/>
<stop offset="1" stop-color="#49FFAA" stop-opacity="0"/>
</linearGradient>
</defs>
</svg>
