<svg width="1680" height="342" viewBox="0 0 1680 342" fill="none" xmlns="http://www.w3.org/2000/svg">
<path d="M-3.97461 258.197L842.867 112.309L1694.37 251.197" stroke="url(#paint0_radial_4094_91954)" stroke-width="1.1397"/>
<path d="M-3.97461 112.155L842.867 141.276L1694.37 112.155" stroke="url(#paint1_radial_4094_91954)" stroke-width="1.1397"/>
<path d="M320.867 48.3901L843.759 141.276L1369.53 48.3901" stroke="url(#paint2_radial_4094_91954)" stroke-width="1.1397"/>
<path d="M208.582 78.2646L843.45 142.984L1481.81 78.2646" stroke="url(#paint3_radial_4094_91954)" stroke-width="1.1397"/>
<path d="M-3.97461 134.211L842.867 141.276L1694.37 134.211" stroke="url(#paint4_radial_4094_91954)" stroke-width="1.1397"/>
<path d="M297.369 212.727H1399.21L1000.27 146.442C965.387 140.647 934.054 121.706 912.714 93.5151L910.378 90.4295C893.56 68.2123 867.304 55.1577 839.439 55.1577C812.371 55.1577 786.774 67.4803 769.892 88.6392L765.735 93.8487C743.339 121.918 711.436 140.81 676.057 146.955L297.369 212.727Z" fill="url(#paint5_linear_4094_91954)"/>
<path d="M1729.68 215.491L994.897 134.423C962.595 130.859 933.028 114.622 912.688 89.2763V89.2763C895.379 67.7072 869.218 55.1577 841.562 55.1577H840.625C813.747 55.1577 788.238 67.0139 770.91 87.5601V87.5601C749.159 113.351 718.499 130.011 685.025 134.229L-23.5762 223.505" stroke="url(#paint6_linear_4094_91954)" stroke-width="1.1397"/>
<path d="M1703.35 264.156L990.408 144.755C957.027 139.164 927.307 120.36 907.96 92.5888V92.5888C891.475 68.9256 866.559 55.1577 840.22 55.1577H839.328C813.73 55.1577 789.435 68.165 772.932 90.7059V90.7059C752.263 118.938 721.458 138.062 686.987 144.063L210.471 227.015" stroke="url(#paint7_linear_4094_91954)" stroke-width="1.1397"/>
<path d="M1001.83 166.188L1706.22 308.834M677.991 164.364L10.0508 308.834M969.21 166.188L1502.36 308.834M721.294 164.364L213.913 308.834" stroke="url(#paint8_linear_4094_91954)" stroke-width="1.1397"/>
<g filter="url(#filter0_f_4094_91954)">
<path d="M737.082 127.67L770.909 87.5601C788.237 67.0139 813.746 55.1577 840.624 55.1577H841.561C869.216 55.1577 895.378 67.7072 912.687 89.2763L944.451 128.858" stroke="url(#paint9_linear_4094_91954)" stroke-width="1.1397"/>
</g>
<g filter="url(#filter1_f_4094_91954)">
<path d="M905.883 82.2645C890.235 60.6953 866.585 48.3901 841.584 48.3901H840.737C816.44 48.3901 793.379 60.2464 777.715 80.7925C794.578 64.7361 817.088 55.7185 840.624 55.7185H841.561C865.801 55.7185 888.893 65.3594 905.883 82.2645Z" fill="#18DB84"/>
</g>
<g filter="url(#filter2_f_4094_91954)">
<path d="M920.648 69.2367C901.395 47.6675 872.295 35.3623 841.534 35.3623H840.491C810.595 35.3623 782.221 47.2185 762.947 67.7647C783.695 51.7082 811.393 39.4336 840.352 39.4336H841.506C871.331 39.4336 899.744 52.3316 920.648 69.2367Z" fill="#092C1C"/>
</g>
<path d="M840.086 72.5381V204.547" stroke="#232323" stroke-width="1.1397"/>
<path d="M906.09 138.542L774.081 138.542" stroke="#232323" stroke-width="1.1397"/>
<circle cx="840.276" cy="138.9" r="65.9995" stroke="#232323" stroke-width="1.1397"/>
<ellipse cx="840.56" cy="151.409" rx="22.6379" ry="5.87385" stroke="#232323" stroke-width="1.1397"/>
<path d="M855.263 138.728C865.393 139.874 872.291 142.146 872.291 144.761C872.291 148.531 857.957 151.587 840.276 151.587C822.594 151.587 808.26 148.531 808.26 144.761C808.26 142.179 814.983 139.932 824.9 138.772" stroke="#232323" stroke-width="1.1397"/>
<ellipse cx="840.278" cy="158.343" rx="14.87" ry="4.35382" stroke="#232323" stroke-width="1.1397"/>
<ellipse cx="840.276" cy="165.289" rx="11.2818" ry="3.03969" stroke="#232323" stroke-width="1.1397"/>
<ellipse cx="840.274" cy="170.187" rx="9.75466" ry="2.4868" stroke="#232323" stroke-width="1.1397"/>
<ellipse cx="840.272" cy="173.967" rx="8.85406" ry="2.04594" stroke="#232323" stroke-width="1.1397"/>
<ellipse cx="840.27" cy="178.692" rx="7.01211" ry="1.77107" stroke="#232323" stroke-width="1.1397"/>
<ellipse cx="840.273" cy="183.143" rx="4.33698" ry="1.28548" stroke="#232323" stroke-width="1.1397"/>
<ellipse cx="840.279" cy="138.899" rx="6.75522" ry="44.7327" transform="rotate(90 840.279 138.899)" stroke="#232323" stroke-width="1.1397"/>
<circle cx="840.273" cy="138.9" r="65.9995" stroke="url(#paint10_linear_4094_91954)" stroke-width="1.1397"/>
<circle cx="840.274" cy="138.9" r="65.9995" transform="rotate(-180 840.274 138.9)" stroke="url(#paint11_linear_4094_91954)" stroke-width="1.1397"/>
<circle cx="840.274" cy="138.9" r="65.9995" transform="rotate(90 840.274 138.9)" stroke="url(#paint12_linear_4094_91954)" stroke-width="1.1397"/>
<circle cx="840.273" cy="138.9" r="65.9995" transform="rotate(-90 840.273 138.9)" stroke="url(#paint13_linear_4094_91954)" stroke-width="1.1397"/>
<g filter="url(#filter3_f_4094_91954)">
<circle cx="840.273" cy="138.9" r="65.9995" stroke="url(#paint14_linear_4094_91954)" stroke-width="1.1397"/>
</g>
<g filter="url(#filter4_f_4094_91954)">
<circle cx="840.274" cy="138.9" r="65.9995" transform="rotate(-180 840.274 138.9)" stroke="url(#paint15_linear_4094_91954)" stroke-width="1.1397"/>
</g>
<g filter="url(#filter5_f_4094_91954)">
<circle cx="840.274" cy="138.9" r="65.9995" transform="rotate(90 840.274 138.9)" stroke="url(#paint16_linear_4094_91954)" stroke-width="1.1397"/>
</g>
<g filter="url(#filter6_f_4094_91954)">
<circle cx="840.273" cy="138.9" r="65.9995" transform="rotate(-90 840.273 138.9)" stroke="url(#paint17_linear_4094_91954)" stroke-width="1.1397"/>
</g>
<g filter="url(#filter7_f_4094_91954)">
<circle cx="840.273" cy="138.9" r="65.9995" stroke="url(#paint18_linear_4094_91954)" stroke-width="1.1397"/>
</g>
<g filter="url(#filter8_f_4094_91954)">
<circle cx="840.274" cy="138.9" r="65.9995" transform="rotate(-180 840.274 138.9)" stroke="url(#paint19_linear_4094_91954)" stroke-width="1.1397"/>
</g>
<g filter="url(#filter9_f_4094_91954)">
<circle cx="840.274" cy="138.9" r="65.9995" transform="rotate(90 840.274 138.9)" stroke="url(#paint20_linear_4094_91954)" stroke-width="1.1397"/>
</g>
<g filter="url(#filter10_f_4094_91954)">
<circle cx="840.273" cy="138.9" r="65.9995" transform="rotate(-90 840.273 138.9)" stroke="url(#paint21_linear_4094_91954)" stroke-width="1.1397"/>
</g>
<g filter="url(#filter11_f_4094_91954)">
<path fill-rule="evenodd" clip-rule="evenodd" d="M840.086 122.53C841.038 122.53 841.884 123.14 842.184 124.043L843.133 126.893V126.893C843.829 128.979 845.001 130.875 846.556 132.43C848.11 133.985 850.006 135.156 852.092 135.852V135.852L854.942 136.801C855.846 137.102 856.455 137.947 856.455 138.899C856.455 139.852 855.846 140.697 854.942 140.998L852.092 141.947V141.947C850.006 142.642 848.11 143.814 846.556 145.369C845.001 146.924 843.829 148.82 843.134 150.906V150.906L842.184 153.755C841.884 154.659 841.038 155.268 840.086 155.268C839.134 155.268 838.288 154.659 837.987 153.755L837.038 150.906V150.906C836.343 148.82 835.171 146.924 833.616 145.369C832.061 143.814 830.165 142.642 828.079 141.947L825.23 140.998C824.326 140.697 823.717 139.852 823.717 138.899C823.717 137.947 824.326 137.102 825.23 136.801L828.079 135.852C830.166 135.156 832.061 133.985 833.616 132.43C835.171 130.875 836.343 128.979 837.038 126.892L837.987 124.043C838.288 123.14 839.134 122.53 840.086 122.53ZM840.086 131.002C839.213 132.677 838.088 134.214 836.744 135.558C835.401 136.901 833.863 138.027 832.188 138.899C833.863 139.772 835.401 140.897 836.744 142.241C838.088 143.584 839.213 145.122 840.086 146.797C840.959 145.122 842.084 143.584 843.427 142.241C844.771 140.897 846.308 139.772 847.983 138.899C846.308 138.027 844.771 136.901 843.427 135.558C842.084 134.214 840.958 132.677 840.086 131.002Z" fill="url(#paint22_linear_4094_91954)"/>
<path d="M828.158 141.71L828.158 141.71L825.309 140.761C824.507 140.494 823.967 139.744 823.967 138.899C823.967 138.055 824.507 137.305 825.309 137.038L828.158 136.089L828.158 136.089C830.281 135.381 832.211 134.189 833.793 132.606C835.375 131.024 836.568 129.095 837.276 126.971L837.276 126.971L838.225 124.122C838.491 123.321 839.241 122.78 840.086 122.78C840.931 122.78 841.68 123.321 841.947 124.122L842.896 126.972L843.133 126.893L842.896 126.972C843.604 129.095 844.796 131.024 846.379 132.606C847.961 134.189 849.89 135.381 852.013 136.089L852.092 135.852L852.013 136.089L854.863 137.038C855.664 137.305 856.205 138.055 856.205 138.899C856.205 139.744 855.664 140.494 854.863 140.761L852.013 141.71L852.092 141.947L852.013 141.71C849.891 142.418 847.961 143.61 846.379 145.192C844.797 146.775 843.604 148.704 842.896 150.827L843.134 150.906L842.896 150.827L841.947 153.676C841.68 154.478 840.931 155.018 840.086 155.018C839.241 155.018 838.491 154.478 838.225 153.676L837.275 150.827L837.038 150.906L837.275 150.827C836.568 148.704 835.375 146.775 833.793 145.192C832.211 143.61 830.281 142.417 828.158 141.71ZM840.308 130.886C840.265 130.804 840.179 130.752 840.086 130.752C839.993 130.752 839.907 130.804 839.864 130.886C839.003 132.539 837.893 134.056 836.568 135.381C835.242 136.707 833.725 137.817 832.073 138.678C831.99 138.721 831.938 138.806 831.938 138.899C831.938 138.993 831.99 139.078 832.073 139.121C833.725 139.982 835.242 141.092 836.568 142.418C837.893 143.743 839.003 145.26 839.864 146.912C839.907 146.995 839.993 147.047 840.086 147.047C840.179 147.047 840.265 146.995 840.308 146.912C841.169 145.26 842.279 143.743 843.604 142.418C844.93 141.092 846.446 139.982 848.099 139.121C848.181 139.078 848.233 138.993 848.233 138.899C848.233 138.806 848.181 138.721 848.099 138.678C846.446 137.817 844.93 136.706 843.604 135.381C842.279 134.056 841.168 132.539 840.308 130.886Z" stroke="url(#paint23_linear_4094_91954)" stroke-width="0.5" stroke-miterlimit="10" stroke-linejoin="round"/>
</g>
<path d="M828.158 141.71L828.158 141.71L825.309 140.761C824.507 140.494 823.967 139.744 823.967 138.899C823.967 138.055 824.507 137.305 825.309 137.038L828.158 136.089L828.158 136.089C830.281 135.381 832.211 134.189 833.793 132.606C835.375 131.024 836.568 129.095 837.276 126.971L837.276 126.971L838.225 124.122C838.491 123.321 839.241 122.78 840.086 122.78C840.931 122.78 841.68 123.321 841.947 124.122L842.896 126.972L843.133 126.893L842.896 126.972C843.604 129.095 844.796 131.024 846.379 132.606C847.961 134.189 849.89 135.381 852.013 136.089L852.092 135.852L852.013 136.089L854.863 137.038C855.664 137.305 856.205 138.055 856.205 138.899C856.205 139.744 855.664 140.494 854.863 140.761L852.013 141.71L852.092 141.947L852.013 141.71C849.891 142.418 847.961 143.61 846.379 145.192C844.796 146.775 843.604 148.704 842.896 150.827L843.134 150.906L842.896 150.827L841.947 153.677C841.68 154.478 840.931 155.018 840.086 155.018C839.241 155.018 838.491 154.478 838.225 153.677L837.275 150.827L837.038 150.906L837.275 150.827C836.568 148.704 835.375 146.775 833.793 145.192C832.211 143.61 830.281 142.417 828.158 141.71ZM840.308 130.886C840.265 130.804 840.179 130.752 840.086 130.752C839.993 130.752 839.907 130.804 839.864 130.886C839.003 132.539 837.893 134.056 836.568 135.381C835.242 136.707 833.725 137.817 832.073 138.678C831.99 138.721 831.938 138.806 831.938 138.899C831.938 138.993 831.99 139.078 832.073 139.121C833.725 139.982 835.242 141.092 836.568 142.418C837.893 143.743 839.003 145.26 839.864 146.912C839.907 146.995 839.993 147.047 840.086 147.047C840.179 147.047 840.265 146.995 840.308 146.912C841.169 145.26 842.279 143.743 843.604 142.418C844.93 141.092 846.446 139.982 848.099 139.121C848.181 139.078 848.233 138.993 848.233 138.899C848.233 138.806 848.181 138.721 848.099 138.678C846.446 137.817 844.93 136.706 843.604 135.381C842.279 134.056 841.168 132.539 840.308 130.886Z" fill="url(#paint24_linear_4094_91954)" stroke="url(#paint25_linear_4094_91954)" stroke-width="0.5" stroke-miterlimit="10" stroke-linejoin="round"/>
<path d="M847.248 79.1731C851.376 105.424 871.992 126.2 898.163 130.567C902.378 131.27 905.766 134.73 905.766 139.003C905.766 143.277 902.378 146.736 898.163 147.44C871.931 151.817 851.279 172.681 847.219 199.019C846.7 202.39 843.92 205.065 840.509 205.065C837.099 205.065 834.318 202.39 833.799 199.019C829.695 172.39 808.63 151.357 781.986 147.301C777.793 146.662 774.402 143.244 774.402 139.003C774.402 134.763 777.793 131.344 781.986 130.706C808.568 126.659 829.597 105.714 833.77 79.1729C834.301 75.7955 837.09 73.1191 840.509 73.1191C843.928 73.1191 846.717 75.7957 847.248 79.1731Z" stroke="url(#paint26_radial_4094_91954)" stroke-width="1.1397"/>
<g filter="url(#filter12_f_4094_91954)">
<path d="M847.248 79.1731C851.376 105.424 871.992 126.2 898.163 130.567C902.378 131.27 905.766 134.73 905.766 139.003C905.766 143.277 902.378 146.736 898.163 147.44C871.931 151.817 851.279 172.681 847.219 199.019C846.7 202.39 843.92 205.065 840.509 205.065C837.099 205.065 834.318 202.39 833.799 199.019C829.695 172.39 808.63 151.357 781.986 147.301C777.793 146.662 774.402 143.244 774.402 139.003C774.402 134.763 777.793 131.344 781.986 130.706C808.568 126.659 829.597 105.714 833.77 79.1729C834.301 75.7955 837.09 73.1191 840.509 73.1191C843.928 73.1191 846.717 75.7957 847.248 79.1731Z" stroke="url(#paint27_radial_4094_91954)" stroke-width="4.5588"/>
</g>
<path d="M901.54 146.162C871.769 147.423 847.809 171.146 846.172 200.819M901.54 131.855C871.824 130.596 847.898 106.96 846.181 77.3643M834.786 77.3643C833.053 107.224 808.715 131.017 778.631 131.884M778.631 146.133C808.771 147.002 833.144 170.882 834.795 200.819" stroke="url(#paint28_radial_4094_91954)" stroke-width="1.1397"/>
<path d="M872.104 144.762C872.104 148.532 857.77 151.588 840.088 151.588C822.406 151.588 808.072 148.532 808.072 144.762" stroke="url(#paint29_linear_4094_91954)" stroke-width="1.1397"/>
<path d="M862.725 151.409C862.725 154.653 852.59 157.283 840.087 157.283C827.585 157.283 817.449 154.653 817.449 151.409" stroke="url(#paint30_linear_4094_91954)" stroke-width="1.1397"/>
<path d="M854.955 158.343C854.955 160.747 848.297 162.697 840.085 162.697C831.872 162.697 825.215 160.747 825.215 158.343" stroke="url(#paint31_linear_4094_91954)" stroke-width="1.1397"/>
<path d="M849.841 170.187C849.841 171.56 845.474 172.673 840.087 172.673C834.699 172.673 830.332 171.56 830.332 170.187" stroke="url(#paint32_linear_4094_91954)" stroke-width="1.1397"/>
<path d="M848.941 173.966C848.941 175.096 844.976 176.012 840.086 176.012C835.197 176.012 831.232 175.096 831.232 173.966" stroke="url(#paint33_linear_4094_91954)" stroke-width="1.1397"/>
<path d="M847.1 178.692C847.1 179.671 843.961 180.463 840.088 180.463C836.216 180.463 833.076 179.671 833.076 178.692" stroke="url(#paint34_linear_4094_91954)" stroke-width="1.1397"/>
<path d="M844.424 183.144C844.424 183.854 842.482 184.43 840.087 184.43C837.692 184.43 835.75 183.854 835.75 183.144" stroke="url(#paint35_linear_4094_91954)" stroke-width="1.1397"/>
<path d="M851.368 165.289C851.368 166.968 846.317 168.329 840.086 168.329C833.856 168.329 828.805 166.968 828.805 165.289" stroke="url(#paint36_linear_4094_91954)" stroke-width="1.1397"/>
<path d="M795.353 138.899C795.353 142.63 815.381 145.654 840.086 145.654C864.791 145.654 884.818 142.63 884.818 138.899" stroke="url(#paint37_linear_4094_91954)" stroke-width="1.1397"/>
<g filter="url(#filter13_f_4094_91954)">
<ellipse cx="303.093" cy="68.9323" rx="303.093" ry="68.9323" transform="matrix(1 -0.000779452 -0.000779452 -1 521.199 296.397)" fill="#161616"/>
</g>
<path opacity="0.5" d="M1361.74 93.1979L1360.2 93.3566L1359.43 85.9321L1360.97 85.7734L1361.03 86.3782L1360.15 86.4695L1360.79 92.6923L1361.68 92.6011L1361.74 93.1979ZM1362.56 89.3169C1362.64 90.1047 1362.84 90.6469 1363.19 90.9411C1363.41 91.1274 1363.67 91.2285 1364.04 91.1906C1364.41 91.1528 1364.65 90.9992 1364.83 90.7717C1365.1 90.4134 1365.19 89.8416 1365.11 89.0538C1365.02 88.266 1364.82 87.7237 1364.48 87.4295C1364.26 87.2432 1363.99 87.1422 1363.63 87.18C1363.26 87.2178 1363.02 87.3714 1362.84 87.5989C1362.56 87.9572 1362.48 88.5291 1362.56 89.3169ZM1361.79 89.3966C1361.71 88.6884 1361.77 88.0235 1362.06 87.4789C1362.34 86.943 1362.82 86.5633 1363.55 86.4877C1364.29 86.412 1364.84 86.6849 1365.22 87.1517C1365.62 87.6256 1365.8 88.2658 1365.88 88.974C1365.95 89.6822 1365.9 90.3471 1365.61 90.8917C1365.33 91.4276 1364.84 91.8073 1364.11 91.8829C1363.38 91.9586 1362.83 91.6858 1362.44 91.219C1362.05 90.745 1361.86 90.1048 1361.79 89.3966ZM1366.73 90.977C1366.7 90.6667 1366.91 90.3953 1367.22 90.3633C1367.53 90.3312 1367.8 90.5524 1367.84 90.8628C1367.87 91.1731 1367.65 91.4373 1367.34 91.4694C1367.03 91.5015 1366.76 91.2874 1366.73 90.977ZM1369.2 88.6312C1369.28 89.419 1369.48 89.9612 1369.82 90.2554C1370.04 90.4418 1370.31 90.5428 1370.68 90.5049C1371.04 90.4671 1371.28 90.3135 1371.46 90.086C1371.74 89.7277 1371.82 89.1559 1371.74 88.3681C1371.66 87.5803 1371.46 87.038 1371.12 86.7438C1370.9 86.5575 1370.63 86.4565 1370.26 86.4943C1369.9 86.5321 1369.65 86.6857 1369.48 86.9132C1369.2 87.2715 1369.11 87.8434 1369.2 88.6312ZM1368.42 88.7109C1368.35 88.0027 1368.4 87.3378 1368.69 86.7932C1368.97 86.2573 1369.46 85.8776 1370.19 85.802C1370.92 85.7263 1371.47 85.9992 1371.86 86.466C1372.25 86.9399 1372.44 87.5801 1372.51 88.2883C1372.59 88.9966 1372.54 89.6614 1372.25 90.2061C1371.96 90.7419 1371.48 91.1216 1370.75 91.1973C1370.02 91.2729 1369.46 91.0001 1369.08 90.5333C1368.68 90.0593 1368.5 89.4192 1368.42 88.7109ZM1374.68 88.249L1374.24 87.6439L1375.61 86.0864L1373.14 86.3412L1373.07 85.6251L1376.57 85.2633L1376.64 85.9636L1375.31 87.4764C1376.07 87.3983 1376.96 87.8213 1377.07 88.8796C1377.16 89.747 1376.57 90.6039 1375.37 90.728C1374.17 90.8514 1373.42 90.1414 1373.28 89.3028L1374.03 89.0488C1374.13 89.7299 1374.67 90.1086 1375.29 90.0445C1376 89.9713 1376.33 89.4942 1376.28 88.977C1376.21 88.3006 1375.64 88.07 1375.13 88.1226C1374.97 88.1391 1374.82 88.1873 1374.68 88.249ZM1377.97 89.816C1377.94 89.5296 1378.16 89.2574 1378.49 89.2228C1378.84 89.1875 1379.16 89.4109 1379.22 89.9122C1379.32 90.9626 1378.68 91.471 1378.2 91.5856L1378.16 91.1719C1378.54 91.044 1378.76 90.627 1378.73 90.2442C1378.7 90.2626 1378.64 90.293 1378.56 90.3021C1378.26 90.3325 1378 90.1582 1377.97 89.816ZM1382.3 89.3688C1382.26 89.0585 1382.48 88.7871 1382.79 88.755C1383.1 88.723 1383.37 88.9442 1383.4 89.2545C1383.43 89.5649 1383.21 89.8291 1382.9 89.8612C1382.59 89.8932 1382.33 89.6792 1382.3 89.3688ZM1385.67 89.5353L1384.9 89.6142L1384.53 85.9775L1383.28 86.1066L1383.22 85.5576C1383.94 85.4676 1384.39 85.0188 1384.45 84.4494L1385.13 84.3787L1385.67 89.5353ZM1386.69 88.9152C1386.66 88.6287 1386.88 88.3565 1387.21 88.322C1387.55 88.2866 1387.88 88.51 1387.93 89.0114C1388.04 90.0618 1387.4 90.5701 1386.92 90.6848L1386.87 90.271C1387.26 90.1432 1387.48 89.7261 1387.45 89.3433C1387.42 89.3617 1387.36 89.3921 1387.28 89.4012C1386.98 89.4316 1386.72 89.2573 1386.69 88.9152ZM1392.43 86.8583L1390.27 87.0812L1390.2 86.4286L1392.36 86.2058L1392.43 86.8583ZM1393.89 86.0795C1393.97 86.8673 1394.17 87.4096 1394.52 87.7038C1394.74 87.8901 1395.01 87.9911 1395.37 87.9533C1395.74 87.9155 1395.98 87.7618 1396.16 87.5344C1396.43 87.1761 1396.52 86.6042 1396.44 85.8164C1396.36 85.0286 1396.16 84.4864 1395.81 84.1922C1395.59 84.0058 1395.32 83.9048 1394.96 83.9426C1394.59 83.9805 1394.35 84.1341 1394.17 84.3615C1393.9 84.7199 1393.81 85.2917 1393.89 86.0795ZM1393.12 86.1593C1393.05 85.451 1393.1 84.7862 1393.39 84.2415C1393.67 83.7057 1394.16 83.326 1394.89 83.2503C1395.62 83.1747 1396.17 83.4475 1396.56 83.9143C1396.95 84.3882 1397.14 85.0284 1397.21 85.7367C1397.28 86.4449 1397.23 87.1098 1396.94 87.6544C1396.66 88.1903 1396.18 88.57 1395.44 88.6456C1394.71 88.7212 1394.16 88.4484 1393.78 87.9816C1393.38 87.5077 1393.19 86.8675 1393.12 86.1593ZM1398.06 87.7397C1398.03 87.4293 1398.24 87.158 1398.55 87.1259C1398.87 87.0939 1399.14 87.3151 1399.17 87.6254C1399.2 87.9358 1398.98 88.2 1398.67 88.232C1398.36 88.2641 1398.1 88.05 1398.06 87.7397ZM1400.53 85.3938C1400.61 86.1816 1400.81 86.7239 1401.16 87.0181C1401.38 87.2044 1401.64 87.3054 1402.01 87.2676C1402.38 87.2298 1402.62 87.0761 1402.79 86.8487C1403.07 86.4904 1403.16 85.9185 1403.08 85.1307C1402.99 84.3429 1402.79 83.8007 1402.45 83.5065C1402.23 83.3201 1401.96 83.2191 1401.6 83.257C1401.23 83.2948 1400.99 83.4484 1400.81 83.6759C1400.53 84.0342 1400.45 84.606 1400.53 85.3938ZM1399.76 85.4736C1399.68 84.7653 1399.74 84.1005 1400.03 83.5558C1400.31 83.02 1400.79 82.6403 1401.52 82.5646C1402.26 82.489 1402.81 82.7618 1403.19 83.2286C1403.59 83.7026 1403.77 84.3427 1403.85 85.051C1403.92 85.7592 1403.87 86.4241 1403.58 86.9687C1403.3 87.5046 1402.81 87.8843 1402.08 87.9599C1401.35 88.0356 1400.8 87.7627 1400.41 87.2959C1400.02 86.822 1399.83 86.1818 1399.76 85.4736ZM1406.69 87.3634L1405.92 87.4423L1405.55 83.8057L1404.3 83.9347L1404.24 83.3857C1404.96 83.2958 1405.41 82.8469 1405.47 82.2775L1406.15 82.2068L1406.69 87.3634ZM1409.06 88.309L1407.52 88.4677L1407.46 87.8709L1408.34 87.7796L1407.7 81.5567L1406.82 81.648L1406.75 81.0432L1408.29 80.8845L1409.06 88.309Z" fill="url(#paint38_linear_4094_91954)" fill-opacity="0.37"/>
<path opacity="0.5" d="M163.818 202.602L162.281 202.755L161.544 195.327L163.081 195.175L163.141 195.78L162.257 195.867L162.875 202.093L163.758 202.005L163.818 202.602ZM164.656 198.725C164.734 199.513 164.932 200.056 165.275 200.351C165.495 200.539 165.762 200.641 166.128 200.604C166.495 200.568 166.737 200.416 166.915 200.189C167.193 199.832 167.281 199.26 167.203 198.472C167.125 197.684 166.926 197.141 166.584 196.845C166.364 196.658 166.097 196.556 165.73 196.592C165.364 196.628 165.122 196.781 164.944 197.008C164.666 197.365 164.577 197.937 164.656 198.725ZM163.883 198.801C163.813 198.093 163.868 197.428 164.16 196.885C164.444 196.35 164.929 195.972 165.662 195.9C166.394 195.827 166.944 196.102 167.328 196.57C167.721 197.046 167.905 197.687 167.975 198.395C168.046 199.104 167.991 199.769 167.699 200.312C167.415 200.847 166.929 201.224 166.197 201.297C165.465 201.37 164.915 201.095 164.531 200.626C164.138 200.151 163.954 199.51 163.883 198.801ZM168.819 200.402C168.788 200.091 169.003 199.821 169.313 199.79C169.624 199.759 169.895 199.982 169.926 200.292C169.957 200.603 169.733 200.866 169.423 200.897C169.113 200.928 168.85 200.712 168.819 200.402ZM171.295 198.066C171.373 198.854 171.572 199.397 171.915 199.693C172.134 199.88 172.401 199.982 172.768 199.946C173.134 199.91 173.376 199.757 173.554 199.53C173.833 199.173 173.921 198.602 173.842 197.814C173.764 197.025 173.566 196.482 173.223 196.187C173.003 196 172.736 195.897 172.37 195.934C172.004 195.97 171.761 196.123 171.583 196.349C171.305 196.707 171.217 197.278 171.295 198.066ZM170.523 198.143C170.452 197.434 170.507 196.77 170.799 196.226C171.084 195.691 171.569 195.314 172.301 195.241C173.033 195.169 173.583 195.444 173.967 195.912C174.36 196.388 174.544 197.028 174.615 197.737C174.685 198.446 174.63 199.11 174.338 199.654C174.054 200.188 173.569 200.566 172.836 200.639C172.104 200.711 171.554 200.436 171.17 199.968C170.777 199.492 170.593 198.851 170.523 198.143ZM176.785 197.707L176.339 197.1L177.721 195.548L175.253 195.793L175.182 195.076L178.685 194.729L178.754 195.429L177.416 196.937C178.173 196.862 179.059 197.288 179.164 198.347C179.25 199.215 178.66 200.069 177.457 200.188C176.263 200.307 175.509 199.594 175.378 198.755L176.125 198.504C176.224 199.185 176.761 199.566 177.382 199.505C178.09 199.434 178.429 198.959 178.378 198.441C178.31 197.764 177.741 197.532 177.231 197.582C177.072 197.598 176.916 197.645 176.785 197.707ZM180.061 199.287C180.033 199.001 180.255 198.729 180.589 198.696C180.932 198.662 181.259 198.887 181.309 199.388C181.413 200.439 180.772 200.945 180.285 201.058L180.244 200.644C180.625 200.517 180.849 200.101 180.819 199.718C180.797 199.737 180.736 199.767 180.648 199.776C180.353 199.805 180.095 199.629 180.061 199.287ZM184.391 198.858C184.36 198.547 184.575 198.277 184.885 198.246C185.196 198.215 185.467 198.437 185.498 198.748C185.529 199.058 185.306 199.322 184.995 199.353C184.685 199.383 184.422 199.168 184.391 198.858ZM187.761 199.038L186.997 199.114L186.636 195.476L185.386 195.6L185.332 195.05C186.047 194.963 186.501 194.516 186.565 193.947L187.25 193.879L187.761 199.038ZM188.784 198.422C188.755 198.135 188.978 197.864 189.312 197.831C189.654 197.797 189.982 198.022 190.032 198.523C190.136 199.574 189.495 200.08 189.008 200.193L188.967 199.779C189.348 199.652 189.572 199.236 189.542 198.853C189.52 198.872 189.458 198.902 189.371 198.911C189.076 198.94 188.818 198.764 188.784 198.422ZM194.532 196.389L192.375 196.603L192.31 195.95L194.468 195.736L194.532 196.389ZM196.002 195.616C196.08 196.404 196.279 196.947 196.621 197.243C196.841 197.43 197.108 197.532 197.475 197.496C197.841 197.46 198.083 197.307 198.261 197.08C198.54 196.723 198.628 196.152 198.549 195.363C198.471 194.575 198.273 194.032 197.93 193.737C197.71 193.549 197.443 193.447 197.077 193.484C196.71 193.52 196.468 193.673 196.29 193.899C196.012 194.256 195.924 194.828 196.002 195.616ZM195.23 195.693C195.159 194.984 195.214 194.319 195.506 193.776C195.79 193.241 196.276 192.864 197.008 192.791C197.74 192.718 198.29 192.993 198.674 193.462C199.067 193.937 199.251 194.578 199.322 195.287C199.392 195.995 199.337 196.66 199.045 197.203C198.761 197.738 198.276 198.116 197.543 198.189C196.811 198.261 196.261 197.986 195.877 197.518C195.484 197.042 195.3 196.401 195.23 195.693ZM200.165 197.293C200.135 196.983 200.349 196.712 200.66 196.682C200.97 196.651 201.241 196.873 201.272 197.184C201.303 197.494 201.08 197.757 200.769 197.788C200.459 197.819 200.196 197.604 200.165 197.293ZM202.641 194.958C202.719 195.746 202.918 196.289 203.261 196.584C203.48 196.772 203.748 196.874 204.114 196.838C204.48 196.801 204.722 196.649 204.901 196.422C205.179 196.065 205.267 195.493 205.189 194.705C205.111 193.917 204.912 193.374 204.569 193.078C204.35 192.891 204.082 192.789 203.716 192.825C203.35 192.861 203.108 193.014 202.929 193.241C202.651 193.598 202.563 194.17 202.641 194.958ZM201.869 195.034C201.799 194.326 201.853 193.661 202.145 193.118C202.43 192.583 202.915 192.205 203.647 192.133C204.38 192.06 204.93 192.335 205.314 192.803C205.706 193.279 205.891 193.92 205.961 194.628C206.031 195.337 205.976 196.002 205.685 196.545C205.4 197.08 204.915 197.457 204.183 197.53C203.45 197.603 202.9 197.328 202.516 196.859C202.123 196.384 201.939 195.743 201.869 195.034ZM208.791 196.952L208.027 197.028L207.666 193.39L206.416 193.514L206.362 192.965C207.077 192.878 207.531 192.431 207.595 191.862L208.279 191.794L208.791 196.952ZM211.155 197.908L209.619 198.06L209.56 197.463L210.443 197.376L209.826 191.15L208.942 191.238L208.882 190.633L210.419 190.48L211.155 197.908Z" fill="url(#paint39_linear_4094_91954)" fill-opacity="0.37"/>
<path opacity="0.5" d="M586.742 185.553L585.223 185.829L583.886 178.486L585.405 178.21L585.514 178.808L584.64 178.967L585.761 185.122L586.635 184.963L586.742 185.553ZM587.263 181.62C587.405 182.399 587.647 182.924 588.012 183.191C588.246 183.36 588.521 183.44 588.883 183.374C589.245 183.308 589.474 183.136 589.634 182.896C589.882 182.517 589.923 181.941 589.781 181.161C589.639 180.382 589.397 179.857 589.032 179.59C588.798 179.421 588.523 179.341 588.161 179.407C587.799 179.473 587.57 179.645 587.41 179.885C587.162 180.264 587.121 180.841 587.263 181.62ZM586.499 181.759C586.372 181.058 586.372 180.392 586.619 179.826C586.859 179.27 587.312 178.854 588.036 178.723C588.76 178.591 589.331 178.82 589.752 179.256C590.182 179.698 590.417 180.322 590.545 181.022C590.672 181.723 590.672 182.39 590.425 182.955C590.185 183.511 589.732 183.927 589.008 184.059C588.284 184.191 587.713 183.961 587.293 183.525C586.862 183.083 586.627 182.459 586.499 181.759ZM591.549 182.954C591.493 182.647 591.685 182.36 591.991 182.304C592.298 182.248 592.587 182.448 592.643 182.755C592.699 183.062 592.498 183.342 592.191 183.398C591.884 183.454 591.605 183.261 591.549 182.954ZM593.827 180.425C593.969 181.204 594.211 181.729 594.576 181.996C594.81 182.165 595.085 182.245 595.447 182.179C595.809 182.113 596.038 181.941 596.198 181.701C596.446 181.322 596.487 180.746 596.345 179.966C596.203 179.187 595.961 178.662 595.596 178.395C595.362 178.226 595.087 178.146 594.725 178.212C594.363 178.278 594.134 178.45 593.974 178.69C593.726 179.069 593.685 179.646 593.827 180.425ZM593.063 180.564C592.936 179.863 592.936 179.197 593.183 178.631C593.423 178.075 593.876 177.659 594.6 177.528C595.324 177.396 595.895 177.625 596.316 178.061C596.746 178.503 596.981 179.127 597.109 179.827C597.236 180.528 597.236 181.195 596.989 181.76C596.749 182.316 596.296 182.732 595.572 182.864C594.848 182.996 594.277 182.766 593.856 182.33C593.426 181.888 593.191 181.264 593.063 180.564ZM599.27 179.621L598.776 179.052L600.027 177.393L597.587 177.838L597.458 177.129L600.921 176.499L601.047 177.191L599.836 178.802C600.584 178.666 601.502 179.019 601.693 180.066C601.849 180.924 601.33 181.824 600.141 182.04C598.961 182.255 598.151 181.605 597.952 180.78L598.676 180.469C598.831 181.14 599.396 181.476 600.01 181.365C600.71 181.237 601.009 180.735 600.916 180.224C600.795 179.555 600.208 179.369 599.704 179.461C599.547 179.489 599.395 179.549 599.27 179.621ZM602.663 180.93C602.611 180.647 602.811 180.359 603.141 180.298C603.48 180.237 603.825 180.434 603.915 180.93C604.104 181.969 603.506 182.525 603.03 182.677L602.955 182.268C603.325 182.111 603.515 181.678 603.454 181.299C603.433 181.319 603.374 181.354 603.288 181.37C602.996 181.423 602.725 181.269 602.663 180.93ZM606.944 180.151C606.888 179.844 607.08 179.557 607.387 179.501C607.694 179.445 607.982 179.645 608.038 179.952C608.094 180.259 607.893 180.539 607.586 180.595C607.279 180.651 607 180.458 606.944 180.151ZM610.318 180.057L609.562 180.195L608.907 176.598L607.672 176.823L607.573 176.28C608.278 176.135 608.695 175.653 608.712 175.08L609.389 174.957L610.318 180.057ZM611.287 179.36C611.235 179.077 611.435 178.789 611.765 178.728C612.104 178.667 612.449 178.864 612.539 179.36C612.728 180.399 612.13 180.955 611.654 181.107L611.579 180.698C611.949 180.541 612.138 180.108 612.078 179.729C612.057 179.749 611.998 179.784 611.912 179.8C611.62 179.853 611.348 179.699 611.287 179.36ZM616.851 176.867L614.718 177.256L614.601 176.61L616.734 176.222L616.851 176.867ZM618.253 175.978C618.395 176.757 618.637 177.282 619.003 177.549C619.237 177.718 619.512 177.798 619.874 177.732C620.236 177.666 620.465 177.494 620.624 177.254C620.872 176.875 620.914 176.299 620.772 175.519C620.63 174.74 620.388 174.215 620.022 173.948C619.788 173.779 619.514 173.699 619.152 173.765C618.789 173.831 618.561 174.003 618.401 174.243C618.153 174.622 618.111 175.199 618.253 175.978ZM617.49 176.117C617.362 175.416 617.363 174.749 617.61 174.184C617.85 173.628 618.303 173.212 619.027 173.08C619.751 172.949 620.321 173.178 620.742 173.614C621.172 174.056 621.408 174.68 621.535 175.38C621.663 176.081 621.662 176.748 621.416 177.313C621.175 177.869 620.722 178.285 619.998 178.417C619.274 178.549 618.704 178.319 618.283 177.883C617.853 177.441 617.617 176.817 617.49 176.117ZM622.539 177.312C622.483 177.005 622.675 176.718 622.982 176.662C623.289 176.606 623.577 176.806 623.633 177.113C623.689 177.42 623.488 177.7 623.181 177.756C622.874 177.812 622.595 177.619 622.539 177.312ZM624.817 174.783C624.959 175.562 625.201 176.087 625.567 176.354C625.801 176.523 626.076 176.603 626.438 176.537C626.8 176.471 627.029 176.299 627.188 176.059C627.436 175.68 627.478 175.103 627.336 174.324C627.194 173.545 626.952 173.02 626.586 172.753C626.352 172.584 626.078 172.504 625.716 172.57C625.353 172.636 625.125 172.808 624.965 173.048C624.717 173.427 624.675 174.004 624.817 174.783ZM624.054 174.922C623.926 174.221 623.927 173.554 624.174 172.989C624.414 172.433 624.867 172.017 625.591 171.885C626.315 171.754 626.885 171.983 627.306 172.419C627.736 172.861 627.972 173.485 628.099 174.185C628.227 174.886 628.226 175.553 627.98 176.118C627.739 176.674 627.286 177.09 626.562 177.222C625.838 177.354 625.268 177.124 624.847 176.688C624.417 176.246 624.181 175.622 624.054 174.922ZM631.109 176.272L630.353 176.41L629.698 172.813L628.463 173.038L628.364 172.495C629.069 172.35 629.486 171.868 629.503 171.295L630.18 171.172L631.109 176.272ZM633.543 177.032L632.024 177.309L631.916 176.719L632.79 176.56L631.669 170.405L630.796 170.564L630.687 169.966L632.206 169.689L633.543 177.032Z" fill="url(#paint40_linear_4094_91954)" fill-opacity="0.37"/>
<path opacity="0.5" d="M1290.21 229.827L1288.69 229.53L1290.13 222.206L1291.64 222.504L1291.53 223.1L1290.66 222.929L1289.45 229.067L1290.32 229.239L1290.21 229.827ZM1292.13 226.357C1291.97 227.134 1292.01 227.711 1292.25 228.093C1292.41 228.336 1292.63 228.511 1292.99 228.582C1293.36 228.653 1293.63 228.577 1293.87 228.411C1294.24 228.15 1294.49 227.628 1294.64 226.851C1294.79 226.074 1294.76 225.496 1294.52 225.114C1294.36 224.872 1294.13 224.697 1293.77 224.626C1293.41 224.555 1293.14 224.631 1292.9 224.796C1292.53 225.058 1292.28 225.58 1292.13 226.357ZM1291.37 226.207C1291.5 225.509 1291.75 224.888 1292.18 224.452C1292.61 224.022 1293.18 223.801 1293.91 223.943C1294.63 224.085 1295.08 224.507 1295.31 225.066C1295.55 225.635 1295.54 226.302 1295.4 227C1295.26 227.699 1295.02 228.32 1294.58 228.756C1294.16 229.185 1293.58 229.407 1292.86 229.265C1292.14 229.123 1291.69 228.701 1291.46 228.141C1291.22 227.573 1291.23 226.906 1291.37 226.207ZM1295.63 229.165C1295.69 228.859 1295.97 228.662 1296.28 228.722C1296.59 228.782 1296.78 229.073 1296.72 229.38C1296.66 229.686 1296.37 229.873 1296.06 229.813C1295.76 229.753 1295.57 229.471 1295.63 229.165ZM1298.67 227.644C1298.52 228.421 1298.55 228.998 1298.8 229.38C1298.95 229.623 1299.18 229.798 1299.54 229.869C1299.9 229.94 1300.18 229.863 1300.41 229.698C1300.78 229.436 1301.03 228.915 1301.19 228.137C1301.34 227.36 1301.31 226.783 1301.06 226.401C1300.91 226.158 1300.68 225.983 1300.32 225.912C1299.96 225.841 1299.68 225.918 1299.45 226.083C1299.08 226.345 1298.83 226.867 1298.67 227.644ZM1297.91 227.494C1298.05 226.795 1298.29 226.175 1298.73 225.739C1299.16 225.309 1299.73 225.088 1300.45 225.23C1301.18 225.371 1301.62 225.794 1301.85 226.353C1302.09 226.922 1302.08 227.588 1301.95 228.287C1301.81 228.986 1301.57 229.606 1301.13 230.042C1300.7 230.472 1300.13 230.694 1299.41 230.552C1298.68 230.41 1298.24 229.988 1298.01 229.428C1297.77 228.86 1297.78 228.193 1297.91 227.494ZM1304.03 228.885L1303.78 228.175L1305.55 227.088L1303.12 226.61L1303.26 225.903L1306.71 226.582L1306.58 227.273L1304.86 228.33C1305.61 228.476 1306.33 229.141 1306.13 230.185C1305.96 231.04 1305.15 231.688 1303.96 231.455C1302.78 231.224 1302.27 230.323 1302.38 229.482L1303.17 229.457C1303.07 230.138 1303.47 230.658 1304.09 230.778C1304.78 230.916 1305.25 230.558 1305.35 230.048C1305.48 229.381 1305 228.993 1304.5 228.894C1304.34 228.863 1304.18 228.864 1304.03 228.885ZM1306.71 231.344C1306.77 231.061 1307.06 230.866 1307.39 230.931C1307.73 230.997 1307.98 231.307 1307.88 231.801C1307.68 232.837 1306.92 233.136 1306.42 233.104L1306.5 232.695C1306.9 232.685 1307.23 232.351 1307.32 231.976C1307.29 231.987 1307.22 231.998 1307.14 231.981C1306.84 231.924 1306.65 231.681 1306.71 231.344ZM1310.98 232.183C1311.04 231.877 1311.33 231.68 1311.63 231.74C1311.94 231.8 1312.14 232.091 1312.08 232.398C1312.01 232.704 1311.73 232.891 1311.42 232.831C1311.11 232.771 1310.92 232.489 1310.98 232.183ZM1314.16 233.329L1313.4 233.181L1314.11 229.593L1312.88 229.351L1312.98 228.81C1313.69 228.933 1314.26 228.636 1314.48 228.109L1315.16 228.242L1314.16 233.329ZM1315.32 233.034C1315.37 232.752 1315.66 232.556 1315.99 232.621C1316.33 232.687 1316.58 232.997 1316.48 233.492C1316.28 234.528 1315.52 234.827 1315.02 234.794L1315.1 234.386C1315.5 234.375 1315.83 234.042 1315.92 233.666C1315.89 233.677 1315.82 233.689 1315.74 233.672C1315.45 233.614 1315.25 233.372 1315.32 233.034ZM1321.41 232.748L1319.28 232.33L1319.41 231.686L1321.53 232.104L1321.41 232.748ZM1323.04 232.432C1322.88 233.209 1322.92 233.787 1323.16 234.169C1323.32 234.411 1323.54 234.586 1323.9 234.657C1324.26 234.728 1324.54 234.652 1324.78 234.486C1325.15 234.225 1325.4 233.703 1325.55 232.926C1325.7 232.149 1325.67 231.572 1325.42 231.19C1325.27 230.947 1325.04 230.772 1324.68 230.701C1324.32 230.63 1324.04 230.706 1323.81 230.872C1323.44 231.133 1323.19 231.655 1323.04 232.432ZM1322.27 232.283C1322.41 231.584 1322.66 230.963 1323.09 230.527C1323.52 230.098 1324.09 229.876 1324.82 230.018C1325.54 230.16 1325.98 230.582 1326.22 231.141C1326.46 231.71 1326.45 232.377 1326.31 233.076C1326.17 233.774 1325.93 234.395 1325.49 234.831C1325.06 235.261 1324.49 235.482 1323.77 235.34C1323.05 235.198 1322.6 234.776 1322.37 234.217C1322.13 233.648 1322.14 232.981 1322.27 232.283ZM1326.54 235.24C1326.6 234.934 1326.88 234.737 1327.19 234.797C1327.49 234.857 1327.69 235.149 1327.63 235.455C1327.57 235.761 1327.28 235.949 1326.97 235.888C1326.67 235.828 1326.48 235.546 1326.54 235.24ZM1329.58 233.719C1329.43 234.496 1329.46 235.073 1329.71 235.455C1329.86 235.698 1330.09 235.873 1330.45 235.944C1330.81 236.015 1331.09 235.939 1331.32 235.773C1331.69 235.512 1331.94 234.99 1332.09 234.213C1332.25 233.436 1332.21 232.858 1331.97 232.476C1331.82 232.234 1331.59 232.059 1331.23 231.988C1330.87 231.917 1330.59 231.993 1330.35 232.158C1329.98 232.42 1329.74 232.942 1329.58 233.719ZM1328.82 233.569C1328.96 232.871 1329.2 232.25 1329.64 231.814C1330.07 231.384 1330.64 231.163 1331.36 231.305C1332.08 231.447 1332.53 231.869 1332.76 232.428C1333 232.997 1332.99 233.664 1332.86 234.362C1332.72 235.061 1332.47 235.682 1332.04 236.118C1331.61 236.547 1331.04 236.769 1330.32 236.627C1329.59 236.485 1329.15 236.063 1328.91 235.503C1328.68 234.935 1328.68 234.268 1328.82 233.569ZM1334.89 237.405L1334.14 237.256L1334.85 233.669L1333.61 233.427L1333.72 232.885C1334.43 233.008 1334.99 232.712 1335.22 232.185L1335.89 232.318L1334.89 237.405ZM1336.88 239.002L1335.37 238.704L1335.48 238.115L1336.35 238.287L1337.56 232.148L1336.69 231.977L1336.81 231.38L1338.32 231.678L1336.88 239.002Z" fill="url(#paint41_linear_4094_91954)" fill-opacity="0.37"/>
<path opacity="0.5" d="M413.992 67.5861L412.47 67.3276L413.719 59.9689L415.241 60.2274L415.14 60.8268L414.264 60.6782L413.217 66.8459L414.092 66.9945L413.992 67.5861ZM415.824 64.067C415.691 64.8478 415.739 65.424 415.992 65.7997C416.154 66.0382 416.385 66.2072 416.748 66.2689C417.111 66.3305 417.385 66.2471 417.617 66.0755C417.979 65.8044 418.215 65.2764 418.347 64.4956C418.48 63.7148 418.432 63.1386 418.179 62.7629C418.017 62.5244 417.786 62.3554 417.423 62.2937C417.06 62.2321 416.786 62.3155 416.554 62.4871C416.192 62.7582 415.956 63.2862 415.824 64.067ZM415.059 63.9371C415.178 63.2352 415.406 62.6085 415.831 62.1613C416.246 61.7207 416.814 61.4844 417.54 61.6076C418.265 61.7308 418.723 62.1412 418.97 62.6943C419.223 63.2567 419.232 63.9235 419.113 64.6255C418.993 65.3274 418.765 65.9541 418.34 66.4013C417.925 66.8419 417.357 67.0782 416.632 66.955C415.906 66.8318 415.448 66.4214 415.201 65.8683C414.948 65.3059 414.939 64.6391 415.059 63.9371ZM419.397 66.7836C419.449 66.476 419.727 66.2716 420.035 66.3239C420.343 66.3761 420.546 66.6621 420.493 66.9697C420.441 67.2773 420.156 67.4724 419.849 67.4202C419.541 67.368 419.345 67.0912 419.397 66.7836ZM422.401 65.1839C422.269 65.9648 422.317 66.541 422.57 66.9166C422.732 67.1551 422.963 67.3242 423.326 67.3858C423.689 67.4474 423.962 67.364 424.194 67.1924C424.557 66.9213 424.793 66.3933 424.925 65.6125C425.058 64.8317 425.01 64.2555 424.757 63.8799C424.595 63.6413 424.364 63.4723 424.001 63.4107C423.638 63.3491 423.364 63.4324 423.132 63.604C422.77 63.8751 422.534 64.4031 422.401 65.1839ZM421.636 65.054C421.755 64.3521 421.984 63.7254 422.408 63.2782C422.824 62.8376 423.392 62.6013 424.117 62.7245C424.843 62.8477 425.301 63.2581 425.548 63.8112C425.801 64.3736 425.809 65.0404 425.69 65.7424C425.571 66.4443 425.343 67.071 424.918 67.5182C424.502 67.9588 423.935 68.1951 423.209 68.0719C422.484 67.9487 422.026 67.5383 421.779 66.9852C421.526 66.4228 421.517 65.756 421.636 65.054ZM427.792 66.2859L427.522 65.5828L429.264 64.4504L426.819 64.0353L426.94 63.3254L430.41 63.9147L430.292 64.6087L428.604 65.7097C429.353 65.8369 430.096 66.4823 429.917 67.5313C429.771 68.391 428.976 69.0593 427.785 68.8571C426.602 68.6562 426.063 67.7694 426.158 66.9254L426.944 66.8804C426.861 67.5641 427.278 68.073 427.893 68.1775C428.595 68.2966 429.047 67.9271 429.134 67.4145C429.248 66.7441 428.76 66.3691 428.255 66.2834C428.097 66.2566 427.934 66.2613 427.792 66.2859ZM430.534 68.6747C430.583 68.3908 430.869 68.1878 431.2 68.244C431.539 68.3016 431.796 68.6049 431.712 69.1018C431.535 70.1429 430.783 70.4615 430.283 70.4416L430.353 70.0315C430.754 70.0103 431.08 69.668 431.152 69.2908C431.126 69.3026 431.059 69.3155 430.972 69.3008C430.68 69.2512 430.477 69.0139 430.534 68.6747ZM434.825 69.4032C434.877 69.0956 435.155 68.8913 435.463 68.9435C435.77 68.9957 435.973 69.2818 435.921 69.5893C435.869 69.8969 435.584 70.092 435.276 70.0398C434.969 69.9876 434.772 69.7108 434.825 69.4032ZM438.028 70.4664L437.271 70.3378L437.883 66.7334L436.644 66.5232L436.737 65.979C437.449 66.0837 438.005 65.7724 438.217 65.2404L438.896 65.3556L438.028 70.4664ZM439.176 70.1421C439.225 69.8582 439.511 69.6552 439.842 69.7115C440.181 69.769 440.438 70.0723 440.354 70.5692C440.177 71.6103 439.425 71.9289 438.925 71.909L438.995 71.4989C439.396 71.4777 439.722 71.1355 439.794 70.7582C439.768 70.77 439.701 70.7829 439.614 70.7682C439.322 70.7186 439.119 70.4813 439.176 70.1421ZM445.258 69.6979L443.12 69.335L443.23 68.6882L445.368 69.0512L445.258 69.6979ZM446.879 69.3403C446.747 70.1211 446.795 70.6973 447.047 71.0729C447.21 71.3115 447.441 71.4805 447.804 71.5421C448.166 71.6037 448.44 71.5204 448.672 71.3488C449.035 71.0777 449.27 70.5497 449.403 69.7688C449.536 68.988 449.487 68.4118 449.235 68.0362C449.072 67.7977 448.841 67.6286 448.479 67.567C448.116 67.5054 447.842 67.5887 447.61 67.7603C447.247 68.0315 447.012 68.5595 446.879 69.3403ZM446.114 69.2104C446.233 68.5084 446.461 67.8818 446.886 67.4346C447.302 66.9939 447.869 66.7576 448.595 66.8808C449.321 67.004 449.778 67.4145 450.025 67.9676C450.279 68.53 450.287 69.1968 450.168 69.8987C450.049 70.6007 449.821 71.2274 449.396 71.6745C448.98 72.1152 448.413 72.3515 447.687 72.2283C446.961 72.1051 446.504 71.6947 446.257 71.1415C446.003 70.5792 445.995 69.9123 446.114 69.2104ZM450.453 72.0568C450.505 71.7492 450.783 71.5449 451.09 71.5971C451.398 71.6494 451.601 71.9354 451.549 72.243C451.497 72.5506 451.212 72.7457 450.904 72.6934C450.597 72.6412 450.4 72.3644 450.453 72.0568ZM453.457 70.4572C453.324 71.238 453.372 71.8142 453.625 72.1898C453.788 72.4284 454.018 72.5974 454.381 72.659C454.744 72.7206 455.018 72.6373 455.25 72.4657C455.612 72.1946 455.848 71.6666 455.981 70.8857C456.113 70.1049 456.065 69.5287 455.812 69.1531C455.65 68.9146 455.419 68.7455 455.056 68.6839C454.693 68.6223 454.42 68.7057 454.188 68.8772C453.825 69.1484 453.589 69.6764 453.457 70.4572ZM452.692 70.3273C452.811 69.6253 453.039 68.9987 453.464 68.5515C453.88 68.1109 454.447 67.8745 455.173 67.9977C455.898 68.121 456.356 68.5314 456.603 69.0845C456.856 69.6469 456.865 70.3137 456.746 71.0157C456.627 71.7176 456.398 72.3443 455.974 72.7914C455.558 73.2321 454.99 73.4684 454.265 73.3452C453.539 73.222 453.081 72.8116 452.834 72.2584C452.581 71.6961 452.573 71.0292 452.692 70.3273ZM458.862 74.0042L458.105 73.8756L458.717 70.2712L457.479 70.0609L457.571 69.5167C458.284 69.6215 458.84 69.3101 459.052 68.7781L459.73 68.8933L458.862 74.0042ZM460.891 75.5495L459.368 75.291L459.469 74.6995L460.344 74.8482L461.392 68.6805L460.516 68.5318L460.618 67.9324L462.14 68.1909L460.891 75.5495Z" fill="url(#paint42_linear_4094_91954)" fill-opacity="0.37"/>
<defs>
<filter id="filter0_f_4094_91954" x="732.088" y="50.0291" width="217.368" height="83.7441" filterUnits="userSpaceOnUse" color-interpolation-filters="sRGB">
<feFlood flood-opacity="0" result="BackgroundImageFix"/>
<feBlend mode="normal" in="SourceGraphic" in2="BackgroundImageFix" result="shape"/>
<feGaussianBlur stdDeviation="2.2794" result="effect1_foregroundBlur_4094_91954"/>
</filter>
<filter id="filter1_f_4094_91954" x="775.435" y="46.1107" width="132.727" height="38.4333" filterUnits="userSpaceOnUse" color-interpolation-filters="sRGB">
<feFlood flood-opacity="0" result="BackgroundImageFix"/>
<feBlend mode="normal" in="SourceGraphic" in2="BackgroundImageFix" result="shape"/>
<feGaussianBlur stdDeviation="1.1397" result="effect1_foregroundBlur_4094_91954"/>
</filter>
<filter id="filter2_f_4094_91954" x="760.668" y="33.0829" width="162.26" height="38.4333" filterUnits="userSpaceOnUse" color-interpolation-filters="sRGB">
<feFlood flood-opacity="0" result="BackgroundImageFix"/>
<feBlend mode="normal" in="SourceGraphic" in2="BackgroundImageFix" result="shape"/>
<feGaussianBlur stdDeviation="1.1397" result="effect1_foregroundBlur_4094_91954"/>
</filter>
<filter id="filter3_f_4094_91954" x="769.144" y="67.7718" width="142.256" height="142.256" filterUnits="userSpaceOnUse" color-interpolation-filters="sRGB">
<feFlood flood-opacity="0" result="BackgroundImageFix"/>
<feBlend mode="normal" in="SourceGraphic" in2="BackgroundImageFix" result="shape"/>
<feGaussianBlur stdDeviation="2.2794" result="effect1_foregroundBlur_4094_91954"/>
</filter>
<filter id="filter4_f_4094_91954" x="769.146" y="67.7722" width="142.256" height="142.256" filterUnits="userSpaceOnUse" color-interpolation-filters="sRGB">
<feFlood flood-opacity="0" result="BackgroundImageFix"/>
<feBlend mode="normal" in="SourceGraphic" in2="BackgroundImageFix" result="shape"/>
<feGaussianBlur stdDeviation="2.2794" result="effect1_foregroundBlur_4094_91954"/>
</filter>
<filter id="filter5_f_4094_91954" x="769.146" y="67.7718" width="142.256" height="142.256" filterUnits="userSpaceOnUse" color-interpolation-filters="sRGB">
<feFlood flood-opacity="0" result="BackgroundImageFix"/>
<feBlend mode="normal" in="SourceGraphic" in2="BackgroundImageFix" result="shape"/>
<feGaussianBlur stdDeviation="2.2794" result="effect1_foregroundBlur_4094_91954"/>
</filter>
<filter id="filter6_f_4094_91954" x="769.144" y="67.7722" width="142.256" height="142.256" filterUnits="userSpaceOnUse" color-interpolation-filters="sRGB">
<feFlood flood-opacity="0" result="BackgroundImageFix"/>
<feBlend mode="normal" in="SourceGraphic" in2="BackgroundImageFix" result="shape"/>
<feGaussianBlur stdDeviation="2.2794" result="effect1_foregroundBlur_4094_91954"/>
</filter>
<filter id="filter7_f_4094_91954" x="771.424" y="70.0512" width="137.697" height="137.697" filterUnits="userSpaceOnUse" color-interpolation-filters="sRGB">
<feFlood flood-opacity="0" result="BackgroundImageFix"/>
<feBlend mode="normal" in="SourceGraphic" in2="BackgroundImageFix" result="shape"/>
<feGaussianBlur stdDeviation="1.1397" result="effect1_foregroundBlur_4094_91954"/>
</filter>
<filter id="filter8_f_4094_91954" x="771.426" y="70.0517" width="137.697" height="137.697" filterUnits="userSpaceOnUse" color-interpolation-filters="sRGB">
<feFlood flood-opacity="0" result="BackgroundImageFix"/>
<feBlend mode="normal" in="SourceGraphic" in2="BackgroundImageFix" result="shape"/>
<feGaussianBlur stdDeviation="1.1397" result="effect1_foregroundBlur_4094_91954"/>
</filter>
<filter id="filter9_f_4094_91954" x="771.426" y="70.0512" width="137.697" height="137.697" filterUnits="userSpaceOnUse" color-interpolation-filters="sRGB">
<feFlood flood-opacity="0" result="BackgroundImageFix"/>
<feBlend mode="normal" in="SourceGraphic" in2="BackgroundImageFix" result="shape"/>
<feGaussianBlur stdDeviation="1.1397" result="effect1_foregroundBlur_4094_91954"/>
</filter>
<filter id="filter10_f_4094_91954" x="771.424" y="70.0517" width="137.697" height="137.697" filterUnits="userSpaceOnUse" color-interpolation-filters="sRGB">
<feFlood flood-opacity="0" result="BackgroundImageFix"/>
<feBlend mode="normal" in="SourceGraphic" in2="BackgroundImageFix" result="shape"/>
<feGaussianBlur stdDeviation="1.1397" result="effect1_foregroundBlur_4094_91954"/>
</filter>
<filter id="filter11_f_4094_91954" x="819.717" y="118.53" width="40.7383" height="40.7383" filterUnits="userSpaceOnUse" color-interpolation-filters="sRGB">
<feFlood flood-opacity="0" result="BackgroundImageFix"/>
<feBlend mode="normal" in="SourceGraphic" in2="BackgroundImageFix" result="shape"/>
<feGaussianBlur stdDeviation="2" result="effect1_foregroundBlur_4094_91954"/>
</filter>
<filter id="filter12_f_4094_91954" x="767.564" y="66.281" width="145.039" height="145.622" filterUnits="userSpaceOnUse" color-interpolation-filters="sRGB">
<feFlood flood-opacity="0" result="BackgroundImageFix"/>
<feBlend mode="normal" in="SourceGraphic" in2="BackgroundImageFix" result="shape"/>
<feGaussianBlur stdDeviation="2.2794" result="effect1_foregroundBlur_4094_91954"/>
</filter>
<filter id="filter13_f_4094_91954" x="475.556" y="112.708" width="697.362" height="229.041" filterUnits="userSpaceOnUse" color-interpolation-filters="sRGB">
<feFlood flood-opacity="0" result="BackgroundImageFix"/>
<feBlend mode="normal" in="SourceGraphic" in2="BackgroundImageFix" result="shape"/>
<feGaussianBlur stdDeviation="22.794" result="effect1_foregroundBlur_4094_91954"/>
</filter>
<radialGradient id="paint0_radial_4094_91954" cx="0" cy="0" r="1" gradientUnits="userSpaceOnUse" gradientTransform="translate(834.839 138.436) rotate(92.2122) scale(263.179 749.441)">
<stop stop-color="#161616" stop-opacity="0"/>
<stop offset="0.489999" stop-color="#414141" stop-opacity="0.84"/>
<stop offset="1" stop-color="#171717" stop-opacity="0"/>
</radialGradient>
<radialGradient id="paint1_radial_4094_91954" cx="0" cy="0" r="1" gradientUnits="userSpaceOnUse" gradientTransform="translate(834.839 136.364) rotate(-101.61) scale(50.4771 734.655)">
<stop stop-color="#161616" stop-opacity="0"/>
<stop offset="0.489999" stop-color="#414141" stop-opacity="0.84"/>
<stop offset="1" stop-color="#171717" stop-opacity="0"/>
</radialGradient>
<radialGradient id="paint2_radial_4094_91954" cx="0" cy="0" r="1" gradientUnits="userSpaceOnUse" gradientTransform="translate(838.802 125.607) rotate(-92.2776) scale(157.835 462.73)">
<stop stop-color="#161616" stop-opacity="0"/>
<stop offset="0.489999" stop-color="#414141" stop-opacity="0.84"/>
<stop offset="1" stop-color="#171717" stop-opacity="0"/>
</radialGradient>
<radialGradient id="paint3_radial_4094_91954" cx="0" cy="0" r="1" gradientUnits="userSpaceOnUse" gradientTransform="translate(837.432 132.066) rotate(-90) scale(132.607 675.283)">
<stop stop-color="#161616" stop-opacity="0"/>
<stop offset="0.592292" stop-color="#414141" stop-opacity="0.84"/>
<stop offset="1" stop-color="#171717" stop-opacity="0"/>
</radialGradient>
<radialGradient id="paint4_radial_4094_91954" cx="0" cy="0" r="1" gradientUnits="userSpaceOnUse" gradientTransform="translate(834.839 140.085) rotate(-130.258) scale(15.7197 572.353)">
<stop stop-color="#161616" stop-opacity="0"/>
<stop offset="0.489999" stop-color="#414141" stop-opacity="0.84"/>
<stop offset="1" stop-color="#171717" stop-opacity="0"/>
</radialGradient>
<linearGradient id="paint5_linear_4094_91954" x1="857.838" y1="84.476" x2="857.838" y2="212.727" gradientUnits="userSpaceOnUse">
<stop stop-color="#0E1514"/>
<stop offset="1" stop-color="#171717"/>
</linearGradient>
<linearGradient id="paint6_linear_4094_91954" x1="840.766" y1="55.1577" x2="840.66" y2="194.018" gradientUnits="userSpaceOnUse">
<stop stop-color="#3DCB8C"/>
<stop offset="1" stop-color="#171717"/>
</linearGradient>
<linearGradient id="paint7_linear_4094_91954" x1="839.464" y1="55.1577" x2="839.33" y2="207.5" gradientUnits="userSpaceOnUse">
<stop offset="0.331593" stop-color="#151515" stop-opacity="0"/>
<stop offset="0.594681" stop-color="#3DCB8C"/>
<stop offset="1" stop-color="#171717"/>
</linearGradient>
<linearGradient id="paint8_linear_4094_91954" x1="836.412" y1="177.088" x2="838.151" y2="236.548" gradientUnits="userSpaceOnUse">
<stop offset="0.0114691" stop-color="#171717"/>
<stop offset="0.540433" stop-color="#3DCB8C"/>
<stop offset="1" stop-color="#161616"/>
</linearGradient>
<linearGradient id="paint9_linear_4094_91954" x1="840.767" y1="55.1577" x2="840.767" y2="105.614" gradientUnits="userSpaceOnUse">
<stop stop-color="#3DCB8C"/>
<stop offset="1" stop-color="white" stop-opacity="0"/>
</linearGradient>
<linearGradient id="paint10_linear_4094_91954" x1="840.273" y1="72.3306" x2="840.273" y2="105.289" gradientUnits="userSpaceOnUse">
<stop stop-color="#BFBFBF"/>
<stop offset="0.3125" stop-color="#232323" stop-opacity="0"/>
</linearGradient>
<linearGradient id="paint11_linear_4094_91954" x1="840.274" y1="72.3309" x2="840.274" y2="105.29" gradientUnits="userSpaceOnUse">
<stop stop-color="#BFBFBF"/>
<stop offset="0.3125" stop-color="#232323" stop-opacity="0"/>
</linearGradient>
<linearGradient id="paint12_linear_4094_91954" x1="840.274" y1="72.3306" x2="840.274" y2="105.289" gradientUnits="userSpaceOnUse">
<stop stop-color="#BFBFBF"/>
<stop offset="0.3125" stop-color="#232323" stop-opacity="0"/>
</linearGradient>
<linearGradient id="paint13_linear_4094_91954" x1="840.273" y1="72.3309" x2="840.273" y2="105.29" gradientUnits="userSpaceOnUse">
<stop stop-color="#BFBFBF"/>
<stop offset="0.3125" stop-color="#232323" stop-opacity="0"/>
</linearGradient>
<linearGradient id="paint14_linear_4094_91954" x1="840.273" y1="72.3306" x2="840.273" y2="105.289" gradientUnits="userSpaceOnUse">
<stop stop-color="#BFBFBF"/>
<stop offset="0.3125" stop-color="#232323" stop-opacity="0"/>
</linearGradient>
<linearGradient id="paint15_linear_4094_91954" x1="840.274" y1="72.3309" x2="840.274" y2="105.29" gradientUnits="userSpaceOnUse">
<stop stop-color="#BFBFBF"/>
<stop offset="0.3125" stop-color="#232323" stop-opacity="0"/>
</linearGradient>
<linearGradient id="paint16_linear_4094_91954" x1="840.274" y1="72.3306" x2="840.274" y2="105.289" gradientUnits="userSpaceOnUse">
<stop stop-color="#BFBFBF"/>
<stop offset="0.3125" stop-color="#232323" stop-opacity="0"/>
</linearGradient>
<linearGradient id="paint17_linear_4094_91954" x1="840.273" y1="72.3309" x2="840.273" y2="105.29" gradientUnits="userSpaceOnUse">
<stop stop-color="#BFBFBF"/>
<stop offset="0.3125" stop-color="#232323" stop-opacity="0"/>
</linearGradient>
<linearGradient id="paint18_linear_4094_91954" x1="840.273" y1="72.3306" x2="840.273" y2="105.289" gradientUnits="userSpaceOnUse">
<stop stop-color="#00FF8E"/>
<stop offset="0.15625" stop-color="#232323" stop-opacity="0"/>
</linearGradient>
<linearGradient id="paint19_linear_4094_91954" x1="840.274" y1="72.3309" x2="840.274" y2="105.29" gradientUnits="userSpaceOnUse">
<stop stop-color="white"/>
<stop offset="0.15625" stop-color="#232323" stop-opacity="0"/>
</linearGradient>
<linearGradient id="paint20_linear_4094_91954" x1="840.274" y1="72.3306" x2="840.274" y2="105.289" gradientUnits="userSpaceOnUse">
<stop stop-color="white"/>
<stop offset="0.15625" stop-color="#232323" stop-opacity="0"/>
</linearGradient>
<linearGradient id="paint21_linear_4094_91954" x1="840.273" y1="72.3309" x2="840.273" y2="105.29" gradientUnits="userSpaceOnUse">
<stop stop-color="white"/>
<stop offset="0.15625" stop-color="#232323" stop-opacity="0"/>
</linearGradient>
<linearGradient id="paint22_linear_4094_91954" x1="840.086" y1="122.53" x2="840.086" y2="155.268" gradientUnits="userSpaceOnUse">
<stop stop-color="#65ECF4"/>
<stop offset="0.729167" stop-color="#0DFF8B"/>
</linearGradient>
<linearGradient id="paint23_linear_4094_91954" x1="851.702" y1="131.254" x2="840.702" y2="155.503" gradientUnits="userSpaceOnUse">
<stop stop-color="#BEFFE0"/>
<stop offset="1" stop-color="#4CC38A" stop-opacity="0"/>
</linearGradient>
<linearGradient id="paint24_linear_4094_91954" x1="840.086" y1="122.53" x2="840.086" y2="155.268" gradientUnits="userSpaceOnUse">
<stop stop-color="#65ECF4"/>
<stop offset="0.729167" stop-color="#0DFF8B"/>
</linearGradient>
<linearGradient id="paint25_linear_4094_91954" x1="851.702" y1="131.254" x2="840.702" y2="155.503" gradientUnits="userSpaceOnUse">
<stop stop-color="#BEFFE0"/>
<stop offset="1" stop-color="#4CC38A" stop-opacity="0"/>
</linearGradient>
<radialGradient id="paint26_radial_4094_91954" cx="0" cy="0" r="1" gradientUnits="userSpaceOnUse" gradientTransform="translate(840.104 138.188) rotate(90) scale(66.8776 64.1914)">
<stop offset="0.552083" stop-color="white" stop-opacity="0"/>
<stop offset="1" stop-color="white"/>
</radialGradient>
<radialGradient id="paint27_radial_4094_91954" cx="0" cy="0" r="1" gradientUnits="userSpaceOnUse" gradientTransform="translate(840.104 138.188) rotate(90) scale(74.5664 71.5714)">
<stop offset="0.552083" stop-color="white" stop-opacity="0"/>
<stop offset="1" stop-color="#00FF8E"/>
</radialGradient>
<radialGradient id="paint28_radial_4094_91954" cx="0" cy="0" r="1" gradientUnits="userSpaceOnUse" gradientTransform="translate(840.104 138.245) rotate(90) scale(69.7678 66.9656)">
<stop stop-color="#D9D9D9"/>
<stop offset="0.661458" stop-color="white" stop-opacity="0"/>
</radialGradient>
<linearGradient id="paint29_linear_4094_91954" x1="840.088" y1="144.762" x2="840.088" y2="151.588" gradientUnits="userSpaceOnUse">
<stop stop-color="#232323" stop-opacity="0"/>
<stop offset="1" stop-color="#3ECF8E"/>
</linearGradient>
<linearGradient id="paint30_linear_4094_91954" x1="840.087" y1="151.409" x2="840.087" y2="157.283" gradientUnits="userSpaceOnUse">
<stop stop-color="#232323" stop-opacity="0"/>
<stop offset="1" stop-color="#3ECF8E"/>
</linearGradient>
<linearGradient id="paint31_linear_4094_91954" x1="840.085" y1="158.343" x2="840.085" y2="162.697" gradientUnits="userSpaceOnUse">
<stop stop-color="#232323" stop-opacity="0"/>
<stop offset="1" stop-color="#3ECF8E"/>
</linearGradient>
<linearGradient id="paint32_linear_4094_91954" x1="840.087" y1="170.187" x2="840.087" y2="172.673" gradientUnits="userSpaceOnUse">
<stop stop-color="#232323" stop-opacity="0"/>
<stop offset="1" stop-color="#3ECF8E"/>
</linearGradient>
<linearGradient id="paint33_linear_4094_91954" x1="840.086" y1="173.966" x2="840.086" y2="177.087" gradientUnits="userSpaceOnUse">
<stop stop-color="#232323" stop-opacity="0"/>
<stop offset="1" stop-color="#898989"/>
</linearGradient>
<linearGradient id="paint34_linear_4094_91954" x1="840.088" y1="178.692" x2="840.088" y2="181.394" gradientUnits="userSpaceOnUse">
<stop stop-color="#232323" stop-opacity="0"/>
<stop offset="1" stop-color="#898989"/>
</linearGradient>
<linearGradient id="paint35_linear_4094_91954" x1="840.087" y1="183.144" x2="840.087" y2="185.105" gradientUnits="userSpaceOnUse">
<stop stop-color="#232323" stop-opacity="0"/>
<stop offset="1" stop-color="#898989"/>
</linearGradient>
<linearGradient id="paint36_linear_4094_91954" x1="840.086" y1="165.289" x2="840.086" y2="168.329" gradientUnits="userSpaceOnUse">
<stop stop-color="#232323" stop-opacity="0"/>
<stop offset="1" stop-color="#3ECF8E"/>
</linearGradient>
<linearGradient id="paint37_linear_4094_91954" x1="841.351" y1="140.256" x2="841.275" y2="146.158" gradientUnits="userSpaceOnUse">
<stop stop-color="#232323" stop-opacity="0"/>
<stop offset="1" stop-color="#3ECF8E"/>
</linearGradient>
<linearGradient id="paint38_linear_4094_91954" x1="1383.38" y1="78.7133" x2="1385.02" y2="94.6286" gradientUnits="userSpaceOnUse">
<stop stop-color="#49FFAA"/>
<stop offset="1" stop-color="#49FFAA" stop-opacity="0"/>
</linearGradient>
<linearGradient id="paint39_linear_4094_91954" x1="185.516" y1="188.207" x2="187.095" y2="204.129" gradientUnits="userSpaceOnUse">
<stop stop-color="#49FFAA"/>
<stop offset="1" stop-color="#49FFAA" stop-opacity="0"/>
</linearGradient>
<linearGradient id="paint40_linear_4094_91954" x1="607.201" y1="169.444" x2="610.067" y2="185.185" gradientUnits="userSpaceOnUse">
<stop stop-color="#49FFAA"/>
<stop offset="1" stop-color="#49FFAA" stop-opacity="0"/>
</linearGradient>
<linearGradient id="paint41_linear_4094_91954" x1="1315.14" y1="222.311" x2="1312.05" y2="238.01" gradientUnits="userSpaceOnUse">
<stop stop-color="#49FFAA"/>
<stop offset="1" stop-color="#49FFAA" stop-opacity="0"/>
</linearGradient>
<linearGradient id="paint42_linear_4094_91954" x1="438.72" y1="59.4265" x2="436.042" y2="75.2008" gradientUnits="userSpaceOnUse">
<stop stop-color="#49FFAA"/>
<stop offset="1" stop-color="#49FFAA" stop-opacity="0"/>
</linearGradient>
</defs>
</svg>
