<svg xmlns="http://www.w3.org/2000/svg" width="2958" height="1032" fill="none" viewBox="0 0 2958 1032"><g clip-path="url(#a)"><g filter="url(#b)"><path stroke="#ea77ff" stroke-width="23.705" d="M2463.31 779.091C2207.47 422.065 1515.62-53.289 747.7 422.066"/></g><mask id="c" width="1898" height="555" x="626" y="177" maskUnits="userSpaceOnUse" style="mask-type:alpha"><path fill="#f1edff" d="M1602.56 181.008c442.97 31.541 798.85 380.416 921.42 550.911 0 0-412.95-231.808-964.78-365.808s-932.385 89.076-932.385 89.076c140.678-104.534 532.775-305.719 975.745-274.179"/></mask><g mask="url(#c)"><g filter="url(#d)"><path fill="url(#e)" d="M1344.89 241.838c332.3-86.216 1114.85 44.772 771.57-50.657-21.14-81.503-634.03-125.681-808.85-80.324S851.833 280.527 872.979 362.03c55.73 288.804 297.091-74.835 471.911-120.192"/></g><g filter="url(#f)"><path fill="#1d0874" d="M2656.55 1270.21c-139.7 194.65-552.72 137.28-922.51-128.12-369.8-265.406-879.924-561.814-740.224-756.458C1272.64 69.805 1870.14 171.814 2239.93 437.219s556.32 638.351 416.62 832.991"/></g><g filter="url(#g)"><ellipse cx="2348.57" cy="583.839" fill="#a765f2" rx="579.661" ry="91.968" transform="rotate(35.668 2348.57 583.839)"/></g><g filter="url(#h)"><path stroke="#dc24ff" stroke-width="70.283" d="M2261.68 379.78c-127.69-83.842-621.45-323.994-1335.195-143.781"/></g><g filter="url(#i)"><path stroke="#dc24ff" stroke-width="70.283" d="M2436.67 754.038c-4.69-54.158-46.32-245.071-253.91-404.881"/></g><g filter="url(#j)"><path stroke="#ebbcf3" stroke-width="23.705" d="M2426.8 662.862C2148.12 323.364 1426.62-105.644 691.486 418.998"/></g><g filter="url(#k)"><path stroke="url(#l)" stroke-width="43.667" d="M2096.56 400.445c-83.46-64.14-410.49-254.403-910.17-167.041"/></g><g filter="url(#m)"><path stroke="url(#n)" stroke-width="37.013" d="M2109.4 392.933c-83.46-64.14-410.49-254.403-910.17-167.041"/></g></g><mask id="o" width="2704" height="793" x="151" y="294" maskUnits="userSpaceOnUse" style="mask-type:alpha"><path fill="#030103" d="M670.254 420.522C309.411 631.564 173.841 952.334 151.162 1086.34l2702.958-53.68C2609.15 693.078 1846.9 351.322 1429.73 305.693c-413.48-45.225-644.517 54.908-759.476 114.829"/></mask><g mask="url(#o)"><g filter="url(#p)"><ellipse cx="1464.1" cy="1177.18" fill="#000" rx="1058.14" ry="1022.5" transform="rotate(35.668 1464.1 1177.18)"/></g><g filter="url(#q)"><ellipse cx="1672.6" cy="839.688" fill="#000" rx="847.101" ry="464.348" transform="rotate(35.668 1672.6 839.688)"/></g><path fill="url(#r)" d="M670.253 420.525C309.41 631.567 173.841 952.336 151.161 1086.34l2718.169-36.78c-254.85-261.683-1024.99-678.927-1439.6-743.864-331.68-51.949-644.517 54.908-759.477 114.829"/><g filter="url(#s)"><circle cx="1683.74" cy="1074.49" r="731.206" fill="#121212"/></g><g filter="url(#t)"><path fill="url(#u)" d="M412.576 733.363C257.047 1039.42 131.77 1725.38 112.242 1369.62c-75.065-38.15-8.575-624.44 73.246-785.45s263.538-408.737 338.604-370.591c270.112 116.417-29.695 358.774-111.516 519.784"/></g><g filter="url(#v)"><path stroke="#55008c" stroke-width="13.308" d="M180.198 1196.61c2.669-84.97 9.054-303.784 233.587-576.558"/></g><path stroke="url(#w)" stroke-width="3.743" d="M142.503 1102.79c21.862-134.139 155.471-455.73 515.019-668.97"/></g><mask id="x" width="2366" height="764" x="522" y="293" maskUnits="userSpaceOnUse" style="mask-type:alpha"><path fill="#3913b3" d="M1730.04 448.514c374.55 104.528 652.72 410.133 694.95 607.796h462.92c-297.35-447.703-983.68-684.07-1405.96-744.617-421.34-60.413-660.187 41.636-753.543 81.523l-.625.267c-74.329 31.757-168.042 99.422-205.608 129.285 200.43-115.862 693.616-217.766 1207.866-74.254"/></mask><g mask="url(#x)"><path fill="#3913b3" d="M1730.1 449.342c374.55 104.528 653.42 490.339 698.28 612.038l462.91-28.72c-280.45-449.396-987-659.591-1409.28-720.139-421.34-60.413-660.185 41.637-753.54 81.523l-.625.267c-74.33 31.757-168.043 99.423-205.608 129.286C722.666 407.735 1215.86 305.831 1730.1 449.342"/><g filter="url(#y)"><path stroke="url(#z)" stroke-width="7.902" d="M2383.22 938.696c-44.86-121.702-278.62-385.656-653.18-490.183-514.24-143.512-1007.433-41.608-1207.862 74.254"/></g><g filter="url(#A)"><path stroke="#000" stroke-width="37.013" d="M744.871 373.999c92.912-39.697 331.889-142.339 754.169-81.791"/></g><g filter="url(#B)"><path stroke="#000" stroke-width="37.013" d="M860.668 334.321c95.922-31.738 342.682-113.912 758.372-18.053"/></g><g filter="url(#C)"><ellipse cx="2149.38" cy="790.355" fill="url(#D)" rx="152.461" ry="408.521" transform="rotate(-51.736 2149.38 790.355)"/></g><g filter="url(#E)"><path fill="url(#F)" d="M2424.41 713.122c-243.32-242.189-857.4-572.54-512.91-481.607 59.4-59.678 596.76 184.06 724.76 311.472 128.01 127.411 307.77 376.562 248.37 436.24-193.92 221.163-332.22-138.694-460.22-266.105"/></g><path stroke="url(#G)" stroke-width="3.743" d="M723.746 395.413c92.912-39.696 331.884-142.339 754.164-81.791S2395.76 557.201 2773.27 913.4"/><g filter="url(#H)"><path stroke="url(#I)" stroke-width="17.051" d="M2765.62 910.758c-68.98-64.973-262.24-222.635-483.49-333.5"/></g><g filter="url(#J)"><ellipse cx="755.243" cy="463.757" fill="#db91f8" rx="309.636" ry="58.819" transform="rotate(-10.327 755.243 463.757)"/></g></g></g><defs><filter id="b" width="1844.6" height="688.892" x="684.902" y="153.663" color-interpolation-filters="sRGB" filterUnits="userSpaceOnUse"><feFlood flood-opacity="0" result="BackgroundImageFix"/><feBlend in="SourceGraphic" in2="BackgroundImageFix" result="shape"/><feGaussianBlur result="effect1_foregroundBlur_1806_105858" stdDeviation="28.28"/></filter><filter id="d" width="1549.43" height="599.399" x="762.06" y="-17.128" color-interpolation-filters="sRGB" filterUnits="userSpaceOnUse"><feFlood flood-opacity="0" result="BackgroundImageFix"/><feBlend in="SourceGraphic" in2="BackgroundImageFix" result="shape"/><feGaussianBlur result="effect1_foregroundBlur_1806_105858" stdDeviation="54.896"/></filter><filter id="f" width="2112.01" height="1575.19" x="780.555" y=".091" color-interpolation-filters="sRGB" filterUnits="userSpaceOnUse"><feFlood flood-opacity="0" result="BackgroundImageFix"/><feBlend in="SourceGraphic" in2="BackgroundImageFix" result="shape"/><feGaussianBlur result="effect1_foregroundBlur_1806_105858" stdDeviation="94.82"/></filter><filter id="g" width="1327.3" height="1071.73" x="1684.91" y="47.973" color-interpolation-filters="sRGB" filterUnits="userSpaceOnUse"><feFlood flood-opacity="0" result="BackgroundImageFix"/><feBlend in="SourceGraphic" in2="BackgroundImageFix" result="shape"/><feGaussianBlur result="effect1_foregroundBlur_1806_105858" stdDeviation="94.82"/></filter><filter id="h" width="1595.98" height="506.653" x="801.437" y="18.949" color-interpolation-filters="sRGB" filterUnits="userSpaceOnUse"><feFlood flood-opacity="0" result="BackgroundImageFix"/><feBlend in="SourceGraphic" in2="BackgroundImageFix" result="shape"/><feGaussianBlur result="effect1_foregroundBlur_1806_105858" stdDeviation="58.223"/></filter><filter id="i" width="543.243" height="668.649" x="2044.88" y="204.867" color-interpolation-filters="sRGB" filterUnits="userSpaceOnUse"><feFlood flood-opacity="0" result="BackgroundImageFix"/><feBlend in="SourceGraphic" in2="BackgroundImageFix" result="shape"/><feGaussianBlur result="effect1_foregroundBlur_1806_105858" stdDeviation="58.223"/></filter><filter id="j" width="1831.22" height="588.505" x="644.677" y="121.802" color-interpolation-filters="sRGB" filterUnits="userSpaceOnUse"><feFlood flood-opacity="0" result="BackgroundImageFix"/><feBlend in="SourceGraphic" in2="BackgroundImageFix" result="shape"/><feGaussianBlur result="effect1_foregroundBlur_1806_105858" stdDeviation="19.962"/></filter><filter id="k" width="1053.66" height="355.165" x="1119.41" y="125.806" color-interpolation-filters="sRGB" filterUnits="userSpaceOnUse"><feFlood flood-opacity="0" result="BackgroundImageFix"/><feBlend in="SourceGraphic" in2="BackgroundImageFix" result="shape"/><feGaussianBlur result="effect1_foregroundBlur_1806_105858" stdDeviation="31.607"/></filter><filter id="m" width="957.911" height="256.04" x="1179.4" y="168.201" color-interpolation-filters="sRGB" filterUnits="userSpaceOnUse"><feFlood flood-opacity="0" result="BackgroundImageFix"/><feBlend in="SourceGraphic" in2="BackgroundImageFix" result="shape"/><feGaussianBlur result="effect1_foregroundBlur_1806_105858" stdDeviation="8.318"/></filter><filter id="p" width="2471.79" height="2448.92" x="228.204" y="-47.281" color-interpolation-filters="sRGB" filterUnits="userSpaceOnUse"><feFlood flood-opacity="0" result="BackgroundImageFix"/><feBlend in="SourceGraphic" in2="BackgroundImageFix" result="shape"/><feGaussianBlur result="effect1_foregroundBlur_1806_105858" stdDeviation="94.82"/></filter><filter id="q" width="1625.87" height="1389.48" x="859.665" y="144.946" color-interpolation-filters="sRGB" filterUnits="userSpaceOnUse"><feFlood flood-opacity="0" result="BackgroundImageFix"/><feBlend in="SourceGraphic" in2="BackgroundImageFix" result="shape"/><feGaussianBlur result="effect1_foregroundBlur_1806_105858" stdDeviation="36.597"/></filter><filter id="s" width="2360.71" height="2360.7" x="503.392" y="-105.862" color-interpolation-filters="sRGB" filterUnits="userSpaceOnUse"><feFlood flood-opacity="0" result="BackgroundImageFix"/><feBlend in="SourceGraphic" in2="BackgroundImageFix" result="shape"/><feGaussianBlur result="effect1_foregroundBlur_1806_105858" stdDeviation="224.574"/></filter><filter id="t" width="761.392" height="1466.09" x="-23.661" y="106.507" color-interpolation-filters="sRGB" filterUnits="userSpaceOnUse"><feFlood flood-opacity="0" result="BackgroundImageFix"/><feBlend in="SourceGraphic" in2="BackgroundImageFix" result="shape"/><feGaussianBlur result="effect1_foregroundBlur_1806_105858" stdDeviation="51.569"/></filter><filter id="v" width="345.185" height="680.807" x="123.642" y="565.919" color-interpolation-filters="sRGB" filterUnits="userSpaceOnUse"><feFlood flood-opacity="0" result="BackgroundImageFix"/><feBlend in="SourceGraphic" in2="BackgroundImageFix" result="shape"/><feGaussianBlur result="effect1_foregroundBlur_1806_105858" stdDeviation="24.953"/></filter><filter id="y" width="1906.64" height="605.846" x="500.241" y="354.179" color-interpolation-filters="sRGB" filterUnits="userSpaceOnUse"><feFlood flood-opacity="0" result="BackgroundImageFix"/><feBlend in="SourceGraphic" in2="BackgroundImageFix" result="shape"/><feGaussianBlur result="effect1_foregroundBlur_1806_105858" stdDeviation="9.981"/></filter><filter id="A" width="930.413" height="302.339" x="654.426" y="171.852" color-interpolation-filters="sRGB" filterUnits="userSpaceOnUse"><feFlood flood-opacity="0" result="BackgroundImageFix"/><feBlend in="SourceGraphic" in2="BackgroundImageFix" result="shape"/><feGaussianBlur result="effect1_foregroundBlur_1806_105858" stdDeviation="41.588"/></filter><filter id="B" width="868.154" height="198.967" x="804.946" y="202.829" color-interpolation-filters="sRGB" filterUnits="userSpaceOnUse"><feFlood flood-opacity="0" result="BackgroundImageFix"/><feBlend in="SourceGraphic" in2="BackgroundImageFix" result="shape"/><feGaussianBlur result="effect1_foregroundBlur_1806_105858" stdDeviation="24.953"/></filter><filter id="C" width="875.181" height="766.173" x="1711.79" y="407.269" color-interpolation-filters="sRGB" filterUnits="userSpaceOnUse"><feFlood flood-opacity="0" result="BackgroundImageFix"/><feBlend in="SourceGraphic" in2="BackgroundImageFix" result="shape"/><feGaussianBlur result="effect1_foregroundBlur_1806_105858" stdDeviation="51.569"/></filter><filter id="E" width="1293.62" height="1039.73" x="1705.84" y="112.945" color-interpolation-filters="sRGB" filterUnits="userSpaceOnUse"><feFlood flood-opacity="0" result="BackgroundImageFix"/><feBlend in="SourceGraphic" in2="BackgroundImageFix" result="shape"/><feGaussianBlur result="effect1_foregroundBlur_1806_105858" stdDeviation="51.569"/></filter><filter id="H" width="526.419" height="380.598" x="2261.68" y="553.002" color-interpolation-filters="sRGB" filterUnits="userSpaceOnUse"><feFlood flood-opacity="0" result="BackgroundImageFix"/><feBlend in="SourceGraphic" in2="BackgroundImageFix" result="shape"/><feGaussianBlur result="effect1_foregroundBlur_1806_105858" stdDeviation="8.318"/></filter><filter id="J" width="775.96" height="326.718" x="367.262" y="300.399" color-interpolation-filters="sRGB" filterUnits="userSpaceOnUse"><feFlood flood-opacity="0" result="BackgroundImageFix"/><feBlend in="SourceGraphic" in2="BackgroundImageFix" result="shape"/><feGaussianBlur result="effect1_foregroundBlur_1806_105858" stdDeviation="41.588"/></filter><linearGradient id="e" x1="901.323" x2="1411.31" y1="307.998" y2="179.791" gradientUnits="userSpaceOnUse"><stop stop-color="#f7f2d8"/><stop offset=".719" stop-color="#9d20ff"/></linearGradient><linearGradient id="l" x1="1961.07" x2="1813.56" y1="326.506" y2=".66" gradientUnits="userSpaceOnUse"><stop stop-color="#f1edff" stop-opacity="0"/><stop offset=".535" stop-color="#fdd5c7"/><stop offset="1" stop-color="#f1edff" stop-opacity="0"/></linearGradient><linearGradient id="n" x1="2004.81" x2="1819.33" y1="319.52" y2="-45.549" gradientUnits="userSpaceOnUse"><stop stop-color="#f1edff" stop-opacity="0"/><stop offset=".535" stop-color="#fdd5c7"/><stop offset="1" stop-color="#f1edff" stop-opacity="0"/></linearGradient><linearGradient id="u" x1="362.35" x2="572.812" y1="691.972" y2="712.349" gradientUnits="userSpaceOnUse"><stop stop-color="#a075d6"/><stop offset=".923" stop-color="#9d20ff"/></linearGradient><linearGradient id="w" x1="645.665" x2="14.984" y1="409.491" y2="888.657" gradientUnits="userSpaceOnUse"><stop stop-color="#f1edff" stop-opacity="0"/><stop offset=".464" stop-color="#f1edff"/><stop offset="1" stop-color="#f1edff" stop-opacity="0"/></linearGradient><linearGradient id="z" x1="1428.32" x2="2400.17" y1="359.453" y2="915.307" gradientUnits="userSpaceOnUse"><stop stop-color="#b45bf3"/><stop offset="1" stop-color="#00b7ff"/></linearGradient><linearGradient id="D" x1="2219.71" x2="2425.08" y1="807.881" y2="754.722" gradientUnits="userSpaceOnUse"><stop stop-color="#60eae2"/><stop offset=".115" stop-color="#71bddd"/><stop offset="1" stop-color="#ab66e1"/></linearGradient><linearGradient id="F" x1="2479.25" x2="2395.08" y1="678.076" y2="872.046" gradientUnits="userSpaceOnUse"><stop stop-color="#f7f2d8"/><stop offset=".572" stop-color="#9d20ff"/></linearGradient><linearGradient id="G" x1="1700.33" x2="1035.8" y1="260.616" y2="304.244" gradientUnits="userSpaceOnUse"><stop stop-color="#f1edff" stop-opacity="0"/><stop offset=".464" stop-color="#f1edff"/><stop offset="1" stop-color="#f1edff" stop-opacity="0"/></linearGradient><linearGradient id="I" x1="2695.34" x2="2314.95" y1="847.788" y2="595.234" gradientUnits="userSpaceOnUse"><stop stop-color="#f1edff" stop-opacity="0"/><stop offset=".464" stop-color="#f7f6db"/><stop offset="1" stop-color="#f1edff" stop-opacity="0"/></linearGradient><radialGradient id="r" cx="0" cy="0" r="1" gradientTransform="rotate(248.902 1332.193 -322.697)scale(1208.32 2042.82)" gradientUnits="userSpaceOnUse"><stop stop-color="#030103"/><stop offset=".802" stop-color="#3b3a75" stop-opacity=".71"/><stop offset=".958" stop-color="#b97af1" stop-opacity=".61"/><stop offset="1" stop-color="#9e44ef"/></radialGradient><clipPath id="a"><path fill="#fff" d="M.555 0h2956.55v1031.78H.555z"/></clipPath></defs></svg>