<svg xmlns="http://www.w3.org/2000/svg" width="3555" height="1241" fill="none"><g clip-path="url(#a)"><g filter="url(#b)"><path fill="#FCD3CB" d="M3258.76 1052.16c0 311.36-683.58 563.77-1526.81 563.77-843.239 0-1526.817-252.41-1526.817-563.77 0-311.362 683.578-648.297 1526.817-648.297 843.23 0 1526.81 336.935 1526.81 648.297Z"/></g><g filter="url(#c)"><path stroke="#EA77FF" stroke-width="28.5" d="M2960.92 937.045C2653.33 507.8 1821.53-63.707 898.275 507.801"/></g><mask id="d" width="2282" height="668" x="752" y="213" maskUnits="userSpaceOnUse" style="mask-type:alpha"><path fill="#F1EDFF" d="M1926.07 217.981c532.57 37.92 960.43 457.366 1107.79 662.348 0 0-496.47-278.697-1159.92-439.803C1210.48 279.421 752.946 547.621 752.946 547.621c169.134-125.68 640.544-367.56 1173.124-329.64Z"/></mask><g mask="url(#d)"><g filter="url(#e)"><path fill="url(#f)" d="M1616.27 291.113c399.52-103.656 1340.36 53.828 927.65-60.904-25.43-97.99-762.29-151.104-972.47-96.572-210.18 54.532-547.97 203.991-522.55 301.98 67.01 347.223 357.19-89.973 567.37-144.504Z"/></g><g filter="url(#g)"><path fill="#1D0874" d="M3193.25 1527.51c-167.96 234.02-664.53 165.05-1109.12-154.04-444.59-319.09-1057.91-675.458-889.95-909.475 335.22-379.711 1053.58-257.069 1498.18 62.022 444.59 319.092 668.85 767.473 500.89 1001.493Z"/></g><g filter="url(#h)"><ellipse cx="2822.97" cy="702.297" fill="#A765F2" rx="696.914" ry="110.571" transform="rotate(35.668 2822.97 702.297)"/></g><g filter="url(#i)"><path stroke="#DC24FF" stroke-width="84.5" d="M2718.51 456.959c-153.52-100.801-747.16-389.531-1605.28-172.865"/></g><g filter="url(#j)"><path stroke="#DC24FF" stroke-width="84.5" d="M2928.89 906.923c-5.63-65.114-55.69-294.644-305.26-486.78"/></g><g filter="url(#k)"><path stroke="#EBBCF3" stroke-width="28.5" d="M2917.04 797.302C2581.98 389.131 1714.53-126.657 830.7 504.109"/></g><g filter="url(#l)"><path stroke="url(#m)" stroke-width="52.5" d="M2519.99 481.804c-100.35-77.114-493.53-305.863-1094.29-200.83"/></g><g filter="url(#n)"><path stroke="url(#o)" stroke-width="44.5" d="M2535.43 472.773c-100.34-77.114-493.52-305.863-1094.28-200.83"/></g></g><mask id="p" width="3250" height="953" x="181" y="354" maskUnits="userSpaceOnUse" style="mask-type:alpha"><path fill="#030103" d="M805.166 505.941C371.332 759.672 208.339 1145.33 181.072 1306.44l3249.708-64.54c-294.52-408.27-1210.95-819.157-1712.51-874.015-497.12-54.373-774.891 66.014-913.104 138.056Z"/></mask><g mask="url(#p)"><g filter="url(#q)"><ellipse cx="1891.37" cy="961.77" fill="#000" rx="1429.77" ry="783.746" transform="rotate(35.668 1891.37 961.77)"/></g><path fill="url(#r)" d="M805.165 505.946c-433.833 253.73-596.826 639.384-624.094 800.494l3267.999-44.23c-306.4-314.605-1232.33-816.249-1730.8-894.321-398.77-62.457-774.892 66.014-913.105 138.057Z"/><g filter="url(#s)"><path fill="url(#t)" d="M495.371 882.061C308.382 1250.02 157.763 2074.74 134.286 1647.02c-90.25-45.87-10.31-750.752 88.062-944.33 98.371-193.579 316.846-491.416 407.096-445.553 324.75 139.965-35.701 431.346-134.073 624.924Z"/></g><g filter="url(#u)"><path stroke="#55008C" stroke-width="16" d="M215.985 1439.02c3.208-102.16 10.885-365.24 280.837-693.189"/></g><path stroke="url(#v)" stroke-width="4.5" d="M170.664 1326.22c26.284-161.28 186.92-547.918 619.197-804.291"/></g><mask id="w" width="2845" height="919" x="627" y="352" maskUnits="userSpaceOnUse" style="mask-type:alpha"><path fill="#3913B3" d="M2079.33 539.594c450.32 125.671 784.75 493.096 835.53 730.746h556.55c-357.49-538.271-1182.66-822.449-1690.35-895.244-506.57-72.633-793.731 50.059-905.97 98.014l-.752.321c-89.365 38.181-202.034 119.533-247.198 155.437 240.972-139.299 833.92-261.816 1452.19-89.274Z"/></mask><g mask="url(#w)"><path fill="#3913B3" d="M2079.4 540.59c450.32 125.671 785.59 589.52 839.52 735.84l556.55-34.53c-337.18-540.299-1186.65-793.013-1694.34-865.808-506.57-72.633-793.731 50.059-905.97 98.014l-.751.321C785.044 512.608 672.374 593.96 627.21 629.864c240.972-139.299 833.92-261.815 1452.19-89.274Z"/><g filter="url(#x)"><path stroke="url(#y)" stroke-width="9.5" d="M2864.63 1128.93c-53.93-146.322-334.98-463.668-785.29-589.339-618.27-172.541-1211.223-50.024-1452.196 89.274"/></g><g filter="url(#z)"><path stroke="#000" stroke-width="44.5" d="M894.883 450.008c111.707-47.726 399.017-171.131 906.717-98.335"/></g><g filter="url(#A)"><path stroke="#000" stroke-width="44.5" d="M1034.1 402.304c115.33-38.159 412.01-136.955 911.78-21.705"/></g><g filter="url(#B)"><ellipse cx="2583.5" cy="950.582" fill="url(#C)" rx="183.301" ry="491.157" transform="rotate(-51.736 2583.5 950.582)"/></g><g filter="url(#D)"><path fill="url(#E)" d="M2914.15 857.725c-292.53-291.178-1030.83-688.353-616.66-579.026 71.42-71.75 717.47 221.292 871.37 374.476 153.9 153.184 370.02 452.735 298.6 524.485-233.14 265.89-399.41-166.75-553.31-319.935Z"/></g><path stroke="url(#F)" stroke-width="4.5" d="M869.485 475.754c111.706-47.726 399.015-171.131 906.715-98.335 507.7 72.795 1103.51 292.85 1557.38 721.101"/><g filter="url(#G)"><path stroke="url(#H)" stroke-width="20.5" d="M3324.38 1095.34c-82.93-78.12-315.29-267.67-581.29-400.961"/></g><g filter="url(#I)"><ellipse cx="907.345" cy="557.922" fill="#DB91F8" rx="372.269" ry="70.717" transform="rotate(-10.327 907.345 557.922)"/></g></g></g><defs><filter id="b" width="3791.56" height="1950" x="-163.833" y="34.897" color-interpolation-filters="sRGB" filterUnits="userSpaceOnUse"><feFlood flood-opacity="0" result="BackgroundImageFix"/><feBlend in="SourceGraphic" in2="BackgroundImageFix" result="shape"/><feGaussianBlur result="effect1_foregroundBlur_1533_99247" stdDeviation="184.483"/></filter><filter id="c" width="2217.73" height="828.238" x="822.773" y="185.105" color-interpolation-filters="sRGB" filterUnits="userSpaceOnUse"><feFlood flood-opacity="0" result="BackgroundImageFix"/><feBlend in="SourceGraphic" in2="BackgroundImageFix" result="shape"/><feGaussianBlur result="effect1_foregroundBlur_1533_99247" stdDeviation="34"/></filter><filter id="e" width="1862.85" height="720.645" x="915.547" y="-20.234" color-interpolation-filters="sRGB" filterUnits="userSpaceOnUse"><feFlood flood-opacity="0" result="BackgroundImageFix"/><feBlend in="SourceGraphic" in2="BackgroundImageFix" result="shape"/><feGaussianBlur result="effect1_foregroundBlur_1533_99247" stdDeviation="66"/></filter><filter id="g" width="2539.23" height="1893.82" x="937.781" y=".465" color-interpolation-filters="sRGB" filterUnits="userSpaceOnUse"><feFlood flood-opacity="0" result="BackgroundImageFix"/><feBlend in="SourceGraphic" in2="BackgroundImageFix" result="shape"/><feGaussianBlur result="effect1_foregroundBlur_1533_99247" stdDeviation="114"/></filter><filter id="h" width="1595.78" height="1288.52" x="2025.08" y="58.039" color-interpolation-filters="sRGB" filterUnits="userSpaceOnUse"><feFlood flood-opacity="0" result="BackgroundImageFix"/><feBlend in="SourceGraphic" in2="BackgroundImageFix" result="shape"/><feGaussianBlur result="effect1_foregroundBlur_1533_99247" stdDeviation="114"/></filter><filter id="i" width="1918.81" height="609.141" x="962.891" y="23.137" color-interpolation-filters="sRGB" filterUnits="userSpaceOnUse"><feFlood flood-opacity="0" result="BackgroundImageFix"/><feBlend in="SourceGraphic" in2="BackgroundImageFix" result="shape"/><feGaussianBlur result="effect1_foregroundBlur_1533_99247" stdDeviation="70"/></filter><filter id="j" width="653.133" height="803.902" x="2457.85" y="246.664" color-interpolation-filters="sRGB" filterUnits="userSpaceOnUse"><feFlood flood-opacity="0" result="BackgroundImageFix"/><feBlend in="SourceGraphic" in2="BackgroundImageFix" result="shape"/><feGaussianBlur result="effect1_foregroundBlur_1533_99247" stdDeviation="70"/></filter><filter id="k" width="2201.62" height="707.547" x="774.422" y="146.797" color-interpolation-filters="sRGB" filterUnits="userSpaceOnUse"><feFlood flood-opacity="0" result="BackgroundImageFix"/><feBlend in="SourceGraphic" in2="BackgroundImageFix" result="shape"/><feGaussianBlur result="effect1_foregroundBlur_1533_99247" stdDeviation="24"/></filter><filter id="l" width="1266.8" height="427.008" x="1345.19" y="151.609" color-interpolation-filters="sRGB" filterUnits="userSpaceOnUse"><feFlood flood-opacity="0" result="BackgroundImageFix"/><feBlend in="SourceGraphic" in2="BackgroundImageFix" result="shape"/><feGaussianBlur result="effect1_foregroundBlur_1533_99247" stdDeviation="38"/></filter><filter id="n" width="1151.67" height="307.832" x="1417.32" y="202.582" color-interpolation-filters="sRGB" filterUnits="userSpaceOnUse"><feFlood flood-opacity="0" result="BackgroundImageFix"/><feBlend in="SourceGraphic" in2="BackgroundImageFix" result="shape"/><feGaussianBlur result="effect1_foregroundBlur_1533_99247" stdDeviation="10"/></filter><filter id="q" width="2953.12" height="2554.14" x="414.812" y="-315.301" color-interpolation-filters="sRGB" filterUnits="userSpaceOnUse"><feFlood flood-opacity="0" result="BackgroundImageFix"/><feBlend in="SourceGraphic" in2="BackgroundImageFix" result="shape"/><feGaussianBlur result="effect1_foregroundBlur_1533_99247" stdDeviation="114"/></filter><filter id="s" width="915.398" height="1762.65" x="-29.102" y="128.402" color-interpolation-filters="sRGB" filterUnits="userSpaceOnUse"><feFlood flood-opacity="0" result="BackgroundImageFix"/><feBlend in="SourceGraphic" in2="BackgroundImageFix" result="shape"/><feGaussianBlur result="effect1_foregroundBlur_1533_99247" stdDeviation="62"/></filter><filter id="u" width="415.008" height="818.523" x="147.992" y="680.746" color-interpolation-filters="sRGB" filterUnits="userSpaceOnUse"><feFlood flood-opacity="0" result="BackgroundImageFix"/><feBlend in="SourceGraphic" in2="BackgroundImageFix" result="shape"/><feGaussianBlur result="effect1_foregroundBlur_1533_99247" stdDeviation="30"/></filter><filter id="x" width="2292.33" height="728.395" x="600.766" y="426.176" color-interpolation-filters="sRGB" filterUnits="userSpaceOnUse"><feFlood flood-opacity="0" result="BackgroundImageFix"/><feBlend in="SourceGraphic" in2="BackgroundImageFix" result="shape"/><feGaussianBlur result="effect1_foregroundBlur_1533_99247" stdDeviation="12"/></filter><filter id="z" width="1118.62" height="363.5" x="786.141" y="206.969" color-interpolation-filters="sRGB" filterUnits="userSpaceOnUse"><feFlood flood-opacity="0" result="BackgroundImageFix"/><feBlend in="SourceGraphic" in2="BackgroundImageFix" result="shape"/><feGaussianBlur result="effect1_foregroundBlur_1533_99247" stdDeviation="50"/></filter><filter id="A" width="1043.77" height="239.215" x="967.117" y="244.215" color-interpolation-filters="sRGB" filterUnits="userSpaceOnUse"><feFlood flood-opacity="0" result="BackgroundImageFix"/><feBlend in="SourceGraphic" in2="BackgroundImageFix" result="shape"/><feGaussianBlur result="effect1_foregroundBlur_1533_99247" stdDeviation="30"/></filter><filter id="B" width="1052.21" height="921.156" x="2057.39" y="490.004" color-interpolation-filters="sRGB" filterUnits="userSpaceOnUse"><feFlood flood-opacity="0" result="BackgroundImageFix"/><feBlend in="SourceGraphic" in2="BackgroundImageFix" result="shape"/><feGaussianBlur result="effect1_foregroundBlur_1533_99247" stdDeviation="62"/></filter><filter id="D" width="1555.29" height="1250.04" x="2050.23" y="136.145" color-interpolation-filters="sRGB" filterUnits="userSpaceOnUse"><feFlood flood-opacity="0" result="BackgroundImageFix"/><feBlend in="SourceGraphic" in2="BackgroundImageFix" result="shape"/><feGaussianBlur result="effect1_foregroundBlur_1533_99247" stdDeviation="62"/></filter><filter id="G" width="632.906" height="457.586" x="2718.5" y="665.215" color-interpolation-filters="sRGB" filterUnits="userSpaceOnUse"><feFlood flood-opacity="0" result="BackgroundImageFix"/><feBlend in="SourceGraphic" in2="BackgroundImageFix" result="shape"/><feGaussianBlur result="effect1_foregroundBlur_1533_99247" stdDeviation="10"/></filter><filter id="I" width="932.922" height="392.812" x="440.883" y="361.516" color-interpolation-filters="sRGB" filterUnits="userSpaceOnUse"><feFlood flood-opacity="0" result="BackgroundImageFix"/><feBlend in="SourceGraphic" in2="BackgroundImageFix" result="shape"/><feGaussianBlur result="effect1_foregroundBlur_1533_99247" stdDeviation="50"/></filter><linearGradient id="f" x1="1082.98" x2="1696.13" y1="370.656" y2="216.515" gradientUnits="userSpaceOnUse"><stop stop-color="#F7F2D8"/><stop offset=".719" stop-color="#9D20FF"/></linearGradient><linearGradient id="m" x1="2357.09" x2="2179.74" y1="392.909" y2="1.151" gradientUnits="userSpaceOnUse"><stop stop-color="#F1EDFF" stop-opacity="0"/><stop offset=".535" stop-color="#FDD5C7"/><stop offset="1" stop-color="#F1EDFF" stop-opacity="0"/></linearGradient><linearGradient id="o" x1="2409.68" x2="2186.69" y1="384.51" y2="-54.405" gradientUnits="userSpaceOnUse"><stop stop-color="#F1EDFF" stop-opacity="0"/><stop offset=".535" stop-color="#FDD5C7"/><stop offset="1" stop-color="#F1EDFF" stop-opacity="0"/></linearGradient><linearGradient id="t" x1="434.985" x2="688.019" y1="832.298" y2="856.796" gradientUnits="userSpaceOnUse"><stop stop-color="#A075D6"/><stop offset=".923" stop-color="#9D20FF"/></linearGradient><linearGradient id="v" x1="775.606" x2="17.351" y1="492.678" y2="1068.77" gradientUnits="userSpaceOnUse"><stop stop-color="#F1EDFF" stop-opacity="0"/><stop offset=".464" stop-color="#F1EDFF"/><stop offset="1" stop-color="#F1EDFF" stop-opacity="0"/></linearGradient><linearGradient id="y" x1="1716.58" x2="2885.01" y1="432.517" y2="1100.81" gradientUnits="userSpaceOnUse"><stop stop-color="#B45BF3"/><stop offset="1" stop-color="#00B7FF"/></linearGradient><linearGradient id="C" x1="2668.04" x2="2914.97" y1="971.652" y2="907.74" gradientUnits="userSpaceOnUse"><stop stop-color="#60EAE2"/><stop offset=".115" stop-color="#71BDDD"/><stop offset="1" stop-color="#AB66E1"/></linearGradient><linearGradient id="E" x1="2980.09" x2="2878.89" y1="815.59" y2="1048.8" gradientUnits="userSpaceOnUse"><stop stop-color="#F7F2D8"/><stop offset=".572" stop-color="#9D20FF"/></linearGradient><linearGradient id="F" x1="2043.61" x2="1244.66" y1="313.69" y2="366.144" gradientUnits="userSpaceOnUse"><stop stop-color="#F1EDFF" stop-opacity="0"/><stop offset=".464" stop-color="#F1EDFF"/><stop offset="1" stop-color="#F1EDFF" stop-opacity="0"/></linearGradient><linearGradient id="H" x1="3239.88" x2="2782.55" y1="1019.63" y2="715.991" gradientUnits="userSpaceOnUse"><stop stop-color="#F1EDFF" stop-opacity="0"/><stop offset=".464" stop-color="#F7F6DB"/><stop offset="1" stop-color="#F1EDFF" stop-opacity="0"/></linearGradient><radialGradient id="r" cx="0" cy="0" r="1" gradientTransform="rotate(-111.098 1601.458 -387.565) scale(1452.74 2456.04)" gradientUnits="userSpaceOnUse"><stop stop-color="#030103"/><stop offset=".802" stop-color="#3B3A75" stop-opacity=".71"/><stop offset=".958" stop-color="#B97AF1" stop-opacity=".61"/><stop offset="1" stop-color="#9E44EF"/></radialGradient><clipPath id="a"><path fill="#fff" d="M0 .36h3554.6v1240.49H0z"/></clipPath></defs></svg>