<svg width="81" height="80" viewBox="0 0 81 80" fill="none" xmlns="http://www.w3.org/2000/svg">
<path fill-rule="evenodd" clip-rule="evenodd" d="M13.7305 13.2305H67.2695V66.7695H13.7305V13.2305ZM54.6588 58.1144C52.1773 58.1144 50.7743 56.8201 49.6959 55.0593L45.6073 57.4345C47.0843 60.3528 50.1029 62.5794 54.7753 62.5794C59.5538 62.5794 63.1121 60.0979 63.1121 55.5683C63.1121 51.3668 60.6986 49.498 56.4239 47.6649L55.1662 47.1261C53.0076 46.1913 52.0728 45.5803 52.0728 44.071C52.0728 42.8498 53.0068 41.915 54.4804 41.915C55.9251 41.915 56.8556 42.5243 57.7182 44.071L61.6359 41.5555C59.9788 38.6406 57.6791 37.5273 54.4804 37.5273C49.9873 37.5273 47.1124 40.3998 47.1124 44.173C47.1124 48.2691 49.5242 50.2068 53.1546 51.7534L54.4124 52.2931C56.7069 53.2967 58.0751 53.9077 58.0751 55.6329C58.0751 57.0725 56.7435 58.1144 54.6588 58.1144ZM35.1613 58.0829C33.4327 58.0829 32.7138 56.8974 31.9234 55.4952L27.8281 57.9746C29.0145 60.4854 31.3473 62.57 35.3754 62.57C39.8336 62.57 42.8879 60.199 42.8879 54.9896V37.8146H37.8569V54.9216C37.8569 57.4362 36.8142 58.0829 35.1613 58.0829Z" fill="url(#paint0_linear_1785_15055)"/>
<defs>
<linearGradient id="paint0_linear_1785_15055" x1="13.7305" y1="66.7695" x2="67.2695" y2="13.2305" gradientUnits="userSpaceOnUse">
<stop stop-color="#EDEDED" stop-opacity="0.5"/>
<stop offset="1" stop-color="white"/>
</linearGradient>
</defs>
</svg>
