<svg width="80" height="80" viewBox="0 0 80 80" fill="none" xmlns="http://www.w3.org/2000/svg">
<path fill-rule="evenodd" clip-rule="evenodd" d="M32.7668 10.4216C34.8343 10.0558 37.1841 9.84591 39.6447 9.83448C42.1052 9.82305 44.6707 10.01 47.1433 10.4216C51.0493 11.0726 54.3399 14.0028 54.3399 17.9034V31.6089C54.3399 35.628 51.1452 38.923 47.1433 38.923H32.7668C27.8856 38.923 23.7752 43.1136 23.7752 47.8643V54.4403H18.8264C14.6433 54.4403 12.2 51.4041 11.1768 47.143C9.79667 41.4184 9.85529 37.9973 11.1768 32.5148C12.3225 27.7318 15.9853 25.2175 20.1684 25.2175H25.5701H39.9634V23.389H25.5701V17.9034C25.5701 13.7499 26.676 11.4977 32.7668 10.4216ZM34.5617 16.9976C34.5617 15.4804 33.3476 14.2464 31.8609 14.2464C30.3688 14.2464 29.1601 15.4804 29.1601 16.9976C29.1601 18.5094 30.3688 19.732 31.8609 19.732C33.3476 19.732 34.5617 18.5094 34.5617 16.9976ZM56.1348 31.6092V25.2178H61.5365C65.7249 25.2178 67.6994 28.3508 68.7332 32.5151C70.1719 38.2988 70.2359 42.6346 68.7332 47.1432C67.2784 51.5227 65.7196 54.4405 61.5365 54.4405H54.3399H39.9634V56.269H54.3399V61.7546C54.3399 65.9081 50.7668 68.0195 47.1432 69.0687C41.6919 70.6505 37.3228 70.4083 32.7667 69.0687C28.962 67.9496 25.5701 65.6553 25.5701 61.7546V48.0491C25.5701 44.1054 28.8287 40.735 32.7667 40.735H47.1432C51.9338 40.735 56.1348 36.5644 56.1348 31.6092ZM50.7499 62.6605C50.7499 61.1486 49.5412 59.9261 48.0491 59.9261C46.5624 59.9261 45.3483 61.1486 45.3483 62.6605C45.3483 64.1777 46.5624 65.4116 48.0491 65.4116C49.5412 65.4116 50.7499 64.1777 50.7499 62.6605Z" fill="url(#paint0_linear_1785_15271)"/>
<defs>
<linearGradient id="paint0_linear_1785_15271" x1="10.1636" y1="70.1661" x2="70.492" y2="10.4969" gradientUnits="userSpaceOnUse">
<stop stop-color="#EDEDED" stop-opacity="0.5"/>
<stop offset="1" stop-color="white"/>
</linearGradient>
</defs>
</svg>
