<svg width="512" height="512" viewBox="0 0 512 512" fill="none" xmlns="http://www.w3.org/2000/svg">
<path d="M33 256.043C33 264.556 35.3159 273.069 39.4845 280.202L117.993 415.493C126.098 429.298 138.373 440.572 153.657 445.634C183.764 455.528 214.797 442.873 229.618 417.333L248.609 384.661L173.806 256.043L252.777 119.831L271.768 87.1591C277.557 77.2654 284.968 69.4424 294 63H285.894H172.185C150.878 63 131.193 74.2742 120.54 92.6812L39.7161 231.884C35.3159 239.016 33 247.53 33 256.043Z" fill="#6363F1"/>
<path d="M480 256.058C480 247.539 477.684 239.021 473.516 231.883L393.849 94.6596C379.028 69.3331 347.995 56.4396 317.888 66.34C302.603 71.4053 290.329 82.6871 282.224 96.5015L264.391 127.354L339.194 256.058L260.223 392.131L241.232 424.825C235.443 434.495 228.032 442.553 219 449H227.106H340.815C362.122 449 381.807 437.718 392.46 419.299L473.284 280.003C477.684 272.866 480 264.577 480 256.058Z" fill="#6363F1"/>
</svg>
