<svg xmlns="http://www.w3.org/2000/svg" width="132" height="76" fill="none" viewBox="0 0 132 76"><g clip-path="url(#a)"><path fill="#020405" stroke="#fff" d="M135.023-31.29H-2.937v137.962h137.96z"/><g filter="url(#b)" opacity=".3"><path fill="#6f13a4" d="M-12.196 67.462C2.396 70.885 14.301 38.714 18.43 22.201 27.887-9.776 76.527 2.159 62.34-20.584c-14.186-22.743-37.154-.676-74.535-1.576-37.38-.901-10.133 34.903-10.358 59.673s-43.235 25.22-41.209 39.858c2.027 14.636 33.328-14.187 51.567-9.909"/></g><circle cx="84.481" cy="49.186" r=".417" fill="#7e7e7e" transform="rotate(4.398 84.481 49.186)"/><circle cx="70.665" cy="50.564" r=".417" fill="#7e7e7e" transform="rotate(108.965 70.665 50.564)"/><circle cx="60.431" cy="61.782" r=".417" fill="#7e7e7e" transform="rotate(108.965 60.431 61.782)"/><circle cx="52.849" cy="74.38" r=".417" fill="#7e7e7e" transform="rotate(108.965 52.849 74.38)"/><circle cx="52.298" cy="27.489" r=".417" fill="#7e7e7e" transform="rotate(108.965 52.298 27.49)"/><circle cx="109.712" cy="62.075" r=".417" fill="#7e7e7e" transform="rotate(108.965 109.712 62.075)"/><circle cx="81.169" cy="47.124" r=".417" fill="#7e7e7e" transform="rotate(4.398 81.169 47.124)"/><circle cx="120.923" cy="24.753" r=".417" fill="#7e7e7e" transform="rotate(4.398 120.923 24.753)"/><circle cx="81.142" cy="48.463" r=".417" fill="#7e7e7e" transform="rotate(4.398 81.142 48.463)"/><circle cx="77.466" cy="4.057" r=".417" fill="#7e7e7e" transform="rotate(4.398 77.466 4.057)"/><circle cx="77.497" cy="10.358" r=".417" fill="#7e7e7e" transform="rotate(4.398 77.497 10.358)"/><circle cx="82.618" cy="8.569" r=".417" fill="#7e7e7e" transform="rotate(4.398 82.618 8.569)"/><circle cx="74.185" cy="48.22" r=".417" fill="#7e7e7e" transform="rotate(108.965 74.185 48.22)"/><circle cx="112.642" cy="50.557" r=".417" fill="#7e7e7e" transform="rotate(169.398 112.642 50.557)"/><circle cx="120.539" cy="29.492" r=".417" fill="#7e7e7e" transform="rotate(-86.035 120.539 29.492)"/><circle cx="124.281" cy="29.019" r=".417" fill="#7e7e7e" transform="rotate(-86.035 124.281 29.019)"/><circle cx="126.234" cy="20.043" r=".417" fill="#7e7e7e" transform="rotate(-86.035 126.234 20.043)"/><circle cx="62.851" cy="25.335" r=".417" fill="#7e7e7e" transform="rotate(-86.035 62.851 25.335)"/><circle cx="130.66" cy="35.414" r=".417" fill="#7e7e7e" transform="rotate(-86.035 130.66 35.414)"/><circle cx="126.968" cy="8.714" r=".417" fill="#7e7e7e" transform="rotate(-86.035 126.968 8.714)"/><circle cx="74.273" cy="11.964" r=".417" fill="#7e7e7e" transform="rotate(-86.035 74.273 11.964)"/><circle cx="89.203" cy="-.086" r=".417" fill="#7e7e7e" transform="rotate(-86.035 89.203 -.086)"/><circle cx="67.984" cy="23.343" r=".417" fill="#7e7e7e" transform="rotate(-86.035 67.984 23.343)"/><circle cx="68.55" cy="25.418" r=".417" fill="#7e7e7e" transform="rotate(-86.035 68.55 25.418)"/><circle cx="77.316" cy="29.843" r=".417" fill="#7e7e7e" transform="rotate(-86.035 77.316 29.843)"/><circle cx="76.074" cy="32.101" r=".417" fill="#7e7e7e" transform="rotate(-86.035 76.074 32.101)"/><circle cx="84.929" cy="44.636" r=".417" fill="#7e7e7e" transform="rotate(-86.035 84.93 44.636)"/><circle cx="116.373" cy="51.702" r=".417" fill="#7e7e7e" transform="rotate(169.398 116.373 51.702)"/><circle cx="60.287" cy="67.093" r=".417" fill="#7e7e7e" transform="rotate(169.398 60.287 67.093)"/><circle cx="51.759" cy="33.706" r=".417" fill="#7e7e7e" transform="rotate(169.398 51.76 33.706)"/><circle cx="116.045" cy="50.393" r=".417" fill="#7e7e7e" transform="rotate(169.398 116.045 50.393)"/><circle cx="124.845" cy="75.46" r=".417" fill="#7e7e7e" transform="rotate(169.398 124.845 75.46)"/><g fill="#eadeec" filter="url(#c)"><ellipse cx=".011" cy=".012" rx=".011" ry=".012" transform="matrix(.99918 .0405 -.10874 .99407 81.86 17.414)"/><ellipse cx=".012" cy=".011" rx=".012" ry=".011" transform="matrix(.10208 -.99478 .99949 .03204 80.82 17.922)"/><ellipse cx=".012" cy=".011" rx=".012" ry=".011" transform="matrix(.10208 -.99478 .99949 .03204 81.512 17.34)"/></g><path fill="#9296aa" d="M30.542 38.092h-3.983v4.072h-1.024v-8.938h1.024v3.97h3.983v-3.97h1.024v8.938h-1.024zm10.1 4.072-.795-2.676h-3.214l-.794 2.676h-1.024l2.791-8.938h1.28l2.805 8.938zM38.58 35.25l-.282-1.114h-.128l-.282 1.114-1.011 3.394h2.74zm9.02 7.069q-.756 0-1.357-.27a2.7 2.7 0 0 1-1.025-.844q-.41-.564-.64-1.434-.218-.884-.218-2.075 0-1.19.218-2.061.23-.885.64-1.447a2.6 2.6 0 0 1 1.025-.833 3.2 3.2 0 0 1 1.357-.281q1.101 0 1.767.473.666.462 1.05 1.422l-.82.5q-.242-.732-.704-1.102-.448-.384-1.293-.384-1.024 0-1.588.742-.55.73-.55 1.972v1.998q0 1.242.55 1.985.564.73 1.588.73.87 0 1.344-.397.474-.41.718-1.178l.82.512q-.385.96-1.09 1.472-.69.5-1.792.5m8.445-4.584-1.165 1.46v2.97h-1.024v-8.938h1.024v2.984l-.077 1.844h.128l1.32-1.844 2.227-2.984h1.178l-2.945 3.829 3.137 5.11h-1.203zm12.242 4.43-.794-2.676h-3.214l-.794 2.676H62.46l2.792-8.938h1.28l2.805 8.938zm-2.062-6.915-.282-1.114h-.128l-.281 1.114-1.012 3.394h2.74zm8.368-1.126v8.041H73.57v-8.041h-2.523v-.897h6.07v.897zm10.777 3.97h-3.982v4.071h-1.025v-8.938h1.025v3.97h3.982v-3.97h1.024v8.938H85.37zm8.089 4.225q-1.626 0-2.523-1.114-.896-1.115-.896-3.509t.896-3.508q.897-1.114 2.523-1.114t2.523 1.114q.896 1.113.896 3.508t-.896 3.509-2.523 1.114m0-.91q1.114 0 1.716-.73.602-.741.602-1.984v-1.998q0-1.242-.602-1.972-.602-.742-1.716-.742t-1.716.742q-.602.73-.602 1.972v1.998q0 1.242.602 1.985.601.73 1.716.73m8.883-5.044-.781-1.844h-.128l.089 1.843v5.801h-.999v-8.938h1.255l2.971 5.8.781 1.845h.128l-.089-1.844v-5.8h.998v8.937h-1.255z"/></g><defs><filter id="b" width="223.636" height="207.347" x="-111.277" y="-78.351" color-interpolation-filters="sRGB" filterUnits="userSpaceOnUse"><feFlood flood-opacity="0" result="BackgroundImageFix"/><feBlend in="SourceGraphic" in2="BackgroundImageFix" result="shape"/><feGaussianBlur result="effect1_foregroundBlur_2932_199528" stdDeviation="23.723"/></filter><filter id="c" width="3.442" height="2.989" x="79.629" y="16.125" color-interpolation-filters="sRGB" filterUnits="userSpaceOnUse"><feFlood flood-opacity="0" result="BackgroundImageFix"/><feColorMatrix in="SourceAlpha" result="hardAlpha" values="0 0 0 0 0 0 0 0 0 0 0 0 0 0 0 0 0 0 127 0"/><feOffset/><feGaussianBlur stdDeviation=".596"/><feComposite in2="hardAlpha" operator="out"/><feColorMatrix values="0 0 0 0 1 0 0 0 0 0.980333 0 0 0 0 0.508333 0 0 0 0.5 0"/><feBlend in2="BackgroundImageFix" result="effect1_dropShadow_2932_199528"/><feBlend in="SourceGraphic" in2="effect1_dropShadow_2932_199528" result="shape"/></filter><clipPath id="a"><path fill="#fff" d="M.086 0H132v75.379H.086z"/></clipPath></defs></svg>