<svg xmlns="http://www.w3.org/2000/svg" width="1680" height="730" fill="none" viewBox="0 0 1680 730"><circle cx=".6" cy=".6" r=".6" fill="#fff" transform="matrix(.87308 .48758 -.78755 .61625 429.154 175.316)"/><circle cx=".6" cy=".6" r=".6" fill="#fff" transform="matrix(.99495 -.1004 .32255 .94655 263.797 71.219)"/><circle cx=".6" cy=".6" r=".6" fill="#fff" transform="matrix(.99495 -.1004 .32255 .94655 440 282.121)"/><circle cx=".6" cy=".6" r=".6" fill="#fff" transform="matrix(.99495 -.1004 .32255 .94655 410.404 338.926)"/><circle cx=".6" cy=".6" r=".6" fill="#fff" transform="matrix(.99495 -.1004 .32255 .94655 576 145.121)"/><circle cx=".6" cy=".6" r=".6" fill="#fff" transform="matrix(.06138 -.99811 .99741 .07192 961.715 604.32)"/><circle cx=".6" cy=".6" r=".6" fill="#fff" transform="matrix(.32255 .94655 -.99495 .1004 544.891 280.938)"/><circle cx=".6" cy=".6" r=".6" fill="#fff" transform="matrix(.32255 .94655 -.99495 .1004 1245.01 314.668)"/><circle cx=".6" cy=".6" r=".6" fill="#fff" transform="matrix(.32255 .94655 -.99495 .1004 989.111 172.809)"/><circle cx=".6" cy=".6" r=".6" fill="#fff" transform="matrix(.32255 .94655 -.99495 .1004 974.557 162.211)"/><circle cx=".6" cy=".6" r=".6" fill="#fff" transform="matrix(.32255 .94655 -.99495 .1004 861.078 260.352)"/><circle cx=".6" cy=".6" r=".6" fill="#fff" transform="matrix(-.32255 -.94655 .99495 -.1004 814.387 514.258)"/><circle cx=".6" cy=".6" r=".6" fill="#fff" transform="matrix(-.32255 -.94655 .99495 -.1004 995.66 552.828)"/><circle cx=".6" cy=".6" r=".6" fill="#fff" transform="matrix(-.32255 -.94655 .99495 -.1004 1154.39 545.258)"/><circle cx=".6" cy=".6" r=".6" fill="#fff" transform="matrix(-.95101 -.30916 .56102 -.8278 280.908 307.363)"/><circle cx=".6" cy=".6" r=".6" fill="#fff" transform="matrix(-.95101 -.30916 .56102 -.8278 601.275 539.539)"/><circle cx=".6" cy=".6" r=".6" fill="#fff" transform="matrix(-.95101 -.30916 .56102 -.8278 250.141 326.566)"/><circle cx=".6" cy=".6" r=".6" fill="#fff" transform="matrix(-.95101 -.30916 .56102 -.8278 1553.78 554.305)"/><circle cx=".6" cy=".6" r=".6" fill="#fff" transform="matrix(-.95101 -.30916 .56102 -.8278 322.141 513.363)"/><circle cx=".6" cy=".6" r=".6" fill="#fff" transform="matrix(-.95101 -.30916 .56102 -.8278 1504.14 366.363)"/><circle cx=".6" cy=".6" r=".6" fill="#fff" transform="matrix(-.95101 -.30916 .56102 -.8278 1140.55 485.527)"/><circle cx=".6" cy=".6" r=".6" fill="#fff" transform="matrix(-.95101 -.30916 .56102 -.8278 108.141 433.363)"/><circle cx=".6" cy=".6" r=".6" fill="#fff" transform="matrix(-.95101 -.30916 .56102 -.8278 1285.14 263.363)"/><circle cx=".6" cy=".6" r=".6" fill="#fff" transform="matrix(-.95101 -.30916 .56102 -.8278 1372.09 492.215)"/><circle cx=".6" cy=".6" r=".6" fill="#fff" transform="matrix(-.95101 -.30916 .56102 -.8278 630.725 434.363)"/><circle cx=".6" cy=".6" r=".6" fill="#fff" transform="matrix(-.95101 -.30916 .56102 -.8278 696.141 281.363)"/><circle cx=".6" cy=".6" r=".6" fill="#fff" transform="matrix(-.95101 -.30916 .56102 -.8278 1343.31 263.105)"/><circle cx=".6" cy=".6" r=".6" fill="#fff" transform="matrix(-.95101 -.30916 .56102 -.8278 320.141 360.363)"/><circle cx=".6" cy=".6" r=".6" fill="#fff" transform="matrix(-.95101 -.30916 .56102 -.8278 1086.54 295.914)"/><circle cx=".6" cy=".6" r=".6" fill="#fff" transform="matrix(-.95883 .28399 -.6137 -.78954 1308.95 468.746)"/><circle cx=".6" cy=".6" r=".6" fill="#fff" transform="matrix(-.95883 .28399 -.6137 -.78954 1327.66 447.223)"/><circle cx=".6" cy=".6" r=".6" fill="#fff" transform="matrix(-.95883 .28399 -.6137 -.78954 1469.98 192.406)"/><circle cx=".6" cy=".6" r=".6" fill="#fff" transform="matrix(-.95883 .28399 -.6137 -.78954 586.887 448.488)"/></svg>