<svg xmlns="http://www.w3.org/2000/svg" width="629" height="341" fill="none" viewBox="0 0 629 341"><g clip-path="url(#a)"><path fill="#030a0c" d="M1 1h627v339H1z"/><g filter="url(#b)" opacity=".3"><ellipse cx="46.585" cy="345.021" fill="url(#c)" rx="231.808" ry="137.404"/></g><g filter="url(#d)" opacity=".3"><ellipse cx="471.023" cy="218.748" fill="url(#e)" rx="231.808" ry="137.404"/></g><g filter="url(#f)"><rect width="596.836" height="269.605" x="56.164" y="72.258" fill="#0b1015" rx="6.23"/><rect width="597.225" height="269.995" x="55.969" y="72.063" stroke="url(#g)" stroke-width=".389" rx="6.425"/></g><path stroke="#a7a7a7" stroke-width=".389" d="m211.024 83.145-4.11 4.11M211.023 87.254l-4.109-4.11"/><g filter="url(#h)"><path fill="#fff" fill-opacity=".02" d="M56.164 78.488a6.23 6.23 0 0 1 6.23-6.23h24.692v273.499H56.164z"/></g><path fill="#fff" fill-opacity=".31" d="M73.612 120.094v-.953h2.61v-7.351h-.09l-2.298 2.142-.64-.692 2.415-2.259h1.71v8.16h2.403v.953z"/><path fill="#fff" fill-opacity=".06" d="M79.513 139.43h-6.084v-1.123l3.042-2.741q.666-.601 1.097-1.228.43-.639.43-1.344v-.157q0-.823-.43-1.266-.431-.457-1.28-.457-.836 0-1.292.43-.444.418-.666 1.123l-.98-.365q.132-.405.353-.784.235-.391.588-.692t.848-.483q.51-.183 1.175-.182.68 0 1.201.195.535.197.888.549.366.352.549.835.195.483.195 1.058 0 .522-.156.979a3.5 3.5 0 0 1-.418.875 5.4 5.4 0 0 1-.64.822 10 10 0 0 1-.822.783l-2.546 2.22h4.948zM76.027 153.518q.953 0 1.423-.418.483-.43.483-1.097v-.091q0-.73-.47-1.097-.457-.365-1.2-.365-.732 0-1.189.326-.444.314-.731.836l-.823-.627q.17-.274.418-.535.248-.274.575-.483.34-.209.77-.34.444-.13 1.005-.13.587 0 1.097.156.51.144.888.444.378.288.587.718.222.432.222.98 0 .443-.143.796a1.8 1.8 0 0 1-.38.614 2.2 2.2 0 0 1-.56.443 2.8 2.8 0 0 1-.692.275v.052q.378.078.73.261.354.17.627.457.275.274.431.679.17.391.17.901 0 .587-.235 1.083a2.4 2.4 0 0 1-.64.836q-.404.34-.992.535-.575.196-1.28.196-.6 0-1.07-.131a3.4 3.4 0 0 1-.823-.352 3.6 3.6 0 0 1-.626-.496 5 5 0 0 1-.47-.575l.822-.626a5 5 0 0 0 .379.496q.195.222.444.391.261.158.587.248.327.092.757.092.967 0 1.476-.444.522-.444.522-1.266v-.105q0-.81-.51-1.253-.495-.444-1.5-.444h-1.084v-.94zM77.437 178.103v-1.789h-4.491v-.966l3.943-6.358h1.593v6.423h1.357v.901h-1.357v1.789zm-3.512-2.69h3.512v-5.575h-.052zM79.043 189.279H74.97l-.261 3.486h.09q.34-.457.758-.718.419-.274 1.149-.274.6 0 1.097.195.509.183.874.549.366.364.575.888.21.509.209 1.175 0 .665-.21 1.227-.208.548-.613.953-.405.391-.979.613a3.6 3.6 0 0 1-1.306.222q-.573 0-1.03-.13a3.2 3.2 0 0 1-.797-.353 3.4 3.4 0 0 1-.6-.496 5 5 0 0 1-.47-.574l.822-.627q.182.274.365.496.196.222.444.392.248.156.561.248.314.091.732.091.94 0 1.436-.509.51-.508.509-1.41v-.104q0-.902-.51-1.41-.508-.51-1.462-.509-.652 0-1.018.221a3.2 3.2 0 0 0-.653.549l-.927-.131.327-5.013h4.961zM76.432 216.932a3.4 3.4 0 0 1-1.293-.235 2.8 2.8 0 0 1-.979-.692 3.3 3.3 0 0 1-.613-1.11 4.8 4.8 0 0 1-.21-1.462q0-1.018.3-1.906.314-.901.784-1.632a7.3 7.3 0 0 1 1.07-1.306 7 7 0 0 1 1.15-.927h1.41q-.744.535-1.332 1.045a8.4 8.4 0 0 0-1.018 1.07 5.8 5.8 0 0 0-.744 1.188q-.3.627-.497 1.423l.066.026q.326-.561.861-.926.536-.38 1.384-.379.6 0 1.097.196.495.195.862.561.364.366.561.888a3.1 3.1 0 0 1 .209 1.162q0 .666-.222 1.227a2.8 2.8 0 0 1-.627.953 2.75 2.75 0 0 1-.966.614 3.4 3.4 0 0 1-1.253.222m-.013-.927q.94 0 1.449-.509.522-.51.522-1.437v-.104q0-.927-.522-1.436-.51-.51-1.45-.509-.939 0-1.461.509-.51.509-.51 1.436v.104q0 .927.51 1.437.522.509 1.462.509M74.76 236.111l3.565-8.173H74.33v1.698h-.98v-2.638h6.085v.967l-3.5 8.146zM76.419 255.604q-.797 0-1.397-.196a3 3 0 0 1-1.005-.561 2.4 2.4 0 0 1-.601-.836 2.8 2.8 0 0 1-.196-1.044q0-.94.51-1.488.508-.549 1.344-.771v-.104q-.731-.248-1.162-.797-.418-.561-.418-1.344 0-1.045.77-1.658.77-.627 2.155-.627 1.383 0 2.154.627.77.613.77 1.658 0 .783-.43 1.344-.419.55-1.15.797v.104q.836.222 1.345.771.51.547.51 1.488a2.6 2.6 0 0 1-.21 1.044q-.195.483-.6.836a3 3 0 0 1-1.005.561q-.588.196-1.384.196m0-.927q.966 0 1.514-.431.549-.43.549-1.214v-.287q0-.783-.549-1.214-.535-.43-1.514-.431-.98 0-1.528.431-.535.43-.535 1.214v.287q0 .783.548 1.214.548.432 1.515.431m0-4.465q.888 0 1.344-.378.47-.38.47-1.084v-.183q0-.705-.483-1.083-.47-.38-1.331-.379-.862 0-1.345.379-.47.378-.47 1.083v.183q0 .705.457 1.084.47.378 1.358.378M79.5 269.013q0 1.019-.313 1.919a7.2 7.2 0 0 1-.784 1.632 8 8 0 0 1-1.07 1.306 7 7 0 0 1-1.136.914h-1.41q.744-.535 1.318-1.045a8.4 8.4 0 0 0 1.032-1.057 6.4 6.4 0 0 0 .744-1.188q.3-.64.496-1.436l-.065-.027a3.1 3.1 0 0 1-.875.94q-.522.366-1.37.366-.602 0-1.11-.196a2.5 2.5 0 0 1-.862-.561 2.8 2.8 0 0 1-.561-.875 3.3 3.3 0 0 1-.196-1.175q0-.666.209-1.214.221-.561.626-.953.405-.405.966-.627a3.5 3.5 0 0 1 1.267-.222q.718 0 1.292.248.574.236.966.692.405.444.614 1.097.222.652.222 1.462m-3.081 1.423q.94 0 1.449-.509.522-.509.522-1.436v-.105q0-.926-.522-1.436-.51-.509-1.45-.509-.939 0-1.461.509-.51.51-.51 1.436v.105q0 .927.51 1.436.522.509 1.462.509M65.698 294.12v-.953h2.61v-7.35h-.09l-2.298 2.141-.64-.692 2.415-2.259h1.71v8.16h2.403v.953zm10.635.157q-.836 0-1.436-.314a2.7 2.7 0 0 1-.992-.927q-.392-.6-.575-1.475a10 10 0 0 1-.183-1.997q0-1.11.183-1.985.183-.888.575-1.488.39-.601.992-.914.6-.327 1.436-.326.836 0 1.436.326.6.313.992.914.392.6.575 1.488.182.875.183 1.985 0 1.122-.183 1.997t-.575 1.475a2.7 2.7 0 0 1-.992.927q-.601.314-1.436.314m0-.953q.548 0 .94-.209.391-.222.627-.614.248-.391.365-.94.118-.561.118-1.253v-1.489q0-.678-.118-1.24a2.9 2.9 0 0 0-.365-.953 1.6 1.6 0 0 0-.627-.6q-.392-.222-.94-.222-.549 0-.94.222a1.7 1.7 0 0 0-.64.6 3 3 0 0 0-.352.953 6 6 0 0 0-.118 1.24v1.489q0 .692.118 1.253.118.549.352.94a1.8 1.8 0 0 0 .64.614q.391.209.94.209m0-2.99q-.457 0-.64-.183a.63.63 0 0 1-.17-.444v-.287a.63.63 0 0 1 .17-.444q.183-.183.64-.183t.627.183q.182.183.182.444v.287q0 .261-.182.444-.17.183-.627.183M65.698 313.456v-.953h2.61v-7.35h-.09l-2.298 2.141-.64-.692 2.415-2.259h1.71v8.16h2.403v.953zm7.828 0v-.953h2.611v-7.35h-.091l-2.298 2.141-.64-.692 2.415-2.259h1.71v8.16h2.403v.953zM65.698 332.792v-.953h2.61v-7.35h-.09l-2.298 2.141-.64-.692 2.415-2.258h1.71v8.159h2.403v.953zm13.73 0h-6.085v-1.122l3.042-2.742q.666-.6 1.097-1.227.43-.64.43-1.345v-.157q0-.822-.43-1.266-.43-.457-1.28-.457-.835 0-1.292.431-.444.418-.666 1.123l-.98-.366q.132-.405.353-.783.236-.392.588-.692t.849-.483q.508-.183 1.174-.183.679 0 1.202.196.534.195.887.548.366.353.549.836.195.483.195 1.057 0 .522-.156.979a3.5 3.5 0 0 1-.418.875 5.4 5.4 0 0 1-.64.823q-.364.392-.822.783l-2.546 2.219h4.948z"/><path fill="#1cf7c3" d="M106.144 119.477a3.3 3.3 0 0 1-1.306-.248 2.8 2.8 0 0 1-.953-.718 3.2 3.2 0 0 1-.6-1.11 5 5 0 0 1-.196-1.449q0-.796.209-1.449.208-.652.6-1.11.392-.47.953-.718a3.15 3.15 0 0 1 1.28-.248q.98 0 1.593.431.614.43.9 1.123l-.835.443a1.57 1.57 0 0 0-.614-.809q-.417-.287-1.044-.287-.457 0-.823.156a1.6 1.6 0 0 0-.6.418 1.9 1.9 0 0 0-.379.653 2.8 2.8 0 0 0-.117.823v1.148q0 .445.117.823.13.378.379.653.248.273.613.431.366.143.836.143.68 0 1.123-.313.444-.313.705-.862l.744.509a2.66 2.66 0 0 1-.94 1.123q-.627.444-1.645.444m9.186-1.253h-.052q-.105.248-.261.483a1.7 1.7 0 0 1-.392.391 1.8 1.8 0 0 1-.535.275 2.3 2.3 0 0 1-.732.104q-1.057 0-1.697-.666-.639-.678-.639-1.906v-4.321h1.044v4.138q0 .927.405 1.384.405.444 1.188.444.313 0 .613-.078.301-.08.536-.235a1.25 1.25 0 0 0 .378-.392q.144-.248.144-.587v-4.674h1.044v6.736h-1.044zm3.324.209h1.971v-4.962h-1.971v-.887h3.016v1.697h.065q.209-.796.783-1.24.588-.457 1.489-.457h.94v1.044h-1.267q-.9 0-1.462.522-.548.522-.548 1.371v2.912h2.611v.887h-5.627zm7.867 0h2.35v-7.886h-2.35v-.888h3.395v8.774h2.35v.887h-5.745z"/><path fill="#ab9661" d="M165.793 119.32v-9.112h3.316q1.267 0 1.933.691.665.693.665 1.933t-.665 1.932q-.666.692-1.933.692h-2.219v3.864zm1.097-4.817h2.193q.692 0 1.071-.34.391-.352.391-.992v-.679q0-.64-.391-.979-.38-.352-1.071-.352h-2.193zm9.473 4.974q-.836 0-1.436-.313a2.74 2.74 0 0 1-.992-.927q-.392-.6-.575-1.476a10 10 0 0 1-.182-1.997q0-1.11.182-1.985.183-.886.575-1.488.392-.6.992-.914.6-.326 1.436-.326t1.436.326q.601.314.992.914.392.602.575 1.488a9.8 9.8 0 0 1 .183 1.985 10 10 0 0 1-.183 1.997q-.183.875-.575 1.476a2.7 2.7 0 0 1-.992.927q-.6.313-1.436.313m0-.953q.549 0 .927-.209.378-.221.627-.614.248-.391.352-.94.118-.561.118-1.253v-1.488q0-.679-.118-1.241a2.7 2.7 0 0 0-.352-.953 1.7 1.7 0 0 0-.627-.6q-.378-.222-.927-.222-.548 0-.927.222a1.7 1.7 0 0 0-.627.6 2.9 2.9 0 0 0-.365.953q-.105.562-.105 1.241v1.488q0 .692.105 1.253.117.549.365.94.249.393.627.614.38.209.927.209m7.802.953q-1.227 0-2.01-.444a4.2 4.2 0 0 1-1.293-1.162l.797-.653q.535.666 1.122.993.601.326 1.423.326.993 0 1.515-.457t.522-1.279q0-.666-.379-1.032-.378-.379-1.318-.535l-1.018-.17a4 4 0 0 1-1.123-.352 2.4 2.4 0 0 1-.718-.562 2.1 2.1 0 0 1-.392-.731 3 3 0 0 1-.117-.835q0-1.254.822-1.893.822-.64 2.219-.64 1.097 0 1.841.365.758.366 1.214 1.032l-.77.666a3.1 3.1 0 0 0-.914-.81q-.535-.313-1.384-.313-.927 0-1.423.392-.495.391-.496 1.175 0 .614.366 1.005.378.378 1.345.548l.979.17q.666.118 1.122.352.458.235.732.562.287.326.404.731t.118.848q0 1.267-.836 1.985-.822.718-2.35.718m8.403-8.316v8.159h-1.097v-8.159h-3.042v-.953h7.181v.953zm16.91 9.961-4.544-11.724h.94l4.544 11.724zm-80.581 11.154v-3.617h.993v3.617zm8.625 6.201q-1.671 0-2.493-1.214-.81-1.215-.81-3.499 0-2.285.81-3.499.822-1.214 2.493-1.214.627 0 1.084.17.456.17.783.457t.548.652q.222.353.392.718l-.94.431q-.118-.3-.274-.561a1.8 1.8 0 0 0-.379-.47 1.5 1.5 0 0 0-.509-.327 1.9 1.9 0 0 0-.705-.117q-1.083 0-1.619.822-.522.823-.522 2.194v1.488q0 1.371.522 2.193.536.823 1.619.823.418 0 .705-.118.3-.117.509-.313.222-.209.379-.47.156-.274.274-.574l.94.43a6 6 0 0 1-.392.732q-.221.353-.548.639a2.5 2.5 0 0 1-.783.457 3.1 3.1 0 0 1-1.084.17m7.528 0a3.2 3.2 0 0 1-1.279-.248 2.75 2.75 0 0 1-.966-.705 3.3 3.3 0 0 1-.601-1.11 4.8 4.8 0 0 1-.209-1.462q0-.797.209-1.449.208-.653.601-1.11.404-.47.966-.718a3.2 3.2 0 0 1 1.279-.248q.705 0 1.266.248.574.248.967.718.404.458.613 1.11t.209 1.449q0 .81-.209 1.462a3.2 3.2 0 0 1-.613 1.11q-.393.457-.967.705a3.1 3.1 0 0 1-1.266.248m0-.901q.875 0 1.41-.522t.535-1.619v-.966q0-1.097-.535-1.619t-1.41-.522-1.41.522-.535 1.619v.966q0 1.097.535 1.619.536.522 1.41.522m5.191.744v-6.736h1.045v1.096h.052q.103-.248.261-.47.156-.234.379-.404.234-.17.548-.275a2.3 2.3 0 0 1 .731-.104q1.058 0 1.697.679.64.666.64 1.893v4.321h-1.045v-4.138q0-.927-.404-1.371-.405-.457-1.188-.457-.314 0-.614.078t-.535.235-.379.405a1.1 1.1 0 0 0-.143.574v4.674zm10.792 0q-.77 0-1.136-.431-.352-.43-.352-1.109v-4.309h-2.246v-.887h1.671q.34 0 .47-.131.144-.144.144-.483v-1.762h1.005v2.376h3.068v.887h-3.068v4.962h3.068v.887zm7.619.157q-.731 0-1.318-.248a2.86 2.86 0 0 1-.992-.705 3.4 3.4 0 0 1-.627-1.11 4.5 4.5 0 0 1-.222-1.449q0-.81.222-1.462.235-.653.64-1.11.403-.47.966-.718a3.2 3.2 0 0 1 1.266-.248q.68 0 1.227.248.562.248.953.692.392.43.601 1.031a4 4 0 0 1 .209 1.319v.496h-4.987v.313q0 .445.143.823.144.378.405.653.274.273.653.431a2.5 2.5 0 0 0 .861.143q.68 0 1.175-.313a2.03 2.03 0 0 0 .758-.862l.77.522q-.3.68-1.005 1.123-.692.43-1.698.431m-.065-6.188a2 2 0 0 0-1.436.587 2.1 2.1 0 0 0-.418.653 2.2 2.2 0 0 0-.143.809v.092h3.864v-.144q0-.444-.144-.809a1.75 1.75 0 0 0-.378-.627 1.5 1.5 0 0 0-.588-.418 1.9 1.9 0 0 0-.757-.143m5.139 6.031v-6.736h1.044v1.096h.053q.103-.248.261-.47a1.7 1.7 0 0 1 .378-.404q.236-.17.549-.275.312-.104.731-.104 1.057 0 1.697.679.64.666.64 1.893v4.321h-1.045v-4.138q0-.927-.405-1.371-.404-.457-1.188-.457a2.4 2.4 0 0 0-.613.078q-.3.078-.535.235t-.379.405a1.1 1.1 0 0 0-.144.574v4.674zm10.792 0q-.77 0-1.136-.431-.353-.43-.353-1.109v-4.309h-2.245v-.887h1.671q.34 0 .47-.131.144-.144.144-.483v-1.762h1.005v2.376h3.068v.887h-3.068v4.962h3.068v.887zm5.609-3.42v-1.097h3.786v1.097zm10.269-4.739v8.159h-1.097v-8.159h-3.041v-.953h7.18v.953zm9.46 1.423h1.045l-3.342 8.212a2.7 2.7 0 0 1-.262.496 1.2 1.2 0 0 1-.339.352 1.3 1.3 0 0 1-.47.209q-.274.078-.653.078h-.992v-.887h1.567l.757-1.854-2.716-6.606h1.071l1.136 2.82 1.005 2.559h.052l1.006-2.559zm2.972 0h1.044v1.096h.053q.653-1.253 2.075-1.253 1.24 0 1.933.927.705.927.705 2.598t-.705 2.598q-.693.927-1.933.927-1.422 0-2.075-1.253h-.053v3.707h-1.044zm2.768 5.966q.914 0 1.41-.548.509-.562.509-1.476v-1.148q0-.915-.509-1.463-.496-.561-1.41-.561-.353 0-.666.091a1.6 1.6 0 0 0-.548.274 1.3 1.3 0 0 0-.379.431 1.25 1.25 0 0 0-.131.588v2.428q0 .34.131.601.144.248.379.431.234.17.548.261t.666.091m7.854.927a3.4 3.4 0 0 1-1.319-.248 2.9 2.9 0 0 1-.992-.705 3.4 3.4 0 0 1-.626-1.11 4.5 4.5 0 0 1-.222-1.449q0-.81.222-1.462.234-.653.639-1.11.405-.47.966-.718a3.2 3.2 0 0 1 1.267-.248q.678 0 1.227.248.561.248.953.692.391.43.601 1.031a4 4 0 0 1 .209 1.319v.496h-4.988v.313q0 .445.144.823t.405.653q.274.273.652.431.393.143.862.143.679 0 1.175-.313t.757-.862l.771.522q-.301.68-1.006 1.123-.692.43-1.697.431m-.065-6.188q-.43 0-.797.156a2 2 0 0 0-.639.431 2.1 2.1 0 0 0-.418.653 2.2 2.2 0 0 0-.144.809v.092h3.865v-.144q0-.444-.144-.809a1.75 1.75 0 0 0-.378-.627 1.5 1.5 0 0 0-.588-.418 1.9 1.9 0 0 0-.757-.143m7.776 6.149q-.535 0-.757-.222a.78.78 0 0 1-.209-.562v-.235q0-.339.209-.561.222-.222.757-.222.536 0 .744.222a.76.76 0 0 1 .222.561v.235a.76.76 0 0 1-.222.562q-.208.222-.744.222m0-5.17q-.535 0-.757-.222a.78.78 0 0 1-.209-.562v-.235q0-.339.209-.561.222-.222.757-.222.536 0 .744.222a.76.76 0 0 1 .222.561v.235a.76.76 0 0 1-.222.562q-.208.222-.744.222m18.202 5.052q-.613 0-.875-.313a1.53 1.53 0 0 1-.326-.783h-.065q-.223.587-.718.927-.484.326-1.306.326-1.057 0-1.684-.548-.627-.549-.627-1.502 0-.939.679-1.449.692-.509 2.22-.509h1.436v-.666q0-.744-.418-1.11-.418-.378-1.188-.378-.68 0-1.11.274a1.96 1.96 0 0 0-.692.718l-.705-.522q.13-.261.353-.509a2.1 2.1 0 0 1 .548-.431q.327-.196.744-.301.418-.117.927-.117 1.188 0 1.88.601.705.6.705 1.671v3.707h.94v.914zm-3.107-.718q.405 0 .731-.091.339-.105.588-.261.248-.17.378-.392a.94.94 0 0 0 .144-.496v-1.11h-1.436q-.94 0-1.371.261a.84.84 0 0 0-.431.758v.274q0 .522.366.796.378.261 1.031.261m5.713-6.018h1.045v1.096h.052q.653-1.253 2.076-1.253 1.24 0 1.932.927.705.927.705 2.598t-.705 2.598q-.692.927-1.932.927-1.423 0-2.076-1.253h-.052v3.707h-1.045zm2.768 5.966q.914 0 1.41-.548.509-.562.509-1.476v-1.148q0-.915-.509-1.463-.496-.561-1.41-.561-.352 0-.666.091a1.6 1.6 0 0 0-.548.274 1.3 1.3 0 0 0-.379.431 1.25 1.25 0 0 0-.13.588v2.428q0 .34.13.601.144.248.379.431.234.17.548.261t.666.091m5.06-5.966h1.045v1.096h.052q.653-1.253 2.076-1.253 1.24 0 1.932.927.705.927.705 2.598t-.705 2.598q-.692.927-1.932.927-1.423 0-2.076-1.253h-.052v3.707h-1.045zm2.768 5.966q.913 0 1.41-.548.51-.562.509-1.476v-1.148q0-.915-.509-1.463-.496-.561-1.41-.561-.353 0-.666.091a1.6 1.6 0 0 0-.548.274 1.3 1.3 0 0 0-.379.431 1.25 1.25 0 0 0-.13.588v2.428q0 .34.13.601.144.248.379.431.235.17.548.261t.666.091m4.865-.117h2.35v-7.886h-2.35v-.888h3.394v8.774h2.35v.887h-5.744zm11.118-7.338q-.457 0-.64-.182a.69.69 0 0 1-.182-.484v-.208q0-.288.182-.47.183-.196.64-.196t.64.196a.63.63 0 0 1 .183.47v.208a.68.68 0 0 1-.183.484q-.183.182-.64.182m-2.95 7.338h2.428v-4.962h-2.428v-.887h3.472v5.849h2.272v.887h-5.744zm10.596 1.044a3.3 3.3 0 0 1-1.306-.248 2.8 2.8 0 0 1-.953-.718 3.2 3.2 0 0 1-.601-1.11 5 5 0 0 1-.195-1.449q0-.797.208-1.449.21-.653.601-1.11.392-.47.953-.718a3.1 3.1 0 0 1 1.28-.248q.978 0 1.592.431.614.43.901 1.123l-.835.443a1.57 1.57 0 0 0-.614-.809q-.418-.287-1.044-.287-.457 0-.823.156a1.6 1.6 0 0 0-.601.418 1.9 1.9 0 0 0-.378.653 2.8 2.8 0 0 0-.118.823v1.148q0 .445.118.823.13.378.378.653.248.273.614.431.365.143.836.143.678 0 1.122-.313t.705-.862l.745.509a2.67 2.67 0 0 1-.94 1.123q-.627.444-1.645.444m10.139-.157q-.614 0-.875-.313a1.5 1.5 0 0 1-.326-.783h-.066q-.222.587-.718.927-.483.326-1.305.326-1.058 0-1.685-.548-.626-.549-.626-1.502 0-.939.679-1.449.692-.509 2.219-.509h1.436v-.666q0-.744-.418-1.11-.417-.378-1.188-.378-.678 0-1.109.274a1.95 1.95 0 0 0-.692.718l-.705-.522q.13-.261.352-.509a2.1 2.1 0 0 1 .549-.431q.325-.196.744-.301.417-.117.927-.117 1.188 0 1.88.601.705.6.705 1.671v3.707h.94v.914zm-3.108-.718q.405 0 .732-.091.34-.105.587-.261.248-.17.379-.392a.94.94 0 0 0 .143-.496v-1.11h-1.436q-.94 0-1.371.261a.84.84 0 0 0-.431.758v.274q0 .522.366.796.378.261 1.031.261m8.716.718q-.77 0-1.135-.431-.353-.43-.353-1.109v-4.309h-2.245v-.887h1.671q.34 0 .47-.131.143-.144.143-.483v-1.762h1.006v2.376h3.068v.887h-3.068v4.962h3.068v.887zm7.92-8.225q-.457 0-.64-.182a.69.69 0 0 1-.182-.484v-.208q0-.288.182-.47.183-.196.64-.196t.64.196a.63.63 0 0 1 .183.47v.208a.68.68 0 0 1-.183.484q-.183.182-.64.182m-2.95 7.338h2.428v-4.962h-2.428v-.887h3.472v5.849h2.272v.887h-5.744zm10.361 1.044q-.705 0-1.28-.248a2.8 2.8 0 0 1-.966-.705 3.3 3.3 0 0 1-.601-1.11 4.8 4.8 0 0 1-.208-1.462q0-.797.208-1.449.21-.653.601-1.11.405-.47.966-.718.575-.248 1.28-.248t1.266.248q.574.248.966.718.404.458.614 1.11t.209 1.449q0 .81-.209 1.462-.21.64-.614 1.11-.392.457-.966.705a3.1 3.1 0 0 1-1.266.248m0-.901q.875 0 1.41-.522t.535-1.619v-.966q0-1.097-.535-1.619-.536-.522-1.41-.522-.876 0-1.41.522-.536.522-.536 1.619v.966q0 1.097.536 1.619.534.522 1.41.522m5.191.744v-6.736h1.044v1.096h.052q.105-.248.261-.47.157-.234.379-.404a2 2 0 0 1 .548-.275q.314-.104.731-.104 1.058 0 1.698.679.639.666.639 1.893v4.321h-1.044v-4.138q0-.927-.405-1.371-.405-.457-1.188-.457-.313 0-.613.078a1.8 1.8 0 0 0-.536.235q-.235.157-.378.405a1.1 1.1 0 0 0-.144.574v4.674zm7.723 1.802 4.544-11.724h.94l-4.544 11.724zm7.985-.078h3.264v-7.573h-3.381v-.887h4.426v7.807q0 .678-.366 1.11-.352.43-1.123.43h-2.82zm3.786-9.949q-.456 0-.639-.182a.68.68 0 0 1-.183-.484v-.208q0-.288.183-.47.183-.196.639-.196.457 0 .64.196a.63.63 0 0 1 .183.47v.208a.68.68 0 0 1-.183.484q-.183.182-.64.182m6.706 8.382q-1.057 0-1.828-.353a4.1 4.1 0 0 1-1.292-.966l.705-.613q.483.508 1.057.783.574.274 1.384.274.784 0 1.279-.274.51-.287.51-.888a.8.8 0 0 0-.105-.431.7.7 0 0 0-.261-.287 1.3 1.3 0 0 0-.379-.156 3 3 0 0 0-.443-.105l-1.058-.157a11 11 0 0 1-.77-.143 2.7 2.7 0 0 1-.744-.287 1.9 1.9 0 0 1-.575-.549q-.222-.34-.222-.887 0-.51.196-.875.209-.379.574-.627.366-.261.862-.378a4.2 4.2 0 0 1 1.084-.131q.914 0 1.579.287.68.287 1.162.797l-.678.639a2 2 0 0 0-.301-.287 1.6 1.6 0 0 0-.431-.274 2.4 2.4 0 0 0-.587-.209 3.5 3.5 0 0 0-.783-.078q-.796 0-1.228.274-.417.274-.417.796 0 .261.091.444.105.17.274.274t.379.17q.222.052.444.091l1.057.157q.366.052.77.144.405.091.745.3.339.196.561.535.235.34.235.888 0 1.005-.783 1.554-.77.548-2.063.548m7.75 0q-.705 0-1.28-.248a2.8 2.8 0 0 1-.966-.705 3.3 3.3 0 0 1-.6-1.11 4.8 4.8 0 0 1-.209-1.462q0-.797.209-1.449.208-.653.6-1.11.405-.47.966-.718.575-.248 1.28-.248t1.266.248q.574.248.966.718.405.458.614 1.11t.209 1.449q0 .81-.209 1.462a3.2 3.2 0 0 1-.614 1.11q-.392.457-.966.705a3.1 3.1 0 0 1-1.266.248m0-.901q.875 0 1.41-.522t.535-1.619v-.966q0-1.097-.535-1.619-.536-.522-1.41-.522-.875 0-1.41.522t-.535 1.619v.966q0 1.097.535 1.619.536.522 1.41.522m5.191.744v-6.736h1.044v1.096h.052q.105-.248.262-.47a1.7 1.7 0 0 1 .378-.404q.236-.17.549-.275.312-.104.731-.104 1.057 0 1.697.679.64.666.64 1.893v4.321h-1.045v-4.138q0-.927-.405-1.371-.404-.457-1.188-.457-.313 0-.613.078a1.8 1.8 0 0 0-.536.235q-.234.157-.378.405a1.1 1.1 0 0 0-.144.574v4.674zm9.969-6.044v-3.617h.992v3.617zm17.954 7.846-4.543-11.724h.94l4.543 11.724zm-260.63 12.154v-3.617h.993v3.617zm10.688 6.044-.77-2.598h-3.199l-.77 2.598h-1.136l2.794-9.112h1.449l2.794 9.112zm-2.311-7.951h-.117l-1.28 4.4h2.677zm9.369 6.855h-.052q-.105.248-.261.483a1.7 1.7 0 0 1-.392.391 1.8 1.8 0 0 1-.535.275 2.3 2.3 0 0 1-.732.104q-1.057 0-1.697-.666-.639-.679-.639-1.906v-4.321h1.044v4.138q0 .928.405 1.384.405.444 1.188.444.313 0 .613-.078.301-.08.536-.235a1.25 1.25 0 0 0 .378-.392q.144-.248.144-.587v-4.674h1.044v6.736h-1.044zm6.562 1.096q-.77 0-1.136-.431-.353-.43-.353-1.109v-4.309h-2.245v-.887h1.671q.34 0 .47-.131.144-.144.144-.483v-1.762h1.005v2.376h3.068v.887h-3.068v4.962h3.068v.887zm4.864-9.661h1.045v4.021h.052q.105-.248.261-.47.157-.234.379-.404.234-.17.548-.275.314-.104.731-.104 1.058 0 1.697.679.64.666.64 1.893v4.321h-1.044v-4.138q0-.927-.405-1.371-.405-.457-1.188-.457-.313 0-.614.078-.3.078-.535.235t-.379.405a1.13 1.13 0 0 0-.143.574v4.674h-1.045zm10.466 9.818q-.705 0-1.28-.248a2.8 2.8 0 0 1-.966-.705 3.3 3.3 0 0 1-.6-1.11 4.8 4.8 0 0 1-.209-1.462q0-.797.209-1.449.209-.653.6-1.11.405-.47.966-.718.575-.248 1.28-.248t1.266.248q.575.248.966.718.405.458.614 1.11t.209 1.449q0 .81-.209 1.462a3.2 3.2 0 0 1-.614 1.11q-.391.457-.966.705a3.1 3.1 0 0 1-1.266.248m0-.901q.874 0 1.41-.522t.535-1.619v-.966q0-1.097-.535-1.619-.536-.522-1.41-.522t-1.41.522q-.535.522-.535 1.619v.966q0 1.097.535 1.619.536.522 1.41.522m4.917-.143h1.971v-4.962h-1.971v-.887h3.016v1.697h.065q.208-.796.783-1.24.588-.457 1.488-.457h.94v1.044h-1.266q-.9 0-1.462.522-.548.522-.548 1.371v2.912h2.611v.887h-5.627zm11.157-7.338q-.457 0-.64-.182a.69.69 0 0 1-.182-.484v-.208q0-.288.182-.47.183-.196.64-.196t.64.196a.63.63 0 0 1 .183.47v.208a.68.68 0 0 1-.183.484q-.183.182-.64.182m-2.95 7.338h2.428v-4.962h-2.428v-.887h3.472v5.849h2.272v.887h-5.744zm7.554.887v-1.005l4.347-4.844h-4.204v-.887h5.34v1.005l-4.348 4.844h4.479v.887zm13.181 0q-.614 0-.875-.313a1.5 1.5 0 0 1-.326-.783h-.066q-.222.587-.718.927-.483.326-1.305.326-1.058 0-1.685-.548-.626-.549-.626-1.502 0-.939.679-1.449.692-.509 2.219-.509h1.436v-.666q0-.744-.417-1.11-.418-.378-1.189-.378-.678 0-1.109.274a1.95 1.95 0 0 0-.692.718l-.705-.522q.13-.261.352-.509a2.1 2.1 0 0 1 .549-.431q.326-.196.744-.301.417-.117.927-.117 1.188 0 1.88.601.705.6.705 1.671v3.707h.94v.914zm-3.108-.718q.405 0 .732-.091.34-.105.587-.261.248-.17.379-.392a.94.94 0 0 0 .143-.496v-1.11h-1.436q-.94 0-1.371.261a.84.84 0 0 0-.431.758v.274q0 .522.366.796.378.261 1.031.261m8.716.718q-.77 0-1.135-.431-.353-.43-.353-1.109v-4.309h-2.245v-.887h1.671q.34 0 .47-.131.143-.144.143-.483v-1.762h1.006v2.376h3.068v.887h-3.068v4.962h3.068v.887zm7.92-8.225q-.457 0-.64-.182a.69.69 0 0 1-.182-.484v-.208q0-.288.182-.47.183-.196.64-.196t.64.196a.63.63 0 0 1 .183.47v.208a.68.68 0 0 1-.183.484q-.183.182-.64.182m-2.95 7.338h2.428v-4.962h-2.428v-.887h3.472v5.849h2.272v.887h-5.744zm10.361 1.044q-.705 0-1.28-.248a2.8 2.8 0 0 1-.966-.705 3.3 3.3 0 0 1-.601-1.11 4.8 4.8 0 0 1-.208-1.462q0-.797.208-1.449.21-.653.601-1.11.405-.47.966-.718.575-.248 1.28-.248t1.266.248q.575.248.966.718.404.458.614 1.11t.209 1.449q0 .81-.209 1.462-.21.64-.614 1.11-.391.457-.966.705a3.1 3.1 0 0 1-1.266.248m0-.901q.875 0 1.41-.522t.535-1.619v-.966q0-1.097-.535-1.619t-1.41-.522q-.876 0-1.41.522-.536.522-.536 1.619v.966q0 1.097.536 1.619.534.522 1.41.522m5.191.744v-6.736h1.044v1.096h.052q.105-.248.261-.47.157-.234.379-.404a2 2 0 0 1 .548-.275q.314-.104.731-.104 1.058 0 1.698.679.639.666.639 1.893v4.321h-1.044v-4.138q0-.927-.405-1.371-.405-.457-1.188-.457-.313 0-.613.078a1.8 1.8 0 0 0-.536.235q-.235.157-.378.405a1.1 1.1 0 0 0-.144.574v4.674zm10.465.118q-.535 0-.757-.222a.8.8 0 0 1-.209-.562v-.235q0-.339.209-.561.222-.222.757-.222t.744.222a.76.76 0 0 1 .222.561v.235a.76.76 0 0 1-.222.562q-.209.222-.744.222m0-5.17q-.535 0-.757-.222a.8.8 0 0 1-.209-.562v-.235q0-.339.209-.561.222-.222.757-.222t.744.222a.76.76 0 0 1 .222.561v.235a.76.76 0 0 1-.222.562q-.209.222-.744.222m12.889-4.06h3.094q1.175 0 1.841.639.666.64.666 1.711 0 .822-.405 1.292a2.1 2.1 0 0 1-1.018.666v.039q.77.183 1.266.692.496.496.496 1.449 0 .548-.183 1.032-.183.483-.522.835a2.4 2.4 0 0 1-.783.561 2.4 2.4 0 0 1-.966.196h-3.486zm3.159 8.159q.757 0 1.188-.339.432-.34.431-1.045v-.535q0-.692-.431-1.031-.43-.353-1.188-.353h-2.063v3.303zm-.183-4.204q.693 0 1.084-.3.392-.313.392-.94v-.509q0-.627-.392-.94-.391-.313-1.084-.313h-1.88v3.002zm7.737 5.314q-.731 0-1.318-.248a2.9 2.9 0 0 1-.993-.705 3.4 3.4 0 0 1-.626-1.11 4.5 4.5 0 0 1-.222-1.449q0-.81.222-1.462a3.4 3.4 0 0 1 .64-1.11q.404-.47.966-.718a3.2 3.2 0 0 1 1.266-.248q.68 0 1.227.248.562.248.953.692.392.43.601 1.031a4 4 0 0 1 .209 1.319v.496h-4.987v.313q0 .445.143.823.144.378.405.653.274.273.653.431a2.5 2.5 0 0 0 .861.143q.68 0 1.175-.313a2.03 2.03 0 0 0 .758-.862l.77.522q-.3.68-1.005 1.123-.692.43-1.698.431m-.065-6.188a2 2 0 0 0-1.436.587 2.1 2.1 0 0 0-.418.653 2.2 2.2 0 0 0-.143.809v.092h3.864v-.144q0-.444-.144-.809a1.75 1.75 0 0 0-.378-.627 1.5 1.5 0 0 0-.588-.418 1.9 1.9 0 0 0-.757-.143m10.322 6.031q-.614 0-.875-.313a1.5 1.5 0 0 1-.326-.783h-.065q-.222.587-.719.927-.483.326-1.305.326-1.057 0-1.684-.548-.627-.549-.627-1.502 0-.939.679-1.449.692-.509 2.219-.509h1.437v-.666q0-.744-.418-1.11-.418-.378-1.188-.378-.68 0-1.11.274a1.96 1.96 0 0 0-.692.718l-.705-.522q.13-.261.353-.509.22-.248.548-.431.325-.196.744-.301.418-.117.927-.117 1.188 0 1.88.601.705.6.705 1.671v3.707h.94v.914zm-3.107-.718q.404 0 .731-.091.34-.105.587-.261.249-.17.379-.392a.94.94 0 0 0 .144-.496v-1.11h-1.437q-.94 0-1.37.261a.83.83 0 0 0-.431.758v.274q0 .522.365.796.379.261 1.032.261m5.478-.169h1.971v-4.962h-1.971v-.887h3.016v1.697h.065q.208-.796.783-1.24.588-.457 1.489-.457h.94v1.044h-1.267q-.9 0-1.462.522-.548.522-.548 1.371v2.912h2.611v.887h-5.627zm10.857 1.044a3.4 3.4 0 0 1-1.319-.248 2.9 2.9 0 0 1-.992-.705 3.4 3.4 0 0 1-.626-1.11 4.5 4.5 0 0 1-.222-1.449q0-.81.222-1.462.234-.653.639-1.11.405-.47.966-.718a3.2 3.2 0 0 1 1.267-.248q.678 0 1.227.248.561.248.953.692.391.43.601 1.031a4 4 0 0 1 .209 1.319v.496h-4.988v.313q0 .445.144.823t.405.653q.274.273.652.431.393.143.862.143.679 0 1.175-.313t.757-.862l.771.522q-.301.68-1.006 1.123-.692.43-1.697.431m-.065-6.188q-.43 0-.797.156a2 2 0 0 0-.639.431 2.1 2.1 0 0 0-.418.653 2.2 2.2 0 0 0-.144.809v.092h3.865v-.144q0-.444-.144-.809a1.75 1.75 0 0 0-.378-.627 1.5 1.5 0 0 0-.588-.418 1.9 1.9 0 0 0-.757-.143m4.864 5.144h1.972v-4.962h-1.972v-.887h3.016v1.697h.066q.208-.796.783-1.24.588-.457 1.488-.457h.94v1.044h-1.266q-.901 0-1.462.522-.549.522-.549 1.371v2.912h2.611v.887h-5.627zm18.647 1.044q-1.058 0-1.828-.353a4.1 4.1 0 0 1-1.293-.966l.705-.613a3.6 3.6 0 0 0 1.058.783q.574.274 1.384.274.783 0 1.279-.274.51-.287.509-.888a.8.8 0 0 0-.104-.431.7.7 0 0 0-.261-.287 1.3 1.3 0 0 0-.379-.156 3 3 0 0 0-.444-.105l-1.057-.157a11 11 0 0 1-.77-.143 2.7 2.7 0 0 1-.745-.287 1.9 1.9 0 0 1-.574-.549q-.222-.34-.222-.887 0-.51.196-.875.209-.379.574-.627.366-.261.862-.378a4.2 4.2 0 0 1 1.084-.131q.913 0 1.579.287.68.287 1.162.797l-.679.639a2 2 0 0 0-.3-.287 1.6 1.6 0 0 0-.431-.274 2.4 2.4 0 0 0-.587-.209 3.5 3.5 0 0 0-.784-.078q-.797 0-1.227.274-.418.274-.418.796 0 .261.092.444a.8.8 0 0 0 .274.274q.17.105.379.17.22.052.443.091l1.058.157q.365.052.77.144.405.091.744.3.34.196.562.535.235.34.235.888 0 1.005-.784 1.554-.77.548-2.062.548m5.073-9.818h1.045v4.021h.052q.653-1.253 2.076-1.253 1.24 0 1.932.927.705.927.705 2.598t-.705 2.598q-.692.927-1.932.927-1.424 0-2.076-1.253h-.052v1.096h-1.045zm2.768 8.891q.913 0 1.41-.548.509-.562.509-1.476v-1.148q0-.915-.509-1.463-.496-.561-1.41-.561-.353 0-.666.091a1.6 1.6 0 0 0-.548.274 1.3 1.3 0 0 0-.379.431 1.25 1.25 0 0 0-.13.588v2.428q0 .34.13.601.144.248.379.431.234.17.548.261.313.091.666.091m5.06-5.966h1.045v1.096h.052q.653-1.253 2.076-1.253 1.24 0 1.932.927.705.927.705 2.598t-.705 2.598q-.692.927-1.932.927-1.423 0-2.076-1.253h-.052v3.707h-1.045zm2.768 5.966q.913 0 1.41-.548.51-.562.509-1.476v-1.148q0-.915-.509-1.463-.496-.561-1.41-.561-.353 0-.666.091a1.6 1.6 0 0 0-.548.274 1.3 1.3 0 0 0-.379.431 1.25 1.25 0 0 0-.13.588v2.428q0 .34.13.601.144.248.379.431.235.17.548.261t.666.091m4.604 2.977v-.966h6.266v.966zm10.961-2.089q-.535 0-.757-.222a.8.8 0 0 1-.209-.562v-.235q0-.339.209-.561.222-.222.757-.222.536 0 .744.222a.76.76 0 0 1 .222.561v.235a.76.76 0 0 1-.222.562q-.208.222-.744.222m7.829 0q-.536 0-.758-.222a.8.8 0 0 1-.209-.562v-.235q0-.339.209-.561.222-.222.758-.222.534 0 .744.222a.76.76 0 0 1 .222.561v.235a.76.76 0 0 1-.222.562q-.21.222-.744.222m7.828 0q-.535 0-.757-.222a.78.78 0 0 1-.209-.562v-.235q0-.339.209-.561.222-.222.757-.222.536 0 .744.222a.76.76 0 0 1 .222.561v.235a.76.76 0 0 1-.222.562q-.209.222-.744.222m7.332-6.162v-3.617h.992v3.617zm17.954 7.846-4.543-11.724h.94l4.543 11.724zm-252.802 11.154v-3.617h.993v3.617zm8.573 7.846q-.549 0-.823-.313a1.09 1.09 0 0 1-.274-.758v-.822q0-.353.066-.614.078-.26.182-.47.105-.209.235-.365.13-.17.248-.314.222-.261.301-.443a.95.95 0 0 0 .091-.405q0-.496-.457-.718-.457-.235-1.345-.235h-1.018v-.81h1.018q.888 0 1.345-.222.457-.234.457-.731 0-.209-.091-.391a1.8 1.8 0 0 0-.301-.457l-.248-.301a3 3 0 0 1-.235-.365 3 3 0 0 1-.182-.47 2.7 2.7 0 0 1-.066-.627v-.822q0-.457.274-.758.274-.312.823-.313h2.298v.81h-2.494v1.005q0 .535.157.822.156.288.365.562.223.286.418.6.196.3.196.718 0 .549-.392.888-.378.34-1.044.431v.052q.666.092 1.044.431.392.339.392.888 0 .417-.196.731-.195.3-.418.587-.209.274-.365.562-.157.286-.157.822v1.006h2.494v.809zm13.763-7.846v-3.617h.993v3.617zm2.311 0v-3.617h.992v3.617zm4.525 6.044v-6.736h1.045v1.096h.052q.105-.248.261-.47.157-.234.379-.404.234-.17.548-.275.314-.104.731-.104 1.058 0 1.697.679.64.666.64 1.893v4.321h-1.044v-4.138q0-.927-.405-1.371-.405-.457-1.188-.457-.313 0-.614.078-.3.078-.535.235t-.379.405a1.13 1.13 0 0 0-.143.574v4.674zm13.012 0q-.614 0-.875-.313a1.5 1.5 0 0 1-.326-.783h-.066q-.222.587-.718.927-.483.326-1.305.326-1.058 0-1.684-.548-.627-.549-.627-1.502 0-.939.679-1.449.692-.509 2.219-.509h1.436v-.666q0-.744-.417-1.11-.418-.378-1.189-.378-.678 0-1.109.274a1.96 1.96 0 0 0-.692.718l-.705-.522q.13-.261.352-.509a2.1 2.1 0 0 1 .549-.431q.326-.196.744-.301.417-.117.927-.117 1.188 0 1.88.601.705.6.705 1.671v3.707h.94v.914zm-3.108-.718q.405 0 .732-.091.34-.105.587-.261.248-.17.379-.392a.94.94 0 0 0 .143-.496v-1.11h-1.436q-.939 0-1.371.261a.84.84 0 0 0-.43.758v.274q0 .522.365.796.378.261 1.031.261m5.178.718v-6.736h.967v.783h.052q.156-.392.444-.666.287-.274.848-.274.587 0 .875.3.287.288.352.757h.04q.183-.457.522-.757.34-.3.94-.3.822 0 1.097.574.287.575.287 1.645v4.674h-.966v-4.504q0-.861-.183-1.188-.17-.339-.64-.339a.9.9 0 0 0-.679.274q-.261.261-.261.809v4.948h-.966v-4.504q0-.861-.183-1.188-.17-.339-.626-.339a.94.94 0 0 0-.692.274q-.261.261-.261.809v4.948zm11.158.157q-.732 0-1.319-.248a2.9 2.9 0 0 1-.992-.705 3.4 3.4 0 0 1-.627-1.11 4.5 4.5 0 0 1-.222-1.449q0-.81.222-1.462.235-.653.64-1.11.405-.47.966-.718a3.2 3.2 0 0 1 1.267-.248q.678 0 1.227.248.561.248.953.692.392.43.6 1.031.21.601.209 1.319v.496h-4.987v.313q0 .445.144.823.143.378.404.653.275.273.653.431.392.143.862.143.678 0 1.175-.313.496-.313.757-.862l.77.522q-.3.68-1.005 1.123-.692.43-1.697.431m-.065-6.188a2 2 0 0 0-1.437.587 2.1 2.1 0 0 0-.417.653 2.2 2.2 0 0 0-.144.809v.092h3.865v-.144q0-.444-.144-.809a1.7 1.7 0 0 0-.379-.627 1.5 1.5 0 0 0-.587-.418 1.9 1.9 0 0 0-.757-.143m6.131-.013v-3.617h.992v3.617zm2.31 0v-3.617h.993v3.617zm7.163 6.162q-.535 0-.757-.222a.78.78 0 0 1-.209-.562v-.235q0-.339.209-.561.222-.222.757-.222.536 0 .744.222a.76.76 0 0 1 .222.561v.235a.76.76 0 0 1-.222.562q-.208.222-.744.222m0-5.17q-.535 0-.757-.222a.78.78 0 0 1-.209-.562v-.235q0-.339.209-.561.222-.222.757-.222.536 0 .744.222a.76.76 0 0 1 .222.561v.235a.76.76 0 0 1-.222.562q-.208.222-.744.222m14.011-.992v-3.617h.993v3.617zm2.311 0v-3.617h.992v3.617zm4.356 2.585v-1.045l5.614-3.251v1.084l-4.635 2.624v.105l4.635 2.624v1.109zm7.998 3.459v-6.736h1.044v1.096h.052q.105-.248.261-.47.157-.234.379-.404a2 2 0 0 1 .548-.275q.314-.104.731-.104 1.058 0 1.698.679.639.666.639 1.893v4.321h-1.044v-4.138q0-.927-.405-1.371-.405-.457-1.188-.457-.313 0-.613.078a1.8 1.8 0 0 0-.536.235q-.235.157-.378.405a1.1 1.1 0 0 0-.144.574v4.674zm13.011 0q-.614 0-.875-.313a1.5 1.5 0 0 1-.326-.783h-.065q-.222.587-.719.927-.483.326-1.305.326-1.057 0-1.684-.548-.627-.549-.627-1.502 0-.939.679-1.449.692-.509 2.219-.509h1.437v-.666q0-.744-.418-1.11-.418-.378-1.188-.378-.68 0-1.11.274a1.96 1.96 0 0 0-.692.718l-.705-.522q.13-.261.353-.509.22-.248.548-.431.326-.196.744-.301.418-.117.927-.117 1.188 0 1.88.601.705.6.705 1.671v3.707h.94v.914zm-3.107-.718q.405 0 .731-.091.34-.105.587-.261.249-.17.379-.392a.94.94 0 0 0 .144-.496v-1.11h-1.437q-.94 0-1.37.261a.83.83 0 0 0-.431.758v.274q0 .522.365.796.38.261 1.032.261m5.178.718v-6.736h.966v.783h.052q.156-.392.444-.666.287-.274.848-.274.588 0 .875.3.288.288.353.757h.039q.183-.457.522-.757.34-.3.94-.3.822 0 1.097.574.287.575.287 1.645v4.674h-.966v-4.504q0-.861-.183-1.188-.17-.339-.64-.339a.9.9 0 0 0-.679.274q-.261.261-.261.809v4.948h-.966v-4.504q0-.861-.183-1.188-.17-.339-.626-.339a.94.94 0 0 0-.692.274q-.261.261-.261.809v4.948zm11.157.157a3.4 3.4 0 0 1-1.319-.248 2.9 2.9 0 0 1-.992-.705 3.4 3.4 0 0 1-.626-1.11 4.5 4.5 0 0 1-.222-1.449q0-.81.222-1.462.234-.653.639-1.11.405-.47.966-.718a3.2 3.2 0 0 1 1.267-.248q.678 0 1.227.248.561.248.953.692.391.43.601 1.031a4 4 0 0 1 .209 1.319v.496H252.7v.313q0 .445.144.823t.405.653q.273.273.652.431.393.143.862.143.679 0 1.175-.313t.757-.862l.771.522q-.301.68-1.006 1.123-.692.43-1.697.431m-.065-6.188q-.43 0-.797.156a2 2 0 0 0-.639.431 2.1 2.1 0 0 0-.418.653 2.2 2.2 0 0 0-.144.809v.092h3.865v-.144q0-.444-.144-.809a1.75 1.75 0 0 0-.378-.627 1.5 1.5 0 0 0-.588-.418 1.9 1.9 0 0 0-.757-.143m4.969 4.739 4.635-2.624v-.105l-4.635-2.624v-1.11l5.614 3.251v1.045l-5.614 3.25zm8.99-4.752v-3.617h.992v3.617zm2.311 0v-3.617h.992v3.617zm6.601 4.269h1.684l-1.501 3.616h-.875zm14.573-4.269v-3.617h.992v3.617zm2.311 0v-3.617h.992v3.617zm3.637-.692h.927l.77 5.822h.118l1.149-5.822h1.149l1.148 5.822h.118l.77-5.822h.901l-1.031 6.736h-1.358l-1.071-5.64h-.104l-1.097 5.64h-1.358zm11.471 6.893q-.732 0-1.319-.248a2.86 2.86 0 0 1-.992-.705 3.4 3.4 0 0 1-.627-1.11 4.5 4.5 0 0 1-.222-1.449q0-.81.222-1.462.235-.653.64-1.11.405-.47.966-.718a3.2 3.2 0 0 1 1.267-.248q.678 0 1.227.248.561.248.953.692.392.43.6 1.031.21.601.209 1.319v.496h-4.987v.313q0 .445.144.823.143.378.404.653.275.273.653.431.391.143.862.143.678 0 1.175-.313.496-.313.757-.862l.77.522q-.3.68-1.005 1.123-.692.43-1.697.431m-.065-6.188a2 2 0 0 0-1.437.587 2.1 2.1 0 0 0-.417.653 2.2 2.2 0 0 0-.144.809v.092h3.864v-.144q0-.444-.143-.809a1.7 1.7 0 0 0-.379-.627 1.5 1.5 0 0 0-.587-.418 1.9 1.9 0 0 0-.757-.143m5.099-3.63h1.045v4.021h.052q.653-1.253 2.076-1.253 1.24 0 1.932.927.705.927.705 2.598t-.705 2.598q-.692.927-1.932.927-1.424 0-2.076-1.253h-.052v1.096h-1.045zm2.768 8.891q.913 0 1.41-.548.509-.562.509-1.476v-1.148q0-.915-.509-1.463-.496-.561-1.41-.561-.353 0-.666.091a1.6 1.6 0 0 0-.548.274 1.3 1.3 0 0 0-.379.431 1.25 1.25 0 0 0-.13.588v2.428q0 .34.13.601.144.248.379.431.234.17.548.261.313.091.666.091m7.815.927q-1.057 0-1.828-.353a4.1 4.1 0 0 1-1.292-.966l.705-.613q.483.508 1.057.783.575.274 1.384.274.783 0 1.28-.274.509-.286.509-.888a.8.8 0 0 0-.105-.431.7.7 0 0 0-.261-.287 1.3 1.3 0 0 0-.378-.156 3 3 0 0 0-.444-.105l-1.058-.157a11 11 0 0 1-.77-.143 2.7 2.7 0 0 1-.744-.287 1.9 1.9 0 0 1-.575-.549q-.222-.34-.222-.887 0-.51.196-.875.21-.379.575-.627.365-.261.861-.378a4.2 4.2 0 0 1 1.084-.131q.914 0 1.58.287.679.288 1.162.797l-.679.639a2 2 0 0 0-.3-.287 1.6 1.6 0 0 0-.431-.274 2.5 2.5 0 0 0-.588-.209 3.5 3.5 0 0 0-.783-.078q-.796 0-1.227.274-.418.274-.418.796 0 .261.091.444.105.17.274.274t.379.17q.222.052.444.091l1.057.157q.366.052.771.144.405.091.744.3.339.196.561.535.235.34.235.888 0 1.005-.783 1.554-.77.548-2.063.548m8.168-8.382q-.457 0-.64-.182a.68.68 0 0 1-.183-.484v-.208q0-.288.183-.47.183-.196.64-.196.456 0 .64.196a.64.64 0 0 1 .182.47v.208a.69.69 0 0 1-.182.484q-.184.182-.64.182m-2.951 7.338h2.429v-4.962h-2.429v-.887h3.473v5.849h2.272v.887h-5.745zm10.688.887q-.77 0-1.136-.431-.353-.43-.353-1.109v-4.309h-2.245v-.887h1.671q.34 0 .47-.131.144-.144.144-.483v-1.762h1.005v2.376h3.068v.887h-3.068v4.962h3.068v.887zm7.619.157a3.4 3.4 0 0 1-1.319-.248 2.9 2.9 0 0 1-.992-.705 3.4 3.4 0 0 1-.626-1.11 4.5 4.5 0 0 1-.222-1.449q0-.81.222-1.462.234-.653.639-1.11.405-.47.966-.718a3.2 3.2 0 0 1 1.267-.248q.678 0 1.227.248.561.248.953.692.391.43.601 1.031.208.601.208 1.319v.496h-4.987v.313q0 .445.144.823t.405.653q.274.273.652.431.392.143.862.143.679 0 1.175-.313t.757-.862l.771.522q-.301.68-1.006 1.123-.692.43-1.697.431m-.065-6.188q-.43 0-.797.156a2 2 0 0 0-.639.431 2.1 2.1 0 0 0-.418.653 2.2 2.2 0 0 0-.144.809v.092h3.865v-.144q0-.444-.144-.809a1.7 1.7 0 0 0-.379-.627 1.5 1.5 0 0 0-.587-.418 1.9 1.9 0 0 0-.757-.143m6.131-.013v-3.617h.992v3.617zm2.311 0v-3.617h.992v3.617zm7.162 6.162q-.535 0-.757-.222a.8.8 0 0 1-.209-.562v-.235q0-.339.209-.561.222-.222.757-.222.536 0 .744.222a.76.76 0 0 1 .222.561v.235a.76.76 0 0 1-.222.562q-.208.222-.744.222m0-5.17q-.535 0-.757-.222a.8.8 0 0 1-.209-.562v-.235q0-.339.209-.561.222-.222.757-.222.536 0 .744.222a.76.76 0 0 1 .222.561v.235a.76.76 0 0 1-.222.562q-.208.222-.744.222m14.012-.992v-3.617h.992v3.617zm2.31 0v-3.617h.993v3.617zm4.356 2.585v-1.045l5.614-3.251v1.084l-4.635 2.624v.105l4.635 2.624v1.109zm7.11-3.277h.927l.77 5.822h.118l1.149-5.822h1.149l1.148 5.822h.118l.77-5.822h.901l-1.031 6.736h-1.358l-1.071-5.64h-.104l-1.097 5.64h-1.358zm11.471 6.893q-.731 0-1.319-.248a2.86 2.86 0 0 1-.992-.705 3.4 3.4 0 0 1-.627-1.11 4.5 4.5 0 0 1-.222-1.449q0-.81.222-1.462.235-.653.64-1.11.405-.47.966-.718a3.2 3.2 0 0 1 1.267-.248q.678 0 1.227.248.561.248.953.692.392.43.6 1.031.21.601.209 1.319v.496h-4.987v.313q0 .445.144.823.143.378.404.653.275.273.653.431.391.143.862.143.678 0 1.175-.313.496-.313.757-.862l.77.522q-.3.68-1.005 1.123-.692.43-1.697.431m-.065-6.188a2 2 0 0 0-1.437.587 2.1 2.1 0 0 0-.417.653 2.2 2.2 0 0 0-.144.809v.092h3.864v-.144q0-.444-.143-.809a1.7 1.7 0 0 0-.379-.627 1.5 1.5 0 0 0-.587-.418 1.9 1.9 0 0 0-.757-.143m5.099-3.63h1.045v4.021h.052q.652-1.253 2.076-1.253 1.24 0 1.932.927.705.927.705 2.598t-.705 2.598q-.692.927-1.932.927-1.424 0-2.076-1.253h-.052v1.096h-1.045zm2.768 8.891q.913 0 1.41-.548.509-.562.509-1.476v-1.148q0-.915-.509-1.463-.496-.561-1.41-.561-.352 0-.666.091a1.6 1.6 0 0 0-.548.274 1.3 1.3 0 0 0-.379.431 1.25 1.25 0 0 0-.13.588v2.428q0 .34.13.601.144.248.379.431.234.17.548.261t.666.091m7.815.927q-1.057 0-1.828-.353a4.1 4.1 0 0 1-1.292-.966l.705-.613q.483.508 1.057.783.575.274 1.384.274.783 0 1.28-.274.509-.286.509-.888a.8.8 0 0 0-.105-.431.7.7 0 0 0-.261-.287 1.3 1.3 0 0 0-.378-.156 3 3 0 0 0-.444-.105l-1.058-.157a11 11 0 0 1-.77-.143 2.7 2.7 0 0 1-.744-.287 1.9 1.9 0 0 1-.575-.549q-.222-.34-.222-.887 0-.51.196-.875.21-.379.575-.627.365-.261.861-.378a4.2 4.2 0 0 1 1.084-.131q.914 0 1.58.287.678.288 1.162.797l-.679.639a2 2 0 0 0-.3-.287 1.6 1.6 0 0 0-.431-.274 2.5 2.5 0 0 0-.588-.209 3.5 3.5 0 0 0-.783-.078q-.797 0-1.227.274-.418.274-.418.796 0 .261.091.444.105.17.274.274t.379.17q.222.052.444.091l1.057.157q.366.052.771.144.404.091.744.3.339.196.561.535.235.34.235.888 0 1.005-.783 1.554-.77.548-2.063.548m8.168-8.382q-.457 0-.64-.182a.68.68 0 0 1-.183-.484v-.208q0-.288.183-.47.183-.196.64-.196t.64.196a.64.64 0 0 1 .182.47v.208a.69.69 0 0 1-.182.484q-.183.182-.64.182m-2.951 7.338h2.429v-4.962h-2.429v-.887h3.473v5.849h2.272v.887h-5.745zm10.688.887q-.77 0-1.136-.431-.353-.43-.353-1.109v-4.309h-2.245v-.887h1.671q.34 0 .47-.131.144-.144.143-.483v-1.762h1.006v2.376h3.068v.887h-3.068v4.962h3.068v.887zm7.619.157a3.4 3.4 0 0 1-1.319-.248 2.9 2.9 0 0 1-.992-.705 3.4 3.4 0 0 1-.626-1.11 4.5 4.5 0 0 1-.222-1.449q0-.81.222-1.462.234-.653.639-1.11.405-.47.966-.718a3.2 3.2 0 0 1 1.267-.248q.678 0 1.227.248.561.248.953.692.391.43.601 1.031.208.601.208 1.319v.496h-4.987v.313q0 .445.144.823.143.378.405.653.274.273.652.431.392.143.862.143.679 0 1.175-.313t.757-.862l.771.522q-.301.68-1.006 1.123-.692.43-1.697.431m-.065-6.188q-.43 0-.797.156a2 2 0 0 0-.639.431 2.1 2.1 0 0 0-.418.653 2.2 2.2 0 0 0-.144.809v.092h3.865v-.144q0-.444-.144-.809a1.7 1.7 0 0 0-.379-.627 1.5 1.5 0 0 0-.587-.418 1.9 1.9 0 0 0-.757-.143m4.969 4.739 4.635-2.624v-.105l-4.635-2.624v-1.11l5.614 3.251v1.045l-5.614 3.25zm8.99-4.752v-3.617h.992v3.617zm2.311 0v-3.617h.992v3.617zm6.601 4.269h1.684l-1.501 3.616h-.875zm-361.183 15.731v-3.617h.992v3.617zm2.311 0v-3.617h.992v3.617zm4.251 5.157h1.971v-4.962h-1.971v-.887h3.016v1.697h.065q.209-.796.783-1.24.588-.457 1.489-.457h.94v1.044h-1.267q-.9 0-1.462.522-.548.522-.548 1.371v2.912h2.611v.887h-5.627zm10.857 1.044q-.731 0-1.319-.248a2.9 2.9 0 0 1-.992-.705 3.4 3.4 0 0 1-.627-1.11 4.5 4.5 0 0 1-.222-1.449q0-.81.222-1.462.235-.653.64-1.11.405-.47.966-.718a3.2 3.2 0 0 1 1.267-.248q.678 0 1.227.248.561.248.953.692.392.43.6 1.031.21.601.209 1.319v.496h-4.987v.313q0 .445.144.823.143.378.404.653.275.273.653.431.392.143.862.143.678 0 1.175-.313.496-.313.757-.862l.77.522q-.3.68-1.005 1.123-.692.43-1.697.431m-.065-6.188a2 2 0 0 0-1.437.587 2.1 2.1 0 0 0-.417.653 2.2 2.2 0 0 0-.144.809v.092h3.865v-.144q0-.444-.144-.809a1.7 1.7 0 0 0-.379-.627 1.5 1.5 0 0 0-.587-.418 1.9 1.9 0 0 0-.757-.143m9.408 4.935h-.053q-.653 1.253-2.076 1.253-1.24 0-1.945-.927-.692-.927-.692-2.598t.692-2.598q.705-.927 1.945-.927 1.423 0 2.076 1.253h.053v-4.021h1.044v9.661h-1.044zm-1.724.326q.352 0 .666-.091t.548-.261q.236-.183.366-.431.144-.262.144-.601v-2.428q0-.339-.144-.588a1.2 1.2 0 0 0-.366-.431 1.6 1.6 0 0 0-.548-.274 2.4 2.4 0 0 0-.666-.091q-.913 0-1.423.561-.496.549-.496 1.463v1.148q0 .914.496 1.476.51.548 1.423.548m8.338-7.455q-.457 0-.64-.182a.68.68 0 0 1-.183-.484v-.208q0-.288.183-.47.183-.196.64-.196t.639.196a.63.63 0 0 1 .183.47v.208a.68.68 0 0 1-.183.484q-.182.182-.639.182m-2.951 7.338h2.428v-4.962h-2.428v-.887h3.473v5.849h2.272v.887h-5.745zm7.45 0h1.971v-4.962h-1.971v-.887h3.016v1.697h.065q.208-.796.783-1.24.588-.457 1.488-.457h.94v1.044h-1.266q-.9 0-1.462.522-.548.522-.548 1.371v2.912h2.611v.887h-5.627zm10.857 1.044q-.732 0-1.319-.248a2.9 2.9 0 0 1-.992-.705 3.4 3.4 0 0 1-.627-1.11 4.5 4.5 0 0 1-.222-1.449q0-.81.222-1.462.235-.653.64-1.11.405-.47.966-.718a3.2 3.2 0 0 1 1.267-.248q.678 0 1.227.248.561.248.953.692.392.43.6 1.031.21.601.209 1.319v.496h-4.987v.313q0 .445.144.823.143.378.404.653.275.273.653.431.392.143.862.143.678 0 1.175-.313.496-.313.757-.862l.77.522q-.3.68-1.005 1.123-.692.43-1.697.431m-.065-6.188a2 2 0 0 0-1.437.587 2.1 2.1 0 0 0-.417.653 2.2 2.2 0 0 0-.144.809v.092h3.865v-.144q0-.444-.144-.809a1.7 1.7 0 0 0-.379-.627 1.5 1.5 0 0 0-.587-.418 1.9 1.9 0 0 0-.757-.143m8.011 6.188a3.3 3.3 0 0 1-1.306-.248 2.8 2.8 0 0 1-.953-.718 3.2 3.2 0 0 1-.601-1.11 5 5 0 0 1-.195-1.449q0-.797.208-1.449.21-.653.601-1.11.392-.47.953-.718a3.1 3.1 0 0 1 1.28-.248q.978 0 1.592.431.614.43.901 1.123l-.835.443a1.57 1.57 0 0 0-.614-.809q-.418-.287-1.044-.287-.457 0-.823.156a1.6 1.6 0 0 0-.601.418 1.9 1.9 0 0 0-.378.653 2.8 2.8 0 0 0-.118.823v1.148q0 .445.118.823.13.378.378.653.248.273.614.431.365.143.836.143.679 0 1.122-.313t.705-.862l.745.509a2.67 2.67 0 0 1-.94 1.123q-.628.444-1.645.444m7.919-.157q-.77 0-1.136-.431-.352-.43-.352-1.109v-4.309h-2.246v-.887h1.671q.34 0 .47-.131.144-.144.144-.483v-1.762h1.005v2.376h3.068v.887h-3.068v4.962h3.068v.887zm4.369 2.207v-.966h6.266v.966zm12.554-3.303h-.052q-.105.248-.261.483a1.7 1.7 0 0 1-.392.391 1.8 1.8 0 0 1-.535.275 2.3 2.3 0 0 1-.731.104q-1.058 0-1.697-.666-.64-.678-.64-1.906v-4.321h1.044v4.138q0 .928.405 1.384.405.444 1.188.444.313 0 .614-.078.3-.08.535-.235.235-.157.379-.392.143-.248.143-.587v-4.674h1.045v6.736h-1.045zm3.324.209h1.972v-4.962h-1.972v-.887h3.016v1.697h.065q.21-.796.784-1.24.587-.457 1.488-.457h.94v1.044h-1.266q-.901 0-1.463.522-.548.522-.548 1.371v2.912h2.611v.887h-5.627zm11.158-7.338q-.457 0-.64-.182a.68.68 0 0 1-.183-.484v-.208q0-.288.183-.47.183-.196.64-.196.456 0 .639.196a.63.63 0 0 1 .183.47v.208a.68.68 0 0 1-.183.484q-.183.182-.639.182m-2.951 7.338h2.428v-4.962h-2.428v-.887h3.473v5.849h2.272v.887h-5.745zm10.439 1.044q-1.058 0-1.827-.353a4.1 4.1 0 0 1-1.293-.966l.705-.613a3.6 3.6 0 0 0 1.058.783q.574.274 1.384.274.783 0 1.279-.274.509-.286.509-.888a.8.8 0 0 0-.104-.431.7.7 0 0 0-.261-.287 1.3 1.3 0 0 0-.379-.156 3 3 0 0 0-.444-.105l-1.057-.157a11 11 0 0 1-.771-.143 2.7 2.7 0 0 1-.744-.287 1.9 1.9 0 0 1-.574-.549q-.222-.34-.222-.887 0-.51.196-.875.208-.379.574-.627.366-.261.862-.378.496-.132 1.083-.131.915 0 1.58.287.68.288 1.162.797l-.679.639a2 2 0 0 0-.3-.287 1.6 1.6 0 0 0-.431-.274 2.4 2.4 0 0 0-.588-.209 3.5 3.5 0 0 0-.783-.078q-.797 0-1.227.274-.418.274-.418.796 0 .261.092.444a.8.8 0 0 0 .274.274q.17.105.378.17.222.052.444.091l1.058.157q.365.052.77.144.405.091.744.3.34.196.562.535.235.34.235.888 0 1.005-.784 1.554-.77.548-2.063.548m6.105-6.201v-3.617h.993v3.617zm2.311 0v-3.617h.992v3.617zm7.163 6.162q-.536 0-.758-.222a.8.8 0 0 1-.209-.562v-.235q0-.339.209-.561.222-.222.758-.222.534 0 .744.222a.76.76 0 0 1 .222.561v.235a.76.76 0 0 1-.222.562q-.21.222-.744.222m0-5.17q-.536 0-.758-.222a.8.8 0 0 1-.209-.562v-.235q0-.339.209-.561.222-.222.758-.222.534 0 .744.222a.76.76 0 0 1 .222.561v.235a.76.76 0 0 1-.222.562q-.21.222-.744.222m14.677 6.854v-11.724h3.655v.81h-2.754v10.105h2.754v.809zm6-5.261v-1.045l5.614-3.251v1.084l-4.634 2.624v.105l4.634 2.624v1.109zm12.228 2.363h-.052q-.105.248-.261.483a1.7 1.7 0 0 1-.392.391 1.8 1.8 0 0 1-.535.275 2.3 2.3 0 0 1-.731.104q-1.058 0-1.697-.666-.64-.678-.64-1.906v-4.321h1.044v4.138q0 .928.405 1.384.405.444 1.188.444.314 0 .614-.078.3-.08.535-.235.235-.157.379-.392.143-.248.143-.587v-4.674h1.045v6.736h-1.045zm3.324.209h1.972v-4.962h-1.972v-.887h3.016v1.697h.066q.208-.796.783-1.24.588-.457 1.488-.457h.94v1.044h-1.266q-.901 0-1.462.522-.549.522-.549 1.371v2.912h2.611v.887h-5.627zm7.868 0h2.35v-7.886h-2.35v-.888h3.394v8.774h2.35v.887h-5.744zm10.779 1.044q-1.058 0-1.828-.353a4.1 4.1 0 0 1-1.293-.966l.705-.613a3.6 3.6 0 0 0 1.058.783q.574.274 1.384.274.783 0 1.279-.274.51-.286.509-.888a.8.8 0 0 0-.104-.431.7.7 0 0 0-.261-.287 1.3 1.3 0 0 0-.379-.156 3 3 0 0 0-.444-.105l-1.057-.157a11 11 0 0 1-.77-.143 2.7 2.7 0 0 1-.745-.287 1.9 1.9 0 0 1-.574-.549q-.222-.34-.222-.887 0-.51.196-.875.209-.379.574-.627.366-.261.862-.378a4.2 4.2 0 0 1 1.084-.131q.913 0 1.579.287.68.288 1.162.797l-.679.639a2 2 0 0 0-.3-.287 1.6 1.6 0 0 0-.431-.274 2.4 2.4 0 0 0-.587-.209 3.5 3.5 0 0 0-.784-.078q-.796 0-1.227.274-.418.274-.418.796 0 .261.092.444a.8.8 0 0 0 .274.274q.17.105.379.17.22.052.443.091l1.058.157q.365.052.77.144.405.091.744.3.34.196.562.535.234.34.235.888 0 1.005-.784 1.554-.77.548-2.062.548m4.943-1.449 4.634-2.624v-.105l-4.634-2.624v-1.11l5.614 3.251v1.045l-5.614 3.25zm11.614-8.63v11.724h-3.656v-.809h2.755v-10.105h-2.755v-.81zm14.429 0q.549 0 .823.313.274.301.274.758v.822q0 .352-.078.627a2.4 2.4 0 0 1-.17.47q-.105.195-.235.365l-.248.301a2.2 2.2 0 0 0-.314.457 1 1 0 0 0-.078.391q0 .497.457.731.457.222 1.345.222h1.018v.81h-1.018q-.888 0-1.345.235-.457.222-.457.718 0 .208.078.405.092.182.314.443.117.144.248.314.13.156.235.365.104.21.17.47.078.261.078.614v.822q0 .457-.274.758-.274.313-.823.313h-2.298v-.809h2.494v-1.006q0-.536-.157-.822a4.4 4.4 0 0 0-.365-.562 9 9 0 0 1-.418-.587 1.36 1.36 0 0 1-.196-.731q0-.549.379-.888.391-.34 1.057-.431v-.052q-.666-.092-1.057-.431-.38-.339-.379-.888 0-.417.196-.718.196-.314.418-.6.209-.274.365-.562.157-.286.157-.822v-1.005h-2.494v-.81zm7.58 3.878v-3.617h.993v3.617zm17.955 7.846-4.544-11.724h.94l4.544 11.724zm-229.317 11.154v-3.617h.992v3.617zm5.517 2.585v-1.045l5.614-3.251v1.084l-4.635 2.624v.105l4.635 2.624v1.109zm7.998-6.202h1.045v4.021h.052q.103-.248.261-.47.156-.234.379-.404.234-.17.548-.275a2.3 2.3 0 0 1 .731-.104q1.058 0 1.697.679.64.666.64 1.893v4.321h-1.045v-4.138q0-.927-.404-1.371-.405-.457-1.188-.457-.314 0-.614.078t-.535.235-.379.405a1.1 1.1 0 0 0-.143.574v4.674h-1.045zm10.792 9.661q-.77 0-1.136-.431-.352-.43-.352-1.109v-4.309h-2.246v-.887h1.671q.34 0 .47-.131.144-.144.144-.483v-1.762h1.005v2.376h3.068v.887h-3.068v4.962h3.068v.887zm7.828 0q-.77 0-1.136-.431-.352-.43-.352-1.109v-4.309h-2.246v-.887h1.671q.34 0 .47-.131.144-.144.144-.483v-1.762h1.005v2.376h3.068v.887h-3.068v4.962h3.068v.887zm4.826-6.736h1.044v1.096h.052q.654-1.253 2.076-1.253 1.24 0 1.932.927.705.927.705 2.598t-.705 2.598q-.692.927-1.932.927-1.422 0-2.076-1.253h-.052v3.707h-1.044zm2.767 5.966q.915 0 1.41-.548.51-.562.51-1.476v-1.148q0-.915-.51-1.463-.495-.561-1.41-.561-.352 0-.665.091a1.7 1.7 0 0 0-.549.274 1.3 1.3 0 0 0-.378.431 1.25 1.25 0 0 0-.131.588v2.428q0 .34.131.601.143.248.378.431.236.17.549.261t.665.091m7.816.927q-1.058 0-1.828-.353a4.1 4.1 0 0 1-1.293-.966l.705-.613a3.6 3.6 0 0 0 1.058.783q.574.274 1.384.274.783 0 1.279-.274.51-.286.509-.888a.8.8 0 0 0-.104-.431.7.7 0 0 0-.261-.287 1.3 1.3 0 0 0-.379-.156 3 3 0 0 0-.444-.105l-1.057-.157a11 11 0 0 1-.77-.143 2.7 2.7 0 0 1-.745-.287 1.9 1.9 0 0 1-.574-.549q-.222-.34-.222-.887 0-.51.196-.875.209-.379.574-.627.366-.261.862-.378a4.2 4.2 0 0 1 1.084-.131q.913 0 1.579.287.68.288 1.162.797l-.679.639a2 2 0 0 0-.3-.287 1.6 1.6 0 0 0-.431-.274 2.4 2.4 0 0 0-.587-.209 3.5 3.5 0 0 0-.784-.078q-.797 0-1.227.274-.417.274-.418.796 0 .261.092.444a.8.8 0 0 0 .274.274q.17.105.379.17.221.052.443.091l1.058.157q.366.052.77.144.405.091.744.3.34.196.562.535.235.34.235.888 0 1.005-.784 1.554-.77.548-2.062.548m7.75-.039q-.536 0-.758-.222a.8.8 0 0 1-.209-.562v-.235q0-.339.209-.561.222-.222.758-.222.535 0 .744.222a.76.76 0 0 1 .222.561v.235a.76.76 0 0 1-.222.562q-.21.222-.744.222m0-5.17q-.536 0-.758-.222a.8.8 0 0 1-.209-.562v-.235q0-.339.209-.561.222-.222.758-.222.535 0 .744.222a.76.76 0 0 1 .222.561v.235a.76.76 0 0 1-.222.562q-.21.222-.744.222m5.086 6.854 4.544-11.724h.94l-4.544 11.724zm7.828 0 4.544-11.724h.94l-4.544 11.724zm13.116-1.802q-.613 0-.875-.313a1.53 1.53 0 0 1-.326-.783h-.065q-.222.587-.718.927-.483.326-1.306.326-1.057 0-1.684-.548-.627-.549-.627-1.502 0-.939.679-1.449.692-.509 2.22-.509h1.436v-.666q0-.744-.418-1.11-.418-.378-1.188-.378-.68 0-1.11.274a1.96 1.96 0 0 0-.692.718l-.705-.522q.13-.261.353-.509a2.1 2.1 0 0 1 .548-.431q.327-.196.744-.301.418-.117.927-.117 1.188 0 1.88.601.705.6.705 1.671v3.707h.94v.914zm-3.107-.718q.405 0 .731-.091.339-.105.588-.261.248-.17.378-.392a.94.94 0 0 0 .144-.496v-1.11h-1.436q-.94 0-1.371.261a.84.84 0 0 0-.431.758v.274q0 .522.366.796.378.261 1.031.261m5.713-6.018h1.045v1.096h.052q.653-1.253 2.076-1.253 1.24 0 1.932.927.705.927.705 2.598t-.705 2.598q-.691.927-1.932.927-1.424 0-2.076-1.253h-.052v3.707h-1.045zm2.768 5.966q.913 0 1.41-.548.509-.562.509-1.476v-1.148q0-.915-.509-1.463-.496-.561-1.41-.561-.353 0-.666.091a1.6 1.6 0 0 0-.548.274 1.3 1.3 0 0 0-.379.431 1.25 1.25 0 0 0-.13.588v2.428q0 .34.13.601.144.248.379.431.234.17.548.261t.666.091m8.155-7.455q-.457 0-.64-.182a.68.68 0 0 1-.183-.484v-.208q0-.288.183-.47.183-.196.64-.196.456 0 .639.196a.63.63 0 0 1 .183.47v.208a.68.68 0 0 1-.183.484q-.183.182-.639.182m-2.951 7.338h2.428v-4.962h-2.428v-.887h3.473v5.849h2.272v.887h-5.745zm10.361 1.005q-.535 0-.757-.222a.8.8 0 0 1-.209-.562v-.235q0-.339.209-.561.222-.222.757-.222.536 0 .744.222a.76.76 0 0 1 .222.561v.235a.76.76 0 0 1-.222.562q-.208.222-.744.222m7.907.039q-1.058 0-1.828-.353a4.1 4.1 0 0 1-1.293-.966l.705-.613a3.6 3.6 0 0 0 1.058.783q.574.274 1.384.274.783 0 1.279-.274.51-.286.509-.888a.8.8 0 0 0-.104-.431.7.7 0 0 0-.261-.287 1.3 1.3 0 0 0-.379-.156 3 3 0 0 0-.444-.105l-1.057-.157a11 11 0 0 1-.77-.143 2.7 2.7 0 0 1-.745-.287 1.9 1.9 0 0 1-.574-.549q-.222-.34-.222-.887 0-.51.196-.875.209-.379.574-.627.366-.261.862-.378a4.2 4.2 0 0 1 1.084-.131q.913 0 1.579.287.68.288 1.162.797l-.679.639a2 2 0 0 0-.3-.287 1.6 1.6 0 0 0-.431-.274 2.4 2.4 0 0 0-.587-.209 3.5 3.5 0 0 0-.784-.078q-.796 0-1.227.274-.417.274-.418.796 0 .261.092.444a.8.8 0 0 0 .274.274q.17.105.379.17.221.052.443.091l1.058.157q.365.052.77.144.405.091.744.3.34.196.562.535.235.34.235.888 0 1.005-.784 1.554-.77.548-2.062.548m9.342-1.253h-.052a3 3 0 0 1-.261.483 1.7 1.7 0 0 1-.392.391 1.8 1.8 0 0 1-.535.275 2.3 2.3 0 0 1-.731.104q-1.058 0-1.697-.666-.64-.678-.64-1.906v-4.321h1.044v4.138q0 .928.405 1.384.405.444 1.188.444.314 0 .614-.078.3-.08.535-.235.235-.157.379-.392.143-.248.143-.587v-4.674h1.045v6.736h-1.045zm3.559-5.64h1.045v1.096h.052q.653-1.253 2.076-1.253 1.24 0 1.932.927.705.927.705 2.598t-.705 2.598q-.692.927-1.932.927-1.424 0-2.076-1.253h-.052v3.707h-1.045zm2.768 5.966q.913 0 1.41-.548.51-.562.509-1.476v-1.148q0-.915-.509-1.463-.496-.561-1.41-.561-.353 0-.666.091a1.6 1.6 0 0 0-.548.274 1.3 1.3 0 0 0-.379.431 1.25 1.25 0 0 0-.13.588v2.428q0 .34.13.601.144.248.379.431.235.17.548.261t.666.091m10.283.77q-.614 0-.875-.313a1.5 1.5 0 0 1-.326-.783h-.065q-.222.587-.719.927-.483.326-1.305.326-1.057 0-1.684-.548-.627-.549-.627-1.502 0-.939.679-1.449.692-.509 2.219-.509h1.437v-.666q0-.744-.418-1.11-.418-.378-1.188-.378-.68 0-1.11.274a1.96 1.96 0 0 0-.692.718l-.705-.522q.13-.261.353-.509.22-.248.548-.431.326-.196.744-.301.418-.117.927-.117 1.188 0 1.88.601.705.6.705 1.671v3.707h.94v.914zm-3.107-.718q.405 0 .731-.091.34-.105.587-.261.249-.17.379-.392a.94.94 0 0 0 .144-.496v-1.11h-1.437q-.94 0-1.37.261a.83.83 0 0 0-.431.758v.274q0 .522.365.796.38.261 1.032.261m5.713-8.943h1.044v4.021h.053q.653-1.253 2.075-1.253 1.24 0 1.933.927.705.927.705 2.598t-.705 2.598q-.693.927-1.933.927-1.422 0-2.075-1.253h-.053v1.096h-1.044zm2.768 8.891q.913 0 1.41-.548.509-.562.509-1.476v-1.148q0-.915-.509-1.463-.496-.561-1.41-.561-.353 0-.666.091a1.6 1.6 0 0 0-.548.274 1.3 1.3 0 0 0-.379.431 1.25 1.25 0 0 0-.131.588v2.428q0 .34.131.601.144.248.379.431.234.17.548.261t.666.091m10.282.77q-.613 0-.874-.313a1.53 1.53 0 0 1-.327-.783h-.065q-.222.587-.718.927-.483.326-1.306.326-1.057 0-1.684-.548-.626-.549-.626-1.502 0-.939.678-1.449.693-.509 2.22-.509h1.436v-.666q0-.744-.418-1.11-.417-.378-1.188-.378-.678 0-1.11.274a1.95 1.95 0 0 0-.691.718l-.705-.522q.13-.261.352-.509a2.1 2.1 0 0 1 .548-.431q.327-.196.745-.301.417-.117.926-.117 1.188 0 1.88.601.705.6.705 1.671v3.707h.94v.914zm-3.107-.718q.405 0 .731-.091.34-.105.588-.261.248-.17.378-.392a.94.94 0 0 0 .144-.496v-1.11h-1.436q-.94 0-1.371.261a.84.84 0 0 0-.431.758v.274q0 .522.366.796.378.261 1.031.261m8.468.875q-1.057 0-1.828-.353a4.1 4.1 0 0 1-1.292-.966l.705-.613q.483.508 1.057.783.575.274 1.384.274.783 0 1.28-.274.509-.286.509-.888a.8.8 0 0 0-.105-.431.7.7 0 0 0-.261-.287 1.3 1.3 0 0 0-.378-.156 3 3 0 0 0-.444-.105l-1.058-.157a11 11 0 0 1-.77-.143 2.7 2.7 0 0 1-.744-.287 1.9 1.9 0 0 1-.575-.549q-.222-.34-.222-.887 0-.51.196-.875.21-.379.575-.627.365-.261.861-.378a4.2 4.2 0 0 1 1.084-.131q.914 0 1.58.287.678.288 1.162.797l-.679.639a2 2 0 0 0-.3-.287 1.6 1.6 0 0 0-.431-.274 2.4 2.4 0 0 0-.588-.209 3.5 3.5 0 0 0-.783-.078q-.796 0-1.227.274-.418.274-.418.796 0 .261.091.444.105.17.274.274t.379.17q.222.052.444.091l1.057.157q.366.052.771.144.405.091.744.3.339.196.561.535.235.34.235.888 0 1.005-.783 1.554-.77.548-2.063.548m7.868 0q-.732 0-1.319-.248a2.86 2.86 0 0 1-.992-.705 3.4 3.4 0 0 1-.627-1.11 4.5 4.5 0 0 1-.222-1.449q0-.81.222-1.462.235-.653.64-1.11.405-.47.966-.718a3.2 3.2 0 0 1 1.266-.248q.68 0 1.228.248.56.248.953.692.392.43.6 1.031a4 4 0 0 1 .209 1.319v.496h-4.987v.313q0 .445.143.823.144.378.405.653.274.273.653.431.391.143.862.143.678 0 1.175-.313.495-.313.757-.862l.77.522q-.3.68-1.005 1.123-.692.43-1.697.431m-.066-6.188a2 2 0 0 0-1.436.587 2.1 2.1 0 0 0-.418.653 2.2 2.2 0 0 0-.143.809v.092h3.864v-.144q0-.444-.143-.809a1.8 1.8 0 0 0-.379-.627 1.5 1.5 0 0 0-.587-.418 1.9 1.9 0 0 0-.758-.143m7.776 6.149q-.535 0-.757-.222a.8.8 0 0 1-.209-.562v-.235q0-.339.209-.561.222-.222.757-.222.536 0 .744.222a.76.76 0 0 1 .222.561v.235a.76.76 0 0 1-.222.562q-.209.222-.744.222m8.246-8.343q-.457 0-.639-.182a.68.68 0 0 1-.183-.484v-.208q0-.288.183-.47.182-.196.639-.196t.64.196a.63.63 0 0 1 .183.47v.208a.68.68 0 0 1-.183.484q-.183.182-.64.182m-2.95 7.338h2.428v-4.962h-2.428v-.887h3.473v5.849h2.271v.887h-5.744zm10.361 1.044q-.705 0-1.28-.248a2.8 2.8 0 0 1-.966-.705 3.3 3.3 0 0 1-.6-1.11 4.8 4.8 0 0 1-.209-1.462q0-.797.209-1.449.209-.653.6-1.11.405-.47.966-.718.575-.248 1.28-.248t1.266.248q.574.248.966.718.405.458.614 1.11t.209 1.449q0 .81-.209 1.462a3.2 3.2 0 0 1-.614 1.11q-.392.458-.966.705a3.1 3.1 0 0 1-1.266.248m0-.901q.875 0 1.41-.522t.535-1.619v-.966q0-1.097-.535-1.619t-1.41-.522-1.41.522-.535 1.619v.966q0 1.097.535 1.619.536.522 1.41.522m5.086 2.546 4.544-11.724h.94l-4.544 11.724zm9.904-1.802-2.415-6.736h1.058l.966 2.82 1.044 3.042h.052l1.045-3.042.966-2.82h1.031l-2.415 6.736zm5.688 0v-.953h2.611v-7.35h-.092l-2.297 2.141-.64-.692 2.415-2.258h1.71v8.159h2.403v.953zm7.893 1.802 4.543-11.724h.94l-4.543 11.724zm10.57-1.645a3.2 3.2 0 0 1-1.279-.248 2.8 2.8 0 0 1-.967-.705 3.3 3.3 0 0 1-.6-1.11 4.8 4.8 0 0 1-.209-1.462q0-.797.209-1.449.208-.653.6-1.11a2.7 2.7 0 0 1 .967-.718 3.2 3.2 0 0 1 1.279-.248q.705 0 1.266.248.574.248.967.718.404.458.613 1.11t.209 1.449q0 .81-.209 1.462a3.2 3.2 0 0 1-.613 1.11q-.393.458-.967.705a3.1 3.1 0 0 1-1.266.248m0-.901q.875 0 1.41-.522t.535-1.619v-.966q0-1.097-.535-1.619-.536-.522-1.41-.522-.875 0-1.41.522t-.535 1.619v.966q0 1.097.535 1.619.536.522 1.41.522m4.917-.143h1.971v-4.962h-1.971v-.887h3.016v1.697h.065q.208-.796.783-1.24.588-.457 1.489-.457h.94v1.044h-1.267q-.9 0-1.462.522-.548.522-.548 1.371v2.912h2.611v.887h-5.627zm14.147 1.658q0 1.018-.849 1.501-.848.496-2.545.496-1.633 0-2.35-.431-.705-.43-.705-1.24 0-.548.287-.849t.809-.444v-.156a1.2 1.2 0 0 1-.444-.366.95.95 0 0 1-.156-.561q0-.522.339-.783a2.4 2.4 0 0 1 .875-.392v-.052a2.2 2.2 0 0 1-.979-.81q-.34-.535-.34-1.253 0-.51.183-.94t.522-.731q.353-.314.836-.483.483-.17 1.07-.17.757 0 1.332.274v-.117q0-.392.183-.653t.626-.261h1.241v.914h-1.515v.457q.366.313.562.744.195.43.196.966 0 .509-.196.94a2.1 2.1 0 0 1-.523.744q-.339.3-.835.47-.483.17-1.071.17-.17 0-.326-.013a4 4 0 0 1-.313-.039 1.6 1.6 0 0 0-.327.091 1 1 0 0 0-.313.157.8.8 0 0 0-.235.222.5.5 0 0 0-.091.3q0 .3.3.405.3.09.783.091h1.488q1.306 0 1.894.496.587.483.587 1.306m-.979.052a.78.78 0 0 0-.327-.653q-.326-.235-1.135-.235h-2.337q-.68.274-.679.914 0 .444.352.757.353.327 1.175.327h1.019q.913 0 1.423-.288.509-.274.509-.822m-2.468-3.878q.785 0 1.149-.365.38-.366.379-.966v-.379q0-.6-.379-.953-.364-.366-1.149-.366-.783 0-1.149.366-.365.353-.365.953v.379q0 .6.365.966.366.365 1.149.365m10.414 3.055q-.614 0-.875-.313a1.5 1.5 0 0 1-.326-.783h-.066q-.222.587-.718.927-.483.326-1.305.326-1.058 0-1.685-.548-.626-.549-.626-1.502 0-.939.679-1.449.692-.509 2.219-.509h1.436v-.666q0-.744-.418-1.11-.417-.378-1.188-.378-.678 0-1.109.274a1.95 1.95 0 0 0-.692.718l-.705-.522q.13-.261.352-.509a2.1 2.1 0 0 1 .549-.431q.326-.196.744-.301.417-.117.927-.117 1.188 0 1.88.601.705.6.705 1.671v3.707h.94v.914zm-3.108-.718q.405 0 .732-.091.34-.105.587-.261.248-.17.379-.392a.94.94 0 0 0 .143-.496v-1.11h-1.436q-.94 0-1.371.261a.84.84 0 0 0-.431.758v.274q0 .522.366.796.378.261 1.031.261m5.753.718v-6.736h1.044v1.096h.052q.105-.248.262-.47a1.7 1.7 0 0 1 .378-.404q.236-.17.549-.275.312-.104.731-.104 1.057 0 1.697.679.64.666.64 1.893v4.321h-1.045v-4.138q0-.927-.405-1.371-.404-.457-1.188-.457-.313 0-.613.078a1.8 1.8 0 0 0-.536.235q-.234.157-.378.405a1.1 1.1 0 0 0-.144.574v4.674zm10.883-8.225q-.457 0-.64-.182a.68.68 0 0 1-.182-.484v-.208q0-.288.182-.47.183-.196.64-.196t.64.196a.63.63 0 0 1 .183.47v.208a.68.68 0 0 1-.183.484q-.183.182-.64.182m-2.95 7.338h2.428v-4.962h-2.428v-.887h3.472v5.849h2.272v.887h-5.744zm7.554.887v-1.005l4.347-4.844h-4.204v-.887h5.34v1.005l-4.348 4.844h4.478v.887zm13.181 0q-.614 0-.875-.313a1.5 1.5 0 0 1-.326-.783h-.066q-.222.587-.718.927-.483.326-1.305.326-1.058 0-1.685-.548-.626-.549-.626-1.502 0-.939.679-1.449.692-.509 2.219-.509h1.436v-.666q0-.744-.418-1.11-.417-.378-1.188-.378-.678 0-1.109.274a1.95 1.95 0 0 0-.692.718l-.705-.522q.13-.261.352-.509a2.1 2.1 0 0 1 .549-.431q.325-.196.744-.301.417-.117.927-.117 1.187 0 1.88.601.705.6.705 1.671v3.707h.94v.914zm-3.108-.718q.405 0 .732-.091.34-.105.587-.261.248-.17.379-.392a.94.94 0 0 0 .143-.496v-1.11h-1.436q-.94 0-1.371.261a.84.84 0 0 0-.431.758v.274q0 .522.366.796.378.261 1.031.261m8.716.718q-.77 0-1.135-.431-.353-.43-.353-1.109v-4.309h-2.245v-.887h1.671q.34 0 .47-.131.143-.144.143-.483v-1.762h1.006v2.376h3.068v.887h-3.068v4.962h3.068v.887zm7.92-8.225q-.457 0-.64-.182a.68.68 0 0 1-.182-.484v-.208q0-.288.182-.47.183-.196.64-.196t.64.196a.63.63 0 0 1 .183.47v.208a.68.68 0 0 1-.183.484q-.183.182-.64.182m-2.951 7.338h2.429v-4.962h-2.429v-.887h3.473v5.849h2.272v.887h-5.745zm10.362 1.044q-.705 0-1.28-.248a2.8 2.8 0 0 1-.966-.705 3.3 3.3 0 0 1-.601-1.11 4.8 4.8 0 0 1-.208-1.462q0-.797.208-1.449.21-.653.601-1.11.405-.47.966-.718.575-.248 1.28-.248t1.266.248q.574.248.966.718.404.458.614 1.11t.209 1.449q0 .81-.209 1.462-.21.64-.614 1.11-.392.458-.966.705a3.1 3.1 0 0 1-1.266.248m0-.901q.874 0 1.41-.522t.535-1.619v-.966q0-1.097-.535-1.619t-1.41-.522q-.876 0-1.41.522-.536.522-.536 1.619v.966q0 1.097.536 1.619.534.522 1.41.522m5.191.744v-6.736h1.044v1.096h.052q.105-.248.261-.47.157-.234.379-.404a2 2 0 0 1 .548-.275q.314-.104.731-.104 1.058 0 1.698.679.639.666.639 1.893v4.321h-1.044v-4.138q0-.927-.405-1.371-.405-.457-1.188-.457-.313 0-.614.078-.3.078-.535.235t-.378.405a1.1 1.1 0 0 0-.144.574v4.674zm10.543.157q-1.057 0-1.827-.353a4.1 4.1 0 0 1-1.293-.966l.705-.613a3.6 3.6 0 0 0 1.058.783q.575.274 1.383.274.784 0 1.28-.274.509-.286.509-.888a.8.8 0 0 0-.104-.431.7.7 0 0 0-.261-.287 1.3 1.3 0 0 0-.379-.156 3 3 0 0 0-.444-.105l-1.057-.157a11 11 0 0 1-.771-.143 2.7 2.7 0 0 1-.744-.287 1.9 1.9 0 0 1-.574-.549q-.222-.34-.222-.887 0-.51.196-.875.208-.379.574-.627.366-.261.862-.378.496-.132 1.083-.131.914 0 1.58.287.68.288 1.162.797l-.679.639a2 2 0 0 0-.3-.287 1.6 1.6 0 0 0-.431-.274 2.4 2.4 0 0 0-.588-.209 3.5 3.5 0 0 0-.783-.078q-.797 0-1.227.274-.418.274-.418.796 0 .261.091.444.105.17.275.274t.378.17q.222.052.444.091l1.058.157q.365.052.77.144.405.091.744.3.34.196.561.535.235.34.235.888 0 1.005-.783 1.554-.77.548-2.063.548m5.009 1.645 4.543-11.724h.94l-4.543 11.724zm10.57-1.684q-.536 0-.758-.222a.8.8 0 0 1-.209-.562v-.235q0-.339.209-.561.222-.222.758-.222.534 0 .744.222a.76.76 0 0 1 .222.561v.235a.76.76 0 0 1-.222.562q-.21.222-.744.222m0-5.17q-.536 0-.758-.222a.8.8 0 0 1-.209-.562v-.235q0-.339.209-.561.222-.222.758-.222.534 0 .744.222a.76.76 0 0 1 .222.561v.235a.76.76 0 0 1-.222.562q-.21.222-.744.222m7.828 5.209q-.705 0-1.28-.248a2.8 2.8 0 0 1-.966-.705 3.3 3.3 0 0 1-.6-1.11 4.8 4.8 0 0 1-.209-1.462q0-.797.209-1.449.208-.653.6-1.11.405-.47.966-.718.575-.248 1.28-.248t1.266.248q.575.248.966.718.405.458.614 1.11t.209 1.449q0 .81-.209 1.462a3.2 3.2 0 0 1-.614 1.11q-.392.458-.966.705a3.1 3.1 0 0 1-1.266.248m0-.901q.875 0 1.41-.522t.535-1.619v-.966q0-1.097-.535-1.619-.536-.522-1.41-.522-.875 0-1.41.522-.536.522-.536 1.619v.966q0 1.097.536 1.619t1.41.522m4.917-.143h1.971v-4.962h-1.971v-.887h3.015v1.697h.066q.208-.796.783-1.24.588-.457 1.488-.457h.94v1.044h-1.266q-.901 0-1.462.522-.549.522-.549 1.371v2.912h2.612v.887h-5.627zm14.147 1.658q0 1.018-.849 1.501-.848.496-2.546.496-1.632 0-2.35-.431-.705-.43-.705-1.24 0-.548.288-.849.287-.3.809-.444v-.156a1.2 1.2 0 0 1-.444-.366.95.95 0 0 1-.157-.561q0-.522.34-.783.352-.262.875-.392v-.052a2.2 2.2 0 0 1-.98-.81q-.339-.535-.339-1.253 0-.51.183-.94t.522-.731q.352-.314.836-.483a3.2 3.2 0 0 1 1.07-.17q.757 0 1.332.274v-.117q0-.392.183-.653.182-.261.626-.261h1.24v.914h-1.514v.457q.366.313.561.744a2.3 2.3 0 0 1 .196.966q0 .509-.196.94a2.1 2.1 0 0 1-.522.744q-.34.3-.835.47-.483.17-1.071.17-.17 0-.326-.013a4 4 0 0 1-.314-.039 1.6 1.6 0 0 0-.326.091 1 1 0 0 0-.313.157.8.8 0 0 0-.235.222.5.5 0 0 0-.092.3q0 .3.301.405.3.09.783.091h1.488q1.307 0 1.893.496.588.483.588 1.306m-.979.052a.78.78 0 0 0-.327-.653q-.326-.235-1.136-.235h-2.337q-.678.274-.678.914 0 .444.352.757.353.327 1.175.327h1.018q.915 0 1.423-.288.51-.274.51-.822m-2.468-3.878q.783 0 1.149-.365.379-.366.379-.966v-.379q0-.6-.379-.953-.366-.366-1.149-.366t-1.149.366q-.365.353-.365.953v.379q0 .6.365.966.366.365 1.149.365m4.734 5.262v-.966h6.267v.966zm11.38-10.432q-.457 0-.64-.182a.68.68 0 0 1-.183-.484v-.208q0-.288.183-.47.183-.196.64-.196.456 0 .639.196a.63.63 0 0 1 .183.47v.208a.68.68 0 0 1-.183.484q-.183.182-.639.182m-2.951 7.338h2.428v-4.962h-2.428v-.887h3.473v5.849h2.271v.887h-5.744zm11.993-.209h-.052q-.652 1.253-2.076 1.253-1.24 0-1.945-.927-.693-.927-.692-2.598 0-1.671.692-2.598.705-.927 1.945-.927 1.424 0 2.076 1.253h.052v-4.021h1.044v9.661h-1.044zm-1.723.326q.353 0 .665-.091t.549-.261q.234-.183.365-.431.144-.262.144-.601v-2.428q0-.339-.144-.588a1.2 1.2 0 0 0-.365-.431 1.7 1.7 0 0 0-.549-.274 2.4 2.4 0 0 0-.665-.091q-.915 0-1.423.561-.497.549-.497 1.463v1.148q0 .914.497 1.476.508.548 1.423.548m5.178 2.572 4.543-11.724h.94l-4.543 11.724zm10.569-1.645a3.2 3.2 0 0 1-1.279-.248 2.8 2.8 0 0 1-.966-.705 3.3 3.3 0 0 1-.601-1.11 4.8 4.8 0 0 1-.209-1.462q0-.797.209-1.449.21-.653.601-1.11.405-.47.966-.718a3.2 3.2 0 0 1 1.279-.248q.706 0 1.267.248.574.248.966.718.404.458.614 1.11.208.652.208 1.449a4.8 4.8 0 0 1-.208 1.462q-.21.64-.614 1.11-.392.458-.966.705a3.1 3.1 0 0 1-1.267.248m0-.901q.876 0 1.41-.522.536-.522.536-1.619v-.966q0-1.097-.536-1.619-.534-.522-1.41-.522t-1.41.522q-.535.522-.535 1.619v.966q0 1.097.535 1.619.536.522 1.41.522m10.375.744q-.614 0-.875-.313a1.53 1.53 0 0 1-.327-.783h-.065q-.222.587-.718.927-.483.326-1.305.326-1.058 0-1.685-.548-.626-.549-.626-1.502 0-.939.679-1.449.692-.509 2.219-.509h1.436v-.666q0-.744-.418-1.11-.417-.378-1.188-.378-.678 0-1.109.274a1.95 1.95 0 0 0-.692.718l-.705-.522q.13-.261.352-.509a2.1 2.1 0 0 1 .549-.431q.325-.196.744-.301.417-.117.927-.117 1.188 0 1.88.601.705.6.705 1.671v3.707h.94v.914zm-3.108-.718q.405 0 .731-.091.34-.105.588-.261.248-.17.379-.392a.94.94 0 0 0 .143-.496v-1.11h-1.436q-.94 0-1.371.261a.84.84 0 0 0-.431.758v.274q0 .522.366.796.378.261 1.031.261m9.983-.378h-.052q-.105.248-.262.483a1.7 1.7 0 0 1-.391.391 1.8 1.8 0 0 1-.536.275 2.3 2.3 0 0 1-.731.104q-1.057 0-1.697-.666-.64-.678-.64-1.906v-4.321h1.045v4.138q0 .928.405 1.384.403.444 1.188.444.313 0 .613-.078.3-.08.536-.235.234-.157.378-.392.144-.248.144-.587v-4.674h1.044v6.736h-1.044zm6.562 1.096q-.771 0-1.136-.431-.353-.43-.353-1.109v-4.309h-2.245v-.887h1.671q.34 0 .47-.131.144-.144.143-.483v-1.762h1.006v2.376h3.068v.887h-3.068v4.962h3.068v.887zm4.864-9.661h1.045v4.021h.052q.105-.248.261-.47.157-.234.379-.404.234-.17.548-.275.314-.104.731-.104 1.058 0 1.697.679.64.666.64 1.893v4.321h-1.044v-4.138q0-.927-.405-1.371-.405-.457-1.188-.457-.314 0-.614.078t-.535.235-.379.405a1.13 1.13 0 0 0-.143.574v4.674h-1.045zm7.724 11.463 4.543-11.724h.94l-4.543 11.724zm13.116-1.802q-.614 0-.875-.313a1.5 1.5 0 0 1-.326-.783h-.066q-.222.587-.718.927-.483.326-1.305.326-1.058 0-1.684-.548-.627-.549-.627-1.502 0-.939.679-1.449.692-.509 2.219-.509h1.436v-.666q0-.744-.417-1.11-.418-.378-1.188-.378-.68 0-1.11.274a1.96 1.96 0 0 0-.692.718l-.705-.522q.13-.261.352-.509a2.1 2.1 0 0 1 .549-.431q.326-.196.744-.301.417-.117.927-.117 1.188 0 1.88.601.705.6.705 1.671v3.707h.94v.914zm-3.107-.718q.404 0 .731-.091.34-.105.587-.261.249-.17.379-.392a.93.93 0 0 0 .143-.496v-1.11h-1.436q-.939 0-1.371.261a.84.84 0 0 0-.43.758v.274q0 .522.365.796.379.261 1.032.261m5.713-6.018h1.044v1.096h.052q.654-1.253 2.076-1.253 1.24 0 1.933.927.705.927.705 2.598t-.705 2.598q-.693.927-1.933.927-1.422 0-2.076-1.253h-.052v3.707h-1.044zm2.768 5.966q.913 0 1.41-.548.509-.562.509-1.476v-1.148q0-.915-.509-1.463-.497-.561-1.41-.561-.352 0-.666.091a1.7 1.7 0 0 0-.549.274 1.3 1.3 0 0 0-.378.431 1.25 1.25 0 0 0-.131.588v2.428q0 .34.131.601.144.248.378.431.236.17.549.261t.666.091m5.06-5.966h1.045v1.096h.052q.653-1.253 2.076-1.253 1.24 0 1.932.927.705.927.705 2.598t-.705 2.598q-.692.927-1.932.927-1.423 0-2.076-1.253h-.052v3.707h-1.045zm2.768 5.966q.913 0 1.41-.548.509-.562.509-1.476v-1.148q0-.915-.509-1.463-.497-.561-1.41-.561-.352 0-.666.091a1.6 1.6 0 0 0-.548.274 1.3 1.3 0 0 0-.379.431 1.25 1.25 0 0 0-.13.588v2.428q0 .34.13.601.144.248.379.431.234.17.548.261.313.091.666.091m7.815.927q-1.057 0-1.828-.353a4.1 4.1 0 0 1-1.292-.966l.705-.613q.483.508 1.057.783.575.274 1.384.274.783 0 1.28-.274.509-.286.509-.888a.8.8 0 0 0-.105-.431.7.7 0 0 0-.261-.287 1.3 1.3 0 0 0-.378-.156 3 3 0 0 0-.444-.105l-1.058-.157a11 11 0 0 1-.77-.143 2.7 2.7 0 0 1-.744-.287 1.9 1.9 0 0 1-.575-.549q-.222-.34-.222-.887 0-.51.196-.875.209-.379.575-.627.365-.261.861-.378a4.2 4.2 0 0 1 1.084-.131q.914 0 1.58.287.678.288 1.162.797l-.679.639a2 2 0 0 0-.301-.287 1.6 1.6 0 0 0-.43-.274 2.5 2.5 0 0 0-.588-.209 3.5 3.5 0 0 0-.783-.078q-.797 0-1.227.274-.418.274-.418.796 0 .261.091.444.105.17.274.274t.379.17q.222.052.444.091l1.057.157q.366.052.771.144.404.091.744.3.339.196.561.535.235.34.235.888 0 1.005-.783 1.554-.77.548-2.063.548m4.943-1.449 4.635-2.624v-.105l-4.635-2.624v-1.11l5.614 3.251v1.045l-5.614 3.25zm10.139-4.752v-3.617h.992v3.617z"/><path fill="#3dcb8c" d="M143.157 115.9v-1.097h3.786v1.097zm13.312 3.42h-1.241l-1.083-1.814-1.201-1.985h-.053l-1.24 1.985-1.149 1.814h-1.201l2.977-4.647-2.807-4.465h1.24l1.058 1.762 1.135 1.841h.053l1.122-1.841 1.097-1.762h1.201l-2.82 4.451z"/><path fill="#e9e9e9" d="M104.016 134.9v-1.097h3.786v1.097zm11.497-.718h-3.551v4.138h-1.097v-9.112h1.097v4.021h3.551v-4.021h1.096v9.112h-1.096zM104.016 154.9v-1.097h3.786v1.097zm11.497-.718h-3.551v4.138h-1.097v-9.112h1.097v4.021h3.551v-4.021h1.096v9.112h-1.096zM104.016 173.9v-1.097h3.786v1.097zm11.353 2.324h-.052q-.653 1.253-2.076 1.253-1.24 0-1.945-.927-.693-.927-.692-2.598 0-1.671.692-2.598.705-.927 1.945-.927 1.424 0 2.076 1.253h.052v-4.021h1.045v9.661h-1.045zm-1.723.326q.352 0 .666-.091.312-.091.548-.261.235-.183.365-.431.144-.262.144-.601v-2.428q0-.339-.144-.588a1.2 1.2 0 0 0-.365-.431 1.7 1.7 0 0 0-.548-.274 2.4 2.4 0 0 0-.666-.091q-.915 0-1.423.561-.496.549-.496 1.463v1.148q0 .914.496 1.476.508.548 1.423.548"/><path stroke="#848788" stroke-width=".934" d="M244.545 105.066V126.5"/><path fill="#91c2da" d="M371.906 162.134v-14.306l10.372 10.372h-6.08l-.358.089z"/><path fill="#91c2da" d="m380.042 162.761-3.219 1.341-4.202-9.925 3.308-1.341z"/><path fill="#0d1118" d="m376.086 155.534-1.648.693 2.768 6.595 1.649-.692z"/><path fill="#0d1118" d="M372.801 149.977v10.014l2.682-2.593.358-.09h4.292z"/><path fill="#131620" stroke="#1b1d29" stroke-width=".779" d="M647.872 72.41H234v23.363h413.872z" opacity=".9"/><path stroke="#8f8f8f" stroke-linecap="round" d="M113.916 81.445c-1.058 0-1.916.572-1.916 1.277 0 .706.858 1.278 1.916 1.278 1.059 0 1.917.572 1.917 1.278 0 .705-.858 1.277-1.916 1.277m-.001-5.11c.71 0 1.329.257 1.661.639m-1.661-.64v-.638m0 .639.001 5.11m0 0-.001.64m.001-.64c-.71 0-1.329-.257-1.661-.639"/><path fill="#717171" d="M120.324 86.5v-4.248h.631v.642h.044q.115-.314.42-.512a1.24 1.24 0 0 1 .686-.196 7 7 0 0 1 .343.011v.664a2 2 0 0 0-.152-.025 1.5 1.5 0 0 0-.246-.02q-.31 0-.553.13a.955.955 0 0 0-.52.866V86.5zm4.549.088q-.614 0-1.059-.27a1.8 1.8 0 0 1-.683-.764q-.238-.492-.238-1.145 0-.652.238-1.15.24-.501.669-.78a1.8 1.8 0 0 1 1.007-.282q.332 0 .655.11.324.111.589.36.266.246.423.653.159.405.158 1v.277h-3.274v-.564h2.61q0-.36-.143-.641a1.09 1.09 0 0 0-1.018-.609q-.39 0-.675.194a1.27 1.27 0 0 0-.434.498 1.5 1.5 0 0 0-.152.658v.376q0 .48.166.816.168.331.467.506.299.171.694.171.258 0 .465-.072a1 1 0 0 0 .362-.22q.153-.15.235-.371l.631.177a1.4 1.4 0 0 1-.335.564q-.235.24-.581.376-.345.132-.777.132m4.466 1.593q-.473 0-.813-.121a1.7 1.7 0 0 1-.567-.316 1.7 1.7 0 0 1-.356-.414l.52-.365q.088.115.224.265.136.153.37.263.238.113.622.113.514 0 .849-.249t.335-.78v-.862h-.055a3 3 0 0 1-.205.287 1.2 1.2 0 0 1-.376.302q-.244.13-.658.13-.514 0-.924-.244a1.7 1.7 0 0 1-.644-.708q-.235-.465-.235-1.128 0-.652.229-1.137a1.77 1.77 0 0 1 .639-.752q.41-.268.946-.268.415 0 .658.138.246.136.376.31.133.171.205.282h.066v-.675h.631v4.37q0 .548-.249.89-.246.346-.664.506a2.5 2.5 0 0 1-.924.163m-.022-2.334q.393 0 .664-.18t.412-.517a2.1 2.1 0 0 0 .141-.807q0-.459-.138-.81a1.2 1.2 0 0 0-.409-.55 1.1 1.1 0 0 0-.67-.2q-.415 0-.691.21-.274.21-.412.565-.135.353-.136.785 0 .443.139.783a1.2 1.2 0 0 0 .414.53q.277.192.686.191m3.053.653v-4.248h.653V86.5zm.332-4.956a.46.46 0 0 1-.329-.13.42.42 0 0 1-.135-.312q0-.183.135-.313a.46.46 0 0 1 .329-.13q.19 0 .327.13.138.13.138.313a.41.41 0 0 1-.138.312.46.46 0 0 1-.327.13m4.525 1.66-.586.166a1.1 1.1 0 0 0-.163-.285.8.8 0 0 0-.288-.233 1.04 1.04 0 0 0-.467-.09q-.39 0-.65.179-.258.177-.257.45 0 .244.177.385.177.14.553.235l.63.155q.57.138.849.423.28.282.28.727 0 .365-.211.653a1.4 1.4 0 0 1-.58.454q-.374.165-.869.165-.65 0-1.075-.282a1.25 1.25 0 0 1-.54-.824l.62-.154q.088.343.334.514.25.171.65.171.456 0 .725-.193.271-.197.271-.47a.5.5 0 0 0-.155-.371q-.155-.152-.476-.227l-.708-.166q-.583-.138-.857-.428a1.04 1.04 0 0 1-.271-.733q0-.36.202-.636.204-.278.556-.434a1.95 1.95 0 0 1 .802-.158q.63 0 .99.276.362.277.514.73m2.907-.952v.553h-2.201v-.553zm-1.559-1.017h.652v4.048q0 .277.08.415.084.135.211.183a.8.8 0 0 0 .273.044q.108 0 .177-.011l.111-.022.133.586a1.375 1.375 0 0 1-.487.077q-.276 0-.542-.119-.263-.119-.437-.362a1.04 1.04 0 0 1-.171-.614zm4.276 5.353q-.613 0-1.059-.27a1.8 1.8 0 0 1-.683-.764 2.6 2.6 0 0 1-.238-1.145q0-.652.238-1.15.242-.501.669-.78a1.8 1.8 0 0 1 1.007-.282q.332 0 .655.11.324.111.589.36.266.246.424.653.157.405.157 1v.277h-3.274v-.564h2.611q0-.36-.144-.641a1.09 1.09 0 0 0-1.018-.609q-.39 0-.675.194a1.27 1.27 0 0 0-.434.498 1.5 1.5 0 0 0-.152.658v.376q0 .48.166.816.168.331.467.506.299.171.694.171.258 0 .465-.072a1 1 0 0 0 .362-.22q.153-.15.235-.371l.631.177a1.4 1.4 0 0 1-.335.564q-.234.24-.581.376-.345.132-.777.132m2.752-.088v-4.248h.631v.642h.044q.115-.314.42-.512a1.24 1.24 0 0 1 .686-.196 7 7 0 0 1 .343.011v.664a2 2 0 0 0-.152-.025 1.5 1.5 0 0 0-.246-.02q-.31 0-.553.13a.955.955 0 0 0-.52.866V86.5zm5.829 0v.608h-3.54V86.5zm1.84.1q-.405 0-.733-.152a1.25 1.25 0 0 1-.523-.446 1.26 1.26 0 0 1-.193-.708q0-.365.143-.591.144-.23.385-.36.24-.13.531-.194.292-.066.589-.105.387-.05.627-.074a1 1 0 0 0 .354-.092q.114-.064.114-.22v-.023q0-.41-.224-.636-.222-.227-.672-.227-.468 0-.733.205a1.2 1.2 0 0 0-.373.437l-.62-.222q.166-.386.443-.602.28-.218.608-.305.332-.087.653-.088.204 0 .47.05.268.047.517.196.252.15.418.45.165.303.165.808V86.5h-.652v-.575h-.033q-.067.138-.222.296-.154.157-.412.268-.256.11-.627.11m.099-.587q.387 0 .653-.152a1.04 1.04 0 0 0 .542-.899v-.597q-.042.05-.183.091a3 3 0 0 1-.32.07 15 15 0 0 1-.625.082q-.255.034-.476.108a.8.8 0 0 0-.354.219.55.55 0 0 0-.133.392q0 .34.252.515.254.171.644.171m3.039 2.08v-5.84h.63v.674h.078a6 6 0 0 1 .199-.282q.13-.174.37-.31.244-.138.659-.138.536 0 .945.268.41.268.639.76.23.493.23 1.162 0 .675-.23 1.17a1.8 1.8 0 0 1-.636.763 1.66 1.66 0 0 1-.937.269q-.41 0-.656-.136a1.2 1.2 0 0 1-.379-.312 4 4 0 0 1-.204-.294h-.056v2.246zm.641-3.717q0 .48.141.85.142.364.412.572.271.204.664.204.41 0 .683-.215a1.3 1.3 0 0 0 .415-.587 2.3 2.3 0 0 0 .141-.824q0-.449-.138-.807a1.25 1.25 0 0 0-.412-.573q-.274-.213-.689-.213a1.1 1.1 0 0 0-.669.202 1.2 1.2 0 0 0-.409.559 2.3 2.3 0 0 0-.139.832m4.104 3.717v-5.84h.631v.674h.077a6 6 0 0 1 .199-.282q.13-.174.371-.31.243-.138.658-.138.537 0 .946.268.41.268.639.76.23.493.229 1.162 0 .675-.229 1.17a1.8 1.8 0 0 1-.636.763 1.66 1.66 0 0 1-.938.269q-.41 0-.655-.136a1.2 1.2 0 0 1-.379-.312 4 4 0 0 1-.205-.294h-.055v2.246zm.642-3.717q0 .48.141.85.14.364.412.572.271.204.664.204.408 0 .683-.215.276-.22.414-.587a2.3 2.3 0 0 0 .141-.824q0-.449-.138-.807a1.24 1.24 0 0 0-.412-.573q-.273-.213-.688-.213a1.1 1.1 0 0 0-.67.202q-.27.2-.409.559a2.3 2.3 0 0 0-.138.832m4.579 2.168a.48.48 0 0 1-.351-.146.48.48 0 0 1-.146-.352q0-.204.146-.35a.48.48 0 0 1 .351-.147.48.48 0 0 1 .352.146.48.48 0 0 1 .146.352.512.512 0 0 1-.249.431.5.5 0 0 1-.249.066m1.758-.044v-5.664h.652v2.091h.056a6 6 0 0 1 .199-.282q.13-.174.37-.31.244-.138.659-.138.536 0 .945.268.41.268.639.76.23.493.23 1.162 0 .675-.23 1.17a1.8 1.8 0 0 1-.636.763 1.66 1.66 0 0 1-.937.269q-.41 0-.656-.136a1.2 1.2 0 0 1-.379-.312 4 4 0 0 1-.204-.294h-.078v.653zm.641-2.124q0 .48.141.85.142.364.412.572.271.204.664.204.41 0 .683-.215.277-.22.415-.587a2.3 2.3 0 0 0 .141-.824q0-.449-.138-.807a1.25 1.25 0 0 0-.412-.573q-.274-.213-.689-.213a1.1 1.1 0 0 0-.669.202 1.2 1.2 0 0 0-.409.559 2.3 2.3 0 0 0-.139.832m5.357 2.224a1.7 1.7 0 0 1-.733-.152 1.26 1.26 0 0 1-.522-.446 1.25 1.25 0 0 1-.194-.708q0-.365.144-.591.144-.23.384-.36t.531-.194q.294-.066.589-.105.388-.05.628-.074a1 1 0 0 0 .354-.092q.113-.064.113-.22v-.023q0-.41-.224-.636-.22-.227-.672-.227-.467 0-.733.205a1.2 1.2 0 0 0-.373.437l-.619-.222q.166-.386.442-.602.28-.218.608-.305.333-.087.653-.088.205 0 .47.05.268.047.517.196.252.15.418.45.166.303.166.808V86.5h-.653v-.575h-.033q-.066.138-.221.296a1.3 1.3 0 0 1-.412.268 1.6 1.6 0 0 1-.628.11m.1-.587q.387 0 .652-.152a1.03 1.03 0 0 0 .542-.899v-.597q-.04.05-.182.091a3 3 0 0 1-.321.07 15 15 0 0 1-.625.082q-.255.034-.476.108a.8.8 0 0 0-.354.219.56.56 0 0 0-.132.392q0 .34.251.515.255.171.645.171m6.047-2.81-.586.166a1.1 1.1 0 0 0-.164-.284.8.8 0 0 0-.287-.233 1.05 1.05 0 0 0-.467-.09q-.39 0-.65.179-.258.177-.258.45 0 .244.177.385.177.14.554.235l.63.155q.57.138.849.423.279.282.279.727 0 .365-.21.653a1.4 1.4 0 0 1-.581.454q-.373.165-.868.165-.65 0-1.076-.282-.425-.282-.539-.824l.62-.154q.088.343.334.514.25.171.65.171.456 0 .725-.193.27-.197.271-.47a.5.5 0 0 0-.155-.371q-.156-.152-.476-.227l-.708-.166q-.584-.138-.857-.428a1.04 1.04 0 0 1-.271-.733q0-.36.202-.636.204-.278.556-.434a1.95 1.95 0 0 1 .802-.158q.63 0 .99.276.362.277.514.73m1.712.742V86.5h-.652v-5.664h.652v2.08h.056q.149-.33.448-.523.301-.195.802-.196.434 0 .76.174.326.172.506.528.183.354.183.902V86.5h-.653v-2.655q0-.506-.263-.782-.26-.28-.721-.28-.321 0-.576.136a1 1 0 0 0-.398.395 1.3 1.3 0 0 0-.144.63m3.949 2.555v-4.248h.63v.642h.045q.116-.314.42-.512.304-.195.686-.196a7 7 0 0 1 .343.011v.664a2 2 0 0 0-.152-.025 1.5 1.5 0 0 0-.247-.02q-.309 0-.553.13a.956.956 0 0 0-.52.866V86.5zm4.494.088q-.598 0-1.029-.282a1.84 1.84 0 0 1-.664-.777 2.6 2.6 0 0 1-.232-1.13q0-.648.238-1.143.24-.497.669-.777a1.8 1.8 0 0 1 1.007-.282q.447 0 .807.166.36.165.589.465.23.298.285.696h-.653a1 1 0 0 0-.332-.514q-.254-.227-.685-.227-.382 0-.67.2-.284.196-.445.555a2.1 2.1 0 0 0-.157.838q0 .492.154.857.158.366.443.567.288.202.675.202.254 0 .461-.088a.95.95 0 0 0 .556-.653h.653a1.51 1.51 0 0 1-.846 1.153 1.85 1.85 0 0 1-.824.174"/></g><path stroke="#071517" d="M.5.5h628v340H.5z"/><defs><filter id="b" width="971.703" height="782.895" x="-439.266" y="-46.426" color-interpolation-filters="sRGB" filterUnits="userSpaceOnUse"><feFlood flood-opacity="0" result="BackgroundImageFix"/><feBlend in="SourceGraphic" in2="BackgroundImageFix" result="shape"/><feGaussianBlur result="effect1_foregroundBlur_4769_1899" stdDeviation="127.022"/></filter><filter id="d" width="971.703" height="782.895" x="-14.829" y="-172.7" color-interpolation-filters="sRGB" filterUnits="userSpaceOnUse"><feFlood flood-opacity="0" result="BackgroundImageFix"/><feBlend in="SourceGraphic" in2="BackgroundImageFix" result="shape"/><feGaussianBlur result="effect1_foregroundBlur_4769_1899" stdDeviation="127.022"/></filter><filter id="f" width="665.877" height="338.646" x="21.644" y="37.737" color-interpolation-filters="sRGB" filterUnits="userSpaceOnUse"><feFlood flood-opacity="0" result="BackgroundImageFix"/><feGaussianBlur in="BackgroundImageFix" stdDeviation="17.066"/><feComposite in2="SourceAlpha" operator="in" result="effect1_backgroundBlur_4769_1899"/><feBlend in="SourceGraphic" in2="effect1_backgroundBlur_4769_1899" result="shape"/></filter><filter id="h" width="99.184" height="341.761" x="22.033" y="38.127" color-interpolation-filters="sRGB" filterUnits="userSpaceOnUse"><feFlood flood-opacity="0" result="BackgroundImageFix"/><feGaussianBlur in="BackgroundImageFix" stdDeviation="17.066"/><feComposite in2="SourceAlpha" operator="in" result="effect1_backgroundBlur_4769_1899"/><feBlend in="SourceGraphic" in2="effect1_backgroundBlur_4769_1899" result="shape"/></filter><linearGradient id="c" x1="46.585" x2="46.585" y1="207.617" y2="482.425" gradientUnits="userSpaceOnUse"><stop stop-color="#13a470"/><stop offset="1" stop-color="#6f13a4" stop-opacity="0"/></linearGradient><linearGradient id="e" x1="471.023" x2="471.023" y1="81.344" y2="356.152" gradientUnits="userSpaceOnUse"><stop stop-color="#13a470"/><stop offset="1" stop-color="#6f13a4" stop-opacity="0"/></linearGradient><linearGradient id="g" x1="154.088" x2="199.654" y1="64.816" y2="259.033" gradientUnits="userSpaceOnUse"><stop stop-color="#fff" stop-opacity=".23"/><stop offset="1" stop-color="#fff" stop-opacity="0"/></linearGradient><clipPath id="a"><path fill="#fff" d="M1 1h627v339H1z"/></clipPath></defs></svg>