<svg width="765" height="208" viewBox="0 0 765 208" fill="none" xmlns="http://www.w3.org/2000/svg">
<g clip-path="url(#clip0_977_6929)">
<rect width="764" height="208" transform="translate(0.517578)" fill="#121516"/>
<path d="M510.358 139.877C510.358 158.028 495.644 172.743 477.493 172.743C459.342 172.743 444.628 158.028 444.628 139.877C444.628 121.726 459.342 107.012 477.493 107.012C495.644 107.012 510.358 121.726 510.358 139.877Z" stroke="url(#paint0_linear_977_6929)" stroke-width="0.5" stroke-dasharray="0.5 1"/>
<path d="M524.262 139.877C524.262 165.707 503.323 186.646 477.493 186.646C451.663 186.646 430.724 165.707 430.724 139.877C430.724 114.048 451.663 93.1084 477.493 93.1084C503.323 93.1084 524.262 114.048 524.262 139.877Z" stroke="url(#paint1_linear_977_6929)" stroke-width="0.5" stroke-dasharray="0.5 1"/>
<path d="M537.992 139.877C537.992 173.29 510.906 200.376 477.493 200.376C444.08 200.376 416.994 173.29 416.994 139.877C416.994 106.465 444.08 79.3784 477.493 79.3784C510.906 79.3784 537.992 106.465 537.992 139.877Z" stroke="url(#paint2_linear_977_6929)" stroke-width="0.5" stroke-dasharray="0.5 1"/>
<path d="M551.722 139.877C551.722 180.873 518.489 214.106 477.493 214.106C436.498 214.106 403.264 180.873 403.264 139.877C403.264 98.8819 436.498 65.6484 477.493 65.6484C518.489 65.6484 551.722 98.8819 551.722 139.877Z" stroke="url(#paint3_linear_977_6929)" stroke-width="0.5" stroke-dasharray="0.5 1"/>
<path d="M564.993 139.877C564.993 188.202 525.818 227.377 477.493 227.377C429.168 227.377 389.993 188.202 389.993 139.877C389.993 91.5525 429.168 52.3774 477.493 52.3774C525.818 52.3774 564.993 91.5525 564.993 139.877Z" stroke="url(#paint4_linear_977_6929)" stroke-width="0.5" stroke-dasharray="0.5 1"/>
<path d="M577.961 139.877C577.961 195.365 532.98 240.346 477.493 240.346C422.006 240.346 377.025 195.365 377.025 139.877C377.025 84.3904 422.006 39.4092 477.493 39.4092C532.98 39.4092 577.961 84.3904 577.961 139.877Z" stroke="url(#paint5_linear_977_6929)" stroke-width="0.5" stroke-dasharray="0.5 1"/>
<path d="M591.386 139.877C591.386 202.779 540.395 253.771 477.493 253.771C414.592 253.771 363.6 202.779 363.6 139.877C363.6 76.976 414.592 25.9844 477.493 25.9844C540.395 25.9844 591.386 76.976 591.386 139.877Z" stroke="url(#paint6_linear_977_6929)" stroke-width="0.5" stroke-dasharray="0.5 1"/>
<path d="M605.726 139.877C605.726 210.699 548.314 268.11 477.493 268.11C406.672 268.11 349.26 210.699 349.26 139.877C349.26 69.0564 406.672 11.6445 477.493 11.6445C548.314 11.6445 605.726 69.0564 605.726 139.877Z" stroke="url(#paint7_linear_977_6929)" stroke-width="0.5" stroke-dasharray="0.5 1"/>
<path d="M620.371 139.877C620.371 218.787 556.402 282.755 477.493 282.755C398.584 282.755 334.615 218.787 334.615 139.877C334.615 60.9681 398.584 -3.00049 477.493 -3.00049C556.402 -3.00049 620.371 60.9681 620.371 139.877Z" stroke="url(#paint8_linear_977_6929)" stroke-width="0.5" stroke-dasharray="0.5 1"/>
<path d="M634.406 139.877C634.406 226.538 564.154 296.791 477.493 296.791C390.832 296.791 320.58 226.538 320.58 139.877C320.58 53.2167 390.832 -17.0356 477.493 -17.0356C564.154 -17.0356 634.406 53.2167 634.406 139.877Z" stroke="url(#paint9_linear_977_6929)" stroke-width="0.5" stroke-dasharray="0.5 1"/>
<path d="M650.577 139.877C650.577 235.469 573.085 312.961 477.493 312.961C381.902 312.961 304.409 235.469 304.409 139.877C304.409 44.2858 381.902 -33.2065 477.493 -33.2065C573.085 -33.2065 650.577 44.2858 650.577 139.877Z" stroke="url(#paint10_linear_977_6929)" stroke-width="0.5" stroke-dasharray="0.5 1"/>
<path d="M666.442 139.877C666.442 244.231 581.847 328.827 477.493 328.827C373.139 328.827 288.544 244.231 288.544 139.877C288.544 35.5237 373.139 -49.0718 477.493 -49.0718C581.847 -49.0718 666.442 35.5237 666.442 139.877Z" stroke="url(#paint11_linear_977_6929)" stroke-width="0.5" stroke-dasharray="0.5 1"/>
<path d="M682.744 139.877C682.744 253.234 590.85 345.128 477.493 345.128C364.136 345.128 272.242 253.234 272.242 139.877C272.242 26.5205 364.136 -65.3735 477.493 -65.3735C590.85 -65.3735 682.744 26.5205 682.744 139.877Z" stroke="url(#paint12_linear_977_6929)" stroke-width="0.5" stroke-dasharray="0.5 1"/>
<path d="M700.31 139.877C700.31 262.936 600.551 362.694 477.493 362.694C354.435 362.694 254.677 262.936 254.677 139.877C254.677 16.8193 354.435 -82.939 477.493 -82.939C600.551 -82.939 700.31 16.8193 700.31 139.877Z" stroke="url(#paint13_linear_977_6929)" stroke-width="0.5" stroke-dasharray="0.5 1"/>
<path d="M718.729 139.877C718.729 273.108 610.724 381.113 477.493 381.113C344.262 381.113 236.257 273.108 236.257 139.877C236.257 6.64656 344.262 -101.358 477.493 -101.358C610.724 -101.358 718.729 6.64656 718.729 139.877Z" stroke="url(#paint14_linear_977_6929)" stroke-width="0.5" stroke-dasharray="0.5 1"/>
<path d="M734.703 139.877C734.703 281.93 619.546 397.087 477.493 397.087C335.44 397.087 220.284 281.93 220.284 139.877C220.284 -2.17543 335.44 -117.332 477.493 -117.332C619.546 -117.332 734.703 -2.17543 734.703 139.877Z" stroke="url(#paint15_linear_977_6929)" stroke-width="0.5" stroke-dasharray="0.5 1"/>
<rect x="452.221" y="21.1279" width="339.707" height="199.75" rx="3.75" fill="#121516" stroke="#172021" stroke-width="0.5"/>
<g filter="url(#filter0_dd_977_6929)">
<rect x="467.424" y="129.66" width="20.1407" height="20.1407" rx="10.0703" fill="#1B2226"/>
</g>
<rect x="477.493" y="134.59" width="7.47685" height="7.47685" transform="rotate(45 477.493 134.59)" stroke="#EDEDED" stroke-linecap="round" stroke-linejoin="round"/>
<circle cx="477.493" cy="139.877" r="1.42919" stroke="#EDEDED" stroke-linecap="round" stroke-linejoin="round"/>
<path d="M501.375 143.66L500.605 141.68H497.465L496.715 143.66H495.665L498.485 136.57H499.615L502.435 143.66H501.375ZM499.025 137.59L497.815 140.77H500.255L499.025 137.59ZM502.888 142.41L503.738 142.11C503.798 142.61 504.178 143.01 504.858 143.01C505.388 143.01 505.678 142.71 505.678 142.37C505.678 142.07 505.458 141.84 505.058 141.75L504.238 141.57C503.488 141.41 503.038 140.9 503.038 140.22C503.038 139.4 503.808 138.7 504.748 138.7C506.068 138.7 506.478 139.56 506.578 139.99L505.748 140.3C505.708 140.05 505.508 139.5 504.748 139.5C504.268 139.5 503.948 139.81 503.948 140.14C503.948 140.43 504.128 140.64 504.498 140.72L505.278 140.89C506.148 141.08 506.608 141.61 506.608 142.32C506.608 143 506.038 143.81 504.848 143.81C503.528 143.81 502.968 142.96 502.888 142.41ZM507.409 142.41L508.259 142.11C508.319 142.61 508.699 143.01 509.379 143.01C509.909 143.01 510.199 142.71 510.199 142.37C510.199 142.07 509.979 141.84 509.579 141.75L508.759 141.57C508.009 141.41 507.559 140.9 507.559 140.22C507.559 139.4 508.329 138.7 509.269 138.7C510.589 138.7 510.999 139.56 511.099 139.99L510.269 140.3C510.229 140.05 510.029 139.5 509.269 139.5C508.789 139.5 508.469 139.81 508.469 140.14C508.469 140.43 508.649 140.64 509.019 140.72L509.799 140.89C510.669 141.08 511.129 141.61 511.129 142.32C511.129 143 510.559 143.81 509.369 143.81C508.049 143.81 507.489 142.96 507.409 142.41ZM513.311 143.66H512.381V138.85H513.311V143.66ZM512.171 137.03C512.171 136.65 512.471 136.35 512.841 136.35C513.221 136.35 513.521 136.65 513.521 137.03C513.521 137.4 513.221 137.7 512.841 137.7C512.471 137.7 512.171 137.4 512.171 137.03ZM514.46 142.41L515.31 142.11C515.37 142.61 515.75 143.01 516.43 143.01C516.96 143.01 517.25 142.71 517.25 142.37C517.25 142.07 517.03 141.84 516.63 141.75L515.81 141.57C515.06 141.41 514.61 140.9 514.61 140.22C514.61 139.4 515.38 138.7 516.32 138.7C517.64 138.7 518.05 139.56 518.15 139.99L517.32 140.3C517.28 140.05 517.08 139.5 516.32 139.5C515.84 139.5 515.52 139.81 515.52 140.14C515.52 140.43 515.7 140.64 516.07 140.72L516.85 140.89C517.72 141.08 518.18 141.61 518.18 142.32C518.18 143 517.61 143.81 516.42 143.81C515.1 143.81 514.54 142.96 514.46 142.41ZM520.691 137.33V138.85H521.731V139.7H520.691V142.2C520.691 142.64 520.871 142.86 521.361 142.86C521.481 142.86 521.651 142.84 521.731 142.82V143.62C521.651 143.65 521.411 143.71 521.091 143.71C520.271 143.71 519.751 143.21 519.751 142.34V139.7H518.831V138.85H519.091C519.611 138.85 519.831 138.53 519.831 138.11V137.33H520.691ZM522.686 142.37C522.686 141.51 523.316 141.03 524.146 140.91L525.446 140.72C525.736 140.68 525.816 140.53 525.816 140.36C525.816 139.89 525.506 139.5 524.776 139.5C524.116 139.5 523.746 139.91 523.686 140.47L522.786 140.26C522.886 139.34 523.716 138.7 524.756 138.7C526.196 138.7 526.756 139.52 526.756 140.46V142.87C526.756 143.29 526.796 143.54 526.816 143.66H525.896C525.876 143.54 525.846 143.36 525.846 143.01C525.636 143.35 525.156 143.81 524.296 143.81C523.316 143.81 522.686 143.13 522.686 142.37ZM524.426 143.02C525.196 143.02 525.816 142.65 525.816 141.6V141.38L524.346 141.6C523.946 141.66 523.646 141.89 523.646 142.32C523.646 142.68 523.946 143.02 524.426 143.02ZM529.16 140.88V143.66H528.22V138.85H529.14V139.54C529.49 138.94 530.06 138.71 530.62 138.71C531.77 138.71 532.34 139.54 532.34 140.61V143.66H531.4V140.77C531.4 140.1 531.12 139.56 530.28 139.56C529.54 139.56 529.16 140.15 529.16 140.88ZM535.096 137.33V138.85H536.136V139.7H535.096V142.2C535.096 142.64 535.276 142.86 535.766 142.86C535.886 142.86 536.056 142.84 536.136 142.82V143.62C536.056 143.65 535.816 143.71 535.496 143.71C534.676 143.71 534.156 143.21 534.156 142.34V139.7H533.236V138.85H533.496C534.016 138.85 534.236 138.53 534.236 138.11V137.33H535.096Z" fill="#B0B0B0"/>
<path d="M555.297 142.66H554.394V136.129H558.365V136.967H555.297V139.067H558.079V139.915H555.297V142.66ZM559.614 139.989H562.037C562.018 139.353 561.604 138.855 560.821 138.855C560.093 138.855 559.651 139.417 559.614 139.989ZM562.166 141.14L562.912 141.398C562.663 142.181 561.954 142.798 560.922 142.798C559.734 142.798 558.693 141.932 558.693 140.431C558.693 139.04 559.697 138.091 560.812 138.091C562.175 138.091 562.94 139.03 562.94 140.412C562.94 140.523 562.931 140.633 562.921 140.689H559.586C559.605 141.481 560.176 142.034 560.922 142.034C561.641 142.034 562 141.638 562.166 141.14ZM566.497 138.229H567.39L568.542 141.564L569.518 138.229H570.43L568.993 142.66H568.1L566.92 139.288L565.769 142.66H564.857L563.401 138.229H564.35L565.345 141.564L566.497 138.229ZM574.465 142.66H573.608V138.229H574.438V138.819C574.714 138.33 575.267 138.1 575.783 138.1C576.335 138.1 576.87 138.367 577.109 138.938C577.459 138.303 578.03 138.1 578.592 138.1C579.366 138.1 580.122 138.625 580.122 139.786V142.66H579.265V139.878C579.265 139.298 578.979 138.865 578.325 138.865C577.717 138.865 577.303 139.344 577.303 139.979V142.66H576.437V139.878C576.437 139.307 576.16 138.865 575.497 138.865C574.88 138.865 574.465 139.325 574.465 139.989V142.66ZM583.405 142.024C584.142 142.024 584.787 141.472 584.787 140.44C584.787 139.417 584.142 138.865 583.405 138.865C582.668 138.865 582.023 139.417 582.023 140.44C582.023 141.472 582.668 142.024 583.405 142.024ZM583.405 138.091C584.732 138.091 585.671 139.095 585.671 140.44C585.671 141.794 584.732 142.798 583.405 142.798C582.078 142.798 581.139 141.794 581.139 140.44C581.139 139.095 582.078 138.091 583.405 138.091ZM587.636 142.66H586.779V138.229H587.608V138.819C587.885 138.33 588.438 138.1 588.953 138.1C589.506 138.1 590.04 138.367 590.28 138.938C590.63 138.303 591.201 138.1 591.763 138.1C592.537 138.1 593.292 138.625 593.292 139.786V142.66H592.436V139.878C592.436 139.298 592.15 138.865 591.496 138.865C590.888 138.865 590.473 139.344 590.473 139.979V142.66H589.607V139.878C589.607 139.307 589.331 138.865 588.668 138.865C588.051 138.865 587.636 139.325 587.636 139.989V142.66ZM595.24 139.989H597.663C597.645 139.353 597.23 138.855 596.447 138.855C595.719 138.855 595.277 139.417 595.24 139.989ZM597.792 141.14L598.538 141.398C598.289 142.181 597.58 142.798 596.548 142.798C595.36 142.798 594.319 141.932 594.319 140.431C594.319 139.04 595.323 138.091 596.438 138.091C597.801 138.091 598.566 139.03 598.566 140.412C598.566 140.523 598.557 140.633 598.547 140.689H595.213C595.231 141.481 595.802 142.034 596.548 142.034C597.267 142.034 597.626 141.638 597.792 141.14ZM600.537 140.099V142.66H599.671V138.229H600.519V138.865C600.841 138.312 601.366 138.1 601.882 138.1C602.942 138.1 603.467 138.865 603.467 139.85V142.66H602.601V139.998C602.601 139.381 602.343 138.883 601.569 138.883C600.887 138.883 600.537 139.427 600.537 140.099ZM606.005 136.829V138.229H606.963V139.012H606.005V141.315C606.005 141.72 606.171 141.923 606.622 141.923C606.733 141.923 606.889 141.905 606.963 141.886V142.623C606.889 142.651 606.668 142.706 606.373 142.706C605.618 142.706 605.139 142.246 605.139 141.444V139.012H604.291V138.229H604.531C605.01 138.229 605.213 137.934 605.213 137.547V136.829H606.005ZM607.749 141.509L608.532 141.232C608.588 141.693 608.938 142.061 609.564 142.061C610.052 142.061 610.32 141.785 610.32 141.472C610.32 141.195 610.117 140.983 609.748 140.901L608.993 140.735C608.302 140.587 607.888 140.118 607.888 139.491C607.888 138.736 608.597 138.091 609.463 138.091C610.679 138.091 611.057 138.883 611.149 139.279L610.384 139.565C610.347 139.334 610.163 138.828 609.463 138.828C609.021 138.828 608.726 139.113 608.726 139.417C608.726 139.685 608.892 139.878 609.233 139.952L609.951 140.108C610.753 140.283 611.176 140.772 611.176 141.426C611.176 142.052 610.651 142.798 609.555 142.798C608.339 142.798 607.823 142.015 607.749 141.509ZM614.356 141.472C614.356 140.679 614.936 140.237 615.701 140.127L616.899 139.952C617.166 139.915 617.24 139.777 617.24 139.62C617.24 139.187 616.954 138.828 616.281 138.828C615.673 138.828 615.333 139.206 615.277 139.721L614.448 139.528C614.54 138.68 615.305 138.091 616.263 138.091C617.59 138.091 618.105 138.846 618.105 139.712V141.932C618.105 142.319 618.142 142.55 618.161 142.66H617.313C617.295 142.55 617.267 142.384 617.267 142.061C617.074 142.375 616.632 142.798 615.839 142.798C614.936 142.798 614.356 142.172 614.356 141.472ZM615.959 142.071C616.668 142.071 617.24 141.73 617.24 140.762V140.56L615.885 140.762C615.517 140.818 615.24 141.03 615.24 141.426C615.24 141.757 615.517 142.071 615.959 142.071ZM619.132 142.9L619.97 142.706C620.035 143.323 620.505 143.793 621.177 143.793C622.108 143.793 622.531 143.314 622.531 142.356V141.72C622.32 142.126 621.841 142.448 621.177 142.448C619.998 142.448 619.141 141.555 619.141 140.302C619.141 139.104 619.961 138.146 621.177 138.146C621.859 138.146 622.32 138.404 622.541 138.846V138.229H623.397V142.329C623.397 143.452 622.845 144.549 621.177 144.549C620.072 144.549 619.243 143.849 619.132 142.9ZM621.306 141.72C622.052 141.72 622.568 141.159 622.568 140.302C622.568 139.445 622.052 138.883 621.306 138.883C620.542 138.883 620.026 139.445 620.026 140.302C620.026 141.168 620.523 141.72 621.306 141.72ZM626.678 142.024C627.415 142.024 628.06 141.472 628.06 140.44C628.06 139.417 627.415 138.865 626.678 138.865C625.941 138.865 625.296 139.417 625.296 140.44C625.296 141.472 625.941 142.024 626.678 142.024ZM626.678 138.091C628.005 138.091 628.944 139.095 628.944 140.44C628.944 141.794 628.005 142.798 626.678 142.798C625.352 142.798 624.412 141.794 624.412 140.44C624.412 139.095 625.352 138.091 626.678 138.091Z" fill="#575E61"/>
<rect x="467.424" y="32.2305" width="19.5634" height="19.5634" rx="9.7817" fill="#0C0E0F"/>
<path d="M480.613 46.0269V45.0536C480.613 44.5373 480.408 44.0422 480.043 43.6771C479.678 43.312 479.183 43.1069 478.666 43.1069H475.746C475.23 43.1069 474.735 43.312 474.37 43.6771C474.005 44.0422 473.8 44.5373 473.8 45.0536V46.0269" stroke="#B0B0B0" stroke-linecap="round" stroke-linejoin="round"/>
<path d="M477.206 41.1603C478.281 41.1603 479.153 40.2888 479.153 39.2137C479.153 38.1386 478.281 37.2671 477.206 37.2671C476.131 37.2671 475.26 38.1386 475.26 39.2137C475.26 40.2888 476.131 41.1603 477.206 41.1603Z" stroke="#B0B0B0" stroke-linecap="round" stroke-linejoin="round"/>
<path d="M498.338 45.3805C496.898 45.3805 495.788 44.4805 495.788 42.8105V38.1405H496.758V42.7805C496.758 43.8605 497.348 44.4705 498.338 44.4705C499.338 44.4705 499.908 43.8605 499.908 42.7805V38.1405H500.888V42.8105C500.888 44.4805 499.778 45.3805 498.338 45.3805ZM502.037 43.9805L502.887 43.6805C502.947 44.1805 503.327 44.5805 504.007 44.5805C504.537 44.5805 504.827 44.2805 504.827 43.9405C504.827 43.6405 504.607 43.4105 504.207 43.3205L503.387 43.1405C502.637 42.9805 502.187 42.4705 502.187 41.7905C502.187 40.9705 502.957 40.2705 503.897 40.2705C505.217 40.2705 505.627 41.1305 505.727 41.5605L504.897 41.8705C504.857 41.6205 504.657 41.0705 503.897 41.0705C503.417 41.0705 503.097 41.3805 503.097 41.7105C503.097 42.0005 503.277 42.2105 503.647 42.2905L504.427 42.4605C505.297 42.6505 505.757 43.1805 505.757 43.8905C505.757 44.5705 505.187 45.3805 503.997 45.3805C502.677 45.3805 502.117 44.5305 502.037 43.9805ZM507.57 42.3305H510.2C510.18 41.6405 509.73 41.1005 508.88 41.1005C508.09 41.1005 507.61 41.7105 507.57 42.3305ZM510.34 43.5805L511.15 43.8605C510.88 44.7105 510.11 45.3805 508.99 45.3805C507.7 45.3805 506.57 44.4405 506.57 42.8105C506.57 41.3005 507.66 40.2705 508.87 40.2705C510.35 40.2705 511.18 41.2905 511.18 42.7905C511.18 42.9105 511.17 43.0305 511.16 43.0905H507.54C507.56 43.9505 508.18 44.5505 508.99 44.5505C509.77 44.5505 510.16 44.1205 510.34 43.5805ZM515.05 40.3705V41.3705C514.91 41.3505 514.77 41.3405 514.64 41.3405C513.85 41.3405 513.32 41.7605 513.32 42.8205V45.2305H512.38V40.4205H513.3V41.2605C513.65 40.5205 514.25 40.3405 514.74 40.3405C514.87 40.3405 515 40.3605 515.05 40.3705Z" fill="#B0B0B0"/>
<path d="M529.72 45.2305H528.817V38.6989H532.787V39.5372H529.72V41.6376H532.502V42.4852H529.72V45.2305ZM534.037 42.5589H536.46C536.441 41.9232 536.027 41.4257 535.244 41.4257C534.516 41.4257 534.074 41.9877 534.037 42.5589ZM536.589 43.7104L537.335 43.9684C537.086 44.7514 536.377 45.3687 535.345 45.3687C534.157 45.3687 533.116 44.5027 533.116 43.0011C533.116 41.61 534.12 40.6611 535.235 40.6611C536.598 40.6611 537.363 41.6008 537.363 42.9826C537.363 43.0932 537.353 43.2037 537.344 43.259H534.009C534.028 44.0513 534.599 44.604 535.345 44.604C536.064 44.604 536.423 44.2079 536.589 43.7104ZM540.92 40.7993H541.813L542.965 44.1342L543.941 40.7993H544.853L543.416 45.2305H542.523L541.343 41.8587L540.192 45.2305H539.28L537.824 40.7993H538.773L539.768 44.1342L540.92 40.7993ZM548.888 45.2305H548.031V40.7993H548.86V41.3889C549.137 40.9006 549.689 40.6703 550.205 40.6703C550.758 40.6703 551.292 40.9375 551.532 41.5087C551.882 40.873 552.453 40.6703 553.015 40.6703C553.789 40.6703 554.544 41.1954 554.544 42.3562V45.2305H553.688V42.4483C553.688 41.8679 553.402 41.435 552.748 41.435C552.14 41.435 551.725 41.914 551.725 42.5497V45.2305H550.859V42.4483C550.859 41.8772 550.583 41.435 549.92 41.435C549.303 41.435 548.888 41.8956 548.888 42.5589V45.2305ZM557.828 44.5948C558.565 44.5948 559.21 44.0421 559.21 43.0103C559.21 41.9877 558.565 41.435 557.828 41.435C557.091 41.435 556.446 41.9877 556.446 43.0103C556.446 44.0421 557.091 44.5948 557.828 44.5948ZM557.828 40.6611C559.155 40.6611 560.094 41.6653 560.094 43.0103C560.094 44.3645 559.155 45.3687 557.828 45.3687C556.501 45.3687 555.562 44.3645 555.562 43.0103C555.562 41.6653 556.501 40.6611 557.828 40.6611ZM562.059 45.2305H561.202V40.7993H562.031V41.3889C562.308 40.9006 562.86 40.6703 563.376 40.6703C563.929 40.6703 564.463 40.9375 564.703 41.5087C565.053 40.873 565.624 40.6703 566.186 40.6703C566.96 40.6703 567.715 41.1954 567.715 42.3562V45.2305H566.859V42.4483C566.859 41.8679 566.573 41.435 565.919 41.435C565.311 41.435 564.896 41.914 564.896 42.5497V45.2305H564.03V42.4483C564.03 41.8772 563.754 41.435 563.091 41.435C562.473 41.435 562.059 41.8956 562.059 42.5589V45.2305ZM569.663 42.5589H572.086C572.067 41.9232 571.653 41.4257 570.87 41.4257C570.142 41.4257 569.7 41.9877 569.663 42.5589ZM572.215 43.7104L572.961 43.9684C572.712 44.7514 572.003 45.3687 570.971 45.3687C569.783 45.3687 568.742 44.5027 568.742 43.0011C568.742 41.61 569.746 40.6611 570.861 40.6611C572.224 40.6611 572.989 41.6008 572.989 42.9826C572.989 43.0932 572.979 43.2037 572.97 43.259H569.635C569.654 44.0513 570.225 44.604 570.971 44.604C571.69 44.604 572.049 44.2079 572.215 43.7104ZM574.96 42.6694V45.2305H574.094V40.7993H574.942V41.435C575.264 40.8822 575.789 40.6703 576.305 40.6703C577.365 40.6703 577.89 41.435 577.89 42.4207V45.2305H577.024V42.5681C577.024 41.9509 576.766 41.4534 575.992 41.4534C575.31 41.4534 574.96 41.9969 574.96 42.6694ZM580.428 39.399V40.7993H581.386V41.5824H580.428V43.8855C580.428 44.2908 580.594 44.4935 581.045 44.4935C581.156 44.4935 581.312 44.4751 581.386 44.4566V45.1936C581.312 45.2213 581.091 45.2765 580.796 45.2765C580.041 45.2765 579.562 44.8159 579.562 44.0144V41.5824H578.714V40.7993H578.954C579.433 40.7993 579.636 40.5045 579.636 40.1176V39.399H580.428ZM582.172 44.0789L582.955 43.8025C583.011 44.2632 583.361 44.6317 583.987 44.6317C584.475 44.6317 584.742 44.3553 584.742 44.0421C584.742 43.7657 584.54 43.5538 584.171 43.4709L583.416 43.3051C582.725 43.1577 582.31 42.6878 582.31 42.0614C582.31 41.306 583.02 40.6611 583.886 40.6611C585.102 40.6611 585.479 41.4534 585.572 41.8495L584.807 42.1351C584.77 41.9048 584.586 41.3981 583.886 41.3981C583.444 41.3981 583.149 41.6837 583.149 41.9877C583.149 42.2549 583.315 42.4483 583.655 42.522L584.374 42.6786C585.175 42.8537 585.599 43.3419 585.599 43.996C585.599 44.6224 585.074 45.3687 583.978 45.3687C582.762 45.3687 582.246 44.5856 582.172 44.0789ZM588.779 44.0421C588.779 43.2498 589.359 42.8076 590.124 42.6971L591.322 42.522C591.589 42.4852 591.662 42.347 591.662 42.1904C591.662 41.7574 591.377 41.3981 590.704 41.3981C590.096 41.3981 589.755 41.7758 589.7 42.2917L588.871 42.0982C588.963 41.2507 589.728 40.6611 590.686 40.6611C592.012 40.6611 592.528 41.4165 592.528 42.2825V44.5027C592.528 44.8896 592.565 45.1199 592.584 45.2305H591.736C591.718 45.1199 591.69 44.9541 591.69 44.6317C591.497 44.9449 591.054 45.3687 590.262 45.3687C589.359 45.3687 588.779 44.7422 588.779 44.0421ZM590.382 44.6409C591.091 44.6409 591.662 44.3 591.662 43.3327V43.13L590.308 43.3327C589.94 43.388 589.663 43.5999 589.663 43.996C589.663 44.3277 589.94 44.6409 590.382 44.6409ZM593.555 45.47L594.393 45.2765C594.458 45.8938 594.928 46.3636 595.6 46.3636C596.531 46.3636 596.954 45.8845 596.954 44.9265V44.2908C596.742 44.6961 596.263 45.0186 595.6 45.0186C594.421 45.0186 593.564 44.125 593.564 42.8721C593.564 41.6745 594.384 40.7164 595.6 40.7164C596.282 40.7164 596.742 40.9743 596.964 41.4165V40.7993H597.82V44.8988C597.82 46.0227 597.268 47.119 595.6 47.119C594.495 47.119 593.666 46.4189 593.555 45.47ZM595.729 44.2908C596.475 44.2908 596.991 43.7288 596.991 42.8721C596.991 42.0153 596.475 41.4534 595.729 41.4534C594.964 41.4534 594.449 42.0153 594.449 42.8721C594.449 43.7381 594.946 44.2908 595.729 44.2908ZM601.101 44.5948C601.838 44.5948 602.483 44.0421 602.483 43.0103C602.483 41.9877 601.838 41.435 601.101 41.435C600.364 41.435 599.719 41.9877 599.719 43.0103C599.719 44.0421 600.364 44.5948 601.101 44.5948ZM601.101 40.6611C602.428 40.6611 603.367 41.6653 603.367 43.0103C603.367 44.3645 602.428 45.3687 601.101 45.3687C599.774 45.3687 598.835 44.3645 598.835 43.0103C598.835 41.6653 599.774 40.6611 601.101 40.6611Z" fill="#575E61"/>
<rect x="493.428" y="59.6846" width="244.425" height="52.813" rx="7.75" fill="#0C0E0F" stroke="#171A1C" stroke-width="0.5"/>
<rect x="493.428" y="158.252" width="244.425" height="52.813" rx="7.75" fill="#0C0E0F" stroke="#171A1C" stroke-width="0.5"/>
<rect x="589.121" y="67.3604" width="134.156" height="6.34506" rx="3.17253" fill="#1B2226"/>
<rect x="521.137" y="82.4346" width="103.878" height="6.34506" rx="3.17253" fill="#1B2226"/>
<rect x="631.143" y="82.4346" width="73.7961" height="6.34506" rx="3.17253" fill="#191D1E"/>
<rect x="556.103" y="98.5342" width="56.4425" height="6.34506" rx="3.17253" fill="#1B2226"/>
<rect x="516.447" y="98.5342" width="32.7906" height="6.34506" rx="3.17253" fill="#191D1E"/>
<rect x="616.316" y="98.5342" width="28.5066" height="6.34506" rx="3.17253" fill="#1B2226"/>
<rect x="500.798" y="67.3604" width="83.1035" height="6.34506" rx="3.17253" fill="#191D1E"/>
<rect x="500.798" y="82.4346" width="13.0554" height="6.34506" rx="3.17253" fill="#191D1E"/>
<rect x="616.316" y="165.928" width="106.96" height="6.34506" rx="3.17253" fill="#1B2226"/>
<rect x="533.755" y="165.928" width="78.7896" height="6.34506" rx="3.17253" fill="#575E61"/>
<rect x="521.137" y="181.002" width="103.878" height="6.34506" rx="3.17253" fill="#1B2226"/>
<rect x="631.143" y="181.002" width="73.7961" height="6.34506" rx="3.17253" fill="#191D1E"/>
<rect x="556.103" y="197.102" width="56.4425" height="6.34506" rx="3.17253" fill="#575E61"/>
<rect x="516.447" y="197.102" width="32.7906" height="6.34506" rx="3.17253" fill="#191D1E"/>
<rect x="616.316" y="197.102" width="28.5066" height="6.34506" rx="3.17253" fill="#1B2226"/>
<rect x="500.798" y="165.928" width="27.1899" height="6.34506" rx="3.17253" fill="#191D1E"/>
<rect x="500.798" y="181.002" width="13.0554" height="6.34506" rx="3.17253" fill="#191D1E"/>
<path d="M477.493 52.3774L477.493 124.278" stroke="#575E61" stroke-width="0.5" stroke-dasharray="0.5 1"/>
<circle cx="477.493" cy="139.877" r="14.019" stroke="#575E61" stroke-width="0.5" stroke-dasharray="0.5 1"/>
</g>
<defs>
<filter id="filter0_dd_977_6929" x="465.424" y="127.66" width="24.1406" height="26.1406" filterUnits="userSpaceOnUse" color-interpolation-filters="sRGB">
<feFlood flood-opacity="0" result="BackgroundImageFix"/>
<feColorMatrix in="SourceAlpha" type="matrix" values="0 0 0 0 0 0 0 0 0 0 0 0 0 0 0 0 0 0 127 0" result="hardAlpha"/>
<feOffset dy="2"/>
<feGaussianBlur stdDeviation="1"/>
<feComposite in2="hardAlpha" operator="out"/>
<feColorMatrix type="matrix" values="0 0 0 0 0 0 0 0 0 0 0 0 0 0 0 0 0 0 0.05 0"/>
<feBlend mode="normal" in2="BackgroundImageFix" result="effect1_dropShadow_977_6929"/>
<feColorMatrix in="SourceAlpha" type="matrix" values="0 0 0 0 0 0 0 0 0 0 0 0 0 0 0 0 0 0 127 0" result="hardAlpha"/>
<feOffset/>
<feGaussianBlur stdDeviation="1"/>
<feComposite in2="hardAlpha" operator="out"/>
<feColorMatrix type="matrix" values="0 0 0 0 0.036 0 0 0 0 0.042 0 0 0 0 0.044 0 0 0 0.1 0"/>
<feBlend mode="normal" in2="effect1_dropShadow_977_6929" result="effect2_dropShadow_977_6929"/>
<feBlend mode="normal" in="SourceGraphic" in2="effect2_dropShadow_977_6929" result="shape"/>
</filter>
<linearGradient id="paint0_linear_977_6929" x1="546.525" y1="59.9751" x2="364.481" y2="59.9751" gradientUnits="userSpaceOnUse">
<stop stop-color="#575E61"/>
<stop offset="1" stop-color="#575E61" stop-opacity="0"/>
</linearGradient>
<linearGradient id="paint1_linear_977_6929" x1="546.525" y1="59.9751" x2="364.481" y2="59.9751" gradientUnits="userSpaceOnUse">
<stop stop-color="#575E61"/>
<stop offset="1" stop-color="#575E61" stop-opacity="0"/>
</linearGradient>
<linearGradient id="paint2_linear_977_6929" x1="546.525" y1="59.9751" x2="364.481" y2="59.9751" gradientUnits="userSpaceOnUse">
<stop stop-color="#575E61"/>
<stop offset="1" stop-color="#575E61" stop-opacity="0"/>
</linearGradient>
<linearGradient id="paint3_linear_977_6929" x1="546.525" y1="59.9751" x2="364.481" y2="59.9751" gradientUnits="userSpaceOnUse">
<stop stop-color="#575E61"/>
<stop offset="1" stop-color="#575E61" stop-opacity="0"/>
</linearGradient>
<linearGradient id="paint4_linear_977_6929" x1="546.525" y1="59.9751" x2="364.481" y2="59.9751" gradientUnits="userSpaceOnUse">
<stop stop-color="#575E61"/>
<stop offset="1" stop-color="#575E61" stop-opacity="0"/>
</linearGradient>
<linearGradient id="paint5_linear_977_6929" x1="546.525" y1="59.9751" x2="364.481" y2="59.9751" gradientUnits="userSpaceOnUse">
<stop stop-color="#575E61"/>
<stop offset="1" stop-color="#575E61" stop-opacity="0"/>
</linearGradient>
<linearGradient id="paint6_linear_977_6929" x1="546.525" y1="59.9751" x2="364.481" y2="59.9751" gradientUnits="userSpaceOnUse">
<stop stop-color="#575E61"/>
<stop offset="1" stop-color="#575E61" stop-opacity="0"/>
</linearGradient>
<linearGradient id="paint7_linear_977_6929" x1="546.525" y1="59.9751" x2="364.481" y2="59.9751" gradientUnits="userSpaceOnUse">
<stop stop-color="#575E61"/>
<stop offset="1" stop-color="#575E61" stop-opacity="0"/>
</linearGradient>
<linearGradient id="paint8_linear_977_6929" x1="546.525" y1="59.9751" x2="364.481" y2="59.9751" gradientUnits="userSpaceOnUse">
<stop stop-color="#575E61"/>
<stop offset="1" stop-color="#575E61" stop-opacity="0"/>
</linearGradient>
<linearGradient id="paint9_linear_977_6929" x1="546.525" y1="59.9751" x2="364.481" y2="59.9751" gradientUnits="userSpaceOnUse">
<stop stop-color="#575E61"/>
<stop offset="1" stop-color="#575E61" stop-opacity="0"/>
</linearGradient>
<linearGradient id="paint10_linear_977_6929" x1="546.525" y1="59.9751" x2="364.481" y2="59.9751" gradientUnits="userSpaceOnUse">
<stop stop-color="#575E61"/>
<stop offset="1" stop-color="#575E61" stop-opacity="0"/>
</linearGradient>
<linearGradient id="paint11_linear_977_6929" x1="546.525" y1="59.9751" x2="364.481" y2="59.9751" gradientUnits="userSpaceOnUse">
<stop stop-color="#575E61"/>
<stop offset="1" stop-color="#575E61" stop-opacity="0"/>
</linearGradient>
<linearGradient id="paint12_linear_977_6929" x1="546.525" y1="59.9751" x2="364.481" y2="59.9751" gradientUnits="userSpaceOnUse">
<stop stop-color="#575E61"/>
<stop offset="1" stop-color="#575E61" stop-opacity="0"/>
</linearGradient>
<linearGradient id="paint13_linear_977_6929" x1="546.525" y1="59.9751" x2="364.481" y2="59.9751" gradientUnits="userSpaceOnUse">
<stop stop-color="#575E61"/>
<stop offset="1" stop-color="#575E61" stop-opacity="0"/>
</linearGradient>
<linearGradient id="paint14_linear_977_6929" x1="546.525" y1="59.9751" x2="364.481" y2="59.9751" gradientUnits="userSpaceOnUse">
<stop stop-color="#575E61"/>
<stop offset="1" stop-color="#575E61" stop-opacity="0"/>
</linearGradient>
<linearGradient id="paint15_linear_977_6929" x1="546.525" y1="59.9751" x2="364.481" y2="59.9751" gradientUnits="userSpaceOnUse">
<stop stop-color="#575E61"/>
<stop offset="1" stop-color="#575E61" stop-opacity="0"/>
</linearGradient>
<clipPath id="clip0_977_6929">
<rect width="764" height="208" fill="white" transform="translate(0.517578)"/>
</clipPath>
</defs>
</svg>
