<svg xmlns="http://www.w3.org/2000/svg" width="765" height="208" fill="none" viewBox="0 0 765 208"><g clip-path="url(#a)"><path fill="#121516" d="M.518 0h764v208h-764z"/><path stroke="url(#b)" stroke-dasharray="0.5 1" stroke-width=".5" d="M510.358 139.877c0 18.151-14.714 32.866-32.865 32.866s-32.865-14.715-32.865-32.866 14.714-32.865 32.865-32.865 32.865 14.714 32.865 32.865Z"/><path stroke="url(#c)" stroke-dasharray="0.5 1" stroke-width=".5" d="M524.262 139.877c0 25.83-20.939 46.769-46.769 46.769s-46.769-20.939-46.769-46.769 20.939-46.769 46.769-46.769 46.769 20.94 46.769 46.769Z"/><path stroke="url(#d)" stroke-dasharray="0.5 1" stroke-width=".5" d="M537.992 139.877c0 33.413-27.086 60.499-60.499 60.499s-60.499-27.086-60.499-60.499c0-33.412 27.086-60.499 60.499-60.499s60.499 27.087 60.499 60.499Z"/><path stroke="url(#e)" stroke-dasharray="0.5 1" stroke-width=".5" d="M551.722 139.877c0 40.996-33.233 74.229-74.229 74.229-40.995 0-74.229-33.233-74.229-74.229 0-40.995 33.234-74.229 74.229-74.229 40.996 0 74.229 33.234 74.229 74.229Z"/><path stroke="url(#f)" stroke-dasharray="0.5 1" stroke-width=".5" d="M564.993 139.877c0 48.325-39.175 87.5-87.5 87.5s-87.5-39.175-87.5-87.5 39.175-87.5 87.5-87.5 87.5 39.175 87.5 87.5Z"/><path stroke="url(#g)" stroke-dasharray="0.5 1" stroke-width=".5" d="M577.961 139.877c0 55.488-44.981 100.469-100.468 100.469s-100.468-44.981-100.468-100.469S422.006 39.409 477.493 39.409 577.961 84.39 577.961 139.877Z"/><path stroke="url(#h)" stroke-dasharray="0.5 1" stroke-width=".5" d="M591.386 139.877c0 62.902-50.991 113.894-113.893 113.894S363.6 202.779 363.6 139.877c0-62.901 50.992-113.893 113.893-113.893s113.893 50.992 113.893 113.893Z"/><path stroke="url(#i)" stroke-dasharray="0.5 1" stroke-width=".5" d="M605.726 139.877c0 70.822-57.412 128.233-128.233 128.233S349.26 210.699 349.26 139.877c0-70.82 57.412-128.233 128.233-128.233s128.233 57.412 128.233 128.233Z"/><path stroke="url(#j)" stroke-dasharray="0.5 1" stroke-width=".5" d="M620.371 139.877c0 78.91-63.969 142.878-142.878 142.878s-142.878-63.968-142.878-142.878S398.584-3 477.493-3s142.878 63.968 142.878 142.877Z"/><path stroke="url(#k)" stroke-dasharray="0.5 1" stroke-width=".5" d="M634.406 139.877c0 86.661-70.252 156.914-156.913 156.914S320.58 226.538 320.58 139.877 390.832-17.036 477.493-17.036s156.913 70.253 156.913 156.913Z"/><path stroke="url(#l)" stroke-dasharray="0.5 1" stroke-width=".5" d="M650.577 139.877c0 95.592-77.492 173.084-173.084 173.084-95.591 0-173.084-77.492-173.084-173.084 0-95.591 77.493-173.084 173.084-173.084s173.084 77.493 173.084 173.084Z"/><path stroke="url(#m)" stroke-dasharray="0.5 1" stroke-width=".5" d="M666.442 139.877c0 104.354-84.595 188.95-188.949 188.95s-188.949-84.596-188.949-188.95S373.139-49.072 477.493-49.072s188.949 84.596 188.949 188.949Z"/><path stroke="url(#n)" stroke-dasharray="0.5 1" stroke-width=".5" d="M682.744 139.877c0 113.357-91.894 205.251-205.251 205.251s-205.251-91.894-205.251-205.251 91.894-205.25 205.251-205.25 205.251 91.894 205.251 205.25Z"/><path stroke="url(#o)" stroke-dasharray="0.5 1" stroke-width=".5" d="M700.31 139.877c0 123.059-99.759 222.817-222.817 222.817s-222.816-99.758-222.816-222.817c0-123.058 99.758-222.816 222.816-222.816S700.31 16.819 700.31 139.877Z"/><path stroke="url(#p)" stroke-dasharray="0.5 1" stroke-width=".5" d="M718.729 139.877c0 133.231-108.005 241.236-241.236 241.236S236.257 273.108 236.257 139.877c0-133.23 108.005-241.235 241.236-241.235S718.729 6.647 718.729 139.877Z"/><path stroke="url(#q)" stroke-dasharray="0.5 1" stroke-width=".5" d="M734.703 139.877c0 142.053-115.157 257.21-257.21 257.21S220.284 281.93 220.284 139.877c0-142.052 115.156-257.209 257.209-257.209s257.21 115.157 257.21 257.209Z"/><rect width="339.707" height="199.75" x="452.221" y="21.128" fill="#121516" stroke="#172021" stroke-width=".5" rx="3.75"/><g filter="url(#r)"><rect width="20.141" height="20.141" x="467.424" y="129.66" fill="#1b2226" rx="10.07"/></g><path stroke="#ededed" stroke-linecap="round" stroke-linejoin="round" d="m477.493 134.59 5.287 5.287-5.287 5.287-5.287-5.287z"/><circle cx="477.493" cy="139.877" r="1.429" stroke="#ededed" stroke-linecap="round" stroke-linejoin="round"/><path fill="#b0b0b0" d="m501.375 143.66-.77-1.98h-3.14l-.75 1.98h-1.05l2.82-7.09h1.13l2.82 7.09zm-2.35-6.07-1.21 3.18h2.44zm3.863 4.82.85-.3c.06.5.44.9 1.12.9.53 0 .82-.3.82-.64 0-.3-.22-.53-.62-.62l-.82-.18c-.75-.16-1.2-.67-1.2-1.35 0-.82.77-1.52 1.71-1.52 1.32 0 1.73.86 1.83 1.29l-.83.31c-.04-.25-.24-.8-1-.8-.48 0-.8.31-.8.64 0 .29.18.5.55.58l.78.17c.87.19 1.33.72 1.33 1.43 0 .68-.57 1.49-1.76 1.49-1.32 0-1.88-.85-1.96-1.4m4.521 0 .85-.3c.06.5.44.9 1.12.9.53 0 .82-.3.82-.64 0-.3-.22-.53-.62-.62l-.82-.18c-.75-.16-1.2-.67-1.2-1.35 0-.82.77-1.52 1.71-1.52 1.32 0 1.73.86 1.83 1.29l-.83.31c-.04-.25-.24-.8-1-.8-.48 0-.8.31-.8.64 0 .29.18.5.55.58l.78.17c.87.19 1.33.72 1.33 1.43 0 .68-.57 1.49-1.76 1.49-1.32 0-1.88-.85-1.96-1.4m5.902 1.25h-.93v-4.81h.93zm-1.14-6.63a.674.674 0 1 1 .67.67.67.67 0 0 1-.67-.67m2.289 5.38.85-.3c.06.5.44.9 1.12.9.53 0 .82-.3.82-.64 0-.3-.22-.53-.62-.62l-.82-.18c-.75-.16-1.2-.67-1.2-1.35 0-.82.77-1.52 1.71-1.52 1.32 0 1.73.86 1.83 1.29l-.83.31c-.04-.25-.24-.8-1-.8-.48 0-.8.31-.8.64 0 .29.18.5.55.58l.78.17c.87.19 1.33.72 1.33 1.43 0 .68-.57 1.49-1.76 1.49-1.32 0-1.88-.85-1.96-1.4m6.231-5.08v1.52h1.04v.85h-1.04v2.5c0 .44.18.66.67.66.12 0 .29-.02.37-.04v.8c-.08.03-.32.09-.64.09-.82 0-1.34-.5-1.34-1.37v-2.64h-.92v-.85h.26c.52 0 .74-.32.74-.74v-.78zm1.995 5.04c0-.86.63-1.34 1.46-1.46l1.3-.19c.29-.04.37-.19.37-.36 0-.47-.31-.86-1.04-.86-.66 0-1.03.41-1.09.97l-.9-.21c.1-.92.93-1.56 1.97-1.56 1.44 0 2 .82 2 1.76v2.41c0 .42.04.67.06.79h-.92c-.02-.12-.05-.3-.05-.65-.21.34-.69.8-1.55.8-.98 0-1.61-.68-1.61-1.44m1.74.65c.77 0 1.39-.37 1.39-1.42v-.22l-1.47.22c-.4.06-.7.29-.7.72 0 .36.3.7.78.7m4.734-2.14v2.78h-.94v-4.81h.92v.69c.35-.6.92-.83 1.48-.83 1.15 0 1.72.83 1.72 1.9v3.05h-.94v-2.89c0-.67-.28-1.21-1.12-1.21-.74 0-1.12.59-1.12 1.32m5.936-3.55v1.52h1.04v.85h-1.04v2.5c0 .44.18.66.67.66.12 0 .29-.02.37-.04v.8c-.08.03-.32.09-.64.09-.82 0-1.34-.5-1.34-1.37v-2.64h-.92v-.85h.26c.52 0 .74-.32.74-.74v-.78z"/><path fill="#575e61" d="M555.297 142.66h-.903v-6.531h3.971v.838h-3.068v2.1h2.782v.848h-2.782zm4.317-2.671h2.423c-.019-.636-.433-1.134-1.216-1.134-.728 0-1.17.562-1.207 1.134m2.552 1.151.746.258c-.249.783-.958 1.4-1.99 1.4-1.188 0-2.229-.866-2.229-2.367 0-1.391 1.004-2.34 2.119-2.34 1.363 0 2.128.939 2.128 2.321 0 .111-.009.221-.019.277h-3.335c.019.792.59 1.345 1.336 1.345.719 0 1.078-.396 1.244-.894m4.331-2.911h.893l1.152 3.335.976-3.335h.912l-1.437 4.431h-.893l-1.18-3.372-1.151 3.372h-.912l-1.456-4.431h.949l.995 3.335zm7.968 4.431h-.857v-4.431h.83v.59c.276-.489.829-.719 1.345-.719.552 0 1.087.267 1.326.838.35-.635.921-.838 1.483-.838.774 0 1.53.525 1.53 1.686v2.874h-.857v-2.782c0-.58-.286-1.013-.94-1.013-.608 0-1.022.479-1.022 1.114v2.681h-.866v-2.782c0-.571-.277-1.013-.94-1.013-.617 0-1.032.46-1.032 1.124zm8.94-.636c.737 0 1.382-.552 1.382-1.584 0-1.023-.645-1.575-1.382-1.575s-1.382.552-1.382 1.575c0 1.032.645 1.584 1.382 1.584m0-3.933c1.327 0 2.266 1.004 2.266 2.349 0 1.354-.939 2.358-2.266 2.358s-2.266-1.004-2.266-2.358c0-1.345.939-2.349 2.266-2.349m4.231 4.569h-.857v-4.431h.829v.59c.277-.489.83-.719 1.345-.719.553 0 1.087.267 1.327.838.35-.635.921-.838 1.483-.838.774 0 1.529.525 1.529 1.686v2.874h-.856v-2.782c0-.58-.286-1.013-.94-1.013-.608 0-1.023.479-1.023 1.114v2.681h-.866v-2.782c0-.571-.276-1.013-.939-1.013-.617 0-1.032.46-1.032 1.124zm7.604-2.671h2.423c-.018-.636-.433-1.134-1.216-1.134-.728 0-1.17.562-1.207 1.134m2.552 1.151.746.258c-.249.783-.958 1.4-1.99 1.4-1.188 0-2.229-.866-2.229-2.367 0-1.391 1.004-2.34 2.119-2.34 1.363 0 2.128.939 2.128 2.321 0 .111-.009.221-.019.277h-3.334c.018.792.589 1.345 1.335 1.345.719 0 1.078-.396 1.244-.894m2.745-1.041v2.561h-.866v-4.431h.848v.636c.322-.553.847-.765 1.363-.765 1.06 0 1.585.765 1.585 1.75v2.81h-.866v-2.662c0-.617-.258-1.115-1.032-1.115-.682 0-1.032.544-1.032 1.216m5.468-3.27v1.4h.958v.783h-.958v2.303c0 .405.166.608.617.608.111 0 .267-.018.341-.037v.737a1.9 1.9 0 0 1-.59.083c-.755 0-1.234-.46-1.234-1.262v-2.432h-.848v-.783h.24c.479 0 .682-.295.682-.682v-.718zm1.744 4.68.783-.277c.056.461.406.829 1.032.829.488 0 .756-.276.756-.589 0-.277-.203-.489-.572-.571l-.755-.166c-.691-.148-1.105-.617-1.105-1.244 0-.755.709-1.4 1.575-1.4 1.216 0 1.594.792 1.686 1.188l-.765.286c-.037-.231-.221-.737-.921-.737-.442 0-.737.285-.737.589 0 .268.166.461.507.535l.718.156c.802.175 1.225.664 1.225 1.318 0 .626-.525 1.372-1.621 1.372-1.216 0-1.732-.783-1.806-1.289m6.607-.037c0-.793.58-1.235 1.345-1.345l1.198-.175c.267-.037.341-.175.341-.332 0-.433-.286-.792-.959-.792-.608 0-.948.378-1.004.893l-.829-.193c.092-.848.857-1.437 1.815-1.437 1.327 0 1.842.755 1.842 1.621v2.22c0 .387.037.618.056.728h-.848c-.018-.11-.046-.276-.046-.599-.193.314-.635.737-1.428.737-.903 0-1.483-.626-1.483-1.326m1.603.599c.709 0 1.281-.341 1.281-1.309v-.202l-1.355.202c-.368.056-.645.268-.645.664 0 .331.277.645.719.645m3.173.829.838-.194c.065.617.535 1.087 1.207 1.087.931 0 1.354-.479 1.354-1.437v-.636c-.211.406-.69.728-1.354.728-1.179 0-2.036-.893-2.036-2.146 0-1.198.82-2.156 2.036-2.156.682 0 1.143.258 1.364.7v-.617h.856v4.1c0 1.123-.552 2.22-2.22 2.22-1.105 0-1.934-.7-2.045-1.649m2.174-1.18c.746 0 1.262-.561 1.262-1.418s-.516-1.419-1.262-1.419c-.764 0-1.28.562-1.28 1.419 0 .866.497 1.418 1.28 1.418m5.372.304c.737 0 1.382-.552 1.382-1.584 0-1.023-.645-1.575-1.382-1.575s-1.382.552-1.382 1.575c0 1.032.645 1.584 1.382 1.584m0-3.933c1.327 0 2.266 1.004 2.266 2.349 0 1.354-.939 2.358-2.266 2.358s-2.266-1.004-2.266-2.358c0-1.345.94-2.349 2.266-2.349"/><rect width="19.563" height="19.563" x="467.424" y="32.23" fill="#0c0e0f" rx="9.782"/><path stroke="#b0b0b0" stroke-linecap="round" stroke-linejoin="round" d="M480.613 46.027v-.973a1.947 1.947 0 0 0-1.947-1.947h-2.92a1.946 1.946 0 0 0-1.946 1.947v.973M477.206 41.16a1.947 1.947 0 1 0 0-3.894 1.947 1.947 0 0 0 0 3.894"/><path fill="#b0b0b0" d="M498.338 45.38c-1.44 0-2.55-.9-2.55-2.57v-4.67h.97v4.64c0 1.08.59 1.69 1.58 1.69 1 0 1.57-.61 1.57-1.69v-4.64h.98v4.67c0 1.67-1.11 2.57-2.55 2.57m3.699-1.4.85-.3c.06.5.44.9 1.12.9.53 0 .82-.3.82-.64 0-.3-.22-.53-.62-.62l-.82-.18c-.75-.16-1.2-.67-1.2-1.35 0-.82.77-1.52 1.71-1.52 1.32 0 1.73.86 1.83 1.29l-.83.31c-.04-.25-.24-.8-1-.8-.48 0-.8.31-.8.64 0 .29.18.5.55.58l.78.17c.87.19 1.33.72 1.33 1.43 0 .68-.57 1.49-1.76 1.49-1.32 0-1.88-.85-1.96-1.4m5.533-1.65h2.63c-.02-.69-.47-1.23-1.32-1.23-.79 0-1.27.61-1.31 1.23m2.77 1.25.81.28c-.27.85-1.04 1.52-2.16 1.52-1.29 0-2.42-.94-2.42-2.57 0-1.51 1.09-2.54 2.3-2.54 1.48 0 2.31 1.02 2.31 2.52 0 .12-.01.24-.02.3h-3.62c.02.86.64 1.46 1.45 1.46.78 0 1.17-.43 1.35-.97m4.71-3.21v1c-.14-.02-.28-.03-.41-.03-.79 0-1.32.42-1.32 1.48v2.41h-.94v-4.81h.92v.84c.35-.74.95-.92 1.44-.92.13 0 .26.02.31.03"/><path fill="#575e61" d="M529.72 45.23h-.903V38.7h3.97v.838h-3.067v2.1h2.782v.848h-2.782zm4.317-2.671h2.423c-.019-.636-.433-1.133-1.216-1.133-.728 0-1.17.562-1.207 1.133m2.552 1.151.746.258c-.249.783-.958 1.4-1.99 1.4-1.188 0-2.229-.865-2.229-2.367 0-1.391 1.004-2.34 2.119-2.34 1.363 0 2.128.94 2.128 2.322 0 .11-.01.22-.019.276h-3.335c.019.792.59 1.345 1.336 1.345.719 0 1.078-.396 1.244-.894m4.331-2.91h.893l1.152 3.334.976-3.335h.912l-1.437 4.432h-.893l-1.18-3.372-1.151 3.371h-.912l-1.456-4.43h.949l.995 3.334zm7.968 4.43h-.857V40.8h.829v.589c.277-.488.829-.719 1.345-.719.553 0 1.087.267 1.327.839.35-.636.921-.839 1.483-.839.774 0 1.529.525 1.529 1.686v2.874h-.856v-2.782c0-.58-.286-1.013-.94-1.013-.608 0-1.023.479-1.023 1.115v2.68h-.866v-2.782c0-.57-.276-1.013-.939-1.013-.617 0-1.032.46-1.032 1.124zm8.94-.635c.737 0 1.382-.553 1.382-1.585 0-1.022-.645-1.575-1.382-1.575s-1.382.553-1.382 1.575c0 1.032.645 1.585 1.382 1.585m0-3.934c1.327 0 2.266 1.004 2.266 2.35 0 1.353-.939 2.358-2.266 2.358s-2.266-1.005-2.266-2.359c0-1.345.939-2.349 2.266-2.349m4.231 4.57h-.857v-4.432h.829v.59c.277-.488.829-.719 1.345-.719.553 0 1.087.267 1.327.839.35-.636.921-.839 1.483-.839.774 0 1.529.525 1.529 1.686v2.874h-.856v-2.782c0-.58-.286-1.013-.94-1.013-.608 0-1.023.479-1.023 1.115v2.68h-.866v-2.782c0-.57-.276-1.013-.939-1.013-.618 0-1.032.46-1.032 1.124zm7.604-2.672h2.423c-.019-.636-.433-1.133-1.216-1.133-.728 0-1.17.562-1.207 1.133m2.552 1.151.746.258c-.249.783-.958 1.4-1.99 1.4-1.188 0-2.229-.865-2.229-2.367 0-1.391 1.004-2.34 2.119-2.34 1.363 0 2.128.94 2.128 2.322 0 .11-.01.22-.019.276h-3.335c.019.792.59 1.345 1.336 1.345.719 0 1.078-.396 1.244-.894m2.745-1.04v2.56h-.866V40.8h.848v.635c.322-.553.847-.765 1.363-.765 1.06 0 1.585.765 1.585 1.75v2.81h-.866v-2.662c0-.617-.258-1.115-1.032-1.115-.682 0-1.032.544-1.032 1.216m5.468-3.271v1.4h.958v.783h-.958v2.303c0 .406.166.608.617.608.111 0 .267-.018.341-.036v.737a1.9 1.9 0 0 1-.59.082c-.755 0-1.234-.46-1.234-1.262v-2.432h-.848V40.8h.24c.479 0 .682-.294.682-.681v-.719zm1.744 4.68.783-.276c.056.46.406.829 1.032.829.488 0 .755-.277.755-.59 0-.276-.202-.488-.571-.571l-.755-.166c-.691-.147-1.106-.617-1.106-1.244 0-.755.71-1.4 1.576-1.4 1.216 0 1.593.792 1.686 1.188l-.765.286c-.037-.23-.221-.737-.921-.737-.442 0-.737.286-.737.59 0 .267.166.46.506.534l.719.157c.801.175 1.225.663 1.225 1.317 0 .626-.525 1.373-1.621 1.373-1.216 0-1.732-.783-1.806-1.29m6.607-.037c0-.792.58-1.234 1.345-1.345l1.198-.175c.267-.037.34-.175.34-.332 0-.433-.285-.792-.958-.792-.608 0-.949.378-1.004.894l-.829-.194c.092-.847.857-1.437 1.815-1.437 1.326 0 1.842.755 1.842 1.621v2.22c0 .388.037.618.056.728h-.848c-.018-.11-.046-.276-.046-.598-.193.313-.636.737-1.428.737-.903 0-1.483-.627-1.483-1.327m1.603.599c.709 0 1.28-.341 1.28-1.308v-.203l-1.354.203c-.368.055-.645.267-.645.663 0 .332.277.645.719.645m3.173.829.838-.194c.065.618.535 1.088 1.207 1.088.931 0 1.354-.48 1.354-1.437v-.636c-.212.405-.691.728-1.354.728-1.179 0-2.036-.894-2.036-2.147 0-1.197.82-2.156 2.036-2.156.682 0 1.142.258 1.364.7V40.8h.856v4.1c0 1.124-.552 2.22-2.22 2.22-1.105 0-1.934-.7-2.045-1.649m2.174-1.18c.746 0 1.262-.561 1.262-1.418s-.516-1.419-1.262-1.419c-.765 0-1.28.562-1.28 1.42 0 .865.497 1.418 1.28 1.418m5.372.305c.737 0 1.382-.553 1.382-1.585 0-1.022-.645-1.575-1.382-1.575s-1.382.553-1.382 1.575c0 1.032.645 1.585 1.382 1.585m0-3.934c1.327 0 2.266 1.004 2.266 2.35 0 1.353-.939 2.358-2.266 2.358s-2.266-1.005-2.266-2.359c0-1.345.939-2.349 2.266-2.349"/><rect width="244.425" height="52.813" x="493.428" y="59.685" fill="#0c0e0f" stroke="#171a1c" stroke-width=".5" rx="7.75"/><rect width="244.425" height="52.813" x="493.428" y="158.252" fill="#0c0e0f" stroke="#171a1c" stroke-width=".5" rx="7.75"/><rect width="134.156" height="6.345" x="589.121" y="67.36" fill="#1b2226" rx="3.173"/><rect width="103.878" height="6.345" x="521.137" y="82.435" fill="#1b2226" rx="3.173"/><rect width="73.796" height="6.345" x="631.143" y="82.435" fill="#191d1e" rx="3.173"/><rect width="56.443" height="6.345" x="556.103" y="98.534" fill="#1b2226" rx="3.173"/><rect width="32.791" height="6.345" x="516.447" y="98.534" fill="#191d1e" rx="3.173"/><rect width="28.507" height="6.345" x="616.316" y="98.534" fill="#1b2226" rx="3.173"/><rect width="83.103" height="6.345" x="500.798" y="67.36" fill="#191d1e" rx="3.173"/><rect width="13.055" height="6.345" x="500.798" y="82.435" fill="#191d1e" rx="3.173"/><rect width="106.96" height="6.345" x="616.316" y="165.928" fill="#1b2226" rx="3.173"/><rect width="78.79" height="6.345" x="533.755" y="165.928" fill="#575e61" rx="3.173"/><rect width="103.878" height="6.345" x="521.137" y="181.002" fill="#1b2226" rx="3.173"/><rect width="73.796" height="6.345" x="631.143" y="181.002" fill="#191d1e" rx="3.173"/><rect width="56.443" height="6.345" x="556.103" y="197.102" fill="#575e61" rx="3.173"/><rect width="32.791" height="6.345" x="516.447" y="197.102" fill="#191d1e" rx="3.173"/><rect width="28.507" height="6.345" x="616.316" y="197.102" fill="#1b2226" rx="3.173"/><rect width="27.19" height="6.345" x="500.798" y="165.928" fill="#191d1e" rx="3.173"/><rect width="13.055" height="6.345" x="500.798" y="181.002" fill="#191d1e" rx="3.173"/><path stroke="#575e61" stroke-dasharray="0.5 1" stroke-width=".5" d="M477.493 52.377v71.901"/><circle cx="477.493" cy="139.877" r="14.019" stroke="#575e61" stroke-dasharray="0.5 1" stroke-width=".5"/></g><defs><linearGradient id="b" x1="546.525" x2="364.481" y1="59.975" y2="59.975" gradientUnits="userSpaceOnUse"><stop stop-color="#575e61"/><stop offset="1" stop-color="#575e61" stop-opacity="0"/></linearGradient><linearGradient id="c" x1="546.525" x2="364.481" y1="59.975" y2="59.975" gradientUnits="userSpaceOnUse"><stop stop-color="#575e61"/><stop offset="1" stop-color="#575e61" stop-opacity="0"/></linearGradient><linearGradient id="d" x1="546.525" x2="364.481" y1="59.975" y2="59.975" gradientUnits="userSpaceOnUse"><stop stop-color="#575e61"/><stop offset="1" stop-color="#575e61" stop-opacity="0"/></linearGradient><linearGradient id="e" x1="546.525" x2="364.481" y1="59.975" y2="59.975" gradientUnits="userSpaceOnUse"><stop stop-color="#575e61"/><stop offset="1" stop-color="#575e61" stop-opacity="0"/></linearGradient><linearGradient id="f" x1="546.525" x2="364.481" y1="59.975" y2="59.975" gradientUnits="userSpaceOnUse"><stop stop-color="#575e61"/><stop offset="1" stop-color="#575e61" stop-opacity="0"/></linearGradient><linearGradient id="g" x1="546.525" x2="364.481" y1="59.975" y2="59.975" gradientUnits="userSpaceOnUse"><stop stop-color="#575e61"/><stop offset="1" stop-color="#575e61" stop-opacity="0"/></linearGradient><linearGradient id="h" x1="546.525" x2="364.481" y1="59.975" y2="59.975" gradientUnits="userSpaceOnUse"><stop stop-color="#575e61"/><stop offset="1" stop-color="#575e61" stop-opacity="0"/></linearGradient><linearGradient id="i" x1="546.525" x2="364.481" y1="59.975" y2="59.975" gradientUnits="userSpaceOnUse"><stop stop-color="#575e61"/><stop offset="1" stop-color="#575e61" stop-opacity="0"/></linearGradient><linearGradient id="j" x1="546.525" x2="364.481" y1="59.975" y2="59.975" gradientUnits="userSpaceOnUse"><stop stop-color="#575e61"/><stop offset="1" stop-color="#575e61" stop-opacity="0"/></linearGradient><linearGradient id="k" x1="546.525" x2="364.481" y1="59.975" y2="59.975" gradientUnits="userSpaceOnUse"><stop stop-color="#575e61"/><stop offset="1" stop-color="#575e61" stop-opacity="0"/></linearGradient><linearGradient id="l" x1="546.525" x2="364.481" y1="59.975" y2="59.975" gradientUnits="userSpaceOnUse"><stop stop-color="#575e61"/><stop offset="1" stop-color="#575e61" stop-opacity="0"/></linearGradient><linearGradient id="m" x1="546.525" x2="364.481" y1="59.975" y2="59.975" gradientUnits="userSpaceOnUse"><stop stop-color="#575e61"/><stop offset="1" stop-color="#575e61" stop-opacity="0"/></linearGradient><linearGradient id="n" x1="546.525" x2="364.481" y1="59.975" y2="59.975" gradientUnits="userSpaceOnUse"><stop stop-color="#575e61"/><stop offset="1" stop-color="#575e61" stop-opacity="0"/></linearGradient><linearGradient id="o" x1="546.525" x2="364.481" y1="59.975" y2="59.975" gradientUnits="userSpaceOnUse"><stop stop-color="#575e61"/><stop offset="1" stop-color="#575e61" stop-opacity="0"/></linearGradient><linearGradient id="p" x1="546.525" x2="364.481" y1="59.975" y2="59.975" gradientUnits="userSpaceOnUse"><stop stop-color="#575e61"/><stop offset="1" stop-color="#575e61" stop-opacity="0"/></linearGradient><linearGradient id="q" x1="546.525" x2="364.481" y1="59.975" y2="59.975" gradientUnits="userSpaceOnUse"><stop stop-color="#575e61"/><stop offset="1" stop-color="#575e61" stop-opacity="0"/></linearGradient><clipPath id="a"><path fill="#fff" d="M.518 0h764v208h-764z"/></clipPath><filter id="r" width="24.141" height="26.141" x="465.424" y="127.66" color-interpolation-filters="sRGB" filterUnits="userSpaceOnUse"><feFlood flood-opacity="0" result="BackgroundImageFix"/><feColorMatrix in="SourceAlpha" result="hardAlpha" values="0 0 0 0 0 0 0 0 0 0 0 0 0 0 0 0 0 0 127 0"/><feOffset dy="2"/><feGaussianBlur stdDeviation="1"/><feComposite in2="hardAlpha" operator="out"/><feColorMatrix values="0 0 0 0 0 0 0 0 0 0 0 0 0 0 0 0 0 0 0.05 0"/><feBlend in2="BackgroundImageFix" result="effect1_dropShadow_977_6929"/><feColorMatrix in="SourceAlpha" result="hardAlpha" values="0 0 0 0 0 0 0 0 0 0 0 0 0 0 0 0 0 0 127 0"/><feOffset/><feGaussianBlur stdDeviation="1"/><feComposite in2="hardAlpha" operator="out"/><feColorMatrix values="0 0 0 0 0.036 0 0 0 0 0.042 0 0 0 0 0.044 0 0 0 0.1 0"/><feBlend in2="effect1_dropShadow_977_6929" result="effect2_dropShadow_977_6929"/><feBlend in="SourceGraphic" in2="effect2_dropShadow_977_6929" result="shape"/></filter></defs></svg>