<svg xmlns="http://www.w3.org/2000/svg" width="460" height="290" fill="none" viewBox="0 0 460 290"><g clip-path="url(#a)"><rect width="315" height="109" x="64.5" y="-2.5" fill="#fcfcfc" rx="7.5"/><rect width="315" height="109" x="64.5" y="-2.5" stroke="#dfdfdf" rx="7.5"/><g opacity=".9"><rect width="85" height="20" x="74.5" y="8.5" fill="#f7f7f7" rx="2.5"/><rect width="85" height="20" x="74.5" y="8.5" stroke="#dfdfdf" rx="2.5"/><path fill="#cbcb41" d="M80.313 18.803v-.48q.54 0 .754-.22.215-.225.215-.739v-.917q0-.49.108-.821.112-.336.339-.537a1.36 1.36 0 0 1 .575-.291q.349-.09.822-.09v.758q-.37 0-.579.109a.6.6 0 0 0-.29.338q-.08.228-.08.582v1.163q0 .247-.074.457a.8.8 0 0 1-.272.362q-.198.153-.565.24a4.3 4.3 0 0 1-.953.086m2.813 4.058q-.474 0-.822-.089a1.36 1.36 0 0 1-.575-.29 1.2 1.2 0 0 1-.339-.538 2.7 2.7 0 0 1-.108-.821v-.92q0-.512-.215-.736-.213-.223-.754-.223v-.477q.585 0 .953.087.367.082.565.24a.8.8 0 0 1 .272.364q.074.208.074.454v1.163q0 .351.08.578a.6.6 0 0 0 .29.34q.208.111.579.111zm-2.813-3.617v-.92h.885v.92zm8.558-.477v.477q-.54 0-.755.223-.213.225-.214.735v.92q0 .49-.112.822a1.2 1.2 0 0 1-.335.537 1.36 1.36 0 0 1-.576.291q-.349.09-.82.09v-.758q.37 0 .578-.112a.58.58 0 0 0 .287-.339q.084-.226.083-.578v-1.163q0-.247.074-.454a.8.8 0 0 1 .272-.365q.198-.156.565-.24.368-.086.953-.086m-2.813-4.058q.474 0 .821.089.349.09.576.29.227.202.335.538.112.332.112.821v.917q0 .515.214.739.214.22.755.22v.48q-.585 0-.953-.087-.367-.085-.566-.24a.8.8 0 0 1-.271-.36 1.4 1.4 0 0 1-.074-.458v-1.163q0-.354-.083-.582a.58.58 0 0 0-.288-.338q-.207-.11-.578-.11zm2.813 3.614v.92h-.886v-.92z"/><path fill="#171717" d="M97.928 23v-7.09h1.325v1.153h.088q.221-.585.724-.914.503-.332 1.205-.332.711 0 1.191.332.485.332.716.914h.074a2 2 0 0 1 .808-.905q.553-.34 1.32-.341.965 0 1.574.605.614.604.614 1.823V23h-1.38v-4.626q0-.72-.393-1.043a1.43 1.43 0 0 0-.937-.323q-.673 0-1.048.415-.374.411-.374 1.058V23h-1.375v-4.713q0-.577-.36-.928t-.938-.351q-.392 0-.724.208a1.5 1.5 0 0 0-.531.567 1.74 1.74 0 0 0-.199.845V23zm14.476.143q-1.029 0-1.773-.466a3.1 3.1 0 0 1-1.135-1.297q-.397-.826-.397-1.893 0-1.08.406-1.907a3.1 3.1 0 0 1 1.145-1.297q.738-.465 1.74-.466.808 0 1.441.3a2.6 2.6 0 0 1 1.02.83q.392.537.466 1.252h-1.343a1.6 1.6 0 0 0-.508-.859q-.393-.36-1.053-.36-.576 0-1.011.305-.429.3-.669.858-.24.555-.24 1.311 0 .777.235 1.34.236.563.665.872.434.31 1.02.31.393 0 .711-.144.324-.149.54-.42.222-.272.31-.656h1.343a2.6 2.6 0 0 1-.448 1.228q-.374.54-1.002.85-.623.31-1.463.31m4.389 2.516v-9.75h1.348v1.15h.116q.12-.222.346-.513.226-.29.628-.508.4-.22 1.061-.221.86 0 1.533.434.674.434 1.057 1.25.388.819.388 1.967 0 1.15-.383 1.972-.383.816-1.053 1.26a2.72 2.72 0 0 1-1.528.439q-.646 0-1.057-.217a2 2 0 0 1-.637-.508 4 4 0 0 1-.355-.517h-.084v3.762zm1.353-6.204q0 .747.217 1.31t.628.882q.41.315 1.006.314.618 0 1.034-.327.415-.333.628-.9.217-.57.217-1.28 0-.7-.212-1.26a1.93 1.93 0 0 0-.628-.881q-.416-.324-1.039-.324-.6 0-1.016.31-.41.31-.623.863-.212.554-.212 1.293m7.58 3.633a.9.9 0 0 1-.651-.268.9.9 0 0 1-.272-.656q0-.378.272-.646a.9.9 0 0 1 .651-.272.9.9 0 0 1 .651.272.87.87 0 0 1 .272.646q0 .255-.129.467a.96.96 0 0 1-.332.332.9.9 0 0 1-.462.125m2.772-7.179h1.381v7.553q0 .711-.259 1.2a1.7 1.7 0 0 1-.757.743q-.498.255-1.233.254h-.138q-.07 0-.143-.005v-1.186h.221q.49 0 .707-.263.22-.258.221-.753zm.683-1.094a.88.88 0 0 1-.618-.24.78.78 0 0 1-.254-.582q0-.341.254-.581a.87.87 0 0 1 .618-.245.85.85 0 0 1 .614.245q.26.24.259.581a.77.77 0 0 1-.259.582.86.86 0 0 1-.614.24m7.868 2.825-1.251.222a1.5 1.5 0 0 0-.249-.457 1.24 1.24 0 0 0-.453-.356q-.286-.138-.715-.138-.586 0-.979.263-.392.258-.392.67 0 .354.263.572t.849.355l1.127.259q.978.225 1.458.697.481.471.481 1.223 0 .638-.37 1.136-.364.494-1.02.776-.65.28-1.51.281-1.19 0-1.943-.508-.753-.512-.923-1.454l1.334-.203q.125.521.512.79.388.262 1.011.262.679 0 1.085-.281.406-.285.406-.697a.73.73 0 0 0-.249-.559q-.245-.225-.752-.341l-1.201-.264q-.992-.225-1.468-.72-.471-.494-.471-1.25 0-.629.351-1.1.35-.47.97-.734.618-.267 1.417-.267 1.149 0 1.81.498.66.494.872 1.325m4.643 5.503q-.998 0-1.74-.457a3.07 3.07 0 0 1-1.154-1.279q-.411-.821-.411-1.92 0-1.104.411-1.93.41-.826 1.154-1.283.743-.457 1.74-.457t1.741.457q.743.456 1.154 1.283.411.826.411 1.93 0 1.099-.411 1.92a3.1 3.1 0 0 1-1.154 1.28q-.744.456-1.741.456m.005-1.159q.647 0 1.071-.341.424-.342.628-.91.207-.567.207-1.25 0-.68-.207-1.247a2.04 2.04 0 0 0-.628-.919q-.424-.346-1.071-.346-.65 0-1.081.346-.424.345-.632.919a3.7 3.7 0 0 0-.203 1.246q0 .684.203 1.251.208.568.632.91.43.34 1.081.341m6.222-3.194V23h-1.381v-7.09h1.325v1.153h.088q.244-.563.766-.905.527-.34 1.325-.341.725 0 1.27.304.544.3.845.896t.3 1.473V23h-1.381v-4.344q0-.771-.401-1.205-.402-.439-1.104-.439-.48 0-.854.208a1.5 1.5 0 0 0-.586.61q-.212.396-.212.96"/></g><path fill="#171717" d="M78.375 52h-3.142V41.818h3.281q1.482 0 2.536.612a4 4 0 0 1 1.615 1.745q.562 1.133.562 2.714 0 1.59-.567 2.74a4.04 4.04 0 0 1-1.65 1.76q-1.084.61-2.635.611m-1.91-1.094h1.83q1.263 0 2.093-.487a3 3 0 0 0 1.238-1.387q.408-.9.408-2.143 0-1.233-.403-2.123a2.97 2.97 0 0 0-1.203-1.372q-.8-.482-1.993-.482h-1.97zm12.013 1.253q-1.103 0-1.904-.487a3.27 3.27 0 0 1-1.228-1.372q-.428-.885-.428-2.058 0-1.174.428-2.069.433-.9 1.203-1.402.775-.507 1.81-.507.597 0 1.178.2.581.198 1.059.645.478.442.76 1.174.284.73.284 1.8v.497h-5.886v-1.015h4.693q0-.646-.259-1.153a1.95 1.95 0 0 0-.726-.8q-.467-.294-1.103-.294-.702 0-1.213.348a2.3 2.3 0 0 0-.78.895 2.6 2.6 0 0 0-.274 1.183v.676q0 .865.298 1.467.303.597.84.91.537.308 1.248.308.462 0 .835-.13.379-.133.652-.397.273-.268.422-.666l1.134.318q-.18.578-.602 1.014-.423.433-1.044.676-.621.24-1.397.24m5.087 2.705v-10.5h1.133v1.213h.14q.129-.2.358-.507.233-.315.666-.557.437-.249 1.183-.249.965 0 1.7.482.735.483 1.149 1.368.412.885.412 2.088 0 1.213-.412 2.103-.414.885-1.144 1.372-.73.482-1.685.482-.735 0-1.178-.243a2.2 2.2 0 0 1-.682-.562 8 8 0 0 1-.367-.527h-.1v4.037zm1.153-6.682q0 .864.254 1.526.254.656.74 1.03.488.367 1.194.367.736 0 1.228-.388a2.37 2.37 0 0 0 .745-1.054q.255-.666.254-1.481 0-.806-.249-1.452a2.24 2.24 0 0 0-.74-1.029q-.493-.383-1.238-.383-.717 0-1.203.363-.487.359-.736 1.004-.249.642-.249 1.497m8.691-6.364V52h-1.173V41.818zm5.392 10.341q-1.035 0-1.815-.492a3.35 3.35 0 0 1-1.213-1.377q-.433-.885-.433-2.068 0-1.194.433-2.084a3.34 3.34 0 0 1 1.213-1.382q.78-.492 1.815-.492 1.033 0 1.809.492.781.493 1.213 1.383.438.89.438 2.083 0 1.182-.438 2.068a3.3 3.3 0 0 1-1.213 1.377q-.776.492-1.809.492m0-1.054q.785 0 1.292-.403.507-.402.751-1.058.244-.657.244-1.422t-.244-1.427a2.4 2.4 0 0 0-.751-1.07q-.507-.406-1.292-.407-.786 0-1.293.408a2.4 2.4 0 0 0-.751 1.069q-.243.66-.243 1.427 0 .765.243 1.422.244.656.751 1.058.507.403 1.293.403m5.873 3.759q-.298 0-.532-.05a1.4 1.4 0 0 1-.323-.09l.298-1.034q.428.11.756.08a.9.9 0 0 0 .582-.293q.258-.26.472-.84l.219-.597-2.824-7.676h1.273l2.107 6.085h.08l2.108-6.085h1.273l-3.242 8.75a3.3 3.3 0 0 1-.542.979 2 2 0 0 1-.75.582q-.423.189-.955.189m13.502-2.685a3.1 3.1 0 0 1-1.317-.273 2.26 2.26 0 0 1-.94-.8q-.348-.527-.348-1.274 0-.656.258-1.063.26-.413.691-.647.433-.234.955-.348.526-.12 1.059-.189.696-.09 1.129-.134.436-.05.636-.164.204-.114.204-.398v-.04q0-.735-.403-1.143-.398-.408-1.208-.408-.84 0-1.318.368-.477.367-.671.786l-1.113-.398q.298-.696.795-1.084a3 3 0 0 1 1.094-.547q.597-.159 1.173-.159.368 0 .845.09.483.084.93.353.453.269.751.81.298.542.298 1.452V52h-1.173v-1.034h-.06a2 2 0 0 1-.398.532q-.278.284-.74.482-.463.2-1.129.199m.179-1.054q.696 0 1.173-.273.483-.274.726-.706.249-.433.249-.91v-1.074q-.075.09-.328.164a6 6 0 0 1-.577.124 27 27 0 0 1-1.124.15q-.458.06-.855.193a1.5 1.5 0 0 0-.636.393q-.239.258-.239.706 0 .612.453.925.458.308 1.158.308m6.776-3.719V52h-1.173v-7.636h1.133v1.193h.099q.269-.582.816-.935.546-.358 1.412-.358.775 0 1.357.318.582.314.905.955.323.636.323 1.61V52h-1.173v-4.773q0-.9-.468-1.402-.467-.507-1.282-.507-.563 0-1.005.244-.437.244-.691.71-.253.468-.253 1.134m14.435 4.753q-1.104 0-1.904-.487a3.27 3.27 0 0 1-1.228-1.372q-.427-.885-.427-2.058 0-1.174.427-2.069.432-.9 1.203-1.402.775-.507 1.81-.507.596 0 1.178.2.582.198 1.059.645.477.442.761 1.174.283.73.283 1.8v.497h-5.886v-1.015h4.693q0-.646-.259-1.153a1.95 1.95 0 0 0-.725-.8q-.468-.294-1.104-.294-.701 0-1.213.348a2.3 2.3 0 0 0-.781.895 2.6 2.6 0 0 0-.273 1.183v.676q0 .865.298 1.467.303.597.84.91.537.308 1.248.308.462 0 .835-.13.378-.133.652-.397.273-.268.422-.666l1.134.318q-.18.578-.602 1.014a2.9 2.9 0 0 1-1.044.676q-.621.24-1.397.24m7.97 0q-.954 0-1.685-.482-.73-.487-1.143-1.372-.413-.891-.413-2.103 0-1.203.413-2.088t1.148-1.368q.736-.482 1.7-.482.745 0 1.179.249.436.243.666.557.234.307.363.507h.099v-3.759h1.173V52h-1.133v-1.173h-.139a8 8 0 0 1-.368.527 2.2 2.2 0 0 1-.681.562q-.442.243-1.179.243m.16-1.054q.705 0 1.193-.368.487-.372.74-1.029.254-.661.254-1.526 0-.856-.249-1.497-.248-.645-.735-1.004-.488-.363-1.203-.363-.747 0-1.243.383a2.3 2.3 0 0 0-.741 1.03q-.244.645-.244 1.45 0 .816.249 1.482.253.662.746 1.054.496.388 1.233.388m8.875 3.918q-.85 0-1.462-.219a3.1 3.1 0 0 1-1.019-.567 3.1 3.1 0 0 1-.642-.745l.935-.657q.159.21.403.477.243.274.666.473.427.204 1.119.204.924 0 1.526-.448.601-.447.601-1.402v-1.55h-.099q-.13.207-.368.516a2.1 2.1 0 0 1-.676.542q-.438.234-1.183.234-.925 0-1.661-.438-.73-.437-1.158-1.273-.423-.835-.423-2.028 0-1.173.413-2.043.413-.875 1.148-1.353.737-.482 1.701-.482.745 0 1.183.249.442.243.676.557.239.307.368.507h.119v-1.213h1.134v7.855q0 .984-.448 1.6a2.54 2.54 0 0 1-1.193.91 4.5 4.5 0 0 1-1.66.294m-.04-4.196q.705 0 1.193-.323.488-.324.741-.93t.253-1.452q0-.825-.248-1.456a2.2 2.2 0 0 0-.736-.99q-.487-.358-1.203-.358-.746 0-1.243.378-.492.378-.741 1.014a3.9 3.9 0 0 0-.243 1.412q0 .796.248 1.407.254.607.746.955.496.343 1.233.343m8.83 1.332q-1.103 0-1.904-.487a3.27 3.27 0 0 1-1.228-1.372q-.427-.885-.427-2.058 0-1.174.427-2.069.432-.9 1.203-1.402.775-.507 1.81-.507.597 0 1.178.2.582.198 1.059.645.477.442.761 1.174.283.73.283 1.8v.497h-5.886v-1.015h4.693q0-.646-.259-1.153a1.95 1.95 0 0 0-.725-.8q-.468-.294-1.104-.294-.701 0-1.213.348a2.3 2.3 0 0 0-.781.895 2.6 2.6 0 0 0-.273 1.183v.676q0 .865.298 1.467.303.597.84.91.537.308 1.248.308.462 0 .835-.13.378-.133.652-.397.273-.268.422-.666l1.134.318q-.18.578-.602 1.014a2.9 2.9 0 0 1-1.044.676q-.621.24-1.397.24m12.565-7.795v.994h-4.116v-.994zM185.042 52v-8.69q0-.657.309-1.094.308-.438.8-.656a2.5 2.5 0 0 1 1.039-.22q.433 0 .706.07t.408.13l-.338 1.014a6 6 0 0 0-.249-.075 1.5 1.5 0 0 0-.407-.044q-.582 0-.841.293-.253.293-.253.86V52zm9.481-3.122v-4.514h1.173V52h-1.173v-1.293h-.08a2.5 2.5 0 0 1-.835.99q-.567.402-1.432.402-.716 0-1.272-.313-.558-.318-.875-.954-.32-.642-.319-1.616v-4.852h1.174v4.772q0 .835.467 1.333.473.497 1.203.497.438 0 .89-.224.457-.224.766-.686.312-.462.313-1.178m4.635-1.472V52h-1.173v-7.636h1.134v1.193h.099q.269-.582.815-.935.548-.358 1.412-.358.776 0 1.358.318.581.314.904.955.324.636.324 1.61V52h-1.174v-4.773q0-.9-.467-1.402-.468-.507-1.283-.507-.561 0-1.004.244a1.74 1.74 0 0 0-.691.71q-.254.468-.254 1.134m10.259 4.753q-1.074 0-1.85-.507a3.3 3.3 0 0 1-1.193-1.397q-.417-.89-.417-2.033 0-1.163.427-2.054a3.4 3.4 0 0 1 1.203-1.397q.776-.507 1.81-.507.805 0 1.452.298a2.8 2.8 0 0 1 1.059.836q.412.537.512 1.253h-1.174q-.134-.522-.596-.925-.458-.408-1.233-.408-.687 0-1.203.358-.512.353-.801 1-.283.641-.283 1.506 0 .884.278 1.541.283.656.796 1.02.517.362 1.213.362.458 0 .83-.159a1.7 1.7 0 0 0 .999-1.173h1.174q-.1.675-.493 1.218a2.74 2.74 0 0 1-1.029.855q-.636.313-1.481.313m8.179-7.795v.994h-3.957v-.994zm-2.804-1.83h1.173v7.279q0 .496.144.745.15.244.378.328.234.08.492.08.195 0 .319-.02l.198-.04.239 1.054q-.119.045-.333.09-.214.05-.542.05a2.4 2.4 0 0 1-.974-.214 1.94 1.94 0 0 1-.786-.652q-.308-.437-.308-1.103zM219.501 52v-7.636h1.173V52zm.596-8.91a.83.83 0 0 1-.591-.233.75.75 0 0 1-.244-.562q0-.328.244-.561a.83.83 0 0 1 .591-.234q.344 0 .587.234a.74.74 0 0 1 .249.561.74.74 0 0 1-.249.562.82.82 0 0 1-.587.234m5.968 9.07q-1.034 0-1.814-.493a3.34 3.34 0 0 1-1.213-1.377q-.433-.885-.433-2.068 0-1.194.433-2.084a3.33 3.33 0 0 1 1.213-1.382q.78-.492 1.814-.492t1.81.492q.78.493 1.213 1.383.438.89.438 2.083 0 1.182-.438 2.068a3.3 3.3 0 0 1-1.213 1.377q-.775.492-1.81.492m0-1.055q.786 0 1.293-.403a2.4 2.4 0 0 0 .751-1.058q.243-.657.243-1.422t-.243-1.427a2.4 2.4 0 0 0-.751-1.07q-.507-.406-1.293-.407t-1.292.408a2.4 2.4 0 0 0-.751 1.069q-.244.66-.244 1.427 0 .765.244 1.422t.751 1.058q.507.403 1.292.403m6.565-3.699V52h-1.173v-7.636h1.133v1.193h.1q.268-.582.815-.935.546-.358 1.412-.358.775 0 1.357.318.582.314.905.955.323.636.323 1.61V52h-1.173v-4.773q0-.9-.468-1.402-.467-.507-1.282-.507-.562 0-1.005.244-.437.244-.691.71-.253.468-.253 1.134"/><path stroke="#dfdfdf" d="M63.999 64.933 380 64.5"/><rect width="2.5" height="5.5" x="74" y="82.683" fill="#707070" rx="1.25"/><rect width="2.5" height="5" x="79" y="82.933" fill="#707070" rx="1.25"/><rect width="2.5" height="4.5" x="84" y="83.183" fill="#707070" rx="1.25"/><path fill="#707070" d="M104.108 83.934a3.3 3.3 0 0 0-.402-.836 2.6 2.6 0 0 0-.586-.637 2.5 2.5 0 0 0-.766-.402 3 3 0 0 0-.942-.138q-.84 0-1.528.434t-1.094 1.278q-.407.846-.407 2.073 0 1.228.411 2.073t1.113 1.279 1.579.434q.812 0 1.431-.347.623-.35.969-.987.351-.642.351-1.51l.351.074h-2.844v-1.016h3.601v1.016q0 1.168-.498 2.031a3.45 3.45 0 0 1-1.367 1.339q-.867.47-1.994.47-1.256 0-2.207-.59-.945-.591-1.477-1.68-.526-1.09-.526-2.586 0-1.122.3-2.017.305-.9.858-1.533.555-.633 1.311-.97a4.05 4.05 0 0 1 1.667-.336q.748 0 1.394.226a3.75 3.75 0 0 1 2.013 1.606q.342.564.471 1.251zm6.153 6.647q-1.024 0-1.768-.452a3.04 3.04 0 0 1-1.14-1.274q-.397-.822-.397-1.912t.397-1.92q.402-.835 1.117-1.302.72-.47 1.681-.47.554-.001 1.094.184.54.184.983.6.443.41.706 1.09.263.678.263 1.67v.462h-5.466v-.941h4.358q0-.6-.24-1.071a1.8 1.8 0 0 0-.674-.744 1.9 1.9 0 0 0-1.024-.272q-.651 0-1.127.323a2.13 2.13 0 0 0-.725.831 2.44 2.44 0 0 0-.254 1.099v.628q0 .803.277 1.362.282.553.781.844.498.287 1.158.287.43 0 .776-.12.35-.126.605-.37.254-.249.392-.618l1.053.295q-.166.535-.559.942a2.7 2.7 0 0 1-.969.628 3.6 3.6 0 0 1-1.298.221m5.813-4.413v4.265h-1.089v-7.09h1.052v1.108h.093q.249-.54.757-.868.507-.333 1.311-.333.72 0 1.26.296.54.29.84.886.3.591.3 1.496v4.505h-1.089v-4.431q0-.835-.434-1.302-.434-.471-1.191-.471-.522 0-.933.226-.406.226-.641.66-.236.434-.236 1.053m9.618 4.413q-1.024 0-1.768-.452a3.04 3.04 0 0 1-1.14-1.274q-.397-.822-.397-1.912t.397-1.92q.402-.835 1.117-1.302.72-.47 1.68-.47.554-.001 1.095.184.54.184.983.6.443.41.706 1.09.263.678.263 1.67v.462h-5.466v-.941h4.358q0-.6-.24-1.071a1.8 1.8 0 0 0-.674-.744 1.9 1.9 0 0 0-1.025-.272q-.65 0-1.126.323-.471.319-.725.831a2.44 2.44 0 0 0-.254 1.099v.628q0 .803.277 1.362.282.553.78.844.5.287 1.159.287.43 0 .776-.12.35-.126.605-.37.254-.249.392-.618l1.052.295a2.3 2.3 0 0 1-.558.942 2.7 2.7 0 0 1-.97.628 3.6 3.6 0 0 1-1.297.221m4.724-.148v-7.09h1.052v1.07h.074a1.7 1.7 0 0 1 .702-.853q.507-.328 1.145-.328.12 0 .3.004.18.005.272.014v1.108a3 3 0 0 0-.254-.041 2.5 2.5 0 0 0-.411-.033 1.9 1.9 0 0 0-.923.217q-.402.213-.637.591-.231.374-.231.854v4.487zm7.053.167q-.674 0-1.223-.254a2.1 2.1 0 0 1-.873-.743q-.323-.49-.323-1.182 0-.61.24-.988.24-.384.642-.6.402-.218.886-.323.489-.111.984-.176.646-.083 1.047-.125.406-.045.591-.152.19-.105.19-.37v-.036q0-.684-.374-1.062-.369-.378-1.122-.379-.78 0-1.223.342t-.624.73l-1.034-.37q.277-.645.739-1.006a2.8 2.8 0 0 1 1.016-.508 4.2 4.2 0 0 1 1.089-.148q.342 0 .785.083.447.08.863.328.42.249.697.753.277.502.277 1.348v4.671h-1.089v-.96h-.056a2 2 0 0 1-.369.494 2.1 2.1 0 0 1-.688.448q-.429.185-1.048.185m.166-.979q.646 0 1.09-.254a1.73 1.73 0 0 0 .905-1.5v-.997q-.07.083-.305.152a5 5 0 0 1-.536.115 24 24 0 0 1-1.043.139 4 4 0 0 0-.794.18q-.364.12-.591.364-.221.241-.221.656 0 .568.42.859.424.285 1.075.286m8.287-6.278v.923h-3.675v-.923zm-2.604-1.7h1.089v6.76q0 .46.134.692.139.225.351.304.217.075.457.074.18 0 .296-.018l.184-.037.222.978a2 2 0 0 1-.31.084q-.198.046-.503.046-.46 0-.905-.199a1.8 1.8 0 0 1-.729-.605q-.286-.405-.286-1.024zm4.372 8.79v-7.09h1.09v7.09zm.554-8.272a.78.78 0 0 1-.549-.217.7.7 0 0 1-.226-.522q0-.304.226-.522a.78.78 0 0 1 .549-.217q.319 0 .545.217a.7.7 0 0 1 .231.522.7.7 0 0 1-.231.522.76.76 0 0 1-.545.217m3.751 4.007v4.265h-1.09v-7.09h1.053v1.108h.092q.25-.54.757-.868.508-.333 1.311-.333.721 0 1.261.296.54.29.84.886.3.591.3 1.496v4.505h-1.09v-4.431q0-.835-.433-1.302-.435-.471-1.192-.471-.52 0-.932.226-.406.226-.642.66-.235.434-.235 1.053m9.507 7.072q-.79 0-1.357-.203a2.9 2.9 0 0 1-.947-.526 2.9 2.9 0 0 1-.595-.693l.868-.609q.147.195.374.443a1.9 1.9 0 0 0 .618.439q.397.19 1.039.19.858-.001 1.417-.416.56-.415.559-1.302v-1.44h-.092q-.12.194-.342.48a1.9 1.9 0 0 1-.628.503q-.406.216-1.099.217a2.96 2.96 0 0 1-1.542-.407q-.678-.405-1.075-1.181-.393-.775-.393-1.884 0-1.09.384-1.897.383-.812 1.066-1.256.683-.447 1.579-.448.692 0 1.099.231.41.225.627.517.222.286.342.471h.111v-1.126h1.052v7.294q0 .914-.415 1.486a2.37 2.37 0 0 1-1.108.845 4.2 4.2 0 0 1-1.542.272m-.037-3.896q.655 0 1.108-.3t.688-.863.235-1.348q0-.766-.23-1.353a2.03 2.03 0 0 0-.684-.919q-.452-.332-1.117-.332-.693 0-1.154.35a2.13 2.13 0 0 0-.688.943 3.6 3.6 0 0 0-.226 1.31q0 .739.231 1.307.236.564.692.886.462.32 1.145.319"/><g opacity=".8"><rect width="82.413" height="25" x="287.587" y="75.433" fill="#3e3e3e" rx="5"/><path fill="#525252" d="M299.783 85.463a1.35 1.35 0 0 0-.61-1.016q-.535-.365-1.348-.365-.581 0-1.006.185a1.55 1.55 0 0 0-.66.499q-.231.313-.231.715 0 .337.157.582.162.245.42.41.263.163.563.273.3.106.577.175l.924.24q.451.111.927.3.476.19.882.5.407.307.656.765.254.458.254 1.094 0 .804-.416 1.427-.41.623-1.195.983-.781.36-1.889.36-1.061 0-1.837-.337t-1.214-.955q-.438-.623-.485-1.478h1.431q.042.513.333.855.295.336.752.503.462.162 1.011.161.605 0 1.076-.189.475-.195.748-.535.272-.346.272-.808 0-.42-.24-.688a1.8 1.8 0 0 0-.642-.443 6 6 0 0 0-.909-.31l-1.117-.304q-1.136-.31-1.801-.91-.66-.6-.66-1.588 0-.817.443-1.426a2.9 2.9 0 0 1 1.201-.947q.757-.341 1.708-.341.96 0 1.694.337.738.337 1.163.928.425.586.443 1.348zm6.409-.12v1.108h-3.874v-1.108zm-2.835-1.7h1.38v6.708q0 .402.12.605.12.198.31.273.194.069.42.069.167 0 .291-.023l.194-.037.249 1.14q-.12.046-.342.092a2.7 2.7 0 0 1-.554.056 2.4 2.4 0 0 1-1.015-.194 1.74 1.74 0 0 1-.762-.628q-.291-.424-.291-1.066zm7.272 8.934q-.998 0-1.74-.457a3.1 3.1 0 0 1-1.154-1.28q-.411-.82-.411-1.92 0-1.103.411-1.93.41-.825 1.154-1.283.743-.457 1.74-.457t1.741.457 1.154 1.284.411 1.93q0 1.098-.411 1.92a3.1 3.1 0 0 1-1.154 1.279q-.744.457-1.741.457m.005-1.16q.646 0 1.071-.34.424-.343.628-.91a3.6 3.6 0 0 0 .207-1.251q0-.679-.207-1.247a2.04 2.04 0 0 0-.628-.918q-.425-.347-1.071-.347-.65 0-1.081.347-.424.346-.632.918a3.7 3.7 0 0 0-.203 1.247q0 .683.203 1.25.208.57.632.91.43.342 1.081.342m4.841 3.676v-9.75h1.348v1.15h.116q.12-.224.346-.513a2 2 0 0 1 .628-.508q.401-.222 1.062-.222.858 0 1.532.434.675.435 1.057 1.251.388.817.388 1.967 0 1.149-.383 1.971-.382.817-1.053 1.26a2.72 2.72 0 0 1-1.528.439q-.646 0-1.057-.217a2 2 0 0 1-.637-.508 4 4 0 0 1-.355-.517h-.083v3.763zm1.353-6.205q0 .749.217 1.311.217.564.628.882.41.314 1.006.314.619 0 1.034-.328.415-.333.628-.9.217-.568.217-1.279 0-.702-.212-1.26a1.93 1.93 0 0 0-.628-.882q-.415-.323-1.039-.323-.6 0-1.016.31a1.9 1.9 0 0 0-.623.862q-.212.554-.212 1.293"/><path fill="#707070" d="m329.587 87.945 4.825-4.824 4.828 4.824h-2.453v3.801h-4.75v-3.8zm2.036-.797h1.367v3.801h2.847v-3.8h1.368l-2.793-2.794zM342.982 91.613q-.476 0-.875-.234a1.8 1.8 0 0 1-.633-.633 1.7 1.7 0 0 1-.234-.875q0-.48.234-.875a1.8 1.8 0 0 1 .633-.637q.399-.238.875-.238h.859v-1.383h-.859q-.476 0-.875-.234a1.76 1.76 0 0 1-.633-.63 1.7 1.7 0 0 1-.234-.878q0-.48.234-.875a1.76 1.76 0 0 1 .633-.629q.399-.238.875-.238.48 0 .875.238.398.234.633.629.238.395.238.875v.852h1.387v-.852q0-.48.234-.875t.629-.629q.399-.238.879-.238t.875.238q.395.234.629.629t.234.875-.234.879a1.8 1.8 0 0 1-.629.629 1.7 1.7 0 0 1-.875.234h-.856v1.383h.856q.48 0 .875.238.395.239.629.637.234.395.234.875 0 .477-.234.875a1.8 1.8 0 0 1-.629.633 1.7 1.7 0 0 1-.875.234q-.48 0-.879-.234a1.8 1.8 0 0 1-.629-.633 1.7 1.7 0 0 1-.234-.875v-.86h-1.387v.86q0 .477-.238.875a1.8 1.8 0 0 1-.633.633 1.7 1.7 0 0 1-.875.234m0-.89a.83.83 0 0 0 .43-.114.87.87 0 0 0 .312-.308.8.8 0 0 0 .117-.43v-.86h-.859q-.234 0-.43.118a.844.844 0 0 0-.426.742.84.84 0 0 0 .426.738q.196.114.43.114m0-4.876h.859v-.851a.8.8 0 0 0-.117-.43.865.865 0 0 0-1.172-.308.87.87 0 0 0-.312.308.8.8 0 0 0-.114.43q0 .238.114.434.117.191.312.304.196.114.43.114m4.019 0h.856a.83.83 0 0 0 .734-.417.83.83 0 0 0 .117-.434.8.8 0 0 0-.117-.43.83.83 0 0 0-.734-.422.85.85 0 0 0-.742.422.8.8 0 0 0-.114.43zm.856 4.876a.83.83 0 0 0 .734-.422.8.8 0 0 0 .117-.43.83.83 0 0 0-.117-.434.84.84 0 0 0-.734-.425h-.856v.859q0 .235.114.43.113.195.308.308a.85.85 0 0 0 .434.114m-3.129-2.602h1.387v-1.383h-1.387zM355.21 91.07l-3.615-3.636 3.615-3.637H362v7.273zm.38-.91h5.501v-5.454h-5.501l-2.713 2.727zm4.233-1.25-.611.626-3.608-3.58.611-.625zm-3.608.626-.611-.625 3.608-3.58.611.625z"/></g><path fill="url(#b)" d="M2-5h458v305H2z"/><rect width="317.056" height="296.452" x="63.505" y="121.505" fill="#fff" rx="8.495"/><rect width="317.056" height="296.452" x="63.505" y="121.505" stroke="#dfdfdf" stroke-width=".991" rx="8.495"/><path stroke="#525252" stroke-linecap="round" stroke-linejoin="round" stroke-width=".991" d="m87.78 136.22-5.45 5.449-5.45-5.449"/><path fill="#525252" d="M107.174 137.137h-1.537a2.35 2.35 0 0 0-.921-1.502 2.5 2.5 0 0 0-.783-.394 3 3 0 0 0-.911-.133 2.85 2.85 0 0 0-1.562.438q-.684.439-1.083 1.286-.394.847-.394 2.069 0 1.232.394 2.078.398.847 1.088 1.281t1.552.434q.477 0 .906-.128.433-.133.783-.39a2.35 2.35 0 0 0 .931-1.482l1.537.005a4.1 4.1 0 0 1-.478 1.369 3.8 3.8 0 0 1-.901 1.074 4.1 4.1 0 0 1-1.251.694q-.705.247-1.537.247-1.31 0-2.335-.621-1.024-.625-1.616-1.788-.585-1.162-.586-2.773 0-1.616.591-2.774.591-1.162 1.616-1.783 1.025-.625 2.33-.625.802 0 1.497.231.7.227 1.256.67.558.438.922 1.074.364.63.492 1.443m4.044 6.975q-.72 0-1.301-.266a2.2 2.2 0 0 1-.921-.783q-.335-.512-.335-1.256 0-.64.247-1.054.246-.414.665-.655.418-.242.936-.365a9 9 0 0 1 1.054-.187l1.103-.128q.424-.055.616-.172.192-.118.192-.385v-.034q0-.646-.365-1-.359-.355-1.073-.355-.744 0-1.173.33-.423.325-.586.724l-1.384-.315q.246-.69.719-1.113a2.9 2.9 0 0 1 1.099-.621 4.3 4.3 0 0 1 1.305-.197q.453 0 .96.109.513.103.956.384.449.28.734.803.285.518.286 1.344v5.025h-1.439v-1.035h-.059a2.1 2.1 0 0 1-.428.562 2.3 2.3 0 0 1-.734.458q-.448.183-1.074.182m.32-1.182q.61 0 1.044-.241.439-.241.665-.631.232-.393.232-.842v-.975q-.079.078-.306.147a5 5 0 0 1-.507.114l-.557.083-.453.059a3.7 3.7 0 0 0-.783.183q-.35.127-.561.369-.207.237-.207.631 0 .546.404.827.403.276 1.029.276m6.987-9.073v10.088h-1.473v-10.088zm3.593 0v10.088h-1.473v-10.088zm2.12 10.088v-7.566h1.473v7.566zm.744-8.734a.94.94 0 0 1-.66-.256.83.83 0 0 1-.271-.621.82.82 0 0 1 .271-.62.93.93 0 0 1 .66-.261.9.9 0 0 1 .655.261.82.82 0 0 1 .276.62q0 .36-.276.621a.92.92 0 0 1-.655.256m4.322 4.241v4.493h-1.473v-7.566h1.414v1.231h.093q.261-.6.818-.965.562-.365 1.414-.365.773 0 1.354.325.582.32.902.956t.32 1.571v4.813h-1.473v-4.635q0-.823-.428-1.286-.43-.468-1.178-.468-.512 0-.911.222a1.6 1.6 0 0 0-.626.65q-.226.423-.226 1.024m10.128 7.488q-.901 0-1.551-.237a3 3 0 0 1-1.055-.625 2.6 2.6 0 0 1-.61-.852l1.266-.523q.132.218.354.459.227.246.611.418.389.173 1 .173.838 0 1.384-.409.547-.405.547-1.291v-1.487h-.094q-.132.24-.384.537a2.1 2.1 0 0 1-.68.512q-.434.217-1.128.217-.896 0-1.615-.419-.715-.424-1.133-1.246-.414-.828-.414-2.035 0-1.206.409-2.069.413-.861 1.133-1.32a2.95 2.95 0 0 1 1.63-.463q.705 0 1.138.237.433.232.675.541.246.311.379.547h.109v-1.226h1.443v7.733q0 .976-.453 1.601a2.66 2.66 0 0 1-1.227.926q-.768.301-1.734.301m-.015-4.33q.636 0 1.074-.296.444-.3.67-.857.232-.561.232-1.344 0-.764-.227-1.345a2 2 0 0 0-.665-.907q-.438-.33-1.084-.33-.664 0-1.108.345a2.1 2.1 0 0 0-.67.926 3.7 3.7 0 0 0-.221 1.311q0 .743.226 1.305.227.56.67.877.449.315 1.103.315m9.471-8.753h1.847l3.212 7.842h.118l3.211-7.842h1.848v10.088h-1.449v-7.3h-.093l-2.975 7.285h-1.202l-2.975-7.29h-.094v7.305h-1.448zm20.966 3.28h-1.537a2.35 2.35 0 0 0-.921-1.502 2.5 2.5 0 0 0-.783-.394 3 3 0 0 0-.911-.133 2.85 2.85 0 0 0-1.562.438q-.684.439-1.083 1.286-.395.847-.395 2.069 0 1.232.395 2.078.398.847 1.088 1.281t1.552.434q.477 0 .906-.128.434-.133.783-.39a2.35 2.35 0 0 0 .931-1.482l1.537.005a4.1 4.1 0 0 1-.478 1.369 3.8 3.8 0 0 1-.901 1.074 4.1 4.1 0 0 1-1.251.694q-.705.247-1.537.247-1.31 0-2.335-.621-1.025-.625-1.616-1.788-.585-1.162-.586-2.773 0-1.616.591-2.774.591-1.162 1.616-1.783 1.025-.625 2.33-.625.803 0 1.497.231.7.227 1.256.67.558.438.922 1.074.364.63.492 1.443m1.96 6.808v-10.088h3.596q1.177 0 1.951.428.773.429 1.157 1.173.385.738.385 1.665 0 .93-.39 1.674a2.8 2.8 0 0 1-1.162 1.173q-.773.428-1.946.428h-2.473v-1.29h2.335q.744 0 1.207-.257.463-.26.68-.709a2.3 2.3 0 0 0 .217-1.019q0-.572-.217-1.015a1.56 1.56 0 0 0-.685-.695q-.463-.25-1.221-.251h-1.912v8.783zm16.235-7.566v1.182h-4.133v-1.182zm-3.024-1.813h1.472v7.157q0 .429.128.646a.67.67 0 0 0 .33.29q.207.074.449.074.177 0 .31-.025l.207-.039.266 1.217a2.5 2.5 0 0 1-.365.098 3 3 0 0 1-.591.059 2.6 2.6 0 0 1-1.083-.207 1.86 1.86 0 0 1-.813-.669q-.31-.454-.31-1.138zm7.898 9.532q-1.065 0-1.857-.488a3.3 3.3 0 0 1-1.232-1.365q-.438-.876-.438-2.049 0-1.177.438-2.059a3.3 3.3 0 0 1 1.232-1.369q.792-.488 1.857-.488t1.857.488q.792.487 1.231 1.369t.439 2.059q0 1.173-.439 2.049a3.3 3.3 0 0 1-1.231 1.365q-.793.488-1.857.488m.005-1.237q.689 0 1.142-.364.454-.365.67-.971.222-.606.222-1.335 0-.723-.222-1.33a2.15 2.15 0 0 0-.67-.98q-.453-.369-1.142-.369-.695 0-1.153.369a2.2 2.2 0 0 0-.675.98 4 4 0 0 0-.217 1.33q0 .729.217 1.335.222.606.675.971.458.364 1.153.364m8.491 1.237q-1.064 0-1.857-.488a3.3 3.3 0 0 1-1.231-1.365q-.439-.876-.439-2.049 0-1.177.439-2.059a3.3 3.3 0 0 1 1.231-1.369q.793-.488 1.857-.488t1.857.488q.794.487 1.232 1.369t.438 2.059q0 1.173-.438 2.049a3.3 3.3 0 0 1-1.232 1.365q-.792.488-1.857.488m.005-1.237q.69 0 1.143-.364.453-.365.67-.971.222-.606.222-1.335 0-.723-.222-1.33a2.16 2.16 0 0 0-.67-.98q-.453-.369-1.143-.369-.695 0-1.152.369a2.2 2.2 0 0 0-.675.98 3.9 3.9 0 0 0-.217 1.33q0 .729.217 1.335.222.606.675.971.457.364 1.152.364m6.778-9.004v10.088h-1.473v-10.088z"/><g opacity=".9"><rect width="125.89" height="16.963" x="219.595" y="130.463" fill="#ededed" rx="2.972"/><path fill="#525252" d="M228.543 141.57q-.72 0-1.285-.368-.561-.37-.882-1.056-.317-.689-.317-1.653 0-.963.321-1.649.325-.685.89-1.048a2.3 2.3 0 0 1 1.281-.364q.554 0 .89.186.34.182.527.425.189.244.294.43h.069v-2.945h1.158v7.926h-1.13v-.925h-.097a3 3 0 0 1-.302.433 1.7 1.7 0 0 1-.534.426q-.34.182-.883.182m.256-.987q.5 0 .844-.263a1.63 1.63 0 0 0 .526-.739q.182-.472.182-1.099 0-.62-.178-1.084a1.6 1.6 0 0 0-.523-.724q-.344-.26-.851-.259-.523 0-.871.271-.349.27-.526.739a3 3 0 0 0-.175 1.057q0 .595.179 1.072.178.476.526.754.352.276.867.275m6.904.991q-.88 0-1.514-.375a2.55 2.55 0 0 1-.975-1.065q-.34-.689-.341-1.614 0-.913.341-1.61a2.64 2.64 0 0 1 .96-1.087q.62-.391 1.447-.391.504 0 .976.166t.847.523q.376.355.592.925.217.564.217 1.374v.41h-4.726v-.867h3.592q0-.457-.186-.809a1.4 1.4 0 0 0-.522-.561 1.46 1.46 0 0 0-.782-.205q-.488 0-.851.24-.36.236-.558.619a1.8 1.8 0 0 0-.193.824v.678q0 .595.209 1.014.213.417.592.638.38.217.886.217.329 0 .6-.093.272-.096.468-.286.198-.19.302-.469l1.096.198a2 2 0 0 1-.473.847q-.337.36-.847.562a3.2 3.2 0 0 1-1.157.197m3.834 2.109v-8.174h1.13v.964h.097q.1-.186.29-.43.19-.243.527-.425.336-.186.89-.186.72 0 1.285.364.564.363.886 1.048.325.686.325 1.649 0 .964-.321 1.653-.32.686-.883 1.056a2.3 2.3 0 0 1-1.281.368q-.541 0-.886-.182a1.7 1.7 0 0 1-.534-.426 3 3 0 0 1-.298-.433h-.07v3.154zm1.134-5.201q0 .627.182 1.099t.526.739q.345.263.844.263.519 0 .867-.275.348-.278.526-.754.183-.477.182-1.072 0-.59-.178-1.057a1.6 1.6 0 0 0-.526-.739q-.349-.271-.871-.271-.503 0-.851.259-.345.26-.523.724-.178.465-.178 1.084m6.75-4.954v7.926h-1.157v-7.926zm4.061 8.046q-.837 0-1.459-.383a2.6 2.6 0 0 1-.968-1.072q-.344-.69-.344-1.61 0-.925.344-1.618t.968-1.076q.622-.384 1.459-.383.835 0 1.459.383.623.383.967 1.076.345.693.345 1.618 0 .92-.345 1.61a2.6 2.6 0 0 1-.967 1.072q-.624.383-1.459.383m.004-.971q.541 0 .898-.287.355-.286.526-.762.174-.477.174-1.049 0-.569-.174-1.045a1.7 1.7 0 0 0-.526-.77q-.357-.291-.898-.291-.546 0-.906.291-.356.29-.53.77a3.1 3.1 0 0 0-.171 1.045q0 .572.171 1.049.174.476.53.762.36.287.906.287m4.588 3.08q-.26 0-.472-.042a1.5 1.5 0 0 1-.318-.085l.279-.949q.318.086.565.074a.68.68 0 0 0 .437-.186q.194-.174.341-.569l.143-.395-2.175-6.022h1.239l1.505 4.614h.062l1.506-4.614h1.242l-2.45 6.738q-.17.465-.433.786a1.7 1.7 0 0 1-.627.488 2.1 2.1 0 0 1-.844.162m8.825-2.229v.983h-5.035v-.983zm3.33.12q-.879 0-1.514-.375a2.55 2.55 0 0 1-.975-1.065q-.34-.689-.341-1.614 0-.913.341-1.61.345-.696.96-1.087.62-.391 1.447-.391.504 0 .976.166.471.166.847.523.376.355.592.925.217.564.217 1.374v.41h-4.725v-.867h3.591q0-.457-.186-.809a1.4 1.4 0 0 0-.522-.561 1.46 1.46 0 0 0-.782-.205q-.488 0-.851.24-.36.236-.558.619a1.8 1.8 0 0 0-.193.824v.678q0 .595.209 1.014.213.417.592.638.38.217.886.217.33 0 .6-.093.272-.096.468-.286.198-.19.302-.469l1.096.198a2 2 0 0 1-.473.847q-.337.36-.847.562a3.2 3.2 0 0 1-1.157.197m6.06-.004q-.72 0-1.285-.368-.562-.37-.883-1.056-.317-.689-.317-1.653 0-.963.321-1.649.326-.685.89-1.048a2.3 2.3 0 0 1 1.281-.364q.554 0 .891.186.34.182.526.425.189.244.294.43h.07v-2.945h1.157v7.926h-1.13v-.925h-.097a3 3 0 0 1-.302.433 1.7 1.7 0 0 1-.534.426q-.34.182-.882.182m.255-.987q.5 0 .844-.263a1.63 1.63 0 0 0 .526-.739q.182-.472.182-1.099 0-.62-.178-1.084a1.6 1.6 0 0 0-.522-.724q-.345-.26-.852-.259-.523 0-.871.271-.348.27-.526.739a3 3 0 0 0-.174 1.057q0 .595.178 1.072.177.476.526.754.352.276.867.275m6.834 3.224q-.709 0-1.219-.186a2.3 2.3 0 0 1-.828-.491 2.1 2.1 0 0 1-.48-.67l.994-.41q.105.171.279.36.178.194.48.329.306.135.786.135.657 0 1.087-.321.43-.317.43-1.014v-1.169h-.074q-.104.19-.302.422a1.6 1.6 0 0 1-.534.403q-.34.17-.886.17-.705 0-1.269-.329a2.33 2.33 0 0 1-.891-.979q-.324-.65-.325-1.599 0-.948.321-1.625.326-.677.891-1.037a2.3 2.3 0 0 1 1.281-.364q.553 0 .894.186.34.182.53.425.193.244.298.43h.085v-.964h1.134v6.077q0 .766-.356 1.257a2.1 2.1 0 0 1-.964.728 3.7 3.7 0 0 1-1.362.236m-.012-3.402q.5 0 .844-.232.348-.236.527-.674.181-.441.181-1.056 0-.6-.178-1.057a1.56 1.56 0 0 0-.522-.712q-.345-.26-.852-.259-.522 0-.87.271a1.63 1.63 0 0 0-.527.727 2.9 2.9 0 0 0-.174 1.03q0 .584.178 1.026.178.44.526.688.352.249.867.248m6.808 1.169q-.878 0-1.513-.375a2.54 2.54 0 0 1-.975-1.065q-.34-.689-.341-1.614 0-.913.341-1.61.344-.696.96-1.087.618-.391 1.447-.391.503 0 .975.166.473.166.848.523.375.355.592.925.217.564.217 1.374v.41h-4.726v-.867h3.592q0-.457-.186-.809a1.4 1.4 0 0 0-.522-.561 1.46 1.46 0 0 0-.782-.205q-.487 0-.852.24-.36.236-.557.619a1.8 1.8 0 0 0-.194.824v.678q0 .595.209 1.014.213.417.593.638.378.217.886.217.328 0 .6-.093.27-.096.468-.286.197-.19.302-.469l1.095.198a2 2 0 0 1-.472.847q-.337.36-.847.562a3.2 3.2 0 0 1-1.158.197m8.081-.12v.983h-5.036v-.983zm3.596-5.945v.929h-3.359v-.929zm-2.438 5.945v-6.634q0-.557.244-.925.243-.371.646-.553a2.1 2.1 0 0 1 .875-.186q.348 0 .596.058.247.054.367.101l-.271.936-.209-.054a1.2 1.2 0 0 0-.309-.035q-.422 0-.604.209-.178.21-.178.604v6.479zm7.398-2.465v-3.48h1.161v5.945h-1.138v-1.03h-.062a1.86 1.86 0 0 1-.658.794q-.449.313-1.118.313-.573 0-1.014-.251a1.76 1.76 0 0 1-.689-.755q-.248-.499-.248-1.235v-3.781h1.157v3.642q0 .608.337.968.336.36.875.36.325 0 .646-.163.325-.162.538-.491.217-.33.213-.836m3.873-1.065v3.53h-1.157v-5.945h1.111v.968h.073a1.7 1.7 0 0 1 .643-.759q.441-.286 1.11-.286.608 0 1.065.255.456.252.708.751t.252 1.235v3.781h-1.158v-3.642q0-.647-.336-1.01-.337-.368-.925-.368-.403 0-.716.174a1.25 1.25 0 0 0-.492.511q-.178.333-.178.805m7.861 3.65q-.864 0-1.486-.391a2.6 2.6 0 0 1-.953-1.088q-.332-.692-.332-1.586 0-.906.34-1.599.34-.696.96-1.087t1.459-.391q.678 0 1.208.251.53.248.855.697.329.449.391 1.049h-1.126a1.35 1.35 0 0 0-.426-.72q-.329-.302-.883-.302-.484 0-.847.256-.36.25-.561.719-.202.464-.202 1.1 0 .65.198 1.122.197.473.557.731.365.26.855.26.33 0 .596-.12.272-.124.453-.352a1.3 1.3 0 0 0 .26-.55h1.126a2.2 2.2 0 0 1-.376 1.03 2.17 2.17 0 0 1-.839.712q-.523.26-1.227.259m6.454-6.065v.929h-3.247v-.929zm-2.376-1.424h1.157v5.623q0 .338.101.507a.52.52 0 0 0 .259.229q.163.058.352.058.14 0 .244-.019l.163-.031.209.956a2.243 2.243 0 0 1-.751.123 2 2 0 0 1-.852-.162 1.46 1.46 0 0 1-.638-.527q-.244-.355-.244-.894zm3.657 7.369v-5.945h1.157v5.945zm.584-6.862a.74.74 0 0 1-.519-.201.66.66 0 0 1-.213-.488q0-.286.213-.488a.73.73 0 0 1 .519-.205q.302 0 .515.205a.64.64 0 0 1 .216.488.65.65 0 0 1-.216.488.72.72 0 0 1-.515.201m4.634 6.982q-.837 0-1.459-.383a2.6 2.6 0 0 1-.968-1.072q-.345-.69-.344-1.61 0-.925.344-1.618.345-.693.968-1.076.622-.384 1.459-.383.835 0 1.459.383.623.383.967 1.076.345.693.345 1.618 0 .92-.345 1.61a2.6 2.6 0 0 1-.967 1.072q-.624.383-1.459.383m.004-.971q.541 0 .897-.287a1.7 1.7 0 0 0 .527-.762q.174-.477.174-1.049 0-.569-.174-1.045a1.7 1.7 0 0 0-.527-.77q-.356-.291-.897-.291-.546 0-.906.291-.356.29-.53.77a3.1 3.1 0 0 0-.171 1.045q0 .572.171 1.049.174.476.53.762.36.287.906.287m5.216-2.679v3.53h-1.157v-5.945h1.11v.968h.074q.206-.472.642-.759.442-.286 1.111-.286.608 0 1.064.255.457.252.709.751.25.499.251 1.235v3.781h-1.157v-3.642q0-.647-.337-1.01-.336-.368-.925-.368-.402 0-.716.174-.31.175-.491.511-.178.333-.178.805"/></g><path stroke="#e8e8e8" stroke-width=".991" d="M82.33 153.908v230.857"/><rect width="274.781" height="220.781" x="93.724" y="153.908" fill="#e8e8e8" rx="2.972"/><path fill="#e79127" d="M103.241 176.084q-.543 0-.815-.311a1.07 1.07 0 0 1-.272-.75v-.815q0-.35.065-.608.078-.26.181-.466.104-.207.233-.362.129-.168.246-.311.22-.258.297-.44a.9.9 0 0 0 .091-.401q0-.49-.453-.711-.453-.233-1.332-.233h-1.009v-.802h1.009q.879 0 1.332-.22.453-.233.453-.724a.85.85 0 0 0-.091-.388 1.7 1.7 0 0 0-.297-.453l-.246-.298a2.6 2.6 0 0 1-.233-.362 3 3 0 0 1-.181-.466 2.7 2.7 0 0 1-.065-.621v-.815q0-.453.272-.75.272-.31.815-.311h2.277v.803h-2.471v.996q0 .53.155.815.156.284.362.556.22.285.414.595.195.298.195.712 0 .543-.389.879-.375.337-1.035.427v.052q.66.09 1.035.427.389.336.389.88 0 .413-.195.724a9 9 0 0 1-.414.582 4.5 4.5 0 0 0-.362.556q-.155.285-.155.815v.997h2.471v.802zm195.464 126-4.502-11.618h.931l4.502 11.618zm4.342-7.775v-3.584h.983v3.584zm2.289 0v-3.584h.984v3.584zm-202.587 59.157q.544 0 .815.311.273.297.272.75v.815q0 .35-.077.621-.066.26-.169.466-.103.194-.233.362l-.245.298q-.22.258-.311.453a1 1 0 0 0-.077.388q0 .491.452.724.453.22 1.333.22h1.009v.802h-1.009q-.88 0-1.333.233-.452.22-.452.711 0 .207.077.401.091.182.311.44.116.143.245.311.13.155.233.362t.169.466q.077.258.077.608v.815q0 .453-.272.75-.271.31-.815.311h-2.276v-.802h2.471v-.997q0-.53-.156-.815a4.4 4.4 0 0 0-.362-.556 9 9 0 0 1-.414-.582 1.34 1.34 0 0 1-.194-.724q0-.544.375-.88.388-.336 1.048-.427v-.052q-.66-.09-1.048-.427-.375-.336-.375-.879 0-.415.194-.712.194-.31.414-.595a4.4 4.4 0 0 0 .362-.556q.156-.285.156-.815v-.996h-2.471v-.803z"/><path fill="#d4d4d4" d="M280.849 193.539h1.669l-1.488 3.583h-.866zm62.056 21h1.669l-1.488 3.583h-.867zm-54.299 63h1.669l-1.488 3.583h-.866z"/><path fill="#56ccf2" d="M116.879 189.309v-3.584h.983v3.584zm2.29 0v-3.584h.983v3.584zm4.484 5.989v-6.675h1.035v1.087h.052q.104-.246.258-.466.156-.233.376-.401a2 2 0 0 1 .543-.272q.31-.103.724-.103 1.049 0 1.682.672.634.66.634 1.876v4.282h-1.035v-4.101q0-.918-.401-1.358-.401-.453-1.177-.453-.31 0-.608.078a1.7 1.7 0 0 0-.531.233q-.233.155-.375.401a1.1 1.1 0 0 0-.142.569v4.631zm12.893 0q-.608 0-.867-.31a1.5 1.5 0 0 1-.323-.776h-.065a1.9 1.9 0 0 1-.712.918q-.478.324-1.293.324-1.048 0-1.669-.544-.621-.543-.621-1.487 0-.932.673-1.436.685-.505 2.199-.505h1.423v-.66q0-.737-.414-1.099-.414-.375-1.177-.376-.673 0-1.1.272-.426.26-.686.712l-.698-.518q.13-.258.349-.504.22-.246.544-.427.323-.195.737-.298.414-.116.918-.116 1.178 0 1.863.595.699.596.699 1.656v3.674h.931v.905zm-3.079-.711q.401 0 .724-.091.338-.103.582-.258.246-.169.376-.389a.93.93 0 0 0 .142-.491v-1.1h-1.423q-.932 0-1.358.259a.83.83 0 0 0-.427.75v.272q0 .518.362.789.375.26 1.022.259m5.131.711v-6.675h.957v.776h.052q.155-.388.44-.66.284-.271.84-.271.584 0 .867.297.285.285.35.751h.038q.182-.453.518-.751.336-.297.931-.297.816 0 1.087.569.285.569.285 1.63v4.631h-.958v-4.463q0-.853-.181-1.177-.168-.336-.634-.336-.414 0-.672.271-.26.26-.259.802v4.903h-.958v-4.463q0-.853-.181-1.177-.168-.336-.621-.336a.93.93 0 0 0-.685.271q-.26.26-.259.802v4.903zm11.056.156q-.725 0-1.307-.246a2.8 2.8 0 0 1-.983-.699 3.3 3.3 0 0 1-.621-1.099 4.4 4.4 0 0 1-.22-1.436q0-.803.22-1.449.232-.648.634-1.1.4-.466.957-.711a3.1 3.1 0 0 1 1.255-.246q.673 0 1.216.246.557.245.944.685.388.427.595 1.022t.207 1.307v.491h-4.941v.311q0 .44.142.815a1.9 1.9 0 0 0 .401.647q.272.271.647.427.387.142.854.142.672 0 1.164-.311a2 2 0 0 0 .75-.853l.763.517q-.297.673-.996 1.113-.685.427-1.681.427m-.065-6.132a1.97 1.97 0 0 0-1.423.582 2 2 0 0 0-.414.647 2.2 2.2 0 0 0-.142.802v.09h3.829v-.142q0-.44-.143-.802a1.7 1.7 0 0 0-.375-.621 1.5 1.5 0 0 0-.582-.414 1.9 1.9 0 0 0-.75-.142m6.075-.013v-3.584h.983v3.584zm2.29 0v-3.584h.983v3.584zm7.097 6.106q-.531 0-.75-.22a.78.78 0 0 1-.207-.556v-.233a.78.78 0 0 1 .207-.557q.219-.219.75-.219.53 0 .737.219.22.22.22.557v.233a.75.75 0 0 1-.22.556q-.207.22-.737.22m0-5.123q-.531 0-.75-.22a.78.78 0 0 1-.207-.556v-.233q0-.336.207-.557.219-.219.75-.219.53 0 .737.219.22.22.22.557v.233a.75.75 0 0 1-.22.556q-.207.22-.737.22m-48.172 20.017v-3.584h.983v3.584zm2.29 0v-3.584h.983v3.584zm7.214 6.145q-.725 0-1.307-.246a2.85 2.85 0 0 1-.983-.699 3.3 3.3 0 0 1-.621-1.099 4.4 4.4 0 0 1-.22-1.436q0-.803.22-1.449.232-.648.634-1.1.4-.466.957-.711.57-.246 1.255-.246.672 0 1.216.246.557.245.944.685.388.427.595 1.022t.207 1.307v.491h-4.941v.311q0 .44.142.815a1.9 1.9 0 0 0 .401.647q.272.271.647.427.388.142.854.142.672 0 1.164-.311a2 2 0 0 0 .75-.853l.764.517q-.298.673-.997 1.113-.685.427-1.681.427m-.065-6.132a1.97 1.97 0 0 0-1.423.582 2 2 0 0 0-.414.647 2.2 2.2 0 0 0-.142.802v.09h3.829v-.142q0-.44-.142-.802a1.7 1.7 0 0 0-.376-.621 1.5 1.5 0 0 0-.582-.414 1.9 1.9 0 0 0-.75-.142m5.092 5.976v-6.675h1.035v1.087h.052q.103-.246.258-.466.156-.233.376-.401a2 2 0 0 1 .543-.272q.31-.103.724-.103 1.048 0 1.682.672.634.66.634 1.876v4.282h-1.035v-4.101q0-.918-.401-1.358-.401-.453-1.177-.453-.31 0-.608.078a1.7 1.7 0 0 0-.531.233q-.233.155-.375.401a1.1 1.1 0 0 0-.142.569v4.631zm10.694 0q-.763 0-1.126-.427-.35-.427-.349-1.099v-4.269h-2.225v-.88h1.656q.336 0 .465-.129.143-.143.143-.479v-1.746h.996v2.354h3.04v.88h-3.04v4.916h3.04v.879zm4.548-.879h1.954v-4.916h-1.954v-.88h2.989v1.682h.064q.207-.79.776-1.229.583-.453 1.475-.453h.932v1.035h-1.255q-.893 0-1.449.517-.543.518-.543 1.359v2.885h2.587v.879h-5.576zm12.803-5.796h1.034l-3.311 8.137q-.117.285-.259.492a1.2 1.2 0 0 1-.336.349q-.195.142-.466.207a2.4 2.4 0 0 1-.647.078h-.983v-.88h1.552l.751-1.837-2.691-6.546h1.061l1.125 2.794.996 2.536h.052l.996-2.536zm2.944 0h1.035v1.087h.052q.647-1.242 2.057-1.242 1.228 0 1.914.918.699.92.699 2.575t-.699 2.574q-.685.919-1.914.919-1.41 0-2.057-1.242h-.052v3.674h-1.035zm2.743 5.912q.905 0 1.397-.543.504-.556.504-1.462v-1.139q0-.905-.504-1.448-.492-.557-1.397-.557-.35 0-.66.091-.31.09-.544.271-.233.17-.375.427a1.24 1.24 0 0 0-.129.583v2.406q0 .336.129.595.142.246.375.427.234.168.544.259.31.09.66.09m7.666.919q-.698 0-1.268-.246a2.74 2.74 0 0 1-.957-.699 3.3 3.3 0 0 1-.595-1.099 4.8 4.8 0 0 1-.207-1.449q0-.79.207-1.436.207-.648.595-1.1.4-.466.957-.711.57-.246 1.268-.246t1.255.246q.569.245.957.711.401.452.608 1.1.207.647.207 1.436 0 .801-.207 1.449a3.2 3.2 0 0 1-.608 1.099 2.6 2.6 0 0 1-.957.699 3.1 3.1 0 0 1-1.255.246m0-.893q.867 0 1.397-.518.531-.516.531-1.604v-.957q0-1.086-.531-1.604-.53-.518-1.397-.518t-1.397.518q-.531.518-.531 1.604v.957q0 1.088.531 1.604.53.518 1.397.518m8.171-7.413q-.453 0-.634-.181a.67.67 0 0 1-.181-.479v-.207q0-.284.181-.465.181-.195.634-.194.453 0 .634.194.181.18.181.465v.207q0 .285-.181.479-.181.181-.634.181m-2.924 7.271h2.406v-4.916h-2.406v-.88h3.441v5.796h2.251v.879h-5.692zm7.654.879v-6.675h1.035v1.087h.051q.104-.246.259-.466.156-.233.375-.401.234-.168.544-.272.31-.103.724-.103 1.048 0 1.682.672.633.66.634 1.876v4.282h-1.035v-4.101q0-.918-.401-1.358-.402-.453-1.177-.453-.31 0-.608.078a1.7 1.7 0 0 0-.531.233q-.232.155-.375.401a1.1 1.1 0 0 0-.142.569v4.631zm10.693 0q-.763 0-1.125-.427-.35-.427-.349-1.099v-4.269h-2.226v-.88h1.656q.337 0 .466-.129.142-.143.142-.479v-1.746h.997v2.354h3.04v.88h-3.04v4.916h3.04v.879zm4.329 2.187v-.958h6.21v.958zm8.21-8.862h1.035v1.087h.052q.646-1.242 2.056-1.242 1.23 0 1.915.918.699.92.699 2.575t-.699 2.574q-.685.919-1.915.919-1.41 0-2.056-1.242h-.052v3.674h-1.035zm2.742 5.912q.906 0 1.398-.543.504-.556.504-1.462v-1.139q0-.905-.504-1.448-.492-.557-1.398-.557-.348 0-.659.091-.31.09-.544.271-.233.17-.375.427a1.24 1.24 0 0 0-.129.583v2.406q0 .336.129.595.142.246.375.427.234.168.544.259.31.09.659.09m10.19.763q-.609 0-.867-.31a1.5 1.5 0 0 1-.324-.776h-.064a1.9 1.9 0 0 1-.712.918q-.478.324-1.294.324-1.047 0-1.668-.544-.621-.543-.621-1.487 0-.932.672-1.436.686-.505 2.2-.505h1.423v-.66q0-.737-.414-1.099-.414-.375-1.178-.376-.673 0-1.099.272-.427.26-.686.712l-.698-.518q.129-.258.349-.504t.543-.427q.324-.195.738-.298.414-.116.918-.116 1.178 0 1.863.595.699.596.699 1.656v3.674h.931v.905zm-3.079-.711q.4 0 .724-.091.336-.103.582-.258.246-.169.375-.389a.93.93 0 0 0 .143-.491v-1.1h-1.423q-.932 0-1.359.259a.83.83 0 0 0-.427.75v.272q0 .518.363.789.375.26 1.022.259m8.636.711q-.763 0-1.125-.427-.35-.427-.35-1.099v-4.269h-2.225v-.88h1.656q.337 0 .466-.129.142-.143.142-.479v-1.746h.996v2.354h3.041v.88h-3.041v4.916h3.041v.879zm4.821-9.573h1.035v3.985h.051q.103-.246.259-.466.155-.233.375-.401.233-.168.543-.272.31-.103.725-.103 1.048 0 1.682.672.634.66.634 1.876v4.282h-1.035v-4.101q0-.918-.401-1.358-.402-.453-1.178-.453-.31 0-.608.078a1.7 1.7 0 0 0-.53.233q-.233.155-.375.401a1.1 1.1 0 0 0-.142.569v4.631h-1.035zm8.74 3.584v-3.584h.983v3.584zm2.29 0v-3.584h.983v3.584zm7.097 6.106q-.53 0-.751-.22a.78.78 0 0 1-.207-.556v-.233a.78.78 0 0 1 .207-.557q.22-.219.751-.219.53 0 .737.219.22.22.22.557v.233a.75.75 0 0 1-.22.556q-.207.22-.737.22m0-5.123q-.53 0-.751-.22a.78.78 0 0 1-.207-.556v-.233q0-.336.207-.557.22-.219.751-.219.53 0 .737.219.22.22.22.557v.233a.75.75 0 0 1-.22.556q-.207.22-.737.22m-133.499 20.017v-3.584h.983v3.584zm2.29 0v-3.584h.983v3.584zm4.29 5.11h2.251v-4.916h-2.38v-.88h2.38v-1.371q0-.673.349-1.1.363-.427 1.126-.427h2.238v.88h-2.678v2.018h2.678v.88h-2.678v4.916h2.38v.879h-5.666zm10.978-7.271q-.453 0-.634-.181a.67.67 0 0 1-.181-.479v-.207q0-.284.181-.465.181-.195.634-.194.453 0 .634.194.181.18.181.465v.207q0 .285-.181.479-.181.181-.634.181m-2.924 7.271h2.407v-4.916h-2.407v-.88h3.442v5.796h2.251v.879h-5.693zm7.421 0h2.329v-7.814h-2.329v-.88h3.364v8.694h2.328v.879h-5.692zm10.72 1.035q-.725 0-1.307-.246a2.8 2.8 0 0 1-.983-.699 3.3 3.3 0 0 1-.621-1.099 4.4 4.4 0 0 1-.22-1.436q0-.803.22-1.449.232-.648.634-1.1.4-.466.957-.711a3.1 3.1 0 0 1 1.255-.246q.673 0 1.216.246.557.245.944.685.388.427.595 1.022t.207 1.307v.491h-4.941v.311q0 .44.142.815a1.9 1.9 0 0 0 .401.647q.272.271.647.427.387.142.854.142.672 0 1.164-.311a2 2 0 0 0 .75-.853l.763.517q-.297.673-.996 1.113-.685.427-1.681.427m-.065-6.132a1.97 1.97 0 0 0-1.423.582 2 2 0 0 0-.414.647 2.2 2.2 0 0 0-.142.802v.09h3.829v-.142q0-.44-.143-.802a1.7 1.7 0 0 0-.375-.621 1.5 1.5 0 0 0-.582-.414 1.9 1.9 0 0 0-.75-.142m7.783 6.132q-1.049 0-1.811-.35a4 4 0 0 1-1.281-.957l.698-.608q.48.504 1.048.776.57.272 1.372.272.776 0 1.267-.272.505-.285.505-.88a.8.8 0 0 0-.104-.426.7.7 0 0 0-.258-.285 1.3 1.3 0 0 0-.375-.155 3 3 0 0 0-.44-.104l-1.048-.155a12 12 0 0 1-.763-.142 2.7 2.7 0 0 1-.738-.285 1.9 1.9 0 0 1-.569-.543q-.22-.337-.22-.88 0-.504.194-.867a1.8 1.8 0 0 1 .569-.621q.363-.258.854-.375a4.2 4.2 0 0 1 1.074-.129q.906 0 1.565.284.673.285 1.152.79l-.673.633a2 2 0 0 0-.298-.284 1.6 1.6 0 0 0-.427-.272 2.4 2.4 0 0 0-.582-.207 3.5 3.5 0 0 0-.776-.077q-.789 0-1.216.271-.414.272-.414.789 0 .259.091.44a.8.8 0 0 0 .271.272q.168.104.375.168.22.052.44.091l1.048.155q.363.052.763.142.402.09.738.298.336.194.556.53.233.337.233.88 0 .996-.776 1.539-.763.544-2.044.544m6.049-6.145v-3.584h.983v3.584zm2.29 0v-3.584h.983v3.584zm7.097 6.106q-.531 0-.75-.22a.78.78 0 0 1-.207-.556v-.233a.78.78 0 0 1 .207-.557q.219-.219.75-.219.53 0 .737.219.22.22.22.557v.233a.75.75 0 0 1-.22.556q-.207.22-.737.22m0-5.123q-.531 0-.75-.22a.78.78 0 0 1-.207-.556v-.233q0-.336.207-.557.219-.219.75-.219.53 0 .737.219.22.22.22.557v.233a.75.75 0 0 1-.22.556q-.207.22-.737.22m-24.901 41.017v-3.584h.983v3.584zm2.29 0v-3.584h.983v3.584zm4.484 5.989v-6.675h1.035v1.087h.052q.103-.246.258-.466.156-.233.375-.401.234-.168.544-.272.31-.103.724-.103 1.048 0 1.682.672.634.66.634 1.876v4.282h-1.035v-4.101q0-.918-.401-1.358-.401-.453-1.177-.453-.31 0-.608.078a1.7 1.7 0 0 0-.531.233q-.232.155-.375.401a1.1 1.1 0 0 0-.142.569v4.631zm12.893 0q-.609 0-.867-.31a1.5 1.5 0 0 1-.323-.776h-.065a1.9 1.9 0 0 1-.712.918q-.478.324-1.293.324-1.048 0-1.669-.544-.621-.543-.621-1.487 0-.932.673-1.436.685-.505 2.199-.505h1.423v-.66q0-.737-.414-1.099-.415-.375-1.177-.376-.673 0-1.1.272-.427.26-.686.712l-.698-.518q.129-.258.349-.504t.543-.427q.324-.195.738-.298.414-.116.918-.116 1.178 0 1.863.595.699.596.699 1.656v3.674h.931v.905zm-3.079-.711q.401 0 .724-.091.337-.103.582-.258.246-.169.376-.389a.93.93 0 0 0 .142-.491v-1.1h-1.423q-.931 0-1.359.259a.83.83 0 0 0-.426.75v.272q0 .518.362.789.375.26 1.022.259m5.131.711v-6.675h.957v.776h.052q.155-.388.439-.66.285-.271.841-.271.582 0 .867.297.285.285.349.751h.039q.181-.453.518-.751.336-.297.931-.297.815 0 1.087.569.284.569.284 1.63v4.631h-.957v-4.463q0-.853-.181-1.177-.168-.336-.634-.336-.414 0-.673.271-.258.26-.258.802v4.903h-.958v-4.463q0-.853-.181-1.177-.168-.336-.621-.336a.93.93 0 0 0-.685.271q-.26.26-.259.802v4.903zm11.055.156q-.724 0-1.306-.246a2.8 2.8 0 0 1-.983-.699 3.3 3.3 0 0 1-.621-1.099 4.4 4.4 0 0 1-.22-1.436q0-.803.22-1.449.232-.648.634-1.1.4-.466.957-.711a3.1 3.1 0 0 1 1.255-.246q.673 0 1.216.246.556.245.944.685.388.427.595 1.022t.207 1.307v.491h-4.942v.311q0 .44.143.815a1.9 1.9 0 0 0 .401.647q.271.271.647.427.388.142.853.142.673 0 1.165-.311.491-.31.75-.853l.763.517q-.297.673-.996 1.113-.685.427-1.682.427m-.064-6.132a1.97 1.97 0 0 0-1.423.582 2 2 0 0 0-.414.647 2.2 2.2 0 0 0-.143.802v.09h3.83v-.142q0-.44-.143-.802a1.7 1.7 0 0 0-.375-.621 1.5 1.5 0 0 0-.582-.414 1.9 1.9 0 0 0-.75-.142m6.075-.013v-3.584h.983v3.584zm2.29 0v-3.584h.983v3.584zm7.097 6.106q-.531 0-.75-.22a.78.78 0 0 1-.207-.556v-.233a.78.78 0 0 1 .207-.557q.219-.219.75-.219.53 0 .737.219.22.22.22.557v.233a.75.75 0 0 1-.22.556q-.207.22-.737.22m0-5.123q-.531 0-.75-.22a.78.78 0 0 1-.207-.556v-.233q0-.336.207-.557.219-.219.75-.219.53 0 .737.219.22.22.22.557v.233a.75.75 0 0 1-.22.556q-.207.22-.737.22m-48.172 20.017v-3.584h.983v3.584zm2.29 0v-3.584h.983v3.584zm7.33 6.145q-.724 0-1.294-.246a2.8 2.8 0 0 1-.944-.712 3.1 3.1 0 0 1-.595-1.099 5 5 0 0 1-.194-1.436q0-.79.207-1.436.207-.648.595-1.1.388-.466.944-.711a3.1 3.1 0 0 1 1.268-.246q.97 0 1.578.427.609.426.893 1.112l-.828.44a1.55 1.55 0 0 0-.608-.802q-.414-.285-1.035-.285-.453 0-.815.156a1.6 1.6 0 0 0-.595.414 1.8 1.8 0 0 0-.375.646 2.7 2.7 0 0 0-.117.815v1.139q0 .44.117.815.129.375.375.647.245.271.608.427.362.142.828.142.672 0 1.112-.311a2.14 2.14 0 0 0 .699-.853l.737.504q-.297.674-.931 1.113-.62.44-1.63.44m7.524 0q-.699 0-1.268-.246a2.74 2.74 0 0 1-.957-.699 3.3 3.3 0 0 1-.595-1.099 4.8 4.8 0 0 1-.207-1.449q0-.79.207-1.436.207-.648.595-1.1.4-.466.957-.711.57-.246 1.268-.246t1.255.246q.569.245.957.711.401.452.608 1.1.207.647.207 1.436 0 .801-.207 1.449a3.2 3.2 0 0 1-.608 1.099 2.6 2.6 0 0 1-.957.699 3.1 3.1 0 0 1-1.255.246m0-.893q.867 0 1.397-.518.531-.516.531-1.604v-.957q0-1.086-.531-1.604-.53-.518-1.397-.518t-1.397.518q-.531.518-.531 1.604v.957q0 1.088.531 1.604.53.518 1.397.518m5.144.737v-6.675h1.035v1.087h.051q.104-.246.259-.466.156-.233.375-.401.234-.168.544-.272.31-.103.724-.103 1.048 0 1.682.672.634.66.634 1.876v4.282h-1.035v-4.101q0-.918-.401-1.358-.401-.453-1.177-.453-.31 0-.608.078a1.7 1.7 0 0 0-.531.233q-.232.155-.375.401a1.1 1.1 0 0 0-.142.569v4.631zm10.693 0q-.763 0-1.125-.427-.35-.427-.349-1.099v-4.269h-2.225v-.88h1.655q.337 0 .466-.129.142-.143.142-.479v-1.746h.997v2.354h3.04v.88h-3.04v4.916h3.04v.879zm7.55.156q-.724 0-1.306-.246a2.8 2.8 0 0 1-.983-.699 3.3 3.3 0 0 1-.621-1.099 4.4 4.4 0 0 1-.22-1.436q0-.803.22-1.449.232-.648.634-1.1.4-.466.957-.711a3.1 3.1 0 0 1 1.255-.246q.672 0 1.216.246.556.245.944.685.388.427.595 1.022t.207 1.307v.491h-4.942v.311q0 .44.143.815a1.9 1.9 0 0 0 .401.647q.271.271.647.427.387.142.853.142.673 0 1.165-.311.491-.31.75-.853l.763.517q-.297.673-.996 1.113-.686.427-1.682.427m-.064-6.132a1.97 1.97 0 0 0-1.423.582 2 2 0 0 0-.414.647 2.2 2.2 0 0 0-.143.802v.09h3.83v-.142q0-.44-.143-.802a1.7 1.7 0 0 0-.375-.621 1.5 1.5 0 0 0-.582-.414 1.9 1.9 0 0 0-.75-.142m5.092 5.976v-6.675h1.035v1.087h.051q.104-.246.259-.466.156-.233.375-.401.234-.168.544-.272.31-.103.724-.103 1.048 0 1.682.672.633.66.634 1.876v4.282h-1.035v-4.101q0-.918-.401-1.358-.402-.453-1.177-.453-.31 0-.608.078a1.7 1.7 0 0 0-.531.233q-.233.155-.375.401a1.1 1.1 0 0 0-.142.569v4.631zm10.693 0q-.763 0-1.125-.427-.35-.427-.349-1.099v-4.269h-2.226v-.88h1.656q.337 0 .466-.129.142-.143.142-.479v-1.746h.996v2.354h3.041v.88h-3.041v4.916h3.041v.879zm5.804-5.989v-3.584h.983v3.584zm2.29 0v-3.584h.983v3.584zm7.097 6.106q-.531 0-.75-.22a.78.78 0 0 1-.207-.556v-.233a.78.78 0 0 1 .207-.557q.219-.219.75-.219.53 0 .737.219.22.22.22.557v.233a.75.75 0 0 1-.22.556q-.207.22-.737.22m0-5.123q-.531 0-.75-.22a.78.78 0 0 1-.207-.556v-.233q0-.336.207-.557.219-.219.75-.219.53 0 .737.219.22.22.22.557v.233a.75.75 0 0 1-.22.556q-.207.22-.737.22"/><path fill="#ea663e" d="M178.935 189.309v-3.584h.983v3.584zm2.29 0v-3.584h.983v3.584zm4.484-3.584h1.035v3.985h.051q.104-.246.259-.466.156-.233.375-.401.234-.168.544-.272.31-.103.724-.103 1.048 0 1.682.672.633.66.634 1.876v4.282h-1.035v-4.101q0-.918-.401-1.358-.402-.453-1.177-.453-.31 0-.608.078a1.7 1.7 0 0 0-.531.233q-.232.155-.375.401a1.1 1.1 0 0 0-.142.569v4.631h-1.035zm10.486 9.729q-.724 0-1.306-.246a2.8 2.8 0 0 1-.983-.699 3.3 3.3 0 0 1-.621-1.099 4.4 4.4 0 0 1-.22-1.436q0-.803.22-1.449.232-.648.634-1.1.4-.466.957-.711a3.1 3.1 0 0 1 1.255-.246q.673 0 1.216.246.556.245.944.685.388.427.595 1.022t.207 1.307v.491h-4.942v.311q0 .44.143.815a1.9 1.9 0 0 0 .401.647q.271.271.647.427.388.142.853.142.673 0 1.165-.311.491-.31.75-.853l.763.517q-.297.673-.996 1.113-.686.427-1.682.427m-.064-6.132a1.97 1.97 0 0 0-1.423.582 2 2 0 0 0-.414.647 2.2 2.2 0 0 0-.143.802v.09h3.83v-.142q0-.44-.143-.802a1.7 1.7 0 0 0-.375-.621 1.5 1.5 0 0 0-.582-.414 1.9 1.9 0 0 0-.75-.142m4.859 5.097h2.328v-7.814h-2.328v-.88h3.363v8.694h2.329v.879h-5.692zm7.757 0h2.328v-7.814h-2.328v-.88h3.363v8.694h2.329v.879h-5.692zm10.603 1.035q-.699 0-1.268-.246a2.74 2.74 0 0 1-.957-.699 3.3 3.3 0 0 1-.595-1.099 4.8 4.8 0 0 1-.207-1.449q0-.79.207-1.436.207-.648.595-1.1.4-.466.957-.711.57-.246 1.268-.246t1.255.246q.569.245.957.711.4.452.608 1.1.207.647.207 1.436 0 .801-.207 1.449a3.2 3.2 0 0 1-.608 1.099 2.6 2.6 0 0 1-.957.699 3.1 3.1 0 0 1-1.255.246m0-.893q.867 0 1.397-.518.53-.516.53-1.604v-.957q0-1.086-.53-1.604t-1.397-.518-1.397.518q-.531.518-.531 1.604v.957q0 1.088.531 1.604.53.518 1.397.518m5.881-2.652v-1.087h3.752v1.087zm6.14-3.286h.918l.764 5.77h.116l1.139-5.77h1.138l1.138 5.77h.117l.763-5.77h.893l-1.022 6.675h-1.346l-1.061-5.588h-.103l-1.087 5.588h-1.345zm11.25 6.831q-.7 0-1.268-.246a2.74 2.74 0 0 1-.957-.699 3.3 3.3 0 0 1-.595-1.099 4.8 4.8 0 0 1-.207-1.449q0-.79.207-1.436.207-.648.595-1.1.4-.466.957-.711a3.2 3.2 0 0 1 1.268-.246q.698 0 1.255.246.569.245.957.711.4.452.608 1.1.207.647.207 1.436 0 .801-.207 1.449a3.2 3.2 0 0 1-.608 1.099 2.6 2.6 0 0 1-.957.699q-.557.246-1.255.246m0-.893q.867 0 1.397-.518.53-.516.53-1.604v-.957q0-1.086-.53-1.604t-1.397-.518-1.397.518-.531 1.604v.957q0 1.088.531 1.604.53.518 1.397.518m4.872-.142h1.953v-4.916h-1.953v-.88h2.988v1.682h.065q.207-.79.776-1.229.582-.453 1.475-.453h.931v1.035h-1.255q-.893 0-1.448.517-.544.518-.544 1.359v2.885h2.588v.879h-5.576zm7.796 0h2.328v-7.814h-2.328v-.88h3.363v8.694h2.329v.879h-5.692zm12.22-.207h-.052q-.647 1.242-2.057 1.242-1.229 0-1.927-.919-.687-.918-.686-2.574 0-1.656.686-2.575.698-.918 1.927-.918 1.41 0 2.057 1.242h.052v-3.985h1.035v9.573h-1.035zm-1.708.323q.35 0 .66-.09.31-.091.543-.259.233-.181.362-.427.143-.26.143-.595v-2.406q0-.337-.143-.583a1.2 1.2 0 0 0-.362-.427 1.6 1.6 0 0 0-.543-.271 2.3 2.3 0 0 0-.66-.091q-.906 0-1.41.557-.492.543-.492 1.448v1.139q0 .906.492 1.462.504.543 1.41.543m6.218-5.226v-3.584h.983v3.584zm2.289 0v-3.584h.984v3.584zm-10.046 21v-3.584h.983v3.584zm2.289 0v-3.584h.984v3.584zm7.512-2.161q-.454 0-.634-.181a.67.67 0 0 1-.181-.479v-.207q0-.284.181-.465.18-.195.634-.194.452 0 .634.194.18.18.181.465v.207q0 .285-.181.479-.182.181-.634.181m-2.924 7.271h2.406v-4.916h-2.406v-.88h3.441v5.796h2.251v.879h-5.692zm7.653.879v-6.675h1.035v1.087h.052q.103-.246.259-.466.155-.233.375-.401a2 2 0 0 1 .543-.272q.31-.103.725-.103 1.047 0 1.682.672.633.66.633 1.876v4.282h-1.034v-4.101q0-.918-.402-1.358-.4-.453-1.177-.453-.31 0-.608.078a1.7 1.7 0 0 0-.53.233q-.232.155-.375.401a1.1 1.1 0 0 0-.143.569v4.631zm11.988-1.086h-.052q-.647 1.242-2.057 1.242-1.229 0-1.928-.919-.685-.918-.685-2.574t.685-2.575q.7-.918 1.928-.918 1.41 0 2.057 1.242h.052v-3.985h1.035v9.573h-1.035zm-1.708.323q.35 0 .66-.09.31-.091.543-.259.233-.181.362-.427.143-.26.143-.595v-2.406q0-.337-.143-.583a1.2 1.2 0 0 0-.362-.427 1.6 1.6 0 0 0-.543-.271 2.3 2.3 0 0 0-.66-.091q-.906 0-1.41.557-.492.543-.492 1.448v1.139q0 .906.492 1.462.504.543 1.41.543m7.964.919q-.725 0-1.307-.246a2.85 2.85 0 0 1-.983-.699 3.4 3.4 0 0 1-.621-1.099 4.5 4.5 0 0 1-.22-1.436q0-.803.22-1.449.233-.648.634-1.1.401-.466.957-.711.57-.246 1.255-.246.673 0 1.216.246.556.245.945.685.387.427.595 1.022t.207 1.307v.491h-4.942v.311q0 .44.142.815.143.375.401.647.272.271.647.427.389.142.854.142.673 0 1.164-.311.492-.31.751-.853l.763.517q-.298.673-.996 1.113-.686.427-1.682.427m-.065-6.132a1.98 1.98 0 0 0-1.423.582q-.258.271-.414.647a2.2 2.2 0 0 0-.142.802v.09h3.829v-.142q0-.44-.142-.802a1.7 1.7 0 0 0-.375-.621 1.5 1.5 0 0 0-.582-.414 1.9 1.9 0 0 0-.751-.142m4.614 5.976 2.484-3.389-2.42-3.286h1.242l1.009 1.41.802 1.113h.052l.776-1.113.996-1.41h1.191l-2.445 3.273 2.509 3.402h-1.242l-1.125-1.565-.763-1.061h-.052l-.737 1.061-1.087 1.565zm10.849.117q-.53 0-.751-.22a.78.78 0 0 1-.207-.556v-.233a.78.78 0 0 1 .207-.557q.22-.219.751-.219.53 0 .737.219.22.22.22.557v.233a.75.75 0 0 1-.22.556q-.207.22-.737.22m8.08-.117q-.763 0-1.126-.427-.349-.427-.349-1.099v-4.269h-2.225v-.88h1.656q.336 0 .466-.129.142-.143.142-.479v-1.746h.996v2.354h3.04v.88h-3.04v4.916h3.04v.879zm7.511.156q-1.048 0-1.811-.35-.75-.362-1.281-.957l.699-.608q.478.504 1.048.776.569.272 1.371.272.776 0 1.268-.272.504-.285.504-.88a.8.8 0 0 0-.103-.426.7.7 0 0 0-.259-.285 1.3 1.3 0 0 0-.375-.155 3 3 0 0 0-.44-.104l-1.048-.155a12 12 0 0 1-.763-.142 2.7 2.7 0 0 1-.737-.285 1.9 1.9 0 0 1-.57-.543q-.22-.337-.22-.88 0-.504.194-.867.207-.375.57-.621.362-.258.853-.375a4.2 4.2 0 0 1 1.074-.129q.906 0 1.566.284.672.285 1.151.79l-.673.633a2 2 0 0 0-.297-.284 1.6 1.6 0 0 0-.427-.272 2.4 2.4 0 0 0-.582-.207 3.5 3.5 0 0 0-.777-.077q-.789 0-1.216.271-.414.272-.414.789a1 1 0 0 0 .091.44.8.8 0 0 0 .272.272q.168.104.375.168.22.052.44.091l1.047.155q.363.052.764.142.4.09.737.298.337.194.556.53.233.337.233.88 0 .996-.776 1.539-.763.544-2.044.544m6.049-6.145v-3.584h.984v3.584zm2.29 0v-3.584h.983v3.584zm-126.401 63v-3.584h.983v3.584zm2.29 0v-3.584h.983v3.584zm7.511-2.161q-.453 0-.634-.181a.67.67 0 0 1-.181-.479v-.207q0-.284.181-.465.181-.195.634-.194.453 0 .634.194.18.18.181.465v.207q0 .285-.181.479-.181.181-.634.181m-2.924 7.271h2.406v-4.916h-2.406v-.88h3.441v5.796h2.251v.879h-5.692zm7.654.879v-6.675h1.035v1.087h.051q.104-.246.259-.466.156-.233.375-.401.233-.168.544-.272.31-.103.724-.103 1.048 0 1.682.672.633.66.634 1.876v4.282h-1.035v-4.101q0-.918-.401-1.358-.401-.453-1.178-.453-.31 0-.608.078a1.7 1.7 0 0 0-.53.233q-.232.155-.375.401a1.1 1.1 0 0 0-.142.569v4.631zm11.987-1.086h-.052q-.647 1.242-2.057 1.242-1.229 0-1.927-.919-.686-.918-.686-2.574t.686-2.575q.698-.918 1.927-.918 1.41 0 2.057 1.242h.052v-3.985h1.035v9.573h-1.035zm-1.708.323q.35 0 .66-.09.31-.091.543-.259.233-.181.363-.427.142-.26.142-.595v-2.406q0-.337-.142-.583a1.2 1.2 0 0 0-.363-.427 1.6 1.6 0 0 0-.543-.271 2.3 2.3 0 0 0-.66-.091q-.905 0-1.41.557-.491.543-.491 1.448v1.139q0 .906.491 1.462.505.543 1.41.543m7.964.919q-.724 0-1.306-.246a2.84 2.84 0 0 1-.984-.699 3.4 3.4 0 0 1-.621-1.099 4.5 4.5 0 0 1-.219-1.436 4.5 4.5 0 0 1 .219-1.449q.234-.648.634-1.1.402-.466.958-.711a3.1 3.1 0 0 1 1.255-.246q.672 0 1.216.246.555.245.944.685.388.427.595 1.022t.207 1.307v.491h-4.942v.311q0 .44.142.815t.402.647q.271.271.646.427.389.142.854.142.674 0 1.164-.311.492-.31.751-.853l.763.517q-.297.673-.996 1.113-.686.427-1.682.427m-.064-6.132a1.98 1.98 0 0 0-1.424.582q-.258.271-.414.647a2.2 2.2 0 0 0-.142.802v.09h3.829v-.142q0-.44-.142-.802a1.7 1.7 0 0 0-.375-.621 1.5 1.5 0 0 0-.582-.414 1.9 1.9 0 0 0-.75-.142m4.613 5.976 2.484-3.389-2.419-3.286h1.241l1.01 1.41.802 1.113h.051l.777-1.113.996-1.41h1.19l-2.445 3.273 2.51 3.402h-1.242l-1.126-1.565-.763-1.061h-.052l-.737 1.061-1.087 1.565zm10.849.117q-.53 0-.751-.22a.78.78 0 0 1-.207-.556v-.233a.78.78 0 0 1 .207-.557q.22-.219.751-.219.53 0 .737.219.22.22.22.557v.233a.75.75 0 0 1-.22.556q-.207.22-.737.22m8.08-.117q-.763 0-1.125-.427-.35-.427-.35-1.099v-4.269h-2.225v-.88h1.656q.337 0 .466-.129.142-.143.142-.479v-1.746h.996v2.354h3.04v.88h-3.04v4.916h3.04v.879zm7.511.156q-1.047 0-1.811-.35-.75-.362-1.281-.957l.699-.608q.478.504 1.048.776.569.272 1.371.272.776 0 1.268-.272.504-.285.504-.88a.8.8 0 0 0-.103-.426.7.7 0 0 0-.259-.285 1.3 1.3 0 0 0-.375-.155 3 3 0 0 0-.44-.104l-1.048-.155a12 12 0 0 1-.763-.142 2.7 2.7 0 0 1-.737-.285 1.9 1.9 0 0 1-.57-.543q-.219-.337-.219-.88 0-.504.194-.867a1.8 1.8 0 0 1 .569-.621q.362-.258.854-.375a4.2 4.2 0 0 1 1.073-.129q.906 0 1.566.284.672.285 1.151.79l-.673.633a2 2 0 0 0-.297-.284 1.6 1.6 0 0 0-.427-.272 2.4 2.4 0 0 0-.582-.207 3.5 3.5 0 0 0-.776-.077q-.79 0-1.216.271-.414.272-.414.789 0 .259.09.44.104.168.272.272.168.103.375.168.22.052.44.091l1.048.155q.362.051.763.142.4.09.737.298.337.194.557.53.232.337.232.88 0 .996-.776 1.539-.763.544-2.044.544m6.05-6.145v-3.584h.983v3.584zm2.289 0v-3.584h.984v3.584zm-48.831 21v-3.584h.983v3.584zm2.29 0v-3.584h.983v3.584zm7.511-2.161q-.453 0-.634-.181a.67.67 0 0 1-.181-.479v-.207q0-.284.181-.465.181-.195.634-.194.453 0 .634.194.18.18.181.465v.207q0 .285-.181.479-.181.181-.634.181m-2.924 7.271h2.406v-4.916h-2.406v-.88h3.441v5.796h2.251v.879h-5.692zm7.084.879v-6.675h.958v.776h.051q.156-.388.44-.66.285-.271.841-.271.582 0 .867.297.285.285.349.751h.039a1.96 1.96 0 0 1 .517-.751q.337-.297.932-.297.814 0 1.087.569.284.569.284 1.63v4.631h-.957v-4.463q0-.853-.181-1.177-.168-.336-.634-.336-.414 0-.673.271-.258.26-.259.802v4.903h-.957v-4.463q0-.853-.181-1.177-.168-.336-.621-.336a.93.93 0 0 0-.686.271q-.258.26-.258.802v4.903zm8.288-6.675h1.035v1.087h.051q.648-1.242 2.057-1.242 1.23 0 1.915.918.699.92.699 2.575t-.699 2.574q-.685.919-1.915.919-1.41 0-2.057-1.242h-.051v3.674h-1.035zm2.742 5.912q.906 0 1.397-.543.505-.556.505-1.462v-1.139q0-.905-.505-1.448-.49-.557-1.397-.557-.35 0-.66.091a1.6 1.6 0 0 0-.543.271q-.232.17-.375.427a1.24 1.24 0 0 0-.129.583v2.406q0 .336.129.595.143.246.375.427.233.168.543.259.31.09.66.09m7.667.919q-.7 0-1.268-.246a2.74 2.74 0 0 1-.957-.699 3.3 3.3 0 0 1-.596-1.099 4.8 4.8 0 0 1-.207-1.449q0-.79.207-1.436.207-.648.596-1.1.4-.466.957-.711a3.2 3.2 0 0 1 1.268-.246q.698 0 1.255.246.568.245.957.711.4.452.608 1.1.207.647.207 1.436 0 .801-.207 1.449a3.2 3.2 0 0 1-.608 1.099 2.6 2.6 0 0 1-.957.699q-.557.246-1.255.246m0-.893q.866 0 1.397-.518.53-.516.53-1.604v-.957q0-1.086-.53-1.604t-1.397-.518-1.397.518-.531 1.604v.957q0 1.088.531 1.604.53.518 1.397.518m4.872-.142h1.953v-4.916h-1.953v-.88h2.988v1.682h.065q.207-.79.776-1.229.582-.453 1.475-.453h.931v1.035h-1.255q-.892 0-1.449.517-.543.518-.543 1.359v2.885h2.587v.879h-5.575zm10.965.879q-.764 0-1.125-.427-.35-.427-.35-1.099v-4.269h-2.225v-.88h1.656q.336 0 .466-.129.142-.143.142-.479v-1.746h.996v2.354h3.04v.88h-3.04v4.916h3.04v.879zm28.143 1.708h3.234v-7.503h-3.35v-.88h4.385v7.736q0 .673-.362 1.1-.35.427-1.113.427h-2.794zm3.752-9.858q-.453 0-.634-.181a.67.67 0 0 1-.181-.479v-.207q0-.284.181-.465.181-.195.634-.194.453 0 .634.194.18.18.181.465v.207q0 .285-.181.479-.181.181-.634.181m6.644 8.306q-1.047 0-1.811-.35-.75-.362-1.281-.957l.699-.608q.478.504 1.048.776.569.272 1.371.272.776 0 1.268-.272.504-.285.504-.88a.8.8 0 0 0-.103-.426.7.7 0 0 0-.259-.285 1.3 1.3 0 0 0-.375-.155 3 3 0 0 0-.44-.104l-1.048-.155a12 12 0 0 1-.763-.142 2.7 2.7 0 0 1-.737-.285 1.9 1.9 0 0 1-.57-.543q-.22-.337-.22-.88 0-.504.194-.867.207-.375.57-.621.362-.258.853-.375a4.2 4.2 0 0 1 1.074-.129q.906 0 1.566.284.672.285 1.151.79l-.673.633a2 2 0 0 0-.297-.284 1.6 1.6 0 0 0-.427-.272 2.4 2.4 0 0 0-.582-.207 3.5 3.5 0 0 0-.777-.077q-.789 0-1.216.271-.414.272-.414.789a1 1 0 0 0 .091.44.8.8 0 0 0 .272.272q.168.103.375.168.22.052.44.091l1.048.155q.361.051.763.142.4.09.737.298.337.194.556.53.234.337.233.88 0 .996-.776 1.539-.763.544-2.044.544m4.795-1.035h1.953v-4.916h-1.953v-.88h2.988v1.682h.065q.207-.79.776-1.229.582-.453 1.475-.453h.931v1.035h-1.255q-.892 0-1.449.517-.543.518-.543 1.359v2.885h2.587v.879h-5.575zm10.641.996q-.53 0-.75-.22a.78.78 0 0 1-.207-.556v-.233a.78.78 0 0 1 .207-.557q.22-.219.75-.219.531 0 .738.219.22.22.22.557v.233a.76.76 0 0 1-.22.556q-.207.22-.738.22m0-5.123q-.53 0-.75-.22a.78.78 0 0 1-.207-.556v-.233q0-.336.207-.557.22-.219.75-.219.531 0 .738.219.22.22.22.557v.233a.76.76 0 0 1-.22.556q-.207.22-.738.22m9.75 6.455h-1.592q-.983 0-1.655-.336a2.6 2.6 0 0 1-1.074-.996q-.402-.66-.582-1.656-.169-.996-.169-2.342 0-1.5.195-2.509.207-1.023.595-1.643.387-.622.957-.88.582-.272 1.345-.272.777 0 1.32.246.557.246.905.673.35.426.505 1.022.168.582.168 1.255v4.812h-.918v-.737h-.065a1.7 1.7 0 0 1-.427.621q-.297.271-.867.271-.789 0-1.255-.659-.465-.674-.465-2.109t.465-2.109q.466-.673 1.255-.673.285 0 .492.078.22.078.375.207.156.129.259.285t.168.323h.065v-.31q0-1.1-.466-1.734-.453-.634-1.488-.634-1.15 0-1.656.893-.49.88-.491 2.833v1.669q0 .75.103 1.41.103.647.375 1.138.285.479.764.751.491.284 1.267.284h1.592zm-1.022-3.247q.465 0 .737-.259.285-.258.285-.75v-1.979q0-.492-.285-.751-.272-.258-.737-.258-.545 0-.828.375-.272.362-.272 1.229v.789q0 .867.272 1.242.283.362.828.362m6.864 1.954q-1.048 0-1.811-.35-.75-.362-1.281-.957l.699-.608q.478.504 1.048.776.569.272 1.371.272.776 0 1.268-.272.504-.285.504-.88a.8.8 0 0 0-.103-.426.7.7 0 0 0-.259-.285 1.3 1.3 0 0 0-.375-.155 3 3 0 0 0-.44-.104l-1.048-.155a12 12 0 0 1-.763-.142 2.7 2.7 0 0 1-.738-.285 1.9 1.9 0 0 1-.569-.543q-.22-.337-.22-.88 0-.504.194-.867.207-.375.57-.621.362-.258.853-.375a4.2 4.2 0 0 1 1.074-.129q.906 0 1.565.284.673.285 1.152.79l-.673.633a2 2 0 0 0-.297-.284 1.6 1.6 0 0 0-.427-.272 2.4 2.4 0 0 0-.582-.207 3.5 3.5 0 0 0-.777-.077q-.789 0-1.216.271-.414.272-.414.789 0 .259.091.44a.8.8 0 0 0 .272.272q.168.103.375.168.22.052.44.091l1.047.155q.362.051.764.142.4.09.737.298.337.194.556.53.233.337.233.88 0 .996-.776 1.539-.763.544-2.044.544m9.258-1.242h-.052a3 3 0 0 1-.259.478 1.6 1.6 0 0 1-.388.388 1.8 1.8 0 0 1-.53.272 2.3 2.3 0 0 1-.725.104q-1.047 0-1.682-.66-.633-.673-.633-1.889v-4.282h1.034v4.101q0 .918.401 1.371.401.44 1.178.44.31 0 .608-.078a1.7 1.7 0 0 0 .53-.232q.232-.155.375-.389.143-.245.143-.582v-4.631h1.035v6.675h-1.035z"/><path fill="#963fcf" d="M187.352 239.084v-11.618h3.622v.803h-2.73v10.013h2.73v.802zm-67.873 93.382v11.618h-3.622v-.802h2.73v-10.013h-2.73v-.803z"/><path fill="#2f80ed" d="M134.269 260.084q-.543 0-.815-.311a1.07 1.07 0 0 1-.272-.75v-.815q0-.35.065-.608.078-.26.181-.466.104-.207.233-.362.129-.168.246-.311.22-.258.297-.44a.9.9 0 0 0 .091-.401q0-.49-.453-.711-.453-.233-1.332-.233h-1.01v-.802h1.01q.879 0 1.332-.22.453-.233.453-.724a.85.85 0 0 0-.091-.388 1.7 1.7 0 0 0-.297-.453l-.246-.298a2.6 2.6 0 0 1-.233-.362 3 3 0 0 1-.181-.466 2.7 2.7 0 0 1-.065-.621v-.815q0-.453.272-.75.272-.31.815-.311h2.277v.803h-2.471v.996q0 .53.155.815.156.284.362.556.22.285.414.595.195.298.194.712 0 .543-.388.879-.375.336-1.035.427v.052q.66.09 1.035.427.388.336.388.88 0 .413-.194.724a9 9 0 0 1-.414.582 4.5 4.5 0 0 0-.362.556q-.155.285-.155.815v.997h2.471v.802zm-.492 51.382q.544 0 .815.311.272.297.272.75v.815q0 .35-.078.621a2.3 2.3 0 0 1-.168.466q-.103.194-.233.362l-.245.298a2 2 0 0 0-.311.453 1 1 0 0 0-.078.388q0 .491.453.724.453.22 1.333.22h1.009v.802h-1.009q-.88 0-1.333.233-.453.22-.453.711 0 .207.078.401.09.182.311.44.116.143.245.311.13.155.233.362t.168.466q.078.258.078.608v.815q0 .453-.272.75-.271.31-.815.311H131.5v-.802h2.471v-.997q0-.53-.155-.815a4.4 4.4 0 0 0-.362-.556 9 9 0 0 1-.414-.582 1.34 1.34 0 0 1-.194-.724q0-.544.375-.88.388-.337 1.048-.427v-.052q-.66-.09-1.048-.427-.375-.336-.375-.879 0-.414.194-.712.194-.31.414-.595a4.4 4.4 0 0 0 .362-.556q.156-.285.155-.815v-.996H131.5v-.803z"/></g><defs><linearGradient id="b" x1="231" x2="231" y1="274" y2="-5" gradientUnits="userSpaceOnUse"><stop stop-color="#fcfcfc" stop-opacity="0"/><stop offset="1" stop-color="#fcfcfc"/></linearGradient><clipPath id="a"><path fill="#fff" d="M0 0h460v290H0z"/></clipPath></defs></svg>