<svg width="567" height="424" viewBox="0 0 567 424" fill="none" xmlns="http://www.w3.org/2000/svg">
<rect x="68.5" y="144.435" width="172.109" height="172.836" rx="27.6804" fill="white" stroke="#EDEDED"/>
<line x1="86.1203" y1="147" x2="86.1203" y2="315" stroke="#EDEDED" stroke-width="0.509144"/>
<line x1="103.428" y1="147" x2="103.428" y2="315" stroke="#EDEDED" stroke-width="0.509144"/>
<line x1="147.66" y1="147" x2="147.66" y2="315" stroke="#EDEDED" stroke-width="0.509144"/>
<line x1="164.969" y1="147" x2="164.969" y2="315" stroke="#EDEDED" stroke-width="0.509144"/>
<line x1="194.777" y1="147" x2="194.777" y2="315" stroke="#EDEDED" stroke-width="0.509144"/>
<line x1="212.086" y1="147" x2="212.086" y2="315" stroke="#EDEDED" stroke-width="0.509144"/>
<line x1="228.659" y1="165.073" x2="70" y2="165.073" stroke="#EDEDED" stroke-width="0.509144"/>
<line x1="228.659" y1="183.4" x2="70" y2="183.4" stroke="#EDEDED" stroke-width="0.509144"/>
<line x1="228.659" y1="279.109" x2="70" y2="279.109" stroke="#EDEDED" stroke-width="0.509144"/>
<line x1="228.659" y1="297.436" x2="70" y2="297.436" stroke="#EDEDED" stroke-width="0.509144"/>
<line y1="-0.254572" x2="183.214" y2="-0.254572" transform="matrix(-0.593721 -0.804671 0.770508 -0.63743 229.251 294.543)" stroke="#EDEDED" stroke-width="0.509144"/>
<line y1="-0.254572" x2="207.078" y2="-0.254572" transform="matrix(-0.593721 -0.804671 0.770508 -0.63743 221.559 313.888)" stroke="#EDEDED" stroke-width="0.509144"/>
<g clip-path="url(#clip0_744_1397)">
<path d="M185.135 184.212C185.135 184.334 185.234 184.433 185.356 184.433H186.027C186.255 184.433 186.482 184.439 186.708 184.448C186.83 184.453 186.932 184.359 186.938 184.237C187.406 184.262 187.869 184.307 188.325 184.37C188.308 184.49 188.392 184.603 188.513 184.621C188.964 184.69 189.41 184.777 189.849 184.882C189.967 184.91 190.086 184.837 190.115 184.719C190.568 184.833 191.013 184.968 191.45 185.119C191.411 185.233 191.471 185.359 191.585 185.4C192.013 185.555 192.434 185.727 192.845 185.916C192.956 185.966 193.086 185.918 193.138 185.807C193.559 186.008 193.97 186.226 194.37 186.46C194.309 186.565 194.343 186.7 194.447 186.763C194.837 186.997 195.216 187.247 195.583 187.512C195.682 187.583 195.82 187.561 195.892 187.462C196.266 187.739 196.626 188.034 196.975 188.342C196.894 188.433 196.901 188.571 196.991 188.653C197.327 188.958 197.651 189.277 197.96 189.608C198.043 189.697 198.182 189.702 198.271 189.62C198.584 189.964 198.882 190.322 199.164 190.691C199.067 190.765 199.048 190.903 199.12 191.001C199.39 191.365 199.646 191.741 199.885 192.127C199.949 192.23 200.083 192.261 200.187 192.199C200.425 192.597 200.649 193.005 200.854 193.424C200.744 193.477 200.697 193.609 200.749 193.72C200.942 194.128 201.118 194.546 201.276 194.973C201.319 195.087 201.445 195.145 201.56 195.104C201.715 195.54 201.852 195.984 201.97 196.436C201.852 196.466 201.78 196.586 201.809 196.705C201.916 197.143 202.006 197.588 202.076 198.039C202.095 198.159 202.207 198.24 202.326 198.223C202.391 198.68 202.439 199.143 202.465 199.611C202.343 199.618 202.25 199.721 202.255 199.843C202.264 200.068 202.269 200.295 202.269 200.523V201.187C202.269 201.31 202.369 201.409 202.491 201.409V202.737C202.369 202.737 202.269 202.837 202.269 202.96V204.288C202.269 204.411 202.369 204.511 202.491 204.511V205.839C202.369 205.839 202.269 205.938 202.269 206.06V207.389C202.269 207.512 202.369 207.611 202.491 207.611V208.939C202.369 208.939 202.269 209.038 202.269 209.161V210.49C202.269 210.613 202.369 210.713 202.491 210.713V212.04C202.369 212.04 202.269 212.14 202.269 212.263V213.592C202.269 213.714 202.369 213.813 202.491 213.813V215.141C202.369 215.141 202.269 215.241 202.269 215.363V216.692C202.269 216.815 202.369 216.914 202.491 216.914V218.242C202.369 218.242 202.269 218.341 202.269 218.464V219.793C202.269 219.915 202.369 220.015 202.491 220.015V221.343C202.369 221.343 202.269 221.443 202.269 221.565V222.894C202.269 223.017 202.369 223.116 202.491 223.116V224.444C202.369 224.444 202.269 224.543 202.269 224.666V225.995C202.269 226.118 202.369 226.217 202.491 226.217V227.545C202.369 227.545 202.269 227.645 202.269 227.767V229.096C202.269 229.218 202.369 229.318 202.491 229.318V230.645C202.369 230.645 202.269 230.745 202.269 230.868V232.197C202.269 232.32 202.369 232.419 202.491 232.419V233.747C202.369 233.747 202.269 233.846 202.269 233.969V235.298C202.269 235.42 202.369 235.52 202.491 235.52V236.848C202.369 236.848 202.269 236.948 202.269 237.07V238.398C202.269 238.521 202.369 238.621 202.491 238.621V239.949C202.369 239.949 202.269 240.048 202.269 240.171V241.5C202.269 241.622 202.369 241.722 202.491 241.722V243.05C202.369 243.05 202.269 243.149 202.269 243.271V244.6C202.269 244.723 202.369 244.823 202.491 244.823V246.15C202.369 246.15 202.269 246.25 202.269 246.373V247.702C202.269 247.824 202.369 247.924 202.491 247.924V249.252C202.369 249.252 202.269 249.351 202.269 249.473V250.803C202.269 250.925 202.369 251.024 202.491 251.024V252.352C202.369 252.352 202.269 252.452 202.269 252.574V253.239C202.269 253.457 202.262 253.671 202.249 253.883C202.242 254.004 202.333 254.108 202.454 254.117C202.417 254.56 202.352 254.989 202.263 255.405C202.145 255.379 202.027 255.452 201.999 255.57C201.898 255.993 201.769 256.4 201.616 256.791C201.572 256.904 201.626 257.031 201.737 257.077C201.567 257.482 201.372 257.87 201.152 258.239C201.062 258.184 200.947 258.202 200.877 258.276L200.85 258.311C200.678 258.584 200.493 258.847 200.296 259.098L200.095 259.345C200.017 259.437 200.028 259.575 200.119 259.654C199.83 259.981 199.52 260.287 199.192 260.57C199.124 260.49 199.01 260.47 198.92 260.517L198.883 260.543C198.635 260.747 198.378 260.939 198.112 261.117L197.844 261.292C197.741 261.356 197.708 261.491 197.771 261.595C197.397 261.817 197.01 262.014 196.611 262.187C196.563 262.077 196.435 262.024 196.323 262.07C195.928 262.232 195.521 262.369 195.108 262.479C194.992 262.511 194.922 262.63 194.951 262.747C194.529 262.85 194.101 262.929 193.668 262.978C193.655 262.858 193.549 262.77 193.428 262.781C193.003 262.82 192.575 262.831 192.147 262.815C192.026 262.811 191.924 262.905 191.917 263.025C191.485 262.999 191.053 262.944 190.625 262.86C190.648 262.742 190.573 262.626 190.455 262.6C190.041 262.51 189.631 262.39 189.228 262.241L189.184 262.23C189.083 262.215 188.981 262.271 188.943 262.37C188.544 262.212 188.152 262.024 187.769 261.807C187.828 261.703 187.794 261.57 187.69 261.508L187.421 261.341C187.154 261.169 186.892 260.982 186.638 260.779L186.6 260.755C186.509 260.708 186.395 260.729 186.328 260.81C186.002 260.538 185.685 260.241 185.384 259.915C185.474 259.833 185.482 259.695 185.401 259.603L185.192 259.36C185.124 259.278 185.055 259.194 184.988 259.108L184.559 258.56L184.527 258.528C184.449 258.461 184.331 258.457 184.247 258.522L183.375 257.411C183.471 257.335 183.488 257.197 183.412 257.1L182.553 256.005C182.477 255.908 182.337 255.891 182.24 255.967L181.369 254.855C181.465 254.78 181.483 254.64 181.407 254.544L180.548 253.449L180.517 253.417C180.438 253.35 180.32 253.344 180.235 253.41L179.364 252.3C179.46 252.224 179.477 252.084 179.401 251.988L178.542 250.893L178.511 250.86C178.432 250.794 178.314 250.789 178.229 250.855L177.357 249.744C177.454 249.668 177.471 249.529 177.396 249.432L176.536 248.337C176.46 248.241 176.321 248.223 176.225 248.299L175.353 247.187C175.449 247.112 175.466 246.973 175.391 246.877L174.531 245.781L174.5 245.749C174.421 245.682 174.303 245.677 174.219 245.743L173.347 244.633C173.443 244.557 173.46 244.418 173.385 244.321L172.525 243.225L172.494 243.193C172.415 243.126 172.297 243.121 172.213 243.187L171.342 242.076C171.438 242 171.456 241.861 171.38 241.764L170.521 240.67L170.489 240.637C170.411 240.57 170.292 240.565 170.208 240.631L169.336 239.519C169.432 239.444 169.45 239.305 169.374 239.209L168.515 238.113L168.483 238.081C168.405 238.014 168.287 238.01 168.202 238.076L167.33 236.965C167.427 236.889 167.444 236.75 167.368 236.653L166.938 236.105C166.88 236.031 166.781 236.001 166.691 236.032C166.602 236.063 166.542 236.148 166.542 236.242V236.907C166.542 237.029 166.641 237.129 166.764 237.129V238.456C166.641 238.456 166.542 238.555 166.542 238.678V240.006C166.542 240.128 166.641 240.228 166.764 240.228V241.555C166.641 241.555 166.542 241.655 166.542 241.777V243.105C166.542 243.228 166.641 243.327 166.764 243.327V244.654C166.641 244.654 166.542 244.754 166.542 244.877V246.205C166.542 246.327 166.641 246.426 166.764 246.427V247.754C166.641 247.754 166.542 247.853 166.542 247.975V249.304C166.542 249.426 166.641 249.526 166.764 249.526V250.853C166.641 250.854 166.542 250.953 166.542 251.075V252.403C166.542 252.526 166.641 252.626 166.764 252.626V253.952C166.641 253.952 166.542 254.052 166.542 254.175V255.503C166.542 255.625 166.641 255.724 166.764 255.724V257.052C166.641 257.052 166.542 257.152 166.542 257.274V258.602C166.542 258.725 166.641 258.824 166.764 258.824V260.151C166.641 260.151 166.542 260.251 166.542 260.373V261.701C166.542 261.824 166.641 261.923 166.764 261.924V263.251C166.641 263.251 166.542 263.35 166.542 263.473V264.137C166.542 264.371 166.536 264.603 166.525 264.835C166.52 264.956 166.612 265.06 166.733 265.067C166.703 265.553 166.648 266.033 166.57 266.505C166.451 266.485 166.338 266.566 166.316 266.685C166.234 267.147 166.128 267.601 166.002 268.046C165.969 268.163 166.036 268.283 166.152 268.318C166.013 268.783 165.852 269.238 165.669 269.682C165.557 269.636 165.428 269.688 165.38 269.8C165.241 270.122 165.092 270.437 164.931 270.747L164.767 271.054C164.708 271.16 164.746 271.293 164.851 271.353C164.611 271.773 164.351 272.18 164.072 272.573C163.986 272.512 163.871 272.521 163.795 272.59L163.765 272.623C163.489 272.999 163.196 273.361 162.886 273.708C162.805 273.799 162.812 273.937 162.901 274.019C162.575 274.375 162.231 274.714 161.871 275.036C161.8 274.957 161.686 274.94 161.597 274.99L161.561 275.015C161.297 275.244 161.025 275.464 160.745 275.674L160.463 275.88C160.364 275.95 160.34 276.087 160.409 276.186C160.013 276.46 159.603 276.715 159.18 276.95C159.128 276.857 159.02 276.815 158.922 276.845L158.881 276.862C158.472 277.081 158.051 277.281 157.619 277.462C157.507 277.509 157.454 277.637 157.499 277.75C157.053 277.928 156.597 278.086 156.131 278.222C156.097 278.105 155.977 278.037 155.86 278.069C155.414 278.192 154.959 278.294 154.497 278.375C154.377 278.396 154.296 278.509 154.315 278.629C153.843 278.704 153.363 278.757 152.877 278.787C152.87 278.666 152.767 278.572 152.646 278.578C152.414 278.589 152.181 278.595 151.946 278.595H151.269C151.146 278.595 151.046 278.694 151.046 278.816H149.682C149.681 278.694 149.582 278.595 149.46 278.595H148.104C147.981 278.595 147.882 278.694 147.882 278.816H146.518C146.517 278.694 146.417 278.595 146.295 278.595H144.938C144.816 278.595 144.717 278.694 144.717 278.816H143.353C143.352 278.694 143.253 278.595 143.131 278.595H141.774C141.652 278.595 141.552 278.694 141.552 278.816H140.188C140.187 278.694 140.088 278.595 139.966 278.595H138.609C138.487 278.595 138.388 278.694 138.388 278.816H137.023C137.023 278.694 136.923 278.595 136.801 278.595H135.444C135.322 278.595 135.223 278.694 135.223 278.816H133.858C133.858 278.694 133.759 278.595 133.637 278.595H132.28C132.158 278.595 132.058 278.694 132.058 278.816H130.693C130.693 278.694 130.594 278.595 130.472 278.595H129.115C128.993 278.595 128.894 278.694 128.894 278.816H127.529C127.529 278.694 127.429 278.595 127.307 278.595H125.95C125.828 278.595 125.729 278.694 125.729 278.816H124.364C124.364 278.694 124.265 278.595 124.143 278.595H123.464C123.236 278.595 123.009 278.59 122.783 278.581C122.662 278.576 122.558 278.67 122.552 278.791C122.084 278.766 121.621 278.72 121.164 278.657C121.181 278.537 121.099 278.425 120.979 278.407L120.306 278.291C120.083 278.247 119.862 278.199 119.643 278.146C119.524 278.118 119.404 278.191 119.375 278.309C118.922 278.195 118.476 278.06 118.039 277.909C118.079 277.794 118.021 277.669 117.906 277.628L117.27 277.383C117.06 277.297 116.852 277.207 116.646 277.113L116.604 277.098C116.504 277.075 116.399 277.124 116.354 277.221C115.932 277.02 115.521 276.802 115.12 276.568C115.181 276.464 115.148 276.329 115.044 276.266L114.468 275.903C114.278 275.778 114.092 275.649 113.908 275.516C113.809 275.445 113.672 275.467 113.6 275.565C113.226 275.287 112.864 274.994 112.516 274.686C112.596 274.595 112.589 274.458 112.499 274.376L112.005 273.908C111.843 273.749 111.686 273.586 111.531 273.42L111.497 273.39C111.414 273.331 111.297 273.336 111.219 273.407C110.906 273.063 110.608 272.706 110.325 272.336C110.422 272.262 110.443 272.125 110.37 272.027C110.1 271.664 109.845 271.288 109.606 270.902L109.579 270.866C109.509 270.792 109.394 270.773 109.303 270.828C109.064 270.43 108.84 270.022 108.636 269.603C108.746 269.551 108.793 269.42 108.741 269.309L108.465 268.689C108.377 268.48 108.293 268.269 108.214 268.056L108.194 268.015C108.14 267.928 108.031 267.888 107.931 267.924C107.776 267.487 107.638 267.043 107.521 266.591C107.639 266.561 107.711 266.442 107.682 266.323C107.574 265.886 107.485 265.441 107.414 264.99L107.403 264.946C107.367 264.85 107.268 264.788 107.163 264.804C107.098 264.347 107.051 263.885 107.025 263.417C107.147 263.411 107.241 263.308 107.236 263.186L107.222 262.506V261.842C107.222 261.719 107.123 261.619 107 261.619V260.293C107.123 260.293 107.222 260.193 107.222 260.07V258.742C107.222 258.619 107.123 258.52 107 258.52V257.193C107.107 257.193 107.197 257.117 107.218 257.016L107.222 256.972V255.643C107.222 255.521 107.123 255.421 107 255.421V254.095C107.123 254.095 107.222 253.995 107.222 253.872V252.544C107.222 252.421 107.123 252.322 107 252.322V250.995C107.107 250.995 107.197 250.919 107.218 250.818L107.222 250.773V249.445C107.222 249.323 107.123 249.223 107 249.223V247.896C107.123 247.896 107.222 247.796 107.222 247.674V246.346C107.222 246.223 107.123 246.124 107 246.124V244.797C107.107 244.797 107.197 244.721 107.218 244.62L107.222 244.575V243.247C107.222 243.124 107.123 243.024 107 243.024V241.698C107.123 241.698 107.222 241.598 107.222 241.475V240.147C107.222 240.025 107.123 239.926 107 239.926V238.598C107.107 238.598 107.197 238.523 107.218 238.422L107.222 238.377V237.049C107.222 236.926 107.123 236.826 107 236.826V235.5C107.123 235.5 107.222 235.4 107.222 235.277V233.949C107.222 233.826 107.123 233.727 107 233.727V232.4C107.107 232.4 107.197 232.324 107.218 232.223L107.222 232.179V230.85C107.222 230.728 107.123 230.628 107 230.628V229.302C107.123 229.302 107.222 229.202 107.222 229.079V227.751C107.222 227.628 107.123 227.529 107 227.529V226.202C107.107 226.202 107.197 226.126 107.218 226.025L107.222 225.98V224.652C107.222 224.53 107.123 224.43 107 224.43V223.103C107.123 223.103 107.222 223.003 107.222 222.881V221.553C107.222 221.43 107.123 221.331 107 221.331V220.004C107.107 220.004 107.197 219.928 107.218 219.827L107.222 219.782V218.454C107.222 218.331 107.123 218.231 107 218.231V216.905C107.123 216.905 107.222 216.805 107.222 216.682V215.354C107.222 215.232 107.123 215.133 107 215.133V213.806C107.107 213.806 107.197 213.73 107.218 213.629L107.222 213.584V212.256C107.222 212.133 107.123 212.033 107 212.033V210.707C107.123 210.707 107.222 210.607 107.222 210.484V209.156C107.222 209.034 107.123 208.934 107 208.934V207.607C107.107 207.607 107.197 207.532 107.218 207.431L107.222 207.386V206.057C107.222 205.935 107.123 205.835 107 205.835V204.509C107.123 204.509 107.222 204.409 107.222 204.286V202.958C107.222 202.835 107.123 202.736 107 202.736V201.409C107.107 201.409 107.197 201.333 107.218 201.232L107.222 201.187V200.523L107.236 199.843C107.241 199.721 107.147 199.617 107.025 199.611C107.051 199.143 107.098 198.68 107.163 198.223C107.268 198.239 107.368 198.178 107.403 198.082L107.414 198.039C107.485 197.588 107.574 197.143 107.682 196.705C107.711 196.586 107.639 196.466 107.521 196.436C107.638 195.984 107.776 195.54 107.931 195.104C108.045 195.146 108.171 195.087 108.214 194.973C108.293 194.759 108.377 194.549 108.465 194.34L108.741 193.72C108.793 193.609 108.746 193.476 108.636 193.424C108.84 193.005 109.064 192.597 109.303 192.199C109.394 192.254 109.509 192.237 109.579 192.162L109.606 192.127C109.845 191.741 110.1 191.365 110.37 191.001C110.443 190.903 110.423 190.765 110.325 190.691C110.608 190.321 110.906 189.964 111.219 189.62C111.297 189.692 111.413 189.697 111.497 189.638L111.531 189.608C111.686 189.443 111.844 189.28 112.005 189.121L112.499 188.653C112.59 188.571 112.597 188.432 112.516 188.341C112.864 188.033 113.225 187.739 113.599 187.462C113.67 187.561 113.809 187.583 113.908 187.512C114.092 187.379 114.279 187.251 114.468 187.126L115.044 186.763C115.148 186.7 115.182 186.564 115.12 186.459C115.52 186.225 115.931 186.008 116.353 185.807C116.398 185.904 116.504 185.953 116.604 185.93L116.646 185.916C116.852 185.822 117.06 185.731 117.27 185.645L117.906 185.4C118.021 185.359 118.079 185.234 118.039 185.119C118.476 184.968 118.922 184.833 119.375 184.719C119.4 184.822 119.495 184.891 119.598 184.888L119.643 184.882C119.862 184.829 120.083 184.782 120.306 184.738L120.979 184.621C121.099 184.602 121.181 184.49 121.164 184.37C121.621 184.307 122.084 184.262 122.552 184.237C122.558 184.359 122.661 184.453 122.783 184.448C123.009 184.439 123.236 184.433 123.464 184.433H124.135C124.242 184.433 124.331 184.358 124.352 184.257L124.356 184.212H125.7C125.7 184.334 125.799 184.433 125.922 184.433H127.263C127.385 184.433 127.484 184.334 127.484 184.212H128.828C128.828 184.334 128.927 184.433 129.05 184.433H130.391C130.513 184.433 130.612 184.334 130.612 184.212H131.956C131.956 184.334 132.055 184.433 132.178 184.433H133.519C133.626 184.433 133.716 184.358 133.736 184.257L133.741 184.212H135.084C135.084 184.334 135.184 184.433 135.307 184.433H136.646C136.754 184.433 136.843 184.358 136.864 184.257L136.869 184.212H138.212C138.212 184.334 138.312 184.433 138.435 184.433H139.775C139.898 184.433 139.997 184.334 139.997 184.212H141.341C141.341 184.334 141.44 184.433 141.562 184.433H142.903C143.026 184.433 143.125 184.334 143.125 184.212H144.469C144.469 184.334 144.568 184.433 144.69 184.433H146.031C146.139 184.433 146.228 184.358 146.249 184.257L146.254 184.212H147.597C147.597 184.334 147.697 184.433 147.819 184.433H149.159C149.266 184.433 149.356 184.358 149.377 184.257L149.382 184.212H150.725C150.725 184.334 150.825 184.433 150.947 184.433H152.288C152.395 184.433 152.484 184.358 152.505 184.257L152.51 184.212H153.854C153.854 184.334 153.953 184.433 154.075 184.433H155.416C155.539 184.433 155.638 184.334 155.638 184.212H156.981C156.981 184.334 157.081 184.433 157.203 184.433H158.544C158.667 184.433 158.766 184.334 158.766 184.212H160.109C160.109 184.334 160.209 184.433 160.331 184.433H161.672C161.779 184.433 161.869 184.358 161.89 184.257L161.895 184.212H163.237C163.237 184.334 163.337 184.433 163.46 184.433H164.801C164.908 184.433 164.997 184.358 165.018 184.257L165.022 184.212H166.366C166.366 184.334 166.465 184.433 166.588 184.433H167.929C168.051 184.433 168.15 184.334 168.15 184.212H169.494C169.494 184.334 169.593 184.433 169.716 184.433H171.057C171.179 184.433 171.278 184.334 171.278 184.212H172.622C172.622 184.334 172.721 184.433 172.844 184.433H174.185C174.292 184.433 174.382 184.358 174.402 184.257L174.407 184.212H175.75C175.75 184.334 175.85 184.433 175.973 184.433H177.312C177.42 184.433 177.509 184.358 177.53 184.257L177.535 184.212H178.878C178.878 184.334 178.978 184.433 179.101 184.433H180.441C180.564 184.433 180.663 184.334 180.663 184.212H182.007C182.007 184.334 182.106 184.433 182.229 184.433H183.569C183.692 184.433 183.791 184.334 183.791 184.212H185.135ZM183.869 236.782L184.741 237.892C184.645 237.968 184.628 238.109 184.704 238.205L185.563 239.3C185.639 239.396 185.779 239.413 185.875 239.338L186.746 240.449H186.747C186.651 240.525 186.634 240.664 186.71 240.761L187.569 241.856C187.645 241.952 187.783 241.968 187.88 241.893L188.752 243.005C188.656 243.08 188.64 243.22 188.715 243.316L189.146 243.864C189.204 243.938 189.303 243.968 189.393 243.937C189.46 243.914 189.51 243.861 189.531 243.796L189.542 243.727V243.065C189.542 242.943 189.442 242.844 189.319 242.844V241.524C189.426 241.524 189.516 241.448 189.537 241.348L189.542 241.303V239.979C189.542 239.857 189.442 239.758 189.319 239.758V238.438C189.427 238.438 189.517 238.362 189.537 238.261L189.542 238.217V236.893C189.542 236.771 189.442 236.672 189.319 236.672V235.352C189.427 235.352 189.517 235.276 189.537 235.175L189.542 235.131V233.807C189.542 233.685 189.442 233.586 189.319 233.586V232.266C189.427 232.266 189.517 232.19 189.537 232.089L189.542 232.045V230.722C189.542 230.599 189.442 230.5 189.319 230.5V229.181C189.427 229.181 189.516 229.104 189.537 229.003L189.542 228.958V227.636C189.542 227.513 189.442 227.414 189.319 227.414V226.095C189.427 226.095 189.516 226.018 189.537 225.917L189.542 225.872V224.55C189.542 224.427 189.442 224.328 189.319 224.328V223.009C189.427 223.009 189.516 222.932 189.537 222.831L189.542 222.786V221.464C189.542 221.341 189.442 221.242 189.319 221.242V219.923C189.427 219.923 189.516 219.846 189.537 219.745L189.542 219.7V218.378C189.542 218.255 189.442 218.156 189.319 218.156V216.837C189.427 216.837 189.516 216.76 189.537 216.659L189.542 216.614V215.292C189.542 215.169 189.442 215.069 189.319 215.069V213.751C189.427 213.751 189.516 213.674 189.537 213.573L189.542 213.528V212.206C189.542 212.083 189.442 211.983 189.319 211.983V210.664C189.427 210.664 189.516 210.588 189.537 210.487L189.542 210.442V209.12C189.542 208.997 189.442 208.897 189.319 208.897V207.578C189.427 207.578 189.516 207.502 189.537 207.401L189.542 207.356V206.034C189.542 205.911 189.442 205.811 189.319 205.811V204.492C189.427 204.492 189.516 204.416 189.537 204.315L189.542 204.27V202.948C189.542 202.825 189.442 202.725 189.319 202.725V201.406C189.427 201.406 189.516 201.33 189.537 201.229L189.542 201.184V200.523L189.546 199.61L189.541 199.565C189.52 199.464 189.431 199.388 189.323 199.389C189.322 199.389 189.321 199.388 189.319 199.389C189.304 198.573 189.21 197.913 188.746 197.555C188.75 197.548 188.755 197.543 188.759 197.536C188.814 197.427 188.77 197.294 188.661 197.238L188.559 197.191C188.314 197.089 188.02 197.039 187.673 197.039H187.019C186.896 197.039 186.796 197.138 186.796 197.261H185.493C185.493 197.138 185.393 197.039 185.271 197.039H183.961C183.838 197.039 183.738 197.138 183.738 197.261H182.436C182.435 197.138 182.335 197.039 182.213 197.039H180.903C180.781 197.039 180.681 197.138 180.681 197.261H179.378C179.378 197.138 179.278 197.039 179.155 197.039H177.846C177.723 197.039 177.623 197.138 177.623 197.261H176.32C176.32 197.138 176.221 197.039 176.099 197.039H174.788C174.665 197.039 174.565 197.138 174.565 197.261H173.263C173.263 197.138 173.163 197.039 173.041 197.039H171.73C171.608 197.039 171.508 197.138 171.508 197.261H170.205C170.205 197.138 170.106 197.039 169.983 197.039H168.673C168.55 197.039 168.45 197.138 168.45 197.261H167.147C167.147 197.138 167.048 197.039 166.926 197.039H165.615C165.493 197.039 165.393 197.138 165.393 197.261H164.09C164.09 197.138 163.991 197.039 163.868 197.039H162.558C162.435 197.039 162.335 197.138 162.335 197.261H161.032C161.032 197.138 160.933 197.039 160.811 197.039H159.5C159.377 197.039 159.277 197.138 159.277 197.261H157.975C157.975 197.138 157.875 197.039 157.753 197.039H156.442C156.32 197.039 156.22 197.138 156.22 197.261H154.917C154.917 197.138 154.818 197.039 154.695 197.039H153.385C153.262 197.039 153.162 197.138 153.162 197.261H151.859C151.859 197.138 151.76 197.039 151.638 197.039H150.327C150.205 197.039 150.105 197.138 150.104 197.261H148.802C148.802 197.138 148.703 197.039 148.58 197.039H147.27C147.147 197.039 147.048 197.138 147.048 197.261H145.744C145.744 197.138 145.645 197.039 145.522 197.039H144.212C144.089 197.039 143.99 197.138 143.99 197.261H142.687C142.686 197.138 142.587 197.039 142.465 197.039H141.154C141.032 197.039 140.933 197.138 140.933 197.261H139.629C139.629 197.138 139.53 197.039 139.407 197.039H138.097C137.974 197.039 137.875 197.138 137.875 197.261H136.571C136.571 197.138 136.472 197.039 136.35 197.039H135.039C134.916 197.039 134.817 197.138 134.817 197.261H133.514C133.514 197.138 133.415 197.039 133.292 197.039H131.981C131.859 197.039 131.76 197.138 131.76 197.261H130.456C130.456 197.138 130.357 197.039 130.234 197.039H128.924C128.801 197.039 128.702 197.138 128.702 197.261H127.398C127.398 197.138 127.299 197.039 127.177 197.039H125.866C125.744 197.039 125.645 197.138 125.645 197.261H124.341C124.341 197.138 124.242 197.039 124.119 197.039H123.464C123.264 197.039 123.069 197.055 122.878 197.087C122.757 197.107 122.675 197.222 122.695 197.343C122.696 197.345 122.697 197.347 122.697 197.349C122.358 197.43 122.039 197.562 121.75 197.737C121.749 197.735 121.748 197.732 121.746 197.73C121.684 197.642 121.57 197.613 121.476 197.654L121.437 197.677C121.195 197.846 120.976 198.045 120.784 198.268L120.603 198.5C120.531 198.599 120.553 198.738 120.652 198.809C120.654 198.811 120.656 198.811 120.658 198.812C120.479 199.1 120.345 199.419 120.263 199.757C120.26 199.756 120.257 199.755 120.255 199.755C120.149 199.737 120.048 199.797 120.011 199.893L119.999 199.936C119.966 200.127 119.949 200.324 119.949 200.523V201.187C119.949 201.31 120.048 201.409 120.171 201.409V202.736C120.048 202.736 119.949 202.835 119.949 202.958V204.286C119.949 204.409 120.048 204.508 120.171 204.509V205.835C120.048 205.835 119.949 205.935 119.949 206.057V207.386C119.949 207.508 120.048 207.607 120.171 207.607V208.934C120.048 208.935 119.949 209.034 119.949 209.156V210.484C119.949 210.607 120.048 210.707 120.171 210.707V212.033C120.048 212.033 119.949 212.133 119.949 212.256V213.584C119.949 213.706 120.048 213.805 120.171 213.806V215.133C120.048 215.133 119.949 215.232 119.949 215.354V216.682C119.949 216.805 120.048 216.905 120.171 216.905V218.231C120.048 218.231 119.949 218.331 119.949 218.454V219.782C119.949 219.905 120.048 220.004 120.171 220.004V221.331C120.048 221.331 119.949 221.43 119.949 221.553V222.881C119.949 223.003 120.048 223.103 120.171 223.103V224.43C120.048 224.43 119.949 224.53 119.949 224.652V225.98C119.949 226.103 120.048 226.202 120.171 226.202V227.529C120.048 227.529 119.949 227.628 119.949 227.751V229.079C119.949 229.202 120.048 229.301 120.171 229.302V230.628C120.048 230.628 119.949 230.728 119.949 230.85V232.179C119.949 232.301 120.048 232.4 120.171 232.4V233.727C120.048 233.728 119.949 233.827 119.949 233.949V235.277C119.949 235.4 120.048 235.5 120.171 235.5V236.826C120.048 236.826 119.949 236.926 119.949 237.049V238.377C119.949 238.499 120.048 238.598 120.171 238.598V239.926C120.048 239.926 119.949 240.025 119.949 240.147V241.475C119.949 241.598 120.048 241.698 120.171 241.698V243.024C120.048 243.024 119.949 243.124 119.949 243.247V244.575C119.949 244.697 120.048 244.797 120.171 244.797V246.124C120.048 246.124 119.949 246.223 119.949 246.346V247.674C119.949 247.796 120.048 247.896 120.171 247.896V249.223C120.048 249.223 119.949 249.323 119.949 249.445V250.773C119.949 250.896 120.048 250.995 120.171 250.995V252.322C120.048 252.322 119.949 252.421 119.949 252.544V253.872C119.949 253.994 120.048 254.094 120.171 254.095V255.421C120.048 255.421 119.949 255.521 119.949 255.643V256.972C119.949 257.094 120.048 257.193 120.171 257.193V258.52C120.048 258.521 119.949 258.62 119.949 258.742V260.07C119.949 260.193 120.048 260.293 120.171 260.293V261.619C120.048 261.619 119.949 261.719 119.949 261.842V262.506C119.949 262.705 119.966 262.901 119.999 263.092C120.02 263.212 120.134 263.294 120.255 263.273C120.258 263.273 120.26 263.271 120.263 263.27C120.345 263.609 120.479 263.927 120.658 264.215C120.656 264.216 120.654 264.217 120.652 264.219C120.553 264.29 120.531 264.43 120.603 264.529C120.832 264.848 121.114 265.126 121.437 265.352C121.537 265.423 121.676 265.398 121.746 265.298C121.748 265.296 121.748 265.293 121.749 265.291C122.039 265.466 122.358 265.597 122.697 265.678C122.697 265.68 122.696 265.684 122.695 265.686C122.675 265.807 122.757 265.921 122.878 265.941C123.069 265.973 123.264 265.99 123.464 265.99H124.154C124.261 265.99 124.35 265.913 124.371 265.812L124.376 265.767H125.771C125.771 265.89 125.871 265.99 125.993 265.99H127.373C127.48 265.99 127.57 265.914 127.591 265.812L127.596 265.767H128.991L128.996 265.812C129.017 265.913 129.106 265.99 129.213 265.99H130.593C130.7 265.99 130.79 265.914 130.811 265.812L130.815 265.767H132.211L132.215 265.812C132.235 265.914 132.325 265.99 132.433 265.99H133.812C133.92 265.99 134.01 265.914 134.03 265.812L134.035 265.767H135.431L135.435 265.812C135.455 265.914 135.545 265.99 135.652 265.99H137.032C137.155 265.99 137.254 265.89 137.254 265.767H138.65L138.654 265.812C138.675 265.914 138.765 265.99 138.872 265.99H140.252C140.375 265.99 140.474 265.89 140.474 265.767H141.869C141.869 265.89 141.969 265.99 142.092 265.99H143.472C143.594 265.99 143.693 265.89 143.693 265.767H145.089C145.089 265.89 145.189 265.99 145.312 265.99H146.691C146.814 265.99 146.913 265.89 146.913 265.767H148.309C148.309 265.89 148.409 265.99 148.531 265.99H149.911C150.034 265.99 150.133 265.89 150.133 265.767H151.528C151.528 265.89 151.628 265.99 151.751 265.99H152.44C152.598 265.99 152.743 265.971 152.876 265.931L153.004 265.886C153.117 265.838 153.17 265.708 153.123 265.596C153.119 265.587 153.114 265.579 153.109 265.571C153.328 265.407 153.455 265.151 153.524 264.841C153.528 264.841 153.531 264.843 153.535 264.844C153.657 264.859 153.768 264.774 153.784 264.652C153.795 264.569 153.803 264.485 153.808 264.398L153.815 264.137V263.469C153.815 263.346 153.715 263.247 153.593 263.247V261.909C153.7 261.909 153.79 261.833 153.811 261.732L153.815 261.687V260.351C153.815 260.229 153.715 260.13 153.593 260.13V258.792C153.7 258.792 153.79 258.716 153.811 258.615L153.815 258.57V257.234C153.815 257.112 153.715 257.013 153.593 257.013V255.676C153.7 255.676 153.79 255.599 153.811 255.498L153.815 255.453V254.117C153.815 253.994 153.715 253.895 153.593 253.895V252.558C153.7 252.558 153.79 252.482 153.811 252.381L153.815 252.336V251C153.815 250.877 153.715 250.778 153.593 250.778V249.441C153.7 249.441 153.79 249.365 153.811 249.264L153.815 249.219V247.883C153.815 247.76 153.715 247.661 153.593 247.661V246.324C153.7 246.324 153.79 246.248 153.811 246.146L153.815 246.101V244.765C153.815 244.643 153.715 244.544 153.593 244.544V243.207C153.7 243.207 153.79 243.13 153.811 243.029L153.815 242.984V241.648C153.815 241.526 153.715 241.427 153.593 241.427V240.09C153.7 240.09 153.79 240.013 153.811 239.912L153.815 239.867V238.531C153.815 238.409 153.715 238.309 153.593 238.309V236.973C153.7 236.973 153.79 236.896 153.811 236.795L153.815 236.75V235.414C153.815 235.291 153.715 235.192 153.593 235.192V233.855C153.7 233.855 153.79 233.779 153.811 233.678L153.815 233.633V232.297C153.815 232.174 153.715 232.075 153.593 232.075V230.738C153.7 230.738 153.79 230.662 153.811 230.56L153.815 230.515V229.18C153.815 229.057 153.715 228.958 153.593 228.958V227.621C153.7 227.621 153.79 227.544 153.811 227.443L153.815 227.398V226.73C153.815 226.621 153.817 226.513 153.82 226.406L153.835 226.087C153.842 225.965 153.75 225.86 153.629 225.851C153.666 225.408 153.731 224.979 153.82 224.563C153.924 224.587 154.027 224.535 154.07 224.442L154.085 224.399C154.161 224.082 154.252 223.774 154.357 223.474L154.468 223.179C154.512 223.065 154.458 222.937 154.346 222.891C154.516 222.486 154.711 222.098 154.931 221.729C155.034 221.793 155.17 221.761 155.234 221.658C155.406 221.385 155.591 221.123 155.788 220.872L155.989 220.625C156.067 220.532 156.056 220.393 155.964 220.314C156.253 219.987 156.563 219.682 156.891 219.398C156.959 219.479 157.074 219.5 157.164 219.452L157.201 219.427C157.531 219.154 157.878 218.904 158.24 218.678C158.344 218.613 158.375 218.478 158.312 218.374C158.685 218.151 159.073 217.954 159.472 217.781C159.513 217.878 159.616 217.931 159.717 217.912L159.761 217.899C160.057 217.778 160.36 217.671 160.667 217.578L160.975 217.49C161.092 217.459 161.161 217.339 161.132 217.222C161.554 217.118 161.982 217.04 162.415 216.99C162.427 217.111 162.535 217.201 162.656 217.189C163.081 217.15 163.509 217.138 163.937 217.154C164.058 217.159 164.16 217.064 164.166 216.943C164.598 216.969 165.03 217.024 165.458 217.108C165.434 217.227 165.51 217.343 165.629 217.369C166.043 217.46 166.453 217.58 166.856 217.728C166.971 217.77 167.096 217.712 167.14 217.598C167.539 217.757 167.931 217.945 168.314 218.161C168.255 218.266 168.29 218.4 168.394 218.462C168.754 218.677 169.106 218.92 169.446 219.191C169.541 219.267 169.679 219.251 169.756 219.158C170.082 219.43 170.398 219.728 170.699 220.054C170.609 220.135 170.602 220.275 170.683 220.366C170.823 220.525 170.961 220.69 171.096 220.861L171.525 221.409C171.601 221.505 171.739 221.521 171.836 221.446L172.708 222.557H172.709C172.613 222.633 172.596 222.772 172.672 222.869L173.531 223.965C173.607 224.061 173.746 224.078 173.843 224.003V224.002L174.714 225.113C174.618 225.189 174.601 225.329 174.677 225.426L175.536 226.52C175.612 226.617 175.751 226.634 175.848 226.558L176.72 227.669V227.67C176.624 227.746 176.607 227.885 176.683 227.981L177.542 229.077C177.618 229.173 177.756 229.189 177.853 229.114L178.725 230.225H178.726C178.629 230.301 178.612 230.44 178.688 230.537L179.548 231.633C179.624 231.729 179.762 231.745 179.858 231.67L180.73 232.781C180.634 232.857 180.618 232.996 180.693 233.093L181.553 234.188C181.628 234.285 181.767 234.301 181.863 234.225L182.735 235.337C182.639 235.413 182.624 235.553 182.699 235.649L183.559 236.744C183.634 236.84 183.773 236.857 183.869 236.782Z" fill="#F7F7F7" stroke="#525252" stroke-width="0.444155" stroke-linecap="round" stroke-linejoin="round" stroke-dasharray="1.33 1.78"/>
</g>
<g filter="url(#filter0_d_744_1397)">
<rect x="215.536" y="88.4706" width="284.576" height="284.576" rx="53.0232" fill="#FCFCFC" stroke="#DFDFDF" stroke-width="1.07125"/>
<g clip-path="url(#clip1_744_1397)">
<path d="M369.662 298.914C366.04 303.465 358.696 300.972 358.609 295.16L357.333 210.16H414.61C424.984 210.16 430.77 222.116 424.319 230.224L369.662 298.914Z" fill="url(#paint0_linear_744_1397)"/>
<path d="M369.662 298.914C366.04 303.465 358.696 300.972 358.609 295.16L357.333 210.16H414.61C424.984 210.16 430.77 222.116 424.319 230.224L369.662 298.914Z" fill="url(#paint1_linear_744_1397)" fill-opacity="0.2"/>
<path d="M346.367 162.141C349.989 157.589 357.333 160.083 357.42 165.895L357.98 250.895H301.42C291.045 250.895 285.259 238.938 291.71 230.831L346.367 162.141Z" fill="#3FCF8E"/>
</g>
</g>
<path d="M351.667 101.406C351.667 104.352 354.054 106.74 357 106.74C359.946 106.74 362.333 104.352 362.333 101.406C362.333 98.4607 359.946 96.0729 357 96.0729C354.054 96.0729 351.667 98.4607 351.667 101.406ZM155 145H156V71H155H154V145H155ZM176 50V51H336V50V49H176V50ZM357 71H356V101.406H357H358V71H357ZM336 50V51C347.046 51 356 59.9543 356 71H357H358C358 58.8497 348.15 49 336 49V50ZM155 71H156C156 59.9543 164.954 51 176 51V50V49C163.85 49 154 58.8497 154 71H155Z" fill="url(#paint2_linear_744_1397)"/>
<defs>
<filter id="filter0_d_744_1397" x="203" y="79.935" width="309.647" height="309.647" filterUnits="userSpaceOnUse" color-interpolation-filters="sRGB">
<feFlood flood-opacity="0" result="BackgroundImageFix"/>
<feColorMatrix in="SourceAlpha" type="matrix" values="0 0 0 0 0 0 0 0 0 0 0 0 0 0 0 0 0 0 127 0" result="hardAlpha"/>
<feOffset dy="4"/>
<feGaussianBlur stdDeviation="6"/>
<feComposite in2="hardAlpha" operator="out"/>
<feColorMatrix type="matrix" values="0 0 0 0 0 0 0 0 0 0 0 0 0 0 0 0 0 0 0.06 0"/>
<feBlend mode="normal" in2="BackgroundImageFix" result="effect1_dropShadow_744_1397"/>
<feBlend mode="normal" in="SourceGraphic" in2="effect1_dropShadow_744_1397" result="shape"/>
</filter>
<linearGradient id="paint0_linear_744_1397" x1="357.333" y1="229.006" x2="408.206" y2="250.388" gradientUnits="userSpaceOnUse">
<stop stop-color="#249361"/>
<stop offset="1" stop-color="#3ECF8E"/>
</linearGradient>
<linearGradient id="paint1_linear_744_1397" x1="334.764" y1="198.172" x2="357.902" y2="241.821" gradientUnits="userSpaceOnUse">
<stop/>
<stop offset="1" stop-opacity="0"/>
</linearGradient>
<linearGradient id="paint2_linear_744_1397" x1="134" y1="132" x2="391.806" y2="116.803" gradientUnits="userSpaceOnUse">
<stop stop-color="#FCFCFC"/>
<stop offset="1" stop-color="#171717"/>
</linearGradient>
<clipPath id="clip0_744_1397">
<rect width="95.4932" height="94.6049" fill="white" transform="translate(107 184.212)"/>
</clipPath>
<clipPath id="clip1_744_1397">
<rect width="138.063" height="142.823" fill="white" transform="translate(288.969 159.523)"/>
</clipPath>
</defs>
</svg>
