<svg width="568" height="424" viewBox="0 0 568 424" fill="none" xmlns="http://www.w3.org/2000/svg">
<g filter="url(#filter0_d_744_1355)">
<rect x="68.8235" y="143.935" width="173.109" height="173.836" rx="28.1804" fill="#202020"/>
<rect x="69.3235" y="144.435" width="172.109" height="172.836" rx="27.6804" stroke="#2E2E2E"/>
</g>
<line x1="86.4933" y1="148" x2="86.4933" y2="315" stroke="#282828" stroke-width="0.509144"/>
<line x1="104.209" y1="148" x2="104.209" y2="315" stroke="#282828" stroke-width="0.509144"/>
<line x1="149.483" y1="148" x2="149.483" y2="315" stroke="#282828" stroke-width="0.509144"/>
<line x1="167.198" y1="148" x2="167.198" y2="315" stroke="#282828" stroke-width="0.509144"/>
<line x1="197.709" y1="148" x2="197.709" y2="315" stroke="#282828" stroke-width="0.509144"/>
<line x1="215.424" y1="148" x2="215.424" y2="315" stroke="#282828" stroke-width="0.509144"/>
<line x1="232.394" y1="165.967" x2="70.0002" y2="165.967" stroke="#282828" stroke-width="0.509144"/>
<line x1="232.394" y1="184.185" x2="70.0002" y2="184.185" stroke="#282828" stroke-width="0.509144"/>
<line x1="232.394" y1="279.324" x2="70.0002" y2="279.324" stroke="#282828" stroke-width="0.509144"/>
<line x1="232.394" y1="297.542" x2="70.0002" y2="297.542" stroke="#282828" stroke-width="0.509144"/>
<line y1="-0.254572" x2="184.046" y2="-0.254572" transform="matrix(-0.604949 -0.796264 0.779556 -0.626333 233 294.665)" stroke="#282828" stroke-width="0.509144"/>
<line y1="-0.254572" x2="208.019" y2="-0.254572" transform="matrix(-0.604949 -0.796264 0.779556 -0.626333 225.127 313.895)" stroke="#282828" stroke-width="0.509144"/>
<g clip-path="url(#clip0_744_1355)">
<path d="M185.508 183.212C185.508 183.334 185.607 183.433 185.729 183.433H186.4C186.628 183.433 186.855 183.439 187.081 183.448C187.203 183.453 187.305 183.359 187.312 183.237C187.779 183.262 188.242 183.307 188.698 183.37C188.681 183.49 188.765 183.603 188.886 183.621C189.337 183.69 189.783 183.777 190.222 183.882C190.34 183.91 190.459 183.837 190.488 183.719C190.941 183.833 191.386 183.968 191.823 184.119C191.784 184.234 191.844 184.359 191.958 184.4C192.386 184.555 192.807 184.727 193.218 184.916C193.329 184.966 193.459 184.918 193.511 184.807C193.932 185.008 194.343 185.226 194.743 185.46C194.682 185.565 194.716 185.7 194.82 185.763C195.21 185.997 195.589 186.247 195.956 186.512C196.055 186.583 196.193 186.561 196.265 186.462C196.639 186.74 196.999 187.034 197.348 187.342C197.267 187.433 197.274 187.571 197.364 187.653C197.7 187.958 198.024 188.277 198.333 188.608C198.416 188.697 198.555 188.702 198.645 188.62C198.957 188.964 199.255 189.322 199.537 189.691C199.44 189.765 199.421 189.903 199.493 190.001C199.763 190.365 200.019 190.741 200.258 191.127C200.322 191.23 200.456 191.261 200.56 191.199C200.798 191.597 201.022 192.005 201.227 192.424C201.117 192.477 201.07 192.609 201.122 192.72C201.315 193.128 201.491 193.546 201.649 193.973C201.692 194.087 201.818 194.145 201.933 194.104C202.088 194.54 202.225 194.984 202.343 195.436C202.225 195.466 202.153 195.586 202.182 195.705C202.289 196.143 202.379 196.588 202.449 197.039C202.468 197.159 202.58 197.24 202.699 197.224C202.764 197.68 202.812 198.143 202.838 198.611C202.716 198.618 202.623 198.721 202.628 198.843C202.637 199.068 202.642 199.295 202.642 199.523V200.187C202.642 200.31 202.742 200.409 202.864 200.409V201.737C202.742 201.737 202.642 201.837 202.642 201.96V203.288C202.642 203.411 202.742 203.511 202.864 203.511V204.839C202.742 204.839 202.642 204.938 202.642 205.06V206.39C202.642 206.512 202.742 206.611 202.864 206.611V207.939C202.742 207.939 202.642 208.039 202.642 208.161V209.49C202.642 209.613 202.742 209.713 202.864 209.713V211.04C202.742 211.04 202.642 211.14 202.642 211.263V212.592C202.642 212.714 202.742 212.813 202.864 212.813V214.141C202.742 214.141 202.642 214.241 202.642 214.363V215.692C202.642 215.815 202.742 215.914 202.864 215.914V217.242C202.742 217.242 202.642 217.341 202.642 217.464V218.793C202.642 218.915 202.742 219.016 202.864 219.016V220.343C202.742 220.343 202.642 220.443 202.642 220.565V221.894C202.642 222.017 202.742 222.116 202.864 222.116V223.444C202.742 223.444 202.642 223.543 202.642 223.666V224.995C202.642 225.118 202.742 225.217 202.864 225.217V226.545C202.742 226.545 202.642 226.645 202.642 226.767V228.096C202.642 228.218 202.742 228.318 202.864 228.318V229.645C202.742 229.645 202.642 229.745 202.642 229.868V231.197C202.642 231.32 202.742 231.419 202.864 231.419V232.747C202.742 232.747 202.642 232.846 202.642 232.969V234.298C202.642 234.42 202.742 234.52 202.864 234.52V235.848C202.742 235.848 202.642 235.948 202.642 236.07V237.398C202.642 237.521 202.742 237.621 202.864 237.621V238.949C202.742 238.949 202.642 239.048 202.642 239.171V240.5C202.642 240.622 202.742 240.722 202.864 240.722V242.05C202.742 242.05 202.642 242.149 202.642 242.271V243.6C202.642 243.723 202.742 243.823 202.864 243.823V245.15C202.742 245.15 202.642 245.25 202.642 245.373V246.702C202.642 246.824 202.742 246.924 202.864 246.924V248.252C202.742 248.252 202.642 248.351 202.642 248.474V249.803C202.642 249.925 202.742 250.024 202.864 250.024V251.352C202.742 251.352 202.642 251.452 202.642 251.574V252.239C202.642 252.457 202.635 252.671 202.622 252.883C202.615 253.004 202.706 253.108 202.827 253.117C202.79 253.56 202.725 253.99 202.636 254.405C202.518 254.379 202.4 254.452 202.372 254.57C202.271 254.993 202.142 255.4 201.989 255.791C201.945 255.904 201.999 256.031 202.11 256.077C201.94 256.482 201.745 256.87 201.525 257.239C201.435 257.184 201.321 257.202 201.25 257.276L201.223 257.311C201.051 257.584 200.866 257.847 200.669 258.098L200.468 258.345C200.39 258.437 200.401 258.575 200.492 258.654C200.203 258.981 199.893 259.287 199.565 259.57C199.497 259.49 199.383 259.47 199.293 259.517L199.256 259.543C199.009 259.747 198.751 259.939 198.485 260.117L198.217 260.292C198.114 260.356 198.081 260.491 198.144 260.595C197.77 260.817 197.383 261.014 196.984 261.187C196.937 261.077 196.808 261.024 196.696 261.07C196.301 261.232 195.895 261.369 195.481 261.479C195.365 261.511 195.295 261.63 195.324 261.747C194.902 261.85 194.474 261.929 194.041 261.978C194.028 261.858 193.922 261.77 193.801 261.781C193.376 261.82 192.948 261.831 192.521 261.815C192.399 261.811 192.297 261.905 192.29 262.025C191.858 261.999 191.426 261.944 190.998 261.86C191.021 261.742 190.946 261.626 190.828 261.6C190.414 261.51 190.004 261.39 189.601 261.241L189.557 261.23C189.456 261.215 189.354 261.271 189.316 261.37C188.917 261.212 188.525 261.024 188.142 260.807C188.201 260.703 188.167 260.57 188.063 260.508L187.794 260.341C187.527 260.169 187.266 259.982 187.011 259.779L186.973 259.755C186.882 259.708 186.768 259.729 186.701 259.81C186.375 259.538 186.059 259.241 185.757 258.915C185.847 258.833 185.855 258.695 185.774 258.603L185.565 258.36C185.497 258.278 185.429 258.194 185.361 258.108L184.932 257.56L184.9 257.528C184.822 257.461 184.705 257.457 184.62 257.522L183.748 256.411C183.844 256.335 183.861 256.197 183.785 256.1L182.926 255.005C182.85 254.908 182.71 254.891 182.613 254.967L181.742 253.855C181.838 253.78 181.856 253.64 181.78 253.544L180.921 252.449L180.89 252.417C180.811 252.35 180.693 252.344 180.608 252.41L179.737 251.3C179.833 251.224 179.85 251.084 179.774 250.988L178.915 249.893L178.884 249.86C178.805 249.794 178.687 249.789 178.603 249.855L177.73 248.744C177.827 248.668 177.844 248.529 177.769 248.432L176.909 247.337C176.833 247.241 176.694 247.223 176.598 247.299L175.726 246.187C175.822 246.112 175.839 245.973 175.764 245.877L174.904 244.781L174.873 244.749C174.794 244.682 174.676 244.677 174.592 244.743L173.72 243.633C173.816 243.557 173.833 243.418 173.758 243.321L172.898 242.225L172.867 242.193C172.788 242.126 172.67 242.121 172.586 242.187L171.715 241.076C171.811 241 171.829 240.861 171.753 240.765L170.894 239.67L170.862 239.637C170.784 239.57 170.665 239.565 170.581 239.631L169.709 238.519C169.805 238.444 169.823 238.305 169.747 238.209L168.888 237.113L168.856 237.081C168.778 237.014 168.66 237.01 168.575 237.076L167.703 235.965C167.8 235.889 167.817 235.75 167.741 235.653L167.312 235.105C167.253 235.031 167.154 235.001 167.064 235.032C166.975 235.063 166.915 235.148 166.915 235.242V235.907C166.915 236.029 167.014 236.129 167.137 236.129V237.456C167.014 237.456 166.915 237.555 166.915 237.678V239.006C166.915 239.128 167.014 239.228 167.137 239.228V240.555C167.014 240.555 166.915 240.655 166.915 240.777V242.105C166.915 242.228 167.014 242.327 167.137 242.327V243.654C167.014 243.654 166.915 243.754 166.915 243.877V245.205C166.915 245.327 167.014 245.426 167.137 245.427V246.754C167.014 246.754 166.915 246.853 166.915 246.975V248.304C166.915 248.426 167.014 248.526 167.137 248.526V249.853C167.014 249.854 166.915 249.953 166.915 250.075V251.403C166.915 251.526 167.014 251.626 167.137 251.626V252.952C167.014 252.952 166.915 253.052 166.915 253.175V254.503C166.915 254.625 167.014 254.724 167.137 254.724V256.052C167.014 256.052 166.915 256.152 166.915 256.274V257.602C166.915 257.725 167.014 257.824 167.137 257.824V259.151C167.014 259.151 166.915 259.251 166.915 259.373V260.701C166.915 260.824 167.014 260.923 167.137 260.924V262.251C167.014 262.251 166.915 262.35 166.915 262.473V263.137C166.915 263.371 166.91 263.604 166.898 263.835C166.893 263.956 166.985 264.06 167.106 264.067C167.076 264.553 167.021 265.033 166.943 265.505C166.824 265.485 166.711 265.566 166.689 265.685C166.607 266.147 166.501 266.601 166.375 267.046C166.342 267.163 166.41 267.283 166.525 267.318C166.386 267.783 166.225 268.238 166.042 268.682C165.93 268.636 165.801 268.688 165.753 268.8C165.614 269.122 165.465 269.438 165.304 269.747L165.14 270.054C165.081 270.16 165.119 270.293 165.224 270.353C164.984 270.773 164.724 271.18 164.445 271.573C164.359 271.512 164.244 271.521 164.168 271.59L164.138 271.623C163.862 271.999 163.569 272.361 163.259 272.708C163.178 272.799 163.185 272.937 163.274 273.019C162.948 273.375 162.604 273.714 162.244 274.036C162.174 273.957 162.059 273.94 161.97 273.99L161.934 274.016C161.67 274.244 161.398 274.464 161.118 274.674L160.836 274.88C160.737 274.95 160.713 275.087 160.782 275.186C160.386 275.46 159.976 275.715 159.553 275.95C159.501 275.857 159.393 275.815 159.295 275.845L159.254 275.862C158.845 276.081 158.424 276.281 157.992 276.462C157.88 276.509 157.827 276.637 157.872 276.75C157.426 276.928 156.97 277.086 156.504 277.222C156.47 277.105 156.35 277.037 156.233 277.069C155.787 277.192 155.332 277.294 154.87 277.375C154.75 277.396 154.669 277.509 154.688 277.629C154.216 277.704 153.736 277.757 153.25 277.787C153.243 277.666 153.14 277.572 153.019 277.578C152.787 277.589 152.554 277.595 152.319 277.595H151.642C151.519 277.595 151.419 277.694 151.419 277.816H150.055C150.054 277.694 149.956 277.595 149.833 277.595H148.477C148.354 277.595 148.255 277.694 148.255 277.816H146.891C146.89 277.694 146.79 277.595 146.668 277.595H145.312C145.189 277.595 145.09 277.694 145.09 277.816H143.726C143.725 277.694 143.626 277.595 143.504 277.595H142.147C142.025 277.595 141.925 277.694 141.925 277.816H140.561C140.56 277.694 140.461 277.595 140.339 277.595H138.982C138.86 277.595 138.761 277.694 138.761 277.816H137.396C137.396 277.694 137.296 277.595 137.174 277.595H135.817C135.695 277.595 135.596 277.694 135.596 277.816H134.231C134.231 277.694 134.132 277.595 134.01 277.595H132.653C132.531 277.595 132.431 277.694 132.431 277.816H131.066C131.066 277.694 130.967 277.595 130.845 277.595H129.488C129.366 277.595 129.267 277.694 129.267 277.816H127.902C127.902 277.694 127.802 277.595 127.68 277.595H126.323C126.201 277.595 126.102 277.694 126.102 277.816H124.737C124.737 277.694 124.638 277.595 124.516 277.595H123.837C123.609 277.595 123.382 277.59 123.156 277.581C123.035 277.576 122.931 277.67 122.925 277.791C122.457 277.766 121.994 277.72 121.537 277.657C121.554 277.537 121.472 277.425 121.352 277.407L120.679 277.291C120.456 277.247 120.235 277.199 120.016 277.146C119.897 277.118 119.777 277.191 119.748 277.309C119.295 277.195 118.849 277.06 118.412 276.909C118.452 276.795 118.394 276.669 118.279 276.628L117.643 276.383C117.433 276.297 117.225 276.207 117.02 276.113L116.978 276.099C116.877 276.075 116.772 276.124 116.727 276.221C116.305 276.02 115.894 275.802 115.493 275.568C115.554 275.464 115.521 275.329 115.417 275.266L114.841 274.903C114.651 274.778 114.465 274.649 114.281 274.516C114.182 274.445 114.045 274.467 113.973 274.565C113.599 274.288 113.237 273.994 112.889 273.686C112.969 273.596 112.962 273.458 112.872 273.376L112.378 272.908C112.216 272.749 112.059 272.586 111.904 272.42L111.87 272.391C111.787 272.331 111.67 272.336 111.592 272.407C111.279 272.063 110.981 271.706 110.698 271.336C110.795 271.262 110.816 271.125 110.743 271.027C110.473 270.664 110.218 270.288 109.979 269.902L109.952 269.866C109.882 269.792 109.767 269.773 109.676 269.828C109.437 269.43 109.213 269.022 109.009 268.603C109.119 268.551 109.166 268.42 109.114 268.309L108.838 267.689C108.75 267.48 108.666 267.269 108.587 267.056L108.567 267.016C108.513 266.928 108.404 266.888 108.304 266.924C108.149 266.488 108.011 266.043 107.894 265.591C108.012 265.561 108.084 265.442 108.055 265.323C107.947 264.886 107.858 264.441 107.787 263.99L107.776 263.946C107.741 263.85 107.641 263.788 107.536 263.804C107.471 263.347 107.424 262.885 107.398 262.417C107.52 262.411 107.614 262.308 107.609 262.186L107.595 261.506V260.842C107.595 260.719 107.496 260.619 107.373 260.619V259.293C107.496 259.293 107.595 259.193 107.595 259.07V257.742C107.595 257.62 107.496 257.52 107.373 257.52V256.193C107.48 256.193 107.57 256.118 107.591 256.016L107.595 255.972V254.643C107.595 254.521 107.496 254.421 107.373 254.421V253.095C107.496 253.095 107.595 252.995 107.595 252.872V251.544C107.595 251.421 107.496 251.322 107.373 251.322V249.995C107.48 249.995 107.57 249.919 107.591 249.818L107.595 249.773V248.445C107.595 248.323 107.496 248.223 107.373 248.223V246.896C107.496 246.896 107.595 246.796 107.595 246.674V245.346C107.595 245.223 107.496 245.124 107.373 245.124V243.797C107.48 243.797 107.57 243.721 107.591 243.62L107.595 243.575V242.247C107.595 242.124 107.496 242.024 107.373 242.024V240.698C107.496 240.698 107.595 240.598 107.595 240.475V239.147C107.595 239.025 107.496 238.926 107.373 238.926V237.599C107.48 237.599 107.57 237.523 107.591 237.422L107.595 237.377V236.049C107.595 235.926 107.496 235.826 107.373 235.826V234.5C107.496 234.5 107.595 234.4 107.595 234.277V232.949C107.595 232.827 107.496 232.727 107.373 232.727V231.4C107.48 231.4 107.57 231.325 107.591 231.224L107.595 231.179V229.85C107.595 229.728 107.496 229.628 107.373 229.628V228.302C107.496 228.302 107.595 228.202 107.595 228.079V226.751C107.595 226.628 107.496 226.529 107.373 226.529V225.202C107.48 225.202 107.57 225.126 107.591 225.025L107.595 224.98V223.652C107.595 223.53 107.496 223.43 107.373 223.43V222.103C107.496 222.103 107.595 222.003 107.595 221.881V220.553C107.595 220.43 107.496 220.331 107.373 220.331V219.004C107.48 219.004 107.57 218.928 107.591 218.827L107.595 218.782V217.454C107.595 217.331 107.496 217.231 107.373 217.231V215.905C107.496 215.905 107.595 215.805 107.595 215.682V214.354C107.595 214.232 107.496 214.133 107.373 214.133V212.806C107.48 212.806 107.57 212.73 107.591 212.629L107.595 212.584V211.256C107.595 211.133 107.496 211.033 107.373 211.033V209.707C107.496 209.707 107.595 209.607 107.595 209.484V208.156C107.595 208.034 107.496 207.934 107.373 207.934V206.607C107.48 206.607 107.57 206.532 107.591 206.431L107.595 206.386V205.057C107.595 204.935 107.496 204.835 107.373 204.835V203.509C107.496 203.509 107.595 203.409 107.595 203.286V201.958C107.595 201.835 107.496 201.736 107.373 201.736V200.409C107.48 200.409 107.57 200.333 107.591 200.232L107.595 200.187V199.523L107.609 198.843C107.615 198.721 107.52 198.617 107.398 198.611C107.424 198.143 107.471 197.68 107.536 197.224C107.641 197.239 107.741 197.178 107.776 197.082L107.787 197.039C107.858 196.588 107.947 196.143 108.055 195.705C108.084 195.586 108.012 195.466 107.894 195.436C108.011 194.984 108.149 194.54 108.304 194.104C108.418 194.146 108.544 194.087 108.587 193.973C108.666 193.759 108.75 193.549 108.838 193.34L109.114 192.72C109.167 192.609 109.119 192.476 109.009 192.424C109.213 192.005 109.437 191.597 109.676 191.199C109.767 191.254 109.882 191.237 109.952 191.162L109.979 191.127C110.218 190.741 110.473 190.365 110.743 190.001C110.816 189.903 110.796 189.765 110.698 189.691C110.981 189.321 111.279 188.964 111.592 188.62C111.67 188.692 111.786 188.697 111.87 188.638L111.904 188.608C112.059 188.443 112.217 188.28 112.378 188.121L112.872 187.653C112.963 187.571 112.97 187.432 112.889 187.341C113.237 187.033 113.598 186.739 113.972 186.462C114.044 186.561 114.182 186.583 114.281 186.512C114.465 186.379 114.652 186.251 114.841 186.126L115.417 185.763C115.522 185.7 115.555 185.564 115.493 185.459C115.893 185.225 116.304 185.008 116.726 184.807C116.771 184.904 116.877 184.953 116.978 184.93L117.02 184.916C117.225 184.822 117.433 184.731 117.643 184.645L118.279 184.4C118.394 184.359 118.452 184.234 118.412 184.119C118.849 183.968 119.295 183.833 119.748 183.719C119.773 183.822 119.868 183.891 119.971 183.888L120.016 183.882C120.235 183.829 120.456 183.782 120.679 183.738L121.352 183.621C121.472 183.602 121.554 183.49 121.537 183.37C121.994 183.307 122.457 183.263 122.925 183.237C122.931 183.359 123.034 183.453 123.156 183.448C123.382 183.439 123.609 183.433 123.837 183.433H124.508C124.615 183.433 124.704 183.358 124.725 183.257L124.729 183.212H126.073C126.073 183.334 126.172 183.433 126.295 183.433H127.636C127.758 183.433 127.857 183.334 127.857 183.212H129.201C129.201 183.334 129.3 183.433 129.423 183.433H130.764C130.886 183.433 130.985 183.334 130.985 183.212H132.329C132.329 183.334 132.428 183.433 132.551 183.433H133.892C133.999 183.433 134.089 183.358 134.109 183.257L134.114 183.212H135.457C135.457 183.334 135.557 183.433 135.68 183.433H137.02C137.127 183.433 137.217 183.358 137.237 183.257L137.242 183.212H138.585C138.585 183.334 138.685 183.433 138.808 183.433H140.148C140.271 183.433 140.37 183.334 140.37 183.212H141.714C141.714 183.334 141.813 183.433 141.936 183.433H143.276C143.399 183.433 143.498 183.334 143.498 183.212H144.842C144.842 183.334 144.941 183.433 145.063 183.433H146.404C146.512 183.433 146.601 183.358 146.622 183.257L146.627 183.212H147.97C147.97 183.334 148.07 183.433 148.192 183.433H149.532C149.639 183.433 149.729 183.358 149.75 183.257L149.755 183.212H151.098C151.098 183.334 151.198 183.433 151.32 183.433H152.661C152.768 183.433 152.857 183.358 152.878 183.257L152.883 183.212H154.227C154.227 183.334 154.326 183.433 154.448 183.433H155.789C155.912 183.433 156.011 183.334 156.011 183.212H157.354C157.354 183.334 157.454 183.433 157.576 183.433H158.917C159.04 183.433 159.139 183.334 159.139 183.212H160.482C160.482 183.334 160.582 183.433 160.704 183.433H162.045C162.152 183.433 162.242 183.358 162.263 183.257L162.268 183.212H163.61C163.61 183.334 163.71 183.433 163.833 183.433H165.174C165.281 183.433 165.37 183.358 165.391 183.257L165.396 183.212H166.739C166.739 183.334 166.838 183.433 166.961 183.433H168.302C168.424 183.433 168.523 183.334 168.523 183.212H169.867C169.867 183.334 169.966 183.433 170.089 183.433H171.43C171.552 183.433 171.651 183.334 171.651 183.212H172.995C172.995 183.334 173.094 183.433 173.217 183.433H174.558C174.665 183.433 174.755 183.358 174.775 183.257L174.78 183.212H176.123C176.123 183.334 176.223 183.433 176.346 183.433H177.686C177.793 183.433 177.883 183.358 177.903 183.257L177.908 183.212H179.251C179.251 183.334 179.351 183.433 179.474 183.433H180.814C180.937 183.433 181.036 183.334 181.036 183.212H182.38C182.38 183.334 182.479 183.433 182.602 183.433H183.942C184.065 183.433 184.164 183.334 184.164 183.212H185.508ZM184.242 235.782L185.114 236.892C185.018 236.968 185.001 237.109 185.077 237.205L185.937 238.3C186.012 238.396 186.152 238.413 186.248 238.338L187.119 239.449H187.12C187.024 239.525 187.007 239.664 187.083 239.761L187.942 240.856C188.018 240.952 188.157 240.968 188.253 240.893L189.125 242.005C189.029 242.08 189.013 242.22 189.088 242.316L189.519 242.864C189.577 242.938 189.676 242.968 189.766 242.937C189.833 242.914 189.883 242.861 189.904 242.796L189.915 242.727V242.065C189.915 241.943 189.815 241.844 189.692 241.844V240.524C189.8 240.524 189.889 240.449 189.91 240.348L189.915 240.303V238.979C189.915 238.857 189.815 238.758 189.692 238.758V237.438C189.8 237.438 189.89 237.362 189.91 237.261L189.915 237.217V235.893C189.915 235.771 189.815 235.672 189.692 235.672V234.352C189.8 234.352 189.89 234.276 189.91 234.175L189.915 234.131V232.807C189.915 232.685 189.815 232.586 189.692 232.586V231.266C189.8 231.266 189.89 231.19 189.91 231.089L189.915 231.045V229.722C189.915 229.599 189.815 229.5 189.692 229.5V228.181C189.8 228.181 189.89 228.104 189.91 228.003L189.915 227.958V226.636C189.915 226.513 189.815 226.414 189.692 226.414V225.095C189.8 225.095 189.89 225.018 189.91 224.917L189.915 224.872V223.55C189.915 223.427 189.815 223.328 189.692 223.328V222.009C189.8 222.009 189.889 221.932 189.91 221.831L189.915 221.786V220.464C189.915 220.341 189.815 220.242 189.692 220.242V218.923C189.8 218.923 189.889 218.846 189.91 218.745L189.915 218.7V217.378C189.915 217.255 189.815 217.156 189.692 217.156V215.837C189.8 215.837 189.889 215.76 189.91 215.659L189.915 215.614V214.292C189.915 214.169 189.815 214.069 189.692 214.069V212.751C189.8 212.751 189.889 212.674 189.91 212.573L189.915 212.528V211.206C189.915 211.083 189.815 210.983 189.692 210.983V209.664C189.8 209.664 189.889 209.588 189.91 209.487L189.915 209.442V208.12C189.915 207.997 189.815 207.897 189.692 207.897V206.578C189.8 206.578 189.889 206.502 189.91 206.401L189.915 206.356V205.034C189.915 204.911 189.815 204.811 189.692 204.811V203.492C189.8 203.492 189.889 203.416 189.91 203.315L189.915 203.27V201.948C189.915 201.825 189.815 201.725 189.692 201.725V200.406C189.8 200.406 189.889 200.33 189.91 200.229L189.915 200.184V199.523L189.919 198.61L189.914 198.565C189.893 198.464 189.804 198.388 189.696 198.389C189.695 198.389 189.694 198.389 189.692 198.389C189.677 197.573 189.583 196.913 189.119 196.555C189.123 196.548 189.128 196.543 189.132 196.536C189.187 196.427 189.143 196.294 189.034 196.238L188.932 196.191C188.687 196.089 188.393 196.039 188.046 196.039H187.392C187.269 196.039 187.169 196.138 187.169 196.261H185.866C185.866 196.138 185.766 196.039 185.644 196.039H184.334C184.211 196.039 184.111 196.138 184.111 196.261H182.809C182.809 196.138 182.709 196.039 182.586 196.039H181.276C181.154 196.039 181.054 196.138 181.054 196.261H179.751C179.751 196.138 179.651 196.039 179.528 196.039H178.219C178.096 196.039 177.996 196.138 177.996 196.261H176.693C176.693 196.138 176.594 196.039 176.472 196.039H175.161C175.039 196.039 174.939 196.138 174.938 196.261H173.636C173.636 196.138 173.536 196.039 173.414 196.039H172.104C171.981 196.039 171.881 196.138 171.881 196.261H170.578C170.578 196.138 170.479 196.039 170.356 196.039H169.046C168.923 196.039 168.823 196.138 168.823 196.261H167.521C167.52 196.138 167.421 196.039 167.299 196.039H165.988C165.866 196.039 165.766 196.138 165.766 196.261H164.463C164.463 196.138 164.364 196.039 164.241 196.039H162.931C162.808 196.039 162.708 196.138 162.708 196.261H161.405C161.405 196.138 161.306 196.039 161.184 196.039H159.873C159.75 196.039 159.65 196.138 159.65 196.261H158.348C158.348 196.138 158.248 196.039 158.126 196.039H156.815C156.693 196.039 156.593 196.138 156.593 196.261H155.29C155.29 196.138 155.191 196.039 155.068 196.039H153.758C153.635 196.039 153.535 196.138 153.535 196.261H152.232C152.232 196.138 152.133 196.039 152.011 196.039H150.7C150.578 196.039 150.478 196.138 150.478 196.261H149.175C149.175 196.138 149.076 196.039 148.953 196.039H147.643C147.52 196.039 147.421 196.138 147.421 196.261H146.117C146.117 196.138 146.018 196.039 145.896 196.039H144.585C144.462 196.039 144.363 196.138 144.363 196.261H143.06C143.06 196.138 142.96 196.039 142.838 196.039H141.527C141.405 196.039 141.306 196.138 141.306 196.261H140.002C140.002 196.138 139.903 196.039 139.78 196.039H138.47C138.347 196.039 138.248 196.138 138.248 196.261H136.944C136.944 196.138 136.845 196.039 136.723 196.039H135.412C135.29 196.039 135.19 196.138 135.19 196.261H133.887C133.887 196.138 133.788 196.039 133.665 196.039H132.354C132.232 196.039 132.133 196.138 132.133 196.261H130.829C130.829 196.138 130.73 196.039 130.607 196.039H129.297C129.174 196.039 129.075 196.138 129.075 196.261H127.771C127.771 196.138 127.672 196.039 127.55 196.039H126.239C126.117 196.039 126.018 196.138 126.018 196.261H124.714C124.714 196.138 124.615 196.039 124.492 196.039H123.837C123.638 196.039 123.442 196.055 123.251 196.087C123.13 196.107 123.048 196.222 123.068 196.343C123.069 196.345 123.07 196.347 123.07 196.349C122.731 196.43 122.412 196.562 122.123 196.737C122.122 196.735 122.121 196.732 122.119 196.73C122.057 196.642 121.943 196.613 121.849 196.654L121.81 196.677C121.568 196.846 121.349 197.045 121.157 197.268L120.976 197.5C120.904 197.599 120.926 197.738 121.025 197.809C121.027 197.811 121.03 197.811 121.031 197.812C120.852 198.1 120.718 198.419 120.636 198.757C120.633 198.756 120.631 198.755 120.628 198.755C120.522 198.737 120.421 198.797 120.384 198.893L120.372 198.936C120.339 199.127 120.322 199.324 120.322 199.523V200.187C120.322 200.31 120.422 200.409 120.544 200.409V201.736C120.421 201.736 120.322 201.835 120.322 201.958V203.286C120.322 203.409 120.421 203.509 120.544 203.509V204.835C120.421 204.835 120.322 204.935 120.322 205.057V206.386C120.322 206.508 120.422 206.607 120.544 206.607V207.934C120.421 207.935 120.322 208.034 120.322 208.156V209.484C120.322 209.607 120.421 209.707 120.544 209.707V211.033C120.421 211.033 120.322 211.133 120.322 211.256V212.584C120.322 212.706 120.422 212.805 120.544 212.806V214.133C120.421 214.133 120.322 214.232 120.322 214.354V215.682C120.322 215.805 120.421 215.905 120.544 215.905V217.231C120.421 217.231 120.322 217.331 120.322 217.454V218.782C120.322 218.905 120.422 219.004 120.544 219.004V220.331C120.421 220.331 120.322 220.43 120.322 220.553V221.881C120.322 222.003 120.421 222.103 120.544 222.103V223.43C120.421 223.43 120.322 223.53 120.322 223.652V224.98C120.322 225.103 120.422 225.202 120.544 225.202V226.529C120.421 226.529 120.322 226.628 120.322 226.751V228.079C120.322 228.202 120.421 228.301 120.544 228.302V229.628C120.421 229.628 120.322 229.728 120.322 229.85V231.179C120.322 231.301 120.422 231.4 120.544 231.4V232.727C120.421 232.728 120.322 232.827 120.322 232.949V234.277C120.322 234.4 120.421 234.5 120.544 234.5V235.826C120.421 235.826 120.322 235.926 120.322 236.049V237.377C120.322 237.499 120.422 237.598 120.544 237.599V238.926C120.421 238.926 120.322 239.025 120.322 239.147V240.475C120.322 240.598 120.421 240.698 120.544 240.698V242.024C120.421 242.024 120.322 242.124 120.322 242.247V243.575C120.322 243.698 120.421 243.797 120.544 243.797V245.124C120.421 245.124 120.322 245.223 120.322 245.346V246.674C120.322 246.796 120.421 246.896 120.544 246.896V248.223C120.421 248.223 120.322 248.323 120.322 248.445V249.773C120.322 249.896 120.421 249.995 120.544 249.995V251.322C120.421 251.322 120.322 251.421 120.322 251.544V252.872C120.322 252.995 120.421 253.094 120.544 253.095V254.421C120.421 254.421 120.322 254.521 120.322 254.643V255.972C120.322 256.094 120.421 256.193 120.544 256.193V257.52C120.421 257.521 120.322 257.62 120.322 257.742V259.07C120.322 259.193 120.421 259.293 120.544 259.293V260.619C120.421 260.619 120.322 260.719 120.322 260.842V261.506C120.322 261.705 120.339 261.901 120.372 262.092C120.393 262.213 120.507 262.294 120.628 262.273C120.631 262.273 120.633 262.271 120.636 262.27C120.718 262.609 120.852 262.927 121.031 263.215C121.029 263.216 121.027 263.217 121.025 263.219C120.926 263.29 120.904 263.43 120.976 263.529C121.205 263.848 121.487 264.126 121.81 264.352C121.91 264.423 122.049 264.398 122.119 264.298C122.121 264.296 122.121 264.293 122.122 264.291C122.412 264.466 122.731 264.597 123.07 264.678C123.07 264.68 123.069 264.684 123.068 264.686C123.048 264.807 123.13 264.921 123.251 264.941C123.442 264.973 123.638 264.99 123.837 264.99H124.527C124.634 264.99 124.723 264.913 124.744 264.812L124.749 264.767H126.145C126.145 264.89 126.244 264.99 126.366 264.99H127.746C127.853 264.99 127.943 264.914 127.964 264.812L127.969 264.767H129.364L129.369 264.812C129.39 264.913 129.479 264.99 129.586 264.99H130.966C131.073 264.99 131.163 264.914 131.184 264.812L131.188 264.767H132.584L132.588 264.812C132.609 264.914 132.698 264.99 132.806 264.99H134.186C134.293 264.99 134.383 264.914 134.403 264.812L134.408 264.767H135.804L135.808 264.812C135.828 264.914 135.918 264.99 136.025 264.99H137.405C137.528 264.99 137.627 264.89 137.627 264.767H139.023L139.027 264.812C139.048 264.914 139.138 264.99 139.245 264.99H140.625C140.748 264.99 140.847 264.89 140.847 264.767H142.242C142.242 264.89 142.342 264.99 142.465 264.99H143.845C143.967 264.99 144.066 264.89 144.066 264.767H145.462C145.462 264.89 145.562 264.99 145.685 264.99H147.064C147.187 264.99 147.286 264.89 147.286 264.767H148.682C148.682 264.89 148.782 264.99 148.904 264.99H150.284C150.407 264.99 150.506 264.89 150.506 264.767H151.901C151.901 264.89 152.001 264.99 152.124 264.99H152.813C152.971 264.99 153.116 264.971 153.249 264.932L153.377 264.886C153.49 264.838 153.543 264.708 153.496 264.596C153.493 264.587 153.487 264.579 153.482 264.571C153.701 264.408 153.828 264.151 153.897 263.841C153.901 263.841 153.905 263.843 153.908 263.844C154.03 263.859 154.141 263.774 154.157 263.652C154.168 263.569 154.176 263.485 154.181 263.398L154.188 263.137V262.469C154.188 262.346 154.088 262.247 153.966 262.247V260.909C154.073 260.909 154.163 260.833 154.184 260.732L154.188 260.687V259.351C154.188 259.229 154.088 259.13 153.966 259.13V257.792C154.073 257.792 154.163 257.716 154.184 257.615L154.188 257.57V256.234C154.188 256.112 154.088 256.013 153.966 256.013V254.676C154.073 254.676 154.163 254.599 154.184 254.498L154.188 254.453V253.117C154.188 252.994 154.088 252.895 153.966 252.895V251.558C154.073 251.558 154.163 251.482 154.184 251.381L154.188 251.336V250C154.188 249.877 154.088 249.778 153.966 249.778V248.441C154.073 248.441 154.163 248.365 154.184 248.264L154.188 248.219V246.883C154.188 246.76 154.088 246.661 153.966 246.661V245.324C154.073 245.324 154.163 245.248 154.184 245.146L154.188 245.101V243.766C154.188 243.643 154.088 243.544 153.966 243.544V242.207C154.073 242.207 154.163 242.13 154.184 242.029L154.188 241.984V240.648C154.188 240.526 154.088 240.427 153.966 240.427V239.09C154.073 239.09 154.163 239.013 154.184 238.912L154.188 238.867V237.531C154.188 237.409 154.088 237.309 153.966 237.309V235.973C154.073 235.973 154.163 235.896 154.184 235.795L154.188 235.75V234.414C154.188 234.291 154.088 234.192 153.966 234.192V232.855C154.073 232.855 154.163 232.779 154.184 232.678L154.188 232.633V231.297C154.188 231.174 154.088 231.075 153.966 231.075V229.738C154.073 229.738 154.163 229.662 154.184 229.56L154.188 229.516V228.18C154.188 228.057 154.088 227.958 153.966 227.958V226.621C154.073 226.621 154.163 226.544 154.184 226.443L154.188 226.398V225.73C154.188 225.622 154.19 225.513 154.193 225.406L154.208 225.087C154.215 224.965 154.123 224.86 154.002 224.851C154.039 224.408 154.104 223.979 154.193 223.563C154.297 223.587 154.4 223.535 154.443 223.442L154.458 223.399C154.534 223.082 154.625 222.774 154.73 222.474L154.841 222.179C154.885 222.065 154.831 221.937 154.719 221.891C154.889 221.486 155.084 221.098 155.304 220.729C155.407 220.793 155.543 220.761 155.607 220.658C155.779 220.385 155.964 220.123 156.161 219.872L156.362 219.625C156.44 219.532 156.429 219.394 156.337 219.314C156.626 218.987 156.936 218.682 157.264 218.398C157.332 218.479 157.447 218.5 157.537 218.452L157.574 218.427C157.904 218.154 158.251 217.904 158.613 217.678C158.717 217.613 158.748 217.478 158.685 217.374C159.058 217.152 159.446 216.954 159.845 216.781C159.886 216.879 159.989 216.931 160.09 216.912L160.134 216.899C160.43 216.778 160.733 216.671 161.04 216.578L161.348 216.49C161.465 216.459 161.535 216.339 161.505 216.222C161.927 216.118 162.356 216.04 162.788 215.99C162.8 216.111 162.908 216.201 163.029 216.189C163.454 216.15 163.882 216.138 164.31 216.154C164.431 216.159 164.533 216.064 164.539 215.943C164.971 215.969 165.403 216.025 165.831 216.108C165.807 216.227 165.883 216.343 166.002 216.369C166.416 216.46 166.826 216.58 167.229 216.728C167.344 216.77 167.469 216.712 167.513 216.599C167.912 216.757 168.304 216.945 168.688 217.161C168.628 217.266 168.663 217.4 168.767 217.462C169.127 217.677 169.479 217.92 169.819 218.191C169.914 218.267 170.052 218.252 170.129 218.158C170.455 218.43 170.771 218.728 171.072 219.054C170.982 219.135 170.975 219.275 171.056 219.366C171.196 219.525 171.334 219.69 171.469 219.861L171.898 220.409C171.974 220.505 172.113 220.521 172.209 220.446L173.081 221.557H173.082C172.986 221.633 172.969 221.773 173.045 221.869L173.904 222.965C173.98 223.061 174.119 223.078 174.216 223.003V223.002L175.087 224.113C174.991 224.189 174.974 224.329 175.05 224.426L175.909 225.52C175.985 225.617 176.124 225.634 176.221 225.558L177.093 226.669V226.67C176.997 226.746 176.98 226.885 177.056 226.981L177.915 228.077C177.991 228.173 178.129 228.189 178.226 228.114L179.098 229.225H179.099C179.002 229.301 178.985 229.441 179.061 229.537L179.921 230.633C179.997 230.729 180.135 230.745 180.231 230.67L181.104 231.781C181.007 231.857 180.991 231.996 181.066 232.093L181.926 233.188C182.001 233.285 182.14 233.301 182.236 233.225L183.108 234.337C183.012 234.413 182.997 234.553 183.072 234.649L183.932 235.744C184.007 235.84 184.146 235.857 184.242 235.782Z" fill="#282828" stroke="#707070" stroke-width="0.444155" stroke-linecap="round" stroke-linejoin="round" stroke-dasharray="1.33 1.78"/>
</g>
<g filter="url(#filter1_d_744_1355)">
<rect x="216.359" y="88.4706" width="284.576" height="284.576" rx="53.0232" fill="#1C1C1C" stroke="#343434" stroke-width="1.07125"/>
<g clip-path="url(#clip1_744_1355)">
<path d="M370.486 298.914C366.864 303.465 359.52 300.972 359.433 295.16L358.157 210.16H415.433C425.808 210.16 431.594 222.116 425.143 230.224L370.486 298.914Z" fill="url(#paint0_linear_744_1355)"/>
<path d="M370.486 298.914C366.864 303.465 359.52 300.972 359.433 295.16L358.157 210.16H415.433C425.808 210.16 431.594 222.116 425.143 230.224L370.486 298.914Z" fill="url(#paint1_linear_744_1355)" fill-opacity="0.2"/>
<path d="M347.191 162.141C350.813 157.589 358.157 160.083 358.244 165.895L358.803 250.895H302.243C291.869 250.895 286.083 238.938 292.534 230.831L347.191 162.141Z" fill="#3ECF8E"/>
</g>
</g>
<path d="M352.49 101.406C352.49 104.352 354.878 106.74 357.824 106.74C360.769 106.74 363.157 104.352 363.157 101.406C363.157 98.4607 360.769 96.0729 357.824 96.0729C354.878 96.0729 352.49 98.4607 352.49 101.406ZM155.824 144H156.824V71H155.824H154.824V144H155.824ZM176.824 50V51H336.824V50V49H176.824V50ZM357.824 71H356.824V101.406H357.824H358.824V71H357.824ZM336.824 50V51C347.869 51 356.824 59.9543 356.824 71H357.824H358.824C358.824 58.8497 348.974 49 336.824 49V50ZM155.824 71H156.824C156.824 59.9543 165.778 51 176.824 51V50V49C164.673 49 154.824 58.8497 154.824 71H155.824Z" fill="url(#paint2_linear_744_1355)"/>
<defs>
<filter id="filter0_d_744_1355" x="65.9474" y="141.059" width="180.779" height="181.506" filterUnits="userSpaceOnUse" color-interpolation-filters="sRGB">
<feFlood flood-opacity="0" result="BackgroundImageFix"/>
<feColorMatrix in="SourceAlpha" type="matrix" values="0 0 0 0 0 0 0 0 0 0 0 0 0 0 0 0 0 0 127 0" result="hardAlpha"/>
<feOffset dx="0.958705" dy="0.958705"/>
<feGaussianBlur stdDeviation="1.91741"/>
<feComposite in2="hardAlpha" operator="out"/>
<feColorMatrix type="matrix" values="0 0 0 0 0 0 0 0 0 0 0 0 0 0 0 0 0 0 0.15 0"/>
<feBlend mode="normal" in2="BackgroundImageFix" result="effect1_dropShadow_744_1355"/>
<feBlend mode="normal" in="SourceGraphic" in2="effect1_dropShadow_744_1355" result="shape"/>
</filter>
<filter id="filter1_d_744_1355" x="203.824" y="79.935" width="309.647" height="309.647" filterUnits="userSpaceOnUse" color-interpolation-filters="sRGB">
<feFlood flood-opacity="0" result="BackgroundImageFix"/>
<feColorMatrix in="SourceAlpha" type="matrix" values="0 0 0 0 0 0 0 0 0 0 0 0 0 0 0 0 0 0 127 0" result="hardAlpha"/>
<feOffset dy="4"/>
<feGaussianBlur stdDeviation="6"/>
<feComposite in2="hardAlpha" operator="out"/>
<feColorMatrix type="matrix" values="0 0 0 0 0 0 0 0 0 0 0 0 0 0 0 0 0 0 0.06 0"/>
<feBlend mode="normal" in2="BackgroundImageFix" result="effect1_dropShadow_744_1355"/>
<feBlend mode="normal" in="SourceGraphic" in2="effect1_dropShadow_744_1355" result="shape"/>
</filter>
<linearGradient id="paint0_linear_744_1355" x1="358.157" y1="229.006" x2="409.03" y2="250.388" gradientUnits="userSpaceOnUse">
<stop stop-color="#249361"/>
<stop offset="1" stop-color="#3ECF8E"/>
</linearGradient>
<linearGradient id="paint1_linear_744_1355" x1="335.588" y1="198.172" x2="358.726" y2="241.821" gradientUnits="userSpaceOnUse">
<stop/>
<stop offset="1" stop-opacity="0"/>
</linearGradient>
<linearGradient id="paint2_linear_744_1355" x1="153.824" y1="126.746" x2="392.405" y2="115.784" gradientUnits="userSpaceOnUse">
<stop stop-color="#1C1C1C"/>
<stop offset="1" stop-color="#EDEDED"/>
</linearGradient>
<clipPath id="clip0_744_1355">
<rect width="95.4932" height="94.6049" fill="white" transform="translate(107.373 183.212)"/>
</clipPath>
<clipPath id="clip1_744_1355">
<rect width="138.063" height="142.823" fill="white" transform="translate(289.792 159.523)"/>
</clipPath>
</defs>
</svg>
