<svg xmlns="http://www.w3.org/2000/svg" width="459" height="252" fill="none" viewBox="0 0 459 252"><g clip-path="url(#a)"><g clip-path="url(#b)"><rect width="553" height="192" x="31" y="32" fill="#f8f8f8" rx="4"/><g clip-path="url(#c)"><path fill="#fcfcfc" d="M31 32h553v48H31z"/><mask id="d" fill="#fff"><path d="M31 32h166.667v48H31z"/></mask><path fill="#dfdfdf" d="M197.667 80v-1H31v2h166.667z" mask="url(#d)"/><path fill="#b2b2b2" d="M44.4 57.32c0-.78.6-1.4 1.38-1.4s1.4.62 1.4 1.4-.62 1.38-1.4 1.38-1.38-.6-1.38-1.38m8.586 0c0-.78.6-1.4 1.38-1.4s1.4.62 1.4 1.4-.62 1.38-1.4 1.38-1.38-.6-1.38-1.38m8.586 0c0-.78.6-1.4 1.38-1.4s1.4.62 1.4 1.4-.62 1.38-1.4 1.38-1.38-.6-1.38-1.38m8.586 0c0-.78.6-1.4 1.38-1.4s1.4.62 1.4 1.4-.62 1.38-1.4 1.38-1.38-.6-1.38-1.38m8.586 0c0-.78.6-1.4 1.38-1.4s1.4.62 1.4 1.4-.62 1.38-1.4 1.38-1.38-.6-1.38-1.38m16.586 0c0-.78.6-1.4 1.38-1.4s1.4.62 1.4 1.4-.62 1.38-1.4 1.38-1.38-.6-1.38-1.38m8.586 0c0-.78.6-1.4 1.38-1.4s1.4.62 1.4 1.4-.62 1.38-1.4 1.38-1.38-.6-1.38-1.38m8.586 0c0-.78.6-1.4 1.38-1.4s1.4.62 1.4 1.4-.62 1.38-1.4 1.38-1.38-.6-1.38-1.38"/><mask id="e" fill="#fff"><path d="M197.667 32h166.666v48H197.667z"/></mask><path fill="#dfdfdf" d="M364.333 80v-1H197.667v2h166.666z" mask="url(#e)"/><path fill="#b2b2b2" d="M211.067 57.32c0-.78.6-1.4 1.38-1.4s1.4.62 1.4 1.4-.62 1.38-1.4 1.38-1.38-.6-1.38-1.38m8.585 0c0-.78.6-1.4 1.38-1.4s1.4.62 1.4 1.4-.62 1.38-1.4 1.38-1.38-.6-1.38-1.38m8.586 0c0-.78.6-1.4 1.38-1.4s1.4.62 1.4 1.4-.62 1.38-1.4 1.38-1.38-.6-1.38-1.38m8.586 0c0-.78.6-1.4 1.38-1.4s1.4.62 1.4 1.4-.62 1.38-1.4 1.38-1.38-.6-1.38-1.38m8.586 0c0-.78.6-1.4 1.38-1.4s1.4.62 1.4 1.4-.62 1.38-1.4 1.38-1.38-.6-1.38-1.38m8.586 0c0-.78.6-1.4 1.38-1.4s1.4.62 1.4 1.4-.62 1.38-1.4 1.38-1.38-.6-1.38-1.38m8.586 0c0-.78.6-1.4 1.38-1.4s1.4.62 1.4 1.4-.62 1.38-1.4 1.38-1.38-.6-1.38-1.38m8.586 0c0-.78.6-1.4 1.38-1.4s1.4.62 1.4 1.4-.62 1.38-1.4 1.38-1.38-.6-1.38-1.38m8.586 0c0-.78.6-1.4 1.38-1.4s1.4.62 1.4 1.4-.62 1.38-1.4 1.38-1.38-.6-1.38-1.38m8.586 0c0-.78.6-1.4 1.38-1.4s1.4.62 1.4 1.4-.62 1.38-1.4 1.38-1.38-.6-1.38-1.38"/><mask id="f" fill="#fff"><path d="M364.333 32H531v48H364.333z"/></mask><path fill="#dfdfdf" d="M531 80v-1H364.333v2H531z" mask="url(#f)"/><path fill="#b2b2b2" d="M377.733 57.32c0-.78.6-1.4 1.38-1.4s1.4.62 1.4 1.4-.62 1.38-1.4 1.38-1.38-.6-1.38-1.38m8.586 0c0-.78.6-1.4 1.38-1.4s1.4.62 1.4 1.4-.62 1.38-1.4 1.38-1.38-.6-1.38-1.38m8.586 0c0-.78.6-1.4 1.38-1.4s1.4.62 1.4 1.4-.62 1.38-1.4 1.38-1.38-.6-1.38-1.38m8.586 0c0-.78.6-1.4 1.38-1.4s1.4.62 1.4 1.4-.62 1.38-1.4 1.38-1.38-.6-1.38-1.38m8.586 0c0-.78.6-1.4 1.38-1.4s1.4.62 1.4 1.4-.62 1.38-1.4 1.38-1.38-.6-1.38-1.38m8.586 0c0-.78.6-1.4 1.38-1.4s1.4.62 1.4 1.4-.62 1.38-1.4 1.38-1.38-.6-1.38-1.38"/></g><g clip-path="url(#g)"><path fill="#f3f3f3" d="M31 80h553v48H31z"/><mask id="h" fill="#fff"><path d="M31 80h166.667v48H31z"/></mask><path fill="#dfdfdf" d="M197.667 128v-1H31v2h166.667z" mask="url(#h)"/><path fill="#171717" d="M51.148 100.348H47.83V109h-1.372v-8.652H43.14v-1.274h8.008zm1.953 11.466h-1.442l1.68-3.556-2.898-5.992h1.512l2.1 4.648 2.016-4.648h1.414zM60.065 109h-1.316V98.864h1.316zm3.093-4.06h3.682c-.028-.966-.658-1.722-1.848-1.722-1.106 0-1.778.854-1.834 1.722m3.878 1.75 1.134.392c-.378 1.19-1.456 2.128-3.024 2.128-1.806 0-3.388-1.316-3.388-3.598 0-2.114 1.526-3.556 3.22-3.556 2.072 0 3.234 1.428 3.234 3.528 0 .168-.014.336-.028.42h-5.068c.028 1.204.896 2.044 2.03 2.044 1.092 0 1.638-.602 1.89-1.358m6.593-4.494v1.4a4 4 0 0 0-.574-.042c-1.106 0-1.848.588-1.848 2.072V109h-1.315v-6.734h1.288v1.176c.49-1.036 1.33-1.288 2.015-1.288.183 0 .365.028.434.042M80.045 109h-1.372v-9.926h6.034v1.274h-4.662v3.192h4.228v1.288h-4.228zm8.59-.966c1.12 0 2.1-.84 2.1-2.408 0-1.554-.98-2.394-2.1-2.394s-2.1.84-2.1 2.394c0 1.568.98 2.408 2.1 2.408m0-5.978c2.017 0 3.445 1.526 3.445 3.57 0 2.058-1.428 3.584-3.444 3.584s-3.444-1.526-3.444-3.584c0-2.044 1.428-3.57 3.444-3.57m6.445 3.052V109h-1.316v-6.734h1.288v.966c.49-.84 1.288-1.162 2.072-1.162 1.61 0 2.408 1.162 2.408 2.66V109h-1.316v-4.046c0-.938-.392-1.694-1.568-1.694-1.036 0-1.568.826-1.568 1.848m8.309-4.97v2.128h1.456v1.19h-1.456v3.5c0 .616.252.924.938.924.168 0 .406-.028.518-.056v1.12a2.9 2.9 0 0 1-.896.126c-1.148 0-1.876-.7-1.876-1.918v-3.696h-1.288v-1.19h.364c.728 0 1.036-.448 1.036-1.036v-1.092zm2.792 7.056c0-1.204.882-1.876 2.044-2.044l1.82-.266c.406-.056.518-.266.518-.504 0-.658-.434-1.204-1.456-1.204-.924 0-1.442.574-1.526 1.358l-1.26-.294c.14-1.288 1.302-2.184 2.758-2.184 2.016 0 2.8 1.148 2.8 2.464v3.374c0 .588.056.938.084 1.106h-1.288a5 5 0 0 1-.07-.91c-.294.476-.966 1.12-2.17 1.12-1.372 0-2.254-.952-2.254-2.016m2.436.91c1.078 0 1.946-.518 1.946-1.988v-.308l-2.058.308c-.56.084-.98.406-.98 1.008 0 .504.42.98 1.092.98m6.615.896h-1.302v-6.734h1.302zm-1.596-9.282c0-.532.42-.952.938-.952.532 0 .952.42.952.952 0 .518-.42.938-.952.938a.94.94 0 0 1-.938-.938m5.151 5.39V109h-1.316v-6.734h1.288v.966c.49-.84 1.288-1.162 2.072-1.162 1.61 0 2.408 1.162 2.408 2.66V109h-1.316v-4.046c0-.938-.392-1.694-1.568-1.694-1.036 0-1.568.826-1.568 1.848m7.399-.168h3.682c-.028-.966-.658-1.722-1.848-1.722-1.106 0-1.778.854-1.834 1.722m3.878 1.75 1.134.392c-.378 1.19-1.456 2.128-3.024 2.128-1.806 0-3.388-1.316-3.388-3.598 0-2.114 1.526-3.556 3.22-3.556 2.072 0 3.234 1.428 3.234 3.528 0 .168-.014.336-.028.42h-5.068c.028 1.204.896 2.044 2.03 2.044 1.092 0 1.638-.602 1.89-1.358"/><mask id="i" fill="#fff"><path d="M197.667 80h166.666v48H197.667z"/></mask><path fill="#dfdfdf" d="M364.333 128v-1H197.667v2h166.666z" mask="url(#i)"/><path fill="#171717" d="M218.081 107.082c-.658 0-1.232-.28-1.386-.896-.42.602-1.064.924-1.666.924-1.26 0-2.142-.952-2.142-2.394 0-1.876 1.288-3.262 2.8-3.262.588 0 1.288.294 1.498.924l.126-.742h1.106l-.756 3.514a2 2 0 0 0-.042.392c0 .322.14.574.532.574.784 0 1.512-1.26 1.512-2.66 0-2.044-1.554-3.57-3.92-3.57-2.464 0-4.298 1.792-4.298 4.466 0 2.45 1.652 4.284 4.452 4.284 1.022 0 2.03-.308 2.87-.98l.574.756c-.812.77-2.24 1.246-3.444 1.246-3.276 0-5.6-2.142-5.6-5.32 0-3.248 2.478-5.474 5.432-5.474 2.842 0 5.012 1.96 5.012 4.578 0 2.086-1.204 3.64-2.66 3.64m-1.204-3.262c0-.826-.42-1.316-1.176-1.316-1.008 0-1.666 1.022-1.666 2.058 0 .854.28 1.526 1.19 1.526.952 0 1.61-.952 1.652-2.268m7.24-3.682v2.128h1.456v1.19h-1.456v3.5c0 .616.252.924.938.924.168 0 .406-.028.518-.056v1.12a2.9 2.9 0 0 1-.896.126c-1.148 0-1.876-.7-1.876-1.918v-3.696h-1.288v-1.19h.364c.728 0 1.036-.448 1.036-1.036v-1.092zm4.961 11.676h-1.442l1.68-3.556-2.898-5.992h1.512l2.1 4.648 2.016-4.648h1.414zm6.964-2.814h-1.316V98.864h1.316zm3.093-4.06h3.682c-.028-.966-.658-1.722-1.848-1.722-1.106 0-1.778.854-1.834 1.722m3.878 1.75 1.134.392c-.378 1.19-1.456 2.128-3.024 2.128-1.806 0-3.388-1.316-3.388-3.598 0-2.114 1.526-3.556 3.22-3.556 2.072 0 3.234 1.428 3.234 3.528 0 .168-.014.336-.028.42h-5.068c.028 1.204.896 2.044 2.03 2.044 1.092 0 1.638-.602 1.89-1.358m6.594-4.494v1.4a4 4 0 0 0-.574-.042c-1.106 0-1.848.588-1.848 2.072V109h-1.316v-6.734h1.288v1.176c.49-1.036 1.33-1.288 2.016-1.288.182 0 .364.028.434.042m7.523 7.91h-7.168V109h7.168zm4.582-6.65h-1.624V109h-1.358v-5.544h-1.246v-1.19h1.246v-1.134c0-1.498.994-2.31 2.212-2.31.448 0 .728.098.784.14v1.176c-.07-.028-.238-.084-.574-.084-.462 0-1.064.224-1.064 1.148v1.064h1.624zm4.021 4.578c1.12 0 2.1-.84 2.1-2.408 0-1.554-.98-2.394-2.1-2.394s-2.1.84-2.1 2.394c0 1.568.98 2.408 2.1 2.408m0-5.978c2.016 0 3.444 1.526 3.444 3.57 0 2.058-1.428 3.584-3.444 3.584s-3.444-1.526-3.444-3.584c0-2.044 1.428-3.57 3.444-3.57m6.444 3.052V109h-1.316v-6.734h1.288v.966c.49-.84 1.288-1.162 2.072-1.162 1.61 0 2.408 1.162 2.408 2.66V109h-1.316v-4.046c0-.938-.392-1.694-1.568-1.694-1.036 0-1.568.826-1.568 1.848m12.117-5.18v1.316c-.84.672-3.402 2.954-3.836 7.756h-1.414c.406-5.278 3.738-7.812 3.738-7.812h-5.11v-1.26zm3.226 4.858-.672-1.134 2.674-2.464h-4.34v-1.26h6.16v1.232l-2.59 2.394c1.33 0 2.8.896 2.8 2.758 0 1.526-1.176 2.912-3.29 2.912-2.1 0-3.29-1.372-3.374-2.856l1.344-.308c.056 1.204.924 1.96 2.016 1.96 1.246 0 1.918-.77 1.918-1.68 0-1.19-.952-1.694-1.848-1.694-.28 0-.56.056-.798.14"/><mask id="j" fill="#fff"><path d="M364.333 80H531v48H364.333z"/></mask><path fill="#dfdfdf" d="M531 128v-1H364.333v2H531z" mask="url(#j)"/><path fill="#171717" d="M383.627 109h-6.034v-9.926h6.034v1.274h-4.662v3.052h4.228v1.288h-4.228v3.038h4.662zm3.072-3.892V109h-1.316v-6.734h1.288v.966c.49-.84 1.288-1.162 2.072-1.162 1.61 0 2.408 1.162 2.408 2.66V109h-1.316v-4.046c0-.938-.392-1.694-1.568-1.694-1.036 0-1.568.826-1.568 1.848m6.126 2.086c0-1.204.882-1.876 2.044-2.044l1.82-.266c.406-.056.518-.266.518-.504 0-.658-.434-1.204-1.456-1.204-.924 0-1.442.574-1.526 1.358l-1.26-.294c.14-1.288 1.302-2.184 2.758-2.184 2.016 0 2.8 1.148 2.8 2.464v3.374c0 .588.056.938.084 1.106h-1.288a5 5 0 0 1-.07-.91c-.294.476-.966 1.12-2.17 1.12-1.372 0-2.254-.952-2.254-2.016m2.436.91c1.078 0 1.946-.518 1.946-1.988v-.308l-2.058.308c-.56.084-.98.406-.98 1.008 0 .504.42.98 1.092.98m6.614.896h-1.302V98.864h1.302v4.354c.322-.602 1.106-1.148 2.226-1.148 2.044 0 3.094 1.568 3.094 3.528 0 2.002-1.134 3.584-3.136 3.584-.994 0-1.764-.434-2.184-1.162zm3.976-3.402c0-1.456-.77-2.366-1.988-2.366-1.162 0-2.002.91-2.002 2.366s.84 2.408 2.002 2.408c1.204 0 1.988-.952 1.988-2.408m4.336 3.402h-1.316V98.864h1.316zm3.093-4.06h3.682c-.028-.966-.658-1.722-1.848-1.722-1.106 0-1.778.854-1.834 1.722m3.878 1.75 1.134.392c-.378 1.19-1.456 2.128-3.024 2.128-1.806 0-3.388-1.316-3.388-3.598 0-2.114 1.526-3.556 3.22-3.556 2.072 0 3.234 1.428 3.234 3.528 0 .168-.014.336-.028.42h-5.068c.028 1.204.896 2.044 2.03 2.044 1.092 0 1.638-.602 1.89-1.358m3.64-1.078c0 1.386.714 2.408 1.974 2.408 1.204 0 1.946-1.05 1.946-2.436s-.728-2.338-1.932-2.338-1.988.98-1.988 2.366m3.934 2.478v-.112c-.322.644-1.036 1.204-2.086 1.204-1.974 0-3.192-1.568-3.192-3.57 0-1.904 1.288-3.528 3.192-3.528 1.19 0 1.834.588 2.058 1.134v-4.354h1.302v8.89c0 .644.056 1.134.07 1.246h-1.274a5.6 5.6 0 0 1-.07-.91"/></g><g clip-path="url(#k)"><path fill="#fcfcfc" d="M31 128h553v48H31z"/><mask id="l" fill="#fff"><path d="M31 128h166.667v48H31z"/></mask><path fill="#dfdfdf" d="M197.667 176v-1H31v2h166.667z" mask="url(#l)"/><path fill="#b2b2b2" d="M44.4 153.32c0-.78.6-1.4 1.38-1.4s1.4.62 1.4 1.4-.62 1.38-1.4 1.38-1.38-.6-1.38-1.38m8.586 0c0-.78.6-1.4 1.38-1.4s1.4.62 1.4 1.4-.62 1.38-1.4 1.38-1.38-.6-1.38-1.38m8.586 0c0-.78.6-1.4 1.38-1.4s1.4.62 1.4 1.4-.62 1.38-1.4 1.38-1.38-.6-1.38-1.38m16.586 0c0-.78.6-1.4 1.38-1.4s1.4.62 1.4 1.4-.62 1.38-1.4 1.38-1.38-.6-1.38-1.38m8.586 0c0-.78.6-1.4 1.38-1.4s1.4.62 1.4 1.4-.62 1.38-1.4 1.38-1.38-.6-1.38-1.38m8.586 0c0-.78.6-1.4 1.38-1.4s1.4.62 1.4 1.4-.62 1.38-1.4 1.38-1.38-.6-1.38-1.38m8.586 0c0-.78.6-1.4 1.38-1.4s1.4.62 1.4 1.4-.62 1.38-1.4 1.38-1.38-.6-1.38-1.38m8.586 0c0-.78.6-1.4 1.38-1.4s1.4.62 1.4 1.4-.62 1.38-1.4 1.38-1.38-.6-1.38-1.38m8.586 0c0-.78.6-1.4 1.38-1.4s1.4.62 1.4 1.4-.62 1.38-1.4 1.38-1.38-.6-1.38-1.38m8.585 0c0-.78.6-1.4 1.38-1.4s1.4.62 1.4 1.4-.62 1.38-1.4 1.38-1.38-.6-1.38-1.38m8.586 0c0-.78.6-1.4 1.38-1.4s1.4.62 1.4 1.4-.62 1.38-1.4 1.38-1.38-.6-1.38-1.38"/><mask id="m" fill="#fff"><path d="M197.667 128h166.666v48H197.667z"/></mask><path fill="#dfdfdf" d="M364.333 176v-1H197.667v2h166.666z" mask="url(#m)"/><path fill="#b2b2b2" d="M211.067 153.32c0-.78.6-1.4 1.38-1.4s1.4.62 1.4 1.4-.62 1.38-1.4 1.38-1.38-.6-1.38-1.38m8.585 0c0-.78.6-1.4 1.38-1.4s1.4.62 1.4 1.4-.62 1.38-1.4 1.38-1.38-.6-1.38-1.38m8.586 0c0-.78.6-1.4 1.38-1.4s1.4.62 1.4 1.4-.62 1.38-1.4 1.38-1.38-.6-1.38-1.38m8.586 0c0-.78.6-1.4 1.38-1.4s1.4.62 1.4 1.4-.62 1.38-1.4 1.38-1.38-.6-1.38-1.38m8.586 0c0-.78.6-1.4 1.38-1.4s1.4.62 1.4 1.4-.62 1.38-1.4 1.38-1.38-.6-1.38-1.38m8.586 0c0-.78.6-1.4 1.38-1.4s1.4.62 1.4 1.4-.62 1.38-1.4 1.38-1.38-.6-1.38-1.38"/><mask id="n" fill="#fff"><path d="M364.333 128H531v48H364.333z"/></mask><path fill="#dfdfdf" d="M531 176v-1H364.333v2H531z" mask="url(#n)"/><path fill="#b2b2b2" d="M377.733 153.32c0-.78.6-1.4 1.38-1.4s1.4.62 1.4 1.4-.62 1.38-1.4 1.38-1.38-.6-1.38-1.38m8.586 0c0-.78.6-1.4 1.38-1.4s1.4.62 1.4 1.4-.62 1.38-1.4 1.38-1.38-.6-1.38-1.38m8.586 0c0-.78.6-1.4 1.38-1.4s1.4.62 1.4 1.4-.62 1.38-1.4 1.38-1.38-.6-1.38-1.38m8.586 0c0-.78.6-1.4 1.38-1.4s1.4.62 1.4 1.4-.62 1.38-1.4 1.38-1.38-.6-1.38-1.38m8.586 0c0-.78.6-1.4 1.38-1.4s1.4.62 1.4 1.4-.62 1.38-1.4 1.38-1.38-.6-1.38-1.38m8.586 0c0-.78.6-1.4 1.38-1.4s1.4.62 1.4 1.4-.62 1.38-1.4 1.38-1.38-.6-1.38-1.38m8.586 0c0-.78.6-1.4 1.38-1.4s1.4.62 1.4 1.4-.62 1.38-1.4 1.38-1.38-.6-1.38-1.38m8.586 0c0-.78.6-1.4 1.38-1.4s1.4.62 1.4 1.4-.62 1.38-1.4 1.38-1.38-.6-1.38-1.38"/></g><g clip-path="url(#o)"><path fill="#fcfcfc" d="M31 176h553v48H31z"/><mask id="p" fill="#fff"><path d="M31 176h166.667v48H31z"/></mask><path fill="#dfdfdf" d="M197.667 224v-1H31v2h166.667z" mask="url(#p)"/><path fill="#b2b2b2" d="M44.4 201.32c0-.78.6-1.4 1.38-1.4s1.4.62 1.4 1.4-.62 1.38-1.4 1.38-1.38-.6-1.38-1.38m8.586 0c0-.78.6-1.4 1.38-1.4s1.4.62 1.4 1.4-.62 1.38-1.4 1.38-1.38-.6-1.38-1.38m8.586 0c0-.78.6-1.4 1.38-1.4s1.4.62 1.4 1.4-.62 1.38-1.4 1.38-1.38-.6-1.38-1.38m8.586 0c0-.78.6-1.4 1.38-1.4s1.4.62 1.4 1.4-.62 1.38-1.4 1.38-1.38-.6-1.38-1.38m16.586 0c0-.78.6-1.4 1.38-1.4s1.4.62 1.4 1.4-.62 1.38-1.4 1.38-1.38-.6-1.38-1.38m8.586 0c0-.78.6-1.4 1.38-1.4s1.4.62 1.4 1.4-.62 1.38-1.4 1.38-1.38-.6-1.38-1.38m16.586 0c0-.78.6-1.4 1.38-1.4s1.4.62 1.4 1.4-.62 1.38-1.4 1.38-1.38-.6-1.38-1.38m8.586 0c0-.78.6-1.4 1.38-1.4s1.4.62 1.4 1.4-.62 1.38-1.4 1.38-1.38-.6-1.38-1.38m8.586 0c0-.78.6-1.4 1.38-1.4s1.4.62 1.4 1.4-.62 1.38-1.4 1.38-1.38-.6-1.38-1.38m8.585 0c0-.78.6-1.4 1.38-1.4s1.4.62 1.4 1.4-.62 1.38-1.4 1.38-1.38-.6-1.38-1.38"/><mask id="q" fill="#fff"><path d="M197.667 176h166.666v48H197.667z"/></mask><path fill="#dfdfdf" d="M364.333 224v-1H197.667v2h166.666z" mask="url(#q)"/><path fill="#b2b2b2" d="M211.067 201.32c0-.78.6-1.4 1.38-1.4s1.4.62 1.4 1.4-.62 1.38-1.4 1.38-1.38-.6-1.38-1.38m8.585 0c0-.78.6-1.4 1.38-1.4s1.4.62 1.4 1.4-.62 1.38-1.4 1.38-1.38-.6-1.38-1.38m8.586 0c0-.78.6-1.4 1.38-1.4s1.4.62 1.4 1.4-.62 1.38-1.4 1.38-1.38-.6-1.38-1.38m8.586 0c0-.78.6-1.4 1.38-1.4s1.4.62 1.4 1.4-.62 1.38-1.4 1.38-1.38-.6-1.38-1.38m8.586 0c0-.78.6-1.4 1.38-1.4s1.4.62 1.4 1.4-.62 1.38-1.4 1.38-1.38-.6-1.38-1.38m8.586 0c0-.78.6-1.4 1.38-1.4s1.4.62 1.4 1.4-.62 1.38-1.4 1.38-1.38-.6-1.38-1.38m8.586 0c0-.78.6-1.4 1.38-1.4s1.4.62 1.4 1.4-.62 1.38-1.4 1.38-1.38-.6-1.38-1.38m8.586 0c0-.78.6-1.4 1.38-1.4s1.4.62 1.4 1.4-.62 1.38-1.4 1.38-1.38-.6-1.38-1.38m8.586 0c0-.78.6-1.4 1.38-1.4s1.4.62 1.4 1.4-.62 1.38-1.4 1.38-1.38-.6-1.38-1.38"/><mask id="r" fill="#fff"><path d="M364.333 176H531v48H364.333z"/></mask><path fill="#dfdfdf" d="M531 224v-1H364.333v2H531z" mask="url(#r)"/><path fill="#b2b2b2" d="M377.733 201.32c0-.78.6-1.4 1.38-1.4s1.4.62 1.4 1.4-.62 1.38-1.4 1.38-1.38-.6-1.38-1.38m8.586 0c0-.78.6-1.4 1.38-1.4s1.4.62 1.4 1.4-.62 1.38-1.4 1.38-1.38-.6-1.38-1.38m8.586 0c0-.78.6-1.4 1.38-1.4s1.4.62 1.4 1.4-.62 1.38-1.4 1.38-1.38-.6-1.38-1.38m8.586 0c0-.78.6-1.4 1.38-1.4s1.4.62 1.4 1.4-.62 1.38-1.4 1.38-1.38-.6-1.38-1.38m8.586 0c0-.78.6-1.4 1.38-1.4s1.4.62 1.4 1.4-.62 1.38-1.4 1.38-1.38-.6-1.38-1.38m8.586 0c0-.78.6-1.4 1.38-1.4s1.4.62 1.4 1.4-.62 1.38-1.4 1.38-1.38-.6-1.38-1.38m8.586 0c0-.78.6-1.4 1.38-1.4s1.4.62 1.4 1.4-.62 1.38-1.4 1.38-1.38-.6-1.38-1.38m8.586 0c0-.78.6-1.4 1.38-1.4s1.4.62 1.4 1.4-.62 1.38-1.4 1.38-1.38-.6-1.38-1.38m8.586 0c0-.78.6-1.4 1.38-1.4s1.4.62 1.4 1.4-.62 1.38-1.4 1.38-1.38-.6-1.38-1.38"/></g></g><rect width="552" height="191" x="31.5" y="32.5" stroke="#dfdfdf" rx="3.5"/></g><defs><clipPath id="a"><path fill="#fff" d="M0 0h459v252H0z"/></clipPath><clipPath id="b"><rect width="553" height="192" x="31" y="32" fill="#fff" rx="4"/></clipPath><clipPath id="c"><path fill="#fff" d="M31 32h553v48H31z"/></clipPath><clipPath id="g"><path fill="#fff" d="M31 80h553v48H31z"/></clipPath><clipPath id="k"><path fill="#fff" d="M31 128h553v48H31z"/></clipPath><clipPath id="o"><path fill="#fff" d="M31 176h553v48H31z"/></clipPath></defs></svg>