<svg width="459" height="252" viewBox="0 0 459 252" fill="none" xmlns="http://www.w3.org/2000/svg">
<g clip-path="url(#clip0_679_1341)">
<g clip-path="url(#clip1_679_1341)">
<rect x="31" y="32" width="553" height="192" rx="4" fill="#1C1C1C"/>
<g clip-path="url(#clip2_679_1341)">
<rect width="553" height="48" transform="translate(31 32)" fill="#1C1C1C"/>
<mask id="path-3-inside-1_679_1341" fill="white">
<path d="M31 32H197.667V80H31V32Z"/>
</mask>
<path d="M197.667 80V79H31V80V81H197.667V80Z" fill="#343434" mask="url(#path-3-inside-1_679_1341)"/>
<path d="M44.4 57.32C44.4 56.54 45 55.92 45.78 55.92C46.56 55.92 47.18 56.54 47.18 57.32C47.18 58.1 46.56 58.7 45.78 58.7C45 58.7 44.4 58.1 44.4 57.32ZM52.9859 57.32C52.9859 56.54 53.5859 55.92 54.3659 55.92C55.1459 55.92 55.7659 56.54 55.7659 57.32C55.7659 58.1 55.1459 58.7 54.3659 58.7C53.5859 58.7 52.9859 58.1 52.9859 57.32ZM61.5719 57.32C61.5719 56.54 62.1719 55.92 62.9519 55.92C63.7319 55.92 64.3519 56.54 64.3519 57.32C64.3519 58.1 63.7319 58.7 62.9519 58.7C62.1719 58.7 61.5719 58.1 61.5719 57.32ZM70.1578 57.32C70.1578 56.54 70.7578 55.92 71.5378 55.92C72.3178 55.92 72.9378 56.54 72.9378 57.32C72.9378 58.1 72.3178 58.7 71.5378 58.7C70.7578 58.7 70.1578 58.1 70.1578 57.32ZM78.7438 57.32C78.7438 56.54 79.3438 55.92 80.1238 55.92C80.9038 55.92 81.5238 56.54 81.5238 57.32C81.5238 58.1 80.9038 58.7 80.1238 58.7C79.3438 58.7 78.7438 58.1 78.7438 57.32ZM95.3297 57.32C95.3297 56.54 95.9297 55.92 96.7097 55.92C97.4897 55.92 98.1097 56.54 98.1097 57.32C98.1097 58.1 97.4897 58.7 96.7097 58.7C95.9297 58.7 95.3297 58.1 95.3297 57.32ZM103.916 57.32C103.916 56.54 104.516 55.92 105.296 55.92C106.076 55.92 106.696 56.54 106.696 57.32C106.696 58.1 106.076 58.7 105.296 58.7C104.516 58.7 103.916 58.1 103.916 57.32ZM112.502 57.32C112.502 56.54 113.102 55.92 113.882 55.92C114.662 55.92 115.282 56.54 115.282 57.32C115.282 58.1 114.662 58.7 113.882 58.7C113.102 58.7 112.502 58.1 112.502 57.32Z" fill="#707070"/>
<mask id="path-6-inside-2_679_1341" fill="white">
<path d="M197.667 32H364.333V80H197.667V32Z"/>
</mask>
<path d="M364.333 80V79H197.667V80V81H364.333V80Z" fill="#343434" mask="url(#path-6-inside-2_679_1341)"/>
<path d="M211.067 57.32C211.067 56.54 211.667 55.92 212.447 55.92C213.227 55.92 213.847 56.54 213.847 57.32C213.847 58.1 213.227 58.7 212.447 58.7C211.667 58.7 211.067 58.1 211.067 57.32ZM219.652 57.32C219.652 56.54 220.252 55.92 221.032 55.92C221.812 55.92 222.432 56.54 222.432 57.32C222.432 58.1 221.812 58.7 221.032 58.7C220.252 58.7 219.652 58.1 219.652 57.32ZM228.238 57.32C228.238 56.54 228.838 55.92 229.618 55.92C230.398 55.92 231.018 56.54 231.018 57.32C231.018 58.1 230.398 58.7 229.618 58.7C228.838 58.7 228.238 58.1 228.238 57.32ZM236.824 57.32C236.824 56.54 237.424 55.92 238.204 55.92C238.984 55.92 239.604 56.54 239.604 57.32C239.604 58.1 238.984 58.7 238.204 58.7C237.424 58.7 236.824 58.1 236.824 57.32ZM245.41 57.32C245.41 56.54 246.01 55.92 246.79 55.92C247.57 55.92 248.19 56.54 248.19 57.32C248.19 58.1 247.57 58.7 246.79 58.7C246.01 58.7 245.41 58.1 245.41 57.32ZM253.996 57.32C253.996 56.54 254.596 55.92 255.376 55.92C256.156 55.92 256.776 56.54 256.776 57.32C256.776 58.1 256.156 58.7 255.376 58.7C254.596 58.7 253.996 58.1 253.996 57.32ZM262.582 57.32C262.582 56.54 263.182 55.92 263.962 55.92C264.742 55.92 265.362 56.54 265.362 57.32C265.362 58.1 264.742 58.7 263.962 58.7C263.182 58.7 262.582 58.1 262.582 57.32ZM271.168 57.32C271.168 56.54 271.768 55.92 272.548 55.92C273.328 55.92 273.948 56.54 273.948 57.32C273.948 58.1 273.328 58.7 272.548 58.7C271.768 58.7 271.168 58.1 271.168 57.32ZM279.754 57.32C279.754 56.54 280.354 55.92 281.134 55.92C281.914 55.92 282.534 56.54 282.534 57.32C282.534 58.1 281.914 58.7 281.134 58.7C280.354 58.7 279.754 58.1 279.754 57.32ZM288.34 57.32C288.34 56.54 288.94 55.92 289.72 55.92C290.5 55.92 291.12 56.54 291.12 57.32C291.12 58.1 290.5 58.7 289.72 58.7C288.94 58.7 288.34 58.1 288.34 57.32Z" fill="#707070"/>
<mask id="path-9-inside-3_679_1341" fill="white">
<path d="M364.333 32H531V80H364.333V32Z"/>
</mask>
<path d="M531 80V79H364.333V80V81H531V80Z" fill="#343434" mask="url(#path-9-inside-3_679_1341)"/>
<path d="M377.733 57.32C377.733 56.54 378.333 55.92 379.113 55.92C379.893 55.92 380.513 56.54 380.513 57.32C380.513 58.1 379.893 58.7 379.113 58.7C378.333 58.7 377.733 58.1 377.733 57.32ZM386.319 57.32C386.319 56.54 386.919 55.92 387.699 55.92C388.479 55.92 389.099 56.54 389.099 57.32C389.099 58.1 388.479 58.7 387.699 58.7C386.919 58.7 386.319 58.1 386.319 57.32ZM394.905 57.32C394.905 56.54 395.505 55.92 396.285 55.92C397.065 55.92 397.685 56.54 397.685 57.32C397.685 58.1 397.065 58.7 396.285 58.7C395.505 58.7 394.905 58.1 394.905 57.32ZM403.491 57.32C403.491 56.54 404.091 55.92 404.871 55.92C405.651 55.92 406.271 56.54 406.271 57.32C406.271 58.1 405.651 58.7 404.871 58.7C404.091 58.7 403.491 58.1 403.491 57.32ZM412.077 57.32C412.077 56.54 412.677 55.92 413.457 55.92C414.237 55.92 414.857 56.54 414.857 57.32C414.857 58.1 414.237 58.7 413.457 58.7C412.677 58.7 412.077 58.1 412.077 57.32ZM420.663 57.32C420.663 56.54 421.263 55.92 422.043 55.92C422.823 55.92 423.443 56.54 423.443 57.32C423.443 58.1 422.823 58.7 422.043 58.7C421.263 58.7 420.663 58.1 420.663 57.32Z" fill="#707070"/>
</g>
<g clip-path="url(#clip3_679_1341)">
<rect width="553" height="48" transform="translate(31 80)" fill="#232323"/>
<mask id="path-12-inside-4_679_1341" fill="white">
<path d="M31 80H197.667V128H31V80Z"/>
</mask>
<path d="M197.667 128V127H31V128V129H197.667V128Z" fill="#343434" mask="url(#path-12-inside-4_679_1341)"/>
<path d="M51.148 100.348H47.83V109H46.458V100.348H43.14V99.074H51.148V100.348ZM53.1008 111.814H51.6588L53.3388 108.258L50.4408 102.266H51.9528L54.0528 106.914L56.0688 102.266H57.4828L53.1008 111.814ZM60.0649 109H58.7489V98.864H60.0649V109ZM63.1576 104.94H66.8396C66.8116 103.974 66.1816 103.218 64.9916 103.218C63.8856 103.218 63.2136 104.072 63.1576 104.94ZM67.0356 106.69L68.1696 107.082C67.7916 108.272 66.7136 109.21 65.1456 109.21C63.3396 109.21 61.7576 107.894 61.7576 105.612C61.7576 103.498 63.2836 102.056 64.9776 102.056C67.0496 102.056 68.2116 103.484 68.2116 105.584C68.2116 105.752 68.1976 105.92 68.1836 106.004H63.1156C63.1436 107.208 64.0116 108.048 65.1456 108.048C66.2376 108.048 66.7836 107.446 67.0356 106.69ZM73.6295 102.196V103.596C73.4335 103.568 73.2375 103.554 73.0555 103.554C71.9495 103.554 71.2075 104.142 71.2075 105.626V109H69.8915V102.266H71.1795V103.442C71.6695 102.406 72.5095 102.154 73.1955 102.154C73.3775 102.154 73.5595 102.182 73.6295 102.196ZM80.0441 109H78.6721V99.074H84.7061V100.348H80.0441V103.54H84.2721V104.828H80.0441V109ZM88.6349 108.034C89.7549 108.034 90.7349 107.194 90.7349 105.626C90.7349 104.072 89.7549 103.232 88.6349 103.232C87.5149 103.232 86.5349 104.072 86.5349 105.626C86.5349 107.194 87.5149 108.034 88.6349 108.034ZM88.6349 102.056C90.6509 102.056 92.0789 103.582 92.0789 105.626C92.0789 107.684 90.6509 109.21 88.6349 109.21C86.6189 109.21 85.1909 107.684 85.1909 105.626C85.1909 103.582 86.6189 102.056 88.6349 102.056ZM95.0786 105.108V109H93.7626V102.266H95.0506V103.232C95.5406 102.392 96.3386 102.07 97.1226 102.07C98.7326 102.07 99.5306 103.232 99.5306 104.73V109H98.2146V104.954C98.2146 104.016 97.8226 103.26 96.6466 103.26C95.6106 103.26 95.0786 104.086 95.0786 105.108ZM103.388 100.138V102.266H104.844V103.456H103.388V106.956C103.388 107.572 103.64 107.88 104.326 107.88C104.494 107.88 104.732 107.852 104.844 107.824V108.944C104.732 108.986 104.396 109.07 103.948 109.07C102.8 109.07 102.072 108.37 102.072 107.152V103.456H100.784V102.266H101.148C101.876 102.266 102.184 101.818 102.184 101.23V100.138H103.388ZM106.18 107.194C106.18 105.99 107.062 105.318 108.224 105.15L110.044 104.884C110.45 104.828 110.562 104.618 110.562 104.38C110.562 103.722 110.128 103.176 109.106 103.176C108.182 103.176 107.664 103.75 107.58 104.534L106.32 104.24C106.46 102.952 107.622 102.056 109.078 102.056C111.094 102.056 111.878 103.204 111.878 104.52V107.894C111.878 108.482 111.934 108.832 111.962 109H110.674C110.646 108.832 110.604 108.58 110.604 108.09C110.31 108.566 109.638 109.21 108.434 109.21C107.062 109.21 106.18 108.258 106.18 107.194ZM108.616 108.104C109.694 108.104 110.562 107.586 110.562 106.116V105.808L108.504 106.116C107.944 106.2 107.524 106.522 107.524 107.124C107.524 107.628 107.944 108.104 108.616 108.104ZM115.231 109H113.929V102.266H115.231V109ZM113.635 99.718C113.635 99.186 114.055 98.766 114.573 98.766C115.105 98.766 115.525 99.186 115.525 99.718C115.525 100.236 115.105 100.656 114.573 100.656C114.055 100.656 113.635 100.236 113.635 99.718ZM118.786 105.108V109H117.47V102.266H118.758V103.232C119.248 102.392 120.046 102.07 120.83 102.07C122.44 102.07 123.238 103.232 123.238 104.73V109H121.922V104.954C121.922 104.016 121.53 103.26 120.354 103.26C119.318 103.26 118.786 104.086 118.786 105.108ZM126.185 104.94H129.867C129.839 103.974 129.209 103.218 128.019 103.218C126.913 103.218 126.241 104.072 126.185 104.94ZM130.063 106.69L131.197 107.082C130.819 108.272 129.741 109.21 128.173 109.21C126.367 109.21 124.785 107.894 124.785 105.612C124.785 103.498 126.311 102.056 128.005 102.056C130.077 102.056 131.239 103.484 131.239 105.584C131.239 105.752 131.225 105.92 131.211 106.004H126.143C126.171 107.208 127.039 108.048 128.173 108.048C129.265 108.048 129.811 107.446 130.063 106.69Z" fill="#EDEDED"/>
<mask id="path-15-inside-5_679_1341" fill="white">
<path d="M197.667 80H364.333V128H197.667V80Z"/>
</mask>
<path d="M364.333 128V127H197.667V128V129H364.333V128Z" fill="#343434" mask="url(#path-15-inside-5_679_1341)"/>
<path d="M218.081 107.082C217.423 107.082 216.849 106.802 216.695 106.186C216.275 106.788 215.631 107.11 215.029 107.11C213.769 107.11 212.887 106.158 212.887 104.716C212.887 102.84 214.175 101.454 215.687 101.454C216.275 101.454 216.975 101.748 217.185 102.378L217.311 101.636H218.417L217.661 105.15C217.633 105.29 217.619 105.416 217.619 105.542C217.619 105.864 217.759 106.116 218.151 106.116C218.935 106.116 219.663 104.856 219.663 103.456C219.663 101.412 218.109 99.886 215.743 99.886C213.279 99.886 211.445 101.678 211.445 104.352C211.445 106.802 213.097 108.636 215.897 108.636C216.919 108.636 217.927 108.328 218.767 107.656L219.341 108.412C218.529 109.182 217.101 109.658 215.897 109.658C212.621 109.658 210.297 107.516 210.297 104.338C210.297 101.09 212.775 98.864 215.729 98.864C218.571 98.864 220.741 100.824 220.741 103.442C220.741 105.528 219.537 107.082 218.081 107.082ZM216.877 103.82C216.877 102.994 216.457 102.504 215.701 102.504C214.693 102.504 214.035 103.526 214.035 104.562C214.035 105.416 214.315 106.088 215.225 106.088C216.177 106.088 216.835 105.136 216.877 103.82ZM224.117 100.138V102.266H225.573V103.456H224.117V106.956C224.117 107.572 224.369 107.88 225.055 107.88C225.223 107.88 225.461 107.852 225.573 107.824V108.944C225.461 108.986 225.125 109.07 224.677 109.07C223.529 109.07 222.801 108.37 222.801 107.152V103.456H221.513V102.266H221.877C222.605 102.266 222.913 101.818 222.913 101.23V100.138H224.117ZM229.078 111.814H227.636L229.316 108.258L226.418 102.266H227.93L230.03 106.914L232.046 102.266H233.46L229.078 111.814ZM236.042 109H234.726V98.864H236.042V109ZM239.135 104.94H242.817C242.789 103.974 242.159 103.218 240.969 103.218C239.863 103.218 239.191 104.072 239.135 104.94ZM243.013 106.69L244.147 107.082C243.769 108.272 242.691 109.21 241.123 109.21C239.317 109.21 237.735 107.894 237.735 105.612C237.735 103.498 239.261 102.056 240.955 102.056C243.027 102.056 244.189 103.484 244.189 105.584C244.189 105.752 244.175 105.92 244.161 106.004H239.093C239.121 107.208 239.989 108.048 241.123 108.048C242.215 108.048 242.761 107.446 243.013 106.69ZM249.607 102.196V103.596C249.411 103.568 249.215 103.554 249.033 103.554C247.927 103.554 247.185 104.142 247.185 105.626V109H245.869V102.266H247.157V103.442C247.647 102.406 248.487 102.154 249.173 102.154C249.355 102.154 249.537 102.182 249.607 102.196ZM257.13 110.106H249.962V109H257.13V110.106ZM261.712 103.456H260.088V109H258.73V103.456H257.484V102.266H258.73V101.132C258.73 99.634 259.724 98.822 260.942 98.822C261.39 98.822 261.67 98.92 261.726 98.962V100.138C261.656 100.11 261.488 100.054 261.152 100.054C260.69 100.054 260.088 100.278 260.088 101.202V102.266H261.712V103.456ZM265.733 108.034C266.853 108.034 267.833 107.194 267.833 105.626C267.833 104.072 266.853 103.232 265.733 103.232C264.613 103.232 263.633 104.072 263.633 105.626C263.633 107.194 264.613 108.034 265.733 108.034ZM265.733 102.056C267.749 102.056 269.177 103.582 269.177 105.626C269.177 107.684 267.749 109.21 265.733 109.21C263.717 109.21 262.289 107.684 262.289 105.626C262.289 103.582 263.717 102.056 265.733 102.056ZM272.177 105.108V109H270.861V102.266H272.149V103.232C272.639 102.392 273.437 102.07 274.221 102.07C275.831 102.07 276.629 103.232 276.629 104.73V109H275.313V104.954C275.313 104.016 274.921 103.26 273.745 103.26C272.709 103.26 272.177 104.086 272.177 105.108ZM284.294 99.928V101.244C283.454 101.916 280.892 104.198 280.458 109H279.044C279.45 103.722 282.782 101.188 282.782 101.188H277.672V99.928H284.294ZM287.52 104.786L286.848 103.652L289.522 101.188H285.182V99.928H291.342V101.16L288.752 103.554C290.082 103.554 291.552 104.45 291.552 106.312C291.552 107.838 290.376 109.224 288.262 109.224C286.162 109.224 284.972 107.852 284.888 106.368L286.232 106.06C286.288 107.264 287.156 108.02 288.248 108.02C289.494 108.02 290.166 107.25 290.166 106.34C290.166 105.15 289.214 104.646 288.318 104.646C288.038 104.646 287.758 104.702 287.52 104.786Z" fill="#EDEDED"/>
<mask id="path-18-inside-6_679_1341" fill="white">
<path d="M364.333 80H531V128H364.333V80Z"/>
</mask>
<path d="M531 128V127H364.333V128V129H531V128Z" fill="#343434" mask="url(#path-18-inside-6_679_1341)"/>
<path d="M383.627 109H377.593V99.074H383.627V100.348H378.965V103.4H383.193V104.688H378.965V107.726H383.627V109ZM386.699 105.108V109H385.383V102.266H386.671V103.232C387.161 102.392 387.959 102.07 388.743 102.07C390.353 102.07 391.151 103.232 391.151 104.73V109H389.835V104.954C389.835 104.016 389.443 103.26 388.267 103.26C387.231 103.26 386.699 104.086 386.699 105.108ZM392.825 107.194C392.825 105.99 393.707 105.318 394.869 105.15L396.689 104.884C397.095 104.828 397.207 104.618 397.207 104.38C397.207 103.722 396.773 103.176 395.751 103.176C394.827 103.176 394.309 103.75 394.225 104.534L392.965 104.24C393.105 102.952 394.267 102.056 395.723 102.056C397.739 102.056 398.523 103.204 398.523 104.52V107.894C398.523 108.482 398.579 108.832 398.607 109H397.319C397.291 108.832 397.249 108.58 397.249 108.09C396.955 108.566 396.283 109.21 395.079 109.21C393.707 109.21 392.825 108.258 392.825 107.194ZM395.261 108.104C396.339 108.104 397.207 107.586 397.207 106.116V105.808L395.149 106.116C394.589 106.2 394.169 106.522 394.169 107.124C394.169 107.628 394.589 108.104 395.261 108.104ZM401.875 109H400.573V98.864H401.875V103.218C402.197 102.616 402.981 102.07 404.101 102.07C406.145 102.07 407.195 103.638 407.195 105.598C407.195 107.6 406.061 109.182 404.059 109.182C403.065 109.182 402.295 108.748 401.875 108.02V109ZM405.851 105.598C405.851 104.142 405.081 103.232 403.863 103.232C402.701 103.232 401.861 104.142 401.861 105.598C401.861 107.054 402.701 108.006 403.863 108.006C405.067 108.006 405.851 107.054 405.851 105.598ZM410.187 109H408.871V98.864H410.187V109ZM413.28 104.94H416.962C416.934 103.974 416.304 103.218 415.114 103.218C414.008 103.218 413.336 104.072 413.28 104.94ZM417.158 106.69L418.292 107.082C417.914 108.272 416.836 109.21 415.268 109.21C413.462 109.21 411.88 107.894 411.88 105.612C411.88 103.498 413.406 102.056 415.1 102.056C417.172 102.056 418.334 103.484 418.334 105.584C418.334 105.752 418.32 105.92 418.306 106.004H413.238C413.266 107.208 414.134 108.048 415.268 108.048C416.36 108.048 416.906 107.446 417.158 106.69ZM420.798 105.612C420.798 106.998 421.512 108.02 422.772 108.02C423.976 108.02 424.718 106.97 424.718 105.584C424.718 104.198 423.99 103.246 422.786 103.246C421.582 103.246 420.798 104.226 420.798 105.612ZM424.732 108.09V107.978C424.41 108.622 423.696 109.182 422.646 109.182C420.672 109.182 419.454 107.614 419.454 105.612C419.454 103.708 420.742 102.084 422.646 102.084C423.836 102.084 424.48 102.672 424.704 103.218V98.864H426.006V107.754C426.006 108.398 426.062 108.888 426.076 109H424.802C424.774 108.846 424.732 108.496 424.732 108.09Z" fill="#EDEDED"/>
</g>
<g clip-path="url(#clip4_679_1341)">
<rect width="553" height="48" transform="translate(31 128)" fill="#1C1C1C"/>
<mask id="path-21-inside-7_679_1341" fill="white">
<path d="M31 128H197.667V176H31V128Z"/>
</mask>
<path d="M197.667 176V175H31V176V177H197.667V176Z" fill="#343434" mask="url(#path-21-inside-7_679_1341)"/>
<path d="M44.4 153.32C44.4 152.54 45 151.92 45.78 151.92C46.56 151.92 47.18 152.54 47.18 153.32C47.18 154.1 46.56 154.7 45.78 154.7C45 154.7 44.4 154.1 44.4 153.32ZM52.9859 153.32C52.9859 152.54 53.5859 151.92 54.3659 151.92C55.1459 151.92 55.7659 152.54 55.7659 153.32C55.7659 154.1 55.1459 154.7 54.3659 154.7C53.5859 154.7 52.9859 154.1 52.9859 153.32ZM61.5719 153.32C61.5719 152.54 62.1719 151.92 62.9519 151.92C63.7319 151.92 64.3519 152.54 64.3519 153.32C64.3519 154.1 63.7319 154.7 62.9519 154.7C62.1719 154.7 61.5719 154.1 61.5719 153.32ZM78.1578 153.32C78.1578 152.54 78.7578 151.92 79.5378 151.92C80.3178 151.92 80.9378 152.54 80.9378 153.32C80.9378 154.1 80.3178 154.7 79.5378 154.7C78.7578 154.7 78.1578 154.1 78.1578 153.32ZM86.7438 153.32C86.7438 152.54 87.3438 151.92 88.1238 151.92C88.9038 151.92 89.5238 152.54 89.5238 153.32C89.5238 154.1 88.9038 154.7 88.1238 154.7C87.3438 154.7 86.7438 154.1 86.7438 153.32ZM95.3297 153.32C95.3297 152.54 95.9297 151.92 96.7097 151.92C97.4897 151.92 98.1097 152.54 98.1097 153.32C98.1097 154.1 97.4897 154.7 96.7097 154.7C95.9297 154.7 95.3297 154.1 95.3297 153.32ZM103.916 153.32C103.916 152.54 104.516 151.92 105.296 151.92C106.076 151.92 106.696 152.54 106.696 153.32C106.696 154.1 106.076 154.7 105.296 154.7C104.516 154.7 103.916 154.1 103.916 153.32ZM112.502 153.32C112.502 152.54 113.102 151.92 113.882 151.92C114.662 151.92 115.282 152.54 115.282 153.32C115.282 154.1 114.662 154.7 113.882 154.7C113.102 154.7 112.502 154.1 112.502 153.32ZM121.088 153.32C121.088 152.54 121.688 151.92 122.468 151.92C123.248 151.92 123.868 152.54 123.868 153.32C123.868 154.1 123.248 154.7 122.468 154.7C121.688 154.7 121.088 154.1 121.088 153.32ZM129.673 153.32C129.673 152.54 130.273 151.92 131.053 151.92C131.833 151.92 132.453 152.54 132.453 153.32C132.453 154.1 131.833 154.7 131.053 154.7C130.273 154.7 129.673 154.1 129.673 153.32ZM138.259 153.32C138.259 152.54 138.859 151.92 139.639 151.92C140.419 151.92 141.039 152.54 141.039 153.32C141.039 154.1 140.419 154.7 139.639 154.7C138.859 154.7 138.259 154.1 138.259 153.32Z" fill="#707070"/>
<mask id="path-24-inside-8_679_1341" fill="white">
<path d="M197.667 128H364.333V176H197.667V128Z"/>
</mask>
<path d="M364.333 176V175H197.667V176V177H364.333V176Z" fill="#343434" mask="url(#path-24-inside-8_679_1341)"/>
<path d="M211.067 153.32C211.067 152.54 211.667 151.92 212.447 151.92C213.227 151.92 213.847 152.54 213.847 153.32C213.847 154.1 213.227 154.7 212.447 154.7C211.667 154.7 211.067 154.1 211.067 153.32ZM219.652 153.32C219.652 152.54 220.252 151.92 221.032 151.92C221.812 151.92 222.432 152.54 222.432 153.32C222.432 154.1 221.812 154.7 221.032 154.7C220.252 154.7 219.652 154.1 219.652 153.32ZM228.238 153.32C228.238 152.54 228.838 151.92 229.618 151.92C230.398 151.92 231.018 152.54 231.018 153.32C231.018 154.1 230.398 154.7 229.618 154.7C228.838 154.7 228.238 154.1 228.238 153.32ZM236.824 153.32C236.824 152.54 237.424 151.92 238.204 151.92C238.984 151.92 239.604 152.54 239.604 153.32C239.604 154.1 238.984 154.7 238.204 154.7C237.424 154.7 236.824 154.1 236.824 153.32ZM245.41 153.32C245.41 152.54 246.01 151.92 246.79 151.92C247.57 151.92 248.19 152.54 248.19 153.32C248.19 154.1 247.57 154.7 246.79 154.7C246.01 154.7 245.41 154.1 245.41 153.32ZM253.996 153.32C253.996 152.54 254.596 151.92 255.376 151.92C256.156 151.92 256.776 152.54 256.776 153.32C256.776 154.1 256.156 154.7 255.376 154.7C254.596 154.7 253.996 154.1 253.996 153.32Z" fill="#707070"/>
<mask id="path-27-inside-9_679_1341" fill="white">
<path d="M364.333 128H531V176H364.333V128Z"/>
</mask>
<path d="M531 176V175H364.333V176V177H531V176Z" fill="#343434" mask="url(#path-27-inside-9_679_1341)"/>
<path d="M377.733 153.32C377.733 152.54 378.333 151.92 379.113 151.92C379.893 151.92 380.513 152.54 380.513 153.32C380.513 154.1 379.893 154.7 379.113 154.7C378.333 154.7 377.733 154.1 377.733 153.32ZM386.319 153.32C386.319 152.54 386.919 151.92 387.699 151.92C388.479 151.92 389.099 152.54 389.099 153.32C389.099 154.1 388.479 154.7 387.699 154.7C386.919 154.7 386.319 154.1 386.319 153.32ZM394.905 153.32C394.905 152.54 395.505 151.92 396.285 151.92C397.065 151.92 397.685 152.54 397.685 153.32C397.685 154.1 397.065 154.7 396.285 154.7C395.505 154.7 394.905 154.1 394.905 153.32ZM403.491 153.32C403.491 152.54 404.091 151.92 404.871 151.92C405.651 151.92 406.271 152.54 406.271 153.32C406.271 154.1 405.651 154.7 404.871 154.7C404.091 154.7 403.491 154.1 403.491 153.32ZM412.077 153.32C412.077 152.54 412.677 151.92 413.457 151.92C414.237 151.92 414.857 152.54 414.857 153.32C414.857 154.1 414.237 154.7 413.457 154.7C412.677 154.7 412.077 154.1 412.077 153.32ZM420.663 153.32C420.663 152.54 421.263 151.92 422.043 151.92C422.823 151.92 423.443 152.54 423.443 153.32C423.443 154.1 422.823 154.7 422.043 154.7C421.263 154.7 420.663 154.1 420.663 153.32ZM429.249 153.32C429.249 152.54 429.849 151.92 430.629 151.92C431.409 151.92 432.029 152.54 432.029 153.32C432.029 154.1 431.409 154.7 430.629 154.7C429.849 154.7 429.249 154.1 429.249 153.32ZM437.835 153.32C437.835 152.54 438.435 151.92 439.215 151.92C439.995 151.92 440.615 152.54 440.615 153.32C440.615 154.1 439.995 154.7 439.215 154.7C438.435 154.7 437.835 154.1 437.835 153.32Z" fill="#707070"/>
</g>
<g clip-path="url(#clip5_679_1341)">
<rect width="553" height="48" transform="translate(31 176)" fill="#1C1C1C"/>
<mask id="path-30-inside-10_679_1341" fill="white">
<path d="M31 176H197.667V224H31V176Z"/>
</mask>
<path d="M197.667 224V223H31V224V225H197.667V224Z" fill="#343434" mask="url(#path-30-inside-10_679_1341)"/>
<path d="M44.4 201.32C44.4 200.54 45 199.92 45.78 199.92C46.56 199.92 47.18 200.54 47.18 201.32C47.18 202.1 46.56 202.7 45.78 202.7C45 202.7 44.4 202.1 44.4 201.32ZM52.9859 201.32C52.9859 200.54 53.5859 199.92 54.3659 199.92C55.1459 199.92 55.7659 200.54 55.7659 201.32C55.7659 202.1 55.1459 202.7 54.3659 202.7C53.5859 202.7 52.9859 202.1 52.9859 201.32ZM61.5719 201.32C61.5719 200.54 62.1719 199.92 62.9519 199.92C63.7319 199.92 64.3519 200.54 64.3519 201.32C64.3519 202.1 63.7319 202.7 62.9519 202.7C62.1719 202.7 61.5719 202.1 61.5719 201.32ZM70.1578 201.32C70.1578 200.54 70.7578 199.92 71.5378 199.92C72.3178 199.92 72.9378 200.54 72.9378 201.32C72.9378 202.1 72.3178 202.7 71.5378 202.7C70.7578 202.7 70.1578 202.1 70.1578 201.32ZM86.7438 201.32C86.7438 200.54 87.3438 199.92 88.1238 199.92C88.9038 199.92 89.5238 200.54 89.5238 201.32C89.5238 202.1 88.9038 202.7 88.1238 202.7C87.3438 202.7 86.7438 202.1 86.7438 201.32ZM95.3297 201.32C95.3297 200.54 95.9297 199.92 96.7097 199.92C97.4897 199.92 98.1097 200.54 98.1097 201.32C98.1097 202.1 97.4897 202.7 96.7097 202.7C95.9297 202.7 95.3297 202.1 95.3297 201.32ZM111.916 201.32C111.916 200.54 112.516 199.92 113.296 199.92C114.076 199.92 114.696 200.54 114.696 201.32C114.696 202.1 114.076 202.7 113.296 202.7C112.516 202.7 111.916 202.1 111.916 201.32ZM120.502 201.32C120.502 200.54 121.102 199.92 121.882 199.92C122.662 199.92 123.282 200.54 123.282 201.32C123.282 202.1 122.662 202.7 121.882 202.7C121.102 202.7 120.502 202.1 120.502 201.32ZM129.088 201.32C129.088 200.54 129.688 199.92 130.468 199.92C131.248 199.92 131.868 200.54 131.868 201.32C131.868 202.1 131.248 202.7 130.468 202.7C129.688 202.7 129.088 202.1 129.088 201.32ZM137.673 201.32C137.673 200.54 138.273 199.92 139.053 199.92C139.833 199.92 140.453 200.54 140.453 201.32C140.453 202.1 139.833 202.7 139.053 202.7C138.273 202.7 137.673 202.1 137.673 201.32Z" fill="#707070"/>
<mask id="path-33-inside-11_679_1341" fill="white">
<path d="M197.667 176H364.333V224H197.667V176Z"/>
</mask>
<path d="M364.333 224V223H197.667V224V225H364.333V224Z" fill="#343434" mask="url(#path-33-inside-11_679_1341)"/>
<path d="M211.067 201.32C211.067 200.54 211.667 199.92 212.447 199.92C213.227 199.92 213.847 200.54 213.847 201.32C213.847 202.1 213.227 202.7 212.447 202.7C211.667 202.7 211.067 202.1 211.067 201.32ZM219.652 201.32C219.652 200.54 220.252 199.92 221.032 199.92C221.812 199.92 222.432 200.54 222.432 201.32C222.432 202.1 221.812 202.7 221.032 202.7C220.252 202.7 219.652 202.1 219.652 201.32ZM228.238 201.32C228.238 200.54 228.838 199.92 229.618 199.92C230.398 199.92 231.018 200.54 231.018 201.32C231.018 202.1 230.398 202.7 229.618 202.7C228.838 202.7 228.238 202.1 228.238 201.32ZM236.824 201.32C236.824 200.54 237.424 199.92 238.204 199.92C238.984 199.92 239.604 200.54 239.604 201.32C239.604 202.1 238.984 202.7 238.204 202.7C237.424 202.7 236.824 202.1 236.824 201.32ZM245.41 201.32C245.41 200.54 246.01 199.92 246.79 199.92C247.57 199.92 248.19 200.54 248.19 201.32C248.19 202.1 247.57 202.7 246.79 202.7C246.01 202.7 245.41 202.1 245.41 201.32ZM253.996 201.32C253.996 200.54 254.596 199.92 255.376 199.92C256.156 199.92 256.776 200.54 256.776 201.32C256.776 202.1 256.156 202.7 255.376 202.7C254.596 202.7 253.996 202.1 253.996 201.32ZM262.582 201.32C262.582 200.54 263.182 199.92 263.962 199.92C264.742 199.92 265.362 200.54 265.362 201.32C265.362 202.1 264.742 202.7 263.962 202.7C263.182 202.7 262.582 202.1 262.582 201.32ZM271.168 201.32C271.168 200.54 271.768 199.92 272.548 199.92C273.328 199.92 273.948 200.54 273.948 201.32C273.948 202.1 273.328 202.7 272.548 202.7C271.768 202.7 271.168 202.1 271.168 201.32ZM279.754 201.32C279.754 200.54 280.354 199.92 281.134 199.92C281.914 199.92 282.534 200.54 282.534 201.32C282.534 202.1 281.914 202.7 281.134 202.7C280.354 202.7 279.754 202.1 279.754 201.32Z" fill="#707070"/>
<mask id="path-36-inside-12_679_1341" fill="white">
<path d="M364.333 176H531V224H364.333V176Z"/>
</mask>
<path d="M531 224V223H364.333V224V225H531V224Z" fill="#343434" mask="url(#path-36-inside-12_679_1341)"/>
<path d="M377.733 201.32C377.733 200.54 378.333 199.92 379.113 199.92C379.893 199.92 380.513 200.54 380.513 201.32C380.513 202.1 379.893 202.7 379.113 202.7C378.333 202.7 377.733 202.1 377.733 201.32ZM386.319 201.32C386.319 200.54 386.919 199.92 387.699 199.92C388.479 199.92 389.099 200.54 389.099 201.32C389.099 202.1 388.479 202.7 387.699 202.7C386.919 202.7 386.319 202.1 386.319 201.32ZM394.905 201.32C394.905 200.54 395.505 199.92 396.285 199.92C397.065 199.92 397.685 200.54 397.685 201.32C397.685 202.1 397.065 202.7 396.285 202.7C395.505 202.7 394.905 202.1 394.905 201.32ZM403.491 201.32C403.491 200.54 404.091 199.92 404.871 199.92C405.651 199.92 406.271 200.54 406.271 201.32C406.271 202.1 405.651 202.7 404.871 202.7C404.091 202.7 403.491 202.1 403.491 201.32ZM412.077 201.32C412.077 200.54 412.677 199.92 413.457 199.92C414.237 199.92 414.857 200.54 414.857 201.32C414.857 202.1 414.237 202.7 413.457 202.7C412.677 202.7 412.077 202.1 412.077 201.32ZM420.663 201.32C420.663 200.54 421.263 199.92 422.043 199.92C422.823 199.92 423.443 200.54 423.443 201.32C423.443 202.1 422.823 202.7 422.043 202.7C421.263 202.7 420.663 202.1 420.663 201.32ZM429.249 201.32C429.249 200.54 429.849 199.92 430.629 199.92C431.409 199.92 432.029 200.54 432.029 201.32C432.029 202.1 431.409 202.7 430.629 202.7C429.849 202.7 429.249 202.1 429.249 201.32ZM437.835 201.32C437.835 200.54 438.435 199.92 439.215 199.92C439.995 199.92 440.615 200.54 440.615 201.32C440.615 202.1 439.995 202.7 439.215 202.7C438.435 202.7 437.835 202.1 437.835 201.32ZM446.421 201.32C446.421 200.54 447.021 199.92 447.801 199.92C448.581 199.92 449.201 200.54 449.201 201.32C449.201 202.1 448.581 202.7 447.801 202.7C447.021 202.7 446.421 202.1 446.421 201.32Z" fill="#707070"/>
</g>
</g>
<rect x="31.5" y="32.5" width="552" height="191" rx="3.5" stroke="#343434"/>
</g>
<defs>
<clipPath id="clip0_679_1341">
<rect width="459" height="252" fill="white"/>
</clipPath>
<clipPath id="clip1_679_1341">
<rect x="31" y="32" width="553" height="192" rx="4" fill="white"/>
</clipPath>
<clipPath id="clip2_679_1341">
<rect width="553" height="48" fill="white" transform="translate(31 32)"/>
</clipPath>
<clipPath id="clip3_679_1341">
<rect width="553" height="48" fill="white" transform="translate(31 80)"/>
</clipPath>
<clipPath id="clip4_679_1341">
<rect width="553" height="48" fill="white" transform="translate(31 128)"/>
</clipPath>
<clipPath id="clip5_679_1341">
<rect width="553" height="48" fill="white" transform="translate(31 176)"/>
</clipPath>
</defs>
</svg>
