<svg xmlns="http://www.w3.org/2000/svg" width="460" height="312" fill="none" viewBox="0 0 460 312"><path fill="#707070" fill-rule="evenodd" d="M300.793 170.531c-.855-2.591-3.096-4.395-5.995-4.829-1.366-.204-2.931-.117-4.783.265-3.228.666-5.623.92-7.371.969 6.597-11.139 11.962-23.841 15.05-35.798 4.994-19.334 2.325-28.142-.793-32.126-8.253-10.544-20.293-16.21-34.819-16.383-7.749-.095-14.552 1.435-18.1 2.535-3.304-.583-6.857-.908-10.585-.968-6.987-.112-13.161 1.411-18.436 4.542-2.921-.988-7.608-2.38-13.021-3.269-12.731-2.09-22.992-.46-30.497 4.841-9.088 6.42-13.301 17.573-12.522 33.152.247 4.946 3.014 19.994 7.37 34.266 2.504 8.203 5.174 15.015 7.935 20.248 3.917 7.421 8.107 11.792 12.812 13.361 2.637.879 7.428 1.494 12.467-2.702.639.773 1.491 1.541 2.622 2.255 1.436.906 3.192 1.646 4.946 2.085 6.321 1.58 12.242 1.185 17.293-1.03.031.898.055 1.757.076 2.498.033 1.202.066 2.381.111 3.483.299 7.454.806 13.25 2.308 17.305.083.224.194.564.311.924.75 2.295 2.003 6.137 5.192 9.147 3.303 3.117 7.297 4.073 10.956 4.073 1.834 0 3.585-.241 5.12-.57 5.474-1.173 11.69-2.96 16.187-9.363 4.251-6.053 6.318-15.169 6.692-29.534l.136-1.164.089-.759 1.002.088.258.018c5.574.254 12.391-.928 16.577-2.873 3.308-1.535 13.908-7.131 11.412-14.687M218.9 127.86c-1.493-.208-2.846-.016-3.531.502-.385.292-.504.63-.536.862-.086.616.346 1.297.611 1.648.75.995 1.846 1.678 2.93 1.829q.237.032.469.032c1.809 0 3.454-1.409 3.599-2.448.181-1.302-1.709-2.17-3.542-2.425m49.485.041c-.143-1.02-1.959-1.311-3.683-1.072-1.721.24-3.39 1.017-3.25 2.04.112.795 1.548 2.153 3.248 2.153q.215 0 .434-.03c1.135-.157 1.968-.878 2.363-1.294.603-.632.951-1.338.888-1.797m28.392 43.712c-.632-1.912-2.666-2.527-6.046-1.829-10.035 2.072-13.629.637-14.809-.232 7.8-11.883 14.217-26.247 17.679-39.649 1.64-6.348 2.546-12.243 2.619-17.049.082-5.274-.816-9.15-2.669-11.518-7.47-9.544-18.432-14.664-31.703-14.805-9.123-.102-16.831 2.233-18.326 2.889-3.147-.783-6.577-1.263-10.312-1.324-6.849-.111-12.769 1.529-17.67 4.87-2.129-.792-7.632-2.68-14.36-3.764-11.634-1.873-20.878-.454-27.475 4.22-7.871 5.576-11.505 15.545-10.801 29.628.237 4.738 2.936 19.314 7.197 33.273 5.608 18.373 11.704 28.774 18.118 30.913.751.25 1.617.426 2.571.426 2.34 0 5.209-1.055 8.193-4.643a295 295 0 0 1 11.293-12.778c2.522 1.353 5.291 2.109 8.125 2.185q.008.111.019.222a66 66 0 0 0-1.432 1.769c-1.963 2.492-2.372 3.011-8.691 4.312-1.797.371-6.571 1.355-6.641 4.701-.076 3.656 5.643 5.192 6.295 5.354 2.27.569 4.458.849 6.544.849 5.074 0 9.539-1.668 13.107-4.894-.11 13.034.434 25.878 1.999 29.791 1.281 3.204 4.413 11.033 14.304 11.032 1.451 0 3.048-.168 4.806-.545 10.322-2.213 14.805-6.775 16.539-16.834.928-5.375 2.521-18.212 3.269-25.097 1.581.493 3.616.718 5.816.718 4.588 0 9.882-.975 13.203-2.516 3.729-1.732 10.46-5.983 9.239-9.675m-24.583-46.528c-.034 2.033-.314 3.878-.61 5.805-.319 2.071-.649 4.213-.732 6.813-.082 2.531.234 5.162.539 7.706.618 5.138 1.252 10.429-1.202 15.649a20 20 0 0 1-1.086-2.234c-.305-.739-.967-1.927-1.884-3.57-3.566-6.396-11.918-21.374-7.643-27.486 1.273-1.82 4.505-3.69 12.618-2.683m-9.833-34.437c11.89.262 21.296 4.71 27.955 13.22 5.108 6.527-.516 36.227-16.798 61.849q-.241-.306-.494-.622l-.206-.258c4.207-6.949 3.384-13.823 2.652-19.919-.301-2.501-.585-4.864-.513-7.083.075-2.353.386-4.37.687-6.32.37-2.405.746-4.892.642-7.824.077-.308.109-.671.068-1.102-.265-2.813-3.475-11.228-10.018-18.845-3.579-4.166-8.799-8.828-15.926-11.973 3.065-.635 7.257-1.228 11.951-1.123m-66.536 89.744c-3.289 3.954-5.56 3.196-6.306 2.948-4.866-1.624-10.512-11.908-15.49-28.216-4.307-14.111-6.824-28.301-7.023-32.28-.629-12.583 2.421-21.353 9.066-26.066 10.815-7.67 28.596-3.08 35.741-.75-.103.1-.21.195-.311.298-11.724 11.841-11.446 32.071-11.418 33.307-.001.477.039 1.153.094 2.082.202 3.402.577 9.735-.425 16.907-.933 6.664 1.122 13.187 5.635 17.895q.702.731 1.458 1.376a302 302 0 0 0-11.021 12.499m12.529-16.717c-3.638-3.795-5.29-9.074-4.533-14.485 1.059-7.576.668-14.174.458-17.718-.029-.496-.055-.931-.071-1.274 1.713-1.518 9.65-5.771 15.31-4.474 2.584.591 4.157 2.35 4.812 5.376 3.386 15.663.448 22.191-1.913 27.437-.487 1.081-.946 2.103-1.339 3.16l-.304.817c-.771 2.065-1.487 3.986-1.932 5.81-3.866-.012-7.628-1.664-10.488-4.649m.593 21.125c-1.129-.282-2.145-.772-2.741-1.179.498-.234 1.384-.552 2.92-.869 7.433-1.53 8.581-2.61 11.088-5.793.575-.73 1.226-1.557 2.129-2.565 1.344-1.504 1.959-1.251 3.074-.788.904.374 1.783 1.506 2.14 2.752.169.589.359 1.706-.262 2.575-5.237 7.332-12.868 7.238-18.348 5.867m38.902 36.201c-9.094 1.949-12.313-2.691-14.435-7.995-1.37-3.425-2.042-18.867-1.565-35.92a2 2 0 0 0-.089-.653 8.6 8.6 0 0 0-.254-1.205c-.71-2.481-2.44-4.557-4.516-5.417-.825-.342-2.339-.969-4.159-.503.389-1.599 1.061-3.404 1.791-5.358l.306-.823c.344-.927.777-1.887 1.234-2.903 2.471-5.489 5.854-13.008 2.182-29.992-1.376-6.361-5.969-9.468-12.933-8.746-4.175.432-7.994 2.116-9.899 3.082-.41.207-.784.408-1.134.603.531-6.41 2.54-18.388 10.055-25.967 4.731-4.771 11.032-7.128 18.709-7 15.126.247 24.827 8.01 30.301 14.479 4.717 5.574 7.271 11.189 8.291 14.218-7.666-.78-12.88.734-15.524 4.512-5.75 8.22 3.146 24.174 7.422 31.841.784 1.406 1.46 2.62 1.673 3.136 1.393 3.374 3.195 5.627 4.511 7.272.403.503.795.992 1.092 1.419-2.321.669-6.492 2.216-6.112 9.947-.307 3.879-2.487 22.041-3.594 28.458-1.462 8.477-4.581 11.635-13.353 13.515m37.959-43.438c-2.374 1.102-6.348 1.929-10.122 2.106-4.17.195-6.292-.467-6.791-.874-.235-4.818 1.559-5.321 3.457-5.854.298-.084.589-.166.87-.264q.26.213.575.421c3.351 2.212 9.327 2.451 17.765.709l.092-.019c-1.137 1.064-3.085 2.493-5.846 3.775" clip-rule="evenodd"/></svg>