<svg xmlns="http://www.w3.org/2000/svg" width="535" height="340" fill="none" viewBox="0 0 535 340"><g clip-path="url(#a)"><mask id="b" width="27" height="24" x="0" y="14" maskUnits="userSpaceOnUse" style="mask-type:alpha"><path fill="#fff" d="M13.41 37.816q-.394 0-.793-.142a1.84 1.84 0 0 1-.694-.438l-1.914-1.76q-3.87-3.578-6.795-6.908T.289 21.486q0-2.997 2.012-5.01t4.986-2.012q1.694 0 3.302.782 1.607.782 2.82 2.434 1.324-1.652 2.865-2.434a7.1 7.1 0 0 1 3.259-.782q2.973 0 4.985 2.012t2.012 5.01q0 3.752-2.92 7.088-2.918 3.336-6.81 6.912l-1.904 1.75a1.84 1.84 0 0 1-.694.438q-.399.142-.792.142"/></mask><g mask="url(#b)"><path fill="#fafafa" d="M13.41 37.816q-.394 0-.793-.142a1.84 1.84 0 0 1-.694-.437l-1.914-1.762Q6.14 31.9 3.214 28.568T.289 21.486q0-2.997 2.012-5.01t4.986-2.012q1.694 0 3.302.782 1.607.782 2.82 2.434 1.324-1.651 2.865-2.434a7.1 7.1 0 0 1 3.259-.782q2.973 0 4.985 2.013t2.012 5.01q0 3.75-2.92 7.087-2.918 3.336-6.81 6.912l-1.904 1.75a1.84 1.84 0 0 1-.694.438q-.399.142-.792.142"/><g filter="url(#c)"><path fill="#fafafa" d="M26.779 40.378c-1.419-5.294-6.915-8.421-12.276-6.984-5.362 1.437-8.56 6.894-7.141 12.189 1.418 5.294 6.914 8.421 12.276 6.984s8.559-6.894 7.14-12.189"/></g><g filter="url(#d)"><path fill="#fafafa" d="M33.048 38.696c-1.418-5.295-6.914-8.422-12.276-6.984-5.362 1.437-8.559 6.894-7.14 12.188s6.914 8.422 12.276 6.985c5.361-1.438 8.558-6.895 7.14-12.19"/></g><g filter="url(#e)"><path fill="#fafafa" d="M17.158 29.524c-1.419-5.294-6.915-8.421-12.277-6.984s-8.558 6.894-7.14 12.189c1.418 5.294 6.914 8.421 12.276 6.984s8.559-6.894 7.14-12.189"/></g><g filter="url(#f)"><path fill="#fafafa" d="M23.427 27.847c-1.418-5.294-6.914-8.421-12.276-6.984s-8.559 6.894-7.14 12.189c1.417 5.294 6.914 8.421 12.276 6.984 5.361-1.437 8.558-6.894 7.14-12.189"/></g><g filter="url(#g)"><path fill="#fafafa" d="M-9.359 30.527c6.133.255 11.312-4.512 11.567-10.647S-2.302 8.564-8.434 8.31c-6.133-.256-11.312 4.51-11.567 10.645-.256 6.136 4.51 11.316 10.642 11.572"/></g><g filter="url(#h)"><path fill="#fafafa" d="M26.402 10.928c-3.094-3.425-7.967-3.992-10.885-1.266s-2.775 7.713.319 11.138c3.094 3.426 7.967 3.993 10.885 1.267s2.775-7.713-.319-11.139"/></g><g filter="url(#i)" style="mix-blend-mode:hard-light"><path fill="#fafafa" d="M32.096 15.94c-3.487-3.861-8.98-4.502-12.266-1.431-3.287 3.07-3.124 8.69.363 12.552s8.98 4.503 12.266 1.432c3.287-3.071 3.125-8.69-.363-12.552"/></g></g></g><g clip-path="url(#j)"><path fill="#fafafa" d="M120.667 23.88c-.198-1.299-.714-2.47-1.651-3.42-.93-.943-2.084-1.417-3.368-1.576-1.556-.193-3.015.072-4.275 1.08-.341.272-.656.576-1.064.936l1.732-7.899h-6.039c-.38.981-5.715 25.727-5.662 26.279l6.724-3.599.377-1.655c.148.149.227.25.326.327.435.34.843.738 1.322 1 1.593.871 3.3.914 5.019.505 2.08-.495 3.631-1.765 4.766-3.547 1.641-2.579 2.257-5.4 1.794-8.43zm-7.552 6.123c-1.481 1.185-3.809.692-4.714-.48l.936-4.13c.713-.754 1.569-1.177 2.638-1.136a2.617 2.617 0 0 1 2.523 2.438c.085 1.33-.323 2.46-1.383 3.307z"/></g><path fill="#fafafa" fill-rule="evenodd" d="M212.655 20.772h8.554q.203 0 .395.027l-8.928 8.557a3 3 0 0 1-.029-.386v-8.198h-3.422v8.198a5.8 5.8 0 0 0 .477 2.302c.315.73.777 1.392 1.36 1.95a6.3 6.3 0 0 0 2.036 1.304 6.5 6.5 0 0 0 2.401.458h8.554v-3.28h-8.554q-.206 0-.403-.027l8.934-8.565q.03.196.031.394v8.198h3.421v-8.2a5.8 5.8 0 0 0-.478-2.3 6 6 0 0 0-1.36-1.951 6.3 6.3 0 0 0-2.035-1.303 6.5 6.5 0 0 0-2.4-.458h-8.554zm-21.678-1.093v.009l11.69 14.27c1.406 1.714 4.279.762 4.279-1.419v-12.86h-3.421v10.016l-8.204-10.016z" clip-rule="evenodd"/><mask id="k" width="33" height="19" x="293" y="17" maskUnits="userSpaceOnUse" style="mask-type:luminance"><path fill="#fff" d="M325.249 17.251H293.57V35.03h31.679z"/></mask><g mask="url(#k)"><path fill="#fafafa" d="M325.246 25.83c0-2.246-1.079-4.496-2.679-6.04-1.365-1.32-3.18-2.264-5.079-2.46-1.723-.177-3.449 0-5.034.725a8.9 8.9 0 0 0-3.653 3.056 9 9 0 0 0-1.324 3.005c-.162.7-.212 1.44-.307 2.154-.04.3-.073.6-.137.894a4.78 4.78 0 0 1-2.979 3.428c-2.059.757-4.419-.118-5.568-1.965a4.76 4.76 0 0 1-.279-4.505 4.754 4.754 0 0 1 6.361-2.303c.044.021.233.143.263.126.031-.016.054-.1.068-.124l1.678-3.07.237-.436a9.28 9.28 0 0 0-7.221-.598 8.97 8.97 0 0 0-5.597 5.673 8.83 8.83 0 0 0 4.58 10.667 9.7 9.7 0 0 0 3.635.906 8.9 8.9 0 0 0 7.191-3.084c1.616 1.865 4.059 3.093 6.546 3.11a9.6 9.6 0 0 0 4.076-.809 9 9 0 0 0 3.577-2.925 8.87 8.87 0 0 0 1.645-5.426m-4.192.764a4.79 4.79 0 1 1-9.529-.972 4.79 4.79 0 0 1 9.529.972"/></g><path fill="#fafafa" d="m419.051 18.156 1.829-2.571h-24.001l1.828 2.57h8.786l-.019 20.643 1.306 1.715 1.305-1.715.02-20.642z"/><path fill="#fafafa" d="M406.604 37.014V19.013h-7.286l1.524 2.143h3.594l-.009 13.286zM416.917 21.156l1.525-2.143h-7.485v18.001l2.168-2.572V21.156zM503.018 14.189c.585-.249 1.68-.549 2.476-.673.599-.102 1.264-.124 3.031-.132h13.197c-.335 4.021-3.997 4.048-4.675 4.118s-5.929 0-5.929 0c-4.689.059-5.302.132-6.727.732-2.023.855-3.549 2.304-4.513 4.279-.577 1.177-.709 1.726-.782 3.35-.109 2.135.556 4 2.053 5.815.774.936 2.351 2.011 3.578 2.435 1.03.359 1.3.403 2.52.446 1.052.037 1.3.022 1.957-.117.84-.175 1.607-.46 2.462-.914 1.497-.797 2.79-2.187 3.549-3.81.716-1.537.979-3.658.541-4.353a1.7 1.7 0 0 0-.388-.424c-.482-.351-.54-.351-4.513-.314l-3.732.043-.307.205c-.168.11-.402.359-.526.541-.277.447-.277.812-.007 1.346.161.33.263.432.592.593l.401.205h5.741v.175c0 .198-.365 1.024-.65 1.47-1.147 1.807-3.331 2.853-5.419 2.597-1.41-.168-2.535-.71-3.484-1.675-.891-.9-1.41-1.916-1.592-3.116-.314-2.026.474-4.103 2.008-5.325.76-.593 1.286-.87 2.133-1.119l.686-.205 4.017.022c2.337.007 4.214.044 4.492.095.613.095 1.431.337 1.753.52.657.365.927.534 1.095.687.102.095.197.168.227.168.08 0 .555.476.723.732.095.139.197.27.219.292.219.198.803 1.66.927 2.304.197 1.054-.014 3.416-.423 4.696-.804 2.531-2.491 4.96-4.448 6.415-2.359 1.748-4.893 2.604-7.705 2.604-2.155 0-3.93-.41-5.734-1.317-3.096-1.558-5.382-4.19-6.412-7.387-.343-1.076-.416-1.383-.562-2.414-.373-2.67.212-5.603 1.599-7.973a13.2 13.2 0 0 1 4.609-4.652c.737-.439.883-.512 1.351-.716.139-.059.409-.169.591-.25"/><path stroke="url(#l)" stroke-linejoin="bevel" stroke-width="1.888" d="M14.047 58.139c.756 37.311 12.474 79.834 73.33 102.762 61.317 23.102 123.038 28.557 148.363 55.655 20.953 22.418 24.57 48.567 24.57 58.573"/><path stroke="url(#m)" stroke-linejoin="bevel" stroke-width="1.888" d="M505.672 58.139c-.753 37.311-12.428 79.834-73.062 102.762-61.092 23.102-122.587 28.557-147.82 55.655-20.875 22.418-24.479 48.567-24.479 58.573"/><path stroke="url(#n)" stroke-linejoin="bevel" stroke-width="1.888" d="M111.469 58.139c.758 37.311 6.066 83.102 54.783 108.182 50.613 26.055 63.503 28.557 78.478 49.401 17.079 23.772 15.543 49.401 15.543 59.407"/><path stroke="url(#o)" stroke-linejoin="bevel" stroke-width="1.888" d="M408.246 58.139c-.754 37.311-6.03 83.102-54.451 108.182-50.306 26.055-63.118 28.557-78.003 49.401-16.975 23.772-15.449 49.401-15.449 59.407"/><path stroke="url(#p)" stroke-linejoin="bevel" stroke-width="1.888" d="M209.793 58.139c.762 37.311 3.052 82.543 18.493 107.974 12.947 21.324 20.144 28.556 26.496 49.401 5.716 18.76 5.526 49.609 5.526 59.615"/><path stroke="url(#q)" stroke-linejoin="bevel" stroke-width="1.888" d="M309.922 58.139c-.749 37.311-2.998 82.543-18.162 107.974-12.717 21.324-19.786 28.556-26.024 49.401-5.614 18.76-5.427 49.609-5.427 59.615"/><path fill="url(#r)" d="M262.839 286.179c-.03-1.952-2.496-2.79-3.713-1.261l-18.356 23.069c-2.167 2.723-.223 6.739 3.261 6.739h18.983l.224 14.866c.029 1.952 2.495 2.789 3.712 1.261l18.356-23.07c2.166-2.722.223-6.738-3.261-6.738h-19.109z"/><defs><linearGradient id="l" x1="26.521" x2="263.745" y1="58.139" y2="264.8" gradientUnits="userSpaceOnUse"><stop stop-color="#121212"/><stop offset=".144" stop-color="#2e2e2e"/><stop offset=".226" stop-color="#676767"/><stop offset=".264" stop-color="#bababa"/><stop offset=".317" stop-color="#2a2a2a"/><stop offset=".817" stop-color="#202020"/><stop offset="1" stop-color="#121212"/></linearGradient><linearGradient id="m" x1="493.244" x2="256.14" y1="58.139" y2="263.938" gradientUnits="userSpaceOnUse"><stop stop-color="#121212"/><stop offset=".144" stop-color="#2e2e2e"/><stop offset=".226" stop-color="#676767"/><stop offset=".264" stop-color="#bababa"/><stop offset=".317" stop-color="#2a2a2a"/><stop offset=".817" stop-color="#202020"/><stop offset=".993" stop-color="#121212"/></linearGradient><linearGradient id="n" x1="98.959" x2="287.492" y1="58.139" y2="266.496" gradientUnits="userSpaceOnUse"><stop offset=".048" stop-color="#121212"/><stop offset=".144" stop-color="#2e2e2e"/><stop offset=".226" stop-color="#676767"/><stop offset=".264" stop-color="#bababa"/><stop offset=".317" stop-color="#2a2a2a"/><stop offset=".817" stop-color="#202020"/><stop offset=".965" stop-color="#121212"/></linearGradient><linearGradient id="o" x1="420.681" x2="232.037" y1="58.139" y2="265.355" gradientUnits="userSpaceOnUse"><stop offset=".043" stop-color="#121212"/><stop offset=".144" stop-color="#2e2e2e"/><stop offset=".226" stop-color="#676767"/><stop offset=".264" stop-color="#bababa"/><stop offset=".317" stop-color="#2a2a2a"/><stop offset=".817" stop-color="#202020"/><stop offset=".935" stop-color="#121212"/></linearGradient><linearGradient id="p" x1="214.37" x2="279.467" y1="58.139" y2="291.936" gradientUnits="userSpaceOnUse"><stop offset=".03" stop-color="#121212"/><stop offset=".144" stop-color="#2e2e2e"/><stop offset=".226" stop-color="#676767"/><stop offset=".264" stop-color="#bababa"/><stop offset=".317" stop-color="#2a2a2a"/><stop offset=".817" stop-color="#202020"/><stop offset=".945" stop-color="#121212"/></linearGradient><linearGradient id="q" x1="305.426" x2="239.321" y1="58.139" y2="291.321" gradientUnits="userSpaceOnUse"><stop offset=".033" stop-color="#121212"/><stop offset=".144" stop-color="#2e2e2e"/><stop offset=".226" stop-color="#676767"/><stop offset=".264" stop-color="#bababa"/><stop offset=".317" stop-color="#2a2a2a"/><stop offset=".817" stop-color="#202020"/><stop offset=".91" stop-color="#121212"/></linearGradient><linearGradient id="r" x1="239.849" x2="287.788" y1="332.005" y2="285.664" gradientUnits="userSpaceOnUse"><stop stop-color="#898989"/><stop offset="1" stop-color="#fafafa"/></linearGradient><filter id="c" width="38.768" height="38.554" x="-2.314" y="23.704" color-interpolation-filters="sRGB" filterUnits="userSpaceOnUse"><feFlood flood-opacity="0" result="BackgroundImageFix"/><feBlend in="SourceGraphic" in2="BackgroundImageFix" result="shape"/><feGaussianBlur result="effect1_foregroundBlur_778_11379" stdDeviation="4.67"/></filter><filter id="d" width="38.768" height="38.554" x="3.956" y="22.021" color-interpolation-filters="sRGB" filterUnits="userSpaceOnUse"><feFlood flood-opacity="0" result="BackgroundImageFix"/><feBlend in="SourceGraphic" in2="BackgroundImageFix" result="shape"/><feGaussianBlur result="effect1_foregroundBlur_778_11379" stdDeviation="4.67"/></filter><filter id="e" width="38.768" height="38.554" x="-11.935" y="12.85" color-interpolation-filters="sRGB" filterUnits="userSpaceOnUse"><feFlood flood-opacity="0" result="BackgroundImageFix"/><feBlend in="SourceGraphic" in2="BackgroundImageFix" result="shape"/><feGaussianBlur result="effect1_foregroundBlur_778_11379" stdDeviation="4.67"/></filter><filter id="f" width="38.768" height="38.554" x="-5.665" y="11.173" color-interpolation-filters="sRGB" filterUnits="userSpaceOnUse"><feFlood flood-opacity="0" result="BackgroundImageFix"/><feBlend in="SourceGraphic" in2="BackgroundImageFix" result="shape"/><feGaussianBlur result="effect1_foregroundBlur_778_11379" stdDeviation="4.67"/></filter><filter id="g" width="55.443" height="55.449" x="-36.618" y="-8.307" color-interpolation-filters="sRGB" filterUnits="userSpaceOnUse"><feFlood flood-opacity="0" result="BackgroundImageFix"/><feBlend in="SourceGraphic" in2="BackgroundImageFix" result="shape"/><feGaussianBlur result="effect1_foregroundBlur_778_11379" stdDeviation="8.303"/></filter><filter id="h" width="34.084" height="34.536" x="4.077" y="-1.404" color-interpolation-filters="sRGB" filterUnits="userSpaceOnUse"><feFlood flood-opacity="0" result="BackgroundImageFix"/><feBlend in="SourceGraphic" in2="BackgroundImageFix" result="shape"/><feGaussianBlur result="effect1_foregroundBlur_778_11379" stdDeviation="4.67"/></filter><filter id="i" width="36.033" height="36.549" x="8.128" y="3.226" color-interpolation-filters="sRGB" filterUnits="userSpaceOnUse"><feFlood flood-opacity="0" result="BackgroundImageFix"/><feBlend in="SourceGraphic" in2="BackgroundImageFix" result="shape"/><feGaussianBlur result="effect1_foregroundBlur_778_11379" stdDeviation="4.67"/></filter><clipPath id="a"><path fill="#fff" d="M.008 0h37.266v52.281H.008z"/></clipPath><clipPath id="j"><path fill="#fff" d="M100.34 13.001h20.477v26.28H100.34z"/></clipPath></defs></svg>