<svg width="535" height="340" viewBox="0 0 535 340" fill="none" xmlns="http://www.w3.org/2000/svg">
<g clip-path="url(#clip0_778_11379)">
<mask id="mask0_778_11379" style="mask-type:alpha" maskUnits="userSpaceOnUse" x="0" y="14" width="27" height="24">
<path d="M13.4096 37.8162C13.1472 37.8162 12.883 37.7687 12.6168 37.6737C12.3509 37.579 12.1196 37.4332 11.9228 37.2364L10.0091 35.4752C7.42874 33.0908 5.16369 30.7884 3.21396 28.568C1.26403 26.3477 0.289062 23.987 0.289062 21.486C0.289062 19.4881 0.959634 17.8182 2.30078 16.4764C3.64214 15.1348 5.30408 14.464 7.2866 14.464C8.4165 14.464 9.5172 14.7246 10.5887 15.2459C11.6602 15.7674 12.6006 16.5787 13.4096 17.6797C14.2916 16.5787 15.2464 15.7674 16.2742 15.2459C17.3019 14.7246 18.3882 14.464 19.5327 14.464C21.5152 14.464 23.1772 15.1348 24.5185 16.4764C25.8597 17.8182 26.5302 19.4881 26.5302 21.486C26.5302 23.987 25.5572 26.3496 23.6109 28.5736C21.6646 30.7978 19.394 33.102 16.7991 35.4864L14.8965 37.2364C14.6997 37.4332 14.4684 37.579 14.2024 37.6737C13.9363 37.7687 13.6721 37.8162 13.4096 37.8162Z" fill="white"/>
</mask>
<g mask="url(#mask0_778_11379)">
<path d="M13.4096 37.8163C13.1472 37.8163 12.883 37.7688 12.6168 37.6738C12.3509 37.5791 12.1196 37.4333 11.9228 37.2365L10.0091 35.4753C7.42874 33.0909 5.16369 30.7885 3.21396 28.5681C1.26403 26.3478 0.289062 23.9871 0.289062 21.4861C0.289062 19.4882 0.959634 17.8183 2.30078 16.4765C3.64214 15.1349 5.30408 14.4641 7.2866 14.4641C8.4165 14.4641 9.5172 14.7247 10.5887 15.246C11.6602 15.7675 12.6006 16.5788 13.4096 17.6798C14.2916 16.5788 15.2464 15.7675 16.2742 15.246C17.3019 14.7247 18.3882 14.4641 19.5327 14.4641C21.5152 14.4641 23.1772 15.1349 24.5185 16.4765C25.8597 17.8183 26.5302 19.4882 26.5302 21.4861C26.5302 23.9871 25.5572 26.3497 23.6109 28.5737C21.6646 30.7979 19.394 33.1021 16.7991 35.4865L14.8965 37.2365C14.6997 37.4333 14.4684 37.5791 14.2024 37.6738C13.9363 37.7688 13.6721 37.8163 13.4096 37.8163Z" fill="#FAFAFA"/>
<g filter="url(#filter0_f_778_11379)">
<path d="M26.7786 40.3782C25.3604 35.0837 19.8642 31.9567 14.5025 33.3939C9.14071 34.8311 5.94377 40.2882 7.36191 45.5827C8.78006 50.8772 14.2763 54.0042 19.638 52.567C24.9998 51.1298 28.1967 45.6727 26.7786 40.3782Z" fill="#FAFAFA"/>
</g>
<g filter="url(#filter1_f_778_11379)">
<path d="M33.0481 38.6957C31.63 33.4012 26.1338 30.2743 20.772 31.7115C15.4102 33.1487 12.2133 38.6058 13.6314 43.9003C15.0496 49.1948 20.5458 52.3217 25.9076 50.8845C31.2693 49.4473 34.4663 43.9902 33.0481 38.6957Z" fill="#FAFAFA"/>
</g>
<g filter="url(#filter2_f_778_11379)">
<path d="M17.1575 29.5241C15.7394 24.2296 10.2431 21.1027 4.88138 22.5399C-0.480383 23.9771 -3.67732 29.4342 -2.25918 34.7287C-0.841037 40.0232 4.65516 43.1501 10.0169 41.7129C15.3787 40.2757 18.5756 34.8186 17.1575 29.5241Z" fill="#FAFAFA"/>
</g>
<g filter="url(#filter3_f_778_11379)">
<path d="M23.427 27.8472C22.0089 22.5528 16.5127 19.4258 11.1509 20.863C5.78915 22.3002 2.59221 27.7573 4.01035 33.0518C5.42849 38.3463 10.9247 41.4732 16.2865 40.036C21.6482 38.5988 24.8452 33.1417 23.427 27.8472Z" fill="#FAFAFA"/>
</g>
<g filter="url(#filter4_f_778_11379)">
<path d="M-9.35875 30.5266C-3.22576 30.782 1.95297 26.0154 2.20825 19.8802C2.46353 13.745 -2.3013 8.56445 -8.43429 8.30907C-14.5673 8.0537 -19.746 12.8202 -20.0013 18.9554C-20.2566 25.0906 -15.4917 30.2712 -9.35875 30.5266Z" fill="#FAFAFA"/>
</g>
<g filter="url(#filter5_f_778_11379)">
<path d="M26.4023 10.9284C23.3085 7.5029 18.4351 6.93588 15.5173 9.66191C12.5994 12.3879 12.742 17.3747 15.8358 20.8002C18.9295 24.2257 23.8029 24.7927 26.7207 22.0667C29.6386 19.3407 29.496 14.3539 26.4023 10.9284Z" fill="#FAFAFA"/>
</g>
<g style="mix-blend-mode:hard-light" filter="url(#filter6_f_778_11379)">
<path d="M32.0964 15.9405C28.6088 12.079 23.1169 11.4381 19.8299 14.509C16.5429 17.5799 16.7055 23.1998 20.193 27.0613C23.6806 30.9228 29.1725 31.5637 32.4595 28.4928C35.7465 25.4219 35.5839 19.8021 32.0964 15.9405Z" fill="#FAFAFA"/>
</g>
</g>
</g>
<g clip-path="url(#clip1_778_11379)">
<path d="M120.667 23.8794C120.469 22.5815 119.953 21.4109 119.016 20.4603C118.086 19.5166 116.932 19.0431 115.648 18.8845C114.092 18.6911 112.633 18.9562 111.373 19.9636C111.032 20.2357 110.717 20.5402 110.309 20.9003C110.898 18.2175 111.467 15.6228 112.041 13.0014H106.002C105.622 13.9821 100.287 38.7276 100.34 39.2799C102.606 38.0677 104.862 36.86 107.064 35.6813C107.197 35.0989 107.31 34.6022 107.441 34.0256C107.589 34.175 107.668 34.2757 107.767 34.3533C108.202 34.6937 108.61 35.0908 109.089 35.3525C110.682 36.2244 112.389 36.2672 114.108 35.8585C116.188 35.3629 117.739 34.0928 118.874 32.3108C120.515 29.7323 121.131 26.9118 120.668 23.8806L120.667 23.8794ZM113.115 30.0033C111.634 31.1877 109.306 30.6945 108.401 29.5228C108.714 28.1391 109.024 26.774 109.337 25.3939C110.05 24.639 110.906 24.2163 111.975 24.2569C113.314 24.3078 114.412 25.351 114.498 26.6953C114.583 28.0257 114.175 29.1557 113.115 30.0021V30.0033Z" fill="#FAFAFA"/>
</g>
<path fill-rule="evenodd" clip-rule="evenodd" d="M212.655 20.7722H221.209C221.343 20.7722 221.477 20.781 221.604 20.7985L212.676 29.3564C212.657 29.2284 212.647 29.0993 212.647 28.97V20.7722H209.225V28.97C209.224 29.7599 209.386 30.542 209.702 31.2717C210.017 32.0014 210.479 32.6645 211.062 33.2229C211.644 33.7814 212.336 34.2244 213.098 34.5265C213.859 34.8287 214.675 34.9841 215.499 34.9839H224.053V31.7036H215.499C215.362 31.7036 215.227 31.6949 215.096 31.6774L224.03 23.1122C224.05 23.2425 224.06 23.3741 224.061 23.5058V31.7036H227.482V23.5043C227.482 22.7148 227.319 21.9329 227.004 21.2035C226.689 20.474 226.227 19.8112 225.644 19.2529C225.062 18.6946 224.37 18.2517 223.609 17.9496C222.848 17.6474 222.033 17.4919 221.209 17.4919H212.655V20.7722ZM190.977 19.6788V19.6875L202.667 33.9576C204.073 35.6721 206.946 34.7201 206.946 32.539V19.6788H203.525V29.6946L195.321 19.6788H190.977Z" fill="#FAFAFA"/>
<mask id="mask1_778_11379" style="mask-type:luminance" maskUnits="userSpaceOnUse" x="293" y="17" width="33" height="19">
<path d="M325.249 17.2512H293.57V35.03H325.249V17.2512Z" fill="white"/>
</mask>
<g mask="url(#mask1_778_11379)">
<path d="M325.246 25.8292C325.246 23.5842 324.167 21.3344 322.567 19.7893C321.202 18.4704 319.387 17.5265 317.488 17.3294C315.765 17.1532 314.039 17.3294 312.454 18.055C310.981 18.7226 309.718 19.7793 308.801 21.1114C308.179 22.0232 307.73 23.0417 307.477 24.116C307.315 24.8159 307.265 25.5561 307.17 26.2705C307.13 26.5695 307.097 26.8701 307.033 27.1642C306.86 27.938 306.497 28.6566 305.977 29.2551C305.457 29.8536 304.796 30.3132 304.054 30.5923C301.995 31.3487 299.635 30.4743 298.486 28.627C298.07 27.9578 297.827 27.1959 297.778 26.4095C297.729 25.6232 297.877 24.837 298.207 24.1217C298.537 23.4064 299.04 22.7843 299.67 22.3114C300.3 21.8384 301.038 21.5294 301.817 21.412C302.394 21.3251 302.982 21.3454 303.551 21.4718C303.902 21.5493 304.243 21.6659 304.568 21.8193C304.612 21.8403 304.801 21.9615 304.831 21.9454C304.862 21.9292 304.885 21.8452 304.899 21.8209L306.577 18.7501L306.814 18.3153C305.712 17.7367 304.505 17.3856 303.264 17.2829C302.024 17.1802 300.775 17.3279 299.593 17.7172C298.286 18.1676 297.101 18.914 296.13 19.8981C295.159 20.8822 294.429 22.0773 293.996 23.3903C293.341 25.4217 293.445 27.6214 294.287 29.5825C295.129 31.5436 296.653 33.1333 298.576 34.0575C299.718 34.5926 300.952 34.9 302.211 34.9626C303.449 35.024 304.685 34.8265 305.842 34.3828C306.998 33.9392 308.05 33.2593 308.929 32.3863C309.09 32.2247 309.252 32.0534 309.402 31.8788C311.018 33.7439 313.461 34.9723 315.948 34.9884C317.349 35.02 318.741 34.744 320.024 34.1803C321.45 33.533 322.683 32.5246 323.601 31.255C324.728 29.6751 325.306 27.7691 325.246 25.8292ZM321.054 26.5937C320.929 27.8155 320.34 28.9428 319.409 29.7427C318.477 30.5426 317.273 30.9539 316.047 30.8916C314.82 30.8294 313.664 30.2983 312.818 29.4082C311.972 28.5181 311.5 27.3369 311.5 26.1088C311.5 24.8807 311.972 23.6996 312.818 22.8095C313.664 21.9193 314.82 21.3883 316.047 21.326C317.273 21.2638 318.477 21.6751 319.409 22.475C320.34 23.2749 320.929 24.4022 321.054 25.6239C321.086 25.9464 321.086 26.2713 321.054 26.5937Z" fill="#FAFAFA"/>
</g>
<path d="M419.051 18.1557L420.88 15.5845H396.879L398.707 18.1557H407.493L407.474 38.7981L408.78 40.5126L410.085 38.7981L410.105 18.1557H419.051Z" fill="#FAFAFA"/>
<path d="M406.604 37.0141V19.0129H399.318L400.842 21.1561H404.436L404.427 34.4424L406.604 37.0141Z" fill="#FAFAFA"/>
<path d="M416.917 21.1561L418.442 19.0129H410.957V37.0141L413.125 34.4424V21.1561H416.917Z" fill="#FAFAFA"/>
<path d="M503.018 14.1888C503.603 13.9401 504.698 13.6402 505.494 13.5159C506.093 13.4135 506.758 13.3915 508.525 13.3842H517.047H521.722C521.387 17.4055 517.725 17.4317 517.047 17.5022C516.37 17.5727 511.118 17.5022 511.118 17.5022C506.429 17.5607 505.816 17.6339 504.391 18.2337C502.368 19.0894 500.842 20.5377 499.878 22.5126C499.301 23.6902 499.169 24.2388 499.096 25.8626C498.987 27.9984 499.652 29.8636 501.149 31.6776C501.923 32.6138 503.5 33.689 504.727 34.1132C505.757 34.4716 506.027 34.5156 507.247 34.5594C508.299 34.596 508.547 34.5814 509.204 34.4424C510.044 34.2669 510.811 33.9816 511.666 33.5281C513.163 32.7308 514.456 31.3411 515.215 29.7173C515.931 28.1812 516.194 26.0601 515.756 25.3652C515.661 25.2116 515.485 25.0214 515.368 24.941C514.886 24.5899 514.828 24.5899 510.855 24.6265L507.123 24.6703L506.816 24.8751C506.648 24.9848 506.414 25.2336 506.29 25.4164C506.013 25.8626 506.013 26.2283 506.283 26.7623C506.444 27.0914 506.546 27.1938 506.875 27.3547L507.276 27.5596H510.147H513.017V27.735C513.017 27.9326 512.652 28.7591 512.367 29.2053C511.22 31.0119 509.036 32.0579 506.948 31.8019C505.538 31.6337 504.413 31.0924 503.464 30.1269C502.573 29.2272 502.054 28.2105 501.872 27.011C501.558 24.9848 502.346 22.9075 503.88 21.6861C504.64 21.0935 505.166 20.8156 506.013 20.567L506.699 20.3621L510.716 20.3841C513.053 20.3914 514.93 20.428 515.208 20.4792C515.821 20.5743 516.639 20.8156 516.961 20.9985C517.618 21.3642 517.888 21.5325 518.056 21.6861C518.158 21.7812 518.253 21.8543 518.283 21.8543C518.363 21.8543 518.838 22.3297 519.006 22.5857C519.101 22.7247 519.203 22.8564 519.225 22.8783C519.444 23.0758 520.028 24.5386 520.152 25.1823C520.349 26.2356 520.138 28.5982 519.729 29.8782C518.925 32.409 517.238 34.8374 515.281 36.2929C512.922 38.041 510.388 38.8967 507.576 38.8967C505.421 38.8967 503.646 38.4872 501.842 37.5803C498.746 36.0223 496.46 33.3891 495.43 30.1927C495.087 29.1175 495.014 28.8103 494.868 27.779C494.495 25.1092 495.08 22.1761 496.467 19.8063C497.57 17.9118 499.199 16.2661 501.076 15.1542C501.813 14.7154 501.959 14.6423 502.427 14.4375C502.566 14.379 502.836 14.2692 503.018 14.1888Z" fill="#FAFAFA"/>
<path d="M14.0469 58.1387C14.8029 95.4501 26.5207 137.973 87.3777 160.901C148.694 184.003 210.415 189.458 235.74 216.556C256.693 238.974 260.31 265.123 260.31 275.129" stroke="url(#paint0_linear_778_11379)" stroke-width="1.88763" stroke-linejoin="bevel"/>
<path d="M505.672 58.1387C504.919 95.4501 493.244 137.973 432.61 160.901C371.518 184.003 310.023 189.458 284.79 216.556C263.915 238.974 260.311 265.123 260.311 275.129" stroke="url(#paint1_linear_778_11379)" stroke-width="1.88763" stroke-linejoin="bevel"/>
<path d="M111.469 58.1387C112.227 95.4501 117.535 141.241 166.252 166.321C216.865 192.376 229.755 194.878 244.73 215.722C261.809 239.494 260.273 265.123 260.273 275.129" stroke="url(#paint2_linear_778_11379)" stroke-width="1.88763" stroke-linejoin="bevel"/>
<path d="M408.246 58.1387C407.492 95.4501 402.216 141.241 353.795 166.321C303.489 192.376 290.677 194.878 275.792 215.722C258.817 239.494 260.343 265.123 260.343 275.129" stroke="url(#paint3_linear_778_11379)" stroke-width="1.88763" stroke-linejoin="bevel"/>
<path d="M209.793 58.1387C210.555 95.4501 212.845 140.682 228.286 166.113C241.233 187.437 248.43 194.669 254.782 215.514C260.498 234.274 260.308 265.123 260.308 275.129" stroke="url(#paint4_linear_778_11379)" stroke-width="1.88763" stroke-linejoin="bevel"/>
<path d="M309.922 58.1387C309.173 95.4501 306.924 140.682 291.76 166.113C279.043 187.437 271.974 194.669 265.736 215.514C260.122 234.274 260.309 265.123 260.309 275.129" stroke="url(#paint5_linear_778_11379)" stroke-width="1.88763" stroke-linejoin="bevel"/>
<path d="M262.839 286.179C262.809 284.227 260.343 283.389 259.126 284.918L240.77 307.987C238.603 310.71 240.547 314.726 244.031 314.726H263.014L263.238 329.592C263.267 331.544 265.733 332.381 266.95 330.853L285.306 307.783C287.472 305.061 285.529 301.045 282.045 301.045H262.936L262.839 286.179Z" fill="url(#paint6_linear_778_11379)"/>
<defs>
<filter id="filter0_f_778_11379" x="-2.31354" y="23.7036" width="38.7677" height="38.5536" filterUnits="userSpaceOnUse" color-interpolation-filters="sRGB">
<feFlood flood-opacity="0" result="BackgroundImageFix"/>
<feBlend mode="normal" in="SourceGraphic" in2="BackgroundImageFix" result="shape"/>
<feGaussianBlur stdDeviation="4.67044" result="effect1_foregroundBlur_778_11379"/>
</filter>
<filter id="filter1_f_778_11379" x="3.95599" y="22.0212" width="38.7677" height="38.5536" filterUnits="userSpaceOnUse" color-interpolation-filters="sRGB">
<feFlood flood-opacity="0" result="BackgroundImageFix"/>
<feBlend mode="normal" in="SourceGraphic" in2="BackgroundImageFix" result="shape"/>
<feGaussianBlur stdDeviation="4.67044" result="effect1_foregroundBlur_778_11379"/>
</filter>
<filter id="filter2_f_778_11379" x="-11.9346" y="12.8496" width="38.7677" height="38.5536" filterUnits="userSpaceOnUse" color-interpolation-filters="sRGB">
<feFlood flood-opacity="0" result="BackgroundImageFix"/>
<feBlend mode="normal" in="SourceGraphic" in2="BackgroundImageFix" result="shape"/>
<feGaussianBlur stdDeviation="4.67044" result="effect1_foregroundBlur_778_11379"/>
</filter>
<filter id="filter3_f_778_11379" x="-5.6651" y="11.1727" width="38.7677" height="38.5536" filterUnits="userSpaceOnUse" color-interpolation-filters="sRGB">
<feFlood flood-opacity="0" result="BackgroundImageFix"/>
<feBlend mode="normal" in="SourceGraphic" in2="BackgroundImageFix" result="shape"/>
<feGaussianBlur stdDeviation="4.67044" result="effect1_foregroundBlur_778_11379"/>
</filter>
<filter id="filter4_f_778_11379" x="-36.6177" y="-8.30673" width="55.4425" height="55.4491" filterUnits="userSpaceOnUse" color-interpolation-filters="sRGB">
<feFlood flood-opacity="0" result="BackgroundImageFix"/>
<feBlend mode="normal" in="SourceGraphic" in2="BackgroundImageFix" result="shape"/>
<feGaussianBlur stdDeviation="8.30301" result="effect1_foregroundBlur_778_11379"/>
</filter>
<filter id="filter5_f_778_11379" x="4.07709" y="-1.4036" width="34.0841" height="34.5358" filterUnits="userSpaceOnUse" color-interpolation-filters="sRGB">
<feFlood flood-opacity="0" result="BackgroundImageFix"/>
<feBlend mode="normal" in="SourceGraphic" in2="BackgroundImageFix" result="shape"/>
<feGaussianBlur stdDeviation="4.67044" result="effect1_foregroundBlur_778_11379"/>
</filter>
<filter id="filter6_f_778_11379" x="8.12787" y="3.22638" width="36.0333" height="36.5491" filterUnits="userSpaceOnUse" color-interpolation-filters="sRGB">
<feFlood flood-opacity="0" result="BackgroundImageFix"/>
<feBlend mode="normal" in="SourceGraphic" in2="BackgroundImageFix" result="shape"/>
<feGaussianBlur stdDeviation="4.67044" result="effect1_foregroundBlur_778_11379"/>
</filter>
<linearGradient id="paint0_linear_778_11379" x1="26.5207" y1="58.1387" x2="263.745" y2="264.8" gradientUnits="userSpaceOnUse">
<stop stop-color="#121212"/>
<stop offset="0.144231" stop-color="#2E2E2E"/>
<stop offset="0.225962" stop-color="#676767"/>
<stop offset="0.264423" stop-color="#BABABA"/>
<stop offset="0.317308" stop-color="#2A2A2A"/>
<stop offset="0.817308" stop-color="#202020"/>
<stop offset="1" stop-color="#121212"/>
</linearGradient>
<linearGradient id="paint1_linear_778_11379" x1="493.244" y1="58.1387" x2="256.14" y2="263.938" gradientUnits="userSpaceOnUse">
<stop stop-color="#121212"/>
<stop offset="0.144231" stop-color="#2E2E2E"/>
<stop offset="0.225962" stop-color="#676767"/>
<stop offset="0.264423" stop-color="#BABABA"/>
<stop offset="0.317308" stop-color="#2A2A2A"/>
<stop offset="0.817308" stop-color="#202020"/>
<stop offset="0.993183" stop-color="#121212"/>
</linearGradient>
<linearGradient id="paint2_linear_778_11379" x1="98.9585" y1="58.1387" x2="287.492" y2="266.496" gradientUnits="userSpaceOnUse">
<stop offset="0.0476638" stop-color="#121212"/>
<stop offset="0.144231" stop-color="#2E2E2E"/>
<stop offset="0.225962" stop-color="#676767"/>
<stop offset="0.264423" stop-color="#BABABA"/>
<stop offset="0.317308" stop-color="#2A2A2A"/>
<stop offset="0.817308" stop-color="#202020"/>
<stop offset="0.96536" stop-color="#121212"/>
</linearGradient>
<linearGradient id="paint3_linear_778_11379" x1="420.681" y1="58.1387" x2="232.037" y2="265.355" gradientUnits="userSpaceOnUse">
<stop offset="0.0431991" stop-color="#121212"/>
<stop offset="0.144231" stop-color="#2E2E2E"/>
<stop offset="0.225962" stop-color="#676767"/>
<stop offset="0.264423" stop-color="#BABABA"/>
<stop offset="0.317308" stop-color="#2A2A2A"/>
<stop offset="0.817308" stop-color="#202020"/>
<stop offset="0.935207" stop-color="#121212"/>
</linearGradient>
<linearGradient id="paint4_linear_778_11379" x1="214.37" y1="58.1387" x2="279.467" y2="291.936" gradientUnits="userSpaceOnUse">
<stop offset="0.0299536" stop-color="#121212"/>
<stop offset="0.144231" stop-color="#2E2E2E"/>
<stop offset="0.225962" stop-color="#676767"/>
<stop offset="0.264423" stop-color="#BABABA"/>
<stop offset="0.317308" stop-color="#2A2A2A"/>
<stop offset="0.817308" stop-color="#202020"/>
<stop offset="0.944809" stop-color="#121212"/>
</linearGradient>
<linearGradient id="paint5_linear_778_11379" x1="305.426" y1="58.1387" x2="239.321" y2="291.321" gradientUnits="userSpaceOnUse">
<stop offset="0.0330557" stop-color="#121212"/>
<stop offset="0.144231" stop-color="#2E2E2E"/>
<stop offset="0.225962" stop-color="#676767"/>
<stop offset="0.264423" stop-color="#BABABA"/>
<stop offset="0.317308" stop-color="#2A2A2A"/>
<stop offset="0.817308" stop-color="#202020"/>
<stop offset="0.909743" stop-color="#121212"/>
</linearGradient>
<linearGradient id="paint6_linear_778_11379" x1="239.849" y1="332.005" x2="287.788" y2="285.664" gradientUnits="userSpaceOnUse">
<stop stop-color="#898989"/>
<stop offset="1" stop-color="#FAFAFA"/>
</linearGradient>
<clipPath id="clip0_778_11379">
<rect width="37.2656" height="52.281" fill="white" transform="translate(0.0078125 -3.05176e-05)"/>
</clipPath>
<clipPath id="clip1_778_11379">
<rect width="20.4767" height="26.2785" fill="white" transform="translate(100.34 13.0014)"/>
</clipPath>
</defs>
</svg>
