<svg xmlns="http://www.w3.org/2000/svg" id="Layer_2" data-name="Layer 2" viewBox="0 0 25 25"><defs><style>.cls-3,.cls-4,.cls-5{stroke-linecap:round;stroke-linejoin:round}.cls-5{stroke:#3e3e3e}.cls-3{stroke:#505050}.cls-3,.cls-4,.cls-5{fill:none}.cls-4{stroke:#3fcf8e}.cls-4,.cls-5{opacity:.25}</style></defs><g id="Layer_1-2" data-name="Layer 1"><circle cx="12.5" cy="12.5" r="4" class="cls-4"/><circle cx="12.5" cy="12.5" r="7" class="cls-4"/><rect width="24" height="24" x=".5" y=".5" rx="6" ry="6" style="fill:#343434;stroke-linecap:round;stroke-linejoin:round;stroke:#3e3e3e"/><path d="M12.5 24.18V12.5" style="stroke-linecap:round;stroke-linejoin:round;fill:#fff;stroke:#505050"/><circle cx="12.31" cy="12.62" r="4" class="cls-5"/><circle cx="12.31" cy="12.62" r="7" class="cls-5"/><circle cx="12.5" cy="12.5" r="1" class="cls-3"/><path d="M7.19 16.74a5.98 5.98 0 0 1-1.76-4.24" class="cls-3"/><path d="M7.19 8.26a5.98 5.98 0 0 0-1.76 4.24M9.31 14.62c-.54-.54-.88-1.29-.88-2.12M9.31 10.38c-.54.54-.88 1.29-.88 2.12M17.74 8.26a5.98 5.98 0 0 1 1.76 4.24" class="cls-3"/><path d="M17.74 16.74a5.98 5.98 0 0 0 1.76-4.24M15.62 10.38c.54.54.88 1.29.88 2.12M15.62 14.62c.54-.54.88-1.29.88-2.12" class="cls-3"/></g></svg>