<svg xmlns="http://www.w3.org/2000/svg" id="Layer_2" data-name="Layer 2" viewBox="0 0 25 25"><defs><style>.cls-1{fill:none;stroke:#3fcf8e;stroke-linecap:round;stroke-linejoin:round}.cls-3{opacity:.5}</style></defs><g id="Layer_1-2" data-name="Layer 1"><rect width="24" height="24" x=".5" y=".5" rx="6" ry="6" style="fill:#3fcf8e;opacity:.1"/><g class="cls-3"><path d="M5.5 10.5c0-1.54.59-3.07 1.76-4.24M11.5 4.5c-1.54 0-3.07.59-4.24 1.76" class="cls-1"/></g><g class="cls-3"><path d="M20.5 13.5c0 1.54-.59 3.07-1.76 4.24" class="cls-1"/><path d="M14.5 19.5c1.54 0 3.07-.59 4.24-1.76" class="cls-1"/></g><rect width="24" height="24" x=".5" y=".5" class="cls-1" rx="6" ry="6"/><rect width="8" height="8" x="12.5" y="3.5" class="cls-1" rx="4" ry="4"/><path d="M9.86 13.5H5.62L3.5 17.17l2.12 3.68h4.24l2.13-3.68z" class="cls-1"/></g></svg>