<svg width="448" height="400" viewBox="0 0 448 400" fill="none" xmlns="http://www.w3.org/2000/svg">
<g clip-path="url(#clip0_8_8442)">
<path d="M218.174 207.823L29.4988 520.269L260.725 520.269L218.174 207.823Z" fill="url(#paint0_linear_8_8442)"/>
<g style="mix-blend-mode:soft-light" filter="url(#filter0_f_8_8442)">
<ellipse cx="505.4" cy="206.281" rx="505.4" ry="206.281" transform="matrix(-0.978344 -0.206986 -0.206986 0.978344 699.24 445.908)" fill="#121212"/>
</g>
<path d="M223.508 199.905L-82.937 381.03L-65.4311 473.061L223.508 199.905Z" fill="url(#paint1_linear_8_8442)"/>
<path d="M218.616 201.766L580.64 179.928L608.861 129.78L218.616 201.766Z" fill="url(#paint2_linear_8_8442)"/>
<path d="M269.939 -95.6486H521.055V114.003L221.755 203.651L269.939 -95.6486Z" fill="url(#paint3_linear_8_8442)"/>
<path d="M-87.0979 161.262L-79.9935 234.717L-74.3882 261.306L225.137 196.721L-87.0979 161.262Z" fill="url(#paint4_linear_8_8442)"/>
<g filter="url(#filter1_bd_8_8442)">
<path fill-rule="evenodd" clip-rule="evenodd" d="M224.008 -148C220.033 -148 216.848 -144.709 216.976 -140.736L224.008 76.4145L231.041 -140.736C231.169 -144.709 227.983 -148 224.008 -148ZM224.008 547.994C220.033 547.994 216.848 544.703 216.976 540.73L224.008 323.579L231.041 540.73C231.169 544.703 227.983 547.994 224.008 547.994ZM333.947 522.588C335.189 526.378 339.326 528.383 343.069 527.009C346.798 525.64 348.659 521.46 347.181 517.773L266.307 316.082L333.947 522.588ZM105.023 -127C101.257 -125.645 99.3671 -121.435 100.858 -117.721L181.776 83.9062L114.128 -122.552C112.889 -126.336 108.769 -128.348 105.023 -127ZM437.589 465.515C440.053 468.653 444.625 469.13 447.684 466.568C450.746 464.003 451.075 459.411 448.409 456.435L303.433 294.656L437.589 465.515ZM0.338776 -66.5814C-2.72369 -64.0161 -3.05219 -59.4241 -0.386086 -56.449L144.59 105.331L10.4338 -65.5284C7.96967 -68.6667 3.39754 -69.1436 0.338776 -66.5814ZM515.573 376.476C518.965 378.585 523.429 377.461 525.42 373.998C527.404 370.545 526.141 366.135 522.629 364.256L331.085 261.804L515.573 376.476ZM-77.3549 25.9965C-79.3435 29.4367 -78.0876 33.8401 -74.5834 35.7137L117.043 138.172L-67.5604 23.5424C-70.9326 21.4485 -75.3685 22.5599 -77.3549 25.9965ZM558.321 266.11C562.241 266.933 566.06 264.338 566.738 260.391C567.411 256.468 564.713 252.763 560.773 252.2L345.734 221.47L558.321 266.11ZM-118.668 139.549C-119.364 143.485 -116.661 147.216 -112.704 147.781L102.366 178.505L-110.25 133.859C-114.16 133.038 -117.973 135.615 -118.668 139.549ZM560.773 147.775C564.713 147.212 567.411 143.507 566.738 139.584C566.06 135.637 562.241 133.042 558.321 133.865L345.734 178.505L560.773 147.775ZM-118.668 260.426C-117.973 264.36 -114.16 266.937 -110.25 266.116L102.366 221.47L-112.704 252.194C-116.661 252.759 -119.364 256.49 -118.668 260.426ZM522.639 35.7142C526.143 33.8402 527.398 29.4373 525.41 25.9975C523.423 22.5606 518.987 21.4494 515.615 23.5441L331.085 138.172L522.639 35.7142ZM-77.3645 373.999C-75.3745 377.462 -70.9107 378.586 -67.5185 376.478L117.043 261.804L-74.5726 364.257C-78.0853 366.135 -79.3494 370.546 -77.3645 373.999ZM448.409 -56.449C451.075 -59.4241 450.746 -64.0161 447.684 -66.5814C444.625 -69.1436 440.053 -68.6667 437.589 -65.5284L303.433 105.331L448.409 -56.449ZM0.338776 466.568C3.39754 469.13 7.96967 468.653 10.4338 465.515L144.59 294.656L-0.386086 456.435C-3.05219 459.411 -2.72369 464.003 0.338776 466.568ZM347.173 -117.764C348.653 -121.457 346.778 -125.642 343.037 -126.996C339.305 -128.345 335.197 -126.343 333.961 -122.572L266.307 83.9062L347.173 -117.764ZM104.99 527.013C108.749 528.386 112.897 526.371 114.142 522.569L181.776 316.082L100.85 517.73C99.3613 521.439 101.237 525.643 104.99 527.013Z" fill="url(#paint5_linear_8_8442)" shape-rendering="crispEdges"/>
</g>
<g filter="url(#filter2_f_8_8442)">
<path fill-rule="evenodd" clip-rule="evenodd" d="M224.018 -25.87C221.438 -25.87 219.371 -23.7343 219.454 -21.1557L224.018 119.785L228.582 -21.1557C228.666 -23.7343 226.598 -25.87 224.018 -25.87ZM224.018 425.862C221.438 425.862 219.371 423.727 219.454 421.148L224.018 280.207L228.582 421.148C228.666 423.727 226.598 425.862 224.018 425.862ZM295.38 409.374C296.185 411.834 298.87 413.135 301.3 412.243C303.72 411.355 304.928 408.642 303.969 406.249L251.478 275.342L295.38 409.374ZM146.794 -12.2406C144.35 -11.3611 143.123 -8.62878 144.091 -6.21795L196.61 124.647L152.704 -9.35362C151.9 -11.8093 149.226 -13.1154 146.794 -12.2406ZM362.645 372.328C364.244 374.365 367.211 374.675 369.197 373.012C371.184 371.347 371.398 368.366 369.667 366.435L275.571 261.433L362.645 372.328ZM78.8514 26.9725C76.8637 28.6375 76.6505 31.618 78.381 33.549L172.477 138.551L85.4036 27.656C83.8042 25.6191 80.8367 25.3095 78.8514 26.9725ZM413.264 314.537C415.466 315.906 418.363 315.177 419.655 312.929C420.943 310.688 420.123 307.825 417.843 306.606L293.523 240.11L413.264 314.537ZM28.4244 87.0594C27.1337 89.2923 27.9488 92.1503 30.2232 93.3663L154.597 159.867L34.7814 85.4666C32.5927 84.1075 29.7136 84.8289 28.4244 87.0594ZM394.738 233.19C396.429 233.545 398.076 232.425 398.369 230.723C398.659 229.03 397.495 227.432 395.795 227.189L303.026 213.932L394.738 233.19ZM1.60413 160.762C1.1525 163.317 2.9066 165.738 5.47508 166.105L145.065 186.046L7.06754 157.069C4.5302 156.536 2.05543 158.209 1.60413 160.762ZM442.596 166.101C445.154 165.736 446.905 163.331 446.467 160.785C446.028 158.223 443.549 156.538 441.005 157.073L303.026 186.046L442.596 166.101ZM1.60413 239.216C2.05543 241.769 4.53021 243.442 7.06754 242.91L145.065 213.932L5.47508 233.873C2.9066 234.24 1.1525 236.661 1.60413 239.216ZM417.85 93.3666C420.124 92.1504 420.939 89.2927 419.649 87.0601C418.359 84.8293 415.48 84.1081 413.291 85.4677L293.523 159.867L417.85 93.3666ZM28.4181 312.93C29.7097 315.177 32.6069 315.906 34.8087 314.538L154.597 240.11L30.2302 306.606C27.9503 307.825 27.1299 310.688 28.4181 312.93ZM369.667 33.549C371.398 31.618 371.184 28.6375 369.197 26.9725C367.211 25.3095 364.244 25.6191 362.645 27.656L275.571 138.551L369.667 33.549ZM78.8514 373.012C80.8367 374.675 83.8042 374.365 85.4036 372.328L172.477 261.433L78.381 366.435C76.6505 368.366 76.8637 371.347 78.8514 373.012ZM303.963 -6.24615C304.924 -8.64304 303.707 -11.3593 301.279 -12.2376C298.857 -13.1136 296.19 -11.8138 295.389 -9.36636L251.478 124.647L303.963 -6.24615ZM146.773 412.246C149.213 413.137 151.905 411.829 152.713 409.361L196.61 275.342L144.086 406.221C143.12 408.628 144.337 411.357 146.773 412.246Z" fill="url(#paint6_linear_8_8442)"/>
</g>
<path fill-rule="evenodd" clip-rule="evenodd" d="M5.98518 -59.8678C2.45052 -56.907 2.07136 -51.6069 5.14854 -48.1731L172.478 138.551L17.6367 -58.6525C14.7926 -62.2746 9.51555 -62.8251 5.98518 -59.8678ZM146.789 -12.2413C144.345 -11.3618 143.118 -8.62944 144.086 -6.21861L196.605 124.647L152.699 -9.35429C151.894 -11.81 149.22 -13.1161 146.789 -12.2413ZM223.52 -3.64571C220.94 -3.64571 218.872 -1.50997 218.956 1.06863L223.52 142.009L228.084 1.06863C228.168 -1.50997 226.1 -3.64571 223.52 -3.64571ZM224.015 468.244C220.684 468.244 218.015 465.487 218.123 462.158L224.015 280.207L229.907 462.158C230.015 465.487 227.346 468.244 224.015 468.244ZM301.759 432.752C302.826 436.009 306.382 437.732 309.6 436.551C312.805 435.375 314.405 431.782 313.134 428.613L243.616 255.241L301.759 432.752ZM362.639 372.327C364.239 374.364 367.206 374.674 369.191 373.011C371.179 371.346 371.392 368.365 369.662 366.434L275.566 261.432L362.639 372.327ZM413.258 314.537C415.46 315.905 418.358 315.176 419.65 312.928C420.938 310.687 420.118 307.825 417.838 306.605L293.517 240.109L413.258 314.537ZM43.5708 97.1534C42.2801 99.3863 43.0953 102.244 45.3697 103.46L169.744 169.96L49.9279 95.5606C47.7392 94.2015 44.8601 94.9229 43.5708 97.1534ZM392.176 232.651C393.82 232.996 395.421 231.907 395.706 230.252C395.988 228.607 394.857 227.053 393.204 226.817L303.03 213.931L392.176 232.651ZM-73.051 148.351C-73.8128 152.66 -70.8543 156.743 -66.5223 157.362L168.912 190.996L-63.8364 142.122C-68.1159 141.223 -72.2899 144.045 -73.051 148.351ZM528.889 155.936C533.641 155.257 536.895 150.789 536.082 146.058C535.265 141.298 530.659 138.169 525.933 139.161L269.572 192.993L528.889 155.936ZM1.60864 239.216C2.05994 241.769 4.53472 243.442 7.07206 242.909L145.07 213.931L5.4796 233.873C2.91111 234.24 1.15701 236.661 1.60864 239.216ZM417.845 93.366C420.119 92.1497 420.934 89.292 419.643 87.0594C418.354 84.8287 415.474 84.1075 413.286 85.467L293.517 159.866L417.845 93.366ZM-19.1507 339.742C-17.0685 343.365 -12.398 344.54 -8.84862 342.335L184.261 222.35L-16.2294 329.548C-19.9049 331.513 -21.2275 336.128 -19.1507 339.742ZM369.662 33.5483C371.392 31.6173 371.179 28.6369 369.191 26.9719C367.206 25.3089 364.239 25.6184 362.639 27.6553L275.566 138.551L369.662 33.5483ZM97.5764 356.647C99.5616 358.31 102.529 358 104.128 355.963L191.202 245.068L97.1059 350.07C95.3755 352.001 95.5887 354.982 97.5764 356.647ZM303.958 -6.24682C304.919 -8.6437 303.702 -11.3599 301.274 -12.2383C298.852 -13.1143 296.185 -11.8145 295.383 -9.36702L251.473 124.647L303.958 -6.24682ZM146.768 412.246C149.207 413.136 151.899 411.829 152.708 409.361L196.605 275.342L144.08 406.22C143.114 408.627 144.331 411.356 146.768 412.246Z" fill="url(#paint7_linear_8_8442)"/>
<g filter="url(#filter3_b_8_8442)">
<path fill-rule="evenodd" clip-rule="evenodd" d="M276.37 -236.891C271.379 -237.489 266.885 -233.837 266.448 -228.83L242.598 44.8416L284.105 -226.714C284.864 -231.682 281.36 -236.293 276.37 -236.891ZM171.64 636.866C166.649 636.268 163.145 631.658 163.904 626.689L205.411 355.134L181.561 628.806C181.124 633.813 176.63 637.464 171.64 636.866ZM313.495 621.517C314.483 626.462 319.374 629.601 324.281 628.44C329.169 627.283 332.134 622.316 330.833 617.464L259.655 352.088L313.495 621.517ZM123.844 -228.435C118.912 -227.301 115.907 -222.3 117.219 -217.412L188.462 47.8901L134.606 -221.48C133.619 -226.417 128.75 -229.563 123.844 -228.435ZM452.196 565.458C454.818 569.769 460.486 571.055 464.711 568.299C468.942 565.539 470.046 559.824 467.146 555.688L309.488 330.77L452.196 565.458ZM-16.6679 -168.348C-20.8986 -165.588 -22.0021 -159.873 -19.1027 -155.737L138.556 69.1807L-4.15294 -165.507C-6.77418 -169.818 -12.4423 -171.104 -16.6679 -168.348ZM563.479 465.414C567.42 468.571 573.194 467.833 576.214 463.785C579.225 459.748 578.302 454.021 574.176 451.134L349.127 293.689L563.479 465.414ZM-128.138 -63.8033C-131.152 -59.7837 -130.238 -54.0666 -126.121 -51.1871L99.0297 106.278L-115.473 -65.4102C-119.391 -68.5465 -125.127 -67.8187 -128.138 -63.8033ZM633.752 333.296C638.549 334.919 643.734 332.236 645.179 327.382C646.615 322.559 643.785 317.501 638.923 316.201L373.585 245.262L633.752 333.296ZM-197.094 72.5258C-198.56 77.363 -195.729 82.4528 -190.846 83.7581L74.5321 154.696L-185.671 66.649C-190.455 65.0301 -195.63 67.6921 -197.094 72.5258ZM654.645 185.104C659.676 184.99 663.621 180.745 663.365 175.718C663.108 170.661 658.704 166.828 653.66 167.271L380.057 191.322L654.645 185.104ZM-215.292 224.274C-215.011 229.317 -210.612 233.126 -205.58 232.684L68.06 208.631L-206.565 214.837C-211.619 214.951 -215.573 219.227 -215.292 224.274ZM623.625 38.6831C628.305 36.8578 630.544 31.5193 628.566 26.9016C626.589 22.2879 621.186 20.2252 616.637 22.3475L367.726 138.483L623.625 38.6831ZM-180.524 373.084C-178.547 377.731 -173.112 379.813 -168.537 377.678L80.4209 261.489L-175.553 361.273C-180.246 363.103 -182.496 368.45 -180.524 373.084ZM544.32 -88.1972C548.115 -91.531 548.393 -97.3453 544.935 -101.027C541.48 -104.704 535.669 -104.793 532.103 -101.224L337.969 93.0856L544.32 -88.1972ZM-96.901 500.983C-93.4466 504.66 -87.635 504.749 -84.0692 501.18L110.064 306.87L-96.2862 488.153C-100.081 491.487 -100.36 497.301 -96.901 500.983ZM426.449 -180.398C428.864 -184.811 427.14 -190.347 422.646 -192.609C418.165 -194.865 412.705 -192.969 410.587 -188.421L294.581 60.6127L426.449 -180.398ZM25.3766 592.616C29.8888 594.904 35.3993 592.999 37.5351 588.413L153.517 339.366L21.5755 580.338C19.1489 584.77 20.8705 590.33 25.3766 592.616Z" fill="url(#paint8_linear_8_8442)"/>
</g>
<g filter="url(#filter4_df_8_8442)">
<path fill-rule="evenodd" clip-rule="evenodd" d="M245.985 16.734C243.891 16.4831 242.006 18.0148 241.823 20.115L231.819 134.908L249.229 21.0028C249.548 18.9188 248.078 16.9849 245.985 16.734ZM202.047 383.237C199.954 382.986 198.484 381.052 198.803 378.968L216.213 265.063L206.209 379.856C206.026 381.956 204.141 383.488 202.047 383.237ZM261.557 376.8C261.971 378.874 264.023 380.19 266.081 379.703C268.131 379.218 269.375 377.134 268.829 375.1L238.974 263.786L261.557 376.8ZM182.009 20.2839C179.94 20.7597 178.679 22.8572 179.23 24.9073L209.113 136.19L186.523 23.2009C186.109 21.1303 184.066 19.8106 182.009 20.2839ZM319.733 353.291C320.832 355.099 323.21 355.639 324.982 354.482C326.757 353.325 327.219 350.928 326.003 349.193L259.873 254.85L319.733 353.291ZM123.074 45.485C121.3 46.6425 120.837 49.0399 122.053 50.7749L188.184 145.118L128.324 46.6767C127.224 44.8686 124.847 44.3288 123.074 45.485ZM366.404 311.32C368.057 312.644 370.479 312.334 371.746 310.636C373.009 308.943 372.622 306.541 370.891 305.33L276.493 239.289L366.404 311.32ZM76.3161 89.3364C75.0518 91.0225 75.4352 93.4205 77.1622 94.6283L171.603 160.678L81.6287 88.6624C79.9851 87.3469 77.5791 87.6521 76.3161 89.3364ZM395.884 255.903C397.896 256.584 400.071 255.458 400.677 253.422C401.279 251.399 400.093 249.278 398.053 248.732L286.755 218.976L395.884 255.903ZM47.3817 146.527C46.7668 148.556 47.9545 150.691 50.0027 151.239L161.317 180.994L52.1736 144.062C50.1668 143.383 47.9962 144.5 47.3817 146.527ZM404.639 193.745C406.749 193.697 408.404 191.916 408.297 189.808C408.189 187.687 406.342 186.079 404.226 186.265L289.462 196.353L404.639 193.745ZM39.7378 210.169C39.8556 212.284 41.7008 213.882 43.8112 213.697L158.591 203.607L43.398 206.211C41.2785 206.259 39.6198 208.052 39.7378 210.169ZM391.634 132.326C393.597 131.56 394.536 129.321 393.706 127.384C392.877 125.449 390.611 124.584 388.703 125.474L284.296 174.188L391.634 132.326ZM54.3257 272.598C55.1551 274.547 57.4347 275.421 59.3541 274.525L163.781 225.789L56.4109 267.644C54.4426 268.411 53.4985 270.654 54.3257 272.598ZM358.378 79.1128C359.969 77.7144 360.086 75.2755 358.635 73.7314C357.186 72.1891 354.749 72.1516 353.253 73.6486L271.823 155.153L358.378 79.1128ZM89.411 326.241C90.86 327.783 93.2977 327.821 94.7934 326.324L176.224 244.82L89.6689 320.86C88.0772 322.258 87.9603 324.697 89.411 326.241ZM308.933 40.4338C309.946 38.5826 309.223 36.2605 307.338 35.3117C305.458 34.3654 303.168 35.1606 302.28 37.0683L253.62 141.527L308.933 40.4338ZM140.697 364.681C142.59 365.641 144.901 364.842 145.797 362.918L194.446 258.454L139.103 359.531C138.085 361.39 138.807 363.723 140.697 364.681Z" fill="url(#paint9_linear_8_8442)" shape-rendering="crispEdges"/>
</g>
<g filter="url(#filter5_f_8_8442)">
<path fill-rule="evenodd" clip-rule="evenodd" d="M540.698 75.6467C545.899 73.6184 548.387 67.6862 546.188 62.5551C543.992 57.4283 537.988 55.1362 532.934 57.4945L256.343 186.545L540.698 75.6467ZM243.674 35.9802C241.801 35.7557 240.113 37.1265 239.949 39.0061L230.996 141.742L246.578 39.8007C246.863 37.9356 245.547 36.2048 243.674 35.9802ZM204.35 363.987C202.476 363.762 201.161 362.032 201.446 360.167L217.028 258.225L208.074 360.961C207.91 362.841 206.223 364.211 204.35 363.987ZM257.394 347.069C257.765 348.925 259.602 350.104 261.444 349.668C263.278 349.233 264.391 347.369 263.903 345.547L237.183 245.926L257.394 347.069ZM186.419 39.1598C184.567 39.5857 183.439 41.4629 183.932 43.2977L210.676 142.892L190.459 41.7705C190.088 39.9174 188.26 38.7362 186.419 39.1598ZM309.673 337.187C310.657 338.805 312.785 339.288 314.371 338.253C315.96 337.217 316.374 335.072 315.286 333.519L256.101 249.085L309.673 337.187ZM133.673 61.7131C132.085 62.7491 131.67 64.8947 132.759 66.4474L191.944 150.881L138.371 62.7797C137.387 61.1615 135.259 60.6784 133.673 61.7131ZM413.715 353.069C416.711 355.469 421.099 354.908 423.394 351.831C425.683 348.763 424.982 344.41 421.846 342.215L250.787 222.542L413.715 353.069ZM30.1985 54.8195C28.2492 57.419 28.8403 61.1162 31.5029 62.9783L177.105 164.809L38.389 53.7804C35.8551 51.7522 32.1456 52.2228 30.1985 54.8195ZM377.342 249.889C379.343 250.567 381.507 249.447 382.109 247.422C382.709 245.409 381.528 243.299 379.499 242.757L268.788 213.157L377.342 249.889ZM119.273 168.092C118.903 169.311 119.617 170.593 120.847 170.922L187.706 188.794L122.151 166.612C120.946 166.204 119.642 166.875 119.273 168.092ZM385.665 194.401C387.554 194.359 389.034 192.765 388.938 190.878C388.842 188.979 387.189 187.541 385.295 187.707L282.585 196.735L385.665 194.401ZM-19.4647 213.432C-19.2813 216.724 -16.4105 219.21 -13.1269 218.921L165.458 203.223L-13.7697 207.273C-17.0675 207.348 -19.6482 210.139 -19.4647 213.432ZM42.3444 277.716C43.3125 279.991 45.9735 281.01 48.2139 279.965L170.109 223.076L44.7784 271.933C42.4808 272.828 41.3788 275.447 42.3444 277.716ZM324.71 112.542C325.966 111.439 326.058 109.516 324.914 108.299C323.771 107.082 321.849 107.053 320.67 108.233L256.459 172.502L324.71 112.542ZM-10.0723 419.545C-6.87907 422.944 -1.50684 423.026 1.78933 419.727L181.243 240.11L-9.50395 407.685C-13.0118 410.767 -13.2694 416.142 -10.0723 419.545ZM300.017 57.1896C300.923 55.5329 300.276 53.4546 298.589 52.6055C296.907 51.7586 294.858 52.4703 294.062 54.1776L250.514 147.665L300.017 57.1896ZM168.006 317.186C169.517 317.952 171.361 317.314 172.076 315.779L210.895 232.424L166.734 313.077C165.922 314.56 166.498 316.421 168.006 317.186Z" fill="url(#paint10_linear_8_8442)"/>
</g>
<g filter="url(#filter6_f_8_8442)">
<path fill-rule="evenodd" clip-rule="evenodd" d="M276.37 -236.891C271.379 -237.489 266.885 -233.837 266.448 -228.83L242.598 44.8416L284.105 -226.714C284.864 -231.682 281.36 -236.293 276.37 -236.891ZM171.64 636.866C166.649 636.268 163.145 631.658 163.904 626.689L205.411 355.134L181.561 628.806C181.124 633.813 176.63 637.464 171.64 636.866ZM313.495 621.517C314.483 626.462 319.374 629.601 324.281 628.44C329.169 627.283 332.134 622.316 330.833 617.464L259.655 352.088L313.495 621.517ZM123.844 -228.435C118.912 -227.301 115.907 -222.3 117.219 -217.412L188.462 47.8901L134.606 -221.48C133.619 -226.417 128.75 -229.563 123.844 -228.435ZM452.196 565.458C454.818 569.769 460.486 571.055 464.711 568.299C468.942 565.539 470.046 559.824 467.146 555.688L309.488 330.77L452.196 565.458ZM-16.6679 -168.348C-20.8986 -165.588 -22.0021 -159.873 -19.1027 -155.737L138.556 69.1807L-4.15294 -165.507C-6.77418 -169.818 -12.4423 -171.104 -16.6679 -168.348ZM563.479 465.414C567.42 468.571 573.194 467.833 576.214 463.785C579.225 459.748 578.302 454.021 574.176 451.134L349.127 293.689L563.479 465.414ZM-128.138 -63.8033C-131.152 -59.7837 -130.238 -54.0666 -126.121 -51.1871L99.0297 106.278L-115.473 -65.4102C-119.391 -68.5465 -125.127 -67.8187 -128.138 -63.8033ZM633.752 333.296C638.549 334.919 643.734 332.236 645.179 327.382C646.615 322.559 643.785 317.501 638.923 316.201L373.585 245.262L633.752 333.296ZM-197.094 72.5258C-198.56 77.363 -195.729 82.4528 -190.846 83.7581L74.5321 154.696L-185.671 66.649C-190.455 65.0301 -195.63 67.6921 -197.094 72.5258ZM654.645 185.104C659.676 184.99 663.621 180.745 663.365 175.718C663.108 170.661 658.704 166.828 653.66 167.271L380.057 191.322L654.645 185.104ZM-215.292 224.274C-215.011 229.317 -210.612 233.126 -205.58 232.684L68.06 208.631L-206.565 214.837C-211.619 214.951 -215.573 219.227 -215.292 224.274ZM623.625 38.6831C628.305 36.8578 630.544 31.5193 628.566 26.9016C626.589 22.2879 621.186 20.2252 616.637 22.3475L367.726 138.483L623.625 38.6831ZM-180.524 373.084C-178.547 377.731 -173.112 379.813 -168.537 377.678L80.4209 261.489L-175.553 361.273C-180.246 363.103 -182.496 368.45 -180.524 373.084ZM544.32 -88.1972C548.115 -91.531 548.393 -97.3453 544.935 -101.027C541.48 -104.704 535.669 -104.793 532.103 -101.224L337.969 93.0856L544.32 -88.1972ZM-96.901 500.983C-93.4466 504.66 -87.635 504.749 -84.0692 501.18L110.064 306.87L-96.2862 488.153C-100.081 491.487 -100.36 497.301 -96.901 500.983ZM426.449 -180.398C428.864 -184.811 427.14 -190.347 422.646 -192.609C418.165 -194.865 412.705 -192.969 410.587 -188.421L294.581 60.6127L426.449 -180.398ZM25.3766 592.616C29.8888 594.904 35.3993 592.999 37.5351 588.413L153.517 339.366L21.5755 580.338C19.1489 584.77 20.8705 590.33 25.3766 592.616Z" fill="url(#paint11_linear_8_8442)"/>
</g>
<g filter="url(#filter7_f_8_8442)">
<path fill-rule="evenodd" clip-rule="evenodd" d="M294.145 -210.692C289.454 -211.493 285.031 -208.252 284.382 -203.538L248.901 54.1502L300.98 -200.702C301.932 -205.365 298.836 -209.891 294.145 -210.692ZM153.83 610.676C149.139 609.875 146.042 605.349 146.995 600.686L199.074 345.834L163.593 603.522C162.944 608.236 158.521 611.477 153.83 610.676ZM288.715 602.867C289.415 607.59 293.893 610.789 298.589 609.923C303.265 609.059 306.304 604.502 305.303 599.853L250.523 345.522L288.715 602.867ZM149.507 -209.903C144.789 -209.063 141.711 -204.476 142.721 -199.792L197.566 54.4723L159.356 -202.818C158.656 -207.533 154.2 -210.738 149.507 -209.903ZM422.537 556.4C424.812 560.601 430.112 562.085 434.238 559.678C438.37 557.268 439.683 551.915 437.137 547.866L298.66 327.714L422.537 556.4ZM13.7795 -159.71C9.6481 -157.3 8.3346 -151.947 10.8812 -147.899L149.358 72.2541L25.4808 -156.432C23.2055 -160.633 17.9058 -162.117 13.7795 -159.71ZM532.509 467.042C536.087 470.214 541.583 469.788 544.629 466.103C547.668 462.428 547.066 456.968 543.3 454.043L337.905 294.517L532.509 467.042ZM-96.5796 -66.1069C-99.6201 -62.4478 -99.0257 -56.9979 -95.2679 -54.0803L110.222 105.47L-84.5259 -67.0284C-88.0834 -70.1794 -93.5425 -69.7621 -96.5796 -66.1069ZM605.184 345.417C609.644 347.179 614.674 344.886 616.27 340.364C617.856 335.87 615.419 330.954 610.882 329.495L363.299 249.874L605.184 345.417ZM-168.224 59.5588C-169.839 64.0642 -167.401 69.0114 -162.845 70.4764L84.7753 150.096L-157.143 54.5406C-161.591 52.7837 -166.61 55.0568 -168.224 59.5588ZM631.95 206.258C636.714 206.388 640.645 202.56 640.641 197.794C640.637 192.999 636.653 189.166 631.862 189.347L371.977 199.17L631.95 206.258ZM-192.6 202.213C-192.572 206.995 -188.592 210.806 -183.813 210.625L76.1079 200.801L-183.901 193.7C-188.686 193.569 -192.627 197.427 -192.6 202.213ZM609.54 66.3167C614.052 64.8116 616.422 59.8686 614.769 55.4082C613.117 50.9516 608.105 48.7457 603.703 50.5379L362.82 148.613L609.54 66.3167ZM-166.742 344.581C-165.091 349.069 -160.05 351.295 -155.622 349.491L85.3074 251.369L-161.483 333.646C-166.007 335.155 -168.388 340.105 -166.742 344.581ZM540.524 -57.424C544.27 -60.3976 544.808 -65.8831 541.711 -69.528C538.618 -73.1684 533.126 -73.5274 529.586 -70.3205L336.814 104.271L540.524 -57.424ZM-93.7134 469.486C-90.6201 473.126 -85.1282 473.485 -81.5874 470.278L111.184 295.687L-92.526 457.382C-96.2722 460.355 -96.8103 465.841 -93.7134 469.486ZM433.405 -150.183C435.897 -154.243 434.528 -159.56 430.385 -161.911C426.253 -164.256 421.001 -162.721 418.783 -158.52L297.313 71.5149L433.405 -150.183ZM17.5926 561.924C21.7518 564.301 27.0531 562.76 29.2896 558.523L150.737 328.475L14.5777 550.133C12.0736 554.21 13.4391 559.55 17.5926 561.924Z" fill="url(#paint12_linear_8_8442)"/>
</g>
<g filter="url(#filter8_bd_8_8442)">
<path fill-rule="evenodd" clip-rule="evenodd" d="M-108.258 -269.429C-111.607 -274.046 -110.469 -280.518 -105.747 -283.716L-102.768 -285.733C-98.0459 -288.93 -91.614 -287.584 -88.5708 -282.761L107.419 27.8727L-108.258 -269.429ZM536.527 682.79C539.57 687.613 546.002 688.96 550.725 685.762L553.703 683.745C558.426 680.547 559.563 674.075 556.214 669.459L340.537 372.157L536.527 682.79ZM697.199 544.706C693.861 549.344 687.342 550.289 682.824 546.79L392.382 321.825L696.777 527.5C701.493 530.686 702.643 537.14 699.318 541.761L697.199 544.706ZM-248.767 -127.411C-253.506 -130.611 -254.643 -137.106 -251.273 -141.726L-249.093 -144.715C-245.741 -149.311 -239.255 -150.23 -234.757 -146.747L55.6693 78.1586L-248.767 -127.411ZM786.498 362.144C784.932 367.625 779.142 370.723 773.713 368.984L423.918 256.964L780.256 346.016C785.793 347.4 789.083 353.095 787.515 358.583L786.498 362.144ZM798.417 170.777C804.124 170.554 808.51 165.644 808.09 159.948L807.819 156.278C807.4 150.598 802.368 146.389 796.703 146.981L431.43 185.133L798.417 170.777ZM-359.799 243.692C-359.394 249.384 -354.355 253.608 -348.68 253.015L16.6676 214.798L-350.383 229.321C-356.079 229.546 -360.458 234.439 -360.053 240.125L-359.799 243.692ZM753.725 -23.917C759.021 -26.0828 761.459 -32.2122 759.1 -37.424L757.572 -40.7982C755.226 -45.9782 749.067 -48.1997 743.955 -45.7096L413.774 115.127L753.725 -23.917ZM-309.6 440.761C-307.272 445.971 -301.092 448.216 -295.963 445.717L34.274 284.836L-305.725 423.899C-311.002 426.057 -313.446 432.155 -311.119 437.361L-309.6 440.761ZM645.17 -191.599C649.38 -195.421 649.603 -201.965 645.664 -206.066L643.098 -208.737C639.135 -212.863 632.538 -212.874 628.561 -208.761L373.252 55.2797L645.17 -191.599ZM-195.081 608.771C-191.111 612.864 -184.542 612.859 -180.579 608.76L74.766 344.683L-197.214 591.595C-201.439 595.431 -201.647 602.002 -197.675 606.098L-195.081 608.771ZM485.788 -312.056C488.445 -317.105 486.393 -323.351 481.259 -325.84L478.041 -327.4C472.912 -329.887 466.742 -327.636 464.419 -322.43L314.772 12.9284L485.788 -312.056ZM-30.0487 727.471C-24.9161 729.975 -18.7298 727.727 -16.4031 722.511L133.266 387.008L-37.8613 712.083C-40.5146 717.123 -38.4747 723.359 -33.3554 725.857L-30.0487 727.471ZM294.917 -370.687C295.688 -376.342 291.621 -381.511 285.943 -382.092L282.259 -382.469C276.589 -383.05 271.562 -378.824 271.161 -373.137L245.32 -6.75332L294.917 -370.687ZM165.697 782.506C171.367 783.087 176.394 778.86 176.795 773.174L202.636 406.79L153.039 770.723C152.268 776.378 156.335 781.547 162.013 782.129L165.697 782.506ZM95.4164 -360.536C94.2042 -366.116 88.608 -369.581 83.0723 -368.179L79.5943 -367.297C74.0734 -365.898 70.8022 -360.212 72.3685 -354.736L173.381 -1.58795L95.4164 -360.536ZM368.457 767.36C373.994 765.974 377.282 760.278 375.712 754.79L274.641 401.572L352.513 760.615C353.721 766.185 359.299 769.651 364.829 768.268L368.457 767.36Z" fill="url(#paint13_linear_8_8442)" shape-rendering="crispEdges"/>
</g>
<g filter="url(#filter9_f_8_8442)">
<path fill-rule="evenodd" clip-rule="evenodd" d="M10.9886 -114.603C7.39485 -112.169 6.52918 -107.244 9.07774 -103.731L148.376 88.287L21.7929 -112.341C19.477 -116.011 14.5823 -117.036 10.9886 -114.603ZM437.059 514.632C433.465 517.066 428.571 516.041 426.255 512.371L299.671 311.743L438.97 503.761C441.519 507.274 440.653 512.199 437.059 514.632ZM520.889 424.376C524.331 427.042 529.298 426.322 531.842 422.788C534.375 419.267 533.499 414.349 529.905 411.921L333.312 279.086L520.889 424.376ZM-83.7316 -22.7654C-86.3069 -19.2348 -85.4379 -14.2719 -81.8162 -11.8264L114.778 120.923L-72.7762 -24.3185C-76.2133 -26.9802 -81.1697 -26.2775 -83.7316 -22.7654ZM579.667 309.313C583.816 310.642 588.241 308.274 589.438 304.085C590.636 299.89 588.122 295.538 583.89 294.48L353.777 236.973L579.667 309.313ZM-141.358 95.9358C-142.556 100.13 -140.042 104.483 -135.81 105.54L94.3033 163.048L-131.586 90.7075C-135.735 89.3788 -140.161 91.7467 -141.358 95.9358ZM595.653 181.073C600.011 180.903 603.359 177.154 603.039 172.804C602.719 168.467 598.876 165.254 594.551 165.705L358.657 190.344L595.653 181.073ZM-154.931 227.196C-154.623 231.524 -150.792 234.736 -146.476 234.284L89.4953 209.601L-147.578 218.981C-151.909 219.152 -155.239 222.873 -154.931 227.196ZM493.137 85.2131C495.827 84.1129 497.066 80.999 495.867 78.3513C494.675 75.7197 491.546 74.5912 488.949 75.8562L347.222 144.894L493.137 85.2131ZM-122.768 355.17C-120.987 359.155 -116.26 360.873 -112.336 358.962L100.916 255.072L-118.641 344.873C-122.678 346.524 -124.547 351.188 -122.768 355.17ZM496.52 -53.371C499.738 -56.2924 499.909 -61.2937 496.898 -64.428C493.869 -67.5816 488.827 -67.5899 485.787 -64.4463L320.919 106.06L496.52 -53.371ZM-48.7857 464.444C-45.7489 467.575 -40.7237 467.571 -37.6919 464.435L127.199 293.906L-48.4335 453.35C-51.6651 456.284 -51.8248 461.311 -48.7857 464.444ZM393.428 -131.33C395.448 -135.17 393.888 -139.919 389.984 -141.811C386.084 -143.702 381.393 -141.991 379.626 -138.033L282.972 78.5712L393.428 -131.33ZM58.0973 541.84C62.0163 543.752 66.7399 542.035 68.5164 538.053L165.171 321.389L54.6569 531.323C52.6309 535.171 54.1885 539.933 58.0973 541.84ZM269.904 -169.199C270.493 -173.521 267.385 -177.471 263.046 -177.916C258.712 -178.36 254.87 -175.129 254.564 -170.783L237.876 65.8189L269.904 -169.199ZM184.986 577.951C189.32 578.395 193.161 575.164 193.468 570.819L210.155 334.216L178.127 569.234C177.538 573.556 180.647 577.506 184.986 577.951ZM140.86 -162.659C139.937 -166.904 135.68 -169.54 131.469 -168.473C127.269 -167.408 124.781 -163.083 125.972 -158.917L191.215 69.1748L140.86 -162.659ZM316.637 568.523C320.876 567.463 323.392 563.102 322.19 558.902L256.925 330.815L307.211 562.665C308.135 566.929 312.405 569.582 316.637 568.523Z" fill="url(#paint14_linear_8_8442)"/>
</g>
<path fill-rule="evenodd" clip-rule="evenodd" d="M-325.84 47.3042C-327.408 52.7918 -324.118 58.4869 -318.582 59.8707L94.2607 163.044L-310.998 33.2617C-316.426 31.5232 -322.217 34.6214 -323.783 40.1024L-325.84 47.3042ZM10.9629 -114.601C7.36918 -112.168 6.50351 -107.242 9.05207 -103.729L148.351 88.2884L21.7673 -112.339C19.4513 -116.01 14.5566 -117.035 10.9629 -114.601ZM477.039 573.662C472.4 576.803 466.081 575.481 463.091 570.742L299.675 311.736L479.506 559.626C482.796 564.162 481.678 570.52 477.039 573.662ZM554.554 450.407C558.613 453.551 564.471 452.702 567.471 448.534C570.458 444.382 569.425 438.583 565.187 435.719L333.346 279.068L554.554 450.407ZM-83.7375 -22.7788C-86.3128 -19.2482 -85.4438 -14.2854 -81.8221 -11.8398L114.772 120.91L-72.7821 -24.3319C-76.2192 -26.9936 -81.1757 -26.2909 -83.7375 -22.7788ZM579.671 309.299C583.82 310.628 588.245 308.26 589.442 304.071C590.64 299.877 588.126 295.524 583.894 294.467L353.781 236.959L579.671 309.299ZM595.687 181.074C600.044 180.904 603.393 177.155 603.072 172.806C602.752 168.469 598.91 165.255 594.585 165.707L358.691 190.346L595.687 181.074ZM-154.937 227.197C-154.629 231.525 -150.798 234.737 -146.482 234.286L89.4894 209.602L-147.584 218.982C-151.915 219.154 -155.245 222.874 -154.937 227.197ZM489.048 86.8842C491.663 85.8147 492.868 82.788 491.702 80.2144C490.544 77.6564 487.503 76.5594 484.978 77.789L347.216 144.895L489.048 86.8842ZM-238.7 408.892C-236.372 414.101 -230.193 416.347 -225.063 413.848L100.901 255.047L-234.699 392.312C-239.977 394.47 -242.42 400.568 -240.094 405.773L-238.7 408.892ZM608.337 -154.88C612.547 -158.702 612.771 -165.246 608.832 -169.347L605.324 -172.998C601.361 -177.124 594.764 -177.135 590.787 -173.022L320.943 106.05L608.337 -154.88ZM-48.7818 464.441C-45.745 467.571 -40.7198 467.567 -37.688 464.432L127.203 293.902L-48.4296 453.347C-51.6612 456.281 -51.8208 461.308 -48.7818 464.441ZM393.461 -131.329C395.482 -135.168 393.921 -139.917 390.018 -141.81C386.117 -143.701 381.426 -141.99 379.66 -138.031L283.005 78.5726L393.461 -131.329ZM17.7633 626.11C22.8959 628.614 29.0822 626.366 31.4089 621.15L165.144 321.365L12.2334 611.836C9.57994 616.876 11.6199 623.113 16.7392 625.61L17.7633 626.11ZM269.888 -169.237C270.477 -173.559 267.369 -177.509 263.03 -177.954C258.696 -178.398 254.854 -175.167 254.548 -170.821L237.86 65.7808L269.888 -169.237ZM185.019 577.937C189.353 578.381 193.195 575.151 193.501 570.805L210.189 334.203L178.161 569.221C177.572 573.542 180.68 577.493 185.019 577.937ZM140.873 -162.687C139.951 -166.932 135.694 -169.568 131.483 -168.501C127.283 -167.437 124.795 -163.111 125.986 -158.945L191.228 69.1466L140.873 -162.687ZM316.631 568.525C320.87 567.464 323.386 563.104 322.185 558.903L256.919 330.816L307.205 562.667C308.129 566.931 312.399 569.584 316.631 568.525Z" fill="url(#paint15_linear_8_8442)"/>
<g filter="url(#filter10_b_8_8442)">
<path fill-rule="evenodd" clip-rule="evenodd" d="M-119.666 -455.618C-124.735 -453.005 -126.635 -446.714 -123.859 -441.732L103.505 -33.6299L-96.9792 -455.587C-99.4267 -460.738 -105.653 -462.841 -110.722 -460.228L-119.666 -455.618ZM558.645 860.266C553.575 862.879 547.349 860.777 544.902 855.625L344.417 433.668L571.782 841.77C574.558 846.752 572.658 853.043 567.589 855.656L558.645 860.266ZM749.841 706.328C753.91 710.34 760.496 710.178 764.362 705.97L771.197 698.531C775.048 694.34 774.674 687.795 770.37 684.069L417.103 378.255L749.841 706.328ZM-323.158 -298.529C-327.054 -294.343 -326.698 -287.759 -322.373 -284.018L30.9771 21.682L-301.738 -306.302C-305.789 -310.295 -312.338 -310.154 -316.214 -305.99L-323.158 -298.529ZM891.167 495.963C896.351 498.336 902.469 495.949 904.676 490.693L908.624 481.291C910.834 476.029 908.245 469.983 902.912 467.95L466.383 301.545L891.167 495.963ZM-460.68 -81.3531C-462.889 -76.0911 -460.301 -70.045 -454.968 -68.0121L-18.4391 98.3933L-443.223 -96.025C-448.406 -98.3973 -454.524 -96.0103 -456.732 -90.7546L-460.68 -81.3531ZM952.266 249.947C957.959 250.405 962.898 246.052 963.159 240.346L963.623 230.191C963.884 224.501 959.388 219.723 953.693 219.636L486.632 212.522L952.266 249.947ZM-515.617 169.738C-515.892 175.438 -511.392 180.232 -505.686 180.318L-38.5152 187.363L-504.247 150.138C-509.928 149.684 -514.859 154.021 -515.134 159.714L-515.617 169.738ZM925.353 -2.12845C930.869 -3.64869 934.02 -9.44416 932.297 -14.8999L929.226 -24.6243C927.514 -30.0466 921.663 -32.9855 916.291 -31.1214L474.98 122.005L925.353 -2.12845ZM-481.322 424.552C-479.631 430.002 -473.762 432.967 -468.372 431.096L-26.9717 277.916L-477.395 402.064C-482.891 403.579 -486.043 409.342 -484.353 414.788L-481.322 424.552ZM813.91 -229.848C818.545 -233.142 819.546 -239.612 816.123 -244.153L809.984 -252.296C806.54 -256.864 799.991 -257.66 795.553 -254.05L433.152 40.7562L813.91 -229.848ZM-361.957 652.264C-358.502 656.8 -351.979 657.577 -347.556 653.979L14.8858 359.141L-365.968 629.786C-370.619 633.091 -371.608 639.591 -368.151 644.131L-361.957 652.264ZM631.298 -405.762C634.537 -410.459 633.243 -416.905 628.441 -419.988L619.997 -425.409C615.2 -428.489 608.806 -426.989 605.88 -422.096L366.13 -21.2388L631.298 -405.762ZM-171.975 825.456C-167.177 828.553 -160.767 827.057 -157.837 822.156L81.9672 421.114L-183.351 805.729C-186.585 810.418 -185.302 816.852 -180.517 819.942L-171.975 825.456ZM399.634 -508.463C401.072 -513.986 397.649 -519.602 392.081 -520.855L382.133 -523.094C376.572 -524.346 371.078 -520.747 370.003 -515.149L281.906 -56.3696L399.634 -508.463ZM65.8504 923.082C71.4116 924.333 76.9053 920.735 77.9803 915.137L166.078 456.357L48.3499 908.451C46.9117 913.974 50.3345 919.59 55.9024 920.843L65.8504 923.082ZM146.679 -525.807C146.14 -531.492 140.996 -535.598 135.332 -534.864L125.366 -533.573C119.717 -532.841 115.793 -527.584 116.696 -521.961L190.8 -60.6965L146.679 -525.807ZM322.73 933.631C328.392 932.914 332.335 927.649 331.429 922.014L257.26 460.644L301.25 925.852C301.786 931.527 306.912 935.632 312.567 934.917L322.73 933.631Z" fill="url(#paint16_linear_8_8442)"/>
</g>
<g filter="url(#filter11_df_8_8442)">
<path fill-rule="evenodd" clip-rule="evenodd" d="M81.6979 -75.9795C78.5455 -74.3546 77.3641 -70.4428 79.0902 -67.3447L173.432 101.993L90.2438 -73.0937C88.7218 -76.297 84.8503 -77.6044 81.6979 -75.9795ZM366.206 475.992C363.054 477.617 359.183 476.309 357.661 473.106L274.472 298.02L368.814 467.357C370.54 470.455 369.359 474.367 366.206 475.992ZM443.013 410.869C445.546 413.367 449.646 413.266 452.054 410.646C454.452 408.036 454.219 403.961 451.539 401.641L304.957 274.748L443.013 410.869ZM-4.06703 -10.6944C-6.49983 -8.08035 -6.27747 -3.96935 -3.57692 -1.63298L143.015 125.191L4.97244 -10.889C2.4427 -13.3828 -1.64699 -13.2947 -4.06703 -10.6944ZM501.904 323.257C505.141 324.739 508.962 323.248 510.34 319.966C511.72 316.679 510.103 312.903 506.773 311.634L325.668 242.596L501.904 323.257ZM-62.4057 80.003C-63.7858 83.2893 -62.1692 87.0653 -58.8387 88.3348L122.266 157.372L-53.9694 76.7115C-57.2064 75.2299 -61.0273 76.7207 -62.4057 80.003ZM527.3 220.786C530.852 221.072 533.934 218.356 534.096 214.796C534.259 211.246 531.454 208.265 527.901 208.211L334.117 205.259L527.3 220.786ZM-86.1316 185.203C-86.3024 188.744 -83.5063 191.723 -79.9615 191.777L113.89 194.7L-79.3672 179.253C-82.8974 178.971 -85.961 181.666 -86.1316 185.203ZM516.078 115.778C519.522 114.829 521.49 111.209 520.414 107.802C519.345 104.415 515.691 102.58 512.336 103.744L329.237 167.276L516.078 115.778ZM-72.5025 292.145C-71.4452 295.551 -67.777 297.405 -64.4076 296.236L118.713 232.687L-68.1529 284.192C-71.5888 285.139 -73.559 288.741 -72.5025 292.145ZM469.681 20.9232C472.575 18.8659 473.2 14.8248 471.063 11.989C468.912 9.13586 464.822 8.63876 462.05 10.8936L311.705 133.196L469.681 20.9232ZM-23.1414 387.994C-20.982 390.83 -16.9045 391.315 -14.1398 389.066L136.226 266.747L-21.7767 379.028C-24.6839 381.094 -25.3023 385.157 -23.1414 387.994ZM393.605 -52.3506C395.617 -55.2689 394.813 -59.2738 391.83 -61.189C388.849 -63.1026 384.877 -62.1702 383.059 -59.1305L283.574 107.206L393.605 -52.3506ZM56.0515 461.197C59.0451 463.13 63.0444 462.197 64.8731 459.138L164.364 292.752L54.2831 452.33C52.265 455.255 53.0657 459.27 56.0515 461.197ZM297.102 -95.0926C298 -98.5419 295.863 -102.049 292.385 -102.832C288.912 -103.613 285.481 -101.366 284.81 -97.8702L248.26 92.4692L297.102 -95.0926ZM155.529 502.82C159.002 503.602 162.433 501.355 163.104 497.858L199.654 307.519L150.812 495.081C149.914 498.53 152.052 502.037 155.529 502.82ZM191.78 -102.338C191.445 -105.872 188.248 -108.424 184.727 -107.968C181.216 -107.513 178.777 -104.245 179.338 -100.75L210.088 90.6528L191.78 -102.338ZM263.202 508.007C266.744 507.559 269.21 504.266 268.643 500.741L237.874 309.34L256.123 502.338C256.459 505.887 259.665 508.455 263.202 508.007Z" fill="url(#paint17_linear_8_8442)" shape-rendering="crispEdges"/>
</g>
<g filter="url(#filter12_f_8_8442)">
<path fill-rule="evenodd" clip-rule="evenodd" d="M550.642 -279.396C553.881 -284.093 552.586 -290.538 547.785 -293.621L538.559 -299.544C533.762 -302.624 527.368 -301.124 524.442 -296.231L277.324 116.945L550.642 -279.396ZM96.6657 -47.0084C93.8444 -45.5542 92.7871 -42.0532 94.3319 -39.2805L178.765 112.271L104.314 -44.4257C102.952 -47.2926 99.4869 -48.4626 96.6657 -47.0084ZM351.281 446.986C348.46 448.44 344.995 447.27 343.632 444.403L269.181 287.707L353.615 439.258C355.159 442.031 354.102 445.532 351.281 446.986ZM420.061 388.721C422.329 390.957 425.998 390.867 428.153 388.522C430.299 386.186 430.09 382.539 427.692 380.463L296.506 266.898L420.061 388.721ZM19.9054 11.4211C17.7282 13.7606 17.9272 17.4398 20.3441 19.5308L151.539 133.034L27.9955 11.247C25.7314 9.01512 22.0713 9.09392 19.9054 11.4211ZM472.714 310.306C475.611 311.632 479.031 310.298 480.264 307.36C481.5 304.419 480.053 301.04 477.072 299.904L314.989 238.118L472.714 310.306ZM-32.2498 92.5917C-33.4849 95.5328 -32.0381 98.9122 -29.0574 100.048L133.025 161.835L-24.6996 89.6459C-27.5966 88.3199 -31.0162 89.6541 -32.2498 92.5917ZM673.988 232.94C679.681 233.398 684.62 229.045 684.881 223.339L685.005 220.618C685.265 214.928 680.77 210.15 675.075 210.063L322.56 204.694L673.988 232.94ZM-181.608 182.696C-181.883 188.395 -177.383 193.189 -171.677 193.275L177.637 198.543L-170.604 170.709C-176.286 170.255 -181.217 174.592 -181.492 180.285L-181.608 182.696ZM485.42 124.624C488.502 123.775 490.264 120.535 489.301 117.486C488.344 114.455 485.073 112.812 482.071 113.854L318.203 170.713L485.42 124.624ZM-41.3544 282.464C-40.4081 285.513 -37.1253 287.172 -34.1097 286.125L129.778 229.251L-37.4616 275.346C-40.5366 276.193 -42.2999 279.418 -41.3544 282.464ZM443.868 39.7419C446.459 37.9007 447.018 34.284 445.105 31.7461C443.18 29.1926 439.52 28.7477 437.039 30.7657L302.485 140.222L443.868 39.7419ZM-102.218 448.13C-98.7679 452.587 -92.3371 453.355 -87.934 449.838L177.845 237.497L-100.671 432.86C-105.388 436.169 -106.384 442.748 -102.857 447.304L-102.218 448.13ZM44.2195 479.63C47.7139 481.886 52.3822 480.796 54.5168 477.227L170.65 283.008L42.1553 469.279C39.7996 472.694 40.7342 477.38 44.2195 479.63ZM289.415 -64.1196C290.219 -67.2066 288.306 -70.3456 285.194 -71.046C282.085 -71.7455 279.015 -69.7344 278.414 -66.6055L245.703 103.742L289.415 -64.1196ZM108.863 727.489C114.425 728.741 119.918 725.142 120.993 719.544L202.281 296.229L93.6537 713.374C92.2155 718.897 95.6383 724.513 101.206 725.766L108.863 727.489ZM195.147 -70.5996C194.847 -73.7624 191.985 -76.0468 188.835 -75.6385C185.692 -75.2313 183.509 -72.3068 184.012 -69.1784L211.532 102.121L195.147 -70.5996ZM259.141 475.631C262.311 475.23 264.518 472.283 264.011 469.128L236.474 297.831L252.806 470.557C253.107 473.734 255.976 476.032 259.141 475.631Z" fill="url(#paint18_linear_8_8442)"/>
</g>
<g filter="url(#filter13_f_8_8442)">
<path fill-rule="evenodd" clip-rule="evenodd" d="M-69.5077 -436.479C-74.7011 -434.122 -76.9122 -427.934 -74.3885 -422.819L121.113 -26.6316L-48.3459 -434.638C-50.5335 -439.905 -56.6468 -442.315 -61.8401 -439.959L-69.5077 -436.479ZM509.757 839.999C504.564 842.356 498.451 839.945 496.263 834.678L326.804 426.672L522.306 822.86C524.829 827.974 522.618 834.162 517.425 836.519L509.757 839.999ZM697.019 703.28C700.883 707.491 707.468 707.657 711.54 703.647L717.566 697.712C721.621 693.718 721.574 687.162 717.462 683.227L398.215 377.713L697.019 703.28ZM-269.514 -297.695C-273.614 -293.708 -273.587 -287.115 -269.454 -283.162L49.8731 22.2451L-248.915 -303.24C-252.762 -307.431 -259.31 -307.616 -263.389 -303.651L-269.514 -297.695ZM840.521 511.159C845.58 513.787 851.809 511.708 854.276 506.569L857.974 498.863C860.444 493.718 858.16 487.551 852.935 485.254L448.472 307.489L840.521 511.159ZM-409.97 -98.888C-412.439 -93.7427 -410.156 -87.575 -404.931 -85.2786L-0.467604 92.4866L-392.517 -111.184C-397.575 -113.812 -403.805 -111.733 -406.271 -106.594L-409.97 -98.888ZM909.833 281.556C915.497 282.297 920.646 278.196 921.191 272.51L922.005 264.031C922.548 258.361 918.297 253.364 912.613 252.994L471.796 224.243L909.833 281.556ZM-473.983 135.921C-474.542 141.6 -470.286 146.612 -464.592 146.983L-23.6695 175.673L-461.81 118.545C-467.462 117.808 -472.603 121.894 -473.161 127.567L-473.983 135.921ZM896.305 42.1051C901.89 40.8618 905.326 35.2307 903.878 29.6958L901.713 21.426C900.274 15.925 894.577 12.698 889.118 14.2917L465.063 138.108L896.305 42.1051ZM-453.727 378.495C-452.309 384.022 -446.596 387.276 -441.119 385.677L-16.9795 261.815L-448.272 357.829C-453.838 359.068 -457.273 364.667 -455.857 370.19L-453.727 378.495ZM801.743 -178.355C806.537 -181.413 807.859 -187.826 804.667 -192.532L799.868 -199.606C796.656 -204.34 790.155 -205.462 785.542 -202.077L429.34 59.2785L801.743 -178.355ZM-351.798 599.595C-348.574 604.297 -342.097 605.398 -337.5 602.025L18.7431 340.639L-353.749 578.306C-358.56 581.375 -359.872 587.818 -356.645 592.524L-351.798 599.595ZM637.499 -353.182C640.968 -357.711 639.997 -364.214 635.356 -367.532L628.527 -372.414C623.889 -375.729 617.428 -374.55 614.262 -369.809L368.903 -2.49757L637.499 -353.182ZM-180.441 772.482C-175.803 775.815 -169.326 774.64 -166.155 769.891L79.2631 402.409L-189.48 753.174C-192.944 757.695 -191.984 764.186 -187.358 767.51L-180.441 772.482ZM423.356 -461.202C425.068 -466.647 421.93 -472.427 416.431 -473.956L408.196 -476.246C402.705 -477.774 397.038 -474.454 395.685 -468.916L290.834 -39.742L423.356 -461.202ZM39.7487 876.222C45.2405 877.749 50.9069 874.429 52.2597 868.892L157.111 439.717L24.5887 861.178C22.8768 866.622 26.0152 872.402 31.5137 873.931L39.7487 876.222ZM185.185 -489.502C184.93 -495.207 179.997 -499.564 174.304 -499.114L165.922 -498.451C160.244 -498.001 156.062 -492.947 156.684 -487.285L204.919 -48.1125L185.185 -489.502ZM282.134 898.528C287.825 898.095 292.025 893.033 291.402 887.359L243.11 448.085L262.715 889.562C262.968 895.257 267.883 899.613 273.566 899.18L282.134 898.528Z" fill="url(#paint19_linear_8_8442)"/>
</g>
<g filter="url(#filter14_f_8_8442)">
<ellipse cx="224.003" cy="-48.256" rx="297.052" ry="152.356" fill="#1E1B25" fill-opacity="0.99"/>
</g>
</g>
<defs>
<filter id="filter0_f_8_8442" x="-598.64" y="51.3452" width="1521.46" height="983.532" filterUnits="userSpaceOnUse" color-interpolation-filters="sRGB">
<feFlood flood-opacity="0" result="BackgroundImageFix"/>
<feBlend mode="normal" in="SourceGraphic" in2="BackgroundImageFix" result="shape"/>
<feGaussianBlur stdDeviation="132.202" result="effect1_foregroundBlur_8_8442"/>
</filter>
<filter id="filter1_bd_8_8442" x="-137.705" y="-161.88" width="723.473" height="733.848" filterUnits="userSpaceOnUse" color-interpolation-filters="sRGB">
<feFlood flood-opacity="0" result="BackgroundImageFix"/>
<feGaussianBlur in="BackgroundImageFix" stdDeviation="6.0165"/>
<feComposite in2="SourceAlpha" operator="in" result="effect1_backgroundBlur_8_8442"/>
<feColorMatrix in="SourceAlpha" type="matrix" values="0 0 0 0 0 0 0 0 0 0 0 0 0 0 0 0 0 0 127 0" result="hardAlpha"/>
<feOffset dy="5.04732"/>
<feGaussianBlur stdDeviation="9.46372"/>
<feComposite in2="hardAlpha" operator="out"/>
<feColorMatrix type="matrix" values="0 0 0 0 0.861829 0 0 0 0 0.555 0 0 0 0 0.925 0 0 0 1 0"/>
<feBlend mode="normal" in2="effect1_backgroundBlur_8_8442" result="effect2_dropShadow_8_8442"/>
<feBlend mode="normal" in="SourceGraphic" in2="effect2_dropShadow_8_8442" result="shape"/>
</filter>
<filter id="filter2_f_8_8442" x="-11.7665" y="-39.1697" width="471.601" height="478.332" filterUnits="userSpaceOnUse" color-interpolation-filters="sRGB">
<feFlood flood-opacity="0" result="BackgroundImageFix"/>
<feBlend mode="normal" in="SourceGraphic" in2="BackgroundImageFix" result="shape"/>
<feGaussianBlur stdDeviation="6.64984" result="effect1_foregroundBlur_8_8442"/>
</filter>
<filter id="filter3_b_8_8442" x="-227.339" y="-248.988" width="902.749" height="897.951" filterUnits="userSpaceOnUse" color-interpolation-filters="sRGB">
<feFlood flood-opacity="0" result="BackgroundImageFix"/>
<feGaussianBlur in="BackgroundImageFix" stdDeviation="6.0165"/>
<feComposite in2="SourceAlpha" operator="in" result="effect1_backgroundBlur_8_8442"/>
<feBlend mode="normal" in="SourceGraphic" in2="effect1_backgroundBlur_8_8442" result="shape"/>
</filter>
<filter id="filter4_df_8_8442" x="27.6989" y="4.67404" width="392.636" height="390.623" filterUnits="userSpaceOnUse" color-interpolation-filters="sRGB">
<feFlood flood-opacity="0" result="BackgroundImageFix"/>
<feColorMatrix in="SourceAlpha" type="matrix" values="0 0 0 0 0 0 0 0 0 0 0 0 0 0 0 0 0 0 127 0" result="hardAlpha"/>
<feOffset dy="5.04732"/>
<feGaussianBlur stdDeviation="2.52366"/>
<feComposite in2="hardAlpha" operator="out"/>
<feColorMatrix type="matrix" values="0 0 0 0 0 0 0 0 0 0 0 0 0 0 0 0 0 0 0.25 0"/>
<feBlend mode="normal" in2="BackgroundImageFix" result="effect1_dropShadow_8_8442"/>
<feBlend mode="normal" in="SourceGraphic" in2="effect1_dropShadow_8_8442" result="shape"/>
<feGaussianBlur stdDeviation="6.0165" result="effect2_foregroundBlur_8_8442"/>
</filter>
<filter id="filter5_f_8_8442" x="-24.5212" y="30.9089" width="576.558" height="396.287" filterUnits="userSpaceOnUse" color-interpolation-filters="sRGB">
<feFlood flood-opacity="0" result="BackgroundImageFix"/>
<feBlend mode="normal" in="SourceGraphic" in2="BackgroundImageFix" result="shape"/>
<feGaussianBlur stdDeviation="2.52366" result="effect1_foregroundBlur_8_8442"/>
</filter>
<filter id="filter6_f_8_8442" x="-227.339" y="-248.988" width="902.749" height="897.951" filterUnits="userSpaceOnUse" color-interpolation-filters="sRGB">
<feFlood flood-opacity="0" result="BackgroundImageFix"/>
<feBlend mode="normal" in="SourceGraphic" in2="BackgroundImageFix" result="shape"/>
<feGaussianBlur stdDeviation="6.0165" result="effect1_foregroundBlur_8_8442"/>
</filter>
<filter id="filter7_f_8_8442" x="-202.694" y="-220.908" width="853.43" height="841.801" filterUnits="userSpaceOnUse" color-interpolation-filters="sRGB">
<feFlood flood-opacity="0" result="BackgroundImageFix"/>
<feBlend mode="normal" in="SourceGraphic" in2="BackgroundImageFix" result="shape"/>
<feGaussianBlur stdDeviation="5.04732" result="effect1_foregroundBlur_8_8442"/>
</filter>
<filter id="filter8_bd_8_8442" x="-379.007" y="-396.403" width="1206.05" height="1202.94" filterUnits="userSpaceOnUse" color-interpolation-filters="sRGB">
<feFlood flood-opacity="0" result="BackgroundImageFix"/>
<feGaussianBlur in="BackgroundImageFix" stdDeviation="6.0165"/>
<feComposite in2="SourceAlpha" operator="in" result="effect1_backgroundBlur_8_8442"/>
<feColorMatrix in="SourceAlpha" type="matrix" values="0 0 0 0 0 0 0 0 0 0 0 0 0 0 0 0 0 0 127 0" result="hardAlpha"/>
<feOffset dy="5.04732"/>
<feGaussianBlur stdDeviation="9.46372"/>
<feComposite in2="hardAlpha" operator="out"/>
<feColorMatrix type="matrix" values="0 0 0 0 0.861829 0 0 0 0 0.555 0 0 0 0 0.925 0 0 0 1 0"/>
<feBlend mode="normal" in2="effect1_backgroundBlur_8_8442" result="effect2_dropShadow_8_8442"/>
<feBlend mode="normal" in="SourceGraphic" in2="effect2_dropShadow_8_8442" result="shape"/>
</filter>
<filter id="filter9_f_8_8442" x="-168.251" y="-191.256" width="784.61" height="782.547" filterUnits="userSpaceOnUse" color-interpolation-filters="sRGB">
<feFlood flood-opacity="0" result="BackgroundImageFix"/>
<feBlend mode="normal" in="SourceGraphic" in2="BackgroundImageFix" result="shape"/>
<feGaussianBlur stdDeviation="6.64984" result="effect1_foregroundBlur_8_8442"/>
</filter>
<filter id="filter10_b_8_8442" x="-527.662" y="-546.982" width="1503.33" height="1494.01" filterUnits="userSpaceOnUse" color-interpolation-filters="sRGB">
<feFlood flood-opacity="0" result="BackgroundImageFix"/>
<feGaussianBlur in="BackgroundImageFix" stdDeviation="6.0165"/>
<feComposite in2="SourceAlpha" operator="in" result="effect1_backgroundBlur_8_8442"/>
<feBlend mode="normal" in="SourceGraphic" in2="effect1_backgroundBlur_8_8442" result="shape"/>
</filter>
<filter id="filter11_df_8_8442" x="-98.1719" y="-120.054" width="644.308" height="640.145" filterUnits="userSpaceOnUse" color-interpolation-filters="sRGB">
<feFlood flood-opacity="0" result="BackgroundImageFix"/>
<feColorMatrix in="SourceAlpha" type="matrix" values="0 0 0 0 0 0 0 0 0 0 0 0 0 0 0 0 0 0 127 0" result="hardAlpha"/>
<feOffset dy="5.04732"/>
<feGaussianBlur stdDeviation="2.52366"/>
<feComposite in2="hardAlpha" operator="out"/>
<feColorMatrix type="matrix" values="0 0 0 0 0 0 0 0 0 0 0 0 0 0 0 0 0 0 0.25 0"/>
<feBlend mode="normal" in2="BackgroundImageFix" result="effect1_dropShadow_8_8442"/>
<feBlend mode="normal" in="SourceGraphic" in2="effect1_dropShadow_8_8442" result="shape"/>
<feGaussianBlur stdDeviation="6.0165" result="effect2_foregroundBlur_8_8442"/>
</filter>
<filter id="filter12_f_8_8442" x="-186.667" y="-306.193" width="876.73" height="1038.98" filterUnits="userSpaceOnUse" color-interpolation-filters="sRGB">
<feFlood flood-opacity="0" result="BackgroundImageFix"/>
<feBlend mode="normal" in="SourceGraphic" in2="BackgroundImageFix" result="shape"/>
<feGaussianBlur stdDeviation="2.52366" result="effect1_foregroundBlur_8_8442"/>
</filter>
<filter id="filter13_f_8_8442" x="-484.127" y="-509.24" width="1416.27" height="1418.54" filterUnits="userSpaceOnUse" color-interpolation-filters="sRGB">
<feFlood flood-opacity="0" result="BackgroundImageFix"/>
<feBlend mode="normal" in="SourceGraphic" in2="BackgroundImageFix" result="shape"/>
<feGaussianBlur stdDeviation="5.04732" result="effect1_foregroundBlur_8_8442"/>
</filter>
<filter id="filter14_f_8_8442" x="-154.642" y="-282.205" width="757.29" height="467.897" filterUnits="userSpaceOnUse" color-interpolation-filters="sRGB">
<feFlood flood-opacity="0" result="BackgroundImageFix"/>
<feBlend mode="normal" in="SourceGraphic" in2="BackgroundImageFix" result="shape"/>
<feGaussianBlur stdDeviation="40.7962" result="effect1_foregroundBlur_8_8442"/>
</filter>
<linearGradient id="paint0_linear_8_8442" x1="150.061" y1="483.017" x2="204.666" y2="207.84" gradientUnits="userSpaceOnUse">
<stop stop-opacity="0.93"/>
<stop offset="0.723958" stop-opacity="0"/>
</linearGradient>
<linearGradient id="paint1_linear_8_8442" x1="-29.6163" y1="367.093" x2="181.481" y2="233.882" gradientUnits="userSpaceOnUse">
<stop stop-color="#00000A" stop-opacity="0.9"/>
<stop offset="1" stop-opacity="0"/>
</linearGradient>
<linearGradient id="paint2_linear_8_8442" x1="516.227" y1="126.875" x2="255.922" y2="245.307" gradientUnits="userSpaceOnUse">
<stop stop-color="#4929CF"/>
<stop offset="1" stop-color="#100F2C" stop-opacity="0"/>
</linearGradient>
<linearGradient id="paint3_linear_8_8442" x1="492.945" y1="-49.6101" x2="282.266" y2="203.651" gradientUnits="userSpaceOnUse">
<stop stop-color="#4929CF"/>
<stop offset="1" stop-color="#100F2C" stop-opacity="0"/>
</linearGradient>
<linearGradient id="paint4_linear_8_8442" x1="136.987" y1="294.277" x2="-62.672" y2="368.416" gradientUnits="userSpaceOnUse">
<stop stop-opacity="0"/>
<stop offset="1" stop-opacity="0.93"/>
</linearGradient>
<linearGradient id="paint5_linear_8_8442" x1="190" y1="175.353" x2="372.194" y2="-4.21629" gradientUnits="userSpaceOnUse">
<stop stop-color="#D478FF" stop-opacity="0"/>
<stop offset="1" stop-color="#D782FF" stop-opacity="0.74"/>
</linearGradient>
<linearGradient id="paint6_linear_8_8442" x1="141.138" y1="266.498" x2="433.508" y2="-6.82112" gradientUnits="userSpaceOnUse">
<stop stop-color="#D478FF" stop-opacity="0.05"/>
<stop offset="1" stop-color="#D8A2EA"/>
</linearGradient>
<linearGradient id="paint7_linear_8_8442" x1="148.649" y1="286.829" x2="433.515" y2="-6.8203" gradientUnits="userSpaceOnUse">
<stop stop-color="#472A6C"/>
<stop offset="1" stop-color="#D8A2EA"/>
</linearGradient>
<linearGradient id="paint8_linear_8_8442" x1="-151.215" y1="508.943" x2="677.155" y2="-151.477" gradientUnits="userSpaceOnUse">
<stop stop-color="#D478FF" stop-opacity="0.05"/>
<stop offset="1" stop-color="#A077F9"/>
</linearGradient>
<linearGradient id="paint9_linear_8_8442" x1="-19.5176" y1="423.948" x2="400.215" y2="147.471" gradientUnits="userSpaceOnUse">
<stop stop-color="#3C0058" stop-opacity="0.05"/>
<stop offset="0.859375" stop-color="#392469"/>
<stop offset="1" stop-color="#4C0EDB"/>
</linearGradient>
<linearGradient id="paint10_linear_8_8442" x1="6.05993" y1="400.421" x2="381.704" y2="152.982" gradientUnits="userSpaceOnUse">
<stop stop-color="#D478FF" stop-opacity="0.05"/>
<stop offset="0.859375" stop-color="#392469"/>
<stop offset="1" stop-color="#4C0EDB"/>
</linearGradient>
<linearGradient id="paint11_linear_8_8442" x1="-151.215" y1="508.943" x2="677.155" y2="-151.477" gradientUnits="userSpaceOnUse">
<stop stop-color="#D478FF" stop-opacity="0.05"/>
<stop offset="1" stop-color="#A077F9"/>
</linearGradient>
<linearGradient id="paint12_linear_8_8442" x1="-145.446" y1="474.452" x2="669.136" y2="-110.986" gradientUnits="userSpaceOnUse">
<stop stop-color="#AD00FF" stop-opacity="0.05"/>
<stop offset="1" stop-color="#5000FF"/>
</linearGradient>
<linearGradient id="paint13_linear_8_8442" x1="153.311" y1="197.799" x2="237.631" y2="-224.314" gradientUnits="userSpaceOnUse">
<stop stop-color="#D478FF" stop-opacity="0"/>
<stop offset="1" stop-color="#D782FF" stop-opacity="0.74"/>
</linearGradient>
<linearGradient id="paint14_linear_8_8442" x1="171.304" y1="370.821" x2="320.745" y2="-285.667" gradientUnits="userSpaceOnUse">
<stop stop-color="#D478FF" stop-opacity="0.05"/>
<stop offset="1" stop-color="#D8A2EA"/>
</linearGradient>
<linearGradient id="paint15_linear_8_8442" x1="200.619" y1="391.627" x2="320.952" y2="-286.866" gradientUnits="userSpaceOnUse">
<stop stop-color="#472A6C"/>
<stop offset="1" stop-color="#D8A2EA"/>
</linearGradient>
<linearGradient id="paint16_linear_8_8442" x1="-7.84051" y1="984.595" x2="522.466" y2="-717.897" gradientUnits="userSpaceOnUse">
<stop stop-color="#D478FF" stop-opacity="0.05"/>
<stop offset="1" stop-color="#A077F9"/>
</linearGradient>
<linearGradient id="paint17_linear_8_8442" x1="95.9754" y1="741.694" x2="419.86" y2="-39.3517" gradientUnits="userSpaceOnUse">
<stop stop-color="#3C0058" stop-opacity="0.05"/>
<stop offset="0.859375" stop-color="#392469"/>
<stop offset="1" stop-color="#4C0EDB"/>
</linearGradient>
<linearGradient id="paint18_linear_8_8442" x1="110.278" y1="685.965" x2="402.176" y2="-14.9955" gradientUnits="userSpaceOnUse">
<stop stop-color="#D478FF" stop-opacity="0.05"/>
<stop offset="0.859375" stop-color="#392469"/>
<stop offset="1" stop-color="#4C0EDB"/>
</linearGradient>
<linearGradient id="paint19_linear_8_8442" x1="-32.2396" y1="931.006" x2="549.72" y2="-653.872" gradientUnits="userSpaceOnUse">
<stop stop-color="#AD00FF" stop-opacity="0.05"/>
<stop offset="1" stop-color="#5000FF"/>
</linearGradient>
<clipPath id="clip0_8_8442">
<rect width="448" height="400" fill="white"/>
</clipPath>
</defs>
</svg>
