<svg xmlns="http://www.w3.org/2000/svg" width="448" height="400" fill="none" viewBox="0 0 448 400"><g filter="url(#a)"><rect width="94.335" height="87.008" x="175.831" y="159.062" fill="url(#b)" rx="11.031"/><path fill="url(#c)" fill-rule="evenodd" d="M216.167 185.902v-9.044h-3.815v9.044h-4.308l-1.908 1.907v4.119h-9.175v3.814h9.175v5.415h-6.94v3.814h6.94v5.244h-9.175v3.814h9.175v4.299l1.908 1.907h4.308v8.863h3.815v-8.863h5.243v6.303h3.815v-6.303h5.414v8.863h3.815v-8.863h4.108l1.908-1.907v-4.299h8.731v-3.814h-8.731v-5.244h6.17v-3.814h-6.17v-5.415h8.731v-3.814h-8.731v-4.119l-1.908-1.907h-4.108v-9.044h-3.815v9.044h-5.414v-6.808h-3.815v6.808zm-6.216 3.815v26.703h26.704v-26.703zm5.727 7.63 1.907-1.908h11.445l1.907 1.908v11.444l-1.907 1.908h-11.445l-1.907-1.908zm3.815 1.907v7.63h7.629v-7.63z" clip-rule="evenodd"/><rect width="93.875" height="86.548" x="176.061" y="159.292" stroke="url(#d)" stroke-width=".46" rx="10.801"/></g><defs><linearGradient id="b" x1="222.998" x2="222.998" y1="159.062" y2="246.07" gradientUnits="userSpaceOnUse"><stop stop-color="#d6d6d6" stop-opacity=".26"/><stop offset="1" stop-opacity="0"/></linearGradient><linearGradient id="c" x1="212.201" x2="233.048" y1="188.225" y2="226.606" gradientUnits="userSpaceOnUse"><stop stop-color="#f4fffa"/><stop offset="1" stop-color="#de99ff" stop-opacity=".6"/></linearGradient><linearGradient id="d" x1="214.561" x2="257.913" y1="157.249" y2="223.076" gradientUnits="userSpaceOnUse"><stop stop-color="#3e3e3e"/><stop offset=".53" stop-color="#3d2c61"/><stop offset="1" stop-color="#3c1c80"/></linearGradient><filter id="a" width="101.229" height="93.902" x="172.384" y="155.615" color-interpolation-filters="sRGB" filterUnits="userSpaceOnUse"><feFlood flood-opacity="0" result="BackgroundImageFix"/><feGaussianBlur in="BackgroundImageFix" stdDeviation="1.724"/><feComposite in2="SourceAlpha" operator="in" result="effect1_backgroundBlur_8_8442"/><feBlend in="SourceGraphic" in2="effect1_backgroundBlur_8_8442" result="shape"/></filter></defs></svg>