<svg width="1384" height="400" viewBox="0 0 1384 400" fill="none" xmlns="http://www.w3.org/2000/svg">
<rect x="-24" y="-8.55469" width="1438.31" height="419.234" fill="#131313"/>
<g clip-path="url(#clip0_1179_70737)">
<rect x="534.898" y="373.354" width="99.3675" height="91.6495" rx="7.84464" fill="#121212"/>
<path d="M525.824 349.689H632.987V466.237H525.824V349.689Z" fill="url(#paint0_radial_1179_70737)"/>
<g filter="url(#filter0_f_1179_70737)">
<ellipse cx="591.379" cy="242.223" rx="236.421" ry="107.725" fill="url(#paint1_linear_1179_70737)"/>
</g>
</g>
<rect x="535.144" y="373.599" width="98.8772" height="91.1592" rx="7.59949" stroke="url(#paint2_linear_1179_70737)" stroke-width="0.49029"/>
<g clip-path="url(#clip1_1179_70737)">
<rect x="647.891" y="373.354" width="99.3675" height="91.6495" rx="7.84464" fill="#121212"/>
<path d="M638.82 349.689H745.983V466.237H638.82V349.689Z" fill="url(#paint3_radial_1179_70737)"/>
<g filter="url(#filter1_f_1179_70737)">
<ellipse cx="704.379" cy="242.223" rx="236.421" ry="107.725" fill="url(#paint4_linear_1179_70737)"/>
</g>
</g>
<rect x="648.136" y="373.599" width="98.8772" height="91.1592" rx="7.59949" stroke="url(#paint5_linear_1179_70737)" stroke-width="0.49029"/>
<g clip-path="url(#clip2_1179_70737)">
<rect x="985.871" y="373.354" width="99.3675" height="91.6495" rx="7.84464" fill="#121212"/>
<path d="M976.797 349.689H1083.96V466.237H976.797V349.689Z" fill="url(#paint6_radial_1179_70737)"/>
<g filter="url(#filter2_f_1179_70737)">
<ellipse cx="1042.36" cy="242.223" rx="236.421" ry="107.725" fill="url(#paint7_linear_1179_70737)"/>
</g>
</g>
<rect x="986.116" y="373.599" width="98.8772" height="91.1592" rx="7.59949" stroke="url(#paint8_linear_1179_70737)" stroke-width="0.49029"/>
<g clip-path="url(#clip3_1179_70737)">
<rect x="1099.87" y="373.354" width="99.3675" height="91.6495" rx="7.84464" fill="#121212"/>
<path d="M1090.8 349.689H1197.96V466.237H1090.8V349.689Z" fill="url(#paint9_radial_1179_70737)"/>
<g filter="url(#filter3_f_1179_70737)">
<ellipse cx="1156.36" cy="242.223" rx="236.421" ry="107.725" fill="url(#paint10_linear_1179_70737)"/>
</g>
</g>
<rect x="1100.11" y="373.599" width="98.8772" height="91.1592" rx="7.59949" stroke="url(#paint11_linear_1179_70737)" stroke-width="0.49029"/>
<g clip-path="url(#clip4_1179_70737)">
<rect x="1325.86" y="373.354" width="99.3675" height="91.6495" rx="7.84464" fill="#121212"/>
<path d="M1316.79 349.689H1423.96V466.237H1316.79V349.689Z" fill="url(#paint12_radial_1179_70737)"/>
<g filter="url(#filter4_f_1179_70737)">
<ellipse cx="1382.35" cy="242.223" rx="236.421" ry="107.725" fill="url(#paint13_linear_1179_70737)"/>
</g>
</g>
<rect x="1326.11" y="373.599" width="98.8772" height="91.1592" rx="7.59949" stroke="url(#paint14_linear_1179_70737)" stroke-width="0.49029"/>
<g clip-path="url(#clip5_1179_70737)">
<rect x="498.676" y="268.004" width="99.3675" height="91.6495" rx="7.84464" fill="#121212"/>
<path d="M489.609 244.34H596.772V360.887H489.609V244.34Z" fill="url(#paint15_radial_1179_70737)"/>
<g filter="url(#filter5_f_1179_70737)">
<ellipse cx="555.16" cy="136.875" rx="236.421" ry="107.725" fill="url(#paint16_linear_1179_70737)"/>
</g>
</g>
<rect x="498.921" y="268.249" width="98.8772" height="91.1592" rx="7.59949" stroke="url(#paint17_linear_1179_70737)" stroke-width="0.49029"/>
<g clip-path="url(#clip6_1179_70737)">
<rect x="611.676" y="268.004" width="99.3675" height="91.6495" rx="7.84464" fill="#121212"/>
<path d="M602.609 244.34H709.772V360.887H602.609V244.34Z" fill="url(#paint18_radial_1179_70737)"/>
<g filter="url(#filter6_f_1179_70737)">
<ellipse cx="668.16" cy="136.875" rx="236.421" ry="107.725" fill="url(#paint19_linear_1179_70737)"/>
</g>
</g>
<rect x="611.921" y="268.249" width="98.8772" height="91.1592" rx="7.59949" stroke="url(#paint20_linear_1179_70737)" stroke-width="0.49029"/>
<g clip-path="url(#clip7_1179_70737)">
<rect x="789.477" y="166.047" width="99.3675" height="91.6495" rx="7.84464" fill="#121212"/>
<circle cx="857.538" cy="201.63" r="0.73958" transform="rotate(-180 857.538 201.63)" fill="#73867C"/>
<circle cx="867.342" cy="186.432" r="0.73958" transform="rotate(-180 867.342 186.432)" fill="#73867C"/>
<ellipse cx="810.954" cy="190.349" rx="0.245145" ry="0.245145" transform="rotate(-180 810.954 190.349)" fill="#73867C"/>
<circle cx="810.471" cy="200.159" r="0.73958" transform="rotate(-180 810.471 200.159)" fill="#73867C"/>
<ellipse cx="802.13" cy="201.626" rx="0.245145" ry="0.245145" transform="rotate(-180 802.13 201.626)" fill="#73867C"/>
<circle cx="799.682" cy="196.727" r="0.73958" transform="rotate(-180 799.682 196.727)" fill="#73867C"/>
<circle cx="800.663" cy="222.712" r="0.73958" transform="rotate(-180 800.663 222.712)" fill="#73867C"/>
<circle cx="795.76" cy="213.397" r="0.73958" transform="rotate(-180 795.76 213.397)" fill="#73867C"/>
<circle cx="809.491" cy="213.397" r="0.73958" transform="rotate(-180 809.491 213.397)" fill="#73867C"/>
<circle cx="833.51" cy="226.145" r="0.73958" transform="rotate(-180 833.51 226.145)" fill="#73867C"/>
<circle cx="820.272" cy="224.184" r="0.73958" transform="rotate(-180 820.272 224.184)" fill="#73867C"/>
<ellipse cx="859.001" cy="237.907" rx="0.245145" ry="0.245145" transform="rotate(-180 859.001 237.907)" fill="#73867C"/>
<ellipse rx="0.245145" ry="0.245145" transform="matrix(-1 -8.18178e-08 -8.18178e-08 1 813.899 232.513)" fill="#73867C"/>
<ellipse rx="0.245145" ry="0.245145" transform="matrix(-1 -8.18178e-08 -8.18178e-08 1 822.235 226.63)" fill="#73867C"/>
<ellipse rx="0.245145" ry="0.245145" transform="matrix(-1 -8.18178e-08 -8.18178e-08 1 815.86 225.159)" fill="#73867C"/>
<circle cx="863.097" cy="223.368" r="0.73958" transform="rotate(-75 863.097 223.368)" fill="#73867C"/>
<circle cx="842.015" cy="234.645" r="0.73958" transform="rotate(-75 842.015 234.645)" fill="#73867C"/>
<circle cx="872.294" cy="198.363" r="0.267292" transform="rotate(105 872.294 198.363)" fill="#73867C"/>
<ellipse cx="846.255" cy="219.276" rx="0.245145" ry="0.245145" transform="rotate(-180 846.255 219.276)" fill="#73867C"/>
<circle cx="864.553" cy="229.608" r="0.73958" transform="rotate(-180 864.553 229.608)" fill="#73867C"/>
<circle cx="877.988" cy="215.206" r="0.73958" transform="rotate(-75 877.988 215.206)" fill="#73867C"/>
<path d="M780.414 142.383H887.577V258.93H780.414V142.383Z" fill="url(#paint21_radial_1179_70737)"/>
<g filter="url(#filter7_f_1179_70737)">
<ellipse cx="845.964" cy="34.9182" rx="236.421" ry="107.725" fill="url(#paint22_linear_1179_70737)"/>
</g>
<path fill-rule="evenodd" clip-rule="evenodd" d="M842.107 220.56C845.28 219.443 847.562 216.445 847.562 212.919C847.562 208.442 843.891 204.8 839.379 204.8C834.867 204.8 831.196 208.442 831.196 212.919C831.196 216.729 833.858 219.924 837.431 220.793V221.59C833.419 220.707 830.416 217.165 830.416 212.919C830.416 208.008 834.429 204.026 839.379 204.026C844.329 204.026 848.342 208.008 848.342 212.919C848.342 216.885 845.721 220.239 842.107 221.384V220.56ZM839.379 208.666C837.015 208.666 835.093 210.574 835.093 212.919C835.093 214.566 836.047 215.987 837.431 216.692V217.552C835.602 216.795 834.313 215.009 834.313 212.919C834.313 210.143 836.581 207.893 839.379 207.893C842.177 207.893 844.445 210.143 844.445 212.919C844.445 214.696 843.51 216.25 842.107 217.144V216.182C843.055 215.401 843.666 214.234 843.666 212.919C843.666 210.574 841.743 208.666 839.379 208.666ZM824.961 212.919C824.961 217.942 827.575 222.352 831.522 224.905C831.761 224.75 832.006 224.605 832.253 224.464C832.43 224.365 832.608 224.269 832.79 224.177C833.006 224.066 833.226 223.961 833.449 223.861C833.671 223.761 833.895 223.669 834.124 223.58C834.309 223.508 834.496 223.44 834.686 223.375C834.95 223.285 835.218 223.202 835.49 223.126C835.694 223.07 835.9 223.017 836.108 222.969C836.319 222.92 836.53 222.874 836.744 222.835C836.972 222.793 837.2 222.754 837.431 222.722C837.689 222.696 837.947 222.665 838.21 222.644V221.728V220.946V217.806V217.007V214.079H837.431V212.532H838.21H840.548H841.327V216.703V217.559V220.797V221.595V222.721C843.485 223.021 845.49 223.776 847.234 224.904C851.183 222.352 853.797 217.942 853.797 212.919C853.797 205.018 847.342 198.613 839.379 198.613C831.416 198.613 824.961 205.018 824.961 212.919Z" fill="url(#paint23_linear_1179_70737)"/>
</g>
<rect x="789.722" y="166.292" width="98.8772" height="91.1592" rx="7.59949" stroke="url(#paint24_linear_1179_70737)" stroke-width="0.49029"/>
<g clip-path="url(#clip8_1179_70737)">
<rect x="837.66" y="268.004" width="99.3675" height="91.6495" rx="7.84464" fill="#121212"/>
<path d="M828.598 244.34H935.76V360.887H828.598V244.34Z" fill="url(#paint25_radial_1179_70737)"/>
<g filter="url(#filter8_f_1179_70737)">
<ellipse cx="894.144" cy="136.875" rx="236.421" ry="107.725" fill="url(#paint26_linear_1179_70737)"/>
</g>
</g>
<rect x="837.905" y="268.249" width="98.8772" height="91.1592" rx="7.59949" stroke="url(#paint27_linear_1179_70737)" stroke-width="0.49029"/>
<g clip-path="url(#clip9_1179_70737)">
<rect x="950.664" y="268.004" width="99.3675" height="91.6495" rx="7.84464" fill="#121212"/>
<circle cx="1018.72" cy="303.587" r="0.73958" transform="rotate(-180 1018.72 303.587)" fill="#73867C"/>
<circle cx="1028.53" cy="288.389" r="0.73958" transform="rotate(-180 1028.53 288.389)" fill="#73867C"/>
<ellipse cx="972.138" cy="292.306" rx="0.245145" ry="0.245145" transform="rotate(-180 972.138 292.306)" fill="#73867C"/>
<circle cx="971.655" cy="302.116" r="0.73958" transform="rotate(-180 971.655 302.116)" fill="#73867C"/>
<ellipse cx="963.313" cy="303.583" rx="0.245145" ry="0.245145" transform="rotate(-180 963.313 303.583)" fill="#73867C"/>
<circle cx="960.866" cy="298.684" r="0.73958" transform="rotate(-180 960.866 298.684)" fill="#73867C"/>
<circle cx="961.846" cy="324.669" r="0.73958" transform="rotate(-180 961.846 324.669)" fill="#73867C"/>
<circle cx="956.944" cy="315.354" r="0.73958" transform="rotate(-180 956.944 315.354)" fill="#73867C"/>
<circle cx="970.674" cy="315.354" r="0.73958" transform="rotate(-180 970.674 315.354)" fill="#73867C"/>
<circle cx="994.694" cy="328.102" r="0.73958" transform="rotate(-180 994.694 328.102)" fill="#73867C"/>
<circle cx="981.456" cy="326.141" r="0.73958" transform="rotate(-180 981.456 326.141)" fill="#73867C"/>
<ellipse cx="1020.18" cy="339.864" rx="0.245145" ry="0.245145" transform="rotate(-180 1020.18 339.864)" fill="#73867C"/>
<ellipse rx="0.245145" ry="0.245145" transform="matrix(-1 -8.18178e-08 -8.18178e-08 1 975.083 334.47)" fill="#73867C"/>
<ellipse rx="0.245145" ry="0.245145" transform="matrix(-1 -8.18178e-08 -8.18178e-08 1 983.419 328.587)" fill="#73867C"/>
<ellipse rx="0.245145" ry="0.245145" transform="matrix(-1 -8.18178e-08 -8.18178e-08 1 977.044 327.116)" fill="#73867C"/>
<circle cx="1024.28" cy="325.325" r="0.73958" transform="rotate(-75 1024.28 325.325)" fill="#73867C"/>
<circle cx="1003.2" cy="336.602" r="0.73958" transform="rotate(-75 1003.2 336.602)" fill="#73867C"/>
<circle cx="1033.48" cy="300.32" r="0.267292" transform="rotate(105 1033.48 300.32)" fill="#73867C"/>
<ellipse cx="1007.44" cy="321.233" rx="0.245145" ry="0.245145" transform="rotate(-180 1007.44 321.233)" fill="#73867C"/>
<circle cx="1025.74" cy="331.565" r="0.73958" transform="rotate(-180 1025.74 331.565)" fill="#73867C"/>
<circle cx="1039.17" cy="317.163" r="0.73958" transform="rotate(-75 1039.17 317.163)" fill="#73867C"/>
<path d="M941.598 244.34H1048.76V360.887H941.598V244.34Z" fill="url(#paint28_radial_1179_70737)"/>
<g filter="url(#filter9_f_1179_70737)">
<ellipse cx="1007.15" cy="136.875" rx="236.421" ry="107.725" fill="url(#paint29_linear_1179_70737)"/>
</g>
<path fill-rule="evenodd" clip-rule="evenodd" d="M1001.07 298.439H1000.33L986.969 302.574C987.247 321.652 995.992 328.017 1000.33 328.815H1001.07C1011.97 325.368 1014.31 309.885 1014.12 302.574L1001.07 298.439ZM1007.07 313.541C1007.07 316.927 1004.32 319.673 1000.93 319.673C997.547 319.673 994.802 316.927 994.802 313.541C994.802 310.154 997.547 307.408 1000.93 307.408C1004.32 307.408 1007.07 310.154 1007.07 313.541ZM996.437 311.904C996.437 310.695 997.202 309.636 998.38 309.215C998.924 309.021 999.888 309.069 1000.44 309.318C1001.78 309.931 1002.46 311.533 1001.96 312.931L1001.85 313.245L1002.65 314.072C1003.09 314.528 1003.7 315.163 1004 315.484L1004.56 316.067L1004.54 316.625L1004.52 317.183L1003.57 317.203C1002.71 317.221 1002.62 317.211 1002.49 317.078C1002.4 316.983 1002.35 316.839 1002.35 316.662C1002.35 316.328 1002.24 316.22 1001.93 316.22C1001.55 316.22 1001.42 316.113 1001.42 315.789C1001.42 315.4 1001.23 315.221 1000.82 315.221C1000.57 315.221 1000.44 315.17 1000.18 314.971C999.87 314.735 999.823 314.722 999.295 314.722C998.596 314.722 998.213 314.607 997.666 314.235C996.91 313.72 996.437 312.824 996.437 311.904ZM998.937 310.991C998.937 311.307 998.68 311.563 998.364 311.563C998.048 311.563 997.791 311.307 997.791 310.991C997.791 310.674 998.048 310.418 998.364 310.418C998.68 310.418 998.937 310.674 998.937 310.991Z" fill="url(#paint30_linear_1179_70737)"/>
</g>
<rect x="950.909" y="268.249" width="98.8772" height="91.1592" rx="7.59949" stroke="url(#paint31_linear_1179_70737)" stroke-width="0.49029"/>
<g clip-path="url(#clip10_1179_70737)">
<rect x="1063.66" y="268.004" width="99.3675" height="91.6495" rx="7.84464" fill="#121212"/>
<path d="M1054.59 244.34H1161.75V360.887H1054.59V244.34Z" fill="url(#paint32_radial_1179_70737)"/>
<g filter="url(#filter10_f_1179_70737)">
<ellipse cx="1120.14" cy="136.875" rx="236.421" ry="107.725" fill="url(#paint33_linear_1179_70737)"/>
</g>
</g>
<rect x="1063.9" y="268.249" width="98.8772" height="91.1592" rx="7.59949" stroke="url(#paint34_linear_1179_70737)" stroke-width="0.49029"/>
<g clip-path="url(#clip11_1179_70737)">
<rect x="1176.65" y="268.004" width="99.3675" height="91.6495" rx="7.84464" fill="#121212"/>
<circle cx="1244.71" cy="303.587" r="0.73958" transform="rotate(-180 1244.71 303.587)" fill="#73867C"/>
<circle cx="1254.51" cy="288.389" r="0.73958" transform="rotate(-180 1254.51 288.389)" fill="#73867C"/>
<ellipse cx="1198.13" cy="292.306" rx="0.245145" ry="0.245145" transform="rotate(-180 1198.13 292.306)" fill="#73867C"/>
<circle cx="1197.64" cy="302.116" r="0.73958" transform="rotate(-180 1197.64 302.116)" fill="#73867C"/>
<ellipse cx="1189.3" cy="303.583" rx="0.245145" ry="0.245145" transform="rotate(-180 1189.3 303.583)" fill="#73867C"/>
<circle cx="1186.85" cy="298.684" r="0.73958" transform="rotate(-180 1186.85 298.684)" fill="#73867C"/>
<circle cx="1187.83" cy="324.669" r="0.73958" transform="rotate(-180 1187.83 324.669)" fill="#73867C"/>
<circle cx="1182.93" cy="315.354" r="0.73958" transform="rotate(-180 1182.93 315.354)" fill="#73867C"/>
<circle cx="1196.66" cy="315.354" r="0.73958" transform="rotate(-180 1196.66 315.354)" fill="#73867C"/>
<circle cx="1220.68" cy="328.102" r="0.73958" transform="rotate(-180 1220.68 328.102)" fill="#73867C"/>
<circle cx="1207.44" cy="326.141" r="0.73958" transform="rotate(-180 1207.44 326.141)" fill="#73867C"/>
<ellipse cx="1246.17" cy="339.864" rx="0.245145" ry="0.245145" transform="rotate(-180 1246.17 339.864)" fill="#73867C"/>
<ellipse rx="0.245145" ry="0.245145" transform="matrix(-1 -8.18178e-08 -8.18178e-08 1 1201.07 334.47)" fill="#73867C"/>
<ellipse rx="0.245145" ry="0.245145" transform="matrix(-1 -8.18178e-08 -8.18178e-08 1 1209.41 328.587)" fill="#73867C"/>
<ellipse rx="0.245145" ry="0.245145" transform="matrix(-1 -8.18178e-08 -8.18178e-08 1 1203.03 327.116)" fill="#73867C"/>
<circle cx="1250.27" cy="325.325" r="0.73958" transform="rotate(-75 1250.27 325.325)" fill="#73867C"/>
<circle cx="1229.19" cy="336.602" r="0.73958" transform="rotate(-75 1229.19 336.602)" fill="#73867C"/>
<circle cx="1259.47" cy="300.32" r="0.267292" transform="rotate(105 1259.47 300.32)" fill="#73867C"/>
<ellipse cx="1233.43" cy="321.233" rx="0.245145" ry="0.245145" transform="rotate(-180 1233.43 321.233)" fill="#73867C"/>
<circle cx="1251.73" cy="331.565" r="0.73958" transform="rotate(-180 1251.73 331.565)" fill="#73867C"/>
<circle cx="1265.16" cy="317.163" r="0.73958" transform="rotate(-75 1265.16 317.163)" fill="#73867C"/>
<path d="M1167.58 244.34H1274.74V360.887H1167.58V244.34Z" fill="url(#paint35_radial_1179_70737)"/>
<g filter="url(#filter11_f_1179_70737)">
<ellipse cx="1233.13" cy="136.875" rx="236.421" ry="107.725" fill="url(#paint36_linear_1179_70737)"/>
</g>
<path fill-rule="evenodd" clip-rule="evenodd" d="M1229.75 298.333C1229.8 298.318 1229.86 298.297 1229.94 298.272C1230.11 298.215 1230.39 298.134 1230.74 298.052C1231.45 297.886 1232.48 297.709 1233.66 297.698C1236.02 297.676 1239.03 298.321 1241.21 301.11L1241.21 301.11C1241.68 301.71 1241.85 302.676 1241.83 303.764C1241.81 304.88 1241.6 306.229 1241.23 307.693C1240.49 310.534 1239.1 313.862 1237.15 316.834C1237.41 317.022 1238.23 317.364 1240.56 316.883C1240.79 316.835 1241 316.811 1241.18 316.817C1241.35 316.823 1241.56 316.858 1241.73 316.988C1241.93 317.143 1242.01 317.373 1241.99 317.588C1241.97 317.773 1241.89 317.937 1241.8 318.062C1241.63 318.319 1241.35 318.584 1241.02 318.828C1240.69 319.077 1240.28 319.324 1239.83 319.534C1239.05 319.894 1237.85 320.104 1236.85 320.115C1236.67 320.117 1236.49 320.112 1236.31 320.101C1236.23 320.129 1236.15 320.136 1236.06 320.116C1235.72 320.043 1235.57 320.051 1235.51 320.068C1235.5 320.069 1235.5 320.069 1235.5 320.069C1235.49 320.07 1235.48 320.072 1235.45 320.146C1235.4 320.265 1235.36 320.463 1235.33 320.809C1235.31 320.923 1235.3 321.055 1235.29 321.201C1235.26 321.458 1235.23 321.759 1235.19 322.08C1235.19 322.111 1235.18 322.143 1235.17 322.173L1234.99 322.735C1234.97 323.395 1234.9 323.703 1234.81 324.022L1234.8 324.064C1234.72 324.334 1234.64 324.625 1234.59 325.294L1234.59 325.294C1234.5 326.426 1234.14 327.373 1233.45 328.105C1232.77 328.832 1231.81 329.303 1230.62 329.559C1229.89 329.716 1229.28 329.71 1228.77 329.57C1228.26 329.429 1227.88 329.158 1227.6 328.834C1227.32 328.516 1227.14 328.154 1227.01 327.833C1226.95 327.672 1226.9 327.517 1226.85 327.38L1226.82 327.292L1226.82 327.292C1226.79 327.19 1226.76 327.104 1226.73 327.027C1226.38 326.072 1226.42 324.881 1226.46 323.345L1226.46 323.261C1226.49 322.483 1226.43 321.665 1226.32 321.01C1226.27 320.699 1226.2 320.436 1226.14 320.236C1226.11 320.264 1226.07 320.29 1226.05 320.312C1225.79 320.513 1225.08 320.918 1224.21 321.17C1223.34 321.422 1222.22 321.549 1221.2 321.064C1220.85 320.897 1220.58 320.753 1220.38 320.625C1220.28 320.562 1220.19 320.495 1220.11 320.423C1220.04 320.357 1219.95 320.258 1219.9 320.124C1219.84 319.967 1219.84 319.781 1219.93 319.611C1220.01 319.468 1220.13 319.388 1220.21 319.345C1220.36 319.26 1220.56 319.211 1220.72 319.175C1220.87 319.142 1221.01 319.115 1221.16 319.087C1221.4 319.042 1221.65 318.996 1221.93 318.923C1222.36 318.81 1222.73 318.662 1222.97 318.455C1223.38 318.1 1223.69 317.818 1223.9 317.604C1223.9 317.567 1223.9 317.53 1223.89 317.493C1223.22 317.477 1222.59 317.298 1222.02 316.992L1221.96 317.058C1221.81 317.214 1221.6 317.439 1221.35 317.72C1220.84 318.281 1220.15 319.06 1219.42 319.933C1218.87 320.59 1218.27 320.974 1217.61 321.002C1216.95 321.03 1216.37 320.699 1215.89 320.225C1214.92 319.289 1214.1 317.582 1213.42 315.737C1212.73 313.87 1212.17 311.78 1211.77 310.009C1211.38 308.247 1211.14 306.763 1211.11 306.114C1210.96 303.184 1211.63 301.215 1212.82 299.958C1214 298.704 1215.62 298.239 1217.19 298.149C1218.75 298.059 1220.32 298.341 1221.48 298.639C1222.07 298.789 1222.56 298.944 1222.9 299.062C1223 299.096 1223.08 299.126 1223.16 299.153C1224.27 298.345 1225.65 298.06 1226.92 298.03C1227.95 298.005 1228.94 298.144 1229.75 298.333ZM1223.56 300.082C1223.57 300.075 1223.58 300.068 1223.58 300.06C1224.5 299.328 1225.71 299.04 1226.94 299.01C1228.31 298.977 1229.63 299.267 1230.42 299.544C1231.26 299.898 1232.58 300.663 1233.75 301.798C1234.8 302.81 1235.72 304.09 1236.11 305.609C1234.5 305.456 1233.39 305.747 1232.75 306.476C1232.03 307.302 1232.09 308.496 1232.36 309.577C1232.63 310.689 1233.18 311.859 1233.67 312.802C1233.91 313.256 1234.14 313.665 1234.32 313.994L1234.34 314.037C1234.54 314.389 1234.66 314.612 1234.7 314.718C1234.99 315.414 1235.35 315.901 1235.64 316.265C1235.68 316.315 1235.72 316.361 1235.75 316.404L1235.75 316.404C1235.85 316.524 1235.93 316.62 1235.99 316.713L1236 316.721L1235.99 316.723C1235.88 316.753 1235.76 316.793 1235.62 316.853C1235.35 316.977 1235.05 317.185 1234.85 317.565C1234.64 317.934 1234.55 318.419 1234.59 319.05C1234.6 319.226 1234.66 319.372 1234.74 319.491C1234.67 319.58 1234.61 319.681 1234.57 319.789C1234.47 320.047 1234.42 320.372 1234.38 320.707C1234.37 320.845 1234.36 320.987 1234.34 321.137L1234.34 321.137C1234.32 321.37 1234.29 321.624 1234.26 321.92L1234.07 322.505C1234.05 322.551 1234.04 322.6 1234.04 322.648C1234.03 323.269 1233.97 323.506 1233.9 323.771L1233.89 323.806C1233.8 324.111 1233.71 324.463 1233.65 325.221C1233.57 326.186 1233.27 326.915 1232.76 327.458C1232.25 328.004 1231.49 328.405 1230.42 328.634C1229.8 328.767 1229.35 328.747 1229.03 328.658C1228.71 328.57 1228.48 328.409 1228.31 328.21C1228.13 328.006 1228 327.755 1227.89 327.485C1227.84 327.351 1227.79 327.217 1227.75 327.084L1227.72 327.007C1227.69 326.903 1227.65 326.795 1227.62 326.7C1227.34 325.94 1227.36 324.941 1227.41 323.289C1227.43 322.453 1227.37 321.573 1227.25 320.853C1227.19 320.494 1227.12 320.163 1227.02 319.892C1226.97 319.736 1226.89 319.563 1226.79 319.413C1226.82 319.368 1226.84 319.321 1226.86 319.273C1226.96 319.024 1227.03 318.729 1226.99 318.409C1226.95 318.086 1226.81 317.771 1226.55 317.48C1226.17 317.05 1225.77 316.834 1225.37 316.783C1225.21 316.761 1225.05 316.77 1224.91 316.801C1224.92 316.744 1224.94 316.685 1224.96 316.624C1225.05 316.296 1225.18 315.943 1225.33 315.541L1225.4 315.35C1225.48 315.135 1225.57 314.932 1225.67 314.702L1225.67 314.702C1225.73 314.567 1225.8 314.424 1225.87 314.263C1226.05 313.846 1226.23 313.368 1226.36 312.784C1226.63 311.611 1226.68 310.064 1226.19 307.769L1226.19 307.769C1225.98 306.793 1225.44 306.194 1224.72 305.916C1224.04 305.652 1223.25 305.703 1222.56 305.863C1221.89 306.018 1221.24 306.289 1220.75 306.555C1220.83 305.854 1220.98 305.015 1221.22 304.152C1221.62 302.754 1222.27 301.344 1223.26 300.352C1223.35 300.256 1223.45 300.166 1223.56 300.082ZM1222.36 299.878C1222.06 299.78 1221.68 299.667 1221.25 299.556C1220.13 299.27 1218.67 299.012 1217.24 299.094C1215.81 299.176 1214.47 299.595 1213.51 300.607C1212.56 301.616 1211.91 303.296 1212.05 306.066C1212.08 306.629 1212.3 308.046 1212.7 309.802C1213.09 311.548 1213.64 313.594 1214.31 315.41C1214.98 317.248 1215.75 318.773 1216.55 319.546C1216.94 319.926 1217.28 320.069 1217.57 320.057C1217.86 320.044 1218.24 319.874 1218.69 319.328C1219.43 318.442 1220.13 317.652 1220.65 317.083C1220.89 316.821 1221.08 316.605 1221.23 316.449C1220.05 315.432 1219.35 313.785 1219.6 312.007C1219.83 310.369 1219.74 308.956 1219.7 308.155C1219.68 307.924 1219.67 307.744 1219.67 307.624L1219.67 307.624C1219.67 307.563 1219.68 307.507 1219.7 307.457C1219.73 306.579 1219.89 305.258 1220.28 303.882C1220.68 302.496 1221.33 301.011 1222.36 299.878ZM1237.17 306.407C1237.2 306.359 1237.22 306.304 1237.23 306.245C1237.24 306.147 1237.23 306.051 1237.19 305.967C1236.84 303.946 1235.7 302.309 1234.44 301.093C1233.39 300.083 1232.24 299.342 1231.34 298.89C1231.97 298.765 1232.78 298.653 1233.67 298.644C1235.86 298.624 1238.53 299.219 1240.47 301.693C1240.73 302.023 1240.9 302.703 1240.88 303.749C1240.87 304.768 1240.68 306.04 1240.31 307.456C1239.63 310.087 1238.37 313.161 1236.6 315.946C1236.56 315.895 1236.52 315.844 1236.48 315.793L1236.48 315.793C1236.46 315.776 1236.45 315.758 1236.43 315.741C1236.89 315.051 1237.07 314.147 1237.12 313.276C1237.19 312.287 1237.09 311.251 1236.98 310.418C1236.83 309.269 1237.02 307.391 1237.17 306.407ZM1236.16 306.566C1234.58 306.391 1233.81 306.699 1233.46 307.099C1233.07 307.549 1233.02 308.318 1233.27 309.348C1233.52 310.348 1234.03 311.437 1234.51 312.365C1234.74 312.807 1234.96 313.205 1235.15 313.535L1235.17 313.586C1235.35 313.904 1235.51 314.187 1235.58 314.357C1235.65 314.532 1235.73 314.691 1235.81 314.837C1236 314.399 1236.11 313.843 1236.15 313.214C1236.2 312.318 1236.12 311.354 1236.01 310.547C1235.86 309.377 1236.02 307.63 1236.16 306.566ZM1225.09 317.767C1225 317.876 1224.88 318.013 1224.72 318.177C1224.48 318.425 1224.12 318.762 1223.61 319.199C1223.19 319.554 1222.65 319.748 1222.18 319.872C1221.91 319.942 1221.61 320.001 1221.36 320.049C1221.43 320.089 1221.52 320.132 1221.62 320.178C1222.33 320.514 1223.17 320.45 1223.94 320.228C1224.7 320.006 1225.3 319.654 1225.44 319.542C1225.6 319.413 1225.84 319.169 1225.95 318.895C1226.01 318.765 1226.03 318.644 1226.01 318.53C1226 318.42 1225.95 318.285 1225.81 318.127C1225.56 317.839 1225.36 317.77 1225.25 317.755C1225.19 317.747 1225.14 317.753 1225.1 317.762C1225.1 317.764 1225.09 317.765 1225.09 317.767ZM1220.77 319.698L1220.77 319.7C1220.77 319.698 1220.77 319.698 1220.77 319.698ZM1224.04 316.371C1224.03 316.429 1224.01 316.488 1224 316.548C1221.96 316.541 1220.2 314.556 1220.53 312.138C1220.78 310.373 1220.68 308.761 1220.64 308.01C1220.63 307.913 1220.63 307.831 1220.62 307.764C1220.63 307.756 1220.64 307.747 1220.66 307.737C1220.76 307.651 1220.93 307.538 1221.15 307.417C1221.58 307.175 1222.17 306.924 1222.77 306.786C1223.38 306.645 1223.95 306.633 1224.38 306.799C1224.77 306.951 1225.11 307.274 1225.26 307.969C1225.73 310.161 1225.67 311.565 1225.44 312.575C1225.32 313.082 1225.16 313.503 1225 313.889C1224.95 314.014 1224.89 314.142 1224.83 314.271L1224.83 314.271L1224.83 314.271C1224.72 314.522 1224.6 314.778 1224.51 315.02L1224.51 315.02L1224.44 315.206C1224.29 315.604 1224.15 316 1224.04 316.371ZM1220.57 307.817C1220.56 307.83 1220.56 307.831 1220.57 307.819L1220.57 307.817ZM1223.23 307.559C1223.21 307.713 1223.51 308.127 1223.91 308.182C1224.31 308.237 1224.65 307.914 1224.67 307.76C1224.69 307.605 1224.38 307.434 1223.99 307.379C1223.59 307.323 1223.25 307.404 1223.23 307.559H1223.23ZM1234.65 307.866C1235.05 307.811 1235.36 307.397 1235.33 307.243V307.243C1235.31 307.088 1234.97 307.007 1234.57 307.063C1234.18 307.118 1233.87 307.289 1233.89 307.444C1233.91 307.598 1234.26 307.921 1234.65 307.866ZM1236.31 317.615L1236.31 317.615L1236.31 317.615L1236.31 317.615C1236.3 317.618 1236.29 317.621 1236.28 317.623C1236.27 317.626 1236.26 317.629 1236.25 317.632C1236.16 317.658 1236.09 317.683 1236.01 317.716C1235.88 317.778 1235.76 317.862 1235.68 318.018C1235.59 318.179 1235.51 318.461 1235.53 318.958C1235.56 318.977 1235.61 319.012 1235.74 319.052C1236 319.131 1236.38 319.173 1236.84 319.168C1237.76 319.158 1238.81 318.961 1239.43 318.675C1239.83 318.491 1240.18 318.278 1240.46 318.069C1240.58 317.976 1240.69 317.887 1240.78 317.806L1240.76 317.81C1238.26 318.324 1237.08 318.005 1236.53 317.55C1236.46 317.573 1236.38 317.596 1236.31 317.615ZM1235.52 318.944C1235.52 318.944 1235.52 318.946 1235.52 318.95C1235.52 318.946 1235.52 318.944 1235.52 318.944Z" fill="url(#paint37_linear_1179_70737)"/>
</g>
<rect x="1176.89" y="268.249" width="98.8772" height="91.1592" rx="7.59949" stroke="url(#paint38_linear_1179_70737)" stroke-width="0.49029"/>
<g clip-path="url(#clip12_1179_70737)">
<rect x="1289.65" y="268.004" width="99.3675" height="91.6495" rx="7.84464" fill="#121212"/>
<path d="M1280.58 244.34H1387.74V360.887H1280.58V244.34Z" fill="url(#paint39_radial_1179_70737)"/>
<g filter="url(#filter12_f_1179_70737)">
<ellipse cx="1346.13" cy="136.875" rx="236.421" ry="107.725" fill="url(#paint40_linear_1179_70737)"/>
</g>
</g>
<rect x="1289.89" y="268.249" width="98.8772" height="91.1592" rx="7.59949" stroke="url(#paint41_linear_1179_70737)" stroke-width="0.49029"/>
<g clip-path="url(#clip13_1179_70737)">
<rect x="420.105" y="62.5098" width="99.3675" height="91.6495" rx="7.84464" fill="#121212"/>
<path d="M411.039 38.8457H518.202V155.393H411.039V38.8457Z" fill="url(#paint42_radial_1179_70737)"/>
<g filter="url(#filter13_f_1179_70737)">
<ellipse cx="476.593" cy="-68.6189" rx="236.421" ry="107.725" fill="url(#paint43_linear_1179_70737)"/>
</g>
</g>
<rect x="420.351" y="62.7549" width="98.8772" height="91.1592" rx="7.59949" stroke="url(#paint44_linear_1179_70737)" stroke-width="0.49029"/>
<g clip-path="url(#clip14_1179_70737)">
<rect x="533.102" y="62.5098" width="99.3675" height="91.6495" rx="7.84464" fill="#121212"/>
<path d="M524.035 38.8457H631.198V155.393H524.035V38.8457Z" fill="url(#paint45_radial_1179_70737)"/>
<g filter="url(#filter14_f_1179_70737)">
<ellipse cx="589.586" cy="-68.6189" rx="236.421" ry="107.725" fill="url(#paint46_linear_1179_70737)"/>
</g>
</g>
<rect x="533.347" y="62.7549" width="98.8772" height="91.1592" rx="7.59949" stroke="url(#paint47_linear_1179_70737)" stroke-width="0.49029"/>
<g clip-path="url(#clip15_1179_70737)">
<rect x="865.539" y="62.5098" width="99.3675" height="91.6495" rx="7.84464" fill="#121212"/>
<circle cx="933.592" cy="98.0944" r="0.73958" transform="rotate(-180 933.592 98.0944)" fill="#73867C"/>
<circle cx="943.397" cy="82.8971" r="0.73958" transform="rotate(-180 943.397 82.8971)" fill="#73867C"/>
<ellipse cx="887.009" cy="86.8134" rx="0.245145" ry="0.245145" transform="rotate(-180 887.009 86.8134)" fill="#73867C"/>
<circle cx="886.526" cy="96.6237" r="0.73958" transform="rotate(-180 886.526 96.6237)" fill="#73867C"/>
<ellipse cx="878.185" cy="98.0908" rx="0.245145" ry="0.245145" transform="rotate(-180 878.185 98.0908)" fill="#73867C"/>
<circle cx="875.737" cy="93.1921" r="0.73958" transform="rotate(-180 875.737 93.1921)" fill="#73867C"/>
<circle cx="876.717" cy="119.176" r="0.73958" transform="rotate(-180 876.717 119.176)" fill="#73867C"/>
<circle cx="871.815" cy="109.862" r="0.73958" transform="rotate(-180 871.815 109.862)" fill="#73867C"/>
<circle cx="885.546" cy="109.862" r="0.73958" transform="rotate(-180 885.546 109.862)" fill="#73867C"/>
<circle cx="909.565" cy="122.61" r="0.73958" transform="rotate(-180 909.565 122.61)" fill="#73867C"/>
<circle cx="896.327" cy="120.649" r="0.73958" transform="rotate(-180 896.327 120.649)" fill="#73867C"/>
<ellipse cx="935.056" cy="134.372" rx="0.245145" ry="0.245145" transform="rotate(-180 935.056 134.372)" fill="#73867C"/>
<ellipse rx="0.245145" ry="0.245145" transform="matrix(-1 -8.18178e-08 -8.18178e-08 1 889.954 128.978)" fill="#73867C"/>
<ellipse rx="0.245145" ry="0.245145" transform="matrix(-1 -8.18178e-08 -8.18178e-08 1 898.29 123.095)" fill="#73867C"/>
<ellipse rx="0.245145" ry="0.245145" transform="matrix(-1 -8.18178e-08 -8.18178e-08 1 891.915 121.624)" fill="#73867C"/>
<circle cx="939.152" cy="119.833" r="0.73958" transform="rotate(-75 939.152 119.833)" fill="#73867C"/>
<circle cx="918.07" cy="131.11" r="0.73958" transform="rotate(-75 918.07 131.11)" fill="#73867C"/>
<circle cx="948.348" cy="94.8277" r="0.267292" transform="rotate(105 948.348 94.8277)" fill="#73867C"/>
<ellipse cx="922.31" cy="115.741" rx="0.245145" ry="0.245145" transform="rotate(-180 922.31 115.741)" fill="#73867C"/>
<circle cx="940.608" cy="126.073" r="0.73958" transform="rotate(-180 940.608 126.073)" fill="#73867C"/>
<circle cx="954.043" cy="111.67" r="0.73958" transform="rotate(-75 954.043 111.67)" fill="#73867C"/>
<path d="M856.473 38.8457H963.635V155.393H856.473V38.8457Z" fill="url(#paint48_radial_1179_70737)"/>
<g filter="url(#filter15_f_1179_70737)">
<ellipse cx="922.027" cy="-68.6189" rx="236.421" ry="107.725" fill="url(#paint49_linear_1179_70737)"/>
</g>
<path fill-rule="evenodd" clip-rule="evenodd" d="M927.048 94.8848C927.88 94.8848 928.65 95.3318 929.04 96.0584C929.414 96.7544 929.398 97.5746 928.999 98.2554L928.985 98.2783L925.484 104.093C925.089 104.75 924.374 105.161 923.61 105.169L923.585 105.17L919.588 105.17L921.249 108.946L921.256 108.957L921.266 108.975C921.657 109.678 921.648 110.512 921.242 111.204L921.228 111.227L917.728 117.042C917.332 117.699 916.617 118.11 915.853 118.118L915.828 118.118L910.922 118.118L907.395 121.812L907.388 121.819C907.056 122.154 906.608 122.341 906.14 122.341C906.023 122.341 905.906 122.329 905.791 122.306C905.22 122.19 904.747 121.802 904.518 121.266L904.512 121.25L902.656 117.02L902.646 117.003L902.636 116.986C902.634 116.983 902.633 116.98 902.631 116.977C902.24 116.275 902.249 115.44 902.655 114.748L902.668 114.725L906.064 109.085L903.562 103.398L903.608 103.375L903.607 103.372C903.501 102.849 903.586 102.303 903.858 101.825L903.873 101.799L903.887 101.776L907.388 95.9615C907.784 95.304 908.498 94.8937 909.262 94.8848H909.287H927.048ZM908.667 118.074L904.947 118.074L906.04 120.583L906.042 120.59C906.061 120.635 906.09 120.66 906.133 120.668C906.172 120.676 906.204 120.668 906.234 120.641L906.239 120.636L908.667 118.074ZM919.299 109.448H908.057C908.044 109.448 908.032 109.448 908.019 109.449L908.016 109.449L911.099 116.451H915.828C916.022 116.451 916.21 116.348 916.316 116.182L916.324 116.168L919.83 110.35C919.935 110.176 919.946 109.975 919.863 109.794C919.768 109.585 919.546 109.448 919.299 109.448ZM906.888 110.885L904.105 115.542C903.995 115.727 903.988 115.944 904.087 116.135L904.098 116.155L904.104 116.164L904.115 116.182L904.137 116.215L904.162 116.247L904.186 116.274L904.19 116.279L904.206 116.295L904.22 116.308C904.307 116.387 904.416 116.435 904.535 116.447L904.562 116.45L904.577 116.451L904.597 116.451H909.318L906.888 110.885ZM906.156 105.181L907.378 107.964L907.402 107.956C907.613 107.885 907.834 107.847 908.057 107.844L908.09 107.844L918.988 107.844L917.819 105.181L906.156 105.181ZM927.017 96.508H915.734L918.817 103.511H923.545C923.74 103.511 923.927 103.408 924.034 103.242L924.042 103.228L927.548 97.4102C927.653 97.2367 927.664 97.0354 927.581 96.8544C927.488 96.6497 927.273 96.5139 927.033 96.5082L927.017 96.508ZM914.006 96.508H909.305C909.112 96.508 908.925 96.6112 908.819 96.777L908.811 96.7906L905.314 102.609C905.21 102.782 905.198 102.984 905.281 103.165C905.374 103.37 905.588 103.505 905.827 103.511L905.842 103.511H917.082L914.006 96.508Z" fill="url(#paint50_linear_1179_70737)"/>
</g>
<rect x="865.784" y="62.7549" width="98.8772" height="91.1592" rx="7.59949" stroke="url(#paint51_linear_1179_70737)" stroke-width="0.49029"/>
<g clip-path="url(#clip16_1179_70737)">
<rect x="901.965" y="164.652" width="99.3675" height="91.6495" rx="7.84464" fill="#121212"/>
<path d="M892.902 140.988H1000.06V257.536H892.902V140.988Z" fill="url(#paint52_radial_1179_70737)"/>
<g filter="url(#filter16_f_1179_70737)">
<ellipse cx="958.453" cy="33.5236" rx="236.421" ry="107.725" fill="url(#paint53_linear_1179_70737)"/>
</g>
</g>
<rect x="902.21" y="164.897" width="98.8772" height="91.1592" rx="7.59949" stroke="url(#paint54_linear_1179_70737)" stroke-width="0.49029"/>
<g clip-path="url(#clip17_1179_70737)">
<rect x="979.836" y="62.5098" width="99.3675" height="91.6495" rx="7.84464" fill="#121212"/>
<path d="M970.777 38.8457H1077.94V155.393H970.777V38.8457Z" fill="url(#paint55_radial_1179_70737)"/>
<g filter="url(#filter17_f_1179_70737)">
<ellipse cx="1036.33" cy="-68.6189" rx="236.421" ry="107.725" fill="url(#paint56_linear_1179_70737)"/>
</g>
</g>
<rect x="980.081" y="62.7549" width="98.8772" height="91.1592" rx="7.59949" stroke="url(#paint57_linear_1179_70737)" stroke-width="0.49029"/>
<g clip-path="url(#clip18_1179_70737)">
<rect x="1098.08" y="62.5098" width="99.3675" height="91.6495" rx="7.84464" fill="#121212"/>
<circle cx="1166.13" cy="98.0944" r="0.73958" transform="rotate(-180 1166.13 98.0944)" fill="#73867C"/>
<circle cx="1175.93" cy="82.8971" r="0.73958" transform="rotate(-180 1175.93 82.8971)" fill="#73867C"/>
<ellipse cx="1119.54" cy="86.8134" rx="0.245145" ry="0.245145" transform="rotate(-180 1119.54 86.8134)" fill="#73867C"/>
<circle cx="1119.06" cy="96.6237" r="0.73958" transform="rotate(-180 1119.06 96.6237)" fill="#73867C"/>
<ellipse cx="1110.72" cy="98.0908" rx="0.245145" ry="0.245145" transform="rotate(-180 1110.72 98.0908)" fill="#73867C"/>
<circle cx="1108.27" cy="93.1921" r="0.73958" transform="rotate(-180 1108.27 93.1921)" fill="#73867C"/>
<circle cx="1109.25" cy="119.176" r="0.73958" transform="rotate(-180 1109.25 119.176)" fill="#73867C"/>
<circle cx="1104.35" cy="109.862" r="0.73958" transform="rotate(-180 1104.35 109.862)" fill="#73867C"/>
<circle cx="1118.08" cy="109.862" r="0.73958" transform="rotate(-180 1118.08 109.862)" fill="#73867C"/>
<circle cx="1142.1" cy="122.61" r="0.73958" transform="rotate(-180 1142.1 122.61)" fill="#73867C"/>
<circle cx="1128.86" cy="120.649" r="0.73958" transform="rotate(-180 1128.86 120.649)" fill="#73867C"/>
<ellipse cx="1167.59" cy="134.372" rx="0.245145" ry="0.245145" transform="rotate(-180 1167.59 134.372)" fill="#73867C"/>
<ellipse rx="0.245145" ry="0.245145" transform="matrix(-1 -8.18178e-08 -8.18178e-08 1 1122.49 128.978)" fill="#73867C"/>
<ellipse rx="0.245145" ry="0.245145" transform="matrix(-1 -8.18178e-08 -8.18178e-08 1 1130.83 123.095)" fill="#73867C"/>
<ellipse rx="0.245145" ry="0.245145" transform="matrix(-1 -8.18178e-08 -8.18178e-08 1 1124.45 121.624)" fill="#73867C"/>
<circle cx="1171.69" cy="119.833" r="0.73958" transform="rotate(-75 1171.69 119.833)" fill="#73867C"/>
<circle cx="1150.6" cy="131.11" r="0.73958" transform="rotate(-75 1150.6 131.11)" fill="#73867C"/>
<circle cx="1180.88" cy="94.8277" r="0.267292" transform="rotate(105 1180.88 94.8277)" fill="#73867C"/>
<ellipse cx="1154.84" cy="115.741" rx="0.245145" ry="0.245145" transform="rotate(-180 1154.84 115.741)" fill="#73867C"/>
<circle cx="1173.14" cy="126.073" r="0.73958" transform="rotate(-180 1173.14 126.073)" fill="#73867C"/>
<circle cx="1186.58" cy="111.67" r="0.73958" transform="rotate(-75 1186.58 111.67)" fill="#73867C"/>
<path d="M1089.01 38.8457H1196.17V155.393H1089.01V38.8457Z" fill="url(#paint58_radial_1179_70737)"/>
<g filter="url(#filter18_f_1179_70737)">
<ellipse cx="1154.56" cy="-68.6189" rx="236.421" ry="107.725" fill="url(#paint59_linear_1179_70737)"/>
</g>
<path fill-rule="evenodd" clip-rule="evenodd" d="M1153.2 93.3054C1153.55 93.3 1154.04 93.3268 1154.29 93.3589C1154.55 93.3856 1154.93 93.4498 1155.15 93.4926C1155.37 93.5354 1155.79 93.6531 1156.09 93.7547C1156.38 93.8563 1156.84 94.0328 1157.1 94.1559C1157.37 94.2789 1157.77 94.4875 1157.99 94.6266C1158.2 94.7656 1158.57 95.0117 1158.79 95.1775C1159.01 95.338 1159.41 95.691 1159.69 95.9531C1159.96 96.2152 1160.35 96.6217 1160.55 96.8571C1160.75 97.0924 1161.06 97.5043 1161.23 97.7664C1161.41 98.0285 1161.7 98.5366 1161.88 98.8897C1162.06 99.2427 1162.29 99.8097 1162.4 100.147C1162.51 100.484 1162.64 101.051 1162.7 101.404C1162.79 101.955 1162.81 102.19 1162.78 103.062C1162.76 103.811 1162.72 104.223 1162.64 104.613C1162.58 104.907 1162.44 105.399 1162.33 105.71C1162.23 106.02 1162.01 106.528 1161.86 106.849C1161.7 107.164 1161.46 107.598 1161.32 107.806C1161.18 108.02 1160.94 108.363 1160.77 108.571C1160.61 108.78 1160.32 109.112 1160.13 109.315C1159.93 109.518 1159.56 109.866 1159.3 110.085C1159.03 110.31 1158.65 110.599 1158.44 110.727C1158.23 110.861 1157.78 111.107 1157.42 111.278C1157.07 111.449 1156.59 111.647 1155.93 111.861L1155.88 112.385C1155.86 112.669 1155.79 113.182 1155.73 113.519C1155.68 113.856 1155.57 114.353 1155.5 114.616C1155.43 114.878 1155.28 115.338 1155.18 115.632C1155.06 115.926 1154.83 116.456 1154.65 116.809C1154.47 117.162 1154.16 117.702 1153.95 118.012C1153.75 118.322 1153.36 118.836 1153.1 119.157C1152.83 119.478 1152.42 119.922 1152.18 120.141C1151.95 120.36 1151.52 120.708 1151.25 120.922C1150.97 121.136 1150.5 121.452 1150.2 121.623C1149.91 121.794 1149.45 122.04 1149.19 122.163C1148.92 122.291 1148.42 122.489 1148.06 122.607C1147.71 122.725 1147.18 122.869 1146.88 122.928C1146.57 122.992 1146.1 123.062 1145.83 123.094C1145.56 123.12 1145.05 123.147 1144.69 123.147C1144.34 123.147 1143.85 123.12 1143.6 123.094C1143.35 123.062 1142.9 122.987 1142.61 122.928C1142.31 122.874 1141.76 122.725 1141.38 122.602C1141 122.479 1140.36 122.216 1139.96 122.019C1139.56 121.821 1139.02 121.516 1138.76 121.345C1138.49 121.168 1138.08 120.874 1137.85 120.687C1137.61 120.499 1137.09 120.023 1136.7 119.622C1136.3 119.221 1135.82 118.702 1135.65 118.467C1135.47 118.231 1135.17 117.809 1134.98 117.531C1134.8 117.253 1134.5 116.734 1134.33 116.381C1134.15 116.028 1133.95 115.584 1133.88 115.391C1133.8 115.199 1133.69 114.862 1133.62 114.642C1133.55 114.423 1133.44 114.011 1133.39 113.733C1133.33 113.455 1133.26 113.032 1133.22 112.797C1133.19 112.562 1133.16 111.973 1133.16 111.486C1133.16 110.839 1133.18 110.406 1133.27 109.855C1133.33 109.443 1133.44 108.876 1133.52 108.598C1133.59 108.32 1133.76 107.828 1133.88 107.501C1134.01 107.175 1134.23 106.683 1134.37 106.405C1134.51 106.127 1134.72 105.742 1134.84 105.549C1134.96 105.357 1135.25 104.939 1135.49 104.613C1135.74 104.276 1136.2 103.763 1136.57 103.415C1136.92 103.078 1137.46 102.613 1137.77 102.383C1138.08 102.153 1138.58 101.816 1138.89 101.634C1139.2 101.452 1139.65 101.211 1139.91 101.104C1140.16 100.997 1140.6 100.821 1140.9 100.719C1141.19 100.617 1141.73 100.473 1142.1 100.398C1142.47 100.323 1143.03 100.232 1143.36 100.206C1143.68 100.173 1144.07 100.147 1144.51 100.147L1144.62 99.7562C1144.68 99.5476 1144.89 99.0448 1145.07 98.649C1145.27 98.2531 1145.58 97.6969 1145.76 97.4187C1145.96 97.1406 1146.27 96.7233 1146.47 96.4987C1146.67 96.274 1147 95.9317 1147.21 95.7445C1147.42 95.5626 1147.73 95.2952 1147.9 95.1615C1148.08 95.0277 1148.42 94.7977 1148.65 94.6533C1148.89 94.5035 1149.27 94.2949 1149.51 94.1879C1149.74 94.0756 1150.13 93.9152 1150.36 93.8296C1150.6 93.7386 1150.97 93.621 1151.19 93.5675C1151.41 93.5086 1151.81 93.4284 1152.07 93.3856C1152.34 93.3482 1152.84 93.3107 1153.2 93.3054ZM1154.64 95.5676C1155.38 95.5837 1155.63 95.6104 1155.95 95.7013C1156.17 95.7655 1156.55 95.9046 1156.78 96.0116C1157.02 96.1185 1157.4 96.3272 1157.64 96.4823C1157.87 96.632 1158.24 96.9102 1158.46 97.1028C1158.67 97.29 1158.99 97.6163 1159.16 97.8195C1159.33 98.0228 1159.58 98.3598 1159.71 98.5684C1159.85 98.7716 1160.05 99.146 1160.17 99.3974C1160.29 99.6488 1160.46 100.071 1160.53 100.334C1160.66 100.777 1160.68 100.89 1160.68 101.751C1160.69 102.58 1160.67 102.735 1160.56 103.115C1160.49 103.35 1160.33 103.762 1160.2 104.024C1160.07 104.286 1159.83 104.698 1159.65 104.934C1159.48 105.169 1159.16 105.533 1158.94 105.736C1158.72 105.945 1158.4 106.212 1158.23 106.33C1158.05 106.453 1157.76 106.624 1157.58 106.709C1157.41 106.8 1157.11 106.923 1156.92 106.982C1156.72 107.046 1156.22 107.18 1155.79 107.287C1155.36 107.394 1154.87 107.544 1154.7 107.624C1154.5 107.715 1154.3 107.865 1154.17 108.015C1154.04 108.148 1153.86 108.421 1153.57 108.993L1153.54 110.304C1153.51 111.24 1153.48 111.743 1153.41 112.048C1153.36 112.283 1153.25 112.695 1153.17 112.957C1153.08 113.219 1152.9 113.647 1152.76 113.909C1152.61 114.166 1152.35 114.594 1152.15 114.867C1151.96 115.139 1151.58 115.589 1151.29 115.867C1151.02 116.15 1150.57 116.525 1150.3 116.701C1150.04 116.878 1149.65 117.108 1149.43 117.215C1149.21 117.322 1148.86 117.472 1148.65 117.546C1148.44 117.621 1148.13 117.723 1147.96 117.766C1147.78 117.809 1147.42 117.873 1147.15 117.91C1146.86 117.948 1146.37 117.958 1145.92 117.942C1145.51 117.926 1144.99 117.873 1144.77 117.825C1144.55 117.776 1144.14 117.664 1143.86 117.573C1143.59 117.482 1143.17 117.316 1142.94 117.204C1142.71 117.086 1142.39 116.905 1142.22 116.798C1142.05 116.691 1141.73 116.466 1141.51 116.3C1141.29 116.129 1140.88 115.755 1140.6 115.466C1140.32 115.171 1139.98 114.781 1139.83 114.588C1139.69 114.396 1139.45 114.038 1139.29 113.786C1139.14 113.535 1138.92 113.101 1138.79 112.823C1138.68 112.545 1138.53 112.171 1138.47 111.994C1138.41 111.818 1138.32 111.491 1138.27 111.272C1138.23 111.053 1138.17 110.507 1138.16 110.069C1138.14 109.609 1138.15 109.084 1138.18 108.838C1138.22 108.603 1138.31 108.191 1138.38 107.929C1138.46 107.667 1138.63 107.218 1138.76 106.939C1138.89 106.661 1139.15 106.228 1139.32 105.977C1139.49 105.725 1139.86 105.281 1140.13 104.992C1140.4 104.698 1140.81 104.324 1141.03 104.158C1141.25 103.987 1141.66 103.73 1141.94 103.58C1142.22 103.431 1142.64 103.233 1142.87 103.147C1143.11 103.061 1143.46 102.954 1143.65 102.912C1143.84 102.864 1144.16 102.799 1144.37 102.762C1144.58 102.73 1145.29 102.698 1145.95 102.687C1147.11 102.676 1147.17 102.671 1147.58 102.527C1147.82 102.446 1148.11 102.318 1148.22 102.238C1148.37 102.136 1148.47 102.002 1148.55 101.826C1148.61 101.681 1148.72 101.237 1148.78 100.842C1148.85 100.446 1148.95 99.9377 1149.01 99.7184C1149.07 99.4991 1149.2 99.1354 1149.3 98.916C1149.41 98.6967 1149.61 98.3223 1149.77 98.087C1149.93 97.8516 1150.26 97.4558 1150.51 97.2044C1150.75 96.953 1151.12 96.6374 1151.33 96.5037C1151.53 96.3646 1151.84 96.1827 1152.02 96.0918C1152.2 96.0062 1152.5 95.8832 1152.69 95.819C1152.88 95.7548 1153.19 95.6692 1153.39 95.6264C1153.64 95.5676 1153.98 95.5516 1154.64 95.5676Z" fill="url(#paint60_linear_1179_70737)"/>
</g>
<rect x="1098.32" y="62.7549" width="98.8772" height="91.1592" rx="7.59949" stroke="url(#paint61_linear_1179_70737)" stroke-width="0.49029"/>
<g clip-path="url(#clip19_1179_70737)">
<rect x="1211.07" y="62.5098" width="99.3675" height="91.6495" rx="7.84464" fill="#121212"/>
<path d="M1202 38.8457H1309.17V155.393H1202V38.8457Z" fill="url(#paint62_radial_1179_70737)"/>
<g filter="url(#filter19_f_1179_70737)">
<ellipse cx="1267.55" cy="-68.6189" rx="236.421" ry="107.725" fill="url(#paint63_linear_1179_70737)"/>
</g>
</g>
<rect x="1211.32" y="62.7549" width="98.8772" height="91.1592" rx="7.59949" stroke="url(#paint64_linear_1179_70737)" stroke-width="0.49029"/>
<g clip-path="url(#clip20_1179_70737)">
<rect x="679.051" y="166.047" width="99.3675" height="91.6495" rx="7.84464" fill="#121212"/>
<path d="M669.984 142.383H777.147V258.93H669.984V142.383Z" fill="url(#paint65_radial_1179_70737)"/>
<g filter="url(#filter20_f_1179_70737)">
<ellipse cx="735.535" cy="34.9182" rx="236.421" ry="107.725" fill="url(#paint66_linear_1179_70737)"/>
</g>
</g>
<rect x="679.296" y="166.292" width="98.8772" height="91.1592" rx="7.59949" stroke="url(#paint67_linear_1179_70737)" stroke-width="0.49029"/>
<g clip-path="url(#clip21_1179_70737)">
<rect x="1326.1" y="166.047" width="99.3675" height="91.6495" rx="7.84464" fill="#121212"/>
<path d="M1317.04 142.383H1424.2V258.93H1317.04V142.383Z" fill="url(#paint68_radial_1179_70737)"/>
<g filter="url(#filter21_f_1179_70737)">
<ellipse cx="1382.59" cy="34.9182" rx="236.421" ry="107.725" fill="url(#paint69_linear_1179_70737)"/>
</g>
</g>
<rect x="1326.35" y="166.292" width="98.8772" height="91.1592" rx="7.59949" stroke="url(#paint70_linear_1179_70737)" stroke-width="0.49029"/>
<g clip-path="url(#clip22_1179_70737)">
<rect x="1211.81" y="166.047" width="99.3675" height="91.6495" rx="7.84464" fill="#121212"/>
<path d="M1202.74 142.383H1309.9V258.93H1202.74V142.383Z" fill="url(#paint71_radial_1179_70737)"/>
<g filter="url(#filter22_f_1179_70737)">
<ellipse cx="1268.29" cy="34.9182" rx="236.421" ry="107.725" fill="url(#paint72_linear_1179_70737)"/>
</g>
</g>
<rect x="1212.06" y="166.292" width="98.8772" height="91.1592" rx="7.59949" stroke="url(#paint73_linear_1179_70737)" stroke-width="0.49029"/>
<g clip-path="url(#clip23_1179_70737)">
<rect x="423.18" y="-43.9961" width="99.3675" height="91.6495" rx="7.84464" fill="#121212"/>
<path d="M414.102 -67.6602H521.264V48.8871H414.102V-67.6602Z" fill="url(#paint74_radial_1179_70737)"/>
</g>
<rect x="423.425" y="-43.7509" width="98.8772" height="91.1592" rx="7.59949" stroke="url(#paint75_linear_1179_70737)" stroke-width="0.49029"/>
<g clip-path="url(#clip24_1179_70737)">
<rect x="536.18" y="-43.9961" width="99.3675" height="91.6495" rx="7.84464" fill="#121212"/>
<path d="M527.109 -67.6602H634.272V48.8871H527.109V-67.6602Z" fill="url(#paint76_radial_1179_70737)"/>
</g>
<rect x="536.425" y="-43.7509" width="98.8772" height="91.1592" rx="7.59949" stroke="url(#paint77_linear_1179_70737)" stroke-width="0.49029"/>
<g clip-path="url(#clip25_1179_70737)">
<rect x="649.172" y="-43.9961" width="99.3675" height="91.6495" rx="7.84464" fill="#121212"/>
<path d="M640.105 -67.6602H747.268V48.8871H640.105V-67.6602Z" fill="url(#paint78_radial_1179_70737)"/>
</g>
<rect x="649.417" y="-43.7509" width="98.8772" height="91.1592" rx="7.59949" stroke="url(#paint79_linear_1179_70737)" stroke-width="0.49029"/>
<g clip-path="url(#clip26_1179_70737)">
<rect x="875.16" y="-43.9961" width="99.3675" height="91.6495" rx="7.84464" fill="#121212"/>
<path d="M866.094 -67.6602H973.256V48.8871H866.094V-67.6602Z" fill="url(#paint80_radial_1179_70737)"/>
</g>
<rect x="875.405" y="-43.7509" width="98.8772" height="91.1592" rx="7.59949" stroke="url(#paint81_linear_1179_70737)" stroke-width="0.49029"/>
<g clip-path="url(#clip27_1179_70737)">
<rect x="988.156" y="-43.9961" width="99.3675" height="91.6495" rx="7.84464" fill="#121212"/>
<path d="M979.086 -67.6602H1086.25V48.8871H979.086V-67.6602Z" fill="url(#paint82_radial_1179_70737)"/>
</g>
<rect x="988.401" y="-43.7509" width="98.8772" height="91.1592" rx="7.59949" stroke="url(#paint83_linear_1179_70737)" stroke-width="0.49029"/>
<g clip-path="url(#clip28_1179_70737)">
<rect x="1214.14" y="-43.9961" width="99.3675" height="91.6495" rx="7.84464" fill="#121212"/>
<path d="M1205.07 -67.6602H1312.23V48.8871H1205.07V-67.6602Z" fill="url(#paint84_radial_1179_70737)"/>
</g>
<rect x="1214.39" y="-43.7509" width="98.8772" height="91.1592" rx="7.59949" stroke="url(#paint85_linear_1179_70737)" stroke-width="0.49029"/>
<g clip-path="url(#clip29_1179_70737)">
<rect x="1327.14" y="-43.9961" width="99.3675" height="91.6495" rx="7.84464" fill="#121212"/>
<path d="M1318.07 -67.6602H1425.23V48.8871H1318.07V-67.6602Z" fill="url(#paint86_radial_1179_70737)"/>
</g>
<rect x="1327.38" y="-43.7509" width="98.8772" height="91.1592" rx="7.59949" stroke="url(#paint87_linear_1179_70737)" stroke-width="0.49029"/>
<g clip-path="url(#clip30_1179_70737)">
<rect x="1015.98" y="164.652" width="99.3675" height="91.6495" rx="7.84464" fill="#121212"/>
<circle cx="1084.04" cy="200.235" r="0.73958" transform="rotate(-180 1084.04 200.235)" fill="#73867C"/>
<circle cx="1093.84" cy="185.038" r="0.73958" transform="rotate(-180 1093.84 185.038)" fill="#73867C"/>
<ellipse cx="1037.45" cy="188.954" rx="0.245145" ry="0.245145" transform="rotate(-180 1037.45 188.954)" fill="#73867C"/>
<circle cx="1036.97" cy="198.764" r="0.73958" transform="rotate(-180 1036.97 198.764)" fill="#73867C"/>
<ellipse cx="1028.63" cy="200.231" rx="0.245145" ry="0.245145" transform="rotate(-180 1028.63 200.231)" fill="#73867C"/>
<circle cx="1026.18" cy="195.333" r="0.73958" transform="rotate(-180 1026.18 195.333)" fill="#73867C"/>
<circle cx="1027.16" cy="221.317" r="0.73958" transform="rotate(-180 1027.16 221.317)" fill="#73867C"/>
<circle cx="1022.26" cy="212.003" r="0.73958" transform="rotate(-180 1022.26 212.003)" fill="#73867C"/>
<circle cx="1035.99" cy="212.003" r="0.73958" transform="rotate(-180 1035.99 212.003)" fill="#73867C"/>
<circle cx="1060.01" cy="224.751" r="0.73958" transform="rotate(-180 1060.01 224.751)" fill="#73867C"/>
<circle cx="1046.77" cy="222.79" r="0.73958" transform="rotate(-180 1046.77 222.79)" fill="#73867C"/>
<ellipse cx="1085.5" cy="236.511" rx="0.245145" ry="0.245145" transform="rotate(-180 1085.5 236.511)" fill="#73867C"/>
<ellipse rx="0.245145" ry="0.245145" transform="matrix(-1 -8.18178e-08 -8.18178e-08 1 1040.4 231.118)" fill="#73867C"/>
<ellipse rx="0.245145" ry="0.245145" transform="matrix(-1 -8.18178e-08 -8.18178e-08 1 1048.74 225.235)" fill="#73867C"/>
<ellipse rx="0.245145" ry="0.245145" transform="matrix(-1 -8.18178e-08 -8.18178e-08 1 1042.36 223.765)" fill="#73867C"/>
<circle cx="1089.6" cy="221.973" r="0.73958" transform="rotate(-75 1089.6 221.973)" fill="#73867C"/>
<circle cx="1068.52" cy="233.25" r="0.73958" transform="rotate(-75 1068.52 233.25)" fill="#73867C"/>
<circle cx="1098.79" cy="196.968" r="0.267292" transform="rotate(105 1098.79 196.968)" fill="#73867C"/>
<ellipse cx="1072.75" cy="217.882" rx="0.245145" ry="0.245145" transform="rotate(-180 1072.75 217.882)" fill="#73867C"/>
<circle cx="1091.05" cy="228.214" r="0.73958" transform="rotate(-180 1091.05 228.214)" fill="#73867C"/>
<circle cx="1104.49" cy="213.811" r="0.73958" transform="rotate(-75 1104.49 213.811)" fill="#73867C"/>
<path d="M1006.91 140.988H1114.08V257.536H1006.91V140.988Z" fill="url(#paint88_radial_1179_70737)"/>
<g filter="url(#filter23_f_1179_70737)">
<ellipse cx="1072.46" cy="33.5217" rx="236.421" ry="107.725" fill="url(#paint89_linear_1179_70737)"/>
</g>
<path fill-rule="evenodd" clip-rule="evenodd" d="M1065.76 196.968C1065.74 195.771 1064.23 195.258 1063.48 196.195L1052.22 210.343C1050.89 212.013 1052.09 214.476 1054.22 214.476H1065.86L1066 223.593C1066.02 224.79 1067.53 225.304 1068.28 224.366L1079.54 210.218C1080.86 208.548 1079.67 206.086 1077.54 206.086H1065.82L1065.76 196.968Z" fill="url(#paint90_linear_1179_70737)"/>
</g>
<rect x="1016.23" y="164.897" width="98.8772" height="91.1592" rx="7.59949" stroke="url(#paint91_linear_1179_70737)" stroke-width="0.49029"/>
<rect x="0.234375" y="-2.73242" width="1383.95" height="402.54" fill="url(#paint92_radial_1179_70737)"/>
<defs>
<filter id="filter0_f_1179_70737" x="288.828" y="68.3693" width="605.101" height="347.707" filterUnits="userSpaceOnUse" color-interpolation-filters="sRGB">
<feFlood flood-opacity="0" result="BackgroundImageFix"/>
<feBlend mode="normal" in="SourceGraphic" in2="BackgroundImageFix" result="shape"/>
<feGaussianBlur stdDeviation="33.0644" result="effect1_foregroundBlur_1179_70737"/>
</filter>
<filter id="filter1_f_1179_70737" x="401.828" y="68.3693" width="605.101" height="347.707" filterUnits="userSpaceOnUse" color-interpolation-filters="sRGB">
<feFlood flood-opacity="0" result="BackgroundImageFix"/>
<feBlend mode="normal" in="SourceGraphic" in2="BackgroundImageFix" result="shape"/>
<feGaussianBlur stdDeviation="33.0644" result="effect1_foregroundBlur_1179_70737"/>
</filter>
<filter id="filter2_f_1179_70737" x="739.809" y="68.3693" width="605.101" height="347.707" filterUnits="userSpaceOnUse" color-interpolation-filters="sRGB">
<feFlood flood-opacity="0" result="BackgroundImageFix"/>
<feBlend mode="normal" in="SourceGraphic" in2="BackgroundImageFix" result="shape"/>
<feGaussianBlur stdDeviation="33.0644" result="effect1_foregroundBlur_1179_70737"/>
</filter>
<filter id="filter3_f_1179_70737" x="853.805" y="68.3693" width="605.101" height="347.707" filterUnits="userSpaceOnUse" color-interpolation-filters="sRGB">
<feFlood flood-opacity="0" result="BackgroundImageFix"/>
<feBlend mode="normal" in="SourceGraphic" in2="BackgroundImageFix" result="shape"/>
<feGaussianBlur stdDeviation="33.0644" result="effect1_foregroundBlur_1179_70737"/>
</filter>
<filter id="filter4_f_1179_70737" x="1079.8" y="68.3693" width="605.101" height="347.707" filterUnits="userSpaceOnUse" color-interpolation-filters="sRGB">
<feFlood flood-opacity="0" result="BackgroundImageFix"/>
<feBlend mode="normal" in="SourceGraphic" in2="BackgroundImageFix" result="shape"/>
<feGaussianBlur stdDeviation="33.0644" result="effect1_foregroundBlur_1179_70737"/>
</filter>
<filter id="filter5_f_1179_70737" x="252.61" y="-36.9783" width="605.101" height="347.707" filterUnits="userSpaceOnUse" color-interpolation-filters="sRGB">
<feFlood flood-opacity="0" result="BackgroundImageFix"/>
<feBlend mode="normal" in="SourceGraphic" in2="BackgroundImageFix" result="shape"/>
<feGaussianBlur stdDeviation="33.0644" result="effect1_foregroundBlur_1179_70737"/>
</filter>
<filter id="filter6_f_1179_70737" x="365.61" y="-36.9783" width="605.101" height="347.707" filterUnits="userSpaceOnUse" color-interpolation-filters="sRGB">
<feFlood flood-opacity="0" result="BackgroundImageFix"/>
<feBlend mode="normal" in="SourceGraphic" in2="BackgroundImageFix" result="shape"/>
<feGaussianBlur stdDeviation="33.0644" result="effect1_foregroundBlur_1179_70737"/>
</filter>
<filter id="filter7_f_1179_70737" x="543.414" y="-138.935" width="605.101" height="347.707" filterUnits="userSpaceOnUse" color-interpolation-filters="sRGB">
<feFlood flood-opacity="0" result="BackgroundImageFix"/>
<feBlend mode="normal" in="SourceGraphic" in2="BackgroundImageFix" result="shape"/>
<feGaussianBlur stdDeviation="33.0644" result="effect1_foregroundBlur_1179_70737"/>
</filter>
<filter id="filter8_f_1179_70737" x="591.594" y="-36.9783" width="605.101" height="347.707" filterUnits="userSpaceOnUse" color-interpolation-filters="sRGB">
<feFlood flood-opacity="0" result="BackgroundImageFix"/>
<feBlend mode="normal" in="SourceGraphic" in2="BackgroundImageFix" result="shape"/>
<feGaussianBlur stdDeviation="33.0644" result="effect1_foregroundBlur_1179_70737"/>
</filter>
<filter id="filter9_f_1179_70737" x="704.602" y="-36.9783" width="605.101" height="347.707" filterUnits="userSpaceOnUse" color-interpolation-filters="sRGB">
<feFlood flood-opacity="0" result="BackgroundImageFix"/>
<feBlend mode="normal" in="SourceGraphic" in2="BackgroundImageFix" result="shape"/>
<feGaussianBlur stdDeviation="33.0644" result="effect1_foregroundBlur_1179_70737"/>
</filter>
<filter id="filter10_f_1179_70737" x="817.594" y="-36.9783" width="605.101" height="347.707" filterUnits="userSpaceOnUse" color-interpolation-filters="sRGB">
<feFlood flood-opacity="0" result="BackgroundImageFix"/>
<feBlend mode="normal" in="SourceGraphic" in2="BackgroundImageFix" result="shape"/>
<feGaussianBlur stdDeviation="33.0644" result="effect1_foregroundBlur_1179_70737"/>
</filter>
<filter id="filter11_f_1179_70737" x="930.578" y="-36.9783" width="605.101" height="347.707" filterUnits="userSpaceOnUse" color-interpolation-filters="sRGB">
<feFlood flood-opacity="0" result="BackgroundImageFix"/>
<feBlend mode="normal" in="SourceGraphic" in2="BackgroundImageFix" result="shape"/>
<feGaussianBlur stdDeviation="33.0644" result="effect1_foregroundBlur_1179_70737"/>
</filter>
<filter id="filter12_f_1179_70737" x="1043.58" y="-36.9783" width="605.101" height="347.707" filterUnits="userSpaceOnUse" color-interpolation-filters="sRGB">
<feFlood flood-opacity="0" result="BackgroundImageFix"/>
<feBlend mode="normal" in="SourceGraphic" in2="BackgroundImageFix" result="shape"/>
<feGaussianBlur stdDeviation="33.0644" result="effect1_foregroundBlur_1179_70737"/>
</filter>
<filter id="filter13_f_1179_70737" x="174.043" y="-242.472" width="605.101" height="347.707" filterUnits="userSpaceOnUse" color-interpolation-filters="sRGB">
<feFlood flood-opacity="0" result="BackgroundImageFix"/>
<feBlend mode="normal" in="SourceGraphic" in2="BackgroundImageFix" result="shape"/>
<feGaussianBlur stdDeviation="33.0644" result="effect1_foregroundBlur_1179_70737"/>
</filter>
<filter id="filter14_f_1179_70737" x="287.035" y="-242.472" width="605.101" height="347.707" filterUnits="userSpaceOnUse" color-interpolation-filters="sRGB">
<feFlood flood-opacity="0" result="BackgroundImageFix"/>
<feBlend mode="normal" in="SourceGraphic" in2="BackgroundImageFix" result="shape"/>
<feGaussianBlur stdDeviation="33.0644" result="effect1_foregroundBlur_1179_70737"/>
</filter>
<filter id="filter15_f_1179_70737" x="619.477" y="-242.472" width="605.101" height="347.707" filterUnits="userSpaceOnUse" color-interpolation-filters="sRGB">
<feFlood flood-opacity="0" result="BackgroundImageFix"/>
<feBlend mode="normal" in="SourceGraphic" in2="BackgroundImageFix" result="shape"/>
<feGaussianBlur stdDeviation="33.0644" result="effect1_foregroundBlur_1179_70737"/>
</filter>
<filter id="filter16_f_1179_70737" x="655.903" y="-140.33" width="605.101" height="347.707" filterUnits="userSpaceOnUse" color-interpolation-filters="sRGB">
<feFlood flood-opacity="0" result="BackgroundImageFix"/>
<feBlend mode="normal" in="SourceGraphic" in2="BackgroundImageFix" result="shape"/>
<feGaussianBlur stdDeviation="33.0644" result="effect1_foregroundBlur_1179_70737"/>
</filter>
<filter id="filter17_f_1179_70737" x="733.778" y="-242.472" width="605.101" height="347.707" filterUnits="userSpaceOnUse" color-interpolation-filters="sRGB">
<feFlood flood-opacity="0" result="BackgroundImageFix"/>
<feBlend mode="normal" in="SourceGraphic" in2="BackgroundImageFix" result="shape"/>
<feGaussianBlur stdDeviation="33.0644" result="effect1_foregroundBlur_1179_70737"/>
</filter>
<filter id="filter18_f_1179_70737" x="852.012" y="-242.472" width="605.101" height="347.707" filterUnits="userSpaceOnUse" color-interpolation-filters="sRGB">
<feFlood flood-opacity="0" result="BackgroundImageFix"/>
<feBlend mode="normal" in="SourceGraphic" in2="BackgroundImageFix" result="shape"/>
<feGaussianBlur stdDeviation="33.0644" result="effect1_foregroundBlur_1179_70737"/>
</filter>
<filter id="filter19_f_1179_70737" x="965.004" y="-242.472" width="605.101" height="347.707" filterUnits="userSpaceOnUse" color-interpolation-filters="sRGB">
<feFlood flood-opacity="0" result="BackgroundImageFix"/>
<feBlend mode="normal" in="SourceGraphic" in2="BackgroundImageFix" result="shape"/>
<feGaussianBlur stdDeviation="33.0644" result="effect1_foregroundBlur_1179_70737"/>
</filter>
<filter id="filter20_f_1179_70737" x="432.985" y="-138.935" width="605.101" height="347.707" filterUnits="userSpaceOnUse" color-interpolation-filters="sRGB">
<feFlood flood-opacity="0" result="BackgroundImageFix"/>
<feBlend mode="normal" in="SourceGraphic" in2="BackgroundImageFix" result="shape"/>
<feGaussianBlur stdDeviation="33.0644" result="effect1_foregroundBlur_1179_70737"/>
</filter>
<filter id="filter21_f_1179_70737" x="1080.04" y="-138.935" width="605.101" height="347.707" filterUnits="userSpaceOnUse" color-interpolation-filters="sRGB">
<feFlood flood-opacity="0" result="BackgroundImageFix"/>
<feBlend mode="normal" in="SourceGraphic" in2="BackgroundImageFix" result="shape"/>
<feGaussianBlur stdDeviation="33.0644" result="effect1_foregroundBlur_1179_70737"/>
</filter>
<filter id="filter22_f_1179_70737" x="965.742" y="-138.935" width="605.101" height="347.707" filterUnits="userSpaceOnUse" color-interpolation-filters="sRGB">
<feFlood flood-opacity="0" result="BackgroundImageFix"/>
<feBlend mode="normal" in="SourceGraphic" in2="BackgroundImageFix" result="shape"/>
<feGaussianBlur stdDeviation="33.0644" result="effect1_foregroundBlur_1179_70737"/>
</filter>
<filter id="filter23_f_1179_70737" x="769.91" y="-140.332" width="605.101" height="347.707" filterUnits="userSpaceOnUse" color-interpolation-filters="sRGB">
<feFlood flood-opacity="0" result="BackgroundImageFix"/>
<feBlend mode="normal" in="SourceGraphic" in2="BackgroundImageFix" result="shape"/>
<feGaussianBlur stdDeviation="33.0644" result="effect1_foregroundBlur_1179_70737"/>
</filter>
<radialGradient id="paint0_radial_1179_70737" cx="0" cy="0" r="1" gradientUnits="userSpaceOnUse" gradientTransform="translate(590.143 419.345) rotate(180) scale(52.7805 28.6397)">
<stop stopColor="#121212" stop-opacity="0"/>
<stop offset="0.630208" stop-color="#121212" stop-opacity="0.35"/>
<stop offset="1" stop-color="#121212" stop-opacity="0.88"/>
</radialGradient>
<linearGradient id="paint1_linear_1179_70737" x1="478.444" y1="40.7807" x2="586.575" y2="403.889" gradientUnits="userSpaceOnUse">
<stop offset="0.25" stop-color="#39617D" stop-opacity="0.32"/>
<stop offset="0.630208" stop-color="#00DED1" stop-opacity="0.12"/>
<stop offset="1" stop-color="#343434" stop-opacity="0.51"/>
</linearGradient>
<linearGradient id="paint2_linear_1179_70737" x1="630.305" y1="376.429" x2="534.006" y2="461.142" gradientUnits="userSpaceOnUse">
<stop stopColor="#2E2E2E"/>
<stop offset="1" stop-color="#232323"/>
</linearGradient>
<radialGradient id="paint3_radial_1179_70737" cx="0" cy="0" r="1" gradientUnits="userSpaceOnUse" gradientTransform="translate(703.139 419.345) rotate(180) scale(52.7805 28.6397)">
<stop stopColor="#121212" stop-opacity="0"/>
<stop offset="0.630208" stop-color="#121212" stop-opacity="0.35"/>
<stop offset="1" stop-color="#121212" stop-opacity="0.88"/>
</radialGradient>
<linearGradient id="paint4_linear_1179_70737" x1="591.444" y1="40.7807" x2="699.575" y2="403.889" gradientUnits="userSpaceOnUse">
<stop offset="0.25" stop-color="#39617D" stop-opacity="0.32"/>
<stop offset="0.630208" stop-color="#00DED1" stop-opacity="0.12"/>
<stop offset="1" stop-color="#343434" stop-opacity="0.51"/>
</linearGradient>
<linearGradient id="paint5_linear_1179_70737" x1="743.297" y1="376.429" x2="646.998" y2="461.142" gradientUnits="userSpaceOnUse">
<stop stopColor="#2E2E2E"/>
<stop offset="1" stop-color="#232323"/>
</linearGradient>
<radialGradient id="paint6_radial_1179_70737" cx="0" cy="0" r="1" gradientUnits="userSpaceOnUse" gradientTransform="translate(1041.12 419.345) rotate(180) scale(52.7805 28.6397)">
<stop stopColor="#121212" stop-opacity="0"/>
<stop offset="0.630208" stop-color="#121212" stop-opacity="0.35"/>
<stop offset="1" stop-color="#121212" stop-opacity="0.88"/>
</radialGradient>
<linearGradient id="paint7_linear_1179_70737" x1="929.425" y1="40.7807" x2="1037.56" y2="403.889" gradientUnits="userSpaceOnUse">
<stop offset="0.25" stop-color="#39617D" stop-opacity="0.32"/>
<stop offset="0.630208" stop-color="#00DED1" stop-opacity="0.12"/>
<stop offset="1" stop-color="#343434" stop-opacity="0.51"/>
</linearGradient>
<linearGradient id="paint8_linear_1179_70737" x1="1081.28" y1="376.429" x2="984.978" y2="461.142" gradientUnits="userSpaceOnUse">
<stop stopColor="#2E2E2E"/>
<stop offset="1" stop-color="#232323"/>
</linearGradient>
<radialGradient id="paint9_radial_1179_70737" cx="0" cy="0" r="1" gradientUnits="userSpaceOnUse" gradientTransform="translate(1155.12 419.345) rotate(180) scale(52.7805 28.6397)">
<stop stopColor="#121212" stop-opacity="0"/>
<stop offset="0.630208" stop-color="#121212" stop-opacity="0.35"/>
<stop offset="1" stop-color="#121212" stop-opacity="0.88"/>
</radialGradient>
<linearGradient id="paint10_linear_1179_70737" x1="1043.42" y1="40.7807" x2="1151.55" y2="403.889" gradientUnits="userSpaceOnUse">
<stop offset="0.25" stop-color="#39617D" stop-opacity="0.32"/>
<stop offset="0.630208" stop-color="#00DED1" stop-opacity="0.12"/>
<stop offset="1" stop-color="#343434" stop-opacity="0.51"/>
</linearGradient>
<linearGradient id="paint11_linear_1179_70737" x1="1195.27" y1="376.429" x2="1098.97" y2="461.142" gradientUnits="userSpaceOnUse">
<stop stopColor="#2E2E2E"/>
<stop offset="1" stop-color="#232323"/>
</linearGradient>
<radialGradient id="paint12_radial_1179_70737" cx="0" cy="0" r="1" gradientUnits="userSpaceOnUse" gradientTransform="translate(1381.11 419.345) rotate(180) scale(52.7805 28.6397)">
<stop stopColor="#121212" stop-opacity="0"/>
<stop offset="0.630208" stop-color="#121212" stop-opacity="0.35"/>
<stop offset="1" stop-color="#121212" stop-opacity="0.88"/>
</radialGradient>
<linearGradient id="paint13_linear_1179_70737" x1="1269.41" y1="40.7807" x2="1377.54" y2="403.889" gradientUnits="userSpaceOnUse">
<stop offset="0.25" stop-color="#39617D" stop-opacity="0.32"/>
<stop offset="0.630208" stop-color="#00DED1" stop-opacity="0.12"/>
<stop offset="1" stop-color="#343434" stop-opacity="0.51"/>
</linearGradient>
<linearGradient id="paint14_linear_1179_70737" x1="1421.27" y1="376.429" x2="1324.97" y2="461.142" gradientUnits="userSpaceOnUse">
<stop stopColor="#2E2E2E"/>
<stop offset="1" stop-color="#232323"/>
</linearGradient>
<radialGradient id="paint15_radial_1179_70737" cx="0" cy="0" r="1" gradientUnits="userSpaceOnUse" gradientTransform="translate(553.928 313.995) rotate(180) scale(52.7805 28.6397)">
<stop stopColor="#121212" stop-opacity="0"/>
<stop offset="0.630208" stop-color="#121212" stop-opacity="0.35"/>
<stop offset="1" stop-color="#121212" stop-opacity="0.88"/>
</radialGradient>
<linearGradient id="paint16_linear_1179_70737" x1="442.226" y1="-64.567" x2="550.356" y2="298.541" gradientUnits="userSpaceOnUse">
<stop offset="0.25" stop-color="#39617D" stop-opacity="0.32"/>
<stop offset="0.630208" stop-color="#00DED1" stop-opacity="0.12"/>
<stop offset="1" stop-color="#343434" stop-opacity="0.51"/>
</linearGradient>
<linearGradient id="paint17_linear_1179_70737" x1="594.082" y1="271.079" x2="497.783" y2="355.792" gradientUnits="userSpaceOnUse">
<stop stopColor="#2E2E2E"/>
<stop offset="1" stop-color="#232323"/>
</linearGradient>
<radialGradient id="paint18_radial_1179_70737" cx="0" cy="0" r="1" gradientUnits="userSpaceOnUse" gradientTransform="translate(666.928 313.995) rotate(180) scale(52.7805 28.6397)">
<stop stopColor="#121212" stop-opacity="0"/>
<stop offset="0.630208" stop-color="#121212" stop-opacity="0.35"/>
<stop offset="1" stop-color="#121212" stop-opacity="0.88"/>
</radialGradient>
<linearGradient id="paint19_linear_1179_70737" x1="555.226" y1="-64.567" x2="663.356" y2="298.541" gradientUnits="userSpaceOnUse">
<stop offset="0.25" stop-color="#39617D" stop-opacity="0.32"/>
<stop offset="0.630208" stop-color="#00DED1" stop-opacity="0.12"/>
<stop offset="1" stop-color="#343434" stop-opacity="0.51"/>
</linearGradient>
<linearGradient id="paint20_linear_1179_70737" x1="707.082" y1="271.079" x2="610.783" y2="355.792" gradientUnits="userSpaceOnUse">
<stop stopColor="#2E2E2E"/>
<stop offset="1" stop-color="#232323"/>
</linearGradient>
<radialGradient id="paint21_radial_1179_70737" cx="0" cy="0" r="1" gradientUnits="userSpaceOnUse" gradientTransform="translate(844.732 212.038) rotate(180) scale(52.7805 28.6397)">
<stop stopColor="#121212" stop-opacity="0"/>
<stop offset="0.630208" stop-color="#121212" stop-opacity="0.35"/>
<stop offset="1" stop-color="#121212" stop-opacity="0.88"/>
</radialGradient>
<linearGradient id="paint22_linear_1179_70737" x1="733.03" y1="-166.524" x2="841.16" y2="196.584" gradientUnits="userSpaceOnUse">
<stop offset="0.25" stop-color="#39617D" stop-opacity="0.32"/>
<stop offset="0.630208" stop-color="#00DED1" stop-opacity="0.12"/>
<stop offset="1" stop-color="#343434" stop-opacity="0.51"/>
</linearGradient>
<linearGradient id="paint23_linear_1179_70737" x1="819.515" y1="198.613" x2="864.577" y2="198.613" gradientUnits="userSpaceOnUse">
<stop stopColor="#F4FFFA"/>
<stop offset="1" stop-color="#D8FFEC" stop-opacity="0.6"/>
</linearGradient>
<linearGradient id="paint24_linear_1179_70737" x1="884.883" y1="169.122" x2="788.584" y2="253.835" gradientUnits="userSpaceOnUse">
<stop stopColor="#2E2E2E"/>
<stop offset="1" stop-color="#232323"/>
</linearGradient>
<radialGradient id="paint25_radial_1179_70737" cx="0" cy="0" r="1" gradientUnits="userSpaceOnUse" gradientTransform="translate(892.916 313.995) rotate(180) scale(52.7805 28.6397)">
<stop stopColor="#121212" stop-opacity="0"/>
<stop offset="0.630208" stop-color="#121212" stop-opacity="0.35"/>
<stop offset="1" stop-color="#121212" stop-opacity="0.88"/>
</radialGradient>
<linearGradient id="paint26_linear_1179_70737" x1="781.21" y1="-64.567" x2="889.34" y2="298.541" gradientUnits="userSpaceOnUse">
<stop offset="0.25" stop-color="#39617D" stop-opacity="0.32"/>
<stop offset="0.630208" stop-color="#00DED1" stop-opacity="0.12"/>
<stop offset="1" stop-color="#343434" stop-opacity="0.51"/>
</linearGradient>
<linearGradient id="paint27_linear_1179_70737" x1="933.066" y1="271.079" x2="836.767" y2="355.792" gradientUnits="userSpaceOnUse">
<stop stopColor="#2E2E2E"/>
<stop offset="1" stop-color="#232323"/>
</linearGradient>
<radialGradient id="paint28_radial_1179_70737" cx="0" cy="0" r="1" gradientUnits="userSpaceOnUse" gradientTransform="translate(1005.92 313.995) rotate(180) scale(52.7805 28.6397)">
<stop stopColor="#121212" stop-opacity="0"/>
<stop offset="0.630208" stop-color="#121212" stop-opacity="0.35"/>
<stop offset="1" stop-color="#121212" stop-opacity="0.88"/>
</radialGradient>
<linearGradient id="paint29_linear_1179_70737" x1="894.218" y1="-64.567" x2="1002.35" y2="298.541" gradientUnits="userSpaceOnUse">
<stop offset="0.25" stop-color="#39617D" stop-opacity="0.32"/>
<stop offset="0.630208" stop-color="#00DED1" stop-opacity="0.12"/>
<stop offset="1" stop-color="#343434" stop-opacity="0.51"/>
</linearGradient>
<linearGradient id="paint30_linear_1179_70737" x1="992.077" y1="324.946" x2="1003.19" y2="324.946" gradientUnits="userSpaceOnUse">
<stop stopColor="#F4FFFA"/>
<stop offset="1" stop-color="#D8FFEC" stop-opacity="0.6"/>
</linearGradient>
<linearGradient id="paint31_linear_1179_70737" x1="1046.07" y1="271.079" x2="949.771" y2="355.792" gradientUnits="userSpaceOnUse">
<stop stopColor="#2E2E2E"/>
<stop offset="1" stop-color="#232323"/>
</linearGradient>
<radialGradient id="paint32_radial_1179_70737" cx="0" cy="0" r="1" gradientUnits="userSpaceOnUse" gradientTransform="translate(1118.91 313.995) rotate(180) scale(52.7805 28.6397)">
<stop stopColor="#121212" stop-opacity="0"/>
<stop offset="0.630208" stop-color="#121212" stop-opacity="0.35"/>
<stop offset="1" stop-color="#121212" stop-opacity="0.88"/>
</radialGradient>
<linearGradient id="paint33_linear_1179_70737" x1="1007.21" y1="-64.567" x2="1115.34" y2="298.541" gradientUnits="userSpaceOnUse">
<stop offset="0.25" stop-color="#39617D" stop-opacity="0.32"/>
<stop offset="0.630208" stop-color="#00DED1" stop-opacity="0.12"/>
<stop offset="1" stop-color="#343434" stop-opacity="0.51"/>
</linearGradient>
<linearGradient id="paint34_linear_1179_70737" x1="1159.06" y1="271.079" x2="1062.76" y2="355.792" gradientUnits="userSpaceOnUse">
<stop stopColor="#2E2E2E"/>
<stop offset="1" stop-color="#232323"/>
</linearGradient>
<radialGradient id="paint35_radial_1179_70737" cx="0" cy="0" r="1" gradientUnits="userSpaceOnUse" gradientTransform="translate(1231.9 313.995) rotate(180) scale(52.7805 28.6397)">
<stop stopColor="#121212" stop-opacity="0"/>
<stop offset="0.630208" stop-color="#121212" stop-opacity="0.35"/>
<stop offset="1" stop-color="#121212" stop-opacity="0.88"/>
</radialGradient>
<linearGradient id="paint36_linear_1179_70737" x1="1120.19" y1="-64.567" x2="1228.32" y2="298.541" gradientUnits="userSpaceOnUse">
<stop offset="0.25" stop-color="#39617D" stop-opacity="0.32"/>
<stop offset="0.630208" stop-color="#00DED1" stop-opacity="0.12"/>
<stop offset="1" stop-color="#343434" stop-opacity="0.51"/>
</linearGradient>
<linearGradient id="paint37_linear_1179_70737" x1="1216.9" y1="325.603" x2="1229.54" y2="325.603" gradientUnits="userSpaceOnUse">
<stop stopColor="#F4FFFA"/>
<stop offset="1" stop-color="#D8FFEC" stop-opacity="0.6"/>
</linearGradient>
<linearGradient id="paint38_linear_1179_70737" x1="1272.05" y1="271.079" x2="1175.76" y2="355.792" gradientUnits="userSpaceOnUse">
<stop stopColor="#2E2E2E"/>
<stop offset="1" stop-color="#232323"/>
</linearGradient>
<radialGradient id="paint39_radial_1179_70737" cx="0" cy="0" r="1" gradientUnits="userSpaceOnUse" gradientTransform="translate(1344.9 313.995) rotate(180) scale(52.7805 28.6397)">
<stop stopColor="#121212" stop-opacity="0"/>
<stop offset="0.630208" stop-color="#121212" stop-opacity="0.35"/>
<stop offset="1" stop-color="#121212" stop-opacity="0.88"/>
</radialGradient>
<linearGradient id="paint40_linear_1179_70737" x1="1233.2" y1="-64.567" x2="1341.33" y2="298.541" gradientUnits="userSpaceOnUse">
<stop offset="0.25" stop-color="#39617D" stop-opacity="0.32"/>
<stop offset="0.630208" stop-color="#00DED1" stop-opacity="0.12"/>
<stop offset="1" stop-color="#343434" stop-opacity="0.51"/>
</linearGradient>
<linearGradient id="paint41_linear_1179_70737" x1="1385.05" y1="271.079" x2="1288.76" y2="355.792" gradientUnits="userSpaceOnUse">
<stop stopColor="#2E2E2E"/>
<stop offset="1" stop-color="#232323"/>
</linearGradient>
<radialGradient id="paint42_radial_1179_70737" cx="0" cy="0" r="1" gradientUnits="userSpaceOnUse" gradientTransform="translate(475.357 108.501) rotate(180) scale(52.7805 28.6397)">
<stop stopColor="#121212" stop-opacity="0"/>
<stop offset="0.630208" stop-color="#121212" stop-opacity="0.35"/>
<stop offset="1" stop-color="#121212" stop-opacity="0.88"/>
</radialGradient>
<linearGradient id="paint43_linear_1179_70737" x1="363.659" y1="-270.061" x2="471.789" y2="93.0469" gradientUnits="userSpaceOnUse">
<stop offset="0.25" stop-color="#39617D" stop-opacity="0.32"/>
<stop offset="0.630208" stop-color="#00DED1" stop-opacity="0.12"/>
<stop offset="1" stop-color="#343434" stop-opacity="0.51"/>
</linearGradient>
<linearGradient id="paint44_linear_1179_70737" x1="515.512" y1="65.5853" x2="419.213" y2="150.298" gradientUnits="userSpaceOnUse">
<stop stopColor="#2E2E2E"/>
<stop offset="1" stop-color="#232323"/>
</linearGradient>
<radialGradient id="paint45_radial_1179_70737" cx="0" cy="0" r="1" gradientUnits="userSpaceOnUse" gradientTransform="translate(588.353 108.501) rotate(180) scale(52.7805 28.6397)">
<stop stopColor="#121212" stop-opacity="0"/>
<stop offset="0.630208" stop-color="#121212" stop-opacity="0.35"/>
<stop offset="1" stop-color="#121212" stop-opacity="0.88"/>
</radialGradient>
<linearGradient id="paint46_linear_1179_70737" x1="476.651" y1="-270.061" x2="584.782" y2="93.0469" gradientUnits="userSpaceOnUse">
<stop offset="0.25" stop-color="#39617D" stop-opacity="0.32"/>
<stop offset="0.630208" stop-color="#00DED1" stop-opacity="0.12"/>
<stop offset="1" stop-color="#343434" stop-opacity="0.51"/>
</linearGradient>
<linearGradient id="paint47_linear_1179_70737" x1="628.508" y1="65.5853" x2="532.209" y2="150.298" gradientUnits="userSpaceOnUse">
<stop stopColor="#2E2E2E"/>
<stop offset="1" stop-color="#232323"/>
</linearGradient>
<radialGradient id="paint48_radial_1179_70737" cx="0" cy="0" r="1" gradientUnits="userSpaceOnUse" gradientTransform="translate(920.791 108.501) rotate(180) scale(52.7805 28.6397)">
<stop stopColor="#121212" stop-opacity="0"/>
<stop offset="0.630208" stop-color="#121212" stop-opacity="0.35"/>
<stop offset="1" stop-color="#121212" stop-opacity="0.88"/>
</radialGradient>
<linearGradient id="paint49_linear_1179_70737" x1="809.093" y1="-270.061" x2="917.223" y2="93.0469" gradientUnits="userSpaceOnUse">
<stop offset="0.25" stop-color="#39617D" stop-opacity="0.32"/>
<stop offset="0.630208" stop-color="#00DED1" stop-opacity="0.12"/>
<stop offset="1" stop-color="#343434" stop-opacity="0.51"/>
</linearGradient>
<linearGradient id="paint50_linear_1179_70737" x1="897.251" y1="94.8848" x2="939.39" y2="94.8848" gradientUnits="userSpaceOnUse">
<stop stopColor="#F4FFFA"/>
<stop offset="1" stop-color="#D8FFEC" stop-opacity="0.6"/>
</linearGradient>
<linearGradient id="paint51_linear_1179_70737" x1="960.945" y1="65.5853" x2="864.646" y2="150.298" gradientUnits="userSpaceOnUse">
<stop stopColor="#2E2E2E"/>
<stop offset="1" stop-color="#232323"/>
</linearGradient>
<radialGradient id="paint52_radial_1179_70737" cx="0" cy="0" r="1" gradientUnits="userSpaceOnUse" gradientTransform="translate(957.221 210.643) rotate(180) scale(52.7805 28.6397)">
<stop stopColor="#121212" stop-opacity="0"/>
<stop offset="0.630208" stop-color="#121212" stop-opacity="0.35"/>
<stop offset="1" stop-color="#121212" stop-opacity="0.88"/>
</radialGradient>
<linearGradient id="paint53_linear_1179_70737" x1="845.518" y1="-167.919" x2="953.649" y2="195.19" gradientUnits="userSpaceOnUse">
<stop offset="0.25" stop-color="#39617D" stop-opacity="0.32"/>
<stop offset="0.630208" stop-color="#00DED1" stop-opacity="0.12"/>
<stop offset="1" stop-color="#343434" stop-opacity="0.51"/>
</linearGradient>
<linearGradient id="paint54_linear_1179_70737" x1="997.371" y1="167.728" x2="901.072" y2="252.44" gradientUnits="userSpaceOnUse">
<stop stopColor="#2E2E2E"/>
<stop offset="1" stop-color="#232323"/>
</linearGradient>
<radialGradient id="paint55_radial_1179_70737" cx="0" cy="0" r="1" gradientUnits="userSpaceOnUse" gradientTransform="translate(1035.1 108.501) rotate(180) scale(52.7805 28.6397)">
<stop stopColor="#121212" stop-opacity="0"/>
<stop offset="0.630208" stop-color="#121212" stop-opacity="0.35"/>
<stop offset="1" stop-color="#121212" stop-opacity="0.88"/>
</radialGradient>
<linearGradient id="paint56_linear_1179_70737" x1="923.393" y1="-270.061" x2="1031.52" y2="93.0469" gradientUnits="userSpaceOnUse">
<stop offset="0.25" stop-color="#39617D" stop-opacity="0.32"/>
<stop offset="0.630208" stop-color="#00DED1" stop-opacity="0.12"/>
<stop offset="1" stop-color="#343434" stop-opacity="0.51"/>
</linearGradient>
<linearGradient id="paint57_linear_1179_70737" x1="1075.24" y1="65.5853" x2="978.943" y2="150.298" gradientUnits="userSpaceOnUse">
<stop stopColor="#2E2E2E"/>
<stop offset="1" stop-color="#232323"/>
</linearGradient>
<radialGradient id="paint58_radial_1179_70737" cx="0" cy="0" r="1" gradientUnits="userSpaceOnUse" gradientTransform="translate(1153.33 108.501) rotate(180) scale(52.7805 28.6397)">
<stop stopColor="#121212" stop-opacity="0"/>
<stop offset="0.630208" stop-color="#121212" stop-opacity="0.35"/>
<stop offset="1" stop-color="#121212" stop-opacity="0.88"/>
</radialGradient>
<linearGradient id="paint59_linear_1179_70737" x1="1041.63" y1="-270.061" x2="1149.76" y2="93.0469" gradientUnits="userSpaceOnUse">
<stop offset="0.25" stop-color="#39617D" stop-opacity="0.32"/>
<stop offset="0.630208" stop-color="#00DED1" stop-opacity="0.12"/>
<stop offset="1" stop-color="#343434" stop-opacity="0.51"/>
</linearGradient>
<linearGradient id="paint60_linear_1179_70737" x1="1138.73" y1="119.347" x2="1150.85" y2="119.347" gradientUnits="userSpaceOnUse">
<stop stopColor="#F4FFFA"/>
<stop offset="1" stop-color="#D8FFEC" stop-opacity="0.6"/>
</linearGradient>
<linearGradient id="paint61_linear_1179_70737" x1="1193.48" y1="65.5853" x2="1097.19" y2="150.298" gradientUnits="userSpaceOnUse">
<stop stopColor="#2E2E2E"/>
<stop offset="1" stop-color="#232323"/>
</linearGradient>
<radialGradient id="paint62_radial_1179_70737" cx="0" cy="0" r="1" gradientUnits="userSpaceOnUse" gradientTransform="translate(1266.32 108.501) rotate(180) scale(52.7805 28.6397)">
<stop stopColor="#121212" stop-opacity="0"/>
<stop offset="0.630208" stop-color="#121212" stop-opacity="0.35"/>
<stop offset="1" stop-color="#121212" stop-opacity="0.88"/>
</radialGradient>
<linearGradient id="paint63_linear_1179_70737" x1="1154.62" y1="-270.061" x2="1262.75" y2="93.0469" gradientUnits="userSpaceOnUse">
<stop offset="0.25" stop-color="#39617D" stop-opacity="0.32"/>
<stop offset="0.630208" stop-color="#00DED1" stop-opacity="0.12"/>
<stop offset="1" stop-color="#343434" stop-opacity="0.51"/>
</linearGradient>
<linearGradient id="paint64_linear_1179_70737" x1="1306.48" y1="65.5853" x2="1210.18" y2="150.298" gradientUnits="userSpaceOnUse">
<stop stopColor="#2E2E2E"/>
<stop offset="1" stop-color="#232323"/>
</linearGradient>
<radialGradient id="paint65_radial_1179_70737" cx="0" cy="0" r="1" gradientUnits="userSpaceOnUse" gradientTransform="translate(734.303 212.038) rotate(180) scale(52.7805 28.6397)">
<stop stopColor="#121212" stop-opacity="0"/>
<stop offset="0.630208" stop-color="#121212" stop-opacity="0.35"/>
<stop offset="1" stop-color="#121212" stop-opacity="0.88"/>
</radialGradient>
<linearGradient id="paint66_linear_1179_70737" x1="622.601" y1="-166.524" x2="730.731" y2="196.584" gradientUnits="userSpaceOnUse">
<stop offset="0.25" stop-color="#39617D" stop-opacity="0.32"/>
<stop offset="0.630208" stop-color="#00DED1" stop-opacity="0.12"/>
<stop offset="1" stop-color="#343434" stop-opacity="0.51"/>
</linearGradient>
<linearGradient id="paint67_linear_1179_70737" x1="774.457" y1="169.122" x2="678.158" y2="253.835" gradientUnits="userSpaceOnUse">
<stop stopColor="#2E2E2E"/>
<stop offset="1" stop-color="#232323"/>
</linearGradient>
<radialGradient id="paint68_radial_1179_70737" cx="0" cy="0" r="1" gradientUnits="userSpaceOnUse" gradientTransform="translate(1381.35 212.038) rotate(180) scale(52.7805 28.6397)">
<stop stopColor="#121212" stop-opacity="0"/>
<stop offset="0.630208" stop-color="#121212" stop-opacity="0.35"/>
<stop offset="1" stop-color="#121212" stop-opacity="0.88"/>
</radialGradient>
<linearGradient id="paint69_linear_1179_70737" x1="1269.65" y1="-166.524" x2="1377.78" y2="196.584" gradientUnits="userSpaceOnUse">
<stop offset="0.25" stop-color="#39617D" stop-opacity="0.32"/>
<stop offset="0.630208" stop-color="#00DED1" stop-opacity="0.12"/>
<stop offset="1" stop-color="#343434" stop-opacity="0.51"/>
</linearGradient>
<linearGradient id="paint70_linear_1179_70737" x1="1421.51" y1="169.122" x2="1325.21" y2="253.835" gradientUnits="userSpaceOnUse">
<stop stopColor="#2E2E2E"/>
<stop offset="1" stop-color="#232323"/>
</linearGradient>
<radialGradient id="paint71_radial_1179_70737" cx="0" cy="0" r="1" gradientUnits="userSpaceOnUse" gradientTransform="translate(1267.06 212.038) rotate(180) scale(52.7805 28.6397)">
<stop stopColor="#121212" stop-opacity="0"/>
<stop offset="0.630208" stop-color="#121212" stop-opacity="0.35"/>
<stop offset="1" stop-color="#121212" stop-opacity="0.88"/>
</radialGradient>
<linearGradient id="paint72_linear_1179_70737" x1="1155.36" y1="-166.524" x2="1263.49" y2="196.584" gradientUnits="userSpaceOnUse">
<stop offset="0.25" stop-color="#39617D" stop-opacity="0.32"/>
<stop offset="0.630208" stop-color="#00DED1" stop-opacity="0.12"/>
<stop offset="1" stop-color="#343434" stop-opacity="0.51"/>
</linearGradient>
<linearGradient id="paint73_linear_1179_70737" x1="1307.22" y1="169.122" x2="1210.92" y2="253.835" gradientUnits="userSpaceOnUse">
<stop stopColor="#2E2E2E"/>
<stop offset="1" stop-color="#232323"/>
</linearGradient>
<radialGradient id="paint74_radial_1179_70737" cx="0" cy="0" r="1" gradientUnits="userSpaceOnUse" gradientTransform="translate(478.42 1.99501) rotate(180) scale(52.7805 28.6397)">
<stop stopColor="#121212" stop-opacity="0"/>
<stop offset="0.630208" stop-color="#121212" stop-opacity="0.35"/>
<stop offset="1" stop-color="#121212" stop-opacity="0.88"/>
</radialGradient>
<linearGradient id="paint75_linear_1179_70737" x1="518.586" y1="-40.9206" x2="422.287" y2="43.792" gradientUnits="userSpaceOnUse">
<stop stopColor="#2E2E2E"/>
<stop offset="1" stop-color="#232323"/>
</linearGradient>
<radialGradient id="paint76_radial_1179_70737" cx="0" cy="0" r="1" gradientUnits="userSpaceOnUse" gradientTransform="translate(591.428 1.99501) rotate(180) scale(52.7805 28.6397)">
<stop stopColor="#121212" stop-opacity="0"/>
<stop offset="0.630208" stop-color="#121212" stop-opacity="0.35"/>
<stop offset="1" stop-color="#121212" stop-opacity="0.88"/>
</radialGradient>
<linearGradient id="paint77_linear_1179_70737" x1="631.586" y1="-40.9206" x2="535.287" y2="43.792" gradientUnits="userSpaceOnUse">
<stop stopColor="#2E2E2E"/>
<stop offset="1" stop-color="#232323"/>
</linearGradient>
<radialGradient id="paint78_radial_1179_70737" cx="0" cy="0" r="1" gradientUnits="userSpaceOnUse" gradientTransform="translate(704.424 1.99501) rotate(180) scale(52.7805 28.6397)">
<stop stopColor="#121212" stop-opacity="0"/>
<stop offset="0.630208" stop-color="#121212" stop-opacity="0.35"/>
<stop offset="1" stop-color="#121212" stop-opacity="0.88"/>
</radialGradient>
<linearGradient id="paint79_linear_1179_70737" x1="744.578" y1="-40.9206" x2="648.279" y2="43.792" gradientUnits="userSpaceOnUse">
<stop stopColor="#2E2E2E"/>
<stop offset="1" stop-color="#232323"/>
</linearGradient>
<radialGradient id="paint80_radial_1179_70737" cx="0" cy="0" r="1" gradientUnits="userSpaceOnUse" gradientTransform="translate(930.412 1.99501) rotate(180) scale(52.7805 28.6397)">
<stop stopColor="#121212" stop-opacity="0"/>
<stop offset="0.630208" stop-color="#121212" stop-opacity="0.35"/>
<stop offset="1" stop-color="#121212" stop-opacity="0.88"/>
</radialGradient>
<linearGradient id="paint81_linear_1179_70737" x1="970.566" y1="-40.9206" x2="874.267" y2="43.792" gradientUnits="userSpaceOnUse">
<stop stopColor="#2E2E2E"/>
<stop offset="1" stop-color="#232323"/>
</linearGradient>
<radialGradient id="paint82_radial_1179_70737" cx="0" cy="0" r="1" gradientUnits="userSpaceOnUse" gradientTransform="translate(1043.4 1.99501) rotate(180) scale(52.7805 28.6397)">
<stop stopColor="#121212" stop-opacity="0"/>
<stop offset="0.630208" stop-color="#121212" stop-opacity="0.35"/>
<stop offset="1" stop-color="#121212" stop-opacity="0.88"/>
</radialGradient>
<linearGradient id="paint83_linear_1179_70737" x1="1083.56" y1="-40.9206" x2="987.264" y2="43.792" gradientUnits="userSpaceOnUse">
<stop stopColor="#2E2E2E"/>
<stop offset="1" stop-color="#232323"/>
</linearGradient>
<radialGradient id="paint84_radial_1179_70737" cx="0" cy="0" r="1" gradientUnits="userSpaceOnUse" gradientTransform="translate(1269.39 1.99501) rotate(180) scale(52.7805 28.6397)">
<stop stopColor="#121212" stop-opacity="0"/>
<stop offset="0.630208" stop-color="#121212" stop-opacity="0.35"/>
<stop offset="1" stop-color="#121212" stop-opacity="0.88"/>
</radialGradient>
<linearGradient id="paint85_linear_1179_70737" x1="1309.55" y1="-40.9206" x2="1213.25" y2="43.792" gradientUnits="userSpaceOnUse">
<stop stopColor="#2E2E2E"/>
<stop offset="1" stop-color="#232323"/>
</linearGradient>
<radialGradient id="paint86_radial_1179_70737" cx="0" cy="0" r="1" gradientUnits="userSpaceOnUse" gradientTransform="translate(1382.39 1.99501) rotate(180) scale(52.7805 28.6397)">
<stop stopColor="#121212" stop-opacity="0"/>
<stop offset="0.630208" stop-color="#121212" stop-opacity="0.35"/>
<stop offset="1" stop-color="#121212" stop-opacity="0.88"/>
</radialGradient>
<linearGradient id="paint87_linear_1179_70737" x1="1422.54" y1="-40.9206" x2="1326.24" y2="43.792" gradientUnits="userSpaceOnUse">
<stop stopColor="#2E2E2E"/>
<stop offset="1" stop-color="#232323"/>
</linearGradient>
<radialGradient id="paint88_radial_1179_70737" cx="0" cy="0" r="1" gradientUnits="userSpaceOnUse" gradientTransform="translate(1071.23 210.643) rotate(180) scale(52.7805 28.6397)">
<stop stopColor="#121212" stop-opacity="0"/>
<stop offset="0.630208" stop-color="#121212" stop-opacity="0.35"/>
<stop offset="1" stop-color="#121212" stop-opacity="0.88"/>
</radialGradient>
<linearGradient id="paint89_linear_1179_70737" x1="959.526" y1="-167.92" x2="1067.66" y2="195.188" gradientUnits="userSpaceOnUse">
<stop offset="0.25" stop-color="#39617D" stop-opacity="0.32"/>
<stop offset="0.630208" stop-color="#00DED1" stop-opacity="0.12"/>
<stop offset="1" stop-color="#343434" stop-opacity="0.51"/>
</linearGradient>
<linearGradient id="paint90_linear_1179_70737" x1="1057.01" y1="221.139" x2="1068.64" y2="221.139" gradientUnits="userSpaceOnUse">
<stop stopColor="#F4FFFA"/>
<stop offset="1" stop-color="#D8FFEC" stop-opacity="0.6"/>
</linearGradient>
<linearGradient id="paint91_linear_1179_70737" x1="1111.39" y1="167.728" x2="1015.09" y2="252.44" gradientUnits="userSpaceOnUse">
<stop stopColor="#2E2E2E"/>
<stop offset="1" stop-color="#232323"/>
</linearGradient>
<radialGradient id="paint92_radial_1179_70737" cx="0" cy="0" r="1" gradientUnits="userSpaceOnUse" gradientTransform="translate(1034.63 216.223) rotate(-180) scale(408.147 157.348)">
<stop stopColor="#121212" stop-opacity="0"/>
<stop offset="0.630208" stop-color="#121212" stop-opacity="0.35"/>
<stop offset="1" stop-color="#121212" stop-opacity="0.88"/>
</radialGradient>
<clipPath id="clip0_1179_70737">
<rect x="534.898" y="373.354" width="99.3675" height="91.6495" rx="7.84464" fill="white"/>
</clipPath>
<clipPath id="clip1_1179_70737">
<rect x="647.891" y="373.354" width="99.3675" height="91.6495" rx="7.84464" fill="white"/>
</clipPath>
<clipPath id="clip2_1179_70737">
<rect x="985.871" y="373.354" width="99.3675" height="91.6495" rx="7.84464" fill="white"/>
</clipPath>
<clipPath id="clip3_1179_70737">
<rect x="1099.87" y="373.354" width="99.3675" height="91.6495" rx="7.84464" fill="white"/>
</clipPath>
<clipPath id="clip4_1179_70737">
<rect x="1325.86" y="373.354" width="99.3675" height="91.6495" rx="7.84464" fill="white"/>
</clipPath>
<clipPath id="clip5_1179_70737">
<rect x="498.676" y="268.004" width="99.3675" height="91.6495" rx="7.84464" fill="white"/>
</clipPath>
<clipPath id="clip6_1179_70737">
<rect x="611.676" y="268.004" width="99.3675" height="91.6495" rx="7.84464" fill="white"/>
</clipPath>
<clipPath id="clip7_1179_70737">
<rect x="789.477" y="166.047" width="99.3675" height="91.6495" rx="7.84464" fill="white"/>
</clipPath>
<clipPath id="clip8_1179_70737">
<rect x="837.66" y="268.004" width="99.3675" height="91.6495" rx="7.84464" fill="white"/>
</clipPath>
<clipPath id="clip9_1179_70737">
<rect x="950.664" y="268.004" width="99.3675" height="91.6495" rx="7.84464" fill="white"/>
</clipPath>
<clipPath id="clip10_1179_70737">
<rect x="1063.66" y="268.004" width="99.3675" height="91.6495" rx="7.84464" fill="white"/>
</clipPath>
<clipPath id="clip11_1179_70737">
<rect x="1176.65" y="268.004" width="99.3675" height="91.6495" rx="7.84464" fill="white"/>
</clipPath>
<clipPath id="clip12_1179_70737">
<rect x="1289.65" y="268.004" width="99.3675" height="91.6495" rx="7.84464" fill="white"/>
</clipPath>
<clipPath id="clip13_1179_70737">
<rect x="420.105" y="62.5098" width="99.3675" height="91.6495" rx="7.84464" fill="white"/>
</clipPath>
<clipPath id="clip14_1179_70737">
<rect x="533.102" y="62.5098" width="99.3675" height="91.6495" rx="7.84464" fill="white"/>
</clipPath>
<clipPath id="clip15_1179_70737">
<rect x="865.539" y="62.5098" width="99.3675" height="91.6495" rx="7.84464" fill="white"/>
</clipPath>
<clipPath id="clip16_1179_70737">
<rect x="901.965" y="164.652" width="99.3675" height="91.6495" rx="7.84464" fill="white"/>
</clipPath>
<clipPath id="clip17_1179_70737">
<rect x="979.836" y="62.5098" width="99.3675" height="91.6495" rx="7.84464" fill="white"/>
</clipPath>
<clipPath id="clip18_1179_70737">
<rect x="1098.08" y="62.5098" width="99.3675" height="91.6495" rx="7.84464" fill="white"/>
</clipPath>
<clipPath id="clip19_1179_70737">
<rect x="1211.07" y="62.5098" width="99.3675" height="91.6495" rx="7.84464" fill="white"/>
</clipPath>
<clipPath id="clip20_1179_70737">
<rect x="679.051" y="166.047" width="99.3675" height="91.6495" rx="7.84464" fill="white"/>
</clipPath>
<clipPath id="clip21_1179_70737">
<rect x="1326.1" y="166.047" width="99.3675" height="91.6495" rx="7.84464" fill="white"/>
</clipPath>
<clipPath id="clip22_1179_70737">
<rect x="1211.81" y="166.047" width="99.3675" height="91.6495" rx="7.84464" fill="white"/>
</clipPath>
<clipPath id="clip23_1179_70737">
<rect x="423.18" y="-43.9961" width="99.3675" height="91.6495" rx="7.84464" fill="white"/>
</clipPath>
<clipPath id="clip24_1179_70737">
<rect x="536.18" y="-43.9961" width="99.3675" height="91.6495" rx="7.84464" fill="white"/>
</clipPath>
<clipPath id="clip25_1179_70737">
<rect x="649.172" y="-43.9961" width="99.3675" height="91.6495" rx="7.84464" fill="white"/>
</clipPath>
<clipPath id="clip26_1179_70737">
<rect x="875.16" y="-43.9961" width="99.3675" height="91.6495" rx="7.84464" fill="white"/>
</clipPath>
<clipPath id="clip27_1179_70737">
<rect x="988.156" y="-43.9961" width="99.3675" height="91.6495" rx="7.84464" fill="white"/>
</clipPath>
<clipPath id="clip28_1179_70737">
<rect x="1214.14" y="-43.9961" width="99.3675" height="91.6495" rx="7.84464" fill="white"/>
</clipPath>
<clipPath id="clip29_1179_70737">
<rect x="1327.14" y="-43.9961" width="99.3675" height="91.6495" rx="7.84464" fill="white"/>
</clipPath>
<clipPath id="clip30_1179_70737">
<rect x="1015.98" y="164.652" width="99.3675" height="91.6495" rx="7.84464" fill="white"/>
</clipPath>
</defs>
</svg>
