<svg width="1385" height="400" viewBox="0 0 1385 400" fill="none" xmlns="http://www.w3.org/2000/svg">
<rect x="-22.9648" y="-8.55469" width="1438.28" height="419.234" fill="#131313"/>
<g clip-path="url(#clip0_1183_85448)">
<rect x="534.957" y="373.354" width="99.3655" height="91.6495" rx="7.84464" fill="#121212"/>
<path d="M525.883 349.689H633.045V466.237H525.883V349.689Z" fill="url(#paint0_radial_1183_85448)"/>
<g filter="url(#filter0_f_1183_85448)">
<ellipse cx="591.437" cy="242.223" rx="236.421" ry="107.725" fill="url(#paint1_linear_1183_85448)"/>
</g>
</g>
<rect x="535.202" y="373.599" width="98.8752" height="91.1592" rx="7.59949" stroke="url(#paint2_linear_1183_85448)" stroke-width="0.49029"/>
<g clip-path="url(#clip1_1183_85448)">
<rect x="647.945" y="373.354" width="99.3655" height="91.6495" rx="7.84464" fill="#121212"/>
<path d="M638.875 349.689H746.037V466.237H638.875V349.689Z" fill="url(#paint3_radial_1183_85448)"/>
<g filter="url(#filter1_f_1183_85448)">
<ellipse cx="704.433" cy="242.223" rx="236.421" ry="107.725" fill="url(#paint4_linear_1183_85448)"/>
</g>
</g>
<rect x="648.19" y="373.599" width="98.8752" height="91.1592" rx="7.59949" stroke="url(#paint5_linear_1183_85448)" stroke-width="0.49029"/>
<g clip-path="url(#clip2_1183_85448)">
<rect x="985.922" y="373.354" width="99.3655" height="91.6495" rx="7.84464" fill="#121212"/>
<path d="M976.848 349.689H1084.01V466.237H976.848V349.689Z" fill="url(#paint6_radial_1183_85448)"/>
<g filter="url(#filter2_f_1183_85448)">
<ellipse cx="1042.41" cy="242.223" rx="236.421" ry="107.725" fill="url(#paint7_linear_1183_85448)"/>
</g>
</g>
<rect x="986.167" y="373.599" width="98.8752" height="91.1592" rx="7.59949" stroke="url(#paint8_linear_1183_85448)" stroke-width="0.49029"/>
<g clip-path="url(#clip3_1183_85448)">
<rect x="1099.91" y="373.354" width="99.3655" height="91.6495" rx="7.84464" fill="#121212"/>
<path d="M1090.84 349.689H1198.01V466.237H1090.84V349.689Z" fill="url(#paint9_radial_1183_85448)"/>
<g filter="url(#filter3_f_1183_85448)">
<ellipse cx="1156.4" cy="242.223" rx="236.421" ry="107.725" fill="url(#paint10_linear_1183_85448)"/>
</g>
</g>
<rect x="1100.16" y="373.599" width="98.8752" height="91.1592" rx="7.59949" stroke="url(#paint11_linear_1183_85448)" stroke-width="0.49029"/>
<g clip-path="url(#clip4_1183_85448)">
<rect x="1325.91" y="373.354" width="99.3655" height="91.6495" rx="7.84464" fill="#121212"/>
<path d="M1316.84 349.689H1424V466.237H1316.84V349.689Z" fill="url(#paint12_radial_1183_85448)"/>
<g filter="url(#filter4_f_1183_85448)">
<ellipse cx="1382.39" cy="242.223" rx="236.421" ry="107.725" fill="url(#paint13_linear_1183_85448)"/>
</g>
</g>
<rect x="1326.15" y="373.599" width="98.8752" height="91.1592" rx="7.59949" stroke="url(#paint14_linear_1183_85448)" stroke-width="0.49029"/>
<g clip-path="url(#clip5_1183_85448)">
<rect x="498.738" y="268.004" width="99.3655" height="91.6495" rx="7.84464" fill="#121212"/>
<path d="M489.672 244.34H596.834V360.887H489.672V244.34Z" fill="url(#paint15_radial_1183_85448)"/>
<g filter="url(#filter5_f_1183_85448)">
<ellipse cx="555.222" cy="136.875" rx="236.421" ry="107.725" fill="url(#paint16_linear_1183_85448)"/>
</g>
</g>
<rect x="498.983" y="268.249" width="98.8752" height="91.1592" rx="7.59949" stroke="url(#paint17_linear_1183_85448)" stroke-width="0.49029"/>
<g clip-path="url(#clip6_1183_85448)">
<rect x="611.734" y="268.004" width="99.3655" height="91.6495" rx="7.84464" fill="#121212"/>
<path d="M602.668 244.34H709.83V360.887H602.668V244.34Z" fill="url(#paint18_radial_1183_85448)"/>
<g filter="url(#filter6_f_1183_85448)">
<ellipse cx="668.218" cy="136.875" rx="236.421" ry="107.725" fill="url(#paint19_linear_1183_85448)"/>
</g>
</g>
<rect x="611.98" y="268.249" width="98.8752" height="91.1592" rx="7.59949" stroke="url(#paint20_linear_1183_85448)" stroke-width="0.49029"/>
<g clip-path="url(#clip7_1183_85448)">
<rect x="789.527" y="166.047" width="99.3655" height="91.6495" rx="7.84464" fill="#121212"/>
<circle cx="857.589" cy="201.63" r="0.73958" transform="rotate(-180 857.589 201.63)" fill="#73867C"/>
<circle cx="867.393" cy="186.432" r="0.73958" transform="rotate(-180 867.393 186.432)" fill="#73867C"/>
<ellipse cx="811.005" cy="190.349" rx="0.245145" ry="0.245145" transform="rotate(-180 811.005 190.349)" fill="#73867C"/>
<circle cx="810.522" cy="200.159" r="0.73958" transform="rotate(-180 810.522 200.159)" fill="#73867C"/>
<ellipse cx="802.181" cy="201.626" rx="0.245145" ry="0.245145" transform="rotate(-180 802.181 201.626)" fill="#73867C"/>
<circle cx="799.733" cy="196.727" r="0.73958" transform="rotate(-180 799.733 196.727)" fill="#73867C"/>
<circle cx="800.714" cy="222.712" r="0.73958" transform="rotate(-180 800.714 222.712)" fill="#73867C"/>
<circle cx="795.811" cy="213.397" r="0.73958" transform="rotate(-180 795.811 213.397)" fill="#73867C"/>
<circle cx="809.542" cy="213.397" r="0.73958" transform="rotate(-180 809.542 213.397)" fill="#73867C"/>
<circle cx="833.561" cy="226.145" r="0.73958" transform="rotate(-180 833.561 226.145)" fill="#73867C"/>
<circle cx="820.323" cy="224.184" r="0.73958" transform="rotate(-180 820.323 224.184)" fill="#73867C"/>
<ellipse cx="859.052" cy="237.907" rx="0.245145" ry="0.245145" transform="rotate(-180 859.052 237.907)" fill="#73867C"/>
<ellipse rx="0.245145" ry="0.245145" transform="matrix(-1 -8.18178e-08 -8.18178e-08 1 813.95 232.513)" fill="#73867C"/>
<ellipse rx="0.245145" ry="0.245145" transform="matrix(-1 -8.18178e-08 -8.18178e-08 1 822.286 226.63)" fill="#73867C"/>
<ellipse rx="0.245145" ry="0.245145" transform="matrix(-1 -8.18178e-08 -8.18178e-08 1 815.911 225.159)" fill="#73867C"/>
<circle cx="863.148" cy="223.368" r="0.73958" transform="rotate(-75 863.148 223.368)" fill="#73867C"/>
<circle cx="842.066" cy="234.645" r="0.73958" transform="rotate(-75 842.066 234.645)" fill="#73867C"/>
<circle cx="872.344" cy="198.363" r="0.267292" transform="rotate(105 872.344 198.363)" fill="#73867C"/>
<ellipse cx="846.306" cy="219.276" rx="0.245145" ry="0.245145" transform="rotate(-180 846.306 219.276)" fill="#73867C"/>
<circle cx="864.604" cy="229.608" r="0.73958" transform="rotate(-180 864.604 229.608)" fill="#73867C"/>
<circle cx="878.039" cy="215.206" r="0.73958" transform="rotate(-75 878.039 215.206)" fill="#73867C"/>
<path d="M780.465 142.383H887.627V258.93H780.465V142.383Z" fill="url(#paint21_radial_1183_85448)"/>
<g filter="url(#filter7_f_1183_85448)">
<ellipse cx="846.015" cy="34.9182" rx="236.421" ry="107.725" fill="url(#paint22_linear_1183_85448)"/>
</g>
<path fill-rule="evenodd" clip-rule="evenodd" d="M842.158 220.56C845.33 219.443 847.613 216.445 847.613 212.919C847.613 208.442 843.942 204.8 839.43 204.8C834.917 204.8 831.247 208.442 831.247 212.919C831.247 216.729 833.909 219.924 837.481 220.793V221.59C833.47 220.707 830.467 217.165 830.467 212.919C830.467 208.008 834.48 204.026 839.43 204.026C844.38 204.026 848.392 208.008 848.392 212.919C848.392 216.885 845.772 220.239 842.158 221.384V220.56ZM839.43 208.666C837.066 208.666 835.143 210.574 835.143 212.919C835.143 214.566 836.098 215.987 837.481 216.692V217.552C835.652 216.795 834.364 215.009 834.364 212.919C834.364 210.143 836.632 207.893 839.43 207.893C842.228 207.893 844.496 210.143 844.496 212.919C844.496 214.696 843.56 216.25 842.158 217.144V216.182C843.105 215.401 843.716 214.234 843.716 212.919C843.716 210.574 841.794 208.666 839.43 208.666ZM825.012 212.919C825.012 217.942 827.626 222.352 831.573 224.905C831.812 224.75 832.056 224.605 832.303 224.464C832.48 224.365 832.659 224.269 832.84 224.177C833.057 224.066 833.277 223.961 833.5 223.861C833.722 223.761 833.946 223.669 834.175 223.58C834.36 223.508 834.547 223.44 834.737 223.375C835.001 223.285 835.269 223.202 835.541 223.126C835.745 223.07 835.951 223.017 836.159 222.969C836.369 222.92 836.58 222.874 836.795 222.835C837.022 222.793 837.251 222.754 837.481 222.722C837.74 222.696 837.998 222.665 838.261 222.644V221.728V220.946V217.806V217.007V214.079H837.481V212.532H838.261H840.599H841.378V216.703V217.559V220.797V221.595V222.721C843.535 223.021 845.541 223.776 847.285 224.904C851.234 222.352 853.848 217.942 853.848 212.919C853.848 205.018 847.392 198.613 839.43 198.613C831.467 198.613 825.012 205.018 825.012 212.919Z" fill="url(#paint23_linear_1183_85448)"/>
</g>
<rect x="789.772" y="166.292" width="98.8752" height="91.1592" rx="7.59949" stroke="url(#paint24_linear_1183_85448)" stroke-width="0.49029"/>
<g clip-path="url(#clip8_1183_85448)">
<rect x="837.715" y="268.004" width="99.3655" height="91.6495" rx="7.84464" fill="#121212"/>
<path d="M828.652 244.34H935.815V360.887H828.652V244.34Z" fill="url(#paint25_radial_1183_85448)"/>
<g filter="url(#filter8_f_1183_85448)">
<ellipse cx="894.199" cy="136.875" rx="236.421" ry="107.725" fill="url(#paint26_linear_1183_85448)"/>
</g>
</g>
<rect x="837.96" y="268.249" width="98.8752" height="91.1592" rx="7.59949" stroke="url(#paint27_linear_1183_85448)" stroke-width="0.49029"/>
<g clip-path="url(#clip9_1183_85448)">
<rect x="950.715" y="268.004" width="99.3655" height="91.6495" rx="7.84464" fill="#121212"/>
<circle cx="1018.77" cy="303.587" r="0.73958" transform="rotate(-180 1018.77 303.587)" fill="#73867C"/>
<circle cx="1028.58" cy="288.389" r="0.73958" transform="rotate(-180 1028.58 288.389)" fill="#73867C"/>
<ellipse cx="972.188" cy="292.306" rx="0.245145" ry="0.245145" transform="rotate(-180 972.188 292.306)" fill="#73867C"/>
<circle cx="971.706" cy="302.116" r="0.73958" transform="rotate(-180 971.706 302.116)" fill="#73867C"/>
<ellipse cx="963.364" cy="303.583" rx="0.245145" ry="0.245145" transform="rotate(-180 963.364 303.583)" fill="#73867C"/>
<circle cx="960.917" cy="298.684" r="0.73958" transform="rotate(-180 960.917 298.684)" fill="#73867C"/>
<circle cx="961.897" cy="324.669" r="0.73958" transform="rotate(-180 961.897 324.669)" fill="#73867C"/>
<circle cx="956.995" cy="315.354" r="0.73958" transform="rotate(-180 956.995 315.354)" fill="#73867C"/>
<circle cx="970.725" cy="315.354" r="0.73958" transform="rotate(-180 970.725 315.354)" fill="#73867C"/>
<circle cx="994.745" cy="328.102" r="0.73958" transform="rotate(-180 994.745 328.102)" fill="#73867C"/>
<circle cx="981.507" cy="326.141" r="0.73958" transform="rotate(-180 981.507 326.141)" fill="#73867C"/>
<ellipse cx="1020.24" cy="339.864" rx="0.245145" ry="0.245145" transform="rotate(-180 1020.24 339.864)" fill="#73867C"/>
<ellipse rx="0.245145" ry="0.245145" transform="matrix(-1 -8.18178e-08 -8.18178e-08 1 975.134 334.47)" fill="#73867C"/>
<ellipse rx="0.245145" ry="0.245145" transform="matrix(-1 -8.18178e-08 -8.18178e-08 1 983.47 328.587)" fill="#73867C"/>
<ellipse rx="0.245145" ry="0.245145" transform="matrix(-1 -8.18178e-08 -8.18178e-08 1 977.095 327.116)" fill="#73867C"/>
<circle cx="1024.33" cy="325.325" r="0.73958" transform="rotate(-75 1024.33 325.325)" fill="#73867C"/>
<circle cx="1003.25" cy="336.602" r="0.73958" transform="rotate(-75 1003.25 336.602)" fill="#73867C"/>
<circle cx="1033.53" cy="300.32" r="0.267292" transform="rotate(105 1033.53 300.32)" fill="#73867C"/>
<ellipse cx="1007.49" cy="321.233" rx="0.245145" ry="0.245145" transform="rotate(-180 1007.49 321.233)" fill="#73867C"/>
<circle cx="1025.79" cy="331.565" r="0.73958" transform="rotate(-180 1025.79 331.565)" fill="#73867C"/>
<circle cx="1039.22" cy="317.163" r="0.73958" transform="rotate(-75 1039.22 317.163)" fill="#73867C"/>
<path d="M941.648 244.34H1048.81V360.887H941.648V244.34Z" fill="url(#paint28_radial_1183_85448)"/>
<g filter="url(#filter9_f_1183_85448)">
<ellipse cx="1007.2" cy="136.875" rx="236.421" ry="107.725" fill="url(#paint29_linear_1183_85448)"/>
</g>
<path fill-rule="evenodd" clip-rule="evenodd" d="M1001.12 298.439H1000.38L987.02 302.574C987.298 321.652 996.042 328.017 1000.38 328.815H1001.12C1012.02 325.368 1014.36 309.885 1014.17 302.574L1001.12 298.439ZM1007.12 313.541C1007.12 316.927 1004.37 319.673 1000.98 319.673C997.598 319.673 994.853 316.927 994.853 313.541C994.853 310.154 997.598 307.408 1000.98 307.408C1004.37 307.408 1007.12 310.154 1007.12 313.541ZM996.488 311.904C996.488 310.695 997.253 309.636 998.43 309.215C998.975 309.021 999.938 309.069 1000.49 309.318C1001.84 309.931 1002.51 311.533 1002.01 312.931L1001.9 313.245L1002.7 314.072C1003.14 314.528 1003.75 315.163 1004.05 315.484L1004.61 316.067L1004.59 316.625L1004.57 317.183L1003.63 317.203C1002.76 317.221 1002.67 317.211 1002.54 317.078C1002.45 316.983 1002.4 316.839 1002.4 316.662C1002.4 316.328 1002.3 316.22 1001.99 316.22C1001.6 316.22 1001.47 316.113 1001.47 315.789C1001.47 315.4 1001.28 315.221 1000.87 315.221C1000.62 315.221 1000.49 315.17 1000.23 314.971C999.921 314.735 999.874 314.722 999.346 314.722C998.647 314.722 998.264 314.607 997.717 314.235C996.961 313.72 996.488 312.824 996.488 311.904ZM998.988 310.991C998.988 311.307 998.731 311.563 998.415 311.563C998.099 311.563 997.842 311.307 997.842 310.991C997.842 310.674 998.099 310.418 998.415 310.418C998.731 310.418 998.988 310.674 998.988 310.991Z" fill="url(#paint30_linear_1183_85448)"/>
</g>
<rect x="950.96" y="268.249" width="98.8752" height="91.1592" rx="7.59949" stroke="url(#paint31_linear_1183_85448)" stroke-width="0.49029"/>
<g clip-path="url(#clip10_1183_85448)">
<rect x="1063.71" y="268.004" width="99.3655" height="91.6495" rx="7.84464" fill="#121212"/>
<path d="M1054.64 244.34H1161.8V360.887H1054.64V244.34Z" fill="url(#paint32_radial_1183_85448)"/>
<g filter="url(#filter10_f_1183_85448)">
<ellipse cx="1120.19" cy="136.875" rx="236.421" ry="107.725" fill="url(#paint33_linear_1183_85448)"/>
</g>
</g>
<rect x="1063.95" y="268.249" width="98.8752" height="91.1592" rx="7.59949" stroke="url(#paint34_linear_1183_85448)" stroke-width="0.49029"/>
<g clip-path="url(#clip11_1183_85448)">
<rect x="1176.7" y="268.004" width="99.3655" height="91.6495" rx="7.84464" fill="#121212"/>
<circle cx="1244.76" cy="303.587" r="0.73958" transform="rotate(-180 1244.76 303.587)" fill="#73867C"/>
<circle cx="1254.56" cy="288.389" r="0.73958" transform="rotate(-180 1254.56 288.389)" fill="#73867C"/>
<ellipse cx="1198.17" cy="292.306" rx="0.245145" ry="0.245145" transform="rotate(-180 1198.17 292.306)" fill="#73867C"/>
<circle cx="1197.69" cy="302.116" r="0.73958" transform="rotate(-180 1197.69 302.116)" fill="#73867C"/>
<ellipse cx="1189.35" cy="303.583" rx="0.245145" ry="0.245145" transform="rotate(-180 1189.35 303.583)" fill="#73867C"/>
<circle cx="1186.9" cy="298.684" r="0.73958" transform="rotate(-180 1186.9 298.684)" fill="#73867C"/>
<circle cx="1187.88" cy="324.669" r="0.73958" transform="rotate(-180 1187.88 324.669)" fill="#73867C"/>
<circle cx="1182.98" cy="315.354" r="0.73958" transform="rotate(-180 1182.98 315.354)" fill="#73867C"/>
<circle cx="1196.71" cy="315.354" r="0.73958" transform="rotate(-180 1196.71 315.354)" fill="#73867C"/>
<circle cx="1220.73" cy="328.102" r="0.73958" transform="rotate(-180 1220.73 328.102)" fill="#73867C"/>
<circle cx="1207.49" cy="326.141" r="0.73958" transform="rotate(-180 1207.49 326.141)" fill="#73867C"/>
<ellipse cx="1246.22" cy="339.864" rx="0.245145" ry="0.245145" transform="rotate(-180 1246.22 339.864)" fill="#73867C"/>
<ellipse rx="0.245145" ry="0.245145" transform="matrix(-1 -8.18178e-08 -8.18178e-08 1 1201.12 334.47)" fill="#73867C"/>
<ellipse rx="0.245145" ry="0.245145" transform="matrix(-1 -8.18178e-08 -8.18178e-08 1 1209.45 328.587)" fill="#73867C"/>
<ellipse rx="0.245145" ry="0.245145" transform="matrix(-1 -8.18178e-08 -8.18178e-08 1 1203.08 327.116)" fill="#73867C"/>
<circle cx="1250.32" cy="325.325" r="0.73958" transform="rotate(-75 1250.32 325.325)" fill="#73867C"/>
<circle cx="1229.23" cy="336.602" r="0.73958" transform="rotate(-75 1229.23 336.602)" fill="#73867C"/>
<circle cx="1259.51" cy="300.32" r="0.267292" transform="rotate(105 1259.51 300.32)" fill="#73867C"/>
<ellipse cx="1233.47" cy="321.233" rx="0.245145" ry="0.245145" transform="rotate(-180 1233.47 321.233)" fill="#73867C"/>
<circle cx="1251.77" cy="331.565" r="0.73958" transform="rotate(-180 1251.77 331.565)" fill="#73867C"/>
<circle cx="1265.21" cy="317.163" r="0.73958" transform="rotate(-75 1265.21 317.163)" fill="#73867C"/>
<path d="M1167.63 244.34H1274.79V360.887H1167.63V244.34Z" fill="url(#paint35_radial_1183_85448)"/>
<g filter="url(#filter11_f_1183_85448)">
<ellipse cx="1233.18" cy="136.875" rx="236.421" ry="107.725" fill="url(#paint36_linear_1183_85448)"/>
</g>
<path fill-rule="evenodd" clip-rule="evenodd" d="M1229.8 298.333C1229.84 298.318 1229.91 298.297 1229.98 298.272C1230.16 298.215 1230.44 298.134 1230.79 298.052C1231.5 297.886 1232.53 297.709 1233.71 297.698C1236.07 297.676 1239.08 298.321 1241.26 301.11L1241.26 301.11C1241.73 301.71 1241.89 302.676 1241.88 303.764C1241.86 304.88 1241.65 306.229 1241.27 307.693C1240.54 310.534 1239.15 313.862 1237.2 316.834C1237.46 317.022 1238.28 317.364 1240.61 316.883C1240.84 316.835 1241.05 316.811 1241.23 316.817C1241.4 316.823 1241.61 316.858 1241.78 316.988C1241.98 317.143 1242.06 317.373 1242.03 317.588C1242.02 317.773 1241.93 317.937 1241.85 318.062C1241.68 318.319 1241.4 318.584 1241.07 318.828C1240.74 319.077 1240.33 319.324 1239.88 319.534C1239.1 319.894 1237.9 320.104 1236.89 320.115C1236.71 320.117 1236.53 320.112 1236.36 320.101C1236.28 320.129 1236.19 320.136 1236.1 320.116C1235.77 320.043 1235.62 320.051 1235.55 320.068C1235.55 320.069 1235.55 320.069 1235.55 320.069C1235.54 320.07 1235.52 320.072 1235.49 320.146C1235.45 320.265 1235.41 320.463 1235.37 320.809C1235.36 320.923 1235.35 321.055 1235.33 321.201C1235.31 321.458 1235.28 321.759 1235.24 322.08C1235.24 322.111 1235.23 322.143 1235.22 322.173L1235.03 322.735C1235.02 323.395 1234.95 323.703 1234.86 324.022L1234.85 324.064C1234.77 324.334 1234.69 324.625 1234.64 325.294L1234.64 325.294C1234.55 326.426 1234.18 327.373 1233.5 328.105C1232.82 328.832 1231.86 329.303 1230.67 329.559C1229.94 329.716 1229.33 329.71 1228.82 329.57C1228.31 329.429 1227.93 329.158 1227.64 328.834C1227.36 328.516 1227.19 328.154 1227.06 327.833C1226.99 327.672 1226.94 327.517 1226.9 327.38L1226.87 327.292L1226.87 327.292C1226.83 327.19 1226.81 327.104 1226.78 327.027C1226.43 326.072 1226.46 324.881 1226.51 323.345L1226.51 323.261C1226.53 322.483 1226.48 321.665 1226.37 321.01C1226.31 320.699 1226.25 320.436 1226.18 320.236C1226.15 320.264 1226.12 320.29 1226.09 320.312C1225.84 320.513 1225.13 320.918 1224.26 321.17C1223.39 321.422 1222.27 321.549 1221.25 321.064C1220.89 320.897 1220.62 320.753 1220.43 320.625C1220.33 320.562 1220.24 320.495 1220.16 320.423C1220.09 320.357 1220 320.258 1219.95 320.124C1219.88 319.967 1219.88 319.781 1219.98 319.611C1220.06 319.468 1220.18 319.388 1220.26 319.345C1220.41 319.26 1220.6 319.211 1220.76 319.175C1220.91 319.142 1221.06 319.115 1221.21 319.087C1221.45 319.042 1221.7 318.996 1221.98 318.923C1222.41 318.81 1222.77 318.662 1223.02 318.455C1223.43 318.1 1223.73 317.818 1223.95 317.604C1223.95 317.567 1223.94 317.53 1223.94 317.493C1223.27 317.477 1222.63 317.298 1222.07 316.992L1222 317.058C1221.86 317.214 1221.65 317.439 1221.39 317.72C1220.88 318.281 1220.19 319.06 1219.47 319.933C1218.92 320.59 1218.32 320.974 1217.66 321.002C1217 321.03 1216.42 320.699 1215.93 320.225C1214.97 319.289 1214.14 317.582 1213.46 315.737C1212.78 313.87 1212.22 311.78 1211.82 310.009C1211.43 308.247 1211.19 306.763 1211.15 306.114C1211.01 303.184 1211.68 301.215 1212.87 299.958C1214.05 298.704 1215.67 298.239 1217.23 298.149C1218.8 298.059 1220.37 298.341 1221.53 298.639C1222.12 298.789 1222.6 298.944 1222.95 299.062C1223.05 299.096 1223.13 299.126 1223.2 299.153C1224.32 298.345 1225.69 298.06 1226.97 298.03C1227.99 298.005 1228.99 298.144 1229.8 298.333ZM1223.6 300.082C1223.61 300.075 1223.62 300.068 1223.63 300.06C1224.55 299.328 1225.76 299.04 1226.99 299.01C1228.36 298.977 1229.68 299.267 1230.47 299.544C1231.31 299.898 1232.63 300.663 1233.8 301.798C1234.85 302.81 1235.76 304.09 1236.15 305.609C1234.54 305.456 1233.44 305.747 1232.8 306.476C1232.08 307.302 1232.13 308.496 1232.4 309.577C1232.68 310.689 1233.23 311.859 1233.72 312.802C1233.95 313.256 1234.18 313.665 1234.37 313.994L1234.39 314.037C1234.59 314.389 1234.71 314.612 1234.75 314.718C1235.04 315.414 1235.4 315.901 1235.69 316.265C1235.73 316.315 1235.77 316.361 1235.8 316.404L1235.8 316.404C1235.9 316.524 1235.97 316.62 1236.04 316.713L1236.04 316.721L1236.03 316.723C1235.93 316.753 1235.8 316.793 1235.67 316.853C1235.4 316.977 1235.1 317.185 1234.89 317.565C1234.69 317.934 1234.6 318.419 1234.64 319.05C1234.65 319.226 1234.7 319.372 1234.79 319.491C1234.72 319.58 1234.66 319.681 1234.62 319.789C1234.51 320.047 1234.47 320.372 1234.43 320.707C1234.42 320.845 1234.4 320.987 1234.39 321.137L1234.39 321.137C1234.37 321.37 1234.34 321.624 1234.31 321.92L1234.11 322.505C1234.1 322.551 1234.09 322.6 1234.09 322.648C1234.08 323.269 1234.02 323.506 1233.94 323.771L1233.94 323.806C1233.85 324.111 1233.75 324.463 1233.69 325.221C1233.62 326.186 1233.32 326.915 1232.81 327.458C1232.3 328.004 1231.54 328.405 1230.47 328.634C1229.84 328.767 1229.4 328.747 1229.07 328.658C1228.75 328.57 1228.53 328.409 1228.35 328.21C1228.18 328.006 1228.05 327.755 1227.94 327.485C1227.89 327.351 1227.84 327.217 1227.8 327.084L1227.77 327.007C1227.74 326.903 1227.7 326.795 1227.67 326.7C1227.39 325.94 1227.41 324.941 1227.46 323.289C1227.48 322.453 1227.42 321.573 1227.3 320.853C1227.24 320.494 1227.16 320.163 1227.07 319.892C1227.01 319.736 1226.94 319.563 1226.84 319.413C1226.86 319.368 1226.89 319.321 1226.91 319.273C1227.01 319.024 1227.07 318.729 1227.03 318.409C1226.99 318.086 1226.85 317.771 1226.6 317.48C1226.22 317.05 1225.81 316.834 1225.42 316.783C1225.25 316.761 1225.1 316.77 1224.96 316.801C1224.97 316.744 1224.99 316.685 1225 316.624C1225.09 316.296 1225.22 315.943 1225.37 315.541L1225.45 315.35C1225.53 315.135 1225.62 314.932 1225.72 314.702L1225.72 314.702C1225.78 314.567 1225.85 314.424 1225.92 314.263C1226.09 313.846 1226.28 313.368 1226.41 312.784C1226.67 311.611 1226.73 310.064 1226.23 307.769L1226.23 307.769C1226.02 306.793 1225.48 306.194 1224.76 305.916C1224.08 305.652 1223.3 305.703 1222.61 305.863C1221.93 306.018 1221.29 306.289 1220.8 306.555C1220.88 305.854 1221.02 305.015 1221.27 304.152C1221.67 302.754 1222.32 301.344 1223.31 300.352C1223.4 300.256 1223.5 300.166 1223.6 300.082ZM1222.4 299.878C1222.1 299.78 1221.73 299.667 1221.3 299.556C1220.18 299.27 1218.72 299.012 1217.29 299.094C1215.86 299.176 1214.51 299.595 1213.56 300.607C1212.6 301.616 1211.96 303.296 1212.1 306.066C1212.13 306.629 1212.35 308.046 1212.74 309.802C1213.14 311.548 1213.69 313.594 1214.35 315.41C1215.03 317.248 1215.8 318.773 1216.59 319.546C1216.98 319.926 1217.32 320.069 1217.62 320.057C1217.91 320.044 1218.29 319.874 1218.74 319.328C1219.48 318.442 1220.18 317.652 1220.69 317.083C1220.93 316.821 1221.13 316.605 1221.28 316.449C1220.09 315.432 1219.4 313.785 1219.64 312.007C1219.87 310.369 1219.79 308.956 1219.74 308.155C1219.73 307.924 1219.72 307.744 1219.72 307.624L1219.72 307.624C1219.72 307.563 1219.73 307.507 1219.75 307.457C1219.78 306.579 1219.93 305.258 1220.33 303.882C1220.73 302.496 1221.37 301.011 1222.4 299.878ZM1237.22 306.407C1237.24 306.359 1237.26 306.304 1237.27 306.245C1237.29 306.147 1237.27 306.051 1237.23 305.967C1236.89 303.946 1235.74 302.309 1234.48 301.093C1233.44 300.083 1232.29 299.342 1231.39 298.89C1232.02 298.765 1232.82 298.653 1233.72 298.644C1235.91 298.624 1238.58 299.219 1240.52 301.693C1240.77 302.023 1240.95 302.703 1240.93 303.749C1240.91 304.768 1240.72 306.04 1240.36 307.456C1239.68 310.087 1238.41 313.161 1236.64 315.946C1236.6 315.895 1236.56 315.844 1236.52 315.793L1236.52 315.793C1236.51 315.776 1236.5 315.758 1236.48 315.741C1236.94 315.051 1237.12 314.147 1237.17 313.276C1237.23 312.287 1237.14 311.251 1237.03 310.418C1236.88 309.269 1237.07 307.391 1237.22 306.407ZM1236.2 306.566C1234.62 306.391 1233.86 306.699 1233.51 307.099C1233.12 307.549 1233.06 308.318 1233.32 309.348C1233.57 310.348 1234.07 311.437 1234.56 312.365C1234.79 312.807 1235.01 313.205 1235.19 313.535L1235.22 313.586C1235.4 313.904 1235.56 314.187 1235.63 314.357C1235.7 314.532 1235.78 314.691 1235.86 314.837C1236.05 314.399 1236.15 313.843 1236.19 313.214C1236.25 312.318 1236.17 311.354 1236.06 310.547C1235.9 309.377 1236.06 307.63 1236.2 306.566ZM1225.13 317.767C1225.05 317.876 1224.93 318.013 1224.77 318.177C1224.52 318.425 1224.16 318.762 1223.65 319.199C1223.24 319.554 1222.7 319.748 1222.23 319.872C1221.96 319.942 1221.66 320.001 1221.4 320.049C1221.48 320.089 1221.57 320.132 1221.67 320.178C1222.37 320.514 1223.22 320.45 1223.98 320.228C1224.75 320.006 1225.34 319.654 1225.49 319.542C1225.65 319.413 1225.89 319.169 1226 318.895C1226.06 318.765 1226.08 318.644 1226.06 318.53C1226.05 318.42 1226 318.285 1225.86 318.127C1225.61 317.839 1225.41 317.77 1225.29 317.755C1225.23 317.747 1225.18 317.753 1225.15 317.762C1225.14 317.764 1225.14 317.765 1225.13 317.767ZM1220.82 319.698L1220.82 319.7C1220.82 319.698 1220.82 319.698 1220.82 319.698ZM1224.09 316.371C1224.07 316.429 1224.06 316.488 1224.04 316.548C1222.01 316.541 1220.24 314.556 1220.58 312.138C1220.83 310.373 1220.73 308.761 1220.69 308.01C1220.68 307.913 1220.67 307.831 1220.67 307.764C1220.68 307.756 1220.69 307.747 1220.7 307.737C1220.81 307.651 1220.98 307.538 1221.2 307.417C1221.63 307.175 1222.22 306.924 1222.82 306.786C1223.43 306.645 1223.99 306.633 1224.42 306.799C1224.82 306.951 1225.16 307.274 1225.31 307.969C1225.78 310.161 1225.71 311.565 1225.49 312.575C1225.37 313.082 1225.21 313.503 1225.05 313.889C1224.99 314.014 1224.93 314.142 1224.88 314.271L1224.88 314.271L1224.88 314.271C1224.76 314.522 1224.65 314.778 1224.56 315.02L1224.56 315.02L1224.49 315.206C1224.34 315.604 1224.19 316 1224.09 316.371ZM1220.62 307.817C1220.61 307.83 1220.6 307.831 1220.61 307.819L1220.62 307.817ZM1223.27 307.559C1223.25 307.713 1223.56 308.127 1223.96 308.182C1224.35 308.237 1224.69 307.914 1224.72 307.76C1224.74 307.605 1224.43 307.434 1224.03 307.379C1223.64 307.323 1223.3 307.404 1223.27 307.559H1223.27ZM1234.7 307.866C1235.1 307.811 1235.4 307.397 1235.38 307.243V307.243C1235.36 307.088 1235.02 307.007 1234.62 307.063C1234.22 307.118 1233.92 307.289 1233.94 307.444C1233.96 307.598 1234.3 307.921 1234.7 307.866ZM1236.36 317.615L1236.36 317.615L1236.36 317.615L1236.36 317.615C1236.35 317.618 1236.34 317.621 1236.33 317.623C1236.32 317.626 1236.31 317.629 1236.3 317.632C1236.21 317.658 1236.13 317.683 1236.06 317.716C1235.92 317.778 1235.81 317.862 1235.72 318.018C1235.64 318.179 1235.56 318.461 1235.58 318.958C1235.6 318.977 1235.66 319.012 1235.79 319.052C1236.04 319.131 1236.42 319.173 1236.88 319.168C1237.8 319.158 1238.86 318.961 1239.48 318.675C1239.87 318.491 1240.23 318.278 1240.51 318.069C1240.63 317.976 1240.74 317.887 1240.82 317.806L1240.8 317.81C1238.31 318.324 1237.13 318.005 1236.58 317.55C1236.51 317.573 1236.43 317.596 1236.36 317.615ZM1235.57 318.944C1235.57 318.944 1235.57 318.946 1235.57 318.95C1235.57 318.946 1235.56 318.944 1235.57 318.944Z" fill="url(#paint37_linear_1183_85448)"/>
</g>
<rect x="1176.94" y="268.249" width="98.8752" height="91.1592" rx="7.59949" stroke="url(#paint38_linear_1183_85448)" stroke-width="0.49029"/>
<g clip-path="url(#clip12_1183_85448)">
<rect x="1289.69" y="268.004" width="99.3655" height="91.6495" rx="7.84464" fill="#121212"/>
<path d="M1280.62 244.34H1387.79V360.887H1280.62V244.34Z" fill="url(#paint39_radial_1183_85448)"/>
<g filter="url(#filter12_f_1183_85448)">
<ellipse cx="1346.18" cy="136.875" rx="236.421" ry="107.725" fill="url(#paint40_linear_1183_85448)"/>
</g>
</g>
<rect x="1289.94" y="268.249" width="98.8752" height="91.1592" rx="7.59949" stroke="url(#paint41_linear_1183_85448)" stroke-width="0.49029"/>
<g clip-path="url(#clip13_1183_85448)">
<rect x="420.168" y="62.5098" width="99.3655" height="91.6495" rx="7.84464" fill="#121212"/>
<path d="M411.102 38.8457H518.264V155.393H411.102V38.8457Z" fill="url(#paint42_radial_1183_85448)"/>
<g filter="url(#filter13_f_1183_85448)">
<ellipse cx="476.656" cy="-68.6189" rx="236.421" ry="107.725" fill="url(#paint43_linear_1183_85448)"/>
</g>
</g>
<rect x="420.413" y="62.7549" width="98.8752" height="91.1592" rx="7.59949" stroke="url(#paint44_linear_1183_85448)" stroke-width="0.49029"/>
<g clip-path="url(#clip14_1183_85448)">
<rect x="533.16" y="62.5098" width="99.3655" height="91.6495" rx="7.84464" fill="#121212"/>
<path d="M524.094 38.8457H631.256V155.393H524.094V38.8457Z" fill="url(#paint45_radial_1183_85448)"/>
<g filter="url(#filter14_f_1183_85448)">
<ellipse cx="589.644" cy="-68.6189" rx="236.421" ry="107.725" fill="url(#paint46_linear_1183_85448)"/>
</g>
</g>
<rect x="533.405" y="62.7549" width="98.8752" height="91.1592" rx="7.59949" stroke="url(#paint47_linear_1183_85448)" stroke-width="0.49029"/>
<g clip-path="url(#clip15_1183_85448)">
<rect x="865.59" y="62.5098" width="99.3655" height="91.6495" rx="7.84464" fill="#121212"/>
<circle cx="933.643" cy="98.0944" r="0.73958" transform="rotate(-180 933.643 98.0944)" fill="#73867C"/>
<circle cx="943.448" cy="82.8971" r="0.73958" transform="rotate(-180 943.448 82.8971)" fill="#73867C"/>
<ellipse cx="887.06" cy="86.8134" rx="0.245145" ry="0.245145" transform="rotate(-180 887.06 86.8134)" fill="#73867C"/>
<circle cx="886.577" cy="96.6237" r="0.73958" transform="rotate(-180 886.577 96.6237)" fill="#73867C"/>
<ellipse cx="878.235" cy="98.0908" rx="0.245145" ry="0.245145" transform="rotate(-180 878.235 98.0908)" fill="#73867C"/>
<circle cx="875.788" cy="93.1921" r="0.73958" transform="rotate(-180 875.788 93.1921)" fill="#73867C"/>
<circle cx="876.768" cy="119.176" r="0.73958" transform="rotate(-180 876.768 119.176)" fill="#73867C"/>
<circle cx="871.866" cy="109.862" r="0.73958" transform="rotate(-180 871.866 109.862)" fill="#73867C"/>
<circle cx="885.596" cy="109.862" r="0.73958" transform="rotate(-180 885.596 109.862)" fill="#73867C"/>
<circle cx="909.616" cy="122.61" r="0.73958" transform="rotate(-180 909.616 122.61)" fill="#73867C"/>
<circle cx="896.378" cy="120.649" r="0.73958" transform="rotate(-180 896.378 120.649)" fill="#73867C"/>
<ellipse cx="935.106" cy="134.372" rx="0.245145" ry="0.245145" transform="rotate(-180 935.106 134.372)" fill="#73867C"/>
<ellipse rx="0.245145" ry="0.245145" transform="matrix(-1 -8.18178e-08 -8.18178e-08 1 890.005 128.978)" fill="#73867C"/>
<ellipse rx="0.245145" ry="0.245145" transform="matrix(-1 -8.18178e-08 -8.18178e-08 1 898.341 123.095)" fill="#73867C"/>
<ellipse rx="0.245145" ry="0.245145" transform="matrix(-1 -8.18178e-08 -8.18178e-08 1 891.966 121.624)" fill="#73867C"/>
<circle cx="939.203" cy="119.833" r="0.73958" transform="rotate(-75 939.203 119.833)" fill="#73867C"/>
<circle cx="918.121" cy="131.11" r="0.73958" transform="rotate(-75 918.121 131.11)" fill="#73867C"/>
<circle cx="948.399" cy="94.8277" r="0.267292" transform="rotate(105 948.399 94.8277)" fill="#73867C"/>
<ellipse cx="922.36" cy="115.741" rx="0.245145" ry="0.245145" transform="rotate(-180 922.36 115.741)" fill="#73867C"/>
<circle cx="940.659" cy="126.073" r="0.73958" transform="rotate(-180 940.659 126.073)" fill="#73867C"/>
<circle cx="954.093" cy="111.67" r="0.73958" transform="rotate(-75 954.093 111.67)" fill="#73867C"/>
<path d="M856.523 38.8457H963.686V155.393H856.523V38.8457Z" fill="url(#paint48_radial_1183_85448)"/>
<g filter="url(#filter15_f_1183_85448)">
<ellipse cx="922.078" cy="-68.6189" rx="236.421" ry="107.725" fill="url(#paint49_linear_1183_85448)"/>
</g>
<path fill-rule="evenodd" clip-rule="evenodd" d="M927.099 94.8848C927.931 94.8848 928.701 95.3318 929.091 96.0584C929.465 96.7544 929.449 97.5746 929.049 98.2554L929.036 98.2783L925.535 104.093C925.139 104.75 924.425 105.161 923.661 105.169L923.636 105.17L919.638 105.17L921.3 108.946L921.307 108.957L921.317 108.975C921.708 109.678 921.699 110.512 921.293 111.204L921.279 111.227L917.778 117.042C917.383 117.699 916.668 118.11 915.904 118.118L915.879 118.118L910.973 118.118L907.446 121.812L907.439 121.819C907.107 122.154 906.659 122.341 906.191 122.341C906.074 122.341 905.957 122.329 905.842 122.306C905.271 122.19 904.797 121.802 904.569 121.266L904.563 121.25L902.707 117.02L902.697 117.003L902.687 116.986C902.685 116.983 902.683 116.98 902.682 116.977C902.29 116.275 902.3 115.44 902.706 114.748L902.719 114.725L906.114 109.085L903.613 103.398L903.658 103.375L903.658 103.372C903.552 102.849 903.637 102.303 903.909 101.825L903.924 101.799L903.938 101.776L907.439 95.9615C907.834 95.304 908.549 94.8937 909.313 94.8848H909.338H927.099ZM908.718 118.074L904.998 118.074L906.091 120.583L906.093 120.59C906.111 120.635 906.141 120.66 906.184 120.668C906.223 120.676 906.255 120.668 906.284 120.641L906.29 120.636L908.718 118.074ZM919.35 109.448H908.107C908.095 109.448 908.082 109.448 908.07 109.449L908.067 109.449L911.149 116.451H915.879C916.073 116.451 916.26 116.348 916.367 116.182L916.375 116.168L919.881 110.35C919.986 110.176 919.997 109.975 919.914 109.794C919.819 109.585 919.597 109.448 919.35 109.448ZM906.939 110.885L904.156 115.542C904.046 115.727 904.039 115.944 904.138 116.135L904.149 116.155L904.154 116.164L904.166 116.182L904.188 116.215L904.213 116.247L904.236 116.274L904.241 116.279L904.257 116.295L904.271 116.308C904.358 116.387 904.466 116.435 904.586 116.447L904.612 116.45L904.628 116.451L904.648 116.451H909.368L906.939 110.885ZM906.207 105.181L907.429 107.964L907.453 107.956C907.664 107.885 907.884 107.847 908.107 107.844L908.141 107.844L919.039 107.844L917.87 105.181L906.207 105.181ZM927.068 96.508H915.785L918.868 103.511H923.596C923.79 103.511 923.978 103.408 924.084 103.242L924.093 103.228L927.599 97.4102C927.703 97.2367 927.715 97.0354 927.632 96.8544C927.539 96.6497 927.324 96.5139 927.083 96.5082L927.068 96.508ZM914.057 96.508H909.356C909.163 96.508 908.976 96.6112 908.87 96.777L908.862 96.7906L905.365 102.609C905.26 102.782 905.249 102.984 905.332 103.165C905.425 103.37 905.638 103.505 905.878 103.511L905.893 103.511H917.133L914.057 96.508Z" fill="url(#paint50_linear_1183_85448)"/>
</g>
<rect x="865.835" y="62.7549" width="98.8752" height="91.1592" rx="7.59949" stroke="url(#paint51_linear_1183_85448)" stroke-width="0.49029"/>
<g clip-path="url(#clip16_1183_85448)">
<rect x="902.016" y="164.652" width="99.3655" height="91.6495" rx="7.84464" fill="#121212"/>
<path d="M892.953 140.988H1000.12V257.536H892.953V140.988Z" fill="url(#paint52_radial_1183_85448)"/>
<g filter="url(#filter16_f_1183_85448)">
<ellipse cx="958.504" cy="33.5236" rx="236.421" ry="107.725" fill="url(#paint53_linear_1183_85448)"/>
</g>
</g>
<rect x="902.261" y="164.897" width="98.8752" height="91.1592" rx="7.59949" stroke="url(#paint54_linear_1183_85448)" stroke-width="0.49029"/>
<g clip-path="url(#clip17_1183_85448)">
<rect x="979.887" y="62.5098" width="99.3655" height="91.6495" rx="7.84464" fill="#121212"/>
<path d="M970.828 38.8457H1077.99V155.393H970.828V38.8457Z" fill="url(#paint55_radial_1183_85448)"/>
<g filter="url(#filter17_f_1183_85448)">
<ellipse cx="1036.38" cy="-68.6189" rx="236.421" ry="107.725" fill="url(#paint56_linear_1183_85448)"/>
</g>
</g>
<rect x="980.132" y="62.7549" width="98.8752" height="91.1592" rx="7.59949" stroke="url(#paint57_linear_1183_85448)" stroke-width="0.49029"/>
<g clip-path="url(#clip18_1183_85448)">
<rect x="1098.12" y="62.5098" width="99.3655" height="91.6495" rx="7.84464" fill="#121212"/>
<circle cx="1166.17" cy="98.0944" r="0.73958" transform="rotate(-180 1166.17 98.0944)" fill="#73867C"/>
<circle cx="1175.98" cy="82.8971" r="0.73958" transform="rotate(-180 1175.98 82.8971)" fill="#73867C"/>
<ellipse cx="1119.59" cy="86.8134" rx="0.245145" ry="0.245145" transform="rotate(-180 1119.59 86.8134)" fill="#73867C"/>
<circle cx="1119.11" cy="96.6237" r="0.73958" transform="rotate(-180 1119.11 96.6237)" fill="#73867C"/>
<ellipse cx="1110.77" cy="98.0908" rx="0.245145" ry="0.245145" transform="rotate(-180 1110.77 98.0908)" fill="#73867C"/>
<circle cx="1108.32" cy="93.1921" r="0.73958" transform="rotate(-180 1108.32 93.1921)" fill="#73867C"/>
<circle cx="1109.3" cy="119.176" r="0.73958" transform="rotate(-180 1109.3 119.176)" fill="#73867C"/>
<circle cx="1104.4" cy="109.862" r="0.73958" transform="rotate(-180 1104.4 109.862)" fill="#73867C"/>
<circle cx="1118.13" cy="109.862" r="0.73958" transform="rotate(-180 1118.13 109.862)" fill="#73867C"/>
<circle cx="1142.15" cy="122.61" r="0.73958" transform="rotate(-180 1142.15 122.61)" fill="#73867C"/>
<circle cx="1128.91" cy="120.649" r="0.73958" transform="rotate(-180 1128.91 120.649)" fill="#73867C"/>
<ellipse cx="1167.64" cy="134.372" rx="0.245145" ry="0.245145" transform="rotate(-180 1167.64 134.372)" fill="#73867C"/>
<ellipse rx="0.245145" ry="0.245145" transform="matrix(-1 -8.18178e-08 -8.18178e-08 1 1122.54 128.978)" fill="#73867C"/>
<ellipse rx="0.245145" ry="0.245145" transform="matrix(-1 -8.18178e-08 -8.18178e-08 1 1130.87 123.095)" fill="#73867C"/>
<ellipse rx="0.245145" ry="0.245145" transform="matrix(-1 -8.18178e-08 -8.18178e-08 1 1124.5 121.624)" fill="#73867C"/>
<circle cx="1171.73" cy="119.833" r="0.73958" transform="rotate(-75 1171.73 119.833)" fill="#73867C"/>
<circle cx="1150.65" cy="131.11" r="0.73958" transform="rotate(-75 1150.65 131.11)" fill="#73867C"/>
<circle cx="1180.93" cy="94.8277" r="0.267292" transform="rotate(105 1180.93 94.8277)" fill="#73867C"/>
<ellipse cx="1154.89" cy="115.741" rx="0.245145" ry="0.245145" transform="rotate(-180 1154.89 115.741)" fill="#73867C"/>
<circle cx="1173.19" cy="126.073" r="0.73958" transform="rotate(-180 1173.19 126.073)" fill="#73867C"/>
<circle cx="1186.62" cy="111.67" r="0.73958" transform="rotate(-75 1186.62 111.67)" fill="#73867C"/>
<path d="M1089.05 38.8457H1196.22V155.393H1089.05V38.8457Z" fill="url(#paint58_radial_1183_85448)"/>
<g filter="url(#filter18_f_1183_85448)">
<ellipse cx="1154.61" cy="-68.6189" rx="236.421" ry="107.725" fill="url(#paint59_linear_1183_85448)"/>
</g>
<path fill-rule="evenodd" clip-rule="evenodd" d="M1153.24 93.3054C1153.6 93.3 1154.09 93.3268 1154.34 93.3589C1154.59 93.3856 1154.98 93.4498 1155.2 93.4926C1155.42 93.5354 1155.84 93.6531 1156.13 93.7547C1156.43 93.8563 1156.88 94.0328 1157.15 94.1559C1157.42 94.2789 1157.81 94.4875 1158.03 94.6266C1158.25 94.7656 1158.62 95.0117 1158.83 95.1775C1159.05 95.338 1159.46 95.691 1159.74 95.9531C1160.01 96.2152 1160.4 96.6217 1160.6 96.8571C1160.8 97.0924 1161.1 97.5043 1161.28 97.7664C1161.46 98.0285 1161.75 98.5366 1161.93 98.8897C1162.1 99.2427 1162.34 99.8097 1162.45 100.147C1162.55 100.484 1162.69 101.051 1162.75 101.404C1162.84 101.955 1162.86 102.19 1162.83 103.062C1162.81 103.811 1162.77 104.223 1162.69 104.613C1162.63 104.907 1162.49 105.399 1162.38 105.71C1162.27 106.02 1162.06 106.528 1161.9 106.849C1161.74 107.164 1161.5 107.598 1161.36 107.806C1161.23 108.02 1160.98 108.363 1160.82 108.571C1160.66 108.78 1160.37 109.112 1160.18 109.315C1159.98 109.518 1159.61 109.866 1159.34 110.085C1159.08 110.31 1158.7 110.599 1158.49 110.727C1158.28 110.861 1157.82 111.107 1157.47 111.278C1157.12 111.449 1156.64 111.647 1155.97 111.861L1155.93 112.385C1155.9 112.669 1155.84 113.182 1155.78 113.519C1155.73 113.856 1155.62 114.353 1155.55 114.616C1155.48 114.878 1155.33 115.338 1155.22 115.632C1155.11 115.926 1154.88 116.456 1154.7 116.809C1154.52 117.162 1154.21 117.702 1154 118.012C1153.8 118.322 1153.41 118.836 1153.14 119.157C1152.88 119.478 1152.46 119.922 1152.23 120.141C1151.99 120.36 1151.57 120.708 1151.29 120.922C1151.01 121.136 1150.54 121.452 1150.25 121.623C1149.96 121.794 1149.5 122.04 1149.23 122.163C1148.97 122.291 1148.46 122.489 1148.11 122.607C1147.76 122.725 1147.22 122.869 1146.92 122.928C1146.62 122.992 1146.15 123.062 1145.88 123.094C1145.61 123.12 1145.09 123.147 1144.74 123.147C1144.39 123.147 1143.89 123.12 1143.64 123.094C1143.39 123.062 1142.95 122.987 1142.65 122.928C1142.36 122.874 1141.8 122.725 1141.42 122.602C1141.04 122.479 1140.4 122.216 1140.01 122.019C1139.61 121.821 1139.06 121.516 1138.8 121.345C1138.54 121.168 1138.13 120.874 1137.89 120.687C1137.66 120.499 1137.14 120.023 1136.74 119.622C1136.34 119.221 1135.87 118.702 1135.69 118.467C1135.52 118.231 1135.22 117.809 1135.03 117.531C1134.84 117.253 1134.54 116.734 1134.37 116.381C1134.2 116.028 1133.99 115.584 1133.92 115.391C1133.85 115.199 1133.73 114.862 1133.66 114.642C1133.59 114.423 1133.49 114.011 1133.43 113.733C1133.37 113.455 1133.3 113.032 1133.27 112.797C1133.24 112.562 1133.21 111.973 1133.21 111.486C1133.2 110.839 1133.23 110.406 1133.31 109.855C1133.37 109.443 1133.49 108.876 1133.57 108.598C1133.64 108.32 1133.81 107.828 1133.93 107.501C1134.06 107.175 1134.28 106.683 1134.42 106.405C1134.56 106.127 1134.77 105.742 1134.89 105.549C1135 105.357 1135.3 104.939 1135.54 104.613C1135.79 104.276 1136.25 103.763 1136.61 103.415C1136.97 103.078 1137.5 102.613 1137.81 102.383C1138.12 102.153 1138.63 101.816 1138.94 101.634C1139.25 101.452 1139.7 101.211 1139.95 101.104C1140.2 100.997 1140.65 100.821 1140.94 100.719C1141.24 100.617 1141.78 100.473 1142.15 100.398C1142.51 100.323 1143.08 100.232 1143.4 100.206C1143.73 100.173 1144.12 100.147 1144.55 100.147L1144.67 99.7562C1144.72 99.5476 1144.93 99.0448 1145.12 98.649C1145.31 98.2531 1145.62 97.6969 1145.81 97.4187C1146 97.1406 1146.32 96.7233 1146.52 96.4987C1146.71 96.274 1147.05 95.9317 1147.25 95.7445C1147.46 95.5626 1147.77 95.2952 1147.95 95.1615C1148.13 95.0277 1148.46 94.7977 1148.7 94.6533C1148.93 94.5035 1149.32 94.2949 1149.55 94.1879C1149.79 94.0756 1150.17 93.9152 1150.41 93.8296C1150.65 93.7386 1151.02 93.621 1151.24 93.5675C1151.46 93.5086 1151.86 93.4284 1152.12 93.3856C1152.38 93.3482 1152.89 93.3107 1153.24 93.3054ZM1154.69 95.5676C1155.43 95.5837 1155.67 95.6104 1156 95.7013C1156.22 95.7655 1156.59 95.9046 1156.83 96.0116C1157.06 96.1185 1157.45 96.3272 1157.68 96.4823C1157.92 96.632 1158.29 96.9102 1158.5 97.1028C1158.72 97.29 1159.03 97.6163 1159.2 97.8195C1159.37 98.0228 1159.63 98.3598 1159.76 98.5684C1159.89 98.7716 1160.1 99.146 1160.22 99.3974C1160.34 99.6488 1160.5 100.071 1160.58 100.334C1160.71 100.777 1160.73 100.89 1160.73 101.751C1160.73 102.58 1160.72 102.735 1160.61 103.115C1160.54 103.35 1160.37 103.762 1160.25 104.024C1160.12 104.286 1159.87 104.698 1159.7 104.934C1159.52 105.169 1159.21 105.533 1158.99 105.736C1158.77 105.945 1158.45 106.212 1158.27 106.33C1158.1 106.453 1157.81 106.624 1157.63 106.709C1157.45 106.8 1157.15 106.923 1156.96 106.982C1156.77 107.046 1156.27 107.18 1155.84 107.287C1155.41 107.394 1154.92 107.544 1154.75 107.624C1154.55 107.715 1154.35 107.865 1154.21 108.015C1154.09 108.148 1153.91 108.421 1153.62 108.993L1153.59 110.304C1153.56 111.24 1153.53 111.743 1153.46 112.048C1153.41 112.283 1153.3 112.695 1153.21 112.957C1153.13 113.219 1152.95 113.647 1152.81 113.909C1152.66 114.166 1152.39 114.594 1152.2 114.867C1152.01 115.139 1151.62 115.589 1151.34 115.867C1151.06 116.15 1150.62 116.525 1150.35 116.701C1150.09 116.878 1149.69 117.108 1149.47 117.215C1149.25 117.322 1148.91 117.472 1148.7 117.546C1148.49 117.621 1148.18 117.723 1148 117.766C1147.83 117.809 1147.46 117.873 1147.2 117.91C1146.91 117.948 1146.41 117.958 1145.97 117.942C1145.56 117.926 1145.04 117.873 1144.82 117.825C1144.6 117.776 1144.19 117.664 1143.91 117.573C1143.63 117.482 1143.22 117.316 1142.99 117.204C1142.76 117.086 1142.43 116.905 1142.26 116.798C1142.1 116.691 1141.78 116.466 1141.56 116.3C1141.34 116.129 1140.93 115.755 1140.65 115.466C1140.37 115.171 1140.02 114.781 1139.88 114.588C1139.74 114.396 1139.49 114.038 1139.34 113.786C1139.18 113.535 1138.96 113.101 1138.84 112.823C1138.72 112.545 1138.58 112.171 1138.52 111.994C1138.46 111.818 1138.37 111.491 1138.32 111.272C1138.27 111.053 1138.22 110.507 1138.2 110.069C1138.19 109.609 1138.2 109.084 1138.23 108.838C1138.26 108.603 1138.35 108.191 1138.43 107.929C1138.5 107.667 1138.67 107.218 1138.81 106.939C1138.94 106.661 1139.19 106.228 1139.36 105.977C1139.54 105.725 1139.9 105.281 1140.18 104.992C1140.45 104.698 1140.86 104.324 1141.08 104.158C1141.3 103.987 1141.71 103.73 1141.99 103.58C1142.26 103.431 1142.69 103.233 1142.92 103.147C1143.16 103.061 1143.5 102.954 1143.7 102.912C1143.89 102.864 1144.21 102.799 1144.42 102.762C1144.63 102.73 1145.33 102.698 1146 102.687C1147.15 102.676 1147.22 102.671 1147.63 102.527C1147.86 102.446 1148.15 102.318 1148.27 102.238C1148.41 102.136 1148.52 102.002 1148.6 101.826C1148.66 101.681 1148.77 101.237 1148.83 100.842C1148.9 100.446 1149 99.9377 1149.06 99.7184C1149.12 99.4991 1149.25 99.1354 1149.35 98.916C1149.45 98.6967 1149.66 98.3223 1149.82 98.087C1149.98 97.8516 1150.31 97.4558 1150.55 97.2044C1150.79 96.953 1151.16 96.6374 1151.37 96.5037C1151.58 96.3646 1151.89 96.1827 1152.07 96.0918C1152.24 96.0062 1152.54 95.8832 1152.74 95.819C1152.93 95.7548 1153.24 95.6692 1153.43 95.6264C1153.68 95.5676 1154.03 95.5516 1154.69 95.5676Z" fill="url(#paint60_linear_1183_85448)"/>
</g>
<rect x="1098.37" y="62.7549" width="98.8752" height="91.1592" rx="7.59949" stroke="url(#paint61_linear_1183_85448)" stroke-width="0.49029"/>
<g clip-path="url(#clip19_1183_85448)">
<rect x="1211.11" y="62.5098" width="99.3655" height="91.6495" rx="7.84464" fill="#121212"/>
<path d="M1202.05 38.8457H1309.21V155.393H1202.05V38.8457Z" fill="url(#paint62_radial_1183_85448)"/>
<g filter="url(#filter19_f_1183_85448)">
<ellipse cx="1267.6" cy="-68.6189" rx="236.421" ry="107.725" fill="url(#paint63_linear_1183_85448)"/>
</g>
</g>
<rect x="1211.36" y="62.7549" width="98.8752" height="91.1592" rx="7.59949" stroke="url(#paint64_linear_1183_85448)" stroke-width="0.49029"/>
<g clip-path="url(#clip20_1183_85448)">
<rect x="679.105" y="166.047" width="99.3655" height="91.6495" rx="7.84464" fill="#121212"/>
<path d="M670.039 142.383H777.202V258.93H670.039V142.383Z" fill="url(#paint65_radial_1183_85448)"/>
<g filter="url(#filter20_f_1183_85448)">
<ellipse cx="735.589" cy="34.9182" rx="236.421" ry="107.725" fill="url(#paint66_linear_1183_85448)"/>
</g>
</g>
<rect x="679.351" y="166.292" width="98.8752" height="91.1592" rx="7.59949" stroke="url(#paint67_linear_1183_85448)" stroke-width="0.49029"/>
<g clip-path="url(#clip21_1183_85448)">
<rect x="1326.14" y="166.047" width="99.3655" height="91.6495" rx="7.84464" fill="#121212"/>
<path d="M1317.08 142.383H1424.24V258.93H1317.08V142.383Z" fill="url(#paint68_radial_1183_85448)"/>
<g filter="url(#filter21_f_1183_85448)">
<ellipse cx="1382.63" cy="34.9182" rx="236.421" ry="107.725" fill="url(#paint69_linear_1183_85448)"/>
</g>
</g>
<rect x="1326.39" y="166.292" width="98.8752" height="91.1592" rx="7.59949" stroke="url(#paint70_linear_1183_85448)" stroke-width="0.49029"/>
<g clip-path="url(#clip22_1183_85448)">
<rect x="1211.86" y="166.047" width="99.3655" height="91.6495" rx="7.84464" fill="#121212"/>
<path d="M1202.79 142.383H1309.95V258.93H1202.79V142.383Z" fill="url(#paint71_radial_1183_85448)"/>
<g filter="url(#filter22_f_1183_85448)">
<ellipse cx="1268.34" cy="34.9182" rx="236.421" ry="107.725" fill="url(#paint72_linear_1183_85448)"/>
</g>
</g>
<rect x="1212.1" y="166.292" width="98.8752" height="91.1592" rx="7.59949" stroke="url(#paint73_linear_1183_85448)" stroke-width="0.49029"/>
<g clip-path="url(#clip23_1183_85448)">
<rect x="423.242" y="-43.9961" width="99.3655" height="91.6495" rx="7.84464" fill="#121212"/>
<path d="M414.164 -67.6602H521.327V48.8871H414.164V-67.6602Z" fill="url(#paint74_radial_1183_85448)"/>
</g>
<rect x="423.487" y="-43.7509" width="98.8752" height="91.1592" rx="7.59949" stroke="url(#paint75_linear_1183_85448)" stroke-width="0.49029"/>
<g clip-path="url(#clip24_1183_85448)">
<rect x="536.238" y="-43.9961" width="99.3655" height="91.6495" rx="7.84464" fill="#121212"/>
<path d="M527.168 -67.6602H634.33V48.8871H527.168V-67.6602Z" fill="url(#paint76_radial_1183_85448)"/>
</g>
<rect x="536.483" y="-43.7509" width="98.8752" height="91.1592" rx="7.59949" stroke="url(#paint77_linear_1183_85448)" stroke-width="0.49029"/>
<g clip-path="url(#clip25_1183_85448)">
<rect x="649.227" y="-43.9961" width="99.3655" height="91.6495" rx="7.84464" fill="#121212"/>
<path d="M640.16 -67.6602H747.323V48.8871H640.16V-67.6602Z" fill="url(#paint78_radial_1183_85448)"/>
</g>
<rect x="649.472" y="-43.7509" width="98.8752" height="91.1592" rx="7.59949" stroke="url(#paint79_linear_1183_85448)" stroke-width="0.49029"/>
<g clip-path="url(#clip26_1183_85448)">
<rect x="875.211" y="-43.9961" width="99.3655" height="91.6495" rx="7.84464" fill="#121212"/>
<path d="M866.145 -67.6602H973.307V48.8871H866.145V-67.6602Z" fill="url(#paint80_radial_1183_85448)"/>
</g>
<rect x="875.456" y="-43.7509" width="98.8752" height="91.1592" rx="7.59949" stroke="url(#paint81_linear_1183_85448)" stroke-width="0.49029"/>
<g clip-path="url(#clip27_1183_85448)">
<rect x="988.207" y="-43.9961" width="99.3655" height="91.6495" rx="7.84464" fill="#121212"/>
<path d="M979.137 -67.6602H1086.3V48.8871H979.137V-67.6602Z" fill="url(#paint82_radial_1183_85448)"/>
</g>
<rect x="988.452" y="-43.7509" width="98.8752" height="91.1592" rx="7.59949" stroke="url(#paint83_linear_1183_85448)" stroke-width="0.49029"/>
<g clip-path="url(#clip28_1183_85448)">
<rect x="1214.18" y="-43.9961" width="99.3655" height="91.6495" rx="7.84464" fill="#121212"/>
<path d="M1205.11 -67.6602H1312.28V48.8871H1205.11V-67.6602Z" fill="url(#paint84_radial_1183_85448)"/>
</g>
<rect x="1214.43" y="-43.7509" width="98.8752" height="91.1592" rx="7.59949" stroke="url(#paint85_linear_1183_85448)" stroke-width="0.49029"/>
<g clip-path="url(#clip29_1183_85448)">
<rect x="1327.18" y="-43.9961" width="99.3655" height="91.6495" rx="7.84464" fill="#121212"/>
<path d="M1318.11 -67.6602H1425.28V48.8871H1318.11V-67.6602Z" fill="url(#paint86_radial_1183_85448)"/>
</g>
<rect x="1327.42" y="-43.7509" width="98.8752" height="91.1592" rx="7.59949" stroke="url(#paint87_linear_1183_85448)" stroke-width="0.49029"/>
<g clip-path="url(#clip30_1183_85448)">
<rect x="1016.03" y="164.652" width="99.3655" height="91.6495" rx="7.84464" fill="#121212"/>
<circle cx="1084.08" cy="200.235" r="0.73958" transform="rotate(-180 1084.08 200.235)" fill="#73867C"/>
<circle cx="1093.89" cy="185.038" r="0.73958" transform="rotate(-180 1093.89 185.038)" fill="#73867C"/>
<ellipse cx="1037.5" cy="188.954" rx="0.245145" ry="0.245145" transform="rotate(-180 1037.5 188.954)" fill="#73867C"/>
<circle cx="1037.02" cy="198.764" r="0.73958" transform="rotate(-180 1037.02 198.764)" fill="#73867C"/>
<ellipse cx="1028.68" cy="200.231" rx="0.245145" ry="0.245145" transform="rotate(-180 1028.68 200.231)" fill="#73867C"/>
<circle cx="1026.23" cy="195.333" r="0.73958" transform="rotate(-180 1026.23 195.333)" fill="#73867C"/>
<circle cx="1027.21" cy="221.317" r="0.73958" transform="rotate(-180 1027.21 221.317)" fill="#73867C"/>
<circle cx="1022.31" cy="212.003" r="0.73958" transform="rotate(-180 1022.31 212.003)" fill="#73867C"/>
<circle cx="1036.04" cy="212.003" r="0.73958" transform="rotate(-180 1036.04 212.003)" fill="#73867C"/>
<circle cx="1060.06" cy="224.751" r="0.73958" transform="rotate(-180 1060.06 224.751)" fill="#73867C"/>
<circle cx="1046.82" cy="222.79" r="0.73958" transform="rotate(-180 1046.82 222.79)" fill="#73867C"/>
<ellipse cx="1085.55" cy="236.511" rx="0.245145" ry="0.245145" transform="rotate(-180 1085.55 236.511)" fill="#73867C"/>
<ellipse rx="0.245145" ry="0.245145" transform="matrix(-1 -8.18178e-08 -8.18178e-08 1 1040.45 231.118)" fill="#73867C"/>
<ellipse rx="0.245145" ry="0.245145" transform="matrix(-1 -8.18178e-08 -8.18178e-08 1 1048.78 225.235)" fill="#73867C"/>
<ellipse rx="0.245145" ry="0.245145" transform="matrix(-1 -8.18178e-08 -8.18178e-08 1 1042.41 223.765)" fill="#73867C"/>
<circle cx="1089.64" cy="221.973" r="0.73958" transform="rotate(-75 1089.64 221.973)" fill="#73867C"/>
<circle cx="1068.56" cy="233.25" r="0.73958" transform="rotate(-75 1068.56 233.25)" fill="#73867C"/>
<circle cx="1098.84" cy="196.968" r="0.267292" transform="rotate(105 1098.84 196.968)" fill="#73867C"/>
<ellipse cx="1072.8" cy="217.882" rx="0.245145" ry="0.245145" transform="rotate(-180 1072.8 217.882)" fill="#73867C"/>
<circle cx="1091.1" cy="228.214" r="0.73958" transform="rotate(-180 1091.1 228.214)" fill="#73867C"/>
<circle cx="1104.53" cy="213.811" r="0.73958" transform="rotate(-75 1104.53 213.811)" fill="#73867C"/>
<path d="M1006.96 140.988H1114.12V257.536H1006.96V140.988Z" fill="url(#paint88_radial_1183_85448)"/>
<g filter="url(#filter23_f_1183_85448)">
<ellipse cx="1072.51" cy="33.5217" rx="236.421" ry="107.725" fill="url(#paint89_linear_1183_85448)"/>
</g>
<path fill-rule="evenodd" clip-rule="evenodd" d="M1065.8 196.968C1065.79 195.771 1064.27 195.258 1063.53 196.195L1052.27 210.343C1050.94 212.013 1052.13 214.476 1054.27 214.476H1065.91L1066.05 223.593C1066.07 224.79 1067.58 225.304 1068.33 224.366L1079.58 210.218C1080.91 208.548 1079.72 206.086 1077.58 206.086H1065.86L1065.8 196.968Z" fill="url(#paint90_linear_1183_85448)"/>
</g>
<rect x="1016.27" y="164.897" width="98.8752" height="91.1592" rx="7.59949" stroke="url(#paint91_linear_1183_85448)" stroke-width="0.49029"/>
<rect x="0.304688" y="-2.73242" width="1383.92" height="402.54" fill="url(#paint92_radial_1183_85448)"/>
<defs>
<filter id="filter0_f_1183_85448" x="288.887" y="68.3693" width="605.101" height="347.707" filterUnits="userSpaceOnUse" color-interpolation-filters="sRGB">
<feFlood flood-opacity="0" result="BackgroundImageFix"/>
<feBlend mode="normal" in="SourceGraphic" in2="BackgroundImageFix" result="shape"/>
<feGaussianBlur stdDeviation="33.0644" result="effect1_foregroundBlur_1183_85448"/>
</filter>
<filter id="filter1_f_1183_85448" x="401.883" y="68.3693" width="605.101" height="347.707" filterUnits="userSpaceOnUse" color-interpolation-filters="sRGB">
<feFlood flood-opacity="0" result="BackgroundImageFix"/>
<feBlend mode="normal" in="SourceGraphic" in2="BackgroundImageFix" result="shape"/>
<feGaussianBlur stdDeviation="33.0644" result="effect1_foregroundBlur_1183_85448"/>
</filter>
<filter id="filter2_f_1183_85448" x="739.86" y="68.3693" width="605.101" height="347.707" filterUnits="userSpaceOnUse" color-interpolation-filters="sRGB">
<feFlood flood-opacity="0" result="BackgroundImageFix"/>
<feBlend mode="normal" in="SourceGraphic" in2="BackgroundImageFix" result="shape"/>
<feGaussianBlur stdDeviation="33.0644" result="effect1_foregroundBlur_1183_85448"/>
</filter>
<filter id="filter3_f_1183_85448" x="853.852" y="68.3693" width="605.101" height="347.707" filterUnits="userSpaceOnUse" color-interpolation-filters="sRGB">
<feFlood flood-opacity="0" result="BackgroundImageFix"/>
<feBlend mode="normal" in="SourceGraphic" in2="BackgroundImageFix" result="shape"/>
<feGaussianBlur stdDeviation="33.0644" result="effect1_foregroundBlur_1183_85448"/>
</filter>
<filter id="filter4_f_1183_85448" x="1079.84" y="68.3693" width="605.101" height="347.707" filterUnits="userSpaceOnUse" color-interpolation-filters="sRGB">
<feFlood flood-opacity="0" result="BackgroundImageFix"/>
<feBlend mode="normal" in="SourceGraphic" in2="BackgroundImageFix" result="shape"/>
<feGaussianBlur stdDeviation="33.0644" result="effect1_foregroundBlur_1183_85448"/>
</filter>
<filter id="filter5_f_1183_85448" x="252.672" y="-36.9783" width="605.101" height="347.707" filterUnits="userSpaceOnUse" color-interpolation-filters="sRGB">
<feFlood flood-opacity="0" result="BackgroundImageFix"/>
<feBlend mode="normal" in="SourceGraphic" in2="BackgroundImageFix" result="shape"/>
<feGaussianBlur stdDeviation="33.0644" result="effect1_foregroundBlur_1183_85448"/>
</filter>
<filter id="filter6_f_1183_85448" x="365.668" y="-36.9783" width="605.101" height="347.707" filterUnits="userSpaceOnUse" color-interpolation-filters="sRGB">
<feFlood flood-opacity="0" result="BackgroundImageFix"/>
<feBlend mode="normal" in="SourceGraphic" in2="BackgroundImageFix" result="shape"/>
<feGaussianBlur stdDeviation="33.0644" result="effect1_foregroundBlur_1183_85448"/>
</filter>
<filter id="filter7_f_1183_85448" x="543.465" y="-138.935" width="605.101" height="347.707" filterUnits="userSpaceOnUse" color-interpolation-filters="sRGB">
<feFlood flood-opacity="0" result="BackgroundImageFix"/>
<feBlend mode="normal" in="SourceGraphic" in2="BackgroundImageFix" result="shape"/>
<feGaussianBlur stdDeviation="33.0644" result="effect1_foregroundBlur_1183_85448"/>
</filter>
<filter id="filter8_f_1183_85448" x="591.649" y="-36.9783" width="605.101" height="347.707" filterUnits="userSpaceOnUse" color-interpolation-filters="sRGB">
<feFlood flood-opacity="0" result="BackgroundImageFix"/>
<feBlend mode="normal" in="SourceGraphic" in2="BackgroundImageFix" result="shape"/>
<feGaussianBlur stdDeviation="33.0644" result="effect1_foregroundBlur_1183_85448"/>
</filter>
<filter id="filter9_f_1183_85448" x="704.653" y="-36.9783" width="605.101" height="347.707" filterUnits="userSpaceOnUse" color-interpolation-filters="sRGB">
<feFlood flood-opacity="0" result="BackgroundImageFix"/>
<feBlend mode="normal" in="SourceGraphic" in2="BackgroundImageFix" result="shape"/>
<feGaussianBlur stdDeviation="33.0644" result="effect1_foregroundBlur_1183_85448"/>
</filter>
<filter id="filter10_f_1183_85448" x="817.645" y="-36.9783" width="605.101" height="347.707" filterUnits="userSpaceOnUse" color-interpolation-filters="sRGB">
<feFlood flood-opacity="0" result="BackgroundImageFix"/>
<feBlend mode="normal" in="SourceGraphic" in2="BackgroundImageFix" result="shape"/>
<feGaussianBlur stdDeviation="33.0644" result="effect1_foregroundBlur_1183_85448"/>
</filter>
<filter id="filter11_f_1183_85448" x="930.625" y="-36.9783" width="605.101" height="347.707" filterUnits="userSpaceOnUse" color-interpolation-filters="sRGB">
<feFlood flood-opacity="0" result="BackgroundImageFix"/>
<feBlend mode="normal" in="SourceGraphic" in2="BackgroundImageFix" result="shape"/>
<feGaussianBlur stdDeviation="33.0644" result="effect1_foregroundBlur_1183_85448"/>
</filter>
<filter id="filter12_f_1183_85448" x="1043.63" y="-36.9783" width="605.101" height="347.707" filterUnits="userSpaceOnUse" color-interpolation-filters="sRGB">
<feFlood flood-opacity="0" result="BackgroundImageFix"/>
<feBlend mode="normal" in="SourceGraphic" in2="BackgroundImageFix" result="shape"/>
<feGaussianBlur stdDeviation="33.0644" result="effect1_foregroundBlur_1183_85448"/>
</filter>
<filter id="filter13_f_1183_85448" x="174.106" y="-242.472" width="605.101" height="347.707" filterUnits="userSpaceOnUse" color-interpolation-filters="sRGB">
<feFlood flood-opacity="0" result="BackgroundImageFix"/>
<feBlend mode="normal" in="SourceGraphic" in2="BackgroundImageFix" result="shape"/>
<feGaussianBlur stdDeviation="33.0644" result="effect1_foregroundBlur_1183_85448"/>
</filter>
<filter id="filter14_f_1183_85448" x="287.094" y="-242.472" width="605.101" height="347.707" filterUnits="userSpaceOnUse" color-interpolation-filters="sRGB">
<feFlood flood-opacity="0" result="BackgroundImageFix"/>
<feBlend mode="normal" in="SourceGraphic" in2="BackgroundImageFix" result="shape"/>
<feGaussianBlur stdDeviation="33.0644" result="effect1_foregroundBlur_1183_85448"/>
</filter>
<filter id="filter15_f_1183_85448" x="619.528" y="-242.472" width="605.101" height="347.707" filterUnits="userSpaceOnUse" color-interpolation-filters="sRGB">
<feFlood flood-opacity="0" result="BackgroundImageFix"/>
<feBlend mode="normal" in="SourceGraphic" in2="BackgroundImageFix" result="shape"/>
<feGaussianBlur stdDeviation="33.0644" result="effect1_foregroundBlur_1183_85448"/>
</filter>
<filter id="filter16_f_1183_85448" x="655.953" y="-140.33" width="605.101" height="347.707" filterUnits="userSpaceOnUse" color-interpolation-filters="sRGB">
<feFlood flood-opacity="0" result="BackgroundImageFix"/>
<feBlend mode="normal" in="SourceGraphic" in2="BackgroundImageFix" result="shape"/>
<feGaussianBlur stdDeviation="33.0644" result="effect1_foregroundBlur_1183_85448"/>
</filter>
<filter id="filter17_f_1183_85448" x="733.828" y="-242.472" width="605.101" height="347.707" filterUnits="userSpaceOnUse" color-interpolation-filters="sRGB">
<feFlood flood-opacity="0" result="BackgroundImageFix"/>
<feBlend mode="normal" in="SourceGraphic" in2="BackgroundImageFix" result="shape"/>
<feGaussianBlur stdDeviation="33.0644" result="effect1_foregroundBlur_1183_85448"/>
</filter>
<filter id="filter18_f_1183_85448" x="852.059" y="-242.472" width="605.101" height="347.707" filterUnits="userSpaceOnUse" color-interpolation-filters="sRGB">
<feFlood flood-opacity="0" result="BackgroundImageFix"/>
<feBlend mode="normal" in="SourceGraphic" in2="BackgroundImageFix" result="shape"/>
<feGaussianBlur stdDeviation="33.0644" result="effect1_foregroundBlur_1183_85448"/>
</filter>
<filter id="filter19_f_1183_85448" x="965.047" y="-242.472" width="605.101" height="347.707" filterUnits="userSpaceOnUse" color-interpolation-filters="sRGB">
<feFlood flood-opacity="0" result="BackgroundImageFix"/>
<feBlend mode="normal" in="SourceGraphic" in2="BackgroundImageFix" result="shape"/>
<feGaussianBlur stdDeviation="33.0644" result="effect1_foregroundBlur_1183_85448"/>
</filter>
<filter id="filter20_f_1183_85448" x="433.039" y="-138.935" width="605.101" height="347.707" filterUnits="userSpaceOnUse" color-interpolation-filters="sRGB">
<feFlood flood-opacity="0" result="BackgroundImageFix"/>
<feBlend mode="normal" in="SourceGraphic" in2="BackgroundImageFix" result="shape"/>
<feGaussianBlur stdDeviation="33.0644" result="effect1_foregroundBlur_1183_85448"/>
</filter>
<filter id="filter21_f_1183_85448" x="1080.08" y="-138.935" width="605.101" height="347.707" filterUnits="userSpaceOnUse" color-interpolation-filters="sRGB">
<feFlood flood-opacity="0" result="BackgroundImageFix"/>
<feBlend mode="normal" in="SourceGraphic" in2="BackgroundImageFix" result="shape"/>
<feGaussianBlur stdDeviation="33.0644" result="effect1_foregroundBlur_1183_85448"/>
</filter>
<filter id="filter22_f_1183_85448" x="965.785" y="-138.935" width="605.101" height="347.707" filterUnits="userSpaceOnUse" color-interpolation-filters="sRGB">
<feFlood flood-opacity="0" result="BackgroundImageFix"/>
<feBlend mode="normal" in="SourceGraphic" in2="BackgroundImageFix" result="shape"/>
<feGaussianBlur stdDeviation="33.0644" result="effect1_foregroundBlur_1183_85448"/>
</filter>
<filter id="filter23_f_1183_85448" x="769.957" y="-140.332" width="605.101" height="347.707" filterUnits="userSpaceOnUse" color-interpolation-filters="sRGB">
<feFlood flood-opacity="0" result="BackgroundImageFix"/>
<feBlend mode="normal" in="SourceGraphic" in2="BackgroundImageFix" result="shape"/>
<feGaussianBlur stdDeviation="33.0644" result="effect1_foregroundBlur_1183_85448"/>
</filter>
<radialGradient id="paint0_radial_1183_85448" cx="0" cy="0" r="1" gradientUnits="userSpaceOnUse" gradientTransform="translate(590.201 419.345) rotate(180) scale(52.7805 28.6397)">
<stop stopColor="#121212" stop-opacity="0"/>
<stop offset="0.630208" stop-color="#121212" stop-opacity="0.35"/>
<stop offset="1" stop-color="#121212" stop-opacity="0.88"/>
</radialGradient>
<linearGradient id="paint1_linear_1183_85448" x1="478.503" y1="40.7807" x2="586.633" y2="403.889" gradientUnits="userSpaceOnUse">
<stop offset="0.25" stop-color="#39617D" stop-opacity="0.32"/>
<stop offset="0.630208" stop-color="#00DED1" stop-opacity="0.12"/>
<stop offset="1" stop-color="#343434" stop-opacity="0.51"/>
</linearGradient>
<linearGradient id="paint2_linear_1183_85448" x1="630.361" y1="376.429" x2="534.063" y2="461.14" gradientUnits="userSpaceOnUse">
<stop stopColor="#2E2E2E"/>
<stop offset="1" stop-color="#232323"/>
</linearGradient>
<radialGradient id="paint3_radial_1183_85448" cx="0" cy="0" r="1" gradientUnits="userSpaceOnUse" gradientTransform="translate(703.193 419.345) rotate(180) scale(52.7805 28.6397)">
<stop stopColor="#121212" stop-opacity="0"/>
<stop offset="0.630208" stop-color="#121212" stop-opacity="0.35"/>
<stop offset="1" stop-color="#121212" stop-opacity="0.88"/>
</radialGradient>
<linearGradient id="paint4_linear_1183_85448" x1="591.499" y1="40.7807" x2="699.629" y2="403.889" gradientUnits="userSpaceOnUse">
<stop offset="0.25" stop-color="#39617D" stop-opacity="0.32"/>
<stop offset="0.630208" stop-color="#00DED1" stop-opacity="0.12"/>
<stop offset="1" stop-color="#343434" stop-opacity="0.51"/>
</linearGradient>
<linearGradient id="paint5_linear_1183_85448" x1="743.35" y1="376.429" x2="647.051" y2="461.14" gradientUnits="userSpaceOnUse">
<stop stopColor="#2E2E2E"/>
<stop offset="1" stop-color="#232323"/>
</linearGradient>
<radialGradient id="paint6_radial_1183_85448" cx="0" cy="0" r="1" gradientUnits="userSpaceOnUse" gradientTransform="translate(1041.17 419.345) rotate(180) scale(52.7805 28.6397)">
<stop stopColor="#121212" stop-opacity="0"/>
<stop offset="0.630208" stop-color="#121212" stop-opacity="0.35"/>
<stop offset="1" stop-color="#121212" stop-opacity="0.88"/>
</radialGradient>
<linearGradient id="paint7_linear_1183_85448" x1="929.476" y1="40.7807" x2="1037.61" y2="403.889" gradientUnits="userSpaceOnUse">
<stop offset="0.25" stop-color="#39617D" stop-opacity="0.32"/>
<stop offset="0.630208" stop-color="#00DED1" stop-opacity="0.12"/>
<stop offset="1" stop-color="#343434" stop-opacity="0.51"/>
</linearGradient>
<linearGradient id="paint8_linear_1183_85448" x1="1081.33" y1="376.429" x2="985.028" y2="461.14" gradientUnits="userSpaceOnUse">
<stop stopColor="#2E2E2E"/>
<stop offset="1" stop-color="#232323"/>
</linearGradient>
<radialGradient id="paint9_radial_1183_85448" cx="0" cy="0" r="1" gradientUnits="userSpaceOnUse" gradientTransform="translate(1155.16 419.345) rotate(180) scale(52.7805 28.6397)">
<stop stopColor="#121212" stop-opacity="0"/>
<stop offset="0.630208" stop-color="#121212" stop-opacity="0.35"/>
<stop offset="1" stop-color="#121212" stop-opacity="0.88"/>
</radialGradient>
<linearGradient id="paint10_linear_1183_85448" x1="1043.47" y1="40.7807" x2="1151.6" y2="403.889" gradientUnits="userSpaceOnUse">
<stop offset="0.25" stop-color="#39617D" stop-opacity="0.32"/>
<stop offset="0.630208" stop-color="#00DED1" stop-opacity="0.12"/>
<stop offset="1" stop-color="#343434" stop-opacity="0.51"/>
</linearGradient>
<linearGradient id="paint11_linear_1183_85448" x1="1195.32" y1="376.429" x2="1099.02" y2="461.14" gradientUnits="userSpaceOnUse">
<stop stopColor="#2E2E2E"/>
<stop offset="1" stop-color="#232323"/>
</linearGradient>
<radialGradient id="paint12_radial_1183_85448" cx="0" cy="0" r="1" gradientUnits="userSpaceOnUse" gradientTransform="translate(1381.15 419.345) rotate(180) scale(52.7805 28.6397)">
<stop stopColor="#121212" stop-opacity="0"/>
<stop offset="0.630208" stop-color="#121212" stop-opacity="0.35"/>
<stop offset="1" stop-color="#121212" stop-opacity="0.88"/>
</radialGradient>
<linearGradient id="paint13_linear_1183_85448" x1="1269.46" y1="40.7807" x2="1377.59" y2="403.889" gradientUnits="userSpaceOnUse">
<stop offset="0.25" stop-color="#39617D" stop-opacity="0.32"/>
<stop offset="0.630208" stop-color="#00DED1" stop-opacity="0.12"/>
<stop offset="1" stop-color="#343434" stop-opacity="0.51"/>
</linearGradient>
<linearGradient id="paint14_linear_1183_85448" x1="1421.31" y1="376.429" x2="1325.01" y2="461.14" gradientUnits="userSpaceOnUse">
<stop stopColor="#2E2E2E"/>
<stop offset="1" stop-color="#232323"/>
</linearGradient>
<radialGradient id="paint15_radial_1183_85448" cx="0" cy="0" r="1" gradientUnits="userSpaceOnUse" gradientTransform="translate(553.99 313.995) rotate(180) scale(52.7805 28.6397)">
<stop stopColor="#121212" stop-opacity="0"/>
<stop offset="0.630208" stop-color="#121212" stop-opacity="0.35"/>
<stop offset="1" stop-color="#121212" stop-opacity="0.88"/>
</radialGradient>
<linearGradient id="paint16_linear_1183_85448" x1="442.288" y1="-64.567" x2="550.418" y2="298.541" gradientUnits="userSpaceOnUse">
<stop offset="0.25" stop-color="#39617D" stop-opacity="0.32"/>
<stop offset="0.630208" stop-color="#00DED1" stop-opacity="0.12"/>
<stop offset="1" stop-color="#343434" stop-opacity="0.51"/>
</linearGradient>
<linearGradient id="paint17_linear_1183_85448" x1="594.143" y1="271.079" x2="497.844" y2="355.79" gradientUnits="userSpaceOnUse">
<stop stopColor="#2E2E2E"/>
<stop offset="1" stop-color="#232323"/>
</linearGradient>
<radialGradient id="paint18_radial_1183_85448" cx="0" cy="0" r="1" gradientUnits="userSpaceOnUse" gradientTransform="translate(666.986 313.995) rotate(180) scale(52.7805 28.6397)">
<stop stopColor="#121212" stop-opacity="0"/>
<stop offset="0.630208" stop-color="#121212" stop-opacity="0.35"/>
<stop offset="1" stop-color="#121212" stop-opacity="0.88"/>
</radialGradient>
<linearGradient id="paint19_linear_1183_85448" x1="555.284" y1="-64.567" x2="663.414" y2="298.541" gradientUnits="userSpaceOnUse">
<stop offset="0.25" stop-color="#39617D" stop-opacity="0.32"/>
<stop offset="0.630208" stop-color="#00DED1" stop-opacity="0.12"/>
<stop offset="1" stop-color="#343434" stop-opacity="0.51"/>
</linearGradient>
<linearGradient id="paint20_linear_1183_85448" x1="707.139" y1="271.079" x2="610.84" y2="355.79" gradientUnits="userSpaceOnUse">
<stop stopColor="#2E2E2E"/>
<stop offset="1" stop-color="#232323"/>
</linearGradient>
<radialGradient id="paint21_radial_1183_85448" cx="0" cy="0" r="1" gradientUnits="userSpaceOnUse" gradientTransform="translate(844.783 212.038) rotate(180) scale(52.7805 28.6397)">
<stop stopColor="#121212" stop-opacity="0"/>
<stop offset="0.630208" stop-color="#121212" stop-opacity="0.35"/>
<stop offset="1" stop-color="#121212" stop-opacity="0.88"/>
</radialGradient>
<linearGradient id="paint22_linear_1183_85448" x1="733.081" y1="-166.524" x2="841.211" y2="196.584" gradientUnits="userSpaceOnUse">
<stop offset="0.25" stop-color="#39617D" stop-opacity="0.32"/>
<stop offset="0.630208" stop-color="#00DED1" stop-opacity="0.12"/>
<stop offset="1" stop-color="#343434" stop-opacity="0.51"/>
</linearGradient>
<linearGradient id="paint23_linear_1183_85448" x1="819.566" y1="198.613" x2="864.628" y2="198.613" gradientUnits="userSpaceOnUse">
<stop stopColor="#F4FFFA"/>
<stop offset="1" stop-color="#D8FFEC" stop-opacity="0.6"/>
</linearGradient>
<linearGradient id="paint24_linear_1183_85448" x1="884.932" y1="169.122" x2="788.633" y2="253.833" gradientUnits="userSpaceOnUse">
<stop stopColor="#2E2E2E"/>
<stop offset="1" stop-color="#232323"/>
</linearGradient>
<radialGradient id="paint25_radial_1183_85448" cx="0" cy="0" r="1" gradientUnits="userSpaceOnUse" gradientTransform="translate(892.971 313.995) rotate(180) scale(52.7805 28.6397)">
<stop stopColor="#121212" stop-opacity="0"/>
<stop offset="0.630208" stop-color="#121212" stop-opacity="0.35"/>
<stop offset="1" stop-color="#121212" stop-opacity="0.88"/>
</radialGradient>
<linearGradient id="paint26_linear_1183_85448" x1="781.265" y1="-64.567" x2="889.395" y2="298.541" gradientUnits="userSpaceOnUse">
<stop offset="0.25" stop-color="#39617D" stop-opacity="0.32"/>
<stop offset="0.630208" stop-color="#00DED1" stop-opacity="0.12"/>
<stop offset="1" stop-color="#343434" stop-opacity="0.51"/>
</linearGradient>
<linearGradient id="paint27_linear_1183_85448" x1="933.119" y1="271.079" x2="836.82" y2="355.79" gradientUnits="userSpaceOnUse">
<stop stopColor="#2E2E2E"/>
<stop offset="1" stop-color="#232323"/>
</linearGradient>
<radialGradient id="paint28_radial_1183_85448" cx="0" cy="0" r="1" gradientUnits="userSpaceOnUse" gradientTransform="translate(1005.97 313.995) rotate(180) scale(52.7805 28.6397)">
<stop stopColor="#121212" stop-opacity="0"/>
<stop offset="0.630208" stop-color="#121212" stop-opacity="0.35"/>
<stop offset="1" stop-color="#121212" stop-opacity="0.88"/>
</radialGradient>
<linearGradient id="paint29_linear_1183_85448" x1="894.268" y1="-64.567" x2="1002.4" y2="298.541" gradientUnits="userSpaceOnUse">
<stop offset="0.25" stop-color="#39617D" stop-opacity="0.32"/>
<stop offset="0.630208" stop-color="#00DED1" stop-opacity="0.12"/>
<stop offset="1" stop-color="#343434" stop-opacity="0.51"/>
</linearGradient>
<linearGradient id="paint30_linear_1183_85448" x1="992.128" y1="324.946" x2="1003.24" y2="324.946" gradientUnits="userSpaceOnUse">
<stop stopColor="#F4FFFA"/>
<stop offset="1" stop-color="#D8FFEC" stop-opacity="0.6"/>
</linearGradient>
<linearGradient id="paint31_linear_1183_85448" x1="1046.12" y1="271.079" x2="949.82" y2="355.79" gradientUnits="userSpaceOnUse">
<stop stopColor="#2E2E2E"/>
<stop offset="1" stop-color="#232323"/>
</linearGradient>
<radialGradient id="paint32_radial_1183_85448" cx="0" cy="0" r="1" gradientUnits="userSpaceOnUse" gradientTransform="translate(1118.96 313.995) rotate(180) scale(52.7805 28.6397)">
<stop stopColor="#121212" stop-opacity="0"/>
<stop offset="0.630208" stop-color="#121212" stop-opacity="0.35"/>
<stop offset="1" stop-color="#121212" stop-opacity="0.88"/>
</radialGradient>
<linearGradient id="paint33_linear_1183_85448" x1="1007.26" y1="-64.567" x2="1115.39" y2="298.541" gradientUnits="userSpaceOnUse">
<stop offset="0.25" stop-color="#39617D" stop-opacity="0.32"/>
<stop offset="0.630208" stop-color="#00DED1" stop-opacity="0.12"/>
<stop offset="1" stop-color="#343434" stop-opacity="0.51"/>
</linearGradient>
<linearGradient id="paint34_linear_1183_85448" x1="1159.11" y1="271.079" x2="1062.81" y2="355.79" gradientUnits="userSpaceOnUse">
<stop stopColor="#2E2E2E"/>
<stop offset="1" stop-color="#232323"/>
</linearGradient>
<radialGradient id="paint35_radial_1183_85448" cx="0" cy="0" r="1" gradientUnits="userSpaceOnUse" gradientTransform="translate(1231.95 313.995) rotate(180) scale(52.7805 28.6397)">
<stop stopColor="#121212" stop-opacity="0"/>
<stop offset="0.630208" stop-color="#121212" stop-opacity="0.35"/>
<stop offset="1" stop-color="#121212" stop-opacity="0.88"/>
</radialGradient>
<linearGradient id="paint36_linear_1183_85448" x1="1120.24" y1="-64.567" x2="1228.37" y2="298.541" gradientUnits="userSpaceOnUse">
<stop offset="0.25" stop-color="#39617D" stop-opacity="0.32"/>
<stop offset="0.630208" stop-color="#00DED1" stop-opacity="0.12"/>
<stop offset="1" stop-color="#343434" stop-opacity="0.51"/>
</linearGradient>
<linearGradient id="paint37_linear_1183_85448" x1="1216.94" y1="325.603" x2="1229.58" y2="325.603" gradientUnits="userSpaceOnUse">
<stop stopColor="#F4FFFA"/>
<stop offset="1" stop-color="#D8FFEC" stop-opacity="0.6"/>
</linearGradient>
<linearGradient id="paint38_linear_1183_85448" x1="1272.1" y1="271.079" x2="1175.8" y2="355.79" gradientUnits="userSpaceOnUse">
<stop stopColor="#2E2E2E"/>
<stop offset="1" stop-color="#232323"/>
</linearGradient>
<radialGradient id="paint39_radial_1183_85448" cx="0" cy="0" r="1" gradientUnits="userSpaceOnUse" gradientTransform="translate(1344.94 313.995) rotate(180) scale(52.7805 28.6397)">
<stop stopColor="#121212" stop-opacity="0"/>
<stop offset="0.630208" stop-color="#121212" stop-opacity="0.35"/>
<stop offset="1" stop-color="#121212" stop-opacity="0.88"/>
</radialGradient>
<linearGradient id="paint40_linear_1183_85448" x1="1233.24" y1="-64.567" x2="1341.37" y2="298.541" gradientUnits="userSpaceOnUse">
<stop offset="0.25" stop-color="#39617D" stop-opacity="0.32"/>
<stop offset="0.630208" stop-color="#00DED1" stop-opacity="0.12"/>
<stop offset="1" stop-color="#343434" stop-opacity="0.51"/>
</linearGradient>
<linearGradient id="paint41_linear_1183_85448" x1="1385.1" y1="271.079" x2="1288.8" y2="355.79" gradientUnits="userSpaceOnUse">
<stop stopColor="#2E2E2E"/>
<stop offset="1" stop-color="#232323"/>
</linearGradient>
<radialGradient id="paint42_radial_1183_85448" cx="0" cy="0" r="1" gradientUnits="userSpaceOnUse" gradientTransform="translate(475.42 108.501) rotate(180) scale(52.7805 28.6397)">
<stop stopColor="#121212" stop-opacity="0"/>
<stop offset="0.630208" stop-color="#121212" stop-opacity="0.35"/>
<stop offset="1" stop-color="#121212" stop-opacity="0.88"/>
</radialGradient>
<linearGradient id="paint43_linear_1183_85448" x1="363.722" y1="-270.061" x2="471.852" y2="93.0469" gradientUnits="userSpaceOnUse">
<stop offset="0.25" stop-color="#39617D" stop-opacity="0.32"/>
<stop offset="0.630208" stop-color="#00DED1" stop-opacity="0.12"/>
<stop offset="1" stop-color="#343434" stop-opacity="0.51"/>
</linearGradient>
<linearGradient id="paint44_linear_1183_85448" x1="515.572" y1="65.5853" x2="419.274" y2="150.296" gradientUnits="userSpaceOnUse">
<stop stopColor="#2E2E2E"/>
<stop offset="1" stop-color="#232323"/>
</linearGradient>
<radialGradient id="paint45_radial_1183_85448" cx="0" cy="0" r="1" gradientUnits="userSpaceOnUse" gradientTransform="translate(588.412 108.501) rotate(180) scale(52.7805 28.6397)">
<stop stopColor="#121212" stop-opacity="0"/>
<stop offset="0.630208" stop-color="#121212" stop-opacity="0.35"/>
<stop offset="1" stop-color="#121212" stop-opacity="0.88"/>
</radialGradient>
<linearGradient id="paint46_linear_1183_85448" x1="476.71" y1="-270.061" x2="584.84" y2="93.0469" gradientUnits="userSpaceOnUse">
<stop offset="0.25" stop-color="#39617D" stop-opacity="0.32"/>
<stop offset="0.630208" stop-color="#00DED1" stop-opacity="0.12"/>
<stop offset="1" stop-color="#343434" stop-opacity="0.51"/>
</linearGradient>
<linearGradient id="paint47_linear_1183_85448" x1="628.565" y1="65.5853" x2="532.266" y2="150.296" gradientUnits="userSpaceOnUse">
<stop stopColor="#2E2E2E"/>
<stop offset="1" stop-color="#232323"/>
</linearGradient>
<radialGradient id="paint48_radial_1183_85448" cx="0" cy="0" r="1" gradientUnits="userSpaceOnUse" gradientTransform="translate(920.842 108.501) rotate(180) scale(52.7805 28.6397)">
<stop stopColor="#121212" stop-opacity="0"/>
<stop offset="0.630208" stop-color="#121212" stop-opacity="0.35"/>
<stop offset="1" stop-color="#121212" stop-opacity="0.88"/>
</radialGradient>
<linearGradient id="paint49_linear_1183_85448" x1="809.143" y1="-270.061" x2="917.274" y2="93.0469" gradientUnits="userSpaceOnUse">
<stop offset="0.25" stop-color="#39617D" stop-opacity="0.32"/>
<stop offset="0.630208" stop-color="#00DED1" stop-opacity="0.12"/>
<stop offset="1" stop-color="#343434" stop-opacity="0.51"/>
</linearGradient>
<linearGradient id="paint50_linear_1183_85448" x1="897.302" y1="94.8848" x2="939.441" y2="94.8848" gradientUnits="userSpaceOnUse">
<stop stopColor="#F4FFFA"/>
<stop offset="1" stop-color="#D8FFEC" stop-opacity="0.6"/>
</linearGradient>
<linearGradient id="paint51_linear_1183_85448" x1="960.994" y1="65.5853" x2="864.695" y2="150.296" gradientUnits="userSpaceOnUse">
<stop stopColor="#2E2E2E"/>
<stop offset="1" stop-color="#232323"/>
</linearGradient>
<radialGradient id="paint52_radial_1183_85448" cx="0" cy="0" r="1" gradientUnits="userSpaceOnUse" gradientTransform="translate(957.271 210.643) rotate(180) scale(52.7805 28.6397)">
<stop stopColor="#121212" stop-opacity="0"/>
<stop offset="0.630208" stop-color="#121212" stop-opacity="0.35"/>
<stop offset="1" stop-color="#121212" stop-opacity="0.88"/>
</radialGradient>
<linearGradient id="paint53_linear_1183_85448" x1="845.569" y1="-167.919" x2="953.7" y2="195.19" gradientUnits="userSpaceOnUse">
<stop offset="0.25" stop-color="#39617D" stop-opacity="0.32"/>
<stop offset="0.630208" stop-color="#00DED1" stop-opacity="0.12"/>
<stop offset="1" stop-color="#343434" stop-opacity="0.51"/>
</linearGradient>
<linearGradient id="paint54_linear_1183_85448" x1="997.42" y1="167.728" x2="901.121" y2="252.438" gradientUnits="userSpaceOnUse">
<stop stopColor="#2E2E2E"/>
<stop offset="1" stop-color="#232323"/>
</linearGradient>
<radialGradient id="paint55_radial_1183_85448" cx="0" cy="0" r="1" gradientUnits="userSpaceOnUse" gradientTransform="translate(1035.15 108.501) rotate(180) scale(52.7805 28.6397)">
<stop stopColor="#121212" stop-opacity="0"/>
<stop offset="0.630208" stop-color="#121212" stop-opacity="0.35"/>
<stop offset="1" stop-color="#121212" stop-opacity="0.88"/>
</radialGradient>
<linearGradient id="paint56_linear_1183_85448" x1="923.444" y1="-270.061" x2="1031.57" y2="93.0469" gradientUnits="userSpaceOnUse">
<stop offset="0.25" stop-color="#39617D" stop-opacity="0.32"/>
<stop offset="0.630208" stop-color="#00DED1" stop-opacity="0.12"/>
<stop offset="1" stop-color="#343434" stop-opacity="0.51"/>
</linearGradient>
<linearGradient id="paint57_linear_1183_85448" x1="1075.29" y1="65.5853" x2="978.992" y2="150.296" gradientUnits="userSpaceOnUse">
<stop stopColor="#2E2E2E"/>
<stop offset="1" stop-color="#232323"/>
</linearGradient>
<radialGradient id="paint58_radial_1183_85448" cx="0" cy="0" r="1" gradientUnits="userSpaceOnUse" gradientTransform="translate(1153.37 108.501) rotate(180) scale(52.7805 28.6397)">
<stop stopColor="#121212" stop-opacity="0"/>
<stop offset="0.630208" stop-color="#121212" stop-opacity="0.35"/>
<stop offset="1" stop-color="#121212" stop-opacity="0.88"/>
</radialGradient>
<linearGradient id="paint59_linear_1183_85448" x1="1041.67" y1="-270.061" x2="1149.81" y2="93.0469" gradientUnits="userSpaceOnUse">
<stop offset="0.25" stop-color="#39617D" stop-opacity="0.32"/>
<stop offset="0.630208" stop-color="#00DED1" stop-opacity="0.12"/>
<stop offset="1" stop-color="#343434" stop-opacity="0.51"/>
</linearGradient>
<linearGradient id="paint60_linear_1183_85448" x1="1138.78" y1="119.347" x2="1150.9" y2="119.347" gradientUnits="userSpaceOnUse">
<stop stopColor="#F4FFFA"/>
<stop offset="1" stop-color="#D8FFEC" stop-opacity="0.6"/>
</linearGradient>
<linearGradient id="paint61_linear_1183_85448" x1="1193.53" y1="65.5853" x2="1097.23" y2="150.296" gradientUnits="userSpaceOnUse">
<stop stopColor="#2E2E2E"/>
<stop offset="1" stop-color="#232323"/>
</linearGradient>
<radialGradient id="paint62_radial_1183_85448" cx="0" cy="0" r="1" gradientUnits="userSpaceOnUse" gradientTransform="translate(1266.37 108.501) rotate(180) scale(52.7805 28.6397)">
<stop stopColor="#121212" stop-opacity="0"/>
<stop offset="0.630208" stop-color="#121212" stop-opacity="0.35"/>
<stop offset="1" stop-color="#121212" stop-opacity="0.88"/>
</radialGradient>
<linearGradient id="paint63_linear_1183_85448" x1="1154.66" y1="-270.061" x2="1262.79" y2="93.0469" gradientUnits="userSpaceOnUse">
<stop offset="0.25" stop-color="#39617D" stop-opacity="0.32"/>
<stop offset="0.630208" stop-color="#00DED1" stop-opacity="0.12"/>
<stop offset="1" stop-color="#343434" stop-opacity="0.51"/>
</linearGradient>
<linearGradient id="paint64_linear_1183_85448" x1="1306.52" y1="65.5853" x2="1210.22" y2="150.296" gradientUnits="userSpaceOnUse">
<stop stopColor="#2E2E2E"/>
<stop offset="1" stop-color="#232323"/>
</linearGradient>
<radialGradient id="paint65_radial_1183_85448" cx="0" cy="0" r="1" gradientUnits="userSpaceOnUse" gradientTransform="translate(734.357 212.038) rotate(180) scale(52.7805 28.6397)">
<stop stopColor="#121212" stop-opacity="0"/>
<stop offset="0.630208" stop-color="#121212" stop-opacity="0.35"/>
<stop offset="1" stop-color="#121212" stop-opacity="0.88"/>
</radialGradient>
<linearGradient id="paint66_linear_1183_85448" x1="622.655" y1="-166.524" x2="730.785" y2="196.584" gradientUnits="userSpaceOnUse">
<stop offset="0.25" stop-color="#39617D" stop-opacity="0.32"/>
<stop offset="0.630208" stop-color="#00DED1" stop-opacity="0.12"/>
<stop offset="1" stop-color="#343434" stop-opacity="0.51"/>
</linearGradient>
<linearGradient id="paint67_linear_1183_85448" x1="774.51" y1="169.122" x2="678.211" y2="253.833" gradientUnits="userSpaceOnUse">
<stop stopColor="#2E2E2E"/>
<stop offset="1" stop-color="#232323"/>
</linearGradient>
<radialGradient id="paint68_radial_1183_85448" cx="0" cy="0" r="1" gradientUnits="userSpaceOnUse" gradientTransform="translate(1381.4 212.038) rotate(180) scale(52.7805 28.6397)">
<stop stopColor="#121212" stop-opacity="0"/>
<stop offset="0.630208" stop-color="#121212" stop-opacity="0.35"/>
<stop offset="1" stop-color="#121212" stop-opacity="0.88"/>
</radialGradient>
<linearGradient id="paint69_linear_1183_85448" x1="1269.69" y1="-166.524" x2="1377.82" y2="196.584" gradientUnits="userSpaceOnUse">
<stop offset="0.25" stop-color="#39617D" stop-opacity="0.32"/>
<stop offset="0.630208" stop-color="#00DED1" stop-opacity="0.12"/>
<stop offset="1" stop-color="#343434" stop-opacity="0.51"/>
</linearGradient>
<linearGradient id="paint70_linear_1183_85448" x1="1421.55" y1="169.122" x2="1325.25" y2="253.833" gradientUnits="userSpaceOnUse">
<stop stopColor="#2E2E2E"/>
<stop offset="1" stop-color="#232323"/>
</linearGradient>
<radialGradient id="paint71_radial_1183_85448" cx="0" cy="0" r="1" gradientUnits="userSpaceOnUse" gradientTransform="translate(1267.1 212.038) rotate(180) scale(52.7805 28.6397)">
<stop stopColor="#121212" stop-opacity="0"/>
<stop offset="0.630208" stop-color="#121212" stop-opacity="0.35"/>
<stop offset="1" stop-color="#121212" stop-opacity="0.88"/>
</radialGradient>
<linearGradient id="paint72_linear_1183_85448" x1="1155.4" y1="-166.524" x2="1263.53" y2="196.584" gradientUnits="userSpaceOnUse">
<stop offset="0.25" stop-color="#39617D" stop-opacity="0.32"/>
<stop offset="0.630208" stop-color="#00DED1" stop-opacity="0.12"/>
<stop offset="1" stop-color="#343434" stop-opacity="0.51"/>
</linearGradient>
<linearGradient id="paint73_linear_1183_85448" x1="1307.26" y1="169.122" x2="1210.96" y2="253.833" gradientUnits="userSpaceOnUse">
<stop stopColor="#2E2E2E"/>
<stop offset="1" stop-color="#232323"/>
</linearGradient>
<radialGradient id="paint74_radial_1183_85448" cx="0" cy="0" r="1" gradientUnits="userSpaceOnUse" gradientTransform="translate(478.482 1.99501) rotate(180) scale(52.7805 28.6397)">
<stop stopColor="#121212" stop-opacity="0"/>
<stop offset="0.630208" stop-color="#121212" stop-opacity="0.35"/>
<stop offset="1" stop-color="#121212" stop-opacity="0.88"/>
</radialGradient>
<linearGradient id="paint75_linear_1183_85448" x1="518.647" y1="-40.9206" x2="422.348" y2="43.79" gradientUnits="userSpaceOnUse">
<stop stopColor="#2E2E2E"/>
<stop offset="1" stop-color="#232323"/>
</linearGradient>
<radialGradient id="paint76_radial_1183_85448" cx="0" cy="0" r="1" gradientUnits="userSpaceOnUse" gradientTransform="translate(591.486 1.99501) rotate(180) scale(52.7805 28.6397)">
<stop stopColor="#121212" stop-opacity="0"/>
<stop offset="0.630208" stop-color="#121212" stop-opacity="0.35"/>
<stop offset="1" stop-color="#121212" stop-opacity="0.88"/>
</radialGradient>
<linearGradient id="paint77_linear_1183_85448" x1="631.643" y1="-40.9206" x2="535.344" y2="43.79" gradientUnits="userSpaceOnUse">
<stop stopColor="#2E2E2E"/>
<stop offset="1" stop-color="#232323"/>
</linearGradient>
<radialGradient id="paint78_radial_1183_85448" cx="0" cy="0" r="1" gradientUnits="userSpaceOnUse" gradientTransform="translate(704.478 1.99501) rotate(180) scale(52.7805 28.6397)">
<stop stopColor="#121212" stop-opacity="0"/>
<stop offset="0.630208" stop-color="#121212" stop-opacity="0.35"/>
<stop offset="1" stop-color="#121212" stop-opacity="0.88"/>
</radialGradient>
<linearGradient id="paint79_linear_1183_85448" x1="744.631" y1="-40.9206" x2="648.332" y2="43.79" gradientUnits="userSpaceOnUse">
<stop stopColor="#2E2E2E"/>
<stop offset="1" stop-color="#232323"/>
</linearGradient>
<radialGradient id="paint80_radial_1183_85448" cx="0" cy="0" r="1" gradientUnits="userSpaceOnUse" gradientTransform="translate(930.463 1.99501) rotate(180) scale(52.7805 28.6397)">
<stop stopColor="#121212" stop-opacity="0"/>
<stop offset="0.630208" stop-color="#121212" stop-opacity="0.35"/>
<stop offset="1" stop-color="#121212" stop-opacity="0.88"/>
</radialGradient>
<linearGradient id="paint81_linear_1183_85448" x1="970.615" y1="-40.9206" x2="874.317" y2="43.79" gradientUnits="userSpaceOnUse">
<stop stopColor="#2E2E2E"/>
<stop offset="1" stop-color="#232323"/>
</linearGradient>
<radialGradient id="paint82_radial_1183_85448" cx="0" cy="0" r="1" gradientUnits="userSpaceOnUse" gradientTransform="translate(1043.46 1.99501) rotate(180) scale(52.7805 28.6397)">
<stop stopColor="#121212" stop-opacity="0"/>
<stop offset="0.630208" stop-color="#121212" stop-opacity="0.35"/>
<stop offset="1" stop-color="#121212" stop-opacity="0.88"/>
</radialGradient>
<linearGradient id="paint83_linear_1183_85448" x1="1083.61" y1="-40.9206" x2="987.313" y2="43.79" gradientUnits="userSpaceOnUse">
<stop stopColor="#2E2E2E"/>
<stop offset="1" stop-color="#232323"/>
</linearGradient>
<radialGradient id="paint84_radial_1183_85448" cx="0" cy="0" r="1" gradientUnits="userSpaceOnUse" gradientTransform="translate(1269.43 1.99501) rotate(180) scale(52.7805 28.6397)">
<stop stopColor="#121212" stop-opacity="0"/>
<stop offset="0.630208" stop-color="#121212" stop-opacity="0.35"/>
<stop offset="1" stop-color="#121212" stop-opacity="0.88"/>
</radialGradient>
<linearGradient id="paint85_linear_1183_85448" x1="1309.59" y1="-40.9206" x2="1213.29" y2="43.79" gradientUnits="userSpaceOnUse">
<stop stopColor="#2E2E2E"/>
<stop offset="1" stop-color="#232323"/>
</linearGradient>
<radialGradient id="paint86_radial_1183_85448" cx="0" cy="0" r="1" gradientUnits="userSpaceOnUse" gradientTransform="translate(1382.43 1.99501) rotate(180) scale(52.7805 28.6397)">
<stop stopColor="#121212" stop-opacity="0"/>
<stop offset="0.630208" stop-color="#121212" stop-opacity="0.35"/>
<stop offset="1" stop-color="#121212" stop-opacity="0.88"/>
</radialGradient>
<linearGradient id="paint87_linear_1183_85448" x1="1422.58" y1="-40.9206" x2="1326.29" y2="43.79" gradientUnits="userSpaceOnUse">
<stop stopColor="#2E2E2E"/>
<stop offset="1" stop-color="#232323"/>
</linearGradient>
<radialGradient id="paint88_radial_1183_85448" cx="0" cy="0" r="1" gradientUnits="userSpaceOnUse" gradientTransform="translate(1071.28 210.643) rotate(180) scale(52.7805 28.6397)">
<stop stopColor="#121212" stop-opacity="0"/>
<stop offset="0.630208" stop-color="#121212" stop-opacity="0.35"/>
<stop offset="1" stop-color="#121212" stop-opacity="0.88"/>
</radialGradient>
<linearGradient id="paint89_linear_1183_85448" x1="959.573" y1="-167.92" x2="1067.7" y2="195.188" gradientUnits="userSpaceOnUse">
<stop offset="0.25" stop-color="#39617D" stop-opacity="0.32"/>
<stop offset="0.630208" stop-color="#00DED1" stop-opacity="0.12"/>
<stop offset="1" stop-color="#343434" stop-opacity="0.51"/>
</linearGradient>
<linearGradient id="paint90_linear_1183_85448" x1="1057.06" y1="221.139" x2="1068.68" y2="221.139" gradientUnits="userSpaceOnUse">
<stop stopColor="#F4FFFA"/>
<stop offset="1" stop-color="#D8FFEC" stop-opacity="0.6"/>
</linearGradient>
<linearGradient id="paint91_linear_1183_85448" x1="1111.43" y1="167.728" x2="1015.13" y2="252.438" gradientUnits="userSpaceOnUse">
<stop stopColor="#2E2E2E"/>
<stop offset="1" stop-color="#232323"/>
</linearGradient>
<radialGradient id="paint92_radial_1183_85448" cx="0" cy="0" r="1" gradientUnits="userSpaceOnUse" gradientTransform="translate(1034.68 216.223) rotate(-180) scale(771.966 771.675)">
<stop stopColor="#121212" stop-opacity="0"/>
<stop offset="0.630208" stop-color="#121212" stop-opacity="0.35"/>
<stop offset="1" stop-color="#121212" stop-opacity="0.88"/>
</radialGradient>
<clipPath id="clip0_1183_85448">
<rect x="534.957" y="373.354" width="99.3655" height="91.6495" rx="7.84464" fill="white"/>
</clipPath>
<clipPath id="clip1_1183_85448">
<rect x="647.945" y="373.354" width="99.3655" height="91.6495" rx="7.84464" fill="white"/>
</clipPath>
<clipPath id="clip2_1183_85448">
<rect x="985.922" y="373.354" width="99.3655" height="91.6495" rx="7.84464" fill="white"/>
</clipPath>
<clipPath id="clip3_1183_85448">
<rect x="1099.91" y="373.354" width="99.3655" height="91.6495" rx="7.84464" fill="white"/>
</clipPath>
<clipPath id="clip4_1183_85448">
<rect x="1325.91" y="373.354" width="99.3655" height="91.6495" rx="7.84464" fill="white"/>
</clipPath>
<clipPath id="clip5_1183_85448">
<rect x="498.738" y="268.004" width="99.3655" height="91.6495" rx="7.84464" fill="white"/>
</clipPath>
<clipPath id="clip6_1183_85448">
<rect x="611.734" y="268.004" width="99.3655" height="91.6495" rx="7.84464" fill="white"/>
</clipPath>
<clipPath id="clip7_1183_85448">
<rect x="789.527" y="166.047" width="99.3655" height="91.6495" rx="7.84464" fill="white"/>
</clipPath>
<clipPath id="clip8_1183_85448">
<rect x="837.715" y="268.004" width="99.3655" height="91.6495" rx="7.84464" fill="white"/>
</clipPath>
<clipPath id="clip9_1183_85448">
<rect x="950.715" y="268.004" width="99.3655" height="91.6495" rx="7.84464" fill="white"/>
</clipPath>
<clipPath id="clip10_1183_85448">
<rect x="1063.71" y="268.004" width="99.3655" height="91.6495" rx="7.84464" fill="white"/>
</clipPath>
<clipPath id="clip11_1183_85448">
<rect x="1176.7" y="268.004" width="99.3655" height="91.6495" rx="7.84464" fill="white"/>
</clipPath>
<clipPath id="clip12_1183_85448">
<rect x="1289.69" y="268.004" width="99.3655" height="91.6495" rx="7.84464" fill="white"/>
</clipPath>
<clipPath id="clip13_1183_85448">
<rect x="420.168" y="62.5098" width="99.3655" height="91.6495" rx="7.84464" fill="white"/>
</clipPath>
<clipPath id="clip14_1183_85448">
<rect x="533.16" y="62.5098" width="99.3655" height="91.6495" rx="7.84464" fill="white"/>
</clipPath>
<clipPath id="clip15_1183_85448">
<rect x="865.59" y="62.5098" width="99.3655" height="91.6495" rx="7.84464" fill="white"/>
</clipPath>
<clipPath id="clip16_1183_85448">
<rect x="902.016" y="164.652" width="99.3655" height="91.6495" rx="7.84464" fill="white"/>
</clipPath>
<clipPath id="clip17_1183_85448">
<rect x="979.887" y="62.5098" width="99.3655" height="91.6495" rx="7.84464" fill="white"/>
</clipPath>
<clipPath id="clip18_1183_85448">
<rect x="1098.12" y="62.5098" width="99.3655" height="91.6495" rx="7.84464" fill="white"/>
</clipPath>
<clipPath id="clip19_1183_85448">
<rect x="1211.11" y="62.5098" width="99.3655" height="91.6495" rx="7.84464" fill="white"/>
</clipPath>
<clipPath id="clip20_1183_85448">
<rect x="679.105" y="166.047" width="99.3655" height="91.6495" rx="7.84464" fill="white"/>
</clipPath>
<clipPath id="clip21_1183_85448">
<rect x="1326.14" y="166.047" width="99.3655" height="91.6495" rx="7.84464" fill="white"/>
</clipPath>
<clipPath id="clip22_1183_85448">
<rect x="1211.86" y="166.047" width="99.3655" height="91.6495" rx="7.84464" fill="white"/>
</clipPath>
<clipPath id="clip23_1183_85448">
<rect x="423.242" y="-43.9961" width="99.3655" height="91.6495" rx="7.84464" fill="white"/>
</clipPath>
<clipPath id="clip24_1183_85448">
<rect x="536.238" y="-43.9961" width="99.3655" height="91.6495" rx="7.84464" fill="white"/>
</clipPath>
<clipPath id="clip25_1183_85448">
<rect x="649.227" y="-43.9961" width="99.3655" height="91.6495" rx="7.84464" fill="white"/>
</clipPath>
<clipPath id="clip26_1183_85448">
<rect x="875.211" y="-43.9961" width="99.3655" height="91.6495" rx="7.84464" fill="white"/>
</clipPath>
<clipPath id="clip27_1183_85448">
<rect x="988.207" y="-43.9961" width="99.3655" height="91.6495" rx="7.84464" fill="white"/>
</clipPath>
<clipPath id="clip28_1183_85448">
<rect x="1214.18" y="-43.9961" width="99.3655" height="91.6495" rx="7.84464" fill="white"/>
</clipPath>
<clipPath id="clip29_1183_85448">
<rect x="1327.18" y="-43.9961" width="99.3655" height="91.6495" rx="7.84464" fill="white"/>
</clipPath>
<clipPath id="clip30_1183_85448">
<rect x="1016.03" y="164.652" width="99.3655" height="91.6495" rx="7.84464" fill="white"/>
</clipPath>
</defs>
</svg>
