<svg width="448" height="400" viewBox="0 0 448 400" fill="none" xmlns="http://www.w3.org/2000/svg">
<rect x="-18.4844" y="-15.4531" width="476.973" height="430.908" fill="#131313"/>
<rect x="321.629" y="421.027" width="43.6605" height="43.0513" transform="rotate(180 321.629 421.027)" stroke="#1C1C1C" stroke-width="0.5"/>
<rect x="277.973" y="421.027" width="43.6605" height="43.0513" transform="rotate(180 277.973 421.027)" stroke="#1C1C1C" stroke-width="0.5"/>
<rect x="452.672" y="421.027" width="43.6605" height="43.0513" transform="rotate(180 452.672 421.027)" stroke="#1C1C1C" stroke-width="0.5"/>
<rect x="234.309" y="421.027" width="43.6605" height="43.0513" transform="rotate(180 234.309 421.027)" stroke="#1C1C1C" stroke-width="0.5"/>
<rect x="409.008" y="421.027" width="43.6605" height="43.0513" transform="rotate(180 409.008 421.027)" stroke="#1C1C1C" stroke-width="0.5"/>
<rect x="190.66" y="421.027" width="43.6605" height="43.0513" transform="rotate(180 190.66 421.027)" stroke="#1C1C1C" stroke-width="0.5"/>
<rect x="365.34" y="421.027" width="43.6605" height="43.0513" transform="rotate(180 365.34 421.027)" stroke="#1C1C1C" stroke-width="0.5"/>
<rect x="321.629" y="377.975" width="43.6605" height="43.0513" transform="rotate(180 321.629 377.975)" stroke="#1C1C1C" stroke-width="0.5"/>
<rect x="103.34" y="377.975" width="43.6605" height="43.0513" transform="rotate(180 103.34 377.975)" stroke="#1C1C1C" stroke-width="0.5"/>
<rect x="321.629" y="334.926" width="43.6605" height="43.0513" transform="rotate(180 321.629 334.926)" stroke="#1C1C1C" stroke-width="0.5"/>
<rect x="103.34" y="334.926" width="43.6605" height="43.0513" transform="rotate(180 103.34 334.926)" stroke="#1C1C1C" stroke-width="0.5"/>
<rect x="277.973" y="377.975" width="43.6605" height="43.0513" transform="rotate(180 277.973 377.975)" stroke="#1C1C1C" stroke-width="0.5"/>
<rect x="59.6758" y="377.975" width="43.6605" height="43.0513" transform="rotate(180 59.6758 377.975)" stroke="#1C1C1C" stroke-width="0.5"/>
<rect x="277.973" y="334.926" width="43.6605" height="43.0513" transform="rotate(180 277.973 334.926)" stroke="#1C1C1C" stroke-width="0.5"/>
<rect x="59.6758" y="334.926" width="43.6605" height="43.0513" transform="rotate(180 59.6758 334.926)" stroke="#1C1C1C" stroke-width="0.5"/>
<rect x="452.672" y="377.975" width="43.6605" height="43.0513" transform="rotate(180 452.672 377.975)" stroke="#1C1C1C" stroke-width="0.5"/>
<rect x="234.309" y="377.975" width="43.6605" height="43.0513" transform="rotate(180 234.309 377.975)" stroke="#1C1C1C" stroke-width="0.5"/>
<rect x="452.672" y="334.926" width="43.6605" height="43.0513" transform="rotate(180 452.672 334.926)" stroke="#1C1C1C" stroke-width="0.5"/>
<rect x="234.309" y="334.926" width="43.6605" height="43.0513" transform="rotate(180 234.309 334.926)" stroke="#1C1C1C" stroke-width="0.5"/>
<rect x="409.008" y="377.975" width="43.6605" height="43.0513" transform="rotate(180 409.008 377.975)" stroke="#1C1C1C" stroke-width="0.5"/>
<rect x="409.008" y="334.926" width="43.6605" height="43.0513" transform="rotate(180 409.008 334.926)" stroke="#1C1C1C" stroke-width="0.5"/>
<rect x="190.66" y="334.926" width="43.6605" height="43.0513" transform="rotate(180 190.66 334.926)" stroke="#1C1C1C" stroke-width="0.5"/>
<rect x="365.34" y="377.975" width="43.6605" height="43.0513" transform="rotate(180 365.34 377.975)" stroke="#1C1C1C" stroke-width="0.5"/>
<rect x="146.988" y="377.975" width="43.6605" height="43.0513" transform="rotate(180 146.988 377.975)" stroke="#1C1C1C" stroke-width="0.5"/>
<rect x="365.34" y="334.926" width="43.6605" height="43.0513" transform="rotate(180 365.34 334.926)" stroke="#1C1C1C" stroke-width="0.5"/>
<rect x="146.988" y="334.926" width="43.6605" height="43.0513" transform="rotate(180 146.988 334.926)" stroke="#1C1C1C" stroke-width="0.5"/>
<rect x="321.629" y="291.873" width="43.6605" height="43.0513" transform="rotate(180 321.629 291.873)" stroke="#1C1C1C" stroke-width="0.5"/>
<rect x="103.34" y="291.873" width="43.6605" height="43.0513" transform="rotate(180 103.34 291.873)" stroke="#1C1C1C" stroke-width="0.5"/>
<rect x="321.629" y="248.82" width="43.6605" height="43.0513" transform="rotate(180 321.629 248.82)" stroke="#1C1C1C" stroke-width="0.5"/>
<rect x="277.973" y="291.873" width="43.6605" height="43.0513" transform="rotate(180 277.973 291.873)" stroke="#1C1C1C" stroke-width="0.5"/>
<rect x="59.6758" y="291.873" width="43.6605" height="43.0513" transform="rotate(180 59.6758 291.873)" stroke="#1C1C1C" stroke-width="0.5"/>
<rect x="277.973" y="248.82" width="43.6605" height="43.0513" transform="rotate(180 277.973 248.82)" stroke="#1C1C1C" stroke-width="0.5"/>
<rect x="452.672" y="291.873" width="43.6605" height="43.0513" transform="rotate(180 452.672 291.873)" stroke="#1C1C1C" stroke-width="0.5"/>
<rect x="234.309" y="291.873" width="43.6605" height="43.0513" transform="rotate(180 234.309 291.873)" stroke="#1C1C1C" stroke-width="0.5"/>
<rect x="16.0195" y="291.873" width="43.6605" height="43.0513" transform="rotate(180 16.0195 291.873)" stroke="#1C1C1C" stroke-width="0.5"/>
<rect x="452.672" y="248.82" width="43.6605" height="43.0513" transform="rotate(180 452.672 248.82)" stroke="#1C1C1C" stroke-width="0.5"/>
<rect x="234.309" y="248.82" width="43.6605" height="43.0513" transform="rotate(180 234.309 248.82)" stroke="#1C1C1C" stroke-width="0.5"/>
<rect x="409.008" y="291.873" width="43.6605" height="43.0513" transform="rotate(180 409.008 291.873)" stroke="#1C1C1C" stroke-width="0.5"/>
<rect x="190.652" y="291.873" width="43.6605" height="43.0513" transform="rotate(180 190.652 291.873)" stroke="#1C1C1C" stroke-width="0.5"/>
<rect x="409.004" y="248.82" width="43.6605" height="43.0513" transform="rotate(180 409.004 248.82)" stroke="#1C1C1C" stroke-width="0.5"/>
<rect x="190.652" y="248.82" width="43.6605" height="43.0513" transform="rotate(180 190.652 248.82)" stroke="#1C1C1C" stroke-width="0.5"/>
<rect x="365.34" y="291.873" width="43.6605" height="43.0513" transform="rotate(180 365.34 291.873)" stroke="#1C1C1C" stroke-width="0.5"/>
<rect x="146.988" y="291.873" width="43.6605" height="43.0513" transform="rotate(180 146.988 291.873)" stroke="#1C1C1C" stroke-width="0.5"/>
<rect x="365.34" y="248.82" width="43.6605" height="43.0513" transform="rotate(180 365.34 248.82)" stroke="#1C1C1C" stroke-width="0.5"/>
<rect x="103.34" y="162.721" width="43.6605" height="43.0513" transform="rotate(180 103.34 162.721)" stroke="#1C1C1C" stroke-width="0.5"/>
<rect x="277.973" y="205.77" width="43.6605" height="43.0513" transform="rotate(180 277.973 205.77)" stroke="#1C1C1C" stroke-width="0.5"/>
<rect x="452.672" y="205.77" width="43.6605" height="43.0513" transform="rotate(180 452.672 205.77)" stroke="#1C1C1C" stroke-width="0.5"/>
<rect x="234.309" y="162.721" width="43.6605" height="43.0513" transform="rotate(180 234.309 162.721)" stroke="#1C1C1C" stroke-width="0.5"/>
<rect x="16.0195" y="162.721" width="43.6605" height="43.0513" transform="rotate(180 16.0195 162.721)" stroke="#1C1C1C" stroke-width="0.5"/>
<rect x="409.004" y="205.77" width="43.6605" height="43.0513" transform="rotate(180 409.004 205.77)" stroke="#1C1C1C" stroke-width="0.5"/>
<rect x="190.652" y="205.77" width="43.6605" height="43.0513" transform="rotate(180 190.652 205.77)" stroke="#1C1C1C" stroke-width="0.5"/>
<rect x="409" y="162.721" width="43.6605" height="43.0513" transform="rotate(180 409 162.721)" stroke="#1C1C1C" stroke-width="0.5"/>
<rect x="190.652" y="162.721" width="43.6605" height="43.0513" transform="rotate(180 190.652 162.721)" stroke="#1C1C1C" stroke-width="0.5"/>
<rect x="365.34" y="162.721" width="43.6605" height="43.0513" transform="rotate(180 365.34 162.721)" stroke="#1C1C1C" stroke-width="0.5"/>
<rect x="146.988" y="162.721" width="43.6605" height="43.0513" transform="rotate(180 146.988 162.721)" stroke="#1C1C1C" stroke-width="0.5"/>
<rect x="103.34" y="119.668" width="43.6605" height="43.0513" transform="rotate(180 103.34 119.668)" stroke="#1C1C1C" stroke-width="0.5"/>
<rect x="103.34" y="76.6172" width="43.6605" height="43.0513" transform="rotate(180 103.34 76.6172)" stroke="#1C1C1C" stroke-width="0.5"/>
<rect x="59.6758" y="119.668" width="43.6605" height="43.0513" transform="rotate(180 59.6758 119.668)" stroke="#1C1C1C" stroke-width="0.5"/>
<rect x="59.6758" y="76.6172" width="43.6605" height="43.0513" transform="rotate(180 59.6758 76.6172)" stroke="#1C1C1C" stroke-width="0.5"/>
<rect x="452.672" y="119.668" width="43.6605" height="43.0513" transform="rotate(180 452.672 119.668)" stroke="#1C1C1C" stroke-width="0.5"/>
<rect x="16.0195" y="119.668" width="43.6605" height="43.0513" transform="rotate(180 16.0195 119.668)" stroke="#1C1C1C" stroke-width="0.5"/>
<rect x="452.672" y="76.6172" width="43.6605" height="43.0513" transform="rotate(180 452.672 76.6172)" stroke="#1C1C1C" stroke-width="0.5"/>
<rect x="409" y="119.668" width="43.6605" height="43.0513" transform="rotate(180 409 119.668)" stroke="#1C1C1C" stroke-width="0.5"/>
<rect x="190.652" y="119.668" width="43.6605" height="43.0513" transform="rotate(180 190.652 119.668)" stroke="#1C1C1C" stroke-width="0.5"/>
<rect x="409" y="76.6172" width="43.6605" height="43.0513" transform="rotate(180 409 76.6172)" stroke="#1C1C1C" stroke-width="0.5"/>
<rect x="190.652" y="76.6172" width="43.6605" height="43.0513" transform="rotate(180 190.652 76.6172)" stroke="#1C1C1C" stroke-width="0.5"/>
<rect x="146.988" y="76.6172" width="43.6605" height="43.0513" transform="rotate(180 146.988 76.6172)" stroke="#1C1C1C" stroke-width="0.5"/>
<rect x="103.34" y="33.5645" width="43.6605" height="43.0513" transform="rotate(180 103.34 33.5645)" stroke="#1C1C1C" stroke-width="0.5"/>
<rect x="59.6758" y="33.5645" width="43.6605" height="43.0513" transform="rotate(180 59.6758 33.5645)" stroke="#1C1C1C" stroke-width="0.5"/>
<rect x="452.672" y="33.5645" width="43.6605" height="43.0513" transform="rotate(180 452.672 33.5645)" stroke="#1C1C1C" stroke-width="0.5"/>
<rect x="190.66" y="377.975" width="43.6605" height="43.0513" transform="rotate(180 190.66 377.975)" stroke="url(#paint0_linear_1116_120440)"/>
<rect x="146.988" y="248.82" width="43.6605" height="43.0513" transform="rotate(180 146.988 248.82)" stroke="url(#paint1_linear_1116_120440)"/>
<rect x="59.6758" y="162.721" width="43.6605" height="43.0513" transform="rotate(180 59.6758 162.721)" stroke="url(#paint2_linear_1116_120440)"/>
<rect x="234.309" y="205.77" width="43.6605" height="43.0513" transform="rotate(180 234.309 205.77)" stroke="url(#paint3_linear_1116_120440)"/>
<rect x="146.988" y="119.668" width="43.6605" height="43.0513" transform="rotate(180 146.988 119.668)" stroke="url(#paint4_linear_1116_120440)"/>
<rect x="409" y="162.893" width="43.6605" height="43.0513" transform="rotate(180 409 162.893)" stroke="url(#paint5_linear_1116_120440)"/>
<g filter="url(#filter0_b_1116_120440)">
<rect x="79.4297" y="193.867" width="780.105" height="261.435" rx="16.8514" fill="url(#paint6_linear_1116_120440)"/>
<rect x="79.9563" y="194.394" width="779.052" height="260.382" rx="16.3248" stroke="#161616" stroke-width="1.05321"/>
</g>
<g filter="url(#filter1_b_1116_120440)">
<rect x="171.668" y="202.689" width="637.15" height="34.9379" rx="17.4689" fill="url(#paint7_radial_1116_120440)"/>
<path fill-rule="evenodd" clip-rule="evenodd" d="M189.977 217.697H192.577V216.361C192.577 215.643 191.995 215.061 191.277 215.061C190.559 215.061 189.977 215.643 189.977 216.361V217.697ZM188.644 217.697H187.665C186.929 217.697 186.332 218.293 186.332 219.03V225.257C186.332 225.993 186.929 226.59 187.665 226.59H194.888C195.624 226.59 196.221 225.993 196.221 225.257V219.03C196.221 218.293 195.624 217.697 194.888 217.697H193.91V216.361C193.91 214.907 192.731 213.729 191.277 213.729C189.823 213.729 188.644 214.907 188.644 216.361V217.697Z" fill="#3E3E3E"/>
<path d="M215.636 221.71C215.665 220.663 216.226 219.837 217.287 219.837C218.526 219.837 218.939 220.634 218.939 221.622V225.883H220.325V221.386C220.325 219.808 219.484 218.584 217.789 218.584C216.978 218.584 216.152 218.864 215.636 219.616V215.207H214.25V225.883H215.636V221.71ZM224.387 216.549H223.119V217.699C223.119 218.319 222.795 218.79 222.028 218.79H221.645V220.044H223.001V223.936C223.001 225.219 223.768 225.957 224.977 225.957C225.449 225.957 225.803 225.868 225.921 225.824V224.644C225.803 224.674 225.552 224.703 225.375 224.703C224.653 224.703 224.387 224.379 224.387 223.73V220.044H225.921V218.79H224.387V216.549ZM229.629 216.549H228.361V217.699C228.361 218.319 228.036 218.79 227.27 218.79H226.886V220.044H228.243V223.936C228.243 225.219 229.01 225.957 230.219 225.957C230.69 225.957 231.044 225.868 231.162 225.824V224.644C231.044 224.674 230.794 224.703 230.617 224.703C229.894 224.703 229.629 224.379 229.629 223.73V220.044H231.162V218.79H229.629V216.549ZM234.24 228.684V224.924C234.623 225.558 235.449 226.074 236.54 226.074C238.619 226.074 239.843 224.438 239.843 222.329C239.843 220.265 238.707 218.628 236.584 218.628C235.434 218.628 234.593 219.189 234.21 219.896V218.79H232.868V228.684H234.24ZM238.427 222.329C238.427 223.789 237.616 224.836 236.333 224.836C235.065 224.836 234.225 223.789 234.225 222.329C234.225 220.914 235.065 219.852 236.333 219.852C237.631 219.852 238.427 220.914 238.427 222.329ZM240.945 224.04C241.063 224.851 241.889 226.104 243.835 226.104C245.59 226.104 246.43 224.91 246.43 223.907C246.43 222.86 245.752 222.079 244.469 221.798L243.319 221.548C242.774 221.43 242.508 221.12 242.508 220.693C242.508 220.206 242.98 219.749 243.688 219.749C244.808 219.749 245.103 220.56 245.162 220.929L246.386 220.471C246.239 219.837 245.634 218.569 243.688 218.569C242.302 218.569 241.166 219.601 241.166 220.811C241.166 221.813 241.83 222.565 242.936 222.801L244.145 223.067C244.735 223.199 245.059 223.538 245.059 223.981C245.059 224.482 244.631 224.924 243.85 224.924C242.847 224.924 242.287 224.335 242.199 223.597L240.945 224.04ZM248.217 224.939C248.217 225.514 248.659 225.957 249.234 225.957C249.809 225.957 250.266 225.514 250.266 224.939C250.266 224.364 249.809 223.907 249.234 223.907C248.659 223.907 248.217 224.364 248.217 224.939ZM248.202 219.749C248.202 220.324 248.644 220.766 249.219 220.766C249.794 220.766 250.251 220.324 250.251 219.749C250.251 219.174 249.794 218.717 249.219 218.717C248.644 218.717 248.202 219.174 248.202 219.749ZM257.772 215.429H256.43L251.373 225.883H252.714L257.772 215.429ZM262.106 215.429H260.764L255.707 225.883H257.049L262.106 215.429ZM261.436 224.04C261.554 224.851 262.379 226.104 264.326 226.104C266.08 226.104 266.921 224.91 266.921 223.907C266.921 222.86 266.242 222.079 264.96 221.798L263.809 221.548C263.264 221.43 262.999 221.12 262.999 220.693C262.999 220.206 263.47 219.749 264.178 219.749C265.299 219.749 265.594 220.56 265.653 220.929L266.876 220.471C266.729 219.837 266.124 218.569 264.178 218.569C262.792 218.569 261.657 219.601 261.657 220.811C261.657 221.813 262.32 222.565 263.426 222.801L264.635 223.067C265.225 223.199 265.549 223.538 265.549 223.981C265.549 224.482 265.122 224.924 264.34 224.924C263.338 224.924 262.777 224.335 262.689 223.597L261.436 224.04ZM273.368 225.028C273.368 225.323 273.398 225.721 273.427 225.883H274.754C274.725 225.632 274.68 225.131 274.68 224.571V218.79H273.294V223.067C273.294 224.143 272.734 224.88 271.614 224.88C270.449 224.88 270.006 224.025 270.006 223.052V218.79H268.62V223.258C268.62 224.865 269.623 226.104 271.274 226.104C272.1 226.104 272.985 225.765 273.368 225.028ZM278.417 228.684V224.924C278.8 225.558 279.626 226.074 280.717 226.074C282.796 226.074 284.02 224.438 284.02 222.329C284.02 220.265 282.885 218.628 280.761 218.628C279.611 218.628 278.771 219.189 278.387 219.896V218.79H277.046V228.684H278.417ZM282.605 222.329C282.605 223.789 281.794 224.836 280.511 224.836C279.243 224.836 278.402 223.789 278.402 222.329C278.402 220.914 279.243 219.852 280.511 219.852C281.808 219.852 282.605 220.914 282.605 222.329ZM285.344 223.981C285.344 225.101 286.273 226.104 287.718 226.104C288.986 226.104 289.694 225.426 290.003 224.924C290.003 225.44 290.047 225.706 290.077 225.883H291.433C291.404 225.706 291.345 225.337 291.345 224.718V221.164C291.345 219.778 290.519 218.569 288.396 218.569C286.862 218.569 285.639 219.513 285.491 220.87L286.818 221.179C286.907 220.353 287.452 219.749 288.425 219.749C289.502 219.749 289.959 220.324 289.959 221.017C289.959 221.268 289.841 221.489 289.413 221.548L287.496 221.828C286.273 222.005 285.344 222.713 285.344 223.981ZM287.909 224.939C287.202 224.939 286.759 224.438 286.759 223.907C286.759 223.273 287.202 222.934 287.791 222.845L289.959 222.521V222.845C289.959 224.394 289.045 224.939 287.909 224.939ZM294.33 222.315C294.33 220.855 295.156 219.823 296.424 219.823C297.692 219.823 298.458 220.825 298.458 222.285C298.458 223.745 297.677 224.851 296.409 224.851C295.082 224.851 294.33 223.774 294.33 222.315ZM298.473 224.924C298.473 225.352 298.517 225.721 298.547 225.883H299.889C299.874 225.765 299.815 225.249 299.815 224.571V215.207H298.444V219.793C298.208 219.218 297.53 218.599 296.276 218.599C294.271 218.599 292.914 220.309 292.914 222.315C292.914 224.423 294.197 226.074 296.276 226.074C297.382 226.074 298.134 225.485 298.473 224.806V224.924ZM305.21 224.865C304.03 224.865 302.998 223.981 302.998 222.329C302.998 220.693 304.03 219.808 305.21 219.808C306.39 219.808 307.422 220.693 307.422 222.329C307.422 223.981 306.39 224.865 305.21 224.865ZM305.21 218.569C303.087 218.569 301.583 220.177 301.583 222.329C301.583 224.497 303.087 226.104 305.21 226.104C307.333 226.104 308.837 224.497 308.837 222.329C308.837 220.177 307.333 218.569 305.21 218.569ZM311.982 225.883V221.607C311.982 220.545 312.645 219.808 313.633 219.808C314.695 219.808 315.137 220.516 315.137 221.43V225.883H316.523V221.592C316.523 220.575 317.187 219.808 318.16 219.808C319.207 219.808 319.664 220.501 319.664 221.43V225.883H321.035V221.282C321.035 219.425 319.826 218.584 318.588 218.584C317.688 218.584 316.774 218.908 316.214 219.926C315.83 219.012 314.975 218.584 314.09 218.584C313.265 218.584 312.38 218.953 311.938 219.734V218.79H310.611V225.883H311.982ZM322.811 223.981C322.811 225.101 323.74 226.104 325.185 226.104C326.453 226.104 327.161 225.426 327.47 224.924C327.47 225.44 327.515 225.706 327.544 225.883H328.901C328.871 225.706 328.812 225.337 328.812 224.718V221.164C328.812 219.778 327.986 218.569 325.863 218.569C324.33 218.569 323.106 219.513 322.958 220.87L324.285 221.179C324.374 220.353 324.919 219.749 325.893 219.749C326.969 219.749 327.426 220.324 327.426 221.017C327.426 221.268 327.308 221.489 326.881 221.548L324.964 221.828C323.74 222.005 322.811 222.713 322.811 223.981ZM325.377 224.939C324.669 224.939 324.226 224.438 324.226 223.907C324.226 223.273 324.669 222.934 325.259 222.845L327.426 222.521V222.845C327.426 224.394 326.512 224.939 325.377 224.939ZM332.343 225.883V218.79H330.971V225.883H332.343ZM330.662 216.107C330.662 216.652 331.104 217.095 331.65 217.095C332.21 217.095 332.652 216.652 332.652 216.107C332.652 215.547 332.21 215.104 331.65 215.104C331.104 215.104 330.662 215.547 330.662 216.107ZM336.087 221.784C336.087 220.707 336.647 219.837 337.738 219.837C338.977 219.837 339.39 220.634 339.39 221.622V225.883H340.776V221.386C340.776 219.808 339.935 218.584 338.24 218.584C337.414 218.584 336.573 218.923 336.057 219.808V218.79H334.701V225.883H336.087V221.784ZM342.833 224.939C342.833 225.514 343.275 225.957 343.85 225.957C344.425 225.957 344.883 225.514 344.883 224.939C344.883 224.364 344.425 223.907 343.85 223.907C343.275 223.907 342.833 224.364 342.833 224.939ZM349.861 219.852C351.07 219.852 351.586 220.663 351.763 221.356L353.017 220.825C352.722 219.749 351.749 218.569 349.861 218.569C347.841 218.569 346.293 220.118 346.293 222.329C346.293 224.482 347.812 226.104 349.876 226.104C351.719 226.104 352.736 224.91 353.076 223.892L351.852 223.361C351.69 223.922 351.203 224.821 349.876 224.821C348.726 224.821 347.708 223.951 347.708 222.329C347.708 220.678 348.741 219.852 349.861 219.852ZM357.667 224.865C356.487 224.865 355.455 223.981 355.455 222.329C355.455 220.693 356.487 219.808 357.667 219.808C358.847 219.808 359.879 220.693 359.879 222.329C359.879 223.981 358.847 224.865 357.667 224.865ZM357.667 218.569C355.544 218.569 354.04 220.177 354.04 222.329C354.04 224.497 355.544 226.104 357.667 226.104C359.79 226.104 361.294 224.497 361.294 222.329C361.294 220.177 359.79 218.569 357.667 218.569ZM364.439 225.883V221.607C364.439 220.545 365.102 219.808 366.09 219.808C367.152 219.808 367.594 220.516 367.594 221.43V225.883H368.98V221.592C368.98 220.575 369.644 219.808 370.617 219.808C371.664 219.808 372.121 220.501 372.121 221.43V225.883H373.492V221.282C373.492 219.425 372.283 218.584 371.045 218.584C370.145 218.584 369.231 218.908 368.671 219.926C368.287 219.012 367.432 218.584 366.547 218.584C365.722 218.584 364.837 218.953 364.395 219.734V218.79H363.068V225.883H364.439Z" fill="#3C3E3E"/>
<rect x="172.334" y="203.356" width="635.817" height="33.6049" rx="16.8025" stroke="url(#paint8_linear_1116_120440)" stroke-width="1.33295"/>
</g>
<circle cx="105.259" cy="220.163" r="5.20446" fill="#3E3E3E"/>
<circle cx="121.337" cy="220.163" r="5.20446" fill="#3E3E3E"/>
<circle cx="137.415" cy="220.163" r="5.20446" fill="#3E3E3E"/>
<rect x="-0.0546875" y="-1.09766" width="447.055" height="402.196" fill="url(#paint9_radial_1116_120440)"/>
<g filter="url(#filter2_f_1116_120440)">
<ellipse cx="223.285" cy="-112.902" rx="349" ry="159" fill="url(#paint10_linear_1116_120440)"/>
</g>
<defs>
<filter id="filter0_b_1116_120440" x="23.4458" y="137.883" width="892.073" height="373.403" filterUnits="userSpaceOnUse" color-interpolation-filters="sRGB">
<feFlood flood-opacity="0" result="BackgroundImageFix"/>
<feGaussianBlur in="BackgroundImageFix" stdDeviation="27.992"/>
<feComposite in2="SourceAlpha" operator="in" result="effect1_backgroundBlur_1116_120440"/>
<feBlend mode="normal" in="SourceGraphic" in2="effect1_backgroundBlur_1116_120440" result="shape"/>
</filter>
<filter id="filter1_b_1116_120440" x="115.684" y="146.706" width="749.116" height="146.905" filterUnits="userSpaceOnUse" color-interpolation-filters="sRGB">
<feFlood flood-opacity="0" result="BackgroundImageFix"/>
<feGaussianBlur in="BackgroundImageFix" stdDeviation="27.992"/>
<feComposite in2="SourceAlpha" operator="in" result="effect1_backgroundBlur_1116_120440"/>
<feBlend mode="normal" in="SourceGraphic" in2="effect1_backgroundBlur_1116_120440" result="shape"/>
</filter>
<filter id="filter2_f_1116_120440" x="-260.592" y="-406.779" width="967.754" height="587.754" filterUnits="userSpaceOnUse" color-interpolation-filters="sRGB">
<feFlood flood-opacity="0" result="BackgroundImageFix"/>
<feBlend mode="normal" in="SourceGraphic" in2="BackgroundImageFix" result="shape"/>
<feGaussianBlur stdDeviation="67.4384" result="effect1_foregroundBlur_1116_120440"/>
</filter>
<linearGradient id="paint0_linear_1116_120440" x1="212.49" y1="377.975" x2="212.49" y2="421.026" gradientUnits="userSpaceOnUse">
<stop stopColor="#00DED1" stop-opacity="0.12"/>
<stop offset="1" stop-color="#14292C" stop-opacity="0"/>
</linearGradient>
<linearGradient id="paint1_linear_1116_120440" x1="168.819" y1="248.82" x2="168.819" y2="291.872" gradientUnits="userSpaceOnUse">
<stop stopColor="#00DED1" stop-opacity="0.12"/>
<stop offset="1" stop-color="#14292C" stop-opacity="0"/>
</linearGradient>
<linearGradient id="paint2_linear_1116_120440" x1="81.506" y1="162.721" x2="81.506" y2="205.772" gradientUnits="userSpaceOnUse">
<stop stopColor="#00DED1" stop-opacity="0.12"/>
<stop offset="1" stop-color="#14292C" stop-opacity="0"/>
</linearGradient>
<linearGradient id="paint3_linear_1116_120440" x1="256.139" y1="205.77" x2="256.139" y2="248.821" gradientUnits="userSpaceOnUse">
<stop stopColor="#00DED1" stop-opacity="0.12"/>
<stop offset="1" stop-color="#14292C" stop-opacity="0"/>
</linearGradient>
<linearGradient id="paint4_linear_1116_120440" x1="168.819" y1="119.668" x2="168.819" y2="162.719" gradientUnits="userSpaceOnUse">
<stop stopColor="#00DED1" stop-opacity="0.12"/>
<stop offset="1" stop-color="#14292C" stop-opacity="0"/>
</linearGradient>
<linearGradient id="paint5_linear_1116_120440" x1="430.83" y1="162.893" x2="430.83" y2="205.944" gradientUnits="userSpaceOnUse">
<stop stopColor="#00DED1" stop-opacity="0.12"/>
<stop offset="1" stop-color="#14292C" stop-opacity="0"/>
</linearGradient>
<linearGradient id="paint6_linear_1116_120440" x1="48.6989" y1="15.0962" x2="352.231" y2="439.063" gradientUnits="userSpaceOnUse">
<stop stopColor="#222121"/>
<stop offset="1" stop-color="#131313"/>
</linearGradient>
<radialGradient id="paint7_radial_1116_120440" cx="0" cy="0" r="1" gradientUnits="userSpaceOnUse" gradientTransform="translate(177.399 203.729) rotate(5.77818) scale(663.506 130.479)">
<stop stopColor="#040404" stop-opacity="0.4"/>
<stop offset="1" stop-color="#121212" stop-opacity="0"/>
</radialGradient>
<linearGradient id="paint8_linear_1116_120440" x1="381.197" y1="183.76" x2="378.857" y2="232.253" gradientUnits="userSpaceOnUse">
<stop stopColor="#232323"/>
<stop offset="1" stop-color="#1C1C1C"/>
</linearGradient>
<radialGradient id="paint9_radial_1116_120440" cx="0" cy="0" r="1" gradientUnits="userSpaceOnUse" gradientTransform="translate(204.958 217.67) rotate(-180) scale(283.814 281.164)">
<stop stopColor="#121212" stop-opacity="0"/>
<stop offset="0.630208" stop-color="#121212" stop-opacity="0.35"/>
<stop offset="1" stop-color="#121212" stop-opacity="0.88"/>
</radialGradient>
<linearGradient id="paint10_linear_1116_120440" x1="56.5742" y1="-410.228" x2="216.155" y2="125.725" gradientUnits="userSpaceOnUse">
<stop offset="0.25" stop-color="#39617D" stop-opacity="0.32"/>
<stop offset="0.630208" stop-color="#00DED1" stop-opacity="0.12"/>
<stop offset="1" stop-color="#343434" stop-opacity="0.51"/>
</linearGradient>
</defs>
</svg>
