<svg width="448" height="400" viewBox="0 0 448 400" fill="none" xmlns="http://www.w3.org/2000/svg">
<rect x="-13.9727" y="-17.9375" width="476.973" height="430.908" fill="#131313"/>
<rect x="321.629" y="421.027" width="43.6605" height="43.0513" transform="rotate(180 321.629 421.027)" stroke="#1C1C1C" stroke-width="0.5"/>
<rect x="277.973" y="421.027" width="43.6605" height="43.0513" transform="rotate(180 277.973 421.027)" stroke="#1C1C1C" stroke-width="0.5"/>
<rect x="452.672" y="421.027" width="43.6605" height="43.0513" transform="rotate(180 452.672 421.027)" stroke="#1C1C1C" stroke-width="0.5"/>
<rect x="234.309" y="421.027" width="43.6605" height="43.0513" transform="rotate(180 234.309 421.027)" stroke="#1C1C1C" stroke-width="0.5"/>
<rect x="409.008" y="421.027" width="43.6605" height="43.0513" transform="rotate(180 409.008 421.027)" stroke="#1C1C1C" stroke-width="0.5"/>
<rect x="190.66" y="421.027" width="43.6605" height="43.0513" transform="rotate(180 190.66 421.027)" stroke="#1C1C1C" stroke-width="0.5"/>
<rect x="365.34" y="421.027" width="43.6605" height="43.0513" transform="rotate(180 365.34 421.027)" stroke="#1C1C1C" stroke-width="0.5"/>
<rect x="321.629" y="377.975" width="43.6605" height="43.0513" transform="rotate(180 321.629 377.975)" stroke="#1C1C1C" stroke-width="0.5"/>
<rect x="103.34" y="377.975" width="43.6605" height="43.0513" transform="rotate(180 103.34 377.975)" stroke="#1C1C1C" stroke-width="0.5"/>
<rect x="321.629" y="334.926" width="43.6605" height="43.0513" transform="rotate(180 321.629 334.926)" stroke="#1C1C1C" stroke-width="0.5"/>
<rect x="103.34" y="334.926" width="43.6605" height="43.0513" transform="rotate(180 103.34 334.926)" stroke="#1C1C1C" stroke-width="0.5"/>
<rect x="277.973" y="377.975" width="43.6605" height="43.0513" transform="rotate(180 277.973 377.975)" stroke="#1C1C1C" stroke-width="0.5"/>
<rect x="59.6758" y="377.975" width="43.6605" height="43.0513" transform="rotate(180 59.6758 377.975)" stroke="#1C1C1C" stroke-width="0.5"/>
<rect x="277.973" y="334.926" width="43.6605" height="43.0513" transform="rotate(180 277.973 334.926)" stroke="#1C1C1C" stroke-width="0.5"/>
<rect x="59.6758" y="334.926" width="43.6605" height="43.0513" transform="rotate(180 59.6758 334.926)" stroke="#1C1C1C" stroke-width="0.5"/>
<rect x="452.672" y="377.975" width="43.6605" height="43.0513" transform="rotate(180 452.672 377.975)" stroke="#1C1C1C" stroke-width="0.5"/>
<rect x="234.309" y="377.975" width="43.6605" height="43.0513" transform="rotate(180 234.309 377.975)" stroke="#1C1C1C" stroke-width="0.5"/>
<rect x="452.672" y="334.926" width="43.6605" height="43.0513" transform="rotate(180 452.672 334.926)" stroke="#1C1C1C" stroke-width="0.5"/>
<rect x="234.309" y="334.926" width="43.6605" height="43.0513" transform="rotate(180 234.309 334.926)" stroke="#1C1C1C" stroke-width="0.5"/>
<rect x="409.008" y="377.975" width="43.6605" height="43.0513" transform="rotate(180 409.008 377.975)" stroke="#1C1C1C" stroke-width="0.5"/>
<rect x="409.008" y="334.926" width="43.6605" height="43.0513" transform="rotate(180 409.008 334.926)" stroke="#1C1C1C" stroke-width="0.5"/>
<rect x="190.66" y="334.926" width="43.6605" height="43.0513" transform="rotate(180 190.66 334.926)" stroke="#1C1C1C" stroke-width="0.5"/>
<rect x="365.34" y="377.975" width="43.6605" height="43.0513" transform="rotate(180 365.34 377.975)" stroke="#1C1C1C" stroke-width="0.5"/>
<rect x="146.988" y="377.975" width="43.6605" height="43.0513" transform="rotate(180 146.988 377.975)" stroke="#1C1C1C" stroke-width="0.5"/>
<rect x="365.34" y="334.926" width="43.6605" height="43.0513" transform="rotate(180 365.34 334.926)" stroke="#1C1C1C" stroke-width="0.5"/>
<rect x="146.988" y="334.926" width="43.6605" height="43.0513" transform="rotate(180 146.988 334.926)" stroke="#1C1C1C" stroke-width="0.5"/>
<rect x="321.629" y="291.873" width="43.6605" height="43.0513" transform="rotate(180 321.629 291.873)" stroke="#1C1C1C" stroke-width="0.5"/>
<rect x="103.34" y="291.873" width="43.6605" height="43.0513" transform="rotate(180 103.34 291.873)" stroke="#1C1C1C" stroke-width="0.5"/>
<rect x="321.629" y="248.82" width="43.6605" height="43.0513" transform="rotate(180 321.629 248.82)" stroke="#1C1C1C" stroke-width="0.5"/>
<rect x="277.973" y="291.873" width="43.6605" height="43.0513" transform="rotate(180 277.973 291.873)" stroke="#1C1C1C" stroke-width="0.5"/>
<rect x="59.6758" y="291.873" width="43.6605" height="43.0513" transform="rotate(180 59.6758 291.873)" stroke="#1C1C1C" stroke-width="0.5"/>
<rect x="277.973" y="248.82" width="43.6605" height="43.0513" transform="rotate(180 277.973 248.82)" stroke="#1C1C1C" stroke-width="0.5"/>
<rect x="452.672" y="291.873" width="43.6605" height="43.0513" transform="rotate(180 452.672 291.873)" stroke="#1C1C1C" stroke-width="0.5"/>
<rect x="234.309" y="291.873" width="43.6605" height="43.0513" transform="rotate(180 234.309 291.873)" stroke="#1C1C1C" stroke-width="0.5"/>
<rect x="16.0195" y="291.873" width="43.6605" height="43.0513" transform="rotate(180 16.0195 291.873)" stroke="#1C1C1C" stroke-width="0.5"/>
<rect x="452.672" y="248.82" width="43.6605" height="43.0513" transform="rotate(180 452.672 248.82)" stroke="#1C1C1C" stroke-width="0.5"/>
<rect x="234.309" y="248.82" width="43.6605" height="43.0513" transform="rotate(180 234.309 248.82)" stroke="#1C1C1C" stroke-width="0.5"/>
<rect x="409.008" y="291.873" width="43.6605" height="43.0513" transform="rotate(180 409.008 291.873)" stroke="#1C1C1C" stroke-width="0.5"/>
<rect x="190.652" y="291.873" width="43.6605" height="43.0513" transform="rotate(180 190.652 291.873)" stroke="#1C1C1C" stroke-width="0.5"/>
<rect x="409.004" y="248.82" width="43.6605" height="43.0513" transform="rotate(180 409.004 248.82)" stroke="#1C1C1C" stroke-width="0.5"/>
<rect x="190.652" y="248.82" width="43.6605" height="43.0513" transform="rotate(180 190.652 248.82)" stroke="#1C1C1C" stroke-width="0.5"/>
<rect x="365.34" y="291.873" width="43.6605" height="43.0513" transform="rotate(180 365.34 291.873)" stroke="#1C1C1C" stroke-width="0.5"/>
<rect x="146.988" y="291.873" width="43.6605" height="43.0513" transform="rotate(180 146.988 291.873)" stroke="#1C1C1C" stroke-width="0.5"/>
<rect x="365.34" y="248.82" width="43.6605" height="43.0513" transform="rotate(180 365.34 248.82)" stroke="#1C1C1C" stroke-width="0.5"/>
<rect x="103.34" y="162.721" width="43.6605" height="43.0513" transform="rotate(180 103.34 162.721)" stroke="#1C1C1C" stroke-width="0.5"/>
<rect x="277.973" y="205.77" width="43.6605" height="43.0513" transform="rotate(180 277.973 205.77)" stroke="#1C1C1C" stroke-width="0.5"/>
<rect x="452.672" y="205.77" width="43.6605" height="43.0513" transform="rotate(180 452.672 205.77)" stroke="#1C1C1C" stroke-width="0.5"/>
<rect x="234.309" y="162.721" width="43.6605" height="43.0513" transform="rotate(180 234.309 162.721)" stroke="#1C1C1C" stroke-width="0.5"/>
<rect x="16.0195" y="162.721" width="43.6605" height="43.0513" transform="rotate(180 16.0195 162.721)" stroke="#1C1C1C" stroke-width="0.5"/>
<rect x="409.004" y="205.77" width="43.6605" height="43.0513" transform="rotate(180 409.004 205.77)" stroke="#1C1C1C" stroke-width="0.5"/>
<rect x="190.652" y="205.77" width="43.6605" height="43.0513" transform="rotate(180 190.652 205.77)" stroke="#1C1C1C" stroke-width="0.5"/>
<rect x="409" y="162.721" width="43.6605" height="43.0513" transform="rotate(180 409 162.721)" stroke="#1C1C1C" stroke-width="0.5"/>
<rect x="190.652" y="162.721" width="43.6605" height="43.0513" transform="rotate(180 190.652 162.721)" stroke="#1C1C1C" stroke-width="0.5"/>
<rect x="365.34" y="162.721" width="43.6605" height="43.0513" transform="rotate(180 365.34 162.721)" stroke="#1C1C1C" stroke-width="0.5"/>
<rect x="146.988" y="162.721" width="43.6605" height="43.0513" transform="rotate(180 146.988 162.721)" stroke="#1C1C1C" stroke-width="0.5"/>
<rect x="103.34" y="119.668" width="43.6605" height="43.0513" transform="rotate(180 103.34 119.668)" stroke="#1C1C1C" stroke-width="0.5"/>
<rect x="103.34" y="76.6172" width="43.6605" height="43.0513" transform="rotate(180 103.34 76.6172)" stroke="#1C1C1C" stroke-width="0.5"/>
<rect x="59.6758" y="119.668" width="43.6605" height="43.0513" transform="rotate(180 59.6758 119.668)" stroke="#1C1C1C" stroke-width="0.5"/>
<rect x="59.6758" y="76.6172" width="43.6605" height="43.0513" transform="rotate(180 59.6758 76.6172)" stroke="#1C1C1C" stroke-width="0.5"/>
<rect x="452.672" y="119.668" width="43.6605" height="43.0513" transform="rotate(180 452.672 119.668)" stroke="#1C1C1C" stroke-width="0.5"/>
<rect x="16.0195" y="119.668" width="43.6605" height="43.0513" transform="rotate(180 16.0195 119.668)" stroke="#1C1C1C" stroke-width="0.5"/>
<rect x="452.672" y="76.6172" width="43.6605" height="43.0513" transform="rotate(180 452.672 76.6172)" stroke="#1C1C1C" stroke-width="0.5"/>
<rect x="409" y="119.668" width="43.6605" height="43.0513" transform="rotate(180 409 119.668)" stroke="#1C1C1C" stroke-width="0.5"/>
<rect x="190.652" y="119.668" width="43.6605" height="43.0513" transform="rotate(180 190.652 119.668)" stroke="#1C1C1C" stroke-width="0.5"/>
<rect x="409" y="76.6172" width="43.6605" height="43.0513" transform="rotate(180 409 76.6172)" stroke="#1C1C1C" stroke-width="0.5"/>
<rect x="190.652" y="76.6172" width="43.6605" height="43.0513" transform="rotate(180 190.652 76.6172)" stroke="#1C1C1C" stroke-width="0.5"/>
<rect x="146.988" y="76.6172" width="43.6605" height="43.0513" transform="rotate(180 146.988 76.6172)" stroke="#1C1C1C" stroke-width="0.5"/>
<rect x="103.34" y="33.5645" width="43.6605" height="43.0513" transform="rotate(180 103.34 33.5645)" stroke="#1C1C1C" stroke-width="0.5"/>
<rect x="59.6758" y="33.5645" width="43.6605" height="43.0513" transform="rotate(180 59.6758 33.5645)" stroke="#1C1C1C" stroke-width="0.5"/>
<rect x="452.672" y="33.5645" width="43.6605" height="43.0513" transform="rotate(180 452.672 33.5645)" stroke="#1C1C1C" stroke-width="0.5"/>
<rect x="190.66" y="377.975" width="43.6605" height="43.0513" transform="rotate(180 190.66 377.975)" stroke="url(#paint0_linear_1116_119782)" stroke-width="1.5"/>
<rect x="146.988" y="248.82" width="43.6605" height="43.0513" transform="rotate(180 146.988 248.82)" stroke="url(#paint1_linear_1116_119782)" stroke-width="1.5"/>
<rect x="59.6758" y="162.721" width="43.6605" height="43.0513" transform="rotate(180 59.6758 162.721)" stroke="url(#paint2_linear_1116_119782)" stroke-width="1.5"/>
<rect x="234.309" y="205.77" width="43.6605" height="43.0513" transform="rotate(180 234.309 205.77)" stroke="url(#paint3_linear_1116_119782)" stroke-width="1.5"/>
<rect x="146.988" y="119.668" width="43.6605" height="43.0513" transform="rotate(180 146.988 119.668)" stroke="url(#paint4_linear_1116_119782)" stroke-width="1.5"/>
<rect x="408.82" y="162.668" width="43.6605" height="43.0513" transform="rotate(180 408.82 162.668)" stroke="url(#paint5_linear_1116_119782)" stroke-width="1.5"/>
<g filter="url(#filter0_b_1116_119782)">
<rect x="79.4453" y="193.867" width="780.105" height="261.435" rx="16.8514" fill="url(#paint6_linear_1116_119782)"/>
<rect x="79.9719" y="194.394" width="779.052" height="260.382" rx="16.3248" stroke="#161616" stroke-width="1.05321"/>
</g>
<g filter="url(#filter1_b_1116_119782)">
<rect x="171.684" y="202.689" width="637.15" height="34.9379" rx="17.4689" fill="url(#paint7_radial_1116_119782)"/>
<path fill-rule="evenodd" clip-rule="evenodd" d="M189.993 217.697H192.592V216.361C192.592 215.643 192.01 215.061 191.293 215.061C190.575 215.061 189.993 215.643 189.993 216.361V217.697ZM188.66 217.697H187.681C186.944 217.697 186.348 218.293 186.348 219.03V225.257C186.348 225.993 186.944 226.59 187.681 226.59H194.903C195.639 226.59 196.236 225.993 196.236 225.257V219.03C196.236 218.293 195.639 217.697 194.903 217.697H193.925V216.361C193.925 214.907 192.747 213.729 191.293 213.729C189.839 213.729 188.66 214.907 188.66 216.361V217.697Z" fill="#3E3E3E"/>
<path d="M215.652 221.71C215.681 220.663 216.241 219.837 217.303 219.837C218.542 219.837 218.954 220.634 218.954 221.622V225.883H220.34V221.386C220.34 219.808 219.5 218.584 217.804 218.584C216.993 218.584 216.168 218.864 215.652 219.616V215.207H214.266V225.883H215.652V221.71ZM224.403 216.549H223.135V217.699C223.135 218.319 222.811 218.79 222.044 218.79H221.66V220.044H223.017V223.936C223.017 225.219 223.784 225.957 224.993 225.957C225.465 225.957 225.819 225.868 225.937 225.824V224.644C225.819 224.674 225.568 224.703 225.391 224.703C224.668 224.703 224.403 224.379 224.403 223.73V220.044H225.937V218.79H224.403V216.549ZM229.644 216.549H228.376V217.699C228.376 218.319 228.052 218.79 227.285 218.79H226.902V220.044H228.258V223.936C228.258 225.219 229.025 225.957 230.234 225.957C230.706 225.957 231.06 225.868 231.178 225.824V224.644C231.06 224.674 230.809 224.703 230.632 224.703C229.91 224.703 229.644 224.379 229.644 223.73V220.044H231.178V218.79H229.644V216.549ZM234.255 228.684V224.924C234.639 225.558 235.464 226.074 236.555 226.074C238.634 226.074 239.858 224.438 239.858 222.329C239.858 220.265 238.723 218.628 236.6 218.628C235.45 218.628 234.609 219.189 234.226 219.896V218.79H232.884V228.684H234.255ZM238.443 222.329C238.443 223.789 237.632 224.836 236.349 224.836C235.081 224.836 234.24 223.789 234.24 222.329C234.24 220.914 235.081 219.852 236.349 219.852C237.647 219.852 238.443 220.914 238.443 222.329ZM240.961 224.04C241.079 224.851 241.905 226.104 243.851 226.104C245.606 226.104 246.446 224.91 246.446 223.907C246.446 222.86 245.768 222.079 244.485 221.798L243.335 221.548C242.789 221.43 242.524 221.12 242.524 220.693C242.524 220.206 242.996 219.749 243.703 219.749C244.824 219.749 245.119 220.56 245.178 220.929L246.402 220.471C246.254 219.837 245.65 218.569 243.703 218.569C242.317 218.569 241.182 219.601 241.182 220.811C241.182 221.813 241.846 222.565 242.951 222.801L244.161 223.067C244.75 223.199 245.075 223.538 245.075 223.981C245.075 224.482 244.647 224.924 243.866 224.924C242.863 224.924 242.303 224.335 242.214 223.597L240.961 224.04ZM248.232 224.939C248.232 225.514 248.675 225.957 249.25 225.957C249.825 225.957 250.282 225.514 250.282 224.939C250.282 224.364 249.825 223.907 249.25 223.907C248.675 223.907 248.232 224.364 248.232 224.939ZM248.218 219.749C248.218 220.324 248.66 220.766 249.235 220.766C249.81 220.766 250.267 220.324 250.267 219.749C250.267 219.174 249.81 218.717 249.235 218.717C248.66 218.717 248.218 219.174 248.218 219.749ZM257.788 215.429H256.446L251.388 225.883H252.73L257.788 215.429ZM262.122 215.429H260.78L255.723 225.883H257.064L262.122 215.429ZM261.451 224.04C261.569 224.851 262.395 226.104 264.341 226.104C266.096 226.104 266.936 224.91 266.936 223.907C266.936 222.86 266.258 222.079 264.975 221.798L263.825 221.548C263.28 221.43 263.014 221.12 263.014 220.693C263.014 220.206 263.486 219.749 264.194 219.749C265.314 219.749 265.609 220.56 265.668 220.929L266.892 220.471C266.745 219.837 266.14 218.569 264.194 218.569C262.808 218.569 261.672 219.601 261.672 220.811C261.672 221.813 262.336 222.565 263.442 222.801L264.651 223.067C265.241 223.199 265.565 223.538 265.565 223.981C265.565 224.482 265.137 224.924 264.356 224.924C263.353 224.924 262.793 224.335 262.705 223.597L261.451 224.04ZM273.384 225.028C273.384 225.323 273.413 225.721 273.443 225.883H274.77C274.74 225.632 274.696 225.131 274.696 224.571V218.79H273.31V223.067C273.31 224.143 272.75 224.88 271.629 224.88C270.464 224.88 270.022 224.025 270.022 223.052V218.79H268.636V223.258C268.636 224.865 269.639 226.104 271.29 226.104C272.116 226.104 273 225.765 273.384 225.028ZM278.433 228.684V224.924C278.816 225.558 279.642 226.074 280.733 226.074C282.812 226.074 284.036 224.438 284.036 222.329C284.036 220.265 282.9 218.628 280.777 218.628C279.627 218.628 278.786 219.189 278.403 219.896V218.79H277.061V228.684H278.433ZM282.62 222.329C282.62 223.789 281.809 224.836 280.526 224.836C279.258 224.836 278.418 223.789 278.418 222.329C278.418 220.914 279.258 219.852 280.526 219.852C281.824 219.852 282.62 220.914 282.62 222.329ZM285.359 223.981C285.359 225.101 286.288 226.104 287.733 226.104C289.001 226.104 289.709 225.426 290.019 224.924C290.019 225.44 290.063 225.706 290.092 225.883H291.449C291.42 225.706 291.361 225.337 291.361 224.718V221.164C291.361 219.778 290.535 218.569 288.412 218.569C286.878 218.569 285.654 219.513 285.507 220.87L286.834 221.179C286.922 220.353 287.468 219.749 288.441 219.749C289.517 219.749 289.975 220.324 289.975 221.017C289.975 221.268 289.857 221.489 289.429 221.548L287.512 221.828C286.288 222.005 285.359 222.713 285.359 223.981ZM287.925 224.939C287.217 224.939 286.775 224.438 286.775 223.907C286.775 223.273 287.217 222.934 287.807 222.845L289.975 222.521V222.845C289.975 224.394 289.06 224.939 287.925 224.939ZM294.345 222.315C294.345 220.855 295.171 219.823 296.439 219.823C297.707 219.823 298.474 220.825 298.474 222.285C298.474 223.745 297.693 224.851 296.425 224.851C295.097 224.851 294.345 223.774 294.345 222.315ZM298.489 224.924C298.489 225.352 298.533 225.721 298.563 225.883H299.904C299.89 225.765 299.831 225.249 299.831 224.571V215.207H298.459V219.793C298.223 219.218 297.545 218.599 296.292 218.599C294.287 218.599 292.93 220.309 292.93 222.315C292.93 224.423 294.213 226.074 296.292 226.074C297.398 226.074 298.15 225.485 298.489 224.806V224.924ZM305.226 224.865C304.046 224.865 303.014 223.981 303.014 222.329C303.014 220.693 304.046 219.808 305.226 219.808C306.405 219.808 307.437 220.693 307.437 222.329C307.437 223.981 306.405 224.865 305.226 224.865ZM305.226 218.569C303.102 218.569 301.598 220.177 301.598 222.329C301.598 224.497 303.102 226.104 305.226 226.104C307.349 226.104 308.853 224.497 308.853 222.329C308.853 220.177 307.349 218.569 305.226 218.569ZM311.998 225.883V221.607C311.998 220.545 312.661 219.808 313.649 219.808C314.711 219.808 315.153 220.516 315.153 221.43V225.883H316.539V221.592C316.539 220.575 317.203 219.808 318.176 219.808C319.223 219.808 319.68 220.501 319.68 221.43V225.883H321.051V221.282C321.051 219.425 319.842 218.584 318.603 218.584C317.704 218.584 316.79 218.908 316.229 219.926C315.846 219.012 314.991 218.584 314.106 218.584C313.28 218.584 312.396 218.953 311.953 219.734V218.79H310.626V225.883H311.998ZM322.827 223.981C322.827 225.101 323.755 226.104 325.201 226.104C326.469 226.104 327.176 225.426 327.486 224.924C327.486 225.44 327.53 225.706 327.56 225.883H328.916C328.887 225.706 328.828 225.337 328.828 224.718V221.164C328.828 219.778 328.002 218.569 325.879 218.569C324.345 218.569 323.121 219.513 322.974 220.87L324.301 221.179C324.39 220.353 324.935 219.749 325.908 219.749C326.985 219.749 327.442 220.324 327.442 221.017C327.442 221.268 327.324 221.489 326.896 221.548L324.979 221.828C323.755 222.005 322.827 222.713 322.827 223.981ZM325.392 224.939C324.684 224.939 324.242 224.438 324.242 223.907C324.242 223.273 324.684 222.934 325.274 222.845L327.442 222.521V222.845C327.442 224.394 326.528 224.939 325.392 224.939ZM332.358 225.883V218.79H330.987V225.883H332.358ZM330.677 216.107C330.677 216.652 331.12 217.095 331.665 217.095C332.226 217.095 332.668 216.652 332.668 216.107C332.668 215.547 332.226 215.104 331.665 215.104C331.12 215.104 330.677 215.547 330.677 216.107ZM336.102 221.784C336.102 220.707 336.663 219.837 337.754 219.837C338.992 219.837 339.405 220.634 339.405 221.622V225.883H340.791V221.386C340.791 219.808 339.951 218.584 338.255 218.584C337.43 218.584 336.589 218.923 336.073 219.808V218.79H334.716V225.883H336.102V221.784ZM342.849 224.939C342.849 225.514 343.291 225.957 343.866 225.957C344.441 225.957 344.898 225.514 344.898 224.939C344.898 224.364 344.441 223.907 343.866 223.907C343.291 223.907 342.849 224.364 342.849 224.939ZM349.877 219.852C351.086 219.852 351.602 220.663 351.779 221.356L353.032 220.825C352.737 219.749 351.764 218.569 349.877 218.569C347.857 218.569 346.309 220.118 346.309 222.329C346.309 224.482 347.827 226.104 349.892 226.104C351.735 226.104 352.752 224.91 353.091 223.892L351.867 223.361C351.705 223.922 351.219 224.821 349.892 224.821C348.741 224.821 347.724 223.951 347.724 222.329C347.724 220.678 348.756 219.852 349.877 219.852ZM357.683 224.865C356.503 224.865 355.471 223.981 355.471 222.329C355.471 220.693 356.503 219.808 357.683 219.808C358.862 219.808 359.894 220.693 359.894 222.329C359.894 223.981 358.862 224.865 357.683 224.865ZM357.683 218.569C355.559 218.569 354.055 220.177 354.055 222.329C354.055 224.497 355.559 226.104 357.683 226.104C359.806 226.104 361.31 224.497 361.31 222.329C361.31 220.177 359.806 218.569 357.683 218.569ZM364.455 225.883V221.607C364.455 220.545 365.118 219.808 366.106 219.808C367.168 219.808 367.61 220.516 367.61 221.43V225.883H368.996V221.592C368.996 220.575 369.659 219.808 370.633 219.808C371.68 219.808 372.137 220.501 372.137 221.43V225.883H373.508V221.282C373.508 219.425 372.299 218.584 371.06 218.584C370.161 218.584 369.247 218.908 368.686 219.926C368.303 219.012 367.448 218.584 366.563 218.584C365.737 218.584 364.853 218.953 364.41 219.734V218.79H363.083V225.883H364.455Z" fill="#3C3E3E"/>
<rect x="172.35" y="203.356" width="635.817" height="33.6049" rx="16.8025" stroke="url(#paint8_linear_1116_119782)" stroke-width="1.33295"/>
</g>
<circle cx="105.275" cy="220.163" r="5.20446" fill="#3E3E3E"/>
<circle cx="121.353" cy="220.163" r="5.20446" fill="#3E3E3E"/>
<circle cx="137.431" cy="220.163" r="5.20446" fill="#3E3E3E"/>
<rect x="-0.0546875" y="-1.09766" width="447.055" height="402.196" fill="url(#paint9_radial_1116_119782)"/>
<g filter="url(#filter2_f_1116_119782)">
<ellipse cx="223.301" cy="-137.902" rx="349" ry="159" fill="url(#paint10_linear_1116_119782)"/>
</g>
<defs>
<filter id="filter0_b_1116_119782" x="23.4614" y="137.883" width="892.073" height="373.403" filterUnits="userSpaceOnUse" color-interpolation-filters="sRGB">
<feFlood flood-opacity="0" result="BackgroundImageFix"/>
<feGaussianBlur in="BackgroundImageFix" stdDeviation="27.992"/>
<feComposite in2="SourceAlpha" operator="in" result="effect1_backgroundBlur_1116_119782"/>
<feBlend mode="normal" in="SourceGraphic" in2="effect1_backgroundBlur_1116_119782" result="shape"/>
</filter>
<filter id="filter1_b_1116_119782" x="115.7" y="146.706" width="749.116" height="146.905" filterUnits="userSpaceOnUse" color-interpolation-filters="sRGB">
<feFlood flood-opacity="0" result="BackgroundImageFix"/>
<feGaussianBlur in="BackgroundImageFix" stdDeviation="27.992"/>
<feComposite in2="SourceAlpha" operator="in" result="effect1_backgroundBlur_1116_119782"/>
<feBlend mode="normal" in="SourceGraphic" in2="effect1_backgroundBlur_1116_119782" result="shape"/>
</filter>
<filter id="filter2_f_1116_119782" x="-260.576" y="-431.779" width="967.754" height="587.754" filterUnits="userSpaceOnUse" color-interpolation-filters="sRGB">
<feFlood flood-opacity="0" result="BackgroundImageFix"/>
<feBlend mode="normal" in="SourceGraphic" in2="BackgroundImageFix" result="shape"/>
<feGaussianBlur stdDeviation="67.4384" result="effect1_foregroundBlur_1116_119782"/>
</filter>
<linearGradient id="paint0_linear_1116_119782" x1="212.49" y1="377.975" x2="212.49" y2="421.026" gradientUnits="userSpaceOnUse">
<stop stopColor="#00DED1" stop-opacity="0.12"/>
<stop offset="1" stop-color="#14292C" stop-opacity="0"/>
</linearGradient>
<linearGradient id="paint1_linear_1116_119782" x1="168.819" y1="248.82" x2="168.819" y2="291.872" gradientUnits="userSpaceOnUse">
<stop stopColor="#00DED1" stop-opacity="0.12"/>
<stop offset="1" stop-color="#14292C" stop-opacity="0"/>
</linearGradient>
<linearGradient id="paint2_linear_1116_119782" x1="81.506" y1="162.721" x2="81.506" y2="205.772" gradientUnits="userSpaceOnUse">
<stop stopColor="#00DED1" stop-opacity="0.12"/>
<stop offset="1" stop-color="#14292C" stop-opacity="0"/>
</linearGradient>
<linearGradient id="paint3_linear_1116_119782" x1="256.139" y1="205.77" x2="256.139" y2="248.821" gradientUnits="userSpaceOnUse">
<stop stopColor="#00DED1" stop-opacity="0.12"/>
<stop offset="1" stop-color="#14292C" stop-opacity="0"/>
</linearGradient>
<linearGradient id="paint4_linear_1116_119782" x1="168.819" y1="119.668" x2="168.819" y2="162.719" gradientUnits="userSpaceOnUse">
<stop stopColor="#00DED1" stop-opacity="0.12"/>
<stop offset="1" stop-color="#14292C" stop-opacity="0"/>
</linearGradient>
<linearGradient id="paint5_linear_1116_119782" x1="430.651" y1="162.668" x2="430.651" y2="205.719" gradientUnits="userSpaceOnUse">
<stop stopColor="#00DED1" stop-opacity="0.12"/>
<stop offset="1" stop-color="#14292C" stop-opacity="0"/>
</linearGradient>
<linearGradient id="paint6_linear_1116_119782" x1="48.7145" y1="15.0962" x2="352.247" y2="439.063" gradientUnits="userSpaceOnUse">
<stop stopColor="#222121"/>
<stop offset="1" stop-color="#131313"/>
</linearGradient>
<radialGradient id="paint7_radial_1116_119782" cx="0" cy="0" r="1" gradientUnits="userSpaceOnUse" gradientTransform="translate(177.415 203.729) rotate(5.77818) scale(663.506 130.479)">
<stop stopColor="#040404" stop-opacity="0.4"/>
<stop offset="1" stop-color="#121212" stop-opacity="0"/>
</radialGradient>
<linearGradient id="paint8_linear_1116_119782" x1="368.751" y1="200.078" x2="374.369" y2="250.532" gradientUnits="userSpaceOnUse">
<stop stopColor="#232323"/>
<stop offset="1" stop-color="#1C1C1C"/>
</linearGradient>
<radialGradient id="paint9_radial_1116_119782" cx="0" cy="0" r="1" gradientUnits="userSpaceOnUse" gradientTransform="translate(204.958 217.67) rotate(180) scale(209.576 183.089)">
<stop stopColor="#121212" stop-opacity="0"/>
<stop offset="0.630208" stop-color="#121212" stop-opacity="0.35"/>
<stop offset="1" stop-color="#121212" stop-opacity="0.88"/>
</radialGradient>
<linearGradient id="paint10_linear_1116_119782" x1="56.5898" y1="-435.228" x2="216.171" y2="100.725" gradientUnits="userSpaceOnUse">
<stop offset="0.25" stop-color="#39617D" stop-opacity="0.32"/>
<stop offset="0.630208" stop-color="#00DED1" stop-opacity="0.12"/>
<stop offset="1" stop-color="#343434" stop-opacity="0.51"/>
</linearGradient>
</defs>
</svg>
