<svg width="449" height="401" viewBox="0 0 449 401" fill="none" xmlns="http://www.w3.org/2000/svg">
<rect x="-13.4727" y="-17.6211" width="476.973" height="430.908" fill="white"/>
<rect x="322.129" y="421.344" width="43.6605" height="43.0513" transform="rotate(180 322.129 421.344)" stroke="#EDEDED" stroke-width="0.5"/>
<rect x="278.473" y="421.344" width="43.6605" height="43.0513" transform="rotate(180 278.473 421.344)" stroke="#EDEDED" stroke-width="0.5"/>
<rect x="453.172" y="421.344" width="43.6605" height="43.0513" transform="rotate(180 453.172 421.344)" stroke="#EDEDED" stroke-width="0.5"/>
<rect x="234.809" y="421.344" width="43.6605" height="43.0513" transform="rotate(180 234.809 421.344)" stroke="#EDEDED" stroke-width="0.5"/>
<rect x="409.508" y="421.344" width="43.6605" height="43.0513" transform="rotate(180 409.508 421.344)" stroke="#EDEDED" stroke-width="0.5"/>
<rect x="191.16" y="421.344" width="43.6605" height="43.0513" transform="rotate(180 191.16 421.344)" stroke="#EDEDED" stroke-width="0.5"/>
<rect x="365.84" y="421.344" width="43.6605" height="43.0513" transform="rotate(180 365.84 421.344)" stroke="#EDEDED" stroke-width="0.5"/>
<rect x="322.129" y="378.291" width="43.6605" height="43.0513" transform="rotate(180 322.129 378.291)" stroke="#EDEDED" stroke-width="0.5"/>
<rect x="103.84" y="378.291" width="43.6605" height="43.0513" transform="rotate(180 103.84 378.291)" stroke="#EDEDED" stroke-width="0.5"/>
<rect x="322.129" y="335.242" width="43.6605" height="43.0513" transform="rotate(180 322.129 335.242)" stroke="#EDEDED" stroke-width="0.5"/>
<rect x="103.84" y="335.242" width="43.6605" height="43.0513" transform="rotate(180 103.84 335.242)" stroke="#EDEDED" stroke-width="0.5"/>
<rect x="278.473" y="378.291" width="43.6605" height="43.0513" transform="rotate(180 278.473 378.291)" stroke="#EDEDED" stroke-width="0.5"/>
<rect x="60.1758" y="378.291" width="43.6605" height="43.0513" transform="rotate(180 60.1758 378.291)" stroke="#EDEDED" stroke-width="0.5"/>
<rect x="278.473" y="335.242" width="43.6605" height="43.0513" transform="rotate(180 278.473 335.242)" stroke="#EDEDED" stroke-width="0.5"/>
<rect x="60.1758" y="335.242" width="43.6605" height="43.0513" transform="rotate(180 60.1758 335.242)" stroke="#EDEDED" stroke-width="0.5"/>
<rect x="453.172" y="378.291" width="43.6605" height="43.0513" transform="rotate(180 453.172 378.291)" stroke="#EDEDED" stroke-width="0.5"/>
<rect x="234.809" y="378.291" width="43.6605" height="43.0513" transform="rotate(180 234.809 378.291)" stroke="#EDEDED" stroke-width="0.5"/>
<rect x="453.172" y="335.242" width="43.6605" height="43.0513" transform="rotate(180 453.172 335.242)" stroke="#EDEDED" stroke-width="0.5"/>
<rect x="234.809" y="335.242" width="43.6605" height="43.0513" transform="rotate(180 234.809 335.242)" stroke="#EDEDED" stroke-width="0.5"/>
<rect x="409.508" y="378.291" width="43.6605" height="43.0513" transform="rotate(180 409.508 378.291)" stroke="#EDEDED" stroke-width="0.5"/>
<rect x="409.508" y="335.242" width="43.6605" height="43.0513" transform="rotate(180 409.508 335.242)" stroke="#EDEDED" stroke-width="0.5"/>
<rect x="191.16" y="335.242" width="43.6605" height="43.0513" transform="rotate(180 191.16 335.242)" stroke="#EDEDED" stroke-width="0.5"/>
<rect x="365.84" y="378.291" width="43.6605" height="43.0513" transform="rotate(180 365.84 378.291)" stroke="#EDEDED" stroke-width="0.5"/>
<rect x="147.488" y="378.291" width="43.6605" height="43.0513" transform="rotate(180 147.488 378.291)" stroke="#EDEDED" stroke-width="0.5"/>
<rect x="365.84" y="335.242" width="43.6605" height="43.0513" transform="rotate(180 365.84 335.242)" stroke="#EDEDED" stroke-width="0.5"/>
<rect x="147.488" y="335.242" width="43.6605" height="43.0513" transform="rotate(180 147.488 335.242)" stroke="#EDEDED" stroke-width="0.5"/>
<rect x="322.129" y="292.189" width="43.6605" height="43.0513" transform="rotate(180 322.129 292.189)" stroke="#EDEDED" stroke-width="0.5"/>
<rect x="103.84" y="292.189" width="43.6605" height="43.0513" transform="rotate(180 103.84 292.189)" stroke="#EDEDED" stroke-width="0.5"/>
<rect x="322.129" y="249.137" width="43.6605" height="43.0513" transform="rotate(180 322.129 249.137)" stroke="#EDEDED" stroke-width="0.5"/>
<rect x="278.473" y="292.189" width="43.6605" height="43.0513" transform="rotate(180 278.473 292.189)" stroke="#EDEDED" stroke-width="0.5"/>
<rect x="60.1758" y="292.189" width="43.6605" height="43.0513" transform="rotate(180 60.1758 292.189)" stroke="#EDEDED" stroke-width="0.5"/>
<rect x="278.473" y="249.137" width="43.6605" height="43.0513" transform="rotate(180 278.473 249.137)" stroke="#EDEDED" stroke-width="0.5"/>
<rect x="453.172" y="292.189" width="43.6605" height="43.0513" transform="rotate(180 453.172 292.189)" stroke="#EDEDED" stroke-width="0.5"/>
<rect x="234.809" y="292.189" width="43.6605" height="43.0513" transform="rotate(180 234.809 292.189)" stroke="#EDEDED" stroke-width="0.5"/>
<rect x="16.5195" y="292.189" width="43.6605" height="43.0513" transform="rotate(180 16.5195 292.189)" stroke="#EDEDED" stroke-width="0.5"/>
<rect x="453.172" y="249.137" width="43.6605" height="43.0513" transform="rotate(180 453.172 249.137)" stroke="#EDEDED" stroke-width="0.5"/>
<rect x="234.809" y="249.137" width="43.6605" height="43.0513" transform="rotate(180 234.809 249.137)" stroke="#EDEDED" stroke-width="0.5"/>
<rect x="409.508" y="292.189" width="43.6605" height="43.0513" transform="rotate(180 409.508 292.189)" stroke="#EDEDED" stroke-width="0.5"/>
<rect x="191.152" y="292.189" width="43.6605" height="43.0513" transform="rotate(180 191.152 292.189)" stroke="#EDEDED" stroke-width="0.5"/>
<rect x="409.504" y="249.137" width="43.6605" height="43.0513" transform="rotate(180 409.504 249.137)" stroke="#EDEDED" stroke-width="0.5"/>
<rect x="191.152" y="249.137" width="43.6605" height="43.0513" transform="rotate(180 191.152 249.137)" stroke="#EDEDED" stroke-width="0.5"/>
<rect x="365.84" y="292.189" width="43.6605" height="43.0513" transform="rotate(180 365.84 292.189)" stroke="#EDEDED" stroke-width="0.5"/>
<rect x="147.488" y="292.189" width="43.6605" height="43.0513" transform="rotate(180 147.488 292.189)" stroke="#EDEDED" stroke-width="0.5"/>
<rect x="365.84" y="249.137" width="43.6605" height="43.0513" transform="rotate(180 365.84 249.137)" stroke="#EDEDED" stroke-width="0.5"/>
<rect x="103.84" y="163.037" width="43.6605" height="43.0513" transform="rotate(180 103.84 163.037)" stroke="#EDEDED" stroke-width="0.5"/>
<rect x="278.473" y="206.086" width="43.6605" height="43.0513" transform="rotate(180 278.473 206.086)" stroke="#EDEDED" stroke-width="0.5"/>
<rect x="453.172" y="206.086" width="43.6605" height="43.0513" transform="rotate(180 453.172 206.086)" stroke="#EDEDED" stroke-width="0.5"/>
<rect x="234.809" y="163.037" width="43.6605" height="43.0513" transform="rotate(180 234.809 163.037)" stroke="#EDEDED" stroke-width="0.5"/>
<rect x="16.5195" y="163.037" width="43.6605" height="43.0513" transform="rotate(180 16.5195 163.037)" stroke="#EDEDED" stroke-width="0.5"/>
<rect x="409.504" y="206.086" width="43.6605" height="43.0513" transform="rotate(180 409.504 206.086)" stroke="#EDEDED" stroke-width="0.5"/>
<rect x="191.152" y="206.086" width="43.6605" height="43.0513" transform="rotate(180 191.152 206.086)" stroke="#EDEDED" stroke-width="0.5"/>
<rect x="409.5" y="163.037" width="43.6605" height="43.0513" transform="rotate(180 409.5 163.037)" stroke="#EDEDED" stroke-width="0.5"/>
<rect x="191.152" y="163.037" width="43.6605" height="43.0513" transform="rotate(180 191.152 163.037)" stroke="#EDEDED" stroke-width="0.5"/>
<rect x="365.84" y="163.037" width="43.6605" height="43.0513" transform="rotate(180 365.84 163.037)" stroke="#EDEDED" stroke-width="0.5"/>
<rect x="147.488" y="163.037" width="43.6605" height="43.0513" transform="rotate(180 147.488 163.037)" stroke="#EDEDED" stroke-width="0.5"/>
<rect x="103.84" y="119.984" width="43.6605" height="43.0513" transform="rotate(180 103.84 119.984)" stroke="#EDEDED" stroke-width="0.5"/>
<rect x="103.84" y="76.9336" width="43.6605" height="43.0513" transform="rotate(180 103.84 76.9336)" stroke="#EDEDED" stroke-width="0.5"/>
<rect x="60.1758" y="119.984" width="43.6605" height="43.0513" transform="rotate(180 60.1758 119.984)" stroke="#EDEDED" stroke-width="0.5"/>
<rect x="60.1758" y="76.9336" width="43.6605" height="43.0513" transform="rotate(180 60.1758 76.9336)" stroke="#EDEDED" stroke-width="0.5"/>
<rect x="453.172" y="119.984" width="43.6605" height="43.0513" transform="rotate(180 453.172 119.984)" stroke="#EDEDED" stroke-width="0.5"/>
<rect x="16.5195" y="119.984" width="43.6605" height="43.0513" transform="rotate(180 16.5195 119.984)" stroke="#EDEDED" stroke-width="0.5"/>
<rect x="453.172" y="76.9336" width="43.6605" height="43.0513" transform="rotate(180 453.172 76.9336)" stroke="#EDEDED" stroke-width="0.5"/>
<rect x="409.5" y="119.984" width="43.6605" height="43.0513" transform="rotate(180 409.5 119.984)" stroke="#EDEDED" stroke-width="0.5"/>
<rect x="191.152" y="119.984" width="43.6605" height="43.0513" transform="rotate(180 191.152 119.984)" stroke="#EDEDED" stroke-width="0.5"/>
<rect x="409.5" y="76.9336" width="43.6605" height="43.0513" transform="rotate(180 409.5 76.9336)" stroke="#EDEDED" stroke-width="0.5"/>
<rect x="191.152" y="76.9336" width="43.6605" height="43.0513" transform="rotate(180 191.152 76.9336)" stroke="#EDEDED" stroke-width="0.5"/>
<rect x="147.488" y="76.9336" width="43.6605" height="43.0513" transform="rotate(180 147.488 76.9336)" stroke="#EDEDED" stroke-width="0.5"/>
<rect x="103.84" y="33.8809" width="43.6605" height="43.0513" transform="rotate(180 103.84 33.8809)" stroke="#EDEDED" stroke-width="0.5"/>
<rect x="60.1758" y="33.8809" width="43.6605" height="43.0513" transform="rotate(180 60.1758 33.8809)" stroke="#EDEDED" stroke-width="0.5"/>
<rect x="453.172" y="33.8809" width="43.6605" height="43.0513" transform="rotate(180 453.172 33.8809)" stroke="#EDEDED" stroke-width="0.5"/>
<rect x="191.16" y="378.291" width="43.6605" height="43.0513" transform="rotate(180 191.16 378.291)" stroke="url(#paint0_linear_1200_142756)"/>
<rect x="147.488" y="249.137" width="43.6605" height="43.0513" transform="rotate(180 147.488 249.137)" stroke="url(#paint1_linear_1200_142756)"/>
<rect x="60.1758" y="163.037" width="43.6605" height="43.0513" transform="rotate(180 60.1758 163.037)" stroke="url(#paint2_linear_1200_142756)"/>
<rect x="234.809" y="206.086" width="43.6605" height="43.0513" transform="rotate(180 234.809 206.086)" stroke="url(#paint3_linear_1200_142756)"/>
<rect x="147.488" y="119.984" width="43.6605" height="43.0513" transform="rotate(180 147.488 119.984)" stroke="url(#paint4_linear_1200_142756)"/>
<rect x="409.32" y="162.984" width="43.6605" height="43.0513" transform="rotate(180 409.32 162.984)" stroke="url(#paint5_linear_1200_142756)"/>
<g filter="url(#filter0_b_1200_142756)">
<rect x="79.9453" y="194.184" width="780.105" height="261.435" rx="16.8514" fill="url(#paint6_linear_1200_142756)"/>
<rect x="80.4719" y="194.71" width="779.052" height="260.382" rx="16.3248" stroke="#EDEDED" stroke-width="1.05321"/>
</g>
<g filter="url(#filter1_b_1200_142756)">
<rect x="172.184" y="203.006" width="637.15" height="34.9379" rx="17.4689" fill="#EDEDED"/>
<path fill-rule="evenodd" clip-rule="evenodd" d="M190.493 218.013H193.092V216.678C193.092 215.96 192.51 215.378 191.793 215.378C191.075 215.378 190.493 215.96 190.493 216.678V218.013ZM189.16 218.013H188.181C187.444 218.013 186.848 218.61 186.848 219.346V225.573C186.848 226.309 187.444 226.906 188.181 226.906H195.403C196.139 226.906 196.736 226.309 196.736 225.573V219.346C196.736 218.61 196.139 218.013 195.403 218.013H194.425V216.678C194.425 215.224 193.247 214.045 191.793 214.045C190.339 214.045 189.16 215.224 189.16 216.678V218.013Z" fill="#3E3E3E"/>
<path d="M216.152 222.026C216.181 220.979 216.741 220.154 217.803 220.154C219.042 220.154 219.454 220.95 219.454 221.938V226.199H220.84V221.702C220.84 220.124 220 218.9 218.304 218.9C217.493 218.9 216.668 219.181 216.152 219.933V215.524H214.766V226.199H216.152V222.026ZM224.903 216.866H223.635V218.016C223.635 218.635 223.311 219.107 222.544 219.107H222.16V220.36H223.517V224.253C223.517 225.536 224.284 226.273 225.493 226.273C225.965 226.273 226.319 226.184 226.437 226.14V224.961C226.319 224.99 226.068 225.02 225.891 225.02C225.168 225.02 224.903 224.695 224.903 224.046V220.36H226.437V219.107H224.903V216.866ZM230.144 216.866H228.876V218.016C228.876 218.635 228.552 219.107 227.785 219.107H227.402V220.36H228.758V224.253C228.758 225.536 229.525 226.273 230.734 226.273C231.206 226.273 231.56 226.184 231.678 226.14V224.961C231.56 224.99 231.309 225.02 231.132 225.02C230.41 225.02 230.144 224.695 230.144 224.046V220.36H231.678V219.107H230.144V216.866ZM234.755 229.001V225.241C235.139 225.875 235.964 226.391 237.055 226.391C239.134 226.391 240.358 224.754 240.358 222.646C240.358 220.581 239.223 218.945 237.1 218.945C235.95 218.945 235.109 219.505 234.726 220.213V219.107H233.384V229.001H234.755ZM238.943 222.646C238.943 224.105 238.132 225.152 236.849 225.152C235.581 225.152 234.74 224.105 234.74 222.646C234.74 221.23 235.581 220.169 236.849 220.169C238.147 220.169 238.943 221.23 238.943 222.646ZM241.461 224.356C241.579 225.167 242.405 226.42 244.351 226.42C246.106 226.42 246.946 225.226 246.946 224.223C246.946 223.176 246.268 222.395 244.985 222.115L243.835 221.864C243.289 221.746 243.024 221.437 243.024 221.009C243.024 220.522 243.496 220.065 244.203 220.065C245.324 220.065 245.619 220.876 245.678 221.245L246.902 220.788C246.754 220.154 246.15 218.886 244.203 218.886C242.817 218.886 241.682 219.918 241.682 221.127C241.682 222.13 242.346 222.882 243.451 223.118L244.661 223.383C245.25 223.516 245.575 223.855 245.575 224.297C245.575 224.798 245.147 225.241 244.366 225.241C243.363 225.241 242.803 224.651 242.714 223.914L241.461 224.356ZM248.732 225.256C248.732 225.831 249.175 226.273 249.75 226.273C250.325 226.273 250.782 225.831 250.782 225.256C250.782 224.68 250.325 224.223 249.75 224.223C249.175 224.223 248.732 224.68 248.732 225.256ZM248.718 220.065C248.718 220.64 249.16 221.083 249.735 221.083C250.31 221.083 250.767 220.64 250.767 220.065C250.767 219.49 250.31 219.033 249.735 219.033C249.16 219.033 248.718 219.49 248.718 220.065ZM258.288 215.745H256.946L251.888 226.199H253.23L258.288 215.745ZM262.622 215.745H261.28L256.223 226.199H257.564L262.622 215.745ZM261.951 224.356C262.069 225.167 262.895 226.42 264.841 226.42C266.596 226.42 267.436 225.226 267.436 224.223C267.436 223.176 266.758 222.395 265.475 222.115L264.325 221.864C263.78 221.746 263.514 221.437 263.514 221.009C263.514 220.522 263.986 220.065 264.694 220.065C265.814 220.065 266.109 220.876 266.168 221.245L267.392 220.788C267.245 220.154 266.64 218.886 264.694 218.886C263.308 218.886 262.172 219.918 262.172 221.127C262.172 222.13 262.836 222.882 263.942 223.118L265.151 223.383C265.741 223.516 266.065 223.855 266.065 224.297C266.065 224.798 265.637 225.241 264.856 225.241C263.853 225.241 263.293 224.651 263.205 223.914L261.951 224.356ZM273.884 225.344C273.884 225.639 273.913 226.037 273.943 226.199H275.27C275.24 225.949 275.196 225.447 275.196 224.887V219.107H273.81V223.383C273.81 224.459 273.25 225.197 272.129 225.197C270.964 225.197 270.522 224.341 270.522 223.368V219.107H269.136V223.575C269.136 225.182 270.139 226.42 271.79 226.42C272.616 226.42 273.5 226.081 273.884 225.344ZM278.933 229.001V225.241C279.316 225.875 280.142 226.391 281.233 226.391C283.312 226.391 284.536 224.754 284.536 222.646C284.536 220.581 283.4 218.945 281.277 218.945C280.127 218.945 279.286 219.505 278.903 220.213V219.107H277.561V229.001H278.933ZM283.12 222.646C283.12 224.105 282.309 225.152 281.026 225.152C279.758 225.152 278.918 224.105 278.918 222.646C278.918 221.23 279.758 220.169 281.026 220.169C282.324 220.169 283.12 221.23 283.12 222.646ZM285.859 224.297C285.859 225.418 286.788 226.42 288.233 226.42C289.501 226.42 290.209 225.742 290.519 225.241C290.519 225.757 290.563 226.022 290.592 226.199H291.949C291.92 226.022 291.861 225.654 291.861 225.034V221.481C291.861 220.095 291.035 218.886 288.912 218.886C287.378 218.886 286.154 219.829 286.007 221.186L287.334 221.496C287.422 220.67 287.968 220.065 288.941 220.065C290.017 220.065 290.475 220.64 290.475 221.333C290.475 221.584 290.357 221.805 289.929 221.864L288.012 222.144C286.788 222.321 285.859 223.029 285.859 224.297ZM288.425 225.256C287.717 225.256 287.275 224.754 287.275 224.223C287.275 223.589 287.717 223.25 288.307 223.162L290.475 222.837V223.162C290.475 224.71 289.56 225.256 288.425 225.256ZM294.845 222.631C294.845 221.171 295.671 220.139 296.939 220.139C298.207 220.139 298.974 221.142 298.974 222.601C298.974 224.061 298.193 225.167 296.925 225.167C295.597 225.167 294.845 224.091 294.845 222.631ZM298.989 225.241C298.989 225.668 299.033 226.037 299.063 226.199H300.404C300.39 226.081 300.331 225.565 300.331 224.887V215.524H298.959V220.11C298.723 219.534 298.045 218.915 296.792 218.915C294.787 218.915 293.43 220.626 293.43 222.631C293.43 224.739 294.713 226.391 296.792 226.391C297.898 226.391 298.65 225.801 298.989 225.123V225.241ZM305.726 225.182C304.546 225.182 303.514 224.297 303.514 222.646C303.514 221.009 304.546 220.124 305.726 220.124C306.905 220.124 307.937 221.009 307.937 222.646C307.937 224.297 306.905 225.182 305.726 225.182ZM305.726 218.886C303.602 218.886 302.098 220.493 302.098 222.646C302.098 224.813 303.602 226.42 305.726 226.42C307.849 226.42 309.353 224.813 309.353 222.646C309.353 220.493 307.849 218.886 305.726 218.886ZM312.498 226.199V221.923C312.498 220.862 313.161 220.124 314.149 220.124C315.211 220.124 315.653 220.832 315.653 221.746V226.199H317.039V221.908C317.039 220.891 317.703 220.124 318.676 220.124C319.723 220.124 320.18 220.817 320.18 221.746V226.199H321.551V221.599C321.551 219.741 320.342 218.9 319.103 218.9C318.204 218.9 317.29 219.225 316.729 220.242C316.346 219.328 315.491 218.9 314.606 218.9C313.78 218.9 312.896 219.269 312.453 220.051V219.107H311.126V226.199H312.498ZM323.327 224.297C323.327 225.418 324.255 226.42 325.701 226.42C326.969 226.42 327.676 225.742 327.986 225.241C327.986 225.757 328.03 226.022 328.06 226.199H329.416C329.387 226.022 329.328 225.654 329.328 225.034V221.481C329.328 220.095 328.502 218.886 326.379 218.886C324.845 218.886 323.621 219.829 323.474 221.186L324.801 221.496C324.89 220.67 325.435 220.065 326.408 220.065C327.485 220.065 327.942 220.64 327.942 221.333C327.942 221.584 327.824 221.805 327.396 221.864L325.479 222.144C324.255 222.321 323.327 223.029 323.327 224.297ZM325.892 225.256C325.184 225.256 324.742 224.754 324.742 224.223C324.742 223.589 325.184 223.25 325.774 223.162L327.942 222.837V223.162C327.942 224.71 327.028 225.256 325.892 225.256ZM332.858 226.199V219.107H331.487V226.199H332.858ZM331.177 216.423C331.177 216.969 331.62 217.411 332.165 217.411C332.726 217.411 333.168 216.969 333.168 216.423C333.168 215.863 332.726 215.421 332.165 215.421C331.62 215.421 331.177 215.863 331.177 216.423ZM336.602 222.1C336.602 221.024 337.163 220.154 338.254 220.154C339.492 220.154 339.905 220.95 339.905 221.938V226.199H341.291V221.702C341.291 220.124 340.451 218.9 338.755 218.9C337.93 218.9 337.089 219.24 336.573 220.124V219.107H335.216V226.199H336.602V222.1ZM343.349 225.256C343.349 225.831 343.791 226.273 344.366 226.273C344.941 226.273 345.398 225.831 345.398 225.256C345.398 224.68 344.941 224.223 344.366 224.223C343.791 224.223 343.349 224.68 343.349 225.256ZM350.377 220.169C351.586 220.169 352.102 220.979 352.279 221.673L353.532 221.142C353.237 220.065 352.264 218.886 350.377 218.886C348.357 218.886 346.809 220.434 346.809 222.646C346.809 224.798 348.327 226.42 350.392 226.42C352.235 226.42 353.252 225.226 353.591 224.209L352.367 223.678C352.205 224.238 351.719 225.138 350.392 225.138C349.241 225.138 348.224 224.268 348.224 222.646C348.224 220.994 349.256 220.169 350.377 220.169ZM358.183 225.182C357.003 225.182 355.971 224.297 355.971 222.646C355.971 221.009 357.003 220.124 358.183 220.124C359.362 220.124 360.394 221.009 360.394 222.646C360.394 224.297 359.362 225.182 358.183 225.182ZM358.183 218.886C356.059 218.886 354.555 220.493 354.555 222.646C354.555 224.813 356.059 226.42 358.183 226.42C360.306 226.42 361.81 224.813 361.81 222.646C361.81 220.493 360.306 218.886 358.183 218.886ZM364.955 226.199V221.923C364.955 220.862 365.618 220.124 366.606 220.124C367.668 220.124 368.11 220.832 368.11 221.746V226.199H369.496V221.908C369.496 220.891 370.159 220.124 371.133 220.124C372.18 220.124 372.637 220.817 372.637 221.746V226.199H374.008V221.599C374.008 219.741 372.799 218.9 371.56 218.9C370.661 218.9 369.747 219.225 369.186 220.242C368.803 219.328 367.948 218.9 367.063 218.9C366.237 218.9 365.353 219.269 364.91 220.051V219.107H363.583V226.199H364.955Z" fill="#3C3E3E"/>
<rect x="172.184" y="203.006" width="637.15" height="34.9379" rx="17.4689" stroke="#DBDBDB"/>
</g>
<circle cx="105.775" cy="220.48" r="5.20446" fill="#3E3E3E"/>
<circle cx="121.853" cy="220.48" r="5.20446" fill="#3E3E3E"/>
<circle cx="137.931" cy="220.48" r="5.20446" fill="#3E3E3E"/>
<rect x="0.445312" y="-0.78125" width="447.055" height="402.196" fill="url(#paint7_radial_1200_142756)"/>
<g filter="url(#filter2_f_1200_142756)">
<ellipse cx="223.801" cy="-137.586" rx="349" ry="159" fill="url(#paint8_linear_1200_142756)"/>
</g>
<defs>
<filter id="filter0_b_1200_142756" x="23.9614" y="138.2" width="892.073" height="373.403" filterUnits="userSpaceOnUse" color-interpolation-filters="sRGB">
<feFlood flood-opacity="0" result="BackgroundImageFix"/>
<feGaussianBlur in="BackgroundImageFix" stdDeviation="27.992"/>
<feComposite in2="SourceAlpha" operator="in" result="effect1_backgroundBlur_1200_142756"/>
<feBlend mode="normal" in="SourceGraphic" in2="effect1_backgroundBlur_1200_142756" result="shape"/>
</filter>
<filter id="filter1_b_1200_142756" x="171.346" y="202.169" width="638.823" height="36.6122" filterUnits="userSpaceOnUse" color-interpolation-filters="sRGB">
<feFlood flood-opacity="0" result="BackgroundImageFix"/>
<feGaussianBlur in="BackgroundImageFix" stdDeviation="0.168672"/>
<feComposite in2="SourceAlpha" operator="in" result="effect1_backgroundBlur_1200_142756"/>
<feBlend mode="normal" in="SourceGraphic" in2="effect1_backgroundBlur_1200_142756" result="shape"/>
</filter>
<filter id="filter2_f_1200_142756" x="-260.076" y="-431.463" width="967.754" height="587.754" filterUnits="userSpaceOnUse" color-interpolation-filters="sRGB">
<feFlood flood-opacity="0" result="BackgroundImageFix"/>
<feBlend mode="normal" in="SourceGraphic" in2="BackgroundImageFix" result="shape"/>
<feGaussianBlur stdDeviation="67.4384" result="effect1_foregroundBlur_1200_142756"/>
</filter>
<linearGradient id="paint0_linear_1200_142756" x1="212.99" y1="378.291" x2="212.99" y2="421.342" gradientUnits="userSpaceOnUse">
<stop stop-color="#00FFF0" stop-opacity="0.12"/>
<stop offset="1" stop-color="#00C5A1" stop-opacity="0.29"/>
</linearGradient>
<linearGradient id="paint1_linear_1200_142756" x1="169.319" y1="249.137" x2="169.319" y2="292.188" gradientUnits="userSpaceOnUse">
<stop stop-color="#00FFF0" stop-opacity="0.12"/>
<stop offset="1" stop-color="#00C5A1" stop-opacity="0.29"/>
</linearGradient>
<linearGradient id="paint2_linear_1200_142756" x1="82.006" y1="163.037" x2="82.006" y2="206.088" gradientUnits="userSpaceOnUse">
<stop stop-color="#00FFF0" stop-opacity="0.12"/>
<stop offset="1" stop-color="#00C5A1" stop-opacity="0.29"/>
</linearGradient>
<linearGradient id="paint3_linear_1200_142756" x1="256.639" y1="206.086" x2="256.639" y2="249.137" gradientUnits="userSpaceOnUse">
<stop stop-color="#00FFF0" stop-opacity="0.12"/>
<stop offset="1" stop-color="#00C5A1" stop-opacity="0.29"/>
</linearGradient>
<linearGradient id="paint4_linear_1200_142756" x1="169.319" y1="119.984" x2="169.319" y2="163.036" gradientUnits="userSpaceOnUse">
<stop stop-color="#00FFF0" stop-opacity="0.12"/>
<stop offset="1" stop-color="#00C5A1" stop-opacity="0.29"/>
</linearGradient>
<linearGradient id="paint5_linear_1200_142756" x1="431.151" y1="162.984" x2="431.151" y2="206.036" gradientUnits="userSpaceOnUse">
<stop stop-color="#00FFF0" stop-opacity="0.12"/>
<stop offset="1" stop-color="#00C5A1" stop-opacity="0.29"/>
</linearGradient>
<linearGradient id="paint6_linear_1200_142756" x1="469.998" y1="194.184" x2="469.998" y2="455.619" gradientUnits="userSpaceOnUse">
<stop stop-color="#EDEDED"/>
<stop offset="1" stop-color="white" stop-opacity="0"/>
</linearGradient>
<radialGradient id="paint7_radial_1200_142756" cx="0" cy="0" r="1" gradientUnits="userSpaceOnUse" gradientTransform="translate(205.458 217.987) rotate(180) scale(209.576 183.089)">
<stop stop-color="white" stop-opacity="0"/>
<stop offset="0.630208" stop-color="white" stop-opacity="0.35"/>
<stop offset="1" stop-color="white" stop-opacity="0.88"/>
</radialGradient>
<linearGradient id="paint8_linear_1200_142756" x1="57.0898" y1="-434.911" x2="216.671" y2="101.042" gradientUnits="userSpaceOnUse">
<stop stop-color="#39617D" stop-opacity="0.49"/>
<stop offset="0.9999" stop-color="#00DED1" stop-opacity="0.46"/>
<stop offset="1" stop-color="white" stop-opacity="0.51"/>
</linearGradient>
</defs>
</svg>
