<svg xmlns="http://www.w3.org/2000/svg" width="1200" height="420" fill="none" viewBox="0 0 1200 420"><g clip-path="url(#a)" filter="url(#b)"><mask id="e" width="1579.66" height="2196.56" x="-220.853" y="40.055" fill="#000" maskUnits="userSpaceOnUse"><path fill="#fff" d="M-220.853 40.055h1579.66v2196.56h-1579.66z"/><path d="M44.266 2004.75c-24.447-2.82-41.979-24.92-39.157-49.37L206.03 214.265c2.821-24.447 24.927-41.979 49.374-39.158l838.096 96.715c24.45 2.821 41.98 24.927 39.16 49.374L931.736 2062.31c-2.821 24.45-24.926 41.98-49.374 39.16z"/></mask><path fill="url(#c)" d="M44.266 2004.75c-24.447-2.82-41.979-24.92-39.157-49.37L206.03 214.265c2.821-24.447 24.927-41.979 49.374-39.158l838.096 96.715c24.45 2.821 41.98 24.927 39.16 49.374L931.736 2062.31c-2.821 24.45-24.926 41.98-49.374 39.16z"/><path fill="url(#d)" d="m931.736 2062.31 5.902.68zM1093.5 271.822l-.68 5.902zm39.16 49.374-5.9-.681zM206.03 214.265l5.902.681zm49.374-39.158.681-5.902zM5.109 1955.38l-5.903-.68zm5.902.68L211.932 214.946l-11.804-1.362L-.794 1954.7zM254.723 181.009l838.097 96.715 1.36-11.804-838.095-96.715zm872.037 139.506L925.834 2061.63l11.804 1.36L1138.56 321.877zM883.044 2095.57l-838.097-96.72-1.362 11.81 838.096 96.71zm42.79-33.94c-2.445 21.19-21.603 36.38-42.79 33.94l-1.363 11.8c27.707 3.2 52.76-16.67 55.957-44.38zM1092.82 277.724c21.19 2.445 36.38 21.603 33.94 42.791l11.8 1.362c3.2-27.707-16.67-52.76-44.38-55.957zm-880.888-62.778c2.445-21.188 21.603-36.382 42.791-33.937l1.362-11.804c-27.707-3.197-52.76 16.672-55.957 44.379zM-.794 1954.7c-3.197 27.71 16.672 52.76 44.379 55.96l1.362-11.81c-21.188-2.44-36.381-21.6-33.936-42.79z" mask="url(#e)"/><path fill="url(#f)" d="m328.214 408.7 8.675-75.181 12.959 1.495 24.206 55.206.624.072 5.969-51.724 13.105 1.513-8.675 75.181-12.775-1.474-24.338-55.035-.624-.072-5.948 51.54zm69.454-14.23.979-8.48 32.451 3.745-.978 8.48zm17.871-12.705q-5.543-.64-9.342-3.496-3.763-2.852-5.491-7.218t-1.127-9.578l.373-3.231q.598-5.176 3.274-9.033 2.682-3.894 6.995-5.814t9.82-1.285q5.58.644 9.306 3.492 3.762 2.852 5.449 7.25 1.729 4.366 1.131 9.542l-.372 3.23q-.598 5.176-3.238 9.038-2.604 3.866-6.921 5.822-4.277 1.925-9.857 1.281m1.051-9.104q3.487.402 5.68-1.837 2.233-2.271 2.712-6.42l.373-3.23q.474-4.112-1.155-6.755t-5.227-3.058q-3.56-.411-5.749 1.792-2.152 2.207-2.626 6.318l-.373 3.23q-.479 4.149 1.142 6.865 1.625 2.68 5.223 3.095m78.269 56.944q-9.467-1.131-15.761-6.543-6.258-5.41-8.916-14.607-2.622-9.192-1.162-21.523 1.42-12.297 6.053-20.542 4.67-8.24 11.983-11.971 7.353-3.764 16.788-2.675 9.434 1.088 15.7 6.424 6.303 5.34 8.974 14.427 2.676 9.05 1.22 21.344-1.428 12.37-6.111 20.721-4.647 8.354-11.972 12.196-7.325 3.841-16.796 2.749m1.521-13.179q6.46.746 11.065-5.307t6.067-19.053q.986-8.553-.118-14.446-1.07-5.89-3.933-9.121-2.826-3.228-7.121-3.724-6.424-.741-11.02 5.239t-6.111 18.786q-1 8.664.056 14.663 1.097 5.967 3.956 9.235 2.863 3.232 7.159 3.728m69.649 21.392q-9.467-1.131-15.761-6.543-6.256-5.41-8.916-14.607-2.622-9.192-1.161-21.523 1.418-12.298 6.053-20.542 4.67-8.24 11.983-11.971 7.353-3.764 16.787-2.675t15.701 6.424q6.302 5.34 8.974 14.427 2.675 9.05 1.219 21.344-1.428 12.37-6.111 20.721-4.646 8.354-11.972 12.196-7.325 3.841-16.796 2.749m1.521-13.179q6.461.746 11.065-5.307 4.605-6.053 6.068-19.053.987-8.553-.119-14.446-1.068-5.89-3.932-9.121-2.826-3.228-7.121-3.724-6.425-.741-11.021 5.238-4.594 5.98-6.111 18.787-.999 8.664.057 14.663 1.097 5.967 3.956 9.235 2.863 3.232 7.158 3.728m69.65 21.391q-9.467-1.13-15.761-6.543-6.258-5.409-8.916-14.606-2.622-9.192-1.162-21.523 1.42-12.297 6.053-20.542 4.67-8.24 11.983-11.971 7.354-3.764 16.788-2.675t15.7 6.424q6.303 5.34 8.974 14.427 2.676 9.05 1.22 21.344-1.428 12.37-6.111 20.721-4.647 8.354-11.972 12.196-7.325 3.841-16.796 2.748m1.521-13.178q6.46.746 11.065-5.307t6.067-19.053q.987-8.553-.118-14.446-1.069-5.89-3.932-9.121-2.827-3.228-7.122-3.724-6.424-.741-11.02 5.238-4.596 5.98-6.111 18.787-1 8.664.056 14.663 1.097 5.967 3.956 9.235 2.863 3.232 7.159 3.728m69.65 21.391q-9.468-1.13-15.761-6.543-6.258-5.409-8.916-14.606-2.622-9.193-1.162-21.523 1.42-12.298 6.053-20.542 4.67-8.24 11.983-11.971 7.353-3.764 16.788-2.676 9.434 1.09 15.7 6.425 6.303 5.34 8.974 14.427 2.676 9.05 1.219 21.344-1.427 12.37-6.111 20.721-4.646 8.354-11.971 12.196-7.325 3.841-16.796 2.748m1.52-13.178q6.462.745 11.066-5.307t6.067-19.053q.987-8.553-.119-14.446-1.068-5.89-3.932-9.121-2.826-3.228-7.121-3.724-6.424-.741-11.02 5.238-4.596 5.98-6.111 18.787-1 8.663.056 14.663 1.097 5.967 3.956 9.235 2.863 3.232 7.158 3.728m69.65 21.391q-9.467-1.13-15.761-6.543-6.256-5.409-8.916-14.606-2.622-9.193-1.161-21.523 1.418-12.298 6.053-20.542 4.67-8.24 11.983-11.971 7.353-3.764 16.787-2.676 9.435 1.09 15.701 6.425 6.302 5.34 8.974 14.427 2.675 9.05 1.219 21.344-1.428 12.37-6.111 20.721-4.647 8.354-11.972 12.196-7.325 3.841-16.796 2.748m1.521-13.178q6.461.746 11.065-5.308 4.605-6.052 6.067-19.052.988-8.553-.118-14.446-1.068-5.89-3.932-9.121-2.826-3.228-7.122-3.724-6.423-.741-11.02 5.238-4.595 5.98-6.111 18.787-.999 8.664.057 14.663 1.097 5.967 3.956 9.235 2.863 3.232 7.158 3.728m69.65 21.391q-9.467-1.13-15.761-6.543-6.258-5.409-8.916-14.606-2.622-9.193-1.162-21.523 1.42-12.298 6.053-20.542 4.67-8.24 11.983-11.971 7.353-3.764 16.788-2.676 9.434 1.09 15.7 6.425 6.303 5.34 8.974 14.427 2.676 9.05 1.22 21.344-1.428 12.37-6.111 20.721-4.647 8.353-11.972 12.196-7.325 3.841-16.796 2.748m1.521-13.178q6.46.746 11.065-5.308 4.604-6.052 6.067-19.052.987-8.553-.118-14.446-1.069-5.89-3.932-9.121-2.828-3.228-7.122-3.724-6.424-.741-11.02 5.238-4.596 5.98-6.111 18.787-1 8.664.056 14.663 1.097 5.967 3.956 9.235 2.863 3.232 7.159 3.728m69.65 21.391q-9.468-1.13-15.761-6.543-6.258-5.408-8.916-14.606-2.623-9.193-1.162-21.523 1.42-12.298 6.053-20.542 4.67-8.24 11.983-11.971 7.353-3.764 16.788-2.676 9.434 1.09 15.7 6.425 6.303 5.34 8.974 14.427 2.675 9.05 1.219 21.344-1.427 12.37-6.111 20.721-4.646 8.353-11.971 12.196-7.326 3.841-16.796 2.748m1.52-13.178q6.461.746 11.066-5.308 4.603-6.053 6.067-19.052.987-8.553-.119-14.446-1.068-5.89-3.932-9.121-2.826-3.228-7.121-3.724-6.424-.741-11.02 5.238-4.596 5.98-6.111 18.787-1 8.664.056 14.663 1.097 5.967 3.956 9.235 2.864 3.232 7.158 3.728m81.747-55.069-8.676 75.181-15.895-1.834 6.935-60.094-.441-.05-18.462 8.805 1.627-14.096 19.971-9.636z"/></g><defs><linearGradient id="c" x1="31.199" x2="1193.07" y1="16.282" y2="150.36" gradientUnits="userSpaceOnUse"><stop/><stop offset="1" stop-color="#decd43"/><stop offset="1" stop-color="#b19811"/></linearGradient><linearGradient id="d" x1="990.188" x2="834.844" y1="-180.606" y2="675.899" gradientUnits="userSpaceOnUse"><stop/><stop offset="1" stop-color="#c4ae38"/></linearGradient><linearGradient id="f" x1="487.939" x2="811.91" y1="336.476" y2="612.991" gradientUnits="userSpaceOnUse"><stop/><stop offset="1" stop-color="#ba9619" stop-opacity=".28"/></linearGradient><clipPath id="a"><path fill="#fff" d="M0 0h1200v420H0z"/></clipPath><filter id="b" width="1500.03" height="2298.84" x="-173.848" y="14.364" color-interpolation-filters="sRGB" filterUnits="userSpaceOnUse"><feFlood flood-opacity="0" result="BackgroundImageFix"/><feColorMatrix in="SourceAlpha" result="hardAlpha" values="0 0 0 0 0 0 0 0 0 0 0 0 0 0 0 0 0 0 127 0"/><feOffset dx="7.285" dy="25.496"/><feGaussianBlur stdDeviation="90"/><feComposite in2="hardAlpha" operator="out"/><feColorMatrix values="0 0 0 0 1 0 0 0 0 0.742167 0 0 0 0 0.0791667 0 0 0 1 0"/><feBlend in2="BackgroundImageFix" result="effect1_dropShadow_803_16272"/><feBlend in="SourceGraphic" in2="effect1_dropShadow_803_16272" result="shape"/></filter></defs></svg>