<svg width="194" height="26" viewBox="0 0 194 26" fill="none" xmlns="http://www.w3.org/2000/svg">
<path d="M8.75834 19.5754V17.029H2.66223V5.89777H-5.4526e-08V19.5754H8.75834ZM22.9257 19.5754H25.8194L20.6107 5.89777H17.5241L12.2768 19.5754H15.0933L16.2315 16.4502H21.7875L22.9257 19.5754ZM19.0095 8.84937L20.9001 14.0195H17.1189L19.0095 8.84937ZM34.9673 19.8841C37.8996 19.8841 40.2339 18.09 40.2339 14.7333V5.89777H37.5717V14.5404C37.5717 16.3345 36.5878 17.2798 34.9673 17.2798C33.3854 17.2798 32.3823 16.3345 32.3823 14.5404V5.89777H29.7201V14.7333C29.7201 18.09 32.0543 19.8841 34.9673 19.8841ZM57.6032 19.5754V5.89777H54.941V14.9455L49.25 5.89777H45.9318V19.5754H48.5941V9.87182L54.8059 19.5754H57.6032ZM69.6141 19.8648C73.4531 19.8648 75.4208 17.3183 75.9417 15.2156L73.4531 14.4632C73.0866 15.7364 71.9484 17.2605 69.6141 17.2605C67.4149 17.2605 65.37 15.6593 65.37 12.7463C65.37 9.64032 67.5306 8.17417 69.5755 8.17417C71.9484 8.17417 73.0094 9.62103 73.3374 10.9329L75.8453 10.1419C75.3051 7.92338 73.3567 5.6084 69.5755 5.6084C65.9101 5.6084 62.6113 8.38637 62.6113 12.7463C62.6113 17.1061 65.7944 19.8648 69.6141 19.8648ZM92.1595 19.5754V5.89777H89.478V11.3958H83.5169V5.89777H80.8547V19.5754H83.5169V13.9037H89.478V19.5754H92.1595ZM110.815 15.3506L107.767 5.89777H105.009L101.98 15.312L99.4719 5.89777H96.6554L100.456 19.5754H103.234L106.359 9.83324L109.484 19.5754H112.224L116.005 5.89777H113.285L110.815 15.3506ZM129.072 19.5754V17.0675H123.169V13.9037H128.512V11.5309H123.169V8.40566H129.072V5.89777H120.506V19.5754H129.072ZM143.001 19.5754V17.0675H137.098V13.9037H142.441V11.5309H137.098V8.40566H143.001V5.89777H134.435V19.5754H143.001ZM156.698 19.5754H160.036L154.576 11.8588L159.997 5.89777H156.505L151.027 12.0903V5.89777H148.364V19.5754H151.027V15.775L152.724 13.9037L156.698 19.5754Z" fill="#1C1C1C"/>
<rect x="167.852" width="25.4923" height="25.4923" rx="3.44491" fill="#1C1C1C"/>
<path d="M175.434 15.3407C175.588 17.3084 177.478 19.1604 180.199 19.1604C183.208 19.1604 185.002 17.1348 185.002 14.8005C185.002 12.119 183.227 10.6143 180.719 10.6143C179.89 10.6143 179.003 10.8843 178.462 11.3859L179.08 8.62723H184.327V6.33154H177.266L175.781 12.7556C176.051 12.8328 177.961 13.4887 178.212 13.5851C178.617 13.1221 179.292 12.7363 180.141 12.7363C181.298 12.7363 182.359 13.4115 182.359 14.8391C182.359 16.093 181.395 16.884 180.199 16.884C178.867 16.884 177.98 15.9387 177.922 14.7812L175.434 15.3407Z" fill="url(#paint0_linear_733_15579)"/>
<defs>
<linearGradient id="paint0_linear_733_15579" x1="177.673" y1="-28.8195" x2="195.739" y2="-26.9443" gradientUnits="userSpaceOnUse">
<stop stop-color="white"/>
<stop offset="0.973958" stop-color="#F9FCFF"/>
</linearGradient>
</defs>
</svg>
