<svg xmlns="http://www.w3.org/2000/svg" width="624" height="48" fill="none"><path fill="#FFFDFF" d="M158.151 35.176v-2.917h-10.623V12.695h-3.107v22.48h13.73Zm24.585 0h3.361l-8.941-22.481h-3.583l-8.942 22.48h3.33l2.378-6.277h9.956l2.441 6.278Zm-7.451-19.247 3.9 10.083h-7.737l3.837-10.083Zm26.052 19.722c4.566 0 8.085-2.853 8.085-8.149V12.695h-3.107v14.712c0 3.425-1.807 5.359-4.978 5.359-3.139 0-5.01-1.934-5.01-5.359V12.695h-3.076v14.807c0 5.296 3.52 8.15 8.086 8.15Zm36.715-.475V12.695h-3.107v17.249l-11.225-17.25h-4.153v22.482h3.107V16.849l12.144 18.327h3.234Zm20.189.475c5.168 0 8.719-3.012 9.924-7.229l-2.758-1.015c-.92 3.076-3.33 5.39-7.166 5.39-4.091 0-7.991-3.012-7.991-8.878s3.9-8.846 7.991-8.846c3.678 0 6.151 1.902 7.007 5.295l2.885-1.014c-1.141-4.345-4.756-7.135-9.892-7.135-5.581 0-11.162 4.186-11.162 11.7 0 7.515 5.359 11.732 11.162 11.732Zm36.495-.475V12.695h-3.107v9.607h-11.478v-9.607h-3.108v22.48h3.108v-9.987h11.478v9.988h3.107Zm43.608-4.693-5.771-17.788h-3.266l-5.644 17.598-4.946-17.598h-3.203l6.5 22.48h3.108l5.802-18.231 5.866 18.232h3.203l6.405-22.481h-3.203l-4.851 17.788Zm29.802 4.693V32.29h-10.558v-6.88h9.575v-2.917h-9.575V15.58h10.558v-2.885H354.48v22.48h13.666Zm23.181 0V32.29h-10.559v-6.88h9.576v-2.917h-9.576V15.58h10.559v-2.885h-13.666v22.48h13.666Zm23.434 0h3.931l-9.48-12.462 9.354-10.02h-4.091l-10.527 11.574V12.695h-3.107v22.48h3.107V28.39l3.203-3.424 7.61 10.21Z"/><rect width="39.367" height="39.367" x="442.949" y="3.992" fill="url(#a)" rx="6.906"/><path fill="url(#b)" d="M467.633 17.821h-9.999v2.414h6.774s-4.401 3.67-4.949 10.75h2.901c.588-6.633 4.279-9.98 5.273-10.831V17.82Z"/><rect width="39.367" height="39.367" x="442.949" y="3.992" stroke="url(#c)" stroke-width=".633" rx="6.906"/><defs><linearGradient id="a" x1="454.781" x2="475.443" y1="15.255" y2="59.109" gradientUnits="userSpaceOnUse"><stop stopColor="#CB88FF"/><stop offset="1" stop-color="#fff" stop-opacity="0"/></linearGradient><linearGradient id="b" x1="447.131" x2="473.269" y1="-5.738" y2="-4.901" gradientUnits="userSpaceOnUse"><stop stopColor="#fff"/><stop offset="1" stop-color="#fff"/></linearGradient><linearGradient id="c" x1="468.004" x2="479.003" y1="3.759" y2="18.322" gradientUnits="userSpaceOnUse"><stop stopColor="#76A891" stop-opacity=".11"/><stop offset="1" stop-color="#fff" stop-opacity=".35"/></linearGradient></defs></svg>