<svg xmlns="http://www.w3.org/2000/svg" width="94" height="64" fill="none" viewBox="0 0 94 64"><path fill="url(#a)" fill-rule="evenodd" d="M31.532 14.643c9.55 0 17.292 7.741 17.292 17.292 0 3.985-1.348 7.655-3.613 10.58v-3.071h-2.065v5.44l1.032 1.031h5.44v-2.064h-2.832a19.28 19.28 0 0 0 4.102-11.916c0-10.69-8.666-19.357-19.356-19.357zm-12.643 3.311 1.032 1.032v5.44h-2.064v-3.07a17.2 17.2 0 0 0-3.613 10.579c0 9.55 7.742 17.292 17.292 17.292v2.065c-10.69 0-19.356-8.667-19.356-19.357 0-4.494 1.532-8.631 4.102-11.916H13.45v-2.065zM42.567 32c0 5.954-4.827 10.78-10.781 10.78S21.005 37.955 21.005 32s4.827-10.781 10.78-10.781c5.955 0 10.782 4.827 10.782 10.78m-4.308-3.15-7.76 7.76h-1.46l-3.726-3.726 1.46-1.46 2.996 2.997 7.03-7.03z" clip-rule="evenodd"/><defs><linearGradient id="a" x1="5.777" x2="66.367" y1="47.385" y2="46.73" gradientUnits="userSpaceOnUse"><stop stop-opacity=".76"/><stop offset="1" stop-color="#d8ffec" stop-opacity=".48"/></linearGradient></defs></svg>