<svg width="93" height="62" viewBox="0 0 93 62" fill="none" xmlns="http://www.w3.org/2000/svg">
<path fill-rule="evenodd" clip-rule="evenodd" d="M31.5315 13.6425C41.0816 13.6425 48.8236 21.3844 48.8236 30.9346C48.8236 34.9202 47.4762 38.5895 45.2107 41.5142V38.4437H43.1463V43.8831L44.1785 44.9153H49.6179V42.8509L46.7862 42.8509C49.3555 39.566 50.888 35.4285 50.888 30.9346C50.888 20.2443 42.2218 11.5781 31.5315 11.5781V13.6425ZM18.8891 16.9543L19.9213 17.9865L19.9213 23.4259H17.857V20.3554C15.5915 23.28 14.2441 26.9494 14.2441 30.935C14.2441 40.4851 21.986 48.2271 31.5362 48.2271V50.2915C20.8459 50.2915 12.1797 41.6253 12.1797 30.935C12.1797 26.4411 13.7121 22.3036 16.2815 19.0187H13.4497L13.4497 16.9543L18.8891 16.9543ZM42.5667 30.9997C42.5667 36.9538 37.7399 41.7805 31.7859 41.7805C25.8318 41.7805 21.005 36.9538 21.005 30.9997C21.005 25.0456 25.8318 20.2189 31.7859 20.2189C37.7399 20.2189 42.5667 25.0456 42.5667 30.9997ZM38.2586 27.8506L30.4988 35.6104H29.039L25.3127 31.8841L26.7725 30.4244L29.7689 33.4208L36.7988 26.3909L38.2586 27.8506Z" fill="url(#paint0_linear_1221_83629)"/>
<defs>
<linearGradient id="paint0_linear_1221_83629" x1="50.888" y1="11.5781" x2="52.6893" y2="69.538" gradientUnits="userSpaceOnUse">
<stop stop-color="#373737" stop-opacity="0.85"/>
<stop offset="1" stop-color="#5D7D7B" stop-opacity="0.35"/>
</linearGradient>
</defs>
</svg>
