<svg xmlns="http://www.w3.org/2000/svg" width="450" height="400" fill="none" viewBox="0 0 450 400"><path fill="#131313" d="M-16.297-13.029h476.973v430.908H-16.297z"/><path stroke="url(#a)" stroke-width=".425" d="m225.007 25.883 88.819 76.143v120.423l-88.819 76.369-88.819-76.369m86.873-196.567-86.873 76.141v120.424"/><path stroke="url(#b)" stroke-width=".425" d="m225.008 45.982 75.738 64.93v102.687l-75.738 65.122-75.738-65.122m74.078-167.617L149.27 110.91v102.688"/><path stroke="url(#c)" stroke-width=".425" d="m225.01 7.785 100.6 86.243v136.396l-100.6 86.498-100.6-86.498M222.806 7.785 124.41 94.024V230.42"/><path stroke="url(#d)" stroke-width=".425" d="m225.001-9.231 111.674 95.736v151.409l-111.674 96.02-111.673-96.02M222.555-9.231 113.328 86.5v151.411"/><path stroke="url(#e)" stroke-width=".425" d="M225.012-24.967 346.926 79.548v165.295L225.012 349.668 103.098 244.843m119.243-269.81L103.098 79.543V244.84"/><path stroke="url(#f)" stroke-width=".425" d="M225.003-40.392 356.958 72.732V251.64L225.003 365.1 93.047 251.641M222.11-40.392 93.047 72.727v178.91"/><path stroke="url(#g)" stroke-width=".425" d="M225.008-56.328 367.336 65.688V258.66L225.008 381.037 82.68 258.66M221.889-56.328 82.679 65.682v192.974"/><path stroke="url(#h)" stroke-width=".425" d="m225.004-71.328 152.09 130.385v206.208l-152.09 130.77-152.09-130.77M221.672-71.328 72.914 59.051V265.26"/><path stroke="url(#i)" stroke-width=".425" d="m224.997-86.004 161.638 138.57v219.153l-161.638 138.98-161.638-138.98M221.456-86.004 63.359 52.56v219.154"/><path stroke="url(#j)" stroke-width=".425" d="M225.008-99.404 395.367 46.643v230.978L225.008 424.1 54.648 277.621M221.275-99.404 54.648 46.636v230.98"/><path stroke="url(#k)" stroke-width=".425" d="M225.002-114.84 405.41 39.821v244.603L225.002 439.543 44.594 284.424M221.049-114.84 44.594 39.814v244.604"/><path stroke="url(#l)" stroke-width=".425" d="M224.998-130.571 415.644 32.868V291.35L224.998 455.273 34.352 291.351M220.82-130.571 34.351 32.86v258.485"/><path stroke="url(#m)" stroke-width=".425" d="M225-146.012 425.695 26.042V298.15L225 470.713 24.305 298.15m196.298-444.162L24.305 26.034v272.11"/><path stroke="url(#n)" stroke-width=".425" d="M225-161.49 435.769 19.2v285.767L225 486.191 14.23 304.967M220.383-161.49 14.231 19.192V304.96"/><path stroke="url(#o)" stroke-width=".425" d="M225.013-177.192 446.004 12.26v299.624L225.013 501.896 4.023 311.884m216.148-489.076L4.023 12.251v299.626"/><path stroke="url(#p)" stroke-width=".425" d="M225.008-192.9 456.218 5.314v313.481l-231.21 198.801L-6.203 318.795M219.94-192.9-6.203 5.305v313.483"/><path stroke="url(#q)" stroke-width=".425" d="M225.01-211.836 468.547-3.055V327.14L225.01 536.539-18.527 327.14m238.201-538.976L-18.527-3.064v330.197"/><path stroke="url(#r)" stroke-width=".425" d="M225.006-229.284 479.899-10.768v345.591L225.006 553.986-29.887 334.823m249.308-564.107L-29.887-10.778v345.594"/><path stroke="url(#s)" stroke-width=".425" d="M225.003-247.675 491.866-18.897v361.819L225.003 572.377-41.859 342.922m261.015-590.597L-41.859-18.908v361.822"/><g clip-path="url(#t)"><rect width="131.505" height="121.291" x="159.25" y="158.354" fill="#121212" rx="16"/><circle cx="249.318" cy="205.445" r=".979" fill="#73867c" transform="rotate(-180 249.318 205.445)"/><circle cx="262.291" cy="185.332" r=".979" fill="#73867c" transform="rotate(-180 262.291 185.332)"/><circle cx="187.668" cy="190.515" r=".324" fill="#73867c" transform="rotate(-180 187.668 190.515)"/><circle cx="187.025" cy="203.498" r=".979" fill="#73867c" transform="rotate(-180 187.025 203.498)"/><circle cx="175.992" cy="205.441" r=".324" fill="#73867c" transform="rotate(-180 175.992 205.441)"/><circle cx="172.748" cy="198.955" r=".979" fill="#73867c" transform="rotate(-180 172.748 198.955)"/><circle cx="174.049" cy="233.343" r=".979" fill="#73867c" transform="rotate(-180 174.049 233.343)"/><circle cx="167.56" cy="221.017" r=".979" fill="#73867c" transform="rotate(-180 167.56 221.017)"/><circle cx="185.732" cy="221.017" r=".979" fill="#73867c" transform="rotate(-180 185.732 221.017)"/><circle cx="217.517" cy="237.888" r=".979" fill="#73867c" transform="rotate(-180 217.517 237.888)"/><circle cx="199.998" cy="235.295" r=".979" fill="#73867c" transform="rotate(-180 199.998 235.295)"/><circle cx="251.254" cy="253.455" r=".324" fill="#73867c" transform="rotate(-180 251.254 253.455)"/><circle r=".324" fill="#73867c" transform="matrix(-1 0 0 1 191.566 246.317)"/><circle r=".324" fill="#73867c" transform="matrix(-1 0 0 1 202.597 238.531)"/><circle r=".324" fill="#73867c" transform="matrix(-1 0 0 1 194.156 236.584)"/><circle cx="256.671" cy="234.212" r=".979" fill="#73867c" transform="rotate(-75 256.671 234.212)"/><circle cx="228.773" cy="249.138" r=".979" fill="#73867c" transform="rotate(-75 228.773 249.138)"/><circle cx="268.844" cy="201.121" r=".354" fill="#73867c" transform="rotate(105 268.844 201.121)"/><circle cx="234.387" cy="228.799" r=".324" fill="#73867c" transform="rotate(-180 234.387 228.799)"/><circle cx="258.599" cy="242.472" r=".979" fill="#73867c" transform="rotate(-180 258.599 242.472)"/><circle cx="276.382" cy="223.409" r=".979" fill="#73867c" transform="rotate(-75 276.382 223.409)"/><path fill="url(#u)" d="M155.246 135.035h141.821v154.241H155.246z"/><path fill="url(#v)" fill-rule="evenodd" d="M223.849 185.084a3.23 3.23 0 1 0-.001-6.461 3.23 3.23 0 0 0 .001 6.461m30.171 25.529a3.23 3.23 0 1 0-.001-6.461 3.23 3.23 0 0 0 .001 6.461m-57.372-3.231a3.23 3.23 0 1 1-6.461 0 3.23 3.23 0 0 1 6.461 0m27.071 3.231a3.23 3.23 0 1 0-.001-6.461 3.23 3.23 0 0 0 .001 6.461m-27.071 22.041a3.23 3.23 0 1 1-6.46 0 3.23 3.23 0 0 1 6.46 0m27.071 3.23a3.23 3.23 0 1 0 0-6.46 3.23 3.23 0 0 0 0 6.46m33.531-3.23a3.23 3.23 0 1 1-6.46 0 3.23 3.23 0 0 1 6.46 0m-33.401 28.761a3.23 3.23 0 1 0 0-6.46 3.23 3.23 0 0 0 0 6.46m-.528-9.489v-11.605h.8v11.605zm0-62.214v11.604h.8v-11.604zm-30.367 36.909v-11.605h.8v11.605zm60.602-11.605v11.605h.8v-11.605zm-34.925-27.578-19.534 16.827-.523-.606 19.535-16.827zm-19.534 42.615 19.534-16.826-.522-.606-19.535 16.826zm8.51-10.601-8.51-7.349-.523.605 8.51 7.35zm40.735-7.349-8.51 7.349.523.606 8.51-7.35zm-29.645 16.829-8.51-7.35-.523.606 8.51 7.349zm18.559-7.35-8.51 7.35.523.605 8.51-7.349zm-18.559 33.07-19.534-16.827-.522.606 19.534 16.827zm29.645-50.388-19.47-16.826.524-.605 19.469 16.826zm-19.47 8.962 19.47 16.827.523-.605-19.469-16.827zm19.537 24.6-19.47 16.826.523.605 19.47-16.826z" clip-rule="evenodd"/></g><rect width="130.856" height="120.642" x="159.574" y="158.678" stroke="url(#w)" stroke-width=".649" rx="15.676"/><path fill="url(#x)" d="M-9.625-5.141h469.25v420.284H-9.625z"/><g filter="url(#y)"><ellipse cx="225" cy="-284.158" fill="url(#z)" rx="688.312" ry="286.697"/></g><defs><linearGradient id="a" x1="259.775" x2="259.775" y1="307.722" y2="111.19" gradientUnits="userSpaceOnUse"><stop stop-opacity="0"/><stop offset=".495" stop-color="#7affdf"/><stop offset="1" stop-color="#375965" stop-opacity="0"/></linearGradient><linearGradient id="b" x1="254.655" x2="254.655" y1="286.313" y2="118.726" gradientUnits="userSpaceOnUse"><stop stop-opacity="0"/><stop offset=".495" stop-color="#7affdf"/><stop offset="1" stop-color="#375965" stop-opacity="0"/></linearGradient><linearGradient id="c" x1="264.39" x2="264.39" y1="327.006" y2="104.408" gradientUnits="userSpaceOnUse"><stop stop-opacity="0"/><stop offset=".495" stop-color="#7affdf"/><stop offset="1" stop-color="#375965" stop-opacity="0"/></linearGradient><linearGradient id="d" x1="268.716" x2="268.716" y1="345.128" y2="98.027" gradientUnits="userSpaceOnUse"><stop stop-opacity="0"/><stop offset=".495" stop-color="#7affdf"/><stop offset="1" stop-color="#375965" stop-opacity="0"/></linearGradient><linearGradient id="e" x1="272.736" x2="272.736" y1="361.889" y2="92.128" gradientUnits="userSpaceOnUse"><stop stop-opacity="0"/><stop offset=".495" stop-color="#7affdf"/><stop offset="1" stop-color="#375965" stop-opacity="0"/></linearGradient><linearGradient id="f" x1="276.657" x2="276.657" y1="378.327" y2="86.347" gradientUnits="userSpaceOnUse"><stop stop-opacity="0"/><stop offset=".495" stop-color="#7affdf"/><stop offset="1" stop-color="#375965" stop-opacity="0"/></linearGradient><linearGradient id="g" x1="280.722" x2="280.722" y1="395.305" y2="80.374" gradientUnits="userSpaceOnUse"><stop stop-opacity="0"/><stop offset=".495" stop-color="#7affdf"/><stop offset="1" stop-color="#375965" stop-opacity="0"/></linearGradient><linearGradient id="h" x1="284.54" x2="284.54" y1="411.281" y2="74.75" gradientUnits="userSpaceOnUse"><stop stop-opacity="0"/><stop offset=".495" stop-color="#7affdf"/><stop offset="1" stop-color="#375965" stop-opacity="0"/></linearGradient><linearGradient id="i" x1="288.271" x2="288.271" y1="426.902" y2="69.244" gradientUnits="userSpaceOnUse"><stop stop-opacity="0"/><stop offset=".495" stop-color="#7affdf"/><stop offset="1" stop-color="#375965" stop-opacity="0"/></linearGradient><linearGradient id="j" x1="291.695" x2="291.695" y1="441.177" y2="64.221" gradientUnits="userSpaceOnUse"><stop stop-opacity="0"/><stop offset=".495" stop-color="#7affdf"/><stop offset="1" stop-color="#375965" stop-opacity="0"/></linearGradient><linearGradient id="k" x1="295.623" x2="295.623" y1="457.628" y2="58.436" gradientUnits="userSpaceOnUse"><stop stop-opacity="0"/><stop offset=".495" stop-color="#7affdf"/><stop offset="1" stop-color="#375965" stop-opacity="0"/></linearGradient><linearGradient id="l" x1="299.627" x2="299.627" y1="474.384" y2="52.538" gradientUnits="userSpaceOnUse"><stop stop-opacity="0"/><stop offset=".495" stop-color="#7affdf"/><stop offset="1" stop-color="#375965" stop-opacity="0"/></linearGradient><linearGradient id="m" x1="303.563" x2="303.563" y1="490.831" y2="46.75" gradientUnits="userSpaceOnUse"><stop stop-opacity="0"/><stop offset=".495" stop-color="#7affdf"/><stop offset="1" stop-color="#375965" stop-opacity="0"/></linearGradient><linearGradient id="n" x1="307.506" x2="307.506" y1="507.32" y2="40.947" gradientUnits="userSpaceOnUse"><stop stop-opacity="0"/><stop offset=".495" stop-color="#7affdf"/><stop offset="1" stop-color="#375965" stop-opacity="0"/></linearGradient><linearGradient id="o" x1="311.521" x2="311.521" y1="524.049" y2="35.062" gradientUnits="userSpaceOnUse"><stop stop-opacity="0"/><stop offset=".495" stop-color="#7affdf"/><stop offset="1" stop-color="#375965" stop-opacity="0"/></linearGradient><linearGradient id="p" x1="315.516" x2="315.516" y1="540.773" y2="29.17" gradientUnits="userSpaceOnUse"><stop stop-opacity="0"/><stop offset=".495" stop-color="#7affdf"/><stop offset="1" stop-color="#375965" stop-opacity="0"/></linearGradient><linearGradient id="q" x1="320.344" x2="320.344" y1="560.952" y2="22.074" gradientUnits="userSpaceOnUse"><stop stop-opacity="0"/><stop offset=".495" stop-color="#7affdf"/><stop offset="1" stop-color="#375965" stop-opacity="0"/></linearGradient><linearGradient id="r" x1="324.785" x2="324.785" y1="579.538" y2="15.532" gradientUnits="userSpaceOnUse"><stop stop-opacity="0"/><stop offset=".495" stop-color="#7affdf"/><stop offset="1" stop-color="#375965" stop-opacity="0"/></linearGradient><linearGradient id="s" x1="329.467" x2="329.467" y1="599.128" y2="8.638" gradientUnits="userSpaceOnUse"><stop stop-opacity="0"/><stop offset=".495" stop-color="#7affdf"/><stop offset="1" stop-color="#375965" stop-opacity="0"/></linearGradient><linearGradient id="v" x1="202.799" x2="230.222" y1="250.871" y2="250.871" gradientUnits="userSpaceOnUse"><stop/><stop offset="1" stop-color="#d8ffec" stop-opacity=".6"/></linearGradient><linearGradient id="w" x1="159.25" x2="219.604" y1="196.753" y2="233.788" gradientUnits="userSpaceOnUse"><stop/><stop offset=".589" stop-color="#89a296"/><stop offset="1" stop-color="#89a296" stop-opacity=".08"/></linearGradient><linearGradient id="z" x1="-103.794" x2="162.841" y1="-820.273" y2="159.21" gradientUnits="userSpaceOnUse"><stop offset=".25" stop-color="#39617d" stop-opacity=".32"/><stop offset=".63" stop-color="#00ded1" stop-opacity=".12"/><stop offset="1" stop-color="#343434" stop-opacity=".51"/></linearGradient><radialGradient id="u" cx="0" cy="0" r="1" gradientTransform="matrix(-38.2987 0 0 -20.7816 226.156 226.876)" gradientUnits="userSpaceOnUse"><stop stop-opacity="0"/><stop offset=".63" stop-color="#121212" stop-opacity=".35"/><stop offset="1" stop-color="#121212" stop-opacity=".88"/></radialGradient><radialGradient id="x" cx="0" cy="0" r="1" gradientTransform="matrix(-136.774 0 0 -170.671 225 223.466)" gradientUnits="userSpaceOnUse"><stop stop-opacity="0"/><stop offset=".63" stop-color="#121212" stop-opacity=".35"/><stop offset="1" stop-color="#121212" stop-opacity=".88"/></radialGradient><clipPath id="t"><rect width="131.505" height="121.291" x="159.25" y="158.354" fill="#fff" rx="16"/></clipPath><filter id="y" width="1646.38" height="843.148" x="-598.189" y="-705.732" color-interpolation-filters="sRGB" filterUnits="userSpaceOnUse"><feFlood flood-opacity="0" result="BackgroundImageFix"/><feBlend in="SourceGraphic" in2="BackgroundImageFix" result="shape"/><feGaussianBlur result="effect1_foregroundBlur_1149_74759" stdDeviation="67.438"/></filter></defs></svg>