<svg width="450" height="400" viewBox="0 0 450 400" fill="none" xmlns="http://www.w3.org/2000/svg">
<rect x="-16.2969" y="-13.0293" width="476.973" height="430.908" fill="#131313"/>
<path d="M225.007 25.8825L313.826 102.026V222.449L225.007 298.818L136.188 222.449M223.061 25.8825L136.188 102.023V222.447" stroke="url(#paint0_linear_1149_74759)" stroke-width="0.425139"/>
<path d="M225.008 45.9824L300.746 110.912V213.599L225.008 278.721L149.27 213.599M223.348 45.9824L149.27 110.909V213.597" stroke="url(#paint1_linear_1149_74759)" stroke-width="0.425139"/>
<path d="M225.01 7.78504L325.61 94.0279V230.424L225.01 316.922L124.41 230.424M222.806 7.78504L124.41 94.0239V230.421" stroke="url(#paint2_linear_1149_74759)" stroke-width="0.425139"/>
<path d="M225.001 -9.23146L336.675 86.5046V237.914L225.001 333.934L113.328 237.914M222.555 -9.23146L113.328 86.5002V237.911" stroke="url(#paint3_linear_1149_74759)" stroke-width="0.425139"/>
<path d="M225.012 -24.9671L346.926 79.5484V244.843L225.012 349.668L103.098 244.843M222.341 -24.9671L103.098 79.5436V244.84" stroke="url(#paint4_linear_1149_74759)" stroke-width="0.425139"/>
<path d="M225.003 -40.3923L356.958 72.7317V251.641L225.003 365.1L93.0469 251.641M222.111 -40.3923L93.0469 72.7265V251.637" stroke="url(#paint5_linear_1149_74759)" stroke-width="0.425139"/>
<path d="M225.008 -56.3278L367.336 65.688V258.66L225.008 381.037L82.6797 258.66M221.889 -56.3278L82.6797 65.6824V258.656" stroke="url(#paint6_linear_1149_74759)" stroke-width="0.425139"/>
<path d="M225.004 -71.3278L377.094 59.0569V265.265L225.004 396.035L72.9141 265.265M221.672 -71.3278L72.9141 59.0509V265.26" stroke="url(#paint7_linear_1149_74759)" stroke-width="0.425139"/>
<path d="M224.997 -86.0041L386.635 52.566V271.719L224.997 410.699L63.3594 271.719M221.456 -86.0041L63.3594 52.5596V271.714" stroke="url(#paint8_linear_1149_74759)" stroke-width="0.425139"/>
<path d="M225.008 -99.4037L395.367 46.643V277.621L225.008 424.1L54.6484 277.621M221.275 -99.4037L54.6484 46.6363V277.616" stroke="url(#paint9_linear_1149_74759)" stroke-width="0.425139"/>
<path d="M225.002 -114.84L405.41 39.8214V284.424L225.002 439.543L44.5938 284.424M221.049 -114.84L44.5938 39.8143V284.418" stroke="url(#paint10_linear_1149_74759)" stroke-width="0.425139"/>
<path d="M224.998 -130.571L415.644 32.8675V291.351L224.998 455.273L34.3516 291.351M220.821 -130.571L34.3516 32.86V291.345" stroke="url(#paint11_linear_1149_74759)" stroke-width="0.425139"/>
<path d="M225 -146.012L425.695 26.0419V298.15L225 470.713L24.3047 298.15M220.603 -146.012L24.3047 26.034V298.144" stroke="url(#paint12_linear_1149_74759)" stroke-width="0.425139"/>
<path d="M225 -161.49L435.769 19.1998V304.967L225 486.191L14.2305 304.967M220.382 -161.49L14.2305 19.1915V304.961" stroke="url(#paint13_linear_1149_74759)" stroke-width="0.425139"/>
<path d="M225.013 -177.192L446.004 12.2596V311.884L225.013 501.896L4.02344 311.884M220.171 -177.192L4.02344 12.2509V311.877" stroke="url(#paint14_linear_1149_74759)" stroke-width="0.425139"/>
<path d="M225.008 -192.9L456.218 5.3136V318.795L225.008 517.596L-6.20312 318.795M219.941 -192.9L-6.20312 5.3045V318.788" stroke="url(#paint15_linear_1149_74759)" stroke-width="0.425139"/>
<path d="M225.01 -211.836L468.547 -3.05467V327.14L225.01 536.539L-18.5273 327.14M219.674 -211.836L-18.5273 -3.06426V327.133" stroke="url(#paint16_linear_1149_74759)" stroke-width="0.425139"/>
<path d="M225.006 -229.284L479.899 -10.7678V334.823L225.006 553.986L-29.8867 334.823M219.421 -229.284L-29.8867 -10.7779V334.816" stroke="url(#paint17_linear_1149_74759)" stroke-width="0.425139"/>
<path d="M225.003 -247.675L491.866 -18.8972V342.922L225.003 572.377L-41.8594 342.922M219.156 -247.675L-41.8594 -18.9077V342.914" stroke="url(#paint18_linear_1149_74759)" stroke-width="0.425139"/>
<g clip-path="url(#clip0_1149_74759)">
<rect x="159.25" y="158.354" width="131.505" height="121.291" rx="16" fill="#121212"/>
<circle cx="249.318" cy="205.445" r="0.978774" transform="rotate(-180 249.318 205.445)" fill="#73867C"/>
<circle cx="262.291" cy="185.332" r="0.978774" transform="rotate(-180 262.291 185.332)" fill="#73867C"/>
<ellipse cx="187.668" cy="190.515" rx="0.324429" ry="0.324429" transform="rotate(-180 187.668 190.515)" fill="#73867C"/>
<circle cx="187.025" cy="203.498" r="0.978774" transform="rotate(-180 187.025 203.498)" fill="#73867C"/>
<ellipse cx="175.992" cy="205.441" rx="0.324429" ry="0.324429" transform="rotate(-180 175.992 205.441)" fill="#73867C"/>
<circle cx="172.748" cy="198.955" r="0.978774" transform="rotate(-180 172.748 198.955)" fill="#73867C"/>
<circle cx="174.049" cy="233.343" r="0.978774" transform="rotate(-180 174.049 233.343)" fill="#73867C"/>
<circle cx="167.56" cy="221.017" r="0.978774" transform="rotate(-180 167.56 221.017)" fill="#73867C"/>
<circle cx="185.732" cy="221.017" r="0.978774" transform="rotate(-180 185.732 221.017)" fill="#73867C"/>
<circle cx="217.517" cy="237.888" r="0.978774" transform="rotate(-180 217.517 237.888)" fill="#73867C"/>
<circle cx="199.998" cy="235.295" r="0.978774" transform="rotate(-180 199.998 235.295)" fill="#73867C"/>
<ellipse cx="251.254" cy="253.455" rx="0.324429" ry="0.324429" transform="rotate(-180 251.254 253.455)" fill="#73867C"/>
<ellipse rx="0.324429" ry="0.324429" transform="matrix(-1 -8.18178e-08 -8.18178e-08 1 191.566 246.317)" fill="#73867C"/>
<ellipse rx="0.324429" ry="0.324429" transform="matrix(-1 -8.18178e-08 -8.18178e-08 1 202.597 238.531)" fill="#73867C"/>
<ellipse rx="0.324429" ry="0.324429" transform="matrix(-1 -8.18178e-08 -8.18178e-08 1 194.156 236.584)" fill="#73867C"/>
<circle cx="256.671" cy="234.212" r="0.978774" transform="rotate(-75 256.671 234.212)" fill="#73867C"/>
<circle cx="228.773" cy="249.138" r="0.978774" transform="rotate(-75 228.773 249.138)" fill="#73867C"/>
<circle cx="268.844" cy="201.121" r="0.353739" transform="rotate(105 268.844 201.121)" fill="#73867C"/>
<ellipse cx="234.387" cy="228.799" rx="0.324429" ry="0.324429" transform="rotate(-180 234.387 228.799)" fill="#73867C"/>
<circle cx="258.599" cy="242.472" r="0.978774" transform="rotate(-180 258.599 242.472)" fill="#73867C"/>
<circle cx="276.382" cy="223.409" r="0.978774" transform="rotate(-75 276.382 223.409)" fill="#73867C"/>
<path d="M155.246 135.035H297.067V289.276H155.246V135.035Z" fill="url(#paint19_radial_1149_74759)"/>
<path fill-rule="evenodd" clip-rule="evenodd" d="M223.849 185.084C225.633 185.084 227.079 183.637 227.079 181.853C227.079 180.069 225.633 178.623 223.849 178.623C222.065 178.623 220.618 180.069 220.618 181.853C220.618 183.637 222.065 185.084 223.849 185.084ZM254.02 210.613C255.804 210.613 257.25 209.166 257.25 207.382C257.25 205.598 255.804 204.152 254.02 204.152C252.236 204.152 250.79 205.598 250.79 207.382C250.79 209.166 252.236 210.613 254.02 210.613ZM196.648 207.382C196.648 209.166 195.202 210.613 193.418 210.613C191.634 210.613 190.188 209.166 190.188 207.382C190.188 205.598 191.634 204.152 193.418 204.152C195.202 204.152 196.648 205.598 196.648 207.382ZM223.719 210.613C225.503 210.613 226.949 209.166 226.949 207.382C226.949 205.598 225.503 204.152 223.719 204.152C221.935 204.152 220.489 205.598 220.489 207.382C220.489 209.166 221.935 210.613 223.719 210.613ZM196.648 232.654C196.648 234.438 195.202 235.884 193.418 235.884C191.634 235.884 190.188 234.438 190.188 232.654C190.188 230.87 191.634 229.424 193.418 229.424C195.202 229.424 196.648 230.87 196.648 232.654ZM223.719 235.884C225.503 235.884 226.949 234.438 226.949 232.654C226.949 230.87 225.503 229.424 223.719 229.424C221.935 229.424 220.489 230.87 220.489 232.654C220.489 234.438 221.935 235.884 223.719 235.884ZM257.25 232.654C257.25 234.438 255.804 235.884 254.02 235.884C252.236 235.884 250.79 234.438 250.79 232.654C250.79 230.87 252.236 229.424 254.02 229.424C255.804 229.424 257.25 230.87 257.25 232.654ZM223.849 261.415C225.633 261.415 227.079 259.969 227.079 258.185C227.079 256.401 225.633 254.954 223.849 254.954C222.065 254.954 220.618 256.401 220.618 258.185C220.618 259.969 222.065 261.415 223.849 261.415ZM223.321 251.926V240.321H224.121V251.926H223.321ZM223.321 189.712V201.316H224.121V189.712H223.321ZM192.954 226.621V215.016H193.754V226.621H192.954ZM253.556 215.016V226.621H254.356V215.016H253.556ZM218.631 187.438L199.097 204.265L198.574 203.659L218.109 186.832L218.631 187.438ZM199.097 230.053L218.631 213.227L218.109 212.621L198.574 229.447L199.097 230.053ZM207.607 219.452L199.097 212.103L198.574 212.708L207.084 220.058L207.607 219.452ZM248.342 212.103L239.832 219.452L240.355 220.058L248.865 212.708L248.342 212.103ZM218.697 228.932L210.187 221.582L209.664 222.188L218.174 229.537L218.697 228.932ZM237.256 221.582L228.746 228.932L229.269 229.537L237.779 222.188L237.256 221.582ZM218.697 254.652L199.163 237.825L198.641 238.431L218.175 255.258L218.697 254.652ZM248.342 204.264L228.872 187.438L229.396 186.833L248.865 203.659L248.342 204.264ZM228.872 213.226L248.342 230.053L248.865 229.448L229.396 212.621L228.872 213.226ZM248.409 237.826L228.939 254.652L229.462 255.257L248.932 238.431L248.409 237.826Z" fill="url(#paint20_linear_1149_74759)"/>
</g>
<rect x="159.574" y="158.678" width="130.856" height="120.642" rx="15.6756" stroke="url(#paint21_linear_1149_74759)" stroke-width="0.648858"/>
<rect x="-9.625" y="-5.14062" width="469.25" height="420.284" fill="url(#paint22_radial_1149_74759)"/>
<g filter="url(#filter0_f_1149_74759)">
<ellipse cx="225" cy="-284.158" rx="688.312" ry="286.697" fill="url(#paint23_linear_1149_74759)"/>
</g>
<defs>
<filter id="filter0_f_1149_74759" x="-598.189" y="-705.732" width="1646.38" height="843.148" filterUnits="userSpaceOnUse" color-interpolation-filters="sRGB">
<feFlood flood-opacity="0" result="BackgroundImageFix"/>
<feBlend mode="normal" in="SourceGraphic" in2="BackgroundImageFix" result="shape"/>
<feGaussianBlur stdDeviation="67.4384" result="effect1_foregroundBlur_1149_74759"/>
</filter>
<linearGradient id="paint0_linear_1149_74759" x1="259.775" y1="307.722" x2="259.775" y2="111.19" gradientUnits="userSpaceOnUse">
<stop stopColor="#375965" stop-opacity="0"/>
<stop offset="0.494792" stop-color="#7AFFDF"/>
<stop offset="1" stop-color="#375965" stop-opacity="0"/>
</linearGradient>
<linearGradient id="paint1_linear_1149_74759" x1="254.655" y1="286.313" x2="254.655" y2="118.726" gradientUnits="userSpaceOnUse">
<stop stopColor="#375965" stop-opacity="0"/>
<stop offset="0.494792" stop-color="#7AFFDF"/>
<stop offset="1" stop-color="#375965" stop-opacity="0"/>
</linearGradient>
<linearGradient id="paint2_linear_1149_74759" x1="264.39" y1="327.006" x2="264.39" y2="104.408" gradientUnits="userSpaceOnUse">
<stop stopColor="#375965" stop-opacity="0"/>
<stop offset="0.494792" stop-color="#7AFFDF"/>
<stop offset="1" stop-color="#375965" stop-opacity="0"/>
</linearGradient>
<linearGradient id="paint3_linear_1149_74759" x1="268.716" y1="345.128" x2="268.716" y2="98.027" gradientUnits="userSpaceOnUse">
<stop stopColor="#375965" stop-opacity="0"/>
<stop offset="0.494792" stop-color="#7AFFDF"/>
<stop offset="1" stop-color="#375965" stop-opacity="0"/>
</linearGradient>
<linearGradient id="paint4_linear_1149_74759" x1="272.736" y1="361.889" x2="272.736" y2="92.1276" gradientUnits="userSpaceOnUse">
<stop stopColor="#375965" stop-opacity="0"/>
<stop offset="0.494792" stop-color="#7AFFDF"/>
<stop offset="1" stop-color="#375965" stop-opacity="0"/>
</linearGradient>
<linearGradient id="paint5_linear_1149_74759" x1="276.657" y1="378.327" x2="276.657" y2="86.3469" gradientUnits="userSpaceOnUse">
<stop stopColor="#375965" stop-opacity="0"/>
<stop offset="0.494792" stop-color="#7AFFDF"/>
<stop offset="1" stop-color="#375965" stop-opacity="0"/>
</linearGradient>
<linearGradient id="paint6_linear_1149_74759" x1="280.722" y1="395.305" x2="280.722" y2="80.3735" gradientUnits="userSpaceOnUse">
<stop stopColor="#375965" stop-opacity="0"/>
<stop offset="0.494792" stop-color="#7AFFDF"/>
<stop offset="1" stop-color="#375965" stop-opacity="0"/>
</linearGradient>
<linearGradient id="paint7_linear_1149_74759" x1="284.54" y1="411.281" x2="284.54" y2="74.7496" gradientUnits="userSpaceOnUse">
<stop stopColor="#375965" stop-opacity="0"/>
<stop offset="0.494792" stop-color="#7AFFDF"/>
<stop offset="1" stop-color="#375965" stop-opacity="0"/>
</linearGradient>
<linearGradient id="paint8_linear_1149_74759" x1="288.271" y1="426.902" x2="288.271" y2="69.2438" gradientUnits="userSpaceOnUse">
<stop stopColor="#375965" stop-opacity="0"/>
<stop offset="0.494792" stop-color="#7AFFDF"/>
<stop offset="1" stop-color="#375965" stop-opacity="0"/>
</linearGradient>
<linearGradient id="paint9_linear_1149_74759" x1="291.695" y1="441.177" x2="291.695" y2="64.2208" gradientUnits="userSpaceOnUse">
<stop stopColor="#375965" stop-opacity="0"/>
<stop offset="0.494792" stop-color="#7AFFDF"/>
<stop offset="1" stop-color="#375965" stop-opacity="0"/>
</linearGradient>
<linearGradient id="paint10_linear_1149_74759" x1="295.623" y1="457.628" x2="295.623" y2="58.436" gradientUnits="userSpaceOnUse">
<stop stopColor="#375965" stop-opacity="0"/>
<stop offset="0.494792" stop-color="#7AFFDF"/>
<stop offset="1" stop-color="#375965" stop-opacity="0"/>
</linearGradient>
<linearGradient id="paint11_linear_1149_74759" x1="299.627" y1="474.384" x2="299.627" y2="52.5385" gradientUnits="userSpaceOnUse">
<stop stopColor="#375965" stop-opacity="0"/>
<stop offset="0.494792" stop-color="#7AFFDF"/>
<stop offset="1" stop-color="#375965" stop-opacity="0"/>
</linearGradient>
<linearGradient id="paint12_linear_1149_74759" x1="303.563" y1="490.831" x2="303.563" y2="46.7497" gradientUnits="userSpaceOnUse">
<stop stopColor="#375965" stop-opacity="0"/>
<stop offset="0.494792" stop-color="#7AFFDF"/>
<stop offset="1" stop-color="#375965" stop-opacity="0"/>
</linearGradient>
<linearGradient id="paint13_linear_1149_74759" x1="307.506" y1="507.32" x2="307.506" y2="40.9471" gradientUnits="userSpaceOnUse">
<stop stopColor="#375965" stop-opacity="0"/>
<stop offset="0.494792" stop-color="#7AFFDF"/>
<stop offset="1" stop-color="#375965" stop-opacity="0"/>
</linearGradient>
<linearGradient id="paint14_linear_1149_74759" x1="311.521" y1="524.049" x2="311.521" y2="35.0615" gradientUnits="userSpaceOnUse">
<stop stopColor="#375965" stop-opacity="0"/>
<stop offset="0.494792" stop-color="#7AFFDF"/>
<stop offset="1" stop-color="#375965" stop-opacity="0"/>
</linearGradient>
<linearGradient id="paint15_linear_1149_74759" x1="315.516" y1="540.773" x2="315.516" y2="29.17" gradientUnits="userSpaceOnUse">
<stop stopColor="#375965" stop-opacity="0"/>
<stop offset="0.494792" stop-color="#7AFFDF"/>
<stop offset="1" stop-color="#375965" stop-opacity="0"/>
</linearGradient>
<linearGradient id="paint16_linear_1149_74759" x1="320.344" y1="560.952" x2="320.344" y2="22.0736" gradientUnits="userSpaceOnUse">
<stop stopColor="#375965" stop-opacity="0"/>
<stop offset="0.494792" stop-color="#7AFFDF"/>
<stop offset="1" stop-color="#375965" stop-opacity="0"/>
</linearGradient>
<linearGradient id="paint17_linear_1149_74759" x1="324.785" y1="579.538" x2="324.785" y2="15.5321" gradientUnits="userSpaceOnUse">
<stop stopColor="#375965" stop-opacity="0"/>
<stop offset="0.494792" stop-color="#7AFFDF"/>
<stop offset="1" stop-color="#375965" stop-opacity="0"/>
</linearGradient>
<linearGradient id="paint18_linear_1149_74759" x1="329.467" y1="599.128" x2="329.467" y2="8.63783" gradientUnits="userSpaceOnUse">
<stop stopColor="#375965" stop-opacity="0"/>
<stop offset="0.494792" stop-color="#7AFFDF"/>
<stop offset="1" stop-color="#375965" stop-opacity="0"/>
</linearGradient>
<radialGradient id="paint19_radial_1149_74759" cx="0" cy="0" r="1" gradientUnits="userSpaceOnUse" gradientTransform="translate(226.156 226.876) rotate(-180) scale(38.2987 20.7816)">
<stop stopColor="#121212" stop-opacity="0"/>
<stop offset="0.630208" stop-color="#121212" stop-opacity="0.35"/>
<stop offset="1" stop-color="#121212" stop-opacity="0.88"/>
</radialGradient>
<linearGradient id="paint20_linear_1149_74759" x1="202.799" y1="250.871" x2="230.222" y2="250.871" gradientUnits="userSpaceOnUse">
<stop stopColor="#F4FFFA"/>
<stop offset="1" stop-color="#D8FFEC" stop-opacity="0.6"/>
</linearGradient>
<linearGradient id="paint21_linear_1149_74759" x1="159.25" y1="196.753" x2="219.604" y2="233.788" gradientUnits="userSpaceOnUse">
<stop stopColor="#DAE9E2"/>
<stop offset="0.588542" stop-color="#89A296"/>
<stop offset="1" stop-color="#89A296" stop-opacity="0.08"/>
</linearGradient>
<radialGradient id="paint22_radial_1149_74759" cx="0" cy="0" r="1" gradientUnits="userSpaceOnUse" gradientTransform="translate(225 223.466) rotate(180) scale(136.774 170.671)">
<stop stopColor="#121212" stop-opacity="0"/>
<stop offset="0.630208" stop-color="#121212" stop-opacity="0.35"/>
<stop offset="1" stop-color="#121212" stop-opacity="0.88"/>
</radialGradient>
<linearGradient id="paint23_linear_1149_74759" x1="-103.794" y1="-820.273" x2="162.841" y2="159.21" gradientUnits="userSpaceOnUse">
<stop offset="0.25" stop-color="#39617D" stop-opacity="0.32"/>
<stop offset="0.630208" stop-color="#00DED1" stop-opacity="0.12"/>
<stop offset="1" stop-color="#343434" stop-opacity="0.51"/>
</linearGradient>
<clipPath id="clip0_1149_74759">
<rect x="159.25" y="158.354" width="131.505" height="121.291" rx="16" fill="white"/>
</clipPath>
</defs>
</svg>
