<svg xmlns="http://www.w3.org/2000/svg" width="449" height="401" fill="none" viewBox="0 0 449 401"><path fill="#131313" d="M-11.023-15.938H465.95V414.97H-11.023z"/><path stroke="#004f52" stroke-miterlimit="10" stroke-width=".5" d="M-151.961 224.147c24.814-3.985 53.022-7.625 84.476-10.331a1376.4 1376.4 0 0 1 291.791 7.379"/><path stroke="#004f52" stroke-miterlimit="10" stroke-width=".5" d="M-151.129 190.347c25.085-1.722 53.489-2.829 85.066-2.681a1374 1374 0 0 1 289.947 33.503"/><path stroke="#004f52" stroke-miterlimit="10" stroke-width=".5" d="M-147.238 156.793c25.109.517 53.513 1.968 84.943 4.92a1375.2 1375.2 0 0 1 285.79 59.382"/><path stroke="#004f52" stroke-miterlimit="10" stroke-width=".5" d="M-140.379 123.707c25.109 2.755 53.12 6.74 84.131 12.521a1374.4 1374.4 0 0 1 279.323 84.768"/><path stroke="#004f52" stroke-miterlimit="10" stroke-width=".5" d="M-130.594 91.36c24.593 4.92 52.333 11.487 82.705 20.023A1377 1377 0 0 1 222.63 220.849"/><path stroke="#004f52" stroke-miterlimit="10" stroke-width=".5" d="M-117.922 60.02c24.076 7.182 51.079 16.161 80.59 27.378a1375.6 1375.6 0 0 1 259.698 133.278"/><path stroke="#004f52" stroke-miterlimit="10" stroke-width=".5" d="M-102.504 29.96c23.339 9.324 49.431 20.664 77.811 34.44A1376.6 1376.6 0 0 1 222.02 220.43"/><path stroke="#004f52" stroke-miterlimit="10" stroke-width=".5" d="M-84.457 1.4c22.404 11.365 47.365 24.993 74.393 41.327a1375.5 1375.5 0 0 1 231.711 177.506"/><path stroke="#004f52" stroke-miterlimit="10" stroke-width=".5" d="M-63.918-25.437c21.297 13.332 44.93 29.15 70.384 47.82a1376.8 1376.8 0 0 1 214.915 197.579"/><path stroke="#004f52" stroke-miterlimit="10" stroke-width=".5" d="M-41.07-50.307C-21.027-35.129 1.08-17.27 24.764 3.614a1375.5 1375.5 0 0 1 196.323 216.078"/><path stroke="#004f52" stroke-miterlimit="10" stroke-width=".5" d="M-16.062-73.06C2.505-56.137 22.94-36.335 44.583-13.433a1377 1377 0 0 1 176.181 232.805"/><path stroke="#004f52" stroke-miterlimit="10" stroke-width=".5" d="M10.863-93.53C27.857-75.005 46.424-53.456 66-28.685a1377 1377 0 0 1 154.614 247.638"/><path stroke="#004f52" stroke-miterlimit="10" stroke-width=".5" d="M39.516-111.361C54.788-91.387 71.486-68.264 88.7-41.844a1377 1377 0 0 1 131.718 260.528"/><path stroke="#004f52" stroke-miterlimit="10" stroke-width=".5" d="M69.668-126.613c13.403 21.253 27.839 45.754 42.668 73.625a1375.8 1375.8 0 0 1 107.913 271.302"/><path stroke="#004f52" stroke-miterlimit="10" stroke-width=".5" d="M101.145-139.109c11.46 22.36 23.633 48.066 35.905 77.167a1377.2 1377.2 0 0 1 83.172 279.863"/><path stroke="#004f52" stroke-miterlimit="10" stroke-width=".5" d="M133.434-148.752c9.517 23.246 19.354 50.01 28.847 80.07a1378 1378 0 0 1 57.743 286.21"/><path stroke="#004f52" stroke-miterlimit="10" stroke-width=".5" d="M166.539-155.443c7.378 24.057 14.756 51.658 21.568 82.333a1377 1377 0 0 1 31.97 290.268"/><path stroke="#004f52" stroke-miterlimit="10" stroke-width=".5" d="M200.133-159.133c5.09 24.599 9.984 52.642 14.091 83.932a1377.6 1377.6 0 0 1 5.73 291.917"/><path stroke="#004f52" stroke-miterlimit="10" stroke-width=".5" d="M233.946-159.797c2.878 24.968 5.239 53.306 6.517 84.867a1376.7 1376.7 0 0 1-20.51 291.351"/><path stroke="#004f52" stroke-miterlimit="10" stroke-width=".5" d="M267.591-157.486c.614 25.115.442 53.576-1.107 85.112a1375.4 1375.4 0 0 1-46.48 288.227"/><path stroke="#004f52" stroke-miterlimit="10" stroke-width=".5" d="M300.962-152.076c-1.648 25.091-4.377 53.404-8.755 84.67a1377.2 1377.2 0 0 1-72.105 282.889"/><path stroke="#004f52" stroke-miterlimit="10" stroke-width=".5" d="M333.693-143.734c-3.886 24.845-9.149 52.79-16.305 83.636a1377.5 1377.5 0 0 1-97.165 275.313"/><path stroke="#004f52" stroke-miterlimit="10" stroke-width=".5" d="M365.541-132.492c-6.074 24.402-13.821 51.78-23.707 81.742a1375.5 1375.5 0 0 1-121.463 265.498"/><path stroke="#004f52" stroke-miterlimit="10" stroke-width=".5" d="M396.257-118.422c-8.263 23.738-18.42 50.305-30.962 79.283a1377.6 1377.6 0 0 1-144.752 253.542"/><path stroke="#004f52" stroke-miterlimit="10" stroke-width=".5" d="M425.617-101.67c-10.353 22.902-22.847 48.46-37.946 76.257A1376.2 1376.2 0 0 1 220.785 213.96"/><path stroke="#004f52" stroke-miterlimit="10" stroke-width=".5" d="M453.337-82.36c-12.296 21.894-27.052 46.222-44.611 72.494a1376.8 1376.8 0 0 1-187.691 223.605"/><path stroke="#004f52" stroke-miterlimit="10" stroke-width=".5" d="M479.21-60.64c-14.264 20.712-31.135 43.614-50.981 68.213a1376.7 1376.7 0 0 1-206.971 205.869"/><path stroke="#004f52" stroke-miterlimit="10" stroke-width=".5" d="M503.037-36.678C486.954-17.343 468.116 3.96 446.204 26.69a1376.5 1376.5 0 0 1-224.556 186.486"/><path stroke="#004f52" stroke-miterlimit="10" stroke-width=".5" d="M524.607-10.678c-17.732 17.81-38.414 37.342-62.269 58.005a1376.3 1376.3 0 0 1-240.393 165.6"/><path stroke="#004f52" stroke-miterlimit="10" stroke-width=".5" d="M543.816 17.17c-19.281 16.161-41.611 33.75-67.237 52.2a1375 1375 0 0 1-254.263 143.362"/><path stroke="#004f52" stroke-miterlimit="10" stroke-width=".5" d="M560.37 46.686c-20.609 14.34-44.439 29.863-71.614 45.95a1375 1375 0 0 1-266.092 119.995"/><path stroke="#004f52" stroke-miterlimit="10" stroke-width=".5" d="M574.255 77.389c-21.838 12.447-46.947 25.779-75.45 39.358a1374.6 1374.6 0 0 1-275.782 95.666"/><path stroke="#004f52" stroke-miterlimit="10" stroke-width=".5" d="M585.347 109.316c-22.871 10.43-49.185 21.451-78.696 32.422a1375.8 1375.8 0 0 1-283.233 70.55"/><path stroke="#004f52" stroke-miterlimit="10" stroke-width=".5" d="M593.511 142.107c-23.707 8.339-50.808 16.974-81.155 25.239a1375.8 1375.8 0 0 1-288.422 44.869"/><path stroke="#004f52" stroke-miterlimit="10" stroke-width=".5" d="M598.704 175.488c-24.347 6.199-52.112 12.3-83.197 17.859a1377 1377 0 0 1-291.398 18.818"/><path stroke="#004f52" stroke-miterlimit="10" stroke-width=".5" d="M600.896 209.213c-24.814 3.985-53.022 7.626-84.476 10.307a1375 1375 0 0 1-291.791-7.38"/><path stroke="#004f52" stroke-miterlimit="10" stroke-width=".5" d="M600.036 242.989c-25.06 1.747-53.489 2.854-85.041 2.706a1376 1376 0 0 1-289.972-33.504"/><path stroke="#004f52" stroke-miterlimit="10" stroke-width=".5" d="M596.167 276.564c-25.133-.516-53.513-1.968-84.943-4.919a1375 1375 0 0 1-285.79-59.358"/><path stroke="#004f52" stroke-miterlimit="10" stroke-width=".5" d="M589.307 309.652c-24.986-2.755-53.145-6.764-84.156-12.545a1374.5 1374.5 0 0 1-279.323-84.744"/><path stroke="#004f52" stroke-miterlimit="10" stroke-width=".5" d="M579.501 341.999c-24.593-4.92-52.309-11.512-82.705-20.048A1376 1376 0 0 1 226.277 212.51"/><path stroke="#004f52" stroke-miterlimit="10" stroke-width=".5" d="M566.854 373.313c-24.1-7.183-51.079-16.137-80.59-27.354a1377 1377 0 0 1-259.698-133.277"/><path stroke="#004f52" stroke-miterlimit="10" stroke-width=".5" d="M551.438 403.373c-23.338-9.323-49.431-20.664-77.811-34.439a1375.6 1375.6 0 0 1-246.713-156.032"/><path stroke="#004f52" stroke-miterlimit="10" stroke-width=".5" d="M533.391 431.958c-22.429-11.365-47.366-25.017-74.393-41.326a1375.5 1375.5 0 0 1-231.736-177.507"/><path stroke="#004f52" stroke-miterlimit="10" stroke-width=".5" d="M512.85 458.794c-21.322-13.333-44.956-29.15-70.409-47.821a1375 1375 0 0 1-214.89-197.604"/><path stroke="#004f52" stroke-miterlimit="10" stroke-width=".5" d="M489.98 483.663c-19.944-15.178-42.078-33.061-65.81-53.946a1375.5 1375.5 0 0 1-196.322-216.053"/><path stroke="#004f52" stroke-miterlimit="10" stroke-width=".5" d="M465.117 506.392c-18.592-16.924-39.004-36.702-60.719-59.628a1376 1376 0 0 1-176.304-232.805"/><path stroke="#004f52" stroke-miterlimit="10" stroke-width=".5" d="M438.063 526.812c-16.994-18.523-35.561-40.072-55.137-64.843A1377 1377 0 0 1 228.312 214.33"/><path stroke="#004f52" stroke-miterlimit="10" stroke-width=".5" d="M409.415 544.695c-15.272-19.95-31.848-43.073-49.186-69.493a1378 1378 0 0 1-131.791-260.528"/><path stroke="#004f52" stroke-miterlimit="10" stroke-width=".5" d="M379.26 559.969c-13.403-21.254-27.839-45.779-42.668-73.65A1375 1375 0 0 1 228.68 215.041"/><path stroke="#004f52" stroke-miterlimit="10" stroke-width=".5" d="M347.886 572.468c-11.46-22.385-23.634-48.091-35.905-77.167a1377 1377 0 0 1-83.172-279.863"/><path stroke="#004f52" stroke-miterlimit="10" stroke-width=".5" d="M315.499 582.11c-9.395-23.32-19.232-50.01-28.847-80.095a1377.6 1377.6 0 0 1-57.621-286.185"/><path stroke="#004f52" stroke-miterlimit="10" stroke-width=".5" d="M282.397 588.8c-7.377-24.082-14.755-51.535-21.567-82.358a1376.7 1376.7 0 0 1-31.971-290.268"/><path stroke="#004f52" stroke-miterlimit="10" stroke-width=".5" d="M248.702 592.491c-5.09-24.599-9.984-52.642-14.091-83.956a1377.5 1377.5 0 0 1-5.583-291.892"/><path stroke="#004f52" stroke-miterlimit="10" stroke-width=".5" d="M215.039 593.154c-2.878-24.968-5.239-53.33-6.517-84.866a1376.7 1376.7 0 0 1 20.51-291.253"/><path stroke="#004f52" stroke-miterlimit="10" stroke-width=".5" d="M181.317 590.794c-.615-25.14-.419-53.577 1.131-85.113a1378 1378 0 0 1 46.578-288.251"/><path stroke="#004f52" stroke-miterlimit="10" stroke-width=".5" d="M147.871 585.408c1.648-25.091 4.378-53.404 8.755-84.67a1375 1375 0 0 1 72.106-282.888"/><path stroke="#004f52" stroke-miterlimit="10" stroke-width=".5" d="M115.238 577.068c3.886-24.82 9.124-52.789 16.305-83.637a1376.4 1376.4 0 0 1 97.166-275.312"/><path stroke="#004f52" stroke-miterlimit="10" stroke-width=".5" d="M83.387 565.727c6.074-24.378 13.82-51.658 23.707-81.743a1375.3 1375.3 0 0 1 121.463-265.472"/><path stroke="#004f52" stroke-miterlimit="10" stroke-width=".5" d="M52.648 551.78c8.264-23.738 18.42-50.305 30.963-79.283a1376 1376 0 0 1 144.752-253.616"/><path stroke="#004f52" stroke-miterlimit="10" stroke-width=".5" d="M23.305 535.026c10.353-22.902 22.846-48.46 37.946-76.257a1376.8 1376.8 0 0 1 166.885-239.521"/><path stroke="#004f52" stroke-miterlimit="10" stroke-width=".5" d="M-4.402 515.716c12.296-21.893 27.051-46.222 44.61-72.494A1377 1377 0 0 1 227.9 219.617"/><path stroke="#004f52" stroke-miterlimit="10" stroke-width=".5" d="M-30.273 493.995C-16.01 473.282.86 450.38 20.633 425.781A1376.8 1376.8 0 0 1 227.63 219.912"/><path stroke="#004f52" stroke-miterlimit="10" stroke-width=".5" d="M-54.105 470.038c16.083-19.335 34.921-40.638 56.833-63.367a1376.5 1376.5 0 0 1 224.58-186.485"/><path stroke="#004f52" stroke-miterlimit="10" stroke-width=".5" d="M-75.676 444.035c17.732-17.81 38.39-37.341 62.269-58.005a1375 1375 0 0 1 240.392-165.6"/><path stroke="#004f52" stroke-miterlimit="10" stroke-width=".5" d="M-94.86 416.214c19.257-16.162 41.611-33.75 67.237-52.199a1375.5 1375.5 0 0 1 254.189-143.388"/><path stroke="#004f52" stroke-miterlimit="10" stroke-width=".5" d="M-111.457 386.771c20.633-14.366 44.463-29.888 71.638-45.951a1374.5 1374.5 0 0 1 266.092-119.994"/><path stroke="#004f52" stroke-miterlimit="10" stroke-width=".5" d="M-125.328 355.974c21.814-12.447 46.947-25.78 75.45-39.358a1375.8 1375.8 0 0 1 275.781-95.641"/><path stroke="#004f52" stroke-miterlimit="10" stroke-width=".5" d="M-136.418 324.042c22.871-10.455 49.185-21.45 78.696-32.422a1375.5 1375.5 0 0 1 283.233-70.55"/><path stroke="#004f52" stroke-miterlimit="10" stroke-width=".5" d="M-144.582 291.252c23.707-8.339 50.808-16.974 81.279-25.239a1375.8 1375.8 0 0 1 288.422-44.868"/><path stroke="#004f52" stroke-miterlimit="10" stroke-width=".5" d="M-149.695 257.871c24.346-6.199 52.111-12.3 83.196-17.859a1375.2 1375.2 0 0 1 291.275-18.818"/><path fill="url(#a)" d="M.41-.418h448.055v402.196H.41z"/><g filter="url(#b)"><ellipse cx="223.301" cy="-136.902" fill="url(#c)" rx="349" ry="159"/></g><defs><radialGradient id="a" cx="0" cy="0" r="1" gradientTransform="rotate(90 5.947 225.606)scale(234.129)" gradientUnits="userSpaceOnUse"><stop stop-opacity="0"/><stop offset="1" stop-color="#121212"/></radialGradient><linearGradient id="c" x1="56.59" x2="216.171" y1="-434.228" y2="101.725" gradientUnits="userSpaceOnUse"><stop offset=".25" stop-color="#39617d" stop-opacity=".32"/><stop offset=".63" stop-color="#00ded1" stop-opacity=".12"/><stop offset="1" stop-color="#343434" stop-opacity=".51"/></linearGradient><filter id="b" width="967.754" height="587.754" x="-260.576" y="-430.779" color-interpolation-filters="sRGB" filterUnits="userSpaceOnUse"><feFlood flood-opacity="0" result="BackgroundImageFix"/><feBlend in="SourceGraphic" in2="BackgroundImageFix" result="shape"/><feGaussianBlur result="effect1_foregroundBlur_946_86098" stdDeviation="67.438"/></filter></defs></svg>