<svg xmlns="http://www.w3.org/2000/svg" width="449" height="401" fill="none" viewBox="0 0 449 401"><path fill="#131313" d="M-17.438-2.012h476.973v430.908H-17.438z"/><path stroke="#004f52" stroke-miterlimit="10" stroke-width=".5" d="M-151.945 224.147c24.814-3.985 53.021-7.625 84.475-10.331a1376.4 1376.4 0 0 1 291.792 7.379"/><path stroke="#004f52" stroke-miterlimit="10" stroke-width=".5" d="M-151.113 190.347c25.084-1.722 53.489-2.829 85.066-2.681a1374 1374 0 0 1 289.946 33.503"/><path stroke="#004f52" stroke-miterlimit="10" stroke-width=".5" d="M-147.223 156.793c25.109.517 53.514 1.968 84.943 4.92a1375.2 1375.2 0 0 1 285.791 59.382"/><path stroke="#004f52" stroke-miterlimit="10" stroke-width=".5" d="M-140.363 123.707c25.109 2.755 53.12 6.74 84.131 12.521a1374.4 1374.4 0 0 1 279.323 84.768"/><path stroke="#004f52" stroke-miterlimit="10" stroke-width=".5" d="M-130.578 91.36c24.592 4.92 52.333 11.487 82.705 20.023a1377 1377 0 0 1 270.518 109.466"/><path stroke="#004f52" stroke-miterlimit="10" stroke-width=".5" d="M-117.906 60.02c24.076 7.182 51.079 16.161 80.59 27.378a1375.6 1375.6 0 0 1 259.698 133.278"/><path stroke="#004f52" stroke-miterlimit="10" stroke-width=".5" d="M-102.488 29.96c23.338 9.324 49.43 20.664 77.81 34.44A1376.6 1376.6 0 0 1 222.037 220.43"/><path stroke="#004f52" stroke-miterlimit="10" stroke-width=".5" d="M-84.441 1.4c22.404 11.365 47.365 24.993 74.392 41.327a1375.5 1375.5 0 0 1 231.712 177.506"/><path stroke="#004f52" stroke-miterlimit="10" stroke-width=".5" d="M-63.902-25.437c21.297 13.332 44.93 29.15 70.384 47.82a1376.8 1376.8 0 0 1 214.914 197.579"/><path stroke="#004f52" stroke-miterlimit="10" stroke-width=".5" d="M-41.055-50.307C-21.012-35.129 1.097-17.27 24.78 3.614a1375.4 1375.4 0 0 1 196.322 216.078"/><path stroke="#004f52" stroke-miterlimit="10" stroke-width=".5" d="M-16.047-73.06C2.521-56.137 22.957-36.335 44.6-13.433A1377 1377 0 0 1 220.78 219.373"/><path stroke="#004f52" stroke-miterlimit="10" stroke-width=".5" d="M10.879-93.53c16.993 18.524 35.56 40.073 55.137 64.844a1377 1377 0 0 1 154.613 247.638"/><path stroke="#004f52" stroke-miterlimit="10" stroke-width=".5" d="M39.531-111.361c15.272 19.974 31.97 43.097 49.186 69.517a1377 1377 0 0 1 131.717 260.528"/><path stroke="#004f52" stroke-miterlimit="10" stroke-width=".5" d="M69.684-126.613c13.403 21.253 27.838 45.754 42.668 73.625a1375.8 1375.8 0 0 1 107.912 271.302"/><path stroke="#004f52" stroke-miterlimit="10" stroke-width=".5" d="M101.16-139.109c11.46 22.36 23.634 48.066 35.905 77.167a1377 1377 0 0 1 83.173 279.863"/><path stroke="#004f52" stroke-miterlimit="10" stroke-width=".5" d="M133.449-148.752c9.518 23.246 19.355 50.01 28.847 80.07a1378 1378 0 0 1 57.744 286.21"/><path stroke="#004f52" stroke-miterlimit="10" stroke-width=".5" d="M166.555-155.443c7.377 24.057 14.755 51.658 21.567 82.333a1377 1377 0 0 1 31.971 290.268"/><path stroke="#004f52" stroke-miterlimit="10" stroke-width=".5" d="M200.148-159.133c5.091 24.599 9.985 52.642 14.092 83.932a1377.6 1377.6 0 0 1 5.73 291.917"/><path stroke="#004f52" stroke-miterlimit="10" stroke-width=".5" d="M233.962-159.797c2.877 24.968 5.238 53.306 6.517 84.867a1376.8 1376.8 0 0 1-20.51 291.351"/><path stroke="#004f52" stroke-miterlimit="10" stroke-width=".5" d="M267.606-157.486c.615 25.115.443 53.576-1.106 85.112a1375.5 1375.5 0 0 1-46.48 288.227"/><path stroke="#004f52" stroke-miterlimit="10" stroke-width=".5" d="M300.978-152.076c-1.648 25.091-4.378 53.404-8.755 84.67a1377 1377 0 0 1-72.106 282.889"/><path stroke="#004f52" stroke-miterlimit="10" stroke-width=".5" d="M333.709-143.734c-3.886 24.845-9.149 52.79-16.305 83.636a1377.5 1377.5 0 0 1-97.166 275.313"/><path stroke="#004f52" stroke-miterlimit="10" stroke-width=".5" d="M365.557-132.492c-6.074 24.402-13.821 51.78-23.707 81.742a1375.7 1375.7 0 0 1-121.463 265.498"/><path stroke="#004f52" stroke-miterlimit="10" stroke-width=".5" d="M396.273-118.422c-8.263 23.738-18.42 50.305-30.962 79.283a1377.7 1377.7 0 0 1-144.752 253.542"/><path stroke="#004f52" stroke-miterlimit="10" stroke-width=".5" d="M425.633-101.67c-10.354 22.902-22.847 48.46-37.947 76.257A1376 1376 0 0 1 220.801 213.96"/><path stroke="#004f52" stroke-miterlimit="10" stroke-width=".5" d="M453.353-82.36c-12.297 21.894-27.052 46.222-44.611 72.494a1376.8 1376.8 0 0 1-187.691 223.605"/><path stroke="#004f52" stroke-miterlimit="10" stroke-width=".5" d="M479.225-60.64c-14.263 20.712-31.134 43.614-50.98 68.213a1376.7 1376.7 0 0 1-206.972 205.869"/><path stroke="#004f52" stroke-miterlimit="10" stroke-width=".5" d="M503.053-36.678C486.969-17.343 468.131 3.96 446.219 26.69a1376.5 1376.5 0 0 1-224.555 186.486"/><path stroke="#004f52" stroke-miterlimit="10" stroke-width=".5" d="M524.622-10.678c-17.731 17.81-38.414 37.342-62.268 58.005a1376.4 1376.4 0 0 1-240.393 165.6"/><path stroke="#004f52" stroke-miterlimit="10" stroke-width=".5" d="M543.831 17.17c-19.28 16.161-41.611 33.75-67.236 52.2a1375 1375 0 0 1-254.263 143.362"/><path stroke="#004f52" stroke-miterlimit="10" stroke-width=".5" d="M560.385 46.686c-20.608 14.34-44.439 29.863-71.613 45.95A1375 1375 0 0 1 222.68 212.632"/><path stroke="#004f52" stroke-miterlimit="10" stroke-width=".5" d="M574.271 77.389c-21.839 12.447-46.948 25.779-75.45 39.358a1374.7 1374.7 0 0 1-275.782 95.666"/><path stroke="#004f52" stroke-miterlimit="10" stroke-width=".5" d="M585.363 109.316c-22.871 10.43-49.185 21.451-78.696 32.422a1375.8 1375.8 0 0 1-283.233 70.55"/><path stroke="#004f52" stroke-miterlimit="10" stroke-width=".5" d="M593.527 142.107c-23.707 8.339-50.808 16.974-81.156 25.239a1375.8 1375.8 0 0 1-288.422 44.869"/><path stroke="#004f52" stroke-miterlimit="10" stroke-width=".5" d="M598.72 175.488c-24.347 6.199-52.112 12.3-83.197 17.859a1377 1377 0 0 1-291.398 18.818"/><path stroke="#004f52" stroke-miterlimit="10" stroke-width=".5" d="M600.911 209.213c-24.814 3.985-53.021 7.626-84.475 10.307a1375 1375 0 0 1-291.791-7.38"/><path stroke="#004f52" stroke-miterlimit="10" stroke-width=".5" d="M600.052 242.989c-25.06 1.747-53.489 2.854-85.041 2.706a1376 1376 0 0 1-289.972-33.504"/><path stroke="#004f52" stroke-miterlimit="10" stroke-width=".5" d="M596.183 276.564c-25.134-.516-53.514-1.968-84.943-4.919a1375 1375 0 0 1-285.791-59.358"/><path stroke="#004f52" stroke-miterlimit="10" stroke-width=".5" d="M589.323 309.652c-24.987-2.755-53.145-6.764-84.156-12.545a1374.5 1374.5 0 0 1-279.323-84.744"/><path stroke="#004f52" stroke-miterlimit="10" stroke-width=".5" d="M579.517 341.999c-24.593-4.92-52.309-11.512-82.705-20.048A1376 1376 0 0 1 226.293 212.51"/><path stroke="#004f52" stroke-miterlimit="10" stroke-width=".5" d="M566.87 373.313c-24.101-7.183-51.079-16.137-80.59-27.354a1377 1377 0 0 1-259.698-133.277"/><path stroke="#004f52" stroke-miterlimit="10" stroke-width=".5" d="M551.454 403.373c-23.339-9.323-49.431-20.664-77.811-34.439A1375.6 1375.6 0 0 1 226.93 212.902"/><path stroke="#004f52" stroke-miterlimit="10" stroke-width=".5" d="M533.406 431.958c-22.428-11.365-47.365-25.017-74.392-41.326a1375.6 1375.6 0 0 1-231.737-177.507"/><path stroke="#004f52" stroke-miterlimit="10" stroke-width=".5" d="M512.865 458.794c-21.322-13.333-44.955-29.15-70.408-47.821a1375 1375 0 0 1-214.891-197.604"/><path stroke="#004f52" stroke-miterlimit="10" stroke-width=".5" d="M489.996 483.663c-19.945-15.178-42.078-33.061-65.81-53.946a1375.5 1375.5 0 0 1-196.323-216.053"/><path stroke="#004f52" stroke-miterlimit="10" stroke-width=".5" d="M465.133 506.392c-18.592-16.924-39.004-36.702-60.719-59.628a1376 1376 0 0 1-176.305-232.805"/><path stroke="#004f52" stroke-miterlimit="10" stroke-width=".5" d="M438.078 526.812c-16.993-18.523-35.56-40.072-55.136-64.843A1377 1377 0 0 1 228.328 214.33"/><path stroke="#004f52" stroke-miterlimit="10" stroke-width=".5" d="M409.43 544.695c-15.272-19.95-31.847-43.073-49.185-69.493a1378 1378 0 0 1-131.792-260.528"/><path stroke="#004f52" stroke-miterlimit="10" stroke-width=".5" d="M379.276 559.969c-13.403-21.254-27.839-45.779-42.668-73.65a1375 1375 0 0 1-107.913-271.278"/><path stroke="#004f52" stroke-miterlimit="10" stroke-width=".5" d="M347.902 572.468c-11.461-22.385-23.634-48.091-35.906-77.167a1377.3 1377.3 0 0 1-83.172-279.863"/><path stroke="#004f52" stroke-miterlimit="10" stroke-width=".5" d="M315.514 582.11c-9.394-23.32-19.231-50.01-28.847-80.095a1377.7 1377.7 0 0 1-57.62-286.185"/><path stroke="#004f52" stroke-miterlimit="10" stroke-width=".5" d="M282.413 588.8c-7.378-24.082-14.755-51.535-21.568-82.358a1376.7 1376.7 0 0 1-31.97-290.268"/><path stroke="#004f52" stroke-miterlimit="10" stroke-width=".5" d="M248.718 592.491c-5.091-24.599-9.985-52.642-14.092-83.956a1377.5 1377.5 0 0 1-5.582-291.892"/><path stroke="#004f52" stroke-miterlimit="10" stroke-width=".5" d="M215.054 593.154c-2.877-24.968-5.238-53.33-6.517-84.866a1376.8 1376.8 0 0 1 20.51-291.253"/><path stroke="#004f52" stroke-miterlimit="10" stroke-width=".5" d="M181.332 590.794c-.615-25.14-.418-53.577 1.131-85.113a1378 1378 0 0 1 46.579-288.251"/><path stroke="#004f52" stroke-miterlimit="10" stroke-width=".5" d="M147.887 585.408c1.647-25.091 4.377-53.404 8.755-84.67a1375.2 1375.2 0 0 1 72.105-282.888"/><path stroke="#004f52" stroke-miterlimit="10" stroke-width=".5" d="M115.254 577.068c3.886-24.82 9.124-52.789 16.305-83.637a1376.5 1376.5 0 0 1 97.165-275.312"/><path stroke="#004f52" stroke-miterlimit="10" stroke-width=".5" d="M83.402 565.727c6.075-24.378 13.821-51.658 23.708-81.743a1375.2 1375.2 0 0 1 121.463-265.472"/><path stroke="#004f52" stroke-miterlimit="10" stroke-width=".5" d="M52.664 551.78c8.263-23.738 18.42-50.305 30.962-79.283a1376 1376 0 0 1 144.752-253.616"/><path stroke="#004f52" stroke-miterlimit="10" stroke-width=".5" d="M23.32 535.026c10.354-22.902 22.847-48.46 37.947-76.257a1376.8 1376.8 0 0 1 166.885-239.521"/><path stroke="#004f52" stroke-miterlimit="10" stroke-width=".5" d="M-4.387 515.716c12.297-21.893 27.052-46.222 44.611-72.494a1376.8 1376.8 0 0 1 187.691-223.605"/><path stroke="#004f52" stroke-miterlimit="10" stroke-width=".5" d="M-30.258 493.995C-15.994 473.282.876 450.38 20.65 425.781a1376.7 1376.7 0 0 1 206.996-205.869"/><path stroke="#004f52" stroke-miterlimit="10" stroke-width=".5" d="M-54.09 470.038c16.084-19.335 34.922-40.638 56.834-63.367a1376.5 1376.5 0 0 1 224.579-186.485"/><path stroke="#004f52" stroke-miterlimit="10" stroke-width=".5" d="M-75.66 444.035c17.731-17.81 38.389-37.341 62.268-58.005a1375 1375 0 0 1 240.393-165.6"/><path stroke="#004f52" stroke-miterlimit="10" stroke-width=".5" d="M-94.844 416.214c19.256-16.162 41.61-33.75 67.236-52.199a1375.5 1375.5 0 0 1 254.19-143.388"/><path stroke="#004f52" stroke-miterlimit="10" stroke-width=".5" d="M-111.441 386.771c20.633-14.366 44.463-29.888 71.638-45.951a1374.4 1374.4 0 0 1 266.092-119.994"/><path stroke="#004f52" stroke-miterlimit="10" stroke-width=".5" d="M-125.312 355.974c21.813-12.447 46.947-25.78 75.45-39.358a1375.8 1375.8 0 0 1 275.781-95.641"/><path stroke="#004f52" stroke-miterlimit="10" stroke-width=".5" d="M-136.402 324.042c22.871-10.455 49.185-21.45 78.696-32.422a1375.5 1375.5 0 0 1 283.233-70.55"/><path stroke="#004f52" stroke-miterlimit="10" stroke-width=".5" d="M-144.566 291.252c23.707-8.339 50.808-16.974 81.278-25.239a1375.8 1375.8 0 0 1 288.422-44.868"/><path stroke="#004f52" stroke-miterlimit="10" stroke-width=".5" d="M-149.68 257.871c24.347-6.199 52.112-12.3 83.197-17.859a1375.2 1375.2 0 0 1 291.275-18.818"/><path fill="url(#a)" d="M.426-.418h448.055v402.196H.426z"/><g filter="url(#b)"><ellipse cx="223.301" cy="-112.902" fill="url(#c)" rx="349" ry="159"/></g><defs><radialGradient id="a" cx="0" cy="0" r="1" gradientTransform="rotate(90 5.955 225.614)scale(525.744)" gradientUnits="userSpaceOnUse"><stop stop-opacity="0"/><stop offset="1" stop-color="#121212"/></radialGradient><linearGradient id="c" x1="56.59" x2="216.171" y1="-410.228" y2="125.725" gradientUnits="userSpaceOnUse"><stop offset=".25" stop-color="#39617d" stop-opacity=".32"/><stop offset=".63" stop-color="#00ded1" stop-opacity=".12"/><stop offset="1" stop-color="#343434" stop-opacity=".51"/></linearGradient><filter id="b" width="967.754" height="587.754" x="-260.576" y="-406.779" color-interpolation-filters="sRGB" filterUnits="userSpaceOnUse"><feFlood flood-opacity="0" result="BackgroundImageFix"/><feBlend in="SourceGraphic" in2="BackgroundImageFix" result="shape"/><feGaussianBlur result="effect1_foregroundBlur_1116_117255" stdDeviation="67.438"/></filter></defs></svg>