<svg width="449" height="401" viewBox="0 0 449 401" fill="none" xmlns="http://www.w3.org/2000/svg">
<rect x="-11.0234" y="-15.9375" width="476.973" height="430.908" fill="#131313"/>
<path d="M-151.961 224.147C-127.147 220.162 -98.9393 216.522 -67.4853 213.816C29.765 205.926 127.578 208.4 224.306 221.195" stroke="#004F52" stroke-width="0.5" stroke-miterlimit="10"/>
<path d="M-151.129 190.347C-126.044 188.625 -97.64 187.518 -66.0631 187.666C31.5008 188.508 128.698 199.739 223.884 221.169" stroke="#004F52" stroke-width="0.5" stroke-miterlimit="10"/>
<path d="M-147.238 156.793C-122.129 157.31 -93.7248 158.761 -62.2954 161.713C34.8041 171.312 130.607 191.218 223.495 221.095" stroke="#004F52" stroke-width="0.5" stroke-miterlimit="10"/>
<path d="M-140.379 123.707C-115.27 126.462 -87.2589 130.447 -56.2476 136.228C39.604 154.488 133.239 182.904 223.075 220.996" stroke="#004F52" stroke-width="0.5" stroke-miterlimit="10"/>
<path d="M-130.594 91.3594C-106.001 96.2792 -78.2607 102.847 -47.8888 111.383C45.9053 138.186 136.587 174.88 222.63 220.849" stroke="#004F52" stroke-width="0.5" stroke-miterlimit="10"/>
<path d="M-117.922 60.0195C-93.8457 67.2024 -66.843 76.1811 -37.3319 87.3983C53.7142 122.487 140.77 167.164 222.366 220.676" stroke="#004F52" stroke-width="0.5" stroke-miterlimit="10"/>
<path d="M-102.504 29.9609C-79.1655 39.284 -53.0728 50.6241 -24.6929 64.3996C62.8406 107.518 145.543 159.822 222.02 220.431" stroke="#004F52" stroke-width="0.5" stroke-miterlimit="10"/>
<path d="M-84.457 1.40039C-62.0532 12.7651 -37.0917 26.393 -10.0644 42.7268C73.2477 93.5085 150.922 153.012 221.647 220.233" stroke="#004F52" stroke-width="0.5" stroke-miterlimit="10"/>
<path d="M-63.918 -25.4375C-42.6208 -12.1048 -18.9873 3.71236 6.46606 22.383C84.9021 80.4383 156.945 146.67 221.381 219.962" stroke="#004F52" stroke-width="0.5" stroke-miterlimit="10"/>
<path d="M-41.0703 -50.3066C-21.0273 -35.129 1.08142 -17.2701 24.7641 3.61444C97.6834 68.4697 163.495 140.904 221.087 219.692" stroke="#004F52" stroke-width="0.5" stroke-miterlimit="10"/>
<path d="M-16.0625 -73.0605C2.50492 -56.1364 22.9414 -36.3342 44.5829 -13.4325C111.392 57.7049 170.451 135.745 220.764 219.373" stroke="#004F52" stroke-width="0.5" stroke-miterlimit="10"/>
<path d="M10.8633 -93.5293C27.8568 -75.0062 46.4242 -53.4575 65.9999 -28.6862C126.166 48.1461 177.995 131.159 220.614 218.952" stroke="#004F52" stroke-width="0.5" stroke-miterlimit="10"/>
<path d="M39.5156 -111.361C54.7876 -91.3869 71.486 -68.2638 88.7008 -41.8445C141.713 40.084 185.867 127.418 220.419 218.684" stroke="#004F52" stroke-width="0.5" stroke-miterlimit="10"/>
<path d="M69.668 -126.613C83.0709 -105.36 97.5068 -80.8591 112.336 -52.9884C157.828 33.36 194.003 124.307 220.249 218.314" stroke="#004F52" stroke-width="0.5" stroke-miterlimit="10"/>
<path d="M101.145 -139.109C112.605 -116.749 124.778 -91.0429 137.05 -61.9422C174.611 28.1334 202.492 121.948 220.222 217.921" stroke="#004F52" stroke-width="0.5" stroke-miterlimit="10"/>
<path d="M133.434 -148.752C142.951 -125.506 152.788 -98.7421 162.281 -68.6821C191.609 24.4061 210.965 120.348 220.024 217.528" stroke="#004F52" stroke-width="0.5" stroke-miterlimit="10"/>
<path d="M166.539 -155.443C173.917 -131.386 181.295 -103.785 188.107 -73.1104C209.021 22.2385 219.739 119.542 220.077 217.158" stroke="#004F52" stroke-width="0.5" stroke-miterlimit="10"/>
<path d="M200.133 -159.133C205.223 -134.534 210.117 -106.491 214.224 -75.2009C226.469 21.6267 228.39 119.482 219.954 216.716" stroke="#004F52" stroke-width="0.5" stroke-miterlimit="10"/>
<path d="M233.946 -159.797C236.824 -134.829 239.185 -106.491 240.463 -74.9302C243.977 22.6395 237.101 120.306 219.953 216.421" stroke="#004F52" stroke-width="0.5" stroke-miterlimit="10"/>
<path d="M267.591 -157.486C268.205 -132.371 268.033 -103.91 266.484 -72.3737C261.26 25.0796 245.679 121.7 220.004 215.853" stroke="#004F52" stroke-width="0.5" stroke-miterlimit="10"/>
<path d="M300.962 -152.076C299.314 -126.985 296.585 -98.6717 292.207 -67.4063C278.262 29.1795 254.091 124.009 220.102 215.483" stroke="#004F52" stroke-width="0.5" stroke-miterlimit="10"/>
<path d="M333.693 -143.734C329.807 -118.889 324.544 -90.9448 317.388 -60.0977C294.844 34.8576 262.272 127.147 220.223 215.215" stroke="#004F52" stroke-width="0.5" stroke-miterlimit="10"/>
<path d="M365.541 -132.492C359.467 -108.09 351.72 -80.7112 341.834 -50.7496C310.879 41.8096 270.162 130.81 220.371 214.748" stroke="#004F52" stroke-width="0.5" stroke-miterlimit="10"/>
<path d="M396.257 -118.422C387.994 -94.6838 377.837 -68.1168 365.295 -39.1392C326.16 50.2654 277.637 135.257 220.543 214.403" stroke="#004F52" stroke-width="0.5" stroke-miterlimit="10"/>
<path d="M425.617 -101.67C415.264 -78.7682 402.77 -53.2098 387.671 -25.4129C340.681 60.0691 284.738 140.311 220.785 213.96" stroke="#004F52" stroke-width="0.5" stroke-miterlimit="10"/>
<path d="M453.337 -82.3594C441.041 -60.4662 426.285 -36.1378 408.726 -9.86603C354.262 71.1122 291.345 146.069 221.035 213.739" stroke="#004F52" stroke-width="0.5" stroke-miterlimit="10"/>
<path d="M479.21 -60.6406C464.946 -39.9282 448.075 -17.0265 428.229 7.5725C366.728 83.3386 297.347 152.35 221.258 213.442" stroke="#004F52" stroke-width="0.5" stroke-miterlimit="10"/>
<path d="M503.037 -36.6777C486.954 -17.3429 468.116 3.95987 446.204 26.6894C378.171 96.636 302.896 159.149 221.648 213.175" stroke="#004F52" stroke-width="0.5" stroke-miterlimit="10"/>
<path d="M524.607 -10.6777C506.875 7.13196 486.193 26.6636 462.338 47.3268C388.302 110.894 307.718 166.406 221.945 212.927" stroke="#004F52" stroke-width="0.5" stroke-miterlimit="10"/>
<path d="M543.816 17.1699C524.535 33.3315 502.205 50.9198 476.579 69.3691C397.149 126.044 311.915 174.102 222.316 212.732" stroke="#004F52" stroke-width="0.5" stroke-miterlimit="10"/>
<path d="M560.37 46.6855C539.761 61.0268 515.931 76.5488 488.756 92.6365C404.565 141.963 315.366 182.188 222.664 212.631" stroke="#004F52" stroke-width="0.5" stroke-miterlimit="10"/>
<path d="M574.255 77.3887C552.417 89.8358 527.308 103.168 498.805 116.747C410.532 158.334 318.084 190.403 223.023 212.413" stroke="#004F52" stroke-width="0.5" stroke-miterlimit="10"/>
<path d="M585.347 109.316C562.476 119.746 536.162 130.767 506.651 141.738C415.007 175.232 320.062 198.882 223.418 212.288" stroke="#004F52" stroke-width="0.5" stroke-miterlimit="10"/>
<path d="M593.511 142.107C569.804 150.446 542.703 159.081 512.356 167.346C418.077 192.488 321.393 207.528 223.934 212.215" stroke="#004F52" stroke-width="0.5" stroke-miterlimit="10"/>
<path d="M598.704 175.488C574.357 181.687 546.592 187.788 515.507 193.347C419.316 209.93 321.634 216.238 224.109 212.165" stroke="#004F52" stroke-width="0.5" stroke-miterlimit="10"/>
<path d="M600.896 209.213C576.082 213.198 547.874 216.839 516.42 219.52C419.17 227.42 321.356 224.946 224.629 212.14" stroke="#004F52" stroke-width="0.5" stroke-miterlimit="10"/>
<path d="M600.036 242.989C574.976 244.736 546.547 245.843 514.995 245.695C417.424 244.84 320.22 233.609 225.023 212.191" stroke="#004F52" stroke-width="0.5" stroke-miterlimit="10"/>
<path d="M596.167 276.564C571.034 276.048 542.654 274.596 511.224 271.645C414.125 262.056 318.322 242.158 225.434 212.287" stroke="#004F52" stroke-width="0.5" stroke-miterlimit="10"/>
<path d="M589.307 309.652C564.321 306.897 536.162 302.888 505.151 297.107C409.301 278.854 315.665 250.446 225.828 212.363" stroke="#004F52" stroke-width="0.5" stroke-miterlimit="10"/>
<path d="M579.501 341.999C554.908 337.079 527.192 330.487 496.796 321.951C403.001 295.162 312.318 258.476 226.277 212.51" stroke="#004F52" stroke-width="0.5" stroke-miterlimit="10"/>
<path d="M566.854 373.313C542.754 366.13 515.775 357.176 486.264 345.959C395.223 310.861 308.168 266.184 226.566 212.682" stroke="#004F52" stroke-width="0.5" stroke-miterlimit="10"/>
<path d="M551.438 403.373C528.1 394.05 502.007 382.709 473.627 368.934C386.09 325.822 303.387 273.517 226.914 212.902" stroke="#004F52" stroke-width="0.5" stroke-miterlimit="10"/>
<path d="M533.391 431.958C510.962 420.593 486.025 406.941 458.998 390.632C375.677 339.851 297.995 280.348 227.262 213.125" stroke="#004F52" stroke-width="0.5" stroke-miterlimit="10"/>
<path d="M512.85 458.794C491.528 445.461 467.894 429.644 442.441 410.973C364.004 352.919 291.968 286.678 227.551 213.369" stroke="#004F52" stroke-width="0.5" stroke-miterlimit="10"/>
<path d="M489.98 483.663C470.036 468.485 447.902 450.602 424.17 429.717C351.253 364.869 285.441 292.444 227.848 213.664" stroke="#004F52" stroke-width="0.5" stroke-miterlimit="10"/>
<path d="M465.117 506.392C446.525 489.468 426.113 469.69 404.398 446.764C337.541 375.638 278.44 297.596 228.094 213.959" stroke="#004F52" stroke-width="0.5" stroke-miterlimit="10"/>
<path d="M438.063 526.812C421.069 508.289 402.502 486.74 382.926 461.969C322.76 385.136 270.931 302.124 228.312 214.33" stroke="#004F52" stroke-width="0.5" stroke-miterlimit="10"/>
<path d="M409.415 544.695C394.143 524.745 377.567 501.622 360.229 475.202C307.197 393.274 263.018 305.941 228.438 214.674" stroke="#004F52" stroke-width="0.5" stroke-miterlimit="10"/>
<path d="M379.26 559.969C365.857 538.715 351.421 514.19 336.592 486.319C291.097 399.981 254.922 309.042 228.68 215.041" stroke="#004F52" stroke-width="0.5" stroke-miterlimit="10"/>
<path d="M347.886 572.468C336.426 550.083 324.252 524.377 311.981 495.301C274.419 405.225 246.538 311.41 228.809 215.438" stroke="#004F52" stroke-width="0.5" stroke-miterlimit="10"/>
<path d="M315.499 582.11C306.104 558.79 296.267 532.1 286.652 502.015C257.363 408.931 238.048 312.998 229.031 215.83" stroke="#004F52" stroke-width="0.5" stroke-miterlimit="10"/>
<path d="M282.397 588.8C275.02 564.718 267.642 537.265 260.83 506.442C239.913 411.094 229.195 313.79 228.859 216.174" stroke="#004F52" stroke-width="0.5" stroke-miterlimit="10"/>
<path d="M248.702 592.491C243.612 567.892 238.718 539.849 234.611 508.535C222.415 411.71 220.544 313.863 229.028 216.643" stroke="#004F52" stroke-width="0.5" stroke-miterlimit="10"/>
<path d="M215.039 593.154C212.161 568.186 209.8 539.824 208.522 508.288C205.015 410.751 211.891 313.117 229.032 217.035" stroke="#004F52" stroke-width="0.5" stroke-miterlimit="10"/>
<path d="M181.317 590.794C180.702 565.654 180.898 537.217 182.448 505.681C187.721 408.218 203.335 311.592 229.026 217.43" stroke="#004F52" stroke-width="0.5" stroke-miterlimit="10"/>
<path d="M147.871 585.408C149.519 560.317 152.249 532.004 156.626 500.738C170.556 404.15 194.727 309.319 228.732 217.85" stroke="#004F52" stroke-width="0.5" stroke-miterlimit="10"/>
<path d="M115.238 577.068C119.124 552.248 124.362 524.279 131.543 493.431C154.08 398.474 186.652 306.184 228.709 218.119" stroke="#004F52" stroke-width="0.5" stroke-miterlimit="10"/>
<path d="M83.3867 565.727C89.4611 541.349 97.2078 514.069 107.094 483.984C138.049 391.433 178.766 302.441 228.557 218.512" stroke="#004F52" stroke-width="0.5" stroke-miterlimit="10"/>
<path d="M52.6484 551.78C60.9116 528.042 71.0683 501.475 83.6105 472.497C122.73 383.061 171.254 298.044 228.363 218.881" stroke="#004F52" stroke-width="0.5" stroke-miterlimit="10"/>
<path d="M23.3047 535.026C33.6582 512.124 46.1512 486.566 61.2511 458.769C108.235 373.238 164.178 292.946 228.136 219.248" stroke="#004F52" stroke-width="0.5" stroke-miterlimit="10"/>
<path d="M-4.40234 515.716C7.89396 493.823 22.6495 469.494 40.2086 443.222C94.6726 362.244 157.59 287.288 227.899 219.617" stroke="#004F52" stroke-width="0.5" stroke-miterlimit="10"/>
<path d="M-30.2734 493.995C-16.0097 473.282 0.860805 450.38 20.6333 425.781C82.1421 350.014 151.531 281.003 227.629 219.912" stroke="#004F52" stroke-width="0.5" stroke-miterlimit="10"/>
<path d="M-54.1055 470.038C-38.0219 450.703 -19.184 429.4 2.72805 406.671C70.7684 336.723 146.052 274.21 227.308 220.186" stroke="#004F52" stroke-width="0.5" stroke-miterlimit="10"/>
<path d="M-75.6758 444.035C-57.9445 426.225 -37.2867 406.694 -13.4073 386.03C60.6226 322.455 141.207 266.942 226.985 220.43" stroke="#004F52" stroke-width="0.5" stroke-miterlimit="10"/>
<path d="M-94.8594 416.214C-75.6034 400.052 -53.2487 382.464 -27.6232 364.015C51.7841 307.339 136.993 259.273 226.566 220.627" stroke="#004F52" stroke-width="0.5" stroke-miterlimit="10"/>
<path d="M-111.457 386.771C-90.8238 372.405 -66.9936 356.883 -39.8188 340.82C44.3696 291.489 133.57 251.265 226.273 220.826" stroke="#004F52" stroke-width="0.5" stroke-miterlimit="10"/>
<path d="M-125.328 355.974C-103.514 343.527 -78.3808 330.194 -49.878 316.616C38.3994 275.046 130.846 242.985 225.903 220.975" stroke="#004F52" stroke-width="0.5" stroke-miterlimit="10"/>
<path d="M-136.418 324.042C-113.547 313.587 -87.2328 302.592 -57.7216 291.62C33.921 258.124 128.866 234.474 225.511 221.07" stroke="#004F52" stroke-width="0.5" stroke-miterlimit="10"/>
<path d="M-144.582 291.252C-120.875 282.913 -93.7737 274.278 -63.3035 266.013C30.9751 240.872 127.66 225.831 225.119 221.145" stroke="#004F52" stroke-width="0.5" stroke-miterlimit="10"/>
<path d="M-149.695 257.871C-125.349 251.672 -97.5836 245.571 -66.4985 240.012C29.6511 223.424 127.292 217.116 224.776 221.194" stroke="#004F52" stroke-width="0.5" stroke-miterlimit="10"/>
<rect x="0.410156" y="-0.417969" width="448.055" height="402.196" fill="url(#paint0_radial_946_86098)"/>
<g filter="url(#filter0_f_946_86098)">
<ellipse cx="223.301" cy="-136.902" rx="349" ry="159" fill="url(#paint1_linear_946_86098)"/>
</g>
<defs>
<filter id="filter0_f_946_86098" x="-260.576" y="-430.779" width="967.754" height="587.754" filterUnits="userSpaceOnUse" color-interpolation-filters="sRGB">
<feFlood flood-opacity="0" result="BackgroundImageFix"/>
<feBlend mode="normal" in="SourceGraphic" in2="BackgroundImageFix" result="shape"/>
<feGaussianBlur stdDeviation="67.4384" result="effect1_foregroundBlur_946_86098"/>
</filter>
<radialGradient id="paint0_radial_946_86098" cx="0" cy="0" r="1" gradientUnits="userSpaceOnUse" gradientTransform="translate(231.553 219.659) rotate(90) scale(234.129 234.129)">
<stop stopColor="#121212" stop-opacity="0"/>
<stop offset="1" stop-color="#121212"/>
</radialGradient>
<linearGradient id="paint1_linear_946_86098" x1="56.5898" y1="-434.228" x2="216.171" y2="101.725" gradientUnits="userSpaceOnUse">
<stop offset="0.25" stop-color="#39617D" stop-opacity="0.32"/>
<stop offset="0.630208" stop-color="#00DED1" stop-opacity="0.12"/>
<stop offset="1" stop-color="#343434" stop-opacity="0.51"/>
</linearGradient>
</defs>
</svg>
