<svg width="449" height="401" viewBox="0 0 449 401" fill="none" xmlns="http://www.w3.org/2000/svg">
<rect x="-17.4375" y="-2.01172" width="476.973" height="430.908" fill="#131313"/>
<path d="M-151.945 224.147C-127.131 220.162 -98.9237 216.522 -67.4697 213.816C29.7807 205.926 127.594 208.4 224.322 221.195" stroke="#004F52" stroke-width="0.5" stroke-miterlimit="10"/>
<path d="M-151.113 190.347C-126.029 188.625 -97.6244 187.518 -66.0475 187.666C31.5164 188.508 128.713 199.739 223.899 221.169" stroke="#004F52" stroke-width="0.5" stroke-miterlimit="10"/>
<path d="M-147.223 156.793C-122.114 157.31 -93.7091 158.761 -62.2798 161.713C34.8198 171.312 130.623 191.218 223.511 221.095" stroke="#004F52" stroke-width="0.5" stroke-miterlimit="10"/>
<path d="M-140.363 123.707C-115.254 126.462 -87.2433 130.447 -56.232 136.228C39.6196 154.488 133.255 182.904 223.091 220.996" stroke="#004F52" stroke-width="0.5" stroke-miterlimit="10"/>
<path d="M-130.578 91.3594C-105.986 96.2792 -78.2451 102.847 -47.8732 111.383C45.921 138.186 136.603 174.88 222.645 220.849" stroke="#004F52" stroke-width="0.5" stroke-miterlimit="10"/>
<path d="M-117.906 60.0195C-93.8301 67.2024 -66.8274 76.1811 -37.3163 87.3983C53.7299 122.487 140.786 167.164 222.382 220.676" stroke="#004F52" stroke-width="0.5" stroke-miterlimit="10"/>
<path d="M-102.488 29.9609C-79.1499 39.284 -53.0571 50.6241 -24.6773 64.3996C62.8562 107.518 145.559 159.822 222.036 220.431" stroke="#004F52" stroke-width="0.5" stroke-miterlimit="10"/>
<path d="M-84.4414 1.40039C-62.0375 12.7651 -37.076 26.393 -10.0488 42.7268C73.2634 93.5085 150.938 153.012 221.663 220.233" stroke="#004F52" stroke-width="0.5" stroke-miterlimit="10"/>
<path d="M-63.9023 -25.4375C-42.6051 -12.1048 -18.9717 3.71236 6.48169 22.383C84.9178 80.4383 156.961 146.67 221.396 219.962" stroke="#004F52" stroke-width="0.5" stroke-miterlimit="10"/>
<path d="M-41.0547 -50.3066C-21.0117 -35.129 1.09704 -17.2701 24.7797 3.61444C97.6991 68.4697 163.511 140.904 221.102 219.692" stroke="#004F52" stroke-width="0.5" stroke-miterlimit="10"/>
<path d="M-16.0469 -73.0605C2.52054 -56.1364 22.957 -36.3342 44.5985 -13.4325C111.408 57.7049 170.467 135.745 220.78 219.373" stroke="#004F52" stroke-width="0.5" stroke-miterlimit="10"/>
<path d="M10.8789 -93.5293C27.8724 -75.0062 46.4398 -53.4575 66.0155 -28.6862C126.181 48.1461 178.01 131.159 220.629 218.952" stroke="#004F52" stroke-width="0.5" stroke-miterlimit="10"/>
<path d="M39.5312 -111.361C54.8033 -91.3869 71.5016 -68.2638 88.7165 -41.8445C141.728 40.084 185.883 127.418 220.434 218.684" stroke="#004F52" stroke-width="0.5" stroke-miterlimit="10"/>
<path d="M69.6836 -126.613C83.0866 -105.36 97.5224 -80.8591 112.352 -52.9884C157.844 33.36 194.018 124.307 220.264 218.314" stroke="#004F52" stroke-width="0.5" stroke-miterlimit="10"/>
<path d="M101.16 -139.109C112.62 -116.749 124.794 -91.0429 137.065 -61.9422C174.627 28.1334 202.508 121.948 220.238 217.921" stroke="#004F52" stroke-width="0.5" stroke-miterlimit="10"/>
<path d="M133.449 -148.752C142.967 -125.506 152.804 -98.7421 162.296 -68.6821C191.625 24.4061 210.981 120.348 220.04 217.528" stroke="#004F52" stroke-width="0.5" stroke-miterlimit="10"/>
<path d="M166.555 -155.443C173.932 -131.386 181.31 -103.785 188.122 -73.1104C209.037 22.2385 219.754 119.542 220.093 217.158" stroke="#004F52" stroke-width="0.5" stroke-miterlimit="10"/>
<path d="M200.148 -159.133C205.239 -134.534 210.133 -106.491 214.24 -75.2009C226.485 21.6267 228.406 119.482 219.97 216.716" stroke="#004F52" stroke-width="0.5" stroke-miterlimit="10"/>
<path d="M233.962 -159.797C236.839 -134.829 239.2 -106.491 240.479 -74.9302C243.992 22.6395 237.117 120.306 219.969 216.421" stroke="#004F52" stroke-width="0.5" stroke-miterlimit="10"/>
<path d="M267.606 -157.486C268.221 -132.371 268.049 -103.91 266.5 -72.3737C261.276 25.0796 245.694 121.7 220.02 215.853" stroke="#004F52" stroke-width="0.5" stroke-miterlimit="10"/>
<path d="M300.978 -152.076C299.33 -126.985 296.6 -98.6717 292.223 -67.4063C278.278 29.1795 254.107 124.009 220.117 215.483" stroke="#004F52" stroke-width="0.5" stroke-miterlimit="10"/>
<path d="M333.709 -143.734C329.823 -118.889 324.56 -90.9448 317.404 -60.0977C294.859 34.8576 262.288 127.147 220.238 215.215" stroke="#004F52" stroke-width="0.5" stroke-miterlimit="10"/>
<path d="M365.557 -132.492C359.483 -108.09 351.736 -80.7112 341.85 -50.7496C310.894 41.8096 270.177 130.81 220.387 214.748" stroke="#004F52" stroke-width="0.5" stroke-miterlimit="10"/>
<path d="M396.273 -118.422C388.01 -94.6838 377.853 -68.1168 365.311 -39.1392C326.176 50.2654 277.652 135.257 220.559 214.403" stroke="#004F52" stroke-width="0.5" stroke-miterlimit="10"/>
<path d="M425.633 -101.67C415.279 -78.7682 402.786 -53.2098 387.686 -25.4129C340.697 60.0691 284.754 140.311 220.801 213.96" stroke="#004F52" stroke-width="0.5" stroke-miterlimit="10"/>
<path d="M453.353 -82.3594C441.056 -60.4662 426.301 -36.1378 408.742 -9.86603C354.278 71.1122 291.36 146.069 221.051 213.739" stroke="#004F52" stroke-width="0.5" stroke-miterlimit="10"/>
<path d="M479.225 -60.6406C464.962 -39.9282 448.091 -17.0265 428.245 7.5725C366.743 83.3386 297.363 152.35 221.273 213.442" stroke="#004F52" stroke-width="0.5" stroke-miterlimit="10"/>
<path d="M503.053 -36.6777C486.969 -17.3429 468.131 3.95987 446.219 26.6894C378.187 96.636 302.912 159.149 221.664 213.175" stroke="#004F52" stroke-width="0.5" stroke-miterlimit="10"/>
<path d="M524.622 -10.6777C506.891 7.13196 486.208 26.6636 462.354 47.3268C388.317 110.894 307.733 166.406 221.961 212.927" stroke="#004F52" stroke-width="0.5" stroke-miterlimit="10"/>
<path d="M543.831 17.1699C524.551 33.3315 502.22 50.9198 476.595 69.3691C397.165 126.044 311.931 174.102 222.332 212.732" stroke="#004F52" stroke-width="0.5" stroke-miterlimit="10"/>
<path d="M560.385 46.6855C539.777 61.0268 515.946 76.5488 488.772 92.6365C404.581 141.963 315.381 182.188 222.68 212.631" stroke="#004F52" stroke-width="0.5" stroke-miterlimit="10"/>
<path d="M574.271 77.3887C552.432 89.8358 527.323 103.168 498.821 116.747C410.547 158.334 318.099 190.403 223.039 212.413" stroke="#004F52" stroke-width="0.5" stroke-miterlimit="10"/>
<path d="M585.363 109.316C562.492 119.746 536.178 130.767 506.667 141.738C415.023 175.232 320.078 198.882 223.434 212.288" stroke="#004F52" stroke-width="0.5" stroke-miterlimit="10"/>
<path d="M593.527 142.107C569.82 150.446 542.719 159.081 512.371 167.346C418.093 192.488 321.408 207.528 223.949 212.215" stroke="#004F52" stroke-width="0.5" stroke-miterlimit="10"/>
<path d="M598.72 175.488C574.373 181.687 546.608 187.788 515.523 193.347C419.331 209.93 321.65 216.238 224.125 212.165" stroke="#004F52" stroke-width="0.5" stroke-miterlimit="10"/>
<path d="M600.911 209.213C576.097 213.198 547.89 216.839 516.436 219.52C419.186 227.42 321.371 224.946 224.645 212.14" stroke="#004F52" stroke-width="0.5" stroke-miterlimit="10"/>
<path d="M600.052 242.989C574.992 244.736 546.563 245.843 515.011 245.695C417.439 244.84 320.236 233.609 225.039 212.191" stroke="#004F52" stroke-width="0.5" stroke-miterlimit="10"/>
<path d="M596.183 276.564C571.049 276.048 542.669 274.596 511.24 271.645C414.141 262.056 318.338 242.158 225.449 212.287" stroke="#004F52" stroke-width="0.5" stroke-miterlimit="10"/>
<path d="M589.323 309.652C564.336 306.897 536.178 302.888 505.167 297.107C409.316 278.854 315.681 250.446 225.844 212.363" stroke="#004F52" stroke-width="0.5" stroke-miterlimit="10"/>
<path d="M579.517 341.999C554.924 337.079 527.208 330.487 496.812 321.951C403.016 295.162 312.334 258.476 226.293 212.51" stroke="#004F52" stroke-width="0.5" stroke-miterlimit="10"/>
<path d="M566.87 373.313C542.769 366.13 515.791 357.176 486.28 345.959C395.238 310.861 308.184 266.184 226.582 212.682" stroke="#004F52" stroke-width="0.5" stroke-miterlimit="10"/>
<path d="M551.454 403.373C528.115 394.05 502.023 382.709 473.643 368.934C386.106 325.822 303.403 273.517 226.93 212.902" stroke="#004F52" stroke-width="0.5" stroke-miterlimit="10"/>
<path d="M533.406 431.958C510.978 420.593 486.041 406.941 459.014 390.632C375.693 339.851 298.01 280.348 227.277 213.125" stroke="#004F52" stroke-width="0.5" stroke-miterlimit="10"/>
<path d="M512.865 458.794C491.543 445.461 467.91 429.644 442.457 410.973C364.02 352.919 291.984 286.678 227.566 213.369" stroke="#004F52" stroke-width="0.5" stroke-miterlimit="10"/>
<path d="M489.996 483.663C470.051 468.485 447.918 450.602 424.186 429.717C351.268 364.869 285.457 292.444 227.863 213.664" stroke="#004F52" stroke-width="0.5" stroke-miterlimit="10"/>
<path d="M465.133 506.392C446.541 489.468 426.129 469.69 404.414 446.764C337.556 375.638 278.455 297.596 228.109 213.959" stroke="#004F52" stroke-width="0.5" stroke-miterlimit="10"/>
<path d="M438.078 526.812C421.085 508.289 402.518 486.74 382.942 461.969C322.776 385.136 270.947 302.124 228.328 214.33" stroke="#004F52" stroke-width="0.5" stroke-miterlimit="10"/>
<path d="M409.43 544.695C394.158 524.745 377.583 501.622 360.245 475.202C307.212 393.274 263.034 305.941 228.453 214.674" stroke="#004F52" stroke-width="0.5" stroke-miterlimit="10"/>
<path d="M379.276 559.969C365.873 538.715 351.437 514.19 336.608 486.319C291.112 399.981 254.938 309.042 228.695 215.041" stroke="#004F52" stroke-width="0.5" stroke-miterlimit="10"/>
<path d="M347.902 572.468C336.441 550.083 324.268 524.377 311.996 495.301C274.435 405.225 246.554 311.41 228.824 215.438" stroke="#004F52" stroke-width="0.5" stroke-miterlimit="10"/>
<path d="M315.514 582.11C306.12 558.79 296.283 532.1 286.667 502.015C257.379 408.931 238.064 312.998 229.047 215.83" stroke="#004F52" stroke-width="0.5" stroke-miterlimit="10"/>
<path d="M282.413 588.8C275.035 564.718 267.658 537.265 260.845 506.442C239.928 411.094 229.211 313.79 228.875 216.174" stroke="#004F52" stroke-width="0.5" stroke-miterlimit="10"/>
<path d="M248.718 592.491C243.627 567.892 238.733 539.849 234.626 508.535C222.431 411.71 220.559 313.863 229.044 216.643" stroke="#004F52" stroke-width="0.5" stroke-miterlimit="10"/>
<path d="M215.054 593.154C212.177 568.186 209.816 539.824 208.537 508.288C205.031 410.751 211.906 313.117 229.047 217.035" stroke="#004F52" stroke-width="0.5" stroke-miterlimit="10"/>
<path d="M181.332 590.794C180.717 565.654 180.914 537.217 182.463 505.681C187.736 408.218 203.35 311.592 229.042 217.43" stroke="#004F52" stroke-width="0.5" stroke-miterlimit="10"/>
<path d="M147.887 585.408C149.534 560.317 152.264 532.004 156.642 500.738C170.572 404.15 194.743 309.319 228.747 217.85" stroke="#004F52" stroke-width="0.5" stroke-miterlimit="10"/>
<path d="M115.254 577.068C119.14 552.248 124.378 524.279 131.559 493.431C154.096 398.474 186.668 306.184 228.724 218.119" stroke="#004F52" stroke-width="0.5" stroke-miterlimit="10"/>
<path d="M83.4023 565.727C89.4767 541.349 97.2234 514.069 107.11 483.984C138.064 391.433 178.781 302.441 228.573 218.512" stroke="#004F52" stroke-width="0.5" stroke-miterlimit="10"/>
<path d="M52.6641 551.78C60.9272 528.042 71.0839 501.475 83.6262 472.497C122.746 383.061 171.27 298.044 228.378 218.881" stroke="#004F52" stroke-width="0.5" stroke-miterlimit="10"/>
<path d="M23.3203 535.026C33.6738 512.124 46.1668 486.566 61.2667 458.769C108.251 373.238 164.194 292.946 228.152 219.248" stroke="#004F52" stroke-width="0.5" stroke-miterlimit="10"/>
<path d="M-4.38672 515.716C7.90958 493.823 22.6651 469.494 40.2243 443.222C94.6882 362.244 157.605 287.288 227.915 219.617" stroke="#004F52" stroke-width="0.5" stroke-miterlimit="10"/>
<path d="M-30.2578 493.995C-15.9941 473.282 0.87643 450.38 20.6489 425.781C82.1577 350.014 151.546 281.003 227.645 219.912" stroke="#004F52" stroke-width="0.5" stroke-miterlimit="10"/>
<path d="M-54.0898 470.038C-38.0063 450.703 -19.1683 429.4 2.74368 406.671C70.784 336.723 146.067 274.21 227.323 220.186" stroke="#004F52" stroke-width="0.5" stroke-miterlimit="10"/>
<path d="M-75.6602 444.035C-57.9289 426.225 -37.2711 406.694 -13.3917 386.03C60.6382 322.455 141.223 266.942 227.001 220.43" stroke="#004F52" stroke-width="0.5" stroke-miterlimit="10"/>
<path d="M-94.8438 416.214C-75.5877 400.052 -53.2331 382.464 -27.6076 364.015C51.7997 307.339 137.009 259.273 226.582 220.627" stroke="#004F52" stroke-width="0.5" stroke-miterlimit="10"/>
<path d="M-111.441 386.771C-90.8082 372.405 -66.978 356.883 -39.8031 340.82C44.3852 291.489 133.585 251.265 226.289 220.826" stroke="#004F52" stroke-width="0.5" stroke-miterlimit="10"/>
<path d="M-125.312 355.974C-103.499 343.527 -78.3652 330.194 -49.8624 316.616C38.415 275.046 130.862 242.985 225.919 220.975" stroke="#004F52" stroke-width="0.5" stroke-miterlimit="10"/>
<path d="M-136.402 324.042C-113.531 313.587 -87.2171 302.592 -57.706 291.62C33.9367 258.124 128.882 234.474 225.527 221.07" stroke="#004F52" stroke-width="0.5" stroke-miterlimit="10"/>
<path d="M-144.566 291.252C-120.859 282.913 -93.7581 274.278 -63.2878 266.013C30.9908 240.872 127.675 225.831 225.134 221.145" stroke="#004F52" stroke-width="0.5" stroke-miterlimit="10"/>
<path d="M-149.68 257.871C-125.333 251.672 -97.5679 245.571 -66.4829 240.012C29.6667 223.424 127.308 217.116 224.792 221.194" stroke="#004F52" stroke-width="0.5" stroke-miterlimit="10"/>
<rect x="0.425781" y="-0.417969" width="448.055" height="402.196" fill="url(#paint0_radial_1116_117255)"/>
<g filter="url(#filter0_f_1116_117255)">
<ellipse cx="223.301" cy="-112.902" rx="349" ry="159" fill="url(#paint1_linear_1116_117255)"/>
</g>
<defs>
<filter id="filter0_f_1116_117255" x="-260.576" y="-406.779" width="967.754" height="587.754" filterUnits="userSpaceOnUse" color-interpolation-filters="sRGB">
<feFlood flood-opacity="0" result="BackgroundImageFix"/>
<feBlend mode="normal" in="SourceGraphic" in2="BackgroundImageFix" result="shape"/>
<feGaussianBlur stdDeviation="67.4384" result="effect1_foregroundBlur_1116_117255"/>
</filter>
<radialGradient id="paint0_radial_1116_117255" cx="0" cy="0" r="1" gradientUnits="userSpaceOnUse" gradientTransform="translate(231.569 219.659) rotate(90) scale(525.744 525.744)">
<stop stopColor="#121212" stop-opacity="0"/>
<stop offset="1" stop-color="#121212"/>
</radialGradient>
<linearGradient id="paint1_linear_1116_117255" x1="56.5898" y1="-410.228" x2="216.171" y2="125.725" gradientUnits="userSpaceOnUse">
<stop offset="0.25" stop-color="#39617D" stop-opacity="0.32"/>
<stop offset="0.630208" stop-color="#00DED1" stop-opacity="0.12"/>
<stop offset="1" stop-color="#343434" stop-opacity="0.51"/>
</linearGradient>
</defs>
</svg>
