<svg xmlns="http://www.w3.org/2000/svg" width="448" height="400" fill="none" viewBox="0 0 448 400"><path fill="#131313" d="M-5.664-24.199h476.973v430.908H-5.664z"/><path stroke="url(#a)" d="M260.359 243.852h197.772"/><path stroke="url(#b)" d="M252.879 220.738H458.13"/><path stroke="url(#c)" d="M246.094 197.623h212.035"/><path stroke="url(#d)" d="M260.359 174.51h197.772"/><path stroke="url(#e)" d="M241.316 266.279h216.813"/><path stroke="url(#f)" d="M199.738 243.852H-5.485"/><path stroke="url(#g)" d="M199.766 220.738H-5.486"/><path stroke="url(#h)" d="M192.285 197.623H-5.486"/><path stroke="url(#i)" d="M206.871 174.51H-5.484"/><path stroke="url(#j)" d="M211.328 266.279H-5.484"/><g clip-path="url(#k)"><rect width="131.505" height="121.291" x="160.598" y="158.094" fill="#121212" rx="16"/><circle cx="250.666" cy="205.185" r=".979" fill="#73867c" transform="rotate(-180 250.666 205.185)"/><circle cx="263.638" cy="185.072" r=".979" fill="#73867c" transform="rotate(-180 263.638 185.072)"/><circle cx="189.015" cy="190.256" r=".324" fill="#73867c" transform="rotate(-180 189.015 190.256)"/><circle cx="188.373" cy="203.238" r=".979" fill="#73867c" transform="rotate(-180 188.373 203.238)"/><circle cx="177.34" cy="205.181" r=".324" fill="#73867c" transform="rotate(-180 177.34 205.181)"/><circle cx="174.095" cy="198.695" r=".979" fill="#73867c" transform="rotate(-180 174.095 198.695)"/><circle cx="175.396" cy="233.084" r=".979" fill="#73867c" transform="rotate(-180 175.396 233.084)"/><circle cx="168.908" cy="220.758" r=".979" fill="#73867c" transform="rotate(-180 168.908 220.758)"/><circle cx="187.08" cy="220.758" r=".979" fill="#73867c" transform="rotate(-180 187.08 220.758)"/><circle cx="218.865" cy="237.629" r=".979" fill="#73867c" transform="rotate(-180 218.865 237.629)"/><circle cx="201.345" cy="235.035" r=".979" fill="#73867c" transform="rotate(-180 201.345 235.035)"/><circle cx="252.601" cy="253.195" r=".324" fill="#73867c" transform="rotate(-180 252.601 253.195)"/><circle r=".324" fill="#73867c" transform="matrix(-1 0 0 1 192.914 246.057)"/><circle r=".324" fill="#73867c" transform="matrix(-1 0 0 1 203.945 238.272)"/><circle r=".324" fill="#73867c" transform="matrix(-1 0 0 1 195.504 236.324)"/><circle cx="258.019" cy="233.952" r=".979" fill="#73867c" transform="rotate(-75 258.019 233.952)"/><circle cx="230.121" cy="248.878" r=".979" fill="#73867c" transform="rotate(-75 230.121 248.878)"/><circle cx="270.192" cy="200.861" r=".354" fill="#73867c" transform="rotate(105 270.192 200.861)"/><circle cx="235.734" cy="228.539" r=".324" fill="#73867c" transform="rotate(-180 235.734 228.539)"/><circle cx="259.947" cy="242.213" r=".979" fill="#73867c" transform="rotate(-180 259.947 242.213)"/><circle cx="277.73" cy="223.15" r=".979" fill="#73867c" transform="rotate(-75 277.73 223.15)"/><path fill="url(#l)" d="M156.594 134.775h141.82v154.241h-141.82z"/><g filter="url(#m)"><ellipse cx="235.353" cy="-15.443" fill="url(#n)" rx="312.884" ry="142.565"/></g><path fill="url(#o)" fill-rule="evenodd" d="M220.516 179.86a4.557 4.557 0 0 0-6.265-.698 4.557 4.557 0 0 0-.912 6.31l5.796 7.928a7.485 7.485 0 0 1-.187 9.077l-10.35 13.002 10.582 11.014c-2.628.739-5.269 2.349-7.126 5.383-1.552 2.535-1.347 5.359-.668 7.663.685 2.323 1.989 4.638 3.43 6.725 2.898 4.193 6.87 8.193 9.641 10.613l2.72 2.376 6.333-7.486-3.165-2.238c-1.182-.836-2.848-2.263-3.988-3.733-.571-.737-.882-1.323-1.009-1.716a1.5 1.5 0 0 1-.067-.327l-.001-.025c.341-.625 1.331-1.36 3.445-1.738 2.036-.364 4.632-.078 7.164 1.215l2.596 1.326 5.617-7.103-2.926-2.186c-1.904-1.423-4.766-4.022-6.995-7.038-2.302-3.117-3.343-5.917-3.134-8.286.198-2.243 1.483-5.069 3.054-7.63 1.567-2.552 3.321-4.685 4.321-5.549l2.646-2.286zm-5.269.605a2.916 2.916 0 0 1 4.01.447l19.517 23.355-1.424 1.231c-1.18 1.019-3.038 3.31-4.647 5.932-1.604 2.613-3.057 5.709-3.29 8.343-.26 2.946 1.042 6.148 3.449 9.406 2.341 3.169 5.326 5.877 7.332 7.377l1.576 1.177-3.737 4.725-1.398-.714c-2.84-1.45-5.798-1.798-8.199-1.369-2.37.424-4.03 1.356-4.677 2.726l-.02.042-.037.108-.001.004a1.7 1.7 0 0 0-.056.617c.015.207.058.45.141.709.207.644.64 1.401 1.275 2.22 1.269 1.636 3.068 3.17 4.337 4.067l1.704 1.206-4.101 4.847-1.465-1.279c-2.707-2.365-6.574-6.264-9.37-10.311-1.394-2.017-2.591-4.169-3.206-6.255-.613-2.079-.719-4.365.493-6.344 1.905-3.111 4.746-4.494 7.463-4.947l1.534-.256-11.675-12.151 9.457-11.88a9.12 9.12 0 0 0 .227-11.066l-5.795-7.928a2.916 2.916 0 0 1 .583-4.039m11.548 73.736 1.498-1.77c-2.739-1.937-7.825-6.636-6.264-9.94 1.951-4.13 9.077-5.719 15.476-2.451l1.543-1.951c-4.251-3.178-12.508-11.347-11.528-18.609.981-7.262 6.128-13.313 8.578-15.431l-18.309-21.91a1.004 1.004 0 0 0-1.58 1.235l5.795 7.929a11.04 11.04 0 0 1-.275 13.387l-8.414 10.569 14.478 15.069c-2.874-1.09-9.44-1.934-12.708 3.404-3.268 5.337 6.445 15.869 11.71 20.469" clip-rule="evenodd"/></g><rect width="130.856" height="120.642" x="160.922" y="158.418" stroke="url(#p)" stroke-width=".649" rx="15.676"/><path fill="url(#q)" d="M-5.484-5.213h456.316V400H-5.484z"/><g filter="url(#r)"><ellipse cx="223.285" cy="-105.711" fill="url(#s)" rx="349" ry="159"/></g><defs><linearGradient id="a" x1="264.669" x2="418.255" y1="242.576" y2="242.576" gradientUnits="userSpaceOnUse"><stop stop-opacity="0"/><stop offset="1" stop-color="#7affdf"/></linearGradient><linearGradient id="b" x1="257.351" x2="416.746" y1="219.463" y2="219.463" gradientUnits="userSpaceOnUse"><stop stop-opacity="0"/><stop offset="1" stop-color="#7affdf"/></linearGradient><linearGradient id="c" x1="250.714" x2="415.377" y1="196.348" y2="196.348" gradientUnits="userSpaceOnUse"><stop stop-opacity="0"/><stop offset="1" stop-color="#7affdf"/></linearGradient><linearGradient id="d" x1="264.669" x2="418.255" y1="173.234" y2="173.234" gradientUnits="userSpaceOnUse"><stop stop-opacity="0"/><stop offset="1" stop-color="#7affdf"/></linearGradient><linearGradient id="e" x1="246.041" x2="414.414" y1="265.004" y2="265.004" gradientUnits="userSpaceOnUse"><stop stop-opacity="0"/><stop offset="1" stop-color="#7affdf"/></linearGradient><linearGradient id="f" x1="195.267" x2="35.893" y1="245.127" y2="245.127" gradientUnits="userSpaceOnUse"><stop stop-opacity="0"/><stop offset="1" stop-color="#7affdf"/></linearGradient><linearGradient id="g" x1="195.293" x2="35.898" y1="219.463" y2="219.463" gradientUnits="userSpaceOnUse"><stop stop-opacity="0"/><stop offset="1" stop-color="#7affdf"/></linearGradient><linearGradient id="h" x1="187.976" x2="34.39" y1="198.898" y2="198.898" gradientUnits="userSpaceOnUse"><stop stop-opacity="0"/><stop offset="1" stop-color="#7affdf"/></linearGradient><linearGradient id="i" x1="202.244" x2="37.332" y1="175.785" y2="175.785" gradientUnits="userSpaceOnUse"><stop stop-opacity="0"/><stop offset="1" stop-color="#7affdf"/></linearGradient><linearGradient id="j" x1="206.604" x2="38.231" y1="265.004" y2="265.004" gradientUnits="userSpaceOnUse"><stop stop-opacity="0"/><stop offset="1" stop-color="#7affdf"/></linearGradient><linearGradient id="n" x1="85.894" x2="228.996" y1="-282.035" y2="198.509" gradientUnits="userSpaceOnUse"><stop offset=".25" stop-color="#39617d" stop-opacity=".32"/><stop offset=".63" stop-color="#00ded1" stop-opacity=".12"/><stop offset="1" stop-color="#343434" stop-opacity=".51"/></linearGradient><linearGradient id="o" x1="198.95" x2="229.793" y1="250.213" y2="248.933" gradientUnits="userSpaceOnUse"><stop stop-opacity=".78"/><stop offset="1" stop-color="#d8ffec" stop-opacity=".6"/></linearGradient><linearGradient id="p" x1="160.598" x2="205.933" y1="196.493" y2="256.358" gradientUnits="userSpaceOnUse"><stop/><stop offset=".589" stop-color="#89a296"/><stop offset="1" stop-color="#89a296" stop-opacity=".08"/></linearGradient><linearGradient id="s" x1="56.574" x2="216.155" y1="-403.036" y2="132.917" gradientUnits="userSpaceOnUse"><stop offset=".25" stop-color="#39617d" stop-opacity=".32"/><stop offset=".63" stop-color="#00ded1" stop-opacity=".12"/><stop offset="1" stop-color="#343434" stop-opacity=".51"/></linearGradient><radialGradient id="l" cx="0" cy="0" r="1" gradientTransform="matrix(-68.4772 0 0 -37.157 227.504 226.958)" gradientUnits="userSpaceOnUse"><stop stop-opacity="0"/><stop offset=".63" stop-color="#121212" stop-opacity=".35"/><stop offset="1" stop-color="#121212" stop-opacity=".88"/></radialGradient><radialGradient id="q" cx="0" cy="0" r="1" gradientTransform="matrix(0 228.97 -202.301 0 222.674 216.528)" gradientUnits="userSpaceOnUse"><stop stop-opacity="0"/><stop offset="1" stop-color="#121212"/></radialGradient><filter id="m" width="800.801" height="460.163" x="-165.047" y="-245.524" color-interpolation-filters="sRGB" filterUnits="userSpaceOnUse"><feFlood flood-opacity="0" result="BackgroundImageFix"/><feBlend in="SourceGraphic" in2="BackgroundImageFix" result="shape"/><feGaussianBlur result="effect1_foregroundBlur_1193_89359" stdDeviation="43.758"/></filter><filter id="r" width="967.754" height="587.754" x="-260.592" y="-399.588" color-interpolation-filters="sRGB" filterUnits="userSpaceOnUse"><feFlood flood-opacity="0" result="BackgroundImageFix"/><feBlend in="SourceGraphic" in2="BackgroundImageFix" result="shape"/><feGaussianBlur result="effect1_foregroundBlur_1193_89359" stdDeviation="67.438"/></filter><clipPath id="k"><rect width="131.505" height="121.291" x="160.598" y="158.094" fill="#fff" rx="16"/></clipPath></defs></svg>