<svg width="449" height="400" viewBox="0 0 449 400" fill="none" xmlns="http://www.w3.org/2000/svg">
<rect x="-11.8555" y="-22.1562" width="476.973" height="430.908" fill="white"/>
<g clip-path="url(#clip0_1200_107392)">
<rect x="158.129" y="158" width="132" height="122" rx="16" fill="white"/>
<circle cx="248.447" cy="200.767" r="0.978774" transform="rotate(-180 248.447 200.767)" fill="#73867C"/>
<circle cx="261.42" cy="180.654" r="0.978774" transform="rotate(-180 261.42 180.654)" fill="#73867C"/>
<ellipse cx="186.797" cy="185.838" rx="0.324429" ry="0.324429" transform="rotate(-180 186.797 185.838)" fill="#73867C"/>
<circle cx="186.154" cy="198.82" r="0.978774" transform="rotate(-180 186.154 198.82)" fill="#73867C"/>
<ellipse cx="175.121" cy="200.763" rx="0.324429" ry="0.324429" transform="rotate(-180 175.121 200.763)" fill="#73867C"/>
<circle cx="171.877" cy="194.277" r="0.978774" transform="rotate(-180 171.877 194.277)" fill="#73867C"/>
<circle cx="173.177" cy="228.666" r="0.978774" transform="rotate(-180 173.177 228.666)" fill="#73867C"/>
<circle cx="166.689" cy="216.34" r="0.978774" transform="rotate(-180 166.689 216.34)" fill="#73867C"/>
<circle cx="184.861" cy="216.34" r="0.978774" transform="rotate(-180 184.861 216.34)" fill="#73867C"/>
<circle cx="199.127" cy="230.617" r="0.978774" transform="rotate(-180 199.127 230.617)" fill="#73867C"/>
<ellipse cx="250.383" cy="248.777" rx="0.324429" ry="0.324429" transform="rotate(-180 250.383 248.777)" fill="#73867C"/>
<ellipse rx="0.324429" ry="0.324429" transform="matrix(-1 -8.18178e-08 -8.18178e-08 1 190.695 241.639)" fill="#73867C"/>
<ellipse rx="0.324429" ry="0.324429" transform="matrix(-1 -8.18178e-08 -8.18178e-08 1 201.726 233.854)" fill="#73867C"/>
<ellipse rx="0.324429" ry="0.324429" transform="matrix(-1 -8.18178e-08 -8.18178e-08 1 193.285 231.906)" fill="#73867C"/>
<circle cx="255.8" cy="229.534" r="0.978774" transform="rotate(-75 255.8 229.534)" fill="#73867C"/>
<circle cx="227.902" cy="244.46" r="0.978774" transform="rotate(-75 227.902 244.46)" fill="#73867C"/>
<circle cx="267.973" cy="196.443" r="0.353739" transform="rotate(105 267.973 196.443)" fill="#73867C"/>
<ellipse cx="233.515" cy="224.121" rx="0.324429" ry="0.324429" transform="rotate(-180 233.515 224.121)" fill="#73867C"/>
<circle cx="257.728" cy="237.795" r="0.978774" transform="rotate(-180 257.728 237.795)" fill="#73867C"/>
<circle cx="275.511" cy="218.732" r="0.978774" transform="rotate(-75 275.511 218.732)" fill="#73867C"/>
<path d="M154.68 154.738H296.5V283.721H154.68V154.738Z" fill="url(#paint0_radial_1200_107392)"/>
<g filter="url(#filter0_f_1200_107392)">
<ellipse cx="233.134" cy="-24.8608" rx="312.884" ry="142.565" fill="url(#paint1_linear_1200_107392)"/>
</g>
<path fill-rule="evenodd" clip-rule="evenodd" d="M227.542 190.468C227.62 190.439 227.733 190.4 227.877 190.354C228.205 190.249 228.718 190.099 229.375 189.946C230.688 189.639 232.598 189.31 234.784 189.29C239.155 189.249 244.733 190.445 248.778 195.613L248.778 195.613C249.648 196.724 249.949 198.515 249.918 200.531C249.886 202.598 249.499 205.099 248.799 207.811C247.439 213.076 244.868 219.242 241.249 224.749C241.727 225.098 243.252 225.733 247.574 224.841C248 224.753 248.384 224.708 248.719 224.72C249.033 224.73 249.418 224.794 249.734 225.035C250.113 225.324 250.25 225.75 250.212 226.148C250.179 226.491 250.023 226.794 249.869 227.026C249.554 227.502 249.033 227.994 248.426 228.446C247.807 228.907 247.048 229.364 246.21 229.754C244.771 230.421 242.545 230.809 240.686 230.83C240.352 230.834 240.019 230.826 239.697 230.803C239.549 230.855 239.385 230.868 239.221 230.832C238.598 230.697 238.316 230.711 238.199 230.743C238.197 230.744 238.195 230.744 238.192 230.744C238.174 230.746 238.147 230.75 238.091 230.886C238.002 231.107 237.934 231.474 237.865 232.115C237.842 232.327 237.819 232.571 237.793 232.841L237.793 232.842C237.747 233.319 237.694 233.876 237.623 234.471C237.616 234.529 237.603 234.587 237.584 234.643L237.237 235.684C237.213 236.909 237.074 237.479 236.911 238.07L236.89 238.148C236.752 238.648 236.602 239.187 236.506 240.427L236.506 240.427C236.343 242.524 235.665 244.28 234.396 245.635C233.133 246.983 231.36 247.856 229.145 248.33C227.791 248.62 226.665 248.61 225.725 248.351C224.774 248.089 224.068 247.588 223.541 246.987C223.024 246.397 222.694 245.726 222.459 245.132C222.341 244.834 222.244 244.546 222.16 244.292L222.107 244.129L222.107 244.129C222.045 243.94 221.993 243.78 221.94 243.638C221.29 241.869 221.356 239.661 221.44 236.814L221.444 236.66C221.487 235.218 221.381 233.703 221.177 232.489C221.08 231.913 220.965 231.425 220.841 231.054C220.781 231.106 220.723 231.154 220.67 231.196C220.196 231.568 218.88 232.319 217.269 232.785C215.659 233.252 213.578 233.486 211.689 232.588C211.038 232.279 210.533 232.012 210.168 231.776C209.985 231.658 209.816 231.534 209.674 231.402C209.542 231.278 209.376 231.095 209.279 230.847C209.165 230.556 209.163 230.21 209.339 229.896C209.487 229.631 209.71 229.482 209.853 229.403C210.136 229.246 210.499 229.154 210.796 229.088C211.073 229.027 211.346 228.976 211.625 228.924C212.068 228.842 212.527 228.756 213.044 228.621C213.845 228.412 214.522 228.138 214.969 227.754C215.737 227.095 216.301 226.572 216.703 226.176C216.696 226.109 216.69 226.041 216.685 225.973C215.441 225.942 214.261 225.61 213.208 225.043L213.094 225.165C212.824 225.453 212.436 225.871 211.964 226.391C211.018 227.431 209.737 228.875 208.393 230.492C207.381 231.709 206.263 232.422 205.041 232.473C203.824 232.525 202.75 231.911 201.846 231.033C200.062 229.299 198.528 226.136 197.271 222.717C195.999 219.256 194.959 215.385 194.223 212.102C193.492 208.838 193.046 206.088 192.986 204.884C192.714 199.456 193.964 195.808 196.165 193.477C198.357 191.154 201.351 190.291 204.251 190.125C207.152 189.959 210.058 190.482 212.216 191.034C213.3 191.311 214.207 191.599 214.844 191.817C215.025 191.88 215.185 191.937 215.321 191.986C217.388 190.491 219.931 189.963 222.289 189.906C224.193 189.86 226.04 190.118 227.542 190.468ZM213.836 193.33C213.282 193.149 212.583 192.938 211.781 192.733C209.711 192.203 207.001 191.724 204.352 191.876C201.702 192.028 199.212 192.804 197.44 194.681C195.676 196.55 194.481 199.662 194.738 204.796C194.79 205.84 195.206 208.464 195.935 211.718C196.66 214.954 197.68 218.746 198.917 222.111C200.169 225.517 201.594 228.342 203.068 229.775C203.793 230.48 204.423 230.744 204.966 230.721C205.504 230.698 206.203 230.383 207.044 229.371C208.409 227.729 209.708 226.264 210.666 225.211C211.107 224.725 211.477 224.326 211.747 224.037C209.552 222.153 208.261 219.101 208.722 215.807L209.59 215.928L208.722 215.807C209.146 212.771 208.993 210.152 208.907 208.668L208.907 208.668L208.907 208.668C208.882 208.24 208.862 207.906 208.863 207.684L208.863 207.684C208.864 207.571 208.884 207.467 208.914 207.374C208.966 205.747 209.261 203.298 209.991 200.751C210.726 198.181 211.926 195.43 213.836 193.33ZM210.86 205.704C211.77 205.21 212.963 204.709 214.21 204.422C215.495 204.125 216.945 204.03 218.211 204.519C219.544 205.034 220.54 206.145 220.931 207.954L220.931 207.954C221.851 212.207 221.75 215.073 221.257 217.246C221.011 218.328 220.674 219.215 220.342 219.987C220.215 220.284 220.095 220.551 219.982 220.8C219.79 221.226 219.621 221.602 219.472 222.001C219.428 222.122 219.384 222.24 219.34 222.356C219.063 223.101 218.819 223.754 218.65 224.362C218.619 224.475 218.591 224.583 218.566 224.688C218.827 224.632 219.116 224.615 219.424 224.655C220.15 224.749 220.904 225.15 221.604 225.947C222.077 226.486 222.341 227.069 222.415 227.669C222.489 228.262 222.37 228.807 222.177 229.27C222.14 229.358 222.1 229.445 222.057 229.529C222.243 229.806 222.376 230.127 222.477 230.416C222.652 230.919 222.795 231.533 222.906 232.198C223.13 233.532 223.243 235.162 223.197 236.711C223.107 239.773 223.069 241.624 223.587 243.032C223.651 243.208 223.717 243.407 223.78 243.601L223.826 243.743C223.907 243.989 223.992 244.238 224.09 244.487C224.288 244.987 224.529 245.453 224.861 245.831C225.183 246.198 225.601 246.498 226.191 246.66C226.791 246.826 227.621 246.863 228.777 246.615C230.757 246.191 232.167 245.449 233.116 244.436C234.057 243.431 234.618 242.08 234.757 240.291C234.866 238.887 235.047 238.234 235.203 237.669L235.22 237.604C235.356 237.114 235.471 236.674 235.485 235.524C235.487 235.434 235.502 235.344 235.53 235.258L235.892 234.174C235.956 233.626 236.001 233.156 236.042 232.723C236.068 232.445 236.093 232.183 236.121 231.927C236.188 231.306 236.272 230.705 236.467 230.225C236.548 230.026 236.652 229.839 236.784 229.673C236.627 229.452 236.52 229.183 236.502 228.858C236.435 227.688 236.603 226.79 236.977 226.104C237.361 225.401 237.91 225.015 238.419 224.786C238.666 224.675 238.902 224.6 239.093 224.545L239.109 224.54L239.099 224.526C238.978 224.354 238.835 224.175 238.658 223.953L238.658 223.953C238.594 223.874 238.526 223.789 238.453 223.697C237.918 223.021 237.249 222.12 236.717 220.829C236.635 220.633 236.409 220.22 236.045 219.568L236.001 219.488C235.661 218.879 235.238 218.121 234.8 217.279C233.889 215.531 232.877 213.363 232.363 211.303C231.864 209.3 231.758 207.088 233.096 205.557C234.277 204.205 236.33 203.666 239.316 203.951C238.589 201.135 236.898 198.763 234.957 196.889C232.778 194.785 230.341 193.367 228.785 192.711C227.32 192.199 224.872 191.661 222.333 191.722C219.772 191.784 217.256 192.452 215.506 194.209C213.677 196.047 212.479 198.66 211.737 201.251C211.28 202.85 211.006 204.405 210.86 205.704ZM241.284 205.427C241.335 205.337 241.371 205.237 241.389 205.129C241.418 204.948 241.389 204.771 241.316 204.617C240.673 200.87 238.554 197.836 236.219 195.582C234.28 193.71 232.153 192.337 230.487 191.499C231.645 191.267 233.139 191.059 234.801 191.044C238.856 191.006 243.808 192.109 247.396 196.694C247.874 197.305 248.194 198.565 248.164 200.504C248.135 202.392 247.778 204.749 247.101 207.373C245.842 212.247 243.499 217.944 240.224 223.104C240.15 223.01 240.074 222.915 239.998 222.821L239.998 222.82L239.997 222.819C239.972 222.788 239.947 222.757 239.923 222.726C240.766 221.447 241.099 219.773 241.201 218.158C241.317 216.326 241.146 214.406 240.941 212.863C240.657 210.732 241.016 207.248 241.284 205.427ZM239.408 205.723C236.478 205.398 235.065 205.97 234.417 206.711C233.688 207.545 233.589 208.97 234.065 210.879C234.527 212.731 235.46 214.75 236.355 216.468C236.782 217.288 237.194 218.026 237.534 218.637L237.535 218.638L237.535 218.638L237.587 218.732C237.916 219.321 238.208 219.845 238.338 220.16C238.472 220.484 238.616 220.78 238.765 221.051C239.115 220.239 239.314 219.21 239.388 218.043C239.493 216.383 239.338 214.597 239.139 213.102C238.851 210.933 239.146 207.695 239.408 205.723ZM218.894 226.479C218.738 226.68 218.508 226.936 218.211 227.238C217.76 227.698 217.095 228.324 216.152 229.133C215.385 229.791 214.381 230.15 213.503 230.379C213.003 230.51 212.448 230.618 211.979 230.708C212.126 230.782 212.289 230.862 212.469 230.947C213.779 231.57 215.344 231.452 216.764 231.04C218.184 230.629 219.282 229.976 219.546 229.768C219.848 229.53 220.288 229.077 220.5 228.57C220.601 228.329 220.638 228.104 220.612 227.893C220.587 227.69 220.496 227.438 220.239 227.146C219.771 226.613 219.397 226.484 219.189 226.457C219.078 226.442 218.988 226.453 218.922 226.471C218.912 226.473 218.903 226.476 218.894 226.479ZM210.897 230.056C210.898 230.056 210.899 230.058 210.902 230.062C210.899 230.058 210.897 230.056 210.897 230.056ZM216.96 223.892C216.93 224.001 216.901 224.11 216.874 224.22C213.105 224.208 209.832 220.529 210.459 216.05C210.916 212.779 210.735 209.791 210.651 208.4C210.64 208.22 210.631 208.068 210.625 207.944C210.642 207.929 210.662 207.912 210.685 207.894C210.882 207.734 211.192 207.525 211.596 207.301C212.401 206.852 213.49 206.388 214.604 206.131C215.734 205.87 216.782 205.848 217.579 206.155C218.308 206.437 218.938 207.035 219.217 208.324C220.095 212.385 219.971 214.987 219.546 216.858C219.333 217.798 219.038 218.578 218.731 219.295C218.632 219.525 218.525 219.762 218.418 220L218.418 220L218.418 220L218.418 220.001C218.208 220.468 217.995 220.941 217.828 221.39L217.828 221.39C217.786 221.505 217.743 221.62 217.7 221.735C217.425 222.472 217.151 223.205 216.96 223.892ZM210.523 208.042C210.507 208.066 210.501 208.069 210.519 208.046L210.523 208.042ZM215.447 207.563C215.407 207.85 215.973 208.615 216.71 208.718C217.447 208.82 218.077 208.222 218.117 207.935C218.157 207.649 217.592 207.332 216.854 207.23C216.117 207.127 215.486 207.277 215.448 207.563H215.447ZM236.621 208.132C237.359 208.029 237.924 207.264 237.884 206.977V206.977C237.844 206.691 237.214 206.541 236.476 206.644C235.739 206.746 235.174 207.063 235.213 207.349C235.253 207.636 235.884 208.234 236.621 208.132ZM240.095 226.077C239.972 226.12 239.82 226.162 239.696 226.197C239.654 226.209 239.615 226.22 239.582 226.23C239.419 226.277 239.274 226.324 239.139 226.385C238.886 226.499 238.674 226.656 238.517 226.944C238.354 227.243 238.205 227.765 238.249 228.687C238.292 228.722 238.399 228.787 238.637 228.861C239.108 229.007 239.817 229.085 240.667 229.076C242.37 229.057 244.329 228.693 245.471 228.163C246.206 227.822 246.86 227.426 247.378 227.039C247.611 226.866 247.807 226.701 247.968 226.551L247.929 226.559C243.309 227.512 241.127 226.92 240.095 226.077ZM238.223 228.66C238.224 228.66 238.228 228.664 238.232 228.672C238.225 228.665 238.223 228.661 238.223 228.66Z" fill="url(#paint2_linear_1200_107392)"/>
</g>
<rect x="158.453" y="158.324" width="131.351" height="121.351" rx="15.6756" stroke="url(#paint3_linear_1200_107392)" stroke-width="0.648858"/>
<path fill-rule="evenodd" clip-rule="evenodd" d="M139.778 185.31C140.773 169.945 141.58 169.139 156.946 168.143H156.947C141.581 167.147 140.775 166.34 139.779 150.975C138.783 166.34 137.977 167.147 122.609 168.143C137.975 169.137 138.782 169.944 139.778 185.31ZM172.505 176.609C173.137 171.966 173.649 171.455 178.293 170.823C173.649 170.191 173.137 169.68 172.505 165.036C171.875 169.68 171.362 170.191 166.719 170.823C171.362 171.455 171.874 171.966 172.505 176.609ZM146.753 210.943C147.385 206.3 147.896 205.788 152.54 205.157C147.896 204.525 147.385 204.014 146.753 199.37C146.121 204.014 145.61 204.525 140.966 205.157C145.61 205.788 146.121 206.3 146.753 210.943ZM184.311 191.21C161.263 192.703 160.053 193.913 158.56 216.961C157.067 193.913 155.857 192.703 132.809 191.21C155.857 189.717 157.067 188.507 158.56 165.459C160.053 188.507 161.263 189.718 184.311 191.21Z" fill="url(#paint4_linear_1200_107392)"/>
<rect x="-6.52344" y="-6.94141" width="463.305" height="415.885" fill="url(#paint5_radial_1200_107392)"/>
<g filter="url(#filter1_f_1200_107392)">
<ellipse cx="223.414" cy="-153.711" rx="349" ry="159" fill="url(#paint6_linear_1200_107392)"/>
</g>
<defs>
<filter id="filter0_f_1200_107392" x="-214.627" y="-302.303" width="895.523" height="554.885" filterUnits="userSpaceOnUse" color-interpolation-filters="sRGB">
<feFlood flood-opacity="0" result="BackgroundImageFix"/>
<feBlend mode="normal" in="SourceGraphic" in2="BackgroundImageFix" result="shape"/>
<feGaussianBlur stdDeviation="67.4384" result="effect1_foregroundBlur_1200_107392"/>
</filter>
<filter id="filter1_f_1200_107392" x="-260.463" y="-447.588" width="967.754" height="587.754" filterUnits="userSpaceOnUse" color-interpolation-filters="sRGB">
<feFlood flood-opacity="0" result="BackgroundImageFix"/>
<feBlend mode="normal" in="SourceGraphic" in2="BackgroundImageFix" result="shape"/>
<feGaussianBlur stdDeviation="67.4384" result="effect1_foregroundBlur_1200_107392"/>
</filter>
<radialGradient id="paint0_radial_1200_107392" cx="0" cy="0" r="1" gradientUnits="userSpaceOnUse" gradientTransform="translate(225.59 231.529) rotate(180) scale(105.285 47.7741)">
<stop stop-color="white" stop-opacity="0.43"/>
<stop offset="0.651042" stop-color="#FCFBFB"/>
<stop offset="1" stop-color="#F2F2F2"/>
</radialGradient>
<linearGradient id="paint1_linear_1200_107392" x1="83.6752" y1="-291.453" x2="226.777" y2="189.091" gradientUnits="userSpaceOnUse">
<stop stop-color="#39617D" stop-opacity="0.49"/>
<stop offset="0.9999" stop-color="#00DED1" stop-opacity="0.46"/>
<stop offset="1" stop-color="white" stop-opacity="0.51"/>
</linearGradient>
<linearGradient id="paint2_linear_1200_107392" x1="250.218" y1="189.289" x2="253.071" y2="278.001" gradientUnits="userSpaceOnUse">
<stop stop-color="#373737" stop-opacity="0.85"/>
<stop offset="1" stop-color="#5D7D7B" stop-opacity="0.35"/>
</linearGradient>
<linearGradient id="paint3_linear_1200_107392" x1="158.129" y1="196.624" x2="218.778" y2="233.764" gradientUnits="userSpaceOnUse">
<stop stop-color="#DAE9E2"/>
<stop offset="0.588542" stop-color="#89A296"/>
<stop offset="1" stop-color="#89A296" stop-opacity="0.08"/>
</linearGradient>
<linearGradient id="paint4_linear_1200_107392" x1="184.311" y1="150.975" x2="187.593" y2="249.752" gradientUnits="userSpaceOnUse">
<stop stop-color="#39A9A2" stop-opacity="0.85"/>
<stop offset="1" stop-color="#88D1CD" stop-opacity="0"/>
</linearGradient>
<radialGradient id="paint5_radial_1200_107392" cx="0" cy="0" r="1" gradientUnits="userSpaceOnUse" gradientTransform="translate(232.487 220.626) rotate(90) scale(165.234 167.648)">
<stop stop-color="white" stop-opacity="0"/>
<stop offset="1" stop-color="white"/>
</radialGradient>
<linearGradient id="paint6_linear_1200_107392" x1="56.7031" y1="-451.036" x2="216.284" y2="84.9167" gradientUnits="userSpaceOnUse">
<stop stop-color="#39617D" stop-opacity="0.49"/>
<stop offset="0.9999" stop-color="#00DED1" stop-opacity="0.46"/>
<stop offset="1" stop-color="white" stop-opacity="0.51"/>
</linearGradient>
<clipPath id="clip0_1200_107392">
<rect x="158.129" y="158" width="132" height="122" rx="16" fill="white"/>
</clipPath>
</defs>
</svg>
