<svg xmlns="http://www.w3.org/2000/svg" width="448" height="400" fill="none" viewBox="0 0 448 400"><path fill="#131313" d="M-11.984-22.156h476.973v430.908H-11.984z"/><g clip-path="url(#a)"><rect width="132" height="122" x="158" y="158" fill="#121212" rx="16"/><circle cx="248.318" cy="200.767" r=".979" fill="#73867c" transform="rotate(-180 248.318 200.767)"/><circle cx="261.291" cy="180.654" r=".979" fill="#73867c" transform="rotate(-180 261.291 180.654)"/><circle cx="186.668" cy="185.838" r=".324" fill="#73867c" transform="rotate(-180 186.668 185.838)"/><circle cx="186.025" cy="198.82" r=".979" fill="#73867c" transform="rotate(-180 186.025 198.82)"/><circle cx="174.992" cy="200.763" r=".324" fill="#73867c" transform="rotate(-180 174.992 200.763)"/><circle cx="171.748" cy="194.277" r=".979" fill="#73867c" transform="rotate(-180 171.748 194.277)"/><circle cx="173.049" cy="228.666" r=".979" fill="#73867c" transform="rotate(-180 173.049 228.666)"/><circle cx="166.56" cy="216.34" r=".979" fill="#73867c" transform="rotate(-180 166.56 216.34)"/><circle cx="184.732" cy="216.34" r=".979" fill="#73867c" transform="rotate(-180 184.732 216.34)"/><circle cx="198.998" cy="230.617" r=".979" fill="#73867c" transform="rotate(-180 198.998 230.617)"/><circle cx="250.254" cy="248.777" r=".324" fill="#73867c" transform="rotate(-180 250.254 248.777)"/><circle r=".324" fill="#73867c" transform="matrix(-1 0 0 1 190.566 241.639)"/><circle r=".324" fill="#73867c" transform="matrix(-1 0 0 1 201.597 233.854)"/><circle r=".324" fill="#73867c" transform="matrix(-1 0 0 1 193.156 231.906)"/><circle cx="255.671" cy="229.534" r=".979" fill="#73867c" transform="rotate(-75 255.671 229.534)"/><circle cx="227.773" cy="244.46" r=".979" fill="#73867c" transform="rotate(-75 227.773 244.46)"/><circle cx="267.844" cy="196.443" r=".354" fill="#73867c" transform="rotate(105 267.844 196.443)"/><circle cx="233.387" cy="224.121" r=".324" fill="#73867c" transform="rotate(-180 233.387 224.121)"/><circle cx="257.599" cy="237.795" r=".979" fill="#73867c" transform="rotate(-180 257.599 237.795)"/><circle cx="275.382" cy="218.732" r=".979" fill="#73867c" transform="rotate(-75 275.382 218.732)"/><path fill="url(#b)" d="M154.551 125.357h141.821v165.241H154.551z"/><g filter="url(#c)"><ellipse cx="233.006" cy="-24.861" fill="url(#d)" rx="312.884" ry="142.565"/></g><path fill="url(#e)" fill-rule="evenodd" d="M227.413 190.468a8 8 0 0 1 .335-.114c.328-.105.841-.255 1.498-.408a25 25 0 0 1 5.409-.656c4.371-.041 9.95 1.155 13.994 6.323.87 1.111 1.171 2.902 1.14 4.918-.032 2.067-.418 4.568-1.119 7.28-1.36 5.265-3.931 11.431-7.55 16.938.479.349 2.003.984 6.325.092.426-.088.81-.133 1.145-.121.314.01.699.074 1.015.315.379.289.516.715.478 1.113-.033.343-.189.646-.343.878-.315.476-.836.968-1.443 1.42-.619.461-1.377.918-2.216 1.308-1.439.667-3.665 1.055-5.524 1.076-.334.004-.667-.004-.989-.027a.87.87 0 0 1-.476.029c-.623-.135-.905-.121-1.021-.089l-.008.001c-.018.002-.045.006-.101.142-.089.221-.157.588-.226 1.229q-.034.32-.072.726v.001c-.046.477-.099 1.034-.17 1.629a1 1 0 0 1-.039.172l-.347 1.041c-.024 1.225-.162 1.795-.325 2.386l-.022.078c-.138.5-.288 1.039-.384 2.279-.163 2.097-.841 3.853-2.11 5.208-1.262 1.348-3.036 2.221-5.251 2.695-1.354.29-2.48.28-3.42.021a4.4 4.4 0 0 1-2.184-1.364c-.516-.59-.847-1.261-1.082-1.855a15 15 0 0 1-.299-.84l-.053-.163c-.062-.189-.114-.349-.166-.491-.651-1.769-.585-3.977-.501-6.824l.004-.154a22.3 22.3 0 0 0-.267-4.171 10 10 0 0 0-.336-1.435q-.09.078-.171.142c-.474.372-1.79 1.123-3.4 1.589-1.611.467-3.692.701-5.581-.197-.651-.309-1.155-.576-1.521-.812a3.6 3.6 0 0 1-.494-.374 1.55 1.55 0 0 1-.395-.555 1.1 1.1 0 0 1 .06-.951c.148-.265.371-.414.514-.493.283-.157.646-.249.943-.315.277-.061.55-.112.829-.164.443-.082.902-.168 1.419-.303.801-.209 1.478-.483 1.925-.867a35 35 0 0 0 1.735-1.578 5 5 0 0 1-.019-.203 7.7 7.7 0 0 1-3.476-.93l-.115.122a124.014 124.014 0 0 0-4.701 5.327c-1.012 1.217-2.13 1.93-3.352 1.981-1.217.052-2.291-.562-3.195-1.44-1.784-1.734-3.318-4.897-4.575-8.316-1.272-3.461-2.312-7.332-3.048-10.615-.731-3.264-1.177-6.014-1.237-7.218-.271-5.428.979-9.076 3.179-11.407 2.192-2.323 5.187-3.186 8.086-3.352 2.901-.166 5.807.357 7.965.909a35 35 0 0 1 3.105.952c2.067-1.495 4.61-2.023 6.968-2.08 1.904-.046 3.751.212 5.253.562m-13.706 2.862a33 33 0 0 0-2.054-.597c-2.071-.53-4.781-1.009-7.43-.857s-5.14.928-6.912 2.805c-1.764 1.869-2.959 4.981-2.702 10.115.052 1.044.468 3.668 1.197 6.922.725 3.236 1.745 7.028 2.982 10.393 1.252 3.406 2.677 6.231 4.151 7.664.725.705 1.355.969 1.898.946.538-.023 1.237-.338 2.078-1.35a127 127 0 0 1 4.703-5.334c-2.195-1.884-3.486-4.936-3.025-8.23l.868.121-.868-.121c.424-3.036.271-5.655.185-7.139-.025-.428-.045-.762-.043-.984 0-.113.02-.217.05-.31.052-1.627.347-4.076 1.077-6.623.735-2.57 1.935-5.321 3.845-7.421m-2.976 12.374c.91-.494 2.103-.995 3.35-1.282 1.285-.297 2.735-.392 4.001.097 1.333.515 2.329 1.626 2.72 3.435.92 4.253.819 7.119.326 9.292a15.5 15.5 0 0 1-.915 2.741c-.127.297-.247.564-.36.813a19 19 0 0 0-.642 1.556c-.277.745-.521 1.398-.69 2.006a10 10 0 0 0-.084.326 2.5 2.5 0 0 1 .858-.033c.726.094 1.48.495 2.18 1.292.473.539.737 1.122.811 1.722a3.13 3.13 0 0 1-.238 1.601 4 4 0 0 1-.12.259c.186.277.319.598.42.887.175.503.318 1.117.43 1.782.223 1.334.336 2.964.291 4.513-.091 3.062-.129 4.913.389 6.321.065.176.13.375.193.569l.046.142c.082.246.166.495.264.744.198.5.439.966.771 1.344.322.367.74.667 1.33.829.6.166 1.43.203 2.586-.045 1.98-.424 3.39-1.166 4.339-2.179.941-1.005 1.502-2.356 1.641-4.145.109-1.404.29-2.057.446-2.622l.018-.065c.135-.49.25-.93.265-2.08a.9.9 0 0 1 .044-.266l.362-1.084c.064-.548.109-1.018.15-1.451.027-.278.051-.54.079-.796.067-.621.151-1.222.346-1.702.081-.199.185-.386.317-.552a1.53 1.53 0 0 1-.282-.815c-.067-1.17.101-2.068.475-2.754a3 3 0 0 1 1.442-1.318 5 5 0 0 1 .674-.241l.016-.005-.01-.014a12 12 0 0 0-.441-.573l-.205-.256c-.535-.676-1.204-1.577-1.736-2.868-.081-.196-.308-.609-.672-1.261l-.044-.08a83 83 0 0 1-1.201-2.209c-.911-1.748-1.923-3.916-2.437-5.976-.499-2.003-.605-4.215.733-5.746 1.181-1.352 3.235-1.891 6.22-1.606-.727-2.816-2.418-5.188-4.359-7.062-2.179-2.104-4.616-3.522-6.172-4.178-1.465-.512-3.913-1.05-6.452-.989-2.561.062-5.077.73-6.827 2.487-1.829 1.838-3.027 4.451-3.768 7.042a27.6 27.6 0 0 0-.878 4.453m30.424-.277a.87.87 0 0 0 .032-.81c-.643-3.747-2.762-6.781-5.097-9.035a24 24 0 0 0-5.732-4.083 23.2 23.2 0 0 1 4.314-.455c4.055-.038 9.007 1.065 12.595 5.65.478.611.798 1.871.768 3.81-.029 1.888-.386 4.245-1.063 6.869-1.259 4.874-3.602 10.571-6.877 15.731l-.225-.283-.001-.001-.001-.001-.074-.093c.843-1.279 1.176-2.953 1.278-4.568.116-1.832-.055-3.752-.26-5.295-.283-2.131.075-5.615.343-7.436m-1.876.296c-2.93-.325-4.343.247-4.991.988-.729.834-.828 2.259-.352 4.168.462 1.852 1.395 3.871 2.29 5.589.427.82.839 1.558 1.179 2.169l.001.001.053.094c.328.589.62 1.113.75 1.428q.202.485.428.891c.349-.812.548-1.841.622-3.008.105-1.66-.05-3.446-.249-4.941-.288-2.169.007-5.407.269-7.379m-20.514 20.756a9 9 0 0 1-.683.759 33 33 0 0 1-2.059 1.895c-.767.658-1.771 1.017-2.649 1.246-.5.131-1.055.239-1.524.329q.22.111.49.239c1.31.623 2.875.505 4.295.093 1.42-.411 2.518-1.064 2.782-1.272.302-.238.742-.691.954-1.198q.151-.361.112-.677c-.025-.203-.116-.455-.373-.747-.468-.533-.842-.662-1.05-.689a.7.7 0 0 0-.295.022m-7.996 3.577.004.006zm6.062-6.164q-.045.163-.086.328c-3.769-.012-7.041-3.691-6.415-8.17.457-3.271.277-6.259.192-7.65q-.017-.27-.026-.456l.06-.05c.197-.16.507-.369.911-.593a12 12 0 0 1 3.008-1.17c1.13-.261 2.178-.283 2.975.024.729.282 1.359.88 1.638 2.169.878 4.061.754 6.663.329 8.534-.213.94-.508 1.72-.815 2.437q-.15.347-.313.705v.001c-.21.467-.423.94-.59 1.389l-.128.345c-.275.737-.549 1.47-.74 2.157m-6.437-15.85c-.016.024-.022.027-.004.004zm4.924-.479c-.04.287.526 1.052 1.264 1.155.736.102 1.366-.496 1.406-.783.04-.286-.525-.603-1.263-.705-.737-.103-1.367.047-1.406.333zm21.174.569c.738-.103 1.303-.868 1.263-1.155-.04-.286-.67-.436-1.408-.333s-1.302.419-1.263.705c.04.287.671.885 1.408.783m3.474 17.945c-.123.043-.275.085-.399.12l-.114.033a3 3 0 0 0-.442.155 1.24 1.24 0 0 0-.623.559c-.163.299-.312.821-.268 1.743.043.035.15.1.388.174.471.146 1.18.224 2.03.215 1.704-.019 3.662-.383 4.805-.913a11 11 0 0 0 1.906-1.124 7 7 0 0 0 .59-.488l-.039.008c-4.62.953-6.802.361-7.834-.482m-1.871 2.583q.001 0 .008.012-.01-.01-.008-.012" clip-rule="evenodd"/></g><rect width="131.351" height="121.351" x="158.324" y="158.324" stroke="url(#f)" stroke-width=".649" rx="15.676"/><path fill="url(#g)" fill-rule="evenodd" d="M139.649 185.31c.996-15.365 1.802-16.171 17.168-17.167h.001c-15.366-.996-16.172-1.803-17.168-17.168-.996 15.365-1.802 16.172-17.17 17.168 15.366.994 16.173 1.801 17.169 17.167m32.727-8.701c.632-4.643 1.144-5.154 5.788-5.786-4.644-.632-5.156-1.143-5.788-5.787-.63 4.644-1.143 5.155-5.785 5.787 4.642.632 5.154 1.143 5.785 5.786m-25.752 34.334c.632-4.643 1.143-5.155 5.787-5.786-4.644-.632-5.155-1.144-5.787-5.787-.631 4.643-1.143 5.155-5.787 5.787 4.644.631 5.156 1.143 5.787 5.786m37.558-19.733c-23.048 1.493-24.258 2.703-25.751 25.751-1.493-23.048-2.703-24.258-25.751-25.751 23.048-1.493 24.258-2.703 25.751-25.751 1.493 23.048 2.703 24.259 25.751 25.751" clip-rule="evenodd"/><path fill="url(#h)" d="M-6.652-6.941h463.305v415.885H-6.652z"/><g filter="url(#i)"><ellipse cx="223.285" cy="-153.711" fill="url(#j)" rx="349" ry="159"/></g><defs><linearGradient id="d" x1="83.546" x2="226.648" y1="-291.453" y2="189.091" gradientUnits="userSpaceOnUse"><stop offset=".25" stop-color="#39617d" stop-opacity=".32"/><stop offset=".63" stop-color="#00ded1" stop-opacity=".12"/><stop offset="1" stop-color="#343434" stop-opacity=".51"/></linearGradient><linearGradient id="e" x1="203.59" x2="227.008" y1="241" y2="241" gradientUnits="userSpaceOnUse"><stop/><stop offset="1" stop-color="#d8ffec" stop-opacity=".6"/></linearGradient><linearGradient id="f" x1="158" x2="218.65" y1="196.624" y2="233.764" gradientUnits="userSpaceOnUse"><stop/><stop offset=".589" stop-color="#89a296"/><stop offset="1" stop-color="#89a296" stop-opacity=".08"/></linearGradient><linearGradient id="g" x1="134.084" x2="159.314" y1="208.557" y2="208.557" gradientUnits="userSpaceOnUse"><stop/><stop offset="1" stop-color="#d8ffec"/></linearGradient><linearGradient id="j" x1="56.574" x2="216.155" y1="-451.036" y2="84.917" gradientUnits="userSpaceOnUse"><stop offset=".25" stop-color="#39617d" stop-opacity=".32"/><stop offset=".63" stop-color="#00ded1" stop-opacity=".12"/><stop offset="1" stop-color="#343434" stop-opacity=".51"/></linearGradient><radialGradient id="b" cx="0" cy="0" r="1" gradientTransform="matrix(-38.2987 0 0 -22.2637 225.461 223.748)" gradientUnits="userSpaceOnUse"><stop stop-opacity="0"/><stop offset=".63" stop-color="#121212" stop-opacity=".35"/><stop offset="1" stop-color="#121212" stop-opacity=".88"/></radialGradient><radialGradient id="h" cx="0" cy="0" r="1" gradientTransform="matrix(0 165.234 -167.648 0 232.358 220.626)" gradientUnits="userSpaceOnUse"><stop stop-opacity="0"/><stop offset="1" stop-color="#121212"/></radialGradient><filter id="c" width="800.801" height="460.163" x="-167.395" y="-254.942" color-interpolation-filters="sRGB" filterUnits="userSpaceOnUse"><feFlood flood-opacity="0" result="BackgroundImageFix"/><feBlend in="SourceGraphic" in2="BackgroundImageFix" result="shape"/><feGaussianBlur result="effect1_foregroundBlur_1179_137399" stdDeviation="43.758"/></filter><filter id="i" width="967.754" height="587.754" x="-260.592" y="-447.588" color-interpolation-filters="sRGB" filterUnits="userSpaceOnUse"><feFlood flood-opacity="0" result="BackgroundImageFix"/><feBlend in="SourceGraphic" in2="BackgroundImageFix" result="shape"/><feGaussianBlur result="effect1_foregroundBlur_1179_137399" stdDeviation="67.438"/></filter><clipPath id="a"><rect width="132" height="122" x="158" y="158" fill="#fff" rx="16"/></clipPath></defs></svg>