<svg xmlns="http://www.w3.org/2000/svg" width="448" height="400" fill="none" viewBox="0 0 448 400"><path fill="#131313" d="M-8.852-17.027h476.973v430.908H-8.852z"/><path fill="#07b07e" d="M65.776 211.771c1.17 0 2.085-.42 2.805-.9l-.435-.825c-.675.45-1.365.72-2.22.72-1.59 0-2.73-1.065-2.79-2.715h5.7c.03-.195.045-.465.045-.72 0-2.16-1.23-3.585-3.315-3.585-1.89 0-3.705 1.53-3.705 4.02 0 2.505 1.755 4.005 3.915 4.005m-2.655-4.62c.195-1.53 1.275-2.43 2.46-2.43 1.35 0 2.16.87 2.16 2.43zm8.364 7.68c1.65 0 2.535-1.155 3.105-2.625l3.195-8.28h-1.17l-1.59 4.305c-.255.69-.525 1.485-.78 2.205h-.06c-.3-.735-.615-1.53-.9-2.205l-1.785-4.305h-1.245l3.405 7.68-.21.54c-.39 1.005-.99 1.665-2.01 1.665-.225 0-.465-.045-.66-.105l-.255.975c.255.09.615.15.96.15m10.869-3.075c2.445 0 3.255-1.5 3.255-3.345v-6.75h-5.37v1.05h4.125v5.595c0 1.635-.63 2.355-2.04 2.355-.765 0-1.515-.42-2.085-1.305l-.81.75c.675 1.155 1.815 1.65 2.925 1.65m9.354-9.54c.585 0 1.05-.42 1.05-1.035 0-.63-.465-1.065-1.05-1.065s-1.05.435-1.05 1.065c0 .615.465 1.035 1.05 1.035m-3.3 9.36h6.9v-1.02h-2.835v-6.63h-4.065v1.005h2.835v5.625h-2.835zm8.17 0h7.109v-1.065h-5.595l5.52-8.1v-.75h-6.555v1.05h5.025l-5.505 8.115zm-26.248 20h1.32l1.47-2.685c.255-.48.51-.975.795-1.575h.06c.33.6.6 1.11.87 1.59l1.485 2.67h1.38l-2.94-5.055 2.745-4.845h-1.32l-1.35 2.535c-.24.45-.435.87-.705 1.44h-.06c-.315-.57-.54-.99-.795-1.44l-1.38-2.535h-1.38l2.745 4.785zm9.129 0h1.185v-5.19c0-1.02-.12-2.085-.165-3.09h.03l.99 2.025 3.195 6.255h1.275v-9.9h-1.185v5.145c0 1.035.12 2.16.165 3.135h-.03l-.99-2.025-3.195-6.255h-1.275zm11.949.18c2.13 0 3.435-1.875 3.435-5.16 0-3.315-1.305-5.1-3.435-5.1s-3.435 1.785-3.435 5.1c0 3.285 1.305 5.16 3.435 5.16m0-.99c-1.335 0-2.28-1.32-2.28-4.17 0-2.865.945-4.11 2.28-4.11s2.28 1.245 2.28 4.11c0 2.85-.945 4.17-2.28 4.17m0-3.255c.495 0 .93-.375.93-1.02s-.435-1.02-.93-1.02-.93.375-.93 1.02.435 1.02.93 1.02M131.276 211.576h1.32l1.47-2.685c.255-.48.51-.975.795-1.575h.06c.33.6.6 1.11.87 1.59l1.485 2.67h1.38l-2.94-5.055 2.745-4.845h-1.32l-1.35 2.535c-.24.45-.435.87-.705 1.44h-.06c-.315-.57-.54-.99-.795-1.44l-1.38-2.535h-1.38l2.745 4.785zm8.979 0h6.735v-1.065h-3.15c-.57 0-1.2.045-1.785.09 2.61-2.49 4.41-4.335 4.41-6.195 0-1.755-1.2-2.91-3.12-2.91-1.35 0-2.295.6-3.15 1.5l.705.705c.615-.675 1.395-1.2 2.295-1.2 1.41 0 2.085.825 2.085 1.95 0 1.665-1.785 3.405-5.025 6.39zm9.099 0h1.245v-4.185h1.755l2.37 4.185h1.425l-2.505-4.32c1.335-.345 2.205-1.26 2.205-2.805 0-2.055-1.44-2.775-3.435-2.775h-3.06zm1.245-5.205v-3.69h1.635c1.53 0 2.37.465 2.37 1.77 0 1.29-.84 1.92-2.37 1.92zm7.345 5.205h1.23v-5.34c.855-.96 1.44-1.425 2.31-1.425 1.2 0 1.68.705 1.68 2.175v4.59h1.23v-4.755c0-2.01-.795-3.075-2.52-3.075-1.14 0-1.98.645-2.76 1.515l.06-1.83v-2.76h-1.23zm11.364.195c.9 0 1.77-.57 2.37-1.215h.045l.105 1.02h1.02v-10.905h-1.23v2.64l.045 1.44c-.675-.63-1.32-1.005-2.205-1.005-1.725 0-3.315 1.545-3.315 4.02 0 2.55 1.26 4.005 3.165 4.005m.255-1.035c-1.35 0-2.145-1.14-2.145-2.985 0-1.755 1.02-2.97 2.28-2.97.63 0 1.26.255 1.92.915v3.855c-.645.78-1.335 1.185-2.055 1.185m-25.348 21.02c1.275 0 2.31-.51 2.94-1.14v-4.17h-3.12v1.035H146v2.595c-.375.36-1.02.585-1.71.585-1.935 0-3.03-1.575-3.03-4.065 0-2.46 1.215-4.005 3.06-4.005.945 0 1.53.39 2.01.9l.705-.795c-.555-.585-1.41-1.2-2.715-1.2-2.55 0-4.365 1.935-4.365 5.13 0 3.225 1.785 5.13 4.26 5.13m5.664-.18h1.245v-4.44h4.035v-1.05h-4.035v-3.36h4.77v-1.05h-6.015zm11.47-9.36c.585 0 1.05-.42 1.05-1.035 0-.63-.465-1.065-1.05-1.065s-1.05.435-1.05 1.065c0 .615.465 1.035 1.05 1.035m-3.3 9.36h6.9v-1.02h-2.835v-6.63h-4.065v1.005h2.835v5.625h-2.835zM206.522 211.576h1.26v-3.54l3.3-6.36h-1.29l-1.425 2.925c-.375.765-.765 1.53-1.155 2.325h-.06c-.405-.795-.75-1.545-1.125-2.295l-1.485-2.955h-1.32l3.3 6.36zm5.634 0h1.32l1.47-2.685c.255-.48.51-.975.795-1.575h.06c.33.6.6 1.11.87 1.59l1.485 2.67h1.38l-2.94-5.055 2.745-4.845h-1.32l-1.35 2.535c-.24.45-.435.87-.705 1.44h-.06c-.315-.57-.54-.99-.795-1.44l-1.38-2.535h-1.38l2.745 4.785zm9.129 0h1.185v-5.19c0-1.02-.12-2.085-.165-3.09h.03l.99 2.025 3.195 6.255h1.275v-9.9h-1.185v5.145c0 1.035.12 2.16.165 3.135h-.03l-.99-2.025-3.195-6.255h-1.275zm13.539.195c.795 0 1.305-.21 1.965-.465l-.315-.93c-.54.255-.96.375-1.38.375-.87 0-1.425-.495-1.425-1.62v-8.46h-3.72v1.005h2.49v7.365c0 1.8.84 2.73 2.385 2.73m4.029-.195h6.15v-1.065h-2.445v-7.785h2.445v-1.05h-6.15v1.05h2.445v7.785h-2.445zm-22.287 10.64c.585 0 1.05-.42 1.05-1.035 0-.63-.465-1.065-1.05-1.065s-1.05.435-1.05 1.065c0 .615.465 1.035 1.05 1.035m-2.31 12.615c2.355 0 3.06-1.32 3.06-3.21v-7.695h-4.62v1.005h3.39v6.795c0 1.47-.39 2.1-1.845 2.1-.555 0-1.14-.165-1.665-.42l-.405.915c.585.3 1.32.51 2.085.51m10.284-3.06c1.92 0 3.6-1.47 3.6-4.005 0-2.565-1.68-4.02-3.6-4.02s-3.6 1.455-3.6 4.02c0 2.535 1.68 4.005 3.6 4.005m0-1.02c-1.395 0-2.325-1.2-2.325-2.985s.93-3 2.325-3 2.325 1.215 2.325 3-.93 2.985-2.325 2.985m8.994-8.535c.585 0 1.05-.42 1.05-1.035 0-.63-.465-1.065-1.05-1.065s-1.05.435-1.05 1.065c0 .615.465 1.035 1.05 1.035m-3.3 9.36h6.9v-1.02h-2.835v-6.63h-4.065v1.005h2.835v5.625h-2.835zM277.078 211.771c1.08 0 2.1-.45 2.895-1.2l-.54-.795c-.615.54-1.365.975-2.265.975-1.68 0-2.805-1.2-2.805-2.985s1.155-3 2.835-3c.765 0 1.395.33 1.995.9l.615-.795c-.6-.615-1.47-1.125-2.655-1.125-2.205 0-4.065 1.455-4.065 4.02 0 2.535 1.71 4.005 3.99 4.005m7.809-.015c1.905 0 3.465-1.065 3.465-2.82 0-1.365-1.095-2.235-2.37-2.505v-.075c1.185-.39 2.04-1.155 2.04-2.355 0-1.59-1.365-2.505-3.165-2.505-1.23 0-2.265.525-3.06 1.245l.66.78c.63-.6 1.455-1.02 2.355-1.02 1.17 0 1.95.615 1.95 1.59 0 1.05-.87 1.86-3.135 1.86v.96c2.52 0 3.48.795 3.48 1.995 0 1.11-.99 1.83-2.295 1.83-1.23 0-2.115-.555-2.745-1.185l-.63.81c.705.735 1.8 1.395 3.45 1.395m8.169-.18h1.455l3.12-9.9h-1.275l-1.575 5.355c-.345 1.17-.585 2.1-.945 3.27h-.06c-.36-1.17-.6-2.1-.945-3.27l-1.59-5.355h-1.32zm6.67 0h1.47l.84-3.945c.18-.87.285-1.56.405-2.22h.06c.15.765.27 1.485.405 2.205l.87 3.96h1.485l1.59-7.65h-1.17l-.87 4.485c-.135.72-.24 1.41-.375 2.115h-.06c-.15-.705-.285-1.395-.45-2.115l-.9-4.065h-1.05l-.885 4.065c-.165.705-.3 1.41-.435 2.115h-.06a57 57 0 0 0-.36-2.115l-.885-4.485h-1.26zm10.809 0h1.26v-3.54l3.3-6.36h-1.29l-1.425 2.925c-.375.765-.765 1.53-1.155 2.325h-.06c-.405-.795-.75-1.545-1.125-2.295l-1.485-2.955h-1.32l3.3 6.36zm-28.288 20h1.35l1.08-4.155c.15-.585.27-1.2.39-1.785h.045c.105.585.225 1.2.36 1.785l1.125 4.155h1.38l1.455-9.915h-1.185l-.75 6.225c-.06.81-.15 1.635-.21 2.445h-.06c-.21-.81-.435-1.65-.615-2.445l-1.035-3.66h-.885l-1.035 3.66c-.195.81-.42 1.635-.63 2.445h-.045c-.06-.81-.165-1.62-.21-2.445l-.795-6.225h-1.245zm11.169.18c2.445 0 3.255-1.5 3.255-3.345v-6.75h-5.37v1.05h4.125v5.595c0 1.635-.63 2.355-2.04 2.355-.765 0-1.515-.42-2.085-1.305l-.81.75c.675 1.155 1.815 1.65 2.925 1.65m5.95-.18h1.23v-5.34c.855-.96 1.44-1.425 2.31-1.425 1.2 0 1.68.705 1.68 2.175v4.59h1.23v-4.755c0-2.01-.795-3.075-2.52-3.075-1.14 0-1.98.645-2.76 1.515l.06-1.83v-2.76h-1.23zM347.336 211.771c1.08 0 2.1-.45 2.895-1.2l-.54-.795c-.615.54-1.365.975-2.265.975-1.68 0-2.805-1.2-2.805-2.985s1.155-3 2.835-3c.765 0 1.395.33 1.995.9l.615-.795c-.6-.615-1.47-1.125-2.655-1.125-2.205 0-4.065 1.455-4.065 4.02 0 2.535 1.71 4.005 3.99 4.005m4.599-.195h6.735v-1.065h-3.15c-.57 0-1.2.045-1.785.09 2.61-2.49 4.41-4.335 4.41-6.195 0-1.755-1.2-2.91-3.12-2.91-1.35 0-2.295.6-3.15 1.5l.705.705c.615-.675 1.395-1.2 2.295-1.2 1.41 0 2.085.825 2.085 1.95 0 1.665-1.785 3.405-5.025 6.39zm12.114.18c1.92 0 3.3-1.08 3.3-3.915v-6.165h-1.215v6.18c0 2.07-.9 2.805-2.085 2.805s-2.07-.735-2.07-2.805v-6.18h-1.26v6.165c0 2.835 1.395 3.915 3.33 3.915m8.979-9.54c.585 0 1.05-.42 1.05-1.035 0-.63-.465-1.065-1.05-1.065s-1.05.435-1.05 1.065c0 .615.465 1.035 1.05 1.035m-3.3 9.36h6.9v-1.02h-2.835v-6.63h-4.065v1.005h2.835v5.625h-2.835zm10.824 0h1.215v-6.645h3.06v-1.005h-3.06v-.39c0-1.26.54-2.04 1.845-2.04.63 0 1.095.075 1.695.375l.285-.93a4.95 4.95 0 0 0-2.1-.45c-2.01 0-2.94 1.215-2.94 3.09v.345l-2.085.09v.915h2.085zm-22.527 22.46c.435 0 .795-.09 1.11-.21l-.225-1.005c-.18.075-.435.15-.735.15-1.02 0-1.8-.435-2.13-1.29 1.815-.375 3.015-2.28 3.015-5.1 0-3.15-1.515-5.1-3.735-5.1-2.235 0-3.75 1.935-3.75 5.1 0 2.865 1.245 4.785 3.135 5.115.495 1.35 1.575 2.34 3.315 2.34m-2.7-3.36c-1.515 0-2.475-1.635-2.475-4.095s.96-4.02 2.475-4.02c1.5 0 2.46 1.56 2.46 4.02s-.96 4.095-2.46 4.095m5.484-5.19h6.45v-.93h-6.45zm0 3.21h6.45v-.93h-6.45zm8.694-3.21h6.45v-.93h-6.45zm0 3.21h6.45v-.93h-6.45z"/><path fill="url(#a)" stroke="url(#b)" d="M55.457 163.041h54.877v118.142H55.457z"/><path fill="url(#c)" stroke="url(#d)" d="M125.762 163.041h54.877v118.142h-54.877z"/><path fill="url(#e)" stroke="url(#f)" d="M196.07 163.041h54.877v118.142H196.07z"/><path fill="url(#g)" stroke="url(#h)" d="M266.367 163.041h54.877v118.142h-54.877z"/><path fill="url(#i)" stroke="url(#j)" d="M336.668 163.041h54.877v118.142h-54.877z"/><path fill="url(#k)" d="M-.027-1.098h448.055v402.196H-.027z"/><defs><linearGradient id="a" x1="110.335" x2="117.667" y1="163.041" y2="272.642" gradientUnits="userSpaceOnUse"><stop stop-opacity="0"/><stop offset=".474" stop-color="#1c4442" stop-opacity=".63"/><stop offset="1" stop-color="#131313" stop-opacity="0"/></linearGradient><linearGradient id="b" x1="82.896" x2="82.896" y1="163.041" y2="281.184" gradientUnits="userSpaceOnUse"><stop offset=".078" stop-color="#121212" stop-opacity="0"/><stop offset=".49" stop-color="#07b07e"/><stop offset=".859" stop-color="#121212" stop-opacity="0"/></linearGradient><linearGradient id="c" x1="180.639" x2="187.972" y1="163.041" y2="272.642" gradientUnits="userSpaceOnUse"><stop stop-opacity="0"/><stop offset=".474" stop-color="#1c4442" stop-opacity=".63"/><stop offset="1" stop-color="#131313" stop-opacity="0"/></linearGradient><linearGradient id="d" x1="153.2" x2="153.2" y1="163.041" y2="281.184" gradientUnits="userSpaceOnUse"><stop offset=".078" stop-color="#121212" stop-opacity="0"/><stop offset=".49" stop-color="#07b07e"/><stop offset=".859" stop-color="#121212" stop-opacity="0"/></linearGradient><linearGradient id="e" x1="250.948" x2="258.28" y1="163.041" y2="272.642" gradientUnits="userSpaceOnUse"><stop stop-opacity="0"/><stop offset=".474" stop-color="#1c4442" stop-opacity=".63"/><stop offset="1" stop-color="#131313" stop-opacity="0"/></linearGradient><linearGradient id="f" x1="223.509" x2="223.509" y1="163.041" y2="281.184" gradientUnits="userSpaceOnUse"><stop offset=".078" stop-color="#121212" stop-opacity="0"/><stop offset=".49" stop-color="#07b07e"/><stop offset=".859" stop-color="#121212" stop-opacity="0"/></linearGradient><linearGradient id="g" x1="321.245" x2="328.577" y1="163.041" y2="272.642" gradientUnits="userSpaceOnUse"><stop stop-opacity="0"/><stop offset=".474" stop-color="#1c4442" stop-opacity=".63"/><stop offset="1" stop-color="#131313" stop-opacity="0"/></linearGradient><linearGradient id="h" x1="293.806" x2="293.806" y1="163.041" y2="281.184" gradientUnits="userSpaceOnUse"><stop offset=".078" stop-color="#121212" stop-opacity="0"/><stop offset=".49" stop-color="#07b07e"/><stop offset=".859" stop-color="#121212" stop-opacity="0"/></linearGradient><linearGradient id="i" x1="391.545" x2="398.878" y1="163.041" y2="272.642" gradientUnits="userSpaceOnUse"><stop stop-opacity="0"/><stop offset=".474" stop-color="#1c4442" stop-opacity=".63"/><stop offset="1" stop-color="#131313" stop-opacity="0"/></linearGradient><linearGradient id="j" x1="364.107" x2="364.107" y1="163.041" y2="281.184" gradientUnits="userSpaceOnUse"><stop offset=".078" stop-color="#121212" stop-opacity="0"/><stop offset=".49" stop-color="#07b07e"/><stop offset=".859" stop-color="#121212" stop-opacity="0"/></linearGradient><radialGradient id="k" cx="0" cy="0" r="1" gradientTransform="rotate(90 6.068 225.048)scale(182.119)" gradientUnits="userSpaceOnUse"><stop stop-opacity="0"/><stop offset="1" stop-color="#121212"/></radialGradient></defs></svg>