<svg width="448" height="400" viewBox="0 0 448 400" fill="none" xmlns="http://www.w3.org/2000/svg">
<rect x="-8.85156" y="-17.0273" width="476.973" height="430.908" fill="#131313"/>
<path d="M65.7756 211.771C66.9456 211.771 67.8606 211.351 68.5806 210.871L68.1456 210.046C67.4706 210.496 66.7806 210.766 65.9256 210.766C64.3356 210.766 63.1956 209.701 63.1356 208.051H68.8356C68.8656 207.856 68.8806 207.586 68.8806 207.331C68.8806 205.171 67.6506 203.746 65.5656 203.746C63.6756 203.746 61.8606 205.276 61.8606 207.766C61.8606 210.271 63.6156 211.771 65.7756 211.771ZM63.1206 207.151C63.3156 205.621 64.3956 204.721 65.5806 204.721C66.9306 204.721 67.7406 205.591 67.7406 207.151H63.1206ZM71.4847 214.831C73.1347 214.831 74.0197 213.676 74.5897 212.206L77.7847 203.926H76.6147L75.0247 208.231C74.7697 208.921 74.4997 209.716 74.2447 210.436H74.1847C73.8847 209.701 73.5697 208.906 73.2847 208.231L71.4997 203.926H70.2547L73.6597 211.606L73.4497 212.146C73.0597 213.151 72.4597 213.811 71.4397 213.811C71.2147 213.811 70.9747 213.766 70.7797 213.706L70.5247 214.681C70.7797 214.771 71.1397 214.831 71.4847 214.831ZM82.3539 211.756C84.7989 211.756 85.6089 210.256 85.6089 208.411V201.661H80.2389V202.711H84.3639V208.306C84.3639 209.941 83.7339 210.661 82.3239 210.661C81.5589 210.661 80.8089 210.241 80.2389 209.356L79.4289 210.106C80.1039 211.261 81.2439 211.756 82.3539 211.756ZM91.708 202.216C92.293 202.216 92.758 201.796 92.758 201.181C92.758 200.551 92.293 200.116 91.708 200.116C91.123 200.116 90.658 200.551 90.658 201.181C90.658 201.796 91.123 202.216 91.708 202.216ZM88.408 211.576H95.308V210.556H92.473V203.926H88.408V204.931H91.243V210.556H88.408V211.576ZM96.5772 211.576H103.687V210.511H98.0922L103.612 202.411V201.661H97.0572V202.711H102.082L96.5772 210.826V211.576ZM70.3297 231.576H71.6497L73.1197 228.891C73.3747 228.411 73.6297 227.916 73.9147 227.316H73.9747C74.3047 227.916 74.5747 228.426 74.8447 228.906L76.3297 231.576H77.7097L74.7697 226.521L77.5147 221.676H76.1947L74.8447 224.211C74.6047 224.661 74.4097 225.081 74.1397 225.651H74.0797C73.7647 225.081 73.5397 224.661 73.2847 224.211L71.9047 221.676H70.5247L73.2697 226.461L70.3297 231.576ZM79.4589 231.576H80.6439V226.386C80.6439 225.366 80.5239 224.301 80.4789 223.296H80.5089L81.4989 225.321L84.6939 231.576H85.9689V221.676H84.7839V226.821C84.7839 227.856 84.9039 228.981 84.9489 229.956H84.9189L83.9289 227.931L80.7339 221.676H79.4589V231.576ZM91.408 231.756C93.538 231.756 94.843 229.881 94.843 226.596C94.843 223.281 93.538 221.496 91.408 221.496C89.278 221.496 87.973 223.281 87.973 226.596C87.973 229.881 89.278 231.756 91.408 231.756ZM91.408 230.766C90.073 230.766 89.128 229.446 89.128 226.596C89.128 223.731 90.073 222.486 91.408 222.486C92.743 222.486 93.688 223.731 93.688 226.596C93.688 229.446 92.743 230.766 91.408 230.766ZM91.408 227.511C91.903 227.511 92.338 227.136 92.338 226.491C92.338 225.846 91.903 225.471 91.408 225.471C90.913 225.471 90.478 225.846 90.478 226.491C90.478 227.136 90.913 227.511 91.408 227.511Z" fill="#07B07E"/>
<path d="M131.276 211.576H132.596L134.066 208.891C134.321 208.411 134.576 207.916 134.861 207.316H134.921C135.251 207.916 135.521 208.426 135.791 208.906L137.276 211.576H138.656L135.716 206.521L138.461 201.676H137.141L135.791 204.211C135.551 204.661 135.356 205.081 135.086 205.651H135.026C134.711 205.081 134.486 204.661 134.231 204.211L132.851 201.676H131.471L134.216 206.461L131.276 211.576ZM140.255 211.576H146.99V210.511H143.84C143.27 210.511 142.64 210.556 142.055 210.601C144.665 208.111 146.465 206.266 146.465 204.406C146.465 202.651 145.265 201.496 143.345 201.496C141.995 201.496 141.05 202.096 140.195 202.996L140.9 203.701C141.515 203.026 142.295 202.501 143.195 202.501C144.605 202.501 145.28 203.326 145.28 204.451C145.28 206.116 143.495 207.856 140.255 210.841V211.576ZM149.354 211.576H150.599V207.391H152.354L154.724 211.576H156.149L153.644 207.256C154.979 206.911 155.849 205.996 155.849 204.451C155.849 202.396 154.409 201.676 152.414 201.676H149.354V211.576ZM150.599 206.371V202.681H152.234C153.764 202.681 154.604 203.146 154.604 204.451C154.604 205.741 153.764 206.371 152.234 206.371H150.599ZM157.944 211.576H159.174V206.236C160.029 205.276 160.614 204.811 161.484 204.811C162.684 204.811 163.164 205.516 163.164 206.986V211.576H164.394V206.821C164.394 204.811 163.599 203.746 161.874 203.746C160.734 203.746 159.894 204.391 159.114 205.261L159.174 203.431V200.671H157.944V211.576ZM169.308 211.771C170.208 211.771 171.078 211.201 171.678 210.556H171.723L171.828 211.576H172.848V200.671H171.618V203.311L171.663 204.751C170.988 204.121 170.343 203.746 169.458 203.746C167.733 203.746 166.143 205.291 166.143 207.766C166.143 210.316 167.403 211.771 169.308 211.771ZM169.563 210.736C168.213 210.736 167.418 209.596 167.418 207.751C167.418 205.996 168.438 204.781 169.698 204.781C170.328 204.781 170.958 205.036 171.618 205.696V209.551C170.973 210.331 170.283 210.736 169.563 210.736ZM144.215 231.756C145.49 231.756 146.525 231.246 147.155 230.616V226.446H144.035V227.481H146V230.076C145.625 230.436 144.98 230.661 144.29 230.661C142.355 230.661 141.26 229.086 141.26 226.596C141.26 224.136 142.475 222.591 144.32 222.591C145.265 222.591 145.85 222.981 146.33 223.491L147.035 222.696C146.48 222.111 145.625 221.496 144.32 221.496C141.77 221.496 139.955 223.431 139.955 226.626C139.955 229.851 141.74 231.756 144.215 231.756ZM149.879 231.576H151.124V227.136H155.159V226.086H151.124V222.726H155.894V221.676H149.879V231.576ZM161.349 222.216C161.934 222.216 162.399 221.796 162.399 221.181C162.399 220.551 161.934 220.116 161.349 220.116C160.764 220.116 160.299 220.551 160.299 221.181C160.299 221.796 160.764 222.216 161.349 222.216ZM158.049 231.576H164.949V230.556H162.114V223.926H158.049V224.931H160.884V230.556H158.049V231.576Z" fill="#07B07E"/>
<path d="M206.522 211.576H207.782V208.036L211.082 201.676H209.792L208.367 204.601C207.992 205.366 207.602 206.131 207.212 206.926H207.152C206.747 206.131 206.402 205.381 206.027 204.631L204.542 201.676H203.222L206.522 208.036V211.576ZM212.156 211.576H213.476L214.946 208.891C215.201 208.411 215.456 207.916 215.741 207.316H215.801C216.131 207.916 216.401 208.426 216.671 208.906L218.156 211.576H219.536L216.596 206.521L219.341 201.676H218.021L216.671 204.211C216.431 204.661 216.236 205.081 215.966 205.651H215.906C215.591 205.081 215.366 204.661 215.111 204.211L213.731 201.676H212.351L215.096 206.461L212.156 211.576ZM221.285 211.576H222.47V206.386C222.47 205.366 222.35 204.301 222.305 203.296H222.335L223.325 205.321L226.52 211.576H227.795V201.676H226.61V206.821C226.61 207.856 226.73 208.981 226.775 209.956H226.745L225.755 207.931L222.56 201.676H221.285V211.576ZM234.824 211.771C235.619 211.771 236.129 211.561 236.789 211.306L236.474 210.376C235.934 210.631 235.514 210.751 235.094 210.751C234.224 210.751 233.669 210.256 233.669 209.131V200.671H229.949V201.676H232.439V209.041C232.439 210.841 233.279 211.771 234.824 211.771ZM238.853 211.576H245.003V210.511H242.558V202.726H245.003V201.676H238.853V202.726H241.298V210.511H238.853V211.576ZM216.566 222.216C217.151 222.216 217.616 221.796 217.616 221.181C217.616 220.551 217.151 220.116 216.566 220.116C215.981 220.116 215.516 220.551 215.516 221.181C215.516 221.796 215.981 222.216 216.566 222.216ZM214.256 234.831C216.611 234.831 217.316 233.511 217.316 231.621V223.926H212.696V224.931H216.086V231.726C216.086 233.196 215.696 233.826 214.241 233.826C213.686 233.826 213.101 233.661 212.576 233.406L212.171 234.321C212.756 234.621 213.491 234.831 214.256 234.831ZM224.54 231.771C226.46 231.771 228.14 230.301 228.14 227.766C228.14 225.201 226.46 223.746 224.54 223.746C222.62 223.746 220.94 225.201 220.94 227.766C220.94 230.301 222.62 231.771 224.54 231.771ZM224.54 230.751C223.145 230.751 222.215 229.551 222.215 227.766C222.215 225.981 223.145 224.766 224.54 224.766C225.935 224.766 226.865 225.981 226.865 227.766C226.865 229.551 225.935 230.751 224.54 230.751ZM233.534 222.216C234.119 222.216 234.584 221.796 234.584 221.181C234.584 220.551 234.119 220.116 233.534 220.116C232.949 220.116 232.484 220.551 232.484 221.181C232.484 221.796 232.949 222.216 233.534 222.216ZM230.234 231.576H237.134V230.556H234.299V223.926H230.234V224.931H233.069V230.556H230.234V231.576Z" fill="#07B07E"/>
<path d="M277.078 211.771C278.158 211.771 279.178 211.321 279.973 210.571L279.433 209.776C278.818 210.316 278.068 210.751 277.168 210.751C275.488 210.751 274.363 209.551 274.363 207.766C274.363 205.981 275.518 204.766 277.198 204.766C277.963 204.766 278.593 205.096 279.193 205.666L279.808 204.871C279.208 204.256 278.338 203.746 277.153 203.746C274.948 203.746 273.088 205.201 273.088 207.766C273.088 210.301 274.798 211.771 277.078 211.771ZM284.887 211.756C286.792 211.756 288.352 210.691 288.352 208.936C288.352 207.571 287.257 206.701 285.982 206.431V206.356C287.167 205.966 288.022 205.201 288.022 204.001C288.022 202.411 286.657 201.496 284.857 201.496C283.627 201.496 282.592 202.021 281.797 202.741L282.457 203.521C283.087 202.921 283.912 202.501 284.812 202.501C285.982 202.501 286.762 203.116 286.762 204.091C286.762 205.141 285.892 205.951 283.627 205.951V206.911C286.147 206.911 287.107 207.706 287.107 208.906C287.107 210.016 286.117 210.736 284.812 210.736C283.582 210.736 282.697 210.181 282.067 209.551L281.437 210.361C282.142 211.096 283.237 211.756 284.887 211.756ZM293.056 211.576H294.511L297.631 201.676H296.356L294.781 207.031C294.436 208.201 294.196 209.131 293.836 210.301H293.776C293.416 209.131 293.176 208.201 292.831 207.031L291.241 201.676H289.921L293.056 211.576ZM299.726 211.576H301.196L302.036 207.631C302.216 206.761 302.321 206.071 302.441 205.411H302.501C302.651 206.176 302.771 206.896 302.906 207.616L303.776 211.576H305.261L306.851 203.926H305.681L304.811 208.411C304.676 209.131 304.571 209.821 304.436 210.526H304.376C304.226 209.821 304.091 209.131 303.926 208.411L303.026 204.346H301.976L301.091 208.411C300.926 209.116 300.791 209.821 300.656 210.526H300.596C300.491 209.821 300.371 209.131 300.236 208.411L299.351 203.926H298.091L299.726 211.576ZM310.535 211.576H311.795V208.036L315.095 201.676H313.805L312.38 204.601C312.005 205.366 311.615 206.131 311.225 206.926H311.165C310.76 206.131 310.415 205.381 310.04 204.631L308.555 201.676H307.235L310.535 208.036V211.576ZM282.247 231.576H283.597L284.677 227.421C284.827 226.836 284.947 226.221 285.067 225.636H285.112C285.217 226.221 285.337 226.836 285.472 227.421L286.597 231.576H287.977L289.432 221.661H288.247L287.497 227.886C287.437 228.696 287.347 229.521 287.287 230.331H287.227C287.017 229.521 286.792 228.681 286.612 227.886L285.577 224.226H284.692L283.657 227.886C283.462 228.696 283.237 229.521 283.027 230.331H282.982C282.922 229.521 282.817 228.711 282.772 227.886L281.977 221.661H280.732L282.247 231.576ZM293.416 231.756C295.861 231.756 296.671 230.256 296.671 228.411V221.661H291.301V222.711H295.426V228.306C295.426 229.941 294.796 230.661 293.386 230.661C292.621 230.661 291.871 230.241 291.301 229.356L290.491 230.106C291.166 231.261 292.306 231.756 293.416 231.756ZM299.366 231.576H300.596V226.236C301.451 225.276 302.036 224.811 302.906 224.811C304.106 224.811 304.586 225.516 304.586 226.986V231.576H305.816V226.821C305.816 224.811 305.021 223.746 303.296 223.746C302.156 223.746 301.316 224.391 300.536 225.261L300.596 223.431V220.671H299.366V231.576Z" fill="#07B07E"/>
<path d="M347.336 211.771C348.416 211.771 349.436 211.321 350.231 210.571L349.691 209.776C349.076 210.316 348.326 210.751 347.426 210.751C345.746 210.751 344.621 209.551 344.621 207.766C344.621 205.981 345.776 204.766 347.456 204.766C348.221 204.766 348.851 205.096 349.451 205.666L350.066 204.871C349.466 204.256 348.596 203.746 347.411 203.746C345.206 203.746 343.346 205.201 343.346 207.766C343.346 210.301 345.056 211.771 347.336 211.771ZM351.935 211.576H358.67V210.511H355.52C354.95 210.511 354.32 210.556 353.735 210.601C356.345 208.111 358.145 206.266 358.145 204.406C358.145 202.651 356.945 201.496 355.025 201.496C353.675 201.496 352.73 202.096 351.875 202.996L352.58 203.701C353.195 203.026 353.975 202.501 354.875 202.501C356.285 202.501 356.96 203.326 356.96 204.451C356.96 206.116 355.175 207.856 351.935 210.841V211.576ZM364.049 211.756C365.969 211.756 367.349 210.676 367.349 207.841V201.676H366.134V207.856C366.134 209.926 365.234 210.661 364.049 210.661C362.864 210.661 361.979 209.926 361.979 207.856V201.676H360.719V207.841C360.719 210.676 362.114 211.756 364.049 211.756ZM373.028 202.216C373.613 202.216 374.078 201.796 374.078 201.181C374.078 200.551 373.613 200.116 373.028 200.116C372.443 200.116 371.978 200.551 371.978 201.181C371.978 201.796 372.443 202.216 373.028 202.216ZM369.728 211.576H376.628V210.556H373.793V203.926H369.728V204.931H372.563V210.556H369.728V211.576ZM380.552 211.576H381.767V204.931H384.827V203.926H381.767V203.536C381.767 202.276 382.307 201.496 383.612 201.496C384.242 201.496 384.707 201.571 385.307 201.871L385.592 200.941C384.902 200.626 384.212 200.491 383.492 200.491C381.482 200.491 380.552 201.706 380.552 203.581V203.926L378.467 204.016V204.931H380.552V211.576ZM358.025 234.036C358.46 234.036 358.82 233.946 359.135 233.826L358.91 232.821C358.73 232.896 358.475 232.971 358.175 232.971C357.155 232.971 356.375 232.536 356.045 231.681C357.86 231.306 359.06 229.401 359.06 226.581C359.06 223.431 357.545 221.481 355.325 221.481C353.09 221.481 351.575 223.416 351.575 226.581C351.575 229.446 352.82 231.366 354.71 231.696C355.205 233.046 356.285 234.036 358.025 234.036ZM355.325 230.676C353.81 230.676 352.85 229.041 352.85 226.581C352.85 224.121 353.81 222.561 355.325 222.561C356.825 222.561 357.785 224.121 357.785 226.581C357.785 229.041 356.825 230.676 355.325 230.676ZM360.809 225.486H367.259V224.556H360.809V225.486ZM360.809 228.696H367.259V227.766H360.809V228.696ZM369.503 225.486H375.953V224.556H369.503V225.486ZM369.503 228.696H375.953V227.766H369.503V228.696Z" fill="#07B07E"/>
<rect x="55.457" y="163.041" width="54.8775" height="118.142" fill="url(#paint0_linear_946_100257)" stroke="url(#paint1_linear_946_100257)"/>
<rect x="125.762" y="163.041" width="54.8775" height="118.142" fill="url(#paint2_linear_946_100257)" stroke="url(#paint3_linear_946_100257)"/>
<rect x="196.07" y="163.041" width="54.8775" height="118.142" fill="url(#paint4_linear_946_100257)" stroke="url(#paint5_linear_946_100257)"/>
<rect x="266.367" y="163.041" width="54.8775" height="118.142" fill="url(#paint6_linear_946_100257)" stroke="url(#paint7_linear_946_100257)"/>
<rect x="336.668" y="163.041" width="54.8775" height="118.142" fill="url(#paint8_linear_946_100257)" stroke="url(#paint9_linear_946_100257)"/>
<rect x="-0.0273438" y="-1.09766" width="448.055" height="402.196" fill="url(#paint10_radial_946_100257)"/>
<defs>
<linearGradient id="paint0_linear_946_100257" x1="110.335" y1="163.041" x2="117.667" y2="272.642" gradientUnits="userSpaceOnUse">
<stop stopColor="#133030" stop-opacity="0"/>
<stop offset="0.473958" stop-color="#1C4442" stop-opacity="0.63"/>
<stop offset="1" stop-color="#131313" stop-opacity="0"/>
</linearGradient>
<linearGradient id="paint1_linear_946_100257" x1="82.8958" y1="163.041" x2="82.8958" y2="281.184" gradientUnits="userSpaceOnUse">
<stop offset="0.078125" stop-color="#121212" stop-opacity="0"/>
<stop offset="0.489583" stop-color="#07B07E"/>
<stop offset="0.859375" stop-color="#121212" stop-opacity="0"/>
</linearGradient>
<linearGradient id="paint2_linear_946_100257" x1="180.639" y1="163.041" x2="187.972" y2="272.642" gradientUnits="userSpaceOnUse">
<stop stopColor="#133030" stop-opacity="0"/>
<stop offset="0.473958" stop-color="#1C4442" stop-opacity="0.63"/>
<stop offset="1" stop-color="#131313" stop-opacity="0"/>
</linearGradient>
<linearGradient id="paint3_linear_946_100257" x1="153.2" y1="163.041" x2="153.2" y2="281.184" gradientUnits="userSpaceOnUse">
<stop offset="0.078125" stop-color="#121212" stop-opacity="0"/>
<stop offset="0.489583" stop-color="#07B07E"/>
<stop offset="0.859375" stop-color="#121212" stop-opacity="0"/>
</linearGradient>
<linearGradient id="paint4_linear_946_100257" x1="250.948" y1="163.041" x2="258.28" y2="272.642" gradientUnits="userSpaceOnUse">
<stop stopColor="#133030" stop-opacity="0"/>
<stop offset="0.473958" stop-color="#1C4442" stop-opacity="0.63"/>
<stop offset="1" stop-color="#131313" stop-opacity="0"/>
</linearGradient>
<linearGradient id="paint5_linear_946_100257" x1="223.509" y1="163.041" x2="223.509" y2="281.184" gradientUnits="userSpaceOnUse">
<stop offset="0.078125" stop-color="#121212" stop-opacity="0"/>
<stop offset="0.489583" stop-color="#07B07E"/>
<stop offset="0.859375" stop-color="#121212" stop-opacity="0"/>
</linearGradient>
<linearGradient id="paint6_linear_946_100257" x1="321.245" y1="163.041" x2="328.577" y2="272.642" gradientUnits="userSpaceOnUse">
<stop stopColor="#133030" stop-opacity="0"/>
<stop offset="0.473958" stop-color="#1C4442" stop-opacity="0.63"/>
<stop offset="1" stop-color="#131313" stop-opacity="0"/>
</linearGradient>
<linearGradient id="paint7_linear_946_100257" x1="293.806" y1="163.041" x2="293.806" y2="281.184" gradientUnits="userSpaceOnUse">
<stop offset="0.078125" stop-color="#121212" stop-opacity="0"/>
<stop offset="0.489583" stop-color="#07B07E"/>
<stop offset="0.859375" stop-color="#121212" stop-opacity="0"/>
</linearGradient>
<linearGradient id="paint8_linear_946_100257" x1="391.545" y1="163.041" x2="398.878" y2="272.642" gradientUnits="userSpaceOnUse">
<stop stopColor="#133030" stop-opacity="0"/>
<stop offset="0.473958" stop-color="#1C4442" stop-opacity="0.63"/>
<stop offset="1" stop-color="#131313" stop-opacity="0"/>
</linearGradient>
<linearGradient id="paint9_linear_946_100257" x1="364.107" y1="163.041" x2="364.107" y2="281.184" gradientUnits="userSpaceOnUse">
<stop offset="0.078125" stop-color="#121212" stop-opacity="0"/>
<stop offset="0.489583" stop-color="#07B07E"/>
<stop offset="0.859375" stop-color="#121212" stop-opacity="0"/>
</linearGradient>
<radialGradient id="paint10_radial_946_100257" cx="0" cy="0" r="1" gradientUnits="userSpaceOnUse" gradientTransform="translate(231.116 218.979) rotate(90) scale(182.119 182.119)">
<stop stopColor="#121212" stop-opacity="0"/>
<stop offset="1" stop-color="#121212"/>
</radialGradient>
</defs>
</svg>
