<svg fill="none" viewBox="0 0 225 20" xmlns="http://www.w3.org/2000/svg">
      <path
        d="M.703 12.51c.114 1.066 1.082 2.89 3.892 2.89 2.45 0 3.626-1.558 3.626-3.08 0-1.368-.93-2.49-2.772-2.87L4.12 9.165c-.512-.095-.854-.38-.854-.837 0-.532.532-.931 1.196-.931C5.525 7.397 5.924 8.1 6 8.65l2.107-.475c-.113-1.007-1.006-2.7-3.664-2.7C2.431 5.477.95 6.865.95 8.538c0 1.312.816 2.396 2.62 2.795l1.234.285c.721.152 1.006.495 1.006.913 0 .494-.399.931-1.234.931-1.101 0-1.652-.684-1.709-1.425l-2.164.475zM16.294 15.115h2.412c-.039-.323-.096-.97-.096-1.692V5.762h-2.525v5.437c0 1.084-.645 1.844-1.765 1.844-1.177 0-1.709-.836-1.709-1.882v-5.4h-2.525v5.913c0 2.035 1.29 3.689 3.55 3.689.987 0 2.07-.38 2.582-1.255 0 .38.038.817.076 1.007zM23.822 18.726V14.2c.455.627 1.405 1.14 2.696 1.14 2.639 0 4.404-2.09 4.404-4.923 0-2.776-1.576-4.867-4.31-4.867-1.404 0-2.448.627-2.866 1.35V5.76h-2.45v12.966h2.526zm4.613-8.29c0 1.674-1.025 2.643-2.316 2.643-1.29 0-2.335-.988-2.335-2.642s1.044-2.624 2.335-2.624 2.316.97 2.316 2.624zM32.36 12.568c0 1.464 1.214 2.814 3.208 2.814 1.386 0 2.278-.647 2.753-1.388 0 .36.038.874.095 1.121h2.316a10.47 10.47 0 01-.114-1.482V9.032c0-1.882-1.101-3.555-4.063-3.555-2.506 0-3.854 1.616-4.006 3.08l2.24.475c.076-.818.684-1.521 1.785-1.521 1.063 0 1.576.551 1.576 1.217 0 .323-.17.589-.703.665l-2.297.342c-1.556.228-2.79 1.16-2.79 2.833zm3.74.931c-.817 0-1.216-.532-1.216-1.083 0-.723.513-1.084 1.158-1.179l2.108-.323v.418c0 1.654-.987 2.167-2.05 2.167zM45.605 15.116v-1.14c.494.798 1.481 1.368 2.772 1.368 2.658 0 4.405-2.11 4.405-4.943 0-2.776-1.576-4.886-4.31-4.886-1.386 0-2.411.608-2.829 1.274V1.352h-2.487v13.764h2.45zm4.652-4.696c0 1.711-1.026 2.662-2.317 2.662-1.271 0-2.335-.97-2.335-2.662 0-1.711 1.064-2.643 2.335-2.643 1.291 0 2.317.932 2.317 2.643zM54.21 12.568c0 1.464 1.216 2.814 3.21 2.814 1.385 0 2.278-.647 2.752-1.388 0 .36.038.874.095 1.121h2.316a10.547 10.547 0 01-.113-1.482V9.032c0-1.882-1.102-3.555-4.063-3.555-2.506 0-3.854 1.616-4.006 3.08l2.24.475c.076-.818.684-1.521 1.784-1.521 1.064 0 1.576.551 1.576 1.217 0 .323-.17.589-.702.665l-2.297.342c-1.557.228-2.791 1.16-2.791 2.833zm3.741.931c-.816 0-1.215-.532-1.215-1.083 0-.723.512-1.084 1.158-1.179l2.107-.323v.418c0 1.654-.987 2.167-2.05 2.167zM64.219 12.51c.113 1.066 1.082 2.89 3.892 2.89 2.449 0 3.626-1.558 3.626-3.08 0-1.368-.93-2.49-2.772-2.87l-1.33-.285c-.512-.095-.853-.38-.853-.837 0-.532.531-.931 1.196-.931 1.063 0 1.462.703 1.538 1.254l2.107-.475c-.114-1.007-1.006-2.7-3.664-2.7-2.013 0-3.493 1.388-3.493 3.061 0 1.312.816 2.396 2.62 2.795l1.234.285c.721.152 1.006.495 1.006.913 0 .494-.399.931-1.234.931-1.102 0-1.652-.684-1.709-1.425l-2.164.475zM75.575 9.374c.057-.856.779-1.844 2.089-1.844 1.442 0 2.05.912 2.088 1.844h-4.177zM80 11.807c-.304.837-.95 1.426-2.126 1.426-1.254 0-2.298-.893-2.354-2.129H82.2c0-.038.038-.418.038-.78 0-3.003-1.727-4.847-4.613-4.847-2.392 0-4.595 1.939-4.595 4.923 0 3.156 2.26 5 4.823 5 2.297 0 3.778-1.35 4.252-2.965L80 11.807z"
        fill="#fff"
      />
      <path
        d="M94.758 14.54v-1.448h-4.125V5.541H89.11v8.998h5.648zm9.612 0h1.663l-3.503-9h-1.764l-3.503 9h1.612l.837-2.26h3.808l.85 2.26zm-2.754-7.35l1.371 3.681h-2.742l1.371-3.68zm10.551 7.54c1.891 0 3.364-1.155 3.364-3.326V5.541h-1.523v5.774c0 1.27-.686 1.968-1.841 1.968-1.142 0-1.84-.698-1.84-1.968V5.541h-1.51v5.863c0 2.17 1.472 3.325 3.35 3.325zm14.87-.19v-9h-1.523v6.385l-4.087-6.384h-1.942v8.998h1.523V7.724l4.442 6.815h1.587zm8.055.19c2.297 0 3.667-1.46 4.074-2.983l-1.397-.457c-.304 1.015-1.167 1.98-2.677 1.98-1.536 0-2.983-1.117-2.983-3.224 0-2.183 1.485-3.261 2.97-3.261 1.51 0 2.348.875 2.614 1.967l1.434-.483c-.406-1.573-1.764-2.919-4.048-2.919-2.335 0-4.531 1.765-4.531 4.696 0 2.932 2.119 4.683 4.544 4.683zm14.808-.19v-9h-1.535v3.72h-4.227V5.54h-1.523v9h1.523v-3.846h4.227v3.845h1.535zm17.441-2.374l-2.145-6.625h-1.587l-2.106 6.574-1.803-6.574h-1.599l2.551 8.998h1.561l2.183-6.803 2.183 6.803h1.574l2.526-8.998h-1.574l-1.764 6.625zm12.039 2.373v-1.421h-4.036v-2.386h3.655V9.348h-3.655V6.962h4.036V5.541h-5.559v8.998h5.559zm9.291 0v-1.421h-4.036v-2.386h3.655V9.348h-3.655V6.962h4.036V5.541h-5.559v8.998h5.559zm9.252 0h1.917l-3.681-5.026 3.642-3.972h-2.005l-3.871 4.315V5.54h-1.523v8.998h1.523V11.95l1.193-1.307 2.805 3.896z"
        fill="url(#a)"
      />
      <path
        d="M218.589 7.11h-5.058v.962h3.903s-2.545 1.936-2.855 5.967h1.08c.332-3.668 2.289-5.41 2.93-5.924V7.11z"
        fill="url(#c)"
      />
      <rect
        height="15.698"
        width="15.698"
        fill="url(#b)"
        rx="3.408"
        x="208.211"
        y="2.191"
      />
      <rect
        height="15.698"
        width="15.698"
        rx="3.408"
        stroke="url(#d)"
        strokeWidth=".312"
        x="208.211"
        y="2.191"
      />
      <defs>
        <linearGradient
          id="a"
          gradientUnits="userSpaceOnUse"
          x1="115.513"
          x2="204.24"
          y1=".585"
          y2=".585"
        >
          <stop stopColor="#fff" />
          <stop offset="1" stopColor="#fff" stopOpacity=".62" />
        </linearGradient>
        <linearGradient
          id="b"
          gradientUnits="userSpaceOnUse"
          x1="212.917"
          x2="221.187"
          y1="6.67"
          y2="24.223"
        >
          <stop stopColor="#fff" stopOpacity=".46" />
          <stop offset="1" stopColor="#fff" stopOpacity="0" />
        </linearGradient>
        <linearGradient
          id="c"
          gradientUnits="userSpaceOnUse"
          x1="202.775"
          x2="224.812"
          y1="3.968"
          y2="6.899"
        >
          <stop stopColor="#fff" />
          <stop offset="1" stopColor="#fff" />
        </linearGradient>
        <linearGradient
          id="d"
          gradientUnits="userSpaceOnUse"
          x1="218.21"
          x2="222.612"
          y1="2.068"
          y2="7.898"
        >
          <stop stopColor="#76A891" stopOpacity=".11" />
          <stop offset="1" stopColor="#fff" stopOpacity=".35" />
        </linearGradient>
      </defs>
    </svg>