<svg xmlns="http://www.w3.org/2000/svg" width="920" height="400" fill="none" viewBox="0 0 920 400"><path fill="#131313" d="M.949-17.129h929.512v419.416H.949z"/><path stroke="#1c1c1c" stroke-width="1.161" d="M396.027 425.359h43.051v-43.051h-43.051zM611.328 425.359h43.051v-43.051h-43.051zM826.582 425.359h43.051v-43.051h-43.051z"/><path stroke="#1c1c1c" stroke-width="1.161" d="M396.027 382.311h43.051V339.26h-43.051zM180.77 382.311h43.051V339.26H180.77zM611.328 382.311h43.051V339.26h-43.051zM826.582 382.311h43.051V339.26h-43.051z"/><path stroke="#1c1c1c" stroke-width="1.161" d="M439.074 425.359h43.051v-43.051h-43.051zM223.82 425.359h43.051v-43.051H223.82zM654.379 425.359h43.051v-43.051h-43.051zM869.637 425.359h43.051v-43.051h-43.051z"/><path stroke="#1c1c1c" stroke-width="1.161" d="M439.074 382.311h43.051V339.26h-43.051zM223.82 382.311h43.051V339.26H223.82zM654.379 382.311h43.051V339.26h-43.051zM869.637 382.311h43.051V339.26h-43.051zM482.129 425.359h43.051v-43.051h-43.051zM266.871 425.359h43.051v-43.051h-43.051z"/><path stroke="#1c1c1c" stroke-width="1.161" d="M697.43 425.359h43.051v-43.051H697.43zM482.129 382.311h43.051V339.26h-43.051zM266.871 382.311h43.051V339.26h-43.051z"/><path stroke="#1c1c1c" stroke-width="1.161" d="M697.43 382.311h43.051V339.26H697.43zM525.18 425.359h43.051v-43.051H525.18zM309.922 425.359h43.051v-43.051h-43.051z"/><path stroke="#1c1c1c" stroke-width="1.161" d="M525.18 382.311h43.051V339.26H525.18zM309.922 382.311h43.051V339.26h-43.051zM740.484 382.311h43.051V339.26h-43.051zM94.668 382.311h43.051V339.26H94.668zM568.234 425.359h43.051v-43.051h-43.051zM352.977 425.359h43.051v-43.051h-43.051zM783.539 425.359h43.051v-43.051h-43.051z"/><path stroke="#1c1c1c" stroke-width="1.161" d="M568.234 382.311h43.051V339.26h-43.051zM352.977 382.311h43.051V339.26h-43.051zM783.539 382.311h43.051V339.26h-43.051zM396.027 339.258h43.051v-43.051h-43.051zM180.77 339.258h43.051v-43.051H180.77zM611.328 339.258h43.051v-43.051h-43.051zM826.582 339.258h43.051v-43.051h-43.051zM396.027 296.205h43.051v-43.051h-43.051zM180.77 296.205h43.051v-43.051H180.77zM611.328 296.205h43.051v-43.051h-43.051z"/><path stroke="#1c1c1c" stroke-width="1.161" d="M439.074 339.258h43.051v-43.051h-43.051zM223.82 339.258h43.051v-43.051H223.82zM654.379 339.258h43.051v-43.051h-43.051zM869.637 339.258h43.051v-43.051h-43.051zM223.82 296.205h43.051v-43.051H223.82zM654.379 296.205h43.051v-43.051h-43.051zM482.129 339.258h43.051v-43.051h-43.051zM266.871 339.258h43.051v-43.051h-43.051z"/><path stroke="#1c1c1c" stroke-width="1.161" d="M697.43 339.258h43.051v-43.051H697.43zM912.688 339.258h43.051v-43.051h-43.051zM482.129 296.205h43.051v-43.051h-43.051zM266.871 296.205h43.051v-43.051h-43.051zM697.43 296.205h43.051v-43.051H697.43zM309.922 339.258h43.051v-43.051h-43.051zM740.484 339.258h43.051v-43.051h-43.051z"/><path stroke="#1c1c1c" stroke-width="1.161" d="M525.18 296.205h43.051v-43.051H525.18zM309.922 296.205h43.051v-43.051h-43.051zM740.484 296.205h43.051v-43.051h-43.051zM94.668 296.205h43.051v-43.051H94.668zM568.234 339.258h43.051v-43.051h-43.051zM352.977 339.258h43.051v-43.051h-43.051zM783.539 339.258h43.051v-43.051h-43.051zM137.719 339.258h43.051v-43.051h-43.051zM568.234 296.205h43.051v-43.051h-43.051zM352.977 296.205h43.051v-43.051h-43.051zM137.719 296.205h43.051v-43.051h-43.051zM396.027 253.154h43.051v-43.051h-43.051zM180.77 253.154h43.051v-43.051H180.77z"/><path stroke="#1c1c1c" stroke-width="1.161" d="M396.027 210.105h43.051v-43.051h-43.051zM180.77 210.105h43.051v-43.051H180.77zM826.582 210.105h43.051v-43.051h-43.051zM-34.488 210.105h43.05v-43.051h-43.05z"/><path stroke="#1c1c1c" stroke-width="1.161" d="M439.074 253.154h43.051v-43.051h-43.051zM223.82 253.154h43.051v-43.051H223.82zM654.379 253.154h43.051v-43.051h-43.051z"/><path stroke="#1c1c1c" stroke-width="1.161" d="M439.074 210.105h43.051v-43.051h-43.051zM223.82 210.105h43.051v-43.051H223.82zM8.563 210.105h43.05v-43.051H8.563zM482.129 253.154h43.051v-43.051h-43.051zM266.871 253.154h43.051v-43.051h-43.051zM697.43 210.105h43.051v-43.051H697.43zM912.688 210.105h43.051v-43.051h-43.051zM51.617 210.105h43.051v-43.051h-43.05z"/><path stroke="#1c1c1c" stroke-width="1.161" d="M525.18 253.154h43.051v-43.051H525.18zM309.922 253.154h43.051v-43.051h-43.051zM740.484 253.154h43.051v-43.051h-43.051zM94.668 253.154h43.051v-43.051H94.668z"/><path stroke="#1c1c1c" stroke-width="1.161" d="M525.18 210.105h43.051v-43.051H525.18zM309.922 210.105h43.051v-43.051h-43.051zM740.484 210.105h43.051v-43.051h-43.051zM94.668 210.105h43.051v-43.051H94.668zM137.719 253.154h43.051v-43.051h-43.051zM352.977 210.105h43.051v-43.051h-43.051zM783.539 210.105h43.051v-43.051h-43.051zM396.027 167.053h43.051v-43.051h-43.051zM826.582 167.053h43.051v-43.051h-43.051zM-34.488 167.053h43.05v-43.051h-43.05zM396.027 124.002h43.051V80.951h-43.051zM826.582 124.002h43.051V80.951h-43.051zM-34.488 124.002h43.05V80.951h-43.05z"/><path stroke="#1c1c1c" stroke-width="1.161" d="M439.074 167.053h43.051v-43.051h-43.051zM223.82 167.053h43.051v-43.051H223.82zM869.637 167.053h43.051v-43.051h-43.051zM8.563 167.053h43.05v-43.051H8.563zM439.074 124.002h43.051V80.951h-43.051zM223.82 124.002h43.051V80.951H223.82zM869.637 124.002h43.051V80.951h-43.051zM8.563 124.002h43.05V80.951H8.563zM482.129 167.053h43.051v-43.051h-43.051zM266.871 167.053h43.051v-43.051h-43.051zM912.688 167.053h43.051v-43.051h-43.051zM51.617 167.053h43.051v-43.051h-43.05zM482.129 124.002h43.051V80.951h-43.051zM266.871 124.002h43.051V80.951h-43.051zM51.617 124.002h43.051V80.951h-43.05z"/><path stroke="#1c1c1c" stroke-width="1.161" d="M525.18 167.053h43.051v-43.051H525.18zM309.922 167.053h43.051v-43.051h-43.051zM740.484 167.053h43.051v-43.051h-43.051zM94.668 167.053h43.051v-43.051H94.668zM525.18 124.002h43.051V80.951H525.18zM309.922 124.002h43.051V80.951h-43.051zM94.668 124.002h43.051V80.951H94.668zM352.977 167.053h43.051v-43.051h-43.051zM137.719 167.053h43.051v-43.051h-43.051zM352.977 124.002h43.051V80.951h-43.051zM783.539 124.002h43.051V80.951h-43.051zM137.719 124.002h43.051V80.951h-43.051zM396.027 80.95h43.051V37.897h-43.051zM826.582 80.95h43.051V37.897h-43.051zM-34.488 80.95h43.05V37.897h-43.05z"/><path stroke="#1c1c1c" stroke-width="1.161" d="M396.027 37.898h43.051v-43.05h-43.051zM-34.488 37.898h43.05v-43.05h-43.05z"/><path stroke="#1c1c1c" stroke-width="1.161" d="M439.074 80.95h43.051V37.897h-43.051zM869.637 80.95h43.051V37.897h-43.051zM8.563 80.95h43.05V37.897H8.563z"/><path stroke="#1c1c1c" stroke-width="1.161" d="M439.074 37.898h43.051v-43.05h-43.051zM869.637 37.898h43.051v-43.05h-43.051zM482.129 80.95h43.051V37.897h-43.051zM266.871 80.95h43.051V37.897h-43.051z"/><path stroke="#1c1c1c" stroke-width="1.161" d="M482.129 37.898h43.051v-43.05h-43.051zM266.871 37.898h43.051v-43.05h-43.051zM912.688 37.898h43.051v-43.05h-43.051zM309.922 80.95h43.051V37.897h-43.051zM740.484 80.95h43.051V37.897h-43.051z"/><path stroke="#1c1c1c" stroke-width="1.161" d="M525.18 37.898h43.051v-43.05H525.18zM309.922 37.898h43.051v-43.05h-43.051zM740.484 37.898h43.051v-43.05h-43.051zM352.977 80.95h43.051V37.897h-43.051zM783.539 80.95h43.051V37.897h-43.051z"/><path stroke="#1c1c1c" stroke-width="1.161" d="M352.977 37.898h43.051v-43.05h-43.051zM783.539 37.898h43.051v-43.05h-43.051zM439.074 296.205h43.051v-43.051h-43.051z"/><path fill="url(#a)" d="M543.37 66.08h6.45v-1.02h-2.505v-8.88h-.915c-.6.315-1.335.57-2.355.72v.795h2.04v7.365h-2.715z"/><path fill="url(#b)" d="M546.4 109.26c2.13 0 3.435-1.875 3.435-5.16 0-3.315-1.305-5.1-3.435-5.1s-3.435 1.785-3.435 5.1c0 3.285 1.305 5.16 3.435 5.16m0-.99c-1.335 0-2.28-1.32-2.28-4.17 0-2.865.945-4.11 2.28-4.11s2.28 1.245 2.28 4.11c0 2.85-.945 4.17-2.28 4.17m0-3.255c.495 0 .93-.375.93-1.02s-.435-1.02-.93-1.02-.93.375-.93 1.02.435 1.02.93 1.02"/><path fill="url(#c)" d="M546.4 195.26c2.13 0 3.435-1.875 3.435-5.16 0-3.315-1.305-5.1-3.435-5.1s-3.435 1.785-3.435 5.1c0 3.285 1.305 5.16 3.435 5.16m0-.99c-1.335 0-2.28-1.32-2.28-4.17 0-2.865.945-4.11 2.28-4.11s2.28 1.245 2.28 4.11c0 2.85-.945 4.17-2.28 4.17m0-3.255c.495 0 .93-.375.93-1.02s-.435-1.02-.93-1.02-.93.375-.93 1.02.435 1.02.93 1.02"/><path fill="url(#d)" d="M543.37 238.08h6.45v-1.02h-2.505v-8.88h-.915c-.6.315-1.335.57-2.355.72v.795h2.04v7.365h-2.715z"/><path fill="url(#e)" d="M543.37 281.08h6.45v-1.02h-2.505v-8.88h-.915c-.6.315-1.335.57-2.355.72v.795h2.04v7.365h-2.715z"/><path fill="url(#f)" d="M586.553 66.08h6.45v-1.02h-2.505v-8.88h-.915c-.6.315-1.335.57-2.355.72v.795h2.04v7.365h-2.715z"/><path fill="url(#g)" d="M589.583 109.26c2.13 0 3.435-1.875 3.435-5.16 0-3.315-1.305-5.1-3.435-5.1s-3.435 1.785-3.435 5.1c0 3.285 1.305 5.16 3.435 5.16m0-.99c-1.335 0-2.28-1.32-2.28-4.17 0-2.865.945-4.11 2.28-4.11s2.28 1.245 2.28 4.11c0 2.85-.945 4.17-2.28 4.17m0-3.255c.495 0 .93-.375.93-1.02s-.435-1.02-.93-1.02-.93.375-.93 1.02.435 1.02.93 1.02"/><path fill="url(#h)" d="M586.553 152.08h6.45v-1.02h-2.505v-8.88h-.915c-.6.315-1.335.57-2.355.72v.795h2.04v7.365h-2.715z"/><path fill="url(#i)" d="M586.553 238.08h6.45v-1.02h-2.505v-8.88h-.915c-.6.315-1.335.57-2.355.72v.795h2.04v7.365h-2.715z"/><path fill="url(#j)" d="M589.583 281.26c2.13 0 3.435-1.875 3.435-5.16 0-3.315-1.305-5.1-3.435-5.1s-3.435 1.785-3.435 5.1c0 3.285 1.305 5.16 3.435 5.16m0-.99c-1.335 0-2.28-1.32-2.28-4.17 0-2.865.945-4.11 2.28-4.11s2.28 1.245 2.28 4.11c0 2.85-.945 4.17-2.28 4.17m0-3.255c.495 0 .93-.375.93-1.02s-.435-1.02-.93-1.02-.93.375-.93 1.02.435 1.02.93 1.02"/><path fill="url(#k)" d="M589.583 324.26c2.13 0 3.435-1.875 3.435-5.16 0-3.315-1.305-5.1-3.435-5.1s-3.435 1.785-3.435 5.1c0 3.285 1.305 5.16 3.435 5.16m0-.99c-1.335 0-2.28-1.32-2.28-4.17 0-2.865.945-4.11 2.28-4.11s2.28 1.245 2.28 4.11c0 2.85-.945 4.17-2.28 4.17m0-3.255c.495 0 .93-.375.93-1.02s-.435-1.02-.93-1.02-.93.375-.93 1.02.435 1.02.93 1.02"/><path fill="#0a9e73" d="M586.555 194.08h6.45v-1.02H590.5v-8.88h-.915c-.6.315-1.335.57-2.355.72v.795h2.04v7.365h-2.715z"/><path fill="url(#l)" d="M632.165 109.26c2.13 0 3.435-1.875 3.435-5.16 0-3.315-1.305-5.1-3.435-5.1s-3.435 1.785-3.435 5.1c0 3.285 1.305 5.16 3.435 5.16m0-.99c-1.335 0-2.28-1.32-2.28-4.17 0-2.865.945-4.11 2.28-4.11s2.28 1.245 2.28 4.11c0 2.85-.945 4.17-2.28 4.17m0-3.255c.495 0 .93-.375.93-1.02s-.435-1.02-.93-1.02-.93.375-.93 1.02.435 1.02.93 1.02"/><path fill="url(#m)" d="M629.135 152.08h6.45v-1.02h-2.505v-8.88h-.915c-.6.315-1.335.57-2.355.72v.795h2.04v7.365h-2.715z"/><path fill="url(#n)" d="M632.165 195.26c2.13 0 3.435-1.875 3.435-5.16 0-3.315-1.305-5.1-3.435-5.1s-3.435 1.785-3.435 5.1c0 3.285 1.305 5.16 3.435 5.16m0-.99c-1.335 0-2.28-1.32-2.28-4.17 0-2.865.945-4.11 2.28-4.11s2.28 1.245 2.28 4.11c0 2.85-.945 4.17-2.28 4.17m0-3.255c.495 0 .93-.375.93-1.02s-.435-1.02-.93-1.02-.93.375-.93 1.02.435 1.02.93 1.02"/><path fill="url(#o)" d="M632.165 238.26c2.13 0 3.435-1.875 3.435-5.16 0-3.315-1.305-5.1-3.435-5.1s-3.435 1.785-3.435 5.1c0 3.285 1.305 5.16 3.435 5.16m0-.99c-1.335 0-2.28-1.32-2.28-4.17 0-2.865.945-4.11 2.28-4.11s2.28 1.245 2.28 4.11c0 2.85-.945 4.17-2.28 4.17m0-3.255c.495 0 .93-.375.93-1.02s-.435-1.02-.93-1.02-.93.375-.93 1.02.435 1.02.93 1.02"/><path fill="url(#p)" d="M632.165 281.26c2.13 0 3.435-1.875 3.435-5.16 0-3.315-1.305-5.1-3.435-5.1s-3.435 1.785-3.435 5.1c0 3.285 1.305 5.16 3.435 5.16m0-.99c-1.335 0-2.28-1.32-2.28-4.17 0-2.865.945-4.11 2.28-4.11s2.28 1.245 2.28 4.11c0 2.85-.945 4.17-2.28 4.17m0-3.255c.495 0 .93-.375.93-1.02s-.435-1.02-.93-1.02-.93.375-.93 1.02.435 1.02.93 1.02"/><path fill="url(#q)" d="M629.135 324.08h6.45v-1.02h-2.505v-8.88h-.915c-.6.315-1.335.57-2.355.72v.795h2.04v7.365h-2.715z"/><path fill="url(#r)" d="M629.135 367.08h6.45v-1.02h-2.505v-8.88h-.915c-.6.315-1.335.57-2.355.72v.795h2.04v7.365h-2.715z"/><path fill="url(#s)" d="M804.622 109.26c2.131 0 3.436-1.875 3.436-5.16 0-3.315-1.305-5.1-3.436-5.1-2.13 0-3.434 1.785-3.434 5.1 0 3.285 1.304 5.16 3.434 5.16m0-.99c-1.335 0-2.28-1.32-2.28-4.17 0-2.865.945-4.11 2.28-4.11 1.336 0 2.281 1.245 2.281 4.11 0 2.85-.945 4.17-2.281 4.17m0-3.255c.495 0 .931-.375.931-1.02s-.436-1.02-.931-1.02c-.494 0-.929.375-.929 1.02s.435 1.02.929 1.02"/><path fill="url(#t)" d="M804.622 195.26c2.131 0 3.436-1.875 3.436-5.16 0-3.315-1.305-5.1-3.436-5.1-2.13 0-3.434 1.785-3.434 5.1 0 3.285 1.304 5.16 3.434 5.16m0-.99c-1.335 0-2.28-1.32-2.28-4.17 0-2.865.945-4.11 2.28-4.11 1.336 0 2.281 1.245 2.281 4.11 0 2.85-.945 4.17-2.281 4.17m0-3.255c.495 0 .931-.375.931-1.02s-.436-1.02-.931-1.02c-.494 0-.929.375-.929 1.02s.435 1.02.929 1.02"/><path fill="url(#u)" d="M801.592 324.08h6.451v-1.02h-2.505v-8.88h-.916c-.599.315-1.334.57-2.355.72v.795h2.041v7.365h-2.716z"/><path fill="url(#v)" d="M801.592 367.08h6.451v-1.02h-2.505v-8.88h-.916c-.599.315-1.334.57-2.355.72v.795h2.041v7.365h-2.716z"/><path fill="#0a9e73" d="M801.594 151.367h6.45v-1.02h-2.505v-8.88h-.915c-.6.315-1.335.57-2.355.72v.795h2.04v7.365h-2.715z"/><path fill="url(#w)" d="M675.72 23.26c2.13 0 3.435-1.875 3.435-5.16 0-3.315-1.305-5.1-3.435-5.1s-3.435 1.785-3.435 5.1c0 3.285 1.305 5.16 3.435 5.16m0-.99c-1.335 0-2.28-1.32-2.28-4.17 0-2.865.945-4.11 2.28-4.11S678 15.235 678 18.1c0 2.85-.945 4.17-2.28 4.17m0-3.255c.495 0 .93-.375.93-1.02s-.435-1.02-.93-1.02-.93.375-.93 1.02.435 1.02.93 1.02"/><path fill="url(#x)" d="M672.69 66.08h6.45v-1.02h-2.505v-8.88h-.915c-.6.315-1.335.57-2.355.72v.795h2.04v7.365h-2.715z"/><path fill="url(#y)" d="M675.72 109.26c2.13 0 3.435-1.875 3.435-5.16 0-3.315-1.305-5.1-3.435-5.1s-3.435 1.785-3.435 5.1c0 3.285 1.305 5.16 3.435 5.16m0-.99c-1.335 0-2.28-1.32-2.28-4.17 0-2.865.945-4.11 2.28-4.11s2.28 1.245 2.28 4.11c0 2.85-.945 4.17-2.28 4.17m0-3.255c.495 0 .93-.375.93-1.02s-.435-1.02-.93-1.02-.93.375-.93 1.02.435 1.02.93 1.02"/><path fill="url(#z)" d="M675.72 152.26c2.13 0 3.435-1.875 3.435-5.16 0-3.315-1.305-5.1-3.435-5.1s-3.435 1.785-3.435 5.1c0 3.285 1.305 5.16 3.435 5.16m0-.99c-1.335 0-2.28-1.32-2.28-4.17 0-2.865.945-4.11 2.28-4.11s2.28 1.245 2.28 4.11c0 2.85-.945 4.17-2.28 4.17m0-3.255c.495 0 .93-.375.93-1.02s-.435-1.02-.93-1.02-.93.375-.93 1.02.435 1.02.93 1.02"/><path fill="url(#A)" d="M672.69 195.08h6.45v-1.02h-2.505v-8.88h-.915c-.6.315-1.335.57-2.355.72v.795h2.04v7.365h-2.715z"/><path fill="url(#B)" d="M672.69 238.08h6.45v-1.02h-2.505v-8.88h-.915c-.6.315-1.335.57-2.355.72v.795h2.04v7.365h-2.715z"/><path fill="url(#C)" d="M675.72 281.26c2.13 0 3.435-1.875 3.435-5.16 0-3.315-1.305-5.1-3.435-5.1s-3.435 1.785-3.435 5.1c0 3.285 1.305 5.16 3.435 5.16m0-.99c-1.335 0-2.28-1.32-2.28-4.17 0-2.865.945-4.11 2.28-4.11s2.28 1.245 2.28 4.11c0 2.85-.945 4.17-2.28 4.17m0-3.255c.495 0 .93-.375.93-1.02s-.435-1.02-.93-1.02-.93.375-.93 1.02.435 1.02.93 1.02"/><path fill="url(#D)" d="M675.72 324.26c2.13 0 3.435-1.875 3.435-5.16 0-3.315-1.305-5.1-3.435-5.1s-3.435 1.785-3.435 5.1c0 3.285 1.305 5.16 3.435 5.16m0-.99c-1.335 0-2.28-1.32-2.28-4.17 0-2.865.945-4.11 2.28-4.11s2.28 1.245 2.28 4.11c0 2.85-.945 4.17-2.28 4.17m0-3.255c.495 0 .93-.375.93-1.02s-.435-1.02-.93-1.02-.93.375-.93 1.02.435 1.02.93 1.02"/><path fill="url(#E)" d="M848.177 23.26c2.13 0 3.435-1.875 3.435-5.16 0-3.315-1.305-5.1-3.435-5.1s-3.435 1.785-3.435 5.1c0 3.285 1.305 5.16 3.435 5.16m0-.99c-1.335 0-2.28-1.32-2.28-4.17 0-2.865.945-4.11 2.28-4.11s2.28 1.245 2.28 4.11c0 2.85-.945 4.17-2.28 4.17m0-3.255c.495 0 .93-.375.93-1.02s-.435-1.02-.93-1.02-.93.375-.93 1.02.435 1.02.93 1.02"/><path fill="url(#F)" d="M845.147 66.08h6.45v-1.02h-2.505v-8.88h-.915c-.6.315-1.335.57-2.355.72v.795h2.04v7.365h-2.715z"/><path fill="url(#G)" d="M848.177 109.26c2.13 0 3.435-1.875 3.435-5.16 0-3.315-1.305-5.1-3.435-5.1s-3.435 1.785-3.435 5.1c0 3.285 1.305 5.16 3.435 5.16m0-.99c-1.335 0-2.28-1.32-2.28-4.17 0-2.865.945-4.11 2.28-4.11s2.28 1.245 2.28 4.11c0 2.85-.945 4.17-2.28 4.17m0-3.255c.495 0 .93-.375.93-1.02s-.435-1.02-.93-1.02-.93.375-.93 1.02.435 1.02.93 1.02"/><path fill="url(#H)" d="M848.177 152.26c2.13 0 3.435-1.875 3.435-5.16 0-3.315-1.305-5.1-3.435-5.1s-3.435 1.785-3.435 5.1c0 3.285 1.305 5.16 3.435 5.16m0-.99c-1.335 0-2.28-1.32-2.28-4.17 0-2.865.945-4.11 2.28-4.11s2.28 1.245 2.28 4.11c0 2.85-.945 4.17-2.28 4.17m0-3.255c.495 0 .93-.375.93-1.02s-.435-1.02-.93-1.02-.93.375-.93 1.02.435 1.02.93 1.02"/><path fill="url(#I)" d="M845.147 195.08h6.45v-1.02h-2.505v-8.88h-.915c-.6.315-1.335.57-2.355.72v.795h2.04v7.365h-2.715z"/><path fill="url(#J)" d="M845.147 238.08h6.45v-1.02h-2.505v-8.88h-.915c-.6.315-1.335.57-2.355.72v.795h2.04v7.365h-2.715z"/><path fill="url(#K)" d="M848.177 281.26c2.13 0 3.435-1.875 3.435-5.16 0-3.315-1.305-5.1-3.435-5.1s-3.435 1.785-3.435 5.1c0 3.285 1.305 5.16 3.435 5.16m0-.99c-1.335 0-2.28-1.32-2.28-4.17 0-2.865.945-4.11 2.28-4.11s2.28 1.245 2.28 4.11c0 2.85-.945 4.17-2.28 4.17m0-3.255c.495 0 .93-.375.93-1.02s-.435-1.02-.93-1.02-.93.375-.93 1.02.435 1.02.93 1.02"/><path fill="url(#L)" d="M848.177 324.26c2.13 0 3.435-1.875 3.435-5.16 0-3.315-1.305-5.1-3.435-5.1s-3.435 1.785-3.435 5.1c0 3.285 1.305 5.16 3.435 5.16m0-.99c-1.335 0-2.28-1.32-2.28-4.17 0-2.865.945-4.11 2.28-4.11s2.28 1.245 2.28 4.11c0 2.85-.945 4.17-2.28 4.17m0-3.255c.495 0 .93-.375.93-1.02s-.435-1.02-.93-1.02-.93.375-.93 1.02.435 1.02.93 1.02"/><path fill="url(#M)" d="M718.255-19.74c2.13 0 3.435-1.875 3.435-5.16 0-3.315-1.305-5.1-3.435-5.1s-3.435 1.785-3.435 5.1c0 3.285 1.305 5.16 3.435 5.16m0-.99c-1.335 0-2.28-1.32-2.28-4.17 0-2.865.945-4.11 2.28-4.11s2.28 1.245 2.28 4.11c0 2.85-.945 4.17-2.28 4.17m0-3.255c.495 0 .93-.375.93-1.02s-.435-1.02-.93-1.02-.93.375-.93 1.02.435 1.02.93 1.02"/><path fill="url(#N)" d="M718.255 23.26c2.13 0 3.435-1.875 3.435-5.16 0-3.315-1.305-5.1-3.435-5.1s-3.435 1.785-3.435 5.1c0 3.285 1.305 5.16 3.435 5.16m0-.99c-1.335 0-2.28-1.32-2.28-4.17 0-2.865.945-4.11 2.28-4.11s2.28 1.245 2.28 4.11c0 2.85-.945 4.17-2.28 4.17m0-3.255c.495 0 .93-.375.93-1.02s-.435-1.02-.93-1.02-.93.375-.93 1.02.435 1.02.93 1.02"/><path fill="url(#O)" d="M718.255 66.26c2.13 0 3.435-1.875 3.435-5.16 0-3.315-1.305-5.1-3.435-5.1s-3.435 1.785-3.435 5.1c0 3.285 1.305 5.16 3.435 5.16m0-.99c-1.335 0-2.28-1.32-2.28-4.17 0-2.865.945-4.11 2.28-4.11s2.28 1.245 2.28 4.11c0 2.85-.945 4.17-2.28 4.17m0-3.255c.495 0 .93-.375.93-1.02s-.435-1.02-.93-1.02-.93.375-.93 1.02.435 1.02.93 1.02"/><path fill="url(#P)" d="M715.225 109.08h6.45v-1.02h-2.505v-8.88h-.915c-.6.315-1.335.57-2.355.72v.795h2.04v7.365h-2.715z"/><path fill="url(#Q)" d="M715.225 152.08h6.45v-1.02h-2.505v-8.88h-.915c-.6.315-1.335.57-2.355.72v.795h2.04v7.365h-2.715z"/><path fill="url(#R)" d="M718.255 195.26c2.13 0 3.435-1.875 3.435-5.16 0-3.315-1.305-5.1-3.435-5.1s-3.435 1.785-3.435 5.1c0 3.285 1.305 5.16 3.435 5.16m0-.99c-1.335 0-2.28-1.32-2.28-4.17 0-2.865.945-4.11 2.28-4.11s2.28 1.245 2.28 4.11c0 2.85-.945 4.17-2.28 4.17m0-3.255c.495 0 .93-.375.93-1.02s-.435-1.02-.93-1.02-.93.375-.93 1.02.435 1.02.93 1.02"/><path fill="url(#S)" d="M715.225 281.08h6.45v-1.02h-2.505v-8.88h-.915c-.6.315-1.335.57-2.355.72v.795h2.04v7.365h-2.715z"/><path fill="#0a9e73" d="M718.255 237.26c2.13 0 3.435-1.875 3.435-5.16 0-3.315-1.305-5.1-3.435-5.1s-3.435 1.785-3.435 5.1c0 3.285 1.305 5.16 3.435 5.16m0-.99c-1.335 0-2.28-1.32-2.28-4.17 0-2.865.945-4.11 2.28-4.11s2.28 1.245 2.28 4.11c0 2.85-.945 4.17-2.28 4.17m0-3.255c.495 0 .93-.375.93-1.02s-.435-1.02-.93-1.02-.93.375-.93 1.02.435 1.02.93 1.02"/><path fill="url(#T)" d="M890.712-19.74c2.13 0 3.435-1.875 3.435-5.16 0-3.315-1.305-5.1-3.435-5.1s-3.435 1.785-3.435 5.1c0 3.285 1.305 5.16 3.435 5.16m0-.99c-1.335 0-2.28-1.32-2.28-4.17 0-2.865.945-4.11 2.28-4.11s2.28 1.245 2.28 4.11c0 2.85-.945 4.17-2.28 4.17m0-3.255c.495 0 .93-.375.93-1.02s-.435-1.02-.93-1.02-.93.375-.93 1.02.435 1.02.93 1.02"/><path fill="url(#U)" d="M890.712 23.26c2.13 0 3.435-1.875 3.435-5.16 0-3.315-1.305-5.1-3.435-5.1s-3.435 1.785-3.435 5.1c0 3.285 1.305 5.16 3.435 5.16m0-.99c-1.335 0-2.28-1.32-2.28-4.17 0-2.865.945-4.11 2.28-4.11s2.28 1.245 2.28 4.11c0 2.85-.945 4.17-2.28 4.17m0-3.255c.495 0 .93-.375.93-1.02s-.435-1.02-.93-1.02-.93.375-.93 1.02.435 1.02.93 1.02"/><path fill="url(#V)" d="M890.712 66.26c2.13 0 3.435-1.875 3.435-5.16 0-3.315-1.305-5.1-3.435-5.1s-3.435 1.785-3.435 5.1c0 3.285 1.305 5.16 3.435 5.16m0-.99c-1.335 0-2.28-1.32-2.28-4.17 0-2.865.945-4.11 2.28-4.11s2.28 1.245 2.28 4.11c0 2.85-.945 4.17-2.28 4.17m0-3.255c.495 0 .93-.375.93-1.02s-.435-1.02-.93-1.02-.93.375-.93 1.02.435 1.02.93 1.02"/><path fill="url(#W)" d="M887.682 109.08h6.45v-1.02h-2.505v-8.88h-.915c-.6.315-1.335.57-2.355.72v.795h2.04v7.365h-2.715z"/><path fill="url(#X)" d="M887.682 152.08h6.45v-1.02h-2.505v-8.88h-.915c-.6.315-1.335.57-2.355.72v.795h2.04v7.365h-2.715z"/><path fill="url(#Y)" d="M890.712 238.26c2.13 0 3.435-1.875 3.435-5.16 0-3.315-1.305-5.1-3.435-5.1s-3.435 1.785-3.435 5.1c0 3.285 1.305 5.16 3.435 5.16m0-.99c-1.335 0-2.28-1.32-2.28-4.17 0-2.865.945-4.11 2.28-4.11s2.28 1.245 2.28 4.11c0 2.85-.945 4.17-2.28 4.17m0-3.255c.495 0 .93-.375.93-1.02s-.435-1.02-.93-1.02-.93.375-.93 1.02.435 1.02.93 1.02"/><path fill="url(#Z)" d="M887.682 281.08h6.45v-1.02h-2.505v-8.88h-.915c-.6.315-1.335.57-2.355.72v.795h2.04v7.365h-2.715z"/><path fill="url(#aa)" d="M761.439 64.26c2.13 0 3.435-1.875 3.435-5.16 0-3.315-1.305-5.1-3.435-5.1s-3.435 1.785-3.435 5.1c0 3.285 1.305 5.16 3.435 5.16m0-.99c-1.335 0-2.28-1.32-2.28-4.17 0-2.865.945-4.11 2.28-4.11s2.28 1.245 2.28 4.11c0 2.85-.945 4.17-2.28 4.17m0-3.255c.495 0 .93-.375.93-1.02s-.435-1.02-.93-1.02-.93.375-.93 1.02.435 1.02.93 1.02"/><path fill="url(#ab)" d="M758.409 150.08h6.45v-1.02h-2.505v-8.88h-.915c-.6.315-1.335.57-2.355.72v.795h2.04v7.365h-2.715z"/><path fill="url(#ac)" d="M761.439 193.26c2.13 0 3.435-1.875 3.435-5.16 0-3.315-1.305-5.1-3.435-5.1s-3.435 1.785-3.435 5.1c0 3.285 1.305 5.16 3.435 5.16m0-.99c-1.335 0-2.28-1.32-2.28-4.17 0-2.865.945-4.11 2.28-4.11s2.28 1.245 2.28 4.11c0 2.85-.945 4.17-2.28 4.17m0-3.255c.495 0 .93-.375.93-1.02s-.435-1.02-.93-1.02-.93.375-.93 1.02.435 1.02.93 1.02"/><path fill="url(#ad)" d="M758.409 236.08h6.45v-1.02h-2.505v-8.88h-.915c-.6.315-1.335.57-2.355.72v.795h2.04v7.365h-2.715z"/><path fill="url(#ae)" d="M761.439 279.26c2.13 0 3.435-1.875 3.435-5.16 0-3.315-1.305-5.1-3.435-5.1s-3.435 1.785-3.435 5.1c0 3.285 1.305 5.16 3.435 5.16m0-.99c-1.335 0-2.28-1.32-2.28-4.17 0-2.865.945-4.11 2.28-4.11s2.28 1.245 2.28 4.11c0 2.85-.945 4.17-2.28 4.17m0-3.255c.495 0 .93-.375.93-1.02s-.435-1.02-.93-1.02-.93.375-.93 1.02.435 1.02.93 1.02"/><path fill="url(#af)" d="M758.409 322.08h6.45v-1.02h-2.505v-8.88h-.915c-.6.315-1.335.57-2.355.72v.795h2.04v7.365h-2.715z"/><path fill="url(#ag)" d="M761.439 365.26c2.13 0 3.435-1.875 3.435-5.16 0-3.315-1.305-5.1-3.435-5.1s-3.435 1.785-3.435 5.1c0 3.285 1.305 5.16 3.435 5.16m0-.99c-1.335 0-2.28-1.32-2.28-4.17 0-2.865.945-4.11 2.28-4.11s2.28 1.245 2.28 4.11c0 2.85-.945 4.17-2.28 4.17m0-3.255c.495 0 .93-.375.93-1.02s-.435-1.02-.93-1.02-.93.375-.93 1.02.435 1.02.93 1.02"/><path fill="#0a9e73" d="M847.642 279.809c2.13 0 3.435-1.875 3.435-5.16 0-3.315-1.305-5.1-3.435-5.1s-3.435 1.785-3.435 5.1c0 3.285 1.305 5.16 3.435 5.16m0-.99c-1.335 0-2.28-1.32-2.28-4.17 0-2.865.945-4.11 2.28-4.11s2.28 1.245 2.28 4.11c0 2.85-.945 4.17-2.28 4.17m0-3.255c.495 0 .93-.375.93-1.02s-.435-1.02-.93-1.02-.93.375-.93 1.02.435 1.02.93 1.02"/><path stroke="#0a9e73" stroke-width="1.161" d="M568.234 210.105h43.051v-43.051h-43.051zM826.539 296.205h43.051v-43.051h-43.051zM697.43 253.154h43.051v-43.051H697.43zM740.484 425.359h43.051v-43.051h-43.051zM783.539 167.053h43.051v-43.051h-43.051z"/><path fill="url(#ah)" d="M568.23 130.059h43.098v118.142H568.23z"/><path fill="#0a9e73" d="M543.199 150.92h6.45v-1.02h-2.505v-8.88h-.915c-.6.315-1.335.57-2.355.72v.795h2.04v7.365h-2.715z"/><path stroke="#0a9e73" stroke-width="1.161" d="M524.898 167.193h43.051v-43.051h-43.051z"/><path fill="url(#ai)" d="M524.852 83.397h43.098v118.142h-43.098z"/><path fill="url(#aj)" d="M697.031 173.059h43.098v118.142h-43.098z"/><path fill="#0a9e73" d="M545.849 365.674c2.13 0 3.435-1.875 3.435-5.16 0-3.315-1.305-5.1-3.435-5.1s-3.435 1.785-3.435 5.1c0 3.285 1.305 5.16 3.435 5.16m0-.99c-1.335 0-2.28-1.32-2.28-4.17 0-2.865.945-4.11 2.28-4.11s2.28 1.245 2.28 4.11c0 2.85-.945 4.17-2.28 4.17m0-3.255c.495 0 .93-.375.93-1.02s-.435-1.02-.93-1.02-.93.375-.93 1.02.435 1.02.93 1.02"/><path stroke="#0a9e73" stroke-width="1.161" d="M524.898 382.07h43.051v-43.051h-43.051z"/><path fill="url(#ak)" d="M524.402 294.818H567.5V412.96h-43.098z"/><path fill="url(#al)" d="M782.938 82.397h43.098v118.142h-43.098z"/><path fill="url(#am)" d="M826.539 212h43.098v118.142h-43.098z"/><path fill="url(#an)" d="M740.484 338.684h43.098v118.142h-43.098z"/><path fill="url(#ao)" d="M.965-1.711h919.59v402.196H.965z"/><defs><linearGradient id="a" x1="546.398" x2="546.398" y1="9.08" y2="370.08" gradientUnits="userSpaceOnUse"><stop/><stop offset="1" stop-color="#2f2f2f" stop-opacity="0"/></linearGradient><linearGradient id="b" x1="546.398" x2="546.398" y1="9.08" y2="370.08" gradientUnits="userSpaceOnUse"><stop/><stop offset="1" stop-color="#2f2f2f" stop-opacity="0"/></linearGradient><linearGradient id="c" x1="546.398" x2="546.398" y1="9.08" y2="370.08" gradientUnits="userSpaceOnUse"><stop/><stop offset="1" stop-color="#2f2f2f" stop-opacity="0"/></linearGradient><linearGradient id="d" x1="546.398" x2="546.398" y1="9.08" y2="370.08" gradientUnits="userSpaceOnUse"><stop/><stop offset="1" stop-color="#2f2f2f" stop-opacity="0"/></linearGradient><linearGradient id="e" x1="546.398" x2="546.398" y1="9.08" y2="370.08" gradientUnits="userSpaceOnUse"><stop/><stop offset="1" stop-color="#2f2f2f" stop-opacity="0"/></linearGradient><linearGradient id="f" x1="589.582" x2="589.582" y1="9.08" y2="370.08" gradientUnits="userSpaceOnUse"><stop/><stop offset="1" stop-color="#2f2f2f" stop-opacity="0"/></linearGradient><linearGradient id="g" x1="589.582" x2="589.582" y1="9.08" y2="370.08" gradientUnits="userSpaceOnUse"><stop/><stop offset="1" stop-color="#2f2f2f" stop-opacity="0"/></linearGradient><linearGradient id="h" x1="589.582" x2="589.582" y1="9.08" y2="370.08" gradientUnits="userSpaceOnUse"><stop/><stop offset="1" stop-color="#2f2f2f" stop-opacity="0"/></linearGradient><linearGradient id="i" x1="589.582" x2="589.582" y1="9.08" y2="370.08" gradientUnits="userSpaceOnUse"><stop/><stop offset="1" stop-color="#2f2f2f" stop-opacity="0"/></linearGradient><linearGradient id="j" x1="589.582" x2="589.582" y1="9.08" y2="370.08" gradientUnits="userSpaceOnUse"><stop/><stop offset="1" stop-color="#2f2f2f" stop-opacity="0"/></linearGradient><linearGradient id="k" x1="589.582" x2="589.582" y1="9.08" y2="370.08" gradientUnits="userSpaceOnUse"><stop/><stop offset="1" stop-color="#2f2f2f" stop-opacity="0"/></linearGradient><linearGradient id="l" x1="632.164" x2="632.164" y1="52.08" y2="413.08" gradientUnits="userSpaceOnUse"><stop/><stop offset="1" stop-color="#2f2f2f" stop-opacity="0"/></linearGradient><linearGradient id="m" x1="632.164" x2="632.164" y1="52.08" y2="413.08" gradientUnits="userSpaceOnUse"><stop/><stop offset="1" stop-color="#2f2f2f" stop-opacity="0"/></linearGradient><linearGradient id="n" x1="632.164" x2="632.164" y1="52.08" y2="413.08" gradientUnits="userSpaceOnUse"><stop/><stop offset="1" stop-color="#2f2f2f" stop-opacity="0"/></linearGradient><linearGradient id="o" x1="632.164" x2="632.164" y1="52.08" y2="413.08" gradientUnits="userSpaceOnUse"><stop/><stop offset="1" stop-color="#2f2f2f" stop-opacity="0"/></linearGradient><linearGradient id="p" x1="632.164" x2="632.164" y1="52.08" y2="413.08" gradientUnits="userSpaceOnUse"><stop/><stop offset="1" stop-color="#2f2f2f" stop-opacity="0"/></linearGradient><linearGradient id="q" x1="632.164" x2="632.164" y1="52.08" y2="413.08" gradientUnits="userSpaceOnUse"><stop/><stop offset="1" stop-color="#2f2f2f" stop-opacity="0"/></linearGradient><linearGradient id="r" x1="632.164" x2="632.164" y1="52.08" y2="413.08" gradientUnits="userSpaceOnUse"><stop/><stop offset="1" stop-color="#2f2f2f" stop-opacity="0"/></linearGradient><linearGradient id="s" x1="804.621" x2="804.621" y1="52.08" y2="413.08" gradientUnits="userSpaceOnUse"><stop/><stop offset="1" stop-color="#2f2f2f" stop-opacity="0"/></linearGradient><linearGradient id="t" x1="804.621" x2="804.621" y1="52.08" y2="413.08" gradientUnits="userSpaceOnUse"><stop/><stop offset="1" stop-color="#2f2f2f" stop-opacity="0"/></linearGradient><linearGradient id="u" x1="804.621" x2="804.621" y1="52.08" y2="413.08" gradientUnits="userSpaceOnUse"><stop/><stop offset="1" stop-color="#2f2f2f" stop-opacity="0"/></linearGradient><linearGradient id="v" x1="804.621" x2="804.621" y1="52.08" y2="413.08" gradientUnits="userSpaceOnUse"><stop/><stop offset="1" stop-color="#2f2f2f" stop-opacity="0"/></linearGradient><linearGradient id="w" x1="675.719" x2="675.719" y1="9.08" y2="370.08" gradientUnits="userSpaceOnUse"><stop/><stop offset="1" stop-color="#2f2f2f" stop-opacity="0"/></linearGradient><linearGradient id="x" x1="675.719" x2="675.719" y1="9.08" y2="370.08" gradientUnits="userSpaceOnUse"><stop/><stop offset="1" stop-color="#2f2f2f" stop-opacity="0"/></linearGradient><linearGradient id="y" x1="675.719" x2="675.719" y1="9.08" y2="370.08" gradientUnits="userSpaceOnUse"><stop/><stop offset="1" stop-color="#2f2f2f" stop-opacity="0"/></linearGradient><linearGradient id="z" x1="675.719" x2="675.719" y1="9.08" y2="370.08" gradientUnits="userSpaceOnUse"><stop/><stop offset="1" stop-color="#2f2f2f" stop-opacity="0"/></linearGradient><linearGradient id="A" x1="675.719" x2="675.719" y1="9.08" y2="370.08" gradientUnits="userSpaceOnUse"><stop/><stop offset="1" stop-color="#2f2f2f" stop-opacity="0"/></linearGradient><linearGradient id="B" x1="675.719" x2="675.719" y1="9.08" y2="370.08" gradientUnits="userSpaceOnUse"><stop/><stop offset="1" stop-color="#2f2f2f" stop-opacity="0"/></linearGradient><linearGradient id="C" x1="675.719" x2="675.719" y1="9.08" y2="370.08" gradientUnits="userSpaceOnUse"><stop/><stop offset="1" stop-color="#2f2f2f" stop-opacity="0"/></linearGradient><linearGradient id="D" x1="675.719" x2="675.719" y1="9.08" y2="370.08" gradientUnits="userSpaceOnUse"><stop/><stop offset="1" stop-color="#2f2f2f" stop-opacity="0"/></linearGradient><linearGradient id="E" x1="848.176" x2="848.176" y1="9.08" y2="370.08" gradientUnits="userSpaceOnUse"><stop/><stop offset="1" stop-color="#2f2f2f" stop-opacity="0"/></linearGradient><linearGradient id="F" x1="848.176" x2="848.176" y1="9.08" y2="370.08" gradientUnits="userSpaceOnUse"><stop/><stop offset="1" stop-color="#2f2f2f" stop-opacity="0"/></linearGradient><linearGradient id="G" x1="848.176" x2="848.176" y1="9.08" y2="370.08" gradientUnits="userSpaceOnUse"><stop/><stop offset="1" stop-color="#2f2f2f" stop-opacity="0"/></linearGradient><linearGradient id="H" x1="848.176" x2="848.176" y1="9.08" y2="370.08" gradientUnits="userSpaceOnUse"><stop/><stop offset="1" stop-color="#2f2f2f" stop-opacity="0"/></linearGradient><linearGradient id="I" x1="848.176" x2="848.176" y1="9.08" y2="370.08" gradientUnits="userSpaceOnUse"><stop/><stop offset="1" stop-color="#2f2f2f" stop-opacity="0"/></linearGradient><linearGradient id="J" x1="848.176" x2="848.176" y1="9.08" y2="370.08" gradientUnits="userSpaceOnUse"><stop/><stop offset="1" stop-color="#2f2f2f" stop-opacity="0"/></linearGradient><linearGradient id="K" x1="848.176" x2="848.176" y1="9.08" y2="370.08" gradientUnits="userSpaceOnUse"><stop/><stop offset="1" stop-color="#2f2f2f" stop-opacity="0"/></linearGradient><linearGradient id="L" x1="848.176" x2="848.176" y1="9.08" y2="370.08" gradientUnits="userSpaceOnUse"><stop/><stop offset="1" stop-color="#2f2f2f" stop-opacity="0"/></linearGradient><linearGradient id="M" x1="718.254" x2="718.254" y1="-33.92" y2="327.08" gradientUnits="userSpaceOnUse"><stop/><stop offset="1" stop-color="#2f2f2f" stop-opacity="0"/></linearGradient><linearGradient id="N" x1="718.254" x2="718.254" y1="-33.92" y2="327.08" gradientUnits="userSpaceOnUse"><stop/><stop offset="1" stop-color="#2f2f2f" stop-opacity="0"/></linearGradient><linearGradient id="O" x1="718.254" x2="718.254" y1="-33.92" y2="327.08" gradientUnits="userSpaceOnUse"><stop/><stop offset="1" stop-color="#2f2f2f" stop-opacity="0"/></linearGradient><linearGradient id="P" x1="718.254" x2="718.254" y1="-33.92" y2="327.08" gradientUnits="userSpaceOnUse"><stop/><stop offset="1" stop-color="#2f2f2f" stop-opacity="0"/></linearGradient><linearGradient id="Q" x1="718.254" x2="718.254" y1="-33.92" y2="327.08" gradientUnits="userSpaceOnUse"><stop/><stop offset="1" stop-color="#2f2f2f" stop-opacity="0"/></linearGradient><linearGradient id="R" x1="718.254" x2="718.254" y1="-33.92" y2="327.08" gradientUnits="userSpaceOnUse"><stop/><stop offset="1" stop-color="#2f2f2f" stop-opacity="0"/></linearGradient><linearGradient id="S" x1="718.254" x2="718.254" y1="-33.92" y2="327.08" gradientUnits="userSpaceOnUse"><stop/><stop offset="1" stop-color="#2f2f2f" stop-opacity="0"/></linearGradient><linearGradient id="T" x1="890.711" x2="890.711" y1="-33.92" y2="327.08" gradientUnits="userSpaceOnUse"><stop/><stop offset="1" stop-color="#2f2f2f" stop-opacity="0"/></linearGradient><linearGradient id="U" x1="890.711" x2="890.711" y1="-33.92" y2="327.08" gradientUnits="userSpaceOnUse"><stop/><stop offset="1" stop-color="#2f2f2f" stop-opacity="0"/></linearGradient><linearGradient id="V" x1="890.711" x2="890.711" y1="-33.92" y2="327.08" gradientUnits="userSpaceOnUse"><stop/><stop offset="1" stop-color="#2f2f2f" stop-opacity="0"/></linearGradient><linearGradient id="W" x1="890.711" x2="890.711" y1="-33.92" y2="327.08" gradientUnits="userSpaceOnUse"><stop/><stop offset="1" stop-color="#2f2f2f" stop-opacity="0"/></linearGradient><linearGradient id="X" x1="890.711" x2="890.711" y1="-33.92" y2="327.08" gradientUnits="userSpaceOnUse"><stop/><stop offset="1" stop-color="#2f2f2f" stop-opacity="0"/></linearGradient><linearGradient id="Y" x1="890.711" x2="890.711" y1="-33.92" y2="327.08" gradientUnits="userSpaceOnUse"><stop/><stop offset="1" stop-color="#2f2f2f" stop-opacity="0"/></linearGradient><linearGradient id="Z" x1="890.711" x2="890.711" y1="-33.92" y2="327.08" gradientUnits="userSpaceOnUse"><stop/><stop offset="1" stop-color="#2f2f2f" stop-opacity="0"/></linearGradient><linearGradient id="aa" x1="761.438" x2="761.438" y1="50.08" y2="411.08" gradientUnits="userSpaceOnUse"><stop/><stop offset="1" stop-color="#2f2f2f" stop-opacity="0"/></linearGradient><linearGradient id="ab" x1="761.438" x2="761.438" y1="50.08" y2="411.08" gradientUnits="userSpaceOnUse"><stop/><stop offset="1" stop-color="#2f2f2f" stop-opacity="0"/></linearGradient><linearGradient id="ac" x1="761.438" x2="761.438" y1="50.08" y2="411.08" gradientUnits="userSpaceOnUse"><stop/><stop offset="1" stop-color="#2f2f2f" stop-opacity="0"/></linearGradient><linearGradient id="ad" x1="761.438" x2="761.438" y1="50.08" y2="411.08" gradientUnits="userSpaceOnUse"><stop/><stop offset="1" stop-color="#2f2f2f" stop-opacity="0"/></linearGradient><linearGradient id="ae" x1="761.438" x2="761.438" y1="50.08" y2="411.08" gradientUnits="userSpaceOnUse"><stop/><stop offset="1" stop-color="#2f2f2f" stop-opacity="0"/></linearGradient><linearGradient id="af" x1="761.438" x2="761.438" y1="50.08" y2="411.08" gradientUnits="userSpaceOnUse"><stop/><stop offset="1" stop-color="#2f2f2f" stop-opacity="0"/></linearGradient><linearGradient id="ag" x1="761.438" x2="761.438" y1="50.08" y2="411.08" gradientUnits="userSpaceOnUse"><stop/><stop offset="1" stop-color="#2f2f2f" stop-opacity="0"/></linearGradient><linearGradient id="ah" x1="611.328" x2="620.639" y1="130.059" y2="239.357" gradientUnits="userSpaceOnUse"><stop stop-opacity="0"/><stop offset=".474" stop-color="#1c4442" stop-opacity=".63"/><stop offset="1" stop-color="#131313" stop-opacity="0"/></linearGradient><linearGradient id="ai" x1="567.949" x2="577.26" y1="83.397" y2="192.695" gradientUnits="userSpaceOnUse"><stop stop-opacity="0"/><stop offset=".474" stop-color="#1c4442" stop-opacity=".63"/><stop offset="1" stop-color="#131313" stop-opacity="0"/></linearGradient><linearGradient id="aj" x1="740.129" x2="749.44" y1="173.059" y2="282.357" gradientUnits="userSpaceOnUse"><stop stop-opacity="0"/><stop offset=".474" stop-color="#1c4442" stop-opacity=".63"/><stop offset="1" stop-color="#131313" stop-opacity="0"/></linearGradient><linearGradient id="ak" x1="567.5" x2="576.811" y1="294.818" y2="404.117" gradientUnits="userSpaceOnUse"><stop stop-opacity="0"/><stop offset=".474" stop-color="#1c4442" stop-opacity=".63"/><stop offset="1" stop-color="#131313" stop-opacity="0"/></linearGradient><linearGradient id="al" x1="826.035" x2="835.346" y1="82.397" y2="191.695" gradientUnits="userSpaceOnUse"><stop stop-opacity="0"/><stop offset=".474" stop-color="#1c4442" stop-opacity=".63"/><stop offset="1" stop-color="#131313" stop-opacity="0"/></linearGradient><linearGradient id="am" x1="869.637" x2="878.947" y1="212" y2="321.299" gradientUnits="userSpaceOnUse"><stop stop-opacity="0"/><stop offset=".474" stop-color="#1c4442" stop-opacity=".63"/><stop offset="1" stop-color="#131313" stop-opacity="0"/></linearGradient><linearGradient id="an" x1="783.582" x2="792.893" y1="338.684" y2="447.982" gradientUnits="userSpaceOnUse"><stop stop-opacity="0"/><stop offset=".474" stop-color="#1c4442" stop-opacity=".63"/><stop offset="1" stop-color="#131313" stop-opacity="0"/></linearGradient><radialGradient id="ao" cx="0" cy="0" r="1" gradientTransform="matrix(-465.243 0 0 -509.536 704.192 217.057)" gradientUnits="userSpaceOnUse"><stop stop-opacity="0"/><stop offset=".63" stop-color="#121212" stop-opacity=".35"/><stop offset="1" stop-color="#121212" stop-opacity=".88"/></radialGradient></defs></svg>