<svg xmlns="http://www.w3.org/2000/svg" width="1386" height="400" fill="none" viewBox="0 0 1386 401"><path fill="#131313" d="M-21-3.445h1438.36v419.416H-21z"/><mask id="a" width="220" height="197" x="945" y="151" maskUnits="userSpaceOnUse" style="mask-type:alpha"><ellipse fill="#d9d9d9" rx="92.755" ry="113.586" transform="rotate(61.88 319.441 1004.85)scale(-1 1)"/></mask><g stroke="#577f82" stroke-linecap="round" stroke-width=".605" mask="url(#a)"><ellipse rx="81.418" ry="97.263" transform="rotate(61.88 316.473 1028.422)scale(-1 1)"/><ellipse rx="66.571" ry="81.522" transform="rotate(-118.12 630.2 -185.205)scale(1 -1)"/><ellipse rx="48.011" ry="64.176" transform="rotate(61.88 304.176 1069.502)scale(-1 1)"/><ellipse rx="31.667" ry="46.393" transform="rotate(61.88 296.28 1088.806)scale(-1 1)"/></g><ellipse stroke="#577f82" stroke-linecap="round" stroke-width=".605" rx="109.585" ry="134.572" transform="rotate(61.88 326.149 989.798)scale(-1 1)"/><ellipse stroke="#577f82" stroke-linecap="round" stroke-width=".605" rx="92.755" ry="113.586" transform="rotate(61.88 319.444 1004.86)scale(-1 1)"/><ellipse stroke="#577f82" stroke-linecap="round" stroke-width=".605" rx="126.287" ry="154.649" transform="rotate(61.88 336.208 976.885)scale(-1 1)"/><ellipse stroke="#577f82" stroke-linecap="round" stroke-width=".605" rx="145.557" ry="178.206" transform="rotate(61.88 342.12 958.58)scale(-1 1)"/><ellipse stroke="#577f82" stroke-linecap="round" stroke-width="1.21" rx="168.2" ry="204.564" transform="rotate(61.88 351.466 938.509)scale(-1 1)"/><ellipse stroke="#577f82" stroke-linecap="round" stroke-width="1.21" rx="190.476" ry="236.775" transform="rotate(61.88 359.121 923.24)scale(-1 1)"/><ellipse stroke="#577f82" stroke-linecap="round" stroke-width="1.21" rx="208.083" ry="254.91" transform="rotate(61.88 364.886 913.61)scale(-1 1)"/><ellipse stroke="#577f82" stroke-linecap="round" stroke-width="1.21" rx="227.676" ry="276.898" transform="rotate(61.88 372.029 904.189)scale(-1 1)"/><ellipse stroke="#577f82" stroke-linecap="round" stroke-width="1.21" rx="244.714" ry="297.62" transform="rotate(-118.12 542 -223.007)scale(1 -1)"/><ellipse stroke="#577f82" stroke-linecap="round" stroke-width="1.21" rx="266.744" ry="324.413" transform="rotate(61.88 374.431 901.561)scale(-1 1)"/><ellipse stroke="#577f82" stroke-linecap="round" stroke-width="1.21" rx="283.164" ry="344.383" transform="rotate(61.88 374.438 901.566)scale(-1 1)"/><mask id="b" width="674" height="630" x="653" y="-173" maskUnits="userSpaceOnUse" style="mask-type:alpha"><path fill="#adeff3" d="M839.643-108.227c-102.237 54.63-400.535 439.544 76.146 564.481 9.693-76.39 81.972-111.055 114.331-109.164 22.2 1.297 46.21-3.743 68.73-15.773 33.19-17.737 55.56-46.641 62.94-76.685 4.93-20.036 33.66-100.874 164.47-104.951 0-454.551-384.367-312.525-486.617-257.908"/></mask><g stroke="#577f82" stroke-linecap="round" stroke-width=".605" mask="url(#b)"><path d="M735.427 407.526c38.904-30.772 130.23-82.387 235.303-78.808 26.52.903 91.34 13.453 103.56 14.57M1157.15 270.346c2.77-33.744 26.53-84.078 81.68-105.106"/><path d="M1156.17 274.391c-6.98-64.972 26.43-205.523 95.18-240.797"/><path d="M1153.71 282.408c-16.49-49.791-37.61-188.07 9.9-342.85M1144.62 301.84c-14.95-30.511-53.58-119.025-75.55-202.914-21.98-83.889-34.85-176.331-38.53-212.067M1115.74 324.118c-57.89-56.033-195.388-184.654-259.989-233.406S685.618-29.818 640.927-59.611M1101.24 334.09c-22.85-16.591-103.589-66.951-208.411-118.955-104.821-52.004-225.826-77.532-273.225-83.795M1084.78 341.994c-37.58-21.498-149.397-67.536-263.564-67.943-114.166-.407-196.541 19.128-223.457 28.947M912.068 452.673c6.739-39.128 41.989-119.743 154.972-106.408M840.717-122.043c61.449 97.846 237.743 362.556 290.563 435.28"/></g><mask id="c" width="411" height="293" x="881" y="195" maskUnits="userSpaceOnUse" style="mask-type:alpha"><path fill="#adeff3" d="M1218.16 425.925c-242.496 138.062-403.143 8.414-310.592-50.764 42.543-17.625 81.82-34.928 108.032-29.88 25.94 4.999 55.72.741 83.25-13.97 55.33-29.566 80.6-90.161 56.46-135.341 221.71-12.985 118.18 200.388 62.85 229.955"/></mask><g stroke="#577f82" stroke-linecap="round" stroke-width=".605" mask="url(#c)"><path d="M1113.58 447.466c-13.26-19.13-39.55-72.824-33.54-113.288M1239.44 292.451c-9.44-5.518-34.77-17.293-60.55-20.255-25.79-2.962-44.87 9.366-51.18 15.9"/></g><g filter="url(#d)"><path fill="url(#e)" fill-opacity=".6" d="M1186.23 267.931c-33.99 43.446-81.65 78.329-135.1 98.604-73.158 7.921-154.347-49.368-134.5-127.46 17.34-68.243 86.52-125.104 162.24-125.243 75.72-.133 121.24 85.068 107.36 154.099"/></g><g filter="url(#f)"><circle cx="1015" cy="201.88" r="89.504" fill="url(#g)" transform="rotate(132.348 1015 201.88)"/></g><circle cx="1010.73" cy="208.871" r="76.93" fill="url(#h)" stroke="url(#i)" stroke-width="1.21"/><path fill="url(#j)" d="M.383-1.836h1382.62v406.432H.383z"/><defs><linearGradient id="e" x1="985.444" x2="1190.92" y1="3.592" y2="344.891" gradientUnits="userSpaceOnUse"><stop stop-opacity=".32"/><stop offset="1" stop-color="#00dec3"/></linearGradient><linearGradient id="g" x1="1125.72" x2="931.968" y1="138.837" y2="127.069" gradientUnits="userSpaceOnUse"><stop stop-opacity="0"/><stop stop-opacity=".35"/><stop offset="1" stop-color="#0eace0" stop-opacity="0"/></linearGradient><linearGradient id="h" x1="931.381" x2="1100.24" y1="178.888" y2="230.727" gradientUnits="userSpaceOnUse"><stop/><stop offset="1" stop-color="#191919"/></linearGradient><linearGradient id="i" x1="972.859" x2="1046.19" y1="143.616" y2="283.731" gradientUnits="userSpaceOnUse"><stop/><stop offset=".255" stop-color="#636363" stop-opacity=".34"/><stop offset=".755" stop-color="#636363" stop-opacity=".571"/><stop offset="1" stop-color="#7bb8b8"/></linearGradient><filter id="d" width="601.611" height="579.925" x="750.349" y="-49.413" color-interpolation-filters="sRGB" filterUnits="userSpaceOnUse"><feFlood flood-opacity="0" result="BackgroundImageFix"/><feBlend in="SourceGraphic" in2="BackgroundImageFix" result="shape"/><feGaussianBlur result="effect1_foregroundBlur_826_59689" stdDeviation="81.622"/></filter><filter id="f" width="205.635" height="205.637" x="912.183" y="99.061" color-interpolation-filters="sRGB" filterUnits="userSpaceOnUse"><feFlood flood-opacity="0" result="BackgroundImageFix"/><feBlend in="SourceGraphic" in2="BackgroundImageFix" result="shape"/><feGaussianBlur result="effect1_foregroundBlur_826_59689" stdDeviation="6.657"/></filter><radialGradient id="j" cx="0" cy="0" r="1" gradientTransform="matrix(-286.621 0 0 -229.297 1007.86 208.292)" gradientUnits="userSpaceOnUse"><stop stop-opacity="0"/><stop offset=".625" stop-color="#121212" stop-opacity=".35"/><stop offset="1" stop-color="#121212"/></radialGradient></defs></svg>