<svg width="1385" height="400" viewBox="0 0 1385 400" fill="none" xmlns="http://www.w3.org/2000/svg">
<rect x="5.41406" y="-4.08398" width="1438.36" height="419.416" fill="white"/>
<mask id="mask0_1167_67039" style="mask-type:alpha" maskUnits="userSpaceOnUse" x="945" y="151" width="220" height="196">
<ellipse rx="92.7547" ry="113.586" transform="matrix(-0.471323 -0.881961 -0.881961 0.471323 1054.72 248.868)" fill="#D9D9D9"/>
</mask>
<g mask="url(#mask0_1167_67039)">
<ellipse rx="81.4178" ry="97.2625" transform="matrix(-0.471323 -0.881961 -0.881961 0.471323 1073.94 263.947)" stroke="#6AA99B" stroke-width="0.605162" stroke-linecap="round"/>
<ellipse rx="66.5714" ry="81.522" transform="matrix(-0.471323 -0.881961 -0.881961 0.471323 1090.17 282.677)" stroke="#6AA99B" stroke-width="0.605162" stroke-linecap="round"/>
<ellipse rx="48.0109" ry="64.1756" transform="matrix(-0.471323 -0.881961 -0.881961 0.471323 1103.67 296.511)" stroke="#6AA99B" stroke-width="0.605162" stroke-linecap="round"/>
<ellipse rx="31.6671" ry="46.3927" transform="matrix(-0.471323 -0.881961 -0.881961 0.471323 1116.52 313.681)" stroke="#6AA99B" stroke-width="0.605162" stroke-linecap="round"/>
</g>
<ellipse rx="109.585" ry="134.572" transform="matrix(-0.471323 -0.881961 -0.881961 0.471323 1044.99 234.992)" stroke="#6AA99B" stroke-width="0.605162" stroke-linecap="round"/>
<ellipse rx="92.7547" ry="113.586" transform="matrix(-0.471323 -0.881961 -0.881961 0.471323 1054.73 248.87)" stroke="#6AA99B" stroke-width="0.605162" stroke-linecap="round"/>
<ellipse rx="126.287" ry="154.649" transform="matrix(-0.471323 -0.881961 -0.881961 0.471323 1038.92 219.296)" stroke="#6AA99B" stroke-width="0.605162" stroke-linecap="round"/>
<ellipse rx="145.557" ry="178.206" transform="matrix(-0.471323 -0.881961 -0.881961 0.471323 1025.91 204.404)" stroke="#6AA99B" stroke-width="0.605162" stroke-linecap="round"/>
<ellipse rx="168.2" ry="204.564" transform="matrix(-0.471323 -0.881961 -0.881961 0.471323 1013.14 185.55)" stroke="#6AA99B" stroke-width="1.21032" stroke-linecap="round" stroke-dasharray="0.24 2.42"/>
<ellipse rx="190.476" ry="236.775" transform="matrix(-0.471323 -0.881961 -0.881961 0.471323 1003.72 170.726)" stroke="#6AA99B" stroke-width="1.21032" stroke-linecap="round" stroke-dasharray="0.24 2.42"/>
<ellipse rx="208.083" ry="254.91" transform="matrix(-0.471323 -0.881961 -0.881961 0.471323 998.277 160.551)" stroke="#6AA99B" stroke-width="1.21032" stroke-linecap="round" stroke-dasharray="0.24 2.42"/>
<ellipse rx="227.676" ry="276.898" transform="matrix(-0.471323 -0.881961 -0.881961 0.471323 993.744 149.27)" stroke="#6AA99B" stroke-width="1.21032" stroke-linecap="round" stroke-dasharray="0.24 2.42"/>
<ellipse rx="244.714" ry="297.62" transform="matrix(-0.471323 -0.881961 -0.881961 0.471323 993.742 149.269)" stroke="#6AA99B" stroke-width="1.21032" stroke-linecap="round" stroke-dasharray="0.24 2.42"/>
<ellipse rx="266.744" ry="324.413" transform="matrix(-0.471323 -0.881961 -0.881961 0.471323 992.696 145.763)" stroke="#6AA99B" stroke-width="1.21032" stroke-linecap="round" stroke-dasharray="0.24 2.42"/>
<ellipse rx="283.164" ry="344.383" transform="matrix(-0.471323 -0.881961 -0.881961 0.471323 992.705 145.76)" stroke="#6AA99B" stroke-width="1.21032" stroke-linecap="round" stroke-dasharray="0.24 2.42"/>
<mask id="mask1_1167_67039" style="mask-type:alpha" maskUnits="userSpaceOnUse" x="652" y="-174" width="674" height="630">
<path d="M839.245 -108.866C737.008 -54.2361 438.71 330.678 915.39 455.616C925.084 379.225 997.363 344.56 1029.72 346.451C1051.92 347.749 1075.94 342.709 1098.45 330.678C1131.64 312.941 1154.02 284.037 1161.4 253.994C1166.32 233.957 1195.05 153.12 1325.87 149.042C1325.87 -305.509 941.495 -163.483 839.245 -108.866Z" fill="#ADEFF3"/>
</mask>
<g mask="url(#mask1_1167_67039)">
<path d="M735.028 406.888C773.932 376.115 865.259 324.5 970.331 328.079C996.852 328.982 1061.68 341.533 1073.89 342.649" stroke="#6AA99B" stroke-width="0.605162" stroke-linecap="round"/>
<path d="M1156.75 269.708C1159.52 235.964 1183.29 185.629 1238.43 164.602" stroke="#6AA99B" stroke-width="0.605162" stroke-linecap="round"/>
<path d="M1155.77 273.75C1148.79 208.778 1182.2 68.227 1250.95 32.9531" stroke="#6AA99B" stroke-width="0.605162" stroke-linecap="round"/>
<path d="M1153.32 281.77C1136.82 231.978 1115.7 93.6991 1163.21 -61.0801" stroke="#6AA99B" stroke-width="0.605162" stroke-linecap="round"/>
<path d="M1144.22 301.202C1129.27 270.69 1090.65 182.176 1068.67 98.2873C1046.69 14.3987 1033.83 -78.044 1030.14 -113.779" stroke="#6AA99B" stroke-width="0.605162" stroke-linecap="round"/>
<path d="M1115.34 323.479C1057.45 267.446 919.954 138.826 855.353 90.0729C790.752 41.3201 685.22 -30.456 640.529 -60.25" stroke="#6AA99B" stroke-width="0.605162" stroke-linecap="round"/>
<path d="M1100.84 333.451C1077.99 316.861 997.253 266.5 892.431 214.496C787.609 162.493 666.605 136.965 619.205 130.701" stroke="#6AA99B" stroke-width="0.605162" stroke-linecap="round"/>
<path d="M1084.38 341.355C1046.8 319.857 934.985 273.82 820.818 273.413C706.651 273.005 624.277 292.54 597.361 302.359" stroke="#6AA99B" stroke-width="0.605162" stroke-linecap="round"/>
<path d="M911.67 452.035C918.409 412.906 953.658 332.291 1066.64 345.626" stroke="#6AA99B" stroke-width="0.605162" stroke-linecap="round"/>
<path d="M840.318 -122.682C901.767 -24.8354 1078.06 239.875 1130.88 312.598" stroke="#6AA99B" stroke-width="0.605162" stroke-linecap="round"/>
</g>
<mask id="mask2_1167_67039" style="mask-type:alpha" maskUnits="userSpaceOnUse" x="880" y="194" width="411" height="293">
<path d="M1217.76 425.287C975.265 563.349 814.619 433.701 907.17 374.523C949.713 356.897 988.989 339.595 1015.2 344.643C1041.15 349.641 1070.92 345.383 1098.45 330.673C1153.78 301.106 1179.06 240.512 1154.91 195.331C1376.62 182.346 1273.09 395.72 1217.76 425.287Z" fill="#ADEFF3"/>
</mask>
<g mask="url(#mask2_1167_67039)">
<path d="M1113.18 446.827C1099.92 427.697 1073.63 374.004 1079.64 333.539" stroke="#6AA99B" stroke-width="0.605162" stroke-linecap="round"/>
<path d="M1239.04 291.812C1229.6 286.295 1204.28 274.519 1178.49 271.557C1152.7 268.595 1133.62 280.923 1127.31 287.457" stroke="#6AA99B" stroke-width="0.605162" stroke-linecap="round"/>
</g>
<g filter="url(#filter0_f_1167_67039)">
<path d="M1185.83 267.292C1151.84 310.738 1104.19 345.621 1050.73 365.897C977.578 373.817 896.389 316.528 916.236 238.436C933.576 170.193 1002.75 113.332 1078.47 113.194C1154.2 113.06 1199.72 198.262 1185.84 267.292H1185.83Z" fill="url(#paint0_linear_1167_67039)" fill-opacity="0.6"/>
</g>
<g filter="url(#filter1_f_1167_67039)">
<circle cx="1014.6" cy="201.242" r="89.5041" transform="rotate(132.348 1014.6 201.242)" fill="url(#paint1_linear_1167_67039)"/>
</g>
<circle cx="1010.34" cy="208.233" r="76.9304" fill="url(#paint2_linear_1167_67039)" stroke="url(#paint3_linear_1167_67039)" stroke-width="1.21032"/>
<rect x="0.984375" y="-2.47461" width="1382.62" height="406.432" fill="url(#paint4_radial_1167_67039)"/>
<defs>
<filter id="filter0_f_1167_67039" x="749.954" y="-50.0514" width="601.611" height="579.925" filterUnits="userSpaceOnUse" color-interpolation-filters="sRGB">
<feFlood flood-opacity="0" result="BackgroundImageFix"/>
<feBlend mode="normal" in="SourceGraphic" in2="BackgroundImageFix" result="shape"/>
<feGaussianBlur stdDeviation="81.6224" result="effect1_foregroundBlur_1167_67039"/>
</filter>
<filter id="filter1_f_1167_67039" x="911.784" y="98.4228" width="205.635" height="205.637" filterUnits="userSpaceOnUse" color-interpolation-filters="sRGB">
<feFlood flood-opacity="0" result="BackgroundImageFix"/>
<feBlend mode="normal" in="SourceGraphic" in2="BackgroundImageFix" result="shape"/>
<feGaussianBlur stdDeviation="6.65678" result="effect1_foregroundBlur_1167_67039"/>
</filter>
<linearGradient id="paint0_linear_1167_67039" x1="985.049" y1="2.95284" x2="1190.53" y2="344.252" gradientUnits="userSpaceOnUse">
<stop stop-color="#39617D" stop-opacity="0.32"/>
<stop offset="1" stop-color="#00DEC3"/>
</linearGradient>
<linearGradient id="paint1_linear_1167_67039" x1="1125.32" y1="138.198" x2="931.57" y2="126.43" gradientUnits="userSpaceOnUse">
<stop stop-color="#5CFFF5" stop-opacity="0"/>
<stop stop-color="white" stop-opacity="0.35"/>
<stop offset="1" stop-color="#0EACE0" stop-opacity="0"/>
</linearGradient>
<linearGradient id="paint2_linear_1167_67039" x1="930.982" y1="178.249" x2="1099.84" y2="230.088" gradientUnits="userSpaceOnUse">
<stop stop-color="white"/>
<stop offset="1" stop-color="#EDEDED"/>
</linearGradient>
<linearGradient id="paint3_linear_1167_67039" x1="972.461" y1="142.977" x2="1045.8" y2="283.093" gradientUnits="userSpaceOnUse">
<stop stop-color="#88DAC8"/>
<stop offset="0.255208" stop-color="white" stop-opacity="0.34"/>
<stop offset="0.755208" stop-color="white" stop-opacity="0.570732"/>
<stop offset="1" stop-color="#88DAC8"/>
</linearGradient>
<radialGradient id="paint4_radial_1167_67039" cx="0" cy="0" r="1" gradientUnits="userSpaceOnUse" gradientTransform="translate(1008.46 207.653) rotate(180) scale(356.373 350.006)">
<stop stop-color="white" stop-opacity="0"/>
<stop offset="0.625226" stop-color="white" stop-opacity="0.35"/>
<stop offset="1" stop-color="white"/>
</radialGradient>
</defs>
</svg>
