<svg width="619" height="431" viewBox="0 0 619 431" fill="none" xmlns="http://www.w3.org/2000/svg">
<g clip-path="url(#clip0_101_1550)">
<rect width="618" height="430" transform="translate(0.106445 0.40625)" fill="#171717"/>
<path d="M0.589064 88.8458L62.1232 150.604H186.157L228.787 193.389L267.212 146.102C287.56 120.382 328.818 134.475 329.308 167.313L329.309 167.423L329.56 205.755H385.607C422.214 205.755 442.627 248.19 419.866 276.961L341.22 376.373C320.875 402.086 279.615 388.006 279.124 355.162L278.55 316.719H222.825C214.324 316.719 206.695 314.431 200.278 310.556M90.9367 160.651H180.003L222.825 202.836L188.566 245.513C177.361 259.676 176.618 277.15 183.12 291.243L134.99 339.548H85.6385L41.305 384.043M222.458 329.306H265.891L266.28 355.276C266.95 399.953 323.272 419.096 351.039 384.126L390.462 334.47L488.252 432.267H531.278L629.036 530.034M257.073 138.389C284.848 103.406 341.163 122.575 341.832 167.239L341.832 167.241L341.835 167.403L342.004 193.209H429.886L503.578 119.511H546.871L633.059 33.3149M178.227 237.7L206.128 203.41L173.664 170.944H136.34M342.338 166.886L342.338 166.889M386.113 180.226H355.035L354.948 166.916L354.945 166.726L354.945 166.724L354.945 166.711L354.945 166.702L354.945 166.697C354.099 110.207 282.907 85.9625 247.796 130.209M361.409 391.492C326.311 435.717 255.107 411.516 254.26 355.003L254.058 341.475H223.091C207.233 341.475 193.3 336.443 182.175 328.206M634.597 132.909H508.607L437.956 203.6C458.438 227.129 462.66 263.898 440.172 292.238L412.837 327.449L422.109 336.727H503.034L531.4 365.109M39.1513 164.41L63.1909 188.464H144L176.602 221.084L169.033 229.462C155.488 246.531 151.632 266.657 155.183 285.106L127.654 312.65H75.8556M354.207 167.019L354.208 167.043L354.21 167.232M370.535 399.093C328.105 452.462 242.012 423.269 240.988 355.055L240.972 353.956H222.438C200.363 353.956 181.445 345.721 167.385 332.772M628.427 142.631H515.167L453.362 204.362C471.523 231.921 473.144 270.018 449.248 300.078L457.929 308.748H539.769M564.465 31.7578L449.248 146.836H406.471L385.356 167.925H366.815L366.81 167.097L366.806 166.881L366.806 166.867L366.806 166.855L366.806 166.848V166.843L366.806 166.842L366.806 166.834L366.806 166.825C365.783 98.6475 279.71 69.3872 237.259 122.788L208.638 158.212L189.354 138.952H96.3101M-16.3818 284.002L68.3482 199.374H136.091L158.546 221.802C143.629 240.567 138.655 262.463 141.44 282.971M475.713 300.178H547.246L586.781 338.743M122.452 303.265H66.9178M422.538 294.004L397.035 326.762L415.255 345.551H499.097L557.466 403.529M130.166 327.952L168.731 289.387M316.665 167.546L316.664 167.492C316.355 146.951 290.358 138.136 277.536 154.224L198.631 253.231C182.555 273.402 196.973 303.149 222.825 303.149H291.536L292.304 354.188C292.613 374.731 318.611 383.542 331.432 367.456L410.337 268.449C426.412 248.279 411.995 218.531 386.143 218.531H317.001L316.665 167.546ZM391.016 180.255C391.016 181.565 389.954 182.627 388.644 182.627C387.333 182.627 386.271 181.565 386.271 180.255C386.271 178.945 387.333 177.883 388.644 177.883C389.954 177.883 391.016 178.945 391.016 180.255ZM426.107 292.661C426.107 293.971 425.045 295.033 423.735 295.033C422.425 295.033 421.363 293.971 421.363 292.661C421.363 291.351 422.425 290.289 423.735 290.289C425.045 290.289 426.107 291.351 426.107 292.661ZM365.335 389.739C365.335 391.049 364.273 392.111 362.963 392.111C361.653 392.111 360.591 391.049 360.591 389.739C360.591 388.429 361.653 387.367 362.963 387.367C364.273 387.367 365.335 388.429 365.335 389.739ZM374.218 397.146C374.218 398.456 373.156 399.518 371.846 399.518C370.536 399.518 369.474 398.456 369.474 397.146C369.474 395.835 370.536 394.773 371.846 394.773C373.156 394.773 374.218 395.835 374.218 397.146ZM535.482 366.356C535.482 367.667 534.42 368.729 533.11 368.729C531.8 368.729 530.738 367.667 530.738 366.356C530.738 365.046 531.8 363.984 533.11 363.984C534.42 363.984 535.482 365.046 535.482 366.356ZM544.265 308.685C544.265 309.995 543.203 311.057 541.893 311.057C540.583 311.057 539.521 309.995 539.521 308.685C539.521 307.375 540.583 306.312 541.893 306.312C543.203 306.312 544.265 307.375 544.265 308.685ZM590.812 340.591C590.812 341.901 589.75 342.963 588.439 342.963C587.129 342.963 586.067 341.901 586.067 340.591C586.067 339.281 587.129 338.219 588.439 338.219C589.75 338.219 590.812 339.281 590.812 340.591ZM561.412 404.997C561.412 406.307 560.35 407.369 559.04 407.369C557.73 407.369 556.668 406.307 556.668 404.997C556.668 403.687 557.73 402.625 559.04 402.625C560.35 402.625 561.412 403.687 561.412 404.997ZM222.333 329.263C222.333 330.573 221.271 331.635 219.961 331.635C218.651 331.635 217.589 330.573 217.589 329.263C217.589 327.953 218.651 326.891 219.961 326.891C221.271 326.891 222.333 327.953 222.333 329.263ZM200.923 309.122C200.923 310.432 199.861 311.494 198.551 311.494C197.241 311.494 196.179 310.432 196.179 309.122C196.179 307.812 197.241 306.75 198.551 306.75C199.861 306.75 200.923 307.812 200.923 309.122ZM182.701 326.888C182.701 328.198 181.639 329.26 180.329 329.26C179.019 329.26 177.957 328.198 177.957 326.888C177.957 325.578 179.019 324.516 180.329 324.516C181.639 324.516 182.701 325.578 182.701 326.888ZM168.188 331.63C168.188 332.94 167.126 334.002 165.816 334.002C164.506 334.002 163.444 332.94 163.444 331.63C163.444 330.32 164.506 329.258 165.816 329.258C167.126 329.258 168.188 330.32 168.188 331.63ZM179.081 238.935C179.081 240.245 178.019 241.307 176.709 241.307C175.399 241.307 174.337 240.245 174.337 238.935C174.337 237.625 175.399 236.562 176.709 236.562C178.019 236.562 179.081 237.625 179.081 238.935ZM172.753 287.56C172.753 288.87 171.691 289.932 170.381 289.932C169.071 289.932 168.009 288.87 168.009 287.56C168.009 286.25 169.071 285.188 170.381 285.188C171.691 285.188 172.753 286.25 172.753 287.56ZM131.389 329.263C131.389 330.573 130.327 331.635 129.017 331.635C127.707 331.635 126.645 330.573 126.645 329.263C126.645 327.953 127.707 326.891 129.017 326.891C130.327 326.891 131.389 327.953 131.389 329.263ZM143.971 285.185C143.971 286.495 142.909 287.557 141.599 287.557C140.289 287.557 139.227 286.495 139.227 285.185C139.227 283.875 140.289 282.812 141.599 282.812C142.909 282.812 143.971 283.875 143.971 285.185ZM126.645 303.2C126.645 304.51 125.583 305.572 124.272 305.572C122.962 305.572 121.9 304.51 121.9 303.2C121.9 301.89 122.962 300.828 124.272 300.828C125.583 300.828 126.645 301.89 126.645 303.2ZM67.2783 303.2C67.2783 304.51 66.2163 305.572 64.9062 305.572C63.5962 305.572 62.5342 304.51 62.5342 303.2C62.5342 301.89 63.5962 300.828 64.9062 300.828C66.2163 300.828 67.2783 301.89 67.2783 303.2ZM76.1519 312.852C76.1519 314.162 75.0899 315.224 73.7799 315.224C72.4698 315.224 71.4078 314.162 71.4078 312.852C71.4078 311.542 72.4698 310.48 73.7799 310.48C75.0899 310.48 76.1519 311.542 76.1519 312.852ZM136.709 170.825C136.709 172.135 135.647 173.197 134.337 173.197C133.027 173.197 131.965 172.135 131.965 170.825C131.965 169.515 133.027 168.453 134.337 168.453C135.647 168.453 136.709 169.515 136.709 170.825ZM91.3389 160.396C91.3389 161.706 90.2769 162.768 88.9668 162.768C87.6567 162.768 86.5947 161.706 86.5947 160.396C86.5947 159.085 87.6567 158.023 88.9668 158.023C90.2769 158.023 91.3389 159.085 91.3389 160.396ZM96.083 139.815C96.083 141.125 95.021 142.188 93.7109 142.188C92.4009 142.188 91.3389 141.125 91.3389 139.815C91.3389 138.505 92.4009 137.443 93.7109 137.443C95.021 137.443 96.083 138.505 96.083 139.815ZM40.3506 162.763C40.3506 164.073 39.2886 165.135 37.9785 165.135C36.6685 165.135 35.6064 164.073 35.6064 162.763C35.6064 161.453 36.6685 160.391 37.9785 160.391C39.2886 160.391 40.3506 161.453 40.3506 162.763ZM248.737 131.708C248.737 133.018 247.675 134.08 246.365 134.08C245.055 134.08 243.993 133.018 243.993 131.708C243.993 130.398 245.055 129.336 246.365 129.336C247.675 129.336 248.737 130.398 248.737 131.708ZM258.183 139.821C258.183 141.131 257.121 142.193 255.811 142.193C254.501 142.193 253.439 141.131 253.439 139.821C253.439 138.511 254.501 137.449 255.811 137.449C257.121 137.449 258.183 138.511 258.183 139.821Z" stroke="url(#paint0_radial_101_1550)"/>
<g filter="url(#filter0_d_101_1550)">
<mask id="path-2-outside-1_101_1550" maskUnits="userSpaceOnUse" x="203.07" y="157.232" width="202" height="208" fill="black">
<rect fill="white" x="203.07" y="157.232" width="202" height="208"/>
<path fill-rule="evenodd" clip-rule="evenodd" d="M303.544 168.037C303.418 159.654 292.849 156.057 287.636 162.622L208.972 261.694C199.688 273.388 208.015 290.633 222.947 290.633H304.208L305.165 354.47C305.29 362.852 315.86 366.449 321.072 359.884L399.736 260.812C409.02 249.119 400.693 231.873 385.762 231.873H303.963L303.544 168.037Z"/>
</mask>
<path fill-rule="evenodd" clip-rule="evenodd" d="M303.544 168.037C303.418 159.654 292.849 156.057 287.636 162.622L208.972 261.694C199.688 273.388 208.015 290.633 222.947 290.633H304.208L305.165 354.47C305.29 362.852 315.86 366.449 321.072 359.884L399.736 260.812C409.02 249.119 400.693 231.873 385.762 231.873H303.963L303.544 168.037Z" fill="url(#paint1_linear_101_1550)" fill-opacity="0.1" shape-rendering="crispEdges"/>
<path d="M287.636 162.622L288.488 163.299L288.488 163.299L287.636 162.622ZM303.544 168.037L304.631 168.029L304.631 168.02L303.544 168.037ZM208.972 261.694L209.824 262.37L209.824 262.37L208.972 261.694ZM304.208 290.633L305.295 290.617L304.208 289.546V290.633ZM305.165 354.47L304.077 354.486L304.077 354.486L305.165 354.47ZM321.072 359.884L321.924 360.56L321.924 360.56L321.072 359.884ZM399.736 260.812L400.587 261.489L400.587 261.488L399.736 260.812ZM303.963 231.873L302.876 231.881L303.963 232.961V231.873ZM288.488 163.299C293.065 157.533 302.347 160.692 302.457 168.053L304.631 168.02C304.49 158.617 292.633 154.581 286.785 161.946L288.488 163.299ZM209.824 262.37L288.488 163.299L286.785 161.946L208.121 261.018L209.824 262.37ZM222.947 289.546C208.925 289.546 201.105 273.351 209.824 262.37L208.121 261.018C198.27 273.424 207.105 291.72 222.947 291.72V289.546ZM304.208 289.546H222.947V291.72H304.208V289.546ZM306.252 354.454L305.295 290.617L303.121 290.649L304.077 354.486L306.252 354.454ZM320.221 359.208C315.643 364.973 306.362 361.814 306.252 354.454L304.077 354.486C304.218 363.89 316.076 367.925 321.924 360.56L320.221 359.208ZM398.884 260.136L320.221 359.208L321.924 360.56L400.587 261.489L398.884 260.136ZM385.762 232.961C399.783 232.961 407.603 249.155 398.884 260.136L400.587 261.488C410.437 249.082 401.603 230.786 385.762 230.786V232.961ZM303.963 232.961H385.762V230.786H303.963V232.961ZM302.457 168.044L302.876 231.881L305.05 231.866L304.631 168.029L302.457 168.044Z" fill="url(#paint2_linear_101_1550)" mask="url(#path-2-outside-1_101_1550)"/>
</g>
<g filter="url(#filter1_f_101_1550)">
<path d="M287.636 162.625L288.027 162.936L288.027 162.936L287.636 162.625ZM303.543 168.039L304.043 168.036L304.043 168.031L303.543 168.039ZM208.972 261.696L209.364 262.007L209.364 262.007L208.972 261.696ZM304.208 290.635L304.708 290.628L304.208 290.135V290.635ZM305.164 354.472L304.664 354.48L304.664 354.48L305.164 354.472ZM321.072 359.887L321.463 360.198L321.463 360.198L321.072 359.887ZM399.735 260.815L400.127 261.126L400.127 261.126L399.735 260.815ZM303.963 231.876L303.463 231.879L303.963 232.376V231.876ZM288.027 162.936C292.948 156.738 302.925 160.134 303.044 168.046L304.043 168.031C303.911 159.18 292.749 155.381 287.244 162.314L288.027 162.936ZM209.364 262.007L288.027 162.936L287.244 162.314L208.58 261.385L209.364 262.007ZM222.946 290.135C208.433 290.135 200.339 273.373 209.364 262.007L208.58 261.385C199.035 273.407 207.596 291.135 222.946 291.135V290.135ZM304.208 290.135H222.946V291.135H304.208V290.135ZM305.664 354.465L304.708 290.628L303.708 290.643L304.664 354.48L305.664 354.465ZM320.68 359.576C315.76 365.772 305.783 362.377 305.664 354.465L304.664 354.48C304.797 363.332 315.959 367.13 321.463 360.198L320.68 359.576ZM399.344 260.504L320.68 359.576L321.463 360.198L400.127 261.126L399.344 260.504ZM385.761 232.376C400.274 232.376 408.368 249.138 399.344 260.504L400.127 261.126C409.671 249.104 401.111 231.376 385.761 231.376V232.376ZM303.963 232.376H385.761V231.376H303.963V232.376ZM303.043 168.042L303.463 231.879L304.463 231.873L304.043 168.036L303.043 168.042Z" fill="url(#paint3_radial_101_1550)"/>
</g>
<g filter="url(#filter2_f_101_1550)">
<ellipse cx="303.389" cy="9.87891" rx="335.056" ry="148.145" fill="#171717"/>
</g>
<g opacity="0.2" filter="url(#filter3_f_101_1550)">
<ellipse cx="486.908" cy="60.7883" rx="334.74" ry="111.346" transform="rotate(-41.679 486.908 60.7883)" fill="#182E23"/>
</g>
</g>
<defs>
<filter id="filter0_d_101_1550" x="182.74" y="142.141" width="243.227" height="248.701" filterUnits="userSpaceOnUse" color-interpolation-filters="sRGB">
<feFlood flood-opacity="0" result="BackgroundImageFix"/>
<feColorMatrix in="SourceAlpha" type="matrix" values="0 0 0 0 0 0 0 0 0 0 0 0 0 0 0 0 0 0 127 0" result="hardAlpha"/>
<feOffset dy="5.238"/>
<feGaussianBlur stdDeviation="10.62"/>
<feComposite in2="hardAlpha" operator="out"/>
<feColorMatrix type="matrix" values="0 0 0 0 0 0 0 0 0 0 0 0 0 0 0 0 0 0 0.35 0"/>
<feBlend mode="normal" in2="BackgroundImageFix" result="effect1_dropShadow_101_1550"/>
<feBlend mode="normal" in="SourceGraphic" in2="effect1_dropShadow_101_1550" result="shape"/>
</filter>
<filter id="filter1_f_101_1550" x="200.568" y="154.733" width="207.57" height="213.044" filterUnits="userSpaceOnUse" color-interpolation-filters="sRGB">
<feFlood flood-opacity="0" result="BackgroundImageFix"/>
<feBlend mode="normal" in="SourceGraphic" in2="BackgroundImageFix" result="shape"/>
<feGaussianBlur stdDeviation="2" result="effect1_foregroundBlur_101_1550"/>
</filter>
<filter id="filter2_f_101_1550" x="-83.667" y="-190.266" width="774.111" height="400.289" filterUnits="userSpaceOnUse" color-interpolation-filters="sRGB">
<feFlood flood-opacity="0" result="BackgroundImageFix"/>
<feBlend mode="normal" in="SourceGraphic" in2="BackgroundImageFix" result="shape"/>
<feGaussianBlur stdDeviation="26" result="effect1_foregroundBlur_101_1550"/>
</filter>
<filter id="filter3_f_101_1550" x="126.096" y="-276.892" width="721.625" height="675.361" filterUnits="userSpaceOnUse" color-interpolation-filters="sRGB">
<feFlood flood-opacity="0" result="BackgroundImageFix"/>
<feBlend mode="normal" in="SourceGraphic" in2="BackgroundImageFix" result="shape"/>
<feGaussianBlur stdDeviation="50" result="effect1_foregroundBlur_101_1550"/>
</filter>
<radialGradient id="paint0_radial_101_1550" cx="0" cy="0" r="1" gradientUnits="userSpaceOnUse" gradientTransform="translate(309.107 261.597) rotate(180) scale(236.804 133.798)">
<stop stop-color="#91FFCE"/>
<stop offset="1" stop-color="#939191" stop-opacity="0.06"/>
</radialGradient>
<linearGradient id="paint1_linear_101_1550" x1="345.619" y1="168.957" x2="303.482" y2="403.482" gradientUnits="userSpaceOnUse">
<stop stop-color="#151515"/>
<stop offset="1" stop-color="#141414"/>
</linearGradient>
<linearGradient id="paint2_linear_101_1550" x1="378.74" y1="220.127" x2="264.448" y2="350.76" gradientUnits="userSpaceOnUse">
<stop stop-color="#319F6E"/>
<stop offset="0.54499" stop-color="white" stop-opacity="0.58"/>
<stop offset="1" stop-color="#B4B4B4" stop-opacity="0"/>
</linearGradient>
<radialGradient id="paint3_radial_101_1550" cx="0" cy="0" r="1" gradientUnits="userSpaceOnUse" gradientTransform="translate(220.456 204.992) rotate(180) scale(115.104 30.1263)">
<stop stop-color="#3ECF8E"/>
<stop offset="1" stop-color="#4B4B4B"/>
</radialGradient>
<clipPath id="clip0_101_1550">
<rect width="618" height="430" fill="white" transform="translate(0.106445 0.40625)"/>
</clipPath>
</defs>
</svg>
