<svg width="619" height="431" viewBox="0 0 619 431" fill="none" xmlns="http://www.w3.org/2000/svg">
<g clip-path="url(#clip0_101_1524)">
<rect width="618" height="430" transform="translate(0.753906 0.40625)" fill="#171717"/>
<path d="M1.23652 88.8458L62.7707 150.604H186.805L229.434 193.389L267.859 146.102C288.208 120.382 329.465 134.475 329.955 167.313L329.957 167.423L330.208 205.755H386.254C422.861 205.755 443.274 248.19 420.514 276.961L341.867 376.373C321.523 402.086 280.262 388.006 279.772 355.162L279.198 316.719H223.473C214.971 316.719 207.343 314.431 200.926 310.556M91.5841 160.651H180.651L223.473 202.836L189.213 245.513C178.008 259.676 177.266 277.15 183.767 291.243L135.638 339.548H86.286L41.9525 384.043M223.106 329.306H266.539L266.928 355.276C267.597 399.953 323.92 419.096 351.686 384.126L391.11 334.47L488.899 432.267H531.925L629.683 530.034M257.721 138.389C285.495 103.406 341.81 122.575 342.48 167.239L342.48 167.241L342.482 167.403L342.651 193.209H430.533L504.225 119.511H547.518L633.707 33.3149M178.874 237.7L206.775 203.41L174.312 170.944H136.988M342.985 166.886L342.985 166.889M386.761 180.226H355.683L355.595 166.916L355.592 166.726L355.592 166.724L355.592 166.711L355.592 166.702L355.592 166.697C354.746 110.207 283.555 85.9625 248.443 130.209M362.056 391.492C326.958 435.717 255.754 411.516 254.908 355.003L254.705 341.475H223.739C207.881 341.475 193.948 336.443 182.822 328.206M635.244 132.909H509.254L438.604 203.6C459.086 227.129 463.308 263.898 440.819 292.238L413.484 327.449L422.756 336.727H503.681L532.047 365.109M39.7987 164.41L63.8384 188.464H144.648L177.25 221.084L169.681 229.462C156.135 246.531 152.28 266.657 155.83 285.106L128.301 312.65H76.5031M354.855 167.019L354.855 167.043L354.858 167.232M371.183 399.093C328.753 452.462 242.659 423.269 241.636 355.055L241.619 353.956H223.085C201.01 353.956 182.092 345.721 168.033 332.772M629.075 142.631H515.815L454.009 204.362C472.171 231.921 473.791 270.018 449.896 300.078L458.577 308.748H540.417M565.112 31.7578L449.896 146.836H407.118L386.004 167.925H367.463L367.457 167.097L367.454 166.881L367.454 166.867L367.454 166.855L367.453 166.848V166.843L367.453 166.842L367.453 166.834L367.453 166.825C366.43 98.6475 280.357 69.3872 237.906 122.788L209.285 158.212L190.002 138.952H96.9576M-15.7344 284.002L68.9957 199.374H136.739L159.194 221.802C144.276 240.567 139.302 262.463 142.088 282.971M476.361 300.178H547.894L587.428 338.743M123.099 303.265H67.5653M423.186 294.004L397.682 326.762L415.903 345.551H499.745L558.113 403.529M130.814 327.952L169.379 289.387M317.313 167.546L317.312 167.492C317.003 146.951 291.005 138.136 278.183 154.224L199.278 253.231C183.202 273.402 197.621 303.149 223.473 303.149H292.184L292.951 354.188C293.26 374.731 319.259 383.542 332.08 367.456L410.985 268.449C427.059 248.279 412.642 218.531 386.79 218.531H317.649L317.313 167.546ZM391.663 180.255C391.663 181.565 390.601 182.627 389.291 182.627C387.981 182.627 386.919 181.565 386.919 180.255C386.919 178.945 387.981 177.883 389.291 177.883C390.601 177.883 391.663 178.945 391.663 180.255ZM426.755 292.661C426.755 293.971 425.693 295.033 424.383 295.033C423.073 295.033 422.011 293.971 422.011 292.661C422.011 291.351 423.073 290.289 424.383 290.289C425.693 290.289 426.755 291.351 426.755 292.661ZM365.982 389.739C365.982 391.049 364.92 392.111 363.61 392.111C362.3 392.111 361.238 391.049 361.238 389.739C361.238 388.429 362.3 387.367 363.61 387.367C364.92 387.367 365.982 388.429 365.982 389.739ZM374.865 397.146C374.865 398.456 373.803 399.518 372.493 399.518C371.183 399.518 370.121 398.456 370.121 397.146C370.121 395.835 371.183 394.773 372.493 394.773C373.803 394.773 374.865 395.835 374.865 397.146ZM536.13 366.356C536.13 367.667 535.068 368.729 533.758 368.729C532.448 368.729 531.386 367.667 531.386 366.356C531.386 365.046 532.448 363.984 533.758 363.984C535.068 363.984 536.13 365.046 536.13 366.356ZM544.912 308.685C544.912 309.995 543.85 311.057 542.54 311.057C541.23 311.057 540.168 309.995 540.168 308.685C540.168 307.375 541.23 306.312 542.54 306.312C543.85 306.312 544.912 307.375 544.912 308.685ZM591.459 340.591C591.459 341.901 590.397 342.963 589.087 342.963C587.777 342.963 586.715 341.901 586.715 340.591C586.715 339.281 587.777 338.219 589.087 338.219C590.397 338.219 591.459 339.281 591.459 340.591ZM562.06 404.997C562.06 406.307 560.998 407.369 559.688 407.369C558.377 407.369 557.315 406.307 557.315 404.997C557.315 403.687 558.377 402.625 559.688 402.625C560.998 402.625 562.06 403.687 562.06 404.997ZM222.98 329.263C222.98 330.573 221.918 331.635 220.608 331.635C219.298 331.635 218.236 330.573 218.236 329.263C218.236 327.953 219.298 326.891 220.608 326.891C221.918 326.891 222.98 327.953 222.98 329.263ZM201.57 309.122C201.57 310.432 200.508 311.494 199.198 311.494C197.888 311.494 196.826 310.432 196.826 309.122C196.826 307.812 197.888 306.75 199.198 306.75C200.508 306.75 201.57 307.812 201.57 309.122ZM183.349 326.888C183.349 328.198 182.287 329.26 180.977 329.26C179.667 329.26 178.604 328.198 178.604 326.888C178.604 325.578 179.667 324.516 180.977 324.516C182.287 324.516 183.349 325.578 183.349 326.888ZM168.836 331.63C168.836 332.94 167.774 334.002 166.464 334.002C165.154 334.002 164.092 332.94 164.092 331.63C164.092 330.32 165.154 329.258 166.464 329.258C167.774 329.258 168.836 330.32 168.836 331.63ZM179.729 238.935C179.729 240.245 178.667 241.307 177.356 241.307C176.046 241.307 174.984 240.245 174.984 238.935C174.984 237.625 176.046 236.562 177.356 236.562C178.667 236.562 179.729 237.625 179.729 238.935ZM173.4 287.56C173.4 288.87 172.338 289.932 171.028 289.932C169.718 289.932 168.656 288.87 168.656 287.56C168.656 286.25 169.718 285.188 171.028 285.188C172.338 285.188 173.4 286.25 173.4 287.56ZM132.036 329.263C132.036 330.573 130.974 331.635 129.664 331.635C128.354 331.635 127.292 330.573 127.292 329.263C127.292 327.953 128.354 326.891 129.664 326.891C130.974 326.891 132.036 327.953 132.036 329.263ZM144.618 285.185C144.618 286.495 143.556 287.557 142.246 287.557C140.936 287.557 139.874 286.495 139.874 285.185C139.874 283.875 140.936 282.812 142.246 282.812C143.556 282.812 144.618 283.875 144.618 285.185ZM127.292 303.2C127.292 304.51 126.23 305.572 124.92 305.572C123.61 305.572 122.548 304.51 122.548 303.2C122.548 301.89 123.61 300.828 124.92 300.828C126.23 300.828 127.292 301.89 127.292 303.2ZM67.9258 303.2C67.9258 304.51 66.8638 305.572 65.5537 305.572C64.2437 305.572 63.1816 304.51 63.1816 303.2C63.1816 301.89 64.2437 300.828 65.5537 300.828C66.8638 300.828 67.9258 301.89 67.9258 303.2ZM76.7994 312.852C76.7994 314.162 75.7374 315.224 74.4273 315.224C73.1173 315.224 72.0553 314.162 72.0553 312.852C72.0553 311.542 73.1173 310.48 74.4273 310.48C75.7374 310.48 76.7994 311.542 76.7994 312.852ZM137.356 170.825C137.356 172.135 136.294 173.197 134.984 173.197C133.674 173.197 132.612 172.135 132.612 170.825C132.612 169.515 133.674 168.453 134.984 168.453C136.294 168.453 137.356 169.515 137.356 170.825ZM91.9863 160.396C91.9863 161.706 90.9243 162.768 89.6143 162.768C88.3042 162.768 87.2422 161.706 87.2422 160.396C87.2422 159.085 88.3042 158.023 89.6143 158.023C90.9243 158.023 91.9863 159.085 91.9863 160.396ZM96.7305 139.815C96.7305 141.125 95.6685 142.188 94.3584 142.188C93.0483 142.188 91.9863 141.125 91.9863 139.815C91.9863 138.505 93.0483 137.443 94.3584 137.443C95.6685 137.443 96.7305 138.505 96.7305 139.815ZM40.998 162.763C40.998 164.073 39.936 165.135 38.626 165.135C37.3159 165.135 36.2539 164.073 36.2539 162.763C36.2539 161.453 37.3159 160.391 38.626 160.391C39.936 160.391 40.998 161.453 40.998 162.763ZM249.385 131.708C249.385 133.018 248.323 134.08 247.013 134.08C245.703 134.08 244.641 133.018 244.641 131.708C244.641 130.398 245.703 129.336 247.013 129.336C248.323 129.336 249.385 130.398 249.385 131.708ZM258.83 139.821C258.83 141.131 257.768 142.193 256.458 142.193C255.148 142.193 254.086 141.131 254.086 139.821C254.086 138.511 255.148 137.449 256.458 137.449C257.768 137.449 258.83 138.511 258.83 139.821Z" stroke="url(#paint0_radial_101_1524)"/>
<g filter="url(#filter0_d_101_1524)">
<mask id="path-2-outside-1_101_1524" maskUnits="userSpaceOnUse" x="203.717" y="157.232" width="202" height="208" fill="black">
<rect fill="white" x="203.717" y="157.232" width="202" height="208"/>
<path fill-rule="evenodd" clip-rule="evenodd" d="M304.191 168.037C304.066 159.654 293.496 156.057 288.284 162.622L209.62 261.694C200.335 273.388 208.663 290.633 223.594 290.633H304.856L305.812 354.47C305.938 362.852 316.507 366.449 321.72 359.884L400.383 260.812C409.668 249.119 401.34 231.873 386.409 231.873H304.611L304.191 168.037Z"/>
</mask>
<path fill-rule="evenodd" clip-rule="evenodd" d="M304.191 168.037C304.066 159.654 293.496 156.057 288.284 162.622L209.62 261.694C200.335 273.388 208.663 290.633 223.594 290.633H304.856L305.812 354.47C305.938 362.852 316.507 366.449 321.72 359.884L400.383 260.812C409.668 249.119 401.34 231.873 386.409 231.873H304.611L304.191 168.037Z" fill="url(#paint1_linear_101_1524)" fill-opacity="0.1" shape-rendering="crispEdges"/>
<path d="M288.284 162.622L289.135 163.299L289.135 163.299L288.284 162.622ZM304.191 168.037L305.279 168.029L305.279 168.02L304.191 168.037ZM209.62 261.694L210.471 262.37L210.471 262.37L209.62 261.694ZM304.856 290.633L305.943 290.617L304.856 289.546V290.633ZM305.812 354.47L304.725 354.486L304.725 354.486L305.812 354.47ZM321.72 359.884L322.571 360.56L322.571 360.56L321.72 359.884ZM400.383 260.812L401.235 261.489L401.235 261.488L400.383 260.812ZM304.611 231.873L303.523 231.881L304.611 232.961V231.873ZM289.135 163.299C293.713 157.533 302.994 160.692 303.104 168.053L305.279 168.02C305.138 158.617 293.28 154.581 287.432 161.946L289.135 163.299ZM210.471 262.37L289.135 163.299L287.432 161.946L208.768 261.018L210.471 262.37ZM223.594 289.546C209.573 289.546 201.752 273.351 210.471 262.37L208.768 261.018C198.918 273.424 207.753 291.72 223.594 291.72V289.546ZM304.856 289.546H223.594V291.72H304.856V289.546ZM306.899 354.454L305.943 290.617L303.769 290.649L304.725 354.486L306.899 354.454ZM320.868 359.208C316.291 364.973 307.01 361.814 306.899 354.454L304.725 354.486C304.866 363.89 316.723 367.925 322.571 360.56L320.868 359.208ZM399.532 260.136L320.868 359.208L322.571 360.56L401.235 261.489L399.532 260.136ZM386.409 232.961C400.43 232.961 408.25 249.155 399.532 260.136L401.235 261.488C411.085 249.082 402.25 230.786 386.409 230.786V232.961ZM304.611 232.961H386.409V230.786H304.611V232.961ZM303.104 168.044L303.523 231.881L305.698 231.866L305.279 168.029L303.104 168.044Z" fill="url(#paint2_linear_101_1524)" mask="url(#path-2-outside-1_101_1524)"/>
</g>
<g filter="url(#filter1_f_101_1524)">
<path d="M288.283 162.625L288.675 162.936L288.675 162.936L288.283 162.625ZM304.191 168.039L304.691 168.036L304.691 168.031L304.191 168.039ZM209.619 261.696L210.011 262.007L210.011 262.007L209.619 261.696ZM304.855 290.635L305.355 290.628L304.855 290.135V290.635ZM305.812 354.472L305.312 354.48L305.312 354.48L305.812 354.472ZM321.719 359.887L322.111 360.198L322.111 360.198L321.719 359.887ZM400.383 260.815L400.774 261.126L400.774 261.126L400.383 260.815ZM304.61 231.876L304.11 231.879L304.61 232.376V231.876ZM288.675 162.936C293.595 156.738 303.572 160.134 303.691 168.046L304.691 168.031C304.558 159.18 293.396 155.381 287.891 162.314L288.675 162.936ZM210.011 262.007L288.675 162.936L287.891 162.314L209.228 261.385L210.011 262.007ZM223.594 290.135C209.081 290.135 200.986 273.373 210.011 262.007L209.228 261.385C199.683 273.407 208.244 291.135 223.594 291.135V290.135ZM304.855 290.135H223.594V291.135H304.855V290.135ZM306.312 354.465L305.355 290.628L304.355 290.643L305.312 354.48L306.312 354.465ZM321.328 359.576C316.407 365.772 306.43 362.377 306.312 354.465L305.312 354.48C305.444 363.332 316.606 367.13 322.111 360.198L321.328 359.576ZM399.991 260.504L321.328 359.576L322.111 360.198L400.774 261.126L399.991 260.504ZM386.409 232.376C400.921 232.376 409.015 249.138 399.991 260.504L400.774 261.126C410.319 249.104 401.758 231.376 386.409 231.376V232.376ZM304.61 232.376H386.409V231.376H304.61V232.376ZM303.691 168.042L304.11 231.879L305.11 231.873L304.691 168.036L303.691 168.042Z" fill="url(#paint3_radial_101_1524)"/>
</g>
<g filter="url(#filter2_f_101_1524)">
<ellipse cx="304.036" cy="9.87891" rx="335.056" ry="148.145" fill="#171717"/>
</g>
<g style="mix-blend-mode:overlay" opacity="0.2" filter="url(#filter3_f_101_1524)">
<ellipse cx="524.544" cy="27.858" rx="285.217" ry="111.346" transform="rotate(-41.679 524.544 27.858)" fill="#DDFFF0"/>
</g>
<g filter="url(#filter4_f_101_1524)">
<ellipse cx="165.574" cy="379.918" rx="329.081" ry="119.051" fill="#171717"/>
</g>
</g>
<defs>
<filter id="filter0_d_101_1524" x="199.39" y="158.143" width="211.223" height="216.697" filterUnits="userSpaceOnUse" color-interpolation-filters="sRGB">
<feFlood flood-opacity="0" result="BackgroundImageFix"/>
<feColorMatrix in="SourceAlpha" type="matrix" values="0 0 0 0 0 0 0 0 0 0 0 0 0 0 0 0 0 0 127 0" result="hardAlpha"/>
<feOffset dy="5.238"/>
<feGaussianBlur stdDeviation="2.619"/>
<feComposite in2="hardAlpha" operator="out"/>
<feColorMatrix type="matrix" values="0 0 0 0 0 0 0 0 0 0 0 0 0 0 0 0 0 0 0.25 0"/>
<feBlend mode="normal" in2="BackgroundImageFix" result="effect1_dropShadow_101_1524"/>
<feBlend mode="normal" in="SourceGraphic" in2="effect1_dropShadow_101_1524" result="shape"/>
</filter>
<filter id="filter1_f_101_1524" x="201.216" y="154.733" width="207.57" height="213.044" filterUnits="userSpaceOnUse" color-interpolation-filters="sRGB">
<feFlood flood-opacity="0" result="BackgroundImageFix"/>
<feBlend mode="normal" in="SourceGraphic" in2="BackgroundImageFix" result="shape"/>
<feGaussianBlur stdDeviation="2" result="effect1_foregroundBlur_101_1524"/>
</filter>
<filter id="filter2_f_101_1524" x="-83.0195" y="-190.266" width="774.111" height="400.289" filterUnits="userSpaceOnUse" color-interpolation-filters="sRGB">
<feFlood flood-opacity="0" result="BackgroundImageFix"/>
<feBlend mode="normal" in="SourceGraphic" in2="BackgroundImageFix" result="shape"/>
<feGaussianBlur stdDeviation="26" result="effect1_foregroundBlur_101_1524"/>
</filter>
<filter id="filter3_f_101_1524" x="198.959" y="-279.283" width="651.17" height="614.282" filterUnits="userSpaceOnUse" color-interpolation-filters="sRGB">
<feFlood flood-opacity="0" result="BackgroundImageFix"/>
<feBlend mode="normal" in="SourceGraphic" in2="BackgroundImageFix" result="shape"/>
<feGaussianBlur stdDeviation="50" result="effect1_foregroundBlur_101_1524"/>
</filter>
<filter id="filter4_f_101_1524" x="-279.507" y="144.867" width="890.162" height="470.102" filterUnits="userSpaceOnUse" color-interpolation-filters="sRGB">
<feFlood flood-opacity="0" result="BackgroundImageFix"/>
<feBlend mode="normal" in="SourceGraphic" in2="BackgroundImageFix" result="shape"/>
<feGaussianBlur stdDeviation="58" result="effect1_foregroundBlur_101_1524"/>
</filter>
<radialGradient id="paint0_radial_101_1524" cx="0" cy="0" r="1" gradientUnits="userSpaceOnUse" gradientTransform="translate(309.755 261.597) rotate(180) scale(236.804 133.798)">
<stop stop-color="#A39F9F" stop-opacity="0.52"/>
<stop offset="1" stop-color="#939191" stop-opacity="0.06"/>
</radialGradient>
<linearGradient id="paint1_linear_101_1524" x1="346.267" y1="168.957" x2="304.129" y2="403.482" gradientUnits="userSpaceOnUse">
<stop stop-color="#151515"/>
<stop offset="1" stop-color="#141414"/>
</linearGradient>
<linearGradient id="paint2_linear_101_1524" x1="379.387" y1="220.127" x2="265.096" y2="350.76" gradientUnits="userSpaceOnUse">
<stop stop-color="#395649"/>
<stop offset="0.54499" stop-color="white" stop-opacity="0.58"/>
<stop offset="1" stop-color="#B4B4B4" stop-opacity="0"/>
</linearGradient>
<radialGradient id="paint3_radial_101_1524" cx="0" cy="0" r="1" gradientUnits="userSpaceOnUse" gradientTransform="translate(221.104 204.992) rotate(180) scale(115.104 30.1263)">
<stop stop-color="#F3F3F3"/>
<stop offset="1" stop-color="#4B4B4B"/>
</radialGradient>
<clipPath id="clip0_101_1524">
<rect width="618" height="430" fill="white" transform="translate(0.753906 0.40625)"/>
</clipPath>
</defs>
</svg>
