<svg width="1337" height="733" viewBox="0 0 1337 733" fill="none" xmlns="http://www.w3.org/2000/svg">
<g clip-path="url(#clip0_232_166174)">
<g filter="url(#filter0_f_232_166174)">
<rect x="668.175" y="325.799" width="1.46487" height="226.322" fill="url(#paint0_linear_232_166174)"/>
</g>
<g filter="url(#filter1_f_232_166174)">
<path fill-rule="evenodd" clip-rule="evenodd" d="M668.613 358.064C668.587 347.594 668.559 336.832 668.559 325.799C668.559 334.945 668.544 343.905 668.53 352.666C668.501 369.619 668.474 385.829 668.559 401.211V415.01C667.724 512.563 660.866 573.362 615.439 573.362H668.559H722.375C676.117 573.362 669.434 509.759 668.607 408.28C668.7 392.433 668.657 375.661 668.613 358.064Z" fill="url(#paint1_linear_232_166174)"/>
</g>
<g filter="url(#filter2_f_232_166174)">
<path fill-rule="evenodd" clip-rule="evenodd" d="M668.213 356.346C668.151 346.434 668.087 336.245 668.087 325.799C668.087 334.458 668.051 342.941 668.017 351.235C667.949 367.286 667.885 382.632 668.087 397.195V410.259C666.118 502.617 649.959 560.178 542.928 560.178H668.087H794.885C685.895 560.178 670.147 499.962 668.2 403.888C668.418 388.884 668.318 373.006 668.213 356.346Z" fill="#1CF7C3"/>
</g>
<g filter="url(#filter3_f_232_166174)">
<path fill-rule="evenodd" clip-rule="evenodd" d="M668.537 356.346C668.503 346.434 668.469 336.245 668.469 325.799C668.469 334.458 668.45 342.941 668.431 351.235C668.396 367.286 668.361 382.632 668.469 397.195V410.259C667.416 502.617 658.773 560.178 601.523 560.178H668.469H736.291C677.994 560.178 669.571 499.962 668.53 403.888C668.646 388.884 668.593 373.006 668.537 356.346Z" fill="#EFF9F7"/>
</g>
<g filter="url(#filter4_f_232_166174)">
<path fill-rule="evenodd" clip-rule="evenodd" d="M668.847 355.296C668.842 345.724 668.836 335.886 668.836 325.799C668.836 334.16 668.833 342.351 668.83 350.361C668.824 365.859 668.818 380.679 668.836 394.741V407.356C668.664 496.539 667.255 552.121 657.921 552.121H668.836H679.894C670.389 552.121 669.016 493.975 668.846 401.203C668.865 386.715 668.856 371.383 668.847 355.296Z" fill="white"/>
</g>
<g filter="url(#filter5_f_232_166174)">
<ellipse cx="668.542" cy="547.727" rx="14.6487" ry="28.1987" transform="rotate(90 668.542 547.727)" fill="#FCFCFC"/>
</g>
<path opacity="0.11" d="M567.005 540.873C567.174 540.761 567.223 540.532 567.114 540.361C567.006 540.191 566.781 540.143 566.612 540.255C566.443 540.366 566.394 540.595 566.502 540.766C566.611 540.937 566.836 540.985 567.005 540.873Z" fill="#A6C9D4"/>
<path d="M569.419 542.115C569.588 542.003 569.637 541.774 569.528 541.604C569.42 541.433 569.195 541.385 569.026 541.497C568.857 541.609 568.808 541.838 568.917 542.008C569.025 542.179 569.25 542.227 569.419 542.115Z" fill="#A6C9D4"/>
<path d="M572.588 535.049C572.757 534.937 572.806 534.708 572.697 534.537C572.589 534.366 572.364 534.319 572.195 534.43C572.026 534.542 571.977 534.771 572.085 534.942C572.194 535.113 572.419 535.16 572.588 535.049Z" fill="#A6C9D4"/>
<path d="M558.483 543.904C558.652 543.792 558.701 543.563 558.592 543.393C558.483 543.222 558.258 543.174 558.089 543.286C557.92 543.398 557.871 543.627 557.98 543.797C558.089 543.968 558.314 544.016 558.483 543.904Z" fill="#A6C9D4"/>
<path opacity="0.11" d="M552.748 553.144C552.917 553.033 552.966 552.804 552.858 552.633C552.749 552.462 552.524 552.414 552.355 552.526C552.186 552.638 552.137 552.867 552.246 553.038C552.354 553.208 552.579 553.256 552.748 553.144Z" fill="#A6C9D4"/>
<path d="M613.414 544.224C613.499 544.168 613.523 544.053 613.469 543.968C613.415 543.883 613.302 543.859 613.217 543.914C613.133 543.97 613.109 544.085 613.163 544.17C613.217 544.256 613.33 544.28 613.414 544.224Z" fill="#A6C9D4"/>
<path d="M571.026 547.92C571.195 547.808 571.244 547.579 571.135 547.408C571.026 547.238 570.801 547.19 570.632 547.302C570.463 547.413 570.414 547.642 570.523 547.813C570.632 547.984 570.857 548.032 571.026 547.92Z" fill="#A6C9D4"/>
<path d="M606.657 524.351C606.826 524.24 606.874 524.011 606.766 523.84C606.657 523.669 606.432 523.621 606.263 523.733C606.094 523.845 606.045 524.074 606.154 524.245C606.263 524.415 606.488 524.463 606.657 524.351Z" fill="#A6C9D4"/>
<path d="M618.742 503.572C618.911 503.46 618.959 503.231 618.851 503.061C618.742 502.89 618.517 502.842 618.348 502.954C618.179 503.066 618.13 503.295 618.239 503.465C618.347 503.636 618.573 503.684 618.742 503.572Z" fill="#A6C9D4"/>
<path d="M632.86 511.515C633.029 511.404 633.078 511.175 632.969 511.004C632.86 510.833 632.635 510.785 632.466 510.897C632.297 511.009 632.248 511.238 632.357 511.409C632.466 511.579 632.691 511.627 632.86 511.515Z" fill="#A6C9D4"/>
<path opacity="0.11" d="M547.594 554.894C547.763 554.783 547.812 554.554 547.703 554.383C547.595 554.212 547.369 554.164 547.2 554.276C547.032 554.388 546.983 554.617 547.091 554.788C547.2 554.958 547.425 555.006 547.594 554.894Z" fill="#A6C9D4"/>
<path opacity="0.11" d="M574.518 554.135C574.687 554.023 574.736 553.794 574.627 553.623C574.518 553.452 574.293 553.405 574.124 553.516C573.955 553.628 573.906 553.857 574.015 554.028C574.124 554.199 574.349 554.246 574.518 554.135Z" fill="#A6C9D4"/>
<path opacity="0.11" d="M604.836 531.707C605.005 531.595 605.054 531.366 604.945 531.195C604.837 531.025 604.612 530.977 604.443 531.089C604.274 531.2 604.225 531.429 604.334 531.6C604.442 531.771 604.667 531.819 604.836 531.707Z" fill="#A6C9D4"/>
<path d="M616.406 529.222C616.49 529.166 616.515 529.051 616.46 528.966C616.406 528.881 616.293 528.857 616.209 528.912C616.124 528.968 616.1 529.083 616.154 529.168C616.209 529.254 616.321 529.278 616.406 529.222Z" fill="#A6C9D4"/>
<path d="M575.635 519.773C575.804 519.662 575.853 519.433 575.744 519.262C575.636 519.091 575.41 519.043 575.241 519.155C575.073 519.267 575.024 519.496 575.132 519.667C575.241 519.837 575.466 519.885 575.635 519.773Z" fill="#A6C9D4"/>
<path d="M549.323 559.435C549.492 559.324 549.54 559.095 549.432 558.924C549.323 558.753 549.098 558.705 548.929 558.817C548.76 558.929 548.711 559.158 548.82 559.329C548.929 559.499 549.154 559.547 549.323 559.435Z" fill="#A6C9D4"/>
<path opacity="0.3" d="M556.167 538.808C556.336 538.697 556.385 538.468 556.276 538.297C556.168 538.126 555.943 538.078 555.774 538.19C555.605 538.302 555.556 538.531 555.665 538.702C555.773 538.872 555.998 538.92 556.167 538.808Z" fill="#A6C9D4"/>
<path opacity="0.3" d="M554.118 560.764C554.286 560.652 554.335 560.423 554.227 560.252C554.118 560.081 553.893 560.033 553.724 560.145C553.555 560.257 553.506 560.486 553.615 560.657C553.723 560.828 553.949 560.875 554.118 560.764Z" fill="#A6C9D4"/>
<path opacity="0.3" d="M624.896 499.736C625.065 499.624 625.114 499.395 625.005 499.225C624.896 499.054 624.671 499.006 624.502 499.118C624.333 499.23 624.284 499.459 624.393 499.629C624.502 499.8 624.727 499.848 624.896 499.736Z" fill="#A6C9D4"/>
<path opacity="0.11" d="M594.232 510.31C594.401 510.199 594.45 509.97 594.341 509.799C594.232 509.628 594.007 509.58 593.838 509.692C593.669 509.804 593.62 510.033 593.729 510.204C593.838 510.374 594.063 510.422 594.232 510.31Z" fill="#A6C9D4"/>
<path opacity="0.11" d="M625.043 509.82C625.212 509.708 625.261 509.479 625.152 509.309C625.044 509.138 624.819 509.09 624.65 509.202C624.481 509.314 624.432 509.543 624.541 509.713C624.649 509.884 624.874 509.932 625.043 509.82Z" fill="#A6C9D4"/>
<path opacity="0.3" d="M584.273 538.445C584.442 538.333 584.491 538.104 584.382 537.934C584.273 537.763 584.048 537.715 583.879 537.827C583.71 537.939 583.661 538.168 583.77 538.338C583.879 538.509 584.104 538.557 584.273 538.445Z" fill="#A6C9D4"/>
<path opacity="0.11" d="M590.735 527.07C590.904 526.958 590.953 526.729 590.844 526.559C590.735 526.388 590.51 526.34 590.341 526.452C590.172 526.564 590.123 526.793 590.232 526.963C590.341 527.134 590.566 527.182 590.735 527.07Z" fill="#A6C9D4"/>
<path d="M587.129 521.404C587.298 521.292 587.347 521.063 587.238 520.893C587.13 520.722 586.905 520.674 586.736 520.786C586.567 520.898 586.518 521.127 586.626 521.297C586.735 521.468 586.96 521.516 587.129 521.404Z" fill="#A6C9D4"/>
<path d="M586.989 546.359C587.158 546.247 587.206 546.018 587.098 545.848C586.989 545.677 586.764 545.629 586.595 545.741C586.426 545.853 586.377 546.082 586.486 546.252C586.595 546.423 586.82 546.471 586.989 546.359Z" fill="#A6C9D4"/>
<path d="M643.37 513.795C643.539 513.683 643.588 513.454 643.48 513.283C643.371 513.113 643.146 513.065 642.977 513.177C642.808 513.288 642.759 513.517 642.868 513.688C642.976 513.859 643.202 513.907 643.37 513.795Z" fill="#A6C9D4"/>
<path d="M602.042 536.406C601.908 536.557 601.92 536.791 602.07 536.928C602.219 537.065 602.448 537.053 602.582 536.902C602.716 536.75 602.704 536.516 602.555 536.379C602.406 536.242 602.176 536.254 602.042 536.406Z" fill="#A6C9D4"/>
<path d="M581.406 529.928C581.575 529.816 581.623 529.587 581.515 529.416C581.406 529.245 581.181 529.198 581.012 529.309C580.843 529.421 580.794 529.65 580.903 529.821C581.012 529.992 581.237 530.039 581.406 529.928Z" fill="#A6C9D4"/>
<path d="M560.814 561.064C560.983 560.953 561.032 560.724 560.923 560.553C560.814 560.382 560.589 560.334 560.42 560.446C560.251 560.558 560.202 560.787 560.311 560.958C560.42 561.128 560.645 561.176 560.814 561.064Z" fill="#A6C9D4"/>
<path d="M606.563 540.984C606.732 540.872 606.781 540.643 606.672 540.473C606.563 540.302 606.338 540.254 606.169 540.366C606 540.478 605.951 540.707 606.06 540.878C606.169 541.048 606.394 541.096 606.563 540.984Z" fill="#A6C9D4"/>
<path d="M642.661 501.004C642.83 500.892 642.879 500.663 642.771 500.492C642.662 500.322 642.437 500.274 642.268 500.386C642.099 500.497 642.05 500.726 642.159 500.897C642.267 501.068 642.493 501.116 642.661 501.004Z" fill="#A6C9D4"/>
<path d="M577.343 520.007C577.209 520.159 577.221 520.393 577.37 520.53C577.519 520.667 577.749 520.655 577.883 520.503C578.017 520.351 578.005 520.117 577.856 519.98C577.707 519.843 577.477 519.855 577.343 520.007Z" fill="#A6C9D4"/>
<path d="M640.749 489.248C640.918 489.136 640.967 488.907 640.858 488.736C640.75 488.566 640.525 488.518 640.356 488.63C640.187 488.741 640.138 488.97 640.247 489.141C640.355 489.312 640.58 489.36 640.749 489.248Z" fill="#A6C9D4"/>
<path d="M582.174 530.857C582.04 531.008 582.052 531.242 582.201 531.379C582.351 531.516 582.58 531.505 582.714 531.353C582.848 531.201 582.836 530.967 582.687 530.83C582.538 530.693 582.308 530.705 582.174 530.857Z" fill="#A6C9D4"/>
<path opacity="0.3" d="M600.531 512.537C600.7 512.425 600.748 512.196 600.64 512.025C600.531 511.855 600.306 511.807 600.137 511.919C599.968 512.03 599.919 512.259 600.028 512.43C600.137 512.601 600.362 512.649 600.531 512.537Z" fill="#A6C9D4"/>
<path d="M583.802 500.713C583.971 500.601 584.02 500.372 583.911 500.201C583.803 500.031 583.577 499.983 583.408 500.094C583.24 500.206 583.191 500.435 583.299 500.606C583.408 500.777 583.633 500.825 583.802 500.713Z" fill="#A6C9D4"/>
<path d="M611.469 510.75C611.638 510.638 611.687 510.409 611.578 510.238C611.47 510.068 611.244 510.02 611.075 510.132C610.907 510.243 610.858 510.472 610.966 510.643C611.075 510.814 611.3 510.862 611.469 510.75Z" fill="#A6C9D4"/>
<path opacity="0.3" d="M615.071 498.896C615.24 498.785 615.288 498.556 615.18 498.385C615.071 498.214 614.846 498.166 614.677 498.278C614.508 498.39 614.459 498.619 614.568 498.79C614.677 498.96 614.902 499.008 615.071 498.896Z" fill="#A6C9D4"/>
<path opacity="0.3" d="M638.783 500.019C638.952 499.908 639 499.679 638.892 499.508C638.783 499.337 638.558 499.289 638.389 499.401C638.22 499.513 638.171 499.742 638.28 499.913C638.389 500.083 638.614 500.131 638.783 500.019Z" fill="#A6C9D4"/>
<path opacity="0.3" d="M581.338 519.935C581.204 520.087 581.216 520.321 581.365 520.458C581.515 520.595 581.744 520.583 581.878 520.431C582.012 520.279 582 520.045 581.851 519.908C581.702 519.771 581.472 519.783 581.338 519.935Z" fill="#A6C9D4"/>
<path opacity="0.3" d="M619.871 513.002C620.04 512.89 620.089 512.661 619.981 512.49C619.872 512.32 619.647 512.272 619.478 512.384C619.309 512.495 619.26 512.724 619.369 512.895C619.477 513.066 619.702 513.114 619.871 513.002Z" fill="#A6C9D4"/>
<path opacity="0.11" d="M628.9 499.453C629.069 499.341 629.118 499.112 629.009 498.941C628.9 498.771 628.675 498.723 628.506 498.835C628.337 498.946 628.288 499.176 628.397 499.346C628.506 499.517 628.731 499.565 628.9 499.453Z" fill="#A6C9D4"/>
<path opacity="0.11" d="M669.565 510.127C669.734 510.015 669.783 509.786 669.674 509.615C669.565 509.445 669.34 509.397 669.171 509.509C669.002 509.62 668.953 509.849 669.062 510.02C669.171 510.191 669.396 510.239 669.565 510.127Z" fill="#A6C9D4"/>
<path opacity="0.11" d="M615.429 533.033C615.349 533.124 615.356 533.265 615.446 533.347C615.535 533.429 615.673 533.422 615.754 533.331C615.834 533.24 615.827 533.099 615.737 533.017C615.648 532.935 615.51 532.942 615.429 533.033Z" fill="#A6C9D4"/>
<path d="M671.98 511.367C672.149 511.255 672.198 511.026 672.089 510.856C671.98 510.685 671.755 510.637 671.586 510.749C671.417 510.861 671.368 511.09 671.477 511.26C671.586 511.431 671.811 511.479 671.98 511.367Z" fill="#A6C9D4"/>
<path d="M612.781 532.469C612.7 532.56 612.708 532.7 612.797 532.783C612.887 532.865 613.025 532.858 613.105 532.766C613.186 532.675 613.178 532.535 613.089 532.453C612.999 532.37 612.862 532.378 612.781 532.469Z" fill="#A6C9D4"/>
<path d="M661.042 513.16C661.211 513.048 661.26 512.819 661.151 512.649C661.043 512.478 660.818 512.43 660.649 512.542C660.48 512.654 660.431 512.883 660.54 513.053C660.648 513.224 660.873 513.272 661.042 513.16Z" fill="#A6C9D4"/>
<path d="M622.891 527.853C622.811 527.945 622.818 528.085 622.908 528.167C622.997 528.25 623.135 528.242 623.216 528.151C623.296 528.06 623.289 527.92 623.199 527.837C623.11 527.755 622.972 527.762 622.891 527.853Z" fill="#A6C9D4"/>
<path opacity="0.11" d="M655.308 522.394C655.477 522.283 655.526 522.054 655.417 521.883C655.308 521.712 655.083 521.664 654.914 521.776C654.745 521.888 654.697 522.117 654.805 522.288C654.914 522.458 655.139 522.506 655.308 522.394Z" fill="#A6C9D4"/>
<path opacity="0.11" d="M626.084 517.422C626.003 517.513 626.011 517.653 626.1 517.736C626.19 517.818 626.327 517.811 626.408 517.72C626.488 517.629 626.481 517.488 626.392 517.406C626.302 517.324 626.164 517.331 626.084 517.422Z" fill="#A6C9D4"/>
<path d="M650.247 521.008C650.416 520.896 650.465 520.667 650.357 520.496C650.248 520.325 650.023 520.278 649.854 520.389C649.685 520.501 649.636 520.73 649.745 520.901C649.853 521.072 650.078 521.119 650.247 521.008Z" fill="#A6C9D4"/>
<path d="M631.326 517.424C631.245 517.515 631.253 517.655 631.342 517.738C631.432 517.82 631.57 517.813 631.65 517.722C631.731 517.63 631.723 517.49 631.634 517.408C631.544 517.326 631.406 517.333 631.326 517.424Z" fill="#A6C9D4"/>
<path d="M616.508 549.01C616.677 548.898 616.726 548.669 616.617 548.498C616.509 548.327 616.284 548.28 616.115 548.391C615.946 548.503 615.897 548.732 616.005 548.903C616.114 549.074 616.339 549.121 616.508 549.01Z" fill="#A6C9D4"/>
<path opacity="0.11" d="M608.33 541.635C608.499 541.523 608.548 541.294 608.44 541.123C608.331 540.952 608.106 540.905 607.937 541.016C607.768 541.128 607.719 541.357 607.828 541.528C607.936 541.699 608.161 541.746 608.33 541.635Z" fill="#A6C9D4"/>
<path opacity="0.11" d="M603.743 550.115C603.911 550.003 603.96 549.774 603.852 549.604C603.743 549.433 603.518 549.385 603.349 549.497C603.18 549.609 603.131 549.838 603.24 550.008C603.348 550.179 603.574 550.227 603.743 550.115Z" fill="#A6C9D4"/>
<path opacity="0.11" d="M615.498 556.545C615.667 556.433 615.716 556.204 615.608 556.033C615.499 555.863 615.274 555.815 615.105 555.927C614.936 556.038 614.887 556.267 614.996 556.438C615.104 556.609 615.329 556.657 615.498 556.545Z" fill="#A6C9D4"/>
<path opacity="0.11" d="M650.154 524.148C650.323 524.037 650.371 523.808 650.263 523.637C650.154 523.466 649.929 523.418 649.76 523.53C649.591 523.642 649.542 523.871 649.651 524.042C649.76 524.212 649.985 524.26 650.154 524.148Z" fill="#A6C9D4"/>
<path opacity="0.11" d="M630.619 514.365C630.538 514.456 630.546 514.597 630.635 514.679C630.725 514.761 630.863 514.754 630.943 514.663C631.024 514.572 631.016 514.431 630.927 514.349C630.837 514.267 630.699 514.274 630.619 514.365Z" fill="#A6C9D4"/>
<path opacity="0.3" d="M621.374 539.869C621.543 539.757 621.592 539.528 621.484 539.358C621.375 539.187 621.15 539.139 620.981 539.251C620.812 539.363 620.763 539.592 620.872 539.762C620.98 539.933 621.205 539.981 621.374 539.869Z" fill="#A6C9D4"/>
<path d="M653.239 506.01C653.408 505.898 653.456 505.669 653.348 505.498C653.239 505.327 653.014 505.28 652.845 505.391C652.676 505.503 652.627 505.732 652.736 505.903C652.845 506.074 653.07 506.121 653.239 506.01Z" fill="#A6C9D4"/>
<path d="M632.244 532.701C632.163 532.792 632.171 532.933 632.26 533.015C632.35 533.097 632.488 533.09 632.568 532.999C632.649 532.908 632.641 532.767 632.552 532.685C632.462 532.603 632.324 532.61 632.244 532.701Z" fill="#A6C9D4"/>
<path d="M651.882 528.689C652.051 528.578 652.1 528.349 651.991 528.178C651.883 528.007 651.658 527.959 651.489 528.071C651.32 528.183 651.271 528.412 651.379 528.583C651.488 528.753 651.713 528.801 651.882 528.689Z" fill="#A6C9D4"/>
<path d="M524.698 546.972C524.563 547.124 524.576 547.358 524.725 547.495C524.874 547.632 525.104 547.62 525.238 547.468C525.372 547.316 525.36 547.082 525.21 546.945C525.061 546.808 524.832 546.82 524.698 546.972Z" fill="#A6C9D4"/>
<path opacity="0.3" d="M640.441 536.256C640.61 536.144 640.659 535.915 640.55 535.744C640.441 535.573 640.216 535.526 640.047 535.637C639.878 535.749 639.829 535.978 639.938 536.149C640.047 536.32 640.272 536.368 640.441 536.256Z" fill="#A6C9D4"/>
<path opacity="0.3" d="M570.536 485.372C570.402 485.524 570.415 485.758 570.564 485.895C570.713 486.032 570.942 486.02 571.077 485.868C571.211 485.717 571.198 485.483 571.049 485.346C570.9 485.209 570.67 485.221 570.536 485.372Z" fill="#A6C9D4"/>
<path opacity="0.11" d="M620.466 534.793C620.635 534.681 620.684 534.452 620.575 534.281C620.467 534.111 620.242 534.063 620.073 534.175C619.904 534.286 619.855 534.515 619.963 534.686C620.072 534.857 620.297 534.905 620.466 534.793Z" fill="#A6C9D4"/>
<path opacity="0.3" d="M658.727 508.06C658.896 507.949 658.945 507.72 658.836 507.549C658.727 507.378 658.502 507.33 658.333 507.442C658.164 507.554 658.115 507.783 658.224 507.954C658.333 508.124 658.558 508.172 658.727 508.06Z" fill="#A6C9D4"/>
<path opacity="0.3" d="M560.502 517.564C560.448 517.625 560.453 517.718 560.513 517.773C560.573 517.828 560.665 517.823 560.718 517.762C560.772 517.702 560.767 517.608 560.707 517.553C560.648 517.498 560.556 517.503 560.502 517.564Z" fill="#A6C9D4"/>
<path opacity="0.3" d="M656.258 529.766C656.325 529.722 656.345 529.63 656.301 529.561C656.258 529.493 656.168 529.474 656.1 529.519C656.032 529.563 656.013 529.655 656.056 529.723C656.1 529.792 656.19 529.811 656.258 529.766Z" fill="#A6C9D4"/>
<path opacity="0.3" d="M556.907 495.816C556.854 495.876 556.859 495.97 556.918 496.025C556.978 496.08 557.07 496.075 557.124 496.014C557.177 495.954 557.172 495.86 557.113 495.805C557.053 495.75 556.961 495.755 556.907 495.816Z" fill="#A6C9D4"/>
<path opacity="0.3" d="M637.542 544.514C637.609 544.47 637.629 544.378 637.585 544.31C637.542 544.241 637.452 544.222 637.384 544.267C637.317 544.311 637.297 544.403 637.341 544.471C637.384 544.54 637.474 544.559 637.542 544.514Z" fill="#A6C9D4"/>
<path opacity="0.3" d="M625.696 536.487C625.764 536.442 625.783 536.351 625.74 536.282C625.696 536.214 625.606 536.195 625.538 536.239C625.471 536.284 625.451 536.376 625.495 536.444C625.538 536.512 625.628 536.532 625.696 536.487Z" fill="#A6C9D4"/>
<path d="M637.635 550.133C637.703 550.089 637.723 549.997 637.679 549.929C637.636 549.86 637.545 549.841 637.478 549.886C637.41 549.931 637.391 550.022 637.434 550.091C637.478 550.159 637.568 550.178 637.635 550.133Z" fill="#A6C9D4"/>
<path d="M613.461 560.678C613.528 560.634 613.548 560.542 613.504 560.474C613.461 560.405 613.371 560.386 613.303 560.431C613.235 560.475 613.216 560.567 613.259 560.635C613.303 560.704 613.393 560.723 613.461 560.678Z" fill="#A6C9D4"/>
<path d="M606.438 555.858C606.506 555.813 606.525 555.722 606.482 555.653C606.438 555.585 606.348 555.566 606.281 555.61C606.213 555.655 606.193 555.747 606.237 555.815C606.281 555.884 606.371 555.903 606.438 555.858Z" fill="#A6C9D4"/>
<path d="M662.955 530.067C663.022 530.022 663.042 529.931 662.998 529.862C662.955 529.794 662.865 529.775 662.797 529.819C662.73 529.864 662.71 529.956 662.754 530.024C662.797 530.093 662.887 530.112 662.955 530.067Z" fill="#A6C9D4"/>
<path d="M550.361 497.288C550.308 497.349 550.313 497.443 550.372 497.498C550.432 497.552 550.524 497.548 550.578 497.487C550.631 497.426 550.626 497.333 550.567 497.278C550.507 497.223 550.415 497.228 550.361 497.288Z" fill="#A6C9D4"/>
<path opacity="0.3" d="M630.003 546.895C630.07 546.85 630.09 546.759 630.046 546.69C630.003 546.622 629.913 546.603 629.845 546.648C629.777 546.692 629.758 546.784 629.801 546.852C629.845 546.921 629.935 546.94 630.003 546.895Z" fill="#A6C9D4"/>
<path opacity="0.3" d="M610.927 546.493C610.995 546.448 611.015 546.356 610.971 546.288C610.928 546.22 610.837 546.201 610.77 546.245C610.702 546.29 610.683 546.382 610.726 546.45C610.77 546.518 610.86 546.537 610.927 546.493Z" fill="#A6C9D4"/>
<path opacity="0.3" d="M630.694 525.366C630.762 525.321 630.781 525.229 630.738 525.161C630.694 525.093 630.604 525.074 630.536 525.118C630.469 525.163 630.449 525.255 630.493 525.323C630.536 525.391 630.626 525.411 630.694 525.366Z" fill="#A6C9D4"/>
<path opacity="0.11" d="M624.16 524.956C624.227 524.911 624.247 524.819 624.203 524.751C624.16 524.683 624.07 524.663 624.002 524.708C623.935 524.753 623.915 524.844 623.959 524.913C624.002 524.981 624.092 525 624.16 524.956Z" fill="#A6C9D4"/>
<path opacity="0.3" d="M651.527 543.724C651.561 543.702 651.57 543.656 651.549 543.622C651.527 543.587 651.482 543.578 651.448 543.6C651.414 543.623 651.404 543.668 651.426 543.703C651.448 543.737 651.493 543.746 651.527 543.724Z" fill="#A6C9D4"/>
<path d="M661.822 536.911C661.855 536.889 661.865 536.843 661.843 536.809C661.822 536.775 661.777 536.765 661.743 536.788C661.709 536.81 661.699 536.856 661.721 536.89C661.743 536.924 661.788 536.934 661.822 536.911Z" fill="#A6C9D4"/>
<path d="M594.878 498.971C594.852 499.002 594.854 499.049 594.884 499.076C594.914 499.103 594.96 499.101 594.987 499.071C595.013 499.04 595.011 498.993 594.981 498.966C594.951 498.939 594.905 498.941 594.878 498.971Z" fill="#A6C9D4"/>
<path opacity="0.11" d="M508.501 566.531C508.639 566.439 508.679 566.253 508.59 566.113C508.501 565.974 508.318 565.935 508.18 566.026C508.042 566.118 508.003 566.304 508.091 566.444C508.18 566.583 508.363 566.622 508.501 566.531Z" fill="#A6C9D4"/>
<path d="M510.471 567.544C510.609 567.453 510.648 567.266 510.56 567.127C510.471 566.988 510.288 566.949 510.15 567.04C510.012 567.131 509.972 567.318 510.061 567.457C510.15 567.596 510.333 567.635 510.471 567.544Z" fill="#A6C9D4"/>
<path d="M513.055 561.783C513.193 561.691 513.232 561.505 513.144 561.365C513.055 561.226 512.872 561.187 512.734 561.278C512.596 561.369 512.556 561.556 512.645 561.695C512.734 561.835 512.917 561.874 513.055 561.783Z" fill="#A6C9D4"/>
<path d="M501.552 569.003C501.69 568.912 501.73 568.725 501.641 568.586C501.552 568.447 501.369 568.408 501.231 568.499C501.093 568.59 501.053 568.777 501.142 568.916C501.231 569.055 501.414 569.094 501.552 569.003Z" fill="#A6C9D4"/>
<path opacity="0.11" d="M496.876 576.54C497.014 576.449 497.054 576.262 496.965 576.123C496.876 575.984 496.693 575.945 496.555 576.036C496.417 576.127 496.378 576.314 496.466 576.453C496.555 576.592 496.738 576.631 496.876 576.54Z" fill="#A6C9D4"/>
<path d="M492.749 575.408C492.887 575.316 492.927 575.13 492.838 574.99C492.75 574.851 492.566 574.812 492.428 574.903C492.29 574.994 492.251 575.181 492.339 575.32C492.428 575.46 492.611 575.499 492.749 575.408Z" fill="#A6C9D4"/>
<path d="M511.78 572.279C511.918 572.187 511.958 572.001 511.869 571.861C511.781 571.722 511.597 571.683 511.459 571.774C511.322 571.866 511.282 572.052 511.37 572.192C511.459 572.331 511.643 572.37 511.78 572.279Z" fill="#A6C9D4"/>
<path d="M540.836 553.058C540.974 552.967 541.014 552.78 540.925 552.641C540.836 552.502 540.653 552.463 540.515 552.554C540.377 552.645 540.337 552.832 540.426 552.971C540.515 553.11 540.698 553.149 540.836 553.058Z" fill="#A6C9D4"/>
<path d="M550.692 536.115C550.829 536.023 550.869 535.837 550.781 535.697C550.692 535.558 550.508 535.519 550.371 535.61C550.233 535.701 550.193 535.888 550.282 536.027C550.37 536.167 550.554 536.206 550.692 536.115Z" fill="#A6C9D4"/>
<path d="M562.204 542.593C562.342 542.502 562.382 542.315 562.293 542.176C562.205 542.037 562.021 541.998 561.883 542.089C561.745 542.18 561.706 542.367 561.794 542.506C561.883 542.645 562.066 542.684 562.204 542.593Z" fill="#A6C9D4"/>
<path opacity="0.11" d="M492.673 577.966C492.811 577.875 492.851 577.688 492.762 577.549C492.673 577.41 492.49 577.371 492.352 577.462C492.214 577.553 492.174 577.74 492.263 577.879C492.352 578.018 492.535 578.057 492.673 577.966Z" fill="#A6C9D4"/>
<path opacity="0.11" d="M514.628 577.347C514.766 577.256 514.806 577.069 514.717 576.93C514.628 576.791 514.445 576.752 514.307 576.843C514.169 576.934 514.129 577.121 514.218 577.26C514.307 577.399 514.49 577.438 514.628 577.347Z" fill="#A6C9D4"/>
<path opacity="0.11" d="M539.353 559.058C539.49 558.967 539.53 558.78 539.442 558.641C539.353 558.502 539.17 558.463 539.032 558.554C538.894 558.645 538.854 558.832 538.943 558.971C539.031 559.11 539.215 559.149 539.353 559.058Z" fill="#A6C9D4"/>
<path d="M495.188 563.173C495.325 563.082 495.365 562.895 495.277 562.756C495.188 562.617 495.004 562.578 494.867 562.669C494.729 562.76 494.689 562.947 494.778 563.086C494.866 563.225 495.05 563.264 495.188 563.173Z" fill="#A6C9D4"/>
<path d="M515.539 549.325C515.677 549.234 515.717 549.048 515.628 548.908C515.54 548.769 515.356 548.73 515.218 548.821C515.08 548.912 515.041 549.099 515.129 549.238C515.218 549.378 515.401 549.417 515.539 549.325Z" fill="#A6C9D4"/>
<path d="M494.082 581.667C494.22 581.576 494.26 581.389 494.171 581.25C494.083 581.111 493.899 581.072 493.761 581.163C493.623 581.254 493.584 581.441 493.672 581.58C493.761 581.719 493.944 581.758 494.082 581.667Z" fill="#A6C9D4"/>
<path opacity="0.3" d="M499.663 564.847C499.801 564.756 499.841 564.569 499.752 564.43C499.664 564.291 499.48 564.252 499.342 564.343C499.204 564.434 499.165 564.621 499.253 564.76C499.342 564.899 499.525 564.938 499.663 564.847Z" fill="#A6C9D4"/>
<path opacity="0.3" d="M497.992 582.751C498.13 582.66 498.17 582.473 498.081 582.334C497.993 582.195 497.809 582.156 497.671 582.247C497.534 582.338 497.494 582.525 497.582 582.664C497.671 582.803 497.855 582.842 497.992 582.751Z" fill="#A6C9D4"/>
<path opacity="0.3" d="M555.71 532.986C555.848 532.894 555.888 532.708 555.799 532.569C555.71 532.429 555.527 532.39 555.389 532.481C555.251 532.573 555.212 532.759 555.3 532.899C555.389 533.038 555.572 533.077 555.71 532.986Z" fill="#A6C9D4"/>
<path opacity="0.11" d="M530.705 541.611C530.843 541.519 530.883 541.333 530.794 541.193C530.706 541.054 530.522 541.015 530.384 541.106C530.246 541.198 530.207 541.384 530.295 541.524C530.384 541.663 530.567 541.702 530.705 541.611Z" fill="#A6C9D4"/>
<path opacity="0.11" d="M555.83 541.21C555.968 541.119 556.008 540.932 555.919 540.793C555.831 540.654 555.647 540.615 555.509 540.706C555.371 540.797 555.332 540.984 555.42 541.123C555.509 541.262 555.692 541.301 555.83 541.21Z" fill="#A6C9D4"/>
<path opacity="0.3" d="M522.583 564.554C522.721 564.463 522.761 564.276 522.672 564.137C522.584 563.998 522.4 563.959 522.262 564.05C522.124 564.141 522.085 564.328 522.173 564.467C522.262 564.606 522.445 564.645 522.583 564.554Z" fill="#A6C9D4"/>
<path opacity="0.11" d="M527.853 555.277C527.99 555.185 528.03 554.999 527.942 554.86C527.853 554.72 527.67 554.681 527.532 554.772C527.394 554.864 527.354 555.05 527.443 555.19C527.531 555.329 527.715 555.368 527.853 555.277Z" fill="#A6C9D4"/>
<path d="M524.912 550.656C525.05 550.564 525.09 550.378 525.001 550.238C524.913 550.099 524.729 550.06 524.591 550.151C524.453 550.243 524.414 550.429 524.502 550.568C524.591 550.708 524.774 550.747 524.912 550.656Z" fill="#A6C9D4"/>
<path d="M524.798 571.005C524.936 570.914 524.976 570.727 524.887 570.588C524.798 570.449 524.615 570.41 524.477 570.501C524.339 570.592 524.299 570.779 524.388 570.918C524.477 571.057 524.66 571.096 524.798 571.005Z" fill="#A6C9D4"/>
<path d="M570.776 544.45C570.913 544.359 570.953 544.173 570.865 544.033C570.776 543.894 570.592 543.855 570.455 543.946C570.317 544.037 570.277 544.224 570.366 544.363C570.454 544.503 570.638 544.542 570.776 544.45Z" fill="#A6C9D4"/>
<path d="M513.724 539.595C513.614 539.719 513.624 539.909 513.746 540.021C513.868 540.133 514.055 540.123 514.164 539.999C514.274 539.876 514.264 539.685 514.142 539.573C514.02 539.461 513.833 539.471 513.724 539.595Z" fill="#A6C9D4"/>
<path d="M520.244 557.607C520.382 557.516 520.422 557.329 520.333 557.19C520.245 557.05 520.061 557.011 519.923 557.103C519.786 557.194 519.746 557.38 519.834 557.52C519.923 557.659 520.107 557.698 520.244 557.607Z" fill="#A6C9D4"/>
<path d="M503.453 582.999C503.591 582.908 503.631 582.721 503.542 582.582C503.454 582.443 503.27 582.404 503.132 582.495C502.995 582.586 502.955 582.773 503.043 582.912C503.132 583.051 503.316 583.09 503.453 582.999Z" fill="#A6C9D4"/>
<path d="M540.76 566.624C540.898 566.533 540.938 566.346 540.849 566.207C540.76 566.068 540.577 566.029 540.439 566.12C540.301 566.211 540.261 566.398 540.35 566.537C540.439 566.676 540.622 566.715 540.76 566.624Z" fill="#A6C9D4"/>
<path d="M570.197 534.019C570.335 533.928 570.375 533.741 570.286 533.602C570.198 533.462 570.014 533.423 569.876 533.515C569.739 533.606 569.699 533.793 569.787 533.932C569.876 534.071 570.06 534.11 570.197 534.019Z" fill="#A6C9D4"/>
<path d="M516.932 549.517C516.823 549.64 516.832 549.831 516.954 549.943C517.076 550.055 517.263 550.045 517.372 549.921C517.482 549.798 517.472 549.607 517.35 549.495C517.228 549.383 517.041 549.393 516.932 549.517Z" fill="#A6C9D4"/>
<path d="M568.638 524.433C568.776 524.342 568.815 524.155 568.727 524.016C568.638 523.877 568.455 523.838 568.317 523.929C568.179 524.02 568.139 524.207 568.228 524.346C568.317 524.485 568.5 524.524 568.638 524.433Z" fill="#A6C9D4"/>
<path d="M520.871 558.364C520.762 558.488 520.772 558.679 520.894 558.791C521.015 558.902 521.202 558.893 521.312 558.769C521.421 558.645 521.411 558.454 521.29 558.343C521.168 558.231 520.981 558.241 520.871 558.364Z" fill="#A6C9D4"/>
<path opacity="0.3" d="M535.841 543.425C535.979 543.334 536.019 543.147 535.93 543.008C535.841 542.869 535.658 542.83 535.52 542.921C535.382 543.012 535.342 543.199 535.431 543.338C535.52 543.477 535.703 543.516 535.841 543.425Z" fill="#A6C9D4"/>
<path d="M522.199 533.783C522.337 533.691 522.377 533.505 522.288 533.365C522.2 533.226 522.016 533.187 521.878 533.278C521.741 533.369 521.701 533.556 521.789 533.695C521.878 533.835 522.062 533.874 522.199 533.783Z" fill="#A6C9D4"/>
<path d="M544.761 541.966C544.899 541.875 544.939 541.688 544.85 541.549C544.761 541.41 544.578 541.371 544.44 541.462C544.302 541.553 544.262 541.74 544.351 541.879C544.44 542.018 544.623 542.057 544.761 541.966Z" fill="#A6C9D4"/>
<path opacity="0.3" d="M547.698 532.3C547.836 532.209 547.876 532.022 547.787 531.883C547.699 531.744 547.515 531.705 547.377 531.796C547.24 531.887 547.2 532.074 547.288 532.213C547.377 532.352 547.561 532.391 547.698 532.3Z" fill="#A6C9D4"/>
<path opacity="0.3" d="M567.034 533.216C567.172 533.125 567.212 532.938 567.123 532.799C567.035 532.66 566.851 532.621 566.713 532.712C566.576 532.803 566.536 532.99 566.624 533.129C566.713 533.268 566.897 533.307 567.034 533.216Z" fill="#A6C9D4"/>
<path opacity="0.3" d="M520.191 549.458C520.081 549.582 520.091 549.773 520.213 549.884C520.335 549.996 520.522 549.986 520.631 549.863C520.74 549.739 520.73 549.548 520.609 549.436C520.487 549.325 520.3 549.334 520.191 549.458Z" fill="#A6C9D4"/>
<path opacity="0.3" d="M551.612 543.804C551.75 543.713 551.79 543.526 551.701 543.387C551.613 543.248 551.429 543.209 551.291 543.3C551.154 543.391 551.114 543.578 551.202 543.717C551.291 543.856 551.475 543.895 551.612 543.804Z" fill="#A6C9D4"/>
<path opacity="0.11" d="M558.976 532.755C559.114 532.664 559.153 532.477 559.065 532.338C558.976 532.199 558.793 532.16 558.655 532.251C558.517 532.342 558.477 532.529 558.566 532.668C558.654 532.807 558.838 532.846 558.976 532.755Z" fill="#A6C9D4"/>
<path opacity="0.11" d="M592.137 541.458C592.275 541.367 592.315 541.18 592.226 541.041C592.137 540.902 591.954 540.863 591.816 540.954C591.678 541.045 591.638 541.232 591.727 541.371C591.816 541.51 591.999 541.549 592.137 541.458Z" fill="#A6C9D4"/>
<path opacity="0.11" d="M547.991 560.138C547.925 560.212 547.931 560.327 548.004 560.394C548.077 560.461 548.19 560.455 548.255 560.381C548.321 560.306 548.315 560.192 548.242 560.125C548.169 560.058 548.056 560.063 547.991 560.138Z" fill="#A6C9D4"/>
<path d="M594.106 542.472C594.243 542.381 594.283 542.194 594.195 542.055C594.106 541.916 593.922 541.877 593.785 541.968C593.647 542.059 593.607 542.246 593.696 542.385C593.784 542.524 593.968 542.563 594.106 542.472Z" fill="#A6C9D4"/>
<path d="M545.831 559.679C545.765 559.753 545.771 559.868 545.844 559.935C545.917 560.002 546.029 559.996 546.095 559.922C546.161 559.847 546.155 559.733 546.082 559.666C546.009 559.599 545.896 559.605 545.831 559.679Z" fill="#A6C9D4"/>
<path d="M585.187 543.933C585.324 543.842 585.364 543.655 585.276 543.516C585.187 543.377 585.003 543.338 584.866 543.429C584.728 543.52 584.688 543.707 584.777 543.846C584.865 543.985 585.049 544.024 585.187 543.933Z" fill="#A6C9D4"/>
<path d="M554.076 555.913C554.01 555.987 554.016 556.102 554.089 556.169C554.162 556.236 554.274 556.23 554.34 556.156C554.406 556.082 554.4 555.967 554.327 555.9C554.254 555.833 554.141 555.839 554.076 555.913Z" fill="#A6C9D4"/>
<path opacity="0.11" d="M580.511 551.464C580.649 551.373 580.689 551.186 580.6 551.047C580.511 550.908 580.328 550.869 580.19 550.96C580.052 551.051 580.012 551.238 580.101 551.377C580.19 551.516 580.373 551.555 580.511 551.464Z" fill="#A6C9D4"/>
<path opacity="0.11" d="M556.679 547.407C556.614 547.482 556.62 547.596 556.693 547.663C556.766 547.73 556.878 547.724 556.944 547.65C557.009 547.576 557.003 547.461 556.93 547.394C556.857 547.327 556.745 547.333 556.679 547.407Z" fill="#A6C9D4"/>
<path d="M576.384 550.333C576.522 550.242 576.562 550.055 576.473 549.916C576.384 549.777 576.201 549.738 576.063 549.829C575.925 549.92 575.885 550.107 575.974 550.246C576.063 550.385 576.246 550.424 576.384 550.333Z" fill="#A6C9D4"/>
<path d="M560.954 547.411C560.888 547.485 560.894 547.6 560.967 547.667C561.04 547.734 561.152 547.728 561.218 547.654C561.284 547.58 561.278 547.465 561.205 547.398C561.132 547.331 561.019 547.337 560.954 547.411Z" fill="#A6C9D4"/>
<path d="M548.87 573.165C549.008 573.074 549.048 572.887 548.959 572.748C548.871 572.609 548.687 572.57 548.549 572.661C548.412 572.752 548.372 572.939 548.46 573.078C548.549 573.217 548.732 573.256 548.87 573.165Z" fill="#A6C9D4"/>
<path opacity="0.11" d="M538.46 574.068C538.598 573.977 538.638 573.79 538.549 573.651C538.46 573.511 538.277 573.472 538.139 573.563C538.001 573.655 537.962 573.841 538.05 573.981C538.139 574.12 538.322 574.159 538.46 574.068Z" fill="#A6C9D4"/>
<path opacity="0.11" d="M548.047 579.31C548.185 579.219 548.225 579.032 548.136 578.893C548.047 578.753 547.864 578.715 547.726 578.806C547.588 578.897 547.548 579.084 547.637 579.223C547.726 579.362 547.909 579.401 548.047 579.31Z" fill="#A6C9D4"/>
<path d="M474.001 571.505C473.892 571.629 473.902 571.82 474.023 571.931C474.145 572.043 474.332 572.033 474.442 571.91C474.551 571.786 474.541 571.595 474.419 571.483C474.298 571.372 474.111 571.381 474.001 571.505Z" fill="#A6C9D4"/>
<path opacity="0.3" d="M502.528 550.82C502.666 550.728 502.706 550.542 502.617 550.402C502.529 550.263 502.345 550.224 502.207 550.315C502.07 550.407 502.03 550.593 502.119 550.733C502.207 550.872 502.391 550.911 502.528 550.82Z" fill="#A6C9D4"/>
<path opacity="0.3" d="M511.381 521.271C511.272 521.394 511.282 521.585 511.403 521.697C511.525 521.809 511.712 521.799 511.822 521.675C511.931 521.551 511.921 521.361 511.799 521.249C511.678 521.137 511.49 521.147 511.381 521.271Z" fill="#A6C9D4"/>
<path opacity="0.11" d="M516.175 549.63C516.313 549.539 516.353 549.352 516.264 549.213C516.175 549.074 515.992 549.035 515.854 549.126C515.716 549.217 515.676 549.404 515.765 549.543C515.854 549.682 516.037 549.721 516.175 549.63Z" fill="#A6C9D4"/>
<path opacity="0.3" d="M547.376 527.829C547.514 527.738 547.554 527.551 547.465 527.412C547.376 527.273 547.193 527.234 547.055 527.325C546.917 527.416 546.878 527.603 546.966 527.742C547.055 527.882 547.238 527.921 547.376 527.829Z" fill="#A6C9D4"/>
<path opacity="0.3" d="M467.276 535.58C467.232 535.63 467.236 535.706 467.285 535.751C467.333 535.795 467.408 535.792 467.452 535.742C467.496 535.692 467.492 535.616 467.443 535.571C467.394 535.527 467.32 535.531 467.276 535.58Z" fill="#A6C9D4"/>
<path opacity="0.3" d="M464.345 517.846C464.301 517.895 464.305 517.972 464.354 518.016C464.403 518.061 464.478 518.057 464.521 518.008C464.565 517.958 464.561 517.882 464.512 517.837C464.464 517.792 464.389 517.796 464.345 517.846Z" fill="#A6C9D4"/>
<path d="M504.736 566.806C504.791 566.769 504.807 566.695 504.772 566.639C504.736 566.583 504.663 566.567 504.608 566.604C504.552 566.64 504.537 566.715 504.572 566.771C504.608 566.827 504.681 566.842 504.736 566.806Z" fill="#A6C9D4"/>
<path d="M464.994 530.988C464.95 531.038 464.954 531.114 465.002 531.159C465.051 531.204 465.126 531.2 465.17 531.15C465.214 531.101 465.21 531.024 465.161 530.98C465.112 530.935 465.037 530.939 464.994 530.988Z" fill="#A6C9D4"/>
<path d="M501.297 532.362C501.275 532.387 501.277 532.425 501.301 532.448C501.326 532.47 501.363 532.468 501.385 532.443C501.407 532.419 501.405 532.38 501.381 532.358C501.356 532.336 501.319 532.338 501.297 532.362Z" fill="#A6C9D4"/>
<path opacity="0.11" d="M494.305 573.124C494.443 573.033 494.482 572.846 494.394 572.707C494.305 572.568 494.122 572.529 493.984 572.62C493.846 572.711 493.806 572.898 493.895 573.037C493.984 573.176 494.167 573.215 494.305 573.124Z" fill="#A6C9D4"/>
<path opacity="0.11" d="M528.411 558.865C528.549 558.773 528.589 558.587 528.5 558.447C528.412 558.308 528.228 558.269 528.09 558.36C527.953 558.451 527.913 558.638 528.001 558.777C528.09 558.917 528.274 558.956 528.411 558.865Z" fill="#A6C9D4"/>
<path opacity="0.11" d="M512.48 550.888C512.414 550.962 512.42 551.077 512.493 551.144C512.566 551.211 512.679 551.205 512.744 551.131C512.81 551.056 512.804 550.942 512.731 550.875C512.658 550.808 512.546 550.813 512.48 550.888Z" fill="#A6C9D4"/>
<path opacity="0.3" d="M504.943 571.687C505.08 571.596 505.12 571.409 505.032 571.27C504.943 571.13 504.759 571.091 504.622 571.183C504.484 571.274 504.444 571.461 504.533 571.6C504.621 571.739 504.805 571.778 504.943 571.687Z" fill="#A6C9D4"/>
<path d="M530.926 544.074C531.064 543.982 531.104 543.796 531.015 543.656C530.926 543.517 530.743 543.478 530.605 543.569C530.467 543.66 530.427 543.847 530.516 543.986C530.605 544.126 530.788 544.165 530.926 544.074Z" fill="#A6C9D4"/>
<path d="M513.806 565.839C513.741 565.913 513.747 566.028 513.82 566.095C513.893 566.162 514.005 566.156 514.071 566.082C514.136 566.007 514.13 565.893 514.057 565.826C513.984 565.759 513.872 565.765 513.806 565.839Z" fill="#A6C9D4"/>
<path d="M529.82 562.57C529.958 562.478 529.998 562.292 529.909 562.152C529.821 562.013 529.637 561.974 529.5 562.065C529.362 562.157 529.322 562.343 529.41 562.483C529.499 562.622 529.683 562.661 529.82 562.57Z" fill="#A6C9D4"/>
<path opacity="0.3" d="M497.466 551.503C497.521 551.467 497.537 551.392 497.501 551.336C497.466 551.28 497.392 551.265 497.337 551.301C497.282 551.338 497.266 551.412 497.302 551.468C497.337 551.524 497.411 551.54 497.466 551.503Z" fill="#A6C9D4"/>
<path opacity="0.3" d="M482.204 563.528C482.259 563.492 482.275 563.417 482.239 563.361C482.204 563.306 482.131 563.29 482.075 563.327C482.02 563.363 482.004 563.438 482.04 563.494C482.075 563.549 482.149 563.565 482.204 563.528Z" fill="#A6C9D4"/>
<path opacity="0.3" d="M472.544 556.984C472.599 556.947 472.615 556.872 472.579 556.817C472.544 556.761 472.47 556.745 472.415 556.782C472.36 556.818 472.344 556.893 472.38 556.949C472.415 557.004 472.489 557.02 472.544 556.984Z" fill="#A6C9D4"/>
<path d="M482.28 568.112C482.335 568.076 482.351 568.001 482.316 567.945C482.28 567.89 482.207 567.874 482.152 567.911C482.096 567.947 482.081 568.022 482.116 568.077C482.152 568.133 482.225 568.149 482.28 568.112Z" fill="#A6C9D4"/>
<path d="M462.566 576.712C462.621 576.676 462.637 576.601 462.602 576.545C462.566 576.489 462.493 576.474 462.438 576.51C462.383 576.547 462.367 576.621 462.402 576.677C462.438 576.733 462.511 576.748 462.566 576.712Z" fill="#A6C9D4"/>
<path d="M538.849 563.692C538.905 563.656 538.92 563.581 538.885 563.526C538.849 563.47 538.776 563.454 538.721 563.491C538.666 563.527 538.65 563.602 538.685 563.658C538.721 563.713 538.794 563.729 538.849 563.692Z" fill="#A6C9D4"/>
<path opacity="0.3" d="M482.043 577.415C482.098 577.379 482.114 577.304 482.078 577.248C482.043 577.192 481.969 577.177 481.914 577.213C481.859 577.25 481.843 577.324 481.879 577.38C481.914 577.436 481.988 577.452 482.043 577.415Z" fill="#A6C9D4"/>
<path opacity="0.3" d="M466.488 577.089C466.543 577.053 466.559 576.978 466.524 576.922C466.488 576.866 466.415 576.851 466.36 576.887C466.304 576.924 466.289 576.998 466.324 577.054C466.36 577.11 466.433 577.125 466.488 577.089Z" fill="#A6C9D4"/>
<path opacity="0.3" d="M482.606 559.86C482.661 559.824 482.677 559.749 482.642 559.694C482.606 559.638 482.533 559.622 482.478 559.659C482.423 559.695 482.407 559.77 482.442 559.826C482.478 559.881 482.551 559.897 482.606 559.86Z" fill="#A6C9D4"/>
<path opacity="0.11" d="M477.278 559.525C477.333 559.488 477.349 559.413 477.314 559.358C477.278 559.302 477.205 559.286 477.15 559.323C477.094 559.359 477.079 559.434 477.114 559.49C477.15 559.545 477.223 559.561 477.278 559.525Z" fill="#A6C9D4"/>
<path opacity="0.3" d="M499.595 574.83C499.622 574.811 499.63 574.774 499.612 574.746C499.595 574.718 499.558 574.71 499.53 574.729C499.503 574.747 499.495 574.784 499.513 574.812C499.53 574.84 499.567 574.848 499.595 574.83Z" fill="#A6C9D4"/>
<path d="M507.991 569.275C508.019 569.257 508.027 569.219 508.009 569.191C507.991 569.164 507.954 569.156 507.927 569.174C507.899 569.192 507.891 569.23 507.909 569.257C507.927 569.285 507.964 569.293 507.991 569.275Z" fill="#A6C9D4"/>
<path opacity="0.11" d="M825.374 565.802C825.236 565.711 825.196 565.524 825.285 565.385C825.374 565.246 825.557 565.207 825.695 565.298C825.833 565.389 825.872 565.576 825.784 565.715C825.695 565.854 825.512 565.893 825.374 565.802Z" fill="#A6C9D4"/>
<path d="M823.405 566.816C823.267 566.725 823.227 566.538 823.316 566.399C823.405 566.259 823.588 566.22 823.726 566.312C823.864 566.403 823.904 566.589 823.815 566.729C823.726 566.868 823.543 566.907 823.405 566.816Z" fill="#A6C9D4"/>
<path d="M820.82 561.054C820.682 560.963 820.643 560.776 820.731 560.637C820.82 560.498 821.003 560.459 821.141 560.55C821.279 560.641 821.319 560.828 821.23 560.967C821.141 561.106 820.958 561.145 820.82 561.054Z" fill="#A6C9D4"/>
<path d="M832.323 568.273C832.185 568.182 832.145 567.995 832.234 567.856C832.323 567.716 832.506 567.677 832.644 567.769C832.782 567.86 832.822 568.046 832.733 568.186C832.644 568.325 832.461 568.364 832.323 568.273Z" fill="#A6C9D4"/>
<path opacity="0.11" d="M837 575.81C836.862 575.719 836.822 575.532 836.911 575.393C836.999 575.253 837.183 575.215 837.321 575.306C837.459 575.397 837.498 575.584 837.41 575.723C837.321 575.862 837.138 575.901 837 575.81Z" fill="#A6C9D4"/>
<path d="M787.528 568.533C787.459 568.488 787.439 568.394 787.484 568.324C787.528 568.255 787.62 568.235 787.689 568.281C787.758 568.326 787.778 568.42 787.733 568.489C787.689 568.559 787.597 568.579 787.528 568.533Z" fill="#A6C9D4"/>
<path d="M822.096 571.548C821.958 571.457 821.918 571.27 822.007 571.131C822.095 570.992 822.279 570.953 822.417 571.044C822.554 571.135 822.594 571.322 822.506 571.461C822.417 571.6 822.233 571.639 822.096 571.548Z" fill="#A6C9D4"/>
<path d="M793.039 552.327C792.901 552.236 792.861 552.05 792.95 551.91C793.039 551.771 793.222 551.732 793.36 551.823C793.498 551.914 793.538 552.101 793.449 552.24C793.36 552.38 793.177 552.419 793.039 552.327Z" fill="#A6C9D4"/>
<path d="M783.184 535.382C783.047 535.291 783.007 535.104 783.095 534.965C783.184 534.826 783.368 534.787 783.505 534.878C783.643 534.969 783.683 535.156 783.594 535.295C783.506 535.434 783.322 535.473 783.184 535.382Z" fill="#A6C9D4"/>
<path d="M771.671 541.861C771.533 541.769 771.493 541.583 771.582 541.444C771.67 541.304 771.854 541.265 771.992 541.356C772.13 541.448 772.169 541.634 772.081 541.774C771.992 541.913 771.809 541.952 771.671 541.861Z" fill="#A6C9D4"/>
<path opacity="0.11" d="M841.203 577.236C841.065 577.144 841.025 576.958 841.114 576.818C841.203 576.679 841.386 576.64 841.524 576.731C841.662 576.823 841.702 577.009 841.613 577.149C841.524 577.288 841.341 577.327 841.203 577.236Z" fill="#A6C9D4"/>
<path opacity="0.11" d="M819.248 576.615C819.11 576.523 819.07 576.337 819.159 576.197C819.248 576.058 819.431 576.019 819.569 576.11C819.707 576.201 819.747 576.388 819.658 576.527C819.569 576.667 819.386 576.706 819.248 576.615Z" fill="#A6C9D4"/>
<path opacity="0.11" d="M794.523 558.327C794.385 558.236 794.346 558.05 794.434 557.91C794.523 557.771 794.706 557.732 794.844 557.823C794.982 557.914 795.022 558.101 794.933 558.24C794.845 558.38 794.661 558.419 794.523 558.327Z" fill="#A6C9D4"/>
<path d="M785.089 556.301C785.02 556.255 785 556.162 785.044 556.092C785.089 556.022 785.18 556.003 785.249 556.048C785.318 556.094 785.338 556.187 785.294 556.257C785.249 556.327 785.158 556.346 785.089 556.301Z" fill="#A6C9D4"/>
<path d="M818.336 548.595C818.198 548.504 818.158 548.317 818.247 548.178C818.335 548.039 818.519 548 818.657 548.091C818.795 548.182 818.834 548.369 818.746 548.508C818.657 548.647 818.474 548.686 818.336 548.595Z" fill="#A6C9D4"/>
<path d="M839.794 580.941C839.656 580.85 839.616 580.663 839.705 580.524C839.793 580.384 839.977 580.345 840.115 580.437C840.253 580.528 840.292 580.714 840.204 580.854C840.115 580.993 839.932 581.032 839.794 580.941Z" fill="#A6C9D4"/>
<path opacity="0.3" d="M834.212 564.118C834.074 564.027 834.034 563.841 834.123 563.701C834.211 563.562 834.395 563.523 834.533 563.614C834.671 563.705 834.71 563.892 834.622 564.031C834.533 564.171 834.35 564.21 834.212 564.118Z" fill="#A6C9D4"/>
<path opacity="0.3" d="M835.884 582.023C835.746 581.932 835.706 581.745 835.795 581.606C835.883 581.466 836.067 581.427 836.205 581.519C836.342 581.61 836.382 581.796 836.294 581.936C836.205 582.075 836.021 582.114 835.884 582.023Z" fill="#A6C9D4"/>
<path opacity="0.3" d="M778.166 532.257C778.028 532.166 777.988 531.979 778.077 531.84C778.165 531.701 778.349 531.662 778.487 531.753C778.625 531.844 778.664 532.031 778.576 532.17C778.487 532.309 778.304 532.348 778.166 532.257Z" fill="#A6C9D4"/>
<path opacity="0.11" d="M803.171 540.88C803.033 540.789 802.993 540.602 803.082 540.463C803.17 540.324 803.354 540.285 803.492 540.376C803.63 540.467 803.669 540.654 803.581 540.793C803.492 540.932 803.309 540.971 803.171 540.88Z" fill="#A6C9D4"/>
<path opacity="0.11" d="M778.046 540.48C777.908 540.389 777.868 540.202 777.957 540.063C778.045 539.923 778.229 539.884 778.367 539.976C778.505 540.067 778.544 540.253 778.456 540.393C778.367 540.532 778.184 540.571 778.046 540.48Z" fill="#A6C9D4"/>
<path opacity="0.3" d="M811.293 563.824C811.155 563.732 811.115 563.546 811.204 563.406C811.292 563.267 811.476 563.228 811.614 563.319C811.752 563.41 811.791 563.597 811.703 563.736C811.614 563.876 811.431 563.915 811.293 563.824Z" fill="#A6C9D4"/>
<path opacity="0.11" d="M806.023 554.546C805.885 554.455 805.846 554.268 805.934 554.129C806.023 553.99 806.206 553.951 806.344 554.042C806.482 554.133 806.522 554.32 806.433 554.459C806.345 554.598 806.161 554.637 806.023 554.546Z" fill="#A6C9D4"/>
<path d="M808.963 549.927C808.825 549.836 808.785 549.649 808.874 549.51C808.962 549.371 809.146 549.332 809.284 549.423C809.422 549.514 809.461 549.701 809.373 549.84C809.284 549.979 809.101 550.018 808.963 549.927Z" fill="#A6C9D4"/>
<path d="M809.077 570.275C808.939 570.184 808.899 569.997 808.988 569.858C809.077 569.718 809.26 569.679 809.398 569.771C809.536 569.862 809.576 570.048 809.487 570.188C809.398 570.327 809.215 570.366 809.077 570.275Z" fill="#A6C9D4"/>
<path d="M763.099 543.72C762.962 543.629 762.922 543.442 763.01 543.303C763.099 543.164 763.283 543.125 763.42 543.216C763.558 543.307 763.598 543.494 763.509 543.633C763.421 543.772 763.237 543.811 763.099 543.72Z" fill="#A6C9D4"/>
<path d="M796.802 562.159C796.911 562.283 796.901 562.474 796.779 562.586C796.658 562.697 796.47 562.688 796.361 562.564C796.252 562.44 796.262 562.249 796.383 562.138C796.505 562.026 796.692 562.036 796.802 562.159Z" fill="#A6C9D4"/>
<path d="M813.631 556.876C813.493 556.785 813.453 556.598 813.542 556.459C813.63 556.32 813.814 556.281 813.952 556.372C814.089 556.463 814.129 556.65 814.041 556.789C813.952 556.928 813.768 556.967 813.631 556.876Z" fill="#A6C9D4"/>
<path d="M830.422 582.269C830.284 582.178 830.244 581.991 830.333 581.852C830.421 581.712 830.605 581.673 830.743 581.765C830.88 581.856 830.92 582.043 830.832 582.182C830.743 582.321 830.559 582.36 830.422 582.269Z" fill="#A6C9D4"/>
<path d="M793.115 565.892C792.977 565.801 792.937 565.614 793.026 565.475C793.115 565.336 793.298 565.297 793.436 565.388C793.574 565.479 793.614 565.666 793.525 565.805C793.436 565.944 793.253 565.983 793.115 565.892Z" fill="#A6C9D4"/>
<path d="M763.679 533.292C763.541 533.201 763.501 533.014 763.59 532.875C763.678 532.736 763.862 532.697 764 532.788C764.137 532.879 764.177 533.066 764.089 533.205C764 533.344 763.816 533.383 763.679 533.292Z" fill="#A6C9D4"/>
<path d="M816.943 548.788C817.052 548.912 817.043 549.103 816.921 549.214C816.799 549.326 816.612 549.316 816.503 549.193C816.393 549.069 816.403 548.878 816.525 548.766C816.647 548.655 816.834 548.665 816.943 548.788Z" fill="#A6C9D4"/>
<path d="M765.237 523.704C765.099 523.613 765.06 523.426 765.148 523.287C765.237 523.148 765.42 523.109 765.558 523.2C765.696 523.291 765.736 523.478 765.647 523.617C765.558 523.757 765.375 523.796 765.237 523.704Z" fill="#A6C9D4"/>
<path d="M813.004 557.634C813.113 557.758 813.103 557.948 812.981 558.06C812.86 558.172 812.673 558.162 812.563 558.038C812.454 557.915 812.464 557.724 812.585 557.612C812.707 557.5 812.894 557.51 813.004 557.634Z" fill="#A6C9D4"/>
<path opacity="0.3" d="M798.035 542.695C797.897 542.603 797.857 542.417 797.946 542.277C798.035 542.138 798.218 542.099 798.356 542.19C798.494 542.282 798.534 542.468 798.445 542.608C798.356 542.747 798.173 542.786 798.035 542.695Z" fill="#A6C9D4"/>
<path d="M811.677 533.052C811.539 532.961 811.499 532.774 811.588 532.635C811.676 532.496 811.86 532.457 811.998 532.548C812.135 532.639 812.175 532.826 812.087 532.965C811.998 533.104 811.814 533.143 811.677 533.052Z" fill="#A6C9D4"/>
<path d="M789.114 541.238C788.976 541.146 788.936 540.96 789.025 540.82C789.114 540.681 789.297 540.642 789.435 540.733C789.573 540.825 789.613 541.011 789.524 541.151C789.435 541.29 789.252 541.329 789.114 541.238Z" fill="#A6C9D4"/>
<path opacity="0.3" d="M786.178 531.572C786.04 531.48 786 531.294 786.089 531.154C786.177 531.015 786.361 530.976 786.499 531.067C786.636 531.159 786.676 531.345 786.588 531.485C786.499 531.624 786.315 531.663 786.178 531.572Z" fill="#A6C9D4"/>
<path opacity="0.3" d="M766.841 532.488C766.703 532.396 766.663 532.21 766.752 532.07C766.84 531.931 767.024 531.892 767.162 531.983C767.299 532.075 767.339 532.261 767.251 532.401C767.162 532.54 766.978 532.579 766.841 532.488Z" fill="#A6C9D4"/>
<path opacity="0.3" d="M813.685 548.728C813.795 548.851 813.785 549.042 813.663 549.154C813.541 549.266 813.354 549.256 813.245 549.132C813.136 549.008 813.145 548.818 813.267 548.706C813.389 548.594 813.576 548.604 813.685 548.728Z" fill="#A6C9D4"/>
<path opacity="0.3" d="M782.263 543.074C782.125 542.982 782.085 542.796 782.174 542.656C782.262 542.517 782.446 542.478 782.584 542.569C782.721 542.66 782.761 542.847 782.673 542.986C782.584 543.126 782.4 543.165 782.263 543.074Z" fill="#A6C9D4"/>
<path opacity="0.11" d="M774.899 532.027C774.761 531.935 774.722 531.749 774.81 531.61C774.899 531.47 775.082 531.431 775.22 531.522C775.358 531.614 775.398 531.8 775.309 531.94C775.221 532.079 775.037 532.118 774.899 532.027Z" fill="#A6C9D4"/>
<path opacity="0.11" d="M741.739 540.73C741.601 540.639 741.561 540.452 741.65 540.313C741.739 540.173 741.922 540.134 742.06 540.226C742.198 540.317 742.238 540.503 742.149 540.643C742.06 540.782 741.877 540.821 741.739 540.73Z" fill="#A6C9D4"/>
<path opacity="0.11" d="M785.885 559.407C785.951 559.482 785.945 559.596 785.872 559.663C785.799 559.73 785.686 559.724 785.621 559.65C785.555 559.576 785.561 559.461 785.634 559.394C785.707 559.327 785.82 559.333 785.885 559.407Z" fill="#A6C9D4"/>
<path d="M739.77 541.741C739.633 541.65 739.593 541.464 739.681 541.324C739.77 541.185 739.954 541.146 740.091 541.237C740.229 541.328 740.269 541.515 740.18 541.654C740.092 541.794 739.908 541.833 739.77 541.741Z" fill="#A6C9D4"/>
<path d="M788.044 558.948C788.11 559.023 788.104 559.137 788.031 559.204C787.958 559.271 787.846 559.265 787.78 559.191C787.714 559.117 787.72 559.002 787.793 558.935C787.866 558.868 787.979 558.874 788.044 558.948Z" fill="#A6C9D4"/>
<path d="M748.688 543.2C748.551 543.109 748.511 542.923 748.599 542.783C748.688 542.644 748.872 542.605 749.009 542.696C749.147 542.787 749.187 542.974 749.098 543.113C749.01 543.253 748.826 543.292 748.688 543.2Z" fill="#A6C9D4"/>
<path d="M779.799 555.185C779.865 555.259 779.859 555.373 779.786 555.441C779.713 555.508 779.601 555.502 779.535 555.427C779.469 555.353 779.475 555.239 779.548 555.172C779.621 555.105 779.734 555.11 779.799 555.185Z" fill="#A6C9D4"/>
<path opacity="0.11" d="M753.365 550.734C753.227 550.643 753.187 550.456 753.276 550.317C753.365 550.177 753.548 550.138 753.686 550.229C753.824 550.321 753.864 550.507 753.775 550.647C753.686 550.786 753.503 550.825 753.365 550.734Z" fill="#A6C9D4"/>
<path opacity="0.11" d="M777.197 546.679C777.262 546.753 777.256 546.868 777.183 546.935C777.11 547.002 776.998 546.996 776.932 546.922C776.867 546.847 776.873 546.733 776.946 546.666C777.019 546.599 777.131 546.605 777.197 546.679Z" fill="#A6C9D4"/>
<path d="M757.492 549.603C757.354 549.512 757.314 549.325 757.403 549.186C757.492 549.046 757.675 549.007 757.813 549.099C757.951 549.19 757.991 549.377 757.902 549.516C757.813 549.655 757.63 549.694 757.492 549.603Z" fill="#A6C9D4"/>
<path d="M772.921 546.679C772.987 546.753 772.981 546.868 772.908 546.935C772.835 547.002 772.723 546.996 772.657 546.922C772.591 546.847 772.597 546.733 772.67 546.666C772.743 546.599 772.856 546.605 772.921 546.679Z" fill="#A6C9D4"/>
<path d="M785.005 572.437C784.867 572.346 784.827 572.159 784.916 572.02C785.004 571.88 785.188 571.841 785.326 571.933C785.463 572.024 785.503 572.211 785.415 572.35C785.326 572.489 785.143 572.528 785.005 572.437Z" fill="#A6C9D4"/>
<path opacity="0.11" d="M791.674 566.423C791.536 566.332 791.496 566.145 791.585 566.006C791.673 565.867 791.857 565.828 791.995 565.919C792.132 566.01 792.172 566.197 792.084 566.336C791.995 566.475 791.811 566.514 791.674 566.423Z" fill="#A6C9D4"/>
<path opacity="0.11" d="M795.415 573.339C795.277 573.248 795.237 573.061 795.326 572.922C795.415 572.783 795.598 572.744 795.736 572.835C795.874 572.926 795.913 573.113 795.825 573.252C795.736 573.391 795.553 573.43 795.415 573.339Z" fill="#A6C9D4"/>
<path opacity="0.11" d="M785.828 578.581C785.69 578.49 785.65 578.303 785.739 578.164C785.828 578.025 786.011 577.986 786.149 578.077C786.287 578.168 786.327 578.355 786.238 578.494C786.149 578.634 785.966 578.672 785.828 578.581Z" fill="#A6C9D4"/>
<path opacity="0.11" d="M757.568 552.161C757.43 552.07 757.391 551.884 757.479 551.744C757.568 551.605 757.751 551.566 757.889 551.657C758.027 551.748 758.067 551.935 757.978 552.074C757.89 552.214 757.706 552.253 757.568 552.161Z" fill="#A6C9D4"/>
<path opacity="0.11" d="M773.498 544.185C773.564 544.259 773.558 544.373 773.485 544.441C773.412 544.508 773.3 544.502 773.234 544.427C773.168 544.353 773.174 544.239 773.247 544.172C773.32 544.105 773.433 544.11 773.498 544.185Z" fill="#A6C9D4"/>
<path opacity="0.3" d="M781.037 564.984C780.899 564.893 780.859 564.706 780.948 564.567C781.037 564.427 781.22 564.388 781.358 564.479C781.496 564.571 781.536 564.757 781.447 564.897C781.358 565.036 781.175 565.075 781.037 564.984Z" fill="#A6C9D4"/>
<path d="M755.053 537.37C754.915 537.279 754.875 537.092 754.964 536.953C755.052 536.814 755.236 536.775 755.374 536.866C755.511 536.957 755.551 537.144 755.463 537.283C755.374 537.423 755.19 537.462 755.053 537.37Z" fill="#A6C9D4"/>
<path d="M772.173 559.138C772.239 559.212 772.233 559.327 772.16 559.394C772.087 559.461 771.975 559.455 771.909 559.381C771.843 559.306 771.849 559.192 771.922 559.125C771.995 559.058 772.108 559.063 772.173 559.138Z" fill="#A6C9D4"/>
<path d="M756.158 555.866C756.02 555.775 755.98 555.589 756.069 555.449C756.158 555.31 756.341 555.271 756.479 555.362C756.617 555.453 756.657 555.64 756.568 555.779C756.479 555.919 756.296 555.958 756.158 555.866Z" fill="#A6C9D4"/>
<path d="M859.874 570.777C859.983 570.9 859.973 571.091 859.852 571.203C859.73 571.314 859.543 571.305 859.433 571.181C859.324 571.057 859.334 570.866 859.456 570.755C859.577 570.643 859.764 570.653 859.874 570.777Z" fill="#A6C9D4"/>
<path opacity="0.3" d="M765.489 562.036C765.351 561.945 765.311 561.759 765.4 561.619C765.489 561.48 765.672 561.441 765.81 561.532C765.948 561.623 765.988 561.81 765.899 561.949C765.81 562.089 765.627 562.128 765.489 562.036Z" fill="#A6C9D4"/>
<path opacity="0.3" d="M822.494 520.544C822.603 520.668 822.593 520.859 822.472 520.97C822.35 521.082 822.163 521.072 822.053 520.949C821.944 520.825 821.954 520.634 822.076 520.522C822.197 520.411 822.385 520.42 822.494 520.544Z" fill="#A6C9D4"/>
<path opacity="0.11" d="M781.777 560.843C781.639 560.752 781.6 560.565 781.688 560.426C781.777 560.287 781.96 560.248 782.098 560.339C782.236 560.43 782.276 560.617 782.187 560.756C782.099 560.895 781.915 560.934 781.777 560.843Z" fill="#A6C9D4"/>
<path opacity="0.3" d="M750.577 539.044C750.439 538.953 750.399 538.766 750.488 538.627C750.577 538.488 750.76 538.449 750.898 538.54C751.036 538.631 751.076 538.818 750.987 538.957C750.898 539.096 750.715 539.135 750.577 539.044Z" fill="#A6C9D4"/>
<path opacity="0.3" d="M830.676 546.795C830.72 546.844 830.716 546.921 830.668 546.966C830.619 547.01 830.544 547.006 830.5 546.957C830.456 546.907 830.46 546.831 830.509 546.786C830.558 546.742 830.633 546.745 830.676 546.795Z" fill="#A6C9D4"/>
<path opacity="0.3" d="M752.591 556.743C752.536 556.707 752.52 556.632 752.555 556.576C752.591 556.521 752.664 556.505 752.72 556.541C752.775 556.578 752.791 556.653 752.755 556.708C752.72 556.764 752.646 556.78 752.591 556.743Z" fill="#A6C9D4"/>
<path opacity="0.3" d="M833.608 529.059C833.652 529.108 833.648 529.185 833.599 529.229C833.55 529.274 833.476 529.27 833.432 529.221C833.388 529.171 833.392 529.095 833.441 529.05C833.489 529.005 833.564 529.009 833.608 529.059Z" fill="#A6C9D4"/>
<path opacity="0.3" d="M767.853 568.773C767.798 568.736 767.782 568.661 767.817 568.606C767.853 568.55 767.926 568.534 767.981 568.571C768.036 568.607 768.052 568.682 768.017 568.738C767.981 568.793 767.908 568.809 767.853 568.773Z" fill="#A6C9D4"/>
<path opacity="0.3" d="M777.513 562.226C777.458 562.189 777.442 562.114 777.477 562.059C777.513 562.003 777.586 561.987 777.641 562.024C777.697 562.06 777.712 562.135 777.677 562.191C777.641 562.247 777.568 562.262 777.513 562.226Z" fill="#A6C9D4"/>
<path d="M767.777 573.353C767.721 573.316 767.706 573.241 767.741 573.186C767.777 573.13 767.85 573.114 767.905 573.151C767.96 573.187 767.976 573.262 767.941 573.318C767.905 573.373 767.832 573.389 767.777 573.353Z" fill="#A6C9D4"/>
<path d="M787.49 581.952C787.435 581.916 787.419 581.841 787.455 581.785C787.49 581.73 787.564 581.714 787.619 581.75C787.674 581.787 787.69 581.862 787.654 581.917C787.619 581.973 787.546 581.989 787.49 581.952Z" fill="#A6C9D4"/>
<path d="M793.217 578.021C793.162 577.984 793.146 577.909 793.181 577.854C793.217 577.798 793.29 577.782 793.346 577.819C793.401 577.855 793.417 577.93 793.381 577.986C793.346 578.041 793.272 578.057 793.217 578.021Z" fill="#A6C9D4"/>
<path d="M747.129 556.989C747.074 556.953 747.058 556.878 747.094 556.822C747.129 556.767 747.203 556.751 747.258 556.787C747.313 556.824 747.329 556.899 747.293 556.954C747.258 557.01 747.184 557.026 747.129 556.989Z" fill="#A6C9D4"/>
<path d="M838.946 530.26C838.99 530.309 838.986 530.386 838.937 530.43C838.888 530.475 838.813 530.471 838.77 530.422C838.726 530.372 838.73 530.296 838.779 530.251C838.827 530.206 838.902 530.21 838.946 530.26Z" fill="#A6C9D4"/>
<path opacity="0.3" d="M774.001 570.714C773.946 570.678 773.93 570.603 773.966 570.547C774.001 570.491 774.075 570.476 774.13 570.512C774.185 570.549 774.201 570.623 774.165 570.679C774.13 570.735 774.056 570.75 774.001 570.714Z" fill="#A6C9D4"/>
<path opacity="0.3" d="M789.556 570.386C789.501 570.349 789.485 570.275 789.52 570.219C789.556 570.163 789.629 570.148 789.684 570.184C789.739 570.22 789.755 570.295 789.72 570.351C789.684 570.407 789.611 570.422 789.556 570.386Z" fill="#A6C9D4"/>
<path opacity="0.3" d="M773.438 553.157C773.383 553.121 773.367 553.046 773.402 552.99C773.438 552.935 773.511 552.919 773.566 552.955C773.621 552.992 773.637 553.067 773.602 553.122C773.566 553.178 773.493 553.194 773.438 553.157Z" fill="#A6C9D4"/>
<path opacity="0.11" d="M778.765 552.821C778.71 552.785 778.694 552.71 778.729 552.654C778.765 552.599 778.838 552.583 778.893 552.62C778.948 552.656 778.964 552.731 778.929 552.786C778.893 552.842 778.82 552.858 778.765 552.821Z" fill="#A6C9D4"/>
<path opacity="0.3" d="M756.449 568.127C756.422 568.108 756.414 568.071 756.432 568.043C756.449 568.015 756.486 568.007 756.514 568.026C756.541 568.044 756.549 568.081 756.531 568.109C756.514 568.137 756.477 568.145 756.449 568.127Z" fill="#A6C9D4"/>
<path d="M748.053 562.57C748.025 562.552 748.017 562.514 748.035 562.486C748.053 562.459 748.09 562.451 748.117 562.469C748.145 562.487 748.153 562.525 748.135 562.552C748.117 562.58 748.08 562.588 748.053 562.57Z" fill="#A6C9D4"/>
<path d="M802.643 531.632C802.665 531.657 802.663 531.695 802.639 531.717C802.615 531.74 802.577 531.738 802.555 531.713C802.533 531.688 802.535 531.65 802.56 531.627C802.584 531.605 802.621 531.607 802.643 531.632Z" fill="#A6C9D4"/>
<path opacity="0.11" d="M747.205 540.873C747.036 540.761 746.987 540.532 747.096 540.361C747.204 540.191 747.429 540.143 747.598 540.255C747.767 540.366 747.816 540.595 747.707 540.766C747.599 540.937 747.374 540.985 747.205 540.873Z" fill="#A6C9D4"/>
<path d="M744.791 542.117C744.622 542.005 744.573 541.776 744.682 541.606C744.79 541.435 745.015 541.387 745.184 541.499C745.353 541.611 745.402 541.84 745.293 542.01C745.185 542.181 744.96 542.229 744.791 542.117Z" fill="#A6C9D4"/>
<path d="M741.621 535.049C741.452 534.937 741.403 534.708 741.512 534.537C741.62 534.366 741.845 534.319 742.014 534.43C742.183 534.542 742.232 534.771 742.123 534.942C742.015 535.113 741.79 535.16 741.621 535.049Z" fill="#A6C9D4"/>
<path d="M755.727 543.904C755.558 543.792 755.509 543.563 755.618 543.393C755.727 543.222 755.952 543.174 756.121 543.286C756.29 543.398 756.339 543.627 756.23 543.797C756.121 543.968 755.896 544.016 755.727 543.904Z" fill="#A6C9D4"/>
<path opacity="0.11" d="M761.462 553.144C761.293 553.033 761.244 552.804 761.352 552.633C761.461 552.462 761.686 552.414 761.855 552.526C762.024 552.638 762.073 552.867 761.964 553.038C761.856 553.208 761.631 553.256 761.462 553.144Z" fill="#A6C9D4"/>
<path d="M766.522 551.756C766.353 551.644 766.304 551.415 766.413 551.244C766.522 551.073 766.747 551.026 766.916 551.137C767.085 551.249 767.134 551.478 767.025 551.649C766.916 551.82 766.691 551.868 766.522 551.756Z" fill="#A6C9D4"/>
<path d="M743.184 547.922C743.015 547.81 742.966 547.581 743.075 547.41C743.184 547.239 743.409 547.192 743.578 547.303C743.747 547.415 743.796 547.644 743.687 547.815C743.578 547.986 743.353 548.034 743.184 547.922Z" fill="#A6C9D4"/>
<path d="M707.553 524.351C707.384 524.24 707.336 524.011 707.444 523.84C707.553 523.669 707.778 523.621 707.947 523.733C708.116 523.845 708.165 524.074 708.056 524.245C707.947 524.415 707.722 524.463 707.553 524.351Z" fill="#A6C9D4"/>
<path d="M695.468 503.57C695.299 503.458 695.251 503.229 695.359 503.059C695.468 502.888 695.693 502.84 695.862 502.952C696.031 503.064 696.08 503.293 695.971 503.463C695.862 503.634 695.637 503.682 695.468 503.57Z" fill="#A6C9D4"/>
<path d="M681.35 511.515C681.181 511.404 681.132 511.175 681.241 511.004C681.35 510.833 681.575 510.785 681.744 510.897C681.913 511.009 681.962 511.238 681.853 511.409C681.744 511.579 681.519 511.627 681.35 511.515Z" fill="#A6C9D4"/>
<path opacity="0.11" d="M766.616 554.896C766.447 554.785 766.398 554.556 766.507 554.385C766.615 554.214 766.841 554.166 767.009 554.278C767.178 554.39 767.227 554.619 767.119 554.79C767.01 554.96 766.785 555.008 766.616 554.896Z" fill="#A6C9D4"/>
<path opacity="0.11" d="M739.692 554.135C739.523 554.023 739.474 553.794 739.583 553.623C739.692 553.452 739.917 553.405 740.086 553.516C740.255 553.628 740.303 553.857 740.195 554.028C740.086 554.199 739.861 554.246 739.692 554.135Z" fill="#A6C9D4"/>
<path opacity="0.11" d="M709.373 531.709C709.204 531.597 709.155 531.368 709.264 531.197C709.372 531.027 709.597 530.979 709.766 531.091C709.935 531.202 709.984 531.431 709.875 531.602C709.767 531.773 709.542 531.821 709.373 531.709Z" fill="#A6C9D4"/>
<path d="M763.531 536.756C763.362 536.644 763.313 536.415 763.422 536.244C763.53 536.073 763.756 536.026 763.925 536.137C764.093 536.249 764.142 536.478 764.034 536.649C763.925 536.82 763.7 536.868 763.531 536.756Z" fill="#A6C9D4"/>
<path d="M738.575 519.775C738.406 519.663 738.357 519.434 738.466 519.264C738.574 519.093 738.8 519.045 738.968 519.157C739.137 519.269 739.186 519.498 739.078 519.669C738.969 519.839 738.744 519.887 738.575 519.775Z" fill="#A6C9D4"/>
<path d="M764.887 559.435C764.718 559.324 764.67 559.095 764.778 558.924C764.887 558.753 765.112 558.705 765.281 558.817C765.45 558.929 765.499 559.158 765.39 559.329C765.281 559.499 765.056 559.547 764.887 559.435Z" fill="#A6C9D4"/>
<path opacity="0.3" d="M758.043 538.808C757.874 538.697 757.825 538.468 757.933 538.297C758.042 538.126 758.267 538.078 758.436 538.19C758.605 538.302 758.654 538.531 758.545 538.702C758.437 538.872 758.212 538.92 758.043 538.808Z" fill="#A6C9D4"/>
<path opacity="0.3" d="M760.092 560.764C759.923 560.652 759.875 560.423 759.983 560.252C760.092 560.081 760.317 560.033 760.486 560.145C760.655 560.257 760.704 560.486 760.595 560.657C760.486 560.828 760.261 560.875 760.092 560.764Z" fill="#A6C9D4"/>
<path opacity="0.3" d="M689.314 499.738C689.145 499.626 689.096 499.397 689.205 499.227C689.314 499.056 689.539 499.008 689.708 499.12C689.877 499.232 689.926 499.461 689.817 499.631C689.708 499.802 689.483 499.85 689.314 499.738Z" fill="#A6C9D4"/>
<path opacity="0.11" d="M719.977 510.312C719.808 510.201 719.759 509.972 719.868 509.801C719.977 509.63 720.202 509.582 720.371 509.694C720.54 509.806 720.589 510.035 720.48 510.206C720.371 510.376 720.146 510.424 719.977 510.312Z" fill="#A6C9D4"/>
<path opacity="0.11" d="M689.167 509.822C688.998 509.71 688.949 509.481 689.058 509.311C689.166 509.14 689.391 509.092 689.56 509.204C689.729 509.316 689.778 509.545 689.669 509.715C689.561 509.886 689.336 509.934 689.167 509.822Z" fill="#A6C9D4"/>
<path opacity="0.3" d="M729.937 538.447C729.768 538.335 729.719 538.106 729.828 537.936C729.937 537.765 730.162 537.717 730.331 537.829C730.5 537.941 730.549 538.17 730.44 538.34C730.331 538.511 730.106 538.559 729.937 538.447Z" fill="#A6C9D4"/>
<path opacity="0.11" d="M723.475 527.07C723.306 526.958 723.257 526.729 723.366 526.559C723.475 526.388 723.7 526.34 723.869 526.452C724.038 526.564 724.087 526.793 723.978 526.963C723.869 527.134 723.644 527.182 723.475 527.07Z" fill="#A6C9D4"/>
<path d="M727.081 521.406C726.912 521.294 726.863 521.065 726.972 520.895C727.08 520.724 727.305 520.676 727.474 520.788C727.643 520.9 727.692 521.129 727.583 521.299C727.475 521.47 727.25 521.518 727.081 521.406Z" fill="#A6C9D4"/>
<path d="M727.22 546.359C727.051 546.247 727.003 546.018 727.111 545.848C727.22 545.677 727.445 545.629 727.614 545.741C727.783 545.853 727.832 546.082 727.723 546.252C727.614 546.423 727.389 546.471 727.22 546.359Z" fill="#A6C9D4"/>
<path d="M670.839 513.795C670.67 513.683 670.621 513.454 670.729 513.283C670.838 513.113 671.063 513.065 671.232 513.177C671.401 513.288 671.45 513.517 671.341 513.688C671.233 513.859 671.007 513.907 670.839 513.795Z" fill="#A6C9D4"/>
<path d="M740.801 507.841C740.935 507.993 740.922 508.227 740.773 508.364C740.624 508.501 740.394 508.489 740.26 508.337C740.126 508.185 740.138 507.951 740.288 507.814C740.437 507.677 740.666 507.689 740.801 507.841Z" fill="#A6C9D4"/>
<path d="M732.804 529.93C732.635 529.818 732.587 529.589 732.695 529.418C732.804 529.247 733.029 529.2 733.198 529.311C733.367 529.423 733.416 529.652 733.307 529.823C733.198 529.994 732.973 530.041 732.804 529.93Z" fill="#A6C9D4"/>
<path d="M753.395 561.066C753.226 560.954 753.177 560.725 753.286 560.555C753.395 560.384 753.62 560.336 753.789 560.448C753.958 560.56 754.007 560.789 753.898 560.96C753.789 561.13 753.564 561.178 753.395 561.066Z" fill="#A6C9D4"/>
<path d="M707.646 540.986C707.477 540.874 707.428 540.645 707.537 540.475C707.646 540.304 707.871 540.256 708.04 540.368C708.209 540.48 708.258 540.709 708.149 540.879C708.04 541.05 707.815 541.098 707.646 540.986Z" fill="#A6C9D4"/>
<path d="M671.548 501.006C671.38 500.894 671.331 500.665 671.439 500.494C671.548 500.323 671.773 500.276 671.942 500.387C672.111 500.499 672.16 500.728 672.051 500.899C671.943 501.07 671.717 501.118 671.548 501.006Z" fill="#A6C9D4"/>
<path d="M736.866 520.009C737 520.161 736.988 520.395 736.839 520.532C736.689 520.669 736.46 520.657 736.326 520.505C736.192 520.353 736.204 520.119 736.353 519.982C736.502 519.845 736.732 519.857 736.866 520.009Z" fill="#A6C9D4"/>
<path d="M673.46 489.248C673.291 489.136 673.242 488.907 673.35 488.736C673.459 488.566 673.684 488.518 673.853 488.63C674.022 488.741 674.071 488.97 673.962 489.141C673.854 489.312 673.629 489.36 673.46 489.248Z" fill="#A6C9D4"/>
<path d="M732.036 530.859C732.17 531.01 732.158 531.244 732.009 531.381C731.859 531.518 731.63 531.506 731.496 531.355C731.362 531.203 731.374 530.969 731.523 530.832C731.672 530.695 731.902 530.707 732.036 530.859Z" fill="#A6C9D4"/>
<path opacity="0.3" d="M713.679 512.539C713.51 512.427 713.462 512.198 713.57 512.027C713.679 511.857 713.904 511.809 714.073 511.921C714.242 512.032 714.291 512.261 714.182 512.432C714.073 512.603 713.848 512.651 713.679 512.539Z" fill="#A6C9D4"/>
<path d="M730.408 500.715C730.239 500.603 730.19 500.374 730.299 500.203C730.407 500.032 730.633 499.985 730.801 500.096C730.97 500.208 731.019 500.437 730.911 500.608C730.802 500.779 730.577 500.826 730.408 500.715Z" fill="#A6C9D4"/>
<path d="M702.741 510.75C702.572 510.638 702.523 510.409 702.632 510.238C702.74 510.068 702.966 510.02 703.134 510.132C703.303 510.243 703.352 510.472 703.244 510.643C703.135 510.814 702.91 510.862 702.741 510.75Z" fill="#A6C9D4"/>
<path opacity="0.3" d="M699.138 498.896C698.969 498.785 698.92 498.556 699.029 498.385C699.138 498.214 699.363 498.166 699.532 498.278C699.701 498.39 699.75 498.619 699.641 498.79C699.532 498.96 699.307 499.008 699.138 498.896Z" fill="#A6C9D4"/>
<path opacity="0.3" d="M675.427 500.019C675.258 499.908 675.21 499.679 675.318 499.508C675.427 499.337 675.652 499.289 675.821 499.401C675.99 499.513 676.039 499.742 675.93 499.913C675.821 500.083 675.596 500.131 675.427 500.019Z" fill="#A6C9D4"/>
<path opacity="0.3" d="M732.871 519.937C733.005 520.089 732.993 520.323 732.844 520.46C732.694 520.597 732.465 520.585 732.331 520.433C732.197 520.281 732.209 520.047 732.358 519.91C732.507 519.773 732.737 519.785 732.871 519.937Z" fill="#A6C9D4"/>
<path opacity="0.3" d="M694.339 513.002C694.17 512.89 694.121 512.661 694.229 512.49C694.338 512.32 694.563 512.272 694.732 512.384C694.901 512.495 694.95 512.724 694.841 512.895C694.733 513.066 694.507 513.114 694.339 513.002Z" fill="#A6C9D4"/>
<path opacity="0.11" d="M685.309 499.455C685.14 499.343 685.091 499.114 685.2 498.943C685.309 498.773 685.534 498.725 685.703 498.837C685.872 498.948 685.921 499.177 685.812 499.348C685.703 499.519 685.478 499.567 685.309 499.455Z" fill="#A6C9D4"/>
<path opacity="0.11" d="M644.645 510.127C644.476 510.015 644.427 509.786 644.536 509.615C644.645 509.445 644.87 509.397 645.039 509.509C645.208 509.62 645.257 509.849 645.148 510.02C645.039 510.191 644.814 510.239 644.645 510.127Z" fill="#A6C9D4"/>
<path opacity="0.11" d="M698.78 533.033C698.86 533.124 698.853 533.265 698.763 533.347C698.674 533.429 698.536 533.422 698.455 533.331C698.375 533.24 698.382 533.099 698.472 533.017C698.561 532.935 698.699 532.942 698.78 533.033Z" fill="#A6C9D4"/>
<path d="M642.23 511.369C642.061 511.257 642.012 511.028 642.121 510.857C642.23 510.687 642.455 510.639 642.624 510.751C642.793 510.863 642.842 511.092 642.733 511.262C642.624 511.433 642.399 511.481 642.23 511.369Z" fill="#A6C9D4"/>
<path d="M701.428 532.469C701.508 532.56 701.501 532.7 701.412 532.783C701.322 532.865 701.184 532.858 701.104 532.766C701.023 532.675 701.031 532.535 701.12 532.453C701.21 532.37 701.347 532.378 701.428 532.469Z" fill="#A6C9D4"/>
<path d="M653.168 513.158C652.999 513.046 652.95 512.817 653.058 512.647C653.167 512.476 653.392 512.428 653.561 512.54C653.73 512.652 653.779 512.881 653.67 513.051C653.562 513.222 653.337 513.27 653.168 513.158Z" fill="#A6C9D4"/>
<path d="M691.318 527.853C691.398 527.945 691.391 528.085 691.301 528.167C691.212 528.25 691.074 528.242 690.993 528.151C690.913 528.06 690.92 527.92 691.01 527.837C691.099 527.755 691.237 527.762 691.318 527.853Z" fill="#A6C9D4"/>
<path opacity="0.11" d="M658.901 522.396C658.732 522.285 658.683 522.056 658.792 521.885C658.901 521.714 659.126 521.666 659.295 521.778C659.464 521.89 659.512 522.119 659.404 522.29C659.295 522.46 659.07 522.508 658.901 522.396Z" fill="#A6C9D4"/>
<path opacity="0.11" d="M688.125 517.422C688.206 517.513 688.198 517.653 688.109 517.736C688.019 517.818 687.882 517.811 687.801 517.72C687.721 517.629 687.728 517.488 687.817 517.406C687.907 517.324 688.045 517.331 688.125 517.422Z" fill="#A6C9D4"/>
<path d="M663.962 521.008C663.793 520.896 663.744 520.667 663.852 520.496C663.961 520.325 664.186 520.278 664.355 520.389C664.524 520.501 664.573 520.73 664.464 520.901C664.356 521.072 664.131 521.119 663.962 521.008Z" fill="#A6C9D4"/>
<path d="M682.883 517.424C682.964 517.515 682.956 517.655 682.867 517.738C682.777 517.82 682.639 517.813 682.559 517.722C682.478 517.63 682.486 517.49 682.575 517.408C682.665 517.326 682.803 517.333 682.883 517.424Z" fill="#A6C9D4"/>
<path d="M697.701 549.01C697.532 548.898 697.483 548.669 697.592 548.498C697.7 548.327 697.925 548.28 698.094 548.391C698.263 548.503 698.312 548.732 698.204 548.903C698.095 549.074 697.87 549.121 697.701 549.01Z" fill="#A6C9D4"/>
<path opacity="0.11" d="M710.467 550.115C710.298 550.003 710.25 549.774 710.358 549.604C710.467 549.433 710.692 549.385 710.861 549.497C711.03 549.609 711.079 549.838 710.97 550.008C710.861 550.179 710.636 550.227 710.467 550.115Z" fill="#A6C9D4"/>
<path opacity="0.11" d="M698.711 556.545C698.542 556.433 698.493 556.204 698.601 556.033C698.71 555.863 698.935 555.815 699.104 555.927C699.273 556.038 699.322 556.267 699.213 556.438C699.105 556.609 698.88 556.657 698.711 556.545Z" fill="#A6C9D4"/>
<path d="M789.511 546.972C789.646 547.124 789.633 547.358 789.484 547.495C789.335 547.632 789.105 547.62 788.971 547.468C788.837 547.316 788.849 547.082 788.999 546.945C789.148 546.808 789.377 546.82 789.511 546.972Z" fill="#A6C9D4"/>
<path opacity="0.3" d="M754.529 521.607C754.36 521.496 754.311 521.267 754.42 521.096C754.529 520.925 754.754 520.877 754.923 520.989C755.092 521.101 755.14 521.33 755.032 521.501C754.923 521.671 754.698 521.719 754.529 521.607Z" fill="#A6C9D4"/>
<path opacity="0.3" d="M743.674 485.374C743.808 485.526 743.795 485.76 743.646 485.897C743.497 486.034 743.268 486.022 743.133 485.87C742.999 485.719 743.012 485.485 743.161 485.348C743.31 485.211 743.539 485.223 743.674 485.374Z" fill="#A6C9D4"/>
<path opacity="0.11" d="M737.795 520.146C737.626 520.035 737.577 519.806 737.685 519.635C737.794 519.464 738.019 519.416 738.188 519.528C738.357 519.64 738.406 519.869 738.297 520.04C738.189 520.21 737.964 520.258 737.795 520.146Z" fill="#A6C9D4"/>
<path opacity="0.3" d="M699.534 493.414C699.365 493.302 699.316 493.073 699.425 492.902C699.533 492.732 699.758 492.684 699.927 492.796C700.096 492.907 700.145 493.136 700.037 493.307C699.928 493.478 699.703 493.526 699.534 493.414Z" fill="#A6C9D4"/>
<path opacity="0.3" d="M797.759 502.917C797.812 502.978 797.807 503.072 797.748 503.126C797.688 503.181 797.596 503.177 797.542 503.116C797.489 503.055 797.494 502.961 797.553 502.907C797.613 502.852 797.705 502.857 797.759 502.917Z" fill="#A6C9D4"/>
<path opacity="0.3" d="M801.353 481.171C801.407 481.232 801.402 481.326 801.342 481.38C801.283 481.435 801.191 481.43 801.137 481.37C801.084 481.309 801.088 481.215 801.148 481.161C801.208 481.106 801.3 481.11 801.353 481.171Z" fill="#A6C9D4"/>
<path d="M751.823 541.21C751.755 541.165 751.735 541.073 751.779 541.005C751.822 540.936 751.913 540.917 751.98 540.962C752.048 541.007 752.067 541.098 752.024 541.167C751.98 541.235 751.89 541.254 751.823 541.21Z" fill="#A6C9D4"/>
<path d="M800.557 497.288C800.611 497.349 800.606 497.443 800.547 497.498C800.487 497.552 800.395 497.548 800.341 497.487C800.288 497.426 800.293 497.333 800.352 497.278C800.412 497.223 800.504 497.228 800.557 497.288Z" fill="#A6C9D4"/>
<path d="M756.04 498.971C756.067 499.002 756.065 499.049 756.035 499.076C756.005 499.103 755.959 499.101 755.932 499.071C755.906 499.04 755.908 498.993 755.938 498.966C755.968 498.939 756.014 498.941 756.04 498.971Z" fill="#A6C9D4"/>
<path opacity="0.11" d="M764.614 548.959C764.445 548.847 764.396 548.618 764.505 548.447C764.613 548.277 764.839 548.229 765.008 548.341C765.176 548.452 765.225 548.681 765.117 548.852C765.008 549.023 764.783 549.071 764.614 548.959Z" fill="#A6C9D4"/>
<path opacity="0.11" d="M722.791 531.473C722.622 531.361 722.573 531.132 722.682 530.961C722.79 530.79 723.015 530.742 723.184 530.854C723.353 530.966 723.402 531.195 723.293 531.366C723.185 531.537 722.96 531.584 722.791 531.473Z" fill="#A6C9D4"/>
<path opacity="0.11" d="M742.325 521.689C742.406 521.781 742.399 521.921 742.309 522.003C742.22 522.085 742.082 522.078 742.001 521.987C741.921 521.896 741.928 521.756 742.018 521.673C742.107 521.591 742.245 521.598 742.325 521.689Z" fill="#A6C9D4"/>
<path opacity="0.3" d="M751.569 547.193C751.4 547.081 751.351 546.852 751.46 546.682C751.569 546.511 751.794 546.463 751.963 546.575C752.132 546.687 752.18 546.916 752.072 547.086C751.963 547.257 751.738 547.305 751.569 547.193Z" fill="#A6C9D4"/>
<path d="M719.706 513.334C719.537 513.222 719.488 512.993 719.597 512.822C719.705 512.652 719.93 512.604 720.099 512.716C720.268 512.827 720.317 513.056 720.208 513.227C720.1 513.398 719.875 513.446 719.706 513.334Z" fill="#A6C9D4"/>
<path d="M740.7 540.025C740.781 540.116 740.774 540.257 740.684 540.339C740.595 540.421 740.457 540.414 740.376 540.323C740.296 540.232 740.303 540.092 740.393 540.009C740.482 539.927 740.62 539.934 740.7 540.025Z" fill="#A6C9D4"/>
<path d="M721.062 536.014C720.893 535.902 720.844 535.673 720.953 535.502C721.062 535.331 721.287 535.283 721.456 535.395C721.625 535.507 721.674 535.736 721.565 535.907C721.456 536.078 721.231 536.125 721.062 536.014Z" fill="#A6C9D4"/>
<path opacity="0.3" d="M760.738 522.442C760.67 522.397 760.65 522.306 760.694 522.237C760.738 522.169 760.828 522.15 760.895 522.194C760.963 522.239 760.982 522.331 760.939 522.399C760.895 522.468 760.805 522.487 760.738 522.442Z" fill="#A6C9D4"/>
<path opacity="0.3" d="M779.453 537.192C779.386 537.147 779.366 537.056 779.41 536.987C779.453 536.919 779.543 536.9 779.611 536.944C779.679 536.989 779.698 537.081 779.655 537.149C779.611 537.218 779.521 537.237 779.453 537.192Z" fill="#A6C9D4"/>
<path opacity="0.3" d="M791.299 529.165C791.232 529.12 791.212 529.028 791.256 528.96C791.299 528.892 791.389 528.872 791.457 528.917C791.524 528.962 791.544 529.053 791.5 529.122C791.457 529.19 791.367 529.209 791.299 529.165Z" fill="#A6C9D4"/>
<path d="M779.36 542.811C779.292 542.766 779.273 542.675 779.316 542.606C779.36 542.538 779.45 542.519 779.517 542.564C779.585 542.608 779.604 542.7 779.561 542.768C779.517 542.837 779.427 542.856 779.36 542.811Z" fill="#A6C9D4"/>
<path d="M803.534 553.358C803.467 553.313 803.447 553.222 803.491 553.153C803.534 553.085 803.624 553.066 803.692 553.11C803.76 553.155 803.779 553.247 803.736 553.315C803.692 553.384 803.602 553.403 803.534 553.358Z" fill="#A6C9D4"/>
<path d="M709.99 537.395C709.922 537.35 709.902 537.259 709.946 537.19C709.989 537.122 710.08 537.103 710.147 537.148C710.215 537.192 710.234 537.284 710.191 537.352C710.147 537.421 710.057 537.44 709.99 537.395Z" fill="#A6C9D4"/>
<path opacity="0.3" d="M779.651 554.221C779.583 554.177 779.564 554.085 779.607 554.017C779.651 553.948 779.741 553.929 779.808 553.974C779.876 554.018 779.895 554.11 779.852 554.178C779.808 554.247 779.718 554.266 779.651 554.221Z" fill="#A6C9D4"/>
<path opacity="0.3" d="M798.726 553.819C798.658 553.774 798.639 553.683 798.682 553.614C798.726 553.546 798.816 553.527 798.883 553.571C798.951 553.616 798.971 553.708 798.927 553.776C798.884 553.844 798.793 553.864 798.726 553.819Z" fill="#A6C9D4"/>
<path opacity="0.3" d="M778.959 532.692C778.892 532.647 778.872 532.556 778.916 532.487C778.959 532.419 779.049 532.4 779.117 532.444C779.184 532.489 779.204 532.581 779.16 532.649C779.117 532.718 779.027 532.737 778.959 532.692Z" fill="#A6C9D4"/>
<path opacity="0.11" d="M785.493 532.28C785.426 532.235 785.406 532.144 785.45 532.075C785.493 532.007 785.583 531.988 785.651 532.032C785.719 532.077 785.738 532.169 785.695 532.237C785.651 532.305 785.561 532.325 785.493 532.28Z" fill="#A6C9D4"/>
<path opacity="0.3" d="M758.127 551.048C758.093 551.026 758.083 550.98 758.105 550.946C758.127 550.912 758.172 550.902 758.205 550.924C758.239 550.947 758.249 550.993 758.227 551.027C758.205 551.061 758.16 551.07 758.127 551.048Z" fill="#A6C9D4"/>
<path d="M747.832 544.238C747.798 544.215 747.788 544.169 747.81 544.135C747.832 544.101 747.877 544.091 747.91 544.114C747.944 544.136 747.954 544.182 747.932 544.216C747.911 544.25 747.865 544.26 747.832 544.238Z" fill="#A6C9D4"/>
<g opacity="0.2" filter="url(#filter6_f_232_166174)">
<path d="M1768.88 1542.32C1768.88 979.991 1280.19 524.137 677.353 524.137C74.5195 524.137 -414.174 979.991 -414.174 1542.32" stroke="url(#paint2_linear_232_166174)" stroke-width="1.46487"/>
</g>
<g opacity="0.2" filter="url(#filter7_f_232_166174)">
<path d="M1768.88 1567.53C1768.88 1005.2 1280.19 549.35 677.353 549.35C74.5195 549.35 -414.174 1005.2 -414.174 1567.53" stroke="url(#paint3_linear_232_166174)" stroke-width="1.46487"/>
</g>
<g opacity="0.2" filter="url(#filter8_f_232_166174)">
<path d="M1757.54 1567.53C1757.54 1011.05 1273.92 559.926 677.353 559.926C80.7812 559.926 -402.836 1011.05 -402.836 1567.53" stroke="url(#paint4_linear_232_166174)" stroke-width="14"/>
</g>
<g filter="url(#filter9_f_232_166174)">
<path d="M1690.76 1519.46C1690.76 993.288 1237.04 566.744 677.354 566.744C117.665 566.744 -336.053 993.288 -336.053 1519.46" stroke="url(#paint5_linear_232_166174)" stroke-width="1.46487"/>
</g>
<path d="M677.354 566.391C117.665 566.391 -336.053 986.458 -336.053 1504.64H677.354H1690.76C1690.76 986.458 1237.04 566.391 677.354 566.391Z" fill="#05070A" stroke="url(#paint6_linear_232_166174)" stroke-width="1.46487"/>
</g>
<defs>
<filter id="filter0_f_232_166174" x="666.71" y="324.334" width="4.39458" height="229.252" filterUnits="userSpaceOnUse" color-interpolation-filters="sRGB">
<feFlood flood-opacity="0" result="BackgroundImageFix"/>
<feBlend mode="normal" in="SourceGraphic" in2="BackgroundImageFix" result="shape"/>
<feGaussianBlur stdDeviation="0.732435" result="effect1_foregroundBlur_232_166174"/>
</filter>
<filter id="filter1_f_232_166174" x="612.51" y="322.869" width="112.795" height="253.422" filterUnits="userSpaceOnUse" color-interpolation-filters="sRGB">
<feFlood flood-opacity="0" result="BackgroundImageFix"/>
<feBlend mode="normal" in="SourceGraphic" in2="BackgroundImageFix" result="shape"/>
<feGaussianBlur stdDeviation="1.46487" result="effect1_foregroundBlur_232_166174"/>
</filter>
<filter id="filter2_f_232_166174" x="477.009" y="259.88" width="383.796" height="366.217" filterUnits="userSpaceOnUse" color-interpolation-filters="sRGB">
<feFlood flood-opacity="0" result="BackgroundImageFix"/>
<feBlend mode="normal" in="SourceGraphic" in2="BackgroundImageFix" result="shape"/>
<feGaussianBlur stdDeviation="32.9596" result="effect1_foregroundBlur_232_166174"/>
</filter>
<filter id="filter3_f_232_166174" x="579.55" y="303.826" width="178.714" height="278.325" filterUnits="userSpaceOnUse" color-interpolation-filters="sRGB">
<feFlood flood-opacity="0" result="BackgroundImageFix"/>
<feBlend mode="normal" in="SourceGraphic" in2="BackgroundImageFix" result="shape"/>
<feGaussianBlur stdDeviation="10.9865" result="effect1_foregroundBlur_232_166174"/>
</filter>
<filter id="filter4_f_232_166174" x="652.794" y="320.672" width="32.2267" height="236.576" filterUnits="userSpaceOnUse" color-interpolation-filters="sRGB">
<feFlood flood-opacity="0" result="BackgroundImageFix"/>
<feBlend mode="normal" in="SourceGraphic" in2="BackgroundImageFix" result="shape"/>
<feGaussianBlur stdDeviation="2.56352" result="effect1_foregroundBlur_232_166174"/>
</filter>
<filter id="filter5_f_232_166174" x="618.37" y="511.105" width="100.344" height="73.243" filterUnits="userSpaceOnUse" color-interpolation-filters="sRGB">
<feFlood flood-opacity="0" result="BackgroundImageFix"/>
<feBlend mode="normal" in="SourceGraphic" in2="BackgroundImageFix" result="shape"/>
<feGaussianBlur stdDeviation="10.9865" result="effect1_foregroundBlur_232_166174"/>
</filter>
<filter id="filter6_f_232_166174" x="-452.993" y="485.318" width="2260.69" height="1095.09" filterUnits="userSpaceOnUse" color-interpolation-filters="sRGB">
<feFlood flood-opacity="0" result="BackgroundImageFix"/>
<feBlend mode="normal" in="SourceGraphic" in2="BackgroundImageFix" result="shape"/>
<feGaussianBlur stdDeviation="19.0433" result="effect1_foregroundBlur_232_166174"/>
</filter>
<filter id="filter7_f_232_166174" x="-416.371" y="547.152" width="2187.45" height="1021.84" filterUnits="userSpaceOnUse" color-interpolation-filters="sRGB">
<feFlood flood-opacity="0" result="BackgroundImageFix"/>
<feBlend mode="normal" in="SourceGraphic" in2="BackgroundImageFix" result="shape"/>
<feGaussianBlur stdDeviation="0.732435" result="effect1_foregroundBlur_232_166174"/>
</filter>
<filter id="filter8_f_232_166174" x="-419.296" y="543.466" width="2193.3" height="1033.52" filterUnits="userSpaceOnUse" color-interpolation-filters="sRGB">
<feFlood flood-opacity="0" result="BackgroundImageFix"/>
<feBlend mode="normal" in="SourceGraphic" in2="BackgroundImageFix" result="shape"/>
<feGaussianBlur stdDeviation="4.73" result="effect1_foregroundBlur_232_166174"/>
</filter>
<filter id="filter9_f_232_166174" x="-338.25" y="564.547" width="2031.21" height="956.375" filterUnits="userSpaceOnUse" color-interpolation-filters="sRGB">
<feFlood flood-opacity="0" result="BackgroundImageFix"/>
<feBlend mode="normal" in="SourceGraphic" in2="BackgroundImageFix" result="shape"/>
<feGaussianBlur stdDeviation="0.732435" result="effect1_foregroundBlur_232_166174"/>
</filter>
<linearGradient id="paint0_linear_232_166174" x1="668.907" y1="325.799" x2="668.907" y2="552.121" gradientUnits="userSpaceOnUse">
<stop stop-color="#1CF7C3" stop-opacity="0"/>
<stop offset="1" stop-color="#1CF7C3"/>
</linearGradient>
<linearGradient id="paint1_linear_232_166174" x1="668.907" y1="325.799" x2="668.907" y2="573.362" gradientUnits="userSpaceOnUse">
<stop stop-color="#1CF7C3" stop-opacity="0"/>
<stop offset="1" stop-color="#1CF7C3"/>
</linearGradient>
<linearGradient id="paint2_linear_232_166174" x1="1143.78" y1="524.137" x2="183.814" y2="524.137" gradientUnits="userSpaceOnUse">
<stop stop-color="#1CF7C3" stop-opacity="0"/>
<stop offset="0.510417" stop-color="#1CF7C3"/>
<stop offset="1" stop-color="#1CF7C3" stop-opacity="0"/>
</linearGradient>
<linearGradient id="paint3_linear_232_166174" x1="1143.78" y1="549.35" x2="183.814" y2="549.35" gradientUnits="userSpaceOnUse">
<stop stop-color="#1CF7C3" stop-opacity="0"/>
<stop offset="0.510417" stop-color="#1CF7C3"/>
<stop offset="1" stop-color="#1CF7C3" stop-opacity="0"/>
</linearGradient>
<linearGradient id="paint4_linear_232_166174" x1="1138.94" y1="559.926" x2="188.94" y2="559.926" gradientUnits="userSpaceOnUse">
<stop stop-color="#1CF7C3" stop-opacity="0"/>
<stop offset="0.510417" stop-color="#1CF7C3"/>
<stop offset="1" stop-color="#1CF7C3" stop-opacity="0"/>
</linearGradient>
<linearGradient id="paint5_linear_232_166174" x1="1110.4" y1="566.744" x2="219.137" y2="566.744" gradientUnits="userSpaceOnUse">
<stop stop-color="#1CF7C3" stop-opacity="0"/>
<stop offset="0.510417" stop-color="#1CF7C3"/>
<stop offset="1" stop-color="#1CF7C3" stop-opacity="0"/>
</linearGradient>
<linearGradient id="paint6_linear_232_166174" x1="1110.4" y1="566.391" x2="219.137" y2="566.391" gradientUnits="userSpaceOnUse">
<stop stop-color="#1CF7C3" stop-opacity="0"/>
<stop offset="0.510417" stop-color="#1CF7C3"/>
<stop offset="1" stop-color="#1CF7C3" stop-opacity="0"/>
</linearGradient>
<clipPath id="clip0_232_166174">
<rect width="1337" height="733" fill="white"/>
</clipPath>
</defs>
</svg>
