<svg xmlns="http://www.w3.org/2000/svg" xml:space="preserve" id="Layer_1" x="0" y="0" viewBox="0 0 270 270"><style>.st0{fill:#e01e5a}.st1{fill:#36c5f0}.st2{fill:#2eb67d}.st3{fill:#ecb22e}</style><path d="M56.7 170.6c0 15.6-12.8 28.4-28.4 28.4S0 186.2 0 170.6s12.8-28.4 28.4-28.4h28.4v28.4zM71 170.6c0-15.6 12.8-28.4 28.4-28.4s28.4 12.8 28.4 28.4v71c0 15.6-12.8 28.4-28.4 28.4S71 257.2 71 241.6z" class="st0"/><path d="M99.4 56.7C83.8 56.7 71 44 71 28.4S83.8 0 99.4 0s28.4 12.8 28.4 28.4v28.4H99.4zM99.4 71c15.6 0 28.4 12.8 28.4 28.4s-12.8 28.4-28.4 28.4h-71C12.8 127.7 0 115 0 99.4S12.8 71 28.4 71z" class="st1"/><path d="M213.3 99.4c0-15.6 12.8-28.4 28.4-28.4s28.4 12.8 28.4 28.4-12.8 28.4-28.4 28.4h-28.4zM199 99.4c0 15.6-12.8 28.4-28.4 28.4s-28.4-12.8-28.4-28.4v-71C142.3 12.8 155 0 170.6 0S199 12.8 199 28.4z" class="st2"/><path d="M170.6 213.3c15.6 0 28.4 12.8 28.4 28.4s-12.8 28.4-28.4 28.4-28.4-12.8-28.4-28.4v-28.4zM170.6 199c-15.6 0-28.4-12.8-28.4-28.4s12.8-28.4 28.4-28.4h71c15.6 0 28.4 12.8 28.4 28.4S257.2 199 241.6 199z" class="st3"/></svg>