<svg width="1451" height="913" viewBox="0 0 1451 913" fill="none" xmlns="http://www.w3.org/2000/svg">
<path opacity="0.1" fill-rule="evenodd" clip-rule="evenodd" d="M403.977 700.773V746.102H358V747.398H403.977V792.727H358V794.023H403.977V840H405.273V794.023H450.602V840H451.898V794.023H497.227V840H498.523V794.023H543.852V840H545.148V794.023H590.477V840H591.773V794.023H637.102V840H638.398V794.023H683.727V840H685.023V794.023H730.352V840H731.648V794.023H776.977V840H778.273V794.023H823.602V840H824.898V794.023H870.227V840H871.523V794.023H916.852V840H918.148V794.023H963.477V840H964.773V794.023H1010.1V840H1011.4V794.023H1056.73V840H1058.02V794.023H1104V792.727H1058.02V747.398H1104V746.102H1058.02V700.773H1104V699.477H1058.02V654.148H1104V652.852H1058.02V607.523H1104V606.227H1058.02V560.898H1104V559.602H1058.02V514.273H1104V512.977H1058.02V467.648H1104V466.352H1058.02V421.023H1104V419.727H1058.02V374.398H1104V373.102H1058.02V327.773H1104V326.477H1058.02V281.148H1104V279.852H1058.02V234.523H1104V233.227H1058.02V187.898H1104V186.602H1058.02V141.273H1104V139.977H1058.02V94H1056.73V139.977H1011.4V94H1010.1V139.977H964.773V94H963.477V139.977H918.148V94H916.852V139.977H871.523V94H870.227V139.977H824.898V94H823.602V139.977H778.273V94H776.977V139.977H731.648V94H730.352V139.977H685.023V94H683.727V139.977H638.398V94H637.102V139.977H591.773V94H590.477V139.977H545.148V94H543.852V139.977H498.523V94H497.227V139.977H451.898V94H450.602V139.977H405.273V94H403.977V139.977H358V141.273H403.977V186.602H358V187.898H403.977V233.227H358V234.523H403.977V279.852H358V281.148H403.977V326.477H358V327.773H403.977V373.102H358V374.398H403.977V419.727H358V421.023H403.977V466.352H358V467.648H403.977V512.977H358V514.273H403.977V559.602H358V560.898H403.977V606.227H358V607.523H403.977V652.852H358V654.148H403.977V699.477H358V700.773H403.977ZM1056.73 792.727V747.398H1011.4V792.727H1056.73ZM1010.1 792.727V747.398H964.773V792.727H1010.1ZM963.477 792.727V747.398H918.148V792.727H963.477ZM916.852 792.727V747.398H871.523V792.727H916.852ZM870.227 792.727V747.398H824.898V792.727H870.227ZM823.602 792.727V747.398H778.273V792.727H823.602ZM776.977 792.727V747.398H731.648V792.727H776.977ZM730.352 792.727V747.398H685.023V792.727H730.352ZM683.727 792.727V747.398H638.398V792.727H683.727ZM637.102 792.727V747.398H591.773V792.727H637.102ZM590.477 792.727V747.398H545.148V792.727H590.477ZM543.852 792.727V747.398H498.523V792.727H543.852ZM497.227 792.727V747.398H451.898V792.727H497.227ZM450.602 792.727V747.398H405.273V792.727H450.602ZM450.602 746.102H405.273V700.773H450.602V746.102ZM497.227 746.102H451.898V700.773H497.227V746.102ZM543.852 746.102H498.523V700.773H543.852V746.102ZM590.477 746.102H545.148V700.773H590.477V746.102ZM637.102 746.102H591.773V700.773H637.102V746.102ZM683.727 746.102H638.398V700.773H683.727V746.102ZM730.352 746.102H685.023V700.773H730.352V746.102ZM776.977 746.102H731.648V700.773H776.977V746.102ZM823.602 746.102H778.273V700.773H823.602V746.102ZM870.227 746.102H824.898V700.773H870.227V746.102ZM916.852 746.102H871.523V700.773H916.852V746.102ZM963.477 746.102H918.148V700.773H963.477V746.102ZM1010.1 746.102H964.773V700.773H1010.1V746.102ZM1056.73 746.102H1011.4V700.773H1056.73V746.102ZM1056.73 141.273H1011.4V186.602H1056.73V141.273ZM1056.73 187.898H1011.4V233.227H1056.73V187.898ZM1056.73 234.523H1011.4V279.852H1056.73V234.523ZM1056.73 281.148H1011.4V326.477H1056.73V281.148ZM1056.73 327.773H1011.4V373.102H1056.73V327.773ZM1056.73 374.398H1011.4V419.727H1056.73V374.398ZM1056.73 421.023H1011.4V466.352H1056.73V421.023ZM1056.73 467.648H1011.4V512.977H1056.73V467.648ZM1056.73 514.273H1011.4V559.602H1056.73V514.273ZM1056.73 560.898H1011.4V606.227H1056.73V560.898ZM1056.73 607.523H1011.4V652.852H1056.73V607.523ZM1056.73 654.148H1011.4V699.477H1056.73V654.148ZM1010.1 654.148V699.477H964.773V654.148H1010.1ZM1010.1 607.523V652.852H964.773V607.523H1010.1ZM1010.1 560.898V606.227H964.773V560.898H1010.1ZM1010.1 514.273V559.602H964.773V514.273H1010.1ZM1010.1 467.648V512.977H964.773V467.648H1010.1ZM1010.1 421.023V466.352H964.773V421.023H1010.1ZM1010.1 374.398V419.727H964.773V374.398H1010.1ZM1010.1 327.773V373.102H964.773V327.773H1010.1ZM1010.1 281.148V326.477H964.773V281.148H1010.1ZM1010.1 234.523V279.852H964.773V234.523H1010.1ZM1010.1 187.898V233.227H964.773V187.898H1010.1ZM1010.1 141.273V186.602H964.773V141.273H1010.1ZM405.273 699.477H450.602V654.148H405.273V699.477ZM451.898 699.477H497.227V654.148H451.898V699.477ZM498.523 699.477H543.852V654.148H498.523V699.477ZM545.148 699.477H590.477V654.148H545.148V699.477ZM591.773 699.477H637.102V654.148H591.773V699.477ZM638.398 699.477H683.727V654.148H638.398V699.477ZM685.023 699.477H730.352V654.148H685.023V699.477ZM731.648 699.477H776.977V654.148H731.648V699.477ZM778.273 699.477H823.602V654.148H778.273V699.477ZM824.898 699.477H870.227V654.148H824.898V699.477ZM871.523 699.477H916.852V654.148H871.523V699.477ZM918.148 699.477H963.477V654.148H918.148V699.477ZM963.477 607.523V652.852H918.148V607.523H963.477ZM963.477 560.898V606.227H918.148V560.898H963.477ZM963.477 514.273V559.602H918.148V514.273H963.477ZM963.477 467.648V512.977H918.148V467.648H963.477ZM963.477 421.023V466.352H918.148V421.023H963.477ZM963.477 374.398V419.727H918.148V374.398H963.477ZM963.477 327.773V373.102H918.148V327.773H963.477ZM963.477 281.148V326.477H918.148V281.148H963.477ZM963.477 234.523V279.852H918.148V234.523H963.477ZM963.477 187.898V233.227H918.148V187.898H963.477ZM963.477 141.273V186.602H918.148V141.273H963.477ZM405.273 652.852H450.602V607.523H405.273V652.852ZM451.898 652.852H497.227V607.523H451.898V652.852ZM498.523 652.852H543.852V607.523H498.523V652.852ZM545.148 652.852H590.477V607.523H545.148V652.852ZM591.773 652.852H637.102V607.523H591.773V652.852ZM638.398 652.852H683.727V607.523H638.398V652.852ZM685.023 652.852H730.352V607.523H685.023V652.852ZM731.648 652.852H776.977V607.523H731.648V652.852ZM778.273 652.852H823.602V607.523H778.273V652.852ZM824.898 652.852H870.227V607.523H824.898V652.852ZM871.523 652.852H916.852V607.523H871.523V652.852ZM916.852 560.898V606.227H871.523V560.898H916.852ZM916.852 514.273V559.602H871.523V514.273H916.852ZM916.852 467.648V512.977H871.523V467.648H916.852ZM916.852 421.023V466.352H871.523V421.023H916.852ZM916.852 374.398V419.727H871.523V374.398H916.852ZM916.852 327.773V373.102H871.523V327.773H916.852ZM916.852 281.148V326.477H871.523V281.148H916.852ZM916.852 234.523V279.852H871.523V234.523H916.852ZM916.852 187.898V233.227H871.523V187.898H916.852ZM916.852 141.273V186.602H871.523V141.273H916.852ZM405.273 606.227H450.602V560.898H405.273V606.227ZM451.898 606.227H497.227V560.898H451.898V606.227ZM498.523 606.227H543.852V560.898H498.523V606.227ZM545.148 606.227H590.477V560.898H545.148V606.227ZM591.773 606.227H637.102V560.898H591.773V606.227ZM638.398 606.227H683.727V560.898H638.398V606.227ZM685.023 606.227H730.352V560.898H685.023V606.227ZM731.648 606.227H776.977V560.898H731.648V606.227ZM778.273 606.227H823.602V560.898H778.273V606.227ZM824.898 606.227H870.227V560.898H824.898V606.227ZM870.227 514.273V559.602H824.898V514.273H870.227ZM870.227 467.648V512.977H824.898V467.648H870.227ZM870.227 421.023V466.352H824.898V421.023H870.227ZM870.227 374.398V419.727H824.898V374.398H870.227ZM870.227 327.773V373.102H824.898V327.773H870.227ZM870.227 281.148V326.477H824.898V281.148H870.227ZM870.227 234.523V279.852H824.898V234.523H870.227ZM870.227 187.898V233.227H824.898V187.898H870.227ZM870.227 141.273V186.602H824.898V141.273H870.227ZM405.273 559.602H450.602V514.273H405.273V559.602ZM451.898 559.602H497.227V514.273H451.898V559.602ZM498.523 559.602H543.852V514.273H498.523V559.602ZM545.148 559.602H590.477V514.273H545.148V559.602ZM591.773 559.602H637.102V514.273H591.773V559.602ZM638.398 559.602H683.727V514.273H638.398V559.602ZM685.023 559.602H730.352V514.273H685.023V559.602ZM731.648 559.602H776.977V514.273H731.648V559.602ZM778.273 559.602H823.602V514.273H778.273V559.602ZM823.602 467.648V512.977H778.273V467.648H823.602ZM823.602 421.023V466.352H778.273V421.023H823.602ZM823.602 374.398V419.727H778.273V374.398H823.602ZM823.602 327.773V373.102H778.273V327.773H823.602ZM823.602 281.148V326.477H778.273V281.148H823.602ZM823.602 234.523V279.852H778.273V234.523H823.602ZM823.602 187.898V233.227H778.273V187.898H823.602ZM823.602 141.273V186.602H778.273V141.273H823.602ZM405.273 512.977H450.602V467.648H405.273V512.977ZM451.898 512.977H497.227V467.648H451.898V512.977ZM498.523 512.977H543.852V467.648H498.523V512.977ZM545.148 512.977H590.477V467.648H545.148V512.977ZM591.773 512.977H637.102V467.648H591.773V512.977ZM638.398 512.977H683.727V467.648H638.398V512.977ZM685.023 512.977H730.352V467.648H685.023V512.977ZM731.648 512.977H776.977V467.648H731.648V512.977ZM776.977 421.023V466.352H731.648V421.023H776.977ZM776.977 374.398V419.727H731.648V374.398H776.977ZM776.977 327.773V373.102H731.648V327.773H776.977ZM776.977 281.148V326.477H731.648V281.148H776.977ZM776.977 234.523V279.852H731.648V234.523H776.977ZM776.977 187.898V233.227H731.648V187.898H776.977ZM776.977 141.273V186.602H731.648V141.273H776.977ZM405.273 466.352H450.602V421.023H405.273V466.352ZM451.898 466.352H497.227V421.023H451.898V466.352ZM498.523 466.352H543.852V421.023H498.523V466.352ZM545.148 466.352H590.477V421.023H545.148V466.352ZM591.773 466.352H637.102V421.023H591.773V466.352ZM638.398 466.352H683.727V421.023H638.398V466.352ZM685.023 466.352H730.352V421.023H685.023V466.352ZM730.352 374.398V419.727H685.023V374.398H730.352ZM730.352 327.773V373.102H685.023V327.773H730.352ZM730.352 281.148V326.477H685.023V281.148H730.352ZM730.352 234.523V279.852H685.023V234.523H730.352ZM730.352 187.898V233.227H685.023V187.898H730.352ZM730.352 141.273V186.602H685.023V141.273H730.352ZM405.273 419.727H450.602V374.398H405.273V419.727ZM451.898 419.727H497.227V374.398H451.898V419.727ZM498.523 419.727H543.852V374.398H498.523V419.727ZM545.148 419.727H590.477V374.398H545.148V419.727ZM591.773 419.727H637.102V374.398H591.773V419.727ZM638.398 419.727H683.727V374.398H638.398V419.727ZM683.727 327.773V373.102H638.398V327.773H683.727ZM683.727 281.148V326.477H638.398V281.148H683.727ZM683.727 234.523V279.852H638.398V234.523H683.727ZM683.727 187.898V233.227H638.398V187.898H683.727ZM683.727 141.273V186.602H638.398V141.273H683.727ZM405.273 373.102H450.602V327.773H405.273V373.102ZM451.898 373.102H497.227V327.773H451.898V373.102ZM498.523 373.102H543.852V327.773H498.523V373.102ZM545.148 373.102H590.477V327.773H545.148V373.102ZM591.773 373.102H637.102V327.773H591.773V373.102ZM637.102 281.148V326.477H591.773V281.148H637.102ZM637.102 234.523V279.852H591.773V234.523H637.102ZM637.102 187.898V233.227H591.773V187.898H637.102ZM637.102 141.273V186.602H591.773V141.273H637.102ZM405.273 326.477H450.602V281.148H405.273V326.477ZM451.898 326.477H497.227V281.148H451.898V326.477ZM498.523 326.477H543.852V281.148H498.523V326.477ZM545.148 326.477H590.477V281.148H545.148V326.477ZM590.477 234.523V279.852H545.148V234.523H590.477ZM590.477 187.898V233.227H545.148V187.898H590.477ZM590.477 141.273V186.602H545.148V141.273H590.477ZM405.273 279.852H450.602V234.523H405.273V279.852ZM451.898 279.852H497.227V234.523L451.898 234.523V279.852ZM498.523 279.852H543.852V234.523H498.523V279.852ZM543.852 187.898V233.227H498.523V187.898H543.852ZM543.852 141.273V186.602H498.523V141.273H543.852ZM405.273 233.227H450.602V187.898H405.273V233.227ZM451.898 233.227L497.227 233.227V187.898H451.898V233.227ZM497.227 141.273V186.602H451.898V141.273H497.227ZM405.273 186.602H450.602V141.273H405.273V186.602Z" fill="url(#paint0_radial_146_169959)" fill-opacity="0.6"/>
<g filter="url(#filter0_f_146_169959)">
<path d="M972.682 200.875L1250.24 712.641H200.758L480.916 200.875H972.682Z" fill="url(#paint1_linear_146_169959)" fill-opacity="0.35"/>
</g>
<defs>
<filter id="filter0_f_146_169959" x="0.757812" y="0.875" width="1449.48" height="911.766" filterUnits="userSpaceOnUse" color-interpolation-filters="sRGB">
<feFlood flood-opacity="0" result="BackgroundImageFix"/>
<feBlend mode="normal" in="SourceGraphic" in2="BackgroundImageFix" result="shape"/>
<feGaussianBlur stdDeviation="100" result="effect1_foregroundBlur_146_169959"/>
</filter>
<radialGradient id="paint0_radial_146_169959" cx="0" cy="0" r="1" gradientUnits="userSpaceOnUse" gradientTransform="translate(731 467) rotate(90) scale(338.641 417.448)">
<stop stop-color="#0DFB90"/>
<stop offset="1" stop-color="#7298F9" stop-opacity="0"/>
</radialGradient>
<linearGradient id="paint1_linear_146_169959" x1="540.284" y1="-251.048" x2="1082.35" y2="-251.048" gradientUnits="userSpaceOnUse">
<stop stop-color="#03C9B1" stop-opacity="0.74"/>
<stop offset="1" stop-color="#0055B8" stop-opacity="0.52"/>
</linearGradient>
</defs>
</svg>
