<svg width="1320" height="566" viewBox="0 0 1320 566" fill="none" xmlns="http://www.w3.org/2000/svg">
<g clip-path="url(#clip0_188_165533)">
<path opacity="0.1" fill-rule="evenodd" clip-rule="evenodd" d="M338.22 798.773V844.102H292.242V845.398H338.22V890.727H292.242V892.023H338.22V938H339.515V892.023H384.845V938H386.14V892.023H431.47V938H432.765V892.023H478.095V938H479.39V892.023H524.72V938H526.015V892.023H571.345V938H572.64V892.023H617.97V938H619.265V892.023H664.595V938H665.89V892.023H711.22V938H712.515V892.023H757.845V938H759.14V892.023H804.47V938H805.765V892.023H851.095V938H852.39V892.023H897.72V938H899.015V892.023H944.345V938H945.64V892.023H990.97V938H992.265V892.023H1038.24V890.727H992.265V845.398H1038.24V844.102H992.265V798.773H1038.24V797.477H992.265V752.148H1038.24V750.852H992.265V705.523H1038.24V704.227H992.265V658.898H1038.24V657.602H992.265V612.273H1038.24V610.977H992.265V565.648H1038.24V564.352H992.265V519.023H1038.24V517.727H992.265V472.398H1038.24V471.102H992.265V425.773H1038.24V424.477H992.265V379.148H1038.24V377.852H992.265V332.523H1038.24V331.227H992.265V285.898H1038.24V284.602H992.265V239.273H1038.24V237.977H992.265V192H990.97V237.977H945.64V192H944.345V237.977H899.015V192H897.72V237.977H852.39V192H851.095V237.977H805.765V192H804.47V237.977H759.14V192H757.845V237.977H712.515V192H711.22V237.977H665.89V192H664.595V237.977H619.265V192H617.97V237.977H572.64V192H571.345V237.977H526.015V192H524.72V237.977H479.39V192H478.095V237.977H432.765V192H431.47V237.977H386.14V192H384.845V237.977H339.515V192H338.22V237.977H292.242V239.273H338.22V284.602H292.242V285.898H338.22V331.227H292.242V332.523H338.22V377.852H292.242V379.148H338.22V424.477H292.242V425.773H338.22V471.102H292.242V472.398H338.22V517.727H292.242V519.023H338.22V564.352H292.242V565.648H338.22V610.977H292.242V612.273H338.22V657.602H292.242V658.898H338.22V704.227H292.242V705.523H338.22V750.852H292.242V752.148H338.22V797.477H292.242V798.773H338.22ZM990.97 890.727V845.398H945.64V890.727H990.97ZM944.345 890.727V845.398H899.015V890.727H944.345ZM897.72 890.727V845.398H852.39V890.727H897.72ZM851.095 890.727V845.398H805.765V890.727H851.095ZM804.47 890.727V845.398H759.14V890.727H804.47ZM757.845 890.727V845.398H712.515V890.727H757.845ZM711.22 890.727V845.398H665.89V890.727H711.22ZM664.595 890.727V845.398H619.265V890.727H664.595ZM617.97 890.727V845.398H572.64V890.727H617.97ZM571.345 890.727V845.398H526.015V890.727H571.345ZM524.72 890.727V845.398H479.39V890.727H524.72ZM478.095 890.727V845.398H432.765V890.727H478.095ZM431.47 890.727V845.398H386.14V890.727H431.47ZM384.845 890.727V845.398H339.515V890.727H384.845ZM384.845 844.102H339.515V798.773H384.845V844.102ZM431.47 844.102H386.14V798.773H431.47V844.102ZM478.095 844.102H432.765V798.773H478.095V844.102ZM524.72 844.102H479.39V798.773H524.72V844.102ZM571.345 844.102H526.015V798.773H571.345V844.102ZM617.97 844.102H572.64V798.773H617.97V844.102ZM664.595 844.102H619.265V798.773H664.595V844.102ZM711.22 844.102H665.89V798.773H711.22V844.102ZM757.845 844.102H712.515V798.773H757.845V844.102ZM804.47 844.102H759.14V798.773H804.47V844.102ZM851.095 844.102H805.765V798.773H851.095V844.102ZM897.72 844.102H852.39V798.773H897.72V844.102ZM944.345 844.102H899.015V798.773H944.345V844.102ZM990.97 844.102H945.64V798.773H990.97V844.102ZM990.97 239.273H945.64V284.602H990.97V239.273ZM990.97 285.898H945.64V331.227H990.97V285.898ZM990.97 332.523H945.64V377.852H990.97V332.523ZM990.97 379.148H945.64V424.477H990.97V379.148ZM990.97 425.773H945.64V471.102H990.97V425.773ZM990.97 472.398H945.64V517.727H990.97V472.398ZM990.97 519.023H945.64V564.352H990.97V519.023ZM990.97 565.648H945.64V610.977H990.97V565.648ZM990.97 612.273H945.64V657.602H990.97V612.273ZM990.97 658.898H945.64V704.227H990.97V658.898ZM990.97 705.523H945.64V750.852H990.97V705.523ZM990.97 752.148H945.64V797.477H990.97V752.148ZM944.345 752.148V797.477H899.015V752.148H944.345ZM944.345 705.523V750.852H899.015V705.523H944.345ZM944.345 658.898V704.227H899.015V658.898H944.345ZM944.345 612.273V657.602H899.015V612.273H944.345ZM944.345 565.648V610.977H899.015V565.648H944.345ZM944.345 519.023V564.352H899.015V519.023H944.345ZM944.345 472.398V517.727H899.015V472.398H944.345ZM944.345 425.773V471.102H899.015V425.773H944.345ZM944.345 379.148V424.477H899.015V379.148H944.345ZM944.345 332.523V377.852H899.015V332.523H944.345ZM944.345 285.898V331.227H899.015V285.898H944.345ZM944.345 239.273V284.602H899.015V239.273H944.345ZM339.515 797.477H384.845V752.148H339.515V797.477ZM386.14 797.477H431.47V752.148H386.14V797.477ZM432.765 797.477H478.095V752.148H432.765V797.477ZM479.39 797.477H524.72V752.148H479.39V797.477ZM526.015 797.477H571.345V752.148H526.015V797.477ZM572.64 797.477H617.97V752.148H572.64V797.477ZM619.265 797.477H664.595V752.148H619.265V797.477ZM665.89 797.477H711.22V752.148H665.89V797.477ZM712.515 797.477H757.845V752.148H712.515V797.477ZM759.14 797.477H804.47V752.148H759.14V797.477ZM805.765 797.477H851.095V752.148H805.765V797.477ZM852.39 797.477H897.72V752.148H852.39V797.477ZM897.72 705.523V750.852H852.39V705.523H897.72ZM897.72 658.898V704.227H852.39V658.898H897.72ZM897.72 612.273V657.602H852.39V612.273H897.72ZM897.72 565.648V610.977H852.39V565.648H897.72ZM897.72 519.023V564.352H852.39V519.023H897.72ZM897.72 472.398V517.727H852.39V472.398H897.72ZM897.72 425.773V471.102H852.39V425.773H897.72ZM897.72 379.148V424.477H852.39V379.148H897.72ZM897.72 332.523V377.852H852.39V332.523H897.72ZM897.72 285.898V331.227H852.39V285.898H897.72ZM897.72 239.273V284.602H852.39V239.273H897.72ZM339.515 750.852H384.845V705.523H339.515V750.852ZM386.14 750.852H431.47V705.523H386.14V750.852ZM432.765 750.852H478.095V705.523H432.765V750.852ZM479.39 750.852H524.72V705.523H479.39V750.852ZM526.015 750.852H571.345V705.523H526.015V750.852ZM572.64 750.852H617.97V705.523H572.64V750.852ZM619.265 750.852H664.595V705.523H619.265V750.852ZM665.89 750.852H711.22V705.523H665.89V750.852ZM712.515 750.852H757.845V705.523H712.515V750.852ZM759.14 750.852H804.47V705.523H759.14V750.852ZM805.765 750.852H851.095V705.523H805.765V750.852ZM851.095 658.898V704.227H805.765V658.898H851.095ZM851.095 612.273V657.602H805.765V612.273H851.095ZM851.095 565.648V610.977H805.765V565.648H851.095ZM851.095 519.023V564.352H805.765V519.023H851.095ZM851.095 472.398V517.727H805.765V472.398H851.095ZM851.095 425.773V471.102H805.765V425.773H851.095ZM851.095 379.148V424.477H805.765V379.148H851.095ZM851.095 332.523V377.852H805.765V332.523H851.095ZM851.095 285.898V331.227H805.765V285.898H851.095ZM851.095 239.273V284.602H805.765V239.273H851.095ZM339.515 704.227H384.845V658.898H339.515V704.227ZM386.14 704.227H431.47V658.898H386.14V704.227ZM432.765 704.227H478.095V658.898H432.765V704.227ZM479.39 704.227H524.72V658.898H479.39V704.227ZM526.015 704.227H571.345V658.898H526.015V704.227ZM572.64 704.227H617.97V658.898H572.64V704.227ZM619.265 704.227H664.595V658.898H619.265V704.227ZM665.89 704.227H711.22V658.898H665.89V704.227ZM712.515 704.227H757.845V658.898H712.515V704.227ZM759.14 704.227H804.47V658.898H759.14V704.227ZM804.47 612.273V657.602H759.14V612.273H804.47ZM804.47 565.648V610.977H759.14V565.648H804.47ZM804.47 519.023V564.352H759.14V519.023H804.47ZM804.47 472.398V517.727H759.14V472.398H804.47ZM804.47 425.773V471.102H759.14V425.773H804.47ZM804.47 379.148V424.477H759.14V379.148H804.47ZM804.47 332.523V377.852H759.14V332.523H804.47ZM804.47 285.898V331.227H759.14V285.898H804.47ZM804.47 239.273V284.602H759.14V239.273H804.47ZM339.515 657.602H384.845V612.273H339.515V657.602ZM386.14 657.602H431.47V612.273H386.14V657.602ZM432.765 657.602H478.095V612.273H432.765V657.602ZM479.39 657.602H524.72V612.273H479.39V657.602ZM526.015 657.602H571.345V612.273H526.015V657.602ZM572.64 657.602H617.97V612.273H572.64V657.602ZM619.265 657.602H664.595V612.273H619.265V657.602ZM665.89 657.602H711.22V612.273H665.89V657.602ZM712.515 657.602H757.845V612.273H712.515V657.602ZM757.845 565.648V610.977H712.515V565.648H757.845ZM757.845 519.023V564.352H712.515V519.023H757.845ZM757.845 472.398V517.727H712.515V472.398H757.845ZM757.845 425.773V471.102H712.515V425.773H757.845ZM757.845 379.148V424.477H712.515V379.148H757.845ZM757.845 332.523V377.852H712.515V332.523H757.845ZM757.845 285.898V331.227H712.515V285.898H757.845ZM757.845 239.273V284.602H712.515V239.273H757.845ZM339.515 610.977H384.845V565.648H339.515V610.977ZM386.14 610.977H431.47V565.648H386.14V610.977ZM432.765 610.977H478.095V565.648H432.765V610.977ZM479.39 610.977H524.72V565.648H479.39V610.977ZM526.015 610.977H571.345V565.648H526.015V610.977ZM572.64 610.977H617.97V565.648H572.64V610.977ZM619.265 610.977H664.595V565.648H619.265V610.977ZM665.89 610.977H711.22V565.648H665.89V610.977ZM711.22 519.023V564.352H665.89V519.023H711.22ZM711.22 472.398V517.727H665.89V472.398H711.22ZM711.22 425.773V471.102H665.89V425.773H711.22ZM711.22 379.148V424.477H665.89V379.148H711.22ZM711.22 332.523V377.852H665.89V332.523H711.22ZM711.22 285.898V331.227H665.89V285.898H711.22ZM711.22 239.273V284.602H665.89V239.273H711.22ZM339.515 564.352H384.845V519.023H339.515V564.352ZM386.14 564.352H431.47V519.023H386.14V564.352ZM432.765 564.352H478.095V519.023H432.765V564.352ZM479.39 564.352H524.72V519.023H479.39V564.352ZM526.015 564.352H571.345V519.023H526.015V564.352ZM572.64 564.352H617.97V519.023H572.64V564.352ZM619.265 564.352H664.595V519.023H619.265V564.352ZM664.595 472.398V517.727H619.265V472.398H664.595ZM664.595 425.773V471.102H619.265V425.773H664.595ZM664.595 379.148V424.477H619.265V379.148H664.595ZM664.595 332.523V377.852H619.265V332.523H664.595ZM664.595 285.898V331.227H619.265V285.898H664.595ZM664.595 239.273V284.602H619.265V239.273H664.595ZM339.515 517.727H384.845V472.398H339.515V517.727ZM386.14 517.727H431.47V472.398H386.14V517.727ZM432.765 517.727H478.095V472.398H432.765V517.727ZM479.39 517.727H524.72V472.398H479.39V517.727ZM526.015 517.727H571.345V472.398H526.015V517.727ZM572.64 517.727H617.97V472.398H572.64V517.727ZM617.97 425.773V471.102H572.64V425.773H617.97ZM617.97 379.148V424.477H572.64V379.148H617.97ZM617.97 332.523V377.852H572.64V332.523H617.97ZM617.97 285.898V331.227H572.64V285.898H617.97ZM617.97 239.273V284.602H572.64V239.273H617.97ZM339.515 471.102H384.845V425.773H339.515V471.102ZM386.14 471.102H431.47V425.773H386.14V471.102ZM432.765 471.102H478.095V425.773H432.765V471.102ZM479.39 471.102H524.72V425.773H479.39V471.102ZM526.015 471.102H571.345V425.773H526.015V471.102ZM571.345 379.148V424.477H526.015V379.148H571.345ZM571.345 332.523V377.852H526.015V332.523H571.345ZM571.345 285.898V331.227H526.015V285.898H571.345ZM571.345 239.273V284.602H526.015V239.273H571.345ZM339.515 424.477H384.845V379.148H339.515V424.477ZM386.14 424.477H431.47V379.148H386.14V424.477ZM432.765 424.477H478.095V379.148H432.765V424.477ZM479.39 424.477H524.72V379.148H479.39V424.477ZM524.72 332.523V377.852H479.39V332.523H524.72ZM524.72 285.898V331.227H479.39V285.898H524.72ZM524.72 239.273V284.602H479.39V239.273H524.72ZM339.515 377.852H384.845V332.523H339.515V377.852ZM386.14 377.852H431.47V332.523L386.14 332.523V377.852ZM432.765 377.852H478.095V332.523H432.765V377.852ZM478.095 285.898V331.227H432.765V285.898H478.095ZM478.095 239.273V284.602H432.765V239.273H478.095ZM339.515 331.227H384.845V285.898H339.515V331.227ZM386.14 331.227L431.47 331.227V285.898H386.14V331.227ZM431.47 239.273V284.602H386.14V239.273H431.47ZM339.515 284.602H384.845V239.273H339.515V284.602Z" fill="url(#paint0_radial_188_165533)" fill-opacity="0.6"/>
<g filter="url(#filter0_f_188_165533)">
<path d="M906.924 298.875L1184.48 810.641H135L415.158 298.875H906.924Z" fill="url(#paint1_linear_188_165533)" fill-opacity="0.35"/>
</g>
</g>
<defs>
<filter id="filter0_f_188_165533" x="-65" y="98.875" width="1449.48" height="911.766" filterUnits="userSpaceOnUse" color-interpolation-filters="sRGB">
<feFlood flood-opacity="0" result="BackgroundImageFix"/>
<feBlend mode="normal" in="SourceGraphic" in2="BackgroundImageFix" result="shape"/>
<feGaussianBlur stdDeviation="100" result="effect1_foregroundBlur_188_165533"/>
</filter>
<radialGradient id="paint0_radial_188_165533" cx="0" cy="0" r="1" gradientUnits="userSpaceOnUse" gradientTransform="translate(665.242 565) rotate(90) scale(338.641 417.448)">
<stop stop-color="#0DFB90"/>
<stop offset="1" stop-color="#7298F9" stop-opacity="0"/>
</radialGradient>
<linearGradient id="paint1_linear_188_165533" x1="474.526" y1="-153.048" x2="1016.6" y2="-153.048" gradientUnits="userSpaceOnUse">
<stop stop-color="#03C9B1" stop-opacity="0.74"/>
<stop offset="1" stop-color="#0055B8" stop-opacity="0.52"/>
</linearGradient>
<clipPath id="clip0_188_165533">
<rect width="1320" height="566" fill="white"/>
</clipPath>
</defs>
</svg>
