<svg width="812" height="216" viewBox="0 0 812 216" fill="none" xmlns="http://www.w3.org/2000/svg">
<g clip-path="url(#clip0_677_13963)">
<mask id="mask0_677_13963" style="mask-type:alpha" maskUnits="userSpaceOnUse" x="0" y="-133" width="813" height="535">
<rect y="-133" width="812.503" height="534.214" fill="url(#paint0_radial_677_13963)"/>
</mask>
<g mask="url(#mask0_677_13963)">
<path d="M444.064 36.7195L408.243 0.898347L444.064 0.898351L444.064 36.7195Z" stroke="#303030" stroke-width="0.432598"/>
<path d="M408.244 72.5408L372.423 36.7196L408.244 36.7196L408.244 72.5408Z" stroke="#303030" stroke-width="0.432598"/>
<path d="M408.244 215.825L372.423 180.004L408.244 180.004L408.244 215.825Z" stroke="#303030" stroke-width="0.432598"/>
<path d="M479.886 0.898438L444.065 0.898434L444.065 -34.9227L479.886 0.898438Z" stroke="#303030" stroke-width="0.432598"/>
<rect x="479.886" y="36.7195" width="35.8211" height="35.8211" transform="rotate(-180 479.886 36.7195)" stroke="#303030" stroke-width="0.432598"/>
<path d="M372.422 36.7195L408.243 0.898347L372.422 0.898351L372.422 36.7195Z" stroke="#303030" stroke-width="0.432598"/>
<path d="M408.244 72.5408L444.065 36.7196L408.244 36.7196L408.244 72.5408Z" stroke="#303030" stroke-width="0.432598"/>
<path d="M408.244 215.825L444.065 180.004L408.244 180.004L408.244 215.825Z" stroke="#303030" stroke-width="0.432598"/>
<path d="M336.602 0.898438L372.423 0.898434L372.423 -34.9227L336.602 0.898438Z" stroke="#303030" stroke-width="0.432598"/>
<rect width="35.8211" height="35.8211" transform="matrix(1 -8.74228e-08 -8.74228e-08 -1 336.602 36.7195)" stroke="#303030" stroke-width="0.432598"/>
<path d="M372.422 -34.9226H408.243V0.898524L372.422 -34.9226Z" stroke="#303030" stroke-width="0.432598"/>
<rect x="408.244" y="-34.9226" width="35.8211" height="35.8211" stroke="#303030" stroke-width="0.432598"/>
<path d="M444.065 -34.9226V0.898524H408.244L444.065 -34.9226Z" stroke="#303030" stroke-width="0.432598"/>
<rect width="35.8211" height="35.8211" transform="matrix(-1 0 0 1 264.959 -34.9226)" stroke="#303030" stroke-width="0.432598"/>
<path d="M229.138 36.7195L264.959 0.898347L229.138 0.898351L229.138 36.7195Z" stroke="#303030" stroke-width="0.432598"/>
<path d="M193.316 0.898438L229.138 0.898434L229.138 -34.9227L193.316 0.898438Z" stroke="#303030" stroke-width="0.432598"/>
<rect width="35.8211" height="35.8211" transform="matrix(1 -8.74228e-08 -8.74228e-08 -1 193.316 36.7195)" stroke="#303030" stroke-width="0.432598"/>
<path d="M300.78 -34.9226H264.959V0.898524L300.78 -34.9226Z" stroke="#303030" stroke-width="0.432598"/>
<path d="M264.959 0.898438L229.138 36.7196H264.959V0.898438Z" stroke="#303030" stroke-width="0.432598"/>
<rect x="551.528" y="-34.9226" width="35.8211" height="35.8211" stroke="#303030" stroke-width="0.432598"/>
<path d="M587.35 36.7195L551.528 0.898347L587.35 0.898351L587.35 36.7195Z" stroke="#303030" stroke-width="0.432598"/>
<path d="M623.171 0.898438L587.35 0.898434L587.35 -34.9227L623.171 0.898438Z" stroke="#303030" stroke-width="0.432598"/>
<rect x="623.171" y="36.7195" width="35.8211" height="35.8211" transform="rotate(-180 623.171 36.7195)" stroke="#303030" stroke-width="0.432598"/>
<path d="M515.707 -34.9226H551.528V0.898524L515.707 -34.9226Z" stroke="#303030" stroke-width="0.432598"/>
<path d="M551.528 0.898438L587.349 36.7196H551.528V0.898438Z" stroke="#303030" stroke-width="0.432598"/>
<rect width="35.8211" height="35.8211" transform="matrix(-1 0 0 1 336.602 -34.9226)" stroke="#303030" stroke-width="0.432598"/>
<path d="M300.78 36.7195L336.601 0.898347L300.78 0.898351L300.78 36.7195Z" stroke="#303030" stroke-width="0.432598"/>
<path d="M264.959 0.898438L300.78 0.898434L300.78 -34.9227L264.959 0.898438Z" stroke="#303030" stroke-width="0.432598"/>
<rect width="35.8211" height="35.8211" transform="matrix(1 -8.74228e-08 -8.74228e-08 -1 264.959 36.7195)" stroke="#303030" stroke-width="0.432598"/>
<path d="M372.422 -34.9226H336.601V0.898524L372.422 -34.9226Z" stroke="#303030" stroke-width="0.432598"/>
<path d="M336.602 0.898438L300.78 36.7196H336.602V0.898438Z" stroke="#303030" stroke-width="0.432598"/>
<path d="M408.244 0.898438L372.423 36.7196H408.244V0.898438Z" stroke="#303030" stroke-width="0.432598"/>
<path d="M408.244 144.183L372.423 180.004H408.244V144.183Z" stroke="#303030" stroke-width="0.432598"/>
<rect x="479.886" y="-34.9226" width="35.8211" height="35.8211" stroke="#303030" stroke-width="0.432598"/>
<path d="M515.707 36.7195L479.886 0.898347L515.707 0.898351L515.707 36.7195Z" stroke="#303030" stroke-width="0.432598"/>
<path d="M551.528 0.898438L515.707 0.898434L515.707 -34.9227L551.528 0.898438Z" stroke="#303030" stroke-width="0.432598"/>
<rect x="551.528" y="36.7195" width="35.8211" height="35.8211" transform="rotate(-180 551.528 36.7195)" stroke="#303030" stroke-width="0.432598"/>
<path d="M444.064 -34.9226H479.886V0.898524L444.064 -34.9226Z" stroke="#303030" stroke-width="0.432598"/>
<path d="M479.886 0.898438L515.707 36.7196H479.886V0.898438Z" stroke="#303030" stroke-width="0.432598"/>
<path d="M408.244 0.898438L444.065 36.7196H408.244V0.898438Z" stroke="#303030" stroke-width="0.432598"/>
<path d="M408.244 144.183L444.065 180.004H408.244V144.183Z" stroke="#303030" stroke-width="0.432598"/>
<path d="M372.422 -34.9226L408.243 0.898524H372.422V-34.9226Z" stroke="#303030" stroke-width="0.432598"/>
<rect width="35.8211" height="35.8211" transform="matrix(-1 0 0 1 193.316 -34.9226)" stroke="#303030" stroke-width="0.432598"/>
<path d="M157.496 36.7195L193.317 0.898347L157.496 0.898351L157.496 36.7195Z" stroke="#303030" stroke-width="0.432598"/>
<path d="M121.674 0.898438L157.495 0.898434L157.495 -34.9227L121.674 0.898438Z" stroke="#303030" stroke-width="0.432598"/>
<rect width="35.8211" height="35.8211" transform="matrix(1 -8.74228e-08 -8.74228e-08 -1 121.674 36.7195)" stroke="#303030" stroke-width="0.432598"/>
<path d="M229.138 -34.9226H193.317V0.898524L229.138 -34.9226Z" stroke="#303030" stroke-width="0.432598"/>
<path d="M193.316 0.898438L157.495 36.7196H193.316V0.898438Z" stroke="#303030" stroke-width="0.432598"/>
<rect x="623.171" y="-34.9226" width="35.8211" height="35.8211" stroke="#303030" stroke-width="0.432598"/>
<path d="M658.991 36.7195L623.17 0.898347L658.991 0.898351L658.991 36.7195Z" stroke="#303030" stroke-width="0.432598"/>
<path d="M694.812 0.898438L658.991 0.898434L658.991 -34.9227L694.812 0.898438Z" stroke="#303030" stroke-width="0.432598"/>
<rect x="694.812" y="36.7195" width="35.8211" height="35.8211" transform="rotate(-180 694.812 36.7195)" stroke="#303030" stroke-width="0.432598"/>
<path d="M587.35 -34.9226H623.171V0.898524L587.35 -34.9226Z" stroke="#303030" stroke-width="0.432598"/>
<path d="M623.171 0.898438L658.992 36.7196H623.171V0.898438Z" stroke="#303030" stroke-width="0.432598"/>
<rect width="35.8211" height="35.8211" transform="matrix(-1 0 0 1 121.674 -34.9226)" stroke="#303030" stroke-width="0.432598"/>
<path d="M85.8535 36.7195L121.675 0.898347L85.8535 0.898351L85.8535 36.7195Z" stroke="#303030" stroke-width="0.432598"/>
<path d="M50.0322 0.898438L85.8534 0.898434L85.8534 -34.9227L50.0322 0.898438Z" stroke="#303030" stroke-width="0.432598"/>
<rect width="35.8211" height="35.8211" transform="matrix(1 -8.74228e-08 -8.74228e-08 -1 50.0322 36.7195)" stroke="#303030" stroke-width="0.432598"/>
<path d="M157.496 -34.9226H121.675V0.898524L157.496 -34.9226Z" stroke="#303030" stroke-width="0.432598"/>
<path d="M121.674 0.898438L85.8527 36.7196H121.674V0.898438Z" stroke="#303030" stroke-width="0.432598"/>
<rect x="694.812" y="-34.9226" width="35.8211" height="35.8211" stroke="#303030" stroke-width="0.432598"/>
<path d="M730.634 36.7195L694.813 0.898347L730.634 0.898351L730.634 36.7195Z" stroke="#303030" stroke-width="0.432598"/>
<path d="M766.455 0.898438L730.634 0.898434L730.634 -34.9227L766.455 0.898438Z" stroke="#303030" stroke-width="0.432598"/>
<rect x="766.455" y="36.7195" width="35.8211" height="35.8211" transform="rotate(-180 766.455 36.7195)" stroke="#303030" stroke-width="0.432598"/>
<path d="M658.991 -34.9226H694.812V0.898524L658.991 -34.9226Z" stroke="#303030" stroke-width="0.432598"/>
<path d="M694.812 0.898438L730.634 36.7196H694.812V0.898438Z" stroke="#303030" stroke-width="0.432598"/>
<path d="M730.634 -34.9226H766.455V0.898524L730.634 -34.9226Z" stroke="#303030" stroke-width="0.432598"/>
<path d="M85.8535 -34.9226H50.0324V0.898524L85.8535 -34.9226Z" stroke="#303030" stroke-width="0.432598"/>
<path d="M336.602 72.5408L372.423 108.362H336.602V72.5408Z" stroke="#303030" stroke-width="0.432598"/>
<path d="M479.886 72.5408V108.362H444.064L479.886 72.5408Z" stroke="#303030" stroke-width="0.432598"/>
<rect width="35.8211" height="35.8211" transform="matrix(-1 0 0 1 264.959 108.362)" stroke="#303030" stroke-width="0.432598"/>
<rect width="35.8211" height="35.8211" transform="matrix(-1 0 0 1 300.78 72.5408)" stroke="#303030" stroke-width="0.432598"/>
<path d="M300.78 36.7195L264.959 72.5406H300.78V36.7195Z" stroke="#303030" stroke-width="0.432598"/>
<rect width="35.8211" height="35.8211" transform="matrix(-1 0 0 1 336.602 36.7195)" stroke="#303030" stroke-width="0.432598"/>
<path d="M336.602 72.5408H300.78V108.362L336.602 72.5408Z" stroke="#303030" stroke-width="0.432598"/>
<path d="M229.138 180.004L264.959 144.183L229.138 144.183L229.138 180.004Z" stroke="#303030" stroke-width="0.432598"/>
<path d="M193.316 144.183L229.138 144.183L229.138 108.362L193.316 144.183Z" stroke="#303030" stroke-width="0.432598"/>
<rect width="35.8211" height="35.8211" transform="matrix(1 -8.74228e-08 -8.74228e-08 -1 193.316 180.004)" stroke="#303030" stroke-width="0.432598"/>
<path d="M300.78 108.362H264.959V144.183L300.78 108.362Z" stroke="#303030" stroke-width="0.432598"/>
<path d="M300.78 36.7195H264.959V72.5406L300.78 36.7195Z" stroke="#303030" stroke-width="0.432598"/>
<path d="M264.959 72.5408L229.138 108.362H264.959V72.5408Z" stroke="#303030" stroke-width="0.432598"/>
<path d="M264.959 144.183L229.138 180.004H264.959V144.183Z" stroke="#303030" stroke-width="0.432598"/>
<rect x="551.528" y="108.362" width="35.8211" height="35.8211" stroke="#303030" stroke-width="0.432598"/>
<rect x="515.707" y="72.5408" width="35.8211" height="35.8211" stroke="#303030" stroke-width="0.432598"/>
<path d="M515.707 36.7195L551.528 72.5406H515.707V36.7195Z" stroke="#303030" stroke-width="0.432598"/>
<rect x="479.886" y="36.7195" width="35.8211" height="35.8211" stroke="#303030" stroke-width="0.432598"/>
<path d="M479.886 72.5408H515.707V108.362L479.886 72.5408Z" stroke="#303030" stroke-width="0.432598"/>
<path d="M587.35 180.004L551.528 144.183L587.35 144.183L587.35 180.004Z" stroke="#303030" stroke-width="0.432598"/>
<path d="M623.171 144.183L587.35 144.183L587.35 108.362L623.171 144.183Z" stroke="#303030" stroke-width="0.432598"/>
<rect x="623.171" y="180.004" width="35.8211" height="35.8211" transform="rotate(-180 623.171 180.004)" stroke="#303030" stroke-width="0.432598"/>
<path d="M515.707 108.362H551.528V144.183L515.707 108.362Z" stroke="#303030" stroke-width="0.432598"/>
<path d="M515.707 36.7195H551.528V72.5406L515.707 36.7195Z" stroke="#303030" stroke-width="0.432598"/>
<path d="M551.528 72.5408L587.349 108.362H551.528V72.5408Z" stroke="#303030" stroke-width="0.432598"/>
<path d="M551.528 144.183L587.349 180.004H551.528V144.183Z" stroke="#303030" stroke-width="0.432598"/>
<rect width="35.8211" height="35.8211" transform="matrix(-1 0 0 1 336.602 108.362)" stroke="#303030" stroke-width="0.432598"/>
<path d="M300.78 180.004L336.601 144.183L300.78 144.183L300.78 180.004Z" stroke="#303030" stroke-width="0.432598"/>
<path d="M264.959 144.183L300.78 144.183L300.78 108.362L264.959 144.183Z" stroke="#303030" stroke-width="0.432598"/>
<rect width="35.8211" height="35.8211" transform="matrix(1 -8.74228e-08 -8.74228e-08 -1 264.959 180.004)" stroke="#303030" stroke-width="0.432598"/>
<path d="M372.422 108.362H336.601V144.183L372.422 108.362Z" stroke="#303030" stroke-width="0.432598"/>
<path d="M336.602 72.5408L300.78 108.362H336.602V72.5408Z" stroke="#303030" stroke-width="0.432598"/>
<path d="M336.602 144.183L300.78 180.004H336.602V144.183Z" stroke="#303030" stroke-width="0.432598"/>
<rect x="479.886" y="108.362" width="35.8211" height="35.8211" stroke="#303030" stroke-width="0.432598"/>
<path d="M515.707 180.004L479.886 144.183L515.707 144.183L515.707 180.004Z" stroke="#303030" stroke-width="0.432598"/>
<path d="M551.528 144.183L515.707 144.183L515.707 108.362L551.528 144.183Z" stroke="#303030" stroke-width="0.432598"/>
<rect x="551.528" y="180.004" width="35.8211" height="35.8211" transform="rotate(-180 551.528 180.004)" stroke="#303030" stroke-width="0.432598"/>
<path d="M444.064 108.362H479.886V144.183L444.064 108.362Z" stroke="#303030" stroke-width="0.432598"/>
<path d="M479.886 72.5408L515.707 108.362H479.886V72.5408Z" stroke="#303030" stroke-width="0.432598"/>
<path d="M479.886 144.183L515.707 180.004H479.886V144.183Z" stroke="#303030" stroke-width="0.432598"/>
<rect width="35.8211" height="35.8211" transform="matrix(-1 0 0 1 193.316 108.362)" stroke="#303030" stroke-width="0.432598"/>
<rect width="35.8211" height="35.8211" transform="matrix(-1 0 0 1 229.138 72.5408)" stroke="#303030" stroke-width="0.432598"/>
<path d="M229.138 36.7195L193.317 72.5406H229.138V36.7195Z" stroke="#303030" stroke-width="0.432598"/>
<rect width="35.8211" height="35.8211" transform="matrix(-1 0 0 1 264.959 36.7195)" stroke="#303030" stroke-width="0.432598"/>
<path d="M264.959 72.5408H229.138V108.362L264.959 72.5408Z" stroke="#303030" stroke-width="0.432598"/>
<path d="M157.496 180.004L193.317 144.183L157.496 144.183L157.496 180.004Z" stroke="#303030" stroke-width="0.432598"/>
<path d="M121.674 144.183L157.495 144.183L157.495 108.362L121.674 144.183Z" stroke="#303030" stroke-width="0.432598"/>
<rect width="35.8211" height="35.8211" transform="matrix(1 -8.74228e-08 -8.74228e-08 -1 121.674 180.004)" stroke="#303030" stroke-width="0.432598"/>
<path d="M229.138 108.362H193.317V144.183L229.138 108.362Z" stroke="#303030" stroke-width="0.432598"/>
<path d="M229.138 36.7195H193.317V72.5406L229.138 36.7195Z" stroke="#303030" stroke-width="0.432598"/>
<path d="M193.316 72.5408L157.495 108.362H193.316V72.5408Z" stroke="#303030" stroke-width="0.432598"/>
<path d="M193.316 144.183L157.495 180.004H193.316V144.183Z" stroke="#303030" stroke-width="0.432598"/>
<rect x="623.171" y="108.362" width="35.8211" height="35.8211" stroke="#303030" stroke-width="0.432598"/>
<rect x="587.35" y="72.5408" width="35.8211" height="35.8211" stroke="#303030" stroke-width="0.432598"/>
<path d="M587.35 36.7195L623.171 72.5406H587.35V36.7195Z" stroke="#303030" stroke-width="0.432598"/>
<rect x="551.528" y="36.7195" width="35.8211" height="35.8211" stroke="#303030" stroke-width="0.432598"/>
<path d="M551.528 72.5408H587.349V108.362L551.528 72.5408Z" stroke="#303030" stroke-width="0.432598"/>
<path d="M658.991 180.004L623.17 144.183L658.991 144.183L658.991 180.004Z" stroke="#303030" stroke-width="0.432598"/>
<path d="M694.812 144.183L658.991 144.183L658.991 108.362L694.812 144.183Z" stroke="#303030" stroke-width="0.432598"/>
<rect x="694.812" y="180.004" width="35.8211" height="35.8211" transform="rotate(-180 694.812 180.004)" stroke="#303030" stroke-width="0.432598"/>
<path d="M587.35 108.362H623.171V144.183L587.35 108.362Z" stroke="#303030" stroke-width="0.432598"/>
<path d="M587.35 36.7195H623.171V72.5406L587.35 36.7195Z" stroke="#303030" stroke-width="0.432598"/>
<path d="M623.171 72.5408L658.992 108.362H623.171V72.5408Z" stroke="#303030" stroke-width="0.432598"/>
<path d="M623.171 144.183L658.992 180.004H623.171V144.183Z" stroke="#303030" stroke-width="0.432598"/>
<rect width="35.8211" height="35.8211" transform="matrix(-1 0 0 1 121.674 108.362)" stroke="#303030" stroke-width="0.432598"/>
<rect width="35.8211" height="35.8211" transform="matrix(-1 0 0 1 157.496 72.5408)" stroke="#303030" stroke-width="0.432598"/>
<path d="M157.496 36.7195L121.675 72.5406H157.496V36.7195Z" stroke="#303030" stroke-width="0.432598"/>
<rect width="35.8211" height="35.8211" transform="matrix(-1 0 0 1 193.316 36.7195)" stroke="#303030" stroke-width="0.432598"/>
<path d="M193.316 72.5408H157.495V108.362L193.316 72.5408Z" stroke="#303030" stroke-width="0.432598"/>
<path d="M85.8535 180.004L121.675 144.183L85.8535 144.183L85.8535 180.004Z" stroke="#303030" stroke-width="0.432598"/>
<path d="M50.0322 144.183L85.8534 144.183L85.8534 108.362L50.0322 144.183Z" stroke="#303030" stroke-width="0.432598"/>
<rect width="35.8211" height="35.8211" transform="matrix(1 -8.74228e-08 -8.74228e-08 -1 50.0322 180.004)" stroke="#303030" stroke-width="0.432598"/>
<path d="M157.496 108.362H121.675V144.183L157.496 108.362Z" stroke="#303030" stroke-width="0.432598"/>
<path d="M157.496 36.7195H121.675V72.5406L157.496 36.7195Z" stroke="#303030" stroke-width="0.432598"/>
<path d="M121.674 72.5408L85.8527 108.362H121.674V72.5408Z" stroke="#303030" stroke-width="0.432598"/>
<path d="M121.674 144.183L85.8527 180.004H121.674V144.183Z" stroke="#303030" stroke-width="0.432598"/>
<rect x="694.812" y="108.362" width="35.8211" height="35.8211" stroke="#303030" stroke-width="0.432598"/>
<rect x="658.991" y="72.5408" width="35.8211" height="35.8211" stroke="#303030" stroke-width="0.432598"/>
<path d="M658.991 36.7195L694.812 72.5406H658.991V36.7195Z" stroke="#303030" stroke-width="0.432598"/>
<rect x="623.171" y="36.7195" width="35.8211" height="35.8211" stroke="#303030" stroke-width="0.432598"/>
<path d="M623.171 72.5408H658.992V108.362L623.171 72.5408Z" stroke="#303030" stroke-width="0.432598"/>
<path d="M730.634 180.004L694.813 144.183L730.634 144.183L730.634 180.004Z" stroke="#303030" stroke-width="0.432598"/>
<path d="M766.455 144.183L730.634 144.183L730.634 108.362L766.455 144.183Z" stroke="#303030" stroke-width="0.432598"/>
<rect x="766.455" y="180.004" width="35.8211" height="35.8211" transform="rotate(-180 766.455 180.004)" stroke="#303030" stroke-width="0.432598"/>
<path d="M658.991 108.362H694.812V144.183L658.991 108.362Z" stroke="#303030" stroke-width="0.432598"/>
<path d="M658.991 36.7195H694.812V72.5406L658.991 36.7195Z" stroke="#303030" stroke-width="0.432598"/>
<path d="M694.812 72.5408L730.634 108.362H694.812V72.5408Z" stroke="#303030" stroke-width="0.432598"/>
<path d="M694.812 144.183L730.634 180.004H694.812V144.183Z" stroke="#303030" stroke-width="0.432598"/>
<rect x="730.634" y="72.5408" width="35.8211" height="35.8211" stroke="#303030" stroke-width="0.432598"/>
<path d="M730.634 36.7195L766.455 72.5406H730.634V36.7195Z" stroke="#303030" stroke-width="0.432598"/>
<rect x="694.812" y="36.7195" width="35.8211" height="35.8211" stroke="#303030" stroke-width="0.432598"/>
<path d="M694.812 72.5408H730.634V108.362L694.812 72.5408Z" stroke="#303030" stroke-width="0.432598"/>
<path d="M730.634 108.362H766.455V144.183L730.634 108.362Z" stroke="#303030" stroke-width="0.432598"/>
<path d="M730.634 36.7195H766.455V72.5406L730.634 36.7195Z" stroke="#303030" stroke-width="0.432598"/>
<rect width="35.8211" height="35.8211" transform="matrix(-1 0 0 1 85.8535 72.5408)" stroke="#303030" stroke-width="0.432598"/>
<path d="M85.8535 36.7195L50.0324 72.5406H85.8535V36.7195Z" stroke="#303030" stroke-width="0.432598"/>
<rect width="35.8211" height="35.8211" transform="matrix(-1 0 0 1 121.674 36.7195)" stroke="#303030" stroke-width="0.432598"/>
<path d="M121.674 72.5408H85.8527V108.362L121.674 72.5408Z" stroke="#303030" stroke-width="0.432598"/>
<path d="M85.8535 108.362H50.0324V144.183L85.8535 108.362Z" stroke="#303030" stroke-width="0.432598"/>
<path d="M85.8535 36.7195H50.0324V72.5406L85.8535 36.7195Z" stroke="#303030" stroke-width="0.432598"/>
<rect x="372.422" y="215.825" width="35.8211" height="35.8211" stroke="#303030" stroke-width="0.432598"/>
<path d="M372.422 180.004L408.243 215.825H372.422V180.004Z" stroke="#303030" stroke-width="0.432598"/>
<rect x="336.602" y="180.004" width="35.8211" height="35.8211" stroke="#303030" stroke-width="0.432598"/>
<path d="M336.602 215.825H372.423V251.646L336.602 215.825Z" stroke="#303030" stroke-width="0.432598"/>
<path d="M444.064 251.646L408.243 215.825L444.064 215.825L444.064 251.646Z" stroke="#303030" stroke-width="0.432598"/>
<rect width="35.8211" height="35.8211" transform="matrix(-1 0 0 1 479.886 180.004)" stroke="#303030" stroke-width="0.432598"/>
<path d="M479.886 215.825H444.065V251.646L479.886 215.825Z" stroke="#303030" stroke-width="0.432598"/>
<path d="M444.065 180.004V215.825H408.244L444.065 180.004Z" stroke="#303030" stroke-width="0.432598"/>
<path d="M408.244 215.825L444.065 251.646H408.244V215.825Z" stroke="#303030" stroke-width="0.432598"/>
<path d="M336.602 215.825L372.423 251.646H336.602V215.825Z" stroke="#303030" stroke-width="0.432598"/>
<path d="M479.886 215.825V251.646H444.064L479.886 215.825Z" stroke="#303030" stroke-width="0.432598"/>
<rect width="35.8211" height="35.8211" transform="matrix(-1 0 0 1 300.78 215.825)" stroke="#303030" stroke-width="0.432598"/>
<path d="M300.78 180.004L264.959 215.825H300.78V180.004Z" stroke="#303030" stroke-width="0.432598"/>
<rect width="35.8211" height="35.8211" transform="matrix(-1 0 0 1 336.602 180.004)" stroke="#303030" stroke-width="0.432598"/>
<path d="M336.602 215.825H300.78V251.646L336.602 215.825Z" stroke="#303030" stroke-width="0.432598"/>
<path d="M300.78 180.004H264.959V215.825L300.78 180.004Z" stroke="#303030" stroke-width="0.432598"/>
<path d="M264.959 215.825L229.138 251.646H264.959V215.825Z" stroke="#303030" stroke-width="0.432598"/>
<rect x="515.707" y="215.825" width="35.8211" height="35.8211" stroke="#303030" stroke-width="0.432598"/>
<path d="M515.707 180.004L551.528 215.825H515.707V180.004Z" stroke="#303030" stroke-width="0.432598"/>
<rect x="479.886" y="180.004" width="35.8211" height="35.8211" stroke="#303030" stroke-width="0.432598"/>
<path d="M479.886 215.825H515.707V251.646L479.886 215.825Z" stroke="#303030" stroke-width="0.432598"/>
<path d="M515.707 180.004H551.528V215.825L515.707 180.004Z" stroke="#303030" stroke-width="0.432598"/>
<path d="M551.528 215.825L587.349 251.646H551.528V215.825Z" stroke="#303030" stroke-width="0.432598"/>
<path d="M408.244 215.825H372.423V251.646L408.244 215.825Z" stroke="#303030" stroke-width="0.432598"/>
<path d="M336.602 215.825L300.78 251.646H336.602V215.825Z" stroke="#303030" stroke-width="0.432598"/>
<path d="M479.886 215.825L515.707 251.646H479.886V215.825Z" stroke="#303030" stroke-width="0.432598"/>
<rect width="35.8211" height="35.8211" transform="matrix(-1 0 0 1 229.138 215.825)" stroke="#303030" stroke-width="0.432598"/>
<path d="M229.138 180.004L193.317 215.825H229.138V180.004Z" stroke="#303030" stroke-width="0.432598"/>
<rect width="35.8211" height="35.8211" transform="matrix(-1 0 0 1 264.959 180.004)" stroke="#303030" stroke-width="0.432598"/>
<path d="M264.959 215.825H229.138V251.646L264.959 215.825Z" stroke="#303030" stroke-width="0.432598"/>
<path d="M229.138 180.004H193.317V215.825L229.138 180.004Z" stroke="#303030" stroke-width="0.432598"/>
<path d="M193.316 215.825L157.495 251.646H193.316V215.825Z" stroke="#303030" stroke-width="0.432598"/>
<rect x="587.35" y="215.825" width="35.8211" height="35.8211" stroke="#303030" stroke-width="0.432598"/>
<path d="M587.35 180.004L623.171 215.825H587.35V180.004Z" stroke="#303030" stroke-width="0.432598"/>
<rect x="551.528" y="180.004" width="35.8211" height="35.8211" stroke="#303030" stroke-width="0.432598"/>
<path d="M551.528 215.825H587.349V251.646L551.528 215.825Z" stroke="#303030" stroke-width="0.432598"/>
<path d="M587.35 180.004H623.171V215.825L587.35 180.004Z" stroke="#303030" stroke-width="0.432598"/>
<path d="M623.171 215.825L658.992 251.646H623.171V215.825Z" stroke="#303030" stroke-width="0.432598"/>
<rect width="35.8211" height="35.8211" transform="matrix(-1 0 0 1 157.496 215.825)" stroke="#303030" stroke-width="0.432598"/>
<path d="M157.496 180.004L121.675 215.825H157.496V180.004Z" stroke="#303030" stroke-width="0.432598"/>
<rect width="35.8211" height="35.8211" transform="matrix(-1 0 0 1 193.316 180.004)" stroke="#303030" stroke-width="0.432598"/>
<path d="M193.316 215.825H157.495V251.646L193.316 215.825Z" stroke="#303030" stroke-width="0.432598"/>
<path d="M157.496 180.004H121.675V215.825L157.496 180.004Z" stroke="#303030" stroke-width="0.432598"/>
<path d="M121.674 215.825L85.8527 251.646H121.674V215.825Z" stroke="#303030" stroke-width="0.432598"/>
<rect x="658.991" y="215.825" width="35.8211" height="35.8211" stroke="#303030" stroke-width="0.432598"/>
<path d="M658.991 180.004L694.812 215.825H658.991V180.004Z" stroke="#303030" stroke-width="0.432598"/>
<rect x="623.171" y="180.004" width="35.8211" height="35.8211" stroke="#303030" stroke-width="0.432598"/>
<path d="M623.171 215.825H658.992V251.646L623.171 215.825Z" stroke="#303030" stroke-width="0.432598"/>
<path d="M658.991 180.004H694.812V215.825L658.991 180.004Z" stroke="#303030" stroke-width="0.432598"/>
<path d="M694.812 215.825L730.634 251.646H694.812V215.825Z" stroke="#303030" stroke-width="0.432598"/>
<rect x="730.634" y="215.825" width="35.8211" height="35.8211" stroke="#303030" stroke-width="0.432598"/>
<path d="M730.634 180.004L766.455 215.825H730.634V180.004Z" stroke="#303030" stroke-width="0.432598"/>
<rect x="694.812" y="180.004" width="35.8211" height="35.8211" stroke="#303030" stroke-width="0.432598"/>
<path d="M694.812 215.825H730.634V251.646L694.812 215.825Z" stroke="#303030" stroke-width="0.432598"/>
<path d="M730.634 180.004H766.455V215.825L730.634 180.004Z" stroke="#303030" stroke-width="0.432598"/>
<rect width="35.8211" height="35.8211" transform="matrix(-1 0 0 1 85.8535 215.825)" stroke="#303030" stroke-width="0.432598"/>
<path d="M85.8535 180.004L50.0324 215.825H85.8535V180.004Z" stroke="#303030" stroke-width="0.432598"/>
<rect width="35.8211" height="35.8211" transform="matrix(-1 0 0 1 121.674 180.004)" stroke="#303030" stroke-width="0.432598"/>
<path d="M121.674 215.825H85.8527V251.646L121.674 215.825Z" stroke="#303030" stroke-width="0.432598"/>
<path d="M85.8535 180.004H50.0324V215.825L85.8535 180.004Z" stroke="#303030" stroke-width="0.432598"/>
<g filter="url(#filter0_d_677_13963)">
<path d="M444.026 37.3425H479.621V72.9376L444.026 108.533V72.9376H408.431L444.026 37.3425Z" fill="#D9D9D9" fill-opacity="0.01" shape-rendering="crispEdges"/>
<path d="M372.836 179.723L408.431 144.128H372.836V108.533L337.241 144.128V179.723H372.836Z" fill="#D9D9D9" fill-opacity="0.01" shape-rendering="crispEdges"/>
<path d="M372.836 37.3425L408.431 72.9376L444.026 108.533L479.621 144.128V179.723H444.026L408.431 144.128L372.836 108.533L337.241 72.9376V37.3425L372.836 37.3425Z" fill="#D9D9D9" fill-opacity="0.01" shape-rendering="crispEdges"/>
<path d="M480.054 37.3425V36.9099H479.621H444.026H443.847L443.721 37.0366L408.431 72.3258L373.142 37.0366L373.015 36.9099L372.836 36.9099L337.241 36.9099L336.809 36.9099V37.3425V72.9376V73.1168L336.935 73.2435L372.224 108.533L336.935 143.822L336.809 143.949V144.128V179.723V180.155H337.241H372.836H373.015L373.142 180.029L408.431 144.74L443.721 180.029L443.847 180.155H444.026H479.621H480.054V179.723V144.128V143.949L479.927 143.822L444.638 108.533L479.927 73.2435L480.054 73.1168V72.9376V37.3425ZM373.269 143.695V109.577L407.387 143.695H373.269ZM443.594 107.488L409.476 73.3702H443.594V107.488Z" stroke="url(#paint1_linear_677_13963)" stroke-width="0.865196" shape-rendering="crispEdges"/>
</g>
</g>
</g>
<defs>
<filter id="filter0_d_677_13963" x="328.589" y="28.6905" width="159.684" height="159.684" filterUnits="userSpaceOnUse" color-interpolation-filters="sRGB">
<feFlood flood-opacity="0" result="BackgroundImageFix"/>
<feColorMatrix in="SourceAlpha" type="matrix" values="0 0 0 0 0 0 0 0 0 0 0 0 0 0 0 0 0 0 127 0" result="hardAlpha"/>
<feOffset/>
<feGaussianBlur stdDeviation="3.89338"/>
<feComposite in2="hardAlpha" operator="out"/>
<feColorMatrix type="matrix" values="0 0 0 0 0 0 0 0 0 0 0 0 0 0 0 0 0 0 1 0"/>
<feBlend mode="normal" in2="BackgroundImageFix" result="effect1_dropShadow_677_13963"/>
<feBlend mode="normal" in="SourceGraphic" in2="effect1_dropShadow_677_13963" result="shape"/>
</filter>
<radialGradient id="paint0_radial_677_13963" cx="0" cy="0" r="1" gradientUnits="userSpaceOnUse" gradientTransform="translate(406.252 134.107) rotate(90) scale(200.889 305.539)">
<stop stop-color="#D9D9D9"/>
<stop offset="1" stop-color="#D9D9D9" stop-opacity="0"/>
</radialGradient>
<linearGradient id="paint1_linear_677_13963" x1="383.718" y1="-28.7003" x2="441.278" y2="144.791" gradientUnits="userSpaceOnUse">
<stop stop-color="white"/>
<stop offset="1" stop-color="white" stop-opacity="0"/>
</linearGradient>
<clipPath id="clip0_677_13963">
<rect width="812" height="216" fill="white"/>
</clipPath>
</defs>
</svg>
