<svg xmlns="http://www.w3.org/2000/svg" width="180" height="60" fill="none" viewBox="0 0 180 60"><g fill="#7e7e7e" clip-path="url(#a)"><path fill-rule="evenodd" d="M31.333 16h13.881c4.05 0 7.334 3.22 7.334 7.193v13.614c0 3.973-3.284 7.193-7.334 7.193h-13.88C27.283 44 24 40.78 24 36.807V23.193C24 19.22 27.283 16 31.333 16m10.182 11.937h4.616q-.131-1.54-.745-2.732a6.2 6.2 0 0 0-1.62-2.006 7.1 7.1 0 0 0-2.341-1.25q-1.334-.426-2.922-.426-2.259 0-4.092.975-1.834.966-2.914 2.86-1.08 1.887-1.08 4.642 0 2.739 1.055 4.633 1.065 1.894 2.89 2.869 1.833.975 4.141.975 1.842 0 3.233-.556t2.333-1.467a7 7 0 0 0 1.464-1.998q.516-1.088.598-2.135l-4.616-.033a2.9 2.9 0 0 1-.32.96q-.228.419-.597.717a2.7 2.7 0 0 1-.867.459q-.5.153-1.13.153-1.105 0-1.89-.508-.786-.516-1.203-1.53-.41-1.025-.41-2.54 0-1.432.401-2.457.41-1.023 1.195-1.571.795-.548 1.94-.548.655 0 1.17.185.516.178.876.516.369.33.573.79.213.459.262 1.023" clip-rule="evenodd"/><path d="M75.087 27.228h-2.593a3.8 3.8 0 0 0-.556-1.415 4 4 0 0 0-.997-1.036 4.4 4.4 0 0 0-1.322-.643 5.3 5.3 0 0 0-1.537-.217q-1.47 0-2.634.715-1.155.715-1.828 2.098-.664 1.381-.664 3.374 0 2.01.664 3.391.673 1.383 1.837 2.09t2.617.706a5.5 5.5 0 0 0 1.529-.209 4.5 4.5 0 0 0 1.321-.634q.59-.42.997-1.02.416-.612.573-1.399l2.593.008a6.6 6.6 0 0 1-.806 2.234 6.2 6.2 0 0 1-1.52 1.752 7 7 0 0 1-2.111 1.133 8 8 0 0 1-2.593.401q-2.21 0-3.938-1.012-1.727-1.02-2.726-2.917-.988-1.896-.988-4.524 0-2.636.997-4.523.997-1.897 2.725-2.91 1.73-1.02 3.93-1.02a8.2 8.2 0 0 1 2.526.378q1.18.369 2.12 1.093a6.1 6.1 0 0 1 1.553 1.751q.615 1.028.831 2.355M79.04 31.004v7.328h-2.484V21.876h2.451V28h.158a3.6 3.6 0 0 1 1.371-1.583q.922-.585 2.41-.586 1.313 0 2.293.522.99.522 1.53 1.559.547 1.028.547 2.57v7.851h-2.484v-7.56q0-1.359-.723-2.106-.723-.756-2.01-.755a3.4 3.4 0 0 0-1.58.361q-.69.362-1.088 1.06-.39.693-.39 1.672M92.942 38.606q-1.213 0-2.193-.434a3.66 3.66 0 0 1-1.554-1.278q-.565-.836-.565-2.049 0-1.045.415-1.72.416-.675 1.122-1.068.706-.394 1.579-.595a16 16 0 0 1 1.778-.305l1.861-.209q.715-.088 1.039-.281t.324-.627v-.056q0-1.053-.615-1.631-.606-.579-1.811-.579-1.255 0-1.978.539-.714.53-.989 1.18l-2.335-.513q.416-1.126 1.214-1.816a5 5 0 0 1 1.853-1.013 7.5 7.5 0 0 1 2.201-.321q.765 0 1.62.177a4.8 4.8 0 0 1 1.613.626q.755.459 1.238 1.31.482.844.482 2.194v8.195h-2.427v-1.687h-.1a3.4 3.4 0 0 1-.722.916q-.482.45-1.238.747-.756.298-1.812.298m.54-1.929q1.031 0 1.762-.394.74-.393 1.122-1.028a2.6 2.6 0 0 0 .39-1.374V32.29q-.132.129-.515.241-.374.104-.856.185-.482.072-.939.136l-.764.097a6.3 6.3 0 0 0-1.321.297q-.591.21-.948.603-.349.386-.349 1.028 0 .893.682 1.35.681.45 1.737.45M107.104 25.99v1.929h-6.971V25.99zm-5.102-2.957h2.484v11.675q0 .7.217 1.053.216.345.556.474.35.12.756.12.3 0 .524-.04t.349-.064l.449 1.985q-.217.08-.615.16a5 5 0 0 1-.998.097 4.5 4.5 0 0 1-1.828-.337 3.1 3.1 0 0 1-1.37-1.093q-.525-.74-.524-1.856zM108.921 38.332V21.876h2.485v6.115h.149q.216-.385.624-.892.407-.506 1.13-.884.722-.385 1.911-.385 1.546 0 2.758.755 1.213.756 1.903 2.177.698 1.424.698 3.423 0 2.001-.69 3.431-.689 1.423-1.894 2.194-1.205.763-2.75.763-1.164 0-1.903-.377-.732-.378-1.147-.884a7 7 0 0 1-.64-.9h-.207v1.92zm2.435-6.17q0 1.301.391 2.281.39.98 1.129 1.535.74.546 1.812.546 1.114 0 1.861-.57.748-.579 1.13-1.567.391-.988.391-2.226 0-1.221-.382-2.193-.374-.972-1.131-1.535-.747-.562-1.869-.562-1.08 0-1.828.538-.74.539-1.122 1.502-.382.965-.382 2.25M125.679 38.606q-1.213 0-2.193-.434a3.66 3.66 0 0 1-1.554-1.278q-.565-.836-.565-2.049 0-1.045.415-1.72a3 3 0 0 1 1.122-1.068q.706-.394 1.579-.595a16 16 0 0 1 1.778-.305l1.861-.209q.715-.088 1.039-.281t.324-.627v-.056q0-1.053-.615-1.631-.606-.579-1.811-.579-1.255 0-1.978.539-.714.53-.989 1.18l-2.335-.513q.416-1.126 1.214-1.816a5 5 0 0 1 1.853-1.013 7.5 7.5 0 0 1 2.201-.321q.765 0 1.621.177a4.8 4.8 0 0 1 1.612.626q.756.459 1.238 1.31.482.844.482 2.194v8.195h-2.427v-1.687h-.099q-.241.466-.723.916-.483.45-1.238.747-.756.298-1.812.298m.541-1.929q1.029 0 1.761-.394.74-.393 1.122-1.028.39-.643.39-1.374V32.29q-.132.129-.515.241-.373.104-.856.185-.482.072-.939.136l-.764.097a6.3 6.3 0 0 0-1.321.297 2.3 2.3 0 0 0-.948.603q-.349.386-.349 1.028 0 .893.682 1.35.681.45 1.737.45M143.447 29.004l-2.252.385a2.6 2.6 0 0 0-.449-.795 2.2 2.2 0 0 0-.814-.619q-.515-.24-1.288-.24-1.055 0-1.761.457-.707.45-.707 1.165 0 .62.474.997t1.529.618l2.027.45q1.762.394 2.626 1.213t.864 2.13q0 1.11-.665 1.977-.656.86-1.836 1.35-1.172.49-2.717.49-2.144 0-3.498-.884-1.355-.893-1.662-2.531l2.401-.354q.224.907.923 1.374.698.458 1.819.458 1.223 0 1.953-.49.73-.499.731-1.213 0-.579-.449-.973-.44-.393-1.354-.594l-2.16-.458q-1.787-.394-2.642-1.254-.849-.86-.848-2.177 0-1.093.631-1.913.632-.82 1.745-1.277 1.113-.465 2.551-.466 2.069 0 3.258.868 1.188.859 1.57 2.306M150.525 38.582q-1.887 0-3.249-.78a5.36 5.36 0 0 1-2.094-2.21q-.732-1.43-.731-3.35 0-1.896.731-3.343.74-1.446 2.06-2.258 1.33-.81 3.108-.811 1.08 0 2.094.345t1.82 1.085 1.271 1.92q.465 1.173.465 2.853v.852h-10.145v-1.8h7.711q0-.948-.399-1.68a2.96 2.96 0 0 0-1.122-1.165q-.714-.426-1.678-.425-1.047 0-1.828.498a3.4 3.4 0 0 0-1.197 1.285 3.6 3.6 0 0 0-.415 1.712v1.406q0 1.238.448 2.105.458.868 1.272 1.326.814.45 1.903.45.706 0 1.287-.193a2.8 2.8 0 0 0 1.006-.595q.423-.393.648-.972l2.351.41a4.1 4.1 0 0 1-1.013 1.76q-.723.747-1.82 1.165-1.089.41-2.484.41"/></g><defs><clipPath id="a"><path fill="#fff" d="M24 16h132v28H24z"/></clipPath></defs></svg>