<svg xmlns="http://www.w3.org/2000/svg" width="180" height="60" fill="none" viewBox="0 0 180 60"><path fill="#7e7e7e" d="M50.9 41.693H18.786a2.645 2.645 0 0 1-2.652-2.635V20.942a2.645 2.645 0 0 1 2.652-2.635H50.9a2.645 2.645 0 0 1 2.652 2.635v18.116a2.645 2.645 0 0 1-2.652 2.635m-7.246-16.099c-2.481 0-4.495 2-4.495 4.466s2.014 4.466 4.495 4.466 4.495-2 4.495-4.466c0-2.465-2.014-4.466-4.495-4.466m-17.187 0c-2.482 0-4.495 2-4.495 4.466s2.013 4.466 4.495 4.466c2.481 0 4.495-2 4.495-4.466 0-2.465-2.014-4.466-4.495-4.466"/><path fill="#7e7e7e" fill-rule="evenodd" d="M114.427 24.446h-3.268l-.047 3.782a5 5 0 0 0-.269-.362l-.006-.006-.008-.01-.008-.008-.053-.055c-.736-.653-1.515-.974-2.51-.98l-.178.002c-.426.004-.84.008-1.256.113l-.082.025h-.001l-.064.02a7 7 0 0 0-.491.164c-.693.299-1.446.794-1.762 1.509l-.035.101h-.093c-.447 1.016-.594 1.941-.566 3.044.049 1.08.455 2.107 1.241 2.852l.017.017.019.017.001.002.038.035a1.5 1.5 0 0 0 .411.304l.033.01.067.022v.093c1.232.557 2.609.87 3.942.422.664-.268 1.37-.657 1.67-1.346l.036-.103h.094l.001.141c.006.182.035.364.185 1.305l.001.001h2.941zm-3.697 5.493c.38.419.499.928.484 1.485-.029.4-.112.715-.335 1.052l-.085.129c-.399.41-.975.527-1.528.54-.646.008-1.211-.066-1.702-.529-.33-.33-.417-.797-.429-1.246.009-.589.143-1.13.569-1.555.821-.645 2.261-.576 3.026.124" clip-rule="evenodd"/><path fill="#7e7e7e" d="M72.942 24.715h.101c.51.003 1.013.013 1.515.105l.119.021c1.104.206 2.099.587 2.915 1.38l.03.026.059.051c.582.531.982 1.48 1.078 2.256v.374h-3.735l-.047-.158v-.003l-.01-.032-.04-.132-.025-.085-.018-.057h-.093l-.061-.105c-.205-.334-.585-.482-.948-.584-.783-.164-1.755-.142-2.448.298l-.091.064-.094.063-.003.002c-.437.33-.626.867-.71 1.391a5.9 5.9 0 0 0 .2 2.466h.093l.047.12c.235.403.631.612 1.067.747.316.082.629.079.952.076h.208c.728-.004 1.384-.068 1.928-.607.178-.196.274-.367.374-.616l-2.848-.047-.003-.954-.001-.302v-.297l-.001-.062q0-.15.005-.3c.063-.062.14-.058.224-.054l.066.002h5.91c.06.004.086.005.106.016a.2.2 0 0 1 .043.037q.007.112.006.223v.71l-.001.231v.792l-.001.35v.255l-.001.755v.387l-.003 2.04h-2.941v-.002c-.074-.59-.097-.774-.112-.959l-.01-.134-.006-.071-.008-.126-.015-.21-.01-.15-.008-.123-.005-.072-.006-.087-.031-.444-.023-.33-.026.131-.003.012-.022.106-.012.058-.023.112-.001.006-.012.054c-.19.807-.626 1.477-1.319 1.94-1.192.711-2.771.735-4.094.404q-1.718-.47-2.61-1.983l-.06-.1c-.828-1.426-.779-3.559-.38-5.114.312-1.119 1.031-2.156 2.026-2.77h.094v-.093c.57-.294 1.112-.529 1.736-.683l.023-.005.026-.007.033-.008.035-.009c.63-.148 1.256-.192 1.9-.186"/><path fill="#7e7e7e" fill-rule="evenodd" d="M147.618 26.815h.019l.088-.001.087-.002c.405-.003.772.045 1.162.155l.111.03c1.009.285 1.781.972 2.288 1.875.231.462.355.95.448 1.456l.025.13c.184 1.241-.011 2.554-.76 3.577q-.12.156-.245.308l-.102.14c-.162.192-.373.339-.58.483h-.001l-.068.048-.043.03-.1.07c-.967.643-2.262.74-3.383.569a3.2 3.2 0 0 1-.672-.22l-.138-.059c-.575-.266-.897-.585-1.262-1.107l-.047 4.248h-3.315V27.014h2.895c.158 1.064.182 1.23.186 1.396l.001.098h.093l.019-.058.016-.045c.091-.204.245-.36.401-.518l.044-.045.034-.035.094-.1c.689-.671 1.683-.888 2.612-.891zm.842 4.027c-.097-.463-.276-.8-.654-1.08-.83-.515-2.219-.524-2.944.185-.358.402-.465.927-.468 1.456.02.487.113.91.471 1.26.612.51 1.34.52 2.101.466.491-.087.869-.256 1.19-.644.326-.466.372-1.092.304-1.643M85.236 26.766q.176 0 .35-.003c1.37-.005 2.7.35 3.77 1.231l.103.078c.771.624 1.242 1.658 1.345 2.63.061 1.387-.126 2.57-1.074 3.641l-.023.028-.032.038-.02.023c-.441.484-1.048.773-1.652.997l-.189.072c-1.706.663-4.037.465-5.696-.238-.629-.291-1.251-.769-1.584-1.386v-.094h-.094c-.555-1.35-.78-2.86-.204-4.247.2-.442.442-.805.764-1.168l.089-.101a3.8 3.8 0 0 1 1.172-.833h.093v-.093c.963-.35 1.854-.578 2.882-.575m.112 2.652h.141c.544.008 1.08.136 1.478.527.426.52.49 1.23.43 1.877a1.8 1.8 0 0 1-.187.467l-.082.15c-.33.412-.708.6-1.225.69-.727.048-1.472.072-2.055-.42-.365-.333-.495-.773-.524-1.256-.015-.58.064-1.06.478-1.498.443-.428.95-.534 1.546-.537M97.491 26.763q-.175.003-.35.003c-.552-.002-1.09.017-1.629.153l-.15.045q-.156.045-.31.097c-1.217.428-2.265 1.132-2.846 2.318-.504 1.106-.555 2.52-.147 3.662.416 1.071 1.056 1.801 2.106 2.283 1.586.684 3.932.808 5.554.177l.188-.072c.63-.233 1.23-.537 1.693-1.037l.045-.052.037-.043c.596-.68.988-1.53 1.035-2.44.043-1.347-.171-2.552-1.118-3.574-1.102-1.084-2.589-1.525-4.108-1.52m-.222 2.663h.037l.071-.002c.521 0 .994.112 1.41.437.108.117.195.24.28.374l.048.062.034.046c.24.518.228 1.258.054 1.794a1.58 1.58 0 0 1-.782.823c-.384.142-.728.18-1.133.181l-.14.003c-.532.003-1.068-.121-1.474-.481-.266-.282-.414-.69-.435-1.074l-.007-.123c-.017-.533.06-1.057.427-1.465.227-.211.456-.362.747-.466l.054-.023.002-.001.013-.005.047-.02c.227-.061.447-.06.68-.06h.067M158.308 26.766q.19 0 .38-.003c1.33-.004 2.682.271 3.73 1.138l.099.076c.796.642 1.186 1.698 1.349 2.678v1.494h-7.657c.212.58.358.807.887 1.074.46.192.924.196 1.416.199l.179.002c.499.002.949-.064 1.347-.388l.011-.02.01-.018.009-.016.023-.042c.039-.04.06-.063.086-.077a.5.5 0 0 1 .156-.036l.195.001h.108l.352.003h.244l.644.005.653.004h.002q.645.003 1.288.01l-.065.165-.068.173-.011.029-.027.067c-.132.333-.312.589-.529.873h-.001l-.067.094c-.784 1.013-2.222 1.373-3.423 1.527l-.104.013-.085.01-.026.003-.041.005c-1.738.17-3.75.047-5.176-1.066-.776-.675-1.152-1.596-1.301-2.594-.073-1.31.104-2.644 1.007-3.662l.125-.129.082-.084.004-.004.001-.001.021-.025.048-.055c.54-.595 1.362-.956 2.12-1.175l.057-.018.059-.018c.625-.184 1.243-.214 1.889-.212m.172 2.378.146-.002c.497.003 1.071.08 1.454.426.219.234.425.522.425.854h-4.249c.092-.457.37-.727.747-.98.442-.29.959-.294 1.471-.298zM134.819 26.769h-.133c-.415 0-.829 0-1.243.045l-.034.004-.033.004-.042.005c-1.076.128-2.087.487-2.941 1.167-.634.592-.904 1.299-.981 2.148h3.408l.002-.004c.111-.335.19-.57.485-.772.686-.37 1.734-.376 2.478-.173l.102.035.053.018c.157.052.304.1.396.245.045.189.059.375-.014.557a1.15 1.15 0 0 1-.444.232l-.07.011-.114.019c-.408.066-.818.11-1.23.151q-.366.035-.758.06c-1.038.075-2.168.155-3.039.644l-.041.024-.046.026c-.303.152-.587.306-.834.54-.441.504-.615 1.082-.625 1.748.021.603.213 1.148.656 1.573l.095.069.054.039c.223.172.449.301.712.405 1.58.526 3.243.26 4.703-.452v-.093h.094c.383-.268.671-.582.944-.958l.062-.087.021-.03.071.304.029.126.04.178.187.98h2.894v-.005l.002-2.001.001-1.126.001-.9.001-.204v-.894c.004-.939-.172-1.807-.842-2.503-1.079-1.004-2.619-1.154-4.027-1.155m1.213 5.988c.281-.35.412-.672.383-1.121-.259 0-.612.12-.967.243-.296.102-.593.204-.84.237q-.105.014-.212.027c-.536.067-1.082.135-1.532.455-.163.151-.18.303-.194.519.006.058.009.094.022.127.021.058.069.106.201.238.305.241.305.241 1.142.219a3.03 3.03 0 0 0 1.997-.944" clip-rule="evenodd"/><path fill="#7e7e7e" d="M119.375 24.96h10.084v2.988h-3.361v7.61h-3.455v-7.61h-3.268z"/></svg>