<svg xmlns="http://www.w3.org/2000/svg" width="180" height="60" fill="none" viewBox="0 0 180 60"><path fill="#7e7e7e" d="M67.091 36.3v-5.4h-4.299v5.4h-2.307V24.225h2.307v4.842h4.3v-4.842h2.324v12.077zM78.99 33.854q0 .542.158.804.175.244.542.385l-.472 1.485q-.786-.07-1.293-.384-.49-.315-.752-.962-.471.7-1.188 1.049a3.6 3.6 0 0 1-1.573.332q-1.38 0-2.185-.786-.804-.787-.804-2.063 0-1.503 1.084-2.29 1.101-.803 3.128-.803h1.154v-.524q0-.892-.42-1.241-.402-.367-1.31-.367-1.014 0-2.447.49l-.524-1.521q1.73-.664 3.355-.664 3.548 0 3.548 3.18zm-3.984 1.084q1.136 0 1.783-1.136v-1.87h-.927q-2.166 0-2.167 1.608 0 .663.332 1.03.332.368.98.368M86.487 26.794q1.748 0 2.586 1.275.84 1.276.84 3.583 0 1.433-.438 2.552-.42 1.1-1.258 1.73-.822.63-1.957.63-1.47 0-2.325-1.015v4.317l-2.237.245V27.056h1.957l.123 1.136a3.6 3.6 0 0 1 1.24-1.049q.7-.35 1.469-.35m-.857 8.056q1.94 0 1.94-3.18 0-1.695-.437-2.447t-1.31-.752q-.56 0-1.05.35a2.9 2.9 0 0 0-.838.909v4.16q.647.96 1.695.96M96.898 26.794q1.748 0 2.586 1.275.84 1.276.839 3.583 0 1.433-.437 2.552-.42 1.1-1.258 1.73-.822.63-1.957.63-1.47 0-2.325-1.015v4.317l-2.237.245V27.056h1.957l.123 1.136a3.6 3.6 0 0 1 1.24-1.049q.7-.35 1.469-.35m-.857 8.056q1.94 0 1.94-3.18 0-1.695-.437-2.447-.436-.752-1.31-.752a1.77 1.77 0 0 0-1.049.35 2.9 2.9 0 0 0-.839.909v4.16q.646.96 1.695.96M106.892 36.336q-.56 1.713-1.696 2.656-1.136.962-3.11 1.119l-.228-1.625q.91-.141 1.451-.402.56-.245.891-.665.333-.42.612-1.118h-.769l-2.936-9.245h2.377l2.01 7.76 2.097-7.76h2.307zM119.088 24.224l-.245 1.835h-3.145v10.242h-2.325V26.059h-3.25v-1.835zM127.155 31.46q0 .175-.052.909H121.3q.105 1.346.7 1.922.594.577 1.572.577.612 0 1.154-.192a5.7 5.7 0 0 0 1.153-.63l.927 1.276q-1.538 1.24-3.426 1.241-2.115 0-3.268-1.293-1.136-1.294-1.136-3.53 0-1.416.489-2.535.49-1.135 1.416-1.765.927-.646 2.202-.646 1.94 0 3.006 1.24 1.066 1.224 1.066 3.426m-2.219-.647q0-2.43-1.8-2.43-.822 0-1.294.613-.454.594-.542 1.922h3.636zM135.825 33.854q0 .542.157.804.175.244.542.385l-.472 1.485q-.786-.07-1.293-.384-.49-.315-.752-.962-.471.7-1.188 1.049a3.6 3.6 0 0 1-1.573.332q-1.381 0-2.185-.786-.804-.787-.804-2.063 0-1.503 1.084-2.29 1.101-.803 3.128-.803h1.154v-.524q0-.892-.42-1.241-.402-.367-1.31-.367-1.014 0-2.447.49l-.525-1.521q1.73-.664 3.356-.664 3.548 0 3.548 3.18zm-3.985 1.084q1.136 0 1.783-1.136v-1.87h-.927q-2.166 0-2.167 1.608 0 .663.332 1.03.333.368.979.368M148.337 26.794q1.118 0 1.782.768.664.753.664 2.045v6.694h-2.237v-6.344q0-1.485-1.013-1.486-.542 0-.944.35-.385.331-.804 1.048v6.432h-2.237v-6.344q0-1.485-1.014-1.486-.56 0-.961.35-.384.331-.804 1.048v6.432h-2.237v-9.245h1.94l.175 1.206q1.048-1.469 2.674-1.468.804 0 1.38.419.594.402.857 1.136.559-.752 1.223-1.154.681-.401 1.556-.401M156.299 26.794q1.87 0 3.286 1.1l-.874 1.311q-1.188-.75-2.324-.751-.665 0-1.032.262a.76.76 0 0 0-.367.664q0 .315.158.524.157.21.559.402.42.175 1.223.402 1.503.402 2.22 1.066.734.664.734 1.853 0 1.38-1.119 2.167-1.118.77-2.778.77a6 6 0 0 1-2.08-.35 5 5 0 0 1-1.608-.962l1.118-1.258q1.206.909 2.517.909.751 0 1.189-.297.453-.297.454-.822 0-.401-.175-.629-.157-.244-.594-.42-.42-.191-1.328-.454-1.416-.384-2.08-1.066-.664-.7-.664-1.73 0-.77.437-1.38.454-.613 1.258-.962.822-.35 1.87-.35M51.218 32.963q.28-1.442.281-2.963c0-8.642-7.025-15.648-15.69-15.648-8.666 0-15.69 7.006-15.69 15.648s7.024 15.648 15.69 15.648c1.625 0 3.192-.246 4.666-.703a9 9 0 0 1-.547-2.611 13 13 0 0 1-4.12.662c-7.196 0-13.03-5.818-13.03-12.996s5.834-12.996 13.03-12.996c7.198 0 13.032 5.818 13.032 12.996 0 .927-.097 1.83-.282 2.703a9.2 9.2 0 0 1 2.66.26"/><path fill="#7e7e7e" d="M49.094 33.364c-4.7 0-8.51 3.8-8.51 8.487 0 1.015.252 2.089.506 2.89 1.31-1.434 9.991-11.14 9.991-11.14s-1.375-.237-1.987-.237"/><path fill="#7e7e7e" fill-rule="evenodd" d="M30.154 28.863a.69.69 0 0 1 .758.616c.237 2.31 2.293 4.16 4.844 4.16 2.548 0 4.601-1.845 4.843-4.15a.69.69 0 0 1 1.376.143c-.32 3.05-3.005 5.386-6.219 5.386-3.218 0-5.906-2.343-6.22-5.399a.69.69 0 0 1 .617-.756M39.369 24.96c-.66 0-1.193.547-1.193 1.222s.533 1.222 1.193 1.222c.659 0 1.192-.547 1.192-1.222s-.533-1.221-1.192-1.221M32.108 24.96c-.658 0-1.193.547-1.193 1.222s.535 1.222 1.193 1.222c.659 0 1.193-.547 1.193-1.222s-.534-1.221-1.193-1.221" clip-rule="evenodd"/></svg>