<svg xmlns="http://www.w3.org/2000/svg" width="180" height="60" fill="none" viewBox="0 0 180 60"><path fill="#7e7e7e" d="M123.463 21.94h3.869l5.638 14.92h-3.827l-.906-2.654h-5.762l-.885 2.655h-3.745zm-.021 9.405h3.848l-1.913-5.68zM105.454 21.94h11.442v3.088h-7.923v2.613h7.491v3.108h-7.491v3.004h7.923v3.108h-11.442zM96.323 31.243h-2.387v5.618h-3.519V21.94h5.742q1.235 0 2.201.123a8.7 8.7 0 0 1 1.832.432q.885.309 1.461.824.597.514.926 1.337.35.802.35 1.893 0 2.985-2.922 4.116l3.684 6.195h-4.137zm-2.387-6.339v3.375h2.325q1.42 0 2.182-.35.761-.37.761-1.337 0-.968-.782-1.317-.761-.37-2.16-.37zM79.06 27.847l5.412-5.906h4.3l-5.514 5.947 5.803 8.973h-4.24l-4.033-6.298-1.728 1.894v4.404h-3.52V21.94h3.52zM50.448 18.03c1.953-.137 3.676 1.223 3.928 3.1.238 1.782-.982 3.507-2.815 3.91-.46.102-.97.074-1.457.135a5.1 5.1 0 0 0-3.04 1.482l-.009.005-.01-.001-.008-.006-.003-.01q0-.01.005-.017a.04.04 0 0 0 .008-.025 484 484 0 0 1-.01-5.023c.003-1.857 1.47-3.414 3.411-3.55"/><path fill="#7e7e7e" d="M50.654 33.558c-2.486-.02-4.268-2.466-3.403-4.757a3.67 3.67 0 0 1 3.05-2.333c.424-.044.934-.032 1.343-.109 2.102-.39 3.726-1.998 4.054-4.044.073-.454.035-.996.142-1.477.496-2.23 3.051-3.482 5.197-2.473 1.12.526 1.87 1.52 2.055 2.706q.057.366.037.905c-.243 6.461-5.762 11.635-12.475 11.581M53.785 34.586a.04.04 0 0 1-.023-.023l-.002-.006.002-.006.004-.005.006-.003q3.825-.876 6.629-3.523.05-.049.091.008c.3.394.613.818.864 1.224a11.7 11.7 0 0 1 1.752 5.407q.041.587.026.907c-.093 1.886-1.671 3.407-3.66 3.419-1.762.01-3.31-1.192-3.645-2.874-.08-.398-.055-.949-.122-1.37q-.312-1.94-1.897-3.141zM50.058 41.93c-1.496-.26-2.7-1.422-2.968-2.867q-.055-.297-.055-.904v-4.783q0-.024.017-.008c.978.87 2.006 1.4 3.35 1.49l.36.011c1.749.056 3.23 1.202 3.571 2.866.506 2.462-1.722 4.64-4.275 4.196"/></svg>