<svg xmlns="http://www.w3.org/2000/svg" width="180" height="60" fill="none" viewBox="0 0 180 60"><path fill="#7e7e7e" d="M51.008 17.931h-3.245a10.43 10.43 0 0 0-10.419 10.422 10.43 10.43 0 0 0 10.42 10.42h3.256a10.43 10.43 0 0 0 10.422-10.42 10.43 10.43 0 0 0-10.434-10.422M38.634 28.353a9.122 9.122 0 0 1 10.643-8.997 9.08 9.08 0 0 1 7.599 8.992 5.87 5.87 0 0 1-4.89 5.78 7.15 7.15 0 0 0 2.935-5.78 7.15 7.15 0 0 0-7.165-7.165 7.173 7.173 0 0 0-7.15 7.165 10.39 10.39 0 0 0 4.85 8.82 9.134 9.134 0 0 1-6.815-8.815zm10.747-5.629a5.85 5.85 0 0 1 4.233 5.629 5.85 5.85 0 0 1-4.233 5.626 5.85 5.85 0 0 1-4.233-5.626 5.85 5.85 0 0 1 4.233-5.629m1.627 14.747h-.037a9.4 9.4 0 0 1-1.48-.126 9.08 9.08 0 0 1-7.588-8.686v-.306a5.87 5.87 0 0 1 4.89-5.78 7.15 7.15 0 0 0-2.937 5.78 7.15 7.15 0 0 0 5.372 6.935 7.172 7.172 0 0 0 8.957-6.935 10.38 10.38 0 0 0-4.85-8.82 9.12 9.12 0 0 1 6.803 8.82 9.123 9.123 0 0 1-9.13 9.118M82.303 36.955h-14.84v-1.674c1.83-.308 2.19-.952 2.19-1.57V23.225c0-1.184-.36-1.674-2.19-1.803v-1.674h9.327v1.674c-1.83.129-2.19.62-2.19 1.803V34.32c0 .616.18 1.055 1.726 1.055h1.675c.951 0 2.085-.464 2.884-2.988h1.674zm1.339-6.311c0-4.172 3.015-7.264 7.29-7.264 4.51 0 7.11 3.04 7.11 6.748 0 4.15-3.064 7.19-7.263 7.19-4.586 0-7.137-2.964-7.137-6.674m9.558.954c0-4.096-1.417-6.544-2.808-6.544-1.314 0-1.854 1.65-1.854 4.019 0 4.174 1.442 6.57 2.806 6.57 1.292 0 1.856-1.624 1.856-4.045m6.44-.954c0-4.172 3.016-7.264 7.291-7.264 4.509 0 7.11 3.04 7.11 6.748 0 4.15-3.064 7.19-7.266 7.19-4.583 0-7.135-2.964-7.135-6.674m9.559.954c0-4.096-1.418-6.544-2.808-6.544-1.314 0-1.857 1.65-1.857 4.019 0 4.174 1.445 6.57 2.808 6.57 1.29 0 1.857-1.624 1.857-4.045m20.745-1.674c0 4.507-2.729 7.396-6.672 7.396a5.8 5.8 0 0 1-2.32-.439v1.906c0 .954.387 1.341 2.14 1.598v1.684h-8.424v-1.674c1.338-.309 1.494-.644 1.494-1.598V27.456c0-.671-.232-1.058-1.083-1.443l-.411-.18v-1.34l5.254-1.108h1.03v1.65a3.54 3.54 0 0 1 3.067-1.65c4.095-.005 5.925 3.151 5.925 6.539m-4.946.927c0-2.68-.74-4.998-2.525-4.998-.774 0-.902-.052-1.521.412v5.177c0 3.067.493 3.97 1.83 3.97 1.237 0 2.216-1.521 2.216-4.561m17.397-5.952-2.37 3.247c-1.134-2.268-2.219-3.22-3.503-3.22-.774 0-1.778.464-1.778 1.262 0 2.712 8.062.952 7.91 6.93-.079 2.163-2.165 4.192-5.772 4.192-3.144 0-5.77-1.573-6.411-2.14l2.784-2.91c1.546 2.422 2.808 3.504 4.043 3.504.644 0 1.778-.283 1.805-1.546 0-2.911-7.961-.567-7.936-6.41 0-2.756 2.293-4.438 5.951-4.438 2.88.01 4.737 1.014 5.277 1.529"/></svg>