<svg xmlns="http://www.w3.org/2000/svg" width="180" height="60" fill="none" viewBox="0 0 180 60"><path stroke="#7e7e7e" stroke-width=".501" d="M57.265 12.406H23.25a8.357 8.357 0 0 0-8.358 8.357v18.474a8.357 8.357 0 0 0 8.358 8.357h34.015a8.357 8.357 0 0 0 8.357-8.357V20.763a8.357 8.357 0 0 0-8.357-8.357Z"/><path fill="#7e7e7e" d="M50.37 22.846a1.233 1.233 0 0 1 1.234-1.233h2.467a1.233 1.233 0 0 1 1.233 1.233v6.168a1.233 1.233 0 0 1-1.233 1.233h-2.467a1.233 1.233 0 0 1-1.234-1.233zm5.428 12.581a2.96 2.96 0 1 1-5.921 0 2.96 2.96 0 0 1 5.92 0m-29.85 2.96a1.233 1.233 0 0 1-1.233-1.233V22.846a1.233 1.233 0 0 1 1.233-1.233h3.108c.374 0 .729.17.963.463l3.6 4.5a1.232 1.232 0 0 0 1.926 0l3.6-4.5a1.23 1.23 0 0 1 .964-.463h3.107a1.234 1.234 0 0 1 1.234 1.233v14.308a1.233 1.233 0 0 1-1.234 1.234H40.75a1.23 1.23 0 0 1-1.234-1.234v-4.871c0-1.166-1.468-1.681-2.196-.77l-1.775 2.217a1.233 1.233 0 0 1-1.926 0l-1.774-2.218c-.728-.91-2.196-.395-2.196.771v4.871a1.233 1.233 0 0 1-1.234 1.234zM74.49 24.283h2.073l3.605 8.803h.133l3.605-8.803h2.074v11.325h-1.626v-8.195h-.105l-3.34 8.178H79.56l-3.34-8.184h-.105v8.2H74.49zm16.313 11.513q-.807 0-1.46-.299a2.46 2.46 0 0 1-1.034-.879q-.376-.575-.376-1.41 0-.72.277-1.183a2.04 2.04 0 0 1 .746-.736 3.9 3.9 0 0 1 1.05-.409 11 11 0 0 1 1.184-.21l1.239-.144q.475-.06.69-.193.217-.133.216-.432v-.038q0-.724-.409-1.123-.403-.398-1.205-.398-.835 0-1.316.37-.476.366-.658.813l-1.554-.354q.277-.773.807-1.25.537-.48 1.234-.696a4.8 4.8 0 0 1 1.465-.221q.508 0 1.078.121.575.117 1.073.432.503.315.824.901.32.58.32 1.51v5.64H93.38v-1.161h-.067a2.4 2.4 0 0 1-.48.63 2.6 2.6 0 0 1-.825.514q-.503.205-1.205.205m.36-1.327q.685 0 1.172-.271.492-.27.746-.708.26-.442.26-.946V31.45q-.088.088-.343.166-.249.071-.57.127l-.624.094q-.305.038-.509.066-.48.06-.879.205a1.5 1.5 0 0 0-.63.414q-.233.266-.233.708 0 .614.454.929.453.31 1.155.31m6.034 1.139v-8.494h1.598v1.35h.088q.233-.686.818-1.079.592-.398 1.339-.398a7 7 0 0 1 .702.039v1.581a3 3 0 0 0-.354-.06 3.4 3.4 0 0 0-.509-.04q-.586 0-1.045.25a1.85 1.85 0 0 0-.984 1.664v5.187zm7.496-2.881-.011-2.018h.288l3.384-3.595h1.979l-3.859 4.092h-.26zm-1.52 2.88V24.284h1.653v11.325zm5.363 0-3.041-4.036 1.139-1.155 3.932 5.192zm3.304 3.186V27.114h1.615v1.377h.138a4.6 4.6 0 0 1 .415-.613q.27-.35.752-.609.48-.265 1.272-.265 1.028 0 1.835.52.808.52 1.267 1.498.464.98.464 2.356 0 1.377-.459 2.36-.459.98-1.261 1.51-.801.526-1.83.526-.774 0-1.266-.26a2.4 2.4 0 0 1-.763-.608 4.6 4.6 0 0 1-.426-.62h-.1v4.507zm1.62-7.432q0 .895.26 1.57t.752 1.057q.492.376 1.206.376.74 0 1.238-.393.498-.398.752-1.078.26-.68.26-1.532 0-.84-.254-1.51a2.3 2.3 0 0 0-.752-1.056q-.498-.387-1.244-.387-.72 0-1.217.37-.492.372-.746 1.035-.255.663-.255 1.548m7.99 4.247v-8.494h1.599v1.35h.088q.233-.686.818-1.079a2.34 2.34 0 0 1 1.338-.398 7 7 0 0 1 .703.039v1.581a3 3 0 0 0-.354-.06 3.4 3.4 0 0 0-.509-.04q-.586 0-1.045.25a1.85 1.85 0 0 0-.984 1.664v5.187zm9.25.171q-1.194 0-2.085-.547a3.7 3.7 0 0 1-1.382-1.532q-.492-.984-.492-2.3 0-1.322.492-2.311a3.7 3.7 0 0 1 1.382-1.538q.891-.547 2.085-.547t2.085.547a3.7 3.7 0 0 1 1.382 1.538q.492.99.492 2.31 0 1.317-.492 2.301a3.7 3.7 0 0 1-1.382 1.532q-.891.547-2.085.547m.006-1.388q.774 0 1.282-.409.51-.41.752-1.09a4.3 4.3 0 0 0 .249-1.498q0-.813-.249-1.493a2.4 2.4 0 0 0-.752-1.1q-.508-.414-1.282-.415-.78 0-1.294.415-.51.414-.758 1.1a4.4 4.4 0 0 0-.243 1.493q0 .819.243 1.499.248.68.758 1.09.513.408 1.294.408m5.799 1.217v-8.494h1.587v1.383h.105q.265-.702.868-1.095.603-.398 1.443-.398.852 0 1.427.398.58.398.857 1.095h.088q.304-.68.968-1.084.663-.41 1.581-.41 1.156 0 1.886.725.735.724.735 2.184v5.696h-1.653v-5.54q0-.863-.47-1.25a1.7 1.7 0 0 0-1.123-.388q-.807 0-1.255.498-.447.492-.448 1.266v5.414h-1.647v-5.646q0-.69-.432-1.111-.43-.42-1.122-.42-.47 0-.868.248a1.8 1.8 0 0 0-.636.68 2.1 2.1 0 0 0-.238 1.012v5.237zm13.761 3.185V27.114h1.615v1.377h.138a4.6 4.6 0 0 1 .415-.613q.27-.35.752-.609.482-.265 1.272-.265 1.028 0 1.835.52.808.52 1.267 1.498.464.98.464 2.356 0 1.377-.459 2.36-.459.98-1.26 1.51-.802.526-1.831.526-.774 0-1.266-.26a2.4 2.4 0 0 1-.763-.608 5 5 0 0 1-.426-.62h-.099v4.507zm1.62-7.432q0 .895.26 1.57t.752 1.057q.492.376 1.206.376.741 0 1.238-.393.498-.398.752-1.078.26-.68.26-1.532 0-.84-.254-1.51a2.3 2.3 0 0 0-.752-1.056q-.498-.387-1.244-.387-.719 0-1.217.37-.492.372-.746 1.035-.255.663-.255 1.548m11.955-4.247v1.328h-4.639v-1.328zm-3.395-2.034h1.653v8.034q0 .48.144.724.144.238.371.327.232.083.503.083.2 0 .348-.028l.233-.044.298 1.365a3 3 0 0 1-.409.111q-.265.06-.664.066-.652.011-1.216-.232a2.1 2.1 0 0 1-.913-.752q-.348-.509-.348-1.277z"/></svg>