<svg xmlns="http://www.w3.org/2000/svg" width="180" height="60" fill="none" viewBox="0 0 180 60"><path fill="#7e7e7e" d="m49.887 14.959-8.305 26.743h-3.397l8.276-26.743zm3.02 0v26.743h-3.02V14.959zm11.701 0-8.275 26.743h-3.397l8.275-26.743zm3.02 0v26.743h-3.02V14.959zM95.068 36.156h-4.965v-1.597h1.103V29.97c0-1.074-.203-1.83-.61-2.294-.406-.465-.958-.668-1.655-.668-.929 0-1.626.32-2.09.988-.465.667-.697 1.335-.726 2.003v4.53h1.742v1.597h-4.965V34.53h1.103V29.97c0-1.103-.203-1.858-.61-2.294s-.958-.668-1.626-.668c-.929 0-1.597.32-2.09.958-.465.64-.697 1.307-.726 2.004v4.588h2.003v1.597h-5.865v-1.597h1.742v-7.346h-1.771v-1.627h3.89v1.859a4.5 4.5 0 0 1 1.365-1.51c.581-.378 1.278-.58 2.12-.58s1.539.202 2.178.609 1.074 1.016 1.306 1.858a4.25 4.25 0 0 1 1.423-1.771c.639-.465 1.394-.697 2.294-.697 1.016 0 1.887.32 2.584.958.697.64 1.075 1.626 1.075 2.962v5.285h1.77zm12.341 0h-3.833v-2.09a4.8 4.8 0 0 1-1.423 1.625c-.61.465-1.394.697-2.41.697-1.394 0-2.526-.465-3.368-1.423-.843-.929-1.249-2.236-1.249-3.862 0-1.451.377-2.787 1.161-3.978.755-1.19 2.004-1.8 3.717-1.8s2.846.639 3.572 1.887v-5.72h-2.497v-1.626h4.587V34.56h1.743zm-3.862-4.878V30c-.029-.871-.349-1.597-.93-2.12a3.04 3.04 0 0 0-2.09-.813c-1.046 0-1.83.378-2.381 1.133-.552.755-.813 1.684-.813 2.787 0 1.19.29 2.12.87 2.759.582.639 1.307.958 2.15.958.929 0 1.684-.377 2.264-1.104.61-.754.901-1.538.93-2.322m12.253 4.878v-1.597h1.742V29.97c0-1.074-.203-1.83-.638-2.294-.407-.465-.988-.668-1.656-.668-.9 0-1.626.29-2.148.871a3.18 3.18 0 0 0-.842 2.033v4.617H114v1.597h-5.604V34.53h1.742v-7.318h-1.8v-1.626h3.949v1.8c.755-1.335 1.974-2.003 3.687-2.003 1.046 0 1.946.32 2.672.958.726.64 1.074 1.626 1.074 2.962v5.285h1.742v1.568zM123.06 42.486h19.454v2.555H123.06z"/></svg>