<svg xmlns="http://www.w3.org/2000/svg" width="180" height="60" fill="none" viewBox="0 0 180 60"><path fill="#7e7e7e" d="M68.032 29.445h-8.978v8.878h8.978zM32.12 38.323v-7.816l8.93-8.83h7.904v7.816l-8.93 8.83z"/><path fill="#7e7e7e" d="M45.586 38.323v-7.816l8.93-8.83h7.904v7.816l-8.93 8.83zM86.73 33.37 82.135 22.93h-3.71v13.933h2.77l.007-9.39 4.191 9.39h2.672l4.198-9.387v9.387h2.771V22.93h-3.713zm14.998-6.947c-4.62 0-5.59 2.857-5.59 5.253 0 3.66 1.847 5.437 5.644 5.437 3.799 0 5.608-1.762 5.608-5.388s-1.905-5.304-5.66-5.304zm-2.709 5.204c0-1.831.418-2.761 2.709-2.761 2.132 0 2.782.676 2.782 2.897s-.642 2.913-2.746 2.913-2.745-.71-2.745-3.048zm15.644-5.186h-.054c-1.664.007-2.963 1.18-3.305 1.711V22.93h-2.807v13.933h2.807v-.094l.015-1.329c.456.736 1.677 1.678 3.274 1.678 3.49 0 4.98-1.566 4.98-5.236s-1.514-5.438-4.91-5.438zm2.084 5.235c0 2.772-1.293 2.997-2.856 2.997s-2.82-.221-2.82-2.93c0-2.061.801-2.864 2.856-2.864 2.056 0 2.82.704 2.82 2.795zm10.105-5.235h-.054c-1.663.007-2.963 1.18-3.305 1.711V22.93h-2.807v13.933h2.807v-.094l.015-1.329c.456.734 1.676 1.675 3.274 1.675 3.49 0 4.98-1.566 4.98-5.235s-1.514-5.437-4.91-5.437m2.084 5.235c0 2.772-1.293 2.997-2.856 2.997s-2.82-.221-2.82-2.93c0-2.061.801-2.864 2.857-2.864s2.819.704 2.819 2.795zm6.823-5.016h-2.808v10.201h2.808zm7.524-.223c-1.558 0-2.818.967-3.222 1.715v-1.492h-2.807v10.201h2.807v-5.944c0-1.333.401-1.97 2.677-1.97 1.724 0 2.336.532 2.336 2.036v5.877h2.807v-5.27c0-3.834-1.16-5.134-4.598-5.155zm-7.524-3.509h-2.808v2.643h2.808z"/></svg>