<svg xmlns="http://www.w3.org/2000/svg" width="180" height="60" fill="none" viewBox="0 0 180 60"><path fill="#7e7e7e" d="M39.781 32.175 32.675 21.59v10.586h-4.25V15.014h4.25l7.106 10.634V15.014h4.25v17.161zM60.105 26.359h-9.617q.1 1.27.834 1.944t1.801.672q1.592 0 2.213-1.321h4.523a6.1 6.1 0 0 1-1.254 2.419 6.25 6.25 0 0 1-2.275 1.686q-1.368.61-3.055.61-2.038.001-3.627-.856a6.15 6.15 0 0 1-2.485-2.445q-.896-1.59-.896-3.717 0-2.128.883-3.717a6.06 6.06 0 0 1 2.471-2.445q1.587-.848 3.65-.849 2.013.001 3.578.83a6.04 6.04 0 0 1 2.449 2.37q.881 1.541.882 3.595 0 .584-.075 1.224m-4.274-2.325q0-1.076-.745-1.712c-.495-.423-1.119-.636-1.864-.636q-1.068 0-1.802.61-.733.61-.906 1.738zM70.615 32.175l-2.659-3.788-2.235 3.788h-4.595l4.572-6.969L61 18.534h4.772l2.659 3.765 2.235-3.765h4.596l-4.648 6.869 4.772 6.772zM84.755 28.632v3.546h-2.163q-2.309 0-3.604-1.11-1.292-1.113-1.293-3.63v-5.432h-1.69v-3.472h1.69V15.21h4.25v3.326h2.784v3.472h-2.784v5.477q0 .61.299.881c.2.181.528.269.994.269h1.517zM103.74 16.09q2.061 1.075 3.193 3.019 1.13 1.943 1.129 4.485 0 2.52-1.129 4.473-1.13 1.957-3.206 3.033t-4.809 1.075h-6.535V15.014h6.535q2.757 0 4.822 1.075m-1.343 11.173q1.344-1.294 1.343-3.669c0-1.579-.447-2.812-1.343-3.69q-1.344-1.323-3.751-1.322H96.63v9.976h2.012q2.412-.001 3.755-1.295M149.09 19.035a4.86 4.86 0 0 1 2.485-.65v4.425h-1.168q-1.589 0-2.386.671c-.532.45-.795 1.234-.795 2.361v6.333h-4.25V18.534h4.25v2.273a5.6 5.6 0 0 1 1.864-1.772M49.044 43.375h2.672v1.55h-4.71v-8.238h2.038zM60.693 38.295v1.666h2.73v1.55h-2.73v1.809h3.088v1.608h-5.127v-8.241h5.127v1.608zM78.558 44.925H76.52l-3.41-5.08v5.08H71.07v-8.238h2.038l3.41 5.102v-5.102h2.039zM91.448 37.203q.99.517 1.532 1.45.542.934.542 2.154c0 .808-.18 1.521-.542 2.148a3.7 3.7 0 0 1-1.539 1.456q-.996.518-2.307.517h-3.138v-8.241h3.138q1.323.002 2.314.516m-.644 5.365q.645-.622.644-1.76 0-1.14-.644-1.773-.645-.635-1.802-.633h-.965v4.786h.965c.775 0 1.372-.207 1.802-.62M102.67 36.687v8.238h-2.039v-8.238zM117.601 44.925h-2.039l-3.41-5.08v5.08h-2.038v-8.238h2.038l3.41 5.102v-5.102h2.039zM130.599 39.293a1.5 1.5 0 0 0-.65-.627q-.423-.217-.995-.216-.99 0-1.585.64-.597.638-.598 1.708 0 1.138.627 1.776.626.64 1.723.64.754-.002 1.271-.375.516-.374.758-1.079h-2.587v-1.479h4.438v1.867q-.227.75-.768 1.395a4 4 0 0 1-1.379 1.043q-.837.399-1.883.4-1.242 0-2.213-.532a3.8 3.8 0 0 1-1.513-1.486q-.542-.95-.542-2.17 0-1.221.542-2.177a3.8 3.8 0 0 1 1.51-1.489q.964-.532 2.205-.532 1.504 0 2.534.716 1.031.716 1.366 1.983h-2.261zM123.319 21.947a6.4 6.4 0 0 0-2.607-2.477q-1.655-.861-3.709-.862-2.053 0-3.709.862a6.4 6.4 0 0 0-2.606 2.477q-.95 1.614-.952 3.737 0 2.146.939 3.746a6.37 6.37 0 0 0 2.58 2.464q1.641.862 3.696.862 2.052 0 3.722-.862a6.5 6.5 0 0 0 2.632-2.477q.965-1.614.965-3.736 0-2.117-.951-3.734m-2.308 7.651h-2.82v-2.961h-2.373v2.961h-2.819v-4.705l4.004-2.529 4.005 2.529v4.705zm.834-5.232a.47.47 0 0 1-.644.136l-4.198-2.684-4.198 2.684a.467.467 0 0 1-.643-.136.45.45 0 0 1 .138-.633l4.451-2.845c.154-.1.354-.1.508 0l4.451 2.845a.454.454 0 0 1 .135.633M139.671 21.947a6.4 6.4 0 0 0-2.607-2.477q-1.654-.861-3.709-.862-2.054 0-3.708.862a6.4 6.4 0 0 0-2.607 2.477q-.95 1.614-.951 3.737-.001 2.146.938 3.746a6.4 6.4 0 0 0 2.581 2.464q1.64.862 3.695.862 2.053 0 3.722-.862a6.5 6.5 0 0 0 2.633-2.477q.965-1.614.965-3.736-.001-2.117-.952-3.734m-2.308 7.651h-2.823v-2.961h-2.373v2.961h-2.819v-4.705l4.004-2.529 4.005 2.529v4.705zm.834-5.232a.47.47 0 0 1-.644.136l-4.198-2.684-4.197 2.684a.47.47 0 0 1-.644-.136.45.45 0 0 1 .138-.633l4.451-2.845c.154-.1.354-.1.509 0l4.45 2.845a.454.454 0 0 1 .135.633"/></svg>