<svg xmlns="http://www.w3.org/2000/svg" width="180" height="60" fill="none" viewBox="0 0 180 60"><path fill="#7e7e7e" fill-rule="evenodd" d="M50.755 17.632c-2.64-.657-5.146.496-6.867 2.196l-2.19 2.163a6.7 6.7 0 0 1-3.006 1.712l-7.914 2.075c-2.34.614-4.962 2.248-5.418 5.187-.377 2.436.1 5.268 2.5 7.533 2.344 2.212 6.33 3.695 12.547 3.986 9.823.458 16.506-1.293 19.845-4.84 1.717-1.822 2.485-4.058 2.35-6.495-.131-2.397-1.13-4.921-2.808-7.438-2.542-3.814-6.343-5.41-9.039-6.08m-4.985 4.101c1.287-1.27 2.88-1.866 4.34-1.503 2.35.584 5.426 1.921 7.456 4.966 1.509 2.263 2.265 4.33 2.363 6.1.095 1.732-.431 3.243-1.626 4.512-2.484 2.638-8.093 4.452-17.77 4-5.924-.276-9.158-1.676-10.835-3.258-1.62-1.528-1.966-3.401-1.691-5.175.215-1.392 1.55-2.508 3.45-3.006l7.914-2.075a9.4 9.4 0 0 0 4.208-2.398zM99.3 20.12v8.75a4.1 4.1 0 0 1 1.215-1.261q.994-.64 2.254-.64 1.325 0 2.452.64 1.127.618 1.812 1.812.684 1.17.685 2.85 0 1.656-.685 2.85-.685 1.192-1.812 1.833a5 5 0 0 1-2.452.619q-1.26 0-2.254-.64a4.1 4.1 0 0 1-1.215-1.261v1.68h-2.408V20.12zm.42 13.918q-.42-.729-.42-1.767 0-1.039.42-1.746.442-.729 1.105-1.104.662-.376 1.347-.376.84 0 1.525.376.707.375 1.126 1.104.42.729.42 1.746t-.42 1.745a2.8 2.8 0 0 1-1.126 1.105 3.1 3.1 0 0 1-1.525.375q-.685 0-1.347-.375a3.1 3.1 0 0 1-1.105-1.083M73.187 21.887v15.465h2.607v-5.855h2.055q1.68 0 2.916-.574 1.26-.596 1.944-1.68.685-1.08.685-2.562 0-1.48-.685-2.54-.685-1.083-1.944-1.658-1.237-.597-2.916-.596zm2.607 2.297V29.2h2.055q1.347 0 2.165-.641.817-.64.817-1.878t-.817-1.856q-.818-.64-2.165-.64zM84.96 35.054a4.6 4.6 0 0 0 1.811 1.856q1.194.663 2.74.663 1.767 0 3.026-.685 1.26-.684 2.055-2.054l-2.055-.84q-.486.818-1.215 1.215t-1.7.398q-.93 0-1.591-.398-.642-.398-.973-1.149a4.2 4.2 0 0 1-.3-1.237h7.9q.023-.089.023-.287.022-.2.022-.376 0-1.635-.619-2.784a4.13 4.13 0 0 0-1.723-1.79q-1.127-.618-2.74-.618-1.612 0-2.806.663a4.54 4.54 0 0 0-1.855 1.834q-.641 1.192-.641 2.806 0 1.59.64 2.783m1.862-3.866h5.287a2.7 2.7 0 0 0-.323-1.149 2.24 2.24 0 0 0-.883-.928q-.553-.33-1.304-.331-.907 0-1.546.397-.642.399-.972 1.15a4 4 0 0 0-.259.861M112.31 28.87v-8.75h-2.408v17.232h2.408v-1.68a4.1 4.1 0 0 0 1.215 1.26q.994.64 2.254.641a5 5 0 0 0 2.452-.619q1.127-.64 1.812-1.833t.685-2.85q0-1.68-.685-2.85-.685-1.194-1.812-1.812a4.9 4.9 0 0 0-2.452-.64q-1.26 0-2.254.64a4.1 4.1 0 0 0-1.215 1.26m0 3.4q0 1.04.42 1.768.442.706 1.105 1.083.662.375 1.347.375a3.1 3.1 0 0 0 1.525-.375q.707-.376 1.127-1.105.419-.73.419-1.745 0-1.017-.419-1.746a2.8 2.8 0 0 0-1.127-1.104 3.1 3.1 0 0 0-1.525-.376q-.685 0-1.347.376-.663.375-1.105 1.104-.42.707-.42 1.746" clip-rule="evenodd"/><path fill="#7e7e7e" d="M123 20.12h2.387v17.232H123z"/><path fill="#7e7e7e" fill-rule="evenodd" d="M128.305 35.054a4.58 4.58 0 0 0 1.812 1.856q1.192.663 2.739.663 1.769 0 3.027-.685 1.26-.684 2.055-2.054l-2.055-.84q-.486.818-1.215 1.215t-1.701.398q-.928 0-1.591-.398-.64-.398-.972-1.149a4.2 4.2 0 0 1-.301-1.237h7.901a1.3 1.3 0 0 0 .022-.287q.022-.2.022-.376 0-1.635-.618-2.784a4.13 4.13 0 0 0-1.724-1.79q-1.126-.618-2.739-.618t-2.806.663a4.54 4.54 0 0 0-1.856 1.834q-.64 1.192-.641 2.806 0 1.59.641 2.783m1.863-3.866h5.286a2.7 2.7 0 0 0-.322-1.149 2.24 2.24 0 0 0-.884-.928q-.553-.33-1.303-.331-.906 0-1.547.397-.64.399-.972 1.15a4 4 0 0 0-.258.861" clip-rule="evenodd"/><path fill="#7e7e7e" d="M140.326 20.12h2.386v17.232h-2.386zM148.127 42.213l6.628-15.024h-2.563l-2.635 6.606-2.667-6.606h-2.74l4.087 8.97-2.651 6.054z"/></svg>