<svg xmlns="http://www.w3.org/2000/svg" width="180" height="60" fill="none" viewBox="0 0 180 60"><g clip-path="url(#a)"><mask id="b" width="97" height="56" x="40" y="16" maskUnits="userSpaceOnUse" style="mask-type:luminance"><path fill="#fff" d="M136.854 16.71H40.806v54.48h96.048z"/></mask><g mask="url(#b)"><path fill="#7e7e7e" d="M136.854 40.104H110.49V33.42h26.364z"/><path fill="#7e7e7e" d="M133.43 40.104h-22.94V23.39h22.94z"/><path fill="#7e7e7e" d="M123.952 40.103H110.49V16.711h13.462z"/><path fill="#7e7e7e" d="M126.601 40.103H110.49V19.321h16.111z"/><path fill="#7e7e7e" d="M110.486 19.325v20.776h13.465V19.325z"/><path fill="#3e3e3e" d="M96.99 40.104h13.5v3.34h-13.5z"/><path fill="#7e7e7e" d="M123.872 23.386v10.081h2.736v-10.08z"/><path fill="#7e7e7e" d="M110.486 23.386v16.715h13.465V23.386z"/><path fill="#505050" d="M118.909 33.533h-8.419v-3.461h8.419z"/><path fill="#7e7e7e" d="M110.486 33.426V40.1h22.951v-6.675z"/><path fill="#7e7e7e" d="M123.937 33.426V40.1h2.671v-6.675z"/><path fill="#505050" d="M110.486 33.426V40.1h13.465v-6.675z"/><path fill="#3e3e3e" d="M110.486 33.426V40.1h8.431v-6.675z"/><path fill="#7e7e7e" d="M98.94 22.755c-2.296.404-3.521 2.123-3.521 5.105 0 3.033 1.633 5.055 4.032 5.055 1.174 0 2.195-.404 4.339-1.466v2.477c-2.603 1.213-4.134 1.516-6.176 1.516-2.297 0-3.93-.556-5.207-1.92-1.327-1.315-2.041-3.033-2.041-5.005 0-4.296 3.266-7.279 8.013-7.279 3.114 0 5.309 1.466 5.309 3.539 0 1.364-1.021 2.325-2.501 2.325-.766 0-1.378-.253-2.246-.708M87.456 28.517c2.093-2.578 2.859-3.64 2.859-4.903 0-1.264-1.021-2.376-2.45-2.376-.817 0-1.583.455-1.94.86v5.307l-3.42 4.55V21.642h-3.267l-5.41 8.846v-8.846H71.99l-4.951 1.112v1.264l2.705.252V35.24h3.42l5.207-8.492v8.492h3.828M56.677 33.522h.766c2.756 0 4.288-1.668 4.288-5.005 0-2.78-1.225-4.296-3.522-4.296-.307 0-.766.05-1.532.202zm0 5.964 2.246.506v1.263h-8.83v-1.263l2.042-.506V24.221h-2.246v-1.264l5.36-1.617h1.428v1.82c2.502-1.517 3.37-1.77 4.696-1.77 2.96 0 5.207 2.73 5.207 6.52 0 4.348-3.012 7.33-7.606 7.33-.51 0-1.378-.05-2.297-.101"/></g></g><defs><clipPath id="a"><path fill="#fff" d="M43.65 16.5h92.7v27h-92.7z"/></clipPath></defs></svg>