<svg width="180" height="60" viewBox="0 0 180 60" fill="none" xmlns="http://www.w3.org/2000/svg">
<path fill-rule="evenodd" clip-rule="evenodd" d="M64.1997 42.4143C64.2286 42.5461 64.3272 42.567 64.4257 42.5878C64.4927 42.602 64.5596 42.6162 64.6045 42.6653C64.6186 42.6808 64.635 42.6945 64.6514 42.708L64.6655 42.7198L64.678 42.7307C64.6696 42.7346 64.6611 42.7381 64.6525 42.7417C64.6354 42.7489 64.6183 42.756 64.6022 42.7652C64.5023 42.8272 64.4093 42.8398 64.2829 42.8088C64.2186 42.7928 64.154 42.7783 64.0894 42.7638C63.8393 42.7076 63.5903 42.6517 63.3676 42.5102C63.3561 42.5026 63.3369 42.5077 63.3172 42.513C63.3074 42.5156 63.2975 42.5183 63.2884 42.5194L63.2891 42.5233L63.2898 42.5288L63.2904 42.5338L63.2911 42.5426C63.2925 42.5597 63.2939 42.5766 63.3033 42.586C63.4342 42.7261 63.5135 42.8858 63.5146 43.0833C63.5146 43.1466 63.5224 43.2093 63.5303 43.2723C63.5337 43.2996 63.5371 43.3269 63.5399 43.3543C63.4057 43.3591 63.4026 43.2751 63.3997 43.1952C63.3984 43.1603 63.3971 43.1261 63.3848 43.1005C63.2579 42.8331 63.0336 42.676 62.8093 42.5189C62.7678 42.4898 62.7263 42.4608 62.6854 42.431C62.6096 42.3756 62.5198 42.3375 62.4313 42.2999L62.3834 42.2794C62.2827 42.2363 62.18 42.1972 62.0774 42.158C62.0431 42.1449 62.0087 42.1318 61.9745 42.1186C61.9899 42.1543 62.0081 42.1897 62.0263 42.225C62.0667 42.3034 62.1071 42.3816 62.1158 42.4631C62.1354 42.6501 62.1336 42.8391 62.1318 43.0276C62.1312 43.0822 62.1307 43.1368 62.1307 43.1913C62.1307 43.206 62.1181 43.2203 62.1053 43.2347C62.0992 43.2416 62.0931 43.2485 62.0882 43.2556C62.0838 43.2471 62.0785 43.2388 62.0732 43.2305C62.0634 43.2151 62.0537 43.1996 62.0492 43.1832C61.9803 42.8754 61.8838 42.5814 61.6231 42.3759C61.4899 42.2713 61.3544 42.168 61.212 42.0773C61.1665 42.048 61.1128 42.0321 61.0587 42.0162C61.0322 42.0084 61.0057 42.0006 60.98 41.9911C60.986 42.0125 60.9916 42.034 60.9972 42.0556C61.0109 42.1081 61.0248 42.1613 61.0443 42.2116C61.1924 42.5929 61.2062 42.8054 61.1017 43.1947C61.0971 43.2115 61.086 43.2267 61.075 43.2418L61.0667 43.2534C61.064 43.2572 61.0615 43.2609 61.0592 43.2648C61.0545 43.2566 61.0484 43.2485 61.0422 43.2404C61.0304 43.2249 61.0186 43.2095 61.0179 43.1936C60.9975 42.6762 60.6939 42.3118 60.3902 41.9474C60.3508 41.9001 60.3113 41.8527 60.2725 41.8051C60.2317 41.7553 60.1884 41.7075 60.145 41.6594C60.1212 41.6331 60.0974 41.6068 60.0738 41.58C60.0595 41.5642 60.0467 41.5469 60.0337 41.5294C60.0269 41.5202 60.0201 41.511 60.013 41.5019C60.0102 41.5099 60.0068 41.5178 60.0035 41.5257C59.996 41.5438 59.9885 41.5616 59.9877 41.58C59.9762 41.8924 59.982 42.1978 60.1048 42.4999C60.178 42.6781 60.224 42.8675 60.2701 43.0566C60.2869 43.1258 60.3037 43.195 60.3219 43.2636C60.3259 43.279 60.3157 43.2984 60.3057 43.3174C60.3015 43.3253 60.2974 43.3331 60.2943 43.3406C60.2869 43.3365 60.2785 43.3331 60.2702 43.3298C60.2527 43.3228 60.2355 43.3159 60.2277 43.3027C60.1862 43.239 60.1446 43.1755 60.1029 43.1121L60.1023 43.1111C59.9435 42.8692 59.7845 42.627 59.6374 42.3782C59.5834 42.2874 59.5639 42.1657 59.5582 42.0566C59.5513 41.925 59.5512 41.7934 59.5511 41.6619C59.551 41.55 59.5509 41.438 59.5467 41.3262C59.5459 41.2994 59.5208 41.2731 59.4958 41.247C59.4875 41.2384 59.4793 41.2298 59.472 41.2212C59.4718 41.2997 59.4724 41.3782 59.473 41.4567C59.4746 41.6589 59.4762 41.8616 59.464 42.0623C59.4399 42.4551 59.3939 42.8467 59.2343 43.2142C59.2223 43.2421 59.2028 43.267 59.1834 43.2918C59.1732 43.3049 59.163 43.3179 59.1539 43.3314C59.1504 43.3194 59.146 43.3074 59.1416 43.2954C59.1317 43.2683 59.1218 43.2413 59.1218 43.2142C59.1205 43.1364 59.1223 43.0583 59.1241 42.9801C59.1272 42.843 59.1303 42.7051 59.1172 42.57L59.1057 42.4537C59.0591 41.9753 59.0124 41.4962 58.783 41.0574C58.7727 41.0385 58.7581 41.0223 58.7433 41.0058C58.7365 40.9983 58.7297 40.9907 58.7232 40.9828C58.7219 40.9867 58.7203 40.9906 58.7186 40.9945L58.7133 41.0066C58.705 41.025 58.6967 41.0432 58.6991 41.0609C58.7254 41.3032 58.6593 41.5289 58.5934 41.7541C58.5643 41.8534 58.5353 41.9526 58.5142 42.0531L58.4993 42.1246C58.3562 42.8104 58.3487 42.8462 58.5154 43.6173C58.5209 43.6443 58.5155 43.6735 58.5101 43.7025C58.5077 43.7156 58.5053 43.7286 58.5039 43.7414C58.4947 43.7322 58.4846 43.7236 58.4746 43.7151C58.4532 43.697 58.4321 43.6791 58.4212 43.6564C58.1628 43.1281 58.0066 42.5952 58.1582 41.9888C58.2068 41.795 58.1989 41.5871 58.191 41.3787C58.1867 41.2672 58.1825 41.1556 58.1869 41.0459C58.2076 40.5188 58.1593 40.0008 58.01 39.4944C57.9982 39.4555 57.9883 39.4154 57.9783 39.3755L57.9675 39.3324C57.9628 39.3512 57.9571 39.3699 57.9514 39.3887C57.9379 39.4332 57.9244 39.4779 57.9228 39.5231C57.9201 39.5971 57.9214 39.6714 57.9228 39.7457C57.9243 39.8293 57.9259 39.9129 57.9216 39.9962C57.9146 40.1357 57.909 40.2752 57.9033 40.4148C57.8877 40.8007 57.8721 41.1868 57.8274 41.5696C57.7539 42.1933 57.4726 42.725 56.9891 43.1384C56.976 43.1498 56.9584 43.1566 56.941 43.1633C56.9339 43.166 56.9268 43.1687 56.9201 43.1717C56.9172 43.1587 56.912 43.1448 56.9069 43.131C56.8962 43.1022 56.8856 43.0736 56.8949 43.0535C56.9305 42.9726 56.97 42.8932 57.0094 42.8138C57.0513 42.7295 57.0931 42.6453 57.1303 42.5596C57.2015 42.3942 57.2716 42.2266 57.3164 42.0531C57.3324 41.9906 57.3216 41.9209 57.3108 41.8516C57.3062 41.8216 57.3016 41.7917 57.2991 41.7626C57.2808 41.7896 57.2622 41.8165 57.2435 41.8434C57.2131 41.8872 57.1825 41.9314 57.1533 41.9762C57.125 42.0195 57.097 42.063 57.069 42.1065C57.0132 42.1935 56.9573 42.2805 56.8983 42.3655C56.7444 42.5895 56.6009 42.8157 56.6284 43.1063C56.6307 43.135 56.633 43.166 56.625 43.1913C56.5999 43.2682 56.573 43.3439 56.546 43.4197L56.5457 43.4206L56.5159 43.5048C56.5096 43.472 56.5018 43.4392 56.494 43.4065C56.4778 43.3382 56.4616 43.2699 56.4585 43.2016C56.4424 42.818 56.4699 42.4494 56.6147 42.0773C56.7789 41.6569 56.8329 41.201 56.8019 40.7427C56.8003 40.7154 56.7897 40.6892 56.7791 40.6629C56.7741 40.6505 56.7692 40.6381 56.7651 40.6256C56.7604 40.6369 56.7553 40.6482 56.7502 40.6595C56.7392 40.6839 56.7282 40.7085 56.7203 40.7336C56.6898 40.8283 56.6609 40.9237 56.632 41.0191C56.5716 41.2184 56.5112 41.4176 56.4366 41.611C56.2586 42.0706 55.9517 42.45 55.6458 42.8283L55.5753 42.9156C55.4138 43.1166 55.2523 43.3176 55.0898 43.5186C55.0665 43.2494 55.1747 43.0189 55.2831 42.7882C55.3086 42.7338 55.3344 42.6789 55.3582 42.6239C55.3674 42.6025 55.3735 42.579 55.3797 42.5556L55.384 42.5391L55.3864 42.5305L55.3892 42.5206C55.3775 42.5223 55.3653 42.5231 55.3531 42.5239C55.3246 42.5257 55.2961 42.5276 55.2744 42.5412C54.8667 42.795 54.459 43.0489 54.2109 43.4853C54.2017 43.5022 54.1733 43.5078 54.1445 43.5135C54.1304 43.5162 54.1162 43.519 54.1041 43.5232C54.1057 43.5069 54.1076 43.4906 54.1095 43.4742L54.1119 43.4537C54.1132 43.4421 54.1145 43.4305 54.1156 43.4187C54.1512 43.0661 54.3212 42.7847 54.5658 42.5355C54.753 42.3437 54.9253 42.137 55.0941 41.928L55.0983 41.9227C55.1806 41.8207 55.2684 41.7119 55.2553 41.5655C55.2333 41.5831 55.2106 41.6 55.1878 41.617C55.1351 41.6564 55.0823 41.6958 55.039 41.7431C54.5348 42.3001 53.8848 42.5814 53.175 42.764C52.8064 42.8588 52.4417 42.97 52.0769 43.0813C51.9599 43.117 51.8428 43.1527 51.7256 43.1878C51.6499 43.2106 51.5765 43.2421 51.5029 43.2736C51.4727 43.2866 51.4425 43.2995 51.4121 43.3119C51.384 43.3234 51.3611 43.3471 51.3382 43.3707C51.2927 43.4176 51.2473 43.4645 51.1618 43.4164L51.1999 43.3585C51.232 43.3096 51.2644 43.2605 51.2973 43.2119C51.5683 42.8157 51.9852 42.6435 52.4147 42.5022C52.6204 42.4341 52.8297 42.3781 53.0388 42.3221L53.0398 42.3218C53.1407 42.2948 53.2424 42.2675 53.3427 42.2392C53.3642 42.2336 53.385 42.2249 53.4056 42.2163L53.4196 42.2105C53.4114 42.2047 53.4033 42.1981 53.3952 42.1914C53.3775 42.1767 53.3597 42.162 53.3392 42.1565C52.7995 42.0118 52.2838 42.0107 51.8095 42.3713C51.3937 42.6871 50.9056 42.787 50.3946 42.8628C49.9627 42.9271 49.5324 42.9241 49.1022 42.9212C48.8794 42.9197 48.6559 42.9181 48.433 42.926C48.406 42.9268 48.3791 42.916 48.3517 42.9052C48.3395 42.9003 48.3271 42.8954 48.3147 42.8915L48.3241 42.8869L48.3413 42.878C48.3659 42.8653 48.3908 42.8523 48.4169 42.8456C48.5308 42.8163 48.6445 42.7866 48.7582 42.7569L48.7593 42.7566C49.0911 42.6699 49.4231 42.5831 49.7572 42.5079C50.4371 42.3552 51.0825 42.122 51.6326 41.6856C51.9978 41.3962 52.4182 41.3204 52.8569 41.2963C53.5322 41.2607 54.1282 41.0551 54.5945 40.5429C55.0378 40.0571 55.1837 39.5036 55.0045 38.8593C54.7771 38.0416 54.2465 37.5259 53.4633 37.2422C53.1325 37.1228 52.8052 37.0068 52.4469 36.9896C51.8658 36.962 51.4385 37.2066 51.1273 37.6867C51.0634 37.785 50.9954 37.8807 50.9275 37.9762C50.8232 38.1229 50.719 38.2694 50.63 38.4251C50.421 38.7915 50.0673 38.9328 49.7066 39.0511C49.1519 39.2325 48.6638 39.0212 48.1964 38.7398C48.1712 38.7248 48.1488 38.7051 48.1263 38.6853C48.1057 38.6672 48.0851 38.649 48.0621 38.6342C47.8909 38.5228 47.7244 38.4102 47.6532 38.2046C47.7147 38.2346 47.7763 38.2641 47.8377 38.2936C47.9504 38.3477 48.0637 38.402 48.1757 38.4585C48.6317 38.6881 49.0945 38.7111 49.5654 38.5113C49.9042 38.3677 50.1431 38.1024 50.3314 37.8027C50.4313 37.6419 50.5117 37.4306 50.5014 37.248C50.4888 37.0355 50.4164 36.7978 50.1477 36.722C49.9919 36.6774 49.8371 36.6277 49.6824 36.578C49.3706 36.4777 49.059 36.3776 48.7396 36.32C48.2917 36.2385 47.9265 36.5026 47.6038 36.7886C47.4978 36.8826 47.399 36.9846 47.3003 37.0866C47.2195 37.1701 47.1385 37.2539 47.0537 37.333C46.6644 37.6947 46.2188 37.9152 45.6698 37.8498C45.5901 37.8402 45.512 37.8121 45.4348 37.7843L45.3896 37.7682C45.3712 37.7621 45.3564 37.7463 45.3415 37.7303C45.334 37.7223 45.3264 37.7143 45.3184 37.7074C45.3259 37.7046 45.3334 37.7015 45.341 37.6983C45.3588 37.6909 45.3768 37.6834 45.3953 37.6809C45.4472 37.6741 45.4992 37.6694 45.5512 37.6646C45.6395 37.6566 45.7277 37.6485 45.8145 37.6304C46.4232 37.5029 46.8389 37.1182 47.1548 36.6071C47.2662 36.4268 47.3753 36.2454 47.466 36.0547C47.6934 35.5793 48.3239 35.2749 48.8706 35.5149C49.0011 35.5724 49.1344 35.6245 49.2676 35.6765C49.4085 35.7315 49.5496 35.7866 49.6871 35.848C49.8456 35.9192 50.0018 35.9628 50.1764 35.9651C50.3372 35.9674 50.3808 35.8928 50.3624 35.7561C50.3516 35.6728 50.339 35.5898 50.3263 35.5066C50.3093 35.3949 50.2922 35.283 50.2797 35.1704C50.2758 35.1378 50.2909 35.1035 50.306 35.0692C50.3132 35.0527 50.3205 35.0363 50.3257 35.02C50.3373 35.0291 50.3514 35.0379 50.3654 35.0467C50.3972 35.0664 50.4292 35.0864 50.4348 35.1118C50.5427 35.5861 50.9171 35.7607 51.3202 35.8606C51.4978 35.9045 51.6757 35.9468 51.8537 35.9892L51.8559 35.9897L51.8568 35.99L51.8579 35.9902C52.345 36.1062 52.8324 36.2222 53.3117 36.3682C53.4575 36.413 53.5999 36.397 53.7113 36.2947C53.8113 36.2029 53.9054 36.1064 53.8296 35.933L53.8143 35.8979C53.7631 35.7801 53.715 35.6694 53.6241 35.5701C53.1199 35.0177 52.5066 34.6111 51.8704 34.2356C51.2651 33.8784 50.6335 33.9014 49.9984 34.1563C49.8304 34.2236 49.6648 34.2977 49.4995 34.3716L49.4985 34.372L49.4976 34.3724C49.4071 34.4129 49.3161 34.4535 49.2254 34.4928C48.6248 34.7535 48.0046 34.7145 47.3982 34.556C47.0411 34.463 46.7298 34.5066 46.4209 34.6628C46.2211 34.7638 46.0316 34.889 45.8444 35.0131C45.5148 35.2313 45.192 35.4414 44.797 35.5471C44.4362 35.6424 44.1511 35.5109 43.8548 35.3742L43.8013 35.3496C43.791 35.3448 43.7856 35.3298 43.7803 35.3149C43.7779 35.3081 43.7754 35.3013 43.7725 35.2956C43.781 35.2925 43.7894 35.2886 43.7978 35.2846C43.8147 35.2767 43.8315 35.2688 43.8483 35.268C43.977 35.2669 44.1056 35.268 44.2354 35.2703C44.5902 35.2761 44.8934 35.1589 45.1645 34.9246C45.4206 34.7018 45.687 34.4882 45.9673 34.2976C46.236 34.115 46.5312 33.9645 46.8699 33.9863C47.1352 34.0036 47.4086 34.0242 47.6612 34.0989C47.9897 34.1954 48.2711 34.0863 48.5547 33.9691C48.7109 33.9048 48.8315 33.5821 48.7902 33.4224C48.7454 33.2525 48.5915 33.133 48.3802 33.1181C47.9943 33.0905 47.6222 33.1491 47.2581 33.2869L47.2398 33.2939C46.9196 33.4157 46.596 33.5388 46.2636 33.6154C45.7433 33.7348 45.1518 33.4305 44.9336 32.9941L44.9005 32.928C44.8039 32.7359 44.706 32.5413 44.6442 32.3383C44.4754 31.7882 44.1263 31.4092 43.6209 31.1554C43.5853 31.1376 43.5586 31.1036 43.5316 31.0693C43.5185 31.0527 43.5054 31.036 43.4912 31.021C43.5062 31.0154 43.5212 31.0086 43.5362 31.0017C43.5707 30.986 43.6053 30.9701 43.6405 30.9693C44.1182 30.9532 44.4961 31.1542 44.7602 31.5436C44.8602 31.6906 44.9377 31.8527 45.0152 32.0146C45.0472 32.0815 45.0792 32.1484 45.1128 32.2143C45.2897 32.5588 45.478 32.8964 45.8926 32.9941C46.1694 33.0584 46.4485 33.0802 46.7241 32.9539C46.992 32.8305 47.2655 32.7209 47.5386 32.6115L47.6957 32.5485C48.2424 32.328 48.7649 32.3567 49.276 32.6736C49.4104 32.7572 49.5563 32.8218 49.7024 32.8865C49.8133 32.9356 49.9244 32.9848 50.0305 33.0423C50.2298 33.1508 50.4384 33.1331 50.6424 33.1157C50.6757 33.1129 50.7096 33.11 50.7426 33.1078C51.032 33.0882 51.0974 32.9275 51.0538 32.6105C50.986 32.1063 50.7207 31.7422 50.2476 31.6205C49.9496 31.5439 49.6152 31.5798 49.2976 31.614L49.2369 31.6205C49.0958 31.6358 48.9559 31.6726 48.8165 31.7093C48.6417 31.7552 48.4674 31.8011 48.2917 31.8043C47.9736 31.81 47.6256 31.7285 47.4005 31.4804C46.9974 31.0359 46.5105 30.7902 45.9477 30.5857C45.3907 30.3825 45.1553 29.9392 45.1897 29.3764C45.2004 29.198 45.2839 29.0564 45.3678 28.9144C45.3832 28.8882 45.3987 28.8619 45.4137 28.8355C45.4229 28.8194 45.47 28.8125 45.4918 28.8217C45.5113 28.8286 45.5343 28.8653 45.532 28.8849C45.5292 28.9089 45.5195 28.9317 45.5097 28.9548C45.5031 28.9703 45.4964 28.9859 45.4918 29.002C45.3758 29.4086 45.5308 29.7405 45.834 29.9816C46.0385 30.1436 46.2923 30.2676 46.5426 30.34C46.8872 30.441 47.2007 30.5823 47.4844 30.7971C47.8944 31.1071 48.3503 31.1129 48.8212 30.998C48.9761 30.96 49.1294 30.9144 49.2828 30.8689C49.3978 30.8347 49.5129 30.8005 49.6286 30.7695C50.2855 30.5938 51.0458 30.9199 51.3627 31.5057C51.4031 31.5802 51.4428 31.6551 51.4825 31.73C51.5884 31.9299 51.6943 32.1298 51.8129 32.3211C52.1632 32.8838 52.5881 33.3673 53.2152 33.6441C53.399 33.7256 53.5758 33.7256 53.7561 33.7119C53.9583 33.6969 54.1202 33.4477 54.1259 33.1583C54.1386 32.5795 53.9916 32.0351 53.6941 31.5447C53.1842 30.7029 52.4239 30.1631 51.4764 29.961C51.0228 29.8645 50.545 29.7887 50.0489 29.907C49.6561 30.0012 49.2163 29.9771 48.8097 29.9208C48.2699 29.8461 47.8955 29.5016 47.6945 28.9905C47.6233 28.8079 47.5625 28.6196 47.5188 28.4289C47.4614 28.1751 47.2972 28.0006 47.1088 27.8478C46.9894 27.7502 46.8504 27.6767 46.6816 27.6882C46.5889 27.6947 46.4966 27.6981 46.4042 27.7015C46.2024 27.709 46.0006 27.7165 45.795 27.7559C45.3965 27.8329 44.9853 27.8168 44.6178 27.54C44.5135 27.4609 44.4419 27.3615 44.371 27.263C44.3122 27.1815 44.2539 27.1006 44.1779 27.0324C44.171 27.0262 44.1771 27.0047 44.1832 26.9833C44.1862 26.9731 44.1891 26.9629 44.1906 26.9543C44.1985 26.9567 44.2067 26.9584 44.2148 26.96C44.2302 26.9632 44.2452 26.9663 44.2572 26.9738C44.3047 27.0051 44.3508 27.0393 44.397 27.0735C44.4881 27.1412 44.5792 27.2087 44.6798 27.2529C45.0014 27.393 45.3448 27.3884 45.6824 27.3172C45.8158 27.2895 45.9465 27.2496 46.077 27.2098C46.2005 27.1721 46.324 27.1344 46.4496 27.107C46.793 27.0324 47.3477 27.1978 47.6027 27.5871C47.7462 27.806 47.8431 28.0429 47.94 28.2799C47.9703 28.3539 48.0005 28.4278 48.0322 28.5013C48.1941 28.8768 48.4284 29.1777 48.8269 29.3374C49.1623 29.4717 49.5045 29.4338 49.8387 29.3948C50.1098 29.3638 50.2384 29.0514 50.1224 28.7964C50.0796 28.7015 50.0235 28.6129 49.9673 28.5241C49.9331 28.47 49.8987 28.4156 49.8674 28.36C49.8491 28.3279 49.8376 28.2704 49.8537 28.2475C49.8709 28.2234 49.9352 28.2061 49.9628 28.2199C50.0512 28.2635 50.1431 28.3106 50.2143 28.3772C50.6863 28.8183 51.28 29.0078 51.8818 29.1502C53.082 29.4327 54.0237 30.0862 54.722 31.0853C55.0975 31.624 55.3043 32.228 55.3559 32.8987C55.3704 33.0833 55.379 33.2682 55.3876 33.453L55.3877 33.454C55.3989 33.6945 55.41 33.9348 55.434 34.1735C55.4903 34.734 55.6098 35.283 55.8923 35.7848C56.0599 36.0823 56.2931 36.2948 56.6078 36.4211C56.9018 36.5394 57.1085 36.428 57.2371 36.1294C57.3468 35.8739 57.3266 35.6136 57.3067 35.3571C57.3027 35.3047 57.2986 35.2523 57.2957 35.2003C57.275 34.8511 57.2073 34.5031 57.1349 34.1586C56.888 32.9826 56.5492 31.8399 55.8624 30.8327C55.4455 30.2217 54.8897 29.76 54.2396 29.4212C54.0205 29.3069 53.7945 29.2056 53.5686 29.1045C53.3316 28.9984 53.0948 28.8923 52.8661 28.7712C52.2918 28.468 51.7291 28.1441 51.2456 27.6928C50.8413 27.3149 50.3819 27.0037 49.8594 26.8119C49.6968 26.7517 49.5238 26.7196 49.3511 26.6876C49.3033 26.6788 49.2546 26.6698 49.2071 26.6603C49.1213 26.6433 49.0351 26.6278 48.9489 26.6124C48.5934 26.5486 48.2381 26.4849 47.9128 26.3112C47.7106 26.2032 47.5349 26.0711 47.4189 25.8598C47.3029 25.6496 47.1628 25.4533 47.0204 25.2592C46.6896 24.809 46.2544 24.5621 45.6824 24.5965C45.4815 24.6091 45.3 24.6723 45.1312 24.7826C45.101 24.8024 45.0654 24.8135 45.03 24.8245C45.0141 24.8294 44.9983 24.8343 44.983 24.84C44.9881 24.8209 44.9912 24.7994 44.9943 24.778C45.0011 24.7311 45.0079 24.6844 45.0347 24.6631L45.0492 24.6516C45.1962 24.5346 45.3468 24.4147 45.5136 24.3347C46.2555 23.9798 46.8837 24.2451 47.4465 24.7389C47.5502 24.8302 47.6381 24.9393 47.726 25.0484C47.8083 25.1506 47.8907 25.2529 47.9863 25.3407C48.2136 25.5509 48.4502 25.7691 48.7224 25.9069C49.0121 26.0532 49.3294 26.1478 49.6437 26.2415C49.692 26.2559 49.7402 26.2702 49.7882 26.2847C50.05 26.364 50.2499 26.186 50.2694 25.9081C50.2838 25.7118 50.2228 25.5368 50.1616 25.3613C50.1398 25.2986 50.1179 25.2357 50.0994 25.1719C50.0932 25.1491 50.104 25.121 50.1148 25.0931C50.1198 25.0801 50.1249 25.0671 50.1281 25.0547C50.1349 25.0637 50.1413 25.073 50.1479 25.0824C50.1614 25.1019 50.175 25.1215 50.1913 25.1386C50.413 25.3717 50.5312 25.6692 50.5979 25.9666C50.7104 26.4697 51.0504 26.6833 51.4971 26.8016C51.651 26.8418 51.8313 26.7889 51.8945 26.6523L51.9093 26.6204C51.9817 26.4655 52.0616 26.2945 52.0541 26.1366C52.0231 25.5566 51.7911 25.0524 51.2892 24.7401C51.0733 24.6057 50.7897 24.5575 50.5301 24.5161C49.7457 24.3932 49.1405 23.9809 48.7844 23.2976C48.3744 22.5132 48.4319 21.7047 49.0738 20.9318C49.15 20.8398 49.2382 20.7572 49.3262 20.6748C49.3536 20.6492 49.381 20.6235 49.408 20.5976C49.4168 20.5888 49.4345 20.5889 49.4522 20.589C49.4599 20.589 49.4677 20.5891 49.4747 20.5884C49.4758 20.5972 49.4781 20.6069 49.4805 20.6165C49.4856 20.6371 49.4905 20.6574 49.4827 20.6676C49.276 20.9249 49.1405 21.2166 49.0509 21.5336C48.8304 22.3076 49.067 23.0599 49.6814 23.5089C49.9398 23.6984 50.2694 23.7627 50.591 23.8167C50.6707 23.8302 50.751 23.8424 50.8313 23.8546C51.0712 23.8909 51.3116 23.9273 51.5396 24.0005C52.0495 24.1647 52.4262 24.5092 52.6169 25.0157C52.6743 25.1681 52.7002 25.3327 52.726 25.4971C52.7373 25.5694 52.7487 25.6416 52.7627 25.7128C52.7817 25.8112 52.7973 25.9107 52.8129 26.0102C52.8454 26.2169 52.878 26.4245 52.9407 26.6212C53.144 27.2575 53.5712 27.7111 54.1512 28.0419C54.5637 28.2765 55.011 28.3964 55.4584 28.5164C55.5913 28.552 55.7247 28.5878 55.8567 28.6265C55.9497 28.654 56.0577 28.6437 56.1564 28.6311C56.4401 28.5955 56.5343 28.4714 56.5515 28.1797C56.5722 27.8432 56.4401 27.5722 56.2265 27.331C55.9784 27.0508 55.6844 26.8326 55.3513 26.6626C55.101 26.534 54.8506 26.3996 54.6221 26.2365C54.235 25.9597 54.0513 25.5302 53.8905 25.1076C53.662 24.5035 53.3415 23.9672 52.9155 23.4825C52.4285 22.9289 52.0036 22.3329 51.8072 21.6002C51.7371 21.3395 51.5924 21.1098 51.3857 20.9226C51.266 20.8145 51.1517 20.7005 51.0373 20.5865C50.9489 20.4983 50.8601 20.4099 50.769 20.3242C50.3395 19.92 50.367 19.131 50.5565 18.6877C50.5769 18.6389 50.6186 18.599 50.6597 18.5595C50.6719 18.5479 50.684 18.5363 50.6955 18.5246C50.7093 18.5097 50.7529 18.4993 50.7598 18.5074C50.7759 18.5257 50.7897 18.559 50.7851 18.582C50.7757 18.6274 50.7631 18.6724 50.7505 18.7175C50.729 18.7944 50.7074 18.8713 50.7024 18.9495C50.6587 19.5892 50.955 20.067 51.4397 20.4483C51.4652 20.4684 51.4943 20.4843 51.5235 20.5001C51.5441 20.5114 51.5649 20.5227 51.5844 20.5355C51.9783 20.802 52.0518 20.7859 52.332 20.3862C52.4044 20.2817 52.4836 20.1784 52.5744 20.0911C52.6359 20.0319 52.7067 19.9824 52.7774 19.9331C52.8096 19.9106 52.8417 19.8882 52.873 19.8648C52.9229 19.9704 52.8587 20.0313 52.7984 20.0884C52.7728 20.1127 52.7479 20.1363 52.7329 20.1623C52.4297 20.6848 52.4561 21.2143 52.6421 21.7552C52.8111 22.2491 53.0681 22.6998 53.3251 23.1505C53.3896 23.2636 53.4541 23.3767 53.5173 23.4905C53.6608 23.7489 53.8113 24.005 53.9732 24.252C54.0203 24.3243 54.119 24.4013 54.1983 24.407C54.3453 24.4173 54.3717 24.2531 54.3774 24.1624C54.3958 23.8626 54.3855 23.5617 54.3729 23.2608C54.37 23.1923 54.3568 23.124 54.3437 23.0557C54.3301 22.9856 54.3166 22.9155 54.3143 22.8451C54.3039 22.5212 54.1914 22.2445 53.9939 21.9883L53.9851 21.977C53.8499 21.8024 53.7085 21.6199 53.6321 21.4176C53.3611 20.6963 53.6332 20.1669 54.1857 19.6937L54.2125 19.6706C54.3517 19.5514 54.4972 19.4266 54.5911 19.2745C54.8644 18.8335 54.7897 18.327 54.4291 17.9561C54.3972 17.9231 54.3641 17.8914 54.3311 17.8597C54.2917 17.8219 54.2524 17.7842 54.2155 17.7448C54.1974 17.7258 54.1857 17.7003 54.1742 17.6751C54.1697 17.6652 54.1652 17.6554 54.1604 17.646C54.1731 17.6456 54.1866 17.6435 54.2001 17.6415C54.2278 17.6372 54.2555 17.6329 54.2764 17.6437C54.7691 17.8883 55.07 18.3064 55.1458 18.8301C55.1894 19.1287 55.0045 19.4273 54.7943 19.6662C54.6623 19.8166 54.5233 19.9659 54.366 20.0888C53.956 20.4104 53.9674 21.0041 54.2201 21.4451L54.2344 21.4702C54.356 21.6825 54.4784 21.8962 54.6221 22.0929C54.7714 22.2984 54.8299 22.5224 54.8288 22.7682L54.8278 23.0938V23.0959C54.8265 23.4743 54.8252 23.8526 54.8288 24.2313C54.8297 24.3316 54.8476 24.4327 54.8653 24.5328C54.8697 24.5575 54.8741 24.5823 54.8782 24.6068C54.9792 25.2098 55.403 25.4774 55.9417 25.6129C56.0703 25.6454 56.2021 25.6639 56.3338 25.6823C56.3973 25.6912 56.4608 25.7001 56.5239 25.7105C57.1946 25.8231 57.6414 26.2285 57.9055 26.8314C58.041 27.1392 58.1157 27.4711 58.1042 27.8214C58.0991 27.9696 58.1167 28.1181 58.1344 28.2667C58.1484 28.3854 58.1625 28.5042 58.1651 28.623C58.1697 28.8619 58.1651 29.0985 58.1134 29.3408C58.0537 29.6268 58.0858 29.9334 58.1743 30.2251C58.2616 30.5157 58.4844 30.6179 58.7186 30.4273C58.8783 30.2975 59.0092 30.1149 59.1114 29.9323C59.3882 29.4384 59.5719 28.9182 59.6546 28.3451C59.7258 27.8513 59.642 27.3953 59.5168 26.9394C59.3905 26.4811 59.1195 26.1056 58.7898 25.7599C58.2542 25.1977 57.6192 24.7674 56.9849 24.3376C56.9039 24.2828 56.8229 24.2279 56.7421 24.1727C56.3413 23.8994 55.952 23.6157 55.6982 23.1885C55.2997 22.5178 55.2239 21.8195 55.5052 21.0811C55.7591 20.4115 56.2138 19.9785 56.8949 19.758C57.0487 19.7083 57.1899 19.622 57.3315 19.5355C57.4087 19.4883 57.4861 19.4411 57.5656 19.3997C58.1123 19.1172 58.1938 18.4901 58.0365 18.0388C57.932 17.7394 57.8103 17.4466 57.6887 17.1539C57.6325 17.0188 57.5763 16.8835 57.5219 16.7479C57.4806 16.6446 57.4415 16.5389 57.4082 16.4321C57.4034 16.4177 57.4137 16.3988 57.4239 16.3801C57.4283 16.372 57.4327 16.3639 57.4358 16.3563C57.4428 16.3603 57.4509 16.3638 57.459 16.3673C57.4761 16.3746 57.4935 16.3821 57.5013 16.3953C57.533 16.4471 57.565 16.4986 57.5971 16.5502C57.7067 16.7263 57.8165 16.9028 57.9124 17.0867C57.9978 17.2493 58.0764 17.4156 58.155 17.582C58.2213 17.7223 58.2876 17.8627 58.358 18.0009C58.4154 18.1134 58.4867 18.226 58.5751 18.3133C58.7887 18.5246 58.9449 18.5177 59.2159 18.3569C59.6776 18.0836 59.8487 17.6426 59.8797 17.1499C59.8981 16.8524 59.7718 16.5699 59.5398 16.3551C59.5245 16.3414 59.5199 16.3158 59.5153 16.2902C59.5134 16.2794 59.5115 16.2686 59.5088 16.2587C59.5213 16.2605 59.5343 16.2614 59.5473 16.2623C59.5749 16.2642 59.6025 16.2661 59.6259 16.277C59.797 16.3563 59.9176 16.478 60.0164 16.648C60.4 17.3084 60.1933 18.0641 59.7787 18.4809C59.6976 18.5625 59.6168 18.6444 59.536 18.7264L59.5353 18.7272L59.5341 18.7283C59.233 19.0337 58.9314 19.3397 58.6141 19.6271C58.2351 19.9705 57.77 20.1807 57.3003 20.3759C57.0545 20.4781 56.8076 20.5872 56.5836 20.7296C56.0806 21.0501 55.9118 21.5427 55.9428 22.117C55.9459 22.1761 55.9742 22.2352 56.0014 22.2919L56.0117 22.3134C56.0887 22.4707 56.2701 22.5006 56.3861 22.3731C56.406 22.3513 56.4192 22.3234 56.4324 22.2955C56.4435 22.272 56.4547 22.2484 56.4699 22.2284C56.518 22.1646 56.5692 22.1035 56.6204 22.0426C56.6439 22.0146 56.6673 21.9867 56.6905 21.9585C56.6844 21.9917 56.6774 22.0248 56.6705 22.0578C56.6551 22.1311 56.6397 22.2041 56.6342 22.2778C56.6055 22.6774 56.795 22.9645 57.1441 23.123C57.3968 23.2379 57.6689 23.3458 57.9411 23.3722C58.5062 23.4262 59.0758 23.4251 59.6202 23.2126C59.8947 23.1058 60.1255 22.9542 60.1818 22.6349C60.1933 22.5706 60.2036 22.5017 60.191 22.4397C60.1313 22.1503 60.0382 21.8735 59.905 21.6059C59.6879 21.1729 59.6351 20.7159 59.8085 20.2496C59.9716 19.812 60.2748 19.5077 60.7078 19.3457C60.7613 19.3257 60.8149 19.3059 60.8685 19.2861C61.2237 19.1551 61.5791 19.024 61.8964 18.8174C62.3845 18.4993 62.6154 17.8757 62.3845 17.3267C62.3041 17.1361 62.2203 16.9409 62.0136 16.8352C61.9227 16.7889 61.8398 16.7253 61.7568 16.6617C61.7265 16.6385 61.6963 16.6153 61.6656 16.5929C61.6548 16.5851 61.6502 16.569 61.6455 16.5527C61.6433 16.5448 61.641 16.5368 61.638 16.5297C61.647 16.527 61.6561 16.5229 61.6651 16.5189C61.6827 16.5111 61.7002 16.5033 61.7161 16.5056C62.3283 16.6089 62.7497 17.05 62.9036 17.5851C63.1379 18.4017 62.5924 19.2918 61.955 19.6053C61.9054 19.6295 61.8568 19.6569 61.8082 19.6843C61.7072 19.7411 61.6065 19.7979 61.4979 19.8258C61.2062 19.9004 60.9983 20.0773 60.7962 20.2817C60.47 20.6113 60.423 21.0053 60.5481 21.4199C60.6527 21.7678 60.7882 22.1089 60.9317 22.4443C61.1385 22.9266 60.9673 23.3757 60.5217 23.5882C60.4 23.6461 60.2773 23.702 60.1547 23.7578C59.9441 23.8538 59.7337 23.9496 59.5283 24.0556C59.4077 24.1176 59.2871 24.2118 59.2136 24.3232C59.0528 24.5655 59.108 24.8239 59.3377 25.0019C59.4376 25.0789 59.5467 25.1466 59.6604 25.2017L59.7612 25.2505C60.1457 25.4366 60.5308 25.623 60.9237 25.7909C61.0741 25.8552 61.251 25.8805 61.4175 25.8851C62.0607 25.9035 62.5258 25.2925 62.3374 24.6769C62.2481 24.3848 62.1442 24.0976 62.0403 23.8103L62.0398 23.8091C62.0103 23.7274 61.9808 23.6458 61.9516 23.564C61.6828 22.8049 62.0205 22.3007 62.5717 21.9263C62.6409 21.8793 62.7132 21.837 62.7854 21.7947C62.8593 21.7514 62.9332 21.7081 63.0036 21.6599C63.4515 21.3544 63.5364 20.9995 63.2734 20.5275C63.2425 20.4715 63.2028 20.42 63.1631 20.3685C63.1336 20.3302 63.1041 20.292 63.0782 20.2519C63.0628 20.2281 63.0567 20.1986 63.0506 20.169C63.0475 20.1543 63.0445 20.1396 63.0403 20.1255C63.0577 20.127 63.0767 20.1264 63.0957 20.1258C63.137 20.1244 63.1782 20.1231 63.2034 20.1428L63.2376 20.17C63.4616 20.3484 63.6925 20.5322 63.7569 20.8273C63.8695 21.3441 64.1957 21.4738 64.67 21.1672C65.1121 20.8824 65.3935 20.5195 65.4061 19.9567C65.4165 19.4973 65.297 19.0919 65.0754 18.7026C65.0652 18.6846 65.0732 18.6558 65.0811 18.6274C65.0848 18.6141 65.0885 18.6009 65.0903 18.5889C65.0978 18.5945 65.106 18.5996 65.1141 18.6047C65.1311 18.6153 65.148 18.6258 65.1581 18.6406C65.2017 18.7065 65.2473 18.7709 65.2928 18.8351C65.4488 19.0552 65.604 19.2742 65.676 19.5525C65.8839 20.3564 65.6485 21.0834 65.0145 21.5588C64.7102 21.7874 64.3553 21.9252 63.982 22.0182C63.5675 22.1216 63.1793 22.3019 62.8474 22.5637C62.3662 22.9439 62.3753 23.5939 62.7325 23.9499C62.8967 24.1142 62.9565 24.1176 63.1322 23.9809C63.1569 23.9618 63.1793 23.9393 63.2017 23.917C63.2304 23.8883 63.2589 23.8598 63.2918 23.8385C63.3298 23.8132 63.3739 23.7971 63.4182 23.7809C63.4382 23.7736 63.4583 23.7663 63.4779 23.7581C63.4732 23.7813 63.4691 23.8045 63.4649 23.8276C63.4577 23.8675 63.4506 23.9072 63.4411 23.9465C63.4282 24.0006 63.4143 24.0545 63.4003 24.1085C63.3757 24.2036 63.3511 24.2989 63.332 24.3955C63.2838 24.631 63.4308 24.7757 63.5973 24.8917C63.7064 24.9675 63.8408 24.9709 63.9533 24.8744C64.1302 24.7228 64.2565 24.5506 64.2829 24.3014C64.303 24.1173 64.3389 23.9349 64.3748 23.7524C64.3985 23.6321 64.4223 23.5116 64.4414 23.3906C64.4703 23.2097 64.5699 23.0704 64.6697 22.9309C64.7087 22.8764 64.7477 22.8218 64.7825 22.7647C64.7902 22.7525 64.807 22.7453 64.8239 22.7382C64.8323 22.7346 64.8407 22.731 64.848 22.7268C64.8503 22.7357 64.8543 22.7452 64.8583 22.7545C64.8662 22.773 64.874 22.7912 64.8687 22.8049C64.7111 23.1919 64.6816 23.5975 64.6521 24.004L64.652 24.005C64.6428 24.1314 64.6336 24.2581 64.6206 24.384C64.5643 24.9261 64.3553 25.3832 63.85 25.6738C63.448 25.9058 63.0541 26.1584 62.6831 26.4375C62.4649 26.6017 62.2375 26.7338 61.9952 26.8521C61.9237 26.8868 61.8555 26.9289 61.7872 26.9711C61.711 27.0182 61.6342 27.0655 61.553 27.1025C61.1649 27.2816 61.0638 27.6342 61.019 28.004C60.9894 28.2496 60.9391 28.488 60.8887 28.7271C60.8785 28.7754 60.8683 28.8238 60.8582 28.8722C60.7537 29.381 60.5194 29.8289 60.2714 30.2688C59.7706 31.1565 59.3847 32.0879 59.1206 33.0699C59.0184 33.4489 58.9173 33.8279 58.8358 34.2114C58.7924 34.4151 58.7632 34.6219 58.7339 34.8286C58.7198 34.9283 58.7056 35.0285 58.6899 35.1279L58.6735 35.2319C58.6614 35.3078 58.6493 35.3842 58.6382 35.4598C58.6084 35.67 58.5946 35.8733 58.6704 36.0857C58.8427 36.5704 59.2309 36.7025 59.6098 36.3545C59.8602 36.1248 60.1071 35.8721 60.2828 35.5861C60.6216 35.0349 60.8869 34.4469 60.9329 33.7785C60.9441 33.6116 60.9764 33.4465 61.0088 33.2814C61.0358 33.1431 61.0629 33.0047 61.0776 32.8654C61.0852 32.7914 61.0677 32.7153 61.05 32.6386C61.0357 32.5761 61.0212 32.5132 61.0202 32.4508C61.018 32.3545 61.0145 32.2578 61.0109 32.161C60.9992 31.8403 60.9874 31.5188 61.0271 31.2048C61.0479 31.0408 61.0602 30.8755 61.0726 30.7101C61.101 30.3289 61.1295 29.947 61.2625 29.5785C61.5634 28.7436 62.048 28.0545 62.7532 27.5056C63.112 27.2253 63.5142 27.0344 63.9166 26.8434L63.9175 26.8429C64.062 26.7744 64.207 26.7055 64.3496 26.6327C64.8388 26.3835 65.1994 26.0286 65.4027 25.5141C65.4969 25.2752 65.5669 25.0364 65.5646 24.778C65.5634 24.6581 65.5633 24.5383 65.5633 24.4185C65.5631 24.1939 65.5629 23.9695 65.5554 23.7455C65.544 23.4239 65.676 23.1563 65.8908 22.9462C66.0906 22.7498 66.3192 22.5718 66.5626 22.4328C67.2414 22.0412 67.3953 21.3429 67.2356 20.7136C67.222 20.6598 67.2037 20.6074 67.1853 20.5551C67.1712 20.5149 67.1569 20.4742 67.1449 20.4333C67.1415 20.4218 67.1679 20.3977 67.1851 20.3851C67.1943 20.3782 67.2161 20.3794 67.2265 20.3862C67.2506 20.4 67.277 20.4161 67.2931 20.4379C67.7375 21.0248 67.7915 21.8413 67.3356 22.4064C67.237 22.5292 67.0964 22.6179 66.9558 22.7066C66.8899 22.7481 66.824 22.7897 66.7625 22.8348C66.7111 22.8725 66.6579 22.9084 66.6046 22.9443C66.4827 23.0265 66.3608 23.1087 66.2617 23.2126C65.9069 23.5847 65.9563 24.0475 66.0344 24.5C66.1572 25.2063 66.1423 25.892 65.8035 26.5454C65.7001 26.7441 65.6106 26.952 65.5336 27.1633C65.4498 27.3942 65.5302 27.571 65.7346 27.6962C66.0217 27.8708 66.5052 27.8168 66.8601 27.4642C67.1254 27.2001 67.2873 26.8728 67.3666 26.5053C67.3833 26.4281 67.3993 26.3507 67.4153 26.2733C67.4532 26.0899 67.4912 25.9063 67.5388 25.7254C67.7789 24.8044 68.314 24.1785 69.2845 23.9901C69.3138 23.9847 69.3426 23.9715 69.3711 23.9585C69.4086 23.9414 69.4455 23.9245 69.482 23.9258C69.52 23.9271 69.5557 23.9115 69.5912 23.8961C69.6491 23.8709 69.7062 23.8461 69.7703 23.8959C69.7481 23.9224 69.7272 23.9507 69.7064 23.979C69.6604 24.0414 69.6145 24.1036 69.5544 24.1463C69.4062 24.252 69.2432 24.3415 69.0789 24.4208C68.4438 24.7286 68.1223 25.2684 67.9753 25.9287C67.9018 26.2572 67.8351 26.5914 67.8087 26.9256C67.7433 27.7353 66.9003 28.329 66.2732 28.4002C65.9464 28.4376 65.6353 28.3977 65.3227 28.3577C65.2124 28.3436 65.1018 28.3295 64.9904 28.3187C64.2967 28.2532 63.6031 28.2222 63.0036 28.7149C62.6338 29.0192 62.2295 29.6107 62.1238 30.1195C62.1185 30.1447 62.1122 30.1696 62.106 30.1945C62.0757 30.3148 62.046 30.4326 62.1307 30.5582C62.2164 30.6846 62.3401 30.7296 62.4697 30.7767L62.4968 30.7866L62.5189 30.7948C62.8873 30.9337 63.223 30.8132 63.5555 30.694C63.6024 30.6772 63.6492 30.6604 63.6961 30.6443C63.9984 30.5409 64.2566 30.3585 64.5144 30.1763C64.5916 30.1218 64.6687 30.0673 64.7469 30.015C64.8565 29.9414 64.9625 29.862 65.0686 29.7827C65.1891 29.6924 65.3103 29.6018 65.436 29.52C65.9149 29.2087 66.4329 29.149 66.9807 29.3052C67.2092 29.3707 67.4389 29.4338 67.6721 29.4786C67.95 29.5315 68.1969 29.4522 68.4209 29.2742C68.9388 28.863 69.0514 28.1097 68.77 27.4929C68.6827 27.3011 68.5954 27.1082 68.5277 26.9095C68.4996 26.8279 68.4958 26.737 68.4921 26.6469C68.4911 26.623 68.4901 26.5989 68.4886 26.5753C68.4878 26.5594 68.5003 26.5429 68.5126 26.5266C68.5181 26.5194 68.5234 26.5123 68.5277 26.5053L68.5392 26.525C68.5494 26.5422 68.5595 26.5593 68.5679 26.5776C68.5844 26.6161 68.6014 26.6544 68.6184 26.6927C68.6582 26.7823 68.698 26.8718 68.7309 26.9635C68.7792 27.099 68.8688 27.1484 69.0054 27.1932C69.172 27.2472 69.2673 27.2139 69.3488 27.0749C69.5429 26.7407 69.6267 26.3697 69.6807 25.9942C69.6892 25.9358 69.6708 25.8745 69.6523 25.8123C69.638 25.7644 69.6235 25.716 69.621 25.668C69.6197 25.6412 69.6013 25.6162 69.5835 25.592C69.5525 25.5498 69.5232 25.5101 69.5888 25.467C69.6067 25.4551 69.6593 25.4955 69.7082 25.5332C69.7253 25.5463 69.7419 25.5591 69.7565 25.5693C69.7795 25.5853 69.8002 25.6083 69.8128 25.6336L69.8283 25.6624C69.9193 25.8318 70.0114 26.0033 70.2515 25.962C70.5248 25.9149 70.7695 25.815 70.8923 25.5371C70.9 25.5195 70.9087 25.5029 70.9174 25.4863C70.9217 25.478 70.926 25.4697 70.9302 25.4613C70.967 25.3867 71.0038 25.3119 71.0394 25.2373C71.042 25.2619 71.0454 25.2865 71.0488 25.3111C71.057 25.3703 71.0651 25.4293 71.0635 25.4877C71.06 25.7346 70.9613 25.923 70.7201 26.0229C70.6572 26.0491 70.5965 26.0808 70.5359 26.1123C70.4583 26.1528 70.381 26.1932 70.2997 26.2216C69.8863 26.3651 69.7025 26.6546 69.6842 27.0875C69.6578 27.7077 69.5509 28.3175 69.3488 28.9067C69.0491 29.7784 68.3657 30.0414 67.5825 29.915C67.49 29.9 67.3972 29.8796 67.3046 29.8591C67.1062 29.8154 66.908 29.7716 66.7131 29.7818C66.3238 29.8013 65.9252 29.8691 65.6255 30.1723C65.5733 30.2252 65.5194 30.2769 65.4655 30.3285C65.3534 30.4359 65.2412 30.5432 65.1443 30.6627C64.7664 31.1267 64.2508 31.3265 63.6972 31.4838C62.7899 31.7411 62.1698 32.3153 61.8999 33.2352C61.8654 33.3547 61.8631 33.4925 61.8804 33.6165C61.916 33.8807 62.0388 33.968 62.3099 33.9817C62.5568 33.9944 62.7819 33.9266 63.007 33.8359C63.5008 33.6361 63.9246 33.3306 64.2944 32.955C64.5103 32.7357 64.7653 32.5921 65.0409 32.4773C65.142 32.4348 65.2603 32.4233 65.3717 32.421C65.5705 32.4177 65.7697 32.4186 65.9689 32.4195H65.9699C66.1143 32.4201 66.2588 32.4208 66.403 32.4198C67.0749 32.4141 67.5515 32.0776 67.8972 31.5252C67.9406 31.4562 67.9808 31.385 68.021 31.3138L68.0215 31.3129C68.0715 31.2244 68.1215 31.1359 68.1774 31.052C68.6184 30.3928 69.3591 30.1884 70.0597 30.5432C70.0856 30.5562 70.1143 30.5669 70.1436 30.5779C70.2422 30.6149 70.3473 30.6542 70.3705 30.786C70.323 30.7757 70.2752 30.7662 70.2274 30.7566C70.1142 30.734 70.0009 30.7113 69.8897 30.6788C69.3741 30.5295 68.8217 30.7821 68.5598 31.245C68.3703 31.5803 68.5874 32.0833 68.8274 32.2809C69.0583 32.4704 69.3167 32.6231 69.6199 32.6472C69.8633 32.6668 70.0907 32.5783 70.2653 32.4049C70.4571 32.2143 70.6397 32.0133 70.8074 31.802C71.0566 31.485 71.3827 31.3012 71.7675 31.2289C71.8698 31.2098 71.9781 31.2226 72.0864 31.2353C72.1349 31.241 72.1835 31.2467 72.2315 31.2496C72.19 31.2653 72.1484 31.2806 72.1067 31.2959C72.0177 31.3286 71.9286 31.3613 71.841 31.3989C71.5516 31.5217 71.2817 31.663 71.122 31.9616C71.0083 32.1729 70.8728 32.3739 70.7258 32.5645C70.7027 32.5943 70.6798 32.6247 70.6566 32.6552C70.5325 32.8192 70.4046 32.9881 70.24 33.0917C69.8874 33.3133 69.5027 33.241 69.1536 33.0457C69.0323 32.9774 68.9249 32.8848 68.8178 32.7925C68.7738 32.7545 68.7298 32.7167 68.685 32.6805C68.6424 32.6464 68.6007 32.6113 68.5591 32.5762C68.4816 32.511 68.4043 32.4459 68.3221 32.3877C68.074 32.2108 67.896 32.2051 67.6663 32.3693C67.6004 32.4163 67.5422 32.4751 67.484 32.5338C67.4611 32.5569 67.4382 32.58 67.4148 32.6024C67.1794 32.8287 66.8934 32.9343 66.573 32.9504C66.4631 32.9559 66.353 32.9548 66.2428 32.9537C66.1238 32.9525 66.0049 32.9513 65.8862 32.9585C65.676 32.9711 65.4636 32.9918 65.2591 33.0389C64.9318 33.1147 64.8319 33.3662 64.9536 33.6854C65.1248 34.1333 65.4486 34.4331 65.8426 34.6731C66.3065 34.9545 66.7625 34.9051 67.1977 34.6134C67.3753 34.4945 67.5434 34.3625 67.7118 34.2302C67.7776 34.1786 67.8434 34.1269 67.9098 34.0759C68.1797 33.8692 68.4783 33.7854 68.8217 33.7922C69.1421 33.7991 69.3982 33.9243 69.6233 34.1264C69.7231 34.216 69.8166 34.3132 69.9102 34.4105C70.0158 34.5203 70.1215 34.6302 70.2366 34.7294L70.2576 34.7475C70.5361 34.9882 70.808 35.2231 71.2001 35.3105C71.4386 35.3637 71.6315 35.3087 71.8323 35.2514C71.8653 35.242 71.8993 35.2323 71.9329 35.2232C71.9598 35.2159 71.9879 35.2114 72.016 35.207C72.0274 35.2052 72.0387 35.2034 72.05 35.2014C72.044 35.2145 72.0389 35.2292 72.0339 35.2439C72.0225 35.2769 72.011 35.3103 71.988 35.3277C71.5596 35.6482 71.1083 35.8434 70.5869 35.5425C70.3675 35.4162 70.1504 35.283 69.9449 35.136C69.8618 35.0772 69.7846 35.0098 69.7075 34.9425C69.6128 34.8599 69.5182 34.7775 69.4131 34.711C68.9767 34.4342 68.5127 34.3768 68.0476 34.6352C67.926 34.7028 67.8132 34.7858 67.7002 34.8689C67.6307 34.92 67.5612 34.9711 67.4895 35.0188C67.3123 35.1372 67.1322 35.2527 66.9521 35.3682L66.8165 35.4552C66.4857 35.6677 66.1389 35.5942 65.8127 35.469C65.552 35.3691 65.3051 35.2221 65.0673 35.0716C64.6884 34.8328 64.2646 34.6835 63.835 34.6869C63.1988 34.6915 62.6165 34.9131 62.1916 35.4311C62.1388 35.4954 62.0825 35.5724 62.0664 35.6516C61.9837 36.0639 62.0239 36.2764 62.4626 36.2212C62.7543 36.1845 63.0461 36.1374 63.3355 36.0823C63.719 36.0099 64.0992 35.9996 64.4518 36.1833C64.5815 36.2509 64.7 36.3394 64.8184 36.4279C64.8813 36.475 64.9442 36.522 65.0088 36.5658L65.0407 36.5877L65.0505 36.5945C65.1187 36.642 65.1886 36.6907 65.2649 36.7116C65.4165 36.753 65.5738 36.7541 65.7139 36.6519C65.7682 36.6125 65.8245 36.5753 65.8807 36.5382L65.8815 36.5376C65.9904 36.4657 66.0991 36.3939 66.1928 36.3062C66.5293 35.9916 66.9485 35.8216 67.3781 35.8124C67.8248 35.8021 68.2716 35.9548 68.6046 36.297C68.8423 36.5417 69.0697 36.7989 69.2776 37.0677C69.5475 37.4156 69.8874 37.5971 70.3262 37.5937L70.3494 37.5935C70.3843 37.5932 70.4202 37.5928 70.4548 37.5994C70.4715 37.6024 70.4873 37.6121 70.5034 37.6219C70.5115 37.6269 70.5198 37.6319 70.5283 37.6362C70.5201 37.641 70.512 37.6462 70.5038 37.6514C70.4889 37.6609 70.4738 37.6705 70.4582 37.6786C70.0723 37.8865 69.4315 37.7889 69.072 37.4535C68.9181 37.3104 68.7724 37.159 68.6267 37.0077C68.5538 36.932 68.4809 36.8563 68.4071 36.7817C68.0166 36.3878 67.5526 36.2798 67.053 36.5072C66.6051 36.7116 66.1676 36.9471 65.7507 37.2101C65.3177 37.4834 65.3533 37.8946 65.7507 38.2908C66.07 38.6089 66.465 38.6698 66.8716 38.7077C67.0371 38.7233 67.2036 38.723 67.3705 38.7228C67.4616 38.7226 67.5533 38.7225 67.6445 38.7249C67.664 38.7249 67.7031 38.7616 67.6996 38.7731C67.6904 38.8087 67.6709 38.8662 67.6468 38.8696C67.5265 38.8907 67.4068 38.9161 67.2871 38.9415C66.9383 39.0155 66.5893 39.0896 66.225 39.0579C65.6358 39.0074 65.1822 38.7536 64.8629 38.2448C64.8113 38.1625 64.7637 38.0776 64.716 37.9927C64.5979 37.7825 64.4796 37.5718 64.3013 37.3984C63.9614 37.0677 63.5743 36.993 63.1092 37.0458C62.7589 37.0849 62.458 37.2101 62.1525 37.3548C61.5542 37.6373 61.1798 38.1162 60.9604 38.726C60.7043 39.4369 61.0179 40.3971 61.6461 40.8392C61.9964 41.0861 62.3822 41.2297 62.8095 41.3032C63.0252 41.3402 63.2395 41.3556 63.4541 41.371C63.5056 41.3747 63.5572 41.3784 63.6088 41.3824C63.7317 41.3916 63.8626 41.4226 63.9717 41.4789C64.101 41.5455 64.2271 41.6189 64.3531 41.6923C64.5204 41.7897 64.6876 41.8869 64.8618 41.9682C65.4211 42.2289 65.9942 42.454 66.6017 42.5849C66.8522 42.6384 67.1004 42.7016 67.3488 42.7649C67.4522 42.7912 67.5557 42.8176 67.6594 42.8433C67.6862 42.8502 67.712 42.8591 67.7378 42.868C67.7507 42.8725 67.7636 42.877 67.7766 42.8812C67.7647 42.8858 67.7528 42.8918 67.741 42.8978C67.7172 42.9098 67.6935 42.9218 67.6698 42.9225C67.5132 42.9234 67.3565 42.9253 67.1998 42.9272C66.7407 42.9329 66.281 42.9385 65.823 42.9179C65.5038 42.903 65.1925 42.7893 64.9008 42.6446C64.6773 42.534 64.4538 42.4256 64.1997 42.4143ZM55.2703 41.5431L55.2686 41.5437L55.2755 41.5254C55.2799 41.5142 55.2842 41.503 55.2882 41.4915L55.2892 41.4927C55.2856 41.503 55.2817 41.5131 55.2778 41.5231L55.2703 41.5431ZM55.2703 41.5431L55.2881 41.5358L55.3172 41.5239L55.318 41.5248C55.3073 41.5294 55.2969 41.5336 55.2864 41.5378L55.2697 41.5447L55.2703 41.5431ZM59.395 40.8783C59.3985 40.9111 59.393 40.9461 59.3874 40.9811C59.3745 41.0623 59.3616 41.1437 59.4617 41.1975C59.3582 41.1439 59.3713 41.0628 59.3843 40.9811C59.39 40.9454 59.3956 40.9098 59.3916 40.8765L59.395 40.8783ZM59.3782 40.8432L59.3782 40.8389L59.3707 40.8278C59.3517 40.8001 59.3326 40.772 59.3158 40.7427C59.3144 40.7398 59.3219 40.7321 59.33 40.7239C59.3335 40.7203 59.3371 40.7166 59.3401 40.7132L59.3388 40.7094C59.3355 40.7135 59.331 40.7182 59.3265 40.7227C59.3185 40.7309 59.3109 40.7386 59.3124 40.7416C59.3325 40.7767 59.3552 40.8101 59.3782 40.8432ZM64.1862 42.4119L64.1701 42.4126C64.1495 42.4137 64.1288 42.4148 64.1096 42.4125C64.0724 42.408 64.0422 42.3904 64.033 42.3337C64.0401 42.3337 64.0474 42.3333 64.0548 42.3328L64.0703 42.3315C64.0878 42.33 64.1053 42.3285 64.1216 42.3298C64.1534 42.3351 64.1786 42.3544 64.1862 42.4119Z" fill="#7E7E7E"/>
<path d="M70.3705 30.786L70.379 30.7879L70.3721 30.7959L70.3705 30.786Z" fill="#7E7E7E"/>
<path d="M55.0777 43.5424L55.0825 43.5299L55.0815 43.5289L55.0898 43.5186L55.0913 43.5338L55.0926 43.535L55.0939 43.5359L55.0916 43.5368L55.0918 43.5393L55.09 43.5374L55.0777 43.5424Z" fill="#7E7E7E"/>
<path d="M55.0777 43.5424L55.0717 43.5582L55.0596 43.5898C55.0505 43.5806 55.0412 43.5714 55.0321 43.5611L55.0442 43.5562L55.0631 43.5484L55.0777 43.5424Z" fill="#7E7E7E"/>
<path d="M71.2151 29.8404C71.3655 29.8289 71.5814 29.5739 71.5768 29.4132C71.5722 29.2489 71.3069 28.9905 71.1496 28.9986C70.9865 29.0055 70.7293 29.2765 70.7385 29.4304C70.7511 29.621 71.0233 29.8565 71.2151 29.8404Z" fill="#7E7E7E"/>
<path d="M43.923 28.9986C44.1079 29.0032 44.3479 29.2639 44.3456 29.4591C44.3445 29.6038 44.0895 29.8496 43.9494 29.8427C43.7048 29.8312 43.5589 29.6589 43.5681 29.3902C43.575 29.1766 43.7404 28.994 43.923 28.9986Z" fill="#7E7E7E"/>
<path d="M46.8814 22.8819C47.1226 22.8841 47.2731 22.7314 47.2708 22.4891C47.2685 22.2651 47.118 22.1032 46.9193 22.0997C46.7126 22.0975 46.499 22.2743 46.4978 22.5258C46.4967 22.7268 46.6609 22.8807 46.8814 22.8819Z" fill="#7E7E7E"/>
<path d="M68.8814 23.1414C68.6816 23.138 68.4875 22.9439 68.5047 22.7659C68.5219 22.5947 68.7493 22.3593 68.8917 22.3639C69.0904 22.3719 69.35 22.6189 69.3431 22.7957C69.3362 22.976 69.1099 23.1449 68.8814 23.1414Z" fill="#7E7E7E"/>
<path d="M56.7272 18.0939C56.7284 17.8504 56.5814 17.7046 56.3356 17.7046C56.1128 17.7046 55.9508 17.8527 55.9508 18.0572C55.9497 18.2616 56.1369 18.4752 56.3252 18.4844C56.5412 18.4947 56.7261 18.3156 56.7272 18.0939Z" fill="#7E7E7E"/>
<path d="M50.6323 21.8471C50.8287 21.8551 51.0331 22.0825 51.0113 22.2686C50.9849 22.4845 50.8298 22.6223 50.6162 22.6189C50.4084 22.6166 50.2625 22.4512 50.266 22.2238C50.2694 21.9975 50.4256 21.8379 50.6323 21.8471Z" fill="#7E7E7E"/>
<path d="M48.0689 40.5085C48.1907 40.4947 48.3859 40.2696 48.3756 40.1547C48.3629 40.0135 48.1367 39.8228 47.992 39.8309C47.8427 39.8401 47.6934 40.0204 47.6991 40.1846C47.7049 40.3511 47.9047 40.5268 48.0689 40.5085Z" fill="#7E7E7E"/>
<path d="M71.5033 27.6491C71.5056 27.8455 71.3471 28.0247 71.1829 28.012C71.0198 27.9983 70.8889 27.8409 70.8901 27.6583C70.8912 27.4332 70.9739 27.3494 71.1932 27.3471C71.4183 27.3448 71.501 27.4263 71.5033 27.6491Z" fill="#7E7E7E"/>
<path d="M67.3884 40.5096C67.5044 40.5027 67.7191 40.2765 67.7123 40.1674C67.6996 39.979 67.5228 39.8159 67.347 39.832C67.2012 39.8447 67.0358 40.0387 67.0438 40.188C67.0496 40.3006 67.2793 40.5154 67.3884 40.5096Z" fill="#7E7E7E"/>
<path d="M43.714 33.4661C43.8679 33.4753 44.016 33.6521 44.0103 33.8187C44.0034 33.9829 43.8288 34.1425 43.6784 34.1184C43.5164 34.0931 43.3947 33.9542 43.3981 33.7991C43.4027 33.6292 43.5658 33.4569 43.714 33.4661Z" fill="#7E7E7E"/>
<path d="M71.7652 34.1425C71.903 34.1368 72.0236 33.9932 72.027 33.8313C72.0316 33.6005 71.9478 33.481 71.7721 33.4718C71.6607 33.4649 71.4367 33.6648 71.4241 33.7831C71.4103 33.9163 71.6297 34.1483 71.7652 34.1425Z" fill="#7E7E7E"/>
<path d="M61.3486 24.5931C61.5106 24.585 61.6897 24.7515 61.6851 24.9031C61.6817 25.0352 61.5129 25.1926 61.3716 25.1983C61.1855 25.2052 61.1028 25.1168 61.0948 24.9054C61.0891 24.6953 61.1649 24.6011 61.3486 24.5931Z" fill="#7E7E7E"/>
<path d="M45.6009 36.73C45.7399 36.7243 45.9041 36.5451 45.8903 36.4142C45.8754 36.2729 45.6928 36.1144 45.5664 36.1328C45.4298 36.1535 45.2736 36.3487 45.2988 36.4693C45.3241 36.5922 45.4883 36.7346 45.6009 36.73Z" fill="#7E7E7E"/>
<path d="M67.1817 23.4021C67.2758 23.3952 67.447 23.564 67.4607 23.6777C67.478 23.8213 67.3424 23.9959 67.2104 24.0005C67.0714 24.005 66.8842 23.8661 66.8681 23.7478C66.8544 23.6479 67.0703 23.4101 67.1817 23.4021Z" fill="#7E7E7E"/>
<path d="M45.9787 25.861C45.9684 25.7013 45.8685 25.6163 45.6997 25.6232C45.5573 25.6301 45.3792 25.7909 45.3884 25.9069C45.3942 25.9942 45.6112 26.2135 45.6882 26.2101C45.8444 26.2032 45.9902 26.0275 45.9787 25.861Z" fill="#7E7E7E"/>
<path d="M52.1873 18.6509C52.3516 18.6601 52.4388 18.76 52.4308 18.93C52.4228 19.0977 52.3251 19.1861 52.1575 19.1804C52.0151 19.1758 51.8198 19.0069 51.8348 18.9001C51.8508 18.7853 52.0507 18.644 52.1873 18.6509Z" fill="#7E7E7E"/>
<path d="M63.8638 19.6041C63.858 19.6972 64.059 19.9269 64.1497 19.9292C64.237 19.9315 64.4437 19.7121 64.4449 19.6168C64.446 19.5134 64.2749 19.3503 64.1612 19.3469C64.0544 19.3434 63.8706 19.5019 63.8638 19.6041Z" fill="#7E7E7E"/>
<path d="M49.0934 25.2052C48.9257 25.2121 48.8258 25.1271 48.8166 24.9663C48.8051 24.7826 48.905 24.6746 49.0876 24.6769C49.2542 24.678 49.3403 24.7665 49.3414 24.9365C49.3414 25.1041 49.2565 25.1972 49.0934 25.2052Z" fill="#7E7E7E"/>
<path d="M49.5952 28.1338C49.7652 28.1326 49.8502 28.0488 49.8537 27.8765C49.8559 27.7042 49.7744 27.6158 49.6067 27.6066C49.4356 27.5986 49.3368 27.6801 49.3254 27.8421C49.3116 28.0304 49.408 28.1349 49.5952 28.1338Z" fill="#7E7E7E"/>
<path d="M61.4589 17.5955C61.452 17.7792 61.359 17.8906 61.2211 17.8814C61.0799 17.8711 60.9214 17.6977 60.9329 17.5668C60.9421 17.4588 61.112 17.3072 61.2303 17.3003C61.3475 17.2946 61.4646 17.445 61.4589 17.5955Z" fill="#7E7E7E"/>
<path d="M70.3801 30.7982L70.387 30.7913L70.392 30.8026L70.3801 30.7982Z" fill="#7E7E7E"/>
<path d="M70.392 30.8026C70.4098 30.8092 70.4275 30.8157 70.4444 30.8223C70.4393 30.8275 70.4344 30.8329 70.4295 30.8384C70.4247 30.8438 70.4198 30.8493 70.4146 30.8545L70.4007 30.8228L70.392 30.8026Z" fill="#7E7E7E"/>
<path d="M110.928 26.0228V37.7974H114.193V26.0228H110.928Z" fill="#7E7E7E"/>
<path d="M111.318 24.0221C111.666 24.3441 112.082 24.505 112.568 24.505C113.053 24.505 113.467 24.3441 113.81 24.0221C114.157 23.695 114.331 23.3041 114.331 22.8492C114.331 22.3995 114.157 22.0137 113.81 21.6917C113.467 21.3646 113.053 21.2011 112.568 21.2011C112.082 21.2011 111.666 21.3646 111.318 21.6917C110.976 22.0137 110.805 22.3995 110.805 22.8492C110.805 23.3041 110.976 23.695 111.318 24.0221Z" fill="#7E7E7E"/>
<path fill-rule="evenodd" clip-rule="evenodd" d="M94.1281 34.3172C93.7185 35.081 93.2138 35.7302 92.614 36.2646L94.864 39.0852H91.7671L90.5033 37.5323C89.6558 37.8521 88.7381 38.012 87.7502 38.012C86.3551 38.012 85.103 37.6952 83.994 37.0615C82.8851 36.4278 82.0086 35.5105 81.3647 34.3095C80.7208 33.1085 80.3988 31.6546 80.3988 29.9477C80.3988 28.2357 80.7208 26.7792 81.3647 25.5782C82.0086 24.3773 82.8851 23.4625 83.994 22.8339C85.103 22.2002 86.3551 21.8834 87.7502 21.8834C89.1352 21.8834 90.3821 22.2002 91.4911 22.8339C92.6052 23.4625 93.4842 24.3773 94.1281 25.5782C94.7771 26.7792 95.1017 28.2357 95.1017 29.9477C95.1017 31.6597 94.7771 33.1162 94.1281 34.3172ZM86.6004 32.3394H89.4214L90.5831 33.8339C90.8416 33.5283 91.06 33.1681 91.2381 32.7534C91.5703 31.9919 91.7364 31.0567 91.7364 29.9477C91.7364 28.8387 91.5703 27.9035 91.2381 27.142C90.9111 26.3806 90.4486 25.8031 89.8506 25.4096C89.2527 25.0161 88.5526 24.8193 87.7502 24.8193C86.9479 24.8193 86.2477 25.0161 85.6498 25.4096C85.0519 25.8031 84.5868 26.3806 84.2547 27.142C83.9276 27.9035 83.7641 28.8387 83.7641 29.9477C83.7641 31.0567 83.9276 31.9919 84.2547 32.7534C84.5868 33.5148 85.0519 34.0923 85.6498 34.4858C86.2477 34.8793 86.9479 35.0761 87.7502 35.0761C88.0521 35.0761 88.3395 35.0482 88.6124 34.9925L86.6004 32.3394Z" fill="#7E7E7E"/>
<path d="M105.05 32.784V26.0228H108.315V37.7974H105.18V35.6587H105.058C104.792 36.3486 104.35 36.9031 103.731 37.3221C103.118 37.7412 102.369 37.9507 101.485 37.9507C100.698 37.9507 100.006 37.7718 99.4079 37.4141C98.8099 37.0564 98.3423 36.5479 98.005 35.8886C97.6729 35.2294 97.5042 34.4398 97.4991 33.5199V26.0228H100.765V32.9373C100.77 33.6324 100.956 34.1817 101.324 34.5855C101.692 34.9892 102.185 35.191 102.804 35.191C103.197 35.191 103.565 35.1016 103.908 34.9227C104.25 34.7388 104.526 34.4679 104.736 34.1102C104.95 33.7524 105.055 33.3104 105.05 32.784Z" fill="#7E7E7E"/>
<path d="M127.786 26.0228L123.67 37.7974H119.99L115.874 26.0228H119.323L121.769 34.4475H121.891L124.329 26.0228H127.786Z" fill="#7E7E7E"/>
<path d="M129.457 26.0228V37.7974H132.723V31.1359C132.723 30.6555 132.83 30.2313 133.045 29.8634C133.265 29.4954 133.561 29.2092 133.934 29.0048C134.312 28.7953 134.742 28.6905 135.222 28.6905C135.447 28.6905 135.695 28.7084 135.966 28.7442C136.237 28.78 136.449 28.8208 136.602 28.8668V25.9692C136.459 25.9334 136.293 25.9053 136.104 25.8849C135.915 25.8644 135.738 25.8542 135.575 25.8542C134.915 25.8542 134.333 26.0433 133.827 26.4215C133.321 26.7945 132.961 27.3465 132.746 28.0773H132.623V26.0228H129.457Z" fill="#7E7E7E"/>
</svg>
