<svg xmlns="http://www.w3.org/2000/svg" width="180" height="60" fill="none" viewBox="0 0 180 60"><g fill="#7e7e7e" clip-path="url(#a)"><path d="M44.453 40.064V19.937h8.914q1.869 0 3.393.862a6.2 6.2 0 0 1 2.386 2.272q.892 1.437.892 3.278 0 1.811-.892 3.306a6.33 6.33 0 0 1-2.386 2.33q-1.524.862-3.393.862h-4.744v7.217zm11.415 0-5.118-9.086 4.428-.72 5.694 9.835zm-7.245-10.725h4.543q.776 0 1.351-.345.605-.374.92-1.007.316-.661.316-1.466 0-.862-.373-1.495a2.47 2.47 0 0 0-1.093-.978q-.72-.374-1.668-.374h-3.996zM69.23 40.351q-2.473 0-4.342-1.006-1.84-1.006-2.875-2.76-1.007-1.755-1.007-4.026 0-1.782.575-3.249a7.5 7.5 0 0 1 1.61-2.53 6.9 6.9 0 0 1 2.445-1.668 7.9 7.9 0 0 1 3.105-.604q1.553 0 2.876.575a6.6 6.6 0 0 1 2.271 1.61 6.8 6.8 0 0 1 1.495 2.416q.518 1.38.46 2.99l-.029 1.265h-12.22l-.661-2.501h9.517l-.46.517v-.632a2.54 2.54 0 0 0-.517-1.38 2.9 2.9 0 0 0-1.122-.978 3.2 3.2 0 0 0-1.552-.374q-1.266 0-2.157.489-.863.489-1.323 1.438-.46.948-.46 2.3 0 1.38.576 2.386a4.3 4.3 0 0 0 1.667 1.582q1.092.546 2.56.546a5.2 5.2 0 0 0 1.84-.316q.833-.316 1.782-1.093l1.955 2.732q-.834.747-1.84 1.265-1.005.489-2.07.748a8.9 8.9 0 0 1-2.099.258M82.541 40.351q-2.128 0-3.795-.69-1.64-.719-2.646-1.955l2.56-2.185q.862.948 1.955 1.38a6.3 6.3 0 0 0 2.185.402q.43 0 .776-.086.374-.114.633-.287.258-.202.374-.46.144-.288.143-.604 0-.633-.517-.978-.288-.173-.892-.374-.603-.23-1.552-.489-1.467-.373-2.502-.862-1.005-.517-1.61-1.15a4.9 4.9 0 0 1-.805-1.294 4.6 4.6 0 0 1-.259-1.582q0-1.035.46-1.869a4.4 4.4 0 0 1 1.265-1.466 6.2 6.2 0 0 1 1.898-.92 7.2 7.2 0 0 1 2.243-.345q1.179 0 2.3.287 1.122.288 2.07.834a7 7 0 0 1 1.697 1.237l-2.186 2.415a7 7 0 0 0-1.178-.891 6 6 0 0 0-1.323-.633q-.69-.23-1.236-.23-.489 0-.892.086-.374.087-.632.288a1.24 1.24 0 0 0-.403.431 1.4 1.4 0 0 0-.115.575q0 .316.144.604.172.288.46.489.315.172.92.402.632.23 1.697.518 1.38.374 2.328.834.978.46 1.553 1.064.49.517.719 1.178.23.662.23 1.467 0 1.41-.805 2.501-.776 1.093-2.156 1.726-1.38.632-3.106.632M97.299 40.351q-2.473 0-4.342-1.006-1.84-1.007-2.875-2.76-1.007-1.755-1.007-4.026 0-1.782.575-3.25a7.5 7.5 0 0 1 1.61-2.53 6.9 6.9 0 0 1 2.444-1.667 7.9 7.9 0 0 1 3.106-.604q1.552 0 2.875.575a6.6 6.6 0 0 1 2.272 1.61 6.8 6.8 0 0 1 1.495 2.415q.517 1.38.46 2.99l-.029 1.266h-12.22l-.661-2.501h9.517l-.46.517v-.633a2.54 2.54 0 0 0-.518-1.38 2.9 2.9 0 0 0-1.121-.977 3.2 3.2 0 0 0-1.553-.374q-1.265 0-2.156.489-.862.489-1.323 1.437-.46.95-.46 2.3 0 1.38.575 2.387.605 1.006 1.668 1.582 1.092.546 2.559.546a5.2 5.2 0 0 0 1.84-.316q.834-.316 1.783-1.093l1.955 2.732a8.7 8.7 0 0 1-1.84 1.265q-1.007.489-2.07.747a9 9 0 0 1-2.1.26M105.491 40.064v-15.21h3.91l.115 3.105-.805.345a4.6 4.6 0 0 1 1.122-1.87 6.4 6.4 0 0 1 1.984-1.38 5.8 5.8 0 0 1 2.415-.517q1.725 0 2.875.69 1.18.69 1.754 2.1.604 1.38.604 3.42v9.317h-4.083v-9q0-1.035-.287-1.725-.288-.69-.892-1.007-.575-.315-1.437-.287-.69 0-1.294.23a2.8 2.8 0 0 0-1.007.604 3.5 3.5 0 0 0-.661.92q-.23.518-.23 1.121v9.144h-4.083M127.893 40.351q-2.013 0-3.594-1.006-1.553-1.035-2.473-2.79-.891-1.782-.891-4.11 0-2.273.891-4.055.92-1.812 2.473-2.818 1.581-1.035 3.594-1.035 1.064 0 2.041.345 1.007.316 1.783.891a5.2 5.2 0 0 1 1.294 1.294q.489.69.546 1.438l-1.035.201v-9.92h4.112v21.278h-3.882l-.172-3.508.805.086q-.057.72-.518 1.38-.46.662-1.236 1.208a6.6 6.6 0 0 1-1.725.834 7 7 0 0 1-2.013.287m.92-3.392q1.15 0 2.013-.576.862-.575 1.351-1.581t.489-2.358q0-1.323-.489-2.329t-1.351-1.581-2.013-.575q-1.15 0-2.013.575-.834.575-1.322 1.581-.46 1.007-.46 2.33 0 1.35.46 2.357.488 1.006 1.322 1.581.862.575 2.013.575"/></g><defs><clipPath id="a"><path fill="#fff" d="M43.276 18.499h93.448v23.003H43.276z"/></clipPath></defs></svg>