<svg xmlns="http://www.w3.org/2000/svg" width="180" height="60" fill="none" viewBox="0 0 180 60"><path fill="#7e7e7e" d="M88.376 26.392c-1.133-.886-2.678-1.394-4.359-1.394-4.734 0-8.132 3.675-8.132 8.612s3.396 8.613 8.132 8.613c1.715 0 3.293-.58 4.461-1.532v1.19h5.147V17.167l-5.25 1.296zm-3.432 11.131c-2.163 0-3.74-1.634-3.74-3.915 0-2.28 1.578-3.916 3.773-3.916s3.705 1.6 3.705 3.916-1.509 3.915-3.74 3.915zM101.991 24.816l-5.249 1.297v15.765h5.249zM99.383 17.335c-1.647 0-2.847 1.26-2.847 2.86 0 1.602 1.2 2.861 2.847 2.861s2.814-1.259 2.814-2.86c0-1.602-1.166-2.86-2.814-2.86M113.114 24.962c-5.215 0-9.126 3.711-9.126 8.613s3.947 8.681 9.126 8.681c5.18 0 9.126-3.744 9.126-8.681 0-4.938-3.946-8.613-9.126-8.613m0 12.561c-2.229 0-3.774-1.599-3.774-3.915 0-2.317 1.545-3.916 3.774-3.916s3.774 1.566 3.774 3.88-1.509 3.949-3.774 3.949zM68.84 34.867c0 1.737-.96 2.758-2.538 2.758h-3.293v-12.29H57.76v7.08l5.249 5.21H57.76l5.249 5.208v-5.208l4.58 4.545c3.895-.506 6.5-3.33 6.5-7.267v-9.568h-5.25z"/></svg>