<svg xmlns="http://www.w3.org/2000/svg" width="432" height="398" fill="none" viewBox="0 0 432 398"><g clip-path="url(#a)"><path fill="#030a0c" d="M0 0h432v398H0z"/><g filter="url(#b)" opacity=".3"><path fill="#1c4c5a" d="M-270.518 204.201c41.037 31.376 123.915-52.943 160.225-99.024 74.91-87.163 210.958 19.077 198.492-72.466S-27.653-21.907-143.895-77.551c-116.243-55.645-81.17 95.41-116.874 172.964-35.704 77.553-171.553 18.203-185.861 67.081-14.309 48.878 124.815 2.487 176.112 41.707"/></g><g filter="url(#c)" style="mix-blend-mode:soft-light"><path fill="url(#d)" d="m180.574 14.57-5.771 82.266-.013.051c-.684 2.627-3.146 12.093-13.405 17.321-11.732 5.979-22.088.465-25.721-2.883L72.966 44.963z"/></g><g filter="url(#e)"><mask id="g" width="45" height="45" x="130" y="77" maskUnits="userSpaceOnUse" style="mask-type:alpha"><circle cx="152.967" cy="99.436" r="21.479" fill="#6e2ca5" stroke="url(#f)"/></mask><g mask="url(#g)"><circle cx="152.967" cy="99.436" r="21.479" fill="#9e92a7" stroke="url(#h)"/><g filter="url(#i)"><circle cx="148.813" cy="101.091" r="23.407" fill="#501980"/><circle cx="148.813" cy="101.091" r="22.907" stroke="url(#j)"/></g><g filter="url(#k)"><circle cx="158.384" cy="105.494" r="17.447" fill="#fff"/><circle cx="158.384" cy="105.494" r="16.947" stroke="url(#l)"/></g></g></g><circle cx="13.308" cy="229.158" r="1.583" fill="#cacbdc" fill-opacity=".15" transform="rotate(-129.817 13.308 229.158)"/><circle cx="85.788" cy="163.849" r="1.583" fill="#cacbdc" fill-opacity=".15" transform="rotate(-129.817 85.788 163.849)"/><circle cx="52.882" cy="144.396" r="1.583" fill="#cacbdc" fill-opacity=".15" transform="rotate(-129.817 52.882 144.396)"/><circle cx="88.955" cy="8.31" r=".812" fill="#cacbdc" fill-opacity=".15" transform="rotate(-129.817 88.955 8.31)"/><circle cx="7.765" cy="251.357" r=".812" fill="#cacbdc" fill-opacity=".15" transform="rotate(-51.954 7.765 251.357)"/><circle cx="-.755" cy="239.627" r=".812" fill="#cacbdc" fill-opacity=".15" transform="rotate(-51.954 -.755 239.627)"/><circle cx="59.319" cy="156.459" r=".812" fill="#cacbdc" fill-opacity=".15" transform="rotate(-51.954 59.32 156.459)"/><circle cx="13.085" cy="147.384" r=".812" fill="#cacbdc" fill-opacity=".15" transform="rotate(-51.954 13.085 147.384)"/><circle cx="42.667" cy="81.509" r=".812" fill="#cacbdc" fill-opacity=".15" transform="rotate(-51.954 42.667 81.51)"/><circle cx="104.999" cy="125.357" r=".812" fill="#cacbdc" fill-opacity=".15" transform="rotate(-51.954 104.999 125.357)"/><g filter="url(#m)"><circle cx="59.304" cy="118.023" r=".812" fill="#fff" fill-opacity=".41" shape-rendering="crispEdges" transform="rotate(-161.053 59.304 118.023)"/></g><circle cx="223.804" cy="236.558" r="1.583" fill="#cacbdc" fill-opacity=".15" transform="rotate(180 223.804 236.558)"/><circle cx="245.781" cy="355.859" r="1.583" fill="#cacbdc" fill-opacity=".15" transform="rotate(180 245.781 355.859)"/><circle cx="243.246" cy="328.941" r="1.583" fill="#cacbdc" fill-opacity=".15" transform="rotate(180 243.246 328.941)"/><circle cx="220.054" cy="139.066" r="1.583" fill="#cacbdc" fill-opacity=".15" transform="rotate(180 220.054 139.066)"/><circle cx="184.042" cy="151.882" r="1.583" fill="#cacbdc" fill-opacity=".15" transform="rotate(180 184.042 151.882)"/><circle cx="208.128" cy="267.929" r="1.583" fill="#cacbdc" fill-opacity=".15" transform="rotate(180 208.128 267.929)"/><circle cx="207.356" cy="243.454" r=".812" fill="#cacbdc" fill-opacity=".15" transform="rotate(180 207.356 243.454)"/><circle cx="102.614" cy="37.032" r=".812" fill="#cacbdc" fill-opacity=".15" transform="rotate(180 102.614 37.032)"/><circle cx="78.934" cy="1.692" r=".812" fill="#cacbdc" fill-opacity=".15" transform="rotate(180 78.934 1.692)"/><g filter="url(#n)"><circle cx="281.548" cy="306.509" r=".812" fill="#fff" fill-opacity=".41" shape-rendering="crispEdges" transform="rotate(-133.372 281.548 306.509)"/></g><circle cx="208.981" cy="255.841" r=".812" fill="#cacbdc" fill-opacity=".15" transform="rotate(180 208.981 255.841)"/><circle cx="237.307" cy="255.028" r=".812" fill="#cacbdc" fill-opacity=".15" transform="rotate(-102.137 237.307 255.028)"/><circle cx="212.848" cy="271.661" r=".812" fill="#cacbdc" fill-opacity=".15" transform="rotate(180 212.848 271.661)"/><circle cx="222.838" cy="254.063" r=".812" fill="#cacbdc" fill-opacity=".15" transform="rotate(-102.137 222.838 254.063)"/><circle cx="197.432" cy="154.668" r=".812" fill="#cacbdc" fill-opacity=".15" transform="rotate(-102.137 197.432 154.668)"/><circle cx="160.853" cy="184.364" r=".812" fill="#cacbdc" fill-opacity=".15" transform="rotate(-102.137 160.853 184.364)"/><circle cx="129.201" cy="119.461" r=".812" fill="#cacbdc" fill-opacity=".15" transform="rotate(-102.137 129.201 119.461)"/><circle cx="202.791" cy="99.661" r=".812" fill="#cacbdc" fill-opacity=".15" transform="rotate(-102.137 202.791 99.66)"/><g filter="url(#o)"><circle cx="204.904" cy="295.512" r=".812" fill="#fff" fill-opacity=".41" shape-rendering="crispEdges" transform="rotate(148.764 204.904 295.512)"/></g><g filter="url(#p)"><circle cx="233.358" cy="273.063" r=".812" fill="#fff" fill-opacity=".41" shape-rendering="crispEdges" transform="rotate(148.764 233.358 273.063)"/></g><g filter="url(#q)"><circle cx="167.897" cy="130.067" r=".812" fill="#fff" fill-opacity=".41" shape-rendering="crispEdges" transform="rotate(148.764 167.897 130.067)"/></g><circle cx="85.842" cy="-2.922" r=".812" fill="#fff" fill-opacity=".41" transform="rotate(148.764 85.842 -2.922)"/><g filter="url(#r)" opacity=".71"><ellipse cx="238" cy="232.5" fill="url(#s)" rx="348" ry="206.5"/></g><g filter="url(#t)" style="mix-blend-mode:overlay"><ellipse cx="246.6" cy="192.145" fill="#c57aff" fill-opacity=".9" rx="247.3" ry="86.827" transform="rotate(36.258 246.6 192.145)"/></g><g filter="url(#u)"><ellipse cx="201.5" cy="201" fill="#d5c9c9" rx="62.5" ry="62"/><ellipse cx="201.5" cy="201" stroke="url(#v)" stroke-linejoin="bevel" stroke-width="2.59" rx="62.5" ry="62"/></g><g filter="url(#w)" style="mix-blend-mode:overlay"><ellipse cx="310.835" cy="295.938" fill="#c448f0" fill-opacity=".9" rx="236.44" ry="109.831" transform="rotate(9.49 310.835 295.938)"/></g><mask id="y" width="159" height="159" x="-5" y="127" maskUnits="userSpaceOnUse" style="mask-type:alpha"><circle cx="74.413" cy="206.179" r="78.327" fill="#6e2ca5" stroke="url(#x)"/></mask><g mask="url(#y)"><circle cx="74.413" cy="206.179" r="78.327" fill="#e4d8ed" stroke="url(#z)"/><g filter="url(#A)"><circle cx="61.318" cy="212.119" r="85.744" fill="#501980"/><circle cx="61.318" cy="212.119" r="85.244" stroke="url(#B)"/></g><g filter="url(#C)"><circle cx="26.128" cy="230.804" r="84.671" fill="#1c0c30" fill-opacity=".9"/><circle cx="26.128" cy="230.804" r="84.171" stroke="url(#D)"/></g></g><mask id="F" width="113" height="114" x="217" y="176" maskUnits="userSpaceOnUse" style="mask-type:alpha"><circle cx="273.753" cy="233.14" r="55.675" fill="#6e2ca5" stroke="url(#E)" transform="rotate(-100.111 273.753 233.14)"/></mask><g mask="url(#F)"><circle cx="273.753" cy="233.14" r="55.675" fill="#ecccf5" stroke="url(#G)" transform="rotate(-100.111 273.753 233.14)"/><g filter="url(#H)"><circle cx="284.733" cy="246.452" r="58.469" fill="#481d80" transform="rotate(-100.111 284.733 246.452)"/><circle cx="284.733" cy="246.452" r="57.969" stroke="url(#I)" transform="rotate(-100.111 284.733 246.452)"/></g></g><g filter="url(#J)"><path fill="url(#K)" fill-opacity=".1" d="m-143 47 253.855 87.466.15.085c7.687 4.363 35.381 20.083 43.177 56.749 8.916 41.931-17.151 69.849-30.741 78.455L-138.097 411z"/></g><g filter="url(#L)"><path fill="url(#M)" fill-opacity=".1" d="M694.559 277.258 289.854 175.17c-5.258-1.326-10.675-2.15-16.072-1.623-10.96 1.069-29.042 5.285-43.874 22.224-22.416 25.599-15.169 55.037-9.088 66.261l143.892 321.397z"/></g><mask id="N" width="361" height="361" x="294" y="-35" maskUnits="userSpaceOnUse" style="mask-type:alpha"><circle cx="179.76" cy="179.76" r="179.76" fill="#6e2ca5" transform="matrix(-1 0 0 1 654.477 -34.063)"/></mask><g mask="url(#N)"><circle cx="179.76" cy="179.76" r="179.26" fill="#9a38e8" stroke="url(#O)" transform="matrix(-1 0 0 1 654.477 -34.063)"/><g filter="url(#P)"><circle cx="194.478" cy="194.478" r="194.478" fill="url(#Q)" transform="matrix(-1 0 0 1 702.648 -43.637)"/></g></g><path stroke="url(#R)" d="M174.5 99.5c0 11.587-9.615 21-21.5 21s-21.5-9.413-21.5-21 9.615-21 21.5-21 21.5 9.413 21.5 21Z"/><path stroke="url(#S)" d="M142.992 167.516c8.107.91 14.206 3.877 17.392 9.049 10.483 17.018-14.546 51.467-55.903 76.943-9.768 6.017-19.573 10.995-28.992 14.866"/><path stroke="url(#T)" d="M142.718 167.517c6.983-.916 11.801-.029 13.628 2.937 6.011 9.758-22.644 38.321-64.001 63.797-17.886 11.017-35.22 19.653-49.618 25.118"/><path stroke="url(#U)" d="M94.313 237.448c-17.886 11.018-35.332 19.471-49.918 24.63"/><path stroke="url(#V)" d="M142.718 167.517c7.16-.63 12.179.584 14.219 3.896 6.713 10.899-21.372 40.386-62.73 65.862-17.885 11.018-35.325 19.481-49.902 24.657"/><path stroke="url(#W)" d="M39.603 161.79c19.997-9.297 39.256-15.683 54.876-18.702"/><path stroke="url(#X)" d="M49.364 150.186c44.966-18.373 86.393-21.089 92.531-6.067 1.865 4.565.257 10.243-4.148 16.451"/></g><defs><linearGradient id="f" x1="152.967" x2="152.967" y1="77.457" y2="121.415" gradientUnits="userSpaceOnUse"><stop stop-color="#fff"/><stop offset="1" stop-color="#fff" stop-opacity="0"/></linearGradient><linearGradient id="h" x1="152.967" x2="152.967" y1="77.457" y2="121.415" gradientUnits="userSpaceOnUse"><stop stop-color="#fff"/><stop offset="1" stop-color="#fff" stop-opacity="0"/></linearGradient><linearGradient id="j" x1="148.813" x2="148.813" y1="77.684" y2="124.497" gradientUnits="userSpaceOnUse"><stop stop-color="#fff"/><stop offset="1" stop-color="#fff" stop-opacity="0"/></linearGradient><linearGradient id="l" x1="158.384" x2="158.384" y1="88.047" y2="122.941" gradientUnits="userSpaceOnUse"><stop stop-color="#fff"/><stop offset="1" stop-color="#fff" stop-opacity="0"/></linearGradient><linearGradient id="s" x1="238" x2="238" y1="26" y2="439" gradientUnits="userSpaceOnUse"><stop stop-color="#6f13a4"/><stop offset="1" stop-color="#6f13a4" stop-opacity="0"/></linearGradient><linearGradient id="v" x1="161.172" x2="223.813" y1="150.3" y2="181.958" gradientUnits="userSpaceOnUse"><stop stop-color="#fff"/><stop offset="1" stop-color="#4b4b4b" stop-opacity="0"/></linearGradient><linearGradient id="x" x1="74.413" x2="74.413" y1="127.352" y2="285.006" gradientUnits="userSpaceOnUse"><stop stop-color="#fff"/><stop offset="1" stop-color="#fff" stop-opacity=".71"/></linearGradient><linearGradient id="z" x1="74.413" x2="74.413" y1="127.352" y2="285.006" gradientUnits="userSpaceOnUse"><stop stop-color="#fff"/><stop offset="1" stop-color="#fff" stop-opacity=".71"/></linearGradient><linearGradient id="B" x1="61.318" x2="61.318" y1="126.375" y2="297.862" gradientUnits="userSpaceOnUse"><stop stop-color="#fff"/><stop offset="1" stop-color="#fff" stop-opacity=".71"/></linearGradient><linearGradient id="D" x1="26.128" x2="26.128" y1="146.133" y2="315.475" gradientUnits="userSpaceOnUse"><stop stop-color="#fff"/><stop offset="1" stop-color="#fff" stop-opacity=".71"/></linearGradient><linearGradient id="E" x1="273.753" x2="273.753" y1="176.964" y2="289.315" gradientUnits="userSpaceOnUse"><stop stop-color="#fff"/><stop offset="1" stop-color="#fff" stop-opacity="0"/></linearGradient><linearGradient id="G" x1="327.224" x2="244.434" y1="206.124" y2="276.813" gradientUnits="userSpaceOnUse"><stop stop-color="#e4c8eb"/><stop offset="1" stop-color="#fff" stop-opacity="0"/></linearGradient><linearGradient id="I" x1="284.733" x2="284.733" y1="187.984" y2="304.921" gradientUnits="userSpaceOnUse"><stop stop-color="#fff"/><stop offset="1" stop-color="#fff" stop-opacity="0"/></linearGradient><linearGradient id="O" x1="327.258" x2="270.486" y1="62.516" y2="96.016" gradientUnits="userSpaceOnUse"><stop stop-color="#a259ff"/><stop offset="1" stop-color="#fff" stop-opacity="0"/></linearGradient><linearGradient id="Q" x1="235.551" x2="70.821" y1="-36.846" y2="248.737" gradientUnits="userSpaceOnUse"><stop stop-color="#1c0b39"/><stop offset="1" stop-color="#030a0c"/></linearGradient><linearGradient id="R" x1="166.353" x2="156.013" y1="122.703" y2="104.327" gradientUnits="userSpaceOnUse"><stop stop-color="#e8cbff"/><stop offset="1" stop-color="#8442b8" stop-opacity="0"/></linearGradient><linearGradient id="S" x1="149.305" x2="106.011" y1="182.984" y2="244.386" gradientUnits="userSpaceOnUse"><stop stop-color="#fff"/><stop offset="1" stop-color="#d9d9d9" stop-opacity="0"/></linearGradient><linearGradient id="T" x1="121.458" x2="60.188" y1="177.067" y2="240.688" gradientUnits="userSpaceOnUse"><stop stop-color="#fff"/><stop offset="1" stop-color="#d9d9d9" stop-opacity="0"/></linearGradient><linearGradient id="U" x1="83.296" x2="55.821" y1="239.097" y2="251.358" gradientUnits="userSpaceOnUse"><stop stop-color="#fff" stop-opacity="0"/><stop offset=".37" stop-color="#fff" stop-opacity=".51"/><stop offset="1" stop-color="#d9d9d9" stop-opacity="0"/></linearGradient><linearGradient id="V" x1="143.214" x2="114.943" y1="157.456" y2="200.569" gradientUnits="userSpaceOnUse"><stop stop-color="#fff"/><stop offset="1" stop-color="#d9d9d9" stop-opacity="0"/></linearGradient><linearGradient id="W" x1="94.599" x2="49.979" y1="145.643" y2="156.724" gradientUnits="userSpaceOnUse"><stop stop-color="#fff" stop-opacity="0"/><stop offset=".365" stop-color="#fff" stop-opacity=".65"/><stop offset="1" stop-color="#d9d9d9" stop-opacity="0"/></linearGradient><linearGradient id="X" x1="141.871" x2="49.792" y1="150.425" y2="146.557" gradientUnits="userSpaceOnUse"><stop stop-color="#fff"/><stop offset="1" stop-color="#d9d9d9" stop-opacity="0"/></linearGradient><filter id="b" width="906.47" height="670.431" x="-632.563" y="-274.493" color-interpolation-filters="sRGB" filterUnits="userSpaceOnUse"><feFlood flood-opacity="0" result="BackgroundImageFix"/><feBlend in="SourceGraphic" in2="BackgroundImageFix" result="shape"/><feGaussianBlur result="effect1_foregroundBlur_3044_32363" stdDeviation="92.454"/></filter><filter id="c" width="115.609" height="110.293" x="68.965" y="10.57" color-interpolation-filters="sRGB" filterUnits="userSpaceOnUse"><feFlood flood-opacity="0" result="BackgroundImageFix"/><feBlend in="SourceGraphic" in2="BackgroundImageFix" result="shape"/><feGaussianBlur result="effect1_foregroundBlur_3044_32363" stdDeviation="2"/></filter><filter id="e" width="51.957" height="51.957" x="126.988" y="73.457" color-interpolation-filters="sRGB" filterUnits="userSpaceOnUse"><feFlood flood-opacity="0" result="BackgroundImageFix"/><feBlend in="SourceGraphic" in2="BackgroundImageFix" result="shape"/><feGaussianBlur result="effect1_foregroundBlur_3044_32363" stdDeviation="2"/></filter><filter id="i" width="86.813" height="86.813" x="105.406" y="57.684" color-interpolation-filters="sRGB" filterUnits="userSpaceOnUse"><feFlood flood-opacity="0" result="BackgroundImageFix"/><feBlend in="SourceGraphic" in2="BackgroundImageFix" result="shape"/><feGaussianBlur result="effect1_foregroundBlur_3044_32363" stdDeviation="10"/></filter><filter id="k" width="68.894" height="68.894" x="123.938" y="71.047" color-interpolation-filters="sRGB" filterUnits="userSpaceOnUse"><feFlood flood-opacity="0" result="BackgroundImageFix"/><feBlend in="SourceGraphic" in2="BackgroundImageFix" result="shape"/><feGaussianBlur result="effect1_foregroundBlur_3044_32363" stdDeviation="8.5"/></filter><filter id="m" width="5.625" height="5.625" x="56.492" y="115.211" color-interpolation-filters="sRGB" filterUnits="userSpaceOnUse"><feFlood flood-opacity="0" result="BackgroundImageFix"/><feColorMatrix in="SourceAlpha" result="hardAlpha" values="0 0 0 0 0 0 0 0 0 0 0 0 0 0 0 0 0 0 127 0"/><feOffset/><feGaussianBlur stdDeviation="1"/><feComposite in2="hardAlpha" operator="out"/><feColorMatrix values="0 0 0 0 1 0 0 0 0 1 0 0 0 0 1 0 0 0 0.52 0"/><feBlend in2="BackgroundImageFix" result="effect1_dropShadow_3044_32363"/><feBlend in="SourceGraphic" in2="effect1_dropShadow_3044_32363" result="shape"/></filter><filter id="n" width="5.621" height="5.625" x="278.738" y="303.695" color-interpolation-filters="sRGB" filterUnits="userSpaceOnUse"><feFlood flood-opacity="0" result="BackgroundImageFix"/><feColorMatrix in="SourceAlpha" result="hardAlpha" values="0 0 0 0 0 0 0 0 0 0 0 0 0 0 0 0 0 0 127 0"/><feOffset/><feGaussianBlur stdDeviation="1"/><feComposite in2="hardAlpha" operator="out"/><feColorMatrix values="0 0 0 0 1 0 0 0 0 1 0 0 0 0 1 0 0 0 0.52 0"/><feBlend in2="BackgroundImageFix" result="effect1_dropShadow_3044_32363"/><feBlend in="SourceGraphic" in2="effect1_dropShadow_3044_32363" result="shape"/></filter><filter id="o" width="5.621" height="5.625" x="202.094" y="292.699" color-interpolation-filters="sRGB" filterUnits="userSpaceOnUse"><feFlood flood-opacity="0" result="BackgroundImageFix"/><feColorMatrix in="SourceAlpha" result="hardAlpha" values="0 0 0 0 0 0 0 0 0 0 0 0 0 0 0 0 0 0 127 0"/><feOffset/><feGaussianBlur stdDeviation="1"/><feComposite in2="hardAlpha" operator="out"/><feColorMatrix values="0 0 0 0 1 0 0 0 0 1 0 0 0 0 1 0 0 0 0.52 0"/><feBlend in2="BackgroundImageFix" result="effect1_dropShadow_3044_32363"/><feBlend in="SourceGraphic" in2="effect1_dropShadow_3044_32363" result="shape"/></filter><filter id="p" width="5.621" height="5.625" x="230.547" y="270.25" color-interpolation-filters="sRGB" filterUnits="userSpaceOnUse"><feFlood flood-opacity="0" result="BackgroundImageFix"/><feColorMatrix in="SourceAlpha" result="hardAlpha" values="0 0 0 0 0 0 0 0 0 0 0 0 0 0 0 0 0 0 127 0"/><feOffset/><feGaussianBlur stdDeviation="1"/><feComposite in2="hardAlpha" operator="out"/><feColorMatrix values="0 0 0 0 1 0 0 0 0 1 0 0 0 0 1 0 0 0 0.52 0"/><feBlend in2="BackgroundImageFix" result="effect1_dropShadow_3044_32363"/><feBlend in="SourceGraphic" in2="effect1_dropShadow_3044_32363" result="shape"/></filter><filter id="q" width="5.621" height="5.625" x="165.086" y="127.254" color-interpolation-filters="sRGB" filterUnits="userSpaceOnUse"><feFlood flood-opacity="0" result="BackgroundImageFix"/><feColorMatrix in="SourceAlpha" result="hardAlpha" values="0 0 0 0 0 0 0 0 0 0 0 0 0 0 0 0 0 0 127 0"/><feOffset/><feGaussianBlur stdDeviation="1"/><feComposite in2="hardAlpha" operator="out"/><feColorMatrix values="0 0 0 0 1 0 0 0 0 1 0 0 0 0 1 0 0 0 0.52 0"/><feBlend in2="BackgroundImageFix" result="effect1_dropShadow_3044_32363"/><feBlend in="SourceGraphic" in2="effect1_dropShadow_3044_32363" result="shape"/></filter><filter id="r" width="1348.44" height="1065.44" x="-436.22" y="-300.22" color-interpolation-filters="sRGB" filterUnits="userSpaceOnUse"><feFlood flood-opacity="0" result="BackgroundImageFix"/><feBlend in="SourceGraphic" in2="BackgroundImageFix" result="shape"/><feGaussianBlur result="effect1_foregroundBlur_3044_32363" stdDeviation="163.11"/></filter><filter id="t" width="739.934" height="652.383" x="-123.367" y="-134.047" color-interpolation-filters="sRGB" filterUnits="userSpaceOnUse"><feFlood flood-opacity="0" result="BackgroundImageFix"/><feBlend in="SourceGraphic" in2="BackgroundImageFix" result="shape"/><feGaussianBlur result="effect1_foregroundBlur_3044_32363" stdDeviation="82"/></filter><filter id="u" width="141.674" height="140.674" x="130.663" y="130.663" color-interpolation-filters="sRGB" filterUnits="userSpaceOnUse"><feFlood flood-opacity="0" result="BackgroundImageFix"/><feBlend in="SourceGraphic" in2="BackgroundImageFix" result="shape"/><feGaussianBlur result="effect1_foregroundBlur_3044_32363" stdDeviation="3.52"/></filter><filter id="w" width="795.836" height="558.32" x="-87.082" y="16.777" color-interpolation-filters="sRGB" filterUnits="userSpaceOnUse"><feFlood flood-opacity="0" result="BackgroundImageFix"/><feBlend in="SourceGraphic" in2="BackgroundImageFix" result="shape"/><feGaussianBlur result="effect1_foregroundBlur_3044_32363" stdDeviation="82"/></filter><filter id="A" width="211.488" height="211.488" x="-44.426" y="106.375" color-interpolation-filters="sRGB" filterUnits="userSpaceOnUse"><feFlood flood-opacity="0" result="BackgroundImageFix"/><feBlend in="SourceGraphic" in2="BackgroundImageFix" result="shape"/><feGaussianBlur result="effect1_foregroundBlur_3044_32363" stdDeviation="10"/></filter><filter id="C" width="273.344" height="273.344" x="-110.543" y="94.133" color-interpolation-filters="sRGB" filterUnits="userSpaceOnUse"><feFlood flood-opacity="0" result="BackgroundImageFix"/><feBlend in="SourceGraphic" in2="BackgroundImageFix" result="shape"/><feGaussianBlur result="effect1_foregroundBlur_3044_32363" stdDeviation="26"/></filter><filter id="H" width="170.957" height="170.957" x="199.254" y="160.973" color-interpolation-filters="sRGB" filterUnits="userSpaceOnUse"><feFlood flood-opacity="0" result="BackgroundImageFix"/><feBlend in="SourceGraphic" in2="BackgroundImageFix" result="shape"/><feGaussianBlur result="effect1_foregroundBlur_3044_32363" stdDeviation="13.5"/></filter><filter id="J" width="325" height="390" x="-156" y="34" color-interpolation-filters="sRGB" filterUnits="userSpaceOnUse"><feFlood flood-opacity="0" result="BackgroundImageFix"/><feBlend in="SourceGraphic" in2="BackgroundImageFix" result="shape"/><feGaussianBlur result="effect1_foregroundBlur_3044_32363" stdDeviation="6.5"/></filter><filter id="L" width="497.891" height="428.043" x="205.668" y="164.387" color-interpolation-filters="sRGB" filterUnits="userSpaceOnUse"><feFlood flood-opacity="0" result="BackgroundImageFix"/><feBlend in="SourceGraphic" in2="BackgroundImageFix" result="shape"/><feGaussianBlur result="effect1_foregroundBlur_3044_32363" stdDeviation="4.5"/></filter><filter id="P" width="540.957" height="540.957" x="237.691" y="-119.637" color-interpolation-filters="sRGB" filterUnits="userSpaceOnUse"><feFlood flood-opacity="0" result="BackgroundImageFix"/><feBlend in="SourceGraphic" in2="BackgroundImageFix" result="shape"/><feGaussianBlur result="effect1_foregroundBlur_3044_32363" stdDeviation="38"/></filter><radialGradient id="d" cx="0" cy="0" r="1" gradientTransform="rotate(-91.647 125.448 -21.959)scale(47.5024 54.9871)" gradientUnits="userSpaceOnUse"><stop/><stop offset="1" stop-color="#130059" stop-opacity=".1"/></radialGradient><radialGradient id="K" cx="0" cy="0" r="1" gradientTransform="rotate(168.926 52.496 94.571)scale(207.436 236.329)" gradientUnits="userSpaceOnUse"><stop stop-color="#fae9ff"/><stop offset="1" stop-color="#2f04cd" stop-opacity="0"/></radialGradient><radialGradient id="M" cx="0" cy="0" r="1" gradientTransform="rotate(30.586 -307.32 597.497)scale(226.709 189.515)" gradientUnits="userSpaceOnUse"><stop stop-color="#f1c7ff"/><stop offset="1" stop-color="#050b0f"/></radialGradient><clipPath id="a"><path fill="#fff" d="M0 0h432v398H0z"/></clipPath></defs></svg>