<svg width="1369" height="398" viewBox="0 0 1369 398" fill="none" xmlns="http://www.w3.org/2000/svg">
<g clip-path="url(#clip0_3004_134684)">
<g opacity="0.3" filter="url(#filter0_f_3004_134684)">
<path d="M276.5 196.556C327.248 235.357 429.738 131.085 474.639 74.0996C567.275 -33.6893 735.517 97.6911 720.101 -15.5141C704.685 -128.719 576.835 -83.0567 433.086 -151.868C289.337 -220.679 332.709 -33.8798 288.556 62.0248C244.404 157.929 76.4084 84.5351 58.7143 144.979C41.0203 205.424 213.065 148.055 276.5 196.556Z" fill="#1C4C5A"/>
</g>
<g style="mix-blend-mode:soft-light" filter="url(#filter1_f_3004_134684)">
<path d="M834.336 -37.9492L827.199 63.7828L827.183 63.8462C826.337 67.0952 823.292 78.8012 810.606 85.266C796.097 92.6591 783.291 85.8405 778.798 81.7009L701.264 -0.364747L834.336 -37.9492Z" fill="url(#paint0_radial_3004_134684)"/>
</g>
<g filter="url(#filter2_f_3004_134684)">
<mask id="mask0_3004_134684" style="mask-type:alpha" maskUnits="userSpaceOnUse" x="773" y="39" width="55" height="56">
<circle cx="800.195" cy="67" r="26.6797" fill="#6E2CA5" stroke="url(#paint1_linear_3004_134684)"/>
</mask>
<g mask="url(#mask0_3004_134684)">
<circle cx="800.195" cy="67" r="26.6797" fill="#9E92A7" stroke="url(#paint2_linear_3004_134684)"/>
<g filter="url(#filter3_f_3004_134684)">
<circle cx="795.059" cy="69.0473" r="28.9457" fill="#501980"/>
<circle cx="795.059" cy="69.0473" r="28.4457" stroke="url(#paint3_linear_3004_134684)"/>
</g>
<g filter="url(#filter4_f_3004_134684)">
<circle cx="806.896" cy="74.4895" r="21.5755" fill="white"/>
<circle cx="806.896" cy="74.4895" r="21.0755" stroke="url(#paint4_linear_3004_134684)"/>
</g>
</g>
</g>
<circle cx="627.48" cy="227.419" r="1.95703" transform="rotate(-129.817 627.48 227.419)" fill="#CACBDC" fill-opacity="0.15"/>
<circle cx="531.566" cy="342.767" r="1.95703" transform="rotate(-129.817 531.566 342.767)" fill="#CACBDC" fill-opacity="0.15"/>
<circle cx="555.125" cy="319.044" r="1.95703" transform="rotate(-129.817 555.125 319.044)" fill="#CACBDC" fill-opacity="0.15"/>
<circle cx="360.855" cy="374.455" r="1.95703" transform="rotate(-129.817 360.855 374.455)" fill="#CACBDC" fill-opacity="0.15"/>
<circle cx="717.113" cy="146.658" r="1.95703" transform="rotate(-129.817 717.113 146.658)" fill="#CACBDC" fill-opacity="0.15"/>
<circle cx="676.422" cy="122.599" r="1.95703" transform="rotate(-129.817 676.422 122.599)" fill="#CACBDC" fill-opacity="0.15"/>
<circle cx="585.27" cy="237.373" r="1.95703" transform="rotate(-129.817 585.27 237.373)" fill="#CACBDC" fill-opacity="0.15"/>
<circle cx="607.902" cy="217.258" r="1.00391" transform="rotate(-129.817 607.902 217.258)" fill="#CACBDC" fill-opacity="0.15"/>
<g filter="url(#filter5_d_3004_134684)">
<circle cx="606.764" cy="337.657" r="1.00391" transform="rotate(-83.1895 606.764 337.657)" fill="white" fill-opacity="0.41" shape-rendering="crispEdges"/>
</g>
<circle cx="597.429" cy="228.609" r="1.00391" transform="rotate(-129.817 597.429 228.609)" fill="#CACBDC" fill-opacity="0.15"/>
<circle cx="620.628" cy="254.871" r="1.00391" transform="rotate(-51.9537 620.628 254.871)" fill="#CACBDC" fill-opacity="0.15"/>
<circle cx="585.464" cy="244.813" r="1.00391" transform="rotate(-129.817 585.464 244.813)" fill="#CACBDC" fill-opacity="0.15"/>
<circle cx="610.089" cy="240.363" r="1.00391" transform="rotate(-51.9537 610.089 240.363)" fill="#CACBDC" fill-opacity="0.15"/>
<circle cx="684.382" cy="137.52" r="1.00391" transform="rotate(-51.9537 684.382 137.52)" fill="#CACBDC" fill-opacity="0.15"/>
<circle cx="627.21" cy="126.293" r="1.00391" transform="rotate(-51.9537 627.21 126.293)" fill="#CACBDC" fill-opacity="0.15"/>
<circle cx="663.792" cy="44.832" r="1.00391" transform="rotate(-51.9537 663.792 44.832)" fill="#CACBDC" fill-opacity="0.15"/>
<circle cx="740.874" cy="99.0547" r="1.00391" transform="rotate(-51.9537 740.874 99.0547)" fill="#CACBDC" fill-opacity="0.15"/>
<g filter="url(#filter6_d_3004_134684)">
<circle cx="556.517" cy="256.154" r="1.00391" transform="rotate(-161.053 556.517 256.154)" fill="white" fill-opacity="0.41" shape-rendering="crispEdges"/>
</g>
<g filter="url(#filter7_d_3004_134684)">
<circle cx="600.373" cy="265.4" r="1.00391" transform="rotate(-161.053 600.373 265.4)" fill="white" fill-opacity="0.41" shape-rendering="crispEdges"/>
</g>
<g filter="url(#filter8_d_3004_134684)">
<circle cx="374.966" cy="375.318" r="1.00391" transform="rotate(-161.053 374.966 375.318)" fill="white" fill-opacity="0.41" shape-rendering="crispEdges"/>
</g>
<g filter="url(#filter9_d_3004_134684)">
<circle cx="684.361" cy="89.9862" r="1.00391" transform="rotate(-161.053 684.361 89.9862)" fill="white" fill-opacity="0.41" shape-rendering="crispEdges"/>
</g>
<circle cx="887.797" cy="236.57" r="1.95703" transform="rotate(180 887.797 236.57)" fill="#CACBDC" fill-opacity="0.15"/>
<circle cx="914.977" cy="384.102" r="1.95703" transform="rotate(180 914.977 384.102)" fill="#CACBDC" fill-opacity="0.15"/>
<circle cx="911.84" cy="350.816" r="1.95703" transform="rotate(180 911.84 350.816)" fill="#CACBDC" fill-opacity="0.15"/>
<circle cx="883.16" cy="116.012" r="1.95703" transform="rotate(180 883.16 116.012)" fill="#CACBDC" fill-opacity="0.15"/>
<circle cx="838.625" cy="131.859" r="1.95703" transform="rotate(180 838.625 131.859)" fill="#CACBDC" fill-opacity="0.15"/>
<circle cx="868.41" cy="275.363" r="1.95703" transform="rotate(180 868.41 275.363)" fill="#CACBDC" fill-opacity="0.15"/>
<circle cx="867.457" cy="245.102" r="1.00391" transform="rotate(180 867.457 245.102)" fill="#CACBDC" fill-opacity="0.15"/>
<g filter="url(#filter10_d_3004_134684)">
<circle cx="959.204" cy="323.069" r="1.00391" transform="rotate(-133.372 959.204 323.069)" fill="white" fill-opacity="0.41" shape-rendering="crispEdges"/>
</g>
<circle cx="869.465" cy="260.414" r="1.00391" transform="rotate(180 869.465 260.414)" fill="#CACBDC" fill-opacity="0.15"/>
<circle cx="904.493" cy="259.413" r="1.00391" transform="rotate(-102.137 904.493 259.413)" fill="#CACBDC" fill-opacity="0.15"/>
<circle cx="874.25" cy="279.98" r="1.00391" transform="rotate(180 874.25 279.98)" fill="#CACBDC" fill-opacity="0.15"/>
<circle cx="886.602" cy="258.218" r="1.00391" transform="rotate(-102.137 886.602 258.218)" fill="#CACBDC" fill-opacity="0.15"/>
<circle cx="855.184" cy="135.3" r="1.00391" transform="rotate(-102.137 855.184 135.3)" fill="#CACBDC" fill-opacity="0.15"/>
<circle cx="809.95" cy="172.022" r="1.00391" transform="rotate(-102.137 809.95 172.022)" fill="#CACBDC" fill-opacity="0.15"/>
<circle cx="770.806" cy="91.7645" r="1.00391" transform="rotate(-102.137 770.806 91.7645)" fill="#CACBDC" fill-opacity="0.15"/>
<circle cx="861.809" cy="67.2762" r="1.00391" transform="rotate(-102.137 861.809 67.2762)" fill="#CACBDC" fill-opacity="0.15"/>
<g filter="url(#filter11_d_3004_134684)">
<circle cx="864.426" cy="309.475" r="1.00391" transform="rotate(148.764 864.426 309.475)" fill="white" fill-opacity="0.41" shape-rendering="crispEdges"/>
</g>
<g filter="url(#filter12_d_3004_134684)">
<circle cx="899.613" cy="281.713" r="1.00391" transform="rotate(148.764 899.613 281.713)" fill="white" fill-opacity="0.41" shape-rendering="crispEdges"/>
</g>
<g filter="url(#filter13_d_3004_134684)">
<circle cx="818.66" cy="104.877" r="1.00391" transform="rotate(148.764 818.66 104.877)" fill="white" fill-opacity="0.41" shape-rendering="crispEdges"/>
</g>
<g opacity="0.71" filter="url(#filter14_f_3004_134684)">
<ellipse cx="904.885" cy="231.382" rx="430.791" ry="255.351" fill="url(#paint5_linear_3004_134684)"/>
</g>
<g style="mix-blend-mode:overlay" filter="url(#filter15_f_3004_134684)">
<ellipse cx="915.983" cy="181.646" rx="305.819" ry="107.373" transform="rotate(36.2583 915.983 181.646)" fill="#C57AFF" fill-opacity="0.9"/>
</g>
<g filter="url(#filter16_f_3004_134684)">
<circle cx="860.184" cy="193.031" r="77.1328" fill="#D5C9C9"/>
<circle cx="860.184" cy="193.031" r="77.1328" stroke="url(#paint6_linear_3004_134684)" stroke-width="2.58993" stroke-linejoin="bevel"/>
</g>
<g style="mix-blend-mode:overlay" filter="url(#filter17_f_3004_134684)">
<ellipse cx="995.422" cy="309.999" rx="292.389" ry="135.82" transform="rotate(9.48944 995.422 309.999)" fill="#C448F0" fill-opacity="0.9"/>
</g>
<mask id="mask1_3004_134684" style="mask-type:alpha" maskUnits="userSpaceOnUse" x="605" y="101" width="196" height="196">
<circle cx="703.055" cy="199" r="96.9805" fill="#6E2CA5" stroke="url(#paint7_linear_3004_134684)"/>
</mask>
<g mask="url(#mask1_3004_134684)">
<circle cx="703.055" cy="199" r="96.9805" fill="#E4D8ED" stroke="url(#paint8_linear_3004_134684)"/>
<g filter="url(#filter18_f_3004_134684)">
<circle cx="686.861" cy="206.342" r="106.033" fill="#501980"/>
<circle cx="686.861" cy="206.342" r="105.533" stroke="url(#paint9_linear_3004_134684)"/>
</g>
<g filter="url(#filter19_f_3004_134684)">
<circle cx="643.344" cy="229.453" r="104.707" fill="#1C0C30" fill-opacity="0.9"/>
<circle cx="643.344" cy="229.453" r="104.207" stroke="url(#paint10_linear_3004_134684)"/>
</g>
</g>
<mask id="mask2_3004_134684" style="mask-type:alpha" maskUnits="userSpaceOnUse" x="880" y="162" width="140" height="140">
<circle cx="949.561" cy="232.345" r="68.9682" transform="rotate(-100.111 949.561 232.345)" fill="#6E2CA5" stroke="url(#paint11_linear_3004_134684)"/>
</mask>
<g mask="url(#mask2_3004_134684)">
<circle cx="949.561" cy="232.345" r="68.9682" transform="rotate(-100.111 949.561 232.345)" fill="#ECCCF5" stroke="url(#paint12_linear_3004_134684)"/>
<g filter="url(#filter20_f_3004_134684)">
<circle cx="963.136" cy="248.805" r="72.3041" transform="rotate(-100.111 963.136 248.805)" fill="#481D80"/>
<circle cx="963.136" cy="248.805" r="71.8041" transform="rotate(-100.111 963.136 248.805)" stroke="url(#paint13_linear_3004_134684)"/>
</g>
</g>
<g filter="url(#filter21_f_3004_134684)">
<path d="M433.453 1.67969L747.837 110.01L748.023 110.115C757.542 115.519 791.841 134.99 801.495 180.401C812.536 232.334 780.254 266.913 763.424 277.571L439.525 452.509L433.453 1.67969Z" fill="url(#paint14_radial_3004_134684)" fill-opacity="0.1"/>
</g>
<g filter="url(#filter22_f_3004_134684)">
<path d="M1469.95 286.898L967.601 160.181C962.343 158.855 956.938 158.065 951.531 158.478C938.253 159.494 914.587 164.153 895.343 186.13C867.624 217.786 876.585 254.189 884.106 268.07L1062.05 665.52L1469.95 286.898Z" fill="url(#paint15_radial_3004_134684)" fill-opacity="0.1"/>
</g>
<mask id="mask3_3004_134684" style="mask-type:alpha" maskUnits="userSpaceOnUse" x="975" y="-99" width="446" height="446">
<circle cx="222.297" cy="222.297" r="222.297" transform="matrix(-1 0 0 1 1420.38 -98.0898)" fill="#6E2CA5"/>
</mask>
<g mask="url(#mask3_3004_134684)">
<circle cx="222.297" cy="222.297" r="221.797" transform="matrix(-1 0 0 1 1420.38 -98.0898)" fill="#9A38E8" stroke="url(#paint16_linear_3004_134684)"/>
<g filter="url(#filter23_f_3004_134684)">
<circle cx="240.498" cy="240.498" r="240.498" transform="matrix(-1 0 0 1 1479.95 -109.93)" fill="url(#paint17_linear_3004_134684)"/>
</g>
</g>
<circle cx="800.195" cy="66.8594" r="26.3047" stroke="url(#paint18_linear_3004_134684)"/>
<path d="M787.861 151.19C797.887 152.315 805.429 155.984 809.369 162.38C822.333 183.425 791.382 226.025 740.238 257.53C728.158 264.97 716.033 271.127 704.386 275.913" stroke="url(#paint19_linear_3004_134684)"/>
<path d="M787.522 151.191C796.157 150.058 802.115 151.156 804.374 154.823C811.807 166.89 776.373 202.212 725.229 233.716C703.11 247.341 681.676 258.021 663.869 264.778" stroke="url(#paint20_linear_3004_134684)"/>
<path d="M727.665 237.67C705.546 251.295 683.972 261.749 665.934 268.129" stroke="url(#paint21_linear_3004_134684)"/>
<path d="M787.522 151.191C796.376 150.413 802.582 151.914 805.105 156.01C813.407 169.487 778.677 205.952 727.533 237.456C705.414 251.081 683.848 261.547 665.822 267.947" stroke="url(#paint22_linear_3004_134684)"/>
<path d="M660.003 144.109C684.731 132.612 708.548 124.715 727.864 120.981" stroke="url(#paint23_linear_3004_134684)"/>
<path d="M672.078 129.761C727.684 107.041 778.914 103.682 786.505 122.259C788.811 127.904 786.823 134.925 781.375 142.603" stroke="url(#paint24_linear_3004_134684)"/>
</g>
<defs>
<filter id="filter0_f_3004_134684" x="-127.462" y="-351.657" width="1033.46" height="741.564" filterUnits="userSpaceOnUse" color-interpolation-filters="sRGB">
<feFlood flood-opacity="0" result="BackgroundImageFix"/>
<feBlend mode="normal" in="SourceGraphic" in2="BackgroundImageFix" result="shape"/>
<feGaussianBlur stdDeviation="92.4535" result="effect1_foregroundBlur_3004_134684"/>
</filter>
<filter id="filter1_f_3004_134684" x="697.266" y="-41.9492" width="141.07" height="134.5" filterUnits="userSpaceOnUse" color-interpolation-filters="sRGB">
<feFlood flood-opacity="0" result="BackgroundImageFix"/>
<feBlend mode="normal" in="SourceGraphic" in2="BackgroundImageFix" result="shape"/>
<feGaussianBlur stdDeviation="2" result="effect1_foregroundBlur_3004_134684"/>
</filter>
<filter id="filter2_f_3004_134684" x="769.016" y="35.8203" width="62.3594" height="62.3594" filterUnits="userSpaceOnUse" color-interpolation-filters="sRGB">
<feFlood flood-opacity="0" result="BackgroundImageFix"/>
<feBlend mode="normal" in="SourceGraphic" in2="BackgroundImageFix" result="shape"/>
<feGaussianBlur stdDeviation="2" result="effect1_foregroundBlur_3004_134684"/>
</filter>
<filter id="filter3_f_3004_134684" x="746.113" y="20.1016" width="97.8906" height="97.8906" filterUnits="userSpaceOnUse" color-interpolation-filters="sRGB">
<feFlood flood-opacity="0" result="BackgroundImageFix"/>
<feBlend mode="normal" in="SourceGraphic" in2="BackgroundImageFix" result="shape"/>
<feGaussianBlur stdDeviation="10" result="effect1_foregroundBlur_3004_134684"/>
</filter>
<filter id="filter4_f_3004_134684" x="768.32" y="35.9141" width="77.1523" height="77.1523" filterUnits="userSpaceOnUse" color-interpolation-filters="sRGB">
<feFlood flood-opacity="0" result="BackgroundImageFix"/>
<feBlend mode="normal" in="SourceGraphic" in2="BackgroundImageFix" result="shape"/>
<feGaussianBlur stdDeviation="8.5" result="effect1_foregroundBlur_3004_134684"/>
</filter>
<filter id="filter5_d_3004_134684" x="603.762" y="334.652" width="6.00781" height="6.00781" filterUnits="userSpaceOnUse" color-interpolation-filters="sRGB">
<feFlood flood-opacity="0" result="BackgroundImageFix"/>
<feColorMatrix in="SourceAlpha" type="matrix" values="0 0 0 0 0 0 0 0 0 0 0 0 0 0 0 0 0 0 127 0" result="hardAlpha"/>
<feOffset/>
<feGaussianBlur stdDeviation="1"/>
<feComposite in2="hardAlpha" operator="out"/>
<feColorMatrix type="matrix" values="0 0 0 0 1 0 0 0 0 1 0 0 0 0 1 0 0 0 0.52 0"/>
<feBlend mode="normal" in2="BackgroundImageFix" result="effect1_dropShadow_3004_134684"/>
<feBlend mode="normal" in="SourceGraphic" in2="effect1_dropShadow_3004_134684" result="shape"/>
</filter>
<filter id="filter6_d_3004_134684" x="553.512" y="253.148" width="6.00781" height="6.01172" filterUnits="userSpaceOnUse" color-interpolation-filters="sRGB">
<feFlood flood-opacity="0" result="BackgroundImageFix"/>
<feColorMatrix in="SourceAlpha" type="matrix" values="0 0 0 0 0 0 0 0 0 0 0 0 0 0 0 0 0 0 127 0" result="hardAlpha"/>
<feOffset/>
<feGaussianBlur stdDeviation="1"/>
<feComposite in2="hardAlpha" operator="out"/>
<feColorMatrix type="matrix" values="0 0 0 0 1 0 0 0 0 1 0 0 0 0 1 0 0 0 0.52 0"/>
<feBlend mode="normal" in2="BackgroundImageFix" result="effect1_dropShadow_3004_134684"/>
<feBlend mode="normal" in="SourceGraphic" in2="effect1_dropShadow_3004_134684" result="shape"/>
</filter>
<filter id="filter7_d_3004_134684" x="597.367" y="262.395" width="6.00781" height="6.01172" filterUnits="userSpaceOnUse" color-interpolation-filters="sRGB">
<feFlood flood-opacity="0" result="BackgroundImageFix"/>
<feColorMatrix in="SourceAlpha" type="matrix" values="0 0 0 0 0 0 0 0 0 0 0 0 0 0 0 0 0 0 127 0" result="hardAlpha"/>
<feOffset/>
<feGaussianBlur stdDeviation="1"/>
<feComposite in2="hardAlpha" operator="out"/>
<feColorMatrix type="matrix" values="0 0 0 0 1 0 0 0 0 1 0 0 0 0 1 0 0 0 0.52 0"/>
<feBlend mode="normal" in2="BackgroundImageFix" result="effect1_dropShadow_3004_134684"/>
<feBlend mode="normal" in="SourceGraphic" in2="effect1_dropShadow_3004_134684" result="shape"/>
</filter>
<filter id="filter8_d_3004_134684" x="371.961" y="372.312" width="6.00781" height="6.01172" filterUnits="userSpaceOnUse" color-interpolation-filters="sRGB">
<feFlood flood-opacity="0" result="BackgroundImageFix"/>
<feColorMatrix in="SourceAlpha" type="matrix" values="0 0 0 0 0 0 0 0 0 0 0 0 0 0 0 0 0 0 127 0" result="hardAlpha"/>
<feOffset/>
<feGaussianBlur stdDeviation="1"/>
<feComposite in2="hardAlpha" operator="out"/>
<feColorMatrix type="matrix" values="0 0 0 0 1 0 0 0 0 1 0 0 0 0 1 0 0 0 0.52 0"/>
<feBlend mode="normal" in2="BackgroundImageFix" result="effect1_dropShadow_3004_134684"/>
<feBlend mode="normal" in="SourceGraphic" in2="effect1_dropShadow_3004_134684" result="shape"/>
</filter>
<filter id="filter9_d_3004_134684" x="681.355" y="86.9805" width="6.00781" height="6.01172" filterUnits="userSpaceOnUse" color-interpolation-filters="sRGB">
<feFlood flood-opacity="0" result="BackgroundImageFix"/>
<feColorMatrix in="SourceAlpha" type="matrix" values="0 0 0 0 0 0 0 0 0 0 0 0 0 0 0 0 0 0 127 0" result="hardAlpha"/>
<feOffset/>
<feGaussianBlur stdDeviation="1"/>
<feComposite in2="hardAlpha" operator="out"/>
<feColorMatrix type="matrix" values="0 0 0 0 1 0 0 0 0 1 0 0 0 0 1 0 0 0 0.52 0"/>
<feBlend mode="normal" in2="BackgroundImageFix" result="effect1_dropShadow_3004_134684"/>
<feBlend mode="normal" in="SourceGraphic" in2="effect1_dropShadow_3004_134684" result="shape"/>
</filter>
<filter id="filter10_d_3004_134684" x="956.199" y="320.066" width="6.00781" height="6.00781" filterUnits="userSpaceOnUse" color-interpolation-filters="sRGB">
<feFlood flood-opacity="0" result="BackgroundImageFix"/>
<feColorMatrix in="SourceAlpha" type="matrix" values="0 0 0 0 0 0 0 0 0 0 0 0 0 0 0 0 0 0 127 0" result="hardAlpha"/>
<feOffset/>
<feGaussianBlur stdDeviation="1"/>
<feComposite in2="hardAlpha" operator="out"/>
<feColorMatrix type="matrix" values="0 0 0 0 1 0 0 0 0 1 0 0 0 0 1 0 0 0 0.52 0"/>
<feBlend mode="normal" in2="BackgroundImageFix" result="effect1_dropShadow_3004_134684"/>
<feBlend mode="normal" in="SourceGraphic" in2="effect1_dropShadow_3004_134684" result="shape"/>
</filter>
<filter id="filter11_d_3004_134684" x="861.422" y="306.469" width="6.00781" height="6.01172" filterUnits="userSpaceOnUse" color-interpolation-filters="sRGB">
<feFlood flood-opacity="0" result="BackgroundImageFix"/>
<feColorMatrix in="SourceAlpha" type="matrix" values="0 0 0 0 0 0 0 0 0 0 0 0 0 0 0 0 0 0 127 0" result="hardAlpha"/>
<feOffset/>
<feGaussianBlur stdDeviation="1"/>
<feComposite in2="hardAlpha" operator="out"/>
<feColorMatrix type="matrix" values="0 0 0 0 1 0 0 0 0 1 0 0 0 0 1 0 0 0 0.52 0"/>
<feBlend mode="normal" in2="BackgroundImageFix" result="effect1_dropShadow_3004_134684"/>
<feBlend mode="normal" in="SourceGraphic" in2="effect1_dropShadow_3004_134684" result="shape"/>
</filter>
<filter id="filter12_d_3004_134684" x="896.609" y="278.707" width="6.00781" height="6.01172" filterUnits="userSpaceOnUse" color-interpolation-filters="sRGB">
<feFlood flood-opacity="0" result="BackgroundImageFix"/>
<feColorMatrix in="SourceAlpha" type="matrix" values="0 0 0 0 0 0 0 0 0 0 0 0 0 0 0 0 0 0 127 0" result="hardAlpha"/>
<feOffset/>
<feGaussianBlur stdDeviation="1"/>
<feComposite in2="hardAlpha" operator="out"/>
<feColorMatrix type="matrix" values="0 0 0 0 1 0 0 0 0 1 0 0 0 0 1 0 0 0 0.52 0"/>
<feBlend mode="normal" in2="BackgroundImageFix" result="effect1_dropShadow_3004_134684"/>
<feBlend mode="normal" in="SourceGraphic" in2="effect1_dropShadow_3004_134684" result="shape"/>
</filter>
<filter id="filter13_d_3004_134684" x="815.656" y="101.871" width="6.00781" height="6.01172" filterUnits="userSpaceOnUse" color-interpolation-filters="sRGB">
<feFlood flood-opacity="0" result="BackgroundImageFix"/>
<feColorMatrix in="SourceAlpha" type="matrix" values="0 0 0 0 0 0 0 0 0 0 0 0 0 0 0 0 0 0 127 0" result="hardAlpha"/>
<feOffset/>
<feGaussianBlur stdDeviation="1"/>
<feComposite in2="hardAlpha" operator="out"/>
<feColorMatrix type="matrix" values="0 0 0 0 1 0 0 0 0 1 0 0 0 0 1 0 0 0 0.52 0"/>
<feBlend mode="normal" in2="BackgroundImageFix" result="effect1_dropShadow_3004_134684"/>
<feBlend mode="normal" in="SourceGraphic" in2="effect1_dropShadow_3004_134684" result="shape"/>
</filter>
<filter id="filter14_f_3004_134684" x="147.874" y="-350.189" width="1514.02" height="1163.14" filterUnits="userSpaceOnUse" color-interpolation-filters="sRGB">
<feFlood flood-opacity="0" result="BackgroundImageFix"/>
<feBlend mode="normal" in="SourceGraphic" in2="BackgroundImageFix" result="shape"/>
<feGaussianBlur stdDeviation="163.11" result="effect1_foregroundBlur_3004_134684"/>
</filter>
<filter id="filter15_f_3004_134684" x="497.277" y="-182.926" width="837.414" height="729.145" filterUnits="userSpaceOnUse" color-interpolation-filters="sRGB">
<feFlood flood-opacity="0" result="BackgroundImageFix"/>
<feBlend mode="normal" in="SourceGraphic" in2="BackgroundImageFix" result="shape"/>
<feGaussianBlur stdDeviation="82" result="effect1_foregroundBlur_3004_134684"/>
</filter>
<filter id="filter16_f_3004_134684" x="774.714" y="107.562" width="170.939" height="170.939" filterUnits="userSpaceOnUse" color-interpolation-filters="sRGB">
<feFlood flood-opacity="0" result="BackgroundImageFix"/>
<feBlend mode="normal" in="SourceGraphic" in2="BackgroundImageFix" result="shape"/>
<feGaussianBlur stdDeviation="3.52" result="effect1_foregroundBlur_3004_134684"/>
</filter>
<filter id="filter17_f_3004_134684" x="542.152" y="3.58984" width="906.539" height="612.816" filterUnits="userSpaceOnUse" color-interpolation-filters="sRGB">
<feFlood flood-opacity="0" result="BackgroundImageFix"/>
<feBlend mode="normal" in="SourceGraphic" in2="BackgroundImageFix" result="shape"/>
<feGaussianBlur stdDeviation="82" result="effect1_foregroundBlur_3004_134684"/>
</filter>
<filter id="filter18_f_3004_134684" x="560.828" y="80.3086" width="252.066" height="252.066" filterUnits="userSpaceOnUse" color-interpolation-filters="sRGB">
<feFlood flood-opacity="0" result="BackgroundImageFix"/>
<feBlend mode="normal" in="SourceGraphic" in2="BackgroundImageFix" result="shape"/>
<feGaussianBlur stdDeviation="10" result="effect1_foregroundBlur_3004_134684"/>
</filter>
<filter id="filter19_f_3004_134684" x="486.637" y="72.7461" width="313.414" height="313.414" filterUnits="userSpaceOnUse" color-interpolation-filters="sRGB">
<feFlood flood-opacity="0" result="BackgroundImageFix"/>
<feBlend mode="normal" in="SourceGraphic" in2="BackgroundImageFix" result="shape"/>
<feGaussianBlur stdDeviation="26" result="effect1_foregroundBlur_3004_134684"/>
</filter>
<filter id="filter20_f_3004_134684" x="863.82" y="149.488" width="198.633" height="198.633" filterUnits="userSpaceOnUse" color-interpolation-filters="sRGB">
<feFlood flood-opacity="0" result="BackgroundImageFix"/>
<feBlend mode="normal" in="SourceGraphic" in2="BackgroundImageFix" result="shape"/>
<feGaussianBlur stdDeviation="13.5" result="effect1_foregroundBlur_3004_134684"/>
</filter>
<filter id="filter21_f_3004_134684" x="420.453" y="-11.3203" width="396.293" height="476.828" filterUnits="userSpaceOnUse" color-interpolation-filters="sRGB">
<feFlood flood-opacity="0" result="BackgroundImageFix"/>
<feBlend mode="normal" in="SourceGraphic" in2="BackgroundImageFix" result="shape"/>
<feGaussianBlur stdDeviation="6.5" result="effect1_foregroundBlur_3004_134684"/>
</filter>
<filter id="filter22_f_3004_134684" x="867.496" y="149.367" width="611.449" height="525.152" filterUnits="userSpaceOnUse" color-interpolation-filters="sRGB">
<feFlood flood-opacity="0" result="BackgroundImageFix"/>
<feBlend mode="normal" in="SourceGraphic" in2="BackgroundImageFix" result="shape"/>
<feGaussianBlur stdDeviation="4.5" result="effect1_foregroundBlur_3004_134684"/>
</filter>
<filter id="filter23_f_3004_134684" x="922.957" y="-185.93" width="632.996" height="632.996" filterUnits="userSpaceOnUse" color-interpolation-filters="sRGB">
<feFlood flood-opacity="0" result="BackgroundImageFix"/>
<feBlend mode="normal" in="SourceGraphic" in2="BackgroundImageFix" result="shape"/>
<feGaussianBlur stdDeviation="38" result="effect1_foregroundBlur_3004_134684"/>
</filter>
<radialGradient id="paint0_radial_3004_134684" cx="0" cy="0" r="1" gradientUnits="userSpaceOnUse" gradientTransform="translate(797.768 71.1658) rotate(-91.647) scale(58.743 67.9988)">
<stop/>
<stop offset="1" stop-color="#130059" stop-opacity="0.1"/>
</radialGradient>
<linearGradient id="paint1_linear_3004_134684" x1="800.195" y1="39.8203" x2="800.195" y2="94.1797" gradientUnits="userSpaceOnUse">
<stop stop-color="white"/>
<stop offset="1" stop-color="white" stop-opacity="0"/>
</linearGradient>
<linearGradient id="paint2_linear_3004_134684" x1="800.195" y1="39.8203" x2="800.195" y2="94.1797" gradientUnits="userSpaceOnUse">
<stop stop-color="white"/>
<stop offset="1" stop-color="white" stop-opacity="0"/>
</linearGradient>
<linearGradient id="paint3_linear_3004_134684" x1="795.059" y1="40.1016" x2="795.059" y2="97.993" gradientUnits="userSpaceOnUse">
<stop stop-color="white"/>
<stop offset="1" stop-color="white" stop-opacity="0"/>
</linearGradient>
<linearGradient id="paint4_linear_3004_134684" x1="806.896" y1="52.9141" x2="806.896" y2="96.065" gradientUnits="userSpaceOnUse">
<stop stop-color="white"/>
<stop offset="1" stop-color="white" stop-opacity="0"/>
</linearGradient>
<linearGradient id="paint5_linear_3004_134684" x1="904.885" y1="-23.9688" x2="904.885" y2="486.733" gradientUnits="userSpaceOnUse">
<stop stop-color="#6F13A4"/>
<stop offset="1" stop-color="#6F13A4" stop-opacity="0"/>
</linearGradient>
<linearGradient id="paint6_linear_3004_134684" x1="810.413" y1="129.956" x2="887.972" y2="168.84" gradientUnits="userSpaceOnUse">
<stop stop-color="white"/>
<stop offset="1" stop-color="#4B4B4B" stop-opacity="0"/>
</linearGradient>
<linearGradient id="paint7_linear_3004_134684" x1="703.055" y1="101.52" x2="703.055" y2="296.48" gradientUnits="userSpaceOnUse">
<stop stop-color="white"/>
<stop offset="1" stop-color="white" stop-opacity="0.71"/>
</linearGradient>
<linearGradient id="paint8_linear_3004_134684" x1="703.055" y1="101.52" x2="703.055" y2="296.48" gradientUnits="userSpaceOnUse">
<stop stop-color="white"/>
<stop offset="1" stop-color="white" stop-opacity="0.71"/>
</linearGradient>
<linearGradient id="paint9_linear_3004_134684" x1="686.861" y1="100.309" x2="686.861" y2="312.375" gradientUnits="userSpaceOnUse">
<stop stop-color="white"/>
<stop offset="1" stop-color="white" stop-opacity="0.71"/>
</linearGradient>
<linearGradient id="paint10_linear_3004_134684" x1="643.344" y1="124.746" x2="643.344" y2="334.16" gradientUnits="userSpaceOnUse">
<stop stop-color="white"/>
<stop offset="1" stop-color="white" stop-opacity="0.71"/>
</linearGradient>
<linearGradient id="paint11_linear_3004_134684" x1="949.561" y1="162.876" x2="949.561" y2="301.813" gradientUnits="userSpaceOnUse">
<stop stop-color="white"/>
<stop offset="1" stop-color="white" stop-opacity="0"/>
</linearGradient>
<linearGradient id="paint12_linear_3004_134684" x1="1015.68" y1="198.936" x2="913.303" y2="286.352" gradientUnits="userSpaceOnUse">
<stop stop-color="#E4C8EB"/>
<stop offset="1" stop-color="white" stop-opacity="0"/>
</linearGradient>
<linearGradient id="paint13_linear_3004_134684" x1="963.136" y1="176.501" x2="963.136" y2="321.109" gradientUnits="userSpaceOnUse">
<stop stop-color="white"/>
<stop offset="1" stop-color="white" stop-opacity="0"/>
</linearGradient>
<radialGradient id="paint14_radial_3004_134684" cx="0" cy="0" r="1" gradientUnits="userSpaceOnUse" gradientTransform="translate(761.863 163.059) rotate(168.926) scale(256.897 292.703)">
<stop stop-color="#FAE9FF"/>
<stop offset="1" stop-color="#2F04CD" stop-opacity="0"/>
</radialGradient>
<radialGradient id="paint15_radial_3004_134684" cx="0" cy="0" r="1" gradientUnits="userSpaceOnUse" gradientTransform="translate(934.126 240.218) rotate(30.5864) scale(280.355 234.36)">
<stop stop-color="#F1C7FF"/>
<stop offset="1" stop-color="#050B0F"/>
</radialGradient>
<linearGradient id="paint16_linear_3004_134684" x1="404.698" y1="77.3095" x2="334.491" y2="118.736" gradientUnits="userSpaceOnUse">
<stop stop-color="#A259FF"/>
<stop offset="1" stop-color="white" stop-opacity="0"/>
</linearGradient>
<linearGradient id="paint17_linear_3004_134684" x1="291.29" y1="-45.5655" x2="87.5796" y2="307.596" gradientUnits="userSpaceOnUse">
<stop stop-color="#1C0B39"/>
<stop offset="1" stop-color="#030A0C"/>
</linearGradient>
<linearGradient id="paint18_linear_3004_134684" x1="816.465" y1="95.7876" x2="803.422" y2="73.1342" gradientUnits="userSpaceOnUse">
<stop stop-color="#E8CBFF"/>
<stop offset="1" stop-color="#8442B8" stop-opacity="0"/>
</linearGradient>
<linearGradient id="paint19_linear_3004_134684" x1="795.668" y1="170.317" x2="742.13" y2="246.249" gradientUnits="userSpaceOnUse">
<stop stop-color="white"/>
<stop offset="1" stop-color="#D9D9D9" stop-opacity="0"/>
</linearGradient>
<linearGradient id="paint20_linear_3004_134684" x1="761.231" y1="163.001" x2="685.462" y2="241.677" gradientUnits="userSpaceOnUse">
<stop stop-color="white"/>
<stop offset="1" stop-color="#D9D9D9" stop-opacity="0"/>
</linearGradient>
<linearGradient id="paint21_linear_3004_134684" x1="714.04" y1="239.71" x2="680.064" y2="254.872" gradientUnits="userSpaceOnUse">
<stop stop-color="white" stop-opacity="0"/>
<stop offset="0.369792" stop-color="white" stop-opacity="0.51"/>
<stop offset="1" stop-color="#D9D9D9" stop-opacity="0"/>
</linearGradient>
<linearGradient id="paint22_linear_3004_134684" x1="788.135" y1="138.75" x2="753.174" y2="192.065" gradientUnits="userSpaceOnUse">
<stop stop-color="white"/>
<stop offset="1" stop-color="#D9D9D9" stop-opacity="0"/>
</linearGradient>
<linearGradient id="paint23_linear_3004_134684" x1="728.012" y1="124.141" x2="672.834" y2="137.845" gradientUnits="userSpaceOnUse">
<stop stop-color="white" stop-opacity="0"/>
<stop offset="0.364583" stop-color="white" stop-opacity="0.65"/>
<stop offset="1" stop-color="#D9D9D9" stop-opacity="0"/>
</linearGradient>
<linearGradient id="paint24_linear_3004_134684" x1="786.474" y1="130.056" x2="672.607" y2="125.274" gradientUnits="userSpaceOnUse">
<stop stop-color="white"/>
<stop offset="1" stop-color="#D9D9D9" stop-opacity="0"/>
</linearGradient>
<clipPath id="clip0_3004_134684">
<rect width="1368" height="398" fill="white" transform="translate(0.640625)"/>
</clipPath>
</defs>
</svg>
