<svg width="1371" height="400" viewBox="0 0 1371 400" fill="none" xmlns="http://www.w3.org/2000/svg">
<g clip-path="url(#clip0_2742_179835)">
<rect x="1.25781" y="1" width="1368" height="398" fill="#030A0C"/>
<g opacity="0.3" filter="url(#filter0_f_2742_179835)">
<path d="M277.117 197.556C327.866 236.357 430.355 132.085 475.256 75.0996C567.892 -32.6893 736.134 98.6911 720.718 -14.5141C705.302 -127.719 577.452 -82.0567 433.703 -150.868C289.954 -219.679 333.326 -32.8798 289.174 63.0248C245.021 158.929 77.0256 85.5351 59.3315 145.979C41.6375 206.424 213.682 149.055 277.117 197.556Z" fill="#1C4C5A"/>
</g>
<g style="mix-blend-mode:soft-light" filter="url(#filter1_f_2742_179835)">
<path d="M834.953 -36.9492L827.816 64.7828L827.8 64.8462C826.955 68.0952 823.909 79.8012 811.223 86.266C796.715 93.6591 783.909 86.8405 779.415 82.7009L701.881 0.635253L834.953 -36.9492Z" fill="url(#paint0_radial_2742_179835)"/>
</g>
<g filter="url(#filter2_f_2742_179835)">
<mask id="mask0_2742_179835" style="mask-type:alpha" maskUnits="userSpaceOnUse" x="773" y="40" width="55" height="56">
<circle cx="800.812" cy="68" r="26.6797" fill="#6E2CA5" stroke="url(#paint1_linear_2742_179835)"/>
</mask>
<g mask="url(#mask0_2742_179835)">
<circle cx="800.812" cy="68" r="26.6797" fill="#9E92A7" stroke="url(#paint2_linear_2742_179835)"/>
<g filter="url(#filter3_f_2742_179835)">
<circle cx="795.676" cy="70.0473" r="28.9457" fill="#501980"/>
<circle cx="795.676" cy="70.0473" r="28.4457" stroke="url(#paint3_linear_2742_179835)"/>
</g>
<g filter="url(#filter4_f_2742_179835)">
<circle cx="807.513" cy="75.4895" r="21.5755" fill="white"/>
<circle cx="807.513" cy="75.4895" r="21.0755" stroke="url(#paint4_linear_2742_179835)"/>
</g>
</g>
</g>
<circle cx="628.098" cy="228.419" r="1.95703" transform="rotate(-129.817 628.098 228.419)" fill="#CACBDC" fill-opacity="0.15"/>
<circle cx="532.184" cy="343.767" r="1.95703" transform="rotate(-129.817 532.184 343.767)" fill="#CACBDC" fill-opacity="0.15"/>
<circle cx="555.742" cy="320.044" r="1.95703" transform="rotate(-129.817 555.742 320.044)" fill="#CACBDC" fill-opacity="0.15"/>
<circle cx="361.473" cy="375.455" r="1.95703" transform="rotate(-129.817 361.473 375.455)" fill="#CACBDC" fill-opacity="0.15"/>
<circle cx="717.73" cy="147.658" r="1.95703" transform="rotate(-129.817 717.73 147.658)" fill="#CACBDC" fill-opacity="0.15"/>
<circle cx="677.039" cy="123.599" r="1.95703" transform="rotate(-129.817 677.039 123.599)" fill="#CACBDC" fill-opacity="0.15"/>
<circle cx="585.887" cy="238.373" r="1.95703" transform="rotate(-129.817 585.887 238.373)" fill="#CACBDC" fill-opacity="0.15"/>
<circle cx="608.519" cy="218.258" r="1.00391" transform="rotate(-129.817 608.519 218.258)" fill="#CACBDC" fill-opacity="0.15"/>
<g filter="url(#filter5_d_2742_179835)">
<circle cx="607.381" cy="338.657" r="1.00391" transform="rotate(-83.1895 607.381 338.657)" fill="white" fill-opacity="0.41" shape-rendering="crispEdges"/>
</g>
<circle cx="598.046" cy="229.609" r="1.00391" transform="rotate(-129.817 598.046 229.609)" fill="#CACBDC" fill-opacity="0.15"/>
<circle cx="621.245" cy="255.871" r="1.00391" transform="rotate(-51.9537 621.245 255.871)" fill="#CACBDC" fill-opacity="0.15"/>
<circle cx="586.081" cy="245.813" r="1.00391" transform="rotate(-129.817 586.081 245.813)" fill="#CACBDC" fill-opacity="0.15"/>
<circle cx="610.706" cy="241.363" r="1.00391" transform="rotate(-51.9537 610.706 241.363)" fill="#CACBDC" fill-opacity="0.15"/>
<circle cx="684.999" cy="138.52" r="1.00391" transform="rotate(-51.9537 684.999 138.52)" fill="#CACBDC" fill-opacity="0.15"/>
<circle cx="627.827" cy="127.293" r="1.00391" transform="rotate(-51.9537 627.827 127.293)" fill="#CACBDC" fill-opacity="0.15"/>
<circle cx="664.409" cy="45.832" r="1.00391" transform="rotate(-51.9537 664.409 45.832)" fill="#CACBDC" fill-opacity="0.15"/>
<circle cx="741.491" cy="100.055" r="1.00391" transform="rotate(-51.9537 741.491 100.055)" fill="#CACBDC" fill-opacity="0.15"/>
<g filter="url(#filter6_d_2742_179835)">
<circle cx="557.134" cy="257.154" r="1.00391" transform="rotate(-161.053 557.134 257.154)" fill="white" fill-opacity="0.41" shape-rendering="crispEdges"/>
</g>
<g filter="url(#filter7_d_2742_179835)">
<circle cx="600.99" cy="266.4" r="1.00391" transform="rotate(-161.053 600.99 266.4)" fill="white" fill-opacity="0.41" shape-rendering="crispEdges"/>
</g>
<g filter="url(#filter8_d_2742_179835)">
<circle cx="375.583" cy="376.318" r="1.00391" transform="rotate(-161.053 375.583 376.318)" fill="white" fill-opacity="0.41" shape-rendering="crispEdges"/>
</g>
<g filter="url(#filter9_d_2742_179835)">
<circle cx="684.978" cy="90.9862" r="1.00391" transform="rotate(-161.053 684.978 90.9862)" fill="white" fill-opacity="0.41" shape-rendering="crispEdges"/>
</g>
<circle cx="888.414" cy="237.57" r="1.95703" transform="rotate(180 888.414 237.57)" fill="#CACBDC" fill-opacity="0.15"/>
<circle cx="915.594" cy="385.102" r="1.95703" transform="rotate(180 915.594 385.102)" fill="#CACBDC" fill-opacity="0.15"/>
<circle cx="912.457" cy="351.816" r="1.95703" transform="rotate(180 912.457 351.816)" fill="#CACBDC" fill-opacity="0.15"/>
<circle cx="883.777" cy="117.012" r="1.95703" transform="rotate(180 883.777 117.012)" fill="#CACBDC" fill-opacity="0.15"/>
<circle cx="839.242" cy="132.859" r="1.95703" transform="rotate(180 839.242 132.859)" fill="#CACBDC" fill-opacity="0.15"/>
<circle cx="869.027" cy="276.363" r="1.95703" transform="rotate(180 869.027 276.363)" fill="#CACBDC" fill-opacity="0.15"/>
<circle cx="868.074" cy="246.102" r="1.00391" transform="rotate(180 868.074 246.102)" fill="#CACBDC" fill-opacity="0.15"/>
<g filter="url(#filter10_d_2742_179835)">
<circle cx="959.822" cy="324.069" r="1.00391" transform="rotate(-133.372 959.822 324.069)" fill="white" fill-opacity="0.41" shape-rendering="crispEdges"/>
</g>
<circle cx="870.082" cy="261.414" r="1.00391" transform="rotate(180 870.082 261.414)" fill="#CACBDC" fill-opacity="0.15"/>
<circle cx="905.11" cy="260.413" r="1.00391" transform="rotate(-102.137 905.11 260.413)" fill="#CACBDC" fill-opacity="0.15"/>
<circle cx="874.867" cy="280.98" r="1.00391" transform="rotate(180 874.867 280.98)" fill="#CACBDC" fill-opacity="0.15"/>
<circle cx="887.22" cy="259.218" r="1.00391" transform="rotate(-102.137 887.22 259.218)" fill="#CACBDC" fill-opacity="0.15"/>
<circle cx="855.802" cy="136.3" r="1.00391" transform="rotate(-102.137 855.802 136.3)" fill="#CACBDC" fill-opacity="0.15"/>
<circle cx="810.567" cy="173.022" r="1.00391" transform="rotate(-102.137 810.567 173.022)" fill="#CACBDC" fill-opacity="0.15"/>
<circle cx="771.423" cy="92.7645" r="1.00391" transform="rotate(-102.137 771.423 92.7645)" fill="#CACBDC" fill-opacity="0.15"/>
<circle cx="862.427" cy="68.2762" r="1.00391" transform="rotate(-102.137 862.427 68.2762)" fill="#CACBDC" fill-opacity="0.15"/>
<g filter="url(#filter11_d_2742_179835)">
<circle cx="865.043" cy="310.475" r="1.00391" transform="rotate(148.764 865.043 310.475)" fill="white" fill-opacity="0.41" shape-rendering="crispEdges"/>
</g>
<g filter="url(#filter12_d_2742_179835)">
<circle cx="900.23" cy="282.713" r="1.00391" transform="rotate(148.764 900.23 282.713)" fill="white" fill-opacity="0.41" shape-rendering="crispEdges"/>
</g>
<g filter="url(#filter13_d_2742_179835)">
<circle cx="819.277" cy="105.877" r="1.00391" transform="rotate(148.764 819.277 105.877)" fill="white" fill-opacity="0.41" shape-rendering="crispEdges"/>
</g>
<g opacity="0.71" filter="url(#filter14_f_2742_179835)">
<ellipse cx="905.502" cy="232.382" rx="430.791" ry="255.351" fill="url(#paint5_linear_2742_179835)"/>
</g>
<g style="mix-blend-mode:overlay" filter="url(#filter15_f_2742_179835)">
<ellipse cx="916.6" cy="182.646" rx="305.819" ry="107.373" transform="rotate(36.2583 916.6 182.646)" fill="#C57AFF" fill-opacity="0.9"/>
</g>
<g filter="url(#filter16_f_2742_179835)">
<circle cx="860.801" cy="194.031" r="77.1328" fill="#D5C9C9"/>
<circle cx="860.801" cy="194.031" r="77.1328" stroke="url(#paint6_linear_2742_179835)" stroke-width="2.58993" stroke-linejoin="bevel"/>
</g>
<g style="mix-blend-mode:overlay" filter="url(#filter17_f_2742_179835)">
<ellipse cx="996.039" cy="310.999" rx="292.389" ry="135.82" transform="rotate(9.48944 996.039 310.999)" fill="#C448F0" fill-opacity="0.9"/>
</g>
<mask id="mask1_2742_179835" style="mask-type:alpha" maskUnits="userSpaceOnUse" x="606" y="102" width="196" height="196">
<circle cx="703.672" cy="200" r="96.9805" fill="#6E2CA5" stroke="url(#paint7_linear_2742_179835)"/>
</mask>
<g mask="url(#mask1_2742_179835)">
<circle cx="703.672" cy="200" r="96.9805" fill="#E4D8ED" stroke="url(#paint8_linear_2742_179835)"/>
<g filter="url(#filter18_f_2742_179835)">
<circle cx="687.479" cy="207.342" r="106.033" fill="#501980"/>
<circle cx="687.479" cy="207.342" r="105.533" stroke="url(#paint9_linear_2742_179835)"/>
</g>
<g filter="url(#filter19_f_2742_179835)">
<circle cx="643.961" cy="230.453" r="104.707" fill="#1C0C30" fill-opacity="0.9"/>
<circle cx="643.961" cy="230.453" r="104.207" stroke="url(#paint10_linear_2742_179835)"/>
</g>
</g>
<mask id="mask2_2742_179835" style="mask-type:alpha" maskUnits="userSpaceOnUse" x="880" y="163" width="140" height="140">
<circle cx="950.178" cy="233.345" r="68.9682" transform="rotate(-100.111 950.178 233.345)" fill="#6E2CA5" stroke="url(#paint11_linear_2742_179835)"/>
</mask>
<g mask="url(#mask2_2742_179835)">
<circle cx="950.178" cy="233.345" r="68.9682" transform="rotate(-100.111 950.178 233.345)" fill="#ECCCF5" stroke="url(#paint12_linear_2742_179835)"/>
<g filter="url(#filter20_f_2742_179835)">
<circle cx="963.753" cy="249.805" r="72.3041" transform="rotate(-100.111 963.753 249.805)" fill="#481D80"/>
<circle cx="963.753" cy="249.805" r="71.8041" transform="rotate(-100.111 963.753 249.805)" stroke="url(#paint13_linear_2742_179835)"/>
</g>
</g>
<g filter="url(#filter21_f_2742_179835)">
<path d="M434.07 2.67969L748.454 111.01L748.64 111.115C758.16 116.519 792.458 135.99 802.113 181.401C813.154 233.334 780.871 267.913 764.042 278.571L440.143 453.509L434.07 2.67969Z" fill="url(#paint14_radial_2742_179835)" fill-opacity="0.1"/>
</g>
<g filter="url(#filter22_f_2742_179835)">
<path d="M1470.56 287.898L968.218 161.181C962.96 159.855 957.555 159.065 952.149 159.478C938.871 160.494 915.204 165.153 895.961 187.13C868.241 218.786 877.202 255.189 884.723 269.07L1062.66 666.52L1470.56 287.898Z" fill="url(#paint15_radial_2742_179835)" fill-opacity="0.1"/>
</g>
<mask id="mask3_2742_179835" style="mask-type:alpha" maskUnits="userSpaceOnUse" x="976" y="-98" width="445" height="446">
<circle cx="222.297" cy="222.297" r="222.297" transform="matrix(-1 0 0 1 1421 -97.0898)" fill="#6E2CA5"/>
</mask>
<g mask="url(#mask3_2742_179835)">
<circle cx="222.297" cy="222.297" r="221.797" transform="matrix(-1 0 0 1 1421 -97.0898)" fill="#9A38E8" stroke="url(#paint16_linear_2742_179835)"/>
<g filter="url(#filter23_f_2742_179835)">
<circle cx="240.498" cy="240.498" r="240.498" transform="matrix(-1 0 0 1 1480.57 -108.93)" fill="url(#paint17_linear_2742_179835)"/>
</g>
</g>
<circle cx="800.812" cy="67.8594" r="26.3047" stroke="url(#paint18_linear_2742_179835)"/>
<path d="M788.479 152.19C798.505 153.315 806.046 156.984 809.986 163.38C822.95 184.425 791.999 227.025 740.855 258.53C728.775 265.97 716.65 272.127 705.003 276.913" stroke="url(#paint19_linear_2742_179835)"/>
<path d="M788.139 152.191C796.774 151.058 802.732 152.156 804.991 155.823C812.425 167.89 776.99 203.212 725.846 234.716C703.727 248.341 682.293 259.021 664.486 265.778" stroke="url(#paint20_linear_2742_179835)"/>
<path d="M728.282 238.67C706.163 252.295 684.59 262.749 666.551 269.129" stroke="url(#paint21_linear_2742_179835)"/>
<path d="M788.139 152.191C796.993 151.413 803.199 152.914 805.722 157.01C814.024 170.487 779.294 206.952 728.15 238.456C706.031 252.081 684.465 262.547 666.439 268.947" stroke="url(#paint22_linear_2742_179835)"/>
<path d="M660.62 145.109C685.348 133.612 709.165 125.715 728.481 121.981" stroke="url(#paint23_linear_2742_179835)"/>
<path d="M672.695 130.761C728.301 108.041 779.532 104.682 787.122 123.259C789.429 128.904 787.44 135.925 781.992 143.603" stroke="url(#paint24_linear_2742_179835)"/>
</g>
<rect x="0.757812" y="0.5" width="1369" height="399" stroke="#071517"/>
<defs>
<filter id="filter0_f_2742_179835" x="-126.844" y="-350.657" width="1033.46" height="741.564" filterUnits="userSpaceOnUse" color-interpolation-filters="sRGB">
<feFlood flood-opacity="0" result="BackgroundImageFix"/>
<feBlend mode="normal" in="SourceGraphic" in2="BackgroundImageFix" result="shape"/>
<feGaussianBlur stdDeviation="92.4535" result="effect1_foregroundBlur_2742_179835"/>
</filter>
<filter id="filter1_f_2742_179835" x="697.883" y="-40.9492" width="141.07" height="134.5" filterUnits="userSpaceOnUse" color-interpolation-filters="sRGB">
<feFlood flood-opacity="0" result="BackgroundImageFix"/>
<feBlend mode="normal" in="SourceGraphic" in2="BackgroundImageFix" result="shape"/>
<feGaussianBlur stdDeviation="2" result="effect1_foregroundBlur_2742_179835"/>
</filter>
<filter id="filter2_f_2742_179835" x="769.633" y="36.8203" width="62.3594" height="62.3594" filterUnits="userSpaceOnUse" color-interpolation-filters="sRGB">
<feFlood flood-opacity="0" result="BackgroundImageFix"/>
<feBlend mode="normal" in="SourceGraphic" in2="BackgroundImageFix" result="shape"/>
<feGaussianBlur stdDeviation="2" result="effect1_foregroundBlur_2742_179835"/>
</filter>
<filter id="filter3_f_2742_179835" x="746.73" y="21.1016" width="97.8906" height="97.8906" filterUnits="userSpaceOnUse" color-interpolation-filters="sRGB">
<feFlood flood-opacity="0" result="BackgroundImageFix"/>
<feBlend mode="normal" in="SourceGraphic" in2="BackgroundImageFix" result="shape"/>
<feGaussianBlur stdDeviation="10" result="effect1_foregroundBlur_2742_179835"/>
</filter>
<filter id="filter4_f_2742_179835" x="768.938" y="36.9141" width="77.1523" height="77.1523" filterUnits="userSpaceOnUse" color-interpolation-filters="sRGB">
<feFlood flood-opacity="0" result="BackgroundImageFix"/>
<feBlend mode="normal" in="SourceGraphic" in2="BackgroundImageFix" result="shape"/>
<feGaussianBlur stdDeviation="8.5" result="effect1_foregroundBlur_2742_179835"/>
</filter>
<filter id="filter5_d_2742_179835" x="604.379" y="335.652" width="6.00781" height="6.00781" filterUnits="userSpaceOnUse" color-interpolation-filters="sRGB">
<feFlood flood-opacity="0" result="BackgroundImageFix"/>
<feColorMatrix in="SourceAlpha" type="matrix" values="0 0 0 0 0 0 0 0 0 0 0 0 0 0 0 0 0 0 127 0" result="hardAlpha"/>
<feOffset/>
<feGaussianBlur stdDeviation="1"/>
<feComposite in2="hardAlpha" operator="out"/>
<feColorMatrix type="matrix" values="0 0 0 0 1 0 0 0 0 1 0 0 0 0 1 0 0 0 0.52 0"/>
<feBlend mode="normal" in2="BackgroundImageFix" result="effect1_dropShadow_2742_179835"/>
<feBlend mode="normal" in="SourceGraphic" in2="effect1_dropShadow_2742_179835" result="shape"/>
</filter>
<filter id="filter6_d_2742_179835" x="554.129" y="254.148" width="6.00781" height="6.01172" filterUnits="userSpaceOnUse" color-interpolation-filters="sRGB">
<feFlood flood-opacity="0" result="BackgroundImageFix"/>
<feColorMatrix in="SourceAlpha" type="matrix" values="0 0 0 0 0 0 0 0 0 0 0 0 0 0 0 0 0 0 127 0" result="hardAlpha"/>
<feOffset/>
<feGaussianBlur stdDeviation="1"/>
<feComposite in2="hardAlpha" operator="out"/>
<feColorMatrix type="matrix" values="0 0 0 0 1 0 0 0 0 1 0 0 0 0 1 0 0 0 0.52 0"/>
<feBlend mode="normal" in2="BackgroundImageFix" result="effect1_dropShadow_2742_179835"/>
<feBlend mode="normal" in="SourceGraphic" in2="effect1_dropShadow_2742_179835" result="shape"/>
</filter>
<filter id="filter7_d_2742_179835" x="597.984" y="263.395" width="6.00781" height="6.01172" filterUnits="userSpaceOnUse" color-interpolation-filters="sRGB">
<feFlood flood-opacity="0" result="BackgroundImageFix"/>
<feColorMatrix in="SourceAlpha" type="matrix" values="0 0 0 0 0 0 0 0 0 0 0 0 0 0 0 0 0 0 127 0" result="hardAlpha"/>
<feOffset/>
<feGaussianBlur stdDeviation="1"/>
<feComposite in2="hardAlpha" operator="out"/>
<feColorMatrix type="matrix" values="0 0 0 0 1 0 0 0 0 1 0 0 0 0 1 0 0 0 0.52 0"/>
<feBlend mode="normal" in2="BackgroundImageFix" result="effect1_dropShadow_2742_179835"/>
<feBlend mode="normal" in="SourceGraphic" in2="effect1_dropShadow_2742_179835" result="shape"/>
</filter>
<filter id="filter8_d_2742_179835" x="372.578" y="373.312" width="6.00781" height="6.01172" filterUnits="userSpaceOnUse" color-interpolation-filters="sRGB">
<feFlood flood-opacity="0" result="BackgroundImageFix"/>
<feColorMatrix in="SourceAlpha" type="matrix" values="0 0 0 0 0 0 0 0 0 0 0 0 0 0 0 0 0 0 127 0" result="hardAlpha"/>
<feOffset/>
<feGaussianBlur stdDeviation="1"/>
<feComposite in2="hardAlpha" operator="out"/>
<feColorMatrix type="matrix" values="0 0 0 0 1 0 0 0 0 1 0 0 0 0 1 0 0 0 0.52 0"/>
<feBlend mode="normal" in2="BackgroundImageFix" result="effect1_dropShadow_2742_179835"/>
<feBlend mode="normal" in="SourceGraphic" in2="effect1_dropShadow_2742_179835" result="shape"/>
</filter>
<filter id="filter9_d_2742_179835" x="681.973" y="87.9805" width="6.00781" height="6.01172" filterUnits="userSpaceOnUse" color-interpolation-filters="sRGB">
<feFlood flood-opacity="0" result="BackgroundImageFix"/>
<feColorMatrix in="SourceAlpha" type="matrix" values="0 0 0 0 0 0 0 0 0 0 0 0 0 0 0 0 0 0 127 0" result="hardAlpha"/>
<feOffset/>
<feGaussianBlur stdDeviation="1"/>
<feComposite in2="hardAlpha" operator="out"/>
<feColorMatrix type="matrix" values="0 0 0 0 1 0 0 0 0 1 0 0 0 0 1 0 0 0 0.52 0"/>
<feBlend mode="normal" in2="BackgroundImageFix" result="effect1_dropShadow_2742_179835"/>
<feBlend mode="normal" in="SourceGraphic" in2="effect1_dropShadow_2742_179835" result="shape"/>
</filter>
<filter id="filter10_d_2742_179835" x="956.816" y="321.066" width="6.00781" height="6.00781" filterUnits="userSpaceOnUse" color-interpolation-filters="sRGB">
<feFlood flood-opacity="0" result="BackgroundImageFix"/>
<feColorMatrix in="SourceAlpha" type="matrix" values="0 0 0 0 0 0 0 0 0 0 0 0 0 0 0 0 0 0 127 0" result="hardAlpha"/>
<feOffset/>
<feGaussianBlur stdDeviation="1"/>
<feComposite in2="hardAlpha" operator="out"/>
<feColorMatrix type="matrix" values="0 0 0 0 1 0 0 0 0 1 0 0 0 0 1 0 0 0 0.52 0"/>
<feBlend mode="normal" in2="BackgroundImageFix" result="effect1_dropShadow_2742_179835"/>
<feBlend mode="normal" in="SourceGraphic" in2="effect1_dropShadow_2742_179835" result="shape"/>
</filter>
<filter id="filter11_d_2742_179835" x="862.039" y="307.469" width="6.00781" height="6.01172" filterUnits="userSpaceOnUse" color-interpolation-filters="sRGB">
<feFlood flood-opacity="0" result="BackgroundImageFix"/>
<feColorMatrix in="SourceAlpha" type="matrix" values="0 0 0 0 0 0 0 0 0 0 0 0 0 0 0 0 0 0 127 0" result="hardAlpha"/>
<feOffset/>
<feGaussianBlur stdDeviation="1"/>
<feComposite in2="hardAlpha" operator="out"/>
<feColorMatrix type="matrix" values="0 0 0 0 1 0 0 0 0 1 0 0 0 0 1 0 0 0 0.52 0"/>
<feBlend mode="normal" in2="BackgroundImageFix" result="effect1_dropShadow_2742_179835"/>
<feBlend mode="normal" in="SourceGraphic" in2="effect1_dropShadow_2742_179835" result="shape"/>
</filter>
<filter id="filter12_d_2742_179835" x="897.227" y="279.707" width="6.00781" height="6.01172" filterUnits="userSpaceOnUse" color-interpolation-filters="sRGB">
<feFlood flood-opacity="0" result="BackgroundImageFix"/>
<feColorMatrix in="SourceAlpha" type="matrix" values="0 0 0 0 0 0 0 0 0 0 0 0 0 0 0 0 0 0 127 0" result="hardAlpha"/>
<feOffset/>
<feGaussianBlur stdDeviation="1"/>
<feComposite in2="hardAlpha" operator="out"/>
<feColorMatrix type="matrix" values="0 0 0 0 1 0 0 0 0 1 0 0 0 0 1 0 0 0 0.52 0"/>
<feBlend mode="normal" in2="BackgroundImageFix" result="effect1_dropShadow_2742_179835"/>
<feBlend mode="normal" in="SourceGraphic" in2="effect1_dropShadow_2742_179835" result="shape"/>
</filter>
<filter id="filter13_d_2742_179835" x="816.273" y="102.871" width="6.00781" height="6.01172" filterUnits="userSpaceOnUse" color-interpolation-filters="sRGB">
<feFlood flood-opacity="0" result="BackgroundImageFix"/>
<feColorMatrix in="SourceAlpha" type="matrix" values="0 0 0 0 0 0 0 0 0 0 0 0 0 0 0 0 0 0 127 0" result="hardAlpha"/>
<feOffset/>
<feGaussianBlur stdDeviation="1"/>
<feComposite in2="hardAlpha" operator="out"/>
<feColorMatrix type="matrix" values="0 0 0 0 1 0 0 0 0 1 0 0 0 0 1 0 0 0 0.52 0"/>
<feBlend mode="normal" in2="BackgroundImageFix" result="effect1_dropShadow_2742_179835"/>
<feBlend mode="normal" in="SourceGraphic" in2="effect1_dropShadow_2742_179835" result="shape"/>
</filter>
<filter id="filter14_f_2742_179835" x="148.491" y="-349.189" width="1514.02" height="1163.14" filterUnits="userSpaceOnUse" color-interpolation-filters="sRGB">
<feFlood flood-opacity="0" result="BackgroundImageFix"/>
<feBlend mode="normal" in="SourceGraphic" in2="BackgroundImageFix" result="shape"/>
<feGaussianBlur stdDeviation="163.11" result="effect1_foregroundBlur_2742_179835"/>
</filter>
<filter id="filter15_f_2742_179835" x="497.895" y="-181.926" width="837.414" height="729.145" filterUnits="userSpaceOnUse" color-interpolation-filters="sRGB">
<feFlood flood-opacity="0" result="BackgroundImageFix"/>
<feBlend mode="normal" in="SourceGraphic" in2="BackgroundImageFix" result="shape"/>
<feGaussianBlur stdDeviation="82" result="effect1_foregroundBlur_2742_179835"/>
</filter>
<filter id="filter16_f_2742_179835" x="775.331" y="108.562" width="170.939" height="170.939" filterUnits="userSpaceOnUse" color-interpolation-filters="sRGB">
<feFlood flood-opacity="0" result="BackgroundImageFix"/>
<feBlend mode="normal" in="SourceGraphic" in2="BackgroundImageFix" result="shape"/>
<feGaussianBlur stdDeviation="3.52" result="effect1_foregroundBlur_2742_179835"/>
</filter>
<filter id="filter17_f_2742_179835" x="542.77" y="4.58984" width="906.539" height="612.816" filterUnits="userSpaceOnUse" color-interpolation-filters="sRGB">
<feFlood flood-opacity="0" result="BackgroundImageFix"/>
<feBlend mode="normal" in="SourceGraphic" in2="BackgroundImageFix" result="shape"/>
<feGaussianBlur stdDeviation="82" result="effect1_foregroundBlur_2742_179835"/>
</filter>
<filter id="filter18_f_2742_179835" x="561.445" y="81.3086" width="252.066" height="252.066" filterUnits="userSpaceOnUse" color-interpolation-filters="sRGB">
<feFlood flood-opacity="0" result="BackgroundImageFix"/>
<feBlend mode="normal" in="SourceGraphic" in2="BackgroundImageFix" result="shape"/>
<feGaussianBlur stdDeviation="10" result="effect1_foregroundBlur_2742_179835"/>
</filter>
<filter id="filter19_f_2742_179835" x="487.254" y="73.7461" width="313.414" height="313.414" filterUnits="userSpaceOnUse" color-interpolation-filters="sRGB">
<feFlood flood-opacity="0" result="BackgroundImageFix"/>
<feBlend mode="normal" in="SourceGraphic" in2="BackgroundImageFix" result="shape"/>
<feGaussianBlur stdDeviation="26" result="effect1_foregroundBlur_2742_179835"/>
</filter>
<filter id="filter20_f_2742_179835" x="864.438" y="150.488" width="198.633" height="198.633" filterUnits="userSpaceOnUse" color-interpolation-filters="sRGB">
<feFlood flood-opacity="0" result="BackgroundImageFix"/>
<feBlend mode="normal" in="SourceGraphic" in2="BackgroundImageFix" result="shape"/>
<feGaussianBlur stdDeviation="13.5" result="effect1_foregroundBlur_2742_179835"/>
</filter>
<filter id="filter21_f_2742_179835" x="421.07" y="-10.3203" width="396.293" height="476.828" filterUnits="userSpaceOnUse" color-interpolation-filters="sRGB">
<feFlood flood-opacity="0" result="BackgroundImageFix"/>
<feBlend mode="normal" in="SourceGraphic" in2="BackgroundImageFix" result="shape"/>
<feGaussianBlur stdDeviation="6.5" result="effect1_foregroundBlur_2742_179835"/>
</filter>
<filter id="filter22_f_2742_179835" x="868.113" y="150.367" width="611.449" height="525.152" filterUnits="userSpaceOnUse" color-interpolation-filters="sRGB">
<feFlood flood-opacity="0" result="BackgroundImageFix"/>
<feBlend mode="normal" in="SourceGraphic" in2="BackgroundImageFix" result="shape"/>
<feGaussianBlur stdDeviation="4.5" result="effect1_foregroundBlur_2742_179835"/>
</filter>
<filter id="filter23_f_2742_179835" x="923.574" y="-184.93" width="632.996" height="632.996" filterUnits="userSpaceOnUse" color-interpolation-filters="sRGB">
<feFlood flood-opacity="0" result="BackgroundImageFix"/>
<feBlend mode="normal" in="SourceGraphic" in2="BackgroundImageFix" result="shape"/>
<feGaussianBlur stdDeviation="38" result="effect1_foregroundBlur_2742_179835"/>
</filter>
<radialGradient id="paint0_radial_2742_179835" cx="0" cy="0" r="1" gradientUnits="userSpaceOnUse" gradientTransform="translate(798.385 72.1658) rotate(-91.647) scale(58.743 67.9988)">
<stop/>
<stop offset="1" stop-color="#130059" stop-opacity="0.1"/>
</radialGradient>
<linearGradient id="paint1_linear_2742_179835" x1="800.812" y1="40.8203" x2="800.812" y2="95.1797" gradientUnits="userSpaceOnUse">
<stop stop-color="white"/>
<stop offset="1" stop-color="white" stop-opacity="0"/>
</linearGradient>
<linearGradient id="paint2_linear_2742_179835" x1="800.812" y1="40.8203" x2="800.812" y2="95.1797" gradientUnits="userSpaceOnUse">
<stop stop-color="white"/>
<stop offset="1" stop-color="white" stop-opacity="0"/>
</linearGradient>
<linearGradient id="paint3_linear_2742_179835" x1="795.676" y1="41.1016" x2="795.676" y2="98.993" gradientUnits="userSpaceOnUse">
<stop stop-color="white"/>
<stop offset="1" stop-color="white" stop-opacity="0"/>
</linearGradient>
<linearGradient id="paint4_linear_2742_179835" x1="807.513" y1="53.9141" x2="807.513" y2="97.065" gradientUnits="userSpaceOnUse">
<stop stop-color="white"/>
<stop offset="1" stop-color="white" stop-opacity="0"/>
</linearGradient>
<linearGradient id="paint5_linear_2742_179835" x1="905.502" y1="-22.9688" x2="905.502" y2="487.733" gradientUnits="userSpaceOnUse">
<stop stop-color="#6F13A4"/>
<stop offset="1" stop-color="#6F13A4" stop-opacity="0"/>
</linearGradient>
<linearGradient id="paint6_linear_2742_179835" x1="811.031" y1="130.956" x2="888.589" y2="169.84" gradientUnits="userSpaceOnUse">
<stop stop-color="white"/>
<stop offset="1" stop-color="#4B4B4B" stop-opacity="0"/>
</linearGradient>
<linearGradient id="paint7_linear_2742_179835" x1="703.672" y1="102.52" x2="703.672" y2="297.48" gradientUnits="userSpaceOnUse">
<stop stop-color="white"/>
<stop offset="1" stop-color="white" stop-opacity="0.71"/>
</linearGradient>
<linearGradient id="paint8_linear_2742_179835" x1="703.672" y1="102.52" x2="703.672" y2="297.48" gradientUnits="userSpaceOnUse">
<stop stop-color="white"/>
<stop offset="1" stop-color="white" stop-opacity="0.71"/>
</linearGradient>
<linearGradient id="paint9_linear_2742_179835" x1="687.479" y1="101.309" x2="687.479" y2="313.375" gradientUnits="userSpaceOnUse">
<stop stop-color="white"/>
<stop offset="1" stop-color="white" stop-opacity="0.71"/>
</linearGradient>
<linearGradient id="paint10_linear_2742_179835" x1="643.961" y1="125.746" x2="643.961" y2="335.16" gradientUnits="userSpaceOnUse">
<stop stop-color="white"/>
<stop offset="1" stop-color="white" stop-opacity="0.71"/>
</linearGradient>
<linearGradient id="paint11_linear_2742_179835" x1="950.178" y1="163.876" x2="950.178" y2="302.813" gradientUnits="userSpaceOnUse">
<stop stop-color="white"/>
<stop offset="1" stop-color="white" stop-opacity="0"/>
</linearGradient>
<linearGradient id="paint12_linear_2742_179835" x1="1016.3" y1="199.936" x2="913.92" y2="287.352" gradientUnits="userSpaceOnUse">
<stop stop-color="#E4C8EB"/>
<stop offset="1" stop-color="white" stop-opacity="0"/>
</linearGradient>
<linearGradient id="paint13_linear_2742_179835" x1="963.753" y1="177.501" x2="963.753" y2="322.109" gradientUnits="userSpaceOnUse">
<stop stop-color="white"/>
<stop offset="1" stop-color="white" stop-opacity="0"/>
</linearGradient>
<radialGradient id="paint14_radial_2742_179835" cx="0" cy="0" r="1" gradientUnits="userSpaceOnUse" gradientTransform="translate(762.48 164.059) rotate(168.926) scale(256.897 292.703)">
<stop stop-color="#FAE9FF"/>
<stop offset="1" stop-color="#2F04CD" stop-opacity="0"/>
</radialGradient>
<radialGradient id="paint15_radial_2742_179835" cx="0" cy="0" r="1" gradientUnits="userSpaceOnUse" gradientTransform="translate(934.743 241.218) rotate(30.5864) scale(280.355 234.36)">
<stop stop-color="#F1C7FF"/>
<stop offset="1" stop-color="#050B0F"/>
</radialGradient>
<linearGradient id="paint16_linear_2742_179835" x1="404.698" y1="77.3095" x2="334.491" y2="118.736" gradientUnits="userSpaceOnUse">
<stop stop-color="#A259FF"/>
<stop offset="1" stop-color="white" stop-opacity="0"/>
</linearGradient>
<linearGradient id="paint17_linear_2742_179835" x1="291.29" y1="-45.5655" x2="87.5796" y2="307.596" gradientUnits="userSpaceOnUse">
<stop stop-color="#1C0B39"/>
<stop offset="1" stop-color="#030A0C"/>
</linearGradient>
<linearGradient id="paint18_linear_2742_179835" x1="817.082" y1="96.7876" x2="804.039" y2="74.1342" gradientUnits="userSpaceOnUse">
<stop stop-color="#E8CBFF"/>
<stop offset="1" stop-color="#8442B8" stop-opacity="0"/>
</linearGradient>
<linearGradient id="paint19_linear_2742_179835" x1="796.285" y1="171.317" x2="742.747" y2="247.249" gradientUnits="userSpaceOnUse">
<stop stop-color="white"/>
<stop offset="1" stop-color="#D9D9D9" stop-opacity="0"/>
</linearGradient>
<linearGradient id="paint20_linear_2742_179835" x1="761.848" y1="164.001" x2="686.079" y2="242.677" gradientUnits="userSpaceOnUse">
<stop stop-color="white"/>
<stop offset="1" stop-color="#D9D9D9" stop-opacity="0"/>
</linearGradient>
<linearGradient id="paint21_linear_2742_179835" x1="714.657" y1="240.71" x2="680.681" y2="255.872" gradientUnits="userSpaceOnUse">
<stop stop-color="white" stop-opacity="0"/>
<stop offset="0.369792" stop-color="white" stop-opacity="0.51"/>
<stop offset="1" stop-color="#D9D9D9" stop-opacity="0"/>
</linearGradient>
<linearGradient id="paint22_linear_2742_179835" x1="788.752" y1="139.75" x2="753.791" y2="193.065" gradientUnits="userSpaceOnUse">
<stop stop-color="white"/>
<stop offset="1" stop-color="#D9D9D9" stop-opacity="0"/>
</linearGradient>
<linearGradient id="paint23_linear_2742_179835" x1="728.629" y1="125.141" x2="673.451" y2="138.845" gradientUnits="userSpaceOnUse">
<stop stop-color="white" stop-opacity="0"/>
<stop offset="0.364583" stop-color="white" stop-opacity="0.65"/>
<stop offset="1" stop-color="#D9D9D9" stop-opacity="0"/>
</linearGradient>
<linearGradient id="paint24_linear_2742_179835" x1="787.092" y1="131.056" x2="673.224" y2="126.274" gradientUnits="userSpaceOnUse">
<stop stop-color="white"/>
<stop offset="1" stop-color="#D9D9D9" stop-opacity="0"/>
</linearGradient>
<clipPath id="clip0_2742_179835">
<rect x="1.25781" y="1" width="1368" height="398" fill="white"/>
</clipPath>
</defs>
</svg>
