<svg xmlns="http://www.w3.org/2000/svg" width="1371" height="400" fill="none" viewBox="0 0 1371 400"><g clip-path="url(#a)"><path fill="#030a0c" d="M1.258 1h1368v398h-1368z"/><g filter="url(#b)" opacity=".3"><path fill="#1c4c5a" d="M277.117 197.556c50.749 38.801 153.238-65.471 198.139-122.456C567.892-32.69 736.134 98.69 720.718-14.514S577.452-82.057 433.703-150.868 333.326-32.88 289.174 63.025c-44.153 95.904-212.148 22.51-229.842 82.954-17.694 60.445 154.35 3.076 217.785 51.577"/></g><g filter="url(#c)" style="mix-blend-mode:soft-light"><path fill="url(#d)" d="m834.953-36.95-7.137 101.733-.016.063c-.845 3.25-3.891 14.955-16.577 21.42-14.508 7.393-27.314.575-31.808-3.565L701.881.635z"/></g><g filter="url(#e)"><mask id="g" width="55" height="56" x="773" y="40" maskUnits="userSpaceOnUse" style="mask-type:alpha"><circle cx="800.812" cy="68" r="26.68" fill="#6e2ca5" stroke="url(#f)"/></mask><g mask="url(#g)"><circle cx="800.812" cy="68" r="26.68" fill="#9e92a7" stroke="url(#h)"/><g filter="url(#i)"><circle cx="795.676" cy="70.047" r="28.946" fill="#501980"/><circle cx="795.676" cy="70.047" r="28.446" stroke="url(#j)"/></g><g filter="url(#k)"><circle cx="807.513" cy="75.49" r="21.576" fill="#fff"/><circle cx="807.513" cy="75.49" r="21.076" stroke="url(#l)"/></g></g></g><circle cx="628.098" cy="228.419" r="1.957" fill="#cacbdc" fill-opacity=".15" transform="rotate(-129.817 628.098 228.419)"/><circle cx="532.184" cy="343.767" r="1.957" fill="#cacbdc" fill-opacity=".15" transform="rotate(-129.817 532.184 343.767)"/><circle cx="555.742" cy="320.044" r="1.957" fill="#cacbdc" fill-opacity=".15" transform="rotate(-129.817 555.742 320.044)"/><circle cx="361.473" cy="375.455" r="1.957" fill="#cacbdc" fill-opacity=".15" transform="rotate(-129.817 361.473 375.455)"/><circle cx="717.73" cy="147.658" r="1.957" fill="#cacbdc" fill-opacity=".15" transform="rotate(-129.817 717.73 147.658)"/><circle cx="677.039" cy="123.599" r="1.957" fill="#cacbdc" fill-opacity=".15" transform="rotate(-129.817 677.039 123.599)"/><circle cx="585.887" cy="238.373" r="1.957" fill="#cacbdc" fill-opacity=".15" transform="rotate(-129.817 585.887 238.373)"/><circle cx="608.519" cy="218.258" r="1.004" fill="#cacbdc" fill-opacity=".15" transform="rotate(-129.817 608.519 218.258)"/><g filter="url(#m)"><circle cx="607.381" cy="338.657" r="1.004" fill="#fff" fill-opacity=".41" shape-rendering="crispEdges" transform="rotate(-83.19 607.381 338.657)"/></g><circle cx="598.046" cy="229.609" r="1.004" fill="#cacbdc" fill-opacity=".15" transform="rotate(-129.817 598.046 229.609)"/><circle cx="621.245" cy="255.871" r="1.004" fill="#cacbdc" fill-opacity=".15" transform="rotate(-51.954 621.245 255.871)"/><circle cx="586.081" cy="245.813" r="1.004" fill="#cacbdc" fill-opacity=".15" transform="rotate(-129.817 586.081 245.813)"/><circle cx="610.706" cy="241.363" r="1.004" fill="#cacbdc" fill-opacity=".15" transform="rotate(-51.954 610.706 241.363)"/><circle cx="684.999" cy="138.52" r="1.004" fill="#cacbdc" fill-opacity=".15" transform="rotate(-51.954 684.999 138.52)"/><circle cx="627.827" cy="127.293" r="1.004" fill="#cacbdc" fill-opacity=".15" transform="rotate(-51.954 627.827 127.293)"/><circle cx="664.409" cy="45.832" r="1.004" fill="#cacbdc" fill-opacity=".15" transform="rotate(-51.954 664.409 45.832)"/><circle cx="741.491" cy="100.055" r="1.004" fill="#cacbdc" fill-opacity=".15" transform="rotate(-51.954 741.491 100.055)"/><g filter="url(#n)"><circle cx="557.134" cy="257.154" r="1.004" fill="#fff" fill-opacity=".41" shape-rendering="crispEdges" transform="rotate(-161.053 557.134 257.154)"/></g><g filter="url(#o)"><circle cx="600.99" cy="266.4" r="1.004" fill="#fff" fill-opacity=".41" shape-rendering="crispEdges" transform="rotate(-161.053 600.99 266.4)"/></g><g filter="url(#p)"><circle cx="375.583" cy="376.318" r="1.004" fill="#fff" fill-opacity=".41" shape-rendering="crispEdges" transform="rotate(-161.053 375.583 376.318)"/></g><g filter="url(#q)"><circle cx="684.978" cy="90.986" r="1.004" fill="#fff" fill-opacity=".41" shape-rendering="crispEdges" transform="rotate(-161.053 684.978 90.986)"/></g><circle cx="888.414" cy="237.57" r="1.957" fill="#cacbdc" fill-opacity=".15" transform="rotate(180 888.414 237.57)"/><circle cx="915.594" cy="385.102" r="1.957" fill="#cacbdc" fill-opacity=".15" transform="rotate(180 915.594 385.102)"/><circle cx="912.457" cy="351.816" r="1.957" fill="#cacbdc" fill-opacity=".15" transform="rotate(180 912.457 351.816)"/><circle cx="883.777" cy="117.012" r="1.957" fill="#cacbdc" fill-opacity=".15" transform="rotate(180 883.777 117.012)"/><circle cx="839.242" cy="132.859" r="1.957" fill="#cacbdc" fill-opacity=".15" transform="rotate(180 839.242 132.859)"/><circle cx="869.027" cy="276.363" r="1.957" fill="#cacbdc" fill-opacity=".15" transform="rotate(180 869.027 276.363)"/><circle cx="868.074" cy="246.102" r="1.004" fill="#cacbdc" fill-opacity=".15" transform="rotate(180 868.074 246.102)"/><g filter="url(#r)"><circle cx="959.822" cy="324.069" r="1.004" fill="#fff" fill-opacity=".41" shape-rendering="crispEdges" transform="rotate(-133.372 959.822 324.069)"/></g><circle cx="870.082" cy="261.414" r="1.004" fill="#cacbdc" fill-opacity=".15" transform="rotate(180 870.082 261.414)"/><circle cx="905.11" cy="260.413" r="1.004" fill="#cacbdc" fill-opacity=".15" transform="rotate(-102.137 905.11 260.413)"/><circle cx="874.867" cy="280.98" r="1.004" fill="#cacbdc" fill-opacity=".15" transform="rotate(180 874.867 280.98)"/><circle cx="887.22" cy="259.218" r="1.004" fill="#cacbdc" fill-opacity=".15" transform="rotate(-102.137 887.22 259.218)"/><circle cx="855.802" cy="136.3" r="1.004" fill="#cacbdc" fill-opacity=".15" transform="rotate(-102.137 855.802 136.3)"/><circle cx="810.567" cy="173.022" r="1.004" fill="#cacbdc" fill-opacity=".15" transform="rotate(-102.137 810.567 173.022)"/><circle cx="771.423" cy="92.764" r="1.004" fill="#cacbdc" fill-opacity=".15" transform="rotate(-102.137 771.423 92.764)"/><circle cx="862.427" cy="68.276" r="1.004" fill="#cacbdc" fill-opacity=".15" transform="rotate(-102.137 862.427 68.276)"/><g filter="url(#s)"><circle cx="865.043" cy="310.475" r="1.004" fill="#fff" fill-opacity=".41" shape-rendering="crispEdges" transform="rotate(148.764 865.043 310.475)"/></g><g filter="url(#t)"><circle cx="900.23" cy="282.713" r="1.004" fill="#fff" fill-opacity=".41" shape-rendering="crispEdges" transform="rotate(148.764 900.23 282.713)"/></g><g filter="url(#u)"><circle cx="819.277" cy="105.877" r="1.004" fill="#fff" fill-opacity=".41" shape-rendering="crispEdges" transform="rotate(148.764 819.277 105.877)"/></g><g filter="url(#v)" opacity=".71"><ellipse cx="905.502" cy="232.382" fill="url(#w)" rx="430.791" ry="255.351"/></g><g filter="url(#x)" style="mix-blend-mode:overlay"><ellipse cx="916.6" cy="182.646" fill="#c57aff" fill-opacity=".9" rx="305.819" ry="107.373" transform="rotate(36.258 916.6 182.646)"/></g><g filter="url(#y)"><circle cx="860.801" cy="194.031" r="77.133" fill="#d5c9c9"/><circle cx="860.801" cy="194.031" r="77.133" stroke="url(#z)" stroke-linejoin="bevel" stroke-width="2.59"/></g><g filter="url(#A)" style="mix-blend-mode:overlay"><ellipse cx="996.039" cy="310.999" fill="#c448f0" fill-opacity=".9" rx="292.389" ry="135.82" transform="rotate(9.49 996.039 310.999)"/></g><mask id="C" width="196" height="196" x="606" y="102" maskUnits="userSpaceOnUse" style="mask-type:alpha"><circle cx="703.672" cy="200" r="96.981" fill="#6e2ca5" stroke="url(#B)"/></mask><g mask="url(#C)"><circle cx="703.672" cy="200" r="96.981" fill="#e4d8ed" stroke="url(#D)"/><g filter="url(#E)"><circle cx="687.479" cy="207.342" r="106.033" fill="#501980"/><circle cx="687.479" cy="207.342" r="105.533" stroke="url(#F)"/></g><g filter="url(#G)"><circle cx="643.961" cy="230.453" r="104.707" fill="#1c0c30" fill-opacity=".9"/><circle cx="643.961" cy="230.453" r="104.207" stroke="url(#H)"/></g></g><mask id="J" width="140" height="140" x="880" y="163" maskUnits="userSpaceOnUse" style="mask-type:alpha"><circle cx="950.178" cy="233.345" r="68.968" fill="#6e2ca5" stroke="url(#I)" transform="rotate(-100.111 950.178 233.345)"/></mask><g mask="url(#J)"><circle cx="950.178" cy="233.345" r="68.968" fill="#ecccf5" stroke="url(#K)" transform="rotate(-100.111 950.178 233.345)"/><g filter="url(#L)"><circle cx="963.753" cy="249.805" r="72.304" fill="#481d80" transform="rotate(-100.111 963.753 249.805)"/><circle cx="963.753" cy="249.805" r="71.804" stroke="url(#M)" transform="rotate(-100.111 963.753 249.805)"/></g></g><g filter="url(#N)"><path fill="url(#O)" fill-opacity=".1" d="m434.07 2.68 314.384 108.33.186.105c9.52 5.404 43.818 24.875 53.473 70.286 11.041 51.933-21.242 86.512-38.071 97.17L440.143 453.509z"/></g><g filter="url(#P)"><path fill="url(#Q)" fill-opacity=".1" d="M1470.56 287.898 968.218 161.181c-5.258-1.326-10.663-2.116-16.069-1.703-13.278 1.016-36.945 5.675-56.188 27.652-27.72 31.656-18.759 68.059-11.238 81.94l177.937 397.45z"/></g><mask id="R" width="445" height="446" x="976" y="-98" maskUnits="userSpaceOnUse" style="mask-type:alpha"><circle cx="222.297" cy="222.297" r="222.297" fill="#6e2ca5" transform="matrix(-1 0 0 1 1421 -97.09)"/></mask><g mask="url(#R)"><circle cx="222.297" cy="222.297" r="221.797" fill="#9a38e8" stroke="url(#S)" transform="matrix(-1 0 0 1 1421 -97.09)"/><g filter="url(#T)"><circle cx="240.498" cy="240.498" r="240.498" fill="url(#U)" transform="matrix(-1 0 0 1 1480.57 -108.93)"/></g></g><circle cx="800.812" cy="67.859" r="26.305" stroke="url(#V)"/><path stroke="url(#W)" d="M788.479 152.19c10.026 1.125 17.567 4.794 21.507 11.19 12.964 21.045-17.987 63.645-69.131 95.15-12.08 7.44-24.205 13.597-35.852 18.383"/><path stroke="url(#X)" d="M788.139 152.191c8.635-1.133 14.593-.035 16.852 3.632 7.434 12.067-28.001 47.389-79.145 78.893-22.119 13.625-43.553 24.305-61.36 31.062"/><path stroke="url(#Y)" d="M728.282 238.67c-22.119 13.625-43.692 24.079-61.731 30.459"/><path stroke="url(#Z)" d="M788.139 152.191c8.854-.778 15.06.723 17.583 4.819 8.302 13.477-26.428 49.942-77.572 81.446-22.119 13.625-43.685 24.091-61.711 30.491"/><path stroke="url(#aa)" d="M660.62 145.109c24.728-11.497 48.545-19.394 67.861-23.128"/><path stroke="url(#ab)" d="M672.695 130.761c55.606-22.72 106.837-26.079 114.427-7.502 2.307 5.645.318 12.666-5.13 20.344"/></g><path stroke="#071517" d="M.758.5h1369v399H.758z"/><defs><filter id="b" width="1033.46" height="741.564" x="-126.844" y="-350.657" color-interpolation-filters="sRGB" filterUnits="userSpaceOnUse"><feFlood flood-opacity="0" result="BackgroundImageFix"/><feBlend in="SourceGraphic" in2="BackgroundImageFix" result="shape"/><feGaussianBlur result="effect1_foregroundBlur_2742_179835" stdDeviation="92.454"/></filter><filter id="c" width="141.07" height="134.5" x="697.883" y="-40.949" color-interpolation-filters="sRGB" filterUnits="userSpaceOnUse"><feFlood flood-opacity="0" result="BackgroundImageFix"/><feBlend in="SourceGraphic" in2="BackgroundImageFix" result="shape"/><feGaussianBlur result="effect1_foregroundBlur_2742_179835" stdDeviation="2"/></filter><filter id="e" width="62.359" height="62.359" x="769.633" y="36.82" color-interpolation-filters="sRGB" filterUnits="userSpaceOnUse"><feFlood flood-opacity="0" result="BackgroundImageFix"/><feBlend in="SourceGraphic" in2="BackgroundImageFix" result="shape"/><feGaussianBlur result="effect1_foregroundBlur_2742_179835" stdDeviation="2"/></filter><filter id="i" width="97.891" height="97.891" x="746.73" y="21.102" color-interpolation-filters="sRGB" filterUnits="userSpaceOnUse"><feFlood flood-opacity="0" result="BackgroundImageFix"/><feBlend in="SourceGraphic" in2="BackgroundImageFix" result="shape"/><feGaussianBlur result="effect1_foregroundBlur_2742_179835" stdDeviation="10"/></filter><filter id="k" width="77.152" height="77.152" x="768.938" y="36.914" color-interpolation-filters="sRGB" filterUnits="userSpaceOnUse"><feFlood flood-opacity="0" result="BackgroundImageFix"/><feBlend in="SourceGraphic" in2="BackgroundImageFix" result="shape"/><feGaussianBlur result="effect1_foregroundBlur_2742_179835" stdDeviation="8.5"/></filter><filter id="m" width="6.008" height="6.008" x="604.379" y="335.652" color-interpolation-filters="sRGB" filterUnits="userSpaceOnUse"><feFlood flood-opacity="0" result="BackgroundImageFix"/><feColorMatrix in="SourceAlpha" result="hardAlpha" values="0 0 0 0 0 0 0 0 0 0 0 0 0 0 0 0 0 0 127 0"/><feOffset/><feGaussianBlur stdDeviation="1"/><feComposite in2="hardAlpha" operator="out"/><feColorMatrix values="0 0 0 0 1 0 0 0 0 1 0 0 0 0 1 0 0 0 0.52 0"/><feBlend in2="BackgroundImageFix" result="effect1_dropShadow_2742_179835"/><feBlend in="SourceGraphic" in2="effect1_dropShadow_2742_179835" result="shape"/></filter><filter id="n" width="6.008" height="6.012" x="554.129" y="254.148" color-interpolation-filters="sRGB" filterUnits="userSpaceOnUse"><feFlood flood-opacity="0" result="BackgroundImageFix"/><feColorMatrix in="SourceAlpha" result="hardAlpha" values="0 0 0 0 0 0 0 0 0 0 0 0 0 0 0 0 0 0 127 0"/><feOffset/><feGaussianBlur stdDeviation="1"/><feComposite in2="hardAlpha" operator="out"/><feColorMatrix values="0 0 0 0 1 0 0 0 0 1 0 0 0 0 1 0 0 0 0.52 0"/><feBlend in2="BackgroundImageFix" result="effect1_dropShadow_2742_179835"/><feBlend in="SourceGraphic" in2="effect1_dropShadow_2742_179835" result="shape"/></filter><filter id="o" width="6.008" height="6.012" x="597.984" y="263.395" color-interpolation-filters="sRGB" filterUnits="userSpaceOnUse"><feFlood flood-opacity="0" result="BackgroundImageFix"/><feColorMatrix in="SourceAlpha" result="hardAlpha" values="0 0 0 0 0 0 0 0 0 0 0 0 0 0 0 0 0 0 127 0"/><feOffset/><feGaussianBlur stdDeviation="1"/><feComposite in2="hardAlpha" operator="out"/><feColorMatrix values="0 0 0 0 1 0 0 0 0 1 0 0 0 0 1 0 0 0 0.52 0"/><feBlend in2="BackgroundImageFix" result="effect1_dropShadow_2742_179835"/><feBlend in="SourceGraphic" in2="effect1_dropShadow_2742_179835" result="shape"/></filter><filter id="p" width="6.008" height="6.012" x="372.578" y="373.312" color-interpolation-filters="sRGB" filterUnits="userSpaceOnUse"><feFlood flood-opacity="0" result="BackgroundImageFix"/><feColorMatrix in="SourceAlpha" result="hardAlpha" values="0 0 0 0 0 0 0 0 0 0 0 0 0 0 0 0 0 0 127 0"/><feOffset/><feGaussianBlur stdDeviation="1"/><feComposite in2="hardAlpha" operator="out"/><feColorMatrix values="0 0 0 0 1 0 0 0 0 1 0 0 0 0 1 0 0 0 0.52 0"/><feBlend in2="BackgroundImageFix" result="effect1_dropShadow_2742_179835"/><feBlend in="SourceGraphic" in2="effect1_dropShadow_2742_179835" result="shape"/></filter><filter id="q" width="6.008" height="6.012" x="681.973" y="87.981" color-interpolation-filters="sRGB" filterUnits="userSpaceOnUse"><feFlood flood-opacity="0" result="BackgroundImageFix"/><feColorMatrix in="SourceAlpha" result="hardAlpha" values="0 0 0 0 0 0 0 0 0 0 0 0 0 0 0 0 0 0 127 0"/><feOffset/><feGaussianBlur stdDeviation="1"/><feComposite in2="hardAlpha" operator="out"/><feColorMatrix values="0 0 0 0 1 0 0 0 0 1 0 0 0 0 1 0 0 0 0.52 0"/><feBlend in2="BackgroundImageFix" result="effect1_dropShadow_2742_179835"/><feBlend in="SourceGraphic" in2="effect1_dropShadow_2742_179835" result="shape"/></filter><filter id="r" width="6.008" height="6.008" x="956.816" y="321.066" color-interpolation-filters="sRGB" filterUnits="userSpaceOnUse"><feFlood flood-opacity="0" result="BackgroundImageFix"/><feColorMatrix in="SourceAlpha" result="hardAlpha" values="0 0 0 0 0 0 0 0 0 0 0 0 0 0 0 0 0 0 127 0"/><feOffset/><feGaussianBlur stdDeviation="1"/><feComposite in2="hardAlpha" operator="out"/><feColorMatrix values="0 0 0 0 1 0 0 0 0 1 0 0 0 0 1 0 0 0 0.52 0"/><feBlend in2="BackgroundImageFix" result="effect1_dropShadow_2742_179835"/><feBlend in="SourceGraphic" in2="effect1_dropShadow_2742_179835" result="shape"/></filter><filter id="s" width="6.008" height="6.012" x="862.039" y="307.469" color-interpolation-filters="sRGB" filterUnits="userSpaceOnUse"><feFlood flood-opacity="0" result="BackgroundImageFix"/><feColorMatrix in="SourceAlpha" result="hardAlpha" values="0 0 0 0 0 0 0 0 0 0 0 0 0 0 0 0 0 0 127 0"/><feOffset/><feGaussianBlur stdDeviation="1"/><feComposite in2="hardAlpha" operator="out"/><feColorMatrix values="0 0 0 0 1 0 0 0 0 1 0 0 0 0 1 0 0 0 0.52 0"/><feBlend in2="BackgroundImageFix" result="effect1_dropShadow_2742_179835"/><feBlend in="SourceGraphic" in2="effect1_dropShadow_2742_179835" result="shape"/></filter><filter id="t" width="6.008" height="6.012" x="897.227" y="279.707" color-interpolation-filters="sRGB" filterUnits="userSpaceOnUse"><feFlood flood-opacity="0" result="BackgroundImageFix"/><feColorMatrix in="SourceAlpha" result="hardAlpha" values="0 0 0 0 0 0 0 0 0 0 0 0 0 0 0 0 0 0 127 0"/><feOffset/><feGaussianBlur stdDeviation="1"/><feComposite in2="hardAlpha" operator="out"/><feColorMatrix values="0 0 0 0 1 0 0 0 0 1 0 0 0 0 1 0 0 0 0.52 0"/><feBlend in2="BackgroundImageFix" result="effect1_dropShadow_2742_179835"/><feBlend in="SourceGraphic" in2="effect1_dropShadow_2742_179835" result="shape"/></filter><filter id="u" width="6.008" height="6.012" x="816.273" y="102.871" color-interpolation-filters="sRGB" filterUnits="userSpaceOnUse"><feFlood flood-opacity="0" result="BackgroundImageFix"/><feColorMatrix in="SourceAlpha" result="hardAlpha" values="0 0 0 0 0 0 0 0 0 0 0 0 0 0 0 0 0 0 127 0"/><feOffset/><feGaussianBlur stdDeviation="1"/><feComposite in2="hardAlpha" operator="out"/><feColorMatrix values="0 0 0 0 1 0 0 0 0 1 0 0 0 0 1 0 0 0 0.52 0"/><feBlend in2="BackgroundImageFix" result="effect1_dropShadow_2742_179835"/><feBlend in="SourceGraphic" in2="effect1_dropShadow_2742_179835" result="shape"/></filter><filter id="v" width="1514.02" height="1163.14" x="148.491" y="-349.189" color-interpolation-filters="sRGB" filterUnits="userSpaceOnUse"><feFlood flood-opacity="0" result="BackgroundImageFix"/><feBlend in="SourceGraphic" in2="BackgroundImageFix" result="shape"/><feGaussianBlur result="effect1_foregroundBlur_2742_179835" stdDeviation="163.11"/></filter><filter id="x" width="837.414" height="729.145" x="497.895" y="-181.926" color-interpolation-filters="sRGB" filterUnits="userSpaceOnUse"><feFlood flood-opacity="0" result="BackgroundImageFix"/><feBlend in="SourceGraphic" in2="BackgroundImageFix" result="shape"/><feGaussianBlur result="effect1_foregroundBlur_2742_179835" stdDeviation="82"/></filter><filter id="y" width="170.939" height="170.939" x="775.331" y="108.562" color-interpolation-filters="sRGB" filterUnits="userSpaceOnUse"><feFlood flood-opacity="0" result="BackgroundImageFix"/><feBlend in="SourceGraphic" in2="BackgroundImageFix" result="shape"/><feGaussianBlur result="effect1_foregroundBlur_2742_179835" stdDeviation="3.52"/></filter><filter id="A" width="906.539" height="612.816" x="542.77" y="4.59" color-interpolation-filters="sRGB" filterUnits="userSpaceOnUse"><feFlood flood-opacity="0" result="BackgroundImageFix"/><feBlend in="SourceGraphic" in2="BackgroundImageFix" result="shape"/><feGaussianBlur result="effect1_foregroundBlur_2742_179835" stdDeviation="82"/></filter><filter id="E" width="252.066" height="252.066" x="561.445" y="81.309" color-interpolation-filters="sRGB" filterUnits="userSpaceOnUse"><feFlood flood-opacity="0" result="BackgroundImageFix"/><feBlend in="SourceGraphic" in2="BackgroundImageFix" result="shape"/><feGaussianBlur result="effect1_foregroundBlur_2742_179835" stdDeviation="10"/></filter><filter id="G" width="313.414" height="313.414" x="487.254" y="73.746" color-interpolation-filters="sRGB" filterUnits="userSpaceOnUse"><feFlood flood-opacity="0" result="BackgroundImageFix"/><feBlend in="SourceGraphic" in2="BackgroundImageFix" result="shape"/><feGaussianBlur result="effect1_foregroundBlur_2742_179835" stdDeviation="26"/></filter><filter id="L" width="198.633" height="198.633" x="864.438" y="150.488" color-interpolation-filters="sRGB" filterUnits="userSpaceOnUse"><feFlood flood-opacity="0" result="BackgroundImageFix"/><feBlend in="SourceGraphic" in2="BackgroundImageFix" result="shape"/><feGaussianBlur result="effect1_foregroundBlur_2742_179835" stdDeviation="13.5"/></filter><filter id="N" width="396.293" height="476.828" x="421.07" y="-10.32" color-interpolation-filters="sRGB" filterUnits="userSpaceOnUse"><feFlood flood-opacity="0" result="BackgroundImageFix"/><feBlend in="SourceGraphic" in2="BackgroundImageFix" result="shape"/><feGaussianBlur result="effect1_foregroundBlur_2742_179835" stdDeviation="6.5"/></filter><filter id="P" width="611.449" height="525.152" x="868.113" y="150.367" color-interpolation-filters="sRGB" filterUnits="userSpaceOnUse"><feFlood flood-opacity="0" result="BackgroundImageFix"/><feBlend in="SourceGraphic" in2="BackgroundImageFix" result="shape"/><feGaussianBlur result="effect1_foregroundBlur_2742_179835" stdDeviation="4.5"/></filter><filter id="T" width="632.996" height="632.996" x="923.574" y="-184.93" color-interpolation-filters="sRGB" filterUnits="userSpaceOnUse"><feFlood flood-opacity="0" result="BackgroundImageFix"/><feBlend in="SourceGraphic" in2="BackgroundImageFix" result="shape"/><feGaussianBlur result="effect1_foregroundBlur_2742_179835" stdDeviation="38"/></filter><linearGradient id="f" x1="800.812" x2="800.812" y1="40.82" y2="95.18" gradientUnits="userSpaceOnUse"><stop stop-color="#fff"/><stop offset="1" stop-color="#fff" stop-opacity="0"/></linearGradient><linearGradient id="h" x1="800.812" x2="800.812" y1="40.82" y2="95.18" gradientUnits="userSpaceOnUse"><stop stop-color="#fff"/><stop offset="1" stop-color="#fff" stop-opacity="0"/></linearGradient><linearGradient id="j" x1="795.676" x2="795.676" y1="41.102" y2="98.993" gradientUnits="userSpaceOnUse"><stop stop-color="#fff"/><stop offset="1" stop-color="#fff" stop-opacity="0"/></linearGradient><linearGradient id="l" x1="807.513" x2="807.513" y1="53.914" y2="97.065" gradientUnits="userSpaceOnUse"><stop stop-color="#fff"/><stop offset="1" stop-color="#fff" stop-opacity="0"/></linearGradient><linearGradient id="w" x1="905.502" x2="905.502" y1="-22.969" y2="487.733" gradientUnits="userSpaceOnUse"><stop stop-color="#6f13a4"/><stop offset="1" stop-color="#6f13a4" stop-opacity="0"/></linearGradient><linearGradient id="z" x1="811.031" x2="888.589" y1="130.956" y2="169.84" gradientUnits="userSpaceOnUse"><stop stop-color="#fff"/><stop offset="1" stop-color="#4b4b4b" stop-opacity="0"/></linearGradient><linearGradient id="B" x1="703.672" x2="703.672" y1="102.52" y2="297.48" gradientUnits="userSpaceOnUse"><stop stop-color="#fff"/><stop offset="1" stop-color="#fff" stop-opacity=".71"/></linearGradient><linearGradient id="D" x1="703.672" x2="703.672" y1="102.52" y2="297.48" gradientUnits="userSpaceOnUse"><stop stop-color="#fff"/><stop offset="1" stop-color="#fff" stop-opacity=".71"/></linearGradient><linearGradient id="F" x1="687.479" x2="687.479" y1="101.309" y2="313.375" gradientUnits="userSpaceOnUse"><stop stop-color="#fff"/><stop offset="1" stop-color="#fff" stop-opacity=".71"/></linearGradient><linearGradient id="H" x1="643.961" x2="643.961" y1="125.746" y2="335.16" gradientUnits="userSpaceOnUse"><stop stop-color="#fff"/><stop offset="1" stop-color="#fff" stop-opacity=".71"/></linearGradient><linearGradient id="I" x1="950.178" x2="950.178" y1="163.876" y2="302.813" gradientUnits="userSpaceOnUse"><stop stop-color="#fff"/><stop offset="1" stop-color="#fff" stop-opacity="0"/></linearGradient><linearGradient id="K" x1="1016.3" x2="913.92" y1="199.936" y2="287.352" gradientUnits="userSpaceOnUse"><stop stop-color="#e4c8eb"/><stop offset="1" stop-color="#fff" stop-opacity="0"/></linearGradient><linearGradient id="M" x1="963.753" x2="963.753" y1="177.501" y2="322.109" gradientUnits="userSpaceOnUse"><stop stop-color="#fff"/><stop offset="1" stop-color="#fff" stop-opacity="0"/></linearGradient><linearGradient id="S" x1="404.698" x2="334.491" y1="77.309" y2="118.736" gradientUnits="userSpaceOnUse"><stop stop-color="#a259ff"/><stop offset="1" stop-color="#fff" stop-opacity="0"/></linearGradient><linearGradient id="U" x1="291.29" x2="87.58" y1="-45.566" y2="307.596" gradientUnits="userSpaceOnUse"><stop stop-color="#1c0b39"/><stop offset="1" stop-color="#030a0c"/></linearGradient><linearGradient id="V" x1="817.082" x2="804.039" y1="96.788" y2="74.134" gradientUnits="userSpaceOnUse"><stop stop-color="#e8cbff"/><stop offset="1" stop-color="#8442b8" stop-opacity="0"/></linearGradient><linearGradient id="W" x1="796.285" x2="742.747" y1="171.317" y2="247.249" gradientUnits="userSpaceOnUse"><stop stop-color="#fff"/><stop offset="1" stop-color="#d9d9d9" stop-opacity="0"/></linearGradient><linearGradient id="X" x1="761.848" x2="686.079" y1="164.001" y2="242.677" gradientUnits="userSpaceOnUse"><stop stop-color="#fff"/><stop offset="1" stop-color="#d9d9d9" stop-opacity="0"/></linearGradient><linearGradient id="Y" x1="714.657" x2="680.681" y1="240.71" y2="255.872" gradientUnits="userSpaceOnUse"><stop stop-color="#fff" stop-opacity="0"/><stop offset=".37" stop-color="#fff" stop-opacity=".51"/><stop offset="1" stop-color="#d9d9d9" stop-opacity="0"/></linearGradient><linearGradient id="Z" x1="788.752" x2="753.791" y1="139.75" y2="193.065" gradientUnits="userSpaceOnUse"><stop stop-color="#fff"/><stop offset="1" stop-color="#d9d9d9" stop-opacity="0"/></linearGradient><linearGradient id="aa" x1="728.629" x2="673.451" y1="125.141" y2="138.845" gradientUnits="userSpaceOnUse"><stop stop-color="#fff" stop-opacity="0"/><stop offset=".365" stop-color="#fff" stop-opacity=".65"/><stop offset="1" stop-color="#d9d9d9" stop-opacity="0"/></linearGradient><linearGradient id="ab" x1="787.092" x2="673.224" y1="131.056" y2="126.274" gradientUnits="userSpaceOnUse"><stop stop-color="#fff"/><stop offset="1" stop-color="#d9d9d9" stop-opacity="0"/></linearGradient><radialGradient id="d" cx="0" cy="0" r="1" gradientTransform="rotate(-91.647 434.253 -351.796)scale(58.743 67.9988)" gradientUnits="userSpaceOnUse"><stop/><stop offset="1" stop-color="#130059" stop-opacity=".1"/></radialGradient><radialGradient id="O" cx="0" cy="0" r="1" gradientTransform="rotate(168.926 373.288 118.987)scale(256.897 292.703)" gradientUnits="userSpaceOnUse"><stop stop-color="#fae9ff"/><stop offset="1" stop-color="#2f04cd" stop-opacity="0"/></radialGradient><radialGradient id="Q" cx="0" cy="0" r="1" gradientTransform="rotate(30.586 26.294 1829.828)scale(280.355 234.36)" gradientUnits="userSpaceOnUse"><stop stop-color="#f1c7ff"/><stop offset="1" stop-color="#050b0f"/></radialGradient><clipPath id="a"><path fill="#fff" d="M1.258 1h1368v398h-1368z"/></clipPath></defs></svg>