<svg width="400" height="210" viewBox="0 0 400 210" fill="none" xmlns="http://www.w3.org/2000/svg">
<g clip-path="url(#clip0_4353_101579)">
<rect x="200.689" y="23.8478" width="235.466" height="117.627" rx="3" stroke="url(#paint0_radial_4353_101579)" stroke-width="0.5" stroke-dasharray="2.05 3.41"/>
<rect x="18.5918" y="150.989" width="146.622" height="70.089" rx="3" stroke="url(#paint1_radial_4353_101579)" stroke-width="0.5" stroke-dasharray="2.05 3.41"/>
<rect x="-4.30078" y="-24.6281" width="144.514" height="110.236" rx="3" stroke="url(#paint2_radial_4353_101579)" stroke-width="0.5" stroke-dasharray="2.05 3.41"/>
<path d="M159.77 21.4824L159.655 24.3669L162.211 23.0246L159.77 21.4824ZM179.828 59.1351L161.038 23.3582L160.595 23.5907L179.386 59.3675L179.828 59.1351Z" fill="url(#paint3_linear_4353_101579)"/>
<path d="M226.582 34.3247L224.031 35.6772L226.478 37.2096L226.582 34.3247ZM204.149 70.6123L225.599 36.3642L225.176 36.0988L203.725 70.3469L204.149 70.6123Z" fill="url(#paint4_linear_4353_101579)"/>
<path d="M22.776 131.183L25.4341 132.309L25.0802 129.444L22.776 131.183ZM110.996 120.035L24.9784 130.659L25.0397 131.156L111.057 120.531L110.996 120.035Z" fill="url(#paint5_linear_4353_101579)"/>
<path d="M83.4132 140.701L86.2076 141.425L85.4376 138.643L83.4132 140.701ZM139.612 124.886L85.515 139.86L85.6484 140.342L139.745 125.368L139.612 124.886Z" fill="url(#paint6_linear_4353_101579)"/>
<path d="M58.5526 113.631L60.7877 115.457L61.2522 112.608L58.5526 113.631ZM91.6999 118.782L60.8135 113.746L60.733 114.239L91.6194 119.275L91.6999 118.782Z" fill="url(#paint7_linear_4353_101579)"/>
<path d="M271.871 162.714L270.248 160.327L268.992 162.926L271.871 162.714ZM241.558 148.347L269.736 161.96L269.954 161.51L241.776 147.896L241.558 148.347Z" fill="url(#paint8_linear_4353_101579)"/>
<path d="M348.902 175.633L347.147 173.342L346.039 176.007L348.902 175.633ZM282.072 148.147L346.728 175.001L346.92 174.54L282.264 147.685L282.072 148.147Z" fill="url(#paint9_linear_4353_101579)"/>
<path d="M338.206 66.5257L335.32 66.5683L336.8 69.0467L338.206 66.5257ZM304.479 86.9584L336.403 67.8939L336.146 67.4647L304.222 86.5291L304.479 86.9584Z" fill="url(#paint10_linear_4353_101579)"/>
<path d="M348.748 86.6479L346.058 85.5998L346.496 88.4533L348.748 86.6479ZM224.287 105.971L346.562 87.2358L346.486 86.7416L224.211 105.476L224.287 105.971Z" fill="url(#paint11_linear_4353_101579)"/>
<circle cx="109.972" cy="64.2541" r="3.04773" transform="rotate(-9.50119 109.972 64.2541)" stroke="#008B4F"/>
<circle cx="320.19" cy="116.61" r="3.04773" stroke="#008B4F"/>
<circle cx="285.216" cy="52.8766" r="3.04773" stroke="#008B4F"/>
<circle cx="257.518" cy="112.977" r="3.04773" stroke="#DDDFDE"/>
<rect width="400" height="210" fill="url(#paint12_radial_4353_101579)"/>
<path fill-rule="evenodd" clip-rule="evenodd" d="M241.062 113.428C240.565 111.926 239.266 110.879 237.584 110.628C236.792 110.509 235.884 110.56 234.81 110.781C232.938 111.167 231.548 111.314 230.535 111.343C234.361 104.882 237.473 97.5149 239.264 90.5797C242.16 79.366 240.612 74.2574 238.804 71.9464C234.017 65.8304 227.034 62.5446 218.608 62.4438C214.114 62.389 210.168 63.2764 208.11 63.9144C206.194 63.5764 204.133 63.3876 201.971 63.3526C197.918 63.288 194.337 64.1714 191.278 65.9871C189.583 65.4145 186.865 64.607 183.725 64.0915C176.341 62.8792 170.39 63.824 166.037 66.8992C160.765 70.6227 158.322 77.0919 158.774 86.1274C158.917 88.9963 160.522 97.7244 163.049 106.002C164.501 110.76 166.049 114.711 167.651 117.747C169.923 122.051 172.353 124.586 175.082 125.496C176.611 126.006 179.39 126.362 182.313 123.929C182.684 124.377 183.178 124.823 183.834 125.237C184.667 125.762 185.685 126.192 186.703 126.446C190.369 127.363 193.803 127.133 196.733 125.849C196.751 126.37 196.765 126.868 196.777 127.297C196.796 127.995 196.815 128.678 196.841 129.318C197.014 133.641 197.309 137.003 198.18 139.355C198.228 139.485 198.292 139.682 198.36 139.891C198.795 141.222 199.522 143.451 201.372 145.196C203.287 147.004 205.604 147.559 207.726 147.559C208.79 147.559 209.806 147.419 210.696 147.228C213.871 146.548 217.476 145.511 220.085 141.798C222.55 138.287 223.749 132.999 223.966 124.667C223.994 124.432 224.02 124.207 224.045 123.992C224.062 123.848 224.079 123.7 224.096 123.552L224.677 123.603L224.827 123.613C228.061 123.761 232.014 123.075 234.442 121.947C236.361 121.057 242.509 117.811 241.062 113.428Z" fill="white"/>
<path fill-rule="evenodd" clip-rule="evenodd" d="M241.062 113.428C240.565 111.926 239.266 110.879 237.584 110.628C236.792 110.509 235.884 110.56 234.81 110.781C232.938 111.167 231.548 111.314 230.535 111.343C234.361 104.882 237.473 97.5149 239.264 90.5797C242.16 79.366 240.612 74.2574 238.804 71.9464C234.017 65.8304 227.034 62.5446 218.608 62.4438C214.114 62.389 210.168 63.2764 208.11 63.9144C206.194 63.5764 204.133 63.3876 201.971 63.3526C197.918 63.288 194.337 64.1714 191.278 65.9871C189.583 65.4145 186.865 64.607 183.725 64.0915C176.341 62.8792 170.39 63.824 166.037 66.8992C160.765 70.6227 158.322 77.0919 158.774 86.1274C158.917 88.9963 160.522 97.7244 163.049 106.002C164.501 110.76 166.049 114.711 167.651 117.747C169.923 122.051 172.353 124.586 175.082 125.496C176.611 126.006 179.39 126.362 182.313 123.929C182.684 124.377 183.178 124.823 183.834 125.237C184.667 125.762 185.685 126.192 186.703 126.446C190.369 127.363 193.803 127.133 196.733 125.849C196.751 126.37 196.765 126.868 196.777 127.297C196.796 127.995 196.815 128.678 196.841 129.318C197.014 133.641 197.309 137.003 198.18 139.355C198.228 139.485 198.292 139.682 198.36 139.891C198.795 141.222 199.522 143.451 201.372 145.196C203.287 147.004 205.604 147.559 207.726 147.559C208.79 147.559 209.806 147.419 210.696 147.228C213.871 146.548 217.476 145.511 220.085 141.798C222.55 138.287 223.749 132.999 223.966 124.667C223.994 124.432 224.02 124.207 224.045 123.992C224.062 123.848 224.079 123.7 224.096 123.552L224.677 123.603L224.827 123.613C228.061 123.761 232.014 123.075 234.442 121.947C236.361 121.057 242.509 117.811 241.062 113.428M193.563 88.6822C192.696 88.5616 191.912 88.6732 191.515 88.9737C191.291 89.1428 191.222 89.3387 191.204 89.4737C191.154 89.8309 191.404 90.2257 191.558 90.4295C191.993 91.0061 192.629 91.4025 193.258 91.4899C193.349 91.5025 193.44 91.5086 193.53 91.5086C194.579 91.5086 195.533 90.6917 195.617 90.0887C195.722 89.3336 194.626 88.8301 193.563 88.6822M222.262 88.704H222.262C222.179 88.1121 221.126 87.9434 220.126 88.0823C219.128 88.2214 218.16 88.6719 218.241 89.2652C218.306 89.7266 219.139 90.5142 220.125 90.514C220.208 90.514 220.292 90.5085 220.377 90.4966C221.035 90.4054 221.518 89.9875 221.747 89.7464C222.097 89.3795 222.299 88.9701 222.262 88.704M238.733 114.055C238.367 112.946 237.187 112.59 235.227 112.995C229.406 114.196 227.322 113.364 226.637 112.86C231.161 105.967 234.883 97.6362 236.891 89.8629C237.842 86.1809 238.368 82.7614 238.41 79.9744C238.458 76.9149 237.937 74.667 236.862 73.2938C232.53 67.7576 226.171 64.7881 218.474 64.7065C213.182 64.6471 208.712 66.0014 207.845 66.3821C206.02 65.9282 204.03 65.6495 201.864 65.614C197.891 65.5497 194.458 66.5008 191.615 68.4392C190.38 67.9797 187.188 66.8842 183.286 66.2556C176.538 65.169 171.176 65.9922 167.35 68.7029C162.784 71.9376 160.677 77.7195 161.085 85.8879C161.223 88.6363 162.788 97.0904 165.26 105.187C168.512 115.843 172.048 121.876 175.768 123.117C176.204 123.262 176.706 123.364 177.26 123.364C178.617 123.364 180.281 122.752 182.012 120.671C184.887 117.211 187.572 114.312 188.562 113.259C190.024 114.044 191.631 114.482 193.274 114.526C193.277 114.569 193.281 114.612 193.285 114.655C192.955 115.046 192.685 115.389 192.455 115.682C191.316 117.127 191.079 117.428 187.414 118.183C186.372 118.398 183.602 118.968 183.562 120.909C183.518 123.03 186.835 123.92 187.213 124.015C188.53 124.344 189.799 124.507 191.009 124.507C193.952 124.507 196.541 123.54 198.611 121.668C198.547 129.228 198.862 136.678 199.77 138.948C200.513 140.806 202.33 145.347 208.067 145.347C208.908 145.347 209.835 145.249 210.854 145.03C216.841 143.746 219.441 141.1 220.447 135.266C220.985 132.148 221.909 124.703 222.343 120.709C223.26 120.995 224.441 121.126 225.717 121.126C228.378 121.126 231.448 120.561 233.374 119.667C235.537 118.662 239.441 116.197 238.733 114.055V114.055V114.055ZM224.474 87.0687C224.454 88.2478 224.292 89.3181 224.12 90.4354C223.935 91.637 223.743 92.8794 223.695 94.3875C223.647 95.8552 223.831 97.3812 224.008 98.8566C224.366 101.837 224.734 104.906 223.311 107.933C223.09 107.541 222.876 107.112 222.68 106.638C222.504 106.209 222.12 105.52 221.588 104.567C219.519 100.857 214.675 92.1699 217.155 88.6249C217.893 87.5695 219.768 86.4848 224.474 87.0687V87.0687V87.0687ZM218.77 67.0946C225.666 67.2469 231.122 69.827 234.984 74.7626C237.947 78.5484 234.685 95.7746 225.241 110.636C225.148 110.517 225.053 110.398 224.955 110.275C224.915 110.226 224.875 110.176 224.835 110.125C227.275 106.095 226.798 102.108 226.373 98.5722C226.199 97.1213 226.034 95.7509 226.076 94.4639C226.119 93.0993 226.3 91.9294 226.474 90.7979C226.689 89.4034 226.907 87.9608 226.847 86.26C226.892 86.0817 226.91 85.8709 226.886 85.6207C226.733 83.9896 224.871 79.1088 221.075 74.6905C218.999 72.2743 215.972 69.5701 211.838 67.7462C213.616 67.3777 216.048 67.034 218.77 67.0946V67.0946V67.0946ZM180.18 119.146C178.273 121.439 176.956 121 176.523 120.856C173.7 119.914 170.426 113.949 167.538 104.49C165.04 96.3056 163.58 88.0755 163.465 85.7677C163.1 78.469 164.869 73.3821 168.724 70.6486C174.996 66.2002 185.31 68.8628 189.454 70.2133C189.394 70.2719 189.332 70.327 189.273 70.3866C182.473 77.2544 182.634 88.988 182.651 89.7051C182.65 89.9818 182.673 90.3737 182.705 90.9126C182.822 92.886 183.04 96.5591 182.458 100.719C181.918 104.584 183.109 108.367 185.727 111.099C185.998 111.381 186.281 111.647 186.573 111.897C185.408 113.144 182.875 115.904 180.18 119.146V119.146V119.146ZM187.444 109.454C185.334 107.253 184.376 104.191 184.815 101.052C185.429 96.6582 185.203 92.8312 185.081 90.7753C185.064 90.4876 185.049 90.2355 185.04 90.0366C186.033 89.1559 190.637 86.689 193.92 87.4413C195.418 87.7845 196.331 88.8046 196.71 90.5595C198.675 99.6443 196.971 103.431 195.601 106.474C195.319 107.101 195.052 107.693 194.824 108.306L194.648 108.78C194.201 109.978 193.785 111.092 193.528 112.15C191.285 112.143 189.103 111.185 187.444 109.454V109.454V109.454ZM187.791 121.703C187.136 121.539 186.547 121.255 186.201 121.019C186.49 120.883 187.004 120.699 187.894 120.515C192.206 119.627 192.872 119.001 194.326 117.155C194.659 116.732 195.037 116.252 195.56 115.667C195.561 115.667 195.561 115.667 195.561 115.667C196.341 114.794 196.697 114.942 197.344 115.21C197.868 115.427 198.378 116.084 198.585 116.806C198.683 117.148 198.793 117.796 198.433 118.3C195.395 122.553 190.969 122.498 187.791 121.703V121.703V121.703ZM210.351 142.706C205.076 143.836 203.209 141.145 201.978 138.068C201.184 136.082 200.794 127.125 201.071 117.234C201.074 117.102 201.055 116.975 201.019 116.856C200.988 116.625 200.939 116.392 200.872 116.157C200.46 114.718 199.456 113.514 198.252 113.015C197.774 112.817 196.895 112.453 195.84 112.723C196.065 111.796 196.456 110.749 196.879 109.615L197.056 109.138C197.256 108.6 197.507 108.043 197.772 107.454C199.205 104.27 201.168 99.9096 199.038 90.0584C198.24 86.3687 195.575 84.5669 191.536 84.9853C189.115 85.2359 186.899 86.2129 185.795 86.7731C185.557 86.8935 185.34 87.0097 185.137 87.123C185.445 83.4053 186.61 76.4576 190.969 72.0619C193.713 69.2944 197.367 67.9276 201.82 68.0012C210.594 68.145 216.22 72.6475 219.395 76.3995C222.131 79.6328 223.613 82.8896 224.204 84.646C219.758 84.194 216.734 85.0719 215.2 87.2635C211.865 92.031 217.025 101.285 219.505 105.732C219.96 106.547 220.352 107.251 220.476 107.55C221.283 109.508 222.329 110.814 223.092 111.768C223.326 112.06 223.553 112.344 223.726 112.591C222.379 112.98 219.96 113.877 220.18 118.361C220.002 120.611 218.738 131.145 218.096 134.867C217.248 139.784 215.438 141.615 210.351 142.706V142.706V142.706ZM232.368 117.505C230.991 118.144 228.687 118.624 226.497 118.726C224.079 118.84 222.848 118.456 222.559 118.219C222.423 115.425 223.463 115.133 224.564 114.824C224.737 114.775 224.906 114.728 225.068 114.671C225.17 114.754 225.281 114.835 225.402 114.915C227.345 116.198 230.812 116.337 235.706 115.327C235.724 115.323 235.742 115.319 235.76 115.316C235.1 115.933 233.97 116.761 232.368 117.505V117.505V117.505Z" fill="url(#paint13_linear_4353_101579)" fill-opacity="0.9"/>
<path d="M116.381 66.9829L119.811 71.627L122.118 66.3343L116.381 66.9829ZM188.523 97.8809L120.706 68.3225L120.307 69.2392L188.124 98.7976L188.523 97.8809Z" fill="url(#paint14_linear_4353_101579)"/>
<path d="M275.136 59.2686L269.375 58.8975L271.934 64.0727L275.136 59.2686ZM246.01 74.2307L271.324 61.7117L270.881 60.8153L245.567 73.3344L246.01 74.2307Z" fill="url(#paint15_linear_4353_101579)"/>
<path d="M313.313 116.61L308.498 113.424L308.146 119.187L313.313 116.61ZM262.192 113.992L308.79 116.835L308.851 115.837L262.253 112.994L262.192 113.992Z" fill="url(#paint16_linear_4353_101579)"/>
<path d="M137.386 159.843L143.155 160.073L140.47 154.962L137.386 159.843ZM190.26 131.502L141.137 157.307L141.602 158.193L190.725 132.387L190.26 131.502Z" fill="url(#paint17_linear_4353_101579)"/>
<circle cx="179.001" cy="137.338" r="3.04773" transform="rotate(-9.50119 179.001 137.338)" stroke="#DDDFDE"/>
<circle cx="130.257" cy="162.48" r="3.04773" transform="rotate(-9.50119 130.257 162.48)" stroke="#008B4F"/>
<path d="M74.2695 167.173H72.7255V159.709H74.2695V160.317H73.3815V166.573H74.2695V167.173ZM74.8702 165.477C74.8702 165.165 75.1102 164.917 75.4222 164.917C75.7342 164.917 75.9822 165.165 75.9822 165.477C75.9822 165.789 75.7342 166.029 75.4222 166.029C75.1102 166.029 74.8702 165.789 74.8702 165.477ZM79.0726 164.021H76.9046V163.365H79.0726V164.021ZM80.6112 163.397C80.6112 164.189 80.7552 164.749 81.0672 165.077C81.2672 165.285 81.5232 165.413 81.8912 165.413C82.2592 165.413 82.5152 165.285 82.7152 165.077C83.0272 164.749 83.1712 164.189 83.1712 163.397C83.1712 162.605 83.0272 162.045 82.7152 161.717C82.5152 161.509 82.2592 161.381 81.8912 161.381C81.5232 161.381 81.2672 161.509 81.0672 161.717C80.7552 162.045 80.6112 162.605 80.6112 163.397ZM79.8352 163.397C79.8352 162.685 79.9552 162.029 80.2992 161.517C80.6352 161.013 81.1552 160.685 81.8912 160.685C82.6272 160.685 83.1472 161.013 83.4832 161.517C83.8272 162.029 83.9472 162.685 83.9472 163.397C83.9472 164.109 83.8272 164.765 83.4832 165.277C83.1472 165.781 82.6272 166.109 81.8912 166.109C81.1552 166.109 80.6352 165.781 80.2992 165.277C79.9552 164.765 79.8352 164.109 79.8352 163.397ZM86.5342 165.989H85.7662V162.333H84.5102V161.781C85.2302 161.765 85.7262 161.365 85.8462 160.805H86.5342V165.989ZM87.6124 165.477C87.6124 165.189 87.8604 164.941 88.1964 164.941C88.5404 164.941 88.8444 165.197 88.8444 165.701C88.8444 166.757 88.1564 167.197 87.6604 167.261V166.845C88.0524 166.757 88.3164 166.365 88.3244 165.981C88.3004 165.997 88.2364 166.021 88.1484 166.021C87.8524 166.021 87.6124 165.821 87.6124 165.477ZM91.964 165.477C91.964 165.165 92.204 164.917 92.516 164.917C92.828 164.917 93.076 165.165 93.076 165.477C93.076 165.789 92.828 166.029 92.516 166.029C92.204 166.029 91.964 165.789 91.964 165.477ZM96.1664 164.021H93.9984V163.365H96.1664V164.021ZM97.657 162.669L96.873 162.573C96.865 162.501 96.865 162.429 96.865 162.365C96.865 161.477 97.521 160.685 98.657 160.685C99.769 160.685 100.409 161.413 100.409 162.277C100.409 162.957 100.025 163.501 99.433 163.877L98.409 164.533C98.113 164.725 97.849 164.941 97.777 165.261H100.441V165.989H96.809C96.825 165.141 97.161 164.493 98.041 163.925L98.905 163.365C99.393 163.053 99.617 162.685 99.617 162.285C99.617 161.813 99.297 161.373 98.641 161.373C97.961 161.373 97.641 161.845 97.641 162.437C97.641 162.509 97.649 162.589 97.657 162.669ZM101.323 165.477C101.323 165.189 101.571 164.941 101.907 164.941C102.251 164.941 102.555 165.197 102.555 165.701C102.555 166.757 101.867 167.197 101.371 167.261V166.845C101.763 166.757 102.027 166.365 102.035 165.981C102.011 165.997 101.947 166.021 101.859 166.021C101.563 166.021 101.323 165.821 101.323 165.477ZM105.675 165.477C105.675 165.165 105.915 164.917 106.227 164.917C106.539 164.917 106.787 165.165 106.787 165.477C106.787 165.789 106.539 166.029 106.227 166.029C105.915 166.029 105.675 165.789 105.675 165.477ZM109.877 164.021H107.709V163.365H109.877V164.021ZM111.416 163.397C111.416 164.189 111.56 164.749 111.872 165.077C112.072 165.285 112.328 165.413 112.696 165.413C113.064 165.413 113.32 165.285 113.52 165.077C113.832 164.749 113.976 164.189 113.976 163.397C113.976 162.605 113.832 162.045 113.52 161.717C113.32 161.509 113.064 161.381 112.696 161.381C112.328 161.381 112.072 161.509 111.872 161.717C111.56 162.045 111.416 162.605 111.416 163.397ZM110.64 163.397C110.64 162.685 110.76 162.029 111.104 161.517C111.44 161.013 111.96 160.685 112.696 160.685C113.432 160.685 113.952 161.013 114.288 161.517C114.632 162.029 114.752 162.685 114.752 163.397C114.752 164.109 114.632 164.765 114.288 165.277C113.952 165.781 113.432 166.109 112.696 166.109C111.96 166.109 111.44 165.781 111.104 165.277C110.76 164.765 110.64 164.109 110.64 163.397ZM116.282 162.669L115.498 162.573C115.49 162.501 115.49 162.429 115.49 162.365C115.49 161.477 116.146 160.685 117.282 160.685C118.394 160.685 119.034 161.413 119.034 162.277C119.034 162.957 118.65 163.501 118.058 163.877L117.034 164.533C116.738 164.725 116.474 164.941 116.402 165.261H119.066V165.989H115.434C115.45 165.141 115.786 164.493 116.666 163.925L117.53 163.365C118.018 163.053 118.242 162.685 118.242 162.285C118.242 161.813 117.922 161.373 117.266 161.373C116.586 161.373 116.266 161.845 116.266 162.437C116.266 162.509 116.274 162.589 116.282 162.669ZM120.972 167.173H119.428V166.573H120.316V160.317H119.428V159.709H120.972V167.173Z" fill="url(#paint18_linear_4353_101579)"/>
<path d="M338.186 120.695H336.642V113.231H338.186V113.839H337.298V120.095H338.186V120.695ZM338.786 118.999C338.786 118.687 339.026 118.439 339.338 118.439C339.65 118.439 339.898 118.687 339.898 118.999C339.898 119.311 339.65 119.551 339.338 119.551C339.026 119.551 338.786 119.311 338.786 118.999ZM341.48 116.919C341.48 117.711 341.624 118.271 341.936 118.599C342.136 118.807 342.392 118.935 342.76 118.935C343.128 118.935 343.384 118.807 343.584 118.599C343.896 118.271 344.04 117.711 344.04 116.919C344.04 116.127 343.896 115.567 343.584 115.239C343.384 115.031 343.128 114.903 342.76 114.903C342.392 114.903 342.136 115.031 341.936 115.239C341.624 115.567 341.48 116.127 341.48 116.919ZM340.704 116.919C340.704 116.207 340.824 115.551 341.168 115.039C341.504 114.535 342.024 114.207 342.76 114.207C343.496 114.207 344.016 114.535 344.352 115.039C344.696 115.551 344.816 116.207 344.816 116.919C344.816 117.631 344.696 118.287 344.352 118.799C344.016 119.303 343.496 119.631 342.76 119.631C342.024 119.631 341.504 119.303 341.168 118.799C340.824 118.287 340.704 117.631 340.704 116.919ZM346.979 117.103L346.595 116.455L348.123 115.047H345.643V114.327H349.163V115.031L347.683 116.399C348.443 116.399 349.283 116.911 349.283 117.975C349.283 118.847 348.611 119.639 347.403 119.639C346.203 119.639 345.523 118.855 345.475 118.007L346.243 117.831C346.275 118.519 346.771 118.951 347.395 118.951C348.107 118.951 348.491 118.511 348.491 117.991C348.491 117.311 347.947 117.023 347.435 117.023C347.275 117.023 347.115 117.055 346.979 117.103ZM350.083 118.999C350.083 118.711 350.331 118.463 350.667 118.463C351.011 118.463 351.315 118.719 351.315 119.223C351.315 120.279 350.627 120.719 350.131 120.783V120.367C350.523 120.279 350.787 119.887 350.795 119.503C350.771 119.519 350.707 119.543 350.619 119.543C350.323 119.543 350.083 119.343 350.083 118.999ZM354.435 118.999C354.435 118.687 354.675 118.439 354.987 118.439C355.299 118.439 355.547 118.687 355.547 118.999C355.547 119.311 355.299 119.551 354.987 119.551C354.675 119.551 354.435 119.311 354.435 118.999ZM357.909 117.103L357.525 116.455L359.053 115.047H356.573V114.327H360.093V115.031L358.613 116.399C359.373 116.399 360.213 116.911 360.213 117.975C360.213 118.847 359.541 119.639 358.333 119.639C357.133 119.639 356.453 118.855 356.405 118.007L357.173 117.831C357.205 118.519 357.701 118.951 358.325 118.951C359.037 118.951 359.421 118.511 359.421 117.991C359.421 117.311 358.877 117.023 358.365 117.023C358.205 117.023 358.045 117.055 357.909 117.103ZM361.013 118.999C361.013 118.711 361.261 118.463 361.597 118.463C361.941 118.463 362.245 118.719 362.245 119.223C362.245 120.279 361.557 120.719 361.061 120.783V120.367C361.453 120.279 361.717 119.887 361.725 119.503C361.701 119.519 361.637 119.543 361.549 119.543C361.253 119.543 361.013 119.343 361.013 118.999ZM365.364 118.999C365.364 118.687 365.604 118.439 365.916 118.439C366.228 118.439 366.476 118.687 366.476 118.999C366.476 119.311 366.228 119.551 365.916 119.551C365.604 119.551 365.364 119.311 365.364 118.999ZM368.058 116.919C368.058 117.711 368.202 118.271 368.514 118.599C368.714 118.807 368.97 118.935 369.338 118.935C369.706 118.935 369.962 118.807 370.162 118.599C370.474 118.271 370.618 117.711 370.618 116.919C370.618 116.127 370.474 115.567 370.162 115.239C369.962 115.031 369.706 114.903 369.338 114.903C368.97 114.903 368.714 115.031 368.514 115.239C368.202 115.567 368.058 116.127 368.058 116.919ZM367.282 116.919C367.282 116.207 367.402 115.551 367.746 115.039C368.082 114.535 368.602 114.207 369.338 114.207C370.074 114.207 370.594 114.535 370.93 115.039C371.274 115.551 371.394 116.207 371.394 116.919C371.394 117.631 371.274 118.287 370.93 118.799C370.594 119.303 370.074 119.631 369.338 119.631C368.602 119.631 368.082 119.303 367.746 118.799C367.402 118.287 367.282 117.631 367.282 116.919ZM373.557 117.103L373.173 116.455L374.701 115.047H372.221V114.327H375.741V115.031L374.261 116.399C375.021 116.399 375.861 116.911 375.861 117.975C375.861 118.847 375.189 119.639 373.981 119.639C372.781 119.639 372.101 118.855 372.053 118.007L372.821 117.831C372.853 118.519 373.349 118.951 373.973 118.951C374.685 118.951 375.069 118.511 375.069 117.991C375.069 117.311 374.525 117.023 374.013 117.023C373.853 117.023 373.693 117.055 373.557 117.103ZM377.763 120.695H376.219V120.095H377.107V113.839H376.219V113.231H377.763V120.695Z" fill="url(#paint19_linear_4353_101579)"/>
<path d="M300.744 56.7239H299.2V49.2599H300.744V49.8679H299.856V56.1239H300.744V56.7239ZM301.345 55.0279C301.345 54.7159 301.585 54.4679 301.897 54.4679C302.209 54.4679 302.457 54.7159 302.457 55.0279C302.457 55.3399 302.209 55.5799 301.897 55.5799C301.585 55.5799 301.345 55.3399 301.345 55.0279ZM304.039 52.9479C304.039 53.7399 304.183 54.2999 304.495 54.6279C304.695 54.8359 304.951 54.9639 305.319 54.9639C305.687 54.9639 305.943 54.8359 306.143 54.6279C306.455 54.2999 306.599 53.7399 306.599 52.9479C306.599 52.1559 306.455 51.5959 306.143 51.2679C305.943 51.0599 305.687 50.9319 305.319 50.9319C304.951 50.9319 304.695 51.0599 304.495 51.2679C304.183 51.5959 304.039 52.1559 304.039 52.9479ZM303.263 52.9479C303.263 52.2359 303.383 51.5799 303.727 51.0679C304.063 50.5639 304.583 50.2359 305.319 50.2359C306.055 50.2359 306.575 50.5639 306.911 51.0679C307.255 51.5799 307.375 52.2359 307.375 52.9479C307.375 53.6599 307.255 54.3159 306.911 54.8279C306.575 55.3319 306.055 55.6599 305.319 55.6599C304.583 55.6599 304.063 55.3319 303.727 54.8279C303.383 54.3159 303.263 53.6599 303.263 52.9479ZM308.018 54.1319L308.77 53.9079C308.818 54.5479 309.29 54.9799 309.938 54.9799C310.554 54.9799 311.05 54.5719 311.05 53.9319C311.05 53.2199 310.53 52.8599 309.93 52.8599C309.562 52.8599 309.21 53.0039 308.986 53.2359C308.714 53.1319 308.482 53.0279 308.218 52.9319L308.89 50.3559H311.626V51.0759H309.41L309.026 52.5639C309.258 52.3079 309.674 52.1799 310.082 52.1799C311.098 52.1799 311.842 52.8279 311.842 53.8999C311.842 54.8759 311.09 55.6679 309.938 55.6679C308.834 55.6679 308.09 54.9479 308.018 54.1319ZM312.603 55.0279C312.603 54.7399 312.851 54.4919 313.187 54.4919C313.531 54.4919 313.835 54.7479 313.835 55.2519C313.835 56.3079 313.147 56.7479 312.651 56.8119V56.3959C313.043 56.3079 313.307 55.9159 313.315 55.5319C313.291 55.5479 313.227 55.5719 313.139 55.5719C312.843 55.5719 312.603 55.3719 312.603 55.0279ZM316.954 55.0279C316.954 54.7159 317.194 54.4679 317.506 54.4679C317.818 54.4679 318.066 54.7159 318.066 55.0279C318.066 55.3399 317.818 55.5799 317.506 55.5799C317.194 55.5799 316.954 55.3399 316.954 55.0279ZM318.51 54.3719V53.4679L320.734 50.3559H321.814V53.6439H322.702V54.3719H321.814V55.5399H321.054V54.3719H318.51ZM321.054 53.6439V51.1079L319.23 53.6439H321.054ZM323.384 55.0279C323.384 54.7399 323.632 54.4919 323.968 54.4919C324.312 54.4919 324.616 54.7479 324.616 55.2519C324.616 56.3079 323.928 56.7479 323.432 56.8119V56.3959C323.824 56.3079 324.088 55.9159 324.096 55.5319C324.072 55.5479 324.008 55.5719 323.92 55.5719C323.624 55.5719 323.384 55.3719 323.384 55.0279ZM327.735 55.0279C327.735 54.7159 327.975 54.4679 328.287 54.4679C328.599 54.4679 328.847 54.7159 328.847 55.0279C328.847 55.3399 328.599 55.5799 328.287 55.5799C327.975 55.5799 327.735 55.3399 327.735 55.0279ZM330.43 52.9479C330.43 53.7399 330.574 54.2999 330.886 54.6279C331.086 54.8359 331.342 54.9639 331.71 54.9639C332.078 54.9639 332.334 54.8359 332.534 54.6279C332.846 54.2999 332.99 53.7399 332.99 52.9479C332.99 52.1559 332.846 51.5959 332.534 51.2679C332.334 51.0599 332.078 50.9319 331.71 50.9319C331.342 50.9319 331.086 51.0599 330.886 51.2679C330.574 51.5959 330.43 52.1559 330.43 52.9479ZM329.654 52.9479C329.654 52.2359 329.774 51.5799 330.118 51.0679C330.454 50.5639 330.974 50.2359 331.71 50.2359C332.446 50.2359 332.966 50.5639 333.302 51.0679C333.646 51.5799 333.766 52.2359 333.766 52.9479C333.766 53.6599 333.646 54.3159 333.302 54.8279C332.966 55.3319 332.446 55.6599 331.71 55.6599C330.974 55.6599 330.454 55.3319 330.118 54.8279C329.774 54.3159 329.654 53.6599 329.654 52.9479ZM335.296 52.2199L334.512 52.1239C334.504 52.0519 334.504 51.9799 334.504 51.9159C334.504 51.0279 335.16 50.2359 336.296 50.2359C337.408 50.2359 338.048 50.9639 338.048 51.8279C338.048 52.5079 337.664 53.0519 337.072 53.4279L336.048 54.0839C335.752 54.2759 335.488 54.4919 335.416 54.8119H338.08V55.5399H334.448C334.464 54.6919 334.8 54.0439 335.68 53.4759L336.544 52.9159C337.032 52.6039 337.256 52.2359 337.256 51.8359C337.256 51.3639 336.936 50.9239 336.28 50.9239C335.6 50.9239 335.28 51.3959 335.28 51.9879C335.28 52.0599 335.288 52.1399 335.296 52.2199ZM339.986 56.7239H338.442V56.1239H339.33V49.8679H338.442V49.2599H339.986V56.7239Z" fill="url(#paint20_linear_4353_101579)"/>
<path d="M55.6582 67.3791H54.1142V59.9151H55.6582V60.5231H54.7702V66.7791H55.6582V67.3791ZM56.2589 65.6831C56.2589 65.3711 56.4989 65.1231 56.8109 65.1231C57.1229 65.1231 57.3709 65.3711 57.3709 65.6831C57.3709 65.9951 57.1229 66.2351 56.8109 66.2351C56.4989 66.2351 56.2589 65.9951 56.2589 65.6831ZM60.4613 64.2271H58.2933V63.5711H60.4613V64.2271ZM61.9999 63.6031C61.9999 64.3951 62.1439 64.9551 62.4559 65.2831C62.6559 65.4911 62.9119 65.6191 63.2799 65.6191C63.6479 65.6191 63.9039 65.4911 64.1039 65.2831C64.4159 64.9551 64.5599 64.3951 64.5599 63.6031C64.5599 62.8111 64.4159 62.2511 64.1039 61.9231C63.9039 61.7151 63.6479 61.5871 63.2799 61.5871C62.9119 61.5871 62.6559 61.7151 62.4559 61.9231C62.1439 62.2511 61.9999 62.8111 61.9999 63.6031ZM61.2239 63.6031C61.2239 62.8911 61.3439 62.2351 61.6879 61.7231C62.0239 61.2191 62.5439 60.8911 63.2799 60.8911C64.0159 60.8911 64.5359 61.2191 64.8719 61.7231C65.2159 62.2351 65.3359 62.8911 65.3359 63.6031C65.3359 64.3151 65.2159 64.9711 64.8719 65.4831C64.5359 65.9871 64.0159 66.3151 63.2799 66.3151C62.5439 66.3151 62.0239 65.9871 61.6879 65.4831C61.3439 64.9711 61.2239 64.3151 61.2239 63.6031ZM67.4989 63.7871L67.1149 63.1391L68.6429 61.7311H66.1629V61.0111H69.6829V61.7151L68.2029 63.0831C68.9629 63.0831 69.8029 63.5951 69.8029 64.6591C69.8029 65.5311 69.1309 66.3231 67.9229 66.3231C66.7229 66.3231 66.0429 65.5391 65.9949 64.6911L66.7629 64.5151C66.7949 65.2031 67.2909 65.6351 67.9149 65.6351C68.6269 65.6351 69.0109 65.1951 69.0109 64.6751C69.0109 63.9951 68.4669 63.7071 67.9549 63.7071C67.7949 63.7071 67.6349 63.7391 67.4989 63.7871ZM70.6027 65.6831C70.6027 65.3951 70.8507 65.1471 71.1867 65.1471C71.5307 65.1471 71.8347 65.4031 71.8347 65.9071C71.8347 66.9631 71.1467 67.4031 70.6507 67.4671V67.0511C71.0427 66.9631 71.3067 66.5711 71.3147 66.1871C71.2907 66.2031 71.2267 66.2271 71.1387 66.2271C70.8427 66.2271 70.6027 66.0271 70.6027 65.6831ZM74.9542 65.6831C74.9542 65.3711 75.1942 65.1231 75.5062 65.1231C75.8182 65.1231 76.0662 65.3711 76.0662 65.6831C76.0662 65.9951 75.8182 66.2351 75.5062 66.2351C75.1942 66.2351 74.9542 65.9951 74.9542 65.6831ZM79.1566 64.2271H76.9886V63.5711H79.1566V64.2271ZM81.587 66.1951H80.819V62.5391H79.563V61.9871C80.283 61.9711 80.779 61.5711 80.899 61.0111H81.587V66.1951ZM82.6652 65.6831C82.6652 65.3951 82.9132 65.1471 83.2492 65.1471C83.5932 65.1471 83.8972 65.4031 83.8972 65.9071C83.8972 66.9631 83.2092 67.4031 82.7132 67.4671V67.0511C83.1052 66.9631 83.3692 66.5711 83.3772 66.1871C83.3532 66.2031 83.2892 66.2271 83.2012 66.2271C82.9052 66.2271 82.6652 66.0271 82.6652 65.6831ZM87.0167 65.6831C87.0167 65.3711 87.2567 65.1231 87.5687 65.1231C87.8807 65.1231 88.1287 65.3711 88.1287 65.6831C88.1287 65.9951 87.8807 66.2351 87.5687 66.2351C87.2567 66.2351 87.0167 65.9951 87.0167 65.6831ZM89.7108 63.6031C89.7108 64.3951 89.8548 64.9551 90.1668 65.2831C90.3668 65.4911 90.6228 65.6191 90.9908 65.6191C91.3588 65.6191 91.6148 65.4911 91.8148 65.2831C92.1268 64.9551 92.2708 64.3951 92.2708 63.6031C92.2708 62.8111 92.1268 62.2511 91.8148 61.9231C91.6148 61.7151 91.3588 61.5871 90.9908 61.5871C90.6228 61.5871 90.3668 61.7151 90.1668 61.9231C89.8548 62.2511 89.7108 62.8111 89.7108 63.6031ZM88.9348 63.6031C88.9348 62.8911 89.0548 62.2351 89.3988 61.7231C89.7348 61.2191 90.2548 60.8911 90.9908 60.8911C91.7268 60.8911 92.2468 61.2191 92.5828 61.7231C92.9268 62.2351 93.0468 62.8911 93.0468 63.6031C93.0468 64.3151 92.9268 64.9711 92.5828 65.4831C92.2468 65.9871 91.7268 66.3151 90.9908 66.3151C90.2548 66.3151 89.7348 65.9871 89.3988 65.4831C89.0548 64.9711 88.9348 64.3151 88.9348 63.6031ZM95.6338 66.1951H94.8658V62.5391H93.6098V61.9871C94.3298 61.9711 94.8258 61.5711 94.9458 61.0111H95.6338V66.1951ZM97.8923 67.3791H96.3483V66.7791H97.2363V60.5231H96.3483V59.9151H97.8923V67.3791Z" fill="url(#paint21_linear_4353_101579)"/>
</g>
<defs>
<radialGradient id="paint0_radial_4353_101579" cx="0" cy="0" r="1" gradientUnits="userSpaceOnUse" gradientTransform="translate(318.349 83.6434) rotate(90) scale(50.1628 71.9898)">
<stop stop-color="#49615E"/>
<stop offset="1" stop-color="#202020"/>
</radialGradient>
<radialGradient id="paint1_radial_4353_101579" cx="0" cy="0" r="1" gradientUnits="userSpaceOnUse" gradientTransform="translate(91.8568 186.619) rotate(90) scale(29.89 44.8271)">
<stop stop-color="#49615E"/>
<stop offset="1" stop-color="#202020"/>
</radialGradient>
<radialGradient id="paint2_radial_4353_101579" cx="0" cy="0" r="1" gradientUnits="userSpaceOnUse" gradientTransform="translate(67.9111 31.4105) rotate(90) scale(47.0109 44.1827)">
<stop stop-color="#49615E"/>
<stop offset="1" stop-color="#202020"/>
</radialGradient>
<linearGradient id="paint3_linear_4353_101579" x1="161.294" y1="20.4868" x2="180.69" y2="40.6024" gradientUnits="userSpaceOnUse">
<stop stop-color="#C4C4C4"/>
<stop offset="1" stop-color="#3F3F3F" stop-opacity="0"/>
</linearGradient>
<linearGradient id="paint4_linear_4353_101579" x1="228.209" y1="35.1399" x2="220.595" y2="62.0263" gradientUnits="userSpaceOnUse">
<stop stop-color="#C4C4C4"/>
<stop offset="1" stop-color="#3F3F3F" stop-opacity="0"/>
</linearGradient>
<linearGradient id="paint5_linear_4353_101579" x1="29.3744" y1="118.672" x2="75.7395" y2="140.562" gradientUnits="userSpaceOnUse">
<stop stop-color="#C4C4C4"/>
<stop offset="1" stop-color="#3F3F3F" stop-opacity="0"/>
</linearGradient>
<linearGradient id="paint6_linear_4353_101579" x1="82.6101" y1="140.004" x2="92.9289" y2="116.863" gradientUnits="userSpaceOnUse">
<stop stop-color="#C4C4C4"/>
<stop offset="1" stop-color="#3F3F3F" stop-opacity="0"/>
</linearGradient>
<linearGradient id="paint7_linear_4353_101579" x1="58.4186" y1="112.714" x2="76.2082" y2="105.135" gradientUnits="userSpaceOnUse">
<stop stop-color="#C4C4C4"/>
<stop offset="1" stop-color="#3F3F3F" stop-opacity="0"/>
</linearGradient>
<linearGradient id="paint8_linear_4353_101579" x1="271.739" y1="163.63" x2="252.528" y2="165.836" gradientUnits="userSpaceOnUse">
<stop stop-color="#C4C4C4"/>
<stop offset="1" stop-color="#3F3F3F" stop-opacity="0"/>
</linearGradient>
<linearGradient id="paint9_linear_4353_101579" x1="339.969" y1="181.908" x2="313.683" y2="148.055" gradientUnits="userSpaceOnUse">
<stop stop-color="#C4C4C4"/>
<stop offset="1" stop-color="#3F3F3F" stop-opacity="0"/>
</linearGradient>
<linearGradient id="paint10_linear_4353_101579" x1="339.18" y1="70.2658" x2="314.306" y2="79.0106" gradientUnits="userSpaceOnUse">
<stop stop-color="#C4C4C4"/>
<stop offset="1" stop-color="#3F3F3F" stop-opacity="0"/>
</linearGradient>
<linearGradient id="paint11_linear_4353_101579" x1="348.763" y1="98.2379" x2="248.593" y2="101.471" gradientUnits="userSpaceOnUse">
<stop stop-color="white"/>
<stop offset="1" stop-color="#696969" stop-opacity="0"/>
</linearGradient>
<radialGradient id="paint12_radial_4353_101579" cx="0" cy="0" r="1" gradientUnits="userSpaceOnUse" gradientTransform="translate(200 64.4445) rotate(90) scale(121.136 230.736)">
<stop stop-color="#F1F3F5" stop-opacity="0"/>
<stop offset="1" stop-color="#F8F9FA"/>
</radialGradient>
<linearGradient id="paint13_linear_4353_101579" x1="182.806" y1="80.9614" x2="217.33" y2="142.614" gradientUnits="userSpaceOnUse">
<stop stop-color="#7CDBC5"/>
<stop offset="1" stop-color="#006136" stop-opacity="0.62"/>
</linearGradient>
<linearGradient id="paint14_linear_4353_101579" x1="119.984" y1="70.0188" x2="145.904" y2="95.4859" gradientUnits="userSpaceOnUse">
<stop stop-color="#00542F"/>
<stop offset="1" stop-color="#3DCB8C" stop-opacity="0"/>
</linearGradient>
<linearGradient id="paint15_linear_4353_101579" x1="274.274" y1="71.7769" x2="247.293" y2="75.225" gradientUnits="userSpaceOnUse">
<stop stop-color="#00542F"/>
<stop offset="1" stop-color="#3DCB8C" stop-opacity="0"/>
</linearGradient>
<linearGradient id="paint16_linear_4353_101579" x1="309.014" y1="125.724" x2="264.074" y2="124.433" gradientUnits="userSpaceOnUse">
<stop stop-color="#00542F"/>
<stop offset="1" stop-color="#3DCB8C" stop-opacity="0"/>
</linearGradient>
<linearGradient id="paint17_linear_4353_101579" x1="136.467" y1="158.397" x2="159.181" y2="134.992" gradientUnits="userSpaceOnUse">
<stop stop-color="#00542F"/>
<stop offset="1" stop-color="#3DCB8C" stop-opacity="0"/>
</linearGradient>
<linearGradient id="paint18_linear_4353_101579" x1="96.8493" y1="149.989" x2="96.8493" y2="176.187" gradientUnits="userSpaceOnUse">
<stop stop-color="#002313"/>
<stop offset="1" stop-color="#032C18" stop-opacity="0"/>
</linearGradient>
<linearGradient id="paint19_linear_4353_101579" x1="357.203" y1="103.511" x2="357.203" y2="129.709" gradientUnits="userSpaceOnUse">
<stop stop-color="#002313"/>
<stop offset="1" stop-color="#032C18" stop-opacity="0"/>
</linearGradient>
<linearGradient id="paint20_linear_4353_101579" x1="319.593" y1="39.5399" x2="319.593" y2="65.7382" gradientUnits="userSpaceOnUse">
<stop stop-color="#002313"/>
<stop offset="1" stop-color="#032C18" stop-opacity="0"/>
</linearGradient>
<linearGradient id="paint21_linear_4353_101579" x1="76.0036" y1="50.1951" x2="76.0036" y2="76.3934" gradientUnits="userSpaceOnUse">
<stop stop-color="#002313"/>
<stop offset="1" stop-color="#032C18" stop-opacity="0"/>
</linearGradient>
<clipPath id="clip0_4353_101579">
<rect width="400" height="210" fill="white"/>
</clipPath>
</defs>
</svg>
