<svg xmlns="http://www.w3.org/2000/svg" width="400" height="210" fill="none" viewBox="0 0 400 210"><g clip-path="url(#a)"><g filter="url(#b)"><path fill="url(#c)" fill-rule="evenodd" d="M64.24-15.59h-.845v43.829c0 57.188 0 85.985 7.849 112.074a185.1 185.1 0 0 0 37.558 68.112c17.875 20.561 42.228 35.929 90.592 66.449l.157.099.451.285.452-.285.156-.099c48.365-30.52 72.718-45.888 90.592-66.449a185.1 185.1 0 0 0 37.559-68.112c7.849-26.088 7.849-54.885 7.849-112.074v-43.83h-.845c-13.094 0-19.609 0-26.036-.355a233.7 233.7 0 0 1-78.838-18.395c-5.921-2.527-11.763-5.41-23.504-11.205l-7.01-3.46-.375-.184-.374.184-7.01 3.46c-11.741 5.795-17.583 8.678-23.504 11.205a233.7 233.7 0 0 1-78.838 18.395c-6.427.355-12.943.355-26.036.355m245.442.489c6.316.348 12.714.356 25.237.356h.846v42.798c0 57.365 0 86.047-7.814 112.017a184.3 184.3 0 0 1-37.387 67.801c-17.792 20.466-42.049 35.773-90.561 66.386v.001c-48.514-30.614-72.77-45.92-90.562-66.387a184.3 184.3 0 0 1-37.387-67.801C64.24 114.1 64.24 85.418 64.24 28.053v-42.798h.846c12.523 0 18.921-.008 25.237-.356a234.5 234.5 0 0 0 79.123-18.462c5.947-2.538 11.813-5.434 23.546-11.224l7.01-3.46 7.01 3.46c11.733 5.79 17.6 8.686 23.547 11.224a234.5 234.5 0 0 0 79.123 18.462m-47.277 70.184v-.662l-.643-.159-61.555-15.19-.203-.05-.202.05-61.555 15.19-.643.159v20.25c0 25.836 0 38.955 3.578 50.849a84.4 84.4 0 0 0 17.123 31.052c8.149 9.374 19.244 16.375 41.093 30.163l.155.098.451.284.451-.284.155-.098c21.849-13.788 32.944-20.789 41.093-30.163a84.4 84.4 0 0 0 17.123-31.052c3.579-11.894 3.579-25.013 3.579-50.849V55.083M158.943 156.017c8.067 9.28 19.065 16.22 41.061 30.1 21.996-13.88 32.994-20.82 41.061-30.1a83.5 83.5 0 0 0 16.951-30.741c3.543-11.774 3.543-24.779 3.543-50.788V55.083l-61.555-15.19-61.555 15.19v19.405c0 26.009 0 39.014 3.543 50.788a83.5 83.5 0 0 0 16.951 30.741" clip-rule="evenodd"/></g><g filter="url(#d)"><path stroke="#d5d5d5" stroke-width=".846" d="M269.277 48.22v-.331l-.322-.08-68.849-16.99-.101-.025-.101.025-68.849 16.99-.322.08v22.127c0 29.004 0 43.607 3.981 56.836a93.86 93.86 0 0 0 19.046 34.539c9.063 10.427 21.413 18.22 45.941 33.698l.058.037.217.173.255-.161.078-.049c24.528-15.478 36.877-23.271 45.941-33.698a93.86 93.86 0 0 0 19.046-34.539c3.981-13.229 3.981-27.832 3.981-56.836V48.22Z"/></g><g filter="url(#e)"><path stroke="#d5d5d5" stroke-width=".846" d="M276.418 41.5v-.33l-.322-.08-75.99-18.752-.101-.025-.101.025-75.99 18.752-.321.08v24.378c0 32.02 0 48.132 4.391 62.728a103.6 103.6 0 0 0 21.012 38.105c10 11.503 23.626 20.101 50.705 37.189l.079.05.225.142.226-.142.078-.05c27.08-17.088 40.705-25.686 50.705-37.189a103.55 103.55 0 0 0 21.012-38.105c4.392-14.596 4.392-30.707 4.392-62.728V41.5Z"/></g><g filter="url(#f)"><path stroke="#d5d5d5" stroke-width=".846" d="M283.559 34.78v-.33l-.322-.08-83.13-20.514-.101-.025-.102.025-83.13 20.514-.322.08v26.63c0 35.038 0 52.658 4.803 68.619a113.2 113.2 0 0 0 22.978 41.672c10.936 12.579 25.837 21.983 55.469 40.681l.078.05.226.142.225-.142.079-.05c29.631-18.698 44.532-28.102 55.468-40.681a113.2 113.2 0 0 0 22.978-41.672c4.803-15.961 4.803-33.581 4.803-68.619V34.781Z"/></g><g filter="url(#g)"><path stroke="#d5d5d5" stroke-width=".846" d="M290.7 28.061v-.33l-.322-.08-90.271-22.277-.101-.025-.102.025-90.271 22.277-.321.08v28.881c0 38.055 0 57.183 5.213 74.511a122.9 122.9 0 0 0 24.945 45.238c11.872 13.656 28.049 23.864 60.232 44.173l.078.049.226.143.225-.143.078-.049c32.184-20.309 48.361-30.517 60.232-44.173a122.9 122.9 0 0 0 24.945-45.238c5.214-17.328 5.214-36.456 5.214-74.511V28.061Z"/></g><g filter="url(#h)"><path stroke="#d5d5d5" stroke-width=".846" d="M298.6 20.628v-.33l-.322-.08-98.17-24.226-.102-.025-.101.025-98.17 24.226-.322.08v31.371c0 41.393 0 62.19 5.668 81.028a133.66 133.66 0 0 0 27.121 49.183c12.906 14.847 30.495 25.946 65.5 48.036l.079.049.246.156.22-.165.063-.04c35.006-22.09 52.595-33.189 65.501-48.036a133.66 133.66 0 0 0 27.121-49.183c5.668-18.838 5.668-39.635 5.668-81.028V20.628Z"/></g><g filter="url(#i)"><path stroke="#d5d5d5" stroke-width=".846" d="M306.711 12.997v-.331l-.322-.08L200.108-13.64l-.101-.025-.101.025-106.28 26.227-.322.08v33.928c0 44.82 0 67.331 6.135 87.72a144.7 144.7 0 0 0 29.353 53.233c13.97 16.07 33.007 28.083 70.911 52.001l.078.05.008.005.008.005.242.138.208-.157.064-.04c37.904-23.919 56.941-35.932 70.911-52.002a144.7 144.7 0 0 0 29.354-53.233c6.135-20.39 6.135-42.9 6.135-87.72V12.997Z"/></g><g filter="url(#j)"><path stroke="#d5d5d5" stroke-width=".846" d="M314.822 5.365v-.33l-.322-.08-114.391-28.229-.101-.025-.101.025L85.516 4.955l-.322.08v36.484c0 48.247 0 72.471 6.602 94.412a155.7 155.7 0 0 0 31.587 57.283c15.033 17.292 35.519 30.22 76.321 55.968l.078.049.226.143.226-.143.078-.049c40.802-25.748 61.288-38.675 76.321-55.968a155.7 155.7 0 0 0 31.587-57.283c6.602-21.941 6.602-46.165 6.602-94.411V5.366Z"/></g><g filter="url(#k)"><path stroke="#d5d5d5" stroke-width=".846" d="M323.526-2.825v-.33l-.322-.08L200.11-33.611l-.102-.025-.101.025L76.813-3.235l-.322.08v39.228c0 51.924 0 77.987 7.103 101.593a167.5 167.5 0 0 0 33.984 61.63c16.173 18.604 38.215 32.513 82.126 60.223l.079.05.225.142.226-.142.078-.049c43.912-27.71 65.954-41.62 82.127-60.224a167.5 167.5 0 0 0 33.984-61.63c7.103-23.606 7.103-49.669 7.103-101.592V-2.826Z"/></g><g filter="url(#l)"><path stroke="#d5d5d5" stroke-width=".846" d="M332.623-11.387v-.331l-.322-.08-132.194-32.621-.101-.025-.101.025L67.711-11.797l-.321.079v42.097c0 55.769 0 83.754 7.626 109.101a179.8 179.8 0 0 0 36.49 66.174c17.365 19.976 41.033 34.911 88.196 64.673l.078.049.008.005.008.005.221.126.215-.135.077-.049c47.164-29.763 70.832-44.698 88.197-64.674a179.8 179.8 0 0 0 36.49-66.174c7.627-25.347 7.627-53.332 7.627-109.1v-41.767Z"/></g><g filter="url(#m)"><path stroke="#d5d5d5" stroke-width=".846" d="M342.294-20.488v-.331l-.321-.08-141.866-35.008-.101-.025-.101.025L58.039-20.898l-.321.079v45.146c0 59.856 0 89.885 8.183 117.081a193 193 0 0 0 39.153 71.005c18.633 21.434 44.029 37.459 94.648 69.402l.078.049.226.143.226-.143.077-.049c50.62-31.943 76.016-47.968 94.649-69.402a193 193 0 0 0 39.154-71.005c8.182-27.196 8.182-57.225 8.182-117.08v-44.816Z"/></g><g filter="url(#n)"><path stroke="#d5d5d5" stroke-width=".846" d="M352.591-30.175v-.331l-.321-.08-152.161-37.549-.101-.025-.101.025-152.16 37.55-.322.079v48.392c0 64.205 0 96.409 8.775 125.575a206.9 206.9 0 0 0 41.989 76.145c19.982 22.987 47.217 40.173 101.515 74.437l.078.049.255.161.217-.173.058-.037c54.298-34.264 81.533-51.45 101.515-74.437a206.9 206.9 0 0 0 41.989-76.146c8.775-29.165 8.775-61.37 8.775-125.574v-48.061Z"/></g><g filter="url(#o)"><ellipse cx="200.844" cy="124.115" fill="#00ffd9" rx="84.946" ry="84.44"/></g><g filter="url(#p)"><path stroke="url(#q)" d="M253.595 79.469V62.574l-53.594-13.226-53.595 13.226v16.895c0 22.646 0 33.968 3.085 44.22a72.7 72.7 0 0 0 14.759 26.766c7.024 8.08 16.599 14.122 35.751 26.207 19.151-12.085 28.727-18.127 35.751-26.207a72.76 72.76 0 0 0 14.759-26.766c3.084-10.252 3.084-21.574 3.084-44.22Z"/></g><g filter="url(#r)"><path stroke="url(#s)" d="M254.095 62.574v-.392l-.38-.094-53.594-13.225-.12-.03-.12.03-53.595 13.225-.38.094v17.396c0 22.542 0 33.933 3.106 44.255a73.2 73.2 0 0 0 14.861 26.95c7.072 8.135 16.705 14.214 35.769 26.244l.092.058.248.157.258-.141.014-.007.014-.009.092-.058c19.064-12.03 28.697-18.109 35.769-26.244a73.2 73.2 0 0 0 14.86-26.95c3.106-10.322 3.106-21.713 3.106-44.255V62.574Z" shape-rendering="crispEdges"/></g><g filter="url(#t)"><rect width="139" height="65.397" x="130.5" y="79.461" fill="#f8f9fa" rx="8"/><path fill="url(#u)" d="M156.809 95.734q-.096-.972-.858-1.546-.762-.573-1.915-.573-.812 0-1.432.278a2.35 2.35 0 0 0-.966.773 1.88 1.88 0 0 0-.346 1.113q0 .46.199.807.198.347.534.597.34.244.75.42.415.176.835.296l1.227.352q.558.153 1.114.392t1.017.602q.467.358.744.881.284.517.284 1.244 0 .932-.483 1.676-.482.744-1.386 1.182-.903.432-2.165.432-1.187 0-2.062-.392-.875-.398-1.375-1.097a3.1 3.1 0 0 1-.563-1.619h1.091q.057.687.455 1.165.398.477 1.034.727.636.244 1.42.244.87 0 1.546-.289.681-.295 1.068-.819.392-.528.392-1.227 0-.59-.307-.989-.306-.403-.858-.676a7.6 7.6 0 0 0-1.267-.483l-1.392-.409q-1.37-.409-2.125-1.13-.756-.722-.756-1.841 0-.938.5-1.648a3.37 3.37 0 0 1 1.364-1.114q.864-.403 1.938-.403 1.084 0 1.92.398.835.397 1.324 1.096.494.693.528 1.58zm13.284 2.909q0 1.818-.648 3.165-.648 1.341-1.784 2.079-1.13.733-2.602.733t-2.608-.733q-1.131-.738-1.778-2.079-.642-1.347-.642-3.165t.642-3.16q.647-1.346 1.784-2.079 1.136-.738 2.602-.738 1.471 0 2.602.738 1.137.733 1.784 2.08.648 1.341.648 3.159m-1.034 0q0-1.563-.523-2.676-.523-1.12-1.426-1.71-.903-.591-2.051-.591-1.142 0-2.046.59-.903.591-1.431 1.705-.523 1.114-.523 2.682 0 1.562.523 2.676t1.426 1.71q.903.591 2.051.591t2.051-.591q.909-.591 1.432-1.704.523-1.12.517-2.682m12.717-2.182h-1.068a3.3 3.3 0 0 0-.432-1.102 3.4 3.4 0 0 0-.772-.892 3.5 3.5 0 0 0-1.057-.591 3.8 3.8 0 0 0-1.279-.21 3.7 3.7 0 0 0-2.011.574q-.903.573-1.449 1.687-.54 1.108-.54 2.716 0 1.62.54 2.727.546 1.108 1.449 1.682a3.7 3.7 0 0 0 2.011.568q.688 0 1.279-.21a3.6 3.6 0 0 0 1.057-.585 3.4 3.4 0 0 0 .772-.892q.314-.512.432-1.108h1.068a4.6 4.6 0 0 1-.534 1.494q-.386.687-.988 1.205a4.5 4.5 0 0 1-1.375.806 4.9 4.9 0 0 1-1.711.29q-1.465 0-2.602-.733-1.137-.738-1.784-2.079-.642-1.342-.642-3.165 0-1.824.642-3.165.648-1.34 1.784-2.074 1.137-.738 2.602-.738.933 0 1.711.29.778.284 1.375.806.602.517.988 1.205.393.687.534 1.494m6.746 8v-.778l3.801-4.273q.744-.84 1.199-1.438.455-.596.659-1.102.21-.505.21-1.051 0-.665-.312-1.16a2.1 2.1 0 0 0-.847-.778 2.6 2.6 0 0 0-1.216-.278q-.715 0-1.255.307a2.16 2.16 0 0 0-.83.84 2.5 2.5 0 0 0-.295 1.228h-1.017q0-.966.443-1.71.448-.75 1.221-1.176.778-.426 1.762-.426.97 0 1.727.42.756.416 1.188 1.13a3.05 3.05 0 0 1 .431 1.603q0 .642-.227 1.244-.221.603-.767 1.341a25 25 0 0 1-1.511 1.807l-2.887 3.222v.074h5.756v.954zm13.811-10.682v-.954h8.438v.954h-3.688v10.682h-1.062V93.779zm10.324 13.955a2.7 2.7 0 0 1-.977-.182l.272-.892q.517.159.921.114.403-.04.716-.364.312-.318.557-.977l.318-.887-3.21-8.812h1.096l2.591 7.392h.08l2.591-7.392h1.096l-3.693 10.108q-.233.63-.574 1.051-.34.426-.79.631-.443.21-.994.21m8.03 0v-12h.983v1.665h.119q.182-.393.5-.802.318-.414.841-.698.528-.284 1.33-.284 1.079 0 1.886.568.813.562 1.261 1.58.455 1.01.455 2.357 0 1.352-.455 2.369-.448 1.017-1.261 1.586-.807.568-1.875.568-.79 0-1.324-.284a2.75 2.75 0 0 1-.858-.699 4 4 0 0 1-.5-.818h-.091v4.892zm1-7.631q0 1.057.312 1.875.318.813.909 1.279.597.46 1.444.46.869 0 1.465-.478.603-.483.915-1.301.318-.818.318-1.835 0-1.005-.312-1.812-.308-.807-.909-1.279-.603-.477-1.477-.477-.853 0-1.449.46-.597.455-.909 1.261-.307.802-.307 1.847m12.122 4.54q-1.221 0-2.114-.568a3.8 3.8 0 0 1-1.38-1.586q-.483-1.017-.483-2.34 0-1.32.483-2.341.488-1.029 1.346-1.608.864-.585 1.995-.585.71 0 1.369.26.659.256 1.182.79.528.53.835 1.336.306.8.307 1.898v.5h-6.818v-.892h5.784a3.3 3.3 0 0 0-.341-1.512 2.65 2.65 0 0 0-.938-1.068 2.46 2.46 0 0 0-1.38-.392 2.48 2.48 0 0 0-1.461.443q-.63.444-.988 1.17a3.66 3.66 0 0 0-.358 1.592v.534q0 1.04.358 1.818a2.8 2.8 0 0 0 1.028 1.199q.665.426 1.574.426a2.8 2.8 0 0 0 1.085-.193q.472-.194.79-.517.324-.33.489-.722l.96.312a2.8 2.8 0 0 1-.654 1.017 3.3 3.3 0 0 1-1.125.75q-.67.279-1.545.279m11.541-11.818v11.636h-1.062V92.825zm4.156 0v11.636h-1.062V92.825z"/><path stroke="#000" stroke-opacity=".1" stroke-width=".846" d="M148.5 115.461h103"/><path fill="#000" d="M155.345 128.16h-.668a2.1 2.1 0 0 0-.27-.689 2.15 2.15 0 0 0-1.143-.927 2.4 2.4 0 0 0-.799-.131q-.69 0-1.258.358-.564.359-.905 1.055-.337.692-.337 1.697 0 1.012.337 1.705.34.692.905 1.051.568.355 1.258.355.429 0 .799-.131.369-.132.66-.366.291-.238.483-.558.195-.319.27-.692h.668q-.09.5-.334.934a2.8 2.8 0 0 1-1.478 1.257 3 3 0 0 1-1.068.181 2.94 2.94 0 0 1-1.627-.458q-.71-.462-1.115-1.3-.4-.837-.401-1.978 0-1.14.401-1.978.405-.837 1.115-1.296.71-.462 1.627-.461.582 0 1.068.181.487.177.86.504.376.323.618.753.244.429.334.934m3.633 5.113q-.763 0-1.321-.355a2.4 2.4 0 0 1-.863-.991q-.302-.635-.302-1.463 0-.824.302-1.463.306-.642.842-1.005.54-.365 1.246-.365.445 0 .856.163.412.16.739.494.33.33.522.834.192.5.192 1.186v.313h-4.262v-.558h3.615q0-.525-.213-.945a1.65 1.65 0 0 0-.586-.667 1.54 1.54 0 0 0-.863-.245q-.517 0-.912.277a1.9 1.9 0 0 0-.618.731 2.3 2.3 0 0 0-.224.995v.333q0 .651.224 1.137.227.483.643.749.415.267.983.266.387 0 .679-.12a1.46 1.46 0 0 0 .799-.774l.6.195q-.124.344-.409.636a2.1 2.1 0 0 1-.703.468 2.5 2.5 0 0 1-.966.174m3.606-.113v-5.455h.614v.838h.046q.163-.412.568-.664.408-.255.924-.256.078 0 .174.004l.159.007v.643l-.149-.021a2 2 0 0 0-.231-.015q-.426 0-.76.181-.33.178-.522.494a1.37 1.37 0 0 0-.191.721v3.523zm6.054-5.455v.551h-2.603v-.551zm-1.79-1.307h.636v5.338q0 .34.117.536.117.192.306.273.188.078.401.078a1.3 1.3 0 0 0 .369-.049l.135.571a1.5 1.5 0 0 1-.227.064q-.135.033-.334.032-.348 0-.671-.152a1.3 1.3 0 0 1-.526-.455q-.206-.302-.206-.749zm3.233 6.762v-5.455h.636v5.455zm.323-6.392a.47.47 0 0 1-.334-.132.44.44 0 0 1-.138-.323q0-.188.138-.32a.47.47 0 0 1 .334-.134q.195 0 .334.134a.43.43 0 0 1 .138.32.44.44 0 0 1-.138.323.47.47 0 0 1-.334.132m4.229.937v.551h-2.682v-.551zm-1.843 5.455v-6.254q0-.44.202-.742.206-.302.536-.458a1.6 1.6 0 0 1 .7-.156q.248 0 .412.042.167.039.262.078l-.184.554-.174-.049a1 1 0 0 0-.259-.029q-.412 0-.636.231-.224.23-.224.661l-.003 6.122zm3.111 0v-5.455h.636v5.455zm.323-6.392a.464.464 0 0 1-.472-.455q0-.188.139-.32a.46.46 0 0 1 .333-.134q.196 0 .334.134a.43.43 0 0 1 .139.32.465.465 0 0 1-.473.455m4.19 6.505q-.764 0-1.321-.355a2.37 2.37 0 0 1-.863-.991q-.302-.635-.302-1.463 0-.824.302-1.463.305-.642.841-1.005a2.17 2.17 0 0 1 1.247-.365 2.3 2.3 0 0 1 .856.163q.412.16.738.494.332.33.522.834.192.5.192 1.186v.313h-4.261v-.558h3.615q0-.525-.213-.945a1.66 1.66 0 0 0-.586-.667 1.54 1.54 0 0 0-.863-.245q-.519 0-.913.277a1.9 1.9 0 0 0-.618.731 2.3 2.3 0 0 0-.223.995v.333q0 .651.223 1.137.228.483.643.749.416.267.984.266.387 0 .678-.12.295-.121.494-.323a1.5 1.5 0 0 0 .305-.451l.6.195a1.8 1.8 0 0 1-.408.636 2.1 2.1 0 0 1-.703.468q-.42.174-.966.174m5.569 0a2 2 0 0 1-1.176-.355 2.35 2.35 0 0 1-.788-.991q-.28-.635-.28-1.48 0-.842.28-1.474.284-.636.792-.987a2 2 0 0 1 1.183-.355q.497 0 .827.177.33.175.529.433.2.26.309.505h.057v-2.859h.635v7.273h-.617v-1.012h-.075a2.6 2.6 0 0 1-.312.511 1.7 1.7 0 0 1-.537.437q-.33.177-.827.177m.074-.579q.53 0 .902-.287.373-.292.569-.799.198-.512.198-1.172 0-.654-.195-1.154a1.76 1.76 0 0 0-.568-.789 1.44 1.44 0 0 0-.906-.287q-.546 0-.923.298a1.84 1.84 0 0 0-.568.799 3.2 3.2 0 0 0-.192 1.133q0 .636.196 1.147.195.512.568.813.376.298.919.298"/><rect width="16.308" height="15.397" x="235.191" y="121.461" fill="#dcdcdc" rx="7.699"/><path fill="#00826a" fill-rule="evenodd" d="M243.234 125.487a.25.25 0 0 1 .223 0l.15.074a6 6 0 0 0 2.64.616c.139 0 .252.113.252.252v2.667c0 1.132-.58 2.184-1.537 2.788l-1.482.935a.25.25 0 0 1-.269 0l-1.482-.935a3.3 3.3 0 0 1-1.538-2.788v-2.667a.25.25 0 0 1 .253-.252 6 6 0 0 0 2.64-.616zm.111.508-.038.019a6.5 6.5 0 0 1-2.611.663v2.419c0 .959.492 1.85 1.302 2.361l1.347.851 1.347-.851a2.79 2.79 0 0 0 1.302-2.361v-2.419a6.5 6.5 0 0 1-2.611-.663zm1.825 1.622a.25.25 0 0 1 0 .356l-1.994 1.995a.253.253 0 0 1-.357 0l-1.083-1.083a.253.253 0 0 1 0-.357.253.253 0 0 1 .357 0l.904.905 1.817-1.816a.25.25 0 0 1 .356 0" clip-rule="evenodd"/><rect width="138" height="64.397" x="131" y="79.961" stroke="url(#v)" rx="7.5"/></g></g><defs><filter id="b" width="295.261" height="346.494" x="52.371" y="-60.213" color-interpolation-filters="sRGB" filterUnits="userSpaceOnUse"><feFlood flood-opacity="0" result="BackgroundImageFix"/><feGaussianBlur in="BackgroundImageFix" stdDeviation="5.512"/><feComposite in2="SourceAlpha" operator="in" result="effect1_backgroundBlur_4353_101625"/><feBlend in="SourceGraphic" in2="effect1_backgroundBlur_4353_101625" result="shape"/></filter><filter id="d" width="161.433" height="187.505" x="119.289" y="19.336" color-interpolation-filters="sRGB" filterUnits="userSpaceOnUse"><feFlood flood-opacity="0" result="BackgroundImageFix"/><feGaussianBlur in="BackgroundImageFix" stdDeviation="5.512"/><feComposite in2="SourceAlpha" operator="in" result="effect1_backgroundBlur_4353_101625"/><feBlend in="SourceGraphic" in2="effect1_backgroundBlur_4353_101625" result="shape"/></filter><filter id="e" width="175.714" height="204.431" x="112.149" y="10.854" color-interpolation-filters="sRGB" filterUnits="userSpaceOnUse"><feFlood flood-opacity="0" result="BackgroundImageFix"/><feGaussianBlur in="BackgroundImageFix" stdDeviation="5.512"/><feComposite in2="SourceAlpha" operator="in" result="effect1_backgroundBlur_4353_101625"/><feBlend in="SourceGraphic" in2="effect1_backgroundBlur_4353_101625" result="shape"/></filter><filter id="f" width="189.995" height="221.395" x="105.008" y="2.372" color-interpolation-filters="sRGB" filterUnits="userSpaceOnUse"><feFlood flood-opacity="0" result="BackgroundImageFix"/><feGaussianBlur in="BackgroundImageFix" stdDeviation="5.512"/><feComposite in2="SourceAlpha" operator="in" result="effect1_backgroundBlur_4353_101625"/><feBlend in="SourceGraphic" in2="effect1_backgroundBlur_4353_101625" result="shape"/></filter><filter id="g" width="204.277" height="238.358" x="97.868" y="-6.109" color-interpolation-filters="sRGB" filterUnits="userSpaceOnUse"><feFlood flood-opacity="0" result="BackgroundImageFix"/><feGaussianBlur in="BackgroundImageFix" stdDeviation="5.512"/><feComposite in2="SourceAlpha" operator="in" result="effect1_backgroundBlur_4353_101625"/><feBlend in="SourceGraphic" in2="effect1_backgroundBlur_4353_101625" result="shape"/></filter><filter id="h" width="220.077" height="257.149" x="89.969" y="-15.492" color-interpolation-filters="sRGB" filterUnits="userSpaceOnUse"><feFlood flood-opacity="0" result="BackgroundImageFix"/><feGaussianBlur in="BackgroundImageFix" stdDeviation="5.512"/><feComposite in2="SourceAlpha" operator="in" result="effect1_backgroundBlur_4353_101625"/><feBlend in="SourceGraphic" in2="effect1_backgroundBlur_4353_101625" result="shape"/></filter><filter id="i" width="236.296" height="276.398" x="81.86" y="-25.124" color-interpolation-filters="sRGB" filterUnits="userSpaceOnUse"><feFlood flood-opacity="0" result="BackgroundImageFix"/><feGaussianBlur in="BackgroundImageFix" stdDeviation="5.512"/><feComposite in2="SourceAlpha" operator="in" result="effect1_backgroundBlur_4353_101625"/><feBlend in="SourceGraphic" in2="effect1_backgroundBlur_4353_101625" result="shape"/></filter><filter id="j" width="252.519" height="295.654" x="73.75" y="-34.757" color-interpolation-filters="sRGB" filterUnits="userSpaceOnUse"><feFlood flood-opacity="0" result="BackgroundImageFix"/><feGaussianBlur in="BackgroundImageFix" stdDeviation="5.512"/><feComposite in2="SourceAlpha" operator="in" result="effect1_backgroundBlur_4353_101625"/><feBlend in="SourceGraphic" in2="effect1_backgroundBlur_4353_101625" result="shape"/></filter><filter id="k" width="269.925" height="316.329" x="65.047" y="-45.095" color-interpolation-filters="sRGB" filterUnits="userSpaceOnUse"><feFlood flood-opacity="0" result="BackgroundImageFix"/><feGaussianBlur in="BackgroundImageFix" stdDeviation="5.512"/><feComposite in2="SourceAlpha" operator="in" result="effect1_backgroundBlur_4353_101625"/><feBlend in="SourceGraphic" in2="effect1_backgroundBlur_4353_101625" result="shape"/></filter><filter id="l" width="288.124" height="337.931" x="55.946" y="-55.903" color-interpolation-filters="sRGB" filterUnits="userSpaceOnUse"><feFlood flood-opacity="0" result="BackgroundImageFix"/><feGaussianBlur in="BackgroundImageFix" stdDeviation="5.512"/><feComposite in2="SourceAlpha" operator="in" result="effect1_backgroundBlur_4353_101625"/><feBlend in="SourceGraphic" in2="effect1_backgroundBlur_4353_101625" result="shape"/></filter><filter id="m" width="307.468" height="360.92" x="46.274" y="-67.39" color-interpolation-filters="sRGB" filterUnits="userSpaceOnUse"><feFlood flood-opacity="0" result="BackgroundImageFix"/><feGaussianBlur in="BackgroundImageFix" stdDeviation="5.512"/><feComposite in2="SourceAlpha" operator="in" result="effect1_backgroundBlur_4353_101625"/><feBlend in="SourceGraphic" in2="effect1_backgroundBlur_4353_101625" result="shape"/></filter><filter id="n" width="328.058" height="385.413" x="35.981" y="-79.618" color-interpolation-filters="sRGB" filterUnits="userSpaceOnUse"><feFlood flood-opacity="0" result="BackgroundImageFix"/><feGaussianBlur in="BackgroundImageFix" stdDeviation="5.512"/><feComposite in2="SourceAlpha" operator="in" result="effect1_backgroundBlur_4353_101625"/><feBlend in="SourceGraphic" in2="effect1_backgroundBlur_4353_101625" result="shape"/></filter><filter id="o" width="585.914" height="584.903" x="-92.113" y="-168.336" color-interpolation-filters="sRGB" filterUnits="userSpaceOnUse"><feFlood flood-opacity="0" result="BackgroundImageFix"/><feBlend in="SourceGraphic" in2="BackgroundImageFix" result="shape"/><feGaussianBlur result="effect1_foregroundBlur_4353_101625" stdDeviation="104.006"/></filter><filter id="p" width="114.188" height="134.421" x="142.906" y="45.833" color-interpolation-filters="sRGB" filterUnits="userSpaceOnUse"><feFlood flood-opacity="0" result="BackgroundImageFix"/><feBlend in="SourceGraphic" in2="BackgroundImageFix" result="shape"/><feGaussianBlur result="effect1_foregroundBlur_4353_101625" stdDeviation="1.5"/></filter><filter id="r" width="123.188" height="143.504" x="138.406" y="41.318" color-interpolation-filters="sRGB" filterUnits="userSpaceOnUse"><feFlood flood-opacity="0" result="BackgroundImageFix"/><feColorMatrix in="SourceAlpha" result="hardAlpha" values="0 0 0 0 0 0 0 0 0 0 0 0 0 0 0 0 0 0 127 0"/><feOffset/><feGaussianBlur stdDeviation="3.5"/><feComposite in2="hardAlpha" operator="out"/><feColorMatrix values="0 0 0 0 0 0 0 0 0 0 0 0 0 0 0 0 0 0 0.95 0"/><feBlend in2="BackgroundImageFix" result="effect1_dropShadow_4353_101625"/><feBlend in="SourceGraphic" in2="effect1_dropShadow_4353_101625" result="shape"/></filter><filter id="t" width="145.765" height="72.162" x="127.118" y="76.079" color-interpolation-filters="sRGB" filterUnits="userSpaceOnUse"><feFlood flood-opacity="0" result="BackgroundImageFix"/><feGaussianBlur in="BackgroundImageFix" stdDeviation="1.691"/><feComposite in2="SourceAlpha" operator="in" result="effect1_backgroundBlur_4353_101625"/><feBlend in="SourceGraphic" in2="effect1_backgroundBlur_4353_101625" result="shape"/></filter><linearGradient id="s" x1="200.001" x2="200.001" y1="49.348" y2="79.079" gradientUnits="userSpaceOnUse"><stop stop-color="#109079"/><stop offset="1" stop-color="#3dcb8c" stop-opacity="0"/></linearGradient><linearGradient id="u" x1="200" x2="200" y1="87.461" y2="130.92" gradientUnits="userSpaceOnUse"><stop/><stop offset="1" stop-color="#0b0b0b" stop-opacity="0"/></linearGradient><linearGradient id="v" x1="200" x2="200" y1="74.286" y2="154.929" gradientUnits="userSpaceOnUse"><stop stop-color="#109179" stop-opacity=".86"/><stop offset="1" stop-color="#212121" stop-opacity="0"/></linearGradient><radialGradient id="c" cx="0" cy="0" r="1" gradientTransform="matrix(0 162.224 -136.608 0 200.002 113.034)" gradientUnits="userSpaceOnUse"><stop stop-color="#1cb199"/><stop offset="1" stop-color="#494949" stop-opacity="0"/></radialGradient><radialGradient id="q" cx="0" cy="0" r="1" gradientTransform="matrix(0 84.0463 -63.1218 0 202.218 41.326)" gradientUnits="userSpaceOnUse"><stop stop-color="#3affe5"/><stop offset="1" stop-color="#38bbaa" stop-opacity="0"/></radialGradient><clipPath id="a"><path fill="#fff" d="M0 0h400v210H0z"/></clipPath></defs></svg>