<svg width="400" height="211" viewBox="0 0 400 211" fill="none" xmlns="http://www.w3.org/2000/svg">
<g clip-path="url(#clip0_4348_100685)">
<g filter="url(#filter0_b_4348_100685)">
<path fill-rule="evenodd" clip-rule="evenodd" d="M64.2401 -14.8827H63.3945V-14.0372V28.7612V28.9464C63.3945 86.1353 63.3945 114.932 71.244 141.021C78.7983 166.129 91.6004 189.345 108.802 209.133C126.677 229.694 151.03 245.062 199.394 275.582L199.551 275.681L200.002 275.965L200.454 275.681L200.61 275.582C248.975 245.062 273.328 229.694 291.202 209.133C308.404 189.345 321.206 166.129 328.761 141.021C336.61 114.932 336.61 86.1356 336.61 28.9471V28.7612V-14.0372V-14.8827H335.765C322.671 -14.8827 316.156 -14.883 309.729 -15.2378C282.579 -16.736 255.9 -22.9613 230.891 -33.6334C224.97 -36.16 219.128 -39.0432 207.387 -44.8379L200.377 -48.2977L200.002 -48.4824L199.628 -48.2977L192.618 -44.8379C180.877 -39.0432 175.035 -36.16 169.114 -33.6334C144.105 -22.9613 117.425 -16.736 90.2762 -15.2378C83.8485 -14.883 77.3332 -14.8827 64.2401 -14.8827ZM309.682 -14.3935C315.998 -14.0449 322.396 -14.0373 334.919 -14.0372H335.765V-13.1916V28.7612C335.765 86.1256 335.765 114.808 327.951 140.777C320.431 165.77 307.688 188.881 290.564 208.578C272.772 229.045 248.515 244.352 200.003 274.965L200.003 274.965C151.489 244.352 127.233 229.045 109.441 208.578C92.3171 188.881 79.5735 165.771 72.0537 140.777C64.2401 114.808 64.2401 86.1256 64.2401 28.7612V-13.1916V-14.0372H65.0857C77.6092 -14.0373 84.0071 -14.0449 90.3227 -14.3935C117.57 -15.8972 144.346 -22.145 169.446 -32.8557C175.393 -35.3935 181.259 -38.2888 192.992 -44.0794L192.992 -44.0796L200.002 -47.5394L207.012 -44.0797C218.745 -38.2889 224.612 -35.3935 230.559 -32.8556C255.658 -22.145 282.434 -15.8972 309.682 -14.3935ZM262.405 55.7908V55.1286L261.762 54.9699L200.207 39.7799L200.004 39.7299L199.802 39.7799L138.247 54.9699L137.604 55.1286V55.7908V75.1957V75.379C137.604 101.214 137.604 114.334 141.182 126.228C144.626 137.674 150.463 148.259 158.305 157.28C166.454 166.654 177.549 173.655 199.398 187.442L199.398 187.443L199.553 187.54L200.004 187.825L200.455 187.54L200.61 187.443L200.61 187.443C222.459 173.655 233.554 166.654 241.703 157.28C249.546 148.259 255.382 137.674 258.826 126.228C262.405 114.334 262.405 101.214 262.405 75.3789V75.1957V55.7908ZM158.943 156.725C167.01 166.005 178.008 172.945 200.004 186.825L200.004 186.825C222 172.945 232.998 166.005 241.065 156.725C248.829 147.794 254.607 137.316 258.016 125.984C261.559 114.209 261.559 101.205 261.559 75.1957V55.7908L200.004 40.6009L138.449 55.7908V75.1957C138.449 101.205 138.449 114.209 141.992 125.984C145.401 137.316 151.179 147.794 158.943 156.725Z" fill="url(#paint0_radial_4348_100685)"/>
</g>
<g filter="url(#filter1_b_4348_100685)">
<path d="M269.277 48.9275V48.5963L268.955 48.517L200.106 31.5271L200.005 31.5021L199.904 31.5271L131.055 48.517L130.733 48.5963V48.9275V70.6317V70.7243C130.733 99.7276 130.733 114.33 134.714 127.56C138.545 140.292 145.036 152.065 153.76 162.099C162.823 172.526 175.173 180.319 199.701 195.797L199.759 195.833L199.976 196.007L200.231 195.846L200.309 195.797C224.837 180.319 237.186 172.526 246.25 162.099C254.974 152.065 261.465 140.292 265.296 127.56C269.277 114.33 269.277 99.7275 269.277 70.7242V70.6317V48.9275Z" stroke="#494949" stroke-width="0.845575"/>
</g>
<g filter="url(#filter2_b_4348_100685)">
<path d="M276.418 42.2081V41.877L276.096 41.7976L200.106 23.0456L200.005 23.0206L199.904 23.0456L123.914 41.7976L123.593 41.877V42.2081V66.1634V66.2561C123.593 98.2766 123.593 114.388 127.984 128.984C132.211 143.03 139.373 156.019 148.996 167.089C158.996 178.592 172.622 187.19 199.701 204.278L199.78 204.328L200.005 204.47L200.231 204.328L200.309 204.278C227.389 187.19 241.014 178.592 251.014 167.089C260.638 156.019 267.8 143.03 272.026 128.984C276.418 114.388 276.418 98.2766 276.418 66.256V66.1635V42.2081Z" stroke="#494949" stroke-width="0.845575"/>
</g>
<g filter="url(#filter3_b_4348_100685)">
<path d="M283.559 35.4885V35.1574L283.237 35.0781L200.107 14.5638L200.006 14.5388L199.904 14.5638L116.774 35.0781L116.452 35.1574V35.4885V61.695V61.7878C116.452 96.8255 116.452 114.446 121.255 130.407C125.876 145.768 133.709 159.972 144.233 172.079C155.169 184.658 170.07 194.061 199.702 212.76L199.78 212.809L200.006 212.952L200.231 212.809L200.31 212.76C229.941 194.061 244.842 184.658 255.778 172.079C266.302 159.972 274.135 145.768 278.756 130.407C283.559 114.446 283.559 96.8256 283.559 61.7881V61.6954V61.695V35.4885Z" stroke="#494949" stroke-width="0.845575"/>
</g>
<g filter="url(#filter4_b_4348_100685)">
<path d="M290.7 28.7692V28.438L290.378 28.3587L200.107 6.08232L200.006 6.05733L199.904 6.08232L109.633 28.3587L109.312 28.438V28.7692V57.2268V57.3196C109.312 95.3745 109.312 114.503 114.525 131.831C119.542 148.506 128.045 163.926 139.47 177.069C151.342 190.725 167.519 200.933 199.702 221.241L199.78 221.291L200.006 221.433L200.231 221.291L200.309 221.242C232.493 200.933 248.67 190.725 260.541 177.069C271.966 163.926 280.469 148.506 285.486 131.831C290.7 114.503 290.7 95.3746 290.7 57.3199V57.2271V57.2268V28.7692Z" stroke="#494949" stroke-width="0.845575"/>
</g>
<g filter="url(#filter5_b_4348_100685)">
<path d="M298.6 21.3361V21.0049L298.278 20.9256L200.108 -3.30006L200.006 -3.32506L199.905 -3.30006L101.735 20.9256L101.413 21.0049V21.3361V52.2839V52.3767C101.413 93.7693 101.413 114.567 107.081 133.405C112.536 151.535 121.78 168.3 134.202 182.588C147.108 197.435 164.697 208.534 199.702 230.624L199.781 230.673L200.027 230.829L200.247 230.664L200.31 230.624C235.316 208.534 252.905 197.435 265.811 182.588C278.233 168.3 287.477 151.535 292.932 133.405C298.6 114.567 298.6 93.7694 298.6 52.3771V52.2842V52.2839V21.3361Z" stroke="#494949" stroke-width="0.845575"/>
</g>
<g filter="url(#filter6_b_4348_100685)">
<path d="M306.711 13.7046V13.3735L306.389 13.2941L200.108 -12.9329L200.007 -12.9579L199.906 -12.9329L93.6253 13.2941L93.3038 13.3735V13.7046V47.2091V47.302C93.3038 92.1213 93.3038 114.632 99.4385 135.022C105.343 154.645 115.348 172.79 128.792 188.255C142.762 204.325 161.799 216.338 199.703 240.256L199.781 240.306L199.789 240.311L199.797 240.316L199.797 240.316L200.039 240.453L200.247 240.297L200.311 240.257C238.215 216.338 257.252 204.325 271.222 188.255C284.666 172.79 294.672 154.645 300.576 135.022C306.711 114.632 306.711 92.1213 306.711 47.3018V47.2091V13.7046Z" stroke="#494949" stroke-width="0.845575"/>
</g>
<g filter="url(#filter7_b_4348_100685)">
<path d="M314.822 6.07304V5.7419L314.5 5.66257L200.109 -22.5658L200.008 -22.5908L199.907 -22.5658L85.5159 5.66257L85.1944 5.7419V6.07304V42.1342V42.2271C85.1944 90.4733 85.1944 114.698 91.7959 136.639C98.1492 157.755 108.916 177.28 123.383 193.922C138.416 211.214 158.902 224.142 199.704 249.889L199.782 249.939L200.008 250.081L200.234 249.939L200.312 249.89C241.114 224.142 261.6 211.214 276.633 193.922C291.1 177.28 301.867 157.755 308.22 136.639C314.822 114.698 314.822 90.4734 314.822 42.2275V42.1344V42.1342V6.07304Z" stroke="#494949" stroke-width="0.845575"/>
</g>
<g filter="url(#filter8_b_4348_100685)">
<path d="M323.526 -2.11692V-2.44806L323.204 -2.5274L200.11 -32.9036L200.008 -32.9286L199.907 -32.9036L76.8128 -2.5274L76.4913 -2.44806V-2.11692V36.688V36.781C76.4913 88.7047 76.4913 114.768 83.5937 138.374C90.4291 161.092 102.013 182.099 117.578 200.004C133.751 218.608 155.793 232.517 199.704 260.227L199.783 260.277L200.008 260.419L200.234 260.277L200.312 260.228C244.224 232.518 266.266 218.608 282.439 200.004C298.004 182.099 309.588 161.092 316.423 138.374C323.526 114.768 323.526 88.7048 323.526 36.7813V36.6884V36.688V-2.11692Z" stroke="#494949" stroke-width="0.845575"/>
</g>
<g filter="url(#filter9_b_4348_100685)">
<path d="M332.623 -10.6791V-11.0103L332.301 -11.0896L200.107 -43.7112L200.006 -43.7362L199.905 -43.7112L67.7112 -11.0896L67.3897 -11.0103V-10.6791V30.9943V31.0873C67.3897 86.8557 67.3897 114.841 75.0159 140.188C82.3553 164.581 94.7931 187.137 111.506 206.362C128.871 226.338 152.539 241.273 199.702 271.035L199.78 271.084L199.788 271.089L199.796 271.094L199.796 271.094L200.017 271.22L200.232 271.084L200.309 271.035C247.473 241.273 271.141 226.338 288.506 206.362C305.219 187.137 317.657 164.581 324.996 140.188C332.623 114.841 332.623 86.8556 332.623 31.087V30.9943V-10.6791Z" stroke="#494949" stroke-width="0.845575"/>
</g>
<g filter="url(#filter10_b_4348_100685)">
<path d="M342.294 -19.7802V-20.1113L341.973 -20.1906L200.107 -55.199L200.006 -55.224L199.905 -55.199L58.0393 -20.1906L57.7178 -20.1113V-19.7802V24.9422V25.0352C57.7178 84.8904 57.7178 114.919 65.9006 142.116C73.7757 168.29 87.1215 192.492 105.054 213.12C123.687 234.555 149.083 250.58 199.702 282.523L199.78 282.572L200.006 282.715L200.232 282.572L200.309 282.523C250.929 250.58 276.325 234.555 294.958 213.121C312.891 192.492 326.237 168.29 334.112 142.116C342.294 114.919 342.294 84.8906 342.294 25.036V24.9429V24.9423V-19.7802Z" stroke="#494949" stroke-width="0.845575"/>
</g>
<g filter="url(#filter11_b_4348_100685)">
<path d="M352.591 -29.4675V-29.7986L352.27 -29.8779L200.109 -67.4268L200.008 -67.4518L199.907 -67.4268L47.7464 -29.8779L47.4249 -29.7986V-29.4675V18.5003V18.5934C47.4249 82.7985 47.4249 115.002 56.2002 144.168C64.6455 172.238 78.9576 198.192 98.1886 220.314C118.171 243.3 145.406 260.487 199.704 294.751L199.782 294.8L200.037 294.961L200.254 294.787L200.312 294.751C254.61 260.487 281.845 243.3 301.827 220.314C321.059 198.192 335.371 172.238 343.816 144.168C352.591 115.002 352.591 82.7985 352.591 18.5934V18.5004V-29.4675Z" stroke="#494949" stroke-width="0.845575"/>
</g>
<g filter="url(#filter12_f_4348_100685)">
<ellipse cx="200.844" cy="124.823" rx="84.9456" ry="84.4399" fill="#009C77"/>
</g>
<g filter="url(#filter13_f_4348_100685)">
<path d="M253.595 80.1769V63.2815L200.001 50.0559L146.406 63.2815V80.1769C146.406 102.822 146.406 114.145 149.491 124.397C152.459 134.264 157.49 143.387 164.25 151.163C171.274 159.242 180.849 165.285 200.001 177.37L200.001 177.37C219.152 165.285 228.728 159.242 235.752 151.163C242.511 143.387 247.542 134.264 250.511 124.397C253.595 114.145 253.595 102.823 253.595 80.1771V80.1769Z" stroke="url(#paint1_radial_4348_100685)"/>
</g>
<g filter="url(#filter14_d_4348_100685)">
<path d="M254.095 63.2815V62.8899L253.715 62.7961L200.121 49.5705L200.001 49.5409L199.881 49.5705L146.286 62.7961L145.906 62.8899V63.2815V80.1769V80.2859C145.906 102.828 145.906 114.219 149.012 124.541C152.001 134.476 157.066 143.661 163.873 151.491C170.945 159.626 180.578 165.705 199.642 177.735L199.734 177.793L199.982 177.95L200.24 177.809L200.24 177.809L200.254 177.802L200.268 177.793L200.36 177.735C219.424 165.705 229.057 159.626 236.129 151.491C242.935 143.661 248 134.476 250.989 124.541C254.095 114.219 254.095 102.828 254.095 80.286V80.1771V80.1769V63.2815Z" stroke="url(#paint2_linear_4348_100685)" shape-rendering="crispEdges"/>
</g>
<g filter="url(#filter15_b_4348_100685)">
<rect x="130.5" y="80.1689" width="139" height="65.3972" rx="8" fill="#161616"/>
<path d="M156.809 96.4416C156.745 95.7939 156.459 95.2787 155.951 94.8962C155.443 94.5136 154.805 94.3223 154.036 94.3223C153.495 94.3223 153.017 94.4151 152.604 94.6007C152.195 94.7863 151.873 95.0439 151.638 95.3734C151.407 95.6992 151.292 96.0704 151.292 96.4871C151.292 96.7939 151.358 97.0628 151.491 97.2939C151.623 97.5249 151.801 97.7238 152.025 97.8905C152.252 98.0534 152.502 98.1935 152.775 98.3109C153.051 98.4284 153.33 98.5268 153.61 98.6064L154.837 98.9587C155.209 99.0609 155.58 99.1916 155.951 99.3507C156.322 99.5098 156.661 99.7106 156.968 99.953C157.279 100.192 157.527 100.485 157.712 100.834C157.902 101.178 157.996 101.593 157.996 102.078C157.996 102.699 157.835 103.258 157.513 103.754C157.192 104.25 156.729 104.644 156.127 104.936C155.525 105.224 154.803 105.368 153.962 105.368C153.171 105.368 152.483 105.237 151.9 104.976C151.317 104.711 150.858 104.345 150.525 103.879C150.192 103.413 150.004 102.873 149.962 102.26H151.053C151.091 102.718 151.243 103.106 151.508 103.425C151.773 103.743 152.118 103.985 152.542 104.152C152.966 104.315 153.44 104.396 153.962 104.396C154.542 104.396 155.057 104.3 155.508 104.106C155.962 103.909 156.318 103.637 156.576 103.288C156.837 102.936 156.968 102.527 156.968 102.061C156.968 101.667 156.866 101.337 156.661 101.072C156.457 100.803 156.171 100.578 155.803 100.396C155.44 100.214 155.017 100.053 154.536 99.9132L153.144 99.5041C152.231 99.2314 151.523 98.8545 151.019 98.3734C150.515 97.8924 150.263 97.2787 150.263 96.5325C150.263 95.9075 150.43 95.3583 150.763 94.8848C151.101 94.4075 151.555 94.0363 152.127 93.7712C152.703 93.5022 153.349 93.3677 154.065 93.3677C154.788 93.3677 155.428 93.5003 155.985 93.7655C156.542 94.0306 156.983 94.3962 157.309 94.8621C157.638 95.3242 157.815 95.8507 157.837 96.4416H156.809ZM170.093 99.3507C170.093 100.563 169.877 101.618 169.445 102.515C169.013 103.409 168.419 104.103 167.661 104.595C166.907 105.084 166.04 105.328 165.059 105.328C164.078 105.328 163.209 105.084 162.451 104.595C161.697 104.103 161.104 103.409 160.673 102.515C160.245 101.618 160.031 100.563 160.031 99.3507C160.031 98.1386 160.245 97.0856 160.673 96.1916C161.104 95.2939 161.699 94.6007 162.457 94.1121C163.214 93.6196 164.082 93.3734 165.059 93.3734C166.04 93.3734 166.907 93.6196 167.661 94.1121C168.419 94.6007 169.013 95.2939 169.445 96.1916C169.877 97.0856 170.093 98.1386 170.093 99.3507ZM169.059 99.3507C169.059 98.309 168.885 97.417 168.536 96.6746C168.188 95.9284 167.712 95.3583 167.11 94.9643C166.508 94.5704 165.824 94.3734 165.059 94.3734C164.298 94.3734 163.616 94.5704 163.013 94.9643C162.411 95.3583 161.934 95.9265 161.582 96.6689C161.233 97.4113 161.059 98.3052 161.059 99.3507C161.059 100.392 161.233 101.284 161.582 102.027C161.93 102.769 162.406 103.339 163.008 103.737C163.61 104.131 164.294 104.328 165.059 104.328C165.824 104.328 166.508 104.131 167.11 103.737C167.716 103.343 168.193 102.775 168.542 102.033C168.89 101.286 169.063 100.392 169.059 99.3507ZM181.776 97.1689H180.708C180.629 96.7712 180.485 96.4037 180.276 96.0666C180.072 95.7257 179.814 95.4284 179.504 95.1746C179.193 94.9208 178.841 94.7238 178.447 94.5837C178.053 94.4435 177.627 94.3734 177.168 94.3734C176.433 94.3734 175.763 94.5647 175.157 94.9473C174.555 95.3299 174.072 95.8924 173.708 96.6348C173.348 97.3734 173.168 98.2787 173.168 99.3507C173.168 100.43 173.348 101.339 173.708 102.078C174.072 102.817 174.555 103.377 175.157 103.76C175.763 104.139 176.433 104.328 177.168 104.328C177.627 104.328 178.053 104.258 178.447 104.118C178.841 103.978 179.193 103.783 179.504 103.533C179.814 103.279 180.072 102.981 180.276 102.64C180.485 102.3 180.629 101.93 180.708 101.533H181.776C181.682 102.067 181.504 102.565 181.242 103.027C180.985 103.485 180.655 103.887 180.254 104.231C179.856 104.576 179.397 104.845 178.879 105.038C178.36 105.231 177.79 105.328 177.168 105.328C176.191 105.328 175.324 105.084 174.566 104.595C173.808 104.103 173.214 103.409 172.782 102.515C172.354 101.622 172.14 100.567 172.14 99.3507C172.14 98.1348 172.354 97.0799 172.782 96.1859C173.214 95.292 173.808 94.6007 174.566 94.1121C175.324 93.6196 176.191 93.3734 177.168 93.3734C177.79 93.3734 178.36 93.47 178.879 93.6632C179.397 93.8526 179.856 94.1215 180.254 94.47C180.655 94.8147 180.985 95.2162 181.242 95.6746C181.504 96.1329 181.682 96.631 181.776 97.1689ZM188.522 105.169V104.39L192.323 100.118C192.819 99.5571 193.219 99.078 193.522 98.6802C193.825 98.2825 194.045 97.9151 194.181 97.578C194.321 97.2409 194.391 96.8905 194.391 96.5268C194.391 96.0837 194.287 95.6973 194.079 95.3677C193.874 95.0344 193.592 94.7749 193.232 94.5893C192.872 94.4037 192.467 94.3109 192.016 94.3109C191.539 94.3109 191.121 94.4132 190.761 94.6177C190.405 94.8223 190.128 95.1026 189.931 95.4587C189.734 95.8147 189.636 96.2238 189.636 96.6859H188.619C188.619 96.042 188.766 95.4719 189.062 94.9757C189.361 94.4757 189.768 94.0837 190.283 93.7996C190.802 93.5155 191.389 93.3734 192.045 93.3734C192.692 93.3734 193.268 93.5136 193.772 93.7939C194.276 94.0704 194.672 94.4473 194.96 94.9246C195.247 95.4018 195.391 95.9359 195.391 96.5268C195.391 96.9549 195.316 97.3696 195.164 97.7712C195.016 98.1727 194.761 98.6196 194.397 99.1121C194.033 99.6045 193.53 100.207 192.886 100.919L189.999 104.14V104.214H195.755V105.169H188.522ZM202.333 94.4871V93.5325H210.771V94.4871H207.083V105.169H206.021V94.4871H202.333ZM212.657 108.442C212.456 108.442 212.269 108.423 212.094 108.385C211.92 108.347 211.782 108.305 211.68 108.26L211.952 107.368C212.297 107.474 212.604 107.512 212.873 107.481C213.142 107.455 213.38 107.334 213.589 107.118C213.797 106.906 213.983 106.58 214.146 106.14L214.464 105.254L211.254 96.4416H212.35L214.941 103.834H215.021L217.612 96.4416H218.708L215.015 106.55C214.86 106.97 214.668 107.32 214.441 107.601C214.214 107.885 213.951 108.095 213.651 108.231C213.356 108.372 213.024 108.442 212.657 108.442ZM220.687 108.442V96.4416H221.67V98.1064H221.789C221.91 97.845 222.077 97.578 222.289 97.3052C222.501 97.0287 222.781 96.7958 223.13 96.6064C223.482 96.417 223.925 96.3223 224.46 96.3223C225.179 96.3223 225.808 96.5117 226.346 96.8905C226.888 97.2655 227.308 97.792 227.607 98.47C227.91 99.1443 228.062 99.9302 228.062 100.828C228.062 101.729 227.91 102.519 227.607 103.197C227.308 103.875 226.888 104.404 226.346 104.783C225.808 105.161 225.183 105.351 224.471 105.351C223.944 105.351 223.503 105.256 223.147 105.067C222.795 104.877 222.509 104.644 222.289 104.368C222.073 104.087 221.906 103.815 221.789 103.55H221.698V108.442H220.687ZM221.687 100.811C221.687 101.515 221.791 102.14 221.999 102.686C222.211 103.228 222.514 103.654 222.908 103.964C223.306 104.271 223.787 104.425 224.352 104.425C224.931 104.425 225.42 104.265 225.817 103.947C226.219 103.625 226.524 103.192 226.732 102.646C226.944 102.101 227.05 101.489 227.05 100.811C227.05 100.14 226.946 99.5363 226.738 98.9984C226.533 98.4606 226.23 98.0344 225.829 97.72C225.427 97.4018 224.935 97.2427 224.352 97.2427C223.783 97.2427 223.3 97.3962 222.903 97.703C222.505 98.006 222.202 98.4265 221.994 98.9643C221.789 99.4984 221.687 100.114 221.687 100.811ZM233.809 105.351C232.995 105.351 232.29 105.161 231.695 104.783C231.101 104.4 230.64 103.872 230.315 103.197C229.993 102.519 229.832 101.739 229.832 100.856C229.832 99.9776 229.993 99.1973 230.315 98.5155C230.64 97.8299 231.089 97.2939 231.661 96.9075C232.237 96.5174 232.902 96.3223 233.656 96.3223C234.129 96.3223 234.585 96.4094 235.025 96.5837C235.464 96.7541 235.858 97.0174 236.207 97.3734C236.559 97.7257 236.837 98.1708 237.042 98.7087C237.246 99.2427 237.349 99.8753 237.349 100.606V101.106H230.531V100.214H236.315C236.315 99.6537 236.201 99.1499 235.974 98.703C235.75 98.2522 235.438 97.8962 235.036 97.6348C234.638 97.3734 234.178 97.2427 233.656 97.2427C233.103 97.2427 232.616 97.3905 232.195 97.6859C231.775 97.9814 231.445 98.3715 231.207 98.8564C230.972 99.3412 230.853 99.8715 230.849 100.447V100.981C230.849 101.675 230.968 102.281 231.207 102.8C231.449 103.315 231.792 103.714 232.235 103.998C232.678 104.283 233.203 104.425 233.809 104.425C234.222 104.425 234.584 104.36 234.894 104.231C235.209 104.103 235.472 103.93 235.684 103.714C235.9 103.495 236.063 103.254 236.173 102.993L237.133 103.305C237 103.673 236.782 104.012 236.479 104.322C236.18 104.633 235.805 104.883 235.354 105.072C234.907 105.258 234.392 105.351 233.809 105.351ZM245.35 93.5325V105.169H244.288V93.5325H245.35ZM249.506 93.5325V105.169H248.444V93.5325H249.506Z" fill="url(#paint3_linear_4348_100685)"/>
<path d="M148.5 116.169H251.5" stroke="#F3F3F3" stroke-opacity="0.1" stroke-width="0.845575"/>
<path d="M155.345 128.867H154.677C154.627 128.619 154.537 128.389 154.407 128.179C154.279 127.965 154.118 127.78 153.924 127.621C153.73 127.462 153.51 127.339 153.264 127.252C153.017 127.164 152.751 127.12 152.465 127.12C152.005 127.12 151.586 127.24 151.207 127.479C150.831 127.718 150.529 128.07 150.302 128.534C150.077 128.995 149.965 129.561 149.965 130.231C149.965 130.906 150.077 131.474 150.302 131.936C150.529 132.397 150.831 132.748 151.207 132.987C151.586 133.223 152.005 133.342 152.465 133.342C152.751 133.342 153.017 133.298 153.264 133.21C153.51 133.123 153.73 133.001 153.924 132.845C154.118 132.686 154.279 132.5 154.407 132.287C154.537 132.074 154.627 131.843 154.677 131.595H155.345C155.285 131.929 155.174 132.24 155.011 132.529C154.85 132.815 154.644 133.066 154.393 133.281C154.144 133.497 153.858 133.665 153.533 133.786C153.209 133.906 152.853 133.967 152.465 133.967C151.854 133.967 151.312 133.814 150.838 133.509C150.365 133.201 149.993 132.768 149.723 132.209C149.456 131.65 149.322 130.991 149.322 130.231C149.322 129.471 149.456 128.812 149.723 128.253C149.993 127.694 150.365 127.262 150.838 126.957C151.312 126.649 151.854 126.495 152.465 126.495C152.853 126.495 153.209 126.556 153.533 126.676C153.858 126.795 154.144 126.963 154.393 127.181C154.644 127.396 154.85 127.647 155.011 127.933C155.174 128.22 155.285 128.531 155.345 128.867ZM158.978 133.981C158.469 133.981 158.029 133.863 157.657 133.626C157.286 133.387 156.998 133.057 156.794 132.635C156.593 132.211 156.492 131.724 156.492 131.172C156.492 130.623 156.593 130.135 156.794 129.709C156.998 129.281 157.278 128.946 157.636 128.704C157.996 128.46 158.411 128.338 158.882 128.338C159.178 128.338 159.464 128.393 159.738 128.502C160.013 128.608 160.259 128.773 160.477 128.995C160.697 129.215 160.871 129.494 160.999 129.83C161.127 130.164 161.191 130.559 161.191 131.016V131.328H156.929V130.771H160.544C160.544 130.42 160.473 130.106 160.331 129.826C160.192 129.545 159.996 129.322 159.745 129.159C159.497 128.995 159.209 128.914 158.882 128.914C158.537 128.914 158.233 129.006 157.97 129.191C157.707 129.375 157.501 129.619 157.352 129.922C157.205 130.225 157.13 130.557 157.128 130.916V131.25C157.128 131.683 157.203 132.062 157.352 132.387C157.503 132.709 157.718 132.958 157.995 133.136C158.272 133.313 158.599 133.402 158.978 133.402C159.236 133.402 159.462 133.362 159.657 133.281C159.853 133.201 160.018 133.093 160.15 132.958C160.285 132.821 160.387 132.671 160.456 132.507L161.056 132.703C160.973 132.932 160.837 133.144 160.647 133.338C160.46 133.532 160.226 133.689 159.944 133.807C159.665 133.923 159.343 133.981 158.978 133.981ZM162.584 133.867V128.413H163.198V129.251H163.244C163.353 128.976 163.542 128.755 163.812 128.587C164.084 128.416 164.392 128.331 164.736 128.331C164.788 128.331 164.846 128.332 164.91 128.335C164.973 128.337 165.027 128.339 165.069 128.342V128.985C165.041 128.98 164.991 128.973 164.92 128.963C164.849 128.954 164.772 128.949 164.689 128.949C164.405 128.949 164.152 129.009 163.929 129.13C163.709 129.249 163.535 129.413 163.407 129.624C163.28 129.835 163.216 130.075 163.216 130.345V133.867H162.584ZM168.638 128.413V128.963H166.035V128.413H168.638ZM166.848 127.106H167.484V132.443C167.484 132.671 167.523 132.849 167.601 132.98C167.679 133.107 167.781 133.199 167.907 133.253C168.032 133.305 168.166 133.331 168.308 133.331C168.391 133.331 168.462 133.326 168.521 133.317C168.58 133.305 168.632 133.293 168.677 133.281L168.812 133.853C168.751 133.877 168.675 133.898 168.585 133.917C168.495 133.938 168.384 133.949 168.251 133.949C168.019 133.949 167.795 133.898 167.58 133.796C167.367 133.695 167.192 133.543 167.054 133.342C166.917 133.141 166.848 132.891 166.848 132.593V127.106ZM170.081 133.867V128.413H170.717V133.867H170.081ZM170.404 127.475C170.274 127.475 170.163 127.432 170.07 127.344C169.978 127.254 169.932 127.146 169.932 127.021C169.932 126.895 169.978 126.789 170.07 126.701C170.163 126.611 170.274 126.566 170.404 126.566C170.534 126.566 170.646 126.611 170.738 126.701C170.83 126.789 170.876 126.895 170.876 127.021C170.876 127.146 170.83 127.254 170.738 127.344C170.646 127.432 170.534 127.475 170.404 127.475ZM174.633 128.413V128.963H171.951V128.413H174.633ZM172.79 133.867V127.614C172.79 127.32 172.857 127.073 172.992 126.872C173.129 126.67 173.308 126.518 173.528 126.414C173.748 126.309 173.982 126.257 174.228 126.257C174.393 126.257 174.531 126.272 174.64 126.3C174.751 126.326 174.839 126.352 174.902 126.378L174.718 126.932C174.67 126.918 174.612 126.901 174.544 126.882C174.475 126.863 174.389 126.854 174.285 126.854C174.01 126.854 173.798 126.931 173.649 127.085C173.5 127.239 173.425 127.459 173.425 127.745L173.422 133.867H172.79ZM175.901 133.867V128.413H176.537V133.867H175.901ZM176.224 127.475C176.094 127.475 175.983 127.432 175.891 127.344C175.798 127.254 175.752 127.146 175.752 127.021C175.752 126.895 175.798 126.789 175.891 126.701C175.983 126.611 176.094 126.566 176.224 126.566C176.355 126.566 176.466 126.611 176.558 126.701C176.65 126.789 176.697 126.895 176.697 127.021C176.697 127.146 176.65 127.254 176.558 127.344C176.466 127.432 176.355 127.475 176.224 127.475ZM180.414 133.981C179.905 133.981 179.464 133.863 179.093 133.626C178.721 133.387 178.433 133.057 178.23 132.635C178.029 132.211 177.928 131.724 177.928 131.172C177.928 130.623 178.029 130.135 178.23 129.709C178.433 129.281 178.714 128.946 179.071 128.704C179.431 128.46 179.847 128.338 180.318 128.338C180.614 128.338 180.899 128.393 181.174 128.502C181.448 128.608 181.695 128.773 181.912 128.995C182.133 129.215 182.307 129.494 182.434 129.83C182.562 130.164 182.626 130.559 182.626 131.016V131.328H178.365V130.771H181.98C181.98 130.42 181.909 130.106 181.767 129.826C181.627 129.545 181.432 129.322 181.181 129.159C180.932 128.995 180.645 128.914 180.318 128.914C179.972 128.914 179.668 129.006 179.405 129.191C179.142 129.375 178.937 129.619 178.787 129.922C178.641 130.225 178.566 130.557 178.564 130.916V131.25C178.564 131.683 178.638 132.062 178.787 132.387C178.939 132.709 179.153 132.958 179.43 133.136C179.707 133.313 180.035 133.402 180.414 133.402C180.672 133.402 180.898 133.362 181.092 133.281C181.289 133.201 181.453 133.093 181.586 132.958C181.721 132.821 181.822 132.671 181.891 132.507L182.491 132.703C182.408 132.932 182.272 133.144 182.083 133.338C181.896 133.532 181.661 133.689 181.38 133.807C181.1 133.923 180.778 133.981 180.414 133.981ZM185.983 133.981C185.535 133.981 185.144 133.863 184.807 133.626C184.471 133.389 184.208 133.059 184.019 132.635C183.832 132.211 183.739 131.718 183.739 131.154C183.739 130.593 183.832 130.102 184.019 129.681C184.208 129.257 184.472 128.928 184.811 128.693C185.15 128.457 185.544 128.338 185.994 128.338C186.325 128.338 186.601 128.397 186.821 128.516C187.041 128.632 187.217 128.776 187.35 128.949C187.483 129.122 187.586 129.29 187.659 129.453H187.716V126.595H188.351V133.867H187.734V132.855H187.659C187.586 133.021 187.481 133.192 187.347 133.367C187.212 133.54 187.033 133.685 186.81 133.804C186.59 133.922 186.314 133.981 185.983 133.981ZM186.057 133.402C186.41 133.402 186.711 133.306 186.959 133.115C187.208 132.92 187.397 132.654 187.528 132.316C187.66 131.975 187.726 131.584 187.726 131.144C187.726 130.708 187.661 130.323 187.531 129.99C187.401 129.653 187.212 129.391 186.963 129.201C186.714 129.009 186.413 128.914 186.057 128.914C185.693 128.914 185.385 129.013 185.134 129.212C184.886 129.408 184.696 129.675 184.566 130.011C184.438 130.347 184.374 130.725 184.374 131.144C184.374 131.567 184.439 131.95 184.57 132.291C184.7 132.632 184.889 132.903 185.138 133.104C185.389 133.303 185.695 133.402 186.057 133.402Z" fill="white"/>
<rect x="235.191" y="122.169" width="16.3076" height="15.3972" rx="7.69858" fill="#112B25"/>
<path fill-rule="evenodd" clip-rule="evenodd" d="M243.234 126.195C243.304 126.16 243.386 126.16 243.457 126.195L243.607 126.269C244.428 126.674 245.331 126.885 246.247 126.885C246.386 126.885 246.499 126.998 246.499 127.137L246.499 129.804C246.499 130.936 245.919 131.988 244.962 132.592L243.48 133.527C243.398 133.579 243.293 133.579 243.211 133.527L241.729 132.592C240.772 131.988 240.191 130.936 240.191 129.804V127.137C240.191 127.07 240.218 127.006 240.265 126.959C240.313 126.911 240.377 126.885 240.444 126.885C241.359 126.885 242.263 126.674 243.084 126.269L243.234 126.195ZM243.345 126.703L243.307 126.721C242.492 127.124 241.602 127.349 240.696 127.385V129.804C240.696 130.762 241.188 131.654 241.998 132.165L243.345 133.015L244.692 132.165C245.503 131.654 245.994 130.762 245.994 129.804L245.994 127.385C245.088 127.349 244.198 127.124 243.383 126.721L243.345 126.703ZM245.17 128.324C245.269 128.423 245.269 128.583 245.17 128.681L243.176 130.676C243.077 130.774 242.918 130.774 242.819 130.676L241.736 129.593C241.638 129.494 241.638 129.335 241.736 129.236C241.835 129.138 241.995 129.138 242.093 129.236L242.997 130.14L244.814 128.324C244.912 128.226 245.072 128.226 245.17 128.324Z" fill="#1DF7C3"/>
<rect x="131" y="80.6689" width="138" height="64.3972" rx="7.5" stroke="url(#paint4_linear_4348_100685)"/>
</g>
</g>
<defs>
<filter id="filter0_b_4348_100685" x="52.3714" y="-59.5055" width="295.261" height="346.494" filterUnits="userSpaceOnUse" color-interpolation-filters="sRGB">
<feFlood flood-opacity="0" result="BackgroundImageFix"/>
<feGaussianBlur in="BackgroundImageFix" stdDeviation="5.51156"/>
<feComposite in2="SourceAlpha" operator="in" result="effect1_backgroundBlur_4348_100685"/>
<feBlend mode="normal" in="SourceGraphic" in2="effect1_backgroundBlur_4348_100685" result="shape"/>
</filter>
<filter id="filter1_b_4348_100685" x="119.289" y="20.0435" width="161.433" height="187.505" filterUnits="userSpaceOnUse" color-interpolation-filters="sRGB">
<feFlood flood-opacity="0" result="BackgroundImageFix"/>
<feGaussianBlur in="BackgroundImageFix" stdDeviation="5.51156"/>
<feComposite in2="SourceAlpha" operator="in" result="effect1_backgroundBlur_4348_100685"/>
<feBlend mode="normal" in="SourceGraphic" in2="effect1_backgroundBlur_4348_100685" result="shape"/>
</filter>
<filter id="filter2_b_4348_100685" x="112.149" y="11.562" width="175.714" height="204.431" filterUnits="userSpaceOnUse" color-interpolation-filters="sRGB">
<feFlood flood-opacity="0" result="BackgroundImageFix"/>
<feGaussianBlur in="BackgroundImageFix" stdDeviation="5.51156"/>
<feComposite in2="SourceAlpha" operator="in" result="effect1_backgroundBlur_4348_100685"/>
<feBlend mode="normal" in="SourceGraphic" in2="effect1_backgroundBlur_4348_100685" result="shape"/>
</filter>
<filter id="filter3_b_4348_100685" x="105.008" y="3.08027" width="189.995" height="221.395" filterUnits="userSpaceOnUse" color-interpolation-filters="sRGB">
<feFlood flood-opacity="0" result="BackgroundImageFix"/>
<feGaussianBlur in="BackgroundImageFix" stdDeviation="5.51156"/>
<feComposite in2="SourceAlpha" operator="in" result="effect1_backgroundBlur_4348_100685"/>
<feBlend mode="normal" in="SourceGraphic" in2="effect1_backgroundBlur_4348_100685" result="shape"/>
</filter>
<filter id="filter4_b_4348_100685" x="97.8675" y="-5.40124" width="204.277" height="238.358" filterUnits="userSpaceOnUse" color-interpolation-filters="sRGB">
<feFlood flood-opacity="0" result="BackgroundImageFix"/>
<feGaussianBlur in="BackgroundImageFix" stdDeviation="5.51156"/>
<feComposite in2="SourceAlpha" operator="in" result="effect1_backgroundBlur_4348_100685"/>
<feBlend mode="normal" in="SourceGraphic" in2="effect1_backgroundBlur_4348_100685" result="shape"/>
</filter>
<filter id="filter5_b_4348_100685" x="89.9691" y="-14.7836" width="220.077" height="257.148" filterUnits="userSpaceOnUse" color-interpolation-filters="sRGB">
<feFlood flood-opacity="0" result="BackgroundImageFix"/>
<feGaussianBlur in="BackgroundImageFix" stdDeviation="5.51156"/>
<feComposite in2="SourceAlpha" operator="in" result="effect1_backgroundBlur_4348_100685"/>
<feBlend mode="normal" in="SourceGraphic" in2="effect1_backgroundBlur_4348_100685" result="shape"/>
</filter>
<filter id="filter6_b_4348_100685" x="81.8597" y="-24.4164" width="236.296" height="276.398" filterUnits="userSpaceOnUse" color-interpolation-filters="sRGB">
<feFlood flood-opacity="0" result="BackgroundImageFix"/>
<feGaussianBlur in="BackgroundImageFix" stdDeviation="5.51156"/>
<feComposite in2="SourceAlpha" operator="in" result="effect1_backgroundBlur_4348_100685"/>
<feBlend mode="normal" in="SourceGraphic" in2="effect1_backgroundBlur_4348_100685" result="shape"/>
</filter>
<filter id="filter7_b_4348_100685" x="73.7503" y="-34.0494" width="252.519" height="295.654" filterUnits="userSpaceOnUse" color-interpolation-filters="sRGB">
<feFlood flood-opacity="0" result="BackgroundImageFix"/>
<feGaussianBlur in="BackgroundImageFix" stdDeviation="5.51156"/>
<feComposite in2="SourceAlpha" operator="in" result="effect1_backgroundBlur_4348_100685"/>
<feBlend mode="normal" in="SourceGraphic" in2="effect1_backgroundBlur_4348_100685" result="shape"/>
</filter>
<filter id="filter8_b_4348_100685" x="65.0472" y="-44.3871" width="269.925" height="316.329" filterUnits="userSpaceOnUse" color-interpolation-filters="sRGB">
<feFlood flood-opacity="0" result="BackgroundImageFix"/>
<feGaussianBlur in="BackgroundImageFix" stdDeviation="5.51156"/>
<feComposite in2="SourceAlpha" operator="in" result="effect1_backgroundBlur_4348_100685"/>
<feBlend mode="normal" in="SourceGraphic" in2="effect1_backgroundBlur_4348_100685" result="shape"/>
</filter>
<filter id="filter9_b_4348_100685" x="55.9456" y="-55.1948" width="288.124" height="337.931" filterUnits="userSpaceOnUse" color-interpolation-filters="sRGB">
<feFlood flood-opacity="0" result="BackgroundImageFix"/>
<feGaussianBlur in="BackgroundImageFix" stdDeviation="5.51156"/>
<feComposite in2="SourceAlpha" operator="in" result="effect1_backgroundBlur_4348_100685"/>
<feBlend mode="normal" in="SourceGraphic" in2="effect1_backgroundBlur_4348_100685" result="shape"/>
</filter>
<filter id="filter10_b_4348_100685" x="46.2738" y="-66.6825" width="307.468" height="360.92" filterUnits="userSpaceOnUse" color-interpolation-filters="sRGB">
<feFlood flood-opacity="0" result="BackgroundImageFix"/>
<feGaussianBlur in="BackgroundImageFix" stdDeviation="5.51156"/>
<feComposite in2="SourceAlpha" operator="in" result="effect1_backgroundBlur_4348_100685"/>
<feBlend mode="normal" in="SourceGraphic" in2="effect1_backgroundBlur_4348_100685" result="shape"/>
</filter>
<filter id="filter11_b_4348_100685" x="35.9808" y="-78.9103" width="328.058" height="385.413" filterUnits="userSpaceOnUse" color-interpolation-filters="sRGB">
<feFlood flood-opacity="0" result="BackgroundImageFix"/>
<feGaussianBlur in="BackgroundImageFix" stdDeviation="5.51156"/>
<feComposite in2="SourceAlpha" operator="in" result="effect1_backgroundBlur_4348_100685"/>
<feBlend mode="normal" in="SourceGraphic" in2="effect1_backgroundBlur_4348_100685" result="shape"/>
</filter>
<filter id="filter12_f_4348_100685" x="-92.1131" y="-167.628" width="585.914" height="584.903" filterUnits="userSpaceOnUse" color-interpolation-filters="sRGB">
<feFlood flood-opacity="0" result="BackgroundImageFix"/>
<feBlend mode="normal" in="SourceGraphic" in2="BackgroundImageFix" result="shape"/>
<feGaussianBlur stdDeviation="104.006" result="effect1_foregroundBlur_4348_100685"/>
</filter>
<filter id="filter13_f_4348_100685" x="142.906" y="46.5409" width="114.188" height="134.421" filterUnits="userSpaceOnUse" color-interpolation-filters="sRGB">
<feFlood flood-opacity="0" result="BackgroundImageFix"/>
<feBlend mode="normal" in="SourceGraphic" in2="BackgroundImageFix" result="shape"/>
<feGaussianBlur stdDeviation="1.5" result="effect1_foregroundBlur_4348_100685"/>
</filter>
<filter id="filter14_d_4348_100685" x="138.406" y="42.0259" width="123.188" height="143.503" filterUnits="userSpaceOnUse" color-interpolation-filters="sRGB">
<feFlood flood-opacity="0" result="BackgroundImageFix"/>
<feColorMatrix in="SourceAlpha" type="matrix" values="0 0 0 0 0 0 0 0 0 0 0 0 0 0 0 0 0 0 127 0" result="hardAlpha"/>
<feOffset/>
<feGaussianBlur stdDeviation="3.5"/>
<feComposite in2="hardAlpha" operator="out"/>
<feColorMatrix type="matrix" values="0 0 0 0 0 0 0 0 0 0 0 0 0 0 0 0 0 0 0.95 0"/>
<feBlend mode="normal" in2="BackgroundImageFix" result="effect1_dropShadow_4348_100685"/>
<feBlend mode="normal" in="SourceGraphic" in2="effect1_dropShadow_4348_100685" result="shape"/>
</filter>
<filter id="filter15_b_4348_100685" x="127.118" y="76.7866" width="145.765" height="72.1618" filterUnits="userSpaceOnUse" color-interpolation-filters="sRGB">
<feFlood flood-opacity="0" result="BackgroundImageFix"/>
<feGaussianBlur in="BackgroundImageFix" stdDeviation="1.69115"/>
<feComposite in2="SourceAlpha" operator="in" result="effect1_backgroundBlur_4348_100685"/>
<feBlend mode="normal" in="SourceGraphic" in2="effect1_backgroundBlur_4348_100685" result="shape"/>
</filter>
<radialGradient id="paint0_radial_4348_100685" cx="0" cy="0" r="1" gradientUnits="userSpaceOnUse" gradientTransform="translate(200.002 113.742) rotate(90) scale(162.224 136.608)">
<stop stop-color="#1CB199"/>
<stop offset="1" stop-color="#494949" stop-opacity="0"/>
</radialGradient>
<radialGradient id="paint1_radial_4348_100685" cx="0" cy="0" r="1" gradientUnits="userSpaceOnUse" gradientTransform="translate(202.218 42.0337) rotate(90) scale(84.0463 63.1218)">
<stop stop-color="#3AFFE5"/>
<stop offset="1" stop-color="#38BBAA" stop-opacity="0"/>
</radialGradient>
<linearGradient id="paint2_linear_4348_100685" x1="200.001" y1="50.0559" x2="200.001" y2="79.787" gradientUnits="userSpaceOnUse">
<stop stop-color="#1CF7C3"/>
<stop offset="1" stop-color="#3DCB8C" stop-opacity="0"/>
</linearGradient>
<linearGradient id="paint3_linear_4348_100685" x1="200" y1="88.1689" x2="200" y2="131.628" gradientUnits="userSpaceOnUse">
<stop stop-color="white"/>
<stop offset="1" stop-color="white" stop-opacity="0"/>
</linearGradient>
<linearGradient id="paint4_linear_4348_100685" x1="200" y1="74.9941" x2="200" y2="155.637" gradientUnits="userSpaceOnUse">
<stop stop-color="#1DF7C3" stop-opacity="0.86"/>
<stop offset="1" stop-color="#161616" stop-opacity="0"/>
</linearGradient>
<clipPath id="clip0_4348_100685">
<rect width="400" height="210" fill="white" transform="translate(0 0.707886)"/>
</clipPath>
</defs>
</svg>
