<svg xmlns="http://www.w3.org/2000/svg" width="400" height="211" fill="none" viewBox="0 0 400 211"><g clip-path="url(#a)"><g filter="url(#b)"><ellipse cx="199" cy="171.208" fill="#009c77" rx="84" ry="83.5"/></g><path stroke="url(#c)" stroke-dasharray="2.05 3.41" stroke-width=".5" d="M-18 85.56c0-13.254 10.745-24 24-24h81.26c13.255 0 24 10.746 24 24v92.148c0 13.255-10.745 24-24 24H6c-13.255 0-24-10.745-24-24z"/><path stroke="url(#d)" stroke-dasharray="2.05 3.41" stroke-width=".5" d="M286.739 85.56c0-13.254 10.746-24 24-24H392c13.255 0 24 10.746 24 24v92.148c0 13.255-10.745 24-24 24h-81.261c-13.254 0-24-10.745-24-24z"/><path stroke="url(#e)" stroke-dasharray="2.05 3.41" stroke-width=".5" d="M-18-64.292c0-13.255 10.745-24 24-24h81.26c13.255 0 24 10.745 24 24v92.147c0 13.255-10.745 24-24 24H6c-13.255 0-24-10.745-24-24z"/><path stroke="url(#f)" stroke-dasharray="2.05 3.41" stroke-width=".5" d="M286.74-64.292c0-13.255 10.745-24 24-24H392c13.255 0 24 10.745 24 24v92.147c0 13.255-10.745 24-24 24h-81.26c-13.255 0-24-10.745-24-24z"/><path stroke="url(#g)" stroke-dasharray="2.05 3.41" stroke-width=".5" d="M123.683-64.292c0-13.255 10.745-24 24-24h102.363c13.254 0 24 10.745 24 24v92.147c0 13.255-10.746 24-24 24H147.683c-13.255 0-24-10.745-24-24z"/><path stroke="url(#h)" stroke-width="3" d="M165.781 61.594h66.464m-33.26.23V2.536"/><g filter="url(#i)"><rect width="150" height="139" x="124" y="62.708" fill="url(#j)" rx="24"/><path fill="url(#k)" fill-opacity=".5" d="M237.837 123.907a22.83 22.83 0 0 0-1.938-18.669c-4.954-8.655-14.922-13.106-24.644-11.035a22.69 22.69 0 0 0-17.074-7.635c-9.937 0-18.767 6.43-21.844 15.919a22.71 22.71 0 0 0-15.136 11.034c-4.984 8.655-3.846 19.536 2.83 26.954a22.75 22.75 0 0 0 1.938 18.639 22.9 22.9 0 0 0 24.674 11.065 22.6 22.6 0 0 0 17.044 7.666c9.937 0 18.767-6.429 21.844-15.918a22.6 22.6 0 0 0 15.105-11.035 23.03 23.03 0 0 0-2.799-26.954zm-7.076-15.671c1.969 3.462 2.707 7.511 2.03 11.437-.123-.093-.369-.217-.523-.31l-18.09-10.509a3.02 3.02 0 0 0-2.984 0l-21.197 12.302v-9.026l17.505-10.169c8.153-4.73 18.552-1.916 23.259 6.275m-40.764 18.762 8.922-5.193 8.922 5.193v10.355l-8.922 5.193-8.922-5.193zm4.153-34.464c3.999 0 7.845 1.39 10.922 3.956-.123.062-.37.216-.554.31l-18.09 10.478c-.923.525-1.477 1.514-1.477 2.596v24.604l-7.784-4.512v-20.339c0-9.459 7.6-17.093 17.014-17.124zm-31.781 23.986c2-3.462 5.107-6.12 8.861-7.511v21.606c0 1.082.554 2.04 1.477 2.596l21.166 12.271-7.814 4.544-17.475-10.138c-8.122-4.73-10.922-15.177-6.215-23.368m4.769 39.657c-2-3.431-2.707-7.511-2.031-11.436.124.092.37.216.523.309l18.091 10.509a3.02 3.02 0 0 0 2.984 0l21.166-12.302v9.026l-17.505 10.138c-8.153 4.698-18.552 1.916-23.259-6.244zm36.58 15.703a16.92 16.92 0 0 1-10.891-3.957c.123-.062.4-.216.554-.309l18.09-10.479a2.9 2.9 0 0 0 1.477-2.596v-24.573l7.783 4.512v20.308c0 9.459-7.63 17.124-17.013 17.124zm31.811-23.987c-1.999 3.462-5.137 6.121-8.86 7.481v-21.607c0-1.081-.554-2.07-1.477-2.596l-21.197-12.302 7.784-4.513 17.505 10.138c8.153 4.73 10.922 15.177 6.215 23.368z"/><path stroke="url(#l)" stroke-width=".5" d="M165.295 145.147c-.563 3.756.151 7.631 2.059 10.904l.219.376h-.027c4.737 7.75 14.787 10.334 22.695 5.778zm0 0 .031.017q.1.054.175.1l.004.002 18.09 10.509.002.001a3.27 3.27 0 0 0 3.231 0l.002-.001 20.791-12.084v8.447l-17.38 10.066zm65.249-36.787c1.88 3.306 2.621 7.154 2.059 10.906l-.03-.017a5 5 0 0 1-.176-.1l-.003-.002-18.09-10.509-.002-.001a3.27 3.27 0 0 0-3.232 0l-.002.001-20.821 12.084v-8.448l17.381-10.097c8.032-4.659 18.277-1.889 22.916 6.183Zm-53.127 1.267c0-9.115 7.16-16.509 16.149-16.861l-.018.017h.602c3.82 0 7.497 1.288 10.48 3.67a4 4 0 0 1-.224.123l-.007.003-.006.004-18.089 10.477-.001.001c-1.004.572-1.602 1.646-1.602 2.813v24.17l-7.284-4.222zm-6.437-.255v21.243c0 1.171.601 2.21 1.597 2.81l.004.002 20.794 12.056-7.316 4.254-17.349-10.065c-8.003-4.66-10.762-14.955-6.124-23.027 1.911-3.309 4.847-5.871 8.394-7.273Zm32.988 62.287v-.029h-.25a16.7 16.7 0 0 1-10.446-3.664c.087-.049.172-.098.236-.137l.002-.001 18.085-10.475.001-.001a3.15 3.15 0 0 0 1.602-2.817v-24.136l7.283 4.223v20.164c0 9.238-7.384 16.738-16.513 16.873Zm31.314-23.921-.095.165.029.03c-1.913 3.228-4.836 5.728-8.297 7.079v-21.245c0-1.166-.598-2.24-1.602-2.813h-.001l-20.823-12.085 7.286-4.224 17.38 10.066c8.032 4.659 10.762 14.954 6.123 23.027Zm5.572 3.277a23.28 23.28 0 0 0-2.742-27.144 23.08 23.08 0 0 0-1.997-18.758c-4.983-8.707-14.986-13.205-24.769-11.185a22.94 22.94 0 0 0-17.166-7.61c-9.997 0-18.885 6.437-22.035 15.954a22.97 22.97 0 0 0-15.161 11.125c-5.013 8.707-3.898 19.641 2.765 27.137a23 23 0 0 0 2.004 18.705 23.15 23.15 0 0 0 24.799 11.215 22.86 22.86 0 0 0 17.136 7.641c9.998 0 18.885-6.438 22.035-15.954a22.84 22.84 0 0 0 15.131-11.126Zm-50.607-23.873 8.672-5.047 8.672 5.047v10.067l-8.672 5.048-8.672-5.048z"/><rect width="151" height="140" x="123.5" y="62.208" stroke="url(#m)" rx="24.5"/></g><g filter="url(#n)"><path stroke="url(#o)" stroke-width="3" d="M151.965 61.594h94.096m-47.076.23V2.536"/></g></g><defs><radialGradient id="c" cx="0" cy="0" r="1" gradientTransform="matrix(0 123.673 -132.688 0 198.864 59.13)" gradientUnits="userSpaceOnUse"><stop stop-color="#17fddf"/><stop offset="1" stop-color="#10ffe0"/></radialGradient><radialGradient id="d" cx="0" cy="0" r="1" gradientTransform="matrix(0 123.673 -132.688 0 198.864 59.13)" gradientUnits="userSpaceOnUse"><stop stop-color="#17fddf"/><stop offset="1" stop-color="#10ffe0"/></radialGradient><radialGradient id="e" cx="0" cy="0" r="1" gradientTransform="matrix(0 123.673 -132.688 0 198.864 59.13)" gradientUnits="userSpaceOnUse"><stop stop-color="#17fddf"/><stop offset="1" stop-color="#10ffe0"/></radialGradient><radialGradient id="f" cx="0" cy="0" r="1" gradientTransform="matrix(0 123.673 -132.688 0 198.864 59.13)" gradientUnits="userSpaceOnUse"><stop stop-color="#17fddf"/><stop offset="1" stop-color="#10ffe0"/></radialGradient><radialGradient id="g" cx="0" cy="0" r="1" gradientTransform="matrix(0 123.673 -132.688 0 198.864 59.13)" gradientUnits="userSpaceOnUse"><stop stop-color="#17fddf"/><stop offset="1" stop-color="#10ffe0"/></radialGradient><radialGradient id="h" cx="0" cy="0" r="1" gradientTransform="rotate(90 74.388 125.03)scale(32.4982)" gradientUnits="userSpaceOnUse"><stop stop-color="#3affe5"/><stop offset="1" stop-color="#38bbaa" stop-opacity="0"/></radialGradient><radialGradient id="j" cx="0" cy="0" r="1" gradientTransform="matrix(0 112.617 -166.125 0 199 89.091)" gradientUnits="userSpaceOnUse"><stop stop-color="#171717"/><stop offset="1" stop-color="#171717"/></radialGradient><radialGradient id="o" cx="0" cy="0" r="1" gradientTransform="rotate(90 74.388 125.03)scale(32.4982)" gradientUnits="userSpaceOnUse"><stop stop-color="#00ffde"/><stop offset="1" stop-color="#38bbaa" stop-opacity="0"/></radialGradient><linearGradient id="k" x1="180.264" x2="217.049" y1="106.428" y2="172.928" gradientUnits="userSpaceOnUse"><stop stop-color="#89ffca"/><stop offset="1" stop-color="#d0fae6" stop-opacity=".6"/></linearGradient><linearGradient id="l" x1="180.264" x2="217.049" y1="106.428" y2="172.928" gradientUnits="userSpaceOnUse"><stop stop-color="#a5ffd6"/><stop offset="1" stop-color="#d0fae6" stop-opacity=".81"/></linearGradient><linearGradient id="m" x1="164.284" x2="164.284" y1="58.733" y2="134.7" gradientUnits="userSpaceOnUse"><stop stop-color="#00dba7"/><stop offset="1" stop-color="#171717" stop-opacity=".55"/></linearGradient><filter id="b" width="660" height="659" x="-131" y="-158.292" color-interpolation-filters="sRGB" filterUnits="userSpaceOnUse"><feFlood flood-opacity="0" result="BackgroundImageFix"/><feBlend in="SourceGraphic" in2="BackgroundImageFix" result="shape"/><feGaussianBlur result="effect1_foregroundBlur_4348_100684" stdDeviation="123"/></filter><filter id="i" width="178.072" height="167.072" x="109.964" y="48.672" color-interpolation-filters="sRGB" filterUnits="userSpaceOnUse"><feFlood flood-opacity="0" result="BackgroundImageFix"/><feGaussianBlur in="BackgroundImageFix" stdDeviation="6.518"/><feComposite in2="SourceAlpha" operator="in" result="effect1_backgroundBlur_4348_100684"/><feBlend in="SourceGraphic" in2="effect1_backgroundBlur_4348_100684" result="shape"/></filter><filter id="n" width="102.098" height="68.558" x="147.965" y="-1.464" color-interpolation-filters="sRGB" filterUnits="userSpaceOnUse"><feFlood flood-opacity="0" result="BackgroundImageFix"/><feBlend in="SourceGraphic" in2="BackgroundImageFix" result="shape"/><feGaussianBlur result="effect1_foregroundBlur_4348_100684" stdDeviation="2"/></filter><clipPath id="a"><path fill="#fff" d="M0 .708h400v210H0z"/></clipPath></defs></svg>