<svg width="854" height="360" viewBox="0 0 854 360" fill="none" xmlns="http://www.w3.org/2000/svg">
<g clip-path="url(#clip0_4389_101437)">
<path d="M758.239 254.695H95.7383M758.239 171.274H95.7383M758.239 88.9901H95.7383M178.551 -0.113281V342.661M261.363 -0.113281V342.661M344.177 -0.113281V342.661M426.989 -0.113281V342.661M509.802 -0.113281V342.661M592.614 -0.113281V342.661M675.427 -0.113281V342.661M758.239 342.661H95.7383V-0.112952H758.239V342.661Z" stroke="url(#paint0_radial_4389_101437)" stroke-width="0.629106"/>
<path d="M758.259 171.274H95.7578M427.008 -0.113281V342.661" stroke="url(#paint1_radial_4389_101437)"/>
<path fill-rule="evenodd" clip-rule="evenodd" d="M264.442 22.9657C264.442 23.4947 264.013 23.9235 263.484 23.9235C262.955 23.9235 262.526 23.4947 262.526 22.9657C262.526 22.4367 262.955 22.0078 263.484 22.0078C264.013 22.0078 264.442 22.4367 264.442 22.9657ZM136.244 38.326C136.773 38.326 137.202 37.8971 137.202 37.3681C137.202 36.8391 136.773 36.4103 136.244 36.4103C135.715 36.4103 135.286 36.8391 135.286 37.3681C135.286 37.8971 135.715 38.326 136.244 38.326ZM1.28192 81.1149C1.81093 81.1149 2.23978 80.6861 2.23978 80.1571C2.23978 79.6281 1.81093 79.1992 1.28192 79.1992C0.752914 79.1992 0.324066 79.6281 0.324066 80.1571C0.324066 80.6861 0.752914 81.1149 1.28192 81.1149ZM853.725 120.234C853.22 120.075 852.939 119.538 853.097 119.033C853.255 118.528 853.793 118.247 854.298 118.406C854.803 118.564 855.083 119.102 854.925 119.606C854.767 120.111 854.229 120.392 853.725 120.234ZM153.205 181.199C153.734 181.199 154.163 180.77 154.163 180.241C154.163 179.712 153.734 179.283 153.205 179.283C152.676 179.283 152.247 179.712 152.247 180.241C152.247 180.77 152.676 181.199 153.205 181.199ZM593.538 271.337C593.009 271.306 592.557 271.71 592.526 272.238C592.496 272.766 592.9 273.219 593.428 273.249C593.956 273.279 594.409 272.876 594.439 272.348C594.469 271.819 594.066 271.367 593.538 271.337ZM604.974 372.923C605.004 372.394 605.457 371.991 605.985 372.021C606.513 372.051 606.917 372.504 606.887 373.032C606.856 373.56 606.404 373.964 605.876 373.934C605.347 373.903 604.944 373.451 604.974 372.923ZM953.772 131.555C953.614 132.059 953.895 132.597 954.399 132.755C954.904 132.913 955.442 132.633 955.6 132.128C955.758 131.623 955.477 131.086 954.973 130.927C954.468 130.769 953.93 131.05 953.772 131.555ZM994.162 86.4337C993.658 86.2754 993.377 85.7379 993.535 85.2331C993.693 84.7284 994.231 84.4475 994.736 84.6058C995.24 84.7641 995.521 85.3016 995.363 85.8064C995.205 86.3111 994.667 86.592 994.162 86.4337ZM351.167 401.987C351.198 401.459 351.65 401.055 352.178 401.085C352.707 401.116 353.11 401.568 353.08 402.096C353.05 402.625 352.597 403.028 352.069 402.998C351.541 402.968 351.137 402.515 351.167 401.987ZM978.597 225.946C978.439 226.451 978.72 226.989 979.225 227.147C979.729 227.305 980.267 227.024 980.425 226.519C980.583 226.015 980.303 225.477 979.798 225.319C979.293 225.161 978.755 225.441 978.597 225.946ZM227.181 53.2596C227.181 53.7886 226.752 54.2175 226.223 54.2175C225.694 54.2175 225.265 53.7886 225.265 53.2596C225.265 52.7306 225.694 52.3018 226.223 52.3018C226.752 52.3018 227.181 52.7306 227.181 53.2596ZM513.385 393.942C512.857 393.912 512.405 394.315 512.374 394.843C512.344 395.372 512.748 395.824 513.276 395.854C513.804 395.885 514.257 395.481 514.287 394.953C514.317 394.425 513.914 393.972 513.385 393.942ZM929.05 268.375C928.545 268.217 928.264 267.68 928.422 267.175C928.581 266.67 929.118 266.389 929.623 266.547C930.128 266.706 930.409 267.243 930.25 267.748C930.092 268.253 929.555 268.534 929.05 268.375ZM161.762 110.809C162.291 110.809 162.72 110.38 162.72 109.851C162.72 109.322 162.291 108.894 161.762 108.894C161.233 108.894 160.805 109.322 160.805 109.851C160.805 110.38 161.233 110.809 161.762 110.809ZM579.964 342.025C579.994 341.497 580.447 341.093 580.975 341.124C581.503 341.154 581.907 341.606 581.877 342.135C581.847 342.663 581.394 343.066 580.866 343.036C580.338 343.006 579.934 342.553 579.964 342.025ZM917.7 148.262C917.542 148.766 917.822 149.304 918.327 149.462C918.832 149.621 919.369 149.34 919.528 148.835C919.686 148.33 919.405 147.793 918.9 147.634C918.396 147.476 917.858 147.757 917.7 148.262ZM83.6929 258.362C83.6929 258.891 83.2641 259.32 82.735 259.32C82.206 259.32 81.7772 258.891 81.7772 258.362C81.7772 257.833 82.206 257.404 82.735 257.404C83.2641 257.404 83.6929 257.833 83.6929 258.362ZM650.595 283.17C650.067 283.14 649.615 283.544 649.584 284.072C649.554 284.6 649.958 285.053 650.486 285.083C651.014 285.113 651.467 284.71 651.497 284.181C651.527 283.653 651.123 283.201 650.595 283.17ZM879.133 67.7962C878.628 67.6379 878.347 67.1004 878.505 66.5956C878.664 66.0909 879.201 65.81 879.706 65.9683C880.211 66.1266 880.492 66.6641 880.333 67.1688C880.175 67.6736 879.638 67.9545 879.133 67.7962ZM91.2882 110.809C91.8172 110.809 92.2461 110.38 92.2461 109.851C92.2461 109.322 91.8172 108.894 91.2882 108.894C90.7592 108.894 90.3304 109.322 90.3304 109.851C90.3304 110.38 90.7592 110.809 91.2882 110.809ZM650.323 346.05C650.353 345.521 650.805 345.118 651.334 345.148C651.862 345.178 652.265 345.631 652.235 346.159C652.205 346.687 651.752 347.091 651.224 347.061C650.696 347.03 650.292 346.578 650.323 346.05ZM938.786 81.0155C938.627 81.5203 938.908 82.0578 939.413 82.2161C939.918 82.3744 940.455 82.0935 940.614 81.5888C940.772 81.084 940.491 80.5465 939.986 80.3882C939.481 80.2299 938.944 80.5108 938.786 81.0155ZM210.068 135.997C210.068 136.526 209.64 136.955 209.111 136.955C208.582 136.955 208.153 136.526 208.153 135.997C208.153 135.468 208.582 135.039 209.111 135.039C209.64 135.039 210.068 135.468 210.068 135.997ZM247.08 98.3298C247.609 98.3298 248.038 97.9009 248.038 97.3719C248.038 96.8429 247.609 96.4141 247.08 96.4141C246.551 96.4141 246.122 96.8429 246.122 97.3719C246.122 97.9009 246.551 98.3298 247.08 98.3298ZM272.398 58.4948C272.927 58.4948 273.356 58.0659 273.356 57.5369C273.356 57.0079 272.927 56.579 272.398 56.579C271.869 56.579 271.44 57.0079 271.44 57.5369C271.44 58.0659 271.869 58.4948 272.398 58.4948ZM275.14 186.985C275.119 187.514 274.673 187.925 274.145 187.904C273.616 187.883 273.205 187.437 273.226 186.908C273.247 186.38 273.693 185.969 274.222 185.99C274.75 186.011 275.161 186.457 275.14 186.985ZM238.796 147.637C239.325 147.658 239.77 147.247 239.792 146.719C239.813 146.19 239.402 145.744 238.873 145.723C238.344 145.702 237.899 146.113 237.877 146.642C237.856 147.17 238.268 147.616 238.796 147.637ZM207.159 198.001C207.138 198.529 206.692 198.941 206.163 198.919C205.635 198.898 205.223 198.452 205.245 197.924C205.266 197.395 205.712 196.984 206.24 197.005C206.769 197.026 207.18 197.472 207.159 198.001ZM268.049 237.331C268.578 237.352 269.023 236.94 269.045 236.412C269.066 235.883 268.654 235.438 268.126 235.416C267.597 235.395 267.152 235.806 267.13 236.335C267.109 236.864 267.52 237.309 268.049 237.331ZM268.701 318.327C268.68 318.855 268.234 319.267 267.705 319.245C267.177 319.224 266.765 318.778 266.787 318.25C266.808 317.721 267.254 317.31 267.782 317.331C268.311 317.352 268.722 317.798 268.701 318.327ZM324.115 260.081C324.644 260.102 325.09 259.69 325.111 259.162C325.132 258.633 324.721 258.188 324.192 258.166C323.664 258.145 323.218 258.556 323.197 259.085C323.176 259.614 323.587 260.059 324.115 260.081ZM534.189 313.218C534.219 312.69 534.672 312.287 535.2 312.317C535.728 312.347 536.132 312.8 536.101 313.328C536.071 313.856 535.619 314.26 535.09 314.229C534.562 314.199 534.159 313.747 534.189 313.218ZM878.586 185.615C878.428 186.12 878.709 186.657 879.214 186.816C879.719 186.974 880.256 186.693 880.414 186.188C880.573 185.684 880.292 185.146 879.787 184.988C879.282 184.83 878.745 185.11 878.586 185.615ZM272.252 128.39C271.96 127.949 272.083 127.355 272.524 127.063C272.966 126.772 273.56 126.894 273.851 127.336C274.142 127.778 274.02 128.372 273.579 128.663C273.137 128.954 272.543 128.832 272.252 128.39ZM471.323 318.571C471.78 318.306 471.936 317.719 471.671 317.262C471.405 316.804 470.819 316.648 470.362 316.914C469.904 317.179 469.748 317.765 470.014 318.223C470.279 318.681 470.865 318.836 471.323 318.571ZM482.13 282.779C482.395 283.237 482.24 283.823 481.782 284.088C481.324 284.354 480.738 284.198 480.473 283.74C480.207 283.283 480.363 282.697 480.821 282.431C481.278 282.166 481.864 282.322 482.13 282.779ZM869.05 249.083C868.905 248.574 868.375 248.28 867.866 248.426C867.357 248.572 867.063 249.102 867.209 249.61C867.354 250.119 867.885 250.413 868.393 250.268C868.902 250.122 869.196 249.592 869.05 249.083ZM132.707 255.503C132.416 255.061 132.538 254.467 132.98 254.176C133.421 253.885 134.016 254.007 134.307 254.448C134.598 254.89 134.476 255.484 134.034 255.775C133.592 256.066 132.998 255.944 132.707 255.503ZM617.898 199.634C618.356 199.369 618.511 198.783 618.246 198.325C617.98 197.868 617.394 197.712 616.937 197.977C616.479 198.243 616.323 198.829 616.589 199.287C616.854 199.744 617.44 199.9 617.898 199.634ZM788.328 77.2423C788.836 77.0966 789.367 77.3908 789.512 77.8994C789.658 78.408 789.364 78.9383 788.855 79.084C788.347 79.2296 787.816 78.9354 787.671 78.4268C787.525 77.9182 787.819 77.3879 788.328 77.2423ZM342.629 200.392C342.188 200.683 342.065 201.277 342.357 201.718C342.648 202.16 343.242 202.282 343.684 201.991C344.125 201.7 344.247 201.106 343.956 200.664C343.665 200.222 343.071 200.1 342.629 200.392ZM405.866 240.048C406.131 240.506 405.976 241.092 405.518 241.357C405.06 241.623 404.474 241.467 404.209 241.009C403.943 240.552 404.099 239.965 404.557 239.7C405.014 239.435 405.601 239.59 405.866 240.048ZM718.644 288.864C718.499 288.356 717.968 288.061 717.46 288.207C716.951 288.353 716.657 288.883 716.803 289.392C716.948 289.9 717.479 290.194 717.987 290.049C718.496 289.903 718.79 289.373 718.644 288.864ZM202.812 328.831C202.521 328.389 202.643 327.795 203.084 327.504C203.526 327.213 204.12 327.335 204.411 327.776C204.702 328.218 204.58 328.812 204.139 329.103C203.697 329.394 203.103 329.272 202.812 328.831ZM552.096 122.422C552.554 122.156 552.71 121.57 552.444 121.112C552.179 120.655 551.593 120.499 551.135 120.764C550.677 121.03 550.522 121.616 550.787 122.074C551.052 122.531 551.639 122.687 552.096 122.422ZM697.384 122.193C697.893 122.048 698.423 122.342 698.569 122.851C698.715 123.359 698.42 123.889 697.912 124.035C697.403 124.181 696.873 123.887 696.727 123.378C696.582 122.869 696.876 122.339 697.384 122.193ZM302.209 289.233C301.768 289.524 301.646 290.119 301.937 290.56C302.228 291.002 302.822 291.124 303.264 290.833C303.705 290.542 303.827 289.948 303.536 289.506C303.245 289.064 302.651 288.942 302.209 289.233ZM451.295 153.66C451.56 154.118 451.404 154.704 450.947 154.969C450.489 155.235 449.903 155.079 449.638 154.622C449.372 154.164 449.528 153.578 449.986 153.312C450.443 153.047 451.029 153.203 451.295 153.66ZM705.426 228.889C705.281 228.38 704.75 228.086 704.242 228.232C703.733 228.377 703.439 228.908 703.585 229.416C703.73 229.925 704.261 230.219 704.769 230.073C705.278 229.928 705.572 229.397 705.426 228.889ZM147.643 381.386C147.352 380.945 147.474 380.351 147.916 380.06C148.358 379.768 148.952 379.891 149.243 380.332C149.534 380.774 149.412 381.368 148.97 381.659C148.528 381.95 147.934 381.828 147.643 381.386ZM597.523 36.0329C597.981 35.7675 598.136 35.1814 597.871 34.7238C597.605 34.2662 597.019 34.1104 596.562 34.3758C596.104 34.6413 595.948 35.2274 596.214 35.685C596.479 36.1426 597.065 36.2984 597.523 36.0329ZM624.704 57.0423C625.213 56.8967 625.743 57.1909 625.888 57.6994C626.034 58.208 625.74 58.7383 625.231 58.884C624.723 59.0296 624.192 58.7354 624.047 58.2268C623.901 57.7183 624.195 57.1879 624.704 57.0423ZM281.439 273.269C280.997 273.561 280.875 274.155 281.166 274.596C281.457 275.038 282.051 275.16 282.493 274.869C282.935 274.578 283.057 273.984 282.766 273.542C282.474 273.1 281.88 272.978 281.439 273.269ZM471.116 170.784C471.382 171.242 471.226 171.828 470.768 172.093C470.311 172.359 469.724 172.203 469.459 171.746C469.194 171.288 469.349 170.702 469.807 170.436C470.264 170.171 470.851 170.327 471.116 170.784ZM726.87 213.846C726.724 213.337 726.194 213.043 725.685 213.189C725.177 213.334 724.882 213.865 725.028 214.373C725.174 214.882 725.704 215.176 726.213 215.03C726.721 214.885 727.015 214.354 726.87 213.846ZM38.8029 389.568C38.5117 389.126 38.6338 388.532 39.0755 388.241C39.5172 387.95 40.1112 388.072 40.4024 388.514C40.6935 388.955 40.5715 389.549 40.1298 389.841C39.6881 390.132 39.094 390.01 38.8029 389.568ZM617.347 53.1579C617.805 52.8925 617.961 52.3064 617.695 51.8488C617.43 51.3912 616.844 51.2354 616.386 51.5008C615.928 51.7663 615.773 52.3524 616.038 52.81C616.303 53.2676 616.89 53.4234 617.347 53.1579ZM646.154 42C646.663 41.8544 647.193 42.1486 647.339 42.6572C647.484 43.1657 647.19 43.6961 646.682 43.8417C646.173 43.9873 645.643 43.6931 645.497 43.1846C645.351 42.676 645.646 42.1456 646.154 42ZM304.114 190.543C303.673 190.834 303.551 191.428 303.842 191.87C304.133 192.312 304.727 192.434 305.169 192.142C305.61 191.851 305.732 191.257 305.441 190.816C305.15 190.374 304.556 190.252 304.114 190.543ZM443.757 252.081C444.022 252.539 443.866 253.125 443.409 253.39C442.951 253.656 442.365 253.5 442.1 253.042C441.834 252.585 441.99 251.999 442.448 251.733C442.905 251.468 443.491 251.623 443.757 252.081ZM799.025 260.233C798.879 259.725 798.349 259.431 797.841 259.576C797.332 259.722 797.038 260.252 797.183 260.761C797.329 261.269 797.859 261.564 798.368 261.418C798.876 261.272 799.171 260.742 799.025 260.233ZM164.298 318.982C164.006 318.541 164.128 317.946 164.57 317.655C165.012 317.364 165.606 317.486 165.897 317.928C166.188 318.37 166.066 318.964 165.624 319.255C165.183 319.546 164.589 319.424 164.298 318.982ZM589.984 134.454C590.442 134.188 590.597 133.602 590.332 133.145C590.066 132.687 589.48 132.531 589.023 132.797C588.565 133.062 588.409 133.648 588.675 134.106C588.94 134.563 589.526 134.719 589.984 134.454ZM718.305 88.3906C718.813 88.2449 719.343 88.5391 719.489 89.0477C719.635 89.5563 719.34 90.0866 718.832 90.2322C718.323 90.3779 717.793 90.0837 717.647 89.5751C717.502 89.0665 717.796 88.5362 718.305 88.3906ZM779.963 50.8818C779.817 50.3733 779.287 50.0791 778.778 50.2247C778.269 50.3703 777.975 50.9007 778.121 51.4092C778.267 51.9178 778.797 52.212 779.305 52.0664C779.814 51.9207 780.108 51.3904 779.963 50.8818ZM325.081 103.812C324.79 103.37 324.912 102.776 325.354 102.485C325.796 102.194 326.39 102.316 326.681 102.758C326.972 103.2 326.85 103.794 326.408 104.085C325.966 104.376 325.372 104.254 325.081 103.812ZM417.178 340.092C417.636 339.826 417.792 339.24 417.526 338.782C417.261 338.325 416.675 338.169 416.217 338.434C415.759 338.7 415.604 339.286 415.869 339.744C416.135 340.201 416.721 340.357 417.178 340.092ZM419.081 290.18C419.346 290.637 419.191 291.224 418.733 291.489C418.275 291.754 417.689 291.599 417.424 291.141C417.158 290.683 417.314 290.097 417.772 289.832C418.229 289.566 418.815 289.722 419.081 290.18ZM819.954 306.846C819.808 306.337 819.278 306.043 818.769 306.189C818.261 306.334 817.966 306.865 818.112 307.373C818.258 307.882 818.788 308.176 819.297 308.03C819.805 307.885 820.099 307.354 819.954 306.846ZM185.537 230.924C185.246 230.483 185.368 229.889 185.809 229.598C186.251 229.306 186.845 229.428 187.136 229.87C187.427 230.312 187.305 230.906 186.864 231.197C186.422 231.488 185.828 231.366 185.537 230.924ZM563.751 221.156C564.208 220.891 564.364 220.304 564.098 219.847C563.833 219.389 563.247 219.233 562.789 219.499C562.332 219.764 562.176 220.35 562.441 220.808C562.707 221.266 563.293 221.421 563.751 221.156ZM795.973 135.005C796.482 134.86 797.012 135.154 797.158 135.662C797.304 136.171 797.009 136.701 796.501 136.847C795.992 136.992 795.462 136.698 795.316 136.19C795.171 135.681 795.465 135.151 795.973 135.005ZM698.569 176.948C698.423 176.44 697.893 176.145 697.384 176.291C696.876 176.437 696.582 176.967 696.727 177.476C696.873 177.984 697.403 178.278 697.912 178.133C698.42 177.987 698.715 177.457 698.569 176.948ZM362.684 153.084C362.393 152.642 362.515 152.048 362.956 151.757C363.398 151.466 363.992 151.588 364.283 152.029C364.574 152.471 364.452 153.065 364.011 153.356C363.569 153.647 362.975 153.525 362.684 153.084ZM382.446 288.753C382.903 288.487 383.059 287.901 382.794 287.443C382.528 286.986 381.942 286.83 381.485 287.096C381.027 287.361 380.871 287.947 381.137 288.405C381.402 288.862 381.988 289.018 382.446 288.753ZM826.998 391.917C827.506 391.771 828.037 392.066 828.182 392.574C828.328 393.083 828.034 393.613 827.525 393.759C827.017 393.904 826.486 393.61 826.341 393.102C826.195 392.593 826.489 392.063 826.998 391.917ZM223.413 278.869C222.971 279.16 222.849 279.754 223.14 280.196C223.431 280.638 224.026 280.76 224.467 280.469C224.909 280.178 225.031 279.583 224.74 279.142C224.449 278.7 223.855 278.578 223.413 278.869ZM529.372 168.508C529.637 168.966 529.482 169.552 529.024 169.817C528.566 170.083 527.98 169.927 527.715 169.469C527.449 169.012 527.605 168.426 528.063 168.16C528.52 167.895 529.106 168.05 529.372 168.508ZM738.892 156.799C738.747 156.29 738.216 155.996 737.708 156.142C737.199 156.287 736.905 156.818 737.051 157.326C737.196 157.835 737.727 158.129 738.235 157.983C738.744 157.838 739.038 157.307 738.892 156.799ZM738.628 109.166C739.136 109.02 739.667 109.315 739.812 109.823C739.958 110.332 739.664 110.862 739.155 111.008C738.646 111.153 738.116 110.859 737.971 110.351C737.825 109.842 738.119 109.312 738.628 109.166ZM250.196 194.771C249.754 195.063 249.632 195.657 249.923 196.098C250.214 196.54 250.808 196.662 251.25 196.371C251.692 196.08 251.814 195.486 251.522 195.044C251.231 194.602 250.637 194.48 250.196 194.771ZM497.828 250.938C498.093 251.395 497.938 251.981 497.48 252.247C497.022 252.512 496.436 252.356 496.171 251.899C495.905 251.441 496.061 250.855 496.519 250.59C496.976 250.324 497.563 250.48 497.828 250.938ZM811.123 207.521C810.977 207.012 810.447 206.718 809.938 206.863C809.43 207.009 809.135 207.539 809.281 208.048C809.427 208.556 809.957 208.851 810.466 208.705C810.974 208.559 811.268 208.029 811.123 207.521ZM-141.23 285.162C-141.522 284.72 -141.4 284.126 -140.958 283.835C-140.516 283.544 -139.922 283.666 -139.631 284.107C-139.34 284.549 -139.462 285.143 -139.904 285.434C-140.345 285.725 -140.939 285.603 -141.23 285.162ZM644.06 133.312C644.518 133.047 644.673 132.46 644.408 132.003C644.143 131.545 643.556 131.39 643.099 131.655C642.641 131.92 642.486 132.507 642.751 132.964C643.016 133.422 643.603 133.577 644.06 133.312ZM730.406 35.6749C730.915 35.5292 731.445 35.8235 731.591 36.332C731.736 36.8406 731.442 37.3709 730.933 37.5166C730.425 37.6622 729.894 37.368 729.749 36.8594C729.603 36.3509 729.897 35.8205 730.406 35.6749ZM713.649 49.8205C713.503 49.3119 712.973 49.0177 712.464 49.1634C711.956 49.309 711.662 49.8393 711.807 50.3479C711.953 50.8565 712.483 51.1507 712.992 51.005C713.5 50.8594 713.795 50.3291 713.649 49.8205Z" fill="url(#paint2_radial_4389_101437)"/>
<path fill-rule="evenodd" clip-rule="evenodd" d="M375.172 76.6126C375.172 77.1338 374.749 77.5563 374.228 77.5563C373.707 77.5563 373.284 77.1338 373.284 76.6126C373.284 76.0914 373.707 75.6689 374.228 75.6689C374.749 75.6689 375.172 76.0914 375.172 76.6126ZM318.698 83.8414C319.219 83.8414 319.641 83.4189 319.641 82.8978C319.641 82.3766 319.219 81.9541 318.698 81.9541C318.176 81.9541 317.754 82.3766 317.754 82.8978C317.754 83.4189 318.176 83.8414 318.698 83.8414ZM259.797 102.516C260.318 102.516 260.741 102.094 260.741 101.573C260.741 101.051 260.318 100.629 259.797 100.629C259.276 100.629 258.853 101.051 258.853 101.573C258.853 102.094 259.276 102.516 259.797 102.516ZM630.479 119.383C629.982 119.227 629.705 118.697 629.861 118.2C630.017 117.703 630.547 117.426 631.044 117.582C631.541 117.738 631.818 118.267 631.662 118.765C631.506 119.262 630.977 119.539 630.479 119.383ZM326.099 146.195C326.62 146.195 327.043 145.772 327.043 145.251C327.043 144.73 326.62 144.308 326.099 144.308C325.578 144.308 325.155 144.73 325.155 145.251C325.155 145.772 325.578 146.195 326.099 146.195ZM517.28 183.403C516.76 183.373 516.314 183.77 516.284 184.291C516.254 184.811 516.652 185.257 517.172 185.287C517.693 185.317 518.139 184.919 518.168 184.399C518.198 183.878 517.8 183.432 517.28 183.403ZM521.717 228.232C521.746 227.712 522.192 227.314 522.713 227.344C523.233 227.374 523.631 227.82 523.601 228.34C523.571 228.86 523.125 229.258 522.605 229.228C522.084 229.199 521.687 228.753 521.717 228.232ZM673.8 123.665C673.644 124.162 673.921 124.692 674.418 124.847C674.915 125.003 675.445 124.727 675.601 124.229C675.757 123.732 675.48 123.203 674.983 123.047C674.485 122.891 673.956 123.167 673.8 123.665ZM691.77 104.632C691.273 104.476 690.996 103.946 691.152 103.449C691.308 102.952 691.837 102.675 692.335 102.831C692.832 102.987 693.109 103.517 692.953 104.014C692.797 104.511 692.267 104.788 691.77 104.632ZM410.949 240.916C410.979 240.396 411.425 239.998 411.945 240.028C412.465 240.057 412.863 240.503 412.833 241.024C412.803 241.544 412.358 241.942 411.837 241.912C411.317 241.882 410.919 241.436 410.949 240.916ZM684.634 164.859C684.478 165.356 684.754 165.886 685.252 166.042C685.749 166.198 686.279 165.921 686.434 165.424C686.59 164.927 686.314 164.397 685.816 164.241C685.319 164.085 684.79 164.362 684.634 164.859ZM358.911 89.8334C358.911 90.3545 358.488 90.777 357.967 90.777C357.446 90.777 357.024 90.3545 357.024 89.8334C357.024 89.3122 357.446 88.8897 357.967 88.8897C358.488 88.8897 358.911 89.3122 358.911 89.8334ZM482.299 236.911C481.779 236.881 481.333 237.278 481.303 237.799C481.274 238.319 481.671 238.765 482.192 238.795C482.712 238.825 483.158 238.427 483.188 237.907C483.217 237.386 482.82 236.94 482.299 236.911ZM663.355 184.035C662.858 183.879 662.581 183.35 662.737 182.852C662.893 182.355 663.423 182.078 663.92 182.234C664.417 182.39 664.694 182.92 664.538 183.417C664.382 183.914 663.852 184.191 663.355 184.035ZM329.834 115.475C330.355 115.475 330.778 115.053 330.778 114.532C330.778 114.01 330.355 113.588 329.834 113.588C329.313 113.588 328.891 114.01 328.891 114.532C328.891 115.053 329.313 115.475 329.834 115.475ZM510.801 214.747C510.83 214.227 511.276 213.829 511.797 213.859C512.317 213.889 512.715 214.334 512.685 214.855C512.655 215.375 512.209 215.773 511.689 215.743C511.168 215.713 510.771 215.267 510.801 214.747ZM658.055 130.956C657.9 131.453 658.176 131.983 658.674 132.139C659.171 132.295 659.7 132.018 659.856 131.521C660.012 131.023 659.736 130.494 659.238 130.338C658.741 130.182 658.211 130.459 658.055 130.956ZM296.288 179.345C296.288 179.866 295.865 180.289 295.344 180.289C294.823 180.289 294.401 179.866 294.401 179.345C294.401 178.824 294.823 178.401 295.344 178.401C295.865 178.401 296.288 178.824 296.288 179.345ZM542.18 188.567C541.66 188.537 541.214 188.935 541.184 189.455C541.154 189.976 541.552 190.421 542.072 190.451C542.593 190.481 543.039 190.083 543.068 189.563C543.098 189.043 542.701 188.597 542.18 188.567ZM641.57 96.498C641.073 96.342 640.796 95.8125 640.952 95.3152C641.108 94.8179 641.637 94.5412 642.135 94.6971C642.632 94.8531 642.909 95.3826 642.753 95.8799C642.597 96.3772 642.067 96.6539 641.57 96.498ZM299.076 115.475C299.598 115.475 300.02 115.053 300.02 114.532C300.02 114.01 299.598 113.588 299.076 113.588C298.555 113.588 298.133 114.01 298.133 114.532C298.133 115.053 298.555 115.475 299.076 115.475ZM541.508 216.504C541.537 215.983 541.983 215.586 542.504 215.616C543.024 215.645 543.422 216.091 543.392 216.612C543.362 217.132 542.916 217.53 542.396 217.5C541.875 217.47 541.478 217.024 541.508 216.504ZM667.259 101.608C667.103 102.106 667.38 102.635 667.877 102.791C668.374 102.947 668.904 102.67 669.06 102.173C669.216 101.676 668.939 101.146 668.442 100.99C667.944 100.834 667.415 101.111 667.259 101.608ZM351.441 125.942C351.441 126.463 351.019 126.885 350.497 126.885C349.976 126.885 349.554 126.463 349.554 125.942C349.554 125.421 349.976 124.998 350.497 124.998C351.019 124.998 351.441 125.421 351.441 125.942ZM367.069 110.029C367.59 110.029 368.012 109.606 368.012 109.085C368.012 108.564 367.59 108.142 367.069 108.142C366.548 108.142 366.125 108.564 366.125 109.085C366.125 109.606 366.548 110.029 367.069 110.029ZM378.118 92.6442C378.64 92.6442 379.062 92.2217 379.062 91.7005C379.062 91.1793 378.64 90.7568 378.118 90.7568C377.597 90.7568 377.175 91.1793 377.175 91.7005C377.175 92.2217 377.597 92.6442 378.118 92.6442ZM379.817 148.236C379.796 148.757 379.357 149.162 378.836 149.142C378.315 149.121 377.91 148.681 377.931 148.161C377.952 147.64 378.391 147.235 378.912 147.256C379.432 147.277 379.838 147.716 379.817 148.236ZM363.411 131.568C363.932 131.589 364.371 131.184 364.392 130.663C364.413 130.142 364.008 129.703 363.487 129.682C362.966 129.661 362.527 130.067 362.506 130.587C362.485 131.108 362.89 131.547 363.411 131.568ZM350.15 153.044C350.129 153.565 349.69 153.97 349.169 153.949C348.648 153.928 348.243 153.489 348.264 152.968C348.285 152.447 348.724 152.042 349.245 152.063C349.765 152.084 350.171 152.523 350.15 153.044ZM376.177 170.713C376.698 170.734 377.137 170.328 377.158 169.808C377.178 169.287 376.773 168.848 376.252 168.827C375.732 168.806 375.293 169.211 375.272 169.732C375.251 170.253 375.656 170.692 376.177 170.713ZM377.006 205.557C376.985 206.077 376.546 206.483 376.025 206.462C375.505 206.441 375.099 206.002 375.12 205.481C375.141 204.96 375.58 204.555 376.101 204.576C376.622 204.597 377.027 205.036 377.006 205.557ZM400.645 180.641C401.165 180.662 401.604 180.257 401.625 179.736C401.646 179.216 401.241 178.777 400.72 178.756C400.2 178.735 399.76 179.14 399.74 179.661C399.719 180.181 400.124 180.621 400.645 180.641ZM490.824 202.176C490.854 201.655 491.3 201.258 491.82 201.287C492.34 201.317 492.738 201.763 492.708 202.283C492.678 202.804 492.233 203.201 491.712 203.172C491.192 203.142 490.794 202.696 490.824 202.176ZM640.986 147.259C640.83 147.756 641.107 148.285 641.604 148.441C642.102 148.597 642.631 148.321 642.787 147.823C642.943 147.326 642.666 146.796 642.169 146.64C641.672 146.485 641.142 146.761 640.986 147.259ZM376.361 122.236C376.074 121.801 376.194 121.216 376.63 120.929C377.065 120.642 377.65 120.762 377.937 121.197C378.224 121.633 378.103 122.218 377.668 122.505C377.233 122.792 376.648 122.671 376.361 122.236ZM465.39 205.742C465.841 205.481 465.995 204.903 465.733 204.452C465.471 204.001 464.894 203.848 464.443 204.11C463.992 204.371 463.839 204.948 464.1 205.399C464.362 205.85 464.939 206.004 465.39 205.742ZM470.298 189.403C470.56 189.854 470.406 190.432 469.956 190.693C469.505 190.955 468.927 190.801 468.666 190.35C468.404 189.9 468.558 189.322 469.009 189.061C469.46 188.799 470.037 188.953 470.298 189.403ZM638.852 173.976C638.708 173.475 638.186 173.185 637.685 173.328C637.184 173.472 636.894 173.994 637.037 174.495C637.181 174.996 637.703 175.286 638.204 175.143C638.705 174.999 638.995 174.477 638.852 173.976ZM315.461 177.712C315.174 177.277 315.294 176.691 315.729 176.404C316.164 176.118 316.75 176.238 317.036 176.673C317.323 177.108 317.203 177.693 316.768 177.98C316.333 178.267 315.747 178.147 315.461 177.712ZM529.36 153.835C529.811 153.573 529.964 152.996 529.703 152.545C529.441 152.094 528.864 151.941 528.413 152.202C527.962 152.464 527.809 153.041 528.07 153.492C528.332 153.943 528.909 154.096 529.36 153.835ZM602.973 98.6192C603.474 98.4757 603.996 98.7656 604.14 99.2666C604.283 99.7676 603.993 100.29 603.492 100.434C602.991 100.577 602.469 100.287 602.325 99.7862C602.182 99.2851 602.472 98.7627 602.973 98.6192ZM407.225 152.932C406.79 153.219 406.67 153.804 406.957 154.239C407.243 154.674 407.829 154.794 408.264 154.508C408.699 154.221 408.819 153.636 408.532 153.2C408.246 152.765 407.66 152.645 407.225 152.932ZM437.013 170.754C437.275 171.205 437.121 171.782 436.67 172.044C436.22 172.305 435.642 172.152 435.381 171.701C435.119 171.25 435.273 170.673 435.723 170.411C436.174 170.15 436.752 170.303 437.013 170.754ZM573.21 191.337C573.066 190.836 572.544 190.546 572.043 190.689C571.542 190.833 571.252 191.355 571.396 191.856C571.539 192.358 572.061 192.647 572.562 192.504C573.064 192.36 573.353 191.838 573.21 191.337ZM346.055 209.714C345.768 209.279 345.889 208.693 346.324 208.407C346.759 208.12 347.344 208.24 347.631 208.675C347.918 209.11 347.798 209.696 347.363 209.982C346.927 210.269 346.342 210.149 346.055 209.714ZM500.64 120.138C501.091 119.876 501.245 119.299 500.983 118.848C500.722 118.397 500.144 118.244 499.693 118.505C499.243 118.767 499.089 119.344 499.351 119.795C499.612 120.246 500.19 120.399 500.64 120.138ZM563.282 118.237C563.783 118.094 564.306 118.384 564.449 118.885C564.593 119.386 564.303 119.908 563.802 120.052C563.301 120.195 562.778 119.905 562.635 119.404C562.491 118.903 562.781 118.381 563.282 118.237ZM389.585 191.704C389.149 191.991 389.029 192.576 389.316 193.012C389.603 193.447 390.188 193.567 390.623 193.28C391.058 192.993 391.179 192.408 390.892 191.973C390.605 191.538 390.02 191.417 389.585 191.704ZM456.839 133.052C457.101 133.503 456.947 134.08 456.497 134.342C456.046 134.603 455.468 134.45 455.207 133.999C454.945 133.548 455.099 132.971 455.55 132.709C456 132.448 456.578 132.601 456.839 133.052ZM567.441 165.162C567.298 164.661 566.775 164.371 566.274 164.515C565.773 164.658 565.483 165.181 565.627 165.682C565.77 166.183 566.293 166.473 566.794 166.329C567.295 166.186 567.585 165.663 567.441 165.162ZM321.978 232.65C321.691 232.215 321.812 231.63 322.247 231.343C322.682 231.056 323.267 231.176 323.554 231.612C323.841 232.047 323.721 232.632 323.285 232.919C322.85 233.206 322.265 233.085 321.978 232.65ZM520.466 82.4354C520.917 82.1739 521.071 81.5965 520.809 81.1456C520.548 80.6948 519.97 80.5414 519.519 80.8029C519.069 81.0644 518.915 81.6418 519.177 82.0926C519.438 82.5435 520.016 82.6969 520.466 82.4354ZM531.563 89.8038C532.064 89.6603 532.587 89.9501 532.73 90.4512C532.874 90.9522 532.584 91.4747 532.083 91.6181C531.582 91.7616 531.059 91.4718 530.916 90.9707C530.773 90.4697 531.062 89.9472 531.563 89.8038ZM380.52 184.737C380.085 185.024 379.965 185.61 380.252 186.045C380.538 186.48 381.124 186.6 381.559 186.313C381.994 186.026 382.114 185.441 381.827 185.006C381.541 184.571 380.955 184.451 380.52 184.737ZM465.491 140.526C465.752 140.976 465.599 141.554 465.148 141.815C464.697 142.077 464.12 141.923 463.858 141.473C463.597 141.022 463.75 140.444 464.201 140.183C464.652 139.921 465.229 140.075 465.491 140.526ZM576.802 158.597C576.658 158.096 576.136 157.806 575.635 157.949C575.134 158.093 574.844 158.615 574.987 159.116C575.131 159.617 575.653 159.907 576.154 159.764C576.655 159.62 576.945 159.098 576.802 158.597ZM274.479 236.221C274.192 235.786 274.313 235.201 274.748 234.914C275.183 234.627 275.768 234.748 276.055 235.183C276.342 235.618 276.221 236.203 275.786 236.49C275.351 236.777 274.766 236.657 274.479 236.221ZM529.118 89.9093C529.569 89.6478 529.722 89.0703 529.461 88.6195C529.199 88.1687 528.622 88.0152 528.171 88.2767C527.72 88.5382 527.567 89.1157 527.828 89.5665C528.09 90.0173 528.667 90.1708 529.118 89.9093ZM540.923 83.2384C541.424 83.0949 541.946 83.3848 542.09 83.8858C542.233 84.3868 541.943 84.9093 541.442 85.0528C540.941 85.1963 540.419 84.9064 540.275 84.4054C540.132 83.9044 540.422 83.3819 540.923 83.2384ZM390.416 148.633C389.98 148.92 389.86 149.505 390.147 149.94C390.434 150.376 391.019 150.496 391.454 150.209C391.889 149.922 392.01 149.337 391.723 148.902C391.436 148.467 390.851 148.346 390.416 148.633ZM453.55 176.005C453.812 176.456 453.658 177.033 453.208 177.295C452.757 177.556 452.179 177.403 451.918 176.952C451.656 176.501 451.81 175.924 452.261 175.662C452.711 175.401 453.289 175.554 453.55 176.005ZM608.291 178.842C608.147 178.341 607.625 178.051 607.124 178.194C606.623 178.338 606.333 178.86 606.477 179.361C606.62 179.862 607.143 180.152 607.644 180.009C608.145 179.865 608.434 179.343 608.291 178.842ZM329.248 205.415C328.961 204.98 329.081 204.394 329.516 204.108C329.951 203.821 330.537 203.941 330.823 204.376C331.11 204.811 330.99 205.397 330.555 205.683C330.12 205.97 329.534 205.85 329.248 205.415ZM517.176 125.389C517.627 125.127 517.781 124.55 517.519 124.099C517.258 123.648 516.68 123.495 516.229 123.756C515.779 124.018 515.625 124.595 515.887 125.046C516.148 125.497 516.726 125.65 517.176 125.389ZM572.413 103.485C572.914 103.342 573.437 103.632 573.58 104.133C573.723 104.634 573.434 105.156 572.933 105.3C572.432 105.443 571.909 105.153 571.766 104.652C571.622 104.151 571.912 103.629 572.413 103.485ZM599.972 87.4756C599.828 86.9745 599.306 86.6847 598.805 86.8282C598.304 86.9716 598.014 87.4941 598.157 87.9951C598.301 88.4962 598.823 88.786 599.324 88.6426C599.825 88.4991 600.115 87.9766 599.972 87.4756ZM399.417 111.51C399.13 111.074 399.25 110.489 399.685 110.202C400.12 109.916 400.706 110.036 400.992 110.471C401.279 110.906 401.159 111.491 400.724 111.778C400.289 112.065 399.703 111.945 399.417 111.51ZM441.758 215.134C442.209 214.872 442.363 214.295 442.101 213.844C441.84 213.393 441.262 213.24 440.811 213.501C440.361 213.763 440.207 214.34 440.469 214.791C440.73 215.242 441.308 215.395 441.758 215.134ZM442.781 192.633C443.042 193.084 442.889 193.661 442.438 193.923C441.987 194.184 441.41 194.031 441.148 193.58C440.887 193.129 441.04 192.552 441.491 192.29C441.942 192.029 442.519 192.182 442.781 192.633ZM617.425 199.185C617.281 198.684 616.759 198.394 616.258 198.537C615.757 198.681 615.467 199.203 615.61 199.704C615.754 200.205 616.276 200.495 616.777 200.352C617.278 200.208 617.568 199.686 617.425 199.185ZM338.515 166.985C338.228 166.55 338.349 165.965 338.784 165.678C339.219 165.391 339.804 165.511 340.091 165.946C340.378 166.382 340.258 166.967 339.822 167.254C339.387 167.541 338.802 167.42 338.515 166.985ZM505.726 163.227C506.177 162.966 506.33 162.388 506.069 161.938C505.807 161.487 505.23 161.333 504.779 161.595C504.328 161.856 504.175 162.434 504.436 162.885C504.698 163.335 505.275 163.489 505.726 163.227ZM606.31 123.828C606.811 123.685 607.333 123.975 607.477 124.476C607.62 124.977 607.33 125.499 606.829 125.643C606.328 125.786 605.806 125.496 605.662 124.995C605.519 124.494 605.809 123.972 606.31 123.828ZM564.449 142.494C564.306 141.993 563.783 141.703 563.282 141.847C562.781 141.99 562.491 142.513 562.635 143.014C562.778 143.515 563.301 143.804 563.802 143.661C564.303 143.517 564.593 142.995 564.449 142.494ZM415.827 133.013C415.54 132.578 415.66 131.993 416.095 131.706C416.531 131.419 417.116 131.539 417.403 131.975C417.69 132.41 417.569 132.995 417.134 133.282C416.699 133.569 416.114 133.448 415.827 133.013ZM426.602 192.728C427.053 192.467 427.206 191.889 426.945 191.439C426.683 190.988 426.106 190.834 425.655 191.096C425.204 191.357 425.051 191.935 425.312 192.386C425.574 192.836 426.151 192.99 426.602 192.728ZM619.848 235.951C620.349 235.808 620.871 236.098 621.015 236.599C621.158 237.1 620.868 237.622 620.367 237.766C619.866 237.909 619.344 237.619 619.2 237.118C619.057 236.617 619.347 236.095 619.848 235.951ZM355.197 187.181C354.762 187.468 354.642 188.053 354.928 188.488C355.215 188.923 355.8 189.043 356.236 188.757C356.671 188.47 356.791 187.884 356.504 187.449C356.217 187.014 355.632 186.894 355.197 187.181ZM490.914 139.532C491.175 139.983 491.022 140.561 490.571 140.822C490.12 141.084 489.543 140.93 489.281 140.479C489.02 140.029 489.173 139.451 489.624 139.19C490.075 138.928 490.652 139.082 490.914 139.532ZM582.047 133.7C581.903 133.199 581.381 132.909 580.88 133.053C580.379 133.196 580.089 133.719 580.232 134.22C580.376 134.721 580.898 135.011 581.399 134.867C581.9 134.724 582.19 134.201 582.047 133.7ZM581.281 112.552C581.782 112.408 582.305 112.698 582.448 113.199C582.592 113.7 582.302 114.223 581.801 114.366C581.3 114.51 580.777 114.22 580.634 113.719C580.49 113.218 580.78 112.695 581.281 112.552ZM366.884 150.479C366.449 150.766 366.329 151.351 366.616 151.786C366.903 152.221 367.488 152.341 367.923 152.055C368.358 151.768 368.478 151.183 368.192 150.747C367.905 150.312 367.319 150.192 366.884 150.479ZM477.148 175.507C477.41 175.958 477.256 176.535 476.805 176.797C476.354 177.058 475.777 176.905 475.515 176.454C475.254 176.003 475.407 175.426 475.858 175.164C476.309 174.903 476.887 175.056 477.148 175.507ZM613.571 155.837C613.428 155.336 612.905 155.046 612.404 155.189C611.903 155.333 611.613 155.855 611.757 156.356C611.9 156.858 612.423 157.147 612.924 157.004C613.425 156.86 613.715 156.338 613.571 155.837ZM195.908 190.655C195.621 190.22 195.741 189.635 196.176 189.348C196.612 189.061 197.197 189.181 197.484 189.616C197.77 190.052 197.65 190.637 197.215 190.924C196.78 191.21 196.195 191.09 195.908 190.655ZM540.776 124.89C541.227 124.629 541.38 124.052 541.119 123.601C540.857 123.15 540.28 122.996 539.829 123.258C539.378 123.519 539.225 124.097 539.486 124.548C539.748 124.999 540.325 125.152 540.776 124.89ZM577.694 80.4786C578.195 80.3351 578.718 80.6249 578.861 81.126C579.005 81.627 578.715 82.1495 578.214 82.2929C577.713 82.4364 577.19 82.1466 577.047 81.6455C576.903 81.1445 577.193 80.622 577.694 80.4786ZM571.03 87.0127C570.887 86.5116 570.364 86.2218 569.863 86.3653C569.362 86.5088 569.072 87.0312 569.216 87.5323C569.359 88.0333 569.882 88.3231 570.383 88.1797C570.884 88.0362 571.174 87.5137 571.03 87.0127Z" fill="url(#paint3_radial_4389_101437)"/>
<path fill-rule="evenodd" clip-rule="evenodd" d="M513.268 262.51C513.268 261.911 513.754 261.425 514.354 261.425C514.953 261.425 515.439 261.911 515.439 262.51C515.439 263.11 514.953 263.595 514.354 263.595C513.754 263.595 513.268 263.11 513.268 262.51ZM562.228 256.006C561.629 256.006 561.143 256.492 561.143 257.091C561.143 257.691 561.629 258.177 562.228 258.177C562.827 258.177 563.313 257.691 563.313 257.091C563.313 256.492 562.827 256.006 562.228 256.006ZM613.008 239.906C612.409 239.906 611.923 240.392 611.923 240.992C611.923 241.591 612.409 242.077 613.008 242.077C613.608 242.077 614.094 241.591 614.094 240.992C614.094 240.392 613.608 239.906 613.008 239.906ZM294.122 225.471C294.694 225.65 295.012 226.259 294.833 226.831C294.653 227.403 294.044 227.721 293.472 227.542C292.901 227.362 292.582 226.753 292.762 226.181C292.941 225.609 293.55 225.291 294.122 225.471ZM555.847 202.249C555.248 202.249 554.762 202.735 554.762 203.335C554.762 203.934 555.248 204.42 555.847 204.42C556.447 204.42 556.932 203.934 556.932 203.335C556.932 202.735 556.447 202.249 555.847 202.249ZM391.534 171.272C392.132 171.307 392.645 170.849 392.679 170.251C392.714 169.653 392.256 169.14 391.658 169.105C391.06 169.071 390.547 169.529 390.513 170.127C390.478 170.725 390.936 171.238 391.534 171.272ZM387.996 132.368C387.962 132.966 387.449 133.424 386.85 133.389C386.252 133.355 385.795 132.842 385.829 132.244C385.863 131.646 386.376 131.188 386.974 131.223C387.573 131.257 388.03 131.77 387.996 132.368ZM256.953 222.12C257.132 221.548 256.814 220.939 256.242 220.76C255.67 220.58 255.061 220.899 254.882 221.471C254.702 222.042 255.021 222.651 255.592 222.831C256.164 223.01 256.773 222.692 256.953 222.12ZM241.281 238.188C241.853 238.367 242.171 238.976 241.992 239.548C241.813 240.12 241.204 240.438 240.632 240.259C240.06 240.08 239.742 239.471 239.921 238.899C240.1 238.327 240.709 238.009 241.281 238.188ZM483.493 121.432C483.458 122.03 482.946 122.487 482.347 122.453C481.749 122.419 481.291 121.906 481.326 121.308C481.36 120.709 481.873 120.252 482.471 120.286C483.069 120.32 483.527 120.833 483.493 121.432ZM247.612 186.604C247.792 186.032 247.473 185.423 246.901 185.244C246.329 185.064 245.72 185.383 245.541 185.955C245.362 186.526 245.68 187.135 246.252 187.315C246.824 187.494 247.433 187.176 247.612 186.604ZM527.286 251.112C527.286 250.513 527.772 250.027 528.372 250.027C528.971 250.027 529.457 250.513 529.457 251.112C529.457 251.712 528.971 252.197 528.372 252.197C527.772 252.197 527.286 251.712 527.286 251.112ZM421.692 125.141C422.29 125.175 422.803 124.718 422.837 124.12C422.872 123.521 422.414 123.009 421.816 122.974C421.218 122.94 420.705 123.397 420.67 123.996C420.636 124.594 421.094 125.107 421.692 125.141ZM265.779 169.731C266.351 169.911 266.669 170.52 266.49 171.092C266.31 171.664 265.701 171.982 265.129 171.802C264.557 171.623 264.239 171.014 264.419 170.442C264.598 169.87 265.207 169.552 265.779 169.731ZM552.627 228.733C552.027 228.733 551.542 229.219 551.542 229.819C551.542 230.418 552.027 230.904 552.627 230.904C553.226 230.904 553.712 230.418 553.712 229.819C553.712 229.219 553.226 228.733 552.627 228.733ZM397.407 143.993C397.372 144.591 396.86 145.049 396.261 145.014C395.663 144.98 395.205 144.467 395.24 143.869C395.274 143.27 395.787 142.813 396.385 142.847C396.983 142.882 397.441 143.394 397.407 143.993ZM270.525 215.834C270.704 215.262 270.386 214.653 269.814 214.473C269.242 214.294 268.633 214.612 268.454 215.184C268.275 215.756 268.593 216.365 269.165 216.544C269.737 216.724 270.346 216.405 270.525 215.834ZM581.276 173.941C581.276 173.341 581.762 172.856 582.362 172.856C582.961 172.856 583.447 173.341 583.447 173.941C583.447 174.54 582.961 175.026 582.362 175.026C581.762 175.026 581.276 174.54 581.276 173.941ZM370.065 166.82C370.664 166.854 371.177 166.397 371.211 165.798C371.245 165.2 370.788 164.687 370.189 164.653C369.591 164.618 369.078 165.076 369.044 165.674C369.01 166.273 369.467 166.785 370.065 166.82ZM284.562 245.201C285.134 245.38 285.452 245.989 285.272 246.561C285.093 247.133 284.484 247.451 283.912 247.272C283.34 247.092 283.022 246.483 283.201 245.911C283.381 245.34 283.99 245.021 284.562 245.201ZM579.143 228.733C578.543 228.733 578.058 229.219 578.058 229.819C578.058 230.418 578.543 230.904 579.143 230.904C579.742 230.904 580.228 230.418 580.228 229.819C580.228 229.219 579.742 228.733 579.143 228.733ZM370.932 142.479C370.898 143.077 370.385 143.534 369.787 143.5C369.189 143.466 368.731 142.953 368.766 142.355C368.8 141.756 369.313 141.299 369.911 141.333C370.509 141.368 370.967 141.88 370.932 142.479ZM262.591 241.135C262.771 240.564 262.452 239.955 261.88 239.775C261.309 239.596 260.7 239.914 260.52 240.486C260.341 241.058 260.659 241.667 261.231 241.846C261.803 242.026 262.412 241.707 262.591 241.135ZM533.726 219.982C533.726 219.382 534.212 218.896 534.812 218.896C535.411 218.896 535.897 219.382 535.897 219.982C535.897 220.581 535.411 221.067 534.812 221.067C534.212 221.067 533.726 220.581 533.726 219.982ZM520.525 233.429C519.926 233.429 519.44 233.915 519.44 234.515C519.44 235.114 519.926 235.6 520.525 235.6C521.124 235.6 521.61 235.114 521.61 234.515C521.61 233.915 521.124 233.429 520.525 233.429ZM511 248.418C510.401 248.418 509.915 248.903 509.915 249.503C509.915 250.102 510.401 250.588 511 250.588C511.599 250.588 512.085 250.102 512.085 249.503C512.085 248.903 511.599 248.418 511 248.418ZM509.273 200.739C509.297 200.141 509.802 199.675 510.401 199.699C511 199.723 511.466 200.228 511.442 200.827C511.418 201.425 510.913 201.891 510.314 201.867C509.715 201.843 509.249 201.338 509.273 200.739ZM523.701 214.849C523.102 214.825 522.597 215.291 522.573 215.889C522.549 216.488 523.015 216.993 523.614 217.017C524.213 217.041 524.718 216.575 524.742 215.977C524.766 215.378 524.3 214.873 523.701 214.849ZM534.85 196.595C534.874 195.996 535.379 195.53 535.978 195.554C536.577 195.578 537.043 196.083 537.019 196.682C536.995 197.281 536.49 197.747 535.891 197.723C535.292 197.699 534.826 197.194 534.85 196.595ZM512.694 181.101C512.095 181.077 511.59 181.543 511.566 182.142C511.542 182.741 512.008 183.246 512.607 183.27C513.206 183.294 513.711 182.828 513.735 182.229C513.759 181.63 513.293 181.125 512.694 181.101ZM511.695 151.321C511.719 150.722 512.224 150.256 512.823 150.28C513.422 150.305 513.888 150.81 513.864 151.408C513.84 152.007 513.335 152.473 512.736 152.449C512.137 152.425 511.671 151.92 511.695 151.321ZM491.599 172.541C491.001 172.517 490.496 172.983 490.472 173.582C490.448 174.181 490.914 174.686 491.512 174.71C492.111 174.734 492.616 174.268 492.64 173.669C492.664 173.07 492.198 172.565 491.599 172.541ZM414.63 154.832C414.596 155.431 414.083 155.888 413.485 155.854C412.886 155.819 412.429 155.307 412.463 154.708C412.498 154.11 413.01 153.653 413.609 153.687C414.207 153.721 414.664 154.234 414.63 154.832ZM285.242 201.779C285.422 201.207 285.104 200.598 284.532 200.418C283.96 200.239 283.351 200.557 283.171 201.129C282.992 201.701 283.31 202.31 283.882 202.489C284.454 202.669 285.063 202.351 285.242 201.779ZM513.389 223.376C513.719 223.876 513.581 224.55 513.08 224.879C512.58 225.209 511.907 225.071 511.577 224.571C511.247 224.07 511.385 223.397 511.886 223.067C512.386 222.737 513.059 222.876 513.389 223.376ZM435.522 151.121C435.004 151.422 434.827 152.086 435.128 152.604C435.429 153.123 436.093 153.299 436.611 152.999C437.13 152.698 437.306 152.034 437.006 151.515C436.705 150.997 436.041 150.82 435.522 151.121ZM431.193 165.579C430.892 165.061 431.069 164.397 431.587 164.096C432.106 163.795 432.77 163.972 433.071 164.49C433.371 165.008 433.195 165.673 432.676 165.973C432.158 166.274 431.494 166.097 431.193 165.579ZM286.035 179.253C286.2 179.829 286.801 180.163 287.377 179.998C287.953 179.833 288.287 179.232 288.122 178.655C287.957 178.079 287.356 177.746 286.779 177.911C286.203 178.076 285.87 178.677 286.035 179.253ZM565.893 175.549C566.223 176.05 566.084 176.723 565.584 177.053C565.084 177.382 564.41 177.244 564.081 176.744C563.751 176.243 563.889 175.57 564.389 175.24C564.89 174.911 565.563 175.049 565.893 175.549ZM380.372 195.872C379.854 196.173 379.677 196.837 379.978 197.355C380.279 197.874 380.943 198.05 381.461 197.75C381.98 197.449 382.156 196.785 381.856 196.266C381.555 195.748 380.891 195.571 380.372 195.872ZM317.303 244.406C316.727 244.571 316.126 244.238 315.961 243.662C315.796 243.086 316.13 242.485 316.706 242.32C317.282 242.155 317.883 242.488 318.048 243.064C318.213 243.64 317.879 244.241 317.303 244.406ZM486.701 197.289C487.202 196.959 487.34 196.286 487.01 195.785C486.68 195.285 486.007 195.147 485.507 195.477C485.006 195.806 484.868 196.479 485.198 196.98C485.528 197.48 486.201 197.619 486.701 197.289ZM459.889 181.657C459.588 181.138 459.764 180.474 460.283 180.173C460.801 179.873 461.465 180.049 461.766 180.568C462.067 181.086 461.89 181.75 461.372 182.051C460.853 182.352 460.189 182.175 459.889 181.657ZM342.628 164.285C342.793 164.861 343.393 165.194 343.97 165.029C344.546 164.864 344.879 164.263 344.714 163.687C344.549 163.111 343.948 162.777 343.372 162.942C342.796 163.107 342.463 163.708 342.628 164.285ZM539.516 147.959C539.845 148.459 539.707 149.132 539.207 149.462C538.706 149.792 538.033 149.654 537.703 149.153C537.374 148.653 537.512 147.98 538.012 147.65C538.513 147.32 539.186 147.458 539.516 147.959ZM405.131 224.923C404.613 225.224 404.436 225.888 404.737 226.407C405.038 226.925 405.702 227.102 406.22 226.801C406.739 226.5 406.915 225.836 406.614 225.318C406.314 224.799 405.65 224.623 405.131 224.923ZM351.522 227.493C350.946 227.658 350.345 227.325 350.18 226.749C350.015 226.173 350.348 225.572 350.925 225.407C351.501 225.242 352.102 225.575 352.267 226.151C352.432 226.727 352.098 227.328 351.522 227.493ZM501.91 163.861C502.41 163.531 502.548 162.858 502.218 162.358C501.889 161.857 501.216 161.719 500.715 162.049C500.215 162.379 500.076 163.052 500.406 163.552C500.736 164.053 501.409 164.191 501.91 163.861ZM442.797 214.161C442.496 213.642 442.672 212.978 443.191 212.678C443.709 212.377 444.373 212.553 444.674 213.072C444.975 213.59 444.798 214.254 444.28 214.555C443.761 214.856 443.097 214.679 442.797 214.161ZM347.6 186.851C347.765 187.428 348.366 187.761 348.942 187.596C349.519 187.431 349.852 186.83 349.687 186.254C349.522 185.678 348.921 185.344 348.345 185.509C347.769 185.674 347.435 186.275 347.6 186.851ZM560.273 128.184C560.603 128.685 560.465 129.358 559.965 129.687C559.464 130.017 558.791 129.879 558.461 129.379C558.131 128.878 558.27 128.205 558.77 127.875C559.271 127.545 559.944 127.684 560.273 128.184ZM388.04 257.428C387.521 257.728 387.345 258.393 387.646 258.911C387.946 259.429 388.61 259.606 389.129 259.305C389.647 259.004 389.824 258.34 389.523 257.822C389.222 257.304 388.558 257.127 388.04 257.428ZM378.869 252.006C378.293 252.171 377.692 251.838 377.527 251.262C377.362 250.686 377.695 250.085 378.271 249.92C378.847 249.755 379.448 250.088 379.613 250.664C379.778 251.241 379.445 251.841 378.869 252.006ZM509.726 169.868C510.226 169.538 510.364 168.865 510.035 168.365C509.705 167.864 509.032 167.726 508.531 168.056C508.031 168.386 507.893 169.059 508.222 169.559C508.552 170.06 509.225 170.198 509.726 169.868ZM435.337 207.718C435.036 207.199 435.213 206.535 435.731 206.234C436.25 205.934 436.914 206.11 437.214 206.628C437.515 207.147 437.339 207.811 436.82 208.112C436.302 208.412 435.638 208.236 435.337 207.718ZM339.53 192.511C339.695 193.087 340.296 193.421 340.872 193.256C341.449 193.091 341.782 192.49 341.617 191.913C341.452 191.337 340.851 191.004 340.275 191.169C339.699 191.334 339.365 191.935 339.53 192.511ZM601.225 125.106C601.555 125.606 601.416 126.279 600.916 126.609C600.416 126.939 599.742 126.801 599.413 126.3C599.083 125.8 599.221 125.127 599.721 124.797C600.222 124.467 600.895 124.605 601.225 125.106ZM380.579 250.984C380.061 251.285 379.884 251.949 380.185 252.468C380.486 252.986 381.15 253.163 381.668 252.862C382.187 252.561 382.363 251.897 382.063 251.379C381.762 250.86 381.098 250.684 380.579 250.984ZM370.799 257.666C370.223 257.831 369.622 257.498 369.457 256.921C369.292 256.345 369.625 255.744 370.201 255.579C370.777 255.414 371.378 255.748 371.543 256.324C371.708 256.9 371.375 257.501 370.799 257.666ZM501.193 200.995C501.694 200.665 501.832 199.992 501.502 199.491C501.172 198.991 500.499 198.853 499.999 199.183C499.498 199.512 499.36 200.185 499.69 200.686C500.02 201.186 500.693 201.325 501.193 200.995ZM445.632 177.129C445.331 176.611 445.507 175.947 446.026 175.646C446.544 175.345 447.208 175.522 447.509 176.04C447.81 176.558 447.633 177.223 447.115 177.523C446.596 177.824 445.932 177.648 445.632 177.129ZM312.382 175.057C312.547 175.634 313.148 175.967 313.724 175.802C314.3 175.637 314.634 175.036 314.469 174.46C314.304 173.884 313.703 173.55 313.127 173.715C312.551 173.88 312.217 174.481 312.382 175.057ZM554.007 151.665C554.337 152.165 554.198 152.838 553.698 153.168C553.197 153.498 552.524 153.359 552.195 152.859C551.865 152.359 552.003 151.686 552.503 151.356C553.004 151.026 553.677 151.164 554.007 151.665ZM390.876 220.397C390.357 220.698 390.181 221.362 390.482 221.88C390.782 222.398 391.446 222.575 391.965 222.274C392.483 221.974 392.66 221.309 392.359 220.791C392.058 220.273 391.394 220.096 390.876 220.397ZM343.652 240.212C343.076 240.377 342.475 240.043 342.31 239.467C342.145 238.891 342.478 238.29 343.054 238.125C343.63 237.96 344.231 238.293 344.396 238.869C344.561 239.446 344.228 240.047 343.652 240.212ZM319.556 253.827C319.721 254.403 320.322 254.736 320.898 254.571C321.475 254.406 321.808 253.805 321.643 253.229C321.478 252.653 320.877 252.32 320.301 252.485C319.725 252.65 319.391 253.251 319.556 253.827ZM493.511 232.623C493.841 233.124 493.703 233.797 493.202 234.127C492.702 234.457 492.029 234.318 491.699 233.818C491.369 233.317 491.507 232.644 492.008 232.314C492.508 231.985 493.181 232.123 493.511 232.623ZM455.896 143.024C455.377 143.325 455.201 143.989 455.502 144.507C455.802 145.026 456.466 145.202 456.985 144.902C457.503 144.601 457.68 143.937 457.379 143.418C457.078 142.9 456.414 142.723 455.896 143.024ZM454.916 162.794C454.615 162.276 454.792 161.612 455.31 161.311C455.829 161.01 456.493 161.187 456.793 161.705C457.094 162.223 456.918 162.887 456.399 163.188C455.881 163.489 455.217 163.312 454.916 162.794ZM304.507 157.519C304.672 158.095 305.273 158.429 305.849 158.264C306.426 158.099 306.759 157.498 306.594 156.922C306.429 156.345 305.828 156.012 305.252 156.177C304.676 156.342 304.342 156.943 304.507 157.519ZM546.016 184.796C546.345 185.297 546.207 185.97 545.707 186.3C545.206 186.63 544.533 186.491 544.203 185.991C543.874 185.491 544.012 184.818 544.512 184.488C545.013 184.158 545.686 184.296 546.016 184.796ZM400.746 187.774C400.227 188.075 400.051 188.739 400.352 189.257C400.652 189.776 401.316 189.952 401.835 189.652C402.353 189.351 402.53 188.687 402.229 188.168C401.928 187.65 401.264 187.474 400.746 187.774ZM314.427 222.672C313.851 222.837 313.25 222.504 313.085 221.928C312.92 221.352 313.253 220.751 313.83 220.586C314.406 220.421 315.007 220.754 315.172 221.33C315.337 221.907 315.003 222.507 314.427 222.672ZM350.18 206.394C350.345 206.97 350.946 207.304 351.522 207.139C352.098 206.974 352.432 206.373 352.267 205.797C352.102 205.22 351.501 204.887 350.925 205.052C350.348 205.217 350.015 205.818 350.18 206.394ZM479.363 214.084C479.693 214.585 479.555 215.258 479.054 215.588C478.554 215.918 477.881 215.779 477.551 215.279C477.221 214.778 477.359 214.105 477.86 213.776C478.36 213.446 479.033 213.584 479.363 214.084ZM468.962 162.341C468.444 162.642 468.267 163.306 468.568 163.824C468.869 164.343 469.533 164.519 470.051 164.218C470.57 163.918 470.746 163.254 470.446 162.735C470.145 162.217 469.481 162.04 468.962 162.341ZM302.755 126.007C302.179 126.172 301.578 125.839 301.413 125.263C301.248 124.687 301.581 124.086 302.157 123.921C302.734 123.756 303.335 124.089 303.5 124.665C303.665 125.242 303.331 125.842 302.755 126.007ZM531.557 167.761C532.058 167.431 532.196 166.758 531.866 166.258C531.536 165.757 530.863 165.619 530.363 165.949C529.862 166.279 529.724 166.952 530.054 167.452C530.384 167.953 531.057 168.091 531.557 167.761ZM413.419 208.574C413.118 208.056 413.295 207.392 413.813 207.091C414.332 206.79 414.996 206.967 415.296 207.485C415.597 208.004 415.421 208.668 414.902 208.969C414.384 209.269 413.72 209.093 413.419 208.574ZM335.008 213.975C335.173 214.551 335.774 214.884 336.35 214.719C336.926 214.554 337.259 213.953 337.094 213.377C336.929 212.801 336.329 212.468 335.752 212.633C335.176 212.798 334.843 213.398 335.008 213.975ZM336.004 232.395C335.428 232.56 334.827 232.226 334.662 231.65C334.497 231.074 334.83 230.473 335.406 230.308C335.983 230.143 336.583 230.476 336.749 231.052C336.914 231.629 336.58 232.23 336.004 232.395ZM521.481 199.403C521.982 199.074 522.12 198.4 521.79 197.9C521.46 197.4 520.787 197.261 520.287 197.591C519.786 197.921 519.648 198.594 519.978 199.095C520.308 199.595 520.981 199.733 521.481 199.403ZM425.287 177.559C424.986 177.04 425.163 176.376 425.681 176.075C426.2 175.775 426.864 175.951 427.164 176.47C427.465 176.988 427.289 177.652 426.77 177.953C426.252 178.254 425.588 178.077 425.287 177.559ZM307.831 194.891C307.996 195.467 308.597 195.801 309.173 195.636C309.749 195.471 310.083 194.87 309.918 194.293C309.753 193.717 309.152 193.384 308.576 193.549C308 193.714 307.666 194.315 307.831 194.891ZM668.963 164.389C669.293 164.89 669.155 165.563 668.654 165.893C668.154 166.223 667.481 166.084 667.151 165.584C666.821 165.083 666.96 164.41 667.46 164.081C667.96 163.751 668.633 163.889 668.963 164.389ZM370.53 220.826C370.011 221.127 369.835 221.791 370.135 222.31C370.436 222.828 371.1 223.005 371.619 222.704C372.137 222.403 372.313 221.739 372.013 221.221C371.712 220.702 371.048 220.526 370.53 220.826ZM339.099 260.046C338.523 260.211 337.922 259.878 337.757 259.301C337.592 258.725 337.925 258.124 338.501 257.959C339.077 257.794 339.678 258.128 339.843 258.704C340.008 259.28 339.675 259.881 339.099 260.046ZM344.506 254.227C344.671 254.803 345.272 255.136 345.848 254.971C346.424 254.806 346.757 254.205 346.592 253.629C346.427 253.053 345.826 252.72 345.25 252.885C344.674 253.05 344.341 253.651 344.506 254.227Z" fill="url(#paint4_radial_4389_101437)"/>
<path fill-rule="evenodd" clip-rule="evenodd" d="M512.779 246.131C512.779 245.696 513.132 245.344 513.567 245.344C514.002 245.344 514.354 245.696 514.354 246.131C514.354 246.566 514.002 246.919 513.567 246.919C513.132 246.919 512.779 246.566 512.779 246.131ZM570.475 238.902C570.04 238.902 569.687 239.255 569.687 239.69C569.687 240.125 570.04 240.477 570.475 240.477C570.91 240.477 571.263 240.125 571.263 239.69C571.263 239.255 570.91 238.902 570.475 238.902ZM630.837 219.764C630.402 219.764 630.05 220.117 630.05 220.552C630.05 220.987 630.402 221.34 630.837 221.34C631.272 221.34 631.625 220.987 631.625 220.552C631.625 220.117 631.272 219.764 630.837 219.764ZM250.496 202.408C250.911 202.539 251.142 202.981 251.012 203.396C250.882 203.811 250.44 204.042 250.024 203.911C249.609 203.781 249.378 203.339 249.509 202.924C249.639 202.509 250.081 202.278 250.496 202.408ZM562.89 175.002C562.455 175.002 562.103 175.355 562.103 175.79C562.103 176.225 562.455 176.577 562.89 176.577C563.325 176.577 563.678 176.225 563.678 175.79C563.678 175.355 563.325 175.002 562.89 175.002ZM366.625 136.143C367.059 136.168 367.432 135.836 367.456 135.402C367.481 134.967 367.149 134.595 366.715 134.57C366.281 134.546 365.909 134.877 365.884 135.312C365.859 135.746 366.191 136.118 366.625 136.143ZM361.889 90.3704C361.864 90.8047 361.492 91.1366 361.058 91.1118C360.623 91.0869 360.292 90.7147 360.316 90.2805C360.341 89.8462 360.713 89.5143 361.148 89.5391C361.582 89.564 361.914 89.9361 361.889 90.3704ZM205.984 197.796C206.114 197.381 205.883 196.939 205.468 196.809C205.053 196.678 204.611 196.909 204.481 197.324C204.351 197.74 204.582 198.182 204.997 198.312C205.412 198.442 205.854 198.211 205.984 197.796ZM187.684 217.526C188.099 217.656 188.33 218.098 188.2 218.513C188.07 218.928 187.628 219.159 187.213 219.029C186.798 218.898 186.567 218.456 186.697 218.041C186.827 217.626 187.269 217.395 187.684 217.526ZM475.406 77.3704C475.381 77.8047 475.009 78.1366 474.574 78.1118C474.14 78.0869 473.808 77.7147 473.833 77.2805C473.858 76.8462 474.23 76.5143 474.664 76.5391C475.099 76.5639 475.43 76.9361 475.406 77.3704ZM194.881 155.578C195.011 155.163 194.78 154.721 194.365 154.591C193.95 154.461 193.508 154.692 193.378 155.107C193.248 155.522 193.479 155.964 193.894 156.094C194.309 156.224 194.751 155.993 194.881 155.578ZM529.443 232.582C529.443 232.147 529.795 231.795 530.23 231.795C530.665 231.795 531.018 232.147 531.018 232.582C531.018 233.017 530.665 233.37 530.23 233.37C529.795 233.37 529.443 233.017 529.443 232.582ZM402.474 81.3071C402.908 81.3319 403.28 81 403.305 80.5657C403.33 80.1315 402.998 79.7593 402.564 79.7344C402.129 79.7096 401.757 80.0415 401.732 80.4758C401.708 80.91 402.039 81.2822 402.474 81.3071ZM216.805 136.152C217.22 136.282 217.451 136.724 217.321 137.139C217.19 137.554 216.748 137.785 216.333 137.655C215.918 137.525 215.687 137.083 215.817 136.668C215.948 136.253 216.39 136.022 216.805 136.152ZM559.062 206.483C558.627 206.483 558.274 206.836 558.274 207.271C558.274 207.706 558.627 208.059 559.062 208.059C559.497 208.059 559.85 207.706 559.85 207.271C559.85 206.836 559.497 206.483 559.062 206.483ZM373.076 104.189C373.051 104.623 372.679 104.955 372.244 104.93C371.81 104.905 371.478 104.533 371.503 104.099C371.528 103.665 371.9 103.333 372.334 103.357C372.768 103.382 373.1 103.755 373.076 104.189ZM222.117 190.323C222.248 189.908 222.017 189.466 221.602 189.336C221.186 189.206 220.745 189.437 220.614 189.852C220.484 190.267 220.715 190.709 221.13 190.839C221.545 190.969 221.987 190.738 222.117 190.323ZM593.62 140.849C593.62 140.414 593.973 140.062 594.408 140.062C594.843 140.062 595.195 140.414 595.195 140.849C595.195 141.284 594.843 141.637 594.408 141.637C593.973 141.637 593.62 141.284 593.62 140.849ZM341.106 130.85C341.54 130.875 341.912 130.543 341.937 130.109C341.962 129.674 341.63 129.302 341.196 129.277C340.761 129.253 340.389 129.584 340.364 130.019C340.339 130.453 340.671 130.825 341.106 130.85ZM239.132 225.862C239.547 225.992 239.778 226.434 239.647 226.849C239.517 227.264 239.075 227.495 238.66 227.365C238.245 227.234 238.014 226.792 238.144 226.377C238.275 225.962 238.716 225.731 239.132 225.862ZM590.582 206.483C590.147 206.483 589.794 206.836 589.794 207.271C589.794 207.706 590.147 208.059 590.582 208.059C591.017 208.059 591.369 207.706 591.369 207.271C591.369 206.836 591.017 206.483 590.582 206.483ZM341.606 102.389C341.581 102.823 341.209 103.155 340.774 103.13C340.34 103.105 340.008 102.733 340.033 102.299C340.058 101.865 340.43 101.533 340.864 101.558C341.299 101.583 341.631 101.955 341.606 102.389ZM212.686 220.4C212.817 219.985 212.586 219.543 212.171 219.412C211.755 219.282 211.314 219.513 211.183 219.928C211.053 220.343 211.284 220.785 211.699 220.915C212.114 221.046 212.556 220.815 212.686 220.4ZM537.098 195.578C537.098 195.143 537.45 194.79 537.885 194.79C538.32 194.79 538.673 195.143 538.673 195.578C538.673 196.013 538.32 196.365 537.885 196.365C537.45 196.365 537.098 196.013 537.098 195.578ZM520.903 212.065C520.468 212.065 520.115 212.418 520.115 212.853C520.115 213.288 520.468 213.641 520.903 213.641C521.338 213.641 521.69 213.288 521.69 212.853C521.69 212.418 521.338 212.065 520.903 212.065ZM509.581 229.882C509.146 229.882 508.793 230.234 508.793 230.669C508.793 231.104 509.146 231.457 509.581 231.457C510.016 231.457 510.368 231.104 510.368 230.669C510.368 230.234 510.016 229.882 509.581 229.882ZM508.009 172.745C508.027 172.31 508.393 171.972 508.828 171.989C509.263 172.007 509.601 172.373 509.583 172.808C509.566 173.242 509.199 173.581 508.765 173.563C508.33 173.546 507.992 173.179 508.009 172.745ZM524.637 189.998C524.203 189.981 523.836 190.319 523.819 190.753C523.801 191.188 524.14 191.554 524.574 191.572C525.009 191.589 525.375 191.251 525.393 190.817C525.41 190.382 525.072 190.015 524.637 189.998ZM538.413 167.818C538.43 167.383 538.797 167.045 539.231 167.062C539.666 167.08 540.004 167.446 539.987 167.881C539.969 168.316 539.603 168.654 539.168 168.636C538.733 168.619 538.395 168.252 538.413 167.818ZM511.554 149.883C511.119 149.865 510.752 150.203 510.735 150.638C510.718 151.073 511.056 151.439 511.49 151.457C511.925 151.474 512.291 151.136 512.309 150.701C512.326 150.267 511.988 149.9 511.554 149.883ZM510.888 114.001C510.906 113.567 511.272 113.228 511.707 113.246C512.141 113.263 512.48 113.63 512.462 114.064C512.445 114.499 512.078 114.837 511.644 114.82C511.209 114.802 510.871 114.436 510.888 114.001ZM486.478 139.707C486.044 139.689 485.677 140.028 485.66 140.462C485.642 140.897 485.981 141.263 486.415 141.281C486.85 141.298 487.216 140.96 487.234 140.526C487.251 140.091 486.913 139.724 486.478 139.707ZM393.549 117.074C393.524 117.508 393.152 117.84 392.718 117.815C392.284 117.79 391.952 117.418 391.977 116.984C392.001 116.549 392.374 116.217 392.808 116.242C393.242 116.267 393.574 116.639 393.549 117.074ZM239.612 173.616C239.742 173.201 239.511 172.759 239.096 172.629C238.681 172.499 238.239 172.73 238.109 173.145C237.979 173.56 238.21 174.002 238.625 174.132C239.04 174.262 239.482 174.031 239.612 173.616ZM510.802 199.244C511.042 199.607 510.941 200.095 510.578 200.335C510.215 200.574 509.727 200.474 509.487 200.111C509.248 199.748 509.348 199.259 509.711 199.02C510.074 198.78 510.563 198.881 510.802 199.244ZM420.297 113.838C419.921 114.057 419.793 114.539 420.011 114.915C420.229 115.291 420.711 115.419 421.088 115.201C421.464 114.983 421.592 114.501 421.374 114.124C421.155 113.748 420.673 113.62 420.297 113.838ZM415.333 130.338C415.115 129.961 415.243 129.479 415.619 129.261C415.995 129.043 416.477 129.171 416.696 129.547C416.914 129.923 416.786 130.405 416.41 130.624C416.033 130.842 415.551 130.714 415.333 130.338ZM242.491 145.902C242.611 146.32 243.047 146.562 243.465 146.442C243.883 146.322 244.125 145.886 244.006 145.468C243.886 145.05 243.45 144.808 243.032 144.928C242.613 145.047 242.371 145.483 242.491 145.902ZM573.214 142.392C573.453 142.755 573.353 143.244 572.989 143.483C572.626 143.723 572.138 143.622 571.898 143.259C571.659 142.896 571.759 142.407 572.122 142.168C572.486 141.929 572.974 142.029 573.214 142.392ZM354.74 167.034C354.364 167.252 354.236 167.734 354.454 168.11C354.672 168.486 355.154 168.614 355.531 168.396C355.907 168.178 356.035 167.696 355.817 167.32C355.598 166.943 355.117 166.815 354.74 167.034ZM279.039 223.005C278.62 223.124 278.184 222.883 278.064 222.464C277.945 222.046 278.187 221.61 278.605 221.49C279.023 221.371 279.459 221.612 279.579 222.031C279.699 222.449 279.457 222.885 279.039 223.005ZM479.222 167.538C479.585 167.299 479.685 166.81 479.446 166.447C479.207 166.084 478.718 165.983 478.355 166.223C477.992 166.462 477.891 166.951 478.131 167.314C478.37 167.677 478.859 167.777 479.222 167.538ZM449.444 149.449C449.225 149.073 449.353 148.591 449.73 148.373C450.106 148.154 450.588 148.282 450.806 148.659C451.024 149.035 450.896 149.517 450.52 149.735C450.144 149.953 449.662 149.825 449.444 149.449ZM309.762 128.109C309.882 128.527 310.318 128.769 310.736 128.649C311.154 128.529 311.396 128.093 311.277 127.675C311.157 127.257 310.721 127.015 310.303 127.135C309.884 127.255 309.642 127.691 309.762 128.109ZM541.859 109.595C542.098 109.959 541.998 110.447 541.635 110.686C541.272 110.926 540.783 110.825 540.544 110.462C540.304 110.099 540.405 109.611 540.768 109.371C541.131 109.132 541.62 109.232 541.859 109.595ZM384.171 201.567C383.795 201.785 383.667 202.267 383.885 202.643C384.103 203.02 384.585 203.148 384.962 202.93C385.338 202.711 385.466 202.229 385.248 201.853C385.029 201.477 384.547 201.349 384.171 201.567ZM319.714 202.9C319.295 203.02 318.859 202.778 318.74 202.36C318.62 201.942 318.862 201.506 319.28 201.386C319.698 201.266 320.134 201.508 320.254 201.926C320.374 202.344 320.132 202.78 319.714 202.9ZM497.3 127.803C497.663 127.563 497.763 127.075 497.524 126.712C497.285 126.349 496.796 126.248 496.433 126.488C496.07 126.727 495.969 127.215 496.209 127.579C496.448 127.942 496.937 128.042 497.3 127.803ZM429.126 188.087C428.908 187.71 429.036 187.228 429.412 187.01C429.788 186.792 430.27 186.92 430.489 187.296C430.707 187.673 430.579 188.154 430.203 188.373C429.826 188.591 429.344 188.463 429.126 188.087ZM315.673 154.934C315.793 155.352 316.229 155.594 316.647 155.474C317.065 155.355 317.307 154.919 317.188 154.5C317.068 154.082 316.632 153.84 316.214 153.96C315.795 154.08 315.553 154.516 315.673 154.934ZM566.534 86.0895C566.773 86.4527 566.673 86.9412 566.31 87.1806C565.946 87.42 565.458 87.3196 565.219 86.9564C564.979 86.5932 565.08 86.1048 565.443 85.8654C565.806 85.626 566.294 85.7263 566.534 86.0895ZM363.854 240.205C363.478 240.423 363.35 240.905 363.568 241.281C363.786 241.657 364.268 241.786 364.645 241.567C365.021 241.349 365.149 240.867 364.931 240.491C364.713 240.115 364.231 239.986 363.854 240.205ZM352.22 232.039C351.802 232.159 351.366 231.917 351.246 231.498C351.127 231.08 351.369 230.644 351.787 230.524C352.205 230.405 352.641 230.647 352.761 231.065C352.881 231.483 352.639 231.919 352.22 232.039ZM506.591 134.943C506.954 134.704 507.054 134.215 506.815 133.852C506.576 133.489 506.087 133.389 505.724 133.628C505.361 133.867 505.26 134.356 505.5 134.719C505.739 135.082 506.228 135.183 506.591 134.943ZM420.259 180.428C420.041 180.051 420.169 179.569 420.545 179.351C420.921 179.133 421.403 179.261 421.621 179.637C421.84 180.013 421.712 180.495 421.335 180.714C420.959 180.932 420.477 180.804 420.259 180.428ZM306.08 161.662C306.2 162.08 306.636 162.322 307.054 162.202C307.473 162.082 307.715 161.646 307.595 161.228C307.475 160.81 307.039 160.568 306.621 160.688C306.203 160.807 305.961 161.243 306.08 161.662ZM615.213 82.4303C615.452 82.7935 615.352 83.282 614.988 83.5214C614.625 83.7608 614.137 83.6604 613.897 83.2972C613.658 82.934 613.758 82.4456 614.121 82.2062C614.485 81.9668 614.973 82.0671 615.213 82.4303ZM354.986 232.545C354.61 232.764 354.482 233.246 354.7 233.622C354.918 233.998 355.4 234.126 355.777 233.908C356.153 233.69 356.281 233.208 356.063 232.831C355.845 232.455 355.363 232.327 354.986 232.545ZM342.628 238.766C342.209 238.886 341.773 238.644 341.654 238.226C341.534 237.808 341.776 237.372 342.194 237.252C342.612 237.132 343.048 237.374 343.168 237.792C343.288 238.21 343.046 238.647 342.628 238.766ZM496.448 171.943C496.812 171.704 496.912 171.215 496.672 170.852C496.433 170.489 495.945 170.389 495.581 170.628C495.218 170.867 495.118 171.356 495.357 171.719C495.597 172.082 496.085 172.183 496.448 171.943ZM432.496 144.067C432.278 143.691 432.406 143.209 432.782 142.991C433.159 142.772 433.64 142.9 433.859 143.277C434.077 143.653 433.949 144.135 433.573 144.353C433.196 144.571 432.714 144.443 432.496 144.067ZM273.809 140.915C273.929 141.333 274.365 141.575 274.783 141.455C275.202 141.335 275.443 140.899 275.324 140.481C275.204 140.063 274.768 139.821 274.35 139.941C273.932 140.06 273.69 140.496 273.809 140.915ZM559.085 114.001C559.324 114.364 559.224 114.852 558.86 115.092C558.497 115.331 558.009 115.231 557.769 114.868C557.53 114.504 557.63 114.016 557.994 113.776C558.357 113.537 558.845 113.637 559.085 114.001ZM367.226 196.186C366.849 196.404 366.721 196.886 366.94 197.262C367.158 197.639 367.64 197.767 368.016 197.548C368.392 197.33 368.52 196.848 368.302 196.472C368.084 196.096 367.602 195.968 367.226 196.186ZM310.358 218.018C309.94 218.138 309.504 217.896 309.384 217.478C309.264 217.06 309.506 216.624 309.924 216.504C310.343 216.384 310.779 216.626 310.899 217.044C311.018 217.462 310.776 217.899 310.358 218.018ZM282.337 234.547C282.457 234.965 282.893 235.207 283.311 235.088C283.729 234.968 283.971 234.532 283.852 234.114C283.732 233.695 283.296 233.454 282.878 233.573C282.459 233.693 282.217 234.129 282.337 234.547ZM487.173 210.236C487.413 210.599 487.313 211.088 486.949 211.327C486.586 211.566 486.098 211.466 485.858 211.103C485.619 210.74 485.719 210.251 486.082 210.012C486.446 209.772 486.934 209.873 487.173 210.236ZM444.515 104.213C444.139 104.432 444.011 104.914 444.229 105.29C444.447 105.666 444.929 105.794 445.305 105.576C445.682 105.358 445.81 104.876 445.591 104.499C445.373 104.123 444.891 103.995 444.515 104.213ZM443.532 127.027C443.314 126.651 443.442 126.169 443.818 125.951C444.195 125.732 444.677 125.86 444.895 126.237C445.113 126.613 444.985 127.095 444.609 127.313C444.232 127.531 443.75 127.403 443.532 127.027ZM264.449 120.067C264.569 120.485 265.005 120.727 265.423 120.607C265.841 120.487 266.083 120.051 265.963 119.633C265.844 119.215 265.407 118.973 264.989 119.093C264.571 119.212 264.329 119.649 264.449 120.067ZM549.586 153.384C549.825 153.748 549.725 154.236 549.361 154.475C548.998 154.715 548.51 154.614 548.27 154.251C548.031 153.888 548.131 153.4 548.495 153.16C548.858 152.921 549.346 153.021 549.586 153.384ZM378.958 157.408C378.582 157.626 378.454 158.108 378.672 158.484C378.89 158.86 379.372 158.988 379.748 158.77C380.125 158.552 380.253 158.07 380.034 157.694C379.816 157.317 379.334 157.189 378.958 157.408ZM275.619 197.17C275.2 197.289 274.764 197.047 274.645 196.629C274.525 196.211 274.767 195.775 275.185 195.655C275.603 195.536 276.039 195.777 276.159 196.196C276.279 196.614 276.037 197.05 275.619 197.17ZM318.74 178.164C318.859 178.583 319.295 178.825 319.714 178.705C320.132 178.585 320.374 178.149 320.254 177.731C320.134 177.313 319.698 177.071 319.28 177.19C318.862 177.31 318.62 177.746 318.74 178.164ZM470.356 188.199C470.595 188.562 470.495 189.051 470.132 189.29C469.769 189.53 469.28 189.429 469.041 189.066C468.801 188.703 468.902 188.214 469.265 187.975C469.628 187.736 470.117 187.836 470.356 188.199ZM460.047 127.175C459.671 127.393 459.543 127.875 459.761 128.252C459.979 128.628 460.461 128.756 460.837 128.538C461.214 128.319 461.342 127.838 461.123 127.461C460.905 127.085 460.423 126.957 460.047 127.175ZM261.744 82.2646C261.326 82.3843 260.89 82.1424 260.77 81.7242C260.651 81.306 260.893 80.87 261.311 80.7502C261.729 80.6305 262.165 80.8724 262.285 81.2906C262.404 81.7087 262.163 82.1448 261.744 82.2646ZM532.542 132.439C532.905 132.199 533.006 131.711 532.766 131.348C532.527 130.984 532.039 130.884 531.675 131.123C531.312 131.363 531.212 131.851 531.451 132.214C531.691 132.578 532.179 132.678 532.542 132.439ZM394.205 181.446C393.987 181.07 394.115 180.588 394.491 180.37C394.867 180.151 395.349 180.279 395.568 180.656C395.786 181.032 395.658 181.514 395.282 181.732C394.905 181.95 394.423 181.822 394.205 181.446ZM300.704 187.175C300.824 187.593 301.26 187.835 301.678 187.716C302.097 187.596 302.339 187.16 302.219 186.742C302.099 186.323 301.663 186.081 301.245 186.201C300.827 186.321 300.585 186.757 300.704 187.175ZM301.267 208.726C300.849 208.846 300.413 208.604 300.293 208.186C300.174 207.768 300.415 207.332 300.834 207.212C301.252 207.092 301.688 207.334 301.808 207.752C301.927 208.17 301.685 208.607 301.267 208.726ZM520.565 170.052C520.928 169.812 521.028 169.324 520.789 168.961C520.549 168.597 520.061 168.497 519.698 168.736C519.334 168.976 519.234 169.464 519.474 169.828C519.713 170.191 520.201 170.291 520.565 170.052ZM408.313 144.578C408.094 144.202 408.222 143.72 408.599 143.501C408.975 143.283 409.457 143.411 409.675 143.787C409.893 144.164 409.765 144.646 409.389 144.864C409.013 145.082 408.531 144.954 408.313 144.578ZM268.399 164.491C268.519 164.909 268.955 165.151 269.373 165.031C269.791 164.911 270.033 164.475 269.914 164.057C269.794 163.639 269.358 163.397 268.94 163.517C268.521 163.636 268.279 164.072 268.399 164.491ZM695.733 129.126C695.973 129.49 695.872 129.978 695.509 130.218C695.146 130.457 694.657 130.357 694.418 129.993C694.179 129.63 694.279 129.142 694.642 128.902C695.005 128.663 695.494 128.763 695.733 129.126ZM343.04 196.697C342.664 196.915 342.536 197.397 342.754 197.773C342.972 198.149 343.454 198.277 343.83 198.059C344.207 197.841 344.335 197.359 344.117 196.983C343.898 196.606 343.416 196.478 343.04 196.697ZM304.946 241.595C304.528 241.715 304.092 241.473 303.972 241.055C303.852 240.637 304.094 240.201 304.512 240.081C304.931 239.961 305.367 240.203 305.486 240.621C305.606 241.04 305.364 241.476 304.946 241.595ZM311.994 235.023C312.114 235.441 312.55 235.683 312.969 235.563C313.387 235.443 313.629 235.007 313.509 234.589C313.389 234.171 312.953 233.929 312.535 234.049C312.117 234.169 311.875 234.605 311.994 235.023Z" fill="url(#paint5_radial_4389_101437)"/>
<g clip-path="url(#clip1_4389_101437)">
<rect x="356.586" y="103.726" width="140.193" height="140.193" rx="29.6393" fill="url(#paint6_linear_4389_101437)"/>
<g filter="url(#filter0_f_4389_101437)">
<circle cx="381.781" cy="133.527" r="63.7419" fill="#00F0FF" fill-opacity="0.2"/>
</g>
<path d="M434.604 131.781L463.403 147.955C466.183 149.516 467.903 152.456 467.903 155.644V186.306L496.361 202.655V167.233V165.696V126.174C496.361 112.73 485.462 101.831 472.018 101.831H434.604V131.781Z" fill="url(#paint7_radial_4389_101437)"/>
<g filter="url(#filter1_f_4389_101437)">
<circle cx="496.86" cy="163.465" r="48.4634" fill="url(#paint8_linear_4389_101437)"/>
</g>
<g filter="url(#filter2_f_4389_101437)">
<circle cx="393.866" cy="211.103" r="32.4228" fill="#3DCB8C" fill-opacity="0.2"/>
</g>
<g filter="url(#filter3_f_4389_101437)">
<path fill-rule="evenodd" clip-rule="evenodd" d="M416.71 142.634C417.738 144.403 417.136 146.671 415.367 147.699L401.395 155.814L426.439 170.362L451.486 155.814L437.515 147.699C435.746 146.671 435.144 144.403 436.172 142.634C437.2 140.865 439.467 140.263 441.237 141.291L460.559 152.515C461.701 153.178 462.403 154.398 462.403 155.718V178.528C462.403 180.574 460.744 182.233 458.698 182.233C456.652 182.233 454.993 180.574 454.993 178.528V162.345L430.144 176.779V205.493L444.934 196.903C446.703 195.875 448.971 196.476 449.998 198.246C451.026 200.015 450.425 202.282 448.655 203.31L428.302 215.133C427.151 215.801 425.731 215.801 424.58 215.133L404.226 203.31C402.457 202.282 401.856 200.015 402.884 198.246C403.911 196.476 406.179 195.875 407.948 196.903L422.735 205.492V176.779L397.888 162.347V178.332C397.888 180.378 396.23 182.037 394.184 182.037C392.137 182.037 390.479 180.378 390.479 178.332V156.03C390.476 155.948 390.476 155.865 390.479 155.783V155.718C390.479 154.398 391.181 153.178 392.323 152.515L411.645 141.291C413.415 140.263 415.682 140.865 416.71 142.634Z" fill="url(#paint9_linear_4389_101437)"/>
</g>
<path d="M401.239 155.547C401.144 155.603 401.086 155.704 401.086 155.814C401.086 155.924 401.144 156.026 401.239 156.081L426.284 170.629C426.38 170.685 426.499 170.685 426.595 170.629L451.641 156.081C451.736 156.025 451.795 155.924 451.795 155.814C451.795 155.704 451.736 155.602 451.641 155.547L437.67 147.432C436.048 146.489 435.497 144.411 436.439 142.789C437.381 141.167 439.46 140.616 441.082 141.558L460.404 152.782C461.451 153.39 462.094 154.508 462.094 155.718V178.528C462.094 180.403 460.574 181.924 458.698 181.924C456.823 181.924 455.302 180.403 455.302 178.528V162.345C455.302 162.235 455.243 162.133 455.147 162.078C455.052 162.023 454.934 162.023 454.838 162.078L429.989 176.512C429.894 176.567 429.836 176.669 429.836 176.779V205.493C429.836 205.604 429.895 205.706 429.99 205.761C430.086 205.816 430.204 205.816 430.299 205.76L445.089 197.17C446.711 196.228 448.789 196.779 449.731 198.401C450.673 200.023 450.122 202.101 448.5 203.043L428.147 214.866C427.092 215.478 425.79 215.478 424.735 214.866L404.381 203.043C402.76 202.101 402.208 200.023 403.151 198.401C404.093 196.779 406.171 196.228 407.793 197.17L422.579 205.759C422.675 205.814 422.793 205.814 422.889 205.759C422.984 205.704 423.043 205.602 423.043 205.492V176.779C423.043 176.669 422.985 176.567 422.89 176.512L398.044 162.08C397.948 162.025 397.83 162.024 397.734 162.08C397.639 162.135 397.58 162.237 397.58 162.347V178.332C397.58 180.207 396.059 181.728 394.184 181.728C392.308 181.728 390.787 180.207 390.787 178.332V156.03H390.788L390.787 156.019C390.785 155.944 390.785 155.869 390.787 155.793L390.787 155.793V155.783V155.718C390.787 154.508 391.431 153.39 392.478 152.782L411.8 141.558C413.422 140.616 415.501 141.167 416.443 142.789C417.385 144.411 416.834 146.489 415.212 147.432L401.239 155.547Z" fill="url(#paint10_linear_4389_101437)" stroke="url(#paint11_linear_4389_101437)" stroke-width="0.617486" stroke-miterlimit="10" stroke-linejoin="round"/>
</g>
<rect x="357.737" y="104.877" width="137.891" height="137.891" rx="28.4881" stroke="url(#paint12_linear_4389_101437)" stroke-opacity="0.2" stroke-width="2.30236"/>
</g>
<defs>
<filter id="filter0_f_4389_101437" x="282.991" y="34.737" width="197.581" height="197.581" filterUnits="userSpaceOnUse" color-interpolation-filters="sRGB">
<feFlood flood-opacity="0" result="BackgroundImageFix"/>
<feBlend mode="normal" in="SourceGraphic" in2="BackgroundImageFix" result="shape"/>
<feGaussianBlur stdDeviation="17.5242" result="effect1_foregroundBlur_4389_101437"/>
</filter>
<filter id="filter1_f_4389_101437" x="412.582" y="79.1878" width="168.556" height="168.555" filterUnits="userSpaceOnUse" color-interpolation-filters="sRGB">
<feFlood flood-opacity="0" result="BackgroundImageFix"/>
<feBlend mode="normal" in="SourceGraphic" in2="BackgroundImageFix" result="shape"/>
<feGaussianBlur stdDeviation="17.9071" result="effect1_foregroundBlur_4389_101437"/>
</filter>
<filter id="filter2_f_4389_101437" x="326.395" y="143.632" width="134.942" height="134.942" filterUnits="userSpaceOnUse" color-interpolation-filters="sRGB">
<feFlood flood-opacity="0" result="BackgroundImageFix"/>
<feBlend mode="normal" in="SourceGraphic" in2="BackgroundImageFix" result="shape"/>
<feGaussianBlur stdDeviation="17.5242" result="effect1_foregroundBlur_4389_101437"/>
</filter>
<filter id="filter3_f_4389_101437" x="385.537" y="135.849" width="81.8056" height="84.7244" filterUnits="userSpaceOnUse" color-interpolation-filters="sRGB">
<feFlood flood-opacity="0" result="BackgroundImageFix"/>
<feBlend mode="normal" in="SourceGraphic" in2="BackgroundImageFix" result="shape"/>
<feGaussianBlur stdDeviation="2.46994" result="effect1_foregroundBlur_4389_101437"/>
</filter>
<radialGradient id="paint0_radial_4389_101437" cx="0" cy="0" r="1" gradientUnits="userSpaceOnUse" gradientTransform="translate(426.989 171.274) rotate(90) scale(171.387 331.25)">
<stop stop-color="#0CFD9A"/>
<stop offset="1" stop-color="#161B19" stop-opacity="0"/>
</radialGradient>
<radialGradient id="paint1_radial_4389_101437" cx="0" cy="0" r="1" gradientUnits="userSpaceOnUse" gradientTransform="translate(427.008 171.274) rotate(90) scale(171.387 331.25)">
<stop stop-color="#0CFD9A"/>
<stop offset="1" stop-color="#161B19" stop-opacity="0"/>
</radialGradient>
<radialGradient id="paint2_radial_4389_101437" cx="0" cy="0" r="1" gradientUnits="userSpaceOnUse" gradientTransform="translate(422.629 101.163) rotate(90) scale(257.108 539.116)">
<stop stop-color="#A3FFE9"/>
<stop offset="1" stop-color="#66FFDB" stop-opacity="0"/>
</radialGradient>
<radialGradient id="paint3_radial_4389_101437" cx="0" cy="0" r="1" gradientUnits="userSpaceOnUse" gradientTransform="translate(443.157 110.214) rotate(90) scale(112.208 235.283)">
<stop stop-color="#A3FFE9"/>
<stop offset="1" stop-color="#66FFDB" stop-opacity="0"/>
</radialGradient>
<radialGradient id="paint4_radial_4389_101437" cx="0" cy="0" r="1" gradientUnits="userSpaceOnUse" gradientTransform="translate(455.198 233.813) rotate(-90) scale(96.7388 202.846)">
<stop stop-color="#A3FFE9"/>
<stop offset="1" stop-color="#66FFDB" stop-opacity="0"/>
</radialGradient>
<radialGradient id="paint5_radial_4389_101437" cx="0" cy="0" r="1" gradientUnits="userSpaceOnUse" gradientTransform="translate(442.746 211.516) rotate(-90) scale(114.993 241.122)">
<stop stop-color="#A3FFE9"/>
<stop offset="1" stop-color="#66FFDB" stop-opacity="0"/>
</radialGradient>
<linearGradient id="paint6_linear_4389_101437" x1="426.683" y1="103.726" x2="426.683" y2="243.919" gradientUnits="userSpaceOnUse">
<stop/>
<stop offset="1" stop-color="#151515"/>
</linearGradient>
<radialGradient id="paint7_radial_4389_101437" cx="0" cy="0" r="1" gradientUnits="userSpaceOnUse" gradientTransform="translate(464.038 152.243) rotate(-51.4426) scale(42.1435 49.8897)">
<stop stop-color="#099289"/>
<stop offset="0.651326" stop-color="#051E21" stop-opacity="0"/>
</radialGradient>
<linearGradient id="paint8_linear_4389_101437" x1="501.394" y1="160.61" x2="525.515" y2="163.463" gradientUnits="userSpaceOnUse">
<stop stop-color="#075B61" stop-opacity="0.65"/>
<stop offset="1" stop-color="#040404" stop-opacity="0"/>
</linearGradient>
<linearGradient id="paint9_linear_4389_101437" x1="426.291" y1="128.681" x2="426.291" y2="215.634" gradientUnits="userSpaceOnUse">
<stop stop-color="#4CC38A"/>
<stop offset="1" stop-color="#65ECF4"/>
</linearGradient>
<linearGradient id="paint10_linear_4389_101437" x1="426.291" y1="128.681" x2="426.291" y2="215.634" gradientUnits="userSpaceOnUse">
<stop stop-color="#65ECF4"/>
<stop offset="0.729167" stop-color="#0DFF8B"/>
</linearGradient>
<linearGradient id="paint11_linear_4389_101437" x1="455.2" y1="151.85" x2="424.746" y2="214.766" gradientUnits="userSpaceOnUse">
<stop stop-color="#BEFFE0"/>
<stop offset="1" stop-color="#4CC38A" stop-opacity="0"/>
</linearGradient>
<linearGradient id="paint12_linear_4389_101437" x1="426.683" y1="103.726" x2="426.683" y2="243.919" gradientUnits="userSpaceOnUse">
<stop stop-color="#59FCB3"/>
<stop offset="1"/>
</linearGradient>
<clipPath id="clip0_4389_101437">
<rect width="854" height="360" fill="white"/>
</clipPath>
<clipPath id="clip1_4389_101437">
<rect x="356.586" y="103.726" width="140.193" height="140.193" rx="29.6393" fill="white"/>
</clipPath>
</defs>
</svg>
