<svg xmlns="http://www.w3.org/2000/svg" width="114" height="115" fill="none" viewBox="0 0 114 115"><g clip-path="url(#a)"><rect width="113.52" height="113.52" y=".89" fill="url(#b)" rx="22.19"/><g filter="url(#c)"><circle cx="20.72" cy="25.34" r="51.614" fill="#00f0ff" fill-opacity=".2"/></g><path fill="url(#d)" d="m63.492 23.926 23.32 13.097a7.14 7.14 0 0 1 3.644 6.225v24.829L113.5 81.315v-61.93c0-10.886-8.825-19.71-19.71-19.71H63.491z"/><g filter="url(#e)"><circle cx="113.903" cy="49.582" r="39.243" fill="url(#f)"/></g><g filter="url(#g)"><circle cx="30.506" cy="88.155" r="26.254" fill="#3dcb8c" fill-opacity=".2"/></g><g filter="url(#h)"><path fill="url(#i)" fill-rule="evenodd" d="M49.002 32.714a3 3 0 0 1-1.088 4.1L36.6 43.387l20.28 11.78 20.281-11.78-11.313-6.571a3 3 0 1 1 3.014-5.189l15.646 9.089a3 3 0 0 1 1.493 2.594v18.469a3 3 0 1 1-6 0V48.675l-20.12 11.687v23.251l11.975-6.956a3 3 0 1 1 3.013 5.188l-16.48 9.573a3 3 0 0 1-3.014 0l-16.481-9.573a3 3 0 1 1 3.013-5.188l11.973 6.955v-23.25L33.761 48.676V61.62a3 3 0 0 1-6 0V43.561a3 3 0 0 1 0-.2v-.052a3 3 0 0 1 1.494-2.594L44.9 31.626a3 3 0 0 1 4.1 1.088" clip-rule="evenodd"/></g><path fill="url(#j)" stroke="url(#k)" stroke-linejoin="round" stroke-miterlimit="10" stroke-width=".5" d="M36.475 43.17a.25.25 0 0 0 0 .433l20.28 11.78a.25.25 0 0 0 .25 0l20.282-11.781a.25.25 0 0 0 0-.432l-11.313-6.572a2.75 2.75 0 0 1 2.762-4.755l15.647 9.088a2.75 2.75 0 0 1 1.368 2.378v18.469a2.75 2.75 0 1 1-5.5 0V48.675a.25.25 0 0 0-.375-.216L59.755 60.146a.25.25 0 0 0-.125.216v23.251a.25.25 0 0 0 .376.216l11.975-6.956a2.75 2.75 0 0 1 2.763 4.756l-16.481 9.573a2.75 2.75 0 0 1-2.763 0L39.02 81.63a2.75 2.75 0 0 1 2.763-4.756l11.973 6.955a.25.25 0 0 0 .375-.216v-23.25a.25.25 0 0 0-.124-.216L33.887 48.46a.25.25 0 0 0-.376.216V61.62a2.75 2.75 0 1 1-5.5 0V43.552a3 3 0 0 1 0-.183v-.06c0-.98.522-1.886 1.37-2.378l15.645-9.088a2.75 2.75 0 0 1 2.763 4.755z"/></g><rect width="111.655" height="111.655" x=".932" y="1.822" stroke="url(#l)" stroke-opacity=".2" stroke-width="1.864" rx="21.258"/><defs><linearGradient id="b" x1="56.76" x2="56.76" y1=".89" y2="114.409" gradientUnits="userSpaceOnUse"><stop/><stop offset="1" stop-color="#151515"/></linearGradient><linearGradient id="f" x1="117.574" x2="137.105" y1="47.27" y2="49.58" gradientUnits="userSpaceOnUse"><stop stop-color="#075b61" stop-opacity=".65"/><stop offset="1" stop-color="#040404" stop-opacity="0"/></linearGradient><linearGradient id="i" x1="56.76" x2="56.76" y1="21.416" y2="91.824" gradientUnits="userSpaceOnUse"><stop stop-color="#4cc38a"/><stop offset="1" stop-color="#65ecf4"/></linearGradient><linearGradient id="j" x1="56.76" x2="56.76" y1="21.416" y2="91.824" gradientUnits="userSpaceOnUse"><stop stop-color="#65ecf4"/><stop offset=".729" stop-color="#0dff8b"/></linearGradient><linearGradient id="k" x1="80.169" x2="55.509" y1="40.176" y2="91.121" gradientUnits="userSpaceOnUse"><stop stop-color="#beffe0"/><stop offset="1" stop-color="#4cc38a" stop-opacity="0"/></linearGradient><linearGradient id="l" x1="56.76" x2="56.76" y1=".89" y2="114.409" gradientUnits="userSpaceOnUse"><stop stop-color="#59fcb3"/><stop offset="1"/></linearGradient><filter id="c" width="159.988" height="159.988" x="-59.274" y="-54.654" color-interpolation-filters="sRGB" filterUnits="userSpaceOnUse"><feFlood flood-opacity="0" result="BackgroundImageFix"/><feBlend in="SourceGraphic" in2="BackgroundImageFix" result="shape"/><feGaussianBlur result="effect1_foregroundBlur_4388_101273" stdDeviation="14.19"/></filter><filter id="e" width="136.484" height="136.485" x="45.66" y="-18.661" color-interpolation-filters="sRGB" filterUnits="userSpaceOnUse"><feFlood flood-opacity="0" result="BackgroundImageFix"/><feBlend in="SourceGraphic" in2="BackgroundImageFix" result="shape"/><feGaussianBlur result="effect1_foregroundBlur_4388_101273" stdDeviation="14.5"/></filter><filter id="g" width="109.268" height="109.268" x="-24.128" y="33.522" color-interpolation-filters="sRGB" filterUnits="userSpaceOnUse"><feFlood flood-opacity="0" result="BackgroundImageFix"/><feBlend in="SourceGraphic" in2="BackgroundImageFix" result="shape"/><feGaussianBlur result="effect1_foregroundBlur_4388_101273" stdDeviation="14.19"/></filter><filter id="h" width="66.242" height="68.604" x="23.76" y="27.22" color-interpolation-filters="sRGB" filterUnits="userSpaceOnUse"><feFlood flood-opacity="0" result="BackgroundImageFix"/><feBlend in="SourceGraphic" in2="BackgroundImageFix" result="shape"/><feGaussianBlur result="effect1_foregroundBlur_4388_101273" stdDeviation="2"/></filter><radialGradient id="d" cx="0" cy="0" r="1" gradientTransform="rotate(-51.443 85.694 -70.391)scale(34.1251 40.3975)" gradientUnits="userSpaceOnUse"><stop stop-color="#099289"/><stop offset=".651" stop-color="#051e21" stop-opacity="0"/></radialGradient><clipPath id="a"><rect width="113.52" height="113.52" y=".89" fill="#fff" rx="22.19"/></clipPath></defs></svg>