<svg width="549" height="99" viewBox="0 0 549 99" fill="none" xmlns="http://www.w3.org/2000/svg">
<g clip-path="url(#clip0_868_2066)">
<g clip-path="url(#clip1_868_2066)">
<path fill-rule="evenodd" clip-rule="evenodd" d="M199.2 35.8472C199.2 34.9483 199.815 34.4679 200.587 34.4679C201.894 34.4679 203.866 35.8472 204.979 38.6058C204.58 38.6058 203.98 38.7258 203.577 38.7258C201.198 38.7258 199.2 37.6013 199.2 35.8472ZM55.2662 35.8472C55.2662 34.9483 55.8555 34.4679 56.6607 34.4679C57.9344 34.4679 59.8266 35.8472 60.9246 38.6058C57.25 38.6058 55.2662 37.816 55.2662 35.8472ZM83.0274 21.592C83.0274 6.83461 85.9188 4.56733 86.8155 4.56733C88.4113 4.56733 88.6016 5.55722 88.6016 11.2163C88.6016 17.0319 86.1092 24.6417 83.0274 28.8197V21.592ZM184.084 36.1419C182.371 38.5148 180.984 41.8848 180.984 46.2265C180.984 54.5423 185.753 62.4796 195.02 62.4796C203.98 62.4796 210.257 55.4412 210.257 45.626C210.257 42.7764 210.147 42.3833 209.96 41.2006C212.043 40.298 213.84 38.9187 215.238 37.816C216.428 36.9244 217.317 36.4258 218.027 36.4258C218.92 36.4258 219.312 37.1209 219.312 38.4056V57.8249C219.312 60.9875 220.318 62.4796 222.796 62.4796C225.08 62.4796 226.687 60.8856 227.576 59.0077C230.87 52.1767 235.639 43.0712 237.722 39.6138C238.223 38.8205 238.629 38.2127 238.915 38.2127C239.314 38.2127 239.519 38.5148 239.519 39.7958V55.2556C239.519 59.6045 241.517 62.4796 245.88 62.4796C250.469 62.4796 252.746 58.1088 256.757 51.3797C256.948 50.9758 257.032 50.6882 257.032 50.4007C257.032 49.5091 256.256 49.0032 255.454 49.0032C254.55 49.0032 254.053 49.9022 251.073 53.1593C250.469 53.778 249.884 54.6369 248.779 54.6369C248.383 54.6369 248.079 54.1601 248.079 53.556V36.2256C248.079 31.571 245.986 29.6931 243.299 29.6931C241.114 29.6931 239.314 30.5847 237.425 33.3579C234.04 38.3182 230.555 45.353 228.67 48.8977C228.458 49.3126 228.173 49.9022 227.979 49.9022C227.77 49.9022 227.682 49.5964 227.682 48.8977V36.2256C227.682 32.5718 226.687 29.6931 222.796 29.6931C218.711 29.6931 216.625 32.4699 213.639 34.5443C211.746 35.9454 210.059 36.9244 208.771 37.5176C206.769 32.4699 203.091 29.9115 200.005 29.9879C196.909 30.0934 194.72 31.9859 194.72 35.1557C194.72 38.4056 196.722 40.6692 199.398 41.6773C200.884 42.2705 202.282 42.3833 204.284 42.3833C204.884 42.3833 205.477 42.3833 205.861 42.2706C206.073 43.2568 205.978 44.6616 205.978 45.7461C205.978 50.6046 203.091 55.4412 197.721 55.4412C192.132 55.4412 188.86 50.0951 188.86 43.9628C188.86 39.3045 190.248 35.4505 192.52 32.7865C193.439 31.7894 194.124 31.1852 194.124 30.2718C194.124 29.8096 193.439 29.6931 192.835 29.6931C189.043 29.6931 184.875 31.3818 181.994 32.8593C178.191 34.8427 173.723 38.1217 170.033 41.3862C168.244 37.4157 166.055 33.9511 164.953 31.2689C164.558 30.1808 164.269 28.9179 163.471 28.9179C162.765 28.9179 162.457 29.6094 161.97 30.9742C160.184 36.2257 150.621 51.5835 148.531 53.6616C148.333 53.9455 148.044 54.2584 147.949 54.2584C147.733 54.2584 147.619 54.1602 147.619 53.556V36.2257C147.619 31.571 145.731 29.6931 143.161 29.6931C140.962 29.6931 139.077 30.5847 137.287 33.3579C134.008 38.3183 130.007 45.5459 128.122 49.1015C127.819 49.7129 127.519 49.9022 127.416 49.9022C127.317 49.9022 127.237 49.5091 127.237 48.8977V36.2257C127.237 31.571 125.337 29.6931 122.746 29.6931C120.55 29.6931 118.471 30.5047 116.769 33.3579C112.597 40.3963 105.632 51.1869 104.336 52.9556C104.135 53.2613 103.933 53.4614 103.736 53.556C103.538 53.556 103.425 53.3632 103.425 52.8719V36.2257C103.425 31.571 101.536 29.6931 98.9631 29.6931C95.3727 29.6931 93.3926 32.9758 92.086 35.0429C90.2852 37.9143 87.9062 41.7829 86.0213 45.353C84.722 47.7404 83.6204 49.9022 83.2178 49.9022C83.0275 49.9022 83.0274 49.0033 83.0274 47.3255V34.0639C89.2897 27.1201 93.1767 18.6151 93.1767 9.30937C93.1767 3.95231 90.7977 0.997192 87.123 0.997192C80.2385 0.997192 74.9754 11.6931 74.9754 24.3543V34.6498C71.7839 36.6333 68.7937 37.6013 65.1044 38.3183C63.2195 32.7865 59.23 29.9115 56.0568 29.9879C52.9787 30.0934 50.7791 31.9859 50.7791 35.1557C50.7791 40.3963 55.958 42.5726 60.5257 42.5726H61.8213C62.0153 43.5698 62.0153 44.6616 62.0153 45.7461C62.0153 50.6046 59.1312 55.4412 53.7693 55.4412C48.1988 55.4412 44.9047 50.0951 44.9047 43.9628C44.9047 39.3045 46.2846 35.4505 48.5757 32.7865C49.4798 31.7894 50.1825 30.8977 50.1825 30.2718C50.1825 29.8096 49.4798 29.6931 48.8759 29.6931C45.0951 29.6931 36.7429 34.7627 26.7804 44.6616C25.8983 36.7388 24.8954 29.0089 24.8954 21.4828C24.8954 13.0724 26.568 5.92843 26.967 3.86858C27.1683 2.59119 27.2927 1.7869 27.2927 1.20461C27.2927 0.407602 26.8682 0 25.7958 0C17.7218 0 0 12.7776 0 31.884C0 45.4331 4.9886 51.9729 13.6336 60.387C8.38509 68.8047 4.17608 78.7982 4.17608 87.7109C4.17608 94.1343 5.684 99 10.4493 99C20.4082 99 27.8674 78.4198 27.8674 63.1638C27.8674 58.6146 27.6844 54.0546 27.2927 49.5091C30.9637 45.626 36.6404 40.3963 38.0239 39.9013C37.431 41.983 37.032 44.1666 37.032 46.2265C37.032 54.5423 41.8193 62.4796 51.0682 62.4796C59.7424 62.4796 66.3012 55.4412 66.3012 45.626C66.3012 44.3595 66.1987 43.2568 66.1108 42.074C69.2804 41.4808 72.1974 40.6692 74.9754 39.0134V58.9094C74.9754 61.4715 76.7541 62.4796 78.4487 62.4796C80.7509 62.4796 81.944 60.8856 83.6203 57.2426C85.0294 54.2584 88.7993 47.4347 91.0868 43.3623C92.8912 40.1852 93.8867 38.1217 94.6882 38.1217C94.8749 38.1217 95.0871 38.6058 95.0871 39.7958V56.7295C95.0871 61.2859 97.4771 62.4796 99.545 62.4796C101.536 62.4796 102.839 61.3914 104.135 59.6045C109.317 52.2713 114.8 43.5698 116.974 39.7958C117.377 39.1189 117.871 38.6058 118.273 38.6058C118.661 38.6058 118.863 38.8205 118.863 40.0906V57.8249C118.863 60.9875 119.858 62.4796 122.358 62.4796C124.634 62.4796 126.124 60.8856 127.013 59.0077C130.322 52.1767 135.186 43.1622 137.287 39.6138C137.774 38.8205 138.275 38.1217 138.572 38.1217C138.985 38.1217 139.077 38.6058 139.077 39.9013V56.7295C139.077 61.2859 141.467 62.4796 143.571 62.4796C146.335 62.4796 148.146 60.4889 149.936 58.2216C153.201 53.9454 157.985 46.3538 160.876 41.4808C161.879 43.0712 162.962 44.9563 163.873 47.0307C161.48 49.9022 159.086 53.1593 159.086 56.6203C159.086 60.2887 161.674 62.4796 164.364 62.4796C168.935 62.4796 173.111 58.1088 173.111 52.0821C173.111 49.7129 172.427 47.2309 171.538 44.8617C175.596 40.8912 180.483 37.0299 184.084 36.1419ZM20.1008 57.723C20.906 62.9636 21.6051 68.1242 21.6051 72.1747C21.6051 81.6624 18.4282 92.755 12.9491 92.664C10.8336 92.664 9.05488 90.5605 8.96704 86.9175C8.76574 75.0498 14.4388 64.947 20.1008 57.723ZM165.451 50.9757C166.055 52.6789 166.359 54.0546 166.359 55.4412C166.359 57.0279 165.758 58.6147 164.657 58.6147C163.874 58.6147 163.076 57.723 163.076 56.3328C163.076 54.8443 164.364 52.4679 165.451 50.9757ZM23.6949 3.76304C23.6949 4.36717 22.3005 7.1294 20.5144 12.0861C18.6222 17.2248 16.8178 24.5435 16.8178 33.3579C16.8178 38.6058 18.1244 45.5459 19.2261 52.5698L16.0382 56.8423C10.9544 50.6882 7.77387 43.7699 7.77387 31.884C7.77387 15.0594 18.0256 3.38819 23.2923 3.38819C23.6071 3.38819 23.6949 3.47554 23.6949 3.76304Z" fill="#171717"/>
<path fill-rule="evenodd" clip-rule="evenodd" d="M491.176 35.8472C491.176 34.9483 491.757 34.4679 492.563 34.4679C493.847 34.4679 495.842 35.8472 496.933 38.6058C496.545 38.6058 495.948 38.7258 495.531 38.7258C493.163 38.7258 491.176 37.6013 491.176 35.8472ZM347.213 35.8472C347.213 34.9483 347.82 34.4679 348.607 34.4679C349.903 34.4679 351.813 35.8472 352.886 38.6058C349.204 38.6058 347.213 37.816 347.213 35.8472ZM374.992 21.592C374.992 6.83461 377.865 4.56733 378.773 4.56733C380.361 4.56733 380.563 5.55722 380.563 11.2163C380.563 17.0319 378.066 24.6417 374.992 28.8197V21.592ZM312.084 57.723C312.856 62.9636 313.581 68.1242 313.581 72.1747C313.581 81.6624 310.4 92.755 304.91 92.664C302.824 92.664 301.03 90.5605 300.932 86.9175C300.727 75.0498 306.411 64.947 312.084 57.723ZM457.43 50.9757C458.034 52.6789 458.32 54.0546 458.32 55.4412C458.32 57.0279 457.723 58.6147 456.629 58.6147C455.842 58.6147 455.022 57.723 455.022 56.3328C455.022 54.8443 456.329 52.4679 457.43 50.9757ZM315.649 3.76304C315.649 4.36717 314.269 7.1294 312.464 12.0861C310.587 17.2248 308.782 24.5435 308.782 33.3579C308.782 38.6058 310.111 45.5459 311.198 52.5698L308.003 56.8423C302.934 50.6882 299.731 43.7699 299.731 31.884C299.731 15.0594 310.005 3.38819 315.272 3.38819C315.561 3.38819 315.649 3.47554 315.649 3.76304ZM299.05 53.2612C300.829 55.6377 303.025 57.9123 305.613 60.387C300.331 68.8047 296.155 78.7982 296.155 87.7109C296.155 94.1343 297.66 99 302.44 99C312.384 99 319.843 78.4198 319.843 63.1638C319.843 58.6146 319.649 54.0546 319.25 49.5091C322.939 45.626 328.594 40.3963 330.007 39.9013C329.407 41.983 328.993 44.1666 328.993 46.2265C328.993 54.5423 333.777 62.4796 343.044 62.4796C351.696 62.4796 358.266 55.4412 358.266 45.626C358.266 44.3595 358.174 43.2568 358.064 42.074C361.256 41.4808 364.162 40.6692 366.933 39.0134V58.9094C366.933 61.4715 368.715 62.4796 370.395 62.4796C372.716 62.4796 373.909 60.8856 375.592 57.2426C376.979 54.2584 380.771 47.4347 383.066 43.3623C384.852 40.1852 385.848 38.1217 386.664 38.1217C386.851 38.1217 387.037 38.6058 387.037 39.7958V56.7295C387.037 61.2859 389.42 62.4796 391.513 62.4796C393.512 62.4796 394.793 61.3914 396.114 59.6045C401.275 52.2713 406.757 43.5698 408.942 39.7958C409.341 39.1189 409.846 38.6058 410.231 38.6058C410.619 38.6058 410.838 38.8205 410.838 40.0906V57.8249C410.838 60.9875 411.823 62.4796 414.308 62.4796C416.599 62.4796 418.092 60.8856 418.996 59.0077C422.283 52.1767 427.158 43.1622 429.241 39.6138C429.75 38.8205 430.244 38.1217 430.555 38.1217C430.943 38.1217 431.053 38.6058 431.053 39.9013V56.7295C431.053 61.2859 433.421 62.4796 435.507 62.4796C438.314 62.4796 440.107 60.4889 441.886 58.2216C445.169 53.9454 449.96 46.3538 452.844 41.4808C453.829 43.0712 454.938 44.9563 455.842 47.0307C453.426 49.9022 451.062 53.1593 451.062 56.6203C451.062 60.2887 453.62 62.4796 456.329 62.4796C460.9 62.4796 465.076 58.1088 465.076 52.0821C465.076 49.7129 464.384 47.2309 463.488 44.8617C467.565 40.8912 472.447 37.0299 476.03 36.1419C474.339 38.5148 472.945 41.8848 472.945 46.2265C472.945 54.5423 477.729 62.4796 486.988 62.4796C495.948 62.4796 502.203 55.4412 502.203 45.626C502.203 42.7764 502.112 42.3833 501.925 41.2006C503.993 40.298 505.797 38.9187 507.206 37.816C508.374 36.9244 509.289 36.4258 509.973 36.4258C510.874 36.4258 511.295 37.1209 511.295 38.4056V57.8249C511.295 60.9875 512.276 62.4796 514.764 62.4796C517.045 62.4796 518.648 60.8856 519.548 59.0077C522.813 52.1767 527.6 43.0712 529.683 39.6138C530.18 38.8205 530.587 38.2127 530.887 38.2127C531.293 38.2127 531.487 38.5148 531.487 39.7958V55.2556C531.487 59.6045 533.46 62.4796 537.852 62.4796C542.445 62.4796 544.729 58.1088 548.718 51.3797C548.905 50.9758 549 50.6882 549 50.4007C549 49.5091 548.202 49.0032 547.412 49.0032C546.522 49.0032 546.014 49.9022 543.034 53.1593C542.445 53.778 541.838 54.6369 540.747 54.6369C540.337 54.6369 540.055 54.1601 540.055 53.556V36.2256C540.055 31.571 537.94 29.6931 535.253 29.6931C533.075 29.6931 531.293 30.5847 529.393 33.3579C526.001 38.3182 522.527 45.353 520.65 48.8977C520.434 49.3126 520.145 49.9022 519.932 49.9022C519.72 49.9022 519.643 49.5964 519.643 48.8977V36.2256C519.643 32.5718 518.648 29.6931 514.764 29.6931C510.672 29.6931 508.594 32.4699 505.611 34.5443C503.7 35.9454 502.02 36.9244 500.714 37.5176C498.741 32.4699 495.044 29.9115 491.973 29.9879C488.87 30.0934 486.699 31.9859 486.699 35.1557C486.699 38.4056 488.69 40.6692 491.355 41.6773C492.852 42.2705 494.246 42.3833 496.263 42.3833C496.845 42.3833 497.423 42.3833 497.848 42.2706C498.042 43.2568 497.939 44.6616 497.939 45.7461C497.939 50.6046 495.044 55.4412 489.664 55.4412C484.094 55.4412 480.822 50.0951 480.822 43.9628C480.822 39.3045 482.205 35.4505 484.485 32.7865C485.393 31.7894 486.096 31.1852 486.096 30.2718C486.096 29.8096 485.393 29.6931 484.796 29.6931C481.03 29.6931 476.836 31.3818 473.948 32.8593C470.16 34.8427 465.68 38.1217 462.009 41.3862C460.212 37.4157 458.034 33.9511 456.925 31.2689C456.515 30.1808 456.244 28.9179 455.417 28.9179C454.729 28.9179 454.425 29.6094 453.935 30.9741C452.138 36.2256 442.589 51.5835 440.499 53.6616C440.298 53.9454 440.001 54.2584 439.895 54.2584C439.708 54.2584 439.599 54.1601 439.599 53.556V36.2256C439.599 31.571 437.721 29.6931 435.108 29.6931C432.915 29.6931 431.052 30.5847 429.241 33.3579C425.95 38.3182 421.979 45.5459 420.087 49.1015C419.794 49.7129 419.502 49.9022 419.406 49.9022C419.293 49.9022 419.19 49.5091 419.19 48.8977V36.2256C419.19 31.571 417.313 29.6931 414.722 29.6931C412.526 29.6931 410.421 30.5047 408.745 33.3579C404.55 40.3963 397.593 51.1868 396.29 52.9555C396.114 53.2613 395.902 53.4614 395.689 53.556C395.514 53.556 395.397 53.3631 395.397 52.8718V36.2256C395.397 31.571 393.512 29.6931 390.913 29.6931C387.319 29.6931 385.343 32.9757 384.04 35.0429C382.25 37.9143 379.874 41.7829 377.975 45.353C376.69 47.7404 375.592 49.9022 375.193 49.9022C374.992 49.9022 374.992 49.0032 374.992 47.3255V34.0639C381.273 27.1201 385.141 18.615 385.141 9.30934C385.141 3.95229 382.759 0.997169 379.062 0.997169C372.203 0.997169 366.933 11.6931 366.933 24.3542V34.6498C363.737 36.6332 360.751 37.6013 357.062 38.3182C355.184 32.7865 351.198 29.9115 348.032 29.9879C344.925 30.0934 342.744 31.9859 342.744 35.1557C342.744 40.3963 347.904 42.5726 352.494 42.5726H353.797C353.98 43.5698 353.98 44.6616 353.98 45.7461C353.98 50.6045 351.103 55.4412 345.723 55.4412C340.145 55.4412 336.877 50.095 336.877 43.9628C336.877 39.3045 338.267 35.4505 340.54 32.7865C341.433 31.7893 342.136 30.8977 342.136 30.2717C342.136 29.8095 341.433 29.6931 340.844 29.6931C337.056 29.6931 328.7 34.7626 318.734 44.6616C317.859 36.7388 316.853 29.0089 316.853 21.4828C316.853 13.0724 318.544 5.92843 318.943 3.86858C319.14 2.59119 319.25 1.7869 319.25 1.20461C319.25 0.407602 318.844 0 317.768 0C309.701 0 291.979 12.7776 291.979 31.884C291.979 39.6939 293.67 45.2511 296.657 50.095C295.544 49.9021 294.669 49.9021 293.853 49.9021C290.68 49.9021 287.682 50.6882 285.823 51.0922V49.1015C285.823 44.8617 284.813 39.0133 283.016 37.0299C282.804 36.8261 282.507 36.7388 282.229 36.7388C281.409 36.7388 280.428 37.1209 279.338 37.7214C278.13 38.3182 276.937 38.9187 276.937 39.3045C276.937 39.4937 276.937 39.6939 277.237 40.1852C277.939 41.2006 279.835 43.1622 280.52 47.8277C277.127 44.4577 273.262 42.962 268.204 42.962C262.22 42.962 260.419 45.626 260.419 48.3154C260.419 53.4614 267.289 56.0344 275.963 56.0344C277.551 56.0344 279.338 55.7359 281.12 55.332C281.12 56.9187 281.321 58.3235 281.321 59.5026C281.321 61.1876 281.61 62.4796 282.719 62.4796C284.407 62.4796 285.41 59.0987 285.6 54.2584C288.685 53.4614 291.877 52.7772 294.574 52.7772C295.863 52.7772 297.473 52.9555 299.05 53.2612ZM279.44 52.2713C277.764 52.4678 276.743 52.4678 274.968 52.4678C271.073 52.4678 268.204 50.9757 268.204 48.8176C268.204 47.4347 268.892 46.6304 270.883 46.6304C274.074 46.6304 276.647 48.8176 279.44 52.2713Z" fill="#171717"/>
</g>
</g>
<defs>
<clipPath id="clip0_868_2066">
<rect width="549" height="99" fill="white"/>
</clipPath>
<clipPath id="clip1_868_2066">
<rect width="549" height="99" fill="white"/>
</clipPath>
</defs>
</svg>
