<svg width="550" height="99" viewBox="0 0 550 99" fill="none" xmlns="http://www.w3.org/2000/svg">
<g clip-path="url(#clip0_868_2101)">
<g clip-path="url(#clip1_868_2101)">
<path fill-rule="evenodd" clip-rule="evenodd" d="M199.7 35.8472C199.7 34.9483 200.315 34.4679 201.087 34.4679C202.394 34.4679 204.366 35.8472 205.479 38.6058C205.08 38.6058 204.48 38.7258 204.077 38.7258C201.698 38.7258 199.7 37.6013 199.7 35.8472ZM55.7662 35.8472C55.7662 34.9483 56.3555 34.4679 57.1607 34.4679C58.4344 34.4679 60.3266 35.8472 61.4246 38.6058C57.75 38.6058 55.7662 37.816 55.7662 35.8472ZM83.5274 21.592C83.5274 6.83461 86.4188 4.56733 87.3155 4.56733C88.9113 4.56733 89.1016 5.55722 89.1016 11.2163C89.1016 17.0319 86.6092 24.6417 83.5274 28.8197V21.592ZM184.584 36.1419C182.871 38.5148 181.484 41.8848 181.484 46.2265C181.484 54.5423 186.253 62.4796 195.52 62.4796C204.48 62.4796 210.757 55.4412 210.757 45.626C210.757 42.7764 210.647 42.3833 210.46 41.2006C212.543 40.298 214.34 38.9187 215.738 37.816C216.928 36.9244 217.817 36.4258 218.527 36.4258C219.42 36.4258 219.812 37.1209 219.812 38.4056V57.8249C219.812 60.9875 220.818 62.4796 223.296 62.4796C225.58 62.4796 227.187 60.8856 228.076 59.0077C231.37 52.1767 236.139 43.0712 238.222 39.6138C238.723 38.8205 239.129 38.2127 239.415 38.2127C239.814 38.2127 240.019 38.5148 240.019 39.7958V55.2556C240.019 59.6045 242.017 62.4796 246.38 62.4796C250.969 62.4796 253.246 58.1088 257.257 51.3797C257.448 50.9758 257.532 50.6882 257.532 50.4007C257.532 49.5091 256.756 49.0032 255.954 49.0032C255.05 49.0032 254.553 49.9022 251.573 53.1593C250.969 53.778 250.384 54.6369 249.279 54.6369C248.883 54.6369 248.579 54.1601 248.579 53.556V36.2256C248.579 31.571 246.486 29.6931 243.799 29.6931C241.614 29.6931 239.814 30.5847 237.925 33.3579C234.54 38.3182 231.055 45.353 229.17 48.8977C228.958 49.3126 228.673 49.9022 228.479 49.9022C228.27 49.9022 228.182 49.5964 228.182 48.8977V36.2256C228.182 32.5718 227.187 29.6931 223.296 29.6931C219.211 29.6931 217.125 32.4699 214.139 34.5443C212.246 35.9454 210.559 36.9244 209.271 37.5176C207.269 32.4699 203.591 29.9115 200.505 29.9879C197.409 30.0934 195.22 31.9859 195.22 35.1557C195.22 38.4056 197.222 40.6692 199.898 41.6773C201.384 42.2705 202.782 42.3833 204.784 42.3833C205.384 42.3833 205.977 42.3833 206.361 42.2706C206.573 43.2568 206.478 44.6616 206.478 45.7461C206.478 50.6046 203.591 55.4412 198.221 55.4412C192.632 55.4412 189.36 50.0951 189.36 43.9628C189.36 39.3045 190.748 35.4505 193.02 32.7865C193.939 31.7894 194.624 31.1852 194.624 30.2718C194.624 29.8096 193.939 29.6931 193.335 29.6931C189.543 29.6931 185.375 31.3818 182.494 32.8593C178.691 34.8427 174.223 38.1217 170.533 41.3862C168.744 37.4157 166.555 33.9511 165.453 31.2689C165.058 30.1808 164.769 28.9179 163.971 28.9179C163.265 28.9179 162.957 29.6094 162.47 30.9742C160.684 36.2257 151.121 51.5835 149.031 53.6616C148.833 53.9455 148.544 54.2584 148.449 54.2584C148.233 54.2584 148.119 54.1602 148.119 53.556V36.2257C148.119 31.571 146.231 29.6931 143.661 29.6931C141.462 29.6931 139.577 30.5847 137.787 33.3579C134.508 38.3183 130.507 45.5459 128.622 49.1015C128.319 49.7129 128.019 49.9022 127.916 49.9022C127.817 49.9022 127.737 49.5091 127.737 48.8977V36.2257C127.737 31.571 125.837 29.6931 123.246 29.6931C121.05 29.6931 118.971 30.5047 117.269 33.3579C113.097 40.3963 106.132 51.1869 104.836 52.9556C104.635 53.2613 104.433 53.4614 104.236 53.556C104.038 53.556 103.925 53.3632 103.925 52.8719V36.2257C103.925 31.571 102.036 29.6931 99.4631 29.6931C95.8727 29.6931 93.8926 32.9758 92.586 35.0429C90.7852 37.9143 88.4062 41.7829 86.5213 45.353C85.222 47.7404 84.1204 49.9022 83.7178 49.9022C83.5275 49.9022 83.5274 49.0033 83.5274 47.3255V34.0639C89.7897 27.1201 93.6767 18.6151 93.6767 9.30937C93.6767 3.95231 91.2977 0.997192 87.623 0.997192C80.7385 0.997192 75.4754 11.6931 75.4754 24.3543V34.6498C72.2839 36.6333 69.2937 37.6013 65.6044 38.3183C63.7195 32.7865 59.73 29.9115 56.5568 29.9879C53.4787 30.0934 51.2791 31.9859 51.2791 35.1557C51.2791 40.3963 56.458 42.5726 61.0257 42.5726H62.3213C62.5153 43.5698 62.5153 44.6616 62.5153 45.7461C62.5153 50.6046 59.6312 55.4412 54.2693 55.4412C48.6988 55.4412 45.4047 50.0951 45.4047 43.9628C45.4047 39.3045 46.7846 35.4505 49.0757 32.7865C49.9798 31.7894 50.6825 30.8977 50.6825 30.2718C50.6825 29.8096 49.9798 29.6931 49.3759 29.6931C45.5951 29.6931 37.2429 34.7627 27.2804 44.6616C26.3983 36.7388 25.3954 29.0089 25.3954 21.4828C25.3954 13.0724 27.068 5.92843 27.467 3.86858C27.6683 2.59119 27.7927 1.7869 27.7927 1.20461C27.7927 0.407602 27.3682 0 26.2958 0C18.2218 0 0.5 12.7776 0.5 31.884C0.5 45.4331 5.4886 51.9729 14.1336 60.387C8.88509 68.8047 4.67608 78.7982 4.67608 87.7109C4.67608 94.1343 6.184 99 10.9493 99C20.9082 99 28.3674 78.4198 28.3674 63.1638C28.3674 58.6146 28.1844 54.0546 27.7927 49.5091C31.4637 45.626 37.1404 40.3963 38.5239 39.9013C37.931 41.983 37.532 44.1666 37.532 46.2265C37.532 54.5423 42.3193 62.4796 51.5682 62.4796C60.2424 62.4796 66.8012 55.4412 66.8012 45.626C66.8012 44.3595 66.6987 43.2568 66.6108 42.074C69.7804 41.4808 72.6974 40.6692 75.4754 39.0134V58.9094C75.4754 61.4715 77.2541 62.4796 78.9487 62.4796C81.2509 62.4796 82.444 60.8856 84.1203 57.2426C85.5294 54.2584 89.2993 47.4347 91.5868 43.3623C93.3912 40.1852 94.3867 38.1217 95.1882 38.1217C95.3749 38.1217 95.5871 38.6058 95.5871 39.7958V56.7295C95.5871 61.2859 97.9771 62.4796 100.045 62.4796C102.036 62.4796 103.339 61.3914 104.635 59.6045C109.817 52.2713 115.3 43.5698 117.474 39.7958C117.877 39.1189 118.371 38.6058 118.773 38.6058C119.161 38.6058 119.363 38.8205 119.363 40.0906V57.8249C119.363 60.9875 120.358 62.4796 122.858 62.4796C125.134 62.4796 126.624 60.8856 127.513 59.0077C130.822 52.1767 135.686 43.1622 137.787 39.6138C138.274 38.8205 138.775 38.1217 139.072 38.1217C139.485 38.1217 139.577 38.6058 139.577 39.9013V56.7295C139.577 61.2859 141.967 62.4796 144.071 62.4796C146.835 62.4796 148.646 60.4889 150.436 58.2216C153.701 53.9454 158.485 46.3538 161.376 41.4808C162.379 43.0712 163.462 44.9563 164.373 47.0307C161.98 49.9022 159.586 53.1593 159.586 56.6203C159.586 60.2887 162.174 62.4796 164.864 62.4796C169.435 62.4796 173.611 58.1088 173.611 52.0821C173.611 49.7129 172.927 47.2309 172.038 44.8617C176.096 40.8912 180.983 37.0299 184.584 36.1419ZM20.6008 57.723C21.406 62.9636 22.1051 68.1242 22.1051 72.1747C22.1051 81.6624 18.9282 92.755 13.4491 92.664C11.3336 92.664 9.55488 90.5605 9.46704 86.9175C9.26574 75.0498 14.9388 64.947 20.6008 57.723ZM165.951 50.9757C166.555 52.6789 166.859 54.0546 166.859 55.4412C166.859 57.0279 166.258 58.6147 165.157 58.6147C164.374 58.6147 163.576 57.723 163.576 56.3328C163.576 54.8443 164.864 52.4679 165.951 50.9757ZM24.1949 3.76304C24.1949 4.36717 22.8005 7.1294 21.0144 12.0861C19.1222 17.2248 17.3178 24.5435 17.3178 33.3579C17.3178 38.6058 18.6244 45.5459 19.7261 52.5698L16.5382 56.8423C11.4544 50.6882 8.27387 43.7699 8.27387 31.884C8.27387 15.0594 18.5256 3.38819 23.7923 3.38819C24.1071 3.38819 24.1949 3.47554 24.1949 3.76304Z" fill="#EDEDED"/>
<path fill-rule="evenodd" clip-rule="evenodd" d="M491.676 35.8472C491.676 34.9483 492.257 34.4679 493.063 34.4679C494.347 34.4679 496.342 35.8472 497.433 38.6058C497.045 38.6058 496.448 38.7258 496.031 38.7258C493.663 38.7258 491.676 37.6013 491.676 35.8472ZM347.713 35.8472C347.713 34.9483 348.32 34.4679 349.107 34.4679C350.403 34.4679 352.313 35.8472 353.386 38.6058C349.704 38.6058 347.713 37.816 347.713 35.8472ZM375.492 21.592C375.492 6.83461 378.365 4.56733 379.273 4.56733C380.861 4.56733 381.063 5.55722 381.063 11.2163C381.063 17.0319 378.566 24.6417 375.492 28.8197V21.592ZM312.584 57.723C313.356 62.9636 314.081 68.1242 314.081 72.1747C314.081 81.6624 310.9 92.755 305.41 92.664C303.324 92.664 301.53 90.5605 301.432 86.9175C301.227 75.0498 306.911 64.947 312.584 57.723ZM457.93 50.9757C458.534 52.6789 458.82 54.0546 458.82 55.4412C458.82 57.0279 458.223 58.6147 457.129 58.6147C456.342 58.6147 455.522 57.723 455.522 56.3328C455.522 54.8443 456.829 52.4679 457.93 50.9757ZM316.149 3.76304C316.149 4.36717 314.769 7.1294 312.964 12.0861C311.087 17.2248 309.282 24.5435 309.282 33.3579C309.282 38.6058 310.611 45.5459 311.698 52.5698L308.503 56.8423C303.434 50.6882 300.231 43.7699 300.231 31.884C300.231 15.0594 310.505 3.38819 315.772 3.38819C316.061 3.38819 316.149 3.47554 316.149 3.76304ZM299.55 53.2612C301.329 55.6377 303.525 57.9123 306.113 60.387C300.831 68.8047 296.655 78.7982 296.655 87.7109C296.655 94.1343 298.16 99 302.94 99C312.884 99 320.343 78.4198 320.343 63.1638C320.343 58.6146 320.149 54.0546 319.75 49.5091C323.439 45.626 329.094 40.3963 330.507 39.9013C329.907 41.983 329.493 44.1666 329.493 46.2265C329.493 54.5423 334.277 62.4796 343.544 62.4796C352.196 62.4796 358.766 55.4412 358.766 45.626C358.766 44.3595 358.674 43.2568 358.564 42.074C361.756 41.4808 364.662 40.6692 367.433 39.0134V58.9094C367.433 61.4715 369.215 62.4796 370.895 62.4796C373.216 62.4796 374.409 60.8856 376.092 57.2426C377.479 54.2584 381.271 47.4347 383.566 43.3623C385.352 40.1852 386.348 38.1217 387.164 38.1217C387.351 38.1217 387.537 38.6058 387.537 39.7958V56.7295C387.537 61.2859 389.92 62.4796 392.013 62.4796C394.012 62.4796 395.293 61.3914 396.614 59.6045C401.775 52.2713 407.257 43.5698 409.442 39.7958C409.841 39.1189 410.346 38.6058 410.731 38.6058C411.119 38.6058 411.338 38.8205 411.338 40.0906V57.8249C411.338 60.9875 412.323 62.4796 414.808 62.4796C417.099 62.4796 418.592 60.8856 419.496 59.0077C422.783 52.1767 427.658 43.1622 429.741 39.6138C430.25 38.8205 430.744 38.1217 431.055 38.1217C431.443 38.1217 431.553 38.6058 431.553 39.9013V56.7295C431.553 61.2859 433.921 62.4796 436.007 62.4796C438.814 62.4796 440.607 60.4889 442.386 58.2216C445.669 53.9454 450.46 46.3538 453.344 41.4808C454.329 43.0712 455.438 44.9563 456.342 47.0307C453.926 49.9022 451.562 53.1593 451.562 56.6203C451.562 60.2887 454.12 62.4796 456.829 62.4796C461.4 62.4796 465.576 58.1088 465.576 52.0821C465.576 49.7129 464.884 47.2309 463.988 44.8617C468.065 40.8912 472.947 37.0299 476.53 36.1419C474.839 38.5148 473.445 41.8848 473.445 46.2265C473.445 54.5423 478.229 62.4796 487.488 62.4796C496.448 62.4796 502.703 55.4412 502.703 45.626C502.703 42.7764 502.612 42.3833 502.425 41.2006C504.493 40.298 506.297 38.9187 507.706 37.816C508.874 36.9244 509.789 36.4258 510.473 36.4258C511.374 36.4258 511.795 37.1209 511.795 38.4056V57.8249C511.795 60.9875 512.776 62.4796 515.264 62.4796C517.545 62.4796 519.148 60.8856 520.048 59.0077C523.313 52.1767 528.1 43.0712 530.183 39.6138C530.68 38.8205 531.087 38.2127 531.387 38.2127C531.793 38.2127 531.987 38.5148 531.987 39.7958V55.2556C531.987 59.6045 533.96 62.4796 538.352 62.4796C542.945 62.4796 545.229 58.1088 549.218 51.3797C549.405 50.9758 549.5 50.6882 549.5 50.4007C549.5 49.5091 548.702 49.0032 547.912 49.0032C547.022 49.0032 546.514 49.9022 543.534 53.1593C542.945 53.778 542.338 54.6369 541.247 54.6369C540.837 54.6369 540.555 54.1601 540.555 53.556V36.2256C540.555 31.571 538.44 29.6931 535.753 29.6931C533.575 29.6931 531.793 30.5847 529.893 33.3579C526.501 38.3182 523.027 45.353 521.15 48.8977C520.934 49.3126 520.645 49.9022 520.432 49.9022C520.22 49.9022 520.143 49.5964 520.143 48.8977V36.2256C520.143 32.5718 519.148 29.6931 515.264 29.6931C511.172 29.6931 509.094 32.4699 506.111 34.5443C504.2 35.9454 502.52 36.9244 501.214 37.5176C499.241 32.4699 495.544 29.9115 492.473 29.9879C489.37 30.0934 487.199 31.9859 487.199 35.1557C487.199 38.4056 489.19 40.6692 491.855 41.6773C493.352 42.2705 494.746 42.3833 496.763 42.3833C497.345 42.3833 497.923 42.3833 498.348 42.2706C498.542 43.2568 498.439 44.6616 498.439 45.7461C498.439 50.6046 495.544 55.4412 490.164 55.4412C484.594 55.4412 481.322 50.0951 481.322 43.9628C481.322 39.3045 482.705 35.4505 484.985 32.7865C485.893 31.7894 486.596 31.1852 486.596 30.2718C486.596 29.8096 485.893 29.6931 485.296 29.6931C481.53 29.6931 477.336 31.3818 474.448 32.8593C470.66 34.8427 466.18 38.1217 462.509 41.3862C460.712 37.4157 458.534 33.9511 457.425 31.2689C457.015 30.1808 456.744 28.9179 455.917 28.9179C455.229 28.9179 454.925 29.6094 454.435 30.9741C452.638 36.2256 443.089 51.5835 440.999 53.6616C440.798 53.9454 440.501 54.2584 440.395 54.2584C440.208 54.2584 440.099 54.1601 440.099 53.556V36.2256C440.099 31.571 438.221 29.6931 435.608 29.6931C433.415 29.6931 431.552 30.5847 429.741 33.3579C426.45 38.3182 422.479 45.5459 420.587 49.1015C420.294 49.7129 420.002 49.9022 419.906 49.9022C419.793 49.9022 419.69 49.5091 419.69 48.8977V36.2256C419.69 31.571 417.813 29.6931 415.222 29.6931C413.026 29.6931 410.921 30.5047 409.245 33.3579C405.05 40.3963 398.093 51.1868 396.79 52.9555C396.614 53.2613 396.402 53.4614 396.189 53.556C396.014 53.556 395.897 53.3631 395.897 52.8718V36.2256C395.897 31.571 394.012 29.6931 391.413 29.6931C387.819 29.6931 385.843 32.9757 384.54 35.0429C382.75 37.9143 380.374 41.7829 378.475 45.353C377.19 47.7404 376.092 49.9022 375.693 49.9022C375.492 49.9022 375.492 49.0032 375.492 47.3255V34.0639C381.773 27.1201 385.641 18.615 385.641 9.30934C385.641 3.95229 383.259 0.997169 379.562 0.997169C372.703 0.997169 367.433 11.6931 367.433 24.3542V34.6498C364.237 36.6332 361.251 37.6013 357.562 38.3182C355.684 32.7865 351.698 29.9115 348.532 29.9879C345.425 30.0934 343.244 31.9859 343.244 35.1557C343.244 40.3963 348.404 42.5726 352.994 42.5726H354.297C354.48 43.5698 354.48 44.6616 354.48 45.7461C354.48 50.6045 351.603 55.4412 346.223 55.4412C340.645 55.4412 337.377 50.095 337.377 43.9628C337.377 39.3045 338.767 35.4505 341.04 32.7865C341.933 31.7893 342.636 30.8977 342.636 30.2717C342.636 29.8095 341.933 29.6931 341.344 29.6931C337.556 29.6931 329.2 34.7626 319.234 44.6616C318.359 36.7388 317.353 29.0089 317.353 21.4828C317.353 13.0724 319.044 5.92843 319.443 3.86858C319.64 2.59119 319.75 1.7869 319.75 1.20461C319.75 0.407602 319.344 0 318.268 0C310.201 0 292.479 12.7776 292.479 31.884C292.479 39.6939 294.17 45.2511 297.157 50.095C296.044 49.9021 295.169 49.9021 294.353 49.9021C291.18 49.9021 288.182 50.6882 286.323 51.0922V49.1015C286.323 44.8617 285.313 39.0133 283.516 37.0299C283.304 36.8261 283.007 36.7388 282.729 36.7388C281.909 36.7388 280.928 37.1209 279.838 37.7214C278.63 38.3182 277.437 38.9187 277.437 39.3045C277.437 39.4937 277.437 39.6939 277.737 40.1852C278.439 41.2006 280.335 43.1622 281.02 47.8277C277.627 44.4577 273.762 42.962 268.704 42.962C262.72 42.962 260.919 45.626 260.919 48.3154C260.919 53.4614 267.789 56.0344 276.463 56.0344C278.051 56.0344 279.838 55.7359 281.62 55.332C281.62 56.9187 281.821 58.3235 281.821 59.5026C281.821 61.1876 282.11 62.4796 283.219 62.4796C284.907 62.4796 285.91 59.0987 286.1 54.2584C289.185 53.4614 292.377 52.7772 295.074 52.7772C296.363 52.7772 297.973 52.9555 299.55 53.2612ZM279.94 52.2713C278.264 52.4678 277.243 52.4678 275.468 52.4678C271.573 52.4678 268.704 50.9757 268.704 48.8176C268.704 47.4347 269.392 46.6304 271.383 46.6304C274.574 46.6304 277.147 48.8176 279.94 52.2713Z" fill="#EDEDED"/>
</g>
</g>
<defs>
<clipPath id="clip0_868_2101">
<rect width="549" height="99" fill="white" transform="translate(0.5)"/>
</clipPath>
<clipPath id="clip1_868_2101">
<rect width="549" height="99" fill="white" transform="translate(0.5)"/>
</clipPath>
</defs>
</svg>
