<svg xmlns="http://www.w3.org/2000/svg" width="388" height="293" fill="none" viewBox="0 0 388 293"><g clip-path="url(#a)"><path fill="#e669a2" d="M387 125.811H246.599v-35.94H387z"/><path fill="#f3be26" d="M368.764 125.811H246.599v-89.89h122.165z"/><path fill="#ee9c34" d="M318.292 125.811h-71.693V0h71.693z"/><path fill="#f3bc87" d="M332.396 125.811h-85.797V14.039h85.797z"/><path fill="#e3721c" d="M246.578 14.06v111.739h71.705V14.059z"/><path fill="#ad1b02" d="M174.706 125.811h71.892v17.971h-71.892z"/><path fill="#e88d14" d="M246.578 35.901V125.8h85.859V35.901z"/><path fill="#d85604" d="M246.578 35.901V125.8h71.705V35.901z"/><path fill="#c14303" d="M291.432 125.811h-44.833V71.857h44.833z"/><path fill="#db4e18" d="M246.578 89.896V125.8h122.227V89.896z"/><path fill="#d1390d" d="M246.578 89.896V125.8h85.859V89.896z"/><path fill="#c22303" d="M246.578 89.896V125.8h71.705V89.896z"/><path fill="#ad1b02" d="M246.578 89.896V125.8h44.898V89.896z"/><path fill="#ededed" d="M262.229 193.5c-12.232 2.175-18.756 11.418-18.756 27.458 0 16.311 8.698 27.186 21.474 27.186 6.253 0 11.689-2.175 23.106-7.884v13.321c-13.863 6.524-22.018 8.156-32.891 8.156-12.233 0-20.931-2.991-27.727-10.331-7.068-7.068-10.873-16.311-10.873-26.914 0-23.108 17.397-39.147 42.677-39.147 16.582 0 28.27 7.884 28.27 19.03 0 7.34-5.436 12.505-13.319 12.505-4.078 0-7.34-1.359-11.961-3.806M201.067 224.492c11.145-13.865 15.223-19.574 15.223-26.37s-5.437-12.777-13.048-12.777c-4.349 0-8.427 2.446-10.33 4.621v28.545L174.7 242.978V187.52h-17.397l-28.815 47.575V187.52h-9.785l-26.368 5.98v6.797l14.407 1.359v58.993h18.213l27.726-45.672v45.672h20.388M37.154 251.406h4.077c14.679 0 22.834-8.971 22.834-26.914 0-14.952-6.524-23.108-18.757-23.108-1.63 0-4.077.272-8.154 1.088zm0 32.079 11.96 2.719V293H2.087v-6.796l10.874-2.719v-82.101H1v-6.796l28.542-8.7h7.611v9.787c13.32-8.155 17.941-9.515 25.009-9.515 15.766 0 27.727 14.681 27.727 35.07 0 23.38-16.038 39.419-40.503 39.419-2.718 0-7.34-.272-12.233-.544"/></g><defs><clipPath id="a"><path fill="#fff" d="M1 0h386v293H1z"/></clipPath></defs></svg>