<svg xmlns="http://www.w3.org/2000/svg" width="114" height="115" fill="none" viewBox="0 0 114 115"><g clip-path="url(#a)"><rect width="113.52" height="113.52" x=".348" y=".729" fill="url(#b)" rx="22.19"/><g filter="url(#c)"><circle cx="66.945" cy="81.353" r="42.238" fill="#3dcb8c" fill-opacity=".2"/></g><g filter="url(#d)"><circle cx="22.07" cy="26.446" r="49.031" fill="#00f0ff" fill-opacity=".2"/></g><g filter="url(#e)"><circle cx="24.708" cy="51.375" r="37.279" fill="url(#f)"/></g><g filter="url(#g)"><circle cx="23.557" cy="19.932" r="24.94" fill="#3dcb8c" fill-opacity=".2"/></g><g filter="url(#h)"><path fill="url(#i)" fill-rule="evenodd" d="M44.26 22.93a2.85 2.85 0 0 1 2.85 2.85v7.37a2.85 2.85 0 1 1-5.7 0v-7.37a2.85 2.85 0 0 1 2.85-2.85M24.173 25.11a2.85 2.85 0 0 1 4.03 0l7.263 7.262a2.85 2.85 0 1 1-4.03 4.03l-7.263-7.262a2.85 2.85 0 0 1 0-4.03m21.986 22.22 14.196 32.464 3.258-12.617a2.85 2.85 0 0 1 2.07-2.053l13.373-3.329zm-6.197.054c-1.733-3.964 2.303-7.992 6.264-6.251L86.44 58.816c3.317 1.458 2.905 6.29-.611 7.166l-17.124 4.262-4.209 16.302c-.903 3.496-5.714 3.88-7.16.572zm-18.04-2.528a2.85 2.85 0 0 1 2.85-2.85h6.603a2.85 2.85 0 0 1 0 5.7h-6.602a2.85 2.85 0 0 1-2.85-2.85" clip-rule="evenodd"/></g><path fill="url(#j)" stroke="url(#k)" stroke-linejoin="round" stroke-miterlimit="10" stroke-width=".5" d="M46.259 47.1a.25.25 0 0 0-.33.33l14.196 32.463a.25.25 0 0 0 .471-.037l3.258-12.618a2.6 2.6 0 0 1 1.89-1.873l13.371-3.328a.25.25 0 0 0 .04-.472zm22.387 22.901a.25.25 0 0 0-.182.18l-4.209 16.303c-.843 3.266-5.338 3.625-6.69.534L40.19 47.283c-1.642-3.756 2.182-7.572 5.934-5.922l40.217 17.684c3.099 1.362 2.713 5.876-.572 6.694zm-24.385-46.82a2.6 2.6 0 0 1 2.6 2.599v7.37a2.6 2.6 0 1 1-5.2 0v-7.37a2.6 2.6 0 0 1 2.6-2.6Zm-19.912 2.105a2.6 2.6 0 0 1 3.676 0l7.263 7.262a2.6 2.6 0 1 1-3.677 3.677l-7.262-7.263a2.6 2.6 0 0 1 0-3.676Zm-2.177 19.569a2.6 2.6 0 0 1 2.6-2.6h6.602a2.6 2.6 0 0 1 0 5.2h-6.602a2.6 2.6 0 0 1-2.6-2.6Z"/><path fill="url(#l)" d="M20.755 4.89c-8.92 0-16.15 7.23-16.15 16.149v26.515a3 3 0 0 0 3 3h17.13a5.7 5.7 0 0 1 .035-11.399h4.383c.347 0 .51-.492.265-.738l-7.263-7.263a5.7 5.7 0 1 1 8.06-8.06l7.263 7.262c.325.325 1.081.104 1.081-.356v-4.22a5.7 5.7 0 0 1 11.361-.667V7.89a3 3 0 0 0-3-3z"/><path fill="url(#m)" d="M68.193 87.412 71.21 73.34h16.18v33.704l-40.394-.001V71.749l7.63 17.593a6.73 6.73 0 0 0 6.17 4.05 7.565 7.565 0 0 0 7.397-5.98"/></g><rect width="111.655" height="111.655" x="1.28" y="1.661" stroke="url(#n)" stroke-opacity=".2" stroke-width="1.864" rx="21.258"/><defs><linearGradient id="b" x1="57.107" x2="57.107" y1=".729" y2="114.248" gradientUnits="userSpaceOnUse"><stop/><stop offset="1" stop-color="#151515"/></linearGradient><linearGradient id="f" x1="28.196" x2="46.75" y1="49.178" y2="51.373" gradientUnits="userSpaceOnUse"><stop stop-color="#075b61" stop-opacity=".65"/><stop offset="1" stop-color="#040404" stop-opacity="0"/></linearGradient><linearGradient id="i" x1="55.317" x2="55.317" y1="22.93" y2="89.397" gradientUnits="userSpaceOnUse"><stop stop-color="#4cc38a"/><stop offset="1" stop-color="#65ecf4"/></linearGradient><linearGradient id="j" x1="55.317" x2="55.317" y1="22.93" y2="89.397" gradientUnits="userSpaceOnUse"><stop stop-color="#65ecf4"/><stop offset=".729" stop-color="#0dff8b"/></linearGradient><linearGradient id="k" x1="79.015" x2="56.755" y1="40.641" y2="89.954" gradientUnits="userSpaceOnUse"><stop stop-color="#beffe0"/><stop offset="1" stop-color="#4cc38a" stop-opacity="0"/></linearGradient><linearGradient id="n" x1="57.107" x2="57.107" y1=".729" y2="114.248" gradientUnits="userSpaceOnUse"><stop stop-color="#59fcb3"/><stop offset="1"/></linearGradient><filter id="c" width="141.234" height="141.235" x="-3.673" y="10.735" color-interpolation-filters="sRGB" filterUnits="userSpaceOnUse"><feFlood flood-opacity="0" result="BackgroundImageFix"/><feBlend in="SourceGraphic" in2="BackgroundImageFix" result="shape"/><feGaussianBlur result="effect1_foregroundBlur_4051_91759" stdDeviation="14.19"/></filter><filter id="d" width="154.822" height="154.822" x="-55.341" y="-50.965" color-interpolation-filters="sRGB" filterUnits="userSpaceOnUse"><feFlood flood-opacity="0" result="BackgroundImageFix"/><feBlend in="SourceGraphic" in2="BackgroundImageFix" result="shape"/><feGaussianBlur result="effect1_foregroundBlur_4051_91759" stdDeviation="14.19"/></filter><filter id="e" width="132.557" height="132.557" x="-41.57" y="-14.904" color-interpolation-filters="sRGB" filterUnits="userSpaceOnUse"><feFlood flood-opacity="0" result="BackgroundImageFix"/><feBlend in="SourceGraphic" in2="BackgroundImageFix" result="shape"/><feGaussianBlur result="effect1_foregroundBlur_4051_91759" stdDeviation="14.5"/></filter><filter id="g" width="106.641" height="106.64" x="-29.763" y="-33.388" color-interpolation-filters="sRGB" filterUnits="userSpaceOnUse"><feFlood flood-opacity="0" result="BackgroundImageFix"/><feBlend in="SourceGraphic" in2="BackgroundImageFix" result="shape"/><feGaussianBlur result="effect1_foregroundBlur_4051_91759" stdDeviation="14.19"/></filter><filter id="h" width="74.791" height="74.466" x="17.922" y="18.93" color-interpolation-filters="sRGB" filterUnits="userSpaceOnUse"><feFlood flood-opacity="0" result="BackgroundImageFix"/><feBlend in="SourceGraphic" in2="BackgroundImageFix" result="shape"/><feGaussianBlur result="effect1_foregroundBlur_4051_91759" stdDeviation="2"/></filter><radialGradient id="l" cx="0" cy="0" r="1" gradientTransform="rotate(225 21.371 8.906)scale(37.8312 23.2675)" gradientUnits="userSpaceOnUse"><stop stop-color="#06fbf5"/><stop offset="1" stop-color="#0a3c3a" stop-opacity="0"/></radialGradient><radialGradient id="m" cx="0" cy="0" r="1" gradientTransform="rotate(81.32 -19.35 79.86)scale(18.7533 15.9672)" gradientUnits="userSpaceOnUse"><stop stop-color="#398969"/><stop offset="1" stop-color="#224639" stop-opacity="0"/></radialGradient><clipPath id="a"><rect width="113.52" height="113.52" x=".348" y=".729" fill="#fff" rx="22.19"/></clipPath></defs></svg>