<svg width="62" height="54" viewBox="0 0 62 54" fill="none" xmlns="http://www.w3.org/2000/svg">
<path fill-rule="evenodd" clip-rule="evenodd" d="M44.8484 6.64777C39.5422 1.33904 33.9655 -0.0414026 28.975 0.675557C24.0735 1.37973 19.9038 4.07876 17.1948 6.64498C15.8375 7.93068 15.8375 10.0693 17.1948 11.355C19.9038 13.9212 24.0735 16.6203 28.975 17.3244C33.9655 18.0414 39.5422 16.661 44.8484 11.3522C46.1473 10.0527 46.1473 7.94728 44.8484 6.64777ZM41.5315 44.9756C38.4729 47.5269 34.8645 49 31 49C27.0726 49 23.4096 47.4785 20.3195 44.8501C20.192 45.0554 20.0376 45.2485 19.8561 45.4243L12.0875 52.9508C10.8975 54.1037 8.99825 54.0736 7.84537 52.8837C6.69249 51.6937 6.72256 49.7944 7.91253 48.6415L15.6812 41.1151C15.9157 40.8879 16.1777 40.7066 16.4562 40.5711C15.0835 38.6173 13.9263 36.3869 13.0359 33.9488L3.93133 36.9222C2.35634 37.4365 0.662581 36.5767 0.148215 35.0017C-0.36615 33.4268 0.493656 31.733 2.06865 31.2186L11.5032 28.1375C11.1739 26.2025 11 24.188 11 22.1188C11 21.5529 11.013 21.0301 11.0387 20.548L1.7208 16.1556C0.222116 15.4492 -0.420101 13.6615 0.286372 12.1628C0.992843 10.6641 2.78048 10.0219 4.27916 10.7284L14.8027 15.6891C16.0552 16.044 17.5768 16.9178 19.3059 17.9107C22.5946 19.7992 26.6339 22.1188 31 22.1188C35.3661 22.1188 39.4054 19.7992 42.6941 17.9107L42.8433 17.825C43.0806 17.5885 43.3619 17.3881 43.6823 17.237L45.2104 16.5167C45.5553 16.3413 45.8874 16.1832 46.2061 16.0473L57.4895 10.7284C58.9882 10.0219 60.7758 10.6641 61.4823 12.1628C62.1887 13.6615 61.5465 15.4492 60.0478 16.1556L50.9554 20.4417C50.985 20.953 51 21.511 51 22.1188C51 24.2135 50.8217 26.2522 50.4845 28.209L59.7 31.2186C61.275 31.733 62.1348 33.4268 61.6204 35.0017C61.1061 36.5767 59.4123 37.4365 57.8373 36.9222L48.9394 34.0163C48.0387 36.4651 46.8686 38.703 45.4811 40.66C45.6969 40.7826 45.9009 40.9343 46.0875 41.1151L53.8561 48.6415C55.0461 49.7944 55.0762 51.6937 53.9233 52.8837C52.7704 54.0736 50.8711 54.1037 49.6812 52.9508L41.9125 45.4243C41.7685 45.2848 41.6415 45.1344 41.5315 44.9756Z" fill="white"/>
</svg>
