<svg xmlns="http://www.w3.org/2000/svg" width="64" height="64"><path d="M57.425 14.726c-2.568 0-4.863 1.284-6.264 3.23l-9.454 13.228a1.9 1.9 0 0 1-1.556.817 1.91 1.91 0 0 1-1.906-1.906c0-.39.117-.778.31-1.05L46.53 17.1c.817-1.206 1.284-2.684 1.284-4.28 0-4.24-3.424-7.664-7.664-7.664H0v7.664h34.393c0 2.1-1.712 3.852-3.852 3.852H0c0 2.723.584 5.33 1.595 7.664H26.69c0 2.1-1.712 3.852-3.852 3.852H3.852a19.12 19.12 0 0 0 15.368 7.664h9.454a1.91 1.91 0 0 1 1.906 1.906 1.91 1.91 0 0 1-1.906 1.906H19.18l-12.84 19.18h23.227c10.62 0 19.647-6.925 22.8-16.496l4.32-13.11c1.4-4.24 3.968-7.976 7.314-10.816-1.323-2.218-3.774-3.696-6.575-3.696zm0 5.252c-.778 0-1.44-.66-1.44-1.44s.66-1.44 1.44-1.44 1.44.66 1.44 1.44c0 .817-.66 1.44-1.44 1.44z" fill="#2481d7"/></svg>