<svg xmlns="http://www.w3.org/2000/svg" width="764" height="220" fill="none" viewBox="0 0 764 220"><g clip-path="url(#a)"><path fill="#171717" d="M0 .42h764v219H0z"/><path stroke="#898989" stroke-linecap="round" stroke-width=".5" d="M865.508 47.598H752.791a32 32 0 0 0-21.804 8.578L692.38 92.118a32 32 0 0 1-21.804 8.579h-79.165"/><path stroke="#4d4d4d" stroke-dasharray="2 3" stroke-linecap="square" stroke-width=".5" d="M636.927 100.696H554.89a32 32 0 0 0-22.633 9.378l-44.907 44.929a32 32 0 0 1-22.633 9.378h-48.153"/><path stroke="#b4b4b4" stroke-linecap="round" stroke-width=".5" d="M456.226 60.753h39.728a32 32 0 0 1 20.555 7.475l29.82 24.993a32 32 0 0 0 20.555 7.475h83.476"/><circle cx="394.86" cy="163.421" r="19.906" fill="#171717" stroke="#4d4d4d"/><path stroke="#b4b4b4" stroke-linecap="round" stroke-linejoin="round" stroke-width=".669" d="M402.641 166.916v-8.53c0-.503-.212-.985-.588-1.34a2.07 2.07 0 0 0-1.419-.556h-12.043c-.532 0-1.043.2-1.419.556a1.84 1.84 0 0 0-.588 1.34v8.53m16.057 0h-16.057m16.057 0 1.284 2.417a.9.9 0 0 1-.043.927 1 1 0 0 1-.368.33 1.06 1.06 0 0 1-.492.118h-16.82a1.06 1.06 0 0 1-.491-.118 1 1 0 0 1-.368-.33.91.91 0 0 1-.044-.927l1.285-2.417"/><g filter="url(#b)"><path fill="#1f1f1f" d="M583.104 100.696c0-6.076 4.924-11 11-11h56c6.075 0 11 4.924 11 11s-4.925 11-11 11h-56c-6.076 0-11-4.925-11-11" shape-rendering="crispEdges"/><path stroke="#2e2e2e" d="M583.604 100.696c0-5.8 4.701-10.5 10.5-10.5h56c5.798 0 10.5 4.7 10.5 10.5s-4.701 10.5-10.5 10.5h-56c-5.799 0-10.5-4.701-10.5-10.5Z" shape-rendering="crispEdges"/><path fill="#b4b4b4" d="M598.119 101.196v-2.21h-.08l-1.47 3.59-1.47-3.59h-.08v5.71h-.77v-6.98h1.08l1.23 3.08h.06l1.23-3.08h1.04v6.98h-.77zm3.646 3.5v-6.98h4.3v.73h-3.46v2.35h3.34v.73h-3.34v2.44h3.46v.73zm9.376.12q-.94 0-1.54-.34-.6-.35-.99-.89l.61-.5q.41.51.86.76.46.25 1.09.25.76 0 1.16-.35t.4-.98q0-.51-.29-.79-.29-.29-1.01-.41l-.78-.13q-.51-.09-.86-.27a1.8 1.8 0 0 1-.55-.43 1.6 1.6 0 0 1-.3-.56q-.09-.31-.09-.64 0-.96.63-1.45t1.7-.49q.84 0 1.41.28.58.28.93.79l-.59.51a2.4 2.4 0 0 0-.7-.62q-.41-.24-1.06-.24-.71 0-1.09.3t-.38.9q0 .47.28.77.29.29 1.03.42l.75.13q.51.09.86.27t.56.43q.22.25.31.56t.09.65q0 .97-.64 1.52-.63.55-1.8.55m7.296 0q-.94 0-1.54-.34-.6-.35-.99-.89l.61-.5q.41.51.86.76.46.25 1.09.25.76 0 1.16-.35t.4-.98q0-.51-.29-.79-.29-.29-1.01-.41l-.78-.13q-.51-.09-.86-.27a1.8 1.8 0 0 1-.55-.43 1.6 1.6 0 0 1-.3-.56q-.09-.31-.09-.64 0-.96.63-1.45t1.7-.49q.84 0 1.41.28.58.28.93.79l-.59.51a2.4 2.4 0 0 0-.7-.62q-.41-.24-1.06-.24-.71 0-1.09.3t-.38.9q0 .47.28.77.29.29 1.03.42l.75.13q.51.09.86.27t.56.43q.22.25.31.56t.09.65q0 .97-.64 1.52-.63.55-1.8.55m9.127-.12-.59-1.99h-2.45l-.59 1.99h-.87l2.14-6.98h1.11l2.14 6.98zm-1.77-6.09h-.09l-.98 3.37h2.05zm8.696 5.16h-.05q-.09.2-.21.39a1.4 1.4 0 0 1-.31.34q-.18.14-.44.23t-.62.09q-1.14 0-1.7-.92-.55-.921-.55-2.64 0-1.8.61-2.73t1.88-.93q.49 0 .85.13t.61.35q.26.22.43.5.17.27.28.55l-.72.33a3 3 0 0 0-.21-.43 1.3 1.3 0 0 0-.28-.36 1.1 1.1 0 0 0-.39-.25 1.5 1.5 0 0 0-.54-.09q-.84 0-1.24.63-.39.63-.39 1.68v1.08q0 .53.08.97.08.429.26.75.189.32.48.5.3.17.73.17.68 0 1.06-.41t.38-1.06v-.72h-1.47v-.67h2.25v3.45h-.78zm3.756.93v-6.98h4.3v.73h-3.46v2.35h3.34v.73h-3.34v2.44h3.46v.73zm9.376.12q-.94 0-1.54-.34-.6-.35-.99-.89l.61-.5q.41.51.86.76.46.25 1.09.25.76 0 1.16-.35t.4-.98q0-.51-.29-.79-.29-.29-1.01-.41l-.78-.13q-.51-.09-.86-.27a1.8 1.8 0 0 1-.55-.43 1.6 1.6 0 0 1-.3-.56q-.09-.31-.09-.64 0-.96.63-1.45t1.7-.49q.84 0 1.41.28.579.28.93.79l-.59.51a2.4 2.4 0 0 0-.7-.62q-.41-.24-1.06-.24-.71 0-1.09.3t-.38.9q0 .47.28.77.29.29 1.03.42l.75.13q.51.09.86.27t.56.43q.22.25.31.56t.09.65q0 .97-.64 1.52-.63.55-1.8.55"/></g><rect width="24" height="24" x="511" y="60.753" fill="#171717" rx="6"/><rect width="24" height="24" x="511" y="60.753" stroke="#b4b4b4" stroke-width=".5" rx="6"/><path fill="#b4b4b4" fill-rule="evenodd" d="M523.335 78.753a6 6 0 1 0 0-12 6 6 0 0 0 0 12m2.78-6.97a.75.75 0 0 0-1.06-1.06l-2.47 2.47-.97-.97a.75.75 0 1 0-1.06 1.06l1.5 1.5a.75.75 0 0 0 1.06 0z" clip-rule="evenodd"/><rect width="24" height="24" x="494.896" y="119.016" fill="#171717" rx="6"/><rect width="24" height="24" x="494.896" y="119.016" stroke="#292929" stroke-width=".5" rx="6"/><path fill="#b4b4b4" fill-rule="evenodd" d="M507.23 137.016a6 6 0 1 0 0-12 6 6 0 0 0 0 12m-.969-8.031a.75.75 0 1 0-1.061 1.061l.97.97-.97.969a.75.75 0 1 0 1.061 1.061l.969-.97.97.97a.75.75 0 1 0 1.061-1.061l-.97-.969.97-.97a.75.75 0 1 0-1.061-1.061l-.97.97z" clip-rule="evenodd"/><circle cx="443.146" cy="60.318" r="19.906" fill="#171717" stroke="#4d4d4d"/><path stroke="#b4b4b4" stroke-linecap="round" stroke-linejoin="round" stroke-width=".669" d="M450.927 63.813v-8.53c0-.503-.211-.985-.588-1.34a2.07 2.07 0 0 0-1.419-.555h-12.043c-.532 0-1.043.2-1.419.555a1.84 1.84 0 0 0-.588 1.34v8.53m16.057 0H434.87m16.057 0 1.285 2.417a.9.9 0 0 1-.044.927 1 1 0 0 1-.368.33 1.05 1.05 0 0 1-.492.118h-16.819a1.05 1.05 0 0 1-.492-.118 1 1 0 0 1-.368-.33.91.91 0 0 1-.044-.927l1.285-2.417"/></g><defs><clipPath id="a"><path fill="#fff" d="M0 .42h764v219H0z"/></clipPath><filter id="b" width="86" height="30" x="580.104" y="86.696" color-interpolation-filters="sRGB" filterUnits="userSpaceOnUse"><feFlood flood-opacity="0" result="BackgroundImageFix"/><feColorMatrix in="SourceAlpha" result="hardAlpha" values="0 0 0 0 0 0 0 0 0 0 0 0 0 0 0 0 0 0 127 0"/><feOffset dx="1" dy="1"/><feGaussianBlur stdDeviation="2"/><feComposite in2="hardAlpha" operator="out"/><feColorMatrix values="0 0 0 0 0 0 0 0 0 0 0 0 0 0 0 0 0 0 0.15 0"/><feBlend in2="BackgroundImageFix" result="effect1_dropShadow_893_2889"/><feBlend in="SourceGraphic" in2="effect1_dropShadow_893_2889" result="shape"/></filter></defs></svg>