<svg xmlns="http://www.w3.org/2000/svg" width="349" height="175" fill="none" viewBox="0 0 349 175"><g clip-path="url(#a)"><path fill="#171717" d="M0 .42h349v174H0z"/><g clip-path="url(#b)"><path fill="#171717" d="M-296.657-12.57h663.314v190.14h-663.314z"/><path stroke="#898989" stroke-linecap="round" stroke-width=".434" d="M454.474 28.391h-97.862a27.78 27.78 0 0 0-18.931 7.448l-33.519 31.204a27.78 27.78 0 0 1-18.931 7.448H216.5"/><path stroke="#4d4d4d" stroke-dasharray="1.74 2.6" stroke-linecap="square" stroke-width=".434" d="M256.017 74.492h-71.226a27.79 27.79 0 0 0-19.65 8.142l-38.989 39.007a27.78 27.78 0 0 1-19.65 8.142H64.695"/><path stroke="#b4b4b4" stroke-linecap="round" stroke-width=".434" d="M99.129 39.813h34.493a27.78 27.78 0 0 1 17.846 6.49L177.358 68a27.78 27.78 0 0 0 17.846 6.49h72.475"/><circle cx="46.166" cy="128.951" r="17.282" fill="#171717" stroke="#4d4d4d" stroke-width=".868"/><path stroke="#b4b4b4" stroke-linecap="round" stroke-linejoin="round" stroke-width=".581" d="M52.922 131.985v-7.406c0-.437-.184-.855-.51-1.164a1.8 1.8 0 0 0-1.233-.482H40.724a1.8 1.8 0 0 0-1.233.482c-.327.309-.51.727-.51 1.164v7.406m13.94 0h-13.94m13.94 0 1.116 2.098a.79.79 0 0 1-.038.805.86.86 0 0 1-.319.286.9.9 0 0 1-.427.103H38.65a.9.9 0 0 1-.427-.103.86.86 0 0 1-.32-.286.79.79 0 0 1-.037-.805l1.115-2.098"/><g filter="url(#c)"><path fill="#1f1f1f" d="M210.122 73.988c0-5.508 4.465-9.973 9.973-9.973h47.418c5.508 0 9.973 4.465 9.973 9.973s-4.465 9.973-9.973 9.973h-47.418c-5.508 0-9.973-4.465-9.973-9.973" shape-rendering="crispEdges"/><path stroke="#2e2e2e" stroke-width=".868" d="M220.095 64.45h47.418a9.54 9.54 0 0 1 9.539 9.538 9.54 9.54 0 0 1-9.539 9.539h-47.418c-5.268 0-9.539-4.27-9.539-9.539 0-5.268 4.271-9.539 9.539-9.539Z" shape-rendering="crispEdges"/><path fill="#b4b4b4" d="M222.98 73.45v-1.92h-.069l-1.277 3.117-1.276-3.117h-.069v4.958h-.669v-6.06h.938l1.068 2.674h.052l1.068-2.674h.903v6.06h-.669zm3.166 3.038v-6.06h3.733v.634h-3.004v2.04h2.9v.634h-2.9v2.118h3.004v.634zm8.14.104q-.816 0-1.337-.295a2.75 2.75 0 0 1-.859-.773l.529-.434q.356.443.747.66.4.217.946.217.66 0 1.007-.304.348-.304.348-.85 0-.443-.252-.687-.252-.25-.877-.356l-.677-.112a2.7 2.7 0 0 1-.747-.235 1.6 1.6 0 0 1-.477-.373 1.4 1.4 0 0 1-.261-.486 2 2 0 0 1-.078-.556q0-.833.547-1.259t1.476-.425q.729 0 1.224.243.504.243.808.686l-.513.442q-.252-.33-.607-.538-.357-.208-.921-.208-.616 0-.946.26t-.33.782a.94.94 0 0 0 .243.668q.252.252.894.365l.651.113q.444.078.747.234.304.156.486.374.191.216.27.486.078.27.078.564 0 .842-.556 1.32-.547.477-1.563.477m6.335 0q-.816 0-1.337-.295a2.8 2.8 0 0 1-.86-.773l.53-.434q.356.443.746.66.4.217.947.217.66 0 1.007-.304t.347-.85q0-.443-.252-.687-.251-.25-.876-.356l-.678-.112a2.6 2.6 0 0 1-.746-.235 1.6 1.6 0 0 1-.478-.373 1.4 1.4 0 0 1-.26-.486 2 2 0 0 1-.078-.556q0-.833.547-1.259.546-.425 1.475-.425.73 0 1.225.243.503.243.807.686l-.512.442q-.252-.33-.608-.538t-.92-.208q-.617 0-.947.26t-.329.782a.94.94 0 0 0 .243.668q.251.252.894.365l.651.113q.442.078.747.234.303.156.486.374.19.216.269.486.078.27.078.564 0 .842-.555 1.32-.547.477-1.563.477m7.923-.104-.512-1.728h-2.127l-.512 1.728h-.756l1.858-6.06h.964l1.858 6.06zm-1.537-5.287h-.078l-.851 2.925h1.78zm7.55 4.48h-.043a3 3 0 0 1-.182.338 1.2 1.2 0 0 1-.651.495q-.226.078-.539.078-.99 0-1.476-.799-.477-.798-.477-2.292 0-1.562.529-2.37.53-.807 1.633-.807.424 0 .738.113.313.113.529.303.226.192.374.435.147.234.243.477l-.625.287a2.5 2.5 0 0 0-.183-.374 1.1 1.1 0 0 0-.243-.312 1 1 0 0 0-.338-.217 1.3 1.3 0 0 0-.469-.079q-.729 0-1.077.547-.339.547-.338 1.46v.937q0 .46.069.842.07.373.226.651.165.278.416.434.26.148.634.148.591 0 .921-.356t.329-.92v-.626h-1.276v-.581h1.954v2.995h-.678zm3.262.807v-6.06h3.733v.634h-3.004v2.04h2.9v.634h-2.9v2.118h3.004v.634zm8.14.104q-.816 0-1.337-.295a2.8 2.8 0 0 1-.86-.773l.53-.434q.356.443.747.66.399.217.946.217.66 0 1.007-.304.348-.304.347-.85 0-.443-.251-.687-.252-.25-.877-.356l-.677-.112a2.6 2.6 0 0 1-.747-.235 1.6 1.6 0 0 1-.478-.373 1.4 1.4 0 0 1-.26-.486 2 2 0 0 1-.078-.556q0-.833.547-1.259.546-.425 1.476-.425.729 0 1.224.243.504.243.807.686l-.512.442q-.252-.33-.608-.538t-.92-.208q-.616 0-.946.26t-.33.782a.94.94 0 0 0 .243.668q.252.252.894.365l.651.113q.443.078.747.234t.486.374q.19.216.269.486.078.27.078.564 0 .842-.555 1.32-.548.477-1.563.477"/></g><rect width="20.837" height="20.837" x="147" y="39.813" fill="#171717" rx="5.209"/><rect width="20.837" height="20.837" x="147" y="39.813" stroke="#b4b4b4" stroke-width=".434" rx="5.209"/><path fill="#b4b4b4" fill-rule="evenodd" d="M157.71 55.44a5.21 5.21 0 1 0 0-10.42 5.21 5.21 0 0 0 0 10.42m2.414-6.05a.652.652 0 0 0-.921-.922l-2.144 2.144-.842-.841a.651.651 0 0 0-.921.92l1.303 1.303a.65.65 0 0 0 .921 0z" clip-rule="evenodd"/><rect width="20.837" height="20.837" x="133.019" y="90.397" fill="#171717" rx="5.209"/><rect width="20.837" height="20.837" x="133.019" y="90.397" stroke="#292929" stroke-width=".434" rx="5.209"/><path fill="#b4b4b4" fill-rule="evenodd" d="M143.727 106.025a5.21 5.21 0 1 0-.001-10.42 5.21 5.21 0 0 0 .001 10.42m-.842-6.972a.651.651 0 0 0-.921.92l.842.842-.842.842a.652.652 0 0 0 .921.921l.842-.842.842.842a.65.65 0 1 0 .921-.921l-.842-.842.842-.841a.652.652 0 0 0-.921-.921l-.842.842z" clip-rule="evenodd"/><circle cx="88.088" cy="39.435" r="17.282" fill="#171717" stroke="#4d4d4d" stroke-width=".868"/><path stroke="#b4b4b4" stroke-linecap="round" stroke-linejoin="round" stroke-width=".581" d="M94.844 42.47v-7.407a1.6 1.6 0 0 0-.51-1.163 1.8 1.8 0 0 0-1.233-.482H82.645c-.462 0-.905.173-1.232.482a1.6 1.6 0 0 0-.51 1.163v7.407m13.94 0h-13.94m13.94 0 1.116 2.098a.79.79 0 0 1-.038.804.85.85 0 0 1-.32.287.9.9 0 0 1-.426.102H80.572a.9.9 0 0 1-.427-.102.85.85 0 0 1-.32-.287.79.79 0 0 1-.037-.804l1.115-2.098"/></g></g><defs><clipPath id="a"><path fill="#fff" d="M0 .42h349v174H0z"/></clipPath><clipPath id="b"><path fill="#fff" d="M-296.657-12.57h663.314v190.14h-663.314z"/></clipPath><filter id="c" width="74.31" height="26.892" x="207.517" y="61.41" color-interpolation-filters="sRGB" filterUnits="userSpaceOnUse"><feFlood flood-opacity="0" result="BackgroundImageFix"/><feColorMatrix in="SourceAlpha" result="hardAlpha" values="0 0 0 0 0 0 0 0 0 0 0 0 0 0 0 0 0 0 127 0"/><feOffset dx=".868" dy=".868"/><feGaussianBlur stdDeviation="1.736"/><feComposite in2="hardAlpha" operator="out"/><feColorMatrix values="0 0 0 0 0 0 0 0 0 0 0 0 0 0 0 0 0 0 0.15 0"/><feBlend in2="BackgroundImageFix" result="effect1_dropShadow_893_2918"/><feBlend in="SourceGraphic" in2="effect1_dropShadow_893_2918" result="shape"/></filter></defs></svg>