<svg xmlns="http://www.w3.org/2000/svg" width="49" height="48" fill="none">
  <path fill="#3F894A" d="M14.52 35.93a3.39 3.39 0 0 0-1.14-2.41 4.65 4.65 0 0 0-.1-.1l-.02-.01a7.6 7.6 0 0 1-2.14-5.4c0-3.08 1.37-11.87 1.67-11.87.23 0 .23 4.24.08 8.22-.1 2.77.3 3.86.96 3.86.88 0 1.02-2.79 1.11-5.92.08-2.57.3-6.14.48-6.16.28 0 .51 3.55.59 6.13.1 3.2.32 5.87 1.05 5.87.77 0 1-1.23.95-3.97-.07-3.34-.07-8.03.17-8.03.3 0 1.3 3.09 1.54 11.88a7.36 7.36 0 0 1-2.14 5.39h-.01l-.11.1a3.39 3.39 0 0 0-1.14 2.42 62.5 62.5 0 0 0-.13 4.62l6.78 6.78c.1-2.95.08-5.74-.05-7.84-.05-.79-.17-1.7-.3-2.43-.05-.23-.2-.44-.2-.63v-25.6c0-2.18 2.05-3.2 3.93 1.58 1.88 4.8 1.35 21.84 1.35 23.05 0 .26-.22.56-.59.86l-.4.29c-1.12.9-1.28 1.95-1.34 2.88-.14 2.26-.25 5.31-.28 8.51l9.34-9.34c-.02-1.1-.05-2.08-.1-2.9-.02-.32-.1-.64-.16-.98-.16-.95-1.35-1.74-2.03-2.43-1.33-1.33-2.19-3.58-2.19-6.11 0-4.11 2.28-9.32 5.1-9.32 2.8 0 5.08 5.2 5.08 9.32 0 2.53-.85 4.78-2.18 6.11-.69.7-1.87 1.48-2.04 2.43-.06.34-.14.66-.16.98l-.07 1.65 13.05-13.05L24.36 0 0 24.36 14.64 39c-.02-1.16-.06-2.2-.12-3.07z"/>
</svg>
