<svg width="48" height="48" fill="none" xmlns="http://www.w3.org/2000/svg"><g clip-path="url(#clip0)"><path d="M24 28.631a4.278 4.278 0 1 0 0-8.556 4.278 4.278 0 0 0 0 8.556z" fill="#61DAFB"/><path d="M24 33.118c12.678 0 22.956-3.924 22.956-8.765 0-4.84-10.278-8.765-22.956-8.765-12.679 0-22.957 3.924-22.957 8.765 0 4.841 10.278 8.765 22.957 8.765z" stroke="#61DAFB"/><path d="M16.409 28.736c6.34 10.98 14.877 17.918 19.07 15.498 4.191-2.42 2.451-13.284-3.888-24.264C25.25 8.99 16.714 2.053 12.52 4.473 8.33 6.892 10.07 17.756 16.41 28.736z" stroke="#61DAFB"/><path d="M16.409 19.97c-6.34 10.98-8.08 21.843-3.887 24.264 4.192 2.42 12.73-4.518 19.069-15.498 6.34-10.98 8.08-21.843 3.887-24.264-4.192-2.42-12.73 4.519-19.069 15.498z" stroke="#61DAFB"/></g><defs><clipPath id="clip0"><path fill="#fff" transform="translate(0 3)" d="M0 0H48V42.706H0z"/></clipPath></defs></svg>