<svg fill="none" height="224" viewBox="0 0 313 224" width="313" xmlns="http://www.w3.org/2000/svg" xmlns:xlink="http://www.w3.org/1999/xlink"><linearGradient id="a" gradientUnits="userSpaceOnUse" x1="82.2917" x2="82.2917" y1="173.09" y2="148.457"><stop offset="0" stop-color="#fffa8f"/><stop offset="1" stop-color="#fb784b"/></linearGradient><linearGradient id="b" gradientUnits="userSpaceOnUse" x1="265.863" x2="274.954" y1="65.0136" y2="57.5404"><stop offset="0" stop-color="#5bcb99"/><stop offset="1" stop-color="#85a8e8"/></linearGradient><linearGradient id="c" gradientUnits="userSpaceOnUse" x1="93.8362" x2="377.08" y1="155.311" y2="8.34586"><stop offset="0" stop-color="#34e28b"/><stop offset="1"/></linearGradient><linearGradient id="d" gradientUnits="userSpaceOnUse" x1="145.861" x2="168.138" y1="183.775" y2="183.775"><stop offset="0" stop-color="#c297ff"/><stop offset="1" stop-color="#ae31bb"/></linearGradient><linearGradient id="e" gradientUnits="userSpaceOnUse" x1="55.0887" x2="336.714" y1="291.09" y2="71.4394"><stop offset="0"/><stop offset="1" stop-color="#d23de2"/></linearGradient><linearGradient id="f" gradientUnits="userSpaceOnUse" x1="263.41" x2="252.01" y1="52.6137" y2="91.0983"><stop offset="0"/><stop offset="1" stop-opacity="0"/></linearGradient><linearGradient id="g" gradientUnits="userSpaceOnUse" x1="159.166" x2="239.253" y1="201.53" y2="220.927"><stop offset="0" stop-color="#2db5f9"/><stop offset="1"/></linearGradient><linearGradient id="h" gradientUnits="userSpaceOnUse" x1="96.5719" x2="43.6645" y1="-.126831" y2="145.22"><stop offset="0"/><stop offset=".21" stop-color="#48080a"/><stop offset=".42" stop-color="#891014"/><stop offset=".61" stop-color="#bc151b"/><stop offset=".78" stop-color="#e01a21"/><stop offset=".91" stop-color="#f71c24"/><stop offset="1" stop-color="#ff1d25"/></linearGradient><path d="m38.2617 144.03.7378 1.166c3.8096 5.405 8.2521 10.335 13.2328 14.685 11.5851 9.488 26.1042 14.662 41.0788 14.637h2.8322c10.3997-.846 20.5917-3.378 30.1787-7.497-4.3.69-8.642 1.088-12.995 1.19-7.401-.006-14.7172-1.568-21.4745-4.586s-12.8042-7.424-17.748-12.931c-12.2646.101-24.4339-2.162-35.8428-6.664z" fill="url(#a)"/><path d="m93.2884 44.6647c11.1826-.0097 22.1776 2.8711 31.9196 8.363 9.741 5.492 17.897 13.4085 23.677 22.9816-6.702-6.0787-14.851-10.3363-23.668-12.3656-8.817-2.0294-18.008-1.7625-26.6926.775 11.8996 5.7358 28.1076 10.115 50.4326 11.6382 0 0-1.095-21.2534-28.299-32.368-38.0796-15.4938-43.3394-12.4236-52.9784-28.56-1.4233 11.2752 1.6742 22.6555 8.6156 31.654 5.5461-1.4527 11.2601-2.165 16.9932-2.1182z" fill="#f15a24"/><path d="m120.659 43.6885c-13.019-5.1884-22.1816-8.4252-29.036-10.9004 1.7712 4.36 4.1772 8.4342 7.14 12.0904 10.237.845 20.127 4.1075 28.857 9.5194 8.73 5.4118 16.051 12.8185 21.361 21.611-8.147-7.4073-18.409-12.0765-29.345-13.3518 9.045 5.3966 18.614 9.8621 28.56 13.328h.833s-1.143-21.182-28.37-32.2966z" fill="#ed1c24"/><path d="m148.909 76.0568h.143c.428-2.38 2.975-20.6822-17.731-36.7472-30.892-23.9666-36.9138-26.2038-38.3894-38.88919-2.4787 5.00087-3.8762 10.46769-4.1018 16.04459-.2255 5.5769.7261 11.1387 2.7928 16.3234 6.8306 2.38 16.0174 5.593 29.0124 10.9004 27.251 11.1146 28.322 32.368 28.322 32.368z" fill="#c1272d"/><path d="m242.658 55.1604c11.593-.0141 22.8 4.1613 31.558 11.7572 10.125.4387 19.762 4.4723 27.18 11.3764 0 0-25.966-37.7229-71.733-22.0388-4.101 1.4783-8.028 3.4017-11.71 5.7358 7.465-4.4705 16.003-6.8313 24.705-6.8306z" fill="url(#b)"/><path d="m242.658 55.1604c-8.7-.0091-17.238 2.3435-24.705 6.8068l1.333-.8092c-36.985 21.777-82.324 88.703-145.18 89.536 4.9544 5.485 11.0061 9.868 17.7628 12.865 6.7568 2.998 14.0682 4.542 21.4592 4.532 4.354-.102 8.695-.5 12.995-1.19 40.889-16.85 80.159-57.12 97.985-76.6594 16.517-18.1118 34.629-24.276 49.98-23.3478-8.78-7.6035-20.016-11.7714-31.63-11.7334z" fill="url(#c)"/><path d="m147.17 184.87c-.827 2.701-1.267 5.506-1.309 8.33-.006 3.27.491 6.521 1.476 9.639-.528-3.886-.087-7.842 1.283-11.517 1.371-3.675 3.628-6.954 6.571-9.546l.19-.714c2.086-6.858 6.628-12.705 12.757-16.422-1.936.623-3.835 1.354-5.688 2.19-3.642 1.806-6.876 4.339-9.504 7.441-2.627 3.102-4.593 6.709-5.776 10.599z" fill="url(#d)"/><path d="m312.676 113.589c.015-12.694-3.956-25.0732-11.353-35.3903-7.414-6.8521-17.021-10.8498-27.108-11.2812 5.241 4.5328 9.443 10.1431 12.318 16.4479s4.356 13.1557 4.342 20.0846c0 16.208-5.878 34.748-24.942 44.721-27.751 14.518-70.329 7.616-97.985 16.66-6.115 3.715-10.648 9.552-12.733 16.398l-.19.714c8.092-7.14 24.062-12.21 55.216-8.187 22.253 2.856 39.912 3.641 55.097-.714 14.679-3.203 27.578-11.897 36.057-24.3 7.324-10.26 11.267-22.547 11.281-35.153z" fill="url(#e)"/><path d="m312.676 113.589c.015-12.694-3.956-25.0732-11.353-35.3903-7.414-6.8521-17.021-10.8498-27.108-11.2812 5.241 4.5328 9.443 10.1431 12.318 16.4479s4.356 13.1557 4.342 20.0846c0 16.208-5.878 34.748-24.942 44.721-27.751 14.518-70.329 7.616-97.985 16.66-6.115 3.715-10.648 9.552-12.733 16.398l-.19.714c8.092-7.14 24.062-12.21 55.216-8.187 22.253 2.856 39.912 3.641 55.097-.714 14.679-3.203 27.578-11.897 36.057-24.3 7.324-10.26 11.267-22.547 11.281-35.153z" fill="url(#f)" opacity=".49"/><path d="m174.803 217.596c-7.305-2.239-13.443-7.248-17.1-13.957-3.657-6.708-4.541-14.582-2.464-21.934-2.943 2.592-5.2 5.871-6.57 9.546s-1.811 7.631-1.284 11.517c1.507 4.717 4.161 8.986 7.725 12.424 3.563 3.438 7.924 5.938 12.691 7.275 4.768 1.338 9.793 1.471 14.625.388 4.831-1.083 9.319-3.348 13.059-6.592-6.497 2.966-13.858 3.441-20.682 1.333z" fill="url(#g)"/><path d="m184.942 215.478c3.022-8.83 12.828-22.444 23.324-16.208 0 0 8.544 4.76 10.329-8.735 0 0 6.402 31.845-24.442 30.774 0 0 6.949-5.07 6.878-10.282-4.931 2.747-10.448 4.273-16.089 4.451z" fill="#2db5f9"/><path d="m197.27 195.985c1.687-1.139 3.652-1.799 5.685-1.908s4.058.337 5.858 1.289c4.355 1.928 9.829-5.617 5.093-12.376 0 0 .309 6.974-5.308 6.902-2.261-.096-4.507.418-6.501 1.491-1.994 1.072-3.661 2.662-4.827 4.602z" fill="#5fd2ff"/><path d="m228.257 94.6685c-7.378 10.0675-18.231 18.4925-19.493 20.5635-1.261 2.07 2.142 8.734 7.14 9.21s1.167-1.928.738-4.284c-.428-2.356 1.5 1.5 7.545.595 6.045-.904-2.19-3.141-1.619-6.188.572-3.046 6.783-8.83 9.259-14.6367 2.475-5.8072 6.711 0 4.545 4.5457-.856 1.809 6.879-5.0693 2.975-10.3053-3.903-5.236-6.783-5.3788-11.09.4998z" fill="#219058"/><path d="m207.195 116.684c-1.095 1.047-4.284 3.38-4.284 3.38s3.141 4.355 7.14 4.284c0 0 .856-.405-.381-1.69-1.379-1.714-2.238-3.787-2.475-5.974z" fill="#219058"/><path d="m98.5235 64.4188c-8.6996-3.9625-16.3163-9.9629-22.2054-17.493-9.7868 2.6491-18.8173 7.5535-26.3679 14.3202-7.5506 6.7668-13.4114 15.2079-17.1131 24.6471-3.7016 9.4392-5.1411 19.6139-4.2032 29.7099.9379 10.095 4.2271 19.831 9.6042 28.427 11.4163 4.505 23.594 6.768 35.8666 6.664-6.0115-6.648-10.2358-14.714-12.2763-23.441-2.0406-8.728-1.8305-17.83.6103-26.454 2.4409-8.6242 7.0326-16.4868 13.3444-22.8502 6.3117-6.3633 14.1366-11.019 22.7404-13.53z" fill="url(#h)"/><path d="m98.6436 44.8784c2.8794 4.165 11.1624 11.3526 20.9204 17.7786 10.928 1.2801 21.181 5.949 29.321 13.3518-5.312-8.7956-12.637-16.2042-21.371-21.6162-8.735-5.412-18.63-8.6729-28.8704-9.5142z" fill="#f7b852"/><path d="m98.6428 44.8792c-1.7612-.1428-3.5462-.2142-5.3312-.2142-5.7448.0386-11.459.8389-16.9932 2.38 5.889 7.5302 13.5058 13.5305 22.2054 17.493 6.8232-1.9983 13.9812-2.5893 21.0392-1.7374-9.758-6.5688-18.04-13.7564-20.9202-17.9214z" fill="#ff8431"/><path d="m134.676 59.6583c-4.997-4.6901-10.948-8.246-17.446-10.4244 4.189 7.973 7.807 10.4244 17.446 10.4244z" fill="#fffb69"/><path d="m116.305 25.7441c3.252 1.9822 6.377 4.1682 9.353 6.545.738.5712-1.333-5.0694-3.736-6.1404-1.803-.6335-3.742-.7732-5.617-.4046z" fill="#c1272d"/><path d="m127.846 33.9071c3.217 2.0369 6.316 4.2539 9.282 6.6402.762.5474-1.285-5.0932-3.689-6.188-1.791-.6451-3.721-.8012-5.593-.4522z" fill="#c1272d"/><path d="m138.699 41.9043c1.967 1.8417 3.659 3.9579 5.022 6.2832.38.5474 0-3.689-1.309-4.9028-1.093-.7826-2.375-1.2592-3.713-1.3804z" fill="#c1272d"/><path d="m88.6702 144.815c-.2856-.928 3.3558-2.118 4.3316-2.166 1.7764.291 3.4955.861 5.0932 1.69-2.2429.848-4.6029 1.346-6.9972 1.476-.8697-.161-1.6965-.502-2.4276-1z" fill="#44c688"/><path d="m101.784 141.697c-.309-.714 2.499-1.975 3.285-2.094 1.444.084 2.866.398 4.212.928-1.723.864-3.569 1.458-5.474 1.761-.708-.056-1.397-.258-2.023-.595z" fill="#44c688"/><path d="m112.78 137.675c-.31-.571 1.88-1.833 2.499-2.023 1.195-.061 2.391.067 3.546.381-1.313.862-2.75 1.52-4.26 1.951-.611.027-1.219-.078-1.785-.309z" fill="#44c688"/><path d="m121.516 133.7c-.333-.5 1.595-1.809 2.142-2.023 1.08-.172 2.181-.172 3.261 0-1.164.882-2.457 1.58-3.832 2.071-.522.091-1.056.075-1.571-.048z" fill="#44c688"/><path d="m129.655 129.25c-.31-.405 1.285-1.642 1.761-1.856.938-.15 1.894-.15 2.832 0-.962.827-2.046 1.501-3.213 1.999-.465.048-.935 0-1.38-.143z" fill="#44c688"/><path d="m75.5091 145.863c-.1428-1.047 3.9032-1.666 4.9504-1.547 1.8278.614 3.5469 1.513 5.0932 2.665-2.5121.518-5.0888.646-7.6398.381-.8973-.326-1.7162-.837-2.4038-1.499z" fill="#44c688"/><path d="m78.0088 23.1256c2.7561 2.4422 6.0017 4.2679 9.52 5.355-1.1717-3.4825-1.6251-7.1664-1.3328-10.829 0-.2618-8.211-.1428-9.52-6.8782-.357-1.35661-1.5232 9.1154 1.3328 12.3522z" fill="#c1272d"/><g fill="#f15a24"><path d="m50.0674 178.73c.1156-1.098.4615-2.16 1.0152-3.115.5536-.956 1.3025-1.784 2.1978-2.43l.2618-.143c-.6756-.154-1.3588-.274-2.0468-.357-9.7818-1.452-12.2808 4.379-12.7806 10.924v1.119c1.1156-1.969 2.7694-3.579 4.7675-4.641 1.9981-1.063 4.2577-1.533 6.5137-1.357z"/><path d="m61.9917 176.541c-9.7342-5.903-15.2082-6.331-17.374 10.21 0 0 10.234-8.092 15.0892-2.737 5.2598 5.831 12.3998.452 8.6632-2.928-1.8923-1.819-4.0413-3.35-6.3784-4.545z"/><path d="m57.9674 178.516c-5.5216 3.665-5.5216 12.305-5.5216 12.305s10.0674-5.451 9.282-8.854c-.159-.909-.6139-1.74-1.2939-2.364s-1.5471-1.006-2.4665-1.087z"/><path d="m12.2242 110.519c.9275-.598 1.9706-.995 3.0614-1.163s2.2049-.104 3.2694.187h.2856c-.3018-.62-.6355-1.223-.9996-1.809-5.0932-8.4486-11.18598-6.735-16.61238-3.046-.333201.214-.618801.452-.904401.69 2.233091-.361 4.522861-.078 6.600971.815 2.07812.894 3.85851 2.361 5.13241 4.231z"/><path d="m22.5541 120.682c-3.5462-14.042-6.4022-19.468-19.96816-9.758 0 0 11.61436-3.332 12.94716 13.186.6188 7.806 8.1396 9.377 8.0444 4.331.0401-2.622-.3047-5.236-1.0234-7.759z"/><path d="m17.6043 113.161c-6.4498-1.523-12.78057 4.379-12.78057 4.379s9.92457-.333 11.11457 5.664c.6902 3.356 1.666-10.043 1.666-10.043z"/></g><path d="m224.306 90.2657c6.238-7.2457 13.737-13.3015 22.134-17.8738 8.191-4.1981 17.239-6.4539 26.442-6.5926l2.642 2.38h-1.381c-9.389-.6119-18.775 1.2424-27.227 5.3788-8.48 4.164-16.139 9.8239-22.61 16.7076z" fill="#29b36e"/><path d="m273.882 65.894c5.153.4851 10.197 1.7782 14.947 3.8318 4.716 2.0055 8.994 4.9164 12.59 8.568-3.828-3.3707-8.285-5.9509-13.114-7.5922-4.188-1.3235-8.503-2.201-12.876-2.618l-2.641-2.38z" fill="#6fd191"/><path d="m155.811 179.848c1.421-1.002 2.908-1.908 4.45-2.713 1.078-.547 2.182-1.039 3.309-1.475 1.118-.476 2.38-.833 3.403-1.214 4.577-1.402 9.294-2.296 14.066-2.666 9.469-.612 18.977-.237 28.369 1.119 9.318 1.372 18.699 2.27 28.108 2.689 9.423.481 18.865-.45 28.013-2.761-9.122 2.484-18.564 3.591-28.013 3.285-9.439-.243-18.861-.966-28.227-2.166-9.318-1.139-18.73-1.307-28.084-.5-4.633.418-9.206 1.344-13.637 2.761-1.095.381-2.19.738-3.237 1.214-1.063.439-2.104.932-3.118 1.475-2.01 1.072-3.894 2.366-5.616 3.856l-.762.666c.241-1.211.567-2.404.976-3.57z" fill="#c83ad7"/><path d="m100.284 68.6079c-9.0914 1.9992-7.6872 9.2106-7.6872 9.2106s2.8798-3.4748 18.7072-5.355c-3.768-.9963-7.453-2.2854-11.02-3.8556z" fill="#c1272d"/><path d="m147.338 202.887c-.3-2.001-.34-4.033-.119-6.045.202-2.051.642-4.072 1.309-6.021.671-1.961 1.565-3.838 2.666-5.593 1.147-1.728 2.479-3.324 3.975-4.76l.642-.595s-.904 2.879-.999 3.593c-.854.867-1.649 1.789-2.38 2.761-2.397 3.152-4.027 6.819-4.76 10.71-.367 1.961-.479 3.961-.334 5.95z" fill="#fba9ff"/><path d="m72.0104 150.694c-5.6159-6.678-9.5134-14.628-11.3526-23.157-.9752-4.453-1.3672-9.013-1.1662-13.566l.1904-3.404.476-3.379c.1644-1.122.3868-2.234.6664-3.332.2191-1.112.5052-2.208.8568-3.285 1.2675-4.3423 3.1083-8.4963 5.474-12.3521 1.1647-1.9313 2.4443-3.7911 3.8318-5.5692l2.1896-2.5703c.714-.8568 1.5708-1.6184 2.38-2.38 3.205-3.1458 6.7956-5.8727 10.6862-8.1159 3.8923-2.1998 8.0303-3.9333 12.3284-5.1646-4.2409 1.3586-8.3069 3.2119-12.1142 5.5216-3.7727 2.331-7.2354 5.1299-10.3054 8.33-.7378.8092-1.547 1.5708-2.2372 2.38l-2.1896 2.6418c-1.3083 1.7829-2.5084 3.6426-3.5938 5.5692-2.1934 3.8223-3.8662 7.9204-4.9742 12.1855-.3116 1.055-.558 2.128-.7378 3.213-.2159 1.078-.3747 2.166-.476 3.261l-.357 3.26v3.285c-.0572 4.371.4548 8.731 1.5232 12.971 2.1257 8.462 6.3586 16.248 12.3046 22.634l.952 1.023s-3.57.071-4.3554 0z" fill="#ff737d"/><path d="m126.323 167.021c-4.689 1.047-9.476 1.589-14.28 1.618-4.847-.136-9.651-.937-14.2802-2.38-4.6323-1.375-9.1013-3.251-13.328-5.593-4.2855-2.345-8.1996-5.312-11.6144-8.806l-.9996-1.047h4.2364c2.822 3.017 6.0218 5.657 9.52 7.854 4.0598 2.457 8.3777 4.461 12.8758 5.974 4.421 1.611 9.041 2.612 13.733 2.975 4.72.292 9.458.092 14.137-.595z" fill="#fff4c0"/></svg>