<svg width="48" height="48" fill="none" xmlns="http://www.w3.org/2000/svg"><path d="M42.857 24h-12v3.428h8.229c-1.2 5.143-4.972 9.43-9.943 11.143L9.429 18.857c2.057-6 7.885-10.286 14.571-10.286 5.143 0 9.771 2.572 12.686 6.515l2.571-2.229C35.83 8.23 30.343 5.143 24 5.143c-8.914 0-16.457 6.343-18.343 14.743l22.629 22.628c8.228-2.057 14.571-9.6 14.571-18.514zm-37.714.171c0 4.8 1.886 9.429 5.486 13.029 3.6 3.6 8.4 5.486 13.028 5.486L5.143 24.17z" fill="#fff"/><path d="M24 0C10.8 0 0 10.8 0 24s10.8 24 24 24 24-10.8 24-24S37.2 0 24 0zM10.629 37.371c-3.6-3.6-5.486-8.4-5.486-13.028l18.686 18.514c-4.8-.171-9.6-1.886-13.2-5.486zm17.485 4.972L5.657 19.886C7.543 11.486 15.086 5.143 24 5.143c6.343 0 11.829 3.086 15.257 7.714l-2.571 2.229C33.77 11.143 29.143 8.57 24 8.57c-6.686 0-12.343 4.286-14.571 10.286l19.714 19.714c4.971-1.714 8.743-6 9.943-11.142h-8.229V24h12c0 8.914-6.343 16.457-14.743 18.343z" fill="#639"/></svg>