<svg width="43" height="48" viewBox="0 0 43 48" fill="none" xmlns="http://www.w3.org/2000/svg">
<path fill-rule="evenodd" clip-rule="evenodd" d="M40.99 30.79V15.66C40.9899 14.6946 40.7381 13.746 40.2593 12.9077C39.7806 12.0694 39.0914 11.3705 38.26 10.88L24.26 2.65002C23.2394 2.04939 22.0743 1.73851 20.8902 1.75084C19.7061 1.76318 18.5478 2.09826 17.54 2.72002L5.09996 10.4C4.06029 11.0427 3.20217 11.9405 2.6071 13.0081C2.01203 14.0757 1.69976 15.2777 1.69995 16.5V31.98C1.6987 33.1936 2.01568 34.3863 2.61929 35.4391C3.2229 36.4919 4.09202 37.368 5.13996 37.98L18.09 45.55C18.9373 46.0468 19.8998 46.3137 20.882 46.3242C21.8642 46.3347 22.8321 46.0885 23.69 45.61L38.03 37.61C38.9267 37.1088 39.6737 36.3776 40.194 35.4917C40.7142 34.6059 40.989 33.5974 40.99 32.57V30.8V30.79Z" fill="#FF4088"/>
<path fill-rule="evenodd" clip-rule="evenodd" d="M20.97 0.0800684H21.35L21.38 0.0900684H21.51L21.55 0.100068H21.65L21.68 0.110068H21.78L21.82 0.120068H21.89L21.92 0.130068H21.99L22.02 0.140068H22.05L22.09 0.150068H22.12L22.16 0.160068H22.19L22.22 0.170068H22.26L22.29 0.180068H22.32L22.36 0.190068H22.39L22.42 0.200068H22.46L22.49 0.220068H22.56L22.59 0.230068L22.62 0.240068H22.66L22.69 0.260068H22.72L22.76 0.270068H22.79L22.82 0.290068H22.86L22.89 0.300068L22.92 0.310068H22.96V0.320068H22.99L23.02 0.340068H23.05L23.09 0.350068L23.12 0.360068L23.16 0.370068L23.19 0.380068L23.22 0.390068L23.26 0.400068L23.29 0.410068L23.32 0.420068L23.36 0.430068L23.39 0.440068L23.42 0.450068L23.45 0.460068L23.49 0.470068L23.52 0.480068L23.55 0.490068L23.59 0.500068L23.62 0.520068H23.65L23.68 0.540068H23.71V0.550068L23.75 0.560068L23.78 0.570068L23.81 0.590068H23.85L23.88 0.610068L23.91 0.620068L23.94 0.640068H23.97L24.01 0.660068L24.04 0.670068L24.07 0.690068L24.11 0.700068L24.14 0.720068H24.17L24.2 0.740068L24.23 0.760068H24.26V0.770068L24.3 0.780068L24.33 0.800068L24.36 0.810068L24.39 0.830068L24.42 0.840068L24.45 0.860068L24.48 0.870068L24.52 0.890068L24.55 0.900068L24.58 0.920068L24.61 0.930068L24.64 0.950068L24.67 0.960068L24.7 0.980068L24.74 1.00007L24.77 1.01007L24.8 1.03007L24.83 1.04007L24.86 1.06007L24.89 1.08007L24.92 1.10007L24.95 1.11007L24.98 1.13007L25.01 1.15007L25.04 1.17007L25.07 1.19007L39.09 9.42007L39.11 9.44007L39.14 9.45007L39.17 9.47007L39.19 9.48007L39.22 9.50007L39.24 9.51007L39.27 9.53007L39.29 9.54007L39.32 9.56007L39.34 9.58007L39.37 9.59007L39.39 9.61007L39.42 9.63007L39.44 9.64007L39.47 9.66007L39.49 9.67007L39.51 9.69007L39.54 9.71007L39.56 9.72007L39.58 9.74007L39.61 9.76007L39.63 9.77007L39.66 9.79007L39.68 9.81007L39.7 9.82007L39.73 9.84007L39.75 9.86007L39.77 9.87007L39.8 9.89007L39.82 9.91007L39.85 9.93007L39.87 9.95007L39.89 9.97007L39.92 9.99007L39.96 10.0201L40.01 10.0601L40.05 10.1001L40.1 10.1301L40.14 10.1701L40.19 10.2101L40.23 10.2501L40.27 10.2901L40.32 10.3301L40.36 10.3601L40.4 10.4001L40.44 10.4401L40.49 10.4801L40.53 10.5301L40.57 10.5701L40.61 10.6101L40.65 10.6501L40.69 10.6901L40.73 10.7401L40.77 10.7801L40.81 10.8201L40.84 10.8701L40.88 10.9101L40.92 10.9501L40.96 11.0001L41 11.0401L41.03 11.0901L41.07 11.1301L41.11 11.1801L41.14 11.2201L41.17 11.2701L41.21 11.3101V11.3201L41.24 11.3601L41.28 11.4101L41.31 11.4601L41.35 11.5001L41.38 11.5501L41.41 11.6001L41.44 11.6501L41.47 11.7001L41.51 11.7401L41.54 11.7901L41.57 11.8401L41.6 11.8901L41.63 11.9401L41.66 11.9901L41.69 12.0401L41.72 12.0901L41.75 12.1401L41.77 12.1901L41.8 12.2401L41.83 12.2901L41.86 12.3501L41.88 12.4001L41.91 12.4501L41.93 12.5001L41.96 12.5501L41.98 12.6101L42.01 12.6601L42.03 12.7101L42.05 12.7701L42.08 12.8201L42.1 12.8701L42.12 12.9301L42.14 12.9801L42.16 13.0301V13.0401L42.18 13.0901L42.2 13.1401L42.22 13.2001L42.24 13.2501L42.26 13.3101L42.28 13.3601L42.3 13.4201L42.31 13.4701L42.33 13.5301L42.35 13.5801L42.36 13.6401L42.38 13.6901V13.7001L42.4 13.7501L42.41 13.8101L42.43 13.8601V13.9201H42.44L42.45 13.9801L42.47 14.0301V14.0401L42.48 14.0901L42.49 14.1501L42.5 14.2101L42.51 14.2601L42.53 14.3201V14.3801L42.55 14.4301V14.5001L42.56 14.5501V14.5601L42.57 14.6101V14.6701L42.58 14.7001V14.7301L42.59 14.7601V14.8201L42.6 14.8501V14.9101L42.61 14.9401V15.0001L42.62 15.0301V15.1501L42.63 15.1801V33.0801L42.62 33.1201V33.2101L42.61 33.2401V33.3001L42.6 33.3301V33.3901L42.59 33.4201V33.4901L42.58 33.5201V33.5501H42.57V33.6101L42.56 33.6401V33.6701L42.55 33.7001V33.7301L42.54 33.7601V33.7901L42.53 33.8201V33.8501L42.52 33.8801V33.9101L42.51 33.9401V33.9701L42.5 34.0001L42.49 34.0301V34.0601L42.48 34.0901V34.1201L42.47 34.1501L42.46 34.1801V34.2101L42.45 34.2401L42.44 34.2701V34.3001L42.43 34.3301L42.42 34.3601L42.41 34.3901V34.4201L42.39 34.4501V34.4801L42.38 34.5101L42.37 34.5401V34.5701L42.35 34.6001V34.6301L42.34 34.6501L42.33 34.6801L42.32 34.7101L42.31 34.7401L42.3 34.7701L42.29 34.8001L42.28 34.8301L42.27 34.8601L42.26 34.8901L42.25 34.9201L42.24 34.9501L42.23 34.9801L42.22 35.0101L42.21 35.0401L42.2 35.0701L42.19 35.0901L42.18 35.1201L42.17 35.1501L42.16 35.1801L42.15 35.2101L42.14 35.2401L42.13 35.2701L42.12 35.3001L42.1 35.3201V35.3501L42.08 35.3801L42.07 35.4101L42.06 35.4401L42.05 35.4701L42.03 35.4901V35.5201H42.02L42.01 35.5501L42 35.5801L41.98 35.6101V35.6301H41.97L41.96 35.6601L41.95 35.6901L41.93 35.7201L41.92 35.7401L41.91 35.7701L41.89 35.8001V35.8201H41.88L41.87 35.8501L41.85 35.8801L41.84 35.9101L41.83 35.9301L41.81 35.9601L41.8 35.9901L41.79 36.0201L41.77 36.0401L41.76 36.0701L41.74 36.1001L41.73 36.1301L41.71 36.1501L41.7 36.1801L41.68 36.2001L41.67 36.2301L41.65 36.2601L41.64 36.2801L41.62 36.3101L41.61 36.3401L41.59 36.3601L41.58 36.3901L41.56 36.4201L41.55 36.4401L41.53 36.4701L41.51 36.4901L41.5 36.5201L41.48 36.5401L41.46 36.5701L41.45 36.6001L41.43 36.6201L41.41 36.6501L41.4 36.6701L41.38 36.7001L41.36 36.7201L41.34 36.7501L41.33 36.7701L41.31 36.7901L41.29 36.8201L41.28 36.8401L41.26 36.8701L41.24 36.8901L41.22 36.9201L41.2 36.9401L41.19 36.9701L41.17 36.9901L41.15 37.0201L41.13 37.0401L41.11 37.0601L41.09 37.0901L41.08 37.1101L41.06 37.1401L41.04 37.1601L41.02 37.1801L41 37.2101L40.98 37.2301L40.96 37.2501L40.94 37.2801L40.92 37.3001L40.9 37.3201L40.88 37.3501L40.86 37.3701L40.84 37.4001L40.82 37.4201L40.8 37.4401L40.78 37.4701L40.76 37.4901L40.74 37.5101L40.72 37.5401L40.7 37.5601L40.68 37.5801L40.66 37.6001L40.64 37.6301L40.61 37.6501L40.59 37.6701L40.57 37.6901L40.55 37.7201L40.53 37.7401L40.51 37.7601L40.49 37.7801L40.47 37.8001L40.44 37.8301L40.42 37.8501L40.4 37.8701L40.38 37.8901L40.35 37.9101L40.33 37.9301L40.31 37.9501L40.29 37.9701L40.26 38.0001L40.24 38.0201L40.22 38.0401L40.2 38.0601L40.17 38.0801L40.15 38.1001L40.13 38.1201L40.1 38.1401L40.08 38.1601L40.05 38.1801L40.03 38.2001L40.01 38.2201L39.98 38.2401L39.96 38.2601L39.94 38.2801L39.91 38.3001L39.89 38.3201L39.86 38.3401L39.84 38.3601L39.81 38.3801L39.79 38.4001L39.76 38.4201L39.74 38.4401L39.72 38.4601L39.69 38.4801L39.67 38.4901L39.64 38.5101L39.62 38.5301L39.59 38.5501L39.57 38.5601L39.54 38.5801L39.52 38.6001L39.49 38.6201L39.46 38.6401L39.44 38.6601L39.41 38.6701L39.38 38.6901L39.36 38.7101L39.33 38.7301L39.31 38.7501L39.28 38.7601L39.25 38.7801L39.23 38.7901L39.2 38.8101L39.18 38.8301L39.15 38.8401L39.12 38.8601L39.1 38.8801L39.07 38.9001L39.04 38.9101L39.01 38.9301L38.99 38.9401L38.96 38.9601L38.93 38.9801L38.9 38.9901L38.88 39.0101L38.85 39.0201L38.82 39.0401L24.48 47.0301L24.46 47.0401L24.43 47.0601L24.4 47.0701L24.37 47.0901L24.35 47.1001L24.32 47.1101L24.29 47.1301L24.27 47.1401L24.24 47.1601H24.22L24.19 47.1801L24.16 47.2001H24.14L24.11 47.2201L24.08 47.2301L24.06 47.2501H24.03V47.2601L24 47.2701L23.98 47.2801L23.95 47.3001L23.92 47.3101L23.9 47.3201L23.87 47.3301L23.84 47.3501H23.82L23.79 47.3701L23.76 47.3801L23.73 47.3901L23.71 47.4001L23.68 47.4201H23.65L23.62 47.4401H23.6L23.57 47.4601H23.54V47.4701L23.51 47.4801L23.48 47.4901L23.45 47.5001L23.43 47.5101L23.4 47.5201L23.37 47.5301L23.34 47.5401L23.31 47.5501L23.29 47.5601H23.26V47.5701H23.23L23.2 47.5901H23.18L23.15 47.6001L23.12 47.6101L23.09 47.6201L23.06 47.6301L23.01 47.6501H23L22.95 47.6701L22.89 47.6801L22.84 47.7001H22.83L22.78 47.7101L22.72 47.7301L22.66 47.7401L22.61 47.7601H22.55L22.49 47.7801L22.43 47.7901L22.37 47.8101H22.31L22.26 47.8301H22.2L22.14 47.8501H22.08L22.03 47.8701H21.97L21.91 47.8801L21.85 47.8901L21.79 47.9001H21.73L21.68 47.9101H21.61L21.56 47.9201H21.5L21.44 47.9301H21.38L21.32 47.9401H20.47L20.41 47.9301H20.35L20.29 47.9201H20.23V47.9101H20.17L20.12 47.9001H20.05L20 47.8901L19.94 47.8801L19.88 47.8701L19.82 47.8601H19.76L19.71 47.8401H19.65L19.6 47.8201H19.59L19.54 47.8101L19.48 47.8001L19.42 47.7901L19.37 47.7801H19.36L19.31 47.7601L19.25 47.7501L19.19 47.7301L19.14 47.7201H19.13L19.08 47.7001L19.02 47.6901L18.97 47.6701H18.96L18.91 47.6501H18.9L18.85 47.6401L18.79 47.6201L18.74 47.6001H18.73L18.68 47.5801H18.65L18.62 47.5701L18.59 47.5601L18.57 47.5501L18.54 47.5401L18.51 47.5301L18.48 47.5201L18.45 47.5101L18.43 47.5001L18.4 47.4901L18.37 47.4701H18.34L18.31 47.4501H18.29V47.4401L18.26 47.4301L18.23 47.4201L18.2 47.4101L18.18 47.4001L18.15 47.3901L18.12 47.3701H18.09L18.06 47.3501L18.03 47.3401L18.01 47.3301L17.98 47.3201L17.95 47.3001H17.93V47.2901L17.9 47.2801L17.87 47.2701L17.84 47.2501H17.82V47.2401L17.79 47.2301L17.76 47.2201L17.74 47.2001L17.71 47.1901L17.68 47.1801L17.66 47.1601L17.63 47.1501L17.6 47.1301L17.57 47.1201L17.55 47.1101L17.52 47.0901L17.49 47.0801L17.47 47.0601L17.44 47.0501L17.42 47.0301L17.39 47.0201L17.36 47.0101L17.33 46.9901L17.31 46.9801L17.28 46.9601L17.25 46.9501L4.29 39.3801L4.26 39.3601L4.23 39.3401L4.2 39.3301L4.17 39.3101L4.14 39.2901L4.11 39.2701L4.08 39.2501L4.05 39.2301L4.01 39.2101L3.99 39.1901L3.96 39.1801L3.93 39.1601L3.9 39.1401L3.87 39.1101L3.84 39.0901L3.81 39.0701L3.78 39.0501L3.75 39.0301L3.73 39.0101L3.69 38.9901L3.67 38.9701L3.64 38.9501L3.61 38.9301L3.58 38.9101L3.55 38.8901L3.52 38.8601L3.49 38.8401L3.47 38.8201L3.44 38.8001L3.41 38.7801L3.38 38.7601L3.35 38.7301L3.33 38.7101L3.3 38.6901L3.27 38.6701L3.24 38.6501L3.22 38.6201L3.19 38.6001L3.16 38.5801L3.13 38.5601L3.11 38.5401L3.08 38.5101L3.05 38.4901L3.03 38.4701L3 38.4401L2.97 38.4201L2.95 38.4001L2.92 38.3801L2.9 38.3501L2.87 38.3301L2.84 38.3101L2.82 38.2801L2.79 38.2601L2.77 38.2301L2.74 38.2101L2.71 38.1901L2.69 38.1601L2.66 38.1401L2.64 38.1101L2.61 38.0901L2.59 38.0601L2.56 38.0401L2.54 38.0101L2.51 38.0001L2.49 37.9701L2.46 37.9501L2.44 37.9201L2.42 37.9001L2.39 37.8701L2.37 37.8501L2.34 37.8201L2.32 37.8001L2.3 37.7701L2.27 37.7401L2.25 37.7201L2.23 37.6901L2.2 37.6701L2.18 37.6401L2.16 37.6101L2.13 37.5901L2.11 37.5601L2.09 37.5301L2.06 37.5101L2.04 37.4801L2.02 37.4501L2 37.4301L1.97 37.4001L1.95 37.3801L1.93 37.3501L1.91 37.3001L1.88 37.2701L1.86 37.2501L1.84 37.2201L1.82 37.1901L1.8 37.1601L1.78 37.1401L1.76 37.1101L1.74 37.0801L1.71 37.0501L1.69 37.0301L1.67 37.0001L1.65 36.9701L1.63 36.9401L1.61 36.9201L1.59 36.8901L1.57 36.8601L1.55 36.8301L1.53 36.8001L1.51 36.7701L1.49 36.7401L1.47 36.7201L1.45 36.6901L1.43 36.6601L1.42 36.6301L1.4 36.6001L1.38 36.5701L1.36 36.5401L1.34 36.5101L1.32 36.4801L1.3 36.4501L1.28 36.4301L1.27 36.4001L1.25 36.3701L1.23 36.3401L1.21 36.3101L1.19 36.2801L1.18 36.2501L1.16 36.2201L1.14 36.1901L1.12 36.1601L1.1 36.1301L1.09 36.1001L1.07 36.0701L1.06 36.0401L1.04 36.0001L1.02 35.9701L1.01 35.9401L0.99 35.9101L0.98 35.8801L0.96 35.8501L0.94 35.8201L0.93 35.7901L0.91 35.7601L0.9 35.7201L0.88 35.7001L0.87 35.6601L0.85 35.6301L0.84 35.6001L0.82 35.5701L0.81 35.5401L0.79 35.5101L0.78 35.4801L0.76 35.4501V35.4101H0.74L0.73 35.3801L0.71 35.3501L0.7 35.3201L0.68 35.2901V35.2601H0.67L0.66 35.2301L0.64 35.2001V35.1601L0.62 35.1301L0.61 35.1001L0.59 35.0701V35.0401H0.58V35.0001L0.57 34.9701L0.55 34.9401V34.9001H0.53L0.52 34.8701L0.51 34.8401L0.5 34.8101L0.49 34.7701L0.47 34.7401V34.7101L0.45 34.6701L0.44 34.6401L0.43 34.6101L0.42 34.5701L0.41 34.5401L0.39 34.5101V34.4701L0.37 34.4401V34.4101L0.35 34.3701V34.3401L0.33 34.3101V34.2701L0.31 34.2401V34.2101L0.3 34.1701L0.29 34.1401L0.28 34.1101V34.0701H0.27V34.0401L0.25 34.0101V33.9701L0.24 33.9401V33.9101H0.23V33.8701L0.22 33.8401L0.21 33.8101L0.2 33.7701V33.7401L0.18 33.7101V33.6701L0.17 33.6401V33.6101L0.16 33.5701V33.5301H0.15V33.5001L0.14 33.4601L0.13 33.4301V33.3901L0.12 33.3601V33.3201L0.11 33.3001V33.2701L0.1 33.2401V33.2001L0.09 33.1701V33.1301L0.08 33.1001V33.0701L0.07 33.0301V33.0001L0.06 32.9601V32.8901H0.05V32.8201L0.04 32.7801V32.7101H0.03V32.6401L0.02 32.6101V32.5001L0.01 32.4701V32.2201L0 32.1801V16.0601L0.01 16.0201V15.8801L0.02 15.8401V15.7401L0.03 15.7001V15.6301L0.04 15.6001V15.5601L0.05 15.5201V15.4601L0.06 15.4201V15.3901L0.07 15.3501V15.3101L0.08 15.2801V15.2101L0.09 15.1701V15.1401H0.11V15.1001L0.12 15.0701V15.0301L0.14 15.0001L0.15 14.9601V14.9301L0.16 14.9001V14.8601L0.18 14.8301V14.7901L0.19 14.7601V14.7301L0.21 14.6901V14.6201L0.22 14.5901L0.23 14.5601L0.24 14.5201V14.4901L0.26 14.4501V14.4201L0.27 14.3801L0.28 14.3501V14.3201L0.3 14.2801V14.2501L0.32 14.2101V14.1801L0.33 14.1501L0.34 14.1101L0.35 14.0801L0.36 14.0401L0.37 14.0101L0.38 13.9801L0.39 13.9401L0.4 13.9101L0.41 13.8801L0.42 13.8501V13.8401L0.43 13.8101L0.45 13.7801V13.7401L0.47 13.7101V13.6801L0.49 13.6501V13.6101L0.51 13.5801L0.52 13.5501L0.53 13.5101L0.54 13.4801L0.56 13.4501V13.4201L0.58 13.3901L0.59 13.3501L0.6 13.3201L0.62 13.2901L0.63 13.2601L0.64 13.2201L0.66 13.1901L0.67 13.1601L0.69 13.1201V13.0901H0.7L0.71 13.0601L0.73 13.0201V13.0001H0.74L0.75 12.9701L0.77 12.9401L0.78 12.9101L0.8 12.8701L0.81 12.8401L0.82 12.8101L0.84 12.7801L0.85 12.7501L0.87 12.7201L0.88 12.6901L0.9 12.6601L0.91 12.6201L0.93 12.5901L0.94 12.5601L0.96 12.5301L0.97 12.5001L0.99 12.4701L1.01 12.4401L1.02 12.4101L1.04 12.3801L1.06 12.3501L1.07 12.3201L1.09 12.2901L1.1 12.2601L1.12 12.2201L1.14 12.2001L1.15 12.1701L1.17 12.1301L1.19 12.1001L1.21 12.0801L1.22 12.0501L1.24 12.0201L1.26 11.9901L1.28 11.9601L1.3 11.9301L1.31 11.9001L1.33 11.8701L1.35 11.8401L1.37 11.8101L1.39 11.7801L1.41 11.7501L1.43 11.7201L1.44 11.6901L1.46 11.6601L1.48 11.6301L1.5 11.6101L1.52 11.5801L1.54 11.5501L1.56 11.5201L1.58 11.4901L1.6 11.4601L1.62 11.4301L1.64 11.4001L1.66 11.3801L1.68 11.3501L1.7 11.3201L1.72 11.2901L1.74 11.2601L1.76 11.2401L1.78 11.2101L1.8 11.1801L1.82 11.1501L1.84 11.1301L1.87 11.1001L1.89 11.0701L1.91 11.0501L1.93 11.0201L1.96 10.9901L1.98 10.9601L2 10.9401L2.02 10.9101L2.04 10.8801L2.07 10.8601L2.09 10.8301L2.11 10.8001L2.13 10.7801L2.16 10.7501L2.18 10.7201L2.2 10.6901L2.22 10.6701L2.25 10.6401L2.27 10.6201L2.29 10.5901L2.32 10.5601L2.34 10.5401L2.36 10.5101L2.39 10.4901L2.41 10.4601L2.43 10.4301L2.46 10.4101L2.49 10.3801L2.51 10.3601L2.53 10.3301L2.56 10.3101L2.58 10.2801L2.61 10.2601L2.64 10.2301L2.66 10.2101L2.68 10.1801L2.71 10.1601L2.73 10.1401L2.76 10.1101L2.78 10.0901L2.81 10.0601L2.84 10.0401L2.86 10.0101L2.89 9.99007L2.91 9.97007L2.94 9.94007L2.97 9.92007L2.99 9.90007L3.02 9.87007L3.04 9.85007L3.07 9.83007L3.1 9.80007L3.13 9.78007L3.15 9.76007L3.18 9.74007L3.21 9.71007L3.23 9.69007L3.26 9.67007L3.29 9.65007L3.32 9.63007L3.34 9.60007L3.37 9.58007L3.4 9.56007L3.43 9.54007L3.46 9.52007L3.48 9.50007L3.51 9.47007L3.54 9.45007L3.57 9.43007L3.6 9.41007L3.62 9.39007L3.65 9.37007L3.68 9.35007L3.71 9.33007L3.74 9.31007L3.77 9.28007L3.8 9.26007L3.83 9.24007L3.86 9.22007L3.89 9.20007L3.92 9.19007L3.94 9.17007L3.97 9.15007L4 9.12007L4.03 9.11007L4.07 9.09007L4.09 9.07007L4.12 9.05007L4.15 9.03007L4.18 9.01007L4.22 8.99007L16.65 1.32007L16.68 1.31007L16.71 1.29007L16.74 1.27007L16.77 1.25007L16.8 1.23007L16.83 1.22007L16.86 1.20007L16.89 1.18007L16.92 1.16007L16.95 1.15007L16.98 1.13007L17.02 1.11007L17.05 1.10007L17.08 1.08007L17.11 1.06007L17.14 1.04007L17.17 1.03007L17.2 1.01007L17.23 1.00007L17.27 0.980068L17.29 0.960068L17.33 0.950068L17.36 0.930068L17.39 0.920068L17.42 0.910068L17.45 0.890068L17.49 0.870068L17.52 0.860068L17.55 0.850068L17.58 0.830068L17.61 0.820068L17.64 0.800068L17.68 0.790068L17.71 0.780068L17.74 0.760068L17.77 0.750068L17.8 0.730068H17.84V0.700068L17.87 0.690068L17.9 0.670068H17.94V0.660068L17.97 0.650068L18 0.640068L18.03 0.620068H18.07V0.610068L18.1 0.600068L18.13 0.590068L18.17 0.580068L18.2 0.560068H18.23L18.26 0.540068L18.3 0.530068L18.33 0.520068L18.36 0.510068L18.4 0.500068L18.43 0.490068L18.46 0.470068H18.5L18.53 0.450068H18.56L18.6 0.440068L18.63 0.430068L18.66 0.420068L18.69 0.410068L18.73 0.400068L18.76 0.390068L18.79 0.380068L18.83 0.370068L18.86 0.360068L18.89 0.350068H18.91L18.95 0.330068H18.98L19.02 0.320068L19.05 0.310068H19.09L19.11 0.300068L19.14 0.290068L19.18 0.280068H19.21L19.24 0.270068L19.27 0.260068H19.31L19.34 0.250068L19.37 0.240068L19.41 0.230068H19.44L19.48 0.220068H19.51L19.55 0.210068H19.58V0.200068H19.61L19.65 0.190068H19.68L19.72 0.180068H19.75L19.78 0.170068H19.82L19.85 0.160068H19.92V0.150068H19.99L20.02 0.140068H20.09L20.13 0.130068H20.19L20.23 0.120068H20.3L20.33 0.110068H20.43L20.47 0.100068H20.69L20.72 0.0900684H20.97V0.0700684V0.0800684ZM20.94 3.42007H20.76L20.74 3.43007H20.61L20.58 3.44007H20.52L20.5 3.45007H20.44L20.42 3.46007H20.36L20.34 3.47007H20.28L20.26 3.48007H20.22L20.2 3.49007H20.16L20.14 3.50007H20.12L20.1 3.51007H20.06L20.04 3.52007H20L19.98 3.53007H19.94L19.92 3.54007H19.91L19.89 3.55007H19.87L19.85 3.56007H19.83L19.81 3.57007H19.79L19.77 3.58007H19.75L19.73 3.59007H19.71L19.69 3.60007H19.67L19.65 3.61007H19.63L19.61 3.62007L19.59 3.63007H19.57L19.55 3.64007H19.53L19.51 3.65007L19.49 3.66007H19.48L19.46 3.67007L19.44 3.68007H19.42L19.4 3.69007L19.38 3.70007H19.36L19.34 3.71007H19.32L19.3 3.73007H19.28L19.26 3.74007H19.24L19.22 3.76007H19.2L19.18 3.77007H19.16L19.14 3.79007H19.12L19.1 3.80007L19.09 3.81007H19.07L19.05 3.83007H19.03L19.01 3.84007L18.99 3.85007L18.97 3.86007L18.95 3.87007H18.93L18.92 3.89007H18.9L18.88 3.90007L18.86 3.91007L18.84 3.92007L18.82 3.93007L18.8 3.94007L18.78 3.95007H18.77L18.75 3.97007H18.73L18.71 4.00007H18.69L18.67 4.02007H18.65L18.64 4.04007H18.62L18.6 4.06007H18.58L18.56 4.08007H18.55L18.53 4.10007L18.51 4.11007L18.49 4.12007L18.47 4.13007L18.45 4.14007L18.44 4.15007L18.42 4.17007H18.4L5.98 11.8301L5.96 11.8501H5.94L5.92 11.8701L5.9 11.8801L5.88 11.9001H5.86L5.84 11.9201L5.83 11.9301L5.81 11.9501H5.79L5.77 11.9701L5.75 11.9801L5.73 12.0001H5.72L5.7 12.0201L5.68 12.0301L5.66 12.0501H5.64L5.63 12.0701L5.61 12.0801L5.59 12.0901L5.58 12.1101L5.56 12.1201L5.54 12.1301L5.52 12.1501L5.51 12.1601L5.49 12.1701L5.47 12.1901L5.45 12.2001L5.44 12.2201H5.41L5.39 12.2401L5.38 12.2601L5.36 12.2701L5.34 12.2801L5.33 12.3001L5.31 12.3101L5.29 12.3201L5.28 12.3401L5.26 12.3501L5.24 12.3701L5.23 12.3801L5.21 12.3901L5.2 12.4101L5.18 12.4201L5.16 12.4401L5.15 12.4501L5.13 12.4701L5.11 12.4801L5.1 12.5001L5.08 12.5101L5.07 12.5301L5.05 12.5401L5.03 12.5601L5.02 12.5701L5 12.5901L4.99 12.6001L4.97 12.6201L4.96 12.6301L4.94 12.6501L4.93 12.6601L4.91 12.6801L4.9 12.6901L4.88 12.7101L4.87 12.7301L4.85 12.7401L4.84 12.7601L4.82 12.7701L4.81 12.7901L4.79 12.8101L4.78 12.8201L4.76 12.8401L4.75 12.8501L4.73 12.8701L4.72 12.8901L4.7 12.9001L4.69 12.9201L4.68 12.9301L4.66 12.9501L4.65 12.9701L4.63 12.9801L4.62 13.0001L4.61 13.0201L4.59 13.0401L4.58 13.0501L4.57 13.0701L4.55 13.0901L4.54 13.1001L4.52 13.1201V13.1401L4.5 13.1601L4.49 13.1701L4.47 13.1901L4.46 13.2101L4.45 13.2301L4.43 13.2401L4.42 13.2601L4.41 13.2801L4.4 13.3001L4.38 13.3101V13.3301L4.36 13.3501L4.35 13.3701L4.33 13.3801V13.4001L4.31 13.4201L4.3 13.4401L4.29 13.4601L4.27 13.4701V13.4901L4.25 13.5101L4.24 13.5301L4.23 13.5501L4.22 13.5701L4.21 13.5801L4.19 13.6001V13.6201L4.17 13.6401L4.16 13.6601L4.15 13.6801L4.14 13.7001L4.13 13.7101L4.12 13.7301L4.1 13.7501V13.7701L4.08 13.7901V13.8101L4.06 13.8301L4.05 13.8501L4.04 13.8601L4.03 13.8801L4.02 13.9001L4.01 13.9201L4 13.9401L3.99 13.9601L3.98 13.9801L3.97 14.0001L3.96 14.0201L3.95 14.0401L3.94 14.0601L3.93 14.0801L3.92 14.1001L3.91 14.1201L3.9 14.1401L3.89 14.1601L3.88 14.1801L3.87 14.1901V14.2101L3.85 14.2301V14.2501L3.84 14.2701L3.83 14.2901L3.82 14.3101L3.81 14.3301V14.3501L3.79 14.3701V14.3901L3.78 14.4101L3.77 14.4301L3.76 14.4501L3.75 14.4701V14.4901L3.73 14.5101V14.5301L3.72 14.5501L3.71 14.5701V14.5901L3.7 14.6101L3.69 14.6301V14.6601L3.67 14.6801V14.7001L3.66 14.7201V14.7401L3.65 14.7601L3.64 14.7801V14.8001L3.63 14.8201L3.62 14.8401V14.8601L3.61 14.8801L3.6 14.9001V14.9201L3.59 14.9401L3.58 14.9601V14.9901L3.57 15.0101V15.0301L3.56 15.0501L3.55 15.0701V15.0901L3.54 15.1101V15.1301L3.53 15.1501V15.1701L3.52 15.2001V15.2201L3.51 15.2401V15.2601L3.5 15.2801V15.3001L3.49 15.3201V15.3401L3.48 15.3701V15.3901L3.47 15.4101V15.4501L3.46 15.4701V15.5201L3.45 15.5401V15.5601L3.44 15.5801V15.6301L3.43 15.6501V15.6901L3.42 15.7101V15.7601L3.41 15.7801V15.8401L3.4 15.8701V15.9301L3.39 15.9501V16.0201L3.38 16.0401V16.2001L3.37 16.2201V32.4401L3.38 32.4601V32.5401L3.39 32.5601V32.6201L3.4 32.6501V32.7101L3.41 32.7301V32.7801L3.42 32.8001V32.8401L3.43 32.8601V32.9001L3.44 32.9301V32.9701L3.45 32.9901V33.0001L3.46 33.0201V33.0401L3.47 33.0601V33.1001L3.48 33.1301V33.1501L3.49 33.1701V33.1901L3.5 33.2101V33.2301L3.51 33.2501V33.2701L3.53 33.2901V33.3301L3.54 33.3501V33.3801L3.55 33.4001V33.4201L3.56 33.4401V33.4601L3.57 33.4801V33.5001L3.58 33.5201L3.59 33.5401V33.5601L3.6 33.5801V33.6001L3.62 33.6201V33.6401L3.63 33.6601V33.6801L3.65 33.7001V33.7401L3.67 33.7601V33.7801L3.68 33.8001V33.8201L3.7 33.8401V33.8601L3.71 33.8801V33.9001L3.73 33.9201V33.9401L3.74 33.9601L3.75 33.9801V34.0001L3.77 34.0201V34.0401L3.78 34.0601V34.0801L3.8 34.1001V34.1201L3.81 34.1401L3.82 34.1601L3.83 34.1801L3.84 34.2001V34.2201L3.86 34.2401V34.2601L3.88 34.2801V34.2901L3.89 34.3101L3.9 34.3301L3.91 34.3501L3.92 34.3701L3.93 34.3901L3.94 34.4101L3.95 34.4301L3.96 34.4501L3.97 34.4601L3.98 34.4801L3.99 34.5001L4 34.5201L4.01 34.5401L4.03 34.5601V34.5801L4.05 34.5901V34.6101L4.07 34.6301V34.6501L4.09 34.6701V34.6901L4.11 34.7001V34.7201L4.13 34.7401L4.14 34.7601L4.15 34.7801L4.16 34.7901L4.18 34.8101V34.8301L4.2 34.8501V34.8601L4.22 34.8801L4.23 34.9001L4.24 34.9201L4.25 34.9401L4.27 34.9501V34.9701L4.29 34.9901L4.3 35.0101L4.32 35.0201V35.0401L4.34 35.0601L4.35 35.0801L4.37 35.0901V35.1101L4.39 35.1301L4.4 35.1401L4.42 35.1601V35.1801L4.44 35.2001L4.45 35.2101L4.47 35.2301L4.48 35.2501L4.49 35.2601L4.51 35.2801L4.52 35.3001L4.53 35.3101L4.55 35.3301L4.56 35.3501L4.58 35.3601V35.3801L4.6 35.3901L4.62 35.4101L4.63 35.4301L4.64 35.4401L4.66 35.4601L4.67 35.4701L4.68 35.4901L4.7 35.5101L4.71 35.5201L4.73 35.5401L4.74 35.5501L4.76 35.5701L4.77 35.5801L4.79 35.6001L4.8 35.6201L4.82 35.6301L4.83 35.6501L4.85 35.6601L4.86 35.6801L4.87 35.6901L4.89 35.7101L4.9 35.7201L4.92 35.7401L4.93 35.7501L4.95 35.7701L4.96 35.7801L4.98 35.8001L4.99 35.8101L5.01 35.8301L5.03 35.8401L5.04 35.8601L5.06 35.8701L5.07 35.8901L5.09 35.9001L5.1 35.9101L5.12 35.9301L5.14 35.9401L5.15 35.9601L5.17 35.9701L5.18 35.9901L5.2 36.0001L5.22 36.0101L5.23 36.0301L5.25 36.0401L5.27 36.0501L5.28 36.0701L5.3 36.0801L5.32 36.1001H5.33L5.35 36.1201L5.37 36.1401H5.38L5.4 36.1601L5.42 36.1801H5.44L5.45 36.2001L5.47 36.2101L5.49 36.2301L5.5 36.2401L5.52 36.2501L5.54 36.2701H5.56L5.58 36.2901L5.59 36.3001L5.61 36.3201H5.63L5.64 36.3401L5.66 36.3501L5.68 36.3701H5.7L5.72 36.3901L5.73 36.4001L5.75 36.4101L5.77 36.4301H5.79L5.81 36.4501H5.83L5.84 36.4701L5.86 36.4801L5.88 36.4901L5.9 36.5001L5.92 36.5201H5.94L5.96 36.5401L18.91 44.1201H18.93V44.1401H18.95L18.97 44.1501H18.98L19 44.1701H19.01L19.03 44.1801L19.04 44.1901H19.06L19.07 44.2101H19.09L19.1 44.2201H19.12L19.13 44.2401H19.15L19.16 44.2501H19.18V44.2701H19.2L19.22 44.2801H19.23L19.25 44.2901L19.26 44.3001H19.28L19.29 44.3101L19.31 44.3201H19.32L19.34 44.3301L19.35 44.3401H19.37L19.38 44.3501H19.4L19.41 44.3701H19.44L19.46 44.3801L19.47 44.3901H19.49L19.5 44.4001H19.52L19.53 44.4101L19.55 44.4201H19.56L19.58 44.4301H19.59L19.61 44.4401H19.62L19.64 44.4501H19.65L19.67 44.4601H19.68L19.71 44.4801H19.74L19.77 44.5001H19.81L19.84 44.5101L19.87 44.5201L19.9 44.5301L19.93 44.5401H19.96L19.99 44.5601H20.02L20.05 44.5701H20.08L20.12 44.5801L20.15 44.5901H20.18L20.21 44.6001H20.24L20.27 44.6101H20.3L20.33 44.6201H20.36L20.39 44.6301H20.43L20.46 44.6401H20.52L20.55 44.6501H20.65L20.68 44.6601H21.26L21.3 44.6501H21.36L21.39 44.6401H21.45L21.49 44.6301H21.52L21.55 44.6201H21.58L21.61 44.6101L21.64 44.6001H21.67L21.71 44.5901H21.74L21.77 44.5801L21.8 44.5701H21.83L21.86 44.5601L21.89 44.5501L21.92 44.5401H21.95L21.98 44.5201H22.01L22.05 44.5101L22.08 44.5001L22.09 44.4901H22.11L22.12 44.4801H22.15L22.17 44.4701H22.18L22.2 44.4601H22.22L22.23 44.4501H22.25L22.26 44.4401L22.28 44.4301H22.29L22.31 44.4201H22.32L22.34 44.4101H22.35L22.37 44.4001H22.38L22.4 44.3901L22.41 44.3801H22.43L22.44 44.3701H22.46L22.47 44.3601L22.49 44.3501H22.5L22.52 44.3401H22.53L22.55 44.3201H22.56L22.58 44.3101H22.59L22.61 44.3001L22.62 44.2901H22.64V44.2701H22.66L22.68 44.2601H22.69L22.71 44.2401H22.72L22.74 44.2301H22.75L22.77 44.2101H22.78L22.8 44.2001H22.81L22.83 44.1901L22.84 44.1801L22.86 44.1701L37.2 36.1701H37.22L37.24 36.1601L37.25 36.1501L37.27 36.1401L37.28 36.1301L37.3 36.1201H37.31L37.33 36.1001H37.34L37.36 36.0901L37.37 36.0801L37.39 36.0701L37.4 36.0601L37.42 36.0501L37.43 36.0401L37.45 36.0301L37.46 36.0201H37.48L37.49 36.0001H37.51V35.9801H37.53L37.55 35.9601L37.57 35.9401H37.59L37.6 35.9201H37.62L37.63 35.9001H37.64L37.66 35.8801H37.67L37.68 35.8601H37.7L37.71 35.8401H37.73L37.74 35.8201H37.75L37.77 35.8001L37.78 35.7901L37.79 35.7801L37.81 35.7701L37.82 35.7601L37.84 35.7501V35.7401L37.86 35.7301L37.88 35.7201V35.7101L37.9 35.6901H37.91L37.93 35.6701L37.94 35.6601L37.95 35.6501L37.97 35.6401V35.6201H37.99L38 35.6001L38.02 35.5901V35.5801L38.04 35.5701L38.05 35.5501H38.07V35.5301L38.09 35.5201L38.1 35.5101L38.12 35.4901V35.4801L38.14 35.4701L38.15 35.4601L38.16 35.4401H38.17L38.19 35.4201V35.4101L38.21 35.3901H38.22L38.23 35.3701L38.24 35.3601L38.26 35.3401L38.28 35.3201V35.3101L38.3 35.3001L38.31 35.2801L38.32 35.2701L38.33 35.2601L38.35 35.2401L38.37 35.2201V35.2101L38.39 35.1901L38.4 35.1801L38.41 35.1701L38.42 35.1501L38.43 35.1401L38.44 35.1301L38.45 35.1101H38.46L38.47 35.0901L38.48 35.0801L38.49 35.0601L38.5 35.0501L38.51 35.0301L38.52 35.0201L38.53 35.0101L38.54 34.9901L38.55 34.9801L38.56 34.9701L38.57 34.9501L38.58 34.9401L38.59 34.9301L38.6 34.9101L38.61 34.9001L38.62 34.8801L38.63 34.8701L38.64 34.8501L38.66 34.8301V34.8101L38.68 34.8001V34.7901L38.7 34.7701V34.7601L38.71 34.7401L38.72 34.7301V34.7101L38.74 34.7001V34.6801L38.76 34.6701V34.6501L38.77 34.6401L38.78 34.6201V34.6101L38.8 34.6001V34.5801L38.81 34.5701L38.82 34.5501L38.83 34.5401V34.5201L38.85 34.5101V34.4901L38.86 34.4801V34.4601L38.88 34.4501V34.4301L38.89 34.4201L38.9 34.4001V34.3901L38.92 34.3701V34.3601L38.93 34.3401V34.3201L38.95 34.3101V34.2901L38.96 34.2801V34.2601L38.97 34.2501L38.98 34.2301V34.2201L38.99 34.2001L39 34.1801V34.1701L39.01 34.1501V34.1401L39.03 34.1201V34.0901L39.04 34.0701L39.05 34.0601V34.0401L39.06 34.0301V34.0001L39.07 33.9801V33.9701L39.08 33.9501V33.9401L39.09 33.9201L39.1 33.9001V33.8901L39.11 33.8701V33.8601L39.12 33.8401V33.8201L39.13 33.8101L39.14 33.7901V33.7701L39.15 33.7601V33.7401L39.16 33.7301V33.6901L39.17 33.6801V33.6601L39.18 33.6501V33.6301L39.19 33.6101V33.5801L39.2 33.5601V33.5501L39.21 33.5301V33.5001L39.22 33.4801V33.4701L39.23 33.4501V33.4101L39.24 33.4001V33.3701L39.25 33.3501V33.3101L39.26 33.3001V33.2601L39.27 33.2501V33.2001L39.28 33.1801V33.1301L39.29 33.1101V33.0401L39.3 33.0301V32.9401L39.31 32.9201V32.8201L39.32 32.8001V15.3301L39.31 15.3101V15.2401L39.3 15.2201V15.1601L39.29 15.1401V15.1001L39.28 15.0601V15.0301L39.27 15.0001V14.9701L39.26 14.9401V14.9101L39.25 14.8801L39.24 14.8501L39.23 14.8201V14.7801L39.22 14.7501L39.21 14.7201V14.6901L39.19 14.6601V14.6301L39.18 14.6001L39.17 14.5701L39.16 14.5401L39.15 14.5101L39.14 14.4801L39.13 14.4501L39.12 14.4201L39.11 14.3901L39.1 14.3601L39.09 14.3301L39.08 14.3001L39.07 14.2701L39.05 14.2401V14.2101L39.03 14.1801L39.02 14.1501L39.01 14.1301L38.99 14.1001V14.0701L38.97 14.0401L38.96 14.0101L38.94 13.9801L38.93 13.9501L38.92 13.9301L38.9 13.9001L38.89 13.8701L38.87 13.8401L38.86 13.8101L38.84 13.7901L38.83 13.7601L38.81 13.7301L38.8 13.7101L38.78 13.6801L38.77 13.6501L38.75 13.6201L38.73 13.6001L38.72 13.5701L38.7 13.5501L38.68 13.5201L38.67 13.4901L38.65 13.4701L38.63 13.4401L38.61 13.4201L38.6 13.3901L38.58 13.3601L38.56 13.3401L38.54 13.3201L38.52 13.2901L38.5 13.2701L38.48 13.2401L38.46 13.2201L38.44 13.1901L38.42 13.1701L38.4 13.1401L38.38 13.1201L38.36 13.1001L38.34 13.0701L38.32 13.0501L38.3 13.0301L38.28 13.0001L38.26 12.9801L38.24 12.9601L38.21 12.9301L38.19 12.9101L38.17 12.8901L38.15 12.8701L38.12 12.8501L38.1 12.8201L38.08 12.8001L38.05 12.7801L38.03 12.7601L38.01 12.7401L37.98 12.7201L37.96 12.7001L37.93 12.6801L37.91 12.6601L37.89 12.6401L37.86 12.6201L37.85 12.6101L37.84 12.6001L37.82 12.5901L37.81 12.5801L37.8 12.5701L37.79 12.5601L37.77 12.5501V12.5401L37.75 12.5301L37.73 12.5201V12.5101L37.71 12.5001L37.7 12.4901H37.68V12.4701H37.66L37.65 12.4501H37.63L37.62 12.4301H37.61L37.59 12.4201L37.58 12.4101L37.57 12.4001L37.55 12.3901H37.54L37.53 12.3701H37.51L37.5 12.3601L37.49 12.3501L37.47 12.3401L37.46 12.3301H37.44L37.43 12.3201L37.41 12.3101L23.41 4.09007H23.4L23.38 4.07007H23.36L23.34 4.05007L23.32 4.04007L23.3 4.03007L23.29 4.02007L23.27 4.01007L23.25 4.00007L23.23 3.99007L23.21 3.98007L23.19 3.97007L23.18 3.96007H23.16L23.14 3.94007H23.12L23.1 3.92007H23.08L23.06 3.90007H23.05L23.03 3.89007L23.01 3.88007L22.99 3.87007L22.97 3.86007L22.95 3.85007L22.93 3.84007H22.91V3.82007L22.89 3.81007L22.87 3.80007L22.85 3.79007H22.83L22.81 3.77007H22.79L22.77 3.76007L22.75 3.75007H22.73L22.71 3.73007H22.69L22.68 3.72007H22.66L22.64 3.71007L22.62 3.70007L22.6 3.69007H22.58L22.56 3.68007L22.54 3.67007H22.52L22.5 3.66007H22.48L22.46 3.65007L22.44 3.64007H22.42L22.4 3.63007H22.38L22.37 3.61007H22.33L22.31 3.60007H22.29L22.27 3.59007L22.25 3.58007H22.23L22.21 3.57007H22.19L22.17 3.56007H22.15L22.13 3.55007H22.11L22.09 3.54007H22.07L22.05 3.53007H22.03L22.01 3.52007H21.97L21.95 3.51007H21.93L21.91 3.50007H21.87L21.85 3.49007H21.81L21.79 3.48007H21.75L21.73 3.47007H21.69L21.67 3.46007H21.61L21.59 3.45007H21.55L21.53 3.44007H21.45L21.43 3.43007H21.31L21.29 3.42007H21.11L21.09 3.41007H20.94V3.42007Z" fill="#C9177E"/>
<path d="M11.53 36.7301V11.1001H16.89V20.4301H25.79V11.1001H31.17V36.7301H25.79V25.5301H16.89V36.7301H11.53Z" fill="white"/>
</svg>
