<svg viewBox="0 0 800 800" fill="none" xmlns="http://www.w3.org/2000/svg">
  <path d="M700 0H100C44.772 0 0 44.772 0 100v600c0 55.228 44.772 100 100 100h600c55.228 0 100-44.772 100-100V100C800 44.772 755.228 0 700 0Z" fill="#212121"/>
  <path fill-rule="evenodd" clip-rule="evenodd" d="M587.947 527.768c4.254 54.65 4.254 80.268 4.254 108.232H465.756c0-6.091.109-11.663.219-17.313.342-17.564.699-35.88-2.147-72.868-3.761-54.152-27.08-66.185-69.957-66.185H195v-98.525h204.889c54.16 0 81.241-16.476 81.241-60.098 0-38.357-27.081-61.601-81.241-61.601H195V163h227.456C545.069 163 606 220.912 606 313.42c0 69.193-42.877 114.319-100.799 121.84 48.895 9.777 77.48 37.605 82.746 92.508Z" fill="#fff"/>
  <path d="M195 636v-73.447h133.697c22.332 0 27.181 16.563 27.181 26.441V636H195Z" fill="#fff"/>
  <path d="M194.5 636v.5h161.878v-47.506c0-5.006-1.226-11.734-5.315-17.224-4.108-5.515-11.059-9.717-22.366-9.717H194.5V636Z" stroke="#fff" stroke-opacity=".8"/>
</svg>
