<svg width="50" height="50" fill="none" xmlns="http://www.w3.org/2000/svg"><path d="M25 49c13.255 0 24-10.745 24-24S38.255 1 25 1 1 11.745 1 25s10.745 24 24 24z" fill="#00838F" stroke="#00838F" stroke-width=".308"/><path fill-rule="evenodd" clip-rule="evenodd" d="M19.355 28.86l6.064-.508 1.14 2.633-3.913 3.882-3.29 4.626.433 5.617c-3.218-.786-5.361-1.56-6.43-2.324-1.068-.763-2.215-1.861-3.441-3.293l5.745-6.843h2.514l1.178-3.79z" fill="#FBB526"/><path fill-rule="evenodd" clip-rule="evenodd" d="M25.36 7.404a2.993 2.993 0 0 0-1.916 5.292v4.045h3.95v-4.15a2.993 2.993 0 0 0-2.035-5.187zm-1.318 2.992a1.317 1.317 0 1 1 2.634 0 1.317 1.317 0 0 1-2.634 0z" fill="#fff"/><path d="M27.373 37.265l-2.953 2.83 1.16 1.21 2.083-1.997 1.866.978 5.01.68.225-1.661-4.718-.64-2.673-1.4z" fill="#fff"/><path fill-rule="evenodd" clip-rule="evenodd" d="M2.736 25C2.736 12.704 12.704 2.736 25 2.736S47.264 12.704 47.264 25 37.296 47.264 25 47.264 2.736 37.296 2.736 25zM25 4.41C13.63 4.411 4.41 13.63 4.41 25a20.51 20.51 0 0 0 5.1 13.565l5.418-7.22h3.086l.255-2.69 3.259-.618v-9.62h-3.352V16.74h14.364v1.675H29.31V30.52l2.17.222 1.761 2.328h1.629l5.653 5.457A20.51 20.51 0 0 0 45.59 25c0-11.37-9.218-20.589-20.59-20.589zm7.43 30.364l-.023-.03h-2.293v-1.676h1.024l-.556-.735-4.404-.45-.974 2.587-2.52 1.545-.875-1.43 2.03-1.243 1.225-3.257.847.086-.694-1.129-5.398 1.024-.63 6.639-2.977 2.581-1.098-1.266 2.47-2.142.271-2.86h-2.088l-5.083 6.777A20.52 20.52 0 0 0 25 45.59a20.52 20.52 0 0 0 14.37-5.846l-5.178-4.998h-1.723l-.04.03zm-7.909-7.306l-1.556.296v-9.349h4.908v11.748l-1.834-2.983-.082.016v-3.993h-1.436v4.265z" fill="#fff"/></svg>