<?xml version="1.0" encoding="utf-8"?>
<!-- Generator: Adobe Illustrator 16.0.0, SVG Export Plug-In . SVG Version: 6.00 Build 0)  -->
<!DOCTYPE svg PUBLIC "-//W3C//DTD SVG 1.1//EN" "http://www.w3.org/Graphics/SVG/1.1/DTD/svg11.dtd">
<svg version="1.1" id="Layer_1" xmlns="http://www.w3.org/2000/svg" xmlns:xlink="http://www.w3.org/1999/xlink" x="0px" y="0px"
	 width="16382.881px" height="16382.881px" viewBox="0 0 16382.881 16382.881" enable-background="new 0 0 16382.881 16382.881"
	 xml:space="preserve">
<title>logo</title>
<linearGradient id="SVGID_1_" gradientUnits="userSpaceOnUse" x1="-753.6542" y1="-558.0049" x2="-511.421" y2="-558.0049" gradientTransform="matrix(20.4786 0 0 20.4786 15773.2188 19686.7227)">
	<stop  offset="0" style="stop-color:#007C42"/>
	<stop  offset="1" style="stop-color:#6CCE7A"/>
</linearGradient>
<path fill="url(#SVGID_1_)" d="M4191.296,10712.322c-57.461,23.9-120.146,32.449-181.906,24.805
	c-773.881-103.355-1509.856-397.746-2141.531-856.611c-648.513-472.885-1164-1105.141-1496.591-1835.602
	c-53.005-116.381-39.096-252.307,36.381-355.543c985.096-1343.061,2610.36-2060.569,4266.526-1883.555
	c130.381,13.449,242.513,98.186,291.049,219.941c305.934,762.764,404.635,1592.887,286.09,2406.121
	c-115.52,789.172-430.254,1535.885-914.492,2169.643C4298.488,10650.195,4248.412,10688.322,4191.296,10712.322z"/>
<path fill="#FFFFFF" d="M4191.296,9075.17c-12.973-1.172-25.75-3.949-38.035-8.273c-99.968-35.08-152.569-144.557-117.49-244.525
	c0.027-0.072,0.052-0.146,0.078-0.221c61.186-168.676,4.961-246.4-13.229-272.86c-148.833-206.71-649.901-226.554-858.267-224.899
	c-510.99,4.959-854.959-120.721-1018.675-372.082c-163.716-251.359-100.875-519.26-42.996-649.9
	c48.825-94.024,164.625-130.664,258.647-81.836c85.419,44.355,124.742,145.146,91.936,235.629
	c-1.654,6.613-66.148,168.679,13.229,287.742c79.377,119.066,334.045,200.097,694.55,198.441
	c593.677-4.961,987.254,125.682,1174.123,385.311c122.373,171.985,145.523,388.619,62.84,621.789
	C4368.065,9035.451,4281.399,9088.146,4191.296,9075.17z"/>
<path opacity="0.7" fill="#FFFFFF" enable-background="new    " d="M2663.284,7070.893
	c169.636-57.978,348.343-84.867,527.528-79.377c396.886,11.574,631.71,145.524,879.766,469.647
	c25.541,33.194,61.756,56.56,102.527,66.146c97.105,21.931,193.602-39.016,215.527-136.121
	c11.683-51.733-0.012-105.985-31.967-148.313c-395.232-515.951-805.35-600.287-1155.932-610.211
	c-227.275-7.728-453.959,27.621-668.091,104.185c-91.777,36.086-136.936,139.729-100.875,231.514
	C2467.904,7060.111,2571.059,7105.796,2663.284,7070.893z"/>
<path opacity="0.7" fill="#FFFFFF" enable-background="new    " d="M3829.137,9189.271
	c-169.855,56.932-348.472,83.246-527.528,77.725c-396.886-11.578-722.663-181.908-970.718-506.029
	c-65.025-75.381-178.845-83.773-254.224-18.746c-69.058,59.57-82.738,161.34-31.864,237.033
	c284.436,372.08,625.096,539.102,922.76,606.904c106.371,24.441,214.998,37.74,324.124,39.688
	c227.085,6.832,453.505-27.918,668.092-102.529c92.244-36.076,137.778-140.098,101.702-232.342
	C4025.406,9198.729,3921.383,9153.193,3829.137,9189.271L3829.137,9189.271z"/>
<path fill="#3AA860" d="M12854.218,9688.209H8835.396c-96.75,0-175.184-78.432-175.184-175.184s78.434-175.186,175.184-175.186
	h4018.822c96.752,0,175.184,78.434,175.184,175.186S12950.97,9688.209,12854.218,9688.209L12854.218,9688.209z"/>
<path fill="#FFFFFF" d="M8243.106,8124.061c-83.421-70.908-216.896-123.047-410.851-162.672
	c-68.852-13.235-136.509-32.067-202.296-56.309c-52.138-20.855-72.994-39.625-81.335-52.139
	c-13.252-19.658-19.833-43.056-18.771-66.736c0-20.855,4.172-52.141,56.311-79.252c55.21-26.412,116.148-38.6,177.271-35.453
	c54.981-1.639,109.879,5.4,162.67,20.855c46.125,16.496,88.11,42.826,123.047,77.164c39.223,36.391,90.41,57.164,143.902,58.396
	c33.648,0.91,66.654-9.358,93.848-29.199c34.096-24.937,54.855-64.146,56.311-106.36c-0.506-38.345-14.541-75.275-39.625-104.277
	c-60.445-70.131-137.027-124.523-223.153-158.5c-99.603-39.002-205.877-58.133-312.829-56.309
	c-91.018-0.881-181.447,14.664-266.949,45.881c-81.441,26.905-154.182,75.158-210.639,139.729
	c-54.58,66.213-83.459,149.883-81.334,235.666c0,225.235,175.185,373.31,519.297,440.047
	c120.959,22.941,208.554,50.053,256.52,83.42c47.968,33.369,64.652,62.568,64.652,102.191c0,39.625-20.855,75.08-64.652,102.192
	c-43.796,27.11-118.875,43.794-208.553,43.794c-66.498,0.443-132.422-12.316-193.955-37.539
	c-50.361-19.326-96.424-48.381-135.56-85.506c-66.737-68.822-145.987-79.25-231.494-14.599
	c-41.321,29.054-65.54,76.712-64.651,127.218c-0.793,38.972,14.256,76.601,41.711,104.276
	c72.571,68.375,159.5,119.68,254.435,150.156l0,0c109.301,37.918,224.254,56.961,339.94,56.313
	c107.158,1.945,213.592-17.926,312.832-58.395c82.017-34.082,152.318-91.34,202.294-164.758
	c47.371-68.582,72.16-150.237,70.908-233.579C8374.509,8299.932,8327.013,8194.982,8243.106,8124.061z"/>
<path fill="#FFFFFF" d="M9290.042,7673.586c54.916-0.777,109.457,9.141,160.586,29.197c48.457,21.176,91.834,52.463,127.219,91.762
	c30.396,37.82,76.623,59.393,125.131,58.396c28.408,0.303,56.17-8.463,79.25-25.025c43.338-25.982,70.158-72.525,70.908-123.049
	c0.754-33.059-11.189-65.15-33.369-89.676c-130.795-156.744-325.613-245.717-529.725-241.922
	c-131.465-2.219-261.113,30.914-375.396,95.934c-110.438,62.479-200.848,155.06-260.691,266.947
	c-62.029,118.289-93.568,250.186-91.764,383.738c-1.621,133.122,30.676,264.466,93.85,381.651
	c63.391,111.345,155.604,203.556,266.947,266.946c115.611,65.711,246.598,99.539,379.568,98.023
	c193.955,0,356.625-60.48,485.928-183.527c26.264-24.184,41.361-58.148,41.711-93.848c-1.609-47.101-24.654-90.884-62.566-118.878
	c-58.395-43.795-131.387-39.625-204.381,12.514s-152.244,83.42-260.691,83.42c-76.904,0.486-152.529-19.68-218.982-58.393
	c-62.852-37.467-114.104-91.605-148.072-156.416c-36.965-71.484-55.598-151.029-54.223-231.494
	c0-135.56,39.623-244.006,114.703-325.344C9071.062,7713.211,9169.081,7673.586,9290.042,7673.586z"/>
<path fill="#FFFFFF" d="M11484.022,7427.492c-31.891-32.121-75.725-49.504-120.961-47.969
	c-43.418-0.484-85.313,15.975-116.789,45.883c-32.121,31.891-49.504,75.723-47.965,120.961v723.68
	c0.527,51.977-14.746,102.887-43.799,145.988c-30.934,46.467-74.289,83.316-125.131,106.362
	c-56.539,27.243-118.691,40.817-181.441,39.624c-114.705,0-202.297-31.283-271.121-95.933
	c-68.82-64.653-100.105-160.589-100.105-289.89v-629.832c10.287-91.568-55.604-174.14-147.174-184.424
	c-91.566-10.287-174.137,55.604-184.426,147.174c-1.389,12.377-1.389,24.873,0,37.25v629.832
	c0,143.901,27.115,269.032,83.422,373.309c53.686,99.838,134.711,182.307,233.58,237.752
	c103.283,54.963,218.783,82.939,335.771,81.336c86.42,0.398,172.102-15.891,252.348-47.967
	c55.035-20.092,106.449-48.969,152.244-85.508c8.377,27.564,23.418,52.635,43.795,72.994c30.75,31.264,72.945,48.594,116.791,47.967
	c45.238,1.537,89.07-15.846,120.961-47.967c30.225-32.117,46.691-74.781,45.881-118.875V7546.367
	C11531.171,7502.193,11514.64,7459.359,11484.022,7427.492L11484.022,7427.492z"/>
<path fill="#FFFFFF" d="M12353.69,8528.652h-64.652c-16.684,0-39.625-4.17-62.566-43.795
	c-22.49-42.279-33.291-89.797-31.281-137.646V6945.734c1.422-43.584-15.174-85.828-45.883-116.791
	c-30.82-30.922-73.162-47.558-116.789-45.881c-43.586-1.424-85.828,15.174-116.791,45.881
	c-30.922,30.819-47.559,73.164-45.881,116.791v1401.477c-1.457,88.953,16.33,177.17,52.139,258.607
	c31.369,73.734,82.641,137.279,148.072,183.527c64.445,44.129,140.879,67.422,218.98,66.736h4.172
	c52.836,2.123,104.893-13.273,148.072-43.795c38.93-27.105,62.264-71.439,62.566-118.877c1.199-42.775-13.684-84.451-41.711-116.789
	C12434.901,8545.325,12395.169,8527.75,12353.69,8528.652z"/>
<path fill="#FFFFFF" d="M13121.165,8528.652h-62.566c-16.684,0-39.625-4.17-62.564-43.795
	c-22.492-42.279-33.293-89.797-31.285-137.646V6945.734c0.488-43.418-15.973-85.314-45.881-116.791
	c-30.961-30.707-73.205-47.306-116.789-45.881c-43.715-2.207-86.266,14.51-116.789,45.881
	c-30.922,30.819-47.559,73.164-45.883,116.791v1401.477c-1.119,88.715,15.914,176.719,50.053,258.607
	c32.133,73.875,84.107,137.402,150.16,183.527c64.443,44.129,140.877,67.422,218.98,66.736h4.172
	c52.191,2.135,103.59-13.285,145.986-43.795c39.785-26.346,63.375-71.166,62.566-118.877c1.982-42.531-12.17-84.244-39.627-116.789
	C13203.646,8545.232,13163.253,8527.703,13121.165,8528.652z"/>
<path fill="#FFFFFF" d="M14578.954,7398.297c-23.686-10.209-49.293-15.189-75.08-14.602c-41.709,0-98.021,16.688-133.475,93.85
	l-381.652,863.41l-435.875-867.582c-24.313-55.266-79.361-90.596-139.73-89.678c-22.164-0.109-44.133,4.143-64.652,12.514
	c-26.777,12.59-50.318,31.137-68.822,54.225c-31.834,44.748-35.863,103.574-10.428,152.244l569.352,1080.309l-248.18,561.004
	c-12.082,23.949-18.504,50.348-18.771,77.168c0,41.711,16.684,95.934,98.021,131.387c23.383,11.582,48.994,17.984,75.076,18.77
	c41.715,0,100.107-16.684,131.391-100.105l784.158-1764.359c11.402-24.191,17.787-50.439,18.771-77.164
	C14679.06,7487.973,14660.29,7431.664,14578.954,7398.297z"/>
</svg>
