<svg xmlns="http://www.w3.org/2000/svg" width="39" height="48" fill="none">
  <mask id="a" width="39" height="48" x="0" y="0" maskUnits="userSpaceOnUse">
    <path fill="#fff" d="M1.48 43.97L0 4.58A2.4 2.4 0 0 1 2.25 2.1L35.75 0a2.4 2.4 0 0 1 2.55 2.4v42.92a2.4 2.4 0 0 1-2.5 2.4L3.76 46.28a2.4 2.4 0 0 1-2.29-2.3z"/>
  </mask>
  <g mask="url(#a)">
    <path fill="#FF4785" d="M1.47 43.97L-.01 4.58A2.4 2.4 0 0 1 2.24 2.1L35.74 0a2.4 2.4 0 0 1 2.55 2.4v42.92a2.4 2.4 0 0 1-2.5 2.4L3.75 46.28a2.4 2.4 0 0 1-2.3-2.3z"/>
    <path fill="#fff" d="M28.26 5.87l.23-5.5L33.1 0l.2 5.68a.36.36 0 0 1-.58.29l-1.77-1.4-2.1 1.6a.36.36 0 0 1-.58-.3zm-5.88 12.12c0 .93 6.29.48 7.13-.17 0-6.36-3.41-9.7-9.66-9.7-6.24 0-9.74 3.4-9.74 8.48 0 8.86 11.96 9.03 11.96 13.87 0 1.35-.67 2.16-2.13 2.16-1.9 0-2.66-.97-2.57-4.28 0-.72-7.26-.94-7.48 0-.57 8.01 4.43 10.33 10.14 10.33 5.54 0 9.88-2.96 9.88-8.3 0-9.5-12.14-9.24-12.14-13.95 0-1.9 1.42-2.16 2.26-2.16.89 0 2.48.15 2.35 3.72z"/>
  </g>
</svg>
