<svg width="62" height="58" viewBox="0 0 62 58" fill="none" xmlns="http://www.w3.org/2000/svg">
<path d="M0.638702 57.6667L16.8494 29.5888L33.0602 57.6667L0.638702 57.6667Z" fill="#FBFBFB"/>
<path fill-rule="evenodd" clip-rule="evenodd" d="M33.0601 57.6667C48.9659 57.6667 61.8601 44.7725 61.8601 28.8667C61.8601 12.9609 48.9659 0.0666656 33.0601 0.0666656C17.1543 0.0666656 4.2601 12.9609 4.2601 28.8667C4.2601 44.7725 17.1543 57.6667 33.0601 57.6667ZM21.3268 33.1333C23.6833 33.1333 25.5935 31.2231 25.5935 28.8667C25.5935 26.5103 23.6833 24.6 21.3268 24.6C18.9704 24.6 17.0602 26.5103 17.0602 28.8667C17.0602 31.2231 18.9704 33.1333 21.3268 33.1333ZM37.3268 28.8667C37.3268 31.2231 35.4166 33.1333 33.0602 33.1333C30.7038 33.1333 28.7935 31.2231 28.7935 28.8667C28.7935 26.5103 30.7038 24.6 33.0602 24.6C35.4166 24.6 37.3268 26.5103 37.3268 28.8667ZM44.7935 33.1333C47.1499 33.1333 49.0602 31.2231 49.0602 28.8667C49.0602 26.5103 47.1499 24.6 44.7935 24.6C42.4371 24.6 40.5269 26.5103 40.5269 28.8667C40.5269 31.2231 42.4371 33.1333 44.7935 33.1333Z" fill="#FBFBFB"/>
</svg>
