<svg width="39" height="63" viewBox="0 0 39 63" fill="none" xmlns="http://www.w3.org/2000/svg">
<path d="M22.5066 44.2982C22.4207 43.7811 22.4207 43.3502 22.4207 43.1778C22.4207 39.8167 23.8811 36.9726 26.7159 34.9904L30.4097 32.4049C35.3921 28.8714 39 24.0451 39 17.2367C39 8.44596 32.1278 0 19.4141 0C6.44273 0 0 9.39398 0 18.0123C0 19.3912 0.171806 20.7702 0.515419 21.9767L10.2225 22.6662C9.87885 21.7182 9.70705 20.0807 9.70705 18.788C9.70705 13.8755 13.0573 8.96307 19.4141 8.96307C25.685 8.96307 28.6916 13.186 28.6916 17.6676C28.6916 20.5978 27.489 23.0971 24.6542 25.1655L20.7026 28.0096C15.7203 31.6293 13.7445 35.8523 13.7445 41.0233C13.7445 42.2298 13.8304 43.1778 13.9163 44.2982H22.5066ZM12.0264 56.7086C12.0264 60.156 14.7753 63 18.2974 63C21.7335 63 24.5683 60.156 24.5683 56.7086C24.5683 53.2613 21.7335 50.3311 18.2974 50.3311C14.7753 50.3311 12.0264 53.2613 12.0264 56.7086Z" fill="#FBFBFB"/>
</svg>
