<svg width="657" height="342" viewBox="0 0 657 342" fill="none" xmlns="http://www.w3.org/2000/svg">
<mask id="mask0_810_8361" style="mask-type:alpha" maskUnits="userSpaceOnUse" x="-35" y="0" width="774" height="342">
<rect x="-34.4253" y="0.715576" width="772.83" height="340.532" fill="url(#paint0_radial_810_8361)"/>
</mask>
<g mask="url(#mask0_810_8361)">
<g filter="url(#filter0_f_810_8361)">
<path d="M433.196 249.86C416.92 278.314 347.727 249.457 315.165 231.472C249.931 198.989 160.996 261.489 145.77 204.911C141.009 154.621 235.593 177.561 289.87 116.388C344.148 55.2153 360.792 152.149 400.741 188.678C440.689 225.207 505.518 157.035 525.905 182.078C546.292 207.12 453.542 214.294 433.196 249.86Z" fill="url(#paint1_linear_810_8361)" fill-opacity="0.4"/>
</g>
<g filter="url(#filter1_ddi_810_8361)">
<rect x="66.4502" y="16.6265" width="94.9204" height="94.9204" rx="20.9581" fill="#1C1C1C"/>
<rect x="66.9502" y="17.1265" width="93.9204" height="93.9204" rx="20.4581" stroke="#3FCF8E"/>
</g>
<g filter="url(#filter2_ddi_810_8361)">
<rect x="173.596" y="16.6265" width="94.9204" height="94.9204" rx="20.9581" fill="#1C1C1C"/>
<rect x="174.096" y="17.1265" width="93.9204" height="93.9204" rx="20.4581" stroke="#3FCF8E"/>
</g>
<g filter="url(#filter3_ddi_810_8361)">
<rect x="280.742" y="16.6265" width="94.9204" height="94.9204" rx="20.9581" fill="#1C1C1C"/>
<rect x="281.242" y="17.1265" width="93.9204" height="93.9204" rx="20.4581" stroke="#3FCF8E"/>
</g>
<g filter="url(#filter4_ddi_810_8361)">
<rect x="387.888" y="16.6265" width="94.9204" height="94.9204" rx="20.9581" fill="#1C1C1C"/>
<rect x="388.388" y="17.1265" width="93.9204" height="93.9204" rx="20.4581" stroke="#3FCF8E"/>
</g>
<g filter="url(#filter5_ddi_810_8361)">
<rect x="495.034" y="16.6265" width="94.9204" height="94.9204" rx="20.9581" fill="#1C1C1C"/>
<rect x="495.534" y="17.1265" width="93.9204" height="93.9204" rx="20.4581" stroke="#3FCF8E"/>
</g>
<g filter="url(#filter6_ddi_810_8361)">
<rect x="66.4502" y="123.547" width="94.9204" height="94.9204" rx="20.9581" fill="#1C1C1C"/>
<rect x="66.9502" y="124.047" width="93.9204" height="93.9204" rx="20.4581" stroke="#3FCF8E"/>
</g>
<g filter="url(#filter7_ddi_810_8361)">
<rect x="173.596" y="123.547" width="94.9204" height="94.9204" rx="20.9581" fill="#1C1C1C"/>
<rect x="174.096" y="124.047" width="93.9204" height="93.9204" rx="20.4581" stroke="#3FCF8E"/>
</g>
<g filter="url(#filter8_ddi_810_8361)">
<rect x="280.742" y="123.547" width="94.9204" height="94.9204" rx="20.9581" fill="#1C1C1C"/>
<rect x="281.242" y="124.047" width="93.9204" height="93.9204" rx="20.4581" stroke="#3FCF8E"/>
</g>
<g filter="url(#filter9_ddi_810_8361)">
<rect x="387.888" y="123.547" width="94.9204" height="94.9204" rx="20.9581" fill="#1C1C1C"/>
<rect x="388.388" y="124.047" width="93.9204" height="93.9204" rx="20.4581" stroke="#3FCF8E"/>
</g>
<g filter="url(#filter10_ddi_810_8361)">
<rect x="495.034" y="123.547" width="94.9204" height="94.9204" rx="20.9581" fill="#1C1C1C"/>
<rect x="495.534" y="124.047" width="93.9204" height="93.9204" rx="20.4581" stroke="#3FCF8E"/>
</g>
<g filter="url(#filter11_ddi_810_8361)">
<rect x="66.4502" y="230.467" width="94.9204" height="94.9204" rx="20.9581" fill="#1C1C1C"/>
<rect x="66.9502" y="230.967" width="93.9204" height="93.9204" rx="20.4581" stroke="#3FCF8E"/>
</g>
<g filter="url(#filter12_ddi_810_8361)">
<rect x="173.596" y="230.467" width="94.9204" height="94.9204" rx="20.9581" fill="#1C1C1C"/>
<rect x="174.096" y="230.967" width="93.9204" height="93.9204" rx="20.4581" stroke="#3FCF8E"/>
</g>
<g filter="url(#filter13_ddi_810_8361)">
<rect x="280.742" y="230.467" width="94.9204" height="94.9204" rx="20.9581" fill="#1C1C1C"/>
<rect x="281.242" y="230.967" width="93.9204" height="93.9204" rx="20.4581" stroke="#3FCF8E"/>
</g>
<g filter="url(#filter14_ddi_810_8361)">
<rect x="387.888" y="230.467" width="94.9204" height="94.9204" rx="20.9581" fill="#1C1C1C"/>
<rect x="388.388" y="230.967" width="93.9204" height="93.9204" rx="20.4581" stroke="#3FCF8E"/>
</g>
<g filter="url(#filter15_ddi_810_8361)">
<rect x="495.034" y="230.467" width="94.9204" height="94.9204" rx="20.9581" fill="#1C1C1C"/>
<rect x="495.534" y="230.967" width="93.9204" height="93.9204" rx="20.4581" stroke="#3FCF8E"/>
</g>
<g filter="url(#filter16_d_810_8361)">
<path fill-rule="evenodd" clip-rule="evenodd" d="M437.286 155.826C437.286 154.62 436.308 153.643 435.103 153.643C433.897 153.643 432.92 154.62 432.92 155.826V167.106H421.64C420.434 167.106 419.457 168.084 419.457 169.289C419.457 170.495 420.434 171.472 421.64 171.472H432.92V182.752C432.92 183.958 433.897 184.935 435.103 184.935C436.308 184.935 437.286 183.958 437.286 182.752V171.473H448.566C449.771 171.473 450.749 170.495 450.749 169.289C450.749 168.084 449.771 167.106 448.566 167.106H437.286V155.826Z" fill="#3ECF8E"/>
<path d="M432.92 167.106V167.325H433.138V167.106H432.92ZM432.92 171.472H433.138V171.254H432.92V171.472ZM437.286 171.473V171.254H437.068V171.473H437.286ZM450.749 169.289L450.531 169.289V169.289H450.749ZM437.286 167.106H437.068V167.325H437.286V167.106ZM435.103 153.861C436.188 153.861 437.068 154.741 437.068 155.826H437.504C437.504 154.5 436.429 153.425 435.103 153.425V153.861ZM433.138 155.826C433.138 154.741 434.018 153.861 435.103 153.861V153.425C433.776 153.425 432.701 154.5 432.701 155.826H433.138ZM433.138 167.106V155.826H432.701V167.106H433.138ZM421.64 167.325H432.92V166.888H421.64V167.325ZM419.675 169.289C419.675 168.204 420.555 167.325 421.64 167.325V166.888C420.313 166.888 419.238 167.963 419.238 169.289L419.675 169.289ZM421.64 171.254C420.555 171.254 419.675 170.375 419.675 169.289L419.238 169.289C419.238 170.616 420.313 171.691 421.64 171.691V171.254ZM432.92 171.254H421.64V171.691H432.92V171.254ZM433.138 182.752V171.472H432.701V182.752H433.138ZM435.103 184.717C434.018 184.717 433.138 183.837 433.138 182.752H432.701C432.701 184.078 433.776 185.154 435.103 185.154V184.717ZM437.068 182.752C437.068 183.837 436.188 184.717 435.103 184.717V185.154C436.429 185.154 437.504 184.078 437.504 182.752H437.068ZM437.068 171.473V182.752H437.504V171.473H437.068ZM448.566 171.254H437.286V171.691H448.566V171.254ZM450.531 169.289C450.531 170.375 449.651 171.254 448.566 171.254V171.691C449.892 171.691 450.967 170.616 450.967 169.289H450.531ZM448.566 167.325C449.651 167.325 450.531 168.204 450.531 169.289L450.967 169.289C450.967 167.963 449.892 166.888 448.566 166.888V167.325ZM437.286 167.325H448.566V166.888H437.286V167.325ZM437.068 155.826V167.106H437.504V155.826H437.068Z" fill="#1CF7C3"/>
</g>
<g filter="url(#filter17_d_810_8361)">
<path fill-rule="evenodd" clip-rule="evenodd" d="M437.286 262.077C437.286 260.871 436.308 259.894 435.103 259.894C433.897 259.894 432.92 260.871 432.92 262.077V273.357H421.64C420.434 273.357 419.457 274.334 419.457 275.54C419.457 276.746 420.434 277.723 421.64 277.723H432.92V289.003C432.92 290.208 433.897 291.186 435.103 291.186C436.308 291.186 437.286 290.208 437.286 289.003V277.723H448.566C449.771 277.723 450.749 276.746 450.749 275.54C450.749 274.334 449.771 273.357 448.566 273.357H437.286V262.077Z" fill="#3ECF8E"/>
<path d="M432.92 273.357V273.575H433.138V273.357H432.92ZM432.92 277.723H433.138V277.505H432.92V277.723ZM437.286 277.723V277.505H437.068V277.723H437.286ZM450.749 275.54L450.531 275.54V275.54H450.749ZM437.286 273.357H437.068V273.575H437.286V273.357ZM435.103 260.112C436.188 260.112 437.068 260.992 437.068 262.077H437.504C437.504 260.75 436.429 259.675 435.103 259.675V260.112ZM433.138 262.077C433.138 260.992 434.018 260.112 435.103 260.112V259.675C433.776 259.675 432.701 260.75 432.701 262.077H433.138ZM433.138 273.357V262.077H432.701V273.357H433.138ZM421.64 273.575H432.92V273.138H421.64V273.575ZM419.675 275.54C419.675 274.455 420.555 273.575 421.64 273.575V273.138C420.313 273.138 419.238 274.214 419.238 275.54L419.675 275.54ZM421.64 277.505C420.555 277.505 419.675 276.625 419.675 275.54L419.238 275.54C419.238 276.866 420.313 277.941 421.64 277.941V277.505ZM432.92 277.505H421.64V277.941H432.92V277.505ZM433.138 289.003V277.723H432.701V289.003H433.138ZM435.103 290.968C434.018 290.968 433.138 290.088 433.138 289.003H432.701C432.701 290.329 433.776 291.404 435.103 291.404V290.968ZM437.068 289.003C437.068 290.088 436.188 290.968 435.103 290.968V291.404C436.429 291.404 437.504 290.329 437.504 289.003H437.068ZM437.068 277.723V289.003H437.504V277.723H437.068ZM448.566 277.505H437.286V277.941H448.566V277.505ZM450.531 275.54C450.531 276.625 449.651 277.505 448.566 277.505V277.941C449.892 277.941 450.967 276.866 450.967 275.54H450.531ZM448.566 273.575C449.651 273.575 450.531 274.455 450.531 275.54L450.967 275.54C450.967 274.214 449.892 273.138 448.566 273.138V273.575ZM437.286 273.575H448.566V273.138H437.286V273.575ZM437.068 262.077V273.357H437.504V262.077H437.068Z" fill="#1CF7C3"/>
</g>
<g filter="url(#filter18_d_810_8361)">
<path fill-rule="evenodd" clip-rule="evenodd" d="M543.117 262.077C543.117 260.871 542.139 259.894 540.934 259.894C539.728 259.894 538.751 260.871 538.751 262.077V273.357H527.471C526.265 273.357 525.288 274.334 525.288 275.54C525.288 276.746 526.265 277.723 527.471 277.723H538.751V289.003C538.751 290.208 539.728 291.186 540.934 291.186C542.139 291.186 543.117 290.208 543.117 289.003V277.723H554.397C555.602 277.723 556.58 276.746 556.58 275.54C556.58 274.334 555.602 273.357 554.397 273.357H543.117V262.077Z" fill="#3ECF8E"/>
<path d="M538.751 273.357V273.575H538.969V273.357H538.751ZM538.751 277.723H538.969V277.505H538.751V277.723ZM543.117 277.723V277.505H542.899V277.723H543.117ZM556.58 275.54L556.362 275.54V275.54H556.58ZM543.117 273.357H542.899V273.575H543.117V273.357ZM540.934 260.112C542.019 260.112 542.899 260.992 542.899 262.077H543.335C543.335 260.75 542.26 259.675 540.934 259.675V260.112ZM538.969 262.077C538.969 260.992 539.849 260.112 540.934 260.112V259.675C539.607 259.675 538.532 260.75 538.532 262.077H538.969ZM538.969 273.357V262.077H538.532V273.357H538.969ZM527.471 273.575H538.751V273.138H527.471V273.575ZM525.506 275.54C525.506 274.455 526.386 273.575 527.471 273.575V273.138C526.144 273.138 525.069 274.214 525.069 275.54L525.506 275.54ZM527.471 277.505C526.386 277.505 525.506 276.625 525.506 275.54L525.069 275.54C525.069 276.866 526.144 277.941 527.471 277.941V277.505ZM538.751 277.505H527.471V277.941H538.751V277.505ZM538.969 289.003V277.723H538.532V289.003H538.969ZM540.934 290.968C539.849 290.968 538.969 290.088 538.969 289.003H538.532C538.532 290.329 539.607 291.404 540.934 291.404V290.968ZM542.899 289.003C542.899 290.088 542.019 290.968 540.934 290.968V291.404C542.26 291.404 543.335 290.329 543.335 289.003H542.899ZM542.899 277.723V289.003H543.335V277.723H542.899ZM554.397 277.505H543.117V277.941H554.397V277.505ZM556.362 275.54C556.362 276.625 555.482 277.505 554.397 277.505V277.941C555.723 277.941 556.798 276.866 556.798 275.54H556.362ZM554.397 273.575C555.482 273.575 556.362 274.455 556.362 275.54L556.798 275.54C556.798 274.214 555.723 273.138 554.397 273.138V273.575ZM543.117 273.575H554.397V273.138H543.117V273.575ZM542.899 262.077V273.357H543.335V262.077H542.899Z" fill="#1CF7C3"/>
</g>
<g filter="url(#filter19_d_810_8361)">
<path fill-rule="evenodd" clip-rule="evenodd" d="M543.117 155.826C543.117 154.62 542.139 153.643 540.934 153.643C539.728 153.643 538.751 154.62 538.751 155.826V167.106H527.471C526.265 167.106 525.288 168.084 525.288 169.289C525.288 170.495 526.265 171.472 527.471 171.472H538.751V182.752C538.751 183.958 539.728 184.935 540.934 184.935C542.139 184.935 543.117 183.958 543.117 182.752V171.473H554.397C555.602 171.473 556.58 170.495 556.58 169.289C556.58 168.084 555.602 167.106 554.397 167.106H543.117V155.826Z" fill="#3ECF8E"/>
<path d="M538.751 167.106V167.325H538.969V167.106H538.751ZM538.751 171.472H538.969V171.254H538.751V171.472ZM543.117 171.473V171.254H542.899V171.473H543.117ZM556.58 169.289L556.362 169.289V169.289H556.58ZM543.117 167.106H542.899V167.325H543.117V167.106ZM540.934 153.861C542.019 153.861 542.899 154.741 542.899 155.826H543.335C543.335 154.5 542.26 153.425 540.934 153.425V153.861ZM538.969 155.826C538.969 154.741 539.849 153.861 540.934 153.861V153.425C539.607 153.425 538.532 154.5 538.532 155.826H538.969ZM538.969 167.106V155.826H538.532V167.106H538.969ZM527.471 167.325H538.751V166.888H527.471V167.325ZM525.506 169.289C525.506 168.204 526.386 167.325 527.471 167.325V166.888C526.144 166.888 525.069 167.963 525.069 169.289L525.506 169.289ZM527.471 171.254C526.386 171.254 525.506 170.375 525.506 169.289L525.069 169.289C525.069 170.616 526.144 171.691 527.471 171.691V171.254ZM538.751 171.254H527.471V171.691H538.751V171.254ZM538.969 182.752V171.472H538.532V182.752H538.969ZM540.934 184.717C539.849 184.717 538.969 183.837 538.969 182.752H538.532C538.532 184.078 539.607 185.154 540.934 185.154V184.717ZM542.899 182.752C542.899 183.837 542.019 184.717 540.934 184.717V185.154C542.26 185.154 543.335 184.078 543.335 182.752H542.899ZM542.899 171.473V182.752H543.335V171.473H542.899ZM554.397 171.254H543.117V171.691H554.397V171.254ZM556.362 169.289C556.362 170.375 555.482 171.254 554.397 171.254V171.691C555.723 171.691 556.798 170.616 556.798 169.289H556.362ZM554.397 167.325C555.482 167.325 556.362 168.204 556.362 169.289L556.798 169.289C556.798 167.963 555.723 166.888 554.397 166.888V167.325ZM543.117 167.325H554.397V166.888H543.117V167.325ZM542.899 155.826V167.106H543.335V155.826H542.899Z" fill="#1CF7C3"/>
</g>
<g filter="url(#filter20_d_810_8361)">
<path fill-rule="evenodd" clip-rule="evenodd" d="M222.534 262.077C222.534 260.871 221.556 259.894 220.35 259.894C219.145 259.894 218.167 260.871 218.167 262.077V273.357H206.887C205.682 273.357 204.704 274.334 204.704 275.54C204.704 276.746 205.682 277.723 206.887 277.723H218.167V289.003C218.167 290.208 219.145 291.186 220.35 291.186C221.556 291.186 222.534 290.208 222.534 289.003V277.723H233.813C235.019 277.723 235.997 276.746 235.997 275.54C235.997 274.334 235.019 273.357 233.813 273.357H222.534V262.077Z" fill="#3ECF8E"/>
<path d="M218.167 273.357V273.575H218.386V273.357H218.167ZM218.167 277.723H218.386V277.505H218.167V277.723ZM222.534 277.723V277.505H222.315V277.723H222.534ZM235.997 275.54L235.778 275.54V275.54H235.997ZM222.534 273.357H222.315V273.575H222.534V273.357ZM220.35 260.112C221.436 260.112 222.315 260.992 222.315 262.077H222.752C222.752 260.75 221.677 259.675 220.35 259.675V260.112ZM218.386 262.077C218.386 260.992 219.265 260.112 220.35 260.112V259.675C219.024 259.675 217.949 260.75 217.949 262.077H218.386ZM218.386 273.357V262.077H217.949V273.357H218.386ZM206.887 273.575H218.167V273.138H206.887V273.575ZM204.923 275.54C204.923 274.455 205.802 273.575 206.887 273.575V273.138C205.561 273.138 204.486 274.214 204.486 275.54L204.923 275.54ZM206.887 277.505C205.802 277.505 204.923 276.625 204.923 275.54L204.486 275.54C204.486 276.866 205.561 277.941 206.887 277.941V277.505ZM218.167 277.505H206.887V277.941H218.167V277.505ZM218.386 289.003V277.723H217.949V289.003H218.386ZM220.35 290.968C219.265 290.968 218.386 290.088 218.386 289.003H217.949C217.949 290.329 219.024 291.404 220.35 291.404V290.968ZM222.315 289.003C222.315 290.088 221.436 290.968 220.35 290.968V291.404C221.677 291.404 222.752 290.329 222.752 289.003H222.315ZM222.315 277.723V289.003H222.752V277.723H222.315ZM233.813 277.505H222.534V277.941H233.813V277.505ZM235.778 275.54C235.778 276.625 234.899 277.505 233.813 277.505V277.941C235.14 277.941 236.215 276.866 236.215 275.54H235.778ZM233.813 273.575C234.899 273.575 235.778 274.455 235.778 275.54L236.215 275.54C236.215 274.214 235.14 273.138 233.813 273.138V273.575ZM222.534 273.575H233.813V273.138H222.534V273.575ZM222.315 262.077V273.357H222.752V262.077H222.315Z" fill="#1CF7C3"/>
</g>
<g filter="url(#filter21_d_810_8361)">
<path fill-rule="evenodd" clip-rule="evenodd" d="M222.534 155.826C222.534 154.62 221.556 153.643 220.35 153.643C219.145 153.643 218.167 154.62 218.167 155.826V167.106H206.887C205.682 167.106 204.704 168.084 204.704 169.289C204.704 170.495 205.682 171.472 206.887 171.472H218.167V182.752C218.167 183.958 219.145 184.935 220.35 184.935C221.556 184.935 222.534 183.958 222.534 182.752V171.473H233.813C235.019 171.473 235.997 170.495 235.997 169.289C235.997 168.084 235.019 167.106 233.813 167.106H222.534V155.826Z" fill="#3ECF8E"/>
<path d="M218.167 167.106V167.325H218.386V167.106H218.167ZM218.167 171.472H218.386V171.254H218.167V171.472ZM222.534 171.473V171.254H222.315V171.473H222.534ZM235.997 169.289L235.778 169.289V169.289H235.997ZM222.534 167.106H222.315V167.325H222.534V167.106ZM220.35 153.861C221.436 153.861 222.315 154.741 222.315 155.826H222.752C222.752 154.5 221.677 153.425 220.35 153.425V153.861ZM218.386 155.826C218.386 154.741 219.265 153.861 220.35 153.861V153.425C219.024 153.425 217.949 154.5 217.949 155.826H218.386ZM218.386 167.106V155.826H217.949V167.106H218.386ZM206.887 167.325H218.167V166.888H206.887V167.325ZM204.923 169.289C204.923 168.204 205.802 167.325 206.887 167.325V166.888C205.561 166.888 204.486 167.963 204.486 169.289L204.923 169.289ZM206.887 171.254C205.802 171.254 204.923 170.375 204.923 169.289L204.486 169.289C204.486 170.616 205.561 171.691 206.887 171.691V171.254ZM218.167 171.254H206.887V171.691H218.167V171.254ZM218.386 182.752V171.472H217.949V182.752H218.386ZM220.35 184.717C219.265 184.717 218.386 183.837 218.386 182.752H217.949C217.949 184.078 219.024 185.154 220.35 185.154V184.717ZM222.315 182.752C222.315 183.837 221.436 184.717 220.35 184.717V185.154C221.677 185.154 222.752 184.078 222.752 182.752H222.315ZM222.315 171.473V182.752H222.752V171.473H222.315ZM233.813 171.254H222.534V171.691H233.813V171.254ZM235.778 169.289C235.778 170.375 234.899 171.254 233.813 171.254V171.691C235.14 171.691 236.215 170.616 236.215 169.289H235.778ZM233.813 167.325C234.899 167.325 235.778 168.204 235.778 169.289L236.215 169.289C236.215 167.963 235.14 166.888 233.813 166.888V167.325ZM222.534 167.325H233.813V166.888H222.534V167.325ZM222.315 155.826V167.106H222.752V155.826H222.315Z" fill="#1CF7C3"/>
</g>
<g filter="url(#filter22_d_810_8361)">
<path fill-rule="evenodd" clip-rule="evenodd" d="M115.158 262.077C115.158 260.871 114.18 259.894 112.975 259.894C111.769 259.894 110.791 260.871 110.791 262.077V273.357H99.5115C98.3058 273.357 97.3284 274.334 97.3284 275.54C97.3284 276.746 98.3058 277.723 99.5115 277.723H110.791V289.003C110.791 290.208 111.769 291.186 112.975 291.186C114.18 291.186 115.158 290.208 115.158 289.003V277.723H126.438C127.643 277.723 128.621 276.746 128.621 275.54C128.621 274.334 127.643 273.357 126.438 273.357H115.158V262.077Z" fill="#3ECF8E"/>
<path d="M110.791 273.357V273.575H111.01V273.357H110.791ZM97.3284 275.54L97.5467 275.54L97.3284 275.54ZM110.791 277.723H111.01V277.505H110.791V277.723ZM115.158 277.723V277.505H114.939V277.723H115.158ZM128.621 275.54L128.402 275.54V275.54H128.621ZM115.158 273.357H114.939V273.575H115.158V273.357ZM112.975 260.112C114.06 260.112 114.939 260.992 114.939 262.077H115.376C115.376 260.75 114.301 259.675 112.975 259.675V260.112ZM111.01 262.077C111.01 260.992 111.889 260.112 112.975 260.112V259.675C111.648 259.675 110.573 260.75 110.573 262.077H111.01ZM111.01 273.357V262.077H110.573V273.357H111.01ZM99.5115 273.575H110.791V273.138H99.5115V273.575ZM97.5467 275.54C97.5467 274.455 98.4264 273.575 99.5115 273.575V273.138C98.1852 273.138 97.1101 274.214 97.1101 275.54L97.5467 275.54ZM99.5115 277.505C98.4264 277.505 97.5467 276.625 97.5467 275.54L97.1101 275.54C97.1101 276.866 98.1852 277.941 99.5115 277.941V277.505ZM110.791 277.505H99.5115V277.941H110.791V277.505ZM111.01 289.003V277.723H110.573V289.003H111.01ZM112.975 290.968C111.889 290.968 111.01 290.088 111.01 289.003H110.573C110.573 290.329 111.648 291.404 112.975 291.404V290.968ZM114.939 289.003C114.939 290.088 114.06 290.968 112.975 290.968V291.404C114.301 291.404 115.376 290.329 115.376 289.003H114.939ZM114.939 277.723V289.003H115.376V277.723H114.939ZM126.438 277.505H115.158V277.941H126.438V277.505ZM128.402 275.54C128.402 276.625 127.523 277.505 126.438 277.505V277.941C127.764 277.941 128.839 276.866 128.839 275.54H128.402ZM126.438 273.575C127.523 273.575 128.402 274.455 128.402 275.54L128.839 275.54C128.839 274.214 127.764 273.138 126.438 273.138V273.575ZM115.158 273.575H126.438V273.138H115.158V273.575ZM114.939 262.077V273.357H115.376V262.077H114.939Z" fill="#1CF7C3"/>
</g>
<g filter="url(#filter23_d_810_8361)">
<path fill-rule="evenodd" clip-rule="evenodd" d="M437.286 51.6226C437.286 50.4169 436.308 49.4395 435.103 49.4395C433.897 49.4395 432.92 50.4169 432.92 51.6226V62.9026H421.64C420.434 62.9026 419.457 63.88 419.457 65.0858C419.457 66.2915 420.434 67.2689 421.64 67.2689H432.92V78.5486C432.92 79.7543 433.897 80.7317 435.103 80.7317C436.308 80.7317 437.286 79.7543 437.286 78.5486V67.2689H448.566C449.771 67.2689 450.749 66.2915 450.749 65.0858C450.749 63.88 449.771 62.9026 448.566 62.9026H437.286V51.6226Z" fill="#3ECF8E"/>
<path d="M432.92 62.9026V63.1209H433.138V62.9026H432.92ZM432.92 67.2689H433.138V67.0506H432.92V67.2689ZM437.286 67.2689V67.0506H437.068V67.2689H437.286ZM448.566 67.2689V67.0506V67.2689ZM450.749 65.0858H450.531H450.749ZM437.286 62.9026H437.068V63.1209H437.286V62.9026ZM435.103 49.6578C436.188 49.6578 437.068 50.5374 437.068 51.6226H437.504C437.504 50.2963 436.429 49.2211 435.103 49.2211V49.6578ZM433.138 51.6226C433.138 50.5374 434.018 49.6578 435.103 49.6578V49.2211C433.776 49.2211 432.701 50.2963 432.701 51.6226H433.138ZM433.138 62.9026V51.6226H432.701V62.9026H433.138ZM421.64 63.1209H432.92V62.6843H421.64V63.1209ZM419.675 65.0858C419.675 64.0006 420.555 63.1209 421.64 63.1209V62.6843C420.313 62.6843 419.238 63.7595 419.238 65.0858H419.675ZM421.64 67.0506C420.555 67.0506 419.675 66.1709 419.675 65.0858H419.238C419.238 66.412 420.313 67.4872 421.64 67.4872V67.0506ZM432.92 67.0506H421.64V67.4872H432.92V67.0506ZM433.138 78.5486V67.2689H432.701V78.5486H433.138ZM435.103 80.5134C434.018 80.5134 433.138 79.6337 433.138 78.5486H432.701C432.701 79.8749 433.776 80.95 435.103 80.95V80.5134ZM437.068 78.5486C437.068 79.6337 436.188 80.5134 435.103 80.5134V80.95C436.429 80.95 437.504 79.8749 437.504 78.5486H437.068ZM437.068 67.2689V78.5486H437.504V67.2689H437.068ZM448.566 67.0506H437.286V67.4872H448.566V67.0506ZM450.531 65.0858C450.531 66.1709 449.651 67.0506 448.566 67.0506V67.4872C449.892 67.4872 450.967 66.412 450.967 65.0858H450.531ZM448.566 63.1209C449.651 63.1209 450.531 64.0006 450.531 65.0858H450.967C450.967 63.7595 449.892 62.6843 448.566 62.6843V63.1209ZM437.286 63.1209H448.566V62.6843H437.286V63.1209ZM437.068 51.6226V62.9026H437.504V51.6226H437.068Z" fill="#1CF7C3"/>
</g>
<g filter="url(#filter24_d_810_8361)">
<path fill-rule="evenodd" clip-rule="evenodd" d="M543.117 51.6226C543.117 50.4169 542.139 49.4395 540.934 49.4395C539.728 49.4395 538.751 50.4169 538.751 51.6226V62.9026H527.471C526.265 62.9026 525.288 63.88 525.288 65.0858C525.288 66.2915 526.265 67.2689 527.471 67.2689H538.751V78.5486C538.751 79.7543 539.728 80.7317 540.934 80.7317C542.139 80.7317 543.117 79.7543 543.117 78.5486V67.2689H554.397C555.602 67.2689 556.58 66.2915 556.58 65.0858C556.58 63.88 555.602 62.9026 554.397 62.9026H543.117V51.6226Z" fill="#3ECF8E"/>
<path d="M538.751 62.9026V63.1209H538.969V62.9026H538.751ZM538.751 67.2689H538.969V67.0506H538.751V67.2689ZM543.117 67.2689V67.0506H542.899V67.2689H543.117ZM554.397 67.2689V67.0506V67.2689ZM556.58 65.0858H556.362H556.58ZM543.117 62.9026H542.899V63.1209H543.117V62.9026ZM540.934 49.6578C542.019 49.6578 542.899 50.5374 542.899 51.6226H543.335C543.335 50.2963 542.26 49.2211 540.934 49.2211V49.6578ZM538.969 51.6226C538.969 50.5374 539.849 49.6578 540.934 49.6578V49.2211C539.607 49.2211 538.532 50.2963 538.532 51.6226H538.969ZM538.969 62.9026V51.6226H538.532V62.9026H538.969ZM527.471 63.1209H538.751V62.6843H527.471V63.1209ZM525.506 65.0858C525.506 64.0006 526.386 63.1209 527.471 63.1209V62.6843C526.144 62.6843 525.069 63.7595 525.069 65.0858H525.506ZM527.471 67.0506C526.386 67.0506 525.506 66.1709 525.506 65.0858H525.069C525.069 66.412 526.144 67.4872 527.471 67.4872V67.0506ZM538.751 67.0506H527.471V67.4872H538.751V67.0506ZM538.969 78.5486V67.2689H538.532V78.5486H538.969ZM540.934 80.5134C539.849 80.5134 538.969 79.6337 538.969 78.5486H538.532C538.532 79.8749 539.607 80.95 540.934 80.95V80.5134ZM542.899 78.5486C542.899 79.6337 542.019 80.5134 540.934 80.5134V80.95C542.26 80.95 543.335 79.8749 543.335 78.5486H542.899ZM542.899 67.2689V78.5486H543.335V67.2689H542.899ZM554.397 67.0506H543.117V67.4872H554.397V67.0506ZM556.362 65.0858C556.362 66.1709 555.482 67.0506 554.397 67.0506V67.4872C555.723 67.4872 556.798 66.412 556.798 65.0858H556.362ZM554.397 63.1209C555.482 63.1209 556.362 64.0006 556.362 65.0858H556.798C556.798 63.7595 555.723 62.6843 554.397 62.6843V63.1209ZM543.117 63.1209H554.397V62.6843H543.117V63.1209ZM542.899 51.6226V62.9026H543.335V51.6226H542.899Z" fill="#1CF7C3"/>
</g>
<g filter="url(#filter25_d_810_8361)">
<path fill-rule="evenodd" clip-rule="evenodd" d="M329.91 51.6226C329.91 50.4169 328.932 49.4395 327.727 49.4395C326.521 49.4395 325.544 50.4169 325.544 51.6226V62.9026H314.264C313.058 62.9026 312.081 63.88 312.081 65.0858C312.081 66.2915 313.058 67.2689 314.264 67.2689H325.544V78.5486C325.544 79.7543 326.521 80.7317 327.727 80.7317C328.932 80.7317 329.91 79.7543 329.91 78.5486V67.2689H341.19C342.395 67.2689 343.373 66.2915 343.373 65.0858C343.373 63.88 342.395 62.9026 341.19 62.9026H329.91V51.6226Z" fill="#3ECF8E"/>
<path d="M325.544 62.9026V63.1209H325.762V62.9026H325.544ZM312.081 65.0858H312.299H312.081ZM325.544 67.2689H325.762V67.0506H325.544V67.2689ZM329.91 67.2689V67.0506H329.692V67.2689H329.91ZM341.19 67.2689V67.0506V67.2689ZM343.373 65.0858H343.155H343.373ZM329.91 62.9026H329.692V63.1209H329.91V62.9026ZM327.727 49.6578C328.812 49.6578 329.692 50.5374 329.692 51.6226H330.128C330.128 50.2963 329.053 49.2211 327.727 49.2211V49.6578ZM325.762 51.6226C325.762 50.5374 326.642 49.6578 327.727 49.6578V49.2211C326.4 49.2211 325.325 50.2963 325.325 51.6226H325.762ZM325.762 62.9026V51.6226H325.325V62.9026H325.762ZM314.264 63.1209H325.544V62.6843H314.264V63.1209ZM312.299 65.0858C312.299 64.0006 313.179 63.1209 314.264 63.1209V62.6843C312.937 62.6843 311.862 63.7595 311.862 65.0858H312.299ZM314.264 67.0506C313.179 67.0506 312.299 66.1709 312.299 65.0858H311.862C311.862 66.412 312.937 67.4872 314.264 67.4872V67.0506ZM325.544 67.0506H314.264V67.4872H325.544V67.0506ZM325.762 78.5486V67.2689H325.325V78.5486H325.762ZM327.727 80.5134C326.642 80.5134 325.762 79.6337 325.762 78.5486H325.325C325.325 79.8749 326.4 80.95 327.727 80.95V80.5134ZM329.692 78.5486C329.692 79.6337 328.812 80.5134 327.727 80.5134V80.95C329.053 80.95 330.128 79.8749 330.128 78.5486H329.692ZM329.692 67.2689V78.5486H330.128V67.2689H329.692ZM341.19 67.0506H329.91V67.4872H341.19V67.0506ZM343.155 65.0858C343.155 66.1709 342.275 67.0506 341.19 67.0506V67.4872C342.516 67.4872 343.591 66.412 343.591 65.0858H343.155ZM341.19 63.1209C342.275 63.1209 343.155 64.0006 343.155 65.0858H343.591C343.591 63.7595 342.516 62.6843 341.19 62.6843V63.1209ZM329.91 63.1209H341.19V62.6843H329.91V63.1209ZM329.692 51.6226V62.9026H330.128V51.6226H329.692Z" fill="#1CF7C3"/>
</g>
<g filter="url(#filter26_d_810_8361)">
<path fill-rule="evenodd" clip-rule="evenodd" d="M222.534 51.6226C222.534 50.4169 221.556 49.4395 220.35 49.4395C219.145 49.4395 218.167 50.4169 218.167 51.6226V62.9026H206.887C205.682 62.9026 204.704 63.88 204.704 65.0858C204.704 66.2915 205.682 67.2689 206.887 67.2689H218.167V78.5486C218.167 79.7543 219.145 80.7317 220.35 80.7317C221.556 80.7317 222.534 79.7543 222.534 78.5486V67.2689H233.813C235.019 67.2689 235.997 66.2915 235.997 65.0858C235.997 63.88 235.019 62.9026 233.813 62.9026H222.534V51.6226Z" fill="#3ECF8E"/>
<path d="M218.167 62.9026V63.1209H218.386V62.9026H218.167ZM218.167 67.2689H218.386V67.0506H218.167V67.2689ZM222.534 67.2689V67.0506H222.315V67.2689H222.534ZM233.813 67.2689V67.0506V67.2689ZM235.997 65.0858H235.778H235.997ZM222.534 62.9026H222.315V63.1209H222.534V62.9026ZM220.35 49.6578C221.436 49.6578 222.315 50.5374 222.315 51.6226H222.752C222.752 50.2963 221.677 49.2211 220.35 49.2211V49.6578ZM218.386 51.6226C218.386 50.5374 219.265 49.6578 220.35 49.6578V49.2211C219.024 49.2211 217.949 50.2963 217.949 51.6226H218.386ZM218.386 62.9026V51.6226H217.949V62.9026H218.386ZM206.887 63.1209H218.167V62.6843H206.887V63.1209ZM204.923 65.0858C204.923 64.0006 205.802 63.1209 206.887 63.1209V62.6843C205.561 62.6843 204.486 63.7595 204.486 65.0858H204.923ZM206.887 67.0506C205.802 67.0506 204.923 66.1709 204.923 65.0858H204.486C204.486 66.412 205.561 67.4872 206.887 67.4872V67.0506ZM218.167 67.0506H206.887V67.4872H218.167V67.0506ZM218.386 78.5486V67.2689H217.949V78.5486H218.386ZM220.35 80.5134C219.265 80.5134 218.386 79.6337 218.386 78.5486H217.949C217.949 79.8749 219.024 80.95 220.35 80.95V80.5134ZM222.315 78.5486C222.315 79.6337 221.436 80.5134 220.35 80.5134V80.95C221.677 80.95 222.752 79.8749 222.752 78.5486H222.315ZM222.315 67.2689V78.5486H222.752V67.2689H222.315ZM233.813 67.0506H222.534V67.4872H233.813V67.0506ZM235.778 65.0858C235.778 66.1709 234.899 67.0506 233.813 67.0506V67.4872C235.14 67.4872 236.215 66.412 236.215 65.0858H235.778ZM233.813 63.1209C234.899 63.1209 235.778 64.0006 235.778 65.0858H236.215C236.215 63.7595 235.14 62.6843 233.813 62.6843V63.1209ZM222.534 63.1209H233.813V62.6843H222.534V63.1209ZM222.315 51.6226V62.9026H222.752V51.6226H222.315Z" fill="#1CF7C3"/>
</g>
<g filter="url(#filter27_d_810_8361)">
<path fill-rule="evenodd" clip-rule="evenodd" d="M115.158 51.6226C115.158 50.4169 114.18 49.4395 112.975 49.4395C111.769 49.4395 110.791 50.4169 110.791 51.6226V62.9026H99.5115C98.3058 62.9026 97.3284 63.88 97.3284 65.0858C97.3284 66.2915 98.3058 67.2689 99.5115 67.2689H110.791V78.5486C110.791 79.7543 111.769 80.7317 112.975 80.7317C114.18 80.7317 115.158 79.7543 115.158 78.5486V67.2689H126.438C127.643 67.2689 128.621 66.2915 128.621 65.0858C128.621 63.88 127.643 62.9026 126.438 62.9026H115.158V51.6226Z" fill="#3ECF8E"/>
<path d="M110.791 62.9026V63.1209H111.01V62.9026H110.791ZM97.3284 65.0858H97.5467H97.3284ZM110.791 67.2689H111.01V67.0506H110.791V67.2689ZM115.158 67.2689V67.0506H114.939V67.2689H115.158ZM126.438 67.2689V67.0506V67.2689ZM128.621 65.0858H128.402H128.621ZM115.158 62.9026H114.939V63.1209H115.158V62.9026ZM112.975 49.6578C114.06 49.6578 114.939 50.5374 114.939 51.6226H115.376C115.376 50.2963 114.301 49.2211 112.975 49.2211V49.6578ZM111.01 51.6226C111.01 50.5374 111.889 49.6578 112.975 49.6578V49.2211C111.648 49.2211 110.573 50.2963 110.573 51.6226H111.01ZM111.01 62.9026V51.6226H110.573V62.9026H111.01ZM99.5115 63.1209H110.791V62.6843H99.5115V63.1209ZM97.5467 65.0858C97.5467 64.0006 98.4264 63.1209 99.5115 63.1209V62.6843C98.1852 62.6843 97.1101 63.7595 97.1101 65.0858H97.5467ZM99.5115 67.0506C98.4264 67.0506 97.5467 66.1709 97.5467 65.0858H97.1101C97.1101 66.412 98.1852 67.4872 99.5115 67.4872V67.0506ZM110.791 67.0506H99.5115V67.4872H110.791V67.0506ZM111.01 78.5486V67.2689H110.573V78.5486H111.01ZM112.975 80.5134C111.889 80.5134 111.01 79.6337 111.01 78.5486H110.573C110.573 79.8749 111.648 80.95 112.975 80.95V80.5134ZM114.939 78.5486C114.939 79.6337 114.06 80.5134 112.975 80.5134V80.95C114.301 80.95 115.376 79.8749 115.376 78.5486H114.939ZM114.939 67.2689V78.5486H115.376V67.2689H114.939ZM126.438 67.0506H115.158V67.4872H126.438V67.0506ZM128.402 65.0858C128.402 66.1709 127.523 67.0506 126.438 67.0506V67.4872C127.764 67.4872 128.839 66.412 128.839 65.0858H128.402ZM126.438 63.1209C127.523 63.1209 128.402 64.0006 128.402 65.0858H128.839C128.839 63.7595 127.764 62.6843 126.438 62.6843V63.1209ZM115.158 63.1209H126.438V62.6843H115.158V63.1209ZM114.939 51.6226V62.9026H115.376V51.6226H114.939Z" fill="#1CF7C3"/>
</g>
<g filter="url(#filter28_d_810_8361)">
<path fill-rule="evenodd" clip-rule="evenodd" d="M115.158 155.826C115.158 154.62 114.18 153.643 112.975 153.643C111.769 153.643 110.791 154.62 110.791 155.826V167.106H99.5115C98.3058 167.106 97.3284 168.084 97.3284 169.289C97.3284 170.495 98.3058 171.472 99.5115 171.472H110.791V182.752C110.791 183.958 111.769 184.935 112.975 184.935C114.18 184.935 115.158 183.958 115.158 182.752V171.473H126.438C127.643 171.473 128.621 170.495 128.621 169.289C128.621 168.084 127.643 167.106 126.438 167.106H115.158V155.826Z" fill="#3ECF8E"/>
<path d="M110.791 167.106V167.325H111.01V167.106H110.791ZM97.3284 169.289L97.5467 169.289L97.3284 169.289ZM110.791 171.472H111.01V171.254H110.791V171.472ZM115.158 171.473V171.254H114.939V171.473H115.158ZM128.621 169.289L128.402 169.289V169.289H128.621ZM115.158 167.106H114.939V167.325H115.158V167.106ZM112.975 153.861C114.06 153.861 114.939 154.741 114.939 155.826H115.376C115.376 154.5 114.301 153.425 112.975 153.425V153.861ZM111.01 155.826C111.01 154.741 111.889 153.861 112.975 153.861V153.425C111.648 153.425 110.573 154.5 110.573 155.826H111.01ZM111.01 167.106V155.826H110.573V167.106H111.01ZM99.5115 167.325H110.791V166.888H99.5115V167.325ZM97.5467 169.289C97.5467 168.204 98.4264 167.325 99.5115 167.325V166.888C98.1852 166.888 97.1101 167.963 97.1101 169.289L97.5467 169.289ZM99.5115 171.254C98.4264 171.254 97.5467 170.375 97.5467 169.289L97.1101 169.289C97.1101 170.616 98.1852 171.691 99.5115 171.691V171.254ZM110.791 171.254H99.5115V171.691H110.791V171.254ZM111.01 182.752V171.472H110.573V182.752H111.01ZM112.975 184.717C111.889 184.717 111.01 183.837 111.01 182.752H110.573C110.573 184.078 111.648 185.154 112.975 185.154V184.717ZM114.939 182.752C114.939 183.837 114.06 184.717 112.975 184.717V185.154C114.301 185.154 115.376 184.078 115.376 182.752H114.939ZM114.939 171.473V182.752H115.376V171.473H114.939ZM126.438 171.254H115.158V171.691H126.438V171.254ZM128.402 169.289C128.402 170.375 127.523 171.254 126.438 171.254V171.691C127.764 171.691 128.839 170.616 128.839 169.289H128.402ZM126.438 167.325C127.523 167.325 128.402 168.204 128.402 169.289L128.839 169.289C128.839 167.963 127.764 166.888 126.438 166.888V167.325ZM115.158 167.325H126.438V166.888H115.158V167.325ZM114.939 155.826V167.106H115.376V155.826H114.939Z" fill="#1CF7C3"/>
</g>
<g opacity="0.5">
<path d="M167.651 219.108L167.651 232.039" stroke="white" stroke-width="0.436627" stroke-linecap="round"/>
<path d="M174.116 225.573L161.185 225.573" stroke="white" stroke-width="0.436627" stroke-linecap="round"/>
<path d="M382.128 219.108L382.128 232.039" stroke="white" stroke-width="0.436627" stroke-linecap="round"/>
<path d="M388.594 225.573L375.663 225.573" stroke="white" stroke-width="0.436627" stroke-linecap="round"/>
<path d="M274.276 219.108L274.276 232.039" stroke="white" stroke-width="0.436627" stroke-linecap="round"/>
<path d="M280.742 225.573L267.811 225.573" stroke="white" stroke-width="0.436627" stroke-linecap="round"/>
<path d="M488.333 219.108L488.333 232.039" stroke="white" stroke-width="0.436627" stroke-linecap="round"/>
<path d="M494.799 225.573L481.868 225.573" stroke="white" stroke-width="0.436627" stroke-linecap="round"/>
<path d="M167.651 111.108L167.651 124.039" stroke="white" stroke-width="0.436627" stroke-linecap="round"/>
<path d="M174.116 117.573L161.185 117.573" stroke="white" stroke-width="0.436627" stroke-linecap="round"/>
<path d="M382.128 111.108L382.128 124.039" stroke="white" stroke-width="0.436627" stroke-linecap="round"/>
<path d="M388.594 117.573L375.663 117.573" stroke="white" stroke-width="0.436627" stroke-linecap="round"/>
<path d="M274.276 111.108L274.276 124.039" stroke="white" stroke-width="0.436627" stroke-linecap="round"/>
<path d="M280.742 117.573L267.811 117.573" stroke="white" stroke-width="0.436627" stroke-linecap="round"/>
<path d="M488.333 111.108L488.333 124.039" stroke="white" stroke-width="0.436627" stroke-linecap="round"/>
<path d="M494.799 117.573L481.868 117.573" stroke="white" stroke-width="0.436627" stroke-linecap="round"/>
<path d="M167.655 238.472L167.655 320.426" stroke="white" stroke-width="0.436627" stroke-linecap="round" stroke-dasharray="2.62 2.62"/>
<path d="M274.276 238.472L274.276 320.426" stroke="white" stroke-width="0.436627" stroke-linecap="round" stroke-dasharray="2.62 2.62"/>
<path d="M382.128 238.472L382.128 320.426" stroke="white" stroke-width="0.436627" stroke-linecap="round" stroke-dasharray="2.62 2.62"/>
<path d="M488.333 238.472L488.333 320.426" stroke="white" stroke-width="0.436627" stroke-linecap="round" stroke-dasharray="2.62 2.62"/>
<path d="M167.655 130.34L167.655 212.294" stroke="white" stroke-width="0.436627" stroke-linecap="round" stroke-dasharray="2.62 2.62"/>
<path d="M274.276 130.34L274.276 212.294" stroke="white" stroke-width="0.436627" stroke-linecap="round" stroke-dasharray="2.62 2.62"/>
<path d="M382.128 130.34L382.128 212.294" stroke="white" stroke-width="0.436627" stroke-linecap="round" stroke-dasharray="2.62 2.62"/>
<path d="M488.333 130.34L488.333 212.294" stroke="white" stroke-width="0.436627" stroke-linecap="round" stroke-dasharray="2.62 2.62"/>
<path d="M167.655 23.3396L167.655 105.294" stroke="white" stroke-width="0.436627" stroke-linecap="round" stroke-dasharray="2.62 2.62"/>
<path d="M274.276 23.3396L274.276 105.294" stroke="white" stroke-width="0.436627" stroke-linecap="round" stroke-dasharray="2.62 2.62"/>
<path d="M382.128 23.3396L382.128 105.294" stroke="white" stroke-width="0.436627" stroke-linecap="round" stroke-dasharray="2.62 2.62"/>
<path d="M488.333 23.3396L488.333 105.294" stroke="white" stroke-width="0.436627" stroke-linecap="round" stroke-dasharray="2.62 2.62"/>
</g>
<g opacity="0.9" filter="url(#filter29_ddi_810_8361)">
<rect x="280.742" y="123.417" width="94.9204" height="94.9204" rx="20.9581" fill="#1C1C1C"/>
<rect x="281.242" y="123.917" width="93.9204" height="93.9204" rx="20.4581" stroke="#3FCF8E"/>
</g>
<g filter="url(#filter30_d_810_8361)">
<path fill-rule="evenodd" clip-rule="evenodd" d="M330.386 155.826C330.386 154.62 329.408 153.643 328.203 153.643C326.997 153.643 326.019 154.62 326.019 155.826V167.106H314.74C313.534 167.106 312.556 168.084 312.556 169.289C312.556 170.495 313.534 171.472 314.74 171.472H326.019V182.752C326.019 183.958 326.997 184.935 328.203 184.935C329.408 184.935 330.386 183.958 330.386 182.752V171.473H341.666C342.871 171.473 343.849 170.495 343.849 169.289C343.849 168.084 342.871 167.106 341.666 167.106H330.386V155.826Z" fill="#3ECF8E"/>
<path d="M326.019 167.106V167.325H326.238V167.106H326.019ZM326.019 171.472H326.238V171.254H326.019V171.472ZM330.386 171.473V171.254H330.167V171.473H330.386ZM343.849 169.289L343.63 169.289V169.289H343.849ZM330.386 167.106H330.167V167.325H330.386V167.106ZM328.203 153.861C329.288 153.861 330.167 154.741 330.167 155.826H330.604C330.604 154.5 329.529 153.425 328.203 153.425V153.861ZM326.238 155.826C326.238 154.741 327.117 153.861 328.203 153.861V153.425C326.876 153.425 325.801 154.5 325.801 155.826H326.238ZM326.238 167.106V155.826H325.801V167.106H326.238ZM314.74 167.325H326.019V166.888H314.74V167.325ZM312.775 169.289C312.775 168.204 313.654 167.325 314.74 167.325V166.888C313.413 166.888 312.338 167.963 312.338 169.289L312.775 169.289ZM314.74 171.254C313.654 171.254 312.775 170.375 312.775 169.289L312.338 169.289C312.338 170.616 313.413 171.691 314.74 171.691V171.254ZM326.019 171.254H314.74V171.691H326.019V171.254ZM326.238 182.752V171.472H325.801V182.752H326.238ZM328.203 184.717C327.117 184.717 326.238 183.837 326.238 182.752H325.801C325.801 184.078 326.876 185.154 328.203 185.154V184.717ZM330.167 182.752C330.167 183.837 329.288 184.717 328.203 184.717V185.154C329.529 185.154 330.604 184.078 330.604 182.752H330.167ZM330.167 171.473V182.752H330.604V171.473H330.167ZM341.666 171.254H330.386V171.691H341.666V171.254ZM343.63 169.289C343.63 170.375 342.751 171.254 341.666 171.254V171.691C342.992 171.691 344.067 170.616 344.067 169.289H343.63ZM341.666 167.325C342.751 167.325 343.63 168.204 343.63 169.289L344.067 169.289C344.067 167.963 342.992 166.888 341.666 166.888V167.325ZM330.386 167.325H341.666V166.888H330.386V167.325ZM330.167 155.826V167.106H330.604V155.826H330.167Z" fill="#1CF7C3"/>
</g>
</g>
<defs>
<filter id="filter0_f_810_8361" x="32.0741" y="-16.9112" width="610.263" height="392.27" filterUnits="userSpaceOnUse" color-interpolation-filters="sRGB">
<feFlood flood-opacity="0" result="BackgroundImageFix"/>
<feBlend mode="normal" in="SourceGraphic" in2="BackgroundImageFix" result="shape"/>
<feGaussianBlur stdDeviation="56.7615" result="effect1_foregroundBlur_810_8361"/>
</filter>
<filter id="filter1_ddi_810_8361" x="48.9851" y="-0.838615" width="129.851" height="129.851" filterUnits="userSpaceOnUse" color-interpolation-filters="sRGB">
<feFlood flood-opacity="0" result="BackgroundImageFix"/>
<feColorMatrix in="SourceAlpha" type="matrix" values="0 0 0 0 0 0 0 0 0 0 0 0 0 0 0 0 0 0 127 0" result="hardAlpha"/>
<feOffset/>
<feGaussianBlur stdDeviation="8.73254"/>
<feComposite in2="hardAlpha" operator="out"/>
<feColorMatrix type="matrix" values="0 0 0 0 0.239216 0 0 0 0 0.796078 0 0 0 0 0.54902 0 0 0 1 0"/>
<feBlend mode="normal" in2="BackgroundImageFix" result="effect1_dropShadow_810_8361"/>
<feColorMatrix in="SourceAlpha" type="matrix" values="0 0 0 0 0 0 0 0 0 0 0 0 0 0 0 0 0 0 127 0" result="hardAlpha"/>
<feOffset/>
<feComposite in2="hardAlpha" operator="out"/>
<feColorMatrix type="matrix" values="0 0 0 0 0.239216 0 0 0 0 0.796078 0 0 0 0 0.54902 0 0 0 1 0"/>
<feBlend mode="normal" in2="effect1_dropShadow_810_8361" result="effect2_dropShadow_810_8361"/>
<feBlend mode="normal" in="SourceGraphic" in2="effect2_dropShadow_810_8361" result="shape"/>
<feColorMatrix in="SourceAlpha" type="matrix" values="0 0 0 0 0 0 0 0 0 0 0 0 0 0 0 0 0 0 127 0" result="hardAlpha"/>
<feOffset dy="3.49302"/>
<feGaussianBlur stdDeviation="8.73254"/>
<feComposite in2="hardAlpha" operator="arithmetic" k2="-1" k3="1"/>
<feColorMatrix type="matrix" values="0 0 0 0 0 0 0 0 0 0 0 0 0 0 0 0 0 0 1 0"/>
<feBlend mode="normal" in2="shape" result="effect3_innerShadow_810_8361"/>
</filter>
<filter id="filter2_ddi_810_8361" x="156.131" y="-0.838615" width="129.851" height="129.851" filterUnits="userSpaceOnUse" color-interpolation-filters="sRGB">
<feFlood flood-opacity="0" result="BackgroundImageFix"/>
<feColorMatrix in="SourceAlpha" type="matrix" values="0 0 0 0 0 0 0 0 0 0 0 0 0 0 0 0 0 0 127 0" result="hardAlpha"/>
<feOffset/>
<feGaussianBlur stdDeviation="8.73254"/>
<feComposite in2="hardAlpha" operator="out"/>
<feColorMatrix type="matrix" values="0 0 0 0 0.239216 0 0 0 0 0.796078 0 0 0 0 0.54902 0 0 0 1 0"/>
<feBlend mode="normal" in2="BackgroundImageFix" result="effect1_dropShadow_810_8361"/>
<feColorMatrix in="SourceAlpha" type="matrix" values="0 0 0 0 0 0 0 0 0 0 0 0 0 0 0 0 0 0 127 0" result="hardAlpha"/>
<feOffset/>
<feComposite in2="hardAlpha" operator="out"/>
<feColorMatrix type="matrix" values="0 0 0 0 0.239216 0 0 0 0 0.796078 0 0 0 0 0.54902 0 0 0 1 0"/>
<feBlend mode="normal" in2="effect1_dropShadow_810_8361" result="effect2_dropShadow_810_8361"/>
<feBlend mode="normal" in="SourceGraphic" in2="effect2_dropShadow_810_8361" result="shape"/>
<feColorMatrix in="SourceAlpha" type="matrix" values="0 0 0 0 0 0 0 0 0 0 0 0 0 0 0 0 0 0 127 0" result="hardAlpha"/>
<feOffset dy="3.49302"/>
<feGaussianBlur stdDeviation="8.73254"/>
<feComposite in2="hardAlpha" operator="arithmetic" k2="-1" k3="1"/>
<feColorMatrix type="matrix" values="0 0 0 0 0 0 0 0 0 0 0 0 0 0 0 0 0 0 1 0"/>
<feBlend mode="normal" in2="shape" result="effect3_innerShadow_810_8361"/>
</filter>
<filter id="filter3_ddi_810_8361" x="263.277" y="-0.838615" width="129.851" height="129.851" filterUnits="userSpaceOnUse" color-interpolation-filters="sRGB">
<feFlood flood-opacity="0" result="BackgroundImageFix"/>
<feColorMatrix in="SourceAlpha" type="matrix" values="0 0 0 0 0 0 0 0 0 0 0 0 0 0 0 0 0 0 127 0" result="hardAlpha"/>
<feOffset/>
<feGaussianBlur stdDeviation="8.73254"/>
<feComposite in2="hardAlpha" operator="out"/>
<feColorMatrix type="matrix" values="0 0 0 0 0.239216 0 0 0 0 0.796078 0 0 0 0 0.54902 0 0 0 1 0"/>
<feBlend mode="normal" in2="BackgroundImageFix" result="effect1_dropShadow_810_8361"/>
<feColorMatrix in="SourceAlpha" type="matrix" values="0 0 0 0 0 0 0 0 0 0 0 0 0 0 0 0 0 0 127 0" result="hardAlpha"/>
<feOffset/>
<feComposite in2="hardAlpha" operator="out"/>
<feColorMatrix type="matrix" values="0 0 0 0 0.239216 0 0 0 0 0.796078 0 0 0 0 0.54902 0 0 0 1 0"/>
<feBlend mode="normal" in2="effect1_dropShadow_810_8361" result="effect2_dropShadow_810_8361"/>
<feBlend mode="normal" in="SourceGraphic" in2="effect2_dropShadow_810_8361" result="shape"/>
<feColorMatrix in="SourceAlpha" type="matrix" values="0 0 0 0 0 0 0 0 0 0 0 0 0 0 0 0 0 0 127 0" result="hardAlpha"/>
<feOffset dy="3.49302"/>
<feGaussianBlur stdDeviation="8.73254"/>
<feComposite in2="hardAlpha" operator="arithmetic" k2="-1" k3="1"/>
<feColorMatrix type="matrix" values="0 0 0 0 0 0 0 0 0 0 0 0 0 0 0 0 0 0 1 0"/>
<feBlend mode="normal" in2="shape" result="effect3_innerShadow_810_8361"/>
</filter>
<filter id="filter4_ddi_810_8361" x="370.423" y="-0.838615" width="129.851" height="129.851" filterUnits="userSpaceOnUse" color-interpolation-filters="sRGB">
<feFlood flood-opacity="0" result="BackgroundImageFix"/>
<feColorMatrix in="SourceAlpha" type="matrix" values="0 0 0 0 0 0 0 0 0 0 0 0 0 0 0 0 0 0 127 0" result="hardAlpha"/>
<feOffset/>
<feGaussianBlur stdDeviation="8.73254"/>
<feComposite in2="hardAlpha" operator="out"/>
<feColorMatrix type="matrix" values="0 0 0 0 0.239216 0 0 0 0 0.796078 0 0 0 0 0.54902 0 0 0 1 0"/>
<feBlend mode="normal" in2="BackgroundImageFix" result="effect1_dropShadow_810_8361"/>
<feColorMatrix in="SourceAlpha" type="matrix" values="0 0 0 0 0 0 0 0 0 0 0 0 0 0 0 0 0 0 127 0" result="hardAlpha"/>
<feOffset/>
<feComposite in2="hardAlpha" operator="out"/>
<feColorMatrix type="matrix" values="0 0 0 0 0.239216 0 0 0 0 0.796078 0 0 0 0 0.54902 0 0 0 1 0"/>
<feBlend mode="normal" in2="effect1_dropShadow_810_8361" result="effect2_dropShadow_810_8361"/>
<feBlend mode="normal" in="SourceGraphic" in2="effect2_dropShadow_810_8361" result="shape"/>
<feColorMatrix in="SourceAlpha" type="matrix" values="0 0 0 0 0 0 0 0 0 0 0 0 0 0 0 0 0 0 127 0" result="hardAlpha"/>
<feOffset dy="3.49302"/>
<feGaussianBlur stdDeviation="8.73254"/>
<feComposite in2="hardAlpha" operator="arithmetic" k2="-1" k3="1"/>
<feColorMatrix type="matrix" values="0 0 0 0 0 0 0 0 0 0 0 0 0 0 0 0 0 0 1 0"/>
<feBlend mode="normal" in2="shape" result="effect3_innerShadow_810_8361"/>
</filter>
<filter id="filter5_ddi_810_8361" x="477.569" y="-0.838615" width="129.851" height="129.851" filterUnits="userSpaceOnUse" color-interpolation-filters="sRGB">
<feFlood flood-opacity="0" result="BackgroundImageFix"/>
<feColorMatrix in="SourceAlpha" type="matrix" values="0 0 0 0 0 0 0 0 0 0 0 0 0 0 0 0 0 0 127 0" result="hardAlpha"/>
<feOffset/>
<feGaussianBlur stdDeviation="8.73254"/>
<feComposite in2="hardAlpha" operator="out"/>
<feColorMatrix type="matrix" values="0 0 0 0 0.239216 0 0 0 0 0.796078 0 0 0 0 0.54902 0 0 0 1 0"/>
<feBlend mode="normal" in2="BackgroundImageFix" result="effect1_dropShadow_810_8361"/>
<feColorMatrix in="SourceAlpha" type="matrix" values="0 0 0 0 0 0 0 0 0 0 0 0 0 0 0 0 0 0 127 0" result="hardAlpha"/>
<feOffset/>
<feComposite in2="hardAlpha" operator="out"/>
<feColorMatrix type="matrix" values="0 0 0 0 0.239216 0 0 0 0 0.796078 0 0 0 0 0.54902 0 0 0 1 0"/>
<feBlend mode="normal" in2="effect1_dropShadow_810_8361" result="effect2_dropShadow_810_8361"/>
<feBlend mode="normal" in="SourceGraphic" in2="effect2_dropShadow_810_8361" result="shape"/>
<feColorMatrix in="SourceAlpha" type="matrix" values="0 0 0 0 0 0 0 0 0 0 0 0 0 0 0 0 0 0 127 0" result="hardAlpha"/>
<feOffset dy="3.49302"/>
<feGaussianBlur stdDeviation="8.73254"/>
<feComposite in2="hardAlpha" operator="arithmetic" k2="-1" k3="1"/>
<feColorMatrix type="matrix" values="0 0 0 0 0 0 0 0 0 0 0 0 0 0 0 0 0 0 1 0"/>
<feBlend mode="normal" in2="shape" result="effect3_innerShadow_810_8361"/>
</filter>
<filter id="filter6_ddi_810_8361" x="48.9851" y="106.082" width="129.851" height="129.851" filterUnits="userSpaceOnUse" color-interpolation-filters="sRGB">
<feFlood flood-opacity="0" result="BackgroundImageFix"/>
<feColorMatrix in="SourceAlpha" type="matrix" values="0 0 0 0 0 0 0 0 0 0 0 0 0 0 0 0 0 0 127 0" result="hardAlpha"/>
<feOffset/>
<feGaussianBlur stdDeviation="8.73254"/>
<feComposite in2="hardAlpha" operator="out"/>
<feColorMatrix type="matrix" values="0 0 0 0 0.239216 0 0 0 0 0.796078 0 0 0 0 0.54902 0 0 0 1 0"/>
<feBlend mode="normal" in2="BackgroundImageFix" result="effect1_dropShadow_810_8361"/>
<feColorMatrix in="SourceAlpha" type="matrix" values="0 0 0 0 0 0 0 0 0 0 0 0 0 0 0 0 0 0 127 0" result="hardAlpha"/>
<feOffset/>
<feComposite in2="hardAlpha" operator="out"/>
<feColorMatrix type="matrix" values="0 0 0 0 0.239216 0 0 0 0 0.796078 0 0 0 0 0.54902 0 0 0 1 0"/>
<feBlend mode="normal" in2="effect1_dropShadow_810_8361" result="effect2_dropShadow_810_8361"/>
<feBlend mode="normal" in="SourceGraphic" in2="effect2_dropShadow_810_8361" result="shape"/>
<feColorMatrix in="SourceAlpha" type="matrix" values="0 0 0 0 0 0 0 0 0 0 0 0 0 0 0 0 0 0 127 0" result="hardAlpha"/>
<feOffset dy="3.49302"/>
<feGaussianBlur stdDeviation="8.73254"/>
<feComposite in2="hardAlpha" operator="arithmetic" k2="-1" k3="1"/>
<feColorMatrix type="matrix" values="0 0 0 0 0 0 0 0 0 0 0 0 0 0 0 0 0 0 1 0"/>
<feBlend mode="normal" in2="shape" result="effect3_innerShadow_810_8361"/>
</filter>
<filter id="filter7_ddi_810_8361" x="156.131" y="106.082" width="129.851" height="129.851" filterUnits="userSpaceOnUse" color-interpolation-filters="sRGB">
<feFlood flood-opacity="0" result="BackgroundImageFix"/>
<feColorMatrix in="SourceAlpha" type="matrix" values="0 0 0 0 0 0 0 0 0 0 0 0 0 0 0 0 0 0 127 0" result="hardAlpha"/>
<feOffset/>
<feGaussianBlur stdDeviation="8.73254"/>
<feComposite in2="hardAlpha" operator="out"/>
<feColorMatrix type="matrix" values="0 0 0 0 0.239216 0 0 0 0 0.796078 0 0 0 0 0.54902 0 0 0 1 0"/>
<feBlend mode="normal" in2="BackgroundImageFix" result="effect1_dropShadow_810_8361"/>
<feColorMatrix in="SourceAlpha" type="matrix" values="0 0 0 0 0 0 0 0 0 0 0 0 0 0 0 0 0 0 127 0" result="hardAlpha"/>
<feOffset/>
<feComposite in2="hardAlpha" operator="out"/>
<feColorMatrix type="matrix" values="0 0 0 0 0.239216 0 0 0 0 0.796078 0 0 0 0 0.54902 0 0 0 1 0"/>
<feBlend mode="normal" in2="effect1_dropShadow_810_8361" result="effect2_dropShadow_810_8361"/>
<feBlend mode="normal" in="SourceGraphic" in2="effect2_dropShadow_810_8361" result="shape"/>
<feColorMatrix in="SourceAlpha" type="matrix" values="0 0 0 0 0 0 0 0 0 0 0 0 0 0 0 0 0 0 127 0" result="hardAlpha"/>
<feOffset dy="3.49302"/>
<feGaussianBlur stdDeviation="8.73254"/>
<feComposite in2="hardAlpha" operator="arithmetic" k2="-1" k3="1"/>
<feColorMatrix type="matrix" values="0 0 0 0 0 0 0 0 0 0 0 0 0 0 0 0 0 0 1 0"/>
<feBlend mode="normal" in2="shape" result="effect3_innerShadow_810_8361"/>
</filter>
<filter id="filter8_ddi_810_8361" x="263.277" y="106.082" width="129.851" height="129.851" filterUnits="userSpaceOnUse" color-interpolation-filters="sRGB">
<feFlood flood-opacity="0" result="BackgroundImageFix"/>
<feColorMatrix in="SourceAlpha" type="matrix" values="0 0 0 0 0 0 0 0 0 0 0 0 0 0 0 0 0 0 127 0" result="hardAlpha"/>
<feOffset/>
<feGaussianBlur stdDeviation="8.73254"/>
<feComposite in2="hardAlpha" operator="out"/>
<feColorMatrix type="matrix" values="0 0 0 0 0.239216 0 0 0 0 0.796078 0 0 0 0 0.54902 0 0 0 1 0"/>
<feBlend mode="normal" in2="BackgroundImageFix" result="effect1_dropShadow_810_8361"/>
<feColorMatrix in="SourceAlpha" type="matrix" values="0 0 0 0 0 0 0 0 0 0 0 0 0 0 0 0 0 0 127 0" result="hardAlpha"/>
<feOffset/>
<feComposite in2="hardAlpha" operator="out"/>
<feColorMatrix type="matrix" values="0 0 0 0 0.239216 0 0 0 0 0.796078 0 0 0 0 0.54902 0 0 0 1 0"/>
<feBlend mode="normal" in2="effect1_dropShadow_810_8361" result="effect2_dropShadow_810_8361"/>
<feBlend mode="normal" in="SourceGraphic" in2="effect2_dropShadow_810_8361" result="shape"/>
<feColorMatrix in="SourceAlpha" type="matrix" values="0 0 0 0 0 0 0 0 0 0 0 0 0 0 0 0 0 0 127 0" result="hardAlpha"/>
<feOffset dy="3.49302"/>
<feGaussianBlur stdDeviation="8.73254"/>
<feComposite in2="hardAlpha" operator="arithmetic" k2="-1" k3="1"/>
<feColorMatrix type="matrix" values="0 0 0 0 0 0 0 0 0 0 0 0 0 0 0 0 0 0 1 0"/>
<feBlend mode="normal" in2="shape" result="effect3_innerShadow_810_8361"/>
</filter>
<filter id="filter9_ddi_810_8361" x="370.423" y="106.082" width="129.851" height="129.851" filterUnits="userSpaceOnUse" color-interpolation-filters="sRGB">
<feFlood flood-opacity="0" result="BackgroundImageFix"/>
<feColorMatrix in="SourceAlpha" type="matrix" values="0 0 0 0 0 0 0 0 0 0 0 0 0 0 0 0 0 0 127 0" result="hardAlpha"/>
<feOffset/>
<feGaussianBlur stdDeviation="8.73254"/>
<feComposite in2="hardAlpha" operator="out"/>
<feColorMatrix type="matrix" values="0 0 0 0 0.239216 0 0 0 0 0.796078 0 0 0 0 0.54902 0 0 0 1 0"/>
<feBlend mode="normal" in2="BackgroundImageFix" result="effect1_dropShadow_810_8361"/>
<feColorMatrix in="SourceAlpha" type="matrix" values="0 0 0 0 0 0 0 0 0 0 0 0 0 0 0 0 0 0 127 0" result="hardAlpha"/>
<feOffset/>
<feComposite in2="hardAlpha" operator="out"/>
<feColorMatrix type="matrix" values="0 0 0 0 0.239216 0 0 0 0 0.796078 0 0 0 0 0.54902 0 0 0 1 0"/>
<feBlend mode="normal" in2="effect1_dropShadow_810_8361" result="effect2_dropShadow_810_8361"/>
<feBlend mode="normal" in="SourceGraphic" in2="effect2_dropShadow_810_8361" result="shape"/>
<feColorMatrix in="SourceAlpha" type="matrix" values="0 0 0 0 0 0 0 0 0 0 0 0 0 0 0 0 0 0 127 0" result="hardAlpha"/>
<feOffset dy="3.49302"/>
<feGaussianBlur stdDeviation="8.73254"/>
<feComposite in2="hardAlpha" operator="arithmetic" k2="-1" k3="1"/>
<feColorMatrix type="matrix" values="0 0 0 0 0 0 0 0 0 0 0 0 0 0 0 0 0 0 1 0"/>
<feBlend mode="normal" in2="shape" result="effect3_innerShadow_810_8361"/>
</filter>
<filter id="filter10_ddi_810_8361" x="477.569" y="106.082" width="129.851" height="129.851" filterUnits="userSpaceOnUse" color-interpolation-filters="sRGB">
<feFlood flood-opacity="0" result="BackgroundImageFix"/>
<feColorMatrix in="SourceAlpha" type="matrix" values="0 0 0 0 0 0 0 0 0 0 0 0 0 0 0 0 0 0 127 0" result="hardAlpha"/>
<feOffset/>
<feGaussianBlur stdDeviation="8.73254"/>
<feComposite in2="hardAlpha" operator="out"/>
<feColorMatrix type="matrix" values="0 0 0 0 0.239216 0 0 0 0 0.796078 0 0 0 0 0.54902 0 0 0 1 0"/>
<feBlend mode="normal" in2="BackgroundImageFix" result="effect1_dropShadow_810_8361"/>
<feColorMatrix in="SourceAlpha" type="matrix" values="0 0 0 0 0 0 0 0 0 0 0 0 0 0 0 0 0 0 127 0" result="hardAlpha"/>
<feOffset/>
<feComposite in2="hardAlpha" operator="out"/>
<feColorMatrix type="matrix" values="0 0 0 0 0.239216 0 0 0 0 0.796078 0 0 0 0 0.54902 0 0 0 1 0"/>
<feBlend mode="normal" in2="effect1_dropShadow_810_8361" result="effect2_dropShadow_810_8361"/>
<feBlend mode="normal" in="SourceGraphic" in2="effect2_dropShadow_810_8361" result="shape"/>
<feColorMatrix in="SourceAlpha" type="matrix" values="0 0 0 0 0 0 0 0 0 0 0 0 0 0 0 0 0 0 127 0" result="hardAlpha"/>
<feOffset dy="3.49302"/>
<feGaussianBlur stdDeviation="8.73254"/>
<feComposite in2="hardAlpha" operator="arithmetic" k2="-1" k3="1"/>
<feColorMatrix type="matrix" values="0 0 0 0 0 0 0 0 0 0 0 0 0 0 0 0 0 0 1 0"/>
<feBlend mode="normal" in2="shape" result="effect3_innerShadow_810_8361"/>
</filter>
<filter id="filter11_ddi_810_8361" x="48.9851" y="213.002" width="129.851" height="129.851" filterUnits="userSpaceOnUse" color-interpolation-filters="sRGB">
<feFlood flood-opacity="0" result="BackgroundImageFix"/>
<feColorMatrix in="SourceAlpha" type="matrix" values="0 0 0 0 0 0 0 0 0 0 0 0 0 0 0 0 0 0 127 0" result="hardAlpha"/>
<feOffset/>
<feGaussianBlur stdDeviation="8.73254"/>
<feComposite in2="hardAlpha" operator="out"/>
<feColorMatrix type="matrix" values="0 0 0 0 0.239216 0 0 0 0 0.796078 0 0 0 0 0.54902 0 0 0 1 0"/>
<feBlend mode="normal" in2="BackgroundImageFix" result="effect1_dropShadow_810_8361"/>
<feColorMatrix in="SourceAlpha" type="matrix" values="0 0 0 0 0 0 0 0 0 0 0 0 0 0 0 0 0 0 127 0" result="hardAlpha"/>
<feOffset/>
<feComposite in2="hardAlpha" operator="out"/>
<feColorMatrix type="matrix" values="0 0 0 0 0.239216 0 0 0 0 0.796078 0 0 0 0 0.54902 0 0 0 1 0"/>
<feBlend mode="normal" in2="effect1_dropShadow_810_8361" result="effect2_dropShadow_810_8361"/>
<feBlend mode="normal" in="SourceGraphic" in2="effect2_dropShadow_810_8361" result="shape"/>
<feColorMatrix in="SourceAlpha" type="matrix" values="0 0 0 0 0 0 0 0 0 0 0 0 0 0 0 0 0 0 127 0" result="hardAlpha"/>
<feOffset dy="3.49302"/>
<feGaussianBlur stdDeviation="8.73254"/>
<feComposite in2="hardAlpha" operator="arithmetic" k2="-1" k3="1"/>
<feColorMatrix type="matrix" values="0 0 0 0 0 0 0 0 0 0 0 0 0 0 0 0 0 0 1 0"/>
<feBlend mode="normal" in2="shape" result="effect3_innerShadow_810_8361"/>
</filter>
<filter id="filter12_ddi_810_8361" x="156.131" y="213.002" width="129.851" height="129.851" filterUnits="userSpaceOnUse" color-interpolation-filters="sRGB">
<feFlood flood-opacity="0" result="BackgroundImageFix"/>
<feColorMatrix in="SourceAlpha" type="matrix" values="0 0 0 0 0 0 0 0 0 0 0 0 0 0 0 0 0 0 127 0" result="hardAlpha"/>
<feOffset/>
<feGaussianBlur stdDeviation="8.73254"/>
<feComposite in2="hardAlpha" operator="out"/>
<feColorMatrix type="matrix" values="0 0 0 0 0.239216 0 0 0 0 0.796078 0 0 0 0 0.54902 0 0 0 1 0"/>
<feBlend mode="normal" in2="BackgroundImageFix" result="effect1_dropShadow_810_8361"/>
<feColorMatrix in="SourceAlpha" type="matrix" values="0 0 0 0 0 0 0 0 0 0 0 0 0 0 0 0 0 0 127 0" result="hardAlpha"/>
<feOffset/>
<feComposite in2="hardAlpha" operator="out"/>
<feColorMatrix type="matrix" values="0 0 0 0 0.239216 0 0 0 0 0.796078 0 0 0 0 0.54902 0 0 0 1 0"/>
<feBlend mode="normal" in2="effect1_dropShadow_810_8361" result="effect2_dropShadow_810_8361"/>
<feBlend mode="normal" in="SourceGraphic" in2="effect2_dropShadow_810_8361" result="shape"/>
<feColorMatrix in="SourceAlpha" type="matrix" values="0 0 0 0 0 0 0 0 0 0 0 0 0 0 0 0 0 0 127 0" result="hardAlpha"/>
<feOffset dy="3.49302"/>
<feGaussianBlur stdDeviation="8.73254"/>
<feComposite in2="hardAlpha" operator="arithmetic" k2="-1" k3="1"/>
<feColorMatrix type="matrix" values="0 0 0 0 0 0 0 0 0 0 0 0 0 0 0 0 0 0 1 0"/>
<feBlend mode="normal" in2="shape" result="effect3_innerShadow_810_8361"/>
</filter>
<filter id="filter13_ddi_810_8361" x="263.277" y="213.002" width="129.851" height="129.851" filterUnits="userSpaceOnUse" color-interpolation-filters="sRGB">
<feFlood flood-opacity="0" result="BackgroundImageFix"/>
<feColorMatrix in="SourceAlpha" type="matrix" values="0 0 0 0 0 0 0 0 0 0 0 0 0 0 0 0 0 0 127 0" result="hardAlpha"/>
<feOffset/>
<feGaussianBlur stdDeviation="8.73254"/>
<feComposite in2="hardAlpha" operator="out"/>
<feColorMatrix type="matrix" values="0 0 0 0 0.239216 0 0 0 0 0.796078 0 0 0 0 0.54902 0 0 0 1 0"/>
<feBlend mode="normal" in2="BackgroundImageFix" result="effect1_dropShadow_810_8361"/>
<feColorMatrix in="SourceAlpha" type="matrix" values="0 0 0 0 0 0 0 0 0 0 0 0 0 0 0 0 0 0 127 0" result="hardAlpha"/>
<feOffset/>
<feComposite in2="hardAlpha" operator="out"/>
<feColorMatrix type="matrix" values="0 0 0 0 0.239216 0 0 0 0 0.796078 0 0 0 0 0.54902 0 0 0 1 0"/>
<feBlend mode="normal" in2="effect1_dropShadow_810_8361" result="effect2_dropShadow_810_8361"/>
<feBlend mode="normal" in="SourceGraphic" in2="effect2_dropShadow_810_8361" result="shape"/>
<feColorMatrix in="SourceAlpha" type="matrix" values="0 0 0 0 0 0 0 0 0 0 0 0 0 0 0 0 0 0 127 0" result="hardAlpha"/>
<feOffset dy="3.49302"/>
<feGaussianBlur stdDeviation="8.73254"/>
<feComposite in2="hardAlpha" operator="arithmetic" k2="-1" k3="1"/>
<feColorMatrix type="matrix" values="0 0 0 0 0 0 0 0 0 0 0 0 0 0 0 0 0 0 1 0"/>
<feBlend mode="normal" in2="shape" result="effect3_innerShadow_810_8361"/>
</filter>
<filter id="filter14_ddi_810_8361" x="370.423" y="213.002" width="129.851" height="129.851" filterUnits="userSpaceOnUse" color-interpolation-filters="sRGB">
<feFlood flood-opacity="0" result="BackgroundImageFix"/>
<feColorMatrix in="SourceAlpha" type="matrix" values="0 0 0 0 0 0 0 0 0 0 0 0 0 0 0 0 0 0 127 0" result="hardAlpha"/>
<feOffset/>
<feGaussianBlur stdDeviation="8.73254"/>
<feComposite in2="hardAlpha" operator="out"/>
<feColorMatrix type="matrix" values="0 0 0 0 0.239216 0 0 0 0 0.796078 0 0 0 0 0.54902 0 0 0 1 0"/>
<feBlend mode="normal" in2="BackgroundImageFix" result="effect1_dropShadow_810_8361"/>
<feColorMatrix in="SourceAlpha" type="matrix" values="0 0 0 0 0 0 0 0 0 0 0 0 0 0 0 0 0 0 127 0" result="hardAlpha"/>
<feOffset/>
<feComposite in2="hardAlpha" operator="out"/>
<feColorMatrix type="matrix" values="0 0 0 0 0.239216 0 0 0 0 0.796078 0 0 0 0 0.54902 0 0 0 1 0"/>
<feBlend mode="normal" in2="effect1_dropShadow_810_8361" result="effect2_dropShadow_810_8361"/>
<feBlend mode="normal" in="SourceGraphic" in2="effect2_dropShadow_810_8361" result="shape"/>
<feColorMatrix in="SourceAlpha" type="matrix" values="0 0 0 0 0 0 0 0 0 0 0 0 0 0 0 0 0 0 127 0" result="hardAlpha"/>
<feOffset dy="3.49302"/>
<feGaussianBlur stdDeviation="8.73254"/>
<feComposite in2="hardAlpha" operator="arithmetic" k2="-1" k3="1"/>
<feColorMatrix type="matrix" values="0 0 0 0 0 0 0 0 0 0 0 0 0 0 0 0 0 0 1 0"/>
<feBlend mode="normal" in2="shape" result="effect3_innerShadow_810_8361"/>
</filter>
<filter id="filter15_ddi_810_8361" x="477.569" y="213.002" width="129.851" height="129.851" filterUnits="userSpaceOnUse" color-interpolation-filters="sRGB">
<feFlood flood-opacity="0" result="BackgroundImageFix"/>
<feColorMatrix in="SourceAlpha" type="matrix" values="0 0 0 0 0 0 0 0 0 0 0 0 0 0 0 0 0 0 127 0" result="hardAlpha"/>
<feOffset/>
<feGaussianBlur stdDeviation="8.73254"/>
<feComposite in2="hardAlpha" operator="out"/>
<feColorMatrix type="matrix" values="0 0 0 0 0.239216 0 0 0 0 0.796078 0 0 0 0 0.54902 0 0 0 1 0"/>
<feBlend mode="normal" in2="BackgroundImageFix" result="effect1_dropShadow_810_8361"/>
<feColorMatrix in="SourceAlpha" type="matrix" values="0 0 0 0 0 0 0 0 0 0 0 0 0 0 0 0 0 0 127 0" result="hardAlpha"/>
<feOffset/>
<feComposite in2="hardAlpha" operator="out"/>
<feColorMatrix type="matrix" values="0 0 0 0 0.239216 0 0 0 0 0.796078 0 0 0 0 0.54902 0 0 0 1 0"/>
<feBlend mode="normal" in2="effect1_dropShadow_810_8361" result="effect2_dropShadow_810_8361"/>
<feBlend mode="normal" in="SourceGraphic" in2="effect2_dropShadow_810_8361" result="shape"/>
<feColorMatrix in="SourceAlpha" type="matrix" values="0 0 0 0 0 0 0 0 0 0 0 0 0 0 0 0 0 0 127 0" result="hardAlpha"/>
<feOffset dy="3.49302"/>
<feGaussianBlur stdDeviation="8.73254"/>
<feComposite in2="hardAlpha" operator="arithmetic" k2="-1" k3="1"/>
<feColorMatrix type="matrix" values="0 0 0 0 0 0 0 0 0 0 0 0 0 0 0 0 0 0 1 0"/>
<feBlend mode="normal" in2="shape" result="effect3_innerShadow_810_8361"/>
</filter>
<filter id="filter16_d_810_8361" x="415.745" y="149.932" width="38.7148" height="38.7148" filterUnits="userSpaceOnUse" color-interpolation-filters="sRGB">
<feFlood flood-opacity="0" result="BackgroundImageFix"/>
<feColorMatrix in="SourceAlpha" type="matrix" values="0 0 0 0 0 0 0 0 0 0 0 0 0 0 0 0 0 0 127 0" result="hardAlpha"/>
<feOffset/>
<feGaussianBlur stdDeviation="1.74651"/>
<feComposite in2="hardAlpha" operator="out"/>
<feColorMatrix type="matrix" values="0 0 0 0 0.109804 0 0 0 0 0.968627 0 0 0 0 0.764706 0 0 0 0.5 0"/>
<feBlend mode="normal" in2="BackgroundImageFix" result="effect1_dropShadow_810_8361"/>
<feBlend mode="normal" in="SourceGraphic" in2="effect1_dropShadow_810_8361" result="shape"/>
</filter>
<filter id="filter17_d_810_8361" x="415.745" y="256.182" width="38.7148" height="38.7148" filterUnits="userSpaceOnUse" color-interpolation-filters="sRGB">
<feFlood flood-opacity="0" result="BackgroundImageFix"/>
<feColorMatrix in="SourceAlpha" type="matrix" values="0 0 0 0 0 0 0 0 0 0 0 0 0 0 0 0 0 0 127 0" result="hardAlpha"/>
<feOffset/>
<feGaussianBlur stdDeviation="1.74651"/>
<feComposite in2="hardAlpha" operator="out"/>
<feColorMatrix type="matrix" values="0 0 0 0 0.109804 0 0 0 0 0.968627 0 0 0 0 0.764706 0 0 0 0.5 0"/>
<feBlend mode="normal" in2="BackgroundImageFix" result="effect1_dropShadow_810_8361"/>
<feBlend mode="normal" in="SourceGraphic" in2="effect1_dropShadow_810_8361" result="shape"/>
</filter>
<filter id="filter18_d_810_8361" x="521.576" y="256.182" width="38.7148" height="38.7148" filterUnits="userSpaceOnUse" color-interpolation-filters="sRGB">
<feFlood flood-opacity="0" result="BackgroundImageFix"/>
<feColorMatrix in="SourceAlpha" type="matrix" values="0 0 0 0 0 0 0 0 0 0 0 0 0 0 0 0 0 0 127 0" result="hardAlpha"/>
<feOffset/>
<feGaussianBlur stdDeviation="1.74651"/>
<feComposite in2="hardAlpha" operator="out"/>
<feColorMatrix type="matrix" values="0 0 0 0 0.109804 0 0 0 0 0.968627 0 0 0 0 0.764706 0 0 0 0.5 0"/>
<feBlend mode="normal" in2="BackgroundImageFix" result="effect1_dropShadow_810_8361"/>
<feBlend mode="normal" in="SourceGraphic" in2="effect1_dropShadow_810_8361" result="shape"/>
</filter>
<filter id="filter19_d_810_8361" x="521.576" y="149.932" width="38.7148" height="38.7148" filterUnits="userSpaceOnUse" color-interpolation-filters="sRGB">
<feFlood flood-opacity="0" result="BackgroundImageFix"/>
<feColorMatrix in="SourceAlpha" type="matrix" values="0 0 0 0 0 0 0 0 0 0 0 0 0 0 0 0 0 0 127 0" result="hardAlpha"/>
<feOffset/>
<feGaussianBlur stdDeviation="1.74651"/>
<feComposite in2="hardAlpha" operator="out"/>
<feColorMatrix type="matrix" values="0 0 0 0 0.109804 0 0 0 0 0.968627 0 0 0 0 0.764706 0 0 0 0.5 0"/>
<feBlend mode="normal" in2="BackgroundImageFix" result="effect1_dropShadow_810_8361"/>
<feBlend mode="normal" in="SourceGraphic" in2="effect1_dropShadow_810_8361" result="shape"/>
</filter>
<filter id="filter20_d_810_8361" x="200.993" y="256.182" width="38.7148" height="38.7148" filterUnits="userSpaceOnUse" color-interpolation-filters="sRGB">
<feFlood flood-opacity="0" result="BackgroundImageFix"/>
<feColorMatrix in="SourceAlpha" type="matrix" values="0 0 0 0 0 0 0 0 0 0 0 0 0 0 0 0 0 0 127 0" result="hardAlpha"/>
<feOffset/>
<feGaussianBlur stdDeviation="1.74651"/>
<feComposite in2="hardAlpha" operator="out"/>
<feColorMatrix type="matrix" values="0 0 0 0 0.109804 0 0 0 0 0.968627 0 0 0 0 0.764706 0 0 0 0.5 0"/>
<feBlend mode="normal" in2="BackgroundImageFix" result="effect1_dropShadow_810_8361"/>
<feBlend mode="normal" in="SourceGraphic" in2="effect1_dropShadow_810_8361" result="shape"/>
</filter>
<filter id="filter21_d_810_8361" x="200.993" y="149.932" width="38.7148" height="38.7148" filterUnits="userSpaceOnUse" color-interpolation-filters="sRGB">
<feFlood flood-opacity="0" result="BackgroundImageFix"/>
<feColorMatrix in="SourceAlpha" type="matrix" values="0 0 0 0 0 0 0 0 0 0 0 0 0 0 0 0 0 0 127 0" result="hardAlpha"/>
<feOffset/>
<feGaussianBlur stdDeviation="1.74651"/>
<feComposite in2="hardAlpha" operator="out"/>
<feColorMatrix type="matrix" values="0 0 0 0 0.109804 0 0 0 0 0.968627 0 0 0 0 0.764706 0 0 0 0.5 0"/>
<feBlend mode="normal" in2="BackgroundImageFix" result="effect1_dropShadow_810_8361"/>
<feBlend mode="normal" in="SourceGraphic" in2="effect1_dropShadow_810_8361" result="shape"/>
</filter>
<filter id="filter22_d_810_8361" x="93.6171" y="256.182" width="38.7148" height="38.7148" filterUnits="userSpaceOnUse" color-interpolation-filters="sRGB">
<feFlood flood-opacity="0" result="BackgroundImageFix"/>
<feColorMatrix in="SourceAlpha" type="matrix" values="0 0 0 0 0 0 0 0 0 0 0 0 0 0 0 0 0 0 127 0" result="hardAlpha"/>
<feOffset/>
<feGaussianBlur stdDeviation="1.74651"/>
<feComposite in2="hardAlpha" operator="out"/>
<feColorMatrix type="matrix" values="0 0 0 0 0.109804 0 0 0 0 0.968627 0 0 0 0 0.764706 0 0 0 0.5 0"/>
<feBlend mode="normal" in2="BackgroundImageFix" result="effect1_dropShadow_810_8361"/>
<feBlend mode="normal" in="SourceGraphic" in2="effect1_dropShadow_810_8361" result="shape"/>
</filter>
<filter id="filter23_d_810_8361" x="415.745" y="45.7282" width="38.7148" height="38.7148" filterUnits="userSpaceOnUse" color-interpolation-filters="sRGB">
<feFlood flood-opacity="0" result="BackgroundImageFix"/>
<feColorMatrix in="SourceAlpha" type="matrix" values="0 0 0 0 0 0 0 0 0 0 0 0 0 0 0 0 0 0 127 0" result="hardAlpha"/>
<feOffset/>
<feGaussianBlur stdDeviation="1.74651"/>
<feComposite in2="hardAlpha" operator="out"/>
<feColorMatrix type="matrix" values="0 0 0 0 0.109804 0 0 0 0 0.968627 0 0 0 0 0.764706 0 0 0 0.5 0"/>
<feBlend mode="normal" in2="BackgroundImageFix" result="effect1_dropShadow_810_8361"/>
<feBlend mode="normal" in="SourceGraphic" in2="effect1_dropShadow_810_8361" result="shape"/>
</filter>
<filter id="filter24_d_810_8361" x="521.576" y="45.7282" width="38.7148" height="38.7148" filterUnits="userSpaceOnUse" color-interpolation-filters="sRGB">
<feFlood flood-opacity="0" result="BackgroundImageFix"/>
<feColorMatrix in="SourceAlpha" type="matrix" values="0 0 0 0 0 0 0 0 0 0 0 0 0 0 0 0 0 0 127 0" result="hardAlpha"/>
<feOffset/>
<feGaussianBlur stdDeviation="1.74651"/>
<feComposite in2="hardAlpha" operator="out"/>
<feColorMatrix type="matrix" values="0 0 0 0 0.109804 0 0 0 0 0.968627 0 0 0 0 0.764706 0 0 0 0.5 0"/>
<feBlend mode="normal" in2="BackgroundImageFix" result="effect1_dropShadow_810_8361"/>
<feBlend mode="normal" in="SourceGraphic" in2="effect1_dropShadow_810_8361" result="shape"/>
</filter>
<filter id="filter25_d_810_8361" x="308.369" y="45.7282" width="38.7148" height="38.7148" filterUnits="userSpaceOnUse" color-interpolation-filters="sRGB">
<feFlood flood-opacity="0" result="BackgroundImageFix"/>
<feColorMatrix in="SourceAlpha" type="matrix" values="0 0 0 0 0 0 0 0 0 0 0 0 0 0 0 0 0 0 127 0" result="hardAlpha"/>
<feOffset/>
<feGaussianBlur stdDeviation="1.74651"/>
<feComposite in2="hardAlpha" operator="out"/>
<feColorMatrix type="matrix" values="0 0 0 0 0.109804 0 0 0 0 0.968627 0 0 0 0 0.764706 0 0 0 0.5 0"/>
<feBlend mode="normal" in2="BackgroundImageFix" result="effect1_dropShadow_810_8361"/>
<feBlend mode="normal" in="SourceGraphic" in2="effect1_dropShadow_810_8361" result="shape"/>
</filter>
<filter id="filter26_d_810_8361" x="200.993" y="45.7282" width="38.7148" height="38.7148" filterUnits="userSpaceOnUse" color-interpolation-filters="sRGB">
<feFlood flood-opacity="0" result="BackgroundImageFix"/>
<feColorMatrix in="SourceAlpha" type="matrix" values="0 0 0 0 0 0 0 0 0 0 0 0 0 0 0 0 0 0 127 0" result="hardAlpha"/>
<feOffset/>
<feGaussianBlur stdDeviation="1.74651"/>
<feComposite in2="hardAlpha" operator="out"/>
<feColorMatrix type="matrix" values="0 0 0 0 0.109804 0 0 0 0 0.968627 0 0 0 0 0.764706 0 0 0 0.5 0"/>
<feBlend mode="normal" in2="BackgroundImageFix" result="effect1_dropShadow_810_8361"/>
<feBlend mode="normal" in="SourceGraphic" in2="effect1_dropShadow_810_8361" result="shape"/>
</filter>
<filter id="filter27_d_810_8361" x="93.6171" y="45.7282" width="38.7148" height="38.7148" filterUnits="userSpaceOnUse" color-interpolation-filters="sRGB">
<feFlood flood-opacity="0" result="BackgroundImageFix"/>
<feColorMatrix in="SourceAlpha" type="matrix" values="0 0 0 0 0 0 0 0 0 0 0 0 0 0 0 0 0 0 127 0" result="hardAlpha"/>
<feOffset/>
<feGaussianBlur stdDeviation="1.74651"/>
<feComposite in2="hardAlpha" operator="out"/>
<feColorMatrix type="matrix" values="0 0 0 0 0.109804 0 0 0 0 0.968627 0 0 0 0 0.764706 0 0 0 0.5 0"/>
<feBlend mode="normal" in2="BackgroundImageFix" result="effect1_dropShadow_810_8361"/>
<feBlend mode="normal" in="SourceGraphic" in2="effect1_dropShadow_810_8361" result="shape"/>
</filter>
<filter id="filter28_d_810_8361" x="93.6171" y="149.932" width="38.7148" height="38.7148" filterUnits="userSpaceOnUse" color-interpolation-filters="sRGB">
<feFlood flood-opacity="0" result="BackgroundImageFix"/>
<feColorMatrix in="SourceAlpha" type="matrix" values="0 0 0 0 0 0 0 0 0 0 0 0 0 0 0 0 0 0 127 0" result="hardAlpha"/>
<feOffset/>
<feGaussianBlur stdDeviation="1.74651"/>
<feComposite in2="hardAlpha" operator="out"/>
<feColorMatrix type="matrix" values="0 0 0 0 0.109804 0 0 0 0 0.968627 0 0 0 0 0.764706 0 0 0 0.5 0"/>
<feBlend mode="normal" in2="BackgroundImageFix" result="effect1_dropShadow_810_8361"/>
<feBlend mode="normal" in="SourceGraphic" in2="effect1_dropShadow_810_8361" result="shape"/>
</filter>
<filter id="filter29_ddi_810_8361" x="200.403" y="43.0776" width="255.599" height="255.599" filterUnits="userSpaceOnUse" color-interpolation-filters="sRGB">
<feFlood flood-opacity="0" result="BackgroundImageFix"/>
<feColorMatrix in="SourceAlpha" type="matrix" values="0 0 0 0 0 0 0 0 0 0 0 0 0 0 0 0 0 0 127 0" result="hardAlpha"/>
<feOffset/>
<feGaussianBlur stdDeviation="8.73254"/>
<feComposite in2="hardAlpha" operator="out"/>
<feColorMatrix type="matrix" values="0 0 0 0 0.239216 0 0 0 0 0.796078 0 0 0 0 0.54902 0 0 0 1 0"/>
<feBlend mode="normal" in2="BackgroundImageFix" result="effect1_dropShadow_810_8361"/>
<feColorMatrix in="SourceAlpha" type="matrix" values="0 0 0 0 0 0 0 0 0 0 0 0 0 0 0 0 0 0 127 0" result="hardAlpha"/>
<feOffset/>
<feGaussianBlur stdDeviation="40.1697"/>
<feComposite in2="hardAlpha" operator="out"/>
<feColorMatrix type="matrix" values="0 0 0 0 0.239216 0 0 0 0 0.796078 0 0 0 0 0.54902 0 0 0 1 0"/>
<feBlend mode="normal" in2="effect1_dropShadow_810_8361" result="effect2_dropShadow_810_8361"/>
<feBlend mode="normal" in="SourceGraphic" in2="effect2_dropShadow_810_8361" result="shape"/>
<feColorMatrix in="SourceAlpha" type="matrix" values="0 0 0 0 0 0 0 0 0 0 0 0 0 0 0 0 0 0 127 0" result="hardAlpha"/>
<feOffset dy="3.49302"/>
<feGaussianBlur stdDeviation="8.73254"/>
<feComposite in2="hardAlpha" operator="arithmetic" k2="-1" k3="1"/>
<feColorMatrix type="matrix" values="0 0 0 0 0 0 0 0 0 0 0 0 0 0 0 0 0 0 1 0"/>
<feBlend mode="normal" in2="shape" result="effect3_innerShadow_810_8361"/>
</filter>
<filter id="filter30_d_810_8361" x="308.845" y="149.932" width="38.7148" height="38.7148" filterUnits="userSpaceOnUse" color-interpolation-filters="sRGB">
<feFlood flood-opacity="0" result="BackgroundImageFix"/>
<feColorMatrix in="SourceAlpha" type="matrix" values="0 0 0 0 0 0 0 0 0 0 0 0 0 0 0 0 0 0 127 0" result="hardAlpha"/>
<feOffset/>
<feGaussianBlur stdDeviation="1.74651"/>
<feComposite in2="hardAlpha" operator="out"/>
<feColorMatrix type="matrix" values="0 0 0 0 0.109804 0 0 0 0 0.968627 0 0 0 0 0.764706 0 0 0 0.5 0"/>
<feBlend mode="normal" in2="BackgroundImageFix" result="effect1_dropShadow_810_8361"/>
<feBlend mode="normal" in="SourceGraphic" in2="effect1_dropShadow_810_8361" result="shape"/>
</filter>
<radialGradient id="paint0_radial_810_8361" cx="0" cy="0" r="1" gradientUnits="userSpaceOnUse" gradientTransform="translate(351.99 166.235) rotate(90) scale(161.397 257.385)">
<stop stop-color="white"/>
<stop offset="1" stop-opacity="0"/>
</radialGradient>
<linearGradient id="paint1_linear_810_8361" x1="468.357" y1="149.441" x2="298.903" y2="331.405" gradientUnits="userSpaceOnUse">
<stop stop-color="#03C9B2" stop-opacity="0.37"/>
<stop offset="1" stop-color="#0055B8"/>
</linearGradient>
</defs>
</svg>
