<svg width="3397" height="1207" viewBox="0 0 3397 1207" fill="none" xmlns="http://www.w3.org/2000/svg">
<path d="M958 680.353C961.036 708.721 986.841 757.351 1061.72 757.351C1127 757.351 1158.37 715.813 1158.37 675.288C1158.37 638.815 1133.57 608.928 1084.49 598.796L1049.08 591.198C1035.41 588.665 1026.31 581.067 1026.31 568.909C1026.31 554.725 1040.47 544.088 1058.18 544.088C1086.52 544.088 1097.14 562.83 1099.17 577.521L1155.33 564.857C1152.29 538.009 1128.51 492.925 1057.68 492.925C1004.04 492.925 964.578 529.904 964.578 574.481C964.578 609.434 986.335 638.309 1034.4 648.946L1067.29 656.545C1086.52 660.597 1094.11 669.716 1094.11 680.86C1094.11 694.031 1083.48 705.682 1061.22 705.682C1031.87 705.682 1017.2 687.445 1015.68 667.689L958 680.353Z" fill="white"/>
<path d="M1373.42 749.753H1437.68C1436.67 741.141 1435.15 723.918 1435.15 704.668V500.523H1367.85V645.4C1367.85 674.275 1350.65 694.537 1320.8 694.537C1289.43 694.537 1275.26 672.248 1275.26 644.387V500.523H1207.97V658.065C1207.97 712.267 1242.37 756.338 1302.58 756.338C1328.89 756.338 1357.74 746.207 1371.4 722.905C1371.4 733.036 1372.41 744.687 1373.42 749.753Z" fill="white"/>
<path d="M1574.26 846V725.438C1586.4 742.154 1611.7 755.832 1646.11 755.832C1716.44 755.832 1763.49 700.109 1763.49 624.631C1763.49 550.673 1721.5 494.951 1648.64 494.951C1611.2 494.951 1583.37 511.667 1572.24 530.917V500.523H1506.97V846H1574.26ZM1697.21 625.138C1697.21 669.716 1669.89 695.55 1635.48 695.55C1601.08 695.55 1573.25 669.209 1573.25 625.138C1573.25 581.067 1601.08 555.232 1635.48 555.232C1669.89 555.232 1697.21 581.067 1697.21 625.138Z" fill="white"/>
<path d="M1801.6 681.873C1801.6 720.879 1833.98 756.845 1887.11 756.845C1924.04 756.845 1947.82 739.621 1960.47 719.865C1960.47 729.49 1961.48 743.167 1963 749.753H2024.73C2023.21 741.141 2021.7 723.411 2021.7 710.241V587.652C2021.7 537.502 1992.35 492.925 1913.42 492.925C1846.63 492.925 1810.7 535.982 1806.66 574.988L1866.36 587.652C1868.39 565.87 1884.58 547.127 1913.92 547.127C1942.26 547.127 1955.92 561.817 1955.92 579.547C1955.92 588.159 1951.37 595.251 1937.2 597.277L1875.98 606.395C1834.49 612.474 1801.6 637.295 1801.6 681.873ZM1901.27 706.695C1879.52 706.695 1868.89 692.511 1868.89 677.821C1868.89 658.571 1882.55 648.946 1899.76 646.414L1955.92 637.802V648.946C1955.92 693.018 1929.61 706.695 1901.27 706.695Z" fill="white"/>
<path d="M2154.8 749.753V719.359C2167.95 740.635 2194.26 755.832 2228.67 755.832C2299.51 755.832 2346.06 699.603 2346.06 624.125C2346.06 550.166 2304.06 493.938 2231.2 493.938C2194.26 493.938 2166.94 510.148 2155.81 527.877V383H2089.53V749.753H2154.8ZM2278.76 624.631C2278.76 670.222 2251.44 695.55 2217.03 695.55C2183.13 695.55 2154.8 669.716 2154.8 624.631C2154.8 579.04 2183.13 554.219 2217.03 554.219C2251.44 554.219 2278.76 579.04 2278.76 624.631Z" fill="white"/>
<path d="M2384.16 681.873C2384.16 720.879 2416.54 756.845 2469.67 756.845C2506.6 756.845 2530.39 739.621 2543.03 719.865C2543.03 729.49 2544.05 743.167 2545.56 749.753H2607.29C2605.78 741.141 2604.26 723.411 2604.26 710.241V587.652C2604.26 537.502 2574.91 492.925 2495.98 492.925C2429.19 492.925 2393.27 535.982 2389.22 574.988L2448.92 587.652C2450.95 565.87 2467.14 547.127 2496.48 547.127C2524.82 547.127 2538.48 561.817 2538.48 579.547C2538.48 588.159 2533.93 595.251 2519.76 597.277L2458.54 606.395C2417.05 612.474 2384.16 637.295 2384.16 681.873ZM2483.84 706.695C2462.08 706.695 2451.45 692.511 2451.45 677.821C2451.45 658.571 2465.11 648.946 2482.32 646.414L2538.48 637.802V648.946C2538.48 693.018 2512.17 706.695 2483.84 706.695Z" fill="white"/>
<path d="M2650.84 680.353C2653.87 708.721 2679.68 757.351 2754.56 757.351C2819.83 757.351 2851.2 715.813 2851.2 675.288C2851.2 638.815 2826.41 608.928 2777.33 598.796L2741.91 591.198C2728.25 588.665 2719.15 581.067 2719.15 568.909C2719.15 554.725 2733.31 544.088 2751.02 544.088C2779.36 544.088 2789.98 562.83 2792.01 577.521L2848.17 564.857C2845.13 538.009 2821.35 492.925 2750.52 492.925C2696.88 492.925 2657.42 529.904 2657.42 574.481C2657.42 609.434 2679.17 638.309 2727.24 648.946L2760.13 656.545C2779.36 660.597 2786.95 669.716 2786.95 680.86C2786.95 694.031 2776.32 705.682 2754.06 705.682C2724.71 705.682 2710.04 687.445 2708.52 667.689L2650.84 680.353Z" fill="white"/>
<path d="M2953.4 596.77C2954.92 573.975 2974.15 547.633 3009.06 547.633C3047.51 547.633 3063.71 571.949 3064.72 596.77H2953.4ZM3071.3 661.611C3063.2 683.899 3046 699.603 3014.63 699.603C2981.23 699.603 2953.4 675.794 2951.89 642.868H3129.99C3129.99 641.854 3131 631.723 3131 622.098C3131 542.061 3084.96 492.925 3008.05 492.925C2944.3 492.925 2885.6 544.594 2885.6 624.125C2885.6 708.214 2945.81 757.351 3014.12 757.351C3075.34 757.351 3114.81 721.385 3127.46 678.327L3071.3 661.611Z" fill="white"/>
<path d="M285.45 662.395C270.842 662.395 259 650.556 259 635.953C259 630.056 260.93 624.611 264.194 620.213L274.381 605.913L505.276 294.145C507.108 291.633 510.075 290 513.424 290C518.989 290 523.5 294.51 523.5 300.073V301.206L523.5 662.395H285.45Z" fill="#3ECF8E"/>
<path d="M761.55 527.854C776.158 527.854 788 539.693 788 554.297C788 560.193 786.07 565.638 782.806 570.036L772.619 584.336L541.724 896.104C539.891 898.616 536.925 900.249 533.576 900.249C528.011 900.249 523.5 895.739 523.5 890.176L523.5 889.043L523.5 527.854L761.55 527.854Z" fill="url(#paint0_linear)"/>
<path d="M761.55 527.854C776.158 527.854 788 539.693 788 554.297C788 560.193 786.07 565.638 782.806 570.036L772.619 584.336L541.724 896.104C539.891 898.616 536.925 900.249 533.576 900.249C528.011 900.249 523.5 895.739 523.5 890.176L523.5 889.043L523.5 527.854L761.55 527.854Z" fill="url(#paint1_linear)" fill-opacity="0.2"/>
<defs>
<linearGradient id="paint0_linear" x1="523.5" y1="604.891" x2="720.646" y2="681.82" gradientUnits="userSpaceOnUse">
<stop stop-color="#249361"/>
<stop offset="1" stop-color="#3ECF8E"/>
</linearGradient>
<linearGradient id="paint1_linear" x1="437.852" y1="478.853" x2="536.265" y2="651.218" gradientUnits="userSpaceOnUse">
<stop/>
<stop offset="1" stop-opacity="0"/>
</linearGradient>
</defs>
</svg>
