<svg width="1600" height="1834" viewBox="0 0 1600 1834" fill="none" xmlns="http://www.w3.org/2000/svg">
<rect width="1600" height="1833" transform="translate(0 0.5)" fill="#232323"/>
<path d="M686.438 608.835V592.995H696.446V595.323H689.198V599.427H695.342V601.755H689.198V606.483H696.686V608.835H686.438ZM703.612 608.835V592.995H706.348V606.483H713.74V608.835H703.612ZM719.539 608.835V606.483H723.307V595.323H719.539V592.995H729.883V595.323H726.091V606.483H729.883V608.835H719.539ZM735.153 608.835L739.785 600.675L735.441 592.995H738.537L740.385 596.523C740.769 597.243 741.129 597.987 741.633 598.947H741.729C742.137 597.987 742.449 597.243 742.809 596.523L744.585 592.995H747.537L743.193 600.795L747.825 608.835H744.753L742.713 605.067C742.281 604.275 741.873 603.459 741.393 602.499H741.297C740.889 603.459 740.505 604.251 740.097 605.043L738.105 608.835H735.153ZM753.12 608.835V606.483H756.888V595.323H753.12V592.995H763.464V595.323H759.672V606.483H763.464V608.835H753.12ZM769.911 608.835V592.995H775.143C778.383 592.995 780.903 594.147 780.903 597.675C780.903 600.075 779.655 601.539 777.759 602.187L781.527 608.835H778.407L774.999 602.619H772.671V608.835H769.911ZM772.671 600.387H774.855C777.015 600.387 778.167 599.475 778.167 597.675C778.167 595.827 777.015 595.203 774.855 595.203H772.671V600.387ZM810.068 609.123C806.06 609.123 802.916 606.195 802.916 600.963C802.916 595.779 806.012 592.707 810.164 592.707C812.108 592.707 813.644 593.643 814.628 594.675L813.092 596.403C812.3 595.611 811.388 595.107 810.164 595.107C807.548 595.107 805.748 597.291 805.748 600.867C805.748 604.491 807.548 606.723 810.236 606.723C811.508 606.723 812.492 606.123 813.38 605.139L814.94 606.819C813.668 608.307 812.06 609.123 810.068 609.123ZM821.147 608.835V592.995H823.883V606.483H831.275V608.835H821.147ZM842.281 609.123C838.825 609.123 836.761 607.131 836.761 602.787V592.995H839.521V602.979C839.521 605.595 840.577 606.723 842.281 606.723C843.961 606.723 845.041 605.595 845.041 602.979V592.995H847.729V602.787C847.729 607.131 845.713 609.123 842.281 609.123ZM859.072 609.123C856.864 609.123 854.776 608.283 853.24 606.795L854.848 604.899C856.024 605.979 857.584 606.723 859.12 606.723C861.064 606.723 862.048 605.907 862.048 604.635C862.048 603.315 860.992 602.907 859.432 602.283L857.296 601.347C855.616 600.699 853.912 599.451 853.912 597.147C853.912 594.627 856.168 592.707 859.36 592.707C861.304 592.707 863.104 593.451 864.4 594.723L862.96 596.475C861.904 595.611 860.824 595.107 859.36 595.107C857.728 595.107 856.72 595.803 856.72 597.003C856.72 598.251 857.992 598.683 859.408 599.259L861.472 600.147C863.464 600.963 864.88 602.115 864.88 604.419C864.88 606.987 862.744 609.123 859.072 609.123ZM874.422 608.835V595.323H869.502V592.995H882.15V595.323H877.206V608.835H874.422ZM887.925 608.835V592.995H897.933V595.323H890.685V599.427H896.829V601.755H890.685V606.483H898.173V608.835H887.925ZM904.236 608.835V592.995H909.468C912.708 592.995 915.228 594.147 915.228 597.675C915.228 600.075 913.98 601.539 912.084 602.187L915.852 608.835H912.732L909.324 602.619H906.996V608.835H904.236ZM906.996 600.387H909.18C911.34 600.387 912.492 599.475 912.492 597.675C912.492 595.827 911.34 595.203 909.18 595.203H906.996V600.387Z" fill="#EDEDED"/>
<rect x="181.252" y="635.835" width="1238" height="525" rx="32" fill="#3DCF8E" fill-opacity="0.05"/>
<rect x="181.252" y="635.835" width="1238" height="525" rx="32" stroke="#3ECF8E" stroke-width="2" stroke-linecap="round" stroke-dasharray="8 16"/>
<path d="M655.79 142.5V128.988H650.87V126.66H663.518V128.988H658.574V142.5H655.79ZM669.292 142.5V126.66H679.3V128.988H672.052V133.092H678.196V135.42H672.052V140.148H679.54V142.5H669.292ZM685.363 142.5V126.66H688.171L692.395 135.636L693.859 138.996H693.931C693.811 137.364 693.547 135.372 693.547 133.62V126.66H696.187V142.5H693.355L689.155 133.5L687.691 130.164H687.619C687.739 131.844 688.003 133.74 688.003 135.492V142.5H685.363ZM700.858 142.5L705.946 126.66H709.186L714.274 142.5H711.346L710.122 138.18H704.914L703.666 142.5H700.858ZM705.514 135.996H709.522L708.97 134.028C708.49 132.348 708.01 130.572 707.554 128.82H707.458C707.026 130.572 706.546 132.348 706.066 134.028L705.514 135.996ZM718.944 142.5V126.66H721.752L725.976 135.636L727.44 138.996H727.512C727.392 137.364 727.128 135.372 727.128 133.62V126.66H729.768V142.5H726.936L722.736 133.5L721.272 130.164H721.2C721.32 131.844 721.584 133.74 721.584 135.492V142.5H718.944ZM739.743 142.5V128.988H734.823V126.66H747.471V128.988H742.527V142.5H739.743ZM757.974 142.788C755.766 142.788 753.678 141.948 752.142 140.46L753.75 138.564C754.926 139.644 756.486 140.388 758.022 140.388C759.966 140.388 760.95 139.572 760.95 138.3C760.95 136.98 759.894 136.572 758.334 135.948L756.198 135.012C754.518 134.364 752.814 133.116 752.814 130.812C752.814 128.292 755.07 126.372 758.262 126.372C760.206 126.372 762.006 127.116 763.302 128.388L761.862 130.14C760.806 129.276 759.726 128.772 758.262 128.772C756.63 128.772 755.622 129.468 755.622 130.668C755.622 131.916 756.894 132.348 758.31 132.924L760.374 133.812C762.366 134.628 763.782 135.78 763.782 138.084C763.782 140.652 761.646 142.788 757.974 142.788ZM773.348 134.82L772.556 133.308C774.14 132.516 775.028 131.34 775.148 129.732C774.956 129.804 774.764 129.852 774.596 129.852C773.444 129.852 772.628 129.06 772.628 127.884C772.628 126.612 773.492 125.748 774.668 125.748C776.204 125.748 777.164 126.996 777.164 129.108C777.164 131.628 775.82 133.62 773.348 134.82ZM802.897 142.5V126.66H806.953C811.585 126.66 814.369 129.276 814.369 134.508C814.369 139.74 811.585 142.5 807.097 142.5H802.897ZM805.681 140.244H806.785C809.809 140.244 811.513 138.396 811.513 134.508C811.513 130.62 809.809 128.892 806.785 128.892H805.681V140.244ZM818.392 142.5L823.48 126.66H826.72L831.808 142.5H828.88L827.656 138.18H822.448L821.2 142.5H818.392ZM823.048 135.996H827.056L826.504 134.028C826.024 132.348 825.544 130.572 825.088 128.82H824.992C824.56 130.572 824.08 132.348 823.6 134.028L823.048 135.996ZM840.487 142.5V128.988H835.567V126.66H848.215V128.988H843.271V142.5H840.487ZM851.973 142.5L857.061 126.66H860.301L865.389 142.5H862.461L861.237 138.18H856.029L854.781 142.5H851.973ZM856.629 135.996H860.637L860.085 134.028C859.605 132.348 859.125 130.572 858.669 128.82H858.573C858.141 130.572 857.661 132.348 857.181 134.028L856.629 135.996ZM870.516 142.5V126.66H875.124C878.34 126.66 880.692 127.644 880.692 130.548C880.692 132.036 879.804 133.5 877.956 134.004V134.1C880.236 134.484 881.484 135.684 881.484 137.844C881.484 141.012 878.964 142.5 875.532 142.5H870.516ZM873.276 133.236H874.86C877.068 133.236 877.98 132.372 877.98 130.884C877.98 129.42 876.972 128.82 874.932 128.82H873.276V133.236ZM873.276 140.34H875.244C877.548 140.34 878.772 139.476 878.772 137.676C878.772 135.972 877.596 135.228 875.244 135.228H873.276V140.34ZM885.555 142.5L890.643 126.66H893.883L898.971 142.5H896.043L894.819 138.18H889.611L888.363 142.5H885.555ZM890.211 135.996H894.219L893.667 134.028C893.187 132.348 892.707 130.572 892.251 128.82H892.155C891.723 130.572 891.243 132.348 890.763 134.028L890.211 135.996ZM909.089 142.788C906.881 142.788 904.793 141.948 903.257 140.46L904.865 138.564C906.041 139.644 907.601 140.388 909.137 140.388C911.081 140.388 912.065 139.572 912.065 138.3C912.065 136.98 911.009 136.572 909.449 135.948L907.313 135.012C905.633 134.364 903.929 133.116 903.929 130.812C903.929 128.292 906.185 126.372 909.377 126.372C911.321 126.372 913.121 127.116 914.417 128.388L912.977 130.14C911.921 129.276 910.841 128.772 909.377 128.772C907.745 128.772 906.737 129.468 906.737 130.668C906.737 131.916 908.009 132.348 909.425 132.924L911.489 133.812C913.481 134.628 914.897 135.78 914.897 138.084C914.897 140.652 912.761 142.788 909.089 142.788ZM921.152 142.5V126.66H931.16V128.988H923.912V133.092H930.056V135.42H923.912V140.148H931.4V142.5H921.152ZM942.67 142.788C940.462 142.788 938.374 141.948 936.838 140.46L938.446 138.564C939.622 139.644 941.182 140.388 942.718 140.388C944.662 140.388 945.646 139.572 945.646 138.3C945.646 136.98 944.59 136.572 943.03 135.948L940.894 135.012C939.214 134.364 937.51 133.116 937.51 130.812C937.51 128.292 939.766 126.372 942.958 126.372C944.902 126.372 946.702 127.116 947.998 128.388L946.558 130.14C945.502 129.276 944.422 128.772 942.958 128.772C941.326 128.772 940.318 129.468 940.318 130.668C940.318 131.916 941.59 132.348 943.006 132.924L945.07 133.812C947.062 134.628 948.478 135.78 948.478 138.084C948.478 140.652 946.342 142.788 942.67 142.788Z" fill="#EDEDED"/>
<rect x="180.897" y="169.5" width="1238" height="275" rx="32" fill="#4D4D4D" fill-opacity="0.05"/>
<rect x="180.897" y="169.5" width="1238" height="275" rx="32" stroke="#4D4D4D" stroke-width="2" stroke-linecap="round" stroke-dasharray="8 16"/>
<rect x="228.861" y="713.5" width="464" height="393" rx="32" fill="#3DCF8E" fill-opacity="0.05"/>
<rect x="908.253" y="713.5" width="464" height="393" rx="32" fill="#3DCF8E" fill-opacity="0.05"/>
<g filter="url(#filter0_d_560_17950)">
<rect x="945.861" y="1530.17" width="189" height="156" rx="21" fill="#1C1C1C" shape-rendering="crispEdges"/>
<path d="M1056.36 1594.17V1576.17C1056.36 1575.11 1055.94 1574.09 1055.19 1573.34C1054.44 1572.59 1053.42 1572.17 1052.36 1572.17H1028.36C1027.3 1572.17 1026.28 1572.59 1025.53 1573.34C1024.78 1574.09 1024.36 1575.11 1024.36 1576.17V1594.17M1056.36 1594.17H1024.36M1056.36 1594.17L1058.92 1599.27C1059.08 1599.58 1059.15 1599.92 1059.13 1600.26C1059.12 1600.6 1059.01 1600.93 1058.83 1601.22C1058.65 1601.52 1058.4 1601.76 1058.1 1601.92C1057.8 1602.09 1057.46 1602.17 1057.12 1602.17H1023.6C1023.26 1602.17 1022.92 1602.09 1022.62 1601.92C1022.32 1601.76 1022.07 1601.52 1021.89 1601.22C1021.71 1600.93 1021.6 1600.6 1021.59 1600.26C1021.57 1599.92 1021.65 1599.58 1021.8 1599.27L1024.36 1594.17" stroke="#EDEDED" stroke-width="2" stroke-linecap="round" stroke-linejoin="round"/>
<path d="M986.977 1649.46C982.969 1649.46 979.825 1646.53 979.825 1641.3C979.825 1636.11 982.921 1633.04 987.073 1633.04C989.017 1633.04 990.553 1633.98 991.537 1635.01L990.001 1636.74C989.209 1635.95 988.297 1635.44 987.073 1635.44C984.457 1635.44 982.657 1637.63 982.657 1641.2C982.657 1644.83 984.457 1647.06 987.145 1647.06C988.417 1647.06 989.401 1646.46 990.289 1645.47L991.849 1647.15C990.577 1648.64 988.969 1649.46 986.977 1649.46ZM996.856 1649.17V1633.33H999.592V1646.82H1006.98V1649.17H996.856ZM1011.58 1649.17V1646.82H1015.35V1635.66H1011.58V1633.33H1021.93V1635.66H1018.13V1646.82H1021.93V1649.17H1011.58ZM1027.65 1649.17V1633.33H1037.66V1635.66H1030.41V1639.76H1036.56V1642.09H1030.41V1646.82H1037.9V1649.17H1027.65ZM1042.52 1649.17V1633.33H1045.33L1049.56 1642.31L1051.02 1645.67H1051.09C1050.97 1644.03 1050.71 1642.04 1050.71 1640.29V1633.33H1053.35V1649.17H1050.52L1046.32 1640.17L1044.85 1636.83H1044.78C1044.9 1638.51 1045.16 1640.41 1045.16 1642.16V1649.17H1042.52ZM1062.12 1649.17V1635.66H1057.2V1633.33H1069.85V1635.66H1064.91V1649.17H1062.12ZM1094.29 1649.46C1091.67 1649.46 1089.85 1648.47 1088.7 1647.23L1090.02 1645.45C1091.02 1646.43 1092.39 1647.2 1094.07 1647.2C1095.94 1647.2 1097.34 1646.29 1097.34 1644.78C1097.34 1643.1 1096.04 1641.99 1092.25 1641.99V1639.98C1095.56 1639.98 1096.81 1638.9 1096.81 1637.39C1096.81 1636.04 1095.75 1635.23 1094.12 1635.23C1092.8 1635.23 1091.65 1635.83 1090.62 1636.74L1089.2 1635.03C1090.57 1633.83 1092.27 1633.04 1094.24 1633.04C1097.34 1633.04 1099.57 1634.55 1099.57 1637.19C1099.57 1638.99 1098.34 1640.17 1096.5 1640.84V1640.96C1098.46 1641.44 1100.1 1642.79 1100.1 1644.9C1100.1 1647.78 1097.43 1649.46 1094.29 1649.46Z" fill="#EDEDED"/>
<rect x="946.361" y="1530.67" width="188" height="155" rx="20.5" stroke="#4D4D4D" shape-rendering="crispEdges"/>
</g>
<g filter="url(#filter1_d_560_17950)">
<rect x="253.048" y="1530.17" width="189" height="156" rx="21" fill="#1C1C1C" shape-rendering="crispEdges"/>
<path d="M363.547 1594.17V1576.17C363.547 1575.11 363.126 1574.09 362.376 1573.34C361.626 1572.59 360.608 1572.17 359.547 1572.17H335.547C334.487 1572.17 333.469 1572.59 332.719 1573.34C331.969 1574.09 331.547 1575.11 331.547 1576.17V1594.17M363.547 1594.17H331.547M363.547 1594.17L366.107 1599.27C366.262 1599.58 366.335 1599.92 366.319 1600.26C366.304 1600.6 366.201 1600.93 366.021 1601.22C365.84 1601.52 365.588 1601.76 365.288 1601.92C364.988 1602.09 364.65 1602.17 364.307 1602.17H330.787C330.445 1602.17 330.107 1602.09 329.807 1601.92C329.507 1601.76 329.255 1601.52 329.074 1601.22C328.893 1600.93 328.791 1600.6 328.775 1600.26C328.76 1599.92 328.833 1599.58 328.987 1599.27L331.547 1594.17" stroke="#EDEDED" stroke-width="2" stroke-linecap="round" stroke-linejoin="round"/>
<path d="M294.164 1649.46C290.156 1649.46 287.012 1646.53 287.012 1641.3C287.012 1636.11 290.108 1633.04 294.26 1633.04C296.204 1633.04 297.74 1633.98 298.724 1635.01L297.188 1636.74C296.396 1635.95 295.484 1635.44 294.26 1635.44C291.644 1635.44 289.844 1637.63 289.844 1641.2C289.844 1644.83 291.644 1647.06 294.332 1647.06C295.604 1647.06 296.588 1646.46 297.476 1645.47L299.036 1647.15C297.764 1648.64 296.156 1649.46 294.164 1649.46ZM304.042 1649.17V1633.33H306.778V1646.82H314.17V1649.17H304.042ZM318.769 1649.17V1646.82H322.537V1635.66H318.769V1633.33H329.113V1635.66H325.321V1646.82H329.113V1649.17H318.769ZM334.84 1649.17V1633.33H344.848V1635.66H337.6V1639.76H343.744V1642.09H337.6V1646.82H345.088V1649.17H334.84ZM349.71 1649.17V1633.33H352.518L356.742 1642.31L358.206 1645.67H358.278C358.158 1644.03 357.894 1642.04 357.894 1640.29V1633.33H360.534V1649.17H357.702L353.502 1640.17L352.038 1636.83H351.966C352.086 1638.51 352.35 1640.41 352.35 1642.16V1649.17H349.71ZM369.309 1649.17V1635.66H364.389V1633.33H377.037V1635.66H372.093V1649.17H369.309ZM396.842 1649.17V1646.91H400.994V1636.33H397.778V1634.6C399.482 1634.34 400.658 1633.91 401.714 1633.33H403.73V1646.91H407.474V1649.17H396.842Z" fill="#EDEDED"/>
<rect x="253.548" y="1530.67" width="188" height="155" rx="20.5" stroke="#4D4D4D" shape-rendering="crispEdges"/>
</g>
<g filter="url(#filter2_d_560_17950)">
<rect x="1158.97" y="1530.17" width="189" height="156" rx="21" fill="#1C1C1C" shape-rendering="crispEdges"/>
<path d="M1269.47 1594.17V1576.17C1269.47 1575.11 1269.05 1574.09 1268.3 1573.34C1267.55 1572.59 1266.53 1572.17 1265.47 1572.17H1241.47C1240.41 1572.17 1239.39 1572.59 1238.64 1573.34C1237.89 1574.09 1237.47 1575.11 1237.47 1576.17V1594.17M1269.47 1594.17H1237.47M1269.47 1594.17L1272.03 1599.27C1272.18 1599.58 1272.26 1599.92 1272.24 1600.26C1272.23 1600.6 1272.12 1600.93 1271.94 1601.22C1271.76 1601.52 1271.51 1601.76 1271.21 1601.92C1270.91 1602.09 1270.57 1602.17 1270.23 1602.17H1236.71C1236.37 1602.17 1236.03 1602.09 1235.73 1601.92C1235.43 1601.76 1235.18 1601.52 1235 1601.22C1234.82 1600.93 1234.71 1600.6 1234.7 1600.26C1234.68 1599.92 1234.76 1599.58 1234.91 1599.27L1237.47 1594.17" stroke="#EDEDED" stroke-width="2" stroke-linecap="round" stroke-linejoin="round"/>
<path d="M1200.09 1649.46C1196.08 1649.46 1192.93 1646.53 1192.93 1641.3C1192.93 1636.11 1196.03 1633.04 1200.18 1633.04C1202.13 1633.04 1203.66 1633.98 1204.65 1635.01L1203.11 1636.74C1202.32 1635.95 1201.41 1635.44 1200.18 1635.44C1197.57 1635.44 1195.77 1637.63 1195.77 1641.2C1195.77 1644.83 1197.57 1647.06 1200.25 1647.06C1201.53 1647.06 1202.51 1646.46 1203.4 1645.47L1204.96 1647.15C1203.69 1648.64 1202.08 1649.46 1200.09 1649.46ZM1209.97 1649.17V1633.33H1212.7V1646.82H1220.09V1649.17H1209.97ZM1224.69 1649.17V1646.82H1228.46V1635.66H1224.69V1633.33H1235.04V1635.66H1231.24V1646.82H1235.04V1649.17H1224.69ZM1240.76 1649.17V1633.33H1250.77V1635.66H1243.52V1639.76H1249.67V1642.09H1243.52V1646.82H1251.01V1649.17H1240.76ZM1255.63 1649.17V1633.33H1258.44L1262.67 1642.31L1264.13 1645.67H1264.2C1264.08 1644.03 1263.82 1642.04 1263.82 1640.29V1633.33H1266.46V1649.17H1263.63L1259.43 1640.17L1257.96 1636.83H1257.89C1258.01 1638.51 1258.27 1640.41 1258.27 1642.16V1649.17H1255.63ZM1275.23 1649.17V1635.66H1270.31V1633.33H1282.96V1635.66H1278.02V1649.17H1275.23ZM1309.13 1649.17V1645.04H1301.49V1643.17L1306.56 1633.33H1309.37L1304.3 1642.91H1309.13V1638.78H1311.69V1642.91H1313.85V1645.04H1311.69V1649.17H1309.13Z" fill="#EDEDED"/>
<rect x="1159.47" y="1530.67" width="188" height="155" rx="20.5" stroke="#4D4D4D" shape-rendering="crispEdges"/>
</g>
<g filter="url(#filter3_d_560_17950)">
<rect x="471.344" y="1530.17" width="189" height="156" rx="21" fill="#1C1C1C" shape-rendering="crispEdges"/>
<path d="M581.843 1594.17V1576.17C581.843 1575.11 581.422 1574.09 580.672 1573.34C579.922 1572.59 578.904 1572.17 577.843 1572.17H553.843C552.782 1572.17 551.765 1572.59 551.015 1573.34C550.265 1574.09 549.843 1575.11 549.843 1576.17V1594.17M581.843 1594.17H549.843M581.843 1594.17L584.403 1599.27C584.557 1599.58 584.63 1599.92 584.615 1600.26C584.6 1600.6 584.497 1600.93 584.317 1601.22C584.136 1601.52 583.883 1601.76 583.583 1601.92C583.283 1602.09 582.946 1602.17 582.603 1602.17H549.083C548.741 1602.17 548.403 1602.09 548.103 1601.92C547.803 1601.76 547.551 1601.52 547.37 1601.22C547.189 1600.93 547.086 1600.6 547.071 1600.26C547.056 1599.92 547.129 1599.58 547.283 1599.27L549.843 1594.17" stroke="#EDEDED" stroke-width="2" stroke-linecap="round" stroke-linejoin="round"/>
<path d="M512.46 1649.46C508.452 1649.46 505.308 1646.53 505.308 1641.3C505.308 1636.11 508.404 1633.04 512.556 1633.04C514.5 1633.04 516.036 1633.98 517.02 1635.01L515.484 1636.74C514.692 1635.95 513.78 1635.44 512.556 1635.44C509.94 1635.44 508.14 1637.63 508.14 1641.2C508.14 1644.83 509.94 1647.06 512.628 1647.06C513.9 1647.06 514.884 1646.46 515.772 1645.47L517.332 1647.15C516.06 1648.64 514.452 1649.46 512.46 1649.46ZM522.338 1649.17V1633.33H525.074V1646.82H532.466V1649.17H522.338ZM537.065 1649.17V1646.82H540.833V1635.66H537.065V1633.33H547.409V1635.66H543.617V1646.82H547.409V1649.17H537.065ZM553.136 1649.17V1633.33H563.144V1635.66H555.896V1639.76H562.04V1642.09H555.896V1646.82H563.384V1649.17H553.136ZM568.006 1649.17V1633.33H570.814L575.038 1642.31L576.502 1645.67H576.574C576.454 1644.03 576.19 1642.04 576.19 1640.29V1633.33H578.83V1649.17H575.998L571.798 1640.17L570.334 1636.83H570.262C570.382 1638.51 570.646 1640.41 570.646 1642.16V1649.17H568.006ZM587.605 1649.17V1635.66H582.685V1633.33H595.333V1635.66H590.389V1649.17H587.605ZM614.562 1649.17V1647.56C619.338 1643.24 622.218 1640.48 622.218 1638.01C622.218 1636.33 621.234 1635.23 619.314 1635.23C617.97 1635.23 616.866 1636.02 615.93 1637L614.418 1635.49C615.906 1633.95 617.418 1633.04 619.674 1633.04C622.794 1633.04 624.858 1634.94 624.858 1637.87C624.858 1640.7 622.098 1643.6 618.522 1646.99C619.434 1646.91 620.49 1646.82 621.33 1646.82H625.674V1649.17H614.562Z" fill="#EDEDED"/>
<rect x="471.844" y="1530.67" width="188" height="155" rx="20.5" stroke="#4D4D4D" shape-rendering="crispEdges"/>
</g>
<path d="M694.965 1308.81V1292.97H697.701V1306.46H705.093V1308.81H694.965ZM716.052 1309.1C712.428 1309.1 709.884 1305.93 709.884 1300.82C709.884 1295.68 712.428 1292.68 716.052 1292.68C719.7 1292.68 722.22 1295.7 722.22 1300.82C722.22 1305.93 719.7 1309.1 716.052 1309.1ZM716.052 1306.7C718.068 1306.7 719.388 1304.39 719.388 1300.82C719.388 1297.24 718.068 1295.08 716.052 1295.08C714.036 1295.08 712.74 1297.24 712.74 1300.82C712.74 1304.39 714.036 1306.7 716.052 1306.7ZM726.146 1308.81L731.234 1292.97H734.474L739.562 1308.81H736.634L735.41 1304.49H730.202L728.954 1308.81H726.146ZM730.802 1302.3H734.81L734.258 1300.34C733.778 1298.66 733.298 1296.88 732.842 1295.13H732.746C732.314 1296.88 731.834 1298.66 731.354 1300.34L730.802 1302.3ZM744.233 1308.81V1292.97H748.289C752.921 1292.97 755.705 1295.58 755.705 1300.82C755.705 1306.05 752.921 1308.81 748.433 1308.81H744.233ZM747.017 1306.55H748.121C751.145 1306.55 752.849 1304.7 752.849 1300.82C752.849 1296.93 751.145 1295.2 748.121 1295.2H747.017V1306.55ZM778.27 1308.81V1292.97H782.878C786.094 1292.97 788.446 1293.95 788.446 1296.86C788.446 1298.34 787.558 1299.81 785.71 1300.31V1300.41C787.99 1300.79 789.238 1301.99 789.238 1304.15C789.238 1307.32 786.718 1308.81 783.286 1308.81H778.27ZM781.03 1299.54H782.614C784.822 1299.54 785.734 1298.68 785.734 1297.19C785.734 1295.73 784.726 1295.13 782.686 1295.13H781.03V1299.54ZM781.03 1306.65H782.998C785.302 1306.65 786.526 1305.78 786.526 1303.98C786.526 1302.28 785.35 1301.54 782.998 1301.54H781.03V1306.65ZM793.309 1308.81L798.397 1292.97H801.637L806.725 1308.81H803.797L802.573 1304.49H797.365L796.117 1308.81H793.309ZM797.965 1302.3H801.973L801.421 1300.34C800.941 1298.66 800.461 1296.88 800.005 1295.13H799.909C799.477 1296.88 798.997 1298.66 798.517 1300.34L797.965 1302.3ZM812.499 1308.81V1292.97H815.235V1306.46H822.627V1308.81H812.499ZM826.89 1308.81L831.978 1292.97H835.218L840.306 1308.81H837.378L836.154 1304.49H830.946L829.698 1308.81H826.89ZM831.546 1302.3H835.554L835.002 1300.34C834.522 1298.66 834.042 1296.88 833.586 1295.13H833.49C833.058 1296.88 832.578 1298.66 832.098 1300.34L831.546 1302.3ZM844.977 1308.81V1292.97H847.785L852.009 1301.94L853.473 1305.3H853.545C853.425 1303.67 853.161 1301.68 853.161 1299.93V1292.97H855.801V1308.81H852.969L848.769 1299.81L847.305 1296.47H847.233C847.353 1298.15 847.617 1300.05 847.617 1301.8V1308.81H844.977ZM868.583 1309.1C864.575 1309.1 861.431 1306.17 861.431 1300.94C861.431 1295.75 864.527 1292.68 868.679 1292.68C870.623 1292.68 872.159 1293.62 873.143 1294.65L871.607 1296.38C870.815 1295.58 869.903 1295.08 868.679 1295.08C866.063 1295.08 864.263 1297.26 864.263 1300.84C864.263 1304.46 866.063 1306.7 868.751 1306.7C870.023 1306.7 871.007 1306.1 871.895 1305.11L873.455 1306.79C872.183 1308.28 870.575 1309.1 868.583 1309.1ZM879.278 1308.81V1292.97H889.286V1295.3H882.038V1299.4H888.182V1301.73H882.038V1306.46H889.526V1308.81H879.278ZM895.588 1308.81V1292.97H900.82C904.06 1292.97 906.58 1294.12 906.58 1297.65C906.58 1300.05 905.332 1301.51 903.436 1302.16L907.204 1308.81H904.084L900.676 1302.59H898.348V1308.81H895.588ZM898.348 1300.36H900.532C902.692 1300.36 903.844 1299.45 903.844 1297.65C903.844 1295.8 902.692 1295.18 900.532 1295.18H898.348V1300.36Z" fill="#EDEDED"/>
<rect x="181" y="1335.81" width="1238" height="115" rx="32" fill="#3DCF8E" fill-opacity="0.05"/>
<rect x="181" y="1335.81" width="1238" height="115" rx="32" stroke="#3ECF8E" stroke-width="2" stroke-linecap="round"/>
<path d="M753.929 1034.5V1018.66H759.161C762.401 1018.66 764.921 1019.81 764.921 1023.34C764.921 1025.74 763.673 1027.2 761.777 1027.85L765.545 1034.5H762.425L759.017 1028.28H756.689V1034.5H753.929ZM756.689 1026.05H758.873C761.033 1026.05 762.185 1025.14 762.185 1023.34C762.185 1021.49 761.033 1020.87 758.873 1020.87H756.689V1026.05ZM775.879 1034.79C772.255 1034.79 769.711 1031.62 769.711 1026.51C769.711 1021.37 772.255 1018.37 775.879 1018.37C779.527 1018.37 782.047 1021.4 782.047 1026.51C782.047 1031.62 779.527 1034.79 775.879 1034.79ZM775.879 1032.39C777.895 1032.39 779.215 1030.08 779.215 1026.51C779.215 1022.93 777.895 1020.77 775.879 1020.77C773.863 1020.77 772.567 1022.93 772.567 1026.51C772.567 1030.08 773.863 1032.39 775.879 1032.39ZM792.718 1034.79C789.262 1034.79 787.198 1032.8 787.198 1028.45V1018.66H789.958V1028.64C789.958 1031.26 791.014 1032.39 792.718 1032.39C794.398 1032.39 795.478 1031.26 795.478 1028.64V1018.66H798.166V1028.45C798.166 1032.8 796.15 1034.79 792.718 1034.79ZM808.069 1034.5V1020.99H803.149V1018.66H815.797V1020.99H810.853V1034.5H808.069ZM821.571 1034.5V1018.66H831.579V1020.99H824.331V1025.09H830.475V1027.42H824.331V1032.15H831.819V1034.5H821.571ZM837.642 1034.5V1018.66H841.698C846.33 1018.66 849.114 1021.28 849.114 1026.51C849.114 1031.74 846.33 1034.5 841.842 1034.5H837.642ZM840.426 1032.24H841.53C844.554 1032.24 846.258 1030.4 846.258 1026.51C846.258 1022.62 844.554 1020.89 841.53 1020.89H840.426V1032.24Z" fill="#EDEDED"/>
<path d="M419.489 763.75V747.91H422.297L426.521 756.886L427.985 760.246H428.057C427.937 758.614 427.673 756.622 427.673 754.87V747.91H430.313V763.75H427.481L423.281 754.75L421.817 751.414H421.745C421.865 753.094 422.129 754.99 422.129 756.742V763.75H419.489ZM440.48 764.038C436.856 764.038 434.312 760.87 434.312 755.758C434.312 750.622 436.856 747.622 440.48 747.622C444.128 747.622 446.648 750.646 446.648 755.758C446.648 760.87 444.128 764.038 440.48 764.038ZM440.48 761.638C442.496 761.638 443.816 759.334 443.816 755.758C443.816 752.182 442.496 750.022 440.48 750.022C438.464 750.022 437.168 752.182 437.168 755.758C437.168 759.334 438.464 761.638 440.48 761.638ZM450.671 763.75V747.91H454.727C459.359 747.91 462.143 750.526 462.143 755.758C462.143 760.99 459.359 763.75 454.871 763.75H450.671ZM453.455 761.494H454.559C457.583 761.494 459.287 759.646 459.287 755.758C459.287 751.87 457.583 750.142 454.559 750.142H453.455V761.494ZM466.981 763.75V747.91H476.989V750.238H469.741V754.342H475.885V756.67H469.741V761.398H477.229V763.75H466.981ZM497.803 763.75V761.494H501.955V750.91H498.739V749.182C500.443 748.918 501.619 748.486 502.675 747.91H504.691V761.494H508.435V763.75H497.803Z" fill="#EDEDED"/>
<path d="M1095.88 772.75V756.91H1098.69L1102.91 765.886L1104.38 769.246H1104.45C1104.33 767.614 1104.07 765.622 1104.07 763.87V756.91H1106.71V772.75H1103.87L1099.67 763.75L1098.21 760.414H1098.14C1098.26 762.094 1098.52 763.99 1098.52 765.742V772.75H1095.88ZM1116.87 773.038C1113.25 773.038 1110.7 769.87 1110.7 764.758C1110.7 759.622 1113.25 756.622 1116.87 756.622C1120.52 756.622 1123.04 759.646 1123.04 764.758C1123.04 769.87 1120.52 773.038 1116.87 773.038ZM1116.87 770.638C1118.89 770.638 1120.21 768.334 1120.21 764.758C1120.21 761.182 1118.89 759.022 1116.87 759.022C1114.86 759.022 1113.56 761.182 1113.56 764.758C1113.56 768.334 1114.86 770.638 1116.87 770.638ZM1127.06 772.75V756.91H1131.12C1135.75 756.91 1138.53 759.526 1138.53 764.758C1138.53 769.99 1135.75 772.75 1131.26 772.75H1127.06ZM1129.85 770.494H1130.95C1133.97 770.494 1135.68 768.646 1135.68 764.758C1135.68 760.87 1133.97 759.142 1130.95 759.142H1129.85V770.494ZM1143.37 772.75V756.91H1153.38V759.238H1146.13V763.342H1152.28V765.67H1146.13V770.398H1153.62V772.75H1143.37ZM1173.62 772.75V771.142C1178.39 766.822 1181.27 764.062 1181.27 761.59C1181.27 759.91 1180.29 758.806 1178.37 758.806C1177.03 758.806 1175.92 759.598 1174.99 760.582L1173.47 759.07C1174.96 757.534 1176.47 756.622 1178.73 756.622C1181.85 756.622 1183.91 758.518 1183.91 761.446C1183.91 764.278 1181.15 767.182 1177.58 770.566C1178.49 770.494 1179.55 770.398 1180.39 770.398H1184.73V772.75H1173.62Z" fill="#EDEDED"/>
<g filter="url(#filter4_d_560_17950)">
<rect x="235.861" y="227.753" width="219" height="159.239" rx="21" fill="#24272C" shape-rendering="crispEdges"/>
<path d="M373.62 297.026C374.887 295.69 376.24 293.035 374.447 288.369C370.78 278.836 362.044 275.039 357.062 275.375C345.07 270.65 341.16 274.387 337.021 278.341C336.298 279.031 335.55 279.746 334.749 280.422C332.646 282.197 329.998 282.326 328.452 280.732C325.961 278.164 326.838 271.787 334.419 263.325C334.689 263.025 334.779 262.607 334.66 262.222C334.318 261.107 332.819 259.192 329.577 259.91C327.273 260.423 318.92 269.129 317.805 278.595C317.203 283.708 318.554 290.757 328.028 295.979C326.029 297.583 321.801 300.433 317.199 300.197C315.857 300.135 314.551 300.207 314.114 301.205C313.875 301.755 314.02 302.365 314.503 302.835C316.127 304.421 325.734 306.661 335.29 302.371C336.16 302.574 337.468 303.099 337.586 303.757C337.761 304.719 338.281 305.206 338.685 305.443C339.969 306.2 341.786 305.61 344.525 304.693C345.205 305.458 346.447 307.222 346.235 309.75C346.207 310.07 346.318 310.386 346.533 310.621C346.749 310.857 347.056 310.992 347.376 310.992H375.574C375.887 310.992 376.189 310.863 376.407 310.633C376.622 310.404 376.737 310.096 376.721 309.782C376.326 302.465 374.511 298.541 373.62 297.026ZM319.964 302.318C324.733 301.544 328.615 298.543 330.153 297.199C330.95 297.795 332.3 298.95 333.461 300.628C328.34 302.691 323.301 302.783 319.964 302.318ZM348.542 308.695C348.334 304.834 345.686 302.596 345.561 302.493C345.255 302.242 344.843 302.165 344.469 302.29L343.915 302.477C342.309 303.015 340.315 303.681 339.891 303.502C339.891 303.502 339.864 303.459 339.844 303.345C339.464 301.248 337.021 300.425 335.878 300.151C333.761 296.631 330.769 294.826 330.638 294.75C330.622 294.74 330.604 294.74 330.587 294.732C330.575 294.726 330.567 294.712 330.555 294.704C323.065 291.057 319.522 285.944 320.023 279.502C320.701 270.763 328.553 262.619 330.076 262.15C331.201 261.9 331.815 262.158 332.141 262.442C323.572 272.3 323.733 279.162 326.808 282.33C329.217 284.811 333.179 284.746 336.23 282.175C337.085 281.454 337.86 280.716 338.607 280.001C342.541 276.244 345.646 273.28 356.466 277.609C356.639 277.677 356.826 277.703 357.012 277.685C361.238 277.238 369.001 280.595 372.307 289.196C373.426 292.102 373.201 294.418 371.676 295.718C369.591 297.495 365.403 297.227 361.716 295.086C360.912 294.619 360.205 294.673 359.752 294.802C358.293 295.219 357.396 296.905 356.444 298.694C355.746 300.008 354.788 301.807 354.041 301.859C353.884 301.872 353.228 301.783 352.047 300.159C347.853 294.392 350.789 287.276 351.79 285.233C352.067 284.664 351.832 283.976 351.262 283.698C350.693 283.42 350.007 283.656 349.727 284.225C348.586 286.56 345.243 294.706 350.192 301.507C351.552 303.377 352.858 304.24 354.202 304.148C356.219 304.007 357.364 301.851 358.471 299.771C359.024 298.73 359.859 297.159 360.382 297.008C360.423 296.992 360.505 297.034 360.565 297.068C364.461 299.332 368.798 299.785 371.758 298.37C372.466 299.626 373.885 302.799 374.354 308.697L348.542 308.695Z" fill="#3E78CF"/>
<path d="M269.661 349.991V334.151H273.717C278.349 334.151 281.133 336.767 281.133 341.999C281.133 347.231 278.349 349.991 273.861 349.991H269.661ZM272.445 347.735H273.549C276.573 347.735 278.277 345.887 278.277 341.999C278.277 338.111 276.573 336.383 273.549 336.383H272.445V347.735ZM283.956 349.991L289.044 334.151H292.284L297.372 349.991H294.444L293.22 345.671H288.012L286.764 349.991H283.956ZM288.612 343.487H292.62L292.068 341.519C291.588 339.839 291.108 338.063 290.652 336.311H290.556C290.124 338.063 289.644 339.839 289.164 341.519L288.612 343.487ZM304.851 349.991V336.479H299.931V334.151H312.579V336.479H307.635V349.991H304.851ZM315.137 349.991L320.225 334.151H323.465L328.553 349.991H325.625L324.401 345.671H319.193L317.945 349.991H315.137ZM319.793 343.487H323.801L323.249 341.519C322.769 339.839 322.289 338.063 321.833 336.311H321.737C321.305 338.063 320.825 339.839 320.345 341.519L319.793 343.487ZM332.48 349.991V334.151H337.088C340.304 334.151 342.656 335.135 342.656 338.039C342.656 339.527 341.768 340.991 339.92 341.495V341.591C342.2 341.975 343.448 343.175 343.448 345.335C343.448 348.503 340.928 349.991 337.496 349.991H332.48ZM335.24 340.727H336.824C339.032 340.727 339.944 339.863 339.944 338.375C339.944 336.911 338.936 336.311 336.896 336.311H335.24V340.727ZM335.24 347.831H337.208C339.512 347.831 340.736 346.967 340.736 345.167C340.736 343.463 339.56 342.719 337.208 342.719H335.24V347.831ZM346.318 349.991L351.406 334.151H354.646L359.734 349.991H356.806L355.582 345.671H350.374L349.126 349.991H346.318ZM350.974 343.487H354.982L354.43 341.519C353.95 339.839 353.47 338.063 353.014 336.311H352.918C352.486 338.063 352.006 339.839 351.526 341.519L350.974 343.487ZM368.653 350.279C366.445 350.279 364.357 349.439 362.821 347.951L364.429 346.055C365.605 347.135 367.165 347.879 368.701 347.879C370.645 347.879 371.629 347.063 371.629 345.791C371.629 344.471 370.573 344.063 369.013 343.439L366.877 342.503C365.197 341.855 363.493 340.607 363.493 338.303C363.493 335.783 365.749 333.863 368.941 333.863C370.885 333.863 372.685 334.607 373.981 335.879L372.541 337.631C371.485 336.767 370.405 336.263 368.941 336.263C367.309 336.263 366.301 336.959 366.301 338.159C366.301 339.407 367.573 339.839 368.989 340.415L371.053 341.303C373.045 342.119 374.461 343.271 374.461 345.575C374.461 348.143 372.325 350.279 368.653 350.279ZM379.516 349.991V334.151H389.524V336.479H382.276V340.583H388.42V342.911H382.276V347.639H389.764V349.991H379.516ZM410.337 349.991V347.735H414.489V337.151H411.273V335.423C412.977 335.159 414.153 334.727 415.209 334.151H417.225V347.735H420.969V349.991H410.337Z" fill="#EDEDED"/>
<rect x="236.361" y="228.253" width="218" height="158.239" rx="20.5" stroke="#3E78CF" shape-rendering="crispEdges"/>
</g>
<g filter="url(#filter5_d_560_17950)">
<rect x="691.01" y="229.258" width="219" height="159.239" rx="21" fill="#24272C" shape-rendering="crispEdges"/>
<path d="M828.768 298.531C830.036 297.194 831.388 294.54 829.595 289.874C825.929 280.341 817.193 276.544 812.21 276.88C800.219 272.155 796.309 275.892 792.169 279.846C791.447 280.536 790.698 281.251 789.897 281.927C787.794 283.702 785.146 283.83 783.601 282.237C781.109 279.669 781.987 273.292 789.567 264.83C789.837 264.53 789.928 264.111 789.809 263.727C789.467 262.612 787.968 260.696 784.726 261.415C782.422 261.928 774.068 270.633 772.953 280.1C772.352 285.213 773.702 292.262 783.176 297.484C781.178 299.088 776.95 301.938 772.348 301.702C771.005 301.64 769.699 301.712 769.263 302.71C769.023 303.26 769.168 303.869 769.651 304.34C771.275 305.926 780.882 308.166 790.439 303.875C791.308 304.079 792.616 304.604 792.735 305.262C792.91 306.224 793.429 306.711 793.834 306.948C795.117 307.705 796.935 307.115 799.673 306.198C800.354 306.962 801.595 308.727 801.384 311.255C801.356 311.575 801.466 311.891 801.682 312.126C801.897 312.362 802.205 312.496 802.525 312.496H830.722C831.036 312.496 831.338 312.368 831.555 312.138C831.77 311.909 831.885 311.601 831.869 311.287C831.475 303.97 829.659 300.046 828.768 298.531ZM775.113 303.823C779.882 303.048 783.764 300.048 785.301 298.704C786.098 299.299 787.448 300.454 788.609 302.133C783.488 304.195 778.449 304.288 775.113 303.823ZM803.69 310.2C803.483 306.339 800.835 304.101 800.71 303.998C800.404 303.747 799.991 303.67 799.617 303.795L799.064 303.982C797.458 304.519 795.464 305.186 795.039 305.006C795.039 305.006 795.013 304.964 794.993 304.849C794.612 302.753 792.169 301.93 791.026 301.656C788.909 298.136 785.917 296.331 785.786 296.255C785.77 296.245 785.752 296.245 785.736 296.237C785.724 296.231 785.716 296.216 785.704 296.208C778.214 292.562 774.67 287.449 775.171 281.007C775.849 272.268 783.701 264.124 785.225 263.655C786.35 263.405 786.963 263.663 787.289 263.946C778.721 273.805 778.882 280.667 781.957 283.834C784.365 286.316 788.328 286.251 791.378 283.68C792.234 282.959 793.008 282.221 793.755 281.506C797.689 277.749 800.794 274.785 811.615 279.114C811.788 279.182 811.975 279.208 812.16 279.19C816.386 278.743 824.15 282.1 827.456 290.701C828.575 293.606 828.349 295.923 826.824 297.223C824.739 299 820.552 298.732 816.865 296.591C816.06 296.124 815.354 296.178 814.901 296.307C813.442 296.724 812.544 298.41 811.593 300.199C810.894 301.513 809.936 303.312 809.19 303.364C809.033 303.376 808.377 303.288 807.196 301.664C803.002 295.897 805.938 288.781 806.938 286.738C807.216 286.169 806.98 285.481 806.411 285.203C805.841 284.925 805.155 285.161 804.875 285.73C803.734 288.064 800.392 296.21 805.34 303.012C806.701 304.882 808.007 305.745 809.351 305.652C811.367 305.512 812.512 303.356 813.619 301.276C814.172 300.235 815.008 298.663 815.531 298.513C815.571 298.496 815.653 298.539 815.714 298.573C819.61 300.837 823.946 301.29 826.907 299.875C827.615 301.131 829.034 304.304 829.502 310.202L803.69 310.2Z" fill="#3E78CF"/>
<path d="M724.81 351.496V335.656H728.866C733.498 335.656 736.282 338.272 736.282 343.504C736.282 348.736 733.498 351.496 729.01 351.496H724.81ZM727.594 349.24H728.698C731.722 349.24 733.426 347.392 733.426 343.504C733.426 339.616 731.722 337.888 728.698 337.888H727.594V349.24ZM739.104 351.496L744.192 335.656H747.432L752.52 351.496H749.592L748.368 347.176H743.16L741.912 351.496H739.104ZM743.76 344.992H747.768L747.216 343.024C746.736 341.344 746.256 339.568 745.8 337.816H745.704C745.272 339.568 744.792 341.344 744.312 343.024L743.76 344.992ZM759.999 351.496V337.984H755.079V335.656H767.727V337.984H762.783V351.496H759.999ZM770.286 351.496L775.374 335.656H778.614L783.702 351.496H780.774L779.55 347.176H774.342L773.094 351.496H770.286ZM774.942 344.992H778.95L778.398 343.024C777.918 341.344 777.438 339.568 776.982 337.816H776.886C776.454 339.568 775.974 341.344 775.494 343.024L774.942 344.992ZM787.628 351.496V335.656H792.236C795.452 335.656 797.804 336.64 797.804 339.544C797.804 341.032 796.916 342.496 795.068 343V343.096C797.348 343.48 798.596 344.68 798.596 346.84C798.596 350.008 796.076 351.496 792.644 351.496H787.628ZM790.388 342.232H791.972C794.18 342.232 795.092 341.368 795.092 339.88C795.092 338.416 794.084 337.816 792.044 337.816H790.388V342.232ZM790.388 349.336H792.356C794.66 349.336 795.884 348.472 795.884 346.672C795.884 344.968 794.708 344.224 792.356 344.224H790.388V349.336ZM801.467 351.496L806.555 335.656H809.795L814.883 351.496H811.955L810.731 347.176H805.523L804.275 351.496H801.467ZM806.123 344.992H810.131L809.579 343.024C809.099 341.344 808.619 339.568 808.163 337.816H808.067C807.635 339.568 807.155 341.344 806.675 343.024L806.123 344.992ZM823.802 351.784C821.594 351.784 819.506 350.944 817.97 349.456L819.578 347.56C820.754 348.64 822.314 349.384 823.85 349.384C825.794 349.384 826.778 348.568 826.778 347.296C826.778 345.976 825.722 345.568 824.162 344.944L822.026 344.008C820.346 343.36 818.642 342.112 818.642 339.808C818.642 337.288 820.898 335.368 824.09 335.368C826.034 335.368 827.834 336.112 829.13 337.384L827.69 339.136C826.634 338.272 825.554 337.768 824.09 337.768C822.458 337.768 821.45 338.464 821.45 339.664C821.45 340.912 822.722 341.344 824.138 341.92L826.202 342.808C828.194 343.624 829.61 344.776 829.61 347.08C829.61 349.648 827.474 351.784 823.802 351.784ZM834.664 351.496V335.656H844.672V337.984H837.424V342.088H843.568V344.416H837.424V349.144H844.912V351.496H834.664ZM864.909 351.496V349.888C869.685 345.568 872.565 342.808 872.565 340.336C872.565 338.656 871.581 337.552 869.661 337.552C868.317 337.552 867.213 338.344 866.277 339.328L864.765 337.816C866.253 336.28 867.765 335.368 870.021 335.368C873.141 335.368 875.205 337.264 875.205 340.192C875.205 343.024 872.445 345.928 868.869 349.312C869.781 349.24 870.837 349.144 871.677 349.144H876.021V351.496H864.909Z" fill="#EDEDED"/>
<rect x="691.51" y="229.758" width="218" height="158.239" rx="20.5" stroke="#3E78CF" shape-rendering="crispEdges"/>
</g>
<g filter="url(#filter6_d_560_17950)">
<rect x="1142.36" y="227.753" width="219" height="159.239" rx="21" fill="#24272C" shape-rendering="crispEdges"/>
<path d="M1280.12 297.026C1281.39 295.69 1282.74 293.035 1280.95 288.369C1277.28 278.836 1268.54 275.039 1263.56 275.375C1251.57 270.65 1247.66 274.387 1243.52 278.341C1242.8 279.031 1242.05 279.746 1241.25 280.422C1239.15 282.197 1236.5 282.326 1234.95 280.732C1232.46 278.164 1233.34 271.787 1240.92 263.325C1241.19 263.025 1241.28 262.607 1241.16 262.222C1240.82 261.107 1239.32 259.192 1236.08 259.91C1233.77 260.423 1225.42 269.129 1224.3 278.595C1223.7 283.708 1225.05 290.757 1234.53 295.979C1232.53 297.583 1228.3 300.433 1223.7 300.197C1222.36 300.135 1221.05 300.207 1220.61 301.205C1220.37 301.755 1220.52 302.365 1221 302.835C1222.63 304.421 1232.23 306.661 1241.79 302.371C1242.66 302.574 1243.97 303.099 1244.09 303.757C1244.26 304.719 1244.78 305.206 1245.19 305.443C1246.47 306.2 1248.29 305.61 1251.02 304.693C1251.71 305.458 1252.95 307.222 1252.74 309.75C1252.71 310.07 1252.82 310.386 1253.03 310.621C1253.25 310.857 1253.56 310.992 1253.88 310.992H1282.07C1282.39 310.992 1282.69 310.863 1282.91 310.633C1283.12 310.404 1283.24 310.096 1283.22 309.782C1282.83 302.465 1281.01 298.541 1280.12 297.026ZM1226.46 302.318C1231.23 301.544 1235.12 298.543 1236.65 297.199C1237.45 297.795 1238.8 298.95 1239.96 300.628C1234.84 302.691 1229.8 302.783 1226.46 302.318ZM1255.04 308.695C1254.83 304.834 1252.19 302.596 1252.06 302.493C1251.76 302.242 1251.34 302.165 1250.97 302.29L1250.42 302.477C1248.81 303.015 1246.82 303.681 1246.39 303.502C1246.39 303.502 1246.36 303.459 1246.34 303.345C1245.96 301.248 1243.52 300.425 1242.38 300.151C1240.26 296.631 1237.27 294.826 1237.14 294.75C1237.12 294.74 1237.1 294.74 1237.09 294.732C1237.08 294.726 1237.07 294.712 1237.06 294.704C1229.57 291.057 1226.02 285.944 1226.52 279.502C1227.2 270.763 1235.05 262.619 1236.58 262.15C1237.7 261.9 1238.31 262.158 1238.64 262.442C1230.07 272.3 1230.23 279.162 1233.31 282.33C1235.72 284.811 1239.68 284.746 1242.73 282.175C1243.59 281.454 1244.36 280.716 1245.11 280.001C1249.04 276.244 1252.15 273.28 1262.97 277.609C1263.14 277.677 1263.33 277.703 1263.51 277.685C1267.74 277.238 1275.5 280.595 1278.81 289.196C1279.93 292.102 1279.7 294.418 1278.18 295.718C1276.09 297.495 1271.9 297.227 1268.22 295.086C1267.41 294.619 1266.71 294.673 1266.25 294.802C1264.79 295.219 1263.9 296.905 1262.94 298.694C1262.25 300.008 1261.29 301.807 1260.54 301.859C1260.38 301.872 1259.73 301.783 1258.55 300.159C1254.35 294.392 1257.29 287.276 1258.29 285.233C1258.57 284.664 1258.33 283.976 1257.76 283.698C1257.19 283.42 1256.51 283.656 1256.23 284.225C1255.09 286.56 1251.74 294.706 1256.69 301.507C1258.05 303.377 1259.36 304.24 1260.7 304.148C1262.72 304.007 1263.86 301.851 1264.97 299.771C1265.52 298.73 1266.36 297.159 1266.88 297.008C1266.92 296.992 1267.01 297.034 1267.07 297.068C1270.96 299.332 1275.3 299.785 1278.26 298.37C1278.97 299.626 1280.39 302.799 1280.85 308.697L1255.04 308.695Z" fill="#3E78CF"/>
<path d="M1176.16 349.991V334.151H1180.22C1184.85 334.151 1187.63 336.767 1187.63 341.999C1187.63 347.231 1184.85 349.991 1180.36 349.991H1176.16ZM1178.95 347.735H1180.05C1183.07 347.735 1184.78 345.887 1184.78 341.999C1184.78 338.111 1183.07 336.383 1180.05 336.383H1178.95V347.735ZM1190.46 349.991L1195.54 334.151H1198.78L1203.87 349.991H1200.94L1199.72 345.671H1194.51L1193.26 349.991H1190.46ZM1195.11 343.487H1199.12L1198.57 341.519C1198.09 339.839 1197.61 338.063 1197.15 336.311H1197.06C1196.62 338.063 1196.14 339.839 1195.66 341.519L1195.11 343.487ZM1211.35 349.991V336.479H1206.43V334.151H1219.08V336.479H1214.13V349.991H1211.35ZM1221.64 349.991L1226.73 334.151H1229.97L1235.05 349.991H1232.13L1230.9 345.671H1225.69L1224.45 349.991H1221.64ZM1226.29 343.487H1230.3L1229.75 341.519C1229.27 339.839 1228.79 338.063 1228.33 336.311H1228.24C1227.81 338.063 1227.33 339.839 1226.85 341.519L1226.29 343.487ZM1238.98 349.991V334.151H1243.59C1246.8 334.151 1249.16 335.135 1249.16 338.039C1249.16 339.527 1248.27 340.991 1246.42 341.495V341.591C1248.7 341.975 1249.95 343.175 1249.95 345.335C1249.95 348.503 1247.43 349.991 1244 349.991H1238.98ZM1241.74 340.727H1243.32C1245.53 340.727 1246.44 339.863 1246.44 338.375C1246.44 336.911 1245.44 336.311 1243.4 336.311H1241.74V340.727ZM1241.74 347.831H1243.71C1246.01 347.831 1247.24 346.967 1247.24 345.167C1247.24 343.463 1246.06 342.719 1243.71 342.719H1241.74V347.831ZM1252.82 349.991L1257.91 334.151H1261.15L1266.23 349.991H1263.31L1262.08 345.671H1256.87L1255.63 349.991H1252.82ZM1257.47 343.487H1261.48L1260.93 341.519C1260.45 339.839 1259.97 338.063 1259.51 336.311H1259.42C1258.99 338.063 1258.51 339.839 1258.03 341.519L1257.47 343.487ZM1275.15 350.279C1272.95 350.279 1270.86 349.439 1269.32 347.951L1270.93 346.055C1272.11 347.135 1273.67 347.879 1275.2 347.879C1277.15 347.879 1278.13 347.063 1278.13 345.791C1278.13 344.471 1277.07 344.063 1275.51 343.439L1273.38 342.503C1271.7 341.855 1269.99 340.607 1269.99 338.303C1269.99 335.783 1272.25 333.863 1275.44 333.863C1277.39 333.863 1279.19 334.607 1280.48 335.879L1279.04 337.631C1277.99 336.767 1276.91 336.263 1275.44 336.263C1273.81 336.263 1272.8 336.959 1272.8 338.159C1272.8 339.407 1274.07 339.839 1275.49 340.415L1277.55 341.303C1279.55 342.119 1280.96 343.271 1280.96 345.575C1280.96 348.143 1278.83 350.279 1275.15 350.279ZM1286.02 349.991V334.151H1296.02V336.479H1288.78V340.583H1294.92V342.911H1288.78V347.639H1296.26V349.991H1286.02ZM1321.47 350.279C1318.85 350.279 1317.03 349.295 1315.88 348.047L1317.2 346.271C1318.2 347.255 1319.57 348.023 1321.25 348.023C1323.12 348.023 1324.52 347.111 1324.52 345.599C1324.52 343.919 1323.22 342.815 1319.43 342.815V340.799C1322.74 340.799 1323.99 339.719 1323.99 338.207C1323.99 336.863 1322.93 336.047 1321.3 336.047C1319.98 336.047 1318.83 336.647 1317.8 337.559L1316.38 335.855C1317.75 334.655 1319.45 333.863 1321.42 333.863C1324.52 333.863 1326.75 335.375 1326.75 338.015C1326.75 339.815 1325.52 340.991 1323.68 341.663V341.783C1325.64 342.263 1327.28 343.607 1327.28 345.719C1327.28 348.599 1324.61 350.279 1321.47 350.279Z" fill="#EDEDED"/>
<rect x="1142.86" y="228.253" width="218" height="158.239" rx="20.5" stroke="#3E78CF" shape-rendering="crispEdges"/>
</g>
<rect x="268.298" y="883.415" width="154.5" height="53.5" rx="26.75" fill="#204532"/>
<path d="M301.488 919.165V903.325H306.768C310.2 903.325 312.72 904.525 312.72 908.197C312.72 911.701 310.152 913.309 306.768 913.309H304.248V919.165H301.488ZM304.248 911.101H306.528C308.88 911.101 309.984 910.141 309.984 908.197C309.984 906.205 308.832 905.533 306.528 905.533H304.248V911.101ZM322.167 919.453C318.543 919.453 315.999 916.285 315.999 911.173C315.999 906.037 318.543 903.037 322.167 903.037C325.815 903.037 328.335 906.061 328.335 911.173C328.335 916.285 325.815 919.453 322.167 919.453ZM322.167 917.053C324.183 917.053 325.503 914.749 325.503 911.173C325.503 907.597 324.183 905.437 322.167 905.437C320.151 905.437 318.855 907.597 318.855 911.173C318.855 914.749 320.151 917.053 322.167 917.053ZM337.757 919.453C334.133 919.453 331.589 916.285 331.589 911.173C331.589 906.037 334.133 903.037 337.757 903.037C341.405 903.037 343.925 906.061 343.925 911.173C343.925 916.285 341.405 919.453 337.757 919.453ZM337.757 917.053C339.773 917.053 341.093 914.749 341.093 911.173C341.093 907.597 339.773 905.437 337.757 905.437C335.741 905.437 334.445 907.597 334.445 911.173C334.445 914.749 335.741 917.053 337.757 917.053ZM349.052 919.165V903.325H351.788V916.813H359.18V919.165H349.052ZM379.489 919.165V916.909H383.641V906.325H380.425V904.597C382.129 904.333 383.305 903.901 384.361 903.325H386.377V916.909H390.121V919.165H379.489Z" fill="#EDEDED"/>
<rect x="268.298" y="883.415" width="154.5" height="53.5" rx="26.75" stroke="#3ECF8E" stroke-width="2.5"/>
<rect x="486.594" y="883.25" width="154.5" height="53.5" rx="26.75" fill="#204532"/>
<path d="M519.784 919V903.16H525.064C528.496 903.16 531.016 904.36 531.016 908.032C531.016 911.536 528.448 913.144 525.064 913.144H522.544V919H519.784ZM522.544 910.936H524.824C527.176 910.936 528.28 909.976 528.28 908.032C528.28 906.04 527.128 905.368 524.824 905.368H522.544V910.936ZM540.463 919.288C536.838 919.288 534.294 916.12 534.294 911.008C534.294 905.872 536.838 902.872 540.463 902.872C544.111 902.872 546.631 905.896 546.631 911.008C546.631 916.12 544.111 919.288 540.463 919.288ZM540.463 916.888C542.478 916.888 543.799 914.584 543.799 911.008C543.799 907.432 542.478 905.272 540.463 905.272C538.446 905.272 537.15 907.432 537.15 911.008C537.15 914.584 538.446 916.888 540.463 916.888ZM556.053 919.288C552.429 919.288 549.885 916.12 549.885 911.008C549.885 905.872 552.429 902.872 556.053 902.872C559.701 902.872 562.221 905.896 562.221 911.008C562.221 916.12 559.701 919.288 556.053 919.288ZM556.053 916.888C558.069 916.888 559.389 914.584 559.389 911.008C559.389 907.432 558.069 905.272 556.053 905.272C554.037 905.272 552.741 907.432 552.741 911.008C552.741 914.584 554.037 916.888 556.053 916.888ZM567.348 919V903.16H570.084V916.648H577.476V919H567.348ZM597.209 919V917.392C601.985 913.072 604.865 910.312 604.865 907.84C604.865 906.16 603.881 905.056 601.961 905.056C600.617 905.056 599.513 905.848 598.577 906.832L597.065 905.32C598.553 903.784 600.065 902.872 602.321 902.872C605.441 902.872 607.505 904.768 607.505 907.696C607.505 910.528 604.745 913.432 601.169 916.816C602.081 916.744 603.137 916.648 603.977 916.648H608.321V919H597.209Z" fill="#EDEDED"/>
<rect x="486.594" y="883.25" width="154.5" height="53.5" rx="26.75" stroke="#3ECF8E" stroke-width="2.5"/>
<rect x="1174.22" y="878.25" width="154.5" height="53.5" rx="26.75" fill="#204532"/>
<path d="M1207.41 914V898.16H1212.69C1216.12 898.16 1218.64 899.36 1218.64 903.032C1218.64 906.536 1216.07 908.144 1212.69 908.144H1210.17V914H1207.41ZM1210.17 905.936H1212.45C1214.8 905.936 1215.91 904.976 1215.91 903.032C1215.91 901.04 1214.75 900.368 1212.45 900.368H1210.17V905.936ZM1228.09 914.288C1224.47 914.288 1221.92 911.12 1221.92 906.008C1221.92 900.872 1224.47 897.872 1228.09 897.872C1231.74 897.872 1234.26 900.896 1234.26 906.008C1234.26 911.12 1231.74 914.288 1228.09 914.288ZM1228.09 911.888C1230.11 911.888 1231.43 909.584 1231.43 906.008C1231.43 902.432 1230.11 900.272 1228.09 900.272C1226.07 900.272 1224.78 902.432 1224.78 906.008C1224.78 909.584 1226.07 911.888 1228.09 911.888ZM1243.68 914.288C1240.06 914.288 1237.51 911.12 1237.51 906.008C1237.51 900.872 1240.06 897.872 1243.68 897.872C1247.33 897.872 1249.85 900.896 1249.85 906.008C1249.85 911.12 1247.33 914.288 1243.68 914.288ZM1243.68 911.888C1245.7 911.888 1247.02 909.584 1247.02 906.008C1247.02 902.432 1245.7 900.272 1243.68 900.272C1241.66 900.272 1240.37 902.432 1240.37 906.008C1240.37 909.584 1241.66 911.888 1243.68 911.888ZM1254.97 914V898.16H1257.71V911.648H1265.1V914H1254.97ZM1290.04 914.288C1287.43 914.288 1285.6 913.304 1284.45 912.056L1285.77 910.28C1286.78 911.264 1288.15 912.032 1289.83 912.032C1291.7 912.032 1293.09 911.12 1293.09 909.608C1293.09 907.928 1291.8 906.824 1288 906.824V904.808C1291.32 904.808 1292.56 903.728 1292.56 902.216C1292.56 900.872 1291.51 900.056 1289.88 900.056C1288.56 900.056 1287.4 900.656 1286.37 901.568L1284.96 899.864C1286.32 898.664 1288.03 897.872 1290 897.872C1293.09 897.872 1295.32 899.384 1295.32 902.024C1295.32 903.824 1294.1 905 1292.25 905.672V905.792C1294.22 906.272 1295.85 907.616 1295.85 909.728C1295.85 912.608 1293.19 914.288 1290.04 914.288Z" fill="#EDEDED"/>
<rect x="1174.22" y="878.25" width="154.5" height="53.5" rx="26.75" stroke="#3ECF8E" stroke-width="2.5"/>
<g filter="url(#filter7_d_560_17950)">
<rect x="639.01" y="678.75" width="323" height="184" rx="21" fill="#1C1C1C" shape-rendering="crispEdges"/>
<path d="M800.51 726.75C810.451 726.75 818.51 724.064 818.51 720.75C818.51 717.436 810.451 714.75 800.51 714.75C790.569 714.75 782.51 717.436 782.51 720.75C782.51 724.064 790.569 726.75 800.51 726.75Z" stroke="#EDEDED" stroke-width="2" stroke-linecap="round" stroke-linejoin="round"/>
<path d="M818.51 734.75C818.51 738.07 810.51 740.75 800.51 740.75C790.51 740.75 782.51 738.07 782.51 734.75" stroke="#EDEDED" stroke-width="2" stroke-linecap="round" stroke-linejoin="round"/>
<path d="M782.51 720.75V748.75C782.51 752.07 790.51 754.75 800.51 754.75C810.51 754.75 818.51 752.07 818.51 748.75V720.75" stroke="#EDEDED" stroke-width="2" stroke-linecap="round" stroke-linejoin="round"/>
<path d="M740.55 797.75V795.398H744.318V784.238H740.55V781.91H750.894V784.238H747.102V795.398H750.894V797.75H740.55ZM755.9 797.75V781.91H758.708L762.932 790.886L764.396 794.246H764.468C764.348 792.614 764.084 790.622 764.084 788.87V781.91H766.724V797.75H763.892L759.692 788.75L758.228 785.414H758.156C758.276 787.094 758.54 788.99 758.54 790.742V797.75H755.9ZM775.499 797.75V784.238H770.579V781.91H783.227V784.238H778.283V797.75H775.499ZM787.802 797.75V781.91H797.81V784.238H790.562V788.342H796.706V790.67H790.562V795.398H798.05V797.75H787.802ZM802.912 797.75V781.91H808.144C811.384 781.91 813.904 783.062 813.904 786.59C813.904 788.99 812.656 790.454 810.76 791.102L814.528 797.75H811.408L808 791.534H805.672V797.75H802.912ZM805.672 789.302H807.856C810.016 789.302 811.168 788.39 811.168 786.59C811.168 784.742 810.016 784.118 807.856 784.118H805.672V789.302ZM818.263 797.75V781.91H821.071L825.295 790.886L826.759 794.246H826.831C826.711 792.614 826.447 790.622 826.447 788.87V781.91H829.087V797.75H826.255L822.055 788.75L820.591 785.414H820.519C820.639 787.094 820.903 788.99 820.903 790.742V797.75H818.263ZM832.558 797.75L837.646 781.91H840.886L845.974 797.75H843.046L841.822 793.43H836.614L835.366 797.75H832.558ZM837.214 791.246H841.222L840.67 789.278C840.19 787.598 839.71 785.822 839.254 784.07H839.158C838.726 785.822 838.246 787.598 837.766 789.278L837.214 791.246ZM850.548 797.75V781.91H853.284V795.398H860.676V797.75H850.548ZM740.31 825.75V809.91H744.366C748.998 809.91 751.782 812.526 751.782 817.758C751.782 822.99 748.998 825.75 744.51 825.75H740.31ZM743.094 823.494H744.198C747.222 823.494 748.926 821.646 748.926 817.758C748.926 813.87 747.222 812.142 744.198 812.142H743.094V823.494ZM754.604 825.75L759.692 809.91H762.932L768.02 825.75H765.092L763.868 821.43H758.66L757.412 825.75H754.604ZM759.26 819.246H763.268L762.716 817.278C762.236 815.598 761.756 813.822 761.3 812.07H761.204C760.772 813.822 760.292 815.598 759.812 817.278L759.26 819.246ZM775.499 825.75V812.238H770.579V809.91H783.227V812.238H778.283V825.75H775.499ZM785.786 825.75L790.874 809.91H794.114L799.202 825.75H796.274L795.05 821.43H789.842L788.594 825.75H785.786ZM790.442 819.246H794.45L793.898 817.278C793.418 815.598 792.938 813.822 792.482 812.07H792.386C791.954 813.822 791.474 815.598 790.994 817.278L790.442 819.246ZM803.128 825.75V809.91H807.736C810.952 809.91 813.304 810.894 813.304 813.798C813.304 815.286 812.416 816.75 810.568 817.254V817.35C812.848 817.734 814.096 818.934 814.096 821.094C814.096 824.262 811.576 825.75 808.144 825.75H803.128ZM805.888 816.486H807.472C809.68 816.486 810.592 815.622 810.592 814.134C810.592 812.67 809.584 812.07 807.544 812.07H805.888V816.486ZM805.888 823.59H807.856C810.16 823.59 811.384 822.726 811.384 820.926C811.384 819.222 810.208 818.478 807.856 818.478H805.888V823.59ZM816.967 825.75L822.055 809.91H825.295L830.383 825.75H827.455L826.231 821.43H821.023L819.775 825.75H816.967ZM821.623 819.246H825.631L825.079 817.278C824.599 815.598 824.119 813.822 823.663 812.07H823.567C823.135 813.822 822.655 815.598 822.175 817.278L821.623 819.246ZM839.302 826.038C837.094 826.038 835.006 825.198 833.47 823.71L835.078 821.814C836.254 822.894 837.814 823.638 839.35 823.638C841.294 823.638 842.278 822.822 842.278 821.55C842.278 820.23 841.222 819.822 839.662 819.198L837.526 818.262C835.846 817.614 834.142 816.366 834.142 814.062C834.142 811.542 836.398 809.622 839.59 809.622C841.534 809.622 843.334 810.366 844.63 811.638L843.19 813.39C842.134 812.526 841.054 812.022 839.59 812.022C837.958 812.022 836.95 812.718 836.95 813.918C836.95 815.166 838.222 815.598 839.638 816.174L841.702 817.062C843.694 817.878 845.11 819.03 845.11 821.334C845.11 823.902 842.974 826.038 839.302 826.038ZM850.164 825.75V809.91H860.172V812.238H852.924V816.342H859.068V818.67H852.924V823.398H860.412V825.75H850.164Z" fill="#EDEDED"/>
<rect x="639.51" y="679.25" width="322" height="183" rx="20.5" stroke="#4D4D4D" shape-rendering="crispEdges"/>
</g>
<path d="M346.255 398.293C345.864 397.902 345.231 397.902 344.841 398.293L338.477 404.657C338.086 405.047 338.086 405.681 338.477 406.071C338.867 406.462 339.5 406.462 339.891 406.071L345.548 400.414L351.205 406.071C351.595 406.462 352.228 406.462 352.619 406.071C353.009 405.681 353.009 405.047 352.619 404.657L346.255 398.293ZM346.548 872.835L346.548 399L344.548 399L344.548 872.835L346.548 872.835Z" fill="#EDEDED"/>
<path d="M1252.57 398.293C1252.18 397.902 1251.54 397.902 1251.15 398.293L1244.79 404.657C1244.4 405.047 1244.4 405.681 1244.79 406.071C1245.18 406.462 1245.81 406.462 1246.2 406.071L1251.86 400.414L1257.52 406.071C1257.91 406.462 1258.54 406.462 1258.93 406.071C1259.32 405.681 1259.32 405.047 1258.93 404.657L1252.57 398.293ZM1252.86 872.835L1252.86 399L1250.86 399L1250.86 872.835L1252.86 872.835Z" fill="#EDEDED"/>
<path d="M563.844 547L562.844 547L563.844 547ZM803.707 398.293C803.317 397.902 802.683 397.902 802.293 398.293L795.929 404.657C795.538 405.047 795.538 405.681 795.929 406.071C796.319 406.462 796.953 406.462 797.343 406.071L803 400.414L808.657 406.071C809.047 406.462 809.681 406.462 810.071 406.071C810.462 405.681 810.462 405.047 810.071 404.657L803.707 398.293ZM564.844 872.835L564.844 547L562.844 547L562.844 872.835L564.844 872.835ZM595.844 516L771 516L771 514L595.844 514L595.844 516ZM804 483L804 399L802 399L802 483L804 483ZM771 516C789.225 516 804 501.225 804 483L802 483C802 500.121 788.121 514 771 514L771 516ZM564.844 547C564.844 529.879 578.723 516 595.844 516L595.844 514C577.618 514 562.844 528.775 562.844 547L564.844 547Z" fill="#EDEDED"/>
<path d="M344.841 1328.33C345.231 1328.72 345.864 1328.72 346.255 1328.33L352.619 1321.97C353.009 1321.58 353.009 1320.95 352.619 1320.55C352.228 1320.16 351.595 1320.16 351.205 1320.55L345.548 1326.21L339.891 1320.55C339.5 1320.16 338.867 1320.16 338.477 1320.55C338.086 1320.95 338.086 1321.58 338.477 1321.97L344.841 1328.33ZM346.255 955.293C345.864 954.902 345.231 954.902 344.841 955.293L338.477 961.657C338.086 962.047 338.086 962.681 338.477 963.071C338.867 963.462 339.5 963.462 339.891 963.071L345.548 957.414L351.205 963.071C351.595 963.462 352.228 963.462 352.619 963.071C353.009 962.681 353.009 962.047 352.619 961.657L346.255 955.293ZM346.548 1327.63L346.548 956L344.548 956L344.548 1327.63L346.548 1327.63Z" fill="#EDEDED"/>
<path d="M344.841 1523.71C345.231 1524.1 345.864 1524.1 346.255 1523.71L352.619 1517.34C353.009 1516.95 353.009 1516.32 352.619 1515.93C352.228 1515.54 351.595 1515.54 351.205 1515.93L345.548 1521.59L339.891 1515.93C339.5 1515.54 338.867 1515.54 338.477 1515.93C338.086 1516.32 338.086 1516.95 338.477 1517.34L344.841 1523.71ZM346.255 1461.29C345.864 1460.9 345.231 1460.9 344.841 1461.29L338.477 1467.66C338.086 1468.05 338.086 1468.68 338.477 1469.07C338.867 1469.46 339.5 1469.46 339.891 1469.07L345.548 1463.41L351.205 1469.07C351.595 1469.46 352.228 1469.46 352.619 1469.07C353.009 1468.68 353.009 1468.05 352.619 1467.66L346.255 1461.29ZM346.548 1523L346.548 1462L344.548 1462L344.548 1523L346.548 1523Z" fill="#EDEDED"/>
<path d="M563.137 1523.71C563.527 1524.1 564.16 1524.1 564.551 1523.71L570.915 1517.34C571.305 1516.95 571.305 1516.32 570.915 1515.93C570.524 1515.54 569.891 1515.54 569.501 1515.93L563.844 1521.59L558.187 1515.93C557.796 1515.54 557.163 1515.54 556.773 1515.93C556.382 1516.32 556.382 1516.95 556.773 1517.34L563.137 1523.71ZM564.551 1461.29C564.16 1460.9 563.527 1460.9 563.137 1461.29L556.773 1467.66C556.382 1468.05 556.382 1468.68 556.773 1469.07C557.163 1469.46 557.796 1469.46 558.187 1469.07L563.844 1463.41L569.501 1469.07C569.891 1469.46 570.524 1469.46 570.915 1469.07C571.305 1468.68 571.305 1468.05 570.915 1467.66L564.551 1461.29ZM564.844 1523L564.844 1462L562.844 1462L562.844 1523L564.844 1523Z" fill="#EDEDED"/>
<path d="M1039.65 1523.71C1040.04 1524.1 1040.68 1524.1 1041.07 1523.71L1047.43 1517.34C1047.82 1516.95 1047.82 1516.32 1047.43 1515.93C1047.04 1515.54 1046.41 1515.54 1046.02 1515.93L1040.36 1521.59L1034.7 1515.93C1034.31 1515.54 1033.68 1515.54 1033.29 1515.93C1032.9 1516.32 1032.9 1516.95 1033.29 1517.34L1039.65 1523.71ZM1041.07 1461.29C1040.68 1460.9 1040.04 1460.9 1039.65 1461.29L1033.29 1467.66C1032.9 1468.05 1032.9 1468.68 1033.29 1469.07C1033.68 1469.46 1034.31 1469.46 1034.7 1469.07L1040.36 1463.41L1046.02 1469.07C1046.41 1469.46 1047.04 1469.46 1047.43 1469.07C1047.82 1468.68 1047.82 1468.05 1047.43 1467.66L1041.07 1461.29ZM1041.36 1523L1041.36 1462L1039.36 1462L1039.36 1523L1041.36 1523Z" fill="#EDEDED"/>
<path d="M1039.65 1328.33C1040.04 1328.72 1040.68 1328.72 1041.07 1328.33L1047.43 1321.97C1047.82 1321.58 1047.82 1320.95 1047.43 1320.55C1047.04 1320.16 1046.41 1320.16 1046.02 1320.55L1040.36 1326.21L1034.7 1320.55C1034.31 1320.16 1033.68 1320.16 1033.29 1320.55C1032.9 1320.95 1032.9 1321.58 1033.29 1321.97L1039.65 1328.33ZM1041.36 1327.63L1041.36 1106.5L1039.36 1106.5L1039.36 1327.63L1041.36 1327.63Z" fill="#EDEDED"/>
<path d="M564 994V995C564 1012.67 578.327 1027 596 1027H738.51" stroke="#EDEDED" stroke-width="2"/>
<path d="M908 1027H867" stroke="#EDEDED" stroke-width="2"/>
<path d="M1040.36 1106.5L1040.36 1059C1040.36 1041.33 1026.03 1027 1008.36 1027L909 1027" stroke="#EDEDED" stroke-width="2" stroke-linejoin="round" stroke-dasharray="4 16"/>
<path d="M1251.15 1523.71C1251.54 1524.1 1252.18 1524.1 1252.57 1523.71L1258.93 1517.34C1259.32 1516.95 1259.32 1516.32 1258.93 1515.93C1258.54 1515.54 1257.91 1515.54 1257.52 1515.93L1251.86 1521.59L1246.2 1515.93C1245.81 1515.54 1245.18 1515.54 1244.79 1515.93C1244.4 1516.32 1244.4 1516.95 1244.79 1517.34L1251.15 1523.71ZM1252.57 1461.29C1252.18 1460.9 1251.54 1460.9 1251.15 1461.29L1244.79 1467.66C1244.4 1468.05 1244.4 1468.68 1244.79 1469.07C1245.18 1469.46 1245.81 1469.46 1246.2 1469.07L1251.86 1463.41L1257.52 1469.07C1257.91 1469.46 1258.54 1469.46 1258.93 1469.07C1259.32 1468.68 1259.32 1468.05 1258.93 1467.66L1252.57 1461.29ZM1252.86 1523L1252.86 1462L1250.86 1462L1250.86 1523L1252.86 1523Z" fill="#EDEDED"/>
<path d="M563.137 1328.33C563.527 1328.72 564.16 1328.72 564.551 1328.33L570.915 1321.97C571.305 1321.58 571.305 1320.95 570.915 1320.55C570.524 1320.16 569.891 1320.16 569.501 1320.55L563.844 1326.21L558.187 1320.55C557.796 1320.16 557.163 1320.16 556.773 1320.55C556.382 1320.95 556.382 1321.58 556.773 1321.97L563.137 1328.33ZM564.551 955.293C564.16 954.902 563.527 954.902 563.137 955.293L556.773 961.657C556.382 962.047 556.382 962.681 556.773 963.071C557.163 963.462 557.796 963.462 558.187 963.071L563.844 957.414L569.501 963.071C569.891 963.462 570.524 963.462 570.915 963.071C571.305 962.681 571.305 962.047 570.915 961.657L564.551 955.293ZM564.844 1327.63L564.844 956L562.844 956L562.844 1327.63L564.844 1327.63Z" fill="#EDEDED"/>
<path d="M1251.15 1328.33C1251.54 1328.72 1252.18 1328.72 1252.57 1328.33L1258.93 1321.97C1259.32 1321.58 1259.32 1320.95 1258.93 1320.55C1258.54 1320.16 1257.91 1320.16 1257.52 1320.55L1251.86 1326.21L1246.2 1320.55C1245.81 1320.16 1245.18 1320.16 1244.79 1320.55C1244.4 1320.95 1244.4 1321.58 1244.79 1321.97L1251.15 1328.33ZM1252.57 955.293C1252.18 954.902 1251.54 954.902 1251.15 955.293L1244.79 961.657C1244.4 962.047 1244.4 962.681 1244.79 963.071C1245.18 963.462 1245.81 963.462 1246.2 963.071L1251.86 957.414L1257.52 963.071C1257.91 963.462 1258.54 963.462 1258.93 963.071C1259.32 962.681 1259.32 962.047 1258.93 961.657L1252.57 955.293ZM1252.86 1327.63L1252.86 956L1250.86 956L1250.86 1327.63L1252.86 1327.63Z" fill="#EDEDED"/>
<defs>
<filter id="filter0_d_560_17950" x="941.861" y="1530.17" width="197" height="164" filterUnits="userSpaceOnUse" color-interpolation-filters="sRGB">
<feFlood flood-opacity="0" result="BackgroundImageFix"/>
<feColorMatrix in="SourceAlpha" type="matrix" values="0 0 0 0 0 0 0 0 0 0 0 0 0 0 0 0 0 0 127 0" result="hardAlpha"/>
<feOffset dy="4"/>
<feGaussianBlur stdDeviation="2"/>
<feComposite in2="hardAlpha" operator="out"/>
<feColorMatrix type="matrix" values="0 0 0 0 0 0 0 0 0 0 0 0 0 0 0 0 0 0 0.03 0"/>
<feBlend mode="normal" in2="BackgroundImageFix" result="effect1_dropShadow_560_17950"/>
<feBlend mode="normal" in="SourceGraphic" in2="effect1_dropShadow_560_17950" result="shape"/>
</filter>
<filter id="filter1_d_560_17950" x="249.048" y="1530.17" width="197" height="164" filterUnits="userSpaceOnUse" color-interpolation-filters="sRGB">
<feFlood flood-opacity="0" result="BackgroundImageFix"/>
<feColorMatrix in="SourceAlpha" type="matrix" values="0 0 0 0 0 0 0 0 0 0 0 0 0 0 0 0 0 0 127 0" result="hardAlpha"/>
<feOffset dy="4"/>
<feGaussianBlur stdDeviation="2"/>
<feComposite in2="hardAlpha" operator="out"/>
<feColorMatrix type="matrix" values="0 0 0 0 0 0 0 0 0 0 0 0 0 0 0 0 0 0 0.03 0"/>
<feBlend mode="normal" in2="BackgroundImageFix" result="effect1_dropShadow_560_17950"/>
<feBlend mode="normal" in="SourceGraphic" in2="effect1_dropShadow_560_17950" result="shape"/>
</filter>
<filter id="filter2_d_560_17950" x="1154.97" y="1530.17" width="197" height="164" filterUnits="userSpaceOnUse" color-interpolation-filters="sRGB">
<feFlood flood-opacity="0" result="BackgroundImageFix"/>
<feColorMatrix in="SourceAlpha" type="matrix" values="0 0 0 0 0 0 0 0 0 0 0 0 0 0 0 0 0 0 127 0" result="hardAlpha"/>
<feOffset dy="4"/>
<feGaussianBlur stdDeviation="2"/>
<feComposite in2="hardAlpha" operator="out"/>
<feColorMatrix type="matrix" values="0 0 0 0 0 0 0 0 0 0 0 0 0 0 0 0 0 0 0.03 0"/>
<feBlend mode="normal" in2="BackgroundImageFix" result="effect1_dropShadow_560_17950"/>
<feBlend mode="normal" in="SourceGraphic" in2="effect1_dropShadow_560_17950" result="shape"/>
</filter>
<filter id="filter3_d_560_17950" x="467.344" y="1530.17" width="197" height="164" filterUnits="userSpaceOnUse" color-interpolation-filters="sRGB">
<feFlood flood-opacity="0" result="BackgroundImageFix"/>
<feColorMatrix in="SourceAlpha" type="matrix" values="0 0 0 0 0 0 0 0 0 0 0 0 0 0 0 0 0 0 127 0" result="hardAlpha"/>
<feOffset dy="4"/>
<feGaussianBlur stdDeviation="2"/>
<feComposite in2="hardAlpha" operator="out"/>
<feColorMatrix type="matrix" values="0 0 0 0 0 0 0 0 0 0 0 0 0 0 0 0 0 0 0.03 0"/>
<feBlend mode="normal" in2="BackgroundImageFix" result="effect1_dropShadow_560_17950"/>
<feBlend mode="normal" in="SourceGraphic" in2="effect1_dropShadow_560_17950" result="shape"/>
</filter>
<filter id="filter4_d_560_17950" x="231.861" y="227.753" width="227" height="167.238" filterUnits="userSpaceOnUse" color-interpolation-filters="sRGB">
<feFlood flood-opacity="0" result="BackgroundImageFix"/>
<feColorMatrix in="SourceAlpha" type="matrix" values="0 0 0 0 0 0 0 0 0 0 0 0 0 0 0 0 0 0 127 0" result="hardAlpha"/>
<feOffset dy="4"/>
<feGaussianBlur stdDeviation="2"/>
<feComposite in2="hardAlpha" operator="out"/>
<feColorMatrix type="matrix" values="0 0 0 0 0 0 0 0 0 0 0 0 0 0 0 0 0 0 0.03 0"/>
<feBlend mode="normal" in2="BackgroundImageFix" result="effect1_dropShadow_560_17950"/>
<feBlend mode="normal" in="SourceGraphic" in2="effect1_dropShadow_560_17950" result="shape"/>
</filter>
<filter id="filter5_d_560_17950" x="687.01" y="229.258" width="227" height="167.238" filterUnits="userSpaceOnUse" color-interpolation-filters="sRGB">
<feFlood flood-opacity="0" result="BackgroundImageFix"/>
<feColorMatrix in="SourceAlpha" type="matrix" values="0 0 0 0 0 0 0 0 0 0 0 0 0 0 0 0 0 0 127 0" result="hardAlpha"/>
<feOffset dy="4"/>
<feGaussianBlur stdDeviation="2"/>
<feComposite in2="hardAlpha" operator="out"/>
<feColorMatrix type="matrix" values="0 0 0 0 0 0 0 0 0 0 0 0 0 0 0 0 0 0 0.03 0"/>
<feBlend mode="normal" in2="BackgroundImageFix" result="effect1_dropShadow_560_17950"/>
<feBlend mode="normal" in="SourceGraphic" in2="effect1_dropShadow_560_17950" result="shape"/>
</filter>
<filter id="filter6_d_560_17950" x="1138.36" y="227.753" width="227" height="167.238" filterUnits="userSpaceOnUse" color-interpolation-filters="sRGB">
<feFlood flood-opacity="0" result="BackgroundImageFix"/>
<feColorMatrix in="SourceAlpha" type="matrix" values="0 0 0 0 0 0 0 0 0 0 0 0 0 0 0 0 0 0 127 0" result="hardAlpha"/>
<feOffset dy="4"/>
<feGaussianBlur stdDeviation="2"/>
<feComposite in2="hardAlpha" operator="out"/>
<feColorMatrix type="matrix" values="0 0 0 0 0 0 0 0 0 0 0 0 0 0 0 0 0 0 0.03 0"/>
<feBlend mode="normal" in2="BackgroundImageFix" result="effect1_dropShadow_560_17950"/>
<feBlend mode="normal" in="SourceGraphic" in2="effect1_dropShadow_560_17950" result="shape"/>
</filter>
<filter id="filter7_d_560_17950" x="635.01" y="678.75" width="331" height="192" filterUnits="userSpaceOnUse" color-interpolation-filters="sRGB">
<feFlood flood-opacity="0" result="BackgroundImageFix"/>
<feColorMatrix in="SourceAlpha" type="matrix" values="0 0 0 0 0 0 0 0 0 0 0 0 0 0 0 0 0 0 127 0" result="hardAlpha"/>
<feOffset dy="4"/>
<feGaussianBlur stdDeviation="2"/>
<feComposite in2="hardAlpha" operator="out"/>
<feColorMatrix type="matrix" values="0 0 0 0 0 0 0 0 0 0 0 0 0 0 0 0 0 0 0.03 0"/>
<feBlend mode="normal" in2="BackgroundImageFix" result="effect1_dropShadow_560_17950"/>
<feBlend mode="normal" in="SourceGraphic" in2="effect1_dropShadow_560_17950" result="shape"/>
</filter>
</defs>
</svg>
