<svg xmlns="http://www.w3.org/2000/svg" width="541" height="285" fill="none" viewBox="0 0 541 285"><g stroke="#eceef0" stroke-width="1.49" clip-path="url(#a)"><path d="M576 221 271 47-11 209"/><path d="m146.063 118.534-41.747 23.856 41.747 23.855m0-47.711 41.748 23.856-41.748 23.855m0-47.711v47.711M146.063 214l-41.747 23.855 41.747 23.856m0-47.711 41.748 23.855-41.748 23.856m0-47.711v47.711M146.063 166.245l-41.747 23.856 41.747 23.855m0-47.711 41.748 23.856-41.748 23.855m0-47.711v47.711M146.063 261.711l-41.747 23.855 41.747 23.856m0-47.711 41.748 23.855-41.748 23.856m0-47.711v47.711M229.558 70.823 187.811 94.68l41.747 23.855m0-47.71 41.747 23.855-41.747 23.855m0-47.71v47.71"/><path d="m229.558 118.534-41.747 23.856 41.747 23.855m0-47.711 41.747 23.856-41.747 23.855m0-47.711v47.711M229.558 166.245l-41.747 23.856 41.747 23.855m0-47.711 41.747 23.856-41.747 23.855m0-47.711v47.711"/><path d="m229.558 213.956-41.747 23.856 41.747 23.855m0-47.711 41.747 23.856-41.747 23.855m0-47.711v47.711"/><path d="m229.558 261-41.747 23.855 41.747 23.856m0-47.711 41.747 23.855-41.747 23.856m0-47.711v47.711M313.052 70.823 271.305 94.68l41.747 23.855m0-47.71 41.747 23.855-41.747 23.855m0-47.71v47.71"/><path d="m313.052 118.534-41.747 23.856 41.747 23.855m0-47.711 41.747 23.856-41.747 23.855m0-47.711v47.711"/><path d="m271.477 142.385-41.959 23.932-42.27-23.932M313.052 166.245l-41.747 23.856 41.747 23.855m0-47.711 41.747 23.856-41.747 23.855m0-47.711v47.711M313.052 213.957l-41.747 23.855 41.747 23.855m0-47.71 41.747 23.855-41.747 23.855m0-47.71v47.71M313.052 261.757l-41.747 23.855 41.747 23.856m0-47.711 41.747 23.855-41.747 23.856m0-47.711v47.711M480.04 166.245 438.293 190.1l41.747 23.856m0-47.711 41.747 23.855-41.747 23.856m0-47.711v47.711M63.24 166.245 21.491 190.1l41.747 23.856m0-47.711 41.747 23.855-41.747 23.856m0-47.711v47.711M396.548 118.534l-41.747 23.856 41.747 23.855m0-47.711 41.747 23.856-41.747 23.855m0-47.711v47.711M396.548 213.956l-41.747 23.855 41.747 23.855m0-47.71 41.747 23.855-41.747 23.855m0-47.71v47.71M-20.253 213.956-62 237.811l41.747 23.855m0-47.71 41.747 23.855-41.747 23.855m0-47.71v47.71"/><path d="m480.04 213.956-41.747 23.855 41.747 23.855m0-47.71 41.747 23.855-41.747 23.855m0-47.71v47.71M563.747 213.956 522 237.811l41.747 23.855m0-47.71 41.747 23.855-41.747 23.855m0-47.71v47.71M63.24 213.956l-41.748 23.855 41.747 23.855m0-47.71 41.747 23.855-41.747 23.855m0-47.71v47.71M480.04 261.757l-41.747 23.855 41.747 23.856m0-47.711 41.747 23.855-41.747 23.856m0-47.711v47.711M563.747 261.757 522 285.612l41.747 23.856m0-47.711 41.747 23.855-41.747 23.856m0-47.711v47.711M63.24 261.757l-41.748 23.855 41.747 23.856m0-47.711 41.747 23.855-41.747 23.856m0-47.711v47.711M396.548 166.245l-41.747 23.856 41.747 23.855m0-47.711 41.747 23.856-41.747 23.855m0-47.711v47.711M396.548 261.667l-41.747 23.855 41.747 23.855m0-47.71 41.747 23.855-41.747 23.855m0-47.71v47.71M-20.253 261.667-62 285.522l41.747 23.855m0-47.71 41.747 23.855-41.747 23.855m0-47.71v47.71"/></g><defs><clipPath id="a"><path fill="#fff" d="M0 0h541v285H0z"/></clipPath></defs></svg>