<svg width="541" height="285" viewBox="0 0 541 285" fill="none" xmlns="http://www.w3.org/2000/svg">
<g clip-path="url(#clip0_230_15670)">
<path d="M146.063 70.8232L104.316 94.6787L146.063 118.534M146.063 70.8232L187.811 94.6787L146.063 118.534M146.063 70.8232V118.534" stroke="#ECEEF0" stroke-width="1.49023"/>
<path d="M313.308 -25L21 142.033L313.308 309.067" stroke="#ECEEF0" stroke-width="1.49023"/>
<path d="M62.5693 118.534L20.8223 142.39L62.5693 166.245M62.5693 118.534L104.316 142.39L62.5693 166.245M62.5693 118.534V166.245" stroke="#ECEEF0" stroke-width="1.49023"/>
<path d="M146.063 118.534L104.316 142.39L146.063 166.245M146.063 118.534L187.811 142.39L146.063 166.245M146.063 118.534V166.245" stroke="#ECEEF0" stroke-width="1.49023"/>
<path d="M146.063 166.245L104.316 190.101L146.063 213.956M146.063 166.245L187.811 190.101L146.063 213.956M146.063 166.245V213.956" stroke="#ECEEF0" stroke-width="1.49023"/>
<path d="M229.558 70.8232L187.811 94.6787L229.558 118.534M229.558 70.8232L271.305 94.6787L229.558 118.534M229.558 70.8232V118.534" stroke="#ECEEF0" stroke-width="1.49023"/>
<path d="M229.558 23.1123L187.811 46.9678L229.558 70.8232M229.558 23.1123L271.305 46.9678L229.558 70.8232M229.558 23.1123V70.8232" stroke="#ECEEF0" stroke-width="1.49023"/>
<path d="M229.558 118.534L187.811 142.39L229.558 166.245M229.558 118.534L271.305 142.39L229.558 166.245M229.558 118.534V166.245" stroke="#ECEEF0" stroke-width="1.49023"/>
<path d="M229.558 166.245L187.811 190.101L229.558 213.956M229.558 166.245L271.305 190.101L229.558 213.956M229.558 166.245V213.956" stroke="#ECEEF0" stroke-width="1.49023"/>
<path d="M229.558 213.956L187.811 237.812L229.558 261.667M229.558 213.956L271.305 237.812L229.558 261.667M229.558 213.956V261.667" stroke="#ECEEF0" stroke-width="1.49023"/>
<path d="M313.052 70.8232L271.305 94.6787L313.052 118.534M313.052 70.8232L354.799 94.6787L313.052 118.534M313.052 70.8232V118.534" stroke="#ECEEF0" stroke-width="1.49023"/>
<path d="M313.052 23.1123L271.305 46.9678L313.052 70.8232M313.052 23.1123L354.799 46.9678L313.052 70.8232M313.052 23.1123V70.8232" stroke="#ECEEF0" stroke-width="1.49023"/>
<path d="M313.052 -24.5991L271.305 -0.743664L313.052 23.1118M313.052 -24.5991L354.799 -0.743664L313.052 23.1118M313.052 -24.5991V23.1118" stroke="#ECEEF0" stroke-width="1.49023"/>
<path d="M313.052 118.534L271.305 142.39L313.052 166.245M313.052 118.534L354.799 142.39L313.052 166.245M313.052 118.534V166.245" stroke="#ECEEF0" stroke-width="1.49023"/>
<path d="M271.477 142.385L229.518 166.317L187.248 142.385" stroke="#ECEEF0" stroke-width="1.49023"/>
<path d="M313.052 166.245L271.305 190.101L313.052 213.956M313.052 166.245L354.799 190.101L313.052 213.956M313.052 166.245V213.956" stroke="#ECEEF0" stroke-width="1.49023"/>
<path d="M313.052 213.957L271.305 237.812L313.052 261.667M313.052 213.957L354.799 237.812L313.052 261.667M313.052 213.957V261.667" stroke="#ECEEF0" stroke-width="1.49023"/>
<path d="M313.052 261.757L271.305 285.612L313.052 309.468M313.052 261.757L354.799 285.612L313.052 309.468M313.052 261.757V309.468" stroke="#ECEEF0" stroke-width="1.49023"/>
<path d="M396.548 70.8232L354.801 94.6787L396.548 118.534M396.548 70.8232L438.295 94.6787L396.548 118.534M396.548 70.8232V118.534" stroke="#ECEEF0" stroke-width="1.49023"/>
<path d="M480.04 70.8232L438.293 94.6787L480.04 118.534M480.04 70.8232L521.787 94.6787L480.04 118.534M480.04 70.8232V118.534" stroke="#ECEEF0" stroke-width="1.49023"/>
<path d="M563.747 70.8232L522 94.6787L563.747 118.534M563.747 70.8232L605.494 94.6787L563.747 118.534M563.747 70.8232V118.534" stroke="#ECEEF0" stroke-width="1.49023"/>
<path d="M480.04 23.1123L438.293 46.9678L480.04 70.8232M480.04 23.1123L521.787 46.9678L480.04 70.8232M480.04 23.1123V70.8232" stroke="#ECEEF0" stroke-width="1.49023"/>
<path d="M563.747 23.1123L522 46.9678L563.747 70.8232M563.747 23.1123L605.494 46.9678L563.747 70.8232M563.747 23.1123V70.8232" stroke="#ECEEF0" stroke-width="1.49023"/>
<path d="M480.04 -24.5991L438.293 -0.743664L480.04 23.1118M480.04 -24.5991L521.787 -0.743664L480.04 23.1118M480.04 -24.5991V23.1118" stroke="#ECEEF0" stroke-width="1.49023"/>
<path d="M563.747 -24.5991L522 -0.743664L563.747 23.1118M563.747 -24.5991L605.494 -0.743664L563.747 23.1118M563.747 -24.5991V23.1118" stroke="#ECEEF0" stroke-width="1.49023"/>
<path d="M480.04 166.245L438.293 190.1L480.04 213.956M480.04 166.245L521.787 190.1L480.04 213.956M480.04 166.245V213.956" stroke="#ECEEF0" stroke-width="1.49023"/>
<path d="M563.747 166.245L522 190.1L563.747 213.956M563.747 166.245L605.494 190.1L563.747 213.956M563.747 166.245V213.956" stroke="#ECEEF0" stroke-width="1.49023"/>
<path d="M396.548 23.1123L354.801 46.9678L396.548 70.8232M396.548 23.1123L438.295 46.9678L396.548 70.8232M396.548 23.1123V70.8232" stroke="#ECEEF0" stroke-width="1.49023"/>
<path d="M396.548 -24.5991L354.801 -0.743664L396.548 23.1118M396.548 -24.5991L438.295 -0.743664L396.548 23.1118M396.548 -24.5991V23.1118" stroke="#ECEEF0" stroke-width="1.49023"/>
<path d="M396.548 118.534L354.801 142.39L396.548 166.245M396.548 118.534L438.295 142.39L396.548 166.245M396.548 118.534V166.245" stroke="#ECEEF0" stroke-width="1.49023"/>
<path d="M396.548 213.956L354.801 237.811L396.548 261.666M396.548 213.956L438.295 237.811L396.548 261.666M396.548 213.956V261.666" stroke="#ECEEF0" stroke-width="1.49023"/>
<path d="M480.04 118.534L438.293 142.39L480.04 166.245M480.04 118.534L521.787 142.39L480.04 166.245M480.04 118.534V166.245" stroke="#ECEEF0" stroke-width="1.49023"/>
<path d="M563.747 118.534L522 142.39L563.747 166.245M563.747 118.534L605.494 142.39L563.747 166.245M563.747 118.534V166.245" stroke="#ECEEF0" stroke-width="1.49023"/>
<path d="M480.04 213.956L438.293 237.811L480.04 261.666M480.04 213.956L521.787 237.811L480.04 261.666M480.04 213.956V261.666" stroke="#ECEEF0" stroke-width="1.49023"/>
<path d="M563.747 213.956L522 237.811L563.747 261.666M563.747 213.956L605.494 237.811L563.747 261.666M563.747 213.956V261.666" stroke="#ECEEF0" stroke-width="1.49023"/>
<path d="M480.04 261.757L438.293 285.612L480.04 309.468M480.04 261.757L521.787 285.612L480.04 309.468M480.04 261.757V309.468" stroke="#ECEEF0" stroke-width="1.49023"/>
<path d="M563.747 261.757L522 285.612L563.747 309.468M563.747 261.757L605.494 285.612L563.747 309.468M563.747 261.757V309.468" stroke="#ECEEF0" stroke-width="1.49023"/>
<path d="M396.548 166.245L354.801 190.101L396.548 213.956M396.548 166.245L438.295 190.101L396.548 213.956M396.548 166.245V213.956" stroke="#ECEEF0" stroke-width="1.49023"/>
<path d="M396.548 261.667L354.801 285.522L396.548 309.377M396.548 261.667L438.295 285.522L396.548 309.377M396.548 261.667V309.377" stroke="#ECEEF0" stroke-width="1.49023"/>
</g>
<defs>
<clipPath id="clip0_230_15670">
<rect width="541" height="285" fill="white"/>
</clipPath>
</defs>
</svg>
