<svg width="541" height="285" viewBox="0 0 541 285" fill="none" xmlns="http://www.w3.org/2000/svg">
<g clip-path="url(#clip0_233_15725)">
<path d="M576 221L271 47L-11 209" stroke="#282828" stroke-width="1.49023"/>
<path d="M146.063 118.534L104.316 142.39L146.063 166.245M146.063 118.534L187.811 142.39L146.063 166.245M146.063 118.534V166.245" stroke="#282828" stroke-width="1.49023"/>
<path d="M146.063 214L104.316 237.855L146.063 261.711M146.063 214L187.811 237.855L146.063 261.711M146.063 214V261.711" stroke="#282828" stroke-width="1.49023"/>
<path d="M146.063 166.245L104.316 190.101L146.063 213.956M146.063 166.245L187.811 190.101L146.063 213.956M146.063 166.245V213.956" stroke="#282828" stroke-width="1.49023"/>
<path d="M146.063 261.711L104.316 285.566L146.063 309.422M146.063 261.711L187.811 285.566L146.063 309.422M146.063 261.711V309.422" stroke="#282828" stroke-width="1.49023"/>
<path d="M229.558 70.8232L187.811 94.6787L229.558 118.534M229.558 70.8232L271.305 94.6787L229.558 118.534M229.558 70.8232V118.534" stroke="#282828" stroke-width="1.49023"/>
<path d="M229.558 118.534L187.811 142.39L229.558 166.245M229.558 118.534L271.305 142.39L229.558 166.245M229.558 118.534V166.245" stroke="#282828" stroke-width="1.49023"/>
<path d="M229.558 166.245L187.811 190.101L229.558 213.956M229.558 166.245L271.305 190.101L229.558 213.956M229.558 166.245V213.956" stroke="#282828" stroke-width="1.49023"/>
<path d="M229.558 213.956L187.811 237.812L229.558 261.667M229.558 213.956L271.305 237.812L229.558 261.667M229.558 213.956V261.667" stroke="#282828" stroke-width="1.49023"/>
<path d="M229.558 261L187.811 284.855L229.558 308.711M229.558 261L271.305 284.855L229.558 308.711M229.558 261V308.711" stroke="#282828" stroke-width="1.49023"/>
<path d="M313.052 70.8232L271.305 94.6787L313.052 118.534M313.052 70.8232L354.799 94.6787L313.052 118.534M313.052 70.8232V118.534" stroke="#282828" stroke-width="1.49023"/>
<path d="M313.052 118.534L271.305 142.39L313.052 166.245M313.052 118.534L354.799 142.39L313.052 166.245M313.052 118.534V166.245" stroke="#282828" stroke-width="1.49023"/>
<path d="M271.477 142.385L229.518 166.317L187.248 142.385" stroke="#282828" stroke-width="1.49023"/>
<path d="M313.052 166.245L271.305 190.101L313.052 213.956M313.052 166.245L354.799 190.101L313.052 213.956M313.052 166.245V213.956" stroke="#282828" stroke-width="1.49023"/>
<path d="M313.052 213.957L271.305 237.812L313.052 261.667M313.052 213.957L354.799 237.812L313.052 261.667M313.052 213.957V261.667" stroke="#282828" stroke-width="1.49023"/>
<path d="M313.052 261.757L271.305 285.612L313.052 309.468M313.052 261.757L354.799 285.612L313.052 309.468M313.052 261.757V309.468" stroke="#282828" stroke-width="1.49023"/>
<path d="M480.04 166.245L438.293 190.1L480.04 213.956M480.04 166.245L521.787 190.1L480.04 213.956M480.04 166.245V213.956" stroke="#282828" stroke-width="1.49023"/>
<path d="M63.2392 166.245L21.4922 190.1L63.2392 213.956M63.2392 166.245L104.986 190.1L63.2392 213.956M63.2392 166.245V213.956" stroke="#282828" stroke-width="1.49023"/>
<path d="M396.548 118.534L354.801 142.39L396.548 166.245M396.548 118.534L438.295 142.39L396.548 166.245M396.548 118.534V166.245" stroke="#282828" stroke-width="1.49023"/>
<path d="M396.548 213.956L354.801 237.811L396.548 261.666M396.548 213.956L438.295 237.811L396.548 261.666M396.548 213.956V261.666" stroke="#282828" stroke-width="1.49023"/>
<path d="M-20.2529 213.956L-62 237.811L-20.2529 261.666M-20.2529 213.956L21.4941 237.811L-20.2529 261.666M-20.2529 213.956V261.666" stroke="#282828" stroke-width="1.49023"/>
<path d="M480.04 213.956L438.293 237.811L480.04 261.666M480.04 213.956L521.787 237.811L480.04 261.666M480.04 213.956V261.666" stroke="#282828" stroke-width="1.49023"/>
<path d="M563.747 213.956L522 237.811L563.747 261.666M563.747 213.956L605.494 237.811L563.747 261.666M563.747 213.956V261.666" stroke="#282828" stroke-width="1.49023"/>
<path d="M63.2392 213.956L21.4922 237.811L63.2392 261.666M63.2392 213.956L104.986 237.811L63.2392 261.666M63.2392 213.956V261.666" stroke="#282828" stroke-width="1.49023"/>
<path d="M480.04 261.757L438.293 285.612L480.04 309.468M480.04 261.757L521.787 285.612L480.04 309.468M480.04 261.757V309.468" stroke="#282828" stroke-width="1.49023"/>
<path d="M563.747 261.757L522 285.612L563.747 309.468M563.747 261.757L605.494 285.612L563.747 309.468M563.747 261.757V309.468" stroke="#282828" stroke-width="1.49023"/>
<path d="M63.2392 261.757L21.4922 285.612L63.2392 309.468M63.2392 261.757L104.986 285.612L63.2392 309.468M63.2392 261.757V309.468" stroke="#282828" stroke-width="1.49023"/>
<path d="M396.548 166.245L354.801 190.101L396.548 213.956M396.548 166.245L438.295 190.101L396.548 213.956M396.548 166.245V213.956" stroke="#282828" stroke-width="1.49023"/>
<path d="M396.548 261.667L354.801 285.522L396.548 309.377M396.548 261.667L438.295 285.522L396.548 309.377M396.548 261.667V309.377" stroke="#282828" stroke-width="1.49023"/>
<path d="M-20.2529 261.667L-62 285.522L-20.2529 309.377M-20.2529 261.667L21.4941 285.522L-20.2529 309.377M-20.2529 261.667V309.377" stroke="#282828" stroke-width="1.49023"/>
</g>
<defs>
<clipPath id="clip0_233_15725">
<rect width="541" height="285" fill="white"/>
</clipPath>
</defs>
</svg>
