<svg xmlns="http://www.w3.org/2000/svg" width="765" height="208" fill="none" viewBox="0 0 765 208"><g clip-path="url(#a)"><path fill="#121516" d="M.518 0h764v208h-764z"/><g stroke-width=".5" style="mix-blend-mode:lighten"><path stroke="#575e61" d="M517.785 389.109c-1.717-1.047 1.41-9.939 9.04-25.8 7.631-15.861 19.509-38.124 34.432-64.561s32.369-56.105 50.586-86.018c18.225-29.926 36.576-59.037 53.201-84.435 16.64-25.39 30.974-46.158 41.56-60.21 10.594-14.066 17.068-20.913 18.784-19.866" opacity=".6"/><path stroke="#575e61" d="M492.72 371.063c-7.129-6.033-8.183-19.002-3.065-37.603 5.132-18.593 16.27-42.182 32.286-68.367s36.367-54.054 58.986-80.793c22.627-26.754 46.722-51.442 69.867-71.595 23.16-20.144 44.55-35.052 62.037-43.198s30.451-9.259 37.589-3.241" opacity=".6"/><path stroke="#575e61" d="M468.268 346.431c-10.277-12.338-13.276-30.347-8.725-52.233s16.524-46.879 34.693-72.466c18.169-25.588 41.902-50.868 68.815-73.299s56.059-41.213 84.491-54.47c28.446-13.25 55.178-20.521 77.54-21.066 22.355-.531 39.535 5.666 49.798 17.996" opacity=".6"/><path stroke="#575e61" d="M444.62 310.944c-10.017-19.198-11.683-42.332-4.823-67.064s22.004-50.187 43.889-73.823c21.899-23.627 49.773-44.591 80.832-60.798 31.059-16.206 64.218-27.044 96.12-31.482 31.916-4.43 61.456-2.259 85.655 6.266s42.214 23.143 52.231 42.341" opacity=".6"/><path stroke="#575e61" d="M425.898 257.874c-5.068-25.284-1.005-51.943 11.781-77.288 12.785-25.345 33.838-48.49 61.053-67.093 27.216-18.602 59.624-32.023 93.971-38.913s69.424-6.988 101.707-.305c32.284 6.682 60.628 19.919 82.19 38.374s35.586 41.503 40.653 66.788" opacity=".6"/><path stroke="#575e61" d="M425.236 182.91c5.044-27.72 19.075-53.289 40.686-74.144 21.597-20.863 50.013-36.278 82.395-44.708 32.373-8.415 67.561-9.553 102.025-3.266 34.472 6.273 67.002 19.742 94.317 39.038s48.486 43.736 61.339 70.878c12.852 27.142 16.975 56.011 11.931 83.731" opacity=".6"/><path stroke="#575e61" d="M460.117 101.369c25.425-34.988 66.81-56.2 115.072-58.95s99.427 13.185 142.247 44.285c42.819 31.1 73.798 74.845 86.102 121.576 12.297 46.745 4.937 92.661-20.474 127.656" opacity=".6"/><path stroke="#575e61" d="M521.846 45.79c35.506-20.481 80.07-21.922 123.883-3.98 43.813 17.941 83.286 53.757 109.728 99.616 26.451 45.845 37.711 97.954 31.295 144.861s-29.963 84.768-65.468 105.249" opacity=".6"/><path stroke="#575e61" d="M582.355 22.98c35.246-7.063 73.178 6.772 105.459 38.483s56.251 78.661 66.657 130.558c10.407 51.897 6.37 104.477-11.195 146.165-17.564 41.688-47.237 69.087-82.483 76.15" opacity=".6"/><path stroke="#575e61" d="M630.434 19.29c28.417 1.267 54.742 23.488 73.18 61.763 18.438 38.276 27.463 89.499 25.131 142.372-2.355 52.879-15.888 103.082-37.65 139.581s-49.944 56.302-78.36 55.035" opacity=".6"/><path stroke="#575e61" d="M667.873 24.543c18.493 4.404 31.342 29.098 35.735 68.614s-.035 90.648-12.322 142.14c-12.279 51.478-31.41 99.113-53.165 132.404s-44.364 49.518-62.85 45.1" opacity=".6"/><path stroke="#575e61" d="M698.537 34.523c7.639 3.196 6.843 25.654-2.191 62.44s-25.568 84.894-45.978 133.724c-20.41 48.831-43.011 94.409-62.858 126.685-19.825 32.27-35.255 48.619-42.894 45.423" opacity=".6"/><path stroke="#575e61" d="M553.243 406.187c-19.48-7.1-38.397-17.605-54.722-30.387m127.498 42.389c-30.739.695-66.731-9.299-99.866-27.699s-60.623-43.676-76.305-70.129m223.732 90.991c-39.089 10.552-93.683.016-143.608-27.707s-87.728-68.496-99.434-107.255m282.573 119.612c-20.606 10.636-48.57 14.104-80.181 9.943s-65.413-15.741-96.893-33.221c-31.48-17.481-59.187-40.04-79.421-64.687-20.241-24.633-32.08-50.204-33.945-73.318m323.94 139.503c-20.137 16.182-51.091 23.387-87.842 20.444s-77.134-15.861-114.581-36.655c-37.447-20.795-69.759-48.246-91.685-77.886s-32.173-59.724-29.082-85.372m350.921 152.336c-18.118 21.562-50.59 32.744-91.182 31.404-40.6-1.327-86.494-15.082-128.881-38.62s-78.325-55.224-100.912-88.986-30.262-67.237-21.545-94.001m364.236 158.666c-9.759 17.574-27.402 30.341-51.157 37.061-23.77 6.712-52.8 7.122-84.202 1.172-31.401-5.949-64.05-18.028-94.687-35.041s-58.149-38.342-79.799-61.852-36.663-48.377-43.516-72.094c-6.868-23.725-5.335-45.457 4.416-63.017m348.945 193.771a199.6 199.6 0 0 1-119.622 94.995 199.55 199.55 0 0 1-151.75-17.416 199.65 199.65 0 0 1-95.004-119.607 199.55 199.55 0 0 1 17.417-151.751A199.65 199.65 0 0 1 566.706 26.77a199.55 199.55 0 0 1 151.751 17.416 199.65 199.65 0 0 1 95.003 119.607 199.6 199.6 0 0 1-17.402 151.759Zm15.291-35.105c-6.661 20.471-22.606 36.067-46.004 45.003-23.39 8.922-53.267 10.823-86.207 5.457-32.947-5.351-67.622-17.751-100.029-35.747-32.422-18.004-61.264-40.875-83.223-66.014-21.96-25.139-36.162-51.498-40.939-76.062-4.792-24.571.032-46.342 13.882-62.84m350.884 152.335c-2.768 22.913-16.041 41.132-38.073 52.283-22.04 11.166-51.828 14.723-85.442 10.234-33.613-4.488-69.497-16.831-102.946-35.406-33.45-18.574-62.896-42.509-84.475-68.67-21.579-26.16-34.306-53.326-36.479-77.937s6.275-45.51 24.254-59.957M820.5 202.614c1.999 24.757-7.557 45.395-27.215 58.798-19.659 13.404-48.352 18.857-81.767 15.525s-69.719-15.255-103.44-33.98-63.046-43.247-83.525-69.842c-20.492-26.603-31.031-53.843-30.046-77.615.985-23.773 13.468-42.786 35.525-54.185m282.601 119.628c7.812 25.894 3.307 48.739-12.733 64.506-16.041 15.768-42.578 23.427-74.919 21.625-32.327-1.794-68.363-12.951-101.713-31.471-33.35-18.519-61.857-43.203-80.483-69.703-18.611-26.492-26.138-53.068-21.233-75.018 4.905-21.952 21.924-37.867 48.025-44.91m223.718 90.985c15.401 26.017 18.112 51.038 7.52 69.607s-33.616 29.188-64.039 29.516c-30.431.342-65.803-9.625-98.382-27.716s-59.738-42.848-75.534-68.861c-15.796-26.012-18.962-51.156-8.799-69.962s32.837-29.733 63.063-30.413M744.628 61.54c21.804 17.076 37.694 37.2 44.761 56.666 7.052 19.456 4.797 36.939-6.376 49.189s-30.483 18.432-54.372 17.419-50.72-9.169-75.519-22.939c-24.812-13.779-45.906-32.235-59.393-51.978s-18.448-39.402-13.956-55.362 18.126-27.124 38.384-31.415c20.244-4.3 45.741-1.441 71.763 8.04m81.587 104.144c-6.691 12.049-21.464 18.975-41.045 19.254-19.594.27-42.394-6.134-63.395-17.795-21.015-11.67-38.503-27.639-48.617-44.407-10.129-16.776-12.053-32.955-5.354-45.019 6.691-12.049 21.464-18.975 41.044-19.253 19.595-.27 42.395 6.133 63.396 17.795s38.503 27.638 48.617 44.406c10.115 16.768 12.045 32.97 5.354 45.019Zm-20.533-22.628c-4.559 8.209-14.609 12.92-27.935 13.103-13.327.184-28.862-4.166-43.152-12.101s-26.203-18.81-33.084-30.233c-6.889-11.41-8.203-22.43-3.645-30.64 4.559-8.209 14.609-12.92 27.935-13.103 13.327-.183 28.862 4.166 43.153 12.102 14.29 7.935 26.202 18.809 33.083 30.232 6.89 11.41 8.203 22.431 3.645 30.64Zm-23.716-20.025c-4.804 8.652-20.918 8.875-35.994.503-15.075-8.371-23.404-22.167-18.599-30.819s20.917-8.875 35.993-.503 23.404 22.167 18.6 30.819Z" opacity=".6"/><path stroke="url(#b)" d="M616.209 87.922c-16.778 4.78-39.698 14.419-57.405 24.448-2.633-5.185-8.164-17.522-9.22-25.387" opacity=".6"/><path stroke="url(#c)" d="M586.947 98.566c-20.992 8.182-59.671 31.207-79.176 48.534" opacity=".6"/></g><ellipse cx="615.94" cy="88.089" fill="#fff" rx="3.048" ry="3.277" transform="rotate(-90 615.94 88.09)"/><ellipse cx="507.502" cy="146.499" fill="#fff" rx="3.048" ry="3.277" transform="rotate(-90 507.502 146.499)"/><ellipse cx="728.791" cy="182.932" fill="#fff" rx="3.048" ry="3.277" transform="rotate(-90 728.791 182.932)"/><path stroke="url(#d)" stroke-width=".5" d="M615.939 87.754c-2.67-4.705-7.773-16.644-6.819-26.754s4.96-15.402 6.152-16.881c-17.311-2.718-54.89-4.196-84.552 6.581"/><path stroke="url(#e)" stroke-width=".5" d="M530.72 50.7c29.662-10.777 67.241-9.3 84.552-6.581-1.02 1.265-4.101 5.324-5.566 12.803"/><path stroke="url(#f)" stroke-width=".5" d="M563.92 205.585c6.074-9.437 26.822-32.744 36.488-43.415-9.318-7.412-19.9-19.277-24.114-24.351 15.195-12.124 40.229-27.322 50.847-33.405-2.798-3.344-8.943-11.256-11.144-16.151"/><path stroke="url(#g)" stroke-width=".5" d="M657.607 211.413c6.55-11.936 19.126-49.767 24.988-67.048-25.906-10.745-44.354-26.934-55.462-40.01"/><path stroke="url(#h)" stroke-width=".5" d="M728.435 185.115c-23.569-1.306-46.64-9.419-55.229-13.312 2.26-6.206 7.307-20.374 9.416-27.403"/><rect width="31.5" height="31.5" x="600.459" y="40.407" fill="#191d1e" rx="4.75"/><rect width="31.5" height="31.5" x="600.459" y="40.407" stroke="#172021" stroke-width=".5" rx="4.75"/><path fill="#b0b0b0" fill-rule="evenodd" d="M610.709 51.156a1.5 1.5 0 0 1 1.5-1.5h8a1.5 1.5 0 0 1 1.5 1.5v2c0 .533-.278 1.001-.697 1.267v3.468c.419.266.697.734.697 1.267v2a1.5 1.5 0 0 1-1.5 1.5h-8a1.5 1.5 0 0 1-1.5-1.5v-2a1.5 1.5 0 0 1 .712-1.276v-3.45a1.5 1.5 0 0 1-.712-1.276zm9.516 2.5h-8.032a.5.5 0 0 1-.484-.5v-2a.5.5 0 0 1 .5-.5h8a.5.5 0 0 1 .5.5v2a.5.5 0 0 1-.484.5m-7.804 1v3h7.591v-3zm-.212 4.002a.5.5 0 0 0-.5.5v2a.5.5 0 0 0 .5.5h8a.5.5 0 0 0 .5-.5v-2a.5.5 0 0 0-.5-.5z" clip-rule="evenodd"/><rect width="31.5" height="31.5" x="492.021" y="98.816" fill="#191d1e" rx="4.75"/><rect width="31.5" height="31.5" x="492.021" y="98.816" stroke="#172021" stroke-width=".5" rx="4.75"/><path fill="#b0b0b0" fill-rule="evenodd" d="M511.505 114.411a.5.5 0 0 1 .683-.183l1.285.742c.464.268.75.764.75 1.299v.863a1.5 1.5 0 0 1-.75 1.299l-3.981 2.299a3.5 3.5 0 0 1-3.5 0l-3.981-2.299a1.5 1.5 0 0 1-.75-1.299v-.761c0-.528.278-1.018.732-1.288l1.428-.851a.499.499 0 1 1 .512.859l-1.428.851a.5.5 0 0 0-.244.429v.761c0 .179.095.344.25.433l3.981 2.299a2.5 2.5 0 0 0 2.5 0l3.981-2.299a.5.5 0 0 0 .25-.433v-.863a.5.5 0 0 0-.25-.433l-1.285-.742a.5.5 0 0 1-.183-.683" clip-rule="evenodd"/><path fill="#b0b0b0" fill-rule="evenodd" d="M506.478 108.143a2.5 2.5 0 0 1 2.53-.017l4.465 2.578a1.5 1.5 0 0 1 .75 1.299v.863c0 .535-.286 1.031-.75 1.299l-3.981 2.298a3.5 3.5 0 0 1-3.5 0l-3.981-2.298a1.5 1.5 0 0 1-.75-1.299v-.761a1.5 1.5 0 0 1 .732-1.289zm2.03.849a1.5 1.5 0 0 0-1.518.01l-4.485 2.673a.5.5 0 0 0-.244.43v.761a.5.5 0 0 0 .25.433l3.981 2.298a2.5 2.5 0 0 0 2.5 0l3.981-2.298a.5.5 0 0 0 .25-.433v-.863a.5.5 0 0 0-.25-.433z" clip-rule="evenodd"/><path fill="#b0b0b0" fill-rule="evenodd" d="M514 115.533a.5.5 0 0 1-.191.681l-4.808 2.699a2.5 2.5 0 0 1-2.452-.002l-4.784-2.698a.5.5 0 0 1 .492-.871l4.783 2.697a1.5 1.5 0 0 0 1.471.002l4.809-2.699a.5.5 0 0 1 .68.191M514 111.266a.5.5 0 0 1-.191.681l-4.808 2.699a2.5 2.5 0 0 1-2.452-.002l-4.784-2.697a.501.501 0 0 1 .492-.871l4.783 2.697a1.5 1.5 0 0 0 1.471.001l4.809-2.699a.5.5 0 0 1 .68.191" clip-rule="evenodd"/><rect width="31.5" height="31.5" x="713.311" y="135.25" fill="#191d1e" rx="4.75"/><rect width="31.5" height="31.5" x="713.311" y="135.25" stroke="#172021" stroke-width=".5" rx="4.75"/><path fill="#b0b0b0" fill-rule="evenodd" d="M732.794 150.845a.5.5 0 0 1 .683-.183l1.285.742a1.5 1.5 0 0 1 .75 1.299v.863a1.5 1.5 0 0 1-.75 1.299l-3.981 2.298a3.5 3.5 0 0 1-3.5 0l-3.981-2.298a1.5 1.5 0 0 1-.75-1.299v-.761a1.5 1.5 0 0 1 .732-1.289l1.428-.851a.5.5 0 0 1 .512.859l-1.428.851a.5.5 0 0 0-.244.43v.761a.5.5 0 0 0 .25.433l3.981 2.298a2.5 2.5 0 0 0 2.5 0l3.981-2.298a.5.5 0 0 0 .25-.433v-.863a.5.5 0 0 0-.25-.433l-1.285-.742a.5.5 0 0 1-.183-.683" clip-rule="evenodd"/><path fill="#b0b0b0" fill-rule="evenodd" d="M727.767 144.577a2.5 2.5 0 0 1 2.53-.017l4.465 2.577c.464.268.75.764.75 1.3v.862a1.5 1.5 0 0 1-.75 1.299l-3.981 2.299a3.5 3.5 0 0 1-3.5 0l-3.981-2.299a1.5 1.5 0 0 1-.75-1.299v-.761c0-.528.278-1.018.732-1.288zm2.03.849a1.5 1.5 0 0 0-1.518.01l-4.485 2.673a.5.5 0 0 0-.244.429v.761c0 .179.095.344.25.433l3.981 2.299a2.5 2.5 0 0 0 2.5 0l3.981-2.299a.5.5 0 0 0 .25-.433v-.862a.5.5 0 0 0-.25-.434z" clip-rule="evenodd"/><path fill="#b0b0b0" fill-rule="evenodd" d="M735.29 151.966a.5.5 0 0 1-.192.681l-4.808 2.699a2.5 2.5 0 0 1-2.452-.002l-4.784-2.697a.501.501 0 0 1 .492-.871l4.784 2.697a1.5 1.5 0 0 0 1.471.001l4.808-2.699a.5.5 0 0 1 .681.191M735.29 147.7a.5.5 0 0 1-.192.681l-4.808 2.699a2.5 2.5 0 0 1-2.452-.002l-4.784-2.698a.5.5 0 0 1 .492-.871l4.784 2.698a1.5 1.5 0 0 0 1.471.001l4.808-2.699a.5.5 0 0 1 .681.191" clip-rule="evenodd"/><path stroke="#fff" stroke-dasharray="0.5 1" stroke-width=".5" d="M615.939 87.488v-15.33M507.502 145.897v-15.331M728.791 182.331V167"/></g><defs><linearGradient id="b" x1="627.773" x2="599.935" y1="90.649" y2="113.712" gradientUnits="userSpaceOnUse"><stop stop-color="#fff"/><stop offset="1" stop-color="#fff" stop-opacity="0"/></linearGradient><linearGradient id="c" x1="596.26" x2="510.475" y1="96.259" y2="166.414" gradientUnits="userSpaceOnUse"><stop stop-color="#fff"/><stop offset="1" stop-color="#fff" stop-opacity="0"/></linearGradient><linearGradient id="d" x1="615.939" x2="605.369" y1="85.936" y2="61.509" gradientUnits="userSpaceOnUse"><stop stop-color="#fff"/><stop offset="1" stop-color="#fff" stop-opacity="0"/></linearGradient><linearGradient id="e" x1="615.271" x2="530.72" y1="46.547" y2="51.062" gradientUnits="userSpaceOnUse"><stop stop-color="#fff"/><stop offset="1" stop-color="#fff" stop-opacity="0"/></linearGradient><linearGradient id="f" x1="616.391" x2="575.928" y1="114.091" y2="196.152" gradientUnits="userSpaceOnUse"><stop stop-color="#fff"/><stop offset="1" stop-color="#fff" stop-opacity="0"/></linearGradient><linearGradient id="g" x1="647.772" x2="657.45" y1="129.435" y2="201.108" gradientUnits="userSpaceOnUse"><stop stop-color="#fff" stop-opacity=".51"/><stop offset="1" stop-color="#fff" stop-opacity="0"/></linearGradient><linearGradient id="h" x1="698.115" x2="732.042" y1="177.299" y2="188.981" gradientUnits="userSpaceOnUse"><stop stop-color="#fff"/><stop offset="1" stop-color="#fff" stop-opacity="0"/></linearGradient><clipPath id="a"><path fill="#fff" d="M.518 0h764v208h-764z"/></clipPath></defs></svg>