<svg xmlns="http://www.w3.org/2000/svg" width="349" height="174" fill="none" viewBox="0 0 349 174"><g clip-path="url(#a)"><path fill="#121516" d="M0 0h349v174H0z"/><g stroke-width=".5" style="mix-blend-mode:lighten"><path stroke="#575e61" d="M91.267 362.109c-1.716-1.047 1.41-9.939 9.041-25.8s19.508-38.124 34.431-64.561c14.924-26.437 32.37-56.105 50.587-86.018 18.225-29.926 36.575-59.037 53.201-84.435 16.639-25.39 30.974-46.158 41.56-60.21 10.594-14.066 17.067-20.913 18.783-19.866" opacity=".6"/><path stroke="#575e61" d="M66.203 344.063c-7.13-6.033-8.183-19.002-3.065-37.603 5.132-18.593 16.27-42.182 32.286-68.367s36.367-54.054 58.986-80.793c22.627-26.754 46.721-51.442 69.867-71.595 23.159-20.144 44.55-35.051 62.037-43.198 17.486-8.146 30.451-9.259 37.588-3.241" opacity=".6"/><path stroke="#575e61" d="M41.75 319.431c-10.276-12.338-13.276-30.347-8.725-52.233s16.525-46.879 34.694-72.466c18.168-25.588 41.901-50.868 68.814-73.299 26.914-22.431 56.06-41.213 84.491-54.47 28.446-13.25 55.178-20.521 77.541-21.066 22.354-.531 39.534 5.666 49.797 17.996" opacity=".6"/><path stroke="#575e61" d="M18.103 283.944c-10.017-19.198-11.684-42.332-4.824-67.064s22.004-50.187 43.89-73.823C79.067 119.43 106.94 98.466 138 82.259c31.059-16.206 64.218-27.044 96.12-31.482 31.916-4.43 61.456-2.259 85.655 6.267 24.2 8.525 42.214 23.142 52.231 42.34" opacity=".6"/><path stroke="#575e61" d="M-.62 230.874c-5.068-25.284-1.004-51.943 11.781-77.288S45 105.096 72.215 86.493C99.43 67.892 131.838 54.47 166.186 47.58c34.347-6.89 69.424-6.988 101.707-.305 32.283 6.682 60.628 19.919 82.189 38.374 21.562 18.455 35.586 41.503 40.654 66.788" opacity=".6"/><path stroke="#575e61" d="M-1.282 155.91c5.045-27.72 19.075-53.289 40.687-74.144 21.597-20.863 50.012-36.278 82.394-44.708 32.374-8.415 67.561-9.553 102.025-3.266 34.472 6.273 67.003 19.742 94.318 39.038s48.486 43.736 61.338 70.878 16.976 56.011 11.931 83.731" opacity=".6"/><path stroke="#575e61" d="M33.6 74.37C59.025 39.38 100.41 18.168 148.67 15.418c48.262-2.75 99.428 13.185 142.247 44.285s73.798 74.845 86.103 121.576c12.296 46.745 4.936 92.661-20.475 127.656" opacity=".6"/><path stroke="#575e61" d="M95.328 18.79c35.506-20.481 80.07-21.922 123.884-3.98 43.813 17.941 83.285 53.757 109.728 99.616 26.451 45.845 37.711 97.954 31.294 144.861s-29.962 84.768-65.468 105.249" opacity=".6"/><path stroke="#575e61" d="M155.837-4.02c35.247-7.063 73.178 6.772 105.46 38.483s56.25 78.661 66.657 130.558 6.369 104.477-11.195 146.165c-17.565 41.688-47.237 69.087-82.484 76.15" opacity=".6"/><path stroke="#575e61" d="M203.916-7.71c28.417 1.267 54.743 23.488 73.18 61.763 18.438 38.276 27.463 89.499 25.131 142.372-2.355 52.879-15.887 103.082-37.65 139.581s-49.943 56.302-78.36 55.035" opacity=".6"/><path stroke="#575e61" d="M241.355-2.457c18.494 4.404 31.343 29.097 35.736 68.614s-.035 90.648-12.322 142.14c-12.28 51.478-31.41 99.113-53.165 132.404s-44.365 49.518-62.85 45.1" opacity=".6"/><path stroke="#575e61" d="M272.02 7.523c7.639 3.196 6.842 25.654-2.192 62.44s-25.567 84.894-45.977 133.724c-20.41 48.831-43.012 94.409-62.859 126.685-19.824 32.27-35.254 48.619-42.893 45.423" opacity=".6"/><path stroke="#575e61" d="M126.725 379.187c-19.48-7.1-38.396-17.605-54.721-30.387M199.5 391.189c-30.738.695-66.73-9.299-99.866-27.699s-60.623-43.676-76.305-70.129m223.733 90.991c-39.09 10.552-93.684.016-143.608-27.707S15.727 288.149 4.02 249.39m282.573 119.612c-20.606 10.636-48.57 14.104-80.18 9.943s-65.414-15.741-96.894-33.221c-31.48-17.481-59.186-40.04-79.42-64.687-20.242-24.633-32.08-50.204-33.946-73.318m323.941 139.503c-20.137 16.182-51.092 23.387-87.843 20.444-36.75-2.943-77.133-15.861-114.58-36.655-37.447-20.795-69.76-48.246-91.686-77.886-21.925-29.64-32.172-59.724-29.081-85.372m350.921 152.336c-18.119 21.562-50.591 32.744-91.182 31.404-40.6-1.327-86.495-15.082-128.882-38.62s-78.324-55.224-100.912-88.986-30.261-67.237-21.545-94.001M369.54 288.552c-9.759 17.574-27.402 30.341-51.157 37.061-23.77 6.712-52.8 7.122-84.201 1.172-31.401-5.949-64.05-18.028-94.688-35.041-30.637-17.013-58.149-38.342-79.799-61.852s-36.662-48.377-43.516-72.094c-6.867-23.725-5.334-45.457 4.417-63.017M369.54 288.552a199.6 199.6 0 0 1-119.621 94.995 199.55 199.55 0 0 1-151.75-17.416A199.65 199.65 0 0 1 3.164 246.524 199.55 199.55 0 0 1 20.58 94.774 199.65 199.65 0 0 1 140.19-.23a199.55 199.55 0 0 1 151.75 17.416 199.65 199.65 0 0 1 95.004 119.607 199.6 199.6 0 0 1-17.403 151.759Zm15.292-35.105c-6.661 20.471-22.606 36.067-46.005 45.003-23.39 8.922-53.267 10.823-86.206 5.457-32.948-5.351-67.622-17.751-100.03-35.747-32.422-18.004-61.263-40.875-83.223-66.014s-36.162-51.498-40.939-76.062c-4.791-24.571.032-46.342 13.882-62.84m350.885 152.335c-2.768 22.913-16.042 41.132-38.074 52.283-22.04 11.166-51.828 14.723-85.441 10.234-33.614-4.488-69.497-16.831-102.947-35.406s-62.895-42.509-84.474-68.67c-21.58-26.16-34.307-53.326-36.48-77.937s6.276-45.51 24.254-59.957m323.949 139.488c1.998 24.757-7.557 45.395-27.216 58.798-19.659 13.404-48.352 18.857-81.767 15.525s-69.718-15.255-103.439-33.98-63.047-43.247-83.525-69.842C77.543 119.512 67.005 92.272 67.99 68.5c.985-23.773 13.467-42.786 35.524-54.185m282.602 119.628c7.812 25.894 3.307 48.739-12.734 64.506-16.04 15.768-42.577 23.427-74.918 21.625-32.327-1.794-68.364-12.951-101.714-31.471-33.349-18.519-61.856-43.203-80.482-69.703C97.656 92.408 90.13 65.832 95.034 43.882 99.94 21.93 116.958 6.015 143.06-1.028m223.719 90.985c15.401 26.017 18.111 51.038 7.52 69.607s-33.617 29.188-64.04 29.516c-30.431.342-65.803-9.625-98.381-27.716s-59.738-42.848-75.534-68.86c-15.797-26.013-18.962-51.157-8.799-69.963C137.707 3.734 160.38-7.192 190.606-7.872M318.11 34.54c21.804 17.076 37.695 37.2 44.761 56.666 7.053 19.456 4.797 36.939-6.376 49.189s-30.483 18.432-54.372 17.419-50.72-9.169-75.518-22.939c-24.813-13.779-45.907-32.235-59.394-51.978s-18.447-39.402-13.955-55.362S171.381.411 191.64-3.88c20.244-4.3 45.741-1.441 71.763 8.04m81.587 104.144c-6.691 12.049-21.465 18.975-41.045 19.254-19.595.27-42.395-6.134-63.395-17.795-21.015-11.67-38.503-27.639-48.618-44.407-10.129-16.776-12.053-32.955-5.354-45.019 6.691-12.049 21.464-18.975 41.045-19.253 19.594-.27 42.394 6.133 63.395 17.795s38.503 27.638 48.618 44.406c10.114 16.768 12.045 32.97 5.354 45.019Zm-20.534-22.628c-4.558 8.209-14.608 12.92-27.935 13.103-13.326.184-28.861-4.166-43.152-12.102-14.291-7.935-26.203-18.809-33.084-30.232-6.889-11.41-8.203-22.43-3.644-30.64 4.558-8.209 14.608-12.92 27.935-13.103 13.326-.184 28.861 4.166 43.152 12.102 14.291 7.935 26.203 18.809 33.084 30.232 6.889 11.41 8.203 22.43 3.644 30.64ZM300.74 65.65c-4.804 8.652-20.917 8.875-35.993.503s-23.404-22.167-18.6-30.819 20.918-8.875 35.993-.503 23.404 22.167 18.6 30.819Z" opacity=".6"/><path stroke="url(#b)" d="M189.692 60.922c-16.779 4.78-39.698 14.419-57.406 24.448-2.633-5.185-8.163-17.522-9.22-25.387" opacity=".6"/><path stroke="url(#c)" d="M160.43 71.566c-20.992 8.183-59.671 31.207-79.176 48.534" opacity=".6"/></g><ellipse cx="189.422" cy="61.089" fill="#fff" rx="3.048" ry="3.277" transform="rotate(-90 189.422 61.09)"/><ellipse cx="80.985" cy="119.499" fill="#fff" rx="3.048" ry="3.277" transform="rotate(-90 80.985 119.499)"/><ellipse cx="302.274" cy="155.932" fill="#fff" rx="3.048" ry="3.277" transform="rotate(-90 302.274 155.932)"/><path stroke="url(#d)" stroke-width=".5" d="M189.422 60.754c-2.671-4.705-7.773-16.644-6.82-26.753.954-10.11 4.96-15.403 6.152-16.882-17.311-2.718-54.889-4.196-84.552 6.581"/><path stroke="url(#e)" stroke-width=".5" d="M104.202 23.7c29.663-10.777 67.241-9.3 84.552-6.581-1.02 1.265-4.1 5.324-5.566 12.803"/><path stroke="url(#f)" stroke-width=".5" d="M137.402 178.585c6.074-9.437 26.823-32.744 36.488-43.415-9.318-7.412-19.9-19.277-24.113-24.351 15.194-12.124 40.229-27.321 50.846-33.405-2.797-3.344-8.943-11.256-11.143-16.151"/><path stroke="url(#g)" stroke-width=".5" d="M231.089 184.413c6.551-11.936 19.127-49.767 24.988-67.048-25.906-10.745-44.353-26.934-55.462-40.01"/><path stroke="url(#h)" stroke-width=".5" d="M301.917 158.115c-23.569-1.306-46.639-9.419-55.229-13.312 2.261-6.206 7.308-20.374 9.416-27.403"/><rect width="31.5" height="31.5" x="173.941" y="13.407" fill="#191d1e" rx="4.75"/><rect width="31.5" height="31.5" x="173.941" y="13.407" stroke="#172021" stroke-width=".5" rx="4.75"/><path fill="#b0b0b0" fill-rule="evenodd" d="M184.191 24.156a1.5 1.5 0 0 1 1.5-1.5h8a1.5 1.5 0 0 1 1.5 1.5v2a1.5 1.5 0 0 1-.696 1.267v3.468a1.5 1.5 0 0 1 .696 1.267v2a1.5 1.5 0 0 1-1.5 1.5h-8a1.5 1.5 0 0 1-1.5-1.5v-2a1.5 1.5 0 0 1 .712-1.277v-3.448a1.5 1.5 0 0 1-.712-1.277zm9.516 2.5h-8.031a.5.5 0 0 1-.485-.5v-2a.5.5 0 0 1 .5-.5h8a.5.5 0 0 1 .5.5v2a.5.5 0 0 1-.484.5m-7.804 1v3h7.592v-3zm-.212 4.002a.5.5 0 0 0-.5.5v2a.5.5 0 0 0 .5.5h8a.5.5 0 0 0 .5-.5v-2a.5.5 0 0 0-.5-.5z" clip-rule="evenodd"/><rect width="31.5" height="31.5" x="65.504" y="71.816" fill="#191d1e" rx="4.75"/><rect width="31.5" height="31.5" x="65.504" y="71.816" stroke="#172021" stroke-width=".5" rx="4.75"/><path fill="#b0b0b0" fill-rule="evenodd" d="M84.987 87.411a.5.5 0 0 1 .683-.183l1.285.742a1.5 1.5 0 0 1 .75 1.3v.862a1.5 1.5 0 0 1-.75 1.3l-3.98 2.297a3.5 3.5 0 0 1-3.5 0l-3.982-2.298a1.5 1.5 0 0 1-.75-1.299v-.76a1.5 1.5 0 0 1 .732-1.29l1.428-.85a.5.5 0 0 1 .512.859l-1.428.85a.5.5 0 0 0-.244.43v.761a.5.5 0 0 0 .25.433l3.981 2.299a2.5 2.5 0 0 0 2.5 0l3.981-2.299a.5.5 0 0 0 .25-.433v-.863a.5.5 0 0 0-.25-.433l-1.285-.742a.5.5 0 0 1-.183-.683" clip-rule="evenodd"/><path fill="#b0b0b0" fill-rule="evenodd" d="M79.96 81.143a2.5 2.5 0 0 1 2.53-.017l4.465 2.578a1.5 1.5 0 0 1 .75 1.299v.862a1.5 1.5 0 0 1-.75 1.3l-3.98 2.298a3.5 3.5 0 0 1-3.5 0l-3.982-2.298a1.5 1.5 0 0 1-.75-1.3v-.76a1.5 1.5 0 0 1 .732-1.289zm2.03.849a1.5 1.5 0 0 0-1.518.01l-4.485 2.673a.5.5 0 0 0-.244.43v.76a.5.5 0 0 0 .25.434l3.981 2.298a2.5 2.5 0 0 0 2.5 0l3.981-2.298a.5.5 0 0 0 .25-.434v-.862a.5.5 0 0 0-.25-.433z" clip-rule="evenodd"/><path fill="#b0b0b0" fill-rule="evenodd" d="M87.483 88.533a.5.5 0 0 1-.191.68l-4.809 2.7a2.5 2.5 0 0 1-2.451-.002l-4.784-2.698a.5.5 0 1 1 .491-.87l4.784 2.697a1.5 1.5 0 0 0 1.47 0l4.81-2.698a.5.5 0 0 1 .68.19M87.483 84.267a.5.5 0 0 1-.191.68l-4.809 2.7a2.5 2.5 0 0 1-2.451-.003l-4.784-2.697a.5.5 0 0 1 .491-.871l4.784 2.697a1.5 1.5 0 0 0 1.47.002l4.81-2.7a.5.5 0 0 1 .68.191" clip-rule="evenodd"/><rect width="31.5" height="31.5" x="286.793" y="108.25" fill="#191d1e" rx="4.75"/><rect width="31.5" height="31.5" x="286.793" y="108.25" stroke="#172021" stroke-width=".5" rx="4.75"/><path fill="#b0b0b0" fill-rule="evenodd" d="M306.276 123.845a.5.5 0 0 1 .683-.183l1.285.742c.465.268.75.763.75 1.299v.863c0 .536-.285 1.031-.75 1.299l-3.981 2.298a3.5 3.5 0 0 1-3.5 0l-3.981-2.298a1.5 1.5 0 0 1-.75-1.299v-.761a1.5 1.5 0 0 1 .732-1.289l1.428-.851a.5.5 0 1 1 .512.859l-1.428.851a.5.5 0 0 0-.244.43v.761c0 .178.096.343.25.433l3.981 2.298a2.5 2.5 0 0 0 2.5 0l3.981-2.298a.5.5 0 0 0 .25-.433v-.863a.5.5 0 0 0-.25-.433l-1.285-.742a.5.5 0 0 1-.183-.683" clip-rule="evenodd"/><path fill="#b0b0b0" fill-rule="evenodd" d="M301.25 117.577a2.5 2.5 0 0 1 2.529-.017l4.465 2.577a1.5 1.5 0 0 1 .75 1.3v.862c0 .536-.285 1.031-.75 1.299l-3.981 2.299a3.5 3.5 0 0 1-3.5 0l-3.981-2.299a1.5 1.5 0 0 1-.75-1.299v-.761c0-.528.278-1.018.732-1.288zm2.029.849a1.5 1.5 0 0 0-1.518.01l-4.485 2.673a.5.5 0 0 0-.244.429v.761a.5.5 0 0 0 .25.433l3.981 2.299a2.5 2.5 0 0 0 2.5 0l3.981-2.299a.5.5 0 0 0 .25-.433v-.862a.5.5 0 0 0-.25-.434z" clip-rule="evenodd"/><path fill="#b0b0b0" fill-rule="evenodd" d="M308.772 124.966a.5.5 0 0 1-.191.681l-4.809 2.699a2.5 2.5 0 0 1-2.451-.002l-4.784-2.697a.5.5 0 1 1 .491-.871l4.784 2.697a1.5 1.5 0 0 0 1.471.001l4.808-2.699a.5.5 0 0 1 .681.191M308.772 120.7a.5.5 0 0 1-.191.681l-4.809 2.699a2.5 2.5 0 0 1-2.451-.002l-4.784-2.698a.499.499 0 1 1 .491-.871l4.784 2.698a1.5 1.5 0 0 0 1.471.001l4.808-2.699a.5.5 0 0 1 .681.191" clip-rule="evenodd"/><path stroke="#fff" stroke-dasharray="0.5 1" stroke-width=".5" d="M189.422 60.488v-15.33M80.984 118.897v-15.331M302.273 155.331V140"/></g><defs><linearGradient id="b" x1="201.255" x2="173.418" y1="63.649" y2="86.712" gradientUnits="userSpaceOnUse"><stop stop-color="#fff"/><stop offset="1" stop-color="#fff" stop-opacity="0"/></linearGradient><linearGradient id="c" x1="169.742" x2="83.957" y1="69.259" y2="139.414" gradientUnits="userSpaceOnUse"><stop stop-color="#fff"/><stop offset="1" stop-color="#fff" stop-opacity="0"/></linearGradient><linearGradient id="d" x1="189.422" x2="178.852" y1="58.936" y2="34.509" gradientUnits="userSpaceOnUse"><stop stop-color="#fff"/><stop offset="1" stop-color="#fff" stop-opacity="0"/></linearGradient><linearGradient id="e" x1="188.754" x2="104.202" y1="19.547" y2="24.062" gradientUnits="userSpaceOnUse"><stop stop-color="#fff"/><stop offset="1" stop-color="#fff" stop-opacity="0"/></linearGradient><linearGradient id="f" x1="189.873" x2="149.41" y1="87.091" y2="169.152" gradientUnits="userSpaceOnUse"><stop stop-color="#fff"/><stop offset="1" stop-color="#fff" stop-opacity="0"/></linearGradient><linearGradient id="g" x1="221.254" x2="230.933" y1="102.435" y2="174.108" gradientUnits="userSpaceOnUse"><stop stop-color="#fff" stop-opacity=".51"/><stop offset="1" stop-color="#fff" stop-opacity="0"/></linearGradient><linearGradient id="h" x1="271.597" x2="305.525" y1="150.299" y2="161.981" gradientUnits="userSpaceOnUse"><stop stop-color="#fff"/><stop offset="1" stop-color="#fff" stop-opacity="0"/></linearGradient><clipPath id="a"><path fill="#fff" d="M0 0h349v174H0z"/></clipPath></defs></svg>