<svg width="349" height="174" viewBox="0 0 349 174" fill="none" xmlns="http://www.w3.org/2000/svg">
<g clip-path="url(#clip0_1058_7510)">
<rect width="349" height="174" fill="#121516"/>
<g style="mix-blend-mode:lighten">
<path opacity="0.6" d="M91.2673 362.109C89.5509 361.062 92.677 352.17 100.308 336.309C107.939 320.448 119.816 298.185 134.739 271.748C149.663 245.311 167.109 215.643 185.326 185.73C203.551 155.804 221.901 126.693 238.527 101.295C255.166 75.9048 269.501 55.1368 280.087 41.0851C290.681 27.0191 297.154 20.1723 298.87 21.2188" stroke="#575E61" stroke-width="0.5"/>
<path opacity="0.6" d="M66.2027 344.063C59.0736 338.03 58.0196 325.061 63.1375 306.46C68.2698 287.867 79.4076 264.278 95.4238 238.093C111.44 211.908 131.791 184.039 154.41 157.3C177.037 130.546 201.131 105.858 224.277 85.7054C247.436 65.5606 268.827 50.6535 286.314 42.5071C303.8 34.3607 316.765 33.248 323.902 39.2659" stroke="#575E61" stroke-width="0.5"/>
<path opacity="0.6" d="M41.7509 319.431C31.4738 307.093 28.4742 289.084 33.0253 267.198C37.5764 245.312 49.5498 220.319 67.7185 194.732C85.8872 169.144 109.62 143.864 136.533 121.433C163.447 99.0017 192.593 80.2198 221.024 66.9625C249.47 53.7131 276.202 46.442 298.565 45.8969C320.919 45.366 338.099 51.5628 348.362 63.8928" stroke="#575E61" stroke-width="0.5"/>
<path opacity="0.6" d="M18.1025 283.944C8.08581 264.746 6.41913 241.612 13.2791 216.88C20.139 192.148 35.283 166.693 57.1682 143.057C79.0678 119.43 106.941 98.4657 138 82.2593C169.059 66.0529 202.218 55.215 234.12 50.7774C266.036 46.3476 295.576 48.5181 319.775 57.0435C343.975 65.569 361.989 80.1862 372.006 99.3841" stroke="#575E61" stroke-width="0.5"/>
<path opacity="0.6" d="M-0.619894 230.874C-5.68757 205.59 -1.62432 178.931 11.1612 153.586C23.9466 128.241 44.9993 105.096 72.2149 86.4935C99.4304 67.8912 131.838 54.4697 166.186 47.5795C200.533 40.6892 235.61 40.5921 267.893 47.2745C300.176 53.9569 328.521 67.1939 350.082 85.6488C371.644 104.104 385.668 127.152 390.736 152.437" stroke="#575E61" stroke-width="0.5"/>
<path opacity="0.6" d="M-1.28202 155.91C3.76282 128.19 17.7933 102.621 39.4048 81.7658C61.0019 60.9028 89.4171 45.4884 121.799 37.0584C154.173 28.6427 189.36 27.5051 223.824 33.7921C258.296 40.0649 290.827 53.5342 318.142 72.8303C345.456 92.1263 366.628 116.566 379.48 143.708C392.333 170.85 396.456 199.719 391.411 227.439" stroke="#575E61" stroke-width="0.5"/>
<path opacity="0.6" d="M33.5996 74.3692C59.0245 39.3813 100.41 18.1688 148.671 15.4187C196.933 12.6687 248.099 28.604 290.918 59.7041C333.738 90.8041 364.716 134.549 377.021 181.28C389.317 228.025 381.957 273.941 356.546 308.936" stroke="#575E61" stroke-width="0.5"/>
<path opacity="0.6" d="M95.3283 18.7892C130.834 -1.69101 175.398 -3.13178 219.212 14.8098C263.025 32.7513 302.497 68.5674 328.94 114.426C355.391 160.271 366.651 212.38 360.234 259.287C353.818 306.194 330.272 344.055 294.766 364.536" stroke="#575E61" stroke-width="0.5"/>
<path opacity="0.6" d="M155.837 -4.01968C191.084 -11.083 229.015 2.75167 261.297 34.4628C293.578 66.1739 317.547 113.124 327.954 165.021C338.361 216.918 334.323 269.498 316.759 311.186C299.194 352.874 269.522 380.273 234.275 387.336" stroke="#575E61" stroke-width="0.5"/>
<path opacity="0.6" d="M203.916 -7.70982C232.333 -6.44321 258.659 15.7778 277.096 54.0533C295.534 92.3287 304.559 143.552 302.227 196.425C299.872 249.304 286.34 299.507 264.577 336.006C242.815 372.505 214.634 392.308 186.217 391.041" stroke="#575E61" stroke-width="0.5"/>
<path opacity="0.6" d="M241.355 -2.45687C259.849 1.94737 272.698 26.6405 277.091 66.1574C281.484 105.674 277.056 156.805 264.769 208.297C252.489 259.775 233.359 307.41 211.604 340.701C189.849 373.991 167.239 390.219 148.754 385.801" stroke="#575E61" stroke-width="0.5"/>
<path opacity="0.6" d="M272.02 7.5233C279.659 10.7194 278.862 33.1772 269.828 69.9638C260.795 106.75 244.261 154.857 223.851 203.687C203.441 252.518 180.839 298.096 160.992 330.372C141.168 362.642 125.738 378.991 118.099 375.795" stroke="#575E61" stroke-width="0.5"/>
<path opacity="0.6" d="M126.725 379.187C107.245 372.087 88.3289 361.582 72.0039 348.8M199.501 391.189C168.763 391.884 132.771 381.89 99.635 363.49C66.4994 345.089 39.0122 319.814 23.3301 293.361M247.063 384.352C207.973 394.904 153.379 384.368 103.455 356.645C53.5299 328.922 15.7269 288.149 4.02035 249.39M286.593 369.002C265.987 379.638 238.023 383.106 206.413 378.945C174.803 374.784 140.999 363.204 109.519 345.724C78.0398 328.243 50.3326 305.684 30.0988 281.037C9.85698 256.404 -1.98185 230.833 -3.84677 207.719M320.094 347.222C299.957 363.404 269.002 370.609 232.251 367.666C195.501 364.723 155.118 351.805 117.671 331.011C80.2236 310.216 47.911 282.765 25.9854 253.125C4.05981 223.485 -6.1874 193.401 -3.09624 167.753M347.825 320.089C329.706 341.651 297.234 352.833 256.643 351.493C216.043 350.166 170.148 336.411 127.761 312.873C85.3744 289.336 49.4368 257.649 26.849 223.887C4.26121 190.125 -3.41242 156.65 5.30443 129.886M369.54 288.552C359.781 306.126 342.138 318.893 318.383 325.613C294.613 332.325 265.583 332.735 234.182 326.785C202.781 320.836 170.132 308.757 139.494 291.744C108.857 274.731 81.3452 253.402 59.6952 229.892C38.0451 206.382 23.0327 181.515 16.1793 157.798C9.31172 134.073 10.8445 112.341 20.5957 94.7811M369.54 288.552C343.847 334.822 300.811 368.996 249.919 383.547C199.027 398.099 144.453 391.833 98.1684 366.131C51.8985 340.437 17.724 297.401 3.1649 246.524C-11.3862 195.632 -5.12047 141.057 20.5814 94.7732C46.2753 48.5032 89.3109 14.3287 140.189 -0.230322C191.081 -14.7814 245.655 -8.51567 291.939 17.1862C338.209 42.8801 372.384 85.9156 386.943 136.793C401.494 187.686 395.234 242.282 369.54 288.552ZM384.832 253.447C378.171 273.918 362.226 289.514 338.827 298.45C315.437 307.372 285.56 309.273 252.621 303.907C219.673 298.556 184.999 286.156 152.591 268.16C120.169 250.156 91.3279 227.285 69.3683 202.146C47.4086 177.007 33.2064 150.648 28.4291 126.084C23.6375 101.513 28.4614 79.7417 42.3113 63.2436M393.196 215.579C390.428 238.492 377.154 256.711 355.122 267.862C333.082 279.028 303.294 282.585 269.681 278.096C236.067 273.608 200.184 261.265 166.734 242.69C133.284 224.116 103.839 200.181 82.2595 174.02C60.6803 147.86 47.953 120.694 45.7801 96.0832C43.6071 71.4721 52.0555 50.5736 70.0344 36.1255M393.983 175.614C395.981 200.371 386.426 221.009 366.767 234.412C347.108 247.816 318.415 253.269 285 249.937C251.585 246.605 215.282 234.682 181.561 215.957C147.84 197.232 118.514 172.71 98.0359 146.115C77.5431 119.512 67.0046 92.2725 67.9897 68.4998C68.9749 44.7271 81.4571 25.7137 103.514 14.3149M386.116 133.943C393.928 159.837 389.423 182.682 373.382 198.449C357.342 214.217 330.805 221.876 298.464 220.074C266.137 218.28 230.1 207.123 196.75 188.603C163.401 170.084 134.894 145.4 116.268 118.9C97.656 92.4078 90.1296 65.8325 95.0344 43.8815C99.9392 21.9305 116.958 6.01544 143.059 -1.02709M366.778 89.9565C382.179 115.974 384.889 140.995 374.298 159.564C363.706 178.133 340.681 188.752 310.258 189.08C279.827 189.422 244.455 179.455 211.877 161.364C179.298 143.273 152.139 118.516 136.343 92.5035C120.546 66.4913 117.381 41.3474 127.544 22.5406C137.707 3.73382 160.38 -7.19241 190.606 -7.87229M318.11 34.5395C339.914 51.6161 355.805 71.7407 362.871 91.2055C369.924 110.662 367.668 128.145 356.495 140.395C345.322 152.645 326.012 158.827 302.123 157.814C278.235 156.802 251.403 148.645 226.605 134.875C201.792 121.096 180.698 102.64 167.211 82.8969C153.724 63.1541 148.764 43.4953 153.256 27.5351C157.747 11.5749 171.381 0.410837 191.64 -3.88027C211.884 -8.17931 237.381 -5.32126 263.403 4.16024M344.99 108.304C338.299 120.353 323.525 127.279 303.945 127.558C284.35 127.828 261.55 121.424 240.55 109.763C219.535 98.0928 202.047 82.1242 191.932 65.3562C181.803 48.5804 179.879 32.4009 186.578 20.3373C193.269 8.288 208.042 1.36183 227.623 1.08369C247.217 0.813477 270.017 7.21697 291.018 18.8787C312.019 30.5405 329.521 46.5171 339.636 63.2851C349.75 80.053 351.681 96.2547 344.99 108.304ZM324.456 85.6758C319.898 93.8848 309.848 98.5958 296.521 98.7792C283.195 98.9625 267.66 94.6133 253.369 86.6775C239.078 78.7418 227.166 67.8682 220.285 56.4448C213.396 45.0357 212.082 34.0142 216.641 25.8052C221.199 17.5963 231.249 12.8852 244.576 12.7018C257.902 12.5185 273.437 16.8677 287.728 24.8035C302.019 32.7392 313.931 43.6128 320.812 55.0362C327.701 66.4453 329.015 77.4669 324.456 85.6758ZM300.74 65.651C295.936 74.3026 279.823 74.5261 264.747 66.1544C249.671 57.7826 241.343 43.9867 246.147 35.3352C250.951 26.6837 267.065 26.4601 282.14 34.8319C297.216 43.2036 305.544 56.9995 300.74 65.651Z" stroke="#575E61" stroke-width="0.5"/>
<path opacity="0.6" d="M189.692 60.9218C172.913 65.7016 149.994 75.341 132.286 85.3701C129.653 80.1849 124.123 67.8484 123.066 59.9834" stroke="url(#paint0_linear_1058_7510)" stroke-width="0.5"/>
<path opacity="0.6" d="M160.43 71.5664C139.438 79.7485 100.759 102.773 81.2539 120.1" stroke="url(#paint1_linear_1058_7510)" stroke-width="0.5"/>
</g>
<ellipse cx="189.422" cy="61.0894" rx="3.04834" ry="3.27675" transform="rotate(-90 189.422 61.0894)" fill="white"/>
<ellipse cx="80.9848" cy="119.499" rx="3.04834" ry="3.27675" transform="rotate(-90 80.9848 119.499)" fill="white"/>
<ellipse cx="302.274" cy="155.932" rx="3.04834" ry="3.27675" transform="rotate(-90 302.274 155.932)" fill="white"/>
<path d="M189.422 60.7544C186.751 56.0489 181.649 44.1103 182.602 34.0005C183.556 23.8907 187.562 18.5977 188.754 17.1189C171.443 14.4009 133.865 12.9227 104.202 23.7002" stroke="url(#paint2_linear_1058_7510)" stroke-width="0.5"/>
<path d="M104.202 23.7002C133.865 12.9227 171.443 14.4009 188.754 17.1189C187.734 18.3844 184.654 22.4427 183.188 29.9222" stroke="url(#paint3_linear_1058_7510)" stroke-width="0.5"/>
<path d="M137.402 178.585C143.476 169.148 164.225 145.841 173.89 135.17C164.572 127.758 153.99 115.893 149.777 110.819C164.971 98.6953 190.006 83.4975 200.623 77.4141C197.826 74.0699 191.68 66.1578 189.48 61.2627" stroke="url(#paint4_linear_1058_7510)" stroke-width="0.5"/>
<path d="M231.089 184.413C237.64 172.477 250.216 134.646 256.077 117.365C230.171 106.62 211.724 90.4312 200.615 77.3555" stroke="url(#paint5_linear_1058_7510)" stroke-width="0.5"/>
<path d="M301.917 158.115C278.348 156.809 255.278 148.696 246.688 144.803C248.949 138.597 253.996 124.429 256.104 117.4" stroke="url(#paint6_linear_1058_7510)" stroke-width="0.5"/>
<rect x="173.941" y="13.4072" width="31.5" height="31.5" rx="4.75" fill="#191D1E"/>
<rect x="173.941" y="13.4072" width="31.5" height="31.5" rx="4.75" stroke="#172021" stroke-width="0.5"/>
<path fill-rule="evenodd" clip-rule="evenodd" d="M184.191 24.1562C184.191 23.3278 184.863 22.6562 185.691 22.6562H193.691C194.52 22.6562 195.191 23.3278 195.191 24.1562V26.1562C195.191 26.6892 194.913 27.1573 194.495 27.4233V30.8909C194.913 31.1569 195.191 31.625 195.191 32.158V34.158C195.191 34.9864 194.52 35.658 193.691 35.658H185.691C184.863 35.658 184.191 34.9864 184.191 34.158V32.158C184.191 31.6187 184.476 31.1458 184.903 30.8815V27.4327C184.476 27.1684 184.191 26.6956 184.191 26.1562V24.1562ZM193.707 26.656H185.676C185.407 26.6477 185.191 26.4271 185.191 26.1562V24.1562C185.191 23.8801 185.415 23.6562 185.691 23.6562H193.691C193.968 23.6562 194.191 23.8801 194.191 24.1562V26.1562C194.191 26.4271 193.976 26.6477 193.707 26.656ZM185.903 27.6562V30.656H193.495V27.6562H185.903ZM185.691 31.658C185.415 31.658 185.191 31.8818 185.191 32.158V34.158C185.191 34.4341 185.415 34.658 185.691 34.658H193.691C193.968 34.658 194.191 34.4341 194.191 34.158V32.158C194.191 31.8818 193.968 31.658 193.691 31.658H185.691Z" fill="#B0B0B0"/>
<rect x="65.5039" y="71.8164" width="31.5" height="31.5" rx="4.75" fill="#191D1E"/>
<rect x="65.5039" y="71.8164" width="31.5" height="31.5" rx="4.75" stroke="#172021" stroke-width="0.5"/>
<path fill-rule="evenodd" clip-rule="evenodd" d="M84.987 87.4113C85.1251 87.1722 85.4309 87.0902 85.6701 87.2283L86.9554 87.9704C87.4195 88.2383 87.7054 88.7335 87.7054 89.2694V90.132C87.7054 90.6679 87.4195 91.1631 86.9554 91.4311L82.9743 93.7295C81.8914 94.3548 80.5572 94.3548 79.4743 93.7295L75.4932 91.4311C75.0291 91.1631 74.7432 90.6679 74.7432 90.132V89.3712C74.7432 88.8427 75.0213 88.3532 75.4753 88.0826L76.9031 87.2318C77.1403 87.0904 77.4472 87.1682 77.5886 87.4054C77.7299 87.6426 77.6522 87.9495 77.415 88.0908L75.9872 88.9417C75.8359 89.0318 75.7432 89.195 75.7432 89.3712V90.132C75.7432 90.3106 75.8385 90.4757 75.9932 90.565L79.9743 92.8635C80.7478 93.3101 81.7008 93.3101 82.4743 92.8635L86.4554 90.565C86.6101 90.4757 86.7054 90.3106 86.7054 90.132V89.2694C86.7054 89.0908 86.6101 88.9257 86.4554 88.8364L85.1701 88.0943C84.9309 87.9563 84.849 87.6505 84.987 87.4113Z" fill="#B0B0B0"/>
<path fill-rule="evenodd" clip-rule="evenodd" d="M79.9605 81.1434C80.7384 80.6799 81.7061 80.6732 82.4903 81.126L86.9554 83.7039C87.4195 83.9718 87.7054 84.467 87.7054 85.0029V85.8655C87.7054 86.4014 87.4195 86.8966 86.9554 87.1646L82.9743 89.463C81.8914 90.0883 80.5572 90.0883 79.4743 89.463L75.4932 87.1646C75.0291 86.8966 74.7432 86.4014 74.7432 85.8655V85.1047C74.7432 84.5762 75.0213 84.0867 75.4753 83.8161L79.9605 81.1434ZM81.9903 81.992C81.5197 81.7203 80.9391 81.7243 80.4724 82.0024L75.9872 84.6752C75.8359 84.7653 75.7432 84.9285 75.7432 85.1047V85.8655C75.7432 86.0441 75.8385 86.2092 75.9932 86.2985L79.9743 88.597C80.7478 89.0436 81.7008 89.0436 82.4743 88.597L86.4554 86.2985C86.6101 86.2092 86.7054 86.0441 86.7054 85.8655V85.0029C86.7054 84.8243 86.6101 84.6592 86.4554 84.5699L81.9903 81.992Z" fill="#B0B0B0"/>
<path fill-rule="evenodd" clip-rule="evenodd" d="M87.4829 88.5328C87.618 88.7736 87.5324 89.0784 87.2916 89.2136L82.4834 91.9128C81.7219 92.3404 80.7925 92.3395 80.0317 91.9106L75.2478 89.2131C75.0073 89.0775 74.9222 88.7726 75.0578 88.532C75.1935 88.2915 75.4984 88.2064 75.739 88.3421L80.5229 91.0395C80.9793 91.2968 81.537 91.2974 81.9939 91.0409L86.8021 88.3416C87.0429 88.2064 87.3477 88.292 87.4829 88.5328Z" fill="#B0B0B0"/>
<path fill-rule="evenodd" clip-rule="evenodd" d="M87.4829 84.2665C87.618 84.5073 87.5324 84.812 87.2916 84.9472L82.4834 87.6465C81.7219 88.074 80.7925 88.0731 80.0317 87.6442L75.2478 84.9468C75.0073 84.8111 74.9222 84.5062 75.0578 84.2657C75.1935 84.0251 75.4984 83.9401 75.739 84.0757L80.5229 86.7731C80.9793 87.0305 81.537 87.031 81.9939 86.7745L86.8021 84.0752C87.0429 83.9401 87.3477 84.0257 87.4829 84.2665Z" fill="#B0B0B0"/>
<rect x="286.793" y="108.25" width="31.5" height="31.5" rx="4.75" fill="#191D1E"/>
<rect x="286.793" y="108.25" width="31.5" height="31.5" rx="4.75" stroke="#172021" stroke-width="0.5"/>
<path fill-rule="evenodd" clip-rule="evenodd" d="M306.276 123.845C306.414 123.606 306.72 123.524 306.959 123.662L308.244 124.404C308.709 124.672 308.994 125.167 308.994 125.703V126.566C308.994 127.102 308.709 127.597 308.244 127.865L304.263 130.163C303.18 130.788 301.846 130.788 300.763 130.163L296.782 127.865C296.318 127.597 296.032 127.102 296.032 126.566V125.805C296.032 125.276 296.31 124.787 296.764 124.516L298.192 123.665C298.429 123.524 298.736 123.602 298.878 123.839C299.019 124.076 298.941 124.383 298.704 124.524L297.276 125.375C297.125 125.465 297.032 125.629 297.032 125.805V126.566C297.032 126.744 297.128 126.909 297.282 126.999L301.263 129.297C302.037 129.744 302.99 129.744 303.763 129.297L307.744 126.999C307.899 126.909 307.994 126.744 307.994 126.566V125.703C307.994 125.524 307.899 125.359 307.744 125.27L306.459 124.528C306.22 124.39 306.138 124.084 306.276 123.845Z" fill="#B0B0B0"/>
<path fill-rule="evenodd" clip-rule="evenodd" d="M301.25 117.577C302.027 117.113 302.995 117.107 303.779 117.56L308.244 120.137C308.709 120.405 308.994 120.901 308.994 121.437V122.299C308.994 122.835 308.709 123.33 308.244 123.598L304.263 125.897C303.18 126.522 301.846 126.522 300.763 125.897L296.782 123.598C296.318 123.33 296.032 122.835 296.032 122.299V121.538C296.032 121.01 296.31 120.52 296.764 120.25L301.25 117.577ZM303.279 118.426C302.809 118.154 302.228 118.158 301.761 118.436L297.276 121.109C297.125 121.199 297.032 121.362 297.032 121.538V122.299C297.032 122.478 297.128 122.643 297.282 122.732L301.263 125.031C302.037 125.477 302.99 125.477 303.763 125.031L307.744 122.732C307.899 122.643 307.994 122.478 307.994 122.299V121.437C307.994 121.258 307.899 121.093 307.744 121.003L303.279 118.426Z" fill="#B0B0B0"/>
<path fill-rule="evenodd" clip-rule="evenodd" d="M308.772 124.966C308.907 125.207 308.821 125.512 308.581 125.647L303.772 128.346C303.011 128.774 302.082 128.773 301.321 128.344L296.537 125.647C296.296 125.511 296.211 125.206 296.347 124.966C296.483 124.725 296.787 124.64 297.028 124.776L301.812 127.473C302.268 127.73 302.826 127.731 303.283 127.474L308.091 124.775C308.332 124.64 308.637 124.726 308.772 124.966Z" fill="#B0B0B0"/>
<path fill-rule="evenodd" clip-rule="evenodd" d="M308.772 120.7C308.907 120.941 308.821 121.246 308.581 121.381L303.772 124.08C303.011 124.508 302.082 124.507 301.321 124.078L296.537 121.38C296.296 121.245 296.211 120.94 296.347 120.699C296.483 120.459 296.787 120.374 297.028 120.509L301.812 123.207C302.268 123.464 302.826 123.465 303.283 123.208L308.091 120.509C308.332 120.374 308.637 120.459 308.772 120.7Z" fill="#B0B0B0"/>
<path d="M189.422 60.4883V45.1572" stroke="white" stroke-width="0.5" stroke-dasharray="0.5 1"/>
<path d="M80.9844 118.897V103.566" stroke="white" stroke-width="0.5" stroke-dasharray="0.5 1"/>
<path d="M302.273 155.331V140" stroke="white" stroke-width="0.5" stroke-dasharray="0.5 1"/>
</g>
<defs>
<linearGradient id="paint0_linear_1058_7510" x1="201.255" y1="63.6494" x2="173.418" y2="86.7122" gradientUnits="userSpaceOnUse">
<stop stop-color="white"/>
<stop offset="1" stop-color="white" stop-opacity="0"/>
</linearGradient>
<linearGradient id="paint1_linear_1058_7510" x1="169.742" y1="69.2593" x2="83.9571" y2="139.414" gradientUnits="userSpaceOnUse">
<stop stop-color="white"/>
<stop offset="1" stop-color="white" stop-opacity="0"/>
</linearGradient>
<linearGradient id="paint2_linear_1058_7510" x1="189.422" y1="58.9359" x2="178.852" y2="34.5087" gradientUnits="userSpaceOnUse">
<stop stop-color="white"/>
<stop offset="1" stop-color="white" stop-opacity="0"/>
</linearGradient>
<linearGradient id="paint3_linear_1058_7510" x1="188.754" y1="19.5474" x2="104.202" y2="24.0624" gradientUnits="userSpaceOnUse">
<stop stop-color="white"/>
<stop offset="1" stop-color="white" stop-opacity="0"/>
</linearGradient>
<linearGradient id="paint4_linear_1058_7510" x1="189.873" y1="87.0908" x2="149.41" y2="169.152" gradientUnits="userSpaceOnUse">
<stop stop-color="white"/>
<stop offset="1" stop-color="white" stop-opacity="0"/>
</linearGradient>
<linearGradient id="paint5_linear_1058_7510" x1="221.254" y1="102.435" x2="230.933" y2="174.108" gradientUnits="userSpaceOnUse">
<stop stop-color="white" stop-opacity="0.51"/>
<stop offset="1" stop-color="white" stop-opacity="0"/>
</linearGradient>
<linearGradient id="paint6_linear_1058_7510" x1="271.597" y1="150.299" x2="305.525" y2="161.981" gradientUnits="userSpaceOnUse">
<stop stop-color="white"/>
<stop offset="1" stop-color="white" stop-opacity="0"/>
</linearGradient>
<clipPath id="clip0_1058_7510">
<rect width="349" height="174" fill="white"/>
</clipPath>
</defs>
</svg>
