<svg width="765" height="208" viewBox="0 0 765 208" fill="none" xmlns="http://www.w3.org/2000/svg">
<g clip-path="url(#clip0_1058_7467)">
<rect width="764" height="208" transform="translate(0.517578)" fill="#121516"/>
<g style="mix-blend-mode:lighten">
<path opacity="0.6" d="M517.785 389.109C516.068 388.062 519.195 379.17 526.825 363.309C534.456 347.448 546.334 325.185 561.257 298.748C576.18 272.311 593.626 242.643 611.843 212.73C630.068 182.804 648.419 153.693 665.044 128.295C681.684 102.905 696.018 82.1368 706.604 68.0851C717.198 54.0191 723.672 47.1723 725.388 48.2188" stroke="#575E61" stroke-width="0.5"/>
<path opacity="0.6" d="M492.72 371.063C485.591 365.03 484.537 352.061 489.655 333.46C494.787 314.867 505.925 291.278 521.941 265.093C537.958 238.908 558.308 211.039 580.927 184.3C603.554 157.546 627.649 132.858 650.794 112.705C673.954 92.5606 695.344 77.6535 712.831 69.5071C730.318 61.3607 743.282 60.248 750.42 66.2659" stroke="#575E61" stroke-width="0.5"/>
<path opacity="0.6" d="M468.268 346.431C457.991 334.093 454.992 316.084 459.543 294.198C464.094 272.312 476.067 247.319 494.236 221.732C512.405 196.144 536.138 170.864 563.051 148.433C589.964 126.002 619.11 107.22 647.542 93.9625C675.988 80.7131 702.72 73.442 725.082 72.8969C747.437 72.366 764.617 78.5628 774.88 90.8928" stroke="#575E61" stroke-width="0.5"/>
<path opacity="0.6" d="M444.62 310.944C434.603 291.746 432.937 268.612 439.797 243.88C446.657 219.148 461.801 193.693 483.686 170.057C505.585 146.43 533.459 125.466 564.518 109.259C595.577 93.0529 628.736 82.215 660.638 77.7774C692.554 73.3476 722.094 75.5181 746.293 84.0435C770.492 92.569 788.507 107.186 798.524 126.384" stroke="#575E61" stroke-width="0.5"/>
<path opacity="0.6" d="M425.898 257.874C420.83 232.59 424.893 205.931 437.679 180.586C450.464 155.241 471.517 132.096 498.732 113.493C525.948 94.8912 558.356 81.4697 592.703 74.5795C627.05 67.6892 662.127 67.5921 694.41 74.2745C726.694 80.9569 755.038 94.1939 776.6 112.649C798.162 131.104 812.186 154.152 817.253 179.437" stroke="#575E61" stroke-width="0.5"/>
<path opacity="0.6" d="M425.236 182.91C430.28 155.19 444.311 129.621 465.922 108.766C487.519 87.9028 515.935 72.4884 548.317 64.0584C580.69 55.6427 615.878 54.5051 650.342 60.7921C684.814 67.0649 717.344 80.5342 744.659 99.8303C771.974 119.126 793.145 143.566 805.998 170.708C818.85 197.85 822.973 226.719 817.929 254.439" stroke="#575E61" stroke-width="0.5"/>
<path opacity="0.6" d="M460.117 101.369C485.542 66.3813 526.927 45.1688 575.189 42.4187C623.45 39.6687 674.616 55.604 717.436 86.7041C760.255 117.804 791.234 161.549 803.538 208.28C815.835 255.025 808.475 300.941 783.064 335.936" stroke="#575E61" stroke-width="0.5"/>
<path opacity="0.6" d="M521.846 45.7892C557.352 25.309 601.916 23.8682 645.729 41.8098C689.542 59.7513 729.015 95.5674 755.457 141.426C781.908 187.271 793.168 239.38 786.752 286.287C780.336 333.194 756.789 371.055 721.284 391.536" stroke="#575E61" stroke-width="0.5"/>
<path opacity="0.6" d="M582.355 22.9803C617.601 15.917 655.533 29.7517 687.814 61.4628C720.096 93.1739 744.065 140.124 754.471 192.021C764.878 243.918 760.841 296.498 743.276 338.186C725.712 379.874 696.039 407.273 660.793 414.336" stroke="#575E61" stroke-width="0.5"/>
<path opacity="0.6" d="M630.434 19.2902C658.851 20.5568 685.176 42.7778 703.614 81.0533C722.052 119.329 731.077 170.552 728.745 223.425C726.39 276.304 712.857 326.507 691.095 363.006C669.333 399.505 641.151 419.308 612.735 418.041" stroke="#575E61" stroke-width="0.5"/>
<path opacity="0.6" d="M667.873 24.5431C686.366 28.9474 699.215 53.6405 703.608 93.1574C708.001 132.674 703.573 183.805 691.286 235.297C679.007 286.775 659.876 334.41 638.121 367.701C616.367 400.991 593.757 417.219 575.271 412.801" stroke="#575E61" stroke-width="0.5"/>
<path opacity="0.6" d="M698.537 34.5233C706.176 37.7194 705.38 60.1772 696.346 96.9638C687.312 133.75 670.778 181.857 650.368 230.687C629.958 279.518 607.357 325.096 587.51 357.372C567.685 389.642 552.255 405.991 544.616 402.795" stroke="#575E61" stroke-width="0.5"/>
<path opacity="0.6" d="M553.243 406.187C533.763 399.087 514.846 388.582 498.521 375.8M626.019 418.189C595.28 418.884 559.288 408.89 526.153 390.49C493.017 372.089 465.53 346.814 449.848 320.361M673.58 411.352C634.491 421.904 579.897 411.368 529.972 383.645C480.047 355.922 442.244 315.149 430.538 276.39M713.111 396.002C692.505 406.638 664.541 410.106 632.93 405.945C601.32 401.784 567.517 390.204 536.037 372.724C504.557 355.243 476.85 332.684 456.616 308.037C436.375 283.404 424.536 257.833 422.671 234.719M746.611 374.222C726.474 390.404 695.52 397.609 658.769 394.666C622.018 391.723 581.635 378.805 544.188 358.011C506.741 337.216 474.429 309.765 452.503 280.125C430.577 250.485 420.33 220.401 423.421 194.753M774.342 347.089C756.224 368.651 723.752 379.833 683.16 378.493C642.56 377.166 596.666 363.411 554.279 339.873C511.892 316.336 475.954 284.649 453.367 250.887C430.779 217.125 423.105 183.65 431.822 156.886M796.058 315.552C786.299 333.126 768.656 345.893 744.901 352.613C721.131 359.325 692.101 359.735 660.699 353.785C629.298 347.836 596.649 335.757 566.012 318.744C535.375 301.731 507.863 280.402 486.213 256.892C464.563 233.382 449.55 208.515 442.697 184.798C435.829 161.073 437.362 139.341 447.113 121.781M796.058 315.552C770.364 361.822 727.329 395.996 676.436 410.547C625.544 425.099 570.97 418.833 524.686 393.131C478.416 367.437 444.242 324.401 429.682 273.524C415.131 222.632 421.397 168.057 447.099 121.773C472.793 75.5032 515.828 41.3287 566.706 26.7697C617.598 12.2186 672.173 18.4843 718.457 44.1862C764.727 69.8801 798.901 112.916 813.46 163.793C828.011 214.686 821.752 269.282 796.058 315.552ZM811.349 280.447C804.688 300.918 788.743 316.514 765.345 325.45C741.955 334.372 712.078 336.273 679.138 330.907C646.191 325.556 611.516 313.156 579.109 295.16C546.687 277.156 517.845 254.285 495.886 229.146C473.926 204.007 459.724 177.648 454.947 153.084C450.155 128.513 454.979 106.742 468.829 90.2436M819.713 242.579C816.945 265.492 803.672 283.711 781.64 294.862C759.6 306.028 729.812 309.585 696.198 305.096C662.585 300.608 626.701 288.265 593.252 269.69C559.802 251.116 530.356 227.181 508.777 201.02C487.198 174.86 474.471 147.694 472.298 123.083C470.125 98.4721 478.573 77.5736 496.552 63.1255M820.5 202.614C822.499 227.371 812.943 248.009 793.285 261.412C773.626 274.816 744.933 280.269 711.518 276.937C678.103 273.605 641.799 261.682 608.078 242.957C574.357 224.232 545.032 199.71 524.553 173.115C504.061 146.512 493.522 119.272 494.507 95.4998C495.492 71.7271 507.975 52.7137 530.032 41.3149M812.633 160.943C820.445 186.837 815.94 209.682 799.9 225.449C783.859 241.217 757.322 248.876 724.981 247.074C692.654 245.28 656.618 234.123 623.268 215.603C589.918 197.084 561.411 172.4 542.785 145.9C524.174 119.408 516.647 92.8325 521.552 70.8815C526.457 48.9305 543.476 33.0154 569.577 25.9729M793.295 116.957C808.696 142.974 811.407 167.995 800.815 186.564C790.224 205.133 767.199 215.752 736.776 216.08C706.345 216.422 670.973 206.455 638.394 188.364C605.815 170.273 578.656 145.516 562.86 119.503C547.064 93.4913 543.898 68.3474 554.061 49.5406C564.225 30.7338 586.898 19.8076 617.124 19.1277M744.628 61.5395C766.432 78.6161 782.322 98.7407 789.389 118.206C796.441 137.662 794.186 155.145 783.013 167.395C771.839 179.645 752.53 185.827 728.641 184.814C704.753 183.802 677.921 175.645 653.122 161.875C628.31 148.096 607.216 129.64 593.729 109.897C580.241 90.1541 575.281 70.4953 579.773 54.5351C584.265 38.5749 597.899 27.4108 618.157 23.1197C638.401 18.8207 663.898 21.6787 689.92 31.1602M771.507 135.304C764.816 147.353 750.043 154.279 730.462 154.558C710.868 154.828 688.068 148.424 667.067 136.763C646.052 125.093 628.564 109.124 618.45 92.3562C608.321 75.5804 606.397 59.4009 613.096 47.3373C619.787 35.288 634.56 28.3618 654.14 28.0837C673.735 27.8135 696.535 34.217 717.536 45.8787C738.536 57.5405 756.039 73.5171 766.153 90.2851C776.268 107.053 778.198 123.255 771.507 135.304ZM750.974 112.676C746.415 120.885 736.365 125.596 723.039 125.779C709.712 125.963 694.177 121.613 679.887 113.678C665.596 105.742 653.684 94.8682 646.803 83.4448C639.914 72.0357 638.6 61.0142 643.158 52.8052C647.717 44.5963 657.767 39.8852 671.093 39.7018C684.42 39.5185 699.955 43.8677 714.246 51.8035C728.536 59.7392 740.448 70.6128 747.329 82.0362C754.219 93.4453 755.532 104.467 750.974 112.676ZM727.258 92.651C722.454 101.303 706.34 101.526 691.264 93.1544C676.189 84.7826 667.86 70.9867 672.665 62.3352C677.469 53.6837 693.582 53.4601 708.658 61.8319C723.734 70.2036 732.062 83.9995 727.258 92.651Z" stroke="#575E61" stroke-width="0.5"/>
<path opacity="0.6" d="M616.209 87.9218C599.431 92.7016 576.511 102.341 558.804 112.37C556.171 107.185 550.64 94.8484 549.584 86.9834" stroke="url(#paint0_linear_1058_7467)" stroke-width="0.5"/>
<path opacity="0.6" d="M586.947 98.5664C565.955 106.748 527.276 129.773 507.771 147.1" stroke="url(#paint1_linear_1058_7467)" stroke-width="0.5"/>
</g>
<ellipse cx="615.94" cy="88.0894" rx="3.04834" ry="3.27675" transform="rotate(-90 615.94 88.0894)" fill="white"/>
<ellipse cx="507.502" cy="146.499" rx="3.04834" ry="3.27675" transform="rotate(-90 507.502 146.499)" fill="white"/>
<ellipse cx="728.791" cy="182.932" rx="3.04834" ry="3.27675" transform="rotate(-90 728.791 182.932)" fill="white"/>
<path d="M615.939 87.7544C613.269 83.0489 608.166 71.1103 609.12 61.0005C610.074 50.8907 614.08 45.5977 615.272 44.1189C597.961 41.4009 560.382 39.9227 530.72 50.7002" stroke="url(#paint2_linear_1058_7467)" stroke-width="0.5"/>
<path d="M530.72 50.7002C560.382 39.9227 597.961 41.4009 615.272 44.1189C614.252 45.3844 611.171 49.4427 609.706 56.9222" stroke="url(#paint3_linear_1058_7467)" stroke-width="0.5"/>
<path d="M563.92 205.585C569.994 196.148 590.742 172.841 600.408 162.17C591.09 154.758 580.508 142.893 576.294 137.819C591.489 125.695 616.523 110.497 627.141 104.414C624.343 101.07 618.198 93.1578 615.997 88.2627" stroke="url(#paint4_linear_1058_7467)" stroke-width="0.5"/>
<path d="M657.607 211.413C664.157 199.477 676.733 161.646 682.595 144.365C656.689 133.62 638.241 117.431 627.133 104.355" stroke="url(#paint5_linear_1058_7467)" stroke-width="0.5"/>
<path d="M728.435 185.115C704.866 183.809 681.795 175.696 673.206 171.803C675.466 165.597 680.513 151.429 682.622 144.4" stroke="url(#paint6_linear_1058_7467)" stroke-width="0.5"/>
<rect x="600.459" y="40.4072" width="31.5" height="31.5" rx="4.75" fill="#191D1E"/>
<rect x="600.459" y="40.4072" width="31.5" height="31.5" rx="4.75" stroke="#172021" stroke-width="0.5"/>
<path fill-rule="evenodd" clip-rule="evenodd" d="M610.709 51.1562C610.709 50.3278 611.381 49.6562 612.209 49.6562H620.209C621.037 49.6562 621.709 50.3278 621.709 51.1562V53.1562C621.709 53.6892 621.431 54.1573 621.012 54.4233V57.8909C621.431 58.1569 621.709 58.625 621.709 59.158V61.158C621.709 61.9864 621.037 62.658 620.209 62.658H612.209C611.381 62.658 610.709 61.9864 610.709 61.158V59.158C610.709 58.6187 610.994 58.1458 611.421 57.8815V54.4327C610.994 54.1684 610.709 53.6956 610.709 53.1562V51.1562ZM620.225 53.656H612.193C611.924 53.6477 611.709 53.4271 611.709 53.1562V51.1562C611.709 50.8801 611.933 50.6562 612.209 50.6562H620.209C620.485 50.6562 620.709 50.8801 620.709 51.1562V53.1562C620.709 53.4271 620.494 53.6477 620.225 53.656ZM612.421 54.6562V57.656H620.012V54.6562H612.421ZM612.209 58.658C611.933 58.658 611.709 58.8818 611.709 59.158V61.158C611.709 61.4341 611.933 61.658 612.209 61.658H620.209C620.485 61.658 620.709 61.4341 620.709 61.158V59.158C620.709 58.8818 620.485 58.658 620.209 58.658H612.209Z" fill="#B0B0B0"/>
<rect x="492.021" y="98.8164" width="31.5" height="31.5" rx="4.75" fill="#191D1E"/>
<rect x="492.021" y="98.8164" width="31.5" height="31.5" rx="4.75" stroke="#172021" stroke-width="0.5"/>
<path fill-rule="evenodd" clip-rule="evenodd" d="M511.505 114.411C511.643 114.172 511.948 114.09 512.188 114.228L513.473 114.97C513.937 115.238 514.223 115.734 514.223 116.269V117.132C514.223 117.668 513.937 118.163 513.473 118.431L509.492 120.73C508.409 121.355 507.075 121.355 505.992 120.73L502.011 118.431C501.547 118.163 501.261 117.668 501.261 117.132V116.371C501.261 115.843 501.539 115.353 501.993 115.083L503.421 114.232C503.658 114.09 503.965 114.168 504.106 114.405C504.248 114.643 504.17 114.949 503.933 115.091L502.505 115.942C502.353 116.032 502.261 116.195 502.261 116.371V117.132C502.261 117.311 502.356 117.476 502.511 117.565L506.492 119.864C507.265 120.31 508.218 120.31 508.992 119.864L512.973 117.565C513.128 117.476 513.223 117.311 513.223 117.132V116.269C513.223 116.091 513.128 115.926 512.973 115.836L511.688 115.094C511.448 114.956 511.367 114.65 511.505 114.411Z" fill="#B0B0B0"/>
<path fill-rule="evenodd" clip-rule="evenodd" d="M506.478 108.143C507.256 107.68 508.224 107.673 509.008 108.126L513.473 110.704C513.937 110.972 514.223 111.467 514.223 112.003V112.866C514.223 113.401 513.937 113.897 513.473 114.165L509.492 116.463C508.409 117.088 507.075 117.088 505.992 116.463L502.011 114.165C501.547 113.897 501.261 113.401 501.261 112.866V112.105C501.261 111.576 501.539 111.087 501.993 110.816L506.478 108.143ZM508.508 108.992C508.037 108.72 507.457 108.724 506.99 109.002L502.505 111.675C502.353 111.765 502.261 111.929 502.261 112.105V112.866C502.261 113.044 502.356 113.209 502.511 113.299L506.492 115.597C507.265 116.044 508.218 116.044 508.992 115.597L512.973 113.299C513.128 113.209 513.223 113.044 513.223 112.866V112.003C513.223 111.824 513.128 111.659 512.973 111.57L508.508 108.992Z" fill="#B0B0B0"/>
<path fill-rule="evenodd" clip-rule="evenodd" d="M514 115.533C514.136 115.774 514.05 116.078 513.809 116.214L509.001 118.913C508.239 119.34 507.31 119.339 506.549 118.911L501.765 116.213C501.525 116.077 501.44 115.773 501.575 115.532C501.711 115.291 502.016 115.206 502.257 115.342L507.04 118.039C507.497 118.297 508.055 118.297 508.511 118.041L513.32 115.342C513.56 115.206 513.865 115.292 514 115.533Z" fill="#B0B0B0"/>
<path fill-rule="evenodd" clip-rule="evenodd" d="M514 111.266C514.136 111.507 514.05 111.812 513.809 111.947L509.001 114.646C508.239 115.074 507.31 115.073 506.549 114.644L501.765 111.947C501.525 111.811 501.44 111.506 501.575 111.266C501.711 111.025 502.016 110.94 502.257 111.076L507.04 113.773C507.497 114.03 508.055 114.031 508.511 113.774L513.32 111.075C513.56 110.94 513.865 111.026 514 111.266Z" fill="#B0B0B0"/>
<rect x="713.311" y="135.25" width="31.5" height="31.5" rx="4.75" fill="#191D1E"/>
<rect x="713.311" y="135.25" width="31.5" height="31.5" rx="4.75" stroke="#172021" stroke-width="0.5"/>
<path fill-rule="evenodd" clip-rule="evenodd" d="M732.794 150.845C732.932 150.606 733.238 150.524 733.477 150.662L734.762 151.404C735.226 151.672 735.512 152.167 735.512 152.703V153.566C735.512 154.102 735.226 154.597 734.762 154.865L730.781 157.163C729.698 157.788 728.364 157.788 727.281 157.163L723.3 154.865C722.836 154.597 722.55 154.102 722.55 153.566V152.805C722.55 152.276 722.828 151.787 723.282 151.516L724.71 150.665C724.947 150.524 725.254 150.602 725.395 150.839C725.537 151.076 725.459 151.383 725.222 151.524L723.794 152.375C723.643 152.465 723.55 152.629 723.55 152.805V153.566C723.55 153.744 723.645 153.909 723.8 153.999L727.781 156.297C728.554 156.744 729.507 156.744 730.281 156.297L734.262 153.999C734.417 153.909 734.512 153.744 734.512 153.566V152.703C734.512 152.524 734.417 152.359 734.262 152.27L732.977 151.528C732.738 151.39 732.656 151.084 732.794 150.845Z" fill="#B0B0B0"/>
<path fill-rule="evenodd" clip-rule="evenodd" d="M727.767 144.577C728.545 144.113 729.513 144.107 730.297 144.56L734.762 147.137C735.226 147.405 735.512 147.901 735.512 148.437V149.299C735.512 149.835 735.226 150.33 734.762 150.598L730.781 152.897C729.698 153.522 728.364 153.522 727.281 152.897L723.3 150.598C722.836 150.33 722.55 149.835 722.55 149.299V148.538C722.55 148.01 722.828 147.52 723.282 147.25L727.767 144.577ZM729.797 145.426C729.326 145.154 728.746 145.158 728.279 145.436L723.794 148.109C723.643 148.199 723.55 148.362 723.55 148.538V149.299C723.55 149.478 723.645 149.643 723.8 149.732L727.781 152.031C728.554 152.477 729.507 152.477 730.281 152.031L734.262 149.732C734.417 149.643 734.512 149.478 734.512 149.299V148.437C734.512 148.258 734.417 148.093 734.262 148.003L729.797 145.426Z" fill="#B0B0B0"/>
<path fill-rule="evenodd" clip-rule="evenodd" d="M735.29 151.966C735.425 152.207 735.339 152.512 735.098 152.647L730.29 155.346C729.529 155.774 728.599 155.773 727.838 155.344L723.054 152.647C722.814 152.511 722.729 152.206 722.864 151.966C723 151.725 723.305 151.64 723.546 151.776L728.33 154.473C728.786 154.73 729.344 154.731 729.801 154.474L734.609 151.775C734.85 151.64 735.154 151.726 735.29 151.966Z" fill="#B0B0B0"/>
<path fill-rule="evenodd" clip-rule="evenodd" d="M735.29 147.7C735.425 147.941 735.339 148.246 735.098 148.381L730.29 151.08C729.529 151.508 728.599 151.507 727.838 151.078L723.054 148.38C722.814 148.245 722.729 147.94 722.864 147.699C723 147.459 723.305 147.374 723.546 147.509L728.33 150.207C728.786 150.464 729.344 150.465 729.801 150.208L734.609 147.509C734.85 147.374 735.154 147.459 735.29 147.7Z" fill="#B0B0B0"/>
<path d="M615.939 87.4883V72.1572" stroke="white" stroke-width="0.5" stroke-dasharray="0.5 1"/>
<path d="M507.502 145.897V130.566" stroke="white" stroke-width="0.5" stroke-dasharray="0.5 1"/>
<path d="M728.791 182.331V167" stroke="white" stroke-width="0.5" stroke-dasharray="0.5 1"/>
</g>
<defs>
<linearGradient id="paint0_linear_1058_7467" x1="627.773" y1="90.6494" x2="599.935" y2="113.712" gradientUnits="userSpaceOnUse">
<stop stop-color="white"/>
<stop offset="1" stop-color="white" stop-opacity="0"/>
</linearGradient>
<linearGradient id="paint1_linear_1058_7467" x1="596.26" y1="96.2593" x2="510.475" y2="166.414" gradientUnits="userSpaceOnUse">
<stop stop-color="white"/>
<stop offset="1" stop-color="white" stop-opacity="0"/>
</linearGradient>
<linearGradient id="paint2_linear_1058_7467" x1="615.939" y1="85.9359" x2="605.369" y2="61.5087" gradientUnits="userSpaceOnUse">
<stop stop-color="white"/>
<stop offset="1" stop-color="white" stop-opacity="0"/>
</linearGradient>
<linearGradient id="paint3_linear_1058_7467" x1="615.271" y1="46.5474" x2="530.72" y2="51.0624" gradientUnits="userSpaceOnUse">
<stop stop-color="white"/>
<stop offset="1" stop-color="white" stop-opacity="0"/>
</linearGradient>
<linearGradient id="paint4_linear_1058_7467" x1="616.391" y1="114.091" x2="575.928" y2="196.152" gradientUnits="userSpaceOnUse">
<stop stop-color="white"/>
<stop offset="1" stop-color="white" stop-opacity="0"/>
</linearGradient>
<linearGradient id="paint5_linear_1058_7467" x1="647.772" y1="129.435" x2="657.45" y2="201.108" gradientUnits="userSpaceOnUse">
<stop stop-color="white" stop-opacity="0.51"/>
<stop offset="1" stop-color="white" stop-opacity="0"/>
</linearGradient>
<linearGradient id="paint6_linear_1058_7467" x1="698.115" y1="177.299" x2="732.042" y2="188.981" gradientUnits="userSpaceOnUse">
<stop stop-color="white"/>
<stop offset="1" stop-color="white" stop-opacity="0"/>
</linearGradient>
<clipPath id="clip0_1058_7467">
<rect width="764" height="208" fill="white" transform="translate(0.517578)"/>
</clipPath>
</defs>
</svg>
