<svg width="1360" height="96" viewBox="0 0 1360 96" fill="none" xmlns="http://www.w3.org/2000/svg">
<g clip-path="url(#clip0_1709_1279)">
<path fill-rule="evenodd" clip-rule="evenodd" d="M27.0027 21.0027L30.7733 24.7733L44.2293 38.2293L48 42L51.7707 38.2293L65.2267 24.7733L68.9973 21.0027L65.2267 17.2267L51.7707 3.77067L48 0L44.2293 3.77067L30.7733 17.2267L27.0027 21.0027ZM61.456 21.0027L48 34.4533L34.544 20.9973L48 7.54133L61.456 21.0027ZM27.0027 74.9973L30.7733 78.7733L44.2293 92.2293L48 96L51.7707 92.2293L65.2267 78.7733L68.9973 75.0027L65.2267 71.2267L51.7707 57.7707L48 54L44.2293 57.7707L30.7733 71.2267L27.0027 74.9973ZM61.456 74.9973L48 88.464L34.544 75.008L48 61.536L61.456 74.9973ZM3.77067 51.7707L0 48L3.77067 44.2293L17.2267 30.7733L21.0027 27.0027L24.7733 30.7733L38.2293 44.2293L42 48L38.2293 51.7707L24.7733 65.2267L21.0027 68.9973L17.2267 65.2267L3.77067 51.7707ZM20.9973 61.456L34.464 48L20.9973 34.544L7.54133 48L20.9973 61.456ZM54 48L57.7707 51.7707L71.2267 65.2267L74.9973 68.9973L78.7733 65.2267L92.2293 51.7707L96 48L92.2293 44.2293L78.7733 30.7733L75.0027 27.0027L71.2267 30.7733L57.7707 44.2293L54 48ZM88.4533 48L74.9973 61.456L61.5467 48L75.008 34.544L88.4533 48Z" fill="#16B674"/>
</g>
<g clip-path="url(#clip1_1709_1279)">
<path fill-rule="evenodd" clip-rule="evenodd" d="M254 48L206 0L158 48L206 96L254 48ZM165.541 48L206 7.54133L246.459 48L206 88.4587L165.541 48Z" fill="#16B674"/>
</g>
<g clip-path="url(#clip2_1709_1279)">
<path fill-rule="evenodd" clip-rule="evenodd" d="M412 48L364 0L316 48L364 96L412 48Z" fill="#16B674"/>
</g>
<g clip-path="url(#clip3_1709_1279)">
<path fill-rule="evenodd" clip-rule="evenodd" d="M501.003 21.0027L504.773 24.7733L518.229 38.2293L522 42L525.771 38.2293L539.227 24.7733L542.997 21.0027L539.227 17.2267L525.771 3.77067L522 0L518.229 3.77067L504.773 17.2267L501.003 21.0027ZM501.003 74.9973L504.773 78.7733L518.229 92.2293L522 96L525.771 92.2293L539.227 78.7733L542.997 75.0027L539.227 71.2267L525.771 57.7707L522 54L518.229 57.7707L504.773 71.2267L501.003 74.9973ZM477.771 51.7707L474 48L477.771 44.2293L491.227 30.7733L495.003 27.0027L498.773 30.7733L512.229 44.2293L516 48L512.229 51.7707L498.773 65.2267L495.003 68.9973L491.227 65.2267L477.771 51.7707ZM528 48L531.771 51.7707L545.227 65.2267L548.997 68.9973L552.773 65.2267L566.229 51.7707L570 48L566.229 44.2293L552.773 30.7733L549.003 27.0027L545.227 30.7733L531.771 44.2293L528 48Z" fill="#16B674"/>
</g>
<g clip-path="url(#clip4_1709_1279)">
<path fill-rule="evenodd" clip-rule="evenodd" d="M728 48L680 0L632 48L680 96L728 48ZM639.541 48L680 7.54133L720.459 48L680 88.4587L639.541 48Z" fill="#16B674"/>
</g>
<g clip-path="url(#clip5_1709_1279)">
<path fill-rule="evenodd" clip-rule="evenodd" d="M886 48L838 0L790 48L838 96L886 48Z" fill="#16B674"/>
</g>
<path fill-rule="evenodd" clip-rule="evenodd" d="M1017 21L996 0L975 21L996 42L1017 21ZM978.299 21L996 3.29933L1013.7 21L996 38.7007L978.299 21Z" fill="white"/>
<path d="M978.299 21L996 3.29933L1013.7 21L996 38.7007L978.299 21Z" fill="#3FCF8E"/>
<path fill-rule="evenodd" clip-rule="evenodd" d="M1017 75L996 54L975 75L996 96L1017 75ZM978.299 75L996 57.2993L1013.7 75L996 92.7007L978.299 75Z" fill="white"/>
<path d="M978.299 75L996 57.2993L1013.7 75L996 92.7007L978.299 75Z" fill="#3FCF8E"/>
<path fill-rule="evenodd" clip-rule="evenodd" d="M990 48L969 27L948 48L969 69L990 48ZM951.299 48L969 30.2993L986.701 48L969 65.7007L951.299 48Z" fill="white"/>
<path d="M951.299 48L969 30.2993L986.701 48L969 65.7007L951.299 48Z" fill="#3FCF8E"/>
<path fill-rule="evenodd" clip-rule="evenodd" d="M1044 48L1023 27L1002 48L1023 69L1044 48ZM1005.3 48L1023 30.2993L1040.7 48L1023 65.7007L1005.3 48Z" fill="white"/>
<path d="M1005.3 48L1023 30.2993L1040.7 48L1023 65.7007L1005.3 48Z" fill="#3FCF8E"/>
<g clip-path="url(#clip6_1709_1279)">
<path fill-rule="evenodd" clip-rule="evenodd" d="M1202 48L1154 0L1106 48L1154 96L1202 48ZM1113.54 48L1154 7.54133L1194.46 48L1154 88.4587L1113.54 48Z" fill="#16B674"/>
</g>
<g clip-path="url(#clip7_1709_1279)">
<path fill-rule="evenodd" clip-rule="evenodd" d="M1360 48L1312 0L1264 48L1312 96L1360 48ZM1271.54 48L1312 7.54133L1352.46 48L1312 88.4587L1271.54 48Z" fill="#16B674"/>
<path d="M1271.54 48L1312 7.54133L1352.46 48L1312 88.4587L1271.54 48Z" fill="#3FCF8E"/>
</g>
<defs>
<clipPath id="clip0_1709_1279">
<rect width="96" height="96" fill="white"/>
</clipPath>
<clipPath id="clip1_1709_1279">
<rect width="96" height="96" fill="white" transform="translate(158)"/>
</clipPath>
<clipPath id="clip2_1709_1279">
<rect width="96" height="96" fill="white" transform="translate(316)"/>
</clipPath>
<clipPath id="clip3_1709_1279">
<rect width="96" height="96" fill="white" transform="translate(474)"/>
</clipPath>
<clipPath id="clip4_1709_1279">
<rect width="96" height="96" fill="white" transform="translate(632)"/>
</clipPath>
<clipPath id="clip5_1709_1279">
<rect width="96" height="96" fill="white" transform="translate(790)"/>
</clipPath>
<clipPath id="clip6_1709_1279">
<rect width="96" height="96" fill="white" transform="translate(1106)"/>
</clipPath>
<clipPath id="clip7_1709_1279">
<rect width="96" height="96" fill="white" transform="translate(1264)"/>
</clipPath>
</defs>
</svg>
