<svg width="626" height="587" viewBox="0 0 626 587" fill="none" xmlns="http://www.w3.org/2000/svg">
<g clip-path="url(#clip0_1709_1537)">
<path fill-rule="evenodd" clip-rule="evenodd" d="M55.0027 51.0027L58.7733 54.7733L72.2293 68.2293L76 72L79.7707 68.2293L93.2267 54.7733L96.9973 51.0027L93.2267 47.2267L79.7707 33.7707L76 30L72.2293 33.7707L58.7733 47.2267L55.0027 51.0027ZM89.456 51.0027L76 64.4533L62.544 50.9973L76 37.5413L89.456 51.0027ZM55.0027 104.997L58.7733 108.773L72.2293 122.229L76 126L79.7707 122.229L93.2267 108.773L96.9973 105.003L93.2267 101.227L79.7707 87.7707L76 84L72.2293 87.7707L58.7733 101.227L55.0027 104.997ZM89.456 104.997L76 118.464L62.544 105.008L76 91.536L89.456 104.997ZM31.7707 81.7707L28 78L31.7707 74.2293L45.2267 60.7733L49.0027 57.0027L52.7733 60.7733L66.2293 74.2293L70 78L66.2293 81.7707L52.7733 95.2267L49.0027 98.9973L45.2267 95.2267L31.7707 81.7707ZM48.9973 91.456L62.464 78L48.9973 64.544L35.5413 78L48.9973 91.456ZM82 78L85.7707 81.7707L99.2267 95.2267L102.997 98.9973L106.773 95.2267L120.229 81.7707L124 78L120.229 74.2293L106.773 60.7733L103.003 57.0027L99.2267 60.7733L85.7707 74.2293L82 78ZM116.453 78L102.997 91.456L89.5467 78L103.008 64.544L116.453 78Z" fill="#525252"/>
</g>
<g clip-path="url(#clip1_1709_1537)">
<path fill-rule="evenodd" clip-rule="evenodd" d="M282 78L234 30L186 78L234 126L282 78Z" fill="#525252"/>
</g>
<g clip-path="url(#clip2_1709_1537)">
<path fill-rule="evenodd" clip-rule="evenodd" d="M440 78L392 30L344 78L392 126L440 78ZM351.541 78L392 37.5413L432.459 78L392 118.459L351.541 78Z" fill="#525252"/>
</g>
<g clip-path="url(#clip3_1709_1537)">
<path fill-rule="evenodd" clip-rule="evenodd" d="M529.003 51.0027L532.773 54.7733L546.229 68.2293L550 72L553.771 68.2293L567.227 54.7733L570.997 51.0027L567.227 47.2267L553.771 33.7707L550 30L546.229 33.7707L532.773 47.2267L529.003 51.0027ZM529.003 104.997L532.773 108.773L546.229 122.229L550 126L553.771 122.229L567.227 108.773L570.997 105.003L567.227 101.227L553.771 87.7707L550 84L546.229 87.7707L532.773 101.227L529.003 104.997ZM505.771 81.7707L502 78L505.771 74.2293L519.227 60.7733L523.003 57.0027L526.773 60.7733L540.229 74.2293L544 78L540.229 81.7707L526.773 95.2267L523.003 98.9973L519.227 95.2267L505.771 81.7707ZM556 78L559.771 81.7707L573.227 95.2267L576.997 98.9973L580.773 95.2267L594.229 81.7707L598 78L594.229 74.2293L580.773 60.7733L577.003 57.0027L573.227 60.7733L559.771 74.2293L556 78Z" fill="#525252"/>
</g>
<g clip-path="url(#clip4_1709_1537)">
<path fill-rule="evenodd" clip-rule="evenodd" d="M124 225L76 177L28 225L76 273L124 225Z" fill="#525252"/>
</g>
<g clip-path="url(#clip5_1709_1537)">
<path fill-rule="evenodd" clip-rule="evenodd" d="M282 225L234 177L186 225L234 273L282 225ZM193.541 225L234 184.541L274.459 225L234 265.459L193.541 225Z" fill="#525252"/>
</g>
<g clip-path="url(#clip6_1709_1537)">
<path fill-rule="evenodd" clip-rule="evenodd" d="M371.003 198.003L374.773 201.773L388.229 215.229L392 219L395.771 215.229L409.227 201.773L412.997 198.003L409.227 194.227L395.771 180.771L392 177L388.229 180.771L374.773 194.227L371.003 198.003ZM405.456 198.003L392 211.453L378.544 197.997L392 184.541L405.456 198.003ZM371.003 251.997L374.773 255.773L388.229 269.229L392 273L395.771 269.229L409.227 255.773L412.997 252.003L409.227 248.227L395.771 234.771L392 231L388.229 234.771L374.773 248.227L371.003 251.997ZM405.456 251.997L392 265.464L378.544 252.008L392 238.536L405.456 251.997ZM347.771 228.771L344 225L347.771 221.229L361.227 207.773L365.003 204.003L368.773 207.773L382.229 221.229L386 225L382.229 228.771L368.773 242.227L365.003 245.997L361.227 242.227L347.771 228.771ZM364.997 238.456L378.464 225L364.997 211.544L351.541 225L364.997 238.456ZM398 225L401.771 228.771L415.227 242.227L418.997 245.997L422.773 242.227L436.229 228.771L440 225L436.229 221.229L422.773 207.773L419.003 204.003L415.227 207.773L401.771 221.229L398 225ZM432.453 225L418.997 238.456L405.547 225L419.008 211.544L432.453 225Z" fill="#525252"/>
</g>
<g clip-path="url(#clip7_1709_1537)">
<path fill-rule="evenodd" clip-rule="evenodd" d="M529.003 198.003L532.773 201.773L546.229 215.229L550 219L553.771 215.229L567.227 201.773L570.997 198.003L567.227 194.227L553.771 180.771L550 177L546.229 180.771L532.773 194.227L529.003 198.003ZM529.003 251.997L532.773 255.773L546.229 269.229L550 273L553.771 269.229L567.227 255.773L570.997 252.003L567.227 248.227L553.771 234.771L550 231L546.229 234.771L532.773 248.227L529.003 251.997ZM505.771 228.771L502 225L505.771 221.229L519.227 207.773L523.003 204.003L526.773 207.773L540.229 221.229L544 225L540.229 228.771L526.773 242.227L523.003 245.997L519.227 242.227L505.771 228.771ZM556 225L559.771 228.771L573.227 242.227L576.997 245.997L580.773 242.227L594.229 228.771L598 225L594.229 221.229L580.773 207.773L577.003 204.003L573.227 207.773L559.771 221.229L556 225Z" fill="#525252"/>
</g>
<g clip-path="url(#clip8_1709_1537)">
<path fill-rule="evenodd" clip-rule="evenodd" d="M124 372L76 324L28 372L76 420L124 372ZM35.5413 372L76 331.541L116.459 372L76 412.459L35.5413 372Z" fill="#525252"/>
</g>
<g clip-path="url(#clip9_1709_1537)">
<path fill-rule="evenodd" clip-rule="evenodd" d="M213.003 345.003L216.773 348.773L230.229 362.229L234 366L237.771 362.229L251.227 348.773L254.997 345.003L251.227 341.227L237.771 327.771L234 324L230.229 327.771L216.773 341.227L213.003 345.003ZM213.003 398.997L216.773 402.773L230.229 416.229L234 420L237.771 416.229L251.227 402.773L254.997 399.003L251.227 395.227L237.771 381.771L234 378L230.229 381.771L216.773 395.227L213.003 398.997ZM189.771 375.771L186 372L189.771 368.229L203.227 354.773L207.003 351.003L210.773 354.773L224.229 368.229L228 372L224.229 375.771L210.773 389.227L207.003 392.997L203.227 389.227L189.771 375.771ZM240 372L243.771 375.771L257.227 389.227L260.997 392.997L264.773 389.227L278.229 375.771L282 372L278.229 368.229L264.773 354.773L261.003 351.003L257.227 354.773L243.771 368.229L240 372Z" fill="#525252"/>
</g>
<g clip-path="url(#clip10_1709_1537)">
<path fill-rule="evenodd" clip-rule="evenodd" d="M440 372L392 324L344 372L392 420L440 372Z" fill="#525252"/>
</g>
<g clip-path="url(#clip11_1709_1537)">
<path fill-rule="evenodd" clip-rule="evenodd" d="M529.003 345.003L532.773 348.773L546.229 362.229L550 366L553.771 362.229L567.227 348.773L570.997 345.003L567.227 341.227L553.771 327.771L550 324L546.229 327.771L532.773 341.227L529.003 345.003ZM563.456 345.003L550 358.453L536.544 344.997L550 331.541L563.456 345.003ZM529.003 398.997L532.773 402.773L546.229 416.229L550 420L553.771 416.229L567.227 402.773L570.997 399.003L567.227 395.227L553.771 381.771L550 378L546.229 381.771L532.773 395.227L529.003 398.997ZM563.456 398.997L550 412.464L536.544 399.008L550 385.536L563.456 398.997ZM505.771 375.771L502 372L505.771 368.229L519.227 354.773L523.003 351.003L526.773 354.773L540.229 368.229L544 372L540.229 375.771L526.773 389.227L523.003 392.997L519.227 389.227L505.771 375.771ZM522.997 385.456L536.464 372L522.997 358.544L509.541 372L522.997 385.456ZM556 372L559.771 375.771L573.227 389.227L576.997 392.997L580.773 389.227L594.229 375.771L598 372L594.229 368.229L580.773 354.773L577.003 351.003L573.227 354.773L559.771 368.229L556 372ZM590.453 372L576.997 385.456L563.547 372L577.008 358.544L590.453 372Z" fill="#525252"/>
</g>
<g clip-path="url(#clip12_1709_1537)">
<path fill-rule="evenodd" clip-rule="evenodd" d="M124 509L76 461L28 509L76 557L124 509ZM35.5413 509L76 468.541L116.459 509L76 549.459L35.5413 509Z" fill="#525252"/>
</g>
<g clip-path="url(#clip13_1709_1537)">
<path fill-rule="evenodd" clip-rule="evenodd" d="M213.003 482.003L216.773 485.773L230.229 499.229L234 503L237.771 499.229L251.227 485.773L254.997 482.003L251.227 478.227L237.771 464.771L234 461L230.229 464.771L216.773 478.227L213.003 482.003ZM247.456 482.003L234 495.453L220.544 481.997L234 468.541L247.456 482.003ZM213.003 535.997L216.773 539.773L230.229 553.229L234 557L237.771 553.229L251.227 539.773L254.997 536.003L251.227 532.227L237.771 518.771L234 515L230.229 518.771L216.773 532.227L213.003 535.997ZM247.456 535.997L234 549.464L220.544 536.008L234 522.536L247.456 535.997ZM189.771 512.771L186 509L189.771 505.229L203.227 491.773L207.003 488.003L210.773 491.773L224.229 505.229L228 509L224.229 512.771L210.773 526.227L207.003 529.997L203.227 526.227L189.771 512.771ZM206.997 522.456L220.464 509L206.997 495.544L193.541 509L206.997 522.456ZM240 509L243.771 512.771L257.227 526.227L260.997 529.997L264.773 526.227L278.229 512.771L282 509L278.229 505.229L264.773 491.773L261.003 488.003L257.227 491.773L243.771 505.229L240 509ZM274.453 509L260.997 522.456L247.547 509L261.008 495.544L274.453 509Z" fill="#525252"/>
</g>
<g clip-path="url(#clip14_1709_1537)">
<path fill-rule="evenodd" clip-rule="evenodd" d="M440 509L392 461L344 509L392 557L440 509Z" fill="#525252"/>
</g>
<g clip-path="url(#clip15_1709_1537)">
<path fill-rule="evenodd" clip-rule="evenodd" d="M529.003 482.003L532.773 485.773L546.229 499.229L550 503L553.771 499.229L567.227 485.773L570.997 482.003L567.227 478.227L553.771 464.771L550 461L546.229 464.771L532.773 478.227L529.003 482.003ZM529.003 535.997L532.773 539.773L546.229 553.229L550 557L553.771 553.229L567.227 539.773L570.997 536.003L567.227 532.227L553.771 518.771L550 515L546.229 518.771L532.773 532.227L529.003 535.997ZM505.771 512.771L502 509L505.771 505.229L519.227 491.773L523.003 488.003L526.773 491.773L540.229 505.229L544 509L540.229 512.771L526.773 526.227L523.003 529.997L519.227 526.227L505.771 512.771ZM556 509L559.771 512.771L573.227 526.227L576.997 529.997L580.773 526.227L594.229 512.771L598 509L594.229 505.229L580.773 491.773L577.003 488.003L573.227 491.773L559.771 505.229L556 509Z" fill="#525252"/>
</g>
<rect x="4.98267" y="4" width="616.035" height="579" stroke="#B2B2B2" stroke-width="8"/>
<rect x="160.991" y="302" width="304.017" height="140" stroke="#B2B2B2" stroke-width="8"/>
<rect x="317" y="4" width="304.017" height="297" stroke="#B2B2B2" stroke-width="8"/>
<rect x="4.98267" y="153" width="156.017" height="289" stroke="#B2B2B2" stroke-width="8"/>
<defs>
<clipPath id="clip0_1709_1537">
<rect width="96" height="96" fill="white" transform="translate(28 30)"/>
</clipPath>
<clipPath id="clip1_1709_1537">
<rect width="96" height="96" fill="white" transform="translate(186 30)"/>
</clipPath>
<clipPath id="clip2_1709_1537">
<rect width="96" height="96" fill="white" transform="translate(344 30)"/>
</clipPath>
<clipPath id="clip3_1709_1537">
<rect width="96" height="96" fill="white" transform="translate(502 30)"/>
</clipPath>
<clipPath id="clip4_1709_1537">
<rect width="96" height="96" fill="white" transform="translate(28 177)"/>
</clipPath>
<clipPath id="clip5_1709_1537">
<rect width="96" height="96" fill="white" transform="translate(186 177)"/>
</clipPath>
<clipPath id="clip6_1709_1537">
<rect width="96" height="96" fill="white" transform="translate(344 177)"/>
</clipPath>
<clipPath id="clip7_1709_1537">
<rect width="96" height="96" fill="white" transform="translate(502 177)"/>
</clipPath>
<clipPath id="clip8_1709_1537">
<rect width="96" height="96" fill="white" transform="translate(28 324)"/>
</clipPath>
<clipPath id="clip9_1709_1537">
<rect width="96" height="96" fill="white" transform="translate(186 324)"/>
</clipPath>
<clipPath id="clip10_1709_1537">
<rect width="96" height="96" fill="white" transform="translate(344 324)"/>
</clipPath>
<clipPath id="clip11_1709_1537">
<rect width="96" height="96" fill="white" transform="translate(502 324)"/>
</clipPath>
<clipPath id="clip12_1709_1537">
<rect width="96" height="96" fill="white" transform="translate(28 461)"/>
</clipPath>
<clipPath id="clip13_1709_1537">
<rect width="96" height="96" fill="white" transform="translate(186 461)"/>
</clipPath>
<clipPath id="clip14_1709_1537">
<rect width="96" height="96" fill="white" transform="translate(344 461)"/>
</clipPath>
<clipPath id="clip15_1709_1537">
<rect width="96" height="96" fill="white" transform="translate(502 461)"/>
</clipPath>
</defs>
</svg>
