<svg width="1400" height="2101" viewBox="0 0 1400 2101" fill="none" xmlns="http://www.w3.org/2000/svg">
<rect x="99.9009" y="115" width="48" height="48" rx="6" fill="#EDEDED"/>
<path d="M170.222 146.252C172.91 146.252 174.842 144.74 174.842 140.771V132.14H173.141V140.792C173.141 143.69 171.881 144.719 170.222 144.719C168.563 144.719 167.324 143.69 167.324 140.792V132.14H165.56V140.771C165.56 144.74 167.513 146.252 170.222 146.252ZM183.948 146.252C186.972 146.252 188.82 144.509 188.82 142.304C188.82 140.246 187.455 139.343 185.775 138.608L183.843 137.768C182.667 137.264 181.386 136.781 181.386 135.458C181.386 134.198 182.457 133.421 184.116 133.421C185.481 133.421 186.531 133.925 187.434 134.723L188.358 133.589C187.35 132.581 185.838 131.888 184.116 131.888C181.491 131.888 179.601 133.442 179.601 135.563C179.601 137.579 181.197 138.587 182.583 139.133L184.557 139.994C185.964 140.603 187.035 141.023 187.035 142.451C187.035 143.816 185.922 144.719 183.969 144.719C182.457 144.719 181.029 144.026 180 142.976L178.95 144.194C180.189 145.454 181.932 146.252 183.948 146.252ZM193.599 146H202.314V144.509H195.363V139.469H201.054V137.978H195.363V133.61H202.104V132.14H193.599V146ZM206.926 146H208.669V140.141H211.126L214.444 146H216.439L212.932 139.952C214.801 139.469 216.019 138.188 216.019 136.025C216.019 133.148 214.003 132.14 211.21 132.14H206.926V146ZM208.669 138.713V133.547H210.958C213.1 133.547 214.276 134.198 214.276 136.025C214.276 137.831 213.1 138.713 210.958 138.713H208.669ZM232.782 146H234.567L235.89 141.758H240.888L242.19 146H244.038L239.397 132.14H237.423L232.782 146ZM236.331 140.351L236.982 138.23C237.465 136.676 237.906 135.185 238.347 133.568H238.431C238.872 135.185 239.313 136.676 239.796 138.23L240.447 140.351H236.331ZM253.186 146.252C254.95 146.252 256.294 145.517 257.386 144.257L256.378 143.186C255.496 144.173 254.551 144.719 253.291 144.719C250.645 144.719 248.944 142.514 248.944 139.028C248.944 135.584 250.645 133.421 253.291 133.421C254.446 133.421 255.349 133.925 256.063 134.681L257.05 133.568C256.252 132.686 254.95 131.888 253.291 131.888C249.7 131.888 247.138 134.618 247.138 139.07C247.138 143.585 249.721 146.252 253.186 146.252ZM264.811 146H266.575V133.61H271.111V132.14H260.275V133.61H264.811V146ZM275.03 146H283.64V144.509H280.217V133.61H283.64V132.14H275.03V133.61H278.453V144.509H275.03V146ZM292.977 146.252C296.085 146.252 298.269 143.459 298.269 139.007C298.269 134.597 296.085 131.888 292.977 131.888C289.869 131.888 287.685 134.576 287.685 139.007C287.685 143.459 289.869 146.252 292.977 146.252ZM292.977 144.719C290.877 144.719 289.491 142.472 289.491 139.007C289.491 135.563 290.877 133.421 292.977 133.421C295.077 133.421 296.463 135.563 296.463 139.007C296.463 142.472 295.077 144.719 292.977 144.719ZM302.062 146H303.721V138.734C303.721 137.306 303.553 135.815 303.49 134.408H303.532L304.918 137.243L309.391 146H311.176V132.14H309.517V139.343C309.517 140.792 309.685 142.367 309.748 143.732H309.706L308.32 140.897L303.847 132.14H302.062V146Z" fill="#EDEDED"/>
<rect x="377.901" y="115" width="48" height="48" rx="6" fill="#D16BCD"/>
<path d="M442.573 146H444.358L445.681 141.758H450.679L451.981 146H453.829L449.188 132.14H447.214L442.573 146ZM446.122 140.351L446.773 138.23C447.256 136.676 447.697 135.185 448.138 133.568H448.222C448.663 135.185 449.104 136.676 449.587 138.23L450.238 140.351H446.122ZM457.685 146H459.428V140.498H461.906C464.93 140.498 466.988 139.133 466.988 136.214C466.988 133.169 464.951 132.14 461.906 132.14H457.685V146ZM459.428 139.07V133.547H461.675C464.069 133.547 465.245 134.198 465.245 136.214C465.245 138.188 464.09 139.07 461.675 139.07H459.428ZM471.326 146H473.069V140.498H475.547C478.571 140.498 480.629 139.133 480.629 136.214C480.629 133.169 478.592 132.14 475.547 132.14H471.326V146ZM473.069 139.07V133.547H475.316C477.71 133.547 478.886 134.198 478.886 136.214C478.886 138.188 477.731 139.07 475.316 139.07H473.069ZM485.64 146H494.187V144.509H487.362V132.14H485.64V146ZM498.463 146H507.073V144.509H503.65V133.61H507.073V132.14H498.463V133.61H501.886V144.509H498.463V146ZM517.544 146.252C519.308 146.252 520.652 145.517 521.744 144.257L520.736 143.186C519.854 144.173 518.909 144.719 517.649 144.719C515.003 144.719 513.302 142.514 513.302 139.028C513.302 135.584 515.003 133.421 517.649 133.421C518.804 133.421 519.707 133.925 520.421 134.681L521.408 133.568C520.61 132.686 519.308 131.888 517.649 131.888C514.058 131.888 511.496 134.618 511.496 139.07C511.496 143.585 514.079 146.252 517.544 146.252ZM524.424 146H526.209L527.532 141.758H532.53L533.832 146H535.68L531.039 132.14H529.065L524.424 146ZM527.973 140.351L528.624 138.23C529.107 136.676 529.548 135.185 529.989 133.568H530.073C530.514 135.185 530.955 136.676 531.438 138.23L532.089 140.351H527.973ZM542.811 146H544.575V133.61H549.111V132.14H538.275V133.61H542.811V146ZM553.03 146H561.64V144.509H558.217V133.61H561.64V132.14H553.03V133.61H556.453V144.509H553.03V146ZM570.977 146.252C574.085 146.252 576.269 143.459 576.269 139.007C576.269 134.597 574.085 131.888 570.977 131.888C567.869 131.888 565.685 134.576 565.685 139.007C565.685 143.459 567.869 146.252 570.977 146.252ZM570.977 144.719C568.877 144.719 567.491 142.472 567.491 139.007C567.491 135.563 568.877 133.421 570.977 133.421C573.077 133.421 574.463 135.563 574.463 139.007C574.463 142.472 573.077 144.719 570.977 144.719ZM580.062 146H581.721V138.734C581.721 137.306 581.553 135.815 581.49 134.408H581.532L582.918 137.243L587.391 146H589.176V132.14H587.517V139.343C587.517 140.792 587.685 142.367 587.748 143.732H587.706L586.32 140.897L581.847 132.14H580.062V146ZM606.274 146H608.059L609.382 141.758H614.38L615.682 146H617.53L612.889 132.14H610.915L606.274 146ZM609.823 140.351L610.474 138.23C610.957 136.676 611.398 135.185 611.839 133.568H611.923C612.364 135.185 612.805 136.676 613.288 138.23L613.939 140.351H609.823ZM626.678 146.252C628.442 146.252 629.786 145.517 630.878 144.257L629.87 143.186C628.988 144.173 628.043 144.719 626.783 144.719C624.137 144.719 622.436 142.514 622.436 139.028C622.436 135.584 624.137 133.421 626.783 133.421C627.938 133.421 628.841 133.925 629.555 134.681L630.542 133.568C629.744 132.686 628.442 131.888 626.783 131.888C623.192 131.888 620.63 134.618 620.63 139.07C620.63 143.585 623.213 146.252 626.678 146.252ZM638.304 146H640.068V133.61H644.604V132.14H633.768V133.61H638.304V146ZM648.523 146H657.133V144.509H653.71V133.61H657.133V132.14H648.523V133.61H651.946V144.509H648.523V146ZM666.47 146.252C669.578 146.252 671.762 143.459 671.762 139.007C671.762 134.597 669.578 131.888 666.47 131.888C663.362 131.888 661.178 134.576 661.178 139.007C661.178 143.459 663.362 146.252 666.47 146.252ZM666.47 144.719C664.37 144.719 662.984 142.472 662.984 139.007C662.984 135.563 664.37 133.421 666.47 133.421C668.57 133.421 669.956 135.563 669.956 139.007C669.956 142.472 668.57 144.719 666.47 144.719ZM675.554 146H677.213V138.734C677.213 137.306 677.045 135.815 676.982 134.408H677.024L678.41 137.243L682.883 146H684.668V132.14H683.009V139.343C683.009 140.792 683.177 142.367 683.24 143.732H683.198L681.812 140.897L677.339 132.14H675.554V146Z" fill="#EDEDED"/>
<rect x="750.901" y="115" width="48" height="48" rx="6" fill="#3ECF8E"/>
<path d="M821.306 146.252C824.33 146.252 826.178 144.509 826.178 142.304C826.178 140.246 824.813 139.343 823.133 138.608L821.201 137.768C820.025 137.264 818.744 136.781 818.744 135.458C818.744 134.198 819.815 133.421 821.474 133.421C822.839 133.421 823.889 133.925 824.792 134.723L825.716 133.589C824.708 132.581 823.196 131.888 821.474 131.888C818.849 131.888 816.959 133.442 816.959 135.563C816.959 137.579 818.555 138.587 819.941 139.133L821.915 139.994C823.322 140.603 824.393 141.023 824.393 142.451C824.393 143.816 823.28 144.719 821.327 144.719C819.815 144.719 818.387 144.026 817.358 142.976L816.308 144.194C817.547 145.454 819.29 146.252 821.306 146.252ZM834.864 146.252C837.552 146.252 839.484 144.74 839.484 140.771V132.14H837.783V140.792C837.783 143.69 836.523 144.719 834.864 144.719C833.205 144.719 831.966 143.69 831.966 140.792V132.14H830.202V140.771C830.202 144.74 832.155 146.252 834.864 146.252ZM844.326 146H846.069V140.498H848.547C851.571 140.498 853.629 139.133 853.629 136.214C853.629 133.169 851.592 132.14 848.547 132.14H844.326V146ZM846.069 139.07V133.547H848.316C850.71 133.547 851.886 134.198 851.886 136.214C851.886 138.188 850.731 139.07 848.316 139.07H846.069ZM856.498 146H858.283L859.606 141.758H864.604L865.906 146H867.754L863.113 132.14H861.139L856.498 146ZM860.047 140.351L860.698 138.23C861.181 136.676 861.622 135.185 862.063 133.568H862.147C862.588 135.185 863.029 136.676 863.512 138.23L864.163 140.351H860.047ZM871.631 146H875.726C878.792 146 880.913 144.677 880.913 141.947C880.913 140.036 879.737 138.944 877.721 138.629V138.545C879.338 138.125 880.136 136.886 880.136 135.521C880.136 133.085 878.225 132.14 875.411 132.14H871.631V146ZM873.395 138.062V133.526H875.201C877.322 133.526 878.414 134.156 878.414 135.668C878.414 137.201 877.469 138.062 875.117 138.062H873.395ZM873.395 144.614V139.364H875.474C877.889 139.364 879.191 140.141 879.191 141.863C879.191 143.753 877.826 144.614 875.474 144.614H873.395ZM883.782 146H885.567L886.89 141.758H891.888L893.19 146H895.038L890.397 132.14H888.423L883.782 146ZM887.331 140.351L887.982 138.23C888.465 136.676 888.906 135.185 889.347 133.568H889.431C889.872 135.185 890.313 136.676 890.796 138.23L891.447 140.351H887.331ZM903.157 146.252C906.181 146.252 908.029 144.509 908.029 142.304C908.029 140.246 906.664 139.343 904.984 138.608L903.052 137.768C901.876 137.264 900.595 136.781 900.595 135.458C900.595 134.198 901.666 133.421 903.325 133.421C904.69 133.421 905.74 133.925 906.643 134.723L907.567 133.589C906.559 132.581 905.047 131.888 903.325 131.888C900.7 131.888 898.81 133.442 898.81 135.563C898.81 137.579 900.406 138.587 901.792 139.133L903.766 139.994C905.173 140.603 906.244 141.023 906.244 142.451C906.244 143.816 905.131 144.719 903.178 144.719C901.666 144.719 900.238 144.026 899.209 142.976L898.159 144.194C899.398 145.454 901.141 146.252 903.157 146.252ZM912.808 146H921.523V144.509H914.572V139.469H920.263V137.978H914.572V133.61H921.313V132.14H912.808V146ZM938.349 146H940.134L941.457 141.758H946.455L947.757 146H949.605L944.964 132.14H942.99L938.349 146ZM941.898 140.351L942.549 138.23C943.032 136.676 943.473 135.185 943.914 133.568H943.998C944.439 135.185 944.88 136.676 945.363 138.23L946.014 140.351H941.898ZM958.753 146.252C960.517 146.252 961.861 145.517 962.953 144.257L961.945 143.186C961.063 144.173 960.118 144.719 958.858 144.719C956.212 144.719 954.511 142.514 954.511 139.028C954.511 135.584 956.212 133.421 958.858 133.421C960.013 133.421 960.916 133.925 961.63 134.681L962.617 133.568C961.819 132.686 960.517 131.888 958.858 131.888C955.267 131.888 952.705 134.618 952.705 139.07C952.705 143.585 955.288 146.252 958.753 146.252ZM970.379 146H972.143V133.61H976.679V132.14H965.843V133.61H970.379V146ZM980.597 146H989.207V144.509H985.784V133.61H989.207V132.14H980.597V133.61H984.02V144.509H980.597V146ZM998.544 146.252C1001.65 146.252 1003.84 143.459 1003.84 139.007C1003.84 134.597 1001.65 131.888 998.544 131.888C995.436 131.888 993.252 134.576 993.252 139.007C993.252 143.459 995.436 146.252 998.544 146.252ZM998.544 144.719C996.444 144.719 995.058 142.472 995.058 139.007C995.058 135.563 996.444 133.421 998.544 133.421C1000.64 133.421 1002.03 135.563 1002.03 139.007C1002.03 142.472 1000.64 144.719 998.544 144.719ZM1007.63 146H1009.29V138.734C1009.29 137.306 1009.12 135.815 1009.06 134.408H1009.1L1010.49 137.243L1014.96 146H1016.74V132.14H1015.08V139.343C1015.08 140.792 1015.25 142.367 1015.32 143.732H1015.27L1013.89 140.897L1009.41 132.14H1007.63V146Z" fill="#EDEDED"/>
<path d="M107.149 288.535C110.581 288.535 112.597 286.543 112.597 282.199V272.407H109.909V282.391C109.909 285.007 108.829 286.135 107.149 286.135C105.445 286.135 104.389 285.007 104.389 282.391V272.407H101.629V282.199C101.629 286.543 103.693 288.535 107.149 288.535ZM123.94 288.535C127.612 288.535 129.748 286.399 129.748 283.831C129.748 281.527 128.332 280.375 126.34 279.559L124.276 278.671C122.86 278.095 121.588 277.663 121.588 276.415C121.588 275.215 122.596 274.519 124.228 274.519C125.692 274.519 126.772 275.023 127.828 275.887L129.268 274.135C127.972 272.863 126.172 272.119 124.228 272.119C121.036 272.119 118.78 274.039 118.78 276.559C118.78 278.863 120.484 280.111 122.164 280.759L124.3 281.695C125.86 282.319 126.916 282.727 126.916 284.047C126.916 285.319 125.932 286.135 123.988 286.135C122.452 286.135 120.892 285.391 119.716 284.311L118.108 286.207C119.644 287.695 121.732 288.535 123.94 288.535ZM136.002 288.247H146.25V285.895H138.762V281.167H144.906V278.839H138.762V274.735H146.01V272.407H136.002V288.247ZM152.313 288.247H155.073V282.031H157.401L160.809 288.247H163.929L160.161 281.599C162.057 280.951 163.305 279.487 163.305 277.087C163.305 273.559 160.785 272.407 157.545 272.407H152.313V288.247ZM155.073 279.799V274.615H157.257C159.417 274.615 160.569 275.239 160.569 277.087C160.569 278.887 159.417 279.799 157.257 279.799H155.073ZM184.358 288.247H187.166L188.414 283.927H193.622L194.846 288.247H197.774L192.686 272.407H189.446L184.358 288.247ZM189.014 281.743L189.566 279.775C190.046 278.095 190.526 276.319 190.958 274.567H191.054C191.51 276.319 191.99 278.095 192.47 279.775L193.022 281.743H189.014ZM208.805 288.535C210.821 288.535 212.573 287.671 213.605 286.663V279.679H208.397V281.959H211.109V285.415C210.629 285.871 209.813 286.135 208.973 286.135C206.189 286.135 204.677 283.903 204.677 280.279C204.677 276.703 206.429 274.519 208.925 274.519C210.293 274.519 211.133 275.047 211.853 275.815L213.389 274.087C212.429 273.103 211.013 272.119 208.925 272.119C204.845 272.119 201.821 275.167 201.821 280.375C201.821 285.607 204.821 288.535 208.805 288.535ZM219.955 288.247H230.203V285.895H222.715V281.167H228.859V278.839H222.715V274.735H229.963V272.407H219.955V288.247ZM236.026 288.247H238.666V281.239C238.666 279.487 238.402 277.591 238.282 275.911H238.354L239.818 279.247L244.018 288.247H246.85V272.407H244.21V279.367C244.21 281.119 244.474 283.111 244.594 284.743H244.522L243.058 281.383L238.834 272.407H236.026V288.247ZM256.825 288.247H259.609V274.735H264.553V272.407H251.905V274.735H256.825V288.247Z" fill="#EDEDED"/>
<path d="M491.383 288.247H494.191L495.439 283.927H500.647L501.871 288.247H504.799L499.711 272.407H496.471L491.383 288.247ZM496.039 281.743L496.591 279.775C497.071 278.095 497.551 276.319 497.983 274.567H498.079C498.535 276.319 499.015 278.095 499.495 279.775L500.047 281.743H496.039ZM509.782 288.247H512.542V282.391H515.062C518.446 282.391 521.014 280.783 521.014 277.279C521.014 273.607 518.494 272.407 515.062 272.407H509.782V288.247ZM512.542 280.183V274.615H514.822C517.126 274.615 518.278 275.287 518.278 277.279C518.278 279.223 517.174 280.183 514.822 280.183H512.542ZM526.572 288.247H529.332V282.391H531.852C535.236 282.391 537.804 280.783 537.804 277.279C537.804 273.607 535.284 272.407 531.852 272.407H526.572V288.247ZM529.332 280.183V274.615H531.612C533.916 274.615 535.068 275.287 535.068 277.279C535.068 279.223 533.964 280.183 531.612 280.183H529.332ZM544.155 288.247H554.283V285.895H546.891V272.407H544.155V288.247ZM560.082 288.247H570.426V285.895H566.634V274.735H570.426V272.407H560.082V274.735H563.85V285.895H560.082V288.247ZM583.448 288.535C585.44 288.535 587.048 287.719 588.32 286.231L586.76 284.551C585.872 285.535 584.888 286.135 583.616 286.135C580.928 286.135 579.128 283.903 579.128 280.279C579.128 276.703 580.928 274.519 583.544 274.519C584.768 274.519 585.68 275.023 586.472 275.815L588.008 274.087C587.024 273.055 585.488 272.119 583.544 272.119C579.392 272.119 576.296 275.191 576.296 280.375C576.296 285.607 579.44 288.535 583.448 288.535ZM592.127 288.247H594.935L596.183 283.927H601.391L602.615 288.247H605.543L600.455 272.407H597.215L592.127 288.247ZM596.783 281.743L597.335 279.775C597.815 278.095 598.295 276.319 598.727 274.567H598.823C599.279 276.319 599.759 278.095 600.239 279.775L600.791 281.743H596.783ZM614.222 288.247H617.006V274.735H621.95V272.407H609.302V274.735H614.222V288.247ZM627.244 288.247H637.588V285.895H633.796V274.735H637.588V272.407H627.244V274.735H631.012V285.895H627.244V288.247ZM649.195 288.535C652.843 288.535 655.363 285.367 655.363 280.255C655.363 275.143 652.843 272.119 649.195 272.119C645.571 272.119 643.027 275.119 643.027 280.255C643.027 285.367 645.571 288.535 649.195 288.535ZM649.195 286.135C647.179 286.135 645.883 283.831 645.883 280.255C645.883 276.679 647.179 274.519 649.195 274.519C651.211 274.519 652.531 276.679 652.531 280.255C652.531 283.831 651.211 286.135 649.195 286.135ZM660.585 288.247H663.225V281.239C663.225 279.487 662.961 277.591 662.841 275.911H662.913L664.377 279.247L668.577 288.247H671.409V272.407H668.769V279.367C668.769 281.119 669.033 283.111 669.153 284.743H669.081L667.617 281.383L663.393 272.407H660.585V288.247Z" fill="#EDEDED"/>
<path d="M1174.18 288.535C1177.86 288.535 1179.99 286.399 1179.99 283.831C1179.99 281.527 1178.58 280.375 1176.58 279.559L1174.52 278.671C1173.1 278.095 1171.83 277.663 1171.83 276.415C1171.83 275.215 1172.84 274.519 1174.47 274.519C1175.94 274.519 1177.02 275.023 1178.07 275.887L1179.51 274.135C1178.22 272.863 1176.42 272.119 1174.47 272.119C1171.28 272.119 1169.02 274.039 1169.02 276.559C1169.02 278.863 1170.73 280.111 1172.41 280.759L1174.54 281.695C1176.1 282.319 1177.16 282.727 1177.16 284.047C1177.16 285.319 1176.18 286.135 1174.23 286.135C1172.7 286.135 1171.14 285.391 1169.96 284.311L1168.35 286.207C1169.89 287.695 1171.98 288.535 1174.18 288.535ZM1190.98 288.535C1194.41 288.535 1196.42 286.543 1196.42 282.199V272.407H1193.74V282.391C1193.74 285.007 1192.66 286.135 1190.98 286.135C1189.27 286.135 1188.22 285.007 1188.22 282.391V272.407H1185.46V282.199C1185.46 286.543 1187.52 288.535 1190.98 288.535ZM1202.63 288.247H1205.39V282.391H1207.91C1211.29 282.391 1213.86 280.783 1213.86 277.279C1213.86 273.607 1211.34 272.407 1207.91 272.407H1202.63V288.247ZM1205.39 280.183V274.615H1207.67C1209.97 274.615 1211.13 275.287 1211.13 277.279C1211.13 279.223 1210.02 280.183 1207.67 280.183H1205.39ZM1217.81 288.247H1220.62L1221.87 283.927H1227.08L1228.3 288.247H1231.23L1226.14 272.407H1222.9L1217.81 288.247ZM1222.47 281.743L1223.02 279.775C1223.5 278.095 1223.98 276.319 1224.41 274.567H1224.51C1224.96 276.319 1225.44 278.095 1225.92 279.775L1226.48 281.743H1222.47ZM1236.35 288.247H1241.37C1244.8 288.247 1247.32 286.759 1247.32 283.591C1247.32 281.431 1246.07 280.231 1243.79 279.847V279.751C1245.64 279.247 1246.53 277.783 1246.53 276.295C1246.53 273.391 1244.18 272.407 1240.96 272.407H1236.35V288.247ZM1239.11 278.983V274.567H1240.77C1242.81 274.567 1243.82 275.167 1243.82 276.631C1243.82 278.119 1242.91 278.983 1240.7 278.983H1239.11ZM1239.11 286.087V280.975H1241.08C1243.43 280.975 1244.61 281.719 1244.61 283.423C1244.61 285.223 1243.39 286.087 1241.08 286.087H1239.11ZM1251.39 288.247H1254.2L1255.45 283.927H1260.66L1261.88 288.247H1264.81L1259.72 272.407H1256.48L1251.39 288.247ZM1256.05 281.743L1256.6 279.775C1257.08 278.095 1257.56 276.319 1257.99 274.567H1258.09C1258.55 276.319 1259.03 278.095 1259.51 279.775L1260.06 281.743H1256.05ZM1274.93 288.535C1278.6 288.535 1280.74 286.399 1280.74 283.831C1280.74 281.527 1279.32 280.375 1277.33 279.559L1275.26 278.671C1273.85 278.095 1272.58 277.663 1272.58 276.415C1272.58 275.215 1273.58 274.519 1275.22 274.519C1276.68 274.519 1277.76 275.023 1278.82 275.887L1280.26 274.135C1278.96 272.863 1277.16 272.119 1275.22 272.119C1272.02 272.119 1269.77 274.039 1269.77 276.559C1269.77 278.863 1271.47 280.111 1273.15 280.759L1275.29 281.695C1276.85 282.319 1277.9 282.727 1277.9 284.047C1277.9 285.319 1276.92 286.135 1274.98 286.135C1273.44 286.135 1271.88 285.391 1270.7 284.311L1269.1 286.207C1270.63 287.695 1272.72 288.535 1274.93 288.535ZM1286.99 288.247H1297.24V285.895H1289.75V281.167H1295.89V278.839H1289.75V274.735H1297V272.407H1286.99V288.247Z" fill="#EDEDED"/>
<path d="M104.587 457.559C103.759 457.559 103.087 458.231 103.087 459.059C103.087 459.888 103.759 460.559 104.587 460.559V457.559ZM569.895 460.12C570.481 459.534 570.481 458.584 569.895 457.999L560.349 448.453C559.763 447.867 558.814 447.867 558.228 448.453C557.642 449.038 557.642 449.988 558.228 450.574L566.713 459.059L558.228 467.544C557.642 468.13 557.642 469.08 558.228 469.666C558.814 470.252 559.763 470.252 560.349 469.666L569.895 460.12ZM104.587 460.559H568.834V457.559H104.587V460.559Z" fill="#EDEDED"/>
<path d="M146.812 384.782C149.884 384.782 152.092 383.054 152.092 378.518V368.654H150.148V378.542C150.148 381.854 148.708 383.03 146.812 383.03C144.916 383.03 143.5 381.854 143.5 378.542V368.654H141.484V378.518C141.484 383.054 143.716 384.782 146.812 384.782ZM162.499 384.782C165.955 384.782 168.067 382.79 168.067 380.27C168.067 377.918 166.507 376.886 164.587 376.046L162.379 375.086C161.035 374.51 159.571 373.958 159.571 372.446C159.571 371.006 160.795 370.118 162.691 370.118C164.251 370.118 165.451 370.694 166.483 371.606L167.539 370.31C166.387 369.158 164.659 368.366 162.691 368.366C159.691 368.366 157.531 370.142 157.531 372.566C157.531 374.87 159.355 376.022 160.939 376.646L163.195 377.63C164.803 378.326 166.027 378.806 166.027 380.438C166.027 381.998 164.755 383.03 162.523 383.03C160.795 383.03 159.163 382.238 157.987 381.038L156.787 382.43C158.203 383.87 160.195 384.782 162.499 384.782ZM173.529 384.494H183.489V382.79H175.545V377.03H182.049V375.326H175.545V370.334H183.249V368.654H173.529V384.494ZM188.76 384.494H190.752V377.798H193.56L197.352 384.494H199.632L195.624 377.582C197.76 377.03 199.152 375.566 199.152 373.094C199.152 369.806 196.848 368.654 193.656 368.654H188.76V384.494ZM190.752 376.166V370.262H193.368C195.816 370.262 197.16 371.006 197.16 373.094C197.16 375.158 195.816 376.166 193.368 376.166H190.752ZM219.821 384.494H229.661V382.79H225.749V370.334H229.661V368.654H219.821V370.334H223.733V382.79H219.821V384.494ZM235.124 384.494H237.02V376.19C237.02 374.558 236.828 372.854 236.756 371.246H236.804L238.388 374.486L243.5 384.494H245.54V368.654H243.644V376.886C243.644 378.542 243.836 380.342 243.908 381.902H243.86L242.276 378.662L237.164 368.654H235.124V384.494ZM251.002 384.494H260.842V382.79H256.93V370.334H260.842V368.654H251.002V370.334H254.914V382.79H251.002V384.494ZM270.505 384.494H272.521V370.334H277.705V368.654H265.321V370.334H270.505V384.494ZM282.184 384.494H292.024V382.79H288.112V370.334H292.024V368.654H282.184V370.334H286.096V382.79H282.184V384.494ZM296.262 384.494H298.302L299.814 379.646H305.526L307.014 384.494H309.126L303.822 368.654H301.566L296.262 384.494ZM300.318 378.038L301.062 375.614C301.614 373.838 302.118 372.134 302.622 370.286H302.718C303.222 372.134 303.726 373.838 304.278 375.614L305.022 378.038H300.318ZM317.277 384.494H319.293V370.334H324.477V368.654H312.093V370.334H317.277V384.494ZM329.435 384.494H339.395V382.79H331.451V377.03H337.955V375.326H331.451V370.334H339.155V368.654H329.435V384.494ZM349.586 384.782C353.042 384.782 355.154 382.79 355.154 380.27C355.154 377.918 353.594 376.886 351.674 376.046L349.466 375.086C348.122 374.51 346.658 373.958 346.658 372.446C346.658 371.006 347.882 370.118 349.778 370.118C351.338 370.118 352.538 370.694 353.57 371.606L354.626 370.31C353.474 369.158 351.746 368.366 349.778 368.366C346.778 368.366 344.618 370.142 344.618 372.566C344.618 374.87 346.442 376.022 348.026 376.646L350.282 377.63C351.89 378.326 353.114 378.806 353.114 380.438C353.114 381.998 351.842 383.03 349.61 383.03C347.882 383.03 346.25 382.238 345.074 381.038L343.874 382.43C345.29 383.87 347.282 384.782 349.586 384.782ZM140.356 420.494H142.396L143.908 415.646H149.62L151.108 420.494H153.22L147.916 404.654H145.66L140.356 420.494ZM144.412 414.038L145.156 411.614C145.708 409.838 146.212 408.134 146.716 406.286H146.812C147.316 408.134 147.82 409.838 148.372 411.614L149.116 414.038H144.412ZM162.403 420.782C165.475 420.782 167.683 419.054 167.683 414.518V404.654H165.739V414.542C165.739 417.854 164.299 419.03 162.403 419.03C160.507 419.03 159.091 417.854 159.091 414.542V404.654H157.075V414.518C157.075 419.054 159.307 420.782 162.403 420.782ZM176.961 420.494H178.977V406.334H184.161V404.654H171.777V406.334H176.961V420.494ZM188.256 420.494H190.272V413.03H196.848V420.494H198.864V404.654H196.848V411.302H190.272V404.654H188.256V420.494ZM204.71 420.494H214.67V418.79H206.726V413.03H213.23V411.326H206.726V406.334H214.43V404.654H204.71V420.494ZM219.533 420.494H221.429V412.19C221.429 410.558 221.237 408.854 221.165 407.246H221.213L222.797 410.486L227.909 420.494H229.949V404.654H228.053V412.886C228.053 414.542 228.245 416.342 228.317 417.902H228.269L226.685 414.662L221.573 404.654H219.533V420.494ZM239.324 420.494H241.34V406.334H246.524V404.654H234.14V406.334H239.324V420.494ZM251.002 420.494H260.842V418.79H256.93V406.334H260.842V404.654H251.002V406.334H254.914V418.79H251.002V420.494ZM272.809 420.782C274.825 420.782 276.361 419.942 277.609 418.502L276.457 417.278C275.449 418.406 274.369 419.03 272.929 419.03C269.905 419.03 267.961 416.51 267.961 412.526C267.961 408.59 269.905 406.118 272.929 406.118C274.249 406.118 275.281 406.694 276.097 407.558L277.225 406.286C276.313 405.278 274.825 404.366 272.929 404.366C268.825 404.366 265.897 407.486 265.897 412.574C265.897 417.734 268.849 420.782 272.809 420.782ZM280.672 420.494H282.712L284.224 415.646H289.936L291.424 420.494H293.536L288.232 404.654H285.976L280.672 420.494ZM284.728 414.038L285.472 411.614C286.024 409.838 286.528 408.134 287.032 406.286H287.128C287.632 408.134 288.136 409.838 288.688 411.614L289.432 414.038H284.728ZM301.686 420.494H303.702V406.334H308.886V404.654H296.502V406.334H301.686V420.494ZM313.365 420.494H323.205V418.79H319.293V406.334H323.205V404.654H313.365V406.334H317.277V418.79H313.365V420.494ZM333.875 420.782C337.427 420.782 339.923 417.59 339.923 412.502C339.923 407.462 337.427 404.366 333.875 404.366C330.323 404.366 327.827 407.438 327.827 412.502C327.827 417.59 330.323 420.782 333.875 420.782ZM333.875 419.03C331.475 419.03 329.891 416.462 329.891 412.502C329.891 408.566 331.475 406.118 333.875 406.118C336.275 406.118 337.859 408.566 337.859 412.502C337.859 416.462 336.275 419.03 333.875 419.03ZM344.258 420.494H346.154V412.19C346.154 410.558 345.962 408.854 345.89 407.246H345.938L347.522 410.486L352.634 420.494H354.674V404.654H352.778V412.886C352.778 414.542 352.97 416.342 353.042 417.902H352.994L351.41 414.662L346.298 404.654H344.258V420.494Z" fill="#EDEDED"/>
<path d="M632.408 867.039C635.864 867.039 637.976 865.047 637.976 862.527C637.976 860.175 636.416 859.143 634.496 858.303L632.288 857.343C630.944 856.767 629.48 856.215 629.48 854.703C629.48 853.263 630.704 852.375 632.6 852.375C634.16 852.375 635.36 852.951 636.392 853.863L637.448 852.567C636.296 851.415 634.568 850.623 632.6 850.623C629.6 850.623 627.44 852.399 627.44 854.823C627.44 857.127 629.264 858.279 630.848 858.903L633.104 859.887C634.712 860.583 635.936 861.063 635.936 862.695C635.936 864.255 634.664 865.287 632.432 865.287C630.704 865.287 629.072 864.495 627.896 863.295L626.696 864.687C628.112 866.127 630.104 867.039 632.408 867.039ZM643.439 866.751H653.399V865.047H645.455V859.287H651.959V857.583H645.455V852.591H653.159V850.911H643.439V866.751ZM658.262 866.751H660.158V858.447C660.158 856.815 659.966 855.111 659.894 853.503H659.942L661.526 856.743L666.638 866.751H668.678V850.911H666.782V859.143C666.782 860.799 666.974 862.599 667.046 864.159H666.998L665.414 860.919L660.302 850.911H658.262V866.751ZM673.9 866.751H677.836C682.492 866.751 685.036 863.799 685.036 858.759C685.036 853.743 682.492 850.911 677.74 850.911H673.9V866.751ZM675.892 865.119V852.543H677.62C681.196 852.543 682.972 854.775 682.972 858.759C682.972 862.767 681.196 865.119 677.62 865.119H675.892ZM704.938 866.751H706.954V859.287H713.53V866.751H715.546V850.911H713.53V857.559H706.954V850.911H704.938V866.751ZM719.4 866.751H721.44L722.952 861.903H728.664L730.152 866.751H732.264L726.96 850.911H724.704L719.4 866.751ZM723.456 860.295L724.2 857.871C724.752 856.095 725.256 854.391 725.76 852.543H725.856C726.36 854.391 726.864 856.095 727.416 857.871L728.16 860.295H723.456ZM741.543 867.039C744.999 867.039 747.111 865.047 747.111 862.527C747.111 860.175 745.551 859.143 743.631 858.303L741.423 857.343C740.079 856.767 738.615 856.215 738.615 854.703C738.615 853.263 739.839 852.375 741.735 852.375C743.295 852.375 744.495 852.951 745.527 853.863L746.583 852.567C745.431 851.415 743.703 850.623 741.735 850.623C738.735 850.623 736.575 852.399 736.575 854.823C736.575 857.127 738.399 858.279 739.983 858.903L742.239 859.887C743.847 860.583 745.071 861.063 745.071 862.695C745.071 864.255 743.799 865.287 741.567 865.287C739.839 865.287 738.207 864.495 737.031 863.295L735.831 864.687C737.247 866.127 739.239 867.039 741.543 867.039ZM751.709 866.751H753.725V859.287H760.301V866.751H762.317V850.911H760.301V857.559H753.725V850.911H751.709V866.751ZM791.387 870.975L792.467 869.967C789.251 867.255 787.763 864.111 787.763 860.079C787.763 856.047 789.251 852.903 792.467 850.191L791.387 849.183C788.051 851.775 785.987 855.447 785.987 860.079C785.987 864.711 788.051 868.383 791.387 870.975ZM805.081 867.039C807.097 867.039 808.633 866.199 809.881 864.759L808.729 863.535C807.721 864.663 806.641 865.287 805.201 865.287C802.177 865.287 800.233 862.767 800.233 858.783C800.233 854.847 802.177 852.375 805.201 852.375C806.521 852.375 807.553 852.951 808.369 853.815L809.497 852.543C808.585 851.535 807.097 850.623 805.201 850.623C801.097 850.623 798.169 853.743 798.169 858.831C798.169 863.991 801.121 867.039 805.081 867.039ZM819.376 867.039C822.928 867.039 825.424 863.847 825.424 858.759C825.424 853.719 822.928 850.623 819.376 850.623C815.824 850.623 813.328 853.695 813.328 858.759C813.328 863.847 815.824 867.039 819.376 867.039ZM819.376 865.287C816.976 865.287 815.392 862.719 815.392 858.759C815.392 854.823 816.976 852.375 819.376 852.375C821.776 852.375 823.36 854.823 823.36 858.759C823.36 862.719 821.776 865.287 819.376 865.287ZM829.807 866.751H833.743C838.399 866.751 840.943 863.799 840.943 858.759C840.943 853.743 838.399 850.911 833.647 850.911H829.807V866.751ZM831.799 865.119V852.543H833.527C837.103 852.543 838.879 854.775 838.879 858.759C838.879 862.767 837.103 865.119 833.527 865.119H831.799ZM846.117 866.751H856.077V865.047H848.133V859.287H854.637V857.583H848.133V852.591H855.837V850.911H846.117V866.751ZM880.586 866.751H882.914L887.906 850.911H885.866L883.346 859.479C882.794 861.351 882.41 862.839 881.834 864.711H881.738C881.162 862.839 880.778 861.351 880.226 859.479L877.682 850.911H875.57L880.586 866.751ZM892.889 866.751H902.849V865.047H894.905V859.287H901.409V857.583H894.905V852.591H902.609V850.911H892.889V866.751ZM908.12 866.751H910.112V860.055H912.92L916.712 866.751H918.992L914.984 859.839C917.12 859.287 918.512 857.823 918.512 855.351C918.512 852.063 916.208 850.911 913.016 850.911H908.12V866.751ZM910.112 858.423V852.519H912.728C915.176 852.519 916.52 853.263 916.52 855.351C916.52 857.415 915.176 858.423 912.728 858.423H910.112ZM923.59 866.751H933.43V865.047H929.518V852.591H933.43V850.911H923.59V852.591H927.502V865.047H923.59V866.751ZM940.141 866.751H942.133V859.647H948.589V857.967H942.133V852.591H949.765V850.911H940.141V866.751ZM954.772 866.751H964.612V865.047H960.7V852.591H964.612V850.911H954.772V852.591H958.684V865.047H954.772V866.751ZM970.842 866.751H980.802V865.047H972.858V859.287H979.362V857.583H972.858V852.591H980.562V850.911H970.842V866.751ZM986.073 866.751H988.065V860.055H990.873L994.665 866.751H996.945L992.937 859.839C995.073 859.287 996.465 857.823 996.465 855.351C996.465 852.063 994.161 850.911 990.969 850.911H986.073V866.751ZM988.065 858.423V852.519H990.681C993.129 852.519 994.473 853.263 994.473 855.351C994.473 857.415 993.129 858.423 990.681 858.423H988.065ZM1003.27 870.975C1006.61 868.383 1008.67 864.711 1008.67 860.079C1008.67 855.447 1006.61 851.775 1003.27 849.183L1002.19 850.191C1005.41 852.903 1006.9 856.047 1006.9 860.079C1006.9 864.111 1005.41 867.255 1002.19 869.967L1003.27 870.975Z" fill="#EDEDED"/>
<path d="M583.092 896.026C582.263 896.024 581.59 896.694 581.588 897.523C581.587 898.351 582.257 899.024 583.085 899.026L583.092 896.026ZM1283.96 900.164C1284.55 899.58 1284.55 898.63 1283.96 898.043L1274.44 888.476C1273.86 887.888 1272.91 887.886 1272.32 888.471C1271.73 889.055 1271.73 890.005 1272.31 890.592L1280.78 899.096L1272.28 907.563C1271.69 908.147 1271.69 909.097 1272.27 909.684C1272.85 910.271 1273.8 910.273 1274.39 909.689L1283.96 900.164ZM583.085 899.026L1282.9 900.601L1282.9 897.601L583.092 896.026L583.085 899.026Z" fill="#D16BCD"/>
<path d="M583.092 1284.5C582.263 1284.5 581.59 1285.17 581.588 1286C581.587 1286.83 582.257 1287.5 583.085 1287.5L583.092 1284.5ZM1283.96 1288.64C1284.55 1288.05 1284.55 1287.1 1283.96 1286.52L1274.44 1276.95C1273.86 1276.36 1272.91 1276.36 1272.32 1276.94C1271.73 1277.53 1271.73 1278.48 1272.31 1279.07L1280.78 1287.57L1272.28 1296.04C1271.69 1296.62 1271.69 1297.57 1272.27 1298.16C1272.85 1298.75 1273.8 1298.75 1274.39 1298.16L1283.96 1288.64ZM583.085 1287.5L1282.9 1289.08L1282.9 1286.08L583.092 1284.5L583.085 1287.5Z" fill="#D16BCD"/>
<path d="M632.408 1212.04C635.864 1212.04 637.976 1210.05 637.976 1207.53C637.976 1205.18 636.416 1204.14 634.496 1203.3L632.288 1202.34C630.944 1201.77 629.48 1201.22 629.48 1199.7C629.48 1198.26 630.704 1197.38 632.6 1197.38C634.16 1197.38 635.36 1197.95 636.392 1198.86L637.448 1197.57C636.296 1196.42 634.568 1195.62 632.6 1195.62C629.6 1195.62 627.44 1197.4 627.44 1199.82C627.44 1202.13 629.264 1203.28 630.848 1203.9L633.104 1204.89C634.712 1205.58 635.936 1206.06 635.936 1207.7C635.936 1209.26 634.664 1210.29 632.432 1210.29C630.704 1210.29 629.072 1209.5 627.896 1208.3L626.696 1209.69C628.112 1211.13 630.104 1212.04 632.408 1212.04ZM643.439 1211.75H653.399V1210.05H645.455V1204.29H651.959V1202.58H645.455V1197.59H653.159V1195.91H643.439V1211.75ZM658.262 1211.75H660.158V1203.45C660.158 1201.82 659.966 1200.11 659.894 1198.5H659.942L661.526 1201.74L666.638 1211.75H668.678V1195.91H666.782V1204.14C666.782 1205.8 666.974 1207.6 667.046 1209.16H666.998L665.414 1205.92L660.302 1195.91H658.262V1211.75ZM673.9 1211.75H677.836C682.492 1211.75 685.036 1208.8 685.036 1203.76C685.036 1198.74 682.492 1195.91 677.74 1195.91H673.9V1211.75ZM675.892 1210.12V1197.54H677.62C681.196 1197.54 682.972 1199.78 682.972 1203.76C682.972 1207.77 681.196 1210.12 677.62 1210.12H675.892ZM711.538 1212.04C713.554 1212.04 715.09 1211.2 716.338 1209.76L715.186 1208.54C714.178 1209.66 713.098 1210.29 711.658 1210.29C708.634 1210.29 706.69 1207.77 706.69 1203.78C706.69 1199.85 708.634 1197.38 711.658 1197.38C712.978 1197.38 714.01 1197.95 714.826 1198.82L715.954 1197.54C715.042 1196.54 713.554 1195.62 711.658 1195.62C707.554 1195.62 704.626 1198.74 704.626 1203.83C704.626 1208.99 707.578 1212.04 711.538 1212.04ZM725.832 1212.04C729.384 1212.04 731.88 1208.85 731.88 1203.76C731.88 1198.72 729.384 1195.62 725.832 1195.62C722.28 1195.62 719.784 1198.7 719.784 1203.76C719.784 1208.85 722.28 1212.04 725.832 1212.04ZM725.832 1210.29C723.432 1210.29 721.848 1207.72 721.848 1203.76C721.848 1199.82 723.432 1197.38 725.832 1197.38C728.232 1197.38 729.816 1199.82 729.816 1203.76C729.816 1207.72 728.232 1210.29 725.832 1210.29ZM736.263 1211.75H740.199C744.855 1211.75 747.399 1208.8 747.399 1203.76C747.399 1198.74 744.855 1195.91 740.103 1195.91H736.263V1211.75ZM738.255 1210.12V1197.54H739.983C743.559 1197.54 745.335 1199.78 745.335 1203.76C745.335 1207.77 743.559 1210.12 739.983 1210.12H738.255ZM752.573 1211.75H762.533V1210.05H754.589V1204.29H761.093V1202.58H754.589V1197.59H762.293V1195.91H752.573V1211.75ZM787.043 1211.75H789.371L794.363 1195.91H792.323L789.803 1204.48C789.251 1206.35 788.867 1207.84 788.291 1209.71H788.195C787.619 1207.84 787.235 1206.35 786.683 1204.48L784.139 1195.91H782.027L787.043 1211.75ZM799.345 1211.75H809.305V1210.05H801.361V1204.29H807.865V1202.58H801.361V1197.59H809.065V1195.91H799.345V1211.75ZM814.576 1211.75H816.568V1205.06H819.376L823.168 1211.75H825.448L821.44 1204.84C823.576 1204.29 824.968 1202.82 824.968 1200.35C824.968 1197.06 822.664 1195.91 819.472 1195.91H814.576V1211.75ZM816.568 1203.42V1197.52H819.184C821.632 1197.52 822.976 1198.26 822.976 1200.35C822.976 1202.42 821.632 1203.42 819.184 1203.42H816.568ZM830.047 1211.75H839.887V1210.05H835.975V1197.59H839.887V1195.91H830.047V1197.59H833.959V1210.05H830.047V1211.75ZM846.597 1211.75H848.589V1204.65H855.045V1202.97H848.589V1197.59H856.221V1195.91H846.597V1211.75ZM861.228 1211.75H871.068V1210.05H867.156V1197.59H871.068V1195.91H861.228V1197.59H865.14V1210.05H861.228V1211.75ZM877.298 1211.75H887.258V1210.05H879.314V1204.29H885.818V1202.58H879.314V1197.59H887.018V1195.91H877.298V1211.75ZM892.529 1211.75H894.521V1205.06H897.329L901.121 1211.75H903.401L899.393 1204.84C901.529 1204.29 902.921 1202.82 902.921 1200.35C902.921 1197.06 900.617 1195.91 897.425 1195.91H892.529V1211.75ZM894.521 1203.42V1197.52H897.137C899.585 1197.52 900.929 1198.26 900.929 1200.35C900.929 1202.42 899.585 1203.42 897.137 1203.42H894.521ZM927.718 1209.26H929.302V1204.58H933.67V1203.09H929.302V1198.41H927.718V1203.09H923.35V1204.58H927.718V1209.26ZM625.856 1247.75H627.896L629.408 1242.9H635.12L636.608 1247.75H638.72L633.416 1231.91H631.16L625.856 1247.75ZM629.912 1241.3L630.656 1238.87C631.208 1237.1 631.712 1235.39 632.216 1233.54H632.312C632.816 1235.39 633.32 1237.1 633.872 1238.87L634.616 1241.3H629.912ZM647.903 1248.04C650.975 1248.04 653.183 1246.31 653.183 1241.78V1231.91H651.239V1241.8C651.239 1245.11 649.799 1246.29 647.903 1246.29C646.007 1246.29 644.591 1245.11 644.591 1241.8V1231.91H642.575V1241.78C642.575 1246.31 644.807 1248.04 647.903 1248.04ZM662.462 1247.75H664.478V1233.59H669.662V1231.91H657.278V1233.59H662.462V1247.75ZM673.756 1247.75H675.772V1240.29H682.348V1247.75H684.364V1231.91H682.348V1238.56H675.772V1231.91H673.756V1247.75ZM694.651 1248.04C698.203 1248.04 700.699 1244.85 700.699 1239.76C700.699 1234.72 698.203 1231.62 694.651 1231.62C691.099 1231.62 688.603 1234.7 688.603 1239.76C688.603 1244.85 691.099 1248.04 694.651 1248.04ZM694.651 1246.29C692.251 1246.29 690.667 1243.72 690.667 1239.76C690.667 1235.82 692.251 1233.38 694.651 1233.38C697.051 1233.38 698.635 1235.82 698.635 1239.76C698.635 1243.72 697.051 1246.29 694.651 1246.29ZM705.442 1247.75H707.434V1241.06H710.242L714.034 1247.75H716.314L712.306 1240.84C714.442 1240.29 715.834 1238.82 715.834 1236.35C715.834 1233.06 713.53 1231.91 710.338 1231.91H705.442V1247.75ZM707.434 1239.42V1233.52H710.05C712.498 1233.52 713.842 1234.26 713.842 1236.35C713.842 1238.42 712.498 1239.42 710.05 1239.42H707.434ZM720.912 1247.75H730.752V1246.05H726.84V1233.59H730.752V1231.91H720.912V1233.59H724.824V1246.05H720.912V1247.75ZM735.783 1247.75H747.159V1246.05H738.207L747.039 1233.09V1231.89H736.551V1233.57H744.591L735.783 1246.55V1247.75ZM750.581 1247.75H752.621L754.133 1242.9H759.845L761.333 1247.75H763.445L758.141 1231.91H755.885L750.581 1247.75ZM754.637 1241.3L755.381 1238.87C755.933 1237.1 756.437 1235.39 756.941 1233.54H757.037C757.541 1235.39 758.045 1237.1 758.597 1238.87L759.341 1241.3H754.637ZM771.596 1247.75H773.612V1233.59H778.796V1231.91H766.412V1233.59H771.596V1247.75ZM783.275 1247.75H793.115V1246.05H789.203V1233.59H793.115V1231.91H783.275V1233.59H787.187V1246.05H783.275V1247.75ZM803.785 1248.04C807.337 1248.04 809.833 1244.85 809.833 1239.76C809.833 1234.72 807.337 1231.62 803.785 1231.62C800.233 1231.62 797.737 1234.7 797.737 1239.76C797.737 1244.85 800.233 1248.04 803.785 1248.04ZM803.785 1246.29C801.385 1246.29 799.801 1243.72 799.801 1239.76C799.801 1235.82 801.385 1233.38 803.785 1233.38C806.185 1233.38 807.769 1235.82 807.769 1239.76C807.769 1243.72 806.185 1246.29 803.785 1246.29ZM814.168 1247.75H816.064V1239.45C816.064 1237.82 815.872 1236.11 815.8 1234.5H815.848L817.432 1237.74L822.544 1247.75H824.584V1231.91H822.688V1240.14C822.688 1241.8 822.88 1243.6 822.952 1245.16H822.904L821.32 1241.92L816.208 1231.91H814.168V1247.75ZM851.853 1248.04C853.869 1248.04 855.405 1247.2 856.653 1245.76L855.501 1244.54C854.493 1245.66 853.413 1246.29 851.973 1246.29C848.949 1246.29 847.005 1243.77 847.005 1239.78C847.005 1235.85 848.949 1233.38 851.973 1233.38C853.293 1233.38 854.325 1233.95 855.141 1234.82L856.269 1233.54C855.357 1232.54 853.869 1231.62 851.973 1231.62C847.869 1231.62 844.941 1234.74 844.941 1239.83C844.941 1244.99 847.893 1248.04 851.853 1248.04ZM866.148 1248.04C869.7 1248.04 872.196 1244.85 872.196 1239.76C872.196 1234.72 869.7 1231.62 866.148 1231.62C862.596 1231.62 860.1 1234.7 860.1 1239.76C860.1 1244.85 862.596 1248.04 866.148 1248.04ZM866.148 1246.29C863.748 1246.29 862.164 1243.72 862.164 1239.76C862.164 1235.82 863.748 1233.38 866.148 1233.38C868.548 1233.38 870.132 1235.82 870.132 1239.76C870.132 1243.72 868.548 1246.29 866.148 1246.29ZM876.578 1247.75H880.514C885.17 1247.75 887.714 1244.8 887.714 1239.76C887.714 1234.74 885.17 1231.91 880.418 1231.91H876.578V1247.75ZM878.57 1246.12V1233.54H880.298C883.874 1233.54 885.65 1235.78 885.65 1239.76C885.65 1243.77 883.874 1246.12 880.298 1246.12H878.57ZM892.889 1247.75H902.849V1246.05H894.905V1240.29H901.409V1238.58H894.905V1233.59H902.609V1231.91H892.889V1247.75Z" fill="#EDEDED"/>
<path d="M955.966 1786.88H957.958V1780.18H960.766L964.558 1786.88H966.838L962.83 1779.97C964.966 1779.42 966.358 1777.95 966.358 1775.48C966.358 1772.19 964.054 1771.04 960.862 1771.04H955.966V1786.88ZM957.958 1778.55V1772.65H960.574C963.022 1772.65 964.366 1773.39 964.366 1775.48C964.366 1777.54 963.022 1778.55 960.574 1778.55H957.958ZM971.917 1786.88H981.877V1785.18H973.933V1779.42H980.437V1777.71H973.933V1772.72H981.637V1771.04H971.917V1786.88ZM990.94 1786.88H992.956V1772.72H998.14V1771.04H985.756V1772.72H990.94V1786.88ZM1007.56 1787.17C1010.63 1787.17 1012.84 1785.44 1012.84 1780.9V1771.04H1010.9V1780.93C1010.9 1784.24 1009.46 1785.42 1007.56 1785.42C1005.67 1785.42 1004.25 1784.24 1004.25 1780.93V1771.04H1002.23V1780.9C1002.23 1785.44 1004.47 1787.17 1007.56 1787.17ZM1018.33 1786.88H1020.32V1780.18H1023.13L1026.92 1786.88H1029.2L1025.19 1779.97C1027.33 1779.42 1028.72 1777.95 1028.72 1775.48C1028.72 1772.19 1026.42 1771.04 1023.23 1771.04H1018.33V1786.88ZM1020.32 1778.55V1772.65H1022.94C1025.39 1772.65 1026.73 1773.39 1026.73 1775.48C1026.73 1777.54 1025.39 1778.55 1022.94 1778.55H1020.32ZM1033.51 1786.88H1035.41V1778.58C1035.41 1776.94 1035.22 1775.24 1035.14 1773.63H1035.19L1036.78 1776.87L1041.89 1786.88H1043.93V1771.04H1042.03V1779.27C1042.03 1780.93 1042.22 1782.73 1042.3 1784.29H1042.25L1040.66 1781.05L1035.55 1771.04H1033.51V1786.88ZM1069.92 1787.17C1073 1787.17 1075.2 1785.44 1075.2 1780.9V1771.04H1073.26V1780.93C1073.26 1784.24 1071.82 1785.42 1069.92 1785.42C1068.03 1785.42 1066.61 1784.24 1066.61 1780.93V1771.04H1064.6V1780.9C1064.6 1785.44 1066.83 1787.17 1069.92 1787.17ZM1085.61 1787.17C1089.07 1787.17 1091.18 1785.18 1091.18 1782.66C1091.18 1780.3 1089.62 1779.27 1087.7 1778.43L1085.49 1777.47C1084.15 1776.9 1082.68 1776.34 1082.68 1774.83C1082.68 1773.39 1083.91 1772.5 1085.8 1772.5C1087.36 1772.5 1088.56 1773.08 1089.6 1773.99L1090.65 1772.7C1089.5 1771.54 1087.77 1770.75 1085.8 1770.75C1082.8 1770.75 1080.64 1772.53 1080.64 1774.95C1080.64 1777.26 1082.47 1778.41 1084.05 1779.03L1086.31 1780.02C1087.92 1780.71 1089.14 1781.19 1089.14 1782.82C1089.14 1784.38 1087.87 1785.42 1085.64 1785.42C1083.91 1785.42 1082.28 1784.62 1081.1 1783.42L1079.9 1784.82C1081.32 1786.26 1083.31 1787.17 1085.61 1787.17ZM1096.64 1786.88H1106.6V1785.18H1098.66V1779.42H1105.16V1777.71H1098.66V1772.72H1106.36V1771.04H1096.64V1786.88ZM1111.87 1786.88H1113.86V1780.18H1116.67L1120.46 1786.88H1122.74L1118.74 1779.97C1120.87 1779.42 1122.26 1777.95 1122.26 1775.48C1122.26 1772.19 1119.96 1771.04 1116.77 1771.04H1111.87V1786.88ZM1113.86 1778.55V1772.65H1116.48C1118.93 1772.65 1120.27 1773.39 1120.27 1775.48C1120.27 1777.54 1118.93 1778.55 1116.48 1778.55H1113.86ZM1147.97 1787.17C1151.43 1787.17 1153.54 1785.18 1153.54 1782.66C1153.54 1780.3 1151.98 1779.27 1150.06 1778.43L1147.85 1777.47C1146.51 1776.9 1145.05 1776.34 1145.05 1774.83C1145.05 1773.39 1146.27 1772.5 1148.17 1772.5C1149.73 1772.5 1150.93 1773.08 1151.96 1773.99L1153.01 1772.7C1151.86 1771.54 1150.13 1770.75 1148.17 1770.75C1145.17 1770.75 1143.01 1772.53 1143.01 1774.95C1143.01 1777.26 1144.83 1778.41 1146.41 1779.03L1148.67 1780.02C1150.28 1780.71 1151.5 1781.19 1151.5 1782.82C1151.5 1784.38 1150.23 1785.42 1148 1785.42C1146.27 1785.42 1144.64 1784.62 1143.46 1783.42L1142.26 1784.82C1143.68 1786.26 1145.67 1787.17 1147.97 1787.17ZM1159 1786.88H1168.96V1785.18H1161.02V1779.42H1167.52V1777.71H1161.02V1772.72H1168.72V1771.04H1159V1786.88ZM1179.16 1787.17C1182.61 1787.17 1184.72 1785.18 1184.72 1782.66C1184.72 1780.3 1183.16 1779.27 1181.24 1778.43L1179.04 1777.47C1177.69 1776.9 1176.23 1776.34 1176.23 1774.83C1176.23 1773.39 1177.45 1772.5 1179.35 1772.5C1180.91 1772.5 1182.11 1773.08 1183.14 1773.99L1184.2 1772.7C1183.04 1771.54 1181.32 1770.75 1179.35 1770.75C1176.35 1770.75 1174.19 1772.53 1174.19 1774.95C1174.19 1777.26 1176.01 1778.41 1177.6 1779.03L1179.85 1780.02C1181.46 1780.71 1182.68 1781.19 1182.68 1782.82C1182.68 1784.38 1181.41 1785.42 1179.18 1785.42C1177.45 1785.42 1175.82 1784.62 1174.64 1783.42L1173.44 1784.82C1174.86 1786.26 1176.85 1787.17 1179.16 1787.17ZM1194.75 1787.17C1198.2 1787.17 1200.31 1785.18 1200.31 1782.66C1200.31 1780.3 1198.75 1779.27 1196.83 1778.43L1194.63 1777.47C1193.28 1776.9 1191.82 1776.34 1191.82 1774.83C1191.82 1773.39 1193.04 1772.5 1194.94 1772.5C1196.5 1772.5 1197.7 1773.08 1198.73 1773.99L1199.79 1772.7C1198.63 1771.54 1196.91 1770.75 1194.94 1770.75C1191.94 1770.75 1189.78 1772.53 1189.78 1774.95C1189.78 1777.26 1191.6 1778.41 1193.19 1779.03L1195.44 1780.02C1197.05 1780.71 1198.27 1781.19 1198.27 1782.82C1198.27 1784.38 1197 1785.42 1194.77 1785.42C1193.04 1785.42 1191.41 1784.62 1190.23 1783.42L1189.03 1784.82C1190.45 1786.26 1192.44 1787.17 1194.75 1787.17ZM1205.3 1786.88H1215.14V1785.18H1211.22V1772.72H1215.14V1771.04H1205.3V1772.72H1209.21V1785.18H1205.3V1786.88ZM1225.81 1787.17C1229.36 1787.17 1231.86 1783.98 1231.86 1778.89C1231.86 1773.85 1229.36 1770.75 1225.81 1770.75C1222.26 1770.75 1219.76 1773.82 1219.76 1778.89C1219.76 1783.98 1222.26 1787.17 1225.81 1787.17ZM1225.81 1785.42C1223.41 1785.42 1221.82 1782.85 1221.82 1778.89C1221.82 1774.95 1223.41 1772.5 1225.81 1772.5C1228.21 1772.5 1229.79 1774.95 1229.79 1778.89C1229.79 1782.85 1228.21 1785.42 1225.81 1785.42ZM1236.19 1786.88H1238.09V1778.58C1238.09 1776.94 1237.89 1775.24 1237.82 1773.63H1237.87L1239.45 1776.87L1244.57 1786.88H1246.61V1771.04H1244.71V1779.27C1244.71 1780.93 1244.9 1782.73 1244.97 1784.29H1244.93L1243.34 1781.05L1238.23 1771.04H1236.19V1786.88Z" fill="#EDEDED"/>
<path d="M753.288 1035.5H755.28V1028.8H758.088L761.88 1035.5H764.16L760.152 1028.59C762.288 1028.04 763.68 1026.57 763.68 1024.1C763.68 1020.81 761.376 1019.66 758.184 1019.66H753.288V1035.5ZM755.28 1027.17V1021.27H757.896C760.344 1021.27 761.688 1022.01 761.688 1024.1C761.688 1026.16 760.344 1027.17 757.896 1027.17H755.28ZM769.239 1035.5H779.199V1033.8H771.255V1028.04H777.759V1026.33H771.255V1021.34H778.959V1019.66H769.239V1035.5ZM784.11 1035.5H788.046C792.702 1035.5 795.246 1032.55 795.246 1027.51C795.246 1022.49 792.702 1019.66 787.95 1019.66H784.11V1035.5ZM786.102 1033.87V1021.29H787.83C791.406 1021.29 793.182 1023.52 793.182 1027.51C793.182 1031.52 791.406 1033.87 787.83 1033.87H786.102ZM799.94 1035.5H809.78V1033.8H805.868V1021.34H809.78V1019.66H799.94V1021.34H803.852V1033.8H799.94V1035.5ZM815.651 1035.5H817.643V1028.8H820.451L824.243 1035.5H826.523L822.515 1028.59C824.651 1028.04 826.043 1026.57 826.043 1024.1C826.043 1020.81 823.739 1019.66 820.547 1019.66H815.651V1035.5ZM817.643 1027.17V1021.27H820.259C822.707 1021.27 824.051 1022.01 824.051 1024.1C824.051 1026.16 822.707 1027.17 820.259 1027.17H817.643ZM831.601 1035.5H841.561V1033.8H833.617V1028.04H840.121V1026.33H833.617V1021.34H841.321V1019.66H831.601V1035.5ZM852.928 1035.79C854.944 1035.79 856.48 1034.95 857.728 1033.51L856.576 1032.28C855.568 1033.41 854.488 1034.04 853.048 1034.04C850.024 1034.04 848.08 1031.52 848.08 1027.53C848.08 1023.6 850.024 1021.12 853.048 1021.12C854.368 1021.12 855.4 1021.7 856.216 1022.56L857.344 1021.29C856.432 1020.28 854.944 1019.37 853.048 1019.37C848.944 1019.37 846.016 1022.49 846.016 1027.58C846.016 1032.74 848.968 1035.79 852.928 1035.79ZM866.215 1035.5H868.231V1021.34H873.415V1019.66H861.031V1021.34H866.215V1035.5ZM893.868 1035.5H896.028L897.756 1028.85C897.996 1027.92 898.188 1026.93 898.38 1026H898.452C898.62 1026.93 898.812 1027.92 899.028 1028.85L900.828 1035.5H903.036L905.364 1019.64H903.468L902.268 1029.6C902.172 1030.89 902.028 1032.21 901.932 1033.51H901.836C901.5 1032.21 901.14 1030.87 900.852 1029.6L899.196 1023.74H897.78L896.124 1029.6C895.812 1030.89 895.452 1032.21 895.116 1033.51H895.044C894.948 1032.21 894.78 1030.92 894.708 1029.6L893.436 1019.64H891.444L893.868 1035.5ZM909.075 1035.5H918.915V1033.8H915.003V1021.34H918.915V1019.66H909.075V1021.34H912.987V1033.8H909.075V1035.5ZM928.577 1035.5H930.593V1021.34H935.777V1019.66H923.393V1021.34H928.577V1035.5ZM939.872 1035.5H941.888V1028.04H948.464V1035.5H950.48V1019.66H948.464V1026.31H941.888V1019.66H939.872V1035.5ZM969.925 1035.5H971.965L973.477 1030.65H979.189L980.677 1035.5H982.789L977.485 1019.66H975.229L969.925 1035.5ZM973.981 1029.04L974.725 1026.62C975.277 1024.84 975.781 1023.14 976.285 1021.29H976.381C976.885 1023.14 977.389 1024.84 977.941 1026.62L978.685 1029.04H973.981ZM991.972 1035.79C995.044 1035.79 997.252 1034.06 997.252 1029.52V1019.66H995.308V1029.55C995.308 1032.86 993.868 1034.04 991.972 1034.04C990.076 1034.04 988.66 1032.86 988.66 1029.55V1019.66H986.644V1029.52C986.644 1034.06 988.876 1035.79 991.972 1035.79ZM1006.53 1035.5H1008.55V1021.34H1013.73V1019.66H1001.35V1021.34H1006.53V1035.5ZM1017.82 1035.5H1019.84V1028.04H1026.42V1035.5H1028.43V1019.66H1026.42V1026.31H1019.84V1019.66H1017.82V1035.5ZM1038.72 1035.79C1042.27 1035.79 1044.77 1032.6 1044.77 1027.51C1044.77 1022.47 1042.27 1019.37 1038.72 1019.37C1035.17 1019.37 1032.67 1022.44 1032.67 1027.51C1032.67 1032.6 1035.17 1035.79 1038.72 1035.79ZM1038.72 1034.04C1036.32 1034.04 1034.74 1031.47 1034.74 1027.51C1034.74 1023.57 1036.32 1021.12 1038.72 1021.12C1041.12 1021.12 1042.7 1023.57 1042.7 1027.51C1042.7 1031.47 1041.12 1034.04 1038.72 1034.04ZM1049.51 1035.5H1051.5V1028.8H1054.31L1058.1 1035.5H1060.38L1056.37 1028.59C1058.51 1028.04 1059.9 1026.57 1059.9 1024.1C1059.9 1020.81 1057.6 1019.66 1054.41 1019.66H1049.51V1035.5ZM1051.5 1027.17V1021.27H1054.12C1056.57 1021.27 1057.91 1022.01 1057.91 1024.1C1057.91 1026.16 1056.57 1027.17 1054.12 1027.17H1051.5ZM1064.98 1035.5H1074.82V1033.8H1070.91V1021.34H1074.82V1019.66H1064.98V1021.34H1068.89V1033.8H1064.98V1035.5ZM1079.85 1035.5H1091.23V1033.8H1082.28L1091.11 1020.84V1019.64H1080.62V1021.32H1088.66L1079.85 1034.3V1035.5ZM1094.65 1035.5H1096.69L1098.2 1030.65H1103.91L1105.4 1035.5H1107.51L1102.21 1019.66H1099.95L1094.65 1035.5ZM1098.71 1029.04L1099.45 1026.62C1100 1024.84 1100.51 1023.14 1101.01 1021.29H1101.11C1101.61 1023.14 1102.11 1024.84 1102.67 1026.62L1103.41 1029.04H1098.71ZM1115.66 1035.5H1117.68V1021.34H1122.86V1019.66H1110.48V1021.34H1115.66V1035.5ZM1127.34 1035.5H1137.18V1033.8H1133.27V1021.34H1137.18V1019.66H1127.34V1021.34H1131.26V1033.8H1127.34V1035.5ZM1147.85 1035.79C1151.41 1035.79 1153.9 1032.6 1153.9 1027.51C1153.9 1022.47 1151.41 1019.37 1147.85 1019.37C1144.3 1019.37 1141.81 1022.44 1141.81 1027.51C1141.81 1032.6 1144.3 1035.79 1147.85 1035.79ZM1147.85 1034.04C1145.45 1034.04 1143.87 1031.47 1143.87 1027.51C1143.87 1023.57 1145.45 1021.12 1147.85 1021.12C1150.25 1021.12 1151.84 1023.57 1151.84 1027.51C1151.84 1031.47 1150.25 1034.04 1147.85 1034.04ZM1158.24 1035.5H1160.13V1027.2C1160.13 1025.56 1159.94 1023.86 1159.87 1022.25H1159.92L1161.5 1025.49L1166.61 1035.5H1168.65V1019.66H1166.76V1027.89C1166.76 1029.55 1166.95 1031.35 1167.02 1032.91H1166.97L1165.39 1029.67L1160.28 1019.66H1158.24V1035.5ZM1195.92 1035.79C1197.94 1035.79 1199.47 1034.95 1200.72 1033.51L1199.57 1032.28C1198.56 1033.41 1197.48 1034.04 1196.04 1034.04C1193.02 1034.04 1191.07 1031.52 1191.07 1027.53C1191.07 1023.6 1193.02 1021.12 1196.04 1021.12C1197.36 1021.12 1198.39 1021.7 1199.21 1022.56L1200.34 1021.29C1199.43 1020.28 1197.94 1019.37 1196.04 1019.37C1191.94 1019.37 1189.01 1022.49 1189.01 1027.58C1189.01 1032.74 1191.96 1035.79 1195.92 1035.79ZM1210.22 1035.79C1213.77 1035.79 1216.26 1032.6 1216.26 1027.51C1216.26 1022.47 1213.77 1019.37 1210.22 1019.37C1206.66 1019.37 1204.17 1022.44 1204.17 1027.51C1204.17 1032.6 1206.66 1035.79 1210.22 1035.79ZM1210.22 1034.04C1207.82 1034.04 1206.23 1031.47 1206.23 1027.51C1206.23 1023.57 1207.82 1021.12 1210.22 1021.12C1212.62 1021.12 1214.2 1023.57 1214.2 1027.51C1214.2 1031.47 1212.62 1034.04 1210.22 1034.04ZM1220.65 1035.5H1224.58C1229.24 1035.5 1231.78 1032.55 1231.78 1027.51C1231.78 1022.49 1229.24 1019.66 1224.49 1019.66H1220.65V1035.5ZM1222.64 1033.87V1021.29H1224.37C1227.94 1021.29 1229.72 1023.52 1229.72 1027.51C1229.72 1031.52 1227.94 1033.87 1224.37 1033.87H1222.64ZM1236.96 1035.5H1246.92V1033.8H1238.97V1028.04H1245.48V1026.33H1238.97V1021.34H1246.68V1019.66H1236.96V1035.5Z" fill="#EDEDED"/>
<path d="M592.528 1068.19C591.942 1068.78 591.942 1069.73 592.528 1070.31L602.074 1079.86C602.66 1080.44 603.61 1080.44 604.195 1079.86C604.781 1079.27 604.781 1078.32 604.195 1077.74L595.71 1069.25L604.195 1060.77C604.781 1060.18 604.781 1059.23 604.195 1058.64C603.61 1058.06 602.66 1058.06 602.074 1058.64L592.528 1068.19ZM593.589 1070.75H1297.09V1067.75H593.589V1070.75Z" fill="#3ECF8E"/>
<path d="M592.528 1825.94C591.942 1826.53 591.942 1827.47 592.528 1828.06L602.074 1837.61C602.66 1838.19 603.61 1838.19 604.195 1837.61C604.781 1837.02 604.781 1836.07 604.195 1835.49L595.71 1827L604.195 1818.51C604.781 1817.93 604.781 1816.98 604.195 1816.39C603.61 1815.81 602.66 1815.81 602.074 1816.39L592.528 1825.94ZM593.589 1828.5H1297.09V1825.5H593.589V1828.5Z" fill="#3ECF8E"/>
<path d="M101.427 1982.16C102.208 1982.95 103.474 1982.95 104.256 1982.16L116.983 1969.44C117.764 1968.66 117.764 1967.39 116.983 1966.61C116.202 1965.83 114.936 1965.83 114.155 1966.61L102.841 1977.92L91.5276 1966.61C90.7466 1965.83 89.4802 1965.83 88.6992 1966.61C87.9181 1967.39 87.9181 1968.66 88.6992 1969.44L101.427 1982.16ZM100.841 317.9V1980.75H104.841V317.9H100.841Z" fill="#4D4D4D"/>
<path d="M581.868 1982.16C582.649 1982.95 583.915 1982.95 584.696 1982.16L597.424 1969.44C598.205 1968.66 598.205 1967.39 597.424 1966.61C596.643 1965.83 595.376 1965.83 594.595 1966.61L583.282 1977.92L571.968 1966.61C571.187 1965.83 569.921 1965.83 569.14 1966.61C568.359 1967.39 568.359 1968.66 569.14 1969.44L581.868 1982.16ZM581.282 317.9V1980.75H585.282V317.9H581.282Z" fill="#4D4D4D"/>
<path d="M1295.43 1982.16C1296.21 1982.95 1297.47 1982.95 1298.26 1982.16L1310.98 1969.44C1311.76 1968.66 1311.76 1967.39 1310.98 1966.61C1310.2 1965.83 1308.94 1965.83 1308.16 1966.61L1296.84 1977.92L1285.53 1966.61C1284.75 1965.83 1283.48 1965.83 1282.7 1966.61C1281.92 1967.39 1281.92 1968.66 1282.7 1969.44L1295.43 1982.16ZM1294.84 317.9V1980.75H1298.84V317.9H1294.84Z" fill="#4D4D4D"/>
<path d="M571.088 553.622C571.088 544.786 578.252 537.622 587.088 537.622H1078.09C1095.76 537.622 1110.09 551.949 1110.09 569.622V713.622C1110.09 731.296 1095.76 745.622 1078.09 745.622H587.088C578.252 745.622 571.088 738.459 571.088 729.622V553.622Z" fill="#D16BCD" fill-opacity="0.05"/>
<rect x="572.088" y="744.622" width="206" height="24" rx="12" transform="rotate(-90 572.088 744.622)" fill="#462944"/>
<rect x="572.088" y="744.622" width="206" height="24" rx="12" transform="rotate(-90 572.088 744.622)" stroke="#D16BCD" stroke-width="2" stroke-linecap="round"/>
<path d="M649.088 629.622C649.088 629.622 665.088 621.622 665.088 609.622V595.622L649.088 589.622L633.088 595.622V609.622C633.088 621.622 649.088 629.622 649.088 629.622Z" stroke="#EDEDED" stroke-width="2" stroke-linecap="round" stroke-linejoin="round"/>
<path d="M633.584 682.91C635.6 682.91 637.136 682.07 638.384 680.63L637.232 679.406C636.224 680.534 635.144 681.158 633.704 681.158C630.68 681.158 628.736 678.638 628.736 674.654C628.736 670.718 630.68 668.246 633.704 668.246C635.024 668.246 636.056 668.822 636.872 669.686L638 668.414C637.088 667.406 635.6 666.494 633.704 666.494C629.6 666.494 626.672 669.614 626.672 674.702C626.672 679.862 629.624 682.91 633.584 682.91ZM643.079 682.622H645.071V675.926H647.879L651.671 682.622H653.951L649.943 675.71C652.079 675.158 653.471 673.694 653.471 671.222C653.471 667.934 651.167 666.782 647.975 666.782H643.079V682.622ZM645.071 674.294V668.39H647.687C650.135 668.39 651.479 669.134 651.479 671.222C651.479 673.286 650.135 674.294 647.687 674.294H645.071ZM659.03 682.622H668.99V680.918H661.046V675.158H667.55V673.454H661.046V668.462H668.75V666.782H659.03V682.622ZM672.628 682.622H674.668L676.18 677.774H681.892L683.38 682.622H685.492L680.188 666.782H677.932L672.628 682.622ZM676.684 676.166L677.428 673.742C677.98 671.966 678.484 670.262 678.988 668.414H679.084C679.588 670.262 680.092 671.966 680.644 673.742L681.388 676.166H676.684ZM693.643 682.622H695.659V668.462H700.843V666.782H688.459V668.462H693.643V682.622ZM705.802 682.622H715.762V680.918H707.818V675.158H714.322V673.454H707.818V668.462H715.522V666.782H705.802V682.622ZM736.623 682.622H738.615V675.926H741.423L745.215 682.622H747.495L743.487 675.71C745.623 675.158 747.015 673.694 747.015 671.222C747.015 667.934 744.711 666.782 741.519 666.782H736.623V682.622ZM738.615 674.294V668.39H741.231C743.679 668.39 745.023 669.134 745.023 671.222C745.023 673.286 743.679 674.294 741.231 674.294H738.615ZM750.581 682.622H752.621L754.133 677.774H759.845L761.333 682.622H763.445L758.141 666.782H755.885L750.581 682.622ZM754.637 676.166L755.381 673.742C755.933 671.966 756.437 670.262 756.941 668.414H757.037C757.541 670.262 758.045 671.966 758.597 673.742L759.341 676.166H754.637ZM767.396 682.622H769.292V674.318C769.292 672.686 769.1 670.982 769.028 669.374H769.076L770.66 672.614L775.772 682.622H777.812V666.782H775.916V675.014C775.916 676.67 776.108 678.47 776.18 680.03H776.132L774.548 676.79L769.436 666.782H767.396V682.622ZM783.035 682.622H786.971C791.627 682.622 794.171 679.67 794.171 674.63C794.171 669.614 791.627 666.782 786.875 666.782H783.035V682.622ZM785.027 680.99V668.414H786.755C790.331 668.414 792.107 670.646 792.107 674.63C792.107 678.638 790.331 680.99 786.755 680.99H785.027ZM803.785 682.91C807.337 682.91 809.833 679.718 809.833 674.63C809.833 669.59 807.337 666.494 803.785 666.494C800.233 666.494 797.737 669.566 797.737 674.63C797.737 679.718 800.233 682.91 803.785 682.91ZM803.785 681.158C801.385 681.158 799.801 678.59 799.801 674.63C799.801 670.694 801.385 668.246 803.785 668.246C806.185 668.246 807.769 670.694 807.769 674.63C807.769 678.59 806.185 681.158 803.785 681.158ZM814 682.622H815.8V673.67C815.8 672.374 815.632 670.094 815.536 668.822H815.608L816.76 672.206L819.304 678.326H820.408L822.928 672.206L824.032 668.822H824.128C824.032 670.094 823.888 672.374 823.888 673.67V682.622H825.712V666.782H823.36L820.792 673.526L819.928 676.094H819.832L818.92 673.526L816.352 666.782H814V682.622ZM852.814 682.91C854.83 682.91 856.366 682.07 857.614 680.63L856.462 679.406C855.454 680.534 854.374 681.158 852.934 681.158C849.91 681.158 847.966 678.638 847.966 674.654C847.966 670.718 849.91 668.246 852.934 668.246C854.254 668.246 855.286 668.822 856.102 669.686L857.23 668.414C856.318 667.406 854.83 666.494 852.934 666.494C848.83 666.494 845.902 669.614 845.902 674.702C845.902 679.862 848.854 682.91 852.814 682.91ZM867.109 682.91C870.661 682.91 873.157 679.718 873.157 674.63C873.157 669.59 870.661 666.494 867.109 666.494C863.557 666.494 861.061 669.566 861.061 674.63C861.061 679.718 863.557 682.91 867.109 682.91ZM867.109 681.158C864.709 681.158 863.125 678.59 863.125 674.63C863.125 670.694 864.709 668.246 867.109 668.246C869.509 668.246 871.093 670.694 871.093 674.63C871.093 678.59 869.509 681.158 867.109 681.158ZM877.539 682.622H881.475C886.131 682.622 888.675 679.67 888.675 674.63C888.675 669.614 886.131 666.782 881.379 666.782H877.539V682.622ZM879.531 680.99V668.414H881.259C884.835 668.414 886.611 670.646 886.611 674.63C886.611 678.638 884.835 680.99 881.259 680.99H879.531ZM893.85 682.622H903.81V680.918H895.866V675.158H902.37V673.454H895.866V668.462H903.57V666.782H893.85V682.622ZM928.319 682.622H930.647L935.639 666.782H933.599L931.079 675.35C930.527 677.222 930.143 678.71 929.567 680.582H929.471C928.895 678.71 928.511 677.222 927.959 675.35L925.415 666.782H923.303L928.319 682.622ZM940.622 682.622H950.582V680.918H942.638V675.158H949.142V673.454H942.638V668.462H950.342V666.782H940.622V682.622ZM955.852 682.622H957.844V675.926H960.652L964.444 682.622H966.724L962.716 675.71C964.852 675.158 966.244 673.694 966.244 671.222C966.244 667.934 963.94 666.782 960.748 666.782H955.852V682.622ZM957.844 674.294V668.39H960.46C962.908 668.39 964.252 669.134 964.252 671.222C964.252 673.286 962.908 674.294 960.46 674.294H957.844ZM971.323 682.622H981.163V680.918H977.251V668.462H981.163V666.782H971.323V668.462H975.235V680.918H971.323V682.622ZM987.874 682.622H989.866V675.518H996.322V673.838H989.866V668.462H997.498V666.782H987.874V682.622ZM1002.5 682.622H1012.34V680.918H1008.43V668.462H1012.34V666.782H1002.5V668.462H1006.42V680.918H1002.5V682.622ZM1018.57 682.622H1028.53V680.918H1020.59V675.158H1027.09V673.454H1020.59V668.462H1028.29V666.782H1018.57V682.622ZM1033.81 682.622H1035.8V675.926H1038.61L1042.4 682.622H1044.68L1040.67 675.71C1042.81 675.158 1044.2 673.694 1044.2 671.222C1044.2 667.934 1041.89 666.782 1038.7 666.782H1033.81V682.622ZM1035.8 674.294V668.39H1038.41C1040.86 668.39 1042.21 669.134 1042.21 671.222C1042.21 673.286 1040.86 674.294 1038.41 674.294H1035.8Z" fill="#EDEDED"/>
<path d="M610.472 1386.75C610.472 1377.91 617.636 1370.75 626.472 1370.75H1277.47C1295.15 1370.75 1309.47 1385.08 1309.47 1402.75V1594.75C1309.47 1612.42 1295.15 1626.75 1277.47 1626.75H626.472C617.636 1626.75 610.472 1619.59 610.472 1610.75V1386.75Z" fill="#3DCF8E" fill-opacity="0.05"/>
<path d="M676.472 1440.75L682.472 1446.75L702.472 1426.75" stroke="#EDEDED" stroke-width="2" stroke-linecap="round" stroke-linejoin="round"/>
<path d="M700.472 1442.75V1456.75C700.472 1457.81 700.051 1458.83 699.301 1459.58C698.55 1460.33 697.533 1460.75 696.472 1460.75H668.472C667.411 1460.75 666.394 1460.33 665.644 1459.58C664.894 1458.83 664.472 1457.81 664.472 1456.75V1428.75C664.472 1427.69 664.894 1426.67 665.644 1425.92C666.394 1425.17 667.411 1424.75 668.472 1424.75H690.472" stroke="#EDEDED" stroke-width="2" stroke-linecap="round" stroke-linejoin="round"/>
<path d="M666.968 1516.04C668.984 1516.04 670.52 1515.2 671.768 1513.76L670.616 1512.54C669.608 1513.66 668.528 1514.29 667.088 1514.29C664.064 1514.29 662.12 1511.77 662.12 1507.78C662.12 1503.85 664.064 1501.38 667.088 1501.38C668.408 1501.38 669.44 1501.95 670.256 1502.82L671.384 1501.54C670.472 1500.54 668.984 1499.62 667.088 1499.62C662.984 1499.62 660.056 1502.74 660.056 1507.83C660.056 1512.99 663.008 1516.04 666.968 1516.04ZM681.263 1516.04C684.815 1516.04 687.311 1512.85 687.311 1507.76C687.311 1502.72 684.815 1499.62 681.263 1499.62C677.711 1499.62 675.215 1502.7 675.215 1507.76C675.215 1512.85 677.711 1516.04 681.263 1516.04ZM681.263 1514.29C678.863 1514.29 677.279 1511.72 677.279 1507.76C677.279 1503.82 678.863 1501.38 681.263 1501.38C683.663 1501.38 685.247 1503.82 685.247 1507.76C685.247 1511.72 683.663 1514.29 681.263 1514.29ZM691.693 1515.75H695.629C700.285 1515.75 702.829 1512.8 702.829 1507.76C702.829 1502.74 700.285 1499.91 695.533 1499.91H691.693V1515.75ZM693.685 1514.12V1501.54H695.413C698.989 1501.54 700.765 1503.78 700.765 1507.76C700.765 1511.77 698.989 1514.12 695.413 1514.12H693.685ZM708.004 1515.75H717.964V1514.05H710.02V1508.29H716.524V1506.58H710.02V1501.59H717.724V1499.91H708.004V1515.75ZM742.473 1515.75H744.801L749.793 1499.91H747.753L745.233 1508.48C744.681 1510.35 744.297 1511.84 743.721 1513.71H743.625C743.049 1511.84 742.665 1510.35 742.113 1508.48L739.569 1499.91H737.457L742.473 1515.75ZM754.776 1515.75H764.736V1514.05H756.792V1508.29H763.296V1506.58H756.792V1501.59H764.496V1499.91H754.776V1515.75ZM770.007 1515.75H771.999V1509.06H774.807L778.599 1515.75H780.879L776.871 1508.84C779.007 1508.29 780.399 1506.82 780.399 1504.35C780.399 1501.06 778.095 1499.91 774.903 1499.91H770.007V1515.75ZM771.999 1507.42V1501.52H774.615C777.063 1501.52 778.407 1502.26 778.407 1504.35C778.407 1506.42 777.063 1507.42 774.615 1507.42H771.999ZM785.477 1515.75H795.317V1514.05H791.405V1501.59H795.317V1499.91H785.477V1501.59H789.389V1514.05H785.477V1515.75ZM802.028 1515.75H804.02V1508.65H810.476V1506.97H804.02V1501.59H811.652V1499.91H802.028V1515.75ZM816.658 1515.75H826.498V1514.05H822.586V1501.59H826.498V1499.91H816.658V1501.59H820.57V1514.05H816.658V1515.75ZM832.729 1515.75H842.689V1514.05H834.745V1508.29H841.249V1506.58H834.745V1501.59H842.449V1499.91H832.729V1515.75ZM847.96 1515.75H849.952V1509.06H852.76L856.552 1515.75H858.832L854.824 1508.84C856.96 1508.29 858.352 1506.82 858.352 1504.35C858.352 1501.06 856.048 1499.91 852.856 1499.91H847.96V1515.75ZM849.952 1507.42V1501.52H852.568C855.016 1501.52 856.36 1502.26 856.36 1504.35C856.36 1506.42 855.016 1507.42 852.568 1507.42H849.952ZM878.565 1515.75H880.365V1506.8C880.365 1505.5 880.197 1503.22 880.101 1501.95H880.173L881.325 1505.34L883.869 1511.46H884.973L887.493 1505.34L888.597 1501.95H888.693C888.597 1503.22 888.453 1505.5 888.453 1506.8V1515.75H890.277V1499.91H887.925L885.357 1506.66L884.493 1509.22H884.397L883.485 1506.66L880.917 1499.91H878.565V1515.75ZM894.06 1515.75H896.1L897.612 1510.9H903.324L904.812 1515.75H906.924L901.62 1499.91H899.364L894.06 1515.75ZM898.116 1509.3L898.86 1506.87C899.412 1505.1 899.916 1503.39 900.42 1501.54H900.516C901.02 1503.39 901.524 1505.1 902.076 1506.87L902.82 1509.3H898.116ZM915.075 1515.75H917.091V1501.59H922.275V1499.91H909.891V1501.59H915.075V1515.75ZM932.97 1516.04C934.986 1516.04 936.522 1515.2 937.77 1513.76L936.618 1512.54C935.61 1513.66 934.53 1514.29 933.09 1514.29C930.066 1514.29 928.122 1511.77 928.122 1507.78C928.122 1503.85 930.066 1501.38 933.09 1501.38C934.41 1501.38 935.442 1501.95 936.258 1502.82L937.386 1501.54C936.474 1500.54 934.986 1499.62 933.09 1499.62C928.986 1499.62 926.058 1502.74 926.058 1507.83C926.058 1512.99 929.01 1516.04 932.97 1516.04ZM941.96 1515.75H943.976V1508.29H950.552V1515.75H952.568V1499.91H950.552V1506.56H943.976V1499.91H941.96V1515.75ZM958.415 1515.75H968.375V1514.05H960.431V1508.29H966.935V1506.58H960.431V1501.59H968.135V1499.91H958.415V1515.75ZM978.566 1516.04C982.022 1516.04 984.134 1514.05 984.134 1511.53C984.134 1509.18 982.574 1508.14 980.654 1507.3L978.446 1506.34C977.102 1505.77 975.638 1505.22 975.638 1503.7C975.638 1502.26 976.862 1501.38 978.758 1501.38C980.318 1501.38 981.518 1501.95 982.55 1502.86L983.606 1501.57C982.454 1500.42 980.726 1499.62 978.758 1499.62C975.758 1499.62 973.598 1501.4 973.598 1503.82C973.598 1506.13 975.422 1507.28 977.006 1507.9L979.262 1508.89C980.87 1509.58 982.094 1510.06 982.094 1511.7C982.094 1513.26 980.822 1514.29 978.59 1514.29C976.862 1514.29 975.23 1513.5 974.054 1512.3L972.854 1513.69C974.27 1515.13 976.262 1516.04 978.566 1516.04ZM1010.92 1516.04C1012.94 1516.04 1014.47 1515.2 1015.72 1513.76L1014.57 1512.54C1013.56 1513.66 1012.48 1514.29 1011.04 1514.29C1008.02 1514.29 1006.07 1511.77 1006.07 1507.78C1006.07 1503.85 1008.02 1501.38 1011.04 1501.38C1012.36 1501.38 1013.39 1501.95 1014.21 1502.82L1015.34 1501.54C1014.43 1500.54 1012.94 1499.62 1011.04 1499.62C1006.94 1499.62 1004.01 1502.74 1004.01 1507.83C1004.01 1512.99 1006.96 1516.04 1010.92 1516.04ZM1025.22 1516.04C1028.77 1516.04 1031.27 1512.85 1031.27 1507.76C1031.27 1502.72 1028.77 1499.62 1025.22 1499.62C1021.67 1499.62 1019.17 1502.7 1019.17 1507.76C1019.17 1512.85 1021.67 1516.04 1025.22 1516.04ZM1025.22 1514.29C1022.82 1514.29 1021.23 1511.72 1021.23 1507.76C1021.23 1503.82 1022.82 1501.38 1025.22 1501.38C1027.62 1501.38 1029.2 1503.82 1029.2 1507.76C1029.2 1511.72 1027.62 1514.29 1025.22 1514.29ZM1035.65 1515.75H1039.58C1044.24 1515.75 1046.78 1512.8 1046.78 1507.76C1046.78 1502.74 1044.24 1499.91 1039.49 1499.91H1035.65V1515.75ZM1037.64 1514.12V1501.54H1039.37C1042.94 1501.54 1044.72 1503.78 1044.72 1507.76C1044.72 1511.77 1042.94 1514.12 1039.37 1514.12H1037.64ZM1051.96 1515.75H1061.92V1514.05H1053.97V1508.29H1060.48V1506.58H1053.97V1501.59H1061.68V1499.91H1051.96V1515.75ZM1088.88 1516.04C1090.89 1516.04 1092.43 1515.2 1093.68 1513.76L1092.52 1512.54C1091.52 1513.66 1090.44 1514.29 1089 1514.29C1085.97 1514.29 1084.03 1511.77 1084.03 1507.78C1084.03 1503.85 1085.97 1501.38 1089 1501.38C1090.32 1501.38 1091.35 1501.95 1092.16 1502.82L1093.29 1501.54C1092.38 1500.54 1090.89 1499.62 1089 1499.62C1084.89 1499.62 1081.96 1502.74 1081.96 1507.83C1081.96 1512.99 1084.92 1516.04 1088.88 1516.04ZM1097.87 1515.75H1099.88V1508.29H1106.46V1515.75H1108.47V1499.91H1106.46V1506.56H1099.88V1499.91H1097.87V1515.75ZM1112.33 1515.75H1114.37L1115.88 1510.9H1121.59L1123.08 1515.75H1125.19L1119.89 1499.91H1117.63L1112.33 1515.75ZM1116.39 1509.3L1117.13 1506.87C1117.68 1505.1 1118.19 1503.39 1118.69 1501.54H1118.79C1119.29 1503.39 1119.79 1505.1 1120.35 1506.87L1121.09 1509.3H1116.39ZM1130.37 1515.75H1140.14V1514.05H1132.34V1499.91H1130.37V1515.75ZM1145.96 1515.75H1155.73V1514.05H1147.93V1499.91H1145.96V1515.75ZM1161.09 1515.75H1171.05V1514.05H1163.11V1508.29H1169.61V1506.58H1163.11V1501.59H1170.81V1499.91H1161.09V1515.75ZM1175.92 1515.75H1177.81V1507.45C1177.81 1505.82 1177.62 1504.11 1177.55 1502.5H1177.6L1179.18 1505.74L1184.29 1515.75H1186.33V1499.91H1184.44V1508.14C1184.44 1509.8 1184.63 1511.6 1184.7 1513.16H1184.65L1183.07 1509.92L1177.96 1499.91H1175.92V1515.75ZM1192.27 1515.75H1202.23V1514.05H1194.29V1508.29H1200.79V1506.58H1194.29V1501.59H1201.99V1499.91H1192.27V1515.75ZM1213.19 1516.04C1215.23 1516.04 1216.89 1515.22 1217.9 1514.22V1507.54H1212.9V1509.2H1216.05V1513.35C1215.45 1513.93 1214.42 1514.29 1213.31 1514.29C1210.22 1514.29 1208.46 1511.77 1208.46 1507.78C1208.46 1503.85 1210.41 1501.38 1213.36 1501.38C1214.87 1501.38 1215.81 1502 1216.58 1502.82L1217.7 1501.54C1216.82 1500.61 1215.45 1499.62 1213.36 1499.62C1209.28 1499.62 1206.38 1502.72 1206.38 1507.83C1206.38 1512.99 1209.23 1516.04 1213.19 1516.04ZM1223.46 1515.75H1233.42V1514.05H1225.47V1508.29H1231.98V1506.58H1225.47V1501.59H1233.18V1499.91H1223.46V1515.75ZM659.24 1563.75H661.28L662.792 1558.9H668.504L669.992 1563.75H672.104L666.8 1547.91H664.544L659.24 1563.75ZM663.296 1557.3L664.04 1554.87C664.592 1553.1 665.096 1551.39 665.6 1549.54H665.696C666.2 1551.39 666.704 1553.1 667.256 1554.87L668 1557.3H663.296ZM681.287 1564.04C684.359 1564.04 686.567 1562.31 686.567 1557.78V1547.91H684.623V1557.8C684.623 1561.11 683.183 1562.29 681.287 1562.29C679.391 1562.29 677.975 1561.11 677.975 1557.8V1547.91H675.959V1557.78C675.959 1562.31 678.191 1564.04 681.287 1564.04ZM695.845 1563.75H697.861V1549.59H703.045V1547.91H690.661V1549.59H695.845V1563.75ZM707.14 1563.75H709.156V1556.29H715.732V1563.75H717.748V1547.91H715.732V1554.56H709.156V1547.91H707.14V1563.75ZM728.035 1564.04C731.587 1564.04 734.083 1560.85 734.083 1555.76C734.083 1550.72 731.587 1547.62 728.035 1547.62C724.483 1547.62 721.987 1550.7 721.987 1555.76C721.987 1560.85 724.483 1564.04 728.035 1564.04ZM728.035 1562.29C725.635 1562.29 724.051 1559.72 724.051 1555.76C724.051 1551.82 725.635 1549.38 728.035 1549.38C730.435 1549.38 732.019 1551.82 732.019 1555.76C732.019 1559.72 730.435 1562.29 728.035 1562.29ZM738.825 1563.75H740.817V1557.06H743.625L747.417 1563.75H749.697L745.689 1556.84C747.825 1556.29 749.217 1554.82 749.217 1552.35C749.217 1549.06 746.913 1547.91 743.721 1547.91H738.825V1563.75ZM740.817 1555.42V1549.52H743.433C745.881 1549.52 747.225 1550.26 747.225 1552.35C747.225 1554.42 745.881 1555.42 743.433 1555.42H740.817ZM754.296 1563.75H764.136V1562.05H760.224V1549.59H764.136V1547.91H754.296V1549.59H758.208V1562.05H754.296V1563.75ZM769.167 1563.75H780.543V1562.05H771.591L780.423 1549.09V1547.89H769.935V1549.57H777.975L769.167 1562.55V1563.75ZM783.965 1563.75H786.005L787.517 1558.9H793.229L794.717 1563.75H796.829L791.525 1547.91H789.269L783.965 1563.75ZM788.021 1557.3L788.765 1554.87C789.317 1553.1 789.821 1551.39 790.325 1549.54H790.421C790.925 1551.39 791.429 1553.1 791.981 1554.87L792.725 1557.3H788.021ZM804.98 1563.75H806.996V1549.59H812.18V1547.91H799.796V1549.59H804.98V1563.75ZM816.658 1563.75H826.498V1562.05H822.586V1549.59H826.498V1547.91H816.658V1549.59H820.57V1562.05H816.658V1563.75ZM837.169 1564.04C840.721 1564.04 843.217 1560.85 843.217 1555.76C843.217 1550.72 840.721 1547.62 837.169 1547.62C833.617 1547.62 831.121 1550.7 831.121 1555.76C831.121 1560.85 833.617 1564.04 837.169 1564.04ZM837.169 1562.29C834.769 1562.29 833.185 1559.72 833.185 1555.76C833.185 1551.82 834.769 1549.38 837.169 1549.38C839.569 1549.38 841.153 1551.82 841.153 1555.76C841.153 1559.72 839.569 1562.29 837.169 1562.29ZM847.552 1563.75H849.448V1555.45C849.448 1553.82 849.256 1552.11 849.184 1550.5H849.232L850.816 1553.74L855.928 1563.75H857.968V1547.91H856.072V1556.14C856.072 1557.8 856.264 1559.6 856.336 1561.16H856.288L854.704 1557.92L849.592 1547.91H847.552V1563.75ZM885.237 1564.04C887.253 1564.04 888.789 1563.2 890.037 1561.76L888.885 1560.54C887.877 1561.66 886.797 1562.29 885.357 1562.29C882.333 1562.29 880.389 1559.77 880.389 1555.78C880.389 1551.85 882.333 1549.38 885.357 1549.38C886.677 1549.38 887.709 1549.95 888.525 1550.82L889.653 1549.54C888.741 1548.54 887.253 1547.62 885.357 1547.62C881.253 1547.62 878.325 1550.74 878.325 1555.83C878.325 1560.99 881.277 1564.04 885.237 1564.04ZM899.532 1564.04C903.084 1564.04 905.58 1560.85 905.58 1555.76C905.58 1550.72 903.084 1547.62 899.532 1547.62C895.98 1547.62 893.484 1550.7 893.484 1555.76C893.484 1560.85 895.98 1564.04 899.532 1564.04ZM899.532 1562.29C897.132 1562.29 895.548 1559.72 895.548 1555.76C895.548 1551.82 897.132 1549.38 899.532 1549.38C901.932 1549.38 903.516 1551.82 903.516 1555.76C903.516 1559.72 901.932 1562.29 899.532 1562.29ZM909.962 1563.75H913.898C918.554 1563.75 921.098 1560.8 921.098 1555.76C921.098 1550.74 918.554 1547.91 913.802 1547.91H909.962V1563.75ZM911.954 1562.12V1549.54H913.682C917.258 1549.54 919.034 1551.78 919.034 1555.76C919.034 1559.77 917.258 1562.12 913.682 1562.12H911.954ZM926.273 1563.75H936.233V1562.05H928.289V1556.29H934.793V1554.58H928.289V1549.59H935.993V1547.91H926.273V1563.75ZM956.974 1563.75H966.814V1562.05H962.902V1549.59H966.814V1547.91H956.974V1549.59H960.886V1562.05H956.974V1563.75ZM977.605 1564.04C981.061 1564.04 983.173 1562.05 983.173 1559.53C983.173 1557.18 981.613 1556.14 979.693 1555.3L977.485 1554.34C976.141 1553.77 974.677 1553.22 974.677 1551.7C974.677 1550.26 975.901 1549.38 977.797 1549.38C979.357 1549.38 980.557 1549.95 981.589 1550.86L982.645 1549.57C981.493 1548.42 979.765 1547.62 977.797 1547.62C974.797 1547.62 972.637 1549.4 972.637 1551.82C972.637 1554.13 974.461 1555.28 976.045 1555.9L978.301 1556.89C979.909 1557.58 981.133 1558.06 981.133 1559.7C981.133 1561.26 979.861 1562.29 977.629 1562.29C975.901 1562.29 974.269 1561.5 973.093 1560.3L971.893 1561.69C973.309 1563.13 975.301 1564.04 977.605 1564.04ZM1007.51 1563.75H1009.84L1014.83 1547.91H1012.79L1010.27 1556.48C1009.72 1558.35 1009.34 1559.84 1008.76 1561.71H1008.67C1008.09 1559.84 1007.71 1558.35 1007.15 1556.48L1004.61 1547.91H1002.5L1007.51 1563.75ZM1017.82 1563.75H1019.86L1021.38 1558.9H1027.09L1028.58 1563.75H1030.69L1025.38 1547.91H1023.13L1017.82 1563.75ZM1021.88 1557.3L1022.62 1554.87C1023.18 1553.1 1023.68 1551.39 1024.18 1549.54H1024.28C1024.78 1551.39 1025.29 1553.1 1025.84 1554.87L1026.58 1557.3H1021.88ZM1035.86 1563.75H1045.63V1562.05H1037.83V1547.91H1035.86V1563.75ZM1050.52 1563.75H1060.36V1562.05H1056.45V1549.59H1060.36V1547.91H1050.52V1549.59H1054.43V1562.05H1050.52V1563.75ZM1065.87 1563.75H1069.8C1074.46 1563.75 1077 1560.8 1077 1555.76C1077 1550.74 1074.46 1547.91 1069.71 1547.91H1065.87V1563.75ZM1067.86 1562.12V1549.54H1069.59C1073.16 1549.54 1074.94 1551.78 1074.94 1555.76C1074.94 1559.77 1073.16 1562.12 1069.59 1562.12H1067.86Z" fill="#EDEDED"/>
<rect x="1284.47" y="1625.75" width="254" height="24" rx="12" transform="rotate(-90 1284.47 1625.75)" fill="#204532"/>
<rect x="1284.47" y="1625.75" width="254" height="24" rx="12" transform="rotate(-90 1284.47 1625.75)" stroke="#3ECF8E" stroke-width="2" stroke-linecap="round"/>
<path d="M164.102 1818.29C167.174 1818.29 169.382 1816.56 169.382 1812.02V1802.16H167.438V1812.05C167.438 1815.36 165.998 1816.54 164.102 1816.54C162.206 1816.54 160.79 1815.36 160.79 1812.05V1802.16H158.774V1812.02C158.774 1816.56 161.006 1818.29 164.102 1818.29ZM179.789 1818.29C183.245 1818.29 185.357 1816.3 185.357 1813.78C185.357 1811.42 183.797 1810.39 181.877 1809.55L179.669 1808.59C178.325 1808.02 176.861 1807.46 176.861 1805.95C176.861 1804.51 178.085 1803.62 179.981 1803.62C181.541 1803.62 182.741 1804.2 183.773 1805.11L184.829 1803.82C183.677 1802.66 181.949 1801.87 179.981 1801.87C176.981 1801.87 174.821 1803.65 174.821 1806.07C174.821 1808.38 176.645 1809.53 178.229 1810.15L180.485 1811.14C182.093 1811.83 183.317 1812.31 183.317 1813.94C183.317 1815.5 182.045 1816.54 179.813 1816.54C178.085 1816.54 176.453 1815.74 175.277 1814.54L174.077 1815.94C175.493 1817.38 177.485 1818.29 179.789 1818.29ZM190.819 1818H200.779V1816.3H192.835V1810.54H199.339V1808.83H192.835V1803.84H200.539V1802.16H190.819V1818ZM206.05 1818H208.042V1811.3H210.85L214.642 1818H216.922L212.914 1811.09C215.05 1810.54 216.442 1809.07 216.442 1806.6C216.442 1803.31 214.138 1802.16 210.946 1802.16H206.05V1818ZM208.042 1809.67V1803.77H210.658C213.106 1803.77 214.45 1804.51 214.45 1806.6C214.45 1808.66 213.106 1809.67 210.658 1809.67H208.042ZM243.327 1818.29C245.343 1818.29 246.879 1817.45 248.127 1816.01L246.975 1814.78C245.967 1815.91 244.887 1816.54 243.447 1816.54C240.423 1816.54 238.479 1814.02 238.479 1810.03C238.479 1806.1 240.423 1803.62 243.447 1803.62C244.767 1803.62 245.799 1804.2 246.615 1805.06L247.743 1803.79C246.831 1802.78 245.343 1801.87 243.447 1801.87C239.343 1801.87 236.415 1804.99 236.415 1810.08C236.415 1815.24 239.367 1818.29 243.327 1818.29ZM251.19 1818H253.23L254.742 1813.15H260.454L261.942 1818H264.054L258.75 1802.16H256.494L251.19 1818ZM255.246 1811.54L255.99 1809.12C256.542 1807.34 257.046 1805.64 257.55 1803.79H257.646C258.15 1805.64 258.654 1807.34 259.206 1809.12L259.95 1811.54H255.246ZM268.004 1818H269.9V1809.7C269.9 1808.06 269.708 1806.36 269.636 1804.75H269.684L271.268 1807.99L276.38 1818H278.42V1802.16H276.524V1810.39C276.524 1812.05 276.716 1813.85 276.788 1815.41H276.74L275.156 1812.17L270.044 1802.16H268.004V1818ZM299.186 1818H301.082V1809.7C301.082 1808.06 300.89 1806.36 300.818 1804.75H300.866L302.45 1807.99L307.562 1818H309.602V1802.16H307.706V1810.39C307.706 1812.05 307.898 1813.85 307.97 1815.41H307.922L306.338 1812.17L301.226 1802.16H299.186V1818ZM319.984 1818.29C323.536 1818.29 326.032 1815.1 326.032 1810.01C326.032 1804.97 323.536 1801.87 319.984 1801.87C316.432 1801.87 313.936 1804.94 313.936 1810.01C313.936 1815.1 316.432 1818.29 319.984 1818.29ZM319.984 1816.54C317.584 1816.54 316 1813.97 316 1810.01C316 1806.07 317.584 1803.62 319.984 1803.62C322.384 1803.62 323.968 1806.07 323.968 1810.01C323.968 1813.97 322.384 1816.54 319.984 1816.54ZM331.039 1818H333.199L334.927 1811.35C335.167 1810.42 335.359 1809.43 335.551 1808.5H335.623C335.791 1809.43 335.983 1810.42 336.199 1811.35L337.999 1818H340.207L342.535 1802.14H340.639L339.439 1812.1C339.343 1813.39 339.199 1814.71 339.103 1816.01H339.007C338.671 1814.71 338.311 1813.37 338.023 1812.1L336.367 1806.24H334.951L333.295 1812.1C332.983 1813.39 332.623 1814.71 332.287 1816.01H332.215C332.119 1814.71 331.951 1813.42 331.879 1812.1L330.607 1802.14H328.615L331.039 1818ZM361.38 1818H363.18V1809.05C363.18 1807.75 363.012 1805.47 362.916 1804.2H362.988L364.14 1807.58L366.684 1813.7H367.788L370.308 1807.58L371.412 1804.2H371.508C371.412 1805.47 371.268 1807.75 371.268 1809.05V1818H373.092V1802.16H370.74L368.172 1808.9L367.308 1811.47H367.212L366.3 1808.9L363.732 1802.16H361.38V1818ZM376.876 1818H378.916L380.428 1813.15H386.14L387.628 1818H389.74L384.436 1802.16H382.18L376.876 1818ZM380.932 1811.54L381.676 1809.12C382.228 1807.34 382.732 1805.64 383.236 1803.79H383.332C383.836 1805.64 384.34 1807.34 384.892 1809.12L385.636 1811.54H380.932ZM394.05 1818H396.066V1812.96L398.802 1809.74L403.362 1818H405.594L400.05 1808.18L405.018 1802.16H402.762L396.138 1810.1H396.066V1802.16H394.05V1818ZM410.049 1818H420.009V1816.3H412.065V1810.54H418.569V1808.83H412.065V1803.84H419.769V1802.16H410.049V1818ZM157.646 1854H159.686L161.198 1849.15H166.91L168.398 1854H170.51L165.206 1838.16H162.95L157.646 1854ZM161.702 1847.54L162.446 1845.12C162.998 1843.34 163.502 1841.64 164.006 1839.79H164.102C164.606 1841.64 165.11 1843.34 165.662 1845.12L166.406 1847.54H161.702ZM179.693 1854.29C182.765 1854.29 184.973 1852.56 184.973 1848.02V1838.16H183.029V1848.05C183.029 1851.36 181.589 1852.54 179.693 1852.54C177.797 1852.54 176.381 1851.36 176.381 1848.05V1838.16H174.365V1848.02C174.365 1852.56 176.597 1854.29 179.693 1854.29ZM194.251 1854H196.267V1839.84H201.451V1838.16H189.067V1839.84H194.251V1854ZM205.546 1854H207.562V1846.54H214.138V1854H216.154V1838.16H214.138V1844.81H207.562V1838.16H205.546V1854ZM222 1854H231.96V1852.3H224.016V1846.54H230.52V1844.83H224.016V1839.84H231.72V1838.16H222V1854ZM236.823 1854H238.719V1845.7C238.719 1844.06 238.527 1842.36 238.455 1840.75H238.503L240.087 1843.99L245.199 1854H247.239V1838.16H245.343V1846.39C245.343 1848.05 245.535 1849.85 245.607 1851.41H245.559L243.975 1848.17L238.863 1838.16H236.823V1854ZM256.614 1854H258.63V1839.84H263.814V1838.16H251.43V1839.84H256.614V1854ZM268.292 1854H278.132V1852.3H274.22V1839.84H278.132V1838.16H268.292V1839.84H272.204V1852.3H268.292V1854ZM290.099 1854.29C292.115 1854.29 293.651 1853.45 294.899 1852.01L293.747 1850.78C292.739 1851.91 291.659 1852.54 290.219 1852.54C287.195 1852.54 285.251 1850.02 285.251 1846.03C285.251 1842.1 287.195 1839.62 290.219 1839.62C291.539 1839.62 292.571 1840.2 293.387 1841.06L294.515 1839.79C293.603 1838.78 292.115 1837.87 290.219 1837.87C286.115 1837.87 283.187 1840.99 283.187 1846.08C283.187 1851.24 286.139 1854.29 290.099 1854.29ZM297.962 1854H300.002L301.514 1849.15H307.226L308.714 1854H310.826L305.522 1838.16H303.266L297.962 1854ZM302.018 1847.54L302.762 1845.12C303.314 1843.34 303.818 1841.64 304.322 1839.79H304.418C304.922 1841.64 305.426 1843.34 305.978 1845.12L306.722 1847.54H302.018ZM318.976 1854H320.992V1839.84H326.176V1838.16H313.792V1839.84H318.976V1854ZM331.135 1854H341.095V1852.3H333.151V1846.54H339.655V1844.83H333.151V1839.84H340.855V1838.16H331.135V1854ZM346.005 1854H349.941C354.597 1854 357.141 1851.05 357.141 1846.01C357.141 1840.99 354.597 1838.16 349.845 1838.16H346.005V1854ZM347.997 1852.37V1839.79H349.725C353.301 1839.79 355.077 1842.02 355.077 1846.01C355.077 1850.02 353.301 1852.37 349.725 1852.37H347.997ZM377.547 1854H379.539V1847.3H382.347L386.139 1854H388.419L384.411 1847.09C386.547 1846.54 387.939 1845.07 387.939 1842.6C387.939 1839.31 385.635 1838.16 382.443 1838.16H377.547V1854ZM379.539 1845.67V1839.77H382.155C384.603 1839.77 385.947 1840.51 385.947 1842.6C385.947 1844.66 384.603 1845.67 382.155 1845.67H379.539ZM393.497 1854H403.457V1852.3H395.513V1846.54H402.017V1844.83H395.513V1839.84H403.217V1838.16H393.497V1854ZM417.824 1857.94C418.52 1857.94 419.096 1857.79 419.6 1857.6L419.24 1855.99C418.952 1856.11 418.544 1856.23 418.064 1856.23C416.432 1856.23 415.184 1855.54 414.656 1854.17C417.56 1853.57 419.48 1850.52 419.48 1846.01C419.48 1840.97 417.056 1837.85 413.504 1837.85C409.928 1837.85 407.504 1840.94 407.504 1846.01C407.504 1850.59 409.496 1853.66 412.52 1854.19C413.312 1856.35 415.04 1857.94 417.824 1857.94ZM413.504 1852.56C411.08 1852.56 409.544 1849.94 409.544 1846.01C409.544 1842.07 411.08 1839.58 413.504 1839.58C415.904 1839.58 417.44 1842.07 417.44 1846.01C417.44 1849.94 415.904 1852.56 413.504 1852.56ZM429.143 1854.29C432.215 1854.29 434.423 1852.56 434.423 1848.02V1838.16H432.479V1848.05C432.479 1851.36 431.039 1852.54 429.143 1852.54C427.247 1852.54 425.831 1851.36 425.831 1848.05V1838.16H423.815V1848.02C423.815 1852.56 426.047 1854.29 429.143 1854.29ZM440.269 1854H450.229V1852.3H442.285V1846.54H448.789V1844.83H442.285V1839.84H449.989V1838.16H440.269V1854ZM460.42 1854.29C463.876 1854.29 465.988 1852.3 465.988 1849.78C465.988 1847.42 464.428 1846.39 462.508 1845.55L460.3 1844.59C458.956 1844.02 457.492 1843.46 457.492 1841.95C457.492 1840.51 458.716 1839.62 460.612 1839.62C462.172 1839.62 463.372 1840.2 464.404 1841.11L465.46 1839.82C464.308 1838.66 462.58 1837.87 460.612 1837.87C457.612 1837.87 455.452 1839.65 455.452 1842.07C455.452 1844.38 457.276 1845.53 458.86 1846.15L461.116 1847.14C462.724 1847.83 463.948 1848.31 463.948 1849.94C463.948 1851.5 462.676 1852.54 460.444 1852.54C458.716 1852.54 457.084 1851.74 455.908 1850.54L454.708 1851.94C456.124 1853.38 458.116 1854.29 460.42 1854.29ZM474.882 1854H476.898V1839.84H482.082V1838.16H469.698V1839.84H474.882V1854ZM491.601 1854.29C495.057 1854.29 497.169 1852.3 497.169 1849.78C497.169 1847.42 495.609 1846.39 493.689 1845.55L491.481 1844.59C490.137 1844.02 488.673 1843.46 488.673 1841.95C488.673 1840.51 489.897 1839.62 491.793 1839.62C493.353 1839.62 494.553 1840.2 495.585 1841.11L496.641 1839.82C495.489 1838.66 493.761 1837.87 491.793 1837.87C488.793 1837.87 486.633 1839.65 486.633 1842.07C486.633 1844.38 488.457 1845.53 490.041 1846.15L492.297 1847.14C493.905 1847.83 495.129 1848.31 495.129 1849.94C495.129 1851.5 493.857 1852.54 491.625 1852.54C489.897 1852.54 488.265 1851.74 487.089 1850.54L485.889 1851.94C487.305 1853.38 489.297 1854.29 491.601 1854.29Z" fill="#EDEDED"/>
<circle cx="103.588" cy="1822.5" r="36" fill="url(#paint0_radial_26_19432)"/>
<circle cx="103.588" cy="1822.5" r="20.5" fill="#3ECF8E"/>
<defs>
<radialGradient id="paint0_radial_26_19432" cx="0" cy="0" r="1" gradientUnits="userSpaceOnUse" gradientTransform="translate(103.588 1822.5) rotate(90) scale(36)">
<stop stop-color="#EDEDED" stop-opacity="0.5"/>
<stop offset="1" stop-color="#D9D9D9" stop-opacity="0"/>
</radialGradient>
</defs>
</svg>
