<svg width="1400" height="1347" viewBox="0 0 1400 1347" fill="none" xmlns="http://www.w3.org/2000/svg">
<path d="M107.768 280.887C111.2 280.887 113.216 278.895 113.216 274.551V264.759H110.528V274.743C110.528 277.359 109.448 278.487 107.768 278.487C106.064 278.487 105.008 277.359 105.008 274.743V264.759H102.248V274.551C102.248 278.895 104.312 280.887 107.768 280.887ZM124.558 280.887C128.23 280.887 130.366 278.751 130.366 276.183C130.366 273.879 128.95 272.727 126.958 271.911L124.894 271.023C123.478 270.447 122.206 270.015 122.206 268.767C122.206 267.567 123.214 266.871 124.846 266.871C126.31 266.871 127.39 267.375 128.446 268.239L129.886 266.487C128.59 265.215 126.79 264.471 124.846 264.471C121.654 264.471 119.398 266.391 119.398 268.911C119.398 271.215 121.102 272.463 122.782 273.111L124.918 274.047C126.478 274.671 127.534 275.079 127.534 276.399C127.534 277.671 126.55 278.487 124.606 278.487C123.07 278.487 121.51 277.743 120.334 276.663L118.726 278.559C120.262 280.047 122.35 280.887 124.558 280.887ZM136.621 280.599H146.869V278.247H139.381V273.519H145.525V271.191H139.381V267.087H146.629V264.759H136.621V280.599ZM152.932 280.599H155.692V274.383H158.02L161.428 280.599H164.548L160.78 273.951C162.676 273.303 163.924 271.839 163.924 269.439C163.924 265.911 161.404 264.759 158.164 264.759H152.932V280.599ZM155.692 272.151V266.967H157.876C160.036 266.967 161.188 267.591 161.188 269.439C161.188 271.239 160.036 272.151 157.876 272.151H155.692ZM184.977 280.599H187.785L189.033 276.279H194.241L195.465 280.599H198.393L193.305 264.759H190.065L184.977 280.599ZM189.633 274.095L190.185 272.127C190.665 270.447 191.145 268.671 191.577 266.919H191.673C192.129 268.671 192.609 270.447 193.089 272.127L193.641 274.095H189.633ZM209.424 280.887C211.44 280.887 213.192 280.023 214.224 279.015V272.031H209.016V274.311H211.728V277.767C211.248 278.223 210.432 278.487 209.592 278.487C206.808 278.487 205.296 276.255 205.296 272.631C205.296 269.055 207.048 266.871 209.544 266.871C210.912 266.871 211.752 267.399 212.472 268.167L214.008 266.439C213.048 265.455 211.632 264.471 209.544 264.471C205.464 264.471 202.44 267.519 202.44 272.727C202.44 277.959 205.44 280.887 209.424 280.887ZM220.574 280.599H230.822V278.247H223.334V273.519H229.478V271.191H223.334V267.087H230.582V264.759H220.574V280.599ZM236.645 280.599H239.285V273.591C239.285 271.839 239.021 269.943 238.901 268.263H238.973L240.437 271.599L244.637 280.599H247.469V264.759H244.829V271.719C244.829 273.471 245.093 275.463 245.213 277.095H245.141L243.677 273.735L239.453 264.759H236.645V280.599ZM257.443 280.599H260.227V267.087H265.171V264.759H252.523V267.087H257.443V280.599Z" fill="#171717"/>
<path d="M1174.8 280.887C1178.48 280.887 1180.61 278.751 1180.61 276.183C1180.61 273.879 1179.2 272.727 1177.2 271.911L1175.14 271.023C1173.72 270.447 1172.45 270.015 1172.45 268.767C1172.45 267.567 1173.46 266.871 1175.09 266.871C1176.56 266.871 1177.64 267.375 1178.69 268.239L1180.13 266.487C1178.84 265.215 1177.04 264.471 1175.09 264.471C1171.9 264.471 1169.64 266.391 1169.64 268.911C1169.64 271.215 1171.35 272.463 1173.03 273.111L1175.16 274.047C1176.72 274.671 1177.78 275.079 1177.78 276.399C1177.78 277.671 1176.8 278.487 1174.85 278.487C1173.32 278.487 1171.76 277.743 1170.58 276.663L1168.97 278.559C1170.51 280.047 1172.6 280.887 1174.8 280.887ZM1191.59 280.887C1195.03 280.887 1197.04 278.895 1197.04 274.551V264.759H1194.35V274.743C1194.35 277.359 1193.27 278.487 1191.59 278.487C1189.89 278.487 1188.83 277.359 1188.83 274.743V264.759H1186.07V274.551C1186.07 278.895 1188.14 280.887 1191.59 280.887ZM1203.25 280.599H1206.01V274.743H1208.53C1211.91 274.743 1214.48 273.135 1214.48 269.631C1214.48 265.959 1211.96 264.759 1208.53 264.759H1203.25V280.599ZM1206.01 272.535V266.967H1208.29C1210.59 266.967 1211.74 267.639 1211.74 269.631C1211.74 271.575 1210.64 272.535 1208.29 272.535H1206.01ZM1218.43 280.599H1221.24L1222.49 276.279H1227.7L1228.92 280.599H1231.85L1226.76 264.759H1223.52L1218.43 280.599ZM1223.09 274.095L1223.64 272.127C1224.12 270.447 1224.6 268.671 1225.03 266.919H1225.13C1225.58 268.671 1226.06 270.447 1226.54 272.127L1227.1 274.095H1223.09ZM1236.97 280.599H1241.99C1245.42 280.599 1247.94 279.111 1247.94 275.943C1247.94 273.783 1246.69 272.583 1244.41 272.199V272.103C1246.26 271.599 1247.15 270.135 1247.15 268.647C1247.15 265.743 1244.8 264.759 1241.58 264.759H1236.97V280.599ZM1239.73 271.335V266.919H1241.39C1243.43 266.919 1244.44 267.519 1244.44 268.983C1244.44 270.471 1243.53 271.335 1241.32 271.335H1239.73ZM1239.73 278.439V273.327H1241.7C1244.05 273.327 1245.23 274.071 1245.23 275.775C1245.23 277.575 1244.01 278.439 1241.7 278.439H1239.73ZM1252.01 280.599H1254.82L1256.07 276.279H1261.28L1262.5 280.599H1265.43L1260.34 264.759H1257.1L1252.01 280.599ZM1256.67 274.095L1257.22 272.127C1257.7 270.447 1258.18 268.671 1258.61 266.919H1258.71C1259.16 268.671 1259.64 270.447 1260.12 272.127L1260.68 274.095H1256.67ZM1275.55 280.887C1279.22 280.887 1281.36 278.751 1281.36 276.183C1281.36 273.879 1279.94 272.727 1277.95 271.911L1275.88 271.023C1274.47 270.447 1273.2 270.015 1273.2 268.767C1273.2 267.567 1274.2 266.871 1275.84 266.871C1277.3 266.871 1278.38 267.375 1279.44 268.239L1280.88 266.487C1279.58 265.215 1277.78 264.471 1275.84 264.471C1272.64 264.471 1270.39 266.391 1270.39 268.911C1270.39 271.215 1272.09 272.463 1273.77 273.111L1275.91 274.047C1277.47 274.671 1278.52 275.079 1278.52 276.399C1278.52 277.671 1277.54 278.487 1275.6 278.487C1274.06 278.487 1272.5 277.743 1271.32 276.663L1269.72 278.559C1271.25 280.047 1273.34 280.887 1275.55 280.887ZM1287.61 280.599H1297.86V278.247H1290.37V273.519H1296.51V271.191H1290.37V267.087H1297.62V264.759H1287.61V280.599Z" fill="#171717"/>
<path d="M106.46 433.5C105.632 433.5 104.96 434.171 104.96 435C104.96 435.828 105.632 436.5 106.46 436.5V433.5ZM1286.58 436.061C1287.17 435.475 1287.17 434.525 1286.58 433.939L1277.03 424.393C1276.45 423.807 1275.5 423.807 1274.91 424.393C1274.33 424.979 1274.33 425.929 1274.91 426.515L1283.4 435L1274.91 443.485C1274.33 444.071 1274.33 445.021 1274.91 445.606C1275.5 446.192 1276.45 446.192 1277.03 445.606L1286.58 436.061ZM106.46 436.5H1285.52V433.5H106.46V436.5Z" fill="#171717"/>
<path d="M131.184 407.486C134.256 407.486 136.464 405.758 136.464 401.222V391.358H134.52V401.246C134.52 404.558 133.08 405.734 131.184 405.734C129.288 405.734 127.872 404.558 127.872 401.246V391.358H125.856V401.222C125.856 405.758 128.088 407.486 131.184 407.486ZM146.871 407.486C150.327 407.486 152.439 405.494 152.439 402.974C152.439 400.622 150.879 399.59 148.959 398.75L146.751 397.79C145.407 397.214 143.943 396.662 143.943 395.15C143.943 393.71 145.167 392.822 147.063 392.822C148.623 392.822 149.823 393.398 150.855 394.31L151.911 393.014C150.759 391.862 149.031 391.07 147.063 391.07C144.063 391.07 141.903 392.846 141.903 395.27C141.903 397.574 143.727 398.726 145.311 399.35L147.567 400.334C149.175 401.03 150.399 401.51 150.399 403.142C150.399 404.702 149.127 405.734 146.895 405.734C145.167 405.734 143.535 404.942 142.359 403.742L141.159 405.134C142.575 406.574 144.567 407.486 146.871 407.486ZM157.901 407.198H167.861V405.494H159.917V399.734H166.421V398.03H159.917V393.038H167.621V391.358H157.901V407.198ZM173.132 407.198H175.124V400.502H177.932L181.724 407.198H184.004L179.996 400.286C182.132 399.734 183.524 398.27 183.524 395.798C183.524 392.51 181.22 391.358 178.028 391.358H173.132V407.198ZM175.124 398.87V392.966H177.74C180.188 392.966 181.532 393.71 181.532 395.798C181.532 397.862 180.188 398.87 177.74 398.87H175.124ZM204.193 407.198H214.033V405.494H210.121V393.038H214.033V391.358H204.193V393.038H208.105V405.494H204.193V407.198ZM219.496 407.198H221.392V398.894C221.392 397.262 221.2 395.558 221.128 393.95H221.176L222.76 397.19L227.872 407.198H229.912V391.358H228.016V399.59C228.016 401.246 228.208 403.046 228.28 404.606H228.232L226.648 401.366L221.536 391.358H219.496V407.198ZM235.375 407.198H245.215V405.494H241.303V393.038H245.215V391.358H235.375V393.038H239.287V405.494H235.375V407.198ZM254.877 407.198H256.893V393.038H262.077V391.358H249.693V393.038H254.877V407.198ZM266.556 407.198H276.396V405.494H272.484V393.038H276.396V391.358H266.556V393.038H270.468V405.494H266.556V407.198ZM280.634 407.198H282.674L284.186 402.35H289.898L291.386 407.198H293.498L288.194 391.358H285.938L280.634 407.198ZM284.69 400.742L285.434 398.318C285.986 396.542 286.49 394.838 286.994 392.99H287.09C287.594 394.838 288.098 396.542 288.65 398.318L289.394 400.742H284.69ZM301.649 407.198H303.665V393.038H308.849V391.358H296.465V393.038H301.649V407.198ZM313.808 407.198H323.768V405.494H315.824V399.734H322.328V398.03H315.824V393.038H323.528V391.358H313.808V407.198ZM333.958 407.486C337.414 407.486 339.526 405.494 339.526 402.974C339.526 400.622 337.966 399.59 336.046 398.75L333.838 397.79C332.494 397.214 331.03 396.662 331.03 395.15C331.03 393.71 332.254 392.822 334.15 392.822C335.71 392.822 336.91 393.398 337.942 394.31L338.998 393.014C337.846 391.862 336.118 391.07 334.15 391.07C331.15 391.07 328.99 392.846 328.99 395.27C328.99 397.574 330.814 398.726 332.398 399.35L334.654 400.334C336.262 401.03 337.486 401.51 337.486 403.142C337.486 404.702 336.214 405.734 333.982 405.734C332.254 405.734 330.622 404.942 329.446 403.742L328.246 405.134C329.662 406.574 331.654 407.486 333.958 407.486ZM358.588 407.198H360.628L362.14 402.35H367.852L369.34 407.198H371.452L366.148 391.358H363.892L358.588 407.198ZM362.644 400.742L363.388 398.318C363.94 396.542 364.444 394.838 364.948 392.99H365.044C365.548 394.838 366.052 396.542 366.604 398.318L367.348 400.742H362.644ZM380.634 407.486C383.706 407.486 385.914 405.758 385.914 401.222V391.358H383.97V401.246C383.97 404.558 382.53 405.734 380.634 405.734C378.738 405.734 377.322 404.558 377.322 401.246V391.358H375.306V401.222C375.306 405.758 377.538 407.486 380.634 407.486ZM395.193 407.198H397.209V393.038H402.393V391.358H390.009V393.038H395.193V407.198ZM406.487 407.198H408.503V399.734H415.079V407.198H417.095V391.358H415.079V398.006H408.503V391.358H406.487V407.198ZM422.942 407.198H432.902V405.494H424.958V399.734H431.462V398.03H424.958V393.038H432.662V391.358H422.942V407.198ZM441.965 407.198H443.981V393.038H449.165V391.358H436.781V393.038H441.965V407.198ZM453.643 407.198H463.483V405.494H459.571V393.038H463.483V391.358H453.643V393.038H457.555V405.494H453.643V407.198ZM475.45 407.486C477.466 407.486 479.002 406.646 480.25 405.206L479.098 403.982C478.09 405.11 477.01 405.734 475.57 405.734C472.546 405.734 470.602 403.214 470.602 399.23C470.602 395.294 472.546 392.822 475.57 392.822C476.89 392.822 477.922 393.398 478.738 394.262L479.866 392.99C478.954 391.982 477.466 391.07 475.57 391.07C471.466 391.07 468.538 394.19 468.538 399.278C468.538 404.438 471.49 407.486 475.45 407.486ZM483.313 407.198H485.353L486.865 402.35H492.577L494.065 407.198H496.177L490.873 391.358H488.617L483.313 407.198ZM487.369 400.742L488.113 398.318C488.665 396.542 489.169 394.838 489.673 392.99H489.769C490.273 394.838 490.777 396.542 491.329 398.318L492.073 400.742H487.369ZM504.327 407.198H506.343V393.038H511.527V391.358H499.143V393.038H504.327V407.198ZM516.006 407.198H525.846V405.494H521.934V393.038H525.846V391.358H516.006V393.038H519.918V405.494H516.006V407.198ZM536.516 407.486C540.068 407.486 542.564 404.294 542.564 399.206C542.564 394.166 540.068 391.07 536.516 391.07C532.964 391.07 530.468 394.142 530.468 399.206C530.468 404.294 532.964 407.486 536.516 407.486ZM536.516 405.734C534.116 405.734 532.532 403.166 532.532 399.206C532.532 395.27 534.116 392.822 536.516 392.822C538.916 392.822 540.5 395.27 540.5 399.206C540.5 403.166 538.916 405.734 536.516 405.734ZM546.899 407.198H548.795V398.894C548.795 397.262 548.603 395.558 548.531 393.95H548.579L550.163 397.19L555.275 407.198H557.315V391.358H555.419V399.59C555.419 401.246 555.611 403.046 555.683 404.606H555.635L554.051 401.366L548.939 391.358H546.899V407.198Z" fill="#171717"/>
<path d="M904.504 568.693H906.496V561.997H909.304L913.096 568.693H915.376L911.368 561.781C913.504 561.229 914.896 559.765 914.896 557.293C914.896 554.005 912.592 552.853 909.4 552.853H904.504V568.693ZM906.496 560.365V554.461H909.112C911.56 554.461 912.904 555.205 912.904 557.293C912.904 559.357 911.56 560.365 909.112 560.365H906.496ZM920.455 568.693H930.415V566.989H922.471V561.229H928.975V559.525H922.471V554.533H930.175V552.853H920.455V568.693ZM935.326 568.693H939.262C943.918 568.693 946.462 565.741 946.462 560.701C946.462 555.685 943.918 552.853 939.166 552.853H935.326V568.693ZM937.318 567.061V554.485H939.046C942.622 554.485 944.398 556.717 944.398 560.701C944.398 564.709 942.622 567.061 939.046 567.061H937.318ZM951.156 568.693H960.996V566.989H957.084V554.533H960.996V552.853H951.156V554.533H955.068V566.989H951.156V568.693ZM966.867 568.693H968.859V561.997H971.667L975.459 568.693H977.739L973.731 561.781C975.867 561.229 977.259 559.765 977.259 557.293C977.259 554.005 974.955 552.853 971.763 552.853H966.867V568.693ZM968.859 560.365V554.461H971.475C973.923 554.461 975.267 555.205 975.267 557.293C975.267 559.357 973.923 560.365 971.475 560.365H968.859ZM982.818 568.693H992.778V566.989H984.834V561.229H991.338V559.525H984.834V554.533H992.538V552.853H982.818V568.693ZM1004.14 568.981C1006.16 568.981 1007.7 568.141 1008.94 566.701L1007.79 565.477C1006.78 566.605 1005.7 567.229 1004.26 567.229C1001.24 567.229 999.296 564.709 999.296 560.725C999.296 556.789 1001.24 554.317 1004.26 554.317C1005.58 554.317 1006.62 554.893 1007.43 555.757L1008.56 554.485C1007.65 553.477 1006.16 552.565 1004.26 552.565C1000.16 552.565 997.232 555.685 997.232 560.773C997.232 565.933 1000.18 568.981 1004.14 568.981ZM1017.43 568.693H1019.45V554.533H1024.63V552.853H1012.25V554.533H1017.43V568.693ZM1048.61 568.693H1050.63V554.533H1055.81V552.853H1043.43V554.533H1048.61V568.693ZM1065.21 568.981C1068.76 568.981 1071.26 565.789 1071.26 560.701C1071.26 555.661 1068.76 552.565 1065.21 552.565C1061.66 552.565 1059.16 555.637 1059.16 560.701C1059.16 565.789 1061.66 568.981 1065.21 568.981ZM1065.21 567.229C1062.81 567.229 1061.23 564.661 1061.23 560.701C1061.23 556.765 1062.81 554.317 1065.21 554.317C1067.61 554.317 1069.19 556.765 1069.19 560.701C1069.19 564.661 1067.61 567.229 1065.21 567.229ZM1092.41 568.693H1102.18V566.989H1094.38V552.853H1092.41V568.693ZM1111.98 568.981C1115.53 568.981 1118.03 565.789 1118.03 560.701C1118.03 555.661 1115.53 552.565 1111.98 552.565C1108.43 552.565 1105.93 555.637 1105.93 560.701C1105.93 565.789 1108.43 568.981 1111.98 568.981ZM1111.98 567.229C1109.58 567.229 1108 564.661 1108 560.701C1108 556.765 1109.58 554.317 1111.98 554.317C1114.38 554.317 1115.97 556.765 1115.97 560.701C1115.97 564.661 1114.38 567.229 1111.98 567.229ZM1128.46 568.981C1130.5 568.981 1132.16 568.165 1133.17 567.157V560.485H1128.17V562.141H1131.32V566.293C1130.72 566.869 1129.69 567.229 1128.58 567.229C1125.49 567.229 1123.73 564.709 1123.73 560.725C1123.73 556.789 1125.68 554.317 1128.63 554.317C1130.14 554.317 1131.08 554.941 1131.85 555.757L1132.97 554.485C1132.09 553.549 1130.72 552.565 1128.63 552.565C1124.55 552.565 1121.65 555.661 1121.65 560.773C1121.65 565.933 1124.5 568.981 1128.46 568.981ZM1138.24 568.693H1148.08V566.989H1144.17V554.533H1148.08V552.853H1138.24V554.533H1142.16V566.989H1138.24V568.693ZM1153.55 568.693H1155.44V560.389C1155.44 558.757 1155.25 557.053 1155.18 555.445H1155.23L1156.81 558.685L1161.92 568.693H1163.96V552.853H1162.07V561.085C1162.07 562.741 1162.26 564.541 1162.33 566.101H1162.28L1160.7 562.861L1155.59 552.853H1153.55V568.693ZM1185.18 568.693H1187.18V562.405H1190.01C1193.46 562.405 1195.82 560.845 1195.82 557.509C1195.82 554.029 1193.49 552.853 1190.01 552.853H1185.18V568.693ZM1187.18 560.773V554.461H1189.74C1192.48 554.461 1193.82 555.205 1193.82 557.509C1193.82 559.765 1192.5 560.773 1189.74 560.773H1187.18ZM1200.73 568.693H1202.72V561.997H1205.53L1209.32 568.693H1211.6L1207.59 561.781C1209.73 561.229 1211.12 559.765 1211.12 557.293C1211.12 554.005 1208.81 552.853 1205.62 552.853H1200.73V568.693ZM1202.72 560.365V554.461H1205.33C1207.78 554.461 1209.13 555.205 1209.13 557.293C1209.13 559.357 1207.78 560.365 1205.33 560.365H1202.72ZM1221.12 568.981C1224.67 568.981 1227.16 565.789 1227.16 560.701C1227.16 555.661 1224.67 552.565 1221.12 552.565C1217.56 552.565 1215.07 555.637 1215.07 560.701C1215.07 565.789 1217.56 568.981 1221.12 568.981ZM1221.12 567.229C1218.72 567.229 1217.13 564.661 1217.13 560.701C1217.13 556.765 1218.72 554.317 1221.12 554.317C1223.52 554.317 1225.1 556.765 1225.1 560.701C1225.1 564.661 1223.52 567.229 1221.12 567.229ZM1231.33 568.693H1233.13V559.741C1233.13 558.445 1232.96 556.165 1232.87 554.893H1232.94L1234.09 558.277L1236.64 564.397H1237.74L1240.26 558.277L1241.36 554.893H1241.46C1241.36 556.165 1241.22 558.445 1241.22 559.741V568.693H1243.04V552.853H1240.69L1238.12 559.597L1237.26 562.165H1237.16L1236.25 559.597L1233.68 552.853H1231.33V568.693ZM1248.51 568.693H1250.5V562.405H1253.33C1256.79 562.405 1259.14 560.845 1259.14 557.509C1259.14 554.029 1256.81 552.853 1253.33 552.853H1248.51V568.693ZM1250.5 560.773V554.461H1253.07C1255.8 554.461 1257.15 555.205 1257.15 557.509C1257.15 559.765 1255.83 560.773 1253.07 560.773H1250.5ZM1267.84 568.693H1269.86V554.533H1275.04V552.853H1262.66V554.533H1267.84V568.693Z" fill="#171717"/>
<path d="M779.422 938.988H781.414V932.292H784.222L788.014 938.988H790.294L786.286 932.076C788.422 931.524 789.814 930.06 789.814 927.588C789.814 924.3 787.51 923.148 784.318 923.148H779.422V938.988ZM781.414 930.66V924.756H784.03C786.478 924.756 787.822 925.5 787.822 927.588C787.822 929.652 786.478 930.66 784.03 930.66H781.414ZM795.373 938.988H805.333V937.284H797.389V931.524H803.893V929.82H797.389V924.828H805.093V923.148H795.373V938.988ZM810.243 938.988H814.179C818.835 938.988 821.379 936.036 821.379 930.996C821.379 925.98 818.835 923.148 814.083 923.148H810.243V938.988ZM812.235 937.356V924.78H813.963C817.539 924.78 819.315 927.012 819.315 930.996C819.315 935.004 817.539 937.356 813.963 937.356H812.235ZM826.074 938.988H835.914V937.284H832.002V924.828H835.914V923.148H826.074V924.828H829.986V937.284H826.074V938.988ZM841.785 938.988H843.777V932.292H846.585L850.377 938.988H852.657L848.649 932.076C850.785 931.524 852.177 930.06 852.177 927.588C852.177 924.3 849.873 923.148 846.681 923.148H841.785V938.988ZM843.777 930.66V924.756H846.393C848.841 924.756 850.185 925.5 850.185 927.588C850.185 929.652 848.841 930.66 846.393 930.66H843.777ZM857.735 938.988H867.695V937.284H859.751V931.524H866.255V929.82H859.751V924.828H867.455V923.148H857.735V938.988ZM879.062 939.276C881.078 939.276 882.614 938.436 883.862 936.996L882.71 935.772C881.702 936.9 880.622 937.524 879.182 937.524C876.158 937.524 874.214 935.004 874.214 931.02C874.214 927.084 876.158 924.612 879.182 924.612C880.502 924.612 881.534 925.188 882.35 926.052L883.478 924.78C882.566 923.772 881.078 922.86 879.182 922.86C875.078 922.86 872.15 925.98 872.15 931.068C872.15 936.228 875.102 939.276 879.062 939.276ZM892.348 938.988H894.364V924.828H899.548V923.148H887.164V924.828H892.348V938.988ZM918.106 938.988H920.146L921.658 934.14H927.37L928.858 938.988H930.97L925.666 923.148H923.41L918.106 938.988ZM922.162 932.532L922.906 930.108C923.458 928.332 923.962 926.628 924.466 924.78H924.562C925.066 926.628 925.57 928.332 926.122 930.108L926.866 932.532H922.162ZM934.92 938.988H936.816V930.684C936.816 929.052 936.624 927.348 936.552 925.74H936.6L938.184 928.98L943.296 938.988H945.336V923.148H943.44V931.38C943.44 933.036 943.632 934.836 943.704 936.396H943.656L942.072 933.156L936.96 923.148H934.92V938.988ZM950.559 938.988H954.495C959.151 938.988 961.695 936.036 961.695 930.996C961.695 925.98 959.151 923.148 954.399 923.148H950.559V938.988ZM952.551 937.356V924.78H954.279C957.855 924.78 959.631 927.012 959.631 930.996C959.631 935.004 957.855 937.356 954.279 937.356H952.551ZM982.1 938.988H984.092V932.292H986.9L990.692 938.988H992.972L988.964 932.076C991.1 931.524 992.492 930.06 992.492 927.588C992.492 924.3 990.188 923.148 986.996 923.148H982.1V938.988ZM984.092 930.66V924.756H986.708C989.156 924.756 990.5 925.5 990.5 927.588C990.5 929.652 989.156 930.66 986.708 930.66H984.092ZM998.051 938.988H1008.01V937.284H1000.07V931.524H1006.57V929.82H1000.07V924.828H1007.77V923.148H998.051V938.988ZM1017.07 938.988H1019.09V924.828H1024.27V923.148H1011.89V924.828H1017.07V938.988ZM1033.7 939.276C1036.77 939.276 1038.98 937.548 1038.98 933.012V923.148H1037.03V933.036C1037.03 936.348 1035.59 937.524 1033.7 937.524C1031.8 937.524 1030.38 936.348 1030.38 933.036V923.148H1028.37V933.012C1028.37 937.548 1030.6 939.276 1033.7 939.276ZM1044.46 938.988H1046.45V932.292H1049.26L1053.05 938.988H1055.33L1051.33 932.076C1053.46 931.524 1054.85 930.06 1054.85 927.588C1054.85 924.3 1052.55 923.148 1049.36 923.148H1044.46V938.988ZM1046.45 930.66V924.756H1049.07C1051.52 924.756 1052.86 925.5 1052.86 927.588C1052.86 929.652 1051.52 930.66 1049.07 930.66H1046.45ZM1059.65 938.988H1061.54V930.684C1061.54 929.052 1061.35 927.348 1061.28 925.74H1061.33L1062.91 928.98L1068.02 938.988H1070.06V923.148H1068.17V931.38C1068.17 933.036 1068.36 934.836 1068.43 936.396H1068.38L1066.8 933.156L1061.69 923.148H1059.65V938.988ZM1096.06 939.276C1099.13 939.276 1101.34 937.548 1101.34 933.012V923.148H1099.39V933.036C1099.39 936.348 1097.95 937.524 1096.06 937.524C1094.16 937.524 1092.75 936.348 1092.75 933.036V923.148H1090.73V933.012C1090.73 937.548 1092.96 939.276 1096.06 939.276ZM1111.75 939.276C1115.2 939.276 1117.31 937.284 1117.31 934.764C1117.31 932.412 1115.75 931.38 1113.83 930.54L1111.63 929.58C1110.28 929.004 1108.82 928.452 1108.82 926.94C1108.82 925.5 1110.04 924.612 1111.94 924.612C1113.5 924.612 1114.7 925.188 1115.73 926.1L1116.79 924.804C1115.63 923.652 1113.91 922.86 1111.94 922.86C1108.94 922.86 1106.78 924.636 1106.78 927.06C1106.78 929.364 1108.6 930.516 1110.19 931.14L1112.44 932.124C1114.05 932.82 1115.27 933.3 1115.27 934.932C1115.27 936.492 1114 937.524 1111.77 937.524C1110.04 937.524 1108.41 936.732 1107.23 935.532L1106.03 936.924C1107.45 938.364 1109.44 939.276 1111.75 939.276ZM1122.78 938.988H1132.74V937.284H1124.79V931.524H1131.3V929.82H1124.79V924.828H1132.5V923.148H1122.78V938.988ZM1138.01 938.988H1140V932.292H1142.81L1146.6 938.988H1148.88L1144.87 932.076C1147.01 931.524 1148.4 930.06 1148.4 927.588C1148.4 924.3 1146.09 923.148 1142.9 923.148H1138.01V938.988ZM1140 930.66V924.756H1142.61C1145.06 924.756 1146.41 925.5 1146.41 927.588C1146.41 929.652 1145.06 930.66 1142.61 930.66H1140ZM1174.11 939.276C1177.56 939.276 1179.68 937.284 1179.68 934.764C1179.68 932.412 1178.12 931.38 1176.2 930.54L1173.99 929.58C1172.64 929.004 1171.18 928.452 1171.18 926.94C1171.18 925.5 1172.4 924.612 1174.3 924.612C1175.86 924.612 1177.06 925.188 1178.09 926.1L1179.15 924.804C1178 923.652 1176.27 922.86 1174.3 922.86C1171.3 922.86 1169.14 924.636 1169.14 927.06C1169.14 929.364 1170.96 930.516 1172.55 931.14L1174.8 932.124C1176.41 932.82 1177.64 933.3 1177.64 934.932C1177.64 936.492 1176.36 937.524 1174.13 937.524C1172.4 937.524 1170.77 936.732 1169.6 935.532L1168.4 936.924C1169.81 938.364 1171.8 939.276 1174.11 939.276ZM1185.14 938.988H1195.1V937.284H1187.15V931.524H1193.66V929.82H1187.15V924.828H1194.86V923.148H1185.14V938.988ZM1205.29 939.276C1208.74 939.276 1210.86 937.284 1210.86 934.764C1210.86 932.412 1209.3 931.38 1207.38 930.54L1205.17 929.58C1203.82 929.004 1202.36 928.452 1202.36 926.94C1202.36 925.5 1203.58 924.612 1205.48 924.612C1207.04 924.612 1208.24 925.188 1209.27 926.1L1210.33 924.804C1209.18 923.652 1207.45 922.86 1205.48 922.86C1202.48 922.86 1200.32 924.636 1200.32 927.06C1200.32 929.364 1202.14 930.516 1203.73 931.14L1205.98 932.124C1207.59 932.82 1208.82 933.3 1208.82 934.932C1208.82 936.492 1207.54 937.524 1205.31 937.524C1203.58 937.524 1201.95 936.732 1200.78 935.532L1199.58 936.924C1200.99 938.364 1202.98 939.276 1205.29 939.276ZM1220.88 939.276C1224.34 939.276 1226.45 937.284 1226.45 934.764C1226.45 932.412 1224.89 931.38 1222.97 930.54L1220.76 929.58C1219.42 929.004 1217.95 928.452 1217.95 926.94C1217.95 925.5 1219.18 924.612 1221.07 924.612C1222.63 924.612 1223.83 925.188 1224.86 926.1L1225.92 924.804C1224.77 923.652 1223.04 922.86 1221.07 922.86C1218.07 922.86 1215.91 924.636 1215.91 927.06C1215.91 929.364 1217.74 930.516 1219.32 931.14L1221.58 932.124C1223.18 932.82 1224.41 933.3 1224.41 934.932C1224.41 936.492 1223.14 937.524 1220.9 937.524C1219.18 937.524 1217.54 936.732 1216.37 935.532L1215.17 936.924C1216.58 938.364 1218.58 939.276 1220.88 939.276ZM1231.43 938.988H1241.27V937.284H1237.36V924.828H1241.27V923.148H1231.43V924.828H1235.34V937.284H1231.43V938.988ZM1251.94 939.276C1255.49 939.276 1257.99 936.084 1257.99 930.996C1257.99 925.956 1255.49 922.86 1251.94 922.86C1248.39 922.86 1245.89 925.932 1245.89 930.996C1245.89 936.084 1248.39 939.276 1251.94 939.276ZM1251.94 937.524C1249.54 937.524 1247.96 934.956 1247.96 930.996C1247.96 927.06 1249.54 924.612 1251.94 924.612C1254.34 924.612 1255.92 927.06 1255.92 930.996C1255.92 934.956 1254.34 937.524 1251.94 937.524ZM1262.32 938.988H1264.22V930.684C1264.22 929.052 1264.03 927.348 1263.96 925.74H1264L1265.59 928.98L1270.7 938.988H1272.74V923.148H1270.84V931.38C1270.84 933.036 1271.04 934.836 1271.11 936.396H1271.06L1269.48 933.156L1264.36 923.148H1262.32V938.988Z" fill="#171717"/>
<path d="M132.048 752.476C134.088 752.476 135.744 751.66 136.752 750.652V743.98H131.76V745.636H134.904V749.788C134.304 750.364 133.272 750.724 132.168 750.724C129.072 750.724 127.32 748.204 127.32 744.22C127.32 740.284 129.264 737.812 132.216 737.812C133.728 737.812 134.664 738.436 135.432 739.252L136.56 737.98C135.672 737.044 134.304 736.06 132.216 736.06C128.136 736.06 125.232 739.156 125.232 744.268C125.232 749.428 128.088 752.476 132.048 752.476ZM141.831 752.188H151.671V750.484H147.759V738.028H151.671V736.348H141.831V738.028H145.743V750.484H141.831V752.188ZM161.189 752.188H163.517L168.509 736.348H166.469L163.949 744.916C163.397 746.788 163.013 748.276 162.437 750.148H162.341C161.765 748.276 161.381 746.788 160.829 744.916L158.285 736.348H156.173L161.189 752.188ZM173.492 752.188H183.452V750.484H175.508V744.724H182.012V743.02H175.508V738.028H183.212V736.348H173.492V752.188ZM210.409 752.476C212.425 752.476 213.961 751.636 215.209 750.196L214.057 748.972C213.049 750.1 211.969 750.724 210.529 750.724C207.505 750.724 205.561 748.204 205.561 744.22C205.561 740.284 207.505 737.812 210.529 737.812C211.849 737.812 212.881 738.388 213.697 739.252L214.825 737.98C213.913 736.972 212.425 736.06 210.529 736.06C206.425 736.06 203.497 739.18 203.497 744.268C203.497 749.428 206.449 752.476 210.409 752.476ZM224.704 752.476C228.256 752.476 230.752 749.284 230.752 744.196C230.752 739.156 228.256 736.06 224.704 736.06C221.152 736.06 218.656 739.132 218.656 744.196C218.656 749.284 221.152 752.476 224.704 752.476ZM224.704 750.724C222.304 750.724 220.72 748.156 220.72 744.196C220.72 740.26 222.304 737.812 224.704 737.812C227.104 737.812 228.688 740.26 228.688 744.196C228.688 748.156 227.104 750.724 224.704 750.724ZM235.087 752.188H236.983V743.884C236.983 742.252 236.791 740.548 236.719 738.94H236.767L238.351 742.18L243.463 752.188H245.503V736.348H243.607V744.58C243.607 746.236 243.799 748.036 243.871 749.596H243.823L242.239 746.356L237.127 736.348H235.087V752.188ZM256.005 752.476C259.461 752.476 261.573 750.484 261.573 747.964C261.573 745.612 260.013 744.58 258.093 743.74L255.885 742.78C254.541 742.204 253.077 741.652 253.077 740.14C253.077 738.7 254.301 737.812 256.197 737.812C257.757 737.812 258.957 738.388 259.989 739.3L261.045 738.004C259.893 736.852 258.165 736.06 256.197 736.06C253.197 736.06 251.037 737.836 251.037 740.26C251.037 742.564 252.861 743.716 254.445 744.34L256.701 745.324C258.309 746.02 259.533 746.5 259.533 748.132C259.533 749.692 258.261 750.724 256.029 750.724C254.301 750.724 252.669 749.932 251.493 748.732L250.293 750.124C251.709 751.564 253.701 752.476 256.005 752.476ZM267.036 752.188H276.996V750.484H269.052V744.724H275.556V743.02H269.052V738.028H276.756V736.348H267.036V752.188ZM281.858 752.188H283.754V743.884C283.754 742.252 283.562 740.548 283.49 738.94H283.538L285.122 742.18L290.234 752.188H292.274V736.348H290.378V744.58C290.378 746.236 290.57 748.036 290.642 749.596H290.594L289.01 746.356L283.898 736.348H281.858V752.188ZM301.649 752.188H303.665V738.028H308.849V736.348H296.465V738.028H301.649V752.188ZM332.83 752.188H334.846V738.028H340.03V736.348H327.646V738.028H332.83V752.188ZM349.429 752.476C352.981 752.476 355.477 749.284 355.477 744.196C355.477 739.156 352.981 736.06 349.429 736.06C345.877 736.06 343.381 739.132 343.381 744.196C343.381 749.284 345.877 752.476 349.429 752.476ZM349.429 750.724C347.029 750.724 345.445 748.156 345.445 744.196C345.445 740.26 347.029 737.812 349.429 737.812C351.829 737.812 353.413 740.26 353.413 744.196C353.413 748.156 351.829 750.724 349.429 750.724ZM374.178 752.188H376.218L377.73 747.34H383.442L384.93 752.188H387.042L381.738 736.348H379.482L374.178 752.188ZM378.234 745.732L378.978 743.308C379.53 741.532 380.034 739.828 380.538 737.98H380.634C381.138 739.828 381.642 741.532 382.194 743.308L382.938 745.732H378.234ZM396.225 752.476C399.297 752.476 401.505 750.748 401.505 746.212V736.348H399.561V746.236C399.561 749.548 398.121 750.724 396.225 750.724C394.329 750.724 392.913 749.548 392.913 746.236V736.348H390.897V746.212C390.897 750.748 393.129 752.476 396.225 752.476ZM410.783 752.188H412.799V738.028H417.983V736.348H405.599V738.028H410.783V752.188ZM422.078 752.188H424.094V744.724H430.67V752.188H432.686V736.348H430.67V742.996H424.094V736.348H422.078V752.188ZM438.533 752.188H448.493V750.484H440.549V744.724H447.053V743.02H440.549V738.028H448.253V736.348H438.533V752.188ZM453.355 752.188H455.251V743.884C455.251 742.252 455.059 740.548 454.987 738.94H455.035L456.619 742.18L461.731 752.188H463.771V736.348H461.875V744.58C461.875 746.236 462.067 748.036 462.139 749.596H462.091L460.507 746.356L455.395 736.348H453.355V752.188ZM473.146 752.188H475.162V738.028H480.346V736.348H467.962V738.028H473.146V752.188ZM484.825 752.188H494.665V750.484H490.753V738.028H494.665V736.348H484.825V738.028H488.737V750.484H484.825V752.188ZM506.631 752.476C508.647 752.476 510.183 751.636 511.431 750.196L510.279 748.972C509.271 750.1 508.191 750.724 506.751 750.724C503.727 750.724 501.783 748.204 501.783 744.22C501.783 740.284 503.727 737.812 506.751 737.812C508.071 737.812 509.103 738.388 509.919 739.252L511.047 737.98C510.135 736.972 508.647 736.06 506.751 736.06C502.647 736.06 499.719 739.18 499.719 744.268C499.719 749.428 502.671 752.476 506.631 752.476ZM514.494 752.188H516.534L518.046 747.34H523.758L525.246 752.188H527.358L522.054 736.348H519.798L514.494 752.188ZM518.55 745.732L519.294 743.308C519.846 741.532 520.35 739.828 520.854 737.98H520.95C521.454 739.828 521.958 741.532 522.51 743.308L523.254 745.732H518.55ZM535.508 752.188H537.524V738.028H542.708V736.348H530.324V738.028H535.508V752.188ZM547.667 752.188H557.627V750.484H549.683V744.724H556.187V743.02H549.683V738.028H557.387V736.348H547.667V752.188Z" fill="#171717"/>
<path d="M103.46 772.012C102.632 772.012 101.96 772.684 101.96 773.512C101.96 774.341 102.632 775.012 103.46 775.012V772.012ZM1282.58 774.573C1283.17 773.987 1283.17 773.037 1282.58 772.451L1273.03 762.905C1272.45 762.32 1271.5 762.32 1270.91 762.905C1270.33 763.491 1270.33 764.441 1270.91 765.027L1279.4 773.512L1270.91 781.997C1270.33 782.583 1270.33 783.533 1270.91 784.119C1271.5 784.704 1272.45 784.704 1273.03 784.119L1282.58 774.573ZM103.46 775.012H1281.52V772.012H103.46V775.012Z" fill="#171717"/>
<path d="M116.41 602.957C115.824 603.543 115.824 604.493 116.41 605.079L125.955 614.625C126.541 615.21 127.491 615.21 128.077 614.625C128.663 614.039 128.663 613.089 128.077 612.503L119.592 604.018L128.077 595.533C128.663 594.947 128.663 593.997 128.077 593.411C127.491 592.826 126.541 592.826 125.955 593.411L116.41 602.957ZM117.47 605.518H1295.46V602.518H117.47V605.518Z" fill="#3ECF8E"/>
<path d="M116.41 968.338C115.824 968.924 115.824 969.873 116.41 970.459L125.955 980.005C126.541 980.591 127.491 980.591 128.077 980.005C128.663 979.419 128.663 978.47 128.077 977.884L119.592 969.399L128.077 960.913C128.663 960.327 128.663 959.378 128.077 958.792C127.491 958.206 126.541 958.206 125.955 958.792L116.41 968.338ZM117.47 970.899H1295.46V967.899H117.47V970.899Z" fill="#3ECF8E"/>
<path d="M102.046 1246.17C102.827 1246.95 104.093 1246.95 104.874 1246.17L117.602 1233.44C118.383 1232.66 118.383 1231.39 117.602 1230.61C116.821 1229.83 115.555 1229.83 114.774 1230.61L103.46 1241.93L92.1465 1230.61C91.3654 1229.83 90.0991 1229.83 89.3181 1230.61C88.537 1231.39 88.537 1232.66 89.3181 1233.44L102.046 1246.17ZM101.46 308.604V1244.75H105.46V308.604H101.46Z" fill="#A5A5A5"/>
<path d="M1296.05 1246.17C1296.83 1246.95 1298.09 1246.95 1298.87 1246.17L1311.6 1233.44C1312.38 1232.66 1312.38 1231.39 1311.6 1230.61C1310.82 1229.83 1309.55 1229.83 1308.77 1230.61L1297.46 1241.93L1286.15 1230.61C1285.37 1229.83 1284.1 1229.83 1283.32 1230.61C1282.54 1231.39 1282.54 1232.66 1283.32 1233.44L1296.05 1246.17ZM1295.46 308.604V1244.75H1299.46V308.604H1295.46Z" fill="#A5A5A5"/>
<rect x="103.46" y="115" width="48" height="48" rx="6" fill="#171717"/>
<path d="M173.781 146.252C176.469 146.252 178.401 144.74 178.401 140.771V132.14H176.7V140.792C176.7 143.69 175.44 144.719 173.781 144.719C172.122 144.719 170.883 143.69 170.883 140.792V132.14H169.119V140.771C169.119 144.74 171.072 146.252 173.781 146.252ZM187.507 146.252C190.531 146.252 192.379 144.509 192.379 142.304C192.379 140.246 191.014 139.343 189.334 138.608L187.402 137.768C186.226 137.264 184.945 136.781 184.945 135.458C184.945 134.198 186.016 133.421 187.675 133.421C189.04 133.421 190.09 133.925 190.993 134.723L191.917 133.589C190.909 132.581 189.397 131.888 187.675 131.888C185.05 131.888 183.16 133.442 183.16 135.563C183.16 137.579 184.756 138.587 186.142 139.133L188.116 139.994C189.523 140.603 190.594 141.023 190.594 142.451C190.594 143.816 189.481 144.719 187.528 144.719C186.016 144.719 184.588 144.026 183.559 142.976L182.509 144.194C183.748 145.454 185.491 146.252 187.507 146.252ZM197.159 146H205.874V144.509H198.923V139.469H204.614V137.978H198.923V133.61H205.664V132.14H197.159V146ZM210.486 146H212.229V140.141H214.686L218.004 146H219.999L216.492 139.952C218.361 139.469 219.579 138.188 219.579 136.025C219.579 133.148 217.563 132.14 214.77 132.14H210.486V146ZM212.229 138.713V133.547H214.518C216.66 133.547 217.836 134.198 217.836 136.025C217.836 137.831 216.66 138.713 214.518 138.713H212.229ZM236.341 146H238.126L239.449 141.758H244.447L245.749 146H247.597L242.956 132.14H240.982L236.341 146ZM239.89 140.351L240.541 138.23C241.024 136.676 241.465 135.185 241.906 133.568H241.99C242.431 135.185 242.872 136.676 243.355 138.23L244.006 140.351H239.89ZM256.745 146.252C258.509 146.252 259.853 145.517 260.945 144.257L259.937 143.186C259.055 144.173 258.11 144.719 256.85 144.719C254.204 144.719 252.503 142.514 252.503 139.028C252.503 135.584 254.204 133.421 256.85 133.421C258.005 133.421 258.908 133.925 259.622 134.681L260.609 133.568C259.811 132.686 258.509 131.888 256.85 131.888C253.259 131.888 250.697 134.618 250.697 139.07C250.697 143.585 253.28 146.252 256.745 146.252ZM268.371 146H270.135V133.61H274.671V132.14H263.835V133.61H268.371V146ZM278.59 146H287.2V144.509H283.777V133.61H287.2V132.14H278.59V133.61H282.013V144.509H278.59V146ZM296.536 146.252C299.644 146.252 301.828 143.459 301.828 139.007C301.828 134.597 299.644 131.888 296.536 131.888C293.428 131.888 291.244 134.576 291.244 139.007C291.244 143.459 293.428 146.252 296.536 146.252ZM296.536 144.719C294.436 144.719 293.05 142.472 293.05 139.007C293.05 135.563 294.436 133.421 296.536 133.421C298.636 133.421 300.022 135.563 300.022 139.007C300.022 142.472 298.636 144.719 296.536 144.719ZM305.621 146H307.28V138.734C307.28 137.306 307.112 135.815 307.049 134.408H307.091L308.477 137.243L312.95 146H314.735V132.14H313.076V139.343C313.076 140.792 313.244 142.367 313.307 143.732H313.265L311.879 140.897L307.406 132.14H305.621V146Z" fill="#171717"/>
<rect x="381.46" y="115" width="48" height="48" rx="6" fill="#3ECF8E"/>
<path d="M451.865 146.252C454.889 146.252 456.737 144.509 456.737 142.304C456.737 140.246 455.372 139.343 453.692 138.608L451.76 137.768C450.584 137.264 449.303 136.781 449.303 135.458C449.303 134.198 450.374 133.421 452.033 133.421C453.398 133.421 454.448 133.925 455.351 134.723L456.275 133.589C455.267 132.581 453.755 131.888 452.033 131.888C449.408 131.888 447.518 133.442 447.518 135.563C447.518 137.579 449.114 138.587 450.5 139.133L452.474 139.994C453.881 140.603 454.952 141.023 454.952 142.451C454.952 143.816 453.839 144.719 451.886 144.719C450.374 144.719 448.946 144.026 447.917 142.976L446.867 144.194C448.106 145.454 449.849 146.252 451.865 146.252ZM465.423 146.252C468.111 146.252 470.043 144.74 470.043 140.771V132.14H468.342V140.792C468.342 143.69 467.082 144.719 465.423 144.719C463.764 144.719 462.525 143.69 462.525 140.792V132.14H460.761V140.771C460.761 144.74 462.714 146.252 465.423 146.252ZM474.886 146H476.629V140.498H479.107C482.131 140.498 484.189 139.133 484.189 136.214C484.189 133.169 482.152 132.14 479.107 132.14H474.886V146ZM476.629 139.07V133.547H478.876C481.27 133.547 482.446 134.198 482.446 136.214C482.446 138.188 481.291 139.07 478.876 139.07H476.629ZM487.058 146H488.843L490.166 141.758H495.164L496.466 146H498.314L493.673 132.14H491.699L487.058 146ZM490.607 140.351L491.258 138.23C491.741 136.676 492.182 135.185 492.623 133.568H492.707C493.148 135.185 493.589 136.676 494.072 138.23L494.723 140.351H490.607ZM502.19 146H506.285C509.351 146 511.472 144.677 511.472 141.947C511.472 140.036 510.296 138.944 508.28 138.629V138.545C509.897 138.125 510.695 136.886 510.695 135.521C510.695 133.085 508.784 132.14 505.97 132.14H502.19V146ZM503.954 138.062V133.526H505.76C507.881 133.526 508.973 134.156 508.973 135.668C508.973 137.201 508.028 138.062 505.676 138.062H503.954ZM503.954 144.614V139.364H506.033C508.448 139.364 509.75 140.141 509.75 141.863C509.75 143.753 508.385 144.614 506.033 144.614H503.954ZM514.341 146H516.126L517.449 141.758H522.447L523.749 146H525.597L520.956 132.14H518.982L514.341 146ZM517.89 140.351L518.541 138.23C519.024 136.676 519.465 135.185 519.906 133.568H519.99C520.431 135.185 520.872 136.676 521.355 138.23L522.006 140.351H517.89ZM533.716 146.252C536.74 146.252 538.588 144.509 538.588 142.304C538.588 140.246 537.223 139.343 535.543 138.608L533.611 137.768C532.435 137.264 531.154 136.781 531.154 135.458C531.154 134.198 532.225 133.421 533.884 133.421C535.249 133.421 536.299 133.925 537.202 134.723L538.126 133.589C537.118 132.581 535.606 131.888 533.884 131.888C531.259 131.888 529.369 133.442 529.369 135.563C529.369 137.579 530.965 138.587 532.351 139.133L534.325 139.994C535.732 140.603 536.803 141.023 536.803 142.451C536.803 143.816 535.69 144.719 533.737 144.719C532.225 144.719 530.797 144.026 529.768 142.976L528.718 144.194C529.957 145.454 531.7 146.252 533.716 146.252ZM543.368 146H552.083V144.509H545.132V139.469H550.823V137.978H545.132V133.61H551.873V132.14H543.368V146ZM568.908 146H570.693L572.016 141.758H577.014L578.316 146H580.164L575.523 132.14H573.549L568.908 146ZM572.457 140.351L573.108 138.23C573.591 136.676 574.032 135.185 574.473 133.568H574.557C574.998 135.185 575.439 136.676 575.922 138.23L576.573 140.351H572.457ZM589.312 146.252C591.076 146.252 592.42 145.517 593.512 144.257L592.504 143.186C591.622 144.173 590.677 144.719 589.417 144.719C586.771 144.719 585.07 142.514 585.07 139.028C585.07 135.584 586.771 133.421 589.417 133.421C590.572 133.421 591.475 133.925 592.189 134.681L593.176 133.568C592.378 132.686 591.076 131.888 589.417 131.888C585.826 131.888 583.264 134.618 583.264 139.07C583.264 143.585 585.847 146.252 589.312 146.252ZM600.938 146H602.702V133.61H607.238V132.14H596.402V133.61H600.938V146ZM611.157 146H619.767V144.509H616.344V133.61H619.767V132.14H611.157V133.61H614.58V144.509H611.157V146ZM629.104 146.252C632.212 146.252 634.396 143.459 634.396 139.007C634.396 134.597 632.212 131.888 629.104 131.888C625.996 131.888 623.812 134.576 623.812 139.007C623.812 143.459 625.996 146.252 629.104 146.252ZM629.104 144.719C627.004 144.719 625.618 142.472 625.618 139.007C625.618 135.563 627.004 133.421 629.104 133.421C631.204 133.421 632.59 135.563 632.59 139.007C632.59 142.472 631.204 144.719 629.104 144.719ZM638.188 146H639.847V138.734C639.847 137.306 639.679 135.815 639.616 134.408H639.658L641.044 137.243L645.517 146H647.302V132.14H645.643V139.343C645.643 140.792 645.811 142.367 645.874 143.732H645.832L644.446 140.897L639.973 132.14H638.188V146Z" fill="#171717"/>
<path d="M176.154 1101.01C178.842 1101.01 180.774 1099.49 180.774 1095.53V1086.89H179.073V1095.55C179.073 1098.44 177.813 1099.47 176.154 1099.47C174.495 1099.47 173.256 1098.44 173.256 1095.55V1086.89H171.492V1095.53C171.492 1099.49 173.445 1101.01 176.154 1101.01ZM189.88 1101.01C192.904 1101.01 194.752 1099.26 194.752 1097.06C194.752 1095 193.387 1094.1 191.707 1093.36L189.775 1092.52C188.599 1092.02 187.318 1091.54 187.318 1090.21C187.318 1088.95 188.389 1088.18 190.048 1088.18C191.413 1088.18 192.463 1088.68 193.366 1089.48L194.29 1088.34C193.282 1087.34 191.77 1086.64 190.048 1086.64C187.423 1086.64 185.533 1088.2 185.533 1090.32C185.533 1092.33 187.129 1093.34 188.515 1093.89L190.489 1094.75C191.896 1095.36 192.967 1095.78 192.967 1097.21C192.967 1098.57 191.854 1099.47 189.901 1099.47C188.389 1099.47 186.961 1098.78 185.932 1097.73L184.882 1098.95C186.121 1100.21 187.864 1101.01 189.88 1101.01ZM199.532 1100.75H208.247V1099.26H201.296V1094.22H206.987V1092.73H201.296V1088.36H208.037V1086.89H199.532V1100.75ZM212.858 1100.75H214.601V1094.9H217.058L220.376 1100.75H222.371L218.864 1094.71C220.733 1094.22 221.951 1092.94 221.951 1090.78C221.951 1087.9 219.935 1086.89 217.142 1086.89H212.858V1100.75ZM214.601 1093.47V1088.3H216.89C219.032 1088.3 220.208 1088.95 220.208 1090.78C220.208 1092.59 219.032 1093.47 216.89 1093.47H214.601ZM245.476 1101.01C247.24 1101.01 248.584 1100.27 249.676 1099.01L248.668 1097.94C247.786 1098.93 246.841 1099.47 245.581 1099.47C242.935 1099.47 241.234 1097.27 241.234 1093.78C241.234 1090.34 242.935 1088.18 245.581 1088.18C246.736 1088.18 247.639 1088.68 248.353 1089.44L249.34 1088.32C248.542 1087.44 247.24 1086.64 245.581 1086.64C241.99 1086.64 239.428 1089.37 239.428 1093.82C239.428 1098.34 242.011 1101.01 245.476 1101.01ZM252.356 1100.75H254.141L255.464 1096.51H260.462L261.764 1100.75H263.612L258.971 1086.89H256.997L252.356 1100.75ZM255.905 1095.11L256.556 1092.98C257.039 1091.43 257.48 1089.94 257.921 1088.32H258.005C258.446 1089.94 258.887 1091.43 259.37 1092.98L260.021 1095.11H255.905ZM267.069 1100.75H268.728V1093.49C268.728 1092.06 268.56 1090.57 268.497 1089.16H268.539L269.925 1092L274.398 1100.75H276.183V1086.89H274.524V1094.1C274.524 1095.55 274.692 1097.12 274.755 1098.49H274.713L273.327 1095.65L268.854 1086.89H267.069V1100.75ZM294.352 1100.75H296.011V1093.49C296.011 1092.06 295.843 1090.57 295.78 1089.16H295.822L297.208 1092L301.681 1100.75H303.466V1086.89H301.807V1094.1C301.807 1095.55 301.975 1097.12 302.038 1098.49H301.996L300.61 1095.65L296.137 1086.89H294.352V1100.75ZM312.551 1101.01C315.659 1101.01 317.843 1098.21 317.843 1093.76C317.843 1089.35 315.659 1086.64 312.551 1086.64C309.443 1086.64 307.259 1089.33 307.259 1093.76C307.259 1098.21 309.443 1101.01 312.551 1101.01ZM312.551 1099.47C310.451 1099.47 309.065 1097.23 309.065 1093.76C309.065 1090.32 310.451 1088.18 312.551 1088.18C314.651 1088.18 316.037 1090.32 316.037 1093.76C316.037 1097.23 314.651 1099.47 312.551 1099.47ZM322.224 1100.75H324.114L325.626 1094.94C325.836 1094.12 326.004 1093.26 326.172 1092.44H326.235C326.382 1093.26 326.55 1094.12 326.739 1094.94L328.314 1100.75H330.246L332.283 1086.87H330.624L329.574 1095.59C329.49 1096.72 329.364 1097.88 329.28 1099.01H329.196C328.902 1097.88 328.587 1096.7 328.335 1095.59L326.886 1090.46H325.647L324.198 1095.59C323.925 1096.72 323.61 1097.88 323.316 1099.01H323.253C323.169 1097.88 323.022 1096.74 322.959 1095.59L321.846 1086.87H320.103L322.224 1100.75ZM348.772 1100.75H350.347V1092.92C350.347 1091.79 350.2 1089.79 350.116 1088.68H350.179L351.187 1091.64L353.413 1097H354.379L356.584 1091.64L357.55 1088.68H357.634C357.55 1089.79 357.424 1091.79 357.424 1092.92V1100.75H359.02V1086.89H356.962L354.715 1092.8L353.959 1095.04H353.875L353.077 1092.8L350.83 1086.89H348.772V1100.75ZM362.331 1100.75H364.116L365.439 1096.51H370.437L371.739 1100.75H373.587L368.946 1086.89H366.972L362.331 1100.75ZM365.88 1095.11L366.531 1092.98C367.014 1091.43 367.455 1089.94 367.896 1088.32H367.98C368.421 1089.94 368.862 1091.43 369.345 1092.98L369.996 1095.11H365.88ZM377.359 1100.75H379.123V1096.34L381.517 1093.53L385.507 1100.75H387.46L382.609 1092.17L386.956 1086.89H384.982L379.186 1093.85H379.123V1086.89H377.359V1100.75ZM391.358 1100.75H400.073V1099.26H393.122V1094.22H398.813V1092.73H393.122V1088.36H399.863V1086.89H391.358V1100.75ZM170.505 1132.75H172.29L173.613 1128.51H178.611L179.913 1132.75H181.761L177.12 1118.89H175.146L170.505 1132.75ZM174.054 1127.11L174.705 1124.98C175.188 1123.43 175.629 1121.94 176.07 1120.32H176.154C176.595 1121.94 177.036 1123.43 177.519 1124.98L178.17 1127.11H174.054ZM189.796 1133.01C192.484 1133.01 194.416 1131.49 194.416 1127.53V1118.89H192.715V1127.55C192.715 1130.44 191.455 1131.47 189.796 1131.47C188.137 1131.47 186.898 1130.44 186.898 1127.55V1118.89H185.134V1127.53C185.134 1131.49 187.087 1133.01 189.796 1133.01ZM202.535 1132.75H204.299V1120.36H208.835V1118.89H197.999V1120.36H202.535V1132.75ZM212.417 1132.75H214.181V1126.22H219.935V1132.75H221.699V1118.89H219.935V1124.71H214.181V1118.89H212.417V1132.75ZM226.815 1132.75H235.53V1131.26H228.579V1126.22H234.27V1124.73H228.579V1120.36H235.32V1118.89H226.815V1132.75ZM239.785 1132.75H241.444V1125.49C241.444 1124.06 241.276 1122.57 241.213 1121.16H241.255L242.641 1124L247.114 1132.75H248.899V1118.89H247.24V1126.1C247.24 1127.55 247.408 1129.12 247.471 1130.49H247.429L246.043 1127.65L241.57 1118.89H239.785V1132.75ZM257.102 1132.75H258.866V1120.36H263.402V1118.89H252.566V1120.36H257.102V1132.75ZM267.321 1132.75H275.931V1131.26H272.508V1120.36H275.931V1118.89H267.321V1120.36H270.744V1131.26H267.321V1132.75ZM286.401 1133.01C288.165 1133.01 289.509 1132.27 290.601 1131.01L289.593 1129.94C288.711 1130.93 287.766 1131.47 286.506 1131.47C283.86 1131.47 282.159 1129.27 282.159 1125.78C282.159 1122.34 283.86 1120.18 286.506 1120.18C287.661 1120.18 288.564 1120.68 289.278 1121.44L290.265 1120.32C289.467 1119.44 288.165 1118.64 286.506 1118.64C282.915 1118.64 280.353 1121.37 280.353 1125.82C280.353 1130.34 282.936 1133.01 286.401 1133.01ZM293.281 1132.75H295.066L296.389 1128.51H301.387L302.689 1132.75H304.537L299.896 1118.89H297.922L293.281 1132.75ZM296.83 1127.11L297.481 1124.98C297.964 1123.43 298.405 1121.94 298.846 1120.32H298.93C299.371 1121.94 299.812 1123.43 300.295 1124.98L300.946 1127.11H296.83ZM311.669 1132.75H313.433V1120.36H317.969V1118.89H307.133V1120.36H311.669V1132.75ZM322.308 1132.75H331.023V1131.26H324.072V1126.22H329.763V1124.73H324.072V1120.36H330.813V1118.89H322.308V1132.75ZM335.32 1132.75H338.764C342.838 1132.75 345.064 1130.17 345.064 1125.76C345.064 1121.37 342.838 1118.89 338.68 1118.89H335.32V1132.75ZM337.063 1131.33V1120.32H338.575C341.704 1120.32 343.258 1122.28 343.258 1125.76C343.258 1129.27 341.704 1131.33 338.575 1131.33H337.063ZM362.918 1132.75H364.661V1126.9H367.118L370.436 1132.75H372.431L368.924 1126.71C370.793 1126.22 372.011 1124.94 372.011 1122.78C372.011 1119.9 369.995 1118.89 367.202 1118.89H362.918V1132.75ZM364.661 1125.47V1120.3H366.95C369.092 1120.3 370.268 1120.95 370.268 1122.78C370.268 1124.59 369.092 1125.47 366.95 1125.47H364.661ZM376.875 1132.75H385.59V1131.26H378.639V1126.22H384.33V1124.73H378.639V1120.36H385.38V1118.89H376.875V1132.75ZM398.161 1136.2C398.77 1136.2 399.274 1136.07 399.715 1135.9L399.4 1134.5C399.148 1134.6 398.791 1134.71 398.371 1134.71C396.943 1134.71 395.851 1134.1 395.389 1132.9C397.93 1132.38 399.61 1129.71 399.61 1125.76C399.61 1121.35 397.489 1118.62 394.381 1118.62C391.252 1118.62 389.131 1121.33 389.131 1125.76C389.131 1129.77 390.874 1132.46 393.52 1132.92C394.213 1134.81 395.725 1136.2 398.161 1136.2ZM394.381 1131.49C392.26 1131.49 390.916 1129.21 390.916 1125.76C390.916 1122.32 392.26 1120.13 394.381 1120.13C396.481 1120.13 397.825 1122.32 397.825 1125.76C397.825 1129.21 396.481 1131.49 394.381 1131.49ZM408.065 1133.01C410.753 1133.01 412.685 1131.49 412.685 1127.53V1118.89H410.984V1127.55C410.984 1130.44 409.724 1131.47 408.065 1131.47C406.406 1131.47 405.167 1130.44 405.167 1127.55V1118.89H403.403V1127.53C403.403 1131.49 405.356 1133.01 408.065 1133.01ZM417.8 1132.75H426.515V1131.26H419.564V1126.22H425.255V1124.73H419.564V1120.36H426.305V1118.89H417.8V1132.75ZM435.432 1133.01C438.456 1133.01 440.304 1131.26 440.304 1129.06C440.304 1127 438.939 1126.1 437.259 1125.36L435.327 1124.52C434.151 1124.02 432.87 1123.54 432.87 1122.21C432.87 1120.95 433.941 1120.18 435.6 1120.18C436.965 1120.18 438.015 1120.68 438.918 1121.48L439.842 1120.34C438.834 1119.34 437.322 1118.64 435.6 1118.64C432.975 1118.64 431.085 1120.2 431.085 1122.32C431.085 1124.33 432.681 1125.34 434.067 1125.89L436.041 1126.75C437.448 1127.36 438.519 1127.78 438.519 1129.21C438.519 1130.57 437.406 1131.47 435.453 1131.47C433.941 1131.47 432.513 1130.78 431.484 1129.73L430.434 1130.95C431.673 1132.21 433.416 1133.01 435.432 1133.01ZM448.087 1132.75H449.851V1120.36H454.387V1118.89H443.551V1120.36H448.087V1132.75ZM462.716 1133.01C465.74 1133.01 467.588 1131.26 467.588 1129.06C467.588 1127 466.223 1126.1 464.543 1125.36L462.611 1124.52C461.435 1124.02 460.154 1123.54 460.154 1122.21C460.154 1120.95 461.225 1120.18 462.884 1120.18C464.249 1120.18 465.299 1120.68 466.202 1121.48L467.126 1120.34C466.118 1119.34 464.606 1118.64 462.884 1118.64C460.259 1118.64 458.369 1120.2 458.369 1122.32C458.369 1124.33 459.965 1125.34 461.351 1125.89L463.325 1126.75C464.732 1127.36 465.803 1127.78 465.803 1129.21C465.803 1130.57 464.69 1131.47 462.737 1131.47C461.225 1131.47 459.797 1130.78 458.768 1129.73L457.718 1130.95C458.957 1132.21 460.7 1133.01 462.716 1133.01Z" fill="#171717"/>
<circle cx="104.087" cy="1096.75" r="36" fill="url(#paint0_radial_26_19271)"/>
<circle cx="104.087" cy="1096.75" r="20.5" fill="#3ECF8E"/>
<defs>
<radialGradient id="paint0_radial_26_19271" cx="0" cy="0" r="1" gradientUnits="userSpaceOnUse" gradientTransform="translate(104.087 1096.75) rotate(90) scale(36)">
<stop stop-color="#EDEDED" stop-opacity="0.5"/>
<stop offset="1" stop-color="#D9D9D9" stop-opacity="0"/>
</radialGradient>
</defs>
</svg>
