<svg xmlns="http://www.w3.org/2000/svg" width="1400" height="2101" fill="none" viewBox="0 0 1400 2101"><rect width="48" height="48" x="99.901" y="115" fill="#ededed" rx="6"/><path fill="#ededed" d="M170.222 146.252c2.688 0 4.62-1.512 4.62-5.481v-8.631h-1.701v8.652c0 2.898-1.26 3.927-2.919 3.927s-2.898-1.029-2.898-3.927v-8.652h-1.764v8.631c0 3.969 1.953 5.481 4.662 5.481m13.726 0c3.024 0 4.872-1.743 4.872-3.948 0-2.058-1.365-2.961-3.045-3.696l-1.932-.84c-1.176-.504-2.457-.987-2.457-2.31 0-1.26 1.071-2.037 2.73-2.037 1.365 0 2.415.504 3.318 1.302l.924-1.134c-1.008-1.008-2.52-1.701-4.242-1.701-2.625 0-4.515 1.554-4.515 3.675 0 2.016 1.596 3.024 2.982 3.57l1.974.861c1.407.609 2.478 1.029 2.478 2.457 0 1.365-1.113 2.268-3.066 2.268-1.512 0-2.94-.693-3.969-1.743l-1.05 1.218c1.239 1.26 2.982 2.058 4.998 2.058m9.651-.252h8.715v-1.491h-6.951v-5.04h5.691v-1.491h-5.691v-4.368h6.741v-1.47h-8.505zm13.327 0h1.743v-5.859h2.457l3.318 5.859h1.995l-3.507-6.048c1.869-.483 3.087-1.764 3.087-3.927 0-2.877-2.016-3.885-4.809-3.885h-4.284zm1.743-7.287v-5.166h2.289c2.142 0 3.318.651 3.318 2.478 0 1.806-1.176 2.688-3.318 2.688zM232.782 146h1.785l1.323-4.242h4.998L242.19 146h1.848l-4.641-13.86h-1.974zm3.549-5.649.651-2.121c.483-1.554.924-3.045 1.365-4.662h.084c.441 1.617.882 3.108 1.365 4.662l.651 2.121zm16.855 5.901c1.764 0 3.108-.735 4.2-1.995l-1.008-1.071c-.882.987-1.827 1.533-3.087 1.533-2.646 0-4.347-2.205-4.347-5.691 0-3.444 1.701-5.607 4.347-5.607 1.155 0 2.058.504 2.772 1.26l.987-1.113c-.798-.882-2.1-1.68-3.759-1.68-3.591 0-6.153 2.73-6.153 7.182 0 4.515 2.583 7.182 6.048 7.182m11.625-.252h1.764v-12.39h4.536v-1.47h-10.836v1.47h4.536zm10.219 0h8.61v-1.491h-3.423V133.61h3.423v-1.47h-8.61v1.47h3.423v10.899h-3.423zm17.947.252c3.108 0 5.292-2.793 5.292-7.245 0-4.41-2.184-7.119-5.292-7.119s-5.292 2.688-5.292 7.119c0 4.452 2.184 7.245 5.292 7.245m0-1.533c-2.1 0-3.486-2.247-3.486-5.712 0-3.444 1.386-5.586 3.486-5.586s3.486 2.142 3.486 5.586c0 3.465-1.386 5.712-3.486 5.712m9.085 1.281h1.659v-7.266c0-1.428-.168-2.919-.231-4.326h.042l1.386 2.835 4.473 8.757h1.785v-13.86h-1.659v7.203c0 1.449.168 3.024.231 4.389h-.042l-1.386-2.835-4.473-8.757h-1.785z"/><rect width="48" height="48" x="377.901" y="115" fill="#d16bcd" rx="6"/><path fill="#ededed" d="M442.573 146h1.785l1.323-4.242h4.998l1.302 4.242h1.848l-4.641-13.86h-1.974zm3.549-5.649.651-2.121c.483-1.554.924-3.045 1.365-4.662h.084c.441 1.617.882 3.108 1.365 4.662l.651 2.121zM457.685 146h1.743v-5.502h2.478c3.024 0 5.082-1.365 5.082-4.284 0-3.045-2.037-4.074-5.082-4.074h-4.221zm1.743-6.93v-5.523h2.247c2.394 0 3.57.651 3.57 2.667 0 1.974-1.155 2.856-3.57 2.856zm11.898 6.93h1.743v-5.502h2.478c3.024 0 5.082-1.365 5.082-4.284 0-3.045-2.037-4.074-5.082-4.074h-4.221zm1.743-6.93v-5.523h2.247c2.394 0 3.57.651 3.57 2.667 0 1.974-1.155 2.856-3.57 2.856zM485.64 146h8.547v-1.491h-6.825V132.14h-1.722zm12.823 0h8.61v-1.491h-3.423V133.61h3.423v-1.47h-8.61v1.47h3.423v10.899h-3.423zm19.081.252c1.764 0 3.108-.735 4.2-1.995l-1.008-1.071c-.882.987-1.827 1.533-3.087 1.533-2.646 0-4.347-2.205-4.347-5.691 0-3.444 1.701-5.607 4.347-5.607 1.155 0 2.058.504 2.772 1.26l.987-1.113c-.798-.882-2.1-1.68-3.759-1.68-3.591 0-6.153 2.73-6.153 7.182 0 4.515 2.583 7.182 6.048 7.182m6.88-.252h1.785l1.323-4.242h4.998l1.302 4.242h1.848l-4.641-13.86h-1.974zm3.549-5.649.651-2.121c.483-1.554.924-3.045 1.365-4.662h.084c.441 1.617.882 3.108 1.365 4.662l.651 2.121zM542.811 146h1.764v-12.39h4.536v-1.47h-10.836v1.47h4.536zm10.219 0h8.61v-1.491h-3.423V133.61h3.423v-1.47h-8.61v1.47h3.423v10.899h-3.423zm17.947.252c3.108 0 5.292-2.793 5.292-7.245 0-4.41-2.184-7.119-5.292-7.119s-5.292 2.688-5.292 7.119c0 4.452 2.184 7.245 5.292 7.245m0-1.533c-2.1 0-3.486-2.247-3.486-5.712 0-3.444 1.386-5.586 3.486-5.586s3.486 2.142 3.486 5.586c0 3.465-1.386 5.712-3.486 5.712m9.085 1.281h1.659v-7.266c0-1.428-.168-2.919-.231-4.326h.042l1.386 2.835 4.473 8.757h1.785v-13.86h-1.659v7.203c0 1.449.168 3.024.231 4.389h-.042l-1.386-2.835-4.473-8.757h-1.785zm26.212 0h1.785l1.323-4.242h4.998l1.302 4.242h1.848l-4.641-13.86h-1.974zm3.549-5.649.651-2.121c.483-1.554.924-3.045 1.365-4.662h.084c.441 1.617.882 3.108 1.365 4.662l.651 2.121zm16.855 5.901c1.764 0 3.108-.735 4.2-1.995l-1.008-1.071c-.882.987-1.827 1.533-3.087 1.533-2.646 0-4.347-2.205-4.347-5.691 0-3.444 1.701-5.607 4.347-5.607 1.155 0 2.058.504 2.772 1.26l.987-1.113c-.798-.882-2.1-1.68-3.759-1.68-3.591 0-6.153 2.73-6.153 7.182 0 4.515 2.583 7.182 6.048 7.182m11.626-.252h1.764v-12.39h4.536v-1.47h-10.836v1.47h4.536zm10.219 0h8.61v-1.491h-3.423V133.61h3.423v-1.47h-8.61v1.47h3.423v10.899h-3.423zm17.947.252c3.108 0 5.292-2.793 5.292-7.245 0-4.41-2.184-7.119-5.292-7.119s-5.292 2.688-5.292 7.119c0 4.452 2.184 7.245 5.292 7.245m0-1.533c-2.1 0-3.486-2.247-3.486-5.712 0-3.444 1.386-5.586 3.486-5.586s3.486 2.142 3.486 5.586c0 3.465-1.386 5.712-3.486 5.712m9.084 1.281h1.659v-7.266c0-1.428-.168-2.919-.231-4.326h.042l1.386 2.835 4.473 8.757h1.785v-13.86h-1.659v7.203c0 1.449.168 3.024.231 4.389h-.042l-1.386-2.835-4.473-8.757h-1.785z"/><rect width="48" height="48" x="750.901" y="115" fill="#3ecf8e" rx="6"/><path fill="#ededed" d="M821.306 146.252c3.024 0 4.872-1.743 4.872-3.948 0-2.058-1.365-2.961-3.045-3.696l-1.932-.84c-1.176-.504-2.457-.987-2.457-2.31 0-1.26 1.071-2.037 2.73-2.037 1.365 0 2.415.504 3.318 1.302l.924-1.134c-1.008-1.008-2.52-1.701-4.242-1.701-2.625 0-4.515 1.554-4.515 3.675 0 2.016 1.596 3.024 2.982 3.57l1.974.861c1.407.609 2.478 1.029 2.478 2.457 0 1.365-1.113 2.268-3.066 2.268-1.512 0-2.94-.693-3.969-1.743l-1.05 1.218c1.239 1.26 2.982 2.058 4.998 2.058m13.558 0c2.688 0 4.62-1.512 4.62-5.481v-8.631h-1.701v8.652c0 2.898-1.26 3.927-2.919 3.927s-2.898-1.029-2.898-3.927v-8.652h-1.764v8.631c0 3.969 1.953 5.481 4.662 5.481m9.462-.252h1.743v-5.502h2.478c3.024 0 5.082-1.365 5.082-4.284 0-3.045-2.037-4.074-5.082-4.074h-4.221zm1.743-6.93v-5.523h2.247c2.394 0 3.57.651 3.57 2.667 0 1.974-1.155 2.856-3.57 2.856zm10.429 6.93h1.785l1.323-4.242h4.998l1.302 4.242h1.848l-4.641-13.86h-1.974zm3.549-5.649.651-2.121c.483-1.554.924-3.045 1.365-4.662h.084c.441 1.617.882 3.108 1.365 4.662l.651 2.121zM871.631 146h4.095c3.066 0 5.187-1.323 5.187-4.053 0-1.911-1.176-3.003-3.192-3.318v-.084c1.617-.42 2.415-1.659 2.415-3.024 0-2.436-1.911-3.381-4.725-3.381h-3.78zm1.764-7.938v-4.536h1.806c2.121 0 3.213.63 3.213 2.142 0 1.533-.945 2.394-3.297 2.394zm0 6.552v-5.25h2.079c2.415 0 3.717.777 3.717 2.499 0 1.89-1.365 2.751-3.717 2.751zM883.782 146h1.785l1.323-4.242h4.998L893.19 146h1.848l-4.641-13.86h-1.974zm3.549-5.649.651-2.121c.483-1.554.924-3.045 1.365-4.662h.084c.441 1.617.882 3.108 1.365 4.662l.651 2.121zm15.826 5.901c3.024 0 4.872-1.743 4.872-3.948 0-2.058-1.365-2.961-3.045-3.696l-1.932-.84c-1.176-.504-2.457-.987-2.457-2.31 0-1.26 1.071-2.037 2.73-2.037 1.365 0 2.415.504 3.318 1.302l.924-1.134c-1.008-1.008-2.52-1.701-4.242-1.701-2.625 0-4.515 1.554-4.515 3.675 0 2.016 1.596 3.024 2.982 3.57l1.974.861c1.407.609 2.478 1.029 2.478 2.457 0 1.365-1.113 2.268-3.066 2.268-1.512 0-2.94-.693-3.969-1.743l-1.05 1.218c1.239 1.26 2.982 2.058 4.998 2.058m9.651-.252h8.715v-1.491h-6.951v-5.04h5.691v-1.491h-5.691v-4.368h6.741v-1.47h-8.505zm25.541 0h1.785l1.323-4.242h4.998l1.302 4.242h1.848l-4.641-13.86h-1.974zm3.549-5.649.651-2.121c.483-1.554.924-3.045 1.365-4.662h.084c.441 1.617.882 3.108 1.365 4.662l.651 2.121zm16.855 5.901c1.764 0 3.108-.735 4.2-1.995l-1.008-1.071c-.882.987-1.827 1.533-3.087 1.533-2.646 0-4.347-2.205-4.347-5.691 0-3.444 1.701-5.607 4.347-5.607 1.155 0 2.058.504 2.772 1.26l.987-1.113c-.798-.882-2.1-1.68-3.759-1.68-3.591 0-6.153 2.73-6.153 7.182 0 4.515 2.583 7.182 6.048 7.182m11.626-.252h1.764v-12.39h4.536v-1.47h-10.836v1.47h4.536zm10.218 0h8.61v-1.491h-3.423V133.61h3.423v-1.47h-8.61v1.47h3.423v10.899h-3.423zm17.947.252c3.106 0 5.296-2.793 5.296-7.245 0-4.41-2.19-7.119-5.296-7.119-3.108 0-5.292 2.688-5.292 7.119 0 4.452 2.184 7.245 5.292 7.245m0-1.533c-2.1 0-3.486-2.247-3.486-5.712 0-3.444 1.386-5.586 3.486-5.586 2.096 0 3.486 2.142 3.486 5.586 0 3.465-1.39 5.712-3.486 5.712m9.086 1.281h1.66v-7.266c0-1.428-.17-2.919-.23-4.326h.04l1.39 2.835 4.47 8.757h1.78v-13.86h-1.66v7.203c0 1.449.17 3.024.24 4.389h-.05l-1.38-2.835-4.48-8.757h-1.78zM107.149 288.535c3.432 0 5.448-1.992 5.448-6.336v-9.792h-2.688v9.984c0 2.616-1.08 3.744-2.76 3.744-1.704 0-2.76-1.128-2.76-3.744v-9.984h-2.76v9.792c0 4.344 2.064 6.336 5.52 6.336m16.791 0c3.672 0 5.808-2.136 5.808-4.704 0-2.304-1.416-3.456-3.408-4.272l-2.064-.888c-1.416-.576-2.688-1.008-2.688-2.256 0-1.2 1.008-1.896 2.64-1.896 1.464 0 2.544.504 3.6 1.368l1.44-1.752c-1.296-1.272-3.096-2.016-5.04-2.016-3.192 0-5.448 1.92-5.448 4.44 0 2.304 1.704 3.552 3.384 4.2l2.136.936c1.56.624 2.616 1.032 2.616 2.352 0 1.272-.984 2.088-2.928 2.088-1.536 0-3.096-.744-4.272-1.824l-1.608 1.896c1.536 1.488 3.624 2.328 5.832 2.328m12.062-.288h10.248v-2.352h-7.488v-4.728h6.144v-2.328h-6.144v-4.104h7.248v-2.328h-10.008zm16.311 0h2.76v-6.216h2.328l3.408 6.216h3.12l-3.768-6.648c1.896-.648 3.144-2.112 3.144-4.512 0-3.528-2.52-4.68-5.76-4.68h-5.232zm2.76-8.448v-5.184h2.184c2.16 0 3.312.624 3.312 2.472 0 1.8-1.152 2.712-3.312 2.712zm29.285 8.448h2.808l1.248-4.32h5.208l1.224 4.32h2.928l-5.088-15.84h-3.24zm4.656-6.504.552-1.968c.48-1.68.96-3.456 1.392-5.208h.096c.456 1.752.936 3.528 1.416 5.208l.552 1.968zm19.791 6.792c2.016 0 3.768-.864 4.8-1.872v-6.984h-5.208v2.28h2.712v3.456c-.48.456-1.296.72-2.136.72-2.784 0-4.296-2.232-4.296-5.856 0-3.576 1.752-5.76 4.248-5.76 1.368 0 2.208.528 2.928 1.296l1.536-1.728c-.96-.984-2.376-1.968-4.464-1.968-4.08 0-7.104 3.048-7.104 8.256 0 5.232 3 8.16 6.984 8.16m11.15-.288h10.248v-2.352h-7.488v-4.728h6.144v-2.328h-6.144v-4.104h7.248v-2.328h-10.008zm16.071 0h2.64v-7.008c0-1.752-.264-3.648-.384-5.328h.072l1.464 3.336 4.2 9h2.832v-15.84h-2.64v6.96c0 1.752.264 3.744.384 5.376h-.072l-1.464-3.36-4.224-8.976h-2.808zm20.799 0h2.784v-13.512h4.944v-2.328h-12.648v2.328h4.92zM491.383 288.247h2.808l1.248-4.32h5.208l1.224 4.32h2.928l-5.088-15.84h-3.24zm4.656-6.504.552-1.968c.48-1.68.96-3.456 1.392-5.208h.096c.456 1.752.936 3.528 1.416 5.208l.552 1.968zm13.743 6.504h2.76v-5.856h2.52c3.384 0 5.952-1.608 5.952-5.112 0-3.672-2.52-4.872-5.952-4.872h-5.28zm2.76-8.064v-5.568h2.28c2.304 0 3.456.672 3.456 2.664 0 1.944-1.104 2.904-3.456 2.904zm14.03 8.064h2.76v-5.856h2.52c3.384 0 5.952-1.608 5.952-5.112 0-3.672-2.52-4.872-5.952-4.872h-5.28zm2.76-8.064v-5.568h2.28c2.304 0 3.456.672 3.456 2.664 0 1.944-1.104 2.904-3.456 2.904zm14.823 8.064h10.128v-2.352h-7.392v-13.488h-2.736zm15.927 0h10.344v-2.352h-3.792v-11.16h3.792v-2.328h-10.344v2.328h3.768v11.16h-3.768zm23.366.288c1.992 0 3.6-.816 4.872-2.304l-1.56-1.68c-.888.984-1.872 1.584-3.144 1.584-2.688 0-4.488-2.232-4.488-5.856 0-3.576 1.8-5.76 4.416-5.76 1.224 0 2.136.504 2.928 1.296l1.536-1.728c-.984-1.032-2.52-1.968-4.464-1.968-4.152 0-7.248 3.072-7.248 8.256 0 5.232 3.144 8.16 7.152 8.16m8.679-.288h2.808l1.248-4.32h5.208l1.224 4.32h2.928l-5.088-15.84h-3.24zm4.656-6.504.552-1.968c.48-1.68.96-3.456 1.392-5.208h.096c.456 1.752.936 3.528 1.416 5.208l.552 1.968zm17.439 6.504h2.784v-13.512h4.944v-2.328h-12.648v2.328h4.92zm13.022 0h10.344v-2.352h-3.792v-11.16h3.792v-2.328h-10.344v2.328h3.768v11.16h-3.768zm21.951.288c3.648 0 6.168-3.168 6.168-8.28s-2.52-8.136-6.168-8.136c-3.624 0-6.168 3-6.168 8.136 0 5.112 2.544 8.28 6.168 8.28m0-2.4c-2.016 0-3.312-2.304-3.312-5.88s1.296-5.736 3.312-5.736 3.336 2.16 3.336 5.736-1.32 5.88-3.336 5.88m11.39 2.112h2.64v-7.008c0-1.752-.264-3.648-.384-5.328h.072l1.464 3.336 4.2 9h2.832v-15.84h-2.64v6.96c0 1.752.264 3.744.384 5.376h-.072l-1.464-3.36-4.224-8.976h-2.808zM1174.18 288.535c3.68 0 5.81-2.136 5.81-4.704 0-2.304-1.41-3.456-3.41-4.272l-2.06-.888c-1.42-.576-2.69-1.008-2.69-2.256 0-1.2 1.01-1.896 2.64-1.896 1.47 0 2.55.504 3.6 1.368l1.44-1.752c-1.29-1.272-3.09-2.016-5.04-2.016-3.19 0-5.45 1.92-5.45 4.44 0 2.304 1.71 3.552 3.39 4.2l2.13.936c1.56.624 2.62 1.032 2.62 2.352 0 1.272-.98 2.088-2.93 2.088-1.53 0-3.09-.744-4.27-1.824l-1.61 1.896c1.54 1.488 3.63 2.328 5.83 2.328m16.8 0c3.43 0 5.44-1.992 5.44-6.336v-9.792h-2.68v9.984c0 2.616-1.08 3.744-2.76 3.744-1.71 0-2.76-1.128-2.76-3.744v-9.984h-2.76v9.792c0 4.344 2.06 6.336 5.52 6.336m11.65-.288h2.76v-5.856h2.52c3.38 0 5.95-1.608 5.95-5.112 0-3.672-2.52-4.872-5.95-4.872h-5.28zm2.76-8.064v-5.568h2.28c2.3 0 3.46.672 3.46 2.664 0 1.944-1.11 2.904-3.46 2.904zm12.42 8.064h2.81l1.25-4.32h5.21l1.22 4.32h2.93l-5.09-15.84h-3.24zm4.66-6.504.55-1.968c.48-1.68.96-3.456 1.39-5.208h.1c.45 1.752.93 3.528 1.41 5.208l.56 1.968zm13.88 6.504h5.02c3.43 0 5.95-1.488 5.95-4.656 0-2.16-1.25-3.36-3.53-3.744v-.096c1.85-.504 2.74-1.968 2.74-3.456 0-2.904-2.35-3.888-5.57-3.888h-4.61zm2.76-9.264v-4.416h1.66c2.04 0 3.05.6 3.05 2.064 0 1.488-.91 2.352-3.12 2.352zm0 7.104v-5.112h1.97c2.35 0 3.53.744 3.53 2.448 0 1.8-1.22 2.664-3.53 2.664zm12.28 2.16h2.81l1.25-4.32h5.21l1.22 4.32h2.93l-5.09-15.84h-3.24zm4.66-6.504.55-1.968c.48-1.68.96-3.456 1.39-5.208h.1c.46 1.752.94 3.528 1.42 5.208l.55 1.968zm18.88 6.792c3.67 0 5.81-2.136 5.81-4.704 0-2.304-1.42-3.456-3.41-4.272l-2.07-.888c-1.41-.576-2.68-1.008-2.68-2.256 0-1.2 1-1.896 2.64-1.896 1.46 0 2.54.504 3.6 1.368l1.44-1.752c-1.3-1.272-3.1-2.016-5.04-2.016-3.2 0-5.45 1.92-5.45 4.44 0 2.304 1.7 3.552 3.38 4.2l2.14.936c1.56.624 2.61 1.032 2.61 2.352 0 1.272-.98 2.088-2.92 2.088-1.54 0-3.1-.744-4.28-1.824l-1.6 1.896c1.53 1.488 3.62 2.328 5.83 2.328m12.06-.288h10.25v-2.352h-7.49v-4.728h6.14v-2.328h-6.14v-4.104h7.25v-2.328h-10.01zM104.587 457.559a1.5 1.5 0 0 0 0 3zm465.308 2.561a1.5 1.5 0 0 0 0-2.121l-9.546-9.546a1.5 1.5 0 1 0-2.121 2.121l8.485 8.485-8.485 8.485a1.5 1.5 0 0 0 2.121 2.122zm-465.308.439h464.247v-3H104.587zM146.812 384.782c3.072 0 5.28-1.728 5.28-6.264v-9.864h-1.944v9.888c0 3.312-1.44 4.488-3.336 4.488s-3.312-1.176-3.312-4.488v-9.888h-2.016v9.864c0 4.536 2.232 6.264 5.328 6.264m15.687 0c3.456 0 5.568-1.992 5.568-4.512 0-2.352-1.56-3.384-3.48-4.224l-2.208-.96c-1.344-.576-2.808-1.128-2.808-2.64 0-1.44 1.224-2.328 3.12-2.328 1.56 0 2.76.576 3.792 1.488l1.056-1.296c-1.152-1.152-2.88-1.944-4.848-1.944-3 0-5.16 1.776-5.16 4.2 0 2.304 1.824 3.456 3.408 4.08l2.256.984c1.608.696 2.832 1.176 2.832 2.808 0 1.56-1.272 2.592-3.504 2.592-1.728 0-3.36-.792-4.536-1.992l-1.2 1.392c1.416 1.44 3.408 2.352 5.712 2.352m11.03-.288h9.96v-1.704h-7.944v-5.76h6.504v-1.704h-6.504v-4.992h7.704v-1.68h-9.72zm15.231 0h1.992v-6.696h2.808l3.792 6.696h2.28l-4.008-6.912c2.136-.552 3.528-2.016 3.528-4.488 0-3.288-2.304-4.44-5.496-4.44h-4.896zm1.992-8.328v-5.904h2.616c2.448 0 3.792.744 3.792 2.832 0 2.064-1.344 3.072-3.792 3.072zm29.069 8.328h9.84v-1.704h-3.912v-12.456h3.912v-1.68h-9.84v1.68h3.912v12.456h-3.912zm15.303 0h1.896v-8.304c0-1.632-.192-3.336-.264-4.944h.048l1.584 3.24 5.112 10.008h2.04v-15.84h-1.896v8.232c0 1.656.192 3.456.264 5.016h-.048l-1.584-3.24-5.112-10.008h-2.04zm15.878 0h9.84v-1.704h-3.912v-12.456h3.912v-1.68h-9.84v1.68h3.912v12.456h-3.912zm19.503 0h2.016v-14.16h5.184v-1.68h-12.384v1.68h5.184zm11.679 0h9.84v-1.704h-3.912v-12.456h3.912v-1.68h-9.84v1.68h3.912v12.456h-3.912zm14.078 0h2.04l1.512-4.848h5.712l1.488 4.848h2.112l-5.304-15.84h-2.256zm4.056-6.456.744-2.424c.552-1.776 1.056-3.48 1.56-5.328h.096a155 155 0 0 0 1.56 5.328l.744 2.424zm16.959 6.456h2.016v-14.16h5.184v-1.68h-12.384v1.68h5.184zm12.158 0h9.96v-1.704h-7.944v-5.76h6.504v-1.704h-6.504v-4.992h7.704v-1.68h-9.72zm20.151.288c3.456 0 5.568-1.992 5.568-4.512 0-2.352-1.56-3.384-3.48-4.224l-2.208-.96c-1.344-.576-2.808-1.128-2.808-2.64 0-1.44 1.224-2.328 3.12-2.328 1.56 0 2.76.576 3.792 1.488l1.056-1.296c-1.152-1.152-2.88-1.944-4.848-1.944-3 0-5.16 1.776-5.16 4.2 0 2.304 1.824 3.456 3.408 4.08l2.256.984c1.608.696 2.832 1.176 2.832 2.808 0 1.56-1.272 2.592-3.504 2.592-1.728 0-3.36-.792-4.536-1.992l-1.2 1.392c1.416 1.44 3.408 2.352 5.712 2.352m-209.23 35.712h2.04l1.512-4.848h5.712l1.488 4.848h2.112l-5.304-15.84h-2.256zm4.056-6.456.744-2.424c.552-1.776 1.056-3.48 1.56-5.328h.096a155 155 0 0 0 1.56 5.328l.744 2.424zm17.991 6.744c3.072 0 5.28-1.728 5.28-6.264v-9.864h-1.944v9.888c0 3.312-1.44 4.488-3.336 4.488s-3.312-1.176-3.312-4.488v-9.888h-2.016v9.864c0 4.536 2.232 6.264 5.328 6.264m14.558-.288h2.016v-14.16h5.184v-1.68h-12.384v1.68h5.184zm11.295 0h2.016v-7.464h6.576v7.464h2.016v-15.84h-2.016v6.648h-6.576v-6.648h-2.016zm16.454 0h9.96v-1.704h-7.944v-5.76h6.504v-1.704h-6.504v-4.992h7.704v-1.68h-9.72zm14.823 0h1.896v-8.304c0-1.632-.192-3.336-.264-4.944h.048l1.584 3.24 5.112 10.008h2.04v-15.84h-1.896v8.232c0 1.656.192 3.456.264 5.016h-.048l-1.584-3.24-5.112-10.008h-2.04zm19.791 0h2.016v-14.16h5.184v-1.68H234.14v1.68h5.184zm11.678 0h9.84v-1.704h-3.912v-12.456h3.912v-1.68h-9.84v1.68h3.912v12.456h-3.912zm21.807.288c2.016 0 3.552-.84 4.8-2.28l-1.152-1.224c-1.008 1.128-2.088 1.752-3.528 1.752-3.024 0-4.968-2.52-4.968-6.504 0-3.936 1.944-6.408 4.968-6.408 1.32 0 2.352.576 3.168 1.44l1.128-1.272c-.912-1.008-2.4-1.92-4.296-1.92-4.104 0-7.032 3.12-7.032 8.208 0 5.16 2.952 8.208 6.912 8.208m7.863-.288h2.04l1.512-4.848h5.712l1.488 4.848h2.112l-5.304-15.84h-2.256zm4.056-6.456.744-2.424c.552-1.776 1.056-3.48 1.56-5.328h.096a155 155 0 0 0 1.56 5.328l.744 2.424zm16.958 6.456h2.016v-14.16h5.184v-1.68h-12.384v1.68h5.184zm11.679 0h9.84v-1.704h-3.912v-12.456h3.912v-1.68h-9.84v1.68h3.912v12.456h-3.912zm20.51.288c3.552 0 6.048-3.192 6.048-8.28 0-5.04-2.496-8.136-6.048-8.136s-6.048 3.072-6.048 8.136c0 5.088 2.496 8.28 6.048 8.28m0-1.752c-2.4 0-3.984-2.568-3.984-6.528 0-3.936 1.584-6.384 3.984-6.384s3.984 2.448 3.984 6.384c0 3.96-1.584 6.528-3.984 6.528m10.383 1.464h1.896v-8.304c0-1.632-.192-3.336-.264-4.944h.048l1.584 3.24 5.112 10.008h2.04v-15.84h-1.896v8.232c0 1.656.192 3.456.264 5.016h-.048l-1.584-3.24-5.112-10.008h-2.04zM632.408 867.039c3.456 0 5.568-1.992 5.568-4.512 0-2.352-1.56-3.384-3.48-4.224l-2.208-.96c-1.344-.576-2.808-1.128-2.808-2.64 0-1.44 1.224-2.328 3.12-2.328 1.56 0 2.76.576 3.792 1.488l1.056-1.296c-1.152-1.152-2.88-1.944-4.848-1.944-3 0-5.16 1.776-5.16 4.2 0 2.304 1.824 3.456 3.408 4.08l2.256.984c1.608.696 2.832 1.176 2.832 2.808 0 1.56-1.272 2.592-3.504 2.592-1.728 0-3.36-.792-4.536-1.992l-1.2 1.392c1.416 1.44 3.408 2.352 5.712 2.352m11.031-.288h9.96v-1.704h-7.944v-5.76h6.504v-1.704h-6.504v-4.992h7.704v-1.68h-9.72zm14.823 0h1.896v-8.304c0-1.632-.192-3.336-.264-4.944h.048l1.584 3.24 5.112 10.008h2.04v-15.84h-1.896v8.232c0 1.656.192 3.456.264 5.016h-.048l-1.584-3.24-5.112-10.008h-2.04zm15.638 0h3.936c4.656 0 7.2-2.952 7.2-7.992 0-5.016-2.544-7.848-7.296-7.848h-3.84zm1.992-1.632v-12.576h1.728c3.576 0 5.352 2.232 5.352 6.216 0 4.008-1.776 6.36-5.352 6.36zm29.046 1.632h2.016v-7.464h6.576v7.464h2.016v-15.84h-2.016v6.648h-6.576v-6.648h-2.016zm14.462 0h2.04l1.512-4.848h5.712l1.488 4.848h2.112l-5.304-15.84h-2.256zm4.056-6.456.744-2.424c.552-1.776 1.056-3.48 1.56-5.328h.096a155 155 0 0 0 1.56 5.328l.744 2.424zm18.087 6.744c3.456 0 5.568-1.992 5.568-4.512 0-2.352-1.56-3.384-3.48-4.224l-2.208-.96c-1.344-.576-2.808-1.128-2.808-2.64 0-1.44 1.224-2.328 3.12-2.328 1.56 0 2.76.576 3.792 1.488l1.056-1.296c-1.152-1.152-2.88-1.944-4.848-1.944-3 0-5.16 1.776-5.16 4.2 0 2.304 1.824 3.456 3.408 4.08l2.256.984c1.608.696 2.832 1.176 2.832 2.808 0 1.56-1.272 2.592-3.504 2.592-1.728 0-3.36-.792-4.536-1.992l-1.2 1.392c1.416 1.44 3.408 2.352 5.712 2.352m10.166-.288h2.016v-7.464h6.576v7.464h2.016v-15.84h-2.016v6.648h-6.576v-6.648h-2.016zm39.678 4.224 1.08-1.008c-3.216-2.712-4.704-5.856-4.704-9.888s1.488-7.176 4.704-9.888l-1.08-1.008c-3.336 2.592-5.4 6.264-5.4 10.896s2.064 8.304 5.4 10.896m13.694-3.936c2.016 0 3.552-.84 4.8-2.28l-1.152-1.224c-1.008 1.128-2.088 1.752-3.528 1.752-3.024 0-4.968-2.52-4.968-6.504 0-3.936 1.944-6.408 4.968-6.408 1.32 0 2.352.576 3.168 1.44l1.128-1.272c-.912-1.008-2.4-1.92-4.296-1.92-4.104 0-7.032 3.12-7.032 8.208 0 5.16 2.952 8.208 6.912 8.208m14.295 0c3.552 0 6.048-3.192 6.048-8.28 0-5.04-2.496-8.136-6.048-8.136s-6.048 3.072-6.048 8.136c0 5.088 2.496 8.28 6.048 8.28m0-1.752c-2.4 0-3.984-2.568-3.984-6.528 0-3.936 1.584-6.384 3.984-6.384s3.984 2.448 3.984 6.384c0 3.96-1.584 6.528-3.984 6.528m10.431 1.464h3.936c4.656 0 7.2-2.952 7.2-7.992 0-5.016-2.544-7.848-7.296-7.848h-3.84zm1.992-1.632v-12.576h1.728c3.576 0 5.352 2.232 5.352 6.216 0 4.008-1.776 6.36-5.352 6.36zm14.318 1.632h9.96v-1.704h-7.944v-5.76h6.504v-1.704h-6.504v-4.992h7.704v-1.68h-9.72zm34.469 0h2.328l4.992-15.84h-2.04l-2.52 8.568c-.552 1.872-.936 3.36-1.512 5.232h-.096c-.576-1.872-.96-3.36-1.512-5.232l-2.544-8.568h-2.112zm12.303 0h9.96v-1.704h-7.944v-5.76h6.504v-1.704h-6.504v-4.992h7.704v-1.68h-9.72zm15.231 0h1.992v-6.696h2.808l3.792 6.696h2.28l-4.008-6.912c2.136-.552 3.528-2.016 3.528-4.488 0-3.288-2.304-4.44-5.496-4.44h-4.896zm1.992-8.328v-5.904h2.616c2.448 0 3.792.744 3.792 2.832 0 2.064-1.344 3.072-3.792 3.072zm13.478 8.328h9.84v-1.704h-3.912v-12.456h3.912v-1.68h-9.84v1.68h3.912v12.456h-3.912zm16.551 0h1.992v-7.104h6.456v-1.68h-6.456v-5.376h7.632v-1.68h-9.624zm14.631 0h9.84v-1.704H960.7v-12.456h3.912v-1.68h-9.84v1.68h3.912v12.456h-3.912zm16.07 0h9.96v-1.704h-7.944v-5.76h6.504v-1.704h-6.504v-4.992h7.704v-1.68h-9.72zm15.231 0h1.992v-6.696h2.808l3.792 6.696h2.28l-4.008-6.912c2.136-.552 3.528-2.016 3.528-4.488 0-3.288-2.304-4.44-5.496-4.44h-4.896zm1.992-8.328v-5.904h2.616c2.448 0 3.792.744 3.792 2.832 0 2.064-1.344 3.072-3.792 3.072zm15.205 12.552c3.34-2.592 5.4-6.264 5.4-10.896s-2.06-8.304-5.4-10.896l-1.08 1.008c3.22 2.712 4.71 5.856 4.71 9.888s-1.49 7.176-4.71 9.888z"/><path fill="#d16bcd" d="M583.092 896.026a1.5 1.5 0 1 0-.007 3zm700.868 4.138c.59-.584.59-1.534 0-2.121l-9.52-9.567a1.497 1.497 0 0 0-2.12-.005 1.5 1.5 0 0 0-.01 2.121l8.47 8.504-8.5 8.467a1.5 1.5 0 0 0-.01 2.121c.58.587 1.53.589 2.12.005zm-700.875-1.138 699.815 1.575v-3l-699.808-1.575zM583.092 1284.5c-.829 0-1.502.67-1.504 1.5-.001.83.669 1.5 1.497 1.5zm700.868 4.14c.59-.59.59-1.54 0-2.12l-9.52-9.57a1.5 1.5 0 0 0-2.12-.01c-.59.59-.59 1.54-.01 2.13l8.47 8.5-8.5 8.47a1.5 1.5 0 0 0-.01 2.12c.58.59 1.53.59 2.12 0zm-700.875-1.14 699.815 1.58v-3l-699.808-1.58z"/><path fill="#ededed" d="M632.408 1212.04c3.456 0 5.568-1.99 5.568-4.51 0-2.35-1.56-3.39-3.48-4.23l-2.208-.96c-1.344-.57-2.808-1.12-2.808-2.64 0-1.44 1.224-2.32 3.12-2.32 1.56 0 2.76.57 3.792 1.48l1.056-1.29c-1.152-1.15-2.88-1.95-4.848-1.95-3 0-5.16 1.78-5.16 4.2 0 2.31 1.824 3.46 3.408 4.08l2.256.99c1.608.69 2.832 1.17 2.832 2.81 0 1.56-1.272 2.59-3.504 2.59-1.728 0-3.36-.79-4.536-1.99l-1.2 1.39c1.416 1.44 3.408 2.35 5.712 2.35m11.031-.29h9.96v-1.7h-7.944v-5.76h6.504v-1.71h-6.504v-4.99h7.704v-1.68h-9.72zm14.823 0h1.896v-8.3c0-1.63-.192-3.34-.264-4.95h.048l1.584 3.24 5.112 10.01h2.04v-15.84h-1.896v8.23c0 1.66.192 3.46.264 5.02h-.048l-1.584-3.24-5.112-10.01h-2.04zm15.638 0h3.936c4.656 0 7.2-2.95 7.2-7.99 0-5.02-2.544-7.85-7.296-7.85h-3.84zm1.992-1.63v-12.58h1.728c3.576 0 5.352 2.24 5.352 6.22 0 4.01-1.776 6.36-5.352 6.36zm35.646 1.92c2.016 0 3.552-.84 4.8-2.28l-1.152-1.22c-1.008 1.12-2.088 1.75-3.528 1.75-3.024 0-4.968-2.52-4.968-6.51 0-3.93 1.944-6.4 4.968-6.4 1.32 0 2.352.57 3.168 1.44l1.128-1.28c-.912-1-2.4-1.92-4.296-1.92-4.104 0-7.032 3.12-7.032 8.21 0 5.16 2.952 8.21 6.912 8.21m14.294 0c3.552 0 6.048-3.19 6.048-8.28 0-5.04-2.496-8.14-6.048-8.14s-6.048 3.08-6.048 8.14c0 5.09 2.496 8.28 6.048 8.28m0-1.75c-2.4 0-3.984-2.57-3.984-6.53 0-3.94 1.584-6.38 3.984-6.38s3.984 2.44 3.984 6.38c0 3.96-1.584 6.53-3.984 6.53m10.431 1.46h3.936c4.656 0 7.2-2.95 7.2-7.99 0-5.02-2.544-7.85-7.296-7.85h-3.84zm1.992-1.63v-12.58h1.728c3.576 0 5.352 2.24 5.352 6.22 0 4.01-1.776 6.36-5.352 6.36zm14.318 1.63h9.96v-1.7h-7.944v-5.76h6.504v-1.71h-6.504v-4.99h7.704v-1.68h-9.72zm34.47 0h2.328l4.992-15.84h-2.04l-2.52 8.57c-.552 1.87-.936 3.36-1.512 5.23h-.096c-.576-1.87-.96-3.36-1.512-5.23l-2.544-8.57h-2.112zm12.302 0h9.96v-1.7h-7.944v-5.76h6.504v-1.71h-6.504v-4.99h7.704v-1.68h-9.72zm15.231 0h1.992v-6.69h2.808l3.792 6.69h2.28l-4.008-6.91c2.136-.55 3.528-2.02 3.528-4.49 0-3.29-2.304-4.44-5.496-4.44h-4.896zm1.992-8.33v-5.9h2.616c2.448 0 3.792.74 3.792 2.83 0 2.07-1.344 3.07-3.792 3.07zm13.479 8.33h9.84v-1.7h-3.912v-12.46h3.912v-1.68h-9.84v1.68h3.912v12.46h-3.912zm16.55 0h1.992v-7.1h6.456v-1.68h-6.456v-5.38h7.632v-1.68h-9.624zm14.631 0h9.84v-1.7h-3.912v-12.46h3.912v-1.68h-9.84v1.68h3.912v12.46h-3.912zm16.07 0h9.96v-1.7h-7.944v-5.76h6.504v-1.71h-6.504v-4.99h7.704v-1.68h-9.72zm15.231 0h1.992v-6.69h2.808l3.792 6.69h2.28l-4.008-6.91c2.136-.55 3.528-2.02 3.528-4.49 0-3.29-2.304-4.44-5.496-4.44h-4.896zm1.992-8.33v-5.9h2.616c2.448 0 3.792.74 3.792 2.83 0 2.07-1.344 3.07-3.792 3.07zm33.197 5.84h1.584v-4.68h4.368v-1.49h-4.368v-4.68h-1.584v4.68h-4.368v1.49h4.368zm-301.862 38.49h2.04l1.512-4.85h5.712l1.488 4.85h2.112l-5.304-15.84h-2.256zm4.056-6.45.744-2.43c.552-1.77 1.056-3.48 1.56-5.33h.096c.504 1.85 1.008 3.56 1.56 5.33l.744 2.43zm17.991 6.74c3.072 0 5.28-1.73 5.28-6.26v-9.87h-1.944v9.89c0 3.31-1.44 4.49-3.336 4.49s-3.312-1.18-3.312-4.49v-9.89h-2.016v9.87c0 4.53 2.232 6.26 5.328 6.26m14.559-.29h2.016v-14.16h5.184v-1.68h-12.384v1.68h5.184zm11.294 0h2.016v-7.46h6.576v7.46h2.016v-15.84h-2.016v6.65h-6.576v-6.65h-2.016zm20.895.29c3.552 0 6.048-3.19 6.048-8.28 0-5.04-2.496-8.14-6.048-8.14s-6.048 3.08-6.048 8.14c0 5.09 2.496 8.28 6.048 8.28m0-1.75c-2.4 0-3.984-2.57-3.984-6.53 0-3.94 1.584-6.38 3.984-6.38s3.984 2.44 3.984 6.38c0 3.96-1.584 6.53-3.984 6.53m10.791 1.46h1.992v-6.69h2.808l3.792 6.69h2.28l-4.008-6.91c2.136-.55 3.528-2.02 3.528-4.49 0-3.29-2.304-4.44-5.496-4.44h-4.896zm1.992-8.33v-5.9h2.616c2.448 0 3.792.74 3.792 2.83 0 2.07-1.344 3.07-3.792 3.07zm13.478 8.33h9.84v-1.7h-3.912v-12.46h3.912v-1.68h-9.84v1.68h3.912v12.46h-3.912zm14.871 0h11.376v-1.7h-8.952l8.832-12.96v-1.2h-10.488v1.68h8.04l-8.808 12.98zm14.798 0h2.04l1.512-4.85h5.712l1.488 4.85h2.112l-5.304-15.84h-2.256zm4.056-6.45.744-2.43c.552-1.77 1.056-3.48 1.56-5.33h.096c.504 1.85 1.008 3.56 1.56 5.33l.744 2.43zm16.959 6.45h2.016v-14.16h5.184v-1.68h-12.384v1.68h5.184zm11.679 0h9.84v-1.7h-3.912v-12.46h3.912v-1.68h-9.84v1.68h3.912v12.46h-3.912zm20.51.29c3.552 0 6.048-3.19 6.048-8.28 0-5.04-2.496-8.14-6.048-8.14s-6.048 3.08-6.048 8.14c0 5.09 2.496 8.28 6.048 8.28m0-1.75c-2.4 0-3.984-2.57-3.984-6.53 0-3.94 1.584-6.38 3.984-6.38s3.984 2.44 3.984 6.38c0 3.96-1.584 6.53-3.984 6.53m10.383 1.46h1.896v-8.3c0-1.63-.192-3.34-.264-4.95h.048l1.584 3.24 5.112 10.01h2.04v-15.84h-1.896v8.23c0 1.66.192 3.46.264 5.02h-.048l-1.584-3.24-5.112-10.01h-2.04zm37.685.29c2.016 0 3.552-.84 4.8-2.28l-1.152-1.22c-1.008 1.12-2.088 1.75-3.528 1.75-3.024 0-4.968-2.52-4.968-6.51 0-3.93 1.944-6.4 4.968-6.4 1.32 0 2.352.57 3.168 1.44l1.128-1.28c-.912-1-2.4-1.92-4.296-1.92-4.104 0-7.032 3.12-7.032 8.21 0 5.16 2.952 8.21 6.912 8.21m14.295 0c3.552 0 6.048-3.19 6.048-8.28 0-5.04-2.496-8.14-6.048-8.14s-6.048 3.08-6.048 8.14c0 5.09 2.496 8.28 6.048 8.28m0-1.75c-2.4 0-3.984-2.57-3.984-6.53 0-3.94 1.584-6.38 3.984-6.38s3.984 2.44 3.984 6.38c0 3.96-1.584 6.53-3.984 6.53m10.43 1.46h3.936c4.656 0 7.2-2.95 7.2-7.99 0-5.02-2.544-7.85-7.296-7.85h-3.84zm1.992-1.63v-12.58h1.728c3.576 0 5.352 2.24 5.352 6.22 0 4.01-1.776 6.36-5.352 6.36zm14.319 1.63h9.96v-1.7h-7.944v-5.76h6.504v-1.71h-6.504v-4.99h7.704v-1.68h-9.72zM955.966 1786.88h1.992v-6.7h2.808l3.792 6.7h2.28l-4.008-6.91c2.136-.55 3.528-2.02 3.528-4.49 0-3.29-2.304-4.44-5.496-4.44h-4.896zm1.992-8.33v-5.9h2.616c2.448 0 3.792.74 3.792 2.83 0 2.06-1.344 3.07-3.792 3.07zm13.959 8.33h9.96v-1.7h-7.944v-5.76h6.504v-1.71h-6.504v-4.99h7.704v-1.68h-9.72zm19.023 0h2.016v-14.16h5.184v-1.68h-12.384v1.68h5.184zm16.62.29c3.07 0 5.28-1.73 5.28-6.27v-9.86h-1.94v9.89c0 3.31-1.44 4.49-3.34 4.49-1.89 0-3.31-1.18-3.31-4.49v-9.89h-2.02v9.86c0 4.54 2.24 6.27 5.33 6.27m10.77-.29h1.99v-6.7h2.81l3.79 6.7h2.28l-4.01-6.91c2.14-.55 3.53-2.02 3.53-4.49 0-3.29-2.3-4.44-5.49-4.44h-4.9zm1.99-8.33v-5.9h2.62c2.45 0 3.79.74 3.79 2.83 0 2.06-1.34 3.07-3.79 3.07zm13.19 8.33h1.9v-8.3c0-1.64-.19-3.34-.27-4.95h.05l1.59 3.24 5.11 10.01h2.04v-15.84h-1.9v8.23c0 1.66.19 3.46.27 5.02h-.05l-1.59-3.24-5.11-10.01h-2.04zm36.41.29c3.08 0 5.28-1.73 5.28-6.27v-9.86h-1.94v9.89c0 3.31-1.44 4.49-3.34 4.49-1.89 0-3.31-1.18-3.31-4.49v-9.89h-2.01v9.86c0 4.54 2.23 6.27 5.32 6.27m15.69 0c3.46 0 5.57-1.99 5.57-4.51 0-2.36-1.56-3.39-3.48-4.23l-2.21-.96c-1.34-.57-2.81-1.13-2.81-2.64 0-1.44 1.23-2.33 3.12-2.33 1.56 0 2.76.58 3.8 1.49l1.05-1.29c-1.15-1.16-2.88-1.95-4.85-1.95-3 0-5.16 1.78-5.16 4.2 0 2.31 1.83 3.46 3.41 4.08l2.26.99c1.61.69 2.83 1.17 2.83 2.8 0 1.56-1.27 2.6-3.5 2.6-1.73 0-3.36-.8-4.54-2l-1.2 1.4c1.42 1.44 3.41 2.35 5.71 2.35m11.03-.29h9.96v-1.7h-7.94v-5.76h6.5v-1.71h-6.5v-4.99h7.7v-1.68h-9.72zm15.23 0h1.99v-6.7h2.81l3.79 6.7h2.28l-4-6.91c2.13-.55 3.52-2.02 3.52-4.49 0-3.29-2.3-4.44-5.49-4.44h-4.9zm1.99-8.33v-5.9h2.62c2.45 0 3.79.74 3.79 2.83 0 2.06-1.34 3.07-3.79 3.07zm34.11 8.62c3.46 0 5.57-1.99 5.57-4.51 0-2.36-1.56-3.39-3.48-4.23l-2.21-.96c-1.34-.57-2.8-1.13-2.8-2.64 0-1.44 1.22-2.33 3.12-2.33 1.56 0 2.76.58 3.79 1.49l1.05-1.29c-1.15-1.16-2.88-1.95-4.84-1.95-3 0-5.16 1.78-5.16 4.2 0 2.31 1.82 3.46 3.4 4.08l2.26.99c1.61.69 2.83 1.17 2.83 2.8 0 1.56-1.27 2.6-3.5 2.6-1.73 0-3.36-.8-4.54-2l-1.2 1.4c1.42 1.44 3.41 2.35 5.71 2.35m11.03-.29h9.96v-1.7h-7.94v-5.76h6.5v-1.71h-6.5v-4.99h7.7v-1.68H1159zm20.16.29c3.45 0 5.56-1.99 5.56-4.51 0-2.36-1.56-3.39-3.48-4.23l-2.2-.96c-1.35-.57-2.81-1.13-2.81-2.64 0-1.44 1.22-2.33 3.12-2.33 1.56 0 2.76.58 3.79 1.49l1.06-1.29c-1.16-1.16-2.88-1.95-4.85-1.95-3 0-5.16 1.78-5.16 4.2 0 2.31 1.82 3.46 3.41 4.08l2.25.99c1.61.69 2.83 1.17 2.83 2.8 0 1.56-1.27 2.6-3.5 2.6-1.73 0-3.36-.8-4.54-2l-1.2 1.4c1.42 1.44 3.41 2.35 5.72 2.35m15.59 0c3.45 0 5.56-1.99 5.56-4.51 0-2.36-1.56-3.39-3.48-4.23l-2.2-.96c-1.35-.57-2.81-1.13-2.81-2.64 0-1.44 1.22-2.33 3.12-2.33 1.56 0 2.76.58 3.79 1.49l1.06-1.29c-1.16-1.16-2.88-1.95-4.85-1.95-3 0-5.16 1.78-5.16 4.2 0 2.31 1.82 3.46 3.41 4.08l2.25.99c1.61.69 2.83 1.17 2.83 2.8 0 1.56-1.27 2.6-3.5 2.6-1.73 0-3.36-.8-4.54-2l-1.2 1.4c1.42 1.44 3.41 2.35 5.72 2.35m10.55-.29h9.84v-1.7h-3.92v-12.46h3.92v-1.68h-9.84v1.68h3.91v12.46h-3.91zm20.51.29c3.55 0 6.05-3.19 6.05-8.28 0-5.04-2.5-8.14-6.05-8.14s-6.05 3.07-6.05 8.14c0 5.09 2.5 8.28 6.05 8.28m0-1.75c-2.4 0-3.99-2.57-3.99-6.53 0-3.94 1.59-6.39 3.99-6.39s3.98 2.45 3.98 6.39c0 3.96-1.58 6.53-3.98 6.53m10.38 1.46h1.9v-8.3c0-1.64-.2-3.34-.27-4.95h.05l1.58 3.24 5.12 10.01h2.04v-15.84h-1.9v8.23c0 1.66.19 3.46.26 5.02h-.04l-1.59-3.24-5.11-10.01h-2.04zM753.288 1035.5h1.992v-6.7h2.808l3.792 6.7h2.28l-4.008-6.91c2.136-.55 3.528-2.02 3.528-4.49 0-3.29-2.304-4.44-5.496-4.44h-4.896zm1.992-8.33v-5.9h2.616c2.448 0 3.792.74 3.792 2.83 0 2.06-1.344 3.07-3.792 3.07zm13.959 8.33h9.96v-1.7h-7.944v-5.76h6.504v-1.71h-6.504v-4.99h7.704v-1.68h-9.72zm14.871 0h3.936c4.656 0 7.2-2.95 7.2-7.99 0-5.02-2.544-7.85-7.296-7.85h-3.84zm1.992-1.63v-12.58h1.728c3.576 0 5.352 2.23 5.352 6.22 0 4.01-1.776 6.36-5.352 6.36zm13.838 1.63h9.84v-1.7h-3.912v-12.46h3.912v-1.68h-9.84v1.68h3.912v12.46h-3.912zm15.711 0h1.992v-6.7h2.808l3.792 6.7h2.28l-4.008-6.91c2.136-.55 3.528-2.02 3.528-4.49 0-3.29-2.304-4.44-5.496-4.44h-4.896zm1.992-8.33v-5.9h2.616c2.448 0 3.792.74 3.792 2.83 0 2.06-1.344 3.07-3.792 3.07zm13.958 8.33h9.96v-1.7h-7.944v-5.76h6.504v-1.71h-6.504v-4.99h7.704v-1.68h-9.72zm21.327.29c2.016 0 3.552-.84 4.8-2.28l-1.152-1.23c-1.008 1.13-2.088 1.76-3.528 1.76-3.024 0-4.968-2.52-4.968-6.51 0-3.93 1.944-6.41 4.968-6.41 1.32 0 2.352.58 3.168 1.44l1.128-1.27c-.912-1.01-2.4-1.92-4.296-1.92-4.104 0-7.032 3.12-7.032 8.21 0 5.16 2.952 8.21 6.912 8.21m13.287-.29h2.016v-14.16h5.184v-1.68h-12.384v1.68h5.184zm27.653 0h2.16l1.728-6.65c.24-.93.432-1.92.624-2.85h.072c.168.93.36 1.92.576 2.85l1.8 6.65h2.208l2.328-15.86h-1.896l-1.2 9.96c-.096 1.29-.24 2.61-.336 3.91h-.096c-.336-1.3-.696-2.64-.984-3.91l-1.656-5.86h-1.416l-1.656 5.86c-.312 1.29-.672 2.61-1.008 3.91h-.072c-.096-1.3-.264-2.59-.336-3.91l-1.272-9.96h-1.992zm15.207 0h9.84v-1.7h-3.912v-12.46h3.912v-1.68h-9.84v1.68h3.912v12.46h-3.912zm19.502 0h2.016v-14.16h5.184v-1.68h-12.384v1.68h5.184zm11.295 0h2.016v-7.46h6.576v7.46h2.016v-15.84h-2.016v6.65h-6.576v-6.65h-2.016zm30.053 0h2.04l1.512-4.85h5.712l1.488 4.85h2.112l-5.304-15.84h-2.256zm4.056-6.46.744-2.42c.552-1.78 1.056-3.48 1.56-5.33h.096c.504 1.85 1.008 3.55 1.56 5.33l.744 2.42zm17.991 6.75c3.072 0 5.28-1.73 5.28-6.27v-9.86h-1.944v9.89c0 3.31-1.44 4.49-3.336 4.49s-3.312-1.18-3.312-4.49v-9.89h-2.016v9.86c0 4.54 2.232 6.27 5.328 6.27m14.558-.29h2.02v-14.16h5.18v-1.68h-12.38v1.68h5.18zm11.29 0h2.02v-7.46h6.58v7.46h2.01v-15.84h-2.01v6.65h-6.58v-6.65h-2.02zm20.9.29c3.55 0 6.05-3.19 6.05-8.28 0-5.04-2.5-8.14-6.05-8.14s-6.05 3.07-6.05 8.14c0 5.09 2.5 8.28 6.05 8.28m0-1.75c-2.4 0-3.98-2.57-3.98-6.53 0-3.94 1.58-6.39 3.98-6.39s3.98 2.45 3.98 6.39c0 3.96-1.58 6.53-3.98 6.53m10.79 1.46h1.99v-6.7h2.81l3.79 6.7h2.28l-4.01-6.91c2.14-.55 3.53-2.02 3.53-4.49 0-3.29-2.3-4.44-5.49-4.44h-4.9zm1.99-8.33v-5.9h2.62c2.45 0 3.79.74 3.79 2.83 0 2.06-1.34 3.07-3.79 3.07zm13.48 8.33h9.84v-1.7h-3.91v-12.46h3.91v-1.68h-9.84v1.68h3.91v12.46h-3.91zm14.87 0h11.38v-1.7h-8.95l8.83-12.96v-1.2h-10.49v1.68h8.04l-8.81 12.98zm14.8 0h2.04l1.51-4.85h5.71l1.49 4.85h2.11l-5.3-15.84h-2.26zm4.06-6.46.74-2.42c.55-1.78 1.06-3.48 1.56-5.33h.1c.5 1.85 1 3.55 1.56 5.33l.74 2.42zm16.95 6.46h2.02v-14.16h5.18v-1.68h-12.38v1.68h5.18zm11.68 0h9.84v-1.7h-3.91v-12.46h3.91v-1.68h-9.84v1.68h3.92v12.46h-3.92zm20.51.29c3.56 0 6.05-3.19 6.05-8.28 0-5.04-2.49-8.14-6.05-8.14-3.55 0-6.04 3.07-6.04 8.14 0 5.09 2.49 8.28 6.04 8.28m0-1.75c-2.4 0-3.98-2.57-3.98-6.53 0-3.94 1.58-6.39 3.98-6.39s3.99 2.45 3.99 6.39c0 3.96-1.59 6.53-3.99 6.53m10.39 1.46h1.89v-8.3c0-1.64-.19-3.34-.26-4.95h.05l1.58 3.24 5.11 10.01h2.04v-15.84h-1.89v8.23c0 1.66.19 3.46.26 5.02h-.05l-1.58-3.24-5.11-10.01h-2.04zm37.68.29c2.02 0 3.55-.84 4.8-2.28l-1.15-1.23c-1.01 1.13-2.09 1.76-3.53 1.76-3.02 0-4.97-2.52-4.97-6.51 0-3.93 1.95-6.41 4.97-6.41 1.32 0 2.35.58 3.17 1.44l1.13-1.27a5.8 5.8 0 0 0-4.3-1.92c-4.1 0-7.03 3.12-7.03 8.21 0 5.16 2.95 8.21 6.91 8.21m14.3 0c3.55 0 6.04-3.19 6.04-8.28 0-5.04-2.49-8.14-6.04-8.14-3.56 0-6.05 3.07-6.05 8.14 0 5.09 2.49 8.28 6.05 8.28m0-1.75c-2.4 0-3.99-2.57-3.99-6.53 0-3.94 1.59-6.39 3.99-6.39s3.98 2.45 3.98 6.39c0 3.96-1.58 6.53-3.98 6.53m10.43 1.46h3.93c4.66 0 7.2-2.95 7.2-7.99 0-5.02-2.54-7.85-7.29-7.85h-3.84zm1.99-1.63v-12.58h1.73c3.57 0 5.35 2.23 5.35 6.22 0 4.01-1.78 6.36-5.35 6.36zm14.32 1.63h9.96v-1.7h-7.95v-5.76h6.51v-1.71h-6.51v-4.99h7.71v-1.68h-9.72z"/><path fill="#3ecf8e" d="M592.528 1068.19a1.5 1.5 0 0 0 0 2.12l9.546 9.55a1.51 1.51 0 0 0 2.121 0c.586-.59.586-1.54 0-2.12l-8.485-8.49 8.485-8.48a1.51 1.51 0 0 0 0-2.13 1.51 1.51 0 0 0-2.121 0zm1.061 2.56h703.501v-3H593.589zM592.528 1825.94a1.5 1.5 0 0 0 0 2.12l9.546 9.55a1.51 1.51 0 0 0 2.121 0c.586-.59.586-1.54 0-2.12l-8.485-8.49 8.485-8.49c.586-.58.586-1.53 0-2.12a1.51 1.51 0 0 0-2.121 0zm1.061 2.56h703.501v-3H593.589z"/><path fill="#4d4d4d" d="M101.427 1982.16c.781.79 2.047.79 2.829 0l12.727-12.72a2.001 2.001 0 0 0-2.828-2.83l-11.314 11.31-11.313-11.31a2 2 0 0 0-2.829 0 2 2 0 0 0 0 2.83zm-.586-1664.26v1662.85h4V317.9zM581.868 1982.16c.781.79 2.047.79 2.828 0l12.728-12.72a2.002 2.002 0 0 0-2.829-2.83l-11.313 11.31-11.314-11.31a2.001 2.001 0 0 0-2.828 2.83zm-.586-1664.26v1662.85h4V317.9zM1295.43 1982.16c.78.79 2.04.79 2.83 0l12.72-12.72c.78-.78.78-2.05 0-2.83s-2.04-.78-2.82 0l-11.32 11.31-11.31-11.31c-.78-.78-2.05-.78-2.83 0s-.78 2.05 0 2.83zm-.59-1664.26v1662.85h4V317.9z"/><path fill="#d16bcd" fill-opacity=".05" d="M571.088 553.622c0-8.836 7.164-16 16-16h491.002c17.67 0 32 14.327 32 32v144c0 17.674-14.33 32-32 32H587.088c-8.836 0-16-7.163-16-16z"/><rect width="206" height="24" x="572.088" y="744.622" fill="#462944" rx="12" transform="rotate(-90 572.088 744.622)"/><rect width="206" height="24" x="572.088" y="744.622" stroke="#d16bcd" stroke-linecap="round" stroke-width="2" rx="12" transform="rotate(-90 572.088 744.622)"/><path stroke="#ededed" stroke-linecap="round" stroke-linejoin="round" stroke-width="2" d="M649.088 629.622s16-8 16-20v-14l-16-6-16 6v14c0 12 16 20 16 20"/><path fill="#ededed" d="M633.584 682.91c2.016 0 3.552-.84 4.8-2.28l-1.152-1.224c-1.008 1.128-2.088 1.752-3.528 1.752-3.024 0-4.968-2.52-4.968-6.504 0-3.936 1.944-6.408 4.968-6.408 1.32 0 2.352.576 3.168 1.44l1.128-1.272c-.912-1.008-2.4-1.92-4.296-1.92-4.104 0-7.032 3.12-7.032 8.208 0 5.16 2.952 8.208 6.912 8.208m9.495-.288h1.992v-6.696h2.808l3.792 6.696h2.28l-4.008-6.912c2.136-.552 3.528-2.016 3.528-4.488 0-3.288-2.304-4.44-5.496-4.44h-4.896zm1.992-8.328v-5.904h2.616c2.448 0 3.792.744 3.792 2.832 0 2.064-1.344 3.072-3.792 3.072zm13.959 8.328h9.96v-1.704h-7.944v-5.76h6.504v-1.704h-6.504v-4.992h7.704v-1.68h-9.72zm13.598 0h2.04l1.512-4.848h5.712l1.488 4.848h2.112l-5.304-15.84h-2.256zm4.056-6.456.744-2.424c.552-1.776 1.056-3.48 1.56-5.328h.096a155 155 0 0 0 1.56 5.328l.744 2.424zm16.959 6.456h2.016v-14.16h5.184v-1.68h-12.384v1.68h5.184zm12.159 0h9.96v-1.704h-7.944v-5.76h6.504v-1.704h-6.504v-4.992h7.704v-1.68h-9.72zm30.821 0h1.992v-6.696h2.808l3.792 6.696h2.28l-4.008-6.912c2.136-.552 3.528-2.016 3.528-4.488 0-3.288-2.304-4.44-5.496-4.44h-4.896zm1.992-8.328v-5.904h2.616c2.448 0 3.792.744 3.792 2.832 0 2.064-1.344 3.072-3.792 3.072zm11.966 8.328h2.04l1.512-4.848h5.712l1.488 4.848h2.112l-5.304-15.84h-2.256zm4.056-6.456.744-2.424c.552-1.776 1.056-3.48 1.56-5.328h.096a155 155 0 0 0 1.56 5.328l.744 2.424zm12.759 6.456h1.896v-8.304c0-1.632-.192-3.336-.264-4.944h.048l1.584 3.24 5.112 10.008h2.04v-15.84h-1.896v8.232c0 1.656.192 3.456.264 5.016h-.048l-1.584-3.24-5.112-10.008h-2.04zm15.639 0h3.936c4.656 0 7.2-2.952 7.2-7.992 0-5.016-2.544-7.848-7.296-7.848h-3.84zm1.992-1.632v-12.576h1.728c3.576 0 5.352 2.232 5.352 6.216 0 4.008-1.776 6.36-5.352 6.36zm18.758 1.92c3.552 0 6.048-3.192 6.048-8.28 0-5.04-2.496-8.136-6.048-8.136s-6.048 3.072-6.048 8.136c0 5.088 2.496 8.28 6.048 8.28m0-1.752c-2.4 0-3.984-2.568-3.984-6.528 0-3.936 1.584-6.384 3.984-6.384s3.984 2.448 3.984 6.384c0 3.96-1.584 6.528-3.984 6.528M814 682.622h1.8v-8.952c0-1.296-.168-3.576-.264-4.848h.072l1.152 3.384 2.544 6.12h1.104l2.52-6.12 1.104-3.384h.096c-.096 1.272-.24 3.552-.24 4.848v8.952h1.824v-15.84h-2.352l-2.568 6.744-.864 2.568h-.096l-.912-2.568-2.568-6.744H814zm38.814.288c2.016 0 3.552-.84 4.8-2.28l-1.152-1.224c-1.008 1.128-2.088 1.752-3.528 1.752-3.024 0-4.968-2.52-4.968-6.504 0-3.936 1.944-6.408 4.968-6.408 1.32 0 2.352.576 3.168 1.44l1.128-1.272c-.912-1.008-2.4-1.92-4.296-1.92-4.104 0-7.032 3.12-7.032 8.208 0 5.16 2.952 8.208 6.912 8.208m14.295 0c3.552 0 6.048-3.192 6.048-8.28 0-5.04-2.496-8.136-6.048-8.136s-6.048 3.072-6.048 8.136c0 5.088 2.496 8.28 6.048 8.28m0-1.752c-2.4 0-3.984-2.568-3.984-6.528 0-3.936 1.584-6.384 3.984-6.384s3.984 2.448 3.984 6.384c0 3.96-1.584 6.528-3.984 6.528m10.43 1.464h3.936c4.656 0 7.2-2.952 7.2-7.992 0-5.016-2.544-7.848-7.296-7.848h-3.84zm1.992-1.632v-12.576h1.728c3.576 0 5.352 2.232 5.352 6.216 0 4.008-1.776 6.36-5.352 6.36zm14.319 1.632h9.96v-1.704h-7.944v-5.76h6.504v-1.704h-6.504v-4.992h7.704v-1.68h-9.72zm34.469 0h2.328l4.992-15.84h-2.04l-2.52 8.568c-.552 1.872-.936 3.36-1.512 5.232h-.096c-.576-1.872-.96-3.36-1.512-5.232l-2.544-8.568h-2.112zm12.303 0h9.96v-1.704h-7.944v-5.76h6.504v-1.704h-6.504v-4.992h7.704v-1.68h-9.72zm15.23 0h1.992v-6.696h2.808l3.792 6.696h2.28l-4.008-6.912c2.136-.552 3.528-2.016 3.528-4.488 0-3.288-2.304-4.44-5.496-4.44h-4.896zm1.992-8.328v-5.904h2.616c2.448 0 3.792.744 3.792 2.832 0 2.064-1.344 3.072-3.792 3.072zm13.479 8.328h9.84v-1.704h-3.912v-12.456h3.912v-1.68h-9.84v1.68h3.912v12.456h-3.912zm16.551 0h1.992v-7.104h6.456v-1.68h-6.456v-5.376h7.632v-1.68h-9.624zm14.626 0h9.84v-1.704h-3.91v-12.456h3.91v-1.68h-9.84v1.68h3.92v12.456h-3.92zm16.07 0h9.96v-1.704h-7.94v-5.76h6.5v-1.704h-6.5v-4.992h7.7v-1.68h-9.72zm15.24 0h1.99v-6.696h2.81l3.79 6.696h2.28l-4.01-6.912c2.14-.552 3.53-2.016 3.53-4.488 0-3.288-2.31-4.44-5.5-4.44h-4.89zm1.99-8.328v-5.904h2.61c2.45 0 3.8.744 3.8 2.832 0 2.064-1.35 3.072-3.8 3.072z"/><path fill="#3dcf8e" fill-opacity=".05" d="M610.472 1386.75c0-8.84 7.164-16 16-16h650.998c17.68 0 32 14.33 32 32v192c0 17.67-14.32 32-32 32H626.472c-8.836 0-16-7.16-16-16z"/><path stroke="#ededed" stroke-linecap="round" stroke-linejoin="round" stroke-width="2" d="m676.472 1440.75 6 6 20-20"/><path stroke="#ededed" stroke-linecap="round" stroke-linejoin="round" stroke-width="2" d="M700.472 1442.75v14c0 1.06-.421 2.08-1.171 2.83a4 4 0 0 1-2.829 1.17h-28a4 4 0 0 1-4-4v-28a3.998 3.998 0 0 1 4-4h22"/><path fill="#ededed" d="M666.968 1516.04c2.016 0 3.552-.84 4.8-2.28l-1.152-1.22c-1.008 1.12-2.088 1.75-3.528 1.75-3.024 0-4.968-2.52-4.968-6.51 0-3.93 1.944-6.4 4.968-6.4 1.32 0 2.352.57 3.168 1.44l1.128-1.28c-.912-1-2.4-1.92-4.296-1.92-4.104 0-7.032 3.12-7.032 8.21 0 5.16 2.952 8.21 6.912 8.21m14.295 0c3.552 0 6.048-3.19 6.048-8.28 0-5.04-2.496-8.14-6.048-8.14s-6.048 3.08-6.048 8.14c0 5.09 2.496 8.28 6.048 8.28m0-1.75c-2.4 0-3.984-2.57-3.984-6.53 0-3.94 1.584-6.38 3.984-6.38s3.984 2.44 3.984 6.38c0 3.96-1.584 6.53-3.984 6.53m10.43 1.46h3.936c4.656 0 7.2-2.95 7.2-7.99 0-5.02-2.544-7.85-7.296-7.85h-3.84zm1.992-1.63v-12.58h1.728c3.576 0 5.352 2.24 5.352 6.22 0 4.01-1.776 6.36-5.352 6.36zm14.319 1.63h9.96v-1.7h-7.944v-5.76h6.504v-1.71h-6.504v-4.99h7.704v-1.68h-9.72zm34.469 0h2.328l4.992-15.84h-2.04l-2.52 8.57c-.552 1.87-.936 3.36-1.512 5.23h-.096c-.576-1.87-.96-3.36-1.512-5.23l-2.544-8.57h-2.112zm12.303 0h9.96v-1.7h-7.944v-5.76h6.504v-1.71h-6.504v-4.99h7.704v-1.68h-9.72zm15.231 0h1.992v-6.69h2.808l3.792 6.69h2.28l-4.008-6.91c2.136-.55 3.528-2.02 3.528-4.49 0-3.29-2.304-4.44-5.496-4.44h-4.896zm1.992-8.33v-5.9h2.616c2.448 0 3.792.74 3.792 2.83 0 2.07-1.344 3.07-3.792 3.07zm13.478 8.33h9.84v-1.7h-3.912v-12.46h3.912v-1.68h-9.84v1.68h3.912v12.46h-3.912zm16.551 0h1.992v-7.1h6.456v-1.68h-6.456v-5.38h7.632v-1.68h-9.624zm14.63 0h9.84v-1.7h-3.912v-12.46h3.912v-1.68h-9.84v1.68h3.912v12.46h-3.912zm16.071 0h9.96v-1.7h-7.944v-5.76h6.504v-1.71h-6.504v-4.99h7.704v-1.68h-9.72zm15.231 0h1.992v-6.69h2.808l3.792 6.69h2.28l-4.008-6.91c2.136-.55 3.528-2.02 3.528-4.49 0-3.29-2.304-4.44-5.496-4.44h-4.896zm1.992-8.33v-5.9h2.616c2.448 0 3.792.74 3.792 2.83 0 2.07-1.344 3.07-3.792 3.07zm28.613 8.33h1.8v-8.95c0-1.3-.168-3.58-.264-4.85h.072l1.152 3.39 2.544 6.12h1.104l2.52-6.12 1.104-3.39h.096c-.096 1.27-.24 3.55-.24 4.85v8.95h1.824v-15.84h-2.352l-2.568 6.75-.864 2.56h-.096l-.912-2.56-2.568-6.75h-2.352zm15.495 0h2.04l1.512-4.85h5.712l1.488 4.85h2.112l-5.304-15.84h-2.256zm4.056-6.45.744-2.43c.552-1.77 1.056-3.48 1.56-5.33h.096c.504 1.85 1.008 3.56 1.56 5.33l.744 2.43zm16.959 6.45h2.016v-14.16h5.184v-1.68h-12.384v1.68h5.184zm17.895.29c2.016 0 3.552-.84 4.8-2.28l-1.152-1.22c-1.008 1.12-2.088 1.75-3.528 1.75-3.024 0-4.968-2.52-4.968-6.51 0-3.93 1.944-6.4 4.968-6.4 1.32 0 2.352.57 3.168 1.44l1.128-1.28c-.912-1-2.4-1.92-4.296-1.92-4.104 0-7.032 3.12-7.032 8.21 0 5.16 2.952 8.21 6.912 8.21m8.99-.29h2.016v-7.46h6.576v7.46h2.016v-15.84h-2.016v6.65h-6.576v-6.65h-2.016zm16.455 0h9.96v-1.7h-7.944v-5.76h6.504v-1.71h-6.504v-4.99h7.704v-1.68h-9.72zm20.151.29c3.456 0 5.568-1.99 5.568-4.51 0-2.35-1.56-3.39-3.48-4.23l-2.208-.96c-1.344-.57-2.808-1.12-2.808-2.64 0-1.44 1.224-2.32 3.12-2.32 1.56 0 2.76.57 3.792 1.48l1.056-1.29c-1.152-1.15-2.88-1.95-4.848-1.95-3 0-5.16 1.78-5.16 4.2 0 2.31 1.824 3.46 3.408 4.08l2.256.99c1.608.69 2.832 1.17 2.832 2.81 0 1.56-1.272 2.59-3.504 2.59-1.728 0-3.36-.79-4.536-1.99l-1.2 1.39c1.416 1.44 3.408 2.35 5.712 2.35m32.354 0c2.02 0 3.55-.84 4.8-2.28l-1.15-1.22c-1.01 1.12-2.09 1.75-3.53 1.75-3.02 0-4.97-2.52-4.97-6.51 0-3.93 1.95-6.4 4.97-6.4 1.32 0 2.35.57 3.17 1.44l1.13-1.28c-.91-1-2.4-1.92-4.3-1.92-4.1 0-7.03 3.12-7.03 8.21 0 5.16 2.95 8.21 6.91 8.21m14.3 0c3.55 0 6.05-3.19 6.05-8.28 0-5.04-2.5-8.14-6.05-8.14s-6.05 3.08-6.05 8.14c0 5.09 2.5 8.28 6.05 8.28m0-1.75c-2.4 0-3.99-2.57-3.99-6.53 0-3.94 1.59-6.38 3.99-6.38s3.98 2.44 3.98 6.38c0 3.96-1.58 6.53-3.98 6.53m10.43 1.46h3.93c4.66 0 7.2-2.95 7.2-7.99 0-5.02-2.54-7.85-7.29-7.85h-3.84zm1.99-1.63v-12.58h1.73c3.57 0 5.35 2.24 5.35 6.22 0 4.01-1.78 6.36-5.35 6.36zm14.32 1.63h9.96v-1.7h-7.95v-5.76h6.51v-1.71h-6.51v-4.99h7.71v-1.68h-9.72zm36.92.29c2.01 0 3.55-.84 4.8-2.28l-1.16-1.22c-1 1.12-2.08 1.75-3.52 1.75-3.03 0-4.97-2.52-4.97-6.51 0-3.93 1.94-6.4 4.97-6.4 1.32 0 2.35.57 3.16 1.44l1.13-1.28c-.91-1-2.4-1.92-4.29-1.92-4.11 0-7.04 3.12-7.04 8.21 0 5.16 2.96 8.21 6.92 8.21m8.99-.29h2.01v-7.46h6.58v7.46h2.01v-15.84h-2.01v6.65h-6.58v-6.65h-2.01zm14.46 0h2.04l1.51-4.85h5.71l1.49 4.85h2.11l-5.3-15.84h-2.26zm4.06-6.45.74-2.43c.55-1.77 1.06-3.48 1.56-5.33h.1c.5 1.85 1 3.56 1.56 5.33l.74 2.43zm13.98 6.45h9.77v-1.7h-7.8v-14.14h-1.97zm15.59 0h9.77v-1.7h-7.8v-14.14h-1.97zm15.13 0h9.96v-1.7h-7.94v-5.76h6.5v-1.71h-6.5v-4.99h7.7v-1.68h-9.72zm14.83 0h1.89v-8.3c0-1.63-.19-3.34-.26-4.95h.05l1.58 3.24 5.11 10.01h2.04v-15.84h-1.89v8.23c0 1.66.19 3.46.26 5.02h-.05l-1.58-3.24-5.11-10.01h-2.04zm16.35 0h9.96v-1.7h-7.94v-5.76h6.5v-1.71h-6.5v-4.99h7.7v-1.68h-9.72zm20.92.29c2.04 0 3.7-.82 4.71-1.82v-6.68h-5v1.66h3.15v4.15c-.6.58-1.63.94-2.74.94-3.09 0-4.85-2.52-4.85-6.51 0-3.93 1.95-6.4 4.9-6.4 1.51 0 2.45.62 3.22 1.44l1.12-1.28c-.88-.93-2.25-1.92-4.34-1.92-4.08 0-6.98 3.1-6.98 8.21 0 5.16 2.85 8.21 6.81 8.21m10.27-.29h9.96v-1.7h-7.95v-5.76h6.51v-1.71h-6.51v-4.99h7.71v-1.68h-9.72zm-564.22 48h2.04l1.512-4.85h5.712l1.488 4.85h2.112l-5.304-15.84h-2.256zm4.056-6.45.744-2.43c.552-1.77 1.056-3.48 1.56-5.33h.096c.504 1.85 1.008 3.56 1.56 5.33l.744 2.43zm17.991 6.74c3.072 0 5.28-1.73 5.28-6.26v-9.87h-1.944v9.89c0 3.31-1.44 4.49-3.336 4.49s-3.312-1.18-3.312-4.49v-9.89h-2.016v9.87c0 4.53 2.232 6.26 5.328 6.26m14.558-.29h2.016v-14.16h5.184v-1.68h-12.384v1.68h5.184zm11.295 0h2.016v-7.46h6.576v7.46h2.016v-15.84h-2.016v6.65h-6.576v-6.65h-2.016zm20.895.29c3.552 0 6.048-3.19 6.048-8.28 0-5.04-2.496-8.14-6.048-8.14s-6.048 3.08-6.048 8.14c0 5.09 2.496 8.28 6.048 8.28m0-1.75c-2.4 0-3.984-2.57-3.984-6.53 0-3.94 1.584-6.38 3.984-6.38s3.984 2.44 3.984 6.38c0 3.96-1.584 6.53-3.984 6.53m10.79 1.46h1.992v-6.69h2.808l3.792 6.69h2.28l-4.008-6.91c2.136-.55 3.528-2.02 3.528-4.49 0-3.29-2.304-4.44-5.496-4.44h-4.896zm1.992-8.33v-5.9h2.616c2.448 0 3.792.74 3.792 2.83 0 2.07-1.344 3.07-3.792 3.07zm13.479 8.33h9.84v-1.7h-3.912v-12.46h3.912v-1.68h-9.84v1.68h3.912v12.46h-3.912zm14.871 0h11.376v-1.7h-8.952l8.832-12.96v-1.2h-10.488v1.68h8.04l-8.808 12.98zm14.798 0h2.04l1.512-4.85h5.712l1.488 4.85h2.112l-5.304-15.84h-2.256zm4.056-6.45.744-2.43c.552-1.77 1.056-3.48 1.56-5.33h.096c.504 1.85 1.008 3.56 1.56 5.33l.744 2.43zm16.959 6.45h2.016v-14.16h5.184v-1.68h-12.384v1.68h5.184zm11.678 0h9.84v-1.7h-3.912v-12.46h3.912v-1.68h-9.84v1.68h3.912v12.46h-3.912zm20.511.29c3.552 0 6.048-3.19 6.048-8.28 0-5.04-2.496-8.14-6.048-8.14s-6.048 3.08-6.048 8.14c0 5.09 2.496 8.28 6.048 8.28m0-1.75c-2.4 0-3.984-2.57-3.984-6.53 0-3.94 1.584-6.38 3.984-6.38s3.984 2.44 3.984 6.38c0 3.96-1.584 6.53-3.984 6.53m10.383 1.46h1.896v-8.3c0-1.63-.192-3.34-.264-4.95h.048l1.584 3.24 5.112 10.01h2.04v-15.84h-1.896v8.23c0 1.66.192 3.46.264 5.02h-.048l-1.584-3.24-5.112-10.01h-2.04zm37.685.29c2.016 0 3.552-.84 4.8-2.28l-1.152-1.22c-1.008 1.12-2.088 1.75-3.528 1.75-3.024 0-4.968-2.52-4.968-6.51 0-3.93 1.944-6.4 4.968-6.4 1.32 0 2.352.57 3.168 1.44l1.128-1.28c-.912-1-2.4-1.92-4.296-1.92-4.104 0-7.032 3.12-7.032 8.21 0 5.16 2.952 8.21 6.912 8.21m14.295 0c3.552 0 6.048-3.19 6.048-8.28 0-5.04-2.496-8.14-6.048-8.14s-6.048 3.08-6.048 8.14c0 5.09 2.496 8.28 6.048 8.28m0-1.75c-2.4 0-3.984-2.57-3.984-6.53 0-3.94 1.584-6.38 3.984-6.38s3.984 2.44 3.984 6.38c0 3.96-1.584 6.53-3.984 6.53m10.43 1.46h3.936c4.656 0 7.2-2.95 7.2-7.99 0-5.02-2.544-7.85-7.296-7.85h-3.84zm1.992-1.63v-12.58h1.728c3.576 0 5.352 2.24 5.352 6.22 0 4.01-1.776 6.36-5.352 6.36zm14.319 1.63h9.96v-1.7h-7.944v-5.76h6.504v-1.71h-6.504v-4.99h7.704v-1.68h-9.72zm30.701 0h9.84v-1.7h-3.912v-12.46h3.912v-1.68h-9.84v1.68h3.912v12.46h-3.912zm20.631.29c3.456 0 5.568-1.99 5.568-4.51 0-2.35-1.56-3.39-3.48-4.23l-2.208-.96c-1.344-.57-2.808-1.12-2.808-2.64 0-1.44 1.224-2.32 3.12-2.32 1.56 0 2.76.57 3.792 1.48l1.056-1.29c-1.152-1.15-2.88-1.95-4.848-1.95-3 0-5.16 1.78-5.16 4.2 0 2.31 1.824 3.46 3.408 4.08l2.256.99c1.608.69 2.832 1.17 2.832 2.81 0 1.56-1.272 2.59-3.504 2.59-1.728 0-3.36-.79-4.536-1.99l-1.2 1.39c1.416 1.44 3.408 2.35 5.712 2.35m29.905-.29h2.33l4.99-15.84h-2.04l-2.52 8.57c-.55 1.87-.93 3.36-1.51 5.23h-.09c-.58-1.87-.96-3.36-1.52-5.23l-2.54-8.57h-2.11zm10.31 0h2.04l1.52-4.85h5.71l1.49 4.85h2.11l-5.31-15.84h-2.25zm4.06-6.45.74-2.43c.56-1.77 1.06-3.48 1.56-5.33h.1c.5 1.85 1.01 3.56 1.56 5.33l.74 2.43zm13.98 6.45h9.77v-1.7h-7.8v-14.14h-1.97zm14.66 0h9.84v-1.7h-3.91v-12.46h3.91v-1.68h-9.84v1.68h3.91v12.46h-3.91zm15.35 0h3.93c4.66 0 7.2-2.95 7.2-7.99 0-5.02-2.54-7.85-7.29-7.85h-3.84zm1.99-1.63v-12.58h1.73c3.57 0 5.35 2.24 5.35 6.22 0 4.01-1.78 6.36-5.35 6.36z"/><rect width="254" height="24" x="1284.47" y="1625.75" fill="#204532" rx="12" transform="rotate(-90 1284.47 1625.75)"/><rect width="254" height="24" x="1284.47" y="1625.75" stroke="#3ecf8e" stroke-linecap="round" stroke-width="2" rx="12" transform="rotate(-90 1284.47 1625.75)"/><path fill="#ededed" d="M164.102 1818.29c3.072 0 5.28-1.73 5.28-6.27v-9.86h-1.944v9.89c0 3.31-1.44 4.49-3.336 4.49s-3.312-1.18-3.312-4.49v-9.89h-2.016v9.86c0 4.54 2.232 6.27 5.328 6.27m15.687 0c3.456 0 5.568-1.99 5.568-4.51 0-2.36-1.56-3.39-3.48-4.23l-2.208-.96c-1.344-.57-2.808-1.13-2.808-2.64 0-1.44 1.224-2.33 3.12-2.33 1.56 0 2.76.58 3.792 1.49l1.056-1.29c-1.152-1.16-2.88-1.95-4.848-1.95-3 0-5.16 1.78-5.16 4.2 0 2.31 1.824 3.46 3.408 4.08l2.256.99c1.608.69 2.832 1.17 2.832 2.8 0 1.56-1.272 2.6-3.504 2.6-1.728 0-3.36-.8-4.536-2l-1.2 1.4c1.416 1.44 3.408 2.35 5.712 2.35m11.03-.29h9.96v-1.7h-7.944v-5.76h6.504v-1.71h-6.504v-4.99h7.704v-1.68h-9.72zm15.231 0h1.992v-6.7h2.808l3.792 6.7h2.28l-4.008-6.91c2.136-.55 3.528-2.02 3.528-4.49 0-3.29-2.304-4.44-5.496-4.44h-4.896zm1.992-8.33v-5.9h2.616c2.448 0 3.792.74 3.792 2.83 0 2.06-1.344 3.07-3.792 3.07zm35.285 8.62c2.016 0 3.552-.84 4.8-2.28l-1.152-1.23c-1.008 1.13-2.088 1.76-3.528 1.76-3.024 0-4.968-2.52-4.968-6.51 0-3.93 1.944-6.41 4.968-6.41 1.32 0 2.352.58 3.168 1.44l1.128-1.27c-.912-1.01-2.4-1.92-4.296-1.92-4.104 0-7.032 3.12-7.032 8.21 0 5.16 2.952 8.21 6.912 8.21m7.863-.29h2.04l1.512-4.85h5.712l1.488 4.85h2.112l-5.304-15.84h-2.256zm4.056-6.46.744-2.42c.552-1.78 1.056-3.48 1.56-5.33h.096c.504 1.85 1.008 3.55 1.56 5.33l.744 2.42zm12.758 6.46h1.896v-8.3c0-1.64-.192-3.34-.264-4.95h.048l1.584 3.24 5.112 10.01h2.04v-15.84h-1.896v8.23c0 1.66.192 3.46.264 5.02h-.048l-1.584-3.24-5.112-10.01h-2.04zm31.182 0h1.896v-8.3c0-1.64-.192-3.34-.264-4.95h.048l1.584 3.24 5.112 10.01h2.04v-15.84h-1.896v8.23c0 1.66.192 3.46.264 5.02h-.048l-1.584-3.24-5.112-10.01h-2.04zm20.798.29c3.552 0 6.048-3.19 6.048-8.28 0-5.04-2.496-8.14-6.048-8.14s-6.048 3.07-6.048 8.14c0 5.09 2.496 8.28 6.048 8.28m0-1.75c-2.4 0-3.984-2.57-3.984-6.53 0-3.94 1.584-6.39 3.984-6.39s3.984 2.45 3.984 6.39c0 3.96-1.584 6.53-3.984 6.53m11.055 1.46h2.16l1.728-6.65c.24-.93.432-1.92.624-2.85h.072c.168.93.36 1.92.576 2.85l1.8 6.65h2.208l2.328-15.86h-1.896l-1.2 9.96c-.096 1.29-.24 2.61-.336 3.91h-.096c-.336-1.3-.696-2.64-.984-3.91l-1.656-5.86h-1.416l-1.656 5.86c-.312 1.29-.672 2.61-1.008 3.91h-.072c-.096-1.3-.264-2.59-.336-3.91l-1.272-9.96h-1.992zm30.341 0h1.8v-8.95c0-1.3-.168-3.58-.264-4.85h.072l1.152 3.38 2.544 6.12h1.104l2.52-6.12 1.104-3.38h.096c-.096 1.27-.24 3.55-.24 4.85v8.95h1.824v-15.84h-2.352l-2.568 6.74-.864 2.57h-.096l-.912-2.57-2.568-6.74h-2.352zm15.496 0h2.04l1.512-4.85h5.712l1.488 4.85h2.112l-5.304-15.84h-2.256zm4.056-6.46.744-2.42c.552-1.78 1.056-3.48 1.56-5.33h.096c.504 1.85 1.008 3.55 1.56 5.33l.744 2.42zm13.118 6.46h2.016v-5.04l2.736-3.22 4.56 8.26h2.232l-5.544-9.82 4.968-6.02h-2.256l-6.624 7.94h-.072v-7.94h-2.016zm15.999 0h9.96v-1.7h-7.944v-5.76h6.504v-1.71h-6.504v-4.99h7.704v-1.68h-9.72zm-252.403 36h2.04l1.512-4.85h5.712l1.488 4.85h2.112l-5.304-15.84h-2.256zm4.056-6.46.744-2.42c.552-1.78 1.056-3.48 1.56-5.33h.096c.504 1.85 1.008 3.55 1.56 5.33l.744 2.42zm17.991 6.75c3.072 0 5.28-1.73 5.28-6.27v-9.86h-1.944v9.89c0 3.31-1.44 4.49-3.336 4.49s-3.312-1.18-3.312-4.49v-9.89h-2.016v9.86c0 4.54 2.232 6.27 5.328 6.27m14.558-.29h2.016v-14.16h5.184v-1.68h-12.384v1.68h5.184zm11.295 0h2.016v-7.46h6.576v7.46h2.016v-15.84h-2.016v6.65h-6.576v-6.65h-2.016zm16.454 0h9.96v-1.7h-7.944v-5.76h6.504v-1.71h-6.504v-4.99h7.704v-1.68H222zm14.823 0h1.896v-8.3c0-1.64-.192-3.34-.264-4.95h.048l1.584 3.24 5.112 10.01h2.04v-15.84h-1.896v8.23c0 1.66.192 3.46.264 5.02h-.048l-1.584-3.24-5.112-10.01h-2.04zm19.791 0h2.016v-14.16h5.184v-1.68H251.43v1.68h5.184zm11.678 0h9.84v-1.7h-3.912v-12.46h3.912v-1.68h-9.84v1.68h3.912v12.46h-3.912zm21.807.29c2.016 0 3.552-.84 4.8-2.28l-1.152-1.23c-1.008 1.13-2.088 1.76-3.528 1.76-3.024 0-4.968-2.52-4.968-6.51 0-3.93 1.944-6.41 4.968-6.41 1.32 0 2.352.58 3.168 1.44l1.128-1.27c-.912-1.01-2.4-1.92-4.296-1.92-4.104 0-7.032 3.12-7.032 8.21 0 5.16 2.952 8.21 6.912 8.21m7.863-.29h2.04l1.512-4.85h5.712l1.488 4.85h2.112l-5.304-15.84h-2.256zm4.056-6.46.744-2.42c.552-1.78 1.056-3.48 1.56-5.33h.096c.504 1.85 1.008 3.55 1.56 5.33l.744 2.42zm16.958 6.46h2.016v-14.16h5.184v-1.68h-12.384v1.68h5.184zm12.159 0h9.96v-1.7h-7.944v-5.76h6.504v-1.71h-6.504v-4.99h7.704v-1.68h-9.72zm14.87 0h3.936c4.656 0 7.2-2.95 7.2-7.99 0-5.02-2.544-7.85-7.296-7.85h-3.84zm1.992-1.63v-12.58h1.728c3.576 0 5.352 2.23 5.352 6.22 0 4.01-1.776 6.36-5.352 6.36zm29.55 1.63h1.992v-6.7h2.808l3.792 6.7h2.28l-4.008-6.91c2.136-.55 3.528-2.02 3.528-4.49 0-3.29-2.304-4.44-5.496-4.44h-4.896zm1.992-8.33v-5.9h2.616c2.448 0 3.792.74 3.792 2.83 0 2.06-1.344 3.07-3.792 3.07zm13.958 8.33h9.96v-1.7h-7.944v-5.76h6.504v-1.71h-6.504v-4.99h7.704v-1.68h-9.72zm24.327 3.94c.696 0 1.272-.15 1.776-.34l-.36-1.61c-.288.12-.696.24-1.176.24-1.632 0-2.88-.69-3.408-2.06 2.904-.6 4.824-3.65 4.824-8.16 0-5.04-2.424-8.16-5.976-8.16-3.576 0-6 3.09-6 8.16 0 4.58 1.992 7.65 5.016 8.18.792 2.16 2.52 3.75 5.304 3.75m-4.32-5.38c-2.424 0-3.96-2.62-3.96-6.55 0-3.94 1.536-6.43 3.96-6.43 2.4 0 3.936 2.49 3.936 6.43 0 3.93-1.536 6.55-3.936 6.55m15.639 1.73c3.072 0 5.28-1.73 5.28-6.27v-9.86h-1.944v9.89c0 3.31-1.44 4.49-3.336 4.49s-3.312-1.18-3.312-4.49v-9.89h-2.016v9.86c0 4.54 2.232 6.27 5.328 6.27m11.126-.29h9.96v-1.7h-7.944v-5.76h6.504v-1.71h-6.504v-4.99h7.704v-1.68h-9.72zm20.151.29c3.456 0 5.568-1.99 5.568-4.51 0-2.36-1.56-3.39-3.48-4.23l-2.208-.96c-1.344-.57-2.808-1.13-2.808-2.64 0-1.44 1.224-2.33 3.12-2.33 1.56 0 2.76.58 3.792 1.49l1.056-1.29c-1.152-1.16-2.88-1.95-4.848-1.95-3 0-5.16 1.78-5.16 4.2 0 2.31 1.824 3.46 3.408 4.08l2.256.99c1.608.69 2.832 1.17 2.832 2.8 0 1.56-1.272 2.6-3.504 2.6-1.728 0-3.36-.8-4.536-2l-1.2 1.4c1.416 1.44 3.408 2.35 5.712 2.35m14.462-.29h2.016v-14.16h5.184v-1.68h-12.384v1.68h5.184zm16.719.29c3.456 0 5.568-1.99 5.568-4.51 0-2.36-1.56-3.39-3.48-4.23l-2.208-.96c-1.344-.57-2.808-1.13-2.808-2.64 0-1.44 1.224-2.33 3.12-2.33 1.56 0 2.76.58 3.792 1.49l1.056-1.29c-1.152-1.16-2.88-1.95-4.848-1.95-3 0-5.16 1.78-5.16 4.2 0 2.31 1.824 3.46 3.408 4.08l2.256.99c1.608.69 2.832 1.17 2.832 2.8 0 1.56-1.272 2.6-3.504 2.6-1.728 0-3.36-.8-4.536-2l-1.2 1.4c1.416 1.44 3.408 2.35 5.712 2.35"/><circle cx="103.588" cy="1822.5" r="36" fill="url(#a)"/><circle cx="103.588" cy="1822.5" r="20.5" fill="#3ecf8e"/><defs><radialGradient id="a" cx="0" cy="0" r="1" gradientTransform="matrix(0 36 -36 0 103.588 1822.5)" gradientUnits="userSpaceOnUse"><stop stop-color="#ededed" stop-opacity=".5"/><stop offset="1" stop-color="#d9d9d9" stop-opacity="0"/></radialGradient></defs></svg>