<svg width="61" height="61" viewBox="0 0 61 61" fill="none" xmlns="http://www.w3.org/2000/svg">
<path fill-rule="evenodd" clip-rule="evenodd" d="M25.6107 11.3798C26.9471 11.1434 28.466 11.0077 30.0565 11.0003C31.647 10.9929 33.3053 11.1138 34.9036 11.3798C37.4284 11.8007 39.5555 13.6947 39.5555 16.2161V25.0753C39.5555 27.6732 37.4904 29.8031 34.9036 29.8031H25.6107C22.4555 29.8031 19.7985 32.5118 19.7985 35.5827V39.8334H16.5996C13.8957 39.8334 12.3163 37.8708 11.655 35.1164C10.7628 31.4161 10.8007 29.2047 11.655 25.6608C12.3955 22.5691 14.7632 20.9439 17.4671 20.9439H20.9588H30.2625V19.7619H20.9588V16.2161C20.9588 13.5312 21.6736 12.0754 25.6107 11.3798ZM26.7709 15.6305C26.7709 14.6498 25.9861 13.8522 25.0251 13.8522C24.0606 13.8522 23.2793 14.6498 23.2793 15.6305C23.2793 16.6078 24.0606 17.398 25.0251 17.398C25.9861 17.398 26.7709 16.6078 26.7709 15.6305ZM40.7158 25.0788V20.9474H44.2074C46.9148 20.9474 48.1911 22.9725 48.8593 25.6643C49.7893 29.4029 49.8307 32.2055 48.8593 35.1199C47.919 37.9508 46.9114 39.8369 44.2074 39.8369H39.5555H30.2626V41.0188H39.5555V44.5647C39.5555 47.2495 37.2459 48.6143 34.9036 49.2925C31.3799 50.3149 28.5557 50.1584 25.6107 49.2925C23.1513 48.5691 20.9588 47.086 20.9588 44.5647V35.7055C20.9588 33.1563 23.0652 30.9777 25.6107 30.9777H34.9036C38.0002 30.9777 40.7158 28.2818 40.7158 25.0788ZM37.235 45.1502C37.235 44.173 36.4536 43.3827 35.4892 43.3827C34.5282 43.3827 33.7434 44.173 33.7434 45.1502C33.7434 46.131 34.5282 46.9286 35.4892 46.9286C36.4536 46.9286 37.235 46.131 37.235 45.1502Z" fill="#7E7E7E"/>
</svg>
