<svg width="49" height="49" viewBox="0 0 49 49" fill="none" xmlns="http://www.w3.org/2000/svg">
<ellipse cx="24.0002" cy="24" rx="10.4446" ry="10.4446" fill="#133929"/>
<path d="M37.9174 13.2275C43.8317 21.0474 42.2868 32.1812 34.4668 38.0955C26.6469 44.0097 15.5131 42.4649 9.59884 34.6449C3.68458 26.8249 5.22947 15.6911 13.0494 9.77689C16.8669 6.88971 21.4742 5.78014 25.8784 6.31043" stroke="#133929" stroke-width="2" stroke-miterlimit="10" stroke-linejoin="bevel"/>
<path d="M23.7582 41.689C13.9536 41.689 6.00537 33.7408 6.00537 23.9362C6.00537 19.1498 7.89953 14.8059 10.9791 11.613" stroke="#4CC38A" stroke-width="2" stroke-miterlimit="10" stroke-linejoin="bevel"/>
<path d="M11.5098 16.6621L11.5098 11.3923L6.23999 11.3923" stroke="#4CC38A" stroke-width="2" stroke-miterlimit="10" stroke-linejoin="bevel"/>
<path d="M23.7579 6.18335C33.5625 6.18335 41.5107 14.1315 41.5107 23.9362C41.5107 28.7225 39.6166 33.0664 36.537 36.2593" stroke="#4CC38A" stroke-width="2" stroke-miterlimit="10" stroke-linejoin="bevel"/>
<path d="M36.0063 31.2102L36.0063 36.48L41.2761 36.48" stroke="#4CC38A" stroke-width="2" stroke-miterlimit="10" stroke-linejoin="bevel"/>
<path d="M18.436 24.1489L22.0461 27.759L29.5639 20.2412" stroke="#4CC38A" stroke-width="2" stroke-miterlimit="10" stroke-linejoin="bevel"/>
</svg>
