<svg width="49" height="49" viewBox="0 0 49 49" fill="none" xmlns="http://www.w3.org/2000/svg">
<path d="M15.4705 9.25391L17.7683 13.2338" stroke="#133929" stroke-width="2" stroke-miterlimit="10" stroke-linejoin="bevel"/>
<path d="M30.5505 35.3732L32.8483 39.3531" stroke="#133929" stroke-width="2" stroke-miterlimit="10" stroke-linejoin="bevel"/>
<path d="M39.2363 15.6189L35.2564 17.9167" stroke="#133929" stroke-width="2" stroke-miterlimit="10" stroke-linejoin="bevel"/>
<path d="M13.0894 30.6951L9.10945 32.9929" stroke="#133929" stroke-width="2" stroke-miterlimit="10" stroke-linejoin="bevel"/>
<path d="M8.91431 15.5845L12.8942 17.8823" stroke="#133929" stroke-width="2.01025" stroke-miterlimit="10" stroke-linejoin="bevel"/>
<path d="M35.0334 30.6644L39.0134 32.9622" stroke="#133929" stroke-width="2.01025" stroke-miterlimit="10" stroke-linejoin="bevel"/>
<path d="M32.6528 9.22363L30.355 13.2035" stroke="#133929" stroke-width="2.01025" stroke-miterlimit="10" stroke-linejoin="bevel"/>
<path d="M17.5725 35.3436L15.2747 39.3235" stroke="#133929" stroke-width="2.01025" stroke-miterlimit="10" stroke-linejoin="bevel"/>
<ellipse cx="24.1533" cy="24.1062" rx="17.5771" ry="17.5772" stroke="#4CC38A" stroke-width="2" stroke-miterlimit="10" stroke-linejoin="bevel"/>
<path d="M24.1562 6.92773V11.5233" stroke="#4CC38A" stroke-width="2" stroke-miterlimit="10" stroke-linejoin="bevel"/>
<path d="M24.1562 37.0876V41.6832" stroke="#4CC38A" stroke-width="2" stroke-miterlimit="10" stroke-linejoin="bevel"/>
<path d="M41.5342 24.3057L36.9386 24.3057" stroke="#4CC38A" stroke-width="2" stroke-miterlimit="10" stroke-linejoin="bevel"/>
<path d="M11.3735 24.3057L6.77793 24.3057" stroke="#4CC38A" stroke-width="2" stroke-miterlimit="10" stroke-linejoin="bevel"/>
<path d="M24.0952 15.6189V21.8999M33.4602 33.6418L25.5842 25.7657" stroke="#4CC38A" stroke-width="2" stroke-miterlimit="10" stroke-linejoin="bevel"/>
<ellipse rx="2.3226" ry="2.3226" transform="matrix(-1 0 0 1 24.1535 24.1063)" fill="#133929" stroke="#4CC38A" stroke-width="2" stroke-miterlimit="10" stroke-linejoin="bevel"/>
</svg>
