<svg width="49" height="49" viewBox="0 0 49 49" fill="none" xmlns="http://www.w3.org/2000/svg">
<path d="M10.1997 21.3035L23.9016 16.9058H24.4387L38.1406 21.3035C38.535 18.9355 37.5817 13.7935 30.6128 12.1697L36.871 7.94088C34.362 6.19322 28.3629 4.11868 24.4387 9.80182H23.9016C19.9775 4.11868 13.9783 6.19322 11.4693 7.94088L17.7275 12.1697C10.7587 13.7935 9.80531 18.9355 10.1997 21.3035Z" fill="#133929" stroke="#4CC38A" stroke-width="2" stroke-miterlimit="10" stroke-linejoin="bevel"/>
<path d="M20.3716 33.5872L22.0548 18.7943C22.1741 17.7461 23.061 16.9543 24.116 16.9543V16.9543C25.1449 16.9543 26.0183 17.7085 26.1683 18.7265L28.3201 33.332" stroke="#4CC38A" stroke-width="2" stroke-miterlimit="10" stroke-linejoin="bevel"/>
<path d="M41.7319 41.1219C37.425 36.2779 31.146 33.2263 24.1543 33.2263C17.1626 33.2263 10.8836 36.2779 6.57666 41.1219H41.7319Z" fill="#1B543A" stroke="#4CC38A" stroke-width="2" stroke-miterlimit="10" stroke-linejoin="bevel"/>
</svg>
