<svg width="24" height="24" viewBox="0 0 24 24" fill="none" xmlns="http://www.w3.org/2000/svg">
<g clip-path="url(#clip0_1759_13919)">
<path d="M12.0003 9.68796H11.5003C11.5003 9.96411 11.7241 10.188 12.0003 10.188V9.68796ZM12.0003 3.8623H12.5003C12.5003 3.65653 12.3742 3.47177 12.1826 3.39674C11.991 3.3217 11.773 3.37171 11.6333 3.52275L12.0003 3.8623ZM4.0343 12.4727L3.66728 12.1331H3.66728L4.0343 12.4727ZM11.9998 14.1518H12.4998C12.4998 14.0191 12.4471 13.892 12.3533 13.7982C12.2596 13.7044 12.1324 13.6518 11.9998 13.6518V14.1518ZM11.9998 19.9774H11.4998C11.4998 20.1832 11.6258 20.368 11.8174 20.443C12.009 20.518 12.2271 20.468 12.3668 20.317L11.9998 19.9774ZM19.9658 11.3671L20.3328 11.7066L19.9658 11.3671ZM19.2317 9.68797V10.188V9.68797ZM12.5003 9.68796V3.8623H11.5003V9.68796H12.5003ZM11.6333 3.52275L3.66728 12.1331L4.40131 12.8122L12.3673 4.20186L11.6333 3.52275ZM3.66728 12.1331C2.7787 13.0935 3.4599 14.6518 4.76834 14.6518V13.6518C4.33219 13.6518 4.10513 13.1324 4.40131 12.8122L3.66728 12.1331ZM4.76834 14.6518H11.9998V13.6518H4.76834V14.6518ZM11.4998 14.1518L11.4998 19.9774H12.4998L12.4998 14.1518H11.4998ZM12.3668 20.317L20.3328 11.7066L19.5987 11.0275L11.6328 19.6379L12.3668 20.317ZM20.3328 11.7066C21.2214 10.7462 20.5402 9.18797 19.2317 9.18797V10.188C19.6679 10.188 19.8949 10.7074 19.5987 11.0275L20.3328 11.7066ZM19.2317 9.18797L12.0003 9.18796V10.188L19.2317 10.188V9.18797Z" fill="#4CC38A"/>
<path d="M12.8963 0.578735C13.8382 0.947605 14.4579 1.85584 14.4579 2.86738V6.95118L19.878 6.95118C20.4615 6.95118 20.9943 7.07727 21.4624 7.29779M10.1958 1.1982L3.01068 8.9645M1.41534 10.6889C-0.768672 13.0496 0.905609 16.8795 4.12162 16.8795H9.54172M9.54172 18.9214L9.54172 20.9633C9.54172 21.9748 10.1614 22.8831 11.1033 23.2519C12.0452 23.6208 13.1169 23.375 13.8038 22.6325L18.194 17.8871L19.4671 16.5111M20.7418 15.1333L22.5843 13.1418C23.917 11.7013 23.813 9.71363 22.7987 8.38301" stroke="#4CC38A" stroke-linecap="round" stroke-linejoin="round"/>
</g>
<defs>
<clipPath id="clip0_1759_13919">
<rect width="24" height="24" fill="white"/>
</clipPath>
</defs>
</svg>
