<svg xmlns="http://www.w3.org/2000/svg" width="617" height="429" fill="none" viewBox="0 0 617 429"><g clip-path="url(#a)"><g clip-path="url(#b)"><path fill="url(#c)" d="M315.962 404.4c-3.29 4.111-9.962 1.858-10.041-3.391l-1.159-76.773h52.033c9.425 0 14.682 10.799 8.821 18.122z"/><path fill="url(#d)" fill-opacity=".2" d="M315.962 404.4c-3.29 4.111-9.962 1.858-10.041-3.391l-1.159-76.773h52.033c9.425 0 14.682 10.799 8.821 18.122z"/><path fill="#3ecf8e" d="M294.809 280.864c3.29-4.111 9.962-1.858 10.041 3.391l.508 76.773h-51.382c-9.425 0-14.682-10.799-8.821-18.122z"/></g><path stroke="url(#e)" stroke-width="3" d="M452.875 355c0-81.186-65.814-147-147-147s-147 65.814-147 147"/><path stroke="url(#f)" stroke-width="3" d="M499.875 355c0-107.143-86.857-194-194-194s-194 86.857-194 194"/><path stroke="url(#g)" stroke-width="3" d="M547.875 355c0-133.653-108.347-242-242-242s-242 108.347-242 242"/><path stroke="url(#h)" stroke-width="3" d="M596.875 355c0-160.715-130.285-291-291-291s-291 130.285-291 291"/><path stroke="url(#i)" stroke-width="3" d="M660.625 355c0-196.061-158.939-355-355-355s-355 158.939-355 355"/></g><defs><linearGradient id="c" x1="304.762" x2="350.897" y1="341.258" y2="360.762" gradientUnits="userSpaceOnUse"><stop stop-color="#249361"/><stop offset="1" stop-color="#3ecf8e"/></linearGradient><linearGradient id="d" x1="284.259" x2="305.089" y1="313.408" y2="352.933" gradientUnits="userSpaceOnUse"><stop/><stop offset="1" stop-opacity="0"/></linearGradient><linearGradient id="f" x1="147.292" x2="494.625" y1="323" y2="339.667" gradientUnits="userSpaceOnUse"><stop stop-color="#f5f5f5"/><stop offset="0" stop-color="#fff"/><stop offset=".106" stop-color="#fff"/><stop offset=".418" stop-color="#eaeaea"/><stop offset=".692" stop-color="#f5f5f5"/><stop offset=".798" stop-color="#bababa"/><stop offset=".962" stop-color="#fafafa"/></linearGradient><linearGradient id="g" x1="491" x2="74" y1="209" y2="212" gradientUnits="userSpaceOnUse"><stop stop-color="#fff"/><stop offset=".144" stop-color="#dfdfdf"/><stop offset=".226" stop-color="#f5f5f5"/><stop offset=".303" stop-color="#c8c8c8"/><stop offset=".382" stop-color="#eaeaea"/><stop offset=".812" stop-color="#d7d7d7"/><stop offset=".813" stop-color="#bababa"/><stop offset=".865" stop-color="#fff"/></linearGradient><linearGradient id="h" x1="68" x2="589" y1="307" y2="332" gradientUnits="userSpaceOnUse"><stop stop-color="#f5f5f5"/><stop offset=".226" stop-color="#f5f5f5"/><stop offset=".264" stop-color="#bababa"/><stop offset=".303" stop-color="#eaeaea"/><stop offset=".596" stop-color="#f5f5f5"/><stop offset=".692" stop-color="#d2d2d2"/><stop offset=".798" stop-color="#bababa"/><stop offset=".841" stop-color="#fafafa"/></linearGradient><linearGradient id="i" x1="17" x2="603" y1="302" y2="312" gradientUnits="userSpaceOnUse"><stop stop-color="#f5f5f5"/><stop offset="0" stop-color="#f5f5f5"/><stop offset=".106" stop-color="#bababa"/><stop offset=".163" stop-color="#fff"/><stop offset=".418" stop-color="#eaeaea"/><stop offset=".692" stop-color="#f5f5f5"/><stop offset=".798" stop-color="#bababa"/><stop offset=".962" stop-color="#fafafa"/></linearGradient><clipPath id="a"><path fill="#fff" d="M.625 0h616v429h-616z"/></clipPath><clipPath id="b"><path fill="#fff" d="M242.66 278.5h125.425v129H242.66z"/></clipPath><radialGradient id="e" cx="0" cy="0" r="1" gradientTransform="rotate(253.803 273.593 37.5)scale(181.104 139.554)" gradientUnits="userSpaceOnUse"><stop stop-color="#bababa"/><stop offset=".144" stop-color="#dfdfdf"/><stop offset=".226" stop-color="#f5f5f5"/><stop offset=".264" stop-color="#bababa"/><stop offset=".317" stop-color="#eaeaea"/><stop offset=".538" stop-color="#bababa"/><stop offset=".814" stop-color="#fafafa"/></radialGradient></defs></svg>