<svg xmlns="http://www.w3.org/2000/svg" width="617" height="429" fill="none" viewBox="0 0 617 429"><g clip-path="url(#a)"><path fill="url(#b)" d="M304.85 284.255c-.079-5.249-6.751-7.502-10.041-3.391l-49.654 62.042c-5.861 7.323-.604 18.122 8.821 18.122h51.35l.603 39.981c.08 5.249 6.751 7.501 10.042 3.391l49.653-62.042c5.861-7.323.605-18.123-8.82-18.123h-51.689z"/><path stroke="url(#c)" stroke-width="3" d="M452.875 355c0-81.186-65.814-147-147-147s-147 65.814-147 147"/><path stroke="url(#d)" stroke-width="3" d="M499.875 355c0-107.143-86.857-194-194-194s-194 86.857-194 194" opacity=".8"/><path stroke="url(#e)" stroke-width="3" d="M547.875 355c0-133.653-108.347-242-242-242s-242 108.347-242 242" opacity=".7"/><path stroke="url(#f)" stroke-width="3" d="M596.875 355c0-160.715-130.285-291-291-291s-291 130.285-291 291" opacity=".3"/><path stroke="url(#g)" stroke-width="3" d="M660.625 355c0-196.061-158.939-355-355-355s-355 158.939-355 355" opacity=".3"/></g><defs><linearGradient id="b" x1="242.664" x2="371.613" y1="407.5" y2="282.124" gradientUnits="userSpaceOnUse"><stop stop-color="#ededed" stop-opacity=".5"/><stop offset="1" stop-color="#fff"/></linearGradient><linearGradient id="c" x1="195.449" x2="365.789" y1="208" y2="476.404" gradientUnits="userSpaceOnUse"><stop stop-color="#121212"/><stop offset=".144" stop-color="#343434"/><stop offset=".226" stop-color="#676767"/><stop offset=".264" stop-color="#bababa"/><stop offset=".317" stop-color="#2a2a2a"/><stop offset=".541" stop-color="#202020"/><stop offset=".814" stop-color="#121212"/></linearGradient><linearGradient id="d" x1="316.875" x2="-1.348" y1="210" y2="245.466" gradientUnits="userSpaceOnUse"><stop stop-color="#121212"/><stop offset=".144" stop-color="#343434"/><stop offset=".226" stop-color="#676767"/><stop offset=".264" stop-color="#bababa"/><stop offset=".317" stop-color="#2a2a2a"/><stop offset=".509" stop-color="#202020"/><stop offset=".688" stop-color="#121212"/></linearGradient><linearGradient id="e" x1="164.494" x2="183.915" y1="94.979" y2="460.545" gradientUnits="userSpaceOnUse"><stop stop-color="#121212"/><stop offset=".144" stop-color="#343434"/><stop offset=".226" stop-color="#676767"/><stop offset=".264" stop-color="#bababa"/><stop offset=".317" stop-color="#2a2a2a"/><stop offset=".537" stop-color="#121212"/><stop offset="1" stop-color="#121212"/></linearGradient><linearGradient id="f" x1="407.083" x2="236.842" y1="19.494" y2="319.83" gradientUnits="userSpaceOnUse"><stop stop-color="#121212"/><stop offset=".144" stop-color="#343434"/><stop offset=".226" stop-color="#676767"/><stop offset=".264" stop-color="#bababa"/><stop offset=".317" stop-color="#2a2a2a"/><stop offset=".574" stop-color="#202020"/><stop offset=".644" stop-color="#121212"/></linearGradient><linearGradient id="g" x1="558.5" x2="270.866" y1="80.5" y2="151.82" gradientUnits="userSpaceOnUse"><stop stop-color="#121212"/><stop offset=".144" stop-color="#343434"/><stop offset=".226" stop-color="#676767"/><stop offset=".264" stop-color="#bababa"/><stop offset=".317" stop-color="#2a2a2a"/><stop offset=".817" stop-color="#202020"/><stop offset="1" stop-color="#121212"/></linearGradient><clipPath id="a"><path fill="#fff" d="M.625 0h616v429h-616z"/></clipPath></defs></svg>