<svg viewBox="0 0 163 88" fill="none" xmlns="http://www.w3.org/2000/svg">
<g clip-path="url(#clip0_701_65549)">
<rect x="0.742188" width="161.5" height="88" rx="6" fill="#121212"/>
<mask id="path-3-inside-1_701_65549" fill="white">
<path d="M0.742188 6C0.742188 2.68629 3.42848 0 6.74219 0H13.7422V88H6.74219C3.42848 88 0.742188 85.3137 0.742188 82V6Z"/>
</mask>
<path d="M0.742188 6C0.742188 2.68629 3.42848 0 6.74219 0H13.7422V88H6.74219C3.42848 88 0.742188 85.3137 0.742188 82V6Z" fill="#121212"/>
<path d="M0.742188 0H13.7422H0.742188ZM13.7422 88H0.742188H13.7422ZM0.742188 88V0V88ZM14.7422 0V88H12.7422V0H14.7422Z" fill="#292929" mask="url(#path-3-inside-1_701_65549)"/>
<mask id="path-5-inside-2_701_65549" fill="white">
<path d="M156.242 -2.62268e-07C159.556 -1.17421e-07 162.242 2.68629 162.242 6L162.242 13L13.7422 13L13.7422 -6.49114e-06L156.242 -2.62268e-07Z"/>
</mask>
<path d="M156.242 -2.62268e-07C159.556 -1.17421e-07 162.242 2.68629 162.242 6L162.242 13L13.7422 13L13.7422 -6.49114e-06L156.242 -2.62268e-07Z" fill="#121212"/>
<path d="M162.242 0L162.242 13L162.242 0ZM13.7422 13L13.7422 -6.49114e-06L13.7422 13ZM13.7422 -6.49114e-06L162.242 0L13.7422 -6.49114e-06ZM162.242 14L13.7422 14L13.7422 12L162.242 12L162.242 14Z" fill="#292929" mask="url(#path-5-inside-2_701_65549)"/>
<rect x="44.7552" y="21.5" width="86.4738" height="23.5" rx="2.5" fill="#1F1F1F" stroke="#292929"/>
<rect x="44.7552" y="51.5" width="86.4738" height="23.5" rx="2.5" fill="#1F1F1F" stroke="#292929"/>
<rect x="52.9406" y="28" width="19.2318" height="1.5" rx="0.75" fill="#B4B4B4"/>
<rect x="52.9406" y="56.5" width="19.2318" height="1.5" rx="0.75" fill="#B4B4B4"/>
<rect x="78.3762" y="28" width="19.2318" height="1.5" rx="0.75" fill="#FAFAFA"/>
<rect x="78.3762" y="56.5" width="19.2318" height="1.5" rx="0.75" fill="#FAFAFA"/>
<rect x="78.3762" y="33.25" width="44.0471" height="1.5" rx="0.75" fill="#FAFAFA"/>
<rect x="78.3762" y="61.75" width="44.0471" height="1.5" rx="0.75" fill="#FAFAFA"/>
<rect x="18.4922" y="4.625" width="20.5" height="3.75" rx="1.875" fill="#3ECF8E"/>
<rect x="44.2552" y="4.625" width="20.5" height="3.75" rx="1.875" fill="#4D4D4D"/>
<rect x="69.5052" y="4.625" width="20.5" height="3.75" rx="1.875" fill="#4D4D4D"/>
<rect x="101.923" y="28" width="20.5" height="1.5" rx="0.75" fill="#DB8E00"/>
<rect x="5.36719" y="4.625" width="3.75" height="3.75" rx="1" fill="#4D4D4D"/>
<rect x="5.36719" y="13.375" width="3.75" height="3.75" rx="1" fill="#4D4D4D"/>
<rect x="5.36719" y="20.875" width="3.75" height="3.75" rx="1" fill="#4D4D4D"/>
<rect x="5.36719" y="28.375" width="3.75" height="3.75" rx="1" fill="#4D4D4D"/>
<rect x="5.36719" y="35.875" width="3.75" height="3.75" rx="1" fill="#4D4D4D"/>
<rect x="5.36719" y="78.875" width="3.75" height="3.75" rx="1" fill="#4D4D4D"/>
</g>
<rect x="1.24219" y="0.5" width="160.5" height="87" rx="5.5" stroke="#292929"/>
<defs>
<clipPath id="clip0_701_65549">
<rect x="0.742188" width="161.5" height="88" rx="6" fill="white"/>
</clipPath>
</defs>
</svg>
