<svg width="1600" height="767" viewBox="0 0 1600 767" fill="none" xmlns="http://www.w3.org/2000/svg">
<path d="M146.707 353.971C146.317 354.361 145.683 354.361 145.293 353.971L138.929 347.607C138.538 347.216 138.538 346.583 138.929 346.193C139.319 345.802 139.953 345.802 140.343 346.193L146 351.849L151.657 346.193C152.047 345.802 152.681 345.802 153.071 346.193C153.462 346.583 153.462 347.216 153.071 347.607L146.707 353.971ZM147 121L147 353.264L145 353.264L145 121L147 121Z" fill="#11181C"/>
<path d="M145.293 585.764C145.683 586.154 146.317 586.154 146.707 585.764L153.071 579.4C153.462 579.009 153.462 578.376 153.071 577.986C152.681 577.595 152.047 577.595 151.657 577.986L146 583.642L140.343 577.986C139.953 577.595 139.319 577.595 138.929 577.986C138.538 578.376 138.538 579.009 138.929 579.4L145.293 585.764ZM145 400L145 585.057L147 585.057L147 400L145 400Z" fill="#11181C"/>
<path d="M363.293 585.764C363.683 586.154 364.317 586.154 364.707 585.764L371.071 579.4C371.462 579.009 371.462 578.376 371.071 577.986C370.681 577.595 370.047 577.595 369.657 577.986L364 583.642L358.343 577.986C357.953 577.595 357.319 577.595 356.929 577.986C356.538 578.376 356.538 579.009 356.929 579.4L363.293 585.764ZM363 400L363 585.057L365 585.057L365 400L363 400Z" fill="#11181C"/>
<path d="M581.293 585.764C581.683 586.154 582.317 586.154 582.707 585.764L589.071 579.4C589.462 579.009 589.462 578.376 589.071 577.986C588.681 577.595 588.047 577.595 587.657 577.986L582 583.642L576.343 577.986C575.953 577.595 575.319 577.595 574.929 577.986C574.538 578.376 574.538 579.009 574.929 579.4L581.293 585.764ZM581 400L581 585.057L583 585.057L583 400L581 400Z" fill="#11181C"/>
<path d="M799.293 585.764C799.683 586.154 800.317 586.154 800.707 585.764L807.071 579.4C807.462 579.009 807.462 578.376 807.071 577.986C806.681 577.595 806.047 577.595 805.657 577.986L800 583.642L794.343 577.986C793.953 577.595 793.319 577.595 792.929 577.986C792.538 578.376 792.538 579.009 792.929 579.4L799.293 585.764ZM799 400L799 585.057L801 585.057L801 400L799 400Z" fill="#11181C"/>
<path d="M1017.29 585.764C1017.68 586.154 1018.32 586.154 1018.71 585.764L1025.07 579.4C1025.46 579.009 1025.46 578.376 1025.07 577.986C1024.68 577.595 1024.05 577.595 1023.66 577.986L1018 583.642L1012.34 577.986C1011.95 577.595 1011.32 577.595 1010.93 577.986C1010.54 578.376 1010.54 579.009 1010.93 579.4L1017.29 585.764ZM1017 400L1017 585.057L1019 585.057L1019 400L1017 400Z" fill="#11181C"/>
<path d="M1235.29 585.764C1235.68 586.154 1236.32 586.154 1236.71 585.764L1243.07 579.4C1243.46 579.009 1243.46 578.376 1243.07 577.986C1242.68 577.595 1242.05 577.595 1241.66 577.986L1236 583.642L1230.34 577.986C1229.95 577.595 1229.32 577.595 1228.93 577.986C1228.54 578.376 1228.54 579.009 1228.93 579.4L1235.29 585.764ZM1235 400L1235 585.057L1237 585.057L1237 400L1235 400Z" fill="#11181C"/>
<path d="M1453.29 585.764C1453.68 586.154 1454.32 586.154 1454.71 585.764L1461.07 579.4C1461.46 579.009 1461.46 578.376 1461.07 577.986C1460.68 577.595 1460.05 577.595 1459.66 577.986L1454 583.642L1448.34 577.986C1447.95 577.595 1447.32 577.595 1446.93 577.986C1446.54 578.376 1446.54 579.009 1446.93 579.4L1453.29 585.764ZM1453 400L1453 585.057L1455 585.057L1455 400L1453 400Z" fill="#11181C"/>
<path d="M364.707 353.971C364.317 354.361 363.683 354.361 363.293 353.971L356.929 347.607C356.538 347.216 356.538 346.583 356.929 346.193C357.319 345.802 357.953 345.802 358.343 346.193L364 351.849L369.657 346.193C370.047 345.802 370.681 345.802 371.071 346.193C371.462 346.583 371.462 347.216 371.071 347.607L364.707 353.971ZM365 121L365 353.264L363 353.264L363 121L365 121Z" fill="#11181C"/>
<path d="M582.707 353.971C582.317 354.361 581.683 354.361 581.293 353.971L574.929 347.607C574.538 347.216 574.538 346.583 574.929 346.193C575.319 345.802 575.953 345.802 576.343 346.193L582 351.849L587.657 346.193C588.047 345.802 588.681 345.802 589.071 346.193C589.462 346.583 589.462 347.216 589.071 347.607L582.707 353.971ZM583 121L583 353.264L581 353.264L581 121L583 121Z" fill="#11181C"/>
<path d="M800.707 353.971C800.317 354.361 799.683 354.361 799.293 353.971L792.929 347.607C792.538 347.216 792.538 346.583 792.929 346.193C793.319 345.802 793.953 345.802 794.343 346.193L800 351.849L805.657 346.193C806.047 345.802 806.681 345.802 807.071 346.193C807.462 346.583 807.462 347.216 807.071 347.607L800.707 353.971ZM801 121L801 353.264L799 353.264L799 121L801 121Z" fill="#11181C"/>
<path d="M1018.71 353.971C1018.32 354.361 1017.68 354.361 1017.29 353.971L1010.93 347.607C1010.54 347.216 1010.54 346.583 1010.93 346.193C1011.32 345.802 1011.95 345.802 1012.34 346.193L1018 351.849L1023.66 346.193C1024.05 345.802 1024.68 345.802 1025.07 346.193C1025.46 346.583 1025.46 347.216 1025.07 347.607L1018.71 353.971ZM1019 121L1019 353.264L1017 353.264L1017 121L1019 121Z" fill="#11181C"/>
<path d="M1236.71 353.971C1236.32 354.361 1235.68 354.361 1235.29 353.971L1228.93 347.607C1228.54 347.216 1228.54 346.583 1228.93 346.193C1229.32 345.802 1229.95 345.802 1230.34 346.193L1236 351.849L1241.66 346.193C1242.05 345.802 1242.68 345.802 1243.07 346.193C1243.46 346.583 1243.46 347.216 1243.07 347.607L1236.71 353.971ZM1237 121L1237 353.264L1235 353.264L1235 121L1237 121Z" fill="#11181C"/>
<path d="M1454.71 353.971C1454.32 354.361 1453.68 354.361 1453.29 353.971L1446.93 347.607C1446.54 347.216 1446.54 346.583 1446.93 346.193C1447.32 345.802 1447.95 345.802 1448.34 346.193L1454 351.849L1459.66 346.193C1460.05 345.802 1460.68 345.802 1461.07 346.193C1461.46 346.583 1461.46 347.216 1461.07 347.607L1454.71 353.971ZM1455 121L1455 353.264L1453 353.264L1453 121L1455 121Z" fill="#11181C"/>
<rect x="91.4999" y="240.978" width="109" height="40" rx="16" fill="#232323"/>
<rect x="92.7499" y="242.228" width="106.5" height="37.5" rx="14.75" stroke="#7E868C" stroke-opacity="0.1" stroke-width="2.5"/>
<path d="M108.511 270.866L118.783 252.938H121.159L110.863 270.866H108.511ZM128.854 270.29C126.574 270.29 124.918 268.826 124.918 266.714C124.918 263.954 127.246 262.61 133.078 262.154C132.982 260.738 132.19 259.658 130.246 259.658C128.926 259.658 127.726 260.282 126.886 260.978L125.878 259.154C126.91 258.266 128.734 257.426 130.774 257.426C134.038 257.426 135.814 259.322 135.814 262.682V269.978H133.582L133.366 268.442H133.27C132.022 269.426 130.462 270.29 128.854 270.29ZM129.694 268.106C130.87 268.106 131.998 267.53 133.078 266.57V263.882C128.83 264.194 127.582 265.13 127.582 266.498C127.582 267.626 128.518 268.106 129.694 268.106ZM144.445 270.29C141.685 270.29 140.485 268.49 140.485 265.322V257.738H143.245V264.962C143.245 266.978 143.821 267.914 145.453 267.914C146.557 267.914 147.373 267.386 148.429 266.018V257.738H151.165V269.978H148.933L148.717 268.01H148.621C147.493 269.354 146.197 270.29 144.445 270.29ZM163.779 270.29C160.179 270.29 158.955 268.178 158.955 265.082V259.922H155.811V257.738H159.075V254.138L161.715 252.818V257.738H167.091V259.922H161.715V265.082C161.715 267.122 162.435 268.082 164.427 268.082C165.435 268.082 166.275 267.866 167.019 267.578L167.547 269.57C166.491 269.93 165.171 270.29 163.779 270.29ZM171.978 269.978V252.578H174.714V256.922L174.57 259.586C175.674 258.41 176.994 257.426 178.794 257.426C181.506 257.426 182.754 259.226 182.754 262.394V269.978H179.994V262.754C179.994 260.738 179.394 259.778 177.786 259.778C176.61 259.778 175.818 260.402 174.714 261.602V269.978H171.978Z" fill="white"/>
<rect x="309.5" y="240.978" width="109" height="40" rx="16" fill="#232323"/>
<rect x="310.75" y="242.228" width="106.5" height="37.5" rx="14.75" stroke="#7E868C" stroke-opacity="0.1" stroke-width="2.5"/>
<path d="M326.511 270.866L336.783 252.938H339.159L328.863 270.866H326.511ZM344.358 269.978V257.738H346.614L346.854 260.546H346.926C348.126 258.554 349.902 257.426 351.942 257.426C352.902 257.426 353.526 257.594 354.246 257.93L353.646 260.258C352.878 259.994 352.422 259.874 351.51 259.874C349.902 259.874 348.318 260.762 347.118 263.138V269.978H344.358ZM364.725 270.29C361.149 270.29 358.293 267.89 358.293 263.858C358.293 259.874 361.269 257.426 364.365 257.426C367.869 257.426 369.813 259.85 369.813 263.234C369.813 263.762 369.741 264.29 369.693 264.602H361.125C361.293 266.858 362.949 268.13 365.085 268.13C366.309 268.13 367.341 267.77 368.397 267.122L369.333 268.85C368.085 269.666 366.453 270.29 364.725 270.29ZM361.101 262.706H367.293C367.293 260.738 366.285 259.562 364.413 259.562C362.829 259.562 361.413 260.666 361.101 262.706ZM379.667 270.29C377.459 270.29 375.371 269.402 373.907 268.37L375.179 266.618C376.499 267.578 377.915 268.178 379.739 268.178C381.587 268.178 382.451 267.554 382.451 266.666C382.451 265.802 381.347 265.226 378.947 264.578C376.715 263.978 374.603 262.898 374.603 261.074C374.603 258.962 376.499 257.426 379.811 257.426C381.731 257.426 383.507 258.218 384.707 259.034L383.435 260.738C382.379 260.018 381.179 259.514 379.835 259.514C378.011 259.514 377.363 260.114 377.363 260.93C377.363 261.818 378.779 262.322 380.675 262.826C383.411 263.57 385.187 264.506 385.187 266.498C385.187 268.586 383.243 270.29 379.667 270.29ZM397.37 270.29C393.77 270.29 392.546 268.178 392.546 265.082V259.922H389.402V257.738H392.666V254.138L395.306 252.818V257.738H400.682V259.922H395.306V265.082C395.306 267.122 396.026 268.082 398.018 268.082C399.026 268.082 399.866 267.866 400.61 267.578L401.138 269.57C400.082 269.93 398.762 270.29 397.37 270.29Z" fill="white"/>
<rect x="496" y="240.978" width="172" height="40" rx="16" fill="#232323"/>
<rect x="497.25" y="242.228" width="169.5" height="37.5" rx="14.75" stroke="#7E868C" stroke-opacity="0.1" stroke-width="2.5"/>
<path d="M513.33 270.866L523.602 252.938H525.978L515.682 270.866H513.33ZM531.177 269.978V257.738H533.433L533.673 260.546H533.745C534.945 258.554 536.721 257.426 538.761 257.426C539.721 257.426 540.345 257.594 541.065 257.93L540.465 260.258C539.697 259.994 539.241 259.874 538.329 259.874C536.721 259.874 535.137 260.762 533.937 263.138V269.978H531.177ZM551.543 270.29C547.967 270.29 545.111 267.89 545.111 263.858C545.111 259.874 548.087 257.426 551.183 257.426C554.687 257.426 556.631 259.85 556.631 263.234C556.631 263.762 556.559 264.29 556.511 264.602H547.943C548.111 266.858 549.767 268.13 551.903 268.13C553.127 268.13 554.159 267.77 555.215 267.122L556.151 268.85C554.903 269.666 553.271 270.29 551.543 270.29ZM547.919 262.706H554.111C554.111 260.738 553.103 259.562 551.231 259.562C549.647 259.562 548.231 260.666 547.919 262.706ZM564.854 270.29C562.574 270.29 560.918 268.826 560.918 266.714C560.918 263.954 563.246 262.61 569.078 262.154C568.982 260.738 568.19 259.658 566.246 259.658C564.926 259.658 563.726 260.282 562.886 260.978L561.878 259.154C562.91 258.266 564.734 257.426 566.774 257.426C570.038 257.426 571.814 259.322 571.814 262.682V269.978H569.582L569.366 268.442H569.27C568.022 269.426 566.462 270.29 564.854 270.29ZM565.694 268.106C566.87 268.106 567.998 267.53 569.078 266.57V263.882C564.83 264.194 563.582 265.13 563.582 266.498C563.582 267.626 564.518 268.106 565.694 268.106ZM584.429 270.29C581.693 270.29 580.253 268.562 580.253 265.562V254.762H576.533V252.578H582.989V265.73C582.989 267.386 583.901 268.034 585.101 268.034C585.701 268.034 586.325 267.89 587.141 267.53L587.789 269.57C586.637 269.978 585.797 270.29 584.429 270.29ZM599.779 270.29C596.179 270.29 594.955 268.178 594.955 265.082V259.922H591.811V257.738H595.075V254.138L597.715 252.818V257.738H603.091V259.922H597.715V265.082C597.715 267.122 598.435 268.082 600.427 268.082C601.435 268.082 602.275 267.866 603.019 267.578L603.547 269.57C602.491 269.93 601.171 270.29 599.779 270.29ZM613.402 255.65C612.25 255.65 611.362 254.858 611.362 253.634C611.362 252.41 612.25 251.57 613.402 251.57C614.578 251.57 615.442 252.41 615.442 253.634C615.442 254.858 614.578 255.65 613.402 255.65ZM607.93 269.978V267.722H612.226V259.922H607.93V257.738H614.986V267.722H619.282V269.978H607.93ZM622.729 269.978V257.738H624.817L625.033 259.322H625.129C625.633 258.218 626.353 257.426 627.697 257.426C628.825 257.426 629.569 258.122 629.857 259.49C630.409 258.29 631.225 257.426 632.545 257.426C634.177 257.426 635.137 258.842 635.137 261.29V269.978H632.521V261.506C632.521 260.354 632.233 259.778 631.561 259.778C630.913 259.778 630.457 260.33 630.001 261.362V269.978H627.865V261.506C627.865 260.354 627.505 259.778 626.857 259.778C626.209 259.778 625.801 260.33 625.345 261.362V269.978H622.729ZM645.087 270.29C641.511 270.29 638.655 267.89 638.655 263.858C638.655 259.874 641.631 257.426 644.727 257.426C648.231 257.426 650.175 259.85 650.175 263.234C650.175 263.762 650.103 264.29 650.055 264.602H641.487C641.655 266.858 643.311 268.13 645.447 268.13C646.671 268.13 647.703 267.77 648.759 267.122L649.695 268.85C648.447 269.666 646.815 270.29 645.087 270.29ZM641.463 262.706H647.655C647.655 260.738 646.647 259.562 644.775 259.562C643.191 259.562 641.775 260.666 641.463 262.706Z" fill="white"/>
<rect x="722" y="240.978" width="156" height="40" rx="16" fill="#232323"/>
<rect x="723.25" y="242.228" width="153.5" height="37.5" rx="14.75" stroke="#7E868C" stroke-opacity="0.1" stroke-width="2.5"/>
<path d="M739.125 270.866L749.398 252.938H751.773L741.477 270.866H739.125ZM761.1 270.29C758.892 270.29 756.804 269.402 755.34 268.37L756.612 266.618C757.932 267.578 759.348 268.178 761.172 268.178C763.02 268.178 763.884 267.554 763.884 266.666C763.884 265.802 762.78 265.226 760.38 264.578C758.148 263.978 756.036 262.898 756.036 261.074C756.036 258.962 757.932 257.426 761.244 257.426C763.164 257.426 764.94 258.218 766.14 259.034L764.868 260.738C763.812 260.018 762.612 259.514 761.268 259.514C759.444 259.514 758.796 260.114 758.796 260.93C758.796 261.818 760.212 262.322 762.108 262.826C764.844 263.57 766.62 264.506 766.62 266.498C766.62 268.586 764.676 270.29 761.1 270.29ZM778.803 270.29C775.203 270.29 773.979 268.178 773.979 265.082V259.922H770.835V257.738H774.099V254.138L776.739 252.818V257.738H782.115V259.922H776.739V265.082C776.739 267.122 777.459 268.082 779.451 268.082C780.459 268.082 781.299 267.866 782.043 267.578L782.571 269.57C781.515 269.93 780.195 270.29 778.803 270.29ZM792.209 270.29C789.113 270.29 786.305 267.938 786.305 263.858C786.305 259.778 789.113 257.426 792.209 257.426C795.329 257.426 798.137 259.778 798.137 263.858C798.137 267.938 795.329 270.29 792.209 270.29ZM792.209 268.034C794.153 268.034 795.305 266.378 795.305 263.858C795.305 261.362 794.153 259.682 792.209 259.682C790.289 259.682 789.137 261.362 789.137 263.858C789.137 266.378 790.289 268.034 792.209 268.034ZM803.744 269.978V257.738H806L806.24 260.546H806.312C807.512 258.554 809.288 257.426 811.328 257.426C812.288 257.426 812.912 257.594 813.632 257.93L813.032 260.258C812.264 259.994 811.808 259.874 810.896 259.874C809.288 259.874 807.704 260.762 806.504 263.138V269.978H803.744ZM821.831 270.29C819.551 270.29 817.895 268.826 817.895 266.714C817.895 263.954 820.223 262.61 826.055 262.154C825.959 260.738 825.167 259.658 823.223 259.658C821.903 259.658 820.703 260.282 819.863 260.978L818.855 259.154C819.887 258.266 821.711 257.426 823.751 257.426C827.015 257.426 828.791 259.322 828.791 262.682V269.978H826.559L826.343 268.442H826.247C824.999 269.426 823.439 270.29 821.831 270.29ZM822.671 268.106C823.847 268.106 824.975 267.53 826.055 266.57V263.882C821.807 264.194 820.559 265.13 820.559 266.498C820.559 267.626 821.495 268.106 822.671 268.106ZM838.381 275.306C836.965 275.306 835.189 274.898 833.749 273.434L834.805 271.634C835.981 272.834 837.301 273.146 838.381 273.146C840.373 273.146 841.525 272.066 841.549 270.17L841.597 268.178C840.733 269.09 839.389 269.762 838.093 269.762C835.093 269.762 833.077 267.362 833.077 263.666C833.077 259.85 835.525 257.426 838.309 257.426C839.629 257.426 840.757 258.002 841.717 259.058H841.813L842.029 257.738H844.213V269.978C844.213 273.41 842.149 275.306 838.381 275.306ZM838.765 267.53C839.725 267.53 840.613 267.026 841.453 265.97V260.858C840.613 260.018 839.773 259.706 838.885 259.706C837.301 259.706 835.861 261.242 835.861 263.618C835.861 266.042 837.013 267.53 838.765 267.53ZM855.292 270.29C851.716 270.29 848.86 267.89 848.86 263.858C848.86 259.874 851.836 257.426 854.932 257.426C858.436 257.426 860.38 259.85 860.38 263.234C860.38 263.762 860.308 264.29 860.26 264.602H851.692C851.86 266.858 853.516 268.13 855.652 268.13C856.876 268.13 857.908 267.77 858.964 267.122L859.9 268.85C858.652 269.666 857.02 270.29 855.292 270.29ZM851.668 262.706H857.86C857.86 260.738 856.852 259.562 854.98 259.562C853.396 259.562 851.98 260.666 851.668 262.706Z" fill="white"/>
<rect x="979" y="240.978" width="78" height="40" rx="16" fill="#232323"/>
<rect x="980.25" y="242.228" width="75.5" height="37.5" rx="14.75" stroke="#7E868C" stroke-opacity="0.1" stroke-width="2.5"/>
<path d="M996.102 270.866L1006.37 252.938H1008.75L998.454 270.866H996.102ZM1012.8 274.898V257.738H1015.05L1015.27 259.154H1015.34C1016.35 258.17 1017.76 257.426 1019.13 257.426C1022.18 257.426 1023.93 259.874 1023.93 263.666C1023.93 267.842 1021.44 270.29 1018.7 270.29C1017.62 270.29 1016.42 269.738 1015.46 268.802L1015.53 270.986V274.898H1012.8ZM1018.12 268.01C1019.83 268.01 1021.1 266.498 1021.1 263.69C1021.1 261.218 1020.26 259.706 1018.36 259.706C1017.45 259.706 1016.52 260.186 1015.53 261.242V266.834C1016.42 267.674 1017.43 268.01 1018.12 268.01ZM1033 275.306C1031.58 275.306 1029.8 274.898 1028.36 273.434L1029.42 271.634C1030.6 272.834 1031.92 273.146 1033 273.146C1034.99 273.146 1036.14 272.066 1036.16 270.17L1036.21 268.178C1035.35 269.09 1034 269.762 1032.71 269.762C1029.71 269.762 1027.69 267.362 1027.69 263.666C1027.69 259.85 1030.14 257.426 1032.92 257.426C1034.24 257.426 1035.37 258.002 1036.33 259.058H1036.43L1036.64 257.738H1038.83V269.978C1038.83 273.41 1036.76 275.306 1033 275.306ZM1033.38 267.53C1034.34 267.53 1035.23 267.026 1036.07 265.97V260.858C1035.23 260.018 1034.39 259.706 1033.5 259.706C1031.92 259.706 1030.48 261.242 1030.48 263.618C1030.48 266.042 1031.63 267.53 1033.38 267.53Z" fill="white"/>
<rect x="1142.5" y="240.978" width="187" height="40" rx="16" fill="#232323"/>
<rect x="1143.75" y="242.228" width="184.5" height="37.5" rx="14.75" stroke="#7E868C" stroke-opacity="0.1" stroke-width="2.5"/>
<path d="M1159.53 270.866L1169.81 252.938H1172.18L1161.89 270.866H1159.53ZM1179.71 269.978V259.922H1176.47V257.882L1179.71 257.738V257.258C1179.71 254.354 1181.25 252.29 1184.73 252.29C1185.97 252.29 1187.15 252.554 1188.21 252.986L1187.63 255.026C1186.79 254.618 1186 254.474 1185.04 254.474C1183.24 254.474 1182.45 255.458 1182.45 257.21V257.738H1186.93V259.922H1182.45V269.978H1179.71ZM1195.47 270.29C1192.71 270.29 1191.51 268.49 1191.51 265.322V257.738H1194.27V264.962C1194.27 266.978 1194.84 267.914 1196.48 267.914C1197.58 267.914 1198.4 267.386 1199.45 266.018V257.738H1202.19V269.978H1199.96L1199.74 268.01H1199.64C1198.52 269.354 1197.22 270.29 1195.47 270.29ZM1207.41 269.978V257.738H1209.67L1209.88 259.634H1209.98C1211.11 258.41 1212.43 257.426 1214.23 257.426C1216.94 257.426 1218.19 259.226 1218.19 262.394V269.978H1215.43V262.754C1215.43 260.738 1214.83 259.778 1213.22 259.778C1212.04 259.778 1211.25 260.402 1210.15 261.602V269.978H1207.41ZM1229.29 270.29C1225.59 270.29 1222.79 267.938 1222.79 263.858C1222.79 259.778 1225.88 257.426 1229.48 257.426C1231.35 257.426 1232.84 258.194 1233.83 259.178L1232.53 260.906C1231.59 260.09 1230.66 259.682 1229.6 259.682C1227.25 259.682 1225.62 261.362 1225.62 263.858C1225.62 266.378 1227.2 268.034 1229.53 268.034C1230.87 268.034 1232 267.41 1232.91 266.666L1234.07 268.418C1232.7 269.618 1230.97 270.29 1229.29 270.29ZM1245.98 270.29C1242.38 270.29 1241.16 268.178 1241.16 265.082V259.922H1238.02V257.738H1241.28V254.138L1243.92 252.818V257.738H1249.3V259.922H1243.92V265.082C1243.92 267.122 1244.64 268.082 1246.63 268.082C1247.64 268.082 1248.48 267.866 1249.22 267.578L1249.75 269.57C1248.7 269.93 1247.38 270.29 1245.98 270.29ZM1259.61 255.65C1258.45 255.65 1257.57 254.858 1257.57 253.634C1257.57 252.41 1258.45 251.57 1259.61 251.57C1260.78 251.57 1261.65 252.41 1261.65 253.634C1261.65 254.858 1260.78 255.65 1259.61 255.65ZM1254.13 269.978V267.722H1258.43V259.922H1254.13V257.738H1261.19V267.722H1265.49V269.978H1254.13ZM1274.98 270.29C1271.89 270.29 1269.08 267.938 1269.08 263.858C1269.08 259.778 1271.89 257.426 1274.98 257.426C1278.1 257.426 1280.91 259.778 1280.91 263.858C1280.91 267.938 1278.1 270.29 1274.98 270.29ZM1274.98 268.034C1276.93 268.034 1278.08 266.378 1278.08 263.858C1278.08 261.362 1276.93 259.682 1274.98 259.682C1273.06 259.682 1271.91 261.362 1271.91 263.858C1271.91 266.378 1273.06 268.034 1274.98 268.034ZM1285.36 269.978V257.738H1287.62L1287.84 259.634H1287.93C1289.06 258.41 1290.38 257.426 1292.18 257.426C1294.89 257.426 1296.14 259.226 1296.14 262.394V269.978H1293.38V262.754C1293.38 260.738 1292.78 259.778 1291.17 259.778C1290 259.778 1289.2 260.402 1288.1 261.602V269.978H1285.36ZM1306.23 270.29C1304.03 270.29 1301.94 269.402 1300.47 268.37L1301.75 266.618C1303.07 267.578 1304.48 268.178 1306.31 268.178C1308.15 268.178 1309.02 267.554 1309.02 266.666C1309.02 265.802 1307.91 265.226 1305.51 264.578C1303.28 263.978 1301.17 262.898 1301.17 261.074C1301.17 258.962 1303.07 257.426 1306.38 257.426C1308.3 257.426 1310.07 258.218 1311.27 259.034L1310 260.738C1308.95 260.018 1307.75 259.514 1306.4 259.514C1304.58 259.514 1303.93 260.114 1303.93 260.93C1303.93 261.818 1305.35 262.322 1307.24 262.826C1309.98 263.57 1311.75 264.506 1311.75 266.498C1311.75 268.586 1309.81 270.29 1306.23 270.29Z" fill="white"/>
<rect x="1376" y="240.978" width="156" height="40" rx="16" fill="#232323"/>
<rect x="1377.25" y="242.228" width="153.5" height="37.5" rx="14.75" stroke="#7E868C" stroke-opacity="0.1" stroke-width="2.5"/>
<path d="M1393.13 270.866L1403.4 252.938H1405.77L1395.48 270.866H1393.13ZM1414.43 275.306C1413.01 275.306 1411.24 274.898 1409.8 273.434L1410.85 271.634C1412.03 272.834 1413.35 273.146 1414.43 273.146C1416.42 273.146 1417.57 272.066 1417.6 270.17L1417.64 268.178C1416.78 269.09 1415.44 269.762 1414.14 269.762C1411.14 269.762 1409.12 267.362 1409.12 263.666C1409.12 259.85 1411.57 257.426 1414.36 257.426C1415.68 257.426 1416.8 258.002 1417.76 259.058H1417.86L1418.08 257.738H1420.26V269.978C1420.26 273.41 1418.2 275.306 1414.43 275.306ZM1414.81 267.53C1415.77 267.53 1416.66 267.026 1417.5 265.97V260.858C1416.66 260.018 1415.82 259.706 1414.93 259.706C1413.35 259.706 1411.91 261.242 1411.91 263.618C1411.91 266.042 1413.06 267.53 1414.81 267.53ZM1426.56 269.978V257.738H1428.82L1429.06 260.546H1429.13C1430.33 258.554 1432.11 257.426 1434.15 257.426C1435.11 257.426 1435.73 257.594 1436.45 257.93L1435.85 260.258C1435.08 259.994 1434.63 259.874 1433.71 259.874C1432.11 259.874 1430.52 260.762 1429.32 263.138V269.978H1426.56ZM1444.65 270.29C1442.37 270.29 1440.71 268.826 1440.71 266.714C1440.71 263.954 1443.04 262.61 1448.87 262.154C1448.78 260.738 1447.99 259.658 1446.04 259.658C1444.72 259.658 1443.52 260.282 1442.68 260.978L1441.67 259.154C1442.71 258.266 1444.53 257.426 1446.57 257.426C1449.83 257.426 1451.61 259.322 1451.61 262.682V269.978H1449.38L1449.16 268.442H1449.07C1447.82 269.426 1446.26 270.29 1444.65 270.29ZM1445.49 268.106C1446.67 268.106 1447.79 267.53 1448.87 266.57V263.882C1444.63 264.194 1443.38 265.13 1443.38 266.498C1443.38 267.626 1444.31 268.106 1445.49 268.106ZM1456.59 274.898V257.738H1458.85L1459.06 259.154H1459.14C1460.14 258.17 1461.56 257.426 1462.93 257.426C1465.98 257.426 1467.73 259.874 1467.73 263.666C1467.73 267.842 1465.23 270.29 1462.5 270.29C1461.42 270.29 1460.22 269.738 1459.26 268.802L1459.33 270.986V274.898H1456.59ZM1461.92 268.01C1463.62 268.01 1464.9 266.498 1464.9 263.69C1464.9 261.218 1464.06 259.706 1462.16 259.706C1461.25 259.706 1460.31 260.186 1459.33 261.242V266.834C1460.22 267.674 1461.22 268.01 1461.92 268.01ZM1472.18 269.978V252.578H1474.92V256.922L1474.77 259.586C1475.88 258.41 1477.2 257.426 1479 257.426C1481.71 257.426 1482.96 259.226 1482.96 262.394V269.978H1480.2V262.754C1480.2 260.738 1479.6 259.778 1477.99 259.778C1476.81 259.778 1476.02 260.402 1474.92 261.602V269.978H1472.18ZM1495.45 274.922V270.698L1495.57 268.61C1494.64 269.546 1493.39 270.29 1492.12 270.29C1489.07 270.29 1487.08 267.914 1487.08 263.858C1487.08 259.874 1489.6 257.426 1492.26 257.426C1493.65 257.426 1494.69 257.954 1495.72 259.058H1495.81L1496.03 257.738H1498.21V274.922H1495.45ZM1492.77 268.01C1493.75 268.01 1494.64 267.506 1495.45 266.474V260.858C1494.61 260.018 1493.77 259.706 1492.93 259.706C1491.28 259.706 1489.91 261.242 1489.91 263.834C1489.91 266.522 1490.97 268.01 1492.77 268.01ZM1511 270.29C1508.26 270.29 1506.82 268.562 1506.82 265.562V254.762H1503.1V252.578H1509.56V265.73C1509.56 267.386 1510.47 268.034 1511.67 268.034C1512.27 268.034 1512.89 267.89 1513.71 267.53L1514.36 269.57C1513.2 269.978 1512.36 270.29 1511 270.29Z" fill="white"/>
<g filter="url(#filter0_d_407_7233)">
<rect x="57" y="61" width="1486" height="120" rx="21" fill="white" shape-rendering="crispEdges"/>
<rect x="57.5" y="61.5" width="1485" height="119" rx="20.5" stroke="#C1C8CD" shape-rendering="crispEdges"/>
<path d="M771.411 116V100.16H774.219V107.384H774.291L779.907 100.16H782.979L778.155 106.328L783.507 116H780.435L776.499 108.512L774.219 111.344V116H771.411ZM792.209 116.288C788.585 116.288 786.041 113.12 786.041 108.008C786.041 102.872 788.585 99.872 792.209 99.872C795.857 99.872 798.377 102.896 798.377 108.008C798.377 113.12 795.857 116.288 792.209 116.288ZM792.209 113.888C794.225 113.888 795.545 111.584 795.545 108.008C795.545 104.432 794.225 102.272 792.209 102.272C790.193 102.272 788.897 104.432 788.897 108.008C788.897 111.584 790.193 113.888 792.209 113.888ZM802.4 116V100.16H805.208L809.432 109.136L810.896 112.496H810.968C810.848 110.864 810.584 108.872 810.584 107.12V100.16H813.224V116H810.392L806.192 107L804.728 103.664H804.656C804.776 105.344 805.04 107.24 805.04 108.992V116H802.4ZM824.351 116.288C820.367 116.288 817.367 113.36 817.367 108.128C817.367 102.92 820.391 99.872 824.471 99.872C826.559 99.872 827.975 100.856 828.935 101.84L827.399 103.568C826.679 102.8 825.839 102.272 824.471 102.272C821.975 102.272 820.223 104.456 820.223 108.032C820.223 111.656 821.735 113.888 824.519 113.888C825.359 113.888 826.175 113.624 826.655 113.168V109.712H823.943V107.432H829.151V114.416C828.119 115.424 826.367 116.288 824.351 116.288ZM690.006 144.312C686.958 144.312 684.966 141.936 684.966 137.88C684.966 133.896 687.486 131.448 690.15 131.448C691.542 131.448 692.478 132.024 693.438 132.936L693.342 130.824V126.6H696.102V144H693.846L693.63 142.536H693.558C692.622 143.496 691.326 144.312 690.006 144.312ZM690.654 142.032C691.638 142.032 692.526 141.528 693.342 140.496V134.88C692.502 134.04 691.662 133.728 690.822 133.728C689.166 133.728 687.798 135.264 687.798 137.856C687.798 140.544 688.854 142.032 690.654 142.032ZM706.461 144.312C703.365 144.312 700.557 141.96 700.557 137.88C700.557 133.8 703.365 131.448 706.461 131.448C709.581 131.448 712.389 133.8 712.389 137.88C712.389 141.96 709.581 144.312 706.461 144.312ZM706.461 142.056C708.405 142.056 709.557 140.4 709.557 137.88C709.557 135.384 708.405 133.704 706.461 133.704C704.541 133.704 703.389 135.384 703.389 137.88C703.389 140.4 704.541 142.056 706.461 142.056ZM723.132 144.312C719.436 144.312 716.628 141.96 716.628 137.88C716.628 133.8 719.724 131.448 723.324 131.448C725.196 131.448 726.684 132.216 727.668 133.2L726.372 134.928C725.436 134.112 724.5 133.704 723.444 133.704C721.092 133.704 719.46 135.384 719.46 137.88C719.46 140.4 721.044 142.056 723.372 142.056C724.716 142.056 725.844 141.432 726.756 140.688L727.908 142.44C726.54 143.64 724.812 144.312 723.132 144.312ZM737.714 144.312C735.506 144.312 733.418 143.424 731.954 142.392L733.226 140.64C734.546 141.6 735.962 142.2 737.786 142.2C739.634 142.2 740.498 141.576 740.498 140.688C740.498 139.824 739.394 139.248 736.994 138.6C734.762 138 732.65 136.92 732.65 135.096C732.65 132.984 734.546 131.448 737.858 131.448C739.778 131.448 741.554 132.24 742.754 133.056L741.482 134.76C740.426 134.04 739.226 133.536 737.882 133.536C736.058 133.536 735.41 134.136 735.41 134.952C735.41 135.84 736.826 136.344 738.722 136.848C741.458 137.592 743.234 138.528 743.234 140.52C743.234 142.608 741.29 144.312 737.714 144.312ZM753.233 144.288C751.865 144.288 750.881 143.256 750.881 141.864C750.881 140.472 751.865 139.44 753.233 139.44C754.601 139.44 755.609 140.472 755.609 141.864C755.609 143.256 754.601 144.288 753.233 144.288ZM763.807 144V126.6H766.567V137.544H766.663L771.991 131.76H775.039L770.455 136.68L775.543 144H772.519L768.823 138.36L766.567 140.784V144H763.807ZM784.414 144.312C781.318 144.312 778.51 141.96 778.51 137.88C778.51 133.8 781.318 131.448 784.414 131.448C787.534 131.448 790.342 133.8 790.342 137.88C790.342 141.96 787.534 144.312 784.414 144.312ZM784.414 142.056C786.358 142.056 787.51 140.4 787.51 137.88C787.51 135.384 786.358 133.704 784.414 133.704C782.494 133.704 781.342 135.384 781.342 137.88C781.342 140.4 782.494 142.056 784.414 142.056ZM794.797 144V131.76H797.053L797.269 133.656H797.365C798.493 132.432 799.813 131.448 801.613 131.448C804.325 131.448 805.573 133.248 805.573 136.416V144H802.813V136.776C802.813 134.76 802.213 133.8 800.605 133.8C799.429 133.8 798.637 134.424 797.533 135.624V144H794.797ZM814.995 149.328C813.579 149.328 811.803 148.92 810.363 147.456L811.419 145.656C812.595 146.856 813.915 147.168 814.995 147.168C816.987 147.168 818.139 146.088 818.163 144.192L818.211 142.2C817.347 143.112 816.003 143.784 814.707 143.784C811.707 143.784 809.691 141.384 809.691 137.688C809.691 133.872 812.139 131.448 814.923 131.448C816.243 131.448 817.371 132.024 818.331 133.08H818.427L818.643 131.76H820.827V144C820.827 147.432 818.763 149.328 814.995 149.328ZM815.379 141.552C816.339 141.552 817.227 141.048 818.067 139.992V134.88C817.227 134.04 816.387 133.728 815.499 133.728C813.915 133.728 812.475 135.264 812.475 137.64C812.475 140.064 813.627 141.552 815.379 141.552ZM825.978 144V126.6H828.714V130.944L828.57 133.608C829.674 132.432 830.994 131.448 832.794 131.448C835.506 131.448 836.754 133.248 836.754 136.416V144H833.994V136.776C833.994 134.76 833.394 133.8 831.786 133.8C830.61 133.8 829.818 134.424 828.714 135.624V144H825.978ZM849.249 148.944V144.72L849.369 142.632C848.433 143.568 847.185 144.312 845.913 144.312C842.865 144.312 840.873 141.936 840.873 137.88C840.873 133.896 843.393 131.448 846.057 131.448C847.449 131.448 848.481 131.976 849.513 133.08H849.609L849.825 131.76H852.009V148.944H849.249ZM846.561 142.032C847.545 142.032 848.433 141.528 849.249 140.496V134.88C848.409 134.04 847.569 133.728 846.729 133.728C845.073 133.728 843.705 135.264 843.705 137.856C843.705 140.544 844.761 142.032 846.561 142.032ZM862.367 144.288C860.999 144.288 860.015 143.256 860.015 141.864C860.015 140.472 860.999 139.44 862.367 139.44C863.735 139.44 864.743 140.472 864.743 141.864C864.743 143.256 863.735 144.288 862.367 144.288ZM879.038 144.312C875.342 144.312 872.534 141.96 872.534 137.88C872.534 133.8 875.63 131.448 879.23 131.448C881.102 131.448 882.59 132.216 883.574 133.2L882.278 134.928C881.342 134.112 880.406 133.704 879.35 133.704C876.998 133.704 875.366 135.384 875.366 137.88C875.366 140.4 876.95 142.056 879.278 142.056C880.622 142.056 881.75 141.432 882.662 140.688L883.814 142.44C882.446 143.64 880.718 144.312 879.038 144.312ZM893.548 144.312C890.452 144.312 887.644 141.96 887.644 137.88C887.644 133.8 890.452 131.448 893.548 131.448C896.668 131.448 899.476 133.8 899.476 137.88C899.476 141.96 896.668 144.312 893.548 144.312ZM893.548 142.056C895.492 142.056 896.644 140.4 896.644 137.88C896.644 135.384 895.492 133.704 893.548 133.704C891.628 133.704 890.476 135.384 890.476 137.88C890.476 140.4 891.628 142.056 893.548 142.056ZM903.091 144V131.76H905.179L905.395 133.344H905.491C905.995 132.24 906.715 131.448 908.059 131.448C909.187 131.448 909.931 132.144 910.219 133.512C910.771 132.312 911.587 131.448 912.907 131.448C914.539 131.448 915.499 132.864 915.499 135.312V144H912.883V135.528C912.883 134.376 912.595 133.8 911.923 133.8C911.275 133.8 910.819 134.352 910.363 135.384V144H908.227V135.528C908.227 134.376 907.867 133.8 907.219 133.8C906.571 133.8 906.163 134.352 905.707 135.384V144H903.091Z" fill="#11181C"/>
</g>
<g filter="url(#filter1_d_407_7233)">
<rect x="57" y="354" width="157" height="92" rx="21" fill="white" shape-rendering="crispEdges"/>
<rect x="57.5" y="354.5" width="156" height="91" rx="20.5" stroke="#C1C8CD" shape-rendering="crispEdges"/>
<path d="M97.4881 409.288C93.5041 409.288 90.5041 406.36 90.5041 401.128C90.5041 395.92 93.5281 392.872 97.6081 392.872C99.6961 392.872 101.112 393.856 102.072 394.84L100.536 396.568C99.8161 395.8 98.9761 395.272 97.6081 395.272C95.1121 395.272 93.3601 397.456 93.3601 401.032C93.3601 404.656 94.8721 406.888 97.6561 406.888C98.4961 406.888 99.3121 406.624 99.7921 406.168V402.712H97.0801V400.432H102.288V407.416C101.256 408.424 99.5041 409.288 97.4881 409.288ZM112.119 409.312C109.023 409.312 106.215 406.96 106.215 402.88C106.215 398.8 109.023 396.448 112.119 396.448C115.239 396.448 118.047 398.8 118.047 402.88C118.047 406.96 115.239 409.312 112.119 409.312ZM112.119 407.056C114.063 407.056 115.215 405.4 115.215 402.88C115.215 400.384 114.063 398.704 112.119 398.704C110.199 398.704 109.047 400.384 109.047 402.88C109.047 405.4 110.199 407.056 112.119 407.056ZM126.317 409V395.488H121.397V393.16H134.045V395.488H129.101V409H126.317ZM139.244 409V396.76H141.5L141.74 399.568H141.812C143.012 397.576 144.788 396.448 146.828 396.448C147.788 396.448 148.412 396.616 149.132 396.952L148.532 399.28C147.764 399.016 147.308 398.896 146.396 398.896C144.788 398.896 143.204 399.784 142.004 402.16V409H139.244ZM157.331 409.312C154.571 409.312 153.371 407.512 153.371 404.344V396.76H156.131V403.984C156.131 406 156.707 406.936 158.339 406.936C159.443 406.936 160.259 406.408 161.315 405.04V396.76H164.051V409H161.819L161.603 407.032H161.507C160.379 408.376 159.083 409.312 157.331 409.312ZM175.201 409.312C171.625 409.312 168.769 406.912 168.769 402.88C168.769 398.896 171.745 396.448 174.841 396.448C178.345 396.448 180.289 398.872 180.289 402.256C180.289 402.784 180.217 403.312 180.169 403.624H171.601C171.769 405.88 173.425 407.152 175.561 407.152C176.785 407.152 177.817 406.792 178.873 406.144L179.809 407.872C178.561 408.688 176.929 409.312 175.201 409.312ZM171.577 401.728H177.769C177.769 399.76 176.761 398.584 174.889 398.584C173.305 398.584 171.889 399.688 171.577 401.728Z" fill="#11181C"/>
</g>
<g filter="url(#filter2_d_407_7233)">
<rect x="262" y="354" width="204" height="92" rx="21" fill="white" shape-rendering="crispEdges"/>
<rect x="262.5" y="354.5" width="203" height="91" rx="20.5" stroke="#C1C8CD" shape-rendering="crispEdges"/>
<path d="M296.554 409V393.16H301.834C305.266 393.16 307.786 394.36 307.786 398.032C307.786 401.536 305.218 403.144 301.834 403.144H299.314V409H296.554ZM299.314 400.936H301.594C303.946 400.936 305.05 399.976 305.05 398.032C305.05 396.04 303.898 395.368 301.594 395.368H299.314V400.936ZM317.233 409.312C314.137 409.312 311.329 406.96 311.329 402.88C311.329 398.8 314.137 396.448 317.233 396.448C320.353 396.448 323.161 398.8 323.161 402.88C323.161 406.96 320.353 409.312 317.233 409.312ZM317.233 407.056C319.177 407.056 320.329 405.4 320.329 402.88C320.329 400.384 319.177 398.704 317.233 398.704C315.313 398.704 314.161 400.384 314.161 402.88C314.161 405.4 315.313 407.056 317.233 407.056ZM332.895 409.312C330.687 409.312 328.599 408.424 327.135 407.392L328.407 405.64C329.727 406.6 331.143 407.2 332.967 407.2C334.815 407.2 335.679 406.576 335.679 405.688C335.679 404.824 334.575 404.248 332.175 403.6C329.943 403 327.831 401.92 327.831 400.096C327.831 397.984 329.727 396.448 333.039 396.448C334.959 396.448 336.735 397.24 337.935 398.056L336.663 399.76C335.607 399.04 334.407 398.536 333.063 398.536C331.239 398.536 330.591 399.136 330.591 399.952C330.591 400.84 332.007 401.344 333.903 401.848C336.639 402.592 338.415 403.528 338.415 405.52C338.415 407.608 336.471 409.312 332.895 409.312ZM350.598 409.312C346.998 409.312 345.774 407.2 345.774 404.104V398.944H342.63V396.76H345.894V393.16L348.534 391.84V396.76H353.91V398.944H348.534V404.104C348.534 406.144 349.254 407.104 351.246 407.104C352.254 407.104 353.094 406.888 353.838 406.6L354.366 408.592C353.31 408.952 351.99 409.312 350.598 409.312ZM363.405 414.328C361.989 414.328 360.213 413.92 358.773 412.456L359.829 410.656C361.005 411.856 362.325 412.168 363.405 412.168C365.397 412.168 366.549 411.088 366.573 409.192L366.621 407.2C365.757 408.112 364.413 408.784 363.117 408.784C360.117 408.784 358.101 406.384 358.101 402.688C358.101 398.872 360.549 396.448 363.333 396.448C364.653 396.448 365.781 397.024 366.741 398.08H366.837L367.053 396.76H369.237V409C369.237 412.432 367.173 414.328 363.405 414.328ZM363.789 406.552C364.749 406.552 365.637 406.048 366.477 404.992V399.88C365.637 399.04 364.797 398.728 363.909 398.728C362.325 398.728 360.885 400.264 360.885 402.64C360.885 405.064 362.037 406.552 363.789 406.552ZM374.435 409V393.16H379.667C382.907 393.16 385.427 394.312 385.427 397.84C385.427 400.24 384.179 401.704 382.283 402.352L386.051 409H382.931L379.523 402.784H377.195V409H374.435ZM377.195 400.552H379.379C381.539 400.552 382.691 399.64 382.691 397.84C382.691 395.992 381.539 395.368 379.379 395.368H377.195V400.552ZM390.506 409V393.16H400.514V395.488H393.266V399.592H399.41V401.92H393.266V406.648H400.754V409H390.506ZM410.825 409.288C408.617 409.288 406.529 408.448 404.993 406.96L406.601 405.064C407.777 406.144 409.337 406.888 410.873 406.888C412.817 406.888 413.801 406.072 413.801 404.8C413.801 403.48 412.745 403.072 411.185 402.448L409.049 401.512C407.369 400.864 405.665 399.616 405.665 397.312C405.665 394.792 407.921 392.872 411.113 392.872C413.057 392.872 414.857 393.616 416.153 394.888L414.713 396.64C413.657 395.776 412.577 395.272 411.113 395.272C409.481 395.272 408.473 395.968 408.473 397.168C408.473 398.416 409.745 398.848 411.161 399.424L413.225 400.312C415.217 401.128 416.633 402.28 416.633 404.584C416.633 407.152 414.497 409.288 410.825 409.288ZM424.975 409V395.488H420.055V393.16H432.703V395.488H427.759V409H424.975Z" fill="#11181C"/>
</g>
<g filter="url(#filter3_d_407_7233)">
<rect x="488" y="354" width="188" height="92" rx="21" fill="white" shape-rendering="crispEdges"/>
<rect x="488.5" y="354.5" width="187" height="91" rx="20.5" stroke="#C1C8CD" shape-rendering="crispEdges"/>
<path d="M522.277 409V393.16H527.509C530.749 393.16 533.27 394.312 533.27 397.84C533.27 400.24 532.021 401.704 530.125 402.352L533.893 409H530.773L527.365 402.784H525.037V409H522.277ZM525.037 400.552H527.221C529.381 400.552 530.533 399.64 530.533 397.84C530.533 395.992 529.381 395.368 527.221 395.368H525.037V400.552ZM543.748 409.312C540.172 409.312 537.316 406.912 537.316 402.88C537.316 398.896 540.292 396.448 543.388 396.448C546.892 396.448 548.836 398.872 548.836 402.256C548.836 402.784 548.764 403.312 548.716 403.624H540.148C540.316 405.88 541.972 407.152 544.108 407.152C545.332 407.152 546.364 406.792 547.42 406.144L548.356 407.872C547.108 408.688 545.476 409.312 543.748 409.312ZM540.124 401.728H546.316C546.316 399.76 545.308 398.584 543.436 398.584C541.852 398.584 540.436 399.688 540.124 401.728ZM557.059 409.312C554.779 409.312 553.123 407.848 553.123 405.736C553.123 402.976 555.451 401.632 561.283 401.176C561.187 399.76 560.395 398.68 558.451 398.68C557.131 398.68 555.931 399.304 555.091 400L554.083 398.176C555.115 397.288 556.939 396.448 558.979 396.448C562.243 396.448 564.019 398.344 564.019 401.704V409H561.787L561.571 407.464H561.475C560.227 408.448 558.667 409.312 557.059 409.312ZM557.899 407.128C559.075 407.128 560.203 406.552 561.283 405.592V402.904C557.035 403.216 555.787 404.152 555.787 405.52C555.787 406.648 556.723 407.128 557.899 407.128ZM576.633 409.312C573.897 409.312 572.457 407.584 572.457 404.584V393.784H568.737V391.6H575.193V404.752C575.193 406.408 576.105 407.056 577.305 407.056C577.905 407.056 578.529 406.912 579.345 406.552L579.993 408.592C578.841 409 578.001 409.312 576.633 409.312ZM591.984 409.312C588.384 409.312 587.16 407.2 587.16 404.104V398.944H584.016V396.76H587.28V393.16L589.92 391.84V396.76H595.296V398.944H589.92V404.104C589.92 406.144 590.64 407.104 592.632 407.104C593.64 407.104 594.48 406.888 595.224 406.6L595.752 408.592C594.696 408.952 593.376 409.312 591.984 409.312ZM605.607 394.672C604.455 394.672 603.567 393.88 603.567 392.656C603.567 391.432 604.455 390.592 605.607 390.592C606.783 390.592 607.647 391.432 607.647 392.656C607.647 393.88 606.783 394.672 605.607 394.672ZM600.135 409V406.744H604.431V398.944H600.135V396.76H607.191V406.744H611.487V409H600.135ZM614.933 409V396.76H617.021L617.237 398.344H617.333C617.837 397.24 618.557 396.448 619.901 396.448C621.029 396.448 621.773 397.144 622.061 398.512C622.613 397.312 623.429 396.448 624.749 396.448C626.381 396.448 627.341 397.864 627.341 400.312V409H624.725V400.528C624.725 399.376 624.437 398.8 623.765 398.8C623.117 398.8 622.661 399.352 622.205 400.384V409H620.069V400.528C620.069 399.376 619.709 398.8 619.061 398.8C618.413 398.8 618.005 399.352 617.549 400.384V409H614.933ZM637.292 409.312C633.716 409.312 630.86 406.912 630.86 402.88C630.86 398.896 633.836 396.448 636.932 396.448C640.436 396.448 642.38 398.872 642.38 402.256C642.38 402.784 642.308 403.312 642.26 403.624H633.692C633.86 405.88 635.516 407.152 637.652 407.152C638.876 407.152 639.908 406.792 640.964 406.144L641.9 407.872C640.652 408.688 639.02 409.312 637.292 409.312ZM633.668 401.728H639.86C639.86 399.76 638.852 398.584 636.98 398.584C635.396 398.584 633.98 399.688 633.668 401.728Z" fill="#11181C"/>
</g>
<g filter="url(#filter4_d_407_7233)">
<rect x="709.5" y="354" width="172" height="92" rx="21" fill="white" shape-rendering="crispEdges"/>
<rect x="710" y="354.5" width="171" height="91" rx="20.5" stroke="#C1C8CD" shape-rendering="crispEdges"/>
<path d="M748.781 409.288C746.573 409.288 744.485 408.448 742.949 406.96L744.557 405.064C745.733 406.144 747.293 406.888 748.829 406.888C750.773 406.888 751.757 406.072 751.757 404.8C751.757 403.48 750.701 403.072 749.141 402.448L747.005 401.512C745.325 400.864 743.621 399.616 743.621 397.312C743.621 394.792 745.877 392.872 749.069 392.872C751.013 392.872 752.813 393.616 754.109 394.888L752.669 396.64C751.613 395.776 750.533 395.272 749.069 395.272C747.437 395.272 746.429 395.968 746.429 397.168C746.429 398.416 747.701 398.848 749.117 399.424L751.181 400.312C753.173 401.128 754.589 402.28 754.589 404.584C754.589 407.152 752.453 409.288 748.781 409.288ZM766.507 409.312C762.907 409.312 761.683 407.2 761.683 404.104V398.944H758.539V396.76H761.803V393.16L764.443 391.84V396.76H769.819V398.944H764.443V404.104C764.443 406.144 765.163 407.104 767.155 407.104C768.163 407.104 769.003 406.888 769.747 406.6L770.275 408.592C769.219 408.952 767.899 409.312 766.507 409.312ZM779.914 409.312C776.818 409.312 774.01 406.96 774.01 402.88C774.01 398.8 776.818 396.448 779.914 396.448C783.034 396.448 785.842 398.8 785.842 402.88C785.842 406.96 783.034 409.312 779.914 409.312ZM779.914 407.056C781.858 407.056 783.01 405.4 783.01 402.88C783.01 400.384 781.858 398.704 779.914 398.704C777.994 398.704 776.842 400.384 776.842 402.88C776.842 405.4 777.994 407.056 779.914 407.056ZM791.449 409V396.76H793.705L793.945 399.568H794.017C795.217 397.576 796.993 396.448 799.033 396.448C799.993 396.448 800.617 396.616 801.337 396.952L800.737 399.28C799.969 399.016 799.513 398.896 798.601 398.896C796.993 398.896 795.409 399.784 794.209 402.16V409H791.449ZM809.535 409.312C807.255 409.312 805.599 407.848 805.599 405.736C805.599 402.976 807.927 401.632 813.759 401.176C813.663 399.76 812.871 398.68 810.927 398.68C809.607 398.68 808.407 399.304 807.567 400L806.559 398.176C807.591 397.288 809.415 396.448 811.455 396.448C814.719 396.448 816.495 398.344 816.495 401.704V409H814.263L814.047 407.464H813.951C812.703 408.448 811.143 409.312 809.535 409.312ZM810.375 407.128C811.551 407.128 812.679 406.552 813.759 405.592V402.904C809.511 403.216 808.263 404.152 808.263 405.52C808.263 406.648 809.199 407.128 810.375 407.128ZM826.086 414.328C824.67 414.328 822.894 413.92 821.454 412.456L822.51 410.656C823.686 411.856 825.006 412.168 826.086 412.168C828.078 412.168 829.23 411.088 829.254 409.192L829.302 407.2C828.438 408.112 827.094 408.784 825.798 408.784C822.798 408.784 820.782 406.384 820.782 402.688C820.782 398.872 823.23 396.448 826.014 396.448C827.334 396.448 828.462 397.024 829.422 398.08H829.518L829.734 396.76H831.918V409C831.918 412.432 829.854 414.328 826.086 414.328ZM826.47 406.552C827.43 406.552 828.318 406.048 829.158 404.992V399.88C828.318 399.04 827.478 398.728 826.59 398.728C825.006 398.728 823.566 400.264 823.566 402.64C823.566 405.064 824.718 406.552 826.47 406.552ZM842.997 409.312C839.421 409.312 836.565 406.912 836.565 402.88C836.565 398.896 839.541 396.448 842.637 396.448C846.141 396.448 848.085 398.872 848.085 402.256C848.085 402.784 848.013 403.312 847.965 403.624H839.397C839.565 405.88 841.221 407.152 843.357 407.152C844.581 407.152 845.613 406.792 846.669 406.144L847.605 407.872C846.357 408.688 844.725 409.312 842.997 409.312ZM839.373 401.728H845.565C845.565 399.76 844.557 398.584 842.685 398.584C841.101 398.584 839.685 399.688 839.373 401.728Z" fill="#11181C"/>
</g>
<g filter="url(#filter5_d_407_7233)">
<rect x="929.5" y="354" width="172" height="92" rx="21" fill="white" shape-rendering="crispEdges"/>
<rect x="930" y="354.5" width="171" height="91" rx="20.5" stroke="#C1C8CD" shape-rendering="crispEdges"/>
<path d="M963.525 413.92V396.76H965.781L965.997 398.176H966.069C967.077 397.192 968.493 396.448 969.861 396.448C972.909 396.448 974.661 398.896 974.661 402.688C974.661 406.864 972.165 409.312 969.429 409.312C968.349 409.312 967.149 408.76 966.189 407.824L966.261 410.008V413.92H963.525ZM968.853 407.032C970.557 407.032 971.829 405.52 971.829 402.712C971.829 400.24 970.989 398.728 969.093 398.728C968.181 398.728 967.245 399.208 966.261 400.264V405.856C967.149 406.696 968.157 407.032 968.853 407.032ZM983.723 414.328C982.307 414.328 980.531 413.92 979.091 412.456L980.147 410.656C981.323 411.856 982.643 412.168 983.723 412.168C985.715 412.168 986.867 411.088 986.891 409.192L986.939 407.2C986.075 408.112 984.731 408.784 983.435 408.784C980.435 408.784 978.419 406.384 978.419 402.688C978.419 398.872 980.867 396.448 983.651 396.448C984.971 396.448 986.099 397.024 987.059 398.08H987.155L987.371 396.76H989.555V409C989.555 412.432 987.491 414.328 983.723 414.328ZM984.107 406.552C985.067 406.552 985.955 406.048 986.795 404.992V399.88C985.955 399.04 985.115 398.728 984.227 398.728C982.643 398.728 981.203 400.264 981.203 402.64C981.203 405.064 982.355 406.552 984.107 406.552ZM994.586 402.064V400.072H1005.27V402.064H994.586ZM1009.46 409V396.76H1011.54L1011.76 398.344H1011.86C1012.36 397.24 1013.08 396.448 1014.42 396.448C1015.55 396.448 1016.3 397.144 1016.58 398.512C1017.14 397.312 1017.95 396.448 1019.27 396.448C1020.9 396.448 1021.86 397.864 1021.86 400.312V409H1019.25V400.528C1019.25 399.376 1018.96 398.8 1018.29 398.8C1017.64 398.8 1017.18 399.352 1016.73 400.384V409H1014.59V400.528C1014.59 399.376 1014.23 398.8 1013.58 398.8C1012.94 398.8 1012.53 399.352 1012.07 400.384V409H1009.46ZM1031.82 409.312C1028.24 409.312 1025.38 406.912 1025.38 402.88C1025.38 398.896 1028.36 396.448 1031.46 396.448C1034.96 396.448 1036.9 398.872 1036.9 402.256C1036.9 402.784 1036.83 403.312 1036.78 403.624H1028.22C1028.38 405.88 1030.04 407.152 1032.18 407.152C1033.4 407.152 1034.43 406.792 1035.49 406.144L1036.42 407.872C1035.18 408.688 1033.54 409.312 1031.82 409.312ZM1028.19 401.728H1034.38C1034.38 399.76 1033.38 398.584 1031.5 398.584C1029.92 398.584 1028.5 399.688 1028.19 401.728ZM1048.87 409.312C1045.27 409.312 1044.05 407.2 1044.05 404.104V398.944H1040.9V396.76H1044.17V393.16L1046.81 391.84V396.76H1052.18V398.944H1046.81V404.104C1046.81 406.144 1047.53 407.104 1049.52 407.104C1050.53 407.104 1051.37 406.888 1052.11 406.6L1052.64 408.592C1051.58 408.952 1050.26 409.312 1048.87 409.312ZM1060.72 409.312C1058.44 409.312 1056.78 407.848 1056.78 405.736C1056.78 402.976 1059.11 401.632 1064.94 401.176C1064.84 399.76 1064.05 398.68 1062.11 398.68C1060.79 398.68 1059.59 399.304 1058.75 400L1057.74 398.176C1058.77 397.288 1060.6 396.448 1062.64 396.448C1065.9 396.448 1067.68 398.344 1067.68 401.704V409H1065.44L1065.23 407.464H1065.13C1063.88 408.448 1062.32 409.312 1060.72 409.312ZM1061.56 407.128C1062.73 407.128 1063.86 406.552 1064.94 405.592V402.904C1060.69 403.216 1059.44 404.152 1059.44 405.52C1059.44 406.648 1060.38 407.128 1061.56 407.128Z" fill="#11181C"/>
</g>
<g filter="url(#filter6_d_407_7233)">
<rect x="1133.5" y="354" width="204" height="92" rx="21" fill="white" shape-rendering="crispEdges"/>
<rect x="1134" y="354.5" width="203" height="91" rx="20.5" stroke="#C1C8CD" shape-rendering="crispEdges"/>
<path d="M1168.87 409V393.16H1178.83V395.488H1171.63V400.024H1177.75V402.352H1171.63V409H1168.87ZM1187.17 409.312C1184.41 409.312 1183.21 407.512 1183.21 404.344V396.76H1185.97V403.984C1185.97 406 1186.55 406.936 1188.18 406.936C1189.28 406.936 1190.1 406.408 1191.16 405.04V396.76H1193.89V409H1191.66L1191.44 407.032H1191.35C1190.22 408.376 1188.92 409.312 1187.17 409.312ZM1199.12 409V396.76H1201.37L1201.59 398.656H1201.68C1202.81 397.432 1204.13 396.448 1205.93 396.448C1208.64 396.448 1209.89 398.248 1209.89 401.416V409H1207.13V401.776C1207.13 399.76 1206.53 398.8 1204.92 398.8C1203.75 398.8 1202.96 399.424 1201.85 400.624V409H1199.12ZM1220.99 409.312C1217.3 409.312 1214.49 406.96 1214.49 402.88C1214.49 398.8 1217.59 396.448 1221.19 396.448C1223.06 396.448 1224.55 397.216 1225.53 398.2L1224.23 399.928C1223.3 399.112 1222.36 398.704 1221.31 398.704C1218.95 398.704 1217.32 400.384 1217.32 402.88C1217.32 405.4 1218.91 407.056 1221.23 407.056C1222.58 407.056 1223.71 406.432 1224.62 405.688L1225.77 407.44C1224.4 408.64 1222.67 409.312 1220.99 409.312ZM1237.69 409.312C1234.09 409.312 1232.86 407.2 1232.86 404.104V398.944H1229.72V396.76H1232.98V393.16L1235.62 391.84V396.76H1241V398.944H1235.62V404.104C1235.62 406.144 1236.34 407.104 1238.34 407.104C1239.34 407.104 1240.18 406.888 1240.93 406.6L1241.46 408.592C1240.4 408.952 1239.08 409.312 1237.69 409.312ZM1251.31 394.672C1250.16 394.672 1249.27 393.88 1249.27 392.656C1249.27 391.432 1250.16 390.592 1251.31 390.592C1252.49 390.592 1253.35 391.432 1253.35 392.656C1253.35 393.88 1252.49 394.672 1251.31 394.672ZM1245.84 409V406.744H1250.14V398.944H1245.84V396.76H1252.9V406.744H1257.19V409H1245.84ZM1266.69 409.312C1263.59 409.312 1260.78 406.96 1260.78 402.88C1260.78 398.8 1263.59 396.448 1266.69 396.448C1269.81 396.448 1272.61 398.8 1272.61 402.88C1272.61 406.96 1269.81 409.312 1266.69 409.312ZM1266.69 407.056C1268.63 407.056 1269.78 405.4 1269.78 402.88C1269.78 400.384 1268.63 398.704 1266.69 398.704C1264.77 398.704 1263.61 400.384 1263.61 402.88C1263.61 405.4 1264.77 407.056 1266.69 407.056ZM1277.07 409V396.76H1279.32L1279.54 398.656H1279.64C1280.76 397.432 1282.08 396.448 1283.88 396.448C1286.6 396.448 1287.84 398.248 1287.84 401.416V409H1285.08V401.776C1285.08 399.76 1284.48 398.8 1282.88 398.8C1281.7 398.8 1280.91 399.424 1279.8 400.624V409H1277.07ZM1297.94 409.312C1295.73 409.312 1293.64 408.424 1292.18 407.392L1293.45 405.64C1294.77 406.6 1296.19 407.2 1298.01 407.2C1299.86 407.2 1300.72 406.576 1300.72 405.688C1300.72 404.824 1299.62 404.248 1297.22 403.6C1294.99 403 1292.88 401.92 1292.88 400.096C1292.88 397.984 1294.77 396.448 1298.08 396.448C1300 396.448 1301.78 397.24 1302.98 398.056L1301.71 399.76C1300.65 399.04 1299.45 398.536 1298.11 398.536C1296.28 398.536 1295.64 399.136 1295.64 399.952C1295.64 400.84 1297.05 401.344 1298.95 401.848C1301.68 402.592 1303.46 403.528 1303.46 405.52C1303.46 407.608 1301.52 409.312 1297.94 409.312Z" fill="#11181C"/>
</g>
<g filter="url(#filter7_d_407_7233)">
<rect x="1346" y="354" width="219" height="92" rx="21" fill="white" shape-rendering="crispEdges"/>
<rect x="1346.5" y="354.5" width="218" height="91" rx="20.5" stroke="#C1C8CD" shape-rendering="crispEdges"/>
<path d="M1380.14 413.92V396.76H1382.39L1382.61 398.176H1382.68C1383.69 397.192 1385.11 396.448 1386.47 396.448C1389.52 396.448 1391.27 398.896 1391.27 402.688C1391.27 406.864 1388.78 409.312 1386.04 409.312C1384.96 409.312 1383.76 408.76 1382.8 407.824L1382.87 410.008V413.92H1380.14ZM1385.47 407.032C1387.17 407.032 1388.44 405.52 1388.44 402.712C1388.44 400.24 1387.6 398.728 1385.71 398.728C1384.79 398.728 1383.86 399.208 1382.87 400.264V405.856C1383.76 406.696 1384.77 407.032 1385.47 407.032ZM1400.34 414.328C1398.92 414.328 1397.15 413.92 1395.71 412.456L1396.76 410.656C1397.94 411.856 1399.26 412.168 1400.34 412.168C1402.33 412.168 1403.48 411.088 1403.51 409.192L1403.55 407.2C1402.69 408.112 1401.35 408.784 1400.05 408.784C1397.05 408.784 1395.03 406.384 1395.03 402.688C1395.03 398.872 1397.48 396.448 1400.27 396.448C1401.59 396.448 1402.71 397.024 1403.67 398.08H1403.77L1403.99 396.76H1406.17V409C1406.17 412.432 1404.11 414.328 1400.34 414.328ZM1400.72 406.552C1401.68 406.552 1402.57 406.048 1403.41 404.992V399.88C1402.57 399.04 1401.73 398.728 1400.84 398.728C1399.26 398.728 1397.82 400.264 1397.82 402.64C1397.82 405.064 1398.97 406.552 1400.72 406.552ZM1410.77 412.648V410.488H1422.29V412.648H1410.77ZM1431.52 414.328C1430.1 414.328 1428.33 413.92 1426.89 412.456L1427.94 410.656C1429.12 411.856 1430.44 412.168 1431.52 412.168C1433.51 412.168 1434.66 411.088 1434.69 409.192L1434.73 407.2C1433.87 408.112 1432.53 408.784 1431.23 408.784C1428.23 408.784 1426.21 406.384 1426.21 402.688C1426.21 398.872 1428.66 396.448 1431.45 396.448C1432.77 396.448 1433.89 397.024 1434.85 398.08H1434.95L1435.17 396.76H1437.35V409C1437.35 412.432 1435.29 414.328 1431.52 414.328ZM1431.9 406.552C1432.86 406.552 1433.75 406.048 1434.59 404.992V399.88C1433.75 399.04 1432.91 398.728 1432.02 398.728C1430.44 398.728 1429 400.264 1429 402.64C1429 405.064 1430.15 406.552 1431.9 406.552ZM1443.65 409V396.76H1445.91L1446.15 399.568H1446.22C1447.42 397.576 1449.2 396.448 1451.24 396.448C1452.2 396.448 1452.82 396.616 1453.54 396.952L1452.94 399.28C1452.17 399.016 1451.72 398.896 1450.81 398.896C1449.2 398.896 1447.61 399.784 1446.41 402.16V409H1443.65ZM1461.74 409.312C1459.46 409.312 1457.8 407.848 1457.8 405.736C1457.8 402.976 1460.13 401.632 1465.96 401.176C1465.87 399.76 1465.08 398.68 1463.13 398.68C1461.81 398.68 1460.61 399.304 1459.77 400L1458.76 398.176C1459.8 397.288 1461.62 396.448 1463.66 396.448C1466.92 396.448 1468.7 398.344 1468.7 401.704V409H1466.47L1466.25 407.464H1466.16C1464.91 408.448 1463.35 409.312 1461.74 409.312ZM1462.58 407.128C1463.76 407.128 1464.88 406.552 1465.96 405.592V402.904C1461.72 403.216 1460.47 404.152 1460.47 405.52C1460.47 406.648 1461.4 407.128 1462.58 407.128ZM1473.68 413.92V396.76H1475.94L1476.15 398.176H1476.23C1477.23 397.192 1478.65 396.448 1480.02 396.448C1483.07 396.448 1484.82 398.896 1484.82 402.688C1484.82 406.864 1482.32 409.312 1479.59 409.312C1478.51 409.312 1477.31 408.76 1476.35 407.824L1476.42 410.008V413.92H1473.68ZM1479.01 407.032C1480.71 407.032 1481.99 405.52 1481.99 402.712C1481.99 400.24 1481.15 398.728 1479.25 398.728C1478.34 398.728 1477.4 399.208 1476.42 400.264V405.856C1477.31 406.696 1478.31 407.032 1479.01 407.032ZM1489.27 409V391.6H1492.01V395.944L1491.87 398.608C1492.97 397.432 1494.29 396.448 1496.09 396.448C1498.8 396.448 1500.05 398.248 1500.05 401.416V409H1497.29V401.776C1497.29 399.76 1496.69 398.8 1495.08 398.8C1493.91 398.8 1493.11 399.424 1492.01 400.624V409H1489.27ZM1512.54 413.944V409.72L1512.66 407.632C1511.73 408.568 1510.48 409.312 1509.21 409.312C1506.16 409.312 1504.17 406.936 1504.17 402.88C1504.17 398.896 1506.69 396.448 1509.35 396.448C1510.74 396.448 1511.78 396.976 1512.81 398.08H1512.9L1513.12 396.76H1515.3V413.944H1512.54ZM1509.86 407.032C1510.84 407.032 1511.73 406.528 1512.54 405.496V399.88C1511.7 399.04 1510.86 398.728 1510.02 398.728C1508.37 398.728 1507 400.264 1507 402.856C1507 405.544 1508.06 407.032 1509.86 407.032ZM1528.09 409.312C1525.35 409.312 1523.91 407.584 1523.91 404.584V393.784H1520.19V391.6H1526.65V404.752C1526.65 406.408 1527.56 407.056 1528.76 407.056C1529.36 407.056 1529.98 406.912 1530.8 406.552L1531.45 408.592C1530.29 409 1529.45 409.312 1528.09 409.312Z" fill="#11181C"/>
</g>
<g filter="url(#filter8_d_407_7233)">
<rect x="57" y="585.792" width="1486" height="120" rx="21" fill="white" shape-rendering="crispEdges"/>
<rect x="57.5" y="586.292" width="1485" height="119" rx="20.5" stroke="#C1C8CD" shape-rendering="crispEdges"/>
<path d="M724.759 640.792V624.952H730.039C733.471 624.952 735.991 626.152 735.991 629.824C735.991 633.328 733.423 634.936 730.039 634.936H727.519V640.792H724.759ZM727.519 632.728H729.799C732.151 632.728 733.255 631.768 733.255 629.824C733.255 627.832 732.103 627.16 729.799 627.16H727.519V632.728ZM745.437 641.08C741.813 641.08 739.269 637.912 739.269 632.8C739.269 627.664 741.813 624.664 745.437 624.664C749.085 624.664 751.606 627.688 751.606 632.8C751.606 637.912 749.085 641.08 745.437 641.08ZM745.437 638.68C747.453 638.68 748.773 636.376 748.773 632.8C748.773 629.224 747.453 627.064 745.437 627.064C743.421 627.064 742.125 629.224 742.125 632.8C742.125 636.376 743.421 638.68 745.437 638.68ZM761.076 641.08C758.868 641.08 756.78 640.24 755.244 638.752L756.852 636.856C758.028 637.936 759.588 638.68 761.124 638.68C763.068 638.68 764.052 637.864 764.052 636.592C764.052 635.272 762.996 634.864 761.436 634.24L759.3 633.304C757.62 632.656 755.916 631.408 755.916 629.104C755.916 626.584 758.172 624.664 761.364 624.664C763.308 624.664 765.108 625.408 766.404 626.68L764.964 628.432C763.908 627.568 762.828 627.064 761.364 627.064C759.732 627.064 758.724 627.76 758.724 628.96C758.724 630.208 759.996 630.64 761.412 631.216L763.476 632.104C765.468 632.92 766.884 634.072 766.884 636.376C766.884 638.944 764.748 641.08 761.076 641.08ZM775.227 640.792V627.28H770.307V624.952H782.955V627.28H778.011V640.792H775.227ZM793.169 641.08C789.185 641.08 786.185 638.152 786.185 632.92C786.185 627.712 789.209 624.664 793.289 624.664C795.377 624.664 796.793 625.648 797.753 626.632L796.217 628.36C795.497 627.592 794.657 627.064 793.289 627.064C790.793 627.064 789.041 629.248 789.041 632.824C789.041 636.448 790.553 638.68 793.337 638.68C794.177 638.68 794.993 638.416 795.473 637.96V634.504H792.761V632.224H797.969V639.208C796.937 640.216 795.185 641.08 793.169 641.08ZM802.64 640.792V624.952H807.872C811.112 624.952 813.632 626.104 813.632 629.632C813.632 632.032 812.384 633.496 810.488 634.144L814.256 640.792H811.136L807.728 634.576H805.4V640.792H802.64ZM805.4 632.344H807.584C809.744 632.344 810.896 631.432 810.896 629.632C810.896 627.784 809.744 627.16 807.584 627.16H805.4V632.344ZM818.711 640.792V624.952H828.719V627.28H821.471V631.384H827.615V633.712H821.471V638.44H828.959V640.792H818.711ZM839.029 641.08C836.821 641.08 834.733 640.24 833.197 638.752L834.805 636.856C835.981 637.936 837.541 638.68 839.077 638.68C841.021 638.68 842.005 637.864 842.005 636.592C842.005 635.272 840.949 634.864 839.389 634.24L837.253 633.304C835.573 632.656 833.869 631.408 833.869 629.104C833.869 626.584 836.125 624.664 839.317 624.664C841.261 624.664 843.061 625.408 844.357 626.68L842.917 628.432C841.861 627.568 840.781 627.064 839.317 627.064C837.685 627.064 836.677 627.76 836.677 628.96C836.677 630.208 837.949 630.64 839.365 631.216L841.429 632.104C843.421 632.92 844.837 634.072 844.837 636.376C844.837 638.944 842.701 641.08 839.029 641.08ZM858.94 644.92C856.012 644.92 854.092 643.24 853.204 640.936C850.3 640.264 848.404 637.264 848.404 632.8C848.404 627.664 850.876 624.64 854.524 624.64C858.172 624.64 860.644 627.688 860.644 632.8C860.644 637.12 858.868 640.072 856.132 640.864C856.66 642.112 857.884 642.664 859.252 642.664C859.732 642.664 860.164 642.52 860.476 642.376L860.98 644.512C860.452 644.752 859.78 644.92 858.94 644.92ZM854.524 638.68C856.54 638.68 857.812 636.352 857.812 632.8C857.812 629.224 856.54 627.04 854.524 627.04C852.484 627.04 851.236 629.224 851.236 632.8C851.236 636.352 852.484 638.68 854.524 638.68ZM865.866 640.792V624.952H868.602V638.44H875.994V640.792H865.866ZM693.458 673.712V656.552H695.714L695.93 657.968H696.002C697.01 656.984 698.426 656.24 699.794 656.24C702.842 656.24 704.594 658.688 704.594 662.48C704.594 666.656 702.098 669.104 699.362 669.104C698.282 669.104 697.082 668.552 696.122 667.616L696.194 669.8V673.712H693.458ZM698.786 666.824C700.49 666.824 701.762 665.312 701.762 662.504C701.762 660.032 700.922 658.52 699.026 658.52C698.114 658.52 697.178 659 696.194 660.056V665.648C697.082 666.488 698.09 666.824 698.786 666.824ZM714.256 669.104C711.16 669.104 708.352 666.752 708.352 662.672C708.352 658.592 711.16 656.24 714.256 656.24C717.376 656.24 720.184 658.592 720.184 662.672C720.184 666.752 717.376 669.104 714.256 669.104ZM714.256 666.848C716.2 666.848 717.352 665.192 717.352 662.672C717.352 660.176 716.2 658.496 714.256 658.496C712.336 658.496 711.184 660.176 711.184 662.672C711.184 665.192 712.336 666.848 714.256 666.848ZM729.919 669.104C727.711 669.104 725.623 668.216 724.159 667.184L725.431 665.432C726.751 666.392 728.167 666.992 729.991 666.992C731.839 666.992 732.703 666.368 732.703 665.48C732.703 664.616 731.599 664.04 729.199 663.392C726.967 662.792 724.855 661.712 724.855 659.888C724.855 657.776 726.751 656.24 730.063 656.24C731.983 656.24 733.759 657.032 734.959 657.848L733.687 659.552C732.631 658.832 731.431 658.328 730.087 658.328C728.263 658.328 727.615 658.928 727.615 659.744C727.615 660.632 729.031 661.136 730.927 661.64C733.663 662.384 735.439 663.32 735.439 665.312C735.439 667.4 733.495 669.104 729.919 669.104ZM747.621 669.104C744.021 669.104 742.797 666.992 742.797 663.896V658.736H739.653V656.552H742.917V652.952L745.557 651.632V656.552H750.933V658.736H745.557V663.896C745.557 665.936 746.277 666.896 748.269 666.896C749.277 666.896 750.117 666.68 750.861 666.392L751.389 668.384C750.333 668.744 749.013 669.104 747.621 669.104ZM760.428 674.12C759.012 674.12 757.236 673.712 755.796 672.248L756.852 670.448C758.028 671.648 759.348 671.96 760.428 671.96C762.42 671.96 763.572 670.88 763.596 668.984L763.644 666.992C762.78 667.904 761.436 668.576 760.14 668.576C757.14 668.576 755.124 666.176 755.124 662.48C755.124 658.664 757.572 656.24 760.356 656.24C761.676 656.24 762.804 656.816 763.764 657.872H763.86L764.076 656.552H766.26V668.792C766.26 672.224 764.196 674.12 760.428 674.12ZM760.812 666.344C761.772 666.344 762.66 665.84 763.5 664.784V659.672C762.66 658.832 761.82 658.52 760.932 658.52C759.348 658.52 757.908 660.056 757.908 662.432C757.908 664.856 759.06 666.344 760.812 666.344ZM772.563 668.792V656.552H774.819L775.059 659.36H775.131C776.331 657.368 778.107 656.24 780.147 656.24C781.107 656.24 781.731 656.408 782.451 656.744L781.851 659.072C781.083 658.808 780.627 658.688 779.715 658.688C778.107 658.688 776.523 659.576 775.323 661.952V668.792H772.563ZM792.929 669.104C789.353 669.104 786.497 666.704 786.497 662.672C786.497 658.688 789.473 656.24 792.569 656.24C796.073 656.24 798.017 658.664 798.017 662.048C798.017 662.576 797.945 663.104 797.897 663.416H789.329C789.497 665.672 791.153 666.944 793.289 666.944C794.513 666.944 795.545 666.584 796.601 665.936L797.537 667.664C796.289 668.48 794.657 669.104 792.929 669.104ZM789.305 661.52H795.497C795.497 659.552 794.489 658.376 792.617 658.376C791.033 658.376 789.617 659.48 789.305 661.52ZM807.872 669.104C805.664 669.104 803.576 668.216 802.112 667.184L803.384 665.432C804.704 666.392 806.12 666.992 807.944 666.992C809.792 666.992 810.656 666.368 810.656 665.48C810.656 664.616 809.552 664.04 807.152 663.392C804.92 662.792 802.808 661.712 802.808 659.888C802.808 657.776 804.704 656.24 808.016 656.24C809.936 656.24 811.712 657.032 812.912 657.848L811.64 659.552C810.584 658.832 809.384 658.328 808.04 658.328C806.216 658.328 805.568 658.928 805.568 659.744C805.568 660.632 806.984 661.136 808.88 661.64C811.616 662.384 813.392 663.32 813.392 665.312C813.392 667.4 811.448 669.104 807.872 669.104ZM825.863 673.736V669.512L825.983 667.424C825.047 668.36 823.799 669.104 822.527 669.104C819.479 669.104 817.487 666.728 817.487 662.672C817.487 658.688 820.007 656.24 822.671 656.24C824.063 656.24 825.095 656.768 826.127 657.872H826.223L826.439 656.552H828.623V673.736H825.863ZM823.175 666.824C824.159 666.824 825.047 666.32 825.863 665.288V659.672C825.023 658.832 824.183 658.52 823.343 658.52C821.687 658.52 820.319 660.056 820.319 662.648C820.319 665.336 821.375 666.824 823.175 666.824ZM841.405 669.104C838.669 669.104 837.229 667.376 837.229 664.376V653.576H833.509V651.392H839.965V664.544C839.965 666.2 840.877 666.848 842.077 666.848C842.677 666.848 843.301 666.704 844.117 666.344L844.765 668.384C843.613 668.792 842.773 669.104 841.405 669.104ZM854.572 669.08C853.204 669.08 852.22 668.048 852.22 666.656C852.22 665.264 853.204 664.232 854.572 664.232C855.94 664.232 856.948 665.264 856.948 666.656C856.948 668.048 855.94 669.08 854.572 669.08ZM870.162 669.104C867.066 669.104 864.258 666.752 864.258 662.672C864.258 658.592 867.066 656.24 870.162 656.24C873.282 656.24 876.09 658.592 876.09 662.672C876.09 666.752 873.282 669.104 870.162 669.104ZM870.162 666.848C872.106 666.848 873.258 665.192 873.258 662.672C873.258 660.176 872.106 658.496 870.162 658.496C868.242 658.496 867.09 660.176 867.09 662.672C867.09 665.192 868.242 666.848 870.162 666.848ZM881.697 668.792V656.552H883.953L884.193 659.36H884.265C885.465 657.368 887.241 656.24 889.281 656.24C890.241 656.24 890.865 656.408 891.585 656.744L890.985 659.072C890.217 658.808 889.761 658.688 888.849 658.688C887.241 658.688 885.657 659.576 884.457 661.952V668.792H881.697ZM900.744 674.12C899.328 674.12 897.552 673.712 896.112 672.248L897.168 670.448C898.344 671.648 899.664 671.96 900.744 671.96C902.736 671.96 903.888 670.88 903.912 668.984L903.96 666.992C903.096 667.904 901.752 668.576 900.456 668.576C897.456 668.576 895.44 666.176 895.44 662.48C895.44 658.664 897.888 656.24 900.672 656.24C901.992 656.24 903.12 656.816 904.08 657.872H904.176L904.392 656.552H906.576V668.792C906.576 672.224 904.512 674.12 900.744 674.12ZM901.128 666.344C902.088 666.344 902.976 665.84 903.816 664.784V659.672C902.976 658.832 902.136 658.52 901.248 658.52C899.664 658.52 898.224 660.056 898.224 662.432C898.224 664.856 899.376 666.344 901.128 666.344Z" fill="#11181C"/>
</g>
<defs>
<filter id="filter0_d_407_7233" x="53" y="61" width="1494" height="128" filterUnits="userSpaceOnUse" color-interpolation-filters="sRGB">
<feFlood flood-opacity="0" result="BackgroundImageFix"/>
<feColorMatrix in="SourceAlpha" type="matrix" values="0 0 0 0 0 0 0 0 0 0 0 0 0 0 0 0 0 0 127 0" result="hardAlpha"/>
<feOffset dy="4"/>
<feGaussianBlur stdDeviation="2"/>
<feComposite in2="hardAlpha" operator="out"/>
<feColorMatrix type="matrix" values="0 0 0 0 0 0 0 0 0 0 0 0 0 0 0 0 0 0 0.03 0"/>
<feBlend mode="normal" in2="BackgroundImageFix" result="effect1_dropShadow_407_7233"/>
<feBlend mode="normal" in="SourceGraphic" in2="effect1_dropShadow_407_7233" result="shape"/>
</filter>
<filter id="filter1_d_407_7233" x="53" y="354" width="165" height="100" filterUnits="userSpaceOnUse" color-interpolation-filters="sRGB">
<feFlood flood-opacity="0" result="BackgroundImageFix"/>
<feColorMatrix in="SourceAlpha" type="matrix" values="0 0 0 0 0 0 0 0 0 0 0 0 0 0 0 0 0 0 127 0" result="hardAlpha"/>
<feOffset dy="4"/>
<feGaussianBlur stdDeviation="2"/>
<feComposite in2="hardAlpha" operator="out"/>
<feColorMatrix type="matrix" values="0 0 0 0 0 0 0 0 0 0 0 0 0 0 0 0 0 0 0.03 0"/>
<feBlend mode="normal" in2="BackgroundImageFix" result="effect1_dropShadow_407_7233"/>
<feBlend mode="normal" in="SourceGraphic" in2="effect1_dropShadow_407_7233" result="shape"/>
</filter>
<filter id="filter2_d_407_7233" x="258" y="354" width="212" height="100" filterUnits="userSpaceOnUse" color-interpolation-filters="sRGB">
<feFlood flood-opacity="0" result="BackgroundImageFix"/>
<feColorMatrix in="SourceAlpha" type="matrix" values="0 0 0 0 0 0 0 0 0 0 0 0 0 0 0 0 0 0 127 0" result="hardAlpha"/>
<feOffset dy="4"/>
<feGaussianBlur stdDeviation="2"/>
<feComposite in2="hardAlpha" operator="out"/>
<feColorMatrix type="matrix" values="0 0 0 0 0 0 0 0 0 0 0 0 0 0 0 0 0 0 0.03 0"/>
<feBlend mode="normal" in2="BackgroundImageFix" result="effect1_dropShadow_407_7233"/>
<feBlend mode="normal" in="SourceGraphic" in2="effect1_dropShadow_407_7233" result="shape"/>
</filter>
<filter id="filter3_d_407_7233" x="484" y="354" width="196" height="100" filterUnits="userSpaceOnUse" color-interpolation-filters="sRGB">
<feFlood flood-opacity="0" result="BackgroundImageFix"/>
<feColorMatrix in="SourceAlpha" type="matrix" values="0 0 0 0 0 0 0 0 0 0 0 0 0 0 0 0 0 0 127 0" result="hardAlpha"/>
<feOffset dy="4"/>
<feGaussianBlur stdDeviation="2"/>
<feComposite in2="hardAlpha" operator="out"/>
<feColorMatrix type="matrix" values="0 0 0 0 0 0 0 0 0 0 0 0 0 0 0 0 0 0 0.03 0"/>
<feBlend mode="normal" in2="BackgroundImageFix" result="effect1_dropShadow_407_7233"/>
<feBlend mode="normal" in="SourceGraphic" in2="effect1_dropShadow_407_7233" result="shape"/>
</filter>
<filter id="filter4_d_407_7233" x="705.5" y="354" width="180" height="100" filterUnits="userSpaceOnUse" color-interpolation-filters="sRGB">
<feFlood flood-opacity="0" result="BackgroundImageFix"/>
<feColorMatrix in="SourceAlpha" type="matrix" values="0 0 0 0 0 0 0 0 0 0 0 0 0 0 0 0 0 0 127 0" result="hardAlpha"/>
<feOffset dy="4"/>
<feGaussianBlur stdDeviation="2"/>
<feComposite in2="hardAlpha" operator="out"/>
<feColorMatrix type="matrix" values="0 0 0 0 0 0 0 0 0 0 0 0 0 0 0 0 0 0 0.03 0"/>
<feBlend mode="normal" in2="BackgroundImageFix" result="effect1_dropShadow_407_7233"/>
<feBlend mode="normal" in="SourceGraphic" in2="effect1_dropShadow_407_7233" result="shape"/>
</filter>
<filter id="filter5_d_407_7233" x="925.5" y="354" width="180" height="100" filterUnits="userSpaceOnUse" color-interpolation-filters="sRGB">
<feFlood flood-opacity="0" result="BackgroundImageFix"/>
<feColorMatrix in="SourceAlpha" type="matrix" values="0 0 0 0 0 0 0 0 0 0 0 0 0 0 0 0 0 0 127 0" result="hardAlpha"/>
<feOffset dy="4"/>
<feGaussianBlur stdDeviation="2"/>
<feComposite in2="hardAlpha" operator="out"/>
<feColorMatrix type="matrix" values="0 0 0 0 0 0 0 0 0 0 0 0 0 0 0 0 0 0 0.03 0"/>
<feBlend mode="normal" in2="BackgroundImageFix" result="effect1_dropShadow_407_7233"/>
<feBlend mode="normal" in="SourceGraphic" in2="effect1_dropShadow_407_7233" result="shape"/>
</filter>
<filter id="filter6_d_407_7233" x="1129.5" y="354" width="212" height="100" filterUnits="userSpaceOnUse" color-interpolation-filters="sRGB">
<feFlood flood-opacity="0" result="BackgroundImageFix"/>
<feColorMatrix in="SourceAlpha" type="matrix" values="0 0 0 0 0 0 0 0 0 0 0 0 0 0 0 0 0 0 127 0" result="hardAlpha"/>
<feOffset dy="4"/>
<feGaussianBlur stdDeviation="2"/>
<feComposite in2="hardAlpha" operator="out"/>
<feColorMatrix type="matrix" values="0 0 0 0 0 0 0 0 0 0 0 0 0 0 0 0 0 0 0.03 0"/>
<feBlend mode="normal" in2="BackgroundImageFix" result="effect1_dropShadow_407_7233"/>
<feBlend mode="normal" in="SourceGraphic" in2="effect1_dropShadow_407_7233" result="shape"/>
</filter>
<filter id="filter7_d_407_7233" x="1342" y="354" width="227" height="100" filterUnits="userSpaceOnUse" color-interpolation-filters="sRGB">
<feFlood flood-opacity="0" result="BackgroundImageFix"/>
<feColorMatrix in="SourceAlpha" type="matrix" values="0 0 0 0 0 0 0 0 0 0 0 0 0 0 0 0 0 0 127 0" result="hardAlpha"/>
<feOffset dy="4"/>
<feGaussianBlur stdDeviation="2"/>
<feComposite in2="hardAlpha" operator="out"/>
<feColorMatrix type="matrix" values="0 0 0 0 0 0 0 0 0 0 0 0 0 0 0 0 0 0 0.03 0"/>
<feBlend mode="normal" in2="BackgroundImageFix" result="effect1_dropShadow_407_7233"/>
<feBlend mode="normal" in="SourceGraphic" in2="effect1_dropShadow_407_7233" result="shape"/>
</filter>
<filter id="filter8_d_407_7233" x="53" y="585.792" width="1494" height="128" filterUnits="userSpaceOnUse" color-interpolation-filters="sRGB">
<feFlood flood-opacity="0" result="BackgroundImageFix"/>
<feColorMatrix in="SourceAlpha" type="matrix" values="0 0 0 0 0 0 0 0 0 0 0 0 0 0 0 0 0 0 127 0" result="hardAlpha"/>
<feOffset dy="4"/>
<feGaussianBlur stdDeviation="2"/>
<feComposite in2="hardAlpha" operator="out"/>
<feColorMatrix type="matrix" values="0 0 0 0 0 0 0 0 0 0 0 0 0 0 0 0 0 0 0.03 0"/>
<feBlend mode="normal" in2="BackgroundImageFix" result="effect1_dropShadow_407_7233"/>
<feBlend mode="normal" in="SourceGraphic" in2="effect1_dropShadow_407_7233" result="shape"/>
</filter>
</defs>
</svg>
