{
  "asset": {
    "version": "2.0",
    "generator": "THREE.GLTFExporter"
  },
  "scenes": [
    {
      "nodes": [
        0
      ]
    }
  ],
  "scene": 0,
  "nodes": [
    {
      "children": [
        6
      ],
      "matrix": [
        0.01,
        0,
        0,
        0,
        0,
        0.01,
        0,
        0,
        0,
        0,
        0.01,
        0,
        0,
        0,
        0,
        1
      ]
    },
    {
      "matrix": [
        1,
        0,
        0,
        0,
        0,
        1,
        0,
        0,
        0,
        0,
        1,
        0,
        0,
        0,
        1,
        1
      ],
      "name": "Goszczu Text",
      "mesh": 0
    },
    {
      "name": "Goszczu Rectangle",
      "mesh": 1
    },
    {
      "name": "Goszczu Parent",
      "children": [
        1,
        2
      ]
    },
    {
      "matrix": [
        1,
        0,
        0,
        0,
        0,
        1,
        -6.123233995736766e-17,
        0,
        0,
        6.123233995736766e-17,
        1,
        0,
        0,
        6.123233995736766e-14,
        1000,
        1
      ],
      "camera": 0
    },
    {
      "matrix": [
        1,
        0,
        0,
        0,
        0,
        1,
        0,
        0,
        0,
        0,
        1,
        0,
        0,
        1,
        0,
        1
      ],
      "name": "Default Ambient Light"
    },
    {
      "name": "Scene 1",
      "children": [
        3,
        4,
        5
      ]
    }
  ],
  "bufferViews": [
    {
      "buffer": 0,
      "byteOffset": 0,
      "byteLength": 1920,
      "target": 34962,
      "byteStride": 12
    },
    {
      "buffer": 0,
      "byteOffset": 1920,
      "byteLength": 1920,
      "target": 34962,
      "byteStride": 12
    },
    {
      "buffer": 0,
      "byteOffset": 3840,
      "byteLength": 1280,
      "target": 34962,
      "byteStride": 8
    },
    {
      "buffer": 0,
      "byteOffset": 5120,
      "byteLength": 852,
      "target": 34963
    },
    {
      "buffer": 0,
      "byteOffset": 5972,
      "byteLength": 48,
      "target": 34962,
      "byteStride": 12
    },
    {
      "buffer": 0,
      "byteOffset": 6020,
      "byteLength": 48,
      "target": 34962,
      "byteStride": 12
    },
    {
      "buffer": 0,
      "byteOffset": 6068,
      "byteLength": 32,
      "target": 34962,
      "byteStride": 8
    },
    {
      "buffer": 0,
      "byteOffset": 6100,
      "byteLength": 24,
      "target": 34963
    }
  ],
  "buffers": [
    {
      "byteLength": 6124,
      "uri": "data:application/octet-stream;base64,"
    }
  ],
  "accessors": [
    {
      "bufferView": 0,
      "componentType": 5126,
      "count": 160,
      "max": [
        71.21400451660156,
        81.43899536132812,
        0
      ],
      "min": [
        -147.44700622558594,
        -49.03999328613281,
        0
      ],
      "type": "VEC3"
    },
    {
      "bufferView": 1,
      "componentType": 5126,
      "count": 160,
      "max": [
        0,
        0,
        1
      ],
      "min": [
        0,
        0,
        1
      ],
      "type": "VEC3"
    },
    {
      "bufferView": 2,
      "componentType": 5126,
      "count": 160,
      "max": [
        1,
        1
      ],
      "min": [
        0,
        0
      ],
      "type": "VEC2"
    },
    {
      "bufferView": 3,
      "componentType": 5123,
      "count": 426,
      "max": [
        159
      ],
      "min": [
        0
      ],
      "type": "SCALAR"
    },
    {
      "bufferView": 4,
      "componentType": 5126,
      "count": 4,
      "max": [
        500,
        250,
        0
      ],
      "min": [
        -500,
        -250,
        0
      ],
      "type": "VEC3"
    },
    {
      "bufferView": 5,
      "componentType": 5126,
      "count": 4,
      "max": [
        0,
        0,
        1
      ],
      "min": [
        0,
        0,
        1
      ],
      "type": "VEC3"
    },
    {
      "bufferView": 6,
      "componentType": 5126,
      "count": 4,
      "max": [
        1,
        1
      ],
      "min": [
        0,
        0
      ],
      "type": "VEC2"
    },
    {
      "bufferView": 7,
      "componentType": 5125,
      "count": 6,
      "max": [
        3
      ],
      "min": [
        0
      ],
      "type": "SCALAR"
    }
  ],
  "meshes": [
    {
      "primitives": [
        {
          "mode": 4,
          "attributes": {
            "POSITION": 0,
            "NORMAL": 1,
            "TEXCOORD_0": 2
          },
          "extras": {
            "parameters": {
              "type": "TextGeometry",
              "width": 300,
              "height": 200,
              "depth": 0,
              "horizontalAlign": 1,
              "verticalAlign": 1,
              "fontSize": 69,
              "lineHeight": 1.2,
              "letterSpacing": 0,
              "text": {
                "textValue": "String value"
              },
              "textTransform": 2,
              "font": "22f65959-ceca-4326-b642-e764de5a1a2d",
              "editable": false,
              "extrudeBevelSize": 0,
              "extrudeBevelSegments": 1
            },
            "type": "TextGeometry"
          },
          "indices": 3
        }
      ]
    },
    {
      "primitives": [
        {
          "mode": 4,
          "attributes": {
            "POSITION": 4,
            "NORMAL": 5,
            "TEXCOORD_0": 6
          },
          "extras": {
            "shape": {
              "points": [
                -500,
                250,
                -500,
                250,
                -500,
                250,
                0,
                500,
                250,
                500,
                250,
                500,
                250,
                0,
                500,
                -250,
                500,
                -250,
                500,
                -250,
                0,
                -500,
                -250,
                -500,
                -250,
                -500,
                -250,
                0
              ],
              "shapeHoles": [],
              "isClosed": true,
              "roundness": 0
            },
            "parameters": {
              "width": 1000,
              "depth": 0,
              "cornerRadius": [
                0,
                0,
                0,
                0
              ],
              "cornerType": 1,
              "extrudeBevelSize": 0,
              "extrudeBevelSegments": 1,
              "height": 500,
              "type": "RectangleGeometry"
            },
            "ui": {
              "enabledIndieCorners": false
            },
            "type": "RectangleGeometry"
          },
          "indices": 7
        }
      ]
    }
  ],
  "cameras": [
    {
      "type": "orthographic",
      "orthographic": {
        "xmag": 11.395488657638271,
        "ymag": 6.345900429716551,
        "zfar": 100000,
        "znear": 0
      }
    }
  ]
}