<svg xmlns="http://www.w3.org/2000/svg" width="16" height="17" fill="none">
  <g fill="#EDEDED" clip-path="url(#a)">
    <path d="m13.606 1.282-4.732.005-7.63 7.47 2.354 2.307 2.07-2.014 7.938-7.768ZM9.01 8.173c-.067-.003-.136-.006-.18.05l-4.069 3.982 2.337 2.274-.002.003 1.672 1.639.033.03c.046.046.095.094.166.078.773-.002 1.545-.001 2.318-.001l2.319-.001-4.114-4.03 4.112-4.023-4.512-.002a.505.505 0 0 1-.08 0Z"/>
  </g>
  <defs>
    <clipPath id="a">
      <path fill="#fff" d="M0 .856h16v15.803H0z"/>
    </clipPath>
  </defs>
</svg>
