<svg xmlns="http://www.w3.org/2000/svg" width="16" height="16" fill="none">
  <path fill="#EDEDED" fill-rule="evenodd" d="M2.5 3A1.5 1.5 0 0 1 4 1.5h8A1.5 1.5 0 0 1 13.5 3v2c0 .532-.278 1-.697 1.266v3.468A1.5 1.5 0 0 1 13.5 11v2a1.5 1.5 0 0 1-1.5 1.5H4A1.5 1.5 0 0 1 2.5 13v-2a1.5 1.5 0 0 1 .712-1.277V6.276A1.499 1.499 0 0 1 2.5 4.999V3Zm9.516 2.499H3.984a.5.5 0 0 1-.484-.5V3a.5.5 0 0 1 .5-.5h8a.5.5 0 0 1 .5.5v2a.5.5 0 0 1-.484.5Zm-7.804 1v3h7.591v-3H4.212ZM4 10.501a.5.5 0 0 0-.5.5v2a.5.5 0 0 0 .5.5h8a.5.5 0 0 0 .5-.5v-2a.5.5 0 0 0-.5-.5H4Z" clip-rule="evenodd"/>
</svg>
