<svg xmlns="http://www.w3.org/2000/svg" width="16" height="17" fill="none">
  <path fill="#171717" fill-rule="evenodd" d="M8.278 3.333a.5.5 0 0 0-.573-.001l-3.99 2.774a.5.5 0 0 0-.215.41v5.816a1.5 1.5 0 0 0 1.5 1.5h.389V9.5a1.5 1.5 0 0 1 1.5-1.5H9.11a1.5 1.5 0 0 1 1.5 1.5v4.332H11a1.5 1.5 0 0 0 1.5-1.5V6.56a.5.5 0 0 0-.213-.41L8.278 3.334Zm1.84 11.498H11a2.5 2.5 0 0 0 2.5-2.5V6.56a1.5 1.5 0 0 0-.637-1.228l-4.01-2.817a1.5 1.5 0 0 0-1.718-.004L3.144 5.285A1.5 1.5 0 0 0 2.5 6.517v5.814a2.5 2.5 0 0 0 2.5 2.5h.882a.15.15 0 0 0 .007 0h4.229Zm-.507-1V9.5a.5.5 0 0 0-.5-.5H6.89a.5.5 0 0 0-.5.5v4.332h3.22Z" clip-rule="evenodd"/>
</svg>
