<svg xmlns="http://www.w3.org/2000/svg" width="16" height="17" fill="none">
  <path fill="#EDEDED" fill-rule="evenodd" d="M5.856 1.578a.5.5 0 0 1 .5.5v2.494a.5.5 0 0 1-1 0V2.078a.5.5 0 0 1 .5-.5Zm-4.345.439a.5.5 0 0 1 .707.01L4.35 4.224a.5.5 0 0 1-.718.696l-2.13-2.196a.5.5 0 0 1 .01-.707ZM5.107 6.99c-.365-.834.485-1.683 1.319-1.316l7.93 3.487c.872.384.764 1.655-.162 1.886l-3.038.756-.74 2.868c-.238.92-1.504 1.02-1.885.15l-3.424-7.83Zm8.846 3.086L6.023 6.59l3.424 7.832.815-3.156a.5.5 0 0 1 .364-.36l3.327-.829ZM1.046 6.297a.5.5 0 0 1 .5-.5H3.99a.5.5 0 1 1 0 1H1.546a.5.5 0 0 1-.5-.5Z" clip-rule="evenodd"/>
</svg>
