<svg xmlns="http://www.w3.org/2000/svg" width="16" height="16" fill="none">
  <path fill="#EDEDED" fill-rule="evenodd" d="M5.5 3a2.5 2.5 0 0 1 5 0v1.5A2.5 2.5 0 0 1 12.973 7v5a2.5 2.5 0 0 1-2.5 2.5h-5a2.5 2.5 0 0 1-2.5-2.5V7a2.5 2.5 0 0 1 2.5-2.5H5.5V3Zm-.027 2.5a1.5 1.5 0 0 0-1.5 1.5v.475h4.521a.5.5 0 0 1 .5.5v4a.5.5 0 0 1-.5.5H4.05A1.5 1.5 0 0 0 5.473 13.5h5a1.5 1.5 0 0 0 1.5-1.5V7a1.5 1.5 0 0 0-1.5-1.5h-5Zm4.027-1h-3V3a1.5 1.5 0 1 1 3 0v1.5Zm-5.506 6.975h4v-1h-4v1Zm0-2h4v-1h-4v1Z" clip-rule="evenodd"/>
</svg>
