<svg xmlns="http://www.w3.org/2000/svg" width="17" height="17" fill="none">
  <g clip-path="url(#a)">
    <path fill="#EDEDED" fill-rule="evenodd" d="M.637 1.06h15.392v15.393H.637V1.061Zm11.767 12.905c-.714 0-1.117-.372-1.427-.878l-1.176.682c.425.84 1.293 1.48 2.636 1.48 1.374 0 2.397-.714 2.397-2.016 0-1.208-.694-1.745-1.923-2.272l-.361-.155c-.621-.269-.89-.445-.89-.879 0-.35.269-.62.692-.62.416 0 .683.176.931.62l1.127-.723c-.477-.838-1.138-1.158-2.058-1.158-1.291 0-2.118.826-2.118 1.91 0 1.178.694 1.736 1.737 2.18l.362.155c.66.289 1.053.464 1.053.96 0 .414-.383.714-.982.714Zm-5.606-.01c-.497 0-.704-.34-.93-.743l-1.178.713c.34.722 1.012 1.32 2.17 1.32 1.281 0 2.16-.68 2.16-2.178V8.128H7.573v4.918c0 .723-.3.909-.775.909Z" clip-rule="evenodd"/>
  </g>
  <defs>
    <clipPath id="a">
      <path fill="#fff" d="M.333.856h16v15.803h-16z"/>
    </clipPath>
  </defs>
</svg>
