<svg xmlns="http://www.w3.org/2000/svg" width="17" height="16" fill="none">
  <g clip-path="url(#a)">
    <path fill="#171717" fill-rule="evenodd" d="M16.08 4.235v7.516c0 .337-.03.66-.088.982a3.034 3.034 0 0 1-.324.925c-.161.28-.352.547-.602.786-.235.238-.514.42-.823.575a3.383 3.383 0 0 1-.97.308c-.332.056-.68.07-1.013.084H4.356c-.352 0-.69-.028-1.028-.084a3.384 3.384 0 0 1-.97-.308 3.58 3.58 0 0 1-.822-.575 2.93 2.93 0 0 1-.603-.786 3.033 3.033 0 0 1-.323-.925 7.28 7.28 0 0 1-.088-.968V4.22c.015-.337.03-.66.088-.982.059-.322.162-.631.323-.926.162-.28.353-.546.603-.785.029-.028.062-.056.095-.084.033-.028.066-.056.095-.084.206-.154.412-.295.647-.407.037-.012.077-.03.117-.048.04-.017.081-.035.118-.049.235-.084.485-.154.735-.196.242-.041.5-.056.743-.07h.02c.074-.014.162-.014.25-.014h7.89c.352 0 .69.028 1.028.084.338.056.66.154.97.308.293.154.572.337.822.575.25.225.44.491.602.786.162.294.265.603.324.925.058.318.073.65.087.968v.014Zm-3.203 5.343-.044.168c1.352 1.57.984 3.253.779 2.959-.706-1.29-1.998-.968-2.66-.645a1.08 1.08 0 0 0-.088.049 1.09 1.09 0 0 1-.088.049c0 .014-.014.014-.014.014-1.367.701-3.218.743-5.069-.014-1.557-.645-2.835-1.739-3.658-3.001.426.294.881.56 1.366.771 1.954.884 3.923.814 5.319 0C6.736 8.47 5.076 6.577 3.813 5.034a7.369 7.369 0 0 1-.647-.855c1.528 1.318 3.923 2.987 4.79 3.45-1.822-1.838-3.438-4.11-3.365-4.04 2.88 2.763 5.539 4.334 5.539 4.334.103.042.176.084.235.126.059-.14.103-.28.147-.42.455-1.6-.059-3.436-1.234-4.95 2.674 1.528 4.246 4.445 3.6 6.899Z" clip-rule="evenodd"/>
  </g>
  <defs>
    <clipPath id="a">
      <path fill="#fff" d="M.286.099h16v15.803h-16z"/>
    </clipPath>
  </defs>
</svg>
