<svg xmlns="http://www.w3.org/2000/svg" width="17" height="16" fill="none" viewBox="-5 -2 60 66">
  <g fill="#EDEDED" fill-rule="evenodd">
    <path d="M34.034.161c-4.65 1.648-9.139 6.459-13.466 14.431-6.49 11.96-14.874 28.954-3.33 42.41 5.34 6.224 14.158 9.898 25.73 4.08 9.297-4.675 11.883-18.09 8.545-24.393-6.885-13.003-13.87-16.21-15.74-24.274-1.247-5.376-1.827-9.46-1.74-12.254z"/>
    <path d="M34.034 0c-4.674 1.665-9.162 6.476-13.466 14.431-6.455 11.934-14.874 28.954-3.33 42.41 5.34 6.224 14.045 8.235 18.875 4.544 3.149-2.407 5.29-4.701 6.524-9.535 1.374-5.382.32-12.629-.403-15.957-.914-4.213-1.213-8.836-.897-13.87a194.52 194.52 0 0 1-.25-.304c-2.514-3.078-4.454-5.758-5.314-9.465-1.247-5.376-1.827-9.46-1.74-12.254z"/>
    <path d="M30.164 2.094c-4.353 3.44-7.59 9.21-9.71 17.31-3.18 12.151-3.524 23.356-2.402 29.874 2.174 12.634 13.446 17.43 25.007 11.55 7.115-3.62 10.079-11.388 9.922-19.82-.163-8.732-17.035-18.627-20.023-25.913-1.992-4.858-2.923-9.192-2.794-13.001z"/>
    <path d="M24.729 59.938c3.986.57 6.071 1.076 6.254 1.52.274.664-.505 1.272-2.718.863-1.475-.272-2.654-1.067-3.536-2.383z"/>
  </g>
</svg>
