<svg xmlns="http://www.w3.org/2000/svg" width="17" height="16" fill="none">
  <path fill="#171717" fill-rule="evenodd" d="M1.77 10.898a7 7 0 0 1 9.283-9.267 2.5 2.5 0 0 1 3.458 3.456A7 7 0 0 1 5.2 14.352a2.5 2.5 0 0 1-3.429-3.454ZM2.146 8a6 6 0 0 1 8.151-5.603 2.488 2.488 0 0 0-.382 1.464 4.5 4.5 0 0 0-5.929 5.86 2.489 2.489 0 0 0-1.455.401A5.985 5.985 0 0 1 2.146 8Zm3.834 5.598a6 6 0 0 0 7.767-7.753 2.488 2.488 0 0 1-1.464.382 4.5 4.5 0 0 1-5.89 5.918v.076c0 .508-.151.982-.413 1.377Zm4.932-9.867a1.5 1.5 0 1 1 3 0 1.5 1.5 0 0 1-3 0ZM5.55 10.348c.08.072.157.149.229.23a3.5 3.5 0 1 0-.23-.23Zm-1.656.373c.364 0 .699.13.959.346.065.07.132.137.2.203a1.5 1.5 0 1 1-1.16-.55Z" clip-rule="evenodd"/>
</svg>
