<svg xmlns="http://www.w3.org/2000/svg" width="16" height="17" fill="none">
  <path fill="#171717" fill-rule="evenodd" d="M8.906 3.113v2.085a1.5 1.5 0 0 0 1.5 1.5h2.12v.924H6.82a.5.5 0 0 1-.35-.144l-.95-.934a1.5 1.5 0 0 0-1.052-.431h-.942v-2.5a.5.5 0 0 1 .5-.5h4.88Zm.583-.993a.5.5 0 0 0-.099-.007H4.026a1.5 1.5 0 0 0-1.5 1.5V6.19A1.5 1.5 0 0 0 1.5 7.613v5a2.5 2.5 0 0 0 2.5 2.5h8a2.5 2.5 0 0 0 2.5-2.5V9.122a1.5 1.5 0 0 0-.974-1.405V6.214a.5.5 0 0 0-.147-.354L9.76 2.259a.5.5 0 0 0-.272-.14ZM3 7.113a.5.5 0 0 0-.5.5v5a1.5 1.5 0 0 0 1.5 1.5h8a1.5 1.5 0 0 0 1.5-1.5V9.122a.5.5 0 0 0-.5-.5H6.82a1.5 1.5 0 0 1-1.052-.431l-.95-.935a.5.5 0 0 0-.35-.143H3ZM9.906 3.82v1.378a.5.5 0 0 0 .5.5h1.378L9.906 3.82Z" clip-rule="evenodd"/>
</svg>
