<svg xmlns="http://www.w3.org/2000/svg" width="17" height="17" fill="none">
  <g fill="#EDEDED" fill-rule="evenodd" clip-path="url(#a)" clip-rule="evenodd">
    <path d="M6.735.864A10.967 10.967 0 0 1 8.57.707a11.98 11.98 0 0 1 2.001.157c1.043.174 1.92.956 1.92 1.996v3.658c0 1.072-.852 1.952-1.92 1.952H6.735c-1.303 0-2.4 1.118-2.4 2.386v1.755h-1.32c-1.117 0-1.769-.81-2.042-1.948-.368-1.527-.352-2.44 0-3.903.306-1.277 1.284-1.948 2.4-1.948h5.282v-.488h-3.84V2.86c0-1.108.294-1.709 1.92-1.996Zm.479 1.755a.729.729 0 0 0-.72-.734c-.4 0-.722.329-.722.734 0 .403.323.73.721.73.397 0 .72-.327.72-.73Z"/>
    <path d="M12.97 6.518V4.812h1.442c1.118 0 1.645.836 1.92 1.948.385 1.543.402 2.7 0 3.903-.388 1.169-.804 1.948-1.92 1.948H8.655v.487h3.837v1.464c0 1.109-.954 1.672-1.92 1.952-1.455.422-2.621.358-3.837 0-1.016-.299-1.92-.91-1.92-1.952v-3.657c0-1.052.869-1.952 1.92-1.952h3.836c1.279 0 2.4-1.113 2.4-2.435Zm-1.436 8.286a.725.725 0 0 0-.721-.73.726.726 0 0 0-.72.73c0 .405.323.734.72.734.398 0 .72-.329.72-.734Z"/>
  </g>
  <defs>
    <clipPath id="a">
      <path fill="#fff" d="M.665.757h16v16h-16z"/>
    </clipPath>
  </defs>
</svg>
