<svg xmlns="http://www.w3.org/2000/svg" width="17" height="16" fill="none">
  <g fill="#EDEDED" clip-path="url(#a)">
    <path d="M13.938.525 9.206.53 1.576 8l2.354 2.307L6 8.293 13.937.525ZM9.342 7.416c-.067-.003-.136-.006-.18.05l-4.069 3.982 2.337 2.274-.002.003L9.1 15.364l.033.03c.046.046.095.094.166.078a895.51 895.51 0 0 1 2.318-.001l2.319-.001-4.114-4.03 4.112-4.023-4.512-.002a.505.505 0 0 1-.08 0Z"/>
  </g>
  <defs>
    <clipPath id="a">
      <path fill="#fff" d="M.332.099h16v15.803h-16z"/>
    </clipPath>
  </defs>
</svg>
