<svg xmlns="http://www.w3.org/2000/svg" width="17" height="16" fill="none">
  <g clip-path="url(#a)">
    <path fill="#EDEDED" fill-rule="evenodd" d="M16.366 4.235v7.516c0 .337-.03.66-.088.982a3.034 3.034 0 0 1-.323.925c-.162.28-.353.547-.603.786-.235.238-.514.42-.822.575a3.385 3.385 0 0 1-.97.308c-.333.056-.68.07-1.014.084H4.642c-.352 0-.69-.028-1.028-.084a3.383 3.383 0 0 1-.97-.308 3.58 3.58 0 0 1-.822-.575 2.93 2.93 0 0 1-.603-.786 3.033 3.033 0 0 1-.323-.925 7.28 7.28 0 0 1-.087-.968l-.001-.014v-7.53c.015-.337.03-.66.088-.982.059-.322.162-.631.323-.926.162-.28.353-.546.603-.785.029-.028.062-.056.095-.084.033-.028.066-.056.096-.084a3.78 3.78 0 0 1 .646-.407c.037-.014.077-.031.118-.049.04-.017.08-.035.117-.049C3.13.771 3.38.701 3.63.66c.242-.041.5-.056.743-.07h.02c.074-.014.162-.014.25-.014h7.89c.352 0 .69.028 1.028.084.338.056.661.154.97.308.293.154.572.337.822.575.25.225.441.491.603.786.161.294.264.603.323.925.058.318.073.65.087.968l.001.014Zm-3.203 5.343-.044.168c1.352 1.57.985 3.253.779 2.959-.705-1.29-1.998-.968-2.66-.645a.954.954 0 0 0-.087.049c-.03.017-.06.035-.089.049 0 .014-.014.014-.014.014-1.367.701-3.218.743-5.069-.014-1.557-.645-2.835-1.739-3.658-3.001.426.294.882.56 1.366.771 1.954.884 3.923.814 5.319 0C7.022 8.47 5.362 6.577 4.099 5.034a7.37 7.37 0 0 1-.647-.855c1.528 1.318 3.923 2.987 4.79 3.45-1.822-1.838-3.438-4.11-3.365-4.04 2.88 2.763 5.539 4.334 5.539 4.334.103.042.176.084.235.126.059-.14.103-.28.147-.42.455-1.6-.059-3.436-1.234-4.95 2.674 1.528 4.246 4.445 3.6 6.899Z" clip-rule="evenodd"/>
  </g>
  <defs>
    <clipPath id="a">
      <path fill="#fff" d="M.572.099h16v15.803h-16z"/>
    </clipPath>
  </defs>
</svg>
