<svg width="146" height="76" viewBox="0 0 146 76" fill="none" xmlns="http://www.w3.org/2000/svg">
<path d="M55.4092 18.9026C51.7573 16.9088 47.6315 16.0007 43.486 16.2574C39.3405 16.5337 35.353 17.9748 31.9971 20.4226C28.582 22.8901 25.9565 26.2855 24.4365 30.2138C23.6469 32.2471 23.1534 34.3791 22.9954 36.5505H28.4438C28.8189 32.5037 30.6745 28.7333 33.6553 25.9696C36.6361 23.206 40.525 21.6268 44.5915 21.5675C48.7567 21.4886 52.8035 22.9888 55.9225 25.7722C59.0217 28.5556 60.976 32.405 61.3708 36.5505H66.7995C66.4441 30.6087 63.108 23.127 55.4092 18.9026ZM46.4471 32.7604C46.0918 33.1946 45.618 33.4908 45.0653 33.6487C44.5323 33.8066 43.9598 33.7869 43.4268 33.5895C43.032 33.4908 42.6767 33.2934 42.3806 32.9972C42.0844 32.7209 41.8673 32.3655 41.7489 31.9905C41.6304 31.6154 41.6107 31.2009 41.6896 30.8061C41.7686 30.4112 41.9463 30.0362 42.2029 29.7401C42.6767 29.2268 43.3281 28.8912 44.0387 28.832C44.7494 28.7728 45.4403 28.9702 45.9931 29.4045C46.1707 29.5427 46.3286 29.7006 46.4866 29.8585C46.684 29.7203 46.8814 29.5624 47.1183 29.4045C46.8616 29.0294 46.526 28.7136 46.1312 28.4964C45.4008 28.1016 44.5717 27.9437 43.7426 28.0621C43.3084 28.1016 42.8741 28.2398 42.4793 28.4372C42.0844 28.6543 41.7489 28.9307 41.4725 29.2663C41.1961 29.6019 40.9987 29.977 40.8803 30.3915C40.7618 30.8061 40.7421 31.2403 40.8013 31.6549C40.8605 32.1879 41.0579 32.7209 41.3738 33.1552C41.6896 33.5895 42.1239 33.9448 42.6174 34.1619C43.2097 34.4383 43.8808 34.537 44.5323 34.4778C45.3219 34.458 46.0918 34.1422 46.7037 33.6289C46.8616 33.4908 46.9801 33.3328 47.138 33.1946L46.4668 32.7209C46.4668 32.7209 46.4668 32.7406 46.4471 32.7604ZM51.4414 34.3791H52.389L53.376 32.405H56.0015L57.0082 34.3791H57.936C56.8503 32.1879 55.7843 30.0164 54.6986 27.845C53.6129 30.0164 52.5271 32.1879 51.4414 34.3791ZM53.7905 31.5957C54.0866 30.9837 54.4025 30.3915 54.6986 29.7796C55.0144 30.3915 55.3105 31.0035 55.6066 31.5957H53.7905ZM31.9379 34.3791H32.8854C33.221 33.7276 33.5566 33.0565 33.8724 32.405H36.4979C36.8335 33.0565 37.1691 33.7276 37.5047 34.3791H38.4325L35.195 27.8253C34.1093 30.0164 33.0236 32.1879 31.9379 34.3791ZM34.2672 31.5957C34.5633 30.9837 34.8792 30.3915 35.195 29.7598C35.5109 30.3915 35.807 30.9837 36.1031 31.5957H34.2672ZM52.2113 30.7666C52.3495 30.5494 52.4482 30.2928 52.4679 30.0362C52.4877 29.7796 52.4482 29.5032 52.3495 29.2663C52.2508 29.0294 52.0928 28.8123 51.8954 28.6346C51.698 28.4569 51.4612 28.3385 51.2045 28.2793C50.9084 28.2003 50.5926 28.1608 50.2767 28.1806C49.645 28.1608 49.0133 28.1806 48.3619 28.1806C48.3224 28.1806 48.2829 28.1806 48.2632 28.1806V34.3791H49.0923V31.5957C49.3094 31.5957 49.5069 31.5957 49.7043 31.5957C50.0991 31.5759 50.5136 31.5759 50.9084 31.5365C51.165 31.5167 51.4217 31.4378 51.6586 31.3193C51.8757 31.1614 52.0731 30.9837 52.2113 30.7666ZM51.5401 30.1744C51.4809 30.352 51.3624 30.4902 51.2045 30.5889C51.0466 30.6876 50.8689 30.7468 50.6913 30.7468C50.178 30.7666 49.645 30.7468 49.112 30.7468V28.9307C49.6648 28.9505 50.1978 28.9505 50.7308 28.9702C50.8689 28.9702 51.0071 29.0097 51.1256 29.0689C51.244 29.1281 51.3624 29.2268 51.4414 29.3453C51.5204 29.4637 51.5599 29.6019 51.5796 29.7401C51.5993 29.898 51.5796 30.0559 51.5401 30.1744ZM38.926 34.3593H39.7748V28.1608H38.926V34.3593ZM94.9888 50.5465H96.4496V55.146H98.0881V50.5465H99.5488V49.2634H95.0085V50.5465H94.9888ZM100.003 55.1263H101.641V49.2436H100.003V55.1263ZM107.682 55.1263H109.32V49.2436H107.682V55.1263ZM102.668 50.4083V55.1263H104.306V52.7969H106.32V51.5927H104.306V50.4083H106.932V49.2436H102.688L102.668 50.4083ZM110.347 55.146H114.591V53.9813H111.966V52.6587H113.979V51.4545H111.966V50.4083H114.591V49.2436H110.347V55.146ZM84.4869 55.146H88.7311V53.9813H86.1056V52.6587H88.1191V51.4545H86.1056V50.4083H88.7311V49.2436H84.4869V55.146ZM117.907 49.2436H115.479V55.1263H117.907C118.598 55.1263 119.27 54.8499 119.763 54.3564C120.257 53.8629 120.533 53.1917 120.533 52.5008V51.8494C120.533 51.1584 120.257 50.4873 119.763 49.9938C119.27 49.52 118.598 49.2436 117.907 49.2436ZM117.098 53.9813V50.428C117.671 50.428 118.875 50.1714 118.875 52.2047C118.894 54.2182 117.69 53.9813 117.098 53.9813ZM94.5348 51.0795C94.5348 50.8426 94.4953 50.6057 94.3966 50.3688C94.2979 50.1517 94.1597 49.9543 94.0018 49.7766C93.8241 49.5989 93.6267 49.4805 93.4096 49.3818C93.1924 49.2831 92.9555 49.2436 92.6989 49.2436H89.6391V55.1263H91.2776V52.9153H91.8698L92.7779 55.1263H94.6137L93.607 52.6785C93.8833 52.5205 94.1202 52.2836 94.2979 52.0073C94.4558 51.7309 94.5348 51.4151 94.5348 51.0795ZM92.2449 51.7507H91.2776V50.4083H92.2449C92.4226 50.4083 92.6002 50.4873 92.7187 50.6057C92.8371 50.7242 92.9161 50.9018 92.9161 51.0795C92.9161 51.2571 92.8371 51.4348 92.7187 51.5532C92.6002 51.6914 92.4226 51.7507 92.2449 51.7507ZM81.4864 43.1636H83.717V36.8664H85.7108V36.3729L87.6256 39.8274V43.1833H89.8563V39.8274L92.4818 35.1095H90.0932L88.7508 37.6362L87.4085 35.1095H79.4926V36.8861H81.4864V43.1636ZM105.925 36.6887V35.0897H100.082V43.1636H105.925V41.5843H102.332V39.7682H105.096V38.11H102.332V36.6887H105.925ZM81.3877 49.0857H81.1705C80.4796 49.0857 79.8282 49.3621 79.3346 49.8358C78.8411 50.3293 78.5648 50.9808 78.5648 51.6717V52.6785C78.5648 53.014 78.624 53.3496 78.7622 53.6655C78.9004 53.9813 79.078 54.2577 79.3149 54.5143C79.5518 54.7512 79.8479 54.9486 80.1637 55.067C80.4796 55.2052 80.8152 55.2644 81.1508 55.2644H81.3679C81.9996 55.2644 82.5918 55.0078 83.0458 54.5735C83.4999 54.1392 83.7368 53.5273 83.7368 52.8956H82.1773C82.0588 53.7642 81.664 54.0603 81.1902 54.0603C80.6178 54.0603 80.1637 53.6457 80.1637 52.2639C80.1637 50.9018 80.6178 50.2899 81.1902 50.2899C81.6443 50.2899 82.0391 50.7044 82.1773 51.573H83.7368V51.4545C83.7368 50.8229 83.4801 50.2109 83.0458 49.7766C82.6313 49.3423 82.0193 49.0857 81.3877 49.0857ZM100.595 29.7006H100.891C101.74 29.7006 102.549 29.365 103.142 28.7728C103.734 28.1806 104.089 27.3712 104.089 26.5224H101.997C101.839 27.6871 101.306 28.0819 100.674 28.0819C99.9042 28.0819 99.2922 27.5094 99.2922 25.6735C99.2922 23.8377 99.9042 23.0086 100.674 23.0086C101.286 23.0086 101.819 23.5613 101.997 24.726H104.089V24.5483C104.089 23.6995 103.754 22.8901 103.161 22.2782C102.569 21.686 101.74 21.3504 100.891 21.3504H100.595C99.6673 21.3504 98.779 21.7255 98.1275 22.3769C97.4761 23.0283 97.101 23.9166 97.101 24.8444V26.2065C97.101 26.6606 97.1997 27.1146 97.3577 27.5489C97.5353 27.9634 97.7919 28.3582 98.1078 28.6741C98.4236 28.9899 98.8184 29.2466 99.233 29.4242C99.6673 29.6216 100.121 29.7006 100.595 29.7006ZM98.3052 39.63C98.3842 39.5708 98.4631 39.5116 98.5223 39.4524C98.5421 39.4326 98.5618 39.4326 98.5618 39.4129C98.621 39.3537 98.6605 39.3142 98.7 39.255C98.7197 39.2352 98.7592 39.1957 98.779 39.1563C98.8185 39.1168 98.8382 39.0773 98.8579 39.0378C98.8974 38.9983 98.9369 38.9391 98.9566 38.8799C99.1738 38.5048 99.2922 38.0508 99.2922 37.6165C99.2922 37.2809 99.233 36.9651 99.0948 36.6492C98.9764 36.3531 98.779 36.057 98.5421 35.8399C98.3052 35.603 98.0288 35.4253 97.7327 35.2871C97.4366 35.1687 97.101 35.0897 96.7654 35.0897H92.5607V43.1636H94.7914V40.1433H96.7457C97.3379 40.1433 97.8709 39.9656 98.3052 39.63ZM94.8506 36.6887H96.1732C96.4101 36.6887 96.647 36.7874 96.8247 36.9651C97.0023 37.1427 97.101 37.3796 97.101 37.6165C97.101 37.8534 97.0023 38.0903 96.8247 38.2679C96.647 38.4456 96.4101 38.5443 96.1732 38.5443H94.8506V36.6887ZM112.558 35.0897H110.327V43.1636H112.558V35.0897ZM113.999 43.1636H116.23V35.0897H113.999V43.1636ZM92.62 29.7006H93.0542C93.5478 29.7006 94.0215 29.5822 94.4756 29.365C94.9098 29.1479 95.3047 28.832 95.6008 28.4372C96.1338 27.8055 96.4101 27.0159 96.4101 26.2065V24.8444C96.4101 24.0351 96.1338 23.2455 95.6008 22.6138C95.3047 22.219 94.9098 21.9031 94.4756 21.686C94.0413 21.4688 93.5478 21.3504 93.0542 21.3504H92.62C92.1264 21.3504 91.6329 21.4688 91.1986 21.686C90.7644 21.9031 90.3695 22.219 90.0734 22.6138C89.5602 23.2455 89.2641 24.0351 89.2641 24.8444V26.2065C89.2641 27.0159 89.5405 27.8055 90.0734 28.4372C90.3695 28.832 90.7644 29.1479 91.1986 29.365C91.6329 29.5822 92.1264 29.7006 92.62 29.7006ZM91.6922 24.0153C91.7316 23.8772 91.7909 23.7587 91.8501 23.66C91.8698 23.6403 91.8698 23.6205 91.8896 23.6008C91.9093 23.5811 91.929 23.5416 91.9488 23.5218C91.9685 23.5021 91.9685 23.4824 91.9883 23.4626C92.008 23.4429 92.0277 23.4231 92.0475 23.4034C92.0672 23.3837 92.087 23.3639 92.087 23.3442C92.1067 23.3244 92.1264 23.3047 92.1462 23.285C92.1659 23.2652 92.1659 23.2652 92.1857 23.2455C92.2251 23.2257 92.2646 23.1862 92.2844 23.1665L92.3041 23.1468C92.3436 23.127 92.3633 23.1073 92.4028 23.1073C92.4225 23.1073 92.4226 23.0875 92.4423 23.0875C92.4818 23.0678 92.5015 23.0678 92.541 23.0481C92.5607 23.0481 92.5607 23.0481 92.5805 23.0481C92.62 23.0481 92.6594 23.0283 92.6989 23.0283H92.7187C92.7581 23.0283 92.7976 23.0283 92.8568 23.0283C92.8963 23.0283 92.9555 23.0283 92.995 23.0283H93.0148C93.0542 23.0283 93.0937 23.0481 93.1332 23.0481C93.1332 23.0481 93.1529 23.0481 93.1727 23.0481C93.2122 23.0481 93.2319 23.0678 93.2714 23.0875C93.2911 23.0875 93.2911 23.0875 93.3109 23.1073C93.3504 23.127 93.3701 23.1468 93.4096 23.1468L93.4293 23.1665C93.4688 23.1862 93.5083 23.2257 93.528 23.2455C93.5478 23.2652 93.5478 23.2652 93.5675 23.285C93.5872 23.3047 93.607 23.3244 93.6267 23.3442C93.6465 23.3639 93.6662 23.3837 93.6662 23.4034C93.6859 23.4231 93.7057 23.4429 93.7254 23.4626C93.7452 23.4824 93.7649 23.5021 93.7649 23.5218C93.7846 23.5416 93.8044 23.5811 93.8241 23.6008C93.8439 23.6205 93.8439 23.6403 93.8636 23.66C93.9228 23.7785 93.982 23.8969 94.0215 24.0153C94.1992 24.5483 94.2782 25.1011 94.2584 25.6735C94.2782 26.1276 94.2189 26.5816 94.1005 27.0356C94.1005 27.0554 94.1005 27.0554 94.1005 27.0751C94.0807 27.1343 94.061 27.1738 94.0413 27.2133C94.0018 27.312 93.9426 27.4304 93.9031 27.5094C93.9031 27.5094 93.9031 27.5291 93.8833 27.5291C93.8636 27.5686 93.8439 27.6081 93.8044 27.6278C93.8044 27.6278 93.8044 27.6278 93.8044 27.6476C93.7846 27.6871 93.7452 27.7068 93.7254 27.7463C93.6465 27.8253 93.5478 27.9042 93.4491 27.9634C93.4293 27.9832 93.4096 27.9832 93.3701 28.0029C93.3503 28.0029 93.3306 28.0227 93.3306 28.0227C93.3109 28.0227 93.2911 28.0424 93.2714 28.0424C93.2516 28.0424 93.2319 28.0621 93.1924 28.0621C93.1727 28.0621 93.153 28.0621 93.153 28.0819C93.1135 28.0819 93.0937 28.1016 93.0542 28.1016H93.0345C92.995 28.1016 92.9555 28.1016 92.8963 28.1016C92.8568 28.1016 92.7976 28.1016 92.7581 28.1016H92.7384C92.6989 28.1016 92.6792 28.1016 92.6397 28.0819C92.62 28.0819 92.6002 28.0819 92.6002 28.0621C92.5805 28.0621 92.5607 28.0424 92.5213 28.0424C92.5015 28.0424 92.4818 28.0227 92.462 28.0227C92.4423 28.0227 92.4225 28.0029 92.4028 28.0029C92.3831 28.0029 92.3633 27.9832 92.3238 27.9634C92.2251 27.9042 92.1264 27.845 92.0475 27.7463C92.0277 27.7265 91.9883 27.6871 91.9685 27.6476C91.9685 27.6476 91.9685 27.6476 91.9685 27.6278C91.9488 27.5884 91.929 27.5686 91.8896 27.5291C91.8896 27.5291 91.8896 27.5094 91.8698 27.5094C91.8106 27.4107 91.7711 27.312 91.7316 27.2133C91.7119 27.1738 91.6922 27.1146 91.6724 27.0751C91.6724 27.0751 91.6724 27.0554 91.6724 27.0356C91.554 26.6013 91.4948 26.1276 91.5145 25.6735C91.4355 25.1208 91.5145 24.5483 91.6922 24.0153ZM85.0199 28.1214C83.9144 28.1214 83.5788 27.0356 83.5394 26.858L82.4339 27.1146L81.5061 27.2923C81.7035 28.3385 82.5523 29.819 84.9607 29.819C88.0599 29.819 88.356 27.766 88.356 27.1146C88.356 25.4367 86.9742 25.0024 85.4542 24.4891C84.5066 24.1733 84.25 24.0548 84.25 23.6403C84.25 23.2257 84.6448 22.9888 85.1383 22.9888C85.7898 22.9888 86.1648 23.3442 86.4412 23.9364L88.2376 23.3047C87.8822 22.2782 87.1913 21.3109 85.0594 21.3109C82.9274 21.3109 81.9996 22.673 81.9996 23.6995C81.9996 25.1208 82.6708 25.7328 84.3487 26.3052C85.5924 26.7395 86.1254 26.858 86.1254 27.4107C86.1056 27.8253 85.7503 28.1214 85.0199 28.1214ZM111.472 23.1468C112.084 23.3244 112.163 23.9561 111.966 24.3904C111.768 24.8444 110.919 25.5748 110.505 25.8907C109.853 26.3842 107.958 27.845 107.958 27.845V29.6216H114.295V27.845H110.801C110.801 27.845 111.314 27.4897 112.499 26.6408C113.683 25.792 114.157 24.805 114.157 24.1338C114.157 23.4626 114.137 21.3504 111.117 21.3504C108.096 21.3504 107.84 24.0548 107.84 24.0548L109.814 24.6273C110.031 23.127 111.018 23.0086 111.472 23.1468Z" fill="#828282"/>
<path d="M45.2232 54.5933C41.7094 54.692 38.2351 53.626 35.3924 51.573C31.6418 48.8883 29.3913 45.2561 28.582 40.7158H23.0942C24.2391 51.5335 33.8922 60.8707 46.2892 60.1009C57.7189 59.4099 65.7927 50.2504 66.7205 40.7158H61.2327C60.6207 44.5454 58.6664 48.0197 55.7448 50.5465C52.8232 53.093 49.0923 54.5143 45.2232 54.5933ZM43.1504 48.533C43.5847 48.7106 44.0585 48.8093 44.5323 48.7896C45.006 48.7896 45.4798 48.6711 45.9141 48.4737C46.3089 48.3158 46.6642 48.0395 46.9603 47.7236C47.2367 47.388 47.4538 46.9932 47.5525 46.5787C47.7302 45.9075 47.7302 45.2166 47.5131 44.5454C47.4144 44.1901 47.2367 43.8545 46.9998 43.5584C46.7629 43.2623 46.4668 43.0254 46.1312 42.8675C45.6377 42.6108 45.085 42.4924 44.5323 42.5121C44.4138 42.5121 44.2954 42.5121 44.1769 42.5121C44.098 42.5121 44.0388 42.5319 43.9598 42.5319C43.5058 42.5714 43.0517 42.749 42.6569 43.0056C42.2621 43.2623 41.9463 43.6176 41.7291 44.0124C41.4133 44.5849 41.2948 45.2363 41.3343 45.868C41.4133 47.1117 41.9857 48.0395 43.1504 48.533ZM43.6834 43.6176C44.0782 43.4597 44.5323 43.4202 44.9468 43.4992C45.3614 43.5979 45.7562 43.815 46.0325 44.1506C46.3879 44.6244 46.5655 45.1968 46.526 45.789C46.4866 46.3813 46.2299 46.934 45.7956 47.3485C44.8678 48.1776 42.9135 48 42.499 46.2233C42.4595 46.0457 42.4398 45.868 42.4398 45.789C42.4003 44.7823 42.8741 43.9532 43.6834 43.6176ZM38.4917 47.8026C38.2548 47.8026 37.9982 47.7631 37.781 47.6446C37.5639 47.5262 37.3862 47.3683 37.248 47.1709C36.9914 47.4472 36.7348 47.7236 36.4782 48C36.6756 48.2369 36.9322 48.4145 37.2086 48.533C37.7613 48.7699 38.3535 48.8291 38.9457 48.7304C39.913 48.5724 40.5447 47.9408 40.6039 47.013C40.6434 46.6971 40.5842 46.3615 40.4263 46.0851C40.2683 45.8088 40.0314 45.5719 39.7353 45.4337C39.4787 45.3153 39.2023 45.2166 38.9457 45.1179C38.6496 45.0192 38.3535 44.881 38.0574 44.7428C37.9192 44.6638 37.8205 44.5454 37.781 44.4072C37.7416 44.269 37.7416 44.1111 37.8008 43.9729C37.8403 43.8742 37.8995 43.7755 37.9784 43.6966C38.0574 43.6176 38.1561 43.5781 38.2548 43.5386C38.5114 43.4399 38.8075 43.4202 39.0839 43.4992C39.3603 43.5781 39.5972 43.7163 39.7748 43.9334C40.0314 43.6571 40.2881 43.4005 40.5447 43.1241C40.4855 43.0649 40.446 43.0254 40.3868 43.0056C39.913 42.6701 39.3405 42.4924 38.7681 42.5121C38.2745 42.5121 37.781 42.6503 37.3467 42.9069C36.3795 43.4992 36.2808 45.2166 37.5047 45.7693C37.8008 45.9075 38.1166 45.9864 38.4127 46.1049C38.6694 46.2036 38.926 46.322 39.1629 46.4602C39.2418 46.5194 39.3208 46.5984 39.3603 46.6971C39.4195 46.7958 39.4392 46.8945 39.4392 46.9932C39.4392 47.0919 39.4195 47.2104 39.38 47.3091C39.3405 47.4078 39.2616 47.4867 39.1826 47.5657C39.0444 47.7236 38.7681 47.8026 38.4917 47.8026ZM49.0923 47.8421C50.0793 48.8093 51.244 48.987 52.5271 48.5922C53.0009 48.4343 53.3957 48.1184 53.6721 47.7236L52.7838 47.0919C52.7443 47.1314 52.7245 47.1511 52.7048 47.1906C51.8362 48.2369 50.4544 47.842 49.8819 47.1117C49.6845 46.855 49.5463 46.5589 49.4674 46.2233C49.3884 45.9075 49.3687 45.5719 49.4279 45.2363C49.4871 44.7428 49.724 44.2888 50.0991 43.9532C50.6913 43.4202 51.8757 43.1636 52.6456 44.0124C52.6653 44.0321 52.6851 44.0519 52.7048 44.0519L53.5339 43.4399C53.3168 43.1636 53.0404 42.9464 52.7245 42.7885C52.1521 42.5121 51.5006 42.4332 50.8887 42.5319C50.4939 42.5714 50.1188 42.7095 49.7832 42.9069C49.4476 43.1043 49.1515 43.361 48.9146 43.6768C48.4606 44.3085 48.2435 45.0784 48.3027 45.8483C48.2829 46.5984 48.579 47.3091 49.0923 47.8421ZM46.8616 50.053C46.7234 50.1714 46.6445 50.3491 46.6247 50.5267C46.605 50.7044 46.6445 50.8821 46.7629 51.04C46.8221 51.119 46.9011 51.1782 46.9998 51.2374C47.0985 51.2769 47.1972 51.3164 47.2959 51.3164C47.3946 51.3361 47.4933 51.3164 47.592 51.2769C47.6907 51.2374 47.7697 51.1782 47.8289 51.0992C47.8487 51.4546 47.7894 51.6519 47.592 51.7309C47.4538 51.7901 47.3157 51.8099 47.1775 51.7704C47.0393 51.7309 46.9011 51.652 46.8222 51.5532C46.7629 51.6125 46.7037 51.6717 46.6642 51.7507C46.7827 51.8691 46.9209 51.9481 47.0788 51.9875C47.2367 52.027 47.3946 52.027 47.5525 51.9875C47.671 51.9678 47.7894 51.9086 47.8684 51.8296C47.9671 51.7507 48.0263 51.6322 48.0461 51.5138C48.0658 51.4151 48.0855 51.3164 48.0855 51.2177C48.0855 50.8229 48.0855 50.4478 48.0855 50.053C48.0855 50.0135 48.0855 49.974 48.0855 49.9543H47.8684C47.8684 50.0135 47.8684 50.0727 47.8487 50.1517C47.7302 50.0135 47.5723 49.9345 47.3749 49.9148C47.1775 49.8951 46.9998 49.9543 46.8616 50.053ZM47.8289 50.6057C47.8289 50.6649 47.8289 50.7439 47.7894 50.8031C47.7697 50.8623 47.7302 50.9216 47.6907 50.961C47.6512 51.0005 47.592 51.04 47.5328 51.0795C47.4736 51.0992 47.4144 51.119 47.3354 51.119C47.217 51.119 47.0985 51.0597 46.9998 50.9808C46.9209 50.8821 46.8616 50.7636 46.8616 50.6452C46.8616 50.586 46.8616 50.5267 46.8814 50.4675C46.9011 50.4083 46.9406 50.3491 46.9801 50.3096C47.0196 50.2701 47.0788 50.2306 47.138 50.2109C47.1972 50.1912 47.2564 50.1714 47.3157 50.1714C47.3749 50.1714 47.4341 50.1912 47.4933 50.2109C47.5525 50.2306 47.6118 50.2701 47.6512 50.3096C47.6907 50.3491 47.7302 50.4083 47.75 50.4675C47.8092 50.4675 47.8289 50.5267 47.8289 50.6057ZM40.2881 49.9345H40.0709V51.9481H40.2881V51.0992C40.6434 51.3953 40.9987 51.4151 41.2751 51.1584C41.3935 51.04 41.4725 50.8623 41.4922 50.6847C41.512 50.507 41.4528 50.3293 41.3541 50.1912C41.2553 50.053 41.1172 49.974 40.9592 49.9345C40.8408 49.8951 40.7224 49.9148 40.6039 49.9345C40.4855 49.9543 40.3868 50.0332 40.2881 50.1319C40.2881 50.053 40.2881 49.9938 40.2881 49.9345ZM40.7816 50.1122C40.8408 50.1122 40.9198 50.1319 40.979 50.1517C41.0382 50.1714 41.0974 50.2109 41.1369 50.2701C41.1764 50.3096 41.2159 50.3688 41.2356 50.428C41.2553 50.4873 41.2751 50.5465 41.2553 50.6254C41.2553 50.6847 41.2553 50.7439 41.2356 50.8031C41.2159 50.8623 41.1764 50.9216 41.1369 50.961C41.0974 51.0005 41.0382 51.04 40.979 51.0795C40.9198 51.0992 40.8605 51.119 40.8013 51.119C40.7421 51.119 40.6631 51.0992 40.6039 51.0795C40.5447 51.0597 40.4855 51.0203 40.446 50.9808C40.4065 50.9413 40.367 50.8821 40.3473 50.8229C40.3275 50.7636 40.3078 50.7044 40.3078 50.6254C40.3078 50.5662 40.3078 50.4873 40.3473 50.428C40.367 50.3688 40.4065 50.3096 40.446 50.2701C40.4855 50.2306 40.5447 50.1912 40.6039 50.1517C40.6434 50.1319 40.7026 50.1122 40.7816 50.1122ZM43.9795 50.6057C43.9795 50.7044 43.9993 50.8031 44.019 50.8821C44.0585 50.9808 44.1177 51.0597 44.1769 51.119C44.2559 51.1782 44.3349 51.2374 44.4138 51.2769C44.5125 51.3164 44.5915 51.3164 44.6902 51.3164C44.7889 51.3164 44.8876 51.3164 44.9666 51.2769C45.0653 51.2374 45.1442 51.1979 45.2034 51.119C45.2627 51.04 45.3219 50.9808 45.3614 50.8821C45.4008 50.7834 45.4206 50.7044 45.4008 50.6057C45.4008 50.507 45.4008 50.4083 45.3614 50.3293C45.3219 50.2306 45.2824 50.1517 45.2034 50.0925C45.1442 50.0332 45.0455 49.974 44.9666 49.9345C44.8678 49.8951 44.7889 49.8951 44.6902 49.8951C44.5915 49.8951 44.4928 49.8951 44.4138 49.9345C44.3151 49.974 44.2362 50.0135 44.1769 50.0925C44.098 50.1517 44.0585 50.2306 44.019 50.3293C43.9993 50.4083 43.9795 50.507 43.9795 50.6057ZM45.1837 50.6057C45.1837 50.6649 45.1837 50.7439 45.164 50.8031C45.1442 50.8623 45.1047 50.9216 45.0653 50.961C45.0258 51.0005 44.9665 51.04 44.9073 51.0795C44.8481 51.0992 44.7889 51.119 44.7099 51.119C44.6507 51.119 44.5915 51.0992 44.5323 51.0795C44.473 51.0597 44.4138 51.0203 44.3743 50.9808C44.3349 50.9413 44.2954 50.8821 44.2756 50.8229C44.2559 50.7636 44.2362 50.7044 44.2362 50.6452C44.2362 50.586 44.2362 50.507 44.2559 50.4478C44.2756 50.3886 44.3151 50.3293 44.3546 50.2899C44.3941 50.2504 44.4533 50.2109 44.5125 50.1714C44.5717 50.1517 44.631 50.1319 44.7099 50.1319C44.7691 50.1319 44.8481 50.1517 44.9073 50.1714C44.9665 50.1912 45.0258 50.2306 45.0653 50.2899C45.1047 50.3293 45.1442 50.3886 45.164 50.4478C45.1837 50.4873 45.1837 50.5465 45.1837 50.6057ZM50.6123 50.6057C50.6123 50.7044 50.6321 50.8031 50.6715 50.8821C50.711 50.9808 50.7702 51.0597 50.8295 51.119C50.9084 51.1782 50.9874 51.2374 51.0663 51.2769C51.165 51.3164 51.244 51.3164 51.3427 51.3164C51.4414 51.3164 51.5401 51.2966 51.6191 51.2769C51.7178 51.2374 51.7967 51.1979 51.856 51.119C51.9152 51.0597 51.9744 50.961 52.0139 50.8821C52.0534 50.7834 52.0534 50.7044 52.0534 50.6057C52.0534 50.507 52.0336 50.4083 52.0139 50.3293C51.9744 50.2504 51.9349 50.1517 51.856 50.0925C51.777 50.0332 51.698 49.974 51.6191 49.9345C51.5204 49.8951 51.4414 49.8951 51.3427 49.8951C51.244 49.8951 51.1453 49.8951 51.0663 49.9345C50.9676 49.974 50.8887 50.0135 50.8295 50.0925C50.7505 50.1517 50.711 50.2306 50.6715 50.3293C50.6321 50.428 50.6123 50.507 50.6123 50.6057ZM51.8165 50.6254C51.8165 50.6847 51.8165 50.7439 51.7967 50.8031C51.777 50.8623 51.7375 50.9216 51.698 50.961C51.6586 51.0005 51.5993 51.04 51.5401 51.0597C51.4809 51.0795 51.4217 51.0992 51.3624 51.0992C51.3032 51.0992 51.2243 51.0795 51.165 51.0597C51.1058 51.04 51.0466 51.0005 51.0071 50.9413C50.9676 50.9018 50.9282 50.8426 50.9084 50.7834C50.8887 50.7242 50.8689 50.6649 50.8689 50.586C50.8689 50.5267 50.8689 50.4478 50.9084 50.3886C50.9479 50.3293 50.9676 50.2701 51.0071 50.2306C51.0466 50.1912 51.1058 50.1517 51.165 50.1122C51.2243 50.0925 51.2835 50.0727 51.3624 50.0727C51.4217 50.0727 51.5006 50.0925 51.5599 50.1122C51.6191 50.1319 51.6783 50.1714 51.7178 50.2306C51.7573 50.2701 51.7967 50.3293 51.8165 50.3886C51.7967 50.4873 51.8165 50.5465 51.8165 50.6254ZM36.794 51.2966C36.9125 51.3361 37.0309 51.3361 37.1493 51.2966C37.2678 51.2571 37.3665 51.1979 37.4454 51.0992C37.4454 51.1782 37.4652 51.2177 37.4652 51.2571H37.6626C37.6626 50.9808 37.6626 50.7044 37.6626 50.428C37.6626 50.1319 37.5639 49.974 37.3665 49.9148C37.1099 49.8358 36.6953 49.8951 36.5769 50.1122C36.6163 50.1517 36.6558 50.1912 36.6953 50.2306C37.1493 49.9938 37.4257 50.0727 37.4257 50.428C37.3665 50.428 37.2875 50.428 37.2283 50.428C37.0704 50.4478 36.8927 50.4675 36.7348 50.5267C36.6558 50.5465 36.5769 50.6057 36.5374 50.6847C36.4979 50.7636 36.4782 50.8623 36.4979 50.9413C36.4979 51.0203 36.5374 51.0992 36.5966 51.1584C36.6361 51.2374 36.715 51.2769 36.794 51.2966ZM36.9125 50.6847C37.0704 50.6649 37.248 50.6452 37.406 50.6254C37.4257 50.961 37.2678 51.1584 36.9717 51.1387C36.9125 51.1387 36.8532 51.119 36.8138 51.0992C36.7743 51.0597 36.7348 51.0203 36.7348 50.961C36.7348 50.9413 36.7348 50.9018 36.7348 50.8821C36.7348 50.8623 36.7545 50.8229 36.7743 50.8031C36.794 50.7834 36.8138 50.7636 36.8335 50.7439C36.8532 50.7044 36.8927 50.6847 36.9125 50.6847ZM42.4793 50.4478C42.3213 50.4675 42.1437 50.4873 41.9857 50.5465C41.9068 50.5662 41.8278 50.6255 41.7883 50.7044C41.7489 50.7834 41.7291 50.8623 41.7489 50.961C41.7489 51.04 41.7883 51.119 41.8476 51.1782C41.9068 51.2374 41.966 51.2769 42.0647 51.2966C42.1831 51.3361 42.3016 51.3361 42.42 51.3164C42.5385 51.2769 42.6372 51.2177 42.7161 51.119C42.7359 51.1782 42.7359 51.2374 42.7556 51.2769H42.953C42.953 50.9808 42.953 50.7044 42.953 50.4083C42.953 50.3096 42.953 50.2306 42.8938 50.1319C42.8346 50.0332 42.7754 49.974 42.6964 49.9345C42.5582 49.8753 42.4003 49.8556 42.2621 49.8951C42.1042 49.9148 41.966 49.9938 41.8673 50.0925L41.9857 50.2504C42.0647 50.1714 42.1634 50.1319 42.2819 50.1122C42.4003 50.0925 42.499 50.1122 42.5977 50.1517C42.6372 50.1714 42.6767 50.2306 42.7161 50.2701C42.7359 50.3293 42.7359 50.3688 42.7359 50.428C42.5977 50.4478 42.5385 50.4478 42.4793 50.4478ZM42.2029 51.119C42.1437 51.119 42.1042 51.0992 42.0647 51.0597C42.0252 51.0203 42.0055 50.9808 41.9857 50.9216C41.966 50.8623 41.9857 50.8229 42.0055 50.7834C42.0252 50.7439 42.0844 50.7044 42.1239 50.7044C42.3016 50.6649 42.4793 50.6649 42.6569 50.6254C42.6964 50.9808 42.499 51.1584 42.2029 51.119ZM49.9806 51.0992C49.9017 51.119 49.803 51.119 49.724 51.0992C49.645 51.0795 49.5661 51.0203 49.5266 50.9413C49.4674 51.0005 49.4081 51.04 49.3489 51.0795C49.4279 51.1979 49.5463 51.2769 49.6648 51.3164C49.803 51.3558 49.9411 51.3558 50.0596 51.3164C50.1583 51.2966 50.257 51.2571 50.3162 51.1782C50.3754 51.0992 50.4149 51.0005 50.4149 50.9018C50.4149 50.7044 50.2965 50.586 50.0793 50.5267C49.9806 50.507 49.8819 50.4873 49.7832 50.4478C49.724 50.428 49.645 50.3491 49.6648 50.3096C49.6845 50.2701 49.7043 50.2504 49.724 50.2109C49.7437 50.1912 49.7832 50.1714 49.8227 50.1517C49.9017 50.1319 49.9806 50.1319 50.0398 50.1517C50.1188 50.1714 50.178 50.2306 50.2175 50.2899C50.2767 50.2504 50.3359 50.2109 50.3952 50.1714C50.257 49.8556 49.7437 49.8556 49.5463 50.053C49.5069 50.0925 49.4674 50.1517 49.4476 50.2109C49.4279 50.2701 49.4279 50.3293 49.4476 50.3886C49.4674 50.4478 49.4871 50.507 49.5266 50.5465C49.5661 50.586 49.6253 50.6254 49.6648 50.6452C49.7832 50.6847 49.9214 50.7242 50.0398 50.7439C50.1385 50.7636 50.2175 50.8229 50.1978 50.9216C50.178 50.961 50.1583 51.0005 50.1385 51.0203C50.0596 51.0597 50.0201 51.0795 49.9806 51.0992ZM53.3562 50.2701C53.4155 50.2109 53.4747 50.1714 53.5339 50.1122C53.3957 49.974 53.1983 49.8951 53.0009 49.8951C52.8035 49.8951 52.6061 49.974 52.4679 50.1122C52.3495 50.2701 52.2903 50.4675 52.2903 50.6649C52.31 50.8623 52.389 51.04 52.5469 51.1782C52.6851 51.2769 52.8627 51.3361 53.0404 51.3164C53.2181 51.2966 53.376 51.2177 53.4944 51.0795C53.4549 51.04 53.3957 50.9808 53.3365 50.9413C53.297 50.9808 53.2575 51.0203 53.1983 51.0597C53.1391 51.0795 53.0799 51.0992 53.0206 51.0992C52.9614 51.0992 52.9022 51.0992 52.843 51.0795C52.7838 51.0597 52.7245 51.0203 52.6851 50.9808C52.5864 50.8821 52.5469 50.7636 52.5271 50.6254C52.5271 50.4873 52.5469 50.3688 52.6258 50.2504C52.6653 50.1912 52.7245 50.1517 52.7838 50.1319C52.843 50.1122 52.9022 50.0925 52.9812 50.0925C53.0404 50.0925 53.1193 50.1122 53.1786 50.1319C53.2575 50.1912 53.3168 50.2306 53.3562 50.2701ZM39.2221 50.1319C39.301 50.1122 39.38 50.1122 39.459 50.1319C39.5379 50.1517 39.5972 50.2109 39.6564 50.2701C39.7156 50.2109 39.7748 50.1517 39.834 50.1122C39.6959 49.974 39.5182 49.8951 39.3405 49.8951C39.1431 49.8951 38.9655 49.9543 38.8273 50.0925C38.6891 50.2306 38.6299 50.428 38.6299 50.6254C38.6299 50.8229 38.7088 51.0005 38.847 51.1584C38.9852 51.2769 39.1629 51.3361 39.3405 51.3361C39.5182 51.3361 39.6959 51.2571 39.834 51.1387L39.6959 50.961C39.4392 51.1584 39.2023 51.1782 39.0247 51.0005C38.9457 50.9018 38.8865 50.7834 38.8865 50.6649C38.8865 50.5465 38.9062 50.4083 38.9852 50.3096C39.0444 50.2109 39.1431 50.1517 39.2221 50.1319ZM49.2897 49.1844C49.2107 49.1647 49.1713 49.1449 49.0923 49.1054C48.7962 49.8556 48.5198 50.586 48.2237 51.3164L48.4211 51.3953C48.7172 50.6649 48.9936 49.9345 49.2897 49.1844ZM46.0128 50.428C46.0128 50.3886 46.0325 50.3293 46.0523 50.2899C46.072 50.2504 46.1115 50.2109 46.151 50.1912C46.1905 50.1714 46.2299 50.1517 46.2892 50.1319C46.3286 50.1122 46.3879 50.1122 46.4273 50.1319C46.4471 50.1319 46.4866 50.1319 46.5063 50.1319V49.9148C46.4076 49.8951 46.3089 49.9148 46.2102 49.9345C46.1115 49.974 46.0325 50.0332 45.9733 50.1122C45.9536 50.0332 45.9536 49.9938 45.9536 49.9543H45.7562V51.2966H45.9733C45.9733 51.1979 45.9733 51.0992 45.9733 51.0203C45.9931 50.8229 45.9931 50.6254 46.0128 50.428ZM38.0771 51.2769H38.2943V49.9345H38.0771V51.2769ZM43.3084 51.119C43.3084 51.1387 43.3084 51.1584 43.3084 51.1979C43.3084 51.2177 43.3281 51.2374 43.3478 51.2571C43.3676 51.2769 43.3873 51.2966 43.4071 51.2966C43.4268 51.2966 43.4465 51.3164 43.4663 51.2966C43.565 51.2966 43.6242 51.2374 43.6439 51.119C43.6439 51.0992 43.6439 51.0795 43.6242 51.0597C43.6242 51.04 43.6045 51.0203 43.5847 51.0005C43.565 50.9808 43.5452 50.9808 43.5255 50.961C43.5058 50.961 43.486 50.9413 43.4663 50.961C43.4465 50.961 43.4268 50.961 43.4071 50.961C43.3873 50.961 43.3676 50.9808 43.3478 51.0005C43.3281 51.0203 43.3281 51.04 43.3084 51.0597C43.3084 51.0795 43.3084 51.0992 43.3084 51.119ZM38.3338 49.4213C38.3338 49.3028 38.2745 49.2436 38.1758 49.2436C38.1561 49.2436 38.1364 49.2436 38.1166 49.2436C38.0969 49.2436 38.0771 49.2634 38.0574 49.2831C38.0377 49.3028 38.0377 49.3226 38.0179 49.3423C37.9982 49.3621 37.9982 49.3818 37.9982 49.4015C37.9982 49.4213 37.9982 49.441 37.9982 49.4608C37.9982 49.4805 38.0179 49.5002 38.0377 49.52C38.0574 49.5397 38.0771 49.5397 38.0969 49.5595C38.1166 49.5595 38.1364 49.5792 38.1561 49.5792C38.1758 49.5792 38.1956 49.5792 38.2153 49.5792C38.2351 49.5792 38.2548 49.5595 38.2745 49.5397C38.2943 49.52 38.2943 49.5002 38.314 49.4805C38.3338 49.4608 38.3338 49.441 38.3338 49.4213ZM73.4717 45.6903V46.1444H125.606V45.6903H73.4717ZM73.4717 58.9757H125.606V58.5216H73.4717V58.9757Z" fill="#828282"/>
<path d="M69.0696 40.4394V36.8269H20.8438V40.4394H69.0696Z" fill="#828282"/>
<rect x="0.976562" y="0.929688" width="144.5" height="74.5" rx="8.4985" stroke="#828282" stroke-width="0.5"/>
</svg>
