<svg xmlns="http://www.w3.org/2000/svg" width="128" height="21" fill="none" viewBox="0 0 128 21"><path fill="#fafafa" fill-rule="evenodd" d="M4.427 3.39a1.04 1.04 0 0 0-1.04 1.041v11.445c-.001.575.465 1.04 1.04 1.04h3.641v3.122H4.427a4.16 4.16 0 0 1-4.162-4.162V4.431A4.16 4.16 0 0 1 4.427.27h3.641v3.122zM25.236 16.917a1.04 1.04 0 0 0 1.04-1.04V4.43a1.04 1.04 0 0 0-1.04-1.04h-3.642V.269h3.642a4.16 4.16 0 0 1 4.162 4.162v11.446a4.16 4.16 0 0 1-4.162 4.161h-3.642v-3.121z" clip-rule="evenodd"/><path fill="#fafafa" d="M24.715 10.108c0-1.255-.92-2.317-2.162-2.496a6.26 6.26 0 0 1-5.174-5.18A2.54 2.54 0 0 0 14.877.269h-.093c-1.254 0-2.316.921-2.495 2.163a6.26 6.26 0 0 1-5.18 5.174 2.54 2.54 0 0 0-2.163 2.502v.092c0 1.254.92 2.317 2.163 2.496a6.26 6.26 0 0 1 5.173 5.18 2.54 2.54 0 0 0 2.502 2.162h.093c1.254 0 2.317-.92 2.496-2.162a6.26 6.26 0 0 1 5.18-5.174 2.54 2.54 0 0 0 2.162-2.502zm-3.707.083c0 .025-.034.046-.067.052a7.3 7.3 0 0 0-6.03 6.027c0 .034-.025.062-.043.062h-.078c-.024 0-.046-.034-.052-.068a7.3 7.3 0 0 0-6.026-6.03c-.034 0-.062-.024-.062-.043v-.077c0-.025.034-.047.068-.053a7.3 7.3 0 0 0 6.03-6.026c0-.034.024-.062.043-.062h.077c.024 0 .046.034.052.068a7.3 7.3 0 0 0 6.027 6.03c.034 0 .061.024.061.043zM52.076.27h3.399v19.47h-3.4v-8.515h-9.134v8.515h-3.4V.27h3.4v7.918h9.135zM69.469 5.503V19.74h-3.187V18.22c-.796.95-1.992 1.817-3.797 1.817-2.921 0-4.727-2.034-4.727-5.098V5.503h3.186v8.732c0 1.736.744 2.847 2.47 2.847 1.434 0 2.868-1.084 2.868-3.118v-8.46zM74.915 11.388v8.352h-3.187V5.503h3.187v1.519c.77-.95 1.965-1.79 3.824-1.79 1.673 0 2.921.76 3.692 1.98.85-.922 2.177-1.98 4.328-1.98 2.868 0 4.727 2.061 4.727 5.125v9.383H88.3v-8.433c0-1.763-.637-3.038-2.336-3.038-1.355 0-2.762 1.085-2.762 3.119v8.352h-3.187v-8.433c0-1.763-.637-3.038-2.337-3.038-1.354 0-2.762 1.085-2.762 3.119M97.626 19.984c-2.656 0-4.7-1.654-4.7-4.203 0-2.712 1.991-3.905 4.673-4.475l3.851-.813v-.244c0-1.356-.691-2.197-2.39-2.197-1.514 0-2.31.705-2.683 2.088l-3-.705c.69-2.359 2.735-4.203 5.816-4.203 3.345 0 5.364 1.627 5.364 4.908v6.129c0 .814.345 1.058 1.221.95v2.521c-2.31.271-3.532-.19-4.01-1.356-.876 1.004-2.337 1.6-4.142 1.6m3.824-5.26v-1.736l-3.001.65c-1.355.299-2.364.733-2.364 2.007 0 1.112.797 1.736 2.019 1.736 1.7 0 3.346-.922 3.346-2.658M107.538 16.16V8.27H105.6V5.502h1.938V1.327h3.134v4.176h2.921V8.27h-2.921v7.376c0 1.275.717 1.41 1.859 1.41a10 10 0 0 0 1.301-.081v2.739c-.584.108-1.381.19-2.204.19-2.656 0-4.09-.841-4.09-3.742M119.113 19.984c-2.655 0-4.7-1.654-4.7-4.203 0-2.712 1.992-3.905 4.674-4.475l3.85-.813v-.244c0-1.356-.689-2.197-2.39-2.197-1.513 0-2.31.705-2.682 2.088l-3-.705c.69-2.359 2.735-4.203 5.815-4.203 3.347 0 5.364 1.627 5.364 4.908v6.129c0 .814.346 1.058 1.222.95v2.521c-2.31.271-3.532-.19-4.01-1.356-.876 1.004-2.337 1.6-4.143 1.6m3.824-5.26v-1.736l-3 .65c-1.354.299-2.364.733-2.364 2.007 0 1.112.797 1.736 2.018 1.736 1.7 0 3.346-.922 3.346-2.658"/></svg>