<svg xmlns="http://www.w3.org/2000/svg" width="49" height="49" fill="none" viewBox="0 0 49 49"><path stroke="#92ceac" stroke-linejoin="bevel" stroke-miterlimit="10" stroke-width="2" d="M19.061 19.237a7.47 7.47 0 0 1 5.287-2.21 7.49 7.49 0 1 1-7.46 7.796"/><path stroke="#92ceac" stroke-linejoin="bevel" stroke-miterlimit="10" stroke-width="2" d="M15.417 15.614a12.6 12.6 0 0 1 8.913-3.725 12.6 12.6 0 0 1 8.948 3.673c4.947 4.918 4.97 12.915.052 17.862s-12.915 4.97-17.862.051a12.59 12.59 0 0 1-3.714-8.443"/><path stroke="#299764" stroke-linejoin="bevel" stroke-miterlimit="10" stroke-width="2" d="M11.784 12.002c6.913-6.952 18.154-6.985 25.106-.072s6.986 18.153.073 25.106-18.154 6.986-25.106.073a17.7 17.7 0 0 1-5.232-12.216M3.49 24.862h22.155"/><circle cx="31.161" cy="17.401" r="3.093" fill="#5bb98c" stroke="#299764" stroke-linejoin="bevel" stroke-miterlimit="10" stroke-width="2"/><circle cx="12.222" cy="37.24" r="3.093" fill="#5bb98c" stroke="#299764" stroke-linejoin="bevel" stroke-miterlimit="10" stroke-width="2"/></svg>