<svg xmlns="http://www.w3.org/2000/svg" width="49" height="49" fill="none" viewBox="0 0 49 49"><rect width="48" height="48" x=".615" y=".583" fill="#164430" rx="8"/><path stroke="#4cc38a" stroke-linejoin="bevel" stroke-miterlimit="10" stroke-width="2" d="M35.861 30.324v-8.129c0-2.632-5.034-4.766-11.245-4.766S13.37 19.563 13.37 22.195v8.13"/><path fill="#1b543a" stroke="#4cc38a" stroke-linejoin="bevel" stroke-miterlimit="10" stroke-width="2" d="M35.861 30.675c0 2.632-5.034 4.765-11.245 4.765S13.37 33.307 13.37 30.675s7.742-5.197 11.246-1.147c3.438-3.974 11.245-1.485 11.245 1.147Z"/><path stroke="#4cc38a" stroke-linejoin="bevel" stroke-miterlimit="10" stroke-width="2" d="m45.174 19.012-20.559-8.606-20.559 8.606 9.053 3.79.261-.607c0-2.632 5.035-4.765 11.246-4.765 6.21 0 11.245 2.133 11.245 4.765l.26.607zM19.29 12.967v22.067M20.795 35.23h-3.01v5.289h3.01z"/></svg>