<svg width="49" height="49" viewBox="0 0 49 49" fill="none" xmlns="http://www.w3.org/2000/svg">
<path d="M35.2929 29.7413V21.612C35.2929 18.98 30.2581 16.8464 24.0473 16.8464C17.8366 16.8464 12.8018 18.98 12.8018 21.612V29.7413" stroke="#4CC38A" stroke-width="2" stroke-miterlimit="10" stroke-linejoin="bevel"/>
<path d="M35.2929 30.0917C35.2929 32.7237 30.2581 34.8572 24.0473 34.8572C17.8366 34.8572 12.8018 32.7237 12.8018 30.0917C12.8018 27.4598 20.5435 24.8947 24.0473 28.9452C27.4854 24.9708 35.2929 27.4598 35.2929 30.0917Z" fill="#133929" stroke="#4CC38A" stroke-width="2" stroke-miterlimit="10" stroke-linejoin="bevel"/>
<path d="M44.6061 18.4291L24.0469 9.82279L3.48768 18.4291L12.5406 22.2187L12.8018 21.612C12.8018 18.98 17.8366 16.8464 24.0473 16.8464C30.2581 16.8464 35.2929 18.98 35.2929 21.612L35.5532 22.2187L44.6061 18.4291Z" fill="#133929" stroke="#4CC38A" stroke-width="2" stroke-miterlimit="10" stroke-linejoin="bevel"/>
<path d="M18.7219 12.3835L18.7219 34.4509" stroke="#4CC38A" stroke-width="2" stroke-miterlimit="10" stroke-linejoin="bevel"/>
<path d="M20.2268 34.647H17.2163V39.9359H20.2268V34.647Z" stroke="#4CC38A" stroke-width="2" stroke-miterlimit="10" stroke-linejoin="bevel"/>
</svg>
