<svg xmlns="http://www.w3.org/2000/svg" width="49" height="49" fill="none" viewBox="0 0 49 49"><rect width="48" height="48" x=".615" y=".583" fill="#ddf3e4" rx="8"/><path stroke="#92ceac" stroke-linejoin="bevel" stroke-miterlimit="10" stroke-width="2" d="m6.765 23.174 3.537-3.536h6.777M19.316 16.953v-5.825l3.594-3.594M30.257 10.568v2.057l-4.772 4.772M8.79 28.706H6.78m2.01 0H6.78M23.793 31.357l-5.359 5.358v5.665M41.853 29.026h-4.778L34.31 26.26M35.918 12.984l-7.382 7.384M12.628 12.696l5.333 5.333M20.19 28.706l-7.946 7.945M36.31 36.502l-5.145-5.145M28.853 33.79v4.961M28.853 40.257v2.01m0-2.01v2.01M40 21.557h2.01m-2.01 0h2.01M30.257 7.112v2.01m0-2.01v2.01"/><circle cx="10.37" cy="38.751" r="2.96" stroke="#92ceac" stroke-linejoin="bevel" stroke-miterlimit="10" stroke-width="2" transform="rotate(135 10.37 38.751)"/><circle cx="38.495" cy="10.627" r="2.96" stroke="#92ceac" stroke-linejoin="bevel" stroke-miterlimit="10" stroke-width="2" transform="rotate(135 38.495 10.627)"/><circle cx="38.495" cy="39.002" r="2.96" stroke="#92ceac" stroke-linejoin="bevel" stroke-miterlimit="10" stroke-width="2" transform="rotate(135 38.495 39.002)"/><circle cx="10.37" cy="10.602" r="2.96" stroke="#92ceac" stroke-linejoin="bevel" stroke-miterlimit="10" stroke-width="2" transform="rotate(135 10.37 10.602)"/><path fill="#5bb98c" fill-rule="evenodd" d="M25.129 20.335V12.39c0-.935-1.17-1.358-1.768-.64L11.37 26.136c-.794.954-.116 2.4 1.124 2.4h11.607v7.962c0 .934 1.165 1.358 1.766.644L37.975 22.74c.8-.952.124-2.405-1.12-2.405z" clip-rule="evenodd"/><path fill="#299764" d="M25.129 20.335h-1.005l1.005 1.005zM23.36 11.75l.772.644zM11.37 26.136l.772.644zm12.731 2.4h1.005l-1.005-1.004zm0 7.962h-1.005zm1.766.644.77.647zM37.975 22.74l.77.647zm-1.12-2.405v1.005zm-10.721 0V12.39h-2.01v7.944zm0-7.944c0-1.875-2.345-2.724-3.546-1.283l1.545 1.287.007-.008-.002.001-.013.006h-.005l.014.005-.004-.003-.006-.013-.001-.002v.01zm-3.546-1.283L10.6 25.493l1.544 1.287 11.99-14.385zM10.6 25.493c-1.34 1.608-.197 4.049 1.896 4.049v-2.01a.458.458 0 0 1-.351-.752zm1.896 4.049h11.607v-2.01H12.496zm10.602-1.005v7.961h2.01v-7.961zm0 7.961c0 1.872 2.336 2.723 3.54 1.29l-1.539-1.293-.006.007.014-.006h.005l-.007-.002-.006-.004.003.004.006.013.001.001v-.01zm3.54 1.29 12.108-14.401-1.539-1.294-12.108 14.402zm12.108-14.401c1.35-1.606.208-4.057-1.89-4.057v2.01c.39 0 .602.455.351.753zm-1.89-4.057H25.13v2.01h11.726z"/></svg>