<svg xmlns="http://www.w3.org/2000/svg" width="49" height="48" fill="none" viewBox="0 0 49 48"><rect width="48" height="48" x=".828" fill="#ddf3e4" rx="8"/><path fill="#5bb98c" stroke="#299764" stroke-linejoin="bevel" stroke-miterlimit="10" stroke-width="2" d="m25.029 21.503 6.456-4.743a6.2 6.2 0 0 0 2.526-4.991 4.48 4.48 0 0 0-4.479-4.48c-2.474 0-4.503 2.006-4.503 4.48a4.48 4.48 0 1 0-8.958 0c0 1.971.936 3.825 2.524 4.995z"/><path stroke="#299764" stroke-linejoin="bevel" stroke-width="2" d="M13.84 42.372v-6.925l-6.986-4.794V16.32a2.011 2.011 0 0 1 4.023 0v9.886l4.937 3.252m4.89 12.914V31.768a8 8 0 0 0-3.707-6.751l-6.12-3.89M36.22 42.372v-6.925l6.985-4.794V16.32a2.012 2.012 0 0 0-4.023 0v9.886l-4.937 3.252m-4.89 12.914V31.768a8 8 0 0 1 3.708-6.751l6.119-3.89M11.26 42.186h11.654M27.083 42.186h11.654"/></svg>