<svg xmlns="http://www.w3.org/2000/svg" width="49" height="49" fill="none" viewBox="0 0 49 49"><rect width="48" height="48" x=".615" y=".583" fill="#ddf3e4" rx="8"/><path stroke="#92ceac" stroke-linejoin="bevel" stroke-miterlimit="10" stroke-width="2" d="m38.024 11.617-4.27 4.27M15.724 33.535l-4.27 4.27M37.833 37.995l-4.269-4.269M15.915 15.695l-4.269-4.269"/><circle cx="9.571" cy="39.627" r="2.5" stroke="#92ceac" stroke-linejoin="bevel" stroke-miterlimit="10" stroke-width="2"/><circle cx="9.571" cy="9.553" r="2.5" stroke="#92ceac" stroke-linejoin="bevel" stroke-miterlimit="10" stroke-width="2"/><circle cx="6.128" cy="24.709" r="2.5" stroke="#92ceac" stroke-linejoin="bevel" stroke-miterlimit="10" stroke-width="2"/><circle cx="43.345" cy="24.709" r="2.5" stroke="#92ceac" stroke-linejoin="bevel" stroke-miterlimit="10" stroke-width="2"/><circle cx="24.736" cy="6.101" r="2.5" stroke="#92ceac" stroke-linejoin="bevel" stroke-miterlimit="10" stroke-width="2" transform="rotate(90 24.736 6.101)"/><circle cx="24.736" cy="43.317" r="2.5" stroke="#92ceac" stroke-linejoin="bevel" stroke-miterlimit="10" stroke-width="2" transform="rotate(90 24.736 43.317)"/><circle cx="39.679" cy="39.746" r="2.5" stroke="#92ceac" stroke-linejoin="bevel" stroke-miterlimit="10" stroke-width="2" transform="rotate(-75 39.68 39.746)"/><circle cx="39.679" cy="9.672" r="2.5" stroke="#92ceac" stroke-linejoin="bevel" stroke-miterlimit="10" stroke-width="2" transform="rotate(-75 39.68 9.672)"/><circle cx="24.7" cy="23.15" r="5" fill="#5bb98c" stroke="#299764" stroke-linejoin="bevel" stroke-miterlimit="10" stroke-width="2"/><path stroke="#299764" stroke-linejoin="bevel" stroke-miterlimit="10" stroke-width="2" d="M17.273 33.944c0-3.2 2.594-5.794 5.794-5.794h3.098c3.2 0 5.793 2.594 5.793 5.794"/><circle cx="24.7" cy="24.668" r="12" stroke="#299764" stroke-linejoin="bevel" stroke-miterlimit="10" stroke-width="2"/><path stroke="#92ceac" stroke-linejoin="bevel" stroke-miterlimit="10" stroke-width="2" d="m8.622 12.177-1.899 9.479m2.783 15.097L6.864 27.39M40.058 12.48l2.45 9.855m-2.45 14.62 2.45-9.855M36.772 9.194 27.33 6.89M12.415 8.774l9.676-2.04M36.665 40.457l-9.643 1.975m-14.654-1.975 9.708 1.975"/></svg>