<svg xmlns="http://www.w3.org/2000/svg" width="49" height="49" fill="none" viewBox="0 0 49 49"><rect width="48" height="48" x=".615" y=".583" fill="#164430" rx="8"/><circle cx="24.616" cy="24.583" r="10.445" fill="#1b543a"/><path stroke="#133929" stroke-linejoin="bevel" stroke-miterlimit="10" stroke-width="2" d="M38.533 13.81c5.914 7.82 4.369 18.954-3.45 24.869-7.82 5.914-18.955 4.369-24.869-3.451s-4.37-18.954 3.45-24.868a17.7 17.7 0 0 1 12.83-3.467"/><path stroke="#4cc38a" stroke-linejoin="bevel" stroke-miterlimit="10" stroke-width="2" d="M24.373 42.272c-9.804 0-17.752-7.948-17.752-17.753 0-4.786 1.894-9.13 4.973-12.323"/><path stroke="#4cc38a" stroke-linejoin="bevel" stroke-miterlimit="10" stroke-width="2" d="M12.125 17.245v-5.27h-5.27M24.373 6.766c9.805 0 17.753 7.949 17.753 17.753 0 4.787-1.894 9.13-4.974 12.323"/><path stroke="#4cc38a" stroke-linejoin="bevel" stroke-miterlimit="10" stroke-width="2" d="M36.622 31.793v5.27h5.27M19.051 24.732l3.61 3.61 7.518-7.518"/></svg>