<svg xmlns="http://www.w3.org/2000/svg" width="49" height="49" fill="none" viewBox="0 0 49 49"><rect width="48" height="48" x=".615" y=".583" fill="#164430" rx="8"/><path fill="#1b543a" stroke="#4cc38a" stroke-linejoin="bevel" stroke-miterlimit="10" stroke-width="2" d="m10.768 21.887 13.702-4.398h.537l13.702 4.398c.394-2.369-.559-7.51-7.528-9.134l6.258-4.23c-2.509-1.747-8.508-3.821-12.432 1.862h-.537c-3.924-5.683-9.923-3.609-12.432-1.861l6.258 4.229c-6.969 1.624-7.922 6.765-7.528 9.134Z"/><path stroke="#4cc38a" stroke-linejoin="bevel" stroke-miterlimit="10" stroke-width="2" d="m20.94 34.17 1.683-14.793a2.074 2.074 0 0 1 4.113-.068l2.153 14.606"/><path stroke="#4cc38a" stroke-linejoin="bevel" stroke-miterlimit="10" stroke-width="2" d="M39.51 40.451a19.73 19.73 0 0 0-14.787-6.642 19.73 19.73 0 0 0-14.787 6.642"/><path stroke="#4cc38a" stroke-linejoin="bevel" stroke-miterlimit="10" stroke-width="2" d="M6.32 41.287q2.593-2.593 5.185 0 2.593 2.592 5.185 0 2.593-2.593 5.185 0 2.593 2.592 5.185 0 2.593-2.593 5.185 0 2.593 2.592 5.185 0 2.593-2.593 5.185 0"/></svg>