<svg width="49" height="49" viewBox="0 0 49 49" fill="none" xmlns="http://www.w3.org/2000/svg">
<rect x="0.615234" y="0.583008" width="48" height="48" rx="8" fill="#164430"/>
<path d="M18.8701 24.5488L21.6753 30.3739" stroke="#133929" stroke-width="2.01025" stroke-miterlimit="10" stroke-linejoin="bevel"/>
<path d="M32.5746 30.683L30.3 32.5934" stroke="#133929" stroke-width="2.01025" stroke-miterlimit="10" stroke-linejoin="bevel"/>
<path d="M24.1841 19.3013L30.3125 21.4368" stroke="#133929" stroke-width="2.01025" stroke-miterlimit="10" stroke-linejoin="bevel"/>
<path d="M11.7754 39.0007L17.439 37.7939" stroke="#133929" stroke-width="2" stroke-miterlimit="10" stroke-linejoin="bevel"/>
<path d="M37.2285 39.8081L30.6406 38.8569" stroke="#133929" stroke-width="2" stroke-miterlimit="10" stroke-linejoin="bevel"/>
<ellipse cx="24.1048" cy="35.4532" rx="2.34112" ry="2.34112" fill="#1B543A" stroke="#4CC38A" stroke-width="2" stroke-miterlimit="10" stroke-linejoin="bevel"/>
<path d="M20.1445 40.9811V40.9811C20.1445 39.2209 21.5715 37.7939 23.3317 37.7939H25.0361C26.7963 37.7939 28.2233 39.2209 28.2233 40.9811V40.9811" stroke="#4CC38A" stroke-width="2" stroke-miterlimit="10" stroke-linejoin="bevel"/>
<ellipse cx="24.1837" cy="36.0558" rx="6.55531" ry="6.55532" stroke="#4CC38A" stroke-width="2" stroke-miterlimit="10" stroke-linejoin="bevel"/>
<path d="M12.0375 25.0637L10.0928 36.694" stroke="#133929" stroke-width="2" stroke-miterlimit="10" stroke-linejoin="bevel"/>
<path d="M37.7832 16.6614L38.7832 12.0378" stroke="#133929" stroke-width="2" stroke-miterlimit="10" stroke-linejoin="bevel"/>
<path d="M36.8184 9.90649L24.105 12.6675" stroke="#133929" stroke-width="2" stroke-miterlimit="10" stroke-linejoin="bevel"/>
<ellipse cx="15.0146" cy="14.2197" rx="4.00096" ry="4.00096" fill="#1B543A" stroke="#4CC38A" stroke-width="2" stroke-miterlimit="10" stroke-linejoin="bevel"/>
<path d="M9.42188 22.7209V22.7209C9.42188 20.2354 11.4368 18.2205 13.9224 18.2205H16.329C18.8146 18.2205 20.8295 20.2354 20.8295 22.7209V22.7209" stroke="#4CC38A" stroke-width="2" stroke-miterlimit="10" stroke-linejoin="bevel"/>
<ellipse cx="15.1256" cy="15.766" rx="9.25647" ry="9.25647" stroke="#4CC38A" stroke-width="2" stroke-miterlimit="10" stroke-linejoin="bevel"/>
<ellipse cx="9.64062" cy="39.6973" rx="2.56982" ry="2.56982" stroke="#133929" stroke-width="2" stroke-miterlimit="10" stroke-linejoin="bevel"/>
<ellipse cx="39.6504" cy="39.6973" rx="2.56982" ry="2.56982" stroke="#133929" stroke-width="2" stroke-miterlimit="10" stroke-linejoin="bevel"/>
<path d="M39.554 36.884L39.1313 32.1631" stroke="#133929" stroke-width="2" stroke-miterlimit="10" stroke-linejoin="bevel"/>
<ellipse cx="39.6504" cy="9.46802" rx="2.56982" ry="2.56982" stroke="#133929" stroke-width="2" stroke-miterlimit="10" stroke-linejoin="bevel"/>
<ellipse cx="37.5046" cy="23.2946" rx="3.24434" ry="3.24434" fill="#1B543A" stroke="#4CC38A" stroke-width="2.01025" stroke-miterlimit="10" stroke-linejoin="bevel"/>
<path d="M32.9697 30.1885V30.1885C32.9697 28.173 34.6036 26.5391 36.6191 26.5391H38.5707C40.5862 26.5391 42.2201 28.173 42.2201 30.1885V30.1885" stroke="#4CC38A" stroke-width="2" stroke-miterlimit="10" stroke-linejoin="bevel"/>
<ellipse cx="37.5948" cy="24.5487" rx="7.50598" ry="7.50598" stroke="#4CC38A" stroke-width="2" stroke-miterlimit="10" stroke-linejoin="bevel"/>
</svg>
