<svg xmlns="http://www.w3.org/2000/svg" width="49" height="49" fill="none" viewBox="0 0 49 49"><rect width="48" height="48" x=".615" y=".583" fill="#164430" rx="8"/><path stroke="#133929" stroke-linejoin="bevel" stroke-miterlimit="10" stroke-width="2.01" d="m18.87 24.549 2.805 5.825M32.575 30.683l-2.275 1.91M24.184 19.301l6.128 2.136"/><path stroke="#133929" stroke-linejoin="bevel" stroke-miterlimit="10" stroke-width="2" d="m11.775 39 5.664-1.206M37.229 39.808l-6.588-.951"/><circle cx="24.105" cy="35.453" r="2.341" fill="#1b543a" stroke="#4cc38a" stroke-linejoin="bevel" stroke-miterlimit="10" stroke-width="2"/><path stroke="#4cc38a" stroke-linejoin="bevel" stroke-miterlimit="10" stroke-width="2" d="M20.145 40.981a3.187 3.187 0 0 1 3.187-3.187h1.704a3.187 3.187 0 0 1 3.187 3.187"/><circle cx="24.184" cy="36.056" r="6.555" stroke="#4cc38a" stroke-linejoin="bevel" stroke-miterlimit="10" stroke-width="2"/><path stroke="#133929" stroke-linejoin="bevel" stroke-miterlimit="10" stroke-width="2" d="m12.038 25.064-1.945 11.63M37.783 16.661l1-4.623M36.818 9.906l-12.713 2.762"/><circle cx="15.015" cy="14.22" r="4.001" fill="#1b543a" stroke="#4cc38a" stroke-linejoin="bevel" stroke-miterlimit="10" stroke-width="2"/><path stroke="#4cc38a" stroke-linejoin="bevel" stroke-miterlimit="10" stroke-width="2" d="M9.422 22.72a4.5 4.5 0 0 1 4.5-4.5h2.407a4.5 4.5 0 0 1 4.5 4.5"/><circle cx="15.126" cy="15.766" r="9.256" stroke="#4cc38a" stroke-linejoin="bevel" stroke-miterlimit="10" stroke-width="2"/><circle cx="9.641" cy="39.697" r="2.57" stroke="#133929" stroke-linejoin="bevel" stroke-miterlimit="10" stroke-width="2"/><circle cx="39.65" cy="39.697" r="2.57" stroke="#133929" stroke-linejoin="bevel" stroke-miterlimit="10" stroke-width="2"/><path stroke="#133929" stroke-linejoin="bevel" stroke-miterlimit="10" stroke-width="2" d="m39.554 36.884-.423-4.72"/><circle cx="39.65" cy="9.468" r="2.57" stroke="#133929" stroke-linejoin="bevel" stroke-miterlimit="10" stroke-width="2"/><circle cx="37.505" cy="23.295" r="3.244" fill="#1b543a" stroke="#4cc38a" stroke-linejoin="bevel" stroke-miterlimit="10" stroke-width="2.01"/><path stroke="#4cc38a" stroke-linejoin="bevel" stroke-miterlimit="10" stroke-width="2" d="M32.97 30.189a3.65 3.65 0 0 1 3.65-3.65h1.95a3.65 3.65 0 0 1 3.65 3.65"/><circle cx="37.595" cy="24.549" r="7.506" stroke="#4cc38a" stroke-linejoin="bevel" stroke-miterlimit="10" stroke-width="2"/></svg>