<svg width="49" height="49" viewBox="0 0 49 49" fill="none" xmlns="http://www.w3.org/2000/svg">
<path d="M18.6245 23.9658L21.4297 29.7909" stroke="#133929" stroke-width="2.01025" stroke-miterlimit="10" stroke-linejoin="bevel"/>
<path d="M32.329 30.1L30.0543 32.0104" stroke="#133929" stroke-width="2.01025" stroke-miterlimit="10" stroke-linejoin="bevel"/>
<path d="M23.9385 18.7183L30.0669 20.8538" stroke="#133929" stroke-width="2.01025" stroke-miterlimit="10" stroke-linejoin="bevel"/>
<path d="M11.5298 38.4177L17.1934 37.2109" stroke="#133929" stroke-width="2" stroke-miterlimit="10" stroke-linejoin="bevel"/>
<path d="M36.9829 39.2251L30.395 38.2739" stroke="#133929" stroke-width="2" stroke-miterlimit="10" stroke-linejoin="bevel"/>
<ellipse cx="23.8592" cy="34.8702" rx="2.34112" ry="2.34112" fill="#1B543A" stroke="#4CC38A" stroke-width="2" stroke-miterlimit="10" stroke-linejoin="bevel"/>
<path d="M19.8992 40.3981V40.3981C19.8992 38.6379 21.3261 37.2109 23.0864 37.2109H24.7907C26.551 37.2109 27.9779 38.6379 27.9779 40.3981V40.3981" stroke="#4CC38A" stroke-width="2" stroke-miterlimit="10" stroke-linejoin="bevel"/>
<ellipse cx="23.9384" cy="35.4728" rx="6.55531" ry="6.55532" stroke="#4CC38A" stroke-width="2" stroke-miterlimit="10" stroke-linejoin="bevel"/>
<path d="M11.7919 24.4807L9.84717 36.111" stroke="#133929" stroke-width="2" stroke-miterlimit="10" stroke-linejoin="bevel"/>
<path d="M37.5376 16.0784L38.5376 11.4548" stroke="#133929" stroke-width="2" stroke-miterlimit="10" stroke-linejoin="bevel"/>
<path d="M36.573 9.32349L23.8596 12.0845" stroke="#133929" stroke-width="2" stroke-miterlimit="10" stroke-linejoin="bevel"/>
<ellipse cx="14.769" cy="13.6366" rx="4.00096" ry="4.00096" fill="#1B543A" stroke="#4CC38A" stroke-width="2" stroke-miterlimit="10" stroke-linejoin="bevel"/>
<path d="M9.17627 22.1381V22.1381C9.17627 19.6525 11.1912 17.6376 13.6768 17.6376H16.0834C18.569 17.6376 20.5839 19.6525 20.5839 22.1381V22.1381" stroke="#4CC38A" stroke-width="2" stroke-miterlimit="10" stroke-linejoin="bevel"/>
<ellipse cx="14.88" cy="15.183" rx="9.25647" ry="9.25647" stroke="#4CC38A" stroke-width="2" stroke-miterlimit="10" stroke-linejoin="bevel"/>
<ellipse cx="9.39502" cy="39.1143" rx="2.56982" ry="2.56982" stroke="#133929" stroke-width="2" stroke-miterlimit="10" stroke-linejoin="bevel"/>
<ellipse cx="39.4048" cy="39.1143" rx="2.56982" ry="2.56982" stroke="#133929" stroke-width="2" stroke-miterlimit="10" stroke-linejoin="bevel"/>
<path d="M39.3083 36.301L38.8857 31.5801" stroke="#133929" stroke-width="2" stroke-miterlimit="10" stroke-linejoin="bevel"/>
<ellipse cx="39.4048" cy="8.88501" rx="2.56982" ry="2.56982" stroke="#133929" stroke-width="2" stroke-miterlimit="10" stroke-linejoin="bevel"/>
<ellipse cx="37.259" cy="22.7117" rx="3.24434" ry="3.24434" fill="#1B543A" stroke="#4CC38A" stroke-width="2.01025" stroke-miterlimit="10" stroke-linejoin="bevel"/>
<path d="M32.7241 29.6055V29.6055C32.7241 27.5899 34.358 25.9561 36.3735 25.9561H38.3251C40.3406 25.9561 41.9745 27.5899 41.9745 29.6055V29.6055" stroke="#4CC38A" stroke-width="2" stroke-miterlimit="10" stroke-linejoin="bevel"/>
<ellipse cx="37.3492" cy="23.9657" rx="7.50598" ry="7.50598" stroke="#4CC38A" stroke-width="2" stroke-miterlimit="10" stroke-linejoin="bevel"/>
</svg>
