<svg width="49" height="49" viewBox="0 0 49 49" fill="none" xmlns="http://www.w3.org/2000/svg">
<rect x="15.5361" y="37.8438" width="3.88525" height="3.84033" stroke="#133929" stroke-width="2" stroke-miterlimit="10" stroke-linejoin="bevel"/>
<rect x="28.8843" y="37.8438" width="3.88525" height="3.84033" stroke="#133929" stroke-width="2" stroke-miterlimit="10" stroke-linejoin="bevel"/>
<path d="M21.9834 14.9556L26.1099 19.082" stroke="#133929" stroke-width="2.01025" stroke-miterlimit="10" stroke-linejoin="bevel"/>
<path d="M26.1094 14.9553L21.9829 19.0818" stroke="#133929" stroke-width="2.01025" stroke-miterlimit="10" stroke-linejoin="bevel"/>
<path d="M37.6183 18.5278V14.3242C37.6183 11.0105 34.9321 8.32417 31.6183 8.32417H16.4761C13.1624 8.32417 10.4761 11.0105 10.4761 14.3242V18.5278" stroke="#4CC38A" stroke-width="2" stroke-miterlimit="10" stroke-linejoin="bevel"/>
<path d="M38.5384 25.52L38.3876 24.5314L37.5384 25.52H38.5384ZM34.2019 21.7569L35.2018 21.7744L35.2018 21.7678L34.2019 21.7569ZM34.2015 24.988L34.0469 25.976L35.2015 24.988H34.2015ZM32.1087 24.6604L31.954 25.6484V25.6484L32.1087 24.6604ZM15.9882 24.6604L16.1428 25.6484L15.9882 24.6604ZM13.8922 24.9885H12.8922L14.0468 25.9764L13.8922 24.9885ZM13.8922 21.7957H14.8922L14.8922 21.7932L13.8922 21.7957ZM13.8922 21.7843L14.8922 21.7819L14.8922 21.7804L13.8922 21.7843ZM9.55531 25.3946H10.5553L9.7396 24.4117L9.55531 25.3946ZM9.55891 33.1722L10.5589 33.1722L10.5573 33.115L9.55891 33.1722ZM9.55892 33.3761L8.55892 33.3761V33.3761L9.55892 33.3761ZM38.538 33.3761L37.538 33.3761V33.3761L38.538 33.3761ZM38.538 33.0882L37.5382 33.0692L37.538 33.0882L38.538 33.0882ZM40.7305 21.7988C40.7305 23.1818 39.714 24.3291 38.3876 24.5314L38.6892 26.5086C40.9776 26.1595 42.7305 24.1848 42.7305 21.7988H40.7305ZM37.9661 19.0344C39.4928 19.0344 40.7305 20.2721 40.7305 21.7988H42.7305C42.7305 19.1675 40.5974 17.0344 37.9661 17.0344V19.0344ZM35.2018 21.7678C35.2183 20.2555 36.4497 19.0344 37.9661 19.0344V17.0344C35.3524 17.0344 33.2304 19.1389 33.2019 21.746L35.2018 21.7678ZM35.2015 21.7957C35.2015 21.7886 35.2016 21.7815 35.2017 21.7744L33.202 21.7394C33.2017 21.7581 33.2015 21.7768 33.2015 21.7957H35.2015ZM35.2015 24.988V21.7957H33.2015V24.988H35.2015ZM31.954 25.6484L34.0469 25.976L34.3562 24L32.2633 23.6724L31.954 25.6484ZM16.1428 25.6484C21.3813 24.8285 26.7155 24.8285 31.954 25.6484L32.2633 23.6724C26.8199 22.8204 21.277 22.8204 15.8335 23.6724L16.1428 25.6484ZM14.0468 25.9764L16.1428 25.6484L15.8335 23.6724L13.7376 24.0005L14.0468 25.9764ZM12.8922 21.7989V24.9885H14.8922V21.7989H12.8922ZM12.8922 21.7957V21.7989H14.8922V21.7957H12.8922ZM12.8922 21.7868L12.8922 21.7981L14.8922 21.7932L14.8922 21.7819L12.8922 21.7868ZM10.2337 19.1404C11.6984 19.1404 12.8865 20.3249 12.8922 21.7882L14.8922 21.7804C14.8822 19.2161 12.8004 17.1404 10.2337 17.1404V19.1404ZM7.5752 21.7989C7.5752 20.3306 8.76545 19.1404 10.2337 19.1404V17.1404C7.66088 17.1404 5.5752 19.2261 5.5752 21.7989H7.5752ZM9.7396 24.4117C8.50746 24.1807 7.5752 23.0976 7.5752 21.7989H5.5752C5.5752 24.0776 7.21035 25.9724 9.37103 26.3775L9.7396 24.4117ZM10.5553 33.0462V25.3946H8.55531V33.0462H10.5553ZM10.5573 33.115C10.556 33.0923 10.5553 33.0694 10.5553 33.0462H8.55531C8.55531 33.1076 8.55707 33.1687 8.56055 33.2294L10.5573 33.115ZM10.5589 33.3761L10.5589 33.1722L8.55891 33.1722L8.55892 33.3761L10.5589 33.3761ZM14.0267 36.8439C12.1115 36.8439 10.5589 35.2913 10.5589 33.3761L8.55892 33.3761C8.55894 36.3959 11.0069 38.8439 14.0267 38.8439V36.8439ZM34.0703 36.8439H14.0267V38.8439H34.0703V36.8439ZM37.538 33.3761C37.5381 35.2913 35.9855 36.8439 34.0703 36.8439V38.8439C37.09 38.8439 39.5381 36.3958 39.538 33.3761L37.538 33.3761ZM37.538 33.0882L37.538 33.3761L39.538 33.3761L39.538 33.0882L37.538 33.0882ZM37.5384 33.0462C37.5384 33.0539 37.5384 33.0616 37.5382 33.0692L39.5379 33.1072C39.5382 33.0869 39.5384 33.0666 39.5384 33.0462H37.5384ZM37.5384 25.52V33.0462H39.5384V25.52H37.5384Z" fill="#4CC38A"/>
<path d="M13.877 25.0591L15.8492 24.7173C21.2734 23.7772 26.8189 23.7772 32.2431 24.7173L34.2153 25.0591V29.2755H13.877V25.0591Z" fill="#133929" stroke="#4CC38A" stroke-width="2" stroke-miterlimit="10" stroke-linejoin="bevel"/>
</svg>
