<svg xmlns="http://www.w3.org/2000/svg" width="49" height="49" fill="none" viewBox="0 0 49 49"><rect width="48" height="48" x=".615" y=".583" fill="#ddf3e4" rx="8"/><path stroke="#92ceac" stroke-linejoin="bevel" stroke-miterlimit="10" stroke-width="2" d="M16.105 38.427h3.885v3.84h-3.885zM29.453 38.427h3.885v3.84h-3.885z"/><path stroke="#92ceac" stroke-linejoin="bevel" stroke-miterlimit="10" stroke-width="2.01" d="m22.552 15.539 4.126 4.126M26.678 15.538l-4.127 4.127"/><path stroke="#299764" stroke-linejoin="bevel" stroke-miterlimit="10" stroke-width="2" d="M38.187 19.11v-4.203a6 6 0 0 0-6-6H17.044a6 6 0 0 0-6 6v4.204"/><path fill="#299764" d="m39.107 26.103-.151-.989-.85.989zM34.77 22.34l1 .017v-.006zm0 3.231-.155.988 1.155-.988zm-2.093-.328.155-.987zm-16.12 0 .154.988zm-2.096.329h-1l1.154.988zm0-3.193h1v-.003zm0-.012 1-.002v-.002zm-4.337 3.61h1l-.816-.982zm.003 7.778h1l-.001-.057zm0 .204h-1zm28.98 0h-1zm0-.288-1-.019v.02zm2.192-11.29a2.765 2.765 0 0 1-2.343 2.733l.302 1.978a4.765 4.765 0 0 0 4.04-4.71zm-2.765-2.764a2.764 2.764 0 0 1 2.765 2.765h2a4.764 4.764 0 0 0-4.765-4.765zm-2.764 2.734a2.764 2.764 0 0 1 2.764-2.734v-2a4.764 4.764 0 0 0-4.764 4.712zm0 .028v-.022l-2-.034v.056zm0 3.192v-3.192h-2v3.192zm-3.248.66 2.093.328.31-1.976-2.093-.327zm-15.81 0a51.1 51.1 0 0 1 15.81 0l.31-1.976a53.1 53.1 0 0 0-16.43 0zm-2.097.328 2.096-.328-.31-1.976-2.095.329zm-1.154-4.177v3.19h2v-3.19zm0-.003v.003h2v-.003zm0-.01v.012l2-.005v-.011zm-2.659-2.646a2.66 2.66 0 0 1 2.659 2.648l2-.008a4.66 4.66 0 0 0-4.659-4.64zm-2.658 2.659a2.66 2.66 0 0 1 2.658-2.659v-2a4.66 4.66 0 0 0-4.658 4.659zm2.164 2.613a2.66 2.66 0 0 1-2.164-2.613h-2a4.66 4.66 0 0 0 3.795 4.578zm.816 8.634v-7.651h-2v7.651zm.002.069-.002-.069h-2q0 .093.005.183zm.001.261v-.204h-2v.204zm3.468 3.468a3.47 3.47 0 0 1-3.468-3.468h-2a5.47 5.47 0 0 0 5.468 5.468zm20.044 0H14.595v2H34.64zm3.467-3.468a3.47 3.47 0 0 1-3.467 3.468v2a5.47 5.47 0 0 0 5.467-5.468zm0-.288v.288h2v-.288zm0-.042v.023l2 .038v-.06zm0-7.526v7.526h2v-7.526z"/><path fill="#5bb98c" stroke="#299764" stroke-linejoin="bevel" stroke-miterlimit="10" stroke-width="2" d="m14.445 25.642 1.973-.342a48 48 0 0 1 16.393 0l1.973.342v4.217H14.445z"/></svg>