<svg xmlns="http://www.w3.org/2000/svg" width="49" height="49" fill="none" viewBox="0 0 49 49"><path stroke="#299764" stroke-linejoin="bevel" stroke-miterlimit="10" stroke-width="2" d="M13.394 31.224h23.455"/><path stroke="#92ceac" stroke-linejoin="bevel" stroke-miterlimit="10" stroke-width="2" d="M9.175 22.111c0-3.245.976-6.262 2.65-8.774l1.118-1.425 1.427-1.53a15.8 15.8 0 0 1 6.724-3.621m19.76 15.35c0-7.395-5.067-13.606-11.919-15.35"/><path stroke="#299764" stroke-linejoin="bevel" stroke-miterlimit="10" stroke-width="2" d="M25.051 7.168v3.058"/><path fill="#5bb98c" stroke="#299764" stroke-linejoin="bevel" stroke-miterlimit="10" stroke-width="2" d="M22.257 37.927h5.297v4.002h-5.297z"/><path stroke="#299764" stroke-linejoin="bevel" stroke-miterlimit="10" stroke-width="2" d="M7.981 7.653 42.74 42.41M10.916 37.85h27.869v-6.638h-2.437v-9.505c0-6.284-5.095-11.38-11.38-11.38a11.34 11.34 0 0 0-7.647 2.953l-1.024 1.1-.804 1.023a11.33 11.33 0 0 0-1.904 6.304l-.126 9.505h-2.547z"/></svg>