<svg width="16" height="16" viewBox="0 0 16 16" fill="none" xmlns="http://www.w3.org/2000/svg">
<rect width="16" height="16" fill="black"/>
<path d="M5.77778 6.5L7.44444 8L5.77778 9.5M8.55556 9.5H10.2222M4.11111 12H11.8889C12.1836 12 12.4662 11.8946 12.6746 11.7071C12.8829 11.5196 13 11.2652 13 11V5C13 4.73478 12.8829 4.48043 12.6746 4.29289C12.4662 4.10536 12.1836 4 11.8889 4H4.11111C3.81643 4 3.53381 4.10536 3.32544 4.29289C3.11706 4.48043 3 4.73478 3 5V11C3 11.2652 3.11706 11.5196 3.32544 11.7071C3.53381 11.8946 3.81643 12 4.11111 12Z" stroke="white" stroke-linecap="round" stroke-linejoin="round"/>
</svg>
