<svg xmlns="http://www.w3.org/2000/svg" width="349" height="174" fill="none" viewBox="0 0 349 174"><g clip-path="url(#a)"><path fill="#171717" d="M0 0h349v174H0z"/><path fill="#171717" d="M-309-11.735h681.913v195.47H-309z"/><mask id="c" width="137" height="115" x="70" y="33" maskUnits="userSpaceOnUse" style="mask-type:alpha"><path fill="url(#b)" d="M70.467 33.316h136.199V147.14H70.467z"/></mask><g fill="#898989" mask="url(#c)"><path d="M183.751 41.127a17.63 17.63 0 0 0-9.868 3.02l-53.218 35.951a18.08 18.08 0 0 1-10.118 3.098H82.833v-.447h27.714c3.517 0 6.954-1.052 9.868-3.02l53.218-35.952a18.08 18.08 0 0 1 10.118-3.097h20.434v.447zM183.751 137.43a17.63 17.63 0 0 1-9.868-3.02l-53.218-35.952a18.08 18.08 0 0 0-10.118-3.097H82.833v.446h27.714c3.517 0 6.954 1.052 9.868 3.021l53.218 35.951a18.07 18.07 0 0 0 10.118 3.098h20.434v-.447zM82.833 89.502h117.215v-.447H82.833z"/></g><mask id="e" width="102" height="99" x="68" y="38" maskUnits="userSpaceOnUse" style="mask-type:alpha"><path fill="url(#d)" d="M68.122 38.395h101.412v97.609H68.122z"/></mask><g fill="#b4b4b4" mask="url(#e)"><path d="m147.273 62.123-26.609 17.976a18.08 18.08 0 0 1-10.118 3.097H82.832v-.447h27.714c3.517 0 6.954-1.051 9.868-3.02l26.609-17.976zM147.273 116.434l-26.609-17.975a18.08 18.08 0 0 0-10.118-3.098H82.832v.447h27.714c3.517 0 6.954 1.052 9.868 3.02l26.609 17.976zM82.832 89.502h58.607v-.447H82.832z"/></g><path fill="#171717" d="M36.82 72.43a6.783 6.783 0 0 1 6.783-6.783h32.132a6.783 6.783 0 0 1 6.784 6.783v32.132a6.784 6.784 0 0 1-6.784 6.784H43.603a6.784 6.784 0 0 1-6.783-6.784z"/><path stroke="#363636" stroke-width=".714" d="M36.82 72.43a6.783 6.783 0 0 1 6.783-6.783h32.132a6.783 6.783 0 0 1 6.784 6.783v32.132a6.784 6.784 0 0 1-6.784 6.784H43.603a6.784 6.784 0 0 1-6.783-6.784z"/><path fill="#b4b4b4" fill-rule="evenodd" d="M55.206 79.57a4.463 4.463 0 0 1 8.926 0v2.679a4.463 4.463 0 0 1 4.413 4.462v8.926a4.463 4.463 0 0 1-4.462 4.463h-8.926a4.463 4.463 0 0 1-4.463-4.463V86.71a4.463 4.463 0 0 1 4.463-4.462h.049zm-.049 4.464a2.68 2.68 0 0 0-2.678 2.677v.848h8.072c.493 0 .892.4.892.892v7.14c0 .494-.4.893-.892.893h-7.935a2.68 2.68 0 0 0 2.541 1.83h8.926a2.68 2.68 0 0 0 2.677-2.677V86.71a2.68 2.68 0 0 0-2.677-2.677zm7.19-1.785H56.99V79.57a2.678 2.678 0 0 1 5.355 0zm-9.83 12.45h7.141v-1.785h-7.14zm0-3.57h7.141v-1.785h-7.14z" clip-rule="evenodd"/><path fill="#1f1f1f" d="M200.203 40.033c0-7.64 6.194-13.834 13.835-13.834h68.206c7.641 0 13.835 6.194 13.835 13.834 0 7.641-6.194 13.835-13.835 13.835h-68.206c-7.641 0-13.835-6.194-13.835-13.835"/><path stroke="#2e2e2e" stroke-width=".893" d="M200.203 40.033c0-7.64 6.194-13.834 13.835-13.834h68.206c7.641 0 13.835 6.194 13.835 13.834 0 7.641-6.194 13.835-13.835 13.835h-68.206c-7.641 0-13.835-6.194-13.835-13.835Z"/><path fill="#b4b4b4" d="m213.894 42.49 1.589-10.178c.054-.347.52-.429.684-.119l1.707 3.195zm11.291 2.473-1.515-9.374a.367.367 0 0 0-.62-.201l-9.548 9.575 5.285 2.967a1.11 1.11 0 0 0 1.068 0zm-4.29-8.178-1.223-2.328a.364.364 0 0 0-.648 0l-5.376 9.584zM239.426 44.533h-1.138v-8.226h5.001v1.056h-3.863v2.645h3.504v1.068h-3.504zm6.16 0h-1.079v-5.58h1.079zm-1.323-7.693a.782.782 0 1 1 .777.777.777.777 0 0 1-.777-.777m6.276 2.054v1.16a3.4 3.4 0 0 0-.475-.034c-.917 0-1.532.487-1.532 1.717v2.796h-1.091v-5.58h1.068v.974c.406-.859 1.102-1.068 1.671-1.068.151 0 .301.024.359.035m1.814 2.275h3.052c-.023-.801-.546-1.428-1.532-1.428-.917 0-1.474.708-1.52 1.428m3.214 1.45.94.325c-.313.986-1.207 1.764-2.506 1.764-1.497 0-2.808-1.091-2.808-2.983 0-1.752 1.265-2.947 2.669-2.947 1.717 0 2.68 1.184 2.68 2.924 0 .14-.012.279-.023.348h-4.201c.023.998.743 1.694 1.683 1.694.905 0 1.357-.498 1.566-1.125m3.446 1.914h-1.079v-8.4h1.079v3.608c.267-.499.917-.951 1.845-.951 1.694 0 2.564 1.3 2.564 2.924 0 1.66-.939 2.97-2.599 2.97-.823 0-1.462-.36-1.81-.963zm3.296-2.82c0-1.206-.639-1.96-1.648-1.96-.963 0-1.659.754-1.659 1.96 0 1.208.696 1.997 1.659 1.997.998 0 1.648-.79 1.648-1.996m2.155 1.324c0-.998.731-1.555 1.694-1.694l1.509-.22c.336-.047.429-.221.429-.419 0-.545-.36-.998-1.207-.998-.766 0-1.195.476-1.265 1.126l-1.044-.244c.116-1.067 1.079-1.81 2.286-1.81 1.671 0 2.321.952 2.321 2.042v2.797c0 .487.046.777.069.916h-1.067c-.023-.139-.058-.348-.058-.754-.244.395-.801.928-1.799.928-1.137 0-1.868-.788-1.868-1.67m2.019.754c.894 0 1.613-.43 1.613-1.648v-.255l-1.706.255c-.464.07-.812.337-.812.836 0 .417.348.812.905.812m3.881-.708.986-.348c.07.58.51 1.044 1.299 1.044.615 0 .952-.348.952-.742 0-.349-.255-.615-.719-.72l-.952-.209c-.87-.185-1.392-.777-1.392-1.566 0-.952.893-1.764 1.984-1.764 1.531 0 2.007.998 2.123 1.497l-.963.36c-.046-.29-.278-.928-1.16-.928-.557 0-.928.36-.928.742 0 .337.208.58.638.673l.905.197c1.009.22 1.543.836 1.543 1.66 0 .789-.661 1.729-2.042 1.729-1.532 0-2.182-.987-2.274-1.625m6.419-1.914h3.052c-.023-.801-.545-1.428-1.532-1.428-.916 0-1.473.708-1.52 1.428m3.214 1.45.94.325c-.313.986-1.206 1.764-2.506 1.764-1.497 0-2.808-1.091-2.808-2.983 0-1.752 1.265-2.947 2.669-2.947 1.717 0 2.68 1.184 2.68 2.924 0 .14-.012.279-.023.348h-4.2c.023.998.742 1.694 1.682 1.694.905 0 1.358-.498 1.566-1.125"/><rect width="83.876" height="27.669" x="200.203" y="75.289" fill="#1f1f1f" rx="13.835"/><rect width="83.876" height="27.669" x="200.203" y="75.289" stroke="#2e2e2e" stroke-width=".893" rx="13.835"/><path fill="#b4b4b4" d="m223.676 95.175-1.598-4.931 4.188-3.034h-5.18l-1.602-4.927-.001-.002h5.18l1.602 4.927h.002a7.14 7.14 0 0 1-2.59 7.968zm-8.38 0h-.002l4.191 3.046 4.19-3.045-4.188-3.044zm-2.588-7.968a7.13 7.13 0 0 0 2.588 7.97l.001-.002 1.6-4.924-4.187-3.043h5.176l1.6-4.925h.002-5.18zM243.986 93.624l-.894-2.297h-3.643l-.87 2.297h-1.219l3.272-8.227h1.311l3.273 8.227zm-2.727-7.043-1.404 3.69h2.831zm8.388 6.37c-.302.58-.998.847-1.648.847-1.3 0-2.089-.975-2.089-2.24v-3.515h1.091v3.353c0 .766.348 1.439 1.265 1.439.882 0 1.323-.58 1.323-1.427v-3.365h1.09v4.548c0 .441.035.836.058 1.033h-1.044a5 5 0 0 1-.046-.673m4.355-6.672v1.764h1.207v.986h-1.207v2.901c0 .51.209.766.778.766.139 0 .336-.023.429-.047v.929a2.4 2.4 0 0 1-.742.104c-.952 0-1.555-.58-1.555-1.59V89.03h-1.068v-.986h.302c.603 0 .859-.371.859-.859v-.905zm3.754 4.061v3.284h-1.091v-8.4h1.091v3.469c.406-.592 1.056-.813 1.694-.813 1.334 0 1.996.964 1.996 2.205v3.539h-1.091v-3.353c0-.778-.325-1.404-1.3-1.404-.835 0-1.276.65-1.299 1.473m6.202-.475c0 1.148.209 1.96.661 2.436.29.302.662.488 1.195.488.534 0 .906-.186 1.196-.488.452-.475.661-1.288.661-2.436 0-1.15-.209-1.961-.661-2.437-.29-.302-.662-.487-1.196-.487s-.905.185-1.195.487c-.452.476-.661 1.288-.661 2.437m-1.126 0c0-1.033.174-1.985.673-2.727.488-.731 1.242-1.207 2.309-1.207s1.822.476 2.309 1.207c.499.742.673 1.694.673 2.727s-.174 1.984-.673 2.726c-.487.731-1.241 1.207-2.309 1.207-1.067 0-1.821-.476-2.309-1.207-.499-.742-.673-1.694-.673-2.726"/><path fill="#1f1f1f" d="M200.203 137.322c0-7.641 6.194-13.835 13.835-13.835h94.611c7.64 0 13.834 6.194 13.834 13.835s-6.194 13.835-13.834 13.835h-94.611c-7.641 0-13.835-6.194-13.835-13.835"/><path stroke="#2e2e2e" stroke-width=".893" d="M200.203 137.322c0-7.641 6.194-13.835 13.835-13.835h94.611c7.64 0 13.834 6.194 13.834 13.835s-6.194 13.835-13.834 13.835h-94.611c-7.641 0-13.835-6.194-13.835-13.835Z"/><path fill="#b4b4b4" d="m223.924 132.48 1.39-.358.01.016.035 8.394-.045.045-.286.012-1.088-.169-.016-.043zM215.884 141.16l.005.001 3.67 1.066.009.007.016.013-.005 3.195-.011.014-3.684-1.79z"/><path fill="#898989" d="m223.924 140.377-4.35 1.042-2.184-.527-1.506.268 3.684 1.074 5.686-1.539.06-.118zM223.252 133.644l-.036-.041-3.609-1.048-.04.015-.036-.019-5.679 1.638-.031.038.046.025 1.299.19.045-.015 4.35-1.042 2.184.527z"/><path fill="#898989" d="m215.211 142.324-1.39.335-.003-.008-.054-8.362.057-.062 1.39.2z"/><path fill="#b4b4b4" d="m217.088 139.08 2.479.291.019-.028.01-3.878-.029-.032-2.479.291z"/><path fill="#898989" d="m222.047 139.08-2.48.291v-3.938l2.48.291z"/><path fill="#b4b4b4" d="m223.251 133.644-3.684-1.074v-3.222l3.684 1.79z"/><path fill="#b4b4b4" d="m219.568 129.348-6.905 3.334v9.44l1.159.537v-8.432l5.746-1.657zM225.314 132.122v8.455l-5.747 1.657v3.222l6.905-3.334v-9.44zM244.188 141.822l-.894-2.297h-3.643l-.87 2.297h-1.219l3.272-8.227h1.312l3.272 8.227zm-2.727-7.043-1.404 3.69h2.831zm12.083 5.326 1.775-6.51h1.172l-2.344 8.227h-1.172l-2.146-6.672-2.124 6.672h-1.137l-2.378-8.227h1.172l1.81 6.44 2.065-6.44h1.195zm9.409-4.642-1.021.36c-.093-.592-.592-1.404-1.74-1.404-.929 0-1.59.604-1.59 1.369 0 .592.36 1.045 1.056 1.195l1.23.267c1.369.302 2.135 1.161 2.135 2.309 0 1.277-1.091 2.437-2.843 2.437-1.984 0-2.924-1.276-3.075-2.448l1.091-.348c.081.916.731 1.763 1.972 1.763 1.137 0 1.694-.591 1.694-1.311 0-.592-.406-1.102-1.23-1.276l-1.171-.255c-1.172-.256-2.008-1.021-2.008-2.251 0-1.288 1.195-2.449 2.715-2.449 1.857 0 2.599 1.149 2.785 2.042m8.097 6.533c-2.124 0-4.085-1.543-4.085-4.293s2.042-4.282 4.085-4.282c1.879 0 3.202 1.021 3.62 2.611l-1.056.371c-.313-1.241-1.219-1.937-2.564-1.937-1.497 0-2.925 1.09-2.925 3.237 0 2.146 1.428 3.249 2.925 3.249 1.403 0 2.285-.847 2.622-1.973l1.009.372c-.441 1.543-1.74 2.645-3.631 2.645m7.187-.975c.929 0 1.741-.696 1.741-1.995 0-1.288-.812-1.985-1.741-1.985-.928 0-1.74.697-1.74 1.985 0 1.299.812 1.995 1.74 1.995m0-4.954c1.671 0 2.855 1.265 2.855 2.959 0 1.705-1.184 2.97-2.855 2.97s-2.854-1.265-2.854-2.97c0-1.694 1.183-2.959 2.854-2.959m3.844 6.057 1.056-.244c.081.777.673 1.369 1.52 1.369 1.172 0 1.706-.603 1.706-1.81v-.801c-.267.511-.871.917-1.706.917-1.485 0-2.564-1.125-2.564-2.703 0-1.509 1.032-2.716 2.564-2.716.859 0 1.439.325 1.717.882v-.777h1.079v5.163c0 1.416-.696 2.797-2.796 2.797-1.392 0-2.437-.882-2.576-2.077m2.738-1.486c.94 0 1.59-.707 1.59-1.786s-.65-1.787-1.59-1.787c-.963 0-1.612.707-1.612 1.787 0 1.09.626 1.786 1.612 1.786m5.467-2.042v3.226h-1.091v-5.581h1.068v.8c.406-.696 1.067-.963 1.717-.963 1.334 0 1.996.963 1.996 2.205v3.539h-1.091v-3.353c0-.778-.325-1.404-1.299-1.404-.859 0-1.3.684-1.3 1.531m6.504 3.226h-1.079v-5.581h1.079zm-1.323-7.693a.783.783 0 1 1 .778.777.777.777 0 0 1-.778-.777m4.641.348v1.764h1.206v.986h-1.206v2.901c0 .51.208.766.777.766.139 0 .337-.023.429-.047v.929a2.4 2.4 0 0 1-.742.104c-.952 0-1.555-.58-1.555-1.59v-3.063h-1.068v-.986h.302c.603 0 .859-.371.859-.859v-.905zm4.996 6.544c.928 0 1.74-.696 1.74-1.995 0-1.288-.812-1.985-1.74-1.985s-1.741.697-1.741 1.985c0 1.299.813 1.995 1.741 1.995m0-4.954c1.671 0 2.854 1.265 2.854 2.959 0 1.705-1.183 2.97-2.854 2.97s-2.855-1.265-2.855-2.97c0-1.694 1.184-2.959 2.855-2.959"/></g><defs><linearGradient id="b" x1="203.195" x2="144.749" y1="90.228" y2="90.228" gradientUnits="userSpaceOnUse"><stop stop-color="#737373"/><stop offset="1" stop-color="#d9d9d9" stop-opacity="0"/></linearGradient><linearGradient id="d" x1="148.747" x2="84.204" y1="87.199" y2="87.199" gradientUnits="userSpaceOnUse"><stop offset=".5" stop-color="#737373"/><stop offset="1" stop-color="#d9d9d9" stop-opacity="0"/></linearGradient><clipPath id="a"><path fill="#fff" d="M0 0h349v174H0z"/></clipPath></defs></svg>