<svg xmlns="http://www.w3.org/2000/svg" width="764" height="219" fill="none" viewBox="0 0 764 219"><path fill="#171717" d="M0 0h764v219H0z"/><mask id="b" width="153" height="128" x="425" y="50" maskUnits="userSpaceOnUse" style="mask-type:alpha"><path fill="url(#a)" d="M425.146 50.475h152.595V178H425.146z"/></mask><g fill="#898989" mask="url(#b)"><path d="M552.066 59.225c-3.94 0-7.791 1.178-11.056 3.384l-59.624 40.279a20.25 20.25 0 0 1-11.336 3.47H439v-.5h31.05c3.941 0 7.791-1.178 11.056-3.384l59.624-40.28a20.25 20.25 0 0 1 11.336-3.47h22.894v.5zM552.066 167.122a19.75 19.75 0 0 1-11.056-3.385l-59.624-40.279a20.26 20.26 0 0 0-11.336-3.47H439v.5h31.05c3.941 0 7.791 1.179 11.056 3.385l59.624 40.279a20.26 20.26 0 0 0 11.336 3.47h22.894v-.5zM439 113.423h131.325v-.5H439z"/></g><mask id="d" width="115" height="110" x="422" y="56" maskUnits="userSpaceOnUse" style="mask-type:alpha"><path fill="url(#c)" d="M422.52 56.164h113.62v109.359H422.52z"/></mask><g fill="#b4b4b4" mask="url(#d)"><path d="m511.198 82.749-29.812 20.139a20.25 20.25 0 0 1-11.336 3.47H439v-.5h31.05c3.941 0 7.791-1.178 11.056-3.384l29.812-20.14zM511.198 143.598l-29.812-20.14a20.26 20.26 0 0 0-11.336-3.47H439v.5h31.05c3.941 0 7.791 1.179 11.056 3.385l29.812 20.139zM439 113.423h65.663v-.5H439z"/></g><path fill="#171717" d="M387.4 94.5a7.6 7.6 0 0 1 7.6-7.6h36a7.6 7.6 0 0 1 7.6 7.6v36a7.6 7.6 0 0 1-7.6 7.6h-36a7.6 7.6 0 0 1-7.6-7.6z"/><path stroke="#363636" stroke-width=".8" d="M387.4 94.5a7.6 7.6 0 0 1 7.6-7.6h36a7.6 7.6 0 0 1 7.6 7.6v36a7.6 7.6 0 0 1-7.6 7.6h-36a7.6 7.6 0 0 1-7.6-7.6z"/><path fill="#b4b4b4" fill-rule="evenodd" d="M408 102.5a5 5 0 0 1 10 0v3a5 5 0 0 1 4.945 5v10a5 5 0 0 1-5 5h-10a5 5 0 0 1-5-5v-10a5 5 0 0 1 5-5H408zm-.055 5a3 3 0 0 0-3 3v.949h9.043a1 1 0 0 1 1 1v8a1 1 0 0 1-1 1h-8.889a3 3 0 0 0 2.846 2.051h10a3 3 0 0 0 3-3v-10a3 3 0 0 0-3-3zm8.055-2h-6v-3a3 3 0 1 1 6 0zm-11.012 13.949h8v-2h-8zm0-4h8v-2h-8z" clip-rule="evenodd"/><path fill="#1f1f1f" d="M570.5 58c0-8.56 6.94-15.5 15.5-15.5h76c8.56 0 15.5 6.94 15.5 15.5s-6.94 15.5-15.5 15.5h-76c-8.56 0-15.5-6.94-15.5-15.5"/><path stroke="#2e2e2e" d="M570.5 58c0-8.56 6.94-15.5 15.5-15.5h76c8.56 0 15.5 6.94 15.5 15.5s-6.94 15.5-15.5 15.5h-76c-8.56 0-15.5-6.94-15.5-15.5Z"/><path fill="#b4b4b4" d="m585.839 60.752 1.78-11.403c.061-.389.582-.48.767-.133l1.912 3.58zm12.65 2.771-1.697-10.503a.412.412 0 0 0-.696-.225l-10.697 10.728 5.922 3.324c.368.204.828.204 1.196 0zm-4.806-9.163-1.37-2.608a.408.408 0 0 0-.727 0l-6.023 10.738zM614.444 63h-1.274v-9.217h5.603v1.183h-4.329v2.964h3.926v1.196h-3.926zm6.902 0h-1.209v-6.253h1.209zm-1.482-8.619a.877.877 0 1 1 .871.871.87.87 0 0 1-.871-.871m7.032 2.301v1.3a4 4 0 0 0-.533-.039c-1.027 0-1.716.546-1.716 1.924V63h-1.222v-6.253h1.196v1.092c.455-.962 1.235-1.196 1.872-1.196a2.3 2.3 0 0 1 .403.039m2.032 2.548h3.419c-.026-.897-.611-1.599-1.716-1.599-1.027 0-1.651.793-1.703 1.599m3.601 1.625 1.053.364c-.351 1.105-1.352 1.976-2.808 1.976-1.677 0-3.146-1.222-3.146-3.341 0-1.963 1.417-3.302 2.99-3.302 1.924 0 3.003 1.326 3.003 3.276 0 .156-.013.312-.026.39h-4.706c.026 1.118.832 1.898 1.885 1.898 1.014 0 1.521-.559 1.755-1.261M636.39 63h-1.209v-9.412h1.209v4.043c.299-.559 1.027-1.066 2.067-1.066 1.898 0 2.873 1.456 2.873 3.276 0 1.859-1.053 3.328-2.912 3.328-.923 0-1.638-.403-2.028-1.079zm3.692-3.159c0-1.352-.715-2.197-1.846-2.197-1.079 0-1.859.845-1.859 2.197s.78 2.236 1.859 2.236c1.118 0 1.846-.884 1.846-2.236m2.415 1.482c0-1.118.819-1.742 1.898-1.898l1.69-.247c.377-.052.481-.247.481-.468 0-.611-.403-1.118-1.352-1.118-.858 0-1.339.533-1.417 1.261l-1.17-.273c.13-1.196 1.209-2.028 2.561-2.028 1.872 0 2.6 1.066 2.6 2.288v3.133c0 .546.052.871.078 1.027h-1.196c-.026-.156-.065-.39-.065-.845-.273.442-.897 1.04-2.015 1.04-1.274 0-2.093-.884-2.093-1.872m2.262.845c1.001 0 1.807-.481 1.807-1.846v-.286l-1.911.286c-.52.078-.91.377-.91.936 0 .468.39.91 1.014.91m4.347-.793 1.105-.39c.078.65.572 1.17 1.456 1.17.689 0 1.066-.39 1.066-.832 0-.39-.286-.689-.806-.806l-1.066-.234c-.975-.208-1.56-.871-1.56-1.755 0-1.066 1.001-1.976 2.223-1.976 1.716 0 2.249 1.118 2.379 1.677l-1.079.403c-.052-.325-.312-1.04-1.3-1.04-.624 0-1.04.403-1.04.832 0 .377.234.65.715.754l1.014.221c1.131.247 1.729.936 1.729 1.859 0 .884-.741 1.937-2.288 1.937-1.716 0-2.444-1.105-2.548-1.82m7.193-2.145h3.419c-.026-.897-.611-1.599-1.716-1.599-1.027 0-1.651.793-1.703 1.599m3.601 1.625 1.053.364c-.351 1.105-1.352 1.976-2.808 1.976-1.677 0-3.146-1.222-3.146-3.341 0-1.963 1.417-3.302 2.99-3.302 1.924 0 3.003 1.326 3.003 3.276 0 .156-.013.312-.026.39h-4.706c.026 1.118.832 1.898 1.885 1.898 1.014 0 1.521-.559 1.755-1.261"/><rect width="94" height="31" x="570.5" y="97.5" fill="#1f1f1f" rx="15.5"/><rect width="94" height="31" x="570.5" y="97.5" stroke="#2e2e2e" rx="15.5"/><path fill="#b4b4b4" d="m596.798 119.779-1.79-5.524 4.692-3.4h-5.804l-1.795-5.52v-.001h5.803l1.795 5.52.002-.001a7.995 7.995 0 0 1-2.902 8.928zm-9.389 0-.001.001 4.695 3.412 4.695-3.411-4.693-3.41zm-2.899-8.926a7.99 7.99 0 0 0 2.9 8.928v-.001l1.793-5.518-4.691-3.408h5.799l1.793-5.519h.002-5.804zM619.553 118l-1.001-2.574h-4.082l-.975 2.574h-1.365l3.666-9.217h1.469l3.666 9.217zm-3.055-7.891-1.573 4.134h3.172zm9.397 7.137c-.338.65-1.118.949-1.846.949-1.456 0-2.34-1.092-2.34-2.509v-3.939h1.222v3.757c0 .858.39 1.612 1.417 1.612.988 0 1.482-.65 1.482-1.599v-3.77h1.222v5.096c0 .494.039.936.065 1.157h-1.17a5.5 5.5 0 0 1-.052-.754m4.881-7.475v1.976h1.352v1.105h-1.352v3.25c0 .572.234.858.871.858.156 0 .377-.026.481-.052v1.04a2.7 2.7 0 0 1-.832.117c-1.066 0-1.742-.65-1.742-1.781v-3.432h-1.196v-1.105h.338c.676 0 .962-.416.962-.962v-1.014zm4.205 4.55V118h-1.222v-9.412h1.222v3.887c.455-.663 1.183-.91 1.898-.91 1.495 0 2.236 1.079 2.236 2.47V118h-1.222v-3.757c0-.871-.364-1.573-1.456-1.573-.936 0-1.43.728-1.456 1.651m6.949-.533c0 1.287.234 2.197.741 2.73.325.338.741.546 1.339.546s1.014-.208 1.339-.546c.507-.533.741-1.443.741-2.73s-.234-2.197-.741-2.73c-.325-.338-.741-.546-1.339-.546s-1.014.208-1.339.546c-.507.533-.741 1.443-.741 2.73m-1.261 0c0-1.157.195-2.223.754-3.055.546-.819 1.391-1.352 2.587-1.352s2.041.533 2.587 1.352c.559.832.754 1.898.754 3.055s-.195 2.223-.754 3.055c-.546.819-1.391 1.352-2.587 1.352s-2.041-.533-2.587-1.352c-.559-.832-.754-1.898-.754-3.055"/><path fill="#1f1f1f" d="M570.5 167c0-8.56 6.94-15.5 15.5-15.5h106c8.56 0 15.5 6.94 15.5 15.5s-6.94 15.5-15.5 15.5H586c-8.56 0-15.5-6.94-15.5-15.5"/><path stroke="#2e2e2e" d="M570.5 167c0-8.56 6.94-15.5 15.5-15.5h106c8.56 0 15.5 6.94 15.5 15.5s-6.94 15.5-15.5 15.5H586c-8.56 0-15.5-6.94-15.5-15.5Z"/><path fill="#b4b4b4" d="m596.85 161.576 1.557-.401.012.017.039 9.404-.051.051-.321.014-1.218-.19-.018-.048zM587.842 171.301h.006l4.111 1.195.01.008.018.014-.006 3.58-.012.015-4.127-2.005z"/><path fill="#898989" d="m596.85 170.423-4.874 1.167-2.447-.59-1.687.3 4.127 1.203 6.371-1.724.067-.132zM596.097 162.879l-.04-.045-4.043-1.175-.045.017-.04-.021-6.363 1.835-.035.042.051.028 1.455.214.052-.018 4.873-1.167 2.447.591z"/><path fill="#898989" d="m587.088 172.604-1.557.376-.003-.009-.061-9.37.064-.069 1.557.224z"/><path fill="#b4b4b4" d="m589.191 168.97 2.778.325.021-.031.011-4.344-.032-.036-2.778.326z"/><path fill="#898989" d="m594.746 168.97-2.777.325v-4.411l2.777.326z"/><path fill="#b4b4b4" d="m596.096 162.879-4.127-1.203v-3.609l4.127 2.005zM591.969 158.067l-7.736 3.734v10.577l1.298.602v-9.448l6.438-1.856zM598.407 161.175v9.472l-6.438 1.857v3.609l7.736-3.735v-10.577zM619.553 172l-1.001-2.574h-4.082l-.975 2.574h-1.365l3.666-9.217h1.469l3.666 9.217zm-3.055-7.891-1.573 4.134h3.172zm13.537 5.967 1.989-7.293h1.313L630.711 172h-1.313l-2.405-7.475-2.379 7.475h-1.274l-2.665-9.217h1.313l2.028 7.215 2.314-7.215h1.339zm10.542-5.2-1.144.403c-.104-.663-.663-1.573-1.95-1.573-1.04 0-1.781.676-1.781 1.534 0 .663.403 1.17 1.183 1.339l1.378.299c1.534.338 2.392 1.3 2.392 2.587 0 1.43-1.222 2.73-3.185 2.73-2.223 0-3.276-1.43-3.445-2.743l1.222-.39c.091 1.027.819 1.976 2.21 1.976 1.274 0 1.898-.663 1.898-1.469 0-.663-.455-1.235-1.378-1.43l-1.313-.286c-1.313-.286-2.249-1.144-2.249-2.522 0-1.443 1.339-2.743 3.042-2.743 2.08 0 2.912 1.287 3.12 2.288m9.071 7.319c-2.379 0-4.576-1.729-4.576-4.81s2.288-4.797 4.576-4.797c2.106 0 3.588 1.144 4.056 2.925l-1.183.416c-.351-1.391-1.365-2.171-2.873-2.171-1.677 0-3.276 1.222-3.276 3.627s1.599 3.64 3.276 3.64c1.573 0 2.561-.949 2.938-2.21l1.131.416c-.494 1.729-1.95 2.964-4.069 2.964m8.053-1.092c1.04 0 1.95-.78 1.95-2.236 0-1.443-.91-2.223-1.95-2.223s-1.95.78-1.95 2.223c0 1.456.91 2.236 1.95 2.236m0-5.551c1.872 0 3.198 1.417 3.198 3.315 0 1.911-1.326 3.328-3.198 3.328s-3.198-1.417-3.198-3.328c0-1.898 1.326-3.315 3.198-3.315m4.307 6.786 1.183-.273c.091.871.754 1.534 1.703 1.534 1.313 0 1.911-.676 1.911-2.028v-.897c-.299.572-.975 1.027-1.911 1.027-1.664 0-2.873-1.261-2.873-3.029 0-1.69 1.157-3.042 2.873-3.042.962 0 1.612.364 1.924.988v-.871h1.209v5.785c0 1.586-.78 3.133-3.133 3.133-1.56 0-2.73-.988-2.886-2.327m3.068-1.664c1.053 0 1.781-.793 1.781-2.002s-.728-2.002-1.781-2.002c-1.079 0-1.807.793-1.807 2.002 0 1.222.702 2.002 1.807 2.002m6.124-2.288V172h-1.222v-6.253h1.196v.897c.455-.78 1.196-1.079 1.924-1.079 1.495 0 2.236 1.079 2.236 2.47V172h-1.222v-3.757c0-.871-.364-1.573-1.456-1.573-.962 0-1.456.767-1.456 1.716m7.287 3.614h-1.209v-6.253h1.209zm-1.482-8.619a.877.877 0 1 1 .871.871.87.87 0 0 1-.871-.871m5.199.39v1.976h1.352v1.105h-1.352v3.25c0 .572.234.858.871.858.156 0 .377-.026.481-.052v1.04a2.7 2.7 0 0 1-.832.117c-1.066 0-1.742-.65-1.742-1.781v-3.432h-1.196v-1.105h.338c.676 0 .962-.416.962-.962v-1.014zm5.598 7.332c1.04 0 1.95-.78 1.95-2.236 0-1.443-.91-2.223-1.95-2.223s-1.95.78-1.95 2.223c0 1.456.91 2.236 1.95 2.236m0-5.551c1.872 0 3.198 1.417 3.198 3.315 0 1.911-1.326 3.328-3.198 3.328s-3.198-1.417-3.198-3.328c0-1.898 1.326-3.315 3.198-3.315"/><defs><linearGradient id="a" x1="573.852" x2="508.37" y1="114.237" y2="114.237" gradientUnits="userSpaceOnUse"><stop stop-color="#737373"/><stop offset="1" stop-color="#d9d9d9" stop-opacity="0"/></linearGradient><linearGradient id="c" x1="512.85" x2="440.537" y1="110.844" y2="110.844" gradientUnits="userSpaceOnUse"><stop offset=".5" stop-color="#737373"/><stop offset="1" stop-color="#d9d9d9" stop-opacity="0"/></linearGradient></defs></svg>