<svg width="764" height="219" viewBox="0 0 764 219" fill="none" xmlns="http://www.w3.org/2000/svg">
<rect width="764" height="219" fill="white"/>
<mask id="mask0_895_5179" style="mask-type:alpha" maskUnits="userSpaceOnUse" x="425" y="50" width="153" height="128">
<rect x="425.146" y="50.4746" width="152.595" height="127.525" fill="url(#paint0_linear_895_5179)"/>
</mask>
<g mask="url(#mask0_895_5179)">
<path d="M552.066 59.2249C548.126 59.2249 544.275 60.4035 541.01 62.6092L481.386 102.888C478.038 105.15 474.09 106.358 470.05 106.358H439V105.858H470.05C473.991 105.858 477.841 104.68 481.106 102.474L540.73 62.1949C544.078 59.9333 548.026 58.7249 552.066 58.7249H574.96V59.2249H552.066Z" fill="#707070"/>
<path d="M552.066 167.122C548.126 167.122 544.275 165.943 541.01 163.737L481.386 123.458C478.038 121.197 474.09 119.988 470.05 119.988H439V120.488H470.05C473.991 120.488 477.841 121.667 481.106 123.873L540.73 164.152C544.078 166.413 548.026 167.622 552.066 167.622H574.96V167.122H552.066Z" fill="#707070"/>
<path d="M439 113.423L570.325 113.423V112.923L439 112.923V113.423Z" fill="#707070"/>
</g>
<mask id="mask1_895_5179" style="mask-type:alpha" maskUnits="userSpaceOnUse" x="422" y="56" width="115" height="110">
<rect x="422.52" y="56.1641" width="113.62" height="109.359" fill="url(#paint1_linear_895_5179)"/>
</mask>
<g mask="url(#mask1_895_5179)">
<path d="M511.198 82.7488L481.386 102.888C478.038 105.15 474.09 106.358 470.05 106.358H439V105.858H470.05C473.991 105.858 477.841 104.68 481.106 102.474L510.918 82.3345L511.198 82.7488Z" fill="#525252"/>
<path d="M511.198 143.598L481.386 123.458C478.038 121.197 474.09 119.988 470.05 119.988H439V120.488H470.05C473.991 120.488 477.841 121.667 481.106 123.873L510.918 144.012L511.198 143.598Z" fill="#525252"/>
<path d="M439 113.423L504.663 113.423V112.923L439 112.923V113.423Z" fill="#525252"/>
</g>
<path d="M387.4 94.5C387.4 90.3026 390.803 86.9 395 86.9H431C435.197 86.9 438.6 90.3026 438.6 94.5V130.5C438.6 134.697 435.197 138.1 431 138.1H395C390.803 138.1 387.4 134.697 387.4 130.5V94.5Z" fill="white"/>
<path d="M387.4 94.5C387.4 90.3026 390.803 86.9 395 86.9H431C435.197 86.9 438.6 90.3026 438.6 94.5V130.5C438.6 134.697 435.197 138.1 431 138.1H395C390.803 138.1 387.4 134.697 387.4 130.5V94.5Z" stroke="#D4D4D4" stroke-width="0.8"/>
<path fill-rule="evenodd" clip-rule="evenodd" d="M408 102.5C408 99.7386 410.239 97.5 413 97.5C415.761 97.5 418 99.7386 418 102.5V105.5C420.736 105.53 422.945 107.757 422.945 110.5V120.5C422.945 123.261 420.707 125.5 417.945 125.5H407.945C405.184 125.5 402.945 123.261 402.945 120.5L402.945 110.5C402.945 107.739 405.184 105.5 407.945 105.5H408V102.5ZM407.945 107.5C406.288 107.5 404.945 108.843 404.945 110.5V111.449H413.988C414.541 111.449 414.988 111.897 414.988 112.449V120.449C414.988 121.002 414.541 121.449 413.988 121.449H405.099C405.496 122.641 406.62 123.5 407.945 123.5H417.945C419.602 123.5 420.945 122.157 420.945 120.5V110.5C420.945 108.843 419.602 107.5 417.945 107.5L407.945 107.5ZM416 105.5L410 105.5V102.5C410 100.843 411.343 99.5 413 99.5C414.657 99.5 416 100.843 416 102.5V105.5ZM404.988 119.449H412.988V117.449H404.988V119.449ZM404.988 115.449H412.988V113.449H404.988V115.449Z" fill="#525252"/>
<path d="M570.5 58C570.5 49.4396 577.44 42.5 586 42.5H662C670.56 42.5 677.5 49.4396 677.5 58C677.5 66.5604 670.56 73.5 662 73.5H586C577.44 73.5 570.5 66.5604 570.5 58Z" fill="#FCFCFC"/>
<path d="M570.5 58C570.5 49.4396 577.44 42.5 586 42.5H662C670.56 42.5 677.5 49.4396 677.5 58C677.5 66.5604 670.56 73.5 662 73.5H586C577.44 73.5 570.5 66.5604 570.5 58Z" stroke="#DFDFDF"/>
<path d="M585.839 60.7516L587.619 49.349C587.68 48.9604 588.201 48.8683 588.386 49.216L590.298 52.7953L585.839 60.7516ZM598.489 63.523L596.792 53.0203C596.741 52.6931 596.332 52.5601 596.096 52.7953L585.399 63.523L591.321 66.8466C591.689 67.0511 592.149 67.0511 592.517 66.8466L598.489 63.523ZM593.683 54.36L592.313 51.7522C592.159 51.4556 591.74 51.4556 591.586 51.7522L585.563 62.4901L593.683 54.36Z" fill="#525252"/>
<path d="M614.444 63H613.17V53.783H618.773V54.966H614.444V57.93H618.37V59.126H614.444V63ZM621.346 63H620.137V56.747H621.346V63ZM619.864 54.381C619.864 53.887 620.254 53.497 620.735 53.497C621.229 53.497 621.619 53.887 621.619 54.381C621.619 54.862 621.229 55.252 620.735 55.252C620.254 55.252 619.864 54.862 619.864 54.381ZM626.896 56.682V57.982C626.714 57.956 626.532 57.943 626.363 57.943C625.336 57.943 624.647 58.489 624.647 59.867V63H623.425V56.747H624.621V57.839C625.076 56.877 625.856 56.643 626.493 56.643C626.662 56.643 626.831 56.669 626.896 56.682ZM628.928 59.23H632.347C632.321 58.333 631.736 57.631 630.631 57.631C629.604 57.631 628.98 58.424 628.928 59.23ZM632.529 60.855L633.582 61.219C633.231 62.324 632.23 63.195 630.774 63.195C629.097 63.195 627.628 61.973 627.628 59.854C627.628 57.891 629.045 56.552 630.618 56.552C632.542 56.552 633.621 57.878 633.621 59.828C633.621 59.984 633.608 60.14 633.595 60.218H628.889C628.915 61.336 629.721 62.116 630.774 62.116C631.788 62.116 632.295 61.557 632.529 60.855ZM636.39 63H635.181V53.588H636.39V57.631C636.689 57.072 637.417 56.565 638.457 56.565C640.355 56.565 641.33 58.021 641.33 59.841C641.33 61.7 640.277 63.169 638.418 63.169C637.495 63.169 636.78 62.766 636.39 62.09V63ZM640.082 59.841C640.082 58.489 639.367 57.644 638.236 57.644C637.157 57.644 636.377 58.489 636.377 59.841C636.377 61.193 637.157 62.077 638.236 62.077C639.354 62.077 640.082 61.193 640.082 59.841ZM642.497 61.323C642.497 60.205 643.316 59.581 644.395 59.425L646.085 59.178C646.462 59.126 646.566 58.931 646.566 58.71C646.566 58.099 646.163 57.592 645.214 57.592C644.356 57.592 643.875 58.125 643.797 58.853L642.627 58.58C642.757 57.384 643.836 56.552 645.188 56.552C647.06 56.552 647.788 57.618 647.788 58.84V61.973C647.788 62.519 647.84 62.844 647.866 63H646.67C646.644 62.844 646.605 62.61 646.605 62.155C646.332 62.597 645.708 63.195 644.59 63.195C643.316 63.195 642.497 62.311 642.497 61.323ZM644.759 62.168C645.76 62.168 646.566 61.687 646.566 60.322V60.036L644.655 60.322C644.135 60.4 643.745 60.699 643.745 61.258C643.745 61.726 644.135 62.168 644.759 62.168ZM649.106 61.375L650.211 60.985C650.289 61.635 650.783 62.155 651.667 62.155C652.356 62.155 652.733 61.765 652.733 61.323C652.733 60.933 652.447 60.634 651.927 60.517L650.861 60.283C649.886 60.075 649.301 59.412 649.301 58.528C649.301 57.462 650.302 56.552 651.524 56.552C653.24 56.552 653.773 57.67 653.903 58.229L652.824 58.632C652.772 58.307 652.512 57.592 651.524 57.592C650.9 57.592 650.484 57.995 650.484 58.424C650.484 58.801 650.718 59.074 651.199 59.178L652.213 59.399C653.344 59.646 653.942 60.335 653.942 61.258C653.942 62.142 653.201 63.195 651.654 63.195C649.938 63.195 649.21 62.09 649.106 61.375ZM656.299 59.23H659.718C659.692 58.333 659.107 57.631 658.002 57.631C656.975 57.631 656.351 58.424 656.299 59.23ZM659.9 60.855L660.953 61.219C660.602 62.324 659.601 63.195 658.145 63.195C656.468 63.195 654.999 61.973 654.999 59.854C654.999 57.891 656.416 56.552 657.989 56.552C659.913 56.552 660.992 57.878 660.992 59.828C660.992 59.984 660.979 60.14 660.966 60.218H656.26C656.286 61.336 657.092 62.116 658.145 62.116C659.159 62.116 659.666 61.557 659.9 60.855Z" fill="#525252"/>
<rect x="570.5" y="97.5" width="94" height="31" rx="15.5" fill="#FCFCFC"/>
<rect x="570.5" y="97.5" width="94" height="31" rx="15.5" stroke="#DFDFDF"/>
<path d="M596.798 119.779L595.008 114.255L599.7 110.855H593.896L592.101 105.335L592.101 105.334H597.904L599.699 110.854V110.854L599.701 110.853C600.742 114.052 599.668 117.689 596.799 119.781L596.798 119.779ZM587.409 119.779L587.408 119.78L592.103 123.192L596.798 119.781L592.105 116.371L587.409 119.779ZM584.51 110.853C583.414 114.228 584.686 117.803 587.41 119.781L587.41 119.78L589.203 114.262L584.512 110.854H590.311L592.104 105.335H592.106H586.302L584.51 110.853Z" fill="#525252"/>
<path d="M619.553 118L618.552 115.426H614.47L613.495 118H612.13L615.796 108.783H617.265L620.931 118H619.553ZM616.498 110.109L614.925 114.243H618.097L616.498 110.109ZM625.895 117.246C625.557 117.896 624.777 118.195 624.049 118.195C622.593 118.195 621.709 117.103 621.709 115.686V111.747H622.931V115.504C622.931 116.362 623.321 117.116 624.348 117.116C625.336 117.116 625.83 116.466 625.83 115.517V111.747H627.052V116.843C627.052 117.337 627.091 117.779 627.117 118H625.947C625.921 117.857 625.895 117.506 625.895 117.246ZM630.776 109.771V111.747H632.128V112.852H630.776V116.102C630.776 116.674 631.01 116.96 631.647 116.96C631.803 116.96 632.024 116.934 632.128 116.908V117.948C632.024 117.987 631.712 118.065 631.296 118.065C630.23 118.065 629.554 117.415 629.554 116.284V112.852H628.358V111.747H628.696C629.372 111.747 629.658 111.331 629.658 110.785V109.771H630.776ZM634.981 114.321V118H633.759V108.588H634.981V112.475C635.436 111.812 636.164 111.565 636.879 111.565C638.374 111.565 639.115 112.644 639.115 114.035V118H637.893V114.243C637.893 113.372 637.529 112.67 636.437 112.67C635.501 112.67 635.007 113.398 634.981 114.321ZM641.93 113.788C641.93 115.075 642.164 115.985 642.671 116.518C642.996 116.856 643.412 117.064 644.01 117.064C644.608 117.064 645.024 116.856 645.349 116.518C645.856 115.985 646.09 115.075 646.09 113.788C646.09 112.501 645.856 111.591 645.349 111.058C645.024 110.72 644.608 110.512 644.01 110.512C643.412 110.512 642.996 110.72 642.671 111.058C642.164 111.591 641.93 112.501 641.93 113.788ZM640.669 113.788C640.669 112.631 640.864 111.565 641.423 110.733C641.969 109.914 642.814 109.381 644.01 109.381C645.206 109.381 646.051 109.914 646.597 110.733C647.156 111.565 647.351 112.631 647.351 113.788C647.351 114.945 647.156 116.011 646.597 116.843C646.051 117.662 645.206 118.195 644.01 118.195C642.814 118.195 641.969 117.662 641.423 116.843C640.864 116.011 640.669 114.945 640.669 113.788Z" fill="#525252"/>
<path d="M570.5 167C570.5 158.44 577.44 151.5 586 151.5H692C700.56 151.5 707.5 158.44 707.5 167C707.5 175.56 700.56 182.5 692 182.5H586C577.44 182.5 570.5 175.56 570.5 167Z" fill="#FCFCFC"/>
<path d="M570.5 167C570.5 158.44 577.44 151.5 586 151.5H692C700.56 151.5 707.5 158.44 707.5 167C707.5 175.56 700.56 182.5 692 182.5H586C577.44 182.5 570.5 175.56 570.5 167Z" stroke="#DFDFDF"/>
<path d="M596.85 161.576L598.407 161.175L598.419 161.192L598.458 170.596L598.407 170.647L598.086 170.661L596.868 170.471L596.85 170.423V161.576Z" fill="#525252"/>
<path d="M587.842 171.301L587.848 171.301L591.959 172.496L591.969 172.504L591.987 172.518L591.981 176.098L591.969 176.113L587.842 174.108V171.301Z" fill="#525252"/>
<path d="M596.85 170.423L591.976 171.59L589.529 171L587.842 171.3L591.969 172.503L598.34 170.779L598.407 170.647L596.85 170.423Z" fill="#707070"/>
<path d="M596.097 162.879L596.057 162.834L592.014 161.659L591.969 161.676L591.929 161.655L585.566 163.49L585.531 163.532L585.582 163.56L587.037 163.774L587.089 163.756L591.962 162.589L594.409 163.18L596.097 162.879Z" fill="#707070"/>
<path d="M587.088 172.604L585.531 172.98L585.528 172.971L585.467 163.601L585.531 163.532L587.088 163.756V172.604Z" fill="#707070"/>
<path d="M589.191 168.97L591.969 169.295L591.99 169.264L592.001 164.92L591.969 164.884L589.191 165.21V168.97Z" fill="#525252"/>
<path d="M594.746 168.97L591.969 169.295V164.884L594.746 165.21V168.97Z" fill="#707070"/>
<path d="M596.096 162.879L591.969 161.676V158.067L596.096 160.072V162.879Z" fill="#525252"/>
<path d="M591.969 158.067L584.233 161.801V172.378L585.531 172.98V163.532L591.969 161.676V158.067Z" fill="#525252"/>
<path d="M598.407 161.175V170.647L591.969 172.504V176.113L599.705 172.378V161.801L598.407 161.175Z" fill="#525252"/>
<path d="M619.553 172L618.552 169.426H614.47L613.495 172H612.13L615.796 162.783H617.265L620.931 172H619.553ZM616.498 164.109L614.925 168.243H618.097L616.498 164.109ZM630.035 170.076L632.024 162.783H633.337L630.711 172H629.398L626.993 164.525L624.614 172H623.34L620.675 162.783H621.988L624.016 169.998L626.33 162.783H627.669L630.035 170.076ZM640.577 164.876L639.433 165.279C639.329 164.616 638.77 163.706 637.483 163.706C636.443 163.706 635.702 164.382 635.702 165.24C635.702 165.903 636.105 166.41 636.885 166.579L638.263 166.878C639.797 167.216 640.655 168.178 640.655 169.465C640.655 170.895 639.433 172.195 637.47 172.195C635.247 172.195 634.194 170.765 634.025 169.452L635.247 169.062C635.338 170.089 636.066 171.038 637.457 171.038C638.731 171.038 639.355 170.375 639.355 169.569C639.355 168.906 638.9 168.334 637.977 168.139L636.664 167.853C635.351 167.567 634.415 166.709 634.415 165.331C634.415 163.888 635.754 162.588 637.457 162.588C639.537 162.588 640.369 163.875 640.577 164.876ZM649.648 172.195C647.269 172.195 645.072 170.466 645.072 167.385C645.072 164.304 647.36 162.588 649.648 162.588C651.754 162.588 653.236 163.732 653.704 165.513L652.521 165.929C652.17 164.538 651.156 163.758 649.648 163.758C647.971 163.758 646.372 164.98 646.372 167.385C646.372 169.79 647.971 171.025 649.648 171.025C651.221 171.025 652.209 170.076 652.586 168.815L653.717 169.231C653.223 170.96 651.767 172.195 649.648 172.195ZM657.701 171.103C658.741 171.103 659.651 170.323 659.651 168.867C659.651 167.424 658.741 166.644 657.701 166.644C656.661 166.644 655.751 167.424 655.751 168.867C655.751 170.323 656.661 171.103 657.701 171.103ZM657.701 165.552C659.573 165.552 660.899 166.969 660.899 168.867C660.899 170.778 659.573 172.195 657.701 172.195C655.829 172.195 654.503 170.778 654.503 168.867C654.503 166.969 655.829 165.552 657.701 165.552ZM662.008 172.338L663.191 172.065C663.282 172.936 663.945 173.599 664.894 173.599C666.207 173.599 666.805 172.923 666.805 171.571V170.674C666.506 171.246 665.83 171.701 664.894 171.701C663.23 171.701 662.021 170.44 662.021 168.672C662.021 166.982 663.178 165.63 664.894 165.63C665.856 165.63 666.506 165.994 666.818 166.618V165.747H668.027V171.532C668.027 173.118 667.247 174.665 664.894 174.665C663.334 174.665 662.164 173.677 662.008 172.338ZM665.076 170.674C666.129 170.674 666.857 169.881 666.857 168.672C666.857 167.463 666.129 166.67 665.076 166.67C663.997 166.67 663.269 167.463 663.269 168.672C663.269 169.894 663.971 170.674 665.076 170.674ZM671.2 168.386V172H669.978V165.747H671.174V166.644C671.629 165.864 672.37 165.565 673.098 165.565C674.593 165.565 675.334 166.644 675.334 168.035V172H674.112V168.243C674.112 167.372 673.748 166.67 672.656 166.67C671.694 166.67 671.2 167.437 671.2 168.386ZM678.487 172H677.278V165.747H678.487V172ZM677.005 163.381C677.005 162.887 677.395 162.497 677.876 162.497C678.37 162.497 678.76 162.887 678.76 163.381C678.76 163.862 678.37 164.252 677.876 164.252C677.395 164.252 677.005 163.862 677.005 163.381ZM682.204 163.771V165.747H683.556V166.852H682.204V170.102C682.204 170.674 682.438 170.96 683.075 170.96C683.231 170.96 683.452 170.934 683.556 170.908V171.948C683.452 171.987 683.14 172.065 682.724 172.065C681.658 172.065 680.982 171.415 680.982 170.284V166.852H679.786V165.747H680.124C680.8 165.747 681.086 165.331 681.086 164.785V163.771H682.204ZM687.802 171.103C688.842 171.103 689.752 170.323 689.752 168.867C689.752 167.424 688.842 166.644 687.802 166.644C686.762 166.644 685.852 167.424 685.852 168.867C685.852 170.323 686.762 171.103 687.802 171.103ZM687.802 165.552C689.674 165.552 691 166.969 691 168.867C691 170.778 689.674 172.195 687.802 172.195C685.93 172.195 684.604 170.778 684.604 168.867C684.604 166.969 685.93 165.552 687.802 165.552Z" fill="#525252"/>
<defs>
<linearGradient id="paint0_linear_895_5179" x1="573.852" y1="114.237" x2="508.37" y2="114.237" gradientUnits="userSpaceOnUse">
<stop stop-color="#737373"/>
<stop offset="1" stop-color="#D9D9D9" stop-opacity="0"/>
</linearGradient>
<linearGradient id="paint1_linear_895_5179" x1="512.85" y1="110.844" x2="440.537" y2="110.844" gradientUnits="userSpaceOnUse">
<stop offset="0.5" stop-color="#737373"/>
<stop offset="1" stop-color="#D9D9D9" stop-opacity="0"/>
</linearGradient>
</defs>
</svg>
