<svg width="349" height="174" viewBox="0 0 349 174" fill="none" xmlns="http://www.w3.org/2000/svg">
<g clip-path="url(#clip0_893_3211)">
<rect width="349" height="174" fill="#171717"/>
<rect width="681.913" height="195.47" transform="translate(-309 -11.7349)" fill="#171717"/>
<mask id="mask0_893_3211" style="mask-type:alpha" maskUnits="userSpaceOnUse" x="70" y="33" width="137" height="115">
<rect x="70.4668" y="33.3164" width="136.199" height="113.824" fill="url(#paint0_linear_893_3211)"/>
</mask>
<g mask="url(#mask0_893_3211)">
<path d="M183.751 41.1265C180.234 41.1265 176.797 42.1785 173.883 44.1472L120.665 80.0984C117.677 82.117 114.153 83.1956 110.547 83.1956H82.833V82.7493H110.547C114.064 82.7493 117.501 81.6973 120.415 79.7286L173.633 43.7774C176.621 41.7588 180.145 40.6802 183.751 40.6802H204.185V41.1265H183.751Z" fill="#898989"/>
<path d="M183.751 137.43C180.234 137.43 176.797 136.378 173.883 134.41L120.665 98.4584C117.677 96.4398 114.153 95.3612 110.547 95.3612H82.833V95.8074H110.547C114.064 95.8074 117.501 96.8595 120.415 98.8282L173.633 134.779C176.621 136.798 180.145 137.877 183.751 137.877H204.185V137.43H183.751Z" fill="#898989"/>
<path d="M82.833 89.5015L200.048 89.5015V89.0553L82.833 89.0552V89.5015Z" fill="#898989"/>
</g>
<mask id="mask1_893_3211" style="mask-type:alpha" maskUnits="userSpaceOnUse" x="68" y="38" width="102" height="99">
<rect x="68.1221" y="38.3948" width="101.412" height="97.6091" fill="url(#paint1_linear_893_3211)"/>
</mask>
<g mask="url(#mask1_893_3211)">
<path d="M147.273 62.123L120.664 80.0986C117.676 82.1172 114.152 83.1958 110.546 83.1958H82.832V82.7495H110.546C114.063 82.7495 117.5 81.6975 120.414 79.7288L147.023 61.7532L147.273 62.123Z" fill="#B4B4B4"/>
<path d="M147.273 116.434L120.664 98.4586C117.676 96.44 114.152 95.3614 110.546 95.3614H82.832V95.8076H110.546C114.063 95.8076 117.5 96.8596 120.414 98.8284L147.023 116.804L147.273 116.434Z" fill="#B4B4B4"/>
<path d="M82.832 89.5017L141.439 89.5017V89.0554L82.832 89.0554V89.5017Z" fill="#B4B4B4"/>
</g>
<path d="M36.8199 72.4305C36.8199 68.6841 39.857 65.6471 43.6033 65.6471H75.7353C79.4817 65.6471 82.5188 68.6841 82.5188 72.4305V104.562C82.5188 108.309 79.4817 111.346 75.7353 111.346H43.6033C39.857 111.346 36.8199 108.309 36.8199 104.562V72.4305Z" fill="#171717"/>
<path d="M36.8199 72.4305C36.8199 68.6841 39.857 65.6471 43.6033 65.6471H75.7353C79.4817 65.6471 82.5188 68.6841 82.5188 72.4305V104.562C82.5188 108.309 79.4817 111.346 75.7353 111.346H43.6033C39.857 111.346 36.8199 108.309 36.8199 104.562V72.4305Z" stroke="#363636" stroke-width="0.714044"/>
<path fill-rule="evenodd" clip-rule="evenodd" d="M55.2059 79.5709C55.2059 77.1062 57.204 75.1082 59.6687 75.1082C62.1334 75.1082 64.1315 77.1062 64.1315 79.5709V82.2489C66.5737 82.275 68.5455 84.2629 68.5455 86.7114V95.6369C68.5455 98.1017 66.5474 100.1 64.0827 100.1H55.1571C52.6924 100.1 50.6943 98.1017 50.6943 95.6369L50.6943 86.7114C50.6943 84.2467 52.6924 82.2486 55.1571 82.2486H55.2059V79.5709ZM55.1571 84.0337C53.6783 84.0337 52.4794 85.2325 52.4794 86.7114V87.5586H60.5508C61.0437 87.5586 61.4434 87.9582 61.4434 88.4512V95.5916C61.4434 96.0846 61.0437 96.4842 60.5508 96.4842H52.6163C52.9707 97.5478 53.9744 98.3146 55.1571 98.3146H64.0827C65.5615 98.3146 66.7603 97.1158 66.7603 95.6369V86.7114C66.7603 85.2325 65.5615 84.0337 64.0827 84.0337L55.1571 84.0337ZM62.3464 82.2486L56.991 82.2486V79.5709C56.991 78.0921 58.1899 76.8933 59.6687 76.8933C61.1475 76.8933 62.3464 78.0921 62.3464 79.5709V82.2486ZM52.5178 94.6991H59.6582V92.9139H52.5178V94.6991ZM52.5178 91.1288H59.6582V89.3437H52.5178V91.1288Z" fill="#B4B4B4"/>
<path d="M200.203 40.0333C200.203 32.3927 206.397 26.1987 214.038 26.1987H282.244C289.885 26.1987 296.079 32.3927 296.079 40.0333C296.079 47.674 289.885 53.868 282.244 53.868H214.038C206.397 53.868 200.203 47.674 200.203 40.0333Z" fill="#1F1F1F"/>
<path d="M200.203 40.0333C200.203 32.3927 206.397 26.1987 214.038 26.1987H282.244C289.885 26.1987 296.079 32.3927 296.079 40.0333C296.079 47.674 289.885 53.868 282.244 53.868H214.038C206.397 53.868 200.203 47.674 200.203 40.0333Z" stroke="#2E2E2E" stroke-width="0.892556"/>
<path d="M213.894 42.4894L215.483 32.312C215.537 31.9651 216.003 31.883 216.167 32.1933L217.874 35.388L213.894 42.4894ZM225.185 44.9631L223.67 35.5888C223.625 35.2967 223.26 35.1781 223.05 35.388L213.502 44.9631L218.787 47.9296C219.116 48.1121 219.526 48.1121 219.855 47.9296L225.185 44.9631ZM220.895 36.7846L219.672 34.457C219.535 34.1923 219.161 34.1923 219.024 34.457L213.648 44.0411L220.895 36.7846Z" fill="#B4B4B4"/>
<path d="M239.426 44.5334H238.288V36.3068H243.289V37.3627H239.426V40.0082H242.93V41.0757H239.426V44.5334ZM245.586 44.5334H244.507V38.9523H245.586V44.5334ZM244.263 36.8405C244.263 36.3996 244.611 36.0515 245.04 36.0515C245.481 36.0515 245.829 36.3996 245.829 36.8405C245.829 37.2698 245.481 37.6179 245.04 37.6179C244.611 37.6179 244.263 37.2698 244.263 36.8405ZM250.539 38.8943V40.0546C250.377 40.0314 250.215 40.0198 250.064 40.0198C249.147 40.0198 248.532 40.5071 248.532 41.7371V44.5334H247.441V38.9523H248.509V39.927C248.915 39.0683 249.611 38.8595 250.18 38.8595C250.331 38.8595 250.481 38.8827 250.539 38.8943ZM252.353 41.1685H255.405C255.382 40.3679 254.859 39.7413 253.873 39.7413C252.956 39.7413 252.399 40.4491 252.353 41.1685ZM255.567 42.6189L256.507 42.9438C256.194 43.9301 255.3 44.7075 254.001 44.7075C252.504 44.7075 251.193 43.6168 251.193 41.7255C251.193 39.9734 252.458 38.7782 253.862 38.7782C255.579 38.7782 256.542 39.9618 256.542 41.7023C256.542 41.8415 256.53 41.9807 256.519 42.0504H252.318C252.341 43.0482 253.061 43.7444 254.001 43.7444C254.906 43.7444 255.358 43.2455 255.567 42.6189ZM259.013 44.5334H257.934V36.1327H259.013V39.7413C259.28 39.2424 259.93 38.7899 260.858 38.7899C262.552 38.7899 263.422 40.0894 263.422 41.7139C263.422 43.3731 262.483 44.6843 260.823 44.6843C260 44.6843 259.361 44.3246 259.013 43.7212V44.5334ZM262.309 41.7139C262.309 40.5071 261.67 39.7529 260.661 39.7529C259.698 39.7529 259.002 40.5071 259.002 41.7139C259.002 42.9206 259.698 43.7096 260.661 43.7096C261.659 43.7096 262.309 42.9206 262.309 41.7139ZM264.464 43.0366C264.464 42.0388 265.195 41.4818 266.158 41.3426L267.667 41.1221C268.003 41.0757 268.096 40.9016 268.096 40.7044C268.096 40.159 267.736 39.7065 266.889 39.7065C266.123 39.7065 265.694 40.1822 265.624 40.832L264.58 40.5884C264.696 39.5209 265.659 38.7782 266.866 38.7782C268.537 38.7782 269.187 39.7297 269.187 40.8204V43.6168C269.187 44.1041 269.233 44.3942 269.256 44.5334H268.189C268.166 44.3942 268.131 44.1854 268.131 43.7792C267.887 44.1737 267.33 44.7075 266.332 44.7075C265.195 44.7075 264.464 43.9185 264.464 43.0366ZM266.483 43.7908C267.377 43.7908 268.096 43.3615 268.096 42.1432V41.8879L266.39 42.1432C265.926 42.2128 265.578 42.4797 265.578 42.9786C265.578 43.3963 265.926 43.7908 266.483 43.7908ZM270.364 43.083L271.35 42.7349C271.42 43.3151 271.86 43.7792 272.649 43.7792C273.264 43.7792 273.601 43.4311 273.601 43.0366C273.601 42.6885 273.346 42.4217 272.882 42.3172L271.93 42.1084C271.06 41.9227 270.538 41.331 270.538 40.5419C270.538 39.5905 271.431 38.7782 272.522 38.7782C274.053 38.7782 274.529 39.7761 274.645 40.2751L273.682 40.6348C273.636 40.3447 273.404 39.7065 272.522 39.7065C271.965 39.7065 271.594 40.0662 271.594 40.4491C271.594 40.7856 271.802 41.0293 272.232 41.1221L273.137 41.3194C274.146 41.5398 274.68 42.1548 274.68 42.9786C274.68 43.7676 274.019 44.7075 272.638 44.7075C271.106 44.7075 270.456 43.7212 270.364 43.083ZM276.783 41.1685H279.835C279.812 40.3679 279.29 39.7413 278.303 39.7413C277.387 39.7413 276.83 40.4491 276.783 41.1685ZM279.997 42.6189L280.937 42.9438C280.624 43.9301 279.731 44.7075 278.431 44.7075C276.934 44.7075 275.623 43.6168 275.623 41.7255C275.623 39.9734 276.888 38.7782 278.292 38.7782C280.009 38.7782 280.972 39.9618 280.972 41.7023C280.972 41.8415 280.96 41.9807 280.949 42.0504H276.749C276.772 43.0482 277.491 43.7444 278.431 43.7444C279.336 43.7444 279.789 43.2455 279.997 42.6189Z" fill="#B4B4B4"/>
<rect x="200.203" y="75.2893" width="83.8757" height="27.6692" rx="13.8346" fill="#1F1F1F"/>
<rect x="200.203" y="75.2893" width="83.8757" height="27.6692" rx="13.8346" stroke="#2E2E2E" stroke-width="0.892556"/>
<path d="M223.676 95.1745L222.078 90.2436L226.266 87.2095H221.086L219.484 82.2827L219.483 82.2815H224.663L226.265 87.2083V87.2081L226.267 87.2073C227.196 90.0629 226.238 93.3087 223.677 95.1764L223.676 95.1745ZM215.296 95.1745L215.294 95.1757L219.485 98.221L223.675 95.1761L219.487 92.1325L215.296 95.1745ZM212.708 87.2074C211.73 90.2195 212.865 93.4109 215.296 95.1766L215.297 95.1751L216.897 90.2506L212.71 87.2083H217.886L219.486 82.2827H219.488H214.308L212.708 87.2074Z" fill="#B4B4B4"/>
<path d="M243.986 93.624L243.092 91.3266H239.449L238.579 93.624H237.36L240.632 85.3973H241.943L245.216 93.624H243.986ZM241.259 86.5809L239.855 90.2707H242.686L241.259 86.5809ZM249.647 92.951C249.345 93.5312 248.649 93.7981 247.999 93.7981C246.699 93.7981 245.91 92.8234 245.91 91.5586V88.0429H247.001V91.3962C247.001 92.162 247.349 92.835 248.266 92.835C249.148 92.835 249.589 92.2548 249.589 91.4078V88.0429H250.679V92.5913C250.679 93.0323 250.714 93.4268 250.737 93.624H249.693C249.67 93.4964 249.647 93.1831 249.647 92.951ZM254.002 86.2792V88.0429H255.209V89.0291H254.002V91.93C254.002 92.4405 254.211 92.6958 254.78 92.6958C254.919 92.6958 255.116 92.6726 255.209 92.6494V93.5776C255.116 93.6124 254.838 93.682 254.467 93.682C253.515 93.682 252.912 93.1019 252.912 92.0924V89.0291H251.844V88.0429H252.146C252.749 88.0429 253.005 87.6716 253.005 87.1842V86.2792H254.002ZM257.756 90.3403V93.624H256.665V85.2233H257.756V88.6927C258.162 88.1009 258.812 87.8804 259.45 87.8804C260.784 87.8804 261.446 88.8435 261.446 90.085V93.624H260.355V90.2707C260.355 89.4933 260.03 88.8667 259.055 88.8667C258.22 88.8667 257.779 89.5165 257.756 90.3403ZM263.958 89.8646C263.958 91.0133 264.167 91.8255 264.619 92.3013C264.909 92.6029 265.281 92.7886 265.814 92.7886C266.348 92.7886 266.72 92.6029 267.01 92.3013C267.462 91.8255 267.671 91.0133 267.671 89.8646C267.671 88.7159 267.462 87.9036 267.01 87.4279C266.72 87.1262 266.348 86.9406 265.814 86.9406C265.281 86.9406 264.909 87.1262 264.619 87.4279C264.167 87.9036 263.958 88.7159 263.958 89.8646ZM262.832 89.8646C262.832 88.8319 263.006 87.8804 263.505 87.1378C263.993 86.4068 264.747 85.9311 265.814 85.9311C266.882 85.9311 267.636 86.4068 268.123 87.1378C268.622 87.8804 268.796 88.8319 268.796 89.8646C268.796 90.8973 268.622 91.8487 268.123 92.5913C267.636 93.3223 266.882 93.7981 265.814 93.7981C264.747 93.7981 263.993 93.3223 263.505 92.5913C263.006 91.8487 262.832 90.8973 262.832 89.8646Z" fill="#B4B4B4"/>
<path d="M200.203 137.322C200.203 129.681 206.397 123.487 214.038 123.487H308.649C316.289 123.487 322.483 129.681 322.483 137.322C322.483 144.963 316.289 151.157 308.649 151.157H214.038C206.397 151.157 200.203 144.963 200.203 137.322Z" fill="#1F1F1F"/>
<path d="M200.203 137.322C200.203 129.681 206.397 123.487 214.038 123.487H308.649C316.289 123.487 322.483 129.681 322.483 137.322C322.483 144.963 316.289 151.157 308.649 151.157H214.038C206.397 151.157 200.203 144.963 200.203 137.322Z" stroke="#2E2E2E" stroke-width="0.892556"/>
<path d="M223.924 132.48L225.314 132.122L225.324 132.138L225.359 140.532L225.314 140.577L225.028 140.589L223.94 140.42L223.924 140.377V132.48Z" fill="#B4B4B4"/>
<path d="M215.884 141.16L215.889 141.161L219.559 142.227L219.568 142.234L219.584 142.247L219.579 145.442L219.568 145.456L215.884 143.666V141.16Z" fill="#B4B4B4"/>
<path d="M223.924 140.377L219.574 141.419L217.39 140.892L215.884 141.16L219.568 142.234L225.254 140.695L225.314 140.577L223.924 140.377Z" fill="#898989"/>
<path d="M223.252 133.644L223.216 133.603L219.607 132.555L219.567 132.57L219.531 132.551L213.852 134.189L213.821 134.227L213.867 134.252L215.166 134.442L215.211 134.427L219.561 133.385L221.745 133.912L223.252 133.644Z" fill="#898989"/>
<path d="M215.211 142.324L213.821 142.659L213.818 142.651L213.764 134.289L213.821 134.227L215.211 134.427V142.324Z" fill="#898989"/>
<path d="M217.088 139.08L219.567 139.371L219.586 139.343L219.596 135.465L219.567 135.433L217.088 135.724V139.08Z" fill="#B4B4B4"/>
<path d="M222.047 139.08L219.567 139.371V135.433L222.047 135.724V139.08Z" fill="#898989"/>
<path d="M223.251 133.644L219.567 132.57V129.348L223.251 131.138V133.644Z" fill="#B4B4B4"/>
<path d="M219.568 129.348L212.663 132.682V142.122L213.822 142.659V134.227L219.568 132.57V129.348Z" fill="#B4B4B4"/>
<path d="M225.314 132.122V140.577L219.567 142.234V145.456L226.472 142.122V132.682L225.314 132.122Z" fill="#B4B4B4"/>
<path d="M244.188 141.822L243.294 139.525H239.651L238.781 141.822H237.562L240.834 133.595H242.146L245.418 141.822H244.188ZM241.461 134.779L240.057 138.469H242.888L241.461 134.779ZM253.544 140.105L255.319 133.595H256.491L254.147 141.822H252.975L250.829 135.15L248.705 141.822H247.568L245.19 133.595H246.362L248.172 140.035L250.237 133.595H251.432L253.544 140.105ZM262.953 135.463L261.932 135.823C261.839 135.231 261.34 134.419 260.192 134.419C259.263 134.419 258.602 135.023 258.602 135.788C258.602 136.38 258.962 136.833 259.658 136.983L260.888 137.25C262.257 137.552 263.023 138.411 263.023 139.559C263.023 140.836 261.932 141.996 260.18 141.996C258.196 141.996 257.256 140.72 257.105 139.548L258.196 139.2C258.277 140.116 258.927 140.963 260.168 140.963C261.305 140.963 261.862 140.372 261.862 139.652C261.862 139.06 261.456 138.55 260.632 138.376L259.461 138.121C258.289 137.865 257.453 137.1 257.453 135.87C257.453 134.582 258.648 133.421 260.168 133.421C262.025 133.421 262.767 134.57 262.953 135.463ZM271.05 141.996C268.926 141.996 266.965 140.453 266.965 137.703C266.965 134.953 269.007 133.421 271.05 133.421C272.929 133.421 274.252 134.442 274.67 136.032L273.614 136.403C273.301 135.162 272.395 134.466 271.05 134.466C269.553 134.466 268.125 135.556 268.125 137.703C268.125 139.849 269.553 140.952 271.05 140.952C272.453 140.952 273.335 140.105 273.672 138.979L274.681 139.351C274.24 140.894 272.941 141.996 271.05 141.996ZM278.237 141.021C279.166 141.021 279.978 140.325 279.978 139.026C279.978 137.738 279.166 137.041 278.237 137.041C277.309 137.041 276.497 137.738 276.497 139.026C276.497 140.325 277.309 141.021 278.237 141.021ZM278.237 136.067C279.908 136.067 281.092 137.332 281.092 139.026C281.092 140.731 279.908 141.996 278.237 141.996C276.566 141.996 275.383 140.731 275.383 139.026C275.383 137.332 276.566 136.067 278.237 136.067ZM282.081 142.124L283.137 141.88C283.218 142.657 283.81 143.249 284.657 143.249C285.829 143.249 286.363 142.646 286.363 141.439V140.638C286.096 141.149 285.492 141.555 284.657 141.555C283.172 141.555 282.093 140.43 282.093 138.852C282.093 137.343 283.125 136.136 284.657 136.136C285.516 136.136 286.096 136.461 286.374 137.018V136.241H287.453V141.404C287.453 142.82 286.757 144.201 284.657 144.201C283.265 144.201 282.22 143.319 282.081 142.124ZM284.819 140.638C285.759 140.638 286.409 139.931 286.409 138.852C286.409 137.772 285.759 137.065 284.819 137.065C283.856 137.065 283.207 137.772 283.207 138.852C283.207 139.942 283.833 140.638 284.819 140.638ZM290.286 138.596V141.822H289.195V136.241H290.263V137.041C290.669 136.345 291.33 136.078 291.98 136.078C293.314 136.078 293.976 137.041 293.976 138.283V141.822H292.885V138.469C292.885 137.691 292.56 137.065 291.586 137.065C290.727 137.065 290.286 137.749 290.286 138.596ZM296.79 141.822H295.711V136.241H296.79V141.822ZM295.467 134.129C295.467 133.688 295.815 133.34 296.245 133.34C296.685 133.34 297.034 133.688 297.034 134.129C297.034 134.558 296.685 134.906 296.245 134.906C295.815 134.906 295.467 134.558 295.467 134.129ZM300.108 134.477V136.241H301.314V137.227H300.108V140.128C300.108 140.638 300.316 140.894 300.885 140.894C301.024 140.894 301.222 140.871 301.314 140.847V141.776C301.222 141.81 300.943 141.88 300.572 141.88C299.62 141.88 299.017 141.3 299.017 140.29V137.227H297.949V136.241H298.251C298.854 136.241 299.11 135.87 299.11 135.382V134.477H300.108ZM305.104 141.021C306.032 141.021 306.844 140.325 306.844 139.026C306.844 137.738 306.032 137.041 305.104 137.041C304.176 137.041 303.363 137.738 303.363 139.026C303.363 140.325 304.176 141.021 305.104 141.021ZM305.104 136.067C306.775 136.067 307.958 137.332 307.958 139.026C307.958 140.731 306.775 141.996 305.104 141.996C303.433 141.996 302.249 140.731 302.249 139.026C302.249 137.332 303.433 136.067 305.104 136.067Z" fill="#B4B4B4"/>
</g>
<defs>
<linearGradient id="paint0_linear_893_3211" x1="203.195" y1="90.2282" x2="144.749" y2="90.2282" gradientUnits="userSpaceOnUse">
<stop stop-color="#737373"/>
<stop offset="1" stop-color="#D9D9D9" stop-opacity="0"/>
</linearGradient>
<linearGradient id="paint1_linear_893_3211" x1="148.747" y1="87.1993" x2="84.2037" y2="87.1993" gradientUnits="userSpaceOnUse">
<stop offset="0.5" stop-color="#737373"/>
<stop offset="1" stop-color="#D9D9D9" stop-opacity="0"/>
</linearGradient>
<clipPath id="clip0_893_3211">
<rect width="349" height="174" fill="white"/>
</clipPath>
</defs>
</svg>
