<svg width="17" height="17" viewBox="0 0 17 17" fill="none" xmlns="http://www.w3.org/2000/svg">
<path fill-rule="evenodd" clip-rule="evenodd" d="M2.14014 2.07544L1.64014 2.57544V14.5754L2.14014 15.0754H14.1401L14.6401 14.5754V2.57544L14.1401 2.07544H2.14014ZM2.64014 14.0754V3.07544H13.6401V14.0754H2.64014ZM3.60693 10.4267H4.44838L4.67276 9.54039H5.77785L5.99663 10.4267H6.87173L5.73298 6.72437H4.74568L3.60693 10.4267ZM4.84105 8.89529L4.92519 8.54749L4.98059 8.31957C5.05676 8.00664 5.13942 7.66706 5.21128 7.35264H5.23372L5.52542 8.54749L5.60957 8.89529H4.84105ZM7.05465 10.4267H7.87927V9.16455H8.38974C9.16387 9.16455 9.82019 8.77748 9.82019 7.9136C9.82019 7.01607 9.1807 6.72437 8.38974 6.72437H7.05465V10.4267ZM7.87927 8.50822V7.38069H8.33925C8.7768 7.38069 9.0068 7.52093 9.0068 7.9136C9.0068 8.30067 8.79363 8.50822 8.33925 8.50822H7.87927ZM12.5173 10.4267H9.98178V9.73112H10.8344V7.41996H9.98178V6.72437H12.5173V7.41996H11.6647V9.73112H12.5173V10.4267Z" fill="url(#paint0_linear_1741_19842)"/>
<defs>
<linearGradient id="paint0_linear_1741_19842" x1="1.64014" y1="15.0754" x2="14.6401" y2="2.07544" gradientUnits="userSpaceOnUse">
<stop stop-color="#EDEDED" stop-opacity="0.5"/>
<stop offset="1" stop-color="white"/>
</linearGradient>
</defs>
</svg>
