<svg width="17" height="17" viewBox="0 0 17 17" fill="none" xmlns="http://www.w3.org/2000/svg">
<path fill-rule="evenodd" clip-rule="evenodd" d="M2.14014 2.43945L1.64014 2.93945V14.9395L2.14014 15.4395H14.1401L14.6401 14.9395V2.93945L14.1401 2.43945H2.14014ZM2.64014 14.4395V3.43945H13.6401V14.4395H2.64014ZM3.60693 10.7907H4.44838L4.67276 9.9044H5.77785L5.99663 10.7907H6.87173L5.73298 7.08838H4.74568L3.60693 10.7907ZM4.84105 9.2593L4.92519 8.9115L4.98059 8.68359C5.05676 8.37066 5.13942 8.03107 5.21128 7.71666H5.23372L5.52542 8.9115L5.60957 9.2593H4.84105ZM7.05465 10.7907H7.87927V9.52856H8.38974C9.16387 9.52856 9.82019 9.1415 9.82019 8.27762C9.82019 7.38008 9.1807 7.08838 8.38974 7.08838H7.05465V10.7907ZM7.87927 8.87224V7.7447H8.33925C8.7768 7.7447 9.0068 7.88494 9.0068 8.27762C9.0068 8.66468 8.79363 8.87224 8.33925 8.87224H7.87927ZM12.5173 10.7907H9.98178V10.0951H10.8344V7.78397H9.98178V7.08838H12.5173V7.78397H11.6647V10.0951H12.5173V10.7907Z" fill="#707070"/>
</svg>
