<svg width="16" height="17" viewBox="0 0 16 17" fill="none" xmlns="http://www.w3.org/2000/svg">
<path d="M9.5 5.59912C9.5 5.87526 9.72386 6.09912 10 6.09912C10.2761 6.09912 10.5 5.87526 10.5 5.59912H9.5ZM9.5 3.59912V5.59912H10.5V3.59912H9.5ZM6.5 5.59912V3.59912H5.5V5.59912H6.5ZM8 2.09912C8.82843 2.09912 9.5 2.77069 9.5 3.59912H10.5C10.5 2.21841 9.38071 1.09912 8 1.09912V2.09912ZM8 1.09912C6.61929 1.09912 5.5 2.21841 5.5 3.59912H6.5C6.5 2.77069 7.17157 2.09912 8 2.09912V1.09912Z" fill="#707070"/>
<rect x="12.499" y="5.59912" width="9" height="9" transform="rotate(90 12.499 5.59912)" stroke="#707070" stroke-miterlimit="10" stroke-linejoin="bevel"/>
<rect x="3.6377" y="8.46704" width="5" height="2" fill="#1C1C1C" stroke="#707070" stroke-miterlimit="10" stroke-linejoin="bevel"/>
<rect x="3.6377" y="10.467" width="5" height="2" fill="#1C1C1C" stroke="#707070" stroke-miterlimit="10" stroke-linejoin="bevel"/>
</svg>
