<svg width="16" height="17" viewBox="0 0 16 17" fill="none" xmlns="http://www.w3.org/2000/svg">
<path d="M7.99986 15.0623C5.66969 15.0623 3.64355 13.7606 2.60889 11.8447M7.99986 15.0623C6.86193 15.0623 5.82308 13.7056 5.28825 11.8447M7.99986 15.0623C9.15361 15.0623 10.2068 13.6676 10.735 11.7668M7.99986 15.0623C10.3615 15.0623 12.4108 13.7252 13.4322 11.7668M7.99986 2.81665C10.2892 2.81665 12.2851 4.07314 13.3356 5.93414M7.99986 2.81665C5.71048 2.81665 3.71457 4.07314 2.66412 5.93414M7.99986 2.81665C9.12986 2.81665 10.1169 4.04111 10.6473 5.8628M7.99986 2.81665C6.86986 2.81665 5.88285 4.04111 5.35244 5.8628" stroke="#707070" stroke-width="0.857143" stroke-miterlimit="10" stroke-linejoin="bevel"/>
<rect x="1" y="5.91211" width="14" height="6" fill="#1C1C1C" stroke="#707070" stroke-miterlimit="10" stroke-linejoin="bevel"/>
<path d="M2.5705 7.76738L3.49383 10.3261L4.44598 7.80848L5.25995 10.3261L6.21216 7.80848L7.02606 10.3261L7.97827 7.80848L8.79217 10.3261L9.74438 7.80848L10.5583 10.3261L11.5105 7.80848L12.3244 10.3261L13.4292 7.74712" stroke="#707070" stroke-width="0.8" stroke-miterlimit="10" stroke-linejoin="bevel"/>
</svg>
