<svg width="16" height="17" viewBox="0 0 16 17" fill="none" xmlns="http://www.w3.org/2000/svg">
<path fill-rule="evenodd" clip-rule="evenodd" d="M1.38867 2.23511L1.88867 1.73511H6.88867L7.38867 2.23511V7.23511L6.88867 7.73511H1.88867L1.38867 7.23511V2.23511ZM2.38867 2.73511V6.73511H6.38867V2.73511H2.38867ZM11.8886 5.2352V7.23511H10.8886V5.2352H8.88867V4.2352H10.8886V2.23511H11.8886V4.2352H13.8887V5.2352H11.8886ZM4.38867 9.73511C3.2841 9.73511 2.38867 10.6305 2.38867 11.7351C2.38867 12.8397 3.2841 13.7351 4.38867 13.7351C5.49324 13.7351 6.38867 12.8397 6.38867 11.7351C6.38867 10.6305 5.49324 9.73511 4.38867 9.73511ZM1.38867 11.7351C1.38867 10.0783 2.73182 8.73511 4.38867 8.73511C6.04553 8.73511 7.38867 10.0783 7.38867 11.7351C7.38867 13.392 6.04553 14.7351 4.38867 14.7351C2.73182 14.7351 1.38867 13.392 1.38867 11.7351ZM8.88867 8.73511L8.38867 9.23511V14.2351L8.88867 14.7351H13.8887L14.3887 14.2351V9.23511L13.8887 8.73511H8.88867ZM13.3887 13.7351H9.38867V9.73511H13.3887V13.7351Z" fill="url(#paint0_linear_1741_19810)"/>
<defs>
<linearGradient id="paint0_linear_1741_19810" x1="1.38867" y1="14.7351" x2="14.3887" y2="1.73511" gradientUnits="userSpaceOnUse">
<stop stop-color="#EDEDED" stop-opacity="0.5"/>
<stop offset="1" stop-color="white"/>
</linearGradient>
</defs>
</svg>
