<svg width="16" height="17" viewBox="0 0 16 17" fill="none" xmlns="http://www.w3.org/2000/svg">
<path fill-rule="evenodd" clip-rule="evenodd" d="M4.49998 2.73509H3.49996V11.0027C3.79413 10.8325 4.13568 10.7351 4.49998 10.7351H9.38181H12.4996V5.23659V5.23582L12.4924 2.73509H9.38154H8.49998V6.23511L7.62548 6.5664L6.50021 5.29439L5.3744 6.56648L4.49998 6.23511V2.73509ZM8 1.73513H9.38154H12.9909L13.4909 2.23367L13.4995 5.23439L13.4995 5.23582L13.4995 12.2349H13.4977L13.4999 12.5823L13.5 12.5855L13.5 14.2351L13 14.7351H4.49998C3.39542 14.7351 2.5 13.8397 2.5 12.7351V2.23511L2.99998 1.73513H4.99996L4.99998 1.73511H7.99998L8 1.73513ZM5.49998 4.9157V2.73511H7.49998V4.91529L6.87479 4.20857L6.12587 4.20849L5.49998 4.9157ZM4.49998 13.7351C3.94768 13.7351 3.49996 13.2874 3.49996 12.7351C3.49996 12.1828 3.94768 11.7351 4.49998 11.7351H9.38181H12.4946L12.5 12.5855V12.587V13.7351H4.49998Z" fill="url(#paint0_linear_1741_19936)"/>
<defs>
<linearGradient id="paint0_linear_1741_19936" x1="2.5" y1="14.7351" x2="15.3207" y2="3.88684" gradientUnits="userSpaceOnUse">
<stop stop-color="#EDEDED" stop-opacity="0.5"/>
<stop offset="1" stop-color="white"/>
</linearGradient>
</defs>
</svg>
