<svg width="16" height="17" viewBox="0 0 16 17" fill="none" xmlns="http://www.w3.org/2000/svg">
<path fill-rule="evenodd" clip-rule="evenodd" d="M3.00047 1.7356L2.50049 2.23557V5.2694C1.63405 5.93972 1.07617 6.98966 1.07617 8.16989C1.07617 9.35013 1.63405 10.4001 2.50049 11.0704V14.2351L3.00047 14.735H13L13.5 14.2351V5.83637L13.3527 5.48199L9.73472 1.88119L9.38203 1.7356H3.00047ZM3.50045 11.6196V13.7351H12.5001V6.31956L9.38052 6.31956L8.88055 5.81958L8.88055 2.73555H3.50045V4.72023C3.88793 4.58084 4.30569 4.50488 4.74118 4.50488C6.76531 4.50488 8.40619 6.14576 8.40619 8.16989C8.40619 8.92652 8.17691 9.6296 7.78404 10.2134L9.61772 12.0471L8.91064 12.7542L7.11705 10.9606C6.47726 11.5058 5.64765 11.8349 4.74118 11.8349C4.30569 11.8349 3.88793 11.7589 3.50045 11.6196ZM2.07613 8.16989C2.07613 6.69803 3.26931 5.50484 4.74118 5.50484C6.21305 5.50484 7.40624 6.69803 7.40624 8.16989C7.40624 9.64176 6.21305 10.8349 4.74118 10.8349C3.26931 10.8349 2.07613 9.64176 2.07613 8.16989ZM9.8805 3.44232L11.7578 5.3196L9.8805 5.3196V3.44232Z" fill="url(#paint0_linear_1741_19920)"/>
<defs>
<linearGradient id="paint0_linear_1741_19920" x1="1.07617" y1="14.735" x2="14.0623" y2="2.32392" gradientUnits="userSpaceOnUse">
<stop stop-color="#EDEDED" stop-opacity="0.5"/>
<stop offset="1" stop-color="white"/>
</linearGradient>
</defs>
</svg>
