<svg width="16" height="17" viewBox="0 0 16 17" fill="none" xmlns="http://www.w3.org/2000/svg">
<path fill-rule="evenodd" clip-rule="evenodd" d="M4.06499 4.25059C6.24026 2.07532 9.76706 2.07532 11.9423 4.25059C12.4386 4.74687 12.821 5.31253 13.0905 5.91585L14.0036 5.50802C13.6851 4.79495 13.2334 4.12745 12.6494 3.54349C10.0836 0.977693 5.92367 0.977692 3.35788 3.54349C2.29766 4.6037 1.67546 5.93686 1.49147 7.31642L1.06502 6.88997L0.35791 7.59708L1.66134 8.90051H2.36844L3.67187 7.59708L2.96476 6.88997L2.49528 7.35946C2.66569 6.22139 3.18886 5.12672 4.06499 4.25059ZM15.0635 8.73454L14.5735 8.24459C14.5596 9.90683 13.9184 11.5661 12.6494 12.835C12.3887 13.0958 12.1111 13.3303 11.8202 13.5384V15.212H10.8202V13.2841C10.8202 11.7684 9.59147 10.5396 8.07575 10.5396C6.56003 10.5396 5.3313 11.7684 5.3313 13.2841V15.212H4.3313V13.6341C3.09073 12.7785 2.13369 11.4956 1.70718 9.92739L2.67213 9.66495C2.97789 10.7892 3.60385 11.7398 4.42549 12.4458C4.67972 11.3342 5.42873 10.411 6.42847 9.9205C5.90559 9.46227 5.57544 8.78951 5.57544 8.03963C5.57544 6.65892 6.69473 5.53963 8.07544 5.53963C9.45615 5.53963 10.5754 6.65892 10.5754 8.03963C10.5754 8.7894 10.2454 9.46208 9.72263 9.9203C10.6947 10.3971 11.4298 11.2829 11.7036 12.3533C11.7848 12.281 11.8644 12.2059 11.9423 12.1279C12.9938 11.0764 13.5372 9.70954 13.572 8.33097L13.1684 8.73454L12.4613 8.02743L13.7624 6.72636H14.4695L15.7706 8.02743L15.0635 8.73454ZM8.07544 6.53963C7.24701 6.53963 6.57544 7.2112 6.57544 8.03963C6.57544 8.86805 7.24701 9.53963 8.07544 9.53963C8.90386 9.53963 9.57544 8.86805 9.57544 8.03963C9.57544 7.2112 8.90386 6.53963 8.07544 6.53963Z" fill="url(#paint0_linear_1741_19896)"/>
<defs>
<linearGradient id="paint0_linear_1741_19896" x1="0.35791" y1="15.212" x2="13.8442" y2="-0.0798281" gradientUnits="userSpaceOnUse">
<stop stop-color="#EDEDED" stop-opacity="0.5"/>
<stop offset="1" stop-color="white"/>
</linearGradient>
</defs>
</svg>
