<svg width="16" height="17" viewBox="0 0 16 17" fill="none" xmlns="http://www.w3.org/2000/svg">
<path d="M14.0429 7.94231C14.2189 9.69252 13.6365 11.5046 12.2956 12.8454C12.0452 13.0959 11.7783 13.3199 11.4985 13.5174M13.5468 6.07587C13.2528 5.41767 12.8358 4.80109 12.2956 4.26098C9.92511 1.89044 6.08172 1.89044 3.71119 4.26098C2.53694 5.43522 1.94436 6.97087 1.93345 8.50988" stroke="#707070" stroke-miterlimit="10" stroke-linejoin="bevel"/>
<path d="M2.18941 10.1601C2.61039 11.7079 3.58965 12.9544 4.85107 13.7415" stroke="#707070" stroke-miterlimit="10" stroke-linejoin="bevel"/>
<circle cx="8.0752" cy="8.40356" r="2" fill="#1C1C1C" stroke="#707070" stroke-miterlimit="10" stroke-linejoin="bevel"/>
<path d="M0.711221 7.60746L2.01465 8.91089L3.31808 7.60746" stroke="#707070" stroke-miterlimit="10" stroke-linejoin="bevel"/>
<path d="M15.4168 8.74492L14.1157 7.44385L12.8146 8.74492" stroke="#707070" stroke-miterlimit="10" stroke-linejoin="bevel"/>
<path d="M11.32 15.5759V13.648C11.32 11.8562 9.86737 10.4036 8.07551 10.4036V10.4036C6.28364 10.4036 4.83105 11.8562 4.83105 13.648V15.5759" stroke="#707070" stroke-miterlimit="10" stroke-linejoin="bevel"/>
</svg>
