<svg width="16" height="17" viewBox="0 0 16 17" fill="none" xmlns="http://www.w3.org/2000/svg">
<path d="M6.58966 12.4678V14.5124H3.17859V10.599L6.83398 10.5813C6.75025 10.5989 6.58966 11.2084 6.58966 12.4678Z" fill="#133929"/>
<path d="M13.0121 2.81348V5.93095V6.54215H11.8075C11.5573 5.72314 10.7955 5.12744 9.89453 5.12744C8.94375 5.12744 8.14793 5.79089 7.94475 6.68009L3.04883 6.4365V2.81348H13.0121Z" fill="#133929"/>
<path d="M7.47165 6.59888H3.50195V10.5989" stroke="#4CC38A" stroke-miterlimit="10" stroke-linejoin="bevel"/>
<path d="M8.00013 6.59912H3V2.59912H13V5.99183V6.59912H11.5704" stroke="#4CC38A" stroke-miterlimit="10" stroke-linejoin="bevel"/>
<path d="M3 10.5992V14.5991H6.55211V12.684C6.55211 11.8951 6.83986 11.1657 7.3172 10.5992H3Z" fill="#133929"/>
<path d="M13.041 14.9692V12.684C13.041 10.8922 11.5884 9.43959 9.79656 9.43959C8.0047 9.43959 6.55211 10.9114 6.55211 12.684C6.55211 14.4567 6.55211 14.5991 6.55211 14.5991H3V10.5992H7.3172" stroke="#4CC38A" stroke-miterlimit="10" stroke-linejoin="bevel"/>
<path d="M11.8945 7.43945C11.8945 8.54402 10.9991 9.43945 9.89453 9.43945C8.78996 9.43945 7.89453 8.54402 7.89453 7.43945C7.89453 6.33488 8.78996 5.43945 9.89453 5.43945C10.9991 5.43945 11.8945 6.33488 11.8945 7.43945Z" fill="#133929" stroke="#4CC38A" stroke-miterlimit="10" stroke-linejoin="bevel"/>
</svg>
