<svg width="16" height="17" viewBox="0 0 16 17" fill="none" xmlns="http://www.w3.org/2000/svg">
<path fill-rule="evenodd" clip-rule="evenodd" d="M3 1.73511L2.5 2.23511V6.23511L3 6.73511H3.00195V9.73518H3L2.5 10.2352V14.2351L3 14.7351H6.55211L7.05211 14.2351V14.2351V14.2351V14.2351V14.235V14.235V14.235V14.235V14.2349V14.2349V14.2349V14.2348V14.2348V14.2347V14.2346V14.2346V14.2345V14.2344V14.2344V14.2343V14.2342V14.2341V14.234V14.2339V14.2338V14.2337V14.2336V14.2335V14.2333V14.2332V14.2331V14.2329V14.2328V14.2326V14.2325V14.2323V14.2321V14.232V14.2318V14.2316V14.2314V14.2312V14.231V14.2308V14.2306V14.2304V14.2301V14.2299V14.2296V14.2294V14.2291V14.2289V14.2286V14.2283V14.228V14.2278V14.2275V14.2272V14.2268V14.2265V14.2262V14.2259V14.2255V14.2252V14.2248V14.2245V14.2241V14.2237V14.2233V14.2229V14.2225V14.2221V14.2217V14.2213V14.2208V14.2204V14.2199V14.2195V14.219V14.2185V14.218V14.2175V14.217V14.2165V14.216V14.2155V14.2149V14.2144V14.2138V14.2133V14.2127V14.2121V14.2115V14.2109V14.2103V14.2097V14.209V14.2084V14.2077V14.2071V14.2064V14.2057V14.205V14.2043V14.2036V14.2029V14.2021V14.2014V14.2006V14.1999V14.1991V14.1983V14.1975V14.1967V14.1959V14.195V14.1942V14.1933V14.1925V14.1916V14.1907V14.1898V14.1889V14.188V14.1871V14.1861V14.1852V14.1842V14.1832V14.1822V14.1812V14.1802V14.1792V14.1781V14.1771V14.176V14.1749V14.1738V14.1727V14.1716V14.1705V14.1694V14.1682V14.167V14.1659V14.1647V14.1635V14.1622V14.161V14.1598V14.1585V14.1572V14.156V14.1547V14.1534V14.152V14.1507V14.1493V14.148V14.1466V14.1452V14.1438V14.1424V14.1409V14.1395V14.138V14.1365V14.135V14.1335V14.132V14.1305V14.1289V14.1274V14.1258V14.1242V14.1226V14.1209V14.1193V14.1176V14.116V14.1143V14.1126V14.1109V14.1091V14.1074V14.1056V14.1038V14.102V14.1002V14.0984V14.0966V14.0947V14.0928V14.0909V14.089V14.0871V14.0852V14.0832V14.0812V14.0792V14.0772V14.0752V14.0732V14.0711V14.069V14.0669V14.0648V14.0627V14.0606V14.0584V14.0562V14.054V14.0518V14.0496V14.0473V14.0451V14.0428V14.0405V14.0382V14.0358V14.0335V14.0311V14.0287V14.0263V14.0239V14.0214V14.019V14.0165V14.014V14.0115V14.0089V14.0064V14.0038V14.0012V13.9986V13.996V13.9933V13.9907V13.988V13.9853V13.9825V13.9798V13.977V13.9742V13.9714V13.9686V13.9658V13.9629V13.96V13.9571V13.9542V13.9512V13.9483V13.9453V13.9423V13.9393V13.9362V13.9332V13.9301V13.927V13.9238V13.9207V13.9175V13.9143V13.9111V13.9079V13.9047V13.9014V13.8981V13.8948V13.8914V13.8881V13.8847V13.8813V13.8779V13.8744V13.871V13.8675V13.864V13.8604V13.8569V13.8533V13.8497V13.8461V13.8425V13.8388V13.8351V13.8314V13.8277V13.8239V13.8201V13.8163V13.8125V13.8087V13.8048V13.8009V13.797V13.7931V13.7891V13.7851V13.7811V13.7771V13.773V13.769V13.7649V13.7607V13.7566V13.7524V13.7482V13.744V13.7398V13.7355V13.7312V13.7269V13.7226V13.7182V13.7138V13.7094V13.705V13.7005V13.696V13.6915V13.687V13.6824V13.6778V13.6732V13.6686V13.6639V13.6592V13.6545V13.6498V13.645V13.6402V13.6354V13.6306V13.6257V13.6208V13.6159V13.611V13.606V13.601V13.596V13.591V13.5859V13.5808V13.5757V13.5705V13.5654V13.5602V13.5549V13.5497V13.5444V13.5391V13.5337V13.5284V13.523V13.5176V13.5121V13.5067V13.5012V13.4956V13.4901V13.4845V13.4789V13.4733V13.4676V13.4619V13.4562V13.4505V13.4447V13.4389V13.4331V13.4272V13.4213V13.4154V13.4095V13.4035V13.3975V13.3915V13.3854V13.3793V13.3732V13.3671V13.3609V13.3547V13.3485V13.3422V13.3359V13.3296V13.3233V13.3169V13.3105V13.3041V13.2976V13.2911V13.2846V13.2781V13.2715V13.2649V13.2582V13.2516V13.2449V13.2381V13.2314V13.2246V13.2178V13.2109V13.204V13.1971V13.1902V13.1832V13.1762V13.1692V13.1621V13.155V13.1479V13.1407V13.1335V13.1263V13.1191V13.1118V13.1045V13.0971V13.0897V13.0823V13.0749V13.0674V13.0599V13.0524V13.0448V13.0372V13.0296V13.0219V13.0142V13.0065V12.9987V12.991V12.9831V12.9753V12.9674V12.9595V12.9515V12.9435V12.9355V12.9275V12.9194V12.9113V12.9031V12.8949V12.8867V12.8784V12.8702V12.8618V12.8535V12.8451V12.8367V12.8282V12.8198V12.8112V12.8027V12.7941V12.7855V12.7768V12.7681V12.7594V12.7507V12.7419V12.733V12.7242V12.7153V12.7063V12.6974V12.6884V12.6793V12.6703V12.6612V12.652V12.6429V12.6337V12.6244V12.6151V12.6058V12.5965V12.5871V12.5777V12.5682V12.5587V12.5492V12.5396V12.53V12.5204V12.5107V12.501V12.4913V12.4815V12.4717V12.4618V12.4519V12.442V12.432V12.422V12.412V12.4019V12.3918V12.3817V12.3715V12.3613V12.351V12.3407V12.3304V12.32C7.05211 10.8216 8.28277 9.57558 9.79656 9.57558C11.3123 9.57558 12.541 10.8043 12.541 12.32V14.6052H13.541V12.32C13.541 10.8677 12.7141 9.60838 11.5054 8.98736C12.0491 8.52876 12.3945 7.84244 12.3945 7.07544C12.3945 6.96 12.3867 6.84639 12.3716 6.73511H13L13.5 6.23511V5.62782V2.23511L13 1.73511H3ZM12.0052 5.73511H12.5V5.62782V2.73511H3.5V5.73511H3.50171L3.50195 5.73486H7.47165V5.73511H7.78382C8.22745 5.03795 9.00698 4.57544 9.89453 4.57544C10.7821 4.57544 11.5616 5.03795 12.0052 5.73511ZM7.4175 6.73511H4.00195V9.73518H7.09451C7.41337 9.40175 7.79297 9.12638 8.21557 8.92778C7.71126 8.4704 7.39453 7.80991 7.39453 7.07544C7.39453 6.96 7.40236 6.84639 7.4175 6.73511ZM6.40706 10.7352H3.5V13.7351H6.05211V13.7312V13.7269V13.7226V13.7182V13.7138V13.7094V13.705V13.7005V13.696V13.6915V13.687V13.6824V13.6778V13.6732V13.6686V13.6639V13.6592V13.6545V13.6498V13.645V13.6402V13.6354V13.6306V13.6257V13.6208V13.6159V13.611V13.606V13.601V13.596V13.591V13.5859V13.5808V13.5757V13.5705V13.5654V13.5602V13.5549V13.5497V13.5444V13.5391V13.5337V13.5284V13.523V13.5176V13.5121V13.5067V13.5012V13.4956V13.4901V13.4845V13.4789V13.4733V13.4676V13.4619V13.4562V13.4505V13.4447V13.4389V13.4331V13.4272V13.4213V13.4154V13.4095V13.4035V13.3975V13.3915V13.3854V13.3793V13.3732V13.3671V13.3609V13.3547V13.3485V13.3422V13.3359V13.3296V13.3233V13.3169V13.3105V13.3041V13.2976V13.2911V13.2846V13.2781V13.2715V13.2649V13.2582V13.2516V13.2449V13.2381V13.2314V13.2246V13.2178V13.2109V13.204V13.1971V13.1902V13.1832V13.1762V13.1692V13.1621V13.155V13.1479V13.1407V13.1335V13.1263V13.1191V13.1118V13.1045V13.0971V13.0897V13.0823V13.0749V13.0674V13.0599V13.0524V13.0448V13.0372V13.0296V13.0219V13.0142V13.0065V12.9987V12.991V12.9831V12.9753V12.9674V12.9595V12.9515V12.9435V12.9355V12.9275V12.9194V12.9113V12.9031V12.8949V12.8867V12.8784V12.8702V12.8618V12.8535V12.8451V12.8367V12.8282V12.8198V12.8112V12.8027V12.7941V12.7855V12.7768V12.7681V12.7594V12.7507V12.7419V12.733V12.7242V12.7153V12.7063V12.6974V12.6884V12.6793V12.6703V12.6612V12.652V12.6429V12.6337V12.6244V12.6151V12.6058V12.5965V12.5871V12.5777V12.5682V12.5587V12.5492V12.5396V12.53V12.5204V12.5107V12.501V12.4913V12.4815V12.4717V12.4618V12.4519V12.442V12.432V12.422V12.412V12.4019V12.3918V12.3817V12.3715V12.3613V12.351V12.3407V12.3304V12.32C6.05211 11.7558 6.17936 11.2181 6.40706 10.7352ZM8.39453 7.07544C8.39453 6.24701 9.0661 5.57544 9.89453 5.57544C10.723 5.57544 11.3945 6.24701 11.3945 7.07544C11.3945 7.90387 10.723 8.57544 9.89453 8.57544C9.0661 8.57544 8.39453 7.90387 8.39453 7.07544Z" fill="url(#paint0_linear_1741_19715)"/>
<defs>
<linearGradient id="paint0_linear_1741_19715" x1="2.5" y1="14.7351" x2="15.3285" y2="3.83975" gradientUnits="userSpaceOnUse">
<stop stop-color="#EDEDED" stop-opacity="0.5"/>
<stop offset="1" stop-color="white"/>
</linearGradient>
</defs>
</svg>
