<svg width="16" height="17" viewBox="0 0 16 17" fill="none" xmlns="http://www.w3.org/2000/svg">
<path d="M12.3535 4.40197L11.9958 4.75141L12.3535 4.40197ZM8.0584 2.59375V3.09375V2.59375ZM3.76347 4.40197L3.40586 4.05252L3.76347 4.40197ZM2.05273 8.59954H2.55273H2.05273ZM3.76243 12.7968L3.40481 13.1462H3.40481L3.76243 12.7968ZM12.3545 12.7968L11.9969 12.4473L12.3545 12.7968ZM12.6813 10.5042L13.1436 10.6947L12.6813 10.5042ZM12.6813 10.5042L13.1436 10.6947L12.6813 10.5042ZM11.4345 13.14L11.4756 12.6417L11.4345 13.14ZM9.97849 13.2193L9.7859 12.7579L9.97849 13.2193ZM6.13786 13.2243L5.94646 13.6862L6.13786 13.2243ZM3.42431 10.507L3.88649 10.3162L3.42431 10.507ZM3.42428 6.69103L3.88646 6.88178L3.42428 6.69103ZM3.44274 5.33993L2.946 5.39698L3.44274 5.33993ZM3.42428 6.69103L3.88646 6.88178L3.42428 6.69103ZM6.06327 4.00531L5.86437 3.54657L6.06327 4.00531ZM4.68233 4.05865L4.64172 4.557L4.68233 4.05865ZM4.68166 13.14L4.64088 12.6417L4.68166 13.14ZM6.06394 13.1929L5.86511 13.6517L6.06394 13.1929ZM9.03195 3.07283L8.63598 3.37812L9.03195 3.07283ZM10.0436 4.00639L9.8445 4.46502L10.0436 4.00639ZM3.42431 10.507L3.88649 10.3162L3.42431 10.507ZM13.565 7.61068L13.2679 8.01285L13.565 7.61068ZM12.6813 6.69381L13.1436 6.50334L12.6813 6.69381ZM12.6721 5.35706L12.1763 5.29262L12.6721 5.35706ZM12.6813 6.69381L13.1436 6.50334L12.6813 6.69381ZM13.1679 5.4215C13.2308 4.93808 13.0794 4.42946 12.7111 4.05252L11.9958 4.75141C12.1411 4.90005 12.2013 5.09982 12.1763 5.29262L13.1679 5.4215ZM12.7111 4.05252C12.3529 3.68595 11.8653 3.52158 11.3929 3.5604L11.4748 4.55704C11.6631 4.54156 11.8545 4.60679 11.9958 4.75141L12.7111 4.05252ZM9.78524 4.43979C9.80506 4.44806 9.82482 4.45647 9.8445 4.46502L10.2428 3.54776C10.2187 3.5373 10.1945 3.52701 10.1703 3.51689L9.78524 4.43979ZM9.42792 2.76753C9.11268 2.35867 8.61636 2.09375 8.0584 2.09375V3.09375C8.29317 3.09375 8.50192 3.20425 8.63598 3.37812L9.42792 2.76753ZM8.0584 2.09375C7.50206 2.09375 7.00699 2.35713 6.69163 2.76396L7.48198 3.37661C7.61609 3.2036 7.8243 3.09375 8.0584 3.09375V2.09375ZM6.26216 4.46405C6.28465 4.4543 6.30723 4.44472 6.32991 4.43533L5.94726 3.51144C5.91952 3.52293 5.89189 3.53464 5.86437 3.54657L6.26216 4.46405ZM4.72295 3.56031C4.25091 3.52183 3.76378 3.68623 3.40586 4.05252L4.12109 4.75141C4.2623 4.6069 4.45353 4.54166 4.64172 4.557L4.72295 3.56031ZM3.40586 4.05252C3.04378 4.42307 2.89133 4.92096 2.946 5.39698L3.93947 5.28288C3.91767 5.09308 3.97826 4.89757 4.12109 4.75141L3.40586 4.05252ZM2.2363 7.22252C1.82188 7.53737 1.55273 8.03711 1.55273 8.59954H2.55273C2.55273 8.36291 2.665 8.15269 2.84125 8.01878L2.2363 7.22252ZM1.55273 8.59954C1.55273 9.16267 1.82255 9.66295 2.23786 9.97774L2.84191 9.18079C2.66528 9.04691 2.55273 8.83645 2.55273 8.59954H1.55273ZM2.94522 11.7994C2.88979 12.2761 3.04214 12.775 3.40481 13.1462L4.12004 12.4473C3.97699 12.3009 3.91643 12.105 3.93853 11.9149L2.94522 11.7994ZM3.40481 13.1462C3.76287 13.5126 4.25023 13.677 4.72244 13.6384L4.64088 12.6417C4.45263 12.6571 4.2613 12.5919 4.12004 12.4473L3.40481 13.1462ZM6.32925 12.7623C6.307 12.7531 6.28484 12.7437 6.26276 12.7342L5.86511 13.6517C5.89211 13.6634 5.91923 13.6749 5.94646 13.6862L6.32925 12.7623ZM6.69123 14.4346C7.00658 14.8417 7.50182 15.1053 8.0584 15.1053V14.1053C7.8242 14.1053 7.61592 13.9954 7.48181 13.8223L6.69123 14.4346ZM8.0584 15.1053C8.6166 15.1053 9.11309 14.8402 9.42831 14.4311L8.63615 13.8208C8.50209 13.9948 8.29327 14.1053 8.0584 14.1053V15.1053ZM9.8439 12.7332C9.82464 12.7415 9.8053 12.7498 9.7859 12.7579L10.1711 13.6807C10.1948 13.6708 10.2185 13.6607 10.2421 13.6505L9.8439 12.7332ZM11.3934 13.6383C11.866 13.6773 12.3538 13.5129 12.7121 13.1462L11.9969 12.4473C11.8555 12.592 11.664 12.6572 11.4756 12.6417L11.3934 13.6383ZM12.7121 13.1462C13.081 12.7687 13.2323 12.259 13.1687 11.7749L12.1772 11.9052C12.2026 12.0983 12.1424 12.2984 11.9969 12.4473L12.7121 13.1462ZM13.8605 9.99172C14.2864 9.67784 14.5643 9.1711 14.5643 8.59954H13.5643C13.5643 8.83995 13.4484 9.0532 13.2672 9.18671L13.8605 9.99172ZM14.5643 8.59954C14.5643 8.02867 14.2871 7.52247 13.8621 7.20851L13.2679 8.01285C13.4487 8.1464 13.5643 8.35942 13.5643 8.59954H14.5643ZM13.1436 10.6947C13.2405 10.4594 13.486 10.2677 13.8605 9.99172L13.2672 9.18671C12.9618 9.41181 12.4438 9.76803 12.219 10.3137L13.1436 10.6947ZM13.1687 11.7749C13.136 11.5266 13.1018 11.3365 13.0913 11.135C13.0814 10.9436 13.0988 10.8034 13.1436 10.6947L12.219 10.3137C12.0946 10.6155 12.0789 10.9231 12.0927 11.1869C12.1059 11.4408 12.152 11.7133 12.1772 11.9052L13.1687 11.7749ZM10.2421 13.6505C10.3584 13.6 10.5092 13.5785 10.7142 13.5829C10.9334 13.5877 11.1271 13.6163 11.3934 13.6383L11.4756 12.6417C11.2836 12.6258 10.9925 12.5888 10.736 12.5832C10.4652 12.5773 10.1495 12.6005 9.8439 12.7332L10.2421 13.6505ZM9.42831 14.4311C9.5712 14.2456 9.68702 14.0883 9.81828 13.9489C9.94585 13.8134 10.0597 13.7272 10.1711 13.6807L9.7859 12.7579C9.49517 12.8792 9.26882 13.0737 9.09029 13.2633C8.91545 13.449 8.75922 13.661 8.63615 13.8208L9.42831 14.4311ZM5.94646 13.6862C6.05802 13.7324 6.17206 13.8183 6.29999 13.9534C6.43162 14.0925 6.54786 14.2495 6.69123 14.4346L7.48181 13.8223C7.35832 13.6628 7.20153 13.4512 7.0262 13.266C6.84716 13.0768 6.6203 12.8829 6.32925 12.7623L5.94646 13.6862ZM2.96213 10.6977C3.00815 10.8092 3.02609 10.9525 3.01718 11.1477C3.00771 11.3548 2.97487 11.5445 2.94522 11.7994L3.93853 11.9149C3.96067 11.7245 4.00457 11.4463 4.01613 11.1933C4.02825 10.9283 4.01152 10.6192 3.88649 10.3162L2.96213 10.6977ZM2.96209 6.50028C2.86233 6.74199 2.61324 6.93614 2.2363 7.22252L2.84125 8.01878C3.14289 7.78962 3.6611 7.42781 3.88646 6.88178L2.96209 6.50028ZM2.946 5.39698C2.97534 5.65248 3.00803 5.84201 3.01739 6.04963C3.0262 6.24502 3.0082 6.38855 2.96209 6.50028L3.88646 6.88178C4.0115 6.57882 4.02833 6.26964 4.01637 6.00458C4.00497 5.75174 3.96131 5.47307 3.93947 5.28288L2.946 5.39698ZM5.86437 3.54657C5.7489 3.59663 5.59937 3.61819 5.3964 3.61412C5.17954 3.60977 4.98681 3.58181 4.72295 3.56031L4.64172 4.557C4.83303 4.57259 5.12127 4.6088 5.37634 4.61392C5.64529 4.61931 5.95863 4.59565 6.26216 4.46405L5.86437 3.54657ZM4.72244 13.6384C4.9866 13.6167 5.17946 13.5887 5.3966 13.5842C5.59982 13.5801 5.74952 13.6016 5.86511 13.6517L6.26276 12.7342C5.95895 12.6025 5.6453 12.5789 5.37612 12.5844C5.12087 12.5897 4.83229 12.626 4.64088 12.6417L4.72244 13.6384ZM10.1703 3.51689C10.0589 3.47044 9.94521 3.38435 9.81772 3.24909C9.68654 3.1099 9.57075 2.95278 9.42792 2.76753L8.63598 3.37812C8.75903 3.53772 8.91522 3.74952 9.09 3.93497C9.26848 4.12433 9.49471 4.31858 9.78524 4.43979L10.1703 3.51689ZM11.3929 3.5604C11.1269 3.58225 10.9333 3.61072 10.7144 3.61541C10.5097 3.6198 10.359 3.59822 10.2428 3.54776L9.8445 4.46502C10.1498 4.59759 10.4652 4.62098 10.7358 4.61519C10.9921 4.60969 11.2828 4.57281 11.4748 4.55704L11.3929 3.5604ZM6.69163 2.76396C6.54832 2.94884 6.43211 3.10568 6.30056 3.24453C6.17271 3.37947 6.05874 3.46527 5.94726 3.51144L6.32991 4.43533C6.62075 4.31487 6.8475 4.12121 7.02648 3.9323C7.20176 3.7473 7.3585 3.5359 7.48198 3.37661L6.69163 2.76396ZM2.23786 9.97774C2.61421 10.263 2.86269 10.4568 2.96213 10.6977L3.88649 10.3162C3.6613 9.77062 3.14367 9.40951 2.84191 9.18079L2.23786 9.97774ZM13.8621 7.20851C13.4869 6.93142 13.2408 6.73938 13.1436 6.50334L12.219 6.88428C12.444 7.43041 12.9626 7.78731 13.2679 8.01285L13.8621 7.20851ZM12.1763 5.29262C12.1514 5.48431 12.1055 5.75726 12.0924 6.01096C12.0789 6.27482 12.0947 6.58249 12.219 6.88428L13.1436 6.50334C13.0987 6.39439 13.0813 6.25395 13.0911 6.06225C13.1015 5.86039 13.1356 5.67034 13.1679 5.4215L12.1763 5.29262Z" fill="#4CC38A"/>
<path d="M8 10.5989C9.10457 10.5989 10 9.70345 10 8.59888C10 7.49431 9.10457 6.59888 8 6.59888C6.89543 6.59888 6 7.49431 6 8.59888C6 9.70345 6.89543 10.5989 8 10.5989Z" fill="#133929" stroke="#4CC38A" stroke-miterlimit="10" stroke-linejoin="bevel"/>
</svg>
