<svg width="16" height="17" viewBox="0 0 16 17" fill="none" xmlns="http://www.w3.org/2000/svg">
<path fill-rule="evenodd" clip-rule="evenodd" d="M8.05852 1.73022C7.5023 1.73022 7.00732 1.99349 6.69195 2.40018L6.62575 2.48589C6.51148 2.63415 6.41164 2.76369 6.30094 2.88048C6.17312 3.01534 6.05918 3.10108 5.94774 3.14723C5.91964 3.15886 5.89166 3.17072 5.86379 3.18281C5.74837 3.23287 5.59889 3.25444 5.396 3.25042C5.25326 3.24758 5.12096 3.23451 4.97192 3.21979C4.89464 3.21216 4.81286 3.20408 4.72279 3.19676C4.25084 3.15837 3.76383 3.32278 3.40598 3.689C3.04394 4.0595 2.89149 4.55734 2.94611 5.03332C2.95539 5.11413 2.96499 5.18835 2.97409 5.25862L2.9741 5.25865C2.99375 5.41046 3.01103 5.54389 3.01741 5.68575C3.0262 5.88107 3.0082 6.02455 2.9621 6.13625C2.86233 6.37797 2.61324 6.57213 2.23629 6.85851C1.82187 7.17337 1.55273 7.67311 1.55273 8.23552C1.55273 8.79858 1.82248 9.29881 2.23771 9.61361C2.61414 9.89899 2.8627 10.0929 2.96219 10.3339C3.00823 10.4454 3.02619 10.5888 3.01727 10.784C3.01077 10.9262 2.99328 11.0601 2.97338 11.2125C2.96426 11.2823 2.95463 11.356 2.94532 11.4361C2.88997 11.9128 3.04232 12.4116 3.40494 12.7827C3.76306 13.1492 4.25054 13.3135 4.72283 13.2748C4.81326 13.2674 4.89532 13.2592 4.97287 13.2515C5.12192 13.2367 5.25426 13.2235 5.39713 13.2206C5.60039 13.2164 5.75013 13.2379 5.86574 13.2879C5.89247 13.2995 5.91931 13.3109 5.94625 13.3221C6.05785 13.3683 6.17193 13.4543 6.29989 13.5895C6.4106 13.7065 6.51041 13.8362 6.62462 13.9846L6.69122 14.0709C7.00656 14.4781 7.50187 14.7418 8.05852 14.7418C8.61684 14.7418 9.11342 14.4766 9.42863 14.0673L9.49503 13.9807C9.60883 13.832 9.70828 13.7021 9.81866 13.5848C9.94625 13.4493 10.0601 13.363 10.1716 13.3165C10.1949 13.3067 10.2183 13.2968 10.2415 13.2867C10.3579 13.2362 10.5088 13.2147 10.7138 13.2192C10.8572 13.2224 10.9898 13.2357 11.1389 13.2508C11.2177 13.2587 11.3011 13.2671 11.3933 13.2747C11.8659 13.3138 12.3538 13.1495 12.7122 12.7827C13.0812 12.4051 13.2324 11.8954 13.1688 11.4112C13.1596 11.3414 13.1503 11.2761 13.1414 11.2139L13.1414 11.2138C13.1187 11.0549 13.0989 10.916 13.0913 10.7712C13.0814 10.5797 13.0988 10.4394 13.1436 10.3307C13.2405 10.0954 13.486 9.90371 13.8605 9.62771C14.2864 9.31383 14.5643 8.80709 14.5643 8.23552C14.5643 7.66459 14.287 7.15834 13.8619 6.84438C13.4869 6.56742 13.2409 6.37541 13.1437 6.13947C13.0988 6.03058 13.0814 5.89021 13.0912 5.69863C13.0986 5.55412 13.1182 5.41563 13.1407 5.25727L13.1407 5.25714C13.1495 5.19447 13.1589 5.1287 13.168 5.05821C13.2309 4.57471 13.0796 4.06599 12.7112 3.689C12.3531 3.32249 11.8656 3.15812 11.3933 3.19685C11.3015 3.20437 11.2184 3.21268 11.1399 3.22054C10.9907 3.23544 10.8582 3.24869 10.7149 3.25174C10.5103 3.25609 10.3596 3.23449 10.2434 3.18402C10.2191 3.17344 10.1946 3.16303 10.1701 3.15279C10.0588 3.10636 9.94507 3.02032 9.81762 2.88513C9.70725 2.76806 9.60777 2.63828 9.4939 2.48973L9.4939 2.48973L9.42791 2.40382C9.11266 1.99506 8.61641 1.73022 8.05852 1.73022ZM7.48219 3.01298C7.6163 2.84003 7.82447 2.73022 8.05852 2.73022C8.29326 2.73022 8.50198 2.84069 8.63605 3.01452L8.69313 3.08895L8.69313 3.08896C8.80598 3.23649 8.94125 3.41334 9.09 3.57112C9.26845 3.7604 9.49464 3.95455 9.78507 4.07571C9.80513 4.08407 9.82511 4.09258 9.84502 4.10123C10.1503 4.23381 10.4656 4.25726 10.7361 4.25151C10.9186 4.24763 11.1185 4.22785 11.2878 4.21109L11.2878 4.21109C11.3563 4.20431 11.4198 4.19803 11.475 4.1935C11.6633 4.17806 11.8547 4.24329 11.996 4.38789C12.1412 4.53655 12.2015 4.73636 12.1764 4.92918C12.1704 4.97488 12.1633 5.02518 12.1557 5.07873L12.1557 5.07889L12.1557 5.07891C12.1314 5.24998 12.1024 5.4542 12.0925 5.64732C12.079 5.91111 12.0947 6.21868 12.219 6.52038C12.4309 7.03463 12.903 7.38104 13.2123 7.60799L13.2678 7.64879C13.4487 7.78233 13.5643 7.99537 13.5643 8.23552C13.5643 8.47594 13.4484 8.68919 13.2672 8.8227L13.2128 8.86263C12.9035 9.08917 12.4309 9.43523 12.219 9.94971C12.0946 10.2516 12.0789 10.5593 12.0927 10.8232C12.1028 11.0169 12.1321 11.2216 12.1566 11.393L12.1566 11.3931C12.1642 11.4462 12.1713 11.4962 12.1773 11.5416C12.2027 11.7347 12.1425 11.9349 11.997 12.0838C11.8556 12.2285 11.6641 12.2937 11.4756 12.2781C11.4202 12.2735 11.3565 12.2672 11.2878 12.2603C11.1184 12.2434 10.9183 12.2235 10.7358 12.2195C10.465 12.2135 10.1491 12.2367 9.84344 12.3694C9.82445 12.3776 9.8054 12.3857 9.78628 12.3937C9.49547 12.5151 9.26908 12.7097 9.09053 12.8994C8.94181 13.0574 8.80655 13.2345 8.69372 13.3822L8.63635 13.4571C8.5023 13.6312 8.29344 13.7418 8.05852 13.7418C7.82429 13.7418 7.61598 13.6318 7.48188 13.4587L7.42434 13.3839L7.42432 13.3839C7.31108 13.2365 7.17535 13.0597 7.0262 12.9021C6.84713 12.7129 6.62022 12.5189 6.32908 12.3983C6.30706 12.3891 6.28513 12.3798 6.26328 12.3704C5.9594 12.2387 5.64569 12.2152 5.37647 12.2208C5.19411 12.2245 4.99473 12.2442 4.82593 12.2608L4.82579 12.2609C4.75833 12.2675 4.69576 12.2737 4.64111 12.2782C4.45283 12.2936 4.26146 12.2284 4.12017 12.0838C3.97714 11.9374 3.91657 11.7415 3.93865 11.5515C3.94445 11.5015 3.95174 11.4456 3.95956 11.3856L3.95957 11.3856L3.95957 11.3855C3.98157 11.2168 4.00769 11.0163 4.01622 10.8297C4.02834 10.5646 4.01161 10.2553 3.88654 9.95233C3.67679 9.44419 3.2134 9.09603 2.90698 8.86581L2.84185 8.81673C2.66525 8.68284 2.55273 8.47241 2.55273 8.23552C2.55273 7.9989 2.66499 7.78868 2.84125 7.65477L2.90744 7.6048C3.21384 7.37417 3.67684 7.02566 3.88647 6.51775C4.01147 6.21488 4.02832 5.9058 4.0164 5.64081C4.00803 5.45477 3.9822 5.25476 3.96044 5.08631C3.95263 5.02588 3.94535 4.96951 3.93959 4.9193C3.91781 4.72952 3.9784 4.53403 4.12121 4.38789C4.2624 4.2434 4.45358 4.17816 4.64173 4.19347C4.69626 4.1979 4.75866 4.20401 4.82592 4.21059C4.9946 4.2271 5.19383 4.2466 5.37615 4.25022C5.64502 4.25556 5.95827 4.23183 6.26169 4.10024C6.28446 4.09036 6.30733 4.08067 6.3303 4.07116C6.62106 3.95077 6.84777 3.75721 7.02673 3.5684C7.17591 3.41101 7.31166 3.23451 7.4249 3.08727L7.42491 3.08726L7.48219 3.01298ZM6.5 8.23511C6.5 7.40668 7.17157 6.73511 8 6.73511C8.82843 6.73511 9.5 7.40668 9.5 8.23511C9.5 9.06353 8.82843 9.73511 8 9.73511C7.17157 9.73511 6.5 9.06353 6.5 8.23511ZM8 5.73511C6.61929 5.73511 5.5 6.8544 5.5 8.23511C5.5 9.61582 6.61929 10.7351 8 10.7351C9.38071 10.7351 10.5 9.61582 10.5 8.23511C10.5 6.8544 9.38071 5.73511 8 5.73511Z" fill="url(#paint0_linear_1741_19832)"/>
<defs>
<linearGradient id="paint0_linear_1741_19832" x1="1.55273" y1="14.7416" x2="14.5643" y2="1.72998" gradientUnits="userSpaceOnUse">
<stop stop-color="#EDEDED" stop-opacity="0.5"/>
<stop offset="1" stop-color="white"/>
</linearGradient>
</defs>
</svg>
