<svg width="16" height="17" viewBox="0 0 16 17" fill="none" xmlns="http://www.w3.org/2000/svg">
<path d="M14 8.59912C14 11.9128 11.3137 14.5991 8 14.5991C4.68629 14.5991 2 11.9128 2 8.59912C2 5.28541 4.68629 2.59912 8 2.59912C11.3137 2.59912 14 5.28541 14 8.59912Z" fill="#133929" stroke="#4CC38A" stroke-miterlimit="10" stroke-linejoin="bevel"/>
<path d="M8.09939 7.19435C8.48901 7.19435 8.77115 6.93908 8.77115 6.53602C8.77115 6.13297 8.48901 5.85083 8.09939 5.85083C7.70977 5.85083 7.42763 6.13297 7.42763 6.53602C7.42763 6.93908 7.70977 7.19435 8.09939 7.19435ZM6.50732 11.0234H9.77879V10.224H8.6368V7.5974H6.50732V8.36993H7.64931V10.224H6.50732V11.0234Z" fill="#4CC38A"/>
</svg>
