<svg width="16" height="17" viewBox="0 0 16 17" fill="none" xmlns="http://www.w3.org/2000/svg">
<path fill-rule="evenodd" clip-rule="evenodd" d="M2.5 8.23511C2.5 5.19754 4.96243 2.73511 8 2.73511C11.0376 2.73511 13.5 5.19754 13.5 8.23511C13.5 11.2727 11.0376 13.7351 8 13.7351C4.96243 13.7351 2.5 11.2727 2.5 8.23511ZM8 1.73511C4.41015 1.73511 1.5 4.64526 1.5 8.23511C1.5 11.825 4.41015 14.7351 8 14.7351C11.5899 14.7351 14.5 11.825 14.5 8.23511C14.5 4.64526 11.5899 1.73511 8 1.73511ZM8.77115 6.17201C8.77115 6.57507 8.48901 6.83033 8.09939 6.83033C7.70977 6.83033 7.42763 6.57507 7.42763 6.17201C7.42763 5.76896 7.70977 5.48682 8.09939 5.48682C8.48901 5.48682 8.77115 5.76896 8.77115 6.17201ZM9.77879 10.6594H6.50732V9.85997H7.64931V8.00591H6.50732V7.23339H8.6368V9.85997H9.77879V10.6594Z" fill="url(#paint0_linear_1741_19688)"/>
<defs>
<linearGradient id="paint0_linear_1741_19688" x1="1.5" y1="14.7351" x2="14.5" y2="1.73511" gradientUnits="userSpaceOnUse">
<stop stop-color="#EDEDED" stop-opacity="0.5"/>
<stop offset="1" stop-color="white"/>
</linearGradient>
</defs>
</svg>
