<svg width="1400" height="1210" viewBox="0 0 1400 1210" fill="none" xmlns="http://www.w3.org/2000/svg">
<g clip-path="url(#clip0_36_7161)">
<path d="M493.415 152H503.663V149.648H496.175V144.92H502.319V142.592H496.175V138.488H503.423V136.16H493.415V152ZM509.486 152H513.686C518.174 152 520.958 149.24 520.958 144.008C520.958 138.776 518.174 136.16 513.542 136.16H509.486V152ZM512.27 149.744V138.392H513.374C516.398 138.392 518.102 140.12 518.102 144.008C518.102 147.896 516.398 149.744 513.374 149.744H512.27ZM532.637 152.288C534.653 152.288 536.405 151.424 537.437 150.416V143.432H532.229V145.712H534.941V149.168C534.461 149.624 533.645 149.888 532.805 149.888C530.021 149.888 528.509 147.656 528.509 144.032C528.509 140.456 530.261 138.272 532.757 138.272C534.125 138.272 534.965 138.8 535.685 139.568L537.221 137.84C536.261 136.856 534.845 135.872 532.757 135.872C528.677 135.872 525.653 138.92 525.653 144.128C525.653 149.36 528.653 152.288 532.637 152.288ZM543.787 152H554.035V149.648H546.547V144.92H552.691V142.592H546.547V138.488H553.795V136.16H543.787V152ZM576.888 152H579.648V145.784H581.976L585.384 152H588.504L584.736 145.352C586.632 144.704 587.88 143.24 587.88 140.84C587.88 137.312 585.36 136.16 582.12 136.16H576.888V152ZM579.648 143.552V138.368H581.832C583.992 138.368 585.144 138.992 585.144 140.84C585.144 142.64 583.992 143.552 581.832 143.552H579.648ZM598.887 152.288C602.319 152.288 604.335 150.296 604.335 145.952V136.16H601.647V146.144C601.647 148.76 600.567 149.888 598.887 149.888C597.183 149.888 596.127 148.76 596.127 146.144V136.16H593.367V145.952C593.367 150.296 595.431 152.288 598.887 152.288ZM610.23 152H612.87V144.992C612.87 143.24 612.606 141.344 612.486 139.664H612.558L614.022 143L618.222 152H621.054V136.16H618.414V143.12C618.414 144.872 618.678 146.864 618.798 148.496H618.726L617.262 145.136L613.038 136.16H610.23V152ZM631.028 152H633.812V138.488H638.756V136.16H626.108V138.488H631.028V152ZM644.051 152H654.395V149.648H650.603V138.488H654.395V136.16H644.051V138.488H647.819V149.648H644.051V152ZM660.506 152H662.81V144.872C662.81 143.36 662.57 140.384 662.45 138.896H662.522L663.722 142.76L665.738 147.728H667.082L669.074 142.76L670.274 138.896H670.37C670.226 140.384 670.01 143.36 670.01 144.872V152H672.362V136.16H669.41L667.226 142.352L666.506 144.728H666.41L665.642 142.352L663.458 136.16H660.506V152ZM678.956 152H689.204V149.648H681.716V144.92H687.86V142.592H681.716V138.488H688.964V136.16H678.956V152ZM712.057 152H714.817V145.784H717.145L720.553 152H723.673L719.905 145.352C721.801 144.704 723.049 143.24 723.049 140.84C723.049 137.312 720.529 136.16 717.289 136.16H712.057V152ZM714.817 143.552V138.368H717.001C719.161 138.368 720.313 138.992 720.313 140.84C720.313 142.64 719.161 143.552 717.001 143.552H714.817ZM729.328 152H739.576V149.648H732.088V144.92H738.232V142.592H732.088V138.488H739.336V136.16H729.328V152ZM755.166 156.128C756.006 156.128 756.678 155.96 757.206 155.72L756.702 153.584C756.39 153.728 755.958 153.872 755.478 153.872C754.11 153.872 752.886 153.32 752.358 152.072C755.094 151.28 756.87 148.328 756.87 144.008C756.87 138.896 754.398 135.848 750.75 135.848C747.102 135.848 744.63 138.872 744.63 144.008C744.63 148.472 746.526 151.472 749.43 152.144C750.318 154.448 752.238 156.128 755.166 156.128ZM750.75 149.888C748.71 149.888 747.462 147.56 747.462 144.008C747.462 140.432 748.71 138.248 750.75 138.248C752.766 138.248 754.038 140.432 754.038 144.008C754.038 147.56 752.766 149.888 750.75 149.888ZM767.637 152.288C771.069 152.288 773.085 150.296 773.085 145.952V136.16H770.397V146.144C770.397 148.76 769.317 149.888 767.637 149.888C765.933 149.888 764.877 148.76 764.877 146.144V136.16H762.117V145.952C762.117 150.296 764.181 152.288 767.637 152.288ZM779.7 152H789.948V149.648H782.46V144.92H788.604V142.592H782.46V138.488H789.708V136.16H779.7V152ZM801.218 152.288C804.89 152.288 807.026 150.152 807.026 147.584C807.026 145.28 805.61 144.128 803.618 143.312L801.554 142.424C800.138 141.848 798.866 141.416 798.866 140.168C798.866 138.968 799.874 138.272 801.506 138.272C802.97 138.272 804.05 138.776 805.106 139.64L806.546 137.888C805.25 136.616 803.45 135.872 801.506 135.872C798.314 135.872 796.058 137.792 796.058 140.312C796.058 142.616 797.762 143.864 799.442 144.512L801.578 145.448C803.138 146.072 804.194 146.48 804.194 147.8C804.194 149.072 803.21 149.888 801.266 149.888C799.73 149.888 798.17 149.144 796.994 148.064L795.386 149.96C796.922 151.448 799.01 152.288 801.218 152.288ZM816.569 152H819.353V138.488H824.297V136.16H811.649V138.488H816.569V152ZM847.27 152H850.03V145.352H856.15V143.024H850.03V138.488H857.23V136.16H847.27V152ZM864.037 152H874.165V149.648H866.773V136.16H864.037V152ZM885.123 152.288C888.771 152.288 891.291 149.12 891.291 144.008C891.291 138.896 888.771 135.872 885.123 135.872C881.499 135.872 878.955 138.872 878.955 144.008C878.955 149.12 881.499 152.288 885.123 152.288ZM885.123 149.888C883.107 149.888 881.811 147.584 881.811 144.008C881.811 140.432 883.107 138.272 885.123 138.272C887.139 138.272 888.459 140.432 888.459 144.008C888.459 147.584 887.139 149.888 885.123 149.888ZM897.138 152H900.042L901.362 146.144C901.578 145.184 901.746 144.152 901.89 143.216H901.962C902.082 144.152 902.274 145.184 902.466 146.144L903.858 152H906.81L908.946 136.136H906.33L905.49 145.352L905.274 149.336H905.178C904.89 147.992 904.53 146.648 904.266 145.352L902.922 140.216H901.146L899.778 145.352C899.49 146.672 899.154 148.016 898.866 149.336H898.794C898.722 148.016 898.626 146.696 898.578 145.352L897.69 136.136H894.882L897.138 152Z" fill="#EDEDED"/>
<path d="M109.136 278.288C111.128 278.288 112.736 277.472 114.008 275.984L112.448 274.304C111.56 275.288 110.576 275.888 109.304 275.888C106.616 275.888 104.816 273.656 104.816 270.032C104.816 266.456 106.616 264.272 109.232 264.272C110.456 264.272 111.368 264.776 112.16 265.568L113.696 263.84C112.712 262.808 111.176 261.872 109.232 261.872C105.08 261.872 101.984 264.944 101.984 270.128C101.984 275.36 105.128 278.288 109.136 278.288ZM120.214 278H130.342V275.648H122.95V262.16H120.214V278ZM136.141 278H146.485V275.648H142.693V264.488H146.485V262.16H136.141V264.488H139.909V275.648H136.141V278ZM153.412 278H163.66V275.648H156.172V270.92H162.316V268.592H156.172V264.488H163.42V262.16H153.412V278ZM169.482 278H172.122V270.992C172.122 269.24 171.858 267.344 171.738 265.664H171.81L173.274 269L177.474 278H180.306V262.16H177.666V269.12C177.666 270.872 177.93 272.864 178.05 274.496H177.978L176.514 271.136L172.29 262.16H169.482V278ZM190.281 278H193.065V264.488H198.009V262.16H185.361V264.488H190.281V278Z" fill="#EDEDED"/>
<path d="M401.82 278H404.58V271.784H406.908L410.316 278H413.436L409.668 271.352C411.564 270.704 412.812 269.24 412.812 266.84C412.812 263.312 410.292 262.16 407.052 262.16H401.82V278ZM404.58 269.552V264.368H406.764C408.924 264.368 410.076 264.992 410.076 266.84C410.076 268.64 408.924 269.552 406.764 269.552H404.58ZM423.819 278.288C427.251 278.288 429.267 276.296 429.267 271.952V262.16H426.579V272.144C426.579 274.76 425.499 275.888 423.819 275.888C422.115 275.888 421.059 274.76 421.059 272.144V262.16H418.299V271.952C418.299 276.296 420.363 278.288 423.819 278.288ZM440.61 278.288C444.282 278.288 446.418 276.152 446.418 273.584C446.418 271.28 445.002 270.128 443.01 269.312L440.946 268.424C439.53 267.848 438.258 267.416 438.258 266.168C438.258 264.968 439.266 264.272 440.898 264.272C442.362 264.272 443.442 264.776 444.498 265.64L445.938 263.888C444.642 262.616 442.842 261.872 440.898 261.872C437.706 261.872 435.45 263.792 435.45 266.312C435.45 268.616 437.154 269.864 438.834 270.512L440.97 271.448C442.53 272.072 443.586 272.48 443.586 273.8C443.586 275.072 442.602 275.888 440.658 275.888C439.122 275.888 437.562 275.144 436.386 274.064L434.778 275.96C436.314 277.448 438.402 278.288 440.61 278.288ZM455.96 278H458.744V264.488H463.688V262.16H451.04V264.488H455.96V278ZM485.774 278H488.534V271.784H490.862L494.27 278H497.39L493.622 271.352C495.518 270.704 496.766 269.24 496.766 266.84C496.766 263.312 494.246 262.16 491.006 262.16H485.774V278ZM488.534 269.552V264.368H490.718C492.878 264.368 494.03 264.992 494.03 266.84C494.03 268.64 492.878 269.552 490.718 269.552H488.534ZM507.772 278.288C511.204 278.288 513.22 276.296 513.22 271.952V262.16H510.532V272.144C510.532 274.76 509.452 275.888 507.772 275.888C506.068 275.888 505.012 274.76 505.012 272.144V262.16H502.252V271.952C502.252 276.296 504.316 278.288 507.772 278.288ZM519.115 278H521.755V270.992C521.755 269.24 521.491 267.344 521.371 265.664H521.443L522.907 269L527.107 278H529.939V262.16H527.299V269.12C527.299 270.872 527.563 272.864 527.683 274.496H527.611L526.147 271.136L521.923 262.16H519.115V278ZM539.913 278H542.697V264.488H547.641V262.16H534.993V264.488H539.913V278ZM552.936 278H563.28V275.648H559.488V264.488H563.28V262.16H552.936V264.488H556.704V275.648H552.936V278ZM569.391 278H571.695V270.872C571.695 269.36 571.455 266.384 571.335 264.896H571.407L572.607 268.76L574.623 273.728H575.967L577.959 268.76L579.159 264.896H579.255C579.111 266.384 578.895 269.36 578.895 270.872V278H581.247V262.16H578.295L576.111 268.352L575.391 270.728H575.295L574.527 268.352L572.343 262.16H569.391V278ZM587.841 278H598.089V275.648H590.601V270.92H596.745V268.592H590.601V264.488H597.849V262.16H587.841V278Z" fill="#EDEDED"/>
<path d="M809.594 278H811.898V270.872C811.898 269.36 811.658 266.384 811.538 264.896H811.61L812.81 268.76L814.826 273.728H816.17L818.162 268.76L819.362 264.896H819.458C819.314 266.384 819.098 269.36 819.098 270.872V278H821.45V262.16H818.498L816.314 268.352L815.594 270.728H815.498L814.73 268.352L812.546 262.16H809.594V278ZM826.028 278H828.836L830.084 273.68H835.292L836.516 278H839.444L834.356 262.16H831.116L826.028 278ZM830.684 271.496L831.236 269.528C831.716 267.848 832.196 266.072 832.628 264.32H832.724C833.18 266.072 833.66 267.848 834.14 269.528L834.692 271.496H830.684ZM844.355 278H854.699V275.648H850.907V264.488H854.699V262.16H844.355V264.488H848.123V275.648H844.355V278ZM860.905 278H863.545V270.992C863.545 269.24 863.281 267.344 863.161 265.664H863.233L864.697 269L868.897 278H871.729V262.16H869.089V269.12C869.089 270.872 869.353 272.864 869.473 274.496H869.401L867.937 271.136L863.713 262.16H860.905V278ZM895.111 278H898.015L899.335 272.144C899.551 271.184 899.719 270.152 899.863 269.216H899.935C900.055 270.152 900.247 271.184 900.439 272.144L901.831 278H904.783L906.919 262.136H904.303L903.463 271.352L903.247 275.336H903.151C902.863 273.992 902.503 272.648 902.239 271.352L900.895 266.216H899.119L897.751 271.352C897.463 272.672 897.127 274.016 896.839 275.336H896.767C896.695 274.016 896.599 272.696 896.551 271.352L895.663 262.136H892.855L895.111 278ZM916.677 278.288C920.325 278.288 922.845 275.12 922.845 270.008C922.845 264.896 920.325 261.872 916.677 261.872C913.053 261.872 910.509 264.872 910.509 270.008C910.509 275.12 913.053 278.288 916.677 278.288ZM916.677 275.888C914.661 275.888 913.365 273.584 913.365 270.008C913.365 266.432 914.661 264.272 916.677 264.272C918.693 264.272 920.013 266.432 920.013 270.008C920.013 273.584 918.693 275.888 916.677 275.888ZM928.308 278H931.068V271.784H933.396L936.804 278H939.924L936.156 271.352C938.052 270.704 939.3 269.24 939.3 266.84C939.3 263.312 936.78 262.16 933.54 262.16H928.308V278ZM931.068 269.552V264.368H933.252C935.412 264.368 936.564 264.992 936.564 266.84C936.564 268.64 935.412 269.552 933.252 269.552H931.068ZM945.051 278H947.859V273.344L950.139 270.512L954.075 278H957.147L951.795 268.328L956.619 262.16H953.547L947.931 269.384H947.859V262.16H945.051V278ZM962.369 278H972.617V275.648H965.129V270.92H971.273V268.592H965.129V264.488H972.377V262.16H962.369V278ZM978.68 278H981.44V271.784H983.768L987.176 278H990.296L986.528 271.352C988.424 270.704 989.672 269.24 989.672 266.84C989.672 263.312 987.152 262.16 983.912 262.16H978.68V278ZM981.44 269.552V264.368H983.624C985.784 264.368 986.936 264.992 986.936 266.84C986.936 268.64 985.784 269.552 983.624 269.552H981.44Z" fill="#EDEDED"/>
<path d="M1107.64 278.288C1111.07 278.288 1113.09 276.296 1113.09 271.952V262.16H1110.4V272.144C1110.4 274.76 1109.32 275.888 1107.64 275.888C1105.94 275.888 1104.88 274.76 1104.88 272.144V262.16H1102.12V271.952C1102.12 276.296 1104.18 278.288 1107.64 278.288ZM1124.43 278.288C1128.1 278.288 1130.24 276.152 1130.24 273.584C1130.24 271.28 1128.82 270.128 1126.83 269.312L1124.77 268.424C1123.35 267.848 1122.08 267.416 1122.08 266.168C1122.08 264.968 1123.09 264.272 1124.72 264.272C1126.18 264.272 1127.26 264.776 1128.32 265.64L1129.76 263.888C1128.46 262.616 1126.66 261.872 1124.72 261.872C1121.53 261.872 1119.27 263.792 1119.27 266.312C1119.27 268.616 1120.98 269.864 1122.66 270.512L1124.79 271.448C1126.35 272.072 1127.41 272.48 1127.41 273.8C1127.41 275.072 1126.42 275.888 1124.48 275.888C1122.94 275.888 1121.38 275.144 1120.21 274.064L1118.6 275.96C1120.14 277.448 1122.22 278.288 1124.43 278.288ZM1136.49 278H1146.74V275.648H1139.25V270.92H1145.4V268.592H1139.25V264.488H1146.5V262.16H1136.49V278ZM1152.8 278H1155.56V271.784H1157.89L1161.3 278H1164.42L1160.65 271.352C1162.55 270.704 1163.8 269.24 1163.8 266.84C1163.8 263.312 1161.28 262.16 1158.04 262.16H1152.8V278ZM1155.56 269.552V264.368H1157.75C1159.91 264.368 1161.06 264.992 1161.06 266.84C1161.06 268.64 1159.91 269.552 1157.75 269.552H1155.56ZM1186.77 278H1189.67L1190.99 272.144C1191.21 271.184 1191.38 270.152 1191.52 269.216H1191.59C1191.71 270.152 1191.91 271.184 1192.1 272.144L1193.49 278H1196.44L1198.58 262.136H1195.96L1195.12 271.352L1194.91 275.336H1194.81C1194.52 273.992 1194.16 272.648 1193.9 271.352L1192.55 266.216H1190.78L1189.41 271.352C1189.12 272.672 1188.79 274.016 1188.5 275.336H1188.43C1188.35 274.016 1188.26 272.696 1188.21 271.352L1187.32 262.136H1184.51L1186.77 278ZM1208.34 278.288C1211.98 278.288 1214.5 275.12 1214.5 270.008C1214.5 264.896 1211.98 261.872 1208.34 261.872C1204.71 261.872 1202.17 264.872 1202.17 270.008C1202.17 275.12 1204.71 278.288 1208.34 278.288ZM1208.34 275.888C1206.32 275.888 1205.02 273.584 1205.02 270.008C1205.02 266.432 1206.32 264.272 1208.34 264.272C1210.35 264.272 1211.67 266.432 1211.67 270.008C1211.67 273.584 1210.35 275.888 1208.34 275.888ZM1219.97 278H1222.73V271.784H1225.06L1228.46 278H1231.58L1227.82 271.352C1229.71 270.704 1230.96 269.24 1230.96 266.84C1230.96 263.312 1228.44 262.16 1225.2 262.16H1219.97V278ZM1222.73 269.552V264.368H1224.91C1227.07 264.368 1228.22 264.992 1228.22 266.84C1228.22 268.64 1227.07 269.552 1224.91 269.552H1222.73ZM1236.71 278H1239.52V273.344L1241.8 270.512L1245.73 278H1248.81L1243.45 268.328L1248.28 262.16H1245.21L1239.59 269.384H1239.52V262.16H1236.71V278ZM1254.03 278H1264.28V275.648H1256.79V270.92H1262.93V268.592H1256.79V264.488H1264.04V262.16H1254.03V278ZM1270.34 278H1273.1V271.784H1275.43L1278.84 278H1281.96L1278.19 271.352C1280.08 270.704 1281.33 269.24 1281.33 266.84C1281.33 263.312 1278.81 262.16 1275.57 262.16H1270.34V278ZM1273.1 269.552V264.368H1275.28C1277.44 264.368 1278.6 264.992 1278.6 266.84C1278.6 268.64 1277.44 269.552 1275.28 269.552H1273.1ZM1292.34 278.288C1296.01 278.288 1298.15 276.152 1298.15 273.584C1298.15 271.28 1296.73 270.128 1294.74 269.312L1292.67 268.424C1291.26 267.848 1289.99 267.416 1289.99 266.168C1289.99 264.968 1290.99 264.272 1292.63 264.272C1294.09 264.272 1295.17 264.776 1296.23 265.64L1297.67 263.888C1296.37 262.616 1294.57 261.872 1292.63 261.872C1289.43 261.872 1287.18 263.792 1287.18 266.312C1287.18 268.616 1288.88 269.864 1290.56 270.512L1292.7 271.448C1294.26 272.072 1295.31 272.48 1295.31 273.8C1295.31 275.072 1294.33 275.888 1292.39 275.888C1290.85 275.888 1289.29 275.144 1288.11 274.064L1286.51 275.96C1288.04 277.448 1290.13 278.288 1292.34 278.288Z" fill="#EDEDED"/>
<path d="M125.784 404.599H127.584V395.647C127.584 394.351 127.416 392.071 127.32 390.799H127.392L128.544 394.183L131.088 400.303H132.192L134.712 394.183L135.816 390.799H135.912C135.816 392.071 135.672 394.351 135.672 395.647V404.599H137.496V388.759H135.144L132.576 395.503L131.712 398.071H131.616L130.704 395.503L128.136 388.759H125.784V404.599ZM141.28 404.599H143.32L144.832 399.751H150.544L152.032 404.599H154.144L148.84 388.759H146.584L141.28 404.599ZM145.336 398.143L146.08 395.719C146.632 393.943 147.136 392.239 147.64 390.391H147.736C148.24 392.239 148.744 393.943 149.296 395.719L150.04 398.143H145.336ZM158.454 404.599H160.47V399.559L163.206 396.343L167.766 404.599H169.998L164.454 394.783L169.422 388.759H167.166L160.542 396.703H160.47V388.759H158.454V404.599ZM174.453 404.599H184.413V402.895H176.469V397.135H182.973V395.431H176.469V390.439H184.173V388.759H174.453V404.599ZM204.77 404.599H206.786V397.135H213.362V404.599H215.378V388.759H213.362V395.407H206.786V388.759H204.77V404.599ZM224.657 404.599H226.673V390.439H231.857V388.759H219.473V390.439H224.657V404.599ZM240.247 404.599H242.263V390.439H247.447V388.759H235.063V390.439H240.247V404.599ZM252.094 404.599H254.086V398.311H256.918C260.374 398.311 262.726 396.751 262.726 393.415C262.726 389.935 260.398 388.759 256.918 388.759H252.094V404.599ZM254.086 396.679V390.367H256.654C259.39 390.367 260.734 391.111 260.734 393.415C260.734 395.671 259.414 396.679 256.654 396.679H254.086ZM283.227 404.599H285.219V397.903H288.027L291.819 404.599H294.099L290.091 397.687C292.227 397.135 293.619 395.671 293.619 393.199C293.619 389.911 291.315 388.759 288.123 388.759H283.227V404.599ZM285.219 396.271V390.367H287.835C290.283 390.367 291.627 391.111 291.627 393.199C291.627 395.263 290.283 396.271 287.835 396.271H285.219ZM299.178 404.599H309.138V402.895H301.194V397.135H307.698V395.431H301.194V390.439H308.898V388.759H299.178V404.599ZM323.505 408.535C324.201 408.535 324.777 408.391 325.281 408.199L324.921 406.591C324.633 406.711 324.225 406.831 323.745 406.831C322.113 406.831 320.865 406.135 320.337 404.767C323.241 404.167 325.161 401.119 325.161 396.607C325.161 391.567 322.737 388.447 319.185 388.447C315.609 388.447 313.185 391.543 313.185 396.607C313.185 401.191 315.177 404.263 318.201 404.791C318.993 406.951 320.721 408.535 323.505 408.535ZM319.185 403.159C316.761 403.159 315.225 400.543 315.225 396.607C315.225 392.671 316.761 390.175 319.185 390.175C321.585 390.175 323.121 392.671 323.121 396.607C323.121 400.543 321.585 403.159 319.185 403.159ZM334.823 404.887C337.895 404.887 340.103 403.159 340.103 398.623V388.759H338.159V398.647C338.159 401.959 336.719 403.135 334.823 403.135C332.927 403.135 331.511 401.959 331.511 398.647V388.759H329.495V398.623C329.495 403.159 331.727 404.887 334.823 404.887ZM345.95 404.599H355.91V402.895H347.966V397.135H354.47V395.431H347.966V390.439H355.67V388.759H345.95V404.599ZM366.1 404.887C369.556 404.887 371.668 402.895 371.668 400.375C371.668 398.023 370.108 396.991 368.188 396.151L365.98 395.191C364.636 394.615 363.172 394.063 363.172 392.551C363.172 391.111 364.396 390.223 366.292 390.223C367.852 390.223 369.052 390.799 370.084 391.711L371.14 390.415C369.988 389.263 368.26 388.471 366.292 388.471C363.292 388.471 361.132 390.247 361.132 392.671C361.132 394.975 362.956 396.127 364.54 396.751L366.796 397.735C368.404 398.431 369.628 398.911 369.628 400.543C369.628 402.103 368.356 403.135 366.124 403.135C364.396 403.135 362.764 402.343 361.588 401.143L360.388 402.535C361.804 403.975 363.796 404.887 366.1 404.887ZM380.563 404.599H382.579V390.439H387.763V388.759H375.379V390.439H380.563V404.599Z" fill="#EDEDED"/>
<path d="M522.2 452.695H524.192V445.591H530.648V443.911H524.192V438.535H531.824V436.855H522.2V452.695ZM541.751 452.983C545.303 452.983 547.799 449.791 547.799 444.703C547.799 439.663 545.303 436.567 541.751 436.567C538.199 436.567 535.703 439.639 535.703 444.703C535.703 449.791 538.199 452.983 541.751 452.983ZM541.751 451.231C539.351 451.231 537.767 448.663 537.767 444.703C537.767 440.767 539.351 438.319 541.751 438.319C544.151 438.319 545.735 440.767 545.735 444.703C545.735 448.663 544.151 451.231 541.751 451.231ZM552.541 452.695H554.533V445.999H557.341L561.133 452.695H563.413L559.405 445.783C561.541 445.231 562.933 443.767 562.933 441.295C562.933 438.007 560.629 436.855 557.437 436.855H552.541V452.695ZM554.533 444.367V438.463H557.149C559.597 438.463 560.941 439.207 560.941 441.295C560.941 443.359 559.597 444.367 557.149 444.367H554.533ZM568.396 452.695H570.556L572.284 446.047C572.524 445.111 572.716 444.127 572.908 443.191H572.98C573.148 444.127 573.34 445.111 573.556 446.047L575.356 452.695H577.564L579.892 436.831H577.996L576.796 446.791C576.7 448.087 576.556 449.407 576.46 450.703H576.364C576.028 449.407 575.668 448.063 575.38 446.791L573.724 440.935H572.308L570.652 446.791C570.34 448.087 569.98 449.407 569.644 450.703H569.572C569.476 449.407 569.308 448.111 569.236 446.791L567.964 436.831H565.972L568.396 452.695ZM582.09 452.695H584.13L585.642 447.847H591.354L592.842 452.695H594.954L589.65 436.855H587.394L582.09 452.695ZM586.146 446.239L586.89 443.815C587.442 442.039 587.946 440.335 588.45 438.487H588.546C589.05 440.335 589.554 442.039 590.106 443.815L590.85 446.239H586.146ZM599.313 452.695H601.305V445.999H604.113L607.905 452.695H610.185L606.177 445.783C608.313 445.231 609.705 443.767 609.705 441.295C609.705 438.007 607.401 436.855 604.209 436.855H599.313V452.695ZM601.305 444.367V438.463H603.921C606.369 438.463 607.713 439.207 607.713 441.295C607.713 443.359 606.369 444.367 603.921 444.367H601.305ZM614.544 452.695H618.48C623.136 452.695 625.68 449.743 625.68 444.703C625.68 439.687 623.136 436.855 618.384 436.855H614.544V452.695ZM616.536 451.063V438.487H618.264C621.84 438.487 623.616 440.719 623.616 444.703C623.616 448.711 621.84 451.063 618.264 451.063H616.536ZM635.414 452.983C638.87 452.983 640.982 450.991 640.982 448.471C640.982 446.119 639.422 445.087 637.502 444.247L635.294 443.287C633.95 442.711 632.486 442.159 632.486 440.647C632.486 439.207 633.71 438.319 635.606 438.319C637.166 438.319 638.366 438.895 639.398 439.807L640.454 438.511C639.302 437.359 637.574 436.567 635.606 436.567C632.606 436.567 630.446 438.343 630.446 440.767C630.446 443.071 632.27 444.223 633.854 444.847L636.11 445.831C637.718 446.527 638.942 447.007 638.942 448.639C638.942 450.199 637.67 451.231 635.438 451.231C633.71 451.231 632.078 450.439 630.902 449.239L629.702 450.631C631.118 452.071 633.11 452.983 635.414 452.983ZM665.468 452.695H667.484V438.535H672.668V436.855H660.284V438.535H665.468V452.695ZM676.762 452.695H678.778V445.231H685.354V452.695H687.37V436.855H685.354V443.503H678.778V436.855H676.762V452.695ZM693.217 452.695H703.177V450.991H695.233V445.231H701.737V443.527H695.233V438.535H702.937V436.855H693.217V452.695ZM724.038 452.695H726.03V445.999H728.838L732.63 452.695H734.91L730.902 445.783C733.038 445.231 734.43 443.767 734.43 441.295C734.43 438.007 732.126 436.855 728.934 436.855H724.038V452.695ZM726.03 444.367V438.463H728.646C731.094 438.463 732.438 439.207 732.438 441.295C732.438 443.359 731.094 444.367 728.646 444.367H726.03ZM739.989 452.695H749.949V450.991H742.005V445.231H748.509V443.527H742.005V438.535H749.709V436.855H739.989V452.695ZM764.315 456.631C765.011 456.631 765.587 456.487 766.091 456.295L765.731 454.687C765.443 454.807 765.035 454.927 764.555 454.927C762.923 454.927 761.675 454.231 761.147 452.863C764.051 452.263 765.971 449.215 765.971 444.703C765.971 439.663 763.547 436.543 759.995 436.543C756.419 436.543 753.995 439.639 753.995 444.703C753.995 449.287 755.987 452.359 759.011 452.887C759.803 455.047 761.531 456.631 764.315 456.631ZM759.995 451.255C757.571 451.255 756.035 448.639 756.035 444.703C756.035 440.767 757.571 438.271 759.995 438.271C762.395 438.271 763.931 440.767 763.931 444.703C763.931 448.639 762.395 451.255 759.995 451.255ZM775.634 452.983C778.706 452.983 780.914 451.255 780.914 446.719V436.855H778.97V446.743C778.97 450.055 777.53 451.231 775.634 451.231C773.738 451.231 772.322 450.055 772.322 446.743V436.855H770.306V446.719C770.306 451.255 772.538 452.983 775.634 452.983ZM786.761 452.695H796.721V450.991H788.777V445.231H795.281V443.527H788.777V438.535H796.481V436.855H786.761V452.695ZM806.911 452.983C810.367 452.983 812.479 450.991 812.479 448.471C812.479 446.119 810.919 445.087 808.999 444.247L806.791 443.287C805.447 442.711 803.983 442.159 803.983 440.647C803.983 439.207 805.207 438.319 807.103 438.319C808.663 438.319 809.863 438.895 810.895 439.807L811.951 438.511C810.799 437.359 809.071 436.567 807.103 436.567C804.103 436.567 801.943 438.343 801.943 440.767C801.943 443.071 803.767 444.223 805.351 444.847L807.607 445.831C809.215 446.527 810.439 447.007 810.439 448.639C810.439 450.199 809.167 451.231 806.935 451.231C805.207 451.231 803.575 450.439 802.399 449.239L801.199 450.631C802.615 452.071 804.607 452.983 806.911 452.983ZM821.374 452.695H823.39V438.535H828.574V436.855H816.19V438.535H821.374V452.695ZM529.352 492.919L530.432 491.911C527.216 489.199 525.728 486.055 525.728 482.023C525.728 477.991 527.216 474.847 530.432 472.135L529.352 471.127C526.016 473.719 523.952 477.391 523.952 482.023C523.952 486.655 526.016 490.327 529.352 492.919ZM536.447 488.695H538.463V481.231H545.039V488.695H547.055V472.855H545.039V479.503H538.463V472.855H536.447V488.695ZM556.333 488.695H558.349V483.031L563.629 472.855H561.565L559.285 477.535C558.685 478.759 558.061 479.983 557.437 481.255H557.341C556.693 479.983 556.141 478.783 555.541 477.583L553.165 472.855H551.053L556.333 483.031V488.695ZM568.18 488.695H570.172V482.407H573.004C576.46 482.407 578.812 480.847 578.812 477.511C578.812 474.031 576.484 472.855 573.004 472.855H568.18V488.695ZM570.172 480.775V474.463H572.74C575.476 474.463 576.82 475.207 576.82 477.511C576.82 479.767 575.5 480.775 572.74 480.775H570.172ZM584.082 488.695H594.042V486.991H586.098V481.231H592.602V479.527H586.098V474.535H593.802V472.855H584.082V488.695ZM599.313 488.695H601.305V481.999H604.113L607.905 488.695H610.185L606.177 481.783C608.313 481.231 609.705 479.767 609.705 477.295C609.705 474.007 607.401 472.855 604.209 472.855H599.313V488.695ZM601.305 480.367V474.463H603.921C606.369 474.463 607.713 475.207 607.713 477.295C607.713 479.359 606.369 480.367 603.921 480.367H601.305ZM616.512 492.919C619.848 490.327 621.912 486.655 621.912 482.023C621.912 477.391 619.848 473.719 616.512 471.127L615.432 472.135C618.648 474.847 620.136 477.991 620.136 482.023C620.136 486.055 618.648 489.199 615.432 491.911L616.512 492.919Z" fill="#EDEDED"/>
<path d="M922.097 578.297H924.089V571.193H930.545V569.513H924.089V564.137H931.721V562.457H922.097V578.297ZM941.648 578.585C945.2 578.585 947.696 575.393 947.696 570.305C947.696 565.265 945.2 562.169 941.648 562.169C938.096 562.169 935.6 565.241 935.6 570.305C935.6 575.393 938.096 578.585 941.648 578.585ZM941.648 576.833C939.248 576.833 937.664 574.265 937.664 570.305C937.664 566.369 939.248 563.921 941.648 563.921C944.048 563.921 945.632 566.369 945.632 570.305C945.632 574.265 944.048 576.833 941.648 576.833ZM952.439 578.297H954.431V571.601H957.239L961.031 578.297H963.311L959.303 571.385C961.439 570.833 962.831 569.369 962.831 566.897C962.831 563.609 960.527 562.457 957.335 562.457H952.439V578.297ZM954.431 569.969V564.065H957.047C959.495 564.065 960.839 564.809 960.839 566.897C960.839 568.961 959.495 569.969 957.047 569.969H954.431ZM968.293 578.297H970.453L972.181 571.649C972.421 570.713 972.613 569.729 972.805 568.793H972.877C973.045 569.729 973.237 570.713 973.453 571.649L975.253 578.297H977.461L979.789 562.433H977.893L976.693 572.393C976.597 573.689 976.453 575.009 976.357 576.305H976.261C975.925 575.009 975.565 573.665 975.277 572.393L973.621 566.537H972.205L970.549 572.393C970.237 573.689 969.877 575.009 969.541 576.305H969.469C969.373 575.009 969.205 573.713 969.133 572.393L967.861 562.433H965.869L968.293 578.297ZM981.988 578.297H984.028L985.54 573.449H991.252L992.74 578.297H994.852L989.548 562.457H987.292L981.988 578.297ZM986.044 571.841L986.788 569.417C987.34 567.641 987.844 565.937 988.348 564.089H988.444C988.948 565.937 989.452 567.641 990.004 569.417L990.748 571.841H986.044ZM999.211 578.297H1001.2V571.601H1004.01L1007.8 578.297H1010.08L1006.07 571.385C1008.21 570.833 1009.6 569.369 1009.6 566.897C1009.6 563.609 1007.3 562.457 1004.11 562.457H999.211V578.297ZM1001.2 569.969V564.065H1003.82C1006.27 564.065 1007.61 564.809 1007.61 566.897C1007.61 568.961 1006.27 569.969 1003.82 569.969H1001.2ZM1014.44 578.297H1018.38C1023.03 578.297 1025.58 575.345 1025.58 570.305C1025.58 565.289 1023.03 562.457 1018.28 562.457H1014.44V578.297ZM1016.43 576.665V564.089H1018.16C1021.74 564.089 1023.51 566.321 1023.51 570.305C1023.51 574.313 1021.74 576.665 1018.16 576.665H1016.43ZM1035.31 578.585C1038.77 578.585 1040.88 576.593 1040.88 574.073C1040.88 571.721 1039.32 570.689 1037.4 569.849L1035.19 568.889C1033.85 568.313 1032.38 567.761 1032.38 566.249C1032.38 564.809 1033.61 563.921 1035.5 563.921C1037.06 563.921 1038.26 564.497 1039.3 565.409L1040.35 564.113C1039.2 562.961 1037.47 562.169 1035.5 562.169C1032.5 562.169 1030.34 563.945 1030.34 566.369C1030.34 568.673 1032.17 569.825 1033.75 570.449L1036.01 571.433C1037.62 572.129 1038.84 572.609 1038.84 574.241C1038.84 575.801 1037.57 576.833 1035.34 576.833C1033.61 576.833 1031.98 576.041 1030.8 574.841L1029.6 576.233C1031.02 577.673 1033.01 578.585 1035.31 578.585ZM1065.37 578.297H1067.38V564.137H1072.57V562.457H1060.18V564.137H1065.37V578.297ZM1076.66 578.297H1078.68V570.833H1085.25V578.297H1087.27V562.457H1085.25V569.105H1078.68V562.457H1076.66V578.297ZM1093.11 578.297H1103.07V576.593H1095.13V570.833H1101.63V569.129H1095.13V564.137H1102.83V562.457H1093.11V578.297ZM1123.94 578.297H1125.93V571.601H1128.74L1132.53 578.297H1134.81L1130.8 571.385C1132.94 570.833 1134.33 569.369 1134.33 566.897C1134.33 563.609 1132.02 562.457 1128.83 562.457H1123.94V578.297ZM1125.93 569.969V564.065H1128.54C1130.99 564.065 1132.34 564.809 1132.34 566.897C1132.34 568.961 1130.99 569.969 1128.54 569.969H1125.93ZM1139.89 578.297H1149.85V576.593H1141.9V570.833H1148.41V569.129H1141.9V564.137H1149.61V562.457H1139.89V578.297ZM1164.21 582.233C1164.91 582.233 1165.48 582.089 1165.99 581.897L1165.63 580.289C1165.34 580.409 1164.93 580.529 1164.45 580.529C1162.82 580.529 1161.57 579.833 1161.04 578.465C1163.95 577.865 1165.87 574.817 1165.87 570.305C1165.87 565.265 1163.44 562.145 1159.89 562.145C1156.32 562.145 1153.89 565.241 1153.89 570.305C1153.89 574.889 1155.88 577.961 1158.91 578.489C1159.7 580.649 1161.43 582.233 1164.21 582.233ZM1159.89 576.857C1157.47 576.857 1155.93 574.241 1155.93 570.305C1155.93 566.369 1157.47 563.873 1159.89 563.873C1162.29 563.873 1163.83 566.369 1163.83 570.305C1163.83 574.241 1162.29 576.857 1159.89 576.857ZM1175.53 578.585C1178.6 578.585 1180.81 576.857 1180.81 572.321V562.457H1178.87V572.345C1178.87 575.657 1177.43 576.833 1175.53 576.833C1173.64 576.833 1172.22 575.657 1172.22 572.345V562.457H1170.2V572.321C1170.2 576.857 1172.44 578.585 1175.53 578.585ZM1186.66 578.297H1196.62V576.593H1188.67V570.833H1195.18V569.129H1188.67V564.137H1196.38V562.457H1186.66V578.297ZM1206.81 578.585C1210.26 578.585 1212.38 576.593 1212.38 574.073C1212.38 571.721 1210.82 570.689 1208.9 569.849L1206.69 568.889C1205.34 568.313 1203.88 567.761 1203.88 566.249C1203.88 564.809 1205.1 563.921 1207 563.921C1208.56 563.921 1209.76 564.497 1210.79 565.409L1211.85 564.113C1210.7 562.961 1208.97 562.169 1207 562.169C1204 562.169 1201.84 563.945 1201.84 566.369C1201.84 568.673 1203.66 569.825 1205.25 570.449L1207.5 571.433C1209.11 572.129 1210.34 572.609 1210.34 574.241C1210.34 575.801 1209.06 576.833 1206.83 576.833C1205.1 576.833 1203.47 576.041 1202.3 574.841L1201.1 576.233C1202.51 577.673 1204.5 578.585 1206.81 578.585ZM1221.27 578.297H1223.29V564.137H1228.47V562.457H1216.09V564.137H1221.27V578.297Z" fill="#EDEDED"/>
<path d="M106.46 434.195C105.632 434.195 104.96 434.867 104.96 435.695C104.96 436.523 105.632 437.195 106.46 437.195V434.195ZM492.061 436.756C492.646 436.17 492.646 435.22 492.061 434.634L482.515 425.088C481.929 424.503 480.979 424.503 480.393 425.088C479.808 425.674 479.808 426.624 480.393 427.21L488.879 435.695L480.393 444.18C479.808 444.766 479.808 445.716 480.393 446.302C480.979 446.887 481.929 446.887 482.515 446.302L492.061 436.756ZM106.46 437.195H491V434.195H106.46V437.195Z" fill="#EDEDED"/>
<path d="M501.46 521.797C500.632 521.797 499.96 522.469 499.96 523.297C499.96 524.126 500.632 524.797 501.46 524.797V521.797ZM888.061 524.358C888.646 523.772 888.646 522.823 888.061 522.237L878.515 512.691C877.929 512.105 876.979 512.105 876.393 512.691C875.807 513.277 875.807 514.226 876.393 514.812L884.879 523.297L876.393 531.783C875.807 532.369 875.807 533.318 876.393 533.904C876.979 534.49 877.929 534.49 878.515 533.904L888.061 524.358ZM501.46 524.797H887V521.797H501.46V524.797Z" fill="#EDEDED"/>
<path d="M901.358 609.4C900.529 609.4 899.858 610.072 899.858 610.9C899.858 611.728 900.529 612.4 901.358 612.4V609.4ZM1286.06 611.961C1286.65 611.375 1286.65 610.425 1286.06 609.839L1276.51 600.293C1275.93 599.708 1274.98 599.708 1274.39 600.293C1273.81 600.879 1273.81 601.829 1274.39 602.415L1282.88 610.9L1274.39 619.385C1273.81 619.971 1273.81 620.921 1274.39 621.507C1274.98 622.092 1275.93 622.092 1276.51 621.507L1286.06 611.961ZM901.358 612.4H904.355V609.4H901.358V612.4ZM910.349 612.4H916.344V609.4H910.349V612.4ZM922.338 612.4H928.333V609.4H922.338V612.4ZM934.327 612.4H940.321V609.4H934.327V612.4ZM946.316 612.4H952.31V609.4H946.316V612.4ZM958.305 612.4H964.299V609.4H958.305V612.4ZM970.293 612.4H976.288V609.4H970.293V612.4ZM982.282 612.4H988.277V609.4H982.282V612.4ZM994.271 612.4H1000.27V609.4H994.271V612.4ZM1006.26 612.4H1012.25V609.4H1006.26V612.4ZM1018.25 612.4H1024.24V609.4H1018.25V612.4ZM1030.24 612.4H1036.23V609.4H1030.24V612.4ZM1042.23 612.4H1048.22V609.4H1042.23V612.4ZM1054.22 612.4H1060.21V609.4H1054.22V612.4ZM1066.2 612.4H1072.2V609.4H1066.2V612.4ZM1078.19 612.4H1084.19V609.4H1078.19V612.4ZM1090.18 612.4H1096.18V609.4H1090.18V612.4ZM1102.17 612.4H1108.16V609.4H1102.17V612.4ZM1114.16 612.4H1120.15V609.4H1114.16V612.4ZM1126.15 612.4H1132.14V609.4H1126.15V612.4ZM1138.14 612.4H1144.13V609.4H1138.14V612.4ZM1150.13 612.4H1156.12V609.4H1150.13V612.4ZM1162.11 612.4H1168.11V609.4H1162.11V612.4ZM1174.1 612.4H1180.1V609.4H1174.1V612.4ZM1186.09 612.4H1192.09V609.4H1186.09V612.4ZM1198.08 612.4H1204.08V609.4H1198.08V612.4ZM1210.07 612.4H1216.06V609.4H1210.07V612.4ZM1222.06 612.4H1228.05V609.4H1222.06V612.4ZM1234.05 612.4H1240.04V609.4H1234.05V612.4ZM1246.04 612.4H1252.03V609.4H1246.04V612.4ZM1258.03 612.4H1264.02V609.4H1258.03V612.4ZM1270.01 612.4H1276.01V609.4H1270.01V612.4ZM1282 612.4H1285V609.4H1282V612.4Z" fill="#EDEDED"/>
<path d="M1158.23 731.709H1160.22V725.013H1163.03L1166.82 731.709H1169.1L1165.1 724.797C1167.23 724.245 1168.62 722.781 1168.62 720.309C1168.62 717.021 1166.32 715.869 1163.13 715.869H1158.23V731.709ZM1160.22 723.381V717.477H1162.84C1165.29 717.477 1166.63 718.221 1166.63 720.309C1166.63 722.373 1165.29 723.381 1162.84 723.381H1160.22ZM1174.18 731.709H1184.14V730.005H1176.2V724.245H1182.7V722.541H1176.2V717.549H1183.9V715.869H1174.18V731.709ZM1194.33 731.997C1197.79 731.997 1199.9 730.005 1199.9 727.485C1199.9 725.133 1198.34 724.101 1196.42 723.261L1194.21 722.301C1192.87 721.725 1191.41 721.173 1191.41 719.661C1191.41 718.221 1192.63 717.333 1194.53 717.333C1196.09 717.333 1197.29 717.909 1198.32 718.821L1199.37 717.525C1198.22 716.373 1196.49 715.581 1194.53 715.581C1191.53 715.581 1189.37 717.357 1189.37 719.781C1189.37 722.085 1191.19 723.237 1192.77 723.861L1195.03 724.845C1196.64 725.541 1197.86 726.021 1197.86 727.653C1197.86 729.213 1196.59 730.245 1194.36 730.245C1192.63 730.245 1191 729.453 1189.82 728.253L1188.62 729.645C1190.04 731.085 1192.03 731.997 1194.33 731.997ZM1205.05 731.709H1207.04V725.421H1209.88C1213.33 725.421 1215.68 723.861 1215.68 720.525C1215.68 717.045 1213.36 715.869 1209.88 715.869H1205.05V731.709ZM1207.04 723.789V717.477H1209.61C1212.35 717.477 1213.69 718.221 1213.69 720.525C1213.69 722.781 1212.37 723.789 1209.61 723.789H1207.04ZM1225.4 731.997C1228.95 731.997 1231.44 728.805 1231.44 723.717C1231.44 718.677 1228.95 715.581 1225.4 715.581C1221.84 715.581 1219.35 718.653 1219.35 723.717C1219.35 728.805 1221.84 731.997 1225.4 731.997ZM1225.4 730.245C1223 730.245 1221.41 727.677 1221.41 723.717C1221.41 719.781 1223 717.333 1225.4 717.333C1227.8 717.333 1229.38 719.781 1229.38 723.717C1229.38 727.677 1227.8 730.245 1225.4 730.245ZM1235.78 731.709H1237.67V723.405C1237.67 721.773 1237.48 720.069 1237.41 718.461H1237.46L1239.04 721.701L1244.15 731.709H1246.19V715.869H1244.3V724.101C1244.3 725.757 1244.49 727.557 1244.56 729.117H1244.51L1242.93 725.877L1237.82 715.869H1235.78V731.709ZM1256.7 731.997C1260.15 731.997 1262.26 730.005 1262.26 727.485C1262.26 725.133 1260.7 724.101 1258.78 723.261L1256.58 722.301C1255.23 721.725 1253.77 721.173 1253.77 719.661C1253.77 718.221 1254.99 717.333 1256.89 717.333C1258.45 717.333 1259.65 717.909 1260.68 718.821L1261.74 717.525C1260.58 716.373 1258.86 715.581 1256.89 715.581C1253.89 715.581 1251.73 717.357 1251.73 719.781C1251.73 722.085 1253.55 723.237 1255.14 723.861L1257.39 724.845C1259 725.541 1260.22 726.021 1260.22 727.653C1260.22 729.213 1258.95 730.245 1256.72 730.245C1254.99 730.245 1253.36 729.453 1252.18 728.253L1250.98 729.645C1252.4 731.085 1254.39 731.997 1256.7 731.997ZM1267.73 731.709H1277.69V730.005H1269.74V724.245H1276.25V722.541H1269.74V717.549H1277.45V715.869H1267.73V731.709Z" fill="#EDEDED"/>
<path d="M912.939 761.248C912.354 761.834 912.354 762.783 912.939 763.369L922.485 772.915C923.071 773.501 924.021 773.501 924.607 772.915C925.192 772.329 925.192 771.38 924.607 770.794L916.121 762.309L924.607 753.823C925.192 753.238 925.192 752.288 924.607 751.702C924.021 751.116 923.071 751.116 922.485 751.702L912.939 761.248ZM914 763.809H916.98V760.809H914V763.809ZM922.94 763.809H928.901V760.809H922.94V763.809ZM934.861 763.809H940.821V760.809H934.861V763.809ZM946.782 763.809H952.742V760.809H946.782V763.809ZM958.702 763.809H964.663V760.809H958.702V763.809ZM970.623 763.809H976.583V760.809H970.623V763.809ZM982.544 763.809H988.504V760.809H982.544V763.809ZM994.464 763.809H1000.42V760.809H994.464V763.809ZM1006.38 763.809H1012.35V760.809H1006.38V763.809ZM1018.31 763.809H1024.27V760.809H1018.31V763.809ZM1030.23 763.809H1036.19V760.809H1030.23V763.809ZM1042.15 763.809H1048.11V760.809H1042.15V763.809ZM1054.07 763.809H1060.03V760.809H1054.07V763.809ZM1065.99 763.809H1071.95V760.809H1065.99V763.809ZM1077.91 763.809H1083.87V760.809H1077.91V763.809ZM1089.83 763.809H1095.79V760.809H1089.83V763.809ZM1101.75 763.809H1107.71V760.809H1101.75V763.809ZM1113.67 763.809H1119.63V760.809H1113.67V763.809ZM1125.59 763.809H1131.55V760.809H1125.59V763.809ZM1137.51 763.809H1143.47V760.809H1137.51V763.809ZM1149.43 763.809H1155.39V760.809H1149.43V763.809ZM1161.35 763.809H1167.31V760.809H1161.35V763.809ZM1173.27 763.809H1179.23V760.809H1173.27V763.809ZM1185.19 763.809H1191.15V760.809H1185.19V763.809ZM1197.11 763.809H1203.08V760.809H1197.11V763.809ZM1209.04 763.809H1215V760.809H1209.04V763.809ZM1220.96 763.809H1226.92V760.809H1220.96V763.809ZM1232.88 763.809H1238.84V760.809H1232.88V763.809ZM1244.8 763.809H1250.76V760.809H1244.8V763.809ZM1256.72 763.809H1262.68V760.809H1256.72V763.809ZM1268.64 763.809H1274.6V760.809H1268.64V763.809ZM1280.56 763.809H1286.52V760.809H1280.56V763.809ZM1292.48 763.809H1295.46V760.809H1292.48V763.809Z" fill="#00FF8B"/>
<path d="M511.939 854.248C511.354 854.834 511.354 855.783 511.939 856.369L521.485 865.915C522.071 866.501 523.021 866.501 523.607 865.915C524.192 865.329 524.192 864.38 523.607 863.794L515.121 855.309L523.607 846.823C524.192 846.238 524.192 845.288 523.607 844.702C523.021 844.116 522.071 844.116 521.485 844.702L511.939 854.248ZM513 856.809H899.46V853.809H513V856.809Z" fill="#00FF8B"/>
<path d="M114.939 946.248C114.354 946.834 114.354 947.783 114.939 948.369L124.485 957.915C125.071 958.501 126.021 958.501 126.607 957.915C127.192 957.329 127.192 956.38 126.607 955.794L118.121 947.309L126.607 938.823C127.192 938.238 127.192 937.288 126.607 936.702C126.021 936.116 125.071 936.116 124.485 936.702L114.939 946.248ZM116 948.809H499.746V945.809H116V948.809Z" fill="#00FF8B"/>
<path d="M102.046 1082.92C102.827 1083.71 104.093 1083.71 104.874 1082.92L117.602 1070.2C118.383 1069.42 118.383 1068.15 117.602 1067.37C116.821 1066.59 115.555 1066.59 114.774 1067.37L103.46 1078.68L92.1464 1067.37C91.3653 1066.59 90.099 1066.59 89.3179 1067.37C88.5369 1068.15 88.5369 1069.42 89.3179 1070.2L102.046 1082.92ZM101.46 306.005V1081.51H105.46V306.005H101.46Z" fill="#4D4D4D"/>
<path d="M1296.05 1082.92C1296.83 1083.71 1298.09 1083.71 1298.87 1082.92L1311.6 1070.2C1312.38 1069.42 1312.38 1068.15 1311.6 1067.37C1310.82 1066.59 1309.55 1066.59 1308.77 1067.37L1297.46 1078.68L1286.15 1067.37C1285.37 1066.59 1284.1 1066.59 1283.32 1067.37C1282.54 1068.15 1282.54 1069.42 1283.32 1070.2L1296.05 1082.92ZM1295.46 306.005V1081.51H1299.46V306.005H1295.46Z" fill="#4D4D4D"/>
<path d="M500.046 1082.92C500.827 1083.71 502.093 1083.71 502.874 1082.92L515.602 1070.2C516.383 1069.42 516.383 1068.15 515.602 1067.37C514.821 1066.59 513.555 1066.59 512.774 1067.37L501.46 1078.68L490.146 1067.37C489.365 1066.59 488.099 1066.59 487.318 1067.37C486.537 1068.15 486.537 1069.42 487.318 1070.2L500.046 1082.92ZM499.46 306.005V1081.51H503.46V306.005H499.46Z" fill="#4D4D4D"/>
<path d="M898.046 1082.92C898.827 1083.71 900.093 1083.71 900.874 1082.92L913.602 1070.2C914.383 1069.42 914.383 1068.15 913.602 1067.37C912.821 1066.59 911.555 1066.59 910.774 1067.37L899.46 1078.68L888.146 1067.37C887.365 1066.59 886.099 1066.59 885.318 1067.37C884.537 1068.15 884.537 1069.42 885.318 1070.2L898.046 1082.92ZM897.46 306.005V1081.51H901.46V306.005H897.46Z" fill="#4D4D4D"/>
</g>
<defs>
<clipPath id="clip0_36_7161">
<rect width="1400" height="1209.51" fill="white"/>
</clipPath>
</defs>
</svg>
