<svg xmlns="http://www.w3.org/2000/svg" width="1400" height="1210" fill="none" viewBox="0 0 1400 1210"><g clip-path="url(#a)"><path fill="#1a1d1e" d="M493.415 152h10.248v-2.352h-7.488v-4.728h6.144v-2.328h-6.144v-4.104h7.248v-2.328h-10.008zm16.071 0h4.2c4.488 0 7.272-2.76 7.272-7.992s-2.784-7.848-7.416-7.848h-4.056zm2.784-2.256v-11.352h1.104c3.024 0 4.728 1.728 4.728 5.616s-1.704 5.736-4.728 5.736zm20.367 2.544c2.016 0 3.768-.864 4.8-1.872v-6.984h-5.208v2.28h2.712v3.456c-.48.456-1.296.72-2.136.72-2.784 0-4.296-2.232-4.296-5.856 0-3.576 1.752-5.76 4.248-5.76 1.368 0 2.208.528 2.928 1.296l1.536-1.728c-.96-.984-2.376-1.968-4.464-1.968-4.08 0-7.104 3.048-7.104 8.256 0 5.232 3 8.16 6.984 8.16m11.15-.288h10.248v-2.352h-7.488v-4.728h6.144v-2.328h-6.144v-4.104h7.248v-2.328h-10.008zm33.101 0h2.76v-6.216h2.328l3.408 6.216h3.12l-3.768-6.648c1.896-.648 3.144-2.112 3.144-4.512 0-3.528-2.52-4.68-5.76-4.68h-5.232zm2.76-8.448v-5.184h2.184c2.16 0 3.312.624 3.312 2.472 0 1.8-1.152 2.712-3.312 2.712zm19.239 8.736c3.432 0 5.448-1.992 5.448-6.336v-9.792h-2.688v9.984c0 2.616-1.08 3.744-2.76 3.744-1.704 0-2.76-1.128-2.76-3.744v-9.984h-2.76v9.792c0 4.344 2.064 6.336 5.52 6.336M610.23 152h2.64v-7.008c0-1.752-.264-3.648-.384-5.328h.072l1.464 3.336 4.2 9h2.832v-15.84h-2.64v6.96c0 1.752.264 3.744.384 5.376h-.072l-1.464-3.36-4.224-8.976h-2.808zm20.798 0h2.784v-13.512h4.944v-2.328h-12.648v2.328h4.92zm13.023 0h10.344v-2.352h-3.792v-11.16h3.792v-2.328h-10.344v2.328h3.768v11.16h-3.768zm16.455 0h2.304v-7.128c0-1.512-.24-4.488-.36-5.976h.072l1.2 3.864 2.016 4.968h1.344l1.992-4.968 1.2-3.864h.096c-.144 1.488-.36 4.464-.36 5.976V152h2.352v-15.84h-2.952l-2.184 6.192-.72 2.376h-.096l-.768-2.376-2.184-6.192h-2.952zm18.45 0h10.248v-2.352h-7.488v-4.728h6.144v-2.328h-6.144v-4.104h7.248v-2.328h-10.008zm33.101 0h2.76v-6.216h2.328l3.408 6.216h3.12l-3.768-6.648c1.896-.648 3.144-2.112 3.144-4.512 0-3.528-2.52-4.68-5.76-4.68h-5.232zm2.76-8.448v-5.184h2.184c2.16 0 3.312.624 3.312 2.472 0 1.8-1.152 2.712-3.312 2.712zM729.328 152h10.248v-2.352h-7.488v-4.728h6.144v-2.328h-6.144v-4.104h7.248v-2.328h-10.008zm25.838 4.128c.84 0 1.512-.168 2.04-.408l-.504-2.136a3 3 0 0 1-1.224.288c-1.368 0-2.592-.552-3.12-1.8 2.736-.792 4.512-3.744 4.512-8.064 0-5.112-2.472-8.16-6.12-8.16s-6.12 3.024-6.12 8.16c0 4.464 1.896 7.464 4.8 8.136.888 2.304 2.808 3.984 5.736 3.984m-4.416-6.24c-2.04 0-3.288-2.328-3.288-5.88 0-3.576 1.248-5.76 3.288-5.76 2.016 0 3.288 2.184 3.288 5.76 0 3.552-1.272 5.88-3.288 5.88m16.887 2.4c3.432 0 5.448-1.992 5.448-6.336v-9.792h-2.688v9.984c0 2.616-1.08 3.744-2.76 3.744-1.704 0-2.76-1.128-2.76-3.744v-9.984h-2.76v9.792c0 4.344 2.064 6.336 5.52 6.336M779.7 152h10.248v-2.352h-7.488v-4.728h6.144v-2.328h-6.144v-4.104h7.248v-2.328H779.7zm21.518.288c3.672 0 5.808-2.136 5.808-4.704 0-2.304-1.416-3.456-3.408-4.272l-2.064-.888c-1.416-.576-2.688-1.008-2.688-2.256 0-1.2 1.008-1.896 2.64-1.896 1.464 0 2.544.504 3.6 1.368l1.44-1.752c-1.296-1.272-3.096-2.016-5.04-2.016-3.192 0-5.448 1.92-5.448 4.44 0 2.304 1.704 3.552 3.384 4.2l2.136.936c1.56.624 2.616 1.032 2.616 2.352 0 1.272-.984 2.088-2.928 2.088-1.536 0-3.096-.744-4.272-1.824l-1.608 1.896c1.536 1.488 3.624 2.328 5.832 2.328m15.351-.288h2.784v-13.512h4.944v-2.328h-12.648v2.328h4.92zm30.701 0h2.76v-6.648h6.12v-2.328h-6.12v-4.536h7.2v-2.328h-9.96zm16.767 0h10.128v-2.352h-7.392V136.16h-2.736zm21.086.288c3.648 0 6.168-3.168 6.168-8.28s-2.52-8.136-6.168-8.136c-3.624 0-6.168 3-6.168 8.136 0 5.112 2.544 8.28 6.168 8.28m0-2.4c-2.016 0-3.312-2.304-3.312-5.88s1.296-5.736 3.312-5.736 3.336 2.16 3.336 5.736-1.32 5.88-3.336 5.88M897.138 152h2.904l1.32-5.856c.216-.96.384-1.992.528-2.928h.072a44 44 0 0 0 .504 2.928l1.392 5.856h2.952l2.136-15.864h-2.616l-.84 9.216-.216 3.984h-.096c-.288-1.344-.648-2.688-.912-3.984l-1.344-5.136h-1.776l-1.368 5.136c-.288 1.32-.624 2.664-.912 3.984h-.072c-.072-1.32-.168-2.64-.216-3.984l-.888-9.216h-2.808zM109.136 278.288c1.992 0 3.6-.816 4.872-2.304l-1.56-1.68c-.888.984-1.872 1.584-3.144 1.584-2.688 0-4.488-2.232-4.488-5.856 0-3.576 1.8-5.76 4.416-5.76 1.224 0 2.136.504 2.928 1.296l1.536-1.728c-.984-1.032-2.52-1.968-4.464-1.968-4.152 0-7.248 3.072-7.248 8.256 0 5.232 3.144 8.16 7.152 8.16m11.078-.288h10.128v-2.352h-7.392V262.16h-2.736zm15.927 0h10.344v-2.352h-3.792v-11.16h3.792v-2.328h-10.344v2.328h3.768v11.16h-3.768zm17.271 0h10.248v-2.352h-7.488v-4.728h6.144v-2.328h-6.144v-4.104h7.248v-2.328h-10.008zm16.07 0h2.64v-7.008c0-1.752-.264-3.648-.384-5.328h.072l1.464 3.336 4.2 9h2.832v-15.84h-2.64v6.96c0 1.752.264 3.744.384 5.376h-.072l-1.464-3.36-4.224-8.976h-2.808zm20.799 0h2.784v-13.512h4.944v-2.328h-12.648v2.328h4.92zM401.82 278h2.76v-6.216h2.328l3.408 6.216h3.12l-3.768-6.648c1.896-.648 3.144-2.112 3.144-4.512 0-3.528-2.52-4.68-5.76-4.68h-5.232zm2.76-8.448v-5.184h2.184c2.16 0 3.312.624 3.312 2.472 0 1.8-1.152 2.712-3.312 2.712zm19.239 8.736c3.432 0 5.448-1.992 5.448-6.336v-9.792h-2.688v9.984c0 2.616-1.08 3.744-2.76 3.744-1.704 0-2.76-1.128-2.76-3.744v-9.984h-2.76v9.792c0 4.344 2.064 6.336 5.52 6.336m16.791 0c3.672 0 5.808-2.136 5.808-4.704 0-2.304-1.416-3.456-3.408-4.272l-2.064-.888c-1.416-.576-2.688-1.008-2.688-2.256 0-1.2 1.008-1.896 2.64-1.896 1.464 0 2.544.504 3.6 1.368l1.44-1.752c-1.296-1.272-3.096-2.016-5.04-2.016-3.192 0-5.448 1.92-5.448 4.44 0 2.304 1.704 3.552 3.384 4.2l2.136.936c1.56.624 2.616 1.032 2.616 2.352 0 1.272-.984 2.088-2.928 2.088-1.536 0-3.096-.744-4.272-1.824l-1.608 1.896c1.536 1.488 3.624 2.328 5.832 2.328m15.35-.288h2.784v-13.512h4.944v-2.328H451.04v2.328h4.92zm29.814 0h2.76v-6.216h2.328L494.27 278h3.12l-3.768-6.648c1.896-.648 3.144-2.112 3.144-4.512 0-3.528-2.52-4.68-5.76-4.68h-5.232zm2.76-8.448v-5.184h2.184c2.16 0 3.312.624 3.312 2.472 0 1.8-1.152 2.712-3.312 2.712zm19.238 8.736c3.432 0 5.448-1.992 5.448-6.336v-9.792h-2.688v9.984c0 2.616-1.08 3.744-2.76 3.744-1.704 0-2.76-1.128-2.76-3.744v-9.984h-2.76v9.792c0 4.344 2.064 6.336 5.52 6.336m11.343-.288h2.64v-7.008c0-1.752-.264-3.648-.384-5.328h.072l1.464 3.336 4.2 9h2.832v-15.84h-2.64v6.96c0 1.752.264 3.744.384 5.376h-.072l-1.464-3.36-4.224-8.976h-2.808zm20.798 0h2.784v-13.512h4.944v-2.328h-12.648v2.328h4.92zm13.023 0h10.344v-2.352h-3.792v-11.16h3.792v-2.328h-10.344v2.328h3.768v11.16h-3.768zm16.455 0h2.304v-7.128c0-1.512-.24-4.488-.36-5.976h.072l1.2 3.864 2.016 4.968h1.344l1.992-4.968 1.2-3.864h.096c-.144 1.488-.36 4.464-.36 5.976V278h2.352v-15.84h-2.952l-2.184 6.192-.72 2.376h-.096l-.768-2.376-2.184-6.192h-2.952zm18.45 0h10.248v-2.352h-7.488v-4.728h6.144v-2.328h-6.144v-4.104h7.248v-2.328h-10.008zM809.594 278h2.304v-7.128c0-1.512-.24-4.488-.36-5.976h.072l1.2 3.864 2.016 4.968h1.344l1.992-4.968 1.2-3.864h.096c-.144 1.488-.36 4.464-.36 5.976V278h2.352v-15.84h-2.952l-2.184 6.192-.72 2.376h-.096l-.768-2.376-2.184-6.192h-2.952zm16.434 0h2.808l1.248-4.32h5.208l1.224 4.32h2.928l-5.088-15.84h-3.24zm4.656-6.504.552-1.968c.48-1.68.96-3.456 1.392-5.208h.096c.456 1.752.936 3.528 1.416 5.208l.552 1.968zM844.355 278h10.344v-2.352h-3.792v-11.16h3.792v-2.328h-10.344v2.328h3.768v11.16h-3.768zm16.55 0h2.64v-7.008c0-1.752-.264-3.648-.384-5.328h.072l1.464 3.336 4.2 9h2.832v-15.84h-2.64v6.96c0 1.752.264 3.744.384 5.376h-.072l-1.464-3.36-4.224-8.976h-2.808zm34.206 0h2.904l1.32-5.856c.216-.96.384-1.992.528-2.928h.072a44 44 0 0 0 .504 2.928l1.392 5.856h2.952l2.136-15.864h-2.616l-.84 9.216-.216 3.984h-.096c-.288-1.344-.648-2.688-.912-3.984l-1.344-5.136h-1.776l-1.368 5.136c-.288 1.32-.624 2.664-.912 3.984h-.072c-.072-1.32-.168-2.64-.216-3.984l-.888-9.216h-2.808zm21.566.288c3.648 0 6.168-3.168 6.168-8.28s-2.52-8.136-6.168-8.136c-3.624 0-6.168 3-6.168 8.136 0 5.112 2.544 8.28 6.168 8.28m0-2.4c-2.016 0-3.312-2.304-3.312-5.88s1.296-5.736 3.312-5.736 3.336 2.16 3.336 5.736-1.32 5.88-3.336 5.88M928.308 278h2.76v-6.216h2.328l3.408 6.216h3.12l-3.768-6.648c1.896-.648 3.144-2.112 3.144-4.512 0-3.528-2.52-4.68-5.76-4.68h-5.232zm2.76-8.448v-5.184h2.184c2.16 0 3.312.624 3.312 2.472 0 1.8-1.152 2.712-3.312 2.712zM945.051 278h2.808v-4.656l2.28-2.832 3.936 7.488h3.072l-5.352-9.672 4.824-6.168h-3.072l-5.616 7.224h-.072v-7.224h-2.808zm17.318 0h10.248v-2.352h-7.488v-4.728h6.144v-2.328h-6.144v-4.104h7.248v-2.328h-10.008zm16.311 0h2.76v-6.216h2.328l3.408 6.216h3.12l-3.768-6.648c1.896-.648 3.144-2.112 3.144-4.512 0-3.528-2.52-4.68-5.76-4.68h-5.232zm2.76-8.448v-5.184h2.184c2.16 0 3.312.624 3.312 2.472 0 1.8-1.152 2.712-3.312 2.712zM1107.64 278.288c3.43 0 5.45-1.992 5.45-6.336v-9.792h-2.69v9.984c0 2.616-1.08 3.744-2.76 3.744-1.7 0-2.76-1.128-2.76-3.744v-9.984h-2.76v9.792c0 4.344 2.06 6.336 5.52 6.336m16.79 0c3.67 0 5.81-2.136 5.81-4.704 0-2.304-1.42-3.456-3.41-4.272l-2.06-.888c-1.42-.576-2.69-1.008-2.69-2.256 0-1.2 1.01-1.896 2.64-1.896 1.46 0 2.54.504 3.6 1.368l1.44-1.752c-1.3-1.272-3.1-2.016-5.04-2.016-3.19 0-5.45 1.92-5.45 4.44 0 2.304 1.71 3.552 3.39 4.2l2.13.936c1.56.624 2.62 1.032 2.62 2.352 0 1.272-.99 2.088-2.93 2.088-1.54 0-3.1-.744-4.27-1.824l-1.61 1.896c1.54 1.488 3.62 2.328 5.83 2.328m12.06-.288h10.25v-2.352h-7.49v-4.728h6.15v-2.328h-6.15v-4.104h7.25v-2.328h-10.01zm16.31 0h2.76v-6.216h2.33l3.41 6.216h3.12l-3.77-6.648c1.9-.648 3.15-2.112 3.15-4.512 0-3.528-2.52-4.68-5.76-4.68h-5.24zm2.76-8.448v-5.184h2.19c2.16 0 3.31.624 3.31 2.472 0 1.8-1.15 2.712-3.31 2.712zm31.21 8.448h2.9l1.32-5.856c.22-.96.39-1.992.53-2.928h.07c.12.936.32 1.968.51 2.928l1.39 5.856h2.95l2.14-15.864h-2.62l-.84 9.216-.21 3.984h-.1c-.29-1.344-.65-2.688-.91-3.984l-1.35-5.136h-1.77l-1.37 5.136c-.29 1.32-.62 2.664-.91 3.984h-.07c-.08-1.32-.17-2.64-.22-3.984l-.89-9.216h-2.81zm21.57.288c3.64 0 6.16-3.168 6.16-8.28s-2.52-8.136-6.16-8.136c-3.63 0-6.17 3-6.17 8.136 0 5.112 2.54 8.28 6.17 8.28m0-2.4c-2.02 0-3.32-2.304-3.32-5.88s1.3-5.736 3.32-5.736c2.01 0 3.33 2.16 3.33 5.736s-1.32 5.88-3.33 5.88m11.63 2.112h2.76v-6.216h2.33l3.4 6.216h3.12l-3.76-6.648c1.89-.648 3.14-2.112 3.14-4.512 0-3.528-2.52-4.68-5.76-4.68h-5.23zm2.76-8.448v-5.184h2.18c2.16 0 3.31.624 3.31 2.472 0 1.8-1.15 2.712-3.31 2.712zm13.98 8.448h2.81v-4.656l2.28-2.832 3.93 7.488h3.08l-5.36-9.672 4.83-6.168h-3.07l-5.62 7.224h-.07v-7.224h-2.81zm17.32 0h10.25v-2.352h-7.49v-4.728h6.14v-2.328h-6.14v-4.104h7.25v-2.328h-10.01zm16.31 0h2.76v-6.216h2.33l3.41 6.216h3.12l-3.77-6.648c1.89-.648 3.14-2.112 3.14-4.512 0-3.528-2.52-4.68-5.76-4.68h-5.23zm2.76-8.448v-5.184h2.18c2.16 0 3.32.624 3.32 2.472 0 1.8-1.16 2.712-3.32 2.712zm19.24 8.736c3.67 0 5.81-2.136 5.81-4.704 0-2.304-1.42-3.456-3.41-4.272l-2.07-.888c-1.41-.576-2.68-1.008-2.68-2.256 0-1.2 1-1.896 2.64-1.896 1.46 0 2.54.504 3.6 1.368l1.44-1.752c-1.3-1.272-3.1-2.016-5.04-2.016-3.2 0-5.45 1.92-5.45 4.44 0 2.304 1.7 3.552 3.38 4.2l2.14.936c1.56.624 2.61 1.032 2.61 2.352 0 1.272-.98 2.088-2.92 2.088-1.54 0-3.1-.744-4.28-1.824l-1.6 1.896c1.53 1.488 3.62 2.328 5.83 2.328M125.784 404.599h1.8v-8.952c0-1.296-.168-3.576-.264-4.848h.072l1.152 3.384 2.544 6.12h1.104l2.52-6.12 1.104-3.384h.096c-.096 1.272-.24 3.552-.24 4.848v8.952h1.824v-15.84h-2.352l-2.568 6.744-.864 2.568h-.096l-.912-2.568-2.568-6.744h-2.352zm15.496 0h2.04l1.512-4.848h5.712l1.488 4.848h2.112l-5.304-15.84h-2.256zm4.056-6.456.744-2.424c.552-1.776 1.056-3.48 1.56-5.328h.096a155 155 0 0 0 1.56 5.328l.744 2.424zm13.118 6.456h2.016v-5.04l2.736-3.216 4.56 8.256h2.232l-5.544-9.816 4.968-6.024h-2.256l-6.624 7.944h-.072v-7.944h-2.016zm15.999 0h9.96v-1.704h-7.944v-5.76h6.504v-1.704h-6.504v-4.992h7.704v-1.68h-9.72zm30.317 0h2.016v-7.464h6.576v7.464h2.016v-15.84h-2.016v6.648h-6.576v-6.648h-2.016zm19.887 0h2.016v-14.16h5.184v-1.68h-12.384v1.68h5.184zm15.59 0h2.016v-14.16h5.184v-1.68h-12.384v1.68h5.184zm11.847 0h1.992v-6.288h2.832c3.456 0 5.808-1.56 5.808-4.896 0-3.48-2.328-4.656-5.808-4.656h-4.824zm1.992-7.92v-6.312h2.568c2.736 0 4.08.744 4.08 3.048 0 2.256-1.32 3.264-4.08 3.264zm29.141 7.92h1.992v-6.696h2.808l3.792 6.696h2.28l-4.008-6.912c2.136-.552 3.528-2.016 3.528-4.488 0-3.288-2.304-4.44-5.496-4.44h-4.896zm1.992-8.328v-5.904h2.616c2.448 0 3.792.744 3.792 2.832 0 2.064-1.344 3.072-3.792 3.072zm13.959 8.328h9.96v-1.704h-7.944v-5.76h6.504v-1.704h-6.504v-4.992h7.704v-1.68h-9.72zm24.327 3.936c.696 0 1.272-.144 1.776-.336l-.36-1.608c-.288.12-.696.24-1.176.24-1.632 0-2.88-.696-3.408-2.064 2.904-.6 4.824-3.648 4.824-8.16 0-5.04-2.424-8.16-5.976-8.16-3.576 0-6 3.096-6 8.16 0 4.584 1.992 7.656 5.016 8.184.792 2.16 2.52 3.744 5.304 3.744m-4.32-5.376c-2.424 0-3.96-2.616-3.96-6.552s1.536-6.432 3.96-6.432c2.4 0 3.936 2.496 3.936 6.432s-1.536 6.552-3.936 6.552m15.638 1.728c3.072 0 5.28-1.728 5.28-6.264v-9.864h-1.944v9.888c0 3.312-1.44 4.488-3.336 4.488s-3.312-1.176-3.312-4.488v-9.888h-2.016v9.864c0 4.536 2.232 6.264 5.328 6.264m11.127-.288h9.96v-1.704h-7.944v-5.76h6.504v-1.704h-6.504v-4.992h7.704v-1.68h-9.72zm20.15.288c3.456 0 5.568-1.992 5.568-4.512 0-2.352-1.56-3.384-3.48-4.224l-2.208-.96c-1.344-.576-2.808-1.128-2.808-2.64 0-1.44 1.224-2.328 3.12-2.328 1.56 0 2.76.576 3.792 1.488l1.056-1.296c-1.152-1.152-2.88-1.944-4.848-1.944-3 0-5.16 1.776-5.16 4.2 0 2.304 1.824 3.456 3.408 4.08l2.256.984c1.608.696 2.832 1.176 2.832 2.808 0 1.56-1.272 2.592-3.504 2.592-1.728 0-3.36-.792-4.536-1.992l-1.2 1.392c1.416 1.44 3.408 2.352 5.712 2.352m14.463-.288h2.016v-14.16h5.184v-1.68h-12.384v1.68h5.184zM522.2 452.695h1.992v-7.104h6.456v-1.68h-6.456v-5.376h7.632v-1.68H522.2zm19.551.288c3.552 0 6.048-3.192 6.048-8.28 0-5.04-2.496-8.136-6.048-8.136s-6.048 3.072-6.048 8.136c0 5.088 2.496 8.28 6.048 8.28m0-1.752c-2.4 0-3.984-2.568-3.984-6.528 0-3.936 1.584-6.384 3.984-6.384s3.984 2.448 3.984 6.384c0 3.96-1.584 6.528-3.984 6.528m10.79 1.464h1.992v-6.696h2.808l3.792 6.696h2.28l-4.008-6.912c2.136-.552 3.528-2.016 3.528-4.488 0-3.288-2.304-4.44-5.496-4.44h-4.896zm1.992-8.328v-5.904h2.616c2.448 0 3.792.744 3.792 2.832 0 2.064-1.344 3.072-3.792 3.072zm13.863 8.328h2.16l1.728-6.648c.24-.936.432-1.92.624-2.856h.072c.168.936.36 1.92.576 2.856l1.8 6.648h2.208l2.328-15.864h-1.896l-1.2 9.96c-.096 1.296-.24 2.616-.336 3.912h-.096c-.336-1.296-.696-2.64-.984-3.912l-1.656-5.856h-1.416l-1.656 5.856c-.312 1.296-.672 2.616-1.008 3.912h-.072c-.096-1.296-.264-2.592-.336-3.912l-1.272-9.96h-1.992zm13.694 0h2.04l1.512-4.848h5.712l1.488 4.848h2.112l-5.304-15.84h-2.256zm4.056-6.456.744-2.424c.552-1.776 1.056-3.48 1.56-5.328h.096a155 155 0 0 0 1.56 5.328l.744 2.424zm13.167 6.456h1.992v-6.696h2.808l3.792 6.696h2.28l-4.008-6.912c2.136-.552 3.528-2.016 3.528-4.488 0-3.288-2.304-4.44-5.496-4.44h-4.896zm1.992-8.328v-5.904h2.616c2.448 0 3.792.744 3.792 2.832 0 2.064-1.344 3.072-3.792 3.072zm13.239 8.328h3.936c4.656 0 7.2-2.952 7.2-7.992 0-5.016-2.544-7.848-7.296-7.848h-3.84zm1.992-1.632v-12.576h1.728c3.576 0 5.352 2.232 5.352 6.216 0 4.008-1.776 6.36-5.352 6.36zm18.878 1.92c3.456 0 5.568-1.992 5.568-4.512 0-2.352-1.56-3.384-3.48-4.224l-2.208-.96c-1.344-.576-2.808-1.128-2.808-2.64 0-1.44 1.224-2.328 3.12-2.328 1.56 0 2.76.576 3.792 1.488l1.056-1.296c-1.152-1.152-2.88-1.944-4.848-1.944-3 0-5.16 1.776-5.16 4.2 0 2.304 1.824 3.456 3.408 4.08l2.256.984c1.608.696 2.832 1.176 2.832 2.808 0 1.56-1.272 2.592-3.504 2.592-1.728 0-3.36-.792-4.536-1.992l-1.2 1.392c1.416 1.44 3.408 2.352 5.712 2.352m30.054-.288h2.016v-14.16h5.184v-1.68h-12.384v1.68h5.184zm11.294 0h2.016v-7.464h6.576v7.464h2.016v-15.84h-2.016v6.648h-6.576v-6.648h-2.016zm16.455 0h9.96v-1.704h-7.944v-5.76h6.504v-1.704h-6.504v-4.992h7.704v-1.68h-9.72zm30.821 0h1.992v-6.696h2.808l3.792 6.696h2.28l-4.008-6.912c2.136-.552 3.528-2.016 3.528-4.488 0-3.288-2.304-4.44-5.496-4.44h-4.896zm1.992-8.328v-5.904h2.616c2.448 0 3.792.744 3.792 2.832 0 2.064-1.344 3.072-3.792 3.072zm13.959 8.328h9.96v-1.704h-7.944v-5.76h6.504v-1.704h-6.504v-4.992h7.704v-1.68h-9.72zm24.326 3.936c.696 0 1.272-.144 1.776-.336l-.36-1.608c-.288.12-.696.24-1.176.24-1.632 0-2.88-.696-3.408-2.064 2.904-.6 4.824-3.648 4.824-8.16 0-5.04-2.424-8.16-5.976-8.16-3.576 0-6 3.096-6 8.16 0 4.584 1.992 7.656 5.016 8.184.792 2.16 2.52 3.744 5.304 3.744m-4.32-5.376c-2.424 0-3.96-2.616-3.96-6.552s1.536-6.432 3.96-6.432c2.4 0 3.936 2.496 3.936 6.432s-1.536 6.552-3.936 6.552m15.639 1.728c3.072 0 5.28-1.728 5.28-6.264v-9.864h-1.944v9.888c0 3.312-1.44 4.488-3.336 4.488s-3.312-1.176-3.312-4.488v-9.888h-2.016v9.864c0 4.536 2.232 6.264 5.328 6.264m11.127-.288h9.96v-1.704h-7.944v-5.76h6.504v-1.704h-6.504v-4.992h7.704v-1.68h-9.72zm20.15.288c3.456 0 5.568-1.992 5.568-4.512 0-2.352-1.56-3.384-3.48-4.224l-2.208-.96c-1.344-.576-2.808-1.128-2.808-2.64 0-1.44 1.224-2.328 3.12-2.328 1.56 0 2.76.576 3.792 1.488l1.056-1.296c-1.152-1.152-2.88-1.944-4.848-1.944-3 0-5.16 1.776-5.16 4.2 0 2.304 1.824 3.456 3.408 4.08l2.256.984c1.608.696 2.832 1.176 2.832 2.808 0 1.56-1.272 2.592-3.504 2.592-1.728 0-3.36-.792-4.536-1.992l-1.2 1.392c1.416 1.44 3.408 2.352 5.712 2.352m14.463-.288h2.016v-14.16h5.184v-1.68H816.19v1.68h5.184zm-292.022 40.224 1.08-1.008c-3.216-2.712-4.704-5.856-4.704-9.888s1.488-7.176 4.704-9.888l-1.08-1.008c-3.336 2.592-5.4 6.264-5.4 10.896s2.064 8.304 5.4 10.896m7.095-4.224h2.016v-7.464h6.576v7.464h2.016v-15.84h-2.016v6.648h-6.576v-6.648h-2.016zm19.886 0h2.016v-5.664l5.28-10.176h-2.064l-2.28 4.68c-.6 1.224-1.224 2.448-1.848 3.72h-.096c-.648-1.272-1.2-2.472-1.8-3.672l-2.376-4.728h-2.112l5.28 10.176zm11.847 0h1.992v-6.288h2.832c3.456 0 5.808-1.56 5.808-4.896 0-3.48-2.328-4.656-5.808-4.656h-4.824zm1.992-7.92v-6.312h2.568c2.736 0 4.08.744 4.08 3.048 0 2.256-1.32 3.264-4.08 3.264zm13.91 7.92h9.96v-1.704h-7.944v-5.76h6.504v-1.704h-6.504v-4.992h7.704v-1.68h-9.72zm15.231 0h1.992v-6.696h2.808l3.792 6.696h2.28l-4.008-6.912c2.136-.552 3.528-2.016 3.528-4.488 0-3.288-2.304-4.44-5.496-4.44h-4.896zm1.992-8.328v-5.904h2.616c2.448 0 3.792.744 3.792 2.832 0 2.064-1.344 3.072-3.792 3.072zm15.207 12.552c3.336-2.592 5.4-6.264 5.4-10.896s-2.064-8.304-5.4-10.896l-1.08 1.008c3.216 2.712 4.704 5.856 4.704 9.888s-1.488 7.176-4.704 9.888zM922.097 578.297h1.992v-7.104h6.456v-1.68h-6.456v-5.376h7.632v-1.68h-9.624zm19.551.288c3.552 0 6.048-3.192 6.048-8.28 0-5.04-2.496-8.136-6.048-8.136s-6.048 3.072-6.048 8.136c0 5.088 2.496 8.28 6.048 8.28m0-1.752c-2.4 0-3.984-2.568-3.984-6.528 0-3.936 1.584-6.384 3.984-6.384s3.984 2.448 3.984 6.384c0 3.96-1.584 6.528-3.984 6.528m10.791 1.464h1.992v-6.696h2.808l3.792 6.696h2.28l-4.008-6.912c2.136-.552 3.528-2.016 3.528-4.488 0-3.288-2.304-4.44-5.496-4.44h-4.896zm1.992-8.328v-5.904h2.616c2.448 0 3.792.744 3.792 2.832 0 2.064-1.344 3.072-3.792 3.072zm13.862 8.328h2.16l1.728-6.648c.24-.936.432-1.92.624-2.856h.072c.168.936.36 1.92.576 2.856l1.8 6.648h2.208l2.328-15.864h-1.896l-1.2 9.96c-.096 1.296-.24 2.616-.336 3.912h-.096c-.336-1.296-.696-2.64-.984-3.912l-1.656-5.856h-1.416l-1.656 5.856c-.312 1.296-.672 2.616-1.008 3.912h-.072c-.096-1.296-.264-2.592-.336-3.912l-1.272-9.96h-1.992zm13.695 0h2.04l1.512-4.848h5.712l1.488 4.848h2.112l-5.304-15.84h-2.256zm4.056-6.456.744-2.424c.552-1.776 1.056-3.48 1.56-5.328h.096a155 155 0 0 0 1.56 5.328l.744 2.424zm13.167 6.456h1.989v-6.696h2.81l3.79 6.696h2.28l-4.01-6.912c2.14-.552 3.53-2.016 3.53-4.488 0-3.288-2.3-4.44-5.49-4.44h-4.899zm1.989-8.328v-5.904h2.62c2.45 0 3.79.744 3.79 2.832 0 2.064-1.34 3.072-3.79 3.072zm13.24 8.328h3.94c4.65 0 7.2-2.952 7.2-7.992 0-5.016-2.55-7.848-7.3-7.848h-3.84zm1.99-1.632v-12.576h1.73c3.58 0 5.35 2.232 5.35 6.216 0 4.008-1.77 6.36-5.35 6.36zm18.88 1.92c3.46 0 5.57-1.992 5.57-4.512 0-2.352-1.56-3.384-3.48-4.224l-2.21-.96c-1.34-.576-2.81-1.128-2.81-2.64 0-1.44 1.23-2.328 3.12-2.328 1.56 0 2.76.576 3.8 1.488l1.05-1.296c-1.15-1.152-2.88-1.944-4.85-1.944-3 0-5.16 1.776-5.16 4.2 0 2.304 1.83 3.456 3.41 4.08l2.26.984c1.61.696 2.83 1.176 2.83 2.808 0 1.56-1.27 2.592-3.5 2.592-1.73 0-3.36-.792-4.54-1.992l-1.2 1.392c1.42 1.44 3.41 2.352 5.71 2.352m30.06-.288h2.01v-14.16h5.19v-1.68h-12.39v1.68h5.19zm11.29 0h2.02v-7.464h6.57v7.464h2.02v-15.84h-2.02v6.648h-6.57v-6.648h-2.02zm16.45 0h9.96v-1.704h-7.94v-5.76h6.5v-1.704h-6.5v-4.992h7.7v-1.68h-9.72zm30.83 0h1.99v-6.696h2.81l3.79 6.696h2.28l-4.01-6.912c2.14-.552 3.53-2.016 3.53-4.488 0-3.288-2.31-4.44-5.5-4.44h-4.89zm1.99-8.328v-5.904h2.61c2.45 0 3.8.744 3.8 2.832 0 2.064-1.35 3.072-3.8 3.072zm13.96 8.328h9.96v-1.704h-7.95v-5.76h6.51v-1.704h-6.51v-4.992h7.71v-1.68h-9.72zm24.32 3.936c.7 0 1.27-.144 1.78-.336l-.36-1.608c-.29.12-.7.24-1.18.24-1.63 0-2.88-.696-3.41-2.064 2.91-.6 4.83-3.648 4.83-8.16 0-5.04-2.43-8.16-5.98-8.16-3.57 0-6 3.096-6 8.16 0 4.584 1.99 7.656 5.02 8.184.79 2.16 2.52 3.744 5.3 3.744m-4.32-5.376c-2.42 0-3.96-2.616-3.96-6.552s1.54-6.432 3.96-6.432c2.4 0 3.94 2.496 3.94 6.432s-1.54 6.552-3.94 6.552m15.64 1.728c3.07 0 5.28-1.728 5.28-6.264v-9.864h-1.94v9.888c0 3.312-1.44 4.488-3.34 4.488-1.89 0-3.31-1.176-3.31-4.488v-9.888h-2.02v9.864c0 4.536 2.24 6.264 5.33 6.264m11.13-.288h9.96v-1.704h-7.95v-5.76h6.51v-1.704h-6.51v-4.992h7.71v-1.68h-9.72zm20.15.288c3.45 0 5.57-1.992 5.57-4.512 0-2.352-1.56-3.384-3.48-4.224l-2.21-.96c-1.35-.576-2.81-1.128-2.81-2.64 0-1.44 1.22-2.328 3.12-2.328 1.56 0 2.76.576 3.79 1.488l1.06-1.296c-1.15-1.152-2.88-1.944-4.85-1.944-3 0-5.16 1.776-5.16 4.2 0 2.304 1.82 3.456 3.41 4.08l2.25.984c1.61.696 2.84 1.176 2.84 2.808 0 1.56-1.28 2.592-3.51 2.592-1.73 0-3.36-.792-4.53-1.992l-1.2 1.392c1.41 1.44 3.4 2.352 5.71 2.352m14.46-.288h2.02v-14.16h5.18v-1.68h-12.38v1.68h5.18zM106.46 434.195a1.5 1.5 0 0 0 0 3zm385.601 2.561a1.5 1.5 0 0 0 0-2.122l-9.546-9.546a1.5 1.5 0 0 0-2.122 0 1.5 1.5 0 0 0 0 2.122l8.486 8.485-8.486 8.485a1.5 1.5 0 0 0 0 2.122 1.5 1.5 0 0 0 2.122 0zm-385.601.439H491v-3H106.46zM501.46 521.797a1.5 1.5 0 0 0 0 3zm386.601 2.561a1.5 1.5 0 0 0 0-2.121l-9.546-9.546a1.5 1.5 0 0 0-2.122 2.121l8.486 8.485-8.486 8.486a1.5 1.5 0 1 0 2.122 2.121zm-386.601.439H887v-3H501.46zM901.358 609.4a1.5 1.5 0 1 0 0 3zm384.702 2.561c.59-.586.59-1.536 0-2.122l-9.55-9.546a1.5 1.5 0 0 0-2.12 0 1.51 1.51 0 0 0 0 2.122l8.49 8.485-8.49 8.485a1.51 1.51 0 0 0 0 2.122 1.5 1.5 0 0 0 2.12 0zm-384.702.439h2.997v-3h-2.997zm8.991 0h5.995v-3h-5.995zm11.989 0h5.995v-3h-5.995zm11.989 0h5.994v-3h-5.994zm11.989 0h5.994v-3h-5.994zm11.989 0h5.994v-3h-5.994zm11.988 0h5.995v-3h-5.995zm11.989 0h5.995v-3h-5.995zm11.989 0h5.999v-3h-5.999zm11.989 0h5.99v-3h-5.99zm11.99 0h5.99v-3h-5.99zm11.99 0h5.99v-3h-5.99zm11.99 0h5.99v-3h-5.99zm11.99 0h5.99v-3h-5.99zm11.98 0h6v-3h-6zm11.99 0h6v-3h-6zm11.99 0h6v-3h-6zm11.99 0h5.99v-3h-5.99zm11.99 0h5.99v-3h-5.99zm11.99 0h5.99v-3h-5.99zm11.99 0h5.99v-3h-5.99zm11.99 0h5.99v-3h-5.99zm11.98 0h6v-3h-6zm11.99 0h6v-3h-6zm11.99 0h6v-3h-6zm11.99 0h6v-3h-6zm11.99 0h5.99v-3h-5.99zm11.99 0h5.99v-3h-5.99zm11.99 0h5.99v-3h-5.99zm11.99 0h5.99v-3h-5.99zm11.99 0h5.99v-3h-5.99zm11.98 0h6v-3h-6zm11.99 0h3v-3h-3zM1158.23 731.709h1.99v-6.696h2.81l3.79 6.696h2.28l-4-6.912c2.13-.552 3.52-2.016 3.52-4.488 0-3.288-2.3-4.44-5.49-4.44h-4.9zm1.99-8.328v-5.904h2.62c2.45 0 3.79.744 3.79 2.832 0 2.064-1.34 3.072-3.79 3.072zm13.96 8.328h9.96v-1.704h-7.94v-5.76h6.5v-1.704h-6.5v-4.992h7.7v-1.68h-9.72zm20.15.288c3.46 0 5.57-1.992 5.57-4.512 0-2.352-1.56-3.384-3.48-4.224l-2.21-.96c-1.34-.576-2.8-1.128-2.8-2.64 0-1.44 1.22-2.328 3.12-2.328 1.56 0 2.76.576 3.79 1.488l1.05-1.296c-1.15-1.152-2.88-1.944-4.84-1.944-3 0-5.16 1.776-5.16 4.2 0 2.304 1.82 3.456 3.4 4.08l2.26.984c1.61.696 2.83 1.176 2.83 2.808 0 1.56-1.27 2.592-3.5 2.592-1.73 0-3.36-.792-4.54-1.992l-1.2 1.392c1.42 1.44 3.41 2.352 5.71 2.352m10.72-.288h1.99v-6.288h2.84c3.45 0 5.8-1.56 5.8-4.896 0-3.48-2.32-4.656-5.8-4.656h-4.83zm1.99-7.92v-6.312h2.57c2.74 0 4.08.744 4.08 3.048 0 2.256-1.32 3.264-4.08 3.264zm18.36 8.208c3.55 0 6.04-3.192 6.04-8.28 0-5.04-2.49-8.136-6.04-8.136-3.56 0-6.05 3.072-6.05 8.136 0 5.088 2.49 8.28 6.05 8.28m0-1.752c-2.4 0-3.99-2.568-3.99-6.528 0-3.936 1.59-6.384 3.99-6.384s3.98 2.448 3.98 6.384c0 3.96-1.58 6.528-3.98 6.528m10.38 1.464h1.89v-8.304c0-1.632-.19-3.336-.26-4.944h.05l1.58 3.24 5.11 10.008h2.04v-15.84h-1.89v8.232c0 1.656.19 3.456.26 5.016h-.05l-1.58-3.24-5.11-10.008h-2.04zm20.92.288c3.45 0 5.56-1.992 5.56-4.512 0-2.352-1.56-3.384-3.48-4.224l-2.2-.96c-1.35-.576-2.81-1.128-2.81-2.64 0-1.44 1.22-2.328 3.12-2.328 1.56 0 2.76.576 3.79 1.488l1.06-1.296c-1.16-1.152-2.88-1.944-4.85-1.944-3 0-5.16 1.776-5.16 4.2 0 2.304 1.82 3.456 3.41 4.08l2.25.984c1.61.696 2.83 1.176 2.83 2.808 0 1.56-1.27 2.592-3.5 2.592-1.73 0-3.36-.792-4.54-1.992l-1.2 1.392c1.42 1.44 3.41 2.352 5.72 2.352m11.03-.288h9.96v-1.704h-7.95v-5.76h6.51v-1.704h-6.51v-4.992h7.71v-1.68h-9.72z"/><path fill="#00ff8b" d="M912.939 761.248a1.5 1.5 0 0 0 0 2.121l9.546 9.546a1.5 1.5 0 0 0 2.122-2.121l-8.486-8.485 8.486-8.486a1.501 1.501 0 0 0-2.122-2.121zm1.061 2.561h2.98v-3H914zm8.94 0h5.961v-3h-5.961zm11.921 0h5.96v-3h-5.96zm11.921 0h5.96v-3h-5.96zm11.92 0h5.961v-3h-5.961zm11.921 0h5.96v-3h-5.96zm11.921 0h5.96v-3h-5.96zm11.92 0h5.956v-3h-5.956zm11.916 0h5.97v-3h-5.97zm11.93 0h5.96v-3h-5.96zm11.92 0h5.96v-3h-5.96zm11.92 0h5.96v-3h-5.96zm11.92 0h5.96v-3h-5.96zm11.92 0h5.96v-3h-5.96zm11.92 0h5.96v-3h-5.96zm11.92 0h5.96v-3h-5.96zm11.92 0h5.96v-3h-5.96zm11.92 0h5.96v-3h-5.96zm11.92 0h5.96v-3h-5.96zm11.92 0h5.96v-3h-5.96zm11.92 0h5.96v-3h-5.96zm11.92 0h5.96v-3h-5.96zm11.92 0h5.96v-3h-5.96zm11.92 0h5.96v-3h-5.96zm11.92 0h5.97v-3h-5.97zm11.93 0h5.96v-3h-5.96zm11.92 0h5.96v-3h-5.96zm11.92 0h5.96v-3h-5.96zm11.92 0h5.96v-3h-5.96zm11.92 0h5.96v-3h-5.96zm11.92 0h5.96v-3h-5.96zm11.92 0h5.96v-3h-5.96zm11.92 0h2.98v-3h-2.98zM511.939 854.248a1.5 1.5 0 0 0 0 2.121l9.546 9.546a1.5 1.5 0 0 0 2.122-2.121l-8.486-8.485 8.486-8.486a1.501 1.501 0 0 0-2.122-2.121zm1.061 2.561h386.46v-3H513zM114.939 946.248a1.5 1.5 0 0 0 0 2.121l9.546 9.546a1.5 1.5 0 0 0 2.122-2.121l-8.486-8.485 8.486-8.486a1.501 1.501 0 0 0-2.122-2.121zm1.061 2.561h383.746v-3H116z"/><path fill="#a6a8a8" d="M102.046 1082.92c.781.79 2.047.79 2.828 0l12.728-12.72a2.001 2.001 0 0 0-2.828-2.83l-11.314 11.31-11.314-11.31a2 2 0 0 0-2.828 0 2 2 0 0 0 0 2.83zm-.586-776.915v775.505h4V306.005zM1296.05 1082.92c.78.79 2.04.79 2.82 0l12.73-12.72c.78-.78.78-2.05 0-2.83s-2.05-.78-2.83 0l-11.31 11.31-11.31-11.31c-.78-.78-2.05-.78-2.83 0s-.78 2.05 0 2.83zm-.59-776.915v775.505h4V306.005zM500.046 1082.92c.781.79 2.047.79 2.828 0l12.728-12.72a2.001 2.001 0 0 0-2.828-2.83l-11.314 11.31-11.314-11.31a2.001 2.001 0 0 0-2.828 2.83zm-.586-776.915v775.505h4V306.005zM898.046 1082.92c.781.79 2.047.79 2.828 0l12.728-12.72a2.001 2.001 0 0 0-2.828-2.83l-11.314 11.31-11.314-11.31a2.001 2.001 0 0 0-2.828 2.83zm-.586-776.915v775.505h4V306.005z"/></g><defs><clipPath id="a"><path fill="#fff" d="M0 0h1400v1209.51H0z"/></clipPath></defs></svg>