<svg xmlns="http://www.w3.org/2000/svg" width="297" height="275" fill="none" viewBox="0 0 297 275"><path stroke="#292929" stroke-linecap="round" d="M46.737 234.398h457.087M62.84 234.398h20.83a29.74 29.74 0 0 0 25.839-15.02l12.522-21.986a31.72 31.72 0 0 1 27.563-16.021h28.524"/><path stroke="#292929" stroke-linecap="round" d="M62.593 234.398h16.093a21.81 21.81 0 0 0 19.912-12.915l29.571-66.217a30.43 30.43 0 0 1 27.786-18.022h323.346M157.751 137.243h15.641a21.81 21.81 0 0 0 20.161-13.495l30.059-72.916A30.43 30.43 0 0 1 251.746 32h248.156"/><path stroke="url(#a)" stroke-linecap="round" stroke-width=".496" d="M157.751 137.244h15.641a21.81 21.81 0 0 0 20.161-13.496l6.902-16.743"/><path stroke="url(#b)" stroke-linecap="round" stroke-width=".496" d="M62.593 234.398h16.093a21.81 21.81 0 0 0 19.912-12.915l29.571-66.217a30.43 30.43 0 0 1 27.786-18.022h114.526"/><path stroke="url(#c)" stroke-linecap="round" stroke-width=".496" d="M52.198 234.398h31.471a29.74 29.74 0 0 0 25.84-15.02l12.522-21.986a31.72 31.72 0 0 1 27.563-16.021h3.517"/><rect width="123.533" height="19.194" x="165.125" y="170.647" fill="#1f1f1f" rx="9.597"/><rect width="123.533" height="19.194" x="165.125" y="170.647" stroke="#333" rx="9.597"/><path fill="#fafafa" d="M191.273 182.744v-5.541h3.484v.814h-2.519v1.587h2.141v.814h-2.141v2.326zm5.311 0v-5.541h3.501v.814h-2.536v1.436h2.149v.814h-2.149v1.654h2.62v.823zm4.748 0 1.78-5.541h1.134l1.779 5.541h-1.024l-.428-1.511h-1.822l-.436 1.511zm1.629-2.275h1.402l-.193-.689a77 77 0 0 1-.495-1.822h-.034a51 51 0 0 1-.487 1.822zm5.68 2.275v-4.727h-1.721v-.814h4.425v.814h-1.73v4.727zm3.733.311 3.593-6.272h.832l-3.602 6.272zm5.773-.311v-5.541h.982l1.478 3.14.512 1.175h.025c-.042-.571-.134-1.268-.134-1.88v-2.435h.923v5.541h-.99l-1.47-3.148-.512-1.167h-.025c.042.587.134 1.251.134 1.863v2.452zm5.706 0v-5.541h3.5v.814h-2.535v1.436h2.149v.814h-2.149v1.654h2.619v.823zm5.42 0-.789-5.549h.982l.311 3.223c.016.471.05.932.075 1.394h.025c.101-.462.219-.932.319-1.394l.479-1.796h.621l.47 1.796c.093.454.219.924.319 1.394h.034l.075-1.394.294-3.223h.915l-.747 5.549h-1.032l-.487-2.049a15 15 0 0 1-.177-1.024h-.025c-.05.328-.109.689-.185 1.024l-.461 2.049zm5.26-2.426v-.697h3.736v.697zm5.395 2.426v-5.541h1.033l.764 2.166.269.831h.033l.252-.831.764-2.166h1.033v5.541h-.823v-2.494c0-.528.076-1.57.126-2.09h-.034l-.419 1.352-.697 1.738h-.47l-.706-1.738-.419-1.352h-.026c.042.52.126 1.562.126 2.09v2.494zm6.035 0v-5.541h3.501v.814h-2.536v1.436h2.15v.814h-2.15v1.654h2.62v.823zm5.168 0v-5.541h1.033l.764 2.166.268.831h.034l.252-.831.764-2.166h1.032v5.541h-.822v-2.494c0-.528.075-1.57.126-2.09h-.034l-.42 1.352-.697 1.738h-.47l-.705-1.738-.42-1.352h-.025c.042.52.126 1.562.126 2.09v2.494zm5.942 0v-5.541h1.612c1.125 0 1.948.344 1.948 1.36 0 .52-.311 1.033-.957 1.209v.033c.797.135 1.234.555 1.234 1.31 0 1.108-.882 1.629-2.082 1.629zm.966-3.241h.554c.772 0 1.091-.302 1.091-.823 0-.512-.352-.722-1.066-.722h-.579zm0 2.485h.688c.806 0 1.234-.302 1.234-.932 0-.596-.411-.856-1.234-.856h-.688zm4.58.756v-5.541h3.501v.814h-2.535v1.436h2.149v.814h-2.149v1.654h2.619v.823zm5.286 0v-5.541h1.83c1.134 0 2.015.403 2.015 1.637 0 .84-.436 1.352-1.1 1.578l1.318 2.326h-1.091l-1.192-2.175h-.814v2.175zm.966-2.955h.764c.755 0 1.158-.319 1.158-.949 0-.646-.403-.865-1.158-.865h-.764zm6.31 3.056a2.92 2.92 0 0 1-2.04-.815l.562-.663c.411.378.957.638 1.494.638.68 0 1.025-.285 1.025-.73 0-.462-.37-.605-.915-.823l-.748-.327c-.587-.227-1.183-.664-1.183-1.47 0-.881.789-1.553 1.905-1.553.68 0 1.31.26 1.763.705l-.503.613c-.37-.302-.747-.478-1.26-.478-.57 0-.923.243-.923.663 0 .437.445.588.94.789l.722.311c.697.285 1.192.688 1.192 1.494 0 .898-.747 1.646-2.031 1.646"/><path stroke="#4d4d4d" stroke-linecap="round" stroke-linejoin="round" stroke-width=".7" d="M176.169 175.658v5.713M181.765 178.514c.773 0 1.4-.639 1.4-1.428s-.627-1.428-1.4-1.428-1.399.639-1.399 1.428.627 1.428 1.399 1.428M176.169 184.228c.772 0 1.399-.64 1.399-1.429 0-.788-.627-1.428-1.399-1.428-.773 0-1.4.64-1.4 1.428 0 .789.627 1.429 1.4 1.429M181.766 178.514a4.33 4.33 0 0 1-1.23 3.03 4.15 4.15 0 0 1-2.968 1.255"/><rect width="58.474" height="18.825" x="17.5" y="224.612" fill="#1f1f1f" rx="9.412"/><rect width="58.474" height="18.825" x="17.5" y="224.612" stroke="#333" rx="9.412"/><path fill="#fafafa" d="M44.03 236.524v-5.541h1.033l.764 2.166.27.831h.033l.252-.831.764-2.166h1.032v5.541h-.822v-2.493c0-.529.075-1.57.125-2.091h-.033l-.42 1.352-.697 1.738h-.47l-.705-1.738-.42-1.352h-.025c.042.521.126 1.562.126 2.091v2.493zm5.33 0 1.78-5.541h1.133l1.78 5.541H53.03l-.428-1.511h-1.822l-.437 1.511zm1.629-2.275h1.402l-.193-.689a80 80 0 0 1-.496-1.821h-.033a51 51 0 0 1-.487 1.821zm4.362 2.275v-.823h1.318v-3.904h-1.318v-.814h3.618v.814h-1.326v3.904h1.326v.823zm5.37 0v-5.541h.982l1.478 3.14.512 1.175h.025c-.042-.571-.134-1.267-.134-1.88v-2.435h.923v5.541h-.99l-1.47-3.148-.512-1.167h-.025c.042.587.134 1.251.134 1.864v2.451z"/><path fill="#242424" stroke="#4d4d4d" stroke-linecap="round" stroke-linejoin="round" stroke-width=".7" d="M31.859 239.159s3.73-1.904 3.73-4.761v-3.333l-3.73-1.428-3.732 1.428v3.333c0 2.857 3.732 4.761 3.732 4.761"/><defs><linearGradient id="a" x1="200.455" x2="163.138" y1="122.124" y2="130.927" gradientUnits="userSpaceOnUse"><stop stop-color="#fff"/><stop offset="1" stop-color="#fff" stop-opacity="0"/></linearGradient><linearGradient id="b" x1="270.481" x2="105.433" y1="137.244" y2="158.947" gradientUnits="userSpaceOnUse"><stop stop-color="#fff"/><stop offset="1" stop-color="#fff" stop-opacity="0"/></linearGradient><linearGradient id="c" x1="150.729" x2="-35.704" y1="181.371" y2="222.257" gradientUnits="userSpaceOnUse"><stop stop-color="#fff"/><stop offset="1" stop-color="#53595c"/></linearGradient></defs></svg>