<svg xmlns="http://www.w3.org/2000/svg" width="297" height="275" fill="none" viewBox="0 0 297 275"><mask id="b" width="300" height="272" x="0" y="0" maskUnits="userSpaceOnUse" style="mask-type:alpha"><path fill="url(#a)" d="M0 0h299.9v271.192H0z"/></mask><g mask="url(#b)"><g stroke-width=".448" style="mix-blend-mode:lighten"><path stroke="#707070" d="M88.638 297.318c-1.323-.807 1.087-7.662 6.97-19.889 5.882-12.227 15.038-29.39 26.542-49.77s24.954-43.251 38.997-66.311c14.05-23.07 28.196-45.511 41.013-65.09 12.827-19.574 23.877-35.584 32.038-46.416 8.167-10.844 13.157-16.122 14.48-15.315" opacity=".6"/><path stroke="#707070" d="M69.316 283.406c-5.496-4.65-6.309-14.648-2.363-28.988 3.956-14.333 12.542-32.518 24.889-52.704 12.347-20.185 28.035-41.669 45.472-62.283 17.443-20.624 36.018-39.656 53.86-55.192 17.854-15.53 34.344-27.021 47.824-33.301 13.481-6.28 23.475-7.138 28.977-2.499" opacity=".6"/><path stroke="#707070" d="M50.466 264.418c-7.923-9.511-10.235-23.395-6.727-40.266 3.509-16.872 12.739-36.139 26.745-55.864s32.302-39.214 53.049-56.506c20.748-17.292 43.216-31.771 65.134-41.991 21.929-10.214 42.537-15.82 59.776-16.24 17.233-.409 30.477 4.368 38.388 13.873" opacity=".6"/><path stroke="#707070" d="M32.235 237.061c-7.722-14.8-9.006-32.634-3.718-51.7 5.288-19.065 16.963-38.689 33.834-56.909 16.882-18.215 38.37-34.376 62.313-46.87s49.505-20.848 74.098-24.269c24.605-3.415 47.377-1.741 66.032 4.83 18.655 6.573 32.543 17.841 40.264 32.641" opacity=".6"/><path stroke="#707070" d="M17.802 196.15c-3.906-19.492-.774-40.043 9.082-59.582C36.74 117.03 52.97 99.188 73.95 84.847s45.964-24.687 72.442-29.999 53.519-5.386 78.406-.235 46.738 15.356 63.36 29.583 27.433 31.994 31.339 51.486" opacity=".6"/><path stroke="#707070" d="M17.292 138.36c3.889-21.37 14.705-41.08 31.365-57.158C65.306 65.12 87.21 53.236 112.174 46.738c24.957-6.488 52.083-7.365 78.651-2.519 26.575 4.836 51.652 15.22 72.709 30.095s37.378 33.715 47.286 54.639 13.086 43.179 9.197 64.548" opacity=".6"/><path stroke="#707070" d="M44.182 75.5c19.6-26.972 51.503-43.325 88.708-45.445s76.648 10.165 109.658 34.14c33.009 23.975 56.891 57.698 66.376 93.722 9.479 36.036 3.805 71.432-15.784 98.41" opacity=".6"/><path stroke="#707070" d="M91.768 32.654c27.371-15.789 61.726-16.9 95.502-3.068 33.775 13.83 64.204 41.441 84.589 76.794 20.39 35.341 29.071 75.512 24.125 111.672-4.947 36.161-23.099 65.348-50.47 81.137" opacity=".6"/><path stroke="#707070" d="M138.415 15.07c27.171-5.444 56.412 5.22 81.298 29.667 24.886 24.446 43.363 60.64 51.386 100.647 8.022 40.007 4.91 80.541-8.631 112.678-13.54 32.137-36.414 53.259-63.586 58.704" opacity=".6"/><path stroke="#707070" d="M175.478 12.226c21.906.976 42.201 18.106 56.414 47.613s21.172 68.994 19.373 109.754c-1.815 40.764-12.247 79.466-29.023 107.602-16.777 28.137-38.502 43.403-60.408 42.427" opacity=".6"/><path stroke="#707070" d="M204.34 16.275c14.257 3.396 24.162 22.432 27.548 52.895 3.387 30.463-.027 69.88-9.499 109.575-9.466 39.684-24.213 76.406-40.984 102.07s-34.201 38.173-48.451 34.767" opacity=".6"/><path stroke="#707070" d="M227.979 23.969c5.889 2.464 5.275 19.777-1.689 48.135-6.964 28.359-19.71 65.444-35.444 103.087s-33.157 72.779-48.457 97.661c-15.283 24.877-27.178 37.48-33.067 35.017" opacity=".6"/><path stroke="#707070" d="M115.972 310.483c-15.017-5.473-29.6-13.571-42.184-23.425m98.287 32.678c-23.696.535-51.443-7.169-76.987-21.354s-46.734-33.669-58.823-54.062m172.475 70.145c-30.134 8.135-72.22.013-110.707-21.359s-67.63-52.804-76.654-82.683m217.835 92.209c-15.885 8.199-37.443 10.872-61.811 7.665-24.368-3.208-50.427-12.135-74.695-25.611-24.267-13.475-45.627-30.866-61.225-49.866-15.604-18.99-24.73-38.702-26.169-56.52M265.04 285.841c-15.523 12.475-39.386 18.03-67.717 15.761s-59.462-12.227-88.33-28.257-53.778-37.193-70.68-60.042-24.802-46.042-22.419-65.814m270.524 117.436c-13.968 16.622-39 25.242-70.292 24.209-31.298-1.022-66.679-11.626-99.354-29.772-32.676-18.145-60.38-42.572-77.793-68.599s-23.329-51.833-16.609-72.465m280.789 122.315c-7.524 13.548-21.125 23.39-39.437 28.57-18.324 5.175-40.704 5.491-64.911.904s-49.376-13.898-72.994-27.013-44.827-29.558-61.517-47.682c-16.69-18.123-28.263-37.293-33.547-55.577-5.294-18.29-4.112-35.042 3.405-48.58m269.001 149.378a153.87 153.87 0 0 1-92.216 73.232 153.83 153.83 0 0 1-116.984-13.427 153.9 153.9 0 0 1-73.238-92.204A153.83 153.83 0 0 1 34.146 91.23a153.9 153.9 0 0 1 92.205-73.238 153.83 153.83 0 0 1 116.984 13.426 153.9 153.9 0 0 1 73.238 92.205 153.87 153.87 0 0 1-13.415 116.99Zm11.788-27.062c-5.135 15.781-17.427 27.804-35.465 34.693-18.031 6.877-41.063 8.343-66.457 4.206-25.399-4.125-52.129-13.684-77.112-27.557-24.994-13.88-47.228-31.511-64.156-50.89s-27.877-39.7-31.56-58.636c-3.694-18.941.025-35.725 10.702-48.443m270.496 117.434c-2.134 17.664-12.367 31.709-29.352 40.306-16.99 8.607-39.953 11.349-65.866 7.889s-53.575-12.975-79.361-27.294-48.486-32.771-65.121-52.938c-16.636-20.167-26.447-41.109-28.122-60.082s4.837-35.083 18.697-46.22M322 153.548c1.541 19.085-5.825 34.996-20.98 45.328s-37.275 14.537-63.034 11.968c-25.76-2.569-53.746-11.76-79.741-26.195-25.996-14.435-48.603-33.339-64.39-53.841C78.059 110.3 69.934 89.302 70.694 70.976c.76-18.327 10.382-32.984 27.386-41.771m217.856 92.221c6.023 19.961 2.55 37.572-9.816 49.727s-32.823 18.06-57.754 16.671c-24.921-1.383-52.702-9.985-78.411-24.261s-47.685-33.305-62.044-53.734c-14.347-20.423-20.15-40.91-16.368-57.832 3.78-16.922 16.901-29.19 37.022-34.62m172.464 70.14c11.872 20.056 13.962 39.345 5.797 53.66s-25.915 22.5-49.368 22.753c-23.459.264-50.727-7.419-75.842-21.366s-46.052-33.031-58.229-53.084-14.618-39.436-6.783-53.934 25.313-22.921 48.615-23.446m98.292 32.696c16.809 13.164 29.059 28.678 34.506 43.683 5.437 15 3.698 28.477-4.915 37.92-8.614 9.444-23.499 14.209-41.915 13.429s-39.1-7.069-58.217-17.684c-19.128-10.622-35.389-24.85-45.787-40.07S132.961 51.7 136.424 39.396s13.973-20.91 29.59-24.218c15.606-3.314 35.262-1.111 55.322 6.198m62.895 80.284c-5.158 9.289-16.546 14.629-31.641 14.843-15.105.208-32.682-4.728-48.871-13.718-16.2-8.996-29.682-21.307-37.479-34.233-7.809-12.932-9.292-25.405-4.128-34.705 5.159-9.289 16.547-14.628 31.642-14.842 15.105-.209 32.682 4.728 48.871 13.718s29.682 21.306 37.479 34.232c7.798 12.927 9.286 25.417 4.127 34.705Zm-15.829-17.444c-3.514 6.329-11.261 9.96-21.535 10.102-10.273.141-22.249-3.212-33.266-9.33-11.016-6.117-20.199-14.5-25.504-23.306-5.311-8.795-6.324-17.291-2.809-23.62 3.514-6.328 11.261-9.96 21.535-10.101 10.273-.141 22.249 3.212 33.266 9.33 11.016 6.117 20.199 14.5 25.504 23.305 5.311 8.796 6.323 17.292 2.809 23.62ZM250.12 68.78c-3.704 6.67-16.125 6.842-27.747.388S204.33 52.078 208.034 45.41s16.125-6.842 27.747-.388 18.042 17.089 14.339 23.758Z" opacity=".6"/><path stroke="url(#c)" d="M164.513 65.134c-12.934 3.685-30.603 11.115-44.254 18.847-2.03-3.997-6.293-13.507-7.107-19.57" opacity=".6"/><path stroke="url(#d)" d="M141.955 73.34c-16.183 6.307-46 24.057-61.037 37.414" opacity=".6"/></g><path fill="#ededed" stroke="#ededed" stroke-width=".895" d="M164.305 63.36c1.179 0 2.078.882 2.078 1.903s-.899 1.902-2.078 1.902-2.079-.881-2.079-1.902.9-1.903 2.079-1.903ZM80.71 108.388c1.18 0 2.08.882 2.08 1.902s-.9 1.903-2.08 1.903c-1.178 0-2.078-.882-2.078-1.903s.9-1.902 2.079-1.902ZM251.302 136.474c1.179 0 2.078.882 2.078 1.903s-.899 1.902-2.078 1.902-2.079-.881-2.079-1.902.9-1.903 2.079-1.903Z"/><path stroke="url(#e)" stroke-width=".448" d="M164.304 65.005c-2.059-3.628-5.992-12.831-5.257-20.625.735-7.793 3.824-11.874 4.743-13.014-13.345-2.095-42.315-3.235-65.181 5.074"/><path stroke="url(#f)" stroke-width=".448" d="M98.609 36.44c22.866-8.309 51.836-7.17 65.181-5.074-.787.976-3.162 4.104-4.291 9.87"/><path stroke="url(#g)" stroke-width=".448" d="M124.203 155.84c4.682-7.275 20.677-25.243 28.128-33.468-7.183-5.714-15.341-14.861-18.589-18.772 11.714-9.347 31.013-21.063 39.198-25.752-2.157-2.579-6.894-8.678-8.591-12.451"/><path stroke="url(#h)" stroke-width=".448" d="M196.425 160.333c5.05-9.202 14.745-38.366 19.264-51.687-19.971-8.284-34.192-20.764-42.756-30.844"/><path stroke="url(#i)" stroke-width=".448" d="M251.026 140.06c-18.169-1.007-35.954-7.262-42.575-10.263 1.742-4.784 5.633-15.706 7.259-21.124"/><rect width="24.221" height="24.221" x="152.402" y="28.536" fill="#282828" rx="4.251"/><rect width="24.221" height="24.221" x="152.402" y="28.536" stroke="#2e2e2e" stroke-width=".448" rx="4.251"/><path fill="#a0a0a0" fill-rule="evenodd" d="M159.589 36.17c0-.741.601-1.342 1.343-1.342h7.16c.742 0 1.343.6 1.343 1.342v1.79c0 .477-.249.896-.624 1.134v3.104c.375.238.624.657.624 1.134v1.79c0 .742-.601 1.343-1.343 1.343h-7.16a1.343 1.343 0 0 1-1.343-1.343v-1.79c0-.483.255-.906.637-1.142v-3.087a1.34 1.34 0 0 1-.637-1.143zm8.517 2.238h-7.188a.45.45 0 0 1-.434-.448v-1.79c0-.247.201-.447.448-.447h7.16c.248 0 .448.2.448.447v1.79c0 .243-.193.44-.434.448m-6.984.895v2.685h6.794v-2.685zm-.19 3.582c-.247 0-.448.2-.448.447v1.79c0 .247.201.448.448.448h7.16c.248 0 .448-.2.448-.448v-1.79c0-.247-.2-.447-.448-.447z" clip-rule="evenodd"/><rect width="24.221" height="24.221" x="68.808" y="73.563" fill="#282828" rx="4.251"/><rect width="24.221" height="24.221" x="68.808" y="73.563" stroke="#2e2e2e" stroke-width=".448" rx="4.251"/><path fill="#a0a0a0" fill-rule="evenodd" d="M84.26 85.535a.45.45 0 0 1 .61-.164l1.151.664c.415.24.671.683.671 1.163v.772c0 .48-.255.923-.67 1.162l-3.564 2.058c-.97.56-2.164.56-3.133 0l-3.563-2.058a1.34 1.34 0 0 1-.671-1.162v-.681c0-.473.249-.911.655-1.154l1.278-.761a.448.448 0 1 1 .458.769l-1.278.761a.45.45 0 0 0-.218.385v.68c0 .16.085.308.223.388l3.564 2.058c.692.4 1.545.4 2.237 0l3.564-2.058a.45.45 0 0 0 .223-.387v-.772a.45.45 0 0 0-.223-.388l-1.15-.664a.45.45 0 0 1-.165-.611" clip-rule="evenodd"/><path fill="#a0a0a0" fill-rule="evenodd" d="M79.76 79.925a2.24 2.24 0 0 1 2.265-.016l3.996 2.307c.415.24.671.683.671 1.163v.772c0 .48-.255.923-.67 1.163l-3.564 2.057c-.97.56-2.164.56-3.133 0l-3.563-2.057a1.34 1.34 0 0 1-.671-1.163v-.68c0-.474.249-.912.655-1.154zm1.817.76a1.34 1.34 0 0 0-1.358.008l-4.015 2.393a.45.45 0 0 0-.218.384v.681c0 .16.085.308.223.388l3.564 2.057c.692.4 1.545.4 2.237 0l3.564-2.057a.45.45 0 0 0 .223-.388v-.772a.45.45 0 0 0-.223-.388z" clip-rule="evenodd"/><path fill="#a0a0a0" fill-rule="evenodd" d="M86.493 86.538a.45.45 0 0 1-.17.61l-4.304 2.416a2.24 2.24 0 0 1-2.195-.002l-4.282-2.415a.448.448 0 1 1 .44-.78l4.282 2.415c.408.23.907.23 1.316.001l4.304-2.416a.45.45 0 0 1 .61.171M86.493 82.72a.45.45 0 0 1-.17.61l-4.304 2.415a2.24 2.24 0 0 1-2.195-.002l-4.282-2.414a.448.448 0 0 1 .44-.78l4.282 2.414c.408.23.907.231 1.316.002l4.304-2.416a.45.45 0 0 1 .61.17" clip-rule="evenodd"/><rect width="24.221" height="24.221" x="239.399" y="101.65" fill="#282828" rx="4.251"/><rect width="24.221" height="24.221" x="239.399" y="101.65" stroke="#2e2e2e" stroke-width=".448" rx="4.251"/><path fill="#a0a0a0" fill-rule="evenodd" d="M254.85 113.621a.45.45 0 0 1 .612-.164l1.15.664c.416.24.671.684.671 1.163v.772c0 .48-.255.923-.671 1.163l-3.563 2.057c-.969.56-2.164.56-3.133 0l-3.563-2.057a1.34 1.34 0 0 1-.671-1.163v-.681c0-.473.249-.911.655-1.153l1.278-.762a.447.447 0 0 1 .458.769l-1.278.762a.45.45 0 0 0-.218.384v.681c0 .16.085.308.223.388l3.564 2.057c.692.4 1.545.4 2.237 0l3.564-2.057a.45.45 0 0 0 .223-.388v-.772a.45.45 0 0 0-.223-.387l-1.151-.665a.45.45 0 0 1-.164-.611" clip-rule="evenodd"/><path fill="#a0a0a0" fill-rule="evenodd" d="M250.351 108.011a2.24 2.24 0 0 1 2.265-.016l3.996 2.308c.416.24.671.683.671 1.162v.772c0 .48-.255.923-.671 1.163l-3.563 2.057c-.969.56-2.164.56-3.133 0l-3.563-2.057a1.34 1.34 0 0 1-.671-1.163v-.68c0-.474.249-.912.655-1.154zm1.817.759a1.34 1.34 0 0 0-1.358.01l-4.015 2.392a.45.45 0 0 0-.218.385v.68c0 .16.085.308.223.388l3.564 2.057c.692.4 1.545.4 2.237 0l3.564-2.057a.45.45 0 0 0 .223-.388v-.772a.45.45 0 0 0-.223-.387z" clip-rule="evenodd"/><path fill="#a0a0a0" fill-rule="evenodd" d="M257.084 114.625a.447.447 0 0 1-.171.609l-4.303 2.416a2.24 2.24 0 0 1-2.195-.002l-4.282-2.414a.449.449 0 0 1 .44-.78l4.282 2.414c.408.231.907.231 1.316.002l4.304-2.416a.447.447 0 0 1 .609.171M257.084 110.806a.45.45 0 0 1-.171.61l-4.303 2.416a2.24 2.24 0 0 1-2.195-.002l-4.282-2.415a.447.447 0 1 1 .44-.779l4.282 2.414c.408.23.907.231 1.316.001l4.304-2.416a.447.447 0 0 1 .609.171" clip-rule="evenodd"/><path stroke="#ededed" stroke-dasharray="0.45 0.9" stroke-width=".448" d="M164.304 64.8V52.98M80.71 109.827V98.008M251.301 137.913v-11.818"/></g><defs><linearGradient id="a" x1="203.409" x2="74.875" y1="22.396" y2="265.831" gradientUnits="userSpaceOnUse"><stop stop-color="#fff"/><stop offset="1" stop-color="#fff" stop-opacity="0"/></linearGradient><linearGradient id="c" x1="173.427" x2="151.967" y1="67.237" y2="85.016" gradientUnits="userSpaceOnUse"><stop stop-color="#fff"/><stop offset="1" stop-color="#fff" stop-opacity="0"/></linearGradient><linearGradient id="d" x1="149.134" x2="83.002" y1="71.561" y2="125.643" gradientUnits="userSpaceOnUse"><stop stop-color="#fff"/><stop offset="1" stop-color="#fff" stop-opacity="0"/></linearGradient><linearGradient id="e" x1="164.304" x2="156.156" y1="63.603" y2="44.772" gradientUnits="userSpaceOnUse"><stop stop-color="#fff"/><stop offset="1" stop-color="#fff" stop-opacity="0"/></linearGradient><linearGradient id="f" x1="163.789" x2="98.609" y1="33.238" y2="36.719" gradientUnits="userSpaceOnUse"><stop stop-color="#fff"/><stop offset="1" stop-color="#fff" stop-opacity="0"/></linearGradient><linearGradient id="g" x1="164.653" x2="133.46" y1="85.307" y2="148.568" gradientUnits="userSpaceOnUse"><stop stop-color="#fff"/><stop offset="1" stop-color="#fff" stop-opacity="0"/></linearGradient><linearGradient id="h" x1="188.844" x2="196.305" y1="97.136" y2="152.389" gradientUnits="userSpaceOnUse"><stop stop-color="#fff" stop-opacity=".51"/><stop offset="1" stop-color="#fff" stop-opacity="0"/></linearGradient><linearGradient id="i" x1="227.653" x2="253.808" y1="134.034" y2="143.039" gradientUnits="userSpaceOnUse"><stop stop-color="#fff"/><stop offset="1" stop-color="#fff" stop-opacity="0"/></linearGradient></defs></svg>