<svg width="1385" height="401" viewBox="0 0 1385 401" fill="none" xmlns="http://www.w3.org/2000/svg">
<g filter="url(#filter0_bd_29_6516)">
<rect x="656" y="161.996" width="562" height="94.0781" rx="8" fill="url(#paint0_linear_29_6516)" fill-opacity="0.5" shape-rendering="crispEdges"/>
<g filter="url(#filter1_b_29_6516)">
<rect x="672" y="177.996" width="530" height="7.07812" rx="3.53906" fill="url(#paint1_linear_29_6516)"/>
</g>
<g filter="url(#filter2_b_29_6516)">
<rect x="672" y="177.996" width="67.1094" height="7.07812" rx="3.53906" fill="url(#paint2_linear_29_6516)"/>
</g>
<circle cx="692.363" cy="220.074" r="17.3633" stroke="#281A38" stroke-width="5"/>
<path d="M709.727 220.074C709.727 210.485 701.953 202.711 692.363 202.711C682.774 202.711 675 210.485 675 220.074C675 229.664 682.774 237.438 692.363 237.438" stroke="url(#paint3_linear_29_6516)" stroke-width="5" stroke-linecap="round"/>
<path d="M729.759 214.254C731.484 214.254 732.814 213.176 732.814 211.175V205.581H731.64V211.139C731.64 212.433 730.957 213.164 729.759 213.164C728.573 213.164 727.866 212.433 727.866 211.139V205.581H726.704V211.175C726.704 213.176 728.034 214.254 729.759 214.254ZM735.785 216.35V213.296C736.097 213.811 736.768 214.23 737.654 214.23C739.343 214.23 740.338 212.9 740.338 211.187C740.338 209.51 739.415 208.18 737.69 208.18C736.756 208.18 736.073 208.635 735.761 209.21V208.312H734.671V216.35H735.785ZM739.188 211.187C739.188 212.373 738.529 213.224 737.486 213.224C736.456 213.224 735.773 212.373 735.773 211.187C735.773 210.037 736.456 209.175 737.486 209.175C738.541 209.175 739.188 210.037 739.188 211.187ZM742.899 214.074V205.401H741.772V214.074H742.899ZM747.282 213.248C746.324 213.248 745.485 212.529 745.485 211.187C745.485 209.857 746.324 209.139 747.282 209.139C748.24 209.139 749.079 209.857 749.079 211.187C749.079 212.529 748.24 213.248 747.282 213.248ZM747.282 208.132C745.557 208.132 744.335 209.438 744.335 211.187C744.335 212.948 745.557 214.254 747.282 214.254C749.007 214.254 750.229 212.948 750.229 211.187C750.229 209.438 749.007 208.132 747.282 208.132ZM751.31 212.529C751.31 213.439 752.065 214.254 753.239 214.254C754.269 214.254 754.844 213.703 755.096 213.296C755.096 213.715 755.132 213.93 755.156 214.074H756.258C756.234 213.93 756.186 213.631 756.186 213.128V210.241C756.186 209.115 755.515 208.132 753.79 208.132C752.544 208.132 751.55 208.899 751.43 210.001L752.508 210.253C752.58 209.582 753.023 209.091 753.814 209.091C754.689 209.091 755.06 209.558 755.06 210.121C755.06 210.325 754.964 210.504 754.617 210.552L753.059 210.78C752.065 210.924 751.31 211.499 751.31 212.529ZM753.395 213.308C752.82 213.308 752.46 212.9 752.46 212.469C752.46 211.954 752.82 211.678 753.299 211.606L755.06 211.343V211.606C755.06 212.864 754.317 213.308 753.395 213.308ZM758.611 211.175C758.611 209.989 759.282 209.151 760.312 209.151C761.342 209.151 761.965 209.965 761.965 211.151C761.965 212.337 761.331 213.236 760.3 213.236C759.222 213.236 758.611 212.361 758.611 211.175ZM761.977 213.296C761.977 213.643 762.013 213.942 762.037 214.074H763.127C763.115 213.978 763.068 213.559 763.068 213.008V205.401H761.953V209.127C761.762 208.659 761.211 208.156 760.192 208.156C758.563 208.156 757.461 209.546 757.461 211.175C757.461 212.888 758.503 214.23 760.192 214.23C761.091 214.23 761.702 213.751 761.977 213.2V213.296ZM766.097 214.074V208.312H764.983V214.074H766.097ZM764.731 206.132C764.731 206.575 765.091 206.934 765.534 206.934C765.989 206.934 766.349 206.575 766.349 206.132C766.349 205.676 765.989 205.317 765.534 205.317C765.091 205.317 764.731 205.676 764.731 206.132ZM769.139 210.744C769.139 209.869 769.594 209.163 770.481 209.163C771.487 209.163 771.823 209.809 771.823 210.612V214.074H772.949V210.42C772.949 209.139 772.266 208.144 770.888 208.144C770.217 208.144 769.534 208.42 769.115 209.139V208.312H768.013V214.074H769.139V210.744ZM774.321 214.386C774.464 215.62 775.543 216.53 776.98 216.53C779.148 216.53 779.867 215.104 779.867 213.643V208.312H778.753V209.115C778.466 208.54 777.867 208.204 776.98 208.204C775.399 208.204 774.333 209.45 774.333 211.007C774.333 212.637 775.447 213.799 776.98 213.799C777.843 213.799 778.466 213.379 778.741 212.852V213.679C778.741 214.925 778.19 215.548 776.98 215.548C776.106 215.548 775.495 214.937 775.411 214.134L774.321 214.386ZM777.148 212.852C776.13 212.852 775.483 212.134 775.483 211.007C775.483 209.893 776.153 209.163 777.148 209.163C778.118 209.163 778.789 209.893 778.789 211.007C778.789 212.122 778.118 212.852 777.148 212.852Z" fill="#ECE3FF" fill-opacity="0.9"/>
<path d="M789.182 211.966C789.289 213.188 790.404 214.266 792.057 214.266C793.782 214.266 794.908 213.08 794.908 211.618C794.908 210.013 793.794 209.043 792.272 209.043C791.661 209.043 791.038 209.234 790.691 209.618L791.266 207.39H794.584V206.311H790.487L789.481 210.169C789.876 210.313 790.224 210.468 790.631 210.624C790.967 210.277 791.494 210.061 792.045 210.061C792.943 210.061 793.722 210.6 793.722 211.666C793.722 212.625 792.979 213.236 792.057 213.236C791.086 213.236 790.38 212.589 790.308 211.63L789.182 211.966ZM796.862 208.108C796.862 207.569 797.269 207.174 797.784 207.174C798.311 207.174 798.706 207.569 798.706 208.108C798.706 208.659 798.311 209.055 797.784 209.055C797.269 209.055 796.862 208.659 796.862 208.108ZM795.867 208.108C795.867 209.175 796.754 210.001 797.784 210.001C798.814 210.001 799.713 209.175 799.713 208.108C799.713 207.054 798.814 206.228 797.784 206.228C796.754 206.228 795.867 207.054 795.867 208.108ZM801.606 212.277C801.606 211.738 802.013 211.343 802.528 211.343C803.055 211.343 803.45 211.738 803.45 212.277C803.45 212.828 803.055 213.224 802.528 213.224C802.013 213.224 801.606 212.828 801.606 212.277ZM800.611 212.277C800.611 213.343 801.498 214.17 802.528 214.17C803.558 214.17 804.457 213.343 804.457 212.277C804.457 211.223 803.558 210.396 802.528 210.396C801.498 210.396 800.611 211.223 800.611 212.277ZM797.928 214.074L803.486 206.311H802.408L796.826 214.074H797.928Z" fill="#C6B3FF" fill-opacity="0.4"/>
<path d="M726.568 232.325H730.378V234.074H731.516V232.325H732.845V231.235H731.516V226.311H729.898L726.568 230.971V232.325ZM730.378 231.235H727.646L730.378 227.437V231.235ZM736.382 229.618C735.555 229.606 734.944 229.103 734.944 228.348C734.944 227.653 735.507 227.102 736.382 227.102C737.256 227.102 737.82 227.653 737.82 228.348C737.82 229.103 737.209 229.606 736.382 229.618ZM736.382 233.236C735.34 233.236 734.753 232.661 734.753 231.93C734.753 231.187 735.352 230.6 736.382 230.6C737.412 230.6 738.011 231.187 738.011 231.93C738.011 232.661 737.424 233.236 736.382 233.236ZM736.382 234.254C738.167 234.254 739.197 233.272 739.197 232.026C739.197 231.079 738.55 230.373 737.724 230.109C738.442 229.845 738.994 229.127 738.994 228.288C738.994 227.018 737.867 226.132 736.382 226.132C734.896 226.132 733.77 227.018 733.77 228.288C733.77 229.151 734.333 229.845 735.04 230.109C734.214 230.384 733.567 231.079 733.567 232.026C733.567 233.272 734.597 234.254 736.382 234.254ZM749.986 234.074V225.581H748.416L745.398 232.493L742.403 225.581H740.809V234.074H741.971V227.461L744.846 234.074H745.925L748.824 227.461V234.074H749.986ZM752.146 225.581V234.074H755.116C756.674 234.074 757.74 233.104 757.74 231.762C757.74 230.816 757.177 229.953 756.207 229.714C756.949 229.438 757.476 228.791 757.476 227.881C757.476 226.539 756.53 225.581 754.913 225.581H752.146ZM753.32 229.294V226.611H754.733C755.703 226.611 756.29 227.138 756.29 227.941C756.29 228.731 755.727 229.294 754.781 229.294H753.32ZM753.32 233.044V230.301H754.997C756.027 230.301 756.542 230.876 756.542 231.69C756.542 232.517 755.895 233.044 754.949 233.044H753.32ZM764.695 233.248C763.737 233.248 762.898 232.529 762.898 231.187C762.898 229.857 763.737 229.139 764.695 229.139C765.653 229.139 766.492 229.857 766.492 231.187C766.492 232.529 765.653 233.248 764.695 233.248ZM764.695 228.132C762.97 228.132 761.748 229.438 761.748 231.187C761.748 232.948 762.97 234.254 764.695 234.254C766.42 234.254 767.642 232.948 767.642 231.187C767.642 229.438 766.42 228.132 764.695 228.132ZM771.982 229.33V228.312H770.592V227.402C770.592 226.611 771.107 226.419 771.503 226.419C771.79 226.419 771.934 226.467 771.994 226.491V225.485C771.946 225.449 771.706 225.365 771.323 225.365C770.281 225.365 769.43 226.06 769.43 227.342V228.312H768.364V229.33H769.43V234.074H770.592V229.33H771.982ZM778.556 234.074V226.311H777.526C777.346 227.15 776.603 227.749 775.525 227.773V228.6H777.406V234.074H778.556ZM781.268 230.193C781.268 229.007 781.484 228.168 781.951 227.677C782.251 227.366 782.634 227.174 783.185 227.174C783.736 227.174 784.12 227.366 784.419 227.677C784.886 228.168 785.102 229.007 785.102 230.193C785.102 231.379 784.886 232.217 784.419 232.709C784.12 233.02 783.736 233.212 783.185 233.212C782.634 233.212 782.251 233.02 781.951 232.709C781.484 232.217 781.268 231.379 781.268 230.193ZM780.106 230.193C780.106 231.259 780.286 232.241 780.801 233.008C781.304 233.763 782.083 234.254 783.185 234.254C784.287 234.254 785.066 233.763 785.569 233.008C786.084 232.241 786.264 231.259 786.264 230.193C786.264 229.127 786.084 228.144 785.569 227.378C785.066 226.623 784.287 226.132 783.185 226.132C782.083 226.132 781.304 226.623 780.801 227.378C780.286 228.144 780.106 229.127 780.106 230.193ZM788.568 230.193C788.568 229.007 788.784 228.168 789.251 227.677C789.551 227.366 789.934 227.174 790.485 227.174C791.036 227.174 791.42 227.366 791.719 227.677C792.186 228.168 792.402 229.007 792.402 230.193C792.402 231.379 792.186 232.217 791.719 232.709C791.42 233.02 791.036 233.212 790.485 233.212C789.934 233.212 789.551 233.02 789.251 232.709C788.784 232.217 788.568 231.379 788.568 230.193ZM787.406 230.193C787.406 231.259 787.586 232.241 788.101 233.008C788.604 233.763 789.383 234.254 790.485 234.254C791.587 234.254 792.366 233.763 792.869 233.008C793.384 232.241 793.564 231.259 793.564 230.193C793.564 229.127 793.384 228.144 792.869 227.378C792.366 226.623 791.587 226.132 790.485 226.132C789.383 226.132 788.604 226.623 788.101 227.378C787.586 228.144 787.406 229.127 787.406 230.193ZM795.869 230.193C795.869 229.007 796.084 228.168 796.551 227.677C796.851 227.366 797.234 227.174 797.785 227.174C798.336 227.174 798.72 227.366 799.019 227.677C799.486 228.168 799.702 229.007 799.702 230.193C799.702 231.379 799.486 232.217 799.019 232.709C798.72 233.02 798.336 233.212 797.785 233.212C797.234 233.212 796.851 233.02 796.551 232.709C796.084 232.217 795.869 231.379 795.869 230.193ZM794.707 230.193C794.707 231.259 794.886 232.241 795.401 233.008C795.904 233.763 796.683 234.254 797.785 234.254C798.887 234.254 799.666 233.763 800.169 233.008C800.684 232.241 800.864 231.259 800.864 230.193C800.864 229.127 800.684 228.144 800.169 227.378C799.666 226.623 798.887 226.132 797.785 226.132C796.683 226.132 795.904 226.623 795.401 227.378C794.886 228.144 794.707 229.127 794.707 230.193ZM811.721 234.074V225.581H810.151L807.133 232.493L804.138 225.581H802.544V234.074H803.706V227.461L806.581 234.074H807.66L810.559 227.461V234.074H811.721ZM813.881 225.581V234.074H816.851C818.409 234.074 819.475 233.104 819.475 231.762C819.475 230.816 818.912 229.953 817.942 229.714C818.684 229.438 819.211 228.791 819.211 227.881C819.211 226.539 818.265 225.581 816.648 225.581H813.881ZM815.055 229.294V226.611H816.468C817.438 226.611 818.025 227.138 818.025 227.941C818.025 228.731 817.462 229.294 816.516 229.294H815.055ZM815.055 233.044V230.301H816.732C817.762 230.301 818.277 230.876 818.277 231.69C818.277 232.517 817.63 233.044 816.684 233.044H815.055ZM828.994 228.252C828.287 228.252 827.712 228.827 827.712 229.522C827.712 230.229 828.287 230.804 828.994 230.804C829.688 230.804 830.263 230.229 830.263 229.522C830.263 228.827 829.688 228.252 828.994 228.252ZM841.309 234.074V226.311H840.278C840.099 227.15 839.356 227.749 838.278 227.773V228.6H840.159V234.074H841.309ZM843.949 229.103C843.937 228.983 843.925 228.863 843.925 228.755C843.925 227.869 844.405 227.162 845.423 227.162C846.405 227.162 846.884 227.821 846.884 228.528C846.884 229.127 846.549 229.678 845.818 230.145L844.524 230.983C843.207 231.834 842.703 232.804 842.679 234.074H848.118V232.984H844.129C844.237 232.505 844.632 232.181 845.075 231.894L846.609 230.912C847.495 230.349 848.07 229.534 848.07 228.516C848.07 227.222 847.112 226.132 845.447 226.132C843.746 226.132 842.763 227.318 842.763 228.647C842.763 228.743 842.763 228.851 842.775 228.959L843.949 229.103ZM850.673 234.074V230.6C850.673 229.738 851.213 229.139 852.015 229.139C852.878 229.139 853.237 229.714 853.237 230.456V234.074H854.363V230.588C854.363 229.762 854.902 229.139 855.693 229.139C856.543 229.139 856.915 229.702 856.915 230.456V234.074H858.029V230.337C858.029 228.827 857.047 228.144 856.04 228.144C855.31 228.144 854.567 228.408 854.112 229.234C853.8 228.492 853.105 228.144 852.387 228.144C851.716 228.144 850.997 228.444 850.637 229.079V228.312H849.559V234.074H850.673ZM862.287 231.966C862.395 233.188 863.509 234.266 865.162 234.266C866.887 234.266 868.013 233.08 868.013 231.618C868.013 230.013 866.899 229.043 865.378 229.043C864.767 229.043 864.144 229.234 863.796 229.618L864.371 227.39H867.69V226.311H863.593L862.586 230.169C862.982 230.313 863.329 230.468 863.736 230.624C864.072 230.277 864.599 230.061 865.15 230.061C866.048 230.061 866.827 230.6 866.827 231.666C866.827 232.625 866.084 233.236 865.162 233.236C864.192 233.236 863.485 232.589 863.413 231.63L862.287 231.966ZM868.85 231.966C868.958 233.188 870.072 234.266 871.725 234.266C873.45 234.266 874.576 233.08 874.576 231.618C874.576 230.013 873.462 229.043 871.941 229.043C871.33 229.043 870.707 229.234 870.359 229.618L870.934 227.39H874.253V226.311H870.156L869.149 230.169C869.545 230.313 869.892 230.468 870.299 230.624C870.635 230.277 871.162 230.061 871.713 230.061C872.611 230.061 873.39 230.6 873.39 231.666C873.39 232.625 872.647 233.236 871.725 233.236C870.755 233.236 870.048 232.589 869.976 231.63L868.85 231.966ZM875.413 232.577C875.509 233.236 876.18 234.254 877.761 234.254C879.187 234.254 879.869 233.284 879.869 232.469C879.869 231.618 879.318 230.983 878.276 230.756L877.342 230.552C876.898 230.456 876.683 230.205 876.683 229.857C876.683 229.462 877.066 229.091 877.641 229.091C878.552 229.091 878.791 229.75 878.839 230.049L879.833 229.678C879.714 229.163 879.222 228.132 877.641 228.132C876.515 228.132 875.593 228.971 875.593 229.953C875.593 230.768 876.132 231.379 877.03 231.57L878.012 231.786C878.492 231.894 878.755 232.169 878.755 232.529C878.755 232.936 878.408 233.296 877.773 233.296C876.958 233.296 876.503 232.816 876.431 232.217L875.413 232.577ZM885.49 234.074V225.401H884.363V234.074H885.49ZM888.136 230.6C888.184 229.857 888.759 229.127 889.705 229.127C890.724 229.127 891.263 229.774 891.287 230.6H888.136ZM891.454 232.098C891.239 232.744 890.771 233.26 889.837 233.26C888.867 233.26 888.124 232.541 888.1 231.511H892.437C892.449 231.439 892.461 231.295 892.461 231.151C892.461 229.354 891.466 228.132 889.693 228.132C888.244 228.132 886.938 229.366 886.938 231.175C886.938 233.128 888.292 234.254 889.837 234.254C891.179 234.254 892.101 233.451 892.425 232.433L891.454 232.098ZM896.797 229.33V228.312H895.408V227.402C895.408 226.611 895.923 226.419 896.318 226.419C896.605 226.419 896.749 226.467 896.809 226.491V225.485C896.761 225.449 896.522 225.365 896.138 225.365C895.096 225.365 894.245 226.06 894.245 227.342V228.312H893.179V229.33H894.245V234.074H895.408V229.33H896.797ZM899.514 226.491H898.484V227.426C898.484 227.929 898.22 228.312 897.597 228.312H897.286V229.33H898.388V232.493C898.388 233.535 899.011 234.134 899.993 234.134C900.376 234.134 900.664 234.062 900.76 234.026V233.068C900.664 233.092 900.46 233.116 900.316 233.116C899.729 233.116 899.514 232.852 899.514 232.325V229.33H900.76V228.312H899.514V226.491Z" fill="#C6B3FF" fill-opacity="0.4"/>
<circle cx="1191.8" cy="220.074" r="10.1953" fill="url(#paint4_linear_29_6516)" fill-opacity="0.2"/>
<path fill-rule="evenodd" clip-rule="evenodd" d="M1190.85 220.086L1187.86 223.08L1188.81 224.03L1191.8 221.036L1194.8 224.032L1195.75 223.082L1192.75 220.086L1195.77 217.067L1194.82 216.117L1191.8 219.136L1188.79 216.118L1187.84 217.068L1190.85 220.086Z" fill="url(#paint5_linear_29_6516)"/>
<rect x="656.596" y="162.592" width="560.808" height="92.8861" rx="7.40399" stroke="url(#paint6_linear_29_6516)" stroke-width="1.19202" shape-rendering="crispEdges"/>
</g>
<circle cx="1166.04" cy="221.246" r="11.3086" fill="url(#paint7_linear_29_6516)" fill-opacity="0.5"/>
<circle cx="1166.05" cy="221.246" r="10.1953" fill="url(#paint8_linear_29_6516)" fill-opacity="0.5"/>
<path fill-rule="evenodd" clip-rule="evenodd" d="M1163.44 217.504V224.99H1164.78V217.504H1163.44ZM1167.3 217.504V224.99H1168.65V217.504H1167.3Z" fill="url(#paint9_linear_29_6516)"/>
<defs>
<filter id="filter0_bd_29_6516" x="644" y="152.46" width="586" height="119.614" filterUnits="userSpaceOnUse" color-interpolation-filters="sRGB">
<feFlood flood-opacity="0" result="BackgroundImageFix"/>
<feGaussianBlur in="BackgroundImageFix" stdDeviation="4.76807"/>
<feComposite in2="SourceAlpha" operator="in" result="effect1_backgroundBlur_29_6516"/>
<feColorMatrix in="SourceAlpha" type="matrix" values="0 0 0 0 0 0 0 0 0 0 0 0 0 0 0 0 0 0 127 0" result="hardAlpha"/>
<feOffset dy="4"/>
<feGaussianBlur stdDeviation="6"/>
<feComposite in2="hardAlpha" operator="out"/>
<feColorMatrix type="matrix" values="0 0 0 0 0.0921438 0 0 0 0 0.0311458 0 0 0 0 0.191667 0 0 0 0.47 0"/>
<feBlend mode="normal" in2="effect1_backgroundBlur_29_6516" result="effect2_dropShadow_29_6516"/>
<feBlend mode="normal" in="SourceGraphic" in2="effect2_dropShadow_29_6516" result="shape"/>
</filter>
<filter id="filter1_b_29_6516" x="659.065" y="165.062" width="555.869" height="32.9472" filterUnits="userSpaceOnUse" color-interpolation-filters="sRGB">
<feFlood flood-opacity="0" result="BackgroundImageFix"/>
<feGaussianBlur in="BackgroundImageFix" stdDeviation="6.46728"/>
<feComposite in2="SourceAlpha" operator="in" result="effect1_backgroundBlur_29_6516"/>
<feBlend mode="normal" in="SourceGraphic" in2="effect1_backgroundBlur_29_6516" result="shape"/>
</filter>
<filter id="filter2_b_29_6516" x="659.065" y="165.062" width="92.9785" height="32.9472" filterUnits="userSpaceOnUse" color-interpolation-filters="sRGB">
<feFlood flood-opacity="0" result="BackgroundImageFix"/>
<feGaussianBlur in="BackgroundImageFix" stdDeviation="6.46728"/>
<feComposite in2="SourceAlpha" operator="in" result="effect1_backgroundBlur_29_6516"/>
<feBlend mode="normal" in="SourceGraphic" in2="effect1_backgroundBlur_29_6516" result="shape"/>
</filter>
<linearGradient id="paint0_linear_29_6516" x1="943.943" y1="70.9165" x2="1072.3" y2="284.142" gradientUnits="userSpaceOnUse">
<stop stop-color="#BB93C5" stop-opacity="0"/>
<stop offset="0.197872" stop-color="#BB93C5" stop-opacity="0.19"/>
<stop offset="1" stop-color="#302642"/>
</linearGradient>
<linearGradient id="paint1_linear_29_6516" x1="755.547" y1="185.074" x2="1269.88" y2="185.074" gradientUnits="userSpaceOnUse">
<stop stop-color="#D478FF" stop-opacity="0.05"/>
<stop offset="1" stop-color="#D782FF" stop-opacity="0.74"/>
</linearGradient>
<linearGradient id="paint2_linear_29_6516" x1="682.579" y1="185.074" x2="747.705" y2="185.074" gradientUnits="userSpaceOnUse">
<stop stop-color="#D478FF" stop-opacity="0.05"/>
<stop offset="1" stop-color="#D782FF" stop-opacity="0.74"/>
</linearGradient>
<linearGradient id="paint3_linear_29_6516" x1="705.551" y1="202.711" x2="690.929" y2="234.897" gradientUnits="userSpaceOnUse">
<stop stop-color="#D696FF"/>
<stop offset="1" stop-color="#C770FF" stop-opacity="0"/>
</linearGradient>
<linearGradient id="paint4_linear_29_6516" x1="1207.9" y1="198.223" x2="1193.57" y2="237.589" gradientUnits="userSpaceOnUse">
<stop stop-color="#FEDCFF"/>
<stop offset="1" stop-color="#FEDCFF" stop-opacity="0"/>
</linearGradient>
<linearGradient id="paint5_linear_29_6516" x1="1198.07" y1="211.592" x2="1192.52" y2="226.883" gradientUnits="userSpaceOnUse">
<stop stop-color="#FEDCFF"/>
<stop offset="1" stop-color="#FEDCFF" stop-opacity="0"/>
</linearGradient>
<linearGradient id="paint6_linear_29_6516" x1="1121.75" y1="256.074" x2="1181.48" y2="184.516" gradientUnits="userSpaceOnUse">
<stop stop-color="#D478FF" stop-opacity="0.05"/>
<stop offset="1" stop-color="#D782FF" stop-opacity="0.74"/>
</linearGradient>
<linearGradient id="paint7_linear_29_6516" x1="1183.9" y1="197.009" x2="1168.01" y2="240.674" gradientUnits="userSpaceOnUse">
<stop stop-color="#FEDCFF"/>
<stop offset="1" stop-color="#FEDCFF" stop-opacity="0"/>
</linearGradient>
<linearGradient id="paint8_linear_29_6516" x1="1182.14" y1="199.395" x2="1167.82" y2="238.761" gradientUnits="userSpaceOnUse">
<stop stop-color="#FEDCFF"/>
<stop offset="1" stop-color="#FEDCFF" stop-opacity="0"/>
</linearGradient>
<linearGradient id="paint9_linear_29_6516" x1="1166.95" y1="218.761" x2="1161.35" y2="229.668" gradientUnits="userSpaceOnUse">
<stop stop-color="#FEDCFF"/>
<stop offset="1" stop-color="#FEDCFF" stop-opacity="0"/>
</linearGradient>
</defs>
</svg>
