<?xml version="1.0" encoding="UTF-8"?>
<svg width="23px" height="21px" viewBox="0 0 23 21" version="1.1" xmlns="http://www.w3.org/2000/svg" xmlns:xlink="http://www.w3.org/1999/xlink">
    <!-- Generator: Sketch 59.1 (86144) - https://sketch.com -->
    <title>Group 6</title>
    <desc>Created with Sketch.</desc>
    <g id="Page-1" stroke="none" stroke-width="1" fill="none" fill-rule="evenodd">
        <g id="Group-6">
            <path d="M0,2 C4.08145016,2.66666667 7.74811683,3 11,3 C14.2518832,3 17.9185498,2.66666667 22,2 L19.1660126,18.0592619 C19.055643,18.6846956 18.6547827,19.2205336 18.0859564,19.5029965 C16.07617,20.5009988 13.7141845,21 11,21 C8.28582036,21 5.92383852,20.5010006 3.9140545,19.5030018 C3.34522199,19.2205451 2.94435968,18.6847049 2.83398858,18.0592686 L0,2 L0,2 Z" id="Rectangle" fill="#888888"></path>
            <ellipse id="Oval" fill="#727272" cx="11" cy="2" rx="11" ry="2"></ellipse>
            <circle id="Oval" fill="#727272" cx="11" cy="7.5" r="1.5"></circle>
            <path d="M11.5,8 C16.1151574,10.3589239 19.1151574,11.6922572 20.5,12 C21.8848426,12.3077428 21.8848426,11.6532252 20.5,10.0364473" id="Line" stroke="#727272" stroke-linecap="square"></path>
            <rect id="Rectangle" fill="#888888" transform="translate(19.706608, 9.250860) rotate(10.000000) translate(-19.706608, -9.250860) " x="18.7066082" y="7.75085981" width="2" height="3"></rect>
        </g>
    </g>
</svg>