<svg width="160" height="97" viewBox="0 0 160 97" fill="none" xmlns="http://www.w3.org/2000/svg">

<path d="M-1084 -1319H2006V-1321H-1084V-1319ZM2007 -1318V1499H2009V-1318H2007ZM2006 1500H-1084V1502H2006V1500ZM-1085 1499V-1318H-1087V1499H-1085ZM-1084 1500C-1084.55 1500 -1085 1499.55 -1085 1499H-1087C-1087 1500.66 -1085.66 1502 -1084 1502V1500ZM2007 1499C2007 1499.55 2006.55 1500 2006 1500V1502C2007.66 1502 2009 1500.66 2009 1499H2007ZM2006 -1319C2006.55 -1319 2007 -1318.55 2007 -1318H2009C2009 -1319.66 2007.66 -1321 2006 -1321V-1319ZM-1084 -1321C-1085.66 -1321 -1087 -1319.66 -1087 -1318H-1085C-1085 -1318.55 -1084.55 -1319 -1084 -1319V-1321Z" fill="white" fill-opacity="0.1"/>
<g clip-path="url(#clip0_105_14273)">
<g clip-path="url(#clip1_105_14273)">
<rect x="144.977" y="12.9302" width="33" height="188.5" rx="16.5" transform="rotate(90 144.977 12.9302)" fill="#161616" stroke="#EDEDED"/>
<path d="M-92.3689 30.0342V33.4302H-93.4969V24.7422H-92.3689V28.3302C-91.9489 27.7182 -91.2769 27.4902 -90.6169 27.4902C-89.2369 27.4902 -88.5529 28.4862 -88.5529 29.7702V33.4302H-89.6809V29.9622C-89.6809 29.1582 -90.0169 28.5102 -91.0249 28.5102C-91.8889 28.5102 -92.3449 29.1822 -92.3689 30.0342ZM-85.2466 25.8342V27.6582H-83.9986V28.6782H-85.2466V31.6782C-85.2466 32.2062 -85.0306 32.4702 -84.4426 32.4702C-84.2986 32.4702 -84.0946 32.4462 -83.9986 32.4222V33.3822C-84.0946 33.4182 -84.3826 33.4902 -84.7666 33.4902C-85.7506 33.4902 -86.3746 32.8902 -86.3746 31.8462V28.6782H-87.4786V27.6582H-87.1666C-86.5426 27.6582 -86.2786 27.2742 -86.2786 26.7702V25.8342H-85.2466ZM-80.981 25.8342V27.6582H-79.733V28.6782H-80.981V31.6782C-80.981 32.2062 -80.765 32.4702 -80.177 32.4702C-80.033 32.4702 -79.829 32.4462 -79.733 32.4222V33.3822C-79.829 33.4182 -80.117 33.4902 -80.501 33.4902C-81.485 33.4902 -82.109 32.8902 -82.109 31.8462V28.6782H-83.213V27.6582H-82.901C-82.277 27.6582 -82.013 27.2742 -82.013 26.7702V25.8342H-80.981ZM-77.2286 35.7102H-78.3446V27.6582H-77.2526V28.5582C-76.9406 27.9822 -76.2566 27.5262 -75.3206 27.5262C-73.5926 27.5262 -72.6686 28.8582 -72.6686 30.5382C-72.6686 32.2542 -73.6646 33.5862 -75.3566 33.5862C-76.2446 33.5862 -76.9166 33.1662 -77.2286 32.6502V35.7102ZM-73.8206 30.5382C-73.8206 29.3862 -74.4686 28.5222 -75.5246 28.5222C-76.5566 28.5222 -77.2406 29.3862 -77.2406 30.5382C-77.2406 31.7262 -76.5566 32.5782 -75.5246 32.5782C-74.4806 32.5782 -73.8206 31.7262 -73.8206 30.5382ZM-71.7713 31.9302L-70.7513 31.5702C-70.6793 32.1702 -70.2233 32.6502 -69.4073 32.6502C-68.7713 32.6502 -68.4233 32.2902 -68.4233 31.8822C-68.4233 31.5222 -68.6873 31.2462 -69.1673 31.1382L-70.1513 30.9222C-71.0513 30.7302 -71.5913 30.1182 -71.5913 29.3022C-71.5913 28.3182 -70.6673 27.4782 -69.5393 27.4782C-67.9553 27.4782 -67.4633 28.5102 -67.3433 29.0262L-68.3393 29.3982C-68.3873 29.0982 -68.6273 28.4382 -69.5393 28.4382C-70.1153 28.4382 -70.4993 28.8102 -70.4993 29.2062C-70.4993 29.5542 -70.2833 29.8062 -69.8393 29.9022L-68.9033 30.1062C-67.8593 30.3342 -67.3073 30.9702 -67.3073 31.8222C-67.3073 32.6382 -67.9913 33.6102 -69.4193 33.6102C-71.0033 33.6102 -71.6753 32.5902 -71.7713 31.9302ZM-65.8535 32.6622C-65.8535 32.1942 -65.4935 31.8222 -65.0255 31.8222C-64.5575 31.8222 -64.1855 32.1942 -64.1855 32.6622C-64.1855 33.1302 -64.5575 33.4902 -65.0255 33.4902C-65.4935 33.4902 -65.8535 33.1302 -65.8535 32.6622ZM-65.8655 28.4382C-65.8655 27.9702 -65.5055 27.5982 -65.0375 27.5982C-64.5695 27.5982 -64.1975 27.9702 -64.1975 28.4382C-64.1975 28.9062 -64.5695 29.2662 -65.0375 29.2662C-65.5055 29.2662 -65.8655 28.9062 -65.8655 28.4382ZM-58.077 24.9222L-62.193 33.4302H-63.285L-59.169 24.9222H-58.077ZM-54.5497 24.9222L-58.6657 33.4302H-59.7577L-55.6417 24.9222H-54.5497ZM-55.0955 31.9302L-54.0755 31.5702C-54.0035 32.1702 -53.5475 32.6502 -52.7315 32.6502C-52.0955 32.6502 -51.7475 32.2902 -51.7475 31.8822C-51.7475 31.5222 -52.0115 31.2462 -52.4915 31.1382L-53.4755 30.9222C-54.3755 30.7302 -54.9155 30.1182 -54.9155 29.3022C-54.9155 28.3182 -53.9915 27.4782 -52.8635 27.4782C-51.2795 27.4782 -50.7875 28.5102 -50.6675 29.0262L-51.6635 29.3982C-51.7115 29.0982 -51.9515 28.4382 -52.8635 28.4382C-53.4395 28.4382 -53.8235 28.8102 -53.8235 29.2062C-53.8235 29.5542 -53.6075 29.8062 -53.1635 29.9022L-52.2275 30.1062C-51.1835 30.3342 -50.6315 30.9702 -50.6315 31.8222C-50.6315 32.6382 -51.3155 33.6102 -52.7435 33.6102C-54.3275 33.6102 -54.9995 32.5902 -55.0955 31.9302ZM-44.0163 35.7102H-45.1323V32.6142C-45.4323 33.2022 -46.0803 33.5862 -46.9323 33.5862C-48.5883 33.5862 -49.6683 32.2062 -49.6683 30.5262C-49.6683 28.8942 -48.6483 27.5142 -46.9563 27.5142C-45.9603 27.5142 -45.3483 28.0302 -45.1083 28.5462V27.6582H-44.0163V35.7102ZM-48.5163 30.5262C-48.5163 31.7142 -47.8563 32.5902 -46.8243 32.5902C-45.8043 32.5902 -45.1203 31.7142 -45.1203 30.5262C-45.1203 29.3382 -45.8043 28.5102 -46.8243 28.5102C-47.8683 28.5102 -48.5163 29.3382 -48.5163 30.5262ZM-37.2717 27.6582L-39.5757 33.4302H-40.7157L-43.0557 27.6582H-41.7837L-40.1397 32.1102L-38.4837 27.6582H-37.2717ZM-33.1124 28.6782H-34.5044V33.4302H-35.6684V28.6782H-36.7364V27.6582H-35.6684V26.6862C-35.6684 25.4022 -34.8164 24.7062 -33.7724 24.7062C-33.3884 24.7062 -33.1484 24.7902 -33.1004 24.8262V25.8342C-33.1604 25.8102 -33.3044 25.7622 -33.5924 25.7622C-33.9884 25.7622 -34.5044 25.9542 -34.5044 26.7462V27.6582H-33.1124V28.6782ZM-31.4655 30.5262C-31.4655 31.7142 -30.8535 32.5902 -29.7735 32.5902C-28.7415 32.5902 -28.1055 31.6902 -28.1055 30.5022C-28.1055 29.3142 -28.7295 28.4982 -29.7615 28.4982C-30.7935 28.4982 -31.4655 29.3382 -31.4655 30.5262ZM-28.0935 32.6502V32.5542C-28.3695 33.1062 -28.9815 33.5862 -29.8815 33.5862C-31.5735 33.5862 -32.6175 32.2422 -32.6175 30.5262C-32.6175 28.8942 -31.5135 27.5022 -29.8815 27.5022C-28.8615 27.5022 -28.3095 28.0062 -28.1175 28.4742V24.7422H-27.0015V32.3622C-27.0015 32.9142 -26.9535 33.3342 -26.9415 33.4302H-28.0335C-28.0575 33.2982 -28.0935 32.9982 -28.0935 32.6502ZM-21.3374 32.7342C-21.6494 33.3342 -22.3694 33.6102 -23.0414 33.6102C-24.3854 33.6102 -25.2014 32.6022 -25.2014 31.2942V27.6582H-24.0734V31.1262C-24.0734 31.9182 -23.7134 32.6142 -22.7654 32.6142C-21.8534 32.6142 -21.3974 32.0142 -21.3974 31.1382V27.6582H-20.2694V32.3622C-20.2694 32.8182 -20.2334 33.2262 -20.2094 33.4302H-21.2894C-21.3134 33.2982 -21.3374 32.9742 -21.3374 32.7342ZM-17.2286 33.4302H-18.3446V27.6582H-17.2286V33.4302ZM-18.5966 25.4742C-18.5966 25.0182 -18.2366 24.6582 -17.7926 24.6582C-17.3366 24.6582 -16.9766 25.0182 -16.9766 25.4742C-16.9766 25.9182 -17.3366 26.2782 -17.7926 26.2782C-18.2366 26.2782 -18.5966 25.9182 -18.5966 25.4742ZM-15.6694 31.8822C-15.6694 30.8502 -14.9134 30.2742 -13.9174 30.1302L-12.3574 29.9022C-12.0094 29.8542 -11.9134 29.6742 -11.9134 29.4702C-11.9134 28.9062 -12.2854 28.4382 -13.1614 28.4382C-13.9534 28.4382 -14.3974 28.9302 -14.4694 29.6022L-15.5494 29.3502C-15.4294 28.2462 -14.4334 27.4782 -13.1854 27.4782C-11.4574 27.4782 -10.7854 28.4622 -10.7854 29.5902V32.4822C-10.7854 32.9862 -10.7374 33.2862 -10.7134 33.4302H-11.8174C-11.8414 33.2862 -11.8774 33.0702 -11.8774 32.6502C-12.1294 33.0582 -12.7054 33.6102 -13.7374 33.6102C-14.9134 33.6102 -15.6694 32.7942 -15.6694 31.8822ZM-13.5814 32.6622C-12.6574 32.6622 -11.9134 32.2182 -11.9134 30.9582V30.6942L-13.6774 30.9582C-14.1574 31.0302 -14.5174 31.3062 -14.5174 31.8222C-14.5174 32.2542 -14.1574 32.6622 -13.5814 32.6622ZM-5.77617 27.6582H-4.61217L-3.11217 32.0022L-1.84017 27.6582H-0.652166L-2.52417 33.4302H-3.68817L-5.22417 29.0382L-6.72417 33.4302H-7.91217L-9.80817 27.6582H-8.57217L-7.27617 32.0022L-5.77617 27.6582ZM1.04227 30.5262C1.04227 31.7142 1.65427 32.5902 2.73427 32.5902C3.76627 32.5902 4.40227 31.6902 4.40227 30.5022C4.40227 29.3142 3.77827 28.4982 2.74627 28.4982C1.71427 28.4982 1.04227 29.3382 1.04227 30.5262ZM4.41427 32.6502V32.5542C4.13827 33.1062 3.52627 33.5862 2.62627 33.5862C0.934271 33.5862 -0.109729 32.2422 -0.109729 30.5262C-0.109729 28.8942 0.994271 27.5022 2.62627 27.5022C3.64627 27.5022 4.19827 28.0062 4.39027 28.4742V24.7422H5.50627V32.3622C5.50627 32.9142 5.55427 33.3342 5.56627 33.4302H4.47427C4.45027 33.2982 4.41427 32.9982 4.41427 32.6502ZM10.677 27.6582H11.841L13.341 32.0022L14.613 27.6582H15.801L13.929 33.4302H12.765L11.229 29.0382L9.72896 33.4302H8.54096L6.64496 27.6582H7.88096L9.17696 32.0022L10.677 27.6582ZM18.0686 30.0942V33.4302H16.9406V27.6582H18.0446V28.4862C18.4646 27.7662 19.1486 27.4902 19.8206 27.4902C21.2006 27.4902 21.8846 28.4862 21.8846 29.7702V33.4302H20.7566V29.9622C20.7566 29.1582 20.4206 28.5102 19.4126 28.5102C18.5246 28.5102 18.0686 29.2182 18.0686 30.0942ZM24.8069 30.0942V33.4302H23.6789V27.6582H24.7829V28.4862C25.2029 27.7662 25.8869 27.4902 26.5589 27.4902C27.9389 27.4902 28.6229 28.4862 28.6229 29.7702V33.4302H27.4949V29.9622C27.4949 29.1582 27.1589 28.5102 26.1509 28.5102C25.2629 28.5102 24.8069 29.2182 24.8069 30.0942ZM30.0571 31.8822C30.0571 30.8502 30.8131 30.2742 31.8091 30.1302L33.3691 29.9022C33.7171 29.8542 33.8131 29.6742 33.8131 29.4702C33.8131 28.9062 33.4411 28.4382 32.5651 28.4382C31.7731 28.4382 31.3291 28.9302 31.2571 29.6022L30.1771 29.3502C30.2971 28.2462 31.2931 27.4782 32.5411 27.4782C34.2691 27.4782 34.9411 28.4622 34.9411 29.5902V32.4822C34.9411 32.9862 34.9891 33.2862 35.0131 33.4302H33.9091C33.8851 33.2862 33.8491 33.0702 33.8491 32.6502C33.5971 33.0582 33.0211 33.6102 31.9891 33.6102C30.8131 33.6102 30.0571 32.7942 30.0571 31.8822ZM32.1451 32.6622C33.0691 32.6622 33.8131 32.2182 33.8131 30.9582V30.6942L32.0491 30.9582C31.5691 31.0302 31.2091 31.3062 31.2091 31.8222C31.2091 32.2542 31.5691 32.6622 32.1451 32.6622ZM37.3704 30.5262C37.3704 31.7142 37.9824 32.5902 39.0624 32.5902C40.0944 32.5902 40.7304 31.6902 40.7304 30.5022C40.7304 29.3142 40.1064 28.4982 39.0744 28.4982C38.0424 28.4982 37.3704 29.3382 37.3704 30.5262ZM40.7424 32.6502V32.5542C40.4664 33.1062 39.8544 33.5862 38.9544 33.5862C37.2624 33.5862 36.2184 32.2422 36.2184 30.5262C36.2184 28.8942 37.3224 27.5022 38.9544 27.5022C39.9744 27.5022 40.5264 28.0062 40.7184 28.4742V24.7422H41.8344V32.3622C41.8344 32.9142 41.8824 33.3342 41.8944 33.4302H40.8024C40.7784 33.2982 40.7424 32.9982 40.7424 32.6502ZM43.3931 31.8822C43.3931 30.8502 44.1491 30.2742 45.1451 30.1302L46.7051 29.9022C47.0531 29.8542 47.1491 29.6742 47.1491 29.4702C47.1491 28.9062 46.7771 28.4382 45.9011 28.4382C45.1091 28.4382 44.6651 28.9302 44.5931 29.6022L43.5131 29.3502C43.6331 28.2462 44.6291 27.4782 45.8771 27.4782C47.6051 27.4782 48.2771 28.4622 48.2771 29.5902V32.4822C48.2771 32.9862 48.3251 33.2862 48.3491 33.4302H47.2451C47.2211 33.2862 47.1851 33.0702 47.1851 32.6502C46.9331 33.0582 46.3571 33.6102 45.3251 33.6102C44.1491 33.6102 43.3931 32.7942 43.3931 31.8822ZM45.4811 32.6622C46.4051 32.6622 47.1491 32.2182 47.1491 30.9582V30.6942L45.3851 30.9582C44.9051 31.0302 44.5451 31.3062 44.5451 31.8222C44.5451 32.2542 44.9051 32.6622 45.4811 32.6622ZM50.7063 30.5262C50.7063 31.7142 51.3183 32.5902 52.3983 32.5902C53.4303 32.5902 54.0663 31.6902 54.0663 30.5022C54.0663 29.3142 53.4423 28.4982 52.4103 28.4982C51.3783 28.4982 50.7063 29.3382 50.7063 30.5262ZM54.0783 32.6502V32.5542C53.8023 33.1062 53.1903 33.5862 52.2903 33.5862C50.5983 33.5862 49.5543 32.2422 49.5543 30.5262C49.5543 28.8942 50.6583 27.5022 52.2903 27.5022C53.3103 27.5022 53.8623 28.0062 54.0543 28.4742V24.7422H55.1703V32.3622C55.1703 32.9142 55.2183 33.3342 55.2303 33.4302H54.1383C54.1143 33.2982 54.0783 32.9982 54.0783 32.6502ZM56.969 32.6622C56.969 32.1942 57.329 31.8222 57.797 31.8222C58.265 31.8222 58.637 32.1942 58.637 32.6622C58.637 33.1302 58.265 33.4902 57.797 33.4902C57.329 33.4902 56.969 33.1302 56.969 32.6622ZM59.9006 31.9302L60.9206 31.5702C60.9926 32.1702 61.4486 32.6502 62.2646 32.6502C62.9006 32.6502 63.2486 32.2902 63.2486 31.8822C63.2486 31.5222 62.9846 31.2462 62.5046 31.1382L61.5206 30.9222C60.6206 30.7302 60.0806 30.1182 60.0806 29.3022C60.0806 28.3182 61.0046 27.4782 62.1326 27.4782C63.7166 27.4782 64.2086 28.5102 64.3286 29.0262L63.3326 29.3982C63.2846 29.0982 63.0446 28.4382 62.1326 28.4382C61.5566 28.4382 61.1726 28.8102 61.1726 29.2062C61.1726 29.5542 61.3886 29.8062 61.8326 29.9022L62.7686 30.1062C63.8126 30.3342 64.3646 30.9702 64.3646 31.8222C64.3646 32.6382 63.6806 33.6102 62.2526 33.6102C60.6686 33.6102 59.9966 32.5902 59.9006 31.9302ZM69.6118 32.7342C69.2998 33.3342 68.5798 33.6102 67.9078 33.6102C66.5638 33.6102 65.7478 32.6022 65.7478 31.2942V27.6582H66.8758V31.1262C66.8758 31.9182 67.2358 32.6142 68.1838 32.6142C69.0958 32.6142 69.5518 32.0142 69.5518 31.1382V27.6582H70.6798V32.3622C70.6798 32.8182 70.7158 33.2262 70.7398 33.4302H69.6598C69.6358 33.2982 69.6118 32.9742 69.6118 32.7342ZM73.7206 35.7102H72.6046V27.6582H73.6966V28.5582C74.0086 27.9822 74.6926 27.5262 75.6286 27.5262C77.3566 27.5262 78.2806 28.8582 78.2806 30.5382C78.2806 32.2542 77.2846 33.5862 75.5926 33.5862C74.7046 33.5862 74.0326 33.1662 73.7206 32.6502V35.7102ZM77.1286 30.5382C77.1286 29.3862 76.4806 28.5222 75.4246 28.5222C74.3926 28.5222 73.7086 29.3862 73.7086 30.5382C73.7086 31.7262 74.3926 32.5782 75.4246 32.5782C76.4686 32.5782 77.1286 31.7262 77.1286 30.5382ZM79.3579 31.8822C79.3579 30.8502 80.1139 30.2742 81.1099 30.1302L82.6699 29.9022C83.0179 29.8542 83.1139 29.6742 83.1139 29.4702C83.1139 28.9062 82.7419 28.4382 81.8659 28.4382C81.0739 28.4382 80.6299 28.9302 80.5579 29.6022L79.4779 29.3502C79.5979 28.2462 80.5939 27.4782 81.8419 27.4782C83.5699 27.4782 84.2419 28.4622 84.2419 29.5902V32.4822C84.2419 32.9862 84.2899 33.2862 84.3139 33.4302H83.2099C83.1859 33.2862 83.1499 33.0702 83.1499 32.6502C82.8979 33.0582 82.3219 33.6102 81.2899 33.6102C80.1139 33.6102 79.3579 32.7942 79.3579 31.8822ZM81.4459 32.6622C82.3699 32.6622 83.1139 32.2182 83.1139 30.9582V30.6942L81.3499 30.9582C80.8699 31.0302 80.5099 31.3062 80.5099 31.8222C80.5099 32.2542 80.8699 32.6622 81.4459 32.6622ZM87.1152 33.4302H85.9992V24.7422H87.1152V28.4742C87.3912 27.9582 88.0632 27.4902 89.0232 27.4902C90.7752 27.4902 91.6752 28.8342 91.6752 30.5142C91.6752 32.2302 90.7032 33.5862 88.9872 33.5862C88.1352 33.5862 87.4752 33.2142 87.1152 32.5902V33.4302ZM90.5232 30.5142C90.5232 29.2662 89.8632 28.4862 88.8192 28.4862C87.8232 28.4862 87.1032 29.2662 87.1032 30.5142C87.1032 31.7622 87.8232 32.5782 88.8192 32.5782C89.8512 32.5782 90.5232 31.7622 90.5232 30.5142ZM92.7525 31.8822C92.7525 30.8502 93.5085 30.2742 94.5045 30.1302L96.0645 29.9022C96.4125 29.8542 96.5085 29.6742 96.5085 29.4702C96.5085 28.9062 96.1365 28.4382 95.2605 28.4382C94.4685 28.4382 94.0245 28.9302 93.9525 29.6022L92.8725 29.3502C92.9925 28.2462 93.9885 27.4782 95.2365 27.4782C96.9645 27.4782 97.6365 28.4622 97.6365 29.5902V32.4822C97.6365 32.9862 97.6845 33.2862 97.7085 33.4302H96.6045C96.5805 33.2862 96.5445 33.0702 96.5445 32.6502C96.2925 33.0582 95.7165 33.6102 94.6845 33.6102C93.5085 33.6102 92.7525 32.7942 92.7525 31.8822ZM94.8405 32.6622C95.7645 32.6622 96.5085 32.2182 96.5085 30.9582V30.6942L94.7445 30.9582C94.2645 31.0302 93.9045 31.3062 93.9045 31.8222C93.9045 32.2542 94.2645 32.6622 94.8405 32.6622ZM98.8537 31.9302L99.8737 31.5702C99.9457 32.1702 100.402 32.6502 101.218 32.6502C101.854 32.6502 102.202 32.2902 102.202 31.8822C102.202 31.5222 101.938 31.2462 101.458 31.1382L100.474 30.9222C99.5737 30.7302 99.0337 30.1182 99.0337 29.3022C99.0337 28.3182 99.9577 27.4782 101.086 27.4782C102.67 27.4782 103.162 28.5102 103.282 29.0262L102.286 29.3982C102.238 29.0982 101.998 28.4382 101.086 28.4382C100.51 28.4382 100.126 28.8102 100.126 29.2062C100.126 29.5542 100.342 29.8062 100.786 29.9022L101.722 30.1062C102.766 30.3342 103.318 30.9702 103.318 31.8222C103.318 32.6382 102.634 33.6102 101.206 33.6102C99.6217 33.6102 98.9497 32.5902 98.8537 31.9302ZM105.493 29.9502H108.649C108.625 29.1222 108.085 28.4742 107.065 28.4742C106.117 28.4742 105.541 29.2062 105.493 29.9502ZM108.817 31.4502L109.789 31.7862C109.465 32.8062 108.541 33.6102 107.197 33.6102C105.649 33.6102 104.293 32.4822 104.293 30.5262C104.293 28.7142 105.601 27.4782 107.053 27.4782C108.829 27.4782 109.825 28.7022 109.825 30.5022C109.825 30.6462 109.813 30.7902 109.801 30.8622H105.457C105.481 31.8942 106.225 32.6142 107.197 32.6142C108.133 32.6142 108.601 32.0982 108.817 31.4502ZM110.969 32.6622C110.969 32.1942 111.329 31.8222 111.797 31.8222C112.265 31.8222 112.637 32.1942 112.637 32.6622C112.637 33.1302 112.265 33.4902 111.797 33.4902C111.329 33.4902 110.969 33.1302 110.969 32.6622ZM116.689 28.5222C115.777 28.5222 114.937 29.1942 114.937 30.5382C114.937 31.8582 115.765 32.5662 116.701 32.5662C117.781 32.5662 118.177 31.8342 118.309 31.3782L119.305 31.8102C119.029 32.6382 118.201 33.6102 116.701 33.6102C115.021 33.6102 113.785 32.2902 113.785 30.5382C113.785 28.7382 115.045 27.4782 116.689 27.4782C118.225 27.4782 119.017 28.4382 119.257 29.3142L118.237 29.7462C118.093 29.1822 117.673 28.5222 116.689 28.5222ZM123.041 32.6022C124.001 32.6022 124.841 31.8822 124.841 30.5382C124.841 29.2062 124.001 28.4862 123.041 28.4862C122.081 28.4862 121.241 29.2062 121.241 30.5382C121.241 31.8822 122.081 32.6022 123.041 32.6022ZM123.041 27.4782C124.769 27.4782 125.993 28.7862 125.993 30.5382C125.993 32.3022 124.769 33.6102 123.041 33.6102C121.313 33.6102 120.089 32.3022 120.089 30.5382C120.089 28.7862 121.313 27.4782 123.041 27.4782Z" fill="#EDEDED"/>
<rect x="144.977" y="50.9302" width="33" height="188.5" rx="16.5" transform="rotate(90 144.977 50.9302)" fill="#161616" stroke="#EDEDED"/>
<path d="M-2.12282 68.0342V71.4302H-3.25082V62.7422H-2.12282V66.3302C-1.70282 65.7182 -1.03082 65.4902 -0.370823 65.4902C1.00918 65.4902 1.69318 66.4862 1.69318 67.7702V71.4302H0.565177V67.9622C0.565177 67.1582 0.229177 66.5102 -0.778823 66.5102C-1.64282 66.5102 -2.09882 67.1822 -2.12282 68.0342ZM4.99946 63.8342V65.6582H6.24746V66.6782H4.99946V69.6782C4.99946 70.2062 5.21546 70.4702 5.80346 70.4702C5.94746 70.4702 6.15146 70.4462 6.24746 70.4222V71.3822C6.15146 71.4182 5.86346 71.4902 5.47946 71.4902C4.49546 71.4902 3.87146 70.8902 3.87146 69.8462V66.6782H2.76746V65.6582H3.07946C3.70346 65.6582 3.96746 65.2742 3.96746 64.7702V63.8342H4.99946ZM9.26508 63.8342V65.6582H10.5131V66.6782H9.26508V69.6782C9.26508 70.2062 9.48108 70.4702 10.0691 70.4702C10.2131 70.4702 10.4171 70.4462 10.5131 70.4222V71.3822C10.4171 71.4182 10.1291 71.4902 9.74508 71.4902C8.76108 71.4902 8.13708 70.8902 8.13708 69.8462V66.6782H7.03308V65.6582H7.34508C7.96908 65.6582 8.23308 65.2742 8.23308 64.7702V63.8342H9.26508ZM13.0175 73.7102H11.9015V65.6582H12.9935V66.5582C13.3055 65.9822 13.9895 65.5262 14.9255 65.5262C16.6535 65.5262 17.5775 66.8582 17.5775 68.5382C17.5775 70.2542 16.5815 71.5862 14.8895 71.5862C14.0015 71.5862 13.3295 71.1662 13.0175 70.6502V73.7102ZM16.4255 68.5382C16.4255 67.3862 15.7775 66.5222 14.7215 66.5222C13.6895 66.5222 13.0055 67.3862 13.0055 68.5382C13.0055 69.7262 13.6895 70.5782 14.7215 70.5782C15.7655 70.5782 16.4255 69.7262 16.4255 68.5382ZM18.4748 69.9302L19.4948 69.5702C19.5668 70.1702 20.0228 70.6502 20.8388 70.6502C21.4748 70.6502 21.8228 70.2902 21.8228 69.8822C21.8228 69.5222 21.5588 69.2462 21.0788 69.1382L20.0948 68.9222C19.1948 68.7302 18.6548 68.1182 18.6548 67.3022C18.6548 66.3182 19.5788 65.4782 20.7068 65.4782C22.2908 65.4782 22.7828 66.5102 22.9028 67.0262L21.9068 67.3982C21.8588 67.0982 21.6188 66.4382 20.7068 66.4382C20.1308 66.4382 19.7468 66.8102 19.7468 67.2062C19.7468 67.5542 19.9628 67.8062 20.4068 67.9022L21.3428 68.1062C22.3868 68.3342 22.9388 68.9702 22.9388 69.8222C22.9388 70.6382 22.2548 71.6102 20.8268 71.6102C19.2428 71.6102 18.5708 70.5902 18.4748 69.9302ZM24.3926 70.6622C24.3926 70.1942 24.7526 69.8222 25.2206 69.8222C25.6886 69.8222 26.0606 70.1942 26.0606 70.6622C26.0606 71.1302 25.6886 71.4902 25.2206 71.4902C24.7526 71.4902 24.3926 71.1302 24.3926 70.6622ZM24.3806 66.4382C24.3806 65.9702 24.7406 65.5982 25.2086 65.5982C25.6766 65.5982 26.0486 65.9702 26.0486 66.4382C26.0486 66.9062 25.6766 67.2662 25.2086 67.2662C24.7406 67.2662 24.3806 66.9062 24.3806 66.4382ZM32.1691 62.9222L28.0531 71.4302H26.9611L31.0771 62.9222H32.1691ZM35.6964 62.9222L31.5804 71.4302H30.4884L34.6044 62.9222H35.6964ZM37.9743 73.8422H36.7383L38.1783 70.7942L35.6943 65.6582H36.9903L38.7903 69.6422L40.5183 65.6582H41.7303L37.9743 73.8422ZM45.0532 70.6022C46.0132 70.6022 46.8532 69.8822 46.8532 68.5382C46.8532 67.2062 46.0132 66.4862 45.0532 66.4862C44.0932 66.4862 43.2532 67.2062 43.2532 68.5382C43.2532 69.8822 44.0932 70.6022 45.0532 70.6022ZM45.0532 65.4782C46.7812 65.4782 48.0052 66.7862 48.0052 68.5382C48.0052 70.3022 46.7812 71.6102 45.0532 71.6102C43.3252 71.6102 42.1012 70.3022 42.1012 68.5382C42.1012 66.7862 43.3252 65.4782 45.0532 65.4782ZM53.1938 70.7342C52.8818 71.3342 52.1618 71.6102 51.4898 71.6102C50.1458 71.6102 49.3298 70.6022 49.3298 69.2942V65.6582H50.4578V69.1262C50.4578 69.9182 50.8178 70.6142 51.7658 70.6142C52.6778 70.6142 53.1338 70.0142 53.1338 69.1382V65.6582H54.2618V70.3622C54.2618 70.8182 54.2978 71.2262 54.3218 71.4302H53.2418C53.2178 71.2982 53.1938 70.9742 53.1938 70.7342ZM59.3907 65.5982V66.7982C59.2227 66.7742 59.0547 66.7622 58.8987 66.7622C57.9507 66.7622 57.3147 67.2662 57.3147 68.5382V71.4302H56.1867V65.6582H57.2907V66.6662C57.7107 65.7782 58.4307 65.5622 59.0187 65.5622C59.1747 65.5622 59.3307 65.5862 59.3907 65.5982ZM61.2063 68.5262C61.2063 69.7142 61.8183 70.5902 62.8983 70.5902C63.9303 70.5902 64.5663 69.6902 64.5663 68.5022C64.5663 67.3142 63.9423 66.4982 62.9103 66.4982C61.8783 66.4982 61.2063 67.3382 61.2063 68.5262ZM64.5783 70.6502V70.5542C64.3023 71.1062 63.6903 71.5862 62.7903 71.5862C61.0983 71.5862 60.0543 70.2422 60.0543 68.5262C60.0543 66.8942 61.1583 65.5022 62.7903 65.5022C63.8103 65.5022 64.3623 66.0062 64.5543 66.4742V62.7422H65.6703V70.3622C65.6703 70.9142 65.7183 71.3342 65.7303 71.4302H64.6383C64.6143 71.2982 64.5783 70.9982 64.5783 70.6502ZM70.061 70.6022C71.021 70.6022 71.861 69.8822 71.861 68.5382C71.861 67.2062 71.021 66.4862 70.061 66.4862C69.101 66.4862 68.261 67.2062 68.261 68.5382C68.261 69.8822 69.101 70.6022 70.061 70.6022ZM70.061 65.4782C71.789 65.4782 73.013 66.7862 73.013 68.5382C73.013 70.3022 71.789 71.6102 70.061 71.6102C68.333 71.6102 67.109 70.3022 67.109 68.5382C67.109 66.7862 68.333 65.4782 70.061 65.4782ZM75.5722 71.4302H74.4562V65.6582H75.5362V66.4262C75.8962 65.7902 76.6162 65.4902 77.2882 65.4902C78.0082 65.4902 78.7042 65.8382 79.0162 66.5822C79.4722 65.7542 80.2162 65.4902 80.9482 65.4902C81.9562 65.4902 82.9402 66.1742 82.9402 67.6862V71.4302H81.8242V67.8062C81.8242 67.0502 81.4522 66.4862 80.6002 66.4862C79.8082 66.4862 79.2682 67.1102 79.2682 67.9382V71.4302H78.1402V67.8062C78.1402 67.0622 77.7802 66.4862 76.9162 66.4862C76.1122 66.4862 75.5722 67.0862 75.5722 67.9502V71.4302ZM84.3853 69.8822C84.3853 68.8502 85.1413 68.2742 86.1373 68.1302L87.6973 67.9022C88.0453 67.8542 88.1413 67.6742 88.1413 67.4702C88.1413 66.9062 87.7693 66.4382 86.8933 66.4382C86.1013 66.4382 85.6573 66.9302 85.5853 67.6022L84.5053 67.3502C84.6253 66.2462 85.6213 65.4782 86.8693 65.4782C88.5973 65.4782 89.2693 66.4622 89.2693 67.5902V70.4822C89.2693 70.9862 89.3173 71.2862 89.3413 71.4302H88.2373C88.2133 71.2862 88.1773 71.0702 88.1773 70.6502C87.9253 71.0582 87.3493 71.6102 86.3173 71.6102C85.1413 71.6102 84.3853 70.7942 84.3853 69.8822ZM86.4733 70.6622C87.3973 70.6622 88.1413 70.2182 88.1413 68.9582V68.6942L86.3773 68.9582C85.8973 69.0302 85.5373 69.3062 85.5373 69.8222C85.5373 70.2542 85.8973 70.6622 86.4733 70.6622ZM92.1425 71.4302H91.0265V65.6582H92.1425V71.4302ZM90.7745 63.4742C90.7745 63.0182 91.1345 62.6582 91.5785 62.6582C92.0345 62.6582 92.3945 63.0182 92.3945 63.4742C92.3945 63.9182 92.0345 64.2782 91.5785 64.2782C91.1345 64.2782 90.7745 63.9182 90.7745 63.4742ZM95.1897 68.0942V71.4302H94.0617V65.6582H95.1657V66.4862C95.5857 65.7662 96.2697 65.4902 96.9417 65.4902C98.3217 65.4902 99.0057 66.4862 99.0057 67.7702V71.4302H97.8777V67.9622C97.8777 67.1582 97.5417 66.5102 96.5337 66.5102C95.6457 66.5102 95.1897 67.2182 95.1897 68.0942ZM100.68 70.6622C100.68 70.1942 101.04 69.8222 101.508 69.8222C101.976 69.8222 102.348 70.1942 102.348 70.6622C102.348 71.1302 101.976 71.4902 101.508 71.4902C101.04 71.4902 100.68 71.1302 100.68 70.6622ZM106.4 66.5222C105.488 66.5222 104.648 67.1942 104.648 68.5382C104.648 69.8582 105.476 70.5662 106.412 70.5662C107.492 70.5662 107.888 69.8342 108.02 69.3782L109.016 69.8102C108.74 70.6382 107.912 71.6102 106.412 71.6102C104.732 71.6102 103.496 70.2902 103.496 68.5382C103.496 66.7382 104.756 65.4782 106.4 65.4782C107.936 65.4782 108.728 66.4382 108.968 67.3142L107.948 67.7462C107.804 67.1822 107.384 66.5222 106.4 66.5222ZM112.752 70.6022C113.712 70.6022 114.552 69.8822 114.552 68.5382C114.552 67.2062 113.712 66.4862 112.752 66.4862C111.792 66.4862 110.952 67.2062 110.952 68.5382C110.952 69.8822 111.792 70.6022 112.752 70.6022ZM112.752 65.4782C114.48 65.4782 115.704 66.7862 115.704 68.5382C115.704 70.3022 114.48 71.6102 112.752 71.6102C111.024 71.6102 109.8 70.3022 109.8 68.5382C109.8 66.7862 111.024 65.4782 112.752 65.4782ZM118.264 71.4302H117.148V65.6582H118.228V66.4262C118.588 65.7902 119.308 65.4902 119.98 65.4902C120.7 65.4902 121.396 65.8382 121.708 66.5822C122.164 65.7542 122.908 65.4902 123.64 65.4902C124.648 65.4902 125.632 66.1742 125.632 67.6862V71.4302H124.516V67.8062C124.516 67.0502 124.144 66.4862 123.292 66.4862C122.5 66.4862 121.96 67.1102 121.96 67.9382V71.4302H120.832V67.8062C120.832 67.0622 120.472 66.4862 119.608 66.4862C118.804 66.4862 118.264 67.0862 118.264 67.9502V71.4302Z" fill="#EDEDED"/>
</g>
</g>
<defs>
<clipPath id="clip0_105_14273">
<rect width="160" height="96" fill="white" transform="translate(0.00012207 0.5)"/>
</clipPath>
<clipPath id="clip1_105_14273">
<rect width="218" height="124.352" fill="white" transform="translate(-28.9999 0.5)"/>
</clipPath>
</defs>
</svg>
