<svg width="160" height="97" viewBox="0 0 160 97" fill="none" xmlns="http://www.w3.org/2000/svg">

<path d="M-1533 -1319H1557V-1321H-1533V-1319ZM1558 -1318V1499H1560V-1318H1558ZM1557 1500H-1533V1502H1557V1500ZM-1534 1499V-1318H-1536V1499H-1534ZM-1533 1500C-1533.55 1500 -1534 1499.55 -1534 1499H-1536C-1536 1500.66 -1534.66 1502 -1533 1502V1500ZM1558 1499C1558 1499.55 1557.55 1500 1557 1500V1502C1558.66 1502 1560 1500.66 1560 1499H1558ZM1557 -1319C1557.55 -1319 1558 -1318.55 1558 -1318H1560C1560 -1319.66 1558.66 -1321 1557 -1321V-1319ZM-1533 -1321C-1534.66 -1321 -1536 -1319.66 -1536 -1318H-1534C-1534 -1318.55 -1533.55 -1319 -1533 -1319V-1321Z" fill="white" fill-opacity="0.1"/>
<g clip-path="url(#clip0_105_14273)">
<g clip-path="url(#clip1_105_14273)">
<rect x="144.977" y="12.9302" width="33" height="188.5" rx="16.5" transform="rotate(90 144.977 12.9302)" fill="#F8F9FA" stroke="#11181C"/>
<path d="M-92.369 30.0342V33.4302H-93.497V24.7422H-92.369V28.3302C-91.949 27.7182 -91.277 27.4902 -90.617 27.4902C-89.237 27.4902 -88.553 28.4862 -88.553 29.7702V33.4302H-89.681V29.9622C-89.681 29.1582 -90.017 28.5102 -91.025 28.5102C-91.889 28.5102 -92.345 29.1822 -92.369 30.0342ZM-85.2467 25.8342V27.6582H-83.9987V28.6782H-85.2467V31.6782C-85.2467 32.2062 -85.0307 32.4702 -84.4427 32.4702C-84.2987 32.4702 -84.0947 32.4462 -83.9987 32.4222V33.3822C-84.0947 33.4182 -84.3827 33.4902 -84.7667 33.4902C-85.7507 33.4902 -86.3747 32.8902 -86.3747 31.8462V28.6782H-87.4787V27.6582H-87.1667C-86.5427 27.6582 -86.2787 27.2742 -86.2787 26.7702V25.8342H-85.2467ZM-80.9811 25.8342V27.6582H-79.7331V28.6782H-80.9811V31.6782C-80.9811 32.2062 -80.7651 32.4702 -80.1771 32.4702C-80.0331 32.4702 -79.8291 32.4462 -79.7331 32.4222V33.3822C-79.8291 33.4182 -80.1171 33.4902 -80.5011 33.4902C-81.4851 33.4902 -82.1091 32.8902 -82.1091 31.8462V28.6782H-83.2131V27.6582H-82.9011C-82.2771 27.6582 -82.0131 27.2742 -82.0131 26.7702V25.8342H-80.9811ZM-77.2287 35.7102H-78.3447V27.6582H-77.2527V28.5582C-76.9407 27.9822 -76.2567 27.5262 -75.3207 27.5262C-73.5927 27.5262 -72.6687 28.8582 -72.6687 30.5382C-72.6687 32.2542 -73.6647 33.5862 -75.3567 33.5862C-76.2447 33.5862 -76.9167 33.1662 -77.2287 32.6502V35.7102ZM-73.8207 30.5382C-73.8207 29.3862 -74.4687 28.5222 -75.5247 28.5222C-76.5567 28.5222 -77.2407 29.3862 -77.2407 30.5382C-77.2407 31.7262 -76.5567 32.5782 -75.5247 32.5782C-74.4807 32.5782 -73.8207 31.7262 -73.8207 30.5382ZM-71.7714 31.9302L-70.7514 31.5702C-70.6794 32.1702 -70.2234 32.6502 -69.4074 32.6502C-68.7714 32.6502 -68.4234 32.2902 -68.4234 31.8822C-68.4234 31.5222 -68.6874 31.2462 -69.1674 31.1382L-70.1514 30.9222C-71.0514 30.7302 -71.5914 30.1182 -71.5914 29.3022C-71.5914 28.3182 -70.6674 27.4782 -69.5394 27.4782C-67.9554 27.4782 -67.4634 28.5102 -67.3434 29.0262L-68.3394 29.3982C-68.3874 29.0982 -68.6274 28.4382 -69.5394 28.4382C-70.1154 28.4382 -70.4994 28.8102 -70.4994 29.2062C-70.4994 29.5542 -70.2834 29.8062 -69.8394 29.9022L-68.9034 30.1062C-67.8594 30.3342 -67.3074 30.9702 -67.3074 31.8222C-67.3074 32.6382 -67.9914 33.6102 -69.4194 33.6102C-71.0034 33.6102 -71.6754 32.5902 -71.7714 31.9302ZM-65.8536 32.6622C-65.8536 32.1942 -65.4936 31.8222 -65.0256 31.8222C-64.5576 31.8222 -64.1856 32.1942 -64.1856 32.6622C-64.1856 33.1302 -64.5576 33.4902 -65.0256 33.4902C-65.4936 33.4902 -65.8536 33.1302 -65.8536 32.6622ZM-65.8656 28.4382C-65.8656 27.9702 -65.5056 27.5982 -65.0376 27.5982C-64.5696 27.5982 -64.1976 27.9702 -64.1976 28.4382C-64.1976 28.9062 -64.5696 29.2662 -65.0376 29.2662C-65.5056 29.2662 -65.8656 28.9062 -65.8656 28.4382ZM-58.0772 24.9222L-62.1932 33.4302H-63.2852L-59.1692 24.9222H-58.0772ZM-54.5498 24.9222L-58.6658 33.4302H-59.7578L-55.6418 24.9222H-54.5498ZM-55.0956 31.9302L-54.0756 31.5702C-54.0036 32.1702 -53.5476 32.6502 -52.7316 32.6502C-52.0956 32.6502 -51.7476 32.2902 -51.7476 31.8822C-51.7476 31.5222 -52.0116 31.2462 -52.4916 31.1382L-53.4756 30.9222C-54.3756 30.7302 -54.9156 30.1182 -54.9156 29.3022C-54.9156 28.3182 -53.9916 27.4782 -52.8636 27.4782C-51.2796 27.4782 -50.7876 28.5102 -50.6676 29.0262L-51.6636 29.3982C-51.7116 29.0982 -51.9516 28.4382 -52.8636 28.4382C-53.4396 28.4382 -53.8236 28.8102 -53.8236 29.2062C-53.8236 29.5542 -53.6076 29.8062 -53.1636 29.9022L-52.2276 30.1062C-51.1836 30.3342 -50.6316 30.9702 -50.6316 31.8222C-50.6316 32.6382 -51.3156 33.6102 -52.7436 33.6102C-54.3276 33.6102 -54.9996 32.5902 -55.0956 31.9302ZM-44.0164 35.7102H-45.1324V32.6142C-45.4324 33.2022 -46.0804 33.5862 -46.9324 33.5862C-48.5884 33.5862 -49.6684 32.2062 -49.6684 30.5262C-49.6684 28.8942 -48.6484 27.5142 -46.9564 27.5142C-45.9604 27.5142 -45.3484 28.0302 -45.1084 28.5462V27.6582H-44.0164V35.7102ZM-48.5164 30.5262C-48.5164 31.7142 -47.8564 32.5902 -46.8244 32.5902C-45.8044 32.5902 -45.1204 31.7142 -45.1204 30.5262C-45.1204 29.3382 -45.8044 28.5102 -46.8244 28.5102C-47.8684 28.5102 -48.5164 29.3382 -48.5164 30.5262ZM-37.2718 27.6582L-39.5758 33.4302H-40.7158L-43.0558 27.6582H-41.7838L-40.1398 32.1102L-38.4838 27.6582H-37.2718ZM-33.1126 28.6782H-34.5046V33.4302H-35.6686V28.6782H-36.7366V27.6582H-35.6686V26.6862C-35.6686 25.4022 -34.8166 24.7062 -33.7726 24.7062C-33.3886 24.7062 -33.1486 24.7902 -33.1006 24.8262V25.8342C-33.1606 25.8102 -33.3046 25.7622 -33.5926 25.7622C-33.9886 25.7622 -34.5046 25.9542 -34.5046 26.7462V27.6582H-33.1126V28.6782ZM-31.4657 30.5262C-31.4657 31.7142 -30.8537 32.5902 -29.7737 32.5902C-28.7417 32.5902 -28.1057 31.6902 -28.1057 30.5022C-28.1057 29.3142 -28.7297 28.4982 -29.7617 28.4982C-30.7937 28.4982 -31.4657 29.3382 -31.4657 30.5262ZM-28.0937 32.6502V32.5542C-28.3697 33.1062 -28.9817 33.5862 -29.8817 33.5862C-31.5737 33.5862 -32.6177 32.2422 -32.6177 30.5262C-32.6177 28.8942 -31.5137 27.5022 -29.8817 27.5022C-28.8617 27.5022 -28.3097 28.0062 -28.1177 28.4742V24.7422H-27.0017V32.3622C-27.0017 32.9142 -26.9537 33.3342 -26.9417 33.4302H-28.0337C-28.0577 33.2982 -28.0937 32.9982 -28.0937 32.6502ZM-21.3376 32.7342C-21.6496 33.3342 -22.3696 33.6102 -23.0416 33.6102C-24.3856 33.6102 -25.2016 32.6022 -25.2016 31.2942V27.6582H-24.0736V31.1262C-24.0736 31.9182 -23.7136 32.6142 -22.7656 32.6142C-21.8536 32.6142 -21.3976 32.0142 -21.3976 31.1382V27.6582H-20.2696V32.3622C-20.2696 32.8182 -20.2336 33.2262 -20.2096 33.4302H-21.2896C-21.3136 33.2982 -21.3376 32.9742 -21.3376 32.7342ZM-17.2287 33.4302H-18.3447V27.6582H-17.2287V33.4302ZM-18.5967 25.4742C-18.5967 25.0182 -18.2367 24.6582 -17.7927 24.6582C-17.3367 24.6582 -16.9767 25.0182 -16.9767 25.4742C-16.9767 25.9182 -17.3367 26.2782 -17.7927 26.2782C-18.2367 26.2782 -18.5967 25.9182 -18.5967 25.4742ZM-15.6695 31.8822C-15.6695 30.8502 -14.9135 30.2742 -13.9175 30.1302L-12.3575 29.9022C-12.0095 29.8542 -11.9135 29.6742 -11.9135 29.4702C-11.9135 28.9062 -12.2855 28.4382 -13.1615 28.4382C-13.9535 28.4382 -14.3975 28.9302 -14.4695 29.6022L-15.5495 29.3502C-15.4295 28.2462 -14.4335 27.4782 -13.1855 27.4782C-11.4575 27.4782 -10.7855 28.4622 -10.7855 29.5902V32.4822C-10.7855 32.9862 -10.7375 33.2862 -10.7135 33.4302H-11.8175C-11.8415 33.2862 -11.8775 33.0702 -11.8775 32.6502C-12.1295 33.0582 -12.7055 33.6102 -13.7375 33.6102C-14.9135 33.6102 -15.6695 32.7942 -15.6695 31.8822ZM-13.5815 32.6622C-12.6575 32.6622 -11.9135 32.2182 -11.9135 30.9582V30.6942L-13.6775 30.9582C-14.1575 31.0302 -14.5175 31.3062 -14.5175 31.8222C-14.5175 32.2542 -14.1575 32.6622 -13.5815 32.6622ZM-5.77628 27.6582H-4.61228L-3.11228 32.0022L-1.84028 27.6582H-0.652281L-2.52428 33.4302H-3.68828L-5.22428 29.0382L-6.72428 33.4302H-7.91228L-9.80828 27.6582H-8.57228L-7.27628 32.0022L-5.77628 27.6582ZM1.04216 30.5262C1.04216 31.7142 1.65416 32.5902 2.73416 32.5902C3.76616 32.5902 4.40216 31.6902 4.40216 30.5022C4.40216 29.3142 3.77816 28.4982 2.74616 28.4982C1.71416 28.4982 1.04216 29.3382 1.04216 30.5262ZM4.41416 32.6502V32.5542C4.13816 33.1062 3.52616 33.5862 2.62616 33.5862C0.934156 33.5862 -0.109844 32.2422 -0.109844 30.5262C-0.109844 28.8942 0.994156 27.5022 2.62616 27.5022C3.64616 27.5022 4.19816 28.0062 4.39016 28.4742V24.7422H5.50616V32.3622C5.50616 32.9142 5.55416 33.3342 5.56616 33.4302H4.47416C4.45016 33.2982 4.41416 32.9982 4.41416 32.6502ZM10.6768 27.6582H11.8408L13.3408 32.0022L14.6128 27.6582H15.8008L13.9288 33.4302H12.7648L11.2288 29.0382L9.72884 33.4302H8.54084L6.64484 27.6582H7.88084L9.17684 32.0022L10.6768 27.6582ZM18.0685 30.0942V33.4302H16.9405V27.6582H18.0445V28.4862C18.4645 27.7662 19.1485 27.4902 19.8205 27.4902C21.2005 27.4902 21.8845 28.4862 21.8845 29.7702V33.4302H20.7565V29.9622C20.7565 29.1582 20.4205 28.5102 19.4125 28.5102C18.5245 28.5102 18.0685 29.2182 18.0685 30.0942ZM24.8068 30.0942V33.4302H23.6788V27.6582H24.7828V28.4862C25.2028 27.7662 25.8867 27.4902 26.5588 27.4902C27.9388 27.4902 28.6228 28.4862 28.6228 29.7702V33.4302H27.4948V29.9622C27.4948 29.1582 27.1588 28.5102 26.1508 28.5102C25.2628 28.5102 24.8068 29.2182 24.8068 30.0942ZM30.057 31.8822C30.057 30.8502 30.813 30.2742 31.809 30.1302L33.369 29.9022C33.717 29.8542 33.813 29.6742 33.813 29.4702C33.813 28.9062 33.441 28.4382 32.565 28.4382C31.773 28.4382 31.329 28.9302 31.257 29.6022L30.177 29.3502C30.297 28.2462 31.293 27.4782 32.541 27.4782C34.269 27.4782 34.941 28.4622 34.941 29.5902V32.4822C34.941 32.9862 34.989 33.2862 35.013 33.4302H33.909C33.885 33.2862 33.849 33.0702 33.849 32.6502C33.597 33.0582 33.021 33.6102 31.989 33.6102C30.813 33.6102 30.057 32.7942 30.057 31.8822ZM32.145 32.6622C33.069 32.6622 33.813 32.2182 33.813 30.9582V30.6942L32.049 30.9582C31.569 31.0302 31.209 31.3062 31.209 31.8222C31.209 32.2542 31.569 32.6622 32.145 32.6622ZM37.3703 30.5262C37.3703 31.7142 37.9823 32.5902 39.0623 32.5902C40.0943 32.5902 40.7303 31.6902 40.7303 30.5022C40.7303 29.3142 40.1063 28.4982 39.0743 28.4982C38.0423 28.4982 37.3703 29.3382 37.3703 30.5262ZM40.7423 32.6502V32.5542C40.4663 33.1062 39.8543 33.5862 38.9543 33.5862C37.2623 33.5862 36.2183 32.2422 36.2183 30.5262C36.2183 28.8942 37.3223 27.5022 38.9543 27.5022C39.9743 27.5022 40.5263 28.0062 40.7183 28.4742V24.7422H41.8343V32.3622C41.8343 32.9142 41.8823 33.3342 41.8943 33.4302H40.8023C40.7783 33.2982 40.7423 32.9982 40.7423 32.6502ZM43.393 31.8822C43.393 30.8502 44.149 30.2742 45.145 30.1302L46.705 29.9022C47.053 29.8542 47.149 29.6742 47.149 29.4702C47.149 28.9062 46.777 28.4382 45.901 28.4382C45.109 28.4382 44.665 28.9302 44.593 29.6022L43.513 29.3502C43.633 28.2462 44.629 27.4782 45.877 27.4782C47.605 27.4782 48.277 28.4622 48.277 29.5902V32.4822C48.277 32.9862 48.325 33.2862 48.349 33.4302H47.245C47.221 33.2862 47.185 33.0702 47.185 32.6502C46.933 33.0582 46.357 33.6102 45.325 33.6102C44.149 33.6102 43.393 32.7942 43.393 31.8822ZM45.481 32.6622C46.405 32.6622 47.149 32.2182 47.149 30.9582V30.6942L45.385 30.9582C44.905 31.0302 44.545 31.3062 44.545 31.8222C44.545 32.2542 44.905 32.6622 45.481 32.6622ZM50.7062 30.5262C50.7062 31.7142 51.3182 32.5902 52.3982 32.5902C53.4302 32.5902 54.0662 31.6902 54.0662 30.5022C54.0662 29.3142 53.4422 28.4982 52.4102 28.4982C51.3782 28.4982 50.7062 29.3382 50.7062 30.5262ZM54.0782 32.6502V32.5542C53.8022 33.1062 53.1902 33.5862 52.2902 33.5862C50.5982 33.5862 49.5542 32.2422 49.5542 30.5262C49.5542 28.8942 50.6582 27.5022 52.2902 27.5022C53.3102 27.5022 53.8622 28.0062 54.0542 28.4742V24.7422H55.1702V32.3622C55.1702 32.9142 55.2182 33.3342 55.2302 33.4302H54.1382C54.1142 33.2982 54.0782 32.9982 54.0782 32.6502ZM56.9689 32.6622C56.9689 32.1942 57.3289 31.8222 57.7969 31.8222C58.2649 31.8222 58.6369 32.1942 58.6369 32.6622C58.6369 33.1302 58.2649 33.4902 57.7969 33.4902C57.3289 33.4902 56.9689 33.1302 56.9689 32.6622ZM59.9005 31.9302L60.9205 31.5702C60.9925 32.1702 61.4485 32.6502 62.2645 32.6502C62.9005 32.6502 63.2485 32.2902 63.2485 31.8822C63.2485 31.5222 62.9845 31.2462 62.5045 31.1382L61.5205 30.9222C60.6205 30.7302 60.0805 30.1182 60.0805 29.3022C60.0805 28.3182 61.0045 27.4782 62.1325 27.4782C63.7165 27.4782 64.2085 28.5102 64.3285 29.0262L63.3325 29.3982C63.2845 29.0982 63.0445 28.4382 62.1325 28.4382C61.5565 28.4382 61.1725 28.8102 61.1725 29.2062C61.1725 29.5542 61.3885 29.8062 61.8325 29.9022L62.7685 30.1062C63.8125 30.3342 64.3645 30.9702 64.3645 31.8222C64.3645 32.6382 63.6805 33.6102 62.2525 33.6102C60.6685 33.6102 59.9965 32.5902 59.9005 31.9302ZM69.6117 32.7342C69.2997 33.3342 68.5797 33.6102 67.9077 33.6102C66.5637 33.6102 65.7477 32.6022 65.7477 31.2942V27.6582H66.8757V31.1262C66.8757 31.9182 67.2357 32.6142 68.1837 32.6142C69.0957 32.6142 69.5517 32.0142 69.5517 31.1382V27.6582H70.6797V32.3622C70.6797 32.8182 70.7157 33.2262 70.7397 33.4302H69.6597C69.6357 33.2982 69.6117 32.9742 69.6117 32.7342ZM73.7205 35.7102H72.6045V27.6582H73.6965V28.5582C74.0085 27.9822 74.6925 27.5262 75.6285 27.5262C77.3565 27.5262 78.2805 28.8582 78.2805 30.5382C78.2805 32.2542 77.2845 33.5862 75.5925 33.5862C74.7045 33.5862 74.0325 33.1662 73.7205 32.6502V35.7102ZM77.1285 30.5382C77.1285 29.3862 76.4805 28.5222 75.4245 28.5222C74.3925 28.5222 73.7085 29.3862 73.7085 30.5382C73.7085 31.7262 74.3925 32.5782 75.4245 32.5782C76.4685 32.5782 77.1285 31.7262 77.1285 30.5382ZM79.3578 31.8822C79.3578 30.8502 80.1138 30.2742 81.1098 30.1302L82.6698 29.9022C83.0178 29.8542 83.1138 29.6742 83.1138 29.4702C83.1138 28.9062 82.7418 28.4382 81.8658 28.4382C81.0738 28.4382 80.6298 28.9302 80.5578 29.6022L79.4778 29.3502C79.5978 28.2462 80.5938 27.4782 81.8418 27.4782C83.5698 27.4782 84.2418 28.4622 84.2418 29.5902V32.4822C84.2418 32.9862 84.2898 33.2862 84.3138 33.4302H83.2098C83.1858 33.2862 83.1498 33.0702 83.1498 32.6502C82.8978 33.0582 82.3218 33.6102 81.2898 33.6102C80.1138 33.6102 79.3578 32.7942 79.3578 31.8822ZM81.4458 32.6622C82.3698 32.6622 83.1138 32.2182 83.1138 30.9582V30.6942L81.3498 30.9582C80.8698 31.0302 80.5098 31.3062 80.5098 31.8222C80.5098 32.2542 80.8698 32.6622 81.4458 32.6622ZM87.1151 33.4302H85.9991V24.7422H87.1151V28.4742C87.3911 27.9582 88.0631 27.4902 89.0231 27.4902C90.7751 27.4902 91.6751 28.8342 91.6751 30.5142C91.6751 32.2302 90.7031 33.5862 88.9871 33.5862C88.1351 33.5862 87.4751 33.2142 87.1151 32.5902V33.4302ZM90.5231 30.5142C90.5231 29.2662 89.8631 28.4862 88.8191 28.4862C87.8231 28.4862 87.1031 29.2662 87.1031 30.5142C87.1031 31.7622 87.8231 32.5782 88.8191 32.5782C89.8511 32.5782 90.5231 31.7622 90.5231 30.5142ZM92.7523 31.8822C92.7523 30.8502 93.5083 30.2742 94.5043 30.1302L96.0643 29.9022C96.4123 29.8542 96.5083 29.6742 96.5083 29.4702C96.5083 28.9062 96.1363 28.4382 95.2603 28.4382C94.4683 28.4382 94.0243 28.9302 93.9523 29.6022L92.8723 29.3502C92.9923 28.2462 93.9883 27.4782 95.2363 27.4782C96.9643 27.4782 97.6363 28.4622 97.6363 29.5902V32.4822C97.6363 32.9862 97.6843 33.2862 97.7083 33.4302H96.6043C96.5803 33.2862 96.5443 33.0702 96.5443 32.6502C96.2923 33.0582 95.7163 33.6102 94.6843 33.6102C93.5083 33.6102 92.7523 32.7942 92.7523 31.8822ZM94.8403 32.6622C95.7643 32.6622 96.5083 32.2182 96.5083 30.9582V30.6942L94.7443 30.9582C94.2643 31.0302 93.9043 31.3062 93.9043 31.8222C93.9043 32.2542 94.2643 32.6622 94.8403 32.6622ZM98.8536 31.9302L99.8736 31.5702C99.9456 32.1702 100.402 32.6502 101.218 32.6502C101.854 32.6502 102.202 32.2902 102.202 31.8822C102.202 31.5222 101.938 31.2462 101.458 31.1382L100.474 30.9222C99.5736 30.7302 99.0336 30.1182 99.0336 29.3022C99.0336 28.3182 99.9576 27.4782 101.086 27.4782C102.67 27.4782 103.162 28.5102 103.282 29.0262L102.286 29.3982C102.238 29.0982 101.998 28.4382 101.086 28.4382C100.51 28.4382 100.126 28.8102 100.126 29.2062C100.126 29.5542 100.342 29.8062 100.786 29.9022L101.722 30.1062C102.766 30.3342 103.318 30.9702 103.318 31.8222C103.318 32.6382 102.634 33.6102 101.206 33.6102C99.6216 33.6102 98.9496 32.5902 98.8536 31.9302ZM105.493 29.9502H108.649C108.625 29.1222 108.085 28.4742 107.065 28.4742C106.117 28.4742 105.541 29.2062 105.493 29.9502ZM108.817 31.4502L109.789 31.7862C109.465 32.8062 108.541 33.6102 107.197 33.6102C105.649 33.6102 104.293 32.4822 104.293 30.5262C104.293 28.7142 105.601 27.4782 107.053 27.4782C108.829 27.4782 109.825 28.7022 109.825 30.5022C109.825 30.6462 109.813 30.7902 109.801 30.8622H105.457C105.481 31.8942 106.225 32.6142 107.197 32.6142C108.133 32.6142 108.601 32.0982 108.817 31.4502ZM110.969 32.6622C110.969 32.1942 111.329 31.8222 111.797 31.8222C112.265 31.8222 112.637 32.1942 112.637 32.6622C112.637 33.1302 112.265 33.4902 111.797 33.4902C111.329 33.4902 110.969 33.1302 110.969 32.6622ZM116.689 28.5222C115.777 28.5222 114.937 29.1942 114.937 30.5382C114.937 31.8582 115.765 32.5662 116.701 32.5662C117.781 32.5662 118.177 31.8342 118.309 31.3782L119.305 31.8102C119.029 32.6382 118.201 33.6102 116.701 33.6102C115.021 33.6102 113.785 32.2902 113.785 30.5382C113.785 28.7382 115.045 27.4782 116.689 27.4782C118.225 27.4782 119.017 28.4382 119.257 29.3142L118.237 29.7462C118.093 29.1822 117.673 28.5222 116.689 28.5222ZM123.041 32.6022C124.001 32.6022 124.841 31.8822 124.841 30.5382C124.841 29.2062 124.001 28.4862 123.041 28.4862C122.081 28.4862 121.241 29.2062 121.241 30.5382C121.241 31.8822 122.081 32.6022 123.041 32.6022ZM123.041 27.4782C124.769 27.4782 125.993 28.7862 125.993 30.5382C125.993 32.3022 124.769 33.6102 123.041 33.6102C121.313 33.6102 120.089 32.3022 120.089 30.5382C120.089 28.7862 121.313 27.4782 123.041 27.4782Z" fill="#11181C"/>
<rect x="144.977" y="50.9302" width="33" height="188.5" rx="16.5" transform="rotate(90 144.977 50.9302)" fill="#F8F9FA" stroke="#11181C"/>
<path d="M-2.12294 68.0342V71.4302H-3.25094V62.7422H-2.12294V66.3302C-1.70294 65.7182 -1.03094 65.4902 -0.370937 65.4902C1.00906 65.4902 1.69306 66.4862 1.69306 67.7702V71.4302H0.565063V67.9622C0.565063 67.1582 0.229063 66.5102 -0.778937 66.5102C-1.64294 66.5102 -2.09894 67.1822 -2.12294 68.0342ZM4.99934 63.8342V65.6582H6.24734V66.6782H4.99934V69.6782C4.99934 70.2062 5.21534 70.4702 5.80334 70.4702C5.94734 70.4702 6.15134 70.4462 6.24734 70.4222V71.3822C6.15134 71.4182 5.86334 71.4902 5.47934 71.4902C4.49534 71.4902 3.87134 70.8902 3.87134 69.8462V66.6782H2.76734V65.6582H3.07934C3.70334 65.6582 3.96734 65.2742 3.96734 64.7702V63.8342H4.99934ZM9.26497 63.8342V65.6582H10.513V66.6782H9.26497V69.6782C9.26497 70.2062 9.48097 70.4702 10.069 70.4702C10.213 70.4702 10.417 70.4462 10.513 70.4222V71.3822C10.417 71.4182 10.129 71.4902 9.74497 71.4902C8.76097 71.4902 8.13697 70.8902 8.13697 69.8462V66.6782H7.03297V65.6582H7.34497C7.96897 65.6582 8.23297 65.2742 8.23297 64.7702V63.8342H9.26497ZM13.0174 73.7102H11.9014V65.6582H12.9934V66.5582C13.3054 65.9822 13.9894 65.5262 14.9254 65.5262C16.6534 65.5262 17.5774 66.8582 17.5774 68.5382C17.5774 70.2542 16.5814 71.5862 14.8894 71.5862C14.0014 71.5862 13.3294 71.1662 13.0174 70.6502V73.7102ZM16.4254 68.5382C16.4254 67.3862 15.7774 66.5222 14.7214 66.5222C13.6894 66.5222 13.0054 67.3862 13.0054 68.5382C13.0054 69.7262 13.6894 70.5782 14.7214 70.5782C15.7654 70.5782 16.4254 69.7262 16.4254 68.5382ZM18.4747 69.9302L19.4947 69.5702C19.5667 70.1702 20.0227 70.6502 20.8387 70.6502C21.4747 70.6502 21.8227 70.2902 21.8227 69.8822C21.8227 69.5222 21.5587 69.2462 21.0787 69.1382L20.0947 68.9222C19.1947 68.7302 18.6547 68.1182 18.6547 67.3022C18.6547 66.3182 19.5787 65.4782 20.7067 65.4782C22.2907 65.4782 22.7827 66.5102 22.9027 67.0262L21.9067 67.3982C21.8587 67.0982 21.6187 66.4382 20.7067 66.4382C20.1307 66.4382 19.7467 66.8102 19.7467 67.2062C19.7467 67.5542 19.9627 67.8062 20.4067 67.9022L21.3427 68.1062C22.3867 68.3342 22.9387 68.9702 22.9387 69.8222C22.9387 70.6382 22.2547 71.6102 20.8267 71.6102C19.2427 71.6102 18.5707 70.5902 18.4747 69.9302ZM24.3925 70.6622C24.3925 70.1942 24.7525 69.8222 25.2205 69.8222C25.6885 69.8222 26.0605 70.1942 26.0605 70.6622C26.0605 71.1302 25.6885 71.4902 25.2205 71.4902C24.7525 71.4902 24.3925 71.1302 24.3925 70.6622ZM24.3805 66.4382C24.3805 65.9702 24.7405 65.5982 25.2085 65.5982C25.6765 65.5982 26.0485 65.9702 26.0485 66.4382C26.0485 66.9062 25.6765 67.2662 25.2085 67.2662C24.7405 67.2662 24.3805 66.9062 24.3805 66.4382ZM32.1689 62.9222L28.0529 71.4302H26.9609L31.0769 62.9222H32.1689ZM35.6963 62.9222L31.5803 71.4302H30.4883L34.6043 62.9222H35.6963ZM37.9742 73.8422H36.7382L38.1782 70.7942L35.6942 65.6582H36.9902L38.7902 69.6422L40.5182 65.6582H41.7302L37.9742 73.8422ZM45.0531 70.6022C46.0131 70.6022 46.8531 69.8822 46.8531 68.5382C46.8531 67.2062 46.0131 66.4862 45.0531 66.4862C44.0931 66.4862 43.2531 67.2062 43.2531 68.5382C43.2531 69.8822 44.0931 70.6022 45.0531 70.6022ZM45.0531 65.4782C46.7811 65.4782 48.0051 66.7862 48.0051 68.5382C48.0051 70.3022 46.7811 71.6102 45.0531 71.6102C43.3251 71.6102 42.1011 70.3022 42.1011 68.5382C42.1011 66.7862 43.3251 65.4782 45.0531 65.4782ZM53.1937 70.7342C52.8817 71.3342 52.1617 71.6102 51.4897 71.6102C50.1457 71.6102 49.3297 70.6022 49.3297 69.2942V65.6582H50.4577V69.1262C50.4577 69.9182 50.8177 70.6142 51.7657 70.6142C52.6777 70.6142 53.1337 70.0142 53.1337 69.1382V65.6582H54.2617V70.3622C54.2617 70.8182 54.2977 71.2262 54.3217 71.4302H53.2417C53.2177 71.2982 53.1937 70.9742 53.1937 70.7342ZM59.3906 65.5982V66.7982C59.2226 66.7742 59.0546 66.7622 58.8986 66.7622C57.9506 66.7622 57.3146 67.2662 57.3146 68.5382V71.4302H56.1866V65.6582H57.2906V66.6662C57.7106 65.7782 58.4306 65.5622 59.0186 65.5622C59.1746 65.5622 59.3306 65.5862 59.3906 65.5982ZM61.2062 68.5262C61.2062 69.7142 61.8182 70.5902 62.8982 70.5902C63.9302 70.5902 64.5662 69.6902 64.5662 68.5022C64.5662 67.3142 63.9422 66.4982 62.9102 66.4982C61.8782 66.4982 61.2062 67.3382 61.2062 68.5262ZM64.5782 70.6502V70.5542C64.3022 71.1062 63.6902 71.5862 62.7902 71.5862C61.0982 71.5862 60.0542 70.2422 60.0542 68.5262C60.0542 66.8942 61.1582 65.5022 62.7902 65.5022C63.8102 65.5022 64.3622 66.0062 64.5542 66.4742V62.7422H65.6702V70.3622C65.6702 70.9142 65.7182 71.3342 65.7302 71.4302H64.6382C64.6142 71.2982 64.5782 70.9982 64.5782 70.6502ZM70.0609 70.6022C71.0209 70.6022 71.8609 69.8822 71.8609 68.5382C71.8609 67.2062 71.0209 66.4862 70.0609 66.4862C69.1009 66.4862 68.2609 67.2062 68.2609 68.5382C68.2609 69.8822 69.1009 70.6022 70.0609 70.6022ZM70.0609 65.4782C71.7889 65.4782 73.0129 66.7862 73.0129 68.5382C73.0129 70.3022 71.7889 71.6102 70.0609 71.6102C68.3329 71.6102 67.1089 70.3022 67.1089 68.5382C67.1089 66.7862 68.3329 65.4782 70.0609 65.4782ZM75.5721 71.4302H74.4561V65.6582H75.5361V66.4262C75.8961 65.7902 76.6161 65.4902 77.2881 65.4902C78.0081 65.4902 78.7041 65.8382 79.0161 66.5822C79.4721 65.7542 80.2161 65.4902 80.9481 65.4902C81.9561 65.4902 82.9401 66.1742 82.9401 67.6862V71.4302H81.8241V67.8062C81.8241 67.0502 81.4521 66.4862 80.6001 66.4862C79.8081 66.4862 79.2681 67.1102 79.2681 67.9382V71.4302H78.1401V67.8062C78.1401 67.0622 77.7801 66.4862 76.9161 66.4862C76.1121 66.4862 75.5721 67.0862 75.5721 67.9502V71.4302ZM84.3852 69.8822C84.3852 68.8502 85.1412 68.2742 86.1372 68.1302L87.6972 67.9022C88.0452 67.8542 88.1412 67.6742 88.1412 67.4702C88.1412 66.9062 87.7692 66.4382 86.8932 66.4382C86.1012 66.4382 85.6572 66.9302 85.5852 67.6022L84.5052 67.3502C84.6252 66.2462 85.6212 65.4782 86.8692 65.4782C88.5972 65.4782 89.2692 66.4622 89.2692 67.5902V70.4822C89.2692 70.9862 89.3172 71.2862 89.3412 71.4302H88.2372C88.2132 71.2862 88.1772 71.0702 88.1772 70.6502C87.9252 71.0582 87.3492 71.6102 86.3172 71.6102C85.1412 71.6102 84.3852 70.7942 84.3852 69.8822ZM86.4732 70.6622C87.3972 70.6622 88.1412 70.2182 88.1412 68.9582V68.6942L86.3772 68.9582C85.8972 69.0302 85.5372 69.3062 85.5372 69.8222C85.5372 70.2542 85.8972 70.6622 86.4732 70.6622ZM92.1424 71.4302H91.0264V65.6582H92.1424V71.4302ZM90.7744 63.4742C90.7744 63.0182 91.1344 62.6582 91.5784 62.6582C92.0344 62.6582 92.3944 63.0182 92.3944 63.4742C92.3944 63.9182 92.0344 64.2782 91.5784 64.2782C91.1344 64.2782 90.7744 63.9182 90.7744 63.4742ZM95.1896 68.0942V71.4302H94.0616V65.6582H95.1656V66.4862C95.5856 65.7662 96.2696 65.4902 96.9416 65.4902C98.3216 65.4902 99.0056 66.4862 99.0056 67.7702V71.4302H97.8776V67.9622C97.8776 67.1582 97.5416 66.5102 96.5336 66.5102C95.6456 66.5102 95.1896 67.2182 95.1896 68.0942ZM100.68 70.6622C100.68 70.1942 101.04 69.8222 101.508 69.8222C101.976 69.8222 102.348 70.1942 102.348 70.6622C102.348 71.1302 101.976 71.4902 101.508 71.4902C101.04 71.4902 100.68 71.1302 100.68 70.6622ZM106.4 66.5222C105.488 66.5222 104.648 67.1942 104.648 68.5382C104.648 69.8582 105.476 70.5662 106.412 70.5662C107.492 70.5662 107.888 69.8342 108.02 69.3782L109.016 69.8102C108.74 70.6382 107.912 71.6102 106.412 71.6102C104.732 71.6102 103.496 70.2902 103.496 68.5382C103.496 66.7382 104.756 65.4782 106.4 65.4782C107.936 65.4782 108.728 66.4382 108.968 67.3142L107.948 67.7462C107.804 67.1822 107.384 66.5222 106.4 66.5222ZM112.752 70.6022C113.712 70.6022 114.552 69.8822 114.552 68.5382C114.552 67.2062 113.712 66.4862 112.752 66.4862C111.792 66.4862 110.952 67.2062 110.952 68.5382C110.952 69.8822 111.792 70.6022 112.752 70.6022ZM112.752 65.4782C114.48 65.4782 115.704 66.7862 115.704 68.5382C115.704 70.3022 114.48 71.6102 112.752 71.6102C111.024 71.6102 109.8 70.3022 109.8 68.5382C109.8 66.7862 111.024 65.4782 112.752 65.4782ZM118.264 71.4302H117.148V65.6582H118.228V66.4262C118.588 65.7902 119.308 65.4902 119.98 65.4902C120.7 65.4902 121.396 65.8382 121.708 66.5822C122.164 65.7542 122.908 65.4902 123.64 65.4902C124.648 65.4902 125.632 66.1742 125.632 67.6862V71.4302H124.516V67.8062C124.516 67.0502 124.144 66.4862 123.292 66.4862C122.5 66.4862 121.96 67.1102 121.96 67.9382V71.4302H120.832V67.8062C120.832 67.0622 120.472 66.4862 119.608 66.4862C118.804 66.4862 118.264 67.0862 118.264 67.9502V71.4302Z" fill="#11181C"/>
</g>
</g>
<defs>
<clipPath id="clip0_105_14273">
<rect width="160" height="96" fill="white" transform="translate(0 0.5)"/>
</clipPath>
<clipPath id="clip1_105_14273">
<rect width="218" height="124.352" fill="white" transform="translate(-29 0.5)"/>
</clipPath>
</defs>
</svg>
