<svg width="160" height="97" viewBox="0 0 160 97" fill="none" xmlns="http://www.w3.org/2000/svg">

<path d="M-1257 -1319H1833V-1321H-1257V-1319ZM1834 -1318V1499H1836V-1318H1834ZM1833 1500H-1257V1502H1833V1500ZM-1258 1499V-1318H-1260V1499H-1258ZM-1257 1500C-1257.55 1500 -1258 1499.55 -1258 1499H-1260C-1260 1500.66 -1258.66 1502 -1257 1502V1500ZM1834 1499C1834 1499.55 1833.55 1500 1833 1500V1502C1834.66 1502 1836 1500.66 1836 1499H1834ZM1833 -1319C1833.55 -1319 1834 -1318.55 1834 -1318H1836C1836 -1319.66 1834.66 -1321 1833 -1321V-1319ZM-1257 -1321C-1258.66 -1321 -1260 -1319.66 -1260 -1318H-1258C-1258 -1318.55 -1257.55 -1319 -1257 -1319V-1321Z" fill="white" fill-opacity="0.1"/>
<g clip-path="url(#clip0_105_14273)">
<g clip-path="url(#clip1_105_14273)">
<g filter="url(#filter0_b_105_14273)">
<rect x="144.477" y="13.4263" width="32" height="187.5" rx="16" transform="rotate(90 144.477 13.4263)" fill="#161616"/>
<rect x="144.977" y="12.9263" width="33" height="188.5" rx="16.5" transform="rotate(90 144.977 12.9263)" stroke="#EDEDED"/>
</g>
<path d="M-88.4353 30.0303V33.4263H-89.5633V24.7383H-88.4353V28.3263C-88.0153 27.7143 -87.3433 27.4863 -86.6833 27.4863C-85.3033 27.4863 -84.6193 28.4823 -84.6193 29.7663V33.4263H-85.7473V29.9583C-85.7473 29.1543 -86.0833 28.5063 -87.0913 28.5063C-87.9553 28.5063 -88.4113 29.1783 -88.4353 30.0303ZM-81.313 25.8303V27.6543H-80.065V28.6743H-81.313V31.6743C-81.313 32.2023 -81.097 32.4663 -80.509 32.4663C-80.365 32.4663 -80.161 32.4423 -80.065 32.4183V33.3783C-80.161 33.4143 -80.449 33.4863 -80.833 33.4863C-81.817 33.4863 -82.441 32.8863 -82.441 31.8423V28.6743H-83.545V27.6543H-83.233C-82.609 27.6543 -82.345 27.2703 -82.345 26.7663V25.8303H-81.313ZM-77.0474 25.8303V27.6543H-75.7994V28.6743H-77.0474V31.6743C-77.0474 32.2023 -76.8314 32.4663 -76.2434 32.4663C-76.0994 32.4663 -75.8954 32.4423 -75.7994 32.4183V33.3783C-75.8954 33.4143 -76.1834 33.4863 -76.5674 33.4863C-77.5514 33.4863 -78.1754 32.8863 -78.1754 31.8423V28.6743H-79.2794V27.6543H-78.9674C-78.3434 27.6543 -78.0794 27.2703 -78.0794 26.7663V25.8303H-77.0474ZM-73.295 35.7063H-74.411V27.6543H-73.319V28.5543C-73.007 27.9783 -72.323 27.5223 -71.387 27.5223C-69.659 27.5223 -68.735 28.8543 -68.735 30.5343C-68.735 32.2503 -69.731 33.5823 -71.423 33.5823C-72.311 33.5823 -72.983 33.1623 -73.295 32.6463V35.7063ZM-69.887 30.5343C-69.887 29.3823 -70.535 28.5183 -71.591 28.5183C-72.623 28.5183 -73.307 29.3823 -73.307 30.5343C-73.307 31.7223 -72.623 32.5743 -71.591 32.5743C-70.547 32.5743 -69.887 31.7223 -69.887 30.5343ZM-67.8377 31.9263L-66.8177 31.5663C-66.7457 32.1663 -66.2897 32.6463 -65.4737 32.6463C-64.8377 32.6463 -64.4897 32.2863 -64.4897 31.8783C-64.4897 31.5183 -64.7537 31.2423 -65.2337 31.1343L-66.2177 30.9183C-67.1177 30.7263 -67.6577 30.1143 -67.6577 29.2983C-67.6577 28.3143 -66.7337 27.4743 -65.6057 27.4743C-64.0217 27.4743 -63.5297 28.5063 -63.4097 29.0223L-64.4057 29.3943C-64.4537 29.0943 -64.6937 28.4343 -65.6057 28.4343C-66.1817 28.4343 -66.5657 28.8063 -66.5657 29.2023C-66.5657 29.5503 -66.3497 29.8023 -65.9057 29.8983L-64.9697 30.1023C-63.9257 30.3303 -63.3737 30.9663 -63.3737 31.8183C-63.3737 32.6343 -64.0577 33.6063 -65.4857 33.6063C-67.0697 33.6063 -67.7417 32.5863 -67.8377 31.9263ZM-61.9199 32.6583C-61.9199 32.1903 -61.5599 31.8183 -61.0919 31.8183C-60.6239 31.8183 -60.2519 32.1903 -60.2519 32.6583C-60.2519 33.1263 -60.6239 33.4863 -61.0919 33.4863C-61.5599 33.4863 -61.9199 33.1263 -61.9199 32.6583ZM-61.9319 28.4343C-61.9319 27.9663 -61.5719 27.5943 -61.1039 27.5943C-60.6359 27.5943 -60.2639 27.9663 -60.2639 28.4343C-60.2639 28.9023 -60.6359 29.2623 -61.1039 29.2623C-61.5719 29.2623 -61.9319 28.9023 -61.9319 28.4343ZM-54.1434 24.9183L-58.2594 33.4263H-59.3514L-55.2354 24.9183H-54.1434ZM-50.6161 24.9183L-54.7321 33.4263H-55.8241L-51.7081 24.9183H-50.6161ZM-51.1619 31.9263L-50.1419 31.5663C-50.0699 32.1663 -49.6139 32.6463 -48.7979 32.6463C-48.1619 32.6463 -47.8139 32.2863 -47.8139 31.8783C-47.8139 31.5183 -48.0779 31.2423 -48.5579 31.1343L-49.5419 30.9183C-50.4419 30.7263 -50.9819 30.1143 -50.9819 29.2983C-50.9819 28.3143 -50.0579 27.4743 -48.9299 27.4743C-47.3459 27.4743 -46.8539 28.5063 -46.7339 29.0223L-47.7299 29.3943C-47.7779 29.0943 -48.0179 28.4343 -48.9299 28.4343C-49.5059 28.4343 -49.8899 28.8063 -49.8899 29.2023C-49.8899 29.5503 -49.6739 29.8023 -49.2299 29.8983L-48.2939 30.1023C-47.2499 30.3303 -46.6979 30.9663 -46.6979 31.8183C-46.6979 32.6343 -47.3819 33.6063 -48.8099 33.6063C-50.3939 33.6063 -51.0659 32.5863 -51.1619 31.9263ZM-40.0827 35.7063H-41.1987V32.6103C-41.4987 33.1983 -42.1467 33.5823 -42.9987 33.5823C-44.6547 33.5823 -45.7347 32.2023 -45.7347 30.5223C-45.7347 28.8903 -44.7147 27.5103 -43.0227 27.5103C-42.0267 27.5103 -41.4147 28.0263 -41.1747 28.5423V27.6543H-40.0827V35.7063ZM-44.5827 30.5223C-44.5827 31.7103 -43.9227 32.5863 -42.8907 32.5863C-41.8707 32.5863 -41.1867 31.7103 -41.1867 30.5223C-41.1867 29.3343 -41.8707 28.5063 -42.8907 28.5063C-43.9347 28.5063 -44.5827 29.3343 -44.5827 30.5223ZM-33.3381 27.6543L-35.6421 33.4263H-36.7821L-39.1221 27.6543H-37.8501L-36.2061 32.1063L-34.5501 27.6543H-33.3381ZM-29.1788 28.6743H-30.5708V33.4263H-31.7348V28.6743H-32.8028V27.6543H-31.7348V26.6823C-31.7348 25.3983 -30.8828 24.7023 -29.8388 24.7023C-29.4548 24.7023 -29.2148 24.7863 -29.1668 24.8223V25.8303C-29.2268 25.8063 -29.3708 25.7583 -29.6588 25.7583C-30.0548 25.7583 -30.5708 25.9503 -30.5708 26.7423V27.6543H-29.1788V28.6743ZM-27.5319 30.5223C-27.5319 31.7103 -26.9199 32.5863 -25.8399 32.5863C-24.8079 32.5863 -24.1719 31.6863 -24.1719 30.4983C-24.1719 29.3103 -24.7959 28.4943 -25.8279 28.4943C-26.8599 28.4943 -27.5319 29.3343 -27.5319 30.5223ZM-24.1599 32.6463V32.5503C-24.4359 33.1023 -25.0479 33.5823 -25.9479 33.5823C-27.6399 33.5823 -28.6839 32.2383 -28.6839 30.5223C-28.6839 28.8903 -27.5799 27.4983 -25.9479 27.4983C-24.9279 27.4983 -24.3759 28.0023 -24.1839 28.4703V24.7383H-23.0679V32.3583C-23.0679 32.9103 -23.0199 33.3303 -23.0079 33.4263H-24.0999C-24.1239 33.2943 -24.1599 32.9943 -24.1599 32.6463ZM-17.4038 32.7303C-17.7158 33.3303 -18.4358 33.6063 -19.1078 33.6063C-20.4518 33.6063 -21.2678 32.5983 -21.2678 31.2903V27.6543H-20.1398V31.1223C-20.1398 31.9143 -19.7798 32.6103 -18.8318 32.6103C-17.9198 32.6103 -17.4638 32.0103 -17.4638 31.1343V27.6543H-16.3358V32.3583C-16.3358 32.8143 -16.2998 33.2223 -16.2758 33.4263H-17.3558C-17.3798 33.2943 -17.4038 32.9703 -17.4038 32.7303ZM-13.295 33.4263H-14.411V27.6543H-13.295V33.4263ZM-14.663 25.4703C-14.663 25.0143 -14.303 24.6543 -13.859 24.6543C-13.403 24.6543 -13.043 25.0143 -13.043 25.4703C-13.043 25.9143 -13.403 26.2743 -13.859 26.2743C-14.303 26.2743 -14.663 25.9143 -14.663 25.4703ZM-11.7358 31.8783C-11.7358 30.8463 -10.9798 30.2703 -9.98382 30.1263L-8.42382 29.8983C-8.07582 29.8503 -7.97982 29.6703 -7.97982 29.4663C-7.97982 28.9023 -8.35182 28.4343 -9.22782 28.4343C-10.0198 28.4343 -10.4638 28.9263 -10.5358 29.5983L-11.6158 29.3463C-11.4958 28.2423 -10.4998 27.4743 -9.25182 27.4743C-7.52382 27.4743 -6.85182 28.4583 -6.85182 29.5863V32.4783C-6.85182 32.9823 -6.80382 33.2823 -6.77982 33.4263H-7.88382C-7.90782 33.2823 -7.94382 33.0663 -7.94382 32.6463C-8.19582 33.0543 -8.77182 33.6063 -9.80382 33.6063C-10.9798 33.6063 -11.7358 32.7903 -11.7358 31.8783ZM-9.64782 32.6583C-8.72382 32.6583 -7.97982 32.2143 -7.97982 30.9543V30.6903L-9.74382 30.9543C-10.2238 31.0263 -10.5838 31.3023 -10.5838 31.8183C-10.5838 32.2503 -10.2238 32.6583 -9.64782 32.6583ZM-1.84257 27.6543H-0.678565L0.821435 31.9983L2.09343 27.6543H3.28144L1.40944 33.4263H0.245435L-1.29057 29.0343L-2.79057 33.4263H-3.97857L-5.87457 27.6543H-4.63857L-3.34257 31.9983L-1.84257 27.6543ZM4.97587 30.5223C4.97587 31.7103 5.58787 32.5863 6.66787 32.5863C7.69987 32.5863 8.33587 31.6863 8.33587 30.4983C8.33587 29.3103 7.71187 28.4943 6.67987 28.4943C5.64787 28.4943 4.97587 29.3343 4.97587 30.5223ZM8.34787 32.6463V32.5503C8.07187 33.1023 7.45987 33.5823 6.55987 33.5823C4.86787 33.5823 3.82387 32.2383 3.82387 30.5223C3.82387 28.8903 4.92787 27.4983 6.55987 27.4983C7.57987 27.4983 8.13187 28.0023 8.32387 28.4703V24.7383H9.43987V32.3583C9.43987 32.9103 9.48787 33.3303 9.49987 33.4263H8.40787C8.38387 33.2943 8.34787 32.9943 8.34787 32.6463ZM14.6106 27.6543H15.7746L17.2746 31.9983L18.5466 27.6543H19.7346L17.8626 33.4263H16.6986L15.1626 29.0343L13.6626 33.4263H12.4746L10.5786 27.6543H11.8146L13.1106 31.9983L14.6106 27.6543ZM22.0022 30.0903V33.4263H20.8742V27.6543H21.9782V28.4823C22.3982 27.7623 23.0822 27.4863 23.7542 27.4863C25.1342 27.4863 25.8182 28.4823 25.8182 29.7663V33.4263H24.6902V29.9583C24.6902 29.1543 24.3542 28.5063 23.3462 28.5063C22.4582 28.5063 22.0022 29.2143 22.0022 30.0903ZM28.7405 30.0903V33.4263H27.6125V27.6543H28.7165V28.4823C29.1365 27.7623 29.8205 27.4863 30.4925 27.4863C31.8725 27.4863 32.5565 28.4823 32.5565 29.7663V33.4263H31.4285V29.9583C31.4285 29.1543 31.0925 28.5063 30.0845 28.5063C29.1965 28.5063 28.7405 29.2143 28.7405 30.0903ZM33.9907 31.8783C33.9907 30.8463 34.7467 30.2703 35.7427 30.1263L37.3027 29.8983C37.6507 29.8503 37.7467 29.6703 37.7467 29.4663C37.7467 28.9023 37.3747 28.4343 36.4987 28.4343C35.7067 28.4343 35.2627 28.9263 35.1907 29.5983L34.1107 29.3463C34.2307 28.2423 35.2267 27.4743 36.4747 27.4743C38.2027 27.4743 38.8747 28.4583 38.8747 29.5863V32.4783C38.8747 32.9823 38.9227 33.2823 38.9467 33.4263H37.8427C37.8187 33.2823 37.7827 33.0663 37.7827 32.6463C37.5307 33.0543 36.9547 33.6063 35.9227 33.6063C34.7467 33.6063 33.9907 32.7903 33.9907 31.8783ZM36.0787 32.6583C37.0027 32.6583 37.7467 32.2143 37.7467 30.9543V30.6903L35.9827 30.9543C35.5027 31.0263 35.1427 31.3023 35.1427 31.8183C35.1427 32.2503 35.5027 32.6583 36.0787 32.6583ZM41.304 30.5223C41.304 31.7103 41.916 32.5863 42.996 32.5863C44.028 32.5863 44.664 31.6863 44.664 30.4983C44.664 29.3103 44.04 28.4943 43.008 28.4943C41.976 28.4943 41.304 29.3343 41.304 30.5223ZM44.676 32.6463V32.5503C44.4 33.1023 43.788 33.5823 42.888 33.5823C41.196 33.5823 40.152 32.2383 40.152 30.5223C40.152 28.8903 41.256 27.4983 42.888 27.4983C43.908 27.4983 44.46 28.0023 44.652 28.4703V24.7383H45.768V32.3583C45.768 32.9103 45.816 33.3303 45.828 33.4263H44.736C44.712 33.2943 44.676 32.9943 44.676 32.6463ZM47.3267 31.8783C47.3267 30.8463 48.0827 30.2703 49.0787 30.1263L50.6387 29.8983C50.9867 29.8503 51.0827 29.6703 51.0827 29.4663C51.0827 28.9023 50.7107 28.4343 49.8347 28.4343C49.0427 28.4343 48.5987 28.9263 48.5267 29.5983L47.4467 29.3463C47.5667 28.2423 48.5627 27.4743 49.8107 27.4743C51.5387 27.4743 52.2107 28.4583 52.2107 29.5863V32.4783C52.2107 32.9823 52.2587 33.2823 52.2827 33.4263H51.1787C51.1547 33.2823 51.1187 33.0663 51.1187 32.6463C50.8667 33.0543 50.2907 33.6063 49.2587 33.6063C48.0827 33.6063 47.3267 32.7903 47.3267 31.8783ZM49.4147 32.6583C50.3387 32.6583 51.0827 32.2143 51.0827 30.9543V30.6903L49.3187 30.9543C48.8387 31.0263 48.4787 31.3023 48.4787 31.8183C48.4787 32.2503 48.8387 32.6583 49.4147 32.6583ZM54.6399 30.5223C54.6399 31.7103 55.2519 32.5863 56.3319 32.5863C57.3639 32.5863 57.9999 31.6863 57.9999 30.4983C57.9999 29.3103 57.3759 28.4943 56.3439 28.4943C55.3119 28.4943 54.6399 29.3343 54.6399 30.5223ZM58.0119 32.6463V32.5503C57.7359 33.1023 57.1239 33.5823 56.2239 33.5823C54.5319 33.5823 53.4879 32.2383 53.4879 30.5223C53.4879 28.8903 54.5919 27.4983 56.2239 27.4983C57.2439 27.4983 57.7959 28.0023 57.9879 28.4703V24.7383H59.1039V32.3583C59.1039 32.9103 59.1519 33.3303 59.1639 33.4263H58.0719C58.0479 33.2943 58.0119 32.9943 58.0119 32.6463ZM60.9026 32.6583C60.9026 32.1903 61.2626 31.8183 61.7306 31.8183C62.1986 31.8183 62.5706 32.1903 62.5706 32.6583C62.5706 33.1263 62.1986 33.4863 61.7306 33.4863C61.2626 33.4863 60.9026 33.1263 60.9026 32.6583ZM63.8342 31.9263L64.8542 31.5663C64.9262 32.1663 65.3822 32.6463 66.1982 32.6463C66.8342 32.6463 67.1822 32.2863 67.1822 31.8783C67.1822 31.5183 66.9182 31.2423 66.4382 31.1343L65.4542 30.9183C64.5542 30.7263 64.0142 30.1143 64.0142 29.2983C64.0142 28.3143 64.9382 27.4743 66.0662 27.4743C67.6502 27.4743 68.1422 28.5063 68.2622 29.0223L67.2662 29.3943C67.2182 29.0943 66.9782 28.4343 66.0662 28.4343C65.4902 28.4343 65.1062 28.8063 65.1062 29.2023C65.1062 29.5503 65.3222 29.8023 65.7662 29.8983L66.7022 30.1023C67.7462 30.3303 68.2982 30.9663 68.2982 31.8183C68.2982 32.6343 67.6142 33.6063 66.1862 33.6063C64.6022 33.6063 63.9302 32.5863 63.8342 31.9263ZM73.5454 32.7303C73.2334 33.3303 72.5134 33.6063 71.8414 33.6063C70.4974 33.6063 69.6814 32.5983 69.6814 31.2903V27.6543H70.8094V31.1223C70.8094 31.9143 71.1694 32.6103 72.1174 32.6103C73.0294 32.6103 73.4854 32.0103 73.4854 31.1343V27.6543H74.6134V32.3583C74.6134 32.8143 74.6494 33.2223 74.6734 33.4263H73.5934C73.5694 33.2943 73.5454 32.9703 73.5454 32.7303ZM77.6542 35.7063H76.5382V27.6543H77.6302V28.5543C77.9422 27.9783 78.6262 27.5223 79.5622 27.5223C81.2902 27.5223 82.2142 28.8543 82.2142 30.5343C82.2142 32.2503 81.2182 33.5823 79.5262 33.5823C78.6382 33.5823 77.9662 33.1623 77.6542 32.6463V35.7063ZM81.0622 30.5343C81.0622 29.3823 80.4142 28.5183 79.3582 28.5183C78.3262 28.5183 77.6422 29.3823 77.6422 30.5343C77.6422 31.7223 78.3262 32.5743 79.3582 32.5743C80.4022 32.5743 81.0622 31.7223 81.0622 30.5343ZM83.2915 31.8783C83.2915 30.8463 84.0475 30.2703 85.0435 30.1263L86.6035 29.8983C86.9515 29.8503 87.0475 29.6703 87.0475 29.4663C87.0475 28.9023 86.6755 28.4343 85.7995 28.4343C85.0075 28.4343 84.5635 28.9263 84.4915 29.5983L83.4115 29.3463C83.5315 28.2423 84.5275 27.4743 85.7755 27.4743C87.5035 27.4743 88.1755 28.4583 88.1755 29.5863V32.4783C88.1755 32.9823 88.2235 33.2823 88.2475 33.4263H87.1435C87.1195 33.2823 87.0835 33.0663 87.0835 32.6463C86.8315 33.0543 86.2555 33.6063 85.2235 33.6063C84.0475 33.6063 83.2915 32.7903 83.2915 31.8783ZM85.3795 32.6583C86.3035 32.6583 87.0475 32.2143 87.0475 30.9543V30.6903L85.2835 30.9543C84.8035 31.0263 84.4435 31.3023 84.4435 31.8183C84.4435 32.2503 84.8035 32.6583 85.3795 32.6583ZM91.0488 33.4263H89.9328V24.7383H91.0488V28.4703C91.3248 27.9543 91.9968 27.4863 92.9568 27.4863C94.7088 27.4863 95.6088 28.8303 95.6088 30.5103C95.6088 32.2263 94.6368 33.5823 92.9208 33.5823C92.0688 33.5823 91.4088 33.2103 91.0488 32.5863V33.4263ZM94.4568 30.5103C94.4568 29.2623 93.7968 28.4823 92.7528 28.4823C91.7568 28.4823 91.0368 29.2623 91.0368 30.5103C91.0368 31.7583 91.7568 32.5743 92.7528 32.5743C93.7848 32.5743 94.4568 31.7583 94.4568 30.5103ZM96.6861 31.8783C96.6861 30.8463 97.4421 30.2703 98.4381 30.1263L99.9981 29.8983C100.346 29.8503 100.442 29.6703 100.442 29.4663C100.442 28.9023 100.07 28.4343 99.1941 28.4343C98.4021 28.4343 97.9581 28.9263 97.8861 29.5983L96.8061 29.3463C96.9261 28.2423 97.9221 27.4743 99.1701 27.4743C100.898 27.4743 101.57 28.4583 101.57 29.5863V32.4783C101.57 32.9823 101.618 33.2823 101.642 33.4263H100.538C100.514 33.2823 100.478 33.0663 100.478 32.6463C100.226 33.0543 99.6501 33.6063 98.6181 33.6063C97.4421 33.6063 96.6861 32.7903 96.6861 31.8783ZM98.7741 32.6583C99.6981 32.6583 100.442 32.2143 100.442 30.9543V30.6903L98.6781 30.9543C98.1981 31.0263 97.8381 31.3023 97.8381 31.8183C97.8381 32.2503 98.1981 32.6583 98.7741 32.6583ZM102.787 31.9263L103.807 31.5663C103.879 32.1663 104.335 32.6463 105.151 32.6463C105.787 32.6463 106.135 32.2863 106.135 31.8783C106.135 31.5183 105.871 31.2423 105.391 31.1343L104.407 30.9183C103.507 30.7263 102.967 30.1143 102.967 29.2983C102.967 28.3143 103.891 27.4743 105.019 27.4743C106.603 27.4743 107.095 28.5063 107.215 29.0223L106.219 29.3943C106.171 29.0943 105.931 28.4343 105.019 28.4343C104.443 28.4343 104.059 28.8063 104.059 29.2023C104.059 29.5503 104.275 29.8023 104.719 29.8983L105.655 30.1023C106.699 30.3303 107.251 30.9663 107.251 31.8183C107.251 32.6343 106.567 33.6063 105.139 33.6063C103.555 33.6063 102.883 32.5863 102.787 31.9263ZM109.426 29.9463H112.582C112.558 29.1183 112.018 28.4703 110.998 28.4703C110.05 28.4703 109.474 29.2023 109.426 29.9463ZM112.75 31.4463L113.722 31.7823C113.398 32.8023 112.474 33.6063 111.13 33.6063C109.582 33.6063 108.226 32.4783 108.226 30.5223C108.226 28.7103 109.534 27.4743 110.986 27.4743C112.762 27.4743 113.758 28.6983 113.758 30.4983C113.758 30.6423 113.746 30.7863 113.734 30.8583H109.39C109.414 31.8903 110.158 32.6103 111.13 32.6103C112.066 32.6103 112.534 32.0943 112.75 31.4463ZM114.903 32.6583C114.903 32.1903 115.263 31.8183 115.731 31.8183C116.199 31.8183 116.571 32.1903 116.571 32.6583C116.571 33.1263 116.199 33.4863 115.731 33.4863C115.263 33.4863 114.903 33.1263 114.903 32.6583ZM120.622 28.5183C119.71 28.5183 118.87 29.1903 118.87 30.5343C118.87 31.8543 119.698 32.5623 120.634 32.5623C121.714 32.5623 122.11 31.8303 122.242 31.3743L123.238 31.8063C122.962 32.6343 122.134 33.6063 120.634 33.6063C118.954 33.6063 117.718 32.2863 117.718 30.5343C117.718 28.7343 118.978 27.4743 120.622 27.4743C122.158 27.4743 122.95 28.4343 123.19 29.3103L122.17 29.7423C122.026 29.1783 121.606 28.5183 120.622 28.5183ZM126.975 32.5983C127.935 32.5983 128.775 31.8783 128.775 30.5343C128.775 29.2023 127.935 28.4823 126.975 28.4823C126.015 28.4823 125.175 29.2023 125.175 30.5343C125.175 31.8783 126.015 32.5983 126.975 32.5983ZM126.975 27.4743C128.703 27.4743 129.927 28.7823 129.927 30.5343C129.927 32.2983 128.703 33.6063 126.975 33.6063C125.247 33.6063 124.023 32.2983 124.023 30.5343C124.023 28.7823 125.247 27.4743 126.975 27.4743Z" fill="#EDEDED"/>
<g opacity="0.5">
<g filter="url(#filter1_b_105_14273)">
<rect x="144.477" y="51.9263" width="32" height="187.5" rx="16" transform="rotate(90 144.477 51.9263)" fill="#161616"/>
<rect x="144.977" y="51.4263" width="33" height="188.5" rx="16.5" transform="rotate(90 144.977 51.4263)" stroke="#3E3E3E" stroke-dasharray="2 2"/>
</g>
<path d="M1.56468 68.5303V71.9263H0.436685V63.2383H1.56468V66.8263C1.98468 66.2143 2.65668 65.9863 3.31668 65.9863C4.69668 65.9863 5.38068 66.9823 5.38068 68.2663V71.9263H4.25268V68.4583C4.25268 67.6543 3.91668 67.0063 2.90868 67.0063C2.04468 67.0063 1.58868 67.6783 1.56468 68.5303ZM8.68697 64.3303V66.1543H9.93497V67.1743H8.68697V70.1743C8.68697 70.7023 8.90297 70.9663 9.49097 70.9663C9.63497 70.9663 9.83897 70.9423 9.93497 70.9183V71.8783C9.83897 71.9143 9.55097 71.9863 9.16697 71.9863C8.18297 71.9863 7.55897 71.3863 7.55897 70.3423V67.1743H6.45497V66.1543H6.76697C7.39097 66.1543 7.65497 65.7703 7.65497 65.2663V64.3303H8.68697ZM12.9526 64.3303V66.1543H14.2006V67.1743H12.9526V70.1743C12.9526 70.7023 13.1686 70.9663 13.7566 70.9663C13.9006 70.9663 14.1046 70.9423 14.2006 70.9183V71.8783C14.1046 71.9143 13.8166 71.9863 13.4326 71.9863C12.4486 71.9863 11.8246 71.3863 11.8246 70.3423V67.1743H10.7206V66.1543H11.0326C11.6566 66.1543 11.9206 65.7703 11.9206 65.2663V64.3303H12.9526ZM16.705 74.2063H15.589V66.1543H16.681V67.0543C16.993 66.4783 17.677 66.0223 18.613 66.0223C20.341 66.0223 21.265 67.3543 21.265 69.0343C21.265 70.7503 20.269 72.0823 18.577 72.0823C17.689 72.0823 17.017 71.6623 16.705 71.1463V74.2063ZM20.113 69.0343C20.113 67.8823 19.465 67.0183 18.409 67.0183C17.377 67.0183 16.693 67.8823 16.693 69.0343C16.693 70.2223 17.377 71.0743 18.409 71.0743C19.453 71.0743 20.113 70.2223 20.113 69.0343ZM22.1623 70.4263L23.1823 70.0663C23.2543 70.6663 23.7103 71.1463 24.5263 71.1463C25.1623 71.1463 25.5103 70.7863 25.5103 70.3783C25.5103 70.0183 25.2463 69.7423 24.7663 69.6343L23.7823 69.4183C22.8823 69.2263 22.3423 68.6143 22.3423 67.7983C22.3423 66.8143 23.2663 65.9743 24.3943 65.9743C25.9783 65.9743 26.4703 67.0063 26.5903 67.5223L25.5943 67.8943C25.5463 67.5943 25.3063 66.9343 24.3943 66.9343C23.8183 66.9343 23.4343 67.3063 23.4343 67.7023C23.4343 68.0503 23.6503 68.3023 24.0943 68.3983L25.0303 68.6023C26.0743 68.8303 26.6263 69.4663 26.6263 70.3183C26.6263 71.1343 25.9423 72.1063 24.5143 72.1063C22.9303 72.1063 22.2583 71.0863 22.1623 70.4263ZM28.0801 71.1583C28.0801 70.6903 28.4401 70.3183 28.9081 70.3183C29.3761 70.3183 29.7481 70.6903 29.7481 71.1583C29.7481 71.6263 29.3761 71.9863 28.9081 71.9863C28.4401 71.9863 28.0801 71.6263 28.0801 71.1583ZM28.0681 66.9343C28.0681 66.4663 28.4281 66.0943 28.8961 66.0943C29.3641 66.0943 29.7361 66.4663 29.7361 66.9343C29.7361 67.4023 29.3641 67.7623 28.8961 67.7623C28.4281 67.7623 28.0681 67.4023 28.0681 66.9343ZM35.8566 63.4183L31.7406 71.9263H30.6486L34.7646 63.4183H35.8566ZM39.3839 63.4183L35.2679 71.9263H34.1759L38.2919 63.4183H39.3839ZM41.6618 74.3383H40.4258L41.8658 71.2903L39.3818 66.1543H40.6778L42.4778 70.1383L44.2058 66.1543H45.4178L41.6618 74.3383ZM48.7407 71.0983C49.7007 71.0983 50.5407 70.3783 50.5407 69.0343C50.5407 67.7023 49.7007 66.9823 48.7407 66.9823C47.7807 66.9823 46.9407 67.7023 46.9407 69.0343C46.9407 70.3783 47.7807 71.0983 48.7407 71.0983ZM48.7407 65.9743C50.4687 65.9743 51.6927 67.2823 51.6927 69.0343C51.6927 70.7983 50.4687 72.1063 48.7407 72.1063C47.0127 72.1063 45.7887 70.7983 45.7887 69.0343C45.7887 67.2823 47.0127 65.9743 48.7407 65.9743ZM56.8813 71.2303C56.5693 71.8303 55.8493 72.1063 55.1773 72.1063C53.8333 72.1063 53.0173 71.0983 53.0173 69.7903V66.1543H54.1453V69.6223C54.1453 70.4143 54.5053 71.1103 55.4533 71.1103C56.3653 71.1103 56.8213 70.5103 56.8213 69.6343V66.1543H57.9493V70.8583C57.9493 71.3143 57.9853 71.7223 58.0093 71.9263H56.9293C56.9053 71.7943 56.8813 71.4703 56.8813 71.2303ZM63.0782 66.0943V67.2943C62.9102 67.2703 62.7422 67.2583 62.5862 67.2583C61.6382 67.2583 61.0022 67.7623 61.0022 69.0343V71.9263H59.8742V66.1543H60.9782V67.1623C61.3982 66.2743 62.1182 66.0583 62.7062 66.0583C62.8622 66.0583 63.0182 66.0823 63.0782 66.0943ZM64.8938 69.0223C64.8938 70.2103 65.5058 71.0863 66.5858 71.0863C67.6178 71.0863 68.2538 70.1863 68.2538 68.9983C68.2538 67.8103 67.6298 66.9943 66.5978 66.9943C65.5658 66.9943 64.8938 67.8343 64.8938 69.0223ZM68.2658 71.1463V71.0503C67.9898 71.6023 67.3778 72.0823 66.4778 72.0823C64.7858 72.0823 63.7418 70.7383 63.7418 69.0223C63.7418 67.3903 64.8458 65.9983 66.4778 65.9983C67.4978 65.9983 68.0498 66.5023 68.2418 66.9703V63.2383H69.3578V70.8583C69.3578 71.4103 69.4058 71.8303 69.4178 71.9263H68.3258C68.3018 71.7943 68.2658 71.4943 68.2658 71.1463ZM73.7485 71.0983C74.7085 71.0983 75.5485 70.3783 75.5485 69.0343C75.5485 67.7023 74.7085 66.9823 73.7485 66.9823C72.7885 66.9823 71.9485 67.7023 71.9485 69.0343C71.9485 70.3783 72.7885 71.0983 73.7485 71.0983ZM73.7485 65.9743C75.4765 65.9743 76.7005 67.2823 76.7005 69.0343C76.7005 70.7983 75.4765 72.1063 73.7485 72.1063C72.0205 72.1063 70.7965 70.7983 70.7965 69.0343C70.7965 67.2823 72.0205 65.9743 73.7485 65.9743ZM79.2597 71.9263H78.1437V66.1543H79.2237V66.9223C79.5837 66.2863 80.3037 65.9863 80.9757 65.9863C81.6957 65.9863 82.3917 66.3343 82.7037 67.0783C83.1597 66.2503 83.9037 65.9863 84.6357 65.9863C85.6437 65.9863 86.6277 66.6703 86.6277 68.1823V71.9263H85.5117V68.3023C85.5117 67.5463 85.1397 66.9823 84.2877 66.9823C83.4957 66.9823 82.9557 67.6063 82.9557 68.4343V71.9263H81.8277V68.3023C81.8277 67.5583 81.4677 66.9823 80.6037 66.9823C79.7997 66.9823 79.2597 67.5823 79.2597 68.4463V71.9263ZM88.0728 70.3783C88.0728 69.3463 88.8288 68.7703 89.8248 68.6263L91.3848 68.3983C91.7328 68.3503 91.8288 68.1703 91.8288 67.9663C91.8288 67.4023 91.4568 66.9343 90.5808 66.9343C89.7888 66.9343 89.3448 67.4263 89.2728 68.0983L88.1928 67.8463C88.3128 66.7423 89.3088 65.9743 90.5568 65.9743C92.2848 65.9743 92.9568 66.9583 92.9568 68.0863V70.9783C92.9568 71.4823 93.0048 71.7823 93.0288 71.9263H91.9248C91.9008 71.7823 91.8648 71.5663 91.8648 71.1463C91.6128 71.5543 91.0368 72.1063 90.0048 72.1063C88.8288 72.1063 88.0728 71.2903 88.0728 70.3783ZM90.1608 71.1583C91.0848 71.1583 91.8288 70.7143 91.8288 69.4543V69.1903L90.0648 69.4543C89.5848 69.5263 89.2248 69.8023 89.2248 70.3183C89.2248 70.7503 89.5848 71.1583 90.1608 71.1583ZM95.83 71.9263H94.714V66.1543H95.83V71.9263ZM94.462 63.9703C94.462 63.5143 94.822 63.1543 95.266 63.1543C95.722 63.1543 96.082 63.5143 96.082 63.9703C96.082 64.4143 95.722 64.7743 95.266 64.7743C94.822 64.7743 94.462 64.4143 94.462 63.9703ZM98.8772 68.5903V71.9263H97.7492V66.1543H98.8532V66.9823C99.2732 66.2623 99.9572 65.9863 100.629 65.9863C102.009 65.9863 102.693 66.9823 102.693 68.2663V71.9263H101.565V68.4583C101.565 67.6543 101.229 67.0063 100.221 67.0063C99.3332 67.0063 98.8772 67.7143 98.8772 68.5903ZM104.367 71.1583C104.367 70.6903 104.727 70.3183 105.195 70.3183C105.663 70.3183 106.035 70.6903 106.035 71.1583C106.035 71.6263 105.663 71.9863 105.195 71.9863C104.727 71.9863 104.367 71.6263 104.367 71.1583ZM110.087 67.0183C109.175 67.0183 108.335 67.6903 108.335 69.0343C108.335 70.3543 109.163 71.0623 110.099 71.0623C111.179 71.0623 111.575 70.3303 111.707 69.8743L112.703 70.3063C112.427 71.1343 111.599 72.1063 110.099 72.1063C108.419 72.1063 107.183 70.7863 107.183 69.0343C107.183 67.2343 108.443 65.9743 110.087 65.9743C111.623 65.9743 112.415 66.9343 112.655 67.8103L111.635 68.2423C111.491 67.6783 111.071 67.0183 110.087 67.0183ZM116.44 71.0983C117.4 71.0983 118.24 70.3783 118.24 69.0343C118.24 67.7023 117.4 66.9823 116.44 66.9823C115.48 66.9823 114.64 67.7023 114.64 69.0343C114.64 70.3783 115.48 71.0983 116.44 71.0983ZM116.44 65.9743C118.168 65.9743 119.392 67.2823 119.392 69.0343C119.392 70.7983 118.168 72.1063 116.44 72.1063C114.712 72.1063 113.488 70.7983 113.488 69.0343C113.488 67.2823 114.712 65.9743 116.44 65.9743ZM121.951 71.9263H120.835V66.1543H121.915V66.9223C122.275 66.2863 122.995 65.9863 123.667 65.9863C124.387 65.9863 125.083 66.3343 125.395 67.0783C125.851 66.2503 126.595 65.9863 127.327 65.9863C128.335 65.9863 129.319 66.6703 129.319 68.1823V71.9263H128.203V68.3023C128.203 67.5463 127.831 66.9823 126.979 66.9823C126.187 66.9823 125.647 67.6063 125.647 68.4343V71.9263H124.519V68.3023C124.519 67.5583 124.159 66.9823 123.295 66.9823C122.491 66.9823 121.951 67.5823 121.951 68.4463V71.9263Z" fill="#EDEDED"/>
</g>
</g>
</g>
<defs>
<filter id="filter0_b_105_14273" x="-57.0233" y="-0.57373" width="215.5" height="60" filterUnits="userSpaceOnUse" color-interpolation-filters="sRGB">
<feFlood flood-opacity="0" result="BackgroundImageFix"/>
<feGaussianBlur in="BackgroundImageFix" stdDeviation="6.5"/>
<feComposite in2="SourceAlpha" operator="in" result="effect1_backgroundBlur_105_14273"/>
<feBlend mode="normal" in="SourceGraphic" in2="effect1_backgroundBlur_105_14273" result="shape"/>
</filter>
<filter id="filter1_b_105_14273" x="-57.0233" y="37.9263" width="215.5" height="60" filterUnits="userSpaceOnUse" color-interpolation-filters="sRGB">
<feFlood flood-opacity="0" result="BackgroundImageFix"/>
<feGaussianBlur in="BackgroundImageFix" stdDeviation="6.5"/>
<feComposite in2="SourceAlpha" operator="in" result="effect1_backgroundBlur_105_14273"/>
<feBlend mode="normal" in="SourceGraphic" in2="effect1_backgroundBlur_105_14273" result="shape"/>
</filter>
<clipPath id="clip0_105_14273">
<rect width="160" height="96" fill="white" transform="translate(0.00012207 0.5)"/>
</clipPath>
<clipPath id="clip1_105_14273">
<rect width="218" height="124.352" fill="white" transform="translate(-28.9999 0.5)"/>
</clipPath>
</defs>
</svg>
