<svg width="160" height="96" viewBox="0 0 160 96" fill="none" xmlns="http://www.w3.org/2000/svg">



<g clip-path="url(#clip0_105_14273)">

<rect x="27" y="13.4263" width="106" height="31" rx="15.5" fill="#161616"/>
<rect x="27" y="13.4263" width="106" height="31" rx="15.5" stroke="#EDEDED"/>
<path d="M41.2462 31.8823H42.9862C44.5582 31.8823 45.8782 30.8263 45.8782 28.6903C45.8782 26.5423 44.5822 25.4623 43.0102 25.4623H41.2462V31.8823ZM43.0222 32.9263H40.0702V24.4183H43.0462C45.2062 24.4183 47.0902 25.8943 47.0902 28.6903C47.0902 31.4743 45.1822 32.9263 43.0222 32.9263ZM49.319 29.4463H52.475C52.451 28.6183 51.911 27.9703 50.891 27.9703C49.943 27.9703 49.367 28.7023 49.319 29.4463ZM52.643 30.9463L53.615 31.2823C53.291 32.3023 52.367 33.1063 51.023 33.1063C49.475 33.1063 48.119 31.9783 48.119 30.0223C48.119 28.2103 49.427 26.9743 50.879 26.9743C52.655 26.9743 53.651 28.1983 53.651 29.9983C53.651 30.1423 53.639 30.2863 53.627 30.3583H49.283C49.307 31.3903 50.051 32.1103 51.023 32.1103C51.959 32.1103 52.427 31.5943 52.643 30.9463ZM55.7629 30.0223C55.7629 31.2103 56.3749 32.0863 57.4549 32.0863C58.4869 32.0863 59.1229 31.1863 59.1229 29.9983C59.1229 28.8103 58.4989 27.9943 57.4669 27.9943C56.4349 27.9943 55.7629 28.8343 55.7629 30.0223ZM59.1349 32.1463V32.0503C58.8589 32.6023 58.2469 33.0823 57.3469 33.0823C55.6549 33.0823 54.6109 31.7383 54.6109 30.0223C54.6109 28.3903 55.7149 26.9983 57.3469 26.9983C58.3669 26.9983 58.9189 27.5023 59.1109 27.9703V24.2383H60.2269V31.8583C60.2269 32.4103 60.2749 32.8303 60.2869 32.9263H59.1949C59.1709 32.7943 59.1349 32.4943 59.1349 32.1463ZM63.2615 32.9263H62.1455V27.1543H63.2615V32.9263ZM61.8935 24.9703C61.8935 24.5143 62.2535 24.1543 62.6975 24.1543C63.1535 24.1543 63.5135 24.5143 63.5135 24.9703C63.5135 25.4143 63.1535 25.7743 62.6975 25.7743C62.2535 25.7743 61.8935 25.4143 61.8935 24.9703ZM67.6047 28.0183C66.6927 28.0183 65.8527 28.6903 65.8527 30.0343C65.8527 31.3543 66.6807 32.0623 67.6167 32.0623C68.6967 32.0623 69.0927 31.3303 69.2247 30.8743L70.2207 31.3063C69.9447 32.1343 69.1167 33.1063 67.6167 33.1063C65.9367 33.1063 64.7007 31.7863 64.7007 30.0343C64.7007 28.2343 65.9607 26.9743 67.6047 26.9743C69.1407 26.9743 69.9327 27.9343 70.1727 28.8103L69.1527 29.2423C69.0087 28.6783 68.5887 28.0183 67.6047 28.0183ZM71.1254 31.3783C71.1254 30.3463 71.8814 29.7703 72.8774 29.6263L74.4374 29.3983C74.7854 29.3503 74.8814 29.1703 74.8814 28.9663C74.8814 28.4023 74.5094 27.9343 73.6334 27.9343C72.8414 27.9343 72.3974 28.4263 72.3254 29.0983L71.2454 28.8463C71.3654 27.7423 72.3614 26.9743 73.6094 26.9743C75.3374 26.9743 76.0094 27.9583 76.0094 29.0863V31.9783C76.0094 32.4823 76.0574 32.7823 76.0814 32.9263H74.9774C74.9534 32.7823 74.9174 32.5663 74.9174 32.1463C74.6654 32.5543 74.0894 33.1063 73.0574 33.1063C71.8814 33.1063 71.1254 32.2903 71.1254 31.3783ZM73.2134 32.1583C74.1374 32.1583 74.8814 31.7143 74.8814 30.4543V30.1903L73.1174 30.4543C72.6374 30.5263 72.2774 30.8023 72.2774 31.3183C72.2774 31.7503 72.6374 32.1583 73.2134 32.1583ZM79.2786 25.3303V27.1543H80.5266V28.1743H79.2786V31.1743C79.2786 31.7023 79.4946 31.9663 80.0826 31.9663C80.2266 31.9663 80.4306 31.9423 80.5266 31.9183V32.8783C80.4306 32.9143 80.1426 32.9863 79.7586 32.9863C78.7746 32.9863 78.1506 32.3863 78.1506 31.3423V28.1743H77.0466V27.1543H77.3586C77.9826 27.1543 78.2466 26.7703 78.2466 26.2663V25.3303H79.2786ZM82.7057 29.4463H85.8617C85.8377 28.6183 85.2977 27.9703 84.2777 27.9703C83.3297 27.9703 82.7537 28.7023 82.7057 29.4463ZM86.0297 30.9463L87.0017 31.2823C86.6777 32.3023 85.7537 33.1063 84.4097 33.1063C82.8617 33.1063 81.5057 31.9783 81.5057 30.0223C81.5057 28.2103 82.8137 26.9743 84.2657 26.9743C86.0417 26.9743 87.0377 28.1983 87.0377 29.9983C87.0377 30.1423 87.0257 30.2863 87.0137 30.3583H82.6697C82.6937 31.3903 83.4377 32.1103 84.4097 32.1103C85.3457 32.1103 85.8137 31.5943 86.0297 30.9463ZM89.1496 30.0223C89.1496 31.2103 89.7616 32.0863 90.8416 32.0863C91.8736 32.0863 92.5096 31.1863 92.5096 29.9983C92.5096 28.8103 91.8856 27.9943 90.8536 27.9943C89.8216 27.9943 89.1496 28.8343 89.1496 30.0223ZM92.5216 32.1463V32.0503C92.2456 32.6023 91.6336 33.0823 90.7336 33.0823C89.0416 33.0823 87.9976 31.7383 87.9976 30.0223C87.9976 28.3903 89.1016 26.9983 90.7336 26.9983C91.7536 26.9983 92.3056 27.5023 92.4976 27.9703V24.2383H93.6136V31.8583C93.6136 32.4103 93.6616 32.8303 93.6736 32.9263H92.5816C92.5576 32.7943 92.5216 32.4943 92.5216 32.1463ZM99.8523 32.9263H98.6523V24.4183H99.8523V32.9263ZM103.192 28.3903H104.896C105.916 28.3903 106.54 27.8263 106.54 26.9503C106.54 26.0503 105.916 25.4743 104.896 25.4743H103.192V28.3903ZM105.112 29.4463H103.192V32.9263H102.016V24.4183H105.112C106.684 24.4183 107.74 25.5103 107.74 26.9383C107.74 28.3783 106.684 29.4463 105.112 29.4463ZM114 27.1543L111.696 32.9263H110.556L108.216 27.1543H109.488L111.132 31.6063L112.788 27.1543H114ZM114.539 31.1743V29.8183L117.875 25.1503H119.495V30.0823H120.827V31.1743H119.495V32.9263H118.355V31.1743H114.539ZM118.355 30.0823V26.2783L115.619 30.0823H118.355Z" fill="#EDEDED"/>
<rect x="56.5" y="52.4263" width="47" height="31" rx="15.5" fill="#161616"/>
<rect x="56.5" y="52.4263" width="47" height="31" rx="15.5" stroke="#EDEDED"/>
<path d="M70.28 71.9263H69.08V63.4183H70.28V71.9263ZM73.6193 67.3903H75.3233C76.3433 67.3903 76.9673 66.8263 76.9673 65.9503C76.9673 65.0503 76.3433 64.4743 75.3233 64.4743H73.6193V67.3903ZM75.5393 68.4463H73.6193V71.9263H72.4433V63.4183H75.5393C77.1113 63.4183 78.1673 64.5103 78.1673 65.9383C78.1673 67.3783 77.1113 68.4463 75.5393 68.4463ZM84.4274 66.1543L82.1234 71.9263H80.9834L78.6434 66.1543H79.9154L81.5594 70.6063L83.2154 66.1543H84.4274ZM90.8469 64.4023L90.4869 65.3623C90.1989 65.1943 89.6829 65.0263 89.0949 65.0263C87.4749 65.0263 86.4549 66.2143 86.3589 67.8103C86.6709 67.2943 87.3789 66.8023 88.4109 66.8023C89.9469 66.8023 91.0749 67.7623 91.0749 69.4543C91.0749 71.1223 89.7189 72.1063 88.1949 72.1063C86.7069 72.1063 85.1589 71.0743 85.1589 68.5063C85.1589 65.6143 86.8989 63.9703 89.1669 63.9703C89.8749 63.9703 90.4869 64.1503 90.8469 64.4023ZM86.5269 69.4543C86.5269 70.4743 87.3549 71.0863 88.2069 71.0863C89.1189 71.0863 89.8869 70.4863 89.8869 69.4543C89.8869 68.4103 89.1069 67.8103 88.2069 67.8103C87.3069 67.8103 86.5269 68.4103 86.5269 69.4543Z" fill="#EDEDED"/>
</g>
<defs>

</defs>
</svg>
