<svg width="160" height="96" viewBox="0 0 160 96" fill="none" xmlns="http://www.w3.org/2000/svg">

<path d="M-1084 -1202H2006V-1204H-1084V-1202ZM2007 -1201V1616H2009V-1201H2007ZM2006 1617H-1084V1619H2006V1617ZM-1085 1616V-1201H-1087V1616H-1085ZM-1084 1617C-1084.55 1617 -1085 1616.55 -1085 1616H-1087C-1087 1617.66 -1085.66 1619 -1084 1619V1617ZM2007 1616C2007 1616.55 2006.55 1617 2006 1617V1619C2007.66 1619 2009 1617.66 2009 1616H2007ZM2006 -1202C2006.55 -1202 2007 -1201.55 2007 -1201H2009C2009 -1202.66 2007.66 -1204 2006 -1204V-1202ZM-1084 -1204C-1085.66 -1204 -1087 -1202.66 -1087 -1201H-1085C-1085 -1201.55 -1084.55 -1202 -1084 -1202V-1204Z" fill="white" fill-opacity="0.1"/>
<g clip-path="url(#clip0_105_14273)">
<rect x="56.5001" y="13.4263" width="47" height="31" rx="15.5" fill="#161616"/>
<rect x="56.5001" y="13.4263" width="47" height="31" rx="15.5" stroke="#EDEDED"/>
<path d="M70.5614 32.9263H69.3614V24.4183H70.5614V32.9263ZM73.9006 28.3903H75.6046C76.6246 28.3903 77.2486 27.8263 77.2486 26.9503C77.2486 26.0503 76.6246 25.4743 75.6046 25.4743H73.9006V28.3903ZM75.8206 29.4463H73.9006V32.9263H72.7246V24.4183H75.8206C77.3926 24.4183 78.4486 25.5103 78.4486 26.9383C78.4486 28.3783 77.3926 29.4463 75.8206 29.4463ZM84.7088 27.1543L82.4048 32.9263H81.2648L78.9248 27.1543H80.1968L81.8408 31.6063L83.4968 27.1543H84.7088ZM85.2482 31.1743V29.8183L88.5842 25.1503H90.2042V30.0823H91.5362V31.1743H90.2042V32.9263H89.0642V31.1743H85.2482ZM89.0642 30.0823V26.2783L86.3282 30.0823H89.0642Z" fill="#EDEDED"/>
<rect x="56.5001" y="52.4263" width="47" height="31" rx="15.5" fill="#161616"/>
<rect x="56.5001" y="52.4263" width="47" height="31" rx="15.5" stroke="#EDEDED"/>
<path d="M70.2801 71.9263H69.0801V63.4183H70.2801V71.9263ZM73.6194 67.3903H75.3234C76.3434 67.3903 76.9674 66.8263 76.9674 65.9503C76.9674 65.0503 76.3434 64.4743 75.3234 64.4743H73.6194V67.3903ZM75.5394 68.4463H73.6194V71.9263H72.4434V63.4183H75.5394C77.1114 63.4183 78.1674 64.5103 78.1674 65.9383C78.1674 67.3783 77.1114 68.4463 75.5394 68.4463ZM84.4276 66.1543L82.1236 71.9263H80.9836L78.6436 66.1543H79.9156L81.5596 70.6063L83.2156 66.1543H84.4276ZM90.847 64.4023L90.487 65.3623C90.199 65.1943 89.683 65.0263 89.095 65.0263C87.475 65.0263 86.455 66.2143 86.359 67.8103C86.671 67.2943 87.379 66.8023 88.411 66.8023C89.947 66.8023 91.075 67.7623 91.075 69.4543C91.075 71.1223 89.719 72.1063 88.195 72.1063C86.707 72.1063 85.159 71.0743 85.159 68.5063C85.159 65.6143 86.899 63.9703 89.167 63.9703C89.875 63.9703 90.487 64.1503 90.847 64.4023ZM86.527 69.4543C86.527 70.4743 87.355 71.0863 88.207 71.0863C89.119 71.0863 89.887 70.4863 89.887 69.4543C89.887 68.4103 89.107 67.8103 88.207 67.8103C87.307 67.8103 86.527 68.4103 86.527 69.4543Z" fill="#EDEDED"/>
</g>
<defs>
<clipPath id="clip0_105_14273">
<rect width="160" height="96" fill="white"/>
</clipPath>
</defs>
</svg>
