<svg width="403" height="304" viewBox="0 0 403 304" fill="none" xmlns="http://www.w3.org/2000/svg">
<mask id="path-1-inside-1" fill="white">
<path fill-rule="evenodd" clip-rule="evenodd" d="M4 0C1.79086 0 0 1.79086 0 4V270.4C133.776 311.192 351.162 253.6 403 10V4C403 1.79086 401.209 0 399 0H4Z"/>
</mask>
<path fill-rule="evenodd" clip-rule="evenodd" d="M4 0C1.79086 0 0 1.79086 0 4V270.4C133.776 311.192 351.162 253.6 403 10V4C403 1.79086 401.209 0 399 0H4Z" fill="#424242"/>
<path d="M0 270.4H-1V271.141L-0.291669 271.357L0 270.4ZM403 10L403.978 10.2081L404 10.1052V10H403ZM1 4C1 2.34315 2.34315 1 4 1V-1C1.23858 -1 -1 1.23858 -1 4H1ZM1 270.4V4H-1V270.4H1ZM402.022 9.79186C376.165 131.3 309.049 206.346 231.771 245.957C154.456 285.586 66.9344 289.765 0.291669 269.443L-0.291669 271.357C66.8415 291.827 154.9 287.606 232.683 247.737C310.501 207.849 377.997 132.3 403.978 10.2081L402.022 9.79186ZM402 4V10H404V4H402ZM399 1C400.657 1 402 2.34315 402 4H404C404 1.23858 401.761 -1 399 -1V1ZM4 1H399V-1H4V1Z" fill="#363636" mask="url(#path-1-inside-1)"/>
<path d="M328 171L328 304" stroke="url(#paint0_linear)"/>
<path d="M328 171L328 304" stroke="#747474"/>
<path d="M217 254L217 304" stroke="url(#paint1_linear)"/>
<path d="M217 254L217 304" stroke="#747474"/>
<path d="M376 92L376 304" stroke="url(#paint2_linear)"/>
<path d="M376 92L376 304" stroke="#747474"/>
<path d="M378 92C378 93.1046 377.105 94 376 94C374.895 94 374 93.1046 374 92C374 90.8954 374.895 90 376 90C377.105 90 378 90.8954 378 92Z" fill="#6EC897"/>
<path d="M330 171C330 172.105 329.105 173 328 173C326.895 173 326 172.105 326 171C326 169.895 326.895 169 328 169C329.105 169 330 169.895 330 171Z" fill="#6EC897"/>
<path d="M219 255C219 256.105 218.105 257 217 257C215.895 257 215 256.105 215 255C215 253.895 215.895 253 217 253C218.105 253 219 253.895 219 255Z" fill="#6EC897"/>
<path d="M353 92L154 92" stroke="#747474" stroke-linecap="round"/>
<path d="M154 72H212" stroke="#A4A4A4" stroke-linecap="round"/>
<path d="M154 60H254" stroke="#A4A4A4" stroke-linecap="round"/>
<defs>
<linearGradient id="paint0_linear" x1="328.5" y1="171" x2="328.5" y2="304" gradientUnits="userSpaceOnUse">
<stop stop-color="#747474"/>
<stop offset="1" stop-color="#747474" stop-opacity="0"/>
</linearGradient>
<linearGradient id="paint1_linear" x1="217.5" y1="254" x2="217.5" y2="304" gradientUnits="userSpaceOnUse">
<stop stop-color="#747474"/>
<stop offset="1" stop-color="#747474" stop-opacity="0"/>
</linearGradient>
<linearGradient id="paint2_linear" x1="376.5" y1="92" x2="376.5" y2="304" gradientUnits="userSpaceOnUse">
<stop stop-color="#747474"/>
<stop offset="1" stop-color="#747474" stop-opacity="0"/>
</linearGradient>
</defs>
</svg>
