<svg width="433" height="250" viewBox="0 0 433 250" fill="none" xmlns="http://www.w3.org/2000/svg">
<g opacity="0.5" clip-path="url(#clip0)">
<rect x="6.92835" width="142" height="142" transform="matrix(0.866044 -0.499967 0.866044 0.499967 0.928093 178.645)" stroke="white" stroke-width="8"/>
<path d="M146.881 190.38C144.341 191.846 141.569 192.913 138.567 193.579C135.565 194.246 132.418 194.496 129.127 194.329C125.836 194.096 122.459 193.479 118.995 192.48C115.53 191.413 112.066 189.88 108.602 187.88C104.965 185.78 102.251 183.613 100.461 181.38C98.6713 179.147 97.6898 176.981 97.5166 174.881C97.2857 172.747 97.7764 170.731 98.9889 168.831C100.259 166.898 102.136 165.215 104.618 163.781C106.062 162.948 107.678 162.248 109.468 161.682C111.258 161.048 113.192 160.632 115.271 160.432C117.407 160.198 119.687 160.215 122.112 160.482C124.479 160.715 126.991 161.232 129.647 162.031L129.907 161.881L121.679 155.132L128.781 151.032C130.975 152.965 133.284 154.999 135.709 157.132C138.134 159.198 140.559 161.232 142.984 163.231C145.409 165.231 147.776 167.098 150.085 168.831C152.337 170.531 154.416 171.931 156.321 173.031C157.764 173.864 159.266 174.264 160.824 174.231C162.383 174.197 163.74 173.847 164.895 173.181C165.357 172.914 165.79 172.597 166.194 172.231C166.54 171.831 166.858 171.448 167.147 171.081L173.642 173.631C173.295 174.164 172.776 174.764 172.083 175.431C171.448 176.064 170.495 176.747 169.225 177.48C166.742 178.914 164.058 179.664 161.171 179.73C158.284 179.797 155.368 178.98 152.424 177.28L152.164 177.43C153.261 180.197 153.376 182.63 152.51 184.73C151.644 186.83 149.768 188.713 146.881 190.38ZM142.378 186.08C143.821 185.247 144.889 184.23 145.582 183.03C146.333 181.797 146.679 180.53 146.621 179.23C146.564 177.864 146.102 176.531 145.236 175.231C144.37 173.864 143.128 172.614 141.512 171.481L134.237 166.581C131.35 165.581 128.752 164.915 126.442 164.581C124.075 164.215 121.968 164.098 120.12 164.231C118.273 164.365 116.656 164.665 115.271 165.131C113.827 165.565 112.644 166.048 111.72 166.581C110.103 167.514 108.92 168.631 108.169 169.931C107.361 171.198 107.043 172.581 107.216 174.081C107.447 175.547 108.256 177.114 109.641 178.78C111.027 180.38 113.105 181.98 115.877 183.58C120.784 186.413 125.576 188.046 130.253 188.48C134.872 188.88 138.914 188.08 142.378 186.08Z" fill="white"/>
<rect x="6.92835" width="142" height="142" transform="matrix(0.866044 -0.499967 0.866044 0.499967 174.137 78.6515)" stroke="white" stroke-width="8"/>
<path d="M325.893 109.336L267.521 75.6377C264.692 74.0045 262.411 72.2879 260.679 70.4881C259.005 68.6549 258.024 66.8216 257.735 64.9884C257.388 63.1219 257.821 61.272 259.034 59.4388C260.189 57.5722 262.238 55.789 265.183 54.0891C267.319 52.8559 269.686 51.8559 272.284 51.0893C274.825 50.2894 277.481 49.8227 280.252 49.6894C283.023 49.4894 285.824 49.6728 288.653 50.2394C291.424 50.7727 294.08 51.7726 296.62 53.2392C299.738 55.0391 301.701 57.0723 302.509 59.3388C303.318 61.6053 303.087 64.1051 301.816 66.8383L302.163 67.0383C307.128 64.9051 312.353 63.9218 317.838 64.0885C323.323 64.2551 328.289 65.6217 332.734 68.1882C335.563 69.8214 337.584 71.5547 338.797 73.3879C340.067 75.1878 340.673 77.0043 340.615 78.8375C340.558 80.6041 339.894 82.3206 338.623 83.9872C337.353 85.5871 335.621 87.0203 333.427 88.2869C330.713 89.8535 327.567 91.1367 323.987 92.1367C320.408 93.1366 316.308 93.5699 311.689 93.4366C315.385 95.4364 318.935 97.3863 322.342 99.2862C325.864 101.186 329.443 103.153 333.081 105.186L325.893 109.336ZM325.719 85.8371C327.336 84.9038 328.577 83.8872 329.443 82.7873C330.309 81.6207 330.742 80.4374 330.742 79.2375C330.8 78.0042 330.367 76.7877 329.443 75.5877C328.52 74.3211 327.105 73.1379 325.2 72.038C321.851 70.1048 318.04 69.0715 313.768 68.9382C309.495 68.8048 305.31 69.9214 301.21 72.2879C299.709 73.1546 298.439 74.0878 297.4 75.0878L290.818 72.5879C292.665 70.988 293.907 69.4715 294.542 68.0382C295.235 66.5717 295.465 65.2051 295.235 63.9385C295.061 62.6386 294.513 61.4553 293.589 60.3887C292.665 59.3221 291.511 58.3889 290.125 57.5889C288.508 56.6556 286.834 55.989 285.102 55.589C283.427 55.1557 281.753 54.9557 280.079 54.9891C278.404 55.0224 276.788 55.2557 275.229 55.689C273.728 56.089 272.342 56.6556 271.072 57.3889C267.781 59.2888 266.453 61.522 267.088 64.0885C267.781 66.6217 270.668 69.3881 275.749 72.3879C280.772 75.3544 285.737 78.2876 290.645 81.1874C295.552 84.0205 300.546 86.9037 305.627 89.8368C310.304 90.2034 314.259 89.9535 317.492 89.0869C320.783 88.1869 323.525 87.1036 325.719 85.8371Z" fill="white"/>
<path fill-rule="evenodd" clip-rule="evenodd" d="M168.984 100.559C164.855 98.2451 157.979 100.199 158.636 103.499L168.541 153.3C169.71 159.178 182.122 161.676 189.369 157.493L228.853 134.699L260.304 152.319C264.433 154.633 271.309 152.679 270.653 149.379L260.748 99.578C259.578 93.6999 247.166 91.2012 239.919 95.3849L200.435 118.179L168.984 100.559Z" fill="url(#paint0_angular)"/>
</g>
<defs>
<radialGradient id="paint0_angular" cx="0" cy="0" r="1" gradientUnits="userSpaceOnUse" gradientTransform="translate(196.592 115.684) rotate(29.9978) scale(73 61.547)">
<stop stop-color="#37E290"/>
<stop offset="1" stop-color="#00B05C"/>
</radialGradient>
<clipPath id="clip0">
<rect width="350.384" height="149.312" fill="white" transform="matrix(0.866044 -0.499967 0.866044 0.499967 0 175.181)"/>
</clipPath>
</defs>
</svg>
