<svg xmlns="http://www.w3.org/2000/svg" width="2370" height="2500" preserveAspectRatio="xMinYMin meet" viewBox="0 0 256 270"><path fill="#b3b3b3" d="M127.606.341.849 44.95 20.88 211.022l106.86 58.732 107.412-59.528L255.175 44.16z"/><path fill="#a6120d" d="M242.532 53.758 127.31 14.466v241.256l96.561-53.441 18.66-148.523z"/><path fill="#dd1b16" d="m15.073 54.466 17.165 148.525 95.07 52.731V14.462z"/><path fill="#f2f2f2" d="M159.027 142.898 127.31 157.73H93.881l-15.714 39.305-29.228.54L127.31 23.227l31.717 119.672zm-3.066-7.467-28.44-56.303-23.329 55.334h23.117z"/><path fill="#b3b3b3" d="m127.309 23.226.21 55.902 26.47 55.377h-26.62l-.06 23.189 36.81.035 17.204 39.852 27.967.518z"/></svg>