<svg xmlns="http://www.w3.org/2000/svg" width="115" height="115" fill="none" viewBox="0 0 115 115"><g clip-path="url(#a)"><rect width="113.52" height="113.52" x=".5" y=".729" fill="url(#b)" rx="22.19"/><g filter="url(#c)"><circle cx="15.457" cy="74.848" r="26.254" fill="#265643"/></g><g filter="url(#d)"><circle cx="21.22" cy="25.179" r="51.614" fill="#00f0ff" fill-opacity=".2"/></g><path fill="url(#e)" d="M85.86 63.589V46.67c0-6.747-5.47-12.217-12.218-12.217v-3.507c0-8.284-6.715-15-15-15h-1.056v-4.07h35.702c10.886 0 19.711 8.824 19.711 19.71V91.44H87.293z"/><g filter="url(#f)"><circle cx="113.403" cy="49.42" r="39.243" fill="url(#g)"/></g><g filter="url(#h)"><circle cx="21.785" cy="94.269" r="26.254" fill="#3dcb8c" fill-opacity=".2"/></g><g filter="url(#i)"><path fill="url(#j)" fill-rule="evenodd" d="M43.17 31.583c0-7.306 5.923-13.23 13.23-13.23 7.306 0 13.23 5.924 13.23 13.23v6.23h2.647c5.523 0 10 4.477 10 10v32.035c0 5.523-4.477 10-10 10H40.242c-5.523 0-10-4.477-10-10V47.813c0-5.523 4.477-10 10-10h2.927zm6 6.23h14.46v-6.23a7.23 7.23 0 0 0-14.46 0zm-8.928 6a4 4 0 0 0-4 4v5.215h22.685a3 3 0 0 1 3 3v20.46a3 3 0 0 1-3 3H36.242v.36a4 4 0 0 0 4 4h32.035a4 4 0 0 0 4-4V47.813a4 4 0 0 0-4-4zm-3.89 29.675h19.575v-4.23H36.352zm0-10.23h19.575v-4.23H36.352z" clip-rule="evenodd"/></g><path fill="url(#k)" stroke="url(#l)" stroke-linejoin="round" stroke-miterlimit="10" stroke-width=".5" d="M43.17 38.063a.25.25 0 0 0 .25-.25v-6.23c0-7.168 5.81-12.98 12.98-12.98 7.168 0 12.98 5.812 12.98 12.98v6.23c0 .138.111.25.25.25h2.647c5.385 0 9.75 4.365 9.75 9.75v32.035c0 5.385-4.365 9.75-9.75 9.75H40.242c-5.385 0-9.75-4.365-9.75-9.75V47.813c0-5.384 4.365-9.75 9.75-9.75zm5.75-.25c0 .138.111.25.25.25h14.46a.25.25 0 0 0 .25-.25v-6.23a7.48 7.48 0 1 0-14.96 0zM35.991 53.028c0 .138.112.25.25.25h22.685a2.75 2.75 0 0 1 2.75 2.75v20.46a2.75 2.75 0 0 1-2.75 2.75H36.242a.25.25 0 0 0-.25.25v.36a4.25 4.25 0 0 0 4.25 4.25h32.035a4.25 4.25 0 0 0 4.25-4.25V47.813a4.25 4.25 0 0 0-4.25-4.25H40.242a4.25 4.25 0 0 0-4.25 4.25zm.11 20.46c0 .138.112.25.25.25h19.575a.25.25 0 0 0 .25-.25v-4.23a.25.25 0 0 0-.25-.25H36.352a.25.25 0 0 0-.25.25zm0-10.23c0 .138.112.25.25.25h19.575a.25.25 0 0 0 .25-.25v-4.23a.25.25 0 0 0-.25-.25H36.352a.25.25 0 0 0-.25.25z"/><path fill="url(#m)" d="M25.96 78.956v-6.108H4.403v35.48H45.72V93.956h-4.76c-8.283 0-15-6.716-15-15"/></g><rect width="111.655" height="111.655" x="1.432" y="1.661" stroke="url(#n)" stroke-opacity=".2" stroke-width="1.864" rx="21.258"/><defs><linearGradient id="b" x1="57.26" x2="57.26" y1=".729" y2="114.248" gradientUnits="userSpaceOnUse"><stop/><stop offset="1" stop-color="#151515"/></linearGradient><linearGradient id="g" x1="117.074" x2="136.605" y1="47.108" y2="49.419" gradientUnits="userSpaceOnUse"><stop stop-color="#075b61" stop-opacity=".65"/><stop offset="1" stop-color="#040404" stop-opacity="0"/></linearGradient><linearGradient id="j" x1="56.26" x2="56.26" y1="18.354" y2="89.848" gradientUnits="userSpaceOnUse"><stop stop-color="#4cc38a"/><stop offset="1" stop-color="#65ecf4"/></linearGradient><linearGradient id="k" x1="56.26" x2="56.26" y1="18.354" y2="89.848" gradientUnits="userSpaceOnUse"><stop stop-color="#65ecf4"/><stop offset=".729" stop-color="#0dff8b"/></linearGradient><linearGradient id="l" x1="74.722" x2="46.06" y1="37.404" y2="83.393" gradientUnits="userSpaceOnUse"><stop stop-color="#beffe0"/><stop offset="1" stop-color="#4cc38a" stop-opacity="0"/></linearGradient><linearGradient id="n" x1="57.26" x2="57.26" y1=".729" y2="114.248" gradientUnits="userSpaceOnUse"><stop stop-color="#59fcb3"/><stop offset="1"/></linearGradient><filter id="c" width="109.268" height="109.268" x="-39.177" y="20.214" color-interpolation-filters="sRGB" filterUnits="userSpaceOnUse"><feFlood flood-opacity="0" result="BackgroundImageFix"/><feBlend in="SourceGraphic" in2="BackgroundImageFix" result="shape"/><feGaussianBlur result="effect1_foregroundBlur_4051_91749" stdDeviation="14.19"/></filter><filter id="d" width="159.988" height="159.988" x="-58.774" y="-54.815" color-interpolation-filters="sRGB" filterUnits="userSpaceOnUse"><feFlood flood-opacity="0" result="BackgroundImageFix"/><feBlend in="SourceGraphic" in2="BackgroundImageFix" result="shape"/><feGaussianBlur result="effect1_foregroundBlur_4051_91749" stdDeviation="14.19"/></filter><filter id="f" width="136.484" height="136.485" x="45.16" y="-18.822" color-interpolation-filters="sRGB" filterUnits="userSpaceOnUse"><feFlood flood-opacity="0" result="BackgroundImageFix"/><feBlend in="SourceGraphic" in2="BackgroundImageFix" result="shape"/><feGaussianBlur result="effect1_foregroundBlur_4051_91749" stdDeviation="14.5"/></filter><filter id="h" width="109.268" height="109.268" x="-32.849" y="39.636" color-interpolation-filters="sRGB" filterUnits="userSpaceOnUse"><feFlood flood-opacity="0" result="BackgroundImageFix"/><feBlend in="SourceGraphic" in2="BackgroundImageFix" result="shape"/><feGaussianBlur result="effect1_foregroundBlur_4051_91749" stdDeviation="14.19"/></filter><filter id="i" width="60.035" height="79.494" x="26.242" y="14.354" color-interpolation-filters="sRGB" filterUnits="userSpaceOnUse"><feFlood flood-opacity="0" result="BackgroundImageFix"/><feBlend in="SourceGraphic" in2="BackgroundImageFix" result="shape"/><feGaussianBlur result="effect1_foregroundBlur_4051_91749" stdDeviation="2"/></filter><radialGradient id="e" cx="0" cy="0" r="1" gradientTransform="rotate(-40.002 96.91 -86.21)scale(30.7518 40.2856)" gradientUnits="userSpaceOnUse"><stop stop-color="#099289"/><stop offset="1" stop-color="#010809" stop-opacity="0"/></radialGradient><radialGradient id="m" cx="0" cy="0" r="1" gradientTransform="rotate(226.548 34.302 35.493)scale(14.2663 23.8519)" gradientUnits="userSpaceOnUse"><stop stop-color="#398969" stop-opacity=".88"/><stop offset="1" stop-color="#224639" stop-opacity="0"/></radialGradient><clipPath id="a"><rect width="113.52" height="113.52" x=".5" y=".729" fill="#fff" rx="22.19"/></clipPath></defs></svg>