<svg xmlns="http://www.w3.org/2000/svg" xmlns:xlink="http://www.w3.org/1999/xlink" width="32" height="32" viewBox="0 0 32 32"><defs><linearGradient id="eth__eth-c" x1="50%" x2="50%" y1="0%" y2="100%"><stop offset="0%" stop-color="#FFF" stop-opacity=".5"/><stop offset="100%" stop-opacity=".5"/></linearGradient><circle id="eth__eth-b" cx="16" cy="15" r="15"/><filter id="eth__eth-a" width="111.7%" height="111.7%" x="-5.8%" y="-4.2%" filterUnits="objectBoundingBox"><feOffset dy=".5" in="SourceAlpha" result="shadowOffsetOuter1"/><feGaussianBlur in="shadowOffsetOuter1" result="shadowBlurOuter1" stdDeviation=".5"/><feComposite in="shadowBlurOuter1" in2="SourceAlpha" operator="out" result="shadowBlurOuter1"/><feColorMatrix in="shadowBlurOuter1" values="0 0 0 0 0 0 0 0 0 0 0 0 0 0 0 0 0 0 0.199473505 0"/></filter><path id="eth__eth-e" d="M16.4977734,20.9675435 L23.9999473,16.616495 L16.4977207,26.9946245 L16.4976173,26.9943278 L9,16.6164144 L16.4977734,20.9674935 Z M16.4977471,3.00004297 L23.9954941,15.2198561 L16.4977734,19.5730917 L9,15.2198561 L16.4977471,3.00004297 Z"/><filter id="eth__eth-d" width="123.3%" height="114.6%" x="-11.7%" y="-5.2%" filterUnits="objectBoundingBox"><feOffset dy=".5" in="SourceAlpha" result="shadowOffsetOuter1"/><feGaussianBlur in="shadowOffsetOuter1" result="shadowBlurOuter1" stdDeviation=".5"/><feComposite in="shadowBlurOuter1" in2="SourceAlpha" operator="out" result="shadowBlurOuter1"/><feColorMatrix in="shadowBlurOuter1" values="0 0 0 0 0 0 0 0 0 0 0 0 0 0 0 0 0 0 0.204257246 0"/></filter></defs><g fill="none" fill-rule="evenodd"><use fill="#000" filter="url(#eth__eth-a)" xlink:href="#eth__eth-b"/><use fill="#627EEA" xlink:href="#eth__eth-b"/><use fill="url(#eth__eth-c)" style="mix-blend-mode:soft-light" xlink:href="#eth__eth-b"/><circle cx="16" cy="15" r="14.5" stroke="#000" stroke-opacity=".097"/><g fill-rule="nonzero"><use fill="#000" filter="url(#eth__eth-d)" xlink:href="#eth__eth-e"/><use fill="#FFF" fill-opacity="0" fill-rule="evenodd" xlink:href="#eth__eth-e"/></g><g fill="#FFF" fill-rule="nonzero" transform="translate(9 3)"><polygon fill-opacity=".602" points="7.498 0 7.498 8.87 14.995 12.22"/><polygon points="7.498 0 0 12.22 7.498 8.87"/><polygon fill-opacity=".602" points="7.498 17.968 7.498 23.995 15 13.616"/><polygon points="7.498 23.995 7.498 17.967 0 13.616"/><polygon fill-opacity=".2" points="7.498 16.573 14.995 12.22 7.498 8.872"/><polygon fill-opacity=".602" points="0 12.22 7.498 16.573 7.498 8.872"/></g></g></svg>