<svg xmlns="http://www.w3.org/2000/svg" xml:space="preserve" width="1365.331" height="1365.331" style="shape-rendering:geometricPrecision;text-rendering:geometricPrecision;image-rendering:optimizeQuality;fill-rule:evenodd;clip-rule:evenodd" viewBox="0 0 14222 14222"><path d="M14222 7111C14222 3184 11038 0 7111 0S0 3184 0 7111c0 3549 2600 6491 6000 7025V9167H4194V7111h1806V5544c0-1782 1062-2767 2686-2767 778 0 1592 139 1592 139v1750h-897c-883 0-1159 548-1159 1111v1334h1972l-315 2056H8222v4969c3400-533 6000-3475 6000-7025" style="fill:#1977f3;fill-rule:nonzero"/><path d="m9879 9167 315-2056H8222V5777c0-562 275-1111 1159-1111h897V2916s-814-139-1592-139c-1624 0-2686 984-2686 2767v1567H4194v2056h1806v4969c362 57 733 86 1111 86s749-30 1111-86V9167z" style="fill:#fefefe;fill-rule:nonzero"/></svg>