<?xml version="1.0" encoding="utf-8"?>
<!-- Generator: Adobe Illustrator 25.2.0, SVG Export Plug-In . SVG Version: 6.00 Build 0)  -->
<svg version="1.1" id="Layer_1" xmlns="http://www.w3.org/2000/svg" xmlns:xlink="http://www.w3.org/1999/xlink" x="0px" y="0px"
	 viewBox="0 0 586 559" style="enable-background:new 0 0 586 559;" xml:space="preserve">
<style type="text/css">
	.st0{fill:#E24329;}
	.st1{fill:#FCA326;}
	.st2{fill:#FC6D26;}
	.st3{display:none;}
	.st4{display:inline;opacity:0.1;fill:#E828E3;enable-background:new    ;}
	.st5{display:inline;}
	.st6{font-family:'ArialMT';}
	.st7{font-size:24px;}
</style>
<g id="logo_art">
	<g>
		<path id="path50_2_" class="st0" d="M293,548.3L293,548.3l107.5-330.8H185.6L293,548.3L293,548.3z"/>
		<path id="path66_6_" class="st1" d="M35,217.5L35,217.5L2.3,318c-3,9.1,0.2,19.2,8.1,24.9L293,548.3L35,217.5L35,217.5z"/>
		<path id="path74_2_" class="st0" d="M35,217.5h150.6L120.8,18.3c-3.3-10.2-17.8-10.2-21.2,0L35,217.5L35,217.5z"/>
		<path id="path82_6_" class="st1" d="M551.2,217.5L551.2,217.5L583.8,318c3,9.1-0.2,19.2-8.1,24.9L293,548.3L551.2,217.5
			L551.2,217.5z"/>
		<path id="path86_2_" class="st0" d="M551.2,217.5H400.6l64.7-199.2c3.3-10.2,17.8-10.2,21.2,0L551.2,217.5L551.2,217.5z"/>
		<polygon class="st2" points="293,548.3 400.6,217.5 551.2,217.5 		"/>
		<polygon class="st2" points="293,548.3 35,217.5 185.6,217.5 		"/>
	</g>
</g>
<g id="spacing_guides" xmlns:sketch="http://www.bohemiancoding.com/sketch/ns" class="st3">
	<path id="path40_18_" sketch:type="MSShapeGroup" class="st4" d="M0,0.5v124h586V0.5H0L0,0.5z"/>
	<path id="path40_16_" sketch:type="MSShapeGroup" class="st4" d="M0,435.5v124h586v-124H0L0,435.5z"/>
	<path id="path40_15_" sketch:type="MSShapeGroup" class="st4" d="M462.2,560h124V0h-124V560L462.2,560z"/>
	<g class="st5">
		<text transform="matrix(1 0 0 1 511.2881 283.3319)" class="st6 st7">1x</text>
	</g>
	<g class="st5">
		<text transform="matrix(1 0 0 1 281.2881 500.9977)" class="st6 st7">1x</text>
	</g>
	<g class="st5">
		<text transform="matrix(1 0 0 1 281.2881 65.998)" class="st6 st7">1x</text>
	</g>
	<path id="path40_5_" sketch:type="MSShapeGroup" class="st4" d="M0,560h124V0H0V560L0,560z"/>
	<g class="st5">
		<text transform="matrix(1 0 0 1 51.2881 283.3319)" class="st6 st7">1x</text>
	</g>
</g>
</svg>
