<svg xmlns="http://www.w3.org/2000/svg" width="917" height="1000" fill="none" viewBox="0 0 917 1000"><path fill="#bf4722" fill-rule="evenodd" d="m249.557 144.582 194.171 132.54a27.47 27.47 0 0 0 14.755 4.606 26.6 26.6 0 0 0 14.755-4.606l194.319-132.986c7.55-5.406 11.714-14.418 10.957-23.717s-6.322-17.507-14.646-21.602L469.697 2.68a26.69 26.69 0 0 0-23.313 0L252.803 98.817c-8.474 4.117-14.113 12.485-14.783 21.935-.67 9.451 3.73 18.541 11.537 23.83m274.879 174.144c.016 8.789 4.318 17.01 11.509 21.991l155.662 106.389a26.12 26.12 0 0 0 32.313-2.081l130.579-116.789c5.819-5.199 9.051-12.729 8.823-20.56s-3.892-15.158-10.004-20.005l-124.677-99.702a26.41 26.41 0 0 0-31.28-1.189L535.945 297.181c-7.064 4.89-11.35 12.914-11.509 21.545M137.273 463.45c6.292 5.652 9.526 13.988 8.706 22.437-.817 8.499-5.726 16.052-13.132 20.208l-92.954 55.72a26.26 26.26 0 0 1-29.902-2.041c-8.582-6.861-12.066-18.346-8.756-28.865l34.379-108.172c2.697-8.57 9.532-15.175 18.148-17.533a25.54 25.54 0 0 1 24.493 5.795zm504.168 11.293L473.385 359.736a26.4 26.4 0 0 0-29.509 0L275.82 474.743c-6.684 4.626-10.919 12.061-11.509 20.208-.435 8.203 2.816 16.169 8.853 21.693l167.909 150.222a26.3 26.3 0 0 0 17.558 6.687 26.45 26.45 0 0 0 17.558-6.687l167.908-150.222c6.056-5.501 9.265-13.5 8.705-21.693-.469-8.146-4.666-15.612-11.361-20.208m-448.247-29.718L62.762 328.235a27.13 27.13 0 0 1-8.852-20.95c.142-7.841 3.77-15.204 9.885-20.06l124.677-100.296a26.7 26.7 0 0 1 31.428-1.189l161.269 110.401c7.484 4.908 11.998 13.293 11.998 22.288 0 8.994-4.514 17.38-11.998 22.288L225.654 447.105a26.41 26.41 0 0 1-32.46-2.08m669.715 167.756-132.792-79.495a26.12 26.12 0 0 0-30.985 2.972L536.831 681.131c-6.846 6.114-10.062 15.362-8.499 24.441 1.563 9.08 7.681 16.698 16.171 20.135L769.66 816.94a25.2 25.2 0 0 0 9.738 1.932c10.449.033 19.936-6.142 24.197-15.751l69.79-156.314c5.68-12.37 1.157-27.062-10.476-34.026m18.443-190.043 34.379 108.171h-.295a26.75 26.75 0 0 1-3.889 23.761c-4.986 6.841-12.915 10.876-21.342 10.86a25.83 25.83 0 0 1-13.427-3.715l-93.102-55.72c-7.254-4.243-11.992-11.789-12.689-20.208-.87-8.456 2.373-16.814 8.705-22.436l59.019-52.6a26.27 26.27 0 0 1 24.493-5.795c8.609 2.459 15.423 9.098 18.148 17.682M388.841 705.499c1.587-9.042-1.597-18.266-8.41-24.368L218.129 536.258a26.12 26.12 0 0 0-30.985-2.972L54.352 612.781c-11.498 6.995-16.047 21.502-10.623 33.878l69.937 156.314c5.794 13.034 20.774 19.134 33.936 13.818l225.009-91.232c8.492-3.407 14.632-10.995 16.23-20.06m79.675 44.577 180.598 73.105c8.83 3.779 14.93 12.084 15.935 21.694 1.143 9.729-3.178 19.291-11.214 24.814L473.09 995.245a26.13 26.13 0 0 1-14.754 4.755 26.6 26.6 0 0 1-14.755-4.755L262.984 869.689c-8.066-5.508-12.439-15.061-11.362-24.814 1.206-9.71 7.526-18.006 16.526-21.694l180.597-73.105a26.68 26.68 0 0 1 19.771 0" clip-rule="evenodd"/></svg>