<svg xmlns="http://www.w3.org/2000/svg" fill="#f22f46" viewBox="0 0 30 30"><path d="M15 0C6.7 0 0 6.7 0 15s6.7 15 15 15 15-6.7 15-15S23.3 0 15 0m0 26C8.9 26 4 21.1 4 15S8.9 4 15 4s11 4.9 11 11-4.9 11-11 11m6.8-14.7c0 1.7-1.4 3.1-3.1 3.1s-3.1-1.4-3.1-3.1 1.4-3.1 3.1-3.1 3.1 1.4 3.1 3.1m0 7.4c0 1.7-1.4 3.1-3.1 3.1s-3.1-1.4-3.1-3.1 1.4-3.1 3.1-3.1 3.1 1.4 3.1 3.1m-7.4 0c0 1.7-1.4 3.1-3.1 3.1s-3.1-1.4-3.1-3.1 1.4-3.1 3.1-3.1 3.1 1.4 3.1 3.1m0-7.4c0 1.7-1.4 3.1-3.1 3.1S8.2 13 8.2 11.3s1.4-3.1 3.1-3.1 3.1 1.4 3.1 3.1"/></svg>