<svg xmlns="http://www.w3.org/2000/svg" width="62" height="62" fill="none" viewBox="0 0 62 62"><path fill="#7e7e7e" fill-rule="evenodd" d="m40.912 15.32-5.008-5.007c-.652-.655-2.013-1.438-3.163-1.438-.989 0-1.958.2-2.588.575l-11.54 5.77h21.23q.543 0 1.069.1m-25.269 2.507-6.191 12.9c-.248.523-.575 1.431-.575 2.012 0 1.256.552 2.54 1.438 3.452l5.36 5.32a6 6 0 0 1-.032-.597zm5.075 28.763 5.704 5.705.29.289h18.116V46.66H21.643q-.467 0-.925-.07m25.324-1.77h6.55V27.4l-9.617-9.617a4.43 4.43 0 0 0-3.132-1.298H17.53l.27.27 27.918 27.742zm-27.874-.865a4.92 4.92 0 0 0 3.475 1.44h23.183l-1.273-1.266-25.379-25.22-1.265-1.257v23.262a4.3 4.3 0 0 0 1.26 3.041" clip-rule="evenodd"/></svg>