<svg xmlns="http://www.w3.org/2000/svg" width="61" height="61" fill="none" viewBox="0 0 61 61"><path fill="#7e7e7e" d="M45.5 25.727a3.35 3.35 0 0 0-1.31-1.08 3.42 3.42 0 0 0-3.303.233 3.3 3.3 0 0 0-1.137 1.254 2.915 2.915 0 0 0 .579 3.32 4.97 4.97 0 0 0 3.292-.92 4.8 4.8 0 0 0 1.878-2.807m-9.995-12.813-2.14-1.151-9.317 5.083.743.394 1.413.727 2.557-1.393 6.746-3.684zm.863-.351a.33.33 0 0 1 .236.22l3.121 9.026a.296.296 0 0 1-.148.393 5.96 5.96 0 0 0-2.654 2.882 5.8 5.8 0 0 0-.259 3.877 6.26 6.26 0 0 0 2.591 3.405 6.48 6.48 0 0 0 4.214.993.4.4 0 0 1 .387.234l3.224 9.265a.37.37 0 0 1-.149.406l-9.91 5.68a.4.4 0 0 1-.148.029.4.4 0 0 1-.268-.044l-3.477-2.14a.34.34 0 0 1-.147-.145l-6.792-15.307-10.342 5.768a.49.49 0 0 1-.402.014l-2.35-1.311a.333.333 0 0 1-.148-.437l10.047-18.69a.36.36 0 0 1 .163-.145l10.017-5.477a.39.39 0 0 1 .356 0l2.84 1.504zm-12.423 5.022-.487-.247-9.685 18.077 1.767.975 8.352-10.71a.4.4 0 0 1 .341-.146.42.42 0 0 1 .297.218l9.094 20.539 2.43 1.47-9.761-27.977-.415-1.165-1.946-1.049.015.015zm14.978 10.779a3.63 3.63 0 0 1 .177-2.428c.339-.77.931-1.403 1.68-1.797a4.17 4.17 0 0 1 4.815.585 3.635 3.635 0 0 1 .108 5.21l-.108.106a4.11 4.11 0 0 1-2.793 1.1 4.12 4.12 0 0 1-2.8-1.085 3.97 3.97 0 0 1-1.079-1.691"/></svg>