<svg xmlns="http://www.w3.org/2000/svg" width="61" height="62" fill="none" viewBox="0 0 61 62"><path fill="#7e7e7e" fill-rule="evenodd" d="M44.714 12.64a2.91 2.91 0 0 1 2.571 1.515 2.87 2.87 0 0 1-.053 2.836l-.018.03-4.517 7.503a2.88 2.88 0 0 1-2.42 1.39h-5.191l2.145 4.874.008.014.013.023a2.87 2.87 0 0 1-.03 2.877l-.018.03-4.518 7.504a2.88 2.88 0 0 1-2.419 1.389h-6.364l-4.552 4.767-.009.009a2.27 2.27 0 0 1-2.061.628 2.27 2.27 0 0 1-1.642-1.342l-.009-.02-2.395-5.46-.013-.02-.013-.023-.006-.012a2.87 2.87 0 0 1 .03-2.877l.018-.03 4.382-7.278-3.229-7.339.06-.03-.002-.004a2.87 2.87 0 0 1 .325-1.996l.019-.034.018-.03 4.518-7.504a2.88 2.88 0 0 1 2.419-1.39h22.953M20.992 42.569h-4.8l1.41 3.238.003.009q.035.086.118.101c.05.01.09 0 .13-.035l.006-.007zm13.723-11.133h-14.51l-.048.002h-.005l3.979 9.036h6.103c.251 0 .493-.133.63-.347l.011-.018 4.524-7.509a.76.76 0 0 0 .043-.717.79.79 0 0 0-.727-.447m-16.019 1.856-3.59 6.009a.77.77 0 0 0-.024.766l.014.025.007.012.015.024.028.042.032.042.031.034.005.006.021.02.018.018a.7.7 0 0 0 .407.18l.034.003h.02l.026.001h6.092zm-.944-7.363 1.577 3.592.031-.01c.272-.091.557-.14.845-.145h14.108l-1.51-3.437zm26.922-11.192H30.113l3.98 9.038h6.1a.76.76 0 0 0 .631-.348l.011-.018L45.36 15.9a.76.76 0 0 0 .043-.717.79.79 0 0 0-.709-.447zm-16.79 0h-6.068c-.25 0-.49.133-.627.347l-.01.017-4.514 7.509a.76.76 0 0 0-.042.718.79.79 0 0 0 .704.446h14.526z" clip-rule="evenodd"/></svg>