<svg xmlns="http://www.w3.org/2000/svg" width="61" height="61" fill="none" viewBox="0 0 61 61"><path fill="#7e7e7e" d="M32.578 45.474H50.22c.56 0 1.11-.141 1.596-.41a3.13 3.13 0 0 0 1.168-1.123c.28-.466.427-.995.427-1.533s-.148-1.067-.428-1.533L41.135 21.164a3.13 3.13 0 0 0-1.168-1.122 3.3 3.3 0 0 0-1.596-.411c-.56 0-1.11.142-1.595.41a3.13 3.13 0 0 0-1.168 1.123l-3.03 5.043-5.923-9.862a3.13 3.13 0 0 0-1.168-1.122 3.3 3.3 0 0 0-1.596-.41c-.56 0-1.11.141-1.596.41a3.13 3.13 0 0 0-1.169 1.122L6.384 40.875c-.28.466-.429.995-.429 1.533s.147 1.067.427 1.533.683.853 1.168 1.122c.486.27 1.036.411 1.596.411H20.22c4.388 0 7.624-1.851 9.85-5.463l8.3-13.804 8.69 14.455H35.475zM20.04 40.657l-7.728-.002 11.584-19.271 5.78 9.636-3.87 6.44c-1.478 2.343-3.158 3.197-5.766 3.197"/></svg>