<svg xmlns="http://www.w3.org/2000/svg" width="62" height="62" fill="none" viewBox="0 0 62 62"><path fill="#7e7e7e" fill-rule="evenodd" d="m29.323 12.449.005-.012s-.53-.514-.868-.74c-1.831-1.22-4.562-1.622-6.217.097-.287.297-.548.61-.806.92-.19.227-.379.453-.576.67-.53.58-1.172 1.061-1.911 1.334-.415.156-.83.19-1.248.226-.23.02-.462.04-.696.08-.675.112-1.366.353-1.912.787-.594.482-.835 1.124-.9 1.863-.04.361-.049.729-.057 1.095-.006.22-.01.44-.023.657-.08 1.703-.627 2.185-1.848 3.132-.514.386-.947.9-1.269 1.446-.609 1.077-.217 2.18.175 3.279.227.64.454 1.278.484 1.91.016.354-.016.707-.145 1.045-.09.258-.242.454-.397.653a5 5 0 0 0-.197.263c-.29.401-.482.883-.402 1.381s.338.964.579 1.398c.466.771 1.044 1.462 1.654 2.12.026-.012.052.016.078.044v.002c.572 1.792 1.428 3.518 2.525 5.16 4.177 6.233 10.956 8.386 10.956 8.386 10.04 3.406 16.9-1.606 16.9-1.606 6.314-4.338 7.583-9.35 7.583-9.35-5.092 3.968-7.293 3.582-7.293 3.582 3.695-1.607 5.27-4.386 5.27-4.386 3.453-4.707 2.28-9.671 2.28-9.671-2.2 4.787-4.209 6.105-4.209 6.105 5.414-8.242.032-13.223.032-13.223 2.201 4.692-.722 10.411-.722 10.411-2.458 5.173-5.945 7.02-5.945 7.02 3.888.724 6.748-1.895 6.748-1.895-5.575 6.025-11.615 5.736-11.615 5.736 2.538 2.843 6.345 2.602 6.345 2.602-4.98 1.173-9.655-.482-13.494-3.679a21 21 0 0 1-2.057-1.928s-.578-.61-.69-.771l-.017-.016c-.08 2.972 3.02 5.736 3.02 5.736-3.887-1.607-5.67-5.093-5.67-5.093s-2.619-4.467-.723-9.56c1.895-5.092 7.63-6.185 7.63-6.185 4.74 2.297 8.756 3.02 8.756 3.02 8.467 1.414 7.985-2.73 7.985-2.73.08-3.567-5.302-7.359-5.302-7.359-4.366-3.232-8.542-4.038-11.796-3.956m6.334 6.382c.482 0 .868.386.868.867a.864.864 0 0 1-.868.868.864.864 0 0 1-.867-.867c0-.482.385-.868.867-.868m-5.494-1.542-5.478-1.703q-.01 0-.032-.007a.8.8 0 0 0-.45.007s-3.23.819-2.667 2.586c0 0 .337 1.109 1.253 2.185l6.025-.289z" clip-rule="evenodd"/></svg>