<svg xmlns="http://www.w3.org/2000/svg" width="62" height="62" fill="none" viewBox="0 0 62 62"><path fill="#7e7e7e" d="M45.74 23.698a30 30 0 0 0-1.446-.455q.122-.501.223-.987c1.095-5.314.38-9.595-2.065-11.005-2.344-1.352-6.177.058-10.048 3.427a30 30 0 0 0-1.12 1.026 28 28 0 0 0-.744-.687c-4.057-3.603-8.124-5.121-10.566-3.707-2.341 1.355-3.035 5.38-2.05 10.417q.144.73.333 1.488-.864.244-1.663.523C11.838 25.396 8.8 27.995 8.8 30.69c0 2.784 3.26 5.577 8.215 7.27q.587.2 1.215.38a29 29 0 0 0-.353 1.604c-.94 4.95-.206 8.88 2.13 10.226 2.412 1.391 6.46-.039 10.402-3.484q.468-.41.938-.864.609.586 1.215 1.108c3.818 3.285 7.589 4.612 9.922 3.262 2.41-1.395 3.193-5.617 2.176-10.753a25 25 0 0 0-.27-1.201q.427-.125.837-.261c5.15-1.706 8.501-4.465 8.501-7.287 0-2.706-3.136-5.322-7.988-6.993m-1.117 12.458q-.37.122-.755.236c-.568-1.8-1.336-3.714-2.275-5.692.896-1.93 1.634-3.82 2.187-5.608q.69.2 1.335.421c4.158 1.431 6.694 3.547 6.694 5.178 0 1.737-2.739 3.992-7.186 5.465m-1.845 3.657c.45 2.27.513 4.324.216 5.93-.268 1.442-.806 2.403-1.471 2.788-1.416.82-4.444-.245-7.71-3.055a28 28 0 0 1-1.13-1.03c1.267-1.385 2.532-2.995 3.767-4.782 2.171-.193 4.223-.508 6.084-.938q.138.555.244 1.087M24.117 48.39c-1.383.488-2.485.502-3.151.118-1.417-.817-2.007-3.972-1.203-8.205q.139-.727.328-1.491c1.84.407 3.877.7 6.055.876a47 47 0 0 0 3.856 4.765q-.43.416-.856.788c-1.743 1.524-3.49 2.605-5.03 3.149m-6.48-12.245c-2.192-.748-4-1.722-5.241-2.783-1.114-.955-1.677-1.902-1.677-2.67 0-1.637 2.44-3.724 6.507-5.142q.741-.258 1.547-.486c.562 1.828 1.3 3.74 2.19 5.674a47 47 0 0 0-2.218 5.755q-.574-.165-1.109-.348m2.171-14.787c-.844-4.315-.283-7.57 1.128-8.387 1.503-.87 4.827.37 8.33 3.48q.336.3.674.623a46 46 0 0 0-3.827 4.736c-2.113.196-4.136.51-5.996.932q-.176-.706-.309-1.384m19.38 4.785a61 61 0 0 0-1.366-2.247 42 42 0 0 1 4.097.717 41 41 0 0 1-1.438 3.868 67 67 0 0 0-1.292-2.338m-7.903-7.697a41 41 0 0 1 2.644 3.191 57 57 0 0 0-5.31 0 42 42 0 0 1 2.666-3.191m-7.953 7.71q-.666 1.157-1.269 2.324a42 42 0 0 1-1.427-3.888 43 43 0 0 1 4.073-.699 56 56 0 0 0-1.377 2.263m1.418 11.47a41 41 0 0 1-4.14-.666 43 43 0 0 1 1.456-3.966 56.791 56.791 0 0 0 2.685 4.632m6.589 5.446a43 43 0 0 1-2.704-3.235q1.291.05 2.629.05 1.375 0 2.712-.06a41 41 0 0 1-2.637 3.245m9.16-10.147a41 41 0 0 1 1.51 3.952c-1.304.297-2.71.537-4.192.715q.7-1.11 1.38-2.286.686-1.192 1.302-2.381m-2.965 1.422a63 63 0 0 1-2.156 3.477c-1.333.095-2.71.145-4.114.145a63 63 0 0 1-4.068-.129A54 54 0 0 1 25 34.357a54 54 0 0 1-1.917-3.62 54 54 0 0 1 1.912-3.622 54 54 0 0 1 2.178-3.468 54 54 0 0 1 4.09-.153h.001c1.391 0 2.763.053 4.099.155a58 58 0 0 1 2.164 3.456 63 63 0 0 1 1.937 3.605 58 58 0 0 1-1.93 3.637m3.96-21.433c1.504.867 2.089 4.366 1.143 8.955q-.09.439-.202.893a46 46 0 0 0-6.007-.949c-1.234-1.758-2.514-3.356-3.798-4.74q.518-.499 1.034-.948c3.316-2.886 6.417-4.026 7.83-3.211m-10.23 13.765a4.012 4.012 0 1 1 0 8.024 4.012 4.012 0 0 1 0-8.024"/></svg>