<svg xmlns="http://www.w3.org/2000/svg" width="62" height="61" fill="none" viewBox="0 0 62 61"><path fill="#7e7e7e" fill-rule="evenodd" d="m22.67 16.278 7.525 5.119c.17.112.368.174.572.177.203-.001.402-.063.571-.178l7.53-5.135a1.023 1.023 0 0 0-.143-1.75L31.201 10.8a1.04 1.04 0 0 0-.903 0l-7.502 3.712a1.021 1.021 0 0 0-.125 1.767m10.652 6.725c0 .34.168.657.446.85L39.8 27.96c.386.265.903.232 1.252-.08l5.06-4.51a1.023 1.023 0 0 0-.045-1.567l-4.832-3.85a1.03 1.03 0 0 0-1.212-.046l-6.255 4.263c-.273.189-.44.499-.446.832M18.32 28.592c.244.218.37.54.338.866-.032.328-.222.62-.51.78l-3.601 2.152a1.02 1.02 0 0 1-1.159-.079 1.03 1.03 0 0 1-.34-1.114l1.333-4.177a1.02 1.02 0 0 1 .703-.677.99.99 0 0 1 .95.223zm19.537.436-6.512-4.441a1.03 1.03 0 0 0-1.143 0l-6.513 4.44a1.04 1.04 0 0 0-.446.781c-.017.317.11.625.343.838l6.507 5.8a1.02 1.02 0 0 0 1.36 0l6.507-5.8c.235-.213.36-.521.337-.838a1.02 1.02 0 0 0-.44-.78m-17.37-1.148-5.054-4.51a1.05 1.05 0 0 1-.343-.809c.005-.302.146-.587.383-.774l4.831-3.873a1.04 1.04 0 0 1 1.218-.046l6.25 4.263a1.028 1.028 0 0 1 0 1.721l-6.027 4.108a1.026 1.026 0 0 1-1.258-.08m25.952 6.478-5.146-3.07a1.015 1.015 0 0 0-1.2.115l-6.29 5.595a1.03 1.03 0 0 0 .298 1.721l8.725 3.523q.182.075.377.075c.405 0 .773-.238.938-.609l2.704-6.036a1.03 1.03 0 0 0-.406-1.314m.715-7.338 1.332 4.177h-.011a1.03 1.03 0 0 1-.15.917 1.023 1.023 0 0 1-1.348.276l-3.608-2.152a1 1 0 0 1-.492-.78c-.033-.326.092-.65.338-.866L45.5 26.56c.258-.231.615-.315.949-.224.333.095.597.351.703.683M28.068 37.939a1.02 1.02 0 0 0-.326-.941l-6.29-5.595a1.015 1.015 0 0 0-1.2-.114l-5.146 3.07a1.04 1.04 0 0 0-.412 1.307l2.71 6.037c.225.503.806.738 1.316.533l8.719-3.523c.33-.131.567-.424.629-.774m3.087 1.721 6.999 2.823c.342.146.578.467.617.838.044.375-.123.745-.434.958l-7.004 4.848a1 1 0 0 1-.572.184 1.03 1.03 0 0 1-.572-.184l-6.998-4.848a1.02 1.02 0 0 1-.44-.958c.046-.375.291-.696.64-.838l6.998-2.823c.246-.098.52-.098.766 0" clip-rule="evenodd"/></svg>