<svg xmlns="http://www.w3.org/2000/svg" width="61" height="61" fill="none" viewBox="0 0 61 61"><path fill="#7e7e7e" d="M44.594 39.764c.33 4.179.33 6.137.33 8.275h-9.818c0-.466.008-.891.016-1.324.028-1.343.056-2.743-.166-5.57-.293-4.142-2.104-5.062-5.432-5.062H14.08V28.55h15.91c4.206 0 6.31-1.258 6.31-4.595 0-2.931-2.104-4.71-6.31-4.71H14.08v-7.37h17.664c9.52 0 14.252 4.428 14.252 11.5 0 5.291-3.33 8.741-7.827 9.316 3.797.748 6.017 2.875 6.425 7.072"/><path fill="#7e7e7e" d="M14.08 48.04v-5.616h10.383c1.733 0 2.11 1.266 2.11 2.022v3.593z"/></svg>