<svg width="62" height="62" viewBox="0 0 62 62" fill="none" xmlns="http://www.w3.org/2000/svg">
<path d="M18.275 15.2562L31.0001 7.98438L50.9026 19.3561V25.088L31.0001 13.7138L18.2999 20.9707L18.275 15.2562Z" fill="#7E7E7E"/>
<path d="M16.0733 39.2163L28.7611 46.4658L23.7979 49.3591L11.0977 42.1022V19.3561L16.0409 16.5325L16.0683 22.2544L16.0733 22.2569V39.2163Z" fill="#7E7E7E"/>
<path d="M45.927 24.8243V39.2163L31.0001 47.7445V47.752L26.0419 50.6428L31.0001 53.4764L50.9026 42.1022V27.6679L45.927 24.8243Z" fill="#7E7E7E"/>
<path d="M31.0002 16.2938L19.4393 22.8989L32.1296 30.1508L43.688 23.5432L31.0002 16.2938Z" fill="#7E7E7E"/>
<path d="M18.3124 24.8344V37.9153L31.0002 45.1672V32.0839L18.3124 24.8344Z" fill="#7E7E7E"/>
</svg>
