<svg xmlns="http://www.w3.org/2000/svg" width="337" height="211" fill="none" viewBox="0 0 337 211"><g clip-path="url(#a)"><path fill="#161616" d="M15.989 58h304.093c8.821 0 15.989 7.137 15.989 15.934V213.33H0V73.934C0 65.144 7.162 58 15.989 58"/><path fill="#3fcf8e" d="m197.789 79.94-14.707-37.386c-.358-.907.516-1.808 1.429-1.488l38.62 13.526c.986.346 1.025 1.722.059 2.12l-15.881 6.538c-.274.11-.496.333-.613.607l-6.806 16.11c-.398.939-1.729.92-2.101-.027m103.809 3.42c0-9.299-7.536-16.835-16.834-16.835H224.86c-9.297 0-16.833 7.536-16.833 16.834s7.536 16.834 16.833 16.834h59.904c9.298 0 16.834-7.536 16.834-16.834"/><path fill="#fff" d="M242.653 86.145a2.74 2.74 0 1 0 0-5.48 2.74 2.74 0 0 0 0 5.48M253.315 86.145a2.74 2.74 0 1 0 0-5.48 2.74 2.74 0 0 0 0 5.48M263.97 86.145a2.74 2.74 0 1 0 0-5.48 2.74 2.74 0 0 0 0 5.48"/><path fill="#7e7e7e" d="m89.33 138.436-6.708-15.889a1.12 1.12 0 0 0-.607-.601l-15.668-6.447c-.953-.391-.914-1.755.059-2.095l38.102-13.338c.907-.32 1.762.575 1.41 1.469l-14.507 36.882c-.365.933-1.683.952-2.075.026zm-8.02 3.348c0-9.175-7.44-16.608-16.607-16.608H5.607c-9.174 0-16.607 7.44-16.607 16.608 0 9.175 7.44 16.607 16.607 16.607h59.096c9.174 0 16.607-7.439 16.607-16.607M247.33 167.436l-6.708-15.889a1.12 1.12 0 0 0-.607-.601l-15.668-6.447c-.953-.391-.914-1.755.059-2.095l38.102-13.338c.907-.319 1.762.575 1.41 1.469l-14.507 36.882c-.365.933-1.683.952-2.075.026zm-8.02 3.348c0-9.175-7.439-16.608-16.607-16.608h-59.096c-9.174 0-16.607 7.44-16.607 16.608 0 9.175 7.439 16.607 16.607 16.607h59.096c9.174 0 16.607-7.439 16.607-16.607"/></g><defs><clipPath id="a"><path fill="#fff" d="M0 0h336.071v210.832H0z"/></clipPath></defs></svg>