<svg width="588" height="169" viewBox="0 0 588 169" fill="none" xmlns="http://www.w3.org/2000/svg">
<path fill-rule="evenodd" clip-rule="evenodd" d="M3.97904 44.7401C1.51565 46.1723 0 48.8067 0 51.6562V114.701C0 117.55 1.51565 120.185 3.97904 121.617L86 169.304V169.053L168.021 121.367C170.484 119.935 172 117.3 172 114.451V54.006C172 50.9214 168.656 48.9976 165.989 50.5479L89.9789 94.7401C87.5155 96.1723 85.9999 98.8067 85.9999 101.656V113.303L6.66502 67.1785L86 21.0535V4.00601C86 0.921424 82.6562 -1.0024 79.9895 0.547976L3.97904 44.7401ZM111.495 102.475C110.879 102.833 110.5 103.492 110.5 104.204V109.315C110.5 110.087 111.336 110.568 112.003 110.18L152.505 86.6319C153.121 86.2738 153.5 85.6152 153.5 84.9029V79.7916C153.5 79.0205 152.664 78.5396 151.997 78.9271L111.495 102.475Z" fill="#335BF1"/>
<path d="M57.3333 84.9895C57.3333 82.14 58.8489 79.5057 61.3123 78.0734L137.323 33.8813C139.989 32.3309 143.333 34.2547 143.333 37.3393V54.3869L57.3333 104.387V84.9895Z" fill="#335BF1"/>
<path d="M28.6666 68.3229C28.6666 65.4734 30.1823 62.839 32.6457 61.4068L108.656 17.2147C111.323 15.6643 114.667 17.5881 114.667 20.6727V37.7202L28.6666 87.7202V68.3229Z" fill="#335BF1"/>
<path d="M256.484 143C249.486 143 242.77 141.87 236.337 139.61C230.016 137.238 224.429 133.735 219.576 129.102C214.835 124.356 211.054 118.48 208.233 111.475C205.411 104.356 204 96.1076 204 86.7291C204 77.4635 205.467 69.2714 208.402 62.1528C211.336 54.9212 215.23 48.8759 220.084 44.0172C225.05 39.0454 230.693 35.2599 237.014 32.6611C243.448 30.0622 250.163 28.7628 257.161 28.7628C264.498 28.7628 271.044 30.2317 276.8 33.1696C282.557 35.9944 287.41 39.3844 291.36 43.3392L276.123 61.9833C273.414 59.6104 270.592 57.6895 267.658 56.2206C264.836 54.6387 261.563 53.8477 257.838 53.8477C254.565 53.8477 251.461 54.5822 248.527 56.0511C245.705 57.52 243.165 59.6104 240.908 62.3223C238.764 65.0342 237.014 68.3675 235.66 72.3223C234.418 76.2771 233.797 80.7404 233.797 85.7121C233.797 96.1076 235.942 104.074 240.231 109.61C244.633 115.147 250.389 117.916 257.5 117.916C261.789 117.916 265.57 117.012 268.843 115.204C272.229 113.283 275.107 111.023 277.477 108.424L292.715 126.729C287.974 132.153 282.5 136.221 276.292 138.932C270.197 141.644 263.595 143 256.484 143Z" fill="#335BF1"/>
<path d="M328.258 143C323.291 143 319.115 142.266 315.729 140.797C312.456 139.215 309.804 137.012 307.772 134.187C305.74 131.362 304.273 128.029 303.37 124.187C302.58 120.232 302.185 115.882 302.185 111.136V23.0001H331.305V112.153C331.305 115.091 331.813 117.068 332.829 118.085C333.958 119.102 335.03 119.61 336.046 119.61C336.61 119.61 337.061 119.61 337.4 119.61C337.852 119.61 338.416 119.497 339.093 119.271L342.479 140.627C340.899 141.305 338.924 141.87 336.554 142.322C334.296 142.774 331.531 143 328.258 143Z" fill="#335BF1"/>
<path d="M388.504 143C382.297 143 376.54 142.04 371.235 140.119C365.931 138.085 361.303 135.204 357.353 131.475C353.515 127.633 350.468 122.944 348.21 117.407C345.953 111.87 344.824 105.599 344.824 98.5935C344.824 91.7008 345.953 85.5426 348.21 80.1189C350.581 74.5822 353.628 69.8929 357.353 66.0511C361.19 62.2093 365.536 59.2714 370.389 57.2375C375.242 55.2037 380.265 54.1867 385.457 54.1867C391.665 54.1867 397.082 55.2602 401.71 57.407C406.338 59.5539 410.175 62.4918 413.223 66.2206C416.27 69.9494 418.527 74.2997 419.995 79.2715C421.575 84.2432 422.365 89.554 422.365 95.2037C422.365 97.8025 422.196 100.232 421.857 102.492C421.631 104.752 421.406 106.39 421.18 107.407H372.929C374.283 112.492 376.71 116.051 380.209 118.085C383.707 120.006 387.827 120.966 392.568 120.966C395.502 120.966 398.324 120.571 401.033 119.78C403.854 118.876 406.789 117.577 409.836 115.882L419.318 133.17C414.69 136.447 409.554 138.932 403.911 140.627C398.38 142.209 393.245 143 388.504 143ZM372.59 88.424H397.647C397.647 85.1472 396.8 82.3223 395.107 79.9494C393.527 77.4636 390.536 76.2206 386.134 76.2206C382.861 76.2206 379.983 77.1811 377.5 79.102C375.129 81.0229 373.493 84.1302 372.59 88.424Z" fill="#335BF1"/>
<path d="M458.956 140.966C445.701 140.966 434.956 130.221 434.956 116.966V56.2206H451.696C455.687 56.2206 459.068 59.1629 459.619 63.1162L460.69 70.7969H461.367C464.527 65.0342 468.252 60.8534 472.541 58.2545C476.943 55.5427 481.232 54.1867 485.408 54.1867C488.004 54.1867 490.092 54.3562 491.672 54.6952C493.252 54.9212 494.663 55.3167 495.905 55.8816L491.164 80.9664C489.584 80.6274 488.06 80.3449 486.593 80.1189C485.238 79.7799 483.602 79.6104 481.683 79.6104C478.636 79.6104 475.419 80.6839 472.033 82.8308C468.76 84.8647 466.107 88.537 464.076 93.8477V140.966H458.956Z" fill="#335BF1"/>
<path d="M526.333 140.966C513.078 140.966 502.333 130.221 502.333 116.966V23.0001H530.776V85.7121H531.453L547.61 65.3173C552.162 59.5711 559.091 56.2206 566.422 56.2206H586.307L556.171 91.4748L588 140.966H570.562C561.883 140.966 553.88 136.28 549.633 128.712L539.579 110.797L530.776 120.627V140.966H526.333Z" fill="#335BF1"/>
</svg>
