<svg width="490" height="432" viewBox="0 0 490 432" fill="none" xmlns="http://www.w3.org/2000/svg">
  <rect width="490" height="432" fill="#fafafa"/>
  
  <!-- Code block -->
  <g transform="translate(30, 30)">
    <rect x="0" y="0" width="430" height="280" rx="8" fill="#ffffff" stroke="#e5e5e5" stroke-width="1"/>
    
    <!-- Header -->
    <rect x="0" y="0" width="430" height="32" rx="8" fill="#f5f5f5"/>
    <circle cx="20" cy="16" r="5" fill="#ef4444"/>
    <circle cx="40" cy="16" r="5" fill="#f59e0b"/>
    <circle cx="60" cy="16" r="5" fill="#22c55e"/>
    <text x="200" y="20" fill="#525252" font-family="monospace" font-size="11" text-anchor="middle">trigger-sandbox.ts</text>
    
    <!-- Code -->
    <text x="16" y="60" fill="#a1a1aa" font-family="monospace" font-size="12">// Trigger via API</text>
    <text x="16" y="80" fill="#7c3aed" font-family="monospace" font-size="12">const</text>
    <text x="60" y="80" fill="#171717" font-family="monospace" font-size="12">{ data } =</text>
    <text x="150" y="80" fill="#7c3aed" font-family="monospace" font-size="12">await</text>
    <text x="200" y="80" fill="#171717" font-family="monospace" font-size="12">supabase</text>
    
    <text x="32" y="100" fill="#171717" font-family="monospace" font-size="12">.functions.invoke(</text>
    <text x="180" y="100" fill="#0891b2" font-family="monospace" font-size="12">'sandbox'</text>
    <text x="260" y="100" fill="#171717" font-family="monospace" font-size="12">, {</text>
    
    <text x="48" y="120" fill="#171717" font-family="monospace" font-size="12">body: {</text>
    <text x="64" y="140" fill="#171717" font-family="monospace" font-size="12">task:</text>
    <text x="110" y="140" fill="#0891b2" font-family="monospace" font-size="12">'process-batch'</text>
    <text x="230" y="140" fill="#171717" font-family="monospace" font-size="12">,</text>
    <text x="64" y="160" fill="#171717" font-family="monospace" font-size="12">config: {</text>
    <text x="80" y="180" fill="#171717" font-family="monospace" font-size="12">timeout:</text>
    <text x="150" y="180" fill="#db2777" font-family="monospace" font-size="12">3600</text>
    <text x="190" y="180" fill="#171717" font-family="monospace" font-size="12">,</text>
    <text x="200" y="180" fill="#a1a1aa" font-family="monospace" font-size="12">// 1 hour</text>
    <text x="80" y="200" fill="#171717" font-family="monospace" font-size="12">memory:</text>
    <text x="150" y="200" fill="#0891b2" font-family="monospace" font-size="12">'2GB'</text>
    <text x="200" y="200" fill="#171717" font-family="monospace" font-size="12">,</text>
    <text x="80" y="220" fill="#171717" font-family="monospace" font-size="12">cpu:</text>
    <text x="120" y="220" fill="#db2777" font-family="monospace" font-size="12">2</text>
    <text x="64" y="240" fill="#171717" font-family="monospace" font-size="12">}</text>
    <text x="48" y="260" fill="#171717" font-family="monospace" font-size="12">}</text>
  </g>
  
  <!-- Response indicator -->
  <g transform="translate(30, 330)">
    <rect x="0" y="0" width="430" height="80" rx="8" fill="#ffffff" stroke="#3ecf8e" stroke-width="1"/>
    <text x="16" y="24" fill="#3ecf8e" font-family="monospace" font-size="12">✓ Sandbox started</text>
    <text x="16" y="48" fill="#525252" font-family="monospace" font-size="11">Job ID: sbx_a1b2c3d4e5f6</text>
    <text x="16" y="68" fill="#525252" font-family="monospace" font-size="11">Status: RUNNING | ETA: ~45 minutes</text>
  </g>
</svg>
