<svg xmlns="http://www.w3.org/2000/svg" width="739" height="404" fill="none" viewBox="0 0 739 404"><g clip-path="url(#a)"><path stroke="url(#b)" stroke-dasharray="3 2" stroke-width=".5" d="m500.164 305.59-90.939 26.654"/><g filter="url(#c)"><circle cx="502.722" cy="304.81" r="1.485" fill="#fff" fill-opacity=".71" shape-rendering="crispEdges" transform="rotate(163.764 502.722 304.81)"/></g><g filter="url(#d)"><circle cx="434.848" cy="267.745" r="1.632" fill="#fff" fill-opacity=".71" shape-rendering="crispEdges" transform="rotate(163.764 434.848 267.745)"/></g><g filter="url(#e)"><circle cx="464.302" cy="245.951" r=".881" fill="#fff" fill-opacity=".71" shape-rendering="crispEdges" transform="rotate(163.764 464.302 245.951)"/></g><g filter="url(#f)"><circle cx="540.162" cy="131.132" r="2.028" fill="#fff" fill-opacity=".31" shape-rendering="crispEdges" transform="rotate(163.764 540.162 131.132)"/></g><g filter="url(#g)"><circle cx="458.975" cy="129.392" r="1.347" fill="#fff" fill-opacity=".71" shape-rendering="crispEdges" transform="rotate(163.764 458.975 129.392)"/></g><g filter="url(#h)"><circle cx="566.454" cy="292.104" r="1.156" fill="#fff" fill-opacity=".71" shape-rendering="crispEdges" transform="rotate(163.764 566.454 292.104)"/></g><g filter="url(#i)"><circle cx="578.998" cy="280.163" r="2.028" fill="#fff" fill-opacity=".71" shape-rendering="crispEdges" transform="rotate(163.764 578.998 280.163)"/></g><g filter="url(#j)"><circle cx="599.79" cy="212.81" r="1.237" fill="#fff" fill-opacity=".71" shape-rendering="crispEdges" transform="rotate(163.764 599.79 212.81)"/></g><path fill="url(#k)" d="m510.075 217.064-109.028-64.935v126.663l109.028 62.931z"/><path stroke="url(#l)" stroke-dasharray="3 2" stroke-opacity=".5" stroke-width=".5" d="m436.82 266.328 25.832-19.052"/><path stroke="url(#m)" stroke-dasharray="3 2" stroke-opacity=".3" stroke-width=".5" d="m580.457 276.879 18.315-60.874"/><path fill="url(#n)" d="m509.878 216.028 109.985-63.505v126.776l-109.985 63.483z"/><path stroke="url(#o)" stroke-dasharray="3 2" stroke-width=".5" d="m543.683 129.628 72.972-28.893"/><path fill="url(#p)" d="m510.974 216.131-110.525-63.744 110.355-63.714 109.671 63.335z"/><path stroke="url(#q)" stroke-width="1.75" d="m509.876 89.152-109.368 63.144v126.288l109.368 63.144 109.369-63.144V152.296z"/><g filter="url(#r)"><path stroke="url(#s)" stroke-linejoin="bevel" stroke-width="2.59" d="M509.877 89.152 401.368 151.8v125.295l108.509 62.647 108.509-62.647V151.8z"/></g><circle cx="538.358" cy="282.009" r="1.957" fill="#cacbdc" fill-opacity=".15" transform="rotate(-165 538.358 282.009)"/><circle cx="425.444" cy="236.603" r="1.957" fill="#cacbdc" fill-opacity=".15" transform="rotate(-165 425.444 236.603)"/><circle cx="499.89" cy="124.388" r="1.957" fill="#cacbdc" fill-opacity=".15" transform="rotate(-165 499.89 124.388)"/><circle cx="596.546" cy="274.466" r="1.957" fill="#cacbdc" fill-opacity=".15" transform="rotate(-165 596.546 274.466)"/><circle cx="586.507" cy="219.541" r="1.957" fill="#cacbdc" fill-opacity=".15" transform="rotate(-165 586.507 219.541)"/><circle cx="542.802" cy="287.981" r="1.004" fill="#cacbdc" fill-opacity=".15" transform="rotate(-165 542.802 287.981)"/><circle cx="451.935" cy="290.442" r="1.004" fill="#cacbdc" fill-opacity=".15" transform="rotate(-165 451.935 290.442)"/><circle cx="425.442" cy="258.915" r="1.004" fill="#cacbdc" fill-opacity=".15" transform="rotate(-165 425.442 258.915)"/><circle cx="431.743" cy="228.009" r="1.004" fill="#cacbdc" fill-opacity=".15" transform="rotate(-165 431.743 228.009)"/><circle cx="506.189" cy="115.798" r="1.004" fill="#cacbdc" fill-opacity=".15" transform="rotate(-165 506.189 115.798)"/><circle cx="489.97" cy="115.798" r="1.004" fill="#cacbdc" fill-opacity=".15" transform="rotate(-165 489.97 115.798)"/><circle cx="596.544" cy="280.313" r="1.004" fill="#cacbdc" fill-opacity=".15" transform="rotate(-165 596.544 280.313)"/><circle cx="578.845" cy="216.435" r="1.004" fill="#cacbdc" fill-opacity=".15" transform="rotate(-165 578.845 216.435)"/><circle cx="585.275" cy="211.458" r="1.004" fill="#cacbdc" fill-opacity=".15" transform="rotate(-165 585.275 211.458)"/><circle cx="571.325" cy="140.579" r="1.004" fill="#cacbdc" fill-opacity=".15" transform="rotate(-165 571.325 140.579)"/><g filter="url(#t)"><circle cx="525.677" cy="313.93" r="1.004" fill="#fff" fill-opacity=".41" shape-rendering="crispEdges" transform="rotate(163.764 525.677 313.93)"/></g><g filter="url(#u)"><circle cx="475.81" cy="284.407" r="1.004" fill="#fff" fill-opacity=".41" shape-rendering="crispEdges" transform="rotate(163.764 475.81 284.407)"/></g><g filter="url(#v)"><circle cx="438.064" cy="154.625" r="1.004" fill="#fff" fill-opacity=".41" shape-rendering="crispEdges" transform="rotate(163.764 438.064 154.625)"/></g><g filter="url(#w)"><circle cx="521.986" cy="123.704" r="1.004" fill="#fff" fill-opacity=".41" shape-rendering="crispEdges" transform="rotate(163.764 521.986 123.704)"/></g><g filter="url(#x)"><circle cx="447.373" cy="284.407" r="1.004" fill="#fff" fill-opacity=".41" shape-rendering="crispEdges" transform="rotate(163.764 447.373 284.407)"/></g><g filter="url(#y)"><circle cx="419.455" cy="262.801" r="1.004" fill="#fff" fill-opacity=".41" shape-rendering="crispEdges" transform="rotate(163.764 419.455 262.801)"/></g><path stroke="url(#z)" stroke-dasharray="3 2" stroke-width=".5" d="m501.43 45.215-26.978 89.667"/><path stroke="url(#A)" stroke-dasharray="3 2" stroke-opacity=".6" stroke-width=".5" d="m568.762 293.324 55.57 27.434"/><path stroke="url(#B)" stroke-dasharray="3 2" stroke-width=".5" d="m409.356 81.885 47.448 45.314"/><path stroke="url(#C)" d="M212.367 201.57h29.735c8.836 0 16-7.163 16-16v-10.743c0-8.832 7.155-15.993 15.986-16l21.177-.018c.552 0 1.001.448 1.001 1v7.714c0 14.249 0 21.373 3.628 26.368a19 19 0 0 0 4.204 4.203c4.994 3.629 12.119 3.629 26.368 3.629h19.56c14.249 0 21.373 0 26.368-3.629a19 19 0 0 0 4.203-4.203c3.629-4.995 3.629-12.119 3.629-26.368"/><path stroke="url(#D)" d="M212.367 198.57h29.735c7.179 0 13-5.82 13-13v-11.73c0-9.941 8.058-18 18-18h18.675l1.282.009h2.208a1 1 0 0 0 1-1v-6.946c0-14.249 0-21.373 3.629-26.368a19 19 0 0 1 4.204-4.203c4.994-3.629 12.118-3.629 26.367-3.629h19.561c14.249 0 21.373 0 26.368 3.629a19 19 0 0 1 4.203 4.203c3.629 4.995 3.629 12.119 3.629 26.368"/><path stroke="url(#E)" d="M212.367 211.856h29.735c8.836 0 16 7.163 16 16v10.743c0 8.831 7.155 15.993 15.986 16l21.177.017a1 1 0 0 0 1.001-1v-7.713c0-14.249 0-21.373 3.628-26.368a19 19 0 0 1 4.204-4.203c4.994-3.629 12.119-3.629 26.368-3.629h19.56c14.249 0 21.373 0 26.368 3.629a19 19 0 0 1 4.203 4.203c3.629 4.995 3.629 12.119 3.629 26.368"/><path stroke="url(#F)" d="M212.367 214.856h29.735c7.179 0 13 5.82 13 13v11.73c0 9.941 8.058 18 18 18h18.675l1.282-.009h2.208a1 1 0 0 1 1 1v6.946c0 14.249 0 21.373 3.629 26.368a19 19 0 0 0 4.204 4.203c4.994 3.629 12.118 3.629 26.367 3.629h19.561c14.249 0 21.373 0 26.368-3.629a19 19 0 0 0 4.203-4.203c3.629-4.995 3.629-12.119 3.629-26.368"/><path stroke="url(#G)" d="M448.621 204.57h-15.352c-8.837 0-16-7.163-16-16v-15.73c0-8.837-7.164-16-16-16h-20.675"/><path stroke="url(#H)" d="M448.625 208.84h-15.356c-8.836 0-16 7.164-16 16v15.73c0 8.837-7.163 16-16 16h-20.675"/><circle cx="623.176" cy="204.988" r="1.957" fill="#cacbdc" fill-opacity=".15" transform="rotate(147.801 623.176 204.988)"/><circle cx="724.789" cy="315.352" r="1.957" fill="#cacbdc" fill-opacity=".15" transform="rotate(147.801 724.789 315.352)"/><circle cx="704.399" cy="288.852" r="1.957" fill="#cacbdc" fill-opacity=".15" transform="rotate(147.801 704.399 288.852)"/><circle cx="555.012" cy="105.441" r="1.957" fill="#cacbdc" fill-opacity=".15" transform="rotate(147.801 555.012 105.441)"/><circle cx="525.77" cy="142.586" r="1.957" fill="#cacbdc" fill-opacity=".15" transform="rotate(147.801 525.77 142.586)"/><circle cx="627.446" cy="248.148" r="1.957" fill="#cacbdc" fill-opacity=".15" transform="rotate(147.801 627.446 248.148)"/><circle cx="610.51" cy="223.045" r="1.004" fill="#cacbdc" fill-opacity=".15" transform="rotate(147.801 610.51 223.045)"/><circle cx="364.885" cy="76.056" r="1.004" fill="#cacbdc" fill-opacity=".15" transform="rotate(147.801 364.885 76.056)"/><circle cx="316.815" cy="54.681" r="1.004" fill="#cacbdc" fill-opacity=".15" transform="rotate(147.801 316.815 54.681)"/><circle cx="265.108" cy="80.185" r="1.004" fill="#cacbdc" fill-opacity=".15" transform="rotate(147.801 265.108 80.185)"/><g filter="url(#I)"><circle cx="729.696" cy="240.137" r="1.004" fill="#fff" fill-opacity=".41" shape-rendering="crispEdges" transform="rotate(-165.571 729.696 240.137)"/></g><circle cx="620.369" cy="234.935" r="1.004" fill="#cacbdc" fill-opacity=".15" transform="rotate(147.801 620.369 234.935)"/><circle cx="649.477" cy="215.424" r="1.004" fill="#cacbdc" fill-opacity=".15" transform="rotate(-134.336 649.477 215.424)"/><circle cx="634.846" cy="248.943" r="1.004" fill="#cacbdc" fill-opacity=".15" transform="rotate(147.801 634.846 248.943)"/><circle cx="633.7" cy="223.944" r="1.004" fill="#cacbdc" fill-opacity=".15" transform="rotate(-134.336 633.7 223.944)"/><circle cx="541.614" cy="136.674" r="1.004" fill="#cacbdc" fill-opacity=".15" transform="rotate(-134.336 541.614 136.674)"/><circle cx="522.907" cy="191.85" r="1.004" fill="#cacbdc" fill-opacity=".15" transform="rotate(-134.336 522.907 191.85)"/><circle cx="447.016" cy="144.795" r="1.004" fill="#cacbdc" fill-opacity=".15" transform="rotate(-134.336 447.016 144.795)"/><circle cx="510.977" cy="75.58" r="1.004" fill="#cacbdc" fill-opacity=".15" transform="rotate(-134.336 510.977 75.58)"/><g filter="url(#J)"><circle cx="642.251" cy="279.136" r="1.004" fill="#fff" fill-opacity=".41" shape-rendering="crispEdges" transform="rotate(116.565 642.251 279.136)"/></g><g filter="url(#K)"><circle cx="657.231" cy="236.89" r="1.004" fill="#fff" fill-opacity=".41" shape-rendering="crispEdges" transform="rotate(116.565 657.231 236.89)"/></g><g filter="url(#L)"><circle cx="494.497" cy="130.39" r="1.004" fill="#fff" fill-opacity=".41" shape-rendering="crispEdges" transform="rotate(116.565 494.497 130.39)"/></g><g filter="url(#M)"><circle cx="321.005" cy="45.3" r="1.004" fill="#fff" fill-opacity=".41" shape-rendering="crispEdges" transform="rotate(116.565 321.005 45.3)"/></g><g filter="url(#N)"><rect width="112" height="112" x="103.672" y="152.047" fill="#fff" fill-opacity=".05" rx="16" shape-rendering="crispEdges"/><path fill="url(#O)" d="M159.428 180.725c-.037-2.442-3.122-3.49-4.644-1.577l-22.961 28.856c-2.71 3.406-.28 8.429 4.079 8.429h23.745l.28 18.596c.036 2.441 3.121 3.489 4.643 1.577l22.961-28.857c2.71-3.406.28-8.429-4.079-8.429H159.55z"/><rect width="111" height="111" x="104.172" y="152.547" stroke="url(#P)" stroke-opacity=".6" rx="15.5" shape-rendering="crispEdges"/></g><g filter="url(#Q)"><rect width="112" height="112" x="453.68" y="152.047" fill="#fff" fill-opacity=".05" rx="16" shape-rendering="crispEdges"/><g filter="url(#R)"><path fill="url(#S)" fill-rule="evenodd" d="M529.779 225.075a27.6 27.6 0 0 0 7.373-18.819c0-15.301-12.404-27.705-27.705-27.705s-27.705 12.404-27.705 27.705c0 6.556 2.278 12.58 6.085 17.325-1.831-1.586-7.317-6.109-8.696-4.608-1.531 1.668.832 3.087 4.472 5.273l.953.574c4.165 2.521 4.488 3.186 3.897 4.14-.219.352-1.613-.485-3.327-1.514-2.923-1.755-6.776-4.068-7.32-1.997-.471 1.792 2.363 2.89 4.934 3.886 2.143.831 4.102 1.59 3.815 2.621-.298 1.069-1.917.178-3.687-.797-1.987-1.093-4.164-2.292-4.876-.94-1.347 2.558 9.291 5.563 9.377 5.585 3.436.892 12.163 2.78 15.211-1.69q.306-.448.551-.877c2.028.473 4.143.723 6.316.723 2.3 0 4.534-.28 6.67-.808q.262.47.598.962c3.049 4.47 11.776 2.582 15.212 1.69.086-.022 10.724-3.027 9.377-5.585-.713-1.352-2.89-.153-4.876.94-1.77.975-3.389 1.866-3.687.797-.287-1.031 1.672-1.79 3.814-2.621 2.571-.996 5.406-2.094 4.935-3.886-.544-2.071-4.397.242-7.32 1.997-1.714 1.029-3.109 1.866-3.327 1.514-.591-.954-.268-1.619 3.897-4.14l.953-.574c3.64-2.186 6.003-3.605 4.471-5.273-1.661-1.809-9.293 5.135-9.293 5.135s-.489.509-1.092.967" clip-rule="evenodd"/></g><path fill="#7b7582" fill-rule="evenodd" d="M509.445 178.548c15.301 0 27.704 12.404 27.704 27.705 0 2.114-.236 4.172-.685 6.15-.779-.756-1.811-1.169-2.949-1.169-1.033 0-2.096.342-3.159 1.017-.706.448-1.486 1.242-2.288 2.24-.744-1.031-1.786-1.717-2.977-1.904a4.4 4.4 0 0 0-.688-.055c-2.72 0-4.356 2.359-4.975 4.482-.307.716-1.78 3.982-3.996 6.197-3.363 3.36-4.214 6.826-2.569 10.538a28 28 0 0 1-6.454.045c1.672-3.729.828-7.21-2.548-10.583-2.216-2.215-3.69-5.481-3.997-6.197-.618-2.123-2.254-4.482-4.974-4.482q-.345 0-.689.055c-1.191.187-2.232.873-2.976 1.904-.803-.998-1.582-1.792-2.288-2.24-1.064-.675-2.126-1.017-3.16-1.017-1.29 0-2.444.531-3.248 1.492l-.023.027a27.8 27.8 0 0 1-.766-6.5c0-15.301 12.404-27.705 27.705-27.705m5.249 58.155c-1.706.292-3.46.444-5.249.444-1.667 0-3.302-.132-4.897-.386-1.987 2.252-5.098 3.392-9.266 3.392-2.54 0-5.473-.427-8.716-1.268h-.001c-.067-.019-2.29-.638-4.716-1.6-3.944-1.564-5.974-3.02-6.792-4.869-.538-1.22-.499-2.53.111-3.689a4 4 0 0 1 .182-.314 4.68 4.68 0 0 1-.631-3.781 4.23 4.23 0 0 1 1.424-2.24 4.7 4.7 0 0 1-.632-1.763c-.196-1.357.254-2.714 1.269-3.819.789-.86 1.905-1.333 3.141-1.333h.03a30.9 30.9 0 0 1-1.4-9.224c0-17.062 13.831-30.894 30.894-30.894s30.894 13.832 30.894 30.894c0 3.221-.493 6.327-1.408 9.246q.225-.022.441-.022c1.236 0 2.352.473 3.141 1.333 1.014 1.105 1.465 2.462 1.269 3.819a4.7 4.7 0 0 1-.633 1.763 4.23 4.23 0 0 1 1.425 2.24c.19.723.384 2.229-.631 3.781q.096.152.181.314c.611 1.159.65 2.469.111 3.689-.817 1.849-2.848 3.305-6.791 4.869-2.453.973-4.697 1.594-4.717 1.6-3.244.841-6.177 1.268-8.716 1.268-4.204 0-7.332-1.159-9.317-3.45m-28.917-22.28c.407 0 .904.173 1.451.521 1.701 1.079 4.983 6.719 6.184 8.913.403.735 1.091 1.046 1.71 1.046 1.23 0 2.189-1.222.113-2.775-3.123-2.337-2.028-6.156-.537-6.391q.098-.016.192-.016c1.355 0 1.953 2.336 1.953 2.336s1.753 4.401 4.763 7.409c3.011 3.009 3.166 5.424.972 8.642-1.496 2.194-4.361 2.856-7.296 2.856-3.045 0-6.166-.712-7.916-1.166-.086-.022-10.724-3.027-9.376-5.585.226-.43.599-.602 1.069-.602 1.007 0 2.452.796 3.808 1.542 1.199.66 2.328 1.282 3.024 1.282.332 0 .566-.141.661-.485.288-1.031-1.672-1.791-3.814-2.621-2.571-.996-5.406-2.094-4.935-3.887.153-.581.565-.817 1.146-.816 1.487 0 4.072 1.552 6.175 2.814 1.442.866 2.657 1.596 3.137 1.596q.136 0 .19-.083c.59-.953.267-1.619-3.897-4.139l-.955-.575c-3.639-2.185-6.002-3.604-4.47-5.272.191-.209.462-.301.792-.301 2.528 0 8.501 5.436 8.501 5.436s1.612 1.677 2.587 1.677a.59.59 0 0 0 .544-.307c.348-.587-1.283-2.245-3.039-4.031-1.731-1.76-3.583-3.644-3.783-4.748-.271-1.507.191-2.27 1.046-2.27m46.287.521c.548-.348 1.045-.521 1.451-.521.856 0 1.318.763 1.046 2.27-.199 1.104-2.052 2.988-3.783 4.748-1.756 1.786-3.386 3.444-3.038 4.031.129.218.32.307.544.307.975 0 2.587-1.677 2.587-1.677s5.973-5.436 8.501-5.436c.329 0 .6.092.792.301 1.532 1.668-.831 3.087-4.47 5.272l-.955.575c-4.164 2.52-4.488 3.186-3.897 4.139q.054.083.19.083c.479 0 1.695-.73 3.137-1.596 2.103-1.262 4.687-2.814 6.175-2.814.58-.001.993.235 1.145.816.471 1.793-2.363 2.891-4.934 3.887-2.142.83-4.102 1.59-3.815 2.621.096.344.33.485.661.485.696 0 1.826-.622 3.025-1.282 1.356-.746 2.801-1.542 3.808-1.542.469 0 .842.172 1.069.602 1.347 2.558-9.291 5.563-9.377 5.585-1.749.454-4.87 1.166-7.915 1.166-2.935 0-5.8-.662-7.296-2.856-2.195-3.218-2.039-5.633.971-8.642s4.763-7.409 4.763-7.409.598-2.336 1.954-2.336q.093 0 .192.016c1.491.235 2.586 4.054-.537 6.391-2.077 1.553-1.117 2.775.113 2.775.619 0 1.307-.311 1.71-1.046 1.201-2.194 4.483-7.834 6.183-8.913" clip-rule="evenodd"/><path fill="#211b38" d="M509.47 218.064c7.836 0 10.364-6.986 10.364-10.574 0-1.864-1.253-1.277-3.261-.284-1.855.919-4.354 2.185-7.103 2.185-5.724 0-10.365-5.488-10.365-1.901s2.529 10.574 10.365 10.574M499.89 198.929c-1.016.359-1.42 2.448-2.446 1.902a3.986 3.986 0 1 1 5.391-1.648c-.488.917-2.036-.575-2.945-.254M518.67 198.929c1.016.359 1.42 2.448 2.446 1.902a3.987 3.987 0 1 0-5.391-1.648c.488.917 2.036-.575 2.945-.254"/><path fill="#756882" d="M528.404 202.686a2.591 2.591 0 1 0 0-5.182 2.591 2.591 0 0 0 0 5.182M491.333 202.686a2.591 2.591 0 1 0 0-5.182 2.591 2.591 0 0 0 0 5.182M511.861 213.153q.148.047.294.101a6.94 6.94 0 0 1 3.474 2.839c-.889.639-2.89 2.065-6 2.065-2.838 0-5.049-1.153-5.906-1.803a6.94 6.94 0 0 1 4.054-3.243c.626-.186 1.29 2.112 1.976 2.112.735 0 1.444-2.284 2.108-2.071"/><rect width="111" height="111" x="454.18" y="152.547" stroke="url(#T)" stroke-opacity=".6" rx="15.5" shape-rendering="crispEdges"/></g><g filter="url(#U)"><rect width="81.146" height="81.146" x="299.672" y="117.113" fill="#fff" fill-opacity=".05" rx="16" shape-rendering="crispEdges"/><path fill="url(#V)" fill-rule="evenodd" d="M323.801 141.242h32.89v32.891h-32.89zm25.143 27.574c-1.524 0-2.386-.795-3.049-1.877l-2.511 1.459c.907 1.793 2.761 3.161 5.632 3.161 2.935 0 5.121-1.525 5.121-4.307 0-2.582-1.482-3.73-4.108-4.856l-.773-.331c-1.326-.574-1.9-.949-1.9-1.877 0-.75.573-1.324 1.479-1.324.887 0 1.459.374 1.989 1.324l2.406-1.545c-1.018-1.791-2.43-2.475-4.395-2.475-2.761 0-4.527 1.765-4.527 4.083 0 2.516 1.482 3.707 3.712 4.657l.773.331c1.409.617 2.25.992 2.25 2.052 0 .885-.818 1.525-2.099 1.525m-11.978-.02c-1.062 0-1.503-.728-1.989-1.589l-2.516 1.523c.729 1.542 2.162 2.823 4.637 2.823 2.739 0 4.615-1.457 4.615-4.657v-10.551h-3.091v10.509c0 1.545-.64 1.942-1.656 1.942" clip-rule="evenodd"/><rect width="80.146" height="80.146" x="300.172" y="117.613" stroke="url(#W)" stroke-opacity=".6" rx="15.5" shape-rendering="crispEdges"/></g><g filter="url(#X)"><rect width="81.146" height="81.146" x="299.672" y="215.168" fill="#fff" fill-opacity=".05" rx="16" shape-rendering="crispEdges"/><path fill="url(#Y)" fill-rule="evenodd" d="M336.119 238.874a23.6 23.6 0 0 1 3.922-.335c1.403-.006 2.866.1 4.276.335 2.227.371 4.104 2.042 4.104 4.266v7.815c0 2.292-1.822 4.171-4.104 4.171h-8.198c-2.783 0-5.127 2.39-5.127 5.099v3.749h-2.822c-2.385 0-3.778-1.731-4.362-4.161-.787-3.264-.753-5.215 0-8.341.654-2.727 2.742-4.161 5.127-4.161h11.288v-1.043h-8.207v-3.128c0-2.368.63-3.652 4.103-4.266m1.024 3.75c0-.865-.693-1.569-1.54-1.569-.851 0-1.54.704-1.54 1.569 0 .862.689 1.559 1.54 1.559.847 0 1.54-.697 1.54-1.559m12.301 8.331v-3.645h3.08c2.389 0 3.515 1.787 4.104 4.161.821 3.298.857 5.77 0 8.341-.829 2.498-1.718 4.161-4.104 4.161h-12.301v1.043h8.198v3.128c0 2.368-2.038 3.572-4.104 4.171-3.108.901-5.6.763-8.198 0-2.169-.639-4.103-1.947-4.103-4.171v-7.815c0-2.249 1.858-4.171 4.103-4.171h8.198c2.732 0 5.127-2.378 5.127-5.203m-3.07 17.705c0-.862-.689-1.559-1.54-1.559a1.55 1.55 0 0 0-1.54 1.559c0 .866.692 1.569 1.54 1.569.851 0 1.54-.703 1.54-1.569" clip-rule="evenodd"/><rect width="80.146" height="80.146" x="300.172" y="215.668" stroke="url(#Z)" stroke-opacity=".6" rx="15.5" shape-rendering="crispEdges"/></g><g filter="url(#aa)"><circle cx="502.326" cy="43.253" r=".903" fill="#fff" fill-opacity=".4" shape-rendering="crispEdges" transform="rotate(163.764 502.326 43.253)"/></g><g filter="url(#ab)"><circle cx="619.166" cy="99.556" r="1.341" fill="#cba9de" transform="rotate(163.764 619.166 99.556)"/></g><g filter="url(#ac)"><circle cx="407.955" cy="80.53" r="2.028" fill="#dcc6e9" transform="rotate(163.764 407.955 80.53)"/></g><g filter="url(#ad)"><circle cx="628.185" cy="322.491" r="2.028" fill="#fff" fill-opacity=".71" shape-rendering="crispEdges" transform="rotate(163.764 628.185 322.491)"/></g><g filter="url(#ae)"><circle cx="407.023" cy="333.084" r="1.1" fill="#fff" fill-opacity=".71" shape-rendering="crispEdges" transform="rotate(163.764 407.023 333.084)"/></g><g filter="url(#af)"><circle cx="473.533" cy="137.397" r="2.028" fill="#dcc6e9" transform="rotate(163.764 473.533 137.397)"/></g><g filter="url(#ag)"><rect width="120.812" height="120.154" x="449.133" y="148.281" stroke="url(#ah)" stroke-opacity=".6" rx="20" shape-rendering="crispEdges"/></g></g><defs><filter id="c" width="6.969" height="6.973" x="499.238" y="301.324" color-interpolation-filters="sRGB" filterUnits="userSpaceOnUse"><feFlood flood-opacity="0" result="BackgroundImageFix"/><feColorMatrix in="SourceAlpha" result="hardAlpha" values="0 0 0 0 0 0 0 0 0 0 0 0 0 0 0 0 0 0 127 0"/><feOffset/><feGaussianBlur stdDeviation="1"/><feComposite in2="hardAlpha" operator="out"/><feColorMatrix values="0 0 0 0 1 0 0 0 0 1 0 0 0 0 1 0 0 0 0.52 0"/><feBlend in2="BackgroundImageFix" result="effect1_dropShadow_2967_55802"/><feBlend in="SourceGraphic" in2="effect1_dropShadow_2967_55802" result="shape"/></filter><filter id="d" width="7.266" height="7.266" x="431.215" y="264.113" color-interpolation-filters="sRGB" filterUnits="userSpaceOnUse"><feFlood flood-opacity="0" result="BackgroundImageFix"/><feColorMatrix in="SourceAlpha" result="hardAlpha" values="0 0 0 0 0 0 0 0 0 0 0 0 0 0 0 0 0 0 127 0"/><feOffset/><feGaussianBlur stdDeviation="1"/><feComposite in2="hardAlpha" operator="out"/><feColorMatrix values="0 0 0 0 1 0 0 0 0 1 0 0 0 0 1 0 0 0 0.52 0"/><feBlend in2="BackgroundImageFix" result="effect1_dropShadow_2967_55802"/><feBlend in="SourceGraphic" in2="effect1_dropShadow_2967_55802" result="shape"/></filter><filter id="e" width="5.762" height="5.762" x="461.422" y="243.07" color-interpolation-filters="sRGB" filterUnits="userSpaceOnUse"><feFlood flood-opacity="0" result="BackgroundImageFix"/><feColorMatrix in="SourceAlpha" result="hardAlpha" values="0 0 0 0 0 0 0 0 0 0 0 0 0 0 0 0 0 0 127 0"/><feOffset/><feGaussianBlur stdDeviation="1"/><feComposite in2="hardAlpha" operator="out"/><feColorMatrix values="0 0 0 0 1 0 0 0 0 1 0 0 0 0 1 0 0 0 0.52 0"/><feBlend in2="BackgroundImageFix" result="effect1_dropShadow_2967_55802"/><feBlend in="SourceGraphic" in2="effect1_dropShadow_2967_55802" result="shape"/></filter><filter id="f" width="8.059" height="8.059" x="536.133" y="127.102" color-interpolation-filters="sRGB" filterUnits="userSpaceOnUse"><feFlood flood-opacity="0" result="BackgroundImageFix"/><feColorMatrix in="SourceAlpha" result="hardAlpha" values="0 0 0 0 0 0 0 0 0 0 0 0 0 0 0 0 0 0 127 0"/><feOffset/><feGaussianBlur stdDeviation="1"/><feComposite in2="hardAlpha" operator="out"/><feColorMatrix values="0 0 0 0 1 0 0 0 0 1 0 0 0 0 1 0 0 0 0.52 0"/><feBlend in2="BackgroundImageFix" result="effect1_dropShadow_2967_55802"/><feBlend in="SourceGraphic" in2="effect1_dropShadow_2967_55802" result="shape"/></filter><filter id="g" width="6.691" height="6.691" x="455.629" y="126.047" color-interpolation-filters="sRGB" filterUnits="userSpaceOnUse"><feFlood flood-opacity="0" result="BackgroundImageFix"/><feColorMatrix in="SourceAlpha" result="hardAlpha" values="0 0 0 0 0 0 0 0 0 0 0 0 0 0 0 0 0 0 127 0"/><feOffset/><feGaussianBlur stdDeviation="1"/><feComposite in2="hardAlpha" operator="out"/><feColorMatrix values="0 0 0 0 1 0 0 0 0 1 0 0 0 0 1 0 0 0 0.52 0"/><feBlend in2="BackgroundImageFix" result="effect1_dropShadow_2967_55802"/><feBlend in="SourceGraphic" in2="effect1_dropShadow_2967_55802" result="shape"/></filter><filter id="h" width="6.313" height="6.313" x="563.297" y="288.949" color-interpolation-filters="sRGB" filterUnits="userSpaceOnUse"><feFlood flood-opacity="0" result="BackgroundImageFix"/><feColorMatrix in="SourceAlpha" result="hardAlpha" values="0 0 0 0 0 0 0 0 0 0 0 0 0 0 0 0 0 0 127 0"/><feOffset/><feGaussianBlur stdDeviation="1"/><feComposite in2="hardAlpha" operator="out"/><feColorMatrix values="0 0 0 0 1 0 0 0 0 1 0 0 0 0 1 0 0 0 0.52 0"/><feBlend in2="BackgroundImageFix" result="effect1_dropShadow_2967_55802"/><feBlend in="SourceGraphic" in2="effect1_dropShadow_2967_55802" result="shape"/></filter><filter id="i" width="8.059" height="8.059" x="574.969" y="276.133" color-interpolation-filters="sRGB" filterUnits="userSpaceOnUse"><feFlood flood-opacity="0" result="BackgroundImageFix"/><feColorMatrix in="SourceAlpha" result="hardAlpha" values="0 0 0 0 0 0 0 0 0 0 0 0 0 0 0 0 0 0 127 0"/><feOffset/><feGaussianBlur stdDeviation="1"/><feComposite in2="hardAlpha" operator="out"/><feColorMatrix values="0 0 0 0 1 0 0 0 0 1 0 0 0 0 1 0 0 0 0.52 0"/><feBlend in2="BackgroundImageFix" result="effect1_dropShadow_2967_55802"/><feBlend in="SourceGraphic" in2="effect1_dropShadow_2967_55802" result="shape"/></filter><filter id="j" width="6.477" height="6.473" x="596.551" y="209.574" color-interpolation-filters="sRGB" filterUnits="userSpaceOnUse"><feFlood flood-opacity="0" result="BackgroundImageFix"/><feColorMatrix in="SourceAlpha" result="hardAlpha" values="0 0 0 0 0 0 0 0 0 0 0 0 0 0 0 0 0 0 127 0"/><feOffset/><feGaussianBlur stdDeviation="1"/><feComposite in2="hardAlpha" operator="out"/><feColorMatrix values="0 0 0 0 1 0 0 0 0 1 0 0 0 0 1 0 0 0 0.52 0"/><feBlend in2="BackgroundImageFix" result="effect1_dropShadow_2967_55802"/><feBlend in="SourceGraphic" in2="effect1_dropShadow_2967_55802" result="shape"/></filter><filter id="r" width="229.691" height="262.918" x="395.031" y="82.988" color-interpolation-filters="sRGB" filterUnits="userSpaceOnUse"><feFlood flood-opacity="0" result="BackgroundImageFix"/><feBlend in="SourceGraphic" in2="BackgroundImageFix" result="shape"/><feGaussianBlur result="effect1_foregroundBlur_2967_55802" stdDeviation="2.521"/></filter><filter id="t" width="6.008" height="6.008" x="522.672" y="310.926" color-interpolation-filters="sRGB" filterUnits="userSpaceOnUse"><feFlood flood-opacity="0" result="BackgroundImageFix"/><feColorMatrix in="SourceAlpha" result="hardAlpha" values="0 0 0 0 0 0 0 0 0 0 0 0 0 0 0 0 0 0 127 0"/><feOffset/><feGaussianBlur stdDeviation="1"/><feComposite in2="hardAlpha" operator="out"/><feColorMatrix values="0 0 0 0 1 0 0 0 0 1 0 0 0 0 1 0 0 0 0.52 0"/><feBlend in2="BackgroundImageFix" result="effect1_dropShadow_2967_55802"/><feBlend in="SourceGraphic" in2="effect1_dropShadow_2967_55802" result="shape"/></filter><filter id="u" width="6.008" height="6.008" x="472.805" y="281.402" color-interpolation-filters="sRGB" filterUnits="userSpaceOnUse"><feFlood flood-opacity="0" result="BackgroundImageFix"/><feColorMatrix in="SourceAlpha" result="hardAlpha" values="0 0 0 0 0 0 0 0 0 0 0 0 0 0 0 0 0 0 127 0"/><feOffset/><feGaussianBlur stdDeviation="1"/><feComposite in2="hardAlpha" operator="out"/><feColorMatrix values="0 0 0 0 1 0 0 0 0 1 0 0 0 0 1 0 0 0 0.52 0"/><feBlend in2="BackgroundImageFix" result="effect1_dropShadow_2967_55802"/><feBlend in="SourceGraphic" in2="effect1_dropShadow_2967_55802" result="shape"/></filter><filter id="v" width="6.008" height="6.008" x="435.059" y="151.621" color-interpolation-filters="sRGB" filterUnits="userSpaceOnUse"><feFlood flood-opacity="0" result="BackgroundImageFix"/><feColorMatrix in="SourceAlpha" result="hardAlpha" values="0 0 0 0 0 0 0 0 0 0 0 0 0 0 0 0 0 0 127 0"/><feOffset/><feGaussianBlur stdDeviation="1"/><feComposite in2="hardAlpha" operator="out"/><feColorMatrix values="0 0 0 0 1 0 0 0 0 1 0 0 0 0 1 0 0 0 0.52 0"/><feBlend in2="BackgroundImageFix" result="effect1_dropShadow_2967_55802"/><feBlend in="SourceGraphic" in2="effect1_dropShadow_2967_55802" result="shape"/></filter><filter id="w" width="6.008" height="6.008" x="518.98" y="120.699" color-interpolation-filters="sRGB" filterUnits="userSpaceOnUse"><feFlood flood-opacity="0" result="BackgroundImageFix"/><feColorMatrix in="SourceAlpha" result="hardAlpha" values="0 0 0 0 0 0 0 0 0 0 0 0 0 0 0 0 0 0 127 0"/><feOffset/><feGaussianBlur stdDeviation="1"/><feComposite in2="hardAlpha" operator="out"/><feColorMatrix values="0 0 0 0 1 0 0 0 0 1 0 0 0 0 1 0 0 0 0.52 0"/><feBlend in2="BackgroundImageFix" result="effect1_dropShadow_2967_55802"/><feBlend in="SourceGraphic" in2="effect1_dropShadow_2967_55802" result="shape"/></filter><filter id="x" width="6.008" height="6.008" x="444.367" y="281.402" color-interpolation-filters="sRGB" filterUnits="userSpaceOnUse"><feFlood flood-opacity="0" result="BackgroundImageFix"/><feColorMatrix in="SourceAlpha" result="hardAlpha" values="0 0 0 0 0 0 0 0 0 0 0 0 0 0 0 0 0 0 127 0"/><feOffset/><feGaussianBlur stdDeviation="1"/><feComposite in2="hardAlpha" operator="out"/><feColorMatrix values="0 0 0 0 1 0 0 0 0 1 0 0 0 0 1 0 0 0 0.52 0"/><feBlend in2="BackgroundImageFix" result="effect1_dropShadow_2967_55802"/><feBlend in="SourceGraphic" in2="effect1_dropShadow_2967_55802" result="shape"/></filter><filter id="y" width="6.008" height="6.008" x="416.449" y="259.797" color-interpolation-filters="sRGB" filterUnits="userSpaceOnUse"><feFlood flood-opacity="0" result="BackgroundImageFix"/><feColorMatrix in="SourceAlpha" result="hardAlpha" values="0 0 0 0 0 0 0 0 0 0 0 0 0 0 0 0 0 0 127 0"/><feOffset/><feGaussianBlur stdDeviation="1"/><feComposite in2="hardAlpha" operator="out"/><feColorMatrix values="0 0 0 0 1 0 0 0 0 1 0 0 0 0 1 0 0 0 0.52 0"/><feBlend in2="BackgroundImageFix" result="effect1_dropShadow_2967_55802"/><feBlend in="SourceGraphic" in2="effect1_dropShadow_2967_55802" result="shape"/></filter><filter id="I" width="6.008" height="6.008" x="726.691" y="237.133" color-interpolation-filters="sRGB" filterUnits="userSpaceOnUse"><feFlood flood-opacity="0" result="BackgroundImageFix"/><feColorMatrix in="SourceAlpha" result="hardAlpha" values="0 0 0 0 0 0 0 0 0 0 0 0 0 0 0 0 0 0 127 0"/><feOffset/><feGaussianBlur stdDeviation="1"/><feComposite in2="hardAlpha" operator="out"/><feColorMatrix values="0 0 0 0 1 0 0 0 0 1 0 0 0 0 1 0 0 0 0.52 0"/><feBlend in2="BackgroundImageFix" result="effect1_dropShadow_2967_55802"/><feBlend in="SourceGraphic" in2="effect1_dropShadow_2967_55802" result="shape"/></filter><filter id="J" width="6.008" height="6.008" x="639.246" y="276.133" color-interpolation-filters="sRGB" filterUnits="userSpaceOnUse"><feFlood flood-opacity="0" result="BackgroundImageFix"/><feColorMatrix in="SourceAlpha" result="hardAlpha" values="0 0 0 0 0 0 0 0 0 0 0 0 0 0 0 0 0 0 127 0"/><feOffset/><feGaussianBlur stdDeviation="1"/><feComposite in2="hardAlpha" operator="out"/><feColorMatrix values="0 0 0 0 1 0 0 0 0 1 0 0 0 0 1 0 0 0 0.52 0"/><feBlend in2="BackgroundImageFix" result="effect1_dropShadow_2967_55802"/><feBlend in="SourceGraphic" in2="effect1_dropShadow_2967_55802" result="shape"/></filter><filter id="K" width="6.008" height="6.008" x="654.227" y="233.887" color-interpolation-filters="sRGB" filterUnits="userSpaceOnUse"><feFlood flood-opacity="0" result="BackgroundImageFix"/><feColorMatrix in="SourceAlpha" result="hardAlpha" values="0 0 0 0 0 0 0 0 0 0 0 0 0 0 0 0 0 0 127 0"/><feOffset/><feGaussianBlur stdDeviation="1"/><feComposite in2="hardAlpha" operator="out"/><feColorMatrix values="0 0 0 0 1 0 0 0 0 1 0 0 0 0 1 0 0 0 0.52 0"/><feBlend in2="BackgroundImageFix" result="effect1_dropShadow_2967_55802"/><feBlend in="SourceGraphic" in2="effect1_dropShadow_2967_55802" result="shape"/></filter><filter id="L" width="6.008" height="6.008" x="491.492" y="127.387" color-interpolation-filters="sRGB" filterUnits="userSpaceOnUse"><feFlood flood-opacity="0" result="BackgroundImageFix"/><feColorMatrix in="SourceAlpha" result="hardAlpha" values="0 0 0 0 0 0 0 0 0 0 0 0 0 0 0 0 0 0 127 0"/><feOffset/><feGaussianBlur stdDeviation="1"/><feComposite in2="hardAlpha" operator="out"/><feColorMatrix values="0 0 0 0 1 0 0 0 0 1 0 0 0 0 1 0 0 0 0.52 0"/><feBlend in2="BackgroundImageFix" result="effect1_dropShadow_2967_55802"/><feBlend in="SourceGraphic" in2="effect1_dropShadow_2967_55802" result="shape"/></filter><filter id="M" width="6.008" height="6.008" x="318" y="42.297" color-interpolation-filters="sRGB" filterUnits="userSpaceOnUse"><feFlood flood-opacity="0" result="BackgroundImageFix"/><feColorMatrix in="SourceAlpha" result="hardAlpha" values="0 0 0 0 0 0 0 0 0 0 0 0 0 0 0 0 0 0 127 0"/><feOffset/><feGaussianBlur stdDeviation="1"/><feComposite in2="hardAlpha" operator="out"/><feColorMatrix values="0 0 0 0 1 0 0 0 0 1 0 0 0 0 1 0 0 0 0.52 0"/><feBlend in2="BackgroundImageFix" result="effect1_dropShadow_2967_55802"/><feBlend in="SourceGraphic" in2="effect1_dropShadow_2967_55802" result="shape"/></filter><filter id="N" width="184" height="184" x="67.672" y="116.047" color-interpolation-filters="sRGB" filterUnits="userSpaceOnUse"><feFlood flood-opacity="0" result="BackgroundImageFix"/><feColorMatrix in="SourceAlpha" result="hardAlpha" values="0 0 0 0 0 0 0 0 0 0 0 0 0 0 0 0 0 0 127 0"/><feOffset/><feGaussianBlur stdDeviation="18"/><feComposite in2="hardAlpha" operator="out"/><feColorMatrix values="0 0 0 0 0 0 0 0 0 0 0 0 0 0 0 0 0 0 0.25 0"/><feBlend in2="BackgroundImageFix" result="effect1_dropShadow_2967_55802"/><feBlend in="SourceGraphic" in2="effect1_dropShadow_2967_55802" result="shape"/></filter><filter id="Q" width="184" height="184" x="417.68" y="116.047" color-interpolation-filters="sRGB" filterUnits="userSpaceOnUse"><feFlood flood-opacity="0" result="BackgroundImageFix"/><feColorMatrix in="SourceAlpha" result="hardAlpha" values="0 0 0 0 0 0 0 0 0 0 0 0 0 0 0 0 0 0 127 0"/><feOffset/><feGaussianBlur stdDeviation="18"/><feComposite in2="hardAlpha" operator="out"/><feColorMatrix values="0 0 0 0 0 0 0 0 0 0 0 0 0 0 0 0 0 0 0.25 0"/><feBlend in2="BackgroundImageFix" result="effect1_dropShadow_2967_55802"/><feBlend in="SourceGraphic" in2="effect1_dropShadow_2967_55802" result="shape"/></filter><filter id="R" width="69.742" height="64.371" x="474.777" y="178.551" color-interpolation-filters="sRGB" filterUnits="userSpaceOnUse"><feFlood flood-opacity="0" result="BackgroundImageFix"/><feColorMatrix in="SourceAlpha" result="hardAlpha" values="0 0 0 0 0 0 0 0 0 0 0 0 0 0 0 0 0 0 127 0"/><feOffset dy="2.976"/><feGaussianBlur stdDeviation="1.488"/><feComposite in2="hardAlpha" operator="out"/><feColorMatrix values="0 0 0 0 0 0 0 0 0 0 0 0 0 0 0 0 0 0 0.25 0"/><feBlend in2="BackgroundImageFix" result="effect1_dropShadow_2967_55802"/><feBlend in="SourceGraphic" in2="effect1_dropShadow_2967_55802" result="shape"/></filter><filter id="U" width="153.145" height="153.145" x="263.672" y="81.113" color-interpolation-filters="sRGB" filterUnits="userSpaceOnUse"><feFlood flood-opacity="0" result="BackgroundImageFix"/><feGaussianBlur in="BackgroundImageFix" stdDeviation="2"/><feComposite in2="SourceAlpha" operator="in" result="effect1_backgroundBlur_2967_55802"/><feColorMatrix in="SourceAlpha" result="hardAlpha" values="0 0 0 0 0 0 0 0 0 0 0 0 0 0 0 0 0 0 127 0"/><feOffset/><feGaussianBlur stdDeviation="18"/><feComposite in2="hardAlpha" operator="out"/><feColorMatrix values="0 0 0 0 0 0 0 0 0 0 0 0 0 0 0 0 0 0 0.55 0"/><feBlend in2="effect1_backgroundBlur_2967_55802" result="effect2_dropShadow_2967_55802"/><feBlend in="SourceGraphic" in2="effect2_dropShadow_2967_55802" result="shape"/></filter><filter id="X" width="153.145" height="153.145" x="263.672" y="179.168" color-interpolation-filters="sRGB" filterUnits="userSpaceOnUse"><feFlood flood-opacity="0" result="BackgroundImageFix"/><feGaussianBlur in="BackgroundImageFix" stdDeviation="2"/><feComposite in2="SourceAlpha" operator="in" result="effect1_backgroundBlur_2967_55802"/><feColorMatrix in="SourceAlpha" result="hardAlpha" values="0 0 0 0 0 0 0 0 0 0 0 0 0 0 0 0 0 0 127 0"/><feOffset/><feGaussianBlur stdDeviation="18"/><feComposite in2="hardAlpha" operator="out"/><feColorMatrix values="0 0 0 0 0 0 0 0 0 0 0 0 0 0 0 0 0 0 0.25 0"/><feBlend in2="effect1_backgroundBlur_2967_55802" result="effect2_dropShadow_2967_55802"/><feBlend in="SourceGraphic" in2="effect2_dropShadow_2967_55802" result="shape"/></filter><filter id="aa" width="5.809" height="5.805" x="499.422" y="40.352" color-interpolation-filters="sRGB" filterUnits="userSpaceOnUse"><feFlood flood-opacity="0" result="BackgroundImageFix"/><feColorMatrix in="SourceAlpha" result="hardAlpha" values="0 0 0 0 0 0 0 0 0 0 0 0 0 0 0 0 0 0 127 0"/><feOffset/><feGaussianBlur stdDeviation="1"/><feComposite in2="hardAlpha" operator="out"/><feColorMatrix values="0 0 0 0 1 0 0 0 0 1 0 0 0 0 1 0 0 0 0.52 0"/><feBlend in2="BackgroundImageFix" result="effect1_dropShadow_2967_55802"/><feBlend in="SourceGraphic" in2="effect1_dropShadow_2967_55802" result="shape"/></filter><filter id="ab" width="6.684" height="6.684" x="615.824" y="96.215" color-interpolation-filters="sRGB" filterUnits="userSpaceOnUse"><feFlood flood-opacity="0" result="BackgroundImageFix"/><feColorMatrix in="SourceAlpha" result="hardAlpha" values="0 0 0 0 0 0 0 0 0 0 0 0 0 0 0 0 0 0 127 0"/><feOffset/><feGaussianBlur stdDeviation="1"/><feComposite in2="hardAlpha" operator="out"/><feColorMatrix values="0 0 0 0 1 0 0 0 0 1 0 0 0 0 1 0 0 0 0.52 0"/><feBlend in2="BackgroundImageFix" result="effect1_dropShadow_2967_55802"/><feBlend in="SourceGraphic" in2="effect1_dropShadow_2967_55802" result="shape"/></filter><filter id="ac" width="8.059" height="8.059" x="403.926" y="76.5" color-interpolation-filters="sRGB" filterUnits="userSpaceOnUse"><feFlood flood-opacity="0" result="BackgroundImageFix"/><feColorMatrix in="SourceAlpha" result="hardAlpha" values="0 0 0 0 0 0 0 0 0 0 0 0 0 0 0 0 0 0 127 0"/><feOffset/><feGaussianBlur stdDeviation="1"/><feComposite in2="hardAlpha" operator="out"/><feColorMatrix values="0 0 0 0 1 0 0 0 0 1 0 0 0 0 1 0 0 0 0.52 0"/><feBlend in2="BackgroundImageFix" result="effect1_dropShadow_2967_55802"/><feBlend in="SourceGraphic" in2="effect1_dropShadow_2967_55802" result="shape"/></filter><filter id="ad" width="8.059" height="8.059" x="624.156" y="318.461" color-interpolation-filters="sRGB" filterUnits="userSpaceOnUse"><feFlood flood-opacity="0" result="BackgroundImageFix"/><feColorMatrix in="SourceAlpha" result="hardAlpha" values="0 0 0 0 0 0 0 0 0 0 0 0 0 0 0 0 0 0 127 0"/><feOffset/><feGaussianBlur stdDeviation="1"/><feComposite in2="hardAlpha" operator="out"/><feColorMatrix values="0 0 0 0 1 0 0 0 0 1 0 0 0 0 1 0 0 0 0.52 0"/><feBlend in2="BackgroundImageFix" result="effect1_dropShadow_2967_55802"/><feBlend in="SourceGraphic" in2="effect1_dropShadow_2967_55802" result="shape"/></filter><filter id="ae" width="6.203" height="6.199" x="403.922" y="329.984" color-interpolation-filters="sRGB" filterUnits="userSpaceOnUse"><feFlood flood-opacity="0" result="BackgroundImageFix"/><feColorMatrix in="SourceAlpha" result="hardAlpha" values="0 0 0 0 0 0 0 0 0 0 0 0 0 0 0 0 0 0 127 0"/><feOffset/><feGaussianBlur stdDeviation="1"/><feComposite in2="hardAlpha" operator="out"/><feColorMatrix values="0 0 0 0 1 0 0 0 0 1 0 0 0 0 1 0 0 0 0.52 0"/><feBlend in2="BackgroundImageFix" result="effect1_dropShadow_2967_55802"/><feBlend in="SourceGraphic" in2="effect1_dropShadow_2967_55802" result="shape"/></filter><filter id="af" width="8.059" height="8.059" x="469.504" y="133.367" color-interpolation-filters="sRGB" filterUnits="userSpaceOnUse"><feFlood flood-opacity="0" result="BackgroundImageFix"/><feColorMatrix in="SourceAlpha" result="hardAlpha" values="0 0 0 0 0 0 0 0 0 0 0 0 0 0 0 0 0 0 127 0"/><feOffset/><feGaussianBlur stdDeviation="1"/><feComposite in2="hardAlpha" operator="out"/><feColorMatrix values="0 0 0 0 1 0 0 0 0 1 0 0 0 0 1 0 0 0 0.52 0"/><feBlend in2="BackgroundImageFix" result="effect1_dropShadow_2967_55802"/><feBlend in="SourceGraphic" in2="effect1_dropShadow_2967_55802" result="shape"/></filter><filter id="ag" width="193.812" height="193.152" x="412.633" y="111.781" color-interpolation-filters="sRGB" filterUnits="userSpaceOnUse"><feFlood flood-opacity="0" result="BackgroundImageFix"/><feColorMatrix in="SourceAlpha" result="hardAlpha" values="0 0 0 0 0 0 0 0 0 0 0 0 0 0 0 0 0 0 127 0"/><feOffset/><feGaussianBlur stdDeviation="18"/><feComposite in2="hardAlpha" operator="out"/><feColorMatrix values="0 0 0 0 0 0 0 0 0 0 0 0 0 0 0 0 0 0 0.25 0"/><feBlend in2="BackgroundImageFix" result="effect1_dropShadow_2967_55802"/><feBlend in="SourceGraphic" in2="effect1_dropShadow_2967_55802" result="shape"/></filter><linearGradient id="b" x1="502.404" x2="457.787" y1="313.591" y2="275.948" gradientUnits="userSpaceOnUse"><stop stop-color="#fff"/><stop offset="1" stop-color="#fff" stop-opacity=".522"/></linearGradient><linearGradient id="k" x1="468.907" x2="454.981" y1="204.939" y2="341.703" gradientUnits="userSpaceOnUse"><stop stop-color="#161616" stop-opacity="0"/><stop offset="1" stop-color="#6b349a" stop-opacity=".65"/></linearGradient><linearGradient id="l" x1="459.223" x2="444.81" y1="249.785" y2="267.478" gradientUnits="userSpaceOnUse"><stop stop-color="#fff" stop-opacity=".4"/><stop offset="1" stop-color="#fff"/></linearGradient><linearGradient id="m" x1="474.822" x2="528.126" y1="270.722" y2="326.378" gradientUnits="userSpaceOnUse"><stop stop-color="#fff" stop-opacity=".4"/><stop offset="1" stop-color="#fff"/></linearGradient><linearGradient id="n" x1="551.407" x2="565.31" y1="205.519" y2="342.777" gradientUnits="userSpaceOnUse"><stop stop-color="#6b349a" stop-opacity=".65"/><stop offset="1" stop-color="#161616" stop-opacity="0"/></linearGradient><linearGradient id="o" x1="612.938" x2="564.94" y1="101.932" y2="79.725" gradientUnits="userSpaceOnUse"><stop stop-color="#fff"/><stop offset="1" stop-color="#fff" stop-opacity=".4"/></linearGradient><linearGradient id="p" x1="480.838" x2="593.054" y1="185.366" y2="104.513" gradientUnits="userSpaceOnUse"><stop stop-color="#6b349a" stop-opacity=".65"/><stop offset="1" stop-color="#161616" stop-opacity="0"/></linearGradient><linearGradient id="q" x1="557.662" x2="404.372" y1="128.667" y2="204.274" gradientUnits="userSpaceOnUse"><stop stop-color="#d9d9d9"/><stop offset="1" stop-color="#15121b"/></linearGradient><linearGradient id="s" x1="590.724" x2="464.738" y1="111.988" y2="175.151" gradientUnits="userSpaceOnUse"><stop stop-color="#fff"/><stop offset="1" stop-color="#4b4b4b" stop-opacity="0"/></linearGradient><linearGradient id="z" x1="509.122" x2="454.399" y1="49.609" y2="70.032" gradientUnits="userSpaceOnUse"><stop stop-color="#fff" stop-opacity="0"/><stop offset="1" stop-color="#fff"/></linearGradient><linearGradient id="A" x1="621.646" x2="568.762" y1="318.48" y2="290.303" gradientUnits="userSpaceOnUse"><stop stop-color="#fff"/><stop offset="1" stop-color="#fff" stop-opacity=".4"/></linearGradient><linearGradient id="B" x1="462.618" x2="464.822" y1="118.642" y2="88.836" gradientUnits="userSpaceOnUse"><stop stop-color="#fff" stop-opacity=".31"/><stop offset="1" stop-color="#fff"/></linearGradient><linearGradient id="C" x1="366.171" x2="214.4" y1="162.202" y2="200.848" gradientUnits="userSpaceOnUse"><stop stop-color="#b490e1" stop-opacity="0"/><stop offset=".42" stop-color="#b490e1"/><stop offset="1" stop-color="#fff" stop-opacity="0"/></linearGradient><linearGradient id="D" x1="347.321" x2="248.594" y1="137.696" y2="193.261" gradientUnits="userSpaceOnUse"><stop stop-color="#b490e1" stop-opacity="0"/><stop offset=".494" stop-color="#fff"/><stop offset="1" stop-color="#fff" stop-opacity="0"/></linearGradient><linearGradient id="E" x1="366.171" x2="214.4" y1="251.224" y2="212.578" gradientUnits="userSpaceOnUse"><stop stop-color="#b490e1" stop-opacity="0"/><stop offset=".42" stop-color="#b490e1"/><stop offset="1" stop-color="#fff" stop-opacity="0"/></linearGradient><linearGradient id="F" x1="347.321" x2="248.594" y1="275.729" y2="220.164" gradientUnits="userSpaceOnUse"><stop stop-color="#b490e1" stop-opacity="0"/><stop offset=".494" stop-color="#fff"/><stop offset="1" stop-color="#fff" stop-opacity="0"/></linearGradient><linearGradient id="G" x1="381.486" x2="450.555" y1="158.93" y2="199.219" gradientUnits="userSpaceOnUse"><stop stop-color="#534170"/><stop offset=".474" stop-color="#d5cce1"/><stop offset="1" stop-color="#a196aa"/></linearGradient><linearGradient id="H" x1="381.487" x2="450.557" y1="254.48" y2="214.189" gradientUnits="userSpaceOnUse"><stop stop-color="#4b3c66"/><stop offset=".474" stop-color="#d5cce1"/><stop offset="1" stop-color="#a196aa"/></linearGradient><linearGradient id="O" x1="130.671" x2="190.636" y1="238.048" y2="180.081" gradientUnits="userSpaceOnUse"><stop stop-color="#ededed" stop-opacity=".5"/><stop offset="1" stop-color="#fff"/></linearGradient><linearGradient id="P" x1="159.672" x2="159.672" y1="152.047" y2="264.047" gradientUnits="userSpaceOnUse"><stop stop-color="#a095cf"/><stop offset="1" stop-color="#a095cf" stop-opacity="0"/></linearGradient><linearGradient id="S" x1="509.648" x2="509.648" y1="178.551" y2="236.97" gradientUnits="userSpaceOnUse"><stop stop-color="#dddbdf"/><stop offset="1" stop-color="#9b96a2"/></linearGradient><linearGradient id="T" x1="509.68" x2="509.68" y1="152.047" y2="264.047" gradientUnits="userSpaceOnUse"><stop stop-color="#a095cf"/><stop offset="1" stop-color="#a095cf" stop-opacity="0"/></linearGradient><linearGradient id="V" x1="323.801" x2="356.691" y1="174.133" y2="141.242" gradientUnits="userSpaceOnUse"><stop stop-color="#ededed" stop-opacity=".5"/><stop offset="1" stop-color="#fff"/></linearGradient><linearGradient id="W" x1="340.245" x2="340.245" y1="117.113" y2="198.26" gradientUnits="userSpaceOnUse"><stop stop-color="#a095cf"/><stop offset="1" stop-color="#a095cf" stop-opacity="0"/></linearGradient><linearGradient id="Y" x1="323.23" x2="357.63" y1="272.94" y2="238.916" gradientUnits="userSpaceOnUse"><stop stop-color="#ededed" stop-opacity=".5"/><stop offset="1" stop-color="#fff"/></linearGradient><linearGradient id="Z" x1="340.245" x2="340.245" y1="215.168" y2="296.314" gradientUnits="userSpaceOnUse"><stop stop-color="#a095cf"/><stop offset="1" stop-color="#a095cf" stop-opacity="0"/></linearGradient><linearGradient id="ah" x1="457.506" x2="572.967" y1="179.632" y2="229.827" gradientUnits="userSpaceOnUse"><stop stop-color="#fff"/><stop offset="1" stop-color="#a095cf" stop-opacity="0"/></linearGradient><clipPath id="a"><path fill="#fff" d="M0 0h739v404H0z"/></clipPath></defs></svg>