<svg width="377" height="480" viewBox="0 0 377 480" fill="none" xmlns="http://www.w3.org/2000/svg">
<path d="M153.033 425.415C249.115 419.2 307.06 433.706 283.416 455.294C259.771 476.882 177.927 487.494 101.589 473.346C42.4028 462.376 28.7041 433.457 153.033 425.415Z" fill="#B4BCF6"/>
<path fill-rule="evenodd" clip-rule="evenodd" d="M198.128 146.438C209.132 151.079 216.126 150.589 219.182 135.843C222.447 120.09 230.979 121.367 237.946 134.584C256.173 169.164 252.482 199.586 244.427 226.58C266.31 224.388 290.7 193.306 296.068 175.966C301.572 158.186 324.767 160.118 324.767 175.966C324.767 191.815 309.561 213.174 292.64 229.024C278.857 241.934 253.002 251.958 235.784 252.918C230.63 272.309 227.839 305.754 244.534 337.146C263.532 372.866 244.155 417.65 215.487 433.789C233.251 432.976 243.046 448.191 226.886 457.871C218.182 463.085 154.998 461.913 154.993 451.03C154.99 446.037 159.456 440.36 163.47 435.256C170.395 426.453 175.977 419.356 154.976 420.421C128.435 421.767 116.762 397.16 110.87 384.687L110.668 384.642C95.404 381.215 63.5881 374.073 35.356 344.261C3.44172 310.56 11.2363 258.435 15.8114 227.84C16.3177 224.455 16.7846 221.333 17.1538 218.528C18.6759 206.969 20.7312 188.587 17.13 174.201C16.279 170.802 15.0273 167.64 13.885 164.755C10.5223 156.262 8.10697 150.162 19.6465 147.42C45.2848 141.328 41.5286 200.704 36.9809 228.628C19.4943 335.997 76.5491 348.881 110.854 355.779C98.7141 325.689 114.609 281.81 127.671 257.159C136.027 241.389 145.937 228.625 153.758 218.552C158.163 212.88 161.904 208.061 164.333 204.039C171.075 192.874 177.837 174.693 175.07 153.364C172.403 132.811 177.319 132.816 184.055 137.086C184.055 137.086 193.751 144.591 198.128 146.438Z" fill="white"/>
<path d="M213.645 431.893C232.434 419.542 255.68 448.478 228.101 451.904C201.583 455.502 207.414 440.062 213.645 431.893Z" fill="white"/>
<path d="M179.004 443.764C179.748 441.908 186.198 437.51 206.051 434.769C225.904 432.027 237.845 448.476 220.554 458.756C211.71 464.015 147.537 462.869 147.537 451.903C147.537 438.196 181.235 419.348 147.537 421.062C120.579 422.432 108.736 397.645 102.758 385.08L102.554 385.035C87.0519 381.59 54.741 374.411 26.0824 344.388C-9.89914 306.693 3.88377 246.072 7.66326 217.711C9.21556 206.063 11.313 187.54 7.66326 173.048C4.26181 159.541 -5.47031 149.772 10.2338 146.062C36.2775 139.909 32.4301 199.739 27.7958 227.877C12.7906 318.984 63.4098 346.641 96.8155 355.952M213.216 431.891C232.005 419.54 255.251 448.476 227.671 451.903M102.758 355.952C90.4443 325.641 106.612 281.421 119.892 256.575C133.172 231.73 150.305 214.285 157.159 203.032C164.012 191.778 170.89 173.455 168.091 151.967C165.394 131.259 170.387 131.261 177.226 135.56C177.226 135.56 187.07 143.117 191.515 144.975C202.689 149.646 209.793 149.148 212.905 134.288C216.229 118.413 224.895 119.696 231.964 133.009C254.971 176.342 243.53 213.208 231.964 245.01C225.621 262.45 219.269 301.124 238.545 337.105C254.94 367.708 243.136 404.932 221.32 425.391" stroke="black" stroke-width="1.5" stroke-linecap="round"/>
<path d="M245.216 218.88C261.118 225.084 287.702 190.452 293.802 170.748C299.306 152.968 322.501 154.899 322.501 170.748C322.501 186.597 307.295 207.956 290.374 223.806C273.453 239.655 248.397 248.435 233.404 244.152" stroke="black" stroke-width="1.5" stroke-linecap="round"/>
<circle r="10.8938" transform="matrix(-0.999967 0.00809726 0.00809726 0.999967 237.401 181.601)" fill="#FF3F54"/>
<path d="M253.723 185.773L237.265 179.617" stroke="black" stroke-width="1.5" stroke-linecap="round"/>
<path d="M254.624 176.301L237.353 179.539" stroke="black" stroke-width="1.5" stroke-linecap="round"/>
<circle cx="187.162" cy="187.642" r="10.8938" transform="rotate(-3.44294 187.162 187.642)" fill="#FF3F54"/>
<path d="M171.161 192.915L187.162 185.652" stroke="black" stroke-width="1.5" stroke-linecap="round"/>
<path d="M169.617 183.528L187.068 185.582" stroke="black" stroke-width="1.5" stroke-linecap="round"/>
<path d="M208.928 191.318C210.589 197.477 223.036 197.766 222.554 187.642" stroke="black" stroke-width="1.5" stroke-linecap="round"/>
<path d="M198.691 164.905C197.138 158.718 184.698 158.209 185.002 168.34" stroke="black" stroke-width="1.5" stroke-linecap="round"/>
<path d="M184.869 260.577C173.543 269.838 159.053 263.891 153.224 259.759L158.068 248.366C157.775 236.233 167.389 211.765 179.004 189.754C190.141 168.648 213.235 148.493 226.234 144.992C239.233 141.49 262.532 142.636 258.814 161.645C257.712 167.283 255.939 181.008 231.695 168.464C229.661 168.691 225.017 170.836 216.381 178.227C202.583 190.038 199.026 248.999 184.869 260.577Z" fill="white"/>
<path d="M184.869 260.577C173.543 269.838 159.053 263.891 153.224 259.759L158.068 248.366C157.775 236.233 167.389 211.765 179.004 189.754C190.141 168.648 213.235 148.493 226.234 144.992C239.233 141.49 262.532 142.636 258.814 161.645C257.712 167.283 255.939 181.008 231.695 168.464C229.661 168.691 225.017 170.836 216.381 178.227C202.583 190.038 199.026 248.999 184.869 260.577Z" fill="white"/>
<path d="M153.224 259.762C159.053 263.894 173.543 269.842 184.869 260.58C199.026 249.003 199.137 196.61 216.381 178.23C226.323 167.634 232.548 169.196 242.721 172.622C252.895 176.049 258.178 167.764 258.814 161.648C260.391 146.493 246.582 140.089 228.479 143.709C212.415 146.921 194.005 162.581 178.615 189.617C168.295 207.747 160.292 223.457 160.585 235.59" stroke="black" stroke-width="1.5" stroke-linecap="round"/>
<path d="M195.708 272.852C204.704 248.008 222.785 303.458 223.98 346.957C223.98 359.339 222.44 369.167 215.412 379.083C214.052 381.002 211.557 358.094 195.708 346.956C191.116 343.729 174.238 340.961 173.434 325.111C171.937 295.601 191.006 285.839 195.708 272.852Z" fill="#B4BCF6"/>
<path d="M185.002 341.389C201.279 345.275 222.011 374.118 212.416 396.77C202.821 419.422 194.997 426.611 187.572 435.078" stroke="black" stroke-width="1.5" stroke-linecap="round"/>
<path d="M304.737 174.394C300.967 174.533 296.121 178.017 301.972 185.26C305.015 188.8 311.241 186.797 312.299 181.912C312.862 179.314 309.45 174.22 304.737 174.394Z" fill="#B4BCF6"/>
<path d="M310.304 168.649C308.762 168.706 306.78 170.131 309.173 173.094C310.418 174.542 312.964 173.723 313.397 171.724C313.627 170.662 312.232 168.578 310.304 168.649Z" fill="#B4BCF6"/>
<path d="M314.418 174.792C312.876 174.849 310.894 176.274 313.287 179.237C314.532 180.685 317.078 179.865 317.511 177.867C317.741 176.804 316.346 174.721 314.418 174.792Z" fill="#B4BCF6"/>
<path d="M303.298 167.356C301.756 167.413 299.774 168.838 302.167 171.801C303.412 173.249 305.958 172.43 306.391 170.431C306.621 169.369 305.226 167.285 303.298 167.356Z" fill="#B4BCF6"/>
<circle cx="275.465" cy="56.4624" r="55.7983" fill="black"/>
<path d="M282.802 99.3497C280.554 102.18 275.997 100.629 275.943 97.0154L275.151 44.1602H310.691C317.128 44.1602 320.719 51.5952 316.716 56.6367L282.802 99.3497Z" fill="url(#paint0_linear_755_2647)"/>
<path d="M282.802 99.3497C280.554 102.18 275.997 100.629 275.943 97.0154L275.151 44.1602H310.691C317.128 44.1602 320.719 51.5952 316.716 56.6367L282.802 99.3497Z" fill="url(#paint1_linear_755_2647)" fill-opacity="0.2"/>
<path d="M268.348 14.3016C270.595 11.4711 275.152 13.022 275.206 16.6358L275.553 69.491H240.458C234.021 69.491 230.431 62.0559 234.434 57.0145L268.348 14.3016Z" fill="#3ECF8E"/>
<path d="M342.065 37.1137C357.44 58.6094 352.479 88.4992 330.983 103.874" stroke="black" stroke-width="1.5" stroke-linecap="round"/>
<path d="M359.35 51.3458C369.098 64.9738 365.952 83.9235 352.324 93.6712" stroke="black" stroke-width="1.5" stroke-linecap="round"/>
<path d="M199.62 67.4745C187.57 43.9528 196.87 15.1165 220.391 3.06683" stroke="black" stroke-width="1.5" stroke-linecap="round"/>
<path d="M183.608 48.0331C176.781 34.706 182.05 18.3678 195.377 11.5406" stroke="black" stroke-width="1.5" stroke-linecap="round"/>
<defs>
<linearGradient id="paint0_linear_755_2647" x1="275.151" y1="55.8795" x2="306.738" y2="69.1269" gradientUnits="userSpaceOnUse">
<stop stop-color="#249361"/>
<stop offset="1" stop-color="#3ECF8E"/>
</linearGradient>
<linearGradient id="paint1_linear_755_2647" x1="261.148" y1="36.7058" x2="275.553" y2="63.8226" gradientUnits="userSpaceOnUse">
<stop/>
<stop offset="1" stop-opacity="0"/>
</linearGradient>
</defs>
</svg>
