<svg width="343" height="414" viewBox="0 0 343 414" fill="none" xmlns="http://www.w3.org/2000/svg">
<path d="M174.833 343.982C51.3625 335.995 -23.1001 354.636 7.28403 382.378C37.6682 410.12 142.843 423.757 240.94 405.575C316.998 391.479 334.601 354.316 174.833 343.982Z" fill="#3ECF8E"/>
<path d="M132.275 152.68C74.8947 211.751 65.5536 314.375 68.0557 358.304C44.5847 353.309 49.7445 355.829 40.875 355.829C24.6349 355.829 31.1611 382.986 46.4887 376.873C53.5818 374.044 81.7919 381.562 96.1642 370.225C112.022 357.716 187.873 366.425 208.89 370.225C229.905 374.024 233.206 378.237 252.833 376.873C266.767 375.906 274.663 354.74 250.642 354.414L233.759 356.13C231.327 348.499 230.133 341.166 230.877 332.458C230.877 332.458 233.082 333.05 237.22 334.318C267.42 343.572 310.585 330.514 317.236 292.226C324.711 249.206 296.889 216.529 288.583 188.4C280.277 160.271 296.473 138.132 304.033 138.132C311.594 138.132 313.914 142.484 317.236 151.171C319.894 158.12 325.437 160.129 327.876 160.266C338.042 158.173 333.137 142.842 331.322 138.132C323.376 117.504 287.266 106.57 277.277 159.084C267.287 211.6 307.39 238.505 304.033 280.222C300.708 321.552 256.797 326.512 234.878 318.766C233.759 318.371 233.02 316.807 233.02 316.807C241.068 278.019 265.425 226.41 265.425 147.061C265.425 108.605 259.715 75.7799 248.492 58.6223C241.237 47.5317 235.513 44.9088 231.651 58.6224C222.625 77.7379 204.707 68.8 196.876 61.9417C191.114 57.773 186.722 57.4778 187.873 75.7799C189.783 106.174 168.767 136.568 156.348 142.268C148.887 142.268 143.788 143.615 132.275 152.68Z" fill="white"/>
<path d="M175.561 178.069C199.813 179.407 202.647 229.619 182.609 288.416C171.652 317.141 131.543 324.071 111.008 314.299C90.4718 304.528 145.246 176.398 175.561 178.069Z" fill="#B4BCF6"/>
<path d="M75.2132 353.446C73.8242 328.963 76.0853 286.318 88.19 243.076C92.46 228.884 105 195.4 121 175" stroke="black" stroke-width="1.5" stroke-linecap="round"/>
<path d="M204.033 55.9219C204.033 55.9219 212.246 63.1495 216.047 65.0465L204.033 55.9219Z" fill="black"/>
<path d="M240.178 311.784C248.226 272.843 272.583 221.033 272.583 141.373C272.583 102.767 266.873 69.8132 255.649 52.5885C248.394 41.4544 242.671 38.8214 238.809 52.5886C235.195 65.4756 225.6 69.8132 216.047 65.0455C212.246 63.1486 204.034 55.921 204.034 55.921C198.272 51.7359 193.88 51.4395 195.03 69.8132C195.864 83.1312 192.33 96.4491 187.05 107.706M238.931 352.289C284.786 340.37 276.763 370.916 259.99 372.085C240.364 373.455 237.063 369.225 216.047 365.411C195.03 361.597 119.18 352.853 103.322 365.411C88.9494 376.792 60.7394 369.246 53.6464 372.085C38.3186 378.222 32.6297 353.015 48.8698 353.015C61.8619 353.015 70.2049 356.193 72.7524 357.782M240.917 351.261C238.484 343.599 237.291 336.238 238.033 327.495" stroke="black" stroke-width="1.5" stroke-linecap="round"/>
<path d="M236.252 311.1C254.9 322.152 307.536 320.637 311.19 275.054C314.548 233.174 274.444 206.163 284.433 153.443C294.424 100.722 330.533 111.699 338.48 132.408C340.294 137.136 345.199 152.527 335.032 154.628C332.593 154.492 327.051 152.474 324.394 145.497C321.071 136.776 318.75 132.408 311.19 132.408C303.63 132.408 287.435 154.634 295.74 182.872C304.046 211.111 331.868 243.917 324.394 287.105C316.919 330.294 263.349 341.507 233.864 324.896" stroke="black" stroke-width="1.5" stroke-linecap="round"/>
<path d="M184.371 248.445C178.662 254.467 168.551 250.006 169.152 241.729L177.944 120.672L259.236 127.802C273.961 129.093 280.681 146.82 270.514 157.549L184.371 248.445Z" fill="url(#paint0_linear_757_2389)"/>
<path d="M184.371 248.445C178.662 254.467 168.551 250.006 169.152 241.729L177.944 120.672L259.236 127.802C273.961 129.093 280.681 146.82 270.514 157.549L184.371 248.445Z" fill="url(#paint1_linear_757_2389)" fill-opacity="0.2"/>
<path d="M168.373 51.0104C174.081 44.987 184.193 49.4486 183.592 57.7255L173.782 178.694L93.507 171.653C78.7824 170.361 72.0618 152.634 82.2294 141.906L168.373 51.0104Z" fill="#3ECF8E"/>
<mask id="path-11-inside-1_757_2389" fill="white">
<path fill-rule="evenodd" clip-rule="evenodd" d="M182.092 53.7354C182.693 45.4585 172.581 40.9968 166.872 47.0203L80.7292 137.916C70.5615 148.644 77.2821 166.371 92.0068 167.663L172.23 174.699L167.651 237.739C167.05 246.016 177.162 250.477 182.871 244.454L269.014 153.559C279.181 142.83 272.46 125.103 257.736 123.812L176.983 116.729L182.092 53.7354Z"/>
</mask>
<path d="M166.872 47.0203L167.961 48.0521L167.961 48.0521L166.872 47.0203ZM182.092 53.7354L183.587 53.8566L183.588 53.844L182.092 53.7354ZM80.7292 137.916L81.8179 138.948H81.8179L80.7292 137.916ZM92.0068 167.663L92.1378 166.168H92.1378L92.0068 167.663ZM172.23 174.699L173.726 174.808L173.833 173.334L172.361 173.205L172.23 174.699ZM167.651 237.739L166.155 237.631L167.651 237.739ZM182.871 244.454L183.959 245.486L183.959 245.486L182.871 244.454ZM269.014 153.559L270.102 154.59L270.102 154.59L269.014 153.559ZM257.736 123.812L257.867 122.318L257.736 123.812ZM176.983 116.729L175.488 116.608L175.368 118.093L176.852 118.223L176.983 116.729ZM167.961 48.0521C172.7 43.0517 181.095 46.7555 180.596 53.6267L183.588 53.844C184.291 44.1614 172.462 38.942 165.784 45.9885L167.961 48.0521ZM81.8179 138.948L167.961 48.0521L165.784 45.9884L79.6405 136.884L81.8179 138.948ZM92.1378 166.168C78.6636 164.987 72.5137 148.765 81.8179 138.948L79.6405 136.884C68.6094 148.524 75.9007 167.756 91.8757 169.157L92.1378 166.168ZM172.361 173.205L92.1378 166.168L91.8757 169.157L172.099 176.193L172.361 173.205ZM169.147 237.848L173.726 174.808L170.734 174.59L166.155 237.631L169.147 237.848ZM181.782 243.423C177.043 248.423 168.648 244.719 169.147 237.848L166.155 237.631C165.452 247.313 177.281 252.532 183.959 245.486L181.782 243.423ZM267.925 152.527L181.782 243.423L183.959 245.486L270.102 154.59L267.925 152.527ZM257.605 125.306C271.079 126.488 277.229 142.709 267.925 152.527L270.102 154.59C281.133 142.951 273.842 123.719 257.867 122.318L257.605 125.306ZM176.852 118.223L257.605 125.306L257.867 122.318L177.114 115.235L176.852 118.223ZM180.597 53.6141L175.488 116.608L178.478 116.85L183.587 53.8566L180.597 53.6141Z" fill="black" mask="url(#path-11-inside-1_757_2389)"/>
<path d="M253.925 186.527C247.906 167.231 231.782 146.881 221.495 141.959C211.209 137.037 191.628 134.397 191.791 150.803C192.034 175.078 214.86 149.175 224.574 171.16C228.392 179.802 227.849 193.435 229.954 211.301C231.678 225.934 246.893 233.681 253.602 223.607C260.098 213.851 260.963 209.087 253.925 186.527Z" fill="white"/>
<path d="M253.925 186.527C247.906 167.231 231.782 146.881 221.495 141.959C211.209 137.037 191.628 134.397 191.791 150.803C192.034 175.078 214.86 149.175 224.574 171.16C228.392 179.802 227.849 193.435 229.954 211.301C231.678 225.934 246.893 233.681 253.602 223.607C260.098 213.851 260.963 209.087 253.925 186.527Z" fill="white"/>
<path d="M263.436 225.684C265.552 215.624 261.31 201.305 255.512 184.613C246.866 159.721 233.948 143.839 221.066 138.685C206.547 132.876 194.058 136.08 193.032 148.945C192.619 154.137 195.741 161.853 204.743 160.568C213.744 159.284 219.17 158.944 225.815 169.303C231.347 177.927 232.383 192.467 233.071 206.566" stroke="black" stroke-width="1.5" stroke-linecap="round"/>
<path d="M105.104 155.44C113.586 137.092 132.223 119.017 143.063 115.477C153.903 111.937 173.662 111.87 171.362 128.115C167.96 152.151 148.702 123.495 136.207 144.028C131.295 152.099 130.058 165.686 125.644 183.126C122.028 197.409 105.933 203.108 100.594 192.246C95.424 181.727 95.1874 176.891 105.104 155.44Z" fill="white"/>
<path d="M105.104 155.44C113.586 137.092 132.223 119.017 143.063 115.477C153.903 111.937 173.662 111.87 171.362 128.115C167.96 152.151 148.702 123.495 136.207 144.028C131.295 152.099 130.058 165.686 125.644 183.126C122.028 197.409 105.933 203.108 100.594 192.246C95.424 181.727 95.1874 176.891 105.104 155.44Z" fill="white"/>
<path d="M157.249 136.108C148.491 133.662 143.156 132.618 135.218 142.023C128.609 149.853 125.688 164.135 123.169 178.024C116.109 206.824 96.9671 200.649 94.7443 188.737C92.7451 178.023 95.8566 169.129 103.78 153.334C115.595 129.781 130.471 115.717 143.916 112.285C159.068 108.418 171.033 113.221 170.373 126.11C170.107 131.312 166.006 138.555 157.249 136.108Z" stroke="black" stroke-width="1.5" stroke-linecap="round"/>
<path fill-rule="evenodd" clip-rule="evenodd" d="M286.673 44.8028C286.672 44.8053 286.672 44.8079 286.671 44.8104C286.23 44.2817 285.519 43.5369 284.656 42.6336C279.705 37.4501 269.772 27.0498 277.395 22.3499C282.373 19.2805 285.309 21.8735 286.702 26.6932C288.187 22.0173 291.148 19.3886 295.951 22.3495C303.574 27.0494 293.641 37.4497 288.69 42.6333C287.827 43.5365 287.116 44.2814 286.675 44.81C286.674 44.8076 286.673 44.8052 286.673 44.8028Z" fill="#FF3F54"/>
<path d="M286.671 44.8104L286.095 45.2907C286.279 45.5111 286.572 45.6073 286.851 45.5385C287.129 45.4698 287.344 45.2481 287.404 44.9676L286.671 44.8104ZM286.673 44.8028L287.397 44.6079C287.307 44.2734 287 44.0441 286.653 44.0531C286.307 44.0621 286.012 44.307 285.939 44.6457L286.673 44.8028ZM284.656 42.6336L285.199 42.1156L284.656 42.6336ZM277.395 22.3499L277.789 22.9883H277.789L277.395 22.3499ZM286.702 26.6932L285.982 26.9015C286.073 27.2188 286.362 27.4388 286.692 27.4431C287.023 27.4474 287.317 27.235 287.417 26.9201L286.702 26.6932ZM295.951 22.3495L296.344 21.7111L295.951 22.3495ZM288.69 42.6333L288.147 42.1153L288.69 42.6333ZM286.675 44.81L285.951 45.0054C286.023 45.2756 286.241 45.4827 286.514 45.5427C286.787 45.6026 287.071 45.5053 287.251 45.2904L286.675 44.81ZM287.404 44.9676C287.405 44.965 287.406 44.9624 287.406 44.9599L285.939 44.6457C285.939 44.6482 285.938 44.6507 285.938 44.6532L287.404 44.9676ZM284.114 43.1516C284.985 44.0639 285.675 44.7864 286.095 45.2907L287.247 44.33C286.786 43.777 286.053 43.0098 285.199 42.1156L284.114 43.1516ZM277.001 21.7115C274.897 23.0091 273.941 24.762 273.868 26.7454C273.797 28.6651 274.555 30.7126 275.656 32.677C277.86 36.6108 281.654 40.5761 284.114 43.1516L285.199 42.1156C282.708 39.5076 279.059 35.681 276.965 31.9437C275.916 30.0726 275.311 28.3148 275.367 26.8007C275.42 25.3502 276.082 24.0406 277.789 22.9883L277.001 21.7115ZM287.423 26.4849C286.708 24.0122 285.551 21.9236 283.763 20.9106C281.907 19.8589 279.623 20.0954 277.001 21.7115L277.789 22.9883C280.146 21.5349 281.819 21.5332 283.023 22.2157C284.296 22.9367 285.303 24.5545 285.982 26.9015L287.423 26.4849ZM287.417 26.9201C288.139 24.6463 289.173 23.0406 290.454 22.3088C291.665 21.6174 293.303 21.598 295.557 22.988L296.344 21.7111C293.796 20.1401 291.552 19.9546 289.71 21.0062C287.939 22.0175 286.75 24.0641 285.987 26.4662L287.417 26.9201ZM295.557 22.988C297.264 24.0402 297.925 25.3498 297.979 26.8004C298.035 28.3145 297.43 30.0723 296.381 31.9434C294.287 35.6806 290.638 39.5072 288.147 42.1153L289.232 43.1513C291.692 40.5758 295.485 36.6105 297.69 32.6767C298.791 30.7123 299.549 28.6648 299.478 26.745C299.405 24.7617 298.449 23.0088 296.344 21.7111L295.557 22.988ZM288.147 42.1153C287.293 43.0095 286.56 43.7767 286.099 44.3297L287.251 45.2904C287.671 44.786 288.361 44.0636 289.232 43.1513L288.147 42.1153ZM287.399 44.6147C287.398 44.6125 287.398 44.6106 287.397 44.6079L285.949 44.9978C285.949 44.9998 285.95 45.0027 285.951 45.0054L287.399 44.6147Z" fill="black"/>
<path fill-rule="evenodd" clip-rule="evenodd" d="M213.521 24.7794C213.521 24.7819 213.52 24.7844 213.52 24.7869C213.079 24.2582 212.368 23.5134 211.505 22.6102C206.554 17.4266 196.621 7.02633 204.244 2.32643C209.222 -0.74298 212.157 1.85007 213.551 6.66973C215.035 1.99383 217.997 -0.634816 222.799 2.3261C230.423 7.02599 220.489 17.4263 215.538 22.6099C214.676 23.5131 213.964 24.2579 213.523 24.7866C213.523 24.7842 213.522 24.7818 213.521 24.7794Z" fill="#FF3F54"/>
<path d="M213.52 24.7869L212.944 25.2673C213.128 25.4876 213.421 25.5838 213.7 25.5151C213.978 25.4463 214.193 25.2246 214.253 24.944L213.52 24.7869ZM213.521 24.7794L214.246 24.5844C214.156 24.2499 213.848 24.0206 213.502 24.0296C213.156 24.0386 212.861 24.2836 212.788 24.6223L213.521 24.7794ZM211.505 22.6102L212.047 22.0922V22.0922L211.505 22.6102ZM204.244 2.32643L204.637 2.96485H204.637L204.244 2.32643ZM213.551 6.66973L212.83 6.87802C212.922 7.19541 213.211 7.41537 213.541 7.41966C213.871 7.42396 214.166 7.21156 214.266 6.89666L213.551 6.66973ZM222.799 2.3261L222.406 2.96451L222.799 2.3261ZM215.538 22.6099L216.081 23.1279L215.538 22.6099ZM213.523 24.7866L212.799 24.982C212.872 25.2522 213.089 25.4593 213.363 25.5192C213.636 25.5791 213.92 25.4819 214.099 25.2669L213.523 24.7866ZM214.253 24.944C214.253 24.9428 214.254 24.9416 214.254 24.9403C214.254 24.9391 214.254 24.9378 214.255 24.9365L212.788 24.6223C212.788 24.6235 212.788 24.6247 212.787 24.626C212.787 24.6272 212.787 24.6285 212.786 24.6298L214.253 24.944ZM210.962 23.1282C211.834 24.0405 212.523 24.7629 212.944 25.2673L214.096 24.3066C213.635 23.7536 212.901 22.9864 212.047 22.0922L210.962 23.1282ZM203.85 1.68802C201.745 2.98567 200.79 4.73858 200.716 6.72193C200.646 8.64168 201.404 10.6892 202.505 12.6536C204.709 16.5873 208.503 20.5527 210.962 23.1282L212.047 22.0922C209.556 19.4841 205.908 15.6575 203.813 11.9203C202.765 10.0492 202.16 8.2914 202.215 6.77726C202.269 5.32673 202.93 4.01714 204.637 2.96485L203.85 1.68802ZM214.271 6.46143C213.556 3.98876 212.399 1.90015 210.611 0.88714C208.755 -0.164496 206.471 0.0719482 203.85 1.68802L204.637 2.96485C206.995 1.5115 208.667 1.50977 209.872 2.19222C211.145 2.9133 212.152 4.53104 212.83 6.87802L214.271 6.46143ZM214.266 6.89666C214.987 4.62286 216.021 3.01719 217.303 2.28541C218.514 1.59396 220.151 1.57457 222.406 2.96451L223.193 1.68768C220.645 0.116709 218.401 -0.0688114 216.559 0.982806C214.788 1.99409 213.598 4.0407 212.836 6.44279L214.266 6.89666ZM222.406 2.96451C224.113 4.01681 224.774 5.3264 224.828 6.77693C224.884 8.29107 224.278 10.0488 223.23 11.92C221.136 15.6572 217.487 19.4838 214.996 22.0918L216.081 23.1279C218.541 20.5524 222.334 16.587 224.538 12.6532C225.639 10.6889 226.397 8.64134 226.327 6.7216C226.253 4.73824 225.298 2.98533 223.193 1.68768L222.406 2.96451ZM214.996 22.0918C214.142 22.986 213.409 23.7532 212.947 24.3063L214.099 25.2669C214.52 24.7626 215.209 24.0401 216.081 23.1279L214.996 22.0918ZM214.247 24.5912C214.247 24.5891 214.246 24.587 214.246 24.5844L212.797 24.9743C212.798 24.9766 212.799 24.9793 212.799 24.982L214.247 24.5912Z" fill="black"/>
<path fill-rule="evenodd" clip-rule="evenodd" d="M121.521 77.7794C121.521 77.7819 121.52 77.7844 121.52 77.7869C121.079 77.2582 120.368 76.5134 119.505 75.6102C114.554 70.4266 104.621 60.0263 112.244 55.3264C117.222 52.257 120.157 54.8501 121.551 59.6697C123.035 54.9938 125.997 52.3652 130.799 55.3261C138.423 60.026 128.489 70.4263 123.538 75.6099C122.676 76.5131 121.964 77.2579 121.523 77.7866C121.523 77.7842 121.522 77.7818 121.521 77.7794Z" fill="#FF3F54"/>
<path d="M121.52 77.7869L120.944 78.2673C121.128 78.4876 121.421 78.5838 121.7 78.5151C121.978 78.4463 122.193 78.2246 122.253 77.944L121.52 77.7869ZM121.521 77.7794L122.246 77.5844C122.156 77.2499 121.848 77.0206 121.502 77.0296C121.156 77.0386 120.861 77.2836 120.788 77.6223L121.521 77.7794ZM119.505 75.6102L120.047 75.0922V75.0922L119.505 75.6102ZM112.244 55.3264L112.637 55.9648H112.637L112.244 55.3264ZM121.551 59.6697L120.83 59.878C120.922 60.1954 121.211 60.4154 121.541 60.4197C121.871 60.424 122.166 60.2116 122.266 59.8967L121.551 59.6697ZM130.799 55.3261L130.406 55.9645L130.799 55.3261ZM123.538 75.6099L122.996 75.0918V75.0918L123.538 75.6099ZM121.523 77.7866L120.799 77.982C120.872 78.2522 121.089 78.4593 121.363 78.5192C121.636 78.5791 121.92 78.4819 122.099 78.2669L121.523 77.7866ZM122.253 77.944C122.253 77.9428 122.254 77.9416 122.254 77.9403C122.254 77.9391 122.254 77.9378 122.255 77.9365L120.788 77.6223C120.788 77.6235 120.788 77.6247 120.787 77.626C120.787 77.6272 120.787 77.6285 120.786 77.6298L122.253 77.944ZM118.962 76.1282C119.834 77.0405 120.523 77.7629 120.944 78.2673L122.096 77.3066C121.635 76.7536 120.901 75.9864 120.047 75.0922L118.962 76.1282ZM111.85 54.688C109.745 55.9857 108.79 57.7386 108.716 59.7219C108.646 61.6417 109.404 63.6892 110.505 65.6536C112.709 69.5873 116.503 73.5527 118.962 76.1282L120.047 75.0922C117.556 72.4841 113.908 68.6575 111.813 64.9203C110.765 63.0492 110.16 61.2914 110.215 59.7773C110.269 58.3267 110.93 57.0171 112.637 55.9648L111.85 54.688ZM122.271 59.4614C121.556 56.9888 120.399 54.9001 118.611 53.8871C116.755 52.8355 114.471 53.0719 111.85 54.688L112.637 55.9648C114.995 54.5115 116.667 54.5098 117.872 55.1922C119.145 55.9133 120.152 57.531 120.83 59.878L122.271 59.4614ZM122.266 59.8967C122.987 57.6229 124.021 56.0172 125.303 55.2854C126.514 54.594 128.151 54.5746 130.406 55.9645L131.193 54.6877C128.645 53.1167 126.401 52.9312 124.559 53.9828C122.788 54.9941 121.598 57.0407 120.836 59.4428L122.266 59.8967ZM130.406 55.9645C132.113 57.0168 132.774 58.3264 132.828 59.7769C132.884 61.2911 132.278 63.0488 131.23 64.92C129.136 68.6572 125.487 72.4838 122.996 75.0918L124.081 76.1279C126.541 73.5524 130.334 69.587 132.538 65.6532C133.639 63.6889 134.397 61.6413 134.327 59.7216C134.253 57.7382 133.298 55.9853 131.193 54.6877L130.406 55.9645ZM122.996 75.0918C122.142 75.986 121.409 76.7532 120.947 77.3063L122.099 78.2669C122.52 77.7626 123.209 77.0401 124.081 76.1279L122.996 75.0918ZM122.247 77.5912C122.247 77.5891 122.246 77.587 122.246 77.5844L120.797 77.9743C120.798 77.9766 120.799 77.9793 120.799 77.982L122.247 77.5912Z" fill="black"/>
<path fill-rule="evenodd" clip-rule="evenodd" d="M296.732 106.943C296.732 106.946 296.731 106.948 296.731 106.951C296.29 106.422 295.578 105.677 294.716 104.774C289.765 99.5907 279.831 89.1904 287.455 84.4905C292.433 81.4211 295.368 84.0141 296.762 88.8338C298.246 84.1579 301.208 81.5292 306.01 84.4902C313.633 89.1901 303.7 99.5903 298.749 104.774C297.887 105.677 297.175 106.422 296.734 106.951C296.734 106.948 296.733 106.946 296.732 106.943Z" fill="#FF3F54"/>
<path d="M296.731 106.951L296.155 107.431C296.338 107.652 296.632 107.748 296.91 107.679C297.189 107.61 297.404 107.389 297.464 107.108L296.731 106.951ZM296.732 106.943L297.457 106.748C297.367 106.414 297.059 106.185 296.713 106.194C296.367 106.203 296.072 106.448 295.999 106.786L296.732 106.943ZM294.716 104.774L295.258 104.256V104.256L294.716 104.774ZM287.455 84.4905L287.848 85.1289H287.848L287.455 84.4905ZM296.762 88.8338L296.041 89.0421C296.133 89.3595 296.422 89.5794 296.752 89.5837C297.082 89.588 297.377 89.3756 297.476 89.0607L296.762 88.8338ZM306.01 84.4902L305.617 85.1286L306.01 84.4902ZM298.749 104.774L298.207 104.256V104.256L298.749 104.774ZM296.734 106.951L296.01 107.146C296.083 107.416 296.3 107.623 296.574 107.683C296.847 107.743 297.131 107.646 297.31 107.431L296.734 106.951ZM297.464 107.108C297.464 107.108 297.464 107.108 297.464 107.108C297.464 107.108 297.464 107.108 297.464 107.108C297.464 107.108 297.464 107.108 297.464 107.108C297.464 107.108 297.464 107.108 297.464 107.108C297.464 107.108 297.464 107.108 297.464 107.108C297.464 107.108 297.464 107.108 297.464 107.108C297.464 107.108 297.464 107.108 297.464 107.108C297.464 107.108 297.464 107.108 297.464 107.108C297.464 107.108 297.464 107.108 297.464 107.108C297.464 107.108 297.464 107.108 297.464 107.108C297.464 107.108 297.464 107.108 297.464 107.108C297.464 107.108 297.464 107.108 297.464 107.108C297.464 107.108 297.464 107.108 297.464 107.108C297.464 107.108 297.464 107.108 297.464 107.108C297.464 107.108 297.464 107.108 297.464 107.108C297.464 107.108 297.464 107.108 297.464 107.108C297.464 107.108 297.464 107.108 297.464 107.108C297.464 107.108 297.464 107.108 297.464 107.108C297.464 107.108 297.464 107.108 297.464 107.108C297.464 107.108 297.464 107.108 297.464 107.108C297.464 107.108 297.464 107.108 297.464 107.108C297.464 107.108 297.464 107.108 297.464 107.108C297.464 107.108 297.464 107.108 297.464 107.108C297.464 107.108 297.464 107.108 297.464 107.108C297.464 107.108 297.464 107.108 297.464 107.108C297.464 107.108 297.464 107.108 297.464 107.108C297.464 107.108 297.464 107.108 297.464 107.108C297.464 107.108 297.464 107.108 297.464 107.108C297.464 107.108 297.464 107.108 297.464 107.108C297.464 107.108 297.464 107.108 297.464 107.108C297.464 107.108 297.464 107.108 297.464 107.108C297.464 107.108 297.464 107.108 297.464 107.108C297.464 107.108 297.464 107.108 297.464 107.108C297.464 107.108 297.464 107.108 297.464 107.108C297.464 107.108 297.464 107.108 297.464 107.108C297.464 107.108 297.464 107.108 297.464 107.108C297.464 107.108 297.464 107.108 297.464 107.108C297.464 107.108 297.464 107.108 297.464 107.108C297.464 107.108 297.464 107.108 297.464 107.108C297.464 107.108 297.464 107.108 297.464 107.108C297.464 107.108 297.464 107.108 297.464 107.108C297.464 107.107 297.464 107.107 297.464 107.107C297.464 107.107 297.464 107.107 297.464 107.107C297.464 107.107 297.464 107.107 297.464 107.107C297.464 107.107 297.464 107.107 297.464 107.107C297.464 107.107 297.464 107.107 297.464 107.107C297.464 107.107 297.464 107.107 297.464 107.107C297.464 107.107 297.464 107.107 297.464 107.107C297.464 107.107 297.464 107.107 297.464 107.107C297.464 107.107 297.464 107.107 297.464 107.107C297.464 107.107 297.464 107.107 297.464 107.107C297.464 107.107 297.464 107.107 297.464 107.107C297.464 107.107 297.464 107.107 297.464 107.107C297.464 107.107 297.464 107.107 297.464 107.107C297.464 107.107 297.464 107.107 297.464 107.107C297.464 107.107 297.464 107.107 297.464 107.107C297.464 107.107 297.464 107.107 297.464 107.107C297.464 107.107 297.464 107.107 297.464 107.107C297.464 107.107 297.464 107.107 297.464 107.107C297.464 107.107 297.464 107.107 297.464 107.107C297.464 107.107 297.464 107.107 297.464 107.107C297.464 107.107 297.464 107.107 297.464 107.107C297.464 107.107 297.464 107.107 297.464 107.107C297.464 107.107 297.464 107.107 297.464 107.107C297.464 107.107 297.464 107.107 297.464 107.107C297.464 107.107 297.464 107.107 297.464 107.107C297.464 107.107 297.464 107.107 297.464 107.107C297.464 107.107 297.464 107.107 297.464 107.107C297.464 107.107 297.464 107.107 297.464 107.107C297.464 107.107 297.464 107.107 297.464 107.107C297.464 107.107 297.464 107.107 297.464 107.107C297.464 107.107 297.464 107.107 297.464 107.107C297.464 107.107 297.464 107.107 297.464 107.107C297.464 107.107 297.464 107.107 297.464 107.107C297.464 107.107 297.464 107.107 297.464 107.107C297.464 107.107 297.464 107.107 297.464 107.107C297.464 107.107 297.464 107.107 297.464 107.107C297.464 107.107 297.464 107.107 297.464 107.107C297.464 107.107 297.464 107.107 297.464 107.107C297.464 107.107 297.464 107.107 297.464 107.107C297.464 107.107 297.464 107.107 297.464 107.107C297.464 107.107 297.464 107.107 297.464 107.107C297.464 107.107 297.464 107.107 297.464 107.107C297.464 107.107 297.464 107.107 297.464 107.107C297.464 107.107 297.464 107.107 297.464 107.107C297.464 107.107 297.464 107.107 297.464 107.107C297.464 107.107 297.464 107.107 297.464 107.107C297.464 107.107 297.464 107.107 297.464 107.107C297.464 107.107 297.464 107.107 297.464 107.107C297.464 107.107 297.464 107.107 297.464 107.107C297.464 107.107 297.464 107.107 297.464 107.107C297.464 107.107 297.464 107.107 297.464 107.107C297.464 107.107 297.464 107.107 297.464 107.107C297.464 107.107 297.464 107.107 297.464 107.107C297.464 107.107 297.464 107.107 297.464 107.107C297.464 107.107 297.464 107.107 297.464 107.107C297.464 107.107 297.464 107.107 297.464 107.107C297.464 107.107 297.464 107.107 297.464 107.107C297.464 107.107 297.464 107.107 297.464 107.107C297.464 107.107 297.464 107.107 297.464 107.107C297.464 107.107 297.464 107.107 297.464 107.107C297.464 107.107 297.464 107.107 297.464 107.107C297.464 107.107 297.464 107.107 297.464 107.107C297.464 107.107 297.464 107.107 297.464 107.107C297.464 107.107 297.464 107.107 297.464 107.107C297.464 107.107 297.464 107.107 297.464 107.107C297.464 107.107 297.464 107.107 297.464 107.107C297.464 107.107 297.464 107.107 297.464 107.107C297.464 107.107 297.464 107.107 297.464 107.106C297.464 107.106 297.464 107.106 297.464 107.106C297.464 107.106 297.464 107.106 297.464 107.106C297.464 107.106 297.464 107.106 297.464 107.106C297.464 107.106 297.464 107.106 297.464 107.106C297.464 107.106 297.464 107.106 297.464 107.106C297.464 107.106 297.464 107.106 297.464 107.106C297.464 107.106 297.464 107.106 297.464 107.106C297.464 107.106 297.464 107.106 297.464 107.106C297.464 107.106 297.464 107.106 297.464 107.106C297.464 107.106 297.464 107.106 297.464 107.106C297.464 107.106 297.464 107.106 297.464 107.106C297.464 107.106 297.464 107.106 297.464 107.106C297.464 107.106 297.464 107.106 297.464 107.106C297.464 107.106 297.464 107.106 297.464 107.106C297.464 107.106 297.464 107.106 297.464 107.106C297.464 107.106 297.464 107.106 297.464 107.106C297.464 107.106 297.464 107.106 297.464 107.106C297.464 107.106 297.464 107.106 297.464 107.106C297.464 107.106 297.464 107.106 297.464 107.106C297.464 107.106 297.464 107.106 297.464 107.106C297.464 107.106 297.464 107.106 297.464 107.106C297.464 107.106 297.464 107.106 297.464 107.106C297.464 107.106 297.464 107.106 297.464 107.106C297.464 107.106 297.464 107.106 297.464 107.106C297.464 107.106 297.464 107.106 297.464 107.106C297.464 107.106 297.464 107.106 297.464 107.106C297.464 107.106 297.464 107.106 297.464 107.106C297.464 107.106 297.464 107.106 297.465 107.106C297.465 107.106 297.465 107.106 297.465 107.106C297.465 107.106 297.465 107.106 297.465 107.106C297.465 107.106 297.465 107.106 297.465 107.106C297.465 107.106 297.465 107.106 297.465 107.106C297.465 107.106 297.465 107.106 297.465 107.106C297.465 107.106 297.465 107.106 297.465 107.106C297.465 107.106 297.465 107.106 297.465 107.106C297.465 107.106 297.465 107.106 297.465 107.106C297.465 107.106 297.465 107.106 297.465 107.106C297.465 107.106 297.465 107.106 297.465 107.106C297.465 107.106 297.465 107.106 297.465 107.106C297.465 107.106 297.465 107.106 297.465 107.106C297.465 107.106 297.465 107.106 297.465 107.106C297.465 107.106 297.465 107.106 297.465 107.106C297.465 107.106 297.465 107.106 297.465 107.106C297.465 107.106 297.465 107.106 297.465 107.106C297.465 107.106 297.465 107.106 297.465 107.106C297.465 107.106 297.465 107.106 297.465 107.106C297.465 107.106 297.465 107.106 297.465 107.106C297.465 107.106 297.465 107.106 297.465 107.106C297.465 107.106 297.465 107.106 297.465 107.106C297.465 107.106 297.465 107.106 297.465 107.106C297.465 107.106 297.465 107.106 297.465 107.106C297.465 107.106 297.465 107.106 297.465 107.106C297.465 107.106 297.465 107.106 297.465 107.106C297.465 107.106 297.465 107.106 297.465 107.106C297.465 107.106 297.465 107.106 297.465 107.106C297.465 107.106 297.465 107.106 297.465 107.106C297.465 107.106 297.465 107.106 297.465 107.106C297.465 107.106 297.465 107.106 297.465 107.106C297.465 107.106 297.465 107.106 297.465 107.106C297.465 107.106 297.465 107.106 297.465 107.106C297.465 107.106 297.465 107.106 297.465 107.106C297.465 107.106 297.465 107.106 297.465 107.106C297.465 107.106 297.465 107.106 297.465 107.106C297.465 107.106 297.465 107.106 297.465 107.106C297.465 107.106 297.465 107.106 297.465 107.106C297.465 107.106 297.465 107.106 297.465 107.106C297.465 107.106 297.465 107.106 297.465 107.106C297.465 107.106 297.465 107.105 297.465 107.105C297.465 107.105 297.465 107.105 297.465 107.105C297.465 107.105 297.465 107.105 297.465 107.105C297.465 107.105 297.465 107.105 297.465 107.105C297.465 107.105 297.465 107.105 297.465 107.105C297.465 107.105 297.465 107.105 297.465 107.105C297.465 107.105 297.465 107.105 297.465 107.105C297.465 107.105 297.465 107.105 297.465 107.105C297.465 107.105 297.465 107.105 297.465 107.105C297.465 107.105 297.465 107.105 297.465 107.105C297.465 107.105 297.465 107.105 297.465 107.105C297.465 107.105 297.465 107.105 297.465 107.105C297.465 107.105 297.465 107.105 297.465 107.105C297.465 107.105 297.465 107.105 297.465 107.105C297.465 107.105 297.465 107.105 297.465 107.105C297.465 107.105 297.465 107.105 297.465 107.105C297.465 107.105 297.465 107.105 297.465 107.105C297.465 107.105 297.465 107.105 297.465 107.105C297.465 107.105 297.465 107.105 297.465 107.105C297.465 107.105 297.465 107.105 297.465 107.105C297.465 107.105 297.465 107.105 297.465 107.105C297.465 107.105 297.465 107.105 297.465 107.105C297.465 107.105 297.465 107.105 297.465 107.105C297.465 107.105 297.465 107.105 297.465 107.105C297.465 107.105 297.465 107.105 297.465 107.105C297.465 107.105 297.465 107.105 297.465 107.105C297.465 107.105 297.465 107.105 297.465 107.105C297.465 107.105 297.465 107.105 297.465 107.105C297.465 107.105 297.465 107.105 297.465 107.105C297.465 107.105 297.465 107.105 297.465 107.105C297.465 107.105 297.465 107.105 297.465 107.105C297.465 107.105 297.465 107.105 297.465 107.105C297.465 107.105 297.465 107.105 297.465 107.105C297.465 107.105 297.465 107.105 297.465 107.105C297.465 107.105 297.465 107.105 297.465 107.105C297.465 107.105 297.465 107.105 297.465 107.105C297.465 107.105 297.465 107.105 297.465 107.105C297.465 107.105 297.465 107.105 297.465 107.105C297.465 107.105 297.465 107.105 297.465 107.105C297.465 107.105 297.465 107.105 297.465 107.105C297.465 107.105 297.465 107.105 297.465 107.105C297.465 107.105 297.465 107.105 297.465 107.105C297.465 107.105 297.465 107.105 297.465 107.105C297.465 107.105 297.465 107.105 297.465 107.105C297.465 107.105 297.465 107.105 297.465 107.105C297.465 107.105 297.465 107.105 297.465 107.105C297.465 107.105 297.465 107.105 297.465 107.105C297.465 107.105 297.465 107.105 297.465 107.105C297.465 107.105 297.465 107.105 297.465 107.105C297.465 107.105 297.465 107.105 297.465 107.105C297.465 107.105 297.465 107.105 297.465 107.105C297.465 107.105 297.465 107.105 297.465 107.105C297.465 107.105 297.465 107.105 297.465 107.105C297.465 107.105 297.465 107.105 297.465 107.105C297.465 107.105 297.465 107.105 297.465 107.105C297.465 107.105 297.465 107.105 297.465 107.105C297.465 107.105 297.465 107.105 297.465 107.105C297.465 107.105 297.465 107.105 297.465 107.105C297.465 107.105 297.465 107.105 297.465 107.105C297.465 107.105 297.465 107.105 297.465 107.105C297.465 107.105 297.465 107.105 297.465 107.105C297.465 107.105 297.465 107.105 297.465 107.105C297.465 107.105 297.465 107.105 297.465 107.105C297.465 107.105 297.465 107.105 297.465 107.105C297.465 107.105 297.465 107.105 297.465 107.105C297.465 107.105 297.465 107.105 297.465 107.105C297.465 107.105 297.465 107.105 297.465 107.105C297.465 107.105 297.465 107.105 297.465 107.105C297.465 107.104 297.465 107.104 297.465 107.104C297.465 107.104 297.465 107.104 297.465 107.104C297.465 107.104 297.465 107.104 297.465 107.104C297.465 107.104 297.465 107.104 297.465 107.104C297.465 107.104 297.465 107.104 297.465 107.104C297.465 107.104 297.465 107.104 297.465 107.104C297.465 107.104 297.465 107.104 297.465 107.104C297.465 107.104 297.465 107.104 297.465 107.104C297.465 107.104 297.465 107.104 297.465 107.104C297.465 107.104 297.465 107.104 297.465 107.104C297.465 107.104 297.465 107.104 297.465 107.104C297.465 107.104 297.465 107.104 297.465 107.104C297.465 107.104 297.465 107.104 297.465 107.104C297.465 107.104 297.465 107.104 297.465 107.104C297.465 107.104 297.465 107.104 297.465 107.104C297.465 107.104 297.465 107.104 297.465 107.104C297.465 107.104 297.465 107.104 297.465 107.104C297.465 107.104 297.465 107.104 297.465 107.104C297.465 107.104 297.465 107.104 297.465 107.104C297.465 107.104 297.465 107.104 297.465 107.104C297.465 107.104 297.465 107.104 297.465 107.104C297.465 107.104 297.465 107.104 297.465 107.104C297.465 107.104 297.465 107.104 297.465 107.104C297.465 107.104 297.465 107.104 297.465 107.104C297.465 107.104 297.465 107.104 297.465 107.104C297.465 107.104 297.465 107.104 297.465 107.104C297.465 107.104 297.465 107.104 297.465 107.104C297.465 107.104 297.465 107.104 297.465 107.104C297.465 107.104 297.465 107.104 297.465 107.104C297.465 107.104 297.465 107.104 297.465 107.104C297.465 107.104 297.465 107.104 297.465 107.104C297.465 107.104 297.465 107.104 297.465 107.104C297.465 107.104 297.465 107.104 297.465 107.104C297.465 107.104 297.465 107.104 297.465 107.104C297.465 107.104 297.465 107.104 297.465 107.104C297.465 107.104 297.465 107.104 297.465 107.104C297.465 107.104 297.465 107.104 297.465 107.104C297.465 107.104 297.465 107.104 297.465 107.104C297.465 107.104 297.465 107.104 297.465 107.104C297.465 107.104 297.465 107.104 297.465 107.104C297.465 107.104 297.465 107.104 297.465 107.104C297.465 107.104 297.465 107.104 297.465 107.104C297.465 107.104 297.465 107.104 297.465 107.104C297.465 107.104 297.465 107.104 297.465 107.104C297.465 107.104 297.465 107.104 297.465 107.104C297.465 107.104 297.465 107.104 297.465 107.104C297.465 107.104 297.465 107.104 297.465 107.104C297.465 107.104 297.465 107.104 297.465 107.104C297.465 107.104 297.465 107.104 297.465 107.104C297.465 107.104 297.465 107.104 297.465 107.104C297.465 107.104 297.465 107.104 297.465 107.104C297.465 107.104 297.465 107.104 297.465 107.104C297.465 107.104 297.465 107.104 297.465 107.104C297.465 107.104 297.465 107.104 297.465 107.104C297.465 107.104 297.465 107.104 297.465 107.104C297.465 107.104 297.465 107.104 297.465 107.104C297.465 107.104 297.465 107.104 297.465 107.104C297.465 107.104 297.465 107.104 297.465 107.104C297.465 107.104 297.465 107.104 297.465 107.104C297.465 107.104 297.465 107.104 297.465 107.104C297.465 107.104 297.465 107.104 297.465 107.104C297.465 107.104 297.465 107.104 297.465 107.104C297.465 107.104 297.465 107.104 297.465 107.104C297.465 107.104 297.465 107.104 297.465 107.104C297.465 107.104 297.465 107.104 297.465 107.104C297.465 107.104 297.465 107.104 297.465 107.104C297.465 107.104 297.465 107.104 297.465 107.104C297.465 107.104 297.465 107.104 297.465 107.104C297.465 107.103 297.465 107.103 297.465 107.103C297.465 107.103 297.465 107.103 297.465 107.103C297.465 107.103 297.465 107.103 297.465 107.103C297.465 107.103 297.465 107.103 297.465 107.103C297.465 107.103 297.465 107.103 297.465 107.103C297.465 107.103 297.465 107.103 297.465 107.103C297.465 107.103 297.465 107.103 297.465 107.103C297.465 107.103 297.465 107.103 297.465 107.103C297.465 107.103 297.465 107.103 297.465 107.103C297.465 107.103 297.465 107.103 297.465 107.103C297.465 107.103 297.465 107.103 297.465 107.103C297.465 107.103 297.465 107.103 297.465 107.103C297.465 107.103 297.465 107.103 297.465 107.103C297.465 107.103 297.465 107.103 297.465 107.103C297.465 107.103 297.465 107.103 297.465 107.103C297.465 107.103 297.465 107.103 297.465 107.103C297.465 107.103 297.465 107.103 297.465 107.103C297.465 107.103 297.465 107.103 297.465 107.103C297.465 107.103 297.465 107.103 297.465 107.103C297.465 107.103 297.465 107.103 297.465 107.103C297.465 107.103 297.465 107.103 297.465 107.103C297.465 107.103 297.465 107.103 297.465 107.103C297.465 107.103 297.465 107.103 297.465 107.103C297.465 107.103 297.465 107.103 297.465 107.103C297.465 107.103 297.465 107.103 297.465 107.103C297.465 107.103 297.465 107.103 297.465 107.103C297.465 107.103 297.465 107.103 297.465 107.103C297.465 107.103 297.465 107.103 297.465 107.103C297.465 107.103 297.465 107.103 297.465 107.103C297.465 107.103 297.465 107.103 297.465 107.103C297.465 107.103 297.465 107.103 297.465 107.103C297.465 107.103 297.465 107.103 297.465 107.103C297.465 107.103 297.465 107.103 297.465 107.103C297.465 107.103 297.465 107.103 297.465 107.103C297.465 107.103 297.465 107.103 297.465 107.103C297.465 107.103 297.465 107.103 297.465 107.103C297.465 107.103 297.465 107.103 297.465 107.103C297.465 107.103 297.465 107.103 297.465 107.103C297.465 107.103 297.465 107.103 297.465 107.103C297.465 107.103 297.465 107.103 297.465 107.103C297.465 107.103 297.465 107.103 297.465 107.103C297.465 107.103 297.465 107.103 297.465 107.103C297.465 107.103 297.465 107.103 297.465 107.103C297.465 107.103 297.465 107.103 297.465 107.103C297.465 107.103 297.465 107.103 297.465 107.103C297.465 107.103 297.465 107.103 297.465 107.103C297.465 107.103 297.465 107.103 297.465 107.103C297.465 107.103 297.465 107.103 297.465 107.103C297.465 107.103 297.465 107.103 297.465 107.103C297.465 107.103 297.465 107.103 297.465 107.103C297.465 107.103 297.465 107.103 297.465 107.103C297.465 107.103 297.465 107.103 297.465 107.103C297.465 107.103 297.465 107.103 297.465 107.103C297.465 107.103 297.465 107.103 297.465 107.103C297.465 107.103 297.465 107.103 297.465 107.103C297.465 107.103 297.465 107.103 297.465 107.103C297.465 107.103 297.465 107.103 297.465 107.103C297.465 107.103 297.465 107.103 297.465 107.103C297.465 107.103 297.465 107.103 297.465 107.103C297.465 107.103 297.465 107.103 297.465 107.103C297.465 107.103 297.465 107.103 297.465 107.103C297.465 107.103 297.465 107.103 297.465 107.103C297.465 107.103 297.465 107.103 297.465 107.103C297.465 107.103 297.465 107.103 297.465 107.103C297.465 107.103 297.465 107.103 297.465 107.103C297.465 107.103 297.465 107.103 297.465 107.103C297.465 107.103 297.465 107.103 297.465 107.103C297.465 107.103 297.465 107.103 297.465 107.102C297.465 107.102 297.465 107.102 297.465 107.102C297.465 107.102 297.465 107.102 297.465 107.102C297.465 107.102 297.465 107.102 297.465 107.102C297.465 107.102 297.465 107.102 297.465 107.102C297.465 107.102 297.465 107.102 297.465 107.102C297.465 107.102 297.465 107.102 297.465 107.102C297.465 107.102 297.465 107.102 297.465 107.102C297.465 107.102 297.465 107.102 297.465 107.102C297.465 107.102 297.465 107.102 297.465 107.102C297.465 107.102 297.465 107.102 297.465 107.102C297.465 107.102 297.465 107.102 297.465 107.102C297.465 107.102 297.465 107.102 297.465 107.102C297.465 107.102 297.465 107.102 297.465 107.102C297.465 107.102 297.465 107.102 297.465 107.102C297.465 107.102 297.465 107.102 297.465 107.102C297.465 107.102 297.465 107.102 297.465 107.102C297.465 107.102 297.465 107.102 297.465 107.102C297.465 107.102 297.465 107.102 297.465 107.102C297.465 107.102 297.465 107.102 297.465 107.102C297.465 107.102 297.465 107.102 297.465 107.102C297.465 107.102 297.465 107.102 297.465 107.102C297.465 107.102 297.465 107.102 297.465 107.102C297.465 107.102 297.465 107.102 297.465 107.102C297.465 107.102 297.465 107.102 297.465 107.102C297.465 107.102 297.465 107.102 297.465 107.102C297.465 107.102 297.465 107.102 297.465 107.102C297.465 107.102 297.465 107.102 297.465 107.102C297.465 107.102 297.465 107.102 297.465 107.102C297.465 107.102 297.465 107.102 297.465 107.102C297.465 107.102 297.465 107.102 297.465 107.102C297.465 107.102 297.465 107.102 297.465 107.102C297.465 107.102 297.465 107.102 297.465 107.102C297.465 107.102 297.465 107.102 297.465 107.102C297.465 107.102 297.465 107.102 297.465 107.102C297.465 107.102 297.465 107.102 297.465 107.102C297.465 107.102 297.465 107.102 297.465 107.102C297.465 107.102 297.465 107.102 297.465 107.102C297.465 107.102 297.465 107.102 297.465 107.102C297.465 107.102 297.465 107.102 297.465 107.102C297.465 107.102 297.465 107.102 297.465 107.102C297.465 107.102 297.465 107.102 297.465 107.102C297.465 107.102 297.465 107.102 297.465 107.102C297.465 107.102 297.465 107.102 297.465 107.102C297.465 107.102 297.465 107.102 297.465 107.102C297.465 107.102 297.465 107.102 297.465 107.102C297.465 107.102 297.465 107.102 297.465 107.102C297.465 107.102 297.465 107.102 297.465 107.102C297.465 107.102 297.465 107.102 297.465 107.102C297.465 107.102 297.465 107.102 297.465 107.102C297.465 107.102 297.465 107.102 297.465 107.102C297.465 107.102 297.465 107.102 297.465 107.102C297.465 107.102 297.465 107.102 297.465 107.102C297.465 107.102 297.465 107.102 297.465 107.102C297.465 107.102 297.465 107.102 297.465 107.102C297.465 107.102 297.465 107.102 297.465 107.102C297.465 107.102 297.465 107.102 297.465 107.102C297.465 107.102 297.465 107.102 297.465 107.102C297.465 107.102 297.465 107.102 297.465 107.102C297.465 107.102 297.465 107.102 297.465 107.102C297.465 107.102 297.465 107.102 297.465 107.102C297.465 107.102 297.465 107.102 297.465 107.102C297.465 107.102 297.465 107.102 297.465 107.102C297.465 107.102 297.465 107.102 297.465 107.102C297.465 107.102 297.465 107.102 297.465 107.102C297.465 107.102 297.465 107.102 297.465 107.102C297.465 107.102 297.465 107.102 297.465 107.102C297.465 107.102 297.465 107.102 297.465 107.102C297.465 107.102 297.465 107.101 297.465 107.101C297.465 107.101 297.465 107.101 297.465 107.101C297.465 107.101 297.465 107.101 297.465 107.101C297.465 107.101 297.465 107.101 297.465 107.101C297.465 107.101 297.465 107.101 297.465 107.101C297.465 107.101 297.465 107.101 297.465 107.101C297.466 107.101 297.466 107.101 297.466 107.101C297.466 107.101 297.466 107.101 297.466 107.101C297.466 107.101 297.466 107.101 297.466 107.101C297.466 107.101 297.466 107.101 297.466 107.101C297.466 107.101 297.466 107.101 297.466 107.101C297.466 107.101 297.466 107.101 297.466 107.101C297.466 107.101 297.466 107.101 297.466 107.101C297.466 107.101 297.466 107.101 297.466 107.101C297.466 107.101 297.466 107.101 297.466 107.101C297.466 107.101 297.466 107.101 297.466 107.101C297.466 107.101 297.466 107.101 297.466 107.101C297.466 107.101 297.466 107.101 297.466 107.101C297.466 107.101 297.466 107.101 297.466 107.101C297.466 107.101 297.466 107.101 297.466 107.101C297.466 107.101 297.466 107.101 297.466 107.101C297.466 107.101 297.466 107.101 297.466 107.101C297.466 107.101 297.466 107.101 297.466 107.101C297.466 107.101 297.466 107.101 297.466 107.101C297.466 107.101 297.466 107.101 297.466 107.101C297.466 107.101 297.466 107.101 297.466 107.101C297.466 107.101 297.466 107.101 297.466 107.101C297.466 107.101 297.466 107.101 297.466 107.101C297.466 107.101 297.466 107.101 297.466 107.101C297.466 107.101 297.466 107.101 297.466 107.101C297.466 107.101 297.466 107.101 297.466 107.101C297.466 107.101 297.466 107.101 297.466 107.101C297.466 107.101 297.466 107.101 297.466 107.101C297.466 107.101 297.466 107.101 297.466 107.101C297.466 107.101 297.466 107.101 297.466 107.101C297.466 107.101 297.466 107.101 297.466 107.101C297.466 107.101 297.466 107.101 297.466 107.101C297.466 107.101 297.466 107.101 297.466 107.101C297.466 107.101 297.466 107.101 297.466 107.101C297.466 107.101 297.466 107.101 297.466 107.101C297.466 107.101 297.466 107.101 297.466 107.101C297.466 107.101 297.466 107.101 297.466 107.101C297.466 107.101 297.466 107.101 297.466 107.101C297.466 107.101 297.466 107.101 297.466 107.101C297.466 107.101 297.466 107.101 297.466 107.101C297.466 107.101 297.466 107.101 297.466 107.101C297.466 107.101 297.466 107.101 297.466 107.101C297.466 107.101 297.466 107.101 297.466 107.101C297.466 107.101 297.466 107.101 297.466 107.101C297.466 107.101 297.466 107.101 297.466 107.101C297.466 107.101 297.466 107.101 297.466 107.101C297.466 107.101 297.466 107.101 297.466 107.101C297.466 107.101 297.466 107.101 297.466 107.101C297.466 107.101 297.466 107.101 297.466 107.101C297.466 107.101 297.466 107.101 297.466 107.101C297.466 107.101 297.466 107.101 297.466 107.101C297.466 107.101 297.466 107.101 297.466 107.101C297.466 107.101 297.466 107.101 297.466 107.101C297.466 107.101 297.466 107.101 297.466 107.101C297.466 107.101 297.466 107.101 297.466 107.101C297.466 107.101 297.466 107.101 297.466 107.101C297.466 107.101 297.466 107.101 297.466 107.101C297.466 107.101 297.466 107.101 297.466 107.101C297.466 107.101 297.466 107.101 297.466 107.101C297.466 107.101 297.466 107.101 297.466 107.101L295.999 106.786C295.999 106.786 295.999 106.786 295.999 106.786C295.999 106.786 295.999 106.786 295.999 106.786C295.999 106.786 295.999 106.786 295.999 106.786C295.999 106.786 295.999 106.786 295.999 106.786C295.999 106.786 295.999 106.786 295.999 106.786C295.999 106.786 295.999 106.786 295.999 106.786C295.999 106.786 295.999 106.786 295.999 106.786C295.999 106.786 295.999 106.786 295.999 106.786C295.999 106.786 295.999 106.786 295.999 106.786C295.999 106.786 295.999 106.786 295.999 106.786C295.999 106.786 295.999 106.786 295.999 106.786C295.999 106.786 295.999 106.787 295.999 106.787C295.999 106.787 295.999 106.787 295.999 106.787C295.999 106.787 295.999 106.787 295.999 106.787C295.999 106.787 295.999 106.787 295.999 106.787C295.999 106.787 295.999 106.787 295.999 106.787C295.999 106.787 295.999 106.787 295.999 106.787C295.999 106.787 295.999 106.787 295.999 106.787C295.999 106.787 295.999 106.787 295.999 106.787C295.999 106.787 295.999 106.787 295.999 106.787C295.999 106.787 295.999 106.787 295.999 106.787C295.999 106.787 295.999 106.787 295.999 106.787C295.999 106.787 295.999 106.787 295.999 106.787C295.999 106.787 295.999 106.787 295.999 106.787C295.999 106.787 295.999 106.787 295.999 106.787C295.999 106.787 295.999 106.787 295.999 106.787C295.999 106.787 295.999 106.787 295.999 106.787C295.999 106.787 295.999 106.787 295.999 106.787C295.999 106.787 295.999 106.787 295.999 106.787C295.999 106.787 295.999 106.787 295.999 106.787C295.999 106.787 295.999 106.787 295.999 106.787C295.999 106.787 295.999 106.787 295.999 106.787C295.999 106.787 295.999 106.787 295.999 106.787C295.999 106.787 295.999 106.787 295.999 106.787C295.999 106.787 295.999 106.787 295.999 106.787C295.999 106.787 295.999 106.787 295.999 106.787C295.999 106.787 295.999 106.787 295.999 106.787C295.999 106.787 295.999 106.787 295.999 106.787C295.999 106.787 295.999 106.787 295.999 106.787C295.999 106.787 295.999 106.787 295.999 106.787C295.999 106.787 295.999 106.787 295.999 106.787C295.999 106.787 295.999 106.787 295.999 106.787C295.999 106.787 295.999 106.787 295.999 106.787C295.999 106.787 295.999 106.787 295.999 106.787C295.999 106.787 295.999 106.787 295.999 106.787C295.999 106.787 295.999 106.787 295.999 106.787C295.999 106.787 295.999 106.787 295.999 106.787C295.999 106.787 295.999 106.787 295.999 106.787C295.999 106.787 295.999 106.787 295.999 106.787C295.999 106.787 295.999 106.787 295.999 106.787C295.999 106.787 295.999 106.787 295.999 106.787C295.999 106.787 295.999 106.787 295.999 106.787C295.999 106.787 295.999 106.787 295.999 106.787C295.999 106.787 295.999 106.787 295.999 106.787C295.999 106.787 295.999 106.787 295.999 106.787C295.999 106.787 295.999 106.787 295.999 106.787C295.999 106.787 295.999 106.787 295.999 106.787C295.999 106.787 295.999 106.787 295.999 106.787C295.999 106.787 295.999 106.787 295.999 106.787C295.999 106.787 295.999 106.787 295.999 106.787C295.999 106.787 295.999 106.787 295.999 106.787C295.999 106.787 295.999 106.787 295.999 106.787C295.999 106.787 295.999 106.787 295.999 106.787C295.999 106.787 295.999 106.787 295.999 106.787C295.999 106.787 295.999 106.787 295.999 106.787C295.999 106.787 295.999 106.787 295.999 106.787C295.999 106.787 295.999 106.787 295.999 106.787C295.999 106.787 295.999 106.787 295.999 106.787C295.999 106.787 295.999 106.787 295.999 106.787C295.999 106.787 295.999 106.787 295.999 106.787C295.999 106.787 295.999 106.787 295.999 106.787C295.999 106.787 295.999 106.787 295.999 106.787C295.999 106.787 295.999 106.787 295.999 106.787C295.999 106.787 295.999 106.787 295.999 106.787C295.999 106.787 295.999 106.787 295.999 106.787C295.999 106.787 295.999 106.787 295.999 106.787C295.999 106.787 295.999 106.787 295.999 106.787C295.999 106.787 295.999 106.787 295.999 106.787C295.999 106.787 295.999 106.787 295.999 106.787C295.999 106.788 295.999 106.788 295.999 106.788C295.999 106.788 295.999 106.788 295.999 106.788C295.999 106.788 295.999 106.788 295.999 106.788C295.999 106.788 295.999 106.788 295.999 106.788C295.999 106.788 295.999 106.788 295.999 106.788C295.999 106.788 295.999 106.788 295.999 106.788C295.999 106.788 295.999 106.788 295.999 106.788C295.999 106.788 295.999 106.788 295.999 106.788C295.999 106.788 295.999 106.788 295.999 106.788C295.999 106.788 295.999 106.788 295.999 106.788C295.999 106.788 295.999 106.788 295.999 106.788C295.999 106.788 295.999 106.788 295.999 106.788C295.999 106.788 295.999 106.788 295.999 106.788C295.999 106.788 295.999 106.788 295.999 106.788C295.999 106.788 295.999 106.788 295.999 106.788C295.999 106.788 295.999 106.788 295.999 106.788C295.999 106.788 295.999 106.788 295.999 106.788C295.999 106.788 295.999 106.788 295.999 106.788C295.999 106.788 295.999 106.788 295.999 106.788C295.999 106.788 295.999 106.788 295.999 106.788C295.999 106.788 295.999 106.788 295.999 106.788C295.999 106.788 295.999 106.788 295.999 106.788C295.999 106.788 295.999 106.788 295.999 106.788C295.999 106.788 295.999 106.788 295.999 106.788C295.999 106.788 295.999 106.788 295.999 106.788C295.999 106.788 295.999 106.788 295.999 106.788C295.999 106.788 295.999 106.788 295.999 106.788C295.999 106.788 295.999 106.788 295.999 106.788C295.999 106.788 295.999 106.788 295.999 106.788C295.999 106.788 295.999 106.788 295.999 106.788C295.999 106.788 295.999 106.788 295.999 106.788C295.999 106.788 295.999 106.788 295.999 106.788C295.999 106.788 295.999 106.788 295.999 106.788C295.999 106.788 295.999 106.788 295.999 106.788C295.999 106.788 295.999 106.788 295.999 106.788C295.999 106.788 295.999 106.788 295.999 106.788C295.999 106.788 295.999 106.788 295.999 106.788C295.999 106.788 295.999 106.788 295.999 106.788C295.999 106.788 295.999 106.788 295.999 106.788C295.999 106.788 295.999 106.788 295.999 106.788C295.999 106.788 295.999 106.788 295.999 106.788C295.999 106.788 295.999 106.788 295.999 106.788C295.999 106.788 295.999 106.788 295.999 106.788C295.999 106.788 295.999 106.788 295.999 106.788C295.999 106.788 295.999 106.788 295.999 106.788C295.999 106.788 295.999 106.788 295.999 106.788C295.999 106.788 295.999 106.788 295.999 106.788C295.999 106.788 295.999 106.788 295.999 106.788C295.999 106.788 295.999 106.788 295.999 106.788C295.999 106.788 295.999 106.788 295.999 106.788C295.999 106.788 295.999 106.788 295.999 106.788C295.999 106.788 295.999 106.788 295.999 106.788C295.999 106.788 295.999 106.788 295.999 106.788C295.999 106.788 295.999 106.788 295.999 106.788C295.999 106.788 295.999 106.788 295.999 106.788C295.999 106.788 295.999 106.788 295.999 106.788C295.999 106.788 295.999 106.788 295.999 106.788C295.999 106.788 295.999 106.788 295.999 106.788C295.999 106.788 295.999 106.788 295.999 106.788C295.999 106.788 295.999 106.788 295.999 106.788C295.999 106.788 295.999 106.788 295.999 106.788C295.999 106.788 295.999 106.788 295.999 106.788C295.999 106.788 295.999 106.788 295.999 106.788C295.999 106.788 295.999 106.788 295.999 106.788C295.999 106.788 295.999 106.788 295.999 106.788C295.999 106.788 295.999 106.788 295.999 106.788C295.999 106.788 295.999 106.788 295.999 106.788C295.999 106.788 295.999 106.788 295.999 106.789C295.999 106.789 295.998 106.789 295.998 106.789C295.998 106.789 295.998 106.789 295.998 106.789C295.998 106.789 295.998 106.789 295.998 106.789C295.998 106.789 295.998 106.789 295.998 106.789C295.998 106.789 295.998 106.789 295.998 106.789C295.998 106.789 295.998 106.789 295.998 106.789C295.998 106.789 295.998 106.789 295.998 106.789C295.998 106.789 295.998 106.789 295.998 106.789C295.998 106.789 295.998 106.789 295.998 106.789C295.998 106.789 295.998 106.789 295.998 106.789C295.998 106.789 295.998 106.789 295.998 106.789C295.998 106.789 295.998 106.789 295.998 106.789C295.998 106.789 295.998 106.789 295.998 106.789C295.998 106.789 295.998 106.789 295.998 106.789C295.998 106.789 295.998 106.789 295.998 106.789C295.998 106.789 295.998 106.789 295.998 106.789C295.998 106.789 295.998 106.789 295.998 106.789C295.998 106.789 295.998 106.789 295.998 106.789C295.998 106.789 295.998 106.789 295.998 106.789C295.998 106.789 295.998 106.789 295.998 106.789C295.998 106.789 295.998 106.789 295.998 106.789C295.998 106.789 295.998 106.789 295.998 106.789C295.998 106.789 295.998 106.789 295.998 106.789C295.998 106.789 295.998 106.789 295.998 106.789C295.998 106.789 295.998 106.789 295.998 106.789C295.998 106.789 295.998 106.789 295.998 106.789C295.998 106.789 295.998 106.789 295.998 106.789C295.998 106.789 295.998 106.789 295.998 106.789C295.998 106.789 295.998 106.789 295.998 106.789C295.998 106.789 295.998 106.789 295.998 106.789C295.998 106.789 295.998 106.789 295.998 106.789C295.998 106.789 295.998 106.789 295.998 106.789C295.998 106.789 295.998 106.789 295.998 106.789C295.998 106.789 295.998 106.789 295.998 106.789C295.998 106.789 295.998 106.789 295.998 106.789C295.998 106.789 295.998 106.789 295.998 106.789C295.998 106.789 295.998 106.789 295.998 106.789C295.998 106.789 295.998 106.789 295.998 106.789C295.998 106.789 295.998 106.789 295.998 106.789C295.998 106.789 295.998 106.789 295.998 106.789C295.998 106.789 295.998 106.789 295.998 106.789C295.998 106.789 295.998 106.789 295.998 106.789C295.998 106.789 295.998 106.789 295.998 106.789C295.998 106.789 295.998 106.789 295.998 106.789C295.998 106.789 295.998 106.789 295.998 106.789C295.998 106.789 295.998 106.789 295.998 106.789C295.998 106.789 295.998 106.789 295.998 106.789C295.998 106.789 295.998 106.789 295.998 106.789C295.998 106.789 295.998 106.789 295.998 106.789C295.998 106.789 295.998 106.789 295.998 106.789C295.998 106.789 295.998 106.789 295.998 106.789C295.998 106.789 295.998 106.789 295.998 106.789C295.998 106.789 295.998 106.789 295.998 106.789C295.998 106.789 295.998 106.789 295.998 106.789C295.998 106.789 295.998 106.789 295.998 106.789C295.998 106.789 295.998 106.789 295.998 106.789C295.998 106.789 295.998 106.789 295.998 106.789C295.998 106.789 295.998 106.789 295.998 106.789C295.998 106.789 295.998 106.789 295.998 106.789C295.998 106.789 295.998 106.789 295.998 106.789C295.998 106.789 295.998 106.789 295.998 106.789C295.998 106.789 295.998 106.789 295.998 106.789C295.998 106.789 295.998 106.789 295.998 106.789C295.998 106.789 295.998 106.789 295.998 106.789C295.998 106.789 295.998 106.789 295.998 106.789C295.998 106.789 295.998 106.789 295.998 106.789C295.998 106.789 295.998 106.789 295.998 106.789C295.998 106.789 295.998 106.789 295.998 106.79C295.998 106.79 295.998 106.79 295.998 106.79C295.998 106.79 295.998 106.79 295.998 106.79C295.998 106.79 295.998 106.79 295.998 106.79C295.998 106.79 295.998 106.79 295.998 106.79C295.998 106.79 295.998 106.79 295.998 106.79C295.998 106.79 295.998 106.79 295.998 106.79C295.998 106.79 295.998 106.79 295.998 106.79C295.998 106.79 295.998 106.79 295.998 106.79C295.998 106.79 295.998 106.79 295.998 106.79C295.998 106.79 295.998 106.79 295.998 106.79C295.998 106.79 295.998 106.79 295.998 106.79C295.998 106.79 295.998 106.79 295.998 106.79C295.998 106.79 295.998 106.79 295.998 106.79C295.998 106.79 295.998 106.79 295.998 106.79C295.998 106.79 295.998 106.79 295.998 106.79C295.998 106.79 295.998 106.79 295.998 106.79C295.998 106.79 295.998 106.79 295.998 106.79C295.998 106.79 295.998 106.79 295.998 106.79C295.998 106.79 295.998 106.79 295.998 106.79C295.998 106.79 295.998 106.79 295.998 106.79C295.998 106.79 295.998 106.79 295.998 106.79C295.998 106.79 295.998 106.79 295.998 106.79C295.998 106.79 295.998 106.79 295.998 106.79C295.998 106.79 295.998 106.79 295.998 106.79C295.998 106.79 295.998 106.79 295.998 106.79C295.998 106.79 295.998 106.79 295.998 106.79C295.998 106.79 295.998 106.79 295.998 106.79C295.998 106.79 295.998 106.79 295.998 106.79C295.998 106.79 295.998 106.79 295.998 106.79C295.998 106.79 295.998 106.79 295.998 106.79C295.998 106.79 295.998 106.79 295.998 106.79C295.998 106.79 295.998 106.79 295.998 106.79C295.998 106.79 295.998 106.79 295.998 106.79C295.998 106.79 295.998 106.79 295.998 106.79C295.998 106.79 295.998 106.79 295.998 106.79C295.998 106.79 295.998 106.79 295.998 106.79C295.998 106.79 295.998 106.79 295.998 106.79C295.998 106.79 295.998 106.79 295.998 106.79C295.998 106.79 295.998 106.79 295.998 106.79C295.998 106.79 295.998 106.79 295.998 106.79C295.998 106.79 295.998 106.79 295.998 106.79C295.998 106.79 295.998 106.79 295.998 106.79C295.998 106.79 295.998 106.79 295.998 106.79C295.998 106.79 295.998 106.79 295.998 106.79C295.998 106.79 295.998 106.79 295.998 106.79C295.998 106.79 295.998 106.79 295.998 106.79C295.998 106.79 295.998 106.79 295.998 106.79C295.998 106.79 295.998 106.79 295.998 106.79C295.998 106.79 295.998 106.79 295.998 106.79C295.998 106.79 295.998 106.79 295.998 106.79C295.998 106.79 295.998 106.79 295.998 106.79C295.998 106.79 295.998 106.79 295.998 106.79C295.998 106.79 295.998 106.79 295.998 106.79C295.998 106.79 295.998 106.79 295.998 106.79C295.998 106.79 295.998 106.79 295.998 106.79C295.998 106.79 295.998 106.79 295.998 106.79C295.998 106.79 295.998 106.79 295.998 106.79C295.998 106.79 295.998 106.79 295.998 106.79C295.998 106.79 295.998 106.79 295.998 106.79C295.998 106.79 295.998 106.79 295.998 106.79C295.998 106.79 295.998 106.79 295.998 106.79C295.998 106.79 295.998 106.79 295.998 106.79C295.998 106.79 295.998 106.79 295.998 106.79C295.998 106.79 295.998 106.79 295.998 106.79C295.998 106.79 295.998 106.79 295.998 106.79C295.998 106.79 295.998 106.79 295.998 106.79C295.998 106.79 295.998 106.79 295.998 106.79C295.998 106.79 295.998 106.791 295.998 106.791C295.998 106.791 295.998 106.791 295.998 106.791C295.998 106.791 295.998 106.791 295.998 106.791C295.998 106.791 295.998 106.791 295.998 106.791C295.998 106.791 295.998 106.791 295.998 106.791C295.998 106.791 295.998 106.791 295.998 106.791C295.998 106.791 295.998 106.791 295.998 106.791C295.998 106.791 295.998 106.791 295.998 106.791C295.998 106.791 295.998 106.791 295.998 106.791C295.998 106.791 295.998 106.791 295.998 106.791C295.998 106.791 295.998 106.791 295.998 106.791C295.998 106.791 295.998 106.791 295.998 106.791C295.998 106.791 295.998 106.791 295.998 106.791C295.998 106.791 295.998 106.791 295.998 106.791C295.998 106.791 295.998 106.791 295.998 106.791C295.998 106.791 295.998 106.791 295.998 106.791C295.998 106.791 295.998 106.791 295.998 106.791C295.998 106.791 295.998 106.791 295.998 106.791C295.998 106.791 295.998 106.791 295.998 106.791C295.998 106.791 295.998 106.791 295.998 106.791C295.998 106.791 295.998 106.791 295.998 106.791C295.998 106.791 295.998 106.791 295.998 106.791C295.998 106.791 295.998 106.791 295.998 106.791C295.998 106.791 295.998 106.791 295.998 106.791C295.998 106.791 295.998 106.791 295.998 106.791C295.998 106.791 295.998 106.791 295.998 106.791C295.998 106.791 295.998 106.791 295.998 106.791C295.998 106.791 295.998 106.791 295.998 106.791C295.998 106.791 295.998 106.791 295.998 106.791C295.998 106.791 295.998 106.791 295.998 106.791C295.998 106.791 295.998 106.791 295.998 106.791C295.998 106.791 295.998 106.791 295.998 106.791C295.998 106.791 295.998 106.791 295.998 106.791C295.998 106.791 295.998 106.791 295.998 106.791C295.998 106.791 295.998 106.791 295.998 106.791C295.998 106.791 295.998 106.791 295.998 106.791C295.998 106.791 295.998 106.791 295.998 106.791C295.998 106.791 295.998 106.791 295.998 106.791C295.998 106.791 295.998 106.791 295.998 106.791C295.998 106.791 295.998 106.791 295.998 106.791C295.998 106.791 295.998 106.791 295.998 106.791C295.998 106.791 295.998 106.791 295.998 106.791C295.998 106.791 295.998 106.791 295.998 106.791C295.998 106.791 295.998 106.791 295.998 106.791C295.998 106.791 295.998 106.791 295.998 106.791C295.998 106.791 295.998 106.791 295.998 106.791C295.998 106.791 295.998 106.791 295.998 106.791C295.998 106.791 295.998 106.791 295.998 106.791C295.998 106.791 295.998 106.791 295.998 106.791C295.998 106.791 295.998 106.791 295.998 106.791C295.998 106.791 295.998 106.791 295.998 106.791C295.998 106.791 295.998 106.791 295.998 106.791C295.998 106.791 295.998 106.791 295.998 106.791C295.998 106.791 295.998 106.791 295.998 106.791C295.998 106.791 295.998 106.791 295.998 106.791C295.998 106.791 295.998 106.791 295.998 106.791C295.998 106.791 295.998 106.791 295.998 106.791C295.998 106.791 295.998 106.791 295.998 106.791C295.998 106.791 295.998 106.791 295.998 106.791C295.998 106.791 295.998 106.791 295.998 106.791C295.998 106.791 295.998 106.791 295.998 106.791C295.998 106.791 295.998 106.791 295.998 106.791C295.998 106.791 295.998 106.791 295.998 106.791C295.998 106.791 295.998 106.791 295.998 106.791C295.998 106.791 295.998 106.791 295.998 106.791C295.998 106.791 295.998 106.791 295.998 106.791C295.998 106.791 295.998 106.791 295.998 106.791C295.998 106.791 295.998 106.791 295.998 106.791C295.998 106.792 295.998 106.792 295.998 106.792C295.998 106.792 295.998 106.792 295.998 106.792C295.998 106.792 295.998 106.792 295.998 106.792C295.998 106.792 295.998 106.792 295.998 106.792C295.998 106.792 295.998 106.792 295.998 106.792C295.998 106.792 295.998 106.792 295.998 106.792C295.998 106.792 295.998 106.792 295.998 106.792C295.998 106.792 295.998 106.792 295.998 106.792C295.998 106.792 295.998 106.792 295.998 106.792C295.998 106.792 295.998 106.792 295.998 106.792C295.998 106.792 295.998 106.792 295.998 106.792C295.998 106.792 295.998 106.792 295.998 106.792C295.998 106.792 295.998 106.792 295.998 106.792C295.998 106.792 295.998 106.792 295.998 106.792C295.998 106.792 295.998 106.792 295.998 106.792C295.998 106.792 295.998 106.792 295.998 106.792C295.998 106.792 295.998 106.792 295.998 106.792C295.998 106.792 295.998 106.792 295.998 106.792C295.998 106.792 295.998 106.792 295.998 106.792C295.998 106.792 295.998 106.792 295.998 106.792C295.998 106.792 295.998 106.792 295.998 106.792C295.998 106.792 295.998 106.792 295.998 106.792C295.998 106.792 295.998 106.792 295.998 106.792C295.998 106.792 295.998 106.792 295.998 106.792C295.998 106.792 295.998 106.792 295.998 106.792C295.998 106.792 295.998 106.792 295.998 106.792C295.998 106.792 295.998 106.792 295.998 106.792C295.998 106.792 295.998 106.792 295.998 106.792C295.998 106.792 295.998 106.792 295.998 106.792C295.998 106.792 295.998 106.792 295.998 106.792C295.998 106.792 295.998 106.792 295.998 106.792C295.998 106.792 295.998 106.792 295.998 106.792C295.998 106.792 295.998 106.792 295.998 106.792C295.998 106.792 295.998 106.792 295.998 106.792C295.998 106.792 295.998 106.792 295.998 106.792C295.998 106.792 295.998 106.792 295.998 106.792C295.998 106.792 295.998 106.792 295.998 106.792C295.998 106.792 295.998 106.792 295.998 106.792C295.998 106.792 295.998 106.792 295.998 106.792C295.998 106.792 295.998 106.792 295.998 106.792C295.998 106.792 295.998 106.792 295.998 106.792C295.998 106.792 295.998 106.792 295.998 106.792C295.998 106.792 295.998 106.792 295.998 106.792C295.998 106.792 295.998 106.792 295.998 106.792C295.998 106.792 295.998 106.792 295.998 106.792C295.998 106.792 295.998 106.792 295.998 106.792C295.998 106.792 295.998 106.792 295.998 106.792C295.998 106.792 295.998 106.792 295.998 106.792C295.998 106.792 295.998 106.792 295.998 106.792C295.998 106.792 295.998 106.792 295.998 106.792C295.998 106.792 295.998 106.792 295.998 106.792C295.998 106.792 295.998 106.792 295.998 106.792C295.998 106.792 295.998 106.792 295.998 106.792C295.998 106.792 295.998 106.792 295.998 106.792C295.998 106.792 295.998 106.792 295.998 106.792C295.998 106.792 295.998 106.792 295.998 106.792C295.998 106.792 295.998 106.792 295.998 106.792C295.998 106.792 295.998 106.792 295.998 106.792C295.998 106.792 295.998 106.792 295.998 106.792C295.998 106.792 295.998 106.792 295.998 106.792C295.998 106.792 295.998 106.792 295.998 106.792C295.998 106.792 295.998 106.792 295.998 106.792C295.998 106.792 295.998 106.792 295.998 106.792C295.998 106.792 295.998 106.792 295.998 106.792C295.998 106.792 295.998 106.792 295.998 106.792C295.998 106.792 295.998 106.792 295.998 106.792C295.998 106.792 295.998 106.792 295.998 106.792C295.998 106.792 295.998 106.792 295.998 106.793C295.998 106.793 295.998 106.793 295.998 106.793C295.998 106.793 295.998 106.793 295.998 106.793C295.998 106.793 295.998 106.793 295.998 106.793C295.998 106.793 295.998 106.793 295.998 106.793C295.998 106.793 295.998 106.793 295.998 106.793C295.998 106.793 295.998 106.793 295.998 106.793C295.998 106.793 295.998 106.793 295.998 106.793C295.998 106.793 295.998 106.793 295.998 106.793C295.998 106.793 295.998 106.793 295.998 106.793C295.998 106.793 295.998 106.793 295.998 106.793C295.998 106.793 295.998 106.793 295.998 106.793C295.998 106.793 295.998 106.793 295.998 106.793C295.998 106.793 295.998 106.793 295.998 106.793C295.998 106.793 295.998 106.793 295.998 106.793C295.998 106.793 295.998 106.793 295.998 106.793C295.998 106.793 295.998 106.793 295.998 106.793C295.998 106.793 295.998 106.793 295.998 106.793C295.998 106.793 295.998 106.793 295.998 106.793C295.998 106.793 295.998 106.793 295.998 106.793C295.998 106.793 295.998 106.793 295.998 106.793C295.998 106.793 295.998 106.793 295.998 106.793C295.998 106.793 295.998 106.793 295.998 106.793C295.998 106.793 295.998 106.793 295.998 106.793C295.998 106.793 295.998 106.793 295.998 106.793C295.998 106.793 295.998 106.793 295.998 106.793C295.998 106.793 295.998 106.793 295.998 106.793C295.998 106.793 295.998 106.793 295.998 106.793C295.998 106.793 295.998 106.793 295.998 106.793C295.998 106.793 295.998 106.793 295.998 106.793C295.998 106.793 295.998 106.793 295.998 106.793C295.998 106.793 295.998 106.793 295.998 106.793C295.998 106.793 295.998 106.793 295.998 106.793C295.998 106.793 295.998 106.793 295.998 106.793C295.998 106.793 295.998 106.793 295.998 106.793C295.998 106.793 295.998 106.793 295.998 106.793C295.998 106.793 295.998 106.793 295.998 106.793C295.998 106.793 295.998 106.793 295.998 106.793C295.998 106.793 295.998 106.793 295.998 106.793C295.998 106.793 295.998 106.793 295.998 106.793C295.998 106.793 295.998 106.793 295.998 106.793C295.998 106.793 295.998 106.793 295.998 106.793C295.998 106.793 295.998 106.793 295.998 106.793C295.998 106.793 295.998 106.793 295.998 106.793C295.998 106.793 295.998 106.793 295.998 106.793C295.998 106.793 295.998 106.793 295.998 106.793C295.998 106.793 295.998 106.793 295.997 106.793C295.997 106.793 295.997 106.793 295.997 106.793C295.997 106.793 295.997 106.793 295.997 106.793C295.997 106.793 295.997 106.793 295.997 106.793C295.997 106.793 295.997 106.793 295.997 106.793C295.997 106.793 295.997 106.793 295.997 106.793C295.997 106.793 295.997 106.793 295.997 106.793C295.997 106.793 295.997 106.793 295.997 106.793C295.997 106.793 295.997 106.793 295.997 106.793C295.997 106.793 295.997 106.793 295.997 106.793C295.997 106.793 295.997 106.793 295.997 106.793C295.997 106.793 295.997 106.793 295.997 106.793C295.997 106.793 295.997 106.793 295.997 106.793C295.997 106.793 295.997 106.793 295.997 106.793C295.997 106.793 295.997 106.793 295.997 106.793C295.997 106.793 295.997 106.793 295.997 106.793C295.997 106.793 295.997 106.793 295.997 106.793C295.997 106.793 295.997 106.793 295.997 106.793C295.997 106.793 295.997 106.793 295.997 106.793C295.997 106.793 295.997 106.793 295.997 106.793C295.997 106.793 295.997 106.793 295.997 106.793C295.997 106.793 295.997 106.793 295.997 106.793C295.997 106.793 295.997 106.794 295.997 106.794C295.997 106.794 295.997 106.794 295.997 106.794C295.997 106.794 295.997 106.794 295.997 106.794C295.997 106.794 295.997 106.794 295.997 106.794C295.997 106.794 295.997 106.794 295.997 106.794C295.997 106.794 295.997 106.794 295.997 106.794C295.997 106.794 295.997 106.794 295.997 106.794C295.997 106.794 295.997 106.794 295.997 106.794C295.997 106.794 295.997 106.794 295.997 106.794C295.997 106.794 295.997 106.794 295.997 106.794C295.997 106.794 295.997 106.794 295.997 106.794C295.997 106.794 295.997 106.794 295.997 106.794C295.997 106.794 295.997 106.794 295.997 106.794C295.997 106.794 295.997 106.794 295.997 106.794C295.997 106.794 295.997 106.794 295.997 106.794C295.997 106.794 295.997 106.794 295.997 106.794C295.997 106.794 295.997 106.794 295.997 106.794C295.997 106.794 295.997 106.794 295.997 106.794C295.997 106.794 295.997 106.794 295.997 106.794C295.997 106.794 295.997 106.794 295.997 106.794C295.997 106.794 295.997 106.794 295.997 106.794C295.997 106.794 295.997 106.794 295.997 106.794C295.997 106.794 295.997 106.794 295.997 106.794C295.997 106.794 295.997 106.794 295.997 106.794C295.997 106.794 295.997 106.794 295.997 106.794C295.997 106.794 295.997 106.794 295.997 106.794C295.997 106.794 295.997 106.794 295.997 106.794L297.464 107.108ZM294.173 105.292C295.045 106.205 295.734 106.927 296.155 107.431L297.307 106.471C296.846 105.918 296.112 105.15 295.258 104.256L294.173 105.292ZM287.061 83.8521C284.956 85.1497 284.001 86.9026 283.927 88.886C283.857 90.8057 284.615 92.8533 285.716 94.8176C287.92 98.7514 291.714 102.717 294.173 105.292L295.258 104.256C292.767 101.648 289.118 97.8216 287.024 94.0844C285.976 92.2132 285.371 90.4555 285.426 88.9413C285.48 87.4908 286.141 86.1812 287.848 85.1289L287.061 83.8521ZM297.482 88.6255C296.767 86.1528 295.61 84.0642 293.822 83.0512C291.966 81.9996 289.682 82.236 287.061 83.8521L287.848 85.1289C290.205 83.6756 291.878 83.6738 293.083 84.3563C294.355 85.0774 295.363 86.6951 296.041 89.0421L297.482 88.6255ZM297.476 89.0607C298.198 86.7869 299.232 85.1813 300.514 84.4495C301.725 83.758 303.362 83.7386 305.617 85.1286L306.404 83.8517C303.856 82.2808 301.612 82.0953 299.77 83.1469C297.999 84.1582 296.809 86.2048 296.047 88.6069L297.476 89.0607ZM305.617 85.1286C307.324 86.1809 307.985 87.4905 308.039 88.941C308.094 90.4551 307.489 92.2129 306.441 94.084C304.347 97.8213 300.698 101.648 298.207 104.256L299.292 105.292C301.751 102.716 305.545 98.7511 307.749 94.8173C308.85 92.8529 309.608 90.8054 309.538 88.8857C309.464 86.9023 308.509 85.1494 306.404 83.8517L305.617 85.1286ZM298.207 104.256C297.353 105.15 296.619 105.917 296.158 106.47L297.31 107.431C297.731 106.927 298.42 106.204 299.292 105.292L298.207 104.256ZM297.458 106.755C297.458 106.753 297.457 106.751 297.457 106.748L296.008 107.138C296.009 107.141 296.009 107.143 296.01 107.146L297.458 106.755Z" fill="black"/>
<circle cx="206.522" cy="106.317" r="7.68258" fill="#FF3F54"/>
<path d="M207.746 93.4178C206.696 87.2215 217.716 81.8341 221.456 91.0934" stroke="black" stroke-width="1.5" stroke-linecap="round"/>
<path d="M230.753 89.3221C229.703 83.1258 240.723 77.7384 244.463 86.9977" stroke="black" stroke-width="1.5" stroke-linecap="round"/>
<path d="M239.98 98.7699C241.433 108.83 222.032 117.302 216.103 102.219L239.98 98.7699Z" stroke="black" stroke-width="1.5" stroke-linecap="round" stroke-linejoin="round"/>
<path d="M221.165 101.633L222.221 109.319" stroke="black" stroke-width="1.5" stroke-linecap="round" stroke-linejoin="round"/>
<path d="M235.737 99.6211L237.118 106.327" stroke="black" stroke-width="1.5" stroke-linecap="round" stroke-linejoin="round"/>
<path d="M226.202 101.016L227.574 110.421" stroke="black" stroke-width="1.5" stroke-linecap="round" stroke-linejoin="round"/>
<path d="M231.109 100.32L232.571 109.088" stroke="black" stroke-width="1.5" stroke-linecap="round" stroke-linejoin="round"/>
<path d="M195.036 109.355L206.608 104.921" stroke="black" stroke-width="1.5" stroke-linecap="round"/>
<path d="M194.347 102.681L206.545 104.866" stroke="black" stroke-width="1.5" stroke-linecap="round"/>
<circle cx="250.928" cy="99.5556" r="7.68258" fill="#FF3F54"/>
<path d="M259.029 91.2554L249.608 99.3058" stroke="black" stroke-width="1.5" stroke-linecap="round"/>
<path d="M261.912 97.3143L249.686 99.3364" stroke="black" stroke-width="1.5" stroke-linecap="round"/>
<defs>
<linearGradient id="paint0_linear_757_2389" x1="175.593" y1="147.478" x2="245.185" y2="184.116" gradientUnits="userSpaceOnUse">
<stop stop-color="#249361"/>
<stop offset="1" stop-color="#3ECF8E"/>
</linearGradient>
<linearGradient id="paint1_linear_757_2389" x1="147.408" y1="100.812" x2="174.918" y2="165.727" gradientUnits="userSpaceOnUse">
<stop/>
<stop offset="1" stop-opacity="0"/>
</linearGradient>
</defs>
</svg>
