<svg width="366" height="72" viewBox="0 0 366 72" fill="none" xmlns="http://www.w3.org/2000/svg">
<g clip-path="url(#clip0_3_138)">
<path d="M95.4697 42.765C95.8458 46.2814 99.0443 52.3095 108.327 52.3095C116.417 52.3095 120.306 47.1605 120.306 42.1371C120.306 37.616 117.233 33.9113 111.149 32.6553L106.759 31.7135C105.065 31.3996 103.937 30.4577 103.937 28.9506C103.937 27.1924 105.693 25.8739 107.888 25.8739C111.4 25.8739 112.717 28.1971 112.968 30.0182L119.929 28.4484C119.553 25.1203 116.605 19.5319 107.825 19.5319C101.177 19.5319 96.2852 24.1157 96.2852 29.6413C96.2852 33.974 98.9816 37.5533 104.94 38.8718L109.017 39.8138C111.4 40.3161 112.341 41.4465 112.341 42.8278C112.341 44.4605 111.024 45.9047 108.264 45.9047C104.627 45.9047 102.807 43.6441 102.62 41.1952L95.4697 42.765Z" fill="white"/>
<path d="M146.963 51.3677H154.928C154.802 50.3002 154.614 48.1653 154.614 45.7791V20.4738H146.272V38.4324C146.272 42.0116 144.14 44.5233 140.44 44.5233C136.551 44.5233 134.795 41.7604 134.795 38.3068V20.4738H126.453V40.0023C126.453 46.721 130.718 52.184 138.182 52.184C141.442 52.184 145.019 50.9282 146.712 48.0397C146.712 49.2955 146.837 50.7397 146.963 51.3677Z" fill="white"/>
<path d="M171.858 63.2984V48.3538C173.362 50.4259 176.499 52.1214 180.764 52.1214C189.481 52.1214 195.314 45.2141 195.314 35.858C195.314 26.6904 190.109 19.7832 181.077 19.7832C176.437 19.7832 172.987 21.8553 171.607 24.2415V20.4739H163.517V63.2984H171.858ZM187.098 35.9209C187.098 41.4467 183.711 44.649 179.446 44.649C175.182 44.649 171.733 41.3838 171.733 35.9209C171.733 30.4579 175.182 27.2555 179.446 27.2555C183.711 27.2555 187.098 30.4579 187.098 35.9209Z" fill="white"/>
<path d="M200.037 42.9534C200.037 47.7885 204.051 52.2468 210.637 52.2468C215.214 52.2468 218.162 50.1117 219.73 47.6628C219.73 48.8559 219.855 50.5512 220.044 51.3676H227.695C227.507 50.3001 227.32 48.1024 227.32 46.4698V31.274C227.32 25.0575 223.682 19.5319 213.898 19.5319C205.619 19.5319 201.165 24.8691 200.664 29.7042L208.065 31.274C208.316 28.5739 210.323 26.2506 213.96 26.2506C217.473 26.2506 219.166 28.0716 219.166 30.2693C219.166 31.3368 218.602 32.2159 216.846 32.4671L209.257 33.5973C204.114 34.3509 200.037 37.4276 200.037 42.9534ZM212.392 46.0302C209.696 46.0302 208.378 44.2721 208.378 42.4511C208.378 40.065 210.071 38.8718 212.204 38.558L219.166 37.4905V38.8718C219.166 44.3349 215.905 46.0302 212.392 46.0302Z" fill="white"/>
<path d="M243.819 51.3679V47.6003C245.449 50.2376 248.71 52.1214 252.976 52.1214C261.757 52.1214 267.527 45.1513 267.527 35.7953C267.527 26.6275 262.321 19.6576 253.29 19.6576C248.71 19.6576 245.324 21.667 243.944 23.8646V5.90601H235.729V51.3679H243.819ZM259.184 35.858C259.184 41.5094 255.798 44.649 251.533 44.649C247.331 44.649 243.819 41.4467 243.819 35.858C243.819 30.2067 247.331 27.1299 251.533 27.1299C255.798 27.1299 259.184 30.2067 259.184 35.858Z" fill="white"/>
<path d="M272.25 42.9534C272.25 47.7885 276.263 52.2468 282.849 52.2468C287.426 52.2468 290.375 50.1117 291.942 47.6628C291.942 48.8559 292.068 50.5512 292.256 51.3676H299.907C299.72 50.3001 299.532 48.1024 299.532 46.4698V31.274C299.532 25.0575 295.894 19.5319 286.11 19.5319C277.831 19.5319 273.378 24.8691 272.877 29.7042L280.277 31.274C280.528 28.5739 282.535 26.2506 286.172 26.2506C289.685 26.2506 291.378 28.0716 291.378 30.2693C291.378 31.3368 290.814 32.2159 289.057 32.4671L281.469 33.5973C276.326 34.3509 272.25 37.4276 272.25 42.9534ZM284.605 46.0302C281.908 46.0302 280.59 44.2721 280.59 42.4511C280.59 40.065 282.284 38.8718 284.417 38.558L291.378 37.4905V38.8718C291.378 44.3349 288.117 46.0302 284.605 46.0302Z" fill="white"/>
<path d="M305.305 42.765C305.68 46.2814 308.879 52.3095 318.161 52.3095C326.252 52.3095 330.14 47.1605 330.14 42.1371C330.14 37.616 327.068 33.9113 320.984 32.6553L316.593 31.7135C314.9 31.3996 313.772 30.4577 313.772 28.9506C313.772 27.1924 315.527 25.8739 317.722 25.8739C321.235 25.8739 322.552 28.1971 322.804 30.0182L329.765 28.4484C329.388 25.1203 326.44 19.5319 317.66 19.5319C311.011 19.5319 306.12 24.1157 306.12 29.6413C306.12 33.974 308.816 37.5533 314.775 38.8718L318.852 39.8138C321.235 40.3161 322.176 41.4465 322.176 42.8278C322.176 44.4605 320.859 45.9047 318.099 45.9047C314.461 45.9047 312.643 43.6441 312.455 41.1952L305.305 42.765Z" fill="white"/>
<path d="M342.809 32.4042C342.998 29.5786 345.381 26.3133 349.709 26.3133C354.475 26.3133 356.482 29.3274 356.608 32.4042H342.809ZM357.424 40.4418C356.42 43.2045 354.287 45.1511 350.399 45.1511C346.259 45.1511 342.809 42.1999 342.622 38.1184H364.698C364.698 37.9927 364.823 36.7369 364.823 35.5438C364.823 25.6226 359.117 19.5319 349.583 19.5319C341.681 19.5319 334.405 25.9366 334.405 35.7951C334.405 46.2186 341.868 52.3095 350.336 52.3095C357.925 52.3095 362.817 47.8512 364.385 42.5138L357.424 40.4418Z" fill="white"/>
<path fill-rule="evenodd" clip-rule="evenodd" d="M34.6982 3.91477C34.6545 1.00063 30.9759 -0.249982 29.1614 2.03248L1.7831 36.4758C-1.44841 40.5412 1.44994 46.5368 6.64673 46.5368H34.9592L35.2921 68.7327C35.3359 71.6467 39.0145 72.897 40.8286 70.6148L68.2071 36.1714C71.4383 32.106 68.54 26.1108 63.3434 26.1108H34.844L34.6982 3.91477Z" fill="url(#paint0_linear_3_138)"/>
</g>
<defs>
<linearGradient id="paint0_linear_3_138" x1="-10.9708" y1="-16.6465" x2="55.3216" y2="88.3754" gradientUnits="userSpaceOnUse">
<stop stop-color="#9501FF"/>
<stop offset="1" stop-color="#6E9EDE"/>
</linearGradient>
<clipPath id="clip0_3_138">
<rect width="364.743" height="70.9397" fill="white" transform="translate(0.424805 0.85376)"/>
</clipPath>
</defs>
</svg>
