<svg width="365" height="71" viewBox="0 0 365 71" fill="none" xmlns="http://www.w3.org/2000/svg">
<g clip-path="url(#clip0_3_124)">
<path d="M95.0986 41.9112C95.4747 45.4277 98.6732 51.4557 107.956 51.4557C116.046 51.4557 119.935 46.3067 119.935 41.2834C119.935 36.7623 116.861 33.0575 110.778 31.8016L106.387 30.8598C104.694 30.5458 103.566 29.6039 103.566 28.0969C103.566 26.3386 105.321 25.0201 107.517 25.0201C111.029 25.0201 112.346 27.3434 112.597 29.1644L119.558 27.5946C119.182 24.2666 116.234 18.6781 107.454 18.6781C100.806 18.6781 95.9141 23.2619 95.9141 28.7876C95.9141 33.1202 98.6105 36.6996 104.569 38.0181L108.646 38.96C111.029 39.4623 111.97 40.5927 111.97 41.9741C111.97 43.6067 110.653 45.0509 107.893 45.0509C104.256 45.0509 102.436 42.7903 102.248 40.3414L95.0986 41.9112Z" fill="black"/>
<path d="M146.592 50.5139H154.557C154.431 49.4464 154.243 47.3115 154.243 44.9253V19.62H145.901V37.5786C145.901 41.1579 143.769 43.6695 140.069 43.6695C136.18 43.6695 134.424 40.9066 134.424 37.453V19.62H126.082V39.1485C126.082 45.8673 130.347 51.3302 137.811 51.3302C141.071 51.3302 144.648 50.0744 146.341 47.1859C146.341 48.4417 146.466 49.886 146.592 50.5139Z" fill="black"/>
<path d="M171.487 62.4446V47.5001C172.991 49.5721 176.128 51.2677 180.393 51.2677C189.11 51.2677 194.942 44.3603 194.942 35.0043C194.942 25.8366 189.737 18.9294 180.706 18.9294C176.066 18.9294 172.616 21.0015 171.236 23.3877V19.6201H163.146V62.4446H171.487ZM186.727 35.0671C186.727 40.5929 183.34 43.7953 179.075 43.7953C174.811 43.7953 171.362 40.5301 171.362 35.0671C171.362 29.6042 174.811 26.4017 179.075 26.4017C183.34 26.4017 186.727 29.6042 186.727 35.0671Z" fill="black"/>
<path d="M199.666 42.0996C199.666 46.9347 203.68 51.393 210.266 51.393C214.843 51.393 217.791 49.258 219.359 46.809C219.359 48.0021 219.484 49.6975 219.672 50.5138H227.324C227.136 49.4464 226.948 47.2486 226.948 45.616V30.4202C226.948 24.2037 223.31 18.6781 213.527 18.6781C205.248 18.6781 200.794 24.0153 200.293 28.8504L207.694 30.4202C207.945 27.7202 209.952 25.3968 213.589 25.3968C217.102 25.3968 218.795 27.2178 218.795 29.4155C218.795 30.483 218.231 31.3622 216.474 31.6133L208.886 32.7436C203.743 33.4971 199.666 36.5739 199.666 42.0996ZM212.021 45.1765C209.325 45.1765 208.007 43.4183 208.007 41.5973C208.007 39.2112 209.7 38.0181 211.833 37.7042L218.795 36.6367V38.0181C218.795 43.4811 215.533 45.1765 212.021 45.1765Z" fill="black"/>
<path d="M243.448 50.5141V46.7465C245.078 49.3838 248.339 51.2676 252.605 51.2676C261.386 51.2676 267.156 44.2976 267.156 34.9415C267.156 25.7738 261.95 18.8039 252.918 18.8039C248.339 18.8039 244.953 20.8132 243.573 23.0108V5.05225H235.357V50.5141H243.448ZM258.813 35.0042C258.813 40.6556 255.427 43.7952 251.162 43.7952C246.96 43.7952 243.448 40.5929 243.448 35.0042C243.448 29.3529 246.96 26.2761 251.162 26.2761C255.427 26.2761 258.813 29.3529 258.813 35.0042Z" fill="black"/>
<path d="M271.879 42.0996C271.879 46.9347 275.892 51.393 282.477 51.393C287.055 51.393 290.004 49.258 291.571 46.809C291.571 48.0021 291.697 49.6975 291.885 50.5138H299.536C299.349 49.4464 299.161 47.2486 299.161 45.616V30.4202C299.161 24.2037 295.523 18.6781 285.739 18.6781C277.46 18.6781 273.007 24.0153 272.506 28.8504L279.905 30.4202C280.157 27.7202 282.164 25.3968 285.801 25.3968C289.314 25.3968 291.007 27.2178 291.007 29.4155C291.007 30.483 290.443 31.3622 288.686 31.6133L281.098 32.7436C275.955 33.4971 271.879 36.5739 271.879 42.0996ZM284.234 45.1765C281.537 45.1765 280.219 43.4183 280.219 41.5973C280.219 39.2112 281.912 38.0181 284.046 37.7042L291.007 36.6367V38.0181C291.007 43.4811 287.746 45.1765 284.234 45.1765Z" fill="black"/>
<path d="M304.934 41.9112C305.309 45.4277 308.508 51.4557 317.79 51.4557C325.881 51.4557 329.769 46.3067 329.769 41.2834C329.769 36.7623 326.697 33.0575 320.613 31.8016L316.222 30.8598C314.529 30.5458 313.401 29.6039 313.401 28.0969C313.401 26.3386 315.156 25.0201 317.351 25.0201C320.864 25.0201 322.181 27.3434 322.433 29.1644L329.393 27.5946C329.017 24.2666 326.069 18.6781 317.289 18.6781C310.64 18.6781 305.749 23.2619 305.749 28.7876C305.749 33.1202 308.445 36.6996 314.404 38.0181L318.481 38.96C320.864 39.4623 321.805 40.5927 321.805 41.9741C321.805 43.6067 320.488 45.0509 317.728 45.0509C314.09 45.0509 312.272 42.7903 312.084 40.3414L304.934 41.9112Z" fill="black"/>
<path d="M342.438 31.5505C342.627 28.7249 345.01 25.4596 349.338 25.4596C354.104 25.4596 356.111 28.4737 356.237 31.5505H342.438ZM357.052 39.588C356.049 42.3507 353.916 44.2974 350.028 44.2974C345.888 44.2974 342.438 41.3461 342.251 37.2647H364.327C364.327 37.1389 364.452 35.8832 364.452 34.6901C364.452 24.7689 358.746 18.6781 349.212 18.6781C341.31 18.6781 334.034 25.0828 334.034 34.9413C334.034 45.3648 341.497 51.4557 349.965 51.4557C357.553 51.4557 362.446 46.9974 364.014 41.6601L357.052 39.588Z" fill="black"/>
<path fill-rule="evenodd" clip-rule="evenodd" d="M34.2734 3.06101C34.2297 0.146871 30.5511 -1.10374 28.7366 1.17872L1.3583 35.622C-1.87322 39.6874 1.02513 45.683 6.22193 45.683H34.5344L34.8673 67.879C34.9111 70.793 38.5897 72.0433 40.4038 69.7611L67.7823 35.3176C71.0135 31.2522 68.1152 25.257 62.9186 25.257H34.4192L34.2734 3.06101Z" fill="url(#paint0_linear_3_124)"/>
</g>
<defs>
<linearGradient id="paint0_linear_3_124" x1="-11.3956" y1="-17.5003" x2="54.8968" y2="87.5216" gradientUnits="userSpaceOnUse">
<stop stop-color="#9501FF"/>
<stop offset="1" stop-color="#6E9EDE"/>
</linearGradient>
<clipPath id="clip0_3_124">
<rect width="364.743" height="70.9397" fill="white"/>
</clipPath>
</defs>
</svg>
