<svg width="867" height="148" viewBox="0 0 867 148" fill="none" xmlns="http://www.w3.org/2000/svg">
<rect width="867" height="148" fill="white"/>
<g clip-path="url(#clip0)">
<path d="M828.086 30H638.015C630.275 30 624 36.2745 624 44.0145V103.576C624 111.316 630.275 117.59 638.015 117.59H828.086C835.826 117.59 842.1 111.316 842.1 103.576V44.0145C842.1 36.2745 835.826 30 828.086 30Z" fill="#3ECF8E" fill-opacity="0.2"/>
<path d="M669.699 83.801V63.9433H674.144C679.41 63.9433 683.71 67.0355 683.71 73.8963C683.71 80.7571 679.41 83.801 674.144 83.801H669.699ZM674.434 91C684.773 91 691.683 84.4774 691.683 73.8963C691.683 63.3152 684.773 56.7443 674.482 56.7443H662.065V91H674.434ZM706.205 73.848C706.205 66.6973 711.327 63.4601 716.11 63.4601C720.845 63.4601 725.967 66.6973 725.967 73.848C725.967 80.9987 720.845 84.1875 716.11 84.1875C711.327 84.1875 706.205 80.9987 706.205 73.848ZM698.282 73.8963C698.282 84.719 706.447 91.7247 716.11 91.7247C725.725 91.7247 733.89 84.719 733.89 73.8963C733.89 63.0253 725.725 56.0195 716.11 56.0195C706.447 56.0195 698.282 63.0253 698.282 73.8963ZM758.27 91.7247C768.899 91.7247 773.441 84.4774 774.552 79.7425L767.257 77.6649C766.58 80.129 764.213 84.0909 758.27 84.0909C753.149 84.0909 748.414 80.3706 748.414 73.9446C748.414 66.7456 753.583 63.4601 758.173 63.4601C764.213 63.4601 766.387 67.4703 766.919 69.8378L774.118 67.567C773.006 62.6388 768.465 56.0195 758.173 56.0195C748.607 56.0195 740.49 63.2669 740.49 73.9446C740.49 84.6223 748.414 91.7247 758.27 91.7247ZM806.511 65.1512C805.786 61.141 802.549 56.0195 793.997 56.0195C787.427 56.0195 781.725 60.5612 781.725 67.0355C781.725 72.1086 785.252 75.9739 791.05 77.0851L795.737 77.9548C798.008 78.3896 799.409 79.6458 799.409 81.3852C799.409 83.5111 797.573 84.9606 794.577 84.9606C789.891 84.9606 787.765 82.2066 787.475 79.0661L780.469 80.7571C780.952 85.5887 785.011 91.7247 794.481 91.7247C802.646 91.7247 807.139 86.2651 807.139 80.902C807.139 76.0222 803.757 71.8187 797.235 70.6108L792.645 69.7412C790.277 69.3063 789.263 68.0984 789.263 66.4557C789.263 64.5714 791.099 62.7837 793.949 62.7837C798.104 62.7837 799.409 65.4894 799.65 67.0838L806.511 65.1512Z" fill="#3ECF8E"/>
<path d="M159.372 84.5501C159.972 90.1514 165.067 99.7535 179.852 99.7535C192.74 99.7535 198.934 91.5517 198.934 83.55C198.934 76.3483 194.039 70.447 184.348 68.4465L177.355 66.9462C174.657 66.4461 172.859 64.9458 172.859 62.5452C172.859 59.7445 175.656 57.6442 179.153 57.6442C184.748 57.6442 186.846 61.3449 187.245 64.2457L198.335 61.7451C197.735 56.4439 193.04 47.542 179.053 47.542C168.463 47.542 160.671 54.8436 160.671 63.6454C160.671 70.5469 164.967 76.2484 174.458 78.3487L180.951 79.8491C184.748 80.6492 186.246 82.4498 186.246 84.6502C186.246 87.2508 184.148 89.5513 179.752 89.5513C173.958 89.5513 171.061 85.9504 170.761 82.0495L159.372 84.5501Z" fill="#0E1218"/>
<path d="M241.396 98.253H254.084C253.885 96.5525 253.585 93.1518 253.585 89.3509V49.042H240.296V77.6483C240.296 83.3497 236.9 87.3505 231.006 87.3505C224.813 87.3505 222.015 82.9495 222.015 77.4483V49.042H208.728V80.149C208.728 90.8513 215.521 99.5532 227.409 99.5532C232.604 99.5532 238.3 97.5528 240.997 92.9518C240.997 94.9522 241.197 97.2527 241.396 98.253Z" fill="#0E1218"/>
<path d="M281.051 117.257V93.4521C283.448 96.7527 288.444 99.4534 295.238 99.4534C309.125 99.4534 318.414 88.4508 318.414 73.5475C318.414 58.9443 310.124 47.9419 295.738 47.9419C288.345 47.9419 282.85 51.2425 280.653 55.0435V49.0421H267.765V117.257H281.051ZM305.328 73.6476C305.328 82.4496 299.933 87.5506 293.139 87.5506C286.347 87.5506 280.852 82.3495 280.852 73.6476C280.852 64.9457 286.347 59.8445 293.139 59.8445C299.933 59.8445 305.328 64.9457 305.328 73.6476Z" fill="#0E1218"/>
<path d="M325.939 84.8502C325.939 92.552 332.333 99.6536 342.823 99.6536C350.115 99.6536 354.81 96.2527 357.308 92.3518C357.308 94.2523 357.507 96.9528 357.807 98.2533H369.996C369.696 96.5528 369.397 93.052 369.397 90.4515V66.246C369.397 56.3438 363.602 47.542 348.018 47.542C334.83 47.542 327.736 56.0437 326.938 63.7455L338.726 66.246C339.127 61.9451 342.323 58.2443 348.117 58.2443C353.712 58.2443 356.409 61.1449 356.409 64.6457C356.409 66.3462 355.511 67.7465 352.713 68.1465L340.625 69.9469C332.433 71.1472 325.939 76.0482 325.939 84.8502ZM345.619 89.7514C341.324 89.7514 339.225 86.9507 339.225 84.0501C339.225 80.2492 341.923 78.3487 345.321 77.8487L356.409 76.1483V78.3487C356.409 87.0508 351.215 89.7514 345.619 89.7514Z" fill="#0E1218"/>
<path d="M395.678 98.2531V92.2518C398.275 96.4528 403.469 99.4534 410.264 99.4534C424.251 99.4534 433.442 88.3509 433.442 73.4476C433.442 58.8442 425.149 47.7419 410.763 47.7419C403.469 47.7419 398.075 50.9426 395.878 54.4432V25.8369H382.791V98.2531H395.678ZM420.154 73.5475C420.154 82.5495 414.76 87.5506 407.965 87.5506C401.272 87.5506 395.678 82.4496 395.678 73.5475C395.678 64.5455 401.272 59.6445 407.965 59.6445C414.76 59.6445 420.154 64.5455 420.154 73.5475Z" fill="#0E1218"/>
<path d="M440.965 84.8502C440.965 92.552 447.358 99.6536 457.849 99.6536C465.14 99.6536 469.838 96.2527 472.333 92.3518C472.333 94.2523 472.535 96.9528 472.833 98.2533H485.021C484.723 96.5528 484.423 93.052 484.423 90.4515V66.246C484.423 56.3438 478.628 47.542 463.043 47.542C449.856 47.542 442.764 56.0437 441.964 63.7455L453.752 66.246C454.152 61.9451 457.349 58.2443 463.142 58.2443C468.738 58.2443 471.435 61.1449 471.435 64.6457C471.435 66.3462 470.537 67.7465 467.739 68.1465L455.651 69.9469C447.459 71.1472 440.965 76.0482 440.965 84.8502ZM460.646 89.7514C456.35 89.7514 454.251 86.9507 454.251 84.0501C454.251 80.2492 456.948 78.3487 460.346 77.8487L471.435 76.1483V78.3487C471.435 87.0508 466.24 89.7514 460.646 89.7514Z" fill="#0E1218"/>
<path d="M493.62 84.5501C494.218 90.1514 499.315 99.7535 514.099 99.7535C526.987 99.7535 533.181 91.5517 533.181 83.55C533.181 76.3483 528.286 70.447 518.595 68.4465L511.602 66.9462C508.905 66.4461 507.108 64.9458 507.108 62.5452C507.108 59.7445 509.904 57.6442 513.4 57.6442C518.996 57.6442 521.093 61.3449 521.494 64.2457L532.583 61.7451C531.982 56.4439 527.287 47.542 513.302 47.542C502.711 47.542 494.919 54.8436 494.919 63.6454C494.919 70.5469 499.214 76.2484 508.705 78.3487L515.199 79.8491C518.996 80.6492 520.495 82.4498 520.495 84.6502C520.495 87.2508 518.396 89.5513 514.001 89.5513C508.206 89.5513 505.309 85.9504 505.009 82.0495L493.62 84.5501Z" fill="#0E1218"/>
<path d="M553.36 68.0464C553.66 63.5455 557.457 58.3442 564.35 58.3442C571.942 58.3442 575.141 63.1455 575.34 68.0464H553.36ZM576.639 80.8494C575.04 85.2502 571.644 88.351 565.45 88.351C558.855 88.351 553.36 83.6499 553.062 77.1486H588.227C588.227 76.9484 588.427 74.948 588.427 73.0475C588.427 57.244 579.336 47.542 564.151 47.542C551.563 47.542 539.973 57.7441 539.973 73.4477C539.973 90.0513 551.861 99.7535 565.349 99.7535C577.437 99.7535 585.23 92.6519 587.728 84.15L576.639 80.8494Z" fill="#0E1218"/>
<path d="M87.683 128.073C84.8235 131.674 79.0255 129.701 78.9566 125.103L77.9491 57.8516H123.169C131.36 57.8516 135.928 67.3117 130.835 73.7263L87.683 128.073Z" fill="url(#paint0_linear)"/>
<path d="M87.683 128.073C84.8235 131.674 79.0255 129.701 78.9566 125.103L77.9491 57.8516H123.169C131.36 57.8516 135.928 67.3117 130.835 73.7263L87.683 128.073Z" fill="url(#paint1_linear)" fill-opacity="0.2"/>
<path d="M69.2924 19.8598C72.1519 16.2585 77.9498 18.2318 78.0187 22.8298L78.4603 90.081H33.8065C25.6157 90.081 21.0476 80.6209 26.1408 74.2063L69.2924 19.8598Z" fill="#3ECF8E"/>
</g>
<defs>
<linearGradient id="paint0_linear" x1="77.9491" y1="72.7628" x2="118.139" y2="89.6184" gradientUnits="userSpaceOnUse">
<stop stop-color="#249361"/>
<stop offset="1" stop-color="#3ECF8E"/>
</linearGradient>
<linearGradient id="paint1_linear" x1="60.1311" y1="48.3669" x2="78.4598" y2="82.8695" gradientUnits="userSpaceOnUse">
<stop/>
<stop offset="1" stop-opacity="0"/>
</linearGradient>
<clipPath id="clip0">
<rect width="819" height="112" fill="white" transform="translate(24 18)"/>
</clipPath>
</defs>
</svg>
