<svg width="1000" height="295" viewBox="0 0 1000 295" fill="none" xmlns="http://www.w3.org/2000/svg">
<path d="M818.999 182.042C818.999 137.532 847.21 106.227 887.337 106.227C927.464 106.227 956.124 137.513 956.124 182.042C956.124 226.57 927.47 256.083 887.337 256.083C847.204 256.083 818.999 225.222 818.999 182.042ZM777.111 182.042C777.111 247.717 822.965 294 887.331 294C951.696 294 998 247.717 998 182.042C998 116.366 952.146 68.3287 887.331 68.3287C822.515 68.3287 777.111 115.498 777.111 182.042ZM563.266 70.9698L649.691 291.347H690.261L776.68 70.9698H733.03L670.42 241.105H669.533L606.922 70.9698H563.266ZM395.276 174.1C397.918 133.542 424.817 106.227 461.416 106.227C493.155 106.227 516.969 126.506 520.498 156.924H447.301C421.289 156.924 407.174 160.008 396.607 174.118H395.276V174.106V174.1ZM353.394 180.712C353.394 246.387 399.692 293.982 463.614 293.982C506.826 293.982 544.736 271.948 561.05 237.116L525.781 219.478C513.44 242.398 489.626 256.065 463.614 256.065C432.3 256.065 404.089 232.259 404.089 209.339C404.089 197.445 412.027 192.144 423.487 192.144H563.248V180.25C563.248 114.132 520.923 68.2918 460.085 68.2918C399.248 68.2918 353.388 115.461 353.388 180.693M233.469 291.322H273.153V156.031C273.153 126.943 291.221 106.221 316.365 106.221C326.951 106.221 337.962 109.748 343.264 114.587C347.236 104.004 353.407 93.4403 362.662 82.8576C352.076 74.0479 334.008 68.3041 316.365 68.3041C267.869 68.3041 233.469 104.448 233.469 156.013V291.334V291.322ZM41.6836 145.461V37.8981H106.936C128.976 37.8981 143.534 50.6786 143.534 70.0709C143.534 92.1043 124.579 108.856 85.7826 121.636C59.3269 130.002 47.4292 137.058 43.0138 145.442L41.6836 145.455V145.461ZM41.6836 253.448V208.495C41.6836 188.66 58.4401 169.267 81.8106 161.769C102.539 154.714 119.721 147.659 134.279 140.179C153.677 151.648 165.575 171.465 165.575 192.187C165.575 227.444 132.062 253.448 86.6509 253.448H41.6836ZM2 291.347H90.1796C157.206 291.347 207.457 249.478 207.457 193.942C207.457 163.524 192.03 136.208 164.688 118.57C178.803 104.46 185.416 88.152 185.416 68.3164C185.416 27.3339 155.876 0 111.352 0H2V291.347Z" fill="#FFFFFF"/>
</svg>
