<svg width="1361" height="351" viewBox="0 0 1361 351" fill="none" xmlns="http://www.w3.org/2000/svg">
<path d="M432.989 161.176V277H390.673V15.1818H432.222V113.364H434.651C439.168 102.455 446.199 93.8466 455.744 87.5398C465.375 81.233 477.733 78.0795 492.818 78.0795C506.369 78.0795 518.216 80.892 528.358 86.517C538.5 92.142 546.341 100.452 551.881 111.446C557.506 122.44 560.318 135.991 560.318 152.099V277H518.003V157.98C518.003 144.173 514.466 133.435 507.392 125.764C500.318 118.094 490.432 114.259 477.733 114.259C469.125 114.259 461.412 116.091 454.594 119.756C447.861 123.42 442.577 128.747 438.741 135.736C434.906 142.724 432.989 151.205 432.989 161.176ZM624.277 350.636C618.311 350.636 612.814 350.168 607.786 349.23C602.757 348.293 598.879 347.227 596.152 346.034L606.124 312.412C613.027 314.372 619.163 315.224 624.533 314.969C629.902 314.798 634.632 312.966 638.723 309.472C642.899 305.977 646.479 300.182 649.462 292.085L653.936 280.324L582.345 80.6364H627.345L674.774 230.977H676.82L724.504 80.6364H769.632L689.732 301.929C686.067 312.327 681.251 321.148 675.286 328.392C669.405 335.636 662.246 341.134 653.808 344.884C645.456 348.719 635.612 350.636 624.277 350.636ZM798.978 350.636V80.6364H840.398V112.724H843.339C845.725 108.378 849.049 103.52 853.31 98.1506C857.572 92.696 863.41 88.0085 870.825 84.0881C878.239 80.0824 887.87 78.0795 899.717 78.0795C915.143 78.0795 929.035 82 941.393 89.8409C953.751 97.6818 963.509 109.145 970.668 124.23C977.827 139.315 981.407 157.639 981.407 179.202C981.407 200.509 977.87 218.747 970.796 233.918C963.722 249.003 954.049 260.551 941.776 268.562C929.504 276.574 915.526 280.58 899.844 280.58C888.254 280.58 878.708 278.662 871.208 274.827C863.793 270.991 857.87 266.389 853.438 261.02C849.092 255.651 845.725 250.707 843.339 246.19H841.293V350.636H798.978ZM840.526 178.818C840.526 192.028 842.401 203.662 846.151 213.719C849.987 223.69 855.526 231.489 862.771 237.114C870.015 242.653 878.836 245.423 889.234 245.423C899.972 245.423 909.006 242.526 916.336 236.73C923.665 230.935 929.163 223.009 932.827 212.952C936.577 202.895 938.452 191.517 938.452 178.818C938.452 166.205 936.62 154.997 932.955 145.196C929.29 135.31 923.793 127.554 916.464 121.929C909.219 116.219 900.143 113.364 889.234 113.364C878.665 113.364 869.759 116.091 862.515 121.545C855.271 126.915 849.773 134.5 846.023 144.301C842.359 154.102 840.526 165.608 840.526 178.818ZM1103.98 280.963C1084.46 280.963 1067.63 276.83 1053.48 268.562C1039.34 260.21 1028.47 248.491 1020.88 233.406C1013.3 218.236 1009.51 200.466 1009.51 180.097C1009.51 159.898 1013.3 142.128 1020.88 126.787C1028.55 111.446 1039.25 99.5142 1052.97 90.9915C1066.69 82.3835 1082.8 78.0795 1101.3 78.0795C1112.97 78.0795 1124.09 79.9545 1134.66 83.7045C1145.23 87.4545 1154.65 93.3352 1162.92 101.347C1171.18 109.273 1177.7 119.5 1182.48 132.028C1187.33 144.557 1189.76 159.557 1189.76 177.028V190.835H1031.11V160.92H1148.73C1148.73 151.545 1146.76 143.193 1142.84 135.864C1138.92 128.449 1133.43 122.611 1126.35 118.349C1119.36 114.088 1111.18 111.957 1101.81 111.957C1091.67 111.957 1082.8 114.386 1075.22 119.244C1067.72 124.102 1061.88 130.494 1057.7 138.42C1053.61 146.347 1051.52 154.955 1051.44 164.244V188.918C1051.44 201.19 1053.65 211.673 1058.09 220.366C1062.52 229.06 1068.7 235.707 1076.62 240.31C1084.55 244.827 1093.8 247.085 1104.36 247.085C1111.44 247.085 1117.83 246.105 1123.54 244.145C1129.25 242.099 1134.15 239.116 1138.24 235.196C1142.42 231.19 1145.61 226.247 1147.83 220.366L1187.59 226.119C1184.78 237.114 1179.58 246.744 1171.99 255.011C1164.49 263.193 1154.95 269.585 1143.36 274.188C1131.85 278.705 1118.73 280.963 1103.98 280.963ZM1225.92 277V80.6364H1266.95V112.597H1269C1272.58 101.687 1278.8 93.1648 1287.66 87.0284C1296.61 80.8068 1306.75 77.696 1318.09 77.696C1320.56 77.696 1323.42 77.8239 1326.65 78.0795C1329.89 78.25 1332.53 78.5057 1334.58 78.8466V118.477C1332.79 117.881 1329.85 117.327 1325.76 116.815C1321.75 116.219 1317.79 115.92 1313.87 115.92C1305.09 115.92 1297.25 117.795 1290.35 121.545C1283.53 125.21 1278.12 130.324 1274.11 136.886C1270.19 143.364 1268.23 150.864 1268.23 159.386V277H1225.92Z" fill="white"/>
<g clip-path="url(#clip0_428_270)">
<mask id="mask0_428_270" style="mask-type:luminance" maskUnits="userSpaceOnUse" x="0" y="10" width="270" height="271">
<path d="M270 10.7998H0V280.8H270V10.7998Z" fill="white"/>
</mask>
<g mask="url(#mask0_428_270)">
<mask id="mask1_428_270" style="mask-type:luminance" maskUnits="userSpaceOnUse" x="0" y="10" width="270" height="271">
<path d="M270 10.7998H0V280.8H270V10.7998Z" fill="white"/>
</mask>
<g mask="url(#mask1_428_270)">
<path d="M64.5279 226.449C67.4858 223.69 71.4656 222.145 75.6116 222.145H153.628C162.365 222.145 169.448 228.873 169.448 237.171V240.109C169.448 243.433 168.288 246.663 166.149 249.294L147.553 272.165C144.558 275.849 139.933 278.007 135.033 278.007H50.2686C41.5313 278.007 34.4482 271.279 34.4482 262.98V260.805C34.4482 256.772 36.1551 252.908 39.185 250.083L64.5279 226.449Z" fill="white"/>
<path d="M37.457 14.5644C40.358 12.1412 44.1278 10.7998 48.0365 10.7998H215.111C223.829 10.7998 230.897 17.3371 230.897 25.4012V26.531C230.897 30.6444 229.02 34.5671 225.73 37.3343L189.841 67.5188C186.934 69.963 183.149 71.317 179.222 71.317H15.7856C7.06743 71.317 0 64.78 0 56.7157V52.3401C0 48.2093 1.89156 44.2718 5.20594 41.5034L37.457 14.5644Z" fill="white"/>
<path d="M201.62 90.1814C198.904 93.1499 197.38 97.1645 197.38 101.348V264.95C197.38 273.703 203.917 280.799 211.981 280.799H215.603C219.91 280.799 223.997 278.735 226.771 275.16L254.464 239.468C256.681 236.611 257.897 232.995 257.897 229.259V63.2132C257.897 55.3479 252.023 48.9717 244.777 48.9717C241.281 48.9717 237.93 50.4861 235.467 53.1789L201.62 90.1814Z" fill="white"/>
<path d="M5.42304 127.097C1.98937 130.091 0 134.554 0 139.264V225.59C0 233.971 6.41511 240.766 14.3285 240.766C17.8574 240.766 21.2623 239.386 23.8905 236.892L50.9126 211.247C54.0623 208.257 55.8621 203.99 55.8621 199.511V123.386C55.8621 114.683 49.201 107.628 40.984 107.628H33.0916C29.6422 107.628 26.3 108.898 23.6366 111.219L5.42304 127.097Z" fill="white"/>
</g>
</g>
</g>
<defs>
<clipPath id="clip0_428_270">
<rect width="270" height="270" fill="white" transform="translate(0 10.7998)"/>
</clipPath>
</defs>
</svg>
