<svg width="161" height="53" viewBox="0 0 161 53" fill="none" xmlns="http://www.w3.org/2000/svg">
<g clip-path="url(#clip0_325_316)">
<mask id="mask0_325_316" style="mask-type:luminance" maskUnits="userSpaceOnUse" x="0" y="0" width="161" height="53">
<path d="M161 0H0V53H161V0Z" fill="white"/>
</mask>
<g mask="url(#mask0_325_316)">
<path d="M26.8662 42.0614L26.855 42.0547V42.068L25.5499 42.8117C24.9164 43.2035 24.575 43.6889 24.3975 44.3056L26.8662 43.0276L29.335 44.3056C29.1575 43.6911 28.8161 43.2035 28.1826 42.8117L26.8775 42.068V42.0547L26.8662 42.0614ZM26.8775 43.562V43.5486C26.8775 43.5486 26.8707 43.5531 26.8662 43.5553C26.8617 43.5553 26.8595 43.5508 26.855 43.5486V43.562C25.3612 44.3457 24.2178 44.8399 23.6 46.3272L25.7273 45.2741C24.6648 46.9439 24.575 49.0501 25.5499 50.8068L25.9048 49.1369V49.7514C25.9048 50.8936 26.1699 51.9467 26.7899 52.913L26.855 52.9775V52.9998L26.8662 52.9886L26.8775 52.9998V52.9775L26.9426 52.913C27.5626 51.9467 27.8277 50.8936 27.8277 49.7514V49.1369L28.1826 50.8068C29.1575 49.0501 29.0699 46.9417 28.0051 45.2741L30.1324 46.3272C29.5147 44.8422 28.3713 44.3457 26.8775 43.562ZM44.4843 29.8472C40.5644 31.3122 39.886 33.1045 39.886 33.1045C41.3888 28.9143 49.2129 28.38 50.9111 25.4545C52.0792 23.4396 51.8456 19.2183 51.8456 19.2183C51.8456 19.2183 52.351 21.2042 52.0567 23.5442C53.2563 20.9794 54.6243 16.4419 52.9598 11.005C52.9598 11.005 52.524 12.8351 51.8164 13.7212C50.8729 15.2842 48.7973 16.7625 45.7647 19.8394C41.6764 23.985 40.7778 26.5031 40.7778 26.5031C41.7977 20.2046 50.9246 15.2352 51.6142 12.0625C51.9512 10.5174 51.8815 9.19269 51.722 8.23532C51.6906 8.10174 51.6569 7.9726 51.6165 7.84793C51.6165 7.84793 50.6573 9.38193 49.442 10.1367C49.442 10.1367 50.4506 6.5143 48.1189 2.6047C48.1189 2.6047 48.1166 3.88044 47.0362 5.04486C47.0137 7.18445 44.6281 9.47767 42.0897 13.601C39.4952 17.8156 39.2346 20.0777 39.2346 20.0777C38.8819 14.2244 46.3757 7.92585 46.3375 5.16286C46.3061 2.82957 45.4884 0.694429 45.2346 0.0843891C45.2121 0.0554456 45.1942 0.0265021 45.1717 -0.00244141C45.1717 -0.00244141 41.7056 6.02671 39.1492 13.1357C36.5929 20.2469 37.7385 27.7944 37.8486 29.2216C37.934 30.3348 37.6622 31.5482 36.995 32.7037C35.8202 34.8077 33.4817 36.4641 30.5705 37.2367C30.3189 37.5328 29.1553 38.9778 29.025 40.5162C29.025 40.5162 31.0242 40.3826 32.1272 38.9355C32.1272 38.9355 33.5895 41.1752 37.6689 41.2198C37.6689 41.2198 36.6828 40.6431 36.3233 40.1088C36.3233 40.1088 38.2956 41.2198 42.6895 39.9752C42.6895 39.9752 41.2406 39.7125 39.8928 39.078C39.1964 39.1203 38.4169 39.0557 37.588 38.7885C34.5061 37.7978 33.0594 38.0783 33.0594 38.0783C33.0594 38.0783 35.3574 37.5306 37.7677 38.39C40.041 39.1982 43.013 38.0783 43.013 38.0783C43.013 38.0783 42.4401 38.4813 41.5034 38.7796C43.7026 38.6193 47.0182 37.8022 49.1904 34.5984C49.1904 34.5984 48.074 35.1105 45.9175 34.9457C44.2979 35.7695 42.2447 36.0189 40.7621 35.7762C38.3293 35.3754 36.3391 35.9921 36.3391 35.9921C39.475 34.9145 39.2436 35.725 43.5633 34.9925C47.883 34.26 48.4985 31.1185 48.4985 31.1185C48.5255 32.303 48.056 33.247 47.3102 33.9728C49.5453 32.5924 53.1395 29.5867 53.719 24.2901C53.719 24.2901 52.9553 24.9758 51.6007 25.5124C50.8684 27.5161 48.521 28.3355 44.4843 29.845V29.8472ZM29.0092 37.5595C28.3174 37.662 27.6008 37.7154 26.8685 37.7154C26.1362 37.7154 25.4173 37.662 24.7232 37.5595C24.8513 37.8757 24.9793 38.1918 25.1051 38.508C25.6375 39.9129 25.5476 41.4068 24.84 42.6358V42.7226L26.8662 41.5849L28.8924 42.7226V42.6358C28.1826 41.4068 28.095 39.9129 28.6274 38.508C28.7554 38.1918 28.8834 37.8757 29.0092 37.5595ZM23.1598 37.2389C20.4731 36.5243 18.274 35.057 17.0272 33.1802C17.0272 33.1779 17.0227 33.1735 17.0205 33.1713C16.9306 33.0354 16.8453 32.8974 16.7644 32.7571C16.077 31.586 15.794 30.3548 15.8816 29.226C15.9917 27.7967 17.1373 20.2491 14.581 13.1401C12.0269 6.02894 8.55852 -0.000214979 8.55852 -0.000214979C8.53606 0.0287285 8.51809 0.057672 8.49562 0.0866155C8.24179 0.696655 7.42636 2.8318 7.39267 5.16509C7.35448 7.92808 14.8505 14.2266 14.4956 20.0799C14.4956 20.0799 14.235 17.8178 11.6405 13.6032C9.10214 9.47989 6.71652 7.18668 6.69405 5.04709C5.61581 3.88267 5.61132 2.60693 5.61132 2.60693C3.27961 6.51652 4.28822 10.1389 4.28822 10.1389C3.07295 9.38416 2.11376 7.85015 2.11376 7.85015C2.07332 7.9726 2.03963 8.10396 2.00818 8.23755C1.84869 9.19269 1.77905 10.5196 2.116 12.0648C2.80788 15.2352 11.9325 20.2068 12.9524 26.5054C12.9524 26.5054 12.0516 23.9873 7.96549 19.8417C4.93067 16.7647 2.8573 15.2864 1.91383 13.7235C1.20623 12.8373 0.770444 11.0072 0.770444 11.0072C-0.894098 16.4419 0.473926 20.9816 1.67347 23.5464C1.3792 21.2087 1.88463 19.2205 1.88463 19.2205C1.88463 19.2205 1.65101 23.4418 2.81911 25.4567C4.5151 28.3844 12.3391 28.9166 13.8442 33.1067C13.8442 33.1067 13.168 31.3144 9.2459 29.8494C5.20697 28.3399 2.86179 27.5206 2.12948 25.5168C0.774936 24.978 0.0111794 24.2923 0.0111794 24.2923C0.590736 29.5889 4.18489 32.5946 6.42 33.975C5.67421 33.2492 5.20473 32.303 5.23168 31.1207C5.23168 31.1207 5.84718 34.2622 10.1669 34.9947C14.4866 35.7272 14.2553 34.9168 17.3911 35.9944C17.3911 35.9944 15.4009 35.3776 12.9681 35.7784C11.4855 36.0233 9.43235 35.7739 7.81273 34.9479C5.65624 35.1127 4.53981 34.6006 4.53981 34.6006C6.71203 37.8044 10.0276 38.6215 12.2268 38.7818C11.2878 38.4835 10.7173 38.0805 10.7173 38.0805C10.7173 38.0805 13.6914 39.2004 15.9625 38.3922C18.3728 37.535 20.6708 38.0805 20.6708 38.0805C20.6708 38.0805 19.2242 37.8 16.1422 38.7907C15.3133 39.0579 14.5338 39.1225 13.8374 39.0802C12.4919 39.7147 11.0407 39.9774 11.0407 39.9774C15.4346 41.222 17.4069 40.111 17.4069 40.111C17.0475 40.6454 16.0613 41.222 16.0613 41.222C20.1407 41.1775 21.603 38.9377 21.603 38.9377C22.706 40.3849 24.7052 40.5185 24.7052 40.5185C24.5772 38.9778 23.4091 37.5306 23.1598 37.2389ZM23.8179 30.8602C23.8179 30.8602 23.809 30.8669 23.8022 30.8691C22.3062 31.5348 18.9995 30.8914 17.8584 29.6335C17.9056 30.0097 17.9887 30.3749 18.0898 30.7356C18.42 31.4213 19.0579 32.1382 20.2822 32.1271C20.2822 32.1271 19.9273 32.441 19.0467 32.8195C19.4174 33.385 19.8599 33.906 20.3676 34.3735C20.4776 34.4693 20.5855 34.5628 20.7023 34.6563C21.0954 34.5539 22.0096 34.2756 23.0722 33.6611C23.0722 33.6611 22.578 34.5027 21.4413 35.1884C22.0411 35.5802 22.724 35.9342 23.4832 36.2415C23.782 36.3484 24.0875 36.4396 24.402 36.5198C24.5997 36.1925 25.0759 35.3264 25.2264 34.2845C25.2264 34.2845 25.4331 35.3776 25.2129 36.6912C25.7498 36.7803 26.3024 36.8315 26.8685 36.8315C27.4346 36.8315 27.9624 36.7803 28.4903 36.6957C28.2702 35.3799 28.4769 34.2845 28.4769 34.2845C28.6274 35.3331 29.1103 36.2059 29.3058 36.5265C29.5618 36.4619 29.8134 36.3884 30.0605 36.3061C30.8849 35.9832 31.6195 35.607 32.2619 35.1884C31.1253 34.5027 30.6311 33.6611 30.6311 33.6611C31.6936 34.2756 32.6079 34.5539 33.001 34.6563C33.329 34.398 33.6232 34.1286 33.895 33.8525C34.1871 33.5342 34.4476 33.1891 34.6835 32.8328C33.7827 32.4477 33.4233 32.1293 33.4233 32.1293C34.7823 32.1427 35.4181 31.261 35.7146 30.5174C35.791 30.2146 35.8539 29.9073 35.8898 29.5934C34.7891 30.8803 31.4173 31.5482 29.9033 30.8758C29.1328 30.5329 28.8138 29.8027 28.688 29.1058C28.6768 29.1481 28.6588 29.1882 28.6476 29.2283C28.5645 28.7474 28.5487 28.164 28.6251 27.4516C30.2649 28.0839 33.4525 27.7232 33.4525 27.7232L29.9909 25.5569L32.5405 26.5499C31.6307 24.8355 29.3529 23.7513 27.7131 23.0299C27.1672 22.8496 26.8033 22.7583 26.3473 22.7583C24.9815 22.7583 24.3436 24.1119 24.3436 24.1119C24.3436 24.1119 23.7977 24.1119 23.2496 24.2032C21.7019 24.2945 21.2459 24.9246 21.2459 24.9246C21.2459 24.9246 24.7973 23.9316 25.8913 26.9106C26.2552 27.8123 26.4372 29.2572 26.5293 30.7912C25.8913 24.1119 21.2459 25.0136 21.2459 25.0136C21.2459 25.0136 24.2515 24.8333 24.7075 27.3603C24.9411 28.8275 24.6918 30.2079 23.8224 30.8647L23.8179 30.8602ZM25.9475 24.3502C25.9183 24.3524 25.8891 24.3502 25.8599 24.3346C25.7768 24.3101 25.6936 24.27 25.6128 24.1943C25.6128 24.1943 25.642 24.1186 25.6959 24.0273L25.7026 24.014C25.8104 23.8425 26.0194 23.6244 26.3383 23.7424C26.7382 23.8915 26.381 24.3992 25.9452 24.3479L25.9475 24.3502Z" fill="black"/>
<path d="M78.5434 41.5115C78.8759 41.5115 79.0421 41.3534 79.0421 41.0373V29.0925C79.0421 28.7763 78.8759 28.6183 78.5434 28.6183V28.144H83.0271V28.6183C82.8879 28.6183 82.8182 28.7051 82.8182 28.881C82.8182 29.0213 82.9934 29.2662 83.3416 29.6179L90.8646 37.4594V29.0925C90.8646 28.7763 90.6377 28.6183 90.184 28.6183V28.144H94.142V28.6183C93.8096 28.6183 93.6434 28.7763 93.6434 29.0925V41.0373C93.6434 41.3534 93.8096 41.5115 94.142 41.5115V41.9857H89.8942V41.5115C90.1211 41.5115 90.2357 41.4336 90.2357 41.2755C90.2357 41.153 90.0964 40.9504 89.8156 40.6699L81.8208 32.303V41.0373C81.8208 41.3534 82.0208 41.5115 82.4229 41.5115V41.9857H78.5434V41.5115Z" fill="black"/>
<path d="M108.932 30.9872C108.932 30.7935 108.856 30.6488 108.707 30.5531C108.557 30.4573 108.296 30.4084 107.923 30.4084H98.929V33.6701H104.525C104.88 33.6701 105.154 33.6211 105.347 33.5253C105.542 33.4296 105.639 33.1803 105.639 32.775H106.117V36.8783H105.639C105.639 36.4754 105.542 36.2171 105.347 36.1013C105.151 35.9878 104.877 35.9299 104.525 35.9299H98.929V39.5612H108.188C108.454 39.5612 108.671 39.4988 108.84 39.3764C109.008 39.2539 109.091 39.0869 109.091 38.8777H109.57V42.4822H109.091C109.091 42.2195 109.006 42.0704 108.84 42.0347C108.671 41.9991 108.456 41.9813 108.188 41.9813H95.4247V41.5071C95.5483 41.5071 95.6583 41.467 95.7572 41.3891C95.8538 41.3111 95.9032 41.1909 95.9032 41.0328V29.0881C95.9032 28.93 95.8538 28.812 95.7572 28.7319C95.6606 28.6539 95.5483 28.6139 95.4247 28.6139V28.1396H107.923C108.294 28.1396 108.557 28.084 108.707 27.9682C108.858 27.8546 108.932 27.701 108.932 27.5073H109.41V30.9805H108.932V30.9872Z" fill="black"/>
<path d="M76.7217 30.9872C76.7217 30.7935 76.6453 30.6488 76.497 30.5531C76.3465 30.4573 76.0859 30.4084 75.713 30.4084H66.7187V33.6701H72.3143C72.6693 33.6701 72.9433 33.6211 73.1365 33.5253C73.3319 33.4296 73.4285 33.1803 73.4285 32.775H73.907V36.8783H73.4285C73.4285 36.4754 73.3319 36.2171 73.1365 36.1013C72.9411 35.9878 72.667 35.9299 72.3143 35.9299H66.7187V39.5612H75.9781C76.2432 39.5612 76.4611 39.4988 76.6296 39.3764C76.798 39.2539 76.8811 39.0869 76.8811 38.8777H77.3596V42.4822H76.8811C76.8811 42.2195 76.7958 42.0704 76.6296 42.0347C76.4611 41.9991 76.2454 41.9813 75.9781 41.9813H63.2144V41.5071C63.3379 41.5071 63.448 41.467 63.5468 41.3891C63.6434 41.3111 63.6929 41.1909 63.6929 41.0328V29.0881C63.6929 28.93 63.6434 28.812 63.5468 28.7319C63.4503 28.6539 63.3379 28.6139 63.2144 28.6139V28.1396H75.713C76.0837 28.1396 76.3465 28.084 76.497 27.9682C76.6475 27.8546 76.7217 27.701 76.7217 27.5073H77.2001V30.9805H76.7217V30.9872Z" fill="black"/>
<path d="M120.777 28.1463C121.626 28.1463 122.397 28.222 123.086 28.3689C123.776 28.5181 124.369 28.7541 124.865 29.0791C125.36 29.4042 125.741 29.825 126.006 30.3415C126.272 30.8581 126.404 31.4948 126.404 32.2496C126.404 33.4073 126.058 34.2934 125.368 34.9079C124.679 35.5224 123.749 35.9343 122.581 36.1436L126.112 41.1419C126.236 41.3178 126.382 41.4224 126.55 41.4581C126.719 41.4937 126.874 41.5115 127.015 41.5115V41.9857H122.051V41.5115C122.21 41.5115 122.347 41.4848 122.462 41.4336C122.576 41.3801 122.635 41.3111 122.635 41.222C122.635 41.133 122.599 41.0328 122.529 40.9193C122.457 40.8057 122.352 40.6521 122.21 40.4584L119.29 36.3551H114.903V41.0373C114.903 41.1953 114.959 41.3133 115.076 41.3935C115.19 41.4714 115.399 41.5115 115.7 41.5115V41.9857H111.109V41.5115C111.621 41.5115 111.879 41.3534 111.879 41.0373V29.0925C111.879 28.7763 111.623 28.6183 111.109 28.6183V28.144H120.777V28.1463ZM120.087 34.3023C120.725 34.3023 121.255 34.2533 121.68 34.1576C122.105 34.0619 122.442 33.9261 122.689 33.7502C122.936 33.5743 123.113 33.3695 123.219 33.1312C123.324 32.893 123.378 32.6347 123.378 32.3542C123.378 32.0737 123.324 31.8154 123.219 31.5772C123.113 31.339 122.936 31.1341 122.689 30.9582C122.442 30.7824 122.105 30.6465 121.68 30.5508C121.255 30.4551 120.725 30.4061 120.087 30.4061H114.905V34.3001H120.087V34.3023Z" fill="black"/>
<path d="M141.398 32.4075L140.868 32.2494C140.904 32.1448 140.922 32.0379 140.922 31.9333C140.922 31.6706 140.691 31.4791 140.367 31.272C140.044 31.065 139.633 30.8869 139.136 30.7399C138.638 30.593 138.096 30.4839 137.512 30.4149C136.926 30.3458 136.371 30.3102 135.848 30.3102C135.201 30.3102 134.558 30.4015 133.923 30.5818C133.285 30.7644 132.716 31.0449 132.22 31.4257C131.721 31.8064 131.319 32.3006 131.014 32.9062C130.708 33.5118 130.555 34.2488 130.555 35.1148C130.555 35.9809 130.708 36.6956 131.014 37.3101C131.319 37.9246 131.721 38.4233 132.22 38.804C132.719 39.1847 133.285 39.4675 133.923 39.6478C134.561 39.8304 135.203 39.9217 135.848 39.9217C136.843 39.9217 137.739 39.8393 138.534 39.6746C139.33 39.5098 140.064 39.3874 140.632 39.1937V36.9316H137.234C136.987 36.9316 136.8 36.985 136.677 37.0897C136.553 37.1943 136.472 37.4236 136.438 37.7732H135.96V34.4046H136.438C136.474 34.703 136.553 34.8922 136.677 34.9701C136.8 35.0481 136.987 35.0881 137.234 35.0881H143.869V35.5624C143.514 35.6158 143.294 35.6759 143.207 35.7472C143.119 35.8184 143.074 35.9676 143.074 36.1947V39.1669C143.074 39.3428 143.128 39.4564 143.234 39.5098C143.339 39.5632 143.463 39.6234 143.604 39.6946V40.1154C143.02 40.5184 142.405 40.8523 141.76 41.1151C141.113 41.3778 140.459 41.5848 139.795 41.734C139.132 41.8832 138.467 41.9745 137.804 42.0101C137.142 42.0457 136.49 42.0635 135.852 42.0635C134.614 42.0635 133.485 41.9099 132.467 41.6026C131.449 41.2954 130.578 40.839 129.852 40.2334C129.127 39.6278 128.565 38.8909 128.167 38.0226C127.77 37.1543 127.57 36.1679 127.57 35.0636C127.57 33.9593 127.77 32.973 128.167 32.1047C128.565 31.2364 129.127 30.495 129.852 29.8805C130.578 29.266 131.449 28.7985 132.467 28.4734C133.485 28.1484 134.612 27.9858 135.852 27.9858C136.632 27.9858 137.373 28.0393 138.083 28.1439C138.79 28.2486 139.419 28.3666 139.967 28.5001C140.516 28.6315 140.972 28.754 141.336 28.8675C141.697 28.9811 141.924 29.0389 142.012 29.0389C142.171 29.0389 142.295 29.0033 142.382 28.9343C142.47 28.8653 142.56 28.8029 142.647 28.7495L142.966 28.9343L141.401 32.4075H141.398Z" fill="black"/>
<path d="M152.477 33.9862L156.395 29.7493C156.537 29.5378 156.651 29.373 156.741 29.2506C156.829 29.1281 156.873 29.0146 156.873 28.9077C156.873 28.7853 156.79 28.7051 156.622 28.6717C156.453 28.6361 156.298 28.6183 156.157 28.6183V28.144H161V28.6183C160.858 28.6183 160.726 28.6316 160.602 28.6583C160.479 28.6851 160.351 28.7474 160.218 28.8431C160.086 28.9389 159.944 29.0791 159.794 29.2639L153.729 36.3551V41.0373C153.729 41.3534 153.933 41.5115 154.34 41.5115V41.9857H150.146V41.5115C150.305 41.5115 150.438 41.4714 150.543 41.3935C150.649 41.3156 150.703 41.1953 150.703 41.0373V36.3551L144.595 29.2506C144.471 29.0747 144.28 28.9255 144.024 28.8031C143.768 28.6806 143.55 28.6183 143.373 28.6183V28.144H148.894V28.6183C148.735 28.6183 148.584 28.6405 148.443 28.6851C148.301 28.7296 148.232 28.8387 148.232 29.0146L152.482 33.9862H152.477Z" fill="black"/>
<path d="M76.041 10.9582C75.0728 10.3393 73.7453 10.0298 72.056 10.0298H63.1582V10.4996C63.8097 10.4996 64.1354 10.6576 64.1354 10.9693V22.8451C64.1354 23.159 63.8097 23.3149 63.1582 23.3149V23.7869H67.9879V23.3149C67.424 23.3149 67.1432 23.159 67.1432 22.8451V18.1896H72.0538C73.743 18.1896 75.0706 17.8802 76.0388 17.2612C77.0069 16.6423 77.4899 15.5914 77.4899 14.1086C77.4899 12.6258 77.0047 11.5749 76.0388 10.956L76.041 10.9582ZM73.8621 15.4444C73.4487 15.6715 72.9523 15.7851 72.3705 15.7851H67.1432V12.4365H72.3705C72.9523 12.4365 73.4487 12.5501 73.8621 12.7772C74.2754 13.0043 74.4821 13.4496 74.4821 14.1108C74.4821 14.7721 74.2754 15.2174 73.8621 15.4444Z" fill="black"/>
<path d="M90.658 10.9713C90.658 10.6574 90.4648 10.5015 90.0762 10.5015V10.0317H94.1398V10.5015C94.0163 10.5015 93.9062 10.5416 93.8096 10.6195C93.713 10.6974 93.6636 10.8154 93.6636 10.9735V22.8493C93.6636 23.0073 93.7108 23.1231 93.8096 23.2033C93.9062 23.2812 94.0163 23.3213 94.1398 23.3213V23.791H90.0762V23.3213C90.4626 23.3213 90.658 23.1654 90.658 22.8515V17.9333H82.1601V22.8515C82.1601 23.0096 82.2072 23.1253 82.3061 23.2055C82.4027 23.2834 82.5127 23.3235 82.6363 23.3235V23.7933H78.6513V23.3235C78.986 23.3235 79.1522 23.1676 79.1522 22.8537V10.978C79.1522 10.664 78.9837 10.5082 78.6513 10.5082V10.0384H82.6363V10.5082C82.5127 10.5082 82.4027 10.5483 82.3061 10.6262C82.2095 10.7041 82.1601 10.8221 82.1601 10.9802V15.4264H90.658V10.9802V10.9713Z" fill="black"/>
<path d="M109.348 13.7877C108.88 12.915 108.272 12.1825 107.537 11.6103C106.807 11.0425 105.989 10.6106 105.104 10.3256C104.224 10.0429 103.345 9.90039 102.492 9.90039C101.638 9.90039 100.762 10.0429 99.8792 10.3256C98.9942 10.6106 98.1765 11.0425 97.4464 11.6103C96.7119 12.1825 96.1031 12.915 95.6359 13.7877C95.1641 14.6672 94.926 15.718 94.926 16.9092C94.926 18.1003 95.1641 19.1512 95.6359 20.0306C96.1031 20.9034 96.7119 21.6359 97.4464 22.2081C98.1787 22.778 98.9987 23.1988 99.886 23.4571C100.764 23.7131 101.64 23.8445 102.489 23.8445C103.339 23.8445 104.215 23.7153 105.093 23.4571C105.98 23.1988 106.8 22.778 107.533 22.2081C108.267 21.6359 108.876 20.9034 109.343 20.0306C109.815 19.1512 110.053 18.1025 110.053 16.9092C110.053 15.7158 109.815 14.6672 109.343 13.7877H109.348ZM107.002 16.9092C107.002 17.5593 106.87 18.1471 106.607 18.6525C106.34 19.1645 105.989 19.6031 105.565 19.9505C105.133 20.3022 104.644 20.5761 104.109 20.7631C103.035 21.1394 101.95 21.1394 100.877 20.7631C100.34 20.5761 99.85 20.3022 99.421 19.9505C98.9942 19.6031 98.6437 19.1645 98.3787 18.6525C98.1158 18.1471 97.9833 17.5593 97.9833 16.9092C97.9833 16.2591 98.1158 15.6713 98.3787 15.1659C98.6437 14.6538 98.9942 14.2174 99.421 13.8679C99.85 13.5161 100.34 13.2423 100.877 13.0552C101.413 12.866 101.957 12.7725 102.492 12.7725C103.026 12.7725 103.57 12.8682 104.107 13.0552C104.644 13.2423 105.133 13.5161 105.562 13.8679C105.987 14.2152 106.34 14.6538 106.605 15.1659C106.868 15.6735 107 16.2591 107 16.9092H107.002Z" fill="black"/>
<path d="M124.129 12.855C124.129 12.6636 124.054 12.5188 123.904 12.4231C123.753 12.3274 123.495 12.2784 123.124 12.2784H114.573V15.5223H119.746C120.099 15.5223 120.37 15.4755 120.564 15.3776C120.757 15.2818 120.853 15.0325 120.853 14.6317H121.327V18.7128H120.853C120.853 18.312 120.757 18.0537 120.564 17.9402C120.37 17.8266 120.096 17.771 119.746 17.771H114.573V21.38H123.387C123.65 21.38 123.866 21.3199 124.034 21.1974C124.2 21.075 124.286 20.9102 124.286 20.701H124.76V24.2855H124.286C124.286 24.025 124.203 23.8758 124.034 23.8402C123.868 23.8046 123.652 23.789 123.387 23.789H111.089V23.3192C111.212 23.3192 111.322 23.2792 111.419 23.2012C111.515 23.1233 111.565 23.0053 111.565 22.8472V10.9715C111.565 10.8156 111.515 10.6976 111.419 10.6175C111.322 10.5396 111.212 10.4995 111.089 10.4995V10.0297H123.124C123.493 10.0297 123.753 9.97405 123.904 9.8605C124.052 9.74695 124.129 9.59555 124.129 9.40186H124.603V12.855H124.129Z" fill="black"/>
<path d="M125.786 23.3192C126.121 23.3192 126.287 23.1634 126.287 22.8495V10.9737C126.287 10.6598 126.119 10.504 125.786 10.504V10.0342H130.299V10.504C130.158 10.504 130.088 10.5908 130.088 10.7644C130.088 10.9047 130.263 11.1474 130.616 11.4969L137.6 19.2916V10.9737C137.6 10.6598 137.371 10.504 136.915 10.504V10.0342H140.9V10.504C140.565 10.504 140.399 10.662 140.399 10.9737V22.8495C140.399 23.1634 140.565 23.3192 140.9 23.3192V23.789H136.625V23.3192C136.854 23.3192 136.969 23.2413 136.969 23.0832C136.969 22.9608 136.827 22.7604 136.546 22.4821L129.086 14.1642V22.8495C129.086 23.1634 129.288 23.3192 129.693 23.3192V23.789H125.786V23.3192Z" fill="black"/>
<path d="M142.041 23.3192C142.499 23.3192 142.728 23.1634 142.728 22.8495V10.9737C142.728 10.6598 142.499 10.504 142.041 10.504V10.0342H146.421V10.504C145.963 10.504 145.734 10.662 145.734 10.9737V22.8495C145.734 23.1634 145.963 23.3192 146.421 23.3192V23.789H142.041V23.3192Z" fill="black"/>
<path d="M159.65 22.4287C159.744 22.5689 159.859 22.7025 159.998 22.8339C160.135 22.9652 160.286 23.0788 160.447 23.1745C160.609 23.2703 160.793 23.3192 161 23.3192V23.789H155.831V23.3192C156.105 23.3192 156.242 23.179 156.242 22.9007C156.242 22.7782 156.186 22.638 156.076 22.4821L154.079 19.2093L151.896 22.4955C151.768 22.6602 151.702 22.8138 151.702 22.9541C151.702 23.199 151.864 23.3192 152.19 23.3192V23.789H147.459V23.3192C147.785 23.3192 148.036 23.2836 148.218 23.2146C148.398 23.1456 148.582 22.9875 148.771 22.7448L152.43 16.847L149.189 11.5237C148.897 11.1407 148.632 10.8735 148.391 10.7266C148.151 10.5774 147.868 10.504 147.542 10.504V10.0342H153.147V10.504C153.01 10.504 152.877 10.5396 152.749 10.6086C152.621 10.6776 152.556 10.7823 152.556 10.9225C152.556 11.045 152.603 11.1941 152.698 11.3678L154.411 14.6117L156.267 11.2364C156.404 11.0628 156.474 10.9314 156.474 10.8446C156.474 10.6175 156.242 10.504 155.78 10.504V10.0342H160.998V10.504C160.587 10.504 160.281 10.5307 160.086 10.5819C159.888 10.6331 159.722 10.7466 159.585 10.9225L155.692 16.8448L159.648 22.4331L159.65 22.4287Z" fill="black"/>
</g>
</g>
<defs>
<clipPath id="clip0_325_316">
<rect width="161" height="53" fill="white"/>
</clipPath>
</defs>
</svg>
