<svg width="458" height="407" viewBox="0 0 458 407" fill="none" xmlns="http://www.w3.org/2000/svg">
<g clip-path="url(#clip0_676_952)">
<g clip-path="url(#clip1_676_952)">
<rect x="23" y="24" width="855" height="326" rx="4" fill="#F8F8F8"/>
<g clip-path="url(#clip2_676_952)">
<mask id="path-3-inside-1_676_952" fill="white">
<path d="M23 24H290.333V62H23V24Z"/>
</mask>
<path d="M290.333 62V61H23V62V63H290.333V62Z" fill="#DFDFDF" mask="url(#path-3-inside-1_676_952)"/>
<path d="M36.793 40.499H36.716V47H35.88V39.322H37.189L39.807 45.757H39.884V39.322H40.72V47H39.411L36.793 40.499ZM47.3267 47L46.6777 44.811H43.9827L43.3337 47H42.3767L44.7307 39.322H45.9517L48.3057 47H47.3267ZM45.3797 40.301H45.2807L44.2027 44.008H46.4577L45.3797 40.301ZM54.0764 43.15V40.719H53.9884L52.3714 44.668L50.7544 40.719H50.6664V43.15V47H49.8194V39.322H51.0074L52.3604 42.71H52.4264L53.7794 39.322H54.9234V47H54.0764V43.15ZM57.0971 47V39.322H61.8271V40.125H58.0211V42.71H61.6951V43.513H58.0211V46.197H61.8271V47H57.0971Z" fill="#525252"/>
<mask id="path-6-inside-2_676_952" fill="white">
<path d="M290.333 24H557.667V62H290.333V24Z"/>
</mask>
<path d="M557.667 62V61H290.333V62V63H557.667V62Z" fill="#DFDFDF" mask="url(#path-6-inside-2_676_952)"/>
<path d="M303.323 47V39.322H306.117C306.829 39.322 307.371 39.5163 307.745 39.905C308.119 40.2937 308.306 40.8363 308.306 41.533C308.306 42.2297 308.119 42.7723 307.745 43.161C307.371 43.5497 306.829 43.744 306.117 43.744H304.247V47H303.323ZM304.247 42.941H306.095C306.484 42.941 306.785 42.8457 306.997 42.655C307.217 42.457 307.327 42.1783 307.327 41.819V41.247C307.327 40.8877 307.217 40.6127 306.997 40.422C306.785 40.224 306.484 40.125 306.095 40.125H304.247V42.941ZM311.173 39.322V43.931C311.173 44.305 311.184 44.6387 311.206 44.932C311.228 45.2253 311.287 45.4783 311.382 45.691C311.478 45.8963 311.624 46.054 311.822 46.164C312.028 46.274 312.31 46.329 312.669 46.329C313.029 46.329 313.307 46.274 313.505 46.164C313.711 46.054 313.861 45.8963 313.956 45.691C314.052 45.4783 314.11 45.2253 314.132 44.932C314.154 44.6387 314.165 44.305 314.165 43.931V39.322H315.089V43.711C315.089 44.283 315.06 44.7817 315.001 45.207C314.95 45.6323 314.836 45.988 314.66 46.274C314.492 46.56 314.246 46.7763 313.923 46.923C313.608 47.0623 313.19 47.132 312.669 47.132C312.149 47.132 311.727 47.0623 311.404 46.923C311.089 46.7763 310.843 46.56 310.667 46.274C310.499 45.988 310.385 45.6323 310.326 45.207C310.275 44.7817 310.249 44.283 310.249 43.711V39.322H311.173ZM317.373 39.322H319.98C320.64 39.322 321.157 39.5017 321.531 39.861C321.905 40.2203 322.092 40.7007 322.092 41.302C322.092 41.764 321.978 42.127 321.751 42.391C321.531 42.655 321.245 42.842 320.893 42.952V42.985C321.326 43.0877 321.681 43.282 321.96 43.568C322.239 43.8467 322.378 44.2537 322.378 44.789C322.378 45.097 322.327 45.3867 322.224 45.658C322.121 45.9293 321.975 46.164 321.784 46.362C321.601 46.56 321.381 46.7177 321.124 46.835C320.875 46.945 320.603 47 320.31 47H317.373V39.322ZM320.035 46.197C320.46 46.197 320.794 46.1017 321.036 45.911C321.278 45.7203 321.399 45.427 321.399 45.031V44.58C321.399 44.1913 321.278 43.9017 321.036 43.711C320.794 43.513 320.46 43.414 320.035 43.414H318.297V46.197H320.035ZM319.881 42.655C320.27 42.655 320.574 42.5707 320.794 42.402C321.014 42.226 321.124 41.962 321.124 41.61V41.181C321.124 40.829 321.014 40.565 320.794 40.389C320.574 40.213 320.27 40.125 319.881 40.125H318.297V42.655H319.881ZM324.761 47V39.322H325.685V46.197H329.326V47H324.761ZM331.4 47V46.263H333.314V40.059H331.4V39.322H336.152V40.059H334.238V46.263H336.152V47H331.4ZM341.065 47.132C340.126 47.132 339.426 46.791 338.964 46.109C338.509 45.427 338.282 44.4443 338.282 43.161C338.282 41.8777 338.509 40.895 338.964 40.213C339.426 39.531 340.126 39.19 341.065 39.19C341.417 39.19 341.721 39.2377 341.978 39.333C342.235 39.4283 342.455 39.5567 342.638 39.718C342.821 39.8793 342.975 40.0627 343.1 40.268C343.225 40.466 343.335 40.6677 343.43 40.873L342.638 41.236C342.572 41.0673 342.495 40.9097 342.407 40.763C342.319 40.609 342.213 40.477 342.088 40.367C341.971 40.2497 341.828 40.158 341.659 40.092C341.498 40.026 341.3 39.993 341.065 39.993C340.456 39.993 340.002 40.224 339.701 40.686C339.408 41.148 339.261 41.764 339.261 42.534V43.788C339.261 44.558 339.408 45.174 339.701 45.636C340.002 46.098 340.456 46.329 341.065 46.329C341.3 46.329 341.498 46.296 341.659 46.23C341.828 46.164 341.971 46.076 342.088 45.966C342.213 45.8487 342.319 45.7167 342.407 45.57C342.495 45.416 342.572 45.2547 342.638 45.086L343.43 45.449C343.335 45.6617 343.225 45.867 343.1 46.065C342.975 46.263 342.821 46.4427 342.638 46.604C342.455 46.7653 342.235 46.8937 341.978 46.989C341.721 47.0843 341.417 47.132 341.065 47.132ZM349.839 47L349.19 44.811H346.495L345.846 47H344.889L347.243 39.322H348.464L350.818 47H349.839ZM347.892 40.301H347.793L346.715 44.008H348.97L347.892 40.301ZM355.345 40.125V47H354.421V40.125H351.858V39.322H357.908V40.125H355.345ZM359.543 47V46.263H361.457V40.059H359.543V39.322H364.295V40.059H362.381V46.263H364.295V47H359.543ZM368.955 47.132C368.485 47.132 368.082 47.044 367.745 46.868C367.407 46.6847 367.129 46.4243 366.909 46.087C366.689 45.7497 366.527 45.3353 366.425 44.844C366.322 44.3527 366.271 43.7917 366.271 43.161C366.271 42.5377 366.322 41.9803 366.425 41.489C366.527 40.9903 366.689 40.5723 366.909 40.235C367.129 39.8977 367.407 39.641 367.745 39.465C368.082 39.2817 368.485 39.19 368.955 39.19C369.424 39.19 369.827 39.2817 370.165 39.465C370.502 39.641 370.781 39.8977 371.001 40.235C371.221 40.5723 371.382 40.9903 371.485 41.489C371.587 41.9803 371.639 42.5377 371.639 43.161C371.639 43.7917 371.587 44.3527 371.485 44.844C371.382 45.3353 371.221 45.7497 371.001 46.087C370.781 46.4243 370.502 46.6847 370.165 46.868C369.827 47.044 369.424 47.132 368.955 47.132ZM368.955 46.329C369.263 46.329 369.523 46.2703 369.736 46.153C369.948 46.0283 370.124 45.856 370.264 45.636C370.403 45.416 370.502 45.152 370.561 44.844C370.627 44.5287 370.66 44.1767 370.66 43.788V42.534C370.66 42.1527 370.627 41.8043 370.561 41.489C370.502 41.1737 370.403 40.906 370.264 40.686C370.124 40.466 369.948 40.2973 369.736 40.18C369.523 40.0553 369.263 39.993 368.955 39.993C368.647 39.993 368.386 40.0553 368.174 40.18C367.961 40.2973 367.785 40.466 367.646 40.686C367.506 40.906 367.404 41.1737 367.338 41.489C367.279 41.8043 367.25 42.1527 367.25 42.534V43.788C367.25 44.1767 367.279 44.5287 367.338 44.844C367.404 45.152 367.506 45.416 367.646 45.636C367.785 45.856 367.961 46.0283 368.174 46.153C368.386 46.2703 368.647 46.329 368.955 46.329ZM374.484 40.499H374.407V47H373.571V39.322H374.88L377.498 45.757H377.575V39.322H378.411V47H377.102L374.484 40.499Z" fill="#525252"/>
</g>
<g clip-path="url(#clip3_676_952)">
<rect width="855" height="48" transform="translate(23 62)" fill="#F3F3F3"/>
<mask id="path-9-inside-3_676_952" fill="white">
<path d="M23 62H290.333V110H23V62Z"/>
</mask>
<path d="M290.333 110V109H23V110V111H290.333V110Z" fill="#DFDFDF" mask="url(#path-9-inside-3_676_952)"/>
<path d="M35.28 88.046V87.402L36.652 87.094V88.032C36.652 89.348 37.366 89.936 38.36 89.936C39.368 89.936 39.984 89.278 39.984 88.13V81.074H41.356V88.032C41.356 89.768 40.222 91.21 38.374 91.21C36.428 91.21 35.28 89.95 35.28 88.046ZM46.4142 90.034C47.5342 90.034 48.5142 89.194 48.5142 87.626C48.5142 86.072 47.5342 85.232 46.4142 85.232C45.2942 85.232 44.3142 86.072 44.3142 87.626C44.3142 89.194 45.2942 90.034 46.4142 90.034ZM46.4142 84.056C48.4302 84.056 49.8582 85.582 49.8582 87.626C49.8582 89.684 48.4302 91.21 46.4142 91.21C44.3982 91.21 42.9702 89.684 42.9702 87.626C42.9702 85.582 44.3982 84.056 46.4142 84.056ZM52.8579 87.108V91H51.5419V84.266H52.8299V85.232C53.3199 84.392 54.1179 84.07 54.9019 84.07C56.5119 84.07 57.3099 85.232 57.3099 86.73V91H55.9939V86.954C55.9939 86.016 55.6019 85.26 54.4259 85.26C53.3899 85.26 52.8579 86.086 52.8579 87.108ZM73.7672 91H72.4092V83.272L69.0212 91H67.7612L64.4012 83.272V91H63.0432V81.074H64.9052L68.4052 89.152L71.9332 81.074H73.7672V91ZM77.0053 86.94H80.6873C80.6593 85.974 80.0293 85.218 78.8393 85.218C77.7333 85.218 77.0613 86.072 77.0053 86.94ZM80.8833 88.69L82.0173 89.082C81.6393 90.272 80.5613 91.21 78.9933 91.21C77.1873 91.21 75.6053 89.894 75.6053 87.612C75.6053 85.498 77.1313 84.056 78.8253 84.056C80.8973 84.056 82.0593 85.484 82.0593 87.584C82.0593 87.752 82.0453 87.92 82.0312 88.004H76.9633C76.9913 89.208 77.8593 90.048 78.9933 90.048C80.0853 90.048 80.6313 89.446 80.8833 88.69ZM85.2824 93.814H83.8404L85.5204 90.258L82.6224 84.266H84.1344L86.2344 88.914L88.2504 84.266H89.6644L85.2824 93.814ZM91.5111 86.94H95.1931C95.1651 85.974 94.5351 85.218 93.3451 85.218C92.2391 85.218 91.5671 86.072 91.5111 86.94ZM95.3891 88.69L96.5231 89.082C96.1451 90.272 95.0671 91.21 93.4991 91.21C91.6931 91.21 90.1111 89.894 90.1111 87.612C90.1111 85.498 91.6371 84.056 93.3311 84.056C95.4031 84.056 96.5651 85.484 96.5651 87.584C96.5651 87.752 96.5511 87.92 96.5371 88.004H91.4691C91.4971 89.208 92.3651 90.048 93.4991 90.048C94.5911 90.048 95.1371 89.446 95.3891 88.69ZM101.983 84.196V85.596C101.787 85.568 101.591 85.554 101.409 85.554C100.303 85.554 99.561 86.142 99.561 87.626V91H98.245V84.266H99.533V85.442C100.023 84.406 100.863 84.154 101.549 84.154C101.731 84.154 101.913 84.182 101.983 84.196ZM102.756 89.25L103.946 88.83C104.03 89.53 104.562 90.09 105.514 90.09C106.256 90.09 106.662 89.67 106.662 89.194C106.662 88.774 106.354 88.452 105.794 88.326L104.646 88.074C103.596 87.85 102.966 87.136 102.966 86.184C102.966 85.036 104.044 84.056 105.36 84.056C107.208 84.056 107.782 85.26 107.922 85.862L106.76 86.296C106.704 85.946 106.424 85.176 105.36 85.176C104.688 85.176 104.24 85.61 104.24 86.072C104.24 86.478 104.492 86.772 105.01 86.884L106.102 87.122C107.32 87.388 107.964 88.13 107.964 89.124C107.964 90.076 107.166 91.21 105.5 91.21C103.652 91.21 102.868 90.02 102.756 89.25Z" fill="#171717"/>
<mask id="path-12-inside-4_676_952" fill="white">
<path d="M290.333 62H557.667V110H290.333V62Z"/>
</mask>
<path d="M557.667 110V109H290.333V110V111H557.667V110Z" fill="#DFDFDF" mask="url(#path-12-inside-4_676_952)"/>
<path d="M310.467 91L309.389 88.228H304.993L303.943 91H302.473L306.421 81.074H308.003L311.951 91H310.467ZM307.177 82.502L305.483 86.954H308.899L307.177 82.502ZM314.531 91H313.215V80.864H314.531V91ZM318.086 91H316.77V80.864H318.086V91Z" fill="#171717"/>
</g>
<g clip-path="url(#clip4_676_952)">
<rect width="855" height="48" transform="translate(23 110)" fill="#EDEDED"/>
<mask id="path-15-inside-5_676_952" fill="white">
<path d="M23 110H290.333V158H23V110Z"/>
</mask>
<path d="M290.333 158V157H23V158V159H290.333V158Z" fill="#DFDFDF" mask="url(#path-15-inside-5_676_952)"/>
<path d="M40.558 139.21C37.996 139.21 35.63 137.348 35.63 134.03C35.63 130.712 38.094 128.864 40.558 128.864C42.826 128.864 44.422 130.096 44.926 132.014L43.652 132.462C43.274 130.964 42.182 130.124 40.558 130.124C38.752 130.124 37.03 131.44 37.03 134.03C37.03 136.62 38.752 137.95 40.558 137.95C42.252 137.95 43.316 136.928 43.722 135.57L44.94 136.018C44.408 137.88 42.84 139.21 40.558 139.21ZM47.7993 135.038V139H46.4833V128.864H47.7993V133.05C48.2893 132.336 49.0733 132.07 49.8433 132.07C51.4533 132.07 52.2513 133.232 52.2513 134.73V139H50.9353V134.954C50.9353 134.016 50.5433 133.26 49.3673 133.26C48.3593 133.26 47.8273 134.044 47.7993 135.038ZM58.0826 132.196V133.596C57.8866 133.568 57.6906 133.554 57.5086 133.554C56.4026 133.554 55.6606 134.142 55.6606 135.626V139H54.3446V132.266H55.6326V133.442C56.1226 132.406 56.9626 132.154 57.6486 132.154C57.8306 132.154 58.0126 132.182 58.0826 132.196ZM60.7872 139H59.4852V132.266H60.7872V139ZM59.1912 129.718C59.1912 129.186 59.6112 128.766 60.1292 128.766C60.6612 128.766 61.0812 129.186 61.0812 129.718C61.0812 130.236 60.6612 130.656 60.1292 130.656C59.6112 130.656 59.1912 130.236 59.1912 129.718ZM62.3963 137.25L63.5863 136.83C63.6703 137.53 64.2023 138.09 65.1543 138.09C65.8963 138.09 66.3023 137.67 66.3023 137.194C66.3023 136.774 65.9943 136.452 65.4343 136.326L64.2863 136.074C63.2363 135.85 62.6063 135.136 62.6063 134.184C62.6063 133.036 63.6843 132.056 65.0003 132.056C66.8483 132.056 67.4223 133.26 67.5623 133.862L66.4003 134.296C66.3443 133.946 66.0643 133.176 65.0003 133.176C64.3283 133.176 63.8803 133.61 63.8803 134.072C63.8803 134.478 64.1323 134.772 64.6503 134.884L65.7423 135.122C66.9603 135.388 67.6043 136.13 67.6043 137.124C67.6043 138.076 66.8063 139.21 65.1403 139.21C63.2923 139.21 62.5083 138.02 62.3963 137.25ZM83.7203 139H82.3623V131.272L78.9743 139H77.7143L74.3543 131.272V139H72.9963V129.074H74.8583L78.3583 137.152L81.8863 129.074H83.7203V139ZM85.616 137.194C85.616 135.99 86.498 135.318 87.66 135.15L89.48 134.884C89.886 134.828 89.998 134.618 89.998 134.38C89.998 133.722 89.564 133.176 88.542 133.176C87.618 133.176 87.1 133.75 87.016 134.534L85.756 134.24C85.896 132.952 87.058 132.056 88.514 132.056C90.53 132.056 91.314 133.204 91.314 134.52V137.894C91.314 138.482 91.37 138.832 91.398 139H90.11C90.082 138.832 90.04 138.58 90.04 138.09C89.746 138.566 89.074 139.21 87.87 139.21C86.498 139.21 85.616 138.258 85.616 137.194ZM88.052 138.104C89.13 138.104 89.998 137.586 89.998 136.116V135.808L87.94 136.116C87.38 136.2 86.96 136.522 86.96 137.124C86.96 137.628 87.38 138.104 88.052 138.104ZM97.1021 132.196V133.596C96.9061 133.568 96.7101 133.554 96.5281 133.554C95.4221 133.554 94.6801 134.142 94.6801 135.626V139H93.3641V132.266H94.6521V133.442C95.1421 132.406 95.9821 132.154 96.6681 132.154C96.8501 132.154 97.0321 132.182 97.1021 132.196ZM100.624 130.138V132.266H102.08V133.456H100.624V136.956C100.624 137.572 100.876 137.88 101.562 137.88C101.73 137.88 101.968 137.852 102.08 137.824V138.944C101.968 138.986 101.632 139.07 101.184 139.07C100.036 139.07 99.3082 138.37 99.3082 137.152V133.456H98.0202V132.266H98.3842C99.1122 132.266 99.4202 131.818 99.4202 131.23V130.138H100.624ZM105.139 139H103.837V132.266H105.139V139ZM103.543 129.718C103.543 129.186 103.963 128.766 104.481 128.766C105.013 128.766 105.433 129.186 105.433 129.718C105.433 130.236 105.013 130.656 104.481 130.656C103.963 130.656 103.543 130.236 103.543 129.718ZM108.694 135.108V139H107.378V132.266H108.666V133.232C109.156 132.392 109.954 132.07 110.738 132.07C112.348 132.07 113.146 133.232 113.146 134.73V139H111.83V134.954C111.83 134.016 111.438 133.26 110.262 133.26C109.226 133.26 108.694 134.086 108.694 135.108Z" fill="#171717"/>
<mask id="path-18-inside-6_676_952" fill="white">
<path d="M290.333 110H557.667V158H290.333V110Z"/>
</mask>
<path d="M557.667 158V157H290.333V158V159H557.667V158Z" fill="#DFDFDF" mask="url(#path-18-inside-6_676_952)"/>
<path d="M310.467 139L309.389 136.228H304.993L303.943 139H302.473L306.421 129.074H308.003L311.951 139H310.467ZM307.177 130.502L305.483 134.954H308.899L307.177 130.502ZM314.531 139H313.215V128.864H314.531V139ZM318.086 139H316.77V128.864H318.086V139Z" fill="#171717"/>
</g>
<g clip-path="url(#clip5_676_952)">
<rect width="855" height="48" transform="translate(23 158)" fill="#F3F3F3"/>
<mask id="path-21-inside-7_676_952" fill="white">
<path d="M23 158H290.333V206H23V158Z"/>
</mask>
<path d="M290.333 206V205H23V206V207H290.333V206Z" fill="#DFDFDF" mask="url(#path-21-inside-7_676_952)"/>
<path d="M43.134 187L42.056 184.228H37.66L36.61 187H35.14L39.088 177.074H40.67L44.618 187H43.134ZM39.844 178.502L38.15 182.954H41.566L39.844 178.502ZM47.1154 187H45.8134V180.266H47.0734V181.162C47.4934 180.42 48.3334 180.07 49.1174 180.07C49.9574 180.07 50.7694 180.476 51.1334 181.344C51.6654 180.378 52.5334 180.07 53.3874 180.07C54.5634 180.07 55.7114 180.868 55.7114 182.632V187H54.4094V182.772C54.4094 181.89 53.9754 181.232 52.9814 181.232C52.0574 181.232 51.4274 181.96 51.4274 182.926V187H50.1114V182.772C50.1114 181.904 49.6914 181.232 48.6834 181.232C47.7454 181.232 47.1154 181.932 47.1154 182.94V187ZM59.4973 189.814H58.0553L59.7353 186.258L56.8373 180.266H58.3493L60.4493 184.914L62.4653 180.266H63.8793L59.4973 189.814ZM68.1554 182.03C68.1554 178.712 70.6474 176.864 73.1394 176.864C75.6314 176.864 78.1234 178.712 78.1234 182.03C78.1234 183.598 77.5634 184.83 76.7234 185.698L77.8854 187L76.9474 187.826L75.7434 186.496C74.9594 186.972 74.0494 187.21 73.1394 187.21C70.6474 187.21 68.1554 185.348 68.1554 182.03ZM69.5554 182.03C69.5554 184.62 71.2914 185.95 73.1394 185.95C73.7554 185.95 74.3434 185.81 74.8754 185.516L73.1534 183.584L74.1054 182.758L75.8414 184.718C76.3734 184.074 76.7234 183.178 76.7234 182.03C76.7234 179.44 74.9874 178.124 73.1394 178.124C71.2914 178.124 69.5554 179.44 69.5554 182.03ZM84.308 186.188C83.944 186.888 83.104 187.21 82.32 187.21C80.752 187.21 79.8 186.034 79.8 184.508V180.266H81.116V184.312C81.116 185.236 81.536 186.048 82.642 186.048C83.706 186.048 84.238 185.348 84.238 184.326V180.266H85.554V185.754C85.554 186.286 85.596 186.762 85.624 187H84.364C84.336 186.846 84.308 186.468 84.308 186.188ZM88.5853 182.94H92.2673C92.2393 181.974 91.6093 181.218 90.4193 181.218C89.3133 181.218 88.6413 182.072 88.5853 182.94ZM92.4633 184.69L93.5973 185.082C93.2193 186.272 92.1413 187.21 90.5733 187.21C88.7673 187.21 87.1853 185.894 87.1853 183.612C87.1853 181.498 88.7113 180.056 90.4053 180.056C92.4773 180.056 93.6393 181.484 93.6393 183.584C93.6393 183.752 93.6253 183.92 93.6113 184.004H88.5433C88.5713 185.208 89.4393 186.048 90.5733 186.048C91.6653 186.048 92.2113 185.446 92.4633 184.69ZM101.353 180.266L98.4832 183.108L101.409 187H99.7572L97.5592 184.032L96.6212 184.97V187H95.3192V176.864H96.6212V183.248L99.5332 180.266H101.353Z" fill="#171717"/>
<mask id="path-24-inside-8_676_952" fill="white">
<path d="M290.333 158H557.667V206H290.333V158Z"/>
</mask>
<path d="M557.667 206V205H290.333V206V207H557.667V206Z" fill="#DFDFDF" mask="url(#path-24-inside-8_676_952)"/>
<path d="M311.755 187H310.327L304.965 178.908V187H303.593V177.074H305.427L310.383 184.69V177.074H311.755V187ZM317.015 186.034C318.135 186.034 319.115 185.194 319.115 183.626C319.115 182.072 318.135 181.232 317.015 181.232C315.895 181.232 314.915 182.072 314.915 183.626C314.915 185.194 315.895 186.034 317.015 186.034ZM317.015 180.056C319.031 180.056 320.459 181.582 320.459 183.626C320.459 185.684 319.031 187.21 317.015 187.21C314.999 187.21 313.571 185.684 313.571 183.626C313.571 181.582 314.999 180.056 317.015 180.056Z" fill="#171717"/>
</g>
<g clip-path="url(#clip6_676_952)">
<rect width="855" height="48" transform="translate(23 206)" fill="#F3F3F3"/>
<mask id="path-27-inside-9_676_952" fill="white">
<path d="M23 206H290.333V254H23V206Z"/>
</mask>
<path d="M290.333 254V253H23V254V255H290.333V254Z" fill="#DFDFDF" mask="url(#path-27-inside-9_676_952)"/>
<path d="M41.398 235L39.13 230.94H37.646V235H36.26V225.074H39.998C41.874 225.074 43.036 226.39 43.036 228.028C43.036 229.456 42.126 230.562 40.628 230.842L42.994 235H41.398ZM37.646 229.708H39.746C40.866 229.708 41.622 229.05 41.622 228.028C41.622 226.978 40.866 226.306 39.746 226.306H37.646V229.708ZM46.09 235H44.788V228.266H46.09V235ZM44.494 225.718C44.494 225.186 44.914 224.766 45.432 224.766C45.964 224.766 46.384 225.186 46.384 225.718C46.384 226.236 45.964 226.656 45.432 226.656C44.914 226.656 44.494 226.236 44.494 225.718ZM51.157 229.274C50.093 229.274 49.113 230.058 49.113 231.626C49.113 233.166 50.079 233.992 51.171 233.992C52.431 233.992 52.893 233.138 53.047 232.606L54.209 233.11C53.887 234.076 52.921 235.21 51.171 235.21C49.211 235.21 47.769 233.67 47.769 231.626C47.769 229.526 49.239 228.056 51.157 228.056C52.949 228.056 53.873 229.176 54.153 230.198L52.963 230.702C52.795 230.044 52.305 229.274 51.157 229.274ZM58.5125 229.274C57.4485 229.274 56.4685 230.058 56.4685 231.626C56.4685 233.166 57.4345 233.992 58.5265 233.992C59.7865 233.992 60.2485 233.138 60.4025 232.606L61.5645 233.11C61.2425 234.076 60.2765 235.21 58.5265 235.21C56.5665 235.21 55.1245 233.67 55.1245 231.626C55.1245 229.526 56.5945 228.056 58.5125 228.056C60.3045 228.056 61.2285 229.176 61.5085 230.198L60.3185 230.702C60.1505 230.044 59.6605 229.274 58.5125 229.274ZM62.6199 233.194C62.6199 231.99 63.5019 231.318 64.6639 231.15L66.4839 230.884C66.8899 230.828 67.0019 230.618 67.0019 230.38C67.0019 229.722 66.5679 229.176 65.5459 229.176C64.6219 229.176 64.1039 229.75 64.0199 230.534L62.7599 230.24C62.8999 228.952 64.0619 228.056 65.5179 228.056C67.5339 228.056 68.3179 229.204 68.3179 230.52V233.894C68.3179 234.482 68.3739 234.832 68.4019 235H67.1139C67.0859 234.832 67.0439 234.58 67.0439 234.09C66.7499 234.566 66.0779 235.21 64.8739 235.21C63.5019 235.21 62.6199 234.258 62.6199 233.194ZM65.0559 234.104C66.1339 234.104 67.0019 233.586 67.0019 232.116V231.808L64.9439 232.116C64.3839 232.2 63.9639 232.522 63.9639 233.124C63.9639 233.628 64.3839 234.104 65.0559 234.104ZM74.106 228.196V229.596C73.91 229.568 73.714 229.554 73.532 229.554C72.426 229.554 71.684 230.142 71.684 231.626V235H70.368V228.266H71.656V229.442C72.146 228.406 72.986 228.154 73.672 228.154C73.854 228.154 74.036 228.182 74.106 228.196ZM76.2243 231.612C76.2243 232.998 76.9383 234.02 78.1983 234.02C79.4023 234.02 80.1443 232.97 80.1443 231.584C80.1443 230.198 79.4163 229.246 78.2123 229.246C77.0083 229.246 76.2243 230.226 76.2243 231.612ZM80.1583 234.09V233.978C79.8363 234.622 79.1223 235.182 78.0723 235.182C76.0983 235.182 74.8803 233.614 74.8803 231.612C74.8803 229.708 76.1683 228.084 78.0723 228.084C79.2623 228.084 79.9063 228.672 80.1303 229.218V224.864H81.4323V233.754C81.4323 234.398 81.4883 234.888 81.5023 235H80.2283C80.2003 234.846 80.1583 234.496 80.1583 234.09ZM86.5548 234.034C87.6748 234.034 88.6548 233.194 88.6548 231.626C88.6548 230.072 87.6748 229.232 86.5548 229.232C85.4348 229.232 84.4548 230.072 84.4548 231.626C84.4548 233.194 85.4348 234.034 86.5548 234.034ZM86.5548 228.056C88.5708 228.056 89.9988 229.582 89.9988 231.626C89.9988 233.684 88.5708 235.21 86.5548 235.21C84.5388 235.21 83.1108 233.684 83.1108 231.626C83.1108 229.582 84.5388 228.056 86.5548 228.056ZM95.3225 225.074H98.5565C100.447 225.074 101.553 226.194 101.553 227.762C101.553 228.826 100.937 229.582 100.069 229.904C101.203 230.184 101.861 231.192 101.861 232.298C101.861 233.866 100.615 235 98.7945 235H95.3225V225.074ZM96.6945 229.414H98.4025C99.5085 229.414 100.167 228.756 100.167 227.832C100.167 226.894 99.4805 226.278 98.3465 226.278H96.6945V229.414ZM96.6945 233.796H98.5985C99.7045 233.796 100.461 233.18 100.461 232.214C100.461 231.262 99.8585 230.59 98.6545 230.59H96.6945V233.796ZM107.769 234.188C107.405 234.888 106.565 235.21 105.781 235.21C104.213 235.21 103.261 234.034 103.261 232.508V228.266H104.577V232.312C104.577 233.236 104.997 234.048 106.103 234.048C107.167 234.048 107.699 233.348 107.699 232.326V228.266H109.015V233.754C109.015 234.286 109.057 234.762 109.085 235H107.825C107.797 234.846 107.769 234.468 107.769 234.188ZM110.631 233.25L111.821 232.83C111.905 233.53 112.437 234.09 113.389 234.09C114.131 234.09 114.537 233.67 114.537 233.194C114.537 232.774 114.229 232.452 113.669 232.326L112.521 232.074C111.471 231.85 110.841 231.136 110.841 230.184C110.841 229.036 111.919 228.056 113.235 228.056C115.083 228.056 115.657 229.26 115.797 229.862L114.635 230.296C114.579 229.946 114.299 229.176 113.235 229.176C112.563 229.176 112.115 229.61 112.115 230.072C112.115 230.478 112.367 230.772 112.885 230.884L113.977 231.122C115.195 231.388 115.839 232.13 115.839 233.124C115.839 234.076 115.041 235.21 113.375 235.21C111.527 235.21 110.743 234.02 110.631 233.25ZM116.961 233.25L118.151 232.83C118.235 233.53 118.767 234.09 119.719 234.09C120.461 234.09 120.867 233.67 120.867 233.194C120.867 232.774 120.559 232.452 119.999 232.326L118.851 232.074C117.801 231.85 117.171 231.136 117.171 230.184C117.171 229.036 118.249 228.056 119.565 228.056C121.413 228.056 121.987 229.26 122.127 229.862L120.965 230.296C120.909 229.946 120.629 229.176 119.565 229.176C118.893 229.176 118.445 229.61 118.445 230.072C118.445 230.478 118.697 230.772 119.215 230.884L120.307 231.122C121.525 231.388 122.169 232.13 122.169 233.124C122.169 234.076 121.371 235.21 119.705 235.21C117.857 235.21 117.073 234.02 116.961 233.25ZM124.706 230.94H128.388C128.36 229.974 127.73 229.218 126.54 229.218C125.434 229.218 124.762 230.072 124.706 230.94ZM128.584 232.69L129.718 233.082C129.34 234.272 128.262 235.21 126.694 235.21C124.888 235.21 123.306 233.894 123.306 231.612C123.306 229.498 124.832 228.056 126.526 228.056C128.598 228.056 129.76 229.484 129.76 231.584C129.76 231.752 129.746 231.92 129.732 232.004H124.664C124.692 233.208 125.56 234.048 126.694 234.048C127.786 234.048 128.332 233.446 128.584 232.69ZM133.204 226.138V228.266H134.66V229.456H133.204V232.956C133.204 233.572 133.456 233.88 134.142 233.88C134.31 233.88 134.548 233.852 134.66 233.824V234.944C134.548 234.986 134.212 235.07 133.764 235.07C132.616 235.07 131.888 234.37 131.888 233.152V229.456H130.6V228.266H130.964C131.692 228.266 132 227.818 132 227.23V226.138H133.204ZM138.181 226.138V228.266H139.637V229.456H138.181V232.956C138.181 233.572 138.433 233.88 139.119 233.88C139.287 233.88 139.525 233.852 139.637 233.824V234.944C139.525 234.986 139.189 235.07 138.741 235.07C137.593 235.07 136.865 234.37 136.865 233.152V229.456H135.577V228.266H135.941C136.669 228.266 136.977 227.818 136.977 227.23V226.138H138.181ZM142.695 235H141.393V228.266H142.695V235ZM141.099 225.718C141.099 225.186 141.519 224.766 142.037 224.766C142.569 224.766 142.989 225.186 142.989 225.718C142.989 226.236 142.569 226.656 142.037 226.656C141.519 226.656 141.099 226.236 141.099 225.718Z" fill="#171717"/>
<mask id="path-30-inside-10_676_952" fill="white">
<path d="M290.333 206H557.667V254H290.333V206Z"/>
</mask>
<path d="M557.667 254V253H290.333V254V255H557.667V254Z" fill="#DFDFDF" mask="url(#path-30-inside-10_676_952)"/>
<path d="M311.755 235H310.327L304.965 226.908V235H303.593V225.074H305.427L310.383 232.69V225.074H311.755V235ZM317.015 234.034C318.135 234.034 319.115 233.194 319.115 231.626C319.115 230.072 318.135 229.232 317.015 229.232C315.895 229.232 314.915 230.072 314.915 231.626C314.915 233.194 315.895 234.034 317.015 234.034ZM317.015 228.056C319.031 228.056 320.459 229.582 320.459 231.626C320.459 233.684 319.031 235.21 317.015 235.21C314.999 235.21 313.571 233.684 313.571 231.626C313.571 229.582 314.999 228.056 317.015 228.056Z" fill="#171717"/>
</g>
<g clip-path="url(#clip7_676_952)">
<rect width="855" height="48" transform="translate(23 254)" fill="#F3F3F3"/>
<mask id="path-33-inside-11_676_952" fill="white">
<path d="M23 254H290.333V302H23V254Z"/>
</mask>
<path d="M290.333 302V301H23V302V303H290.333V302Z" fill="#DFDFDF" mask="url(#path-33-inside-11_676_952)"/>
<path d="M36.26 273.074H39.494C41.384 273.074 42.49 274.194 42.49 275.762C42.49 276.826 41.874 277.582 41.006 277.904C42.14 278.184 42.798 279.192 42.798 280.298C42.798 281.866 41.552 283 39.732 283H36.26V273.074ZM37.632 277.414H39.34C40.446 277.414 41.104 276.756 41.104 275.832C41.104 274.894 40.418 274.278 39.284 274.278H37.632V277.414ZM37.632 281.796H39.536C40.642 281.796 41.398 281.18 41.398 280.214C41.398 279.262 40.796 278.59 39.592 278.59H37.632V281.796ZM45.4642 278.94H49.1462C49.1182 277.974 48.4882 277.218 47.2982 277.218C46.1922 277.218 45.5202 278.072 45.4642 278.94ZM49.3422 280.69L50.4762 281.082C50.0982 282.272 49.0202 283.21 47.4522 283.21C45.6462 283.21 44.0642 281.894 44.0642 279.612C44.0642 277.498 45.5902 276.056 47.2842 276.056C49.3562 276.056 50.5182 277.484 50.5182 279.584C50.5182 279.752 50.5042 279.92 50.4902 280.004H45.4222C45.4502 281.208 46.3182 282.048 47.4522 282.048C48.5442 282.048 49.0902 281.446 49.3422 280.69ZM53.5141 279.108V283H52.1981V276.266H53.4861V277.232C53.9761 276.392 54.7741 276.07 55.5581 276.07C57.1681 276.07 57.9661 277.232 57.9661 278.73V283H56.6501V278.954C56.6501 278.016 56.2581 277.26 55.0821 277.26C54.0461 277.26 53.5141 278.086 53.5141 279.108ZM59.5695 283.364L60.8435 283.07C60.9415 284.008 61.6555 284.722 62.6775 284.722C64.0915 284.722 64.7355 283.994 64.7355 282.538V281.572C64.4135 282.188 63.6855 282.678 62.6775 282.678C60.8855 282.678 59.5835 281.32 59.5835 279.416C59.5835 277.596 60.8295 276.14 62.6775 276.14C63.7135 276.14 64.4135 276.532 64.7495 277.204V276.266H66.0515V282.496C66.0515 284.204 65.2115 285.87 62.6775 285.87C60.9975 285.87 59.7375 284.806 59.5695 283.364ZM62.8735 281.572C64.0075 281.572 64.7915 280.718 64.7915 279.416C64.7915 278.114 64.0075 277.26 62.8735 277.26C61.7115 277.26 60.9275 278.114 60.9275 279.416C60.9275 280.732 61.6835 281.572 62.8735 281.572ZM77.8272 283H71.7932V273.074H77.8272V274.348H73.1652V277.4H77.3932V278.688H73.1652V281.726H77.8272V283ZM84.0209 282.188C83.6569 282.888 82.8169 283.21 82.0329 283.21C80.4649 283.21 79.5129 282.034 79.5129 280.508V276.266H80.8289V280.312C80.8289 281.236 81.2489 282.048 82.3549 282.048C83.4189 282.048 83.9509 281.348 83.9509 280.326V276.266H85.2669V281.754C85.2669 282.286 85.3089 282.762 85.3369 283H84.0769C84.0489 282.846 84.0209 282.468 84.0209 282.188Z" fill="#171717"/>
<mask id="path-36-inside-12_676_952" fill="white">
<path d="M290.333 254H557.667V302H290.333V254Z"/>
</mask>
<path d="M557.667 302V301H290.333V302V303H557.667V302Z" fill="#DFDFDF" mask="url(#path-36-inside-12_676_952)"/>
<path d="M310.467 283L309.389 280.228H304.993L303.943 283H302.473L306.421 273.074H308.003L311.951 283H310.467ZM307.177 274.502L305.483 278.954H308.899L307.177 274.502ZM314.531 283H313.215V272.864H314.531V283ZM318.086 283H316.77V272.864H318.086V283Z" fill="#171717"/>
</g>
<g clip-path="url(#clip8_676_952)">
<rect width="855" height="48" transform="translate(23 302)" fill="#F3F3F3"/>
<mask id="path-39-inside-13_676_952" fill="white">
<path d="M23 302H290.333V350H23V302Z"/>
</mask>
<path d="M290.333 350V349H23V350V351H290.333V350Z" fill="#DFDFDF" mask="url(#path-39-inside-13_676_952)"/>
<path d="M43.148 322.348H39.83V331H38.458V322.348H35.14V321.074H43.148V322.348ZM45.1008 333.814H43.6588L45.3388 330.258L42.4408 324.266H43.9528L46.0528 328.914L48.0688 324.266H49.4828L45.1008 333.814ZM52.0649 331H50.7489V320.864H52.0649V331ZM55.1576 326.94H58.8396C58.8116 325.974 58.1816 325.218 56.9916 325.218C55.8856 325.218 55.2136 326.072 55.1576 326.94ZM59.0356 328.69L60.1696 329.082C59.7916 330.272 58.7136 331.21 57.1456 331.21C55.3396 331.21 53.7576 329.894 53.7576 327.612C53.7576 325.498 55.2836 324.056 56.9776 324.056C59.0496 324.056 60.2116 325.484 60.2116 327.584C60.2116 327.752 60.1976 327.92 60.1836 328.004H55.1156C55.1436 329.208 56.0116 330.048 57.1456 330.048C58.2376 330.048 58.7836 329.446 59.0356 328.69ZM65.6295 324.196V325.596C65.4335 325.568 65.2375 325.554 65.0555 325.554C63.9495 325.554 63.2075 326.142 63.2075 327.626V331H61.8915V324.266H63.1795V325.442C63.6695 324.406 64.5095 324.154 65.1955 324.154C65.3775 324.154 65.5595 324.182 65.6295 324.196ZM78.4841 331H77.1121V326.59H72.0441V331H70.6721V321.074H72.0441V325.316H77.1121V321.074H78.4841V331ZM82.17 331H80.868V324.266H82.17V331ZM80.574 321.718C80.574 321.186 80.994 320.766 81.512 320.766C82.044 320.766 82.464 321.186 82.464 321.718C82.464 322.236 82.044 322.656 81.512 322.656C80.994 322.656 80.574 322.236 80.574 321.718ZM85.7251 331H84.4091V320.864H85.7251V331ZM89.2798 331H87.9638V320.864H89.2798V331ZM92.3724 326.94H96.0544C96.0264 325.974 95.3964 325.218 94.2064 325.218C93.1004 325.218 92.4284 326.072 92.3724 326.94ZM96.2504 328.69L97.3844 329.082C97.0064 330.272 95.9284 331.21 94.3604 331.21C92.5544 331.21 90.9724 329.894 90.9724 327.612C90.9724 325.498 92.4984 324.056 94.1924 324.056C96.2644 324.056 97.4264 325.484 97.4264 327.584C97.4264 327.752 97.4124 327.92 97.3984 328.004H92.3304C92.3584 329.208 93.2264 330.048 94.3604 330.048C95.4524 330.048 95.9984 329.446 96.2504 328.69ZM102.844 324.196V325.596C102.648 325.568 102.452 325.554 102.27 325.554C101.164 325.554 100.422 326.142 100.422 327.626V331H99.1063V324.266H100.394V325.442C100.884 324.406 101.724 324.154 102.41 324.154C102.592 324.154 102.774 324.182 102.844 324.196ZM106.132 333.814H104.69L106.37 330.258L103.472 324.266H104.984L107.084 328.914L109.1 324.266H110.514L106.132 333.814Z" fill="#171717"/>
<mask id="path-42-inside-14_676_952" fill="white">
<path d="M290.333 302H557.667V350H290.333V302Z"/>
</mask>
<path d="M557.667 350V349H290.333V350V351H557.667V350Z" fill="#DFDFDF" mask="url(#path-42-inside-14_676_952)"/>
<path d="M310.467 331L309.389 328.228H304.993L303.943 331H302.473L306.421 321.074H308.003L311.951 331H310.467ZM307.177 322.502L305.483 326.954H308.899L307.177 322.502ZM314.531 331H313.215V320.864H314.531V331ZM318.086 331H316.77V320.864H318.086V331Z" fill="#171717"/>
</g>
</g>
<rect x="23.5" y="24.5" width="854" height="325" rx="3.5" stroke="#DFDFDF"/>
<rect y="-50" width="458" height="457" fill="url(#paint0_linear_676_952)"/>
</g>
<defs>
<linearGradient id="paint0_linear_676_952" x1="229" y1="-50" x2="229" y2="358" gradientUnits="userSpaceOnUse">
<stop stop-color="#FCFCFC" stop-opacity="0"/>
<stop offset="1" stop-color="#FCFCFC"/>
</linearGradient>
<clipPath id="clip0_676_952">
<rect width="458" height="407" fill="white"/>
</clipPath>
<clipPath id="clip1_676_952">
<rect x="23" y="24" width="855" height="326" rx="4" fill="white"/>
</clipPath>
<clipPath id="clip2_676_952">
<rect width="855" height="38" fill="white" transform="translate(23 24)"/>
</clipPath>
<clipPath id="clip3_676_952">
<rect width="855" height="48" fill="white" transform="translate(23 62)"/>
</clipPath>
<clipPath id="clip4_676_952">
<rect width="855" height="48" fill="white" transform="translate(23 110)"/>
</clipPath>
<clipPath id="clip5_676_952">
<rect width="855" height="48" fill="white" transform="translate(23 158)"/>
</clipPath>
<clipPath id="clip6_676_952">
<rect width="855" height="48" fill="white" transform="translate(23 206)"/>
</clipPath>
<clipPath id="clip7_676_952">
<rect width="855" height="48" fill="white" transform="translate(23 254)"/>
</clipPath>
<clipPath id="clip8_676_952">
<rect width="855" height="48" fill="white" transform="translate(23 302)"/>
</clipPath>
</defs>
</svg>
