<svg xmlns="http://www.w3.org/2000/svg" width="349" height="174" fill="none" viewBox="0 0 349 174"><g clip-path="url(#a)"><path fill="#121516" d="M0 0h349v174H0z"/><g clip-path="url(#b)"><mask id="c" width="754" height="206" x="-372" y="0" maskUnits="userSpaceOnUse" style="mask-type:luminance"><path fill="#fff" d="M381.525 0H-371.49v205.009h753.015z"/></mask><g mask="url(#c)"><path fill="#121516" d="M381.525 0H-371.49v205.009h753.015z"/><path stroke="#575e61" stroke-linecap="round" stroke-width=".493" d="M29.803 37.346h482.789M90.014 37.346h23.951c8.831 0 17.2 3.947 22.817 10.762l11.7 14.193a31.54 31.54 0 0 0 24.338 11.48h31.819"/><path stroke="#575e61" stroke-linecap="round" stroke-width=".493" d="M89.768 37.345h18.546a21.68 21.68 0 0 1 17.968 9.548l27.695 41.005a30.26 30.26 0 0 0 25.075 13.323h250.93M184.388 101.222h17.261c7.9 0 15.174 4.296 18.988 11.213l28.331 51.38a30.26 30.26 0 0 0 26.497 15.647h249.136"/><path stroke="url(#d)" stroke-linecap="round" stroke-width=".493" d="M184.388 101.222h17.261c7.9 0 15.174 4.296 18.988 11.213l6.212 11.267"/><path fill="#191d1e" d="M317.023 64.066H213.197c-5.387 0-9.754 4.367-9.754 9.755 0 5.387 4.367 9.754 9.754 9.754h103.826c5.387 0 9.755-4.367 9.755-9.754 0-5.388-4.368-9.755-9.755-9.755"/><path stroke="#172021" stroke-width=".493" d="M317.023 64.066H213.197c-5.387 0-9.754 4.367-9.754 9.755 0 5.387 4.367 9.754 9.754 9.754h103.826c5.387 0 9.755-4.367 9.755-9.754 0-5.388-4.368-9.755-9.755-9.755Z"/><path fill="#ededed" d="M229.583 76.284v-5.51h3.465v.81h-2.505v1.578h2.129v.81h-2.129v2.312zm5.281 0v-5.51h3.482v.81h-2.522v1.428h2.138v.81h-2.138v1.644h2.605v.818zm4.723 0 1.77-5.51h1.126l1.771 5.51h-1.02l-.425-1.502h-1.812l-.434 1.502zm1.619-2.262h1.395l-.193-.684a77 77 0 0 1-.492-1.812h-.034a51 51 0 0 1-.484 1.812zm5.649 2.262v-4.7h-1.712v-.81h4.399v.81h-1.72v4.7zm3.711.31 3.573-6.237h.826l-3.581 6.236zm5.74-.31v-5.51h.976l1.47 3.123.51 1.169h.024c-.041-.568-.133-1.26-.133-1.87v-2.421h.918v5.51h-.985l-1.461-3.131-.509-1.16h-.025c.042.584.133 1.243.133 1.853v2.437zm5.673 0v-5.51h3.481v.81h-2.52v1.428h2.137v.81h-2.137v1.644h2.604v.818zm5.39 0-.785-5.518h.976l.31 3.206c.017.468.05.927.075 1.386h.025c.1-.46.217-.927.317-1.386l.476-1.786h.618l.467 1.786c.092.45.217.918.317 1.386h.034l.075-1.386.293-3.206h.909l-.743 5.518h-1.027l-.484-2.036a15 15 0 0 1-.175-1.019h-.025c-.05.326-.108.685-.184 1.019l-.459 2.036zm5.231-2.412v-.693h3.715v.693zm5.365 2.412v-5.51h1.026l.76 2.154.267.827h.033l.251-.826.759-2.154h1.028v5.51h-.819v-2.48c0-.526.075-1.561.126-2.079h-.034l-.418 1.344-.693 1.729h-.467l-.702-1.729-.417-1.344h-.024c.041.518.125 1.553.125 2.08v2.478zm5.999 0v-5.51h3.481v.81h-2.521v1.428h2.138v.81h-2.138v1.644h2.605v.818zm5.139 0v-5.51h1.027l.76 2.154.267.827h.034l.25-.826.76-2.154h1.026v5.51h-.818v-2.48c0-.526.076-1.561.125-2.079h-.033l-.417 1.344-.693 1.729h-.467l-.702-1.729-.417-1.344h-.026c.043.518.125 1.553.125 2.08v2.478zm5.909 0v-5.51h1.603c1.118 0 1.936.343 1.936 1.353 0 .518-.308 1.027-.952 1.202v.034c.794.133 1.228.55 1.228 1.302 0 1.102-.877 1.62-2.07 1.62zm.96-3.222h.551c.768 0 1.085-.3 1.085-.818 0-.51-.351-.718-1.06-.718h-.576zm0 2.471h.684c.802 0 1.227-.3 1.227-.927 0-.592-.409-.851-1.227-.851h-.684zm4.555.751v-5.51h3.481v.81h-2.521v1.428h2.136v.81h-2.136v1.644h2.605v.818zm5.256 0v-5.51h1.819c1.127 0 2.004.401 2.004 1.629 0 .834-.435 1.344-1.094 1.57l1.311 2.311h-1.085l-1.186-2.162h-.809v2.162zm.96-2.938h.759c.752 0 1.152-.317 1.152-.943 0-.643-.4-.86-1.152-.86h-.759zm6.274 3.039a2.9 2.9 0 0 1-2.029-.81l.56-.66c.409.376.951.635 1.486.635.676 0 1.018-.284 1.018-.726 0-.46-.367-.602-.91-.819l-.743-.325c-.584-.226-1.177-.66-1.177-1.461 0-.877.785-1.544 1.895-1.544.676 0 1.303.258 1.753.7l-.5.61c-.368-.3-.744-.476-1.253-.476-.568 0-.918.242-.918.66 0 .434.442.584.935.785l.718.308c.693.284 1.185.685 1.185 1.486 0 .894-.743 1.637-2.02 1.637"/><path stroke="#575e61" stroke-linecap="round" stroke-linejoin="round" stroke-width=".696" d="M214.674 69.299v5.681M220.24 72.14c.768 0 1.391-.636 1.391-1.42 0-.785-.623-1.421-1.391-1.421-.769 0-1.392.636-1.392 1.42 0 .785.623 1.42 1.392 1.42M214.674 77.821c.769 0 1.392-.636 1.392-1.42 0-.785-.623-1.42-1.392-1.42-.767 0-1.39.635-1.39 1.42s.623 1.42 1.39 1.42M220.24 72.14a4.3 4.3 0 0 1-1.222 3.013 4.14 4.14 0 0 1-2.952 1.248"/><path stroke="url(#e)" stroke-linecap="round" stroke-width=".493" d="M89.768 37.345h18.546a21.68 21.68 0 0 1 17.968 9.548l27.695 41.005a30.26 30.26 0 0 0 25.075 13.323h117.426"/><path stroke="url(#f)" stroke-linecap="round" stroke-width=".493" d="M79.432 37.346h34.533c8.831 0 17.2 3.947 22.817 10.762l11.7 14.193a31.54 31.54 0 0 0 24.338 11.48h6.953"/><path fill="#191d1e" d="M74.011 27.844H34.586a9.61 9.61 0 0 0-9.61 9.61 9.61 9.61 0 0 0 9.61 9.61h39.425a9.61 9.61 0 0 0 9.61-9.61 9.61 9.61 0 0 0-9.61-9.61"/><path stroke="#172021" stroke-width=".493" d="M74.011 27.844H34.586a9.61 9.61 0 0 0-9.61 9.61 9.61 9.61 0 0 0 9.61 9.61h39.425a9.61 9.61 0 0 0 9.61-9.61 9.61 9.61 0 0 0-9.61-9.61Z"/><path fill="#ededed" d="M51.704 39.918v-5.51h1.027l.758 2.154.268.826h.033l.25-.826.76-2.154h1.027v5.51h-.818v-2.48c0-.525.075-1.56.126-2.078H55.1l-.418 1.344-.692 1.728h-.468l-.7-1.728-.419-1.344h-.024c.041.517.125 1.553.125 2.078v2.48zm5.298 0 1.77-5.51H59.9l1.77 5.51H60.65l-.426-1.503h-1.811l-.434 1.503zm1.62-2.262h1.394l-.192-.685a78 78 0 0 1-.493-1.811h-.033c-.15.609-.318 1.227-.484 1.811zm4.337 2.262V39.1h1.311v-3.882h-1.31v-.81h3.598v.81h-1.32V39.1h1.32v.818zm5.34 0v-5.51h.976l1.47 3.122.51 1.169h.024c-.041-.568-.133-1.26-.133-1.87v-2.42h.918v5.509h-.985l-1.46-3.13-.51-1.161h-.025c.041.584.133 1.244.133 1.853v2.438z"/><mask id="g" width="12" height="13" x="32" y="31" maskUnits="userSpaceOnUse" style="mask-type:luminance"><path fill="#fff" d="M43.746 31.664h-11.13v11.362h11.13z"/></mask><g mask="url(#g)"><path stroke="#575e61" stroke-linecap="round" stroke-linejoin="round" stroke-width=".696" d="M38.18 42.08s3.71-1.894 3.71-4.735v-3.314l-3.71-1.42-3.71 1.42v3.314c0 2.84 3.71 4.735 3.71 4.735"/></g></g></g></g><defs><linearGradient id="d" x1="226.849" x2="191.225" y1="112.463" y2="101.223" gradientUnits="userSpaceOnUse"><stop stop-color="#fff"/><stop offset="1" stop-color="#fff" stop-opacity="0"/></linearGradient><linearGradient id="e" x1="296.478" x2="135.879" y1="101.221" y2="69.283" gradientUnits="userSpaceOnUse"><stop stop-color="#fff"/><stop offset="1" stop-color="#fff" stop-opacity="0"/></linearGradient><linearGradient id="f" x1="177.405" x2=".89" y1="73.781" y2="17.761" gradientUnits="userSpaceOnUse"><stop stop-color="#fff"/><stop offset="1" stop-color="#53595c"/></linearGradient><clipPath id="a"><path fill="#fff" d="M0 0h349v174H0z"/></clipPath><clipPath id="b"><path fill="#fff" d="M-372 0h754v205.009h-754z"/></clipPath></defs></svg>