<svg xmlns="http://www.w3.org/2000/svg" width="1369" height="399" fill="none" viewBox="0 0 1369 399"><g clip-path="url(#a)"><path fill="#030a0c" d="M.64.926h1368v398H.64z"/><g filter="url(#b)"><path fill="#7032bf" fill-opacity=".1" d="M692.845-78.715c-36.02 18.175-21.067 62.068-55.268 101.092-30.412 34.7-112.199 62.985-112.199 105.099 0 68.173 286.365 41.366 445.606 69.233 289.126 57.228 225.926 175.667 325.886-25.314 9.78-22.081 63.62-136.239-264.46-136.238-174.692 0-257.777-149.84-339.565-113.872"/></g><g filter="url(#c)"><path fill="#080316" d="M837.396 123.036c-24.501 37.852 15.974 91.354 163.694 56.989 101.96-23.719 172.69 89.527 244.45 70.121 101.91-27.56 136.07-140.959 121.17-237.273-13.81-89.242-159.76-127.5-175.28-56.924-23.69 107.785-79.46 103.49-137.66 107.027-64.002 3.89-44.98 46.926-78.164 44.211-63.506-5.195-121.131-10.536-138.21 15.849"/></g><g filter="url(#d)"><path fill="#a91bec" fill-opacity=".1" d="M967.78 147.213c-3.022-39.49 113.6-66.257 194.17-72.424 80.57-6.166 105.8 19.538 108.82 59.028 3.02 39.491-1.13 72.717-131.85 25.528-72.32-24.329-168.117 27.359-171.14-12.132"/></g><circle cx="704.256" cy="58.423" r="1.957" fill="#cacbdc" fill-opacity=".15" transform="rotate(-112.296 704.256 58.423)"/><circle cx="578.064" cy="139.541" r="1.957" fill="#cacbdc" fill-opacity=".15" transform="rotate(-112.296 578.064 139.541)"/><circle cx="607.67" cy="124.013" r="1.957" fill="#cacbdc" fill-opacity=".15" transform="rotate(-112.296 607.67 124.013)"/><circle cx="405.732" cy="118.365" r="1.957" fill="#cacbdc" fill-opacity=".15" transform="rotate(-112.296 405.732 118.365)"/><circle cx="814.041" cy="8.392" r="1.957" fill="#cacbdc" fill-opacity=".15" transform="rotate(-112.296 814.041 8.392)"/><circle cx="661.006" cy="55.205" r="1.957" fill="#cacbdc" fill-opacity=".15" transform="rotate(-112.296 661.006 55.205)"/><circle cx="688.642" cy="42.839" r="1.004" fill="#cacbdc" fill-opacity=".15" transform="rotate(-112.296 688.642 42.839)"/><g filter="url(#e)"><circle cx="641.992" cy="153.702" r="1.004" fill="#fff" fill-opacity=".41" shape-rendering="crispEdges" transform="rotate(-65.668 641.992 153.702)"/></g><circle cx="675.239" cy="50.511" r="1.004" fill="#cacbdc" fill-opacity=".15" transform="rotate(-112.296 675.239 50.51)"/><circle cx="689.454" cy="82.538" r="1.004" fill="#cacbdc" fill-opacity=".15" transform="rotate(-34.433 689.454 82.538)"/><circle cx="658.95" cy="62.358" r="1.004" fill="#cacbdc" fill-opacity=".15" transform="rotate(-112.296 658.95 62.358)"/><circle cx="683.771" cy="65.53" r="1.004" fill="#cacbdc" fill-opacity=".15" transform="rotate(-34.433 683.771 65.53)"/><g filter="url(#f)"><circle cx="627.93" cy="64.459" r="1.004" fill="#fff" fill-opacity=".41" shape-rendering="crispEdges" transform="rotate(-143.532 627.93 64.46)"/></g><g filter="url(#g)"><circle cx="666.969" cy="86.479" r="1.004" fill="#fff" fill-opacity=".41" shape-rendering="crispEdges" transform="rotate(-143.532 666.969 86.479)"/></g><g filter="url(#h)"><circle cx="418.93" cy="123.436" r="1.004" fill="#fff" fill-opacity=".41" shape-rendering="crispEdges" transform="rotate(-143.532 418.93 123.436)"/></g><circle cx="1.957" cy="1.957" r="1.957" fill="#cacbdc" fill-opacity=".15" transform="rotate(129.817 552.58 374.382)scale(-1 1)"/><circle cx="1.957" cy="1.957" r="1.957" fill="#cacbdc" fill-opacity=".15" transform="rotate(129.817 573.53 454.51)scale(-1 1)"/><circle cx="1.957" cy="1.957" r="1.957" fill="#cacbdc" fill-opacity=".15" transform="rotate(129.817 567.304 437.134)scale(-1 1)"/><circle cx="1.957" cy="1.957" r="1.957" fill="#cacbdc" fill-opacity=".15" transform="rotate(129.817 526.67 313.014)scale(-1 1)"/><circle cx="1.957" cy="1.957" r="1.957" fill="#cacbdc" fill-opacity=".15" transform="rotate(129.817 552.652 310.514)scale(-1 1)"/><circle cx="1.957" cy="1.957" r="1.957" fill="#cacbdc" fill-opacity=".15" transform="rotate(129.817 571.356 389.241)scale(-1 1)"/><circle cx="1.004" cy="1.004" r="1.004" fill="#cacbdc" fill-opacity=".15" transform="rotate(129.817 565 373.184)scale(-1 1)"/><g filter="url(#i)"><circle cx="1.004" cy="1.004" r="1.004" fill="#fff" fill-opacity=".41" shape-rendering="crispEdges" transform="rotate(83.19 439.904 833.705)scale(-1 1)"/></g><circle cx="1.004" cy="1.004" r="1.004" fill="#cacbdc" fill-opacity=".15" transform="rotate(129.817 567.582 381.313)scale(-1 1)"/><circle cx="1.004" cy="1.004" r="1.004" fill="#cacbdc" fill-opacity=".15" transform="rotate(51.954 380.826 1340.76)scale(-1 1)"/><circle cx="1.004" cy="1.004" r="1.004" fill="#cacbdc" fill-opacity=".15" transform="rotate(129.817 569.768 392.215)scale(-1 1)"/><circle cx="1.004" cy="1.004" r="1.004" fill="#cacbdc" fill-opacity=".15" transform="rotate(51.954 400.984 1344.323)scale(-1 1)"/><circle cx="1.004" cy="1.004" r="1.004" fill="#cacbdc" fill-opacity=".15" transform="rotate(51.954 469.373 1216.654)scale(-1 1)"/><circle cx="1.004" cy="1.004" r="1.004" fill="#cacbdc" fill-opacity=".15" transform="rotate(51.954 509.483 1269.719)scale(-1 1)"/><circle cx="1.004" cy="1.004" r="1.004" fill="#cacbdc" fill-opacity=".15" transform="rotate(51.954 574.784 1191.44)scale(-1 1)"/><circle cx="1.004" cy="1.004" r="1.004" fill="#cacbdc" fill-opacity=".15" transform="rotate(51.954 480.6 1139.451)scale(-1 1)"/><g filter="url(#j)"><circle cx="1.004" cy="1.004" r="1.004" fill="#fff" fill-opacity=".41" shape-rendering="crispEdges" transform="rotate(161.053 613.935 213.934)scale(-1 1)"/></g><g filter="url(#k)"><circle cx="1.004" cy="1.004" r="1.004" fill="#fff" fill-opacity=".41" shape-rendering="crispEdges" transform="rotate(161.053 591.234 214.897)scale(-1 1)"/></g><g filter="url(#l)"><circle cx="1.004" cy="1.004" r="1.004" fill="#fff" fill-opacity=".41" shape-rendering="crispEdges" transform="rotate(161.053 563.874 120.183)scale(-1 1)"/></g><g filter="url(#m)" style="mix-blend-mode:overlay"><ellipse cx="1188.68" cy="201.276" fill="#c448f0" fill-opacity=".9" rx="292.389" ry="135.82" transform="rotate(9.49 1188.68 201.276)"/></g><g filter="url(#n)" opacity=".71"><ellipse cx="1263.33" cy="108.916" fill="url(#o)" rx="402.158" ry="238.4"/></g><mask id="p" width="668" height="667" x="506" y="112" maskUnits="userSpaceOnUse" style="mask-type:alpha"><circle cx="333.175" cy="333.175" r="333.175" fill="#6e2ca5" transform="rotate(135 230.165 632.364)scale(-1 1)"/></mask><g mask="url(#p)"><circle cx="333.175" cy="333.175" r="332.499" fill="#9a38e8" stroke="url(#q)" stroke-width="1.352" transform="rotate(135 230.165 632.364)scale(-1 1)"/><g filter="url(#r)"><circle cx="360.454" cy="360.454" r="360.454" fill="url(#s)" transform="rotate(135 189.196 659.729)scale(-1 1)"/></g></g><path stroke="url(#t)" stroke-linecap="round" stroke-linejoin="round" stroke-width=".338" d="m1003.16 587.96-51.152 22.656m51.152-22.656-35.228-25.594m35.228 25.594 11.65-48.317m-11.65 48.317 45.11-25.559m-45.11 25.559 32.7 23.168m-32.7-23.168-16.776 48.933-21.459 45.106m-12.917-71.383 15.924-48.25m-15.924 48.25-53.237 17.906m53.237-17.906-34.546-28.225m34.546 28.225-19.75 46.78m19.75-46.78 34.376 26.243m-18.452-74.493-50.47 20.025m50.47-20.025-34.786-25.764m34.786 25.764 11.789-46.062m-11.789 46.062 46.878-22.723m-41.718 209.878-3.691.786-11.652 5.331m15.343-6.117 8.509-4.784 24.299-11.071m-32.808 15.855 32.808-15.855m-32.808 15.855-12.95 4.647M557.401 619.671l-16.334-30.002-5.842-15.035m22.176 45.037 30.378 42.372m-30.378-42.372 8.919 11.721 21.459 30.651m-30.378-42.372-22.176-45.037m22.176 45.037-1.98-17.085m1.98 17.085 25.39 28.772m558.389-62.396 10.08-23.578m-10.08 23.578 15.24-41.416m-15.24 41.416-2.53-7.484m6.8-263.731-12.92-26.961 5.92 13.395m7 13.566 16.13 46.131m-16.13-46.131 5.81 15.377m-5.81-15.377-11.07-11.823-1.91 20.605m12.98-8.782 6.36 30.754m-6.36-30.754-20.13-39.057m-54.33 406.566-22.76 22.86m22.76-22.86 11.62-9.192m-11.62 9.192 29.83-31.198m-29.83 31.198-37.76 29.352m37.76-29.352 23.96-33.351m-23.96 33.351-10.8-1.64m-11.96 24.5-42.33 28.465m42.33-28.465 34.38-32.052m-34.38 32.052-15 6.492m49.38-38.544 26.17-32.565m-26.17 32.565 18.21-22.006m-99.37-492.541 8.99 1.196m-8.99-1.196-36.525-21.186m36.525 21.186 41.83 24.945m-41.83-24.945-48.963-18.896m48.963 18.896 31.48 28.02m-31.48-28.02-13.699 6.595m22.689-5.399 32.84 23.749m-32.84-23.749 37.72 27.097m-37.72-27.097-45.515-22.382m-443.231 217.43-.376.683.717-2.118m-9.398 119.188-1.606 20.298m1.606-20.298-4.818-34.239m4.818 34.239 13.19 32.838m-13.19-32.838 7.552 53.512M1076.39 211.43l31.2 36.222-9.26-8.611m-21.94-27.611-28.23-24.535m28.23 24.535-22.69-19.101-5.53-5.433.27.991-5.16-4.34m33.11 27.883 21.94 27.611m-21.94-27.611-6.46.752m38.85 428.402-.88.82m.88-.82 14.32-20.092m-14.32 20.092 1.75-2.802m-1.75 2.802.38-.957M826.738 113.292l49.138 1.64m-49.138-1.64-49.309 6.287m49.309-6.287-13.941 5.672m13.941-5.672 35.333 3.382m13.805-1.742-13.805 1.742m13.805-1.742 38.237 7.654m-6.664 646.72 15.514-1.845m-15.514 1.845 32.735-15.241m-32.735 15.241 50.3-13.668m-50.3 13.668-16.231-5.262m16.231 5.262-48.659 5.467m48.659-5.467-34.239 7.244m-209.194-50.3-3.246-2.289m508.53-278.289 3.01 19.956m-3.01-19.956-5.16-51.666m5.16 51.666-2.83 51.359m2.83-51.359 1.81-33.316m-1.81 33.316-11.24-20.707m11.24 20.707-9.98 34.274m12.99-14.318-5.84 31.403m5.84-31.403-7.18 51.154 1.34-19.751m5.84-31.403-1.2-53.272m-4.64 84.675-10.05 47.6m10.05-47.6-7.15-17.085m7.15 17.085-14.18 35.265M793.831 773.714l-1.845-.068m-14.557-654.067-35.47 8.782m35.47-8.782 35.368-.615m-35.368.615-13.839 10.217m13.839-10.217-50.71 15.137m15.24-6.355-15.24 6.355m15.24-6.355-49.958 19.545m-132.309 120.59-1.025 2.768m1.025-2.768-4.169 7.757m4.169-7.757-12.643 21.152m12.643-21.152 15.614-23.339m-15.614 23.339 2.085-1.982m-2.085 1.982 5.433-7.278m584.115 64.446 2.02 4.545m0 0-.92-1.401m.92 1.401 10.32 30.754m-10.32-30.754-.07.991m.07-.991 1.47 5.433M588.429 230.19l.615-1.059m0 0-2.118 2.802m2.118-2.802 2.665-2.597m-2.665 2.597.581-.239m455.665-43.637 2.87 1.64m-511.67 124.93 4.784-8.919m320.797-186.232-49.274 2.29m49.274-2.29 52.042 5.912m-52.042-5.912 37.656 12.37m-37.656-12.37-14.522 10.354m89.288 2.187-10.798-4.169m174.781 526.097 22.28-30.651m0 0 18.08-34.445-20.16 31.13m2.08 3.315-2.08-3.315M779.991 771.971l46.848 5.912m-46.848-5.912-36.596-8.338m36.596 8.338 34.651 1.606m-34.651-1.606-46.061-13.326m46.061 13.326-10.011-7.654m56.859 13.566 46.371-1.333m-46.371 1.333-12.197-4.306m12.197 4.306 31.951-3.11m14.42 1.777 49.924-9.124m-49.924 9.124-14.42-1.777m64.344-7.347 27.61-9.875m-27.61 9.875 34.615-11.788m-307.573-39.16-25.799-18.179m0 0 32.872 24.09m-32.872-24.09-6.664-8.85m6.664 8.85-36.596-36.256 29.932 27.406m39.536 32.94 40.493 23.681m-40.493-23.681 37.623 16.983m-37.623-16.983-2.563-11.55m2.563 11.55-39.536-32.94m80.029 56.621 45.653 17.563m-45.653-17.563 36.188 12.575m-36.188-12.575-2.87-6.698m48.523 24.261-9.465-4.988M522.855 544.461l12.37 30.173m-12.37-30.173-11.823-51.53m11.823 51.53-2.665-18.35m15.035 48.523 1.4-18.76m-1.4 18.76-15.035-48.523m15.035 48.523 20.194 27.952-18.794-46.712m614.635 6.595 5.16-17.837 8.71-27.85M526.478 336.906l10.012-25.047 10.559-22.211m-20.571 47.258-12.951 48.182m12.951-48.182-3.314 29.661 4.407 32.565m-1.093-62.226 13.702-19.956m-13.702 19.956 20.571-47.258m0 0 11.651-18.35m-11.651 18.35-6.869 27.302m6.869-27.302 18.93-21.494m566.551 19.683-7.21-12.062m0 0-17.73-28.123m17.73 28.123 9.06 27.268m-525.176-96.431-33.898 38.545m33.898-38.545 37.657-31.642m-37.657 31.642 27.27-18.555m-61.168 57.1-13.565 21.323m13.565-21.323 23.785-20.947m-23.785 20.947-9.327 22.997m80.882-93.184 45.14-27.064m-45.14 27.064-10.387 13.087m10.387-13.087 31.71-16.641m13.43-10.423 34.718-13.19m-34.718 13.19-13.43 10.423m364.709 25.218 26.65 28.635m-26.65-28.635-10.36 3.076m-306.201-51.907 36.872-4.886 49.206-10.866m-86.078 15.752-12.096 14.318m12.096-14.318-48.148 23.613m235.542-35.743 11.891 2.46 38.921 12.37m-50.812-14.83 50.812 14.83m-50.812-14.83 38.374 17.12m-38.374-17.12-14.386 6.458m65.198 8.372-12.438 2.29m218.623 272.65-6.49-33.112-3.04-18.281m9.53 51.393-9.53-51.393m9.53 51.393-6.97-18.35m-2.56-33.043-9.77-15.377m9.77 15.377 2.56 33.043m-650.614-8.918-1.538 20.297-4.169 32.975m5.707-53.272-5.707 53.272m5.707-53.272.342 32.94m-.342-32.94 9.636-18.521m-15.343 71.793 3.213 54.571m-3.213-54.571 6.049-20.332m-2.836 74.903 9.158 33.18m67.589 135.932-4.988-13.6m423.109 85.223 27.33-21.973m-27.33 21.973-17.157 2.665m17.157-2.665.06-.069m-48.211 22.041 30.994-19.307m-30.994 19.307-17.565-1.573m-136.376 10.354 41.279 2.529m-41.279-2.529 15.138-11.208m-15.138 11.208-31.914-12.78m73.193 15.309 46.131-2.904m-46.131 2.904-26.141-13.737m26.141 13.737-30.447 6.629m30.447-6.629 13.703 7.825m-13.703-7.825 19.614-13.805m-45.755.068 17.871-18.554m-17.871 18.554-46.575-1.537m46.575 1.537-.034.001m.034-.001 45.755-.068m-92.807-1.504-35.265-20.126m35.265 20.126-1.914 12.678m44.662 9.26-10.832-9.158-33.83-.102m44.662 9.26-44.662-9.26m44.662 9.26 44.148 1.196m-88.81-10.456-36.05-5.672m36.05 5.672-35.948-15.514M945.619 493.99l-12.473 42.612m12.473-42.612 34.102 22.314m-34.102-22.314-43.397 3.417m43.397-3.417-15.446-41.21m15.446 41.21 32.394-29.216m-44.867 71.828-15.684 45.789m15.684-45.789 46.575-20.298m-46.575 20.298-30.924-39.195m30.924 39.195-47.633 6.15m94.208-26.448 35.089 23.339m-35.089-23.339-1.708-51.53m1.708 51.53 35.569-29.9m-113.068 11.003-50.164 2.802m50.164-2.802 27.951-44.661m-27.951 44.661-20.162-44.183m20.162 44.183-16.709 45.345m44.66-89.972 32.906-34.034m-32.906 34.034-48.113.444m95.953 11.55-47.84-12.028m47.84 12.028 33.457-32.94m-33.457 32.94-14.934-46.028m14.934 46.028 37.277 21.63m-438.684 5.502 28.43 3.69m0 0 37.178 3.28m-37.178-3.28-16.095 37.486m16.095-37.486 12.371-42.748m-12.371 42.748 16.984 44.286m-45.413-47.976 12.336 41.176m-12.336-41.176-17.461 21.049m17.461-21.049 7.927-39.604-28.191 11.345m20.264 28.259-20.264-28.259m32.6 69.435 18.554 44.627m-18.554-44.627-29.797-20.127m29.797 20.127-16.198 24.193m16.198-24.193 33.077 6.8m-62.874-26.927L545.1 534.756m14.046-21.801-2.803-49.308m0 0-17.12-31.404m17.12 31.404 8.713-44.013m-8.713 44.013-17.701 20.468m575.578-216.781 20.16 35.709m-20.16-35.709-1.64 15.548m1.64-15.548-24.2-24.569m44.36 60.278-21.8-20.161m0 0-6.87 20.947m6.87-20.947-22.56-40.117m22.56 40.117-28.06-24.227m28.06 24.227 19.89 40.732m-42.45-80.849-32.08-24.432m32.08 24.432 8.31-3.724m-8.31 3.724-20.09-30.583m20.09 30.583-5.5 15.89m40.8 17.12-11.1-8.441-15.89-28.293m26.99 36.734-26.99-36.734m0 0-28.4-26.859m-291.783-39.16 17.051 21.46m-17.051-21.46-31.369 22.724m31.369-22.724 42.268-6.526m-25.217 27.986 20.435 29.421m-20.435-29.421-48.42 1.264m48.42-1.264 25.217-27.986m-25.217 27.986 47.053-3.828m-47.053 3.828-32.189 27.917m-16.231-26.653-33.966 30.515m33.966-30.515-3.793-26.995m77.43-2.255-32.428-15.514m-45.004 17.769 35.162 4.271 9.842-22.04m-45.004 17.769-36.972.273m36.972-.273 45.004-17.769m0 0 11.652-18.828m321.381 485.023-20.2 33.966-5.87-2.153m26.07-31.813-7.45-6.937m7.45 6.937 17.63-38.614m-17.63 38.614-26.07 31.813m0 0 18.62-38.75m-18.62 38.75-34.76 31.711m34.76-31.711-12.17-6.8m-49.55 69.503-44.487 24.638m44.487-24.638 26.96-30.992m-26.96 30.992-16.37-2.357m43.33-28.635-43.33 28.635m43.33-28.635-17.73-7.621m-53.717 63.251-48.559 17.734m48.559-17.734 28.117-26.995m-28.117 26.995-21.494-4.443m49.611-22.552 25.6-36.256m-25.6 36.256-49.611 22.552m49.611-22.552-22.992-9.67m-53.684 54.399-48.966 9.979m76.031-32.156-27.063 22.177-25.013-7.551m52.076-14.626 26.619-32.222m-26.619 32.222-52.076 14.626m52.076-14.626-26.824-12.643m-49.207 44.799-32.428 10.729m32.428-10.729 23.955-17.53m-23.955 17.53-26.517-10.901m50.472-6.629 25.252-27.269m-25.252 27.269-50.472 6.629m50.472-6.629-28.43-15.856m-22.042 22.485-27.882-18.487 49.924-3.998m-22.042 22.485 22.042-22.485m-49.926 3.999 20.093-27.303m-20.093 27.303-33.795-21.973 53.888-5.33m-20.093 27.303-51.016 1.845m0 0 32.838 16.573m-32.838-16.573-13.943 15.138-37.827-2.837m51.77-12.301-49.172-4.989m49.172 4.989 17.222-23.783m-17.222 23.783-36.496-25.355m107.605-3.793 21.187-36.051m-21.187 36.051-33.863-27.952m33.863 27.952 29.831 23.305m-29.831-23.305 52.964-8.919m-23.131 32.223 23.134-32.223 30.548 20.81m-53.682 11.413 53.682-11.413m-62.328-47.942 20.672-42.782m-20.672 42.782-33.487-33.624m33.487 33.624-55.05 8.099m0 0 21.563-41.723m-21.563 41.723-36.803-37.212m36.803 37.212-20.024 33.317m20.024-33.317-57.065 1.914m143.892 17.119-31.777-27.098 54.161-13.941m-22.384 41.039 22.384-41.039m-22.384 41.039 55.051-16.436m-66.156-53.478-32.804-37.793m32.804 37.793-54.159 9.158m0 0 21.357-46.951m-21.357 46.951-35.983-41.517m35.983 41.517-58.366 4.511m146.014 15.206-33.487-28.874m33.487 28.874 32.667 24.603m-32.667-24.603 54.126-20.537m-87.613-8.337 18.691-46.131m0 0-31.949-39.639m31.949 39.639-51.495 8.337m19.546-47.976-33.455-42.543m33.455 42.543-19.546 47.976m19.546-47.976-54.367 4.648m34.821 43.328L831.146 547.4m34.821 43.328-57.34 5.434m206.183-56.519 33.46 22.758m-33.46-22.758 37.39-30.412m-37.39 30.412.48-53.239m0 0-3.83-54.571m3.83 54.571 36.91 22.827m-36.91-22.827 35.27-33.863m-2.29 109.86 28.87 20.263m-28.87-20.263 37.14-30.925m-37.14 30.925-12.41 48.727m16.34-101.897-3.93 53.17m3.93-53.17 33.21 22.245m-33.21-22.245 35.16-34.582m-35.16 34.582-1.64-56.69m26.58 130.123 22.04 16.163m-22.04-16.163 34.58-31.438m-34.58 31.438 8.27-51.188m-8.27 51.188-14.11 46.951m14.11-46.951-41.28 28.464m49.55-79.652 26.31 19.75m-26.31-19.75 32.67-35.025m-32.67 35.025 1.95-56.827m-51.5 136.479 27.17 18.487m-27.17-18.487-18.41 47.225m18.41-47.225-49.476 25.731m112.796-38.032 14.39 11.413m-14.39-11.413 30.21-31.745m-30.21 31.745 12.54-47.601m-12.54 47.601-16.4 43.363m16.4-43.363-36.15 30.788m48.69-78.389 17.67 15.856m-17.67-15.856 28.23-35.127m-28.23 35.127 6.36-54.775m-55.05 133.164 19.75 12.575m-19.75-12.575-20.57 43.465m20.57-43.465-45.58 28.738m96.12-48.113 25.08-31.677m-25.08 31.677 15.82-43.158m-15.82 43.158-30.79 31.95m46.61-75.108 9.26 11.481 13.64-46.267m-22.9 34.786 22.9-34.786m-22.9 34.786 10.56-50.983m-57.17 126.091-22.62 38.511m22.62-38.511-40.32 30.89m96.19-94.517 17.77-33.932m-514.206-45.755 45.892 2.393m-45.892-2.393 17.77-45.55 28.122 47.943m-45.892-2.393-24.807-46.028m24.807 46.028-20.194 41.006m20.194-41.006 22.416 46.644m-59.629-49.992-20.468-43.226m0 0 13.771-45.072m-13.771 45.072-19.477-32.668m19.477 32.668 32.874.546m0 0-19.103-45.618m19.103 45.618 42.542.479m-42.542-.479 18.896-48.317M622.02 539.882l-14.523 37.827m14.523-37.827 42.61 5.638m-42.61-5.638 23.747 47.327m42.339-85.94 52.692 1.127m-52.692-1.127 23.339-47.635m-23.339 47.635L664.63 545.52m23.476-44.251 27.918 47.737m-51.394-3.486-18.863 41.689m18.863-41.689 51.394 3.486m-51.394-3.486 29.149 48.728m17.666-140.614 29.454 48.66m-29.454-48.66 57.373.103m-57.373-.103 29.01-52.008m-29.01 52.008-51.496-.307m51.496.307-27.098-51.119m31.677 146.491 24.911-46.61m-24.911 46.61-22.245 45.242m22.245-45.242 57.066.683m-57.066-.683 33.454 48.454m-8.543-95.064 56.143-.41m-56.143.41 27.883-48.693 28.26 48.283m-56.143.41 32.155 47.293m23.988-47.703 54.98-1.777m-54.98 1.777 30.172-48.42m-54.16 96.123 23.988-47.668 34.068 45.379m-58.056 2.289-23.612 47.771m23.612-47.771 58.056-2.289m-58.056 2.289 35.537 46.473m43.431-95.953 30.002-46.985m-30.002 46.985-24.808-46.643m24.808 46.643L831.146 547.4m-3.896-93.834 54.81-.342m-54.81.342 31.335-49.89m-31.335 49.89-58.432.171m58.432-.171-26.927-51.53M831.146 547.4l-22.519 48.762m73.433-142.938 28.944-47.087m-28.944 47.087-23.475-49.548m71.588 49.07-19.169-46.609M736.629 731.513l-36.768-28.635m36.768 28.635-41.107-6.732m41.107 6.732-2.597 17.29m2.597-17.29 12.676-20.366m-49.444-8.269 11.892-26.312m-11.892 26.312 49.446 8.269m-15.275 37.656-.102 9.842m.102-9.842-39.16-9.431m39.16 9.431-38.512-24.022m53.785-13.634 53.718 1.572m-103.163-9.842-35.538-36.802m35.538 36.802-42.714-11.344m42.714 11.344-4.34 21.904m-31.198-58.706-31.505-42.85m31.505 42.85-42.098-15.787m42.098 15.787-7.176 25.458m7.176-25.458 11.926-31.949m-11.926 31.949 47.431 10.491m-54.607 14.967 38.374 33.248m-38.374-33.248-2.46 19.306m40.834 13.942-40.834-13.942m40.834 13.942-.648 14.591m16.881-62.806-35.505-42.44m35.505 42.44 16.71-35.64m-16.71 35.64 54.229 4.75m-54.229-4.75 37.554 34.581m0 0 16.675-29.831m-133.165-58.091-25.32-45.516m25.32 45.516-39.159-19.034m39.159 19.034-10.593 27.063m10.593-27.063 12.95-36.016m-12.95 36.016 43.431 10.901m-54.024 16.162-28.567-46.096-8.782 24.398m37.349 21.698-37.349-21.698m37.349 21.698 34.924 41.245-40.288-18.384zm54.024-16.162-30.479-46.917 48.01 7.039m-17.531 39.878 17.531-39.878m-17.531 39.878 52.215 6.8m-120.966-63.217-34.752-20.434m34.752 20.434-13.839 26.482m13.839-26.482 38.27 9.5m-52.109 16.982-20.913-46.916m20.913 46.916-32.805-23.065m11.892-23.851-11.892 23.851M733.93 758.645l-39.058-19.273m0 0-40.186-28.533M536.625 555.874l8.475-21.118m-8.475 21.118-10.764-50.437 19.239 29.319m-8.475 21.118-16.436-29.763m16.436 29.763 24.228 25.252m-15.753-46.37-6.458-50.641m6.458 50.641 27.644 22.519-13.6-44.32-20.502-28.84m6.458 50.641 15.753 46.37m-40.664-55.015 5.638-20.674m35.026 75.689 24.023 47.464-29.455-26.004m5.432-21.46-5.432 21.46m-16.779-118.471.581-51.872m-.581 51.872-12.815 21.322m12.815-21.322-15.924-32.258m292.915-227.954 26.618-33.249m-26.618 33.249-52.624-1.504m52.624 1.504-32.326 33.932m58.944-67.181-21.834-24.158m21.834 24.158 25.903-26.379m-25.903 26.379 24.877 33.283m-24.877-33.283 52.35 1.333m-131.592 30.412-50.198 3.862 15.547 32.633m34.651-36.495-16.232-26.653-38.99-1.538m55.222 28.191 20.298 35.436m-20.298-35.436-34.651 36.495m110.612 2.871-23.339-37.862 51.53.034zm0 0 24.912 45.105m-24.912-45.105 54.777 4.544m-54.777-4.544-55.665-3.931m55.665 3.931-31.848 40.013m-23.815-43.943-54.949 1.059m135.524 47.976 24.637 49.445m-24.637-49.445 56.074 8.782-31.437 40.663m-24.637-49.445 29.865-40.561m-29.865 40.561-56.76-5.092m56.76 5.092-30.959 44.867m60.824-85.428 26.243 49.343m-26.243-49.343 57.339 9.875m-57.339-9.875-26.619-42.372m26.619 42.372 29.25-36.734m-139.692 28.259 23.817 43.944m-23.817-43.944-34.58 42.646m58.397 1.298-58.397-1.264-55.049 2.905m113.446-1.641 25.801 49.959m-25.801-49.959-33.794 47.669m115.191 6.868 22.485 49.822m-22.485-49.822 55.049 11.619m-55.049-11.619-55.596-4.578m55.596 4.578-29.934 47.361m-25.662-51.939-59.595-2.29m59.595 2.29 25.662 51.939m-25.662-51.939-32.6 50.299m110.681 4.101 52.075 12.609m-52.075-12.609 32.564-38.203m-32.564 38.203-52.419-2.461m84.983-35.742 19.511 50.812m-19.511-50.812 53.034 13.873m-53.034-13.873-23.578-52.282m23.578 52.282 32.703-39.434m-117.686 75.176-58.262-1.64m162.756 16.71 48.391 13.088m-48.391-13.088 33.523-36.939M598.304 407.23l20.606-48.523m-20.606 48.523-17.427-36.563m17.427 36.563-33.248 12.404m33.248-12.404 37.999-2.699m-71.247 15.103-25.833 12.609m25.833-12.609-15.308-35.093m15.308 35.093 15.821-48.967m38.033-11.96 27.235-48.761m-27.235 48.761-14.318-38.92m14.318 38.92-38.033 11.96m38.033-11.96 43.226-5.364m-43.226 5.364 17.393 45.824m-55.426-33.864 23.715-50.88m-23.715 50.88-12.369-37.417m12.369 37.417-31.129 13.874m86.555 19.99 25.833-51.188m-25.833 51.188 48.044-2.016m-48.044 2.016 23.646 48.796m-13.804-143.381 32.188-45.175m-32.188 45.175-10.662-38.887m10.662 38.887-41.553 9.841m41.553-9.841 47.53-6.493m-47.53 6.493 15.991 43.397m-57.544-33.556 30.891-48.728m-30.891 48.728-8.713-37.52m8.713 37.52-36.084 13.463m93.628 20.093 31.539-49.89m-31.539 49.89 52.556-3.315m-52.556 3.315 22.211 49.172m-6.014-137.744 34.479-38.51m-34.479 38.51-7.347-36.358m7.347 36.358-42.85 6.288m42.85-6.288 50.027-5.877m-50.027 5.877 15.342 38.682m-58.192-32.394 35.503-42.646m-35.503 42.646-5.33-34.991m5.33 34.991-39.604 11.208m97.796 21.186 34.685-44.559m-34.685 44.559 21.017 46.575m-1.88-123.767-5.023-32.053m5.023 32.053-41.826 2.152m0 0 36.803-34.205m-36.803 34.205-2.939-30.514m2.939 30.514-40.833 7.655m98.207 22.826 20.365 41.586m-40.936-106.272-1.777-25.218-37.965 28.909m39.742-3.691 35.196-25.457m-35.196 25.457-39.742 3.691m74.938-29.148 9.021-21.699m382.374 155.991 17.43 42.543m0 0 12.33 48.42m-12.33-48.42-19.34-21.972m19.34 21.972-3.29 26.072m-16.05-48.044-26.76-19.785m26.76 19.785 16.05 48.044m-16.05-48.044-8.44 26.312m40.11 44.08-15.62-22.348m15.62 22.348-6.08 30.959m-9.54-53.307-24.49-21.732m24.49 21.732 9.54 53.307m-9.54-53.307-11.31 31.369m20.85 21.938-20.85-21.938m20.85 21.938 1.26 54.981m-1.26-54.981-15.17 34.957m16.43 20.024-16.43-19.99-26.28-21.698m42.71 41.688-7.03 52.35m7.03-52.35-19.37 36.153m16.47 28.532-4.13-12.335m0 0-12.34-16.197m-128.48-84.265-14.868-50.027m14.858 50.026 31.95-34.991m-31.95 34.991 39.1 20.708m-7.15-55.699-15.54-52.316m15.54 52.316-46.81-15.035m.002 0 31.268-37.28m-31.268 37.28L976.271 328.5m74.289 124.041-7.14-55.699m7.14 55.699 31.74-35.914m-31.74 35.914 36.8 22.108m-43.94-77.807 27.64-34.683m-27.64 34.683 38.88 19.785m-11.24-54.468 21.01-31.643m-21.01 31.643-17.15-52.111m17.15 52.111-43.19-17.632m43.19 17.632 36.29 19.341m-36.29-19.341 11.24 54.468m0 0 25.05-35.127m-25.05 35.127 5.06 58.022m4.71-144.133-19.2-49.513m19.2 49.513-38.16-20.468m0 0 18.96-29.045m-18.96 29.045-23.75-50.608m23.75 50.608-26.04 34.479m26.04-34.479-47.88-18.828m21.84 53.307-21.84-53.307m21.84 53.307L976.271 328.5m131.079 53-15.27-50.983m15.27 50.983 16.68-31.574m-16.68 31.574 29.86 21.527m-29.86-21.527 9.26 56.758m-24.53-107.741 13.63-26.688m-13.63 26.688 31.95 19.409m-18.32-46.097-21.19-45.174m21.19 45.174-32.84-22.826m32.84 22.826 18.32 46.097m0 0 13.18 53.101m-52.69-144.372-26.58-40.322m26.58 40.322-11.65 22.348m11.65-22.348-37.18-23.544m25.53 45.892-25.53-45.892m25.53 45.892-42.71-21.563m-489.98 57.51.821 32.429m-.821-32.429 23.167-18.862M540.18 316.95l25.799-48.796m-38.408 130.978 11.652 33.111m-11.652-33.111 22.177-14.591m-22.177 14.591 13.428-49.753-17.837 17.188m4.409 32.565-13.703 18.896m13.703-18.896-4.853 52.725m.444-85.29 17.017-49.616m-17.017 49.616-9.294 51.461m0 0 8.85 33.829m-8.85-33.829-1.23 54.571 10.08-20.742m16.505-19.614 10.525-47.702m-10.525 47.702-16.505 19.614m27.03-67.316-8.747-35.162m8.747 35.162 18.76-51.291m-45.79 118.607 3.109 53.58m294.59-338.941 47.737-2.221m-47.737 2.221 12.95-22.006m34.787 19.785 51.154 3.827m-51.154-3.827 15.786-20.572m-15.786 20.572-34.787-19.785m34.787 19.785 26.447 27.712m-61.234-47.497-45.379 6.492-35.982-3.93m81.361-2.562-33.728-12.336m33.728 12.336 50.573-.787m-50.573.787 14.182-17.462m71.759 41.074 51.084 10.832m-51.084-10.832 17.46-17.632m-17.46 17.632-35.368-24.399m0 0 52.828 6.767m-52.828-6.767 15.787-14.659m-15.787 14.659-36.391-16.675m47.052 64.959 24.672-23.885 29.865 31.813m-54.537-7.928 54.537 7.928m-54.537-7.928 28.396 37.588m-28.396-37.588-27.473 31.95m103.264-45.003 47.228 17.324m-47.228-17.324 17.359-13.737m-17.359 13.737-33.624-28.464m33.624 28.464 31.028 35.811m-31.028-35.811-21.254 20.981m-12.37-49.445 50.983 14.727m-50.983-14.727 15.719-10.764m-15.719 10.764-37.041-21.426m49.411 70.871 52.282 14.83m-52.282-14.83-26.141 29.66m94.623-33.317 40.32 22.075m-40.32-22.075-29.869-31.061m0 0 45.179 21.425m-45.179-21.425-35.264-25.491m48.933 75.039 16.2-18.487m-16.2 18.487 45.92 20.366m-45.92-20.366 28.74 44.695m-28.74-44.695-22.451 26.893m78.971-23.305 11.99-6.151m-11.99 6.151-25.02-31.71m25.02 31.71-10.6 16.778m-29.72-38.853 15.31-9.636m-15.31 9.636 29.72 38.853m0 0-17.18 24.329m39.77-47.258-37.01-25.559m-396.446 1.434 33.077-12.779m-33.077 12.779 42.099-29.762-9.022 16.983m-33.077 12.779-5.741 19.888m5.741-19.888-37.383 36.153m10.046-17.461-10.046 17.461m0 0 31.642-16.265m-31.642 16.265-4.99 25.389m4.99-25.389-33.112 43.944m103.572-92.876 36.46-6.254m-36.46 6.254L714.622 149l-8.611 20.024m-36.46 6.254-1.504 22.621m1.504-22.621-38.818 32.667m0 0 37.314-10.046m-37.314 10.046-.58 28.123m.58-28.123-36.632 41.654m111.91-80.575 45.995-21.972m-83.959 50.847-37.894 38.169m121.853-89.016-37.383 1.982m37.383-1.982 11.584-17.256m36.049 2.358-36.05-2.324m36.05 2.324-47.634 14.899m47.634-14.899 47.806-5.126m-47.804 5.126 13.156-13.19m0 0 34.581 8.03m-83.788 2.802-48.967 19.238m0 0-36.052 9.295m273.916-18.623-52.76-10.662m0 0-52.178-2.016m-251.67 155.239 34.272-46.199-36.05 13.531m1.778 32.668-1.778-32.668m1.778 32.668-27.371 50.983m27.371-50.983-32.532 15.821m30.754-48.489-30.754 48.489m30.754-48.489-28.122 18.555m2.529 65.096-5.159-35.162 2.63-29.934m2.529 65.096-27.507 16.129m22.346-51.291-22.346 51.291m489.159-89.939-24.13 31.78m24.13-31.78-51.191-17.802m27.061 49.582-27.061-49.582m27.061 49.582-29.759 37.28m29.759-37.28-54.944-15.036m27.883-34.546-29.866-41.723m29.866 41.723-27.883 34.546m27.883-34.546-55.972-12.063m53.274 98.925-25.185-52.316m25.185 52.316-56.281-12.848m31.096-39.468-28.089-46.609m28.089 46.609-31.096 39.468m3.007-86.077-55.869-5.638M521.352 355.939l-.034-.444-.069.41m615.961 47.122 5.68 56.895m-5.68-56.895-20.6 35.231m26.28 21.664-2.94 56.177m2.94-56.177-24.81 36.529m-1.47-58.193-34.31-21.597m34.31 21.597 1.47 58.193m-1.47-58.193-29.25 36.391m52.59 41.45-21.87-19.648m0 0-30.72-21.802M748.725 300.48l24.603 48.967m-24.603-48.967-34.035 49.548 58.638-.581m0 0 26.995 52.589m-26.995-52.589-32.873 52.179m-25.763-51.598 25.763 51.598m-25.763-51.598-30.345 52.487m115.976-.479-59.868-.41m59.868.41-31.505 51.701m-28.363-52.111-56.108.889m56.108-.889 28.363 52.111m-84.471-51.222-24.398 50.812M584.875 628.59l31.984 44.559m-31.984-44.559-2.084 19.853m-27.37-45.857 27.37 45.857m34.068 24.706-34.068-24.706m34.068 24.706 37.827 37.69m-37.827-37.69.854 16.3m-34.922-41.006 34.922 41.006m36.973 21.39-36.973-21.39m76.066-95.201 55.699 3.212m-55.699-3.212 34.684 46.678m21.015-43.466-21.015 43.466m21.015-43.466 59.149-1.298m-59.149 1.298 36.766 44.73m-57.781-1.264 57.781 1.264m-57.781-1.264 37.519 40.39m42.645-85.154-22.383 46.028m0 0-20.262 39.126m0 0 37.041 31.403m239.437-39.639-48.592 26.586m48.592-26.586-25.01-14.727m-23.582 41.313 23.582-41.313m-23.582 41.313-53.443 19.579m53.443-19.579-28.943-17.667m52.525-23.646-52.525 23.646m52.525-23.646-31.066-21.494m-21.459 45.14-24.502 37.246"/><g filter="url(#u)" style="mix-blend-mode:overlay"><ellipse cx="574.821" cy="73.699" fill="#c448f0" fill-opacity=".9" rx="395.228" ry="183.591" transform="rotate(9.49 574.821 73.699)"/></g><path stroke="url(#v)" stroke-linecap="round" stroke-width=".676" d="M529.313 424.791c-35.582-12.163-56.919-28.311-58.61-47.466-4.342-49.19 122.339-101.553 292.905-124.768"/><path stroke="url(#w)" stroke-linecap="round" stroke-width=".676" d="M529.313 424.792c-35.582-12.163-56.919-28.311-58.61-47.466-1.928-21.838 21.968-44.301 64.063-64.562"/><g filter="url(#x)"><path stroke="url(#y)" stroke-linecap="round" stroke-width="1.68" d="M529.313 424.792c-35.582-12.163-56.919-28.311-58.61-47.466-1.928-21.838 21.968-44.301 64.063-64.562"/></g><g filter="url(#z)"><path stroke="url(#A)" stroke-linecap="round" stroke-width="1.68" d="M529.313 424.791c-35.582-12.163-56.919-28.311-58.61-47.466-4.343-49.19 126.018-101.917 296.585-125.133"/></g><path stroke="url(#B)" stroke-linecap="round" stroke-width=".676" d="M1134.27 289.255c46.91-27.897 72.57-51.474 67.62-65.642-7.25-20.742-78.39-16.389-180.49 7.25"/><path stroke="url(#C)" stroke-linecap="round" stroke-width=".676" d="M1204.66 434.438c47.6-47.207 69.68-93.753 56.51-131.412-12.95-37.067-57.98-59.601-122.94-67.243"/><path stroke="url(#D)" stroke-linecap="round" stroke-width=".676" d="M979.398 241.207c60.172 1.119 111.112 29.322 127.672 76.702 9.99 28.568 5.85 59.469-9.17 87.913"/><path stroke="url(#E)" stroke-linecap="round" stroke-width=".676" d="M598.146 215.363c-12.553-18.179-16.99-34.414-11.53-47.226 19.719-46.278 161.076-30.372 315.73 35.527 27.688 11.798 52.463 24.967 76.768 37.97"/><path stroke="url(#F)" stroke-linecap="round" stroke-width=".676" d="M773.23 118.687c21.355-53.275 53.852-87.289 90.249-87.289s68.894 34.014 90.249 87.289"/><g filter="url(#G)"><path stroke="url(#H)" stroke-linecap="round" stroke-width="1.68" d="M773.23 118.687c21.355-53.275 53.852-87.289 90.249-87.289s68.894 34.014 90.249 87.289"/></g><path stroke="url(#I)" stroke-linecap="round" stroke-width=".676" d="M1083.94 184.481c18.72-41.185 26.13-70.344 17.35-75.87-11.15-7.015-45.36 25.971-85.51 79.705"/><path stroke="url(#J)" stroke-linecap="round" stroke-width=".676" d="M1083.94 184.481c18.72-41.185 26.13-70.344 17.35-75.87-2.7-1.698-6.75-1.052-11.91 1.664"/><g filter="url(#K)"><path stroke="url(#L)" stroke-linecap="round" stroke-width="1.68" d="M1083.94 184.481c18.72-41.185 26.13-70.344 17.35-75.87-2.7-1.698-6.75-1.052-11.91 1.664"/></g><g filter="url(#M)"><path stroke="url(#N)" stroke-linecap="round" stroke-width="1.68" d="M1083.94 184.481c18.72-41.185 26.13-70.344 17.35-75.87-11.15-7.015-45.36 25.971-85.51 79.705"/></g><path stroke="url(#O)" stroke-linecap="round" stroke-width=".676" d="M973.963 89.256c36.447-41.357 66.317-63.61 79.047-55.6 20.9 13.15-11.74 103.219-73.613 206.747"/><path stroke="url(#P)" stroke-linecap="round" stroke-width=".676" d="M821.941 147.641C838.245 106.968 863.055 81 890.842 81c45.613 0 83.204 69.971 88.315 160.094"/><path stroke="url(#Q)" stroke-linecap="round" stroke-width=".676" d="M767.471 355.393C638.366 265.482 562.289 151.55 597.55 100.919s168.505-18.79 297.61 71.121c31.469 21.914 58.84 45.172 83.163 68.677"/><path stroke="url(#R)" stroke-linecap="round" stroke-width=".676" d="M976.859 237.721C947.09 102.892 857.999 7.934 777.868 25.626c-56.676 12.514-93.689 78.032-99.967 163.022"/><path stroke="url(#S)" stroke-linecap="round" stroke-width=".676" d="M677.901 188.648c6.278-84.99 43.291-150.508 99.967-163.022 30.961-6.836 63.26 3.146 92.957 25.747"/><g filter="url(#T)"><path stroke="url(#U)" stroke-linecap="round" stroke-width="1.68" d="M677.901 188.648c6.278-84.99 43.291-150.508 99.967-163.022 30.961-6.836 63.26 3.146 92.957 25.747"/></g><g filter="url(#V)"><path stroke="url(#W)" stroke-linecap="round" stroke-width="1.68" d="M976.859 237.721C947.09 102.892 857.999 7.934 777.868 25.626c-56.676 12.514-93.689 78.032-99.967 163.022"/></g><g filter="url(#X)"><circle cx="1132.91" cy="235.294" r="2.841" fill="#fff" transform="rotate(148.655 1132.91 235.294)"/></g><g filter="url(#Y)"><circle cx="1017.5" cy="231.684" r="2.841" fill="#fff" transform="rotate(148.655 1017.5 231.684)"/></g><g filter="url(#Z)"><circle cx="1013.59" cy="191.231" r="2.082" fill="#fff" transform="rotate(148.655 1013.59 191.231)"/></g><g filter="url(#aa)"><circle cx="1085.86" cy="112.985" r="2.082" fill="#fff" transform="rotate(148.655 1085.86 112.985)"/></g><g filter="url(#ab)"><circle cx="955.256" cy="122.805" r="2.841" fill="#fff" transform="rotate(148.655 955.256 122.805)"/></g><g filter="url(#ac)"><circle cx="875.67" cy="54.923" r="2.841" fill="#fff" transform="rotate(148.655 875.67 54.923)"/></g><g filter="url(#ad)"><circle cx="770.232" cy="251.61" r="2.841" fill="#fff" transform="rotate(148.655 770.232 251.61)"/></g><path stroke="url(#ae)" stroke-linecap="round" stroke-width=".676" d="M1056.2 335.789c42.91-38.517 59.62-89.898 37.3-114.761-21.14-23.553-69.7-14.862-111.246 18.861"/><g filter="url(#af)"><ellipse cx="978.203" cy="241.404" fill="url(#ag)" rx="32.117" ry="20.355" transform="rotate(55.173 978.203 241.404)"/></g><path stroke="url(#ah)" stroke-dasharray="1.35 1.35" stroke-linecap="round" stroke-linejoin="round" stroke-width=".338" d="m1003.16 587.96-51.152 22.656m51.152-22.656-35.228-25.594m35.228 25.594 11.65-48.317m-11.65 48.317 45.11-25.559m-45.11 25.559 32.7 23.168m-32.7-23.168-16.776 48.933-21.459 45.106m-12.917-71.383 15.924-48.25m-15.924 48.25-53.237 17.906m53.237-17.906-34.546-28.225m34.546 28.225-19.75 46.78m19.75-46.78 34.376 26.243m-18.452-74.493-50.47 20.025m50.47-20.025-34.786-25.764m34.786 25.764 11.789-46.062m-11.789 46.062 46.878-22.723m-41.718 209.878-3.691.786-11.652 5.331m15.343-6.117 8.509-4.784 24.299-11.071m-32.808 15.855 32.808-15.855m-32.808 15.855-12.95 4.647M557.401 619.671l-16.334-30.002-5.842-15.035m22.176 45.037 30.378 42.372m-30.378-42.372 8.919 11.721 21.459 30.651m-30.378-42.372-22.176-45.037m22.176 45.037-1.98-17.085m1.98 17.085 25.39 28.772m558.389-62.396 10.08-23.578m-10.08 23.578 15.24-41.416m-15.24 41.416-2.53-7.484m6.8-263.731-12.92-26.961 5.92 13.395m7 13.566 16.13 46.131m-16.13-46.131 5.81 15.377m-5.81-15.377-11.07-11.823-1.91 20.605m12.98-8.782 6.36 30.754m-6.36-30.754-20.13-39.057m-54.33 406.566-22.76 22.86m22.76-22.86 11.62-9.192m-11.62 9.192 29.83-31.198m-29.83 31.198-37.76 29.352m37.76-29.352 23.96-33.351m-23.96 33.351-10.8-1.64m-11.96 24.5-42.33 28.465m42.33-28.465 34.38-32.052m-34.38 32.052-15 6.492m49.38-38.544 26.17-32.565m-26.17 32.565 18.21-22.006m-99.37-492.541 8.99 1.196m-8.99-1.196-36.525-21.186m36.525 21.186 41.83 24.945m-41.83-24.945-48.963-18.896m48.963 18.896 31.48 28.02m-31.48-28.02-13.699 6.595m22.689-5.399 32.84 23.749m-32.84-23.749 37.72 27.097m-37.72-27.097-45.515-22.382m-443.231 217.43-.376.683.717-2.118m-9.398 119.188-1.606 20.298m1.606-20.298-4.818-34.239m4.818 34.239 13.19 32.838m-13.19-32.838 7.552 53.512M1076.39 211.43l31.2 36.222-9.26-8.611m-21.94-27.611-28.23-24.535m28.23 24.535-22.69-19.101-5.53-5.433.27.991-5.16-4.34m33.11 27.883 21.94 27.611m-21.94-27.611-6.46.752m38.85 428.402-.88.82m.88-.82 14.32-20.092m-14.32 20.092 1.75-2.802m-1.75 2.802.38-.957M826.738 113.292l49.138 1.64m-49.138-1.64-49.309 6.287m49.309-6.287-13.941 5.672m13.941-5.672 35.333 3.382m13.805-1.742-13.805 1.742m13.805-1.742 38.237 7.654m-6.664 646.72 15.514-1.845m-15.514 1.845 32.735-15.241m-32.735 15.241 50.3-13.668m-50.3 13.668-16.231-5.262m16.231 5.262-48.659 5.467m48.659-5.467-34.239 7.244m-209.194-50.3-3.246-2.289m508.53-278.289 3.01 19.956m-3.01-19.956-5.16-51.666m5.16 51.666-2.83 51.359m2.83-51.359 1.81-33.316m-1.81 33.316-11.24-20.707m11.24 20.707-9.98 34.274m12.99-14.318-5.84 31.403m5.84-31.403-7.18 51.154 1.34-19.751m5.84-31.403-1.2-53.272m-4.64 84.675-10.05 47.6m10.05-47.6-7.15-17.085m7.15 17.085-14.18 35.265M793.831 773.714l-1.845-.068m-14.557-654.067-35.47 8.782m35.47-8.782 35.368-.615m-35.368.615-13.839 10.217m13.839-10.217-50.71 15.137m15.24-6.355-15.24 6.355m15.24-6.355-49.958 19.545m-132.309 120.59-1.025 2.768m1.025-2.768-4.169 7.757m4.169-7.757-12.643 21.152m12.643-21.152 15.614-23.339m-15.614 23.339 2.085-1.982m-2.085 1.982 5.433-7.278m584.115 64.446 2.02 4.545m0 0-.92-1.401m.92 1.401 10.32 30.754m-10.32-30.754-.07.991m.07-.991 1.47 5.433M588.429 230.19l.615-1.059m0 0-2.118 2.802m2.118-2.802 2.665-2.597m-2.665 2.597.581-.239m455.665-43.637 2.87 1.64m-511.67 124.93 4.784-8.919m320.797-186.232-49.274 2.29m49.274-2.29 52.042 5.912m-52.042-5.912 37.656 12.37m-37.656-12.37-14.522 10.354m89.288 2.187-10.798-4.169m174.781 526.097 22.28-30.651m0 0 18.08-34.445-20.16 31.13m2.08 3.315-2.08-3.315M779.991 771.971l46.848 5.912m-46.848-5.912-36.596-8.338m36.596 8.338 34.651 1.606m-34.651-1.606-46.061-13.326m46.061 13.326-10.011-7.654m56.859 13.566 46.371-1.333m-46.371 1.333-12.197-4.306m12.197 4.306 31.951-3.11m14.42 1.777 49.924-9.124m-49.924 9.124-14.42-1.777m64.344-7.347 27.61-9.875m-27.61 9.875 34.615-11.788m-307.573-39.16-25.799-18.179m0 0 32.872 24.09m-32.872-24.09-6.664-8.85m6.664 8.85-36.596-36.256 29.932 27.406m39.536 32.94 40.493 23.681m-40.493-23.681 37.623 16.983m-37.623-16.983-2.563-11.55m2.563 11.55-39.536-32.94m80.029 56.621 45.653 17.563m-45.653-17.563 36.188 12.575m-36.188-12.575-2.87-6.698m48.523 24.261-9.465-4.988M522.855 544.461l12.37 30.173m-12.37-30.173-11.823-51.53m11.823 51.53-2.665-18.35m15.035 48.523 1.4-18.76m-1.4 18.76-15.035-48.523m15.035 48.523 20.194 27.952-18.794-46.712m614.635 6.595 5.16-17.837 8.71-27.85M526.478 336.906l10.012-25.047 10.559-22.211m-20.571 47.258-12.951 48.182m12.951-48.182-3.314 29.661 4.407 32.565m-1.093-62.226 13.702-19.956m-13.702 19.956 20.571-47.258m0 0 11.651-18.35m-11.651 18.35-6.869 27.302m6.869-27.302 18.93-21.494m566.551 19.683-7.21-12.062m0 0-17.73-28.123m17.73 28.123 9.06 27.268m-525.176-96.431-33.898 38.545m33.898-38.545 37.657-31.642m-37.657 31.642 27.27-18.555m-61.168 57.1-13.565 21.323m13.565-21.323 23.785-20.947m-23.785 20.947-9.327 22.997m80.882-93.184 45.14-27.064m-45.14 27.064-10.387 13.087m10.387-13.087 31.71-16.641m13.43-10.423 34.718-13.19m-34.718 13.19-13.43 10.423m364.709 25.218 26.65 28.635m-26.65-28.635-10.36 3.076m-306.201-51.907 36.872-4.886 49.206-10.866m-86.078 15.752-12.096 14.318m12.096-14.318-48.148 23.613m235.542-35.743 11.891 2.46 38.921 12.37m-50.812-14.83 50.812 14.83m-50.812-14.83 38.374 17.12m-38.374-17.12-14.386 6.458m65.198 8.372-12.438 2.29m218.623 272.65-6.49-33.112-3.04-18.281m9.53 51.393-9.53-51.393m9.53 51.393-6.97-18.35m-2.56-33.043-9.77-15.377m9.77 15.377 2.56 33.043m-650.614-8.918-1.538 20.297-4.169 32.975m5.707-53.272-5.707 53.272m5.707-53.272.342 32.94m-.342-32.94 9.636-18.521m-15.343 71.793 3.213 54.571m-3.213-54.571 6.049-20.332m-2.836 74.903 9.158 33.18m67.589 135.932-4.988-13.6m423.109 85.223 27.33-21.973m-27.33 21.973-17.157 2.665m17.157-2.665.06-.069m-48.211 22.041 30.994-19.307m-30.994 19.307-17.565-1.573m-136.376 10.354 41.279 2.529m-41.279-2.529 15.138-11.208m-15.138 11.208-31.914-12.78m73.193 15.309 46.131-2.904m-46.131 2.904-26.141-13.737m26.141 13.737-30.447 6.629m30.447-6.629 13.703 7.825m-13.703-7.825 19.614-13.805m-45.755.068 17.871-18.554m-17.871 18.554-46.575-1.537m46.575 1.537-.034.001m.034-.001 45.755-.068m-92.807-1.504-35.265-20.126m35.265 20.126-1.914 12.678m44.662 9.26-10.832-9.158-33.83-.102m44.662 9.26-44.662-9.26m44.662 9.26 44.148 1.196m-88.81-10.456-36.05-5.672m36.05 5.672-35.948-15.514M945.619 493.99l-12.473 42.612m12.473-42.612 34.102 22.314m-34.102-22.314-43.397 3.417m43.397-3.417-15.446-41.21m15.446 41.21 32.394-29.216m-44.867 71.828-15.684 45.789m15.684-45.789 46.575-20.298m-46.575 20.298-30.924-39.195m30.924 39.195-47.633 6.15m94.208-26.448 35.089 23.339m-35.089-23.339-1.708-51.53m1.708 51.53 35.569-29.9m-113.068 11.003-50.164 2.802m50.164-2.802 27.951-44.661m-27.951 44.661-20.162-44.183m20.162 44.183-16.709 45.345m44.66-89.972 32.906-34.034m-32.906 34.034-48.113.444m95.953 11.55-47.84-12.028m47.84 12.028 33.457-32.94m-33.457 32.94-14.934-46.028m14.934 46.028 37.277 21.63m-438.684 5.502 28.43 3.69m0 0 37.178 3.28m-37.178-3.28-16.095 37.486m16.095-37.486 12.371-42.748m-12.371 42.748 16.984 44.286m-45.413-47.976 12.336 41.176m-12.336-41.176-17.461 21.049m17.461-21.049 7.927-39.604-28.191 11.345m20.264 28.259-20.264-28.259m32.6 69.435 18.554 44.627m-18.554-44.627-29.797-20.127m29.797 20.127-16.198 24.193m16.198-24.193 33.077 6.8m-62.874-26.927L545.1 534.756m14.046-21.801-2.803-49.308m0 0-17.12-31.404m17.12 31.404 8.713-44.013m-8.713 44.013-17.701 20.468m575.578-216.781 20.16 35.709m-20.16-35.709-1.64 15.548m1.64-15.548-24.2-24.569m44.36 60.278-21.8-20.161m0 0-6.87 20.947m6.87-20.947-22.56-40.117m22.56 40.117-28.06-24.227m28.06 24.227 19.89 40.732m-42.45-80.849-32.08-24.432m32.08 24.432 8.31-3.724m-8.31 3.724-20.09-30.583m20.09 30.583-5.5 15.89m40.8 17.12-11.1-8.441-15.89-28.293m26.99 36.734-26.99-36.734m0 0-28.4-26.859m-291.783-39.16 17.051 21.46m-17.051-21.46-31.369 22.724m31.369-22.724 42.268-6.526m-25.217 27.986 20.435 29.421m-20.435-29.421-48.42 1.264m48.42-1.264 25.217-27.986m-25.217 27.986 47.053-3.828m-47.053 3.828-32.189 27.917m-16.231-26.653-33.966 30.515m33.966-30.515-3.793-26.995m77.43-2.255-32.428-15.514m-45.004 17.769 35.162 4.271 9.842-22.04m-45.004 17.769-36.972.273m36.972-.273 45.004-17.769m0 0 11.652-18.828m321.381 485.023-20.2 33.966-5.87-2.153m26.07-31.813-7.45-6.937m7.45 6.937 17.63-38.614m-17.63 38.614-26.07 31.813m0 0 18.62-38.75m-18.62 38.75-34.76 31.711m34.76-31.711-12.17-6.8m-49.55 69.503-44.487 24.638m44.487-24.638 26.96-30.992m-26.96 30.992-16.37-2.357m43.33-28.635-43.33 28.635m43.33-28.635-17.73-7.621m-53.717 63.251-48.559 17.734m48.559-17.734 28.117-26.995m-28.117 26.995-21.494-4.443m49.611-22.552 25.6-36.256m-25.6 36.256-49.611 22.552m49.611-22.552-22.992-9.67m-53.684 54.399-48.966 9.979m76.031-32.156-27.063 22.177-25.013-7.551m52.076-14.626 26.619-32.222m-26.619 32.222-52.076 14.626m52.076-14.626-26.824-12.643m-49.207 44.799-32.428 10.729m32.428-10.729 23.955-17.53m-23.955 17.53-26.517-10.901m50.472-6.629 25.252-27.269m-25.252 27.269-50.472 6.629m50.472-6.629-28.43-15.856m-22.042 22.485-27.882-18.487 49.924-3.998m-22.042 22.485 22.042-22.485m-49.926 3.999 20.093-27.303m-20.093 27.303-33.795-21.973 53.888-5.33m-20.093 27.303-51.016 1.845m0 0 32.838 16.573m-32.838-16.573-13.943 15.138-37.827-2.837m51.77-12.301-49.172-4.989m49.172 4.989 17.222-23.783m-17.222 23.783-36.496-25.355m107.605-3.793 21.187-36.051m-21.187 36.051-33.863-27.952m33.863 27.952 29.831 23.305m-29.831-23.305 52.964-8.919m-23.131 32.223 23.134-32.223 30.548 20.81m-53.682 11.413 53.682-11.413m-62.328-47.942 20.672-42.782m-20.672 42.782-33.487-33.624m33.487 33.624-55.05 8.099m0 0 21.563-41.723m-21.563 41.723-36.803-37.212m36.803 37.212-20.024 33.317m20.024-33.317-57.065 1.914m143.892 17.119-31.777-27.098 54.161-13.941m-22.384 41.039 22.384-41.039m-22.384 41.039 55.051-16.436m-66.156-53.478-32.804-37.793m32.804 37.793-54.159 9.158m0 0 21.357-46.951m-21.357 46.951-35.983-41.517m35.983 41.517-58.366 4.511m146.014 15.206-33.487-28.874m33.487 28.874 32.667 24.603m-32.667-24.603 54.126-20.537m-87.613-8.337 18.691-46.131m0 0-31.949-39.639m31.949 39.639-51.495 8.337m19.546-47.976-33.455-42.543m33.455 42.543-19.546 47.976m19.546-47.976-54.367 4.648m34.821 43.328L831.146 547.4m34.821 43.328-57.34 5.434m206.183-56.519 33.46 22.758m-33.46-22.758 37.39-30.412m-37.39 30.412.48-53.239m0 0-3.83-54.571m3.83 54.571 36.91 22.827m-36.91-22.827 35.27-33.863m-2.29 109.86 28.87 20.263m-28.87-20.263 37.14-30.925m-37.14 30.925-12.41 48.727m16.34-101.897-3.93 53.17m3.93-53.17 33.21 22.245m-33.21-22.245 35.16-34.582m-35.16 34.582-1.64-56.69m26.58 130.123 22.04 16.163m-22.04-16.163 34.58-31.438m-34.58 31.438 8.27-51.188m-8.27 51.188-14.11 46.951m14.11-46.951-41.28 28.464m49.55-79.652 26.31 19.75m-26.31-19.75 32.67-35.025m-32.67 35.025 1.95-56.827m-51.5 136.479 27.17 18.487m-27.17-18.487-18.41 47.225m18.41-47.225-49.476 25.731m112.796-38.032 14.39 11.413m-14.39-11.413 30.21-31.745m-30.21 31.745 12.54-47.601m-12.54 47.601-16.4 43.363m16.4-43.363-36.15 30.788m48.69-78.389 17.67 15.856m-17.67-15.856 28.23-35.127m-28.23 35.127 6.36-54.775m-55.05 133.164 19.75 12.575m-19.75-12.575-20.57 43.465m20.57-43.465-45.58 28.738m96.12-48.113 25.08-31.677m-25.08 31.677 15.82-43.158m-15.82 43.158-30.79 31.95m46.61-75.108 9.26 11.481 13.64-46.267m-22.9 34.786 22.9-34.786m-22.9 34.786 10.56-50.983m-57.17 126.091-22.62 38.511m22.62-38.511-40.32 30.89m96.19-94.517 17.77-33.932m-514.206-45.755 45.892 2.393m-45.892-2.393 17.77-45.55 28.122 47.943m-45.892-2.393-24.807-46.028m24.807 46.028-20.194 41.006m20.194-41.006 22.416 46.644m-59.629-49.992-20.468-43.226m0 0 13.771-45.072m-13.771 45.072-19.477-32.668m19.477 32.668 32.874.546m0 0-19.103-45.618m19.103 45.618 42.542.479m-42.542-.479 18.896-48.317M622.02 539.882l-14.523 37.827m14.523-37.827 42.61 5.638m-42.61-5.638 23.747 47.327m42.339-85.94 52.692 1.127m-52.692-1.127 23.339-47.635m-23.339 47.635L664.63 545.52m23.476-44.251 27.918 47.737m-51.394-3.486-18.863 41.689m18.863-41.689 51.394 3.486m-51.394-3.486 29.149 48.728m17.666-140.614 29.454 48.66m-29.454-48.66 57.373.103m-57.373-.103 29.01-52.008m-29.01 52.008-51.496-.307m51.496.307-27.098-51.119m31.677 146.491 24.911-46.61m-24.911 46.61-22.245 45.242m22.245-45.242 57.066.683m-57.066-.683 33.454 48.454m-8.543-95.064 56.143-.41m-56.143.41 27.883-48.693 28.26 48.283m-56.143.41 32.155 47.293m23.988-47.703 54.98-1.777m-54.98 1.777 30.172-48.42m-54.16 96.123 23.988-47.668 34.068 45.379m-58.056 2.289-23.612 47.771m23.612-47.771 58.056-2.289m-58.056 2.289 35.537 46.473m43.431-95.953 30.002-46.985m-30.002 46.985-24.808-46.643m24.808 46.643L831.146 547.4m-3.896-93.834 54.81-.342m-54.81.342 31.335-49.89m-31.335 49.89-58.432.171m58.432-.171-26.927-51.53M831.146 547.4l-22.519 48.762m73.433-142.938 28.944-47.087m-28.944 47.087-23.475-49.548m71.588 49.07-19.169-46.609M736.629 731.513l-36.768-28.635m36.768 28.635-41.107-6.732m41.107 6.732-2.597 17.29m2.597-17.29 12.676-20.366m-49.444-8.269 11.892-26.312m-11.892 26.312 49.446 8.269m-15.275 37.656-.102 9.842m.102-9.842-39.16-9.431m39.16 9.431-38.512-24.022m53.785-13.634 53.718 1.572m-103.163-9.842-35.538-36.802m35.538 36.802-42.714-11.344m42.714 11.344-4.34 21.904m-31.198-58.706-31.505-42.85m31.505 42.85-42.098-15.787m42.098 15.787-7.176 25.458m7.176-25.458 11.926-31.949m-11.926 31.949 47.431 10.491m-54.607 14.967 38.374 33.248m-38.374-33.248-2.46 19.306m40.834 13.942-40.834-13.942m40.834 13.942-.648 14.591m16.881-62.806-35.505-42.44m35.505 42.44 16.71-35.64m-16.71 35.64 54.229 4.75m-54.229-4.75 37.554 34.581m0 0 16.675-29.831m-133.165-58.091-25.32-45.516m25.32 45.516-39.159-19.034m39.159 19.034-10.593 27.063m10.593-27.063 12.95-36.016m-12.95 36.016 43.431 10.901m-54.024 16.162-28.567-46.096-8.782 24.398m37.349 21.698-37.349-21.698m37.349 21.698 34.924 41.245-40.288-18.384zm54.024-16.162-30.479-46.917 48.01 7.039m-17.531 39.878 17.531-39.878m-17.531 39.878 52.215 6.8m-120.966-63.217-34.752-20.434m34.752 20.434-13.839 26.482m13.839-26.482 38.27 9.5m-52.109 16.982-20.913-46.916m20.913 46.916-32.805-23.065m11.892-23.851-11.892 23.851M733.93 758.645l-39.058-19.273m0 0-40.186-28.533M536.625 555.874l8.475-21.118m-8.475 21.118-10.764-50.437 19.239 29.319m-8.475 21.118-16.436-29.763m16.436 29.763 24.228 25.252m-15.753-46.37-6.458-50.641m6.458 50.641 27.644 22.519-13.6-44.32-20.502-28.84m6.458 50.641 15.753 46.37m-40.664-55.015 5.638-20.674m35.026 75.689 24.023 47.464-29.455-26.004m5.432-21.46-5.432 21.46m-16.779-118.471.581-51.872m-.581 51.872-12.815 21.322m12.815-21.322-15.924-32.258m292.915-227.954 26.618-33.249m-26.618 33.249-52.624-1.504m52.624 1.504-32.326 33.932m58.944-67.181-21.834-24.158m21.834 24.158 25.903-26.379m-25.903 26.379 24.877 33.283m-24.877-33.283 52.35 1.333m-131.592 30.412-50.198 3.862 15.547 32.633m34.651-36.495-16.232-26.653-38.99-1.538m55.222 28.191 20.298 35.436m-20.298-35.436-34.651 36.495m110.612 2.871-23.339-37.862 51.53.034zm0 0 24.912 45.105m-24.912-45.105 54.777 4.544m-54.777-4.544-55.665-3.931m55.665 3.931-31.848 40.013m-23.815-43.943-54.949 1.059m135.524 47.976 24.637 49.445m-24.637-49.445 56.074 8.782-31.437 40.663m-24.637-49.445 29.865-40.561m-29.865 40.561-56.76-5.092m56.76 5.092-30.959 44.867m60.824-85.428 26.243 49.343m-26.243-49.343 57.339 9.875m-57.339-9.875-26.619-42.372m26.619 42.372 29.25-36.734m-139.692 28.259 23.817 43.944m-23.817-43.944-34.58 42.646m58.397 1.298-58.397-1.264-55.049 2.905m113.446-1.641 25.801 49.959m-25.801-49.959-33.794 47.669m115.191 6.868 22.485 49.822m-22.485-49.822 55.049 11.619m-55.049-11.619-55.596-4.578m55.596 4.578-29.934 47.361m-25.662-51.939-59.595-2.29m59.595 2.29 25.662 51.939m-25.662-51.939-32.6 50.299m110.681 4.101 52.075 12.609m-52.075-12.609 32.564-38.203m-32.564 38.203-52.419-2.461m84.983-35.742 19.511 50.812m-19.511-50.812 53.034 13.873m-53.034-13.873-23.578-52.282m23.578 52.282 32.703-39.434m-117.686 75.176-58.262-1.64m162.756 16.71 48.391 13.088m-48.391-13.088 33.523-36.939M598.304 407.23l20.606-48.523m-20.606 48.523-17.427-36.563m17.427 36.563-33.248 12.404m33.248-12.404 37.999-2.699m-71.247 15.103-25.833 12.609m25.833-12.609-15.308-35.093m15.308 35.093 15.821-48.967m38.033-11.96 27.235-48.761m-27.235 48.761-14.318-38.92m14.318 38.92-38.033 11.96m38.033-11.96 43.226-5.364m-43.226 5.364 17.393 45.824m-55.426-33.864 23.715-50.88m-23.715 50.88-12.369-37.417m12.369 37.417-31.129 13.874m86.555 19.99 25.833-51.188m-25.833 51.188 48.044-2.016m-48.044 2.016 23.646 48.796m-13.804-143.381 32.188-45.175m-32.188 45.175-10.662-38.887m10.662 38.887-41.553 9.841m41.553-9.841 47.53-6.493m-47.53 6.493 15.991 43.397m-57.544-33.556 30.891-48.728m-30.891 48.728-8.713-37.52m8.713 37.52-36.084 13.463m93.628 20.093 31.539-49.89m-31.539 49.89 52.556-3.315m-52.556 3.315 22.211 49.172m-6.014-137.744 34.479-38.51m-34.479 38.51-7.347-36.358m7.347 36.358-42.85 6.288m42.85-6.288 50.027-5.877m-50.027 5.877 15.342 38.682m-58.192-32.394 35.503-42.646m-35.503 42.646-5.33-34.991m5.33 34.991-39.604 11.208m97.796 21.186 34.685-44.559m-34.685 44.559 21.017 46.575m-1.88-123.767-5.023-32.053m5.023 32.053-41.826 2.152m0 0 36.803-34.205m-36.803 34.205-2.939-30.514m2.939 30.514-40.833 7.655m98.207 22.826 20.365 41.586m-40.936-106.272-1.777-25.218-37.965 28.909m39.742-3.691 35.196-25.457m-35.196 25.457-39.742 3.691m74.938-29.148 9.021-21.699m382.374 155.991 17.43 42.543m0 0 12.33 48.42m-12.33-48.42-19.34-21.972m19.34 21.972-3.29 26.072m-16.05-48.044-26.76-19.785m26.76 19.785 16.05 48.044m-16.05-48.044-8.44 26.312m40.11 44.08-15.62-22.348m15.62 22.348-6.08 30.959m-9.54-53.307-24.49-21.732m24.49 21.732 9.54 53.307m-9.54-53.307-11.31 31.369m20.85 21.938-20.85-21.938m20.85 21.938 1.26 54.981m-1.26-54.981-15.17 34.957m16.43 20.024-16.43-19.99-26.28-21.698m42.71 41.688-7.03 52.35m7.03-52.35-19.37 36.153m16.47 28.532-4.13-12.335m0 0-12.34-16.197m-128.48-84.265-14.868-50.027m14.858 50.026 31.95-34.991m-31.95 34.991 39.1 20.708m-7.15-55.699-15.54-52.316m15.54 52.316-46.81-15.035m.002 0 31.268-37.28m-31.268 37.28L976.271 328.5m74.289 124.041-7.14-55.699m7.14 55.699 31.74-35.914m-31.74 35.914 36.8 22.108m-43.94-77.807 27.64-34.683m-27.64 34.683 38.88 19.785m-11.24-54.468 21.01-31.643m-21.01 31.643-17.15-52.111m17.15 52.111-43.19-17.632m43.19 17.632 36.29 19.341m-36.29-19.341 11.24 54.468m0 0 25.05-35.127m-25.05 35.127 5.06 58.022m4.71-144.133-19.2-49.513m19.2 49.513-38.16-20.468m0 0 18.96-29.045m-18.96 29.045-23.75-50.608m23.75 50.608-26.04 34.479m26.04-34.479-47.88-18.828m21.84 53.307-21.84-53.307m21.84 53.307L976.271 328.5m131.079 53-15.27-50.983m15.27 50.983 16.68-31.574m-16.68 31.574 29.86 21.527m-29.86-21.527 9.26 56.758m-24.53-107.741 13.63-26.688m-13.63 26.688 31.95 19.409m-18.32-46.097-21.19-45.174m21.19 45.174-32.84-22.826m32.84 22.826 18.32 46.097m0 0 13.18 53.101m-52.69-144.372-26.58-40.322m26.58 40.322-11.65 22.348m11.65-22.348-37.18-23.544m25.53 45.892-25.53-45.892m25.53 45.892-42.71-21.563m-489.98 57.51.821 32.429m-.821-32.429 23.167-18.862M540.18 316.95l25.799-48.796m-38.408 130.978 11.652 33.111m-11.652-33.111 22.177-14.591m-22.177 14.591 13.428-49.753-17.837 17.188m4.409 32.565-13.703 18.896m13.703-18.896-4.853 52.725m.444-85.29 17.017-49.616m-17.017 49.616-9.294 51.461m0 0 8.85 33.829m-8.85-33.829-1.23 54.571 10.08-20.742m16.505-19.614 10.525-47.702m-10.525 47.702-16.505 19.614m27.03-67.316-8.747-35.162m8.747 35.162 18.76-51.291m-45.79 118.607 3.109 53.58m294.59-338.941 47.737-2.221m-47.737 2.221 12.95-22.006m34.787 19.785 51.154 3.827m-51.154-3.827 15.786-20.572m-15.786 20.572-34.787-19.785m34.787 19.785 26.447 27.712m-61.234-47.497-45.379 6.492-35.982-3.93m81.361-2.562-33.728-12.336m33.728 12.336 50.573-.787m-50.573.787 14.182-17.462m71.759 41.074 51.084 10.832m-51.084-10.832 17.46-17.632m-17.46 17.632-35.368-24.399m0 0 52.828 6.767m-52.828-6.767 15.787-14.659m-15.787 14.659-36.391-16.675m47.052 64.959 24.672-23.885 29.865 31.813m-54.537-7.928 54.537 7.928m-54.537-7.928 28.396 37.588m-28.396-37.588-27.473 31.95m103.264-45.003 47.228 17.324m-47.228-17.324 17.359-13.737m-17.359 13.737-33.624-28.464m33.624 28.464 31.028 35.811m-31.028-35.811-21.254 20.981m-12.37-49.445 50.983 14.727m-50.983-14.727 15.719-10.764m-15.719 10.764-37.041-21.426m49.411 70.871 52.282 14.83m-52.282-14.83-26.141 29.66m94.623-33.317 40.32 22.075m-40.32-22.075-29.869-31.061m0 0 45.179 21.425m-45.179-21.425-35.264-25.491m48.933 75.039 16.2-18.487m-16.2 18.487 45.92 20.366m-45.92-20.366 28.74 44.695m-28.74-44.695-22.451 26.893m78.971-23.305 11.99-6.151m-11.99 6.151-25.02-31.71m25.02 31.71-10.6 16.778m-29.72-38.853 15.31-9.636m-15.31 9.636 29.72 38.853m0 0-17.18 24.329m39.77-47.258-37.01-25.559m-396.446 1.434 33.077-12.779m-33.077 12.779 42.099-29.762-9.022 16.983m-33.077 12.779-5.741 19.888m5.741-19.888-37.383 36.153m10.046-17.461-10.046 17.461m0 0 31.642-16.265m-31.642 16.265-4.99 25.389m4.99-25.389-33.112 43.944m103.572-92.876 36.46-6.254m-36.46 6.254L714.622 149l-8.611 20.024m-36.46 6.254-1.504 22.621m1.504-22.621-38.818 32.667m0 0 37.314-10.046m-37.314 10.046-.58 28.123m.58-28.123-36.632 41.654m111.91-80.575 45.995-21.972m-83.959 50.847-37.894 38.169m121.853-89.016-37.383 1.982m37.383-1.982 11.584-17.256m36.049 2.358-36.05-2.324m36.05 2.324-47.634 14.899m47.634-14.899 47.806-5.126m-47.804 5.126 13.156-13.19m0 0 34.581 8.03m-83.788 2.802-48.967 19.238m0 0-36.052 9.295m273.916-18.623-52.76-10.662m0 0-52.178-2.016m-251.67 155.239 34.272-46.199-36.05 13.531m1.778 32.668-1.778-32.668m1.778 32.668-27.371 50.983m27.371-50.983-32.532 15.821m30.754-48.489-30.754 48.489m30.754-48.489-28.122 18.555m2.529 65.096-5.159-35.162 2.63-29.934m2.529 65.096-27.507 16.129m22.346-51.291-22.346 51.291m489.159-89.939-24.13 31.78m24.13-31.78-51.191-17.802m27.061 49.582-27.061-49.582m27.061 49.582-29.759 37.28m29.759-37.28-54.944-15.036m27.883-34.546-29.866-41.723m29.866 41.723-27.883 34.546m27.883-34.546-55.972-12.063m53.274 98.925-25.185-52.316m25.185 52.316-56.281-12.848m31.096-39.468-28.089-46.609m28.089 46.609-31.096 39.468m3.007-86.077-55.869-5.638M521.352 355.939l-.034-.444-.069.41m615.961 47.122 5.68 56.895m-5.68-56.895-20.6 35.231m26.28 21.664-2.94 56.177m2.94-56.177-24.81 36.529m-1.47-58.193-34.31-21.597m34.31 21.597 1.47 58.193m-1.47-58.193-29.25 36.391m52.59 41.45-21.87-19.648m0 0-30.72-21.802M748.725 300.48l24.603 48.967m-24.603-48.967-34.035 49.548 58.638-.581m0 0 26.995 52.589m-26.995-52.589-32.873 52.179m-25.763-51.598 25.763 51.598m-25.763-51.598-30.345 52.487m115.976-.479-59.868-.41m59.868.41-31.505 51.701m-28.363-52.111-56.108.889m56.108-.889 28.363 52.111m-84.471-51.222-24.398 50.812M584.875 628.59l31.984 44.559m-31.984-44.559-2.084 19.853m-27.37-45.857 27.37 45.857m34.068 24.706-34.068-24.706m34.068 24.706 37.827 37.69m-37.827-37.69.854 16.3m-34.922-41.006 34.922 41.006m36.973 21.39-36.973-21.39m76.066-95.201 55.699 3.212m-55.699-3.212 34.684 46.678m21.015-43.466-21.015 43.466m21.015-43.466 59.149-1.298m-59.149 1.298 36.766 44.73m-57.781-1.264 57.781 1.264m-57.781-1.264 37.519 40.39m42.645-85.154-22.383 46.028m0 0-20.262 39.126m0 0 37.041 31.403m239.437-39.639-48.592 26.586m48.592-26.586-25.01-14.727m-23.582 41.313 23.582-41.313m-23.582 41.313-53.443 19.579m53.443-19.579-28.943-17.667m52.525-23.646-52.525 23.646m52.525-23.646-31.066-21.494m-21.459 45.14-24.502 37.246"/><g filter="url(#ai)"><circle cx="538.264" cy="310.673" r="2.841" fill="#fff" transform="rotate(148.655 538.264 310.673)"/></g></g><defs><filter id="b" width="946.73" height="534.082" x="442.379" y="-167.289" color-interpolation-filters="sRGB" filterUnits="userSpaceOnUse"><feFlood flood-opacity="0" result="BackgroundImageFix"/><feBlend in="SourceGraphic" in2="BackgroundImageFix" result="shape"/><feGaussianBlur result="effect1_foregroundBlur_3056_33576" stdDeviation="41.5"/></filter><filter id="c" width="577.976" height="371.715" x="811.397" y="-99.99" color-interpolation-filters="sRGB" filterUnits="userSpaceOnUse"><feFlood flood-opacity="0" result="BackgroundImageFix"/><feBlend in="SourceGraphic" in2="BackgroundImageFix" result="shape"/><feGaussianBlur result="effect1_foregroundBlur_3056_33576" stdDeviation="9.665"/></filter><filter id="d" width="408.285" height="213.301" x="915.393" y="21.549" color-interpolation-filters="sRGB" filterUnits="userSpaceOnUse"><feFlood flood-opacity="0" result="BackgroundImageFix"/><feBlend in="SourceGraphic" in2="BackgroundImageFix" result="shape"/><feGaussianBlur result="effect1_foregroundBlur_3056_33576" stdDeviation="26.165"/></filter><filter id="e" width="6.008" height="6.008" x="638.988" y="150.699" color-interpolation-filters="sRGB" filterUnits="userSpaceOnUse"><feFlood flood-opacity="0" result="BackgroundImageFix"/><feColorMatrix in="SourceAlpha" result="hardAlpha" values="0 0 0 0 0 0 0 0 0 0 0 0 0 0 0 0 0 0 127 0"/><feOffset/><feGaussianBlur stdDeviation="1"/><feComposite in2="hardAlpha" operator="out"/><feColorMatrix values="0 0 0 0 1 0 0 0 0 1 0 0 0 0 1 0 0 0 0.52 0"/><feBlend in2="BackgroundImageFix" result="effect1_dropShadow_3056_33576"/><feBlend in="SourceGraphic" in2="effect1_dropShadow_3056_33576" result="shape"/></filter><filter id="f" width="6.008" height="6.008" x="624.926" y="61.457" color-interpolation-filters="sRGB" filterUnits="userSpaceOnUse"><feFlood flood-opacity="0" result="BackgroundImageFix"/><feColorMatrix in="SourceAlpha" result="hardAlpha" values="0 0 0 0 0 0 0 0 0 0 0 0 0 0 0 0 0 0 127 0"/><feOffset/><feGaussianBlur stdDeviation="1"/><feComposite in2="hardAlpha" operator="out"/><feColorMatrix values="0 0 0 0 1 0 0 0 0 1 0 0 0 0 1 0 0 0 0.52 0"/><feBlend in2="BackgroundImageFix" result="effect1_dropShadow_3056_33576"/><feBlend in="SourceGraphic" in2="effect1_dropShadow_3056_33576" result="shape"/></filter><filter id="g" width="6.008" height="6.008" x="663.965" y="83.477" color-interpolation-filters="sRGB" filterUnits="userSpaceOnUse"><feFlood flood-opacity="0" result="BackgroundImageFix"/><feColorMatrix in="SourceAlpha" result="hardAlpha" values="0 0 0 0 0 0 0 0 0 0 0 0 0 0 0 0 0 0 127 0"/><feOffset/><feGaussianBlur stdDeviation="1"/><feComposite in2="hardAlpha" operator="out"/><feColorMatrix values="0 0 0 0 1 0 0 0 0 1 0 0 0 0 1 0 0 0 0.52 0"/><feBlend in2="BackgroundImageFix" result="effect1_dropShadow_3056_33576"/><feBlend in="SourceGraphic" in2="effect1_dropShadow_3056_33576" result="shape"/></filter><filter id="h" width="6.008" height="6.008" x="415.926" y="120.434" color-interpolation-filters="sRGB" filterUnits="userSpaceOnUse"><feFlood flood-opacity="0" result="BackgroundImageFix"/><feColorMatrix in="SourceAlpha" result="hardAlpha" values="0 0 0 0 0 0 0 0 0 0 0 0 0 0 0 0 0 0 127 0"/><feOffset/><feGaussianBlur stdDeviation="1"/><feComposite in2="hardAlpha" operator="out"/><feColorMatrix values="0 0 0 0 1 0 0 0 0 1 0 0 0 0 1 0 0 0 0.52 0"/><feBlend in2="BackgroundImageFix" result="effect1_dropShadow_3056_33576"/><feBlend in="SourceGraphic" in2="effect1_dropShadow_3056_33576" result="shape"/></filter><filter id="i" width="6.008" height="6.008" x="1211.44" y="294.156" color-interpolation-filters="sRGB" filterUnits="userSpaceOnUse"><feFlood flood-opacity="0" result="BackgroundImageFix"/><feColorMatrix in="SourceAlpha" result="hardAlpha" values="0 0 0 0 0 0 0 0 0 0 0 0 0 0 0 0 0 0 127 0"/><feOffset/><feGaussianBlur stdDeviation="1"/><feComposite in2="hardAlpha" operator="out"/><feColorMatrix values="0 0 0 0 1 0 0 0 0 1 0 0 0 0 1 0 0 0 0.52 0"/><feBlend in2="BackgroundImageFix" result="effect1_dropShadow_3056_33576"/><feBlend in="SourceGraphic" in2="effect1_dropShadow_3056_33576" result="shape"/></filter><filter id="j" width="6.008" height="6.012" x="1261.69" y="212.652" color-interpolation-filters="sRGB" filterUnits="userSpaceOnUse"><feFlood flood-opacity="0" result="BackgroundImageFix"/><feColorMatrix in="SourceAlpha" result="hardAlpha" values="0 0 0 0 0 0 0 0 0 0 0 0 0 0 0 0 0 0 127 0"/><feOffset/><feGaussianBlur stdDeviation="1"/><feComposite in2="hardAlpha" operator="out"/><feColorMatrix values="0 0 0 0 1 0 0 0 0 1 0 0 0 0 1 0 0 0 0.52 0"/><feBlend in2="BackgroundImageFix" result="effect1_dropShadow_3056_33576"/><feBlend in="SourceGraphic" in2="effect1_dropShadow_3056_33576" result="shape"/></filter><filter id="k" width="6.008" height="6.012" x="1217.83" y="221.898" color-interpolation-filters="sRGB" filterUnits="userSpaceOnUse"><feFlood flood-opacity="0" result="BackgroundImageFix"/><feColorMatrix in="SourceAlpha" result="hardAlpha" values="0 0 0 0 0 0 0 0 0 0 0 0 0 0 0 0 0 0 127 0"/><feOffset/><feGaussianBlur stdDeviation="1"/><feComposite in2="hardAlpha" operator="out"/><feColorMatrix values="0 0 0 0 1 0 0 0 0 1 0 0 0 0 1 0 0 0 0.52 0"/><feBlend in2="BackgroundImageFix" result="effect1_dropShadow_3056_33576"/><feBlend in="SourceGraphic" in2="effect1_dropShadow_3056_33576" result="shape"/></filter><filter id="l" width="6.008" height="6.012" x="1133.84" y="46.484" color-interpolation-filters="sRGB" filterUnits="userSpaceOnUse"><feFlood flood-opacity="0" result="BackgroundImageFix"/><feColorMatrix in="SourceAlpha" result="hardAlpha" values="0 0 0 0 0 0 0 0 0 0 0 0 0 0 0 0 0 0 127 0"/><feOffset/><feGaussianBlur stdDeviation="1"/><feComposite in2="hardAlpha" operator="out"/><feColorMatrix values="0 0 0 0 1 0 0 0 0 1 0 0 0 0 1 0 0 0 0.52 0"/><feBlend in2="BackgroundImageFix" result="effect1_dropShadow_3056_33576"/><feBlend in="SourceGraphic" in2="effect1_dropShadow_3056_33576" result="shape"/></filter><filter id="m" width="906.539" height="612.816" x="735.406" y="-105.133" color-interpolation-filters="sRGB" filterUnits="userSpaceOnUse"><feFlood flood-opacity="0" result="BackgroundImageFix"/><feBlend in="SourceGraphic" in2="BackgroundImageFix" result="shape"/><feGaussianBlur result="effect1_foregroundBlur_3056_33576" stdDeviation="82"/></filter><filter id="n" width="1686.23" height="1358.72" x="420.21" y="-570.442" color-interpolation-filters="sRGB" filterUnits="userSpaceOnUse"><feFlood flood-opacity="0" result="BackgroundImageFix"/><feBlend in="SourceGraphic" in2="BackgroundImageFix" result="shape"/><feGaussianBlur result="effect1_foregroundBlur_3056_33576" stdDeviation="220.479"/></filter><filter id="r" width="926.368" height="926.371" x="326.293" y="19.5" color-interpolation-filters="sRGB" filterUnits="userSpaceOnUse"><feFlood flood-opacity="0" result="BackgroundImageFix"/><feBlend in="SourceGraphic" in2="BackgroundImageFix" result="shape"/><feGaussianBlur result="effect1_foregroundBlur_3056_33576" stdDeviation="51.365"/></filter><filter id="u" width="1225.39" height="828.356" x="-37.873" y="-340.479" color-interpolation-filters="sRGB" filterUnits="userSpaceOnUse"><feFlood flood-opacity="0" result="BackgroundImageFix"/><feBlend in="SourceGraphic" in2="BackgroundImageFix" result="shape"/><feGaussianBlur result="effect1_foregroundBlur_3056_33576" stdDeviation="110.841"/></filter><filter id="x" width="75.852" height="123.711" x="464.754" y="306.922" color-interpolation-filters="sRGB" filterUnits="userSpaceOnUse"><feFlood flood-opacity="0" result="BackgroundImageFix"/><feBlend in="SourceGraphic" in2="BackgroundImageFix" result="shape"/><feGaussianBlur result="effect1_foregroundBlur_3056_33576" stdDeviation="2.5"/></filter><filter id="z" width="308.371" height="184.281" x="464.758" y="246.352" color-interpolation-filters="sRGB" filterUnits="userSpaceOnUse"><feFlood flood-opacity="0" result="BackgroundImageFix"/><feBlend in="SourceGraphic" in2="BackgroundImageFix" result="shape"/><feGaussianBlur result="effect1_foregroundBlur_3056_33576" stdDeviation="2.5"/></filter><filter id="G" width="192.176" height="98.969" x="767.391" y="25.559" color-interpolation-filters="sRGB" filterUnits="userSpaceOnUse"><feFlood flood-opacity="0" result="BackgroundImageFix"/><feBlend in="SourceGraphic" in2="BackgroundImageFix" result="shape"/><feGaussianBlur result="effect1_foregroundBlur_3056_33576" stdDeviation="2.5"/></filter><filter id="K" width="32.703" height="88.484" x="1078.1" y="101.836" color-interpolation-filters="sRGB" filterUnits="userSpaceOnUse"><feFlood flood-opacity="0" result="BackgroundImageFix"/><feBlend in="SourceGraphic" in2="BackgroundImageFix" result="shape"/><feGaussianBlur result="effect1_foregroundBlur_3056_33576" stdDeviation="2.5"/></filter><filter id="M" width="100.855" height="92.32" x="1009.95" y="101.836" color-interpolation-filters="sRGB" filterUnits="userSpaceOnUse"><feFlood flood-opacity="0" result="BackgroundImageFix"/><feBlend in="SourceGraphic" in2="BackgroundImageFix" result="shape"/><feGaussianBlur result="effect1_foregroundBlur_3056_33576" stdDeviation="2.5"/></filter><filter id="T" width="204.605" height="176.824" x="672.059" y="17.664" color-interpolation-filters="sRGB" filterUnits="userSpaceOnUse"><feFlood flood-opacity="0" result="BackgroundImageFix"/><feBlend in="SourceGraphic" in2="BackgroundImageFix" result="shape"/><feGaussianBlur result="effect1_foregroundBlur_3056_33576" stdDeviation="2.5"/></filter><filter id="V" width="310.641" height="225.898" x="672.059" y="17.664" color-interpolation-filters="sRGB" filterUnits="userSpaceOnUse"><feFlood flood-opacity="0" result="BackgroundImageFix"/><feBlend in="SourceGraphic" in2="BackgroundImageFix" result="shape"/><feGaussianBlur result="effect1_foregroundBlur_3056_33576" stdDeviation="2.5"/></filter><filter id="X" width="11.55" height="11.55" x="1127.13" y="229.52" color-interpolation-filters="sRGB" filterUnits="userSpaceOnUse"><feFlood flood-opacity="0" result="BackgroundImageFix"/><feColorMatrix in="SourceAlpha" result="hardAlpha" values="0 0 0 0 0 0 0 0 0 0 0 0 0 0 0 0 0 0 127 0"/><feOffset/><feGaussianBlur stdDeviation="1.467"/><feComposite in2="hardAlpha" operator="out"/><feColorMatrix values="0 0 0 0 1 0 0 0 0 1 0 0 0 0 1 0 0 0 0.52 0"/><feBlend in2="BackgroundImageFix" result="effect1_dropShadow_3056_33576"/><feBlend in="SourceGraphic" in2="effect1_dropShadow_3056_33576" result="shape"/></filter><filter id="Y" width="17.684" height="17.684" x="1008.66" y="222.844" color-interpolation-filters="sRGB" filterUnits="userSpaceOnUse"><feFlood flood-opacity="0" result="BackgroundImageFix"/><feColorMatrix in="SourceAlpha" result="hardAlpha" values="0 0 0 0 0 0 0 0 0 0 0 0 0 0 0 0 0 0 127 0"/><feOffset/><feGaussianBlur stdDeviation="3"/><feComposite in2="hardAlpha" operator="out"/><feColorMatrix values="0 0 0 0 1 0 0 0 0 1 0 0 0 0 1 0 0 0 0.52 0"/><feBlend in2="BackgroundImageFix" result="effect1_dropShadow_3056_33576"/><feBlend in="SourceGraphic" in2="effect1_dropShadow_3056_33576" result="shape"/></filter><filter id="Z" width="16.164" height="16.164" x="1005.51" y="183.148" color-interpolation-filters="sRGB" filterUnits="userSpaceOnUse"><feFlood flood-opacity="0" result="BackgroundImageFix"/><feColorMatrix in="SourceAlpha" result="hardAlpha" values="0 0 0 0 0 0 0 0 0 0 0 0 0 0 0 0 0 0 127 0"/><feOffset/><feGaussianBlur stdDeviation="3"/><feComposite in2="hardAlpha" operator="out"/><feColorMatrix values="0 0 0 0 1 0 0 0 0 1 0 0 0 0 1 0 0 0 0.52 0"/><feBlend in2="BackgroundImageFix" result="effect1_dropShadow_3056_33576"/><feBlend in="SourceGraphic" in2="effect1_dropShadow_3056_33576" result="shape"/></filter><filter id="aa" width="16.164" height="16.164" x="1077.78" y="104.902" color-interpolation-filters="sRGB" filterUnits="userSpaceOnUse"><feFlood flood-opacity="0" result="BackgroundImageFix"/><feColorMatrix in="SourceAlpha" result="hardAlpha" values="0 0 0 0 0 0 0 0 0 0 0 0 0 0 0 0 0 0 127 0"/><feOffset/><feGaussianBlur stdDeviation="3"/><feComposite in2="hardAlpha" operator="out"/><feColorMatrix values="0 0 0 0 1 0 0 0 0 1 0 0 0 0 1 0 0 0 0.52 0"/><feBlend in2="BackgroundImageFix" result="effect1_dropShadow_3056_33576"/><feBlend in="SourceGraphic" in2="effect1_dropShadow_3056_33576" result="shape"/></filter><filter id="ab" width="17.684" height="17.684" x="946.414" y="113.965" color-interpolation-filters="sRGB" filterUnits="userSpaceOnUse"><feFlood flood-opacity="0" result="BackgroundImageFix"/><feColorMatrix in="SourceAlpha" result="hardAlpha" values="0 0 0 0 0 0 0 0 0 0 0 0 0 0 0 0 0 0 127 0"/><feOffset/><feGaussianBlur stdDeviation="3"/><feComposite in2="hardAlpha" operator="out"/><feColorMatrix values="0 0 0 0 1 0 0 0 0 1 0 0 0 0 1 0 0 0 0.52 0"/><feBlend in2="BackgroundImageFix" result="effect1_dropShadow_3056_33576"/><feBlend in="SourceGraphic" in2="effect1_dropShadow_3056_33576" result="shape"/></filter><filter id="ac" width="17.684" height="17.684" x="866.828" y="46.082" color-interpolation-filters="sRGB" filterUnits="userSpaceOnUse"><feFlood flood-opacity="0" result="BackgroundImageFix"/><feColorMatrix in="SourceAlpha" result="hardAlpha" values="0 0 0 0 0 0 0 0 0 0 0 0 0 0 0 0 0 0 127 0"/><feOffset/><feGaussianBlur stdDeviation="3"/><feComposite in2="hardAlpha" operator="out"/><feColorMatrix values="0 0 0 0 1 0 0 0 0 1 0 0 0 0 1 0 0 0 0.52 0"/><feBlend in2="BackgroundImageFix" result="effect1_dropShadow_3056_33576"/><feBlend in="SourceGraphic" in2="effect1_dropShadow_3056_33576" result="shape"/></filter><filter id="ad" width="19.684" height="19.684" x="760.391" y="241.77" color-interpolation-filters="sRGB" filterUnits="userSpaceOnUse"><feFlood flood-opacity="0" result="BackgroundImageFix"/><feColorMatrix in="SourceAlpha" result="hardAlpha" values="0 0 0 0 0 0 0 0 0 0 0 0 0 0 0 0 0 0 127 0"/><feOffset/><feGaussianBlur stdDeviation="3.5"/><feComposite in2="hardAlpha" operator="out"/><feColorMatrix values="0 0 0 0 1 0 0 0 0 1 0 0 0 0 1 0 0 0 0.52 0"/><feBlend in2="BackgroundImageFix" result="effect1_dropShadow_3056_33576"/><feBlend in="SourceGraphic" in2="effect1_dropShadow_3056_33576" result="shape"/></filter><filter id="af" width="85.625" height="93.641" x="935.391" y="194.582" color-interpolation-filters="sRGB" filterUnits="userSpaceOnUse"><feFlood flood-opacity="0" result="BackgroundImageFix"/><feBlend in="SourceGraphic" in2="BackgroundImageFix" result="shape"/><feGaussianBlur result="effect1_foregroundBlur_3056_33576" stdDeviation="9"/></filter><filter id="ai" width="19.684" height="19.684" x="528.422" y="300.832" color-interpolation-filters="sRGB" filterUnits="userSpaceOnUse"><feFlood flood-opacity="0" result="BackgroundImageFix"/><feColorMatrix in="SourceAlpha" result="hardAlpha" values="0 0 0 0 0 0 0 0 0 0 0 0 0 0 0 0 0 0 127 0"/><feOffset/><feGaussianBlur stdDeviation="3.5"/><feComposite in2="hardAlpha" operator="out"/><feColorMatrix values="0 0 0 0 1 0 0 0 0 1 0 0 0 0 1 0 0 0 0.52 0"/><feBlend in2="BackgroundImageFix" result="effect1_dropShadow_3056_33576"/><feBlend in="SourceGraphic" in2="effect1_dropShadow_3056_33576" result="shape"/></filter><linearGradient id="o" x1="1263.33" x2="1263.33" y1="-129.484" y2="347.316" gradientUnits="userSpaceOnUse"><stop stop-color="#6f13a4"/><stop offset="1" stop-color="#6f13a4" stop-opacity="0"/></linearGradient><linearGradient id="q" x1="606.554" x2="501.33" y1="115.87" y2="177.959" gradientUnits="userSpaceOnUse"><stop stop-color="#a259ff"/><stop offset="1" stop-color="#fff" stop-opacity="0"/></linearGradient><linearGradient id="s" x1="436.58" x2="131.263" y1="-68.293" y2="461.019" gradientUnits="userSpaceOnUse"><stop stop-color="#1c0b39"/><stop offset="1" stop-color="#030a0c"/></linearGradient><linearGradient id="v" x1="747.443" x2="518.774" y1="255.306" y2="262.969" gradientUnits="userSpaceOnUse"><stop stop-color="#fff"/><stop offset="1" stop-color="#d9d9d9" stop-opacity="0"/></linearGradient><linearGradient id="w" x1="513.203" x2="448.492" y1="258.122" y2="413.598" gradientUnits="userSpaceOnUse"><stop stop-color="#fff"/><stop offset="1" stop-color="#d9d9d9" stop-opacity="0"/></linearGradient><linearGradient id="y" x1="529.522" x2="481.956" y1="312.015" y2="310.282" gradientUnits="userSpaceOnUse"><stop stop-color="#edc6ff"/><stop offset="1" stop-color="#d9d9d9" stop-opacity="0"/></linearGradient><linearGradient id="A" x1="744.489" x2="557.117" y1="252.559" y2="195.083" gradientUnits="userSpaceOnUse"><stop stop-color="#edc6ff"/><stop offset="1" stop-color="#d9d9d9" stop-opacity="0"/></linearGradient><linearGradient id="B" x1="1080.54" x2="1109.64" y1="241.402" y2="307.027" gradientUnits="userSpaceOnUse"><stop stop-color="#fff"/><stop offset="1" stop-color="#d9d9d9" stop-opacity="0"/></linearGradient><linearGradient id="C" x1="1214.46" x2="1200.48" y1="274.589" y2="433.058" gradientUnits="userSpaceOnUse"><stop stop-color="#fff"/><stop offset="1" stop-color="#d9d9d9" stop-opacity="0"/></linearGradient><linearGradient id="D" x1="1083.73" x2="1046.37" y1="292.111" y2="384.252" gradientUnits="userSpaceOnUse"><stop stop-color="#fff"/><stop offset="1" stop-color="#d9d9d9" stop-opacity="0"/></linearGradient><linearGradient id="E" x1="690.461" x2="586.31" y1="97.954" y2="212.093" gradientUnits="userSpaceOnUse"><stop stop-color="#fff"/><stop offset="1" stop-color="#d9d9d9" stop-opacity="0"/></linearGradient><linearGradient id="F" x1="730.479" x2="894.337" y1="170.964" y2="259.812" gradientUnits="userSpaceOnUse"><stop stop-color="#d9d9d9" stop-opacity="0"/><stop offset="1" stop-color="#fff"/></linearGradient><linearGradient id="H" x1="877.616" x2="806.021" y1="68.413" y2="38.578" gradientUnits="userSpaceOnUse"><stop stop-color="#edc6ff"/><stop offset="1" stop-color="#d9d9d9" stop-opacity="0"/></linearGradient><linearGradient id="I" x1="1071.84" x2="1029.68" y1="134.876" y2="143.925" gradientUnits="userSpaceOnUse"><stop stop-color="#d9d9d9" stop-opacity="0"/><stop offset="1" stop-color="#fff"/></linearGradient><linearGradient id="J" x1="1085.18" x2="1108.72" y1="167.352" y2="138.59" gradientUnits="userSpaceOnUse"><stop stop-color="#d9d9d9" stop-opacity="0"/><stop offset="1" stop-color="#fff"/></linearGradient><linearGradient id="L" x1="1089.84" x2="1059.77" y1="107.562" y2="155.478" gradientUnits="userSpaceOnUse"><stop stop-color="#edc6ff"/><stop offset="1" stop-color="#d9d9d9" stop-opacity="0"/></linearGradient><linearGradient id="N" x1="1018.34" x2="1073.25" y1="186.736" y2="182.229" gradientUnits="userSpaceOnUse"><stop stop-color="#edc6ff"/><stop offset="1" stop-color="#d9d9d9" stop-opacity="0"/></linearGradient><linearGradient id="O" x1="974.172" x2="993.863" y1="87.2" y2="106.093" gradientUnits="userSpaceOnUse"><stop stop-color="#d9d9d9" stop-opacity="0"/><stop offset="1" stop-color="#fff"/></linearGradient><linearGradient id="P" x1="821.941" x2="921.477" y1="137.86" y2="106.945" gradientUnits="userSpaceOnUse"><stop stop-color="#d9d9d9" stop-opacity="0"/><stop offset="1" stop-color="#fff"/></linearGradient><linearGradient id="Q" x1="981.01" x2="803.746" y1="240.183" y2="406.796" gradientUnits="userSpaceOnUse"><stop stop-color="#fff"/><stop offset="1" stop-color="#d9d9d9" stop-opacity="0"/></linearGradient><linearGradient id="R" x1="967.76" x2="852.134" y1="211.202" y2="49.37" gradientUnits="userSpaceOnUse"><stop stop-color="#fff"/><stop offset="1" stop-color="#d9d9d9" stop-opacity="0"/></linearGradient><linearGradient id="S" x1="859.593" x2="683.408" y1="55.908" y2="114.959" gradientUnits="userSpaceOnUse"><stop stop-color="#fff"/><stop offset="1" stop-color="#d9d9d9" stop-opacity="0"/></linearGradient><linearGradient id="U" x1="783.91" x2="687.642" y1="84.062" y2="75.215" gradientUnits="userSpaceOnUse"><stop stop-color="#edc6ff"/><stop offset="1" stop-color="#d9d9d9" stop-opacity="0"/></linearGradient><linearGradient id="W" x1="955.642" x2="852.87" y1="194.146" y2="65.575" gradientUnits="userSpaceOnUse"><stop stop-color="#edc6ff"/><stop offset="1" stop-color="#d9d9d9" stop-opacity="0"/></linearGradient><linearGradient id="ae" x1="1025.36" x2="1034.97" y1="224.519" y2="315.663" gradientUnits="userSpaceOnUse"><stop stop-color="#fff"/><stop offset="1" stop-color="#d9d9d9" stop-opacity="0"/></linearGradient><linearGradient id="ag" x1="968.286" x2="987.486" y1="230.231" y2="250.657" gradientUnits="userSpaceOnUse"><stop stop-color="#321458"/><stop offset=".628" stop-color="#1b0d35"/></linearGradient><radialGradient id="t" cx="0" cy="0" r="1" gradientTransform="rotate(45.106 189.646 1346.91)scale(240.032 196.352)" gradientUnits="userSpaceOnUse"><stop stop-color="#fbf3ff" stop-opacity=".99"/><stop offset=".078" stop-color="#e0a2fd" stop-opacity=".69"/><stop offset="1" stop-color="#8626ff" stop-opacity=".05"/></radialGradient><radialGradient id="ah" cx="0" cy="0" r="1" gradientTransform="rotate(41.141 255.443 1436.738)scale(192.994 90.3581)" gradientUnits="userSpaceOnUse"><stop stop-color="#fff"/><stop offset="1" stop-color="#8626ff" stop-opacity=".05"/></radialGradient><clipPath id="a"><path fill="#fff" d="M.64.926h1368v398H.64z"/></clipPath></defs></svg>