<svg xmlns="http://www.w3.org/2000/svg" width="467" height="399" fill="none" viewBox="0 0 467 399"><g clip-path="url(#a)"><path fill="#030a0c" d="M0 .926h467v398H0z"/><g filter="url(#b)"><path fill="#7032bf" fill-opacity=".1" d="M141.57 34.762c-22.199 11.2-12.983 38.252-34.061 62.302-18.743 21.385-69.148 38.817-69.148 64.772 0 42.014 176.485 25.493 274.624 42.668 178.183 35.268 139.234 108.261 200.842-15.601 6.026-13.609 39.208-83.963-162.984-83.963-107.663 0-158.868-92.344-209.273-70.178"/></g><g filter="url(#c)"><path fill="#080316" d="M230.654 159.101c-15.1 23.328 9.845 56.301 100.884 35.122 62.838-14.618 106.427 55.175 150.651 43.215 62.806-16.985 83.861-86.872 74.677-146.229-8.509-55-98.46-78.577-108.021-35.082-14.602 66.427-48.971 63.78-84.839 65.96-39.447 2.397-27.726 28.92-48.174 27.247-39.138-3.202-74.652-6.494-85.178 9.767"/></g><g filter="url(#d)"><path fill="#a91bec" fill-opacity=".1" d="M311.01 173.999c-1.863-24.338 70.01-40.834 119.665-44.634 49.655-3.801 65.203 12.041 67.066 36.378 1.862 24.338-.695 44.815-81.261 15.732-44.566-14.993-103.607 16.862-105.47-7.476"/></g><circle cx="148.604" cy="119.286" r="1.206" fill="#cacbdc" fill-opacity=".15" transform="rotate(-112.296 148.604 119.286)"/><circle cx="70.83" cy="169.278" r="1.206" fill="#cacbdc" fill-opacity=".15" transform="rotate(-112.296 70.83 169.278)"/><circle cx="89.076" cy="159.708" r="1.206" fill="#cacbdc" fill-opacity=".15" transform="rotate(-112.296 89.076 159.708)"/><circle cx="216.26" cy="88.45" r="1.206" fill="#cacbdc" fill-opacity=".15" transform="rotate(-112.296 216.26 88.45)"/><circle cx="196.811" cy="66.758" r="1.206" fill="#cacbdc" fill-opacity=".15" transform="rotate(-112.296 196.811 66.758)"/><circle cx="121.947" cy="117.298" r="1.206" fill="#cacbdc" fill-opacity=".15" transform="rotate(-112.296 121.947 117.298)"/><circle cx="138.979" cy="109.68" r=".619" fill="#cacbdc" fill-opacity=".15" transform="rotate(-112.296 138.979 109.68)"/><g filter="url(#e)"><circle cx="110.226" cy="178.003" r=".619" fill="#fff" fill-opacity=".41" shape-rendering="crispEdges" transform="rotate(-65.668 110.226 178.003)"/></g><circle cx="130.721" cy="114.407" r=".619" fill="#cacbdc" fill-opacity=".15" transform="rotate(-112.296 130.721 114.407)"/><circle cx="139.478" cy="134.145" r=".619" fill="#cacbdc" fill-opacity=".15" transform="rotate(-34.433 139.478 134.145)"/><circle cx="120.682" cy="121.708" r=".619" fill="#cacbdc" fill-opacity=".15" transform="rotate(-112.296 120.682 121.708)"/><circle cx="135.974" cy="123.661" r=".619" fill="#cacbdc" fill-opacity=".15" transform="rotate(-34.433 135.974 123.661)"/><circle cx="198.72" cy="77.008" r=".619" fill="#cacbdc" fill-opacity=".15" transform="rotate(-34.433 198.72 77.008)"/><circle cx="167.205" cy="59.801" r=".619" fill="#cacbdc" fill-opacity=".15" transform="rotate(-34.433 167.205 59.801)"/><circle cx="203.814" cy="18.715" r=".619" fill="#cacbdc" fill-opacity=".15" transform="rotate(-34.433 203.814 18.715)"/><circle cx="239.06" cy="64.883" r=".619" fill="#cacbdc" fill-opacity=".15" transform="rotate(-34.433 239.06 64.883)"/><g filter="url(#f)"><circle cx="101.561" cy="123.001" r=".619" fill="#fff" fill-opacity=".41" shape-rendering="crispEdges" transform="rotate(-143.532 101.561 123.001)"/></g><g filter="url(#g)"><circle cx="125.62" cy="136.572" r=".619" fill="#fff" fill-opacity=".41" shape-rendering="crispEdges" transform="rotate(-143.532 125.62 136.572)"/></g><g filter="url(#h)"><circle cx="207.526" cy="49.068" r=".619" fill="#fff" fill-opacity=".41" shape-rendering="crispEdges" transform="rotate(-143.532 207.526 49.068)"/></g><circle cx="1.206" cy="1.206" r="1.206" fill="#cacbdc" fill-opacity=".15" transform="rotate(129.817 178.34 205.544)scale(-1 1)"/><circle cx="1.206" cy="1.206" r="1.206" fill="#cacbdc" fill-opacity=".15" transform="rotate(129.817 162.375 167.722)scale(-1 1)"/><circle cx="1.206" cy="1.206" r="1.206" fill="#cacbdc" fill-opacity=".15" transform="rotate(129.817 178.386 166.18)scale(-1 1)"/><circle cx=".619" cy=".619" r=".619" fill="#cacbdc" fill-opacity=".15" transform="rotate(129.817 185.998 204.805)scale(-1 1)"/><circle cx=".619" cy=".619" r=".619" fill="#cacbdc" fill-opacity=".15" transform="rotate(129.817 189.078 107.456)scale(-1 1)"/><g filter="url(#i)"><circle cx=".619" cy=".619" r=".619" fill="#fff" fill-opacity=".41" shape-rendering="crispEdges" transform="rotate(83.19 81.491 394.676)scale(-1 1)"/></g><circle cx=".619" cy=".619" r=".619" fill="#cacbdc" fill-opacity=".15" transform="rotate(51.954 6.529 575.034)scale(-1 1)"/><circle cx=".619" cy=".619" r=".619" fill="#cacbdc" fill-opacity=".15" transform="rotate(51.954 18.954 577.234)scale(-1 1)"/><circle cx=".619" cy=".619" r=".619" fill="#cacbdc" fill-opacity=".15" transform="rotate(51.954 61.1 498.554)scale(-1 1)"/><circle cx=".619" cy=".619" r=".619" fill="#cacbdc" fill-opacity=".15" transform="rotate(51.954 85.82 531.252)scale(-1 1)"/><circle cx=".619" cy=".619" r=".619" fill="#cacbdc" fill-opacity=".15" transform="rotate(51.954 126.065 483.012)scale(-1 1)"/><circle cx=".619" cy=".619" r=".619" fill="#cacbdc" fill-opacity=".15" transform="rotate(51.954 68.02 450.973)scale(-1 1)"/><g filter="url(#j)"><circle cx=".619" cy=".619" r=".619" fill="#fff" fill-opacity=".41" shape-rendering="crispEdges" transform="rotate(161.053 214.713 150.265)scale(-1 1)"/></g><g filter="url(#k)"><circle cx=".619" cy=".619" r=".619" fill="#fff" fill-opacity=".41" shape-rendering="crispEdges" transform="rotate(161.053 197.851 91.893)scale(-1 1)"/></g><g filter="url(#l)"><circle cx=".619" cy=".619" r=".619" fill="#fff" fill-opacity=".41" shape-rendering="crispEdges" transform="rotate(161.053 188.374 32.273)scale(-1 1)"/></g><g filter="url(#m)" style="mix-blend-mode:overlay"><ellipse cx="447.146" cy="207.322" fill="#c448f0" fill-opacity=".9" rx="180.197" ry="83.705" transform="rotate(9.49 447.146 207.322)"/></g><g filter="url(#n)" opacity=".71"><ellipse cx="493.151" cy="150.401" fill="url(#o)" rx="247.846" ry="146.924"/></g><mask id="p" width="412" height="412" x="26" y="152" maskUnits="userSpaceOnUse" style="mask-type:alpha"><circle cx="205.333" cy="205.333" r="205.333" fill="#6e2ca5" transform="rotate(135 -18.11 372.25)scale(-1 1)"/></mask><g mask="url(#p)"><circle cx="205.333" cy="205.333" r="204.916" fill="#9a38e8" stroke="url(#q)" stroke-width=".833" transform="rotate(135 -18.11 372.25)scale(-1 1)"/><g filter="url(#r)"><circle cx="222.145" cy="222.145" r="222.145" fill="url(#s)" transform="rotate(-45 939.403 104.68)scale(1 -1)"/></g></g><path stroke="url(#t)" stroke-linecap="round" stroke-linejoin="round" stroke-width=".208" d="m332.819 445.64-31.526 13.962m31.526-13.962-21.712-15.773m21.712 15.773L340 415.862m-7.181 29.778 27.799-15.752m-27.799 15.752 20.154 14.278m-20.154-14.278-10.34 30.157-13.225 27.798m-7.961-43.993 9.814-29.735m-9.814 29.735-32.809 11.035m32.809-11.035-21.29-17.395m21.29 17.395-12.172 28.83m12.172-28.83 21.186 16.174m-11.372-45.909-31.104 12.34m31.104-12.34-21.438-15.879m21.438 15.879 7.266-28.388m-7.266 28.388L340 415.862m-25.713 129.346-2.274.485-7.182 3.285m9.456-3.77 5.244-2.948 14.973-6.823m-20.217 9.771 20.217-9.771m-20.217 9.771-7.981 2.864M58.101 465.183l-10.067-18.49-3.6-9.266M58.1 465.183l18.721 26.114M58.1 465.183l5.497 7.224 13.225 18.89M58.1 465.183l-13.667-27.756M58.1 465.183l-1.22-10.53m1.22 10.53 15.648 17.732m344.13-38.454 6.212-14.531m-6.212 14.531 9.392-25.524m-9.392 25.524-1.559-4.612m4.191-162.536-7.961-16.616 3.644 8.256m4.317 8.36 9.94 28.43m-9.94-28.43 3.58 9.477m-3.58-9.477-6.823-7.286-1.18 12.698m8.003-5.412 3.916 18.954m-3.916-18.954-12.404-24.07m-33.484 250.563-14.026 14.088m14.026-14.088 7.159-5.665m-7.159 5.665 18.384-19.227m-18.384 19.227-23.271 18.09m23.271-18.09 14.763-20.554m-14.763 20.554-6.655-1.011m-7.371 15.099-26.092 17.543m26.092-17.543 21.185-19.753m-21.185 19.753-9.245 4.002m30.43-23.755 16.132-20.07m-16.132 20.07 11.225-13.562m-61.24-303.549 5.539.737m-5.539-.737-22.512-13.057m22.512 13.057 25.777 15.374m-25.777-15.374-30.178-11.645m30.178 11.645 19.396 17.269m-19.396-17.269-8.445 4.065m13.984-3.328 20.238 14.637m-20.238-14.637 23.249 16.7m-23.249-16.7-28.051-13.794M36.094 301.974l-.231.421.442-1.306m-5.792 73.455-.99 12.509m.99-12.509-2.97-21.101m2.97 21.101 8.129 20.238m-8.13-20.238 4.655 32.979m342.782-193.935 19.227 22.323-5.707-5.307m-13.52-17.016-17.395-15.121m17.395 15.121-13.983-11.772-3.411-3.349.167.611-3.179-2.674m20.406 17.184 13.52 17.016m-13.52-17.016-3.981.463m23.945 264.02-.548.506m.548-.506 8.824-12.382m-8.824 12.382 1.074-1.727m-1.074 1.727.232-.589M224.09 153.106l30.284 1.011m-30.284-1.011-30.388 3.874m30.388-3.874-8.591 3.496m8.591-3.496 21.776 2.084m8.508-1.073-8.508 1.073m8.508-1.073 23.565 4.717m-4.107 398.568 9.561-1.138m-9.561 1.138 20.174-9.393m-20.174 9.393 30.999-8.424m-30.999 8.424-10.003-3.243m10.003 3.243-29.988 3.369m29.988-3.369-21.101 4.464m-128.925-30.999-2-1.411m313.403-171.507 1.854 12.299m-1.854-12.299-3.18-31.841m3.18 31.841-1.747 31.652m1.747-31.652 1.116-20.532m-1.116 20.532-6.929-12.762m6.929 12.762-6.149 21.123m8.003-8.824-3.601 19.353m3.601-19.353-4.422 31.525.821-12.172m3.601-19.353-.738-32.831m-2.863 52.184-6.192 29.336m6.192-29.336-4.402-10.529m4.402 10.529-8.74 21.734M203.81 560.118l-1.137-.042m-8.971-403.096-21.86 5.413m21.86-5.413 21.797-.378m-21.797.378-8.529 6.297m8.529-6.297-31.252 9.33m9.392-3.917-9.392 3.917m9.392-3.917-30.789 12.046m-81.54 74.318-.633 1.706m.632-1.706-2.569 4.78m2.57-4.78-7.792 13.035m7.791-13.035 9.623-14.384m-9.623 14.384 1.285-1.222m-1.285 1.222 3.349-4.486m359.987 39.718 1.242 2.801m0 0-.568-.863m.568.863 6.36 18.953m-6.36-18.953-.042.611m.042-.611.906 3.348M77.223 225.15l.379-.653m0 0-1.306 1.726m1.306-1.726 1.642-1.601m-1.642 1.601.358-.148m280.825-26.893 1.769 1.011M45.213 275.46l2.948-5.497M245.866 155.19l-30.367 1.412m30.367-1.412 32.073 3.644m-32.073-3.644 23.207 7.624m-23.207-7.624-8.95 6.381m55.027 1.348-6.654-2.569m107.717 324.229 13.731-18.89m0 0 11.14-21.228-12.424 19.185m1.284 2.043-1.285-2.043m-210.171 95.398 28.872 3.643m-28.872-3.643-22.554-5.138m22.554 5.138 21.355.99m-21.355-.99-28.387-8.213m28.387 8.213-6.17-4.717m35.042 8.36 28.578-.821m-28.578.821-7.517-2.653m7.517 2.653 19.691-1.916m8.887 1.095 30.767-5.623m-30.767 5.623-8.887-1.095m39.654-4.528 17.016-6.086m-17.016 6.086 21.333-7.265m-189.554-24.134-15.9-11.203m0 0 20.259 14.846m-20.259-14.846-4.107-5.455m4.107 5.455-22.554-22.344 18.447 16.889m24.366 20.301 24.955 14.594m-24.955-14.594 23.186 10.467m-23.186-10.467-1.58-7.118m1.58 7.118L95.27 508.186m49.321 34.895 28.136 10.825m-28.136-10.825 22.303 7.75m-22.303-7.75-1.769-4.127m29.905 14.952-5.833-3.075m-130.084-132 7.623 18.596m-7.623-18.596-7.286-31.757m7.286 31.757-1.642-11.308m9.265 29.904.863-11.562m-.863 11.562-9.265-29.904m9.265 29.904 12.446 17.227-11.583-28.789m378.793 4.065 3.18-10.993 5.37-17.163M39.043 290.917l6.17-15.436 6.508-13.689m-12.678 29.125-7.982 29.694m7.982-29.694L37 309.197l2.716 20.07m-.673-38.35 8.444-12.298m-8.444 12.298 12.678-29.125m0 0 7.18-11.308m-7.18 11.308-4.233 16.827m4.233-16.827 11.666-13.246m349.163 12.131-4.443-7.434m0 0-10.93-17.332m10.93 17.332 5.58 16.805m-323.66-59.429-20.892 23.754m20.891-23.754 23.208-19.501m-23.208 19.501 16.806-11.436m-37.697 35.19-8.36 13.141m8.36-13.141 14.658-12.909m-14.658 12.909-5.748 14.173m49.847-57.428 27.819-16.679m-27.819 16.679-6.402 8.065m6.402-8.065 19.543-10.256m8.276-6.423 21.397-8.129m-21.397 8.129-8.276 6.423m224.766 15.542 16.425 17.647m-16.425-17.647-6.382 1.895M162.45 166.31l22.723-3.012 30.326-6.696m-53.049 9.708-7.455 8.823m7.455-8.823-29.673 14.552m145.162-22.028 7.328 1.516 23.987 7.623m-31.315-9.139 31.315 9.139m-31.315-9.139 23.649 10.551m-23.649-10.551-8.866 3.98m40.181 5.159-7.666 1.412m134.737 168.032-4.001-20.407-1.874-11.267m5.875 31.674-5.875-31.674m5.875 31.674-4.296-11.309m-1.579-20.365-6.024-9.476m6.024 9.476 1.579 20.365m-400.968-5.497-.948 12.51-2.57 20.322m3.518-32.832-3.517 32.832m3.517-32.832.21 20.301m-.21-20.301 5.938-11.414m-9.455 44.246 1.98 33.631m-1.98-33.631 3.727-12.531m-1.747 46.162 5.644 20.449m41.654 83.774-3.074-8.382m260.756 52.522 16.847-13.541m-16.847 13.541-10.572 1.642m10.572-1.642.042-.042m-29.715 13.583 19.101-11.899m-19.101 11.899-10.825-.969m-84.047 6.381 25.44 1.558m-25.44-1.558 9.329-6.907m-9.329 6.907-19.669-7.876m45.109 9.434 28.43-1.789m-28.43 1.789-16.111-8.465m16.111 8.465-18.764 4.086m18.764-4.086 8.445 4.823m-8.445-4.823 12.088-8.507m-28.199.042 11.014-11.435m-11.014 11.435-28.703-.948m28.703.948h-.021m.021 0 28.199-.042m-57.197-.927-21.733-12.404m21.733 12.404-1.179 7.813m27.525 5.707-6.676-5.644-20.849-.063m27.525 5.707-27.525-5.707m27.525 5.707 27.208.737m-54.733-6.444-22.217-3.496m22.217 3.496-22.154-9.561m130.399-157.039-7.687 26.261m7.687-26.261 21.017 13.752m-21.017-13.752-26.746 2.106m26.746-2.106-9.519-25.398m9.519 25.398 19.964-18.006m-27.651 44.267-9.666 28.219m9.666-28.219 28.704-12.509m-28.704 12.509-19.059-24.155m19.059 24.155-29.356 3.791m58.06-16.3L340 415.862m-21.627-14.383-1.053-31.758m1.053 31.758 21.922-18.427m-69.685 6.781-30.915 1.727m30.915-1.727 17.226-27.525m-17.226 27.525-12.425-27.23m12.425 27.23-10.297 27.946m27.524-55.45 20.279-20.975m-20.279 20.975-29.652.274m59.135 7.118-29.484-7.413m29.484 7.413 20.617-20.301m-20.617 20.301-9.204-28.367m9.204 28.367 22.975 13.331m-270.359 3.39 17.521 2.275m0 0 22.913 2.021m-22.913-2.021-9.919 23.102m9.92-23.102 7.624-26.345m-7.625 26.345 10.468 27.293m-27.988-29.568 7.602 25.377m-7.602-25.377-10.761 12.973m10.76-12.973 4.886-24.407-17.373 6.992m12.488 17.415-12.488-17.415m20.09 42.792 11.435 27.503M77.54 411.819l-18.363-12.404m18.363 12.404-9.982 14.91m9.982-14.91 20.386 4.191m-38.75-16.595-8.656 13.436m8.657-13.436-1.727-30.388m0 0-10.552-19.354m10.552 19.354 5.37-27.125m-5.37 27.125-10.91 12.614m354.723-133.6 12.425 22.007m-12.425-22.007-1.011 9.582m1.011-9.582-14.91-15.142m27.335 37.149-13.436-12.425m0 0-4.232 12.909m4.232-12.909-13.899-24.724m13.899 24.724-17.289-14.931m17.289 14.931 12.256 25.102m-26.155-49.826-19.775-15.057m19.775 15.057 5.117-2.295m-5.117 2.295-12.384-18.848m12.384 18.848-3.391 9.793m25.145 10.551-6.845-5.202-9.792-17.437m16.637 22.639-16.637-22.639m0 0-17.501-16.553m-179.824-24.134 10.509 13.226m-10.509-13.226-19.332 14.005m19.332-14.005 26.05-4.022m-15.541 17.248 12.593 18.132m-12.593-18.132-29.841.779m29.841-.779 15.541-17.248m-15.541 17.248 28.998-2.359m-28.998 2.359-19.838 17.205m-10.003-16.426-20.933 18.806m20.933-18.806-2.338-16.637m47.72-1.39-19.986-9.561m-27.735 10.951 21.67 2.632 6.065-13.583m-27.735 10.951-22.785.168m22.785-.168 27.735-10.951m0 0 7.182-11.604m198.063 298.916-12.446 20.933-3.622-1.327m16.068-19.606-4.591-4.275m4.591 4.275 10.866-23.797m-10.866 23.797-16.068 19.606m0 0 11.477-23.881m-11.477 23.881-21.418 19.543m21.418-19.543-7.498-4.191m-30.536 42.835-27.419 15.183m27.419-15.183 16.616-19.101m-16.616 19.101-10.087-1.453m26.703-17.648-26.703 17.648m26.703-17.648-10.93-4.696m-33.105 38.98-29.926 10.93m29.926-10.93 17.332-16.636m-17.332 16.636-13.246-2.737m30.578-13.899 15.773-22.344m-15.773 22.344-30.578 13.899m30.578-13.899-14.173-5.96m-33.085 33.526-30.177 6.15m46.857-19.817-16.679 13.667-15.415-4.654m32.094-9.013 16.405-19.859m-16.405 19.859-32.094 9.013m32.094-9.013-16.531-7.792m-30.326 27.609-19.985 6.612m19.985-6.612 14.763-10.804m-14.763 10.804-16.342-6.718m31.105-4.086 15.563-16.805m-15.563 16.805-31.105 4.086m31.105-4.086-17.521-9.771m-13.584 13.857-17.184-11.394 30.768-2.463m-13.584 13.857 13.584-13.857m-30.769 2.464 12.383-16.827m-12.383 16.827-20.827-13.542 33.21-3.285m-12.383 16.827-31.441 1.137m0 0 20.238 10.214m-20.238-10.214-8.593 9.329-23.312-1.748m31.905-7.581-30.304-3.075m30.304 3.075 10.614-14.658m-10.614 14.658-22.492-15.626m66.316-2.338 13.058-22.217m-13.058 22.217-20.87-17.226m20.87 17.226 18.385 14.363m-18.385-14.363 32.642-5.496m-14.256 19.859 14.257-19.859 18.827 12.825m-33.084 7.034 33.084-7.034m-38.412-29.546 12.74-26.367m-12.74 26.367-20.639-20.723m20.639 20.723-33.928 4.991m0 0 13.289-25.714m-13.289 25.714-22.68-22.934m22.68 22.934-12.34 20.532m12.34-20.532-35.168 1.179m88.68 10.551-19.585-16.7 33.379-8.593m-13.794 25.293 13.794-25.293m-13.794 25.293 33.927-10.13m-40.771-32.958-20.217-23.291m20.217 23.291-33.379 5.644m0 0 13.163-28.935m-13.163 28.935-22.175-25.587m22.175 25.587-35.969 2.78m89.986 9.371-20.637-17.795m20.637 17.795 20.133 15.163m-20.133-15.163 33.358-12.656m-53.995-5.139 11.519-28.43m0 0-19.69-24.428m19.69 24.428-31.736 5.139m12.046-29.567-20.618-26.219m20.618 26.219-12.046 29.567m12.046-29.567-33.506 2.864m21.46 26.703-21.46-26.703m21.46 26.703-35.338 3.348M340 415.862l20.618 14.026M340 415.862l23.039-18.742M340 415.862l.295-32.81m0 0-2.359-33.632m2.359 33.632 22.744 14.068m-22.744-14.068 21.733-20.87m-1.41 67.706 17.795 12.488m-17.795-12.488 22.891-19.059m-22.891 19.059-7.645 30.03m10.066-62.798-2.422 32.768m2.422-32.768 20.47 13.709m-20.47-13.709 21.67-21.313m-21.67 21.313-1.011-34.938m16.385 80.194 13.582 9.961m-13.582-9.961 21.312-19.375m-21.312 19.375 5.096-31.547m-5.096 31.547-8.698 28.935m8.698-28.935-25.44 17.542m30.536-49.089 16.216 12.172m-16.216-12.172 20.132-21.586m-20.132 21.586 1.2-35.022m-31.736 84.111 16.742 11.393m-16.742-11.393-11.351 29.104m11.351-29.104-30.494 15.858m69.516-23.439 8.867 7.034m-8.867-7.034 18.617-19.564m-18.617 19.564 7.73-29.336m-7.73 29.336-10.108 26.724m10.108-26.724-22.28 18.974m30.01-48.31 10.887 9.772m-10.887-9.772 17.394-21.649m-17.394 21.649 3.916-33.758m-33.926 82.068 12.172 7.75m-12.172-7.75-12.678 26.788m12.678-26.788-28.093 17.711m59.24-29.651 15.457-19.522m-15.457 19.522 9.75-26.598m-9.75 26.598-18.975 19.69m28.725-46.288 5.708 7.076 8.402-28.514m-14.11 21.438 14.11-21.438m-14.11 21.438 6.507-31.421m-35.232 77.709-13.941 23.734m13.941-23.734-24.85 19.038m59.282-58.25 10.951-20.912m-316.9-28.199 28.283 1.475m-28.283-1.475 10.951-28.072 17.332 29.547m-28.283-1.475-15.288-28.366m15.288 28.366L97.925 416.01m12.445-25.272 13.815 28.746m-36.749-30.809-12.615-26.64m0 0 8.488-27.777m-8.487 27.777-12.004-20.133m12.004 20.133 20.26.337m0 0-11.773-28.114m11.773 28.114 26.218.294m-26.218-.294 11.645-29.778m-8.802 83.416-8.95 23.312m8.95-23.312 26.26 3.474m-26.26-3.474 14.635 29.167m26.093-52.964 32.473.695m-32.473-.695 14.383-29.357m-14.383 29.357-14.468 27.271m14.468-27.271 17.205 29.42m-31.673-2.149-11.625 25.693m11.625-25.693 31.673 2.149m-31.673-2.149 17.964 30.031m10.887-86.659 18.153 29.989m-18.153-29.989 35.359.063m-35.359-.063 17.879-32.052m-17.879 32.052-31.736-.19m31.736.19-16.7-31.505m19.522 90.282 15.353-28.725m-15.353 28.725-13.709 27.882m13.709-27.882 35.169.421m-35.169-.421 20.617 29.862m-5.264-58.587 34.6-.253m-34.6.253 17.184-30.01 17.416 29.757m-34.6.253 19.816 29.146m14.784-29.399 33.884-1.095m-33.884 1.095 18.595-29.841m-33.379 59.24 14.784-29.378 20.996 27.967m-35.78 1.411-14.552 29.441m14.552-29.441 35.78-1.411m-35.78 1.411 21.902 28.64m26.766-59.134 18.49-28.957m-18.49 28.957-15.289-28.746m15.289 28.746-12.888 29.083m-2.401-57.829 33.779-.211m-33.779.211 19.311-30.747m-19.311 30.747-36.011.105m36.011-.105-16.595-31.758m18.996 89.587-13.878 30.051m45.256-88.091 17.838-29.019m-17.838 29.019-14.468-30.536m44.119 30.241-11.813-28.724M168.557 534.11l-22.66-17.648m22.66 17.648-25.334-4.149m25.334 4.149-1.6 10.656m1.6-10.656 7.812-12.551m-30.472-5.097 7.329-16.215m-7.329 16.215 30.473 5.097m-9.413 23.207-.063 6.065m.063-6.065-24.135-5.812m24.135 5.812-23.735-14.805m33.147-8.402 33.106.968m-63.579-6.065-21.901-22.68m21.901 22.68-26.324-6.991m26.324 6.991-2.674 13.499m-19.227-36.179-19.416-26.409m19.416 26.409-25.945-9.73m25.945 9.73-4.423 15.689m4.423-15.689 7.35-19.691m-7.35 19.691 29.231 6.465m-33.654 9.224 23.65 20.49m-23.65-20.49-1.516 11.898m25.166 8.592-25.166-8.592m25.166 8.592-.4 8.993m10.404-38.707-21.881-26.156m21.881 26.156 10.298-21.965m-10.298 21.965 33.421 2.927m-33.421-2.927 23.144 21.312m0 0 10.277-18.385m-82.068-35.801-15.605-28.051m15.605 28.051-24.134-11.73m24.134 11.73-6.529 16.679m6.529-16.679 7.981-22.196m-7.981 22.196 26.766 6.718m-33.295 9.961-17.606-28.409-5.412 15.036m23.018 13.373-23.018-13.373m23.018 13.373 21.524 25.419-24.83-11.33zm33.295-9.961-18.784-28.914 29.588 4.338m-10.804 24.576 10.804-24.576m-10.804 24.576 32.179 4.191m-74.55-38.96-21.417-12.593m21.417 12.593-8.529 16.321m8.53-16.321 23.585 5.855m-32.115 10.466-12.888-28.914m12.888 28.914-20.217-14.215m7.33-14.699-7.33 14.699m106.666 109.403-24.072-11.877m0 0-24.766-17.585m-72.76-95.504 5.223-13.014m-5.223 13.014-6.633-31.083 11.856 18.069m-5.223 13.014-10.13-18.342m10.13 18.342 14.932 15.563m-9.709-28.577-3.98-31.21m3.98 31.21 17.037 13.878-8.382-27.314-12.635-17.774m3.98 31.21 9.71 28.577m-25.062-33.905 3.475-12.741m21.586 46.646 14.805 29.251-18.153-16.026m3.348-13.225-3.348 13.225m-10.34-73.012.357-31.968m-.358 31.968-7.897 13.141m7.897-13.141-9.813-19.88m180.52-140.486 16.405-20.491m-16.405 20.491-32.431-.927m32.431.927-19.922 20.912m36.327-41.403-13.456-14.889m13.456 14.889 15.963-16.258m-15.963 16.258 15.332 20.512m-15.332-20.512 32.263.821m-81.099 18.743-30.937 2.38 9.582 20.111m21.355-22.491-10.004-16.426-24.029-.948m34.033 17.374 12.509 21.839m-12.509-21.839-21.355 22.491m68.169 1.769-14.384-23.333 31.758.021zm0 0 15.353 27.798m-15.353-27.798 33.758 2.801m-33.758-2.801-34.306-2.422m34.306 2.422-19.628 24.66m-14.677-27.081-33.864.652m83.522 29.567 15.183 30.473m-15.183-30.473 34.558 5.413-19.375 25.06m-15.183-30.473 18.405-24.997m-18.405 24.997-34.981-3.138m34.981 3.138-19.08 27.651m37.485-52.648 16.174 30.41m-16.174-30.41 35.338 6.086m-35.338-6.086-16.404-26.113m16.404 26.113 18.027-22.639m-86.091 17.416 14.678 27.082m-14.678-27.082-21.311 26.282m35.989.8-35.989-.779-33.927 1.791m69.916-1.012 15.901 30.789m-15.901-30.789-20.827 29.378m70.991 4.233 13.858 30.705m-13.858-30.705 33.927 7.16m-33.927-7.16-34.263-2.822m34.263 2.822-18.448 29.188m-15.815-32.01-36.728-1.411m36.728 1.411 15.815 32.01m-15.815-32.01-20.091 30.999m68.212 2.528 32.093 7.77m-32.093-7.77 20.069-23.545m-20.069 23.545-32.306-1.517m52.375-22.028 12.024 31.315m-12.024-31.315 32.684 8.55m-32.684-8.55-14.531-32.22m14.531 32.22 20.154-24.302m-72.529 46.33-35.906-1.011m100.305 10.298 29.821 8.066m-29.821-8.066 20.66-22.765M83.309 334.258l12.699-29.905m-12.7 29.905-10.74-22.534m10.74 22.534-20.49 7.644m20.49-7.644 23.419-1.664m-43.909 9.308-15.92 7.771m15.92-7.771-9.434-21.628m9.434 21.628 9.75-30.178m23.44-7.371 16.784-30.051m-16.784 30.051-8.824-23.986m8.824 23.986-23.44 7.371m23.44-7.371 26.64-3.306m-26.64 3.306 10.719 28.241m-34.158-20.87 14.615-31.357m-14.615 31.357-7.624-23.06m7.624 23.06-19.185 8.55m53.343 12.32 15.921-31.547m-15.921 31.547 29.609-1.243m-29.609 1.243 14.573 30.072m-8.508-88.364 19.838-27.841m-19.838 27.841-6.57-23.966m6.57 23.966-25.608 6.065m25.608-6.065 29.293-4.001m-29.293 4.001 9.856 26.745m-35.464-20.68 19.038-30.031m-19.038 30.031-5.37-23.123m5.37 23.123-22.239 8.297m57.703 12.383 19.437-30.746m-19.437 30.746 32.389-2.043m-32.389 2.043 13.688 30.304m-3.706-84.89 21.249-23.733m-21.249 23.733-4.528-22.407m4.528 22.407-26.408 3.875m26.408-3.875 30.831-3.622m-30.831 3.622 9.455 23.84m-35.863-19.965 21.88-26.282m-21.88 26.282-3.285-21.564m3.285 21.564-24.408 6.908m60.271 13.057 21.376-27.462m-21.376 27.462 12.952 28.703m-1.158-76.276-3.096-19.754m3.096 19.754-25.777 1.326m0 0 22.681-21.08m-22.681 21.08-1.811-18.805m1.811 18.805-25.165 4.718m60.524 14.067 12.551 25.629m-25.229-65.494-1.095-15.542-23.397 17.817m24.492-2.275 21.691-15.689m-21.691 15.689-24.492 2.275m46.183-17.964 5.56-13.373m235.652 96.136 10.74 26.219m0 0 7.603 29.841m-7.603-29.841-11.919-13.542m11.919 13.542-2.021 16.068m-9.898-29.61-16.488-12.193m16.488 12.193 9.898 29.61m-9.898-29.61-5.201 16.216m24.723 27.167-9.624-13.773m9.624 13.773-3.749 19.079m-5.875-32.852-15.099-13.394m15.099 13.394 5.875 32.852m-5.875-32.852-6.971 19.332m12.846 13.52-12.846-13.52m12.846 13.52.78 33.885m-.78-33.885-9.349 21.544m10.129 12.341-10.129-12.32-16.195-13.372m26.324 25.692-4.338 32.263m4.338-32.263-11.941 22.28m10.151 17.585-2.548-7.602m0 0-7.603-9.983m-79.182-51.932-9.161-30.831m9.16 30.831 19.69-21.564m-19.69 21.564 24.092 12.762m-4.402-34.326-9.582-32.242m9.582 32.242-28.851-9.267m.001 0 19.269-22.975m-19.269 22.975-12.53-32.852m45.782 76.445-4.401-34.327m4.401 34.327 19.564-22.133m-19.564 22.133 22.681 13.625m-27.082-47.952 17.037-21.375m-17.037 21.375 23.965 12.194m-6.928-33.569 12.951-19.5m-12.951 19.5-10.572-32.115m10.572 32.115-26.619-10.866m26.619 10.866 22.365 11.92m-22.365-11.92 6.928 33.569m0 0 15.437-21.649m-15.437 21.649 3.117 35.758m2.906-88.827-11.835-30.515m11.835 30.515-23.523-12.615m0 0 11.689-17.9m-11.689 17.9-14.636-31.189m14.636 31.189-16.047 21.249m16.047-21.249-29.504-11.604m13.457 32.853-13.456-32.853m13.456 32.853-31.799-9.877m80.783 32.663-9.413-31.42m9.413 31.42 10.277-19.459M397.029 318.4l18.405 13.267M397.029 318.4l5.707 34.98m-15.12-66.4 8.403-16.448m-8.403 16.448 19.69 11.961m-11.287-28.409-13.057-27.84m13.057 27.84-20.238-14.067m20.238 14.067 11.287 28.409m0 0 8.128 32.726m-32.472-88.975-16.385-24.85m16.385 24.85-7.181 13.773m7.181-13.773-22.914-14.51m15.733 28.283-15.733-28.283m15.733 28.283-26.325-13.289M47.488 278.619l.505 19.985m-.506-19.985 14.278-11.625m-14.278 11.625 15.9-30.073m-23.67 80.721 7.18 20.406m-7.18-20.406 13.667-8.993m-13.668 8.993 8.276-30.663-10.993 10.593m2.717 20.07-8.445 11.645m8.445-11.645-2.99 32.494m.273-52.564 10.488-30.578m-10.488 30.578-5.728 31.715m0 0 5.455 20.849m-5.455-20.849-.757 33.632 6.212-12.783m10.171-12.088 6.487-29.399m-6.487 29.399-10.171 12.088m16.658-41.487-5.39-21.67m5.39 21.67 11.561-31.61m-28.22 73.097 1.917 33.021m181.553-208.887 29.419-1.369m-29.419 1.369 7.981-13.562m21.438 12.193 31.526 2.359m-31.526-2.359 9.729-12.678m-9.729 12.678-21.438-12.193m21.438 12.193 16.3 17.079m-37.738-29.272-27.967 4.001-22.175-2.422m50.142-1.579-20.786-7.603m20.786 7.603 31.167-.485m-31.167.485 8.74-10.762m44.224 25.314 31.483 6.676m-31.483-6.676 10.761-10.867m-10.761 10.867-21.797-15.037m0 0 32.558 4.17m-32.558-4.17 9.73-9.034m-9.73 9.034-22.427-10.277m28.998 40.034 15.205-14.72 18.406 19.606m-33.611-4.886 33.611 4.886m-33.611-4.886 17.5 23.165m-17.5-23.165-16.931 19.691m63.64-27.735 29.104 10.676m-29.104-10.676 10.698-8.466m-10.698 8.466-20.722-17.543m20.722 17.543 19.122 22.07m-19.122-22.07-13.098 12.93m-7.624-30.473 31.42 9.077m-31.42-9.077 9.687-6.633m-9.687 6.633-22.828-13.204m30.452 43.677 32.22 9.14m-32.22-9.14-16.111 18.279m58.313-20.533 24.85 13.605m-24.85-13.605-18.406-19.142m0 0 27.841 13.204m-27.841-13.204-21.733-15.71m30.157 46.246 9.983-11.394m-9.983 11.394 28.303 12.551m-28.303-12.551 17.711 27.545m-17.711-27.545-13.836 16.573m48.668-14.362 7.391-3.791m-7.391 3.791-15.416-19.543m15.416 19.543-6.529 10.34m-18.32-23.945 9.434-5.938m-9.434 5.938 18.32 23.945m0 0-10.592 14.994m24.512-29.125-22.807-15.752m-244.329.884 20.385-7.876m-20.385 7.876 25.946-18.342-5.561 10.466m-20.385 7.876-3.538 12.257m3.538-12.257-23.039 22.281m6.192-10.761-6.192 10.761m0 0 19.501-10.024m-19.5 10.024-3.076 15.647m3.075-15.647-20.406 27.082m63.83-57.239 22.471-3.854m-22.471 3.854 27.778-16.194-5.307 12.34m-22.471 3.854-.926 13.942m.926-13.942-23.923 20.133m0 0 22.997-6.191m-22.997 6.191-.357 17.332m.357-17.332-22.576 25.671m68.97-49.658 28.346-13.541m-51.743 31.337-23.354 23.523m75.097-54.86-23.039 1.221m23.039-1.221 7.139-10.635m22.217 1.453-22.218-1.431m22.218 1.431-29.357 9.182m29.357-9.182 29.462-3.159m-29.461 3.16 8.108-8.129m0 0 21.311 4.949m-51.637 1.726-30.178 11.856m0 0-22.218 5.729m168.811-11.477-32.515-6.571m0 0-32.157-1.243M81.814 257.244l21.122-28.472-22.218 8.339m1.096 20.133-1.096-20.133m1.096 20.133-16.868 31.42m16.868-31.42-20.05 9.75m18.954-29.883-18.953 29.883m18.953-29.883-17.331 11.435m1.558 40.118-3.18-21.67 1.622-18.448m1.558 40.118-16.952 9.94m13.772-31.61-13.772 31.61m301.463-55.428-14.868 19.585m14.868-19.585-31.547-10.972m16.679 30.557-16.679-30.557m16.679 30.557-18.342 22.976m18.342-22.976-33.863-9.266m17.184-21.291-18.406-25.713m18.406 25.713-17.184 21.291m17.184-21.291-34.495-7.434m32.832 60.967-15.521-32.242m15.521 32.242-34.685-7.918m19.164-24.324-17.311-28.725m17.311 28.725-19.164 24.324m1.853-53.049-34.431-3.474m-213.1 81.351-.02-.273-.043.252m379.614 29.041 3.497 35.064m-3.497-35.064-12.698 21.713m16.195 13.351-1.812 34.621m1.812-34.621-15.29 22.512m-.905-35.863-21.144-13.31m21.144 13.31.905 35.863m-.905-35.863-18.027 22.427m32.41 25.545-13.478-12.109m0 0-18.932-13.436M176.012 268.468l15.162 30.178m-15.162-30.178-20.976 30.536 36.138-.358m0 0 16.637 32.41m-16.637-32.41-20.259 32.158m-15.878-31.8 15.878 31.8m-15.878-31.8-18.701 32.347m71.475-.295-36.896-.252m36.896.252-19.416 31.863m-17.48-32.115-34.579.547m34.579-.547 17.48 32.115m-52.059-31.568L121.3 362.666M75.032 470.679l19.712 27.462m-19.712-27.462-1.284 12.236M56.88 454.653l16.868 28.262m20.996 15.226-20.996-15.226m20.996 15.226 23.312 23.228m-23.312-23.228.526 10.045m-21.522-25.271 21.522 25.271m22.786 13.183L95.27 508.186m46.879-58.671 34.326 1.98m-34.326-1.98 21.375 28.767m12.951-26.787-12.951 26.787m12.951-26.787 36.454-.801m-36.454.801 22.66 27.566m-35.611-.779 35.611.779m-35.611-.779 23.123 24.892m26.282-52.48-13.794 28.367m0 0-12.488 24.113m0 0 22.828 19.353m147.562-24.428-29.946 16.384m29.946-16.384-15.415-9.077m-14.531 25.461 14.531-25.461m-14.531 25.461-32.936 12.067m32.936-12.067-17.837-10.888m32.368-14.573-32.368 14.573m32.368-14.573-19.143-13.246m-13.225 27.819-15.1 22.955"/><g filter="url(#u)" style="mix-blend-mode:overlay"><ellipse cx="68.835" cy="128.7" fill="#c448f0" fill-opacity=".9" rx="243.575" ry="113.145" transform="rotate(9.49 68.835 128.7)"/></g><path stroke="url(#v)" stroke-linecap="round" stroke-width=".417" d="M40.789 345.075c-21.93-7.496-35.079-17.448-36.121-29.253-2.676-30.315 75.396-62.586 180.515-76.894"/><path stroke="url(#w)" stroke-linecap="round" stroke-width=".417" d="M40.79 345.076c-21.93-7.496-35.08-17.448-36.122-29.253-1.188-13.458 13.54-27.302 39.482-39.788"/><g filter="url(#x)"><path stroke="url(#y)" stroke-linecap="round" stroke-width="1.035" d="M40.79 345.076c-21.93-7.496-35.08-17.448-36.122-29.253-1.188-13.458 13.54-27.302 39.482-39.788"/></g><g filter="url(#z)"><path stroke="url(#A)" stroke-linecap="round" stroke-width="1.035" d="M40.79 345.076c-21.928-7.496-35.078-17.448-36.12-29.253-2.676-30.316 77.664-62.811 182.783-77.118"/></g><path stroke="url(#B)" stroke-linecap="round" stroke-width=".417" d="M413.615 261.545c28.908-17.193 44.721-31.723 41.67-40.455-4.468-12.783-48.308-10.1-111.23 4.469"/><path stroke="url(#C)" stroke-linecap="round" stroke-width=".417" d="M457 351.021c29.332-29.094 42.939-57.78 34.827-80.988-7.984-22.845-35.734-36.732-75.768-41.442"/><path stroke="url(#D)" stroke-linecap="round" stroke-width=".417" d="M318.172 231.934c37.083.689 68.479 18.071 78.685 47.27 6.154 17.606 3.604 36.651-5.656 54.18"/><path stroke="url(#E)" stroke-linecap="round" stroke-width=".417" d="M83.207 216.004c-7.736-11.204-10.47-21.209-7.106-29.105 12.153-28.521 99.27-18.718 194.582 21.895 17.064 7.271 32.332 15.387 47.311 23.401"/><path stroke="url(#F)" stroke-linecap="round" stroke-width=".417" d="M191.113 156.424c13.161-32.833 33.189-53.795 55.62-53.795s42.458 20.962 55.619 53.795"/><g filter="url(#G)"><path stroke="url(#H)" stroke-linecap="round" stroke-width="1.035" d="M191.113 156.424c13.161-32.833 33.189-53.795 55.62-53.795s42.458 20.962 55.619 53.795"/></g><path stroke="url(#I)" stroke-linecap="round" stroke-width=".417" d="M382.598 196.97c11.539-25.382 16.102-43.352 10.69-46.758-6.87-4.323-27.949 16.006-52.693 49.122"/><path stroke="url(#J)" stroke-linecap="round" stroke-width=".417" d="M382.598 196.97c11.539-25.382 16.102-43.352 10.69-46.758-1.663-1.046-4.158-.648-7.336 1.025"/><g filter="url(#K)"><path stroke="url(#L)" stroke-linecap="round" stroke-width="1.035" d="M382.598 196.97c11.539-25.382 16.102-43.352 10.69-46.758-1.663-1.046-4.158-.648-7.336 1.025"/></g><g filter="url(#M)"><path stroke="url(#N)" stroke-linecap="round" stroke-width="1.035" d="M382.598 196.97c11.539-25.382 16.102-43.352 10.69-46.758-6.87-4.323-27.949 16.006-52.693 49.122"/></g><path stroke="url(#O)" stroke-linecap="round" stroke-width=".417" d="M314.821 138.285c22.464-25.489 40.873-39.203 48.718-34.266 12.879 8.103-7.235 63.613-45.369 127.416"/><path stroke="url(#P)" stroke-linecap="round" stroke-width=".417" d="M221.129 174.27c10.048-25.067 25.338-41.071 42.463-41.071 28.111 0 51.277 43.122 54.428 98.665"/><path stroke="url(#Q)" stroke-linecap="round" stroke-width=".417" d="M187.558 302.306C107.991 246.895 61.106 176.68 82.837 145.476s103.848-11.58 183.414 43.831c19.394 13.506 36.262 27.84 51.253 42.325"/><path stroke="url(#R)" stroke-linecap="round" stroke-width=".417" d="M316.603 229.783C298.257 146.689 243.351 88.167 193.967 99.07c-34.929 7.712-57.74 48.091-61.609 100.47"/><path stroke="url(#S)" stroke-linecap="round" stroke-width=".417" d="M132.358 199.54c3.869-52.379 26.68-92.758 61.609-100.47 19.081-4.212 38.987 1.939 57.289 15.868"/><g filter="url(#T)"><path stroke="url(#U)" stroke-linecap="round" stroke-width="1.035" d="M132.358 199.54c3.869-52.379 26.68-92.758 61.609-100.47 19.081-4.212 38.987 1.939 57.289 15.868"/></g><g filter="url(#V)"><path stroke="url(#W)" stroke-linecap="round" stroke-width="1.035" d="M316.603 229.783C298.257 146.689 243.351 88.167 193.967 99.07c-34.929 7.712-57.74 48.091-61.609 100.47"/></g><g filter="url(#X)"><circle cx="412.777" cy="228.287" r="1.751" fill="#fff" transform="rotate(148.655 412.777 228.287)"/></g><g filter="url(#Y)"><circle cx="341.648" cy="226.06" r="1.751" fill="#fff" transform="rotate(148.655 341.648 226.06)"/></g><g filter="url(#Z)"><circle cx="339.245" cy="201.13" r="1.283" fill="#fff" transform="rotate(148.655 339.245 201.13)"/></g><g filter="url(#aa)"><circle cx="383.78" cy="152.908" r="1.283" fill="#fff" transform="rotate(148.655 383.78 152.908)"/></g><g filter="url(#ab)"><circle cx="303.293" cy="158.966" r="1.751" fill="#fff" transform="rotate(148.655 303.293 158.966)"/></g><g filter="url(#ac)"><circle cx="254.242" cy="117.126" r="1.751" fill="#fff" transform="rotate(148.655 254.242 117.126)"/></g><g filter="url(#ad)"><circle cx="189.266" cy="238.341" r="1.751" fill="#fff" transform="rotate(148.655 189.266 238.341)"/></g><path stroke="url(#ae)" stroke-linecap="round" stroke-width=".417" d="M365.503 290.224c26.45-23.738 36.743-55.404 22.991-70.727-13.027-14.515-42.959-9.159-68.562 11.625"/><g filter="url(#af)"><ellipse cx="317.436" cy="232.057" fill="url(#ag)" rx="19.794" ry="12.545" transform="rotate(55.173 317.436 232.057)"/></g><path stroke="url(#ah)" stroke-dasharray="0.83 0.83" stroke-linecap="round" stroke-linejoin="round" stroke-width=".208" d="m332.815 445.632-31.525 13.962m31.525-13.962-21.712-15.773m21.712 15.773 7.182-29.777m-7.182 29.777 27.799-15.752m-27.799 15.752 20.154 14.278m-20.154-14.278-10.34 30.157-13.225 27.798m-7.96-43.993 9.813-29.735m-9.813 29.735-32.81 11.036m32.81-11.036L279.999 442.2m21.291 17.394-12.173 28.831m12.173-28.831 21.185 16.174m-11.372-45.909L279.999 442.2m31.104-12.341-21.438-15.879m21.438 15.879 7.266-28.388m-7.266 28.388 28.894-14.004M314.283 545.2l-2.274.485-7.181 3.285m9.455-3.77 5.244-2.948 14.973-6.823m-20.217 9.771 20.217-9.771m-20.217 9.771-7.981 2.865m-248.205-82.89-10.067-18.49-3.6-9.266m13.667 27.756 18.721 26.114m-18.721-26.114 5.496 7.224 13.225 18.89m-18.721-26.114-13.668-27.756m13.668 27.756-1.22-10.529m1.22 10.529 15.647 17.732m344.13-38.454 6.213-14.531m-6.213 14.531 9.393-25.524m-9.393 25.524-1.559-4.612m4.191-162.536-7.961-16.615 3.644 8.255m4.317 8.36 9.94 28.431m-9.94-28.431 3.581 9.477m-3.581-9.477-6.823-7.286-1.18 12.699m8.003-5.413 3.916 18.954m-3.916-18.954-12.404-24.07m-33.484 250.563-14.026 14.089m14.026-14.089 7.16-5.665m-7.16 5.665 18.384-19.227m-18.384 19.227-23.271 18.09m23.271-18.09 14.763-20.554m-14.763 20.554-6.655-1.011m-7.371 15.1L334.5 535.429m26.092-17.542 21.186-19.754m-21.186 19.754-9.245 4.001m30.431-23.755 16.131-20.069m-16.131 20.069 11.224-13.562m-61.239-303.549 5.538.737m-5.538-.737-22.513-13.056m22.513 13.056 25.776 15.374m-25.776-15.374-30.179-11.645m30.179 11.645 19.395 17.269m-19.395-17.269-8.446 4.065m13.984-3.328 20.238 14.637m-20.238-14.637 23.249 16.7m-23.249-16.7-28.051-13.793m-273.16 134-.231.421.442-1.306m-5.792 73.455-.99 12.509m.99-12.509-2.97-21.101m2.97 21.101 8.129 20.238m-8.13-20.238 4.655 32.979M377.945 213.58l19.227 22.323-5.707-5.307m-13.52-17.016-17.395-15.121m17.395 15.121-13.983-11.772-3.411-3.348.168.61-3.18-2.674m20.406 17.184 13.52 17.016m-13.52-17.016-3.981.464m23.945 264.02-.547.505m.547-.505 8.824-12.383m-8.824 12.383 1.075-1.727m-1.075 1.727.232-.59M224.086 153.098l30.284 1.011m-30.284-1.011-30.388 3.875m30.388-3.875-8.591 3.496m8.591-3.496 21.776 2.085m8.508-1.074-8.508 1.074m8.508-1.074 23.565 4.717m-4.107 398.568 9.561-1.137m-9.561 1.137 20.175-9.393m-20.175 9.393 31-8.424m-31 8.424-10.003-3.243m10.003 3.243-29.988 3.369m29.988-3.369-21.101 4.464m-128.925-30.999-2-1.411m313.403-171.507 1.854 12.299m-1.854-12.299-3.18-31.841m3.18 31.841-1.747 31.652m1.747-31.652 1.116-20.532m-1.116 20.532-6.929-12.761m6.929 12.761-6.149 21.123m8.003-8.824-3.601 19.353m3.601-19.353-4.422 31.526.821-12.173m3.601-19.353-.738-32.831m-2.863 52.184-6.191 29.336m6.191-29.336-4.402-10.529m4.402 10.529-8.74 21.734M203.806 560.111l-1.137-.043m-8.971-403.095-21.86 5.412m21.86-5.412 21.797-.379m-21.797.379-8.529 6.297m8.529-6.297-31.252 9.329m9.392-3.917-9.392 3.917m9.392-3.917-30.789 12.046m-81.54 74.318-.632 1.706m.631-1.706-2.569 4.78m2.57-4.78-7.792 13.036m7.791-13.036 9.624-14.383m-9.624 14.383 1.285-1.221m-1.285 1.221 3.349-4.486m359.987 39.718 1.243 2.801m0 0-.569-.863m.569.863 6.359 18.954m-6.359-18.954-.043.611m.043-.611.905 3.349M77.219 225.142l.38-.653m0 0-1.307 1.727m1.306-1.727 1.642-1.601m-1.642 1.601.358-.148m280.825-26.892 1.769 1.01M45.209 275.452l2.948-5.496m197.705-114.773-30.367 1.411m30.367-1.411 32.073 3.643m-32.073-3.643 23.207 7.623m-23.207-7.623-8.95 6.381m55.027 1.347-6.654-2.569m107.717 324.229 13.731-18.89m0 0 11.14-21.228-12.424 19.185m1.284 2.043-1.285-2.043m-210.171 95.398 28.872 3.644m-28.872-3.644-22.554-5.138m22.554 5.138 21.355.99m-21.355-.99-28.387-8.213m28.387 8.213-6.17-4.717m35.042 8.361 28.578-.822m-28.578.822-7.517-2.654m7.517 2.654 19.691-1.917m8.887 1.095 30.767-5.622m-30.767 5.622-8.887-1.095m39.654-4.527 17.016-6.087m-17.016 6.087 21.334-7.266m-189.555-24.134-15.9-11.203m0 0 20.259 14.846m-20.259-14.846-4.106-5.455m4.106 5.455L76.82 491.289l18.448 16.889m24.365 20.301 24.955 14.595m-24.955-14.595 23.186 10.467m-23.186-10.467-1.579-7.118m1.579 7.118-24.365-20.301m49.32 34.896 28.136 10.824m-28.136-10.824 22.303 7.749m-22.303-7.749-1.769-4.128m29.905 14.952-5.833-3.075M36.806 418.824l7.624 18.595m-7.624-18.595-7.286-31.757m7.286 31.757-1.642-11.309m9.265 29.904.863-11.561m-.863 11.561-9.265-29.904m9.265 29.904 12.446 17.227-11.583-28.788m378.793 4.064 3.18-10.993 5.37-17.163M39.039 290.91l6.17-15.437 6.508-13.688M39.039 290.91l-7.981 29.693m7.98-29.693-2.042 18.279 2.716 20.07m-.673-38.349 8.445-12.299m-8.445 12.299 12.678-29.125m0 0 7.18-11.309m-7.18 11.309-4.233 16.826m4.233-16.826 11.666-13.246m349.163 12.13-4.443-7.434m0 0-10.93-17.332m10.93 17.332 5.58 16.805m-323.66-59.429-20.891 23.755m20.89-23.755 23.208-19.501m-23.208 19.501 16.806-11.436m-37.696 35.191-8.36 13.141m8.36-13.141 14.658-12.91m-14.659 12.91-5.748 14.173m49.847-57.429 27.819-16.679M113.23 191.11l-6.402 8.065m6.402-8.065 19.543-10.256m8.276-6.423 21.397-8.129m-21.397 8.129-8.276 6.423m224.766 15.542 16.425 17.648m-16.425-17.648-6.382 1.895m-188.711-31.989 22.723-3.012 30.326-6.696m-53.049 9.708-7.455 8.824m7.455-8.824-29.673 14.552m145.162-22.028 7.328 1.516 23.987 7.624m-31.315-9.14 31.315 9.14m-31.315-9.14 23.649 10.551m-23.649-10.551-8.866 3.98m40.181 5.16-7.666 1.411m134.737 168.032-4.001-20.407-1.874-11.266m5.875 31.673-5.875-31.673m5.875 31.673-4.296-11.309m-1.579-20.364-6.024-9.477m6.024 9.477 1.579 20.364m-400.968-5.496-.948 12.509-2.57 20.322m3.518-32.831-3.517 32.831m3.517-32.831.21 20.3m-.21-20.3 5.938-11.415m-9.455 44.246 1.98 33.632m-1.98-33.632 3.727-12.531m-1.747 46.163 5.644 20.448m41.654 83.774-3.074-8.382M334.5 535.429l16.847-13.541M334.5 535.429l-10.572 1.642m10.572-1.642.042-.042m-29.714 13.583 19.1-11.899m-19.1 11.899-10.825-.969m-84.048 6.381 25.44 1.559m-25.44-1.559 9.33-6.907m-9.33 6.907-19.669-7.876m45.109 9.435 28.43-1.79m-28.43 1.79-16.11-8.466m16.11 8.466-18.764 4.085m18.764-4.085 8.445 4.822m-8.445-4.822 12.088-8.508m-28.198.042 11.013-11.435m-11.013 11.435-28.704-.948m28.704.948h-.021m.021 0 28.198-.042m-57.197-.927-21.733-12.404m21.733 12.404-1.179 7.813m27.525 5.707-6.676-5.644-20.849-.063m27.525 5.707-27.525-5.707m27.525 5.707 27.208.737m-54.733-6.444-22.217-3.496m22.217 3.496-22.154-9.561m130.399-157.039-7.687 26.261m7.687-26.261 21.017 13.752m-21.017-13.752-26.746 2.106m26.746-2.106-9.519-25.397m9.519 25.397 19.964-18.006m-27.651 44.267-9.666 28.22m9.666-28.22 28.704-12.509m-28.704 12.509-19.059-24.155m19.059 24.155-29.356 3.791m58.06-16.3 21.628 14.384m-21.628-14.384-1.053-31.758m1.053 31.758 21.922-18.427m-69.685 6.781-30.915 1.727m30.915-1.727 17.226-27.524m-17.226 27.524-12.425-27.229m12.425 27.229-10.297 27.946m27.524-55.449 20.279-20.975m-20.279 20.975-29.652.274m59.135 7.117-29.484-7.412m29.484 7.412 20.617-20.3m-20.617 20.3-9.204-28.366m9.204 28.366 22.975 13.331m-270.359 3.391 17.522 2.274m0 0 22.912 2.022m-22.912-2.022-9.92 23.102m9.92-23.102 7.624-26.345m-7.624 26.345 10.467 27.293m-27.988-29.567 7.602 25.376m-7.602-25.376-10.761 12.972m10.761-12.972 4.886-24.408-17.374 6.992m12.488 17.416-12.488-17.416m20.09 42.792 11.436 27.503m-11.436-27.503-18.363-12.404m18.364 12.404-9.983 14.91m9.983-14.91 20.385 4.191m-38.75-16.595-8.655 13.436m8.656-13.436-1.727-30.388m0 0-10.551-19.354m10.55 19.354 5.37-27.125m-5.37 27.125-10.909 12.614m354.723-133.6 12.425 22.007m-12.425-22.007-1.011 9.582m1.011-9.582-14.91-15.142m27.335 37.149-13.436-12.425m0 0-4.232 12.91m4.232-12.91-13.899-24.724m13.899 24.724-17.289-14.931m17.289 14.931 12.256 25.103m-26.155-49.827-19.775-15.057m19.775 15.057 5.117-2.295m-5.117 2.295-12.384-18.847m12.384 18.847-3.391 9.793m25.145 10.551-6.845-5.202-9.792-17.437m16.637 22.639-16.637-22.639m0 0-17.501-16.552M194.14 189.91l10.509 13.225M194.14 189.91l-19.332 14.004m19.332-14.004 26.05-4.023m-15.541 17.248 12.593 18.132m-12.593-18.132-29.841.779m29.841-.779 15.541-17.248m-15.541 17.248 28.998-2.359m-28.998 2.359-19.838 17.205m-10.003-16.426-20.933 18.806m20.933-18.806-2.337-16.637m47.719-1.39-19.986-9.561m-27.735 10.951 21.67 2.632 6.065-13.583m-27.735 10.951-22.785.169m22.785-.169 27.735-10.951m0 0 7.182-11.604m198.063 298.916-12.446 20.933-3.622-1.327m16.068-19.606-4.591-4.275m4.591 4.275 10.866-23.797m-10.866 23.797-16.068 19.606m0 0 11.477-23.881m-11.477 23.881-21.418 19.543m21.418-19.543-7.498-4.191m-30.536 42.835-27.419 15.183m27.419-15.183 16.616-19.101m-16.616 19.101-10.087-1.453m26.703-17.648-26.703 17.648m26.703-17.648-10.93-4.696m-33.105 38.98-29.925 10.93m29.925-10.93 17.332-16.636m-17.332 16.636-13.246-2.737m30.578-13.899 15.773-22.344m-15.773 22.344-30.578 13.899m30.578-13.899-14.173-5.96m-33.084 33.526-30.178 6.15m46.857-19.817-16.679 13.667-15.415-4.654m32.094-9.013 16.405-19.859m-16.405 19.859-32.094 9.013m32.094-9.013-16.531-7.792m-30.326 27.609-19.985 6.612m19.985-6.612 14.763-10.804m-14.763 10.804-16.342-6.718m31.105-4.086 15.563-16.805m-15.563 16.805-31.105 4.086m31.105-4.086-17.521-9.771m-13.584 13.857-17.184-11.393 30.768-2.464m-13.584 13.857 13.584-13.857m-30.769 2.464 12.383-16.827m-12.383 16.827-20.827-13.541 33.21-3.286m-12.383 16.827-31.441 1.137m0 0 20.238 10.214m-20.238-10.214-8.593 9.329-23.312-1.748m31.905-7.581-30.304-3.075m30.304 3.075 10.614-14.657m-10.614 14.657-22.492-15.626m66.316-2.338 13.058-22.217m-13.058 22.217-20.869-17.226m20.869 17.226 18.385 14.363m-18.385-14.363 32.642-5.496m-14.256 19.859 14.257-19.859 18.827 12.825m-33.084 7.034 33.084-7.034m-38.412-29.546 12.74-26.366m-12.74 26.366-20.638-20.723m20.638 20.723-33.927 4.991m0 0 13.289-25.714m-13.289 25.714-22.681-22.934m22.681 22.934-12.341 20.533m12.341-20.533-35.169 1.179m88.68 10.551-19.585-16.7 33.379-8.592m-13.794 25.292 13.794-25.292m-13.794 25.292 33.927-10.13m-40.771-32.957-20.217-23.292m20.217 23.292-33.378 5.643m0 0 13.162-28.935m-13.162 28.935-22.176-25.586m22.176 25.586-35.97 2.78m89.986 9.372L268.48 470.63m20.637 17.795 20.133 15.162m-20.133-15.162 33.358-12.657m-53.995-5.138 11.519-28.43m0 0-19.69-24.429m19.69 24.429-31.736 5.138m12.046-29.567-20.618-26.219m20.618 26.219-12.046 29.567m12.046-29.567-33.506 2.864m21.46 26.703-21.46-26.703m21.46 26.703-35.338 3.349m127.072-34.832 20.617 14.025m-20.617-14.025 23.038-18.743m-23.038 18.743.294-32.811m0 0-2.359-33.632m2.359 33.632 22.744 14.068m-22.744-14.068 21.733-20.87m-1.41 67.706 17.795 12.488m-17.795-12.488 22.891-19.059m-22.891 19.059-7.645 30.03m10.066-62.798-2.422 32.768m2.422-32.768 20.47 13.709m-20.47-13.709 21.67-21.312m-21.67 21.312-1.011-34.938m16.385 80.194 13.583 9.961m-13.583-9.961 21.312-19.375m-21.312 19.375 5.096-31.547m-5.096 31.547-8.698 28.936m8.698-28.936-25.44 17.542m30.536-49.089 16.216 12.172m-16.216-12.172 20.132-21.585m-20.132 21.585 1.2-35.021m-31.736 84.11 16.742 11.394m-16.742-11.394-11.351 29.104m11.351-29.104-30.494 15.858m69.517-23.439 8.866 7.034m-8.866-7.034 18.616-19.564m-18.616 19.564 7.729-29.336m-7.729 29.336-10.109 26.724m10.109-26.724-22.281 18.975m30.01-48.311 10.887 9.772m-10.887-9.772 17.395-21.648m-17.395 21.648 3.916-33.757m-33.926 82.068 12.172 7.749m-12.172-7.749-12.678 26.787m12.678-26.787-28.093 17.71m59.24-29.651 15.457-19.522m-15.457 19.522 9.75-26.598m-9.75 26.598-18.975 19.69m28.725-46.288 5.708 7.076 8.402-28.514m-14.11 21.438 14.11-21.438m-14.11 21.438 6.508-31.42m-35.233 77.708-13.941 23.734m13.941-23.734-24.85 19.038m59.282-58.25 10.952-20.912m-316.901-28.198 28.283 1.474m-28.283-1.474 10.951-28.073 17.332 29.547m-28.283-1.474-15.288-28.367m15.288 28.367-12.445 25.271m12.445-25.271 13.815 28.745m-36.749-30.809-12.614-26.64m0 0 8.487-27.777m-8.487 27.777-12.004-20.133m12.004 20.133 20.26.337m0 0L83.305 334.25m11.773 28.114 26.218.295m-26.218-.295 11.645-29.778m-8.802 83.416-8.95 23.312m8.95-23.312 26.26 3.474m-26.26-3.474 14.635 29.167m26.093-52.964 32.473.695m-32.473-.695 14.383-29.357m-14.383 29.357-14.468 27.271m14.468-27.271 17.206 29.42m-31.674-2.149-11.625 25.693m11.625-25.693 31.674 2.149m-31.674-2.149 17.964 30.031m10.887-86.659 18.153 29.989m-18.153-29.989 35.359.063m-35.359-.063 17.879-32.052m-17.879 32.052-31.736-.189m31.736.189-16.7-31.504m19.523 90.281 15.352-28.725m-15.352 28.725-13.71 27.882m13.71-27.882 35.169.421m-35.169-.421 20.617 29.862m-5.265-58.587 34.6-.253m-34.6.253 17.184-30.01 17.416 29.757m-34.6.253 19.817 29.146m14.783-29.399 33.884-1.095m-33.884 1.095 18.595-29.841m-33.378 59.24 14.783-29.378 20.996 27.967m-35.779 1.411-14.552 29.441m14.552-29.441 35.779-1.411m-35.779 1.411 21.901 28.641m26.766-59.135 18.49-28.956m-18.49 28.956-15.289-28.746m15.289 28.746-12.888 29.083m-2.401-57.829 33.779-.21m-33.779.21 19.312-30.746m-19.312 30.746-36.011.105m36.011-.105-16.595-31.757m18.996 89.586-13.878 30.052m45.256-88.091 17.838-29.02m-17.838 29.02-14.467-30.536m44.118 30.241-11.813-28.725M168.553 534.102l-22.659-17.647m22.659 17.647-25.334-4.148m25.334 4.148-1.6 10.656m1.6-10.656 7.812-12.551m-30.471-5.096 7.328-16.216m-7.328 16.216 30.472 5.096m-9.413 23.207-.063 6.065m.063-6.065-24.135-5.812m24.135 5.812-23.735-14.804m33.147-8.403 33.106.969m-63.578-6.065-21.902-22.681m21.902 22.681-26.325-6.992m26.325 6.992-2.675 13.499m-19.227-36.18-19.416-26.409m19.416 26.409-25.945-9.73m25.945 9.73-4.423 15.689m4.423-15.689 7.35-19.691m-7.35 19.691 29.231 6.465m-33.654 9.224 23.65 20.491m-23.65-20.491-1.515 11.898m25.165 8.593-25.165-8.593m25.165 8.593-.4 8.992m10.404-38.707-21.881-26.156m21.881 26.156 10.298-21.965m-10.298 21.965 33.421 2.927m-33.421-2.927 23.144 21.312m0 0 10.277-18.385m-82.068-35.801L88.97 439.314m15.605 28.051-24.133-11.73m24.133 11.73-6.529 16.679m6.529-16.679 7.981-22.196m-7.981 22.196 26.766 6.718m-33.295 9.961L80.44 455.635l-5.412 15.037m23.018 13.372-23.018-13.372m23.018 13.372 21.524 25.419-24.83-11.33zm33.295-9.961-18.784-28.914 29.588 4.338m-10.804 24.576 10.804-24.576m-10.804 24.576 32.179 4.191m-74.55-38.96-21.417-12.593m21.418 12.593-8.53 16.321m8.53-16.321 23.585 5.855m-32.114 10.466-12.889-28.914m12.889 28.914L60.224 441.42m7.33-14.699-7.33 14.699M166.89 550.823l-24.072-11.877m0 0-24.765-17.585m-72.76-95.503 5.223-13.015m-5.224 13.015-6.633-31.084 11.857 18.069m-5.224 13.015-10.129-18.343m10.13 18.343 14.931 15.562m-9.708-28.577-3.98-31.21m3.98 31.21 17.036 13.878-8.382-27.314-12.635-17.774m3.98 31.21 9.71 28.577m-25.062-33.905 3.475-12.741m21.586 46.646 14.805 29.252-18.153-16.026m3.348-13.226-3.348 13.226m-10.34-73.013.358-31.968m-.359 31.968-7.897 13.141m7.897-13.141-9.813-19.88m180.52-140.486 16.405-20.491m-16.405 20.491-32.431-.927m32.431.927-19.922 20.912m36.327-41.403-13.456-14.889m13.456 14.889 15.964-16.258m-15.964 16.258 15.332 20.512m-15.332-20.512 32.263.821m-81.099 18.743-30.937 2.38 9.582 20.112m21.355-22.492-10.004-16.426-24.029-.948m34.033 17.374 12.509 21.839m-12.509-21.839-21.355 22.492m68.169 1.769-14.384-23.334 31.758.021zm0 0 15.353 27.798m-15.353-27.798 33.758 2.8m-33.758-2.8-34.306-2.423m34.306 2.423-19.627 24.66m-14.678-27.082-33.864.653m83.522 29.567 15.183 30.472m-15.183-30.472 34.558 5.412-19.375 25.06m-15.183-30.472 18.405-24.998m-18.405 24.998-34.98-3.138m34.98 3.138-19.08 27.651m37.485-52.649 16.174 30.41m-16.174-30.41 35.338 6.086m-35.338-6.086-16.404-26.113m16.404 26.113 18.027-22.638m-86.091 17.415 14.679 27.083m-14.679-27.083-21.311 26.282m35.99.801-35.99-.78-33.927 1.791m69.917-1.011 15.9 30.789m-15.9-30.789-20.828 29.378m70.991 4.232 13.858 30.705m-13.858-30.705 33.927 7.161m-33.927-7.161-34.263-2.821m34.263 2.821-18.447 29.189m-15.816-32.01-36.728-1.411m36.728 1.411 15.816 32.01m-15.816-32.01-20.091 30.999m68.212 2.527 32.093 7.771m-32.093-7.771 20.069-23.544m-20.069 23.544-32.305-1.516m52.374-22.028 12.024 31.315m-12.024-31.315 32.684 8.55m-32.684-8.55-14.531-32.221m14.531 32.221 20.154-24.303m-72.528 46.331-35.907-1.011m100.305 10.298 29.821 8.066m-29.821-8.066 20.66-22.765M83.305 334.25l12.699-29.904M83.305 334.25l-10.74-22.534m10.74 22.534-20.49 7.644m20.49-7.644 23.418-1.664m-43.909 9.308-15.92 7.771m15.92-7.771-9.434-21.628m9.434 21.628 9.75-30.178m23.44-7.37 16.784-30.052m-16.784 30.052-8.824-23.987m8.824 23.987-23.44 7.37m23.44-7.37 26.64-3.307m-26.64 3.307 10.719 28.24m-34.158-20.87 14.615-31.357m-14.615 31.357-7.623-23.06m7.623 23.06-19.185 8.55m53.343 12.32 15.921-31.547m-15.921 31.547 29.609-1.242m-29.609 1.242 14.573 30.073m-8.508-88.365 19.838-27.84m-19.838 27.84-6.57-23.965m6.57 23.965-25.608 6.065m25.608-6.065 29.293-4.001m-29.293 4.001 9.856 26.745m-35.464-20.68 19.038-30.03m-19.038 30.03-5.37-23.123m5.37 23.123-22.238 8.297m57.702 12.383 19.437-30.746m-19.437 30.746 32.389-2.042m-32.389 2.042 13.688 30.305m-3.706-84.89 21.249-23.734m-21.249 23.734-4.528-22.408m4.528 22.408-26.408 3.875m26.408-3.875 30.831-3.623m-30.831 3.623 9.455 23.839m-35.863-19.964 21.88-26.283m-21.88 26.283-3.285-21.565m3.285 21.565-24.408 6.907m60.271 13.057 21.376-27.462m-21.376 27.462 12.952 28.704m-1.158-76.277-3.096-19.754m3.096 19.754-25.777 1.326m0 0 22.681-21.08m-22.681 21.08-1.811-18.805m1.811 18.805-25.165 4.718m60.524 14.067 12.551 25.629m-25.229-65.494-1.095-15.541-23.397 17.816m24.492-2.275 21.692-15.689m-21.692 15.689-24.492 2.275m46.184-17.964 5.559-13.373m235.652 96.136 10.74 26.219m0 0 7.603 29.841m-7.603-29.841-11.919-13.541m11.919 13.541-2.021 16.068m-9.898-29.609-16.488-12.193m16.488 12.193 9.898 29.609m-9.898-29.609-5.201 16.215m24.723 27.167-9.624-13.773m9.624 13.773-3.749 19.08m-5.875-32.853-15.099-13.394m15.099 13.394 5.875 32.853m-5.875-32.853-6.971 19.333m12.846 13.52-12.846-13.52m12.846 13.52.78 33.884m-.78-33.884-9.349 21.543m10.129 12.341-10.129-12.32-16.195-13.372m26.324 25.692-4.338 32.263m4.338-32.263-11.94 22.281m10.151 17.584-2.549-7.602m0 0-7.602-9.982m-79.183-51.932-9.161-30.831m9.16 30.83 19.69-21.564m-19.69 21.564 24.092 12.762m-4.402-34.326-9.582-32.242m9.582 32.242-28.851-9.266m.001 0 19.269-22.976m-19.269 22.976-12.53-32.853m45.782 76.445-4.401-34.326m4.401 34.326 19.564-22.133m-19.564 22.133 22.681 13.626m-27.082-47.952 17.037-21.375m-17.037 21.375 23.965 12.193m-6.928-33.568 12.951-19.501m-12.951 19.501-10.571-32.116m10.571 32.116-26.619-10.867m26.619 10.867 22.365 11.919m-22.365-11.919 6.928 33.568m0 0 15.437-21.649m-15.437 21.649 3.117 35.759m2.906-88.828-11.835-30.515m11.835 30.515-23.522-12.615m0 0 11.688-17.9m-11.688 17.9-14.637-31.189m14.637 31.189-16.048 21.249m16.048-21.249-29.505-11.603m13.457 32.852-13.456-32.852m13.456 32.852-31.799-9.877m80.783 32.663-9.413-31.42m9.413 31.42 10.277-19.459m-10.277 19.459 18.405 13.268m-18.405-13.268 5.707 34.98m-15.12-66.4 8.403-16.447m-8.403 16.447 19.69 11.961m-11.287-28.408-13.057-27.841m13.057 27.841-20.238-14.068m20.238 14.068 11.287 28.408m0 0 8.128 32.727m-32.472-88.976-16.385-24.85m16.385 24.85-7.181 13.773m7.181-13.773-22.913-14.51m15.732 28.283-15.732-28.283m15.732 28.283-26.325-13.289M47.484 278.611l.505 19.986m-.505-19.986 14.277-11.625m-14.277 11.625 15.899-30.072m-23.67 80.72 7.18 20.406m-7.18-20.406 13.667-8.993m-13.668 8.993 8.276-30.662-10.993 10.592m2.717 20.07-8.445 11.645m8.445-11.645-2.99 32.494m.273-52.564 10.488-30.578m-10.488 30.578-5.728 31.715m0 0 5.455 20.849m-5.455-20.849-.757 33.632 6.212-12.783m10.172-12.088 6.486-29.399m-6.486 29.399-10.172 12.088m16.658-41.487-5.39-21.669m5.39 21.669 11.562-31.61m-28.22 73.097 1.916 33.021M220.19 185.887l29.42-1.369m-29.42 1.369 7.981-13.562m21.439 12.193 31.525 2.359m-31.525-2.359 9.728-12.678m-9.728 12.678-21.439-12.193m21.439 12.193 16.299 17.079m-37.738-29.272-27.967 4.001-22.175-2.422m50.142-1.579-20.786-7.603m20.786 7.603 31.167-.485m-31.167.485 8.74-10.761m44.224 25.313 31.483 6.676m-31.483-6.676 10.761-10.867m-10.761 10.867-21.797-15.037m0 0 32.558 4.17m-32.558-4.17 9.73-9.034m-9.73 9.034-22.427-10.276m28.998 40.033 15.205-14.72 18.406 19.606m-33.611-4.886 33.611 4.886m-33.611-4.886 17.5 23.166m-17.5-23.166-16.931 19.691m63.64-27.735 29.104 10.677m-29.104-10.677 10.698-8.466m-10.698 8.466-20.722-17.543m20.722 17.543 19.122 22.07m-19.122-22.07-13.098 12.93m-7.624-30.473 31.42 9.077m-31.42-9.077 9.687-6.633m-9.687 6.633-22.828-13.204m30.452 43.677 32.22 9.14m-32.22-9.14-16.111 18.28m58.313-20.533 24.85 13.604m-24.85-13.604-18.406-19.143m0 0 27.841 13.204m-27.841-13.204-21.733-15.71m30.157 46.246 9.983-11.393m-9.983 11.393 28.304 12.551m-28.304-12.551 17.711 27.545m-17.711-27.545-13.836 16.574m48.668-14.363 7.391-3.79m-7.391 3.79-15.416-19.543m15.416 19.543-6.528 10.34m-18.321-23.944 9.434-5.939m-9.434 5.939 18.321 23.944m0 0-10.593 14.994m24.512-29.124-22.807-15.753m-244.329.884 20.386-7.876m-20.386 7.876 25.946-18.342-5.56 10.466m-20.386 7.876-3.538 12.257m3.538-12.257L83.79 221.456m6.191-10.761-6.191 10.761m0 0 19.5-10.024m-19.5 10.024-3.076 15.647m3.076-15.647-20.407 27.083m63.831-57.24 22.47-3.853m-22.47 3.853 27.777-16.194-5.307 12.341m-22.47 3.853-.927 13.942m.927-13.942-23.924 20.133m0 0 22.997-6.191m-22.997 6.191-.357 17.332m.357-17.332-22.576 25.671m68.97-49.657 28.346-13.542m-51.743 31.337-23.354 23.523m75.097-54.86-23.039 1.222m23.039-1.222 7.139-10.634m22.217 1.452-22.218-1.431m22.218 1.431-29.357 9.183m29.357-9.183 29.462-3.158m-29.461 3.159 8.108-8.129m0 0 21.312 4.949m-51.638 1.727-30.178 11.856m0 0-22.218 5.728m168.811-11.477-32.515-6.571m0 0-32.157-1.242M81.81 257.236l21.122-28.472-22.218 8.339m1.096 20.133-1.096-20.133m1.096 20.133-16.868 31.42m16.868-31.42-20.05 9.75m18.954-29.883-18.953 29.883m18.953-29.883-17.331 11.436m1.559 40.117-3.18-21.67 1.621-18.447m1.559 40.117-16.953 9.941m13.772-31.611-13.772 31.611m301.463-55.429-14.868 19.586m14.868-19.586-31.547-10.971m16.679 30.557-16.679-30.557m16.679 30.557-18.342 22.975m18.342-22.975-33.863-9.267m17.184-21.29-18.406-25.714m18.406 25.714-17.184 21.29m17.184-21.29-34.495-7.434m32.832 60.966-15.521-32.242m15.521 32.242-34.685-7.918m19.164-24.324-17.311-28.724m17.311 28.724-19.164 24.324m1.853-53.048-34.431-3.475m-213.1 81.352-.02-.274-.043.253M415.43 331.66l3.497 35.063m-3.497-35.063-12.698 21.712m16.195 13.351-1.811 34.622m1.811-34.622-15.29 22.513m-.905-35.864-21.143-13.31m21.143 13.31.905 35.864m-.905-35.864L384.705 375.8m32.411 25.545-13.479-12.109m0 0L384.705 375.8M176.008 268.46l15.162 30.179m-15.162-30.179-20.976 30.536 36.138-.357m0 0 16.637 32.41m-16.637-32.41-20.259 32.157m-15.878-31.799 15.878 31.799m-15.878-31.799-18.701 32.347m71.475-.295-36.896-.253m36.896.253-19.416 31.862m-17.48-32.115-34.579.548m34.579-.548 17.48 32.115m-52.059-31.567-15.036 31.315M75.028 470.672l19.712 27.461m-19.712-27.461-1.284 12.235m-16.868-28.261 16.868 28.261m20.996 15.226-20.996-15.226m20.996 15.226 23.313 23.228M94.74 498.133l.527 10.045m-21.523-25.271 21.523 25.271m22.786 13.183-22.786-13.183m46.878-58.671 34.327 1.98m-34.327-1.98 21.375 28.767m12.952-26.787-12.952 26.787m12.952-26.787 36.453-.8m-36.453.8 22.659 27.566m-35.611-.779 35.611.779m-35.611-.779 23.123 24.892m26.282-52.479-13.794 28.366m0 0-12.488 24.113m0 0 22.828 19.354m147.562-24.429-29.946 16.384m29.946-16.384-15.415-9.077m-14.531 25.461 14.531-25.461m-14.531 25.461-32.936 12.067m32.936-12.067-17.837-10.888m32.368-14.573-32.368 14.573m32.368-14.573-19.143-13.246m-13.225 27.819-15.1 22.955"/><g filter="url(#ai)"><circle cx="46.301" cy="274.744" r="1.751" fill="#fff" transform="rotate(148.655 46.3 274.744)"/></g></g><defs><filter id="b" width="583.464" height="329.148" x="-12.793" y="-19.824" color-interpolation-filters="sRGB" filterUnits="userSpaceOnUse"><feFlood flood-opacity="0" result="BackgroundImageFix"/><feBlend in="SourceGraphic" in2="BackgroundImageFix" result="shape"/><feGaussianBlur result="effect1_foregroundBlur_3056_33820" stdDeviation="25.576"/></filter><filter id="c" width="356.201" height="229.084" x="214.63" y="21.654" color-interpolation-filters="sRGB" filterUnits="userSpaceOnUse"><feFlood flood-opacity="0" result="BackgroundImageFix"/><feBlend in="SourceGraphic" in2="BackgroundImageFix" result="shape"/><feGaussianBlur result="effect1_foregroundBlur_3056_33820" stdDeviation="5.956"/></filter><filter id="d" width="251.626" height="131.458" x="278.722" y="96.55" color-interpolation-filters="sRGB" filterUnits="userSpaceOnUse"><feFlood flood-opacity="0" result="BackgroundImageFix"/><feBlend in="SourceGraphic" in2="BackgroundImageFix" result="shape"/><feGaussianBlur result="effect1_foregroundBlur_3056_33820" stdDeviation="16.125"/></filter><filter id="e" width="3.703" height="3.703" x="108.373" y="176.15" color-interpolation-filters="sRGB" filterUnits="userSpaceOnUse"><feFlood flood-opacity="0" result="BackgroundImageFix"/><feColorMatrix in="SourceAlpha" result="hardAlpha" values="0 0 0 0 0 0 0 0 0 0 0 0 0 0 0 0 0 0 127 0"/><feOffset/><feGaussianBlur stdDeviation=".616"/><feComposite in2="hardAlpha" operator="out"/><feColorMatrix values="0 0 0 0 1 0 0 0 0 1 0 0 0 0 1 0 0 0 0.52 0"/><feBlend in2="BackgroundImageFix" result="effect1_dropShadow_3056_33820"/><feBlend in="SourceGraphic" in2="effect1_dropShadow_3056_33820" result="shape"/></filter><filter id="f" width="3.703" height="3.703" x="99.709" y="121.15" color-interpolation-filters="sRGB" filterUnits="userSpaceOnUse"><feFlood flood-opacity="0" result="BackgroundImageFix"/><feColorMatrix in="SourceAlpha" result="hardAlpha" values="0 0 0 0 0 0 0 0 0 0 0 0 0 0 0 0 0 0 127 0"/><feOffset/><feGaussianBlur stdDeviation=".616"/><feComposite in2="hardAlpha" operator="out"/><feColorMatrix values="0 0 0 0 1 0 0 0 0 1 0 0 0 0 1 0 0 0 0.52 0"/><feBlend in2="BackgroundImageFix" result="effect1_dropShadow_3056_33820"/><feBlend in="SourceGraphic" in2="effect1_dropShadow_3056_33820" result="shape"/></filter><filter id="g" width="3.703" height="3.703" x="123.767" y="134.721" color-interpolation-filters="sRGB" filterUnits="userSpaceOnUse"><feFlood flood-opacity="0" result="BackgroundImageFix"/><feColorMatrix in="SourceAlpha" result="hardAlpha" values="0 0 0 0 0 0 0 0 0 0 0 0 0 0 0 0 0 0 127 0"/><feOffset/><feGaussianBlur stdDeviation=".616"/><feComposite in2="hardAlpha" operator="out"/><feColorMatrix values="0 0 0 0 1 0 0 0 0 1 0 0 0 0 1 0 0 0 0.52 0"/><feBlend in2="BackgroundImageFix" result="effect1_dropShadow_3056_33820"/><feBlend in="SourceGraphic" in2="effect1_dropShadow_3056_33820" result="shape"/></filter><filter id="h" width="3.703" height="3.703" x="205.674" y="47.217" color-interpolation-filters="sRGB" filterUnits="userSpaceOnUse"><feFlood flood-opacity="0" result="BackgroundImageFix"/><feColorMatrix in="SourceAlpha" result="hardAlpha" values="0 0 0 0 0 0 0 0 0 0 0 0 0 0 0 0 0 0 127 0"/><feOffset/><feGaussianBlur stdDeviation=".616"/><feComposite in2="hardAlpha" operator="out"/><feColorMatrix values="0 0 0 0 1 0 0 0 0 1 0 0 0 0 1 0 0 0 0.52 0"/><feBlend in2="BackgroundImageFix" result="effect1_dropShadow_3056_33820"/><feBlend in="SourceGraphic" in2="effect1_dropShadow_3056_33820" result="shape"/></filter><filter id="i" width="3.703" height="3.703" x="461.178" y="264.564" color-interpolation-filters="sRGB" filterUnits="userSpaceOnUse"><feFlood flood-opacity="0" result="BackgroundImageFix"/><feColorMatrix in="SourceAlpha" result="hardAlpha" values="0 0 0 0 0 0 0 0 0 0 0 0 0 0 0 0 0 0 127 0"/><feOffset/><feGaussianBlur stdDeviation=".616"/><feComposite in2="hardAlpha" operator="out"/><feColorMatrix values="0 0 0 0 1 0 0 0 0 1 0 0 0 0 1 0 0 0 0.52 0"/><feBlend in2="BackgroundImageFix" result="effect1_dropShadow_3056_33820"/><feBlend in="SourceGraphic" in2="effect1_dropShadow_3056_33820" result="shape"/></filter><filter id="j" width="3.703" height="3.703" x="465.115" y="220.033" color-interpolation-filters="sRGB" filterUnits="userSpaceOnUse"><feFlood flood-opacity="0" result="BackgroundImageFix"/><feColorMatrix in="SourceAlpha" result="hardAlpha" values="0 0 0 0 0 0 0 0 0 0 0 0 0 0 0 0 0 0 127 0"/><feOffset/><feGaussianBlur stdDeviation=".616"/><feComposite in2="hardAlpha" operator="out"/><feColorMatrix values="0 0 0 0 1 0 0 0 0 1 0 0 0 0 1 0 0 0 0.52 0"/><feBlend in2="BackgroundImageFix" result="effect1_dropShadow_3056_33820"/><feBlend in="SourceGraphic" in2="effect1_dropShadow_3056_33820" result="shape"/></filter><filter id="k" width="3.703" height="3.703" x="413.353" y="111.928" color-interpolation-filters="sRGB" filterUnits="userSpaceOnUse"><feFlood flood-opacity="0" result="BackgroundImageFix"/><feColorMatrix in="SourceAlpha" result="hardAlpha" values="0 0 0 0 0 0 0 0 0 0 0 0 0 0 0 0 0 0 127 0"/><feOffset/><feGaussianBlur stdDeviation=".616"/><feComposite in2="hardAlpha" operator="out"/><feColorMatrix values="0 0 0 0 1 0 0 0 0 1 0 0 0 0 1 0 0 0 0.52 0"/><feBlend in2="BackgroundImageFix" result="effect1_dropShadow_3056_33820"/><feBlend in="SourceGraphic" in2="effect1_dropShadow_3056_33820" result="shape"/></filter><filter id="l" width="3.703" height="3.703" x="375.553" y="-1.006" color-interpolation-filters="sRGB" filterUnits="userSpaceOnUse"><feFlood flood-opacity="0" result="BackgroundImageFix"/><feColorMatrix in="SourceAlpha" result="hardAlpha" values="0 0 0 0 0 0 0 0 0 0 0 0 0 0 0 0 0 0 127 0"/><feOffset/><feGaussianBlur stdDeviation=".616"/><feComposite in2="hardAlpha" operator="out"/><feColorMatrix values="0 0 0 0 1 0 0 0 0 1 0 0 0 0 1 0 0 0 0.52 0"/><feBlend in2="BackgroundImageFix" result="effect1_dropShadow_3056_33820"/><feBlend in="SourceGraphic" in2="effect1_dropShadow_3056_33820" result="shape"/></filter><filter id="m" width="558.694" height="377.679" x="167.799" y="18.483" color-interpolation-filters="sRGB" filterUnits="userSpaceOnUse"><feFlood flood-opacity="0" result="BackgroundImageFix"/><feBlend in="SourceGraphic" in2="BackgroundImageFix" result="shape"/><feGaussianBlur result="effect1_foregroundBlur_3056_33820" stdDeviation="50.536"/></filter><filter id="n" width="1039.21" height="837.364" x="-26.454" y="-268.282" color-interpolation-filters="sRGB" filterUnits="userSpaceOnUse"><feFlood flood-opacity="0" result="BackgroundImageFix"/><feBlend in="SourceGraphic" in2="BackgroundImageFix" result="shape"/><feGaussianBlur result="effect1_foregroundBlur_3056_33820" stdDeviation="135.879"/></filter><filter id="r" width="570.913" height="570.913" x="-84.332" y="95.301" color-interpolation-filters="sRGB" filterUnits="userSpaceOnUse"><feFlood flood-opacity="0" result="BackgroundImageFix"/><feBlend in="SourceGraphic" in2="BackgroundImageFix" result="shape"/><feGaussianBlur result="effect1_foregroundBlur_3056_33820" stdDeviation="31.656"/></filter><filter id="u" width="755.198" height="510.511" x="-308.765" y="-126.554" color-interpolation-filters="sRGB" filterUnits="userSpaceOnUse"><feFlood flood-opacity="0" result="BackgroundImageFix"/><feBlend in="SourceGraphic" in2="BackgroundImageFix" result="shape"/><feGaussianBlur result="effect1_foregroundBlur_3056_33820" stdDeviation="68.31"/></filter><filter id="x" width="46.749" height="76.241" x="1.001" y="272.434" color-interpolation-filters="sRGB" filterUnits="userSpaceOnUse"><feFlood flood-opacity="0" result="BackgroundImageFix"/><feBlend in="SourceGraphic" in2="BackgroundImageFix" result="shape"/><feGaussianBlur result="effect1_foregroundBlur_3056_33820" stdDeviation="1.541"/></filter><filter id="z" width="190.046" height="113.569" x="1.004" y="235.106" color-interpolation-filters="sRGB" filterUnits="userSpaceOnUse"><feFlood flood-opacity="0" result="BackgroundImageFix"/><feBlend in="SourceGraphic" in2="BackgroundImageFix" result="shape"/><feGaussianBlur result="effect1_foregroundBlur_3056_33820" stdDeviation="1.541"/></filter><filter id="G" width="118.44" height="60.995" x="187.512" y="99.028" color-interpolation-filters="sRGB" filterUnits="userSpaceOnUse"><feFlood flood-opacity="0" result="BackgroundImageFix"/><feBlend in="SourceGraphic" in2="BackgroundImageFix" result="shape"/><feGaussianBlur result="effect1_foregroundBlur_3056_33820" stdDeviation="1.541"/></filter><filter id="K" width="20.155" height="54.534" x="378.997" y="146.036" color-interpolation-filters="sRGB" filterUnits="userSpaceOnUse"><feFlood flood-opacity="0" result="BackgroundImageFix"/><feBlend in="SourceGraphic" in2="BackgroundImageFix" result="shape"/><feGaussianBlur result="effect1_foregroundBlur_3056_33820" stdDeviation="1.541"/></filter><filter id="M" width="62.155" height="56.897" x="336.997" y="146.036" color-interpolation-filters="sRGB" filterUnits="userSpaceOnUse"><feFlood flood-opacity="0" result="BackgroundImageFix"/><feBlend in="SourceGraphic" in2="BackgroundImageFix" result="shape"/><feGaussianBlur result="effect1_foregroundBlur_3056_33820" stdDeviation="1.541"/></filter><filter id="T" width="126.097" height="108.975" x="128.758" y="94.165" color-interpolation-filters="sRGB" filterUnits="userSpaceOnUse"><feFlood flood-opacity="0" result="BackgroundImageFix"/><feBlend in="SourceGraphic" in2="BackgroundImageFix" result="shape"/><feGaussianBlur result="effect1_foregroundBlur_3056_33820" stdDeviation="1.541"/></filter><filter id="V" width="191.444" height="139.218" x="128.758" y="94.165" color-interpolation-filters="sRGB" filterUnits="userSpaceOnUse"><feFlood flood-opacity="0" result="BackgroundImageFix"/><feBlend in="SourceGraphic" in2="BackgroundImageFix" result="shape"/><feGaussianBlur result="effect1_foregroundBlur_3056_33820" stdDeviation="1.541"/></filter><filter id="X" width="7.116" height="7.12" x="409.22" y="224.727" color-interpolation-filters="sRGB" filterUnits="userSpaceOnUse"><feFlood flood-opacity="0" result="BackgroundImageFix"/><feColorMatrix in="SourceAlpha" result="hardAlpha" values="0 0 0 0 0 0 0 0 0 0 0 0 0 0 0 0 0 0 127 0"/><feOffset/><feGaussianBlur stdDeviation=".904"/><feComposite in2="hardAlpha" operator="out"/><feColorMatrix values="0 0 0 0 1 0 0 0 0 1 0 0 0 0 1 0 0 0 0.52 0"/><feBlend in2="BackgroundImageFix" result="effect1_dropShadow_3056_33820"/><feBlend in="SourceGraphic" in2="effect1_dropShadow_3056_33820" result="shape"/></filter><filter id="Y" width="10.896" height="10.899" x="336.201" y="220.611" color-interpolation-filters="sRGB" filterUnits="userSpaceOnUse"><feFlood flood-opacity="0" result="BackgroundImageFix"/><feColorMatrix in="SourceAlpha" result="hardAlpha" values="0 0 0 0 0 0 0 0 0 0 0 0 0 0 0 0 0 0 127 0"/><feOffset/><feGaussianBlur stdDeviation="1.849"/><feComposite in2="hardAlpha" operator="out"/><feColorMatrix values="0 0 0 0 1 0 0 0 0 1 0 0 0 0 1 0 0 0 0.52 0"/><feBlend in2="BackgroundImageFix" result="effect1_dropShadow_3056_33820"/><feBlend in="SourceGraphic" in2="effect1_dropShadow_3056_33820" result="shape"/></filter><filter id="Z" width="9.962" height="9.962" x="334.263" y="196.15" color-interpolation-filters="sRGB" filterUnits="userSpaceOnUse"><feFlood flood-opacity="0" result="BackgroundImageFix"/><feColorMatrix in="SourceAlpha" result="hardAlpha" values="0 0 0 0 0 0 0 0 0 0 0 0 0 0 0 0 0 0 127 0"/><feOffset/><feGaussianBlur stdDeviation="1.849"/><feComposite in2="hardAlpha" operator="out"/><feColorMatrix values="0 0 0 0 1 0 0 0 0 1 0 0 0 0 1 0 0 0 0.52 0"/><feBlend in2="BackgroundImageFix" result="effect1_dropShadow_3056_33820"/><feBlend in="SourceGraphic" in2="effect1_dropShadow_3056_33820" result="shape"/></filter><filter id="aa" width="9.962" height="9.962" x="378.798" y="147.927" color-interpolation-filters="sRGB" filterUnits="userSpaceOnUse"><feFlood flood-opacity="0" result="BackgroundImageFix"/><feColorMatrix in="SourceAlpha" result="hardAlpha" values="0 0 0 0 0 0 0 0 0 0 0 0 0 0 0 0 0 0 127 0"/><feOffset/><feGaussianBlur stdDeviation="1.849"/><feComposite in2="hardAlpha" operator="out"/><feColorMatrix values="0 0 0 0 1 0 0 0 0 1 0 0 0 0 1 0 0 0 0.52 0"/><feBlend in2="BackgroundImageFix" result="effect1_dropShadow_3056_33820"/><feBlend in="SourceGraphic" in2="effect1_dropShadow_3056_33820" result="shape"/></filter><filter id="ab" width="10.896" height="10.899" x="297.845" y="153.517" color-interpolation-filters="sRGB" filterUnits="userSpaceOnUse"><feFlood flood-opacity="0" result="BackgroundImageFix"/><feColorMatrix in="SourceAlpha" result="hardAlpha" values="0 0 0 0 0 0 0 0 0 0 0 0 0 0 0 0 0 0 127 0"/><feOffset/><feGaussianBlur stdDeviation="1.849"/><feComposite in2="hardAlpha" operator="out"/><feColorMatrix values="0 0 0 0 1 0 0 0 0 1 0 0 0 0 1 0 0 0 0.52 0"/><feBlend in2="BackgroundImageFix" result="effect1_dropShadow_3056_33820"/><feBlend in="SourceGraphic" in2="effect1_dropShadow_3056_33820" result="shape"/></filter><filter id="ac" width="10.896" height="10.899" x="248.794" y="111.677" color-interpolation-filters="sRGB" filterUnits="userSpaceOnUse"><feFlood flood-opacity="0" result="BackgroundImageFix"/><feColorMatrix in="SourceAlpha" result="hardAlpha" values="0 0 0 0 0 0 0 0 0 0 0 0 0 0 0 0 0 0 127 0"/><feOffset/><feGaussianBlur stdDeviation="1.849"/><feComposite in2="hardAlpha" operator="out"/><feColorMatrix values="0 0 0 0 1 0 0 0 0 1 0 0 0 0 1 0 0 0 0.52 0"/><feBlend in2="BackgroundImageFix" result="effect1_dropShadow_3056_33820"/><feBlend in="SourceGraphic" in2="effect1_dropShadow_3056_33820" result="shape"/></filter><filter id="ad" width="12.128" height="12.132" x="183.202" y="232.276" color-interpolation-filters="sRGB" filterUnits="userSpaceOnUse"><feFlood flood-opacity="0" result="BackgroundImageFix"/><feColorMatrix in="SourceAlpha" result="hardAlpha" values="0 0 0 0 0 0 0 0 0 0 0 0 0 0 0 0 0 0 127 0"/><feOffset/><feGaussianBlur stdDeviation="2.157"/><feComposite in2="hardAlpha" operator="out"/><feColorMatrix values="0 0 0 0 1 0 0 0 0 1 0 0 0 0 1 0 0 0 0.52 0"/><feBlend in2="BackgroundImageFix" result="effect1_dropShadow_3056_33820"/><feBlend in="SourceGraphic" in2="effect1_dropShadow_3056_33820" result="shape"/></filter><filter id="af" width="52.769" height="57.71" x="291.051" y="203.204" color-interpolation-filters="sRGB" filterUnits="userSpaceOnUse"><feFlood flood-opacity="0" result="BackgroundImageFix"/><feBlend in="SourceGraphic" in2="BackgroundImageFix" result="shape"/><feGaussianBlur result="effect1_foregroundBlur_3056_33820" stdDeviation="5.547"/></filter><filter id="ai" width="12.128" height="12.132" x="40.237" y="268.678" color-interpolation-filters="sRGB" filterUnits="userSpaceOnUse"><feFlood flood-opacity="0" result="BackgroundImageFix"/><feColorMatrix in="SourceAlpha" result="hardAlpha" values="0 0 0 0 0 0 0 0 0 0 0 0 0 0 0 0 0 0 127 0"/><feOffset/><feGaussianBlur stdDeviation="2.157"/><feComposite in2="hardAlpha" operator="out"/><feColorMatrix values="0 0 0 0 1 0 0 0 0 1 0 0 0 0 1 0 0 0 0.52 0"/><feBlend in2="BackgroundImageFix" result="effect1_dropShadow_3056_33820"/><feBlend in="SourceGraphic" in2="effect1_dropShadow_3056_33820" result="shape"/></filter><linearGradient id="o" x1="493.151" x2="493.151" y1="3.477" y2="297.325" gradientUnits="userSpaceOnUse"><stop stop-color="#6f13a4"/><stop offset="1" stop-color="#6f13a4" stop-opacity="0"/></linearGradient><linearGradient id="q" x1="373.814" x2="308.965" y1="71.41" y2="109.675" gradientUnits="userSpaceOnUse"><stop stop-color="#a259ff"/><stop offset="1" stop-color="#fff" stop-opacity="0"/></linearGradient><linearGradient id="s" x1="269.061" x2="80.896" y1="-42.088" y2="284.122" gradientUnits="userSpaceOnUse"><stop stop-color="#1c0b39"/><stop offset="1" stop-color="#030a0c"/></linearGradient><linearGradient id="v" x1="175.22" x2="34.293" y1="240.623" y2="245.346" gradientUnits="userSpaceOnUse"><stop stop-color="#fff"/><stop offset="1" stop-color="#d9d9d9" stop-opacity="0"/></linearGradient><linearGradient id="w" x1="30.86" x2="-9.02" y1="242.359" y2="338.178" gradientUnits="userSpaceOnUse"><stop stop-color="#fff"/><stop offset="1" stop-color="#d9d9d9" stop-opacity="0"/></linearGradient><linearGradient id="y" x1="40.918" x2="11.604" y1="275.573" y2="274.505" gradientUnits="userSpaceOnUse"><stop stop-color="#edc6ff"/><stop offset="1" stop-color="#d9d9d9" stop-opacity="0"/></linearGradient><linearGradient id="A" x1="173.402" x2="57.926" y1="238.93" y2="203.508" gradientUnits="userSpaceOnUse"><stop stop-color="#edc6ff"/><stop offset="1" stop-color="#d9d9d9" stop-opacity="0"/></linearGradient><linearGradient id="B" x1="380.503" x2="398.434" y1="232.053" y2="272.498" gradientUnits="userSpaceOnUse"><stop stop-color="#fff"/><stop offset="1" stop-color="#d9d9d9" stop-opacity="0"/></linearGradient><linearGradient id="C" x1="463.04" x2="454.423" y1="252.507" y2="350.17" gradientUnits="userSpaceOnUse"><stop stop-color="#fff"/><stop offset="1" stop-color="#d9d9d9" stop-opacity="0"/></linearGradient><linearGradient id="D" x1="382.472" x2="359.447" y1="263.305" y2="320.091" gradientUnits="userSpaceOnUse"><stop stop-color="#fff"/><stop offset="1" stop-color="#d9d9d9" stop-opacity="0"/></linearGradient><linearGradient id="E" x1="140.1" x2="75.912" y1="143.646" y2="213.989" gradientUnits="userSpaceOnUse"><stop stop-color="#fff"/><stop offset="1" stop-color="#d9d9d9" stop-opacity="0"/></linearGradient><linearGradient id="F" x1="164.766" x2="265.75" y1="188.642" y2="243.398" gradientUnits="userSpaceOnUse"><stop stop-color="#d9d9d9" stop-opacity="0"/><stop offset="1" stop-color="#fff"/></linearGradient><linearGradient id="H" x1="255.445" x2="211.322" y1="125.441" y2="107.054" gradientUnits="userSpaceOnUse"><stop stop-color="#edc6ff"/><stop offset="1" stop-color="#d9d9d9" stop-opacity="0"/></linearGradient><linearGradient id="I" x1="375.142" x2="349.156" y1="166.399" y2="171.976" gradientUnits="userSpaceOnUse"><stop stop-color="#d9d9d9" stop-opacity="0"/><stop offset="1" stop-color="#fff"/></linearGradient><linearGradient id="J" x1="383.365" x2="397.871" y1="186.413" y2="168.688" gradientUnits="userSpaceOnUse"><stop stop-color="#d9d9d9" stop-opacity="0"/><stop offset="1" stop-color="#fff"/></linearGradient><linearGradient id="L" x1="386.235" x2="367.704" y1="149.565" y2="179.096" gradientUnits="userSpaceOnUse"><stop stop-color="#edc6ff"/><stop offset="1" stop-color="#d9d9d9" stop-opacity="0"/></linearGradient><linearGradient id="N" x1="342.173" x2="376.011" y1="198.36" y2="195.582" gradientUnits="userSpaceOnUse"><stop stop-color="#edc6ff"/><stop offset="1" stop-color="#d9d9d9" stop-opacity="0"/></linearGradient><linearGradient id="O" x1="314.95" x2="327.085" y1="137.018" y2="148.661" gradientUnits="userSpaceOnUse"><stop stop-color="#d9d9d9" stop-opacity="0"/><stop offset="1" stop-color="#fff"/></linearGradient><linearGradient id="P" x1="221.129" x2="282.472" y1="168.241" y2="149.189" gradientUnits="userSpaceOnUse"><stop stop-color="#d9d9d9" stop-opacity="0"/><stop offset="1" stop-color="#fff"/></linearGradient><linearGradient id="Q" x1="319.16" x2="209.914" y1="231.303" y2="333.986" gradientUnits="userSpaceOnUse"><stop stop-color="#fff"/><stop offset="1" stop-color="#d9d9d9" stop-opacity="0"/></linearGradient><linearGradient id="R" x1="310.996" x2="239.737" y1="213.439" y2="113.704" gradientUnits="userSpaceOnUse"><stop stop-color="#fff"/><stop offset="1" stop-color="#d9d9d9" stop-opacity="0"/></linearGradient><linearGradient id="S" x1="244.334" x2="135.752" y1="117.732" y2="154.126" gradientUnits="userSpaceOnUse"><stop stop-color="#fff"/><stop offset="1" stop-color="#d9d9d9" stop-opacity="0"/></linearGradient><linearGradient id="U" x1="197.691" x2="138.361" y1="135.084" y2="129.631" gradientUnits="userSpaceOnUse"><stop stop-color="#edc6ff"/><stop offset="1" stop-color="#d9d9d9" stop-opacity="0"/></linearGradient><linearGradient id="W" x1="303.528" x2="240.19" y1="202.928" y2="123.691" gradientUnits="userSpaceOnUse"><stop stop-color="#edc6ff"/><stop offset="1" stop-color="#d9d9d9" stop-opacity="0"/></linearGradient><linearGradient id="ae" x1="346.496" x2="352.423" y1="221.649" y2="277.82" gradientUnits="userSpaceOnUse"><stop stop-color="#fff"/><stop offset="1" stop-color="#d9d9d9" stop-opacity="0"/></linearGradient><linearGradient id="ag" x1="311.324" x2="323.157" y1="225.171" y2="237.76" gradientUnits="userSpaceOnUse"><stop stop-color="#321458"/><stop offset=".628" stop-color="#1b0d35"/></linearGradient><radialGradient id="t" cx="0" cy="0" r="1" gradientTransform="rotate(45.106 -126.104 528.102)scale(147.929 121.01)" gradientUnits="userSpaceOnUse"><stop stop-color="#fbf3ff" stop-opacity=".99"/><stop offset=".078" stop-color="#e0a2fd" stop-opacity=".69"/><stop offset="1" stop-color="#8626ff" stop-opacity=".05"/></radialGradient><radialGradient id="ah" cx="0" cy="0" r="1" gradientTransform="rotate(41.141 -96.236 546.817)scale(118.941 55.6869)" gradientUnits="userSpaceOnUse"><stop stop-color="#fff"/><stop offset="1" stop-color="#8626ff" stop-opacity=".05"/></radialGradient><clipPath id="a"><path fill="#fff" d="M0 .926h467v398H0z"/></clipPath></defs></svg>