<svg width="1369" height="399" viewBox="0 0 1369 399" fill="none" xmlns="http://www.w3.org/2000/svg">
<g clip-path="url(#clip0_3056_33576)">
<rect width="1368" height="398" transform="translate(0.640625 0.925781)" fill="#030A0C"/>
<g filter="url(#filter0_f_3056_33576)">
<path d="M692.845 -78.7147C656.825 -60.5404 671.778 -16.6471 637.577 22.3767C607.165 57.0771 525.378 85.3617 525.378 127.476C525.378 195.649 811.743 168.842 970.984 196.709C1260.11 253.937 1196.91 372.376 1296.87 171.395C1306.65 149.314 1360.49 35.1565 1032.41 35.1572C857.718 35.1572 774.633 -114.683 692.845 -78.7147Z" fill="#7032BF" fill-opacity="0.1"/>
</g>
<g filter="url(#filter1_f_3056_33576)">
<path d="M837.396 123.036C812.895 160.888 853.37 214.39 1001.09 180.025C1103.05 156.306 1173.78 269.552 1245.54 250.146C1347.45 222.586 1381.61 109.187 1366.71 12.8732C1352.9 -76.369 1206.95 -114.627 1191.43 -44.0512C1167.74 63.7338 1111.97 59.4396 1053.77 62.9759C989.768 66.8651 1008.79 109.902 975.606 107.187C912.1 101.992 854.475 96.6508 837.396 123.036Z" fill="#080316"/>
</g>
<g filter="url(#filter2_f_3056_33576)">
<path d="M967.78 147.213C964.758 107.723 1081.38 80.956 1161.95 74.7893C1242.52 68.6225 1267.75 94.3268 1270.77 133.817C1273.79 173.308 1269.64 206.534 1138.92 159.345C1066.6 135.016 970.803 186.704 967.78 147.213Z" fill="#A91BEC" fill-opacity="0.1"/>
</g>
<circle cx="704.256" cy="58.4234" r="1.95703" transform="rotate(-112.296 704.256 58.4234)" fill="#CACBDC" fill-opacity="0.15"/>
<circle cx="578.064" cy="139.541" r="1.95703" transform="rotate(-112.296 578.064 139.541)" fill="#CACBDC" fill-opacity="0.15"/>
<circle cx="607.67" cy="124.013" r="1.95703" transform="rotate(-112.296 607.67 124.013)" fill="#CACBDC" fill-opacity="0.15"/>
<circle cx="405.732" cy="118.365" r="1.95703" transform="rotate(-112.296 405.732 118.365)" fill="#CACBDC" fill-opacity="0.15"/>
<circle cx="814.041" cy="8.39212" r="1.95703" transform="rotate(-112.296 814.041 8.39212)" fill="#CACBDC" fill-opacity="0.15"/>
<circle cx="661.006" cy="55.2046" r="1.95703" transform="rotate(-112.296 661.006 55.2046)" fill="#CACBDC" fill-opacity="0.15"/>
<circle cx="688.642" cy="42.8387" r="1.00391" transform="rotate(-112.296 688.642 42.8387)" fill="#CACBDC" fill-opacity="0.15"/>
<g filter="url(#filter3_d_3056_33576)">
<circle cx="641.992" cy="153.702" r="1.00391" transform="rotate(-65.6683 641.992 153.702)" fill="white" fill-opacity="0.41" shape-rendering="crispEdges"/>
</g>
<circle cx="675.239" cy="50.5106" r="1.00391" transform="rotate(-112.296 675.239 50.5106)" fill="#CACBDC" fill-opacity="0.15"/>
<circle cx="689.454" cy="82.5377" r="1.00391" transform="rotate(-34.4326 689.454 82.5377)" fill="#CACBDC" fill-opacity="0.15"/>
<circle cx="658.95" cy="62.3582" r="1.00391" transform="rotate(-112.296 658.95 62.3582)" fill="#CACBDC" fill-opacity="0.15"/>
<circle cx="683.771" cy="65.5299" r="1.00391" transform="rotate(-34.4326 683.771 65.5299)" fill="#CACBDC" fill-opacity="0.15"/>
<g filter="url(#filter4_d_3056_33576)">
<circle cx="627.93" cy="64.4593" r="1.00391" transform="rotate(-143.532 627.93 64.4593)" fill="white" fill-opacity="0.41" shape-rendering="crispEdges"/>
</g>
<g filter="url(#filter5_d_3056_33576)">
<circle cx="666.969" cy="86.4788" r="1.00391" transform="rotate(-143.532 666.969 86.4788)" fill="white" fill-opacity="0.41" shape-rendering="crispEdges"/>
</g>
<g filter="url(#filter6_d_3056_33576)">
<circle cx="418.93" cy="123.436" r="1.00391" transform="rotate(-143.532 418.93 123.436)" fill="white" fill-opacity="0.41" shape-rendering="crispEdges"/>
</g>
<circle cx="1.95703" cy="1.95703" r="1.95703" transform="matrix(0.640338 -0.768093 -0.768093 -0.640338 1193.98 189.68)" fill="#CACBDC" fill-opacity="0.15"/>
<circle cx="1.95703" cy="1.95703" r="1.95703" transform="matrix(0.640338 -0.768093 -0.768093 -0.640338 1289.89 305.027)" fill="#CACBDC" fill-opacity="0.15"/>
<circle cx="1.95703" cy="1.95703" r="1.95703" transform="matrix(0.640338 -0.768093 -0.768093 -0.640338 1266.33 281.305)" fill="#CACBDC" fill-opacity="0.15"/>
<circle cx="1.95703" cy="1.95703" r="1.95703" transform="matrix(0.640338 -0.768093 -0.768093 -0.640338 1104.34 108.918)" fill="#CACBDC" fill-opacity="0.15"/>
<circle cx="1.95703" cy="1.95703" r="1.95703" transform="matrix(0.640338 -0.768093 -0.768093 -0.640338 1145.04 84.8594)" fill="#CACBDC" fill-opacity="0.15"/>
<circle cx="1.95703" cy="1.95703" r="1.95703" transform="matrix(0.640338 -0.768093 -0.768093 -0.640338 1236.19 199.633)" fill="#CACBDC" fill-opacity="0.15"/>
<circle cx="1.00391" cy="1.00391" r="1.00391" transform="matrix(0.640338 -0.768093 -0.768093 -0.640338 1213.43 178.176)" fill="#CACBDC" fill-opacity="0.15"/>
<g filter="url(#filter7_d_3056_33576)">
<circle cx="1.00391" cy="1.00391" r="1.00391" transform="matrix(-0.118586 -0.992944 -0.992944 0.118586 1215.56 298.039)" fill="white" fill-opacity="0.41" shape-rendering="crispEdges"/>
</g>
<circle cx="1.00391" cy="1.00391" r="1.00391" transform="matrix(0.640338 -0.768093 -0.768093 -0.640338 1223.91 189.527)" fill="#CACBDC" fill-opacity="0.15"/>
<circle cx="1.00391" cy="1.00391" r="1.00391" transform="matrix(-0.616298 -0.787513 -0.787513 0.616298 1201.99 214.547)" fill="#CACBDC" fill-opacity="0.15"/>
<circle cx="1.00391" cy="1.00391" r="1.00391" transform="matrix(0.640338 -0.768093 -0.768093 -0.640338 1235.87 205.73)" fill="#CACBDC" fill-opacity="0.15"/>
<circle cx="1.00391" cy="1.00391" r="1.00391" transform="matrix(-0.616298 -0.787513 -0.787513 0.616298 1212.53 200.039)" fill="#CACBDC" fill-opacity="0.15"/>
<circle cx="1.00391" cy="1.00391" r="1.00391" transform="matrix(-0.616298 -0.787513 -0.787513 0.616298 1138.23 97.1953)" fill="#CACBDC" fill-opacity="0.15"/>
<circle cx="1.00391" cy="1.00391" r="1.00391" transform="matrix(-0.616298 -0.787513 -0.787513 0.616298 1195.41 85.9688)" fill="#CACBDC" fill-opacity="0.15"/>
<circle cx="1.00391" cy="1.00391" r="1.00391" transform="matrix(-0.616298 -0.787513 -0.787513 0.616298 1158.82 4.50781)" fill="#CACBDC" fill-opacity="0.15"/>
<circle cx="1.00391" cy="1.00391" r="1.00391" transform="matrix(-0.616298 -0.787513 -0.787513 0.616298 1081.74 58.7305)" fill="#CACBDC" fill-opacity="0.15"/>
<g filter="url(#filter8_d_3056_33576)">
<circle cx="1.00391" cy="1.00391" r="1.00391" transform="matrix(0.945818 -0.324696 -0.324696 -0.945818 1264.07 216.934)" fill="white" fill-opacity="0.41" shape-rendering="crispEdges"/>
</g>
<g filter="url(#filter9_d_3056_33576)">
<circle cx="1.00391" cy="1.00391" r="1.00391" transform="matrix(0.945818 -0.324696 -0.324696 -0.945818 1220.21 226.18)" fill="white" fill-opacity="0.41" shape-rendering="crispEdges"/>
</g>
<g filter="url(#filter10_d_3056_33576)">
<circle cx="1.00391" cy="1.00391" r="1.00391" transform="matrix(0.945818 -0.324696 -0.324696 -0.945818 1136.22 50.7656)" fill="white" fill-opacity="0.41" shape-rendering="crispEdges"/>
</g>
<g style="mix-blend-mode:overlay" filter="url(#filter11_f_3056_33576)">
<ellipse cx="1188.68" cy="201.276" rx="292.389" ry="135.82" transform="rotate(9.48944 1188.68 201.276)" fill="#C448F0" fill-opacity="0.9"/>
</g>
<g opacity="0.71" filter="url(#filter12_f_3056_33576)">
<ellipse cx="1263.33" cy="108.916" rx="402.158" ry="238.4" fill="url(#paint0_linear_3056_33576)"/>
</g>
<mask id="mask0_3056_33576" style="mask-type:alpha" maskUnits="userSpaceOnUse" x="506" y="112" width="668" height="667">
<circle cx="333.175" cy="333.175" r="333.175" transform="matrix(0.707107 -0.707107 -0.707107 -0.707107 840.066 916.762)" fill="#6E2CA5"/>
</mask>
<g mask="url(#mask0_3056_33576)">
<circle cx="333.175" cy="333.175" r="332.499" transform="matrix(0.707107 -0.707107 -0.707107 -0.707107 840.066 916.762)" fill="#9A38E8" stroke="url(#paint1_linear_3056_33576)" stroke-width="1.35172"/>
<g filter="url(#filter13_f_3056_33576)">
<circle cx="360.454" cy="360.454" r="360.454" transform="matrix(0.707107 -0.707107 -0.707107 -0.707107 789.477 992.445)" fill="url(#paint2_linear_3056_33576)"/>
</g>
</g>
<path d="M1003.16 587.96L952.008 610.616M1003.16 587.96L967.932 562.366M1003.16 587.96L1014.81 539.643M1003.16 587.96L1048.27 562.401M1003.16 587.96L1035.86 611.128M1003.16 587.96L986.384 636.893L964.925 681.999M952.008 610.616L967.932 562.366M952.008 610.616L898.771 628.522M952.008 610.616L917.462 582.391M952.008 610.616L932.258 657.396M952.008 610.616L986.384 636.859M967.932 562.366L917.462 582.391M967.932 562.366L933.146 536.602M967.932 562.366L979.721 516.304M967.932 562.366L1014.81 539.643M973.092 749.521L969.401 750.307L957.749 755.638M973.092 749.521L981.601 744.737L1005.9 733.666M973.092 749.521L1005.9 733.666M973.092 749.521L960.142 754.168M557.401 619.671L541.067 589.669L535.225 574.634M557.401 619.671L587.779 662.043M557.401 619.671L566.32 631.392L587.779 662.043M557.401 619.671L535.225 574.634M557.401 619.671L555.421 602.586M557.401 619.671L582.791 648.443M1141.18 586.047L1151.26 562.469M1141.18 586.047L1156.42 544.631M1141.18 586.047L1138.65 578.563M1145.45 314.832L1132.53 287.871L1138.45 301.266M1145.45 314.832L1161.58 360.963M1145.45 314.832L1151.26 330.209M1145.45 314.832L1134.38 303.009L1132.47 323.614M1145.45 314.832L1151.81 345.586M1145.45 314.832L1125.32 275.775M1070.99 682.341L1048.23 705.201M1070.99 682.341L1082.61 673.149M1070.99 682.341L1100.82 651.143M1070.99 682.341L1033.23 711.693M1070.99 682.341L1094.95 648.99M1070.99 682.341L1060.19 680.701M1048.23 705.201L1005.9 733.666M1048.23 705.201L1082.61 673.149M1048.23 705.201L1033.23 711.693M1082.61 673.149L1108.78 640.584M1082.61 673.149L1100.82 651.143M1001.45 158.602L1010.44 159.798M1001.45 158.602L964.925 137.416M1001.45 158.602L1043.28 183.547M1001.45 158.602L952.487 139.706M1001.45 158.602L1032.93 186.622M1001.45 158.602L987.751 165.197M1010.44 159.798L1043.28 183.547M1010.44 159.798L1048.16 186.895M1010.44 159.798L964.925 137.416M521.694 354.846L521.318 355.529L522.035 353.411M512.637 472.599L511.031 492.897M512.637 472.599L507.819 438.36M512.637 472.599L525.827 505.437M512.637 472.599L520.189 526.111M1076.39 211.43L1107.59 247.652L1098.33 239.041M1076.39 211.43L1048.16 186.895M1076.39 211.43L1053.7 192.329L1048.17 186.896L1048.44 187.887L1043.28 183.547M1076.39 211.43L1098.33 239.041M1076.39 211.43L1069.93 212.182M1108.78 640.584L1107.9 641.404M1108.78 640.584L1123.1 620.492M1108.78 640.584L1110.53 637.782M1108.78 640.584L1109.16 639.627M826.738 113.292L875.876 114.932M826.738 113.292L777.429 119.579M826.738 113.292L812.797 118.964M826.738 113.292L862.071 116.674M875.876 114.932L862.071 116.674M875.876 114.932L914.113 122.586M907.449 769.306L922.963 767.461M907.449 769.306L940.184 754.065M907.449 769.306L957.749 755.638M907.449 769.306L891.218 764.044M907.449 769.306L858.79 774.773M907.449 769.306L873.21 776.55M664.016 726.25L660.77 723.961M1169.3 445.672L1172.31 465.628M1169.3 445.672L1164.14 394.006M1169.3 445.672L1166.47 497.031M1169.3 445.672L1171.11 412.356M1169.3 445.672L1158.06 424.965M1169.3 445.672L1159.32 479.946M1172.31 465.628L1166.47 497.031M1172.31 465.628L1165.13 516.782L1166.47 497.031M1172.31 465.628L1171.11 412.356M1166.47 497.031L1156.42 544.631M1166.47 497.031L1159.32 479.946M1166.47 497.031L1152.29 532.296M793.831 773.714L791.986 773.646M777.429 119.579L741.959 128.361M777.429 119.579L812.797 118.964M777.429 119.579L763.59 129.796M777.429 119.579L726.719 134.716M741.959 128.361L726.719 134.716M741.959 128.361L692.001 147.906M559.692 268.496L558.667 271.264M559.692 268.496L555.523 276.253M559.692 268.496L547.049 289.648M559.692 268.496L575.306 245.157M559.692 268.496L561.777 266.514M559.692 268.496L565.125 261.218M1149.24 325.664L1151.26 330.209M1151.26 330.209L1150.34 328.808M1151.26 330.209L1161.58 360.963M1151.26 330.209L1151.19 331.2M1151.26 330.209L1152.73 335.642M588.429 230.19L589.044 229.131M589.044 229.131L586.926 231.933M589.044 229.131L591.709 226.534M589.044 229.131L589.625 228.892M1045.29 185.255L1048.16 186.895M536.49 311.825L541.274 302.906M862.071 116.674L812.797 118.964M862.071 116.674L914.113 122.586M862.071 116.674L899.727 129.044M862.071 116.674L847.549 127.028M936.837 129.215L926.039 125.046M1100.82 651.143L1123.1 620.492M1123.1 620.492L1141.18 586.047L1121.02 617.177M1123.1 620.492L1121.02 617.177M779.991 771.971L826.839 777.883M779.991 771.971L743.395 763.633M779.991 771.971L814.642 773.577M779.991 771.971L733.93 758.645M779.991 771.971L769.98 764.317M826.839 777.883L873.21 776.55M826.839 777.883L814.642 773.577M826.839 777.883L858.79 774.773M873.21 776.55L923.134 767.426M873.21 776.55L858.79 774.773M923.134 767.426L950.744 757.551M923.134 767.426L957.749 755.638M650.176 716.478L624.377 698.299M624.377 698.299L657.249 722.389M624.377 698.299L617.713 689.449M624.377 698.299L587.781 662.043L617.713 689.449M657.249 722.389L697.742 746.07M657.249 722.389L694.872 739.372M657.249 722.389L654.686 710.839M657.249 722.389L617.713 689.449M697.742 746.07L743.395 763.633M697.742 746.07L733.93 758.645M697.742 746.07L694.872 739.372M743.395 763.633L733.93 758.645M522.855 544.461L535.225 574.634M522.855 544.461L511.032 492.931M522.855 544.461L520.19 526.111M535.225 574.634L536.625 555.874M535.225 574.634L520.19 526.111M535.225 574.634L555.419 602.586L536.625 555.874M1151.26 562.469L1156.42 544.632L1165.13 516.782M526.478 336.906L536.49 311.859L547.049 289.648M526.478 336.906L513.527 385.088M526.478 336.906L523.164 366.567L527.571 399.132M526.478 336.906L540.18 316.95M526.478 336.906L547.049 289.648M547.049 289.648L558.7 271.298M547.049 289.648L540.18 316.95M547.049 289.648L565.979 268.154M1132.53 287.837L1125.32 275.775M1125.32 275.775L1107.59 247.652M1125.32 275.775L1134.38 303.043M609.204 206.612L575.306 245.157M609.204 206.612L646.861 174.97M609.204 206.612L636.474 188.057M575.306 245.157L561.741 266.48M575.306 245.157L599.091 224.21M575.306 245.157L565.979 268.154M646.861 174.97L692.001 147.906M646.861 174.97L636.474 188.057M646.861 174.97L678.571 158.329M692.001 147.906L726.719 134.716M692.001 147.906L678.571 158.329M1043.28 183.547L1069.93 212.182M1043.28 183.547L1032.92 186.623M726.719 134.716L763.591 129.83L812.797 118.964M726.719 134.716L714.623 149.034M726.719 134.716L678.571 158.329M914.113 122.586L926.004 125.046L964.925 137.416M914.113 122.586L964.925 137.416M914.113 122.586L952.487 139.706M914.113 122.586L899.727 129.044M964.925 137.416L952.487 139.706M1171.11 412.356L1164.62 379.244L1161.58 360.963M1171.11 412.356L1161.58 360.963M1171.11 412.356L1164.14 394.006M1161.58 360.963L1151.81 345.586M1161.58 360.963L1164.14 394.006M513.526 385.088L511.988 405.385L507.819 438.36M513.526 385.088L507.819 438.36M513.526 385.088L513.868 418.028M513.526 385.088L523.162 366.567M507.819 438.36L511.032 492.931M507.819 438.36L513.868 418.028M511.032 492.931L520.19 526.111M587.779 662.043L582.791 648.443M1005.9 733.666L1033.23 711.693M1005.9 733.666L988.743 736.331M1005.9 733.666L1005.96 733.597M957.749 755.638L988.743 736.331M957.749 755.638L940.184 754.065M803.808 764.419L845.087 766.948M803.808 764.419L818.946 753.211M803.808 764.419L771.894 751.639M845.087 766.948L891.218 764.044M845.087 766.948L818.946 753.211M845.087 766.948L814.64 773.577M845.087 766.948L858.79 774.773M845.087 766.948L864.701 753.143M818.946 753.211L836.817 734.657M818.946 753.211L772.371 751.674M818.946 753.211L818.912 753.212M818.946 753.211L864.701 753.143M771.894 751.639L736.629 731.513M771.894 751.639L769.98 764.317M814.642 773.577L803.81 764.419L769.98 764.317M814.642 773.577L769.98 764.317M814.642 773.577L858.79 774.773M769.98 764.317L733.93 758.645M769.98 764.317L734.032 748.803M945.619 493.99L933.146 536.602M945.619 493.99L979.721 516.304M945.619 493.99L902.222 497.407M945.619 493.99L930.173 452.78M945.619 493.99L978.013 464.774M933.146 536.602L917.462 582.391M933.146 536.602L979.721 516.304M933.146 536.602L902.222 497.407M933.146 536.602L885.513 542.752M979.721 516.304L1014.81 539.643M979.721 516.304L978.013 464.774M979.721 516.304L1015.29 486.404M902.222 497.407L852.058 500.209M902.222 497.407L930.173 452.746M902.222 497.407L882.06 453.224M902.222 497.407L885.513 542.752M930.173 452.78L963.079 418.746M930.173 452.78L882.06 453.224M978.013 464.774L930.173 452.746M978.013 464.774L1011.47 431.834M978.013 464.774L963.079 418.746M978.013 464.774L1015.29 486.404M576.606 491.906L605.036 495.596M605.036 495.596L642.214 498.876M605.036 495.596L588.941 533.082M605.036 495.596L617.407 452.848M605.036 495.596L622.02 539.882M576.607 491.906L588.943 533.082M576.607 491.906L559.146 512.955M576.607 491.906L584.534 452.302L556.343 463.647M576.607 491.906L556.343 463.647M588.943 533.082L607.497 577.709M588.943 533.082L559.146 512.955M588.943 533.082L572.745 557.275M588.943 533.082L622.02 539.882M559.146 512.955L545.1 534.756M559.146 512.955L556.343 463.647M556.343 463.647L539.223 432.243M556.343 463.647L565.056 419.634M556.343 463.647L538.642 484.115M1114.22 267.334L1134.38 303.043M1114.22 267.334L1112.58 282.882M1114.22 267.334L1090.02 242.765M1134.38 303.043L1112.58 282.882M1112.58 282.882L1105.71 303.829M1112.58 282.882L1090.02 242.765M1112.58 282.882L1084.52 258.655M1112.58 282.882L1132.47 323.614M1090.02 242.765L1057.94 218.333M1090.02 242.765L1098.33 239.041M1090.02 242.765L1069.93 212.182M1090.02 242.765L1084.52 258.655M1125.32 275.775L1114.22 267.334L1098.33 239.041M1125.32 275.775L1098.33 239.041M1098.33 239.041L1069.93 212.182M778.147 173.022L795.198 194.482M778.147 173.022L746.778 195.746M778.147 173.022L820.415 166.496M795.198 194.482L815.633 223.903M795.198 194.482L746.778 195.746M795.198 194.482L820.415 166.496M795.198 194.482L842.251 190.654M795.198 194.482L763.009 222.399M746.778 195.746L712.812 226.261M746.778 195.746L742.985 168.751M820.415 166.496L787.987 150.982M742.983 168.751L778.145 173.022L787.987 150.982M742.983 168.751L706.011 169.024M742.983 168.751L787.987 150.982M787.987 150.982L799.639 132.154M1121.02 617.177L1100.82 651.143L1094.95 648.99M1121.02 617.177L1113.57 610.24M1121.02 617.177L1138.65 578.563M1121.02 617.177L1094.95 648.99M1094.95 648.99L1113.57 610.24M1094.95 648.99L1060.19 680.701M1094.95 648.99L1082.78 642.19M1033.23 711.693L988.743 736.331M1033.23 711.693L1060.19 680.701M1033.23 711.693L1016.86 709.336M1060.19 680.701L1016.86 709.336M1060.19 680.701L1042.46 673.08M988.743 736.331L940.184 754.065M988.743 736.331L1016.86 709.336M988.743 736.331L967.249 731.888M1016.86 709.336L1042.46 673.08M1016.86 709.336L967.249 731.888M1016.86 709.336L993.868 699.666M940.184 754.065L891.218 764.044M967.249 731.888L940.186 754.065L915.173 746.514M967.249 731.888L993.868 699.666M967.249 731.888L915.173 746.514M967.249 731.888L940.425 719.245M891.218 764.044L858.79 774.773M891.218 764.044L915.173 746.514M891.218 764.044L864.701 753.143M915.173 746.514L940.425 719.245M915.173 746.514L864.701 753.143M915.173 746.514L886.743 730.658M864.701 753.143L836.819 734.656L886.743 730.658M864.701 753.143L886.743 730.658M836.817 734.657L856.91 707.354M836.817 734.657L803.022 712.684L856.91 707.354M836.817 734.657L785.801 736.502M785.801 736.502L818.639 753.075M785.801 736.502L771.858 751.64L734.031 748.803M785.801 736.502L736.629 731.513M785.801 736.502L803.023 712.719M785.801 736.502L749.305 711.147M856.91 707.354L878.097 671.303M856.91 707.354L823.047 679.402M856.91 707.354L886.741 730.659M856.91 707.354L909.874 698.435M886.743 730.658L909.877 698.435L940.425 719.245M886.743 730.658L940.425 719.245M878.097 671.303L898.769 628.521M878.097 671.303L844.61 637.679M878.097 671.303L823.047 679.402M823.047 679.402L844.61 637.679M823.047 679.402L786.244 642.19M823.047 679.402L803.023 712.719M823.047 679.402L765.982 681.316M909.874 698.435L878.097 671.337L932.258 657.396M909.874 698.435L932.258 657.396M909.874 698.435L964.925 681.999M898.769 628.521L865.965 590.728M898.769 628.521L844.61 637.679M844.61 637.679L865.967 590.728M844.61 637.679L808.627 596.162M844.61 637.679L786.244 642.19M932.258 657.396L898.771 628.522M932.258 657.396L964.925 681.999M932.258 657.396L986.384 636.859M898.771 628.522L917.462 582.391M917.462 582.391L885.513 542.752M917.462 582.391L865.967 590.728M885.513 542.752L852.058 500.209M885.513 542.752L865.967 590.728M885.513 542.752L831.146 547.4M865.967 590.728L831.146 547.4M865.967 590.728L808.627 596.162M1014.81 539.643L1048.27 562.401M1014.81 539.643L1052.2 509.231M1014.81 539.643L1015.29 486.404M1015.29 486.404L1011.46 431.833M1015.29 486.404L1052.2 509.231M1015.29 486.404L1050.56 452.541M1048.27 562.401L1077.14 582.664M1048.27 562.401L1085.41 531.476M1048.27 562.401L1035.86 611.128M1052.2 509.231L1048.27 562.401M1052.2 509.231L1085.41 531.476M1052.2 509.231L1087.36 474.649M1052.2 509.231L1050.56 452.541M1077.14 582.664L1099.18 598.827M1077.14 582.664L1111.72 551.226M1077.14 582.664L1085.41 531.476M1077.14 582.664L1063.03 629.615M1077.14 582.664L1035.86 611.128M1085.41 531.476L1111.72 551.226M1085.41 531.476L1118.08 496.451M1085.41 531.476L1087.36 474.649M1035.86 611.128L1063.03 629.615M1035.86 611.128L1017.45 658.353M1035.86 611.128L986.384 636.859M1099.18 598.827L1113.57 610.24M1099.18 598.827L1129.39 567.082M1099.18 598.827L1111.72 551.226M1099.18 598.827L1082.78 642.19M1099.18 598.827L1063.03 629.615M1111.72 551.226L1129.39 567.082M1111.72 551.226L1139.95 516.099M1111.72 551.226L1118.08 496.451M1063.03 629.615L1082.78 642.19M1063.03 629.615L1042.46 673.08M1063.03 629.615L1017.45 658.353M1113.57 610.24L1138.65 578.563M1113.57 610.24L1129.39 567.082M1113.57 610.24L1082.78 642.19M1129.39 567.082L1138.65 578.563L1152.29 532.296M1129.39 567.082L1152.29 532.296M1129.39 567.082L1139.95 516.099M1082.78 642.19L1060.16 680.701M1082.78 642.19L1042.46 673.08M1138.65 578.563L1156.42 544.631M642.214 498.876L688.106 501.269M642.214 498.876L659.984 453.326L688.106 501.269M642.214 498.876L617.407 452.848M642.214 498.876L622.02 539.882M642.214 498.876L664.63 545.52M605.001 495.528L584.533 452.302M584.533 452.302L598.304 407.23M584.533 452.302L565.056 419.634M584.533 452.302L617.407 452.848M617.407 452.848L598.304 407.23M617.407 452.848L659.949 453.327M617.407 452.848L636.303 404.531M622.02 539.882L607.497 577.709M622.02 539.882L664.63 545.52M622.02 539.882L645.767 587.209M688.106 501.269L740.798 502.396M688.106 501.269L711.445 453.634M688.106 501.269L664.63 545.52M688.106 501.269L716.024 549.006M664.63 545.52L645.767 587.209M664.63 545.52L716.024 549.006M664.63 545.52L693.779 594.248M711.445 453.634L740.899 502.294M711.445 453.634L768.818 453.737M711.445 453.634L740.455 401.626M711.445 453.634L659.949 453.327M711.445 453.634L684.347 402.515M716.024 549.006L740.935 502.396M716.024 549.006L693.779 594.248M716.024 549.006L773.09 549.689M716.024 549.006L749.478 597.46M740.935 502.396L797.078 501.986M740.935 502.396L768.818 453.703L797.078 501.986M740.935 502.396L773.09 549.689M797.078 501.986L852.058 500.209M797.078 501.986L827.25 453.566M773.09 549.689L797.078 502.021L831.146 547.4M773.09 549.689L749.478 597.46M773.09 549.689L831.146 547.4M773.09 549.689L808.627 596.162M852.058 500.209L882.06 453.224M852.058 500.209L827.25 453.566M852.058 500.209L831.146 547.4M827.25 453.566L882.06 453.224M827.25 453.566L858.585 403.676M827.25 453.566L768.818 453.737M827.25 453.566L800.323 402.036M831.146 547.4L808.627 596.162M882.06 453.224L911.004 406.137M882.06 453.224L858.585 403.676M930.173 452.746L911.004 406.137M736.629 731.513L699.861 702.878M736.629 731.513L695.522 724.781M736.629 731.513L734.032 748.803M736.629 731.513L749.305 711.147M699.861 702.878L711.753 676.566M699.861 702.878L749.307 711.147M734.032 748.803L733.93 758.645M734.032 748.803L694.872 739.372M734.032 748.803L695.52 724.781M749.305 711.147L803.023 712.719M699.86 702.877L664.322 666.075M699.86 702.877L657.146 691.533M699.86 702.877L695.52 724.781M664.322 666.075L632.817 623.225M664.322 666.075L622.224 650.288M664.322 666.075L657.146 691.533M664.322 666.075L676.248 634.126M664.322 666.075L711.753 676.566M657.146 691.533L695.52 724.781M657.146 691.533L654.686 710.839M695.52 724.781L654.686 710.839M695.52 724.781L694.872 739.372M711.753 676.566L676.248 634.126M711.753 676.566L728.463 640.926M711.753 676.566L765.982 681.316M711.753 676.566L749.307 711.147M749.307 711.147L765.982 681.316M632.817 623.225L607.497 577.709M632.817 623.225L593.658 604.191M632.817 623.225L622.224 650.288M632.817 623.225L645.767 587.209M632.817 623.225L676.248 634.126M622.224 650.288L593.657 604.192L584.875 628.59M622.224 650.288L584.875 628.59M622.224 650.288L657.148 691.533L616.86 673.149L622.224 650.288ZM676.248 634.126L645.769 587.209L693.779 594.248M676.248 634.126L693.779 594.248M676.248 634.126L728.463 640.926M607.497 577.709L572.745 557.275M607.497 577.709L593.658 604.191M607.497 577.709L645.767 587.209M593.658 604.191L572.745 557.275M593.658 604.191L560.853 581.126M572.745 557.275L560.853 581.126M733.93 758.645L694.872 739.372M694.872 739.372L654.686 710.839M536.625 555.874L545.1 534.756M536.625 555.874L525.861 505.437L545.1 534.756M536.625 555.874L520.189 526.111M536.625 555.874L560.853 581.126M545.1 534.756L538.642 484.115M545.1 534.756L572.744 557.275L559.144 512.955L538.642 484.115M545.1 534.756L560.853 581.126M520.189 526.111L525.827 505.437M560.853 581.126L584.876 628.59L555.421 602.586M560.853 581.126L555.421 602.586M538.642 484.115L539.223 432.243M538.642 484.115L525.827 505.437M538.642 484.115L522.718 451.857M815.633 223.903L842.251 190.654M815.633 223.903L763.009 222.399M815.633 223.903L783.307 257.835M842.251 190.654L820.417 166.496M842.251 190.654L868.154 164.275M842.251 190.654L867.128 223.937M842.251 190.654L894.601 191.987M763.009 222.399L712.811 226.261L728.358 258.894M763.009 222.399L746.777 195.746L707.787 194.208M763.009 222.399L783.307 257.835M763.009 222.399L728.358 258.894M838.97 261.765L815.631 223.903L867.161 223.937L838.97 261.765ZM838.97 261.765L863.882 306.87M838.97 261.765L893.747 266.309M838.97 261.765L783.305 257.834M838.97 261.765L807.122 301.778M783.307 257.835L728.358 258.894M863.882 306.87L888.519 356.315M863.882 306.87L919.956 315.652L888.519 356.315M863.882 306.87L893.747 266.309M863.882 306.87L807.122 301.778M863.882 306.87L832.923 351.737M893.747 266.309L919.99 315.652M893.747 266.309L951.086 276.184M893.747 266.309L867.128 223.937M893.747 266.309L922.997 229.575M783.305 257.834L807.122 301.778M783.305 257.834L748.725 300.48M807.122 301.778L748.725 300.514L693.676 303.419M807.122 301.778L832.923 351.737M807.122 301.778L773.328 349.447M888.519 356.315L911.004 406.137M888.519 356.315L943.568 367.934M888.519 356.315L832.923 351.737M888.519 356.315L858.585 403.676M832.923 351.737L773.328 349.447M832.923 351.737L858.585 403.676M832.923 351.737L800.323 402.036M911.004 406.137L963.079 418.746M911.004 406.137L943.568 367.934M911.004 406.137L858.585 403.676M943.568 367.934L963.079 418.746M943.568 367.934L996.602 381.807M943.568 367.934L919.99 315.652M943.568 367.934L976.271 328.5M858.585 403.676L800.323 402.036M963.079 418.746L1011.47 431.834M963.079 418.746L996.602 381.807M598.304 407.23L618.91 358.707M598.304 407.23L580.877 370.667M598.304 407.23L565.056 419.634M598.304 407.23L636.303 404.531M565.056 419.634L539.223 432.243M565.056 419.634L549.748 384.541M565.056 419.634L580.877 370.667M618.91 358.707L646.145 309.946M618.91 358.707L604.592 319.787M618.91 358.707L580.877 370.667M618.91 358.707L662.136 353.343M618.91 358.707L636.303 404.531M580.877 370.667L604.592 319.787M580.877 370.667L568.508 333.25M580.877 370.667L549.748 384.541M636.303 404.531L662.136 353.343M636.303 404.531L684.347 402.515M636.303 404.531L659.949 453.327M646.145 309.946L678.333 264.771M646.145 309.946L635.483 271.059M646.145 309.946L604.592 319.787M646.145 309.946L693.675 303.453M646.145 309.946L662.136 353.343M604.592 319.787L635.483 271.059M604.592 319.787L595.879 282.267M604.592 319.787L568.508 333.25M662.136 353.343L693.675 303.453M662.136 353.343L714.692 350.028M662.136 353.343L684.347 402.515M678.333 264.771L712.812 226.261M678.333 264.771L670.986 228.413M678.333 264.771L635.483 271.059M678.333 264.771L728.36 258.894M678.333 264.771L693.675 303.453M635.483 271.059L670.986 228.413M635.483 271.059L630.153 236.068M635.483 271.059L595.879 282.267M693.675 303.453L728.36 258.894M693.675 303.453L714.692 350.028M712.812 226.261L707.789 194.208M712.812 226.261L670.986 228.413M670.986 228.413L707.789 194.208M670.986 228.413L668.047 197.899M670.986 228.413L630.153 236.068M728.36 258.894L748.725 300.48M707.789 194.208L706.012 168.99L668.047 197.899M707.789 194.208L742.985 168.751M707.789 194.208L668.047 197.899M742.985 168.751L752.006 147.052M1134.38 303.043L1151.81 345.586M1151.81 345.586L1164.14 394.006M1151.81 345.586L1132.47 323.614M1151.81 345.586L1148.52 371.658M1132.47 323.614L1105.71 303.829M1132.47 323.614L1148.52 371.658M1132.47 323.614L1124.03 349.926M1164.14 394.006L1148.52 371.658M1164.14 394.006L1158.06 424.965M1148.52 371.658L1124.03 349.926M1148.52 371.658L1158.06 424.965M1148.52 371.658L1137.21 403.027M1158.06 424.965L1137.21 403.027M1158.06 424.965L1159.32 479.946M1158.06 424.965L1142.89 459.922M1159.32 479.946L1142.89 459.956L1116.61 438.258M1159.32 479.946L1152.29 532.296M1159.32 479.946L1139.95 516.099M1156.42 544.631L1152.29 532.296M1152.29 532.296L1139.95 516.099M1011.47 431.834L996.602 381.807M1011.46 431.833L1043.41 396.842M1011.46 431.833L1050.56 452.541M1043.41 396.842L1027.87 344.526M1043.41 396.842L996.6 381.807M996.602 381.807L1027.87 344.527M996.602 381.807L976.271 328.5M1050.56 452.541L1043.42 396.842M1050.56 452.541L1082.3 416.627M1050.56 452.541L1087.36 474.649M1043.42 396.842L1071.06 362.159M1043.42 396.842L1082.3 416.627M1071.06 362.159L1092.07 330.516M1071.06 362.159L1053.91 310.048M1071.06 362.159L1027.87 344.527M1071.06 362.159L1107.35 381.5M1071.06 362.159L1082.3 416.627M1082.3 416.627L1107.35 381.5M1082.3 416.627L1087.36 474.649M1092.07 330.516L1072.87 281.003M1092.07 330.516L1053.91 310.048M1053.91 310.048L1072.87 281.003M1053.91 310.048L1030.16 259.44M1053.91 310.048L1027.87 344.527M1053.91 310.048L1006.03 291.22M1027.87 344.527L1006.03 291.22M1027.87 344.527L976.271 328.5M1107.35 381.5L1092.08 330.517M1107.35 381.5L1124.03 349.926M1107.35 381.5L1137.21 403.027M1107.35 381.5L1116.61 438.258M1092.08 330.517L1105.71 303.829M1092.08 330.517L1124.03 349.926M1105.71 303.829L1084.52 258.655M1105.71 303.829L1072.87 281.003M1105.71 303.829L1124.03 349.926M1124.03 349.926L1137.21 403.027M1084.52 258.655L1057.94 218.333M1084.52 258.655L1072.87 281.003M1084.52 258.655L1047.34 235.111M1072.87 281.003L1047.34 235.111M1072.87 281.003L1030.16 259.44M540.18 316.95L541.001 349.379M540.18 316.95L563.347 298.088M540.18 316.95L565.979 268.154M527.571 399.132L539.223 432.243M527.571 399.132L549.748 384.541M527.571 399.132L540.999 349.379L523.162 366.567M527.571 399.132L513.868 418.028M527.571 399.132L522.718 451.857M523.162 366.567L540.179 316.951M523.162 366.567L513.868 418.028M513.868 418.028L522.718 451.857M513.868 418.028L512.638 472.599L522.718 451.857M539.223 432.243L549.748 384.541M539.223 432.243L522.718 451.857M549.748 384.541L541.001 349.379M549.748 384.541L568.508 333.25M522.718 451.857L525.827 505.437M820.417 166.496L868.154 164.275M820.417 166.496L833.367 144.49M868.154 164.275L919.308 168.102M868.154 164.275L883.94 143.703M868.154 164.275L833.367 144.49M868.154 164.275L894.601 191.987M833.367 144.49L787.988 150.982L752.006 147.052M833.367 144.49L799.639 132.154M833.367 144.49L883.94 143.703M833.367 144.49L847.549 127.028M919.308 168.102L970.392 178.934M919.308 168.102L936.768 150.47M919.308 168.102L883.94 143.703M883.94 143.703L936.768 150.47M883.94 143.703L899.727 129.044M883.94 143.703L847.549 127.028M894.601 191.987L919.273 168.102L949.138 199.915M894.601 191.987L949.138 199.915M894.601 191.987L922.997 229.575M894.601 191.987L867.128 223.937M970.392 178.934L1017.62 196.258M970.392 178.934L987.751 165.197M970.392 178.934L936.768 150.47M970.392 178.934L1001.42 214.745M970.392 178.934L949.138 199.915M936.768 150.47L987.751 165.197M936.768 150.47L952.487 139.706M936.768 150.47L899.727 129.044M949.138 199.915L1001.42 214.745M949.138 199.915L922.997 229.575M1017.62 196.258L1057.94 218.333M1017.62 196.258L987.751 165.197M987.751 165.197L1032.93 186.622M987.751 165.197L952.487 139.706M1001.42 214.745L1017.62 196.258M1001.42 214.745L1047.34 235.111M1001.42 214.745L1030.16 259.44M1001.42 214.745L978.969 241.638M1057.94 218.333L1069.93 212.182M1057.94 218.333L1032.92 186.623M1057.94 218.333L1047.34 235.111M1017.62 196.258L1032.93 186.622M1017.62 196.258L1047.34 235.111M1047.34 235.111L1030.16 259.44M1069.93 212.182L1032.92 186.623M636.474 188.057L669.551 175.278M636.474 188.057L678.573 158.295L669.551 175.278M636.474 188.057L630.733 207.945M636.474 188.057L599.091 224.21M609.137 206.749L599.091 224.21M599.091 224.21L630.733 207.945M599.091 224.21L594.101 249.599M599.091 224.21L565.979 268.154M669.551 175.278L706.011 169.024M669.551 175.278L714.622 149L706.011 169.024M669.551 175.278L668.047 197.899M669.551 175.278L630.733 207.945M630.733 207.945L668.047 197.899M630.733 207.945L630.153 236.068M630.733 207.945L594.101 249.599M706.011 169.024L752.006 147.052M668.047 197.899L630.153 236.068M752.006 147.052L714.623 149.034M752.006 147.052L763.59 129.796M799.639 132.154L763.589 129.83M799.639 132.154L752.005 147.053M799.639 132.154L847.445 127.028M799.641 132.154L812.797 118.964M812.797 118.964L847.378 126.994M763.59 129.796L714.623 149.034M714.623 149.034L678.571 158.329M952.487 139.706L899.727 129.044M899.727 129.044L847.549 127.028M595.879 282.267L630.151 236.068L594.101 249.599M595.879 282.267L594.101 249.599M595.879 282.267L568.508 333.25M595.879 282.267L563.347 298.088M594.101 249.599L563.347 298.088M594.101 249.599L565.979 268.154M568.508 333.25L563.349 298.088L565.979 268.154M568.508 333.25L541.001 349.379M563.347 298.088L541.001 349.379M1030.16 259.44L1006.03 291.22M1030.16 259.44L978.969 241.638M1006.03 291.22L978.969 241.638M1006.03 291.22L976.271 328.5M1006.03 291.22L951.086 276.184M978.969 241.638L949.103 199.915M978.969 241.638L951.086 276.184M978.969 241.638L922.997 229.575M976.271 328.5L951.086 276.184M976.271 328.5L919.99 315.652M951.086 276.184L922.997 229.575M951.086 276.184L919.99 315.652M922.997 229.575L867.128 223.937M521.352 355.939L521.318 355.495L521.249 355.905M1137.21 403.027L1142.89 459.922M1137.21 403.027L1116.61 438.258M1142.89 459.922L1139.95 516.099M1142.89 459.922L1118.08 496.451M1116.61 438.258L1082.3 416.661M1116.61 438.258L1118.08 496.451M1116.61 438.258L1087.36 474.649M1139.95 516.099L1118.08 496.451M1118.08 496.451L1087.36 474.649M748.725 300.48L773.328 349.447M748.725 300.48L714.69 350.028L773.328 349.447M773.328 349.447L800.323 402.036M773.328 349.447L740.455 401.626M714.692 350.028L740.455 401.626M714.692 350.028L684.347 402.515M800.323 402.036L740.455 401.626M800.323 402.036L768.818 453.737M740.455 401.626L684.347 402.515M740.455 401.626L768.818 453.737M684.347 402.515L659.949 453.327M584.875 628.59L616.859 673.149M584.875 628.59L582.791 648.443M555.421 602.586L582.791 648.443M616.859 673.149L582.791 648.443M616.859 673.149L654.686 710.839M616.859 673.149L617.713 689.449M582.791 648.443L617.713 689.449M654.686 710.839L617.713 689.449M693.779 594.248L749.478 597.46M693.779 594.248L728.463 640.926M749.478 597.46L728.463 640.926M749.478 597.46L808.627 596.162M749.478 597.46L786.244 642.19M728.463 640.926L786.244 642.19M728.463 640.926L765.982 681.316M808.627 596.162L786.244 642.19M786.244 642.19L765.982 681.316M765.982 681.316L803.023 712.719M1042.46 673.08L993.868 699.666M1042.46 673.08L1017.45 658.353M993.868 699.666L1017.45 658.353M993.868 699.666L940.425 719.245M993.868 699.666L964.925 681.999M1017.45 658.353L964.925 681.999M1017.45 658.353L986.384 636.859M964.925 681.999L940.423 719.245" stroke="url(#paint3_radial_3056_33576)" stroke-width="0.33793" stroke-linecap="round" stroke-linejoin="round"/>
<g style="mix-blend-mode:overlay" filter="url(#filter14_f_3056_33576)">
<ellipse cx="574.821" cy="73.6989" rx="395.228" ry="183.591" transform="rotate(9.48944 574.821 73.6989)" fill="#C448F0" fill-opacity="0.9"/>
</g>
<path d="M529.313 424.791C493.731 412.628 472.394 396.48 470.703 377.325C466.361 328.135 593.042 275.772 763.608 252.557" stroke="url(#paint4_linear_3056_33576)" stroke-width="0.67586" stroke-linecap="round"/>
<path d="M529.313 424.792C493.731 412.629 472.394 396.481 470.703 377.326C468.775 355.488 492.671 333.025 534.766 312.764" stroke="url(#paint5_linear_3056_33576)" stroke-width="0.67586" stroke-linecap="round"/>
<g filter="url(#filter15_f_3056_33576)">
<path d="M529.313 424.792C493.731 412.629 472.394 396.481 470.703 377.326C468.775 355.488 492.671 333.025 534.766 312.764" stroke="url(#paint6_linear_3056_33576)" stroke-width="1.68" stroke-linecap="round"/>
</g>
<g filter="url(#filter16_f_3056_33576)">
<path d="M529.313 424.791C493.731 412.628 472.394 396.48 470.703 377.325C466.36 328.135 596.721 275.408 767.288 252.192" stroke="url(#paint7_linear_3056_33576)" stroke-width="1.68" stroke-linecap="round"/>
</g>
<path d="M1134.27 289.255C1181.18 261.358 1206.84 237.781 1201.89 223.613C1194.64 202.871 1123.5 207.224 1021.4 230.863" stroke="url(#paint8_linear_3056_33576)" stroke-width="0.67586" stroke-linecap="round"/>
<path d="M1204.66 434.438C1252.26 387.231 1274.34 340.685 1261.17 303.026C1248.22 265.959 1203.19 243.425 1138.23 235.783" stroke="url(#paint9_linear_3056_33576)" stroke-width="0.67586" stroke-linecap="round"/>
<path d="M979.398 241.207C1039.57 242.326 1090.51 270.529 1107.07 317.909C1117.06 346.477 1112.92 377.378 1097.9 405.822" stroke="url(#paint10_linear_3056_33576)" stroke-width="0.67586" stroke-linecap="round"/>
<path d="M598.146 215.363C585.593 197.184 581.156 180.949 586.616 168.137C606.335 121.859 747.692 137.765 902.346 203.664C930.034 215.462 954.809 228.631 979.114 241.634" stroke="url(#paint11_linear_3056_33576)" stroke-width="0.67586" stroke-linecap="round"/>
<path d="M773.23 118.687C794.585 65.4123 827.082 31.3984 863.479 31.3984C899.876 31.3984 932.373 65.4123 953.728 118.687" stroke="url(#paint12_linear_3056_33576)" stroke-width="0.67586" stroke-linecap="round"/>
<g filter="url(#filter17_f_3056_33576)">
<path d="M773.23 118.687C794.585 65.4123 827.082 31.3984 863.479 31.3984C899.876 31.3984 932.373 65.4123 953.728 118.687" stroke="url(#paint13_linear_3056_33576)" stroke-width="1.68" stroke-linecap="round"/>
</g>
<path d="M1083.94 184.481C1102.66 143.296 1110.07 114.137 1101.29 108.611C1090.14 101.596 1055.93 134.582 1015.78 188.316" stroke="url(#paint14_linear_3056_33576)" stroke-width="0.67586" stroke-linecap="round"/>
<path d="M1083.94 184.481C1102.66 143.296 1110.07 114.137 1101.29 108.611C1098.59 106.913 1094.54 107.559 1089.38 110.275" stroke="url(#paint15_linear_3056_33576)" stroke-width="0.67586" stroke-linecap="round"/>
<g filter="url(#filter18_f_3056_33576)">
<path d="M1083.94 184.481C1102.66 143.296 1110.07 114.137 1101.29 108.611C1098.59 106.913 1094.54 107.559 1089.38 110.275" stroke="url(#paint16_linear_3056_33576)" stroke-width="1.68" stroke-linecap="round"/>
</g>
<g filter="url(#filter19_f_3056_33576)">
<path d="M1083.94 184.481C1102.66 143.296 1110.07 114.137 1101.29 108.611C1090.14 101.596 1055.93 134.582 1015.78 188.316" stroke="url(#paint17_linear_3056_33576)" stroke-width="1.68" stroke-linecap="round"/>
</g>
<path d="M973.963 89.256C1010.41 47.8988 1040.28 25.6452 1053.01 33.6559C1073.91 46.8052 1041.27 136.875 979.397 240.403" stroke="url(#paint18_linear_3056_33576)" stroke-width="0.67586" stroke-linecap="round"/>
<path d="M821.941 147.641C838.245 106.968 863.055 81 890.842 81C936.455 81 974.046 150.971 979.157 241.094" stroke="url(#paint19_linear_3056_33576)" stroke-width="0.67586" stroke-linecap="round"/>
<path d="M767.471 355.393C638.366 265.482 562.289 151.55 597.55 100.919C632.81 50.2872 766.055 82.129 895.16 172.04C926.629 193.954 954 217.212 978.323 240.717" stroke="url(#paint20_linear_3056_33576)" stroke-width="0.67586" stroke-linecap="round"/>
<path d="M976.859 237.721C947.09 102.892 857.999 7.93419 777.868 25.6262C721.192 38.1399 684.179 103.658 677.901 188.648" stroke="url(#paint21_linear_3056_33576)" stroke-width="0.67586" stroke-linecap="round"/>
<path d="M677.901 188.648C684.179 103.658 721.192 38.1399 777.868 25.6262C808.829 18.7904 841.128 28.772 870.825 51.3731" stroke="url(#paint22_linear_3056_33576)" stroke-width="0.67586" stroke-linecap="round"/>
<g filter="url(#filter20_f_3056_33576)">
<path d="M677.901 188.648C684.179 103.658 721.192 38.1399 777.868 25.6262C808.829 18.7904 841.128 28.772 870.825 51.3731" stroke="url(#paint23_linear_3056_33576)" stroke-width="1.68" stroke-linecap="round"/>
</g>
<g filter="url(#filter21_f_3056_33576)">
<path d="M976.859 237.721C947.09 102.892 857.999 7.93419 777.868 25.6262C721.192 38.1399 684.179 103.658 677.901 188.648" stroke="url(#paint24_linear_3056_33576)" stroke-width="1.68" stroke-linecap="round"/>
</g>
<g filter="url(#filter22_d_3056_33576)">
<circle cx="1132.91" cy="235.294" r="2.84105" transform="rotate(148.655 1132.91 235.294)" fill="white"/>
</g>
<g filter="url(#filter23_d_3056_33576)">
<circle cx="1017.5" cy="231.684" r="2.84105" transform="rotate(148.655 1017.5 231.684)" fill="white"/>
</g>
<g filter="url(#filter24_d_3056_33576)">
<circle cx="1013.59" cy="191.231" r="2.08173" transform="rotate(148.655 1013.59 191.231)" fill="white"/>
</g>
<g filter="url(#filter25_d_3056_33576)">
<circle cx="1085.86" cy="112.985" r="2.08173" transform="rotate(148.655 1085.86 112.985)" fill="white"/>
</g>
<g filter="url(#filter26_d_3056_33576)">
<circle cx="955.256" cy="122.805" r="2.84105" transform="rotate(148.655 955.256 122.805)" fill="white"/>
</g>
<g filter="url(#filter27_d_3056_33576)">
<circle cx="875.67" cy="54.9226" r="2.84105" transform="rotate(148.655 875.67 54.9226)" fill="white"/>
</g>
<g filter="url(#filter28_d_3056_33576)">
<circle cx="770.232" cy="251.61" r="2.84105" transform="rotate(148.655 770.232 251.61)" fill="white"/>
</g>
<path d="M1056.2 335.789C1099.11 297.272 1115.82 245.891 1093.5 221.028C1072.36 197.475 1023.8 206.166 982.254 239.889" stroke="url(#paint25_linear_3056_33576)" stroke-width="0.67586" stroke-linecap="round"/>
<g filter="url(#filter29_f_3056_33576)">
<ellipse cx="978.203" cy="241.404" rx="32.1173" ry="20.3555" transform="rotate(55.1727 978.203 241.404)" fill="url(#paint26_linear_3056_33576)"/>
</g>
<path d="M1003.16 587.96L952.008 610.616M1003.16 587.96L967.932 562.366M1003.16 587.96L1014.81 539.643M1003.16 587.96L1048.27 562.401M1003.16 587.96L1035.86 611.128M1003.16 587.96L986.384 636.893L964.925 681.999M952.008 610.616L967.932 562.366M952.008 610.616L898.771 628.522M952.008 610.616L917.462 582.391M952.008 610.616L932.258 657.396M952.008 610.616L986.384 636.859M967.932 562.366L917.462 582.391M967.932 562.366L933.146 536.602M967.932 562.366L979.721 516.304M967.932 562.366L1014.81 539.643M973.092 749.521L969.401 750.307L957.749 755.638M973.092 749.521L981.601 744.737L1005.9 733.666M973.092 749.521L1005.9 733.666M973.092 749.521L960.142 754.168M557.401 619.671L541.067 589.669L535.225 574.634M557.401 619.671L587.779 662.043M557.401 619.671L566.32 631.392L587.779 662.043M557.401 619.671L535.225 574.634M557.401 619.671L555.421 602.586M557.401 619.671L582.791 648.443M1141.18 586.047L1151.26 562.469M1141.18 586.047L1156.42 544.631M1141.18 586.047L1138.65 578.563M1145.45 314.832L1132.53 287.871L1138.45 301.266M1145.45 314.832L1161.58 360.963M1145.45 314.832L1151.26 330.209M1145.45 314.832L1134.38 303.009L1132.47 323.614M1145.45 314.832L1151.81 345.586M1145.45 314.832L1125.32 275.775M1070.99 682.341L1048.23 705.201M1070.99 682.341L1082.61 673.149M1070.99 682.341L1100.82 651.143M1070.99 682.341L1033.23 711.693M1070.99 682.341L1094.95 648.99M1070.99 682.341L1060.19 680.701M1048.23 705.201L1005.9 733.666M1048.23 705.201L1082.61 673.149M1048.23 705.201L1033.23 711.693M1082.61 673.149L1108.78 640.584M1082.61 673.149L1100.82 651.143M1001.45 158.602L1010.44 159.798M1001.45 158.602L964.925 137.416M1001.45 158.602L1043.28 183.547M1001.45 158.602L952.487 139.706M1001.45 158.602L1032.93 186.622M1001.45 158.602L987.751 165.197M1010.44 159.798L1043.28 183.547M1010.44 159.798L1048.16 186.895M1010.44 159.798L964.925 137.416M521.694 354.846L521.318 355.529L522.035 353.411M512.637 472.599L511.031 492.897M512.637 472.599L507.819 438.36M512.637 472.599L525.827 505.437M512.637 472.599L520.189 526.111M1076.39 211.43L1107.59 247.652L1098.33 239.041M1076.39 211.43L1048.16 186.895M1076.39 211.43L1053.7 192.329L1048.17 186.896L1048.44 187.887L1043.28 183.547M1076.39 211.43L1098.33 239.041M1076.39 211.43L1069.93 212.182M1108.78 640.584L1107.9 641.404M1108.78 640.584L1123.1 620.492M1108.78 640.584L1110.53 637.782M1108.78 640.584L1109.16 639.627M826.738 113.292L875.876 114.932M826.738 113.292L777.429 119.579M826.738 113.292L812.797 118.964M826.738 113.292L862.071 116.674M875.876 114.932L862.071 116.674M875.876 114.932L914.113 122.586M907.449 769.306L922.963 767.461M907.449 769.306L940.184 754.065M907.449 769.306L957.749 755.638M907.449 769.306L891.218 764.044M907.449 769.306L858.79 774.773M907.449 769.306L873.21 776.55M664.016 726.25L660.77 723.961M1169.3 445.672L1172.31 465.628M1169.3 445.672L1164.14 394.006M1169.3 445.672L1166.47 497.031M1169.3 445.672L1171.11 412.356M1169.3 445.672L1158.06 424.965M1169.3 445.672L1159.32 479.946M1172.31 465.628L1166.47 497.031M1172.31 465.628L1165.13 516.782L1166.47 497.031M1172.31 465.628L1171.11 412.356M1166.47 497.031L1156.42 544.631M1166.47 497.031L1159.32 479.946M1166.47 497.031L1152.29 532.296M793.831 773.714L791.986 773.646M777.429 119.579L741.959 128.361M777.429 119.579L812.797 118.964M777.429 119.579L763.59 129.796M777.429 119.579L726.719 134.716M741.959 128.361L726.719 134.716M741.959 128.361L692.001 147.906M559.692 268.496L558.667 271.264M559.692 268.496L555.523 276.253M559.692 268.496L547.049 289.648M559.692 268.496L575.306 245.157M559.692 268.496L561.777 266.514M559.692 268.496L565.125 261.218M1149.24 325.664L1151.26 330.209M1151.26 330.209L1150.34 328.808M1151.26 330.209L1161.58 360.963M1151.26 330.209L1151.19 331.2M1151.26 330.209L1152.73 335.642M588.429 230.19L589.044 229.131M589.044 229.131L586.926 231.933M589.044 229.131L591.709 226.534M589.044 229.131L589.625 228.892M1045.29 185.255L1048.16 186.895M536.49 311.825L541.274 302.906M862.071 116.674L812.797 118.964M862.071 116.674L914.113 122.586M862.071 116.674L899.727 129.044M862.071 116.674L847.549 127.028M936.837 129.215L926.039 125.046M1100.82 651.143L1123.1 620.492M1123.1 620.492L1141.18 586.047L1121.02 617.177M1123.1 620.492L1121.02 617.177M779.991 771.971L826.839 777.883M779.991 771.971L743.395 763.633M779.991 771.971L814.642 773.577M779.991 771.971L733.93 758.645M779.991 771.971L769.98 764.317M826.839 777.883L873.21 776.55M826.839 777.883L814.642 773.577M826.839 777.883L858.79 774.773M873.21 776.55L923.134 767.426M873.21 776.55L858.79 774.773M923.134 767.426L950.744 757.551M923.134 767.426L957.749 755.638M650.176 716.478L624.377 698.299M624.377 698.299L657.249 722.389M624.377 698.299L617.713 689.449M624.377 698.299L587.781 662.043L617.713 689.449M657.249 722.389L697.742 746.07M657.249 722.389L694.872 739.372M657.249 722.389L654.686 710.839M657.249 722.389L617.713 689.449M697.742 746.07L743.395 763.633M697.742 746.07L733.93 758.645M697.742 746.07L694.872 739.372M743.395 763.633L733.93 758.645M522.855 544.461L535.225 574.634M522.855 544.461L511.032 492.931M522.855 544.461L520.19 526.111M535.225 574.634L536.625 555.874M535.225 574.634L520.19 526.111M535.225 574.634L555.419 602.586L536.625 555.874M1151.26 562.469L1156.42 544.632L1165.13 516.782M526.478 336.906L536.49 311.859L547.049 289.648M526.478 336.906L513.527 385.088M526.478 336.906L523.164 366.567L527.571 399.132M526.478 336.906L540.18 316.95M526.478 336.906L547.049 289.648M547.049 289.648L558.7 271.298M547.049 289.648L540.18 316.95M547.049 289.648L565.979 268.154M1132.53 287.837L1125.32 275.775M1125.32 275.775L1107.59 247.652M1125.32 275.775L1134.38 303.043M609.204 206.612L575.306 245.157M609.204 206.612L646.861 174.97M609.204 206.612L636.474 188.057M575.306 245.157L561.741 266.48M575.306 245.157L599.091 224.21M575.306 245.157L565.979 268.154M646.861 174.97L692.001 147.906M646.861 174.97L636.474 188.057M646.861 174.97L678.571 158.329M692.001 147.906L726.719 134.716M692.001 147.906L678.571 158.329M1043.28 183.547L1069.93 212.182M1043.28 183.547L1032.92 186.623M726.719 134.716L763.591 129.83L812.797 118.964M726.719 134.716L714.623 149.034M726.719 134.716L678.571 158.329M914.113 122.586L926.004 125.046L964.925 137.416M914.113 122.586L964.925 137.416M914.113 122.586L952.487 139.706M914.113 122.586L899.727 129.044M964.925 137.416L952.487 139.706M1171.11 412.356L1164.62 379.244L1161.58 360.963M1171.11 412.356L1161.58 360.963M1171.11 412.356L1164.14 394.006M1161.58 360.963L1151.81 345.586M1161.58 360.963L1164.14 394.006M513.526 385.088L511.988 405.385L507.819 438.36M513.526 385.088L507.819 438.36M513.526 385.088L513.868 418.028M513.526 385.088L523.162 366.567M507.819 438.36L511.032 492.931M507.819 438.36L513.868 418.028M511.032 492.931L520.19 526.111M587.779 662.043L582.791 648.443M1005.9 733.666L1033.23 711.693M1005.9 733.666L988.743 736.331M1005.9 733.666L1005.96 733.597M957.749 755.638L988.743 736.331M957.749 755.638L940.184 754.065M803.808 764.419L845.087 766.948M803.808 764.419L818.946 753.211M803.808 764.419L771.894 751.639M845.087 766.948L891.218 764.044M845.087 766.948L818.946 753.211M845.087 766.948L814.64 773.577M845.087 766.948L858.79 774.773M845.087 766.948L864.701 753.143M818.946 753.211L836.817 734.657M818.946 753.211L772.371 751.674M818.946 753.211L818.912 753.212M818.946 753.211L864.701 753.143M771.894 751.639L736.629 731.513M771.894 751.639L769.98 764.317M814.642 773.577L803.81 764.419L769.98 764.317M814.642 773.577L769.98 764.317M814.642 773.577L858.79 774.773M769.98 764.317L733.93 758.645M769.98 764.317L734.032 748.803M945.619 493.99L933.146 536.602M945.619 493.99L979.721 516.304M945.619 493.99L902.222 497.407M945.619 493.99L930.173 452.78M945.619 493.99L978.013 464.774M933.146 536.602L917.462 582.391M933.146 536.602L979.721 516.304M933.146 536.602L902.222 497.407M933.146 536.602L885.513 542.752M979.721 516.304L1014.81 539.643M979.721 516.304L978.013 464.774M979.721 516.304L1015.29 486.404M902.222 497.407L852.058 500.209M902.222 497.407L930.173 452.746M902.222 497.407L882.06 453.224M902.222 497.407L885.513 542.752M930.173 452.78L963.079 418.746M930.173 452.78L882.06 453.224M978.013 464.774L930.173 452.746M978.013 464.774L1011.47 431.834M978.013 464.774L963.079 418.746M978.013 464.774L1015.29 486.404M576.606 491.906L605.036 495.596M605.036 495.596L642.214 498.876M605.036 495.596L588.941 533.082M605.036 495.596L617.407 452.848M605.036 495.596L622.02 539.882M576.607 491.906L588.943 533.082M576.607 491.906L559.146 512.955M576.607 491.906L584.534 452.302L556.343 463.647M576.607 491.906L556.343 463.647M588.943 533.082L607.497 577.709M588.943 533.082L559.146 512.955M588.943 533.082L572.745 557.275M588.943 533.082L622.02 539.882M559.146 512.955L545.1 534.756M559.146 512.955L556.343 463.647M556.343 463.647L539.223 432.243M556.343 463.647L565.056 419.634M556.343 463.647L538.642 484.115M1114.22 267.334L1134.38 303.043M1114.22 267.334L1112.58 282.882M1114.22 267.334L1090.02 242.765M1134.38 303.043L1112.58 282.882M1112.58 282.882L1105.71 303.829M1112.58 282.882L1090.02 242.765M1112.58 282.882L1084.52 258.655M1112.58 282.882L1132.47 323.614M1090.02 242.765L1057.94 218.333M1090.02 242.765L1098.33 239.041M1090.02 242.765L1069.93 212.182M1090.02 242.765L1084.52 258.655M1125.32 275.775L1114.22 267.334L1098.33 239.041M1125.32 275.775L1098.33 239.041M1098.33 239.041L1069.93 212.182M778.147 173.022L795.198 194.482M778.147 173.022L746.778 195.746M778.147 173.022L820.415 166.496M795.198 194.482L815.633 223.903M795.198 194.482L746.778 195.746M795.198 194.482L820.415 166.496M795.198 194.482L842.251 190.654M795.198 194.482L763.009 222.399M746.778 195.746L712.812 226.261M746.778 195.746L742.985 168.751M820.415 166.496L787.987 150.982M742.983 168.751L778.145 173.022L787.987 150.982M742.983 168.751L706.011 169.024M742.983 168.751L787.987 150.982M787.987 150.982L799.639 132.154M1121.02 617.177L1100.82 651.143L1094.95 648.99M1121.02 617.177L1113.57 610.24M1121.02 617.177L1138.65 578.563M1121.02 617.177L1094.95 648.99M1094.95 648.99L1113.57 610.24M1094.95 648.99L1060.19 680.701M1094.95 648.99L1082.78 642.19M1033.23 711.693L988.743 736.331M1033.23 711.693L1060.19 680.701M1033.23 711.693L1016.86 709.336M1060.19 680.701L1016.86 709.336M1060.19 680.701L1042.46 673.08M988.743 736.331L940.184 754.065M988.743 736.331L1016.86 709.336M988.743 736.331L967.249 731.888M1016.86 709.336L1042.46 673.08M1016.86 709.336L967.249 731.888M1016.86 709.336L993.868 699.666M940.184 754.065L891.218 764.044M967.249 731.888L940.186 754.065L915.173 746.514M967.249 731.888L993.868 699.666M967.249 731.888L915.173 746.514M967.249 731.888L940.425 719.245M891.218 764.044L858.79 774.773M891.218 764.044L915.173 746.514M891.218 764.044L864.701 753.143M915.173 746.514L940.425 719.245M915.173 746.514L864.701 753.143M915.173 746.514L886.743 730.658M864.701 753.143L836.819 734.656L886.743 730.658M864.701 753.143L886.743 730.658M836.817 734.657L856.91 707.354M836.817 734.657L803.022 712.684L856.91 707.354M836.817 734.657L785.801 736.502M785.801 736.502L818.639 753.075M785.801 736.502L771.858 751.64L734.031 748.803M785.801 736.502L736.629 731.513M785.801 736.502L803.023 712.719M785.801 736.502L749.305 711.147M856.91 707.354L878.097 671.303M856.91 707.354L823.047 679.402M856.91 707.354L886.741 730.659M856.91 707.354L909.874 698.435M886.743 730.658L909.877 698.435L940.425 719.245M886.743 730.658L940.425 719.245M878.097 671.303L898.769 628.521M878.097 671.303L844.61 637.679M878.097 671.303L823.047 679.402M823.047 679.402L844.61 637.679M823.047 679.402L786.244 642.19M823.047 679.402L803.023 712.719M823.047 679.402L765.982 681.316M909.874 698.435L878.097 671.337L932.258 657.396M909.874 698.435L932.258 657.396M909.874 698.435L964.925 681.999M898.769 628.521L865.965 590.728M898.769 628.521L844.61 637.679M844.61 637.679L865.967 590.728M844.61 637.679L808.627 596.162M844.61 637.679L786.244 642.19M932.258 657.396L898.771 628.522M932.258 657.396L964.925 681.999M932.258 657.396L986.384 636.859M898.771 628.522L917.462 582.391M917.462 582.391L885.513 542.752M917.462 582.391L865.967 590.728M885.513 542.752L852.058 500.209M885.513 542.752L865.967 590.728M885.513 542.752L831.146 547.4M865.967 590.728L831.146 547.4M865.967 590.728L808.627 596.162M1014.81 539.643L1048.27 562.401M1014.81 539.643L1052.2 509.231M1014.81 539.643L1015.29 486.404M1015.29 486.404L1011.46 431.833M1015.29 486.404L1052.2 509.231M1015.29 486.404L1050.56 452.541M1048.27 562.401L1077.14 582.664M1048.27 562.401L1085.41 531.476M1048.27 562.401L1035.86 611.128M1052.2 509.231L1048.27 562.401M1052.2 509.231L1085.41 531.476M1052.2 509.231L1087.36 474.649M1052.2 509.231L1050.56 452.541M1077.14 582.664L1099.18 598.827M1077.14 582.664L1111.72 551.226M1077.14 582.664L1085.41 531.476M1077.14 582.664L1063.03 629.615M1077.14 582.664L1035.86 611.128M1085.41 531.476L1111.72 551.226M1085.41 531.476L1118.08 496.451M1085.41 531.476L1087.36 474.649M1035.86 611.128L1063.03 629.615M1035.86 611.128L1017.45 658.353M1035.86 611.128L986.384 636.859M1099.18 598.827L1113.57 610.24M1099.18 598.827L1129.39 567.082M1099.18 598.827L1111.72 551.226M1099.18 598.827L1082.78 642.19M1099.18 598.827L1063.03 629.615M1111.72 551.226L1129.39 567.082M1111.72 551.226L1139.95 516.099M1111.72 551.226L1118.08 496.451M1063.03 629.615L1082.78 642.19M1063.03 629.615L1042.46 673.08M1063.03 629.615L1017.45 658.353M1113.57 610.24L1138.65 578.563M1113.57 610.24L1129.39 567.082M1113.57 610.24L1082.78 642.19M1129.39 567.082L1138.65 578.563L1152.29 532.296M1129.39 567.082L1152.29 532.296M1129.39 567.082L1139.95 516.099M1082.78 642.19L1060.16 680.701M1082.78 642.19L1042.46 673.08M1138.65 578.563L1156.42 544.631M642.214 498.876L688.106 501.269M642.214 498.876L659.984 453.326L688.106 501.269M642.214 498.876L617.407 452.848M642.214 498.876L622.02 539.882M642.214 498.876L664.63 545.52M605.001 495.528L584.533 452.302M584.533 452.302L598.304 407.23M584.533 452.302L565.056 419.634M584.533 452.302L617.407 452.848M617.407 452.848L598.304 407.23M617.407 452.848L659.949 453.327M617.407 452.848L636.303 404.531M622.02 539.882L607.497 577.709M622.02 539.882L664.63 545.52M622.02 539.882L645.767 587.209M688.106 501.269L740.798 502.396M688.106 501.269L711.445 453.634M688.106 501.269L664.63 545.52M688.106 501.269L716.024 549.006M664.63 545.52L645.767 587.209M664.63 545.52L716.024 549.006M664.63 545.52L693.779 594.248M711.445 453.634L740.899 502.294M711.445 453.634L768.818 453.737M711.445 453.634L740.455 401.626M711.445 453.634L659.949 453.327M711.445 453.634L684.347 402.515M716.024 549.006L740.935 502.396M716.024 549.006L693.779 594.248M716.024 549.006L773.09 549.689M716.024 549.006L749.478 597.46M740.935 502.396L797.078 501.986M740.935 502.396L768.818 453.703L797.078 501.986M740.935 502.396L773.09 549.689M797.078 501.986L852.058 500.209M797.078 501.986L827.25 453.566M773.09 549.689L797.078 502.021L831.146 547.4M773.09 549.689L749.478 597.46M773.09 549.689L831.146 547.4M773.09 549.689L808.627 596.162M852.058 500.209L882.06 453.224M852.058 500.209L827.25 453.566M852.058 500.209L831.146 547.4M827.25 453.566L882.06 453.224M827.25 453.566L858.585 403.676M827.25 453.566L768.818 453.737M827.25 453.566L800.323 402.036M831.146 547.4L808.627 596.162M882.06 453.224L911.004 406.137M882.06 453.224L858.585 403.676M930.173 452.746L911.004 406.137M736.629 731.513L699.861 702.878M736.629 731.513L695.522 724.781M736.629 731.513L734.032 748.803M736.629 731.513L749.305 711.147M699.861 702.878L711.753 676.566M699.861 702.878L749.307 711.147M734.032 748.803L733.93 758.645M734.032 748.803L694.872 739.372M734.032 748.803L695.52 724.781M749.305 711.147L803.023 712.719M699.86 702.877L664.322 666.075M699.86 702.877L657.146 691.533M699.86 702.877L695.52 724.781M664.322 666.075L632.817 623.225M664.322 666.075L622.224 650.288M664.322 666.075L657.146 691.533M664.322 666.075L676.248 634.126M664.322 666.075L711.753 676.566M657.146 691.533L695.52 724.781M657.146 691.533L654.686 710.839M695.52 724.781L654.686 710.839M695.52 724.781L694.872 739.372M711.753 676.566L676.248 634.126M711.753 676.566L728.463 640.926M711.753 676.566L765.982 681.316M711.753 676.566L749.307 711.147M749.307 711.147L765.982 681.316M632.817 623.225L607.497 577.709M632.817 623.225L593.658 604.191M632.817 623.225L622.224 650.288M632.817 623.225L645.767 587.209M632.817 623.225L676.248 634.126M622.224 650.288L593.657 604.192L584.875 628.59M622.224 650.288L584.875 628.59M622.224 650.288L657.148 691.533L616.86 673.149L622.224 650.288ZM676.248 634.126L645.769 587.209L693.779 594.248M676.248 634.126L693.779 594.248M676.248 634.126L728.463 640.926M607.497 577.709L572.745 557.275M607.497 577.709L593.658 604.191M607.497 577.709L645.767 587.209M593.658 604.191L572.745 557.275M593.658 604.191L560.853 581.126M572.745 557.275L560.853 581.126M733.93 758.645L694.872 739.372M694.872 739.372L654.686 710.839M536.625 555.874L545.1 534.756M536.625 555.874L525.861 505.437L545.1 534.756M536.625 555.874L520.189 526.111M536.625 555.874L560.853 581.126M545.1 534.756L538.642 484.115M545.1 534.756L572.744 557.275L559.144 512.955L538.642 484.115M545.1 534.756L560.853 581.126M520.189 526.111L525.827 505.437M560.853 581.126L584.876 628.59L555.421 602.586M560.853 581.126L555.421 602.586M538.642 484.115L539.223 432.243M538.642 484.115L525.827 505.437M538.642 484.115L522.718 451.857M815.633 223.903L842.251 190.654M815.633 223.903L763.009 222.399M815.633 223.903L783.307 257.835M842.251 190.654L820.417 166.496M842.251 190.654L868.154 164.275M842.251 190.654L867.128 223.937M842.251 190.654L894.601 191.987M763.009 222.399L712.811 226.261L728.358 258.894M763.009 222.399L746.777 195.746L707.787 194.208M763.009 222.399L783.307 257.835M763.009 222.399L728.358 258.894M838.97 261.765L815.631 223.903L867.161 223.937L838.97 261.765ZM838.97 261.765L863.882 306.87M838.97 261.765L893.747 266.309M838.97 261.765L783.305 257.834M838.97 261.765L807.122 301.778M783.307 257.835L728.358 258.894M863.882 306.87L888.519 356.315M863.882 306.87L919.956 315.652L888.519 356.315M863.882 306.87L893.747 266.309M863.882 306.87L807.122 301.778M863.882 306.87L832.923 351.737M893.747 266.309L919.99 315.652M893.747 266.309L951.086 276.184M893.747 266.309L867.128 223.937M893.747 266.309L922.997 229.575M783.305 257.834L807.122 301.778M783.305 257.834L748.725 300.48M807.122 301.778L748.725 300.514L693.676 303.419M807.122 301.778L832.923 351.737M807.122 301.778L773.328 349.447M888.519 356.315L911.004 406.137M888.519 356.315L943.568 367.934M888.519 356.315L832.923 351.737M888.519 356.315L858.585 403.676M832.923 351.737L773.328 349.447M832.923 351.737L858.585 403.676M832.923 351.737L800.323 402.036M911.004 406.137L963.079 418.746M911.004 406.137L943.568 367.934M911.004 406.137L858.585 403.676M943.568 367.934L963.079 418.746M943.568 367.934L996.602 381.807M943.568 367.934L919.99 315.652M943.568 367.934L976.271 328.5M858.585 403.676L800.323 402.036M963.079 418.746L1011.47 431.834M963.079 418.746L996.602 381.807M598.304 407.23L618.91 358.707M598.304 407.23L580.877 370.667M598.304 407.23L565.056 419.634M598.304 407.23L636.303 404.531M565.056 419.634L539.223 432.243M565.056 419.634L549.748 384.541M565.056 419.634L580.877 370.667M618.91 358.707L646.145 309.946M618.91 358.707L604.592 319.787M618.91 358.707L580.877 370.667M618.91 358.707L662.136 353.343M618.91 358.707L636.303 404.531M580.877 370.667L604.592 319.787M580.877 370.667L568.508 333.25M580.877 370.667L549.748 384.541M636.303 404.531L662.136 353.343M636.303 404.531L684.347 402.515M636.303 404.531L659.949 453.327M646.145 309.946L678.333 264.771M646.145 309.946L635.483 271.059M646.145 309.946L604.592 319.787M646.145 309.946L693.675 303.453M646.145 309.946L662.136 353.343M604.592 319.787L635.483 271.059M604.592 319.787L595.879 282.267M604.592 319.787L568.508 333.25M662.136 353.343L693.675 303.453M662.136 353.343L714.692 350.028M662.136 353.343L684.347 402.515M678.333 264.771L712.812 226.261M678.333 264.771L670.986 228.413M678.333 264.771L635.483 271.059M678.333 264.771L728.36 258.894M678.333 264.771L693.675 303.453M635.483 271.059L670.986 228.413M635.483 271.059L630.153 236.068M635.483 271.059L595.879 282.267M693.675 303.453L728.36 258.894M693.675 303.453L714.692 350.028M712.812 226.261L707.789 194.208M712.812 226.261L670.986 228.413M670.986 228.413L707.789 194.208M670.986 228.413L668.047 197.899M670.986 228.413L630.153 236.068M728.36 258.894L748.725 300.48M707.789 194.208L706.012 168.99L668.047 197.899M707.789 194.208L742.985 168.751M707.789 194.208L668.047 197.899M742.985 168.751L752.006 147.052M1134.38 303.043L1151.81 345.586M1151.81 345.586L1164.14 394.006M1151.81 345.586L1132.47 323.614M1151.81 345.586L1148.52 371.658M1132.47 323.614L1105.71 303.829M1132.47 323.614L1148.52 371.658M1132.47 323.614L1124.03 349.926M1164.14 394.006L1148.52 371.658M1164.14 394.006L1158.06 424.965M1148.52 371.658L1124.03 349.926M1148.52 371.658L1158.06 424.965M1148.52 371.658L1137.21 403.027M1158.06 424.965L1137.21 403.027M1158.06 424.965L1159.32 479.946M1158.06 424.965L1142.89 459.922M1159.32 479.946L1142.89 459.956L1116.61 438.258M1159.32 479.946L1152.29 532.296M1159.32 479.946L1139.95 516.099M1156.42 544.631L1152.29 532.296M1152.29 532.296L1139.95 516.099M1011.47 431.834L996.602 381.807M1011.46 431.833L1043.41 396.842M1011.46 431.833L1050.56 452.541M1043.41 396.842L1027.87 344.526M1043.41 396.842L996.6 381.807M996.602 381.807L1027.87 344.527M996.602 381.807L976.271 328.5M1050.56 452.541L1043.42 396.842M1050.56 452.541L1082.3 416.627M1050.56 452.541L1087.36 474.649M1043.42 396.842L1071.06 362.159M1043.42 396.842L1082.3 416.627M1071.06 362.159L1092.07 330.516M1071.06 362.159L1053.91 310.048M1071.06 362.159L1027.87 344.527M1071.06 362.159L1107.35 381.5M1071.06 362.159L1082.3 416.627M1082.3 416.627L1107.35 381.5M1082.3 416.627L1087.36 474.649M1092.07 330.516L1072.87 281.003M1092.07 330.516L1053.91 310.048M1053.91 310.048L1072.87 281.003M1053.91 310.048L1030.16 259.44M1053.91 310.048L1027.87 344.527M1053.91 310.048L1006.03 291.22M1027.87 344.527L1006.03 291.22M1027.87 344.527L976.271 328.5M1107.35 381.5L1092.08 330.517M1107.35 381.5L1124.03 349.926M1107.35 381.5L1137.21 403.027M1107.35 381.5L1116.61 438.258M1092.08 330.517L1105.71 303.829M1092.08 330.517L1124.03 349.926M1105.71 303.829L1084.52 258.655M1105.71 303.829L1072.87 281.003M1105.71 303.829L1124.03 349.926M1124.03 349.926L1137.21 403.027M1084.52 258.655L1057.94 218.333M1084.52 258.655L1072.87 281.003M1084.52 258.655L1047.34 235.111M1072.87 281.003L1047.34 235.111M1072.87 281.003L1030.16 259.44M540.18 316.95L541.001 349.379M540.18 316.95L563.347 298.088M540.18 316.95L565.979 268.154M527.571 399.132L539.223 432.243M527.571 399.132L549.748 384.541M527.571 399.132L540.999 349.379L523.162 366.567M527.571 399.132L513.868 418.028M527.571 399.132L522.718 451.857M523.162 366.567L540.179 316.951M523.162 366.567L513.868 418.028M513.868 418.028L522.718 451.857M513.868 418.028L512.638 472.599L522.718 451.857M539.223 432.243L549.748 384.541M539.223 432.243L522.718 451.857M549.748 384.541L541.001 349.379M549.748 384.541L568.508 333.25M522.718 451.857L525.827 505.437M820.417 166.496L868.154 164.275M820.417 166.496L833.367 144.49M868.154 164.275L919.308 168.102M868.154 164.275L883.94 143.703M868.154 164.275L833.367 144.49M868.154 164.275L894.601 191.987M833.367 144.49L787.988 150.982L752.006 147.052M833.367 144.49L799.639 132.154M833.367 144.49L883.94 143.703M833.367 144.49L847.549 127.028M919.308 168.102L970.392 178.934M919.308 168.102L936.768 150.47M919.308 168.102L883.94 143.703M883.94 143.703L936.768 150.47M883.94 143.703L899.727 129.044M883.94 143.703L847.549 127.028M894.601 191.987L919.273 168.102L949.138 199.915M894.601 191.987L949.138 199.915M894.601 191.987L922.997 229.575M894.601 191.987L867.128 223.937M970.392 178.934L1017.62 196.258M970.392 178.934L987.751 165.197M970.392 178.934L936.768 150.47M970.392 178.934L1001.42 214.745M970.392 178.934L949.138 199.915M936.768 150.47L987.751 165.197M936.768 150.47L952.487 139.706M936.768 150.47L899.727 129.044M949.138 199.915L1001.42 214.745M949.138 199.915L922.997 229.575M1017.62 196.258L1057.94 218.333M1017.62 196.258L987.751 165.197M987.751 165.197L1032.93 186.622M987.751 165.197L952.487 139.706M1001.42 214.745L1017.62 196.258M1001.42 214.745L1047.34 235.111M1001.42 214.745L1030.16 259.44M1001.42 214.745L978.969 241.638M1057.94 218.333L1069.93 212.182M1057.94 218.333L1032.92 186.623M1057.94 218.333L1047.34 235.111M1017.62 196.258L1032.93 186.622M1017.62 196.258L1047.34 235.111M1047.34 235.111L1030.16 259.44M1069.93 212.182L1032.92 186.623M636.474 188.057L669.551 175.278M636.474 188.057L678.573 158.295L669.551 175.278M636.474 188.057L630.733 207.945M636.474 188.057L599.091 224.21M609.137 206.749L599.091 224.21M599.091 224.21L630.733 207.945M599.091 224.21L594.101 249.599M599.091 224.21L565.979 268.154M669.551 175.278L706.011 169.024M669.551 175.278L714.622 149L706.011 169.024M669.551 175.278L668.047 197.899M669.551 175.278L630.733 207.945M630.733 207.945L668.047 197.899M630.733 207.945L630.153 236.068M630.733 207.945L594.101 249.599M706.011 169.024L752.006 147.052M668.047 197.899L630.153 236.068M752.006 147.052L714.623 149.034M752.006 147.052L763.59 129.796M799.639 132.154L763.589 129.83M799.639 132.154L752.005 147.053M799.639 132.154L847.445 127.028M799.641 132.154L812.797 118.964M812.797 118.964L847.378 126.994M763.59 129.796L714.623 149.034M714.623 149.034L678.571 158.329M952.487 139.706L899.727 129.044M899.727 129.044L847.549 127.028M595.879 282.267L630.151 236.068L594.101 249.599M595.879 282.267L594.101 249.599M595.879 282.267L568.508 333.25M595.879 282.267L563.347 298.088M594.101 249.599L563.347 298.088M594.101 249.599L565.979 268.154M568.508 333.25L563.349 298.088L565.979 268.154M568.508 333.25L541.001 349.379M563.347 298.088L541.001 349.379M1030.16 259.44L1006.03 291.22M1030.16 259.44L978.969 241.638M1006.03 291.22L978.969 241.638M1006.03 291.22L976.271 328.5M1006.03 291.22L951.086 276.184M978.969 241.638L949.103 199.915M978.969 241.638L951.086 276.184M978.969 241.638L922.997 229.575M976.271 328.5L951.086 276.184M976.271 328.5L919.99 315.652M951.086 276.184L922.997 229.575M951.086 276.184L919.99 315.652M922.997 229.575L867.128 223.937M521.352 355.939L521.318 355.495L521.249 355.905M1137.21 403.027L1142.89 459.922M1137.21 403.027L1116.61 438.258M1142.89 459.922L1139.95 516.099M1142.89 459.922L1118.08 496.451M1116.61 438.258L1082.3 416.661M1116.61 438.258L1118.08 496.451M1116.61 438.258L1087.36 474.649M1139.95 516.099L1118.08 496.451M1118.08 496.451L1087.36 474.649M748.725 300.48L773.328 349.447M748.725 300.48L714.69 350.028L773.328 349.447M773.328 349.447L800.323 402.036M773.328 349.447L740.455 401.626M714.692 350.028L740.455 401.626M714.692 350.028L684.347 402.515M800.323 402.036L740.455 401.626M800.323 402.036L768.818 453.737M740.455 401.626L684.347 402.515M740.455 401.626L768.818 453.737M684.347 402.515L659.949 453.327M584.875 628.59L616.859 673.149M584.875 628.59L582.791 648.443M555.421 602.586L582.791 648.443M616.859 673.149L582.791 648.443M616.859 673.149L654.686 710.839M616.859 673.149L617.713 689.449M582.791 648.443L617.713 689.449M654.686 710.839L617.713 689.449M693.779 594.248L749.478 597.46M693.779 594.248L728.463 640.926M749.478 597.46L728.463 640.926M749.478 597.46L808.627 596.162M749.478 597.46L786.244 642.19M728.463 640.926L786.244 642.19M728.463 640.926L765.982 681.316M808.627 596.162L786.244 642.19M786.244 642.19L765.982 681.316M765.982 681.316L803.023 712.719M1042.46 673.08L993.868 699.666M1042.46 673.08L1017.45 658.353M993.868 699.666L1017.45 658.353M993.868 699.666L940.425 719.245M993.868 699.666L964.925 681.999M1017.45 658.353L964.925 681.999M1017.45 658.353L986.384 636.859M964.925 681.999L940.423 719.245" stroke="url(#paint27_radial_3056_33576)" stroke-width="0.33793" stroke-linecap="round" stroke-linejoin="round" stroke-dasharray="1.35 1.35"/>
<g filter="url(#filter30_d_3056_33576)">
<circle cx="538.264" cy="310.673" r="2.84105" transform="rotate(148.655 538.264 310.673)" fill="white"/>
</g>
</g>
<defs>
<filter id="filter0_f_3056_33576" x="442.379" y="-167.289" width="946.73" height="534.082" filterUnits="userSpaceOnUse" color-interpolation-filters="sRGB">
<feFlood flood-opacity="0" result="BackgroundImageFix"/>
<feBlend mode="normal" in="SourceGraphic" in2="BackgroundImageFix" result="shape"/>
<feGaussianBlur stdDeviation="41.5" result="effect1_foregroundBlur_3056_33576"/>
</filter>
<filter id="filter1_f_3056_33576" x="811.397" y="-99.9902" width="577.976" height="371.715" filterUnits="userSpaceOnUse" color-interpolation-filters="sRGB">
<feFlood flood-opacity="0" result="BackgroundImageFix"/>
<feBlend mode="normal" in="SourceGraphic" in2="BackgroundImageFix" result="shape"/>
<feGaussianBlur stdDeviation="9.665" result="effect1_foregroundBlur_3056_33576"/>
</filter>
<filter id="filter2_f_3056_33576" x="915.393" y="21.5489" width="408.285" height="213.301" filterUnits="userSpaceOnUse" color-interpolation-filters="sRGB">
<feFlood flood-opacity="0" result="BackgroundImageFix"/>
<feBlend mode="normal" in="SourceGraphic" in2="BackgroundImageFix" result="shape"/>
<feGaussianBlur stdDeviation="26.165" result="effect1_foregroundBlur_3056_33576"/>
</filter>
<filter id="filter3_d_3056_33576" x="638.988" y="150.699" width="6.00781" height="6.00781" filterUnits="userSpaceOnUse" color-interpolation-filters="sRGB">
<feFlood flood-opacity="0" result="BackgroundImageFix"/>
<feColorMatrix in="SourceAlpha" type="matrix" values="0 0 0 0 0 0 0 0 0 0 0 0 0 0 0 0 0 0 127 0" result="hardAlpha"/>
<feOffset/>
<feGaussianBlur stdDeviation="1"/>
<feComposite in2="hardAlpha" operator="out"/>
<feColorMatrix type="matrix" values="0 0 0 0 1 0 0 0 0 1 0 0 0 0 1 0 0 0 0.52 0"/>
<feBlend mode="normal" in2="BackgroundImageFix" result="effect1_dropShadow_3056_33576"/>
<feBlend mode="normal" in="SourceGraphic" in2="effect1_dropShadow_3056_33576" result="shape"/>
</filter>
<filter id="filter4_d_3056_33576" x="624.926" y="61.457" width="6.00781" height="6.00781" filterUnits="userSpaceOnUse" color-interpolation-filters="sRGB">
<feFlood flood-opacity="0" result="BackgroundImageFix"/>
<feColorMatrix in="SourceAlpha" type="matrix" values="0 0 0 0 0 0 0 0 0 0 0 0 0 0 0 0 0 0 127 0" result="hardAlpha"/>
<feOffset/>
<feGaussianBlur stdDeviation="1"/>
<feComposite in2="hardAlpha" operator="out"/>
<feColorMatrix type="matrix" values="0 0 0 0 1 0 0 0 0 1 0 0 0 0 1 0 0 0 0.52 0"/>
<feBlend mode="normal" in2="BackgroundImageFix" result="effect1_dropShadow_3056_33576"/>
<feBlend mode="normal" in="SourceGraphic" in2="effect1_dropShadow_3056_33576" result="shape"/>
</filter>
<filter id="filter5_d_3056_33576" x="663.965" y="83.4766" width="6.00781" height="6.00781" filterUnits="userSpaceOnUse" color-interpolation-filters="sRGB">
<feFlood flood-opacity="0" result="BackgroundImageFix"/>
<feColorMatrix in="SourceAlpha" type="matrix" values="0 0 0 0 0 0 0 0 0 0 0 0 0 0 0 0 0 0 127 0" result="hardAlpha"/>
<feOffset/>
<feGaussianBlur stdDeviation="1"/>
<feComposite in2="hardAlpha" operator="out"/>
<feColorMatrix type="matrix" values="0 0 0 0 1 0 0 0 0 1 0 0 0 0 1 0 0 0 0.52 0"/>
<feBlend mode="normal" in2="BackgroundImageFix" result="effect1_dropShadow_3056_33576"/>
<feBlend mode="normal" in="SourceGraphic" in2="effect1_dropShadow_3056_33576" result="shape"/>
</filter>
<filter id="filter6_d_3056_33576" x="415.926" y="120.434" width="6.00781" height="6.00781" filterUnits="userSpaceOnUse" color-interpolation-filters="sRGB">
<feFlood flood-opacity="0" result="BackgroundImageFix"/>
<feColorMatrix in="SourceAlpha" type="matrix" values="0 0 0 0 0 0 0 0 0 0 0 0 0 0 0 0 0 0 127 0" result="hardAlpha"/>
<feOffset/>
<feGaussianBlur stdDeviation="1"/>
<feComposite in2="hardAlpha" operator="out"/>
<feColorMatrix type="matrix" values="0 0 0 0 1 0 0 0 0 1 0 0 0 0 1 0 0 0 0.52 0"/>
<feBlend mode="normal" in2="BackgroundImageFix" result="effect1_dropShadow_3056_33576"/>
<feBlend mode="normal" in="SourceGraphic" in2="effect1_dropShadow_3056_33576" result="shape"/>
</filter>
<filter id="filter7_d_3056_33576" x="1211.44" y="294.156" width="6.00781" height="6.00781" filterUnits="userSpaceOnUse" color-interpolation-filters="sRGB">
<feFlood flood-opacity="0" result="BackgroundImageFix"/>
<feColorMatrix in="SourceAlpha" type="matrix" values="0 0 0 0 0 0 0 0 0 0 0 0 0 0 0 0 0 0 127 0" result="hardAlpha"/>
<feOffset/>
<feGaussianBlur stdDeviation="1"/>
<feComposite in2="hardAlpha" operator="out"/>
<feColorMatrix type="matrix" values="0 0 0 0 1 0 0 0 0 1 0 0 0 0 1 0 0 0 0.52 0"/>
<feBlend mode="normal" in2="BackgroundImageFix" result="effect1_dropShadow_3056_33576"/>
<feBlend mode="normal" in="SourceGraphic" in2="effect1_dropShadow_3056_33576" result="shape"/>
</filter>
<filter id="filter8_d_3056_33576" x="1261.69" y="212.652" width="6.00781" height="6.01172" filterUnits="userSpaceOnUse" color-interpolation-filters="sRGB">
<feFlood flood-opacity="0" result="BackgroundImageFix"/>
<feColorMatrix in="SourceAlpha" type="matrix" values="0 0 0 0 0 0 0 0 0 0 0 0 0 0 0 0 0 0 127 0" result="hardAlpha"/>
<feOffset/>
<feGaussianBlur stdDeviation="1"/>
<feComposite in2="hardAlpha" operator="out"/>
<feColorMatrix type="matrix" values="0 0 0 0 1 0 0 0 0 1 0 0 0 0 1 0 0 0 0.52 0"/>
<feBlend mode="normal" in2="BackgroundImageFix" result="effect1_dropShadow_3056_33576"/>
<feBlend mode="normal" in="SourceGraphic" in2="effect1_dropShadow_3056_33576" result="shape"/>
</filter>
<filter id="filter9_d_3056_33576" x="1217.83" y="221.898" width="6.00781" height="6.01172" filterUnits="userSpaceOnUse" color-interpolation-filters="sRGB">
<feFlood flood-opacity="0" result="BackgroundImageFix"/>
<feColorMatrix in="SourceAlpha" type="matrix" values="0 0 0 0 0 0 0 0 0 0 0 0 0 0 0 0 0 0 127 0" result="hardAlpha"/>
<feOffset/>
<feGaussianBlur stdDeviation="1"/>
<feComposite in2="hardAlpha" operator="out"/>
<feColorMatrix type="matrix" values="0 0 0 0 1 0 0 0 0 1 0 0 0 0 1 0 0 0 0.52 0"/>
<feBlend mode="normal" in2="BackgroundImageFix" result="effect1_dropShadow_3056_33576"/>
<feBlend mode="normal" in="SourceGraphic" in2="effect1_dropShadow_3056_33576" result="shape"/>
</filter>
<filter id="filter10_d_3056_33576" x="1133.84" y="46.4844" width="6.00781" height="6.01172" filterUnits="userSpaceOnUse" color-interpolation-filters="sRGB">
<feFlood flood-opacity="0" result="BackgroundImageFix"/>
<feColorMatrix in="SourceAlpha" type="matrix" values="0 0 0 0 0 0 0 0 0 0 0 0 0 0 0 0 0 0 127 0" result="hardAlpha"/>
<feOffset/>
<feGaussianBlur stdDeviation="1"/>
<feComposite in2="hardAlpha" operator="out"/>
<feColorMatrix type="matrix" values="0 0 0 0 1 0 0 0 0 1 0 0 0 0 1 0 0 0 0.52 0"/>
<feBlend mode="normal" in2="BackgroundImageFix" result="effect1_dropShadow_3056_33576"/>
<feBlend mode="normal" in="SourceGraphic" in2="effect1_dropShadow_3056_33576" result="shape"/>
</filter>
<filter id="filter11_f_3056_33576" x="735.406" y="-105.133" width="906.539" height="612.816" filterUnits="userSpaceOnUse" color-interpolation-filters="sRGB">
<feFlood flood-opacity="0" result="BackgroundImageFix"/>
<feBlend mode="normal" in="SourceGraphic" in2="BackgroundImageFix" result="shape"/>
<feGaussianBlur stdDeviation="82" result="effect1_foregroundBlur_3056_33576"/>
</filter>
<filter id="filter12_f_3056_33576" x="420.21" y="-570.442" width="1686.23" height="1358.72" filterUnits="userSpaceOnUse" color-interpolation-filters="sRGB">
<feFlood flood-opacity="0" result="BackgroundImageFix"/>
<feBlend mode="normal" in="SourceGraphic" in2="BackgroundImageFix" result="shape"/>
<feGaussianBlur stdDeviation="220.479" result="effect1_foregroundBlur_3056_33576"/>
</filter>
<filter id="filter13_f_3056_33576" x="326.293" y="19.4998" width="926.368" height="926.371" filterUnits="userSpaceOnUse" color-interpolation-filters="sRGB">
<feFlood flood-opacity="0" result="BackgroundImageFix"/>
<feBlend mode="normal" in="SourceGraphic" in2="BackgroundImageFix" result="shape"/>
<feGaussianBlur stdDeviation="51.3653" result="effect1_foregroundBlur_3056_33576"/>
</filter>
<filter id="filter14_f_3056_33576" x="-37.8733" y="-340.479" width="1225.39" height="828.356" filterUnits="userSpaceOnUse" color-interpolation-filters="sRGB">
<feFlood flood-opacity="0" result="BackgroundImageFix"/>
<feBlend mode="normal" in="SourceGraphic" in2="BackgroundImageFix" result="shape"/>
<feGaussianBlur stdDeviation="110.841" result="effect1_foregroundBlur_3056_33576"/>
</filter>
<filter id="filter15_f_3056_33576" x="464.754" y="306.922" width="75.8516" height="123.711" filterUnits="userSpaceOnUse" color-interpolation-filters="sRGB">
<feFlood flood-opacity="0" result="BackgroundImageFix"/>
<feBlend mode="normal" in="SourceGraphic" in2="BackgroundImageFix" result="shape"/>
<feGaussianBlur stdDeviation="2.5" result="effect1_foregroundBlur_3056_33576"/>
</filter>
<filter id="filter16_f_3056_33576" x="464.758" y="246.352" width="308.371" height="184.281" filterUnits="userSpaceOnUse" color-interpolation-filters="sRGB">
<feFlood flood-opacity="0" result="BackgroundImageFix"/>
<feBlend mode="normal" in="SourceGraphic" in2="BackgroundImageFix" result="shape"/>
<feGaussianBlur stdDeviation="2.5" result="effect1_foregroundBlur_3056_33576"/>
</filter>
<filter id="filter17_f_3056_33576" x="767.391" y="25.5586" width="192.176" height="98.9688" filterUnits="userSpaceOnUse" color-interpolation-filters="sRGB">
<feFlood flood-opacity="0" result="BackgroundImageFix"/>
<feBlend mode="normal" in="SourceGraphic" in2="BackgroundImageFix" result="shape"/>
<feGaussianBlur stdDeviation="2.5" result="effect1_foregroundBlur_3056_33576"/>
</filter>
<filter id="filter18_f_3056_33576" x="1078.1" y="101.836" width="32.7031" height="88.4844" filterUnits="userSpaceOnUse" color-interpolation-filters="sRGB">
<feFlood flood-opacity="0" result="BackgroundImageFix"/>
<feBlend mode="normal" in="SourceGraphic" in2="BackgroundImageFix" result="shape"/>
<feGaussianBlur stdDeviation="2.5" result="effect1_foregroundBlur_3056_33576"/>
</filter>
<filter id="filter19_f_3056_33576" x="1009.95" y="101.836" width="100.855" height="92.3203" filterUnits="userSpaceOnUse" color-interpolation-filters="sRGB">
<feFlood flood-opacity="0" result="BackgroundImageFix"/>
<feBlend mode="normal" in="SourceGraphic" in2="BackgroundImageFix" result="shape"/>
<feGaussianBlur stdDeviation="2.5" result="effect1_foregroundBlur_3056_33576"/>
</filter>
<filter id="filter20_f_3056_33576" x="672.059" y="17.6641" width="204.605" height="176.824" filterUnits="userSpaceOnUse" color-interpolation-filters="sRGB">
<feFlood flood-opacity="0" result="BackgroundImageFix"/>
<feBlend mode="normal" in="SourceGraphic" in2="BackgroundImageFix" result="shape"/>
<feGaussianBlur stdDeviation="2.5" result="effect1_foregroundBlur_3056_33576"/>
</filter>
<filter id="filter21_f_3056_33576" x="672.059" y="17.6641" width="310.641" height="225.898" filterUnits="userSpaceOnUse" color-interpolation-filters="sRGB">
<feFlood flood-opacity="0" result="BackgroundImageFix"/>
<feBlend mode="normal" in="SourceGraphic" in2="BackgroundImageFix" result="shape"/>
<feGaussianBlur stdDeviation="2.5" result="effect1_foregroundBlur_3056_33576"/>
</filter>
<filter id="filter22_d_3056_33576" x="1127.13" y="229.52" width="11.5504" height="11.5504" filterUnits="userSpaceOnUse" color-interpolation-filters="sRGB">
<feFlood flood-opacity="0" result="BackgroundImageFix"/>
<feColorMatrix in="SourceAlpha" type="matrix" values="0 0 0 0 0 0 0 0 0 0 0 0 0 0 0 0 0 0 127 0" result="hardAlpha"/>
<feOffset/>
<feGaussianBlur stdDeviation="1.4667"/>
<feComposite in2="hardAlpha" operator="out"/>
<feColorMatrix type="matrix" values="0 0 0 0 1 0 0 0 0 1 0 0 0 0 1 0 0 0 0.52 0"/>
<feBlend mode="normal" in2="BackgroundImageFix" result="effect1_dropShadow_3056_33576"/>
<feBlend mode="normal" in="SourceGraphic" in2="effect1_dropShadow_3056_33576" result="shape"/>
</filter>
<filter id="filter23_d_3056_33576" x="1008.66" y="222.844" width="17.6836" height="17.6836" filterUnits="userSpaceOnUse" color-interpolation-filters="sRGB">
<feFlood flood-opacity="0" result="BackgroundImageFix"/>
<feColorMatrix in="SourceAlpha" type="matrix" values="0 0 0 0 0 0 0 0 0 0 0 0 0 0 0 0 0 0 127 0" result="hardAlpha"/>
<feOffset/>
<feGaussianBlur stdDeviation="3"/>
<feComposite in2="hardAlpha" operator="out"/>
<feColorMatrix type="matrix" values="0 0 0 0 1 0 0 0 0 1 0 0 0 0 1 0 0 0 0.52 0"/>
<feBlend mode="normal" in2="BackgroundImageFix" result="effect1_dropShadow_3056_33576"/>
<feBlend mode="normal" in="SourceGraphic" in2="effect1_dropShadow_3056_33576" result="shape"/>
</filter>
<filter id="filter24_d_3056_33576" x="1005.51" y="183.148" width="16.1641" height="16.1641" filterUnits="userSpaceOnUse" color-interpolation-filters="sRGB">
<feFlood flood-opacity="0" result="BackgroundImageFix"/>
<feColorMatrix in="SourceAlpha" type="matrix" values="0 0 0 0 0 0 0 0 0 0 0 0 0 0 0 0 0 0 127 0" result="hardAlpha"/>
<feOffset/>
<feGaussianBlur stdDeviation="3"/>
<feComposite in2="hardAlpha" operator="out"/>
<feColorMatrix type="matrix" values="0 0 0 0 1 0 0 0 0 1 0 0 0 0 1 0 0 0 0.52 0"/>
<feBlend mode="normal" in2="BackgroundImageFix" result="effect1_dropShadow_3056_33576"/>
<feBlend mode="normal" in="SourceGraphic" in2="effect1_dropShadow_3056_33576" result="shape"/>
</filter>
<filter id="filter25_d_3056_33576" x="1077.78" y="104.902" width="16.1641" height="16.1641" filterUnits="userSpaceOnUse" color-interpolation-filters="sRGB">
<feFlood flood-opacity="0" result="BackgroundImageFix"/>
<feColorMatrix in="SourceAlpha" type="matrix" values="0 0 0 0 0 0 0 0 0 0 0 0 0 0 0 0 0 0 127 0" result="hardAlpha"/>
<feOffset/>
<feGaussianBlur stdDeviation="3"/>
<feComposite in2="hardAlpha" operator="out"/>
<feColorMatrix type="matrix" values="0 0 0 0 1 0 0 0 0 1 0 0 0 0 1 0 0 0 0.52 0"/>
<feBlend mode="normal" in2="BackgroundImageFix" result="effect1_dropShadow_3056_33576"/>
<feBlend mode="normal" in="SourceGraphic" in2="effect1_dropShadow_3056_33576" result="shape"/>
</filter>
<filter id="filter26_d_3056_33576" x="946.414" y="113.965" width="17.6836" height="17.6836" filterUnits="userSpaceOnUse" color-interpolation-filters="sRGB">
<feFlood flood-opacity="0" result="BackgroundImageFix"/>
<feColorMatrix in="SourceAlpha" type="matrix" values="0 0 0 0 0 0 0 0 0 0 0 0 0 0 0 0 0 0 127 0" result="hardAlpha"/>
<feOffset/>
<feGaussianBlur stdDeviation="3"/>
<feComposite in2="hardAlpha" operator="out"/>
<feColorMatrix type="matrix" values="0 0 0 0 1 0 0 0 0 1 0 0 0 0 1 0 0 0 0.52 0"/>
<feBlend mode="normal" in2="BackgroundImageFix" result="effect1_dropShadow_3056_33576"/>
<feBlend mode="normal" in="SourceGraphic" in2="effect1_dropShadow_3056_33576" result="shape"/>
</filter>
<filter id="filter27_d_3056_33576" x="866.828" y="46.082" width="17.6836" height="17.6836" filterUnits="userSpaceOnUse" color-interpolation-filters="sRGB">
<feFlood flood-opacity="0" result="BackgroundImageFix"/>
<feColorMatrix in="SourceAlpha" type="matrix" values="0 0 0 0 0 0 0 0 0 0 0 0 0 0 0 0 0 0 127 0" result="hardAlpha"/>
<feOffset/>
<feGaussianBlur stdDeviation="3"/>
<feComposite in2="hardAlpha" operator="out"/>
<feColorMatrix type="matrix" values="0 0 0 0 1 0 0 0 0 1 0 0 0 0 1 0 0 0 0.52 0"/>
<feBlend mode="normal" in2="BackgroundImageFix" result="effect1_dropShadow_3056_33576"/>
<feBlend mode="normal" in="SourceGraphic" in2="effect1_dropShadow_3056_33576" result="shape"/>
</filter>
<filter id="filter28_d_3056_33576" x="760.391" y="241.77" width="19.6836" height="19.6836" filterUnits="userSpaceOnUse" color-interpolation-filters="sRGB">
<feFlood flood-opacity="0" result="BackgroundImageFix"/>
<feColorMatrix in="SourceAlpha" type="matrix" values="0 0 0 0 0 0 0 0 0 0 0 0 0 0 0 0 0 0 127 0" result="hardAlpha"/>
<feOffset/>
<feGaussianBlur stdDeviation="3.5"/>
<feComposite in2="hardAlpha" operator="out"/>
<feColorMatrix type="matrix" values="0 0 0 0 1 0 0 0 0 1 0 0 0 0 1 0 0 0 0.52 0"/>
<feBlend mode="normal" in2="BackgroundImageFix" result="effect1_dropShadow_3056_33576"/>
<feBlend mode="normal" in="SourceGraphic" in2="effect1_dropShadow_3056_33576" result="shape"/>
</filter>
<filter id="filter29_f_3056_33576" x="935.391" y="194.582" width="85.625" height="93.6406" filterUnits="userSpaceOnUse" color-interpolation-filters="sRGB">
<feFlood flood-opacity="0" result="BackgroundImageFix"/>
<feBlend mode="normal" in="SourceGraphic" in2="BackgroundImageFix" result="shape"/>
<feGaussianBlur stdDeviation="9" result="effect1_foregroundBlur_3056_33576"/>
</filter>
<filter id="filter30_d_3056_33576" x="528.422" y="300.832" width="19.6836" height="19.6836" filterUnits="userSpaceOnUse" color-interpolation-filters="sRGB">
<feFlood flood-opacity="0" result="BackgroundImageFix"/>
<feColorMatrix in="SourceAlpha" type="matrix" values="0 0 0 0 0 0 0 0 0 0 0 0 0 0 0 0 0 0 127 0" result="hardAlpha"/>
<feOffset/>
<feGaussianBlur stdDeviation="3.5"/>
<feComposite in2="hardAlpha" operator="out"/>
<feColorMatrix type="matrix" values="0 0 0 0 1 0 0 0 0 1 0 0 0 0 1 0 0 0 0.52 0"/>
<feBlend mode="normal" in2="BackgroundImageFix" result="effect1_dropShadow_3056_33576"/>
<feBlend mode="normal" in="SourceGraphic" in2="effect1_dropShadow_3056_33576" result="shape"/>
</filter>
<linearGradient id="paint0_linear_3056_33576" x1="1263.33" y1="-129.484" x2="1263.33" y2="347.316" gradientUnits="userSpaceOnUse">
<stop stop-color="#6F13A4"/>
<stop offset="1" stop-color="#6F13A4" stop-opacity="0"/>
</linearGradient>
<linearGradient id="paint1_linear_3056_33576" x1="606.554" y1="115.87" x2="501.33" y2="177.959" gradientUnits="userSpaceOnUse">
<stop stop-color="#A259FF"/>
<stop offset="1" stop-color="white" stop-opacity="0"/>
</linearGradient>
<linearGradient id="paint2_linear_3056_33576" x1="436.58" y1="-68.2928" x2="131.263" y2="461.019" gradientUnits="userSpaceOnUse">
<stop stop-color="#1C0B39"/>
<stop offset="1" stop-color="#030A0C"/>
</linearGradient>
<radialGradient id="paint3_radial_3056_33576" cx="0" cy="0" r="1" gradientUnits="userSpaceOnUse" gradientTransform="translate(1009.97 261.921) rotate(45.1063) scale(240.032 196.352)">
<stop stop-color="#FBF3FF" stop-opacity="0.99"/>
<stop offset="0.078125" stop-color="#E0A2FD" stop-opacity="0.69"/>
<stop offset="1" stop-color="#8626FF" stop-opacity="0.05"/>
</radialGradient>
<linearGradient id="paint4_linear_3056_33576" x1="747.443" y1="255.306" x2="518.774" y2="262.969" gradientUnits="userSpaceOnUse">
<stop stop-color="white"/>
<stop offset="1" stop-color="#D9D9D9" stop-opacity="0"/>
</linearGradient>
<linearGradient id="paint5_linear_3056_33576" x1="513.203" y1="258.122" x2="448.492" y2="413.598" gradientUnits="userSpaceOnUse">
<stop stop-color="white"/>
<stop offset="1" stop-color="#D9D9D9" stop-opacity="0"/>
</linearGradient>
<linearGradient id="paint6_linear_3056_33576" x1="529.522" y1="312.015" x2="481.956" y2="310.282" gradientUnits="userSpaceOnUse">
<stop stop-color="#EDC6FF"/>
<stop offset="1" stop-color="#D9D9D9" stop-opacity="0"/>
</linearGradient>
<linearGradient id="paint7_linear_3056_33576" x1="744.489" y1="252.559" x2="557.117" y2="195.083" gradientUnits="userSpaceOnUse">
<stop stop-color="#EDC6FF"/>
<stop offset="1" stop-color="#D9D9D9" stop-opacity="0"/>
</linearGradient>
<linearGradient id="paint8_linear_3056_33576" x1="1080.54" y1="241.402" x2="1109.64" y2="307.027" gradientUnits="userSpaceOnUse">
<stop stop-color="white"/>
<stop offset="1" stop-color="#D9D9D9" stop-opacity="0"/>
</linearGradient>
<linearGradient id="paint9_linear_3056_33576" x1="1214.46" y1="274.589" x2="1200.48" y2="433.058" gradientUnits="userSpaceOnUse">
<stop stop-color="white"/>
<stop offset="1" stop-color="#D9D9D9" stop-opacity="0"/>
</linearGradient>
<linearGradient id="paint10_linear_3056_33576" x1="1083.73" y1="292.111" x2="1046.37" y2="384.252" gradientUnits="userSpaceOnUse">
<stop stop-color="white"/>
<stop offset="1" stop-color="#D9D9D9" stop-opacity="0"/>
</linearGradient>
<linearGradient id="paint11_linear_3056_33576" x1="690.461" y1="97.9539" x2="586.31" y2="212.093" gradientUnits="userSpaceOnUse">
<stop stop-color="white"/>
<stop offset="1" stop-color="#D9D9D9" stop-opacity="0"/>
</linearGradient>
<linearGradient id="paint12_linear_3056_33576" x1="730.479" y1="170.964" x2="894.337" y2="259.812" gradientUnits="userSpaceOnUse">
<stop stop-color="#D9D9D9" stop-opacity="0"/>
<stop offset="1" stop-color="white"/>
</linearGradient>
<linearGradient id="paint13_linear_3056_33576" x1="877.616" y1="68.4129" x2="806.021" y2="38.5784" gradientUnits="userSpaceOnUse">
<stop stop-color="#EDC6FF"/>
<stop offset="1" stop-color="#D9D9D9" stop-opacity="0"/>
</linearGradient>
<linearGradient id="paint14_linear_3056_33576" x1="1071.84" y1="134.876" x2="1029.68" y2="143.925" gradientUnits="userSpaceOnUse">
<stop stop-color="#D9D9D9" stop-opacity="0"/>
<stop offset="1" stop-color="white"/>
</linearGradient>
<linearGradient id="paint15_linear_3056_33576" x1="1085.18" y1="167.352" x2="1108.72" y2="138.59" gradientUnits="userSpaceOnUse">
<stop stop-color="#D9D9D9" stop-opacity="0"/>
<stop offset="1" stop-color="white"/>
</linearGradient>
<linearGradient id="paint16_linear_3056_33576" x1="1089.84" y1="107.562" x2="1059.77" y2="155.478" gradientUnits="userSpaceOnUse">
<stop stop-color="#EDC6FF"/>
<stop offset="1" stop-color="#D9D9D9" stop-opacity="0"/>
</linearGradient>
<linearGradient id="paint17_linear_3056_33576" x1="1018.34" y1="186.736" x2="1073.25" y2="182.229" gradientUnits="userSpaceOnUse">
<stop stop-color="#EDC6FF"/>
<stop offset="1" stop-color="#D9D9D9" stop-opacity="0"/>
</linearGradient>
<linearGradient id="paint18_linear_3056_33576" x1="974.172" y1="87.2003" x2="993.863" y2="106.093" gradientUnits="userSpaceOnUse">
<stop stop-color="#D9D9D9" stop-opacity="0"/>
<stop offset="1" stop-color="white"/>
</linearGradient>
<linearGradient id="paint19_linear_3056_33576" x1="821.941" y1="137.86" x2="921.477" y2="106.945" gradientUnits="userSpaceOnUse">
<stop stop-color="#D9D9D9" stop-opacity="0"/>
<stop offset="1" stop-color="white"/>
</linearGradient>
<linearGradient id="paint20_linear_3056_33576" x1="981.01" y1="240.183" x2="803.746" y2="406.796" gradientUnits="userSpaceOnUse">
<stop stop-color="white"/>
<stop offset="1" stop-color="#D9D9D9" stop-opacity="0"/>
</linearGradient>
<linearGradient id="paint21_linear_3056_33576" x1="967.76" y1="211.202" x2="852.134" y2="49.3704" gradientUnits="userSpaceOnUse">
<stop stop-color="white"/>
<stop offset="1" stop-color="#D9D9D9" stop-opacity="0"/>
</linearGradient>
<linearGradient id="paint22_linear_3056_33576" x1="859.593" y1="55.9076" x2="683.408" y2="114.959" gradientUnits="userSpaceOnUse">
<stop stop-color="white"/>
<stop offset="1" stop-color="#D9D9D9" stop-opacity="0"/>
</linearGradient>
<linearGradient id="paint23_linear_3056_33576" x1="783.91" y1="84.062" x2="687.642" y2="75.215" gradientUnits="userSpaceOnUse">
<stop stop-color="#EDC6FF"/>
<stop offset="1" stop-color="#D9D9D9" stop-opacity="0"/>
</linearGradient>
<linearGradient id="paint24_linear_3056_33576" x1="955.642" y1="194.146" x2="852.87" y2="65.5753" gradientUnits="userSpaceOnUse">
<stop stop-color="#EDC6FF"/>
<stop offset="1" stop-color="#D9D9D9" stop-opacity="0"/>
</linearGradient>
<linearGradient id="paint25_linear_3056_33576" x1="1025.36" y1="224.519" x2="1034.97" y2="315.663" gradientUnits="userSpaceOnUse">
<stop stop-color="white"/>
<stop offset="1" stop-color="#D9D9D9" stop-opacity="0"/>
</linearGradient>
<linearGradient id="paint26_linear_3056_33576" x1="968.286" y1="230.231" x2="987.486" y2="250.657" gradientUnits="userSpaceOnUse">
<stop stop-color="#321458"/>
<stop offset="0.627865" stop-color="#1B0D35"/>
</linearGradient>
<radialGradient id="paint27_radial_3056_33576" cx="0" cy="0" r="1" gradientUnits="userSpaceOnUse" gradientTransform="translate(1008.33 186.687) rotate(41.1414) scale(192.994 90.3581)">
<stop stop-color="white"/>
<stop offset="1" stop-color="#8626FF" stop-opacity="0.05"/>
</radialGradient>
<clipPath id="clip0_3056_33576">
<rect width="1368" height="398" fill="white" transform="translate(0.640625 0.925781)"/>
</clipPath>
</defs>
</svg>
