<svg xmlns="http://www.w3.org/2000/svg" width="1080" height="802" fill="none" viewBox="0 0 1080 802"><g clip-path="url(#a)"><path fill="#1c1c1c" d="M0 0h1080v802H0z"/><path stroke="#343434" d="M296.618-11.776V598.79M596.618-11.776V598.79M896.618-11.776V598.79M396.618-11.776V598.79M696.618-11.776V598.79M996.618-11.776V598.79M496.618-11.776V598.79M796.618-11.776V598.79M198.089 596.729h874.991M198.12 485.68h897.96M198.12 374.631h897.96M198.12 265.945h897.96M198.12 154.896h897.96M198.12 43.847h897.96"/><path stroke="#505050" d="M196.894 596.729h899.186M196.894-15.075V597.19"/><path fill="#7e7e7e" d="m230.638 665.831-2.409-2.285-3.395 1.96.775 3.229-1.206.696-2.619-11.383 1.538-.888 8.55 7.959zm-7.324-7.022-.125.072 1.338 5.453 2.841-1.64zm5.656-4.91 3.352 5.806q.408.706.77 1.237.362.53.774.828.404.284.898.275.508-.015 1.187-.408.68-.391.933-.816a1.46 1.46 0 0 0 .224-.923 3.3 3.3 0 0 0-.33-1.084 20 20 0 0 0-.687-1.285l-3.352-5.806 1.164-.672 3.192 5.528q.624 1.081.977 1.949.368.86.347 1.592a2.33 2.33 0 0 1-.456 1.354q-.444.606-1.428 1.175-.984.567-1.746.657-.755.066-1.4-.282-.63-.357-1.206-1.096a19 19 0 0 1-1.184-1.829l-3.192-5.528zm17.029 1.346-.07.04q.036.35.021.708a2.2 2.2 0 0 1-.157.72 2.5 2.5 0 0 1-.426.67 3 3 0 0 1-.787.621q-1.58.912-3.092.085-1.497-.834-2.874-3.218-1.44-2.494-1.338-4.271.1-1.776 1.861-2.792.679-.392 1.281-.5a3 3 0 0 1 1.126-.003q.536.096.995.349.453.237.828.538l-.733 1.033a4.6 4.6 0 0 0-.635-.428 2 2 0 0 0-.676-.275 1.8 1.8 0 0 0-.741-.034q-.39.059-.82.307-1.163.672-1.214 1.865-.036 1.185.804 2.64l.864 1.496q.424.735.886 1.281.456.531.961.831.519.291 1.065.309.552-.005 1.147-.349.942-.545 1.141-1.416.198-.871-.321-1.773l-.576-.997-2.037 1.176-.536-.929 3.117-1.8 2.76 4.781-1.08.624zm11.734-12.483q1.011-.584 1.254-1.316a1.72 1.72 0 0 0-.159-1.46l-.056-.097q-.448-.775-1.171-.876-.71-.108-1.499.348-.776.448-1.061 1.075a3 3 0 0 0-.264 1.335l-1.257-.162a4 4 0 0 1 .115-.824q.096-.442.314-.864a4 4 0 0 1 .61-.833q.39-.41.987-.754.623-.36 1.26-.506a3.1 3.1 0 0 1 1.214-.073q.578.073 1.063.402.5.322.836.904.272.471.335.933.078.454-.025.883-.09.422-.324.815a3.4 3.4 0 0 1-.567.715l.032.056q.45-.15.936-.171a2.6 2.6 0 0 1 .946.101q.458.123.873.456.42.312.732.852.36.624.414 1.294.061.65-.166 1.279-.222.609-.726 1.176a4.8 4.8 0 0 1-1.237.992 5 5 0 0 1-1.217.518 4 4 0 0 1-1.089.129 4.4 4.4 0 0 1-.969-.142 6 6 0 0 1-.851-.322l.489-1.169q.363.179.706.295t.711.143q.374.007.776-.096t.86-.367q1.024-.592 1.293-1.375.283-.792-.221-1.665l-.064-.11q-.496-.86-1.309-1.019-.798-.166-1.865.449l-1.15.664-.576-.997zm14.467-14.598.928-.536 1.482 4.263-1.788 1.032zm17.373 3.641-6.457 3.728-.688-1.191 1.549-4.774a8.6 8.6 0 0 0 .412-1.975q.065-.942-.367-1.691l-.096-.166q-.504-.873-1.233-1.08-.738-.222-1.638.299-.887.511-1.108 1.249-.214.715-.019 1.6l-1.263.212a5 5 0 0 1-.106-1.048q.01-.56.2-1.094.19-.535.605-1.033.428-.506 1.135-.914.72-.416 1.394-.528.688-.12 1.279.038.603.15 1.094.551.504.393.855 1.002.32.555.434 1.135.127.573.093 1.185a6.7 6.7 0 0 1-.175 1.265q-.148.639-.393 1.335l-1.342 3.916 5.251-3.032zm5.121-2.734q-.887.511-1.716.547a3.34 3.34 0 0 1-1.621-.376q-.784-.397-1.514-1.213t-1.418-2.008q-.68-1.178-1.022-2.219-.35-1.053-.302-1.931a3.2 3.2 0 0 1 .493-1.578q.437-.715 1.324-1.227t1.724-.533a3.2 3.2 0 0 1 1.613.362q.784.398 1.522 1.227.73.817 1.41 1.995.688 1.191 1.03 2.232.342 1.04.294 1.917a3.34 3.34 0 0 1-.485 1.592q-.446.7-1.332 1.213m-.584-1.012q.582-.336.87-.798.279-.476.289-1.035a3.5 3.5 0 0 0-.188-1.221 7.6 7.6 0 0 0-.644-1.403l-.912-1.579a7.5 7.5 0 0 0-.884-1.245 3.5 3.5 0 0 0-.972-.787 1.96 1.96 0 0 0-1.033-.254q-.552.005-1.134.341t-.862.811a2.1 2.1 0 0 0-.311 1.03q-.009.56.21 1.227.22.668.635 1.389l.912 1.579q.425.735.893 1.259.46.51.95.781.504.264 1.055.259.544-.018 1.126-.354m-1.832-3.173q-.485.28-.791.198a.77.77 0 0 1-.452-.367l-.176-.305a.77.77 0 0 1-.092-.575q.083-.306.567-.586t.777-.19a.74.74 0 0 1 .466.359l.176.305a.74.74 0 0 1 .078.583q-.068.298-.553.578M323.281 673.757l-5.584-9.672 6.097-3.52.584 1.012-4.933 2.848 1.88 3.256 4.517-2.608.584 1.011-4.517 2.608 2.536 4.393zm8.308-4.797-5.584-9.672 5.959-3.44.584 1.012-4.795 2.768 1.88 3.256 4.628-2.672.584 1.011-4.628 2.672 1.952 3.381 4.795-2.768.584 1.012zm2.697-14.453 3.284-1.896q1.247-.72 2.346-.449 1.098.272 1.754 1.407.504.873.363 1.62a2.6 2.6 0 0 1-.673 1.331l.024.041q.93-.278 1.768-.041.83.222 1.415 1.234.336.582.438 1.207.102.624-.043 1.206a3 3 0 0 1-.487 1.076q-.351.48-.905.8l-3.7 2.136zm8.353 6.724q.804-.464 1.053-1.088t-.183-1.372l-.328-.568q-.423-.735-1.089-.831-.673-.11-1.477.354l-2.189 1.264 2.024 3.506zm-2.77-4.349q.735-.424.966-.983.224-.572-.16-1.238l-.312-.54q-.384-.665-.992-.758-.607-.092-1.342.332l-1.995 1.152 1.84 3.187zm22.839-5.889-6.457 3.728-.688-1.191 1.549-4.774a8.6 8.6 0 0 0 .412-1.975q.065-.942-.367-1.691l-.096-.166q-.504-.873-1.233-1.08-.738-.222-1.638.299-.887.511-1.108 1.249-.215.715-.019 1.6l-1.263.212a5 5 0 0 1-.106-1.048q.01-.56.2-1.094.19-.535.604-1.033.428-.506 1.136-.914.72-.416 1.394-.528.688-.12 1.279.038.603.15 1.094.551.503.393.855 1.002.32.555.434 1.135.127.573.093 1.185a6.7 6.7 0 0 1-.175 1.265q-.148.639-.393 1.335l-1.342 3.916 5.251-3.032zm2.046-1.181-.584-1.011 2.771-1.6-4.504-7.801-.097.056-1.127 3.68-1.103-.342 1.18-3.877 1.815-1.048 5 8.66 2.55-1.472.584 1.011zm13.814-21.647.929-.536 1.481 4.262-1.787 1.032zm17.374 3.641-6.457 3.728-.688-1.192 1.549-4.774a8.7 8.7 0 0 0 .412-1.974q.065-.944-.367-1.691l-.096-.167q-.504-.873-1.233-1.08-.738-.22-1.638.299-.888.513-1.108 1.249-.216.716-.019 1.6l-1.263.212a5 5 0 0 1-.106-1.047 3.4 3.4 0 0 1 .2-1.095q.19-.534.604-1.032.429-.506 1.135-.914.722-.417 1.395-.528a2.9 2.9 0 0 1 1.278.038q.605.15 1.094.55.504.393.856 1.003.32.554.434 1.135.128.573.092 1.184a6.6 6.6 0 0 1-.175 1.265q-.147.64-.392 1.336l-1.342 3.915 5.251-3.032zm2.045-1.181-.584-1.012 2.772-1.6-4.504-7.801-.097.056-1.127 3.681-1.103-.343 1.179-3.877 1.816-1.048 5 8.66 2.549-1.472.584 1.012zM437.007 665.832l-2.409-2.286-3.395 1.96.774 3.23-1.205.696-2.619-11.384 1.538-.888 8.549 7.96zm-7.324-7.023-.125.072 1.338 5.454 2.84-1.64zm5.656-4.91 3.352 5.806q.408.706.77 1.237.362.53.773.828.405.284.899.276.507-.016 1.187-.408.678-.393.933-.816a1.47 1.47 0 0 0 .224-.924 3.3 3.3 0 0 0-.331-1.084 19 19 0 0 0-.686-1.285l-3.352-5.806 1.164-.672 3.192 5.529q.624 1.08.977 1.948.367.86.347 1.592a2.33 2.33 0 0 1-.457 1.354q-.444.607-1.427 1.175t-1.746.657a2.43 2.43 0 0 1-1.4-.282q-.631-.356-1.206-1.096a18 18 0 0 1-1.185-1.828l-3.192-5.529zm17.028 1.346-.069.04q.036.35.021.709a2.2 2.2 0 0 1-.157.719 2.4 2.4 0 0 1-.426.67 3 3 0 0 1-.787.621q-1.58.912-3.092.085-1.498-.834-2.874-3.218-1.44-2.493-1.339-4.271.102-1.776 1.861-2.792.68-.392 1.282-.5a3 3 0 0 1 1.125-.003q.537.097.996.349.451.238.828.538l-.734 1.033a4.6 4.6 0 0 0-.635-.428 2 2 0 0 0-.676-.275 1.8 1.8 0 0 0-.74-.034 2.4 2.4 0 0 0-.82.307q-1.164.672-1.214 1.865-.037 1.185.803 2.64l.864 1.497q.425.734.887 1.28.454.531.96.831a2.3 2.3 0 0 0 1.065.309q.552-.004 1.148-.349.942-.543 1.141-1.416.198-.871-.322-1.773l-.576-.997-2.037 1.176-.536-.929 3.118-1.8 2.76 4.781-1.081.624zm18.65-9.049-6.457 3.728-.688-1.192 1.548-4.773a8.6 8.6 0 0 0 .412-1.975q.066-.942-.367-1.691l-.096-.166q-.504-.873-1.233-1.08-.736-.222-1.638.299-.887.511-1.107 1.249-.216.715-.019 1.6l-1.263.212a4.8 4.8 0 0 1-.106-1.048q.01-.56.199-1.094.19-.535.605-1.033.429-.506 1.135-.914.72-.416 1.395-.528.688-.12 1.278.038.604.15 1.094.551.504.393.856 1.002.32.555.434 1.135.127.573.092 1.185a6.6 6.6 0 0 1-.175 1.265q-.147.639-.393 1.335l-1.342 3.916 5.252-3.032zm7.551-18.031.929-.536 1.481 4.262-1.787 1.032zm17.374 3.641-6.457 3.728-.688-1.192 1.549-4.774a8.7 8.7 0 0 0 .412-1.974q.065-.944-.367-1.692l-.096-.166q-.504-.873-1.233-1.08-.738-.221-1.638.299-.888.512-1.108 1.249-.216.715-.019 1.6l-1.263.212a5 5 0 0 1-.106-1.047q.01-.56.2-1.095t.604-1.033q.429-.506 1.135-.914.722-.416 1.395-.528.689-.12 1.278.038.605.15 1.094.551.504.393.856 1.002.32.554.434 1.136.128.572.092 1.184a6.6 6.6 0 0 1-.175 1.265q-.147.64-.392 1.335l-1.342 3.916 5.251-3.032zm2.045-1.181-.584-1.012 2.772-1.6-4.504-7.801-.097.056-1.127 3.68-1.103-.342 1.179-3.877 1.816-1.048 5 8.66 2.549-1.472.584 1.012zM519.856 660.965l4.136 7.164q.351.61.432 1.228.08.619-.108 1.19a3.1 3.1 0 0 1-.589 1.06q-.422.484-1.046.844-1.108.64-2.157.488-1.056-.167-1.878-1.077l.973-.876q.236.252.5.45.268.178.574.26.313.06.667.003.355-.058.757-.289.79-.456.963-1.148.18-.713-.372-1.669l-3.432-5.944-3.492 2.016-.584-1.012zm13.906 4.867-2.41-2.286-3.394 1.96.774 3.23-1.205.696-2.619-11.384 1.538-.888 8.549 7.96zm-7.325-7.023-.124.072 1.338 5.454 2.84-1.64zm6.499-3.419-.097.056 4.728 8.189-1.053.608-5.584-9.672 1.649-.952 7.978 6.202.097-.056-4.68-8.106 1.053-.608 5.584 9.672-1.649.952zm19.612-7.831q1.011-.584 1.254-1.315a1.72 1.72 0 0 0-.159-1.46l-.056-.097q-.448-.777-1.171-.876-.709-.108-1.499.348-.776.448-1.061 1.074a3 3 0 0 0-.264 1.335l-1.257-.161q.012-.395.116-.824.095-.444.313-.865.232-.43.61-.832a4.4 4.4 0 0 1 .987-.755q.623-.36 1.26-.506a3.1 3.1 0 0 1 1.214-.072q.578.072 1.063.402.5.321.836.903.272.471.336.933.077.454-.026.883-.09.421-.324.816a3.5 3.5 0 0 1-.566.715l.032.055q.448-.149.936-.171.477-.036.945.101.459.123.873.457.42.31.732.852.36.623.415 1.294.06.648-.167 1.279-.222.607-.725 1.176-.49.56-1.238.992a5 5 0 0 1-1.217.517 4 4 0 0 1-1.089.13 4.4 4.4 0 0 1-.969-.143 6 6 0 0 1-.851-.321l.489-1.169q.363.179.706.294.345.115.711.144a3 3 0 0 0 .776-.097q.402-.103.86-.367 1.024-.592 1.293-1.375.283-.792-.221-1.664l-.064-.111q-.496-.86-1.309-1.018-.798-.168-1.865.449l-1.15.664-.576-.998zm8.961 2.253-.584-1.011 2.771-1.6-4.504-7.801-.097.056-1.127 3.68-1.103-.342 1.18-3.877 1.815-1.048 5 8.66 2.549-1.472.584 1.011zm13.814-21.647.929-.536 1.481 4.262-1.787 1.032zm17.374 3.641-6.457 3.728-.688-1.192 1.548-4.774a8.6 8.6 0 0 0 .412-1.974q.066-.944-.366-1.691l-.096-.167q-.504-.873-1.234-1.08-.736-.22-1.638.299-.886.513-1.107 1.249-.216.716-.019 1.6l-1.263.212a5 5 0 0 1-.106-1.047q.01-.56.199-1.095.19-.534.605-1.032.429-.506 1.135-.914.72-.417 1.395-.528a2.9 2.9 0 0 1 1.278.038q.605.15 1.094.55.504.393.856 1.003.32.554.434 1.135.128.573.092 1.184a6.6 6.6 0 0 1-.175 1.265q-.147.64-.393 1.336l-1.342 3.915 5.252-3.032zm2.045-1.181-.584-1.012 2.772-1.6-4.504-7.801-.097.056-1.127 3.681-1.103-.343 1.179-3.877 1.816-1.048 5 8.66 2.549-1.472.584 1.012zM633.995 665.832l-2.41-2.286-3.394 1.96.774 3.23-1.205.696-2.619-11.384 1.538-.888 8.549 7.96zm-7.325-7.023-.124.072 1.338 5.454 2.84-1.64zm5.657-4.91 3.352 5.806q.408.707.769 1.237t.774.828q.405.284.898.276.509-.016 1.187-.408.68-.393.933-.816.268-.432.225-.924a3.3 3.3 0 0 0-.331-1.084 20 20 0 0 0-.686-1.285l-3.352-5.806 1.164-.672 3.192 5.529q.624 1.08.977 1.948.367.86.346 1.592a2.3 2.3 0 0 1-.456 1.354q-.444.608-1.428 1.175-.983.568-1.745.657a2.42 2.42 0 0 1-1.401-.282q-.63-.355-1.205-1.096a18 18 0 0 1-1.185-1.828l-3.192-5.529zm17.028 1.346-.069.04q.035.35.021.709t-.158.719a2.4 2.4 0 0 1-.425.671 3 3 0 0 1-.787.62q-1.58.912-3.092.086-1.498-.836-2.874-3.218-1.44-2.495-1.339-4.271.102-1.778 1.861-2.793.68-.392 1.282-.5a3 3 0 0 1 1.125-.003q.537.097.996.349.452.238.828.538l-.734 1.033a4.5 4.5 0 0 0-.635-.427 2 2 0 0 0-.676-.275 1.8 1.8 0 0 0-.74-.035q-.391.06-.82.308-1.164.671-1.215 1.865-.036 1.184.804 2.639l.864 1.497q.424.735.887 1.28.455.533.96.831a2.3 2.3 0 0 0 1.065.309q.552-.005 1.148-.348.942-.545 1.141-1.416.198-.873-.322-1.773l-.576-.998-2.037 1.176-.536-.928 3.118-1.8 2.76 4.78-1.081.624zm12.387-5.433-.584-1.011 2.771-1.6-4.504-7.801-.097.056-1.127 3.68-1.103-.342 1.18-3.877 1.815-1.048 5 8.66 2.549-1.472.584 1.011zm13.814-21.647.928-.536 1.482 4.262-1.787 1.032zm17.374 3.641-6.457 3.728-.688-1.192 1.548-4.774a8.6 8.6 0 0 0 .412-1.974q.066-.944-.366-1.691l-.096-.167q-.505-.873-1.234-1.08-.736-.22-1.638.299-.887.513-1.107 1.249-.216.716-.019 1.6l-1.263.212a4.8 4.8 0 0 1-.106-1.047q.01-.56.199-1.095.19-.534.605-1.032.429-.506 1.135-.914.72-.417 1.395-.528a2.9 2.9 0 0 1 1.278.038q.604.15 1.094.55.504.393.856 1.003.32.554.434 1.135.128.573.092 1.184a6.6 6.6 0 0 1-.175 1.265q-.147.64-.393 1.336l-1.342 3.915 5.252-3.032zm8.308-4.797-6.457 3.728-.688-1.192 1.549-4.774a8.6 8.6 0 0 0 .412-1.974q.065-.943-.367-1.691l-.096-.167q-.504-.873-1.233-1.08-.738-.22-1.638.299-.887.513-1.108 1.25-.215.715-.019 1.599l-1.263.212a5 5 0 0 1-.106-1.047q.01-.56.2-1.094.19-.535.604-1.033.428-.506 1.136-.914.72-.417 1.394-.528.688-.12 1.279.038.603.15 1.094.55.503.393.855 1.003.32.554.434 1.135.127.573.093 1.184a6.6 6.6 0 0 1-.175 1.265q-.148.64-.393 1.336l-1.342 3.915 5.251-3.032zM723.101 660.965l4.136 7.164q.353.61.432 1.228a2.66 2.66 0 0 1-.108 1.19 3.1 3.1 0 0 1-.588 1.06 4.1 4.1 0 0 1-1.047.844q-1.108.64-2.157.488-1.056-.167-1.878-1.077l.973-.876q.237.252.5.45.269.178.574.26.313.06.667.003.355-.058.757-.289.79-.456.964-1.148.179-.713-.373-1.669l-3.432-5.944-3.492 2.016-.584-1.012zm13.906 4.867-2.409-2.286-3.395 1.96.774 3.23-1.205.696-2.619-11.384 1.538-.888 8.549 7.96zm-7.324-7.023-.125.072 1.338 5.454 2.84-1.64zm6.498-3.419-.097.056 4.728 8.189-1.053.608-5.584-9.672 1.649-.952 7.978 6.202.097-.056-4.68-8.106 1.053-.608 5.584 9.672-1.649.952zm19.612-7.831q1.011-.584 1.254-1.315a1.72 1.72 0 0 0-.159-1.46l-.056-.097q-.448-.777-1.171-.876-.709-.108-1.499.348-.776.448-1.061 1.074a3 3 0 0 0-.264 1.335l-1.257-.161q.012-.395.116-.824.095-.444.313-.865.232-.43.61-.832a4.4 4.4 0 0 1 .987-.755q.624-.36 1.26-.506a3.1 3.1 0 0 1 1.214-.072q.578.072 1.064.402.5.321.835.903.272.471.336.933.077.454-.026.883-.09.421-.324.816a3.5 3.5 0 0 1-.566.715l.032.055q.45-.149.936-.171.477-.036.945.101.459.123.873.457.42.31.732.852.36.623.415 1.294.06.648-.167 1.279-.222.607-.725 1.176a4.9 4.9 0 0 1-1.238.992 5 5 0 0 1-1.216.517q-.565.142-1.089.13a4.4 4.4 0 0 1-.97-.143 6 6 0 0 1-.85-.321l.489-1.169q.361.179.705.294.345.115.712.144.373.006.775-.097t.86-.367q1.025-.592 1.294-1.375.282-.792-.222-1.664l-.064-.111q-.496-.86-1.309-1.018-.798-.168-1.865.449l-1.15.664-.576-.998zm12.036.7q-.887.511-1.716.547a3.34 3.34 0 0 1-1.621-.376q-.784-.397-1.514-1.213t-1.418-2.008q-.68-1.178-1.022-2.219-.35-1.053-.302-1.931a3.2 3.2 0 0 1 .493-1.578q.437-.715 1.324-1.227t1.724-.533a3.2 3.2 0 0 1 1.613.362q.784.397 1.522 1.227.729.817 1.41 1.995.688 1.191 1.03 2.232.342 1.04.294 1.917a3.34 3.34 0 0 1-.485 1.592q-.446.7-1.332 1.213m-.584-1.012q.582-.336.87-.798.279-.476.289-1.035a3.5 3.5 0 0 0-.188-1.221 7.6 7.6 0 0 0-.644-1.403l-.912-1.579a7.5 7.5 0 0 0-.884-1.245 3.5 3.5 0 0 0-.972-.787 1.96 1.96 0 0 0-1.033-.254q-.552.005-1.134.341t-.862.811a2.1 2.1 0 0 0-.311 1.03q-.009.56.21 1.227.22.668.635 1.389l.912 1.579q.425.735.893 1.259.46.51.95.781.503.264 1.055.259.544-.018 1.126-.354m-1.832-3.173q-.485.28-.791.198a.77.77 0 0 1-.452-.367l-.176-.305a.77.77 0 0 1-.092-.575q.082-.306.567-.586t.777-.19a.74.74 0 0 1 .466.359l.176.305a.74.74 0 0 1 .078.583q-.068.298-.553.578m13.155-15.909.929-.536 1.481 4.262-1.787 1.032zm17.374 3.641-6.457 3.728-.688-1.192 1.549-4.774a8.7 8.7 0 0 0 .412-1.974q.065-.944-.367-1.691l-.096-.167q-.504-.873-1.233-1.08-.738-.22-1.638.299-.888.513-1.108 1.249-.216.716-.019 1.6l-1.263.212a5 5 0 0 1-.106-1.047 3.4 3.4 0 0 1 .2-1.095q.19-.534.604-1.032.429-.506 1.135-.914.721-.417 1.395-.528a2.9 2.9 0 0 1 1.278.038q.605.15 1.094.55.504.393.856 1.003.32.554.434 1.135.128.573.092 1.184a6.6 6.6 0 0 1-.175 1.265q-.147.64-.392 1.336l-1.342 3.915 5.251-3.032zm1.393-8.231q1.011-.584 1.254-1.316a1.72 1.72 0 0 0-.159-1.46l-.056-.097q-.448-.775-1.171-.876-.709-.108-1.499.348-.776.448-1.061 1.075a3 3 0 0 0-.264 1.335l-1.257-.162q.013-.395.116-.824.095-.442.314-.864.232-.43.609-.833.391-.41.987-.754.624-.36 1.26-.506a3.1 3.1 0 0 1 1.214-.073q.578.073 1.064.402.5.322.835.904.272.471.336.933.077.454-.026.883-.09.422-.324.815a3.4 3.4 0 0 1-.566.715l.032.056q.45-.15.936-.171.478-.037.945.101.459.123.873.456.42.312.732.852.36.624.415 1.294.06.65-.167 1.279a3.7 3.7 0 0 1-.725 1.176 4.8 4.8 0 0 1-1.238.992q-.637.368-1.216.518-.565.141-1.089.129a4.4 4.4 0 0 1-.969-.142 6 6 0 0 1-.851-.322l.489-1.169q.361.179.706.295.344.116.711.143.372.007.775-.096.402-.103.86-.367 1.025-.592 1.294-1.375.282-.792-.222-1.665l-.064-.11q-.497-.86-1.308-1.019-.8-.166-1.866.449l-1.15.664-.576-.997zM814.792 665.762l4.136 7.164q.352.61.433 1.228a2.7 2.7 0 0 1-.108 1.189 3.1 3.1 0 0 1-.589 1.061q-.423.484-1.046.844-1.108.64-2.157.488-1.056-.167-1.878-1.077l.972-.876q.237.25.5.45.27.178.575.26.312.06.667.003.355-.058.757-.289.789-.456.963-1.148.18-.713-.373-1.669l-3.432-5.945-3.491 2.016-.584-1.011zm3.93-2.269 3.352 5.806q.408.706.77 1.237.362.53.774.828.403.284.898.276.507-.016 1.187-.408.678-.393.933-.816a1.47 1.47 0 0 0 .224-.924 3.3 3.3 0 0 0-.33-1.084 20 20 0 0 0-.687-1.285l-3.352-5.806 1.164-.672 3.192 5.529q.624 1.08.977 1.948.367.86.347 1.592a2.33 2.33 0 0 1-.457 1.354q-.443.607-1.427 1.175t-1.746.657a2.43 2.43 0 0 1-1.4-.282q-.63-.356-1.206-1.096a18 18 0 0 1-1.185-1.828l-3.192-5.529zm13.283 5.227-5.584-9.672 1.164-.672 5 8.66 4.586-2.648.584 1.012zm10.221-5.901-2.192-3.797-6.732-3.947 1.33-.768 2.842 1.722 2.45 1.523.055-.032-.066-2.899-.071-3.322 1.303-.752.053 7.803 2.192 3.797zm13.567-15.26q1.011-.584 1.254-1.315a1.72 1.72 0 0 0-.159-1.46l-.056-.097q-.448-.777-1.171-.876-.709-.108-1.499.348-.776.448-1.061 1.074a3 3 0 0 0-.264 1.335l-1.257-.161q.012-.395.116-.824.095-.444.313-.865.232-.43.61-.832a4.4 4.4 0 0 1 .987-.755q.624-.36 1.26-.506a3.1 3.1 0 0 1 1.214-.072q.578.072 1.064.402.5.321.835.903.272.471.336.933.077.454-.026.883-.09.421-.324.816a3.5 3.5 0 0 1-.566.715l.032.055q.45-.149.936-.171.477-.036.945.101.459.123.873.457.42.31.732.852.36.623.415 1.294.06.648-.167 1.279-.222.607-.725 1.176a4.9 4.9 0 0 1-1.238.992 5 5 0 0 1-1.216.517q-.565.142-1.089.13a4.4 4.4 0 0 1-.97-.143 6 6 0 0 1-.85-.321l.489-1.169q.361.179.705.294.345.115.712.144.373.006.775-.097t.86-.367q1.025-.592 1.294-1.375.282-.792-.222-1.664l-.064-.111q-.496-.86-1.309-1.018-.798-.168-1.865.449l-1.15.664-.576-.998zm8.961 2.253-.584-1.011 2.771-1.6-4.504-7.801-.097.056-1.127 3.68-1.103-.342 1.18-3.877 1.815-1.048 5 8.66 2.55-1.472.584 1.011zm13.814-21.647.929-.536 1.481 4.262-1.787 1.032zm17.374 3.641-6.457 3.728-.688-1.192 1.549-4.774a8.7 8.7 0 0 0 .412-1.974q.065-.944-.367-1.691l-.096-.167q-.504-.873-1.233-1.08-.738-.22-1.638.299-.888.513-1.108 1.249-.216.716-.019 1.6l-1.263.212a5 5 0 0 1-.106-1.047 3.4 3.4 0 0 1 .2-1.095q.19-.534.604-1.032.429-.506 1.135-.914.721-.417 1.395-.528a2.9 2.9 0 0 1 1.278.038q.605.15 1.094.55.504.393.856 1.003.32.554.434 1.135.128.573.092 1.184a6.6 6.6 0 0 1-.175 1.265q-.147.64-.392 1.336l-1.342 3.915 5.251-3.032zm1.393-8.231q1.011-.584 1.254-1.316a1.72 1.72 0 0 0-.159-1.46l-.056-.097q-.448-.775-1.171-.876-.709-.108-1.499.348-.776.448-1.061 1.075a3 3 0 0 0-.264 1.335l-1.257-.162q.013-.395.116-.824.095-.442.314-.864.232-.43.609-.833.391-.41.987-.754.624-.36 1.26-.506a3.1 3.1 0 0 1 1.214-.073q.578.073 1.064.402.5.322.835.904.272.471.336.933.077.454-.026.883-.09.422-.324.815a3.4 3.4 0 0 1-.566.715l.032.056q.45-.15.936-.171.478-.037.945.101.459.123.873.456.42.312.732.852.36.624.415 1.294.06.65-.167 1.279a3.7 3.7 0 0 1-.725 1.176 4.8 4.8 0 0 1-1.238.992q-.637.368-1.216.518-.565.141-1.089.129a4.4 4.4 0 0 1-.969-.142 6 6 0 0 1-.851-.322l.489-1.169q.361.179.706.295.344.116.711.143.372.007.775-.096.402-.103.86-.367 1.025-.592 1.294-1.375.282-.792-.222-1.665l-.064-.11q-.497-.86-1.308-1.019-.8-.166-1.866.449l-1.15.664-.576-.997zM923.101 660.965l4.136 7.164q.353.61.432 1.228a2.66 2.66 0 0 1-.108 1.19 3.1 3.1 0 0 1-.588 1.06 4.1 4.1 0 0 1-1.047.844q-1.108.64-2.157.488-1.056-.167-1.878-1.077l.973-.876q.237.252.5.45.269.178.574.26.313.06.667.003.355-.058.757-.289.79-.456.964-1.148.179-.713-.373-1.669l-3.432-5.944-3.492 2.016-.584-1.012zm13.906 4.867-2.409-2.286-3.395 1.96.774 3.23-1.205.696-2.619-11.384 1.538-.888 8.549 7.96zm-7.324-7.023-.125.072 1.338 5.454 2.84-1.64zm6.498-3.419-.097.056 4.728 8.189-1.053.608-5.584-9.672 1.649-.952 7.978 6.202.097-.056-4.68-8.106 1.053-.608 5.584 9.672-1.649.952zm26.527-4.397-6.457 3.728-.688-1.191 1.549-4.774a8.6 8.6 0 0 0 .412-1.975q.065-.942-.367-1.691l-.096-.166q-.504-.873-1.233-1.08-.738-.222-1.638.299-.887.511-1.108 1.249-.215.715-.019 1.6l-1.263.212a5 5 0 0 1-.106-1.048q.01-.56.2-1.094.19-.535.604-1.033.428-.506 1.136-.914.72-.416 1.394-.528.688-.12 1.279.038.603.15 1.094.551.503.393.855 1.002.32.555.434 1.135.128.573.093 1.185a6.7 6.7 0 0 1-.175 1.265q-.149.639-.393 1.335l-1.342 3.916 5.251-3.032zm4.759-10.913a7.1 7.1 0 0 1 .843 2.229q.226 1.126.169 2.212a9.7 9.7 0 0 1-.336 2.041 8.4 8.4 0 0 1-.646 1.666l-1.496.864q.462-1.023.759-1.916.312-.9.447-1.754a7.7 7.7 0 0 0 .062-1.717 9.5 9.5 0 0 0-.354-1.829l-.085.013a3.8 3.8 0 0 1-.352 1.533q-.331.708-1.231 1.228a3.7 3.7 0 0 1-1.298.472 3.1 3.1 0 0 1-1.259-.067 3.4 3.4 0 0 1-1.131-.585 4 4 0 0 1-.928-1.127 4.2 4.2 0 0 1-.523-1.416 3.3 3.3 0 0 1 .082-1.396q.181-.678.641-1.257a4.3 4.3 0 0 1 1.208-1.012 4 4 0 0 1 1.524-.528 3.06 3.06 0 0 1 1.449.142q.702.223 1.323.788a5.5 5.5 0 0 1 1.132 1.416m-2.398 3.398q.998-.576 1.226-1.428.242-.861-.326-1.844l-.064-.111q-.568-.985-1.434-1.204-.852-.23-1.85.347-.998.576-1.24 1.437-.228.852.34 1.836l.064.111q.568.983 1.42 1.212.866.22 1.864-.356m13.499-15.313.929-.536 1.481 4.262-1.787 1.032zm17.374 3.641-6.457 3.728-.688-1.192 1.549-4.774a8.7 8.7 0 0 0 .412-1.974q.065-.944-.367-1.691l-.096-.167q-.504-.873-1.233-1.08-.738-.22-1.638.299-.888.513-1.108 1.249-.216.716-.019 1.6l-1.263.212a5 5 0 0 1-.106-1.047 3.4 3.4 0 0 1 .2-1.095q.19-.534.604-1.032.429-.506 1.135-.914.721-.417 1.395-.528a2.9 2.9 0 0 1 1.278.038q.605.15 1.094.55.504.393.856 1.003.32.554.434 1.135.128.573.092 1.184a6.6 6.6 0 0 1-.175 1.265q-.147.64-.392 1.336l-1.342 3.915 5.251-3.032zm1.393-8.231q1.011-.584 1.254-1.316a1.72 1.72 0 0 0-.159-1.46l-.056-.097q-.448-.775-1.171-.876-.709-.108-1.499.348-.776.448-1.061 1.075a3 3 0 0 0-.264 1.335l-1.257-.162q.013-.395.116-.824.095-.442.314-.864.232-.43.609-.833.391-.41.987-.754.624-.36 1.26-.506a3.1 3.1 0 0 1 1.214-.073q.578.073 1.064.402.5.322.835.904.272.471.336.933.077.454-.026.883-.09.422-.324.815a3.4 3.4 0 0 1-.566.715l.032.056q.45-.15.936-.171c.321-.024.631.009.941.101.31.082.6.234.88.456.28.208.52.492.73.852.24.416.38.847.41 1.294.04.433-.01.859-.16 1.279-.15.406-.39.798-.73 1.176-.32.374-.74.704-1.24.992q-.631.368-1.212.518-.565.141-1.089.129a4.4 4.4 0 0 1-.969-.142 6 6 0 0 1-.851-.322l.489-1.169q.361.179.706.295.344.116.711.143.372.007.775-.096.402-.103.86-.367 1.02-.592 1.29-1.375c.19-.528.12-1.083-.22-1.665l-.06-.11c-.33-.573-.77-.913-1.31-1.019q-.8-.166-1.866.449l-1.15.664-.576-.997zM169.392 602.987q-1.024 0-1.76-.384a3.34 3.34 0 0 1-1.216-1.136q-.48-.736-.704-1.808t-.224-2.448q0-1.36.224-2.432.224-1.087.704-1.824.48-.736 1.216-1.12.736-.4 1.76-.4t1.76.4q.736.384 1.216 1.12t.704 1.824q.224 1.072.224 2.432 0 1.375-.224 2.448t-.704 1.808-1.216 1.136q-.736.384-1.76.384m0-1.168q.672 0 1.152-.256.48-.272.768-.752.304-.48.448-1.152.144-.688.144-1.536v-1.824q0-.832-.144-1.52a3.5 3.5 0 0 0-.448-1.168 1.96 1.96 0 0 0-.768-.736q-.48-.272-1.152-.272t-1.152.272q-.48.256-.784.736-.288.48-.432 1.168a7.4 7.4 0 0 0-.144 1.52v1.824q0 .848.144 1.536.144.672.432 1.152.304.48.784.752.48.256 1.152.256m0-3.664q-.56 0-.784-.224a.77.77 0 0 1-.208-.544v-.352q0-.32.208-.544.224-.224.784-.224t.768.224a.74.74 0 0 1 .224.544v.352a.74.74 0 0 1-.224.544q-.208.224-.768.224M128.768 492.927h-7.456v-1.376l3.728-3.36q.816-.736 1.344-1.504.528-.784.528-1.648v-.192q0-1.008-.528-1.552-.528-.56-1.568-.56-1.025 0-1.584.528-.544.512-.816 1.376l-1.2-.448q.159-.495.432-.96a3.4 3.4 0 0 1 .72-.848 3.4 3.4 0 0 1 1.04-.592q.624-.224 1.44-.224.831 0 1.472.24.656.24 1.088.672.447.433.672 1.024.24.593.24 1.296 0 .64-.192 1.2a4.3 4.3 0 0 1-.512 1.072 6.6 6.6 0 0 1-.784 1.008q-.449.48-1.008.96l-3.12 2.72h6.064zm5.801.192q-1.023 0-1.76-.384a3.34 3.34 0 0 1-1.216-1.136q-.48-.735-.704-1.808-.224-1.071-.224-2.448 0-1.36.224-2.432.224-1.088.704-1.824t1.216-1.12q.737-.4 1.76-.4 1.025 0 1.76.4.736.385 1.216 1.12t.704 1.824q.225 1.073.224 2.432 0 1.377-.224 2.448-.224 1.073-.704 1.808-.48.737-1.216 1.136-.735.384-1.76.384m0-1.168q.672 0 1.152-.256.48-.272.768-.752.304-.48.448-1.152.144-.687.144-1.536v-1.824a7.4 7.4 0 0 0-.144-1.52 3.5 3.5 0 0 0-.448-1.168 1.96 1.96 0 0 0-.768-.736q-.48-.272-1.152-.272t-1.152.272q-.48.256-.784.736-.288.48-.432 1.168a7.4 7.4 0 0 0-.144 1.52v1.824q0 .849.144 1.536.144.672.432 1.152.304.48.784.752.48.256 1.152.256m0-3.664q-.56 0-.784-.224a.77.77 0 0 1-.208-.544v-.352q0-.32.208-.544.225-.224.784-.224.561 0 .768.224a.74.74 0 0 1 .224.544v.352a.74.74 0 0 1-.224.544q-.207.224-.768.224m9.594 4.832q-1.024 0-1.76-.384a3.34 3.34 0 0 1-1.216-1.136q-.48-.735-.704-1.808-.224-1.071-.224-2.448 0-1.36.224-2.432.224-1.088.704-1.824t1.216-1.12q.736-.4 1.76-.4t1.76.4q.736.385 1.216 1.12t.704 1.824q.224 1.073.224 2.432 0 1.377-.224 2.448-.224 1.073-.704 1.808-.48.737-1.216 1.136-.736.384-1.76.384m0-1.168q.672 0 1.152-.256.48-.272.768-.752.304-.48.448-1.152.144-.687.144-1.536v-1.824a7.4 7.4 0 0 0-.144-1.52 3.5 3.5 0 0 0-.448-1.168 1.96 1.96 0 0 0-.768-.736q-.48-.272-1.152-.272t-1.152.272q-.48.256-.784.736-.288.48-.432 1.168a7.4 7.4 0 0 0-.144 1.52v1.824q0 .849.144 1.536.144.672.432 1.152.304.48.784.752.48.256 1.152.256m0-3.664q-.56 0-.784-.224a.77.77 0 0 1-.208-.544v-.352a.77.77 0 0 1 .208-.544q.224-.224.784-.224t.768.224q.224.225.224.544v.352a.74.74 0 0 1-.224.544q-.209.224-.768.224m8.906 2.464h2.064l-1.84 4.432h-1.072zm10.282 2.368q-1.025 0-1.76-.384a3.34 3.34 0 0 1-1.216-1.136q-.48-.735-.704-1.808-.224-1.071-.224-2.448 0-1.36.224-2.432.224-1.088.704-1.824t1.216-1.12q.735-.4 1.76-.4 1.023 0 1.76.4.736.385 1.216 1.12t.704 1.824q.224 1.073.224 2.432 0 1.377-.224 2.448-.224 1.073-.704 1.808-.48.737-1.216 1.136-.737.384-1.76.384m0-1.168q.672 0 1.152-.256.48-.272.768-.752.304-.48.448-1.152.144-.687.144-1.536v-1.824a7.4 7.4 0 0 0-.144-1.52 3.5 3.5 0 0 0-.448-1.168 1.96 1.96 0 0 0-.768-.736q-.48-.272-1.152-.272t-1.152.272a2.07 2.07 0 0 0-.784.736q-.288.48-.432 1.168a7.4 7.4 0 0 0-.144 1.52v1.824q0 .849.144 1.536.144.672.432 1.152.304.48.784.752.48.256 1.152.256m0-3.664q-.56 0-.784-.224a.77.77 0 0 1-.208-.544v-.352a.77.77 0 0 1 .208-.544q.223-.224.784-.224.56 0 .768.224.224.225.224.544v.352a.74.74 0 0 1-.224.544q-.209.224-.768.224m9.593 4.832q-1.023 0-1.76-.384a3.34 3.34 0 0 1-1.216-1.136q-.48-.735-.704-1.808-.224-1.071-.224-2.448 0-1.36.224-2.432.224-1.088.704-1.824t1.216-1.12q.737-.4 1.76-.4 1.025 0 1.76.4.736.385 1.216 1.12t.704 1.824q.225 1.073.224 2.432 0 1.377-.224 2.448-.224 1.073-.704 1.808-.48.737-1.216 1.136-.735.384-1.76.384m0-1.168q.672 0 1.152-.256.48-.272.768-.752.304-.48.448-1.152.144-.687.144-1.536v-1.824a7.4 7.4 0 0 0-.144-1.52 3.5 3.5 0 0 0-.448-1.168 1.96 1.96 0 0 0-.768-.736q-.48-.272-1.152-.272t-1.152.272q-.48.256-.784.736-.288.48-.432 1.168a7.4 7.4 0 0 0-.144 1.52v1.824q0 .849.144 1.536.144.672.432 1.152.304.48.784.752.48.256 1.152.256m0-3.664q-.56 0-.784-.224a.77.77 0 0 1-.208-.544v-.352q0-.32.208-.544.225-.224.784-.224.561 0 .768.224a.74.74 0 0 1 .224.544v.352a.74.74 0 0 1-.224.544q-.207.224-.768.224m9.594 4.832q-1.024 0-1.76-.384a3.34 3.34 0 0 1-1.216-1.136q-.48-.735-.704-1.808-.224-1.071-.224-2.448 0-1.36.224-2.432.224-1.088.704-1.824t1.216-1.12q.736-.4 1.76-.4t1.76.4q.736.385 1.216 1.12t.704 1.824q.224 1.073.224 2.432 0 1.377-.224 2.448-.224 1.073-.704 1.808-.48.737-1.216 1.136-.736.384-1.76.384m0-1.168q.672 0 1.152-.256.48-.272.768-.752.304-.48.448-1.152.144-.687.144-1.536v-1.824a7.4 7.4 0 0 0-.144-1.52 3.5 3.5 0 0 0-.448-1.168 1.96 1.96 0 0 0-.768-.736q-.48-.272-1.152-.272t-1.152.272q-.48.256-.784.736-.288.48-.432 1.168a7.4 7.4 0 0 0-.144 1.52v1.824q0 .849.144 1.536.144.672.432 1.152.304.48.784.752.48.256 1.152.256m0-3.664q-.56 0-.784-.224a.77.77 0 0 1-.208-.544v-.352a.77.77 0 0 1 .208-.544q.224-.224.784-.224t.768.224q.224.225.224.544v.352a.74.74 0 0 1-.224.544q-.209.224-.768.224M126.224 384.241v-2.192h-5.504v-1.184l4.832-7.792h1.952v7.872h1.664v1.104h-1.664v2.192zm-4.304-3.296h4.304v-6.832h-.064zm12.649 3.488q-1.023 0-1.76-.384a3.34 3.34 0 0 1-1.216-1.136q-.48-.735-.704-1.808-.224-1.071-.224-2.448 0-1.36.224-2.432.224-1.088.704-1.824t1.216-1.12q.737-.4 1.76-.4 1.025 0 1.76.4.736.384 1.216 1.12t.704 1.824q.225 1.073.224 2.432 0 1.377-.224 2.448-.224 1.073-.704 1.808-.48.737-1.216 1.136-.735.384-1.76.384m0-1.168q.672 0 1.152-.256.48-.272.768-.752.304-.48.448-1.152.144-.687.144-1.536v-1.824a7.4 7.4 0 0 0-.144-1.52 3.5 3.5 0 0 0-.448-1.168 1.96 1.96 0 0 0-.768-.736q-.48-.272-1.152-.272t-1.152.272q-.48.256-.784.736-.288.48-.432 1.168a7.4 7.4 0 0 0-.144 1.52v1.824q0 .849.144 1.536.144.672.432 1.152.304.48.784.752.48.256 1.152.256m0-3.664q-.56 0-.784-.224a.77.77 0 0 1-.208-.544v-.352q0-.32.208-.544.225-.224.784-.224.561 0 .768.224a.74.74 0 0 1 .224.544v.352a.74.74 0 0 1-.224.544q-.207.224-.768.224m9.594 4.832q-1.024 0-1.76-.384a3.34 3.34 0 0 1-1.216-1.136q-.48-.735-.704-1.808-.224-1.071-.224-2.448 0-1.36.224-2.432.224-1.088.704-1.824t1.216-1.12q.736-.4 1.76-.4t1.76.4q.736.384 1.216 1.12t.704 1.824q.224 1.073.224 2.432 0 1.377-.224 2.448-.224 1.073-.704 1.808-.48.737-1.216 1.136-.736.384-1.76.384m0-1.168q.672 0 1.152-.256.48-.272.768-.752.304-.48.448-1.152.144-.687.144-1.536v-1.824a7.4 7.4 0 0 0-.144-1.52 3.5 3.5 0 0 0-.448-1.168 1.96 1.96 0 0 0-.768-.736q-.48-.272-1.152-.272t-1.152.272q-.48.256-.784.736-.288.48-.432 1.168a7.4 7.4 0 0 0-.144 1.52v1.824q0 .849.144 1.536.144.672.432 1.152.304.48.784.752.48.256 1.152.256m0-3.664q-.56 0-.784-.224a.77.77 0 0 1-.208-.544v-.352a.77.77 0 0 1 .208-.544q.224-.224.784-.224t.768.224q.224.225.224.544v.352a.74.74 0 0 1-.224.544q-.209.224-.768.224m8.906 2.464h2.064l-1.84 4.432h-1.072zm10.282 2.368q-1.025 0-1.76-.384a3.34 3.34 0 0 1-1.216-1.136q-.48-.735-.704-1.808-.224-1.071-.224-2.448 0-1.36.224-2.432.224-1.088.704-1.824t1.216-1.12q.735-.4 1.76-.4 1.023 0 1.76.4.736.384 1.216 1.12t.704 1.824q.224 1.073.224 2.432 0 1.377-.224 2.448-.224 1.073-.704 1.808-.48.737-1.216 1.136-.737.384-1.76.384m0-1.168q.672 0 1.152-.256.48-.272.768-.752.304-.48.448-1.152.144-.687.144-1.536v-1.824a7.4 7.4 0 0 0-.144-1.52 3.5 3.5 0 0 0-.448-1.168 1.96 1.96 0 0 0-.768-.736q-.48-.272-1.152-.272t-1.152.272a2.07 2.07 0 0 0-.784.736q-.288.48-.432 1.168a7.4 7.4 0 0 0-.144 1.52v1.824q0 .849.144 1.536.144.672.432 1.152.304.48.784.752.48.256 1.152.256m0-3.664q-.56 0-.784-.224a.77.77 0 0 1-.208-.544v-.352a.77.77 0 0 1 .208-.544q.223-.224.784-.224.56 0 .768.224.224.225.224.544v.352a.74.74 0 0 1-.224.544q-.209.224-.768.224m9.593 4.832q-1.023 0-1.76-.384a3.34 3.34 0 0 1-1.216-1.136q-.48-.735-.704-1.808-.224-1.071-.224-2.448 0-1.36.224-2.432.224-1.088.704-1.824t1.216-1.12q.737-.4 1.76-.4 1.025 0 1.76.4.736.384 1.216 1.12t.704 1.824q.225 1.073.224 2.432 0 1.377-.224 2.448-.224 1.073-.704 1.808-.48.737-1.216 1.136-.735.384-1.76.384m0-1.168q.672 0 1.152-.256.48-.272.768-.752.304-.48.448-1.152.144-.687.144-1.536v-1.824a7.4 7.4 0 0 0-.144-1.52 3.5 3.5 0 0 0-.448-1.168 1.96 1.96 0 0 0-.768-.736q-.48-.272-1.152-.272t-1.152.272q-.48.256-.784.736-.288.48-.432 1.168a7.4 7.4 0 0 0-.144 1.52v1.824q0 .849.144 1.536.144.672.432 1.152.304.48.784.752.48.256 1.152.256m0-3.664q-.56 0-.784-.224a.77.77 0 0 1-.208-.544v-.352q0-.32.208-.544.225-.224.784-.224.561 0 .768.224a.74.74 0 0 1 .224.544v.352a.74.74 0 0 1-.224.544q-.207.224-.768.224m9.594 4.832q-1.024 0-1.76-.384a3.34 3.34 0 0 1-1.216-1.136q-.48-.735-.704-1.808-.224-1.071-.224-2.448 0-1.36.224-2.432.224-1.088.704-1.824t1.216-1.12q.736-.4 1.76-.4t1.76.4q.736.384 1.216 1.12t.704 1.824q.224 1.073.224 2.432 0 1.377-.224 2.448-.224 1.073-.704 1.808-.48.737-1.216 1.136-.736.384-1.76.384m0-1.168q.672 0 1.152-.256.48-.272.768-.752.304-.48.448-1.152.144-.687.144-1.536v-1.824a7.4 7.4 0 0 0-.144-1.52 3.5 3.5 0 0 0-.448-1.168 1.96 1.96 0 0 0-.768-.736q-.48-.272-1.152-.272t-1.152.272q-.48.256-.784.736-.288.48-.432 1.168a7.4 7.4 0 0 0-.144 1.52v1.824q0 .849.144 1.536.144.672.432 1.152.304.48.784.752.48.256 1.152.256m0-3.664q-.56 0-.784-.224a.77.77 0 0 1-.208-.544v-.352a.77.77 0 0 1 .208-.544q.224-.224.784-.224t.768.224q.224.225.224.544v.352a.74.74 0 0 1-.224.544q-.209.224-.768.224M124.992 273.384a4.2 4.2 0 0 1-1.584-.288 3.4 3.4 0 0 1-1.2-.848 4.1 4.1 0 0 1-.752-1.36 5.9 5.9 0 0 1-.256-1.792q0-1.248.368-2.336a9.4 9.4 0 0 1 .96-2 9 9 0 0 1 1.312-1.6q.72-.704 1.408-1.136h1.728q-.912.656-1.632 1.28-.705.625-1.248 1.312a7 7 0 0 0-.912 1.456 9 9 0 0 0-.608 1.744l.08.032a3.5 3.5 0 0 1 1.056-1.136q.655-.464 1.696-.464.735 0 1.344.24.608.24 1.056.688.448.449.688 1.088.255.64.256 1.424a4.1 4.1 0 0 1-.272 1.504 3.5 3.5 0 0 1-.768 1.168 3.4 3.4 0 0 1-1.184.752 4.1 4.1 0 0 1-1.536.272m-.016-1.136q1.152 0 1.776-.624.64-.624.64-1.76v-.128q0-1.136-.64-1.76-.624-.624-1.776-.624t-1.792.624q-.624.624-.624 1.76v.128q0 1.137.624 1.76.64.624 1.792.624m9.593 1.136q-1.023 0-1.76-.384a3.34 3.34 0 0 1-1.216-1.136q-.48-.735-.704-1.808-.224-1.071-.224-2.448 0-1.36.224-2.432.224-1.088.704-1.824t1.216-1.12q.737-.4 1.76-.4 1.025 0 1.76.4.736.384 1.216 1.12t.704 1.824q.225 1.073.224 2.432 0 1.377-.224 2.448-.224 1.073-.704 1.808-.48.737-1.216 1.136-.735.384-1.76.384m0-1.168q.672 0 1.152-.256.48-.272.768-.752.304-.48.448-1.152.144-.687.144-1.536v-1.824a7.4 7.4 0 0 0-.144-1.52 3.5 3.5 0 0 0-.448-1.168 1.96 1.96 0 0 0-.768-.736q-.48-.272-1.152-.272t-1.152.272q-.48.256-.784.736-.288.48-.432 1.168a7.4 7.4 0 0 0-.144 1.52v1.824q0 .849.144 1.536.144.672.432 1.152.304.48.784.752.48.256 1.152.256m0-3.664q-.56 0-.784-.224a.77.77 0 0 1-.208-.544v-.352q0-.32.208-.544.225-.224.784-.224.561 0 .768.224a.74.74 0 0 1 .224.544v.352a.74.74 0 0 1-.224.544q-.207.225-.768.224m9.594 4.832q-1.024 0-1.76-.384a3.34 3.34 0 0 1-1.216-1.136q-.48-.735-.704-1.808-.224-1.071-.224-2.448 0-1.36.224-2.432.224-1.088.704-1.824t1.216-1.12q.736-.4 1.76-.4t1.76.4q.736.384 1.216 1.12t.704 1.824q.224 1.073.224 2.432 0 1.377-.224 2.448-.224 1.073-.704 1.808-.48.737-1.216 1.136-.736.384-1.76.384m0-1.168q.672 0 1.152-.256.48-.272.768-.752.304-.48.448-1.152.144-.687.144-1.536v-1.824a7.4 7.4 0 0 0-.144-1.52 3.5 3.5 0 0 0-.448-1.168 1.96 1.96 0 0 0-.768-.736q-.48-.272-1.152-.272t-1.152.272q-.48.256-.784.736-.288.48-.432 1.168a7.4 7.4 0 0 0-.144 1.52v1.824q0 .849.144 1.536.144.672.432 1.152.304.48.784.752.48.256 1.152.256m0-3.664q-.56 0-.784-.224a.77.77 0 0 1-.208-.544v-.352a.77.77 0 0 1 .208-.544q.224-.224.784-.224t.768.224q.224.225.224.544v.352a.74.74 0 0 1-.224.544q-.209.225-.768.224m8.906 2.464h2.064l-1.84 4.432h-1.072zm10.282 2.368q-1.025 0-1.76-.384a3.34 3.34 0 0 1-1.216-1.136q-.48-.735-.704-1.808-.224-1.071-.224-2.448 0-1.36.224-2.432.224-1.088.704-1.824t1.216-1.12q.735-.4 1.76-.4 1.023 0 1.76.4.736.384 1.216 1.12t.704 1.824q.224 1.073.224 2.432 0 1.377-.224 2.448-.224 1.073-.704 1.808-.48.737-1.216 1.136-.737.384-1.76.384m0-1.168q.672 0 1.152-.256.48-.272.768-.752.304-.48.448-1.152.144-.687.144-1.536v-1.824a7.4 7.4 0 0 0-.144-1.52 3.5 3.5 0 0 0-.448-1.168 1.96 1.96 0 0 0-.768-.736q-.48-.272-1.152-.272t-1.152.272a2.07 2.07 0 0 0-.784.736q-.288.48-.432 1.168a7.4 7.4 0 0 0-.144 1.52v1.824q0 .849.144 1.536.144.672.432 1.152.304.48.784.752.48.256 1.152.256m0-3.664q-.56 0-.784-.224a.77.77 0 0 1-.208-.544v-.352a.77.77 0 0 1 .208-.544q.223-.224.784-.224.56 0 .768.224.224.225.224.544v.352a.74.74 0 0 1-.224.544q-.209.225-.768.224m9.593 4.832q-1.023 0-1.76-.384a3.34 3.34 0 0 1-1.216-1.136q-.48-.735-.704-1.808-.224-1.071-.224-2.448 0-1.36.224-2.432.224-1.088.704-1.824t1.216-1.12q.737-.4 1.76-.4 1.025 0 1.76.4.736.384 1.216 1.12t.704 1.824q.225 1.073.224 2.432 0 1.377-.224 2.448-.224 1.073-.704 1.808-.48.737-1.216 1.136-.735.384-1.76.384m0-1.168q.672 0 1.152-.256.48-.272.768-.752.304-.48.448-1.152.144-.687.144-1.536v-1.824a7.4 7.4 0 0 0-.144-1.52 3.5 3.5 0 0 0-.448-1.168 1.96 1.96 0 0 0-.768-.736q-.48-.272-1.152-.272t-1.152.272q-.48.256-.784.736-.288.48-.432 1.168a7.4 7.4 0 0 0-.144 1.52v1.824q0 .849.144 1.536.144.672.432 1.152.304.48.784.752.48.256 1.152.256m0-3.664q-.56 0-.784-.224a.77.77 0 0 1-.208-.544v-.352q0-.32.208-.544.225-.224.784-.224.561 0 .768.224a.74.74 0 0 1 .224.544v.352a.74.74 0 0 1-.224.544q-.207.225-.768.224m9.594 4.832q-1.024 0-1.76-.384a3.34 3.34 0 0 1-1.216-1.136q-.48-.735-.704-1.808-.224-1.071-.224-2.448 0-1.36.224-2.432.224-1.088.704-1.824t1.216-1.12q.736-.4 1.76-.4t1.76.4q.736.384 1.216 1.12t.704 1.824q.224 1.073.224 2.432 0 1.377-.224 2.448-.224 1.073-.704 1.808-.48.737-1.216 1.136-.736.384-1.76.384m0-1.168q.672 0 1.152-.256.48-.272.768-.752.304-.48.448-1.152.144-.687.144-1.536v-1.824a7.4 7.4 0 0 0-.144-1.52 3.5 3.5 0 0 0-.448-1.168 1.96 1.96 0 0 0-.768-.736q-.48-.272-1.152-.272t-1.152.272q-.48.256-.784.736-.288.48-.432 1.168a7.4 7.4 0 0 0-.144 1.52v1.824q0 .849.144 1.536.144.672.432 1.152.304.48.784.752.48.256 1.152.256m0-3.664q-.56 0-.784-.224a.77.77 0 0 1-.208-.544v-.352a.77.77 0 0 1 .208-.544q.224-.224.784-.224t.768.224q.224.225.224.544v.352a.74.74 0 0 1-.224.544q-.209.225-.768.224M124.976 162.335q-.977 0-1.712-.24-.737-.255-1.232-.688a2.9 2.9 0 0 1-.736-1.024 3.4 3.4 0 0 1-.24-1.28q0-1.152.624-1.824t1.648-.944v-.128q-.897-.303-1.424-.976-.513-.687-.512-1.648 0-1.28.944-2.032.943-.768 2.64-.768 1.695 0 2.64.768.944.753.944 2.032 0 .96-.528 1.648-.513.673-1.408.976v.128q1.024.273 1.648.944.624.672.624 1.824 0 .689-.256 1.28-.24.592-.736 1.024a3.7 3.7 0 0 1-1.232.688q-.72.24-1.696.24m0-1.136q1.184 0 1.856-.528t.672-1.488v-.352q0-.96-.672-1.488-.657-.528-1.856-.528t-1.872.528q-.656.528-.656 1.488v.352q0 .96.672 1.488.671.528 1.856.528m0-5.472q1.087 0 1.648-.464.576-.464.576-1.328v-.224q0-.863-.592-1.328-.576-.464-1.632-.464t-1.648.464q-.576.465-.576 1.328v.224q0 .864.56 1.328.575.465 1.664.464m9.593 6.608q-1.023 0-1.76-.384a3.34 3.34 0 0 1-1.216-1.136q-.48-.735-.704-1.808-.224-1.071-.224-2.448 0-1.36.224-2.432.224-1.087.704-1.824.48-.736 1.216-1.12.737-.4 1.76-.4 1.025 0 1.76.4.736.385 1.216 1.12.48.737.704 1.824.225 1.073.224 2.432 0 1.377-.224 2.448-.224 1.073-.704 1.808-.48.737-1.216 1.136-.735.384-1.76.384m0-1.168q.672 0 1.152-.256.48-.272.768-.752.304-.48.448-1.152.144-.687.144-1.536v-1.824a7.4 7.4 0 0 0-.144-1.52 3.5 3.5 0 0 0-.448-1.168 1.96 1.96 0 0 0-.768-.736q-.48-.272-1.152-.272t-1.152.272q-.48.256-.784.736-.288.48-.432 1.168a7.4 7.4 0 0 0-.144 1.52v1.824q0 .849.144 1.536.144.672.432 1.152.304.48.784.752.48.256 1.152.256m0-3.664q-.56 0-.784-.224a.77.77 0 0 1-.208-.544v-.352q0-.32.208-.544.225-.224.784-.224.561 0 .768.224a.74.74 0 0 1 .224.544v.352a.74.74 0 0 1-.224.544q-.207.225-.768.224m9.594 4.832q-1.024 0-1.76-.384a3.34 3.34 0 0 1-1.216-1.136q-.48-.735-.704-1.808-.224-1.071-.224-2.448 0-1.36.224-2.432.224-1.087.704-1.824.48-.736 1.216-1.12.736-.4 1.76-.4t1.76.4q.736.385 1.216 1.12.48.737.704 1.824.224 1.073.224 2.432 0 1.377-.224 2.448-.224 1.073-.704 1.808-.48.737-1.216 1.136-.736.384-1.76.384m0-1.168q.672 0 1.152-.256.48-.272.768-.752.304-.48.448-1.152.144-.687.144-1.536v-1.824a7.4 7.4 0 0 0-.144-1.52 3.5 3.5 0 0 0-.448-1.168 1.96 1.96 0 0 0-.768-.736q-.48-.272-1.152-.272t-1.152.272q-.48.256-.784.736-.288.48-.432 1.168a7.4 7.4 0 0 0-.144 1.52v1.824q0 .849.144 1.536.144.672.432 1.152.304.48.784.752.48.256 1.152.256m0-3.664q-.56 0-.784-.224a.77.77 0 0 1-.208-.544v-.352a.77.77 0 0 1 .208-.544q.224-.224.784-.224t.768.224q.224.225.224.544v.352a.74.74 0 0 1-.224.544q-.209.225-.768.224m8.906 2.464h2.064l-1.84 4.432h-1.072zm10.282 2.368q-1.025 0-1.76-.384a3.34 3.34 0 0 1-1.216-1.136q-.48-.735-.704-1.808-.224-1.071-.224-2.448 0-1.36.224-2.432.224-1.087.704-1.824.48-.736 1.216-1.12.735-.4 1.76-.4 1.023 0 1.76.4.736.385 1.216 1.12.48.737.704 1.824.224 1.073.224 2.432 0 1.377-.224 2.448-.224 1.073-.704 1.808-.48.737-1.216 1.136-.737.384-1.76.384m0-1.168q.672 0 1.152-.256.48-.272.768-.752.304-.48.448-1.152.144-.687.144-1.536v-1.824a7.4 7.4 0 0 0-.144-1.52 3.5 3.5 0 0 0-.448-1.168 1.96 1.96 0 0 0-.768-.736q-.48-.272-1.152-.272t-1.152.272a2.07 2.07 0 0 0-.784.736q-.288.48-.432 1.168a7.4 7.4 0 0 0-.144 1.52v1.824q0 .849.144 1.536.144.672.432 1.152.304.48.784.752.48.256 1.152.256m0-3.664q-.56 0-.784-.224a.77.77 0 0 1-.208-.544v-.352a.77.77 0 0 1 .208-.544q.223-.224.784-.224.56 0 .768.224.224.225.224.544v.352a.74.74 0 0 1-.224.544q-.209.225-.768.224m9.593 4.832q-1.023 0-1.76-.384a3.34 3.34 0 0 1-1.216-1.136q-.48-.735-.704-1.808-.224-1.071-.224-2.448 0-1.36.224-2.432.224-1.087.704-1.824.48-.736 1.216-1.12.737-.4 1.76-.4 1.025 0 1.76.4.736.385 1.216 1.12.48.737.704 1.824.225 1.073.224 2.432 0 1.377-.224 2.448-.224 1.073-.704 1.808-.48.737-1.216 1.136-.735.384-1.76.384m0-1.168q.672 0 1.152-.256.48-.272.768-.752.304-.48.448-1.152.144-.687.144-1.536v-1.824a7.4 7.4 0 0 0-.144-1.52 3.5 3.5 0 0 0-.448-1.168 1.96 1.96 0 0 0-.768-.736q-.48-.272-1.152-.272t-1.152.272q-.48.256-.784.736-.288.48-.432 1.168a7.4 7.4 0 0 0-.144 1.52v1.824q0 .849.144 1.536.144.672.432 1.152.304.48.784.752.48.256 1.152.256m0-3.664q-.56 0-.784-.224a.77.77 0 0 1-.208-.544v-.352q0-.32.208-.544.225-.224.784-.224.561 0 .768.224a.74.74 0 0 1 .224.544v.352a.74.74 0 0 1-.224.544q-.207.225-.768.224m9.594 4.832q-1.024 0-1.76-.384a3.34 3.34 0 0 1-1.216-1.136q-.48-.735-.704-1.808-.224-1.071-.224-2.448 0-1.36.224-2.432.224-1.087.704-1.824.48-.736 1.216-1.12.736-.4 1.76-.4t1.76.4q.736.385 1.216 1.12.48.737.704 1.824.224 1.073.224 2.432 0 1.377-.224 2.448-.224 1.073-.704 1.808-.48.737-1.216 1.136-.736.384-1.76.384m0-1.168q.672 0 1.152-.256.48-.272.768-.752.304-.48.448-1.152.144-.687.144-1.536v-1.824a7.4 7.4 0 0 0-.144-1.52 3.5 3.5 0 0 0-.448-1.168 1.96 1.96 0 0 0-.768-.736q-.48-.272-1.152-.272t-1.152.272q-.48.256-.784.736-.288.48-.432 1.168a7.4 7.4 0 0 0-.144 1.52v1.824q0 .849.144 1.536.144.672.432 1.152.304.48.784.752.48.256 1.152.256m0-3.664q-.56 0-.784-.224a.77.77 0 0 1-.208-.544v-.352a.77.77 0 0 1 .208-.544q.224-.224.784-.224t.768.224q.224.225.224.544v.352a.74.74 0 0 1-.224.544q-.209.225-.768.224M102.348 51.094v-1.168h3.2v-9.008h-.112l-2.816 2.624-.784-.848 2.96-2.768h2.096v10h2.944v1.168zm12.346-2.176h2.064l-1.84 4.432h-1.072zm10.282 2.368q-1.025 0-1.76-.384A3.34 3.34 0 0 1 122 49.766q-.48-.735-.704-1.808-.225-1.071-.224-2.448 0-1.36.224-2.432.224-1.087.704-1.824.48-.735 1.216-1.12.735-.4 1.76-.4 1.023 0 1.76.4.736.385 1.216 1.12t.704 1.824q.224 1.073.224 2.432 0 1.377-.224 2.448-.224 1.073-.704 1.808t-1.216 1.136q-.737.384-1.76.384m0-1.168q.672 0 1.152-.256.48-.272.768-.752.303-.48.448-1.152a7.5 7.5 0 0 0 .144-1.536v-1.824q0-.831-.144-1.52a3.5 3.5 0 0 0-.448-1.168 1.96 1.96 0 0 0-.768-.736q-.48-.272-1.152-.272t-1.152.272q-.48.255-.784.736-.288.48-.432 1.168a7.4 7.4 0 0 0-.144 1.52v1.824q0 .849.144 1.536.144.672.432 1.152.303.48.784.752.48.256 1.152.256m0-3.664q-.56 0-.784-.224a.77.77 0 0 1-.208-.544v-.352a.77.77 0 0 1 .208-.544q.223-.224.784-.224.56 0 .768.224.224.224.224.544v.352a.74.74 0 0 1-.224.544q-.208.224-.768.224m9.593 4.832q-1.023 0-1.76-.384a3.35 3.35 0 0 1-1.216-1.136q-.48-.735-.704-1.808-.224-1.071-.224-2.448 0-1.36.224-2.432.224-1.087.704-1.824a3.2 3.2 0 0 1 1.216-1.12q.737-.4 1.76-.4 1.025 0 1.76.4.736.385 1.216 1.12t.704 1.824q.225 1.073.224 2.432 0 1.377-.224 2.448-.224 1.073-.704 1.808t-1.216 1.136q-.735.384-1.76.384m0-1.168q.672 0 1.152-.256.48-.272.768-.752.304-.48.448-1.152a7.5 7.5 0 0 0 .144-1.536v-1.824q0-.831-.144-1.52a3.5 3.5 0 0 0-.448-1.168 1.96 1.96 0 0 0-.768-.736q-.48-.272-1.152-.272t-1.152.272q-.48.255-.784.736-.288.48-.432 1.168a7.4 7.4 0 0 0-.144 1.52v1.824q0 .849.144 1.536.144.672.432 1.152.304.48.784.752.48.256 1.152.256m0-3.664q-.56 0-.784-.224a.77.77 0 0 1-.208-.544v-.352q0-.32.208-.544.225-.224.784-.224.561 0 .768.224.225.224.224.544v.352a.74.74 0 0 1-.224.544q-.207.224-.768.224m9.594 4.832q-1.024 0-1.76-.384a3.34 3.34 0 0 1-1.216-1.136q-.48-.735-.704-1.808-.224-1.071-.224-2.448 0-1.36.224-2.432.224-1.087.704-1.824.48-.735 1.216-1.12.736-.4 1.76-.4t1.76.4q.736.385 1.216 1.12t.704 1.824q.224 1.073.224 2.432 0 1.377-.224 2.448-.224 1.073-.704 1.808t-1.216 1.136q-.736.384-1.76.384m0-1.168q.672 0 1.152-.256.48-.272.768-.752.304-.48.448-1.152a7.5 7.5 0 0 0 .144-1.536v-1.824q0-.831-.144-1.52a3.5 3.5 0 0 0-.448-1.168 1.96 1.96 0 0 0-.768-.736q-.48-.272-1.152-.272t-1.152.272q-.48.255-.784.736-.288.48-.432 1.168a7.4 7.4 0 0 0-.144 1.52v1.824q0 .849.144 1.536.144.672.432 1.152.304.48.784.752.48.256 1.152.256m0-3.664q-.56 0-.784-.224a.77.77 0 0 1-.208-.544v-.352a.77.77 0 0 1 .208-.544q.224-.224.784-.224t.768.224q.224.224.224.544v.352a.74.74 0 0 1-.224.544q-.209.224-.768.224m8.906 2.464h2.064l-1.84 4.432h-1.072zm10.282 2.368q-1.025 0-1.76-.384a3.34 3.34 0 0 1-1.216-1.136q-.48-.735-.704-1.808-.224-1.071-.224-2.448 0-1.36.224-2.432.224-1.087.704-1.824.48-.735 1.216-1.12.735-.4 1.76-.4 1.023 0 1.76.4.736.385 1.216 1.12t.704 1.824q.224 1.073.224 2.432 0 1.377-.224 2.448-.224 1.073-.704 1.808t-1.216 1.136q-.737.384-1.76.384m0-1.168q.672 0 1.152-.256.48-.272.768-.752.304-.48.448-1.152a7.5 7.5 0 0 0 .144-1.536v-1.824q0-.831-.144-1.52a3.5 3.5 0 0 0-.448-1.168 1.96 1.96 0 0 0-.768-.736q-.48-.272-1.152-.272t-1.152.272q-.48.255-.784.736-.288.48-.432 1.168a7.4 7.4 0 0 0-.144 1.52v1.824q0 .849.144 1.536.144.672.432 1.152.304.48.784.752.48.256 1.152.256m0-3.664q-.56 0-.784-.224a.77.77 0 0 1-.208-.544v-.352a.77.77 0 0 1 .208-.544q.223-.224.784-.224.56 0 .768.224.224.224.224.544v.352a.74.74 0 0 1-.224.544q-.209.224-.768.224m9.593 4.832q-1.023 0-1.76-.384a3.35 3.35 0 0 1-1.216-1.136q-.48-.735-.704-1.808-.224-1.071-.224-2.448 0-1.36.224-2.432.224-1.087.704-1.824a3.2 3.2 0 0 1 1.216-1.12q.737-.4 1.76-.4 1.025 0 1.76.4.736.385 1.216 1.12t.704 1.824q.225 1.073.224 2.432 0 1.377-.224 2.448-.224 1.073-.704 1.808t-1.216 1.136q-.735.384-1.76.384m0-1.168q.672 0 1.152-.256.48-.272.768-.752.304-.48.448-1.152a7.5 7.5 0 0 0 .144-1.536v-1.824q0-.831-.144-1.52a3.5 3.5 0 0 0-.448-1.168 1.96 1.96 0 0 0-.768-.736q-.48-.272-1.152-.272t-1.152.272q-.48.255-.784.736-.288.48-.432 1.168a7.4 7.4 0 0 0-.144 1.52v1.824q0 .849.144 1.536.144.672.432 1.152.304.48.784.752.48.256 1.152.256m0-3.664q-.56 0-.784-.224a.77.77 0 0 1-.208-.544v-.352q0-.32.208-.544.225-.224.784-.224.561 0 .768.224.225.224.224.544v.352a.74.74 0 0 1-.224.544q-.207.224-.768.224m9.594 4.832q-1.024 0-1.76-.384a3.34 3.34 0 0 1-1.216-1.136q-.48-.735-.704-1.808-.224-1.071-.224-2.448 0-1.36.224-2.432.224-1.087.704-1.824.48-.735 1.216-1.12.736-.4 1.76-.4t1.76.4q.736.385 1.216 1.12t.704 1.824q.224 1.073.224 2.432 0 1.377-.224 2.448-.224 1.073-.704 1.808t-1.216 1.136q-.736.384-1.76.384m0-1.168q.672 0 1.152-.256.48-.272.768-.752.304-.48.448-1.152a7.5 7.5 0 0 0 .144-1.536v-1.824q0-.831-.144-1.52a3.5 3.5 0 0 0-.448-1.168 1.96 1.96 0 0 0-.768-.736q-.48-.272-1.152-.272t-1.152.272q-.48.255-.784.736-.288.48-.432 1.168a7.4 7.4 0 0 0-.144 1.52v1.824q0 .849.144 1.536.144.672.432 1.152.304.48.784.752.48.256 1.152.256m0-3.664q-.56 0-.784-.224a.77.77 0 0 1-.208-.544v-.352a.77.77 0 0 1 .208-.544q.224-.224.784-.224t.768.224q.224.224.224.544v.352a.74.74 0 0 1-.224.544q-.209.224-.768.224"/><path fill="#ededed" d="M545.265 727.727v13.125h-1.764v-13.125h-4.893v-1.533h11.55v1.533zm7.174 13.125v-1.407h3.654v-11.844h-3.654v-1.407h9.072v1.407h-3.654v11.844h3.654v1.407zm20.383-7.35v-4.641h-.168l-3.087 7.539-3.087-7.539h-.168v11.991h-1.617v-14.658h2.268l2.583 6.468h.126l2.583-6.468h2.184v14.658h-1.617zm4.926 7.35v-14.658h9.03v1.533h-7.266v4.935h7.014v1.533h-7.014v5.124h7.266v1.533zm13.222 0v-14.658h1.764v13.125h6.951v1.533zm11.836 0v-1.407h3.654v-11.844h-3.654v-1.407h9.072v1.407h-3.654v11.844h3.654v1.407zm14.251-12.411h-.147v12.411h-1.596v-14.658h2.499l4.998 12.285h.147v-12.285h1.596v14.658h-2.499zm11.059 12.411v-14.658h9.03v1.533h-7.266v4.935h7.014v1.533h-7.014v5.124h7.266v1.533zM65.769 261.147v4.095q0 2.688-1.848 4.011t-5.481 1.323-5.481-1.323-1.848-4.011v-4.095zm-13.125 4.011q0 1.764 1.218 2.646 1.218.903 3.444.903h2.268q2.226 0 3.444-.903 1.218-.882 1.218-2.646v-2.247H52.644zm-1.533 16.687 4.179-1.239v-5.145l-4.18-1.239v-1.827l14.659 4.494v2.331l-14.658 4.494zm12.789-3.717v-.189l-7.077-2.058v4.305zm.336 13.389H51.11v-1.764h13.125v-4.893h1.533v11.55h-1.533zM51.11 307.028l4.179-1.239v-5.145l-4.18-1.239v-1.827l14.659 4.494v2.331l-14.658 4.494zm12.789-3.717v-.189l-7.077-2.058v4.305zm1.869 8.056v4.977q0 1.89-1.03 2.961-1.028 1.071-2.75 1.071-1.323 0-2.08-.651-.755-.63-1.07-1.638h-.063q-.294 1.239-1.113 2.037-.799.798-2.331.798a4.7 4.7 0 0 1-1.66-.294 3.9 3.9 0 0 1-1.343-.84 3.9 3.9 0 0 1-.903-1.26 3.8 3.8 0 0 1-.315-1.554v-5.607zm-13.125 5.082q0 1.218.546 1.911t1.68.693h.86q1.114 0 1.66-.693.567-.693.567-1.911v-3.318h-5.313zm6.762-.294q0 1.113.483 1.743.504.63 1.512.63h.819q1.008 0 1.512-.63t.504-1.743v-3.024h-4.83zm-8.295 16.057 4.179-1.239v-5.145l-4.18-1.239v-1.827l14.659 4.494v2.331l-14.658 4.494zm12.789-3.717v-.189l-7.077-2.058v4.305zm-13.041 12.466q0-1.974.714-3.234a6.7 6.7 0 0 1 1.869-2.079l1.05 1.281q-1.071.861-1.596 1.806-.525.966-.525 2.289 0 1.596.735 2.436t2.058.84q1.071 0 1.659-.609.61-.609.86-2.121l.274-1.638q.189-1.071.567-1.806.378-.714.903-1.155a3.4 3.4 0 0 1 1.176-.63 4.8 4.8 0 0 1 1.344-.189q2.016 0 3.045 1.323t1.029 3.57q0 1.764-.588 2.961a4.9 4.9 0 0 1-1.66 1.953l-1.07-1.239a5 5 0 0 0 1.302-1.47q.504-.861.504-2.226 0-1.491-.63-2.289t-1.89-.798q-.987 0-1.617.588-.609.609-.882 2.163l-.273 1.575q-.189 1.071-.567 1.806t-.903 1.176a3.05 3.05 0 0 1-1.176.651 4.9 4.9 0 0 1-1.365.189q-2.037 0-3.192-1.344-1.155-1.323-1.155-3.78m.252 8.223h14.658v9.03h-1.533v-7.266H59.3v7.014h-1.533v-7.014h-5.124v7.266H51.11zm-.252 16.96q0-1.974.714-3.234a6.7 6.7 0 0 1 1.869-2.079l1.05 1.281q-1.071.861-1.596 1.806-.525.966-.525 2.289 0 1.596.735 2.436t2.058.84q1.071 0 1.659-.609.61-.609.86-2.121l.274-1.638q.189-1.071.567-1.806.378-.714.903-1.155a3.4 3.4 0 0 1 1.176-.63 4.8 4.8 0 0 1 1.344-.189q2.016 0 3.045 1.323t1.029 3.57q0 1.764-.588 2.961a4.9 4.9 0 0 1-1.66 1.953l-1.07-1.239a5 5 0 0 0 1.302-1.47q.504-.861.504-2.226 0-1.491-.63-2.289t-1.89-.798q-.987 0-1.617.588-.609.609-.882 2.163l-.273 1.575q-.189 1.071-.567 1.806t-.903 1.176a3.05 3.05 0 0 1-1.176.651 4.9 4.9 0 0 1-1.365.189q-2.037 0-3.192-1.344-1.155-1.323-1.155-3.78"/><path fill="#85e0b7" d="M772 442C568 579.6 308 597 199 597h885V-44c-59.2 224.8-203.689 412.943-312 486"/></g><defs><clipPath id="a"><path fill="#fff" d="M0 0h1080v802H0z"/></clipPath></defs></svg>