<svg xmlns="http://www.w3.org/2000/svg" width="167" height="88" fill="none" viewBox="0 0 167 88"><path fill="#fff" d="M41.274 87.284C20.27 87.284.682 71.944.682 43.624S21.45.082 42.1.082c18.172 0 32.214 10.148 37.052 25.252L68.65 29.818C64.874 17.782 55.08 10.702 42.1 10.702c-14.986 0-29.618 10.738-29.618 32.922s14.16 33.158 29.146 33.158l-.003 10.502zM154.157 85.514l-27.73-71.626-27.258 71.626H86.78l33.276-83.662h13.334l33.276 83.662z"/><path fill="#fff" fill-rule="evenodd" d="M38.469 54.92h29.656v29.656h10.313V44.607H38.469z" clip-rule="evenodd"/><path fill="#fff" d="M132.875 85.513h-12.303V75.2h12.303z"/></svg>