<svg xmlns="http://www.w3.org/2000/svg" width="1080" height="740" fill="none" viewBox="0 0 1080 740"><g clip-path="url(#a)"><path fill="#1c1c1c" d="M0 0h1080v740H0z"/><path stroke="#343434" d="M466.993-15.075V595.49M737.092-15.075V595.49M1004.8-15.075V595.49M198.089 596.729h874.991M198.12 485.68h897.96M198.12 374.631h897.96M198.12 265.945h897.96M198.12 154.896h897.96M198.12 43.847h897.96"/><path stroke="#505050" d="M196.894 596.729h899.186M196.894-15.075V597.19"/><path fill="#7e7e7e" d="M199.287 631.641q-1.023 0-1.76-.384a3.34 3.34 0 0 1-1.216-1.136q-.48-.735-.704-1.808-.224-1.071-.224-2.448 0-1.36.224-2.432.224-1.087.704-1.824.48-.736 1.216-1.12.737-.4 1.76-.4 1.025 0 1.76.4.736.385 1.216 1.12.48.737.704 1.824.225 1.073.224 2.432 0 1.377-.224 2.448-.224 1.073-.704 1.808-.48.737-1.216 1.136-.735.384-1.76.384m0-1.168q.672 0 1.152-.256.48-.272.768-.752.304-.48.448-1.152.144-.687.144-1.536v-1.824a7.4 7.4 0 0 0-.144-1.52 3.5 3.5 0 0 0-.448-1.168 1.96 1.96 0 0 0-.768-.736q-.48-.272-1.152-.272t-1.152.272q-.48.256-.784.736-.288.48-.432 1.168a7.4 7.4 0 0 0-.144 1.52v1.824q0 .849.144 1.536.144.672.432 1.152.304.48.784.752.48.256 1.152.256m0-3.664q-.56 0-.784-.224a.77.77 0 0 1-.208-.544v-.352q0-.32.208-.544.225-.224.784-.224.561 0 .768.224a.74.74 0 0 1 .224.544v.352a.74.74 0 0 1-.224.544q-.207.224-.768.224M462.987 631.449h-7.456v-1.376l3.728-3.36q.816-.736 1.344-1.504.528-.784.528-1.648v-.192q0-1.008-.528-1.552-.528-.56-1.568-.56-1.025 0-1.584.528-.544.512-.816 1.376l-1.2-.448q.16-.495.432-.96a3.4 3.4 0 0 1 .72-.848 3.4 3.4 0 0 1 1.04-.592q.624-.224 1.44-.224.832 0 1.472.24.656.24 1.088.672.449.433.672 1.024.24.592.24 1.296 0 .64-.192 1.2a4.3 4.3 0 0 1-.512 1.072 6.6 6.6 0 0 1-.784 1.008q-.448.48-1.008.96l-3.12 2.72h6.064zm5.802.192q-1.025 0-1.76-.384a3.34 3.34 0 0 1-1.216-1.136q-.48-.735-.704-1.808-.224-1.071-.224-2.448 0-1.36.224-2.432.224-1.087.704-1.824.48-.736 1.216-1.12.735-.4 1.76-.4 1.023 0 1.76.4.736.385 1.216 1.12.48.737.704 1.824.224 1.073.224 2.432 0 1.377-.224 2.448-.224 1.073-.704 1.808-.48.737-1.216 1.136-.737.384-1.76.384m0-1.168q.672 0 1.152-.256.48-.272.768-.752.303-.48.448-1.152.144-.687.144-1.536v-1.824a7.4 7.4 0 0 0-.144-1.52 3.5 3.5 0 0 0-.448-1.168 1.96 1.96 0 0 0-.768-.736q-.48-.272-1.152-.272t-1.152.272a2.07 2.07 0 0 0-.784.736q-.288.48-.432 1.168a7.4 7.4 0 0 0-.144 1.52v1.824q0 .849.144 1.536.144.672.432 1.152.303.48.784.752.48.256 1.152.256m0-3.664q-.56 0-.784-.224a.77.77 0 0 1-.208-.544v-.352a.77.77 0 0 1 .208-.544q.223-.224.784-.224.56 0 .768.224.224.225.224.544v.352a.74.74 0 0 1-.224.544q-.209.224-.768.224m9.593 4.832q-1.023 0-1.76-.384a3.34 3.34 0 0 1-1.216-1.136q-.48-.735-.704-1.808-.224-1.071-.224-2.448 0-1.36.224-2.432.225-1.087.704-1.824.48-.736 1.216-1.12.737-.4 1.76-.4 1.025 0 1.76.4.736.385 1.216 1.12.48.737.704 1.824.224 1.073.224 2.432 0 1.377-.224 2.448-.224 1.073-.704 1.808-.48.737-1.216 1.136-.735.384-1.76.384m0-1.168q.672 0 1.152-.256.48-.272.768-.752.304-.48.448-1.152.144-.687.144-1.536v-1.824a7.4 7.4 0 0 0-.144-1.52 3.5 3.5 0 0 0-.448-1.168 1.96 1.96 0 0 0-.768-.736q-.48-.272-1.152-.272t-1.152.272q-.48.256-.784.736-.288.48-.432 1.168a7.4 7.4 0 0 0-.144 1.52v1.824q0 .849.144 1.536.144.672.432 1.152.304.48.784.752.48.256 1.152.256m0-3.664q-.56 0-.784-.224a.77.77 0 0 1-.208-.544v-.352q0-.32.208-.544.225-.224.784-.224.561 0 .768.224a.74.74 0 0 1 .224.544v.352a.74.74 0 0 1-.224.544q-.207.224-.768.224M729.945 631.449v-2.192h-5.504v-1.184l4.832-7.792h1.952v7.872h1.664v1.104h-1.664v2.192zm-4.304-3.296h4.304v-6.832h-.064zm12.65 3.488q-1.025 0-1.76-.384a3.34 3.34 0 0 1-1.216-1.136q-.48-.735-.704-1.808-.224-1.071-.224-2.448 0-1.36.224-2.432.224-1.087.704-1.824.48-.736 1.216-1.12.735-.4 1.76-.4 1.023 0 1.76.4.735.385 1.216 1.12.48.737.704 1.824.224 1.073.224 2.432 0 1.377-.224 2.448-.225 1.073-.704 1.808-.48.737-1.216 1.136-.737.384-1.76.384m0-1.168q.672 0 1.152-.256.48-.272.768-.752.303-.48.448-1.152.144-.687.144-1.536v-1.824a7.4 7.4 0 0 0-.144-1.52 3.5 3.5 0 0 0-.448-1.168 1.96 1.96 0 0 0-.768-.736q-.48-.272-1.152-.272t-1.152.272a2.07 2.07 0 0 0-.784.736q-.288.48-.432 1.168a7.4 7.4 0 0 0-.144 1.52v1.824q0 .849.144 1.536.144.672.432 1.152.304.48.784.752.48.256 1.152.256m0-3.664q-.56 0-.784-.224a.77.77 0 0 1-.208-.544v-.352a.77.77 0 0 1 .208-.544q.223-.224.784-.224.56 0 .768.224.224.225.224.544v.352a.74.74 0 0 1-.224.544q-.208.224-.768.224m9.593 4.832q-1.023 0-1.76-.384a3.34 3.34 0 0 1-1.216-1.136q-.48-.735-.704-1.808-.224-1.071-.224-2.448 0-1.36.224-2.432.225-1.087.704-1.824.48-.736 1.216-1.12.737-.4 1.76-.4 1.025 0 1.76.4.736.385 1.216 1.12.48.737.704 1.824.225 1.073.224 2.432 0 1.377-.224 2.448-.224 1.073-.704 1.808-.48.737-1.216 1.136-.735.384-1.76.384m0-1.168q.672 0 1.152-.256.48-.272.768-.752.304-.48.448-1.152.144-.687.144-1.536v-1.824a7.4 7.4 0 0 0-.144-1.52 3.5 3.5 0 0 0-.448-1.168 1.96 1.96 0 0 0-.768-.736q-.48-.272-1.152-.272t-1.152.272q-.48.256-.784.736-.288.48-.432 1.168a7.4 7.4 0 0 0-.144 1.52v1.824q0 .849.144 1.536.144.672.432 1.152.304.48.784.752.48.256 1.152.256m0-3.664q-.56 0-.784-.224a.77.77 0 0 1-.208-.544v-.352q0-.32.208-.544.225-.224.784-.224.561 0 .768.224a.74.74 0 0 1 .224.544v.352a.74.74 0 0 1-.224.544q-.207.224-.768.224M998.215 631.641a4.2 4.2 0 0 1-1.584-.288 3.45 3.45 0 0 1-1.2-.848 4.1 4.1 0 0 1-.752-1.36 5.9 5.9 0 0 1-.256-1.792q0-1.247.368-2.336a9.4 9.4 0 0 1 .96-2 9 9 0 0 1 1.312-1.6q.72-.704 1.408-1.136h1.729q-.913.657-1.633 1.28-.703.625-1.248 1.312a7 7 0 0 0-.912 1.456 9 9 0 0 0-.608 1.744l.08.032a3.5 3.5 0 0 1 1.056-1.136q.656-.464 1.696-.464.737 0 1.344.24.606.24 1.055.688.45.449.69 1.088c.17.427.25.902.25 1.424a4.1 4.1 0 0 1-.27 1.504c-.18.448-.43.838-.77 1.168-.32.32-.71.571-1.179.752a4.1 4.1 0 0 1-1.536.272m-.016-1.136q1.152 0 1.776-.624.636-.624.635-1.76v-.128q.001-1.136-.635-1.76-.624-.624-1.776-.624t-1.792.624q-.624.624-.624 1.76v.128q0 1.137.624 1.76.64.624 1.792.624m9.591 1.136c-.68 0-1.27-.128-1.76-.384a3.3 3.3 0 0 1-1.21-1.136c-.32-.49-.56-1.093-.71-1.808-.15-.714-.22-1.53-.22-2.448 0-.906.07-1.717.22-2.432.15-.725.39-1.333.71-1.824.32-.49.72-.864 1.21-1.12.49-.266 1.08-.4 1.76-.4.69 0 1.27.134 1.76.4.49.256.9.63 1.22 1.12s.55 1.099.7 1.824c.15.715.23 1.526.23 2.432 0 .918-.08 1.734-.23 2.448-.15.715-.38 1.318-.7 1.808-.32.491-.73.87-1.22 1.136-.49.256-1.07.384-1.76.384m0-1.168c.45 0 .83-.085 1.15-.256.32-.181.58-.432.77-.752.21-.32.35-.704.45-1.152.1-.458.14-.97.14-1.536v-1.824a7.2 7.2 0 0 0-.14-1.52c-.1-.458-.24-.848-.45-1.168-.19-.32-.45-.565-.77-.736-.32-.181-.7-.272-1.15-.272s-.83.091-1.15.272q-.48.256-.78.736c-.2.32-.34.71-.44 1.168-.09.459-.14.966-.14 1.52v1.824c0 .566.05 1.078.14 1.536.1.448.24.832.44 1.152q.3.48.78.752c.32.171.7.256 1.15.256m0-3.664q-.555 0-.78-.224a.77.77 0 0 1-.21-.544v-.352q0-.32.21-.544.225-.224.78-.224c.38 0 .63.075.77.224.15.15.22.331.22.544v.352c0 .214-.07.395-.22.544-.14.15-.39.224-.77.224m9.6 4.832c-.69 0-1.27-.128-1.76-.384-.49-.266-.9-.645-1.22-1.136s-.55-1.093-.7-1.808c-.15-.714-.23-1.53-.23-2.448 0-.906.08-1.717.23-2.432.15-.725.38-1.333.7-1.824.32-.49.73-.864 1.22-1.12.49-.266 1.07-.4 1.76-.4.68 0 1.27.134 1.76.4.49.256.89.63 1.21 1.12s.56 1.099.71 1.824c.15.715.22 1.526.22 2.432 0 .918-.07 1.734-.22 2.448-.15.715-.39 1.318-.71 1.808-.32.491-.72.87-1.21 1.136-.49.256-1.08.384-1.76.384m0-1.168c.44 0 .83-.085 1.15-.256.32-.181.57-.432.77-.752s.35-.704.44-1.152q.15-.687.15-1.536v-1.824q0-.831-.15-1.52a3.4 3.4 0 0 0-.44-1.168 2 2 0 0 0-.77-.736c-.32-.181-.71-.272-1.15-.272-.45 0-.84.091-1.16.272q-.48.256-.78.736c-.19.32-.34.71-.43 1.168q-.15.689-.15 1.52v1.824q0 .849.15 1.536c.09.448.24.832.43 1.152q.3.48.78.752c.32.171.71.256 1.16.256m0-3.664c-.38 0-.64-.074-.79-.224a.77.77 0 0 1-.21-.544v-.352q0-.32.21-.544c.15-.149.41-.224.79-.224.37 0 .63.075.76.224.15.15.23.331.23.544v.352c0 .214-.08.395-.23.544-.13.15-.39.224-.76.224M169.392 602.987q-1.024 0-1.76-.384a3.34 3.34 0 0 1-1.216-1.136q-.48-.736-.704-1.808t-.224-2.448q0-1.36.224-2.432.224-1.087.704-1.824.48-.736 1.216-1.12.736-.4 1.76-.4t1.76.4q.736.384 1.216 1.12t.704 1.824q.224 1.072.224 2.432 0 1.375-.224 2.448t-.704 1.808-1.216 1.136q-.736.384-1.76.384m0-1.168q.672 0 1.152-.256.48-.272.768-.752.304-.48.448-1.152.144-.688.144-1.536v-1.824q0-.832-.144-1.52a3.5 3.5 0 0 0-.448-1.168 1.96 1.96 0 0 0-.768-.736q-.48-.272-1.152-.272t-1.152.272q-.48.256-.784.736-.288.48-.432 1.168a7.4 7.4 0 0 0-.144 1.52v1.824q0 .848.144 1.536.144.672.432 1.152.304.48.784.752.48.256 1.152.256m0-3.664q-.56 0-.784-.224a.77.77 0 0 1-.208-.544v-.352q0-.32.208-.544.224-.224.784-.224t.768.224a.74.74 0 0 1 .224.544v.352a.74.74 0 0 1-.224.544q-.208.224-.768.224M102.348 492.928v-1.168h3.2v-9.008h-.112l-2.816 2.624-.784-.848 2.96-2.768h2.096v10h2.944v1.168zm12.346-2.176h2.064l-1.84 4.432h-1.072zm10.282 2.368q-1.025 0-1.76-.384A3.35 3.35 0 0 1 122 491.6q-.48-.737-.704-1.808-.225-1.072-.224-2.448 0-1.36.224-2.432.224-1.089.704-1.824t1.216-1.12q.735-.4 1.76-.4 1.023 0 1.76.4.736.384 1.216 1.12.48.735.704 1.824.224 1.071.224 2.432 0 1.375-.224 2.448-.224 1.071-.704 1.808a3.36 3.36 0 0 1-1.216 1.136q-.737.384-1.76.384m0-1.168q.672 0 1.152-.256.48-.273.768-.752.303-.48.448-1.152.144-.689.144-1.536v-1.824q0-.833-.144-1.52a3.5 3.5 0 0 0-.448-1.168 1.95 1.95 0 0 0-.768-.736q-.48-.272-1.152-.272t-1.152.272q-.48.256-.784.736-.288.48-.432 1.168a7.4 7.4 0 0 0-.144 1.52v1.824q0 .847.144 1.536.144.672.432 1.152.303.48.784.752.48.255 1.152.256m0-3.664q-.56 0-.784-.224a.77.77 0 0 1-.208-.544v-.352q0-.32.208-.544.223-.225.784-.224.56 0 .768.224a.74.74 0 0 1 .224.544v.352a.74.74 0 0 1-.224.544q-.208.224-.768.224m9.593 4.832q-1.023 0-1.76-.384a3.36 3.36 0 0 1-1.216-1.136q-.48-.737-.704-1.808t-.224-2.448q0-1.36.224-2.432.224-1.089.704-1.824t1.216-1.12q.737-.4 1.76-.4 1.025 0 1.76.4.736.384 1.216 1.12.48.735.704 1.824.225 1.071.224 2.432 0 1.375-.224 2.448-.224 1.071-.704 1.808-.48.735-1.216 1.136-.735.384-1.76.384m0-1.168q.672 0 1.152-.256.48-.273.768-.752.304-.48.448-1.152.144-.689.144-1.536v-1.824q0-.833-.144-1.52a3.5 3.5 0 0 0-.448-1.168 1.95 1.95 0 0 0-.768-.736q-.48-.272-1.152-.272t-1.152.272a2.07 2.07 0 0 0-.784.736q-.288.48-.432 1.168a7.4 7.4 0 0 0-.144 1.52v1.824q0 .847.144 1.536.144.672.432 1.152.304.48.784.752.48.255 1.152.256m0-3.664q-.56 0-.784-.224a.78.78 0 0 1-.208-.544v-.352q0-.32.208-.544.225-.225.784-.224.561 0 .768.224.225.223.224.544v.352a.74.74 0 0 1-.224.544q-.207.224-.768.224m9.594 4.832q-1.024 0-1.76-.384a3.35 3.35 0 0 1-1.216-1.136q-.48-.737-.704-1.808t-.224-2.448q0-1.36.224-2.432.224-1.089.704-1.824t1.216-1.12q.736-.4 1.76-.4t1.76.4q.736.384 1.216 1.12.48.735.704 1.824.224 1.071.224 2.432 0 1.375-.224 2.448-.224 1.071-.704 1.808-.48.735-1.216 1.136-.736.384-1.76.384m0-1.168q.672 0 1.152-.256.48-.273.768-.752.304-.48.448-1.152.144-.689.144-1.536v-1.824q0-.833-.144-1.52a3.5 3.5 0 0 0-.448-1.168 1.95 1.95 0 0 0-.768-.736q-.48-.272-1.152-.272t-1.152.272a2.07 2.07 0 0 0-.784.736q-.288.48-.432 1.168a7.4 7.4 0 0 0-.144 1.52v1.824q0 .847.144 1.536.144.672.432 1.152.304.48.784.752.48.255 1.152.256m0-3.664q-.56 0-.784-.224a.77.77 0 0 1-.208-.544v-.352q0-.32.208-.544.224-.225.784-.224.56 0 .768.224a.74.74 0 0 1 .224.544v.352a.74.74 0 0 1-.224.544q-.209.224-.768.224m8.906 2.464h2.064l-1.84 4.432h-1.072zm10.282 2.368q-1.025 0-1.76-.384a3.35 3.35 0 0 1-1.216-1.136q-.48-.737-.704-1.808t-.224-2.448q0-1.36.224-2.432.224-1.089.704-1.824t1.216-1.12q.735-.4 1.76-.4 1.023 0 1.76.4.736.384 1.216 1.12.48.735.704 1.824.224 1.071.224 2.432 0 1.375-.224 2.448-.224 1.071-.704 1.808a3.36 3.36 0 0 1-1.216 1.136q-.737.384-1.76.384m0-1.168q.672 0 1.152-.256.48-.273.768-.752.304-.48.448-1.152.144-.689.144-1.536v-1.824q0-.833-.144-1.52a3.5 3.5 0 0 0-.448-1.168 1.95 1.95 0 0 0-.768-.736q-.48-.272-1.152-.272t-1.152.272q-.48.256-.784.736-.288.48-.432 1.168a7.4 7.4 0 0 0-.144 1.52v1.824q0 .847.144 1.536.144.672.432 1.152.304.48.784.752.48.255 1.152.256m0-3.664q-.56 0-.784-.224a.77.77 0 0 1-.208-.544v-.352q0-.32.208-.544.223-.225.784-.224.56 0 .768.224a.74.74 0 0 1 .224.544v.352a.74.74 0 0 1-.224.544q-.209.224-.768.224m9.593 4.832q-1.023 0-1.76-.384a3.36 3.36 0 0 1-1.216-1.136q-.48-.737-.704-1.808t-.224-2.448q0-1.36.224-2.432.224-1.089.704-1.824t1.216-1.12q.737-.4 1.76-.4 1.025 0 1.76.4.736.384 1.216 1.12.48.735.704 1.824.225 1.071.224 2.432 0 1.375-.224 2.448-.224 1.071-.704 1.808-.48.735-1.216 1.136-.735.384-1.76.384m0-1.168q.672 0 1.152-.256.48-.273.768-.752.304-.48.448-1.152.144-.689.144-1.536v-1.824q0-.833-.144-1.52a3.5 3.5 0 0 0-.448-1.168 1.95 1.95 0 0 0-.768-.736q-.48-.272-1.152-.272t-1.152.272a2.07 2.07 0 0 0-.784.736q-.288.48-.432 1.168a7.4 7.4 0 0 0-.144 1.52v1.824q0 .847.144 1.536.144.672.432 1.152.304.48.784.752.48.255 1.152.256m0-3.664q-.56 0-.784-.224a.78.78 0 0 1-.208-.544v-.352q0-.32.208-.544.225-.225.784-.224.561 0 .768.224.225.223.224.544v.352a.74.74 0 0 1-.224.544q-.207.224-.768.224m9.594 4.832q-1.024 0-1.76-.384a3.35 3.35 0 0 1-1.216-1.136q-.48-.737-.704-1.808t-.224-2.448q0-1.36.224-2.432.224-1.089.704-1.824t1.216-1.12q.736-.4 1.76-.4t1.76.4q.736.384 1.216 1.12.48.735.704 1.824.224 1.071.224 2.432 0 1.375-.224 2.448-.224 1.071-.704 1.808-.48.735-1.216 1.136-.736.384-1.76.384m0-1.168q.672 0 1.152-.256.48-.273.768-.752.304-.48.448-1.152.144-.689.144-1.536v-1.824q0-.833-.144-1.52a3.5 3.5 0 0 0-.448-1.168 1.95 1.95 0 0 0-.768-.736q-.48-.272-1.152-.272t-1.152.272a2.07 2.07 0 0 0-.784.736q-.288.48-.432 1.168a7.4 7.4 0 0 0-.144 1.52v1.824q0 .847.144 1.536.144.672.432 1.152.304.48.784.752.48.255 1.152.256m0-3.664q-.56 0-.784-.224a.77.77 0 0 1-.208-.544v-.352q0-.32.208-.544.224-.225.784-.224.56 0 .768.224a.74.74 0 0 1 .224.544v.352a.74.74 0 0 1-.224.544q-.209.224-.768.224M109.58 384.241h-7.456v-1.376l3.728-3.36q.816-.736 1.344-1.504.528-.784.528-1.648v-.192q0-1.008-.528-1.552-.528-.56-1.568-.56-1.025 0-1.584.528-.544.513-.816 1.376l-1.2-.448q.16-.495.432-.96a3.4 3.4 0 0 1 .72-.848 3.4 3.4 0 0 1 1.04-.592q.624-.224 1.44-.224.832 0 1.472.24.656.24 1.088.672.448.433.672 1.024.24.592.24 1.296 0 .64-.192 1.2a4.3 4.3 0 0 1-.512 1.072 6.6 6.6 0 0 1-.784 1.008q-.449.48-1.008.96l-3.12 2.72h6.064zm5.114-2.176h2.064l-1.84 4.432h-1.072zm10.282 2.368q-1.025 0-1.76-.384a3.34 3.34 0 0 1-1.216-1.136q-.48-.735-.704-1.808-.225-1.071-.224-2.448 0-1.36.224-2.432.224-1.088.704-1.824t1.216-1.12q.735-.4 1.76-.4 1.023 0 1.76.4.736.384 1.216 1.12t.704 1.824q.224 1.073.224 2.432 0 1.377-.224 2.448-.224 1.073-.704 1.808-.48.737-1.216 1.136-.737.384-1.76.384m0-1.168q.672 0 1.152-.256.48-.272.768-.752.303-.48.448-1.152.144-.687.144-1.536v-1.824a7.4 7.4 0 0 0-.144-1.52 3.5 3.5 0 0 0-.448-1.168 1.96 1.96 0 0 0-.768-.736q-.48-.272-1.152-.272t-1.152.272a2.07 2.07 0 0 0-.784.736q-.288.48-.432 1.168a7.4 7.4 0 0 0-.144 1.52v1.824q0 .849.144 1.536.144.672.432 1.152.303.48.784.752.48.256 1.152.256m0-3.664q-.56 0-.784-.224a.77.77 0 0 1-.208-.544v-.352a.77.77 0 0 1 .208-.544q.223-.224.784-.224.56 0 .768.224.224.225.224.544v.352a.74.74 0 0 1-.224.544q-.208.224-.768.224m9.593 4.832q-1.023 0-1.76-.384a3.34 3.34 0 0 1-1.216-1.136q-.48-.735-.704-1.808-.224-1.071-.224-2.448 0-1.36.224-2.432.224-1.088.704-1.824t1.216-1.12q.737-.4 1.76-.4 1.025 0 1.76.4.736.384 1.216 1.12t.704 1.824q.225 1.073.224 2.432 0 1.377-.224 2.448-.224 1.073-.704 1.808-.48.737-1.216 1.136-.735.384-1.76.384m0-1.168q.672 0 1.152-.256.48-.272.768-.752.304-.48.448-1.152.144-.687.144-1.536v-1.824a7.4 7.4 0 0 0-.144-1.52 3.5 3.5 0 0 0-.448-1.168 1.96 1.96 0 0 0-.768-.736q-.48-.272-1.152-.272t-1.152.272q-.48.256-.784.736-.288.48-.432 1.168a7.4 7.4 0 0 0-.144 1.52v1.824q0 .849.144 1.536.144.672.432 1.152.304.48.784.752.48.256 1.152.256m0-3.664q-.56 0-.784-.224a.77.77 0 0 1-.208-.544v-.352q0-.32.208-.544.225-.224.784-.224.561 0 .768.224a.74.74 0 0 1 .224.544v.352a.74.74 0 0 1-.224.544q-.207.224-.768.224m9.594 4.832q-1.024 0-1.76-.384a3.34 3.34 0 0 1-1.216-1.136q-.48-.735-.704-1.808-.224-1.071-.224-2.448 0-1.36.224-2.432.224-1.088.704-1.824t1.216-1.12q.736-.4 1.76-.4t1.76.4q.736.384 1.216 1.12t.704 1.824q.224 1.073.224 2.432 0 1.377-.224 2.448-.224 1.073-.704 1.808-.48.737-1.216 1.136-.736.384-1.76.384m0-1.168q.672 0 1.152-.256.48-.272.768-.752.304-.48.448-1.152.144-.687.144-1.536v-1.824a7.4 7.4 0 0 0-.144-1.52 3.5 3.5 0 0 0-.448-1.168 1.96 1.96 0 0 0-.768-.736q-.48-.272-1.152-.272t-1.152.272q-.48.256-.784.736-.288.48-.432 1.168a7.4 7.4 0 0 0-.144 1.52v1.824q0 .849.144 1.536.144.672.432 1.152.304.48.784.752.48.256 1.152.256m0-3.664q-.56 0-.784-.224a.77.77 0 0 1-.208-.544v-.352a.77.77 0 0 1 .208-.544q.224-.224.784-.224t.768.224q.224.225.224.544v.352a.74.74 0 0 1-.224.544q-.209.224-.768.224m8.906 2.464h2.064l-1.84 4.432h-1.072zm10.282 2.368q-1.025 0-1.76-.384a3.34 3.34 0 0 1-1.216-1.136q-.48-.735-.704-1.808-.224-1.071-.224-2.448 0-1.36.224-2.432.224-1.088.704-1.824t1.216-1.12q.735-.4 1.76-.4 1.023 0 1.76.4.736.384 1.216 1.12t.704 1.824q.224 1.073.224 2.432 0 1.377-.224 2.448-.224 1.073-.704 1.808-.48.737-1.216 1.136-.737.384-1.76.384m0-1.168q.672 0 1.152-.256.48-.272.768-.752.304-.48.448-1.152.144-.687.144-1.536v-1.824a7.4 7.4 0 0 0-.144-1.52 3.5 3.5 0 0 0-.448-1.168 1.96 1.96 0 0 0-.768-.736q-.48-.272-1.152-.272t-1.152.272a2.07 2.07 0 0 0-.784.736q-.288.48-.432 1.168a7.4 7.4 0 0 0-.144 1.52v1.824q0 .849.144 1.536.144.672.432 1.152.304.48.784.752.48.256 1.152.256m0-3.664q-.56 0-.784-.224a.77.77 0 0 1-.208-.544v-.352a.77.77 0 0 1 .208-.544q.223-.224.784-.224.56 0 .768.224.224.225.224.544v.352a.74.74 0 0 1-.224.544q-.209.224-.768.224m9.593 4.832q-1.023 0-1.76-.384a3.34 3.34 0 0 1-1.216-1.136q-.48-.735-.704-1.808-.224-1.071-.224-2.448 0-1.36.224-2.432.224-1.088.704-1.824t1.216-1.12q.737-.4 1.76-.4 1.025 0 1.76.4.736.384 1.216 1.12t.704 1.824q.225 1.073.224 2.432 0 1.377-.224 2.448-.224 1.073-.704 1.808-.48.737-1.216 1.136-.735.384-1.76.384m0-1.168q.672 0 1.152-.256.48-.272.768-.752.304-.48.448-1.152.144-.687.144-1.536v-1.824a7.4 7.4 0 0 0-.144-1.52 3.5 3.5 0 0 0-.448-1.168 1.96 1.96 0 0 0-.768-.736q-.48-.272-1.152-.272t-1.152.272q-.48.256-.784.736-.288.48-.432 1.168a7.4 7.4 0 0 0-.144 1.52v1.824q0 .849.144 1.536.144.672.432 1.152.304.48.784.752.48.256 1.152.256m0-3.664q-.56 0-.784-.224a.77.77 0 0 1-.208-.544v-.352q0-.32.208-.544.225-.224.784-.224.561 0 .768.224a.74.74 0 0 1 .224.544v.352a.74.74 0 0 1-.224.544q-.207.224-.768.224m9.594 4.832q-1.024 0-1.76-.384a3.34 3.34 0 0 1-1.216-1.136q-.48-.735-.704-1.808-.224-1.071-.224-2.448 0-1.36.224-2.432.224-1.088.704-1.824t1.216-1.12q.736-.4 1.76-.4t1.76.4q.736.384 1.216 1.12t.704 1.824q.224 1.073.224 2.432 0 1.377-.224 2.448-.224 1.073-.704 1.808-.48.737-1.216 1.136-.736.384-1.76.384m0-1.168q.672 0 1.152-.256.48-.272.768-.752.304-.48.448-1.152.144-.687.144-1.536v-1.824a7.4 7.4 0 0 0-.144-1.52 3.5 3.5 0 0 0-.448-1.168 1.96 1.96 0 0 0-.768-.736q-.48-.272-1.152-.272t-1.152.272q-.48.256-.784.736-.288.48-.432 1.168a7.4 7.4 0 0 0-.144 1.52v1.824q0 .849.144 1.536.144.672.432 1.152.304.48.784.752.48.256 1.152.256m0-3.664q-.56 0-.784-.224a.77.77 0 0 1-.208-.544v-.352a.77.77 0 0 1 .208-.544q.224-.224.784-.224t.768.224q.224.225.224.544v.352a.74.74 0 0 1-.224.544q-.209.224-.768.224M105.308 266.76q1.168 0 1.744-.512.592-.528.592-1.344v-.112q0-.895-.576-1.344-.56-.447-1.472-.448-.896 0-1.456.4a3 3 0 0 0-.896 1.024l-1.008-.768q.208-.335.512-.656.304-.336.704-.592.416-.255.944-.416a4.4 4.4 0 0 1 1.232-.16q.72 0 1.344.192.624.177 1.088.544.463.352.72.88.272.528.272 1.2 0 .544-.176.976a2.2 2.2 0 0 1-.464.752 2.7 2.7 0 0 1-.688.544 3.4 3.4 0 0 1-.848.336v.064q.464.096.896.32.432.209.768.56.336.337.528.832.208.48.208 1.104 0 .72-.288 1.328a2.9 2.9 0 0 1-.784 1.024 3.7 3.7 0 0 1-1.216.656q-.704.24-1.568.24-.736 0-1.312-.16a4 4 0 0 1-1.008-.432 4.4 4.4 0 0 1-.768-.608 6 6 0 0 1-.576-.704l1.008-.768a6 6 0 0 0 .464.608q.24.273.544.48.32.192.72.304t.928.112q1.184 0 1.808-.544.64-.543.64-1.552v-.128q0-.992-.624-1.536-.608-.543-1.84-.544h-1.328v-1.152zm9.386 4.256h2.064l-1.84 4.432h-1.072zm10.282 2.368q-1.025 0-1.76-.384a3.34 3.34 0 0 1-1.216-1.136q-.48-.735-.704-1.808-.225-1.071-.224-2.448 0-1.36.224-2.432.224-1.088.704-1.824t1.216-1.12q.735-.4 1.76-.4 1.023 0 1.76.4.736.384 1.216 1.12t.704 1.824q.224 1.073.224 2.432 0 1.377-.224 2.448-.224 1.073-.704 1.808-.48.737-1.216 1.136-.737.384-1.76.384m0-1.168q.672 0 1.152-.256.48-.272.768-.752.303-.48.448-1.152.144-.687.144-1.536v-1.824a7.4 7.4 0 0 0-.144-1.52 3.5 3.5 0 0 0-.448-1.168 1.96 1.96 0 0 0-.768-.736q-.48-.272-1.152-.272t-1.152.272a2.07 2.07 0 0 0-.784.736q-.288.48-.432 1.168a7.4 7.4 0 0 0-.144 1.52v1.824q0 .849.144 1.536.144.672.432 1.152.303.48.784.752.48.256 1.152.256m0-3.664q-.56 0-.784-.224a.77.77 0 0 1-.208-.544v-.352a.77.77 0 0 1 .208-.544q.223-.224.784-.224.56 0 .768.224.224.225.224.544v.352a.74.74 0 0 1-.224.544q-.208.225-.768.224m9.593 4.832q-1.023 0-1.76-.384a3.34 3.34 0 0 1-1.216-1.136q-.48-.735-.704-1.808-.224-1.071-.224-2.448 0-1.36.224-2.432.224-1.088.704-1.824t1.216-1.12q.737-.4 1.76-.4 1.025 0 1.76.4.736.384 1.216 1.12t.704 1.824q.225 1.073.224 2.432 0 1.377-.224 2.448-.224 1.073-.704 1.808-.48.737-1.216 1.136-.735.384-1.76.384m0-1.168q.672 0 1.152-.256.48-.272.768-.752.304-.48.448-1.152.144-.687.144-1.536v-1.824a7.4 7.4 0 0 0-.144-1.52 3.5 3.5 0 0 0-.448-1.168 1.96 1.96 0 0 0-.768-.736q-.48-.272-1.152-.272t-1.152.272q-.48.256-.784.736-.288.48-.432 1.168a7.4 7.4 0 0 0-.144 1.52v1.824q0 .849.144 1.536.144.672.432 1.152.304.48.784.752.48.256 1.152.256m0-3.664q-.56 0-.784-.224a.77.77 0 0 1-.208-.544v-.352q0-.32.208-.544.225-.224.784-.224.561 0 .768.224a.74.74 0 0 1 .224.544v.352a.74.74 0 0 1-.224.544q-.207.225-.768.224m9.594 4.832q-1.024 0-1.76-.384a3.34 3.34 0 0 1-1.216-1.136q-.48-.735-.704-1.808-.224-1.071-.224-2.448 0-1.36.224-2.432.224-1.088.704-1.824t1.216-1.12q.736-.4 1.76-.4t1.76.4q.736.384 1.216 1.12t.704 1.824q.224 1.073.224 2.432 0 1.377-.224 2.448-.224 1.073-.704 1.808-.48.737-1.216 1.136-.736.384-1.76.384m0-1.168q.672 0 1.152-.256.48-.272.768-.752.304-.48.448-1.152.144-.687.144-1.536v-1.824a7.4 7.4 0 0 0-.144-1.52 3.5 3.5 0 0 0-.448-1.168 1.96 1.96 0 0 0-.768-.736q-.48-.272-1.152-.272t-1.152.272q-.48.256-.784.736-.288.48-.432 1.168a7.4 7.4 0 0 0-.144 1.52v1.824q0 .849.144 1.536.144.672.432 1.152.304.48.784.752.48.256 1.152.256m0-3.664q-.56 0-.784-.224a.77.77 0 0 1-.208-.544v-.352a.77.77 0 0 1 .208-.544q.224-.224.784-.224t.768.224q.224.225.224.544v.352a.74.74 0 0 1-.224.544q-.209.225-.768.224m8.906 2.464h2.064l-1.84 4.432h-1.072zm10.282 2.368q-1.025 0-1.76-.384a3.34 3.34 0 0 1-1.216-1.136q-.48-.735-.704-1.808-.224-1.071-.224-2.448 0-1.36.224-2.432.224-1.088.704-1.824t1.216-1.12q.735-.4 1.76-.4 1.023 0 1.76.4.736.384 1.216 1.12t.704 1.824q.224 1.073.224 2.432 0 1.377-.224 2.448-.224 1.073-.704 1.808-.48.737-1.216 1.136-.737.384-1.76.384m0-1.168q.672 0 1.152-.256.48-.272.768-.752.304-.48.448-1.152.144-.687.144-1.536v-1.824a7.4 7.4 0 0 0-.144-1.52 3.5 3.5 0 0 0-.448-1.168 1.96 1.96 0 0 0-.768-.736q-.48-.272-1.152-.272t-1.152.272a2.07 2.07 0 0 0-.784.736q-.288.48-.432 1.168a7.4 7.4 0 0 0-.144 1.52v1.824q0 .849.144 1.536.144.672.432 1.152.304.48.784.752.48.256 1.152.256m0-3.664q-.56 0-.784-.224a.77.77 0 0 1-.208-.544v-.352a.77.77 0 0 1 .208-.544q.223-.224.784-.224.56 0 .768.224.224.225.224.544v.352a.74.74 0 0 1-.224.544q-.209.225-.768.224m9.593 4.832q-1.023 0-1.76-.384a3.34 3.34 0 0 1-1.216-1.136q-.48-.735-.704-1.808-.224-1.071-.224-2.448 0-1.36.224-2.432.224-1.088.704-1.824t1.216-1.12q.737-.4 1.76-.4 1.025 0 1.76.4.736.384 1.216 1.12t.704 1.824q.225 1.073.224 2.432 0 1.377-.224 2.448-.224 1.073-.704 1.808-.48.737-1.216 1.136-.735.384-1.76.384m0-1.168q.672 0 1.152-.256.48-.272.768-.752.304-.48.448-1.152.144-.687.144-1.536v-1.824a7.4 7.4 0 0 0-.144-1.52 3.5 3.5 0 0 0-.448-1.168 1.96 1.96 0 0 0-.768-.736q-.48-.272-1.152-.272t-1.152.272q-.48.256-.784.736-.288.48-.432 1.168a7.4 7.4 0 0 0-.144 1.52v1.824q0 .849.144 1.536.144.672.432 1.152.304.48.784.752.48.256 1.152.256m0-3.664q-.56 0-.784-.224a.77.77 0 0 1-.208-.544v-.352q0-.32.208-.544.225-.224.784-.224.561 0 .768.224a.74.74 0 0 1 .224.544v.352a.74.74 0 0 1-.224.544q-.207.225-.768.224m9.594 4.832q-1.024 0-1.76-.384a3.34 3.34 0 0 1-1.216-1.136q-.48-.735-.704-1.808-.224-1.071-.224-2.448 0-1.36.224-2.432.224-1.088.704-1.824t1.216-1.12q.736-.4 1.76-.4t1.76.4q.736.384 1.216 1.12t.704 1.824q.224 1.073.224 2.432 0 1.377-.224 2.448-.224 1.073-.704 1.808-.48.737-1.216 1.136-.736.384-1.76.384m0-1.168q.672 0 1.152-.256.48-.272.768-.752.304-.48.448-1.152.144-.687.144-1.536v-1.824a7.4 7.4 0 0 0-.144-1.52 3.5 3.5 0 0 0-.448-1.168 1.96 1.96 0 0 0-.768-.736q-.48-.272-1.152-.272t-1.152.272q-.48.256-.784.736-.288.48-.432 1.168a7.4 7.4 0 0 0-.144 1.52v1.824q0 .849.144 1.536.144.672.432 1.152.304.48.784.752.48.256 1.152.256m0-3.664q-.56 0-.784-.224a.77.77 0 0 1-.208-.544v-.352a.77.77 0 0 1 .208-.544q.224-.224.784-.224t.768.224q.224.225.224.544v.352a.74.74 0 0 1-.224.544q-.209.225-.768.224M107.036 162.143v-2.192h-5.504v-1.184l4.832-7.792h1.952v7.872h1.664v1.104h-1.664v2.192zm-4.304-3.296h4.304v-6.832h-.064zm11.962 1.12h2.064l-1.84 4.432h-1.072zm10.282 2.368q-1.025 0-1.76-.384a3.34 3.34 0 0 1-1.216-1.136q-.48-.735-.704-1.808-.225-1.071-.224-2.448 0-1.36.224-2.432.224-1.087.704-1.824.48-.736 1.216-1.12.735-.4 1.76-.4 1.023 0 1.76.4.736.385 1.216 1.12.48.737.704 1.824.224 1.073.224 2.432 0 1.377-.224 2.448-.224 1.073-.704 1.808-.48.737-1.216 1.136-.737.384-1.76.384m0-1.168q.672 0 1.152-.256.48-.272.768-.752.303-.48.448-1.152.144-.687.144-1.536v-1.824a7.4 7.4 0 0 0-.144-1.52 3.5 3.5 0 0 0-.448-1.168 1.96 1.96 0 0 0-.768-.736q-.48-.272-1.152-.272t-1.152.272a2.07 2.07 0 0 0-.784.736q-.288.48-.432 1.168a7.4 7.4 0 0 0-.144 1.52v1.824q0 .849.144 1.536.144.672.432 1.152.303.48.784.752.48.256 1.152.256m0-3.664q-.56 0-.784-.224a.77.77 0 0 1-.208-.544v-.352a.77.77 0 0 1 .208-.544q.223-.224.784-.224.56 0 .768.224.224.225.224.544v.352a.74.74 0 0 1-.224.544q-.208.225-.768.224m9.593 4.832q-1.023 0-1.76-.384a3.34 3.34 0 0 1-1.216-1.136q-.48-.735-.704-1.808-.224-1.071-.224-2.448 0-1.36.224-2.432.224-1.087.704-1.824.48-.736 1.216-1.12.737-.4 1.76-.4 1.025 0 1.76.4.736.385 1.216 1.12.48.737.704 1.824.225 1.073.224 2.432 0 1.377-.224 2.448-.224 1.073-.704 1.808-.48.737-1.216 1.136-.735.384-1.76.384m0-1.168q.672 0 1.152-.256.48-.272.768-.752.304-.48.448-1.152.144-.687.144-1.536v-1.824a7.4 7.4 0 0 0-.144-1.52 3.5 3.5 0 0 0-.448-1.168 1.96 1.96 0 0 0-.768-.736q-.48-.272-1.152-.272t-1.152.272q-.48.256-.784.736-.288.48-.432 1.168a7.4 7.4 0 0 0-.144 1.52v1.824q0 .849.144 1.536.144.672.432 1.152.304.48.784.752.48.256 1.152.256m0-3.664q-.56 0-.784-.224a.77.77 0 0 1-.208-.544v-.352q0-.32.208-.544.225-.224.784-.224.561 0 .768.224a.74.74 0 0 1 .224.544v.352a.74.74 0 0 1-.224.544q-.207.225-.768.224m9.594 4.832q-1.024 0-1.76-.384a3.34 3.34 0 0 1-1.216-1.136q-.48-.735-.704-1.808-.224-1.071-.224-2.448 0-1.36.224-2.432.224-1.087.704-1.824.48-.736 1.216-1.12.736-.4 1.76-.4t1.76.4q.736.385 1.216 1.12.48.737.704 1.824.224 1.073.224 2.432 0 1.377-.224 2.448-.224 1.073-.704 1.808-.48.737-1.216 1.136-.736.384-1.76.384m0-1.168q.672 0 1.152-.256.48-.272.768-.752.304-.48.448-1.152.144-.687.144-1.536v-1.824a7.4 7.4 0 0 0-.144-1.52 3.5 3.5 0 0 0-.448-1.168 1.96 1.96 0 0 0-.768-.736q-.48-.272-1.152-.272t-1.152.272q-.48.256-.784.736-.288.48-.432 1.168a7.4 7.4 0 0 0-.144 1.52v1.824q0 .849.144 1.536.144.672.432 1.152.304.48.784.752.48.256 1.152.256m0-3.664q-.56 0-.784-.224a.77.77 0 0 1-.208-.544v-.352a.77.77 0 0 1 .208-.544q.224-.224.784-.224t.768.224q.224.225.224.544v.352a.74.74 0 0 1-.224.544q-.209.225-.768.224m8.906 2.464h2.064l-1.84 4.432h-1.072zm10.282 2.368q-1.025 0-1.76-.384a3.34 3.34 0 0 1-1.216-1.136q-.48-.735-.704-1.808-.224-1.071-.224-2.448 0-1.36.224-2.432.224-1.087.704-1.824.48-.736 1.216-1.12.735-.4 1.76-.4 1.023 0 1.76.4.736.385 1.216 1.12.48.737.704 1.824.224 1.073.224 2.432 0 1.377-.224 2.448-.224 1.073-.704 1.808-.48.737-1.216 1.136-.737.384-1.76.384m0-1.168q.672 0 1.152-.256.48-.272.768-.752.304-.48.448-1.152.144-.687.144-1.536v-1.824a7.4 7.4 0 0 0-.144-1.52 3.5 3.5 0 0 0-.448-1.168 1.96 1.96 0 0 0-.768-.736q-.48-.272-1.152-.272t-1.152.272a2.07 2.07 0 0 0-.784.736q-.288.48-.432 1.168a7.4 7.4 0 0 0-.144 1.52v1.824q0 .849.144 1.536.144.672.432 1.152.304.48.784.752.48.256 1.152.256m0-3.664q-.56 0-.784-.224a.77.77 0 0 1-.208-.544v-.352a.77.77 0 0 1 .208-.544q.223-.224.784-.224.56 0 .768.224.224.225.224.544v.352a.74.74 0 0 1-.224.544q-.209.225-.768.224m9.593 4.832q-1.023 0-1.76-.384a3.34 3.34 0 0 1-1.216-1.136q-.48-.735-.704-1.808-.224-1.071-.224-2.448 0-1.36.224-2.432.224-1.087.704-1.824.48-.736 1.216-1.12.737-.4 1.76-.4 1.025 0 1.76.4.736.385 1.216 1.12.48.737.704 1.824.225 1.073.224 2.432 0 1.377-.224 2.448-.224 1.073-.704 1.808-.48.737-1.216 1.136-.735.384-1.76.384m0-1.168q.672 0 1.152-.256.48-.272.768-.752.304-.48.448-1.152.144-.687.144-1.536v-1.824a7.4 7.4 0 0 0-.144-1.52 3.5 3.5 0 0 0-.448-1.168 1.96 1.96 0 0 0-.768-.736q-.48-.272-1.152-.272t-1.152.272q-.48.256-.784.736-.288.48-.432 1.168a7.4 7.4 0 0 0-.144 1.52v1.824q0 .849.144 1.536.144.672.432 1.152.304.48.784.752.48.256 1.152.256m0-3.664q-.56 0-.784-.224a.77.77 0 0 1-.208-.544v-.352q0-.32.208-.544.225-.224.784-.224.561 0 .768.224a.74.74 0 0 1 .224.544v.352a.74.74 0 0 1-.224.544q-.207.225-.768.224m9.594 4.832q-1.024 0-1.76-.384a3.34 3.34 0 0 1-1.216-1.136q-.48-.735-.704-1.808-.224-1.071-.224-2.448 0-1.36.224-2.432.224-1.087.704-1.824.48-.736 1.216-1.12.736-.4 1.76-.4t1.76.4q.736.385 1.216 1.12.48.737.704 1.824.224 1.073.224 2.432 0 1.377-.224 2.448-.224 1.073-.704 1.808-.48.737-1.216 1.136-.736.384-1.76.384m0-1.168q.672 0 1.152-.256.48-.272.768-.752.304-.48.448-1.152.144-.687.144-1.536v-1.824a7.4 7.4 0 0 0-.144-1.52 3.5 3.5 0 0 0-.448-1.168 1.96 1.96 0 0 0-.768-.736q-.48-.272-1.152-.272t-1.152.272q-.48.256-.784.736-.288.48-.432 1.168a7.4 7.4 0 0 0-.144 1.52v1.824q0 .849.144 1.536.144.672.432 1.152.304.48.784.752.48.256 1.152.256m0-3.664q-.56 0-.784-.224a.77.77 0 0 1-.208-.544v-.352a.77.77 0 0 1 .208-.544q.224-.224.784-.224t.768.224q.224.225.224.544v.352a.74.74 0 0 1-.224.544q-.209.225-.768.224M109.004 41.094h-4.992l-.32 4.272h.112q.416-.56.928-.88.512-.336 1.408-.336.737 0 1.344.24.624.225 1.072.672.448.449.704 1.088.256.624.256 1.44t-.256 1.504a3.3 3.3 0 0 1-.752 1.168q-.496.48-1.2.752t-1.6.272a4.6 4.6 0 0 1-1.264-.16 3.9 3.9 0 0 1-.976-.432 4 4 0 0 1-.736-.608 6 6 0 0 1-.576-.704l1.008-.768q.224.336.448.608.24.273.544.48.304.192.688.304t.896.112q1.152 0 1.76-.624.624-.624.624-1.728v-.128q0-1.104-.624-1.728t-1.792-.624q-.8 0-1.248.272a4 4 0 0 0-.8.672l-1.136-.16.4-6.144h6.08zm5.69 7.824h2.064l-1.84 4.432h-1.072zm10.282 2.368q-1.025 0-1.76-.384A3.34 3.34 0 0 1 122 49.766q-.48-.735-.704-1.808-.225-1.071-.224-2.448 0-1.36.224-2.432.224-1.087.704-1.824.48-.735 1.216-1.12.735-.4 1.76-.4 1.023 0 1.76.4.736.385 1.216 1.12t.704 1.824q.224 1.073.224 2.432 0 1.377-.224 2.448-.224 1.073-.704 1.808t-1.216 1.136q-.737.384-1.76.384m0-1.168q.672 0 1.152-.256.48-.272.768-.752.303-.48.448-1.152a7.5 7.5 0 0 0 .144-1.536v-1.824q0-.831-.144-1.52a3.5 3.5 0 0 0-.448-1.168 1.96 1.96 0 0 0-.768-.736q-.48-.272-1.152-.272t-1.152.272q-.48.255-.784.736-.288.48-.432 1.168a7.4 7.4 0 0 0-.144 1.52v1.824q0 .849.144 1.536.144.672.432 1.152.303.48.784.752.48.256 1.152.256m0-3.664q-.56 0-.784-.224a.77.77 0 0 1-.208-.544v-.352a.77.77 0 0 1 .208-.544q.223-.224.784-.224.56 0 .768.224.224.224.224.544v.352a.74.74 0 0 1-.224.544q-.208.224-.768.224m9.593 4.832q-1.023 0-1.76-.384a3.35 3.35 0 0 1-1.216-1.136q-.48-.735-.704-1.808-.224-1.071-.224-2.448 0-1.36.224-2.432.224-1.087.704-1.824a3.2 3.2 0 0 1 1.216-1.12q.737-.4 1.76-.4 1.025 0 1.76.4.736.385 1.216 1.12t.704 1.824q.225 1.073.224 2.432 0 1.377-.224 2.448-.224 1.073-.704 1.808t-1.216 1.136q-.735.384-1.76.384m0-1.168q.672 0 1.152-.256.48-.272.768-.752.304-.48.448-1.152a7.5 7.5 0 0 0 .144-1.536v-1.824q0-.831-.144-1.52a3.5 3.5 0 0 0-.448-1.168 1.96 1.96 0 0 0-.768-.736q-.48-.272-1.152-.272t-1.152.272q-.48.255-.784.736-.288.48-.432 1.168a7.4 7.4 0 0 0-.144 1.52v1.824q0 .849.144 1.536.144.672.432 1.152.304.48.784.752.48.256 1.152.256m0-3.664q-.56 0-.784-.224a.77.77 0 0 1-.208-.544v-.352q0-.32.208-.544.225-.224.784-.224.561 0 .768.224.225.224.224.544v.352a.74.74 0 0 1-.224.544q-.207.224-.768.224m9.594 4.832q-1.024 0-1.76-.384a3.34 3.34 0 0 1-1.216-1.136q-.48-.735-.704-1.808-.224-1.071-.224-2.448 0-1.36.224-2.432.224-1.087.704-1.824.48-.735 1.216-1.12.736-.4 1.76-.4t1.76.4q.736.385 1.216 1.12t.704 1.824q.224 1.073.224 2.432 0 1.377-.224 2.448-.224 1.073-.704 1.808t-1.216 1.136q-.736.384-1.76.384m0-1.168q.672 0 1.152-.256.48-.272.768-.752.304-.48.448-1.152a7.5 7.5 0 0 0 .144-1.536v-1.824q0-.831-.144-1.52a3.5 3.5 0 0 0-.448-1.168 1.96 1.96 0 0 0-.768-.736q-.48-.272-1.152-.272t-1.152.272q-.48.255-.784.736-.288.48-.432 1.168a7.4 7.4 0 0 0-.144 1.52v1.824q0 .849.144 1.536.144.672.432 1.152.304.48.784.752.48.256 1.152.256m0-3.664q-.56 0-.784-.224a.77.77 0 0 1-.208-.544v-.352a.77.77 0 0 1 .208-.544q.224-.224.784-.224t.768.224q.224.224.224.544v.352a.74.74 0 0 1-.224.544q-.209.224-.768.224m8.906 2.464h2.064l-1.84 4.432h-1.072zm10.282 2.368q-1.025 0-1.76-.384a3.34 3.34 0 0 1-1.216-1.136q-.48-.735-.704-1.808-.224-1.071-.224-2.448 0-1.36.224-2.432.224-1.087.704-1.824.48-.735 1.216-1.12.735-.4 1.76-.4 1.023 0 1.76.4.736.385 1.216 1.12t.704 1.824q.224 1.073.224 2.432 0 1.377-.224 2.448-.224 1.073-.704 1.808t-1.216 1.136q-.737.384-1.76.384m0-1.168q.672 0 1.152-.256.48-.272.768-.752.304-.48.448-1.152a7.5 7.5 0 0 0 .144-1.536v-1.824q0-.831-.144-1.52a3.5 3.5 0 0 0-.448-1.168 1.96 1.96 0 0 0-.768-.736q-.48-.272-1.152-.272t-1.152.272q-.48.255-.784.736-.288.48-.432 1.168a7.4 7.4 0 0 0-.144 1.52v1.824q0 .849.144 1.536.144.672.432 1.152.304.48.784.752.48.256 1.152.256m0-3.664q-.56 0-.784-.224a.77.77 0 0 1-.208-.544v-.352a.77.77 0 0 1 .208-.544q.223-.224.784-.224.56 0 .768.224.224.224.224.544v.352a.74.74 0 0 1-.224.544q-.209.224-.768.224m9.593 4.832q-1.023 0-1.76-.384a3.35 3.35 0 0 1-1.216-1.136q-.48-.735-.704-1.808-.224-1.071-.224-2.448 0-1.36.224-2.432.224-1.087.704-1.824a3.2 3.2 0 0 1 1.216-1.12q.737-.4 1.76-.4 1.025 0 1.76.4.736.385 1.216 1.12t.704 1.824q.225 1.073.224 2.432 0 1.377-.224 2.448-.224 1.073-.704 1.808t-1.216 1.136q-.735.384-1.76.384m0-1.168q.672 0 1.152-.256.48-.272.768-.752.304-.48.448-1.152a7.5 7.5 0 0 0 .144-1.536v-1.824q0-.831-.144-1.52a3.5 3.5 0 0 0-.448-1.168 1.96 1.96 0 0 0-.768-.736q-.48-.272-1.152-.272t-1.152.272q-.48.255-.784.736-.288.48-.432 1.168a7.4 7.4 0 0 0-.144 1.52v1.824q0 .849.144 1.536.144.672.432 1.152.304.48.784.752.48.256 1.152.256m0-3.664q-.56 0-.784-.224a.77.77 0 0 1-.208-.544v-.352q0-.32.208-.544.225-.224.784-.224.561 0 .768.224.225.224.224.544v.352a.74.74 0 0 1-.224.544q-.207.224-.768.224m9.594 4.832q-1.024 0-1.76-.384a3.34 3.34 0 0 1-1.216-1.136q-.48-.735-.704-1.808-.224-1.071-.224-2.448 0-1.36.224-2.432.224-1.087.704-1.824.48-.735 1.216-1.12.736-.4 1.76-.4t1.76.4q.736.385 1.216 1.12t.704 1.824q.224 1.073.224 2.432 0 1.377-.224 2.448-.224 1.073-.704 1.808t-1.216 1.136q-.736.384-1.76.384m0-1.168q.672 0 1.152-.256.48-.272.768-.752.304-.48.448-1.152a7.5 7.5 0 0 0 .144-1.536v-1.824q0-.831-.144-1.52a3.5 3.5 0 0 0-.448-1.168 1.96 1.96 0 0 0-.768-.736q-.48-.272-1.152-.272t-1.152.272q-.48.255-.784.736-.288.48-.432 1.168a7.4 7.4 0 0 0-.144 1.52v1.824q0 .849.144 1.536.144.672.432 1.152.304.48.784.752.48.256 1.152.256m0-3.664q-.56 0-.784-.224a.77.77 0 0 1-.208-.544v-.352a.77.77 0 0 1 .208-.544q.224-.224.784-.224t.768.224q.224.224.224.544v.352a.74.74 0 0 1-.224.544q-.209.224-.768.224"/><path stroke="#58a65c" stroke-linecap="round" stroke-linejoin="round" stroke-width="2" d="M196.998 597.19c18.995-99.942 136.211-282.767 219.131-350.593 81.981-67.058 128.788-111.95 231.765-182.157"/><path stroke="#91cfd5" stroke-linecap="round" stroke-linejoin="round" stroke-width="2" d="M196.998 597.19c10.995-48.125 33.785-148.386 36.984-164.427h25.989c4.798 0 21.99-3.342 29.987-5.013l21.991-8.021h128.945"/><path stroke="#f5d266" stroke-linecap="round" stroke-linejoin="round" stroke-width="2" d="M196.894 596.729h50.677c3.378-22.333 12.415-71 21.537-87 11.403-20 32.94-42 36.741-46s35.474-77 57.012-95 62.079-62 72.215-65"/><path stroke="#d85140" stroke-linecap="round" stroke-linejoin="round" stroke-width="2" d="m196.894 596.729 13.026-7.026 12.024-17.062 19.039-17.061 10.02-11.04 22.044-11.041 32.065-17.061 27.055-18.066 28.056-9.033 38.077-10.036h39.079l47.095-10.037 33.067-19.069 23.047-18.065 20.04-18.066 25.051-21.076 24.049-20.073 20.04-7.026 25.051-10.036 25.05-23.084 28.057-20.073 46.093-43.156 28.057-28.102"/><path stroke="#f1bf42" stroke-linecap="round" stroke-linejoin="round" stroke-width="2" d="M196.894 596.599c26.423 1.667 85.932-3.034 106.363-16.006 23.154-14.699 30.438-26.342 32.11-29.009l18.062-14.005 20.068-20.007 31.107-28.009 27.092-29.01 29.1-12.004 24.082-18.006 28.096-26.008 22.076-27.009 27.092-26.009 20.069-33.011 23.079-29.01 19.065-20.006 33.113-32.011 27.093-18.006h15.052l22.075-13.004 34.117-33.011 39.133-32.011 40.138-22.007"/><path stroke="#69bbc4" stroke-linecap="round" stroke-linejoin="round" stroke-width="2" d="M196.894 596.729h56.138l92.228-7.01 40.099-8.012 53.131-27.038 40.099-31.045 33.081-19.027 32.079-21.03 24.06-24.034 39.096-24.035 32.079-23.032 20.05-12.018 17.042-6.008"/><path stroke="#84c08c" stroke-linecap="round" stroke-linejoin="round" stroke-width="2" d="M196.894 596.729h68.276l63.257-8.114 29.118-6.085 67.273-11.157 50.203-6.085 51.208-17.242 45.183-19.27 54.22-21.298 51.208-28.398 36.146-24.342 22.09-21.298"/><path stroke="#f19e5c" stroke-linecap="round" stroke-linejoin="round" stroke-width="2" d="M196.998 596.729H327.78c18.302-2.717 56.106-7.948 60.898-7.133s39.268-7.132 55.907-11.208l30.948-7.132 56.905-7.133 67.887-6.113 40.932-15.284 6.988-10.189 14.975-10.189 37.937-24.454 38.935-19.36 9.984-5.094"/><path stroke="#5383ec" stroke-linecap="round" stroke-linejoin="round" stroke-width="2" d="M196.894 596.729c64.469-1.671 208.839-7.619 270.57-18.045s69.813-11.027 66.139-10.025l40.084-6.015 27.558-4.01 46.598-19.047 50.106-27.067 29.061-18.045 31.066-14.035"/><path stroke="#85a9f1" stroke-linecap="round" stroke-linejoin="round" stroke-width="2" d="m196.894 596.729 143.031-5.009 77.017-5.01 51.011-5.009 103.022-9.017 105.023-12.022 9.002-9.017 24.005-10.019 34.008-11.02 52.011-22.041 55.012-20.038 72.016-18.033 71.015-18.034 39.013-11.02"/><path stroke="#ed762f" stroke-linecap="round" stroke-linejoin="round" stroke-width="2" d="m196.894 596.729 590.122-7.976 7.002-6.979 8.001-10.966h43.009l6.002-7.976 12.002-12.961 13.003-12.96 16.003-8.973 16.003-9.969 22.005-9.97 14.003-5.982 11.002-9.97 10.002-63.805 8.002-97.703 13.003-97.703 23.002-68.791 64.02-129.605"/><path stroke="#e18176" stroke-width="2" d="M196.998 596.729h69.008l44.005-7.054 39.005-13.1 24.002-12.093 38.005-30.232 36.004-26.2 22.003-11.085 36.004-17.132 29.004-6.046 52.006-8.062 55.006-7.054 62.008-9.069 54.006-8.062 97.012-13.1"/><path fill="#ededed" d="M483.415 671.194h4.095q2.688 0 4.011 1.848t1.323 5.481-1.323 5.481-4.011 1.848h-4.095zm4.011 13.125q1.764 0 2.646-1.218.903-1.218.903-3.444v-2.268q0-2.226-.903-3.444-.882-1.218-2.646-1.218h-2.247v11.592zm16.687 1.533-1.239-4.179h-5.145l-1.239 4.179h-1.827l4.494-14.658h2.331l4.494 14.658zm-3.717-12.789h-.189l-2.058 7.077h4.305zm11.626 12.789v-5.754l-5.061-8.904h2.016l2.1 3.822 1.785 3.339h.084l1.827-3.339 2.1-3.822h1.974l-5.061 8.904v5.754zm13.431.252q-1.974 0-3.234-.714a6.7 6.7 0 0 1-2.079-1.869l1.281-1.05q.861 1.071 1.806 1.596.966.525 2.289.525 1.596 0 2.436-.735t.84-2.058q0-1.071-.609-1.659-.609-.609-2.121-.861l-1.638-.273q-1.071-.189-1.806-.567a3.8 3.8 0 0 1-1.155-.903 3.4 3.4 0 0 1-.63-1.176 4.8 4.8 0 0 1-.189-1.344q0-2.016 1.323-3.045t3.57-1.029q1.764 0 2.961.588a4.9 4.9 0 0 1 1.953 1.659l-1.239 1.071a5 5 0 0 0-1.47-1.302q-.861-.504-2.226-.504-1.491 0-2.289.63t-.798 1.89q0 .987.588 1.617.609.609 2.163.882l1.575.273q1.071.189 1.806.567t1.176.903q.462.525.651 1.176t.189 1.365q0 2.037-1.344 3.192-1.323 1.155-3.78 1.155m25.184 0q-1.974 0-3.234-.714a6.7 6.7 0 0 1-2.079-1.869l1.281-1.05q.861 1.071 1.806 1.596.966.525 2.289.525 1.596 0 2.436-.735t.84-2.058q0-1.071-.609-1.659-.609-.609-2.121-.861l-1.638-.273q-1.071-.189-1.806-.567a3.8 3.8 0 0 1-1.155-.903 3.4 3.4 0 0 1-.63-1.176 4.8 4.8 0 0 1-.189-1.344q0-2.016 1.323-3.045t3.57-1.029q1.764 0 2.961.588a4.9 4.9 0 0 1 1.953 1.659l-1.239 1.071a5 5 0 0 0-1.47-1.302q-.861-.504-2.226-.504-1.491 0-2.289.63t-.798 1.89q0 .987.588 1.617.609.609 2.163.882l1.575.273q1.071.189 1.806.567t1.176.903q.462.525.651 1.176t.189 1.365q0 2.037-1.344 3.192-1.323 1.155-3.78 1.155m8.098-.252v-1.407h3.654v-11.844h-3.654v-1.407h9.072v1.407h-3.654v11.844h3.654v1.407zm14.251-12.411h-.147v12.411h-1.596v-14.658h2.499l4.998 12.285h.147v-12.285h1.596v14.658h-2.499zm15.951 12.663q-2.688 0-4.011-1.953-1.302-1.953-1.302-5.628t1.302-5.628q1.323-1.953 4.011-1.953 1.008 0 1.743.273t1.26.735.882 1.05q.357.567.63 1.155l-1.512.693a6 6 0 0 0-.441-.903 3 3 0 0 0-.609-.756 2.4 2.4 0 0 0-.819-.525q-.462-.189-1.134-.189-1.743 0-2.604 1.323-.84 1.323-.84 3.528v2.394q0 2.205.84 3.528.861 1.323 2.604 1.323.672 0 1.134-.189.483-.189.819-.504.357-.336.609-.756.252-.441.441-.924l1.512.693a9.5 9.5 0 0 1-.63 1.176 4.7 4.7 0 0 1-.882 1.029q-.525.462-1.26.735t-1.743.273m7.699-.252v-14.658h9.03v1.533H598.4v4.935h7.014v1.533H598.4v5.124h7.266v1.533zm25.814 0v-14.658h1.764v13.125h6.951v1.533zm20.172 0-1.239-4.179h-5.145l-1.239 4.179h-1.827l4.494-14.658h2.331l4.494 14.658zm-3.717-12.789h-.189l-2.058 7.077h4.305zm9.652-1.869v8.799q0 1.071.063 1.911t.336 1.449q.273.588.84.903.588.315 1.617.315t1.596-.315q.588-.315.861-.903.273-.609.336-1.449t.063-1.911v-8.799h1.764v8.379q0 1.638-.168 2.856-.147 1.218-.651 2.037-.483.819-1.407 1.239-.903.399-2.394.399t-2.415-.399a3.2 3.2 0 0 1-1.407-1.239q-.483-.819-.651-2.037a24 24 0 0 1-.147-2.856v-8.379zm12.571 2.247h-.147v12.411h-1.596v-14.658h2.499l4.998 12.285h.147v-12.285h1.596v14.658h-2.499zm15.952 12.663q-2.688 0-4.011-1.953-1.302-1.953-1.302-5.628t1.302-5.628q1.323-1.953 4.011-1.953 1.008 0 1.743.273t1.26.735.882 1.05q.357.567.63 1.155l-1.512.693a6 6 0 0 0-.441-.903 3 3 0 0 0-.609-.756 2.4 2.4 0 0 0-.819-.525q-.462-.189-1.134-.189-1.743 0-2.604 1.323-.84 1.323-.84 3.528v2.394q0 2.205.84 3.528.861 1.323 2.604 1.323.672 0 1.134-.189.483-.189.819-.504.357-.336.609-.756.252-.441.441-.924l1.512.693a9.5 9.5 0 0 1-.63 1.176 4.7 4.7 0 0 1-.882 1.029q-.525.462-1.26.735t-1.743.273m14.965-6.909h-5.712v6.657h-1.764v-14.658h1.764v6.468h5.712v-6.468h1.764v14.658h-1.764zM65.769 287.779h-8.8q-1.07 0-1.91.063t-1.45.336a1.95 1.95 0 0 0-.902.84q-.315.588-.315 1.617t.315 1.596q.314.588.903.861.609.273 1.449.336t1.91.063h8.8v1.764h-8.38q-1.637 0-2.855-.168-1.218-.147-2.037-.651-.82-.483-1.24-1.407-.398-.903-.398-2.394t.399-2.415a3.2 3.2 0 0 1 1.239-1.407q.819-.483 2.037-.651a24 24 0 0 1 2.856-.147h8.379zm-14.91 15.406q0-1.974.714-3.234a6.7 6.7 0 0 1 1.869-2.079l1.05 1.281q-1.071.861-1.596 1.806-.525.966-.525 2.289 0 1.596.735 2.436t2.058.84q1.071 0 1.659-.609.61-.609.86-2.121l.274-1.638q.189-1.071.567-1.806.378-.714.903-1.155a3.4 3.4 0 0 1 1.176-.63 4.8 4.8 0 0 1 1.344-.189q2.016 0 3.045 1.323t1.029 3.57q0 1.764-.588 2.961a4.9 4.9 0 0 1-1.66 1.953l-1.07-1.239a5 5 0 0 0 1.302-1.47q.504-.861.504-2.226 0-1.491-.63-2.289t-1.89-.798q-.987 0-1.617.588-.609.609-.882 2.163l-.273 1.575q-.189 1.071-.567 1.806t-.903 1.176a3.05 3.05 0 0 1-1.176.651 4.9 4.9 0 0 1-1.365.189q-2.037 0-3.192-1.344-1.155-1.323-1.155-3.78m.252 8.224h14.658v9.03h-1.533v-7.266H59.3v7.014h-1.533v-7.014h-5.124v7.266H51.11zm0 14.356v-1.764h14.658v5.334q0 2.037-1.113 3.108t-3.108 1.071q-1.785 0-2.856-.924t-1.24-2.688l-6.341 3.738v-1.974l6.258-3.57v-2.331zm7.749 3.528q0 1.113.546 1.722.567.63 1.596.63h1.092q1.028 0 1.575-.63.567-.609.567-1.722v-3.528H58.86zm-8.001 11.668q0-1.974.714-3.234a6.7 6.7 0 0 1 1.869-2.079l1.05 1.281q-1.071.861-1.596 1.806-.525.966-.525 2.289 0 1.596.735 2.436t2.058.84q1.071 0 1.659-.609.61-.609.86-2.121l.274-1.638q.189-1.071.567-1.806.378-.714.903-1.155a3.4 3.4 0 0 1 1.176-.63 4.8 4.8 0 0 1 1.344-.189q2.016 0 3.045 1.323t1.029 3.57q0 1.764-.588 2.961a4.9 4.9 0 0 1-1.66 1.953l-1.07-1.239a5 5 0 0 0 1.302-1.47q.504-.861.504-2.226 0-1.491-.63-2.289t-1.89-.798q-.987 0-1.617.588-.609.609-.882 2.163l-.273 1.575q-.189 1.071-.567 1.806t-.903 1.176a3.05 3.05 0 0 1-1.176.651 4.9 4.9 0 0 1-1.365.189q-2.037 0-3.192-1.344-1.155-1.323-1.155-3.78"/></g><defs><clipPath id="a"><path fill="#fff" d="M0 0h1080v740H0z"/></clipPath></defs></svg>