<svg width="24" height="24" viewBox="0 0 24 24" xmlns="http://www.w3.org/2000/svg" fill="none" stroke="currentColor"
    stroke-width="1">
    <path
        d="M5.24121 15.0674H12.7412M5.24121 15.0674V18.0674H12.7412V15.0674M5.24121 15.0674V12.0674H12.7412V15.0674M15 7.60547V4.60547C15 2.94861 13.6569 1.60547 12 1.60547C10.3431 1.60547 9 2.94861 9 4.60547V7.60547M5.20898 9.60547L5.20898 19.1055C5.20898 20.21 6.10441 21.1055 7.20898 21.1055H16.709C17.8136 21.1055 18.709 20.21 18.709 19.1055V9.60547C18.709 8.5009 17.8136 7.60547 16.709 7.60547L7.20899 7.60547C6.10442 7.60547 5.20898 8.5009 5.20898 9.60547Z" />
</svg>