<svg width="24" height="24" viewBox="0 0 24 24" fill="none" stroke="none" xmlns="http://www.w3.org/2000/svg">
<path d="M20.5647 10.1815C21.0185 8.8202 20.8627 7.3302 20.138 6.09079C19.0476 4.19442 16.8532 3.21915 14.713 3.67292C13.7581 2.60283 12.39 1.99328 10.9542 2.00006C8.76659 2.00006 6.82281 3.40879 6.14554 5.48801C4.73681 5.77924 3.52449 6.6597 2.81335 7.90588C1.71617 9.80225 1.96676 12.1863 3.43644 13.8117C2.98267 15.173 3.13844 16.663 3.86312 17.8957C4.95354 19.7988 7.1479 20.7741 9.29486 20.3203C10.243 21.3904 11.6111 22.0067 13.047 21.9999C15.2345 21.9999 17.1783 20.5912 17.8556 18.512C19.2643 18.2208 20.4766 17.3403 21.181 16.0941C22.285 14.1978 22.0344 11.8138 20.5647 10.1883V10.1815ZM19.007 6.74774C19.4404 7.50629 19.603 8.39352 19.454 9.25366C19.4269 9.23334 19.3727 9.20625 19.3388 9.18593L15.3565 6.8832C15.1533 6.76806 14.9027 6.76806 14.6995 6.8832L10.0331 9.57875V7.60111L13.8868 5.37288C15.6815 4.33665 17.9707 4.95297 19.007 6.74774ZM10.0331 10.8588L11.9972 9.72097L13.9613 10.8588V13.1277L11.9972 14.2655L10.0331 13.1277V10.8588ZM10.9474 3.30719C11.8279 3.30719 12.6745 3.61197 13.3517 4.1741C13.3246 4.18765 13.2705 4.22151 13.2298 4.24183L9.24745 6.53779C9.04427 6.65293 8.92236 6.86965 8.92236 7.1067V12.4978L7.20886 11.509V7.05252C7.20886 4.98006 8.88172 3.30719 10.9542 3.30042L10.9474 3.30719ZM3.95117 8.56284C4.3914 7.80429 5.07544 7.22184 5.90172 6.91706V11.6512C5.90172 11.8883 6.02363 12.0982 6.22681 12.2201L10.8865 14.9089L9.16618 15.9045L5.31926 13.683C3.53126 12.6468 2.91494 10.3576 3.95117 8.56284ZM5.00094 17.2523C4.56072 16.5005 4.40494 15.6065 4.55394 14.7463C4.58103 14.7667 4.63522 14.7938 4.66908 14.8141L8.65145 17.1168C8.85463 17.2319 9.10522 17.2319 9.3084 17.1168L13.968 14.4213V16.3989L10.1144 18.6204C8.31958 19.6498 6.0304 19.0403 4.99417 17.2523H5.00094ZM13.0537 20.6928C12.18 20.6928 11.3267 20.388 10.6562 19.8259C10.6833 19.8124 10.7442 19.7785 10.7781 19.7582L14.7605 17.4622C14.9636 17.3471 15.0923 17.1303 15.0855 16.8933V11.509L16.799 12.4978V16.9475C16.799 19.0199 15.1194 20.6996 13.0537 20.6996V20.6928ZM20.0567 15.4372C19.6165 16.1957 18.9257 16.7782 18.1062 17.0762V12.342C18.1062 12.105 17.9843 11.8883 17.7811 11.7731L13.1147 9.07756L14.8282 8.08875L18.6819 10.3102C20.4766 11.3464 21.0862 13.6356 20.05 15.4304L20.0567 15.4372Z" fill="currentColor"/>
</svg>
