<svg width="24" height="24" viewBox="0 0 24 24" fill="none" xmlns="http://www.w3.org/2000/svg">
  <path fill-rule="evenodd" clip-rule="evenodd" d="M13.7377 6.5363C14.145 6.61196 14.4138 7.00343 14.3381 7.41068L12.5869 16.8366C12.5112 17.2438 12.1197 17.5126 11.7125 17.437C11.3052 17.3613 11.0364 16.9698 11.1121 16.5626L12.8633 7.13669C12.939 6.72944 13.3305 6.46064 13.7377 6.5363Z" fill="#EDEDED"/>
  <path fill-rule="evenodd" clip-rule="evenodd" d="M15.7279 9.10834C16.0208 8.81543 16.4957 8.81539 16.7886 9.10826L19.1499 11.4692C19.2906 11.6099 19.3696 11.8007 19.3696 11.9996C19.3696 12.1985 19.2906 12.3893 19.15 12.5299L16.7886 14.8913C16.4957 15.1842 16.0209 15.1842 15.728 14.8913C15.4351 14.5984 15.4351 14.1235 15.728 13.8306L17.5589 11.9997L15.728 10.169C15.4351 9.87613 15.4351 9.40126 15.7279 9.10834Z" fill="#EDEDED"/>
  <path fill-rule="evenodd" clip-rule="evenodd" d="M9.72153 14.8913C9.42866 15.1842 8.95379 15.1842 8.66087 14.8913L6.29954 12.5303C6.15887 12.3897 6.07983 12.1989 6.07983 12C6.07982 11.8011 6.15884 11.6103 6.2995 11.4696L8.66083 9.10831C8.95373 8.81542 9.4286 8.81542 9.72149 9.10831C10.0144 9.4012 10.0144 9.87608 9.72149 10.169L7.89053 11.9999L9.72145 13.8306C10.0144 14.1235 10.0144 14.5983 9.72153 14.8913Z" fill="#EDEDED"/>
  <path fill-rule="evenodd" clip-rule="evenodd" d="M2.95312 6C2.95312 3.92893 4.63206 2.25 6.70313 2.25H18.7031C20.7742 2.25 22.4531 3.92893 22.4531 6V18C22.4531 20.0711 20.7742 21.75 18.7031 21.75H6.70313C4.63206 21.75 2.95312 20.0711 2.95312 18V6ZM6.70313 3.75C5.46048 3.75 4.45313 4.75736 4.45313 6V18C4.45313 19.2426 5.46048 20.25 6.70313 20.25H18.7031C19.9458 20.25 20.9531 19.2426 20.9531 18V6C20.9531 4.75736 19.9458 3.75 18.7031 3.75H6.70313Z" fill="#EDEDED"/>
</svg>
