<svg width="24" height="24" viewBox="0 0 24 24" xmlns="http://www.w3.org/2000/svg" fill="none" stroke="currentColor"
    stroke-width="1">
    <path d=" M5.56774 9.70642H18.4547V15.7064H5.56774V9.70642Z" />
    <path d=" M4.5 16.7094C4.5 16.1571 4.94772 15.7094 5.5 15.7094H18.5C19.0523 15.7094 19.5 16.1571 19.5
        16.7094V20.7094C19.5 21.2616 19.0523 21.7094 18.5 21.7094H5.5C4.94772 21.7094 4.5 21.2616 4.5
        20.7094V16.7094Z" />
    <path
        d="M4.5 4.70679C4.5 4.1545 4.94772 3.70679 5.5 3.70679H18.5C19.0523 3.70679 19.5 4.1545 19.5 4.70679V8.70679C19.5 9.25907 19.0523 9.70679 18.5 9.70679H5.5C4.94772 9.70679 4.5 9.25907 4.5 8.70679V4.70679Z" />
</svg>