<svg
  xmlns="http://www.w3.org/2000/svg"
  width="24"
  height="24"
  viewBox="0 0 24 24"
  fill="none"
  stroke="none"
  stroke-width="2"
  stroke-linecap="round"
  stroke-linejoin="round"
>
  <path
    fill-rule="evenodd"
    clip-rule="evenodd"
    d="M20.317 4.51641C18.7874 3.81453 17.147 3.29742 15.4319 3.00125C15.4007 2.99553 15.3695 3.00981 15.3534 3.03839C15.1424 3.41359 14.9088 3.90309 14.7452 4.28784C12.9004 4.01166 11.0652 4.01166 9.25833 4.28784C9.09467 3.89454 8.85249 3.41359 8.64057 3.03839C8.62449 3.01076 8.59331 2.99648 8.56205 3.00125C6.84791 3.29646 5.20757 3.81359 3.67694 4.51641C3.66369 4.52213 3.65232 4.53165 3.64479 4.54403C0.533391 9.19239 -0.318949 13.7265 0.0991799 18.2043C0.101072 18.2262 0.113369 18.2472 0.130398 18.2606C2.18321 19.768 4.17171 20.6834 6.12329 21.29C6.15452 21.2994 6.18761 21.288 6.20748 21.2624C6.66912 20.6319 7.08065 19.9671 7.43348 19.2681C7.4543 19.2272 7.43442 19.1786 7.39187 19.1624C6.73913 18.9149 6.1176 18.6129 5.51973 18.27C5.47244 18.2424 5.46866 18.1748 5.51216 18.1425C5.63798 18.0482 5.76383 17.9501 5.88396 17.8511C5.9057 17.8329 5.93598 17.8292 5.96153 17.8406C9.88931 19.6338 14.1416 19.6338 18.023 17.8406C18.0485 17.8281 18.0788 17.8319 18.1016 17.85C18.2217 17.9492 18.3474 18.0482 18.4742 18.1425C18.5177 18.1748 18.515 18.2424 18.4676 18.27C17.8697 18.6195 17.2482 18.9149 16.5945 19.1615C16.5519 19.1777 16.533 19.2272 16.5539 19.2681C16.9143 19.9662 17.3258 20.6309 17.7789 21.2613C17.7978 21.288 17.8319 21.2994 17.8631 21.29C19.8242 20.6834 21.8127 19.768 23.8655 18.2606C23.8835 18.2472 23.8947 18.2273 23.8967 18.2054C24.3971 13.0284 23.0585 8.53148 20.3483 4.54497C20.3417 4.53165 20.3303 4.52213 20.317 4.51641ZM8.02002 15.4778C6.83749 15.4778 5.86314 14.3922 5.86314 13.0589C5.86314 11.7256 6.81861 10.64 8.02002 10.64C9.2309 10.64 10.1958 11.7351 10.1769 13.0589C10.1769 14.3922 9.22143 15.4778 8.02002 15.4778ZM15.9948 15.4778C14.8122 15.4778 13.8379 14.3922 13.8379 13.0589C13.8379 11.7256 14.7933 10.64 15.9948 10.64C17.2056 10.64 18.1706 11.7351 18.1517 13.0589C18.1517 14.3922 17.2056 15.4778 15.9948 15.4778Z"
    fill="currentColor"
  />
</svg>
