<svg
  xmlns="http://www.w3.org/2000/svg"
  width="24"
  height="24"
  viewBox="0 0 24 24"
  fill="none"
  stroke="none"
  stroke-width="2"
  stroke-linecap="round"
  stroke-linejoin="round"
>
  <path
    fill-rule="evenodd"
    clip-rule="evenodd"
    d="M0 4.61538C0 2.06639 2.06639 0 4.61539 0H19.3846C21.9336 0 24 2.06637 24 4.61538V14.5355C24 17.0845 21.9336 19.1508 19.3846 19.1508H11.4874L7.10394 23.7162C6.843 23.988 6.44307 24.074 6.09354 23.9333C5.74401 23.7926 5.51504 23.4537 5.51504 23.0769V19.1508H4.61539C2.06639 19.1508 0 17.0845 0 14.5355V4.61538ZM4.61539 1.84615C3.08598 1.84615 1.84615 3.08598 1.84615 4.61538V14.5355C1.84615 16.0649 3.08598 17.3047 4.61539 17.3047H6.43811C6.94791 17.3047 7.36118 17.718 7.36118 18.2278V20.7828L10.4282 17.5884C10.6023 17.4072 10.8427 17.3047 11.0941 17.3047H19.3846C20.9141 17.3047 22.1539 16.0649 22.1539 14.5355V4.61538C22.1539 3.08598 20.9141 1.84615 19.3846 1.84615H4.61539ZM8.30769 8.79719C8.81749 8.79719 9.23077 9.21047 9.23077 9.72026C9.23077 10.2301 8.81749 10.6433 8.30769 10.6433C7.7979 10.6433 7.38462 10.2301 7.38462 9.72026C7.38462 9.21047 7.7979 8.79719 8.30769 8.79719ZM12 8.79719C12.5098 8.79719 12.9231 9.21047 12.9231 9.72026C12.9231 10.2301 12.5098 10.6433 12 10.6433C11.4902 10.6433 11.0769 10.2301 11.0769 9.72026C11.0769 9.21047 11.4902 8.79719 12 8.79719ZM15.6923 8.79719C16.2021 8.79719 16.6154 9.21047 16.6154 9.72026C16.6154 10.2301 16.2021 10.6433 15.6923 10.6433C15.1825 10.6433 14.7692 10.2301 14.7692 9.72026C14.7692 9.21047 15.1825 8.79719 15.6923 8.79719Z"
    fill="currentColor"
  />
</svg>
