<svg width="24" height="24" viewBox="0 0 24 24" xmlns="http://www.w3.org/2000/svg" fill="none" stroke="currentColor"
    stroke-width="1">
    <path
        d="M18 12.1055C18 15.4192 15.3137 18.1055 12 18.1055C8.6863 18.1055 6.00001 15.4192 6.00001 12.1055C6.00001 8.79176 8.6863 6.10547 12 6.10547C15.3137 6.10547 18 8.79176 18 12.1055Z" />
    <path
        d="M21.3999 5.70154C21.3999 7.35839 20.0568 8.70154 18.3999 8.70154C16.7431 8.70154 15.3999 7.35839 15.3999 5.70154C15.3999 4.04468 16.7431 2.70154 18.3999 2.70154C20.0568 2.70154 21.3999 4.04468 21.3999 5.70154Z" />
    <path
        d="M8.62216 18.4363C8.62216 20.0932 7.27902 21.4363 5.62216 21.4363C3.96531 21.4363 2.62216 20.0932 2.62216 18.4363C2.62216 16.7795 3.96531 15.4363 5.62216 15.4363C7.27902 15.4363 8.62216 16.7795 8.62216 18.4363Z" />
    <path
        d="M3.18121 16.2691C2.58401 15.0065 2.25 13.595 2.25 12.1055C2.25 6.72069 6.61522 2.35547 12 2.35547C13.4893 2.35547 14.9005 2.68937 16.163 3.28638M7.68679 20.852C8.98715 21.4944 10.4514 21.8555 12 21.8555C17.3848 21.8555 21.75 17.4902 21.75 12.1055C21.75 10.6162 21.4161 9.20493 20.8191 7.94242" />
</svg>