<svg width="24" height="24" viewBox="0 0 24 24" fill="none" xmlns="http://www.w3.org/2000/svg">
<path d="M3.99988 20H19.9999C20.5303 20 21.039 19.7893 21.4141 19.4142C21.7892 19.0391 21.9999 18.5304 21.9999 18V8C21.9999 7.46957 21.7892 6.96086 21.4141 6.58579C21.039 6.21071 20.5303 6 19.9999 6H12.0699C11.7405 5.9983 11.4166 5.91525 11.127 5.75824C10.8374 5.60123 10.5911 5.37512 10.4099 5.1L9.58988 3.9C9.4087 3.62488 9.16237 3.39877 8.87278 3.24176C8.58319 3.08475 8.25929 3.0017 7.92988 3H3.99988C3.46944 3 2.96074 3.21071 2.58566 3.58579C2.21059 3.96086 1.99988 4.46957 1.99988 5V18C1.99988 19.1 2.89988 20 3.99988 20Z" stroke="currentColor" stroke-width="1.5" stroke-linecap="round" stroke-linejoin="round"/>
<path d="M5 10.5H19" stroke="currentColor" stroke-width="1.5" stroke-linecap="round" stroke-linejoin="round"/>
</svg>
