<svg width="24" height="24" viewBox="0 0 24 24" fill="none" xmlns="http://www.w3.org/2000/svg">
<path d="M11.9007 3.76857L19.0007 7.86775V16.0661M11.9007 3.76857L4.80072 7.86775V16.0661M11.9007 3.76857L19.0007 16.0661M11.9007 3.76857L4.80072 16.0661M19.0007 16.0661L11.9007 20.1653L4.80072 16.0661M19.0007 16.0661H4.80072M6.0164 16.1322C6.0164 16.7895 5.48358 17.3223 4.82631 17.3223C4.16905 17.3223 3.63623 16.7895 3.63623 16.1322C3.63623 15.4749 4.16905 14.9421 4.82631 14.9421C5.48358 14.9421 6.0164 15.4749 6.0164 16.1322ZM5.28912 16.1322C5.28912 16.3878 5.08192 16.595 4.82631 16.595C4.57071 16.595 4.3635 16.3878 4.3635 16.1322C4.3635 15.8766 4.57071 15.6694 4.82631 15.6694C5.08192 15.6694 5.28912 15.8766 5.28912 16.1322ZM20.2974 16.1322C20.2974 16.7895 19.7646 17.3223 19.1073 17.3223C18.45 17.3223 17.9172 16.7895 17.9172 16.1322C17.9172 15.4749 18.45 14.9421 19.1073 14.9421C19.7646 14.9421 20.2974 15.4749 20.2974 16.1322ZM19.5701 16.1322C19.5701 16.3878 19.3629 16.595 19.1073 16.595C18.8517 16.595 18.6445 16.3878 18.6445 16.1322C18.6445 15.8766 18.8517 15.6694 19.1073 15.6694C19.3629 15.6694 19.5701 15.8766 19.5701 16.1322ZM6.0164 7.86775C6.0164 8.52501 5.48358 9.05783 4.82631 9.05783C4.16905 9.05783 3.63623 8.52501 3.63623 7.86775C3.63623 7.21048 4.16905 6.67766 4.82631 6.67766C5.48358 6.67766 6.0164 7.21048 6.0164 7.86775ZM5.28912 7.86775C5.28912 8.12335 5.08192 8.33056 4.82631 8.33056C4.57071 8.33056 4.3635 8.12335 4.3635 7.86775C4.3635 7.61214 4.57071 7.40494 4.82631 7.40494C5.08192 7.40494 5.28912 7.61214 5.28912 7.86775ZM20.2974 7.86775C20.2974 8.52501 19.7646 9.05783 19.1073 9.05783C18.45 9.05783 17.9172 8.52501 17.9172 7.86775C17.9172 7.21048 18.45 6.67766 19.1073 6.67766C19.7646 6.67766 20.2974 7.21048 20.2974 7.86775ZM19.5701 7.86775C19.5701 8.12335 19.3629 8.33056 19.1073 8.33056C18.8517 8.33056 18.6445 8.12335 18.6445 7.86775C18.6445 7.61214 18.8517 7.40494 19.1073 7.40494C19.3629 7.40494 19.5701 7.61214 19.5701 7.86775ZM13.1569 3.76857C13.1569 4.42584 12.6241 4.95866 11.9668 4.95866C11.3095 4.95866 10.7767 4.42584 10.7767 3.76857C10.7767 3.11131 11.3095 2.57849 11.9668 2.57849C12.6241 2.57849 13.1569 3.11131 13.1569 3.76857ZM12.4296 3.76857C12.4296 4.02418 12.2224 4.23138 11.9668 4.23138C11.7112 4.23138 11.504 4.02418 11.504 3.76857C11.504 3.51297 11.7112 3.30576 11.9668 3.30576C12.2224 3.30576 12.4296 3.51297 12.4296 3.76857ZM13.1569 20.1653C13.1569 20.8225 12.6241 21.3553 11.9668 21.3553C11.3095 21.3553 10.7767 20.8225 10.7767 20.1653C10.7767 19.508 11.3095 18.9752 11.9668 18.9752C12.6241 18.9752 13.1569 19.508 13.1569 20.1653ZM12.4296 20.1653C12.4296 20.4209 12.2224 20.6281 11.9668 20.6281C11.7112 20.6281 11.504 20.4209 11.504 20.1653C11.504 19.9097 11.7112 19.7025 11.9668 19.7025C12.2224 19.7025 12.4296 19.9097 12.4296 20.1653Z" stroke="black" stroke-width="0.859504"/>
</svg>
