<svg width="24" height="24" viewBox="0 0 24 24" xmlns="http://www.w3.org/2000/svg" fill="none" stroke="currentColor"
    stroke-width="1">
    <path
        d="M17.2661 3.23254V10.7325M13.5161 6.98291L21.0161 6.98291M11.0391 16.9508C11.0391 19.1752 9.23585 20.9784 7.01147 20.9784C4.7871 20.9784 2.98389 19.1752 2.98389 16.9508C2.98389 14.7264 4.7871 12.9232 7.01147 12.9232C9.23585 12.9232 11.0391 14.7264 11.0391 16.9508ZM21.0161 19.8568V14.3568C21.0161 13.8045 20.5684 13.3568 20.0161 13.3568H14.5161C13.9638 13.3568 13.5161 13.8045 13.5161 14.3568V19.8568C13.5161 20.4091 13.9638 20.8568 14.5161 20.8568H20.0161C20.5684 20.8568 21.0161 20.4091 21.0161 19.8568ZM4.26221 10.7325H9.76221C10.3145 10.7325 10.7622 10.2848 10.7622 9.73254V4.23254C10.7622 3.68026 10.3145 3.23254 9.76221 3.23254H4.26221C3.70992 3.23254 3.26221 3.68026 3.26221 4.23254V9.73254C3.26221 10.2848 3.70992 10.7325 4.26221 10.7325Z" />
</svg>