<svg
  xmlns="http://www.w3.org/2000/svg"
  width="24"
  height="24"
  viewBox="0 0 24 24"
  fill="none"
  stroke="none"
  stroke-width="2"
  stroke-linecap="round"
  stroke-linejoin="round"
>
  <path
    fill="currentColor"
    d="M0 2.78789C0 1.97978 0.270278 1.31312 0.810812 0.787879C1.35134 0.262619 2.05406 0 2.91893 0C3.76835 0 4.45559 0.25857 4.98069 0.775758C5.52123 1.30909 5.7915 2.00403 5.7915 2.86061C5.7915 3.63636 5.52897 4.28282 5.00387 4.8C4.46333 5.33334 3.7529 5.6 2.87259 5.6H2.84942C2 5.6 1.31275 5.33334 0.787646 4.8C0.262541 4.26666 0 3.59595 0 2.78789ZM0.301158 24V7.80606H5.444V24H0.301158ZM8.29344 24H13.4363V14.9576C13.4363 14.3919 13.4981 13.9555 13.6216 13.6485C13.8378 13.099 14.166 12.6343 14.6062 12.2546C15.0464 11.8747 15.5985 11.6849 16.2626 11.6849C17.9924 11.6849 18.8571 12.9050 18.8571 15.3455V24H24V14.7152C24 12.3232 23.4594 10.5091 22.3784 9.27273C21.2973 8.03637 19.8687 7.41818 18.0927 7.41818C16.1004 7.41818 14.5483 8.31515 13.4363 10.1091V10.1576H13.4131L13.4363 10.1091V7.80606H8.29344C8.32431 8.32323 8.33978 9.93129 8.33978 12.6303C8.33978 15.3293 8.32431 19.1192 8.29344 24Z"
  />
</svg>
