<svg 
  xmlns="http://www.w3.org/2000/svg"
  width="24"
  height="24"
  viewBox="0 0 24 24"
  fill="none"
  stroke="none"
  stroke-width="2"
  stroke-linecap="round"
  stroke-linejoin="round"
>
  <path
    fill="currentColor"
    d="M10.9497 12.8269H14.3499C14.8273 12.8269 15.2852 12.6373 15.6227 12.2997C15.9602 11.9621 16.1499 11.5043 16.1499 11.0269C16.1499 10.5495 15.9602 10.0917 15.6227 9.75411C15.2852 9.41655 14.8273 9.22691 14.3499 9.22691H10.9497V12.8269ZM12.75 24.8269C19.3776 24.8269 24.75 19.4546 24.75 12.8269C24.75 6.19931 19.3776 0.826904 12.75 0.826904C6.1224 0.826904 0.75 6.19931 0.75 12.8269C0.75 19.4546 6.1224 24.8269 12.75 24.8269ZM8.54967 6.82691H14.3499C15.4638 6.82691 16.5321 7.26941 17.3198 8.05706C18.1074 8.84471 18.5499 9.91299 18.5499 11.0269C18.5499 12.1408 18.1074 13.2091 17.3198 13.9968C16.5321 14.7844 15.4638 15.2269 14.3499 15.2269H10.9497V18.8269H8.54967V6.82691Z"
  />
</svg>
