<svg width="24" height="24" viewBox="0 0 24 24" fill="none" xmlns="http://www.w3.org/2000/svg">
  <path fill-rule="evenodd" clip-rule="evenodd" d="M11.8217 2.21899C9.75065 2.21899 8.07174 3.89791 8.07174 5.96896V11.783C8.07174 11.8536 8.08148 11.9218 8.0997 11.9866C8.17354 12.3232 8.47349 12.5752 8.83229 12.5752H10.5494C10.8626 12.5752 11.1749 12.8513 11.1749 13.2656V15.0638C11.1749 15.3165 11.2998 15.54 11.4913 15.6759C11.6177 15.7729 11.7759 15.8306 11.9476 15.8306H17.9997C20.0707 15.8306 21.7496 14.1517 21.7496 12.0806V5.96896C21.7496 3.89791 20.0707 2.21899 17.9997 2.21899H11.8217ZM12.6749 14.3307H17.9997C19.2423 14.3307 20.2497 13.3233 20.2497 12.0806L20.2497 5.96896C20.2497 4.7263 19.2423 3.71893 17.9997 3.71893H11.8217C10.579 3.71893 9.57167 4.7263 9.57167 5.96896V11.0752H10.5494C10.9115 11.0752 11.2478 11.1666 11.5412 11.3263C11.5507 11.3157 11.5605 11.3052 11.5708 11.295L15.5026 7.36084L12.6816 7.36066C12.2674 7.36063 11.9316 7.02482 11.9317 6.61061C11.9317 6.1964 12.2675 5.86063 12.6817 5.86066L16.543 5.86091C17.3714 5.86096 18.0429 6.53248 18.0429 7.36085L18.0431 11.2597C18.0431 11.6739 17.7073 12.0097 17.2931 12.0097C16.8789 12.0097 16.5431 11.674 16.5431 11.2598L16.543 8.44186L12.6317 12.3553C12.597 12.3901 12.5597 12.4207 12.5205 12.4472C12.6204 12.7022 12.6749 12.9791 12.6749 13.2656V14.3307Z" fill="#EDEDED"/>
  <path d="M4.53957 11.0752H6.25666C6.67087 11.0752 7.00666 11.411 7.00666 11.8252C7.00666 12.2394 6.67087 12.5752 6.25666 12.5752H4.53957C4.22636 12.5752 3.91406 12.8513 3.91406 13.2656L3.91406 15.0638C3.91406 15.4781 3.57828 15.8138 3.16406 15.8138C2.74985 15.8138 2.41406 15.4781 2.41406 15.0638V13.2656C2.41406 12.0889 3.33344 11.0752 4.53957 11.0752Z" fill="#EDEDED"/>
  <path d="M3.16406 17.0111C3.57828 17.0111 3.91406 17.3469 3.91406 17.7611L3.91406 19.5593C3.91406 19.9737 4.22636 20.2498 4.53957 20.2498L6.25666 20.2498C6.67087 20.2498 7.00666 20.5856 7.00666 20.9998C7.00666 21.414 6.67087 21.7498 6.25666 21.7498L4.53957 21.7498C3.33344 21.7498 2.41406 20.7361 2.41406 19.5593V17.7611C2.41406 17.3469 2.74985 17.0111 3.16406 17.0111Z" fill="#EDEDED"/>
  <path d="M11.9249 17.0111C12.3391 17.0111 12.6749 17.3469 12.6749 17.7611V19.5593C12.6749 20.7361 11.7555 21.7498 10.5494 21.7498H8.83229C8.41807 21.7498 8.08229 21.414 8.08229 20.9998C8.08229 20.5856 8.41807 20.2498 8.83229 20.2498H10.5494C10.8626 20.2498 11.1749 19.9737 11.1749 19.5593V17.7611C11.1749 17.3469 11.5107 17.0111 11.9249 17.0111Z" fill="#EDEDED"/>
</svg>
