<svg width="24" height="24" viewBox="0 0 24 24" xmlns="http://www.w3.org/2000/svg" fill="none" stroke="currentColor"
    stroke-width="1">
    <path
        d="M19.0222 9.24778C18.7686 8.63209 18.9226 7.90445 19.0085 7.24413C19.0745 6.73688 18.9158 6.20546 18.5306 5.8112C18.1561 5.42795 17.6471 5.25574 17.1517 5.29628C16.465 5.35248 15.6993 5.49169 15.0673 5.2171C15.0337 5.20249 15 5.18812 14.9661 5.17399C14.3637 4.92272 13.9467 4.33388 13.548 3.81707C13.211 3.38025 12.6823 3.09888 12.088 3.09888C11.4954 3.09888 10.9681 3.37859 10.631 3.81318C10.2309 4.32895 9.81229 4.91673 9.20918 5.1664C9.17044 5.18244 9.13187 5.19879 9.09347 5.21545C8.46538 5.48794 7.70569 5.35157 7.02328 5.29619C6.5283 5.25601 6.01978 5.42825 5.64558 5.8112C5.26693 6.19871 5.10715 6.71872 5.16447 7.21806C5.24116 7.88619 5.39313 8.62174 5.13657 9.2434C4.89276 9.83417 4.31732 10.2511 3.8084 10.6377C3.36536 10.9743 3.07928 11.5068 3.07928 12.1061C3.07928 12.706 3.36595 13.239 3.80978 13.5755C4.31844 13.9612 4.8932 14.3775 5.13676 14.9675C5.39353 15.5896 5.24077 16.3258 5.16315 16.9943C5.1051 17.4943 5.26479 18.0153 5.64401 18.4034C6.01864 18.7868 6.5279 18.959 7.02343 18.9183C7.70705 18.8621 8.46835 18.7243 9.09777 18.9969C9.13378 19.0125 9.16993 19.0278 9.20622 19.0429C9.81052 19.2933 10.2294 19.8832 10.6298 20.4005C10.9669 20.8359 11.4947 21.1163 12.088 21.1163C12.683 21.1163 13.2122 20.8343 13.5491 20.3966C13.9481 19.8783 14.3654 19.2873 14.969 19.0353C15.0005 19.0221 15.0318 19.0088 15.0631 18.9952C15.6963 18.7205 16.4636 18.8612 17.1516 18.9182C17.6475 18.9592 18.1572 18.7871 18.5321 18.4034C18.9179 18.0085 19.0765 17.4761 19.0098 16.9682C18.9229 16.3076 18.7682 15.5793 19.022 14.9632C19.2634 14.3774 19.836 13.9664 20.346 13.5906C20.8013 13.255 21.0967 12.715 21.0967 12.1061C21.0967 11.4977 20.8019 10.9582 20.3474 10.6226C19.8372 10.2458 19.2638 9.83426 19.0222 9.24778Z" />
    <path
        d="M12.0002 15.1051C13.657 15.1051 15.0002 13.762 15.0002 12.1051C15.0002 10.4482 13.657 9.1051 12.0002 9.1051C10.3433 9.1051 9.00018 10.4482 9.00018 12.1051C9.00018 13.762 10.3433 15.1051 12.0002 15.1051Z" />
</svg>