<svg width="24" height="24" viewBox="0 0 24 24" fill="none" xmlns="http://www.w3.org/2000/svg">
<path d="M19.9999 20C20.5303 20 21.039 19.7893 21.4141 19.4142C21.7892 19.0391 21.9999 18.5304 21.9999 18V8C21.9999 7.46957 21.7892 6.96086 21.4141 6.58579C21.039 6.21071 20.5303 6 19.9999 6H12.0999C11.7654 6.00328 11.4354 5.92261 11.1402 5.76538C10.8449 5.60815 10.5938 5.37938 10.4099 5.1L9.59988 3.9C9.41777 3.62347 9.16985 3.39648 8.87838 3.2394C8.5869 3.08231 8.26099 3.00005 7.92988 3H3.99988C3.46944 3 2.96074 3.21071 2.58566 3.58579C2.21059 3.96086 1.99988 4.46957 1.99988 5V18C1.99988 18.5304 2.21059 19.0391 2.58566 19.4142C2.96074 19.7893 3.46944 20 3.99988 20H19.9999Z" stroke="currentColor" stroke-width="1.5" stroke-linecap="round" stroke-linejoin="round"/>
<path d="M11.7833 15.2197V19.5M11.7833 15.2197L16.8327 12.2868M11.7833 15.2197L6.73425 12.2869M6.73425 12.2869V15.7965M6.73425 12.2869V12.2568L9.75885 10.5M16.8328 15.8272V12.2568L13.8083 10.5" stroke="currentColor" stroke-width="1.5" stroke-linecap="round" stroke-linejoin="round"/>
</svg>
