<svg
  xmlns="http://www.w3.org/2000/svg"
  width="24"
  height="24"
  viewBox="0 0 24 24"
  fill="none"
  stroke="none"
  stroke-width="2"
  stroke-linecap="round"
  stroke-linejoin="round"
>
  <path
    fill="currentColor"
    fill-rule="evenodd"
    clip-rule="evenodd"
    d="M0 0H24V24H0V0ZM7.03536 5.83875L11.1954 13.59885V18.6387H12.7954V13.67869L16.9554 5.83875H15.1953L12.7954 10.71873C12.6353 10.95873 12.4754 11.19873 12.3954 11.43873C12.3493 11.62289 12.2768 11.75402 12.2082 11.87793C12.1577 11.96936 12.1093 12.05685 12.0754 12.15873C12.0353 12.11869 12.0153 12.05869 11.9953 11.99859C11.9753 11.93869 11.9554 11.87869 11.9153 11.83866C11.8753 11.75869 11.8552 11.69859 11.8353 11.63849C11.8153 11.57859 11.7953 11.51859 11.7554 11.43873V11.35877L11.6754 11.27869C11.6448 11.21762 11.6259 11.16819 11.6098 11.12597C11.5837 11.05757 11.5648 10.99816 11.5154 10.95873C11.4353 10.87877 11.3554 10.79869 11.3554 10.71873L8.95536 5.83875H7.03536Z"
  />
</svg>
