<svg width="240" height="200" viewBox="0 0 240 200" fill="none" xmlns="http://www.w3.org/2000/svg" aria-hidden="true">
  <defs>
    <linearGradient id="composer-folder-back" x1="44" y1="35" x2="222" y2="180" gradientUnits="userSpaceOnUse">
      <stop stop-color="#1A7A52"/>
      <stop offset="1" stop-color="#249361"/>
    </linearGradient>
    <linearGradient id="composer-folder-body" x1="31" y1="64" x2="214" y2="184" gradientUnits="userSpaceOnUse">
      <stop stop-color="#3ECF8E"/>
      <stop offset="0.55" stop-color="#2BB67D"/>
      <stop offset="1" stop-color="#249361"/>
    </linearGradient>
    <linearGradient id="composer-folder-logo-top" x1="45" y1="2" x2="102" y2="88" gradientUnits="userSpaceOnUse">
      <stop stop-color="#FFFFFF"/>
      <stop offset="0.72" stop-color="#D1FAE5"/>
      <stop offset="1" stop-color="#A7F3D0"/>
    </linearGradient>
    <linearGradient id="composer-folder-logo-bottom" x1="10" y1="38" x2="70" y2="112" gradientUnits="userSpaceOnUse">
      <stop stop-color="#ECFDF5"/>
      <stop offset="0.58" stop-color="#C7F9DD"/>
      <stop offset="1" stop-color="#6EE7B7"/>
    </linearGradient>
    <linearGradient id="composer-glow-line" x1="0" y1="4" x2="0" y2="68" gradientUnits="userSpaceOnUse">
      <stop stop-color="#3ECF8E" stop-opacity="0"/>
      <stop offset="0.55" stop-color="#3ECF8E" stop-opacity="0.75"/>
      <stop offset="1" stop-color="#6EE7B7" stop-opacity="0"/>
    </linearGradient>
    <filter id="composer-folder-shadow" x="-20%" y="-20%" width="140%" height="140%">
      <feDropShadow dx="0" dy="8" stdDeviation="10" flood-color="#249361" flood-opacity="0.22"/>
    </filter>
  </defs>

  <g filter="url(#composer-folder-shadow)">
    <!-- Glow particles -->
    <circle cx="101" cy="28" r="1" fill="#A7F3D0" fill-opacity="0.75"/>
    <circle cx="120" cy="15" r="1" fill="#6EE7B7" fill-opacity="0.82"/>
    <circle cx="139" cy="28" r="1" fill="#D1FAE5" fill-opacity="0.72"/>
    <circle cx="154" cy="40" r="1" fill="#3ECF8E" fill-opacity="0.62"/>
    <circle cx="86" cy="42" r="1" fill="#6EE7B7" fill-opacity="0.58"/>

    <!-- Glow lines -->
    <path d="M88 24V68" stroke="url(#composer-glow-line)" stroke-width="1" stroke-linecap="round" opacity="0.5"/>
    <path d="M104 14V68" stroke="url(#composer-glow-line)" stroke-width="1" stroke-linecap="round" opacity="0.72"/>
    <path d="M120 6V68" stroke="url(#composer-glow-line)" stroke-width="1" stroke-linecap="round" opacity="0.92"/>
    <path d="M136 14V68" stroke="url(#composer-glow-line)" stroke-width="1" stroke-linecap="round" opacity="0.72"/>
    <path d="M152 24V68" stroke="url(#composer-glow-line)" stroke-width="1" stroke-linecap="round" opacity="0.5"/>

    <!-- Rear folder and tab -->
    <path d="M44 64V44C44 39.029 48.029 35 53 35H110C114.61 35 118.61 38.183 119.646 42.586L122.688 55H209C216.18 55 222 60.82 222 68V166C222 173.18 216.18 180 209 180H55C47.82 180 42 173.18 42 166V64H44Z" fill="url(#composer-folder-back)"/>

    <!-- Front body -->
    <path d="M31 76C31 69.373 36.373 64 43 64H204C210.627 64 216 69.373 216 76V172C216 178.627 210.627 184 204 184H43C36.373 184 31 178.627 31 172V76Z" fill="url(#composer-folder-body)"/>

    <!-- Supabase logo -->
    <g transform="translate(98 96) scale(0.47)">
      <path fill="url(#composer-folder-logo-bottom)" d="M45.317 2.071c2.86-3.601 8.657-1.628 8.726 2.97l.442 67.251H9.83c-8.19 0-12.759-9.46-7.665-15.875z"/>
      <path fill="url(#composer-folder-logo-top)" fill-opacity="0.95" d="M63.708 110.284c-2.86 3.601-8.658 1.628-8.727-2.97l-1.007-67.251h45.22c8.19 0 12.758 9.46 7.665 15.874z"/>
      <path fill="#059669" fill-opacity="0.1" d="M63.708 110.284c-2.86 3.601-8.658 1.628-8.727-2.97l-1.007-67.251h45.22c8.19 0 12.758 9.46 7.665 15.874z"/>
    </g>
  </g>
</svg>
