<svg xmlns="http://www.w3.org/2000/svg" width="114" height="115" fill="none" viewBox="0 0 114 115"><g clip-path="url(#a)"><rect width="113.52" height="113.52" y=".729" fill="url(#b)" rx="22.19"/><g filter="url(#c)"><path fill="#3dcb8c" fill-opacity=".2" fill-rule="evenodd" d="M62.1 93.226C81.802 90.544 95.599 72.4 92.917 52.699a36 36 0 0 0-2.584-9.355c11.337 6.221 19.681 17.551 21.559 31.35 3.146 23.114-13.04 44.402-36.155 47.549-23.114 3.146-44.402-13.041-47.549-36.155a42.5 42.5 0 0 1-.343-7.746C35.348 88.937 48.345 95.098 62.1 93.226" clip-rule="evenodd"/></g><path fill="url(#d)" fill-opacity=".2" fill-rule="evenodd" d="M92.917 52.699c2.681 19.7-11.115 37.845-30.816 40.527a35.83 35.83 0 0 1-20.749-3.365c-.82.268-1.675.467-2.56.587a14.36 14.36 0 0 1-10.319-2.552c3.982 22.144 24.757 37.41 47.264 34.346 23.114-3.146 39.301-24.434 36.155-47.548-1.879-13.799-10.222-25.129-21.56-31.35a36 36 0 0 1 2.585 9.355" clip-rule="evenodd"/><g filter="url(#e)"><circle cx="21.723" cy="26.446" r="49.031" fill="#00f0ff" fill-opacity=".2"/></g><g filter="url(#f)"><circle cx="24.361" cy="51.375" r="37.279" fill="url(#g)"/></g><g filter="url(#h)"><circle cx="23.21" cy="19.932" r="24.94" fill="#3dcb8c" fill-opacity=".2"/></g><g filter="url(#i)"><path fill="url(#j)" fill-rule="evenodd" d="M56.5 31C41.865 31 30 42.865 30 57.5c0 3.213.57 6.289 1.616 9.134a11.4 11.4 0 0 1 4.36-1.296 21.9 21.9 0 0 1-1.44-7.838c0-12.13 9.834-21.964 21.964-21.964 2.933 0 5.732.575 8.29 1.618a11.4 11.4 0 0 1 1.329-4.355A26.4 26.4 0 0 0 56.5 31m14.153-2.764A32.4 32.4 0 0 0 56.5 25C38.55 25 24 39.55 24 57.5c0 4.876 1.076 9.507 3.004 13.664a11.4 11.4 0 0 0-1.44 5.558c0 6.311 5.117 11.428 11.429 11.428 1.957 0 3.8-.492 5.41-1.36A32.4 32.4 0 0 0 56.5 90C74.45 90 89 75.45 89 57.5c0-4.822-1.052-9.404-2.94-13.526a11.4 11.4 0 0 0 1.535-5.725c0-6.312-5.117-11.429-11.428-11.429-2 0-3.88.514-5.514 1.416M81.4 48.41a11.4 11.4 0 0 1-4.383 1.235 21.9 21.9 0 0 1 1.446 7.854c0 12.13-9.833 21.964-21.964 21.964-2.876 0-5.623-.552-8.14-1.557A11.4 11.4 0 0 1 47 82.247 26.4 26.4 0 0 0 56.5 84C71.135 84 83 72.135 83 57.5c0-3.197-.565-6.257-1.599-9.09M40.688 72.745q.165.171.336.34a5.429 5.429 0 1 1-.336-.341m4.65-3.831a15.9 15.9 0 0 0 11.162 4.55c8.817 0 15.964-7.147 15.964-15.964S65.317 41.536 56.5 41.536 40.536 48.683 40.536 57.5c0 4.26 1.668 8.13 4.386 10.992q.214.206.416.422M76.167 32.82a5.429 5.429 0 1 0 0 10.857 5.429 5.429 0 0 0 0-10.857" clip-rule="evenodd"/></g><path fill="url(#k)" stroke="url(#l)" stroke-linejoin="round" stroke-miterlimit="10" stroke-width=".5" d="M31.38 66.72a.25.25 0 0 0 .353.135 11.1 11.1 0 0 1 4.264-1.268.25.25 0 0 0 .212-.339 21.7 21.7 0 0 1-1.423-7.748c0-11.992 9.721-21.714 21.714-21.714 2.9 0 5.667.568 8.195 1.6a.25.25 0 0 0 .344-.208c.145-1.531.6-2.972 1.3-4.26a.25.25 0 0 0-.13-.352A26.7 26.7 0 0 0 56.5 30.75c-14.774 0-26.75 11.976-26.75 26.75 0 3.243.576 6.348 1.63 9.22Zm39.164-38.26a.25.25 0 0 0 .23-.005 11.1 11.1 0 0 1 5.393-1.385c6.174 0 11.178 5.005 11.178 11.179 0 2.04-.547 3.953-1.502 5.6a.25.25 0 0 0-.01.23A32.1 32.1 0 0 1 88.75 57.5c0 17.811-14.439 32.25-32.25 32.25a32.1 32.1 0 0 1-13.989-3.184.25.25 0 0 0-.227.005 11.1 11.1 0 0 1-5.291 1.33c-6.174 0-11.18-5.006-11.18-11.18 0-1.973.512-3.827 1.41-5.436a.25.25 0 0 0 .008-.227A32.1 32.1 0 0 1 24.25 57.5c0-17.811 14.439-32.25 32.25-32.25 5.029 0 9.796 1.153 14.044 3.21Zm11.092 19.865a.25.25 0 0 0-.35-.136c-1.3.671-2.75 1.094-4.286 1.208a.25.25 0 0 0-.215.338 21.7 21.7 0 0 1 1.43 7.765c0 11.993-9.722 21.714-21.715 21.714-2.843 0-5.559-.546-8.047-1.54a.25.25 0 0 0-.341.207 11.1 11.1 0 0 1-1.332 4.245.25.25 0 0 0 .13.354 26.7 26.7 0 0 0 9.59 1.77c14.774 0 26.75-11.976 26.75-26.75 0-3.226-.57-6.315-1.614-9.175ZM40.867 72.571l-.01-.01a5.679 5.679 0 1 0 .352.357l-.01-.01a22 22 0 0 1-.332-.337Zm4.289-3.486.008.008A16.16 16.16 0 0 0 56.5 73.714c8.955 0 16.214-7.26 16.214-16.214 0-8.955-7.26-16.214-16.214-16.214-8.955 0-16.214 7.26-16.214 16.214a16.16 16.16 0 0 0 4.455 11.164l.008.008q.21.201.407.413Zm31.01-36.515a5.679 5.679 0 1 0 0 11.357 5.679 5.679 0 0 0 0-11.357Z"/></g><rect width="111.655" height="111.655" x=".932" y="1.661" stroke="url(#m)" stroke-opacity=".2" stroke-width="1.864" rx="21.258"/><defs><linearGradient id="b" x1="56.76" x2="56.76" y1=".729" y2="114.248" gradientUnits="userSpaceOnUse"><stop/><stop offset="1" stop-color="#151515"/></linearGradient><linearGradient id="g" x1="27.848" x2="46.402" y1="49.178" y2="51.373" gradientUnits="userSpaceOnUse"><stop stop-color="#075b61" stop-opacity=".65"/><stop offset="1" stop-color="#040404" stop-opacity="0"/></linearGradient><linearGradient id="j" x1="56.5" x2="56.5" y1="25" y2="90" gradientUnits="userSpaceOnUse"><stop stop-color="#4cc38a"/><stop offset="1" stop-color="#65ecf4"/></linearGradient><linearGradient id="k" x1="56.5" x2="56.5" y1="25" y2="90" gradientUnits="userSpaceOnUse"><stop stop-color="#65ecf4"/><stop offset=".729" stop-color="#0dff8b"/></linearGradient><linearGradient id="l" x1="79.562" x2="57.724" y1="42.32" y2="90.465" gradientUnits="userSpaceOnUse"><stop stop-color="#beffe0"/><stop offset="1" stop-color="#4cc38a" stop-opacity="0"/></linearGradient><linearGradient id="m" x1="56.76" x2="56.76" y1=".729" y2="114.248" gradientUnits="userSpaceOnUse"><stop stop-color="#59fcb3"/><stop offset="1"/></linearGradient><filter id="c" width="141.244" height="136.05" x="-.583" y="14.964" color-interpolation-filters="sRGB" filterUnits="userSpaceOnUse"><feFlood flood-opacity="0" result="BackgroundImageFix"/><feBlend in="SourceGraphic" in2="BackgroundImageFix" result="shape"/><feGaussianBlur result="effect1_foregroundBlur_4291_96513" stdDeviation="14.19"/></filter><filter id="e" width="154.822" height="154.822" x="-55.688" y="-50.965" color-interpolation-filters="sRGB" filterUnits="userSpaceOnUse"><feFlood flood-opacity="0" result="BackgroundImageFix"/><feBlend in="SourceGraphic" in2="BackgroundImageFix" result="shape"/><feGaussianBlur result="effect1_foregroundBlur_4291_96513" stdDeviation="14.19"/></filter><filter id="f" width="132.557" height="132.557" x="-41.918" y="-14.904" color-interpolation-filters="sRGB" filterUnits="userSpaceOnUse"><feFlood flood-opacity="0" result="BackgroundImageFix"/><feBlend in="SourceGraphic" in2="BackgroundImageFix" result="shape"/><feGaussianBlur result="effect1_foregroundBlur_4291_96513" stdDeviation="14.5"/></filter><filter id="h" width="106.641" height="106.64" x="-30.11" y="-33.388" color-interpolation-filters="sRGB" filterUnits="userSpaceOnUse"><feFlood flood-opacity="0" result="BackgroundImageFix"/><feBlend in="SourceGraphic" in2="BackgroundImageFix" result="shape"/><feGaussianBlur result="effect1_foregroundBlur_4291_96513" stdDeviation="14.19"/></filter><filter id="i" width="73" height="73" x="20" y="21" color-interpolation-filters="sRGB" filterUnits="userSpaceOnUse"><feFlood flood-opacity="0" result="BackgroundImageFix"/><feBlend in="SourceGraphic" in2="BackgroundImageFix" result="shape"/><feGaussianBlur result="effect1_foregroundBlur_4291_96513" stdDeviation="2"/></filter><radialGradient id="d" cx="0" cy="0" r="1" gradientTransform="rotate(82.249 -13.084 82.672)scale(38.1047 42.2378)" gradientUnits="userSpaceOnUse"><stop stop-color="#3dcb8c"/><stop offset="1" stop-color="#3dcb8c" stop-opacity="0"/></radialGradient><clipPath id="a"><rect width="113.52" height="113.52" y=".729" fill="#fff" rx="22.19"/></clipPath></defs></svg>