<svg width="1015" height="679" viewBox="0 0 1015 679" fill="none" xmlns="http://www.w3.org/2000/svg">
<mask id="mask0_1015_5349" style="mask-type:alpha" maskUnits="userSpaceOnUse" x="0" y="0" width="1109" height="679">
<rect width="1108.46" height="678.381" fill="url(#paint0_linear_1015_5349)"/>
</mask>
<g mask="url(#mask0_1015_5349)">
<path opacity="0.6" d="M284.212 934.142C280.085 931.625 287.602 910.243 305.952 872.103C324.301 833.964 352.861 780.429 388.746 716.858C424.631 653.288 466.583 581.947 510.388 510.018C554.212 438.055 598.338 368.056 638.316 306.983C678.328 245.929 712.797 195.99 738.253 162.201C763.727 128.377 779.293 111.913 783.42 114.429M223.942 890.748C206.799 876.243 204.265 845.057 216.571 800.328C228.912 755.618 255.695 698.895 294.208 635.931C332.721 572.966 381.657 505.952 436.047 441.654C490.456 377.32 548.395 317.956 604.05 269.496C659.74 221.056 711.177 185.21 753.226 165.621C795.275 146.032 826.45 143.356 843.612 157.827M165.144 831.521C140.432 801.853 133.219 758.546 144.163 705.919C155.106 653.291 183.898 593.193 227.587 531.665C271.276 470.137 328.344 409.347 393.061 355.408C457.777 301.47 527.862 256.307 596.229 224.428C664.631 192.568 728.912 175.084 782.685 173.773C836.439 172.497 877.751 187.397 902.43 217.046M108.278 746.185C84.1919 700.022 80.1842 644.392 96.6797 584.921C113.175 525.45 149.591 464.241 202.217 407.406C254.877 350.59 321.902 300.18 396.587 261.209C471.273 222.239 551.007 196.178 627.719 185.507C704.466 174.855 775.499 180.074 833.689 200.575C891.879 221.075 935.197 256.224 959.283 302.388M63.2587 618.573C51.0729 557.773 60.8435 493.669 91.5878 432.724C122.332 371.778 172.956 316.122 238.399 271.391C303.842 226.659 381.771 194.386 464.363 177.817C546.956 161.249 631.302 161.015 708.931 177.084C786.56 193.153 854.718 224.982 906.566 269.36C958.414 313.737 992.137 369.159 1004.32 429.959M61.6666 438.31C73.7976 371.655 107.536 310.171 159.503 260.022C211.436 209.854 279.764 172.788 357.63 152.518C435.477 132.281 520.09 129.545 602.963 144.663C685.855 159.747 764.079 192.136 829.76 238.535C895.442 284.935 946.351 343.703 977.257 408.969C1008.16 474.236 1018.08 543.656 1005.95 610.311M145.542 242.236C206.679 158.103 306.195 107.095 422.246 100.482C538.297 93.8692 661.331 132.188 764.297 206.972C867.262 281.755 941.754 386.946 971.341 499.316C1000.91 611.719 983.211 722.13 922.108 806.282M293.978 108.588C379.356 59.3404 486.517 55.8759 591.871 99.0185C697.226 142.161 792.142 228.286 855.727 338.559C919.331 448.797 946.407 574.1 930.978 686.894C915.549 799.688 858.929 890.731 773.551 939.978M439.48 53.7409C524.234 36.7562 615.444 70.0234 693.07 146.277C770.695 222.53 828.331 335.428 853.355 460.221C878.38 585.013 868.671 711.448 826.435 811.692C784.199 911.935 712.848 977.82 628.093 994.804M555.09 44.8675C623.422 47.9132 686.725 101.346 731.062 193.385C775.398 285.423 797.1 408.595 791.491 535.735C785.829 662.89 753.288 783.609 700.958 871.375C648.628 959.141 580.862 1006.76 512.531 1003.71M645.119 57.4993C689.588 68.0899 720.485 127.468 731.049 222.491C741.613 317.514 730.965 440.464 701.419 564.283C671.892 688.067 625.89 802.614 573.578 882.664C521.265 962.714 466.897 1001.74 422.447 991.113M718.855 81.4982C737.224 89.1837 735.308 143.186 713.586 231.644C691.863 320.102 652.105 435.78 603.026 553.199C553.948 670.618 499.6 780.216 451.876 857.828C404.204 935.425 367.102 974.739 348.732 967.054M369.476 975.209C322.633 958.135 277.147 932.876 237.891 902.139M544.475 1004.07C470.56 1005.74 384.012 981.709 304.334 937.463C224.655 893.217 158.558 832.439 120.849 768.829M658.841 987.629C564.847 1013 433.568 987.668 313.518 921.004C193.468 854.339 102.566 756.296 74.4161 663.095M753.898 950.718C704.348 976.293 637.105 984.632 561.094 974.627C485.083 964.622 403.798 936.776 328.102 894.742C252.405 852.707 185.78 798.462 137.125 739.195C88.451 679.961 59.9831 618.474 55.4986 562.894M834.454 898.345C786.032 937.256 711.598 954.582 623.226 947.505C534.855 940.428 437.749 909.367 347.703 859.363C257.656 809.36 179.957 743.351 127.234 672.078C74.511 600.805 49.8703 528.462 57.3034 466.789M901.137 833.101C857.568 884.949 779.486 911.837 681.878 908.614C584.251 905.425 473.891 872.349 371.966 815.75C270.042 759.151 183.626 682.956 129.31 601.771C74.9953 520.585 56.5431 440.091 77.5038 375.734M953.355 757.266C929.888 799.525 887.463 830.224 830.34 846.384C773.183 862.524 703.376 863.51 627.868 849.203C552.36 834.896 473.851 805.852 400.18 764.942C326.509 724.032 260.353 672.743 208.293 616.211C156.233 559.678 120.134 499.882 103.654 442.851C87.1399 385.801 90.8256 333.545 114.273 291.319M953.355 757.266C891.57 868.527 788.086 950.704 665.71 985.694C543.334 1020.68 412.103 1005.62 300.807 943.814C189.545 882.03 107.368 778.545 72.359 656.203C37.369 533.827 52.4358 402.597 114.239 291.3C176.023 180.039 279.508 97.8617 401.85 62.8527C524.226 27.8627 655.457 42.9295 766.753 104.733C878.015 166.517 960.192 270.001 995.201 392.343C1030.19 514.72 1015.14 646.004 953.355 757.266ZM990.124 672.851C974.108 722.078 935.765 759.58 879.502 781.067C823.257 802.52 751.414 807.092 672.207 794.189C592.98 781.321 509.601 751.504 431.673 708.23C353.71 664.937 284.358 609.941 231.553 549.492C178.749 489.043 144.598 425.657 133.11 366.592C121.588 307.508 133.188 255.155 166.491 215.484M1010.24 581.792C1003.58 636.89 971.663 680.7 918.684 707.515C865.686 734.364 794.057 742.917 713.229 732.124C632.401 721.331 546.116 691.651 465.682 646.986C385.248 602.321 314.442 544.766 262.552 481.86C210.662 418.955 180.058 353.631 174.833 294.451C169.608 235.27 189.923 185.017 233.155 150.275M1012.13 485.691C1016.94 545.223 993.958 594.851 946.686 627.08C899.414 659.31 830.418 672.424 750.067 664.411C669.716 656.398 582.42 627.73 501.334 582.702C420.248 537.675 349.731 478.709 300.488 414.758C251.211 350.788 225.869 285.287 228.238 228.123C230.607 170.958 260.622 125.238 313.662 97.8285M993.212 385.49C1012 447.754 1001.16 502.688 962.593 540.603C924.022 578.517 860.21 596.936 782.442 592.603C704.708 588.289 618.053 561.459 537.859 516.927C457.666 472.395 389.117 413.04 344.329 349.317C299.575 285.613 281.477 221.709 293.271 168.925C305.065 116.141 345.989 77.8714 408.753 60.9367M946.711 279.718C983.745 342.279 990.263 402.448 964.795 447.099C939.326 491.75 883.959 517.284 810.803 518.072C737.628 518.895 652.572 494.929 574.232 451.426C495.892 407.924 430.586 348.392 392.602 285.843C354.618 223.293 347.005 162.831 371.444 117.608C395.883 72.385 450.402 46.1115 523.085 44.4766M829.684 146.461C882.115 187.524 920.325 235.916 937.318 282.722C954.276 329.508 948.853 371.547 921.985 401.004C895.118 430.46 848.685 445.325 791.242 442.891C733.799 440.457 669.278 420.843 609.648 387.73C549.983 354.598 499.26 310.217 466.829 262.742C434.397 215.268 422.469 167.996 433.271 129.618C444.072 91.2397 476.856 64.3944 525.57 54.0759C574.25 43.7383 635.561 50.6109 698.133 73.4103M894.319 323.837C878.23 352.811 842.706 369.466 795.622 370.135C748.504 370.784 693.679 355.386 643.181 327.344C592.648 299.283 550.595 260.884 526.273 220.564C501.917 180.224 497.291 141.319 513.399 112.31C529.489 83.336 565.013 66.6812 612.096 66.0124C659.214 65.3626 714.039 80.7606 764.538 108.803C815.036 136.845 857.123 175.263 881.445 215.583C905.767 255.904 910.409 294.863 894.319 323.837ZM844.944 269.425C833.983 289.164 809.816 300.492 777.771 300.933C745.726 301.374 708.37 290.916 674.006 271.833C639.642 252.751 610.998 226.604 594.451 199.135C577.886 171.701 574.727 145.198 585.688 125.458C596.649 105.719 620.817 94.3906 652.862 93.9496C684.907 93.5087 722.263 103.967 756.626 123.05C790.99 142.132 819.634 168.279 836.181 195.748C852.746 223.182 855.906 249.685 844.944 269.425ZM787.916 221.273C776.364 242.076 737.618 242.614 701.366 222.483C665.114 202.352 645.088 169.178 656.64 148.374C668.192 127.571 706.939 127.033 743.191 147.164C779.443 167.295 799.468 200.469 787.916 221.273Z" stroke="#707070" stroke-width="1.39595"/>
<path d="M533.355 44.4572C268.571 45.0287 54.0444 259.625 53.5867 524.437C-0.277672 503.261 -39.8209 473.121 -64.9804 436.382C-90.2599 399.468 -101.045 355.852 -97.2083 307.885C-89.5332 211.924 -23.3326 98.5279 102.442 -13.2713C202.961 -102.622 295.778 -111.41 370.959 -86.196C445.718 -61.1233 503.129 -2.39663 533.355 44.4572Z" fill="url(#paint1_radial_1015_5349)" fill-opacity="0.08" stroke="url(#paint2_radial_1015_5349)" stroke-width="1.15887"/>
</g>
<defs>
<linearGradient id="paint0_linear_1015_5349" x1="446.14" y1="-76.7441" x2="689.505" y2="372.509" gradientUnits="userSpaceOnUse">
<stop stop-color="white"/>
<stop offset="1" stop-color="white" stop-opacity="0"/>
</linearGradient>
<radialGradient id="paint1_radial_1015_5349" cx="0" cy="0" r="1" gradientUnits="userSpaceOnUse" gradientTransform="translate(298.542 248.772) rotate(-132.571) scale(228.667 229.067)">
<stop stop-color="white"/>
<stop offset="1" stop-color="#D9D9D9" stop-opacity="0"/>
</radialGradient>
<radialGradient id="paint2_radial_1015_5349" cx="0" cy="0" r="1" gradientUnits="userSpaceOnUse" gradientTransform="translate(236.37 188.573) rotate(-113.962) scale(136.073 280.182)">
<stop stop-color="#D9D9D9"/>
<stop offset="1" stop-color="#D9D9D9" stop-opacity="0"/>
</radialGradient>
</defs>
</svg>
