<svg xmlns="http://www.w3.org/2000/svg" width="445" height="208" fill="none"><g clip-path="url(#a)"><mask id="c" width="445" height="332" x="0" y="-62" maskUnits="userSpaceOnUse" style="mask-type:alpha"><path fill="url(#b)" d="M0-62h445v331.691H0z"/></mask><g mask="url(#c)"><path stroke="#EDEDED" stroke-width=".489" d="m1.168 332.218 445.58-.001M1.168 318.852h445.58M1.168 305.487h445.58M1.168 292.122h445.58M1.168 278.757h445.58M1.168 265.392h445.58M1.168 252.026h445.58M1.168 238.661h445.58M1.168 225.296h445.58M1.168 211.931h445.58M1.168 198.566h445.58M1.168 185.2h445.58M1.168 171.835h445.58M1.168 158.47h445.58M1.168 145.105h445.58M1.168 131.74h445.58M1.168 118.375h445.58M1.168 105.009h445.58M1.168 91.644h445.58M1.168 78.28h445.58M1.168 64.914h445.58M1.168 51.549h445.58M1.168 38.183h445.58M1.168 24.818h445.58M1.168 11.453h445.58M1.168-1.912h445.58M1.168-15.277h445.58M1.168-28.642h445.58M1.168-42.009h445.58M11.198-104.21V332.5m13.636-436.71V332.5m13.637-436.71V332.5m13.637-436.71V332.5m13.636-436.71V332.5m13.637-436.71V332.5m13.636-436.71V332.5m13.637-436.71V332.5m13.637-436.71V332.5m13.636-436.71V332.5m13.637-436.71V332.5m13.637-436.71V332.5m13.636-436.71V332.5m13.637-436.71V332.5m13.637-436.71V332.5m13.636-436.71V332.5m13.637-436.71V332.5m13.637-436.71V332.5m13.636-436.71V332.5m13.637-436.71V332.5m13.637-436.71V332.5m13.636-436.71V332.5m13.637-436.71V332.5m13.637-436.71V332.5m13.636-436.71V332.5m13.637-436.71V332.5m13.637-436.71V332.5m13.636-436.71V332.5m13.637-436.71V332.5m13.637-436.71V332.5m13.636-436.71V332.5m13.637-436.71V332.5"/></g></g><defs><linearGradient id="b" x1="222.5" x2="222.5" y1="-62" y2="148.014" gradientUnits="userSpaceOnUse"><stop stop-color="#fff"/><stop offset="1" stop-color="#232323" stop-opacity="0"/></linearGradient><clipPath id="a"><path fill="#fff" d="M0 0h445v208H0z"/></clipPath></defs></svg>