<svg xmlns="http://www.w3.org/2000/svg" width="446" height="209" fill="none"><mask id="b" width="480" height="365" x="-17" y="-77" maskUnits="userSpaceOnUse" style="mask-type:alpha"><path fill="url(#a)" d="M-17-77h479.145v364.396H-17z"/></mask><g mask="url(#b)"><path stroke="#EDEDED" stroke-width=".5" d="M-27.117-59.46h499.379m-499.38 14.285h499.38m-499.38 14.286h499.38m-499.38 14.286h499.38M-27.118-2.317h499.38m-499.38 14.286h499.38m-499.38 14.286h499.38M-27.118 40.54h499.38m-499.38 14.286h499.38M-27.116 69.113l499.379 1.763m-499.38 14.286h499.379m-499.38 14.286h499.38m-499.38 14.286h499.38m-499.38 14.285h499.38m-499.38 14.286h499.38"/></g><defs><linearGradient id="a" x1="222.572" x2="222.572" y1="-77" y2="153.722" gradientUnits="userSpaceOnUse"><stop stop-color="#fff"/><stop offset="1" stop-color="#232323" stop-opacity="0"/></linearGradient></defs></svg>