<svg width="916" height="400" viewBox="0 0 916 400" fill="none" xmlns="http://www.w3.org/2000/svg">
<g filter="url(#filter0_b_9_8762)">
<rect x="391.508" y="185.766" width="454.799" height="33.817" rx="8.45424" fill="url(#paint0_linear_9_8762)" fill-opacity="0.5"/>
<path d="M406.779 197.184H405.433L400.358 207.674H401.704L406.779 197.184ZM409.332 207.674V200.558H407.956V207.674H409.332ZM407.646 197.865C407.646 198.412 408.09 198.856 408.637 198.856C409.199 198.856 409.643 198.412 409.643 197.865C409.643 197.303 409.199 196.859 408.637 196.859C408.09 196.859 407.646 197.303 407.646 197.865ZM413.074 207.674V203.384C413.074 202.318 413.74 201.579 414.731 201.579C415.797 201.579 416.241 202.289 416.241 203.206V207.674H417.631V203.369C417.631 202.348 418.297 201.579 419.274 201.579C420.324 201.579 420.783 202.274 420.783 203.206V207.674H422.159V203.058C422.159 201.194 420.945 200.351 419.703 200.351C418.8 200.351 417.883 200.676 417.321 201.697C416.936 200.78 416.078 200.351 415.19 200.351C414.362 200.351 413.474 200.72 413.03 201.505V200.558H411.699V207.674H413.074ZM423.94 205.766C423.94 206.89 424.872 207.896 426.322 207.896C427.595 207.896 428.305 207.215 428.615 206.712C428.615 207.23 428.66 207.497 428.689 207.674H430.05C430.021 207.497 429.962 207.127 429.962 206.505V202.94C429.962 201.549 429.133 200.336 427.003 200.336C425.464 200.336 424.236 201.283 424.088 202.644L425.42 202.954C425.508 202.126 426.056 201.519 427.032 201.519C428.112 201.519 428.571 202.096 428.571 202.792C428.571 203.043 428.453 203.265 428.024 203.324L426.1 203.605C424.872 203.783 423.94 204.493 423.94 205.766ZM426.514 206.727C425.804 206.727 425.36 206.224 425.36 205.692C425.36 205.055 425.804 204.715 426.396 204.626L428.571 204.301V204.626C428.571 206.18 427.654 206.727 426.514 206.727ZM431.61 208.059C431.788 209.583 433.119 210.707 434.895 210.707C437.573 210.707 438.46 208.946 438.46 207.141V200.558H437.085V201.549C436.729 200.839 435.99 200.425 434.895 200.425C432.942 200.425 431.625 201.963 431.625 203.887C431.625 205.899 433.001 207.334 434.895 207.334C435.96 207.334 436.729 206.816 437.07 206.165V207.186C437.07 208.725 436.389 209.494 434.895 209.494C433.815 209.494 433.06 208.739 432.957 207.748L431.61 208.059ZM435.102 206.165C433.844 206.165 433.046 205.277 433.046 203.887C433.046 202.511 433.874 201.608 435.102 201.608C436.3 201.608 437.129 202.511 437.129 203.887C437.129 205.262 436.3 206.165 435.102 206.165ZM442.057 207.674V200.558H440.682V207.674H442.057ZM440.371 197.865C440.371 198.412 440.815 198.856 441.362 198.856C441.924 198.856 442.368 198.412 442.368 197.865C442.368 197.303 441.924 196.859 441.362 196.859C440.815 196.859 440.371 197.303 440.371 197.865ZM445.814 203.561C445.814 202.481 446.377 201.608 447.471 201.608C448.714 201.608 449.128 202.407 449.128 203.398V207.674H450.519V203.162C450.519 201.579 449.676 200.351 447.974 200.351C447.146 200.351 446.303 200.691 445.785 201.579V200.558H444.424V207.674H445.814V203.561ZM453.634 203.384C453.693 202.466 454.403 201.564 455.572 201.564C456.83 201.564 457.495 202.363 457.525 203.384H453.634ZM457.732 205.233C457.466 206.032 456.889 206.668 455.735 206.668C454.536 206.668 453.619 205.78 453.589 204.508H458.945C458.96 204.419 458.975 204.242 458.975 204.064C458.975 201.845 457.747 200.336 455.557 200.336C453.767 200.336 452.154 201.86 452.154 204.094C452.154 206.505 453.826 207.896 455.735 207.896C457.392 207.896 458.531 206.905 458.93 205.647L457.732 205.233Z" fill="white" fill-opacity="0.7"/>
<path d="M483.657 210.485V206.712C484.042 207.349 484.87 207.866 485.965 207.866C488.051 207.866 489.279 206.224 489.279 204.108C489.279 202.037 488.14 200.395 486.01 200.395C484.856 200.395 484.012 200.957 483.628 201.667V200.558H482.281V210.485H483.657ZM487.859 204.108C487.859 205.573 487.045 206.624 485.758 206.624C484.486 206.624 483.642 205.573 483.642 204.108C483.642 202.688 484.486 201.623 485.758 201.623C487.06 201.623 487.859 202.688 487.859 204.108ZM495.669 206.816C495.669 207.112 495.699 207.511 495.728 207.674H497.06C497.03 207.423 496.986 206.92 496.986 206.357V200.558H495.595V204.848C495.595 205.928 495.033 206.668 493.908 206.668C492.74 206.668 492.296 205.81 492.296 204.833V200.558H490.905V205.041C490.905 206.653 491.911 207.896 493.568 207.896C494.397 207.896 495.284 207.556 495.669 206.816ZM503.309 200.484C503.235 200.469 503.043 200.439 502.851 200.439C502.126 200.439 501.238 200.706 500.72 201.8V200.558H499.359V207.674H500.75V204.108C500.75 202.54 501.534 201.919 502.703 201.919C502.895 201.919 503.102 201.934 503.309 201.963V200.484ZM506.167 210.485V206.712C506.552 207.349 507.381 207.866 508.475 207.866C510.562 207.866 511.789 206.224 511.789 204.108C511.789 202.037 510.65 200.395 508.52 200.395C507.366 200.395 506.523 200.957 506.138 201.667V200.558H504.791V210.485H506.167ZM510.369 204.108C510.369 205.573 509.555 206.624 508.268 206.624C506.996 206.624 506.153 205.573 506.153 204.108C506.153 202.688 506.996 201.623 508.268 201.623C509.57 201.623 510.369 202.688 510.369 204.108ZM514.952 207.674V196.963H513.562V207.674H514.952ZM518.221 203.384C518.28 202.466 518.99 201.564 520.159 201.564C521.416 201.564 522.082 202.363 522.112 203.384H518.221ZM522.319 205.233C522.052 206.032 521.475 206.668 520.321 206.668C519.123 206.668 518.206 205.78 518.176 204.508H523.532C523.547 204.419 523.562 204.242 523.562 204.064C523.562 201.845 522.334 200.336 520.144 200.336C518.354 200.336 516.741 201.86 516.741 204.094C516.741 206.505 518.413 207.896 520.321 207.896C521.978 207.896 523.118 206.905 523.517 205.647L522.319 205.233ZM528.828 204.035V202.821H524.819V204.035H528.828ZM532.059 207.674V206.638C532.502 207.408 533.316 207.866 534.367 207.866C536.482 207.866 537.681 206.195 537.681 204.079C537.681 202.008 536.571 200.351 534.411 200.351C533.227 200.351 532.399 200.928 532.059 201.564V196.963H530.683V207.674H532.059ZM536.26 204.079C536.26 205.618 535.432 206.624 534.159 206.624C532.931 206.624 532.044 205.618 532.044 204.079C532.044 202.54 532.931 201.579 534.159 201.579C535.447 201.579 536.26 202.54 536.26 204.079ZM540.843 207.674V196.963H539.453V207.674H540.843ZM547.827 206.816C547.827 207.112 547.857 207.511 547.886 207.674H549.218C549.188 207.423 549.144 206.92 549.144 206.357V200.558H547.753V204.848C547.753 205.928 547.191 206.668 546.066 206.668C544.898 206.668 544.454 205.81 544.454 204.833V200.558H543.063V205.041C543.063 206.653 544.069 207.896 545.726 207.896C546.555 207.896 547.442 207.556 547.827 206.816ZM552.347 203.384C552.406 202.466 553.116 201.564 554.285 201.564C555.543 201.564 556.209 202.363 556.238 203.384H552.347ZM556.445 205.233C556.179 206.032 555.602 206.668 554.448 206.668C553.25 206.668 552.332 205.78 552.303 204.508H557.659C557.673 204.419 557.688 204.242 557.688 204.064C557.688 201.845 556.46 200.336 554.27 200.336C552.48 200.336 550.868 201.86 550.868 204.094C550.868 206.505 552.539 207.896 554.448 207.896C556.105 207.896 557.244 206.905 557.644 205.647L556.445 205.233ZM562.644 208.059C562.822 209.583 564.153 210.707 565.929 210.707C568.607 210.707 569.494 208.946 569.494 207.141V200.558H568.118V201.549C567.763 200.839 567.024 200.425 565.929 200.425C563.976 200.425 562.659 201.963 562.659 203.887C562.659 205.899 564.035 207.334 565.929 207.334C566.994 207.334 567.763 206.816 568.104 206.165V207.186C568.104 208.725 567.423 209.494 565.929 209.494C564.849 209.494 564.094 208.739 563.991 207.748L562.644 208.059ZM566.136 206.165C564.878 206.165 564.079 205.277 564.079 203.887C564.079 202.511 564.908 201.608 566.136 201.608C567.334 201.608 568.163 202.511 568.163 203.887C568.163 205.262 567.334 206.165 566.136 206.165ZM575.666 200.484C575.592 200.469 575.399 200.439 575.207 200.439C574.482 200.439 573.594 200.706 573.077 201.8V200.558H571.715V207.674H573.106V204.108C573.106 202.54 573.89 201.919 575.059 201.919C575.251 201.919 575.459 201.934 575.666 201.963V200.484ZM576.704 205.766C576.704 206.89 577.636 207.896 579.086 207.896C580.358 207.896 581.069 207.215 581.379 206.712C581.379 207.23 581.424 207.497 581.453 207.674H582.814C582.785 207.497 582.726 207.127 582.726 206.505V202.94C582.726 201.549 581.897 200.336 579.767 200.336C578.228 200.336 577 201.283 576.852 202.644L578.184 202.954C578.272 202.126 578.82 201.519 579.796 201.519C580.876 201.519 581.335 202.096 581.335 202.792C581.335 203.043 581.217 203.265 580.787 203.324L578.864 203.605C577.636 203.783 576.704 204.493 576.704 205.766ZM579.278 206.727C578.568 206.727 578.124 206.224 578.124 205.692C578.124 205.055 578.568 204.715 579.16 204.626L581.335 204.301V204.626C581.335 206.18 580.418 206.727 579.278 206.727ZM585.721 204.094C585.721 202.629 586.549 201.593 587.822 201.593C589.094 201.593 589.863 202.599 589.863 204.064C589.863 205.529 589.079 206.638 587.807 206.638C586.475 206.638 585.721 205.558 585.721 204.094ZM589.878 206.712C589.878 207.141 589.922 207.511 589.952 207.674H591.298C591.284 207.556 591.224 207.038 591.224 206.357V196.963H589.848V201.564C589.612 200.987 588.931 200.365 587.674 200.365C585.661 200.365 584.3 202.082 584.3 204.094C584.3 206.209 585.588 207.866 587.674 207.866C588.783 207.866 589.538 207.275 589.878 206.594V206.712ZM594.966 207.674V200.558H593.59V207.674H594.966ZM593.279 197.865C593.279 198.412 593.723 198.856 594.271 198.856C594.833 198.856 595.277 198.412 595.277 197.865C595.277 197.303 594.833 196.859 594.271 196.859C593.723 196.859 593.279 197.303 593.279 197.865ZM598.235 203.384C598.294 202.466 599.004 201.564 600.173 201.564C601.43 201.564 602.096 202.363 602.126 203.384H598.235ZM602.333 205.233C602.066 206.032 601.489 206.668 600.335 206.668C599.137 206.668 598.22 205.78 598.19 204.508H603.546C603.561 204.419 603.575 204.242 603.575 204.064C603.575 201.845 602.347 200.336 600.158 200.336C598.368 200.336 596.755 201.86 596.755 204.094C596.755 206.505 598.427 207.896 600.335 207.896C601.992 207.896 603.132 206.905 603.531 205.647L602.333 205.233ZM606.741 203.561C606.741 202.481 607.304 201.608 608.399 201.608C609.641 201.608 610.056 202.407 610.056 203.398V207.674H611.446V203.162C611.446 201.579 610.603 200.351 608.902 200.351C608.073 200.351 607.23 200.691 606.712 201.579V200.558H605.351V207.674H606.741V203.561ZM615.523 198.309H614.25V199.463C614.25 200.084 613.925 200.558 613.155 200.558H612.771V201.815H614.132V205.721C614.132 207.008 614.901 207.748 616.114 207.748C616.588 207.748 616.943 207.659 617.061 207.615V206.431C616.943 206.461 616.691 206.49 616.514 206.49C615.789 206.49 615.523 206.165 615.523 205.514V201.815H617.061V200.558H615.523V198.309ZM623.519 203.384C623.578 202.466 624.288 201.564 625.457 201.564C626.715 201.564 627.38 202.363 627.41 203.384H623.519ZM627.617 205.233C627.351 206.032 626.774 206.668 625.62 206.668C624.421 206.668 623.504 205.78 623.474 204.508H628.83C628.845 204.419 628.86 204.242 628.86 204.064C628.86 201.845 627.632 200.336 625.442 200.336C623.652 200.336 622.039 201.86 622.039 204.094C622.039 206.505 623.711 207.896 625.62 207.896C627.277 207.896 628.416 206.905 628.815 205.647L627.617 205.233ZM631.464 204.094C631.464 202.629 632.292 201.593 633.564 201.593C634.837 201.593 635.606 202.599 635.606 204.064C635.606 205.529 634.822 206.638 633.55 206.638C632.218 206.638 631.464 205.558 631.464 204.094ZM635.621 206.712C635.621 207.141 635.665 207.511 635.695 207.674H637.041C637.026 207.556 636.967 207.038 636.967 206.357V196.963H635.591V201.564C635.355 200.987 634.674 200.365 633.417 200.365C631.404 200.365 630.043 202.082 630.043 204.094C630.043 206.209 631.33 207.866 633.417 207.866C634.526 207.866 635.281 207.275 635.621 206.594V206.712ZM638.815 208.059C638.993 209.583 640.324 210.707 642.099 210.707C644.777 210.707 645.665 208.946 645.665 207.141V200.558H644.289V201.549C643.934 200.839 643.194 200.425 642.099 200.425C640.147 200.425 638.83 201.963 638.83 203.887C638.83 205.899 640.206 207.334 642.099 207.334C643.165 207.334 643.934 206.816 644.274 206.165V207.186C644.274 208.725 643.594 209.494 642.099 209.494C641.019 209.494 640.265 208.739 640.161 207.748L638.815 208.059ZM642.307 206.165C641.049 206.165 640.25 205.277 640.25 203.887C640.25 202.511 641.079 201.608 642.307 201.608C643.505 201.608 644.334 202.511 644.334 203.887C644.334 205.262 643.505 206.165 642.307 206.165ZM648.789 203.384C648.848 202.466 649.558 201.564 650.727 201.564C651.984 201.564 652.65 202.363 652.68 203.384H648.789ZM652.887 205.233C652.621 206.032 652.044 206.668 650.89 206.668C649.691 206.668 648.774 205.78 648.744 204.508H654.1C654.115 204.419 654.13 204.242 654.13 204.064C654.13 201.845 652.902 200.336 650.712 200.336C648.922 200.336 647.309 201.86 647.309 204.094C647.309 206.505 648.981 207.896 650.89 207.896C652.547 207.896 653.686 206.905 654.085 205.647L652.887 205.233ZM655.54 206.727C655.54 207.363 655.984 207.733 656.531 207.733C656.694 207.733 656.813 207.689 656.857 207.659C656.842 208.369 656.354 209.094 655.629 209.257V210.026C656.546 209.908 657.819 209.094 657.819 207.141C657.819 206.209 657.256 205.736 656.62 205.736C655.999 205.736 655.54 206.195 655.54 206.727ZM665.112 207.674V206.638C665.556 207.408 666.369 207.866 667.42 207.866C669.535 207.866 670.734 206.195 670.734 204.079C670.734 202.008 669.624 200.351 667.464 200.351C666.281 200.351 665.452 200.928 665.112 201.564V196.963H663.736V207.674H665.112ZM669.313 204.079C669.313 205.618 668.485 206.624 667.213 206.624C665.985 206.624 665.097 205.618 665.097 204.079C665.097 202.54 665.985 201.579 667.213 201.579C668.5 201.579 669.313 202.54 669.313 204.079ZM673.897 207.674V196.963H672.506V207.674H673.897ZM680.88 206.816C680.88 207.112 680.91 207.511 680.939 207.674H682.271C682.241 207.423 682.197 206.92 682.197 206.357V200.558H680.806V204.848C680.806 205.928 680.244 206.668 679.12 206.668C677.951 206.668 677.507 205.81 677.507 204.833V200.558H676.116V205.041C676.116 206.653 677.122 207.896 678.779 207.896C679.608 207.896 680.495 207.556 680.88 206.816ZM688.52 200.484C688.446 200.469 688.254 200.439 688.062 200.439C687.337 200.439 686.449 200.706 685.931 201.8V200.558H684.57V207.674H685.961V204.108C685.961 202.54 686.745 201.919 687.914 201.919C688.106 201.919 688.313 201.934 688.52 201.963V200.484ZM693.953 200.484C693.879 200.469 693.687 200.439 693.494 200.439C692.769 200.439 691.882 200.706 691.364 201.8V200.558H690.003V207.674H691.393V204.108C691.393 202.54 692.177 201.919 693.346 201.919C693.539 201.919 693.746 201.934 693.953 201.963V200.484ZM697.427 210.648L702.058 200.558H700.564L698.433 205.47L696.214 200.558H694.616L697.679 206.89L695.903 210.648H697.427ZM701.615 206.727C701.615 207.363 702.059 207.733 702.607 207.733C702.769 207.733 702.888 207.689 702.932 207.659C702.917 208.369 702.429 209.094 701.704 209.257V210.026C702.621 209.908 703.894 209.094 703.894 207.141C703.894 206.209 703.332 205.736 702.695 205.736C702.074 205.736 701.615 206.195 701.615 206.727ZM712.859 206.653C711.675 206.653 710.64 205.766 710.64 204.108C710.64 202.466 711.675 201.579 712.859 201.579C714.042 201.579 715.078 202.466 715.078 204.108C715.078 205.766 714.042 206.653 712.859 206.653ZM712.859 200.336C710.728 200.336 709.219 201.948 709.219 204.108C709.219 206.283 710.728 207.896 712.859 207.896C714.989 207.896 716.498 206.283 716.498 204.108C716.498 201.948 714.989 200.336 712.859 200.336ZM722.895 206.816C722.895 207.112 722.925 207.511 722.955 207.674H724.286C724.257 207.423 724.212 206.92 724.212 206.357V200.558H722.821V204.848C722.821 205.928 722.259 206.668 721.135 206.668C719.966 206.668 719.522 205.81 719.522 204.833V200.558H718.131V205.041C718.131 206.653 719.137 207.896 720.795 207.896C721.623 207.896 722.511 207.556 722.895 206.816ZM728.45 198.309H727.177V199.463C727.177 200.084 726.852 200.558 726.082 200.558H725.698V201.815H727.059V205.721C727.059 207.008 727.828 207.748 729.041 207.748C729.515 207.748 729.87 207.659 729.988 207.615V206.431C729.87 206.461 729.618 206.49 729.441 206.49C728.716 206.49 728.45 206.165 728.45 205.514V201.815H729.988V200.558H728.45V198.309ZM738.591 206.653C737.407 206.653 736.372 205.766 736.372 204.108C736.372 202.466 737.407 201.579 738.591 201.579C739.775 201.579 740.81 202.466 740.81 204.108C740.81 205.766 739.775 206.653 738.591 206.653ZM738.591 200.336C736.46 200.336 734.951 201.948 734.951 204.108C734.951 206.283 736.46 207.896 738.591 207.896C740.721 207.896 742.231 206.283 742.231 204.108C742.231 201.948 740.721 200.336 738.591 200.336ZM747.59 201.815V200.558H745.874V199.433C745.874 198.457 746.51 198.22 746.998 198.22C747.353 198.22 747.531 198.279 747.605 198.309V197.066C747.546 197.022 747.25 196.918 746.776 196.918C745.489 196.918 744.439 197.776 744.439 199.359V200.558H743.122V201.815H744.439V207.674H745.874V201.815H747.59ZM756.36 201.815V200.558H754.644V199.433C754.644 198.457 755.28 198.22 755.768 198.22C756.124 198.22 756.301 198.279 756.375 198.309V197.066C756.316 197.022 756.02 196.918 755.547 196.918C754.259 196.918 753.209 197.776 753.209 199.359V200.558H751.892V201.815H753.209V207.674H754.644V201.815H756.36ZM760.61 206.653C759.426 206.653 758.391 205.766 758.391 204.108C758.391 202.466 759.426 201.579 760.61 201.579C761.794 201.579 762.829 202.466 762.829 204.108C762.829 205.766 761.794 206.653 760.61 206.653ZM760.61 200.336C758.48 200.336 756.97 201.948 756.97 204.108C756.97 206.283 758.48 207.896 760.61 207.896C762.74 207.896 764.25 206.283 764.25 204.108C764.25 201.948 762.74 200.336 760.61 200.336ZM769.017 201.623C770.231 201.623 770.748 202.437 770.926 203.132L772.184 202.599C771.888 201.519 770.911 200.336 769.017 200.336C766.991 200.336 765.437 201.889 765.437 204.108C765.437 206.269 766.961 207.896 769.032 207.896C770.882 207.896 771.902 206.698 772.243 205.677L771.015 205.144C770.852 205.706 770.364 206.609 769.032 206.609C767.878 206.609 766.857 205.736 766.857 204.108C766.857 202.451 767.893 201.623 769.017 201.623ZM778.492 206.816C778.492 207.112 778.522 207.511 778.551 207.674H779.883C779.853 207.423 779.809 206.92 779.809 206.357V200.558H778.418V204.848C778.418 205.928 777.856 206.668 776.731 206.668C775.563 206.668 775.119 205.81 775.119 204.833V200.558H773.728V205.041C773.728 206.653 774.734 207.896 776.391 207.896C777.22 207.896 778.107 207.556 778.492 206.816ZM781.516 205.825C781.634 206.638 782.463 207.896 784.416 207.896C786.177 207.896 787.02 206.698 787.02 205.692C787.02 204.641 786.339 203.857 785.052 203.576L783.898 203.324C783.351 203.206 783.084 202.895 783.084 202.466C783.084 201.978 783.558 201.519 784.268 201.519C785.392 201.519 785.688 202.333 785.747 202.703L786.975 202.244C786.827 201.608 786.221 200.336 784.268 200.336C782.877 200.336 781.738 201.371 781.738 202.585C781.738 203.591 782.404 204.345 783.513 204.582L784.727 204.848C785.318 204.981 785.644 205.322 785.644 205.766C785.644 206.269 785.215 206.712 784.431 206.712C783.425 206.712 782.862 206.121 782.774 205.381L781.516 205.825ZM800.145 206.801C800.145 206.269 799.731 205.84 799.198 205.84C798.666 205.84 798.237 206.269 798.237 206.801C798.237 207.334 798.666 207.748 799.198 207.748C799.731 207.748 800.145 207.334 800.145 206.801ZM795.529 206.801C795.529 206.269 795.115 205.84 794.582 205.84C794.05 205.84 793.621 206.269 793.621 206.801C793.621 207.334 794.05 207.748 794.582 207.748C795.115 207.748 795.529 207.334 795.529 206.801ZM790.928 206.801C790.928 206.269 790.514 205.84 789.981 205.84C789.448 205.84 789.019 206.269 789.019 206.801C789.019 207.334 789.448 207.748 789.981 207.748C790.514 207.748 790.928 207.334 790.928 206.801Z" fill="white" fill-opacity="0.7"/>
<rect x="816.717" y="189.993" width="25.3627" height="25.3627" rx="4.22712" fill="url(#paint1_linear_9_8762)"/>
<g opacity="0.75">
<path d="M829.398 206.373L834.153 207.43L829.398 197.919L824.642 207.43L829.398 206.373ZM829.398 206.373V202.146" stroke="#DFDFDF" stroke-width="0.958791" stroke-linecap="round" stroke-linejoin="round"/>
</g>
<rect x="392.036" y="186.294" width="453.742" height="32.7602" rx="7.92585" stroke="url(#paint2_linear_9_8762)" stroke-width="1.05678"/>
</g>
<defs>
<filter id="filter0_b_9_8762" x="383.054" y="177.311" width="471.707" height="50.7255" filterUnits="userSpaceOnUse" color-interpolation-filters="sRGB">
<feFlood flood-opacity="0" result="BackgroundImageFix"/>
<feGaussianBlur in="BackgroundImageFix" stdDeviation="4.22712"/>
<feComposite in2="SourceAlpha" operator="in" result="effect1_backgroundBlur_9_8762"/>
<feBlend mode="normal" in="SourceGraphic" in2="effect1_backgroundBlur_9_8762" result="shape"/>
</filter>
<linearGradient id="paint0_linear_9_8762" x1="625.029" y1="130.712" x2="647.464" y2="251.486" gradientUnits="userSpaceOnUse">
<stop stop-color="#BB93C5"/>
<stop offset="1" stop-color="#302642"/>
</linearGradient>
<linearGradient id="paint1_linear_9_8762" x1="821.84" y1="173.457" x2="848.388" y2="226.76" gradientUnits="userSpaceOnUse">
<stop stop-color="white" stop-opacity="0.33"/>
<stop offset="1" stop-color="white" stop-opacity="0.02"/>
</linearGradient>
<linearGradient id="paint2_linear_9_8762" x1="429.685" y1="190.741" x2="829.479" y2="223.561" gradientUnits="userSpaceOnUse">
<stop stop-color="#E3E3E3" stop-opacity="0.12"/>
<stop offset="1" stop-color="#E9E5E5" stop-opacity="0.21"/>
</linearGradient>
</defs>
</svg>
