<svg xmlns="http://www.w3.org/2000/svg" width="916" height="400" fill="none" viewBox="0 0 916 400"><g filter="url(#a)"><rect width="454.799" height="33.817" x="391.508" y="185.766" fill="url(#b)" fill-opacity=".5" rx="8.454"/><path fill="#fff" fill-opacity=".7" d="M406.779 197.184h-1.346l-5.075 10.49h1.346zm2.553 10.49v-7.116h-1.376v7.116zm-1.686-9.809c0 .547.444.991.991.991a.995.995 0 0 0 1.006-.991 1 1 0 0 0-1.006-1.006.995.995 0 0 0-.991 1.006m5.428 9.809v-4.29c0-1.066.666-1.805 1.657-1.805 1.066 0 1.51.71 1.51 1.627v4.468h1.39v-4.305c0-1.021.666-1.79 1.643-1.79 1.05 0 1.509.695 1.509 1.627v4.468h1.376v-4.616c0-1.864-1.214-2.707-2.456-2.707-.903 0-1.82.325-2.382 1.346-.385-.917-1.243-1.346-2.131-1.346-.828 0-1.716.369-2.16 1.154v-.947h-1.331v7.116zm10.866-1.908c0 1.124.932 2.13 2.382 2.13 1.273 0 1.983-.681 2.293-1.184 0 .518.045.785.074.962h1.361a7 7 0 0 1-.088-1.169v-3.565c0-1.391-.829-2.604-2.959-2.604-1.539 0-2.767.947-2.915 2.308l1.332.31c.088-.828.636-1.435 1.612-1.435 1.08 0 1.539.577 1.539 1.273 0 .251-.118.473-.547.532l-1.924.281c-1.228.178-2.16.888-2.16 2.161m2.574.961c-.71 0-1.154-.503-1.154-1.035 0-.637.444-.977 1.036-1.066l2.175-.325v.325c0 1.554-.917 2.101-2.057 2.101m5.096 1.332c.178 1.524 1.509 2.648 3.285 2.648 2.678 0 3.565-1.761 3.565-3.566v-6.583h-1.375v.991c-.356-.71-1.095-1.124-2.19-1.124-1.953 0-3.27 1.538-3.27 3.462 0 2.012 1.376 3.447 3.27 3.447 1.065 0 1.834-.518 2.175-1.169v1.021c0 1.539-.681 2.308-2.175 2.308-1.08 0-1.835-.755-1.938-1.746zm3.492-1.894c-1.258 0-2.056-.888-2.056-2.278 0-1.376.828-2.279 2.056-2.279 1.198 0 2.027.903 2.027 2.279s-.829 2.278-2.027 2.278m6.955 1.509v-7.116h-1.375v7.116zm-1.686-9.809c0 .547.444.991.991.991a.995.995 0 0 0 1.006-.991 1 1 0 0 0-1.006-1.006.995.995 0 0 0-.991 1.006m5.443 5.696c0-1.08.563-1.953 1.657-1.953 1.243 0 1.657.799 1.657 1.79v4.276h1.391v-4.512c0-1.583-.843-2.811-2.545-2.811-.828 0-1.671.34-2.189 1.228v-1.021h-1.361v7.116h1.39zm7.82-.177c.059-.918.769-1.82 1.938-1.82 1.258 0 1.923.799 1.953 1.82zm4.098 1.849c-.266.799-.843 1.435-1.997 1.435-1.199 0-2.116-.888-2.146-2.16h5.356c.015-.089.03-.266.03-.444 0-2.219-1.228-3.728-3.418-3.728-1.79 0-3.403 1.524-3.403 3.758 0 2.411 1.672 3.802 3.581 3.802 1.657 0 2.796-.991 3.195-2.249zM483.657 210.485v-3.773c.385.637 1.213 1.154 2.308 1.154 2.086 0 3.314-1.642 3.314-3.758 0-2.071-1.139-3.713-3.269-3.713-1.154 0-1.998.562-2.382 1.272v-1.109h-1.347v9.927zm4.202-6.377c0 1.465-.814 2.516-2.101 2.516-1.272 0-2.116-1.051-2.116-2.516 0-1.42.844-2.485 2.116-2.485 1.302 0 2.101 1.065 2.101 2.485m7.81 2.708c0 .296.03.695.059.858h1.332c-.03-.251-.074-.754-.074-1.317v-5.799h-1.391v4.29c0 1.08-.562 1.82-1.687 1.82-1.168 0-1.612-.858-1.612-1.835v-4.275h-1.391v4.483c0 1.612 1.006 2.855 2.663 2.855.829 0 1.716-.34 2.101-1.08m7.64-6.332a2.6 2.6 0 0 0-.458-.045c-.725 0-1.613.267-2.131 1.361v-1.242h-1.361v7.116h1.391v-3.566c0-1.568.784-2.189 1.953-2.189.192 0 .399.015.606.044zm2.858 10.001v-3.773c.385.637 1.214 1.154 2.308 1.154 2.087 0 3.314-1.642 3.314-3.758 0-2.071-1.139-3.713-3.269-3.713-1.154 0-1.997.562-2.382 1.272v-1.109h-1.347v9.927zm4.202-6.377c0 1.465-.814 2.516-2.101 2.516-1.272 0-2.115-1.051-2.115-2.516 0-1.42.843-2.485 2.115-2.485 1.302 0 2.101 1.065 2.101 2.485m4.583 3.566v-10.711h-1.39v10.711zm3.269-4.29c.059-.918.769-1.82 1.938-1.82 1.257 0 1.923.799 1.953 1.82zm4.098 1.849c-.267.799-.844 1.435-1.998 1.435-1.198 0-2.115-.888-2.145-2.16h5.356c.015-.089.03-.266.03-.444 0-2.219-1.228-3.728-3.418-3.728-1.79 0-3.403 1.524-3.403 3.758 0 2.411 1.672 3.802 3.58 3.802 1.657 0 2.797-.991 3.196-2.249zm6.509-1.198v-1.214h-4.009v1.214zm3.231 3.639v-1.036c.443.77 1.257 1.228 2.308 1.228 2.115 0 3.314-1.671 3.314-3.787 0-2.071-1.11-3.728-3.27-3.728-1.184 0-2.012.577-2.352 1.213v-4.601h-1.376v10.711zm4.201-3.595c0 1.539-.828 2.545-2.101 2.545-1.228 0-2.115-1.006-2.115-2.545s.887-2.5 2.115-2.5c1.288 0 2.101.961 2.101 2.5m4.583 3.595v-10.711h-1.39v10.711zm6.984-.858c0 .296.03.695.059.858h1.332c-.03-.251-.074-.754-.074-1.317v-5.799h-1.391v4.29c0 1.08-.562 1.82-1.687 1.82-1.168 0-1.612-.858-1.612-1.835v-4.275h-1.391v4.483c0 1.612 1.006 2.855 2.663 2.855.829 0 1.716-.34 2.101-1.08m4.52-3.432c.059-.918.769-1.82 1.938-1.82 1.258 0 1.924.799 1.953 1.82zm4.098 1.849c-.266.799-.843 1.435-1.997 1.435-1.198 0-2.116-.888-2.145-2.16h5.356c.014-.089.029-.266.029-.444 0-2.219-1.228-3.728-3.418-3.728-1.79 0-3.402 1.524-3.402 3.758 0 2.411 1.671 3.802 3.58 3.802 1.657 0 2.796-.991 3.196-2.249zm6.199 2.826c.178 1.524 1.509 2.648 3.285 2.648 2.678 0 3.565-1.761 3.565-3.566v-6.583h-1.376v.991c-.355-.71-1.094-1.124-2.189-1.124-1.953 0-3.27 1.538-3.27 3.462 0 2.012 1.376 3.447 3.27 3.447 1.065 0 1.834-.518 2.175-1.169v1.021c0 1.539-.681 2.308-2.175 2.308-1.08 0-1.835-.755-1.938-1.746zm3.492-1.894c-1.258 0-2.057-.888-2.057-2.278 0-1.376.829-2.279 2.057-2.279 1.198 0 2.027.903 2.027 2.279s-.829 2.278-2.027 2.278m9.53-5.681a2.6 2.6 0 0 0-.459-.045c-.725 0-1.613.267-2.13 1.361v-1.242h-1.362v7.116h1.391v-3.566c0-1.568.784-2.189 1.953-2.189.192 0 .4.015.607.044zm1.038 5.282c0 1.124.932 2.13 2.382 2.13 1.272 0 1.983-.681 2.293-1.184 0 .518.045.785.074.962h1.361a7 7 0 0 1-.088-1.169v-3.565c0-1.391-.829-2.604-2.959-2.604-1.539 0-2.767.947-2.915 2.308l1.332.31c.088-.828.636-1.435 1.612-1.435 1.08 0 1.539.577 1.539 1.273 0 .251-.118.473-.548.532l-1.923.281c-1.228.178-2.16.888-2.16 2.161m2.574.961c-.71 0-1.154-.503-1.154-1.035 0-.637.444-.977 1.036-1.066l2.175-.325v.325c0 1.554-.917 2.101-2.057 2.101m6.443-2.633c0-1.465.828-2.501 2.101-2.501 1.272 0 2.041 1.006 2.041 2.471s-.784 2.574-2.056 2.574c-1.332 0-2.086-1.08-2.086-2.544m4.157 2.618c0 .429.044.799.074.962h1.346a11 11 0 0 1-.074-1.317v-9.394h-1.376v4.601c-.236-.577-.917-1.199-2.174-1.199-2.013 0-3.374 1.717-3.374 3.729 0 2.115 1.288 3.772 3.374 3.772 1.109 0 1.864-.591 2.204-1.272zm5.088.962v-7.116h-1.376v7.116zm-1.687-9.809c0 .547.444.991.992.991a.995.995 0 0 0 1.006-.991 1 1 0 0 0-1.006-1.006.995.995 0 0 0-.992 1.006m4.956 5.519c.059-.918.769-1.82 1.938-1.82 1.257 0 1.923.799 1.953 1.82zm4.098 1.849c-.267.799-.844 1.435-1.998 1.435-1.198 0-2.115-.888-2.145-2.16h5.356c.015-.089.029-.266.029-.444 0-2.219-1.228-3.728-3.417-3.728-1.79 0-3.403 1.524-3.403 3.758 0 2.411 1.672 3.802 3.58 3.802 1.657 0 2.797-.991 3.196-2.249zm4.408-1.672c0-1.08.563-1.953 1.658-1.953 1.242 0 1.657.799 1.657 1.79v4.276h1.39v-4.512c0-1.583-.843-2.811-2.544-2.811-.829 0-1.672.34-2.19 1.228v-1.021h-1.361v7.116h1.39zm8.782-5.252h-1.273v1.154c0 .621-.325 1.095-1.095 1.095h-.384v1.257h1.361v3.906c0 1.287.769 2.027 1.982 2.027.474 0 .829-.089.947-.133v-1.184c-.118.03-.37.059-.547.059-.725 0-.991-.325-.991-.976v-3.699h1.538v-1.257h-1.538zm7.996 5.075c.059-.918.769-1.82 1.938-1.82 1.258 0 1.923.799 1.953 1.82zm4.098 1.849c-.266.799-.843 1.435-1.997 1.435-1.199 0-2.116-.888-2.146-2.16h5.356c.015-.089.03-.266.03-.444 0-2.219-1.228-3.728-3.418-3.728-1.79 0-3.403 1.524-3.403 3.758 0 2.411 1.672 3.802 3.581 3.802 1.657 0 2.796-.991 3.195-2.249zm3.847-1.139c0-1.465.828-2.501 2.1-2.501s2.042 1.006 2.042 2.471-.784 2.574-2.056 2.574c-1.332 0-2.086-1.08-2.086-2.544m4.157 2.618c0 .429.044.799.074.962h1.346a11 11 0 0 1-.074-1.317v-9.394h-1.376v4.601c-.236-.577-.917-1.199-2.174-1.199-2.013 0-3.374 1.717-3.374 3.729 0 2.115 1.287 3.772 3.374 3.772 1.109 0 1.864-.591 2.204-1.272zm3.194 1.347c.178 1.524 1.509 2.648 3.284 2.648 2.678 0 3.566-1.761 3.566-3.566v-6.583h-1.376v.991c-.355-.71-1.095-1.124-2.19-1.124-1.952 0-3.269 1.538-3.269 3.462 0 2.012 1.376 3.447 3.269 3.447 1.066 0 1.835-.518 2.175-1.169v1.021c0 1.539-.68 2.308-2.175 2.308-1.08 0-1.834-.755-1.938-1.746zm3.492-1.894c-1.258 0-2.057-.888-2.057-2.278 0-1.376.829-2.279 2.057-2.279 1.198 0 2.027.903 2.027 2.279s-.829 2.278-2.027 2.278m6.482-2.781c.059-.918.769-1.82 1.938-1.82 1.257 0 1.923.799 1.953 1.82zm4.098 1.849c-.266.799-.843 1.435-1.997 1.435-1.199 0-2.116-.888-2.146-2.16h5.356c.015-.089.03-.266.03-.444 0-2.219-1.228-3.728-3.418-3.728-1.79 0-3.403 1.524-3.403 3.758 0 2.411 1.672 3.802 3.581 3.802 1.657 0 2.796-.991 3.195-2.249zm2.653 1.494c0 .636.444 1.006.991 1.006a.64.64 0 0 0 .326-.074c-.015.71-.503 1.435-1.228 1.598v.769c.917-.118 2.19-.932 2.19-2.885 0-.932-.563-1.405-1.199-1.405-.621 0-1.08.459-1.08.991m9.572.947v-1.036c.444.77 1.257 1.228 2.308 1.228 2.115 0 3.314-1.671 3.314-3.787 0-2.071-1.11-3.728-3.27-3.728-1.183 0-2.012.577-2.352 1.213v-4.601h-1.376v10.711zm4.201-3.595c0 1.539-.828 2.545-2.1 2.545-1.228 0-2.116-1.006-2.116-2.545s.888-2.5 2.116-2.5c1.287 0 2.1.961 2.1 2.5m4.584 3.595v-10.711h-1.391v10.711zm6.983-.858c0 .296.03.695.059.858h1.332c-.03-.251-.074-.754-.074-1.317v-5.799h-1.391v4.29c0 1.08-.562 1.82-1.686 1.82-1.169 0-1.613-.858-1.613-1.835v-4.275h-1.391v4.483c0 1.612 1.006 2.855 2.663 2.855.829 0 1.716-.34 2.101-1.08m7.64-6.332a2.6 2.6 0 0 0-.458-.045c-.725 0-1.613.267-2.131 1.361v-1.242h-1.361v7.116h1.391v-3.566c0-1.568.784-2.189 1.953-2.189.192 0 .399.015.606.044zm5.433 0a2.6 2.6 0 0 0-.459-.045c-.725 0-1.612.267-2.13 1.361v-1.242h-1.361v7.116h1.39v-3.566c0-1.568.784-2.189 1.953-2.189.193 0 .4.015.607.044zm3.474 10.164 4.631-10.09h-1.494l-2.131 4.912-2.219-4.912h-1.598l3.063 6.332-1.776 3.758zm4.188-3.921c0 .636.444 1.006.992 1.006a.64.64 0 0 0 .325-.074c-.015.71-.503 1.435-1.228 1.598v.769c.917-.118 2.19-.932 2.19-2.885 0-.932-.562-1.405-1.199-1.405-.621 0-1.08.459-1.08.991m11.244-.074c-1.184 0-2.219-.887-2.219-2.545 0-1.642 1.035-2.529 2.219-2.529s2.219.887 2.219 2.529c0 1.658-1.036 2.545-2.219 2.545m0-6.317c-2.131 0-3.64 1.612-3.64 3.772 0 2.175 1.509 3.788 3.64 3.788 2.13 0 3.639-1.613 3.639-3.788 0-2.16-1.509-3.772-3.639-3.772m10.036 6.48c0 .296.03.695.06.858h1.331a12 12 0 0 1-.074-1.317v-5.799h-1.391v4.29c0 1.08-.562 1.82-1.686 1.82-1.169 0-1.613-.858-1.613-1.835v-4.275h-1.391v4.483c0 1.612 1.006 2.855 2.664 2.855.828 0 1.716-.34 2.1-1.08m5.555-8.507h-1.273v1.154c0 .621-.325 1.095-1.095 1.095h-.384v1.257h1.361v3.906c0 1.287.769 2.027 1.982 2.027.474 0 .829-.089.947-.133v-1.184c-.118.03-.37.059-.547.059-.725 0-.991-.325-.991-.976v-3.699h1.538v-1.257h-1.538zm10.141 8.344c-1.184 0-2.219-.887-2.219-2.545 0-1.642 1.035-2.529 2.219-2.529s2.219.887 2.219 2.529c0 1.658-1.035 2.545-2.219 2.545m0-6.317c-2.131 0-3.64 1.612-3.64 3.772 0 2.175 1.509 3.788 3.64 3.788 2.13 0 3.64-1.613 3.64-3.788 0-2.16-1.51-3.772-3.64-3.772m8.999 1.479v-1.257h-1.716v-1.125c0-.976.636-1.213 1.124-1.213.355 0 .533.059.607.089v-1.243c-.059-.044-.355-.148-.829-.148-1.287 0-2.337.858-2.337 2.441v1.199h-1.317v1.257h1.317v5.859h1.435v-5.859zm8.77 0v-1.257h-1.716v-1.125c0-.976.636-1.213 1.124-1.213.356 0 .533.059.607.089v-1.243c-.059-.044-.355-.148-.828-.148-1.288 0-2.338.858-2.338 2.441v1.199h-1.317v1.257h1.317v5.859h1.435v-5.859zm4.25 4.838c-1.184 0-2.219-.887-2.219-2.545 0-1.642 1.035-2.529 2.219-2.529s2.219.887 2.219 2.529c0 1.658-1.035 2.545-2.219 2.545m0-6.317c-2.13 0-3.64 1.612-3.64 3.772 0 2.175 1.51 3.788 3.64 3.788s3.64-1.613 3.64-3.788c0-2.16-1.51-3.772-3.64-3.772m8.407 1.287c1.214 0 1.731.814 1.909 1.509l1.258-.533c-.296-1.08-1.273-2.263-3.167-2.263-2.026 0-3.58 1.553-3.58 3.772 0 2.161 1.524 3.788 3.595 3.788 1.85 0 2.87-1.198 3.211-2.219l-1.228-.533c-.163.562-.651 1.465-1.983 1.465-1.154 0-2.175-.873-2.175-2.501 0-1.657 1.036-2.485 2.16-2.485m9.475 5.193c0 .296.03.695.059.858h1.332c-.03-.251-.074-.754-.074-1.317v-5.799h-1.391v4.29c0 1.08-.562 1.82-1.687 1.82-1.168 0-1.612-.858-1.612-1.835v-4.275h-1.391v4.483c0 1.612 1.006 2.855 2.663 2.855.829 0 1.716-.34 2.101-1.08m3.024-.991c.118.813.947 2.071 2.9 2.071 1.761 0 2.604-1.198 2.604-2.204 0-1.051-.681-1.835-1.968-2.116l-1.154-.252c-.547-.118-.814-.429-.814-.858 0-.488.474-.947 1.184-.947 1.124 0 1.42.814 1.479 1.184l1.228-.459c-.148-.636-.754-1.908-2.707-1.908-1.391 0-2.53 1.035-2.53 2.249 0 1.006.666 1.76 1.775 1.997l1.214.266c.591.133.917.474.917.918 0 .503-.429.946-1.213.946-1.006 0-1.569-.591-1.657-1.331zm18.629.976a.947.947 0 0 0-.947-.961.96.96 0 0 0-.961.961c0 .533.429.947.961.947a.935.935 0 0 0 .947-.947m-4.616 0a.947.947 0 0 0-.947-.961.96.96 0 0 0-.961.961c0 .533.429.947.961.947a.935.935 0 0 0 .947-.947m-4.601 0a.947.947 0 0 0-.947-.961.96.96 0 0 0-.962.961c0 .533.429.947.962.947a.935.935 0 0 0 .947-.947"/><rect width="25.363" height="25.363" x="816.717" y="189.993" fill="url(#c)" rx="4.227"/><path stroke="#dfdfdf" stroke-linecap="round" stroke-linejoin="round" stroke-width=".959" d="m829.398 206.373 4.755 1.057-4.755-9.511-4.756 9.511zm0 0v-4.227" opacity=".75"/><rect width="453.742" height="32.76" x="392.036" y="186.294" stroke="url(#d)" stroke-width="1.057" rx="7.926"/></g><defs><linearGradient id="b" x1="625.029" x2="647.464" y1="130.712" y2="251.486" gradientUnits="userSpaceOnUse"><stop stop-color="#bb93c5"/><stop offset="1" stop-color="#302642"/></linearGradient><linearGradient id="c" x1="821.84" x2="848.388" y1="173.457" y2="226.76" gradientUnits="userSpaceOnUse"><stop stop-color="#fff" stop-opacity=".33"/><stop offset="1" stop-color="#fff" stop-opacity=".02"/></linearGradient><linearGradient id="d" x1="429.685" x2="829.479" y1="190.741" y2="223.561" gradientUnits="userSpaceOnUse"><stop stop-color="#e3e3e3" stop-opacity=".12"/><stop offset="1" stop-color="#e9e5e5" stop-opacity=".21"/></linearGradient><filter id="a" width="471.707" height="50.725" x="383.054" y="177.311" color-interpolation-filters="sRGB" filterUnits="userSpaceOnUse"><feFlood flood-opacity="0" result="BackgroundImageFix"/><feGaussianBlur in="BackgroundImageFix" stdDeviation="4.227"/><feComposite in2="SourceAlpha" operator="in" result="effect1_backgroundBlur_9_8762"/><feBlend in="SourceGraphic" in2="effect1_backgroundBlur_9_8762" result="shape"/></filter></defs></svg>