<svg xmlns="http://www.w3.org/2000/svg" width="1385" height="400" fill="none" viewBox="0 0 1385 400"><g clip-path="url(#a)" filter="url(#b)"><rect width="701" height="37" x="699" y="192" fill="url(#c)" fill-opacity=".5" rx="8"/><path stroke="#ab6161" stroke-linecap="round" stroke-linejoin="round" stroke-width="1.627" d="M728.262 203.682H716.87c-.899 0-1.628.728-1.628 1.627v11.392c0 .899.729 1.628 1.628 1.628h11.392c.899 0 1.627-.729 1.627-1.628v-11.392c0-.899-.728-1.627-1.627-1.627M720.125 208.564l4.882 4.883M725.007 208.564l-4.882 4.883"/><g filter="url(#d)"><rect width="46.275" height="26.51" x="741.285" y="197.75" fill="#431818" fill-opacity=".4" rx="6.51"/><path fill="#ab6161" d="M754.499 217.199c1.973 0 3.818-1.294 3.818-3.608s-1.57-3.348-3.543-3.348c-.793 0-1.311.177-1.909.452l.275-3.219h4.659v-1.149h-5.84l-.34 5.129.712.453c.728-.421 1.245-.663 2.103-.663 1.537 0 2.54.889 2.54 2.378 0 1.504-1.165 2.475-2.621 2.475-1.391 0-2.233-.582-2.912-1.23l-.663.89c.792.728 1.876 1.44 3.721 1.44m9.927 0c2.297 0 3.704-2.022 3.704-5.565 0-3.576-1.407-5.501-3.704-5.501s-3.705 1.925-3.705 5.501c0 3.543 1.407 5.565 3.705 5.565m0-1.068c-1.44 0-2.46-1.423-2.46-4.497 0-3.09 1.02-4.433 2.46-4.433s2.459 1.343 2.459 4.433c0 3.074-1.02 4.497-2.459 4.497m0-3.51c.533 0 1.003-.405 1.003-1.1s-.47-1.101-1.003-1.101c-.534 0-1.004.405-1.004 1.101 0 .695.47 1.1 1.004 1.1m9.473 4.578c1.974 0 3.818-1.294 3.818-3.608s-1.569-3.348-3.543-3.348c-.792 0-1.31.177-1.908.452l.275-3.219h4.659v-1.149h-5.84l-.34 5.129.712.453c.728-.421 1.245-.663 2.103-.663 1.537 0 2.54.889 2.54 2.378 0 1.504-1.165 2.475-2.621 2.475-1.391 0-2.233-.582-2.912-1.23l-.663.89c.792.728 1.876 1.44 3.72 1.44"/><rect width="45.461" height="25.696" x="741.692" y="198.157" stroke="#ab6161" stroke-width=".814" rx="6.103"/></g><path fill="#fff" fill-opacity=".7" d="M798.146 217.005h7.176v-1.135h-2.787v-9.879h-1.018c-.668.35-1.485.634-2.62.801v.884h2.27v8.194h-3.021zm9.589 0h7.493v-1.185h-3.504c-.634 0-1.335.05-1.986.1 2.904-2.77 4.906-4.823 4.906-6.892 0-1.953-1.335-3.238-3.471-3.238-1.502 0-2.553.668-3.505 1.669l.785.785c.684-.751 1.552-1.336 2.553-1.336 1.569 0 2.32.918 2.32 2.17 0 1.852-1.986 3.788-5.591 7.109zm13.795-5.774c.751 0 1.352-.568 1.352-1.419 0-.834-.601-1.402-1.352-1.402s-1.352.568-1.352 1.402c0 .851.601 1.419 1.352 1.419m0 5.974c.751 0 1.352-.567 1.352-1.402 0-.851-.601-1.418-1.352-1.418s-1.352.567-1.352 1.418c0 .835.601 1.402 1.352 1.402m11.141-.2h1.302v-3.054h1.652v-1.101h-1.652v-3.071h-1.302v3.071h-3.972l3.972-6.859h-1.435l-4.055 7.042v.918h5.49zm8.638.2c2.036 0 3.939-1.335 3.939-3.721s-1.619-3.455-3.655-3.455c-.818 0-1.352.184-1.969.467l.283-3.321h4.806v-1.184h-6.024l-.35 5.29.734.467c.751-.434 1.285-.684 2.169-.684 1.586 0 2.62.918 2.62 2.453 0 1.552-1.201 2.553-2.703 2.553-1.435 0-2.303-.6-3.004-1.268l-.684.918c.818.751 1.936 1.485 3.838 1.485m10.24-5.974c.751 0 1.352-.568 1.352-1.419 0-.834-.601-1.402-1.352-1.402s-1.352.568-1.352 1.402c0 .851.601 1.419 1.352 1.419m0 5.974c.751 0 1.352-.567 1.352-1.402 0-.851-.601-1.418-1.352-1.418s-1.352.567-1.352 1.418c0 .835.601 1.402 1.352 1.402m10.007 0c2.369 0 3.821-2.086 3.821-5.741 0-3.688-1.452-5.674-3.821-5.674s-3.822 1.986-3.822 5.674c0 3.655 1.452 5.741 3.822 5.741m-2.253-3.221c-.184-.667-.284-1.518-.284-2.52 0-3.187 1.051-4.572 2.537-4.572.684 0 1.285.3 1.718.951zm2.253 2.12c-.735 0-1.352-.351-1.803-1.085l4.005-6.191c.217.684.334 1.568.334 2.636 0 3.171-1.051 4.64-2.536 4.64m6.218.901h7.493v-1.185h-3.505c-.634 0-1.335.05-1.986.1 2.904-2.77 4.907-4.823 4.907-6.892 0-1.953-1.335-3.238-3.471-3.238-1.502 0-2.554.668-3.505 1.669l.784.785c.685-.751 1.552-1.336 2.554-1.336 1.568 0 2.319.918 2.319 2.17 0 1.852-1.986 3.788-5.59 7.109z"/><path stroke="#bfbfbf" stroke-width="1.156" d="M886.461 202.085v17.84"/><path fill="#fff" fill-opacity=".7" d="M900.085 220.793c2.403 0 3.788-1.318 3.788-3.788v-8.511h-1.101l-.117.951h-.05c-.718-.717-1.535-1.151-2.487-1.151-1.969 0-3.704 1.668-3.704 4.339 0 2.686 1.418 4.288 3.504 4.288 1.001 0 2.003-.567 2.637-1.268l-.017 1.352c-.016 1.986-.901 2.687-2.453 2.687-.818 0-1.752-.234-2.587-1.302l-.667.834c1.051 1.252 2.203 1.569 3.254 1.569m.134-5.006c-1.486 0-2.404-1.235-2.404-3.171 0-1.853 1.169-3.171 2.537-3.171.718 0 1.419.284 2.153 1.018v4.022c-.734.851-1.502 1.302-2.286 1.302m10.707 1.435c1.302 0 2.32-.467 3.121-1.001l-.484-.918c-.751.5-1.519.801-2.47.801-1.769 0-3.037-1.185-3.104-3.021h6.341a6 6 0 0 0 .05-.801c0-2.403-1.368-3.988-3.688-3.988-2.102 0-4.122 1.702-4.122 4.472 0 2.787 1.953 4.456 4.356 4.456m-2.954-5.14c.217-1.702 1.419-2.704 2.737-2.704 1.502 0 2.403.968 2.403 2.704zm14.012 5.14c.884 0 1.819-.234 2.553-.518l-.3-1.001a5 5 0 0 1-1.953.384c-1.569 0-2.053-.818-2.053-2.353v-4.122h3.989v-1.118h-3.989v-3.338l-1.318.835v2.503h-2.336v1.118h2.286v4.105c0 2.086.768 3.505 3.121 3.505"/><path stroke="#bfbfbf" stroke-width="1.156" d="M935.364 202.085v17.84"/><path fill="#fff" fill-opacity=".7" d="M945.132 217.706h1.235l7.143-12.55h-1.235zm14.529-11.115c.651 0 1.168-.467 1.168-1.151 0-.701-.517-1.185-1.168-1.185s-1.168.484-1.168 1.185c0 .684.517 1.151 1.168 1.151m-3.671 10.414h7.676v-1.135h-3.154v-7.376h-4.522v1.118h3.154v6.258h-3.154zm9.339 0h1.318v-6.191c.417-.885.784-1.336 1.352-1.336.601 0 .918.518.918 1.552v5.975h1.101v-6.191c.417-.885.801-1.336 1.385-1.336.601 0 .885.518.885 1.552v5.975h1.318v-6.091c0-1.703-.651-2.62-1.769-2.62-.901 0-1.435.567-1.919 1.468-.2-.984-.718-1.468-1.535-1.468-.918 0-1.419.534-1.819 1.335h-.051l-.116-1.135h-1.068zm13.677 3.788c2.404 0 3.789-1.318 3.789-3.788v-8.511h-1.102l-.117.951h-.05c-.717-.717-1.535-1.151-2.486-1.151-1.969 0-3.705 1.668-3.705 4.339 0 2.686 1.419 4.288 3.505 4.288 1.001 0 2.002-.567 2.636-1.268l-.016 1.352c-.017 1.986-.902 2.687-2.454 2.687-.817 0-1.752-.234-2.586-1.302l-.668.834c1.052 1.252 2.203 1.569 3.254 1.569m.134-5.006c-1.485 0-2.403-1.235-2.403-3.171 0-1.853 1.168-3.171 2.536-3.171.718 0 1.419.284 2.153 1.018v4.022c-.734.851-1.502 1.302-2.286 1.302m6.018 1.919h1.235l7.142-12.55H992.3zm14.362-.484c2.32 0 3.6-1.152 3.6-2.537 0-1.285-1.05-1.952-3.233-2.536-1.468-.384-2.47-.818-2.47-1.519 0-.684.484-1.268 2.003-1.268 1 0 1.87.367 2.59.901l.66-.901c-.8-.568-2.03-1.068-3.25-1.068-2.236 0-3.405 1.051-3.405 2.403 0 1.185 1.419 1.969 3.088 2.403 1.987.517 2.637 1.001 2.637 1.669 0 .767-.72 1.368-2.17 1.368-1.452 0-2.453-.45-3.354-1.151l-.668.901c.985.717 2.387 1.335 3.972 1.335m6.39-.217h1.36v-5.941c.95-1.068 1.61-1.586 2.57-1.586 1.34 0 1.87.785 1.87 2.42v5.107h1.37v-5.29c0-2.237-.88-3.421-2.8-3.421-1.27 0-2.21.717-3.07 1.685l.06-2.036v-3.07h-1.36zm12.55.217c1.16 0 2.31-.651 3.21-1.385h.05l.12 1.168h1.11v-5.24c0-2.086-1.06-3.471-3.28-3.471-1.42 0-2.62.667-3.27 1.218l.53.951c.58-.501 1.45-1.035 2.5-1.035 1.57 0 2.12 1.018 2.16 2.187-4.19.367-5.88 1.285-5.88 3.204 0 1.518 1.24 2.403 2.75 2.403m.37-1.102c-.93 0-1.78-.417-1.78-1.401 0-1.152 1.06-1.886 4.54-2.187v2.287c-.92.834-1.84 1.301-2.76 1.301m7.97.885h1.37v-5.023c.97-1.786 2.12-2.453 3.34-2.453.63 0 .93.083 1.5.3l.32-1.185c-.5-.267-1-.35-1.6-.35-1.51 0-2.77.867-3.63 2.236h-.05l-.11-2.036h-1.14zm13.08.217c1.3 0 2.32-.467 3.12-1.001l-.48-.918c-.75.5-1.52.801-2.47.801-1.77 0-3.04-1.185-3.11-3.021h6.34c.04-.217.05-.517.05-.801 0-2.403-1.36-3.988-3.68-3.988-2.11 0-4.13 1.702-4.13 4.472 0 2.787 1.96 4.456 4.36 4.456m-2.95-5.14c.21-1.702 1.41-2.704 2.73-2.704 1.5 0 2.41.968 2.41 2.704zm12.46 5.123c.75 0 1.35-.567 1.35-1.402 0-.851-.6-1.418-1.35-1.418-.76 0-1.36.567-1.36 1.418 0 .835.6 1.402 1.36 1.402m10.17.017c2.32 0 3.6-1.152 3.6-2.537 0-1.285-1.05-1.952-3.23-2.536-1.47-.384-2.47-.818-2.47-1.519 0-.684.48-1.268 2-1.268 1 0 1.87.367 2.59.901l.66-.901c-.8-.568-2.03-1.068-3.25-1.068-2.24 0-3.41 1.051-3.41 2.403 0 1.185 1.42 1.969 3.09 2.403 1.99.517 2.64 1.001 2.64 1.669 0 .767-.72 1.368-2.17 1.368s-2.45-.45-3.36-1.151l-.66.901c.98.717 2.38 1.335 3.97 1.335m9.1-.217h1.54l3.35-8.511h-1.31l-1.87 4.89c-.34.851-.6 1.702-.89 2.486h-.07c-.28-.784-.58-1.635-.91-2.486l-1.87-4.89h-1.39zm10.41 3.788c2.4 0 3.79-1.318 3.79-3.788v-8.511h-1.1l-.12.951h-.05c-.72-.717-1.53-1.151-2.49-1.151-1.96 0-3.7 1.668-3.7 4.339 0 2.686 1.42 4.288 3.5 4.288 1.01 0 2.01-.567 2.64-1.268l-.02 1.352c-.01 1.986-.9 2.687-2.45 2.687-.82 0-1.75-.234-2.59-1.302l-.66.834c1.05 1.252 2.2 1.569 3.25 1.569m.13-5.006c-1.48 0-2.4-1.235-2.4-3.171 0-1.853 1.17-3.171 2.54-3.171.72 0 1.42.284 2.15 1.018v4.022c-.73.851-1.5 1.302-2.29 1.302"/><rect width="699.808" height="35.808" x="699.596" y="192.596" stroke="url(#e)" stroke-width="1.192" rx="7.404"/></g><defs><linearGradient id="c" x1="1046.49" x2="1075.08" y1="117.264" y2="267.229" gradientUnits="userSpaceOnUse"><stop stop-color="#bb93c5" stop-opacity="0"/><stop offset=".198" stop-color="#bb93c5" stop-opacity=".19"/><stop offset="1" stop-color="#302642"/></linearGradient><linearGradient id="e" x1="1279.95" x2="1291.7" y1="229" y2="184.344" gradientUnits="userSpaceOnUse"><stop stop-color="#d478ff" stop-opacity=".05"/><stop offset="1" stop-color="#d782ff" stop-opacity=".74"/></linearGradient><filter id="b" width="720.072" height="56.072" x="689.464" y="182.464" color-interpolation-filters="sRGB" filterUnits="userSpaceOnUse"><feFlood flood-opacity="0" result="BackgroundImageFix"/><feGaussianBlur in="BackgroundImageFix" stdDeviation="4.768"/><feComposite in2="SourceAlpha" operator="in" result="effect1_backgroundBlur_19_7420"/><feBlend in="SourceGraphic" in2="effect1_backgroundBlur_19_7420" result="shape"/></filter><filter id="d" width="132.782" height="113.017" x="698.031" y="154.496" color-interpolation-filters="sRGB" filterUnits="userSpaceOnUse"><feFlood flood-opacity="0" result="BackgroundImageFix"/><feGaussianBlur in="BackgroundImageFix" stdDeviation="21.627"/><feComposite in2="SourceAlpha" operator="in" result="effect1_backgroundBlur_19_7420"/><feBlend in="SourceGraphic" in2="effect1_backgroundBlur_19_7420" result="shape"/></filter><clipPath id="a"><path fill="#fff" d="M0 0h1385v400H0z"/></clipPath></defs></svg>