<svg xmlns="http://www.w3.org/2000/svg" width="533" height="400" fill="none" viewBox="0 0 533 400"><g clip-path="url(#a)" filter="url(#b)"><rect width="701" height="38" x="47" y="191" fill="url(#c)" fill-opacity=".5" rx="8"/><path stroke="#94794f" stroke-linecap="round" stroke-linejoin="round" stroke-width="1.627" d="m69.18 203.383-6.892 11.506a1.627 1.627 0 0 0 1.392 2.441h13.784a1.627 1.627 0 0 0 1.392-2.441l-6.892-11.506a1.627 1.627 0 0 0-2.783 0M70.563 207.564v3.255M70.563 214.076h.008"/><g filter="url(#d)"><rect width="46.275" height="26.51" x="89.285" y="196.75" fill="#433218" fill-opacity=".4" rx="6.51"/><path fill="#94794f" d="M103.376 216.005h1.262v-2.961h1.601v-1.067h-1.601V209h-1.262v2.977h-3.85l3.85-6.65h-1.391l-3.932 6.828v.889h5.323zm8.6.194c2.297 0 3.705-2.022 3.705-5.565 0-3.576-1.408-5.501-3.705-5.501s-3.705 1.925-3.705 5.501c0 3.543 1.408 5.565 3.705 5.565m0-1.068c-1.44 0-2.459-1.423-2.459-4.497 0-3.09 1.019-4.433 2.459-4.433s2.459 1.343 2.459 4.433c0 3.074-1.019 4.497-2.459 4.497m0-3.51c.534 0 1.003-.405 1.003-1.1s-.469-1.101-1.003-1.101-1.003.405-1.003 1.101c0 .695.469 1.1 1.003 1.1m10.801 4.384h1.262v-2.961h1.601v-1.067h-1.601V209h-1.262v2.977h-3.851l3.851-6.65h-1.392l-3.931 6.828v.889h5.323z"/><rect width="45.461" height="25.696" x="89.692" y="197.157" stroke="#94794f" stroke-width=".814" rx="6.103"/></g><path fill="#fff" fill-opacity=".7" d="M146.146 216.005h7.176v-1.135h-2.787v-9.879h-1.018c-.668.35-1.485.634-2.62.801v.884h2.27v8.194h-3.021zm9.589 0h7.493v-1.185h-3.504c-.634 0-1.335.05-1.986.1 2.904-2.77 4.906-4.823 4.906-6.892 0-1.953-1.335-3.238-3.471-3.238-1.502 0-2.553.668-3.505 1.669l.785.785c.684-.751 1.552-1.336 2.553-1.336 1.569 0 2.32.918 2.32 2.17 0 1.852-1.986 3.788-5.591 7.109zm13.795-5.774c.751 0 1.352-.568 1.352-1.419 0-.834-.601-1.402-1.352-1.402s-1.352.568-1.352 1.402c0 .851.601 1.419 1.352 1.419m0 5.974c.751 0 1.352-.567 1.352-1.402 0-.851-.601-1.418-1.352-1.418s-1.352.567-1.352 1.418c0 .835.601 1.402 1.352 1.402m11.141-.2h1.302v-3.054h1.652v-1.101h-1.652v-3.071h-1.302v3.071h-3.972l3.972-6.859h-1.435l-4.055 7.042v.918h5.49zm7.637 0h1.435c.15-4.322.851-6.826 3.671-10.163v-.851h-7.71v1.184h6.142c-2.437 3.105-3.355 5.624-3.538 9.83m11.241-5.774c.751 0 1.352-.568 1.352-1.419 0-.834-.601-1.402-1.352-1.402s-1.352.568-1.352 1.402c0 .851.601 1.419 1.352 1.419m0 5.974c.751 0 1.352-.567 1.352-1.402 0-.851-.601-1.418-1.352-1.418s-1.352.567-1.352 1.418c0 .835.601 1.402 1.352 1.402m10.007 0c2.369 0 3.821-2.086 3.821-5.741 0-3.688-1.452-5.674-3.821-5.674s-3.822 1.986-3.822 5.674c0 3.655 1.452 5.741 3.822 5.741m-2.253-3.221c-.184-.667-.284-1.518-.284-2.52 0-3.187 1.051-4.572 2.537-4.572.684 0 1.285.3 1.718.951zm2.253 2.12c-.735 0-1.352-.351-1.803-1.085l4.005-6.191c.217.684.334 1.568.334 2.636 0 3.171-1.051 4.64-2.536 4.64m8.771.901h1.435c.15-4.322.851-6.826 3.672-10.163v-.851h-7.71v1.184h6.141c-2.436 3.105-3.354 5.624-3.538 9.83"/><path stroke="#bfbfbf" stroke-width="1.156" d="M234.461 201.085v17.84"/><path fill="#fff" fill-opacity=".7" d="M248.085 219.793c2.403 0 3.788-1.318 3.788-3.788v-8.511h-1.101l-.117.951h-.05c-.718-.717-1.535-1.151-2.487-1.151-1.969 0-3.704 1.668-3.704 4.339 0 2.686 1.418 4.288 3.504 4.288 1.001 0 2.003-.567 2.637-1.268l-.017 1.352c-.016 1.986-.901 2.687-2.453 2.687-.818 0-1.752-.234-2.587-1.302l-.667.834c1.051 1.252 2.203 1.569 3.254 1.569m.134-5.006c-1.486 0-2.404-1.235-2.404-3.171 0-1.853 1.169-3.171 2.537-3.171.718 0 1.419.284 2.153 1.018v4.022c-.734.851-1.502 1.302-2.286 1.302m10.707 1.435c1.302 0 2.32-.467 3.121-1.001l-.484-.918c-.751.5-1.519.801-2.47.801-1.769 0-3.037-1.185-3.104-3.021h6.341a6 6 0 0 0 .05-.801c0-2.403-1.368-3.988-3.688-3.988-2.102 0-4.122 1.702-4.122 4.472 0 2.787 1.953 4.456 4.356 4.456m-2.954-5.14c.217-1.702 1.419-2.704 2.737-2.704 1.502 0 2.403.968 2.403 2.704zm14.012 5.14c.884 0 1.819-.234 2.553-.518l-.3-1.001a5 5 0 0 1-1.953.384c-1.569 0-2.053-.818-2.053-2.353v-4.122h3.989v-1.118h-3.989v-3.338l-1.318.835v2.503h-2.336v1.118h2.286v4.105c0 2.086.768 3.505 3.121 3.505"/><path stroke="#bfbfbf" stroke-width="1.156" d="M283.364 201.085v17.84"/><path fill="#fff" fill-opacity=".7" d="M293.132 216.706h1.235l7.143-12.55h-1.235zm13.711-.484c1.002 0 1.97-.634 2.637-1.352h.05l.117 1.135h1.135v-12.132h-1.369v2.937l.05 1.602c-.751-.701-1.468-1.118-2.453-1.118-1.919 0-3.688 1.719-3.688 4.472 0 2.837 1.402 4.456 3.521 4.456m.284-1.152c-1.502 0-2.386-1.268-2.386-3.321 0-1.952 1.134-3.304 2.536-3.304.701 0 1.402.284 2.136 1.018v4.289c-.717.868-1.485 1.318-2.286 1.318m10.207 1.152c2.136 0 4.005-1.636 4.005-4.456 0-2.854-1.869-4.472-4.005-4.472s-4.005 1.618-4.005 4.472c0 2.82 1.869 4.456 4.005 4.456m0-1.135c-1.552 0-2.587-1.335-2.587-3.321s1.035-3.338 2.587-3.338 2.586 1.352 2.586 3.338-1.034 3.321-2.586 3.321m10.774 1.135c1.201 0 2.336-.501 3.221-1.335l-.601-.885c-.684.601-1.519 1.085-2.52 1.085-1.869 0-3.121-1.335-3.121-3.321s1.285-3.338 3.154-3.338c.852 0 1.552.368 2.22 1.002l.684-.885c-.667-.684-1.635-1.251-2.954-1.251-2.453 0-4.522 1.618-4.522 4.472 0 2.82 1.902 4.456 4.439 4.456m9.406 0c2.319 0 3.604-1.152 3.604-2.537 0-1.285-1.051-1.952-3.237-2.536-1.469-.384-2.47-.818-2.47-1.519 0-.684.484-1.268 2.002-1.268 1.002 0 1.87.367 2.587.901l.668-.901c-.801-.568-2.036-1.068-3.255-1.068-2.236 0-3.404 1.051-3.404 2.403 0 1.185 1.419 1.969 3.087 2.403 1.986.517 2.637 1.001 2.637 1.669 0 .767-.717 1.368-2.169 1.368s-2.454-.45-3.355-1.151l-.667.901c.984.717 2.386 1.335 3.972 1.335m5.65.484h1.235l7.143-12.55h-1.235zm13.228-.701h1.351v-7.393h3.405v-1.118h-3.405v-.434c0-1.402.601-2.27 2.053-2.27.701 0 1.218.084 1.886.418l.317-1.035a5.5 5.5 0 0 0-2.336-.501c-2.237 0-3.271 1.352-3.271 3.438v.384l-2.32.1v1.018h2.32zm10.073.217c1.151 0 2.303-.651 3.204-1.385h.05l.117 1.168h1.118v-5.24c0-2.086-1.068-3.471-3.288-3.471-1.418 0-2.62.667-3.271 1.218l.534.951c.585-.501 1.452-1.035 2.504-1.035 1.568 0 2.119 1.018 2.153 2.187-4.189.367-5.875 1.285-5.875 3.204 0 1.518 1.235 2.403 2.754 2.403m.367-1.102c-.935 0-1.786-.417-1.786-1.401 0-1.152 1.068-1.886 4.54-2.187v2.287c-.918.834-1.836 1.301-2.754 1.301m9.806.885h1.535l3.355-8.511h-1.319l-1.869 4.89c-.333.851-.6 1.702-.884 2.486h-.067c-.284-.784-.584-1.635-.918-2.486l-1.869-4.89h-1.385zm11.075-10.414c.65 0 1.168-.467 1.168-1.151 0-.701-.518-1.185-1.168-1.185-.651 0-1.169.484-1.169 1.185 0 .684.518 1.151 1.169 1.151m-3.672 10.414h7.677v-1.135h-3.154v-7.376h-4.523v1.118h3.154v6.258h-3.154zm14.112.217c1.202 0 2.336-.501 3.221-1.335l-.601-.885c-.684.601-1.519 1.085-2.52 1.085-1.869 0-3.121-1.335-3.121-3.321s1.285-3.338 3.154-3.338c.852 0 1.552.368 2.22 1.002l.684-.885c-.667-.684-1.635-1.251-2.954-1.251-2.453 0-4.522 1.618-4.522 4.472 0 2.82 1.902 4.456 4.439 4.456m9.239 0c2.136 0 4.005-1.636 4.005-4.456 0-2.854-1.869-4.472-4.005-4.472s-4.005 1.618-4.005 4.472c0 2.82 1.869 4.456 4.005 4.456m0-1.135c-1.552 0-2.587-1.335-2.587-3.321s1.035-3.338 2.587-3.338 2.586 1.352 2.586 3.338-1.034 3.321-2.586 3.321m6.552.918h1.368v-5.941c.951-1.068 1.602-1.586 2.57-1.586 1.335 0 1.869.785 1.869 2.42v5.107h1.369v-5.29c0-2.237-.885-3.421-2.804-3.421-1.268 0-2.203.717-3.054 1.685h-.067l-.116-1.485h-1.135zm13.461.2c.751 0 1.351-.567 1.351-1.402 0-.851-.6-1.418-1.351-1.418s-1.352.567-1.352 1.418c0 .835.601 1.402 1.352 1.402m10.34-10.614c.651 0 1.168-.467 1.168-1.151 0-.701-.517-1.185-1.168-1.185s-1.168.484-1.168 1.185c0 .684.517 1.151 1.168 1.151m-3.672 10.414h7.677v-1.135h-3.154v-7.376h-4.523v1.118h3.154v6.258h-3.154zm14.112.217c1.202 0 2.336-.501 3.221-1.335l-.601-.885c-.684.601-1.518 1.085-2.52 1.085-1.869 0-3.12-1.335-3.12-3.321s1.285-3.338 3.154-3.338c.851 0 1.552.368 2.219 1.002l.684-.885c-.667-.684-1.635-1.251-2.953-1.251-2.454 0-4.523 1.618-4.523 4.472 0 2.82 1.903 4.456 4.439 4.456m9.239 0c2.136 0 4.005-1.636 4.005-4.456 0-2.854-1.869-4.472-4.005-4.472s-4.005 1.618-4.005 4.472c0 2.82 1.869 4.456 4.005 4.456m0-1.135c-1.552 0-2.587-1.335-2.587-3.321s1.035-3.338 2.587-3.338 2.587 1.352 2.587 3.338-1.035 3.321-2.587 3.321"/><rect width="699.808" height="36.808" x="47.596" y="191.596" stroke="url(#e)" stroke-width="1.192" rx="7.404"/></g><defs><linearGradient id="c" x1="406.16" x2="428.196" y1="154.211" y2="267.251" gradientUnits="userSpaceOnUse"><stop stop-color="#bb93c5" stop-opacity="0"/><stop offset=".198" stop-color="#bb93c5" stop-opacity=".19"/><stop offset="1" stop-color="#302642"/></linearGradient><linearGradient id="e" x1="627.95" x2="640.302" y1="229" y2="183.299" gradientUnits="userSpaceOnUse"><stop stop-color="#d478ff" stop-opacity=".05"/><stop offset="1" stop-color="#d782ff" stop-opacity=".74"/></linearGradient><filter id="b" width="720.072" height="57.072" x="37.464" y="181.464" color-interpolation-filters="sRGB" filterUnits="userSpaceOnUse"><feFlood flood-opacity="0" result="BackgroundImageFix"/><feGaussianBlur in="BackgroundImageFix" stdDeviation="4.768"/><feComposite in2="SourceAlpha" operator="in" result="effect1_backgroundBlur_19_7555"/><feBlend in="SourceGraphic" in2="effect1_backgroundBlur_19_7555" result="shape"/></filter><filter id="d" width="132.782" height="113.017" x="46.031" y="153.496" color-interpolation-filters="sRGB" filterUnits="userSpaceOnUse"><feFlood flood-opacity="0" result="BackgroundImageFix"/><feGaussianBlur in="BackgroundImageFix" stdDeviation="21.627"/><feComposite in2="SourceAlpha" operator="in" result="effect1_backgroundBlur_19_7555"/><feBlend in="SourceGraphic" in2="effect1_backgroundBlur_19_7555" result="shape"/></filter><clipPath id="a"><path fill="#fff" d="M0 0h533v400H0z"/></clipPath></defs></svg>