<svg width="533" height="400" viewBox="0 0 533 400" fill="none" xmlns="http://www.w3.org/2000/svg">
<g clip-path="url(#clip0_19_7555)">
<g filter="url(#filter0_b_19_7555)">
<rect x="47" y="146" width="701" height="37" rx="8" fill="url(#paint0_linear_19_7555)" fill-opacity="0.5"/>
<g filter="url(#filter1_b_19_7555)">
<rect x="89.2852" y="151.75" width="46.2745" height="26.5098" rx="6.5098" fill="#18433B" fill-opacity="0.4"/>
<path d="M98.6034 171.005H105.867V169.856H102.47C101.855 169.856 101.176 169.905 100.545 169.953C103.36 167.268 105.301 165.278 105.301 163.272C105.301 161.379 104.007 160.133 101.936 160.133C100.48 160.133 99.4608 160.78 98.5386 161.751L99.299 162.511C99.9623 161.783 100.804 161.217 101.774 161.217C103.295 161.217 104.023 162.107 104.023 163.32C104.023 165.116 102.098 166.993 98.6034 170.212V171.005ZM111.976 171.199C114.273 171.199 115.681 169.177 115.681 165.634C115.681 162.058 114.273 160.133 111.976 160.133C109.679 160.133 108.271 162.058 108.271 165.634C108.271 169.177 109.679 171.199 111.976 171.199ZM111.976 170.131C110.536 170.131 109.517 168.708 109.517 165.634C109.517 162.544 110.536 161.201 111.976 161.201C113.416 161.201 114.435 162.544 114.435 165.634C114.435 168.708 113.416 170.131 111.976 170.131ZM111.976 166.621C112.51 166.621 112.979 166.216 112.979 165.521C112.979 164.825 112.51 164.42 111.976 164.42C111.442 164.42 110.973 164.825 110.973 165.521C110.973 166.216 111.442 166.621 111.976 166.621ZM121.677 171.199C123.974 171.199 125.381 169.177 125.381 165.634C125.381 162.058 123.974 160.133 121.677 160.133C119.379 160.133 117.972 162.058 117.972 165.634C117.972 169.177 119.379 171.199 121.677 171.199ZM121.677 170.131C120.237 170.131 119.218 168.708 119.218 165.634C119.218 162.544 120.237 161.201 121.677 161.201C123.116 161.201 124.136 162.544 124.136 165.634C124.136 168.708 123.116 170.131 121.677 170.131ZM121.677 166.621C122.21 166.621 122.68 166.216 122.68 165.521C122.68 164.825 122.21 164.42 121.677 164.42C121.143 164.42 120.674 164.825 120.674 165.521C120.674 166.216 121.143 166.621 121.677 166.621Z" fill="#547F77"/>
<rect x="89.692" y="152.157" width="45.4608" height="25.6961" rx="6.10293" stroke="#547F77" stroke-width="0.813724"/>
</g>
<path d="M146.146 171.005H153.322V169.87H150.535V159.991H149.517C148.849 160.341 148.032 160.625 146.897 160.792V161.676H149.167V169.87H146.146V171.005ZM155.735 171.005H163.228V169.82H159.724C159.09 169.82 158.389 169.87 157.738 169.92C160.642 167.15 162.644 165.097 162.644 163.028C162.644 161.075 161.309 159.79 159.173 159.79C157.671 159.79 156.62 160.458 155.668 161.459L156.453 162.244C157.137 161.493 158.005 160.908 159.006 160.908C160.575 160.908 161.326 161.826 161.326 163.078C161.326 164.93 159.34 166.866 155.735 170.187V171.005ZM169.53 165.231C170.281 165.231 170.882 164.663 170.882 163.812C170.882 162.978 170.281 162.41 169.53 162.41C168.779 162.41 168.178 162.978 168.178 163.812C168.178 164.663 168.779 165.231 169.53 165.231ZM169.53 171.205C170.281 171.205 170.882 170.638 170.882 169.803C170.882 168.952 170.281 168.385 169.53 168.385C168.779 168.385 168.178 168.952 168.178 169.803C168.178 170.638 168.779 171.205 169.53 171.205ZM180.671 171.005H181.973V167.951H183.625V166.85H181.973V163.779H180.671V166.85H176.699L180.671 159.991H179.236L175.181 167.033V167.951H180.671V171.005ZM188.825 171.205C191.128 171.205 193.281 169.503 193.281 165.081C193.281 161.559 191.512 159.79 189.192 159.79C187.306 159.79 185.654 161.226 185.654 163.312C185.654 165.581 186.989 166.716 188.959 166.716C190.043 166.716 191.111 166.182 191.979 165.297C191.912 168.852 190.427 170.07 188.742 170.07C187.924 170.07 187.156 169.737 186.622 169.186L185.855 170.07C186.556 170.721 187.523 171.205 188.825 171.205ZM189.226 165.681C187.74 165.681 186.956 164.83 186.956 163.312C186.956 161.86 187.941 160.875 189.209 160.875C190.778 160.875 191.729 162.043 191.946 164.196C191.028 165.264 190.043 165.681 189.226 165.681ZM199.549 165.231C200.3 165.231 200.901 164.663 200.901 163.812C200.901 162.978 200.3 162.41 199.549 162.41C198.798 162.41 198.197 162.978 198.197 163.812C198.197 164.663 198.798 165.231 199.549 165.231ZM199.549 171.205C200.3 171.205 200.901 170.638 200.901 169.803C200.901 168.952 200.3 168.385 199.549 168.385C198.798 168.385 198.197 168.952 198.197 169.803C198.197 170.638 198.798 171.205 199.549 171.205ZM209.556 171.205C211.925 171.205 213.377 169.119 213.377 165.464C213.377 161.776 211.925 159.79 209.556 159.79C207.186 159.79 205.734 161.776 205.734 165.464C205.734 169.119 207.186 171.205 209.556 171.205ZM207.303 167.984C207.119 167.317 207.019 166.466 207.019 165.464C207.019 162.277 208.07 160.892 209.556 160.892C210.24 160.892 210.841 161.192 211.274 161.843L207.303 167.984ZM209.556 170.104C208.821 170.104 208.204 169.753 207.753 169.019L211.758 162.828C211.975 163.512 212.092 164.396 212.092 165.464C212.092 168.635 211.041 170.104 209.556 170.104ZM219.345 171.205C221.464 171.205 223.2 170.02 223.2 168.068C223.2 166.549 221.982 165.581 220.563 165.281V165.197C221.882 164.763 222.833 163.912 222.833 162.577C222.833 160.808 221.314 159.79 219.312 159.79C217.943 159.79 216.792 160.374 215.907 161.175L216.642 162.043C217.342 161.376 218.26 160.908 219.262 160.908C220.563 160.908 221.431 161.593 221.431 162.677C221.431 163.846 220.463 164.747 217.943 164.747V165.815C220.747 165.815 221.815 166.699 221.815 168.034C221.815 169.269 220.714 170.07 219.262 170.07C217.893 170.07 216.909 169.453 216.208 168.752L215.507 169.653C216.291 170.471 217.509 171.205 219.345 171.205Z" fill="white" fill-opacity="0.7"/>
<path d="M234.461 156.085L234.461 173.925" stroke="#BFBFBF" stroke-width="1.15557"/>
<path d="M248.085 174.793C250.488 174.793 251.873 173.475 251.873 171.005V162.494H250.772L250.655 163.445H250.605C249.887 162.728 249.07 162.294 248.118 162.294C246.149 162.294 244.414 163.962 244.414 166.633C244.414 169.319 245.832 170.921 247.918 170.921C248.919 170.921 249.921 170.354 250.555 169.653L250.538 171.005C250.522 172.991 249.637 173.692 248.085 173.692C247.267 173.692 246.333 173.458 245.498 172.39L244.831 173.224C245.882 174.476 247.034 174.793 248.085 174.793ZM248.219 169.787C246.733 169.787 245.815 168.552 245.815 166.616C245.815 164.763 246.984 163.445 248.352 163.445C249.07 163.445 249.771 163.729 250.505 164.463V168.485C249.771 169.336 249.003 169.787 248.219 169.787ZM258.926 171.222C260.228 171.222 261.246 170.755 262.047 170.221L261.563 169.303C260.812 169.803 260.044 170.104 259.093 170.104C257.324 170.104 256.056 168.919 255.989 167.083H262.33C262.364 166.866 262.38 166.566 262.38 166.282C262.38 163.879 261.012 162.294 258.692 162.294C256.59 162.294 254.57 163.996 254.57 166.766C254.57 169.553 256.523 171.222 258.926 171.222ZM255.972 166.082C256.189 164.38 257.391 163.378 258.709 163.378C260.211 163.378 261.112 164.346 261.112 166.082H255.972ZM269.984 171.222C270.868 171.222 271.803 170.988 272.537 170.704L272.237 169.703C271.669 169.937 271.052 170.087 270.284 170.087C268.715 170.087 268.231 169.269 268.231 167.734V163.612H272.22V162.494H268.231V159.156L266.913 159.991V162.494H264.577V163.612H266.863V167.717C266.863 169.803 267.631 171.222 269.984 171.222Z" fill="white" fill-opacity="0.7"/>
<path d="M283.364 156.085L283.364 173.925" stroke="#BFBFBF" stroke-width="1.15557"/>
<path d="M293.132 171.706H294.367L301.51 159.156H300.275L293.132 171.706ZM309.096 171.222C309.981 171.222 310.548 170.988 311.282 170.704L310.932 169.67C310.331 169.954 309.864 170.087 309.397 170.087C308.429 170.087 307.811 169.536 307.811 168.285V158.873H303.673V159.991H306.443V168.185C306.443 170.187 307.377 171.222 309.096 171.222ZM316.433 171.222C317.584 171.222 318.736 170.571 319.637 169.837H319.687L319.804 171.005H320.922V165.765C320.922 163.679 319.854 162.294 317.634 162.294C316.216 162.294 315.014 162.961 314.363 163.512L314.897 164.463C315.481 163.962 316.349 163.428 317.401 163.428C318.969 163.428 319.52 164.446 319.553 165.615C315.365 165.982 313.679 166.9 313.679 168.819C313.679 170.337 314.914 171.222 316.433 171.222ZM316.8 170.12C315.865 170.12 315.014 169.703 315.014 168.719C315.014 167.567 316.082 166.833 319.553 166.532V168.819C318.635 169.653 317.718 170.12 316.8 170.12ZM326.439 171.222C327.691 171.222 328.642 170.504 329.46 169.503H329.526L329.643 171.005H330.761V162.494H329.393V168.418C328.492 169.536 327.808 170.037 326.873 170.037C325.521 170.037 325.004 169.253 325.004 167.6V162.494H323.619V167.784C323.619 170.037 324.503 171.222 326.439 171.222ZM333.892 171.005H335.261V165.064C336.212 163.996 336.863 163.478 337.831 163.478C339.166 163.478 339.7 164.263 339.7 165.898V171.005H341.068V165.715C341.068 163.478 340.184 162.294 338.265 162.294C336.996 162.294 336.062 163.011 335.211 163.979H335.144L335.027 162.494H333.892V171.005ZM348.121 171.222C349.322 171.222 350.457 170.721 351.342 169.887L350.741 169.002C350.057 169.603 349.222 170.087 348.221 170.087C346.352 170.087 345.1 168.752 345.1 166.766C345.1 164.78 346.385 163.428 348.254 163.428C349.105 163.428 349.806 163.796 350.474 164.43L351.158 163.545C350.491 162.861 349.523 162.294 348.204 162.294C345.751 162.294 343.682 163.912 343.682 166.766C343.682 169.586 345.584 171.222 348.121 171.222ZM353.905 171.005H355.274V165.064C356.225 163.996 356.876 163.478 357.844 163.478C359.179 163.478 359.713 164.263 359.713 165.898V171.005H361.081V165.715C361.081 163.478 360.197 162.294 358.277 162.294C357.009 162.294 356.075 163.011 355.207 163.979L355.274 161.943V158.873H353.905V171.005ZM364.312 171.005H365.947L366.882 166.616C367.082 165.648 367.199 164.88 367.333 164.146H367.399C367.566 164.997 367.7 165.798 367.85 166.599L368.818 171.005H370.47L372.239 162.494H370.937L369.969 167.484C369.819 168.285 369.702 169.052 369.552 169.837H369.485C369.319 169.052 369.168 168.285 368.985 167.484L367.983 162.961H366.815L365.831 167.484C365.647 168.268 365.497 169.052 365.347 169.837H365.28C365.163 169.052 365.03 168.285 364.879 167.484L363.895 162.494H362.493L364.312 171.005ZM377.873 171.222C379.175 171.222 380.193 170.755 380.994 170.221L380.51 169.303C379.759 169.803 378.991 170.104 378.04 170.104C376.271 170.104 375.003 168.919 374.936 167.083H381.277C381.311 166.866 381.328 166.566 381.328 166.282C381.328 163.879 379.959 162.294 377.639 162.294C375.537 162.294 373.517 163.996 373.517 166.766C373.517 169.553 375.47 171.222 377.873 171.222ZM374.919 166.082C375.136 164.38 376.338 163.378 377.656 163.378C379.158 163.378 380.059 164.346 380.059 166.082H374.919ZM387.88 171.222C389.181 171.222 390.199 170.755 391 170.221L390.516 169.303C389.765 169.803 388.998 170.104 388.046 170.104C386.277 170.104 385.009 168.919 384.942 167.083H391.284C391.317 166.866 391.334 166.566 391.334 166.282C391.334 163.879 389.966 162.294 387.646 162.294C385.543 162.294 383.524 163.996 383.524 166.766C383.524 169.553 385.476 171.222 387.88 171.222ZM384.926 166.082C385.143 164.38 386.344 163.378 387.663 163.378C389.165 163.378 390.066 164.346 390.066 166.082H384.926ZM394.148 171.005H395.516V168.685L397.435 166.699L400.423 171.005H401.958L398.286 165.865L401.524 162.494H399.955L395.583 167.05H395.516V158.873H394.148V171.005ZM403.203 171.706H404.438L411.58 159.156H410.346L403.203 171.706ZM419.167 171.222C420.052 171.222 420.619 170.988 421.353 170.704L421.003 169.67C420.402 169.954 419.935 170.087 419.468 170.087C418.5 170.087 417.882 169.536 417.882 168.285V158.873H413.743V159.991H416.514V168.185C416.514 170.187 417.448 171.222 419.167 171.222ZM427.738 160.591C428.389 160.591 428.907 160.124 428.907 159.44C428.907 158.739 428.389 158.255 427.738 158.255C427.088 158.255 426.57 158.739 426.57 159.44C426.57 160.124 427.088 160.591 427.738 160.591ZM424.067 171.005H431.744V169.87H428.589V162.494H424.067V163.612H427.221V169.87H424.067V171.005ZM436.677 171.005H438.212L441.566 162.494H440.248L438.379 167.384C438.045 168.235 437.778 169.086 437.494 169.87H437.428C437.144 169.086 436.844 168.235 436.51 167.384L434.641 162.494H433.256L436.677 171.005ZM447.918 171.222C449.22 171.222 450.238 170.755 451.039 170.221L450.555 169.303C449.804 169.803 449.036 170.104 448.085 170.104C446.316 170.104 445.048 168.919 444.981 167.083H451.323C451.356 166.866 451.373 166.566 451.373 166.282C451.373 163.879 450.004 162.294 447.684 162.294C445.582 162.294 443.562 163.996 443.562 166.766C443.562 169.553 445.515 171.222 447.918 171.222ZM444.964 166.082C445.181 164.38 446.383 163.378 447.701 163.378C449.203 163.378 450.104 164.346 450.104 166.082H444.964Z" fill="white" fill-opacity="0.7"/>
<rect x="47.596" y="146.596" width="699.808" height="35.808" rx="7.40399" stroke="url(#paint1_linear_19_7555)" stroke-width="1.19202"/>
</g>
<g filter="url(#filter2_b_19_7555)">
<rect x="47" y="237" width="701" height="37" rx="8" fill="url(#paint2_linear_19_7555)" fill-opacity="0.5"/>
<g filter="url(#filter3_b_19_7555)">
<rect x="89.2852" y="242.75" width="46.2745" height="26.5098" rx="6.5098" fill="#18433B" fill-opacity="0.4"/>
<path d="M98.6034 262.005H105.867V260.856H102.47C101.855 260.856 101.176 260.905 100.545 260.953C103.36 258.268 105.301 256.278 105.301 254.272C105.301 252.379 104.007 251.133 101.936 251.133C100.48 251.133 99.4608 251.78 98.5386 252.751L99.299 253.511C99.9623 252.783 100.804 252.217 101.774 252.217C103.295 252.217 104.023 253.107 104.023 254.32C104.023 256.116 102.098 257.993 98.6034 261.212V262.005ZM111.976 262.199C114.273 262.199 115.681 260.177 115.681 256.634C115.681 253.058 114.273 251.133 111.976 251.133C109.679 251.133 108.271 253.058 108.271 256.634C108.271 260.177 109.679 262.199 111.976 262.199ZM111.976 261.131C110.536 261.131 109.517 259.708 109.517 256.634C109.517 253.544 110.536 252.201 111.976 252.201C113.416 252.201 114.435 253.544 114.435 256.634C114.435 259.708 113.416 261.131 111.976 261.131ZM111.976 257.621C112.51 257.621 112.979 257.216 112.979 256.521C112.979 255.825 112.51 255.42 111.976 255.42C111.442 255.42 110.973 255.825 110.973 256.521C110.973 257.216 111.442 257.621 111.976 257.621ZM121.677 262.199C123.974 262.199 125.381 260.177 125.381 256.634C125.381 253.058 123.974 251.133 121.677 251.133C119.379 251.133 117.972 253.058 117.972 256.634C117.972 260.177 119.379 262.199 121.677 262.199ZM121.677 261.131C120.237 261.131 119.218 259.708 119.218 256.634C119.218 253.544 120.237 252.201 121.677 252.201C123.116 252.201 124.136 253.544 124.136 256.634C124.136 259.708 123.116 261.131 121.677 261.131ZM121.677 257.621C122.21 257.621 122.68 257.216 122.68 256.521C122.68 255.825 122.21 255.42 121.677 255.42C121.143 255.42 120.674 255.825 120.674 256.521C120.674 257.216 121.143 257.621 121.677 257.621Z" fill="#547F77"/>
<rect x="89.692" y="243.157" width="45.4608" height="25.6961" rx="6.10293" stroke="#547F77" stroke-width="0.813724"/>
</g>
<path d="M146.146 262.005H153.322V260.87H150.535V250.991H149.517C148.849 251.341 148.032 251.625 146.897 251.792V252.676H149.167V260.87H146.146V262.005ZM155.735 262.005H163.228V260.82H159.724C159.09 260.82 158.389 260.87 157.738 260.92C160.642 258.15 162.644 256.097 162.644 254.028C162.644 252.075 161.309 250.79 159.173 250.79C157.671 250.79 156.62 251.458 155.668 252.459L156.453 253.244C157.137 252.493 158.005 251.908 159.006 251.908C160.575 251.908 161.326 252.826 161.326 254.078C161.326 255.93 159.34 257.866 155.735 261.187V262.005ZM169.53 256.231C170.281 256.231 170.882 255.663 170.882 254.812C170.882 253.978 170.281 253.41 169.53 253.41C168.779 253.41 168.178 253.978 168.178 254.812C168.178 255.663 168.779 256.231 169.53 256.231ZM169.53 262.205C170.281 262.205 170.882 261.638 170.882 260.803C170.882 259.952 170.281 259.385 169.53 259.385C168.779 259.385 168.178 259.952 168.178 260.803C168.178 261.638 168.779 262.205 169.53 262.205ZM180.671 262.005H181.973V258.951H183.625V257.85H181.973V254.779H180.671V257.85H176.699L180.671 250.991H179.236L175.181 258.033V258.951H180.671V262.005ZM189.893 262.205C191.796 262.205 193.448 260.787 193.448 258.684C193.448 256.431 192.096 255.28 190.127 255.28C189.059 255.28 187.957 255.847 187.106 256.731C187.156 253.143 188.658 251.942 190.36 251.942C191.161 251.942 191.929 252.259 192.48 252.81L193.248 251.959C192.547 251.291 191.579 250.79 190.277 250.79C187.957 250.79 185.821 252.493 185.821 256.915C185.821 260.436 187.574 262.205 189.893 262.205ZM189.893 261.12C188.341 261.12 187.357 259.952 187.156 257.816C188.057 256.731 189.042 256.314 189.876 256.314C191.345 256.314 192.146 257.165 192.146 258.684C192.146 260.136 191.161 261.12 189.893 261.12ZM199.549 256.231C200.3 256.231 200.901 255.663 200.901 254.812C200.901 253.978 200.3 253.41 199.549 253.41C198.798 253.41 198.197 253.978 198.197 254.812C198.197 255.663 198.798 256.231 199.549 256.231ZM199.549 262.205C200.3 262.205 200.901 261.638 200.901 260.803C200.901 259.952 200.3 259.385 199.549 259.385C198.798 259.385 198.197 259.952 198.197 260.803C198.197 261.638 198.798 262.205 199.549 262.205ZM210.69 262.005H211.992V258.951H213.644V257.85H211.992V254.779H210.69V257.85H206.719L210.69 250.991H209.255L205.2 258.033V258.951H210.69V262.005ZM219.562 262.205C221.932 262.205 223.384 260.119 223.384 256.464C223.384 252.776 221.932 250.79 219.562 250.79C217.192 250.79 215.74 252.776 215.74 256.464C215.74 260.119 217.192 262.205 219.562 262.205ZM217.309 258.984C217.126 258.317 217.025 257.466 217.025 256.464C217.025 253.277 218.077 251.892 219.562 251.892C220.246 251.892 220.847 252.192 221.281 252.843L217.309 258.984ZM219.562 261.104C218.828 261.104 218.21 260.753 217.76 260.019L221.765 253.828C221.982 254.512 222.099 255.396 222.099 256.464C222.099 259.635 221.047 261.104 219.562 261.104Z" fill="white" fill-opacity="0.7"/>
<path d="M234.461 247.085L234.461 264.925" stroke="#BFBFBF" stroke-width="1.15557"/>
<path d="M248.085 265.793C250.488 265.793 251.873 264.475 251.873 262.005V253.494H250.772L250.655 254.445H250.605C249.887 253.728 249.07 253.294 248.118 253.294C246.149 253.294 244.414 254.962 244.414 257.633C244.414 260.319 245.832 261.921 247.918 261.921C248.919 261.921 249.921 261.354 250.555 260.653L250.538 262.005C250.522 263.991 249.637 264.692 248.085 264.692C247.267 264.692 246.333 264.458 245.498 263.39L244.831 264.224C245.882 265.476 247.034 265.793 248.085 265.793ZM248.219 260.787C246.733 260.787 245.815 259.552 245.815 257.616C245.815 255.763 246.984 254.445 248.352 254.445C249.07 254.445 249.771 254.729 250.505 255.463V259.485C249.771 260.336 249.003 260.787 248.219 260.787ZM258.926 262.222C260.228 262.222 261.246 261.755 262.047 261.221L261.563 260.303C260.812 260.803 260.044 261.104 259.093 261.104C257.324 261.104 256.056 259.919 255.989 258.083H262.33C262.364 257.866 262.38 257.566 262.38 257.282C262.38 254.879 261.012 253.294 258.692 253.294C256.59 253.294 254.57 254.996 254.57 257.766C254.57 260.553 256.523 262.222 258.926 262.222ZM255.972 257.082C256.189 255.38 257.391 254.378 258.709 254.378C260.211 254.378 261.112 255.346 261.112 257.082H255.972ZM269.984 262.222C270.868 262.222 271.803 261.988 272.537 261.704L272.237 260.703C271.669 260.937 271.052 261.087 270.284 261.087C268.715 261.087 268.231 260.269 268.231 258.734V254.612H272.22V253.494H268.231V250.156L266.913 250.991V253.494H264.577V254.612H266.863V258.717C266.863 260.803 267.631 262.222 269.984 262.222Z" fill="white" fill-opacity="0.7"/>
<path d="M283.364 247.085L283.364 264.925" stroke="#BFBFBF" stroke-width="1.15557"/>
<path d="M293.132 262.706H294.367L301.51 250.156H300.275L293.132 262.706ZM306.843 262.222C307.845 262.222 308.813 261.588 309.48 260.87H309.53L309.647 262.005H310.782V249.873H309.413V252.81L309.463 254.412C308.712 253.711 307.995 253.294 307.01 253.294C305.091 253.294 303.322 255.013 303.322 257.766C303.322 260.603 304.724 262.222 306.843 262.222ZM307.127 261.07C305.625 261.07 304.741 259.802 304.741 257.749C304.741 255.797 305.875 254.445 307.277 254.445C307.978 254.445 308.679 254.729 309.413 255.463V259.752C308.696 260.62 307.928 261.07 307.127 261.07ZM317.334 262.222C319.47 262.222 321.339 260.586 321.339 257.766C321.339 254.912 319.47 253.294 317.334 253.294C315.198 253.294 313.329 254.912 313.329 257.766C313.329 260.586 315.198 262.222 317.334 262.222ZM317.334 261.087C315.782 261.087 314.747 259.752 314.747 257.766C314.747 255.78 315.782 254.428 317.334 254.428C318.886 254.428 319.92 255.78 319.92 257.766C319.92 259.752 318.886 261.087 317.334 261.087ZM328.108 262.222C329.309 262.222 330.444 261.721 331.329 260.887L330.728 260.002C330.044 260.603 329.209 261.087 328.208 261.087C326.339 261.087 325.087 259.752 325.087 257.766C325.087 255.78 326.372 254.428 328.241 254.428C329.093 254.428 329.793 254.796 330.461 255.43L331.145 254.545C330.478 253.861 329.51 253.294 328.191 253.294C325.738 253.294 323.669 254.912 323.669 257.766C323.669 260.586 325.571 262.222 328.108 262.222ZM337.514 262.222C339.833 262.222 341.118 261.07 341.118 259.685C341.118 258.4 340.067 257.733 337.881 257.149C336.412 256.765 335.411 256.331 335.411 255.63C335.411 254.946 335.895 254.362 337.413 254.362C338.415 254.362 339.283 254.729 340 255.263L340.668 254.362C339.867 253.794 338.632 253.294 337.413 253.294C335.177 253.294 334.009 254.345 334.009 255.697C334.009 256.882 335.428 257.666 337.096 258.1C339.082 258.617 339.733 259.101 339.733 259.769C339.733 260.536 339.016 261.137 337.564 261.137C336.112 261.137 335.11 260.687 334.209 259.986L333.542 260.887C334.526 261.604 335.928 262.222 337.514 262.222ZM343.164 262.706H344.399L351.542 250.156H350.307L343.164 262.706ZM359.129 262.222C360.013 262.222 360.58 261.988 361.315 261.704L360.964 260.67C360.363 260.954 359.896 261.087 359.429 261.087C358.461 261.087 357.844 260.536 357.844 259.285V249.873H353.705V250.991H356.475V259.185C356.475 261.187 357.41 262.222 359.129 262.222ZM367.7 251.591C368.351 251.591 368.868 251.124 368.868 250.44C368.868 249.739 368.351 249.255 367.7 249.255C367.049 249.255 366.532 249.739 366.532 250.44C366.532 251.124 367.049 251.591 367.7 251.591ZM364.028 262.005H371.705V260.87H368.551V253.494H364.028V254.612H367.182V260.87H364.028V262.005ZM376.638 262.005H378.173L381.528 253.494H380.209L378.34 258.384C378.007 259.235 377.74 260.086 377.456 260.87H377.389C377.105 260.086 376.805 259.235 376.471 258.384L374.602 253.494H373.217L376.638 262.005ZM387.88 262.222C389.181 262.222 390.199 261.755 391 261.221L390.516 260.303C389.765 260.803 388.998 261.104 388.046 261.104C386.277 261.104 385.009 259.919 384.942 258.083H391.284C391.317 257.866 391.334 257.566 391.334 257.282C391.334 254.879 389.966 253.294 387.646 253.294C385.543 253.294 383.524 254.996 383.524 257.766C383.524 260.553 385.476 262.222 387.88 262.222ZM384.926 257.082C385.143 255.38 386.344 254.378 387.663 254.378C389.165 254.378 390.066 255.346 390.066 257.082H384.926Z" fill="white" fill-opacity="0.7"/>
<rect x="47.596" y="237.596" width="699.808" height="35.808" rx="7.40399" stroke="url(#paint3_linear_19_7555)" stroke-width="1.19202"/>
</g>
<g filter="url(#filter4_b_19_7555)">
<rect x="47" y="327" width="701" height="38" rx="8" fill="url(#paint4_linear_19_7555)" fill-opacity="0.5"/>
<g filter="url(#filter5_b_19_7555)">
<rect x="89.2852" y="332.75" width="46.2745" height="26.5098" rx="6.5098" fill="#18433B" fill-opacity="0.4"/>
<path d="M98.6034 352.005H105.867V350.856H102.47C101.855 350.856 101.176 350.905 100.545 350.953C103.36 348.268 105.301 346.278 105.301 344.272C105.301 342.379 104.007 341.133 101.936 341.133C100.48 341.133 99.4608 341.78 98.5386 342.751L99.299 343.511C99.9623 342.783 100.804 342.217 101.774 342.217C103.295 342.217 104.023 343.107 104.023 344.32C104.023 346.116 102.098 347.993 98.6034 351.212V352.005ZM111.976 352.199C114.273 352.199 115.681 350.177 115.681 346.634C115.681 343.058 114.273 341.133 111.976 341.133C109.679 341.133 108.271 343.058 108.271 346.634C108.271 350.177 109.679 352.199 111.976 352.199ZM111.976 351.131C110.536 351.131 109.517 349.708 109.517 346.634C109.517 343.544 110.536 342.201 111.976 342.201C113.416 342.201 114.435 343.544 114.435 346.634C114.435 349.708 113.416 351.131 111.976 351.131ZM111.976 347.621C112.51 347.621 112.979 347.216 112.979 346.521C112.979 345.825 112.51 345.42 111.976 345.42C111.442 345.42 110.973 345.825 110.973 346.521C110.973 347.216 111.442 347.621 111.976 347.621ZM121.677 352.199C123.974 352.199 125.381 350.177 125.381 346.634C125.381 343.058 123.974 341.133 121.677 341.133C119.379 341.133 117.972 343.058 117.972 346.634C117.972 350.177 119.379 352.199 121.677 352.199ZM121.677 351.131C120.237 351.131 119.218 349.708 119.218 346.634C119.218 343.544 120.237 342.201 121.677 342.201C123.116 342.201 124.136 343.544 124.136 346.634C124.136 349.708 123.116 351.131 121.677 351.131ZM121.677 347.621C122.21 347.621 122.68 347.216 122.68 346.521C122.68 345.825 122.21 345.42 121.677 345.42C121.143 345.42 120.674 345.825 120.674 346.521C120.674 347.216 121.143 347.621 121.677 347.621Z" fill="#547F77"/>
<rect x="89.692" y="333.157" width="45.4608" height="25.6961" rx="6.10293" stroke="#547F77" stroke-width="0.813724"/>
</g>
<path d="M146.146 352.005H153.322V350.87H150.535V340.991H149.517C148.849 341.341 148.032 341.625 146.897 341.792V342.676H149.167V350.87H146.146V352.005ZM155.735 352.005H163.228V350.82H159.724C159.09 350.82 158.389 350.87 157.738 350.92C160.642 348.15 162.644 346.097 162.644 344.028C162.644 342.075 161.309 340.79 159.173 340.79C157.671 340.79 156.62 341.458 155.668 342.459L156.453 343.244C157.137 342.493 158.005 341.908 159.006 341.908C160.575 341.908 161.326 342.826 161.326 344.078C161.326 345.93 159.34 347.866 155.735 351.187V352.005ZM169.53 346.231C170.281 346.231 170.882 345.663 170.882 344.812C170.882 343.978 170.281 343.41 169.53 343.41C168.779 343.41 168.178 343.978 168.178 344.812C168.178 345.663 168.779 346.231 169.53 346.231ZM169.53 352.205C170.281 352.205 170.882 351.638 170.882 350.803C170.882 349.952 170.281 349.385 169.53 349.385C168.779 349.385 168.178 349.952 168.178 350.803C168.178 351.638 168.779 352.205 169.53 352.205ZM180.671 352.005H181.973V348.951H183.625V347.85H181.973V344.779H180.671V347.85H176.699L180.671 340.991H179.236L175.181 348.033V348.951H180.671V352.005ZM189.893 352.205C191.796 352.205 193.448 350.787 193.448 348.684C193.448 346.431 192.096 345.28 190.127 345.28C189.059 345.28 187.957 345.847 187.106 346.731C187.156 343.143 188.658 341.942 190.36 341.942C191.161 341.942 191.929 342.259 192.48 342.81L193.248 341.959C192.547 341.291 191.579 340.79 190.277 340.79C187.957 340.79 185.821 342.493 185.821 346.915C185.821 350.436 187.574 352.205 189.893 352.205ZM189.893 351.12C188.341 351.12 187.357 349.952 187.156 347.816C188.057 346.731 189.042 346.314 189.876 346.314C191.345 346.314 192.146 347.165 192.146 348.684C192.146 350.136 191.161 351.12 189.893 351.12ZM199.549 346.231C200.3 346.231 200.901 345.663 200.901 344.812C200.901 343.978 200.3 343.41 199.549 343.41C198.798 343.41 198.197 343.978 198.197 344.812C198.197 345.663 198.798 346.231 199.549 346.231ZM199.549 352.205C200.3 352.205 200.901 351.638 200.901 350.803C200.901 349.952 200.3 349.385 199.549 349.385C198.798 349.385 198.197 349.952 198.197 350.803C198.197 351.638 198.798 352.205 199.549 352.205ZM210.69 352.005H211.992V348.951H213.644V347.85H211.992V344.779H210.69V347.85H206.719L210.69 340.991H209.255L205.2 348.033V348.951H210.69V352.005ZM219.562 352.205C221.932 352.205 223.384 350.119 223.384 346.464C223.384 342.776 221.932 340.79 219.562 340.79C217.192 340.79 215.74 342.776 215.74 346.464C215.74 350.119 217.192 352.205 219.562 352.205ZM217.309 348.984C217.126 348.317 217.025 347.466 217.025 346.464C217.025 343.277 218.077 341.892 219.562 341.892C220.246 341.892 220.847 342.192 221.281 342.843L217.309 348.984ZM219.562 351.104C218.828 351.104 218.21 350.753 217.76 350.019L221.765 343.828C221.982 344.512 222.099 345.396 222.099 346.464C222.099 349.635 221.047 351.104 219.562 351.104Z" fill="white" fill-opacity="0.7"/>
<path d="M234.461 337.085L234.461 354.925" stroke="#BFBFBF" stroke-width="1.15557"/>
<path d="M248.085 355.793C250.488 355.793 251.873 354.475 251.873 352.005V343.494H250.772L250.655 344.445H250.605C249.887 343.728 249.07 343.294 248.118 343.294C246.149 343.294 244.414 344.962 244.414 347.633C244.414 350.319 245.832 351.921 247.918 351.921C248.919 351.921 249.921 351.354 250.555 350.653L250.538 352.005C250.522 353.991 249.637 354.692 248.085 354.692C247.267 354.692 246.333 354.458 245.498 353.39L244.831 354.224C245.882 355.476 247.034 355.793 248.085 355.793ZM248.219 350.787C246.733 350.787 245.815 349.552 245.815 347.616C245.815 345.763 246.984 344.445 248.352 344.445C249.07 344.445 249.771 344.729 250.505 345.463V349.485C249.771 350.336 249.003 350.787 248.219 350.787ZM258.926 352.222C260.228 352.222 261.246 351.755 262.047 351.221L261.563 350.303C260.812 350.803 260.044 351.104 259.093 351.104C257.324 351.104 256.056 349.919 255.989 348.083H262.33C262.364 347.866 262.38 347.566 262.38 347.282C262.38 344.879 261.012 343.294 258.692 343.294C256.59 343.294 254.57 344.996 254.57 347.766C254.57 350.553 256.523 352.222 258.926 352.222ZM255.972 347.082C256.189 345.38 257.391 344.378 258.709 344.378C260.211 344.378 261.112 345.346 261.112 347.082H255.972ZM269.984 352.222C270.868 352.222 271.803 351.988 272.537 351.704L272.237 350.703C271.669 350.937 271.052 351.087 270.284 351.087C268.715 351.087 268.231 350.269 268.231 348.734V344.612H272.22V343.494H268.231V340.156L266.913 340.991V343.494H264.577V344.612H266.863V348.717C266.863 350.803 267.631 352.222 269.984 352.222Z" fill="white" fill-opacity="0.7"/>
<path d="M283.364 337.085L283.364 354.925" stroke="#BFBFBF" stroke-width="1.15557"/>
<path d="M293.132 352.706H294.367L301.51 340.156H300.275L293.132 352.706ZM306.843 352.222C307.845 352.222 308.813 351.588 309.48 350.87H309.53L309.647 352.005H310.782V339.873H309.413V342.81L309.463 344.412C308.712 343.711 307.995 343.294 307.01 343.294C305.091 343.294 303.322 345.013 303.322 347.766C303.322 350.603 304.724 352.222 306.843 352.222ZM307.127 351.07C305.625 351.07 304.741 349.802 304.741 347.749C304.741 345.797 305.875 344.445 307.277 344.445C307.978 344.445 308.679 344.729 309.413 345.463V349.752C308.696 350.62 307.928 351.07 307.127 351.07ZM317.334 352.222C319.47 352.222 321.339 350.586 321.339 347.766C321.339 344.912 319.47 343.294 317.334 343.294C315.198 343.294 313.329 344.912 313.329 347.766C313.329 350.586 315.198 352.222 317.334 352.222ZM317.334 351.087C315.782 351.087 314.747 349.752 314.747 347.766C314.747 345.78 315.782 344.428 317.334 344.428C318.886 344.428 319.92 345.78 319.92 347.766C319.92 349.752 318.886 351.087 317.334 351.087ZM328.108 352.222C329.309 352.222 330.444 351.721 331.329 350.887L330.728 350.002C330.044 350.603 329.209 351.087 328.208 351.087C326.339 351.087 325.087 349.752 325.087 347.766C325.087 345.78 326.372 344.428 328.241 344.428C329.093 344.428 329.793 344.796 330.461 345.43L331.145 344.545C330.478 343.861 329.51 343.294 328.191 343.294C325.738 343.294 323.669 344.912 323.669 347.766C323.669 350.586 325.571 352.222 328.108 352.222ZM337.514 352.222C339.833 352.222 341.118 351.07 341.118 349.685C341.118 348.4 340.067 347.733 337.881 347.149C336.412 346.765 335.411 346.331 335.411 345.63C335.411 344.946 335.895 344.362 337.413 344.362C338.415 344.362 339.283 344.729 340 345.263L340.668 344.362C339.867 343.794 338.632 343.294 337.413 343.294C335.177 343.294 334.009 344.345 334.009 345.697C334.009 346.882 335.428 347.666 337.096 348.1C339.082 348.617 339.733 349.101 339.733 349.769C339.733 350.536 339.016 351.137 337.564 351.137C336.112 351.137 335.11 350.687 334.209 349.986L333.542 350.887C334.526 351.604 335.928 352.222 337.514 352.222ZM343.164 352.706H344.399L351.542 340.156H350.307L343.164 352.706ZM359.129 352.222C360.013 352.222 360.58 351.988 361.315 351.704L360.964 350.67C360.363 350.954 359.896 351.087 359.429 351.087C358.461 351.087 357.844 350.536 357.844 349.285V339.873H353.705V340.991H356.475V349.185C356.475 351.187 357.41 352.222 359.129 352.222ZM367.7 341.591C368.351 341.591 368.868 341.124 368.868 340.44C368.868 339.739 368.351 339.255 367.7 339.255C367.049 339.255 366.532 339.739 366.532 340.44C366.532 341.124 367.049 341.591 367.7 341.591ZM364.028 352.005H371.705V350.87H368.551V343.494H364.028V344.612H367.182V350.87H364.028V352.005ZM376.638 352.005H378.173L381.528 343.494H380.209L378.34 348.384C378.007 349.235 377.74 350.086 377.456 350.87H377.389C377.105 350.086 376.805 349.235 376.471 348.384L374.602 343.494H373.217L376.638 352.005ZM387.88 352.222C389.181 352.222 390.199 351.755 391 351.221L390.516 350.303C389.765 350.803 388.998 351.104 388.046 351.104C386.277 351.104 385.009 349.919 384.942 348.083H391.284C391.317 347.866 391.334 347.566 391.334 347.282C391.334 344.879 389.966 343.294 387.646 343.294C385.543 343.294 383.524 344.996 383.524 347.766C383.524 350.553 385.476 352.222 387.88 352.222ZM384.926 347.082C385.143 345.38 386.344 344.378 387.663 344.378C389.165 344.378 390.066 345.346 390.066 347.082H384.926Z" fill="white" fill-opacity="0.7"/>
<rect x="47.596" y="327.596" width="699.808" height="36.808" rx="7.40399" stroke="url(#paint5_linear_19_7555)" stroke-width="1.19202"/>
</g>
<g filter="url(#filter6_b_19_7555)">
<rect x="47" y="373" width="701" height="37" rx="8" fill="url(#paint6_linear_19_7555)" fill-opacity="0.5"/>
<g filter="url(#filter7_b_19_7555)">
<rect x="89.2852" y="378.75" width="46.2745" height="26.5098" rx="6.5098" fill="#18433B" fill-opacity="0.4"/>
<path d="M98.6034 398.005H105.867V396.856H102.47C101.855 396.856 101.176 396.905 100.545 396.953C103.36 394.268 105.301 392.278 105.301 390.272C105.301 388.379 104.007 387.133 101.936 387.133C100.48 387.133 99.4608 387.78 98.5386 388.751L99.299 389.511C99.9623 388.783 100.804 388.217 101.774 388.217C103.295 388.217 104.023 389.107 104.023 390.32C104.023 392.116 102.098 393.993 98.6034 397.212V398.005ZM111.976 398.199C114.273 398.199 115.681 396.177 115.681 392.634C115.681 389.058 114.273 387.133 111.976 387.133C109.679 387.133 108.271 389.058 108.271 392.634C108.271 396.177 109.679 398.199 111.976 398.199ZM111.976 397.131C110.536 397.131 109.517 395.708 109.517 392.634C109.517 389.544 110.536 388.201 111.976 388.201C113.416 388.201 114.435 389.544 114.435 392.634C114.435 395.708 113.416 397.131 111.976 397.131ZM111.976 393.621C112.51 393.621 112.979 393.216 112.979 392.521C112.979 391.825 112.51 391.42 111.976 391.42C111.442 391.42 110.973 391.825 110.973 392.521C110.973 393.216 111.442 393.621 111.976 393.621ZM121.677 398.199C123.974 398.199 125.381 396.177 125.381 392.634C125.381 389.058 123.974 387.133 121.677 387.133C119.379 387.133 117.972 389.058 117.972 392.634C117.972 396.177 119.379 398.199 121.677 398.199ZM121.677 397.131C120.237 397.131 119.218 395.708 119.218 392.634C119.218 389.544 120.237 388.201 121.677 388.201C123.116 388.201 124.136 389.544 124.136 392.634C124.136 395.708 123.116 397.131 121.677 397.131ZM121.677 393.621C122.21 393.621 122.68 393.216 122.68 392.521C122.68 391.825 122.21 391.42 121.677 391.42C121.143 391.42 120.674 391.825 120.674 392.521C120.674 393.216 121.143 393.621 121.677 393.621Z" fill="#547F77"/>
<rect x="89.692" y="379.157" width="45.4608" height="25.6961" rx="6.10293" stroke="#547F77" stroke-width="0.813724"/>
</g>
<path d="M146.146 398.005H153.322V396.87H150.535V386.991H149.517C148.849 387.341 148.032 387.625 146.897 387.792V388.676H149.167V396.87H146.146V398.005ZM155.735 398.005H163.228V396.82H159.724C159.09 396.82 158.389 396.87 157.738 396.92C160.642 394.15 162.644 392.097 162.644 390.028C162.644 388.075 161.309 386.79 159.173 386.79C157.671 386.79 156.62 387.458 155.668 388.459L156.453 389.244C157.137 388.493 158.005 387.908 159.006 387.908C160.575 387.908 161.326 388.826 161.326 390.078C161.326 391.93 159.34 393.866 155.735 397.187V398.005ZM169.53 392.231C170.281 392.231 170.882 391.663 170.882 390.812C170.882 389.978 170.281 389.41 169.53 389.41C168.779 389.41 168.178 389.978 168.178 390.812C168.178 391.663 168.779 392.231 169.53 392.231ZM169.53 398.205C170.281 398.205 170.882 397.638 170.882 396.803C170.882 395.952 170.281 395.385 169.53 395.385C168.779 395.385 168.178 395.952 168.178 396.803C168.178 397.638 168.779 398.205 169.53 398.205ZM180.671 398.005H181.973V394.951H183.625V393.85H181.973V390.779H180.671V393.85H176.699L180.671 386.991H179.236L175.181 394.033V394.951H180.671V398.005ZM189.893 398.205C191.796 398.205 193.448 396.787 193.448 394.684C193.448 392.431 192.096 391.28 190.127 391.28C189.059 391.28 187.957 391.847 187.106 392.731C187.156 389.143 188.658 387.942 190.36 387.942C191.161 387.942 191.929 388.259 192.48 388.81L193.248 387.959C192.547 387.291 191.579 386.79 190.277 386.79C187.957 386.79 185.821 388.493 185.821 392.915C185.821 396.436 187.574 398.205 189.893 398.205ZM189.893 397.12C188.341 397.12 187.357 395.952 187.156 393.816C188.057 392.731 189.042 392.314 189.876 392.314C191.345 392.314 192.146 393.165 192.146 394.684C192.146 396.136 191.161 397.12 189.893 397.12ZM199.549 392.231C200.3 392.231 200.901 391.663 200.901 390.812C200.901 389.978 200.3 389.41 199.549 389.41C198.798 389.41 198.197 389.978 198.197 390.812C198.197 391.663 198.798 392.231 199.549 392.231ZM199.549 398.205C200.3 398.205 200.901 397.638 200.901 396.803C200.901 395.952 200.3 395.385 199.549 395.385C198.798 395.385 198.197 395.952 198.197 396.803C198.197 397.638 198.798 398.205 199.549 398.205ZM210.69 398.005H211.992V394.951H213.644V393.85H211.992V390.779H210.69V393.85H206.719L210.69 386.991H209.255L205.2 394.033V394.951H210.69V398.005ZM219.562 398.205C221.932 398.205 223.384 396.119 223.384 392.464C223.384 388.776 221.932 386.79 219.562 386.79C217.192 386.79 215.74 388.776 215.74 392.464C215.74 396.119 217.192 398.205 219.562 398.205ZM217.309 394.984C217.126 394.317 217.025 393.466 217.025 392.464C217.025 389.277 218.077 387.892 219.562 387.892C220.246 387.892 220.847 388.192 221.281 388.843L217.309 394.984ZM219.562 397.104C218.828 397.104 218.21 396.753 217.76 396.019L221.765 389.828C221.982 390.512 222.099 391.396 222.099 392.464C222.099 395.635 221.047 397.104 219.562 397.104Z" fill="white" fill-opacity="0.7"/>
<path d="M234.461 383.085L234.461 400.925" stroke="#BFBFBF" stroke-width="1.15557"/>
<path d="M248.085 401.793C250.488 401.793 251.873 400.475 251.873 398.005V389.494H250.772L250.655 390.445H250.605C249.887 389.728 249.07 389.294 248.118 389.294C246.149 389.294 244.414 390.962 244.414 393.633C244.414 396.319 245.832 397.921 247.918 397.921C248.919 397.921 249.921 397.354 250.555 396.653L250.538 398.005C250.522 399.991 249.637 400.692 248.085 400.692C247.267 400.692 246.333 400.458 245.498 399.39L244.831 400.224C245.882 401.476 247.034 401.793 248.085 401.793ZM248.219 396.787C246.733 396.787 245.815 395.552 245.815 393.616C245.815 391.763 246.984 390.445 248.352 390.445C249.07 390.445 249.771 390.729 250.505 391.463V395.485C249.771 396.336 249.003 396.787 248.219 396.787ZM258.926 398.222C260.228 398.222 261.246 397.755 262.047 397.221L261.563 396.303C260.812 396.803 260.044 397.104 259.093 397.104C257.324 397.104 256.056 395.919 255.989 394.083H262.33C262.364 393.866 262.38 393.566 262.38 393.282C262.38 390.879 261.012 389.294 258.692 389.294C256.59 389.294 254.57 390.996 254.57 393.766C254.57 396.553 256.523 398.222 258.926 398.222ZM255.972 393.082C256.189 391.38 257.391 390.378 258.709 390.378C260.211 390.378 261.112 391.346 261.112 393.082H255.972ZM269.984 398.222C270.868 398.222 271.803 397.988 272.537 397.704L272.237 396.703C271.669 396.937 271.052 397.087 270.284 397.087C268.715 397.087 268.231 396.269 268.231 394.734V390.612H272.22V389.494H268.231V386.156L266.913 386.991V389.494H264.577V390.612H266.863V394.717C266.863 396.803 267.631 398.222 269.984 398.222Z" fill="white" fill-opacity="0.7"/>
<path d="M283.364 383.085L283.364 400.925" stroke="#BFBFBF" stroke-width="1.15557"/>
<path d="M293.132 398.706H294.367L301.51 386.156H300.275L293.132 398.706ZM306.843 398.222C307.845 398.222 308.813 397.588 309.48 396.87H309.53L309.647 398.005H310.782V385.873H309.413V388.81L309.463 390.412C308.712 389.711 307.995 389.294 307.01 389.294C305.091 389.294 303.322 391.013 303.322 393.766C303.322 396.603 304.724 398.222 306.843 398.222ZM307.127 397.07C305.625 397.07 304.741 395.802 304.741 393.749C304.741 391.797 305.875 390.445 307.277 390.445C307.978 390.445 308.679 390.729 309.413 391.463V395.752C308.696 396.62 307.928 397.07 307.127 397.07ZM317.334 398.222C319.47 398.222 321.339 396.586 321.339 393.766C321.339 390.912 319.47 389.294 317.334 389.294C315.198 389.294 313.329 390.912 313.329 393.766C313.329 396.586 315.198 398.222 317.334 398.222ZM317.334 397.087C315.782 397.087 314.747 395.752 314.747 393.766C314.747 391.78 315.782 390.428 317.334 390.428C318.886 390.428 319.92 391.78 319.92 393.766C319.92 395.752 318.886 397.087 317.334 397.087ZM328.108 398.222C329.309 398.222 330.444 397.721 331.329 396.887L330.728 396.002C330.044 396.603 329.209 397.087 328.208 397.087C326.339 397.087 325.087 395.752 325.087 393.766C325.087 391.78 326.372 390.428 328.241 390.428C329.093 390.428 329.793 390.796 330.461 391.43L331.145 390.545C330.478 389.861 329.51 389.294 328.191 389.294C325.738 389.294 323.669 390.912 323.669 393.766C323.669 396.586 325.571 398.222 328.108 398.222ZM337.514 398.222C339.833 398.222 341.118 397.07 341.118 395.685C341.118 394.4 340.067 393.733 337.881 393.149C336.412 392.765 335.411 392.331 335.411 391.63C335.411 390.946 335.895 390.362 337.413 390.362C338.415 390.362 339.283 390.729 340 391.263L340.668 390.362C339.867 389.794 338.632 389.294 337.413 389.294C335.177 389.294 334.009 390.345 334.009 391.697C334.009 392.882 335.428 393.666 337.096 394.1C339.082 394.617 339.733 395.101 339.733 395.769C339.733 396.536 339.016 397.137 337.564 397.137C336.112 397.137 335.11 396.687 334.209 395.986L333.542 396.887C334.526 397.604 335.928 398.222 337.514 398.222ZM343.164 398.706H344.399L351.542 386.156H350.307L343.164 398.706ZM359.129 398.222C360.013 398.222 360.58 397.988 361.315 397.704L360.964 396.67C360.363 396.954 359.896 397.087 359.429 397.087C358.461 397.087 357.844 396.536 357.844 395.285V385.873H353.705V386.991H356.475V395.185C356.475 397.187 357.41 398.222 359.129 398.222ZM367.7 387.591C368.351 387.591 368.868 387.124 368.868 386.44C368.868 385.739 368.351 385.255 367.7 385.255C367.049 385.255 366.532 385.739 366.532 386.44C366.532 387.124 367.049 387.591 367.7 387.591ZM364.028 398.005H371.705V396.87H368.551V389.494H364.028V390.612H367.182V396.87H364.028V398.005ZM376.638 398.005H378.173L381.528 389.494H380.209L378.34 394.384C378.007 395.235 377.74 396.086 377.456 396.87H377.389C377.105 396.086 376.805 395.235 376.471 394.384L374.602 389.494H373.217L376.638 398.005ZM387.88 398.222C389.181 398.222 390.199 397.755 391 397.221L390.516 396.303C389.765 396.803 388.998 397.104 388.046 397.104C386.277 397.104 385.009 395.919 384.942 394.083H391.284C391.317 393.866 391.334 393.566 391.334 393.282C391.334 390.879 389.966 389.294 387.646 389.294C385.543 389.294 383.524 390.996 383.524 393.766C383.524 396.553 385.476 398.222 387.88 398.222ZM384.926 393.082C385.143 391.38 386.344 390.378 387.663 390.378C389.165 390.378 390.066 391.346 390.066 393.082H384.926Z" fill="white" fill-opacity="0.7"/>
<rect x="47.596" y="373.596" width="699.808" height="35.808" rx="7.40399" stroke="url(#paint7_linear_19_7555)" stroke-width="1.19202"/>
</g>
</g>
<defs>
<filter id="filter0_b_19_7555" x="37.4639" y="136.464" width="720.072" height="56.0723" filterUnits="userSpaceOnUse" color-interpolation-filters="sRGB">
<feFlood flood-opacity="0" result="BackgroundImageFix"/>
<feGaussianBlur in="BackgroundImageFix" stdDeviation="4.76807"/>
<feComposite in2="SourceAlpha" operator="in" result="effect1_backgroundBlur_19_7555"/>
<feBlend mode="normal" in="SourceGraphic" in2="effect1_backgroundBlur_19_7555" result="shape"/>
</filter>
<filter id="filter1_b_19_7555" x="46.0313" y="108.496" width="132.782" height="113.017" filterUnits="userSpaceOnUse" color-interpolation-filters="sRGB">
<feFlood flood-opacity="0" result="BackgroundImageFix"/>
<feGaussianBlur in="BackgroundImageFix" stdDeviation="21.6269"/>
<feComposite in2="SourceAlpha" operator="in" result="effect1_backgroundBlur_19_7555"/>
<feBlend mode="normal" in="SourceGraphic" in2="effect1_backgroundBlur_19_7555" result="shape"/>
</filter>
<filter id="filter2_b_19_7555" x="37.4639" y="227.464" width="720.072" height="56.0723" filterUnits="userSpaceOnUse" color-interpolation-filters="sRGB">
<feFlood flood-opacity="0" result="BackgroundImageFix"/>
<feGaussianBlur in="BackgroundImageFix" stdDeviation="4.76807"/>
<feComposite in2="SourceAlpha" operator="in" result="effect1_backgroundBlur_19_7555"/>
<feBlend mode="normal" in="SourceGraphic" in2="effect1_backgroundBlur_19_7555" result="shape"/>
</filter>
<filter id="filter3_b_19_7555" x="46.0313" y="199.496" width="132.782" height="113.017" filterUnits="userSpaceOnUse" color-interpolation-filters="sRGB">
<feFlood flood-opacity="0" result="BackgroundImageFix"/>
<feGaussianBlur in="BackgroundImageFix" stdDeviation="21.6269"/>
<feComposite in2="SourceAlpha" operator="in" result="effect1_backgroundBlur_19_7555"/>
<feBlend mode="normal" in="SourceGraphic" in2="effect1_backgroundBlur_19_7555" result="shape"/>
</filter>
<filter id="filter4_b_19_7555" x="37.4639" y="317.464" width="720.072" height="57.0723" filterUnits="userSpaceOnUse" color-interpolation-filters="sRGB">
<feFlood flood-opacity="0" result="BackgroundImageFix"/>
<feGaussianBlur in="BackgroundImageFix" stdDeviation="4.76807"/>
<feComposite in2="SourceAlpha" operator="in" result="effect1_backgroundBlur_19_7555"/>
<feBlend mode="normal" in="SourceGraphic" in2="effect1_backgroundBlur_19_7555" result="shape"/>
</filter>
<filter id="filter5_b_19_7555" x="46.0313" y="289.496" width="132.782" height="113.017" filterUnits="userSpaceOnUse" color-interpolation-filters="sRGB">
<feFlood flood-opacity="0" result="BackgroundImageFix"/>
<feGaussianBlur in="BackgroundImageFix" stdDeviation="21.6269"/>
<feComposite in2="SourceAlpha" operator="in" result="effect1_backgroundBlur_19_7555"/>
<feBlend mode="normal" in="SourceGraphic" in2="effect1_backgroundBlur_19_7555" result="shape"/>
</filter>
<filter id="filter6_b_19_7555" x="37.4639" y="363.464" width="720.072" height="56.0723" filterUnits="userSpaceOnUse" color-interpolation-filters="sRGB">
<feFlood flood-opacity="0" result="BackgroundImageFix"/>
<feGaussianBlur in="BackgroundImageFix" stdDeviation="4.76807"/>
<feComposite in2="SourceAlpha" operator="in" result="effect1_backgroundBlur_19_7555"/>
<feBlend mode="normal" in="SourceGraphic" in2="effect1_backgroundBlur_19_7555" result="shape"/>
</filter>
<filter id="filter7_b_19_7555" x="46.0313" y="335.496" width="132.782" height="113.017" filterUnits="userSpaceOnUse" color-interpolation-filters="sRGB">
<feFlood flood-opacity="0" result="BackgroundImageFix"/>
<feGaussianBlur in="BackgroundImageFix" stdDeviation="21.6269"/>
<feComposite in2="SourceAlpha" operator="in" result="effect1_backgroundBlur_19_7555"/>
<feBlend mode="normal" in="SourceGraphic" in2="effect1_backgroundBlur_19_7555" result="shape"/>
</filter>
<linearGradient id="paint0_linear_19_7555" x1="406.16" y1="110.179" x2="427.091" y2="220.454" gradientUnits="userSpaceOnUse">
<stop stop-color="#BB93C5" stop-opacity="0"/>
<stop offset="0.197872" stop-color="#BB93C5" stop-opacity="0.19"/>
<stop offset="1" stop-color="#302642"/>
</linearGradient>
<linearGradient id="paint1_linear_19_7555" x1="627.95" y1="183" x2="639.702" y2="138.344" gradientUnits="userSpaceOnUse">
<stop stop-color="#D478FF" stop-opacity="0.05"/>
<stop offset="1" stop-color="#D782FF" stop-opacity="0.74"/>
</linearGradient>
<linearGradient id="paint2_linear_19_7555" x1="400.855" y1="174.902" x2="424.406" y2="311.719" gradientUnits="userSpaceOnUse">
<stop stop-color="#BB93C5" stop-opacity="0"/>
<stop offset="0.197872" stop-color="#BB93C5" stop-opacity="0.19"/>
<stop offset="1" stop-color="#302642"/>
</linearGradient>
<linearGradient id="paint3_linear_19_7555" x1="627.95" y1="274" x2="639.702" y2="229.344" gradientUnits="userSpaceOnUse">
<stop stop-color="#D478FF" stop-opacity="0.05"/>
<stop offset="1" stop-color="#D782FF" stop-opacity="0.74"/>
</linearGradient>
<linearGradient id="paint4_linear_19_7555" x1="406.937" y1="265.136" x2="425.607" y2="403.004" gradientUnits="userSpaceOnUse">
<stop stop-color="#BB93C5" stop-opacity="0.19"/>
<stop offset="1" stop-color="#302642"/>
</linearGradient>
<linearGradient id="paint5_linear_19_7555" x1="627.95" y1="365" x2="640.302" y2="319.299" gradientUnits="userSpaceOnUse">
<stop stop-color="#D478FF" stop-opacity="0.05"/>
<stop offset="1" stop-color="#D782FF" stop-opacity="0.74"/>
</linearGradient>
<linearGradient id="paint6_linear_19_7555" x1="406.937" y1="312.764" x2="424.654" y2="447.129" gradientUnits="userSpaceOnUse">
<stop stop-color="#BB93C5" stop-opacity="0.19"/>
<stop offset="1" stop-color="#302642"/>
</linearGradient>
<linearGradient id="paint7_linear_19_7555" x1="627.95" y1="410" x2="639.702" y2="365.344" gradientUnits="userSpaceOnUse">
<stop stop-color="#D478FF" stop-opacity="0.05"/>
<stop offset="1" stop-color="#D782FF" stop-opacity="0.74"/>
</linearGradient>
<clipPath id="clip0_19_7555">
<rect width="533" height="400" fill="white"/>
</clipPath>
</defs>
</svg>
