<svg width="764" height="208" viewBox="0 0 764 208" fill="none" xmlns="http://www.w3.org/2000/svg">
<g clip-path="url(#clip0_924_58879)">
<rect width="764" height="208" fill="#171717"/>
<mask id="path-1-inside-1_924_58879" fill="white">
<path d="M668.278 4.26089C686.326 13.086 701.987 26.1231 713.939 42.272C725.891 58.4209 733.783 77.2078 736.949 97.0473L689.338 104.646C687.39 92.443 682.536 80.8875 675.184 70.9546C667.833 61.0217 658.2 53.0028 647.099 47.5746L668.278 4.26089Z"/>
</mask>
<path d="M668.278 4.26089C686.326 13.086 701.987 26.1231 713.939 42.272C725.891 58.4209 733.783 77.2078 736.949 97.0473L689.338 104.646C687.39 92.443 682.536 80.8875 675.184 70.9546C667.833 61.0217 658.2 53.0028 647.099 47.5746L668.278 4.26089Z" fill="#171717" stroke="#333333" mask="url(#path-1-inside-1_924_58879)"/>
<mask id="path-2-inside-2_924_58879" fill="white">
<path d="M673.146 226.802C653.101 237.715 630.454 242.943 607.653 241.923C584.853 240.902 562.764 233.671 543.774 221.011L570.623 180.736C582.275 188.504 595.828 192.941 609.818 193.567C623.808 194.194 637.703 190.986 650.003 184.29L673.146 226.802Z"/>
</mask>
<path d="M673.146 226.802C653.101 237.715 630.454 242.943 607.653 241.923C584.853 240.902 562.764 233.671 543.774 221.011L570.623 180.736C582.275 188.504 595.828 192.941 609.818 193.567C623.808 194.194 637.703 190.986 650.003 184.29L673.146 226.802Z" stroke="#333333" mask="url(#path-2-inside-2_924_58879)"/>
<mask id="path-3-inside-3_924_58879" fill="white">
<path d="M516.021 195.753C501.972 178.453 492.792 157.718 489.43 135.687C486.067 113.656 488.644 91.1263 496.893 70.423L541.859 88.34C536.797 101.043 535.216 114.866 537.28 128.384C539.343 141.902 544.975 154.624 553.595 165.239L516.021 195.753Z"/>
</mask>
<path d="M516.021 195.753C501.972 178.453 492.792 157.718 489.43 135.687C486.067 113.656 488.644 91.1263 496.893 70.423L541.859 88.34C536.797 101.043 535.216 114.866 537.28 128.384C539.343 141.902 544.975 154.624 553.595 165.239L516.021 195.753Z" fill="#171717" stroke="#333333" mask="url(#path-3-inside-3_924_58879)"/>
<mask id="path-4-inside-4_924_58879" fill="white">
<path d="M541.517 14.1071C567.764 -4.23054 600.037 -11.8208 631.706 -7.10456L624.599 40.6183C605.129 37.7187 585.287 42.3853 569.15 53.6594L541.517 14.1071Z"/>
</mask>
<path d="M541.517 14.1071C567.764 -4.23054 600.037 -11.8208 631.706 -7.10456L624.599 40.6183C605.129 37.7187 585.287 42.3853 569.15 53.6594L541.517 14.1071Z" fill="#171717" stroke="#333333" mask="url(#path-4-inside-4_924_58879)"/>
<mask id="path-5-inside-5_924_58879" fill="white">
<path d="M630.778 -7.23917C636.364 -6.45004 641.89 -5.2845 647.318 -3.75052L634.207 42.6469C630.868 41.7034 627.469 40.9865 624.033 40.5011L630.778 -7.23917Z"/>
</mask>
<path d="M630.778 -7.23917C636.364 -6.45004 641.89 -5.2845 647.318 -3.75052L634.207 42.6469C630.868 41.7034 627.469 40.9865 624.033 40.5011L630.778 -7.23917Z" fill="#171717" stroke="#333333" mask="url(#path-5-inside-5_924_58879)"/>
<mask id="path-6-inside-6_924_58879" fill="white">
<path d="M702.634 -66.0023C731.952 -51.6666 757.392 -30.4891 776.807 -4.25674C796.222 21.9756 809.042 52.4932 814.185 84.7207L736.844 97.0641C733.68 77.2415 725.795 58.4706 713.853 42.3355C701.912 26.2004 686.264 13.1744 668.231 4.35682L702.634 -66.0023Z"/>
</mask>
<path d="M702.634 -66.0023C731.952 -51.6666 757.392 -30.4891 776.807 -4.25674C796.222 21.9756 809.042 52.4932 814.185 84.7207L736.844 97.0641C733.68 77.2415 725.795 58.4706 713.853 42.3355C701.912 26.2004 686.264 13.1744 668.231 4.35682L702.634 -66.0023Z" fill="#242424" stroke="#333333" mask="url(#path-6-inside-6_924_58879)"/>
<mask id="path-7-inside-7_924_58879" fill="white">
<path d="M580.111 317.543C535.342 310.152 494.329 288.009 463.59 254.633L521.425 201.366C540.286 221.844 565.45 235.431 592.919 239.966L580.111 317.543Z"/>
</mask>
<path d="M580.111 317.543C535.342 310.152 494.329 288.009 463.59 254.633L521.425 201.366C540.286 221.844 565.45 235.431 592.919 239.966L580.111 317.543Z" fill="#171717" stroke="#333333" mask="url(#path-7-inside-7_924_58879)"/>
<mask id="path-8-inside-8_924_58879" fill="white">
<path d="M414.57 160.663C406.764 125.313 408.53 88.5197 419.687 54.0799C430.845 19.6402 450.988 -11.1993 478.04 -35.2569L530.291 23.4978C513.693 38.2588 501.333 57.181 494.488 78.3123C487.642 99.4435 486.558 122.019 491.348 143.709L414.57 160.663Z"/>
</mask>
<path d="M414.57 160.663C406.764 125.313 408.53 88.5197 419.687 54.0799C430.845 19.6402 450.988 -11.1993 478.04 -35.2569L530.291 23.4978C513.693 38.2588 501.333 57.181 494.488 78.3123C487.642 99.4435 486.558 122.019 491.348 143.709L414.57 160.663Z" fill="#171717" stroke="#1F1F1F" mask="url(#path-8-inside-8_924_58879)"/>
<mask id="path-9-inside-9_924_58879" fill="white">
<path d="M464.021 255.1C452.591 242.767 442.733 229.064 434.674 214.305L503.683 176.622C508.628 185.678 514.676 194.085 521.69 201.653L464.021 255.1Z"/>
</mask>
<path d="M464.021 255.1C452.591 242.767 442.733 229.064 434.674 214.305L503.683 176.622C508.628 185.678 514.676 194.085 521.69 201.653L464.021 255.1Z" fill="#171717" stroke="#333333" mask="url(#path-9-inside-9_924_58879)"/>
<mask id="path-10-inside-10_924_58879" fill="white">
<path d="M496.722 -50.0079C539.359 -79.7958 591.783 -92.1256 643.227 -84.4644L631.682 -6.94301C600.054 -11.6531 567.823 -4.07273 541.61 14.241L496.722 -50.0079Z"/>
</mask>
<path d="M496.722 -50.0079C539.359 -79.7958 591.783 -92.1256 643.227 -84.4644L631.682 -6.94301C600.054 -11.6531 567.823 -4.07273 541.61 14.241L496.722 -50.0079Z" fill="#171717" stroke="#333333" mask="url(#path-10-inside-10_924_58879)"/>
<mask id="path-11-inside-11_924_58879" fill="white">
<path d="M652.302 -82.9021C669.982 -79.4451 687.124 -73.6556 703.279 -65.6854L668.628 4.55172C658.691 -0.350631 648.147 -3.91167 637.273 -6.03801L652.302 -82.9021Z"/>
</mask>
<path d="M652.302 -82.9021C669.982 -79.4451 687.124 -73.6556 703.279 -65.6854L668.628 4.55172C658.691 -0.350631 648.147 -3.91167 637.273 -6.03801L652.302 -82.9021Z" fill="#171717" stroke="#333333" mask="url(#path-11-inside-11_924_58879)"/>
<mask id="path-12-inside-12_924_58879" fill="white">
<path d="M596.968 192.552C578.195 188.516 561.588 177.654 550.368 162.071L574.67 144.573C581.554 154.134 591.743 160.798 603.262 163.275L596.968 192.552Z"/>
</mask>
<path d="M596.968 192.552C578.195 188.516 561.588 177.654 550.368 162.071L574.67 144.573C581.554 154.134 591.743 160.798 603.262 163.275L596.968 192.552Z" fill="#171717" stroke="#333333" mask="url(#path-12-inside-12_924_58879)"/>
<mask id="path-13-inside-13_924_58879" fill="white">
<path d="M537.575 133.458C534.61 119.993 535.29 105.98 539.546 92.8658C543.803 79.7514 551.481 68.0101 561.789 58.853L581.677 81.2409C575.352 86.8594 570.641 94.0636 568.03 102.11C565.418 110.157 565.001 118.755 566.82 127.016L537.575 133.458Z"/>
</mask>
<path d="M537.575 133.458C534.61 119.993 535.29 105.98 539.546 92.8658C543.803 79.7514 551.481 68.0101 561.789 58.853L581.677 81.2409C575.352 86.8594 570.641 94.0636 568.03 102.11C565.418 110.157 565.001 118.755 566.82 127.016L537.575 133.458Z" fill="#171717" stroke="#333333" mask="url(#path-13-inside-13_924_58879)"/>
<mask id="path-14-inside-14_924_58879" fill="white">
<path d="M568.873 53.2626C585.111 41.9176 605.078 37.2217 624.67 40.1396L620.273 69.6642C608.228 67.8704 595.952 70.7574 585.969 77.7324L568.873 53.2626Z"/>
</mask>
<path d="M568.873 53.2626C585.111 41.9176 605.078 37.2217 624.67 40.1396L620.273 69.6642C608.228 67.8704 595.952 70.7574 585.969 77.7324L568.873 53.2626Z" fill="#171717" stroke="#333333" mask="url(#path-14-inside-14_924_58879)"/>
<mask id="path-15-inside-15_924_58879" fill="white">
<path d="M624.096 40.0563C640.344 42.3518 655.444 49.7455 667.22 61.1724C678.997 72.5992 686.842 87.4693 689.626 103.64C692.41 119.812 689.989 136.449 682.712 151.156C675.435 165.863 663.677 177.881 649.132 185.478L635.323 159.038C644.269 154.365 651.501 146.974 655.977 137.928C660.453 128.881 661.942 118.648 660.23 108.701C658.517 98.7547 653.692 89.6083 646.448 82.5799C639.205 75.5514 629.917 71.0037 619.924 69.5917L624.096 40.0563Z"/>
</mask>
<path d="M624.096 40.0563C640.344 42.3518 655.444 49.7455 667.22 61.1724C678.997 72.5992 686.842 87.4693 689.626 103.64C692.41 119.812 689.989 136.449 682.712 151.156C675.435 165.863 663.677 177.881 649.132 185.478L635.323 159.038C644.269 154.365 651.501 146.974 655.977 137.928C660.453 128.881 661.942 118.648 660.23 108.701C658.517 98.7547 653.692 89.6083 646.448 82.5799C639.205 75.5514 629.917 71.0037 619.924 69.5917L624.096 40.0563Z" stroke="#333333" mask="url(#path-15-inside-15_924_58879)"/>
<mask id="path-16-inside-16_924_58879" fill="white">
<path d="M640.444 124.053C639.12 129.007 636.468 133.505 632.774 137.062C629.08 140.618 624.485 143.098 619.484 144.233L616.836 132.567C619.711 131.914 622.353 130.489 624.477 128.444C626.601 126.399 628.126 123.813 628.887 120.965L640.444 124.053Z"/>
</mask>
<path d="M640.444 124.053C639.12 129.007 636.468 133.505 632.774 137.062C629.08 140.618 624.485 143.098 619.484 144.233L616.836 132.567C619.711 131.914 622.353 130.489 624.477 128.444C626.601 126.399 628.126 123.813 628.887 120.965L640.444 124.053Z" fill="#1F1F1F" stroke="#242424" mask="url(#path-16-inside-16_924_58879)"/>
<mask id="path-17-inside-17_924_58879" fill="white">
<path d="M609.423 88.9085C614.072 88.2693 618.807 88.803 623.198 90.461C627.588 92.119 631.494 94.8486 634.56 98.4015C637.627 101.954 639.756 106.218 640.754 110.803C641.752 115.389 641.587 120.152 640.275 124.657L628.79 121.312C629.544 118.722 629.639 115.984 629.065 113.348C628.491 110.711 627.267 108.26 625.504 106.218C623.741 104.175 621.496 102.606 618.971 101.652C616.447 100.699 613.725 100.392 611.052 100.76L609.423 88.9085Z"/>
</mask>
<path d="M609.423 88.9085C614.072 88.2693 618.807 88.803 623.198 90.461C627.588 92.119 631.494 94.8486 634.56 98.4015C637.627 101.954 639.756 106.218 640.754 110.803C641.752 115.389 641.587 120.152 640.275 124.657L628.79 121.312C629.544 118.722 629.639 115.984 629.065 113.348C628.491 110.711 627.267 108.26 625.504 106.218C623.741 104.175 621.496 102.606 618.971 101.652C616.447 100.699 613.725 100.392 611.052 100.76L609.423 88.9085Z" fill="#171717" stroke="#242424" mask="url(#path-17-inside-17_924_58879)"/>
<mask id="path-18-inside-18_924_58879" fill="white">
<path d="M620.208 144.058C615.641 145.223 610.855 145.221 606.288 144.055C601.722 142.888 597.522 140.593 594.073 137.38C590.624 134.168 588.038 130.14 586.551 125.668C585.064 121.195 584.724 116.421 585.562 111.783L597.325 113.909C596.843 116.577 597.038 119.323 597.894 121.896C598.749 124.469 600.237 126.786 602.221 128.634C604.205 130.482 606.621 131.802 609.248 132.473C611.875 133.144 614.628 133.145 617.255 132.475L620.208 144.058Z"/>
</mask>
<path d="M620.208 144.058C615.641 145.223 610.855 145.221 606.288 144.055C601.722 142.888 597.522 140.593 594.073 137.38C590.624 134.168 588.038 130.14 586.551 125.668C585.064 121.195 584.724 116.421 585.562 111.783L597.325 113.909C596.843 116.577 597.038 119.323 597.894 121.896C598.749 124.469 600.237 126.786 602.221 128.634C604.205 130.482 606.621 131.802 609.248 132.473C611.875 133.144 614.628 133.145 617.255 132.475L620.208 144.058Z" fill="#171717" stroke="#242424" mask="url(#path-18-inside-18_924_58879)"/>
<mask id="path-19-inside-19_924_58879" fill="white">
<path d="M585.428 112.589C586.349 106.492 589.246 100.866 593.674 96.5758C598.103 92.2856 603.817 89.5686 609.94 88.8422L611.347 100.702C607.823 101.12 604.533 102.684 601.984 105.154C599.435 107.623 597.767 110.862 597.238 114.371L585.428 112.589Z"/>
</mask>
<path d="M585.428 112.589C586.349 106.492 589.246 100.866 593.674 96.5758C598.103 92.2856 603.817 89.5686 609.94 88.8422L611.347 100.702C607.823 101.12 604.533 102.684 601.984 105.154C599.435 107.623 597.767 110.862 597.238 114.371L585.428 112.589Z" fill="#171717" stroke="#242424" mask="url(#path-19-inside-19_924_58879)"/>
<mask id="path-20-inside-20_924_58879" fill="white">
<path d="M659.372 130.228C657.121 137.951 652.967 144.986 647.29 150.686C641.613 156.385 634.595 160.568 626.881 162.85C619.166 165.132 611.002 165.44 603.138 163.746C595.274 162.051 587.961 158.409 581.871 153.153L595.202 137.707C598.705 140.73 602.912 142.825 607.436 143.8C611.959 144.775 616.656 144.598 621.093 143.285C625.531 141.972 629.568 139.566 632.833 136.287C636.099 133.009 638.489 128.962 639.783 124.519L659.372 130.228Z"/>
</mask>
<path d="M659.372 130.228C657.121 137.951 652.967 144.986 647.29 150.686C641.613 156.385 634.595 160.568 626.881 162.85C619.166 165.132 611.002 165.44 603.138 163.746C595.274 162.051 587.961 158.409 581.871 153.153L595.202 137.707C598.705 140.73 602.912 142.825 607.436 143.8C611.959 144.775 616.656 144.598 621.093 143.285C625.531 141.972 629.568 139.566 632.833 136.287C636.099 133.009 638.489 128.962 639.783 124.519L659.372 130.228Z" fill="#171717" stroke="#333333" mask="url(#path-20-inside-20_924_58879)"/>
<mask id="path-21-inside-21_924_58879" fill="white">
<path d="M582.939 154.048C577.902 149.949 573.748 144.871 570.728 139.121L588.776 129.644C590.514 132.953 592.905 135.876 595.805 138.236L582.939 154.048Z"/>
</mask>
<path d="M582.939 154.048C577.902 149.949 573.748 144.871 570.728 139.121L588.776 129.644C590.514 132.953 592.905 135.876 595.805 138.236L582.939 154.048Z" fill="#171717" stroke="#333333" mask="url(#path-21-inside-21_924_58879)"/>
<mask id="path-22-inside-22_924_58879" fill="white">
<path d="M565.675 123.378C564.517 115.018 565.582 106.502 568.763 98.6848L587.681 106.383C585.853 110.876 585.241 115.771 585.906 120.576L565.675 123.378Z"/>
</mask>
<path d="M565.675 123.378C564.517 115.018 565.582 106.502 568.763 98.6848L587.681 106.383C585.853 110.876 585.241 115.771 585.906 120.576L565.675 123.378Z" fill="#171717" stroke="#333333" mask="url(#path-22-inside-22_924_58879)"/>
<mask id="path-23-inside-23_924_58879" fill="white">
<path d="M568.638 98.9951C572.531 89.2339 579.517 81.0187 588.526 75.6085C597.535 70.1984 608.07 67.8919 618.515 69.0426L616.272 89.4043C610.281 88.7443 604.239 90.0672 599.072 93.1701C593.905 96.2731 589.898 100.985 587.666 106.583L568.638 98.9951Z"/>
</mask>
<path d="M568.638 98.9951C572.531 89.2339 579.517 81.0187 588.526 75.6085C597.535 70.1984 608.07 67.8919 618.515 69.0426L616.272 89.4043C610.281 88.7443 604.239 90.0672 599.072 93.1701C593.905 96.2731 589.898 100.985 587.666 106.583L568.638 98.9951Z" fill="#212121" stroke="#333333" mask="url(#path-23-inside-23_924_58879)"/>
<path d="M568.638 98.9951C572.531 89.2339 579.517 81.0187 588.526 75.6085C597.535 70.1984 608.07 67.8919 618.515 69.0426L616.272 89.4043C610.281 88.7443 604.239 90.0672 599.072 93.1701C593.905 96.2731 589.898 100.985 587.666 106.583L568.638 98.9951Z" fill="#171717" stroke="#333333" stroke-width="0.5" stroke-miterlimit="16" stroke-linecap="round"/>
<mask id="path-25-inside-24_924_58879" fill="white">
<path d="M537.576 133.458C534.61 119.993 535.29 105.98 539.546 92.8658C543.803 79.7514 551.481 68.0101 561.789 58.853L581.677 81.2409C575.352 86.8594 570.641 94.0636 568.03 102.11C565.418 110.157 565.001 118.755 566.82 127.016L537.576 133.458Z"/>
</mask>
<path d="M537.576 133.458C534.61 119.993 535.29 105.98 539.546 92.8658C543.803 79.7514 551.481 68.0101 561.789 58.853L581.677 81.2409C575.352 86.8594 570.641 94.0636 568.03 102.11C565.418 110.157 565.001 118.755 566.82 127.016L537.576 133.458Z" fill="#1F1F1F" stroke="#4D4D4D" mask="url(#path-25-inside-24_924_58879)"/>
<mask id="path-26-inside-25_924_58879" fill="white">
<path d="M673.146 226.802C653.101 237.715 630.454 242.943 607.654 241.922C584.853 240.902 562.764 233.671 543.774 221.01L570.624 180.736C582.276 188.504 595.829 192.941 609.818 193.567C623.808 194.193 637.704 190.985 650.003 184.29L673.146 226.802Z"/>
</mask>
<path d="M673.146 226.802C653.101 237.715 630.454 242.943 607.654 241.922C584.853 240.902 562.764 233.671 543.774 221.01L570.624 180.736C582.276 188.504 595.829 192.941 609.818 193.567C623.808 194.193 637.704 190.985 650.003 184.29L673.146 226.802Z" fill="#1F1F1F" stroke="#4D4D4D" mask="url(#path-26-inside-25_924_58879)"/>
<mask id="path-27-inside-26_924_58879" fill="white">
<path d="M702.634 -66.0023C731.952 -51.6666 757.392 -30.4891 776.807 -4.25674C796.222 21.9756 809.041 52.4932 814.185 84.7207L736.844 97.0641C733.68 77.2415 725.795 58.4706 713.853 42.3355C701.912 26.2004 686.264 13.1744 668.231 4.35682L702.634 -66.0023Z"/>
</mask>
<path d="M702.634 -66.0023C731.952 -51.6666 757.392 -30.4891 776.807 -4.25674C796.222 21.9756 809.041 52.4932 814.185 84.7207L736.844 97.0641C733.68 77.2415 725.795 58.4706 713.853 42.3355C701.912 26.2004 686.264 13.1744 668.231 4.35682L702.634 -66.0023Z" fill="#1F1F1F" stroke="#4D4D4D" mask="url(#path-27-inside-26_924_58879)"/>
<mask id="path-28-inside-27_924_58879" fill="white">
<path d="M640.444 124.053C639.12 129.007 636.468 133.505 632.774 137.061C629.08 140.618 624.485 143.098 619.484 144.233L616.837 132.566C619.711 131.914 622.354 130.488 624.477 128.444C626.601 126.399 628.126 123.813 628.887 120.965L640.444 124.053Z"/>
</mask>
<path d="M640.444 124.053C639.12 129.007 636.468 133.505 632.774 137.061C629.08 140.618 624.485 143.098 619.484 144.233L616.837 132.566C619.711 131.914 622.354 130.488 624.477 128.444C626.601 126.399 628.126 123.813 628.887 120.965L640.444 124.053Z" fill="#1F1F1F" stroke="#4D4D4D" mask="url(#path-28-inside-27_924_58879)"/>
<rect x="203.23" width="489" height="208" fill="url(#paint0_linear_924_58879)"/>
</g>
<defs>
<linearGradient id="paint0_linear_924_58879" x1="605.113" y1="115" x2="207.056" y2="111.765" gradientUnits="userSpaceOnUse">
<stop stop-color="#171717" stop-opacity="0"/>
<stop offset="1" stop-color="#171717"/>
</linearGradient>
<clipPath id="clip0_924_58879">
<rect width="764" height="208" fill="white"/>
</clipPath>
</defs>
</svg>
