<svg xmlns="http://www.w3.org/2000/svg" width="349" height="208" fill="none" viewBox="0 0 349 208"><g clip-path="url(#a)"><path fill="#fcfcfc" d="M0 0h349v208H0z"/><mask id="b" fill="#fff"><path d="M273.69 4.26a125.26 125.26 0 0 1 68.672 92.787l-47.612 7.599a77.05 77.05 0 0 0-14.153-33.691 77.05 77.05 0 0 0-28.086-23.38z"/></mask><path fill="#fff" stroke="#d4d4d4" d="M273.69 4.26a125.26 125.26 0 0 1 68.672 92.787l-47.612 7.599a77.05 77.05 0 0 0-14.153-33.691 77.05 77.05 0 0 0-28.086-23.38z" mask="url(#b)"/><mask id="c" fill="#fff"><path d="M278.558 226.802a125.26 125.26 0 0 1-129.372-5.791l26.85-40.275a76.85 76.85 0 0 0 79.379 3.554z"/></mask><path stroke="#d4d4d4" d="M278.558 226.802a125.26 125.26 0 0 1-129.372-5.791l26.85-40.275a76.85 76.85 0 0 0 79.379 3.554z" mask="url(#c)"/><mask id="d" fill="#fff"><path d="M121.433 195.753a125.26 125.26 0 0 1-19.128-125.33l44.966 17.917a76.86 76.86 0 0 0 11.736 76.899z"/></mask><path fill="#fff" stroke="#d4d4d4" d="M121.433 195.753a125.26 125.26 0 0 1-19.128-125.33l44.966 17.917a76.86 76.86 0 0 0 11.736 76.899z" mask="url(#d)"/><mask id="e" fill="#fff"><path d="M146.929 14.107a125.26 125.26 0 0 1 90.189-21.212l-7.107 47.723a77 77 0 0 0-55.449 13.041z"/></mask><path fill="#f8f8f8" stroke="#d4d4d4" d="M146.929 14.107a125.26 125.26 0 0 1 90.189-21.212l-7.107 47.723a77 77 0 0 0-55.449 13.041z" mask="url(#e)"/><mask id="f" fill="#fff"><path d="M236.191-7.24c5.585.79 11.111 1.955 16.539 3.49l-13.111 46.397a77 77 0 0 0-10.173-2.146z"/></mask><path fill="#fff" stroke="#d4d4d4" d="M236.191-7.24c5.585.79 11.111 1.955 16.539 3.49l-13.111 46.397a77 77 0 0 0-10.173-2.146z" mask="url(#f)"/><mask id="g" fill="#fff"><path d="M308.046-66.002A203.47 203.47 0 0 1 419.597 84.72l-77.341 12.343a125.15 125.15 0 0 0-68.613-92.707z"/></mask><path fill="#f7f7f7" stroke="#d4d4d4" d="M308.046-66.002A203.47 203.47 0 0 1 419.597 84.72l-77.341 12.343a125.15 125.15 0 0 0-68.613-92.707z" mask="url(#g)"/><mask id="h" fill="#fff"><path d="M185.523 317.543a203.47 203.47 0 0 1-116.521-62.91l57.835-53.267a124.85 124.85 0 0 0 71.494 38.6z"/></mask><path fill="#fff" stroke="#d4d4d4" d="M185.523 317.543a203.47 203.47 0 0 1-116.521-62.91l57.835-53.267a124.85 124.85 0 0 0 71.494 38.6z" mask="url(#h)"/><mask id="i" fill="#fff"><path d="M19.982 160.663a203.47 203.47 0 0 1 63.47-195.92l52.251 58.755A124.84 124.84 0 0 0 96.76 143.709z"/></mask><path fill="#fff" stroke="#fcfcfc" d="M19.982 160.663a203.47 203.47 0 0 1 63.47-195.92l52.251 58.755A124.84 124.84 0 0 0 96.76 143.709z" mask="url(#i)"/><mask id="j" fill="#fff"><path d="M69.433 255.1a203.5 203.5 0 0 1-29.347-40.795l69.009-37.683a124.8 124.8 0 0 0 18.007 25.031z"/></mask><path fill="#fff" stroke="#d4d4d4" d="M69.433 255.1a203.5 203.5 0 0 1-29.347-40.795l69.009-37.683a124.8 124.8 0 0 0 18.007 25.031z" mask="url(#j)"/><mask id="k" fill="#fff"><path d="M102.135-50.008a203.47 203.47 0 0 1 146.504-34.456L237.094-6.943a125.1 125.1 0 0 0-90.072 21.184z"/></mask><path fill="#fff" stroke="#d4d4d4" d="M102.135-50.008a203.47 203.47 0 0 1 146.504-34.456L237.094-6.943a125.1 125.1 0 0 0-90.072 21.184z" mask="url(#k)"/><mask id="l" fill="#fff"><path d="M257.714-82.902a203.5 203.5 0 0 1 50.977 17.217L274.04 4.552a125.2 125.2 0 0 0-31.355-10.59z"/></mask><path fill="#fff" stroke="#d4d4d4" d="M257.714-82.902a203.5 203.5 0 0 1 50.977 17.217L274.04 4.552a125.2 125.2 0 0 0-31.355-10.59z" mask="url(#l)"/><mask id="m" fill="#fff"><path d="M202.38 192.552a77.5 77.5 0 0 1-46.6-30.481l24.302-17.498a47.55 47.55 0 0 0 28.592 18.702z"/></mask><path fill="#fff" stroke="#d4d4d4" d="M202.38 192.552a77.5 77.5 0 0 1-46.6-30.481l24.302-17.498a47.55 47.55 0 0 0 28.592 18.702z" mask="url(#m)"/><mask id="n" fill="#fff"><path d="M142.988 133.458a77.5 77.5 0 0 1 24.213-74.605l19.888 22.388a47.55 47.55 0 0 0-14.856 45.775z"/></mask><path fill="#fff" stroke="#d4d4d4" d="M142.988 133.458a77.5 77.5 0 0 1 24.213-74.605l19.888 22.388a47.55 47.55 0 0 0-14.856 45.775z" mask="url(#n)"/><mask id="o" fill="#fff"><path d="M174.285 53.263a77.5 77.5 0 0 1 55.798-13.123l-4.397 29.524a47.64 47.64 0 0 0-34.305 8.068z"/></mask><path fill="#fff" stroke="#d4d4d4" d="M174.285 53.263a77.5 77.5 0 0 1 55.798-13.123l-4.397 29.524a47.64 47.64 0 0 0-34.305 8.068z" mask="url(#o)"/><mask id="p" fill="#fff"><path d="M229.509 40.056a77.5 77.5 0 0 1 65.529 63.584 77.5 77.5 0 0 1-40.494 81.838l-13.809-26.44a47.666 47.666 0 0 0-15.399-89.446z"/></mask><path stroke="#d4d4d4" d="M229.509 40.056a77.5 77.5 0 0 1 65.529 63.584 77.5 77.5 0 0 1-40.494 81.838l-13.809-26.44a47.666 47.666 0 0 0-15.399-89.446z" mask="url(#p)"/><mask id="q" fill="#fff"><path d="M245.856 124.053a28.15 28.15 0 0 1-20.96 20.18l-2.648-11.666a16.18 16.18 0 0 0 12.051-11.602z"/></mask><path fill="#fcfcfc" stroke="#ededed" d="M245.856 124.053a28.15 28.15 0 0 1-20.96 20.18l-2.648-11.666a16.18 16.18 0 0 0 12.051-11.602z" mask="url(#q)"/><mask id="r" fill="#fff"><path d="M214.835 88.909a28.143 28.143 0 0 1 30.852 35.748l-11.485-3.345a16.18 16.18 0 0 0-17.738-20.552z"/></mask><path fill="#fff" stroke="#ededed" d="M214.835 88.909a28.143 28.143 0 0 1 30.852 35.748l-11.485-3.345a16.18 16.18 0 0 0-17.738-20.552z" mask="url(#r)"/><mask id="s" fill="#fff"><path d="M225.621 144.058a28.15 28.15 0 0 1-26.136-6.678 28.15 28.15 0 0 1-8.511-25.597l11.763 2.126a16.2 16.2 0 0 0 4.896 14.725 16.19 16.19 0 0 0 15.034 3.841z"/></mask><path fill="#fff" stroke="#ededed" d="M225.621 144.058a28.15 28.15 0 0 1-26.136-6.678 28.15 28.15 0 0 1-8.511-25.597l11.763 2.126a16.2 16.2 0 0 0 4.896 14.725 16.19 16.19 0 0 0 15.034 3.841z" mask="url(#s)"/><mask id="t" fill="#fff"><path d="M190.841 112.589a28.144 28.144 0 0 1 24.511-23.747l1.407 11.86a16.2 16.2 0 0 0-14.109 13.669z"/></mask><path fill="#fff" stroke="#ededed" d="M190.841 112.589a28.144 28.144 0 0 1 24.511-23.747l1.407 11.86a16.2 16.2 0 0 0-14.109 13.669z" mask="url(#t)"/><mask id="u" fill="#fff"><path d="M264.784 130.228a48.04 48.04 0 0 1-32.491 32.622 48.04 48.04 0 0 1-45.01-9.697l13.331-15.446a27.64 27.64 0 0 0 25.891 5.578 27.63 27.63 0 0 0 18.691-18.766z"/></mask><path fill="#fff" stroke="#d4d4d4" d="M264.784 130.228a48.04 48.04 0 0 1-32.491 32.622 48.04 48.04 0 0 1-45.01-9.697l13.331-15.446a27.64 27.64 0 0 0 25.891 5.578 27.63 27.63 0 0 0 18.691-18.766z" mask="url(#u)"/><mask id="v" fill="#fff"><path d="M188.351 154.048a48.05 48.05 0 0 1-12.211-14.927l18.048-9.477a27.7 27.7 0 0 0 7.029 8.592z"/></mask><path fill="#fff" stroke="#d4d4d4" d="M188.351 154.048a48.05 48.05 0 0 1-12.211-14.927l18.048-9.477a27.7 27.7 0 0 0 7.029 8.592z" mask="url(#v)"/><mask id="w" fill="#fff"><path d="M171.087 123.378a48 48 0 0 1 3.088-24.693l18.919 7.698a27.6 27.6 0 0 0-1.775 14.193z"/></mask><path fill="#fff" stroke="#d4d4d4" d="M171.087 123.378a48 48 0 0 1 3.088-24.693l18.919 7.698a27.6 27.6 0 0 0-1.775 14.193z" mask="url(#w)"/><mask id="x" fill="#fff"><path d="M174.05 98.995a48.036 48.036 0 0 1 49.877-29.952l-2.243 20.361a27.55 27.55 0 0 0-28.606 17.179z"/></mask><path fill="#f3f3f3" stroke="#d4d4d4" d="M174.05 98.995a48.036 48.036 0 0 1 49.877-29.952l-2.243 20.361a27.55 27.55 0 0 0-28.606 17.179z" mask="url(#x)"/><path fill="#fff" stroke="#d4d4d4" stroke-linecap="round" stroke-miterlimit="16" stroke-width=".5" d="M174.05 98.995a48.036 48.036 0 0 1 49.877-29.952l-2.243 20.361a27.55 27.55 0 0 0-28.606 17.179z"/><mask id="y" fill="#fff"><path d="M142.988 133.458a77.5 77.5 0 0 1 24.213-74.605l19.888 22.388a47.55 47.55 0 0 0-14.856 45.775z"/></mask><path fill="#fcfcfc" stroke="#b2b2b2" d="M142.988 133.458a77.5 77.5 0 0 1 24.213-74.605l19.888 22.388a47.55 47.55 0 0 0-14.856 45.775z" mask="url(#y)"/><mask id="z" fill="#fff"><path d="M278.558 226.802a125.25 125.25 0 0 1-129.372-5.792l26.85-40.274a76.85 76.85 0 0 0 79.379 3.554z"/></mask><path fill="#fcfcfc" stroke="#b2b2b2" d="M278.558 226.802a125.25 125.25 0 0 1-129.372-5.792l26.85-40.274a76.85 76.85 0 0 0 79.379 3.554z" mask="url(#z)"/><mask id="A" fill="#fff"><path d="M308.046-66.002A203.47 203.47 0 0 1 419.597 84.72l-77.341 12.343a125.15 125.15 0 0 0-68.613-92.707z"/></mask><path fill="#fcfcfc" stroke="#b2b2b2" d="M308.046-66.002A203.47 203.47 0 0 1 419.597 84.72l-77.341 12.343a125.15 125.15 0 0 0-68.613-92.707z" mask="url(#A)"/><mask id="B" fill="#fff"><path d="M245.856 124.053a28.14 28.14 0 0 1-20.96 20.18l-2.648-11.667a16.18 16.18 0 0 0 12.051-11.601z"/></mask><path fill="#fcfcfc" stroke="#b2b2b2" d="M245.856 124.053a28.14 28.14 0 0 1-20.96 20.18l-2.648-11.667a16.18 16.18 0 0 0 12.051-11.601z" mask="url(#B)"/></g><defs><clipPath id="a"><path fill="#fff" d="M0 0h349v208H0z"/></clipPath></defs></svg>