<svg width="764" height="208" viewBox="0 0 764 208" fill="none" xmlns="http://www.w3.org/2000/svg">
<g clip-path="url(#clip0_735_73011)">
<rect width="764" height="208" fill="#FCFCFC"/>
<mask id="path-1-inside-1_735_73011" fill="white">
<path d="M729.13 62.284C735.821 81.2278 737.857 101.503 735.066 121.399C732.275 141.295 724.74 160.228 713.096 176.599L673.805 148.655C680.968 138.585 685.603 126.939 687.319 114.702C689.036 102.464 687.783 89.9932 683.668 78.3412L729.13 62.284Z"/>
</mask>
<path d="M729.13 62.284C735.821 81.2278 737.857 101.503 735.066 121.399C732.275 141.295 724.74 160.228 713.096 176.599L673.805 148.655C680.968 138.585 685.603 126.939 687.319 114.702C689.036 102.464 687.783 89.9932 683.668 78.3412L729.13 62.284Z" fill="#F7F7F7" stroke="#EDEDED" mask="url(#path-1-inside-1_735_73011)"/>
<mask id="path-2-inside-2_735_73011" fill="white">
<path d="M576.65 224.452C554.703 218.189 534.883 206.048 519.333 189.342C503.783 172.635 493.093 151.998 488.418 129.658L535.795 119.743C538.664 133.45 545.223 146.113 554.764 156.363C564.305 166.614 576.466 174.063 589.932 177.906L576.65 224.452Z"/>
</mask>
<path d="M576.65 224.452C554.703 218.189 534.883 206.048 519.333 189.342C503.783 172.635 493.093 151.998 488.418 129.658L535.795 119.743C538.664 133.45 545.223 146.113 554.764 156.363C564.305 166.614 576.466 174.063 589.932 177.906L576.65 224.452Z" stroke="#EDEDED" mask="url(#path-2-inside-2_735_73011)"/>
<mask id="path-3-inside-3_735_73011" fill="white">
<path d="M486.319 92.1913C488.42 70.0043 496.403 48.7797 509.443 30.7069C522.484 12.6341 540.11 -1.63228 560.503 -10.6205L580.025 33.6721C567.512 39.187 556.697 47.9405 548.696 59.0294C540.695 70.1184 535.797 83.1412 534.508 96.7545L486.319 92.1913Z"/>
</mask>
<path d="M486.319 92.1913C488.42 70.0043 496.403 48.7797 509.443 30.7069C522.484 12.6341 540.11 -1.63228 560.503 -10.6205L580.025 33.6721C567.512 39.187 556.697 47.9405 548.696 59.0294C540.695 70.1184 535.797 83.1412 534.508 96.7545L486.319 92.1913Z" fill="white" stroke="#EDEDED" mask="url(#path-3-inside-3_735_73011)"/>
<mask id="path-4-inside-4_735_73011" fill="white">
<path d="M486.319 92.1913C488.42 70.0043 496.403 48.7797 509.443 30.7069C522.484 12.6341 540.11 -1.63228 560.503 -10.6205L580.025 33.6721C567.512 39.187 556.697 47.9405 548.696 59.0294C540.695 70.1184 535.797 83.1412 534.508 96.7545L486.319 92.1913Z"/>
</mask>
<path d="M486.319 92.1913C488.42 70.0043 496.403 48.7797 509.443 30.7069C522.484 12.6341 540.11 -1.63228 560.503 -10.6205L580.025 33.6721C567.512 39.187 556.697 47.9405 548.696 59.0294C540.695 70.1184 535.797 83.1412 534.508 96.7545L486.319 92.1913Z" fill="white" stroke="#B2B2B2" mask="url(#path-4-inside-4_735_73011)"/>
<mask id="path-5-inside-5_735_73011" fill="white">
<path d="M631.801 -19.5237C663.376 -14.2118 691.718 2.98973 711.005 28.5474L672.492 57.6113C660.634 41.8983 643.209 31.3227 623.797 28.0569L631.801 -19.5237Z"/>
</mask>
<path d="M631.801 -19.5237C663.376 -14.2118 691.718 2.98973 711.005 28.5474L672.492 57.6113C660.634 41.8983 643.209 31.3227 623.797 28.0569L631.801 -19.5237Z" fill="#FCFCFC" stroke="#EDEDED" mask="url(#path-5-inside-5_735_73011)"/>
<mask id="path-6-inside-6_735_73011" fill="white">
<path d="M710.438 27.8013C713.869 32.2784 716.994 36.9823 719.792 41.8807L677.924 65.7914C676.203 62.7785 674.281 59.8852 672.171 57.1314L710.438 27.8013Z"/>
</mask>
<path d="M710.438 27.8013C713.869 32.2784 716.994 36.9823 719.792 41.8807L677.924 65.7914C676.203 62.7785 674.281 59.8852 672.171 57.1314L710.438 27.8013Z" fill="#EDEDED" stroke="#EDEDED" mask="url(#path-6-inside-6_735_73011)"/>
<mask id="path-7-inside-7_735_73011" fill="white">
<path d="M802.878 36.2362C813.747 67.0086 817.054 99.9439 812.521 132.263C807.988 164.582 795.747 195.336 776.832 221.931L713.009 176.538C724.643 160.18 732.172 141.263 734.96 121.384C737.749 101.505 735.714 81.2472 729.029 62.3196L802.878 36.2362Z"/>
</mask>
<path d="M802.878 36.2362C813.747 67.0086 817.054 99.9439 812.521 132.263C807.988 164.582 795.747 195.336 776.832 221.931L713.009 176.538C724.643 160.18 732.172 141.263 734.96 121.384C737.749 101.505 735.714 81.2472 729.029 62.3196L802.878 36.2362Z" fill="#F7F7F7" stroke="#EDEDED" mask="url(#path-7-inside-7_735_73011)"/>
<mask id="path-8-inside-8_735_73011" fill="white">
<path d="M446.691 223.986C419.999 187.429 406.258 143.015 407.644 97.7711L486.235 100.178C485.384 127.938 493.815 155.19 510.193 177.62L446.691 223.986Z"/>
</mask>
<path d="M446.691 223.986C419.999 187.429 406.258 143.015 407.644 97.7711L486.235 100.178C485.384 127.938 493.815 155.19 510.193 177.62L446.691 223.986Z" fill="white" stroke="#EDEDED" mask="url(#path-8-inside-8_735_73011)"/>
<mask id="path-9-inside-9_735_73011" fill="white">
<path d="M438.537 -3.93631C457.741 -34.6248 484.785 -59.6339 516.879 -76.3837C548.973 -93.1335 584.955 -101.017 621.112 -99.222L617.213 -20.6912C595.027 -21.7928 572.95 -16.9555 553.258 -6.67833C533.566 3.59887 516.973 18.9438 505.19 37.7733L438.537 -3.93631Z"/>
</mask>
<path d="M438.537 -3.93631C457.741 -34.6248 484.785 -59.6339 516.879 -76.3837C548.973 -93.1335 584.955 -101.017 621.112 -99.222L617.213 -20.6912C595.027 -21.7928 572.95 -16.9555 553.258 -6.67833C533.566 3.59887 516.973 18.9438 505.19 37.7733L438.537 -3.93631Z" fill="white" stroke="#EDEDED" mask="url(#path-9-inside-9_735_73011)"/>
<mask id="path-10-inside-10_735_73011" fill="white">
<path d="M407.635 98.0878C408.123 81.2791 410.694 64.5958 415.287 48.4196L490.924 69.8974C488.106 79.8227 486.529 90.0591 486.229 100.372L407.635 98.0878Z"/>
</mask>
<path d="M407.635 98.0878C408.123 81.2791 410.694 64.5958 415.287 48.4196L490.924 69.8974C488.106 79.8227 486.529 90.0591 486.229 100.372L407.635 98.0878Z" fill="white" stroke="#B2B2B2" mask="url(#path-10-inside-10_735_73011)"/>
<mask id="path-11-inside-11_735_73011" fill="white">
<path d="M644.777 -96.6528C696.067 -88.0242 742.106 -60.0819 773.436 -18.5658L710.875 28.6458C691.613 3.12148 663.308 -14.0576 631.774 -19.3625L644.777 -96.6528Z"/>
</mask>
<path d="M644.777 -96.6528C696.067 -88.0242 742.106 -60.0819 773.436 -18.5658L710.875 28.6458C691.613 3.12148 663.308 -14.0576 631.774 -19.3625L644.777 -96.6528Z" fill="#FCFCFC" stroke="#EDEDED" mask="url(#path-11-inside-11_735_73011)"/>
<mask id="path-12-inside-12_735_73011" fill="white">
<path d="M772.514 -19.7778C778.088 -12.5051 783.165 -4.86409 787.709 3.09294L719.699 41.9337C716.904 37.0395 713.782 32.3396 710.353 27.8663L772.514 -19.7778Z"/>
</mask>
<path d="M772.514 -19.7778C778.088 -12.5051 783.165 -4.86409 787.709 3.09294L719.699 41.9337C716.904 37.0395 713.782 32.3396 710.353 27.8663L772.514 -19.7778Z" fill="#EDEDED" stroke="#EDEDED" mask="url(#path-12-inside-12_735_73011)"/>
<mask id="path-13-inside-13_735_73011" fill="white">
<path d="M589.757 178.52C576.178 174.645 563.917 167.134 554.296 156.798C544.676 146.463 538.062 133.695 535.17 119.874L564.481 113.74C566.256 122.22 570.313 130.054 576.216 136.396C582.119 142.737 589.642 147.346 597.974 149.723L589.757 178.52Z"/>
</mask>
<path d="M589.757 178.52C576.178 174.645 563.917 167.134 554.296 156.798C544.676 146.463 538.062 133.695 535.17 119.874L564.481 113.74C566.256 122.22 570.313 130.054 576.216 136.396C582.119 142.737 589.642 147.346 597.974 149.723L589.757 178.52Z" fill="white" stroke="#EDEDED" mask="url(#path-13-inside-13_735_73011)"/>
<mask id="path-14-inside-14_735_73011" fill="white">
<path d="M545.351 62.8563C552.671 51.1723 562.976 41.6529 575.203 35.2801C587.43 28.9074 601.135 25.9121 614.906 26.6033L613.404 56.5116C604.955 56.0875 596.546 57.9253 589.044 61.8354C581.542 65.7456 575.219 71.5864 570.728 78.7554L545.351 62.8563Z"/>
</mask>
<path d="M545.351 62.8563C552.671 51.1723 562.976 41.6529 575.203 35.2801C587.43 28.9074 601.135 25.9121 614.906 26.6033L613.404 56.5116C604.955 56.0875 596.546 57.9253 589.044 61.8354C581.542 65.7456 575.219 71.5864 570.728 78.7554L545.351 62.8563Z" fill="white" stroke="#EDEDED" mask="url(#path-14-inside-14_735_73011)"/>
<mask id="path-15-inside-15_735_73011" fill="white">
<path d="M623.877 27.5797C643.411 30.866 660.946 41.508 672.878 57.3198L649.051 75.3007C641.715 65.5796 630.935 59.0367 618.925 57.0163L623.877 27.5797Z"/>
</mask>
<path d="M623.877 27.5797C643.411 30.866 660.946 41.508 672.878 57.3198L649.051 75.3007C641.715 65.5796 630.935 59.0367 618.925 57.0163L623.877 27.5797Z" fill="#EDEDED" stroke="#EDEDED" mask="url(#path-15-inside-15_735_73011)"/>
<mask id="path-16-inside-16_735_73011" fill="white">
<path d="M672.527 56.8582C682.509 69.8818 688.099 85.738 688.493 102.142C688.886 118.547 684.062 134.653 674.716 148.14C665.369 161.627 651.983 171.799 636.485 177.191C620.987 182.583 604.178 182.916 588.478 178.143L597.155 149.604C606.812 152.54 617.151 152.335 626.683 149.019C636.216 145.702 644.45 139.445 650.199 131.15C655.947 122.854 658.915 112.947 658.673 102.857C658.431 92.7673 654.992 83.0145 648.852 75.0038L672.527 56.8582Z"/>
</mask>
<path d="M672.527 56.8582C682.509 69.8818 688.099 85.738 688.493 102.142C688.886 118.547 684.062 134.653 674.716 148.14C665.369 161.627 651.983 171.799 636.485 177.191C620.987 182.583 604.178 182.916 588.478 178.143L597.155 149.604C606.812 152.54 617.151 152.335 626.683 149.019C636.216 145.702 644.45 139.445 650.199 131.15C655.947 122.854 658.915 112.947 658.673 102.857C658.431 92.7673 654.992 83.0145 648.852 75.0038L672.527 56.8582Z" stroke="#D4D4D4" mask="url(#path-16-inside-16_735_73011)"/>
<mask id="path-17-inside-17_735_73011" fill="white">
<path d="M659.056 104C659.056 112.752 656.664 121.339 652.14 128.831C647.615 136.323 641.13 142.437 633.384 146.512L623.878 128.441C628.331 126.098 632.06 122.583 634.661 118.276C637.262 113.968 638.637 109.032 638.637 104H659.056Z"/>
</mask>
<path d="M659.056 104C659.056 112.752 656.664 121.339 652.14 128.831C647.615 136.323 641.13 142.437 633.384 146.512L623.878 128.441C628.331 126.098 632.06 122.583 634.661 118.276C637.262 113.968 638.637 109.032 638.637 104H659.056Z" fill="white" stroke="#EDEDED" mask="url(#path-17-inside-17_735_73011)"/>
<mask id="path-18-inside-18_735_73011" fill="white">
<path d="M634.501 145.905C627.483 149.837 619.59 151.944 611.546 152.032C603.501 152.12 595.564 150.186 588.462 146.408C581.359 142.629 575.32 137.128 570.897 130.408C566.474 123.688 563.81 115.965 563.149 107.948L583.483 106.271C583.863 110.883 585.396 115.325 587.94 119.191C590.484 123.057 593.958 126.221 598.044 128.395C602.13 130.568 606.695 131.68 611.323 131.63C615.95 131.579 620.491 130.367 624.528 128.105L634.501 145.905Z"/>
</mask>
<path d="M634.501 145.905C627.483 149.837 619.59 151.944 611.546 152.032C603.501 152.12 595.564 150.186 588.462 146.408C581.359 142.629 575.32 137.128 570.897 130.408C566.474 123.688 563.81 115.965 563.149 107.948L583.483 106.271C583.863 110.883 585.396 115.325 587.94 119.191C590.484 123.057 593.958 126.221 598.044 128.395C602.13 130.568 606.695 131.68 611.323 131.63C615.95 131.579 620.491 130.367 624.528 128.105L634.501 145.905Z" fill="#FCFCFC" stroke="#DFDFDF" mask="url(#path-18-inside-18_735_73011)"/>
<mask id="path-19-inside-19_735_73011" fill="white">
<path d="M563.284 109.335C561.92 97.1324 565.281 84.8709 572.676 75.0692L588.949 87.3468C584.692 92.9889 582.757 100.047 583.542 107.071L563.284 109.335Z"/>
</mask>
<path d="M563.284 109.335C561.92 97.1324 565.281 84.8709 572.676 75.0692L588.949 87.3468C584.692 92.9889 582.757 100.047 583.542 107.071L563.284 109.335Z" fill="white" stroke="#DFDFDF" mask="url(#path-19-inside-19_735_73011)"/>
<mask id="path-20-inside-20_735_73011" fill="white">
<path d="M572.461 75.357C577.493 68.5824 584.221 63.2532 591.968 59.9057L600.069 78.6549C595.616 80.579 591.749 83.6422 588.857 87.5362L572.461 75.357Z"/>
</mask>
<path d="M572.461 75.357C577.493 68.5824 584.221 63.2532 591.968 59.9057L600.069 78.6549C595.616 80.579 591.749 83.6422 588.857 87.5362L572.461 75.357Z" fill="#FCFCFC" stroke="#EDEDED" mask="url(#path-20-inside-20_735_73011)"/>
<mask id="path-21-inside-21_735_73011" fill="white">
<path d="M591.661 60.0395C601.279 55.8041 612.02 54.8394 622.238 57.2933C632.456 59.7472 641.587 65.4843 648.233 73.6252L632.363 86.5789C628.552 81.9097 623.315 78.6193 617.454 77.2119C611.594 75.8045 605.433 76.3577 599.917 78.7869L591.661 60.0395Z"/>
</mask>
<path d="M591.661 60.0395C601.279 55.8041 612.02 54.8394 622.238 57.2933C632.456 59.7472 641.587 65.4843 648.233 73.6252L632.363 86.5789C628.552 81.9097 623.315 78.6193 617.454 77.2119C611.594 75.8045 605.433 76.3577 599.917 78.7869L591.661 60.0395Z" fill="#F3F3F3" stroke="#EDEDED" mask="url(#path-21-inside-21_735_73011)"/>
<path d="M591.661 60.0395C601.279 55.8041 612.02 54.8394 622.238 57.2933C632.456 59.7472 641.587 65.4843 648.233 73.6252L632.363 86.5789C628.552 81.9097 623.315 78.6193 617.454 77.2119C611.594 75.8045 605.433 76.3577 599.917 78.7869L591.661 60.0395Z" fill="#EDEDED" stroke="#B2B2B2" stroke-width="0.5" stroke-miterlimit="16" stroke-linecap="round"/>
<mask id="path-23-inside-22_735_73011" fill="white">
<path d="M625.326 128.236C620.91 130.842 615.866 132.192 610.738 132.141C605.611 132.089 600.594 130.638 596.232 127.943L602.518 117.765C605.027 119.315 607.91 120.149 610.858 120.179C613.806 120.208 616.706 119.432 619.245 117.933L625.326 128.236Z"/>
</mask>
<path d="M625.326 128.236C620.91 130.842 615.866 132.192 610.738 132.141C605.611 132.089 600.594 130.638 596.232 127.943L602.518 117.765C605.027 119.315 607.91 120.149 610.858 120.179C613.806 120.208 616.706 119.432 619.245 117.933L625.326 128.236Z" fill="white" stroke="#EDEDED" mask="url(#path-23-inside-22_735_73011)"/>
<mask id="path-24-inside-23_735_73011" fill="white">
<path d="M627.824 81.4251C631.589 84.2273 634.593 87.9265 636.563 92.186C638.533 96.4455 639.407 101.13 639.105 105.813C638.802 110.497 637.334 115.03 634.832 119.001C632.33 122.972 628.876 126.254 624.782 128.548L618.932 118.113C621.286 116.794 623.272 114.907 624.71 112.624C626.149 110.341 626.993 107.735 627.167 105.043C627.341 102.35 626.838 99.6568 625.706 97.208C624.573 94.7591 622.846 92.6324 620.682 91.0213L627.824 81.4251Z"/>
</mask>
<path d="M627.824 81.4251C631.589 84.2273 634.593 87.9265 636.563 92.186C638.533 96.4455 639.407 101.13 639.105 105.813C638.802 110.497 637.334 115.03 634.832 119.001C632.33 122.972 628.876 126.254 624.782 128.548L618.932 118.113C621.286 116.794 623.272 114.907 624.71 112.624C626.149 110.341 626.993 107.735 627.167 105.043C627.341 102.35 626.838 99.6568 625.706 97.208C624.573 94.7591 622.846 92.6324 620.682 91.0213L627.824 81.4251Z" fill="white" stroke="#EDEDED" mask="url(#path-24-inside-23_735_73011)"/>
<mask id="path-25-inside-24_735_73011" fill="white">
<path d="M596.871 128.326C592.797 125.956 589.383 122.601 586.943 118.569C584.503 114.536 583.115 109.956 582.906 105.247C582.698 100.538 583.675 95.8528 585.748 91.6202C587.821 87.3875 590.925 83.7434 594.773 81.0222L601.674 90.7823C599.461 92.3476 597.676 94.4439 596.483 96.8787C595.29 99.3135 594.728 102.009 594.848 104.717C594.968 107.426 595.767 110.061 597.17 112.381C598.574 114.7 600.538 116.63 602.881 117.993L596.871 128.326Z"/>
</mask>
<path d="M596.871 128.326C592.797 125.956 589.383 122.601 586.943 118.569C584.503 114.536 583.115 109.956 582.906 105.247C582.698 100.538 583.675 95.8528 585.748 91.6202C587.821 87.3875 590.925 83.7434 594.773 81.0222L601.674 90.7823C599.461 92.3476 597.676 94.4439 596.483 96.8787C595.29 99.3135 594.728 102.009 594.848 104.717C594.968 107.426 595.767 110.061 597.17 112.381C598.574 114.7 600.538 116.63 602.881 117.993L596.871 128.326Z" fill="white" stroke="#EDEDED" mask="url(#path-25-inside-24_735_73011)"/>
<mask id="path-26-inside-25_735_73011" fill="white">
<path d="M594.113 81.5033C599.042 77.7989 605.051 75.8157 611.217 75.8585C617.382 75.9014 623.363 77.968 628.24 81.7407L620.933 91.1871C618.125 89.0155 614.683 87.8259 611.134 87.8012C607.585 87.7765 604.126 88.9181 601.288 91.0504L594.113 81.5033Z"/>
</mask>
<path d="M594.113 81.5033C599.042 77.7989 605.051 75.8157 611.217 75.8585C617.382 75.9014 623.363 77.968 628.24 81.7407L620.933 91.1871C618.125 89.0155 614.683 87.8259 611.134 87.8012C607.585 87.7765 604.126 88.9181 601.288 91.0504L594.113 81.5033Z" fill="#EDEDED" stroke="#EDEDED" mask="url(#path-26-inside-25_735_73011)"/>
</g>
<defs>
<clipPath id="clip0_735_73011">
<rect width="764" height="208" fill="white"/>
</clipPath>
</defs>
</svg>
