<svg xmlns="http://www.w3.org/2000/svg" width="349" height="208" fill="none" viewBox="0 0 349 208"><g clip-path="url(#a)"><path fill="#171717" d="M0 0h349v208H0z"/><path stroke="url(#b)" stroke-dasharray="0.5 1" stroke-width=".5" d="M175.341 104c0 18.151-14.714 32.865-32.865 32.865S109.61 122.151 109.61 104s14.715-32.865 32.866-32.865S175.341 85.849 175.341 104Z"/><path stroke="url(#c)" stroke-dasharray="0.5 1" stroke-width=".5" d="M189.245 104c0 25.83-20.94 46.769-46.769 46.769-25.83 0-46.77-20.939-46.77-46.769s20.94-46.769 46.77-46.769c25.829 0 46.769 20.94 46.769 46.769Z"/><path stroke="url(#d)" stroke-dasharray="0.5 1" stroke-width=".5" d="M202.975 104c0 33.413-27.087 60.499-60.499 60.499s-60.5-27.086-60.5-60.499 27.087-60.499 60.5-60.499S202.975 70.587 202.975 104Z"/><path stroke="url(#e)" stroke-dasharray="0.5 1" stroke-width=".5" d="M216.705 104c0 40.996-33.234 74.229-74.229 74.229-40.996 0-74.23-33.233-74.23-74.229 0-40.995 33.234-74.229 74.23-74.229 40.995 0 74.229 33.234 74.229 74.229Z"/><path stroke="url(#f)" stroke-dasharray="0.5 1" stroke-width=".5" d="M229.976 104c0 48.325-39.175 87.5-87.5 87.5s-87.5-39.175-87.5-87.5 39.175-87.5 87.5-87.5 87.5 39.175 87.5 87.5Z"/><path stroke="url(#g)" stroke-dasharray="0.5 1" stroke-width=".5" d="M242.944 104c0 55.487-44.981 100.468-100.468 100.468S42.007 159.487 42.007 104 86.99 3.532 142.476 3.532 242.944 48.512 242.944 104Z"/><path stroke="url(#h)" stroke-dasharray="0.5 1" stroke-width=".5" d="M256.369 104c0 62.901-50.992 113.893-113.893 113.893S28.583 166.901 28.583 104 79.574-9.893 142.476-9.893 256.369 41.099 256.369 104Z"/><path stroke="url(#i)" stroke-dasharray="0.5 1" stroke-width=".5" d="M270.708 104c0 70.821-57.411 128.233-128.232 128.233S14.243 174.821 14.243 104 71.655-24.233 142.476-24.233 270.708 33.18 270.708 104Z"/><path stroke="url(#j)" stroke-dasharray="0.5 1" stroke-width=".5" d="M285.354 104c0 78.909-63.969 142.878-142.878 142.878C63.566 246.878-.402 182.909-.402 104c0-78.91 63.968-142.878 142.878-142.878S285.354 25.091 285.354 104Z"/><path stroke="url(#k)" stroke-dasharray="0.5 1" stroke-width=".5" d="M299.389 104c0 86.661-70.253 156.913-156.913 156.913S-14.437 190.661-14.437 104c0-86.66 70.252-156.913 156.913-156.913 86.66 0 156.913 70.252 156.913 156.913Z"/><path stroke="url(#l)" stroke-dasharray="0.5 1" stroke-width=".5" d="M315.56 104c0 95.592-77.493 173.084-173.084 173.084S-30.608 199.592-30.608 104 46.884-69.084 142.476-69.084C238.067-69.084 315.56 8.408 315.56 104Z"/><path stroke="url(#m)" stroke-dasharray="0.5 1" stroke-width=".5" d="M331.425 104c0 104.354-84.596 188.949-188.949 188.949S-46.474 208.354-46.474 104 38.122-84.95 142.476-84.95 331.425-.353 331.425 104Z"/><path stroke="url(#n)" stroke-dasharray="0.5 1" stroke-width=".5" d="M347.727 104c0 113.357-91.894 205.251-205.251 205.251S-62.775 217.357-62.775 104s91.894-205.251 205.251-205.251S347.727-9.357 347.727 104Z"/><path stroke="url(#o)" stroke-dasharray="0.5 1" stroke-width=".5" d="M365.292 104c0 123.058-99.758 222.816-222.816 222.816S-80.341 227.058-80.341 104s99.759-222.816 222.817-222.816S365.292-19.058 365.292 104Z"/><path stroke="url(#p)" stroke-dasharray="0.5 1" stroke-width=".5" d="M383.711 104c0 133.231-108.005 241.236-241.235 241.236S-98.76 237.231-98.76 104c0-133.23 108.005-241.236 241.236-241.236 133.23 0 241.235 108.005 241.235 241.236Z"/><path stroke="url(#q)" stroke-dasharray="0.5 1" stroke-width=".5" d="M399.685 104c0 142.053-115.157 257.209-257.209 257.209S-114.734 246.053-114.734 104 .423-153.209 142.476-153.209c142.052 0 257.209 115.156 257.209 257.209Z"/><rect width="67.549" height="67.549" x="108.701" y="70.226" fill="#121212" stroke="#292929" stroke-width=".5" rx="33.774"/><circle cx="142.5" cy="104" r="19.804" fill="#4d4d4d"/><circle cx="142.476" cy="104" r="15.25" fill="#b4b4b4"/><path fill="#292929" fill-rule="evenodd" d="M161.7 104c0 10.604-8.596 19.2-19.2 19.2s-19.2-8.596-19.2-19.2 8.596-19.2 19.2-19.2 19.2 8.596 19.2 19.2m-14.4-7.2a4.8 4.8 0 1 1-9.6 0 4.8 4.8 0 0 1 9.6 0m-4.8 9.6c-4.842 0-9.014 2.868-10.911 6.998A14.37 14.37 0 0 0 142.5 118.4c4.362 0 8.27-1.939 10.911-5.002-1.897-4.13-6.069-6.998-10.911-6.998" clip-rule="evenodd"/><rect width="136" height="33.2" x="154.25" y="64.179" fill="#121212" stroke="#4d4d4d" stroke-width=".5" rx="5.75"/><path fill="#fafafa" d="M169.284 82.953q-1.071 0-1.52-.48-.432-.48-.432-1.184v-.448q0-.704.432-1.184.449-.48 1.52-.48 1.072 0 1.504.48.448.48.448 1.184v.448q0 .704-.448 1.184-.432.48-1.504.48m10.594 0q-1.072 0-1.52-.48-.432-.48-.432-1.184v-.448q0-.704.432-1.184.448-.48 1.52-.48t1.504.48q.448.48.448 1.184v.448q0 .704-.448 1.184-.432.48-1.504.48m10.594 0q-1.072 0-1.52-.48-.432-.48-.432-1.184v-.448q0-.704.432-1.184.448-.48 1.52-.48t1.504.48q.448.48.448 1.184v.448q0 .704-.448 1.184-.432.48-1.504.48m10.594 0q-1.073 0-1.52-.48-.432-.48-.432-1.184v-.448q0-.704.432-1.184.447-.48 1.52-.48 1.071 0 1.504.48.447.48.448 1.184v.448q0 .704-.448 1.184-.433.48-1.504.48m10.593 0q-1.071 0-1.52-.48-.432-.48-.432-1.184v-.448q0-.704.432-1.184.449-.48 1.52-.48 1.072 0 1.504.48.448.48.448 1.184v.448q0 .704-.448 1.184-.432.48-1.504.48m10.594 0q-1.072 0-1.52-.48-.432-.48-.432-1.184v-.448q0-.704.432-1.184.448-.48 1.52-.48t1.504.48q.448.48.448 1.184v.448q0 .704-.448 1.184-.432.48-1.504.48m10.594 0q-1.072 0-1.52-.48-.432-.48-.432-1.184v-.448q0-.704.432-1.184.448-.48 1.52-.48t1.504.48q.448.48.448 1.184v.448q0 .704-.448 1.184-.432.48-1.504.48m10.594 0q-1.073 0-1.52-.48-.432-.48-.432-1.184v-.448q0-.704.432-1.184.447-.48 1.52-.48 1.071 0 1.504.48.447.48.448 1.184v.448q0 .704-.448 1.184-.433.48-1.504.48m10.593 0q-1.071 0-1.52-.48-.432-.48-.432-1.184v-.448q0-.704.432-1.184.449-.48 1.52-.48 1.072 0 1.504.48.448.48.448 1.184v.448q0 .704-.448 1.184-.432.48-1.504.48m10.594 0q-1.072 0-1.52-.48-.432-.48-.432-1.184v-.448q0-.704.432-1.184.448-.48 1.52-.48t1.504.48q.448.48.448 1.184v.448q0 .704-.448 1.184-.432.48-1.504.48m10.594 0q-1.072 0-1.52-.48-.432-.48-.432-1.184v-.448q0-.704.432-1.184.448-.48 1.52-.48t1.504.48q.448.48.448 1.184v.448q0 .704-.448 1.184-.432.48-1.504.48"/></g><defs><linearGradient id="b" x1="211.508" x2="29.463" y1="24.098" y2="24.098" gradientUnits="userSpaceOnUse"><stop stop-color="#575e61"/><stop offset="1" stop-color="#575e61" stop-opacity="0"/></linearGradient><linearGradient id="c" x1="211.508" x2="29.463" y1="24.098" y2="24.098" gradientUnits="userSpaceOnUse"><stop stop-color="#575e61"/><stop offset="1" stop-color="#575e61" stop-opacity="0"/></linearGradient><linearGradient id="d" x1="211.508" x2="29.463" y1="24.098" y2="24.098" gradientUnits="userSpaceOnUse"><stop stop-color="#575e61"/><stop offset="1" stop-color="#575e61" stop-opacity="0"/></linearGradient><linearGradient id="e" x1="211.508" x2="29.463" y1="24.098" y2="24.098" gradientUnits="userSpaceOnUse"><stop stop-color="#575e61"/><stop offset="1" stop-color="#575e61" stop-opacity="0"/></linearGradient><linearGradient id="f" x1="211.508" x2="29.463" y1="24.098" y2="24.098" gradientUnits="userSpaceOnUse"><stop stop-color="#575e61"/><stop offset="1" stop-color="#575e61" stop-opacity="0"/></linearGradient><linearGradient id="g" x1="211.508" x2="29.463" y1="24.098" y2="24.098" gradientUnits="userSpaceOnUse"><stop stop-color="#575e61"/><stop offset="1" stop-color="#575e61" stop-opacity="0"/></linearGradient><linearGradient id="h" x1="211.508" x2="29.463" y1="24.098" y2="24.098" gradientUnits="userSpaceOnUse"><stop stop-color="#575e61"/><stop offset="1" stop-color="#575e61" stop-opacity="0"/></linearGradient><linearGradient id="i" x1="211.508" x2="29.463" y1="24.098" y2="24.098" gradientUnits="userSpaceOnUse"><stop stop-color="#575e61"/><stop offset="1" stop-color="#575e61" stop-opacity="0"/></linearGradient><linearGradient id="j" x1="211.508" x2="29.463" y1="24.098" y2="24.098" gradientUnits="userSpaceOnUse"><stop stop-color="#575e61"/><stop offset="1" stop-color="#575e61" stop-opacity="0"/></linearGradient><linearGradient id="k" x1="211.508" x2="29.463" y1="24.098" y2="24.098" gradientUnits="userSpaceOnUse"><stop stop-color="#575e61"/><stop offset="1" stop-color="#575e61" stop-opacity="0"/></linearGradient><linearGradient id="l" x1="211.508" x2="29.463" y1="24.098" y2="24.098" gradientUnits="userSpaceOnUse"><stop stop-color="#575e61"/><stop offset="1" stop-color="#575e61" stop-opacity="0"/></linearGradient><linearGradient id="m" x1="211.508" x2="29.463" y1="24.098" y2="24.098" gradientUnits="userSpaceOnUse"><stop stop-color="#575e61"/><stop offset="1" stop-color="#575e61" stop-opacity="0"/></linearGradient><linearGradient id="n" x1="211.508" x2="29.463" y1="24.098" y2="24.098" gradientUnits="userSpaceOnUse"><stop stop-color="#575e61"/><stop offset="1" stop-color="#575e61" stop-opacity="0"/></linearGradient><linearGradient id="o" x1="211.508" x2="29.463" y1="24.098" y2="24.098" gradientUnits="userSpaceOnUse"><stop stop-color="#575e61"/><stop offset="1" stop-color="#575e61" stop-opacity="0"/></linearGradient><linearGradient id="p" x1="211.508" x2="29.463" y1="24.098" y2="24.098" gradientUnits="userSpaceOnUse"><stop stop-color="#575e61"/><stop offset="1" stop-color="#575e61" stop-opacity="0"/></linearGradient><linearGradient id="q" x1="211.508" x2="29.463" y1="24.098" y2="24.098" gradientUnits="userSpaceOnUse"><stop stop-color="#575e61"/><stop offset="1" stop-color="#575e61" stop-opacity="0"/></linearGradient><clipPath id="a"><path fill="#fff" d="M0 0h349v208H0z"/></clipPath></defs></svg>