<svg xmlns="http://www.w3.org/2000/svg" width="764" height="208" fill="none" viewBox="0 0 764 208"><g clip-path="url(#a)"><path fill="#171717" d="M0 0h764v208H0z"/><path stroke="url(#b)" stroke-dasharray="0.5 1" stroke-width=".5" d="M590.341 104c0 18.151-14.714 32.865-32.865 32.865S524.61 122.151 524.61 104s14.715-32.865 32.866-32.865S590.341 85.849 590.341 104Z"/><path stroke="url(#c)" stroke-dasharray="0.5 1" stroke-width=".5" d="M604.245 104c0 25.83-20.94 46.769-46.769 46.769-25.83 0-46.769-20.939-46.769-46.769s20.939-46.769 46.769-46.769 46.769 20.94 46.769 46.769Z"/><path stroke="url(#d)" stroke-dasharray="0.5 1" stroke-width=".5" d="M617.975 104c0 33.413-27.087 60.499-60.499 60.499S496.977 137.413 496.977 104s27.086-60.499 60.499-60.499c33.412 0 60.499 27.086 60.499 60.499Z"/><path stroke="url(#e)" stroke-dasharray="0.5 1" stroke-width=".5" d="M631.705 104c0 40.996-33.234 74.229-74.229 74.229-40.996 0-74.229-33.233-74.229-74.229 0-40.995 33.233-74.229 74.229-74.229 40.995 0 74.229 33.234 74.229 74.229Z"/><path stroke="url(#f)" stroke-dasharray="0.5 1" stroke-width=".5" d="M644.976 104c0 48.325-39.175 87.5-87.5 87.5s-87.5-39.175-87.5-87.5 39.175-87.5 87.5-87.5 87.5 39.175 87.5 87.5Z"/><path stroke="url(#g)" stroke-dasharray="0.5 1" stroke-width=".5" d="M657.944 104c0 55.487-44.981 100.468-100.468 100.468S457.007 159.487 457.007 104 501.988 3.532 557.476 3.532 657.944 48.512 657.944 104Z"/><path stroke="url(#h)" stroke-dasharray="0.5 1" stroke-width=".5" d="M671.369 104c0 62.901-50.992 113.893-113.893 113.893S443.583 166.901 443.583 104 494.574-9.893 557.476-9.893 671.369 41.099 671.369 104Z"/><path stroke="url(#i)" stroke-dasharray="0.5 1" stroke-width=".5" d="M685.708 104c0 70.821-57.411 128.233-128.232 128.233S429.243 174.821 429.243 104 486.655-24.233 557.476-24.233 685.708 33.18 685.708 104Z"/><path stroke="url(#j)" stroke-dasharray="0.5 1" stroke-width=".5" d="M700.354 104c0 78.909-63.969 142.878-142.878 142.878-78.91 0-142.878-63.969-142.878-142.878 0-78.91 63.968-142.878 142.878-142.878S700.354 25.091 700.354 104Z"/><path stroke="url(#k)" stroke-dasharray="0.5 1" stroke-width=".5" d="M714.389 104c0 86.661-70.253 156.913-156.913 156.913S400.562 190.661 400.562 104c0-86.66 70.253-156.913 156.914-156.913S714.389 17.339 714.389 104Z"/><path stroke="url(#l)" stroke-dasharray="0.5 1" stroke-width=".5" d="M730.56 104c0 95.592-77.493 173.084-173.084 173.084S384.392 199.592 384.392 104 461.884-69.084 557.476-69.084C653.067-69.084 730.56 8.408 730.56 104Z"/><path stroke="url(#m)" stroke-dasharray="0.5 1" stroke-width=".5" d="M746.425 104c0 104.354-84.596 188.949-188.949 188.949S368.526 208.354 368.526 104s84.596-188.95 188.95-188.95S746.425-.353 746.425 104Z"/><path stroke="url(#n)" stroke-dasharray="0.5 1" stroke-width=".5" d="M762.727 104c0 113.357-91.894 205.251-205.251 205.251S352.225 217.357 352.225 104s91.894-205.251 205.251-205.251S762.727-9.357 762.727 104Z"/><path stroke="url(#o)" stroke-dasharray="0.5 1" stroke-width=".5" d="M780.292 104c0 123.058-99.758 222.816-222.816 222.816S334.659 227.058 334.659 104s99.758-222.816 222.817-222.816c123.058 0 222.816 99.758 222.816 222.816Z"/><path stroke="url(#p)" stroke-dasharray="0.5 1" stroke-width=".5" d="M798.711 104c0 133.231-108.005 241.236-241.235 241.236S316.24 237.231 316.24 104c0-133.23 108.005-241.236 241.236-241.236 133.23 0 241.235 108.005 241.235 241.236Z"/><path stroke="url(#q)" stroke-dasharray="0.5 1" stroke-width=".5" d="M814.685 104c0 142.053-115.157 257.209-257.209 257.209S300.266 246.053 300.266 104s115.157-257.209 257.21-257.209c142.052 0 257.209 115.156 257.209 257.209Z"/><rect width="67.549" height="67.549" x="523.701" y="70.226" fill="#121212" stroke="#292929" stroke-width=".5" rx="33.774"/><circle cx="557.5" cy="104" r="19.804" fill="#4d4d4d"/><circle cx="557.476" cy="104" r="15.25" fill="#b4b4b4"/><path fill="#292929" fill-rule="evenodd" d="M576.7 104c0 10.604-8.596 19.2-19.2 19.2s-19.2-8.596-19.2-19.2 8.596-19.2 19.2-19.2 19.2 8.596 19.2 19.2m-14.4-7.2a4.8 4.8 0 1 1-9.6 0 4.8 4.8 0 0 1 9.6 0m-4.8 9.6c-4.842 0-9.014 2.868-10.911 6.998A14.37 14.37 0 0 0 557.5 118.4c4.362 0 8.27-1.939 10.911-5.002-1.897-4.13-6.069-6.998-10.911-6.998" clip-rule="evenodd"/><rect width="136" height="33.2" x="569.25" y="64.179" fill="#121212" stroke="#4d4d4d" stroke-width=".5" rx="5.75"/><path fill="#fafafa" d="M584.284 82.953q-1.071 0-1.52-.48-.432-.48-.432-1.184v-.448q0-.704.432-1.184.449-.48 1.52-.48 1.072 0 1.504.48.448.48.448 1.184v.448q0 .704-.448 1.184-.432.48-1.504.48m10.594 0q-1.072 0-1.52-.48-.432-.48-.432-1.184v-.448q0-.704.432-1.184.448-.48 1.52-.48t1.504.48q.448.48.448 1.184v.448q0 .704-.448 1.184-.432.48-1.504.48m10.594 0q-1.072 0-1.52-.48-.432-.48-.432-1.184v-.448q0-.704.432-1.184.448-.48 1.52-.48t1.504.48q.448.48.448 1.184v.448q0 .704-.448 1.184-.432.48-1.504.48m10.594 0q-1.073 0-1.52-.48-.432-.48-.432-1.184v-.448q0-.704.432-1.184.447-.48 1.52-.48t1.504.48q.447.48.448 1.184v.448q0 .704-.448 1.184-.433.48-1.504.48m10.593 0q-1.071 0-1.52-.48-.432-.48-.432-1.184v-.448q0-.704.432-1.184.449-.48 1.52-.48 1.072 0 1.504.48.448.48.448 1.184v.448q0 .704-.448 1.184-.432.48-1.504.48m10.594 0q-1.072 0-1.52-.48-.432-.48-.432-1.184v-.448q0-.704.432-1.184.448-.48 1.52-.48t1.504.48q.448.48.448 1.184v.448q0 .704-.448 1.184-.432.48-1.504.48m10.594 0q-1.072 0-1.52-.48-.432-.48-.432-1.184v-.448q0-.704.432-1.184.448-.48 1.52-.48t1.504.48q.448.48.448 1.184v.448q0 .704-.448 1.184-.432.48-1.504.48m10.594 0q-1.073 0-1.52-.48-.432-.48-.432-1.184v-.448q0-.704.432-1.184.447-.48 1.52-.48t1.504.48q.447.48.448 1.184v.448q0 .704-.448 1.184-.433.48-1.504.48m10.593 0q-1.071 0-1.52-.48-.432-.48-.432-1.184v-.448q0-.704.432-1.184.449-.48 1.52-.48 1.072 0 1.504.48.448.48.448 1.184v.448q0 .704-.448 1.184-.432.48-1.504.48m10.594 0q-1.072 0-1.52-.48-.432-.48-.432-1.184v-.448q0-.704.432-1.184.448-.48 1.52-.48t1.504.48q.448.48.448 1.184v.448q0 .704-.448 1.184-.432.48-1.504.48m10.594 0q-1.072 0-1.52-.48-.432-.48-.432-1.184v-.448q0-.704.432-1.184.448-.48 1.52-.48t1.504.48q.448.48.448 1.184v.448q0 .704-.448 1.184-.432.48-1.504.48"/></g><defs><linearGradient id="b" x1="626.508" x2="444.463" y1="24.098" y2="24.098" gradientUnits="userSpaceOnUse"><stop stop-color="#575e61"/><stop offset="1" stop-color="#575e61" stop-opacity="0"/></linearGradient><linearGradient id="c" x1="626.508" x2="444.463" y1="24.098" y2="24.098" gradientUnits="userSpaceOnUse"><stop stop-color="#575e61"/><stop offset="1" stop-color="#575e61" stop-opacity="0"/></linearGradient><linearGradient id="d" x1="626.508" x2="444.463" y1="24.098" y2="24.098" gradientUnits="userSpaceOnUse"><stop stop-color="#575e61"/><stop offset="1" stop-color="#575e61" stop-opacity="0"/></linearGradient><linearGradient id="e" x1="626.508" x2="444.463" y1="24.098" y2="24.098" gradientUnits="userSpaceOnUse"><stop stop-color="#575e61"/><stop offset="1" stop-color="#575e61" stop-opacity="0"/></linearGradient><linearGradient id="f" x1="626.508" x2="444.463" y1="24.098" y2="24.098" gradientUnits="userSpaceOnUse"><stop stop-color="#575e61"/><stop offset="1" stop-color="#575e61" stop-opacity="0"/></linearGradient><linearGradient id="g" x1="626.508" x2="444.463" y1="24.098" y2="24.098" gradientUnits="userSpaceOnUse"><stop stop-color="#575e61"/><stop offset="1" stop-color="#575e61" stop-opacity="0"/></linearGradient><linearGradient id="h" x1="626.508" x2="444.463" y1="24.098" y2="24.098" gradientUnits="userSpaceOnUse"><stop stop-color="#575e61"/><stop offset="1" stop-color="#575e61" stop-opacity="0"/></linearGradient><linearGradient id="i" x1="626.508" x2="444.463" y1="24.098" y2="24.098" gradientUnits="userSpaceOnUse"><stop stop-color="#575e61"/><stop offset="1" stop-color="#575e61" stop-opacity="0"/></linearGradient><linearGradient id="j" x1="626.508" x2="444.463" y1="24.098" y2="24.098" gradientUnits="userSpaceOnUse"><stop stop-color="#575e61"/><stop offset="1" stop-color="#575e61" stop-opacity="0"/></linearGradient><linearGradient id="k" x1="626.508" x2="444.463" y1="24.098" y2="24.098" gradientUnits="userSpaceOnUse"><stop stop-color="#575e61"/><stop offset="1" stop-color="#575e61" stop-opacity="0"/></linearGradient><linearGradient id="l" x1="626.508" x2="444.463" y1="24.098" y2="24.098" gradientUnits="userSpaceOnUse"><stop stop-color="#575e61"/><stop offset="1" stop-color="#575e61" stop-opacity="0"/></linearGradient><linearGradient id="m" x1="626.508" x2="444.463" y1="24.098" y2="24.098" gradientUnits="userSpaceOnUse"><stop stop-color="#575e61"/><stop offset="1" stop-color="#575e61" stop-opacity="0"/></linearGradient><linearGradient id="n" x1="626.508" x2="444.463" y1="24.098" y2="24.098" gradientUnits="userSpaceOnUse"><stop stop-color="#575e61"/><stop offset="1" stop-color="#575e61" stop-opacity="0"/></linearGradient><linearGradient id="o" x1="626.508" x2="444.463" y1="24.098" y2="24.098" gradientUnits="userSpaceOnUse"><stop stop-color="#575e61"/><stop offset="1" stop-color="#575e61" stop-opacity="0"/></linearGradient><linearGradient id="p" x1="626.508" x2="444.463" y1="24.098" y2="24.098" gradientUnits="userSpaceOnUse"><stop stop-color="#575e61"/><stop offset="1" stop-color="#575e61" stop-opacity="0"/></linearGradient><linearGradient id="q" x1="626.508" x2="444.463" y1="24.098" y2="24.098" gradientUnits="userSpaceOnUse"><stop stop-color="#575e61"/><stop offset="1" stop-color="#575e61" stop-opacity="0"/></linearGradient><clipPath id="a"><path fill="#fff" d="M0 0h764v208H0z"/></clipPath></defs></svg>