<svg xmlns="http://www.w3.org/2000/svg" width="764" height="208" fill="none" viewBox="0 0 764 208"><g clip-path="url(#a)"><path fill="#fcfcfc" d="M0 0h764v208H0z"/><rect width="31" height="30" x="637.5" y="69.5" fill="#fcfcfc" stroke="#dfdfdf" stroke-width=".5" rx="6"/><path fill="#fff" stroke="#b2b2b2" stroke-width=".5" d="M641.625 78.25a4.75 4.75 0 0 1 4.75-4.75h13.25a4.75 4.75 0 0 1 4.75 4.75v12.5a4.75 4.75 0 0 1-4.75 4.75h-13.25a4.75 4.75 0 0 1-4.75-4.75z"/><path stroke="#525252" stroke-linecap="round" stroke-linejoin="round" stroke-width=".5" d="M653.219 84.969c.267 0 .484-.21.484-.469a.477.477 0 0 0-.484-.469.477.477 0 0 0-.485.469c0 .259.217.469.485.469M656.609 84.969c.268 0 .485-.21.485-.469a.477.477 0 0 0-.485-.469.477.477 0 0 0-.484.469c0 .259.217.469.484.469M649.828 84.969c.267 0 .484-.21.484-.469a.477.477 0 0 0-.484-.469.476.476 0 0 0-.484.469c0 .259.216.469.484.469"/><rect width="30" height="30" x="599.5" y="69.5" fill="#fcfcfc" stroke="#dfdfdf" stroke-width=".5" rx="6"/><path fill="#fff" stroke="#b2b2b2" stroke-width=".5" d="M603.5 78.25a4.75 4.75 0 0 1 4.75-4.75h12.5a4.75 4.75 0 0 1 4.75 4.75v12.5a4.75 4.75 0 0 1-4.75 4.75h-12.5a4.75 4.75 0 0 1-4.75-4.75z"/><path stroke="#525252" stroke-linecap="round" stroke-linejoin="round" stroke-width=".5" d="M614.711 84.969a.469.469 0 1 0 0-.938.469.469 0 0 0 0 .938M617.993 84.969a.468.468 0 1 0 0-.936.468.468 0 0 0 0 .936M611.43 84.969a.469.469 0 1 0 0-.938.469.469 0 0 0 0 .938"/><rect width="30" height="30" x="561.5" y="69.5" fill="#fcfcfc" stroke="#dfdfdf" stroke-width=".5" rx="6"/><path fill="#fff" stroke="#b2b2b2" stroke-width=".5" d="M565.5 78.25a4.75 4.75 0 0 1 4.75-4.75h12.5a4.75 4.75 0 0 1 4.75 4.75v12.5a4.75 4.75 0 0 1-4.75 4.75h-12.5a4.75 4.75 0 0 1-4.75-4.75z"/><path stroke="#525252" stroke-linecap="round" stroke-linejoin="round" stroke-width=".5" d="M576.711 84.969a.469.469 0 1 0 0-.938.469.469 0 0 0 0 .938M579.993 84.969a.468.468 0 1 0 0-.936.468.468 0 0 0 0 .936M573.43 84.969a.469.469 0 1 0 0-.938.469.469 0 0 0 0 .938"/><rect width="31" height="30" x="523.5" y="69.5" fill="#fcfcfc" stroke="#dfdfdf" stroke-width=".5" rx="6"/><path fill="#fff" stroke="#b2b2b2" stroke-width=".5" d="M527.625 78.25a4.75 4.75 0 0 1 4.75-4.75h13.25a4.75 4.75 0 0 1 4.75 4.75v12.5a4.75 4.75 0 0 1-4.75 4.75h-13.25a4.75 4.75 0 0 1-4.75-4.75z"/><path stroke="#525252" stroke-linecap="round" stroke-linejoin="round" stroke-width=".5" d="M539.219 84.969c.267 0 .484-.21.484-.469a.477.477 0 0 0-.484-.469.477.477 0 0 0-.485.469c0 .259.217.469.485.469M542.609 84.969c.268 0 .485-.21.485-.469a.477.477 0 0 0-.485-.469.477.477 0 0 0-.484.469c0 .259.217.469.484.469M535.828 84.969c.267 0 .484-.21.484-.469a.477.477 0 0 0-.484-.469.476.476 0 0 0-.484.469c0 .259.216.469.484.469"/><rect width="31" height="30" x="523.5" y="31.5" fill="#fcfcfc" stroke="#dfdfdf" stroke-width=".5" rx="6"/><path fill="#fff" stroke="#b2b2b2" stroke-width=".5" d="M527.625 40.25a4.75 4.75 0 0 1 4.75-4.75h13.25a4.75 4.75 0 0 1 4.75 4.75v12.5a4.75 4.75 0 0 1-4.75 4.75h-13.25a4.75 4.75 0 0 1-4.75-4.75z"/><path stroke="#525252" stroke-linecap="round" stroke-linejoin="round" stroke-width=".5" d="M539.219 46.969c.267 0 .484-.21.484-.469a.477.477 0 0 0-.484-.469.477.477 0 0 0-.485.469c0 .259.217.469.485.469M542.609 46.969c.268 0 .485-.21.485-.469a.477.477 0 0 0-.485-.469.477.477 0 0 0-.484.469c0 .259.217.469.484.469M535.828 46.969c.267 0 .484-.21.484-.469a.477.477 0 0 0-.484-.469.476.476 0 0 0-.484.469c0 .259.216.469.484.469"/><rect width="30" height="30" x="486.5" y="69.5" fill="#fcfcfc" stroke="#dfdfdf" stroke-width=".5" rx="6"/><path fill="#fff" stroke="#b2b2b2" stroke-width=".5" d="M490.5 78.25a4.75 4.75 0 0 1 4.75-4.75h12.5a4.75 4.75 0 0 1 4.75 4.75v12.5a4.75 4.75 0 0 1-4.75 4.75h-12.5a4.75 4.75 0 0 1-4.75-4.75z"/><path stroke="#525252" stroke-linecap="round" stroke-linejoin="round" stroke-width=".5" d="M501.711 84.969a.469.469 0 1 0 0-.938.469.469 0 0 0 0 .938M504.993 84.969a.468.468 0 1 0 0-.936.468.468 0 0 0 0 .936M498.43 84.969a.469.469 0 1 0 0-.938.469.469 0 0 0 0 .938"/><rect width="30" height="31" x="486.5" y="107.5" fill="#fcfcfc" stroke="#dfdfdf" stroke-width=".5" rx="6"/><path fill="#fff" stroke="#b2b2b2" stroke-width=".5" d="M490.5 116.375a4.75 4.75 0 0 1 4.75-4.75h12.5a4.75 4.75 0 0 1 4.75 4.75v13.25a4.75 4.75 0 0 1-4.75 4.75h-12.5a4.75 4.75 0 0 1-4.75-4.75z"/><path stroke="#525252" stroke-linecap="round" stroke-linejoin="round" stroke-width=".5" d="M501.711 123.484a.476.476 0 0 0 .469-.484.476.476 0 0 0-.469-.484.476.476 0 0 0-.468.484c0 .268.21.484.468.484M504.993 123.484a.475.475 0 0 0 .468-.484.475.475 0 0 0-.468-.484.476.476 0 0 0-.469.484c0 .268.21.484.469.484M498.43 123.484a.476.476 0 0 0 .469-.484.476.476 0 0 0-.469-.484.476.476 0 0 0-.469.484c0 .268.21.484.469.484"/><rect width="31" height="30" x="447.5" y="69.5" fill="#fcfcfc" stroke="#dfdfdf" stroke-width=".5" rx="6"/><path fill="#fff" stroke="#b2b2b2" stroke-width=".5" d="M451.625 78.25a4.75 4.75 0 0 1 4.75-4.75h13.25a4.75 4.75 0 0 1 4.75 4.75v12.5a4.75 4.75 0 0 1-4.75 4.75h-13.25a4.75 4.75 0 0 1-4.75-4.75z"/><path stroke="#525252" stroke-linecap="round" stroke-linejoin="round" stroke-width=".5" d="M463.219 84.969c.267 0 .484-.21.484-.469a.477.477 0 0 0-.484-.469.477.477 0 0 0-.485.469c0 .259.217.469.485.469M466.609 84.969c.268 0 .485-.21.485-.469a.477.477 0 0 0-.485-.469.477.477 0 0 0-.484.469c0 .259.217.469.484.469M459.828 84.969c.267 0 .484-.21.484-.469a.477.477 0 0 0-.484-.469.476.476 0 0 0-.484.469c0 .259.216.469.484.469"/><rect width="31" height="30" x="447.5" y="31.5" fill="#fcfcfc" stroke="#dfdfdf" stroke-width=".5" rx="6"/><path fill="#fff" stroke="#b2b2b2" stroke-width=".5" d="M451.625 40.25a4.75 4.75 0 0 1 4.75-4.75h13.25a4.75 4.75 0 0 1 4.75 4.75v12.5a4.75 4.75 0 0 1-4.75 4.75h-13.25a4.75 4.75 0 0 1-4.75-4.75z"/><path stroke="#525252" stroke-linecap="round" stroke-linejoin="round" stroke-width=".5" d="M463.219 46.969c.267 0 .484-.21.484-.469a.477.477 0 0 0-.484-.469.477.477 0 0 0-.485.469c0 .259.217.469.485.469M466.609 46.969c.268 0 .485-.21.485-.469a.477.477 0 0 0-.485-.469.477.477 0 0 0-.484.469c0 .259.217.469.484.469M459.828 46.969c.267 0 .484-.21.484-.469a.477.477 0 0 0-.484-.469.476.476 0 0 0-.484.469c0 .259.216.469.484.469"/><rect width="30" height="30" x="409.5" y="31.5" fill="#fcfcfc" stroke="#dfdfdf" stroke-width=".5" rx="6"/><path fill="#fff" stroke="#b2b2b2" stroke-width=".5" d="M413.5 40.25a4.75 4.75 0 0 1 4.75-4.75h12.5a4.75 4.75 0 0 1 4.75 4.75v12.5a4.75 4.75 0 0 1-4.75 4.75h-12.5a4.75 4.75 0 0 1-4.75-4.75z"/><path stroke="#525252" stroke-linecap="round" stroke-linejoin="round" stroke-width=".5" d="M424.711 46.969a.469.469 0 1 0 0-.938.469.469 0 0 0 0 .938M427.993 46.969a.468.468 0 1 0 0-.936.468.468 0 0 0 0 .936M421.43 46.969a.469.469 0 1 0 0-.938.469.469 0 0 0 0 .938"/><rect width="30" height="30" x="346.5" y="-14.5" fill="#fcfcfc" stroke="#dfdfdf" stroke-width=".5" rx="6"/><path fill="#fff" stroke="#b2b2b2" stroke-width=".5" d="M350.5-5.75a4.75 4.75 0 0 1 4.75-4.75h12.5a4.75 4.75 0 0 1 4.75 4.75v12.5a4.75 4.75 0 0 1-4.75 4.75h-12.5a4.75 4.75 0 0 1-4.75-4.75z"/><path stroke="#525252" stroke-linecap="round" stroke-linejoin="round" stroke-width=".5" d="M361.711.969a.469.469 0 1 0 0-.938.469.469 0 0 0 0 .938M364.993.969a.468.468 0 1 0 0-.936.468.468 0 0 0 0 .936M358.43.969a.469.469 0 1 0 0-.938.469.469 0 0 0 0 .938"/><rect width="30" height="30" x="752.5" y="69.5" fill="#fcfcfc" stroke="#dfdfdf" stroke-width=".5" rx="6"/><path fill="#fff" stroke="#b2b2b2" stroke-width=".5" d="M756.5 78.25a4.75 4.75 0 0 1 4.75-4.75h12.5a4.75 4.75 0 0 1 4.75 4.75v12.5a4.75 4.75 0 0 1-4.75 4.75h-12.5a4.75 4.75 0 0 1-4.75-4.75z"/><path stroke="#525252" stroke-linecap="round" stroke-linejoin="round" stroke-width=".5" d="M764.43 84.969a.469.469 0 1 0 0-.938.469.469 0 0 0 0 .938"/><rect width="31" height="30" x="675.5" y="69.5" fill="#fcfcfc" stroke="#dfdfdf" stroke-width=".5" rx="6"/><path fill="#fff" stroke="#b2b2b2" stroke-width=".5" d="M679.625 78.25a4.75 4.75 0 0 1 4.75-4.75h13.25a4.75 4.75 0 0 1 4.75 4.75v12.5a4.75 4.75 0 0 1-4.75 4.75h-13.25a4.75 4.75 0 0 1-4.75-4.75z"/><path stroke="#525252" stroke-linecap="round" stroke-linejoin="round" stroke-width=".5" d="M691.219 84.969c.267 0 .484-.21.484-.469a.477.477 0 0 0-.484-.469.477.477 0 0 0-.485.469c0 .259.217.469.485.469M694.609 84.969c.268 0 .485-.21.485-.469a.477.477 0 0 0-.485-.469.477.477 0 0 0-.484.469c0 .259.217.469.484.469M687.828 84.969c.267 0 .484-.21.484-.469a.477.477 0 0 0-.484-.469.476.476 0 0 0-.484.469c0 .259.216.469.484.469"/><rect width="31" height="31" x="675.5" y="-7.5" fill="#fcfcfc" stroke="#dfdfdf" stroke-width=".5" rx="6"/><path fill="#fff" stroke="#b2b2b2" stroke-width=".5" d="M679.625 1.375a4.75 4.75 0 0 1 4.75-4.75h13.25a4.75 4.75 0 0 1 4.75 4.75v13.25a4.75 4.75 0 0 1-4.75 4.75h-13.25a4.75 4.75 0 0 1-4.75-4.75z"/><path stroke="#525252" stroke-linecap="round" stroke-linejoin="round" stroke-width=".5" d="M691.219 8.484a.484.484 0 1 0 0-.968.484.484 0 0 0 0 .968M694.609 8.484a.485.485 0 1 0 0-.969.485.485 0 0 0 0 .97M687.828 8.484a.484.484 0 1 0 0-.968.484.484 0 0 0 0 .968"/><rect width="31" height="31" x="675.5" y="107.5" fill="#fcfcfc" stroke="#dfdfdf" stroke-width=".5" rx="6"/><path fill="#fff" stroke="#b2b2b2" stroke-width=".5" d="M679.625 116.375a4.75 4.75 0 0 1 4.75-4.75h13.25a4.75 4.75 0 0 1 4.75 4.75v13.25a4.75 4.75 0 0 1-4.75 4.75h-13.25a4.75 4.75 0 0 1-4.75-4.75z"/><path stroke="#525252" stroke-linecap="round" stroke-linejoin="round" stroke-width=".5" d="M691.219 123.484a.484.484 0 1 0 0-.968.484.484 0 0 0 0 .968M694.609 123.484a.484.484 0 1 0 .002-.968.484.484 0 0 0-.002.968M687.828 123.484a.484.484 0 1 0 0-.968.484.484 0 0 0 0 .968"/><rect width="31" height="30" x="675.5" y="31.5" fill="#fcfcfc" stroke="#dfdfdf" stroke-width=".5" rx="6"/><path fill="#fff" stroke="#b2b2b2" stroke-width=".5" d="M679.625 40.25a4.75 4.75 0 0 1 4.75-4.75h13.25a4.75 4.75 0 0 1 4.75 4.75v12.5a4.75 4.75 0 0 1-4.75 4.75h-13.25a4.75 4.75 0 0 1-4.75-4.75z"/><path stroke="#525252" stroke-linecap="round" stroke-linejoin="round" stroke-width=".5" d="M691.219 46.969c.267 0 .484-.21.484-.469a.477.477 0 0 0-.484-.469.477.477 0 0 0-.485.469c0 .259.217.469.485.469M694.609 46.969c.268 0 .485-.21.485-.469a.477.477 0 0 0-.485-.469.477.477 0 0 0-.484.469c0 .259.217.469.484.469M687.828 46.969c.267 0 .484-.21.484-.469a.477.477 0 0 0-.484-.469.476.476 0 0 0-.484.469c0 .259.216.469.484.469"/><rect width="31" height="31" x="675.5" y="145.5" fill="#fcfcfc" stroke="#dfdfdf" stroke-width=".5" rx="6"/><path fill="#fff" stroke="#b2b2b2" stroke-width=".5" d="M679.625 154.375a4.75 4.75 0 0 1 4.75-4.75h13.25a4.75 4.75 0 0 1 4.75 4.75v13.25a4.75 4.75 0 0 1-4.75 4.75h-13.25a4.75 4.75 0 0 1-4.75-4.75z"/><path stroke="#525252" stroke-linecap="round" stroke-linejoin="round" stroke-width=".5" d="M691.219 161.484a.484.484 0 1 0 0-.968.484.484 0 0 0 0 .968M694.609 161.484a.484.484 0 1 0 .002-.968.484.484 0 0 0-.002.968M687.828 161.484a.484.484 0 1 0 0-.968.484.484 0 0 0 0 .968"/><rect width="31" height="31" x="675.5" y="183.5" fill="#fcfcfc" stroke="#dfdfdf" stroke-width=".5" rx="6"/><path fill="#fff" stroke="#b2b2b2" stroke-width=".5" d="M679.625 192.375a4.75 4.75 0 0 1 4.75-4.75h13.25a4.75 4.75 0 0 1 4.75 4.75v13.25a4.75 4.75 0 0 1-4.75 4.75h-13.25a4.75 4.75 0 0 1-4.75-4.75z"/><path stroke="#525252" stroke-linecap="round" stroke-linejoin="round" stroke-width=".5" d="M691.219 199.484a.484.484 0 1 0 0-.968.484.484 0 0 0 0 .968M694.609 199.484a.484.484 0 1 0 .002-.968.484.484 0 0 0-.002.968M687.828 199.484a.484.484 0 1 0 0-.968.484.484 0 0 0 0 .968"/><rect width="31" height="30" x="713.5" y="31.5" fill="#fcfcfc" stroke="#dfdfdf" stroke-width=".5" rx="6"/><path fill="#fff" stroke="#b2b2b2" stroke-width=".5" d="M717.625 40.25a4.75 4.75 0 0 1 4.75-4.75h13.25a4.75 4.75 0 0 1 4.75 4.75v12.5a4.75 4.75 0 0 1-4.75 4.75h-13.25a4.75 4.75 0 0 1-4.75-4.75z"/><path stroke="#525252" stroke-linecap="round" stroke-linejoin="round" stroke-width=".5" d="M729.219 46.969c.267 0 .484-.21.484-.469a.477.477 0 0 0-.484-.469.477.477 0 0 0-.485.469c0 .259.217.469.485.469M732.609 46.969c.268 0 .485-.21.485-.469a.477.477 0 0 0-.485-.469.477.477 0 0 0-.484.469c0 .259.217.469.484.469M725.828 46.969c.267 0 .484-.21.484-.469a.477.477 0 0 0-.484-.469.476.476 0 0 0-.484.469c0 .259.216.469.484.469"/><rect width="31" height="31" x="713.5" y="145.5" fill="#fcfcfc" stroke="#dfdfdf" stroke-width=".5" rx="6"/><path fill="#fff" stroke="#b2b2b2" stroke-width=".5" d="M717.625 154.375a4.75 4.75 0 0 1 4.75-4.75h13.25a4.75 4.75 0 0 1 4.75 4.75v13.25a4.75 4.75 0 0 1-4.75 4.75h-13.25a4.75 4.75 0 0 1-4.75-4.75z"/><path stroke="#525252" stroke-linecap="round" stroke-linejoin="round" stroke-width=".5" d="M729.219 161.484a.484.484 0 1 0 0-.968.484.484 0 0 0 0 .968M732.609 161.484a.484.484 0 1 0 .002-.968.484.484 0 0 0-.002.968M725.828 161.484a.484.484 0 1 0 0-.968.484.484 0 0 0 0 .968"/><rect width="31" height="31" x="713.5" y="183.5" fill="#fcfcfc" stroke="#dfdfdf" stroke-width=".5" rx="6"/><path fill="#fff" stroke="#b2b2b2" stroke-width=".5" d="M717.625 192.375a4.75 4.75 0 0 1 4.75-4.75h13.25a4.75 4.75 0 0 1 4.75 4.75v13.25a4.75 4.75 0 0 1-4.75 4.75h-13.25a4.75 4.75 0 0 1-4.75-4.75z"/><path stroke="#525252" stroke-linecap="round" stroke-linejoin="round" stroke-width=".5" d="M729.219 199.484a.484.484 0 1 0 0-.968.484.484 0 0 0 0 .968M732.609 199.484a.484.484 0 1 0 .002-.968.484.484 0 0 0-.002.968M725.828 199.484a.484.484 0 1 0 0-.968.484.484 0 0 0 0 .968"/><rect width="31" height="31" x="713.5" y="-7.5" fill="#fcfcfc" stroke="#dfdfdf" stroke-width=".5" rx="6"/><path fill="#fff" stroke="#b2b2b2" stroke-width=".5" d="M717.625 1.375a4.75 4.75 0 0 1 4.75-4.75h13.25a4.75 4.75 0 0 1 4.75 4.75v13.25a4.75 4.75 0 0 1-4.75 4.75h-13.25a4.75 4.75 0 0 1-4.75-4.75z"/><path stroke="#525252" stroke-linecap="round" stroke-linejoin="round" stroke-width=".5" d="M729.219 8.484a.484.484 0 1 0 0-.968.484.484 0 0 0 0 .968M732.609 8.484a.485.485 0 1 0 0-.969.485.485 0 0 0 0 .97M725.828 8.484a.484.484 0 1 0 0-.968.484.484 0 0 0 0 .968"/><rect width="31" height="31" x="713.5" y="107.5" fill="#fcfcfc" stroke="#dfdfdf" stroke-width=".5" rx="6"/><path fill="#fff" stroke="#b2b2b2" stroke-width=".5" d="M717.625 116.375a4.75 4.75 0 0 1 4.75-4.75h13.25a4.75 4.75 0 0 1 4.75 4.75v13.25a4.75 4.75 0 0 1-4.75 4.75h-13.25a4.75 4.75 0 0 1-4.75-4.75z"/><path stroke="#525252" stroke-linecap="round" stroke-linejoin="round" stroke-width=".5" d="M729.219 123.484a.484.484 0 1 0 0-.968.484.484 0 0 0 0 .968M732.609 123.484a.484.484 0 1 0 .002-.968.484.484 0 0 0-.002.968M725.828 123.484a.484.484 0 1 0 0-.968.484.484 0 0 0 0 .968"/><rect width="31" height="30" x="713.5" y="69.5" fill="#fcfcfc" stroke="#dfdfdf" stroke-width=".5" rx="6"/><path fill="#fff" stroke="#b2b2b2" stroke-width=".5" d="M717.625 78.25a4.75 4.75 0 0 1 4.75-4.75h13.25a4.75 4.75 0 0 1 4.75 4.75v12.5a4.75 4.75 0 0 1-4.75 4.75h-13.25a4.75 4.75 0 0 1-4.75-4.75z"/><path stroke="#525252" stroke-linecap="round" stroke-linejoin="round" stroke-width=".5" d="M729.219 84.969c.267 0 .484-.21.484-.469a.477.477 0 0 0-.484-.469.477.477 0 0 0-.485.469c0 .259.217.469.485.469M732.609 84.969c.268 0 .485-.21.485-.469a.477.477 0 0 0-.485-.469.477.477 0 0 0-.484.469c0 .259.217.469.484.469M725.828 84.969c.267 0 .484-.21.484-.469a.477.477 0 0 0-.484-.469.476.476 0 0 0-.484.469c0 .259.216.469.484.469"/><rect width="31" height="31" x="637.5" y="-7.5" fill="#fcfcfc" stroke="#dfdfdf" stroke-width=".5" rx="6"/><path fill="#fff" stroke="#b2b2b2" stroke-width=".5" d="M641.625 1.375a4.75 4.75 0 0 1 4.75-4.75h13.25a4.75 4.75 0 0 1 4.75 4.75v13.25a4.75 4.75 0 0 1-4.75 4.75h-13.25a4.75 4.75 0 0 1-4.75-4.75z"/><path stroke="#525252" stroke-linecap="round" stroke-linejoin="round" stroke-width=".5" d="M653.219 8.484a.484.484 0 1 0 0-.968.484.484 0 0 0 0 .968M656.609 8.484a.485.485 0 1 0 0-.969.485.485 0 0 0 0 .97M649.828 8.484a.484.484 0 1 0 0-.968.484.484 0 0 0 0 .968"/><rect width="31" height="31" x="637.5" y="107.5" fill="#fcfcfc" stroke="#dfdfdf" stroke-width=".5" rx="6"/><path fill="#fff" stroke="#b2b2b2" stroke-width=".5" d="M641.625 116.375a4.75 4.75 0 0 1 4.75-4.75h13.25a4.75 4.75 0 0 1 4.75 4.75v13.25a4.75 4.75 0 0 1-4.75 4.75h-13.25a4.75 4.75 0 0 1-4.75-4.75z"/><path stroke="#525252" stroke-linecap="round" stroke-linejoin="round" stroke-width=".5" d="M653.219 123.484a.484.484 0 1 0 0-.968.484.484 0 0 0 0 .968M656.609 123.484a.484.484 0 1 0 .002-.968.484.484 0 0 0-.002.968M649.828 123.484a.484.484 0 1 0 0-.968.484.484 0 0 0 0 .968"/><rect width="30" height="31" x="561.5" y="-7.5" fill="#fcfcfc" stroke="#dfdfdf" stroke-width=".5" rx="6"/><path fill="#fff" stroke="#b2b2b2" stroke-width=".5" d="M565.5 1.375a4.75 4.75 0 0 1 4.75-4.75h12.5a4.75 4.75 0 0 1 4.75 4.75v13.25a4.75 4.75 0 0 1-4.75 4.75h-12.5a4.75 4.75 0 0 1-4.75-4.75z"/><path stroke="#525252" stroke-linecap="round" stroke-linejoin="round" stroke-width=".5" d="M576.711 8.484A.477.477 0 0 0 577.18 8a.477.477 0 0 0-.469-.484.477.477 0 0 0-.468.484c0 .268.21.484.468.484M579.993 8.484a.476.476 0 0 0 .468-.484.476.476 0 0 0-.468-.484.477.477 0 0 0-.469.484c0 .268.21.484.469.484M573.43 8.484a.477.477 0 0 0 .469-.484.477.477 0 0 0-.469-.484.477.477 0 0 0-.469.484c0 .268.21.484.469.484"/><rect width="30" height="31" x="599.5" y="107.5" fill="#fcfcfc" stroke="#dfdfdf" stroke-width=".5" rx="6"/><path fill="#fff" stroke="#b2b2b2" stroke-width=".5" d="M603.5 116.375a4.75 4.75 0 0 1 4.75-4.75h12.5a4.75 4.75 0 0 1 4.75 4.75v13.25a4.75 4.75 0 0 1-4.75 4.75h-12.5a4.75 4.75 0 0 1-4.75-4.75z"/><path stroke="#525252" stroke-linecap="round" stroke-linejoin="round" stroke-width=".5" d="M614.711 123.484a.476.476 0 0 0 .469-.484.476.476 0 0 0-.469-.484.476.476 0 0 0-.468.484c0 .268.21.484.468.484M617.993 123.484a.475.475 0 0 0 .468-.484.475.475 0 0 0-.468-.484.476.476 0 0 0-.469.484c0 .268.21.484.469.484M611.43 123.484a.476.476 0 0 0 .469-.484.476.476 0 0 0-.469-.484.476.476 0 0 0-.469.484c0 .268.21.484.469.484"/><rect width="30" height="31" x="518.5" y="149.5" fill="#fcfcfc" stroke="#dfdfdf" stroke-width=".5" rx="6"/><path fill="#fff" stroke="#b2b2b2" stroke-width=".5" d="M522.5 158.375a4.75 4.75 0 0 1 4.75-4.75h12.5a4.75 4.75 0 0 1 4.75 4.75v13.25a4.75 4.75 0 0 1-4.75 4.75h-12.5a4.75 4.75 0 0 1-4.75-4.75z"/><path stroke="#525252" stroke-linecap="round" stroke-linejoin="round" stroke-width=".5" d="M533.711 165.484a.476.476 0 0 0 .469-.484.476.476 0 0 0-.469-.484.476.476 0 0 0-.468.484c0 .268.21.484.468.484M536.993 165.484a.475.475 0 0 0 .468-.484.475.475 0 0 0-.468-.484.476.476 0 0 0-.469.484c0 .268.21.484.469.484M530.43 165.484a.476.476 0 0 0 .469-.484.476.476 0 0 0-.469-.484.476.476 0 0 0-.469.484c0 .268.21.484.469.484"/><rect width="30" height="31" x="561.5" y="107.5" fill="#fcfcfc" stroke="#dfdfdf" stroke-width=".5" rx="6"/><path fill="#fff" stroke="#b2b2b2" stroke-width=".5" d="M565.5 116.375a4.75 4.75 0 0 1 4.75-4.75h12.5a4.75 4.75 0 0 1 4.75 4.75v13.25a4.75 4.75 0 0 1-4.75 4.75h-12.5a4.75 4.75 0 0 1-4.75-4.75z"/><path stroke="#525252" stroke-linecap="round" stroke-linejoin="round" stroke-width=".5" d="M576.711 123.484a.476.476 0 0 0 .469-.484.476.476 0 0 0-.469-.484.476.476 0 0 0-.468.484c0 .268.21.484.468.484M579.993 123.484a.475.475 0 0 0 .468-.484.475.475 0 0 0-.468-.484.476.476 0 0 0-.469.484c0 .268.21.484.469.484M573.43 123.484a.476.476 0 0 0 .469-.484.476.476 0 0 0-.469-.484.476.476 0 0 0-.469.484c0 .268.21.484.469.484"/><rect width="30" height="31" x="752.5" y="-7.5" fill="#fcfcfc" stroke="#dfdfdf" stroke-width=".5" rx="6"/><path fill="#fff" stroke="#b2b2b2" stroke-width=".5" d="M756.5 1.375a4.75 4.75 0 0 1 4.75-4.75h12.5a4.75 4.75 0 0 1 4.75 4.75v13.25a4.75 4.75 0 0 1-4.75 4.75h-12.5a4.75 4.75 0 0 1-4.75-4.75z"/><path stroke="#525252" stroke-linecap="round" stroke-linejoin="round" stroke-width=".5" d="M764.43 8.484a.477.477 0 0 0 .469-.484.477.477 0 0 0-.469-.484.477.477 0 0 0-.469.484c0 .268.21.484.469.484"/><rect width="30" height="31" x="752.5" y="107.5" fill="#fcfcfc" stroke="#dfdfdf" stroke-width=".5" rx="6"/><path fill="#fff" stroke="#b2b2b2" stroke-width=".5" d="M756.5 116.375a4.75 4.75 0 0 1 4.75-4.75h12.5a4.75 4.75 0 0 1 4.75 4.75v13.25a4.75 4.75 0 0 1-4.75 4.75h-12.5a4.75 4.75 0 0 1-4.75-4.75z"/><path stroke="#525252" stroke-linecap="round" stroke-linejoin="round" stroke-width=".5" d="M764.43 123.484a.476.476 0 0 0 .469-.484.476.476 0 0 0-.469-.484.476.476 0 0 0-.469.484c0 .268.21.484.469.484"/><rect width="31" height="30" x="637.5" y="31.5" fill="#fcfcfc" stroke="#dfdfdf" stroke-width=".5" rx="6"/><path fill="#fff" stroke="#b2b2b2" stroke-width=".5" d="M641.625 40.25a4.75 4.75 0 0 1 4.75-4.75h13.25a4.75 4.75 0 0 1 4.75 4.75v12.5a4.75 4.75 0 0 1-4.75 4.75h-13.25a4.75 4.75 0 0 1-4.75-4.75z"/><path stroke="#525252" stroke-linecap="round" stroke-linejoin="round" stroke-width=".5" d="M653.219 46.969c.267 0 .484-.21.484-.469a.477.477 0 0 0-.484-.469.477.477 0 0 0-.485.469c0 .259.217.469.485.469M656.609 46.969c.268 0 .485-.21.485-.469a.477.477 0 0 0-.485-.469.477.477 0 0 0-.484.469c0 .259.217.469.484.469M649.828 46.969c.267 0 .484-.21.484-.469a.477.477 0 0 0-.484-.469.476.476 0 0 0-.484.469c0 .259.216.469.484.469"/><rect width="31" height="31" x="637.5" y="145.5" fill="#fcfcfc" stroke="#dfdfdf" stroke-width=".5" rx="6"/><path fill="#fff" stroke="#b2b2b2" stroke-width=".5" d="M641.625 154.375a4.75 4.75 0 0 1 4.75-4.75h13.25a4.75 4.75 0 0 1 4.75 4.75v13.25a4.75 4.75 0 0 1-4.75 4.75h-13.25a4.75 4.75 0 0 1-4.75-4.75z"/><path stroke="#525252" stroke-linecap="round" stroke-linejoin="round" stroke-width=".5" d="M653.219 161.484a.484.484 0 1 0 0-.968.484.484 0 0 0 0 .968M656.609 161.484a.484.484 0 1 0 .002-.968.484.484 0 0 0-.002.968M649.828 161.484a.484.484 0 1 0 0-.968.484.484 0 0 0 0 .968"/><rect width="31" height="31" x="637.5" y="183.5" fill="#fcfcfc" stroke="#dfdfdf" stroke-width=".5" rx="6"/><path fill="#fff" stroke="#b2b2b2" stroke-width=".5" d="M641.625 192.375a4.75 4.75 0 0 1 4.75-4.75h13.25a4.75 4.75 0 0 1 4.75 4.75v13.25a4.75 4.75 0 0 1-4.75 4.75h-13.25a4.75 4.75 0 0 1-4.75-4.75z"/><path stroke="#525252" stroke-linecap="round" stroke-linejoin="round" stroke-width=".5" d="M653.219 199.484a.484.484 0 1 0 0-.968.484.484 0 0 0 0 .968M656.609 199.484a.484.484 0 1 0 .002-.968.484.484 0 0 0-.002.968M649.828 199.484a.484.484 0 1 0 0-.968.484.484 0 0 0 0 .968"/><rect width="30" height="30" x="599.5" y="31.5" fill="#fcfcfc" stroke="#dfdfdf" stroke-width=".5" rx="6"/><path fill="#fff" stroke="#b2b2b2" stroke-width=".5" d="M603.5 40.25a4.75 4.75 0 0 1 4.75-4.75h12.5a4.75 4.75 0 0 1 4.75 4.75v12.5a4.75 4.75 0 0 1-4.75 4.75h-12.5a4.75 4.75 0 0 1-4.75-4.75z"/><path stroke="#525252" stroke-linecap="round" stroke-linejoin="round" stroke-width=".5" d="M614.711 46.969a.469.469 0 1 0 0-.938.469.469 0 0 0 0 .938M617.993 46.969a.468.468 0 1 0 0-.936.468.468 0 0 0 0 .936M611.43 46.969a.469.469 0 1 0 0-.938.469.469 0 0 0 0 .938"/><rect width="30" height="31" x="599.5" y="145.5" fill="#fcfcfc" stroke="#dfdfdf" stroke-width=".5" rx="6"/><path fill="#fff" stroke="#b2b2b2" stroke-width=".5" d="M603.5 154.375a4.75 4.75 0 0 1 4.75-4.75h12.5a4.75 4.75 0 0 1 4.75 4.75v13.25a4.75 4.75 0 0 1-4.75 4.75h-12.5a4.75 4.75 0 0 1-4.75-4.75z"/><path stroke="#525252" stroke-linecap="round" stroke-linejoin="round" stroke-width=".5" d="M614.711 161.484a.476.476 0 0 0 .469-.484.476.476 0 0 0-.469-.484.476.476 0 0 0-.468.484c0 .268.21.484.468.484M617.993 161.484a.475.475 0 0 0 .468-.484.475.475 0 0 0-.468-.484.476.476 0 0 0-.469.484c0 .268.21.484.469.484M611.43 161.484a.476.476 0 0 0 .469-.484.476.476 0 0 0-.469-.484.476.476 0 0 0-.469.484c0 .268.21.484.469.484"/><rect width="30" height="31" x="599.5" y="183.5" fill="#fcfcfc" stroke="#dfdfdf" stroke-width=".5" rx="6"/><path fill="#fff" stroke="#b2b2b2" stroke-width=".5" d="M603.5 192.375a4.75 4.75 0 0 1 4.75-4.75h12.5a4.75 4.75 0 0 1 4.75 4.75v13.25a4.75 4.75 0 0 1-4.75 4.75h-12.5a4.75 4.75 0 0 1-4.75-4.75z"/><path stroke="#525252" stroke-linecap="round" stroke-linejoin="round" stroke-width=".5" d="M614.711 199.484a.476.476 0 0 0 .469-.484.476.476 0 0 0-.469-.484.476.476 0 0 0-.468.484c0 .268.21.484.468.484M617.993 199.484a.475.475 0 0 0 .468-.484.475.475 0 0 0-.468-.484.476.476 0 0 0-.469.484c0 .268.21.484.469.484M611.43 199.484a.476.476 0 0 0 .469-.484.476.476 0 0 0-.469-.484.476.476 0 0 0-.469.484c0 .268.21.484.469.484"/><rect width="30" height="30" x="752.5" y="31.5" fill="#fcfcfc" stroke="#dfdfdf" stroke-width=".5" rx="6"/><path fill="#fff" stroke="#b2b2b2" stroke-width=".5" d="M756.5 40.25a4.75 4.75 0 0 1 4.75-4.75h12.5a4.75 4.75 0 0 1 4.75 4.75v12.5a4.75 4.75 0 0 1-4.75 4.75h-12.5a4.75 4.75 0 0 1-4.75-4.75z"/><path stroke="#525252" stroke-linecap="round" stroke-linejoin="round" stroke-width=".5" d="M764.43 46.969a.469.469 0 1 0 0-.938.469.469 0 0 0 0 .938"/><rect width="30" height="31" x="752.5" y="145.5" fill="#fcfcfc" stroke="#dfdfdf" stroke-width=".5" rx="6"/><path fill="#fff" stroke="#b2b2b2" stroke-width=".5" d="M756.5 154.375a4.75 4.75 0 0 1 4.75-4.75h12.5a4.75 4.75 0 0 1 4.75 4.75v13.25a4.75 4.75 0 0 1-4.75 4.75h-12.5a4.75 4.75 0 0 1-4.75-4.75z"/><path stroke="#525252" stroke-linecap="round" stroke-linejoin="round" stroke-width=".5" d="M764.43 161.484a.476.476 0 0 0 .469-.484.476.476 0 0 0-.469-.484.476.476 0 0 0-.469.484c0 .268.21.484.469.484"/><rect width="30" height="31" x="752.5" y="183.5" fill="#fcfcfc" stroke="#dfdfdf" stroke-width=".5" rx="6"/><path fill="#fff" stroke="#b2b2b2" stroke-width=".5" d="M756.5 192.375a4.75 4.75 0 0 1 4.75-4.75h12.5a4.75 4.75 0 0 1 4.75 4.75v13.25a4.75 4.75 0 0 1-4.75 4.75h-12.5a4.75 4.75 0 0 1-4.75-4.75z"/><path stroke="#525252" stroke-linecap="round" stroke-linejoin="round" stroke-width=".5" d="M764.43 199.484a.476.476 0 0 0 .469-.484.476.476 0 0 0-.469-.484.476.476 0 0 0-.469.484c0 .268.21.484.469.484"/><path fill="url(#b)" d="M275-.672h489v208H275z"/></g><defs><linearGradient id="b" x1="676.883" x2="278.825" y1="114.328" y2="111.093" gradientUnits="userSpaceOnUse"><stop stop-color="#fbfcfd" stop-opacity="0"/><stop offset="1" stop-color="#fbfcfd"/></linearGradient><clipPath id="a"><path fill="#fff" d="M0 0h764v208H0z"/></clipPath></defs></svg>