<svg width="764" height="208" viewBox="0 0 764 208" fill="none" xmlns="http://www.w3.org/2000/svg">
<g clip-path="url(#clip0_729_66999)">
<rect width="764" height="208" fill="#FCFCFC"/>
<rect x="637.5" y="69.5" width="31" height="30" rx="6" fill="#FCFCFC" stroke="#DFDFDF" stroke-width="0.5"/>
<path d="M641.625 78.25C641.625 75.6266 643.752 73.5 646.375 73.5H659.625C662.248 73.5 664.375 75.6266 664.375 78.25V90.75C664.375 93.3734 662.248 95.5 659.625 95.5H646.375C643.752 95.5 641.625 93.3734 641.625 90.75V78.25Z" fill="white" stroke="#B2B2B2" stroke-width="0.5"/>
<path d="M653.219 84.9688C653.486 84.9688 653.703 84.7589 653.703 84.5C653.703 84.2411 653.486 84.0312 653.219 84.0312C652.951 84.0312 652.734 84.2411 652.734 84.5C652.734 84.7589 652.951 84.9688 653.219 84.9688Z" stroke="#525252" stroke-width="0.5" stroke-linecap="round" stroke-linejoin="round"/>
<path d="M656.609 84.9688C656.877 84.9688 657.094 84.7589 657.094 84.5C657.094 84.2411 656.877 84.0312 656.609 84.0312C656.342 84.0312 656.125 84.2411 656.125 84.5C656.125 84.7589 656.342 84.9688 656.609 84.9688Z" stroke="#525252" stroke-width="0.5" stroke-linecap="round" stroke-linejoin="round"/>
<path d="M649.828 84.9688C650.095 84.9688 650.312 84.7589 650.312 84.5C650.312 84.2411 650.095 84.0312 649.828 84.0312C649.56 84.0312 649.344 84.2411 649.344 84.5C649.344 84.7589 649.56 84.9688 649.828 84.9688Z" stroke="#525252" stroke-width="0.5" stroke-linecap="round" stroke-linejoin="round"/>
<rect x="599.5" y="69.5" width="30" height="30" rx="6" fill="#FCFCFC" stroke="#DFDFDF" stroke-width="0.5"/>
<path d="M603.5 78.25C603.5 75.6266 605.627 73.5 608.25 73.5H620.75C623.373 73.5 625.5 75.6266 625.5 78.25V90.75C625.5 93.3734 623.373 95.5 620.75 95.5H608.25C605.627 95.5 603.5 93.3734 603.5 90.75V78.25Z" fill="white" stroke="#B2B2B2" stroke-width="0.5"/>
<path d="M614.711 84.9688C614.97 84.9688 615.18 84.7589 615.18 84.5C615.18 84.2411 614.97 84.0312 614.711 84.0312C614.453 84.0312 614.243 84.2411 614.243 84.5C614.243 84.7589 614.453 84.9688 614.711 84.9688Z" stroke="#525252" stroke-width="0.5" stroke-linecap="round" stroke-linejoin="round"/>
<path d="M617.993 84.9688C618.252 84.9688 618.461 84.7589 618.461 84.5C618.461 84.2411 618.252 84.0312 617.993 84.0312C617.734 84.0312 617.524 84.2411 617.524 84.5C617.524 84.7589 617.734 84.9688 617.993 84.9688Z" stroke="#525252" stroke-width="0.5" stroke-linecap="round" stroke-linejoin="round"/>
<path d="M611.43 84.9688C611.689 84.9688 611.899 84.7589 611.899 84.5C611.899 84.2411 611.689 84.0312 611.43 84.0312C611.171 84.0312 610.961 84.2411 610.961 84.5C610.961 84.7589 611.171 84.9688 611.43 84.9688Z" stroke="#525252" stroke-width="0.5" stroke-linecap="round" stroke-linejoin="round"/>
<rect x="561.5" y="69.5" width="30" height="30" rx="6" fill="#FCFCFC" stroke="#DFDFDF" stroke-width="0.5"/>
<path d="M565.5 78.25C565.5 75.6266 567.627 73.5 570.25 73.5H582.75C585.373 73.5 587.5 75.6266 587.5 78.25V90.75C587.5 93.3734 585.373 95.5 582.75 95.5H570.25C567.627 95.5 565.5 93.3734 565.5 90.75V78.25Z" fill="white" stroke="#B2B2B2" stroke-width="0.5"/>
<path d="M576.711 84.9688C576.97 84.9688 577.18 84.7589 577.18 84.5C577.18 84.2411 576.97 84.0312 576.711 84.0312C576.453 84.0312 576.243 84.2411 576.243 84.5C576.243 84.7589 576.453 84.9688 576.711 84.9688Z" stroke="#525252" stroke-width="0.5" stroke-linecap="round" stroke-linejoin="round"/>
<path d="M579.993 84.9688C580.252 84.9688 580.461 84.7589 580.461 84.5C580.461 84.2411 580.252 84.0312 579.993 84.0312C579.734 84.0312 579.524 84.2411 579.524 84.5C579.524 84.7589 579.734 84.9688 579.993 84.9688Z" stroke="#525252" stroke-width="0.5" stroke-linecap="round" stroke-linejoin="round"/>
<path d="M573.43 84.9688C573.689 84.9688 573.899 84.7589 573.899 84.5C573.899 84.2411 573.689 84.0312 573.43 84.0312C573.171 84.0312 572.961 84.2411 572.961 84.5C572.961 84.7589 573.171 84.9688 573.43 84.9688Z" stroke="#525252" stroke-width="0.5" stroke-linecap="round" stroke-linejoin="round"/>
<rect x="523.5" y="69.5" width="31" height="30" rx="6" fill="#FCFCFC" stroke="#DFDFDF" stroke-width="0.5"/>
<path d="M527.625 78.25C527.625 75.6266 529.752 73.5 532.375 73.5H545.625C548.248 73.5 550.375 75.6266 550.375 78.25V90.75C550.375 93.3734 548.248 95.5 545.625 95.5H532.375C529.752 95.5 527.625 93.3734 527.625 90.75V78.25Z" fill="white" stroke="#B2B2B2" stroke-width="0.5"/>
<path d="M539.219 84.9688C539.486 84.9688 539.703 84.7589 539.703 84.5C539.703 84.2411 539.486 84.0312 539.219 84.0312C538.951 84.0312 538.734 84.2411 538.734 84.5C538.734 84.7589 538.951 84.9688 539.219 84.9688Z" stroke="#525252" stroke-width="0.5" stroke-linecap="round" stroke-linejoin="round"/>
<path d="M542.609 84.9688C542.877 84.9688 543.094 84.7589 543.094 84.5C543.094 84.2411 542.877 84.0312 542.609 84.0312C542.342 84.0312 542.125 84.2411 542.125 84.5C542.125 84.7589 542.342 84.9688 542.609 84.9688Z" stroke="#525252" stroke-width="0.5" stroke-linecap="round" stroke-linejoin="round"/>
<path d="M535.828 84.9688C536.095 84.9688 536.312 84.7589 536.312 84.5C536.312 84.2411 536.095 84.0312 535.828 84.0312C535.56 84.0312 535.344 84.2411 535.344 84.5C535.344 84.7589 535.56 84.9688 535.828 84.9688Z" stroke="#525252" stroke-width="0.5" stroke-linecap="round" stroke-linejoin="round"/>
<rect x="523.5" y="31.5" width="31" height="30" rx="6" fill="#FCFCFC" stroke="#DFDFDF" stroke-width="0.5"/>
<path d="M527.625 40.25C527.625 37.6266 529.752 35.5 532.375 35.5H545.625C548.248 35.5 550.375 37.6266 550.375 40.25V52.75C550.375 55.3734 548.248 57.5 545.625 57.5H532.375C529.752 57.5 527.625 55.3734 527.625 52.75V40.25Z" fill="white" stroke="#B2B2B2" stroke-width="0.5"/>
<path d="M539.219 46.9688C539.486 46.9688 539.703 46.7589 539.703 46.5C539.703 46.2411 539.486 46.0312 539.219 46.0312C538.951 46.0312 538.734 46.2411 538.734 46.5C538.734 46.7589 538.951 46.9688 539.219 46.9688Z" stroke="#525252" stroke-width="0.5" stroke-linecap="round" stroke-linejoin="round"/>
<path d="M542.609 46.9688C542.877 46.9688 543.094 46.7589 543.094 46.5C543.094 46.2411 542.877 46.0312 542.609 46.0312C542.342 46.0312 542.125 46.2411 542.125 46.5C542.125 46.7589 542.342 46.9688 542.609 46.9688Z" stroke="#525252" stroke-width="0.5" stroke-linecap="round" stroke-linejoin="round"/>
<path d="M535.828 46.9688C536.095 46.9688 536.312 46.7589 536.312 46.5C536.312 46.2411 536.095 46.0312 535.828 46.0312C535.56 46.0312 535.344 46.2411 535.344 46.5C535.344 46.7589 535.56 46.9688 535.828 46.9688Z" stroke="#525252" stroke-width="0.5" stroke-linecap="round" stroke-linejoin="round"/>
<rect x="486.5" y="69.5" width="30" height="30" rx="6" fill="#FCFCFC" stroke="#DFDFDF" stroke-width="0.5"/>
<path d="M490.5 78.25C490.5 75.6266 492.627 73.5 495.25 73.5H507.75C510.373 73.5 512.5 75.6266 512.5 78.25V90.75C512.5 93.3734 510.373 95.5 507.75 95.5H495.25C492.627 95.5 490.5 93.3734 490.5 90.75V78.25Z" fill="white" stroke="#B2B2B2" stroke-width="0.5"/>
<path d="M501.711 84.9688C501.97 84.9688 502.18 84.7589 502.18 84.5C502.18 84.2411 501.97 84.0312 501.711 84.0312C501.453 84.0312 501.243 84.2411 501.243 84.5C501.243 84.7589 501.453 84.9688 501.711 84.9688Z" stroke="#525252" stroke-width="0.5" stroke-linecap="round" stroke-linejoin="round"/>
<path d="M504.993 84.9688C505.252 84.9688 505.461 84.7589 505.461 84.5C505.461 84.2411 505.252 84.0312 504.993 84.0312C504.734 84.0312 504.524 84.2411 504.524 84.5C504.524 84.7589 504.734 84.9688 504.993 84.9688Z" stroke="#525252" stroke-width="0.5" stroke-linecap="round" stroke-linejoin="round"/>
<path d="M498.43 84.9688C498.689 84.9688 498.899 84.7589 498.899 84.5C498.899 84.2411 498.689 84.0312 498.43 84.0312C498.171 84.0312 497.961 84.2411 497.961 84.5C497.961 84.7589 498.171 84.9688 498.43 84.9688Z" stroke="#525252" stroke-width="0.5" stroke-linecap="round" stroke-linejoin="round"/>
<rect x="486.5" y="107.5" width="30" height="31" rx="6" fill="#FCFCFC" stroke="#DFDFDF" stroke-width="0.5"/>
<path d="M490.5 116.375C490.5 113.752 492.627 111.625 495.25 111.625H507.75C510.373 111.625 512.5 113.752 512.5 116.375V129.625C512.5 132.248 510.373 134.375 507.75 134.375H495.25C492.627 134.375 490.5 132.248 490.5 129.625V116.375Z" fill="white" stroke="#B2B2B2" stroke-width="0.5"/>
<path d="M501.711 123.484C501.97 123.484 502.18 123.268 502.18 123C502.18 122.732 501.97 122.516 501.711 122.516C501.453 122.516 501.243 122.732 501.243 123C501.243 123.268 501.453 123.484 501.711 123.484Z" stroke="#525252" stroke-width="0.5" stroke-linecap="round" stroke-linejoin="round"/>
<path d="M504.993 123.484C505.252 123.484 505.461 123.268 505.461 123C505.461 122.732 505.252 122.516 504.993 122.516C504.734 122.516 504.524 122.732 504.524 123C504.524 123.268 504.734 123.484 504.993 123.484Z" stroke="#525252" stroke-width="0.5" stroke-linecap="round" stroke-linejoin="round"/>
<path d="M498.43 123.484C498.689 123.484 498.899 123.268 498.899 123C498.899 122.732 498.689 122.516 498.43 122.516C498.171 122.516 497.961 122.732 497.961 123C497.961 123.268 498.171 123.484 498.43 123.484Z" stroke="#525252" stroke-width="0.5" stroke-linecap="round" stroke-linejoin="round"/>
<rect x="447.5" y="69.5" width="31" height="30" rx="6" fill="#FCFCFC" stroke="#DFDFDF" stroke-width="0.5"/>
<path d="M451.625 78.25C451.625 75.6266 453.752 73.5 456.375 73.5H469.625C472.248 73.5 474.375 75.6266 474.375 78.25V90.75C474.375 93.3734 472.248 95.5 469.625 95.5H456.375C453.752 95.5 451.625 93.3734 451.625 90.75V78.25Z" fill="white" stroke="#B2B2B2" stroke-width="0.5"/>
<path d="M463.219 84.9688C463.486 84.9688 463.703 84.7589 463.703 84.5C463.703 84.2411 463.486 84.0312 463.219 84.0312C462.951 84.0312 462.734 84.2411 462.734 84.5C462.734 84.7589 462.951 84.9688 463.219 84.9688Z" stroke="#525252" stroke-width="0.5" stroke-linecap="round" stroke-linejoin="round"/>
<path d="M466.609 84.9688C466.877 84.9688 467.094 84.7589 467.094 84.5C467.094 84.2411 466.877 84.0312 466.609 84.0312C466.342 84.0312 466.125 84.2411 466.125 84.5C466.125 84.7589 466.342 84.9688 466.609 84.9688Z" stroke="#525252" stroke-width="0.5" stroke-linecap="round" stroke-linejoin="round"/>
<path d="M459.828 84.9688C460.095 84.9688 460.312 84.7589 460.312 84.5C460.312 84.2411 460.095 84.0312 459.828 84.0312C459.56 84.0312 459.344 84.2411 459.344 84.5C459.344 84.7589 459.56 84.9688 459.828 84.9688Z" stroke="#525252" stroke-width="0.5" stroke-linecap="round" stroke-linejoin="round"/>
<rect x="447.5" y="31.5" width="31" height="30" rx="6" fill="#FCFCFC" stroke="#DFDFDF" stroke-width="0.5"/>
<path d="M451.625 40.25C451.625 37.6266 453.752 35.5 456.375 35.5H469.625C472.248 35.5 474.375 37.6266 474.375 40.25V52.75C474.375 55.3734 472.248 57.5 469.625 57.5H456.375C453.752 57.5 451.625 55.3734 451.625 52.75V40.25Z" fill="white" stroke="#B2B2B2" stroke-width="0.5"/>
<path d="M463.219 46.9688C463.486 46.9688 463.703 46.7589 463.703 46.5C463.703 46.2411 463.486 46.0312 463.219 46.0312C462.951 46.0312 462.734 46.2411 462.734 46.5C462.734 46.7589 462.951 46.9688 463.219 46.9688Z" stroke="#525252" stroke-width="0.5" stroke-linecap="round" stroke-linejoin="round"/>
<path d="M466.609 46.9688C466.877 46.9688 467.094 46.7589 467.094 46.5C467.094 46.2411 466.877 46.0312 466.609 46.0312C466.342 46.0312 466.125 46.2411 466.125 46.5C466.125 46.7589 466.342 46.9688 466.609 46.9688Z" stroke="#525252" stroke-width="0.5" stroke-linecap="round" stroke-linejoin="round"/>
<path d="M459.828 46.9688C460.095 46.9688 460.312 46.7589 460.312 46.5C460.312 46.2411 460.095 46.0312 459.828 46.0312C459.56 46.0312 459.344 46.2411 459.344 46.5C459.344 46.7589 459.56 46.9688 459.828 46.9688Z" stroke="#525252" stroke-width="0.5" stroke-linecap="round" stroke-linejoin="round"/>
<rect x="409.5" y="31.5" width="30" height="30" rx="6" fill="#FCFCFC" stroke="#DFDFDF" stroke-width="0.5"/>
<path d="M413.5 40.25C413.5 37.6266 415.627 35.5 418.25 35.5H430.75C433.373 35.5 435.5 37.6266 435.5 40.25V52.75C435.5 55.3734 433.373 57.5 430.75 57.5H418.25C415.627 57.5 413.5 55.3734 413.5 52.75V40.25Z" fill="white" stroke="#B2B2B2" stroke-width="0.5"/>
<path d="M424.711 46.9688C424.97 46.9688 425.18 46.7589 425.18 46.5C425.18 46.2411 424.97 46.0312 424.711 46.0312C424.453 46.0312 424.243 46.2411 424.243 46.5C424.243 46.7589 424.453 46.9688 424.711 46.9688Z" stroke="#525252" stroke-width="0.5" stroke-linecap="round" stroke-linejoin="round"/>
<path d="M427.993 46.9688C428.252 46.9688 428.461 46.7589 428.461 46.5C428.461 46.2411 428.252 46.0312 427.993 46.0312C427.734 46.0312 427.524 46.2411 427.524 46.5C427.524 46.7589 427.734 46.9688 427.993 46.9688Z" stroke="#525252" stroke-width="0.5" stroke-linecap="round" stroke-linejoin="round"/>
<path d="M421.43 46.9688C421.689 46.9688 421.899 46.7589 421.899 46.5C421.899 46.2411 421.689 46.0312 421.43 46.0312C421.171 46.0312 420.961 46.2411 420.961 46.5C420.961 46.7589 421.171 46.9688 421.43 46.9688Z" stroke="#525252" stroke-width="0.5" stroke-linecap="round" stroke-linejoin="round"/>
<rect x="346.5" y="-14.5" width="30" height="30" rx="6" fill="#FCFCFC" stroke="#DFDFDF" stroke-width="0.5"/>
<path d="M350.5 -5.75C350.5 -8.37335 352.627 -10.5 355.25 -10.5H367.75C370.373 -10.5 372.5 -8.37335 372.5 -5.75V6.75C372.5 9.37335 370.373 11.5 367.75 11.5H355.25C352.627 11.5 350.5 9.37335 350.5 6.75V-5.75Z" fill="white" stroke="#B2B2B2" stroke-width="0.5"/>
<path d="M361.711 0.96875C361.97 0.96875 362.18 0.758883 362.18 0.5C362.18 0.241117 361.97 0.03125 361.711 0.03125C361.453 0.03125 361.243 0.241117 361.243 0.5C361.243 0.758883 361.453 0.96875 361.711 0.96875Z" stroke="#525252" stroke-width="0.5" stroke-linecap="round" stroke-linejoin="round"/>
<path d="M364.993 0.96875C365.252 0.96875 365.461 0.758883 365.461 0.5C365.461 0.241117 365.252 0.03125 364.993 0.03125C364.734 0.03125 364.524 0.241117 364.524 0.5C364.524 0.758883 364.734 0.96875 364.993 0.96875Z" stroke="#525252" stroke-width="0.5" stroke-linecap="round" stroke-linejoin="round"/>
<path d="M358.43 0.96875C358.689 0.96875 358.899 0.758883 358.899 0.5C358.899 0.241117 358.689 0.03125 358.43 0.03125C358.171 0.03125 357.961 0.241117 357.961 0.5C357.961 0.758883 358.171 0.96875 358.43 0.96875Z" stroke="#525252" stroke-width="0.5" stroke-linecap="round" stroke-linejoin="round"/>
<rect x="752.5" y="69.5" width="30" height="30" rx="6" fill="#FCFCFC" stroke="#DFDFDF" stroke-width="0.5"/>
<path d="M756.5 78.25C756.5 75.6266 758.627 73.5 761.25 73.5H773.75C776.373 73.5 778.5 75.6266 778.5 78.25V90.75C778.5 93.3734 776.373 95.5 773.75 95.5H761.25C758.627 95.5 756.5 93.3734 756.5 90.75V78.25Z" fill="white" stroke="#B2B2B2" stroke-width="0.5"/>
<path d="M764.43 84.9688C764.689 84.9688 764.899 84.7589 764.899 84.5C764.899 84.2411 764.689 84.0312 764.43 84.0312C764.171 84.0312 763.961 84.2411 763.961 84.5C763.961 84.7589 764.171 84.9688 764.43 84.9688Z" stroke="#525252" stroke-width="0.5" stroke-linecap="round" stroke-linejoin="round"/>
<rect x="675.5" y="69.5" width="31" height="30" rx="6" fill="#FCFCFC" stroke="#DFDFDF" stroke-width="0.5"/>
<path d="M679.625 78.25C679.625 75.6266 681.752 73.5 684.375 73.5H697.625C700.248 73.5 702.375 75.6266 702.375 78.25V90.75C702.375 93.3734 700.248 95.5 697.625 95.5H684.375C681.752 95.5 679.625 93.3734 679.625 90.75V78.25Z" fill="white" stroke="#B2B2B2" stroke-width="0.5"/>
<path d="M691.219 84.9688C691.486 84.9688 691.703 84.7589 691.703 84.5C691.703 84.2411 691.486 84.0312 691.219 84.0312C690.951 84.0312 690.734 84.2411 690.734 84.5C690.734 84.7589 690.951 84.9688 691.219 84.9688Z" stroke="#525252" stroke-width="0.5" stroke-linecap="round" stroke-linejoin="round"/>
<path d="M694.609 84.9688C694.877 84.9688 695.094 84.7589 695.094 84.5C695.094 84.2411 694.877 84.0312 694.609 84.0312C694.342 84.0312 694.125 84.2411 694.125 84.5C694.125 84.7589 694.342 84.9688 694.609 84.9688Z" stroke="#525252" stroke-width="0.5" stroke-linecap="round" stroke-linejoin="round"/>
<path d="M687.828 84.9688C688.095 84.9688 688.312 84.7589 688.312 84.5C688.312 84.2411 688.095 84.0312 687.828 84.0312C687.56 84.0312 687.344 84.2411 687.344 84.5C687.344 84.7589 687.56 84.9688 687.828 84.9688Z" stroke="#525252" stroke-width="0.5" stroke-linecap="round" stroke-linejoin="round"/>
<rect x="675.5" y="-7.5" width="31" height="31" rx="6" fill="#FCFCFC" stroke="#DFDFDF" stroke-width="0.5"/>
<path d="M679.625 1.375C679.625 -1.24835 681.752 -3.375 684.375 -3.375H697.625C700.248 -3.375 702.375 -1.24835 702.375 1.375V14.625C702.375 17.2484 700.248 19.375 697.625 19.375H684.375C681.752 19.375 679.625 17.2484 679.625 14.625V1.375Z" fill="white" stroke="#B2B2B2" stroke-width="0.5"/>
<path d="M691.219 8.48438C691.486 8.48438 691.703 8.26751 691.703 8C691.703 7.73249 691.486 7.51562 691.219 7.51562C690.951 7.51562 690.734 7.73249 690.734 8C690.734 8.26751 690.951 8.48438 691.219 8.48438Z" stroke="#525252" stroke-width="0.5" stroke-linecap="round" stroke-linejoin="round"/>
<path d="M694.609 8.48438C694.877 8.48438 695.094 8.26751 695.094 8C695.094 7.73249 694.877 7.51562 694.609 7.51562C694.342 7.51562 694.125 7.73249 694.125 8C694.125 8.26751 694.342 8.48438 694.609 8.48438Z" stroke="#525252" stroke-width="0.5" stroke-linecap="round" stroke-linejoin="round"/>
<path d="M687.828 8.48438C688.095 8.48438 688.312 8.26751 688.312 8C688.312 7.73249 688.095 7.51562 687.828 7.51562C687.56 7.51562 687.344 7.73249 687.344 8C687.344 8.26751 687.56 8.48438 687.828 8.48438Z" stroke="#525252" stroke-width="0.5" stroke-linecap="round" stroke-linejoin="round"/>
<rect x="675.5" y="107.5" width="31" height="31" rx="6" fill="#FCFCFC" stroke="#DFDFDF" stroke-width="0.5"/>
<path d="M679.625 116.375C679.625 113.752 681.752 111.625 684.375 111.625H697.625C700.248 111.625 702.375 113.752 702.375 116.375V129.625C702.375 132.248 700.248 134.375 697.625 134.375H684.375C681.752 134.375 679.625 132.248 679.625 129.625V116.375Z" fill="white" stroke="#B2B2B2" stroke-width="0.5"/>
<path d="M691.219 123.484C691.486 123.484 691.703 123.268 691.703 123C691.703 122.732 691.486 122.516 691.219 122.516C690.951 122.516 690.734 122.732 690.734 123C690.734 123.268 690.951 123.484 691.219 123.484Z" stroke="#525252" stroke-width="0.5" stroke-linecap="round" stroke-linejoin="round"/>
<path d="M694.609 123.484C694.877 123.484 695.094 123.268 695.094 123C695.094 122.732 694.877 122.516 694.609 122.516C694.342 122.516 694.125 122.732 694.125 123C694.125 123.268 694.342 123.484 694.609 123.484Z" stroke="#525252" stroke-width="0.5" stroke-linecap="round" stroke-linejoin="round"/>
<path d="M687.828 123.484C688.095 123.484 688.312 123.268 688.312 123C688.312 122.732 688.095 122.516 687.828 122.516C687.56 122.516 687.344 122.732 687.344 123C687.344 123.268 687.56 123.484 687.828 123.484Z" stroke="#525252" stroke-width="0.5" stroke-linecap="round" stroke-linejoin="round"/>
<rect x="675.5" y="31.5" width="31" height="30" rx="6" fill="#FCFCFC" stroke="#DFDFDF" stroke-width="0.5"/>
<path d="M679.625 40.25C679.625 37.6266 681.752 35.5 684.375 35.5H697.625C700.248 35.5 702.375 37.6266 702.375 40.25V52.75C702.375 55.3734 700.248 57.5 697.625 57.5H684.375C681.752 57.5 679.625 55.3734 679.625 52.75V40.25Z" fill="white" stroke="#B2B2B2" stroke-width="0.5"/>
<path d="M691.219 46.9688C691.486 46.9688 691.703 46.7589 691.703 46.5C691.703 46.2411 691.486 46.0312 691.219 46.0312C690.951 46.0312 690.734 46.2411 690.734 46.5C690.734 46.7589 690.951 46.9688 691.219 46.9688Z" stroke="#525252" stroke-width="0.5" stroke-linecap="round" stroke-linejoin="round"/>
<path d="M694.609 46.9688C694.877 46.9688 695.094 46.7589 695.094 46.5C695.094 46.2411 694.877 46.0312 694.609 46.0312C694.342 46.0312 694.125 46.2411 694.125 46.5C694.125 46.7589 694.342 46.9688 694.609 46.9688Z" stroke="#525252" stroke-width="0.5" stroke-linecap="round" stroke-linejoin="round"/>
<path d="M687.828 46.9688C688.095 46.9688 688.312 46.7589 688.312 46.5C688.312 46.2411 688.095 46.0312 687.828 46.0312C687.56 46.0312 687.344 46.2411 687.344 46.5C687.344 46.7589 687.56 46.9688 687.828 46.9688Z" stroke="#525252" stroke-width="0.5" stroke-linecap="round" stroke-linejoin="round"/>
<rect x="675.5" y="145.5" width="31" height="31" rx="6" fill="#FCFCFC" stroke="#DFDFDF" stroke-width="0.5"/>
<path d="M679.625 154.375C679.625 151.752 681.752 149.625 684.375 149.625H697.625C700.248 149.625 702.375 151.752 702.375 154.375V167.625C702.375 170.248 700.248 172.375 697.625 172.375H684.375C681.752 172.375 679.625 170.248 679.625 167.625V154.375Z" fill="white" stroke="#B2B2B2" stroke-width="0.5"/>
<path d="M691.219 161.484C691.486 161.484 691.703 161.268 691.703 161C691.703 160.732 691.486 160.516 691.219 160.516C690.951 160.516 690.734 160.732 690.734 161C690.734 161.268 690.951 161.484 691.219 161.484Z" stroke="#525252" stroke-width="0.5" stroke-linecap="round" stroke-linejoin="round"/>
<path d="M694.609 161.484C694.877 161.484 695.094 161.268 695.094 161C695.094 160.732 694.877 160.516 694.609 160.516C694.342 160.516 694.125 160.732 694.125 161C694.125 161.268 694.342 161.484 694.609 161.484Z" stroke="#525252" stroke-width="0.5" stroke-linecap="round" stroke-linejoin="round"/>
<path d="M687.828 161.484C688.095 161.484 688.312 161.268 688.312 161C688.312 160.732 688.095 160.516 687.828 160.516C687.56 160.516 687.344 160.732 687.344 161C687.344 161.268 687.56 161.484 687.828 161.484Z" stroke="#525252" stroke-width="0.5" stroke-linecap="round" stroke-linejoin="round"/>
<rect x="675.5" y="183.5" width="31" height="31" rx="6" fill="#FCFCFC" stroke="#DFDFDF" stroke-width="0.5"/>
<path d="M679.625 192.375C679.625 189.752 681.752 187.625 684.375 187.625H697.625C700.248 187.625 702.375 189.752 702.375 192.375V205.625C702.375 208.248 700.248 210.375 697.625 210.375H684.375C681.752 210.375 679.625 208.248 679.625 205.625V192.375Z" fill="white" stroke="#B2B2B2" stroke-width="0.5"/>
<path d="M691.219 199.484C691.486 199.484 691.703 199.268 691.703 199C691.703 198.732 691.486 198.516 691.219 198.516C690.951 198.516 690.734 198.732 690.734 199C690.734 199.268 690.951 199.484 691.219 199.484Z" stroke="#525252" stroke-width="0.5" stroke-linecap="round" stroke-linejoin="round"/>
<path d="M694.609 199.484C694.877 199.484 695.094 199.268 695.094 199C695.094 198.732 694.877 198.516 694.609 198.516C694.342 198.516 694.125 198.732 694.125 199C694.125 199.268 694.342 199.484 694.609 199.484Z" stroke="#525252" stroke-width="0.5" stroke-linecap="round" stroke-linejoin="round"/>
<path d="M687.828 199.484C688.095 199.484 688.312 199.268 688.312 199C688.312 198.732 688.095 198.516 687.828 198.516C687.56 198.516 687.344 198.732 687.344 199C687.344 199.268 687.56 199.484 687.828 199.484Z" stroke="#525252" stroke-width="0.5" stroke-linecap="round" stroke-linejoin="round"/>
<rect x="713.5" y="31.5" width="31" height="30" rx="6" fill="#FCFCFC" stroke="#DFDFDF" stroke-width="0.5"/>
<path d="M717.625 40.25C717.625 37.6266 719.752 35.5 722.375 35.5H735.625C738.248 35.5 740.375 37.6266 740.375 40.25V52.75C740.375 55.3734 738.248 57.5 735.625 57.5H722.375C719.752 57.5 717.625 55.3734 717.625 52.75V40.25Z" fill="white" stroke="#B2B2B2" stroke-width="0.5"/>
<path d="M729.219 46.9688C729.486 46.9688 729.703 46.7589 729.703 46.5C729.703 46.2411 729.486 46.0312 729.219 46.0312C728.951 46.0312 728.734 46.2411 728.734 46.5C728.734 46.7589 728.951 46.9688 729.219 46.9688Z" stroke="#525252" stroke-width="0.5" stroke-linecap="round" stroke-linejoin="round"/>
<path d="M732.609 46.9688C732.877 46.9688 733.094 46.7589 733.094 46.5C733.094 46.2411 732.877 46.0312 732.609 46.0312C732.342 46.0312 732.125 46.2411 732.125 46.5C732.125 46.7589 732.342 46.9688 732.609 46.9688Z" stroke="#525252" stroke-width="0.5" stroke-linecap="round" stroke-linejoin="round"/>
<path d="M725.828 46.9688C726.095 46.9688 726.312 46.7589 726.312 46.5C726.312 46.2411 726.095 46.0312 725.828 46.0312C725.56 46.0312 725.344 46.2411 725.344 46.5C725.344 46.7589 725.56 46.9688 725.828 46.9688Z" stroke="#525252" stroke-width="0.5" stroke-linecap="round" stroke-linejoin="round"/>
<rect x="713.5" y="145.5" width="31" height="31" rx="6" fill="#FCFCFC" stroke="#DFDFDF" stroke-width="0.5"/>
<path d="M717.625 154.375C717.625 151.752 719.752 149.625 722.375 149.625H735.625C738.248 149.625 740.375 151.752 740.375 154.375V167.625C740.375 170.248 738.248 172.375 735.625 172.375H722.375C719.752 172.375 717.625 170.248 717.625 167.625V154.375Z" fill="white" stroke="#B2B2B2" stroke-width="0.5"/>
<path d="M729.219 161.484C729.486 161.484 729.703 161.268 729.703 161C729.703 160.732 729.486 160.516 729.219 160.516C728.951 160.516 728.734 160.732 728.734 161C728.734 161.268 728.951 161.484 729.219 161.484Z" stroke="#525252" stroke-width="0.5" stroke-linecap="round" stroke-linejoin="round"/>
<path d="M732.609 161.484C732.877 161.484 733.094 161.268 733.094 161C733.094 160.732 732.877 160.516 732.609 160.516C732.342 160.516 732.125 160.732 732.125 161C732.125 161.268 732.342 161.484 732.609 161.484Z" stroke="#525252" stroke-width="0.5" stroke-linecap="round" stroke-linejoin="round"/>
<path d="M725.828 161.484C726.095 161.484 726.312 161.268 726.312 161C726.312 160.732 726.095 160.516 725.828 160.516C725.56 160.516 725.344 160.732 725.344 161C725.344 161.268 725.56 161.484 725.828 161.484Z" stroke="#525252" stroke-width="0.5" stroke-linecap="round" stroke-linejoin="round"/>
<rect x="713.5" y="183.5" width="31" height="31" rx="6" fill="#FCFCFC" stroke="#DFDFDF" stroke-width="0.5"/>
<path d="M717.625 192.375C717.625 189.752 719.752 187.625 722.375 187.625H735.625C738.248 187.625 740.375 189.752 740.375 192.375V205.625C740.375 208.248 738.248 210.375 735.625 210.375H722.375C719.752 210.375 717.625 208.248 717.625 205.625V192.375Z" fill="white" stroke="#B2B2B2" stroke-width="0.5"/>
<path d="M729.219 199.484C729.486 199.484 729.703 199.268 729.703 199C729.703 198.732 729.486 198.516 729.219 198.516C728.951 198.516 728.734 198.732 728.734 199C728.734 199.268 728.951 199.484 729.219 199.484Z" stroke="#525252" stroke-width="0.5" stroke-linecap="round" stroke-linejoin="round"/>
<path d="M732.609 199.484C732.877 199.484 733.094 199.268 733.094 199C733.094 198.732 732.877 198.516 732.609 198.516C732.342 198.516 732.125 198.732 732.125 199C732.125 199.268 732.342 199.484 732.609 199.484Z" stroke="#525252" stroke-width="0.5" stroke-linecap="round" stroke-linejoin="round"/>
<path d="M725.828 199.484C726.095 199.484 726.312 199.268 726.312 199C726.312 198.732 726.095 198.516 725.828 198.516C725.56 198.516 725.344 198.732 725.344 199C725.344 199.268 725.56 199.484 725.828 199.484Z" stroke="#525252" stroke-width="0.5" stroke-linecap="round" stroke-linejoin="round"/>
<rect x="713.5" y="-7.5" width="31" height="31" rx="6" fill="#FCFCFC" stroke="#DFDFDF" stroke-width="0.5"/>
<path d="M717.625 1.375C717.625 -1.24835 719.752 -3.375 722.375 -3.375H735.625C738.248 -3.375 740.375 -1.24835 740.375 1.375V14.625C740.375 17.2484 738.248 19.375 735.625 19.375H722.375C719.752 19.375 717.625 17.2484 717.625 14.625V1.375Z" fill="white" stroke="#B2B2B2" stroke-width="0.5"/>
<path d="M729.219 8.48438C729.486 8.48438 729.703 8.26751 729.703 8C729.703 7.73249 729.486 7.51562 729.219 7.51562C728.951 7.51562 728.734 7.73249 728.734 8C728.734 8.26751 728.951 8.48438 729.219 8.48438Z" stroke="#525252" stroke-width="0.5" stroke-linecap="round" stroke-linejoin="round"/>
<path d="M732.609 8.48438C732.877 8.48438 733.094 8.26751 733.094 8C733.094 7.73249 732.877 7.51562 732.609 7.51562C732.342 7.51562 732.125 7.73249 732.125 8C732.125 8.26751 732.342 8.48438 732.609 8.48438Z" stroke="#525252" stroke-width="0.5" stroke-linecap="round" stroke-linejoin="round"/>
<path d="M725.828 8.48438C726.095 8.48438 726.312 8.26751 726.312 8C726.312 7.73249 726.095 7.51562 725.828 7.51562C725.56 7.51562 725.344 7.73249 725.344 8C725.344 8.26751 725.56 8.48438 725.828 8.48438Z" stroke="#525252" stroke-width="0.5" stroke-linecap="round" stroke-linejoin="round"/>
<rect x="713.5" y="107.5" width="31" height="31" rx="6" fill="#FCFCFC" stroke="#DFDFDF" stroke-width="0.5"/>
<path d="M717.625 116.375C717.625 113.752 719.752 111.625 722.375 111.625H735.625C738.248 111.625 740.375 113.752 740.375 116.375V129.625C740.375 132.248 738.248 134.375 735.625 134.375H722.375C719.752 134.375 717.625 132.248 717.625 129.625V116.375Z" fill="white" stroke="#B2B2B2" stroke-width="0.5"/>
<path d="M729.219 123.484C729.486 123.484 729.703 123.268 729.703 123C729.703 122.732 729.486 122.516 729.219 122.516C728.951 122.516 728.734 122.732 728.734 123C728.734 123.268 728.951 123.484 729.219 123.484Z" stroke="#525252" stroke-width="0.5" stroke-linecap="round" stroke-linejoin="round"/>
<path d="M732.609 123.484C732.877 123.484 733.094 123.268 733.094 123C733.094 122.732 732.877 122.516 732.609 122.516C732.342 122.516 732.125 122.732 732.125 123C732.125 123.268 732.342 123.484 732.609 123.484Z" stroke="#525252" stroke-width="0.5" stroke-linecap="round" stroke-linejoin="round"/>
<path d="M725.828 123.484C726.095 123.484 726.312 123.268 726.312 123C726.312 122.732 726.095 122.516 725.828 122.516C725.56 122.516 725.344 122.732 725.344 123C725.344 123.268 725.56 123.484 725.828 123.484Z" stroke="#525252" stroke-width="0.5" stroke-linecap="round" stroke-linejoin="round"/>
<rect x="713.5" y="69.5" width="31" height="30" rx="6" fill="#FCFCFC" stroke="#DFDFDF" stroke-width="0.5"/>
<path d="M717.625 78.25C717.625 75.6266 719.752 73.5 722.375 73.5H735.625C738.248 73.5 740.375 75.6266 740.375 78.25V90.75C740.375 93.3734 738.248 95.5 735.625 95.5H722.375C719.752 95.5 717.625 93.3734 717.625 90.75V78.25Z" fill="white" stroke="#B2B2B2" stroke-width="0.5"/>
<path d="M729.219 84.9688C729.486 84.9688 729.703 84.7589 729.703 84.5C729.703 84.2411 729.486 84.0312 729.219 84.0312C728.951 84.0312 728.734 84.2411 728.734 84.5C728.734 84.7589 728.951 84.9688 729.219 84.9688Z" stroke="#525252" stroke-width="0.5" stroke-linecap="round" stroke-linejoin="round"/>
<path d="M732.609 84.9688C732.877 84.9688 733.094 84.7589 733.094 84.5C733.094 84.2411 732.877 84.0312 732.609 84.0312C732.342 84.0312 732.125 84.2411 732.125 84.5C732.125 84.7589 732.342 84.9688 732.609 84.9688Z" stroke="#525252" stroke-width="0.5" stroke-linecap="round" stroke-linejoin="round"/>
<path d="M725.828 84.9688C726.095 84.9688 726.312 84.7589 726.312 84.5C726.312 84.2411 726.095 84.0312 725.828 84.0312C725.56 84.0312 725.344 84.2411 725.344 84.5C725.344 84.7589 725.56 84.9688 725.828 84.9688Z" stroke="#525252" stroke-width="0.5" stroke-linecap="round" stroke-linejoin="round"/>
<rect x="637.5" y="-7.5" width="31" height="31" rx="6" fill="#FCFCFC" stroke="#DFDFDF" stroke-width="0.5"/>
<path d="M641.625 1.375C641.625 -1.24835 643.752 -3.375 646.375 -3.375H659.625C662.248 -3.375 664.375 -1.24835 664.375 1.375V14.625C664.375 17.2484 662.248 19.375 659.625 19.375H646.375C643.752 19.375 641.625 17.2484 641.625 14.625V1.375Z" fill="white" stroke="#B2B2B2" stroke-width="0.5"/>
<path d="M653.219 8.48438C653.486 8.48438 653.703 8.26751 653.703 8C653.703 7.73249 653.486 7.51562 653.219 7.51562C652.951 7.51562 652.734 7.73249 652.734 8C652.734 8.26751 652.951 8.48438 653.219 8.48438Z" stroke="#525252" stroke-width="0.5" stroke-linecap="round" stroke-linejoin="round"/>
<path d="M656.609 8.48438C656.877 8.48438 657.094 8.26751 657.094 8C657.094 7.73249 656.877 7.51562 656.609 7.51562C656.342 7.51562 656.125 7.73249 656.125 8C656.125 8.26751 656.342 8.48438 656.609 8.48438Z" stroke="#525252" stroke-width="0.5" stroke-linecap="round" stroke-linejoin="round"/>
<path d="M649.828 8.48438C650.095 8.48438 650.312 8.26751 650.312 8C650.312 7.73249 650.095 7.51562 649.828 7.51562C649.56 7.51562 649.344 7.73249 649.344 8C649.344 8.26751 649.56 8.48438 649.828 8.48438Z" stroke="#525252" stroke-width="0.5" stroke-linecap="round" stroke-linejoin="round"/>
<rect x="637.5" y="107.5" width="31" height="31" rx="6" fill="#FCFCFC" stroke="#DFDFDF" stroke-width="0.5"/>
<path d="M641.625 116.375C641.625 113.752 643.752 111.625 646.375 111.625H659.625C662.248 111.625 664.375 113.752 664.375 116.375V129.625C664.375 132.248 662.248 134.375 659.625 134.375H646.375C643.752 134.375 641.625 132.248 641.625 129.625V116.375Z" fill="white" stroke="#B2B2B2" stroke-width="0.5"/>
<path d="M653.219 123.484C653.486 123.484 653.703 123.268 653.703 123C653.703 122.732 653.486 122.516 653.219 122.516C652.951 122.516 652.734 122.732 652.734 123C652.734 123.268 652.951 123.484 653.219 123.484Z" stroke="#525252" stroke-width="0.5" stroke-linecap="round" stroke-linejoin="round"/>
<path d="M656.609 123.484C656.877 123.484 657.094 123.268 657.094 123C657.094 122.732 656.877 122.516 656.609 122.516C656.342 122.516 656.125 122.732 656.125 123C656.125 123.268 656.342 123.484 656.609 123.484Z" stroke="#525252" stroke-width="0.5" stroke-linecap="round" stroke-linejoin="round"/>
<path d="M649.828 123.484C650.095 123.484 650.312 123.268 650.312 123C650.312 122.732 650.095 122.516 649.828 122.516C649.56 122.516 649.344 122.732 649.344 123C649.344 123.268 649.56 123.484 649.828 123.484Z" stroke="#525252" stroke-width="0.5" stroke-linecap="round" stroke-linejoin="round"/>
<rect x="561.5" y="-7.5" width="30" height="31" rx="6" fill="#FCFCFC" stroke="#DFDFDF" stroke-width="0.5"/>
<path d="M565.5 1.375C565.5 -1.24835 567.627 -3.375 570.25 -3.375H582.75C585.373 -3.375 587.5 -1.24835 587.5 1.375V14.625C587.5 17.2484 585.373 19.375 582.75 19.375H570.25C567.627 19.375 565.5 17.2484 565.5 14.625V1.375Z" fill="white" stroke="#B2B2B2" stroke-width="0.5"/>
<path d="M576.711 8.48438C576.97 8.48438 577.18 8.26751 577.18 8C577.18 7.73249 576.97 7.51562 576.711 7.51562C576.453 7.51562 576.243 7.73249 576.243 8C576.243 8.26751 576.453 8.48438 576.711 8.48438Z" stroke="#525252" stroke-width="0.5" stroke-linecap="round" stroke-linejoin="round"/>
<path d="M579.993 8.48438C580.252 8.48438 580.461 8.26751 580.461 8C580.461 7.73249 580.252 7.51562 579.993 7.51562C579.734 7.51562 579.524 7.73249 579.524 8C579.524 8.26751 579.734 8.48438 579.993 8.48438Z" stroke="#525252" stroke-width="0.5" stroke-linecap="round" stroke-linejoin="round"/>
<path d="M573.43 8.48438C573.689 8.48438 573.899 8.26751 573.899 8C573.899 7.73249 573.689 7.51562 573.43 7.51562C573.171 7.51562 572.961 7.73249 572.961 8C572.961 8.26751 573.171 8.48438 573.43 8.48438Z" stroke="#525252" stroke-width="0.5" stroke-linecap="round" stroke-linejoin="round"/>
<rect x="599.5" y="107.5" width="30" height="31" rx="6" fill="#FCFCFC" stroke="#DFDFDF" stroke-width="0.5"/>
<path d="M603.5 116.375C603.5 113.752 605.627 111.625 608.25 111.625H620.75C623.373 111.625 625.5 113.752 625.5 116.375V129.625C625.5 132.248 623.373 134.375 620.75 134.375H608.25C605.627 134.375 603.5 132.248 603.5 129.625V116.375Z" fill="white" stroke="#B2B2B2" stroke-width="0.5"/>
<path d="M614.711 123.484C614.97 123.484 615.18 123.268 615.18 123C615.18 122.732 614.97 122.516 614.711 122.516C614.453 122.516 614.243 122.732 614.243 123C614.243 123.268 614.453 123.484 614.711 123.484Z" stroke="#525252" stroke-width="0.5" stroke-linecap="round" stroke-linejoin="round"/>
<path d="M617.993 123.484C618.252 123.484 618.461 123.268 618.461 123C618.461 122.732 618.252 122.516 617.993 122.516C617.734 122.516 617.524 122.732 617.524 123C617.524 123.268 617.734 123.484 617.993 123.484Z" stroke="#525252" stroke-width="0.5" stroke-linecap="round" stroke-linejoin="round"/>
<path d="M611.43 123.484C611.689 123.484 611.899 123.268 611.899 123C611.899 122.732 611.689 122.516 611.43 122.516C611.171 122.516 610.961 122.732 610.961 123C610.961 123.268 611.171 123.484 611.43 123.484Z" stroke="#525252" stroke-width="0.5" stroke-linecap="round" stroke-linejoin="round"/>
<rect x="518.5" y="149.5" width="30" height="31" rx="6" fill="#FCFCFC" stroke="#DFDFDF" stroke-width="0.5"/>
<path d="M522.5 158.375C522.5 155.752 524.627 153.625 527.25 153.625H539.75C542.373 153.625 544.5 155.752 544.5 158.375V171.625C544.5 174.248 542.373 176.375 539.75 176.375H527.25C524.627 176.375 522.5 174.248 522.5 171.625V158.375Z" fill="white" stroke="#B2B2B2" stroke-width="0.5"/>
<path d="M533.711 165.484C533.97 165.484 534.18 165.268 534.18 165C534.18 164.732 533.97 164.516 533.711 164.516C533.453 164.516 533.243 164.732 533.243 165C533.243 165.268 533.453 165.484 533.711 165.484Z" stroke="#525252" stroke-width="0.5" stroke-linecap="round" stroke-linejoin="round"/>
<path d="M536.993 165.484C537.252 165.484 537.461 165.268 537.461 165C537.461 164.732 537.252 164.516 536.993 164.516C536.734 164.516 536.524 164.732 536.524 165C536.524 165.268 536.734 165.484 536.993 165.484Z" stroke="#525252" stroke-width="0.5" stroke-linecap="round" stroke-linejoin="round"/>
<path d="M530.43 165.484C530.689 165.484 530.899 165.268 530.899 165C530.899 164.732 530.689 164.516 530.43 164.516C530.171 164.516 529.961 164.732 529.961 165C529.961 165.268 530.171 165.484 530.43 165.484Z" stroke="#525252" stroke-width="0.5" stroke-linecap="round" stroke-linejoin="round"/>
<rect x="561.5" y="107.5" width="30" height="31" rx="6" fill="#FCFCFC" stroke="#DFDFDF" stroke-width="0.5"/>
<path d="M565.5 116.375C565.5 113.752 567.627 111.625 570.25 111.625H582.75C585.373 111.625 587.5 113.752 587.5 116.375V129.625C587.5 132.248 585.373 134.375 582.75 134.375H570.25C567.627 134.375 565.5 132.248 565.5 129.625V116.375Z" fill="white" stroke="#B2B2B2" stroke-width="0.5"/>
<path d="M576.711 123.484C576.97 123.484 577.18 123.268 577.18 123C577.18 122.732 576.97 122.516 576.711 122.516C576.453 122.516 576.243 122.732 576.243 123C576.243 123.268 576.453 123.484 576.711 123.484Z" stroke="#525252" stroke-width="0.5" stroke-linecap="round" stroke-linejoin="round"/>
<path d="M579.993 123.484C580.252 123.484 580.461 123.268 580.461 123C580.461 122.732 580.252 122.516 579.993 122.516C579.734 122.516 579.524 122.732 579.524 123C579.524 123.268 579.734 123.484 579.993 123.484Z" stroke="#525252" stroke-width="0.5" stroke-linecap="round" stroke-linejoin="round"/>
<path d="M573.43 123.484C573.689 123.484 573.899 123.268 573.899 123C573.899 122.732 573.689 122.516 573.43 122.516C573.171 122.516 572.961 122.732 572.961 123C572.961 123.268 573.171 123.484 573.43 123.484Z" stroke="#525252" stroke-width="0.5" stroke-linecap="round" stroke-linejoin="round"/>
<rect x="752.5" y="-7.5" width="30" height="31" rx="6" fill="#FCFCFC" stroke="#DFDFDF" stroke-width="0.5"/>
<path d="M756.5 1.375C756.5 -1.24835 758.627 -3.375 761.25 -3.375H773.75C776.373 -3.375 778.5 -1.24835 778.5 1.375V14.625C778.5 17.2484 776.373 19.375 773.75 19.375H761.25C758.627 19.375 756.5 17.2484 756.5 14.625V1.375Z" fill="white" stroke="#B2B2B2" stroke-width="0.5"/>
<path d="M764.43 8.48438C764.689 8.48438 764.899 8.26751 764.899 8C764.899 7.73249 764.689 7.51562 764.43 7.51562C764.171 7.51562 763.961 7.73249 763.961 8C763.961 8.26751 764.171 8.48438 764.43 8.48438Z" stroke="#525252" stroke-width="0.5" stroke-linecap="round" stroke-linejoin="round"/>
<rect x="752.5" y="107.5" width="30" height="31" rx="6" fill="#FCFCFC" stroke="#DFDFDF" stroke-width="0.5"/>
<path d="M756.5 116.375C756.5 113.752 758.627 111.625 761.25 111.625H773.75C776.373 111.625 778.5 113.752 778.5 116.375V129.625C778.5 132.248 776.373 134.375 773.75 134.375H761.25C758.627 134.375 756.5 132.248 756.5 129.625V116.375Z" fill="white" stroke="#B2B2B2" stroke-width="0.5"/>
<path d="M764.43 123.484C764.689 123.484 764.899 123.268 764.899 123C764.899 122.732 764.689 122.516 764.43 122.516C764.171 122.516 763.961 122.732 763.961 123C763.961 123.268 764.171 123.484 764.43 123.484Z" stroke="#525252" stroke-width="0.5" stroke-linecap="round" stroke-linejoin="round"/>
<rect x="637.5" y="31.5" width="31" height="30" rx="6" fill="#FCFCFC" stroke="#DFDFDF" stroke-width="0.5"/>
<path d="M641.625 40.25C641.625 37.6266 643.752 35.5 646.375 35.5H659.625C662.248 35.5 664.375 37.6266 664.375 40.25V52.75C664.375 55.3734 662.248 57.5 659.625 57.5H646.375C643.752 57.5 641.625 55.3734 641.625 52.75V40.25Z" fill="white" stroke="#B2B2B2" stroke-width="0.5"/>
<path d="M653.219 46.9688C653.486 46.9688 653.703 46.7589 653.703 46.5C653.703 46.2411 653.486 46.0312 653.219 46.0312C652.951 46.0312 652.734 46.2411 652.734 46.5C652.734 46.7589 652.951 46.9688 653.219 46.9688Z" stroke="#525252" stroke-width="0.5" stroke-linecap="round" stroke-linejoin="round"/>
<path d="M656.609 46.9688C656.877 46.9688 657.094 46.7589 657.094 46.5C657.094 46.2411 656.877 46.0312 656.609 46.0312C656.342 46.0312 656.125 46.2411 656.125 46.5C656.125 46.7589 656.342 46.9688 656.609 46.9688Z" stroke="#525252" stroke-width="0.5" stroke-linecap="round" stroke-linejoin="round"/>
<path d="M649.828 46.9688C650.095 46.9688 650.312 46.7589 650.312 46.5C650.312 46.2411 650.095 46.0312 649.828 46.0312C649.56 46.0312 649.344 46.2411 649.344 46.5C649.344 46.7589 649.56 46.9688 649.828 46.9688Z" stroke="#525252" stroke-width="0.5" stroke-linecap="round" stroke-linejoin="round"/>
<rect x="637.5" y="145.5" width="31" height="31" rx="6" fill="#FCFCFC" stroke="#DFDFDF" stroke-width="0.5"/>
<path d="M641.625 154.375C641.625 151.752 643.752 149.625 646.375 149.625H659.625C662.248 149.625 664.375 151.752 664.375 154.375V167.625C664.375 170.248 662.248 172.375 659.625 172.375H646.375C643.752 172.375 641.625 170.248 641.625 167.625V154.375Z" fill="white" stroke="#B2B2B2" stroke-width="0.5"/>
<path d="M653.219 161.484C653.486 161.484 653.703 161.268 653.703 161C653.703 160.732 653.486 160.516 653.219 160.516C652.951 160.516 652.734 160.732 652.734 161C652.734 161.268 652.951 161.484 653.219 161.484Z" stroke="#525252" stroke-width="0.5" stroke-linecap="round" stroke-linejoin="round"/>
<path d="M656.609 161.484C656.877 161.484 657.094 161.268 657.094 161C657.094 160.732 656.877 160.516 656.609 160.516C656.342 160.516 656.125 160.732 656.125 161C656.125 161.268 656.342 161.484 656.609 161.484Z" stroke="#525252" stroke-width="0.5" stroke-linecap="round" stroke-linejoin="round"/>
<path d="M649.828 161.484C650.095 161.484 650.312 161.268 650.312 161C650.312 160.732 650.095 160.516 649.828 160.516C649.56 160.516 649.344 160.732 649.344 161C649.344 161.268 649.56 161.484 649.828 161.484Z" stroke="#525252" stroke-width="0.5" stroke-linecap="round" stroke-linejoin="round"/>
<rect x="637.5" y="183.5" width="31" height="31" rx="6" fill="#FCFCFC" stroke="#DFDFDF" stroke-width="0.5"/>
<path d="M641.625 192.375C641.625 189.752 643.752 187.625 646.375 187.625H659.625C662.248 187.625 664.375 189.752 664.375 192.375V205.625C664.375 208.248 662.248 210.375 659.625 210.375H646.375C643.752 210.375 641.625 208.248 641.625 205.625V192.375Z" fill="white" stroke="#B2B2B2" stroke-width="0.5"/>
<path d="M653.219 199.484C653.486 199.484 653.703 199.268 653.703 199C653.703 198.732 653.486 198.516 653.219 198.516C652.951 198.516 652.734 198.732 652.734 199C652.734 199.268 652.951 199.484 653.219 199.484Z" stroke="#525252" stroke-width="0.5" stroke-linecap="round" stroke-linejoin="round"/>
<path d="M656.609 199.484C656.877 199.484 657.094 199.268 657.094 199C657.094 198.732 656.877 198.516 656.609 198.516C656.342 198.516 656.125 198.732 656.125 199C656.125 199.268 656.342 199.484 656.609 199.484Z" stroke="#525252" stroke-width="0.5" stroke-linecap="round" stroke-linejoin="round"/>
<path d="M649.828 199.484C650.095 199.484 650.312 199.268 650.312 199C650.312 198.732 650.095 198.516 649.828 198.516C649.56 198.516 649.344 198.732 649.344 199C649.344 199.268 649.56 199.484 649.828 199.484Z" stroke="#525252" stroke-width="0.5" stroke-linecap="round" stroke-linejoin="round"/>
<rect x="599.5" y="31.5" width="30" height="30" rx="6" fill="#FCFCFC" stroke="#DFDFDF" stroke-width="0.5"/>
<path d="M603.5 40.25C603.5 37.6266 605.627 35.5 608.25 35.5H620.75C623.373 35.5 625.5 37.6266 625.5 40.25V52.75C625.5 55.3734 623.373 57.5 620.75 57.5H608.25C605.627 57.5 603.5 55.3734 603.5 52.75V40.25Z" fill="white" stroke="#B2B2B2" stroke-width="0.5"/>
<path d="M614.711 46.9688C614.97 46.9688 615.18 46.7589 615.18 46.5C615.18 46.2411 614.97 46.0312 614.711 46.0312C614.453 46.0312 614.243 46.2411 614.243 46.5C614.243 46.7589 614.453 46.9688 614.711 46.9688Z" stroke="#525252" stroke-width="0.5" stroke-linecap="round" stroke-linejoin="round"/>
<path d="M617.993 46.9688C618.252 46.9688 618.461 46.7589 618.461 46.5C618.461 46.2411 618.252 46.0312 617.993 46.0312C617.734 46.0312 617.524 46.2411 617.524 46.5C617.524 46.7589 617.734 46.9688 617.993 46.9688Z" stroke="#525252" stroke-width="0.5" stroke-linecap="round" stroke-linejoin="round"/>
<path d="M611.43 46.9688C611.689 46.9688 611.899 46.7589 611.899 46.5C611.899 46.2411 611.689 46.0312 611.43 46.0312C611.171 46.0312 610.961 46.2411 610.961 46.5C610.961 46.7589 611.171 46.9688 611.43 46.9688Z" stroke="#525252" stroke-width="0.5" stroke-linecap="round" stroke-linejoin="round"/>
<rect x="599.5" y="145.5" width="30" height="31" rx="6" fill="#FCFCFC" stroke="#DFDFDF" stroke-width="0.5"/>
<path d="M603.5 154.375C603.5 151.752 605.627 149.625 608.25 149.625H620.75C623.373 149.625 625.5 151.752 625.5 154.375V167.625C625.5 170.248 623.373 172.375 620.75 172.375H608.25C605.627 172.375 603.5 170.248 603.5 167.625V154.375Z" fill="white" stroke="#B2B2B2" stroke-width="0.5"/>
<path d="M614.711 161.484C614.97 161.484 615.18 161.268 615.18 161C615.18 160.732 614.97 160.516 614.711 160.516C614.453 160.516 614.243 160.732 614.243 161C614.243 161.268 614.453 161.484 614.711 161.484Z" stroke="#525252" stroke-width="0.5" stroke-linecap="round" stroke-linejoin="round"/>
<path d="M617.993 161.484C618.252 161.484 618.461 161.268 618.461 161C618.461 160.732 618.252 160.516 617.993 160.516C617.734 160.516 617.524 160.732 617.524 161C617.524 161.268 617.734 161.484 617.993 161.484Z" stroke="#525252" stroke-width="0.5" stroke-linecap="round" stroke-linejoin="round"/>
<path d="M611.43 161.484C611.689 161.484 611.899 161.268 611.899 161C611.899 160.732 611.689 160.516 611.43 160.516C611.171 160.516 610.961 160.732 610.961 161C610.961 161.268 611.171 161.484 611.43 161.484Z" stroke="#525252" stroke-width="0.5" stroke-linecap="round" stroke-linejoin="round"/>
<rect x="599.5" y="183.5" width="30" height="31" rx="6" fill="#FCFCFC" stroke="#DFDFDF" stroke-width="0.5"/>
<path d="M603.5 192.375C603.5 189.752 605.627 187.625 608.25 187.625H620.75C623.373 187.625 625.5 189.752 625.5 192.375V205.625C625.5 208.248 623.373 210.375 620.75 210.375H608.25C605.627 210.375 603.5 208.248 603.5 205.625V192.375Z" fill="white" stroke="#B2B2B2" stroke-width="0.5"/>
<path d="M614.711 199.484C614.97 199.484 615.18 199.268 615.18 199C615.18 198.732 614.97 198.516 614.711 198.516C614.453 198.516 614.243 198.732 614.243 199C614.243 199.268 614.453 199.484 614.711 199.484Z" stroke="#525252" stroke-width="0.5" stroke-linecap="round" stroke-linejoin="round"/>
<path d="M617.993 199.484C618.252 199.484 618.461 199.268 618.461 199C618.461 198.732 618.252 198.516 617.993 198.516C617.734 198.516 617.524 198.732 617.524 199C617.524 199.268 617.734 199.484 617.993 199.484Z" stroke="#525252" stroke-width="0.5" stroke-linecap="round" stroke-linejoin="round"/>
<path d="M611.43 199.484C611.689 199.484 611.899 199.268 611.899 199C611.899 198.732 611.689 198.516 611.43 198.516C611.171 198.516 610.961 198.732 610.961 199C610.961 199.268 611.171 199.484 611.43 199.484Z" stroke="#525252" stroke-width="0.5" stroke-linecap="round" stroke-linejoin="round"/>
<rect x="752.5" y="31.5" width="30" height="30" rx="6" fill="#FCFCFC" stroke="#DFDFDF" stroke-width="0.5"/>
<path d="M756.5 40.25C756.5 37.6266 758.627 35.5 761.25 35.5H773.75C776.373 35.5 778.5 37.6266 778.5 40.25V52.75C778.5 55.3734 776.373 57.5 773.75 57.5H761.25C758.627 57.5 756.5 55.3734 756.5 52.75V40.25Z" fill="white" stroke="#B2B2B2" stroke-width="0.5"/>
<path d="M764.43 46.9688C764.689 46.9688 764.899 46.7589 764.899 46.5C764.899 46.2411 764.689 46.0312 764.43 46.0312C764.171 46.0312 763.961 46.2411 763.961 46.5C763.961 46.7589 764.171 46.9688 764.43 46.9688Z" stroke="#525252" stroke-width="0.5" stroke-linecap="round" stroke-linejoin="round"/>
<rect x="752.5" y="145.5" width="30" height="31" rx="6" fill="#FCFCFC" stroke="#DFDFDF" stroke-width="0.5"/>
<path d="M756.5 154.375C756.5 151.752 758.627 149.625 761.25 149.625H773.75C776.373 149.625 778.5 151.752 778.5 154.375V167.625C778.5 170.248 776.373 172.375 773.75 172.375H761.25C758.627 172.375 756.5 170.248 756.5 167.625V154.375Z" fill="white" stroke="#B2B2B2" stroke-width="0.5"/>
<path d="M764.43 161.484C764.689 161.484 764.899 161.268 764.899 161C764.899 160.732 764.689 160.516 764.43 160.516C764.171 160.516 763.961 160.732 763.961 161C763.961 161.268 764.171 161.484 764.43 161.484Z" stroke="#525252" stroke-width="0.5" stroke-linecap="round" stroke-linejoin="round"/>
<rect x="752.5" y="183.5" width="30" height="31" rx="6" fill="#FCFCFC" stroke="#DFDFDF" stroke-width="0.5"/>
<path d="M756.5 192.375C756.5 189.752 758.627 187.625 761.25 187.625H773.75C776.373 187.625 778.5 189.752 778.5 192.375V205.625C778.5 208.248 776.373 210.375 773.75 210.375H761.25C758.627 210.375 756.5 208.248 756.5 205.625V192.375Z" fill="white" stroke="#B2B2B2" stroke-width="0.5"/>
<path d="M764.43 199.484C764.689 199.484 764.899 199.268 764.899 199C764.899 198.732 764.689 198.516 764.43 198.516C764.171 198.516 763.961 198.732 763.961 199C763.961 199.268 764.171 199.484 764.43 199.484Z" stroke="#525252" stroke-width="0.5" stroke-linecap="round" stroke-linejoin="round"/>
<rect x="275" y="-0.671875" width="489" height="208" fill="url(#paint0_linear_729_66999)"/>
</g>
<defs>
<linearGradient id="paint0_linear_729_66999" x1="676.883" y1="114.328" x2="278.825" y2="111.093" gradientUnits="userSpaceOnUse">
<stop stop-color="#FBFCFD" stop-opacity="0"/>
<stop offset="1" stop-color="#FBFCFD"/>
</linearGradient>
<clipPath id="clip0_729_66999">
<rect width="764" height="208" fill="white"/>
</clipPath>
</defs>
</svg>
