<svg width="349" height="208" viewBox="0 0 349 208" fill="none" xmlns="http://www.w3.org/2000/svg">
<g clip-path="url(#clip0_763_7952)">
<rect width="349" height="208" fill="#FCFCFC"/>
<rect x="222.5" y="69.5" width="31" height="30" rx="6" fill="#FCFCFC" stroke="#DFDFDF" stroke-width="0.5"/>
<path d="M231.375 73.5H244.625C247.248 73.5 249.375 75.6266 249.375 78.25V90.75C249.375 93.3734 247.248 95.5 244.625 95.5H231.375C228.752 95.5 226.625 93.3734 226.625 90.75V78.25C226.625 75.6266 228.752 73.5 231.375 73.5Z" fill="white" stroke="#B2B2B2" stroke-width="0.5"/>
<path d="M238.219 84.9688C238.486 84.9688 238.703 84.7589 238.703 84.5C238.703 84.2411 238.486 84.0312 238.219 84.0312C237.951 84.0312 237.734 84.2411 237.734 84.5C237.734 84.7589 237.951 84.9688 238.219 84.9688Z" stroke="#525252" stroke-width="0.5" stroke-linecap="round" stroke-linejoin="round"/>
<path d="M241.609 84.9688C241.877 84.9688 242.094 84.7589 242.094 84.5C242.094 84.2411 241.877 84.0312 241.609 84.0312C241.342 84.0312 241.125 84.2411 241.125 84.5C241.125 84.7589 241.342 84.9688 241.609 84.9688Z" stroke="#525252" stroke-width="0.5" stroke-linecap="round" stroke-linejoin="round"/>
<path d="M234.828 84.9688C235.095 84.9688 235.312 84.7589 235.312 84.5C235.312 84.2411 235.095 84.0312 234.828 84.0312C234.56 84.0312 234.344 84.2411 234.344 84.5C234.344 84.7589 234.56 84.9688 234.828 84.9688Z" stroke="#525252" stroke-width="0.5" stroke-linecap="round" stroke-linejoin="round"/>
<rect x="184.5" y="69.5" width="30" height="30" rx="6" fill="#FCFCFC" stroke="#DFDFDF" stroke-width="0.5"/>
<path d="M193.25 73.5H205.75C208.373 73.5 210.5 75.6266 210.5 78.25V90.75C210.5 93.3734 208.373 95.5 205.75 95.5H193.25C190.627 95.5 188.5 93.3734 188.5 90.75V78.25C188.5 75.6266 190.627 73.5 193.25 73.5Z" fill="white" stroke="#B2B2B2" stroke-width="0.5"/>
<path d="M199.711 84.9688C199.97 84.9688 200.18 84.7589 200.18 84.5C200.18 84.2411 199.97 84.0312 199.711 84.0312C199.453 84.0312 199.243 84.2411 199.243 84.5C199.243 84.7589 199.453 84.9688 199.711 84.9688Z" stroke="#525252" stroke-width="0.5" stroke-linecap="round" stroke-linejoin="round"/>
<path d="M202.993 84.9688C203.252 84.9688 203.461 84.7589 203.461 84.5C203.461 84.2411 203.252 84.0312 202.993 84.0312C202.734 84.0312 202.524 84.2411 202.524 84.5C202.524 84.7589 202.734 84.9688 202.993 84.9688Z" stroke="#525252" stroke-width="0.5" stroke-linecap="round" stroke-linejoin="round"/>
<path d="M196.43 84.9688C196.689 84.9688 196.899 84.7589 196.899 84.5C196.899 84.2411 196.689 84.0312 196.43 84.0312C196.171 84.0312 195.961 84.2411 195.961 84.5C195.961 84.7589 196.171 84.9688 196.43 84.9688Z" stroke="#525252" stroke-width="0.5" stroke-linecap="round" stroke-linejoin="round"/>
<rect x="146.5" y="69.5" width="30" height="30" rx="6" fill="#FCFCFC" stroke="#DFDFDF" stroke-width="0.5"/>
<path d="M155.25 73.5H167.75C170.373 73.5 172.5 75.6266 172.5 78.25V90.75C172.5 93.3734 170.373 95.5 167.75 95.5H155.25C152.627 95.5 150.5 93.3734 150.5 90.75V78.25C150.5 75.6266 152.627 73.5 155.25 73.5Z" fill="white" stroke="#B2B2B2" stroke-width="0.5"/>
<path d="M161.711 84.9688C161.97 84.9688 162.18 84.7589 162.18 84.5C162.18 84.2411 161.97 84.0312 161.711 84.0312C161.453 84.0312 161.243 84.2411 161.243 84.5C161.243 84.7589 161.453 84.9688 161.711 84.9688Z" stroke="#525252" stroke-width="0.5" stroke-linecap="round" stroke-linejoin="round"/>
<path d="M164.993 84.9688C165.252 84.9688 165.461 84.7589 165.461 84.5C165.461 84.2411 165.252 84.0312 164.993 84.0312C164.734 84.0312 164.524 84.2411 164.524 84.5C164.524 84.7589 164.734 84.9688 164.993 84.9688Z" stroke="#525252" stroke-width="0.5" stroke-linecap="round" stroke-linejoin="round"/>
<path d="M158.43 84.9688C158.689 84.9688 158.899 84.7589 158.899 84.5C158.899 84.2411 158.689 84.0312 158.43 84.0312C158.171 84.0312 157.961 84.2411 157.961 84.5C157.961 84.7589 158.171 84.9688 158.43 84.9688Z" stroke="#525252" stroke-width="0.5" stroke-linecap="round" stroke-linejoin="round"/>
<rect x="108.5" y="69.5" width="31" height="30" rx="6" fill="#FCFCFC" stroke="#DFDFDF" stroke-width="0.5"/>
<path d="M117.375 73.5H130.625C133.248 73.5 135.375 75.6266 135.375 78.25V90.75C135.375 93.3734 133.248 95.5 130.625 95.5H117.375C114.752 95.5 112.625 93.3734 112.625 90.75V78.25C112.625 75.6266 114.752 73.5 117.375 73.5Z" fill="white" stroke="#B2B2B2" stroke-width="0.5"/>
<path d="M124.219 84.9688C124.486 84.9688 124.703 84.7589 124.703 84.5C124.703 84.2411 124.486 84.0312 124.219 84.0312C123.951 84.0312 123.734 84.2411 123.734 84.5C123.734 84.7589 123.951 84.9688 124.219 84.9688Z" stroke="#525252" stroke-width="0.5" stroke-linecap="round" stroke-linejoin="round"/>
<path d="M127.609 84.9688C127.877 84.9688 128.094 84.7589 128.094 84.5C128.094 84.2411 127.877 84.0312 127.609 84.0312C127.342 84.0312 127.125 84.2411 127.125 84.5C127.125 84.7589 127.342 84.9688 127.609 84.9688Z" stroke="#525252" stroke-width="0.5" stroke-linecap="round" stroke-linejoin="round"/>
<path d="M120.828 84.9688C121.095 84.9688 121.312 84.7589 121.312 84.5C121.312 84.2411 121.095 84.0312 120.828 84.0312C120.56 84.0312 120.344 84.2411 120.344 84.5C120.344 84.7589 120.56 84.9688 120.828 84.9688Z" stroke="#525252" stroke-width="0.5" stroke-linecap="round" stroke-linejoin="round"/>
<rect x="108.5" y="31.5" width="31" height="30" rx="6" fill="#FCFCFC" stroke="#DFDFDF" stroke-width="0.5"/>
<path d="M117.375 35.5H130.625C133.248 35.5 135.375 37.6266 135.375 40.25V52.75C135.375 55.3734 133.248 57.5 130.625 57.5H117.375C114.752 57.5 112.625 55.3734 112.625 52.75V40.25C112.625 37.6266 114.752 35.5 117.375 35.5Z" fill="white" stroke="#B2B2B2" stroke-width="0.5"/>
<path d="M124.219 46.9688C124.486 46.9688 124.703 46.7589 124.703 46.5C124.703 46.2411 124.486 46.0312 124.219 46.0312C123.951 46.0312 123.734 46.2411 123.734 46.5C123.734 46.7589 123.951 46.9688 124.219 46.9688Z" stroke="#525252" stroke-width="0.5" stroke-linecap="round" stroke-linejoin="round"/>
<path d="M127.609 46.9688C127.877 46.9688 128.094 46.7589 128.094 46.5C128.094 46.2411 127.877 46.0312 127.609 46.0312C127.342 46.0312 127.125 46.2411 127.125 46.5C127.125 46.7589 127.342 46.9688 127.609 46.9688Z" stroke="#525252" stroke-width="0.5" stroke-linecap="round" stroke-linejoin="round"/>
<path d="M120.828 46.9688C121.095 46.9688 121.312 46.7589 121.312 46.5C121.312 46.2411 121.095 46.0312 120.828 46.0312C120.56 46.0312 120.344 46.2411 120.344 46.5C120.344 46.7589 120.56 46.9688 120.828 46.9688Z" stroke="#525252" stroke-width="0.5" stroke-linecap="round" stroke-linejoin="round"/>
<rect x="71.5" y="69.5" width="30" height="30" rx="6" fill="#FCFCFC" stroke="#DFDFDF" stroke-width="0.5"/>
<path d="M80.25 73.5H92.75C95.3734 73.5 97.5 75.6266 97.5 78.25V90.75C97.5 93.3734 95.3734 95.5 92.75 95.5H80.25C77.6266 95.5 75.5 93.3734 75.5 90.75V78.25C75.5 75.6266 77.6266 73.5 80.25 73.5Z" fill="white" stroke="#B2B2B2" stroke-width="0.5"/>
<path d="M86.7114 84.9688C86.9703 84.9688 87.1802 84.7589 87.1802 84.5C87.1802 84.2411 86.9703 84.0312 86.7114 84.0312C86.4525 84.0312 86.2427 84.2411 86.2427 84.5C86.2427 84.7589 86.4525 84.9688 86.7114 84.9688Z" stroke="#525252" stroke-width="0.5" stroke-linecap="round" stroke-linejoin="round"/>
<path d="M89.9927 84.9688C90.2516 84.9688 90.4614 84.7589 90.4614 84.5C90.4614 84.2411 90.2516 84.0312 89.9927 84.0312C89.7338 84.0312 89.5239 84.2411 89.5239 84.5C89.5239 84.7589 89.7338 84.9688 89.9927 84.9688Z" stroke="#525252" stroke-width="0.5" stroke-linecap="round" stroke-linejoin="round"/>
<path d="M83.4302 84.9688C83.6891 84.9688 83.8989 84.7589 83.8989 84.5C83.8989 84.2411 83.6891 84.0312 83.4302 84.0312C83.1713 84.0312 82.9614 84.2411 82.9614 84.5C82.9614 84.7589 83.1713 84.9688 83.4302 84.9688Z" stroke="#525252" stroke-width="0.5" stroke-linecap="round" stroke-linejoin="round"/>
<rect x="71.5" y="107.5" width="30" height="31" rx="6" fill="#FCFCFC" stroke="#DFDFDF" stroke-width="0.5"/>
<path d="M80.25 111.625H92.75C95.3734 111.625 97.5 113.752 97.5 116.375V129.625C97.5 132.248 95.3734 134.375 92.75 134.375H80.25C77.6266 134.375 75.5 132.248 75.5 129.625V116.375C75.5 113.752 77.6266 111.625 80.25 111.625Z" fill="white" stroke="#B2B2B2" stroke-width="0.5"/>
<path d="M86.7114 123.484C86.9703 123.484 87.1802 123.268 87.1802 123C87.1802 122.732 86.9703 122.516 86.7114 122.516C86.4525 122.516 86.2427 122.732 86.2427 123C86.2427 123.268 86.4525 123.484 86.7114 123.484Z" stroke="#525252" stroke-width="0.5" stroke-linecap="round" stroke-linejoin="round"/>
<path d="M89.9927 123.484C90.2516 123.484 90.4614 123.268 90.4614 123C90.4614 122.732 90.2516 122.516 89.9927 122.516C89.7338 122.516 89.5239 122.732 89.5239 123C89.5239 123.268 89.7338 123.484 89.9927 123.484Z" stroke="#525252" stroke-width="0.5" stroke-linecap="round" stroke-linejoin="round"/>
<path d="M83.4302 123.484C83.6891 123.484 83.8989 123.268 83.8989 123C83.8989 122.732 83.6891 122.516 83.4302 122.516C83.1713 122.516 82.9614 122.732 82.9614 123C82.9614 123.268 83.1713 123.484 83.4302 123.484Z" stroke="#525252" stroke-width="0.5" stroke-linecap="round" stroke-linejoin="round"/>
<rect x="32.5" y="69.5" width="31" height="30" rx="6" fill="#FCFCFC" stroke="#DFDFDF" stroke-width="0.5"/>
<path d="M41.375 73.5H54.625C57.2484 73.5 59.375 75.6266 59.375 78.25V90.75C59.375 93.3734 57.2484 95.5 54.625 95.5H41.375C38.7516 95.5 36.625 93.3734 36.625 90.75V78.25C36.625 75.6266 38.7516 73.5 41.375 73.5Z" fill="white" stroke="#B2B2B2" stroke-width="0.5"/>
<path d="M48.2185 84.9688C48.486 84.9688 48.7029 84.7589 48.7029 84.5C48.7029 84.2411 48.486 84.0312 48.2185 84.0312C47.951 84.0312 47.7341 84.2411 47.7341 84.5C47.7341 84.7589 47.951 84.9688 48.2185 84.9688Z" stroke="#525252" stroke-width="0.5" stroke-linecap="round" stroke-linejoin="round"/>
<path d="M51.6091 84.9688C51.8766 84.9688 52.0935 84.7589 52.0935 84.5C52.0935 84.2411 51.8766 84.0312 51.6091 84.0312C51.3416 84.0312 51.1248 84.2411 51.1248 84.5C51.1248 84.7589 51.3416 84.9688 51.6091 84.9688Z" stroke="#525252" stroke-width="0.5" stroke-linecap="round" stroke-linejoin="round"/>
<path d="M44.8279 84.9688C45.0954 84.9688 45.3123 84.7589 45.3123 84.5C45.3123 84.2411 45.0954 84.0312 44.8279 84.0312C44.5604 84.0312 44.3435 84.2411 44.3435 84.5C44.3435 84.7589 44.5604 84.9688 44.8279 84.9688Z" stroke="#525252" stroke-width="0.5" stroke-linecap="round" stroke-linejoin="round"/>
<rect x="32.5" y="31.5" width="31" height="30" rx="6" fill="#FCFCFC" stroke="#DFDFDF" stroke-width="0.5"/>
<path d="M41.375 35.5H54.625C57.2484 35.5 59.375 37.6266 59.375 40.25V52.75C59.375 55.3734 57.2484 57.5 54.625 57.5H41.375C38.7516 57.5 36.625 55.3734 36.625 52.75V40.25C36.625 37.6266 38.7516 35.5 41.375 35.5Z" fill="white" stroke="#B2B2B2" stroke-width="0.5"/>
<path d="M48.2185 46.9688C48.486 46.9688 48.7029 46.7589 48.7029 46.5C48.7029 46.2411 48.486 46.0312 48.2185 46.0312C47.951 46.0312 47.7341 46.2411 47.7341 46.5C47.7341 46.7589 47.951 46.9688 48.2185 46.9688Z" stroke="#525252" stroke-width="0.5" stroke-linecap="round" stroke-linejoin="round"/>
<path d="M51.6091 46.9688C51.8766 46.9688 52.0935 46.7589 52.0935 46.5C52.0935 46.2411 51.8766 46.0312 51.6091 46.0312C51.3416 46.0312 51.1248 46.2411 51.1248 46.5C51.1248 46.7589 51.3416 46.9688 51.6091 46.9688Z" stroke="#525252" stroke-width="0.5" stroke-linecap="round" stroke-linejoin="round"/>
<path d="M44.8279 46.9688C45.0954 46.9688 45.3123 46.7589 45.3123 46.5C45.3123 46.2411 45.0954 46.0312 44.8279 46.0312C44.5604 46.0312 44.3435 46.2411 44.3435 46.5C44.3435 46.7589 44.5604 46.9688 44.8279 46.9688Z" stroke="#525252" stroke-width="0.5" stroke-linecap="round" stroke-linejoin="round"/>
<rect x="-5.5" y="31.5" width="30" height="30" rx="6" fill="#FCFCFC" stroke="#DFDFDF" stroke-width="0.5"/>
<path d="M3.25 35.5H15.75C18.3734 35.5 20.5 37.6266 20.5 40.25V52.75C20.5 55.3734 18.3734 57.5 15.75 57.5H3.25C0.626647 57.5 -1.5 55.3734 -1.5 52.75V40.25C-1.5 37.6266 0.626647 35.5 3.25 35.5Z" fill="white" stroke="#B2B2B2" stroke-width="0.5"/>
<path d="M9.71143 46.9688C9.97031 46.9688 10.1802 46.7589 10.1802 46.5C10.1802 46.2411 9.97031 46.0312 9.71143 46.0312C9.45254 46.0312 9.24268 46.2411 9.24268 46.5C9.24268 46.7589 9.45254 46.9688 9.71143 46.9688Z" stroke="#525252" stroke-width="0.5" stroke-linecap="round" stroke-linejoin="round"/>
<path d="M12.9927 46.9688C13.2516 46.9688 13.4614 46.7589 13.4614 46.5C13.4614 46.2411 13.2516 46.0312 12.9927 46.0312C12.7338 46.0312 12.5239 46.2411 12.5239 46.5C12.5239 46.7589 12.7338 46.9688 12.9927 46.9688Z" stroke="#525252" stroke-width="0.5" stroke-linecap="round" stroke-linejoin="round"/>
<path d="M6.43018 46.9688C6.68906 46.9688 6.89893 46.7589 6.89893 46.5C6.89893 46.2411 6.68906 46.0312 6.43018 46.0312C6.17129 46.0312 5.96143 46.2411 5.96143 46.5C5.96143 46.7589 6.17129 46.9688 6.43018 46.9688Z" stroke="#525252" stroke-width="0.5" stroke-linecap="round" stroke-linejoin="round"/>
<rect x="337.5" y="69.5" width="30" height="30" rx="6" fill="#FCFCFC" stroke="#DFDFDF" stroke-width="0.5"/>
<path d="M346.25 73.5H358.75C361.373 73.5 363.5 75.6266 363.5 78.25V90.75C363.5 93.3734 361.373 95.5 358.75 95.5H346.25C343.627 95.5 341.5 93.3734 341.5 90.75V78.25C341.5 75.6266 343.627 73.5 346.25 73.5Z" fill="white" stroke="#B2B2B2" stroke-width="0.5"/>
<path d="M349.43 84.9688C349.689 84.9688 349.899 84.7589 349.899 84.5C349.899 84.2411 349.689 84.0312 349.43 84.0312C349.171 84.0312 348.961 84.2411 348.961 84.5C348.961 84.7589 349.171 84.9688 349.43 84.9688Z" stroke="#525252" stroke-width="0.5" stroke-linecap="round" stroke-linejoin="round"/>
<rect x="260.5" y="69.5" width="31" height="30" rx="6" fill="#FCFCFC" stroke="#DFDFDF" stroke-width="0.5"/>
<path d="M269.375 73.5H282.625C285.248 73.5 287.375 75.6266 287.375 78.25V90.75C287.375 93.3734 285.248 95.5 282.625 95.5H269.375C266.752 95.5 264.625 93.3734 264.625 90.75V78.25C264.625 75.6266 266.752 73.5 269.375 73.5Z" fill="white" stroke="#B2B2B2" stroke-width="0.5"/>
<path d="M276.219 84.9688C276.486 84.9688 276.703 84.7589 276.703 84.5C276.703 84.2411 276.486 84.0312 276.219 84.0312C275.951 84.0312 275.734 84.2411 275.734 84.5C275.734 84.7589 275.951 84.9688 276.219 84.9688Z" stroke="#525252" stroke-width="0.5" stroke-linecap="round" stroke-linejoin="round"/>
<path d="M279.609 84.9688C279.877 84.9688 280.094 84.7589 280.094 84.5C280.094 84.2411 279.877 84.0312 279.609 84.0312C279.342 84.0312 279.125 84.2411 279.125 84.5C279.125 84.7589 279.342 84.9688 279.609 84.9688Z" stroke="#525252" stroke-width="0.5" stroke-linecap="round" stroke-linejoin="round"/>
<path d="M272.828 84.9688C273.095 84.9688 273.312 84.7589 273.312 84.5C273.312 84.2411 273.095 84.0312 272.828 84.0312C272.56 84.0312 272.344 84.2411 272.344 84.5C272.344 84.7589 272.56 84.9688 272.828 84.9688Z" stroke="#525252" stroke-width="0.5" stroke-linecap="round" stroke-linejoin="round"/>
<rect x="260.5" y="-7.5" width="31" height="31" rx="6" fill="#FCFCFC" stroke="#DFDFDF" stroke-width="0.5"/>
<path d="M269.375 -3.375H282.625C285.248 -3.375 287.375 -1.24835 287.375 1.375V14.625C287.375 17.2484 285.248 19.375 282.625 19.375H269.375C266.752 19.375 264.625 17.2484 264.625 14.625V1.375C264.625 -1.24835 266.752 -3.375 269.375 -3.375Z" fill="white" stroke="#B2B2B2" stroke-width="0.5"/>
<path d="M276.219 8.48438C276.486 8.48438 276.703 8.26751 276.703 8C276.703 7.73249 276.486 7.51562 276.219 7.51562C275.951 7.51562 275.734 7.73249 275.734 8C275.734 8.26751 275.951 8.48438 276.219 8.48438Z" stroke="#525252" stroke-width="0.5" stroke-linecap="round" stroke-linejoin="round"/>
<path d="M279.609 8.48438C279.877 8.48438 280.094 8.26751 280.094 8C280.094 7.73249 279.877 7.51562 279.609 7.51562C279.342 7.51562 279.125 7.73249 279.125 8C279.125 8.26751 279.342 8.48438 279.609 8.48438Z" stroke="#525252" stroke-width="0.5" stroke-linecap="round" stroke-linejoin="round"/>
<path d="M272.828 8.48438C273.095 8.48438 273.312 8.26751 273.312 8C273.312 7.73249 273.095 7.51562 272.828 7.51562C272.56 7.51562 272.344 7.73249 272.344 8C272.344 8.26751 272.56 8.48438 272.828 8.48438Z" stroke="#525252" stroke-width="0.5" stroke-linecap="round" stroke-linejoin="round"/>
<rect x="260.5" y="107.5" width="31" height="31" rx="6" fill="#FCFCFC" stroke="#DFDFDF" stroke-width="0.5"/>
<path d="M269.375 111.625H282.625C285.248 111.625 287.375 113.752 287.375 116.375V129.625C287.375 132.248 285.248 134.375 282.625 134.375H269.375C266.752 134.375 264.625 132.248 264.625 129.625V116.375C264.625 113.752 266.752 111.625 269.375 111.625Z" fill="white" stroke="#B2B2B2" stroke-width="0.5"/>
<path d="M276.219 123.484C276.486 123.484 276.703 123.268 276.703 123C276.703 122.732 276.486 122.516 276.219 122.516C275.951 122.516 275.734 122.732 275.734 123C275.734 123.268 275.951 123.484 276.219 123.484Z" stroke="#525252" stroke-width="0.5" stroke-linecap="round" stroke-linejoin="round"/>
<path d="M279.609 123.484C279.877 123.484 280.094 123.268 280.094 123C280.094 122.732 279.877 122.516 279.609 122.516C279.342 122.516 279.125 122.732 279.125 123C279.125 123.268 279.342 123.484 279.609 123.484Z" stroke="#525252" stroke-width="0.5" stroke-linecap="round" stroke-linejoin="round"/>
<path d="M272.828 123.484C273.095 123.484 273.312 123.268 273.312 123C273.312 122.732 273.095 122.516 272.828 122.516C272.56 122.516 272.344 122.732 272.344 123C272.344 123.268 272.56 123.484 272.828 123.484Z" stroke="#525252" stroke-width="0.5" stroke-linecap="round" stroke-linejoin="round"/>
<rect x="260.5" y="31.5" width="31" height="30" rx="6" fill="#FCFCFC" stroke="#DFDFDF" stroke-width="0.5"/>
<path d="M269.375 35.5H282.625C285.248 35.5 287.375 37.6266 287.375 40.25V52.75C287.375 55.3734 285.248 57.5 282.625 57.5H269.375C266.752 57.5 264.625 55.3734 264.625 52.75V40.25C264.625 37.6266 266.752 35.5 269.375 35.5Z" fill="white" stroke="#B2B2B2" stroke-width="0.5"/>
<path d="M276.219 46.9688C276.486 46.9688 276.703 46.7589 276.703 46.5C276.703 46.2411 276.486 46.0312 276.219 46.0312C275.951 46.0312 275.734 46.2411 275.734 46.5C275.734 46.7589 275.951 46.9688 276.219 46.9688Z" stroke="#525252" stroke-width="0.5" stroke-linecap="round" stroke-linejoin="round"/>
<path d="M279.609 46.9688C279.877 46.9688 280.094 46.7589 280.094 46.5C280.094 46.2411 279.877 46.0312 279.609 46.0312C279.342 46.0312 279.125 46.2411 279.125 46.5C279.125 46.7589 279.342 46.9688 279.609 46.9688Z" stroke="#525252" stroke-width="0.5" stroke-linecap="round" stroke-linejoin="round"/>
<path d="M272.828 46.9688C273.095 46.9688 273.312 46.7589 273.312 46.5C273.312 46.2411 273.095 46.0312 272.828 46.0312C272.56 46.0312 272.344 46.2411 272.344 46.5C272.344 46.7589 272.56 46.9688 272.828 46.9688Z" stroke="#525252" stroke-width="0.5" stroke-linecap="round" stroke-linejoin="round"/>
<rect x="260.5" y="145.5" width="31" height="31" rx="6" fill="#FCFCFC" stroke="#DFDFDF" stroke-width="0.5"/>
<path d="M269.375 149.625H282.625C285.248 149.625 287.375 151.752 287.375 154.375V167.625C287.375 170.248 285.248 172.375 282.625 172.375H269.375C266.752 172.375 264.625 170.248 264.625 167.625V154.375C264.625 151.752 266.752 149.625 269.375 149.625Z" fill="white" stroke="#B2B2B2" stroke-width="0.5"/>
<path d="M276.219 161.484C276.486 161.484 276.703 161.268 276.703 161C276.703 160.732 276.486 160.516 276.219 160.516C275.951 160.516 275.734 160.732 275.734 161C275.734 161.268 275.951 161.484 276.219 161.484Z" stroke="#525252" stroke-width="0.5" stroke-linecap="round" stroke-linejoin="round"/>
<path d="M279.609 161.484C279.877 161.484 280.094 161.268 280.094 161C280.094 160.732 279.877 160.516 279.609 160.516C279.342 160.516 279.125 160.732 279.125 161C279.125 161.268 279.342 161.484 279.609 161.484Z" stroke="#525252" stroke-width="0.5" stroke-linecap="round" stroke-linejoin="round"/>
<path d="M272.828 161.484C273.095 161.484 273.312 161.268 273.312 161C273.312 160.732 273.095 160.516 272.828 160.516C272.56 160.516 272.344 160.732 272.344 161C272.344 161.268 272.56 161.484 272.828 161.484Z" stroke="#525252" stroke-width="0.5" stroke-linecap="round" stroke-linejoin="round"/>
<rect x="260.5" y="183.5" width="31" height="31" rx="6" fill="#FCFCFC" stroke="#DFDFDF" stroke-width="0.5"/>
<path d="M269.375 187.625H282.625C285.248 187.625 287.375 189.752 287.375 192.375V205.625C287.375 208.248 285.248 210.375 282.625 210.375H269.375C266.752 210.375 264.625 208.248 264.625 205.625V192.375C264.625 189.752 266.752 187.625 269.375 187.625Z" fill="white" stroke="#B2B2B2" stroke-width="0.5"/>
<path d="M276.219 199.484C276.486 199.484 276.703 199.268 276.703 199C276.703 198.732 276.486 198.516 276.219 198.516C275.951 198.516 275.734 198.732 275.734 199C275.734 199.268 275.951 199.484 276.219 199.484Z" stroke="#525252" stroke-width="0.5" stroke-linecap="round" stroke-linejoin="round"/>
<path d="M279.609 199.484C279.877 199.484 280.094 199.268 280.094 199C280.094 198.732 279.877 198.516 279.609 198.516C279.342 198.516 279.125 198.732 279.125 199C279.125 199.268 279.342 199.484 279.609 199.484Z" stroke="#525252" stroke-width="0.5" stroke-linecap="round" stroke-linejoin="round"/>
<path d="M272.828 199.484C273.095 199.484 273.312 199.268 273.312 199C273.312 198.732 273.095 198.516 272.828 198.516C272.56 198.516 272.344 198.732 272.344 199C272.344 199.268 272.56 199.484 272.828 199.484Z" stroke="#525252" stroke-width="0.5" stroke-linecap="round" stroke-linejoin="round"/>
<rect x="298.5" y="31.5" width="31" height="30" rx="6" fill="#FCFCFC" stroke="#DFDFDF" stroke-width="0.5"/>
<path d="M307.375 35.5H320.625C323.248 35.5 325.375 37.6266 325.375 40.25V52.75C325.375 55.3734 323.248 57.5 320.625 57.5H307.375C304.752 57.5 302.625 55.3734 302.625 52.75V40.25C302.625 37.6266 304.752 35.5 307.375 35.5Z" fill="white" stroke="#B2B2B2" stroke-width="0.5"/>
<path d="M314.219 46.9688C314.486 46.9688 314.703 46.7589 314.703 46.5C314.703 46.2411 314.486 46.0312 314.219 46.0312C313.951 46.0312 313.734 46.2411 313.734 46.5C313.734 46.7589 313.951 46.9688 314.219 46.9688Z" stroke="#525252" stroke-width="0.5" stroke-linecap="round" stroke-linejoin="round"/>
<path d="M317.609 46.9688C317.877 46.9688 318.094 46.7589 318.094 46.5C318.094 46.2411 317.877 46.0312 317.609 46.0312C317.342 46.0312 317.125 46.2411 317.125 46.5C317.125 46.7589 317.342 46.9688 317.609 46.9688Z" stroke="#525252" stroke-width="0.5" stroke-linecap="round" stroke-linejoin="round"/>
<path d="M310.828 46.9688C311.095 46.9688 311.312 46.7589 311.312 46.5C311.312 46.2411 311.095 46.0312 310.828 46.0312C310.56 46.0312 310.344 46.2411 310.344 46.5C310.344 46.7589 310.56 46.9688 310.828 46.9688Z" stroke="#525252" stroke-width="0.5" stroke-linecap="round" stroke-linejoin="round"/>
<rect x="298.5" y="145.5" width="31" height="31" rx="6" fill="#FCFCFC" stroke="#DFDFDF" stroke-width="0.5"/>
<path d="M307.375 149.625H320.625C323.248 149.625 325.375 151.752 325.375 154.375V167.625C325.375 170.248 323.248 172.375 320.625 172.375H307.375C304.752 172.375 302.625 170.248 302.625 167.625V154.375C302.625 151.752 304.752 149.625 307.375 149.625Z" fill="white" stroke="#B2B2B2" stroke-width="0.5"/>
<path d="M314.219 161.484C314.486 161.484 314.703 161.268 314.703 161C314.703 160.732 314.486 160.516 314.219 160.516C313.951 160.516 313.734 160.732 313.734 161C313.734 161.268 313.951 161.484 314.219 161.484Z" stroke="#525252" stroke-width="0.5" stroke-linecap="round" stroke-linejoin="round"/>
<path d="M317.609 161.484C317.877 161.484 318.094 161.268 318.094 161C318.094 160.732 317.877 160.516 317.609 160.516C317.342 160.516 317.125 160.732 317.125 161C317.125 161.268 317.342 161.484 317.609 161.484Z" stroke="#525252" stroke-width="0.5" stroke-linecap="round" stroke-linejoin="round"/>
<path d="M310.828 161.484C311.095 161.484 311.312 161.268 311.312 161C311.312 160.732 311.095 160.516 310.828 160.516C310.56 160.516 310.344 160.732 310.344 161C310.344 161.268 310.56 161.484 310.828 161.484Z" stroke="#525252" stroke-width="0.5" stroke-linecap="round" stroke-linejoin="round"/>
<rect x="298.5" y="183.5" width="31" height="31" rx="6" fill="#FCFCFC" stroke="#DFDFDF" stroke-width="0.5"/>
<path d="M307.375 187.625H320.625C323.248 187.625 325.375 189.752 325.375 192.375V205.625C325.375 208.248 323.248 210.375 320.625 210.375H307.375C304.752 210.375 302.625 208.248 302.625 205.625V192.375C302.625 189.752 304.752 187.625 307.375 187.625Z" fill="white" stroke="#B2B2B2" stroke-width="0.5"/>
<path d="M314.219 199.484C314.486 199.484 314.703 199.268 314.703 199C314.703 198.732 314.486 198.516 314.219 198.516C313.951 198.516 313.734 198.732 313.734 199C313.734 199.268 313.951 199.484 314.219 199.484Z" stroke="#525252" stroke-width="0.5" stroke-linecap="round" stroke-linejoin="round"/>
<path d="M317.609 199.484C317.877 199.484 318.094 199.268 318.094 199C318.094 198.732 317.877 198.516 317.609 198.516C317.342 198.516 317.125 198.732 317.125 199C317.125 199.268 317.342 199.484 317.609 199.484Z" stroke="#525252" stroke-width="0.5" stroke-linecap="round" stroke-linejoin="round"/>
<path d="M310.828 199.484C311.095 199.484 311.312 199.268 311.312 199C311.312 198.732 311.095 198.516 310.828 198.516C310.56 198.516 310.344 198.732 310.344 199C310.344 199.268 310.56 199.484 310.828 199.484Z" stroke="#525252" stroke-width="0.5" stroke-linecap="round" stroke-linejoin="round"/>
<rect x="298.5" y="-7.5" width="31" height="31" rx="6" fill="#FCFCFC" stroke="#DFDFDF" stroke-width="0.5"/>
<path d="M307.375 -3.375H320.625C323.248 -3.375 325.375 -1.24835 325.375 1.375V14.625C325.375 17.2484 323.248 19.375 320.625 19.375H307.375C304.752 19.375 302.625 17.2484 302.625 14.625V1.375C302.625 -1.24835 304.752 -3.375 307.375 -3.375Z" fill="white" stroke="#B2B2B2" stroke-width="0.5"/>
<path d="M314.219 8.48438C314.486 8.48438 314.703 8.26751 314.703 8C314.703 7.73249 314.486 7.51562 314.219 7.51562C313.951 7.51562 313.734 7.73249 313.734 8C313.734 8.26751 313.951 8.48438 314.219 8.48438Z" stroke="#525252" stroke-width="0.5" stroke-linecap="round" stroke-linejoin="round"/>
<path d="M317.609 8.48438C317.877 8.48438 318.094 8.26751 318.094 8C318.094 7.73249 317.877 7.51562 317.609 7.51562C317.342 7.51562 317.125 7.73249 317.125 8C317.125 8.26751 317.342 8.48438 317.609 8.48438Z" stroke="#525252" stroke-width="0.5" stroke-linecap="round" stroke-linejoin="round"/>
<path d="M310.828 8.48438C311.095 8.48438 311.312 8.26751 311.312 8C311.312 7.73249 311.095 7.51562 310.828 7.51562C310.56 7.51562 310.344 7.73249 310.344 8C310.344 8.26751 310.56 8.48438 310.828 8.48438Z" stroke="#525252" stroke-width="0.5" stroke-linecap="round" stroke-linejoin="round"/>
<rect x="298.5" y="107.5" width="31" height="31" rx="6" fill="#FCFCFC" stroke="#DFDFDF" stroke-width="0.5"/>
<path d="M307.375 111.625H320.625C323.248 111.625 325.375 113.752 325.375 116.375V129.625C325.375 132.248 323.248 134.375 320.625 134.375H307.375C304.752 134.375 302.625 132.248 302.625 129.625V116.375C302.625 113.752 304.752 111.625 307.375 111.625Z" fill="white" stroke="#B2B2B2" stroke-width="0.5"/>
<path d="M314.219 123.484C314.486 123.484 314.703 123.268 314.703 123C314.703 122.732 314.486 122.516 314.219 122.516C313.951 122.516 313.734 122.732 313.734 123C313.734 123.268 313.951 123.484 314.219 123.484Z" stroke="#525252" stroke-width="0.5" stroke-linecap="round" stroke-linejoin="round"/>
<path d="M317.609 123.484C317.877 123.484 318.094 123.268 318.094 123C318.094 122.732 317.877 122.516 317.609 122.516C317.342 122.516 317.125 122.732 317.125 123C317.125 123.268 317.342 123.484 317.609 123.484Z" stroke="#525252" stroke-width="0.5" stroke-linecap="round" stroke-linejoin="round"/>
<path d="M310.828 123.484C311.095 123.484 311.312 123.268 311.312 123C311.312 122.732 311.095 122.516 310.828 122.516C310.56 122.516 310.344 122.732 310.344 123C310.344 123.268 310.56 123.484 310.828 123.484Z" stroke="#525252" stroke-width="0.5" stroke-linecap="round" stroke-linejoin="round"/>
<rect x="298.5" y="69.5" width="31" height="30" rx="6" fill="#FCFCFC" stroke="#DFDFDF" stroke-width="0.5"/>
<path d="M307.375 73.5H320.625C323.248 73.5 325.375 75.6266 325.375 78.25V90.75C325.375 93.3734 323.248 95.5 320.625 95.5H307.375C304.752 95.5 302.625 93.3734 302.625 90.75V78.25C302.625 75.6266 304.752 73.5 307.375 73.5Z" fill="white" stroke="#B2B2B2" stroke-width="0.5"/>
<path d="M314.219 84.9688C314.486 84.9688 314.703 84.7589 314.703 84.5C314.703 84.2411 314.486 84.0312 314.219 84.0312C313.951 84.0312 313.734 84.2411 313.734 84.5C313.734 84.7589 313.951 84.9688 314.219 84.9688Z" stroke="#525252" stroke-width="0.5" stroke-linecap="round" stroke-linejoin="round"/>
<path d="M317.609 84.9688C317.877 84.9688 318.094 84.7589 318.094 84.5C318.094 84.2411 317.877 84.0312 317.609 84.0312C317.342 84.0312 317.125 84.2411 317.125 84.5C317.125 84.7589 317.342 84.9688 317.609 84.9688Z" stroke="#525252" stroke-width="0.5" stroke-linecap="round" stroke-linejoin="round"/>
<path d="M310.828 84.9688C311.095 84.9688 311.312 84.7589 311.312 84.5C311.312 84.2411 311.095 84.0312 310.828 84.0312C310.56 84.0312 310.344 84.2411 310.344 84.5C310.344 84.7589 310.56 84.9688 310.828 84.9688Z" stroke="#525252" stroke-width="0.5" stroke-linecap="round" stroke-linejoin="round"/>
<rect x="222.5" y="-7.5" width="31" height="31" rx="6" fill="#FCFCFC" stroke="#DFDFDF" stroke-width="0.5"/>
<path d="M231.375 -3.375H244.625C247.248 -3.375 249.375 -1.24835 249.375 1.375V14.625C249.375 17.2484 247.248 19.375 244.625 19.375H231.375C228.752 19.375 226.625 17.2484 226.625 14.625V1.375C226.625 -1.24835 228.752 -3.375 231.375 -3.375Z" fill="white" stroke="#B2B2B2" stroke-width="0.5"/>
<path d="M238.219 8.48438C238.486 8.48438 238.703 8.26751 238.703 8C238.703 7.73249 238.486 7.51562 238.219 7.51562C237.951 7.51562 237.734 7.73249 237.734 8C237.734 8.26751 237.951 8.48438 238.219 8.48438Z" stroke="#525252" stroke-width="0.5" stroke-linecap="round" stroke-linejoin="round"/>
<path d="M241.609 8.48438C241.877 8.48438 242.094 8.26751 242.094 8C242.094 7.73249 241.877 7.51562 241.609 7.51562C241.342 7.51562 241.125 7.73249 241.125 8C241.125 8.26751 241.342 8.48438 241.609 8.48438Z" stroke="#525252" stroke-width="0.5" stroke-linecap="round" stroke-linejoin="round"/>
<path d="M234.828 8.48438C235.095 8.48438 235.312 8.26751 235.312 8C235.312 7.73249 235.095 7.51562 234.828 7.51562C234.56 7.51562 234.344 7.73249 234.344 8C234.344 8.26751 234.56 8.48438 234.828 8.48438Z" stroke="#525252" stroke-width="0.5" stroke-linecap="round" stroke-linejoin="round"/>
<rect x="222.5" y="107.5" width="31" height="31" rx="6" fill="#FCFCFC" stroke="#DFDFDF" stroke-width="0.5"/>
<path d="M231.375 111.625H244.625C247.248 111.625 249.375 113.752 249.375 116.375V129.625C249.375 132.248 247.248 134.375 244.625 134.375H231.375C228.752 134.375 226.625 132.248 226.625 129.625V116.375C226.625 113.752 228.752 111.625 231.375 111.625Z" fill="white" stroke="#B2B2B2" stroke-width="0.5"/>
<path d="M238.219 123.484C238.486 123.484 238.703 123.268 238.703 123C238.703 122.732 238.486 122.516 238.219 122.516C237.951 122.516 237.734 122.732 237.734 123C237.734 123.268 237.951 123.484 238.219 123.484Z" stroke="#525252" stroke-width="0.5" stroke-linecap="round" stroke-linejoin="round"/>
<path d="M241.609 123.484C241.877 123.484 242.094 123.268 242.094 123C242.094 122.732 241.877 122.516 241.609 122.516C241.342 122.516 241.125 122.732 241.125 123C241.125 123.268 241.342 123.484 241.609 123.484Z" stroke="#525252" stroke-width="0.5" stroke-linecap="round" stroke-linejoin="round"/>
<path d="M234.828 123.484C235.095 123.484 235.312 123.268 235.312 123C235.312 122.732 235.095 122.516 234.828 122.516C234.56 122.516 234.344 122.732 234.344 123C234.344 123.268 234.56 123.484 234.828 123.484Z" stroke="#525252" stroke-width="0.5" stroke-linecap="round" stroke-linejoin="round"/>
<rect x="146.5" y="-7.5" width="30" height="31" rx="6" fill="#FCFCFC" stroke="#DFDFDF" stroke-width="0.5"/>
<path d="M155.25 -3.375H167.75C170.373 -3.375 172.5 -1.24835 172.5 1.375V14.625C172.5 17.2484 170.373 19.375 167.75 19.375H155.25C152.627 19.375 150.5 17.2484 150.5 14.625V1.375C150.5 -1.24835 152.627 -3.375 155.25 -3.375Z" fill="white" stroke="#B2B2B2" stroke-width="0.5"/>
<path d="M161.711 8.48438C161.97 8.48438 162.18 8.26751 162.18 8C162.18 7.73249 161.97 7.51562 161.711 7.51562C161.453 7.51562 161.243 7.73249 161.243 8C161.243 8.26751 161.453 8.48438 161.711 8.48438Z" stroke="#525252" stroke-width="0.5" stroke-linecap="round" stroke-linejoin="round"/>
<path d="M164.993 8.48438C165.252 8.48438 165.461 8.26751 165.461 8C165.461 7.73249 165.252 7.51562 164.993 7.51562C164.734 7.51562 164.524 7.73249 164.524 8C164.524 8.26751 164.734 8.48438 164.993 8.48438Z" stroke="#525252" stroke-width="0.5" stroke-linecap="round" stroke-linejoin="round"/>
<path d="M158.43 8.48438C158.689 8.48438 158.899 8.26751 158.899 8C158.899 7.73249 158.689 7.51562 158.43 7.51562C158.171 7.51562 157.961 7.73249 157.961 8C157.961 8.26751 158.171 8.48438 158.43 8.48438Z" stroke="#525252" stroke-width="0.5" stroke-linecap="round" stroke-linejoin="round"/>
<rect x="184.5" y="107.5" width="30" height="31" rx="6" fill="#FCFCFC" stroke="#DFDFDF" stroke-width="0.5"/>
<path d="M193.25 111.625H205.75C208.373 111.625 210.5 113.752 210.5 116.375V129.625C210.5 132.248 208.373 134.375 205.75 134.375H193.25C190.627 134.375 188.5 132.248 188.5 129.625V116.375C188.5 113.752 190.627 111.625 193.25 111.625Z" fill="white" stroke="#B2B2B2" stroke-width="0.5"/>
<path d="M199.711 123.484C199.97 123.484 200.18 123.268 200.18 123C200.18 122.732 199.97 122.516 199.711 122.516C199.453 122.516 199.243 122.732 199.243 123C199.243 123.268 199.453 123.484 199.711 123.484Z" stroke="#525252" stroke-width="0.5" stroke-linecap="round" stroke-linejoin="round"/>
<path d="M202.993 123.484C203.252 123.484 203.461 123.268 203.461 123C203.461 122.732 203.252 122.516 202.993 122.516C202.734 122.516 202.524 122.732 202.524 123C202.524 123.268 202.734 123.484 202.993 123.484Z" stroke="#525252" stroke-width="0.5" stroke-linecap="round" stroke-linejoin="round"/>
<path d="M196.43 123.484C196.689 123.484 196.899 123.268 196.899 123C196.899 122.732 196.689 122.516 196.43 122.516C196.171 122.516 195.961 122.732 195.961 123C195.961 123.268 196.171 123.484 196.43 123.484Z" stroke="#525252" stroke-width="0.5" stroke-linecap="round" stroke-linejoin="round"/>
<rect x="103.5" y="149.5" width="30" height="31" rx="6" fill="#FCFCFC" stroke="#DFDFDF" stroke-width="0.5"/>
<path d="M112.25 153.625H124.75C127.373 153.625 129.5 155.752 129.5 158.375V171.625C129.5 174.248 127.373 176.375 124.75 176.375H112.25C109.627 176.375 107.5 174.248 107.5 171.625V158.375C107.5 155.752 109.627 153.625 112.25 153.625Z" fill="white" stroke="#B2B2B2" stroke-width="0.5"/>
<path d="M118.711 165.484C118.97 165.484 119.18 165.268 119.18 165C119.18 164.732 118.97 164.516 118.711 164.516C118.453 164.516 118.243 164.732 118.243 165C118.243 165.268 118.453 165.484 118.711 165.484Z" stroke="#525252" stroke-width="0.5" stroke-linecap="round" stroke-linejoin="round"/>
<path d="M121.993 165.484C122.252 165.484 122.461 165.268 122.461 165C122.461 164.732 122.252 164.516 121.993 164.516C121.734 164.516 121.524 164.732 121.524 165C121.524 165.268 121.734 165.484 121.993 165.484Z" stroke="#525252" stroke-width="0.5" stroke-linecap="round" stroke-linejoin="round"/>
<path d="M115.43 165.484C115.689 165.484 115.899 165.268 115.899 165C115.899 164.732 115.689 164.516 115.43 164.516C115.171 164.516 114.961 164.732 114.961 165C114.961 165.268 115.171 165.484 115.43 165.484Z" stroke="#525252" stroke-width="0.5" stroke-linecap="round" stroke-linejoin="round"/>
<rect x="146.5" y="107.5" width="30" height="31" rx="6" fill="#FCFCFC" stroke="#DFDFDF" stroke-width="0.5"/>
<path d="M155.25 111.625H167.75C170.373 111.625 172.5 113.752 172.5 116.375V129.625C172.5 132.248 170.373 134.375 167.75 134.375H155.25C152.627 134.375 150.5 132.248 150.5 129.625V116.375C150.5 113.752 152.627 111.625 155.25 111.625Z" fill="white" stroke="#B2B2B2" stroke-width="0.5"/>
<path d="M161.711 123.484C161.97 123.484 162.18 123.268 162.18 123C162.18 122.732 161.97 122.516 161.711 122.516C161.453 122.516 161.243 122.732 161.243 123C161.243 123.268 161.453 123.484 161.711 123.484Z" stroke="#525252" stroke-width="0.5" stroke-linecap="round" stroke-linejoin="round"/>
<path d="M164.993 123.484C165.252 123.484 165.461 123.268 165.461 123C165.461 122.732 165.252 122.516 164.993 122.516C164.734 122.516 164.524 122.732 164.524 123C164.524 123.268 164.734 123.484 164.993 123.484Z" stroke="#525252" stroke-width="0.5" stroke-linecap="round" stroke-linejoin="round"/>
<path d="M158.43 123.484C158.689 123.484 158.899 123.268 158.899 123C158.899 122.732 158.689 122.516 158.43 122.516C158.171 122.516 157.961 122.732 157.961 123C157.961 123.268 158.171 123.484 158.43 123.484Z" stroke="#525252" stroke-width="0.5" stroke-linecap="round" stroke-linejoin="round"/>
<rect x="337.5" y="-7.5" width="30" height="31" rx="6" fill="#FCFCFC" stroke="#DFDFDF" stroke-width="0.5"/>
<path d="M346.25 -3.375H358.75C361.373 -3.375 363.5 -1.24835 363.5 1.375V14.625C363.5 17.2484 361.373 19.375 358.75 19.375H346.25C343.627 19.375 341.5 17.2484 341.5 14.625V1.375C341.5 -1.24835 343.627 -3.375 346.25 -3.375Z" fill="white" stroke="#B2B2B2" stroke-width="0.5"/>
<path d="M349.43 8.48438C349.689 8.48438 349.899 8.26751 349.899 8C349.899 7.73249 349.689 7.51562 349.43 7.51562C349.171 7.51562 348.961 7.73249 348.961 8C348.961 8.26751 349.171 8.48438 349.43 8.48438Z" stroke="#525252" stroke-width="0.5" stroke-linecap="round" stroke-linejoin="round"/>
<rect x="337.5" y="107.5" width="30" height="31" rx="6" fill="#FCFCFC" stroke="#DFDFDF" stroke-width="0.5"/>
<path d="M346.25 111.625H358.75C361.373 111.625 363.5 113.752 363.5 116.375V129.625C363.5 132.248 361.373 134.375 358.75 134.375H346.25C343.627 134.375 341.5 132.248 341.5 129.625V116.375C341.5 113.752 343.627 111.625 346.25 111.625Z" fill="white" stroke="#B2B2B2" stroke-width="0.5"/>
<path d="M349.43 123.484C349.689 123.484 349.899 123.268 349.899 123C349.899 122.732 349.689 122.516 349.43 122.516C349.171 122.516 348.961 122.732 348.961 123C348.961 123.268 349.171 123.484 349.43 123.484Z" stroke="#525252" stroke-width="0.5" stroke-linecap="round" stroke-linejoin="round"/>
<rect x="222.5" y="31.5" width="31" height="30" rx="6" fill="#FCFCFC" stroke="#DFDFDF" stroke-width="0.5"/>
<path d="M231.375 35.5H244.625C247.248 35.5 249.375 37.6266 249.375 40.25V52.75C249.375 55.3734 247.248 57.5 244.625 57.5H231.375C228.752 57.5 226.625 55.3734 226.625 52.75V40.25C226.625 37.6266 228.752 35.5 231.375 35.5Z" fill="white" stroke="#B2B2B2" stroke-width="0.5"/>
<path d="M238.219 46.9688C238.486 46.9688 238.703 46.7589 238.703 46.5C238.703 46.2411 238.486 46.0312 238.219 46.0312C237.951 46.0312 237.734 46.2411 237.734 46.5C237.734 46.7589 237.951 46.9688 238.219 46.9688Z" stroke="#525252" stroke-width="0.5" stroke-linecap="round" stroke-linejoin="round"/>
<path d="M241.609 46.9688C241.877 46.9688 242.094 46.7589 242.094 46.5C242.094 46.2411 241.877 46.0312 241.609 46.0312C241.342 46.0312 241.125 46.2411 241.125 46.5C241.125 46.7589 241.342 46.9688 241.609 46.9688Z" stroke="#525252" stroke-width="0.5" stroke-linecap="round" stroke-linejoin="round"/>
<path d="M234.828 46.9688C235.095 46.9688 235.312 46.7589 235.312 46.5C235.312 46.2411 235.095 46.0312 234.828 46.0312C234.56 46.0312 234.344 46.2411 234.344 46.5C234.344 46.7589 234.56 46.9688 234.828 46.9688Z" stroke="#525252" stroke-width="0.5" stroke-linecap="round" stroke-linejoin="round"/>
<rect x="222.5" y="145.5" width="31" height="31" rx="6" fill="#FCFCFC" stroke="#DFDFDF" stroke-width="0.5"/>
<path d="M231.375 149.625H244.625C247.248 149.625 249.375 151.752 249.375 154.375V167.625C249.375 170.248 247.248 172.375 244.625 172.375H231.375C228.752 172.375 226.625 170.248 226.625 167.625V154.375C226.625 151.752 228.752 149.625 231.375 149.625Z" fill="white" stroke="#B2B2B2" stroke-width="0.5"/>
<path d="M238.219 161.484C238.486 161.484 238.703 161.268 238.703 161C238.703 160.732 238.486 160.516 238.219 160.516C237.951 160.516 237.734 160.732 237.734 161C237.734 161.268 237.951 161.484 238.219 161.484Z" stroke="#525252" stroke-width="0.5" stroke-linecap="round" stroke-linejoin="round"/>
<path d="M241.609 161.484C241.877 161.484 242.094 161.268 242.094 161C242.094 160.732 241.877 160.516 241.609 160.516C241.342 160.516 241.125 160.732 241.125 161C241.125 161.268 241.342 161.484 241.609 161.484Z" stroke="#525252" stroke-width="0.5" stroke-linecap="round" stroke-linejoin="round"/>
<path d="M234.828 161.484C235.095 161.484 235.312 161.268 235.312 161C235.312 160.732 235.095 160.516 234.828 160.516C234.56 160.516 234.344 160.732 234.344 161C234.344 161.268 234.56 161.484 234.828 161.484Z" stroke="#525252" stroke-width="0.5" stroke-linecap="round" stroke-linejoin="round"/>
<rect x="222.5" y="183.5" width="31" height="31" rx="6" fill="#FCFCFC" stroke="#DFDFDF" stroke-width="0.5"/>
<path d="M231.375 187.625H244.625C247.248 187.625 249.375 189.752 249.375 192.375V205.625C249.375 208.248 247.248 210.375 244.625 210.375H231.375C228.752 210.375 226.625 208.248 226.625 205.625V192.375C226.625 189.752 228.752 187.625 231.375 187.625Z" fill="white" stroke="#B2B2B2" stroke-width="0.5"/>
<path d="M238.219 199.484C238.486 199.484 238.703 199.268 238.703 199C238.703 198.732 238.486 198.516 238.219 198.516C237.951 198.516 237.734 198.732 237.734 199C237.734 199.268 237.951 199.484 238.219 199.484Z" stroke="#525252" stroke-width="0.5" stroke-linecap="round" stroke-linejoin="round"/>
<path d="M241.609 199.484C241.877 199.484 242.094 199.268 242.094 199C242.094 198.732 241.877 198.516 241.609 198.516C241.342 198.516 241.125 198.732 241.125 199C241.125 199.268 241.342 199.484 241.609 199.484Z" stroke="#525252" stroke-width="0.5" stroke-linecap="round" stroke-linejoin="round"/>
<path d="M234.828 199.484C235.095 199.484 235.312 199.268 235.312 199C235.312 198.732 235.095 198.516 234.828 198.516C234.56 198.516 234.344 198.732 234.344 199C234.344 199.268 234.56 199.484 234.828 199.484Z" stroke="#525252" stroke-width="0.5" stroke-linecap="round" stroke-linejoin="round"/>
<rect x="184.5" y="31.5" width="30" height="30" rx="6" fill="#FCFCFC" stroke="#DFDFDF" stroke-width="0.5"/>
<path d="M193.25 35.5H205.75C208.373 35.5 210.5 37.6266 210.5 40.25V52.75C210.5 55.3734 208.373 57.5 205.75 57.5H193.25C190.627 57.5 188.5 55.3734 188.5 52.75V40.25C188.5 37.6266 190.627 35.5 193.25 35.5Z" fill="white" stroke="#B2B2B2" stroke-width="0.5"/>
<path d="M199.711 46.9688C199.97 46.9688 200.18 46.7589 200.18 46.5C200.18 46.2411 199.97 46.0312 199.711 46.0312C199.453 46.0312 199.243 46.2411 199.243 46.5C199.243 46.7589 199.453 46.9688 199.711 46.9688Z" stroke="#525252" stroke-width="0.5" stroke-linecap="round" stroke-linejoin="round"/>
<path d="M202.993 46.9688C203.252 46.9688 203.461 46.7589 203.461 46.5C203.461 46.2411 203.252 46.0312 202.993 46.0312C202.734 46.0312 202.524 46.2411 202.524 46.5C202.524 46.7589 202.734 46.9688 202.993 46.9688Z" stroke="#525252" stroke-width="0.5" stroke-linecap="round" stroke-linejoin="round"/>
<path d="M196.43 46.9688C196.689 46.9688 196.899 46.7589 196.899 46.5C196.899 46.2411 196.689 46.0312 196.43 46.0312C196.171 46.0312 195.961 46.2411 195.961 46.5C195.961 46.7589 196.171 46.9688 196.43 46.9688Z" stroke="#525252" stroke-width="0.5" stroke-linecap="round" stroke-linejoin="round"/>
<rect x="184.5" y="145.5" width="30" height="31" rx="6" fill="#FCFCFC" stroke="#DFDFDF" stroke-width="0.5"/>
<path d="M193.25 149.625H205.75C208.373 149.625 210.5 151.752 210.5 154.375V167.625C210.5 170.248 208.373 172.375 205.75 172.375H193.25C190.627 172.375 188.5 170.248 188.5 167.625V154.375C188.5 151.752 190.627 149.625 193.25 149.625Z" fill="white" stroke="#B2B2B2" stroke-width="0.5"/>
<path d="M199.711 161.484C199.97 161.484 200.18 161.268 200.18 161C200.18 160.732 199.97 160.516 199.711 160.516C199.453 160.516 199.243 160.732 199.243 161C199.243 161.268 199.453 161.484 199.711 161.484Z" stroke="#525252" stroke-width="0.5" stroke-linecap="round" stroke-linejoin="round"/>
<path d="M202.993 161.484C203.252 161.484 203.461 161.268 203.461 161C203.461 160.732 203.252 160.516 202.993 160.516C202.734 160.516 202.524 160.732 202.524 161C202.524 161.268 202.734 161.484 202.993 161.484Z" stroke="#525252" stroke-width="0.5" stroke-linecap="round" stroke-linejoin="round"/>
<path d="M196.43 161.484C196.689 161.484 196.899 161.268 196.899 161C196.899 160.732 196.689 160.516 196.43 160.516C196.171 160.516 195.961 160.732 195.961 161C195.961 161.268 196.171 161.484 196.43 161.484Z" stroke="#525252" stroke-width="0.5" stroke-linecap="round" stroke-linejoin="round"/>
<rect x="184.5" y="183.5" width="30" height="31" rx="6" fill="#FCFCFC" stroke="#DFDFDF" stroke-width="0.5"/>
<path d="M193.25 187.625H205.75C208.373 187.625 210.5 189.752 210.5 192.375V205.625C210.5 208.248 208.373 210.375 205.75 210.375H193.25C190.627 210.375 188.5 208.248 188.5 205.625V192.375C188.5 189.752 190.627 187.625 193.25 187.625Z" fill="white" stroke="#B2B2B2" stroke-width="0.5"/>
<path d="M199.711 199.484C199.97 199.484 200.18 199.268 200.18 199C200.18 198.732 199.97 198.516 199.711 198.516C199.453 198.516 199.243 198.732 199.243 199C199.243 199.268 199.453 199.484 199.711 199.484Z" stroke="#525252" stroke-width="0.5" stroke-linecap="round" stroke-linejoin="round"/>
<path d="M202.993 199.484C203.252 199.484 203.461 199.268 203.461 199C203.461 198.732 203.252 198.516 202.993 198.516C202.734 198.516 202.524 198.732 202.524 199C202.524 199.268 202.734 199.484 202.993 199.484Z" stroke="#525252" stroke-width="0.5" stroke-linecap="round" stroke-linejoin="round"/>
<path d="M196.43 199.484C196.689 199.484 196.899 199.268 196.899 199C196.899 198.732 196.689 198.516 196.43 198.516C196.171 198.516 195.961 198.732 195.961 199C195.961 199.268 196.171 199.484 196.43 199.484Z" stroke="#525252" stroke-width="0.5" stroke-linecap="round" stroke-linejoin="round"/>
<rect x="337.5" y="31.5" width="30" height="30" rx="6" fill="#FCFCFC" stroke="#DFDFDF" stroke-width="0.5"/>
<path d="M346.25 35.5H358.75C361.373 35.5 363.5 37.6266 363.5 40.25V52.75C363.5 55.3734 361.373 57.5 358.75 57.5H346.25C343.627 57.5 341.5 55.3734 341.5 52.75V40.25C341.5 37.6266 343.627 35.5 346.25 35.5Z" fill="white" stroke="#B2B2B2" stroke-width="0.5"/>
<path d="M349.43 46.9688C349.689 46.9688 349.899 46.7589 349.899 46.5C349.899 46.2411 349.689 46.0312 349.43 46.0312C349.171 46.0312 348.961 46.2411 348.961 46.5C348.961 46.7589 349.171 46.9688 349.43 46.9688Z" stroke="#525252" stroke-width="0.5" stroke-linecap="round" stroke-linejoin="round"/>
<rect x="337.5" y="145.5" width="30" height="31" rx="6" fill="#FCFCFC" stroke="#DFDFDF" stroke-width="0.5"/>
<path d="M346.25 149.625H358.75C361.373 149.625 363.5 151.752 363.5 154.375V167.625C363.5 170.248 361.373 172.375 358.75 172.375H346.25C343.627 172.375 341.5 170.248 341.5 167.625V154.375C341.5 151.752 343.627 149.625 346.25 149.625Z" fill="white" stroke="#B2B2B2" stroke-width="0.5"/>
<path d="M349.43 161.484C349.689 161.484 349.899 161.268 349.899 161C349.899 160.732 349.689 160.516 349.43 160.516C349.171 160.516 348.961 160.732 348.961 161C348.961 161.268 349.171 161.484 349.43 161.484Z" stroke="#525252" stroke-width="0.5" stroke-linecap="round" stroke-linejoin="round"/>
<rect x="337.5" y="183.5" width="30" height="31" rx="6" fill="#FCFCFC" stroke="#DFDFDF" stroke-width="0.5"/>
<path d="M346.25 187.625H358.75C361.373 187.625 363.5 189.752 363.5 192.375V205.625C363.5 208.248 361.373 210.375 358.75 210.375H346.25C343.627 210.375 341.5 208.248 341.5 205.625V192.375C341.5 189.752 343.627 187.625 346.25 187.625Z" fill="white" stroke="#B2B2B2" stroke-width="0.5"/>
<path d="M349.43 199.484C349.689 199.484 349.899 199.268 349.899 199C349.899 198.732 349.689 198.516 349.43 198.516C349.171 198.516 348.961 198.732 348.961 199C348.961 199.268 349.171 199.484 349.43 199.484Z" stroke="#525252" stroke-width="0.5" stroke-linecap="round" stroke-linejoin="round"/>
<rect x="-140" y="-0.671875" width="489" height="208" fill="url(#paint0_linear_763_7952)"/>
</g>
<defs>
<linearGradient id="paint0_linear_763_7952" x1="261.883" y1="114.328" x2="-136.175" y2="111.093" gradientUnits="userSpaceOnUse">
<stop stop-color="#FBFCFD" stop-opacity="0"/>
<stop offset="1" stop-color="#FBFCFD"/>
</linearGradient>
<clipPath id="clip0_763_7952">
<rect width="349" height="208" fill="white"/>
</clipPath>
</defs>
</svg>
