<svg width="700" height="700" xmlns="http://www.w3.org/2000/svg"><path d="M180.17 535.867C77.404 535.867 0 454.547 0 354.117c0-100.735 73.444-182.734 180.17-182.734 56.66 0 95.854 17.392 126.486 57.228l-49.405 41.178c-20.761-22.103-45.786-33.136-77.08-33.136-69.503 0-107.712 53.197-107.712 117.464s41.845 116.48 107.712 116.48c30.972 0 57.322-11.034 78.065-33.137l48.742 42.845c-29.306 38.152-69.503 55.562-126.807 55.562Zm339.597-267.44h66.53V529.49h-66.53v-38.152c-13.829 27.119-36.9 45.191-81.02 45.191-70.488 0-126.825-61.258-126.825-136.558 0-75.318 56.337-136.558 126.825-136.558 43.798 0 67.177 18.073 81.02 45.173v-40.158Zm1.973 131.544c0-40.839-28-74.638-72.137-74.638-42.49 0-70.148 34.14-70.148 74.638 0 39.495 27.658 74.638 70.148 74.638 43.814 0 72.137-34.14 72.137-74.638ZM633.412 163h66.53v366.168h-66.53V163Z" fill="#000" fill-rule="nonzero"/></svg>