<svg xmlns="http://www.w3.org/2000/svg" xml:space="preserve" id="Layer_1" x="0" y="0" style="enable-background:new 0 0 96 96" version="1.1" viewBox="0 0 96 96"><style>.st0{fill:#ffb200}</style><path d="M2.6 0h5.5c1.4 0 2.6 1.2 2.6 2.6v90.8c0 1.4-1.2 2.6-2.6 2.6H2.6C1.2 96 0 94.8 0 93.4V2.6C0 1.2 1.2 0 2.6 0z" class="st0"/><path d="M0 85.3h10.7v8.1c0 1.4-1.2 2.6-2.6 2.6H2.6C1.2 96 0 94.8 0 93.4v-8.1z" style="fill:red"/><path d="M23.9 0h5.5C30.8 0 32 1.2 32 2.6v90.8c0 1.4-1.2 2.6-2.6 2.6h-5.5c-1.4 0-2.6-1.2-2.6-2.6V2.6c0-1.4 1.2-2.6 2.6-2.6zM45.3 0h5.5c1.4 0 2.6 1.2 2.6 2.6v90.8c0 1.4-1.2 2.6-2.6 2.6h-5.5c-1.4 0-2.6-1.2-2.6-2.6V2.6c0-1.4 1.1-2.6 2.6-2.6zM66.6 0h5.5c1.4 0 2.6 1.2 2.6 2.6v90.8c0 1.4-1.2 2.6-2.6 2.6h-5.5c-1.4 0-2.6-1.2-2.6-2.6V2.6C64 1.2 65.2 0 66.6 0zM87.9 37.3h5.5c1.4 0 2.6 1.2 2.6 2.6V56c0 1.4-1.2 2.6-2.6 2.6h-5.5c-1.4 0-2.6-1.2-2.6-2.6V39.9c0-1.4 1.2-2.6 2.6-2.6z" class="st0"/></svg>