<svg width="176" height="174" viewBox="0 0 176 174" fill="none" xmlns="http://www.w3.org/2000/svg">
<path opacity="0.973" fill-rule="evenodd" clip-rule="evenodd" d="M161.5 41.5C147.833 41.5 134.167 41.5 120.5 41.5C120.5 39.5 120.5 37.5 120.5 35.5C125.607 35.8345 129.94 35.5012 133.5 34.5C131.073 32.4424 128.407 30.6091 125.5 29C103.167 28.3333 80.833 28.3333 58.5 29C54.764 30.4098 51.098 31.9098 47.5 33.5C44.053 35.0541 42.053 37.7208 41.5 41.5C56.833 41.5 72.167 41.5 87.5 41.5C87.173 51.6806 87.506 61.6806 88.5 71.5C88.5 75.8333 88.5 80.167 88.5 84.5C88.167 84.5 87.833 84.5 87.5 84.5C69.032 76.7651 50.699 68.7651 32.5 60.5C45.016 54.4095 57.683 48.5762 70.5 43C60.506 42.5002 50.506 42.3335 40.5 42.5C32.016 41.507 23.349 41.1736 14.5 41.5C31.269 14.5202 55.769 0.8535 88 0.5C120.231 0.8535 144.731 14.5202 161.5 41.5Z" fill="#B8E1F3"/>
<path fill-rule="evenodd" clip-rule="evenodd" d="M133.5 34.5C104.662 34.8313 75.995 34.498 47.5 33.5C51.098 31.9098 54.764 30.4098 58.5 29C80.833 28.3333 103.167 28.3333 125.5 29C128.407 30.6091 131.073 32.4424 133.5 34.5Z" fill="#F5FAFD"/>
<path fill-rule="evenodd" clip-rule="evenodd" d="M47.5 33.5C75.995 34.498 104.662 34.8313 133.5 34.5C129.94 35.5012 125.607 35.8345 120.5 35.5C120.5 37.5 120.5 39.5 120.5 41.5C109.5 41.5 98.5 41.5 87.5 41.5C72.167 41.5 56.833 41.5 41.5 41.5C42.053 37.7208 44.053 35.0541 47.5 33.5Z" fill="#EAF7FD"/>
<path fill-rule="evenodd" clip-rule="evenodd" d="M14.5 41.5C23.349 41.1736 32.016 41.507 40.5 42.5C40.5 43.1667 40.167 43.5 39.5 43.5C31.167 42.8333 22.833 42.1667 14.5 41.5Z" fill="#4B94CB"/>
<path opacity="0.985" fill-rule="evenodd" clip-rule="evenodd" d="M14.5002 41.5C22.8332 42.1667 31.1672 42.8333 39.5002 43.5C37.0132 48.4734 34.5132 53.4734 32.0002 58.5C33.9262 67.255 37.2602 75.5884 42.0002 83.5C47.7002 92.257 53.8672 100.591 60.5002 108.5C60.5692 113.854 60.9022 119.187 61.5002 124.5C61.3512 125.552 61.5172 126.552 62.0002 127.5C70.7072 136.704 79.2072 146.037 87.5002 155.5C88.0772 156.773 88.7432 156.773 89.5002 155.5C96.1782 144.139 102.845 132.806 109.5 121.5C114.46 117.712 119.293 113.712 124 109.5C124.5 100.506 124.666 91.506 124.5 82.5C130.833 75.1667 137.167 67.8333 143.5 60.5C143.804 59.8501 144.137 59.1835 144.5 58.5C142.5 53.5 140.5 48.5 138.5 43.5C146.472 42.5023 154.472 42.169 162.5 42.5C174.293 62.3207 177.793 83.654 173 106.5C164.539 138.962 144.372 160.462 112.5 171C69.6032 180.376 36.1032 166.876 12.0002 130.5C-0.793847 105.892 -2.46085 80.559 7.00015 54.5C9.02215 49.7768 11.5222 45.4434 14.5002 41.5Z" fill="#277ABE"/>
<path fill-rule="evenodd" clip-rule="evenodd" d="M120.5 42.5C120.5 51.8333 120.5 61.1667 120.5 70.5C110.663 75.3434 100.663 80.01 90.5 84.5C89.833 84.5 89.5 84.833 89.5 85.5C89.167 85.5 88.833 85.5 88.5 85.5C88.5 85.167 88.5 84.833 88.5 84.5C88.5 80.167 88.5 75.8333 88.5 71.5C88.5 61.8333 88.5 52.1667 88.5 42.5C99.167 42.5 109.833 42.5 120.5 42.5Z" fill="#68C1EA"/>
<path fill-rule="evenodd" clip-rule="evenodd" d="M120.5 41.5C134.167 41.5 147.833 41.5 161.5 41.5C162.167 41.5 162.5 41.8333 162.5 42.5C154.472 42.169 146.472 42.5023 138.5 43.5C140.5 48.5 142.5 53.5 144.5 58.5C144.137 59.1835 143.804 59.8501 143.5 60.5C135.712 63.5608 128.045 66.8941 120.5 70.5C120.5 61.1667 120.5 51.8333 120.5 42.5C120.5 42.1667 120.5 41.8333 120.5 41.5Z" fill="#4E8BC9"/>
<path fill-rule="evenodd" clip-rule="evenodd" d="M87.4999 41.5C98.4999 41.5 109.5 41.5 120.5 41.5C120.5 41.8333 120.5 42.1667 120.5 42.5C109.833 42.5 99.1669 42.5 88.4999 42.5C88.4999 52.1667 88.4999 61.8333 88.4999 71.5C87.5059 61.6806 87.1729 51.6806 87.4999 41.5Z" fill="#A2D8F1"/>
<path fill-rule="evenodd" clip-rule="evenodd" d="M40.5 42.4999C50.506 42.3334 60.506 42.5001 70.5 42.9999C57.683 48.5761 45.016 54.4094 32.5 60.4999C50.699 68.765 69.032 76.765 87.5 84.4999C87.141 86.3709 86.141 87.8709 84.5 88.9999C76.021 94.9849 68.021 101.485 60.5 108.5C53.867 100.591 47.7 92.2569 42 83.4999C37.26 75.5883 33.926 67.2549 32 58.4999C34.513 53.4733 37.013 48.4733 39.5 43.4999C40.167 43.4999 40.5 43.1666 40.5 42.4999Z" fill="#90D4F0"/>
<path fill-rule="evenodd" clip-rule="evenodd" d="M143.5 60.5C137.167 67.8333 130.833 75.1667 124.5 82.5C113.812 83.28 103.145 84.28 92.5 85.5C91.584 85.457 90.917 85.124 90.5 84.5C100.663 80.01 110.663 75.3434 120.5 70.5C128.045 66.8941 135.712 63.5608 143.5 60.5Z" fill="#266FA8"/>
<path fill-rule="evenodd" clip-rule="evenodd" d="M124.5 82.5C124.666 91.506 124.5 100.506 124 109.5C119.293 113.712 114.46 117.712 109.5 121.5C109.167 120.833 108.833 120.167 108.5 119.5C101.628 108.419 95.295 97.086 89.5 85.5C89.5 84.833 89.833 84.5 90.5 84.5C90.917 85.124 91.584 85.457 92.5 85.5C103.145 84.28 113.812 83.28 124.5 82.5Z" fill="#4D8AC8"/>
<path fill-rule="evenodd" clip-rule="evenodd" d="M87.5 84.5C87.833 84.5 88.167 84.5 88.5 84.5C88.5 84.833 88.5 85.167 88.5 85.5C88.5 93.5 88.5 101.5 88.5 109.5C88.167 109.5 87.833 109.5 87.5 109.5C78.502 109.119 69.502 108.786 60.5 108.5C68.021 101.485 76.021 94.985 84.5 89C86.141 87.871 87.141 86.371 87.5 84.5Z" fill="#ABDCF1"/>
<path fill-rule="evenodd" clip-rule="evenodd" d="M88.5 85.5C88.833 85.5 89.167 85.5 89.5 85.5C95.295 97.086 101.628 108.419 108.5 119.5C101.456 116.721 94.789 113.388 88.5 109.5C88.5 101.5 88.5 93.5 88.5 85.5Z" fill="#54A5D7"/>
<path fill-rule="evenodd" clip-rule="evenodd" d="M60.5 108.5C69.502 108.786 78.502 109.119 87.5 109.5C87.5 116.833 87.5 124.167 87.5 131.5C80.125 130.66 72.791 129.493 65.5 128C63.973 126.968 62.64 125.801 61.5 124.5C60.902 119.187 60.569 113.854 60.5 108.5Z" fill="#B6E0F2"/>
<path fill-rule="evenodd" clip-rule="evenodd" d="M87.4998 109.5C87.8328 109.5 88.1668 109.5 88.4998 109.5C94.7888 113.388 101.456 116.721 108.5 119.5C108.833 120.167 109.167 120.833 109.5 121.5C102.734 124.382 96.0668 127.549 89.4998 131C88.5438 134.394 88.2108 137.894 88.4998 141.5C87.5208 138.375 87.1868 135.042 87.4998 131.5C87.4998 124.167 87.4998 116.833 87.4998 109.5Z" fill="#58AFDE"/>
<path fill-rule="evenodd" clip-rule="evenodd" d="M109.5 121.5C102.845 132.806 96.178 144.139 89.5 155.5C88.743 156.773 88.077 156.773 87.5 155.5C88.486 151.03 88.819 146.363 88.5 141.5C88.211 137.894 88.544 134.394 89.5 131C96.067 127.549 102.734 124.382 109.5 121.5Z" fill="#266FA8"/>
<path fill-rule="evenodd" clip-rule="evenodd" d="M61.5001 124.5C62.6401 125.801 63.9731 126.968 65.5001 128C72.7911 129.493 80.1251 130.66 87.5001 131.5C87.1871 135.042 87.5211 138.375 88.5001 141.5C88.8191 146.363 88.4861 151.03 87.5001 155.5C79.2071 146.037 70.7071 136.704 62.0001 127.5C61.5171 126.552 61.3511 125.552 61.5001 124.5Z" fill="#8FD3F0"/>
</svg>
