<svg width="512" height="512" viewBox="0 0 512 512" fill="none" xmlns="http://www.w3.org/2000/svg">
<path d="M472.136 163.959H408.584C407.401 163.959 406.218 163.327 405.666 162.3L354.651 73.6591C354.02 72.632 352.916 72 351.654 72H143.492C142.309 72 141.126 72.632 140.574 73.6591L87.5084 165.618L36.414 254.259C35.862 255.286 35.862 256.55 36.414 257.656L87.5084 346.297L140.495 438.335C141.047 439.362 142.23 440.073 143.413 439.994H351.654C352.837 439.994 354.02 439.362 354.651 438.335L405.745 349.694C406.297 348.667 407.48 347.956 408.663 348.035H472.215C474.344 348.035 476 346.297 476 344.243V167.83C475.921 165.697 474.186 163.959 472.136 163.959ZM228.728 349.694L212.721 377.345C212.485 377.74 212.091 378.135 211.696 378.372C211.223 378.609 210.75 378.767 210.198 378.767H178.422C177.318 378.767 176.293 378.214 175.82 377.187L128.431 294.787L123.779 286.65L106.748 257.498C106.511 257.103 106.353 256.629 106.432 256.076C106.432 255.602 106.59 255.049 106.827 254.654L123.937 224.949L175.899 134.886C176.451 133.938 177.476 133.306 178.501 133.306H210.198C210.75 133.306 211.302 133.464 211.854 133.701C212.248 133.938 212.643 134.254 212.879 134.728L228.886 162.537C229.359 163.485 229.28 164.67 228.728 165.539L177.397 254.654C177.16 255.049 177.081 255.523 177.081 255.918C177.081 256.392 177.239 256.787 177.397 257.182L228.728 346.218C229.438 347.403 229.359 348.667 228.728 349.694ZM388.083 257.498L371.051 286.65L366.399 294.787L319.011 377.187C318.459 378.135 317.512 378.767 316.409 378.767H284.632C284.08 378.767 283.607 378.609 283.134 378.372C282.74 378.135 282.346 377.819 282.109 377.345L266.103 349.694C265.393 348.667 265.393 347.403 266.024 346.376L317.355 257.34C317.591 256.945 317.67 256.471 317.67 256.076C317.67 255.602 317.513 255.207 317.355 254.812L266.024 165.697C265.472 164.749 265.393 163.643 265.866 162.695L281.873 134.886C282.109 134.491 282.503 134.096 282.898 133.859C283.371 133.543 283.923 133.464 284.553 133.464H316.409C317.512 133.464 318.538 134.017 319.011 135.044L370.972 225.107L388.083 254.812C388.319 255.286 388.477 255.76 388.477 256.234C388.477 256.55 388.319 257.024 388.083 257.498Z" fill="#008AAA"/>
</svg>
