<svg xmlns="http://www.w3.org/2000/svg" width="47" height="47" fill="none"><g fill="#1D1C1C"><path d="M5.738 37.678c-.284-.193-.627.148-.409.414 3.938 4.799 9.738 8.011 16.297 8.53l.102.008c.136.01.274.018.412.025a18.769 18.769 0 0 0 .662.028 22.032 22.032 0 0 0 1.41 0c.095-.002.19-.007.285-.01.126-.004.252-.012.376-.018.138-.007.274-.016.412-.025l.102-.008c6.56-.519 12.36-3.73 16.297-8.53.218-.267-.124-.607-.408-.414-4.845 3.298-11.03 5.277-17.768 5.277-6.737 0-12.925-1.979-17.77-5.276ZM6.392 13.314C9.762 7.479 14.566 3.112 19.846.564c.31-.149.185-.615-.154-.56C13.566 1.016 7.885 4.433 4.155 9.854l-.058.084c-.078.113-.153.227-.227.342-.07.105-.137.212-.204.318l-.153.24c-.122.2-.244.4-.362.606-.118.203-.23.41-.343.615-.045.084-.09.167-.133.253-.058.11-.115.223-.172.335-.062.123-.124.246-.183.37l-.043.091c-2.83 5.94-2.949 12.57-.762 18.38.121.321.587.195.562-.148-.433-5.845.946-12.19 4.315-18.025ZM44.733 13.107l-.043-.091a42.153 42.153 0 0 0-.355-.705 19.835 19.835 0 0 0-.476-.868c-.118-.204-.24-.406-.362-.605a39.205 39.205 0 0 0-.584-.901l-.058-.084c-3.73-5.421-9.412-8.838-15.537-9.848-.34-.056-.463.41-.154.56 5.28 2.547 10.085 6.914 13.453 12.749 3.369 5.836 4.748 12.18 4.315 18.025-.026.343.44.47.561.147 2.188-5.81 2.07-12.439-.76-18.379Z"/></g></svg>