<svg width="10" height="15" fill="none" xmlns="http://www.w3.org/2000/svg"><path d="M.494 7.974h5v2h-5v-2Z" fill="url(#a)"/><path d="M.494 9.974h5v2h-5v-2Z" fill="url(#b)"/><path fill-rule="evenodd" clip-rule="evenodd" d="M2.682 3a2.318 2.318 0 1 1 4.636 0v1.682h2.155L9.79 5v9l-.318.318h-9L.154 14V5l.319-.318h2.209V3Zm.636 1.682h3.364V3a1.682 1.682 0 0 0-3.364 0v1.682Zm-2.527.636v2.338h4.703l.319.318v4l-.319.319H.791v1.389h8.363V5.318H.791Zm.022 6.338h4.363v-1.363H.813v1.363Zm0-2h4.363V8.293H.813v1.363Z" fill="url(#c)"/><defs><linearGradient id="a" x1="-1.666" y1=".682" x2="13.393" y2=".682" gradientUnits="userSpaceOnUse"><stop stop-color="#429B72"/><stop offset="1" stop-color="#333" stop-opacity=".6"/></linearGradient><linearGradient id="b" x1="-1.666" y1=".682" x2="13.393" y2=".682" gradientUnits="userSpaceOnUse"><stop stop-color="#429B72"/><stop offset="1" stop-color="#333" stop-opacity=".6"/></linearGradient><linearGradient id="c" x1="-1.666" y1=".682" x2="13.393" y2=".682" gradientUnits="userSpaceOnUse"><stop stop-color="#429B72"/><stop offset="1" stop-color="#333" stop-opacity=".6"/></linearGradient></defs></svg>