<svg width="786" height="390" viewBox="0 0 786 390" fill="none" xmlns="http://www.w3.org/2000/svg">
<g clip-path="url(#clip0_539_24057)">
<rect width="786" height="390" fill="url(#paint0_linear_539_24057)"/>
<rect x="501.945" y="-76.4521" width="101.778" height="671.06" transform="rotate(45 501.945 -76.4521)" fill="url(#paint1_linear_539_24057)"/>
<rect x="789.945" y="-76.4521" width="101.778" height="671.06" transform="rotate(45 789.945 -76.4521)" fill="url(#paint2_linear_539_24057)"/>
<rect x="341.344" y="-203.052" width="101.778" height="671.06" transform="rotate(45 341.344 -203.052)" fill="url(#paint3_linear_539_24057)"/>
<mask id="mask0_539_24057" style="mask-type:alpha" maskUnits="userSpaceOnUse" x="-231" y="-291" width="1635" height="1075">
<rect x="-231" y="-291" width="1634.96" height="1074.97" fill="url(#paint4_radial_539_24057)"/>
</mask>
<g mask="url(#mask0_539_24057)">
<path d="M518.408 -165.724H590.489M518.408 -165.724V-93.6428H590.489V-165.724M518.408 -165.724V-237.807L590.489 -165.724M446.329 -237.807H518.41V-165.726M446.329 -237.807V-165.726M446.329 -237.807H374.248V-165.726M518.41 -165.726H446.329M518.41 -165.726V-93.6428M446.329 -165.726L518.41 -93.6428M446.329 -165.726V-93.6428M446.329 -165.726H374.248M446.329 -165.726L374.248 -93.6428M518.41 -93.6428V-21.5621H446.329M518.41 -93.6428L446.329 -21.5621M518.41 -93.6428H446.329M662.574 -93.6452V-165.726L590.492 -165.726L662.574 -93.6452ZM662.574 -93.6452H734.655V-21.5639L662.574 -93.6452ZM590.495 122.604V50.5227M590.495 122.604L518.414 50.5227H590.495M590.495 122.604L662.576 50.5227H590.495M590.495 410.924V338.842M590.495 410.924L518.414 338.842H590.495M590.495 410.924L662.576 338.842H590.495M590.495 410.924L662.576 410.922V338.839M590.495 410.924L662.576 338.839M590.495 410.924V483.005H662.576L590.495 410.924ZM734.653 -21.5621H662.571M734.653 -21.5621L662.571 -93.6434M734.653 -21.5621V50.521M734.653 -21.5621L806.734 -21.5639V-93.6452H734.653V-21.5621ZM662.571 -21.5621V-93.6434M662.571 -21.5621V50.521H734.653M662.571 -93.6434V-165.726M662.571 -93.6434L734.653 -165.726M734.653 50.521L806.734 50.5192V122.602M734.653 50.521V122.602M734.653 -237.807H662.571V-165.726M734.653 -237.807V-165.726M734.653 -237.807H806.734V-165.726M662.571 -165.726H734.653M734.653 -165.726H806.734M734.653 -165.726L806.734 -93.6428M734.653 -165.726V-93.6428H806.734M518.408 50.521L590.489 -21.5603H518.408V50.3485M446.329 -21.5621V50.521M446.329 -21.5621L374.248 -21.5639V-93.6452H446.329V-21.5621ZM446.329 -21.5621L374.248 50.5192M446.329 50.521H518.41M446.329 50.521L374.248 50.5192M446.329 50.521V122.604M590.495 -165.726H662.576V-237.807L590.495 -165.726ZM590.495 -165.726V-93.6428H662.576L590.495 -165.726ZM518.408 -93.6452H590.489V-21.5639M518.408 -93.6452L590.489 -21.5639M518.408 -93.6452H446.326V-21.5639L518.408 -93.6452ZM518.408 -93.6452V-21.5639H590.489M590.495 -21.5639H662.576V-93.6452H590.495V-21.5639ZM590.495 -21.5639V50.5192M590.495 -21.5639L518.414 50.5192H590.495M590.495 -21.5639L662.576 50.5192H590.495M446.329 -93.6428H374.248M302.163 -21.5639H230.082V-93.6452H302.163V-21.5639ZM302.163 -21.5639V50.5192M302.163 -21.5639L230.082 50.5192M302.163 -21.5639L374.244 -21.5621M302.163 -21.5639L374.244 -93.6434V-21.5621M374.242 -165.724H302.16M374.242 -165.724V-93.6428H302.16V-165.724M374.242 -165.724V-237.807M302.16 -165.724L374.242 -237.807M302.16 -165.724V-237.807H374.242M374.248 -165.726V-93.6428M230.084 50.521V-21.5603H302.165L230.084 50.521ZM230.084 50.521V122.604M230.084 50.521L158.003 122.604M230.084 50.521H158.003V122.604M157.997 -21.5621H230.078M157.997 -21.5621L230.078 -93.6434V-21.5621M157.997 -21.5621V50.521M157.997 -21.5621L85.9154 -21.5639V-93.6452H157.997V-21.5621ZM157.997 -21.5621L85.9154 50.5192M230.078 -21.5621V50.521H157.997M157.997 50.521L85.9154 50.5192M157.997 50.521V122.604M302.163 -165.724V-93.6428H230.082M302.163 -165.724L230.082 -93.6428M302.163 -165.724L230.082 -165.726M302.163 -165.724V-237.807H230.082V-165.726M230.082 -93.6428V-165.726M230.082 50.5192H302.163M230.082 50.5192V122.602M302.163 50.5192L374.244 50.521V-21.5621M302.163 50.5192V-21.5603L374.244 -21.5621M302.163 50.5192V122.604M878.802 -21.5639H950.884V-93.6452H878.802V-21.5639ZM878.802 -21.5639V50.5192M878.802 -21.5639L950.884 50.5192M878.802 -21.5639L806.721 -21.5621M878.802 -21.5639L806.721 -93.6434V-21.5621M806.74 -165.724H878.821M806.74 -165.724V-93.6428H878.821V-165.724M806.74 -165.724V-237.807M878.821 -165.724L806.74 -237.807M878.821 -165.724V-237.807H806.74M806.734 -165.726V-93.6428M950.89 50.521V-21.5603H878.808L950.89 50.521ZM950.89 50.521V122.604M950.89 50.521L1022.97 122.604M950.89 50.521H1022.97V122.604M1022.97 -21.5621H950.887M1022.97 -21.5621L950.887 -93.6434V-21.5621M1022.97 -21.5621V50.521M1022.97 -21.5621L1095.05 -21.5639V-93.6452H1022.97V-21.5621ZM1022.97 -21.5621L1095.05 50.5192M950.887 -21.5621V50.521H1022.97M1022.97 50.521L1095.05 50.5192M1022.97 50.521V122.604M878.802 -165.724V-93.6428H950.884M878.802 -165.724L950.884 -93.6428M878.802 -165.724L950.884 -165.726M878.802 -165.724V-237.807H950.884V-165.726M950.884 -93.6428V-165.726M950.884 50.5192H878.802M950.884 50.5192V122.602M878.802 50.5192L806.721 50.521V-21.5621M878.802 50.5192V-21.5603L806.721 -21.5621M878.802 50.5192V122.604M374.242 50.521V-21.5603H446.323L374.242 50.521ZM374.242 50.521V122.604M374.242 50.521L302.16 122.604M374.242 50.521H302.16V122.604M374.248 50.5192V122.602M590.495 266.758V338.839M590.495 266.758L518.414 338.839H590.495M590.495 266.758L662.576 338.839M590.495 338.839H662.576M806.74 50.521V-21.5603H734.659M806.74 50.521V122.604M806.74 50.521L878.821 122.604M806.74 50.521H878.821V122.604M230.084 -165.724H158.003M230.084 -165.724V-93.6428H158.003V-165.724M230.084 -165.724V-237.807M158.003 -165.724L230.084 -237.807M158.003 -165.724V-237.807H230.084M85.9178 50.521V-21.5603H157.999L85.9178 50.521ZM85.9178 50.521V122.604M85.9178 50.521L13.8365 122.604M85.9178 50.521H13.8365V122.604M13.8389 -21.5621H85.9202M13.8389 -21.5621L85.9202 -93.6434L85.9202 -21.5621M13.8389 -21.5621V50.521M13.8389 -21.5621L-58.2424 -21.5639V-93.6452H13.8389V-21.5621ZM13.8389 -21.5621L-58.2424 50.5192M85.9202 -21.5621V50.521H13.8389M13.8389 50.521L-58.2424 50.5192M13.8389 50.521V122.604M157.997 -165.724V-93.6428H85.9154M157.997 -165.724L85.9154 -93.6428M157.997 -165.724L85.9154 -165.726M157.997 -165.724V-237.807H85.9154V-165.726M85.9154 -93.6428V-165.726M85.9154 50.5192V122.602M950.89 -165.724H1022.97M950.89 -165.724V-93.6428H1022.97V-165.724M950.89 -165.724V-237.807M1022.97 -165.724L950.89 -237.807M1022.97 -165.724V-237.807H950.89M1095.05 50.521V-21.5603H1022.97L1095.05 50.521ZM1095.05 50.521V122.604M1095.05 50.521L1167.13 122.604M1095.05 50.521H1167.13V122.604M1167.13 -21.5621H1095.05M1167.13 -21.5621L1095.05 -93.6434V-21.5621M1167.13 -21.5621V50.521M1167.13 -21.5621L1239.22 -21.5639V-93.6452H1167.13V-21.5621ZM1167.13 -21.5621L1239.22 50.5192M1095.05 -21.5621V50.521H1167.13M1167.13 50.521L1239.22 50.5192M1167.13 50.521V122.604M1022.97 -165.724V-93.6428H1095.05M1022.97 -165.724L1095.05 -93.6428M1022.97 -165.724L1095.05 -165.726M1022.97 -165.724V-237.807H1095.05V-165.726M1095.05 -93.6428V-165.726M1095.05 50.5192V122.602M85.9178 -165.724H13.8365M85.9178 -165.724V-93.6428H13.8365V-165.724M85.9178 -165.724V-237.807M13.8365 -165.724L85.9178 -237.807M13.8365 -165.724V-237.807H85.9178M-58.2483 50.521L-58.2483 -21.5603H13.833L-58.2483 50.521ZM-58.2483 50.521V122.604M-58.2483 50.521L-130.33 122.604M-58.2483 50.521H-130.33L-130.33 122.604M-130.327 -21.5621H-58.2459M-130.327 -21.5621L-58.2459 -93.6434V-21.5621M-130.327 -21.5621V50.521H-58.2459V-21.5621M13.8389 -165.724V-93.6428H-58.2424M13.8389 -165.724L-58.2424 -93.6428M13.8389 -165.724L-58.2424 -165.726M13.8389 -165.724V-237.807H-58.2424V-165.726M-58.2424 -93.6428V-165.726M-58.2424 50.5192V122.602M1095.05 -165.724H1167.13M1095.05 -165.724V-93.6428H1167.13V-165.724M1095.05 -165.724V-237.807M1167.13 -165.724L1095.05 -237.807M1167.13 -165.724V-237.807H1095.05M1239.21 50.521V-21.5603H1167.13L1239.21 50.521ZM1239.21 50.521V122.604M1239.21 50.521L1311.29 122.604M1239.21 50.521H1311.29V122.604M1311.29 -21.5621H1239.21M1311.29 -21.5621L1239.21 -93.6434V-21.5621M1311.29 -21.5621V50.521H1239.21V-21.5621M1167.13 -165.724V-93.6428H1239.22M1167.13 -165.724L1239.22 -93.6428M1167.13 -165.724L1239.22 -165.726M1167.13 -165.724V-237.807H1239.22V-165.726M1239.22 -93.6428V-165.726M1239.22 50.5192V122.602M1239.21 -165.724H1311.29M1239.21 -165.724V-93.6428H1311.29V-165.724M1239.21 -165.724V-237.807M1311.29 -165.724L1239.21 -237.807M1311.29 -165.724V-237.807H1239.21M-58.2483 -165.724H-130.33M-58.2483 -165.724V-93.6428H-130.33V-165.724M-58.2483 -165.724V-237.807M-130.33 -165.724L-58.2483 -237.807M-130.33 -165.724L-130.33 -237.807H-58.2483M446.329 122.604V194.685M446.329 122.604L518.41 194.685H446.329M446.329 122.604L374.248 122.602M446.329 122.604L374.248 194.685M446.329 194.685H374.248M662.574 194.685L662.868 194.391L734.655 122.604V194.685H663.345M374.242 122.604H302.16M374.242 122.604V194.685H302.16V122.604M374.248 122.602V194.685M230.084 338.841V266.759H302.165L230.084 338.841ZM230.084 338.841V410.924M230.084 338.841L158.003 410.924M230.084 338.841H158.003V410.924M157.997 266.758H230.078M157.997 266.758L230.078 194.676V266.758M157.997 266.758V338.841M157.997 266.758L85.9154 338.839M230.078 266.758V338.841H157.997M157.997 338.841L85.9154 338.839M157.997 338.841V410.924M302.163 122.604V194.685H230.082M302.163 122.604L230.082 194.685M302.163 122.604L230.082 122.602M230.082 194.685V122.602M302.163 266.758V338.839M302.163 266.758L230.082 338.839M302.163 266.758H374.244M302.163 266.758L374.244 194.676V266.758M230.082 338.839H302.163M230.082 338.839V410.922M302.163 338.839L374.244 338.841V266.758M302.163 338.839V410.924M806.74 122.604H878.821M806.74 122.604V194.685H878.821V122.604M806.734 122.602H734.653M806.734 122.602V194.685M734.653 122.602L806.734 194.685M734.653 122.602V194.685H806.734M950.89 338.841V266.759H878.808L950.89 338.841ZM950.89 338.841V410.924M950.89 338.841L1022.97 410.924M950.89 338.841H1022.97V410.924M1022.97 266.758H950.887M1022.97 266.758L950.887 194.676V266.758M1022.97 266.758V338.841M1022.97 266.758L1095.05 338.839M950.887 266.758V338.841H1022.97M1022.97 338.841L1095.05 338.839M1022.97 338.841V410.924M878.802 122.604V194.685H950.884M878.802 122.604L950.884 194.685M878.802 122.604L950.884 122.602M950.884 194.685V122.602M878.802 266.758V338.839M878.802 266.758L950.884 338.839M878.802 266.758H806.721M878.802 266.758L806.721 194.676V266.758M950.884 338.839H878.802M950.884 338.839V410.922M878.802 338.839L806.721 338.841V266.758M878.802 338.839V410.924M374.242 338.841V266.759H446.323L374.242 338.841ZM374.242 338.841V410.924M374.242 338.841L302.16 410.924M374.242 338.841H302.16V410.924M374.248 338.839H446.329M374.248 338.839L446.329 266.758V338.839M374.248 338.839V410.922M446.329 338.839L518.41 338.841V410.922M446.329 338.839V410.922M806.74 338.841V266.759H734.659L806.74 338.841ZM806.74 338.841V410.924M806.74 338.841L878.821 410.924M806.74 338.841H878.821V410.924M662.574 194.683L734.655 266.764V194.683M806.734 338.839H734.653M806.734 338.839L734.653 266.758V338.839M806.734 338.839V410.922M734.653 338.839L662.571 338.841V410.922M734.653 338.839V410.922M230.084 122.604H158.003M230.084 122.604V194.685H158.003V122.604M85.9178 338.841V266.759H157.999L85.9178 338.841ZM85.9178 338.841V410.924M85.9178 338.841L13.8365 410.924M85.9178 338.841H13.8365V410.924M13.8389 266.758H85.9202M13.8389 266.758L85.9202 194.676L85.9202 266.758M13.8389 266.758V338.841M13.8389 266.758L-58.2424 338.839M85.9202 266.758V338.841H13.8389M13.8389 338.841L-58.2424 338.839M13.8389 338.841V410.924M157.997 122.604V194.685H85.9154M157.997 122.604L85.9154 194.685M157.997 122.604L85.9154 122.602M85.9154 194.685V122.602M85.9154 338.839V410.922M950.89 122.604H1022.97M950.89 122.604V194.685H1022.97V122.604M1095.05 338.841V266.759H1022.97L1095.05 338.841ZM1095.05 338.841V410.924M1095.05 338.841L1167.13 410.924M1095.05 338.841H1167.13V410.924M1167.13 266.758H1095.05M1167.13 266.758L1095.05 194.676V266.758M1167.13 266.758V338.841M1167.13 266.758L1239.22 338.839M1095.05 266.758V338.841H1167.13M1167.13 338.841L1239.22 338.839M1167.13 338.841V410.924M1022.97 122.604V194.685H1095.05M1022.97 122.604L1095.05 194.685M1022.97 122.604L1095.05 122.602M1095.05 194.685V122.602M1095.05 338.839V410.922M85.9178 122.604H13.8365M85.9178 122.604V194.685H13.8365V122.604M-58.2483 338.841L-58.2483 266.759H13.833L-58.2483 338.841ZM-58.2483 338.841V410.924M-58.2483 338.841L-130.33 410.924M-58.2483 338.841H-130.33L-130.33 410.924M-130.327 266.758H-58.2459M-130.327 266.758L-58.2459 194.676V266.758M-130.327 266.758V338.841H-58.2459V266.758M13.8389 122.604V194.685H-58.2424M13.8389 122.604L-58.2424 194.685M13.8389 122.604L-58.2424 122.602M-58.2424 194.685V122.602M-58.2424 338.839V410.922M1095.05 122.604H1167.13M1095.05 122.604V194.685H1167.13V122.604M1239.21 338.841V266.759H1167.13L1239.21 338.841ZM1239.21 338.841V410.924M1239.21 338.841L1311.29 410.924M1239.21 338.841H1311.29V410.924M1311.29 266.758H1239.21M1311.29 266.758L1239.21 194.676V266.758M1311.29 266.758V338.841H1239.21V266.758M1167.13 122.604V194.685H1239.22M1167.13 122.604L1239.22 194.685M1167.13 122.604L1239.22 122.602M1239.22 194.685V122.602M1239.22 338.839V410.922M1239.21 122.604H1311.29M1239.21 122.604V194.685H1311.29V122.604M-58.2483 122.604H-130.33M-58.2483 122.604V194.685H-130.33V122.604M518.408 410.924H590.489M518.408 410.924V483.005H590.489V410.924M518.408 410.924V338.841L590.489 410.924M518.408 627.169V699.25M518.408 627.169L590.489 699.25H518.408M518.408 627.169V555.087H590.489L518.408 627.169ZM518.408 627.169H446.326V699.25H518.408M518.41 410.922H446.329M518.41 410.922V483.005M446.329 410.922L518.41 483.005M446.329 410.922V483.005M446.329 410.922H374.248M446.329 410.922L374.248 483.005M518.41 483.005V555.086M518.41 483.005L446.329 555.086M518.41 483.005H446.329M662.574 627.169V555.087H590.492L662.574 627.169ZM662.574 627.169H734.655V699.25H662.574V627.169ZM662.574 483.003V410.921H590.492L662.574 483.003ZM662.574 483.003H734.655V555.084L662.574 483.003ZM590.495 699.248V627.166M590.495 699.248L518.414 627.166M590.495 699.248L662.576 627.166H590.495M518.414 627.166H590.495M518.414 627.166L590.495 555.084M590.495 627.166V555.084M590.495 627.166L662.576 627.169M734.653 555.086H662.571M734.653 555.086L662.571 483.004M734.653 555.086V627.169M734.653 555.086L806.734 555.084V483.003H734.653V555.086ZM734.653 555.086L806.734 627.167M662.571 555.086V483.004M662.571 555.086V627.169H734.653M662.571 483.004V410.922M662.571 483.004L734.653 410.922M734.653 627.169L806.734 627.167M734.653 627.169V699.25H806.734V627.167M662.571 410.922H734.653M734.653 410.922H806.734M734.653 410.922L806.734 483.005M734.653 410.922V483.005H806.734M446.329 555.086H518.41M446.329 555.086V627.169M446.329 555.086L374.248 555.084V483.003H446.329V555.086ZM446.329 555.086L374.248 627.167M518.41 555.086V627.169H446.329M446.329 627.169L374.248 627.167M446.329 627.169V699.25H374.248V627.167M662.576 627.169V699.25H590.495L662.576 627.169ZM662.576 627.169L590.495 555.084M518.408 483.003H590.489V555.084M518.408 483.003L590.489 555.084M518.408 483.003H446.326V555.084L518.408 483.003ZM518.408 483.003V555.084H590.489M590.495 555.084H662.576V483.003H590.495V555.084ZM446.329 483.005H374.248M302.163 555.084H230.082V483.003H302.163V555.084ZM302.163 555.084V627.167M302.163 555.084L230.082 627.167M302.163 555.084L374.244 555.086M302.163 555.084L374.244 483.004V555.086M374.242 410.924H302.16M374.242 410.924V483.005H302.16V410.924M374.248 410.922V483.005M230.084 627.169V555.087H302.165L230.084 627.169ZM230.084 627.169V699.25H158.003M230.084 627.169L158.003 699.25M230.084 627.169H158.003V699.25M157.997 555.086H230.078M157.997 555.086L230.078 483.004V555.086M157.997 555.086V627.169M157.997 555.086L85.9154 555.084V483.003H157.997V555.086ZM157.997 555.086L85.9154 627.167M230.078 555.086V627.169H157.997M157.997 627.169L85.9154 627.167M157.997 627.169V699.25H85.9154V627.167M302.163 410.924V483.005H230.082M302.163 410.924L230.082 483.005M302.163 410.924L230.082 410.922M230.082 483.005V410.922M230.082 627.167H302.163M230.082 627.167V699.25H302.163V627.167M302.163 627.167L374.244 627.169V555.086M302.163 627.167V555.087L374.244 555.086M878.802 555.084H950.884V483.003H878.802V555.084ZM878.802 555.084V627.167M878.802 555.084L950.884 627.167M878.802 555.084L806.721 555.086M878.802 555.084L806.721 483.004V555.086M806.74 410.924H878.821M806.74 410.924V483.005H878.821V410.924M806.734 410.922V483.005M950.89 627.169V555.087H878.808L950.89 627.169ZM950.89 627.169V699.25H1022.97M950.89 627.169L1022.97 699.25M950.89 627.169H1022.97V699.25M1022.97 555.086H950.887M1022.97 555.086L950.887 483.004V555.086M1022.97 555.086V627.169M1022.97 555.086L1095.05 555.084V483.003H1022.97V555.086ZM1022.97 555.086L1095.05 627.167M950.887 555.086V627.169H1022.97M1022.97 627.169L1095.05 627.167M1022.97 627.169V699.25H1095.05V627.167M878.802 410.924V483.005H950.884M878.802 410.924L950.884 483.005M878.802 410.924L950.884 410.922M950.884 483.005V410.922M950.884 627.167H878.802M950.884 627.167V699.25H878.802V627.167M878.802 627.167L806.721 627.169V555.086M878.802 627.167V555.087L806.721 555.086M374.242 627.169V555.087H446.323L374.242 627.169ZM374.242 627.169V699.25H302.16M374.242 627.169L302.16 699.25M374.242 627.169H302.16V699.25M806.74 627.169V555.087H734.659L806.74 627.169ZM806.74 627.169V699.25H878.821M806.74 627.169L878.821 699.25M806.74 627.169H878.821V699.25M230.084 410.924H158.003M230.084 410.924V483.005H158.003V410.924M85.9178 627.169V555.087H157.999L85.9178 627.169ZM85.9178 627.169V699.25H13.8365M85.9178 627.169L13.8365 699.25M85.9178 627.169H13.8365V699.25M13.8389 555.086H85.9202M13.8389 555.086L85.9202 483.004L85.9202 555.086M13.8389 555.086V627.169M13.8389 555.086L-58.2424 555.084V483.003H13.8389V555.086ZM13.8389 555.086L-58.2424 627.167M85.9202 555.086V627.169H13.8389M13.8389 627.169L-58.2424 627.167M13.8389 627.169V699.25H-58.2424V627.167M157.997 410.924V483.005H85.9154M157.997 410.924L85.9154 483.005M157.997 410.924L85.9154 410.922M85.9154 483.005V410.922M950.89 410.924H1022.97M950.89 410.924V483.005H1022.97V410.924M1095.05 627.169V555.087H1022.97L1095.05 627.169ZM1095.05 627.169V699.25H1167.13M1095.05 627.169L1167.13 699.25M1095.05 627.169H1167.13V699.25M1167.13 555.086H1095.05M1167.13 555.086L1095.05 483.004V555.086M1167.13 555.086V627.169M1167.13 555.086L1239.22 555.084V483.003H1167.13V555.086ZM1167.13 555.086L1239.22 627.167M1095.05 555.086V627.169H1167.13M1167.13 627.169L1239.22 627.167M1167.13 627.169V699.25H1239.22V627.167M1022.97 410.924V483.005H1095.05M1022.97 410.924L1095.05 483.005M1022.97 410.924L1095.05 410.922M1095.05 483.005V410.922M85.9178 410.924H13.8365M85.9178 410.924V483.005H13.8365V410.924M-58.2483 627.169L-58.2483 555.087H13.833L-58.2483 627.169ZM-58.2483 627.169V699.25H-130.33M-58.2483 627.169L-130.33 699.25M-58.2483 627.169H-130.33V699.25M-130.327 555.086H-58.2459M-130.327 555.086L-58.2459 483.004V555.086M-130.327 555.086V627.169H-58.2459V555.086M13.8389 410.924V483.005H-58.2424M13.8389 410.924L-58.2424 483.005M13.8389 410.924L-58.2424 410.922M-58.2424 483.005V410.922M1095.05 410.924H1167.13M1095.05 410.924V483.005H1167.13V410.924M1239.21 627.169V555.087H1167.13L1239.21 627.169ZM1239.21 627.169V699.25H1311.29M1239.21 627.169L1311.29 699.25M1239.21 627.169H1311.29V699.25M1311.29 555.086H1239.21M1311.29 555.086L1239.21 483.004V555.086M1311.29 555.086V627.169H1239.21V555.086M1167.13 410.924V483.005H1239.22M1167.13 410.924L1239.22 483.005M1167.13 410.924L1239.22 410.922M1239.22 483.005V410.922M1239.21 410.924H1311.29M1239.21 410.924V483.005H1311.29V410.924M-58.2483 410.924H-130.33M-58.2483 410.924V483.005H-130.33V410.924M662.574 50.521V-21.5603H590.492L662.574 50.521ZM734.655 -165.724V-93.6428H662.574L734.655 -165.724ZM374.242 -93.6452H302.16V-21.5639L374.242 -93.6452ZM806.74 -93.6452H878.821V-21.5639L806.74 -93.6452ZM230.084 -93.6452H158.003V-21.5639L230.084 -93.6452ZM950.89 -93.6452H1022.97V-21.5639L950.89 -93.6452ZM85.9178 -93.6452H13.8365V-21.5639L85.9178 -93.6452ZM1095.05 -93.6452H1167.13V-21.5639L1095.05 -93.6452ZM1239.21 -93.6452H1311.29V-21.5639L1239.21 -93.6452ZM-58.2483 -93.6452H-130.33V-21.5639L-58.2483 -93.6452ZM302.163 194.683H230.082V266.764H302.163V194.683ZM374.242 194.683H302.16V266.764L374.242 194.683ZM878.802 194.683H950.884V266.764H878.802V194.683ZM806.74 194.683H878.821V266.764L806.74 194.683ZM446.329 194.683H374.248V266.764H446.329V194.683ZM518.408 194.683H446.326V266.764L518.408 194.683ZM734.653 194.683H806.734V266.764H734.653V194.683ZM157.997 194.683H85.9154V266.764H157.997V194.683ZM230.084 194.683H158.003V266.764L230.084 194.683ZM1022.97 194.683H1095.05V266.764H1022.97V194.683ZM950.89 194.683H1022.97V266.764L950.89 194.683ZM13.8389 194.683H-58.2424V266.764H13.8389V194.683ZM85.9178 194.683H13.8365V266.764L85.9178 194.683ZM1167.13 194.683H1239.22V266.764H1167.13V194.683ZM1095.05 194.683H1167.13V266.764L1095.05 194.683ZM1239.21 194.683H1311.29V266.764L1239.21 194.683ZM-58.2483 194.683H-130.33V266.764L-58.2483 194.683ZM734.655 410.924V483.005H662.574L734.655 410.924ZM374.242 483.003H302.16V555.084L374.242 483.003ZM806.74 483.003H878.821V555.084L806.74 483.003ZM230.084 483.003H158.003V555.084L230.084 483.003ZM950.89 483.003H1022.97V555.084L950.89 483.003ZM85.9178 483.003H13.8365V555.084L85.9178 483.003ZM1095.05 483.003H1167.13V555.084L1095.05 483.003ZM1239.21 483.003H1311.29V555.084L1239.21 483.003ZM-58.2483 483.003H-130.33V555.084L-58.2483 483.003Z" stroke="#1B2226"/>
</g>
<g filter="url(#filter0_dii_539_24057)">
<path d="M662.408 50.9627C662.782 50.5918 663.288 50.3838 663.815 50.3838H733.074C734.178 50.3838 735.074 51.2792 735.074 52.3838V121.638C735.074 122.168 734.863 122.676 734.489 123.051L663.078 194.588L662.995 124.456C662.993 123.355 662.103 122.462 661.002 122.458L590.464 122.208L662.408 50.9627Z" fill="url(#paint5_radial_539_24057)" fill-opacity="0.14" shape-rendering="crispEdges"/>
<path d="M662.408 50.9627C662.782 50.5918 663.288 50.3838 663.815 50.3838H733.074C734.178 50.3838 735.074 51.2792 735.074 52.3838V121.638C735.074 122.168 734.863 122.676 734.489 123.051L663.078 194.588L662.995 124.456C662.993 123.355 662.103 122.462 661.002 122.458L590.464 122.208L662.408 50.9627Z" fill="url(#paint6_angular_539_24057)" fill-opacity="0.39" style="mix-blend-mode:difference" shape-rendering="crispEdges"/>
<path d="M517.999 338.709C518.531 338.709 519.041 338.497 519.416 338.12L590.874 266.371L520.846 266.62C519.735 266.624 518.834 265.723 518.838 264.612L519.143 194.29L447.335 266.042C446.959 266.417 446.748 266.926 446.748 267.457V336.709C446.748 337.814 447.644 338.709 448.748 338.709H517.999Z" fill="url(#paint7_radial_539_24057)" fill-opacity="0.14" shape-rendering="crispEdges"/>
<path d="M517.999 338.709C518.531 338.709 519.041 338.497 519.416 338.12L590.874 266.371L520.846 266.62C519.735 266.624 518.834 265.723 518.838 264.612L519.143 194.29L447.335 266.042C446.959 266.417 446.748 266.926 446.748 267.457V336.709C446.748 337.814 447.644 338.709 448.748 338.709H517.999Z" fill="url(#paint8_angular_539_24057)" fill-opacity="0.39" style="mix-blend-mode:difference" shape-rendering="crispEdges"/>
<path d="M517.557 50.5294C518.086 50.5294 518.593 50.7386 518.968 51.1112L590.464 122.208L663.078 194.588L734.323 266.31C734.695 266.684 734.904 267.191 734.904 267.719V336.807C734.904 337.912 734.009 338.807 732.904 338.807H663.786C663.254 338.807 662.744 338.595 662.368 338.218L590.874 266.371L519.143 194.29L447.012 122.795C446.633 122.42 446.42 121.908 446.42 121.375V52.5294C446.42 51.4249 447.316 50.5295 448.42 50.5294L517.557 50.5294Z" fill="url(#paint9_radial_539_24057)" fill-opacity="0.14" shape-rendering="crispEdges"/>
<path d="M517.557 50.5294C518.086 50.5294 518.593 50.7386 518.968 51.1112L590.464 122.208L663.078 194.588L734.323 266.31C734.695 266.684 734.904 267.191 734.904 267.719V336.807C734.904 337.912 734.009 338.807 732.904 338.807H663.786C663.254 338.807 662.744 338.595 662.368 338.218L590.874 266.371L519.143 194.29L447.012 122.795C446.633 122.42 446.42 121.908 446.42 121.375V52.5294C446.42 51.4249 447.316 50.5295 448.42 50.5294L517.557 50.5294Z" fill="url(#paint10_angular_539_24057)" fill-opacity="0.39" style="mix-blend-mode:difference" shape-rendering="crispEdges"/>
<path d="M663.078 194.588L734.489 123.051C734.863 122.676 735.074 122.168 735.074 121.638V52.3838C735.074 51.2792 734.178 50.3838 733.074 50.3838H663.815C663.288 50.3838 662.782 50.5918 662.408 50.9627L590.464 122.208M663.078 194.588L662.995 124.456C662.993 123.355 662.103 122.462 661.002 122.458L590.464 122.208M663.078 194.588L590.464 122.208M663.078 194.588L734.323 266.31C734.695 266.684 734.904 267.191 734.904 267.719V336.807C734.904 337.912 734.009 338.807 732.904 338.807H663.786C663.254 338.807 662.744 338.595 662.368 338.218L590.874 266.371M590.464 122.208L518.968 51.1112C518.593 50.7386 518.086 50.5294 517.557 50.5294L448.42 50.5294C447.316 50.5295 446.42 51.4249 446.42 52.5294V121.375C446.42 121.908 446.633 122.42 447.012 122.795L519.143 194.29M590.874 266.371L519.416 338.12C519.041 338.497 518.531 338.709 517.999 338.709H448.748C447.644 338.709 446.748 337.814 446.748 336.709V267.457C446.748 266.926 446.959 266.417 447.335 266.042L519.143 194.29M590.874 266.371L520.846 266.62C519.735 266.624 518.834 265.723 518.838 264.612L519.143 194.29M590.874 266.371L519.143 194.29" stroke="url(#paint11_linear_539_24057)" shape-rendering="crispEdges"/>
</g>
</g>
<defs>
<filter id="filter0_dii_539_24057" x="388.77" y="-7.26621" width="403.953" height="403.723" filterUnits="userSpaceOnUse" color-interpolation-filters="sRGB">
<feFlood flood-opacity="0" result="BackgroundImageFix"/>
<feColorMatrix in="SourceAlpha" type="matrix" values="0 0 0 0 0 0 0 0 0 0 0 0 0 0 0 0 0 0 127 0" result="hardAlpha"/>
<feOffset/>
<feGaussianBlur stdDeviation="28.575"/>
<feComposite in2="hardAlpha" operator="out"/>
<feColorMatrix type="matrix" values="0 0 0 0 0 0 0 0 0 0 0 0 0 0 0 0 0 0 0.55 0"/>
<feBlend mode="normal" in2="BackgroundImageFix" result="effect1_dropShadow_539_24057"/>
<feBlend mode="normal" in="SourceGraphic" in2="effect1_dropShadow_539_24057" result="shape"/>
<feColorMatrix in="SourceAlpha" type="matrix" values="0 0 0 0 0 0 0 0 0 0 0 0 0 0 0 0 0 0 127 0" result="hardAlpha"/>
<feOffset dx="-2" dy="-2"/>
<feGaussianBlur stdDeviation="2"/>
<feComposite in2="hardAlpha" operator="arithmetic" k2="-1" k3="1"/>
<feColorMatrix type="matrix" values="0 0 0 0 0 0 0 0 0 0 0 0 0 0 0 0 0 0 0.25 0"/>
<feBlend mode="normal" in2="shape" result="effect2_innerShadow_539_24057"/>
<feColorMatrix in="SourceAlpha" type="matrix" values="0 0 0 0 0 0 0 0 0 0 0 0 0 0 0 0 0 0 127 0" result="hardAlpha"/>
<feOffset dx="2" dy="2"/>
<feGaussianBlur stdDeviation="2.5"/>
<feComposite in2="hardAlpha" operator="arithmetic" k2="-1" k3="1"/>
<feColorMatrix type="matrix" values="0 0 0 0 1 0 0 0 0 1 0 0 0 0 1 0 0 0 0.1 0"/>
<feBlend mode="normal" in2="effect2_innerShadow_539_24057" result="effect3_innerShadow_539_24057"/>
</filter>
<linearGradient id="paint0_linear_539_24057" x1="520.912" y1="-50.2277" x2="405.041" y2="393.147" gradientUnits="userSpaceOnUse">
<stop stop-color="#0E1315"/>
<stop offset="1" stop-color="#060809"/>
</linearGradient>
<linearGradient id="paint1_linear_539_24057" x1="503.664" y1="273.396" x2="605.582" y2="234.042" gradientUnits="userSpaceOnUse">
<stop stop-color="#090D0D"/>
<stop offset="1" stop-color="#070B0C" stop-opacity="0"/>
</linearGradient>
<linearGradient id="paint2_linear_539_24057" x1="791.664" y1="273.396" x2="893.582" y2="234.042" gradientUnits="userSpaceOnUse">
<stop stop-color="#090D0D"/>
<stop offset="1" stop-color="#070B0C" stop-opacity="0"/>
</linearGradient>
<linearGradient id="paint3_linear_539_24057" x1="343.062" y1="146.797" x2="444.981" y2="107.442" gradientUnits="userSpaceOnUse">
<stop stop-color="#090D0D"/>
<stop offset="1" stop-color="#070B0C" stop-opacity="0"/>
</linearGradient>
<radialGradient id="paint4_radial_539_24057" cx="0" cy="0" r="1" gradientUnits="userSpaceOnUse" gradientTransform="translate(586.482 246.487) rotate(90) scale(404.241 614.823)">
<stop stop-color="#D9D9D9"/>
<stop offset="1" stop-color="#D9D9D9" stop-opacity="0"/>
</radialGradient>
<radialGradient id="paint5_radial_539_24057" cx="0" cy="0" r="1" gradientUnits="userSpaceOnUse" gradientTransform="translate(451.422 55.6849) rotate(41.9428) scale(348.911 309.176)">
<stop stop-color="white"/>
<stop offset="0.194164" stop-color="white"/>
<stop offset="0.571134"/>
<stop offset="1" stop-color="#080808"/>
</radialGradient>
<radialGradient id="paint6_angular_539_24057" cx="0" cy="0" r="1" gradientUnits="userSpaceOnUse" gradientTransform="translate(663.06 194.021) rotate(43.8978) scale(212.741 212.885)">
<stop offset="0.00212703" stop-color="#262C2C"/>
<stop offset="0.249763" stop-color="#7E858D"/>
<stop offset="0.500815" stop-color="#9DA7A7"/>
<stop offset="0.504181" stop-color="#414B4B"/>
<stop offset="0.755338" stop-color="#979F9F"/>
<stop offset="0.998186" stop-color="#8FA8AA"/>
</radialGradient>
<radialGradient id="paint7_radial_539_24057" cx="0" cy="0" r="1" gradientUnits="userSpaceOnUse" gradientTransform="translate(451.422 55.6849) rotate(41.9428) scale(348.911 309.176)">
<stop stop-color="white"/>
<stop offset="0.194164" stop-color="white"/>
<stop offset="0.571134"/>
<stop offset="1" stop-color="#080808"/>
</radialGradient>
<radialGradient id="paint8_angular_539_24057" cx="0" cy="0" r="1" gradientUnits="userSpaceOnUse" gradientTransform="translate(663.06 194.021) rotate(43.8978) scale(212.741 212.885)">
<stop offset="0.00212703" stop-color="#262C2C"/>
<stop offset="0.249763" stop-color="#7E858D"/>
<stop offset="0.500815" stop-color="#9DA7A7"/>
<stop offset="0.504181" stop-color="#414B4B"/>
<stop offset="0.755338" stop-color="#979F9F"/>
<stop offset="0.998186" stop-color="#8FA8AA"/>
</radialGradient>
<radialGradient id="paint9_radial_539_24057" cx="0" cy="0" r="1" gradientUnits="userSpaceOnUse" gradientTransform="translate(451.422 55.6849) rotate(41.9428) scale(348.911 309.176)">
<stop stop-color="white"/>
<stop offset="0.194164" stop-color="white"/>
<stop offset="0.571134"/>
<stop offset="1" stop-color="#080808"/>
</radialGradient>
<radialGradient id="paint10_angular_539_24057" cx="0" cy="0" r="1" gradientUnits="userSpaceOnUse" gradientTransform="translate(663.06 194.021) rotate(43.8978) scale(212.741 212.885)">
<stop offset="0.00212703" stop-color="#262C2C"/>
<stop offset="0.249763" stop-color="#7E858D"/>
<stop offset="0.500815" stop-color="#9DA7A7"/>
<stop offset="0.504181" stop-color="#414B4B"/>
<stop offset="0.755338" stop-color="#979F9F"/>
<stop offset="0.998186" stop-color="#8FA8AA"/>
</radialGradient>
<linearGradient id="paint11_linear_539_24057" x1="488.235" y1="38.1482" x2="759.564" y2="315.766" gradientUnits="userSpaceOnUse">
<stop stop-color="#8A8A8A"/>
<stop offset="0.626409" stop-color="#3F4141"/>
<stop offset="0.995941" stop-color="#1E1E1E"/>
</linearGradient>
<clipPath id="clip0_539_24057">
<rect width="786" height="390" fill="white"/>
</clipPath>
</defs>
</svg>
