<svg width="349" height="174" viewBox="0 0 349 174" fill="none" xmlns="http://www.w3.org/2000/svg">
<g clip-path="url(#clip0_893_2402)">
<g clip-path="url(#clip1_893_2402)">
<rect width="677.634" height="194.243" transform="translate(-319 -11.6216)" fill="#171717"/>
<circle cx="20.4616" cy="10.5322" r="1.1657" fill="#212121"/>
<circle cx="44.9665" cy="10.5322" r="1.1657" fill="#212121"/>
<circle cx="69.4723" cy="10.5322" r="1.1657" fill="#212121"/>
<circle cx="93.9772" cy="10.5322" r="1.1657" fill="#212121"/>
<circle cx="118.483" cy="10.5322" r="1.1657" fill="#212121"/>
<circle cx="142.988" cy="10.5322" r="1.1657" fill="#212121"/>
<circle cx="167.493" cy="10.5322" r="1.1657" fill="#212121"/>
<circle cx="191.999" cy="10.5322" r="1.1657" fill="#212121"/>
<circle cx="216.504" cy="10.5322" r="1.1657" fill="#212121"/>
<circle cx="241.009" cy="10.5322" r="1.1657" fill="#212121"/>
<circle cx="265.514" cy="10.5322" r="1.1657" fill="#212121"/>
<circle cx="290.019" cy="10.5322" r="1.1657" fill="#212121"/>
<circle cx="314.525" cy="10.5322" r="1.1657" fill="#212121"/>
<circle cx="339.03" cy="10.5322" r="1.1657" fill="#212121"/>
<circle cx="20.4616" cy="35.0373" r="1.1657" fill="#212121"/>
<circle cx="44.9665" cy="35.0373" r="1.1657" fill="#212121"/>
<circle cx="69.4723" cy="35.0373" r="1.1657" fill="#212121"/>
<circle cx="93.9772" cy="35.0373" r="1.1657" fill="#212121"/>
<circle cx="118.483" cy="35.0373" r="1.1657" fill="#212121"/>
<circle cx="142.988" cy="35.0373" r="1.1657" fill="#212121"/>
<circle cx="167.493" cy="35.0373" r="1.1657" fill="#212121"/>
<circle cx="191.999" cy="35.0373" r="1.1657" fill="#212121"/>
<circle cx="216.504" cy="35.0373" r="1.1657" fill="#212121"/>
<circle cx="241.009" cy="35.0373" r="1.1657" fill="#212121"/>
<circle cx="265.514" cy="35.0373" r="1.1657" fill="#212121"/>
<circle cx="290.019" cy="35.0373" r="1.1657" fill="#212121"/>
<circle cx="314.525" cy="35.0373" r="1.1657" fill="#212121"/>
<circle cx="339.03" cy="35.0373" r="1.1657" fill="#212121"/>
<circle cx="20.4616" cy="59.5427" r="1.1657" fill="#212121"/>
<circle cx="44.9665" cy="59.5427" r="1.1657" fill="#212121"/>
<circle cx="69.4723" cy="59.5427" r="1.1657" fill="#212121"/>
<circle cx="93.9772" cy="59.5427" r="1.1657" fill="#212121"/>
<circle cx="118.483" cy="59.5427" r="1.1657" fill="#212121"/>
<circle cx="142.988" cy="59.5427" r="1.1657" fill="#212121"/>
<circle cx="167.493" cy="59.5427" r="1.1657" fill="#212121"/>
<circle cx="191.999" cy="59.5427" r="1.1657" fill="#212121"/>
<circle cx="216.504" cy="59.5427" r="1.1657" fill="#212121"/>
<circle cx="241.009" cy="59.5427" r="1.1657" fill="#212121"/>
<circle cx="265.514" cy="59.5427" r="1.1657" fill="#212121"/>
<circle cx="290.019" cy="59.5427" r="1.1657" fill="#212121"/>
<circle cx="314.525" cy="59.5427" r="1.1657" fill="#212121"/>
<circle cx="339.03" cy="59.5427" r="1.1657" fill="#212121"/>
<circle cx="20.4616" cy="84.0478" r="1.1657" fill="#212121"/>
<circle cx="44.9665" cy="84.0478" r="1.1657" fill="#212121"/>
<circle cx="69.4723" cy="84.048" r="1.1657" fill="#212121"/>
<circle cx="93.9772" cy="84.0478" r="1.1657" fill="#212121"/>
<circle cx="118.483" cy="84.0478" r="1.1657" fill="#212121"/>
<circle cx="142.988" cy="84.0478" r="1.1657" fill="#212121"/>
<circle cx="167.493" cy="84.0478" r="1.1657" fill="#212121"/>
<circle cx="191.999" cy="84.048" r="1.1657" fill="#212121"/>
<circle cx="216.504" cy="84.0478" r="1.1657" fill="#212121"/>
<circle cx="241.009" cy="84.0478" r="1.1657" fill="#212121"/>
<circle cx="265.514" cy="84.048" r="1.1657" fill="#212121"/>
<circle cx="290.019" cy="84.0478" r="1.1657" fill="#212121"/>
<circle cx="314.525" cy="84.048" r="1.1657" fill="#212121"/>
<circle cx="339.03" cy="84.0478" r="1.1657" fill="#212121"/>
<circle cx="20.4616" cy="108.553" r="1.1657" fill="#212121"/>
<circle cx="44.9665" cy="108.553" r="1.1657" fill="#212121"/>
<circle cx="69.4723" cy="108.553" r="1.1657" fill="#212121"/>
<circle cx="93.9772" cy="108.553" r="1.1657" fill="#212121"/>
<circle cx="118.483" cy="108.553" r="1.1657" fill="#212121"/>
<circle cx="142.988" cy="108.553" r="1.1657" fill="#212121"/>
<circle cx="167.493" cy="108.553" r="1.1657" fill="#212121"/>
<circle cx="191.999" cy="108.553" r="1.1657" fill="#212121"/>
<circle cx="216.504" cy="108.553" r="1.1657" fill="#212121"/>
<circle cx="241.009" cy="108.553" r="1.1657" fill="#212121"/>
<circle cx="265.514" cy="108.553" r="1.1657" fill="#212121"/>
<circle cx="290.019" cy="108.553" r="1.1657" fill="#212121"/>
<circle cx="314.525" cy="108.553" r="1.1657" fill="#212121"/>
<circle cx="339.03" cy="108.553" r="1.1657" fill="#212121"/>
<circle cx="20.4616" cy="133.059" r="1.1657" fill="#212121"/>
<circle cx="44.9665" cy="133.059" r="1.1657" fill="#212121"/>
<circle cx="69.4723" cy="133.059" r="1.1657" fill="#212121"/>
<circle cx="93.9772" cy="133.059" r="1.1657" fill="#212121"/>
<circle cx="118.483" cy="133.059" r="1.1657" fill="#212121"/>
<circle cx="142.988" cy="133.059" r="1.1657" fill="#212121"/>
<circle cx="167.493" cy="133.059" r="1.1657" fill="#212121"/>
<circle cx="191.999" cy="133.059" r="1.1657" fill="#212121"/>
<circle cx="216.504" cy="133.059" r="1.1657" fill="#212121"/>
<circle cx="241.009" cy="133.059" r="1.1657" fill="#212121"/>
<circle cx="265.514" cy="133.059" r="1.1657" fill="#212121"/>
<circle cx="290.019" cy="133.059" r="1.1657" fill="#212121"/>
<circle cx="314.525" cy="133.059" r="1.1657" fill="#212121"/>
<circle cx="339.03" cy="133.059" r="1.1657" fill="#212121"/>
<circle cx="20.4616" cy="157.564" r="1.1657" fill="#212121"/>
<circle cx="44.9665" cy="157.564" r="1.1657" fill="#212121"/>
<circle cx="69.4723" cy="157.564" r="1.1657" fill="#212121"/>
<circle cx="93.9772" cy="157.564" r="1.1657" fill="#212121"/>
<circle cx="118.483" cy="157.564" r="1.1657" fill="#212121"/>
<circle cx="142.988" cy="157.564" r="1.1657" fill="#212121"/>
<circle cx="167.493" cy="157.564" r="1.1657" fill="#212121"/>
<circle cx="191.999" cy="157.564" r="1.1657" fill="#212121"/>
<circle cx="216.504" cy="157.564" r="1.1657" fill="#212121"/>
<circle cx="241.009" cy="157.564" r="1.1657" fill="#212121"/>
<circle cx="265.514" cy="157.564" r="1.1657" fill="#212121"/>
<circle cx="290.019" cy="157.564" r="1.1657" fill="#212121"/>
<circle cx="314.525" cy="157.564" r="1.1657" fill="#212121"/>
<circle cx="339.03" cy="157.564" r="1.1657" fill="#212121"/>
<g clip-path="url(#clip2_893_2402)">
<rect x="238.785" y="21.5325" width="197.791" height="190.589" rx="3.54782" fill="#292929"/>
<rect width="197.791" height="26.6053" transform="translate(238.785 21.5325)" fill="#171717"/>
<path d="M249.91 29.1091H247.545C247.231 29.1091 246.93 29.2337 246.709 29.4555C246.487 29.6773 246.362 29.9781 246.362 30.2917V32.657M249.91 29.1091H255.823C256.137 29.1091 256.438 29.2337 256.659 29.4555C256.881 29.6773 257.006 29.9781 257.006 30.2917V32.657M249.91 29.1091V39.7526M246.362 32.657V38.57C246.362 38.8836 246.487 39.1844 246.709 39.4062C246.93 39.628 247.231 39.7526 247.545 39.7526H249.91M246.362 32.657H257.006M257.006 32.657V38.57C257.006 38.8836 256.881 39.1844 256.659 39.4062C256.438 39.628 256.137 39.7526 255.823 39.7526H249.91" stroke="#898989" stroke-width="0.886955" stroke-linecap="round" stroke-linejoin="round"/>
<path d="M265.39 36.2726C265.39 35.5643 265.909 35.1689 266.592 35.0701L267.663 34.9136C267.902 34.8806 267.968 34.7571 267.968 34.617C267.968 34.2299 267.713 33.9086 267.111 33.9086C266.568 33.9086 266.263 34.2464 266.213 34.7076L265.472 34.5347C265.554 33.7769 266.238 33.2497 267.095 33.2497C268.281 33.2497 268.742 33.9251 268.742 34.6994V36.6845C268.742 37.0304 268.775 37.2364 268.792 37.3352H268.034C268.017 37.2364 267.993 37.0881 267.993 36.7998C267.82 37.0799 267.424 37.4588 266.716 37.4588C265.909 37.4588 265.39 36.8986 265.39 36.2726ZM266.823 36.808C267.457 36.808 267.968 36.5033 267.968 35.6384V35.4572L266.757 35.6384C266.428 35.6878 266.18 35.8773 266.18 36.2315C266.18 36.528 266.428 36.808 266.823 36.808ZM270.714 38.9002H269.948V33.3732H270.698V33.991C270.912 33.5956 271.382 33.2826 272.024 33.2826C273.21 33.2826 273.844 34.1969 273.844 35.3501C273.844 36.528 273.161 37.4423 271.999 37.4423C271.39 37.4423 270.929 37.154 270.714 36.7998V38.9002ZM273.054 35.3501C273.054 34.5594 272.609 33.9663 271.884 33.9663C271.176 33.9663 270.706 34.5594 270.706 35.3501C270.706 36.1656 271.176 36.7504 271.884 36.7504C272.601 36.7504 273.054 36.1656 273.054 35.3501ZM275.597 38.9002H274.831V33.3732H275.581V33.991C275.795 33.5956 276.264 33.2826 276.907 33.2826C278.093 33.2826 278.727 34.1969 278.727 35.3501C278.727 36.528 278.043 37.4423 276.882 37.4423C276.272 37.4423 275.811 37.154 275.597 36.7998V38.9002ZM277.936 35.3501C277.936 34.5594 277.491 33.9663 276.767 33.9663C276.058 33.9663 275.589 34.5594 275.589 35.3501C275.589 36.1656 276.058 36.7504 276.767 36.7504C277.483 36.7504 277.936 36.1656 277.936 35.3501ZM280.488 37.3352H279.714V31.3717H280.488V37.3352ZM282.571 37.3352H281.805V33.3732H282.571V37.3352ZM281.632 31.8741C281.632 31.5611 281.879 31.314 282.184 31.314C282.497 31.314 282.744 31.5611 282.744 31.8741C282.744 32.1789 282.497 32.426 282.184 32.426C281.879 32.426 281.632 32.1789 281.632 31.8741ZM285.552 33.9663C284.926 33.9663 284.35 34.4276 284.35 35.3501C284.35 36.2562 284.918 36.7421 285.56 36.7421C286.302 36.7421 286.574 36.2397 286.664 35.9267L287.348 36.2232C287.158 36.7916 286.59 37.4588 285.56 37.4588C284.407 37.4588 283.559 36.5527 283.559 35.3501C283.559 34.1146 284.424 33.2497 285.552 33.2497C286.607 33.2497 287.15 33.9086 287.315 34.5099L286.615 34.8065C286.516 34.4193 286.228 33.9663 285.552 33.9663ZM287.969 36.2726C287.969 35.5643 288.488 35.1689 289.171 35.0701L290.242 34.9136C290.481 34.8806 290.547 34.7571 290.547 34.617C290.547 34.2299 290.292 33.9086 289.69 33.9086C289.147 33.9086 288.842 34.2464 288.793 34.7076L288.051 34.5347C288.134 33.7769 288.817 33.2497 289.674 33.2497C290.86 33.2497 291.321 33.9251 291.321 34.6994V36.6845C291.321 37.0304 291.354 37.2364 291.371 37.3352H290.613C290.596 37.2364 290.572 37.0881 290.572 36.7998C290.399 37.0799 290.003 37.4588 289.295 37.4588C288.488 37.4588 287.969 36.8986 287.969 36.2726ZM289.402 36.808C290.036 36.808 290.547 36.5033 290.547 35.6384V35.4572L289.336 35.6384C289.007 35.6878 288.76 35.8773 288.76 36.2315C288.76 36.528 289.007 36.808 289.402 36.808ZM293.302 35.0453V37.3352H292.527V33.3732H293.285V33.9416C293.574 33.4474 294.043 33.2579 294.504 33.2579C295.452 33.2579 295.921 33.9416 295.921 34.8229V37.3352H295.147V34.9547C295.147 34.4029 294.916 33.9581 294.224 33.9581C293.615 33.9581 293.302 34.444 293.302 35.0453ZM298.191 32.1212V33.3732H299.047V34.0734H298.191V36.1326C298.191 36.495 298.339 36.6763 298.742 36.6763C298.841 36.6763 298.981 36.6598 299.047 36.6433V37.3023C298.981 37.327 298.784 37.3764 298.52 37.3764C297.845 37.3764 297.416 36.9645 297.416 36.2479V34.0734H296.658V33.3732H296.873C297.301 33.3732 297.482 33.1097 297.482 32.7637V32.1212H298.191ZM299.75 36.3056L300.45 36.0585C300.5 36.4703 300.813 36.7998 301.373 36.7998C301.809 36.7998 302.048 36.5527 302.048 36.2726C302.048 36.0255 301.867 35.8361 301.538 35.762L300.862 35.6137C300.244 35.4819 299.874 35.0618 299.874 34.5017C299.874 33.8263 300.508 33.2497 301.282 33.2497C302.37 33.2497 302.707 33.9581 302.79 34.3123L302.106 34.5676C302.073 34.3617 301.908 33.9086 301.282 33.9086C300.887 33.9086 300.623 34.164 300.623 34.4358C300.623 34.6747 300.772 34.8477 301.076 34.9136L301.719 35.0536C302.435 35.2101 302.814 35.6466 302.814 36.2315C302.814 36.7916 302.345 37.4588 301.365 37.4588C300.277 37.4588 299.816 36.7586 299.75 36.3056Z" fill="#FAFAFA"/>
<rect width="197.791" height="26.6053" transform="translate(238.785 48.863)" fill="#1F1F1F"/>
<g clip-path="url(#clip3_893_2402)">
<path d="M252.349 58.4702L251.61 59.2093M251.61 59.2093L252.719 60.318L251.425 61.6115L250.317 60.5028M251.61 59.2093L250.317 60.5028M248.798 62.0217C248.988 62.21 249.14 62.4342 249.244 62.6813C249.348 62.9285 249.402 63.1937 249.403 63.4618C249.403 63.7299 249.351 63.9955 249.249 64.2433C249.147 64.4911 248.997 64.7163 248.807 64.9059C248.618 65.0954 248.393 65.2456 248.145 65.3478C247.897 65.45 247.631 65.5021 247.363 65.5012C247.095 65.5003 246.83 65.4464 246.583 65.3425C246.336 65.2387 246.111 65.087 245.923 64.8962C245.553 64.5129 245.348 63.9994 245.353 63.4665C245.357 62.9335 245.571 62.4237 245.948 62.0469C246.325 61.67 246.835 61.4562 247.367 61.4516C247.9 61.447 248.414 61.6518 248.797 62.0221L248.798 62.0217ZM248.798 62.0217L250.317 60.5028" stroke="#898989" stroke-width="0.709564" stroke-linecap="round" stroke-linejoin="round"/>
</g>
<path d="M267.538 61.537L264.731 58.7304C264.384 58.3826 263.82 58.3826 263.472 58.7304L260.665 61.537C260.317 61.8848 260.317 62.4487 260.665 62.7965L263.472 65.6031C263.82 65.951 264.384 65.951 264.731 65.6031L267.538 62.7965C267.886 62.4487 267.886 61.8848 267.538 61.537Z" fill="#898989"/>
<path d="M275.848 61.0736V60.3995H277.125L277.445 58.9183H278.19L277.87 60.3995H279.13L279.449 58.9183H280.194L279.875 60.3995H281.072V61.0736H279.733L279.431 62.4927H280.638V63.1668H279.281L278.961 64.6658H278.216L278.536 63.1668H277.276L276.957 64.6658H276.212L276.531 63.1668H275.414V62.4927H276.682L276.983 61.0736H275.848ZM277.728 61.0736L277.427 62.4927H278.686L278.988 61.0736H277.728Z" fill="#B4B4B4"/>
<rect width="197.791" height="26.6053" transform="translate(238.785 76.1938)" fill="#1F1F1F"/>
<g clip-path="url(#clip4_893_2402)">
<path d="M252.459 88.8678L249.652 86.0612C249.304 85.7134 248.74 85.7134 248.393 86.0612L245.586 88.8678C245.238 89.2156 245.238 89.7795 245.586 90.1273L248.393 92.9339C248.74 93.2818 249.304 93.2818 249.652 92.9339L252.459 90.1273C252.807 89.7795 252.807 89.2156 252.459 88.8678Z" fill="#898989"/>
</g>
<path d="M262.092 85.5484C262.376 85.5484 262.553 85.6105 262.589 85.6371V86.3822C262.545 86.3644 262.438 86.3289 262.225 86.3289C261.933 86.3289 261.551 86.462 261.551 87.0474V87.7303H264.372V91.9966H263.547V88.4842H261.551V91.9966H260.691V88.4842H259.901V87.7303H260.691V87.0119C260.691 86.0629 261.321 85.5484 262.092 85.5484ZM263.361 86.0983C263.361 85.7613 263.627 85.4952 263.955 85.4952C264.292 85.4952 264.558 85.7613 264.558 86.0983C264.558 86.4265 264.292 86.6926 263.955 86.6926C263.627 86.6926 263.361 86.4265 263.361 86.0983ZM268.155 87.686V88.5729C268.031 88.5552 267.906 88.5463 267.791 88.5463C267.09 88.5463 266.62 88.9188 266.62 89.859V91.9966H265.787V87.7303H266.603V88.4754C266.913 87.819 267.445 87.6594 267.88 87.6594C267.995 87.6594 268.11 87.6771 268.155 87.686ZM268.644 90.8879L269.398 90.6218C269.451 91.0653 269.788 91.4201 270.391 91.4201C270.862 91.4201 271.119 91.154 271.119 90.8524C271.119 90.5863 270.924 90.3823 270.569 90.3025L269.842 90.1428C269.176 90.0009 268.777 89.5486 268.777 88.9455C268.777 88.2182 269.46 87.5973 270.294 87.5973C271.465 87.5973 271.828 88.3601 271.917 88.7415L271.181 89.0164C271.145 88.7947 270.968 88.3068 270.294 88.3068C269.868 88.3068 269.584 88.5818 269.584 88.8745C269.584 89.1317 269.744 89.318 270.072 89.3889L270.764 89.5397C271.536 89.7082 271.944 90.1783 271.944 90.8081C271.944 91.4112 271.438 92.1296 270.383 92.1296C269.212 92.1296 268.715 91.3757 268.644 90.8879ZM274.171 86.3822V87.7303H275.094V88.4842H274.171V90.7016C274.171 91.0919 274.331 91.287 274.765 91.287C274.872 91.287 275.023 91.2693 275.094 91.2515V91.9611C275.023 91.9877 274.81 92.0409 274.526 92.0409C273.799 92.0409 273.337 91.5975 273.337 90.8258V88.4842H272.521V87.7303H272.752C273.213 87.7303 273.408 87.4465 273.408 87.074V86.3822H274.171ZM280.44 92.6973H275.899V91.9966H280.44V92.6973ZM282.116 89.5308V91.9966H281.282V87.7303H282.098V88.3423C282.409 87.8102 282.914 87.6062 283.411 87.6062C284.431 87.6062 284.937 88.3423 284.937 89.2914V91.9966H284.103V89.4333C284.103 88.839 283.854 88.3601 283.109 88.3601C282.453 88.3601 282.116 88.8834 282.116 89.5308ZM285.997 90.8524C285.997 90.0896 286.555 89.6639 287.292 89.5575L288.445 89.3889C288.702 89.3535 288.773 89.2204 288.773 89.0696C288.773 88.6528 288.498 88.3068 287.85 88.3068C287.265 88.3068 286.937 88.6705 286.884 89.1672L286.085 88.9809C286.174 88.1649 286.91 87.5973 287.833 87.5973C289.11 87.5973 289.607 88.3246 289.607 89.1583V91.2959C289.607 91.6684 289.642 91.8901 289.66 91.9966H288.844C288.826 91.8901 288.799 91.7305 288.799 91.4201C288.613 91.7216 288.187 92.1296 287.425 92.1296C286.555 92.1296 285.997 91.5265 285.997 90.8524ZM287.54 91.4289C288.223 91.4289 288.773 91.1008 288.773 90.1695V89.9743L287.469 90.1695C287.114 90.2227 286.848 90.4267 286.848 90.8081C286.848 91.1274 287.114 91.4289 287.54 91.4289ZM291.73 91.9966H290.905V87.7303H291.704V88.298C291.97 87.8279 292.502 87.6062 292.999 87.6062C293.531 87.6062 294.045 87.8634 294.276 88.4133C294.613 87.8013 295.163 87.6062 295.704 87.6062C296.449 87.6062 297.176 88.1117 297.176 89.2293V91.9966H296.351V89.318C296.351 88.7592 296.076 88.3423 295.447 88.3423C294.861 88.3423 294.462 88.8035 294.462 89.4155V91.9966H293.628V89.318C293.628 88.7681 293.362 88.3423 292.724 88.3423C292.129 88.3423 291.73 88.7858 291.73 89.4244V91.9966ZM299.051 89.4244H301.384C301.366 88.8124 300.967 88.3335 300.213 88.3335C299.513 88.3335 299.087 88.8745 299.051 89.4244ZM301.508 90.5331L302.227 90.7815C301.987 91.5354 301.304 92.1296 300.311 92.1296C299.167 92.1296 298.164 91.2959 298.164 89.8502C298.164 88.5108 299.131 87.5973 300.204 87.5973C301.517 87.5973 302.253 88.502 302.253 89.8324C302.253 89.9388 302.244 90.0453 302.236 90.0985H299.025C299.042 90.8613 299.592 91.3935 300.311 91.3935C301.003 91.3935 301.349 91.0121 301.508 90.5331Z" fill="#B4B4B4"/>
<rect width="197.791" height="26.6053" transform="translate(238.785 103.524)" fill="#1F1F1F"/>
<path d="M252.459 116.198L249.652 113.392C249.304 113.044 248.74 113.044 248.393 113.392L245.586 116.198C245.238 116.546 245.238 117.11 245.586 117.458L248.393 120.265C248.74 120.612 249.304 120.612 249.652 120.265L252.459 117.458C252.807 117.11 252.807 116.546 252.459 116.198Z" fill="#898989"/>
<path d="M261.625 119.327H260.791V112.906H261.625V119.327ZM262.777 118.183C262.777 117.42 263.336 116.994 264.072 116.888L265.225 116.72C265.482 116.684 265.553 116.551 265.553 116.4C265.553 115.983 265.278 115.637 264.631 115.637C264.045 115.637 263.717 116.001 263.664 116.498L262.866 116.312C262.954 115.496 263.691 114.928 264.613 114.928C265.89 114.928 266.387 115.655 266.387 116.489V118.626C266.387 118.999 266.422 119.221 266.44 119.327H265.624C265.606 119.221 265.58 119.061 265.58 118.751C265.394 119.052 264.968 119.46 264.205 119.46C263.336 119.46 262.777 118.857 262.777 118.183ZM264.32 118.759C265.003 118.759 265.553 118.431 265.553 117.5V117.305L264.249 117.5C263.895 117.553 263.629 117.757 263.629 118.139C263.629 118.458 263.895 118.759 264.32 118.759ZM267.287 118.218L268.041 117.952C268.094 118.396 268.431 118.751 269.034 118.751C269.504 118.751 269.761 118.485 269.761 118.183C269.761 117.917 269.566 117.713 269.211 117.633L268.484 117.473C267.819 117.331 267.42 116.879 267.42 116.276C267.42 115.549 268.103 114.928 268.936 114.928C270.107 114.928 270.471 115.691 270.56 116.072L269.823 116.347C269.788 116.125 269.611 115.637 268.936 115.637C268.511 115.637 268.227 115.912 268.227 116.205C268.227 116.462 268.387 116.649 268.715 116.72L269.407 116.87C270.178 117.039 270.586 117.509 270.586 118.139C270.586 118.742 270.081 119.46 269.025 119.46C267.854 119.46 267.358 118.706 267.287 118.218ZM272.814 113.713V115.061H273.736V115.815H272.814V118.032C272.814 118.422 272.973 118.618 273.408 118.618C273.514 118.618 273.665 118.6 273.736 118.582V119.292C273.665 119.318 273.452 119.371 273.169 119.371C272.441 119.371 271.98 118.928 271.98 118.156V115.815H271.164V115.061H271.395C271.856 115.061 272.051 114.777 272.051 114.405V113.713H272.814ZM279.082 120.028H274.541V119.327H279.082V120.028ZM280.758 116.861V119.327H279.925V115.061H280.741V115.673C281.051 115.141 281.557 114.937 282.053 114.937C283.073 114.937 283.579 115.673 283.579 116.622V119.327H282.745V116.764C282.745 116.17 282.497 115.691 281.752 115.691C281.096 115.691 280.758 116.214 280.758 116.861ZM284.639 118.183C284.639 117.42 285.198 116.994 285.934 116.888L287.087 116.72C287.344 116.684 287.415 116.551 287.415 116.4C287.415 115.983 287.14 115.637 286.493 115.637C285.907 115.637 285.579 116.001 285.526 116.498L284.728 116.312C284.817 115.496 285.553 114.928 286.475 114.928C287.752 114.928 288.249 115.655 288.249 116.489V118.626C288.249 118.999 288.285 119.221 288.302 119.327H287.486C287.469 119.221 287.442 119.061 287.442 118.751C287.256 119.052 286.83 119.46 286.067 119.46C285.198 119.46 284.639 118.857 284.639 118.183ZM286.182 118.759C286.865 118.759 287.415 118.431 287.415 117.5V117.305L286.111 117.5C285.757 117.553 285.491 117.757 285.491 118.139C285.491 118.458 285.757 118.759 286.182 118.759ZM290.373 119.327H289.548V115.061H290.346V115.629C290.612 115.158 291.144 114.937 291.641 114.937C292.173 114.937 292.688 115.194 292.918 115.744C293.255 115.132 293.805 114.937 294.346 114.937C295.091 114.937 295.819 115.442 295.819 116.56V119.327H294.994V116.649C294.994 116.09 294.719 115.673 294.089 115.673C293.504 115.673 293.105 116.134 293.105 116.746V119.327H292.271V116.649C292.271 116.099 292.005 115.673 291.366 115.673C290.772 115.673 290.373 116.116 290.373 116.755V119.327ZM297.694 116.755H300.027C300.009 116.143 299.61 115.664 298.856 115.664C298.155 115.664 297.729 116.205 297.694 116.755ZM300.151 117.864L300.869 118.112C300.63 118.866 299.947 119.46 298.953 119.46C297.809 119.46 296.807 118.626 296.807 117.181C296.807 115.841 297.774 114.928 298.847 114.928C300.16 114.928 300.896 115.833 300.896 117.163C300.896 117.269 300.887 117.376 300.878 117.429H297.667C297.685 118.192 298.235 118.724 298.953 118.724C299.645 118.724 299.991 118.343 300.151 117.864Z" fill="#B4B4B4"/>
<rect width="197.791" height="26.6053" transform="translate(238.785 130.855)" fill="#1F1F1F"/>
<path d="M252.459 143.529L249.652 140.723C249.304 140.375 248.74 140.375 248.393 140.723L245.586 143.529C245.238 143.877 245.238 144.441 245.586 144.789L248.393 147.595C248.74 147.943 249.304 147.943 249.652 147.595L252.459 144.789C252.807 144.441 252.807 143.877 252.459 143.529Z" fill="#898989"/>
<path d="M261.142 144.086H263.474C263.456 143.474 263.057 142.995 262.303 142.995C261.603 142.995 261.177 143.536 261.142 144.086ZM263.598 145.194L264.317 145.443C264.077 146.197 263.394 146.791 262.401 146.791C261.257 146.791 260.255 145.957 260.255 144.512C260.255 143.172 261.221 142.259 262.295 142.259C263.607 142.259 264.343 143.163 264.343 144.494C264.343 144.6 264.335 144.707 264.326 144.76H261.115C261.133 145.523 261.683 146.055 262.401 146.055C263.093 146.055 263.439 145.673 263.598 145.194ZM266.233 146.658H265.408V142.392H266.206V142.959C266.472 142.489 267.004 142.268 267.501 142.268C268.033 142.268 268.548 142.525 268.778 143.075C269.115 142.463 269.665 142.268 270.206 142.268C270.951 142.268 271.678 142.773 271.678 143.891V146.658H270.854V143.979C270.854 143.421 270.579 143.004 269.949 143.004C269.364 143.004 268.964 143.465 268.964 144.077V146.658H268.131V143.979C268.131 143.429 267.865 143.004 267.226 143.004C266.632 143.004 266.233 143.447 266.233 144.086V146.658ZM272.747 145.514C272.747 144.751 273.305 144.325 274.042 144.219L275.195 144.05C275.452 144.015 275.523 143.882 275.523 143.731C275.523 143.314 275.248 142.968 274.6 142.968C274.015 142.968 273.687 143.332 273.634 143.829L272.835 143.642C272.924 142.826 273.66 142.259 274.583 142.259C275.86 142.259 276.356 142.986 276.356 143.82V145.957C276.356 146.33 276.392 146.552 276.41 146.658H275.594C275.576 146.552 275.549 146.392 275.549 146.081C275.363 146.383 274.937 146.791 274.175 146.791C273.305 146.791 272.747 146.188 272.747 145.514ZM274.29 146.09C274.973 146.09 275.523 145.762 275.523 144.831V144.636L274.219 144.831C273.864 144.884 273.598 145.088 273.598 145.469C273.598 145.789 273.864 146.09 274.29 146.09ZM278.48 146.658H277.655V142.392H278.48V146.658ZM277.469 140.777C277.469 140.44 277.735 140.174 278.063 140.174C278.4 140.174 278.666 140.44 278.666 140.777C278.666 141.106 278.4 141.372 278.063 141.372C277.735 141.372 277.469 141.106 277.469 140.777ZM280.732 146.658H279.899V140.236H280.732V146.658Z" fill="#B4B4B4"/>
<rect width="197.791" height="26.6053" transform="translate(238.785 158.186)" fill="#1F1F1F"/>
<g clip-path="url(#clip5_893_2402)">
<path d="M252.459 170.86L249.652 168.053C249.304 167.705 248.74 167.705 248.393 168.053L245.586 170.86C245.238 171.208 245.238 171.771 245.586 172.119L248.393 174.926C248.74 175.274 249.304 175.274 249.652 174.926L252.459 172.119C252.807 171.771 252.807 171.208 252.459 170.86Z" stroke="#898989" stroke-width="0.709564" stroke-linecap="round" stroke-linejoin="round"/>
</g>
<path d="M261.65 175.674H260.825V169.722H261.632V170.387C261.863 169.962 262.368 169.625 263.06 169.625C264.337 169.625 265.02 170.609 265.02 171.851C265.02 173.119 264.284 174.104 263.033 174.104C262.377 174.104 261.88 173.793 261.65 173.412V175.674ZM264.169 171.851C264.169 170.999 263.69 170.361 262.909 170.361C262.146 170.361 261.641 170.999 261.641 171.851C261.641 172.729 262.146 173.359 262.909 173.359C263.681 173.359 264.169 172.729 264.169 171.851ZM266.916 171.478V173.989H266.082V167.567H266.916V170.219C267.227 169.767 267.723 169.598 268.211 169.598C269.231 169.598 269.737 170.334 269.737 171.283V173.989H268.903V171.425C268.903 170.831 268.655 170.352 267.91 170.352C267.271 170.352 266.934 170.849 266.916 171.478ZM272.89 173.377C273.6 173.377 274.22 172.844 274.22 171.851C274.22 170.866 273.6 170.334 272.89 170.334C272.18 170.334 271.56 170.866 271.56 171.851C271.56 172.844 272.18 173.377 272.89 173.377ZM272.89 169.589C274.167 169.589 275.072 170.556 275.072 171.851C275.072 173.155 274.167 174.122 272.89 174.122C271.613 174.122 270.708 173.155 270.708 171.851C270.708 170.556 271.613 169.589 272.89 169.589ZM276.972 171.523V173.989H276.139V169.722H276.955V170.334C277.265 169.802 277.771 169.598 278.267 169.598C279.287 169.598 279.793 170.334 279.793 171.283V173.989H278.959V171.425C278.959 170.831 278.711 170.352 277.966 170.352C277.309 170.352 276.972 170.875 276.972 171.523ZM281.66 171.416H283.993C283.975 170.804 283.576 170.325 282.822 170.325C282.121 170.325 281.696 170.866 281.66 171.416ZM284.117 172.525L284.835 172.773C284.596 173.527 283.913 174.122 282.92 174.122C281.775 174.122 280.773 173.288 280.773 171.842C280.773 170.503 281.74 169.589 282.813 169.589C284.126 169.589 284.862 170.494 284.862 171.824C284.862 171.931 284.853 172.037 284.844 172.09H281.634C281.651 172.853 282.201 173.385 282.92 173.385C283.611 173.385 283.957 173.004 284.117 172.525Z" fill="#B4B4B4"/>
</g>
<rect x="238.785" y="21.5325" width="197.791" height="190.589" rx="3.54782" stroke="#292929" stroke-width="0.514807"/>
<g clip-path="url(#clip6_893_2402)">
<rect x="0.486328" y="48.5354" width="197.791" height="190.589" rx="3.54782" fill="#292929"/>
<rect width="197.791" height="26.6053" transform="translate(0.486328 48.5354)" fill="#171717"/>
<path d="M11.6113 56.1121H9.24608C8.93244 56.1121 8.63164 56.2367 8.40985 56.4584C8.18807 56.6802 8.06348 56.981 8.06348 57.2947V59.6599M11.6113 56.1121H17.5243C17.838 56.1121 18.1388 56.2367 18.3606 56.4584C18.5823 56.6802 18.7069 56.981 18.7069 57.2947V59.6599M11.6113 56.1121V66.7555M8.06348 59.6599V65.5729C8.06348 65.8866 8.18807 66.1874 8.40985 66.4091C8.63164 66.6309 8.93244 66.7555 9.24608 66.7555H11.6113M8.06348 59.6599H18.7069M18.7069 59.6599V65.5729C18.7069 65.8866 18.5823 66.1874 18.3606 66.4091C18.1388 66.6309 17.838 66.7555 17.5243 66.7555H11.6113" stroke="#898989" stroke-width="0.886955" stroke-linecap="round" stroke-linejoin="round"/>
<path d="M26.7125 63.2756C26.7125 62.5672 27.2314 62.1718 27.915 62.073L28.9858 61.9165C29.2247 61.8835 29.2906 61.76 29.2906 61.62C29.2906 61.2328 29.0353 60.9116 28.434 60.9116C27.8903 60.9116 27.5856 61.2493 27.5361 61.7106L26.7948 61.5376C26.8772 60.7798 27.5609 60.2526 28.4175 60.2526C29.6036 60.2526 30.0649 60.9281 30.0649 61.7023V63.6874C30.0649 64.0334 30.0978 64.2393 30.1143 64.3381H29.3565C29.34 64.2393 29.3153 64.091 29.3153 63.8027C29.1423 64.0828 28.747 64.4617 28.0386 64.4617C27.2314 64.4617 26.7125 63.9016 26.7125 63.2756ZM28.1457 63.811C28.7799 63.811 29.2906 63.5062 29.2906 62.6413V62.4601L28.0798 62.6413C27.7503 62.6908 27.5032 62.8802 27.5032 63.2344C27.5032 63.5309 27.7503 63.811 28.1457 63.811ZM32.0371 65.9031H31.2711V60.3762H32.0206V60.9939C32.2348 60.5986 32.7043 60.2856 33.3468 60.2856C34.5329 60.2856 35.1671 61.1999 35.1671 62.353C35.1671 63.5309 34.4835 64.4452 33.3221 64.4452C32.7125 64.4452 32.2513 64.1569 32.0371 63.8027V65.9031ZM34.3764 62.353C34.3764 61.5623 33.9316 60.9692 33.2067 60.9692C32.4984 60.9692 32.0289 61.5623 32.0289 62.353C32.0289 63.1685 32.4984 63.7533 33.2067 63.7533C33.9234 63.7533 34.3764 63.1685 34.3764 62.353ZM36.9197 65.9031H36.1537V60.3762H36.9033V60.9939C37.1174 60.5986 37.5869 60.2856 38.2294 60.2856C39.4155 60.2856 40.0498 61.1999 40.0498 62.353C40.0498 63.5309 39.3661 64.4452 38.2047 64.4452C37.5952 64.4452 37.1339 64.1569 36.9197 63.8027V65.9031ZM39.259 62.353C39.259 61.5623 38.8142 60.9692 38.0894 60.9692C37.381 60.9692 36.9115 61.5623 36.9115 62.353C36.9115 63.1685 37.381 63.7533 38.0894 63.7533C38.806 63.7533 39.259 63.1685 39.259 62.353ZM41.8106 64.3381H41.0363V58.3746H41.8106V64.3381ZM43.8938 64.3381H43.1277V60.3762H43.8938V64.3381ZM42.9547 58.8771C42.9547 58.5641 43.2019 58.3169 43.5066 58.3169C43.8196 58.3169 44.0667 58.5641 44.0667 58.8771C44.0667 59.1818 43.8196 59.4289 43.5066 59.4289C43.2019 59.4289 42.9547 59.1818 42.9547 58.8771ZM46.8749 60.9692C46.2489 60.9692 45.6724 61.4305 45.6724 62.353C45.6724 63.2591 46.2407 63.7451 46.8832 63.7451C47.6245 63.7451 47.8963 63.2426 47.9869 62.9296L48.6706 63.2262C48.4811 63.7945 47.9128 64.4617 46.8832 64.4617C45.73 64.4617 44.8816 63.5556 44.8816 62.353C44.8816 61.1175 45.7465 60.2526 46.8749 60.2526C47.9293 60.2526 48.4729 60.9116 48.6376 61.5129L47.9375 61.8094C47.8387 61.4223 47.5504 60.9692 46.8749 60.9692ZM49.2916 63.2756C49.2916 62.5672 49.8105 62.1718 50.4942 62.073L51.565 61.9165C51.8038 61.8835 51.8697 61.76 51.8697 61.62C51.8697 61.2328 51.6144 60.9116 51.0131 60.9116C50.4695 60.9116 50.1647 61.2493 50.1153 61.7106L49.3739 61.5376C49.4563 60.7798 50.14 60.2526 50.9966 60.2526C52.1827 60.2526 52.644 60.9281 52.644 61.7023V63.6874C52.644 64.0334 52.6769 64.2393 52.6934 64.3381H51.9356C51.9192 64.2393 51.8944 64.091 51.8944 63.8027C51.7215 64.0828 51.3261 64.4617 50.6177 64.4617C49.8105 64.4617 49.2916 63.9016 49.2916 63.2756ZM50.7248 63.811C51.359 63.811 51.8697 63.5062 51.8697 62.6413V62.4601L50.6589 62.6413C50.3294 62.6908 50.0823 62.8802 50.0823 63.2344C50.0823 63.5309 50.3294 63.811 50.7248 63.811ZM54.888 59.1242V60.3762H55.7447V61.0763H54.888V63.1355C54.888 63.498 55.0363 63.6792 55.4399 63.6792C55.5388 63.6792 55.6788 63.6627 55.7447 63.6462V64.3052C55.6788 64.3299 55.4811 64.3793 55.2175 64.3793C54.5421 64.3793 54.1138 63.9675 54.1138 63.2509V61.0763H53.356V60.3762H53.5701C53.9985 60.3762 54.1797 60.1126 54.1797 59.7666V59.1242H54.888ZM57.5442 64.3381H56.7782V60.3762H57.5442V64.3381ZM56.6052 58.8771C56.6052 58.5641 56.8523 58.3169 57.1571 58.3169C57.4701 58.3169 57.7172 58.5641 57.7172 58.8771C57.7172 59.1818 57.4701 59.4289 57.1571 59.4289C56.8523 59.4289 56.6052 59.1818 56.6052 58.8771ZM60.5583 63.7698C61.2173 63.7698 61.7939 63.2756 61.7939 62.353C61.7939 61.4387 61.2173 60.9445 60.5583 60.9445C59.8994 60.9445 59.3228 61.4387 59.3228 62.353C59.3228 63.2756 59.8994 63.7698 60.5583 63.7698ZM60.5583 60.2526C61.7444 60.2526 62.5846 61.1504 62.5846 62.353C62.5846 63.5639 61.7444 64.4617 60.5583 64.4617C59.3722 64.4617 58.532 63.5639 58.532 62.353C58.532 61.1504 59.3722 60.2526 60.5583 60.2526ZM64.3495 62.0483V64.3381H63.5752V60.3762H64.333V60.9445C64.6213 60.4503 65.0908 60.2609 65.5521 60.2609C66.4993 60.2609 66.9688 60.9445 66.9688 61.8259V64.3381H66.1946V61.9577C66.1946 61.4058 65.9639 60.961 65.272 60.961C64.6625 60.961 64.3495 61.447 64.3495 62.0483ZM67.8298 63.3085L68.5299 63.0614C68.5793 63.4733 68.8923 63.8027 69.4525 63.8027C69.889 63.8027 70.1279 63.5556 70.1279 63.2756C70.1279 63.0285 69.9467 62.839 69.6172 62.7649L68.9418 62.6166C68.324 62.4848 67.9533 62.0647 67.9533 61.5046C67.9533 60.8292 68.5876 60.2526 69.3618 60.2526C70.4491 60.2526 70.7868 60.961 70.8692 61.3152L70.1855 61.5705C70.1526 61.3646 69.9879 60.9116 69.3618 60.9116C68.9665 60.9116 68.7029 61.1669 68.7029 61.4387C68.7029 61.6776 68.8512 61.8506 69.1559 61.9165L69.7984 62.0565C70.515 62.213 70.8939 62.6496 70.8939 63.2344C70.8939 63.7945 70.4244 64.4617 69.4442 64.4617C68.3569 64.4617 67.8957 63.7616 67.8298 63.3085Z" fill="#FAFAFA"/>
<rect width="197.791" height="26.6053" transform="translate(0.486328 75.866)" fill="#1F1F1F"/>
<g clip-path="url(#clip7_893_2402)">
<path d="M14.0493 85.4729L13.3102 86.212M13.3102 86.212L14.4189 87.3207L13.1254 88.6142L12.0167 87.5055M13.3102 86.212L12.0167 87.5055M10.4978 89.0244C10.6886 89.2127 10.8403 89.4369 10.9441 89.684C11.048 89.9312 11.1019 90.1964 11.1028 90.4645C11.1037 90.7325 11.0515 90.9981 10.9494 91.246C10.8472 91.4938 10.697 91.719 10.5074 91.9086C10.3179 92.0981 10.0927 92.2483 9.84488 92.3505C9.59704 92.4526 9.33144 92.5048 9.06337 92.5039C8.7953 92.503 8.53005 92.4491 8.28291 92.3452C8.03576 92.2414 7.81159 92.0897 7.62331 91.8989C7.25306 91.5155 7.04818 91.0021 7.05281 90.4692C7.05744 89.9362 7.27121 89.4264 7.64807 89.0495C8.02493 88.6727 8.53474 88.4589 9.06768 88.4543C9.60062 88.4497 10.1141 88.6545 10.4974 89.0248L10.4978 89.0244ZM10.4978 89.0244L12.0167 87.5055" stroke="#898989" stroke-width="0.709564" stroke-linecap="round" stroke-linejoin="round"/>
</g>
<path d="M29.2381 88.5399L26.4315 85.7333C26.0837 85.3855 25.5198 85.3855 25.172 85.7333L22.3654 88.5399C22.0176 88.8877 22.0176 89.4516 22.3654 89.7995L25.172 92.6061C25.5198 92.9539 26.0837 92.9539 26.4315 92.6061L29.2381 89.7995C29.586 89.4516 29.586 88.8877 29.2381 88.5399Z" fill="#898989"/>
<path d="M37.5493 88.0765V87.4024H38.8265L39.1458 85.9212H39.8908L39.5715 87.4024H40.831L41.1503 85.9212H41.8954L41.5761 87.4024H42.7735V88.0765H41.4341L41.1326 89.4957H42.3388V90.1697H40.9818L40.6625 91.6687H39.9175L40.2368 90.1697H38.9773L38.658 91.6687H37.9129L38.2322 90.1697H37.1147V89.4957H38.383L38.6846 88.0765H37.5493ZM39.4296 88.0765L39.1281 89.4957H40.3875L40.6891 88.0765H39.4296Z" fill="#B4B4B4"/>
<path d="M175.331 86.6442C175.101 86.6442 174.939 86.5975 174.845 86.5042C174.758 86.4108 174.714 86.2955 174.714 86.1582V85.9852C174.714 85.8479 174.758 85.7326 174.845 85.6393C174.939 85.5459 175.098 85.4993 175.323 85.4993C175.554 85.4993 175.713 85.5459 175.801 85.6393C175.894 85.7326 175.941 85.8479 175.941 85.9852V86.1582C175.941 86.2955 175.894 86.4108 175.801 86.5042C175.713 86.5975 175.557 86.6442 175.331 86.6442ZM173.429 90.9439H174.878V88.1433H173.429V87.4185H175.776V90.9439H177.135V91.6687H173.429V90.9439ZM178.228 91.6687V87.4185H179.125V88.1433H179.167C179.211 88.0335 179.265 87.9291 179.331 87.8303C179.403 87.726 179.488 87.6381 179.587 87.5667C179.686 87.4898 179.801 87.4294 179.933 87.3855C180.064 87.3416 180.218 87.3196 180.394 87.3196C180.822 87.3196 181.168 87.4596 181.432 87.7397C181.695 88.0197 181.827 88.4179 181.827 88.934V91.6687H180.929V89.0658C180.929 88.3904 180.636 88.0527 180.048 88.0527C179.933 88.0527 179.82 88.0692 179.71 88.1021C179.6 88.1296 179.502 88.1735 179.414 88.2339C179.326 88.2943 179.254 88.3712 179.2 88.4645C179.15 88.5579 179.125 88.665 179.125 88.7858V91.6687H178.228ZM185.201 91.6687C184.828 91.6687 184.553 91.5699 184.377 91.3722C184.202 91.169 184.114 90.9082 184.114 90.5897V88.1433H182.804V87.4185H183.735C183.894 87.4185 184.007 87.3883 184.073 87.3278C184.138 87.262 184.171 87.1466 184.171 86.9819V85.9193H185.012V87.4185H186.824V88.1433H185.012V90.9439H186.824V91.6687H185.201ZM189.885 91.7675C189.544 91.7675 189.245 91.7264 188.987 91.644C188.729 91.5561 188.512 91.4381 188.336 91.2898C188.16 91.1415 188.026 90.9658 187.932 90.7626C187.845 90.5595 187.801 90.3371 187.801 90.0955C187.801 89.7111 187.908 89.4035 188.122 89.1729C188.336 88.9423 188.616 88.7803 188.962 88.6869V88.621C188.666 88.5167 188.427 88.352 188.245 88.1268C188.064 87.9017 187.974 87.6244 187.974 87.2949C187.974 86.8501 188.138 86.4932 188.468 86.2241C188.803 85.955 189.275 85.8205 189.885 85.8205C190.494 85.8205 190.964 85.955 191.293 86.2241C191.628 86.4932 191.796 86.8501 191.796 87.2949C191.796 87.6244 191.705 87.9017 191.524 88.1268C191.343 88.352 191.104 88.5167 190.807 88.621V88.6869C191.153 88.7803 191.433 88.9423 191.647 89.1729C191.861 89.4035 191.969 89.7111 191.969 90.0955C191.969 90.3371 191.922 90.5595 191.829 90.7626C191.741 90.9658 191.609 91.1415 191.433 91.2898C191.257 91.4381 191.041 91.5561 190.782 91.644C190.524 91.7264 190.225 91.7675 189.885 91.7675ZM189.885 91.0345C190.247 91.0345 190.524 90.9548 190.717 90.7956C190.914 90.6363 191.013 90.4112 191.013 90.1202V89.9472C191.013 89.6561 190.914 89.431 190.717 89.2718C190.524 89.1125 190.247 89.0329 189.885 89.0329C189.522 89.0329 189.242 89.1125 189.044 89.2718C188.852 89.431 188.756 89.6561 188.756 89.9472V90.1202C188.756 90.4112 188.852 90.6363 189.044 90.7956C189.242 90.9548 189.522 91.0345 189.885 91.0345ZM189.885 88.3245C190.214 88.3245 190.464 88.2531 190.634 88.1104C190.81 87.9621 190.898 87.7562 190.898 87.4926V87.3855C190.898 87.1219 190.81 86.9187 190.634 86.776C190.464 86.6277 190.214 86.5536 189.885 86.5536C189.555 86.5536 189.303 86.6277 189.127 86.776C188.957 86.9187 188.871 87.1219 188.871 87.3855V87.4926C188.871 87.7562 188.957 87.9621 189.127 88.1104C189.303 88.2531 189.555 88.3245 189.885 88.3245Z" fill="#4D4D4D"/>
<rect width="197.791" height="26.6053" transform="translate(0.486328 103.197)" fill="#1F1F1F"/>
<g clip-path="url(#clip8_893_2402)">
<path d="M14.16 115.871L11.3534 113.064C11.0056 112.716 10.4417 112.716 10.0938 113.064L7.28725 115.871C6.93943 116.219 6.93943 116.782 7.28725 117.13L10.0938 119.937C10.4417 120.285 11.0056 120.285 11.3534 119.937L14.16 117.13C14.5078 116.782 14.5078 116.219 14.16 115.871Z" fill="#898989"/>
</g>
<path d="M21.9993 117.855C21.9993 117.093 22.5581 116.667 23.2943 116.56L24.4473 116.392C24.7045 116.356 24.7755 116.223 24.7755 116.073C24.7755 115.656 24.5005 115.31 23.853 115.31C23.2677 115.31 22.9395 115.673 22.8863 116.17L22.088 115.984C22.1767 115.168 22.9129 114.6 23.8353 114.6C25.1125 114.6 25.6092 115.328 25.6092 116.161V118.299C25.6092 118.671 25.6447 118.893 25.6624 119H24.8464C24.8287 118.893 24.8021 118.733 24.8021 118.423C24.6158 118.725 24.1901 119.133 23.4273 119.133C22.5581 119.133 21.9993 118.529 21.9993 117.855ZM23.5426 118.432C24.2256 118.432 24.7755 118.104 24.7755 117.172V116.977L23.4717 117.172C23.1169 117.226 22.8508 117.43 22.8508 117.811C22.8508 118.13 23.1169 118.432 23.5426 118.432ZM27.7329 120.685H26.9081V114.733H27.7152V115.398C27.9458 114.973 28.4514 114.636 29.1432 114.636C30.4204 114.636 31.1033 115.62 31.1033 116.862C31.1033 118.13 30.3672 119.115 29.1166 119.115C28.4602 119.115 27.9635 118.804 27.7329 118.423V120.685ZM30.2519 116.862C30.2519 116.01 29.7729 115.372 28.9924 115.372C28.2296 115.372 27.724 116.01 27.724 116.862C27.724 117.74 28.2296 118.37 28.9924 118.37C29.764 118.37 30.2519 117.74 30.2519 116.862ZM32.9906 120.685H32.1657V114.733H32.9728V115.398C33.2034 114.973 33.709 114.636 34.4008 114.636C35.678 114.636 36.361 115.62 36.361 116.862C36.361 118.13 35.6248 119.115 34.3742 119.115C33.7179 119.115 33.2212 118.804 32.9906 118.423V120.685ZM35.5095 116.862C35.5095 116.01 35.0306 115.372 34.25 115.372C33.4872 115.372 32.9817 116.01 32.9817 116.862C32.9817 117.74 33.4872 118.37 34.25 118.37C35.0217 118.37 35.5095 117.74 35.5095 116.862ZM38.2571 119H37.4233V112.578H38.2571V119ZM40.5002 119H39.6754V114.733H40.5002V119ZM39.4891 113.119C39.4891 112.782 39.7552 112.516 40.0834 112.516C40.4204 112.516 40.6865 112.782 40.6865 113.119C40.6865 113.447 40.4204 113.713 40.0834 113.713C39.7552 113.713 39.4891 113.447 39.4891 113.119ZM43.7104 115.372C43.0363 115.372 42.4154 115.869 42.4154 116.862C42.4154 117.838 43.0274 118.361 43.7192 118.361C44.5175 118.361 44.8102 117.82 44.9078 117.483L45.6439 117.802C45.4399 118.414 44.8279 119.133 43.7192 119.133C42.4775 119.133 41.5639 118.157 41.5639 116.862C41.5639 115.532 42.4952 114.6 43.7104 114.6C44.8457 114.6 45.4311 115.31 45.6085 115.957L44.8545 116.277C44.7481 115.86 44.4377 115.372 43.7104 115.372ZM46.3126 117.855C46.3126 117.093 46.8714 116.667 47.6076 116.56L48.7606 116.392C49.0178 116.356 49.0888 116.223 49.0888 116.073C49.0888 115.656 48.8138 115.31 48.1664 115.31C47.581 115.31 47.2528 115.673 47.1996 116.17L46.4013 115.984C46.49 115.168 47.2262 114.6 48.1486 114.6C49.4258 114.6 49.9225 115.328 49.9225 116.161V118.299C49.9225 118.671 49.958 118.893 49.9757 119H49.1597C49.142 118.893 49.1154 118.733 49.1154 118.423C48.9291 118.725 48.5034 119.133 47.7406 119.133C46.8714 119.133 46.3126 118.529 46.3126 117.855ZM47.8559 118.432C48.5389 118.432 49.0888 118.104 49.0888 117.172V116.977L47.785 117.172C47.4302 117.226 47.1641 117.43 47.1641 117.811C47.1641 118.13 47.4302 118.432 47.8559 118.432ZM52.0551 116.534V119H51.2214V114.733H52.0374V115.345C52.3478 114.813 52.8534 114.609 53.3501 114.609C54.3701 114.609 54.8756 115.345 54.8756 116.294V119H54.0419V116.436C54.0419 115.842 53.7935 115.363 53.0485 115.363C52.3921 115.363 52.0551 115.886 52.0551 116.534ZM57.3194 113.385V114.733H58.2418V115.487H57.3194V117.705C57.3194 118.095 57.479 118.29 57.9136 118.29C58.0201 118.29 58.1709 118.272 58.2418 118.254V118.964C58.1709 118.991 57.958 119.044 57.6742 119.044C56.9469 119.044 56.4856 118.6 56.4856 117.829V115.487H55.6696V114.733H55.9003C56.3615 114.733 56.5566 114.449 56.5566 114.077V113.385H57.3194ZM63.5879 119.7H59.0467V119H63.5879V119.7ZM65.2553 119H64.4304V114.733H65.2553V119ZM64.2442 113.119C64.2442 112.782 64.5102 112.516 64.8384 112.516C65.1755 112.516 65.4415 112.782 65.4415 113.119C65.4415 113.447 65.1755 113.713 64.8384 113.713C64.5102 113.713 64.2442 113.447 64.2442 113.119ZM67.1705 116.853C67.1705 117.731 67.6228 118.379 68.4211 118.379C69.1839 118.379 69.654 117.713 69.654 116.835C69.654 115.957 69.1927 115.354 68.43 115.354C67.6672 115.354 67.1705 115.975 67.1705 116.853ZM69.6628 118.423V118.352C69.4588 118.76 69.0065 119.115 68.3413 119.115C67.0907 119.115 66.319 118.121 66.319 116.853C66.319 115.647 67.135 114.618 68.3413 114.618C69.0952 114.618 69.5032 114.99 69.6451 115.336V112.578H70.47V118.21C70.47 118.618 70.5054 118.929 70.5143 119H69.7072C69.6894 118.902 69.6628 118.68 69.6628 118.423Z" fill="#B4B4B4"/>
<path d="M175.331 113.975C175.101 113.975 174.939 113.928 174.845 113.835C174.758 113.742 174.714 113.626 174.714 113.489V113.316C174.714 113.179 174.758 113.063 174.845 112.97C174.939 112.877 175.098 112.83 175.323 112.83C175.554 112.83 175.713 112.877 175.801 112.97C175.894 113.063 175.941 113.179 175.941 113.316V113.489C175.941 113.626 175.894 113.742 175.801 113.835C175.713 113.928 175.557 113.975 175.331 113.975ZM173.429 118.275H174.878V115.474H173.429V114.749H175.776V118.275H177.135V119H173.429V118.275ZM178.228 119V114.749H179.125V115.474H179.167C179.211 115.364 179.265 115.26 179.331 115.161C179.403 115.057 179.488 114.969 179.587 114.898C179.686 114.821 179.801 114.76 179.933 114.716C180.064 114.672 180.218 114.65 180.394 114.65C180.822 114.65 181.168 114.79 181.432 115.071C181.695 115.351 181.827 115.749 181.827 116.265V119H180.929V116.397C180.929 115.721 180.636 115.384 180.048 115.384C179.933 115.384 179.82 115.4 179.71 115.433C179.6 115.46 179.502 115.504 179.414 115.565C179.326 115.625 179.254 115.702 179.2 115.795C179.15 115.889 179.125 115.996 179.125 116.117V119H178.228ZM185.201 119C184.828 119 184.553 118.901 184.377 118.703C184.202 118.5 184.114 118.239 184.114 117.92V115.474H182.804V114.749H183.735C183.894 114.749 184.007 114.719 184.073 114.659C184.138 114.593 184.171 114.477 184.171 114.313V113.25H185.012V114.749H186.824V115.474H185.012V118.275H186.824V119H185.201ZM189.885 119.098C189.544 119.098 189.245 119.057 188.987 118.975C188.729 118.887 188.512 118.769 188.336 118.621C188.16 118.472 188.026 118.297 187.932 118.093C187.845 117.89 187.801 117.668 187.801 117.426C187.801 117.042 187.908 116.734 188.122 116.504C188.336 116.273 188.616 116.111 188.962 116.018V115.952C188.666 115.848 188.427 115.683 188.245 115.458C188.064 115.232 187.974 114.955 187.974 114.626C187.974 114.181 188.138 113.824 188.468 113.555C188.803 113.286 189.275 113.151 189.885 113.151C190.494 113.151 190.964 113.286 191.293 113.555C191.628 113.824 191.796 114.181 191.796 114.626C191.796 114.955 191.705 115.232 191.524 115.458C191.343 115.683 191.104 115.848 190.807 115.952V116.018C191.153 116.111 191.433 116.273 191.647 116.504C191.861 116.734 191.969 117.042 191.969 117.426C191.969 117.668 191.922 117.89 191.829 118.093C191.741 118.297 191.609 118.472 191.433 118.621C191.257 118.769 191.041 118.887 190.782 118.975C190.524 119.057 190.225 119.098 189.885 119.098ZM189.885 118.365C190.247 118.365 190.524 118.286 190.717 118.126C190.914 117.967 191.013 117.742 191.013 117.451V117.278C191.013 116.987 190.914 116.762 190.717 116.603C190.524 116.443 190.247 116.364 189.885 116.364C189.522 116.364 189.242 116.443 189.044 116.603C188.852 116.762 188.756 116.987 188.756 117.278V117.451C188.756 117.742 188.852 117.967 189.044 118.126C189.242 118.286 189.522 118.365 189.885 118.365ZM189.885 115.655C190.214 115.655 190.464 115.584 190.634 115.441C190.81 115.293 190.898 115.087 190.898 114.823V114.716C190.898 114.453 190.81 114.25 190.634 114.107C190.464 113.959 190.214 113.884 189.885 113.884C189.555 113.884 189.303 113.959 189.127 114.107C188.957 114.25 188.871 114.453 188.871 114.716V114.823C188.871 115.087 188.957 115.293 189.127 115.441C189.303 115.584 189.555 115.655 189.885 115.655Z" fill="#4D4D4D"/>
<rect width="197.791" height="26.6053" transform="translate(0.486328 130.527)" fill="#1F1F1F"/>
<path d="M14.16 143.201L11.3534 140.395C11.0056 140.047 10.4417 140.047 10.0938 140.395L7.28725 143.201C6.93943 143.549 6.93943 144.113 7.28725 144.461L10.0938 147.267C10.4417 147.615 11.0056 147.615 11.3534 147.267L14.16 144.461C14.5078 144.113 14.5078 143.549 14.16 143.201Z" fill="#898989"/>
<path d="M22.2382 146.791V142.064H23.0719V146.827C23.0719 147.598 22.6285 148.148 21.8923 148.148C21.573 148.148 21.4488 148.104 21.3956 148.086V147.386C21.4399 147.394 21.5375 147.412 21.6617 147.412C22.0963 147.412 22.2382 147.182 22.2382 146.791ZM22.0519 140.432C22.0519 140.095 22.318 139.829 22.6462 139.829C22.9832 139.829 23.2493 140.095 23.2493 140.432C23.2493 140.76 22.9832 141.026 22.6462 141.026C22.318 141.026 22.0519 140.76 22.0519 140.432ZM26.3174 145.718C27.0269 145.718 27.6478 145.186 27.6478 144.193C27.6478 143.208 27.0269 142.676 26.3174 142.676C25.6078 142.676 24.9869 143.208 24.9869 144.193C24.9869 145.186 25.6078 145.718 26.3174 145.718ZM26.3174 141.931C27.5946 141.931 28.4993 142.898 28.4993 144.193C28.4993 145.496 27.5946 146.463 26.3174 146.463C25.0401 146.463 24.1355 145.496 24.1355 144.193C24.1355 142.898 25.0401 141.931 26.3174 141.931ZM30.3908 146.33H29.566V139.909H30.3908V142.667C30.5948 142.286 31.0915 141.94 31.8011 141.94C33.0961 141.94 33.7613 142.933 33.7613 144.175C33.7613 145.443 33.0428 146.445 31.7745 146.445C31.1448 146.445 30.6569 146.17 30.3908 145.709V146.33ZM32.9098 144.175C32.9098 143.252 32.422 142.676 31.6503 142.676C30.9141 142.676 30.382 143.252 30.382 144.175C30.382 145.097 30.9141 145.7 31.6503 145.7C32.4131 145.7 32.9098 145.097 32.9098 144.175ZM38.6151 147.031H34.0739V146.33H38.6151V147.031ZM40.2825 146.33H39.4576V142.064H40.2825V146.33ZM39.2713 140.45C39.2713 140.113 39.5374 139.846 39.8656 139.846C40.2026 139.846 40.4687 140.113 40.4687 140.45C40.4687 140.778 40.2026 141.044 39.8656 141.044C39.5374 141.044 39.2713 140.778 39.2713 140.45ZM42.1977 144.184C42.1977 145.062 42.65 145.709 43.4483 145.709C44.2111 145.709 44.6811 145.044 44.6811 144.166C44.6811 143.288 44.2199 142.685 43.4571 142.685C42.6944 142.685 42.1977 143.306 42.1977 144.184ZM44.69 145.754V145.683C44.486 146.091 44.0337 146.445 43.3685 146.445C42.1178 146.445 41.3462 145.452 41.3462 144.184C41.3462 142.977 42.1622 141.949 43.3685 141.949C44.1224 141.949 44.5304 142.321 44.6723 142.667V139.909H45.4971V145.541C45.4971 145.949 45.5326 146.259 45.5415 146.33H44.7344C44.7166 146.233 44.69 146.011 44.69 145.754Z" fill="#B4B4B4"/>
<path d="M175.331 141.306C175.101 141.306 174.939 141.259 174.845 141.166C174.758 141.072 174.714 140.957 174.714 140.82V140.647C174.714 140.509 174.758 140.394 174.845 140.301C174.939 140.207 175.098 140.161 175.323 140.161C175.554 140.161 175.713 140.207 175.801 140.301C175.894 140.394 175.941 140.509 175.941 140.647V140.82C175.941 140.957 175.894 141.072 175.801 141.166C175.713 141.259 175.557 141.306 175.331 141.306ZM173.429 145.605H174.878V142.805H173.429V142.08H175.776V145.605H177.135V146.33H173.429V145.605ZM178.228 146.33V142.08H179.125V142.805H179.167C179.211 142.695 179.265 142.591 179.331 142.492C179.403 142.387 179.488 142.299 179.587 142.228C179.686 142.151 179.801 142.091 179.933 142.047C180.064 142.003 180.218 141.981 180.394 141.981C180.822 141.981 181.168 142.121 181.432 142.401C181.695 142.681 181.827 143.079 181.827 143.595V146.33H180.929V143.727C180.929 143.052 180.636 142.714 180.048 142.714C179.933 142.714 179.82 142.731 179.71 142.763C179.6 142.791 179.502 142.835 179.414 142.895C179.326 142.956 179.254 143.033 179.2 143.126C179.15 143.219 179.125 143.326 179.125 143.447V146.33H178.228ZM185.201 146.33C184.828 146.33 184.553 146.231 184.377 146.034C184.202 145.83 184.114 145.57 184.114 145.251V142.805H182.804V142.08H183.735C183.894 142.08 184.007 142.05 184.073 141.989C184.138 141.923 184.171 141.808 184.171 141.643V140.581H185.012V142.08H186.824V142.805H185.012V145.605H186.824V146.33H185.201ZM189.885 146.429C189.544 146.429 189.245 146.388 188.987 146.305C188.729 146.218 188.512 146.099 188.336 145.951C188.16 145.803 188.026 145.627 187.932 145.424C187.845 145.221 187.801 144.998 187.801 144.757C187.801 144.372 187.908 144.065 188.122 143.834C188.336 143.604 188.616 143.442 188.962 143.348V143.282C188.666 143.178 188.427 143.013 188.245 142.788C188.064 142.563 187.974 142.286 187.974 141.956C187.974 141.511 188.138 141.155 188.468 140.885C188.803 140.616 189.275 140.482 189.885 140.482C190.494 140.482 190.964 140.616 191.293 140.885C191.628 141.155 191.796 141.511 191.796 141.956C191.796 142.286 191.705 142.563 191.524 142.788C191.343 143.013 191.104 143.178 190.807 143.282V143.348C191.153 143.442 191.433 143.604 191.647 143.834C191.861 144.065 191.969 144.372 191.969 144.757C191.969 144.998 191.922 145.221 191.829 145.424C191.741 145.627 191.609 145.803 191.433 145.951C191.257 146.099 191.041 146.218 190.782 146.305C190.524 146.388 190.225 146.429 189.885 146.429ZM189.885 145.696C190.247 145.696 190.524 145.616 190.717 145.457C190.914 145.298 191.013 145.073 191.013 144.782V144.609C191.013 144.318 190.914 144.092 190.717 143.933C190.524 143.774 190.247 143.694 189.885 143.694C189.522 143.694 189.242 143.774 189.044 143.933C188.852 144.092 188.756 144.318 188.756 144.609V144.782C188.756 145.073 188.852 145.298 189.044 145.457C189.242 145.616 189.522 145.696 189.885 145.696ZM189.885 142.986C190.214 142.986 190.464 142.915 190.634 142.772C190.81 142.623 190.898 142.418 190.898 142.154V142.047C190.898 141.783 190.81 141.58 190.634 141.437C190.464 141.289 190.214 141.215 189.885 141.215C189.555 141.215 189.303 141.289 189.127 141.437C188.957 141.58 188.871 141.783 188.871 142.047V142.154C188.871 142.418 188.957 142.623 189.127 142.772C189.303 142.915 189.555 142.986 189.885 142.986Z" fill="#4D4D4D"/>
<rect width="197.791" height="26.6053" transform="translate(0.486328 157.858)" fill="#1F1F1F"/>
<path d="M14.16 170.532L11.3534 167.725C11.0056 167.378 10.4417 167.378 10.0938 167.725L7.28725 170.532C6.93943 170.88 6.93943 171.444 7.28725 171.792L10.0938 174.598C10.4417 174.946 11.0056 174.946 11.3534 174.598L14.16 171.792C14.5078 171.444 14.5078 170.88 14.16 170.532Z" fill="#898989"/>
<path d="M21.9026 172.517C21.9026 171.754 22.4614 171.328 23.1976 171.222L24.3506 171.053C24.6078 171.018 24.6788 170.885 24.6788 170.734C24.6788 170.317 24.4038 169.971 23.7563 169.971C23.1709 169.971 22.8428 170.335 22.7896 170.832L21.9913 170.645C22.08 169.829 22.8162 169.262 23.7386 169.262C25.0158 169.262 25.5125 169.989 25.5125 170.823V172.96C25.5125 173.333 25.548 173.554 25.5657 173.661H24.7497C24.732 173.554 24.7054 173.395 24.7054 173.084C24.5191 173.386 24.0934 173.794 23.3306 173.794C22.4614 173.794 21.9026 173.191 21.9026 172.517ZM23.4459 173.093C24.1289 173.093 24.6788 172.765 24.6788 171.834V171.639L23.3749 171.834C23.0202 171.887 22.7541 172.091 22.7541 172.472C22.7541 172.792 23.0202 173.093 23.4459 173.093ZM27.6362 175.346H26.8113V169.395H27.6185V170.06C27.8491 169.634 28.3546 169.297 29.0465 169.297C30.3237 169.297 31.0066 170.282 31.0066 171.523C31.0066 172.792 30.2705 173.776 29.0199 173.776C28.3635 173.776 27.8668 173.466 27.6362 173.084V175.346ZM30.1552 171.523C30.1552 170.672 29.6762 170.033 28.8957 170.033C28.1329 170.033 27.6273 170.672 27.6273 171.523C27.6273 172.401 28.1329 173.031 28.8957 173.031C29.6673 173.031 30.1552 172.401 30.1552 171.523ZM32.8938 175.346H32.069V169.395H32.8761V170.06C33.1067 169.634 33.6123 169.297 34.3041 169.297C35.5813 169.297 36.2643 170.282 36.2643 171.523C36.2643 172.792 35.5281 173.776 34.2775 173.776C33.6211 173.776 33.1245 173.466 32.8938 173.084V175.346ZM35.4128 171.523C35.4128 170.672 34.9338 170.033 34.1533 170.033C33.3905 170.033 32.885 170.672 32.885 171.523C32.885 172.401 33.3905 173.031 34.1533 173.031C34.925 173.031 35.4128 172.401 35.4128 171.523ZM38.1603 173.661H37.3266V167.239H38.1603V173.661ZM40.4035 173.661H39.5786V169.395H40.4035V173.661ZM39.3924 167.78C39.3924 167.443 39.6585 167.177 39.9866 167.177C40.3237 167.177 40.5898 167.443 40.5898 167.78C40.5898 168.109 40.3237 168.375 39.9866 168.375C39.6585 168.375 39.3924 168.109 39.3924 167.78ZM43.6137 170.033C42.9396 170.033 42.3187 170.53 42.3187 171.523C42.3187 172.499 42.9307 173.022 43.6225 173.022C44.4208 173.022 44.7135 172.481 44.8111 172.144L45.5472 172.463C45.3432 173.075 44.7312 173.794 43.6225 173.794C42.3808 173.794 41.4672 172.818 41.4672 171.523C41.4672 170.193 42.3985 169.262 43.6137 169.262C44.749 169.262 45.3344 169.971 45.5118 170.619L44.7578 170.938C44.6514 170.521 44.341 170.033 43.6137 170.033ZM46.2159 172.517C46.2159 171.754 46.7747 171.328 47.5109 171.222L48.6639 171.053C48.9211 171.018 48.9921 170.885 48.9921 170.734C48.9921 170.317 48.7171 169.971 48.0696 169.971C47.4843 169.971 47.1561 170.335 47.1029 170.832L46.3046 170.645C46.3933 169.829 47.1295 169.262 48.0519 169.262C49.3291 169.262 49.8258 169.989 49.8258 170.823V172.96C49.8258 173.333 49.8613 173.554 49.879 173.661H49.063C49.0453 173.554 49.0187 173.395 49.0187 173.084C48.8324 173.386 48.4067 173.794 47.6439 173.794C46.7747 173.794 46.2159 173.191 46.2159 172.517ZM47.7592 173.093C48.4422 173.093 48.9921 172.765 48.9921 171.834V171.639L47.6883 171.834C47.3335 171.887 47.0674 172.091 47.0674 172.472C47.0674 172.792 47.3335 173.093 47.7592 173.093ZM52.2422 168.046V169.395H53.1646V170.149H52.2422V172.366C52.2422 172.756 52.4019 172.951 52.8365 172.951C52.9429 172.951 53.0937 172.934 53.1646 172.916V173.625C53.0937 173.652 52.8808 173.705 52.597 173.705C51.8697 173.705 51.4085 173.262 51.4085 172.49V170.149H50.5925V169.395H50.8231C51.2843 169.395 51.4794 169.111 51.4794 168.738V168.046H52.2422ZM55.1024 173.661H54.2775V169.395H55.1024V173.661ZM54.0912 167.78C54.0912 167.443 54.3573 167.177 54.6855 167.177C55.0225 167.177 55.2886 167.443 55.2886 167.78C55.2886 168.109 55.0225 168.375 54.6855 168.375C54.3573 168.375 54.0912 168.109 54.0912 167.78ZM58.348 173.049C59.0576 173.049 59.6784 172.517 59.6784 171.523C59.6784 170.539 59.0576 170.007 58.348 170.007C57.6384 170.007 57.0176 170.539 57.0176 171.523C57.0176 172.517 57.6384 173.049 58.348 173.049ZM58.348 169.262C59.6252 169.262 60.5299 170.228 60.5299 171.523C60.5299 172.827 59.6252 173.794 58.348 173.794C57.0708 173.794 56.1661 172.827 56.1661 171.523C56.1661 170.228 57.0708 169.262 58.348 169.262ZM62.4304 171.195V173.661H61.5966V169.395H62.4126V170.007C62.723 169.474 63.2286 169.27 63.7253 169.27C64.7453 169.27 65.2509 170.007 65.2509 170.956V173.661H64.4171V171.098C64.4171 170.503 64.1688 170.024 63.4237 170.024C62.7674 170.024 62.4304 170.548 62.4304 171.195ZM70.5418 174.362H66.0006V173.661H70.5418V174.362ZM71.7078 171.514C71.7078 172.393 72.1601 173.04 72.9584 173.04C73.7212 173.04 74.1912 172.375 74.1912 171.497C74.1912 170.619 73.73 170.016 72.9672 170.016C72.2045 170.016 71.7078 170.636 71.7078 171.514ZM74.2001 173.084V173.013C73.9961 173.421 73.5438 173.776 72.8785 173.776C71.6279 173.776 70.8563 172.783 70.8563 171.514C70.8563 170.308 71.6723 169.279 72.8785 169.279C73.6325 169.279 74.0405 169.652 74.1824 169.998V167.239H75.0072V172.871C75.0072 173.279 75.0427 173.59 75.0516 173.661H74.2445C74.2267 173.563 74.2001 173.342 74.2001 173.084ZM76.1593 172.517C76.1593 171.754 76.7181 171.328 77.4543 171.222L78.6073 171.053C78.8645 171.018 78.9355 170.885 78.9355 170.734C78.9355 170.317 78.6605 169.971 78.013 169.971C77.4277 169.971 77.0995 170.335 77.0463 170.832L76.248 170.645C76.3367 169.829 77.0729 169.262 77.9953 169.262C79.2725 169.262 79.7692 169.989 79.7692 170.823V172.96C79.7692 173.333 79.8047 173.554 79.8224 173.661H79.0064C78.9887 173.554 78.9621 173.395 78.9621 173.084C78.7758 173.386 78.3501 173.794 77.5873 173.794C76.7181 173.794 76.1593 173.191 76.1593 172.517ZM77.7026 173.093C78.3856 173.093 78.9355 172.765 78.9355 171.834V171.639L77.6317 171.834C77.2769 171.887 77.0108 172.091 77.0108 172.472C77.0108 172.792 77.2769 173.093 77.7026 173.093ZM82.1856 168.046V169.395H83.108V170.149H82.1856V172.366C82.1856 172.756 82.3453 172.951 82.7799 172.951C82.8863 172.951 83.0371 172.934 83.108 172.916V173.625C83.0371 173.652 82.8242 173.705 82.5404 173.705C81.8131 173.705 81.3519 173.262 81.3519 172.49V170.149H80.5359V169.395H80.7665C81.2277 169.395 81.4228 169.111 81.4228 168.738V168.046H82.1856ZM84.7186 171.089H87.0513C87.0336 170.477 86.6345 169.998 85.8805 169.998C85.1799 169.998 84.7541 170.539 84.7186 171.089ZM87.1755 172.197L87.8939 172.446C87.6545 173.2 86.9715 173.794 85.9781 173.794C84.8339 173.794 83.8317 172.96 83.8317 171.514C83.8317 170.175 84.7985 169.262 85.8717 169.262C87.1844 169.262 87.9205 170.166 87.9205 171.497C87.9205 171.603 87.9117 171.71 87.9028 171.763H84.692C84.7098 172.526 85.2597 173.058 85.9781 173.058C86.6699 173.058 87.0158 172.676 87.1755 172.197Z" fill="#B4B4B4"/>
<path d="M175.99 172.936H175.941C175.815 173.194 175.647 173.397 175.438 173.546C175.23 173.688 174.969 173.76 174.656 173.76C174.156 173.76 173.758 173.573 173.462 173.2C173.165 172.826 173.017 172.272 173.017 171.536C173.017 170.8 173.165 170.245 173.462 169.872C173.758 169.499 174.156 169.312 174.656 169.312C174.969 169.312 175.23 169.386 175.438 169.534C175.647 169.677 175.815 169.877 175.941 170.135H175.99V167.566H176.888V173.661H175.99V172.936ZM175.027 173.027C175.158 173.027 175.282 173.01 175.397 172.977C175.513 172.944 175.614 172.895 175.702 172.829C175.79 172.763 175.859 172.683 175.908 172.59C175.963 172.491 175.99 172.376 175.99 172.244V170.827C175.99 170.696 175.963 170.583 175.908 170.49C175.859 170.391 175.79 170.308 175.702 170.243C175.614 170.177 175.513 170.127 175.397 170.094C175.282 170.061 175.158 170.045 175.027 170.045C174.686 170.045 174.423 170.149 174.236 170.358C174.055 170.567 173.964 170.844 173.964 171.19V171.882C173.964 172.228 174.055 172.505 174.236 172.714C174.423 172.922 174.686 173.027 175.027 173.027ZM181.588 173.661C181.33 173.661 181.135 173.595 181.003 173.463C180.877 173.331 180.8 173.158 180.773 172.944H180.732C180.649 173.202 180.498 173.403 180.279 173.546C180.064 173.688 179.79 173.76 179.455 173.76C179.021 173.76 178.675 173.647 178.417 173.422C178.159 173.191 178.03 172.876 178.03 172.475C178.03 172.063 178.181 171.75 178.483 171.536C178.79 171.316 179.26 171.206 179.891 171.206H180.707V170.877C180.707 170.3 180.402 170.012 179.793 170.012C179.518 170.012 179.296 170.067 179.125 170.177C178.955 170.281 178.812 170.421 178.697 170.597L178.162 170.16C178.282 169.93 178.486 169.732 178.771 169.567C179.057 169.397 179.425 169.312 179.875 169.312C180.413 169.312 180.836 169.441 181.143 169.699C181.451 169.957 181.605 170.33 181.605 170.819V172.953H182.14V173.661H181.588ZM179.71 173.101C180.001 173.101 180.24 173.035 180.427 172.903C180.614 172.771 180.707 172.601 180.707 172.392V171.775H179.908C179.26 171.775 178.936 171.97 178.936 172.359V172.524C178.936 172.716 179.005 172.862 179.142 172.961C179.279 173.054 179.469 173.101 179.71 173.101ZM185.201 173.661C184.828 173.661 184.553 173.562 184.377 173.364C184.202 173.161 184.114 172.9 184.114 172.582V170.135H182.804V169.411H183.735C183.894 169.411 184.007 169.38 184.073 169.32C184.138 169.254 184.171 169.139 184.171 168.974V167.912H185.012V169.411H186.824V170.135H185.012V172.936H186.824V173.661H185.201ZM189.975 173.76C189.651 173.76 189.36 173.708 189.102 173.603C188.844 173.499 188.627 173.351 188.451 173.158C188.276 172.966 188.141 172.736 188.048 172.467C187.954 172.192 187.908 171.884 187.908 171.544C187.908 171.204 187.954 170.896 188.048 170.621C188.147 170.347 188.281 170.114 188.451 169.921C188.627 169.724 188.839 169.573 189.086 169.468C189.333 169.364 189.607 169.312 189.909 169.312C190.206 169.312 190.475 169.364 190.717 169.468C190.958 169.567 191.164 169.71 191.334 169.897C191.505 170.083 191.634 170.306 191.721 170.564C191.815 170.822 191.861 171.107 191.861 171.42V171.758H188.814V171.898C188.814 172.233 188.918 172.508 189.127 172.722C189.335 172.931 189.624 173.035 189.992 173.035C190.266 173.035 190.5 172.977 190.692 172.862C190.89 172.741 191.049 172.582 191.17 172.384L191.73 172.878C191.587 173.125 191.367 173.334 191.071 173.504C190.78 173.675 190.415 173.76 189.975 173.76ZM189.909 169.995C189.75 169.995 189.602 170.023 189.465 170.078C189.333 170.133 189.217 170.212 189.119 170.317C189.025 170.416 188.951 170.534 188.896 170.671C188.841 170.808 188.814 170.959 188.814 171.124V171.182H190.947V171.099C190.947 170.764 190.851 170.498 190.659 170.3C190.472 170.097 190.222 169.995 189.909 169.995Z" fill="#4D4D4D"/>
</g>
<rect x="0.486328" y="48.5354" width="197.791" height="190.589" rx="3.54782" stroke="#292929" stroke-width="0.514807"/>
<path d="M199.205 117.102H214.538C216.498 117.102 218.086 115.513 218.086 113.554V67.7795C218.086 65.8201 219.675 64.2317 221.634 64.2317H238.509" stroke="#B4B4B4" stroke-width="0.443478" stroke-dasharray="1.77 1.77"/>
<g filter="url(#filter0_d_893_2402)">
<rect x="18.9297" y="128.517" width="318.417" height="31.9304" rx="15.9652" fill="#171717" shape-rendering="crispEdges"/>
<rect x="19.3732" y="128.961" width="317.53" height="31.0434" rx="15.5217" stroke="#2E2E2E" stroke-width="0.886955" shape-rendering="crispEdges"/>
<g clip-path="url(#clip9_893_2402)">
<path d="M44.9109 143.921L39.4769 149.355C38.8112 150.02 37.9082 150.394 36.9668 150.394C36.0253 150.394 35.1224 150.02 34.4567 149.355C33.791 148.689 33.417 147.786 33.417 146.845C33.417 145.903 33.791 145 34.4567 144.334L39.5242 139.267C39.968 138.822 40.5702 138.572 41.1984 138.572C41.8266 138.571 42.4293 138.82 42.8739 139.264C43.3185 139.708 43.5686 140.31 43.5691 140.938C43.5697 141.567 43.3207 142.169 42.8769 142.614L37.7976 147.681C37.5757 147.903 37.2747 148.028 36.9609 148.028C36.6471 148.028 36.3461 147.903 36.1242 147.681C35.9023 147.459 35.7776 147.158 35.7776 146.845C35.7776 146.531 35.9023 146.23 36.1242 146.008L41.1443 140.994" stroke="#898989" stroke-width="0.886955" stroke-linecap="round" stroke-linejoin="round"/>
</g>
<path d="M56.7731 143.766C55.8968 143.766 55.0896 144.412 55.0896 145.704C55.0896 146.972 55.8852 147.652 56.7846 147.652C57.8223 147.652 58.2028 146.949 58.3297 146.511L59.2867 146.926C59.0215 147.721 58.2259 148.655 56.7846 148.655C55.1703 148.655 53.9827 147.387 53.9827 145.704C53.9827 143.974 55.1934 142.763 56.7731 142.763C58.249 142.763 59.01 143.686 59.2406 144.527L58.2605 144.943C58.1221 144.401 57.7186 143.766 56.7731 143.766ZM63.6368 142.879V144.032C63.4754 144.009 63.314 143.997 63.1641 143.997C62.2532 143.997 61.6421 144.481 61.6421 145.704V148.482H60.5582V142.936H61.619V143.905C62.0226 143.052 62.7144 142.844 63.2794 142.844C63.4293 142.844 63.5792 142.867 63.6368 142.879ZM65.4391 145.139H68.4716C68.4485 144.343 67.9296 143.72 66.9496 143.72C66.0387 143.72 65.4852 144.424 65.4391 145.139ZM68.633 146.58L69.567 146.903C69.2556 147.883 68.3678 148.655 67.0764 148.655C65.589 148.655 64.286 147.572 64.286 145.692C64.286 143.951 65.5428 142.763 66.938 142.763C68.6445 142.763 69.6016 143.939 69.6016 145.669C69.6016 145.807 69.59 145.946 69.5785 146.015H65.4045C65.4275 147.007 66.1424 147.698 67.0764 147.698C67.9758 147.698 68.4254 147.203 68.633 146.58ZM70.6392 146.995C70.6392 146.003 71.3656 145.45 72.3226 145.312L73.8216 145.092C74.156 145.046 74.2482 144.873 74.2482 144.677C74.2482 144.135 73.8908 143.686 73.0491 143.686C72.288 143.686 71.8614 144.159 71.7922 144.804L70.7545 144.562C70.8698 143.501 71.8268 142.763 73.026 142.763C74.6864 142.763 75.3321 143.709 75.3321 144.793V147.572C75.3321 148.056 75.3782 148.344 75.4013 148.482H74.3405C74.3174 148.344 74.2828 148.137 74.2828 147.733C74.0407 148.125 73.4872 148.655 72.4956 148.655C71.3656 148.655 70.6392 147.871 70.6392 146.995ZM72.6455 147.744C73.5333 147.744 74.2482 147.318 74.2482 146.107V145.853L72.5532 146.107C72.092 146.176 71.7461 146.442 71.7461 146.937C71.7461 147.352 72.092 147.744 72.6455 147.744ZM78.4734 141.184V142.936H79.6726V143.916H78.4734V146.799C78.4734 147.306 78.6809 147.56 79.2459 147.56C79.3843 147.56 79.5803 147.537 79.6726 147.514V148.436C79.5803 148.471 79.3036 148.54 78.9346 148.54C77.9891 148.54 77.3895 147.964 77.3895 146.96V143.916H76.3287V142.936H76.6285C77.2281 142.936 77.4818 142.567 77.4818 142.083V141.184H78.4734ZM81.7663 145.139H84.7988C84.7758 144.343 84.2569 143.72 83.2768 143.72C82.3659 143.72 81.8124 144.424 81.7663 145.139ZM84.9602 146.58L85.8942 146.903C85.5829 147.883 84.695 148.655 83.4036 148.655C81.9162 148.655 80.6133 147.572 80.6133 145.692C80.6133 143.951 81.8701 142.763 83.2653 142.763C84.9718 142.763 85.9288 143.939 85.9288 145.669C85.9288 145.807 85.9173 145.946 85.9057 146.015H81.7317C81.7548 147.007 82.4697 147.698 83.4036 147.698C84.303 147.698 84.7527 147.203 84.9602 146.58ZM91.2788 145.219V148.482H90.195V140.134H91.2788V143.582C91.6824 142.994 92.3281 142.775 92.9623 142.775C94.2883 142.775 94.9455 143.732 94.9455 144.966V148.482H93.8616V145.15C93.8616 144.378 93.5388 143.755 92.5702 143.755C91.74 143.755 91.3019 144.401 91.2788 145.219ZM97.7419 148.482H96.6696V142.936H97.7419V148.482ZM96.4274 140.838C96.4274 140.4 96.7733 140.054 97.2 140.054C97.6381 140.054 97.984 140.4 97.984 140.838C97.984 141.264 97.6381 141.61 97.2 141.61C96.7733 141.61 96.4274 141.264 96.4274 140.838ZM102.665 142.879V144.032C102.503 144.009 102.342 143.997 102.192 143.997C101.281 143.997 100.67 144.481 100.67 145.704V148.482H99.586V142.936H100.647V143.905C101.05 143.052 101.742 142.844 102.307 142.844C102.457 142.844 102.607 142.867 102.665 142.879ZM104.892 148.482H103.82V142.936H104.892V148.482ZM103.578 140.838C103.578 140.4 103.924 140.054 104.35 140.054C104.788 140.054 105.134 140.4 105.134 140.838C105.134 141.264 104.788 141.61 104.35 141.61C103.924 141.61 103.578 141.264 103.578 140.838ZM107.82 145.277V148.482H106.736V142.936H107.797V143.732C108.201 143.04 108.858 142.775 109.503 142.775C110.829 142.775 111.487 143.732 111.487 144.966V148.482H110.403V145.15C110.403 144.378 110.08 143.755 109.111 143.755C108.258 143.755 107.82 144.435 107.82 145.277ZM112.807 148.782L113.856 148.54C113.937 149.313 114.525 149.901 115.367 149.901C116.532 149.901 117.062 149.301 117.062 148.102V147.306C116.797 147.814 116.197 148.217 115.367 148.217C113.891 148.217 112.819 147.099 112.819 145.531C112.819 144.032 113.845 142.833 115.367 142.833C116.22 142.833 116.797 143.155 117.073 143.709V142.936H118.146V148.067C118.146 149.474 117.454 150.846 115.367 150.846C113.983 150.846 112.946 149.97 112.807 148.782ZM115.528 147.306C116.462 147.306 117.108 146.603 117.108 145.531C117.108 144.458 116.462 143.755 115.528 143.755C114.571 143.755 113.926 144.458 113.926 145.531C113.926 146.614 114.548 147.306 115.528 147.306ZM122.413 146.995C122.413 146.003 123.14 145.45 124.097 145.312L125.596 145.092C125.93 145.046 126.023 144.873 126.023 144.677C126.023 144.135 125.665 143.686 124.823 143.686C124.062 143.686 123.636 144.159 123.567 144.804L122.529 144.562C122.644 143.501 123.601 142.763 124.8 142.763C126.461 142.763 127.106 143.709 127.106 144.793V147.572C127.106 148.056 127.152 148.344 127.176 148.482H126.115C126.092 148.344 126.057 148.137 126.057 147.733C125.815 148.125 125.261 148.655 124.27 148.655C123.14 148.655 122.413 147.871 122.413 146.995ZM124.42 147.744C125.308 147.744 126.023 147.318 126.023 146.107V145.853L124.328 146.107C123.866 146.176 123.52 146.442 123.52 146.937C123.52 147.352 123.866 147.744 124.42 147.744ZM129.867 150.673H128.795V142.936H129.844V143.801C130.144 143.248 130.801 142.809 131.701 142.809C133.361 142.809 134.249 144.089 134.249 145.704C134.249 147.352 133.292 148.632 131.666 148.632C130.813 148.632 130.167 148.229 129.867 147.733V150.673ZM133.142 145.704C133.142 144.597 132.519 143.766 131.504 143.766C130.513 143.766 129.856 144.597 129.856 145.704C129.856 146.845 130.513 147.664 131.504 147.664C132.508 147.664 133.142 146.845 133.142 145.704ZM136.702 150.673H135.63V142.936H136.679V143.801C136.979 143.248 137.636 142.809 138.535 142.809C140.196 142.809 141.084 144.089 141.084 145.704C141.084 147.352 140.127 148.632 138.501 148.632C137.648 148.632 137.002 148.229 136.702 147.733V150.673ZM139.977 145.704C139.977 144.597 139.354 143.766 138.339 143.766C137.348 143.766 136.691 144.597 136.691 145.704C136.691 146.845 137.348 147.664 138.339 147.664C139.343 147.664 139.977 146.845 139.977 145.704ZM146.8 141.184V142.936H147.999V143.916H146.8V146.799C146.8 147.306 147.008 147.56 147.573 147.56C147.711 147.56 147.907 147.537 147.999 147.514V148.436C147.907 148.471 147.63 148.54 147.261 148.54C146.316 148.54 145.716 147.964 145.716 146.96V143.916H144.655V142.936H144.955C145.555 142.936 145.809 142.567 145.809 142.083V141.184H146.8ZM149.1 146.995C149.1 146.003 149.827 145.45 150.784 145.312L152.282 145.092C152.617 145.046 152.709 144.873 152.709 144.677C152.709 144.135 152.352 143.686 151.51 143.686C150.749 143.686 150.322 144.159 150.253 144.804L149.215 144.562C149.331 143.501 150.288 142.763 151.487 142.763C153.147 142.763 153.793 143.709 153.793 144.793V147.572C153.793 148.056 153.839 148.344 153.862 148.482H152.801C152.778 148.344 152.744 148.137 152.744 147.733C152.502 148.125 151.948 148.655 150.956 148.655C149.827 148.655 149.1 147.871 149.1 146.995ZM151.106 147.744C151.994 147.744 152.709 147.318 152.709 146.107V145.853L151.014 146.107C150.553 146.176 150.207 146.442 150.207 146.937C150.207 147.352 150.553 147.744 151.106 147.744ZM156.554 148.482H155.481V140.134H156.554V143.72C156.819 143.225 157.465 142.775 158.387 142.775C160.071 142.775 160.935 144.066 160.935 145.681C160.935 147.329 160.001 148.632 158.353 148.632C157.534 148.632 156.9 148.275 156.554 147.675V148.482ZM159.828 145.681C159.828 144.481 159.194 143.732 158.191 143.732C157.234 143.732 156.542 144.481 156.542 145.681C156.542 146.88 157.234 147.664 158.191 147.664C159.183 147.664 159.828 146.88 159.828 145.681ZM163.4 148.482H162.316V140.134H163.4V148.482ZM165.947 145.139H168.98C168.957 144.343 168.438 143.72 167.458 143.72C166.547 143.72 165.993 144.424 165.947 145.139ZM169.141 146.58L170.075 146.903C169.764 147.883 168.876 148.655 167.585 148.655C166.097 148.655 164.794 147.572 164.794 145.692C164.794 143.951 166.051 142.763 167.446 142.763C169.153 142.763 170.11 143.939 170.11 145.669C170.11 145.807 170.098 145.946 170.087 146.015H165.913C165.936 147.007 166.651 147.698 167.585 147.698C168.484 147.698 168.934 147.203 169.141 146.58ZM170.975 147.041L171.955 146.695C172.024 147.272 172.462 147.733 173.246 147.733C173.857 147.733 174.192 147.387 174.192 146.995C174.192 146.649 173.938 146.384 173.477 146.28L172.531 146.073C171.666 145.888 171.148 145.3 171.148 144.516C171.148 143.57 172.035 142.763 173.119 142.763C174.641 142.763 175.114 143.755 175.229 144.251L174.272 144.608C174.226 144.32 173.996 143.686 173.119 143.686C172.566 143.686 172.197 144.043 172.197 144.424C172.197 144.758 172.404 145 172.831 145.092L173.73 145.288C174.733 145.508 175.264 146.119 175.264 146.937C175.264 147.721 174.607 148.655 173.235 148.655C171.712 148.655 171.067 147.675 170.975 147.041ZM182.714 142.936H183.833L185.274 147.11L186.496 142.936H187.638L185.839 148.482H184.721L183.245 144.262L181.803 148.482H180.662L178.84 142.936H180.028L181.273 147.11L182.714 142.936ZM189.805 148.482H188.733V142.936H189.805V148.482ZM188.491 140.838C188.491 140.4 188.837 140.054 189.263 140.054C189.701 140.054 190.047 140.4 190.047 140.838C190.047 141.264 189.701 141.61 189.263 141.61C188.837 141.61 188.491 141.264 188.491 140.838ZM193.102 141.184V142.936H194.301V143.916H193.102V146.799C193.102 147.306 193.31 147.56 193.875 147.56C194.013 147.56 194.209 147.537 194.301 147.514V148.436C194.209 148.471 193.932 148.54 193.563 148.54C192.618 148.54 192.018 147.964 192.018 146.96V143.916H190.957V142.936H191.257C191.857 142.936 192.11 142.567 192.11 142.083V141.184H193.102ZM196.832 145.219V148.482H195.748V140.134H196.832V143.582C197.235 142.994 197.881 142.775 198.515 142.775C199.841 142.775 200.498 143.732 200.498 144.966V148.482H199.415V145.15C199.415 144.378 199.092 143.755 198.123 143.755C197.293 143.755 196.855 144.401 196.832 145.219ZM204.586 147.041L205.566 146.695C205.635 147.272 206.074 147.733 206.858 147.733C207.469 147.733 207.803 147.387 207.803 146.995C207.803 146.649 207.549 146.384 207.088 146.28L206.143 146.073C205.278 145.888 204.759 145.3 204.759 144.516C204.759 143.57 205.647 142.763 206.731 142.763C208.253 142.763 208.726 143.755 208.841 144.251L207.884 144.608C207.838 144.32 207.607 143.686 206.731 143.686C206.177 143.686 205.808 144.043 205.808 144.424C205.808 144.758 206.016 145 206.443 145.092L207.342 145.288C208.345 145.508 208.875 146.119 208.875 146.937C208.875 147.721 208.218 148.655 206.846 148.655C205.324 148.655 204.678 147.675 204.586 147.041ZM209.86 146.995C209.86 146.003 210.586 145.45 211.543 145.312L213.042 145.092C213.377 145.046 213.469 144.873 213.469 144.677C213.469 144.135 213.112 143.686 212.27 143.686C211.509 143.686 211.082 144.159 211.013 144.804L209.975 144.562C210.091 143.501 211.048 142.763 212.247 142.763C213.907 142.763 214.553 143.709 214.553 144.793V147.572C214.553 148.056 214.599 148.344 214.622 148.482H213.561C213.538 148.344 213.504 148.137 213.504 147.733C213.261 148.125 212.708 148.655 211.716 148.655C210.586 148.655 209.86 147.871 209.86 146.995ZM211.866 147.744C212.754 147.744 213.469 147.318 213.469 146.107V145.853L211.774 146.107C211.313 146.176 210.967 146.442 210.967 146.937C210.967 147.352 211.313 147.744 211.866 147.744ZM217.314 148.482H216.241V142.936H217.279V143.674C217.625 143.063 218.317 142.775 218.963 142.775C219.654 142.775 220.323 143.109 220.623 143.824C221.061 143.029 221.776 142.775 222.479 142.775C223.448 142.775 224.393 143.432 224.393 144.885V148.482H223.321V145C223.321 144.274 222.964 143.732 222.145 143.732C221.384 143.732 220.865 144.331 220.865 145.127V148.482H219.781V145C219.781 144.285 219.435 143.732 218.605 143.732C217.833 143.732 217.314 144.308 217.314 145.139V148.482ZM227.2 150.673H226.128V142.936H227.177V143.801C227.477 143.248 228.134 142.809 229.033 142.809C230.694 142.809 231.582 144.089 231.582 145.704C231.582 147.352 230.625 148.632 228.999 148.632C228.146 148.632 227.5 148.229 227.2 147.733V150.673ZM230.475 145.704C230.475 144.597 229.852 143.766 228.837 143.766C227.846 143.766 227.189 144.597 227.189 145.704C227.189 146.845 227.846 147.664 228.837 147.664C229.841 147.664 230.475 146.845 230.475 145.704ZM234.047 148.482H232.963V140.134H234.047V148.482ZM236.594 145.139H239.626C239.603 144.343 239.084 143.72 238.104 143.72C237.193 143.72 236.64 144.424 236.594 145.139ZM239.788 146.58L240.722 146.903C240.41 147.883 239.522 148.655 238.231 148.655C236.744 148.655 235.441 147.572 235.441 145.692C235.441 143.951 236.697 142.763 238.093 142.763C239.799 142.763 240.756 143.939 240.756 145.669C240.756 145.807 240.745 145.946 240.733 146.015H236.559C236.582 147.007 237.297 147.698 238.231 147.698C239.13 147.698 239.58 147.203 239.788 146.58ZM245.668 145.692C245.668 146.834 246.256 147.675 247.294 147.675C248.285 147.675 248.897 146.811 248.897 145.669C248.897 144.527 248.297 143.743 247.305 143.743C246.314 143.743 245.668 144.551 245.668 145.692ZM248.908 147.733V147.641C248.643 148.171 248.055 148.632 247.19 148.632C245.564 148.632 244.561 147.341 244.561 145.692C244.561 144.124 245.622 142.786 247.19 142.786C248.17 142.786 248.701 143.271 248.885 143.72V140.134H249.957V147.456C249.957 147.987 250.003 148.39 250.015 148.482H248.966C248.943 148.356 248.908 148.067 248.908 147.733ZM251.455 146.995C251.455 146.003 252.181 145.45 253.139 145.312L254.637 145.092C254.972 145.046 255.064 144.873 255.064 144.677C255.064 144.135 254.707 143.686 253.865 143.686C253.104 143.686 252.677 144.159 252.608 144.804L251.57 144.562C251.686 143.501 252.643 142.763 253.842 142.763C255.502 142.763 256.148 143.709 256.148 144.793V147.572C256.148 148.056 256.194 148.344 256.217 148.482H255.156C255.133 148.344 255.099 148.137 255.099 147.733C254.857 148.125 254.303 148.655 253.311 148.655C252.181 148.655 251.455 147.871 251.455 146.995ZM253.461 147.744C254.349 147.744 255.064 147.318 255.064 146.107V145.853L253.369 146.107C252.908 146.176 252.562 146.442 252.562 146.937C252.562 147.352 252.908 147.744 253.461 147.744ZM259.289 141.184V142.936H260.488V143.916H259.289V146.799C259.289 147.306 259.497 147.56 260.062 147.56C260.2 147.56 260.396 147.537 260.488 147.514V148.436C260.396 148.471 260.119 148.54 259.75 148.54C258.805 148.54 258.205 147.964 258.205 146.96V143.916H257.145V142.936H257.444C258.044 142.936 258.298 142.567 258.298 142.083V141.184H259.289ZM261.589 146.995C261.589 146.003 262.316 145.45 263.273 145.312L264.772 145.092C265.106 145.046 265.198 144.873 265.198 144.677C265.198 144.135 264.841 143.686 263.999 143.686C263.238 143.686 262.811 144.159 262.742 144.804L261.705 144.562C261.82 143.501 262.777 142.763 263.976 142.763C265.636 142.763 266.282 143.709 266.282 144.793V147.572C266.282 148.056 266.328 148.344 266.351 148.482H265.29C265.267 148.344 265.233 148.137 265.233 147.733C264.991 148.125 264.437 148.655 263.446 148.655C262.316 148.655 261.589 147.871 261.589 146.995ZM263.596 147.744C264.483 147.744 265.198 147.318 265.198 146.107V145.853L263.503 146.107C263.042 146.176 262.696 146.442 262.696 146.937C262.696 147.352 263.042 147.744 263.596 147.744Z" fill="#FAFAFA"/>
<rect x="268.408" y="137.841" width="0.953758" height="13.2829" fill="#FAFAFA"/>
<path d="M316.947 148.621V140.343" stroke="#FAFAFA" stroke-width="0.886955" stroke-linecap="round" stroke-linejoin="round"/>
<path d="M312.808 144.482L316.947 140.343L321.086 144.482" stroke="#FAFAFA" stroke-width="0.886955" stroke-linecap="round" stroke-linejoin="round"/>
</g>
</g>
</g>
<defs>
<filter id="filter0_d_893_2402" x="16.2688" y="126.743" width="325.513" height="39.0261" filterUnits="userSpaceOnUse" color-interpolation-filters="sRGB">
<feFlood flood-opacity="0" result="BackgroundImageFix"/>
<feColorMatrix in="SourceAlpha" type="matrix" values="0 0 0 0 0 0 0 0 0 0 0 0 0 0 0 0 0 0 127 0" result="hardAlpha"/>
<feOffset dx="0.886955" dy="1.77391"/>
<feGaussianBlur stdDeviation="1.77391"/>
<feComposite in2="hardAlpha" operator="out"/>
<feColorMatrix type="matrix" values="0 0 0 0 0 0 0 0 0 0 0 0 0 0 0 0 0 0 0.15 0"/>
<feBlend mode="normal" in2="BackgroundImageFix" result="effect1_dropShadow_893_2402"/>
<feBlend mode="normal" in="SourceGraphic" in2="effect1_dropShadow_893_2402" result="shape"/>
</filter>
<clipPath id="clip0_893_2402">
<rect width="349" height="174" fill="white"/>
</clipPath>
<clipPath id="clip1_893_2402">
<rect width="677.634" height="194.243" fill="white" transform="translate(-319 -11.6216)"/>
</clipPath>
<clipPath id="clip2_893_2402">
<rect x="238.785" y="21.5325" width="197.791" height="190.589" rx="3.54782" fill="white"/>
</clipPath>
<clipPath id="clip3_893_2402">
<rect width="8.86955" height="8.86955" fill="white" transform="translate(244.588 57.731)"/>
</clipPath>
<clipPath id="clip4_893_2402">
<rect width="8.86955" height="8.86955" fill="white" transform="translate(244.588 85.0618)"/>
</clipPath>
<clipPath id="clip5_893_2402">
<rect width="8.86955" height="8.86955" fill="white" transform="translate(244.588 167.054)"/>
</clipPath>
<clipPath id="clip6_893_2402">
<rect x="0.486328" y="48.5354" width="197.791" height="190.589" rx="3.54782" fill="white"/>
</clipPath>
<clipPath id="clip7_893_2402">
<rect width="8.86955" height="8.86955" fill="white" transform="translate(6.28906 84.7339)"/>
</clipPath>
<clipPath id="clip8_893_2402">
<rect width="8.86955" height="8.86955" fill="white" transform="translate(6.28906 112.065)"/>
</clipPath>
<clipPath id="clip9_893_2402">
<rect width="14.1913" height="14.1913" fill="white" transform="translate(32.2344 137.387)"/>
</clipPath>
</defs>
</svg>
