<svg width="764" height="219" viewBox="0 0 764 219" fill="none" xmlns="http://www.w3.org/2000/svg">
<g clip-path="url(#clip0_895_5167)">
<rect width="764" height="219" fill="white"/>
<circle cx="382.314" cy="25.6146" r="1.31427" fill="#F3F3F3"/>
<circle cx="409.943" cy="25.6146" r="1.31427" fill="#F3F3F3"/>
<circle cx="437.571" cy="25.6146" r="1.31427" fill="#F3F3F3"/>
<circle cx="465.2" cy="25.6146" r="1.31427" fill="#F3F3F3"/>
<circle cx="492.828" cy="25.6146" r="1.31427" fill="#F3F3F3"/>
<circle cx="520.457" cy="25.6146" r="1.31427" fill="#F3F3F3"/>
<circle cx="548.086" cy="25.6146" r="1.31427" fill="#F3F3F3"/>
<circle cx="575.714" cy="25.6146" r="1.31427" fill="#F3F3F3"/>
<circle cx="603.343" cy="25.6146" r="1.31427" fill="#F3F3F3"/>
<circle cx="630.971" cy="25.6146" r="1.31427" fill="#F3F3F3"/>
<circle cx="658.599" cy="25.6146" r="1.31427" fill="#F3F3F3"/>
<circle cx="686.228" cy="25.6146" r="1.31427" fill="#F3F3F3"/>
<circle cx="713.857" cy="25.6146" r="1.31427" fill="#F3F3F3"/>
<circle cx="741.485" cy="25.6146" r="1.31427" fill="#F3F3F3"/>
<circle cx="382.314" cy="53.243" r="1.31427" fill="#F3F3F3"/>
<circle cx="409.943" cy="53.243" r="1.31427" fill="#F3F3F3"/>
<circle cx="437.571" cy="53.243" r="1.31427" fill="#F3F3F3"/>
<circle cx="465.2" cy="53.243" r="1.31427" fill="#F3F3F3"/>
<circle cx="492.828" cy="53.243" r="1.31427" fill="#F3F3F3"/>
<circle cx="520.457" cy="53.243" r="1.31427" fill="#F3F3F3"/>
<circle cx="548.086" cy="53.243" r="1.31427" fill="#F3F3F3"/>
<circle cx="575.714" cy="53.243" r="1.31427" fill="#F3F3F3"/>
<circle cx="603.343" cy="53.243" r="1.31427" fill="#F3F3F3"/>
<circle cx="630.971" cy="53.243" r="1.31427" fill="#F3F3F3"/>
<circle cx="658.599" cy="53.243" r="1.31427" fill="#F3F3F3"/>
<circle cx="686.228" cy="53.243" r="1.31427" fill="#F3F3F3"/>
<circle cx="713.857" cy="53.243" r="1.31427" fill="#F3F3F3"/>
<circle cx="741.485" cy="53.243" r="1.31427" fill="#F3F3F3"/>
<circle cx="382.314" cy="80.8714" r="1.31427" fill="#F3F3F3"/>
<circle cx="409.943" cy="80.8714" r="1.31427" fill="#F3F3F3"/>
<circle cx="437.571" cy="80.8714" r="1.31427" fill="#F3F3F3"/>
<circle cx="465.2" cy="80.8714" r="1.31427" fill="#F3F3F3"/>
<circle cx="492.828" cy="80.8714" r="1.31427" fill="#F3F3F3"/>
<circle cx="520.457" cy="80.8714" r="1.31427" fill="#F3F3F3"/>
<circle cx="548.086" cy="80.8714" r="1.31427" fill="#F3F3F3"/>
<circle cx="575.714" cy="80.8714" r="1.31427" fill="#F3F3F3"/>
<circle cx="603.343" cy="80.8714" r="1.31427" fill="#F3F3F3"/>
<circle cx="630.971" cy="80.8714" r="1.31427" fill="#F3F3F3"/>
<circle cx="658.599" cy="80.8714" r="1.31427" fill="#F3F3F3"/>
<circle cx="686.228" cy="80.8714" r="1.31427" fill="#F3F3F3"/>
<circle cx="713.857" cy="80.8714" r="1.31427" fill="#F3F3F3"/>
<circle cx="741.485" cy="80.8714" r="1.31427" fill="#F3F3F3"/>
<circle cx="382.314" cy="108.5" r="1.31427" fill="#F3F3F3"/>
<circle cx="409.943" cy="108.5" r="1.31427" fill="#F3F3F3"/>
<circle cx="437.571" cy="108.5" r="1.31427" fill="#F3F3F3"/>
<circle cx="465.2" cy="108.5" r="1.31427" fill="#F3F3F3"/>
<circle cx="492.828" cy="108.5" r="1.31427" fill="#F3F3F3"/>
<circle cx="520.457" cy="108.5" r="1.31427" fill="#F3F3F3"/>
<circle cx="548.086" cy="108.5" r="1.31427" fill="#F3F3F3"/>
<circle cx="575.714" cy="108.5" r="1.31427" fill="#F3F3F3"/>
<circle cx="603.343" cy="108.5" r="1.31427" fill="#F3F3F3"/>
<circle cx="630.971" cy="108.5" r="1.31427" fill="#F3F3F3"/>
<circle cx="658.599" cy="108.5" r="1.31427" fill="#F3F3F3"/>
<circle cx="686.228" cy="108.5" r="1.31427" fill="#F3F3F3"/>
<circle cx="713.857" cy="108.5" r="1.31427" fill="#F3F3F3"/>
<circle cx="741.485" cy="108.5" r="1.31427" fill="#F3F3F3"/>
<circle cx="382.314" cy="136.129" r="1.31427" fill="#F3F3F3"/>
<circle cx="409.943" cy="136.129" r="1.31427" fill="#F3F3F3"/>
<circle cx="437.571" cy="136.129" r="1.31427" fill="#F3F3F3"/>
<circle cx="465.2" cy="136.129" r="1.31427" fill="#F3F3F3"/>
<circle cx="492.828" cy="136.129" r="1.31427" fill="#F3F3F3"/>
<circle cx="520.457" cy="136.129" r="1.31427" fill="#F3F3F3"/>
<circle cx="548.086" cy="136.129" r="1.31427" fill="#F3F3F3"/>
<circle cx="575.714" cy="136.129" r="1.31427" fill="#F3F3F3"/>
<circle cx="603.343" cy="136.129" r="1.31427" fill="#F3F3F3"/>
<circle cx="630.971" cy="136.129" r="1.31427" fill="#F3F3F3"/>
<circle cx="658.599" cy="136.129" r="1.31427" fill="#F3F3F3"/>
<circle cx="686.228" cy="136.129" r="1.31427" fill="#F3F3F3"/>
<circle cx="713.857" cy="136.129" r="1.31427" fill="#F3F3F3"/>
<circle cx="741.485" cy="136.129" r="1.31427" fill="#F3F3F3"/>
<circle cx="382.314" cy="163.757" r="1.31427" fill="#F3F3F3"/>
<circle cx="409.943" cy="163.757" r="1.31427" fill="#F3F3F3"/>
<circle cx="437.571" cy="163.757" r="1.31427" fill="#F3F3F3"/>
<circle cx="465.2" cy="163.757" r="1.31427" fill="#F3F3F3"/>
<circle cx="492.828" cy="163.757" r="1.31427" fill="#F3F3F3"/>
<circle cx="520.457" cy="163.757" r="1.31427" fill="#F3F3F3"/>
<circle cx="548.086" cy="163.757" r="1.31427" fill="#F3F3F3"/>
<circle cx="575.714" cy="163.757" r="1.31427" fill="#F3F3F3"/>
<circle cx="603.343" cy="163.757" r="1.31427" fill="#F3F3F3"/>
<circle cx="630.971" cy="163.757" r="1.31427" fill="#F3F3F3"/>
<circle cx="658.599" cy="163.757" r="1.31427" fill="#F3F3F3"/>
<circle cx="686.228" cy="163.757" r="1.31427" fill="#F3F3F3"/>
<circle cx="713.857" cy="163.757" r="1.31427" fill="#F3F3F3"/>
<circle cx="741.485" cy="163.757" r="1.31427" fill="#F3F3F3"/>
<circle cx="382.314" cy="191.386" r="1.31427" fill="#F3F3F3"/>
<circle cx="409.943" cy="191.386" r="1.31427" fill="#F3F3F3"/>
<circle cx="437.571" cy="191.386" r="1.31427" fill="#F3F3F3"/>
<circle cx="465.2" cy="191.386" r="1.31427" fill="#F3F3F3"/>
<circle cx="492.828" cy="191.386" r="1.31427" fill="#F3F3F3"/>
<circle cx="520.457" cy="191.386" r="1.31427" fill="#F3F3F3"/>
<circle cx="548.086" cy="191.386" r="1.31427" fill="#F3F3F3"/>
<circle cx="575.714" cy="191.386" r="1.31427" fill="#F3F3F3"/>
<circle cx="603.343" cy="191.386" r="1.31427" fill="#F3F3F3"/>
<circle cx="630.971" cy="191.386" r="1.31427" fill="#F3F3F3"/>
<circle cx="658.599" cy="191.386" r="1.31427" fill="#F3F3F3"/>
<circle cx="686.228" cy="191.386" r="1.31427" fill="#F3F3F3"/>
<circle cx="713.857" cy="191.386" r="1.31427" fill="#F3F3F3"/>
<circle cx="741.485" cy="191.386" r="1.31427" fill="#F3F3F3"/>
<circle cx="382.314" cy="219.014" r="1.31427" fill="#F3F3F3"/>
<circle cx="409.943" cy="219.014" r="1.31427" fill="#F3F3F3"/>
<circle cx="437.571" cy="219.014" r="1.31427" fill="#F3F3F3"/>
<circle cx="465.2" cy="219.014" r="1.31427" fill="#F3F3F3"/>
<circle cx="492.828" cy="219.014" r="1.31427" fill="#F3F3F3"/>
<circle cx="520.457" cy="219.014" r="1.31427" fill="#F3F3F3"/>
<circle cx="548.086" cy="219.014" r="1.31427" fill="#F3F3F3"/>
<circle cx="575.714" cy="219.014" r="1.31427" fill="#F3F3F3"/>
<g clip-path="url(#clip1_895_5167)">
<rect x="628.671" y="37.3796" width="223" height="215.498" rx="4" fill="#DFDFDF"/>
<rect width="223" height="30.0845" transform="translate(628.671 37.3796)" fill="white"/>
<path d="M641.213 45.9219H638.546C638.193 45.9219 637.853 46.0624 637.603 46.3124C637.353 46.5624 637.213 46.9016 637.213 47.2552V49.9219M641.213 45.9219H647.88C648.233 45.9219 648.572 46.0624 648.822 46.3124C649.072 46.5624 649.213 46.9016 649.213 47.2552V49.9219M641.213 45.9219V57.9219M637.213 49.9219V56.5885C637.213 56.9422 637.353 57.2813 637.603 57.5314C637.853 57.7814 638.193 57.9219 638.546 57.9219H641.213M637.213 49.9219H649.213M649.213 49.9219V56.5885C649.213 56.9422 649.072 57.2813 648.822 57.5314C648.572 57.7814 648.233 57.9219 647.88 57.9219H641.213" stroke="#707070" stroke-linecap="round" stroke-linejoin="round"/>
<path d="M658.681 54.7239C658.681 53.9252 659.266 53.4795 660.037 53.368L661.244 53.1916C661.514 53.1544 661.588 53.0151 661.588 52.8573C661.588 52.4208 661.3 52.0586 660.622 52.0586C660.009 52.0586 659.666 52.4393 659.61 52.9594L658.774 52.7644C658.867 51.91 659.638 51.3157 660.603 51.3157C661.941 51.3157 662.461 52.0772 662.461 52.9501V55.1882C662.461 55.5783 662.498 55.8104 662.517 55.9219H661.662C661.644 55.8104 661.616 55.6433 661.616 55.3182C661.421 55.634 660.975 56.0612 660.176 56.0612C659.266 56.0612 658.681 55.4297 658.681 54.7239ZM660.297 55.3275C661.012 55.3275 661.588 54.9839 661.588 54.0088V53.8045L660.223 54.0088C659.851 54.0645 659.573 54.2781 659.573 54.6775C659.573 55.0118 659.851 55.3275 660.297 55.3275ZM664.684 57.6864H663.821V51.455H664.666V52.1515C664.907 51.7057 665.437 51.3528 666.161 51.3528C667.498 51.3528 668.213 52.3836 668.213 53.6838C668.213 55.0118 667.443 56.0426 666.133 56.0426C665.446 56.0426 664.926 55.7176 664.684 55.3182V57.6864ZM667.322 53.6838C667.322 52.7922 666.82 52.1236 666.003 52.1236C665.204 52.1236 664.675 52.7922 664.675 53.6838C664.675 54.6032 665.204 55.2625 666.003 55.2625C666.811 55.2625 667.322 54.6032 667.322 53.6838ZM670.189 57.6864H669.326V51.455H670.171V52.1515C670.412 51.7057 670.942 51.3528 671.666 51.3528C673.003 51.3528 673.718 52.3836 673.718 53.6838C673.718 55.0118 672.948 56.0426 671.638 56.0426C670.951 56.0426 670.431 55.7176 670.189 55.3182V57.6864ZM672.827 53.6838C672.827 52.7922 672.325 52.1236 671.508 52.1236C670.709 52.1236 670.18 52.7922 670.18 53.6838C670.18 54.6032 670.709 55.2625 671.508 55.2625C672.316 55.2625 672.827 54.6032 672.827 53.6838ZM675.704 55.9219H674.831V49.1983H675.704V55.9219ZM678.052 55.9219H677.189V51.455H678.052V55.9219ZM676.994 49.7648C676.994 49.4119 677.272 49.1333 677.616 49.1333C677.969 49.1333 678.247 49.4119 678.247 49.7648C678.247 50.1084 677.969 50.387 677.616 50.387C677.272 50.387 676.994 50.1084 676.994 49.7648ZM681.413 52.1236C680.708 52.1236 680.058 52.6437 680.058 53.6838C680.058 54.7053 680.698 55.2532 681.423 55.2532C682.258 55.2532 682.565 54.6867 682.667 54.3338L683.438 54.6682C683.224 55.309 682.584 56.0612 681.423 56.0612C680.123 56.0612 679.166 55.0396 679.166 53.6838C679.166 52.2908 680.141 51.3157 681.413 51.3157C682.602 51.3157 683.215 52.0586 683.401 52.7365L682.611 53.0708C682.5 52.6344 682.175 52.1236 681.413 52.1236ZM684.138 54.7239C684.138 53.9252 684.723 53.4795 685.494 53.368L686.701 53.1916C686.97 53.1544 687.045 53.0151 687.045 52.8573C687.045 52.4208 686.757 52.0586 686.079 52.0586C685.466 52.0586 685.122 52.4393 685.067 52.9594L684.231 52.7644C684.324 51.91 685.095 51.3157 686.06 51.3157C687.398 51.3157 687.918 52.0772 687.918 52.9501V55.1882C687.918 55.5783 687.955 55.8104 687.973 55.9219H687.119C687.101 55.8104 687.073 55.6433 687.073 55.3182C686.878 55.634 686.432 56.0612 685.633 56.0612C684.723 56.0612 684.138 55.4297 684.138 54.7239ZM685.754 55.3275C686.469 55.3275 687.045 54.9839 687.045 54.0088V53.8045L685.68 54.0088C685.308 54.0645 685.03 54.2781 685.03 54.6775C685.03 55.0118 685.308 55.3275 685.754 55.3275ZM690.151 53.3402V55.9219H689.278V51.455H690.132V52.0957C690.457 51.5385 690.986 51.3249 691.506 51.3249C692.574 51.3249 693.104 52.0957 693.104 53.0894V55.9219H692.231V53.238C692.231 52.6158 691.971 52.1143 691.191 52.1143C690.504 52.1143 690.151 52.6622 690.151 53.3402ZM695.663 50.0434V51.455H696.628V52.2443H695.663V54.566C695.663 54.9746 695.83 55.1789 696.285 55.1789C696.396 55.1789 696.554 55.1604 696.628 55.1418V55.8847C696.554 55.9126 696.331 55.9683 696.034 55.9683C695.272 55.9683 694.79 55.504 694.79 54.696V52.2443H693.935V51.455H694.177C694.66 51.455 694.864 51.1578 694.864 50.7677V50.0434H695.663ZM697.421 54.761L698.21 54.4824C698.266 54.9468 698.619 55.3182 699.25 55.3182C699.743 55.3182 700.012 55.0396 700.012 54.7239C700.012 54.4453 699.808 54.2317 699.436 54.1481L698.675 53.9809C697.978 53.8324 697.56 53.3587 697.56 52.7272C697.56 51.9657 698.275 51.3157 699.148 51.3157C700.374 51.3157 700.755 52.1143 700.848 52.5136L700.077 52.8015C700.04 52.5694 699.854 52.0586 699.148 52.0586C698.703 52.0586 698.405 52.3465 698.405 52.6529C698.405 52.9223 698.573 53.1173 698.916 53.1916L699.64 53.3494C700.448 53.5259 700.876 54.0181 700.876 54.6775C700.876 55.309 700.346 56.0612 699.241 56.0612C698.015 56.0612 697.495 55.2718 697.421 54.761Z" fill="#171717"/>
<rect width="223" height="30.0845" transform="translate(628.671 68.282)" fill="#FCFCFC"/>
<g clip-path="url(#clip2_895_5167)">
<path d="M643.963 79.1575L643.129 79.9908M643.129 79.9908L644.379 81.2408L642.921 82.6991L641.671 81.4491M643.129 79.9908L641.671 81.4491M639.958 83.1616C640.173 83.3739 640.345 83.6267 640.462 83.9053C640.579 84.1839 640.639 84.483 640.64 84.7852C640.641 85.0875 640.583 85.3869 640.467 85.6663C640.352 85.9458 640.183 86.1997 639.969 86.4134C639.756 86.6271 639.502 86.7964 639.222 86.9116C638.943 87.0268 638.643 87.0856 638.341 87.0846C638.039 87.0836 637.74 87.0228 637.461 86.9057C637.183 86.7886 636.93 86.6176 636.718 86.4025C636.3 85.9703 636.069 85.3914 636.074 84.7905C636.08 84.1896 636.321 83.6149 636.745 83.19C637.17 82.7651 637.745 82.5241 638.346 82.5188C638.947 82.5136 639.526 82.7446 639.958 83.1621L639.958 83.1616ZM639.958 83.1616L641.671 81.4491" stroke="#707070" stroke-width="0.8" stroke-linecap="round" stroke-linejoin="round"/>
</g>
<path d="M661.087 82.6153L657.923 79.451C657.531 79.0589 656.895 79.0589 656.503 79.451L653.339 82.6153C652.946 83.0075 652.946 83.6433 653.339 84.0354L656.503 87.1997C656.895 87.5919 657.531 87.5919 657.923 87.1997L661.087 84.0354C661.479 83.6433 661.479 83.0075 661.087 82.6153Z" fill="#707070"/>
<path d="M670.511 82.7742V82.0142H671.951L672.311 80.3442H673.151L672.791 82.0142H674.211L674.571 80.3442H675.411L675.051 82.0142H676.401V82.7742H674.891L674.551 84.3742H675.911V85.1342H674.381L674.021 86.8242H673.181L673.541 85.1342H672.121L671.761 86.8242H670.921L671.281 85.1342H670.021V84.3742H671.451L671.791 82.7742H670.511ZM672.631 82.7742L672.291 84.3742H673.711L674.051 82.7742H672.631Z" fill="#525252"/>
<rect width="223" height="30.0845" transform="translate(628.671 99.1841)" fill="#FCFCFC"/>
<path d="M644.087 113.517L640.923 110.353C640.531 109.961 639.895 109.961 639.503 110.353L636.339 113.517C635.946 113.91 635.946 114.545 636.339 114.938L639.503 118.102C639.895 118.494 640.531 118.494 640.923 118.102L644.087 114.938C644.479 114.545 644.479 113.91 644.087 113.517Z" fill="#707070"/>
<path d="M655.208 110.456C655.528 110.456 655.728 110.526 655.768 110.556V111.396C655.718 111.376 655.598 111.336 655.358 111.336C655.028 111.336 654.598 111.486 654.598 112.146V112.916H657.778V117.726H656.848V113.766H654.598V117.726H653.628V113.766H652.738V112.916H653.628V112.106C653.628 111.036 654.338 110.456 655.208 110.456ZM656.638 111.076C656.638 110.696 656.938 110.396 657.308 110.396C657.688 110.396 657.988 110.696 657.988 111.076C657.988 111.446 657.688 111.746 657.308 111.746C656.938 111.746 656.638 111.446 656.638 111.076ZM662.043 112.866V113.866C661.903 113.846 661.763 113.836 661.633 113.836C660.843 113.836 660.313 114.256 660.313 115.316V117.726H659.373V112.916H660.293V113.756C660.643 113.016 661.243 112.836 661.733 112.836C661.863 112.836 661.993 112.856 662.043 112.866ZM662.595 116.476L663.445 116.176C663.505 116.676 663.885 117.076 664.565 117.076C665.095 117.076 665.385 116.776 665.385 116.436C665.385 116.136 665.165 115.906 664.765 115.816L663.945 115.636C663.195 115.476 662.745 114.966 662.745 114.286C662.745 113.466 663.515 112.766 664.455 112.766C665.775 112.766 666.185 113.626 666.285 114.056L665.455 114.366C665.415 114.116 665.215 113.566 664.455 113.566C663.975 113.566 663.655 113.876 663.655 114.206C663.655 114.496 663.835 114.706 664.205 114.786L664.985 114.956C665.855 115.146 666.315 115.676 666.315 116.386C666.315 117.066 665.745 117.876 664.555 117.876C663.235 117.876 662.675 117.026 662.595 116.476ZM668.827 111.396V112.916H669.867V113.766H668.827V116.266C668.827 116.706 669.007 116.926 669.497 116.926C669.617 116.926 669.787 116.906 669.867 116.886V117.686C669.787 117.716 669.547 117.776 669.227 117.776C668.407 117.776 667.887 117.276 667.887 116.406V113.766H666.967V112.916H667.227C667.747 112.916 667.967 112.596 667.967 112.176V111.396H668.827ZM675.894 118.516H670.774V117.726H675.894V118.516ZM677.784 114.946V117.726H676.844V112.916H677.764V113.606C678.114 113.006 678.684 112.776 679.244 112.776C680.394 112.776 680.964 113.606 680.964 114.676V117.726H680.024V114.836C680.024 114.166 679.744 113.626 678.904 113.626C678.164 113.626 677.784 114.216 677.784 114.946ZM682.159 116.436C682.159 115.576 682.789 115.096 683.619 114.976L684.919 114.786C685.209 114.746 685.289 114.596 685.289 114.426C685.289 113.956 684.979 113.566 684.249 113.566C683.589 113.566 683.219 113.976 683.159 114.536L682.259 114.326C682.359 113.406 683.189 112.766 684.229 112.766C685.669 112.766 686.229 113.586 686.229 114.526V116.936C686.229 117.356 686.269 117.606 686.289 117.726H685.369C685.349 117.606 685.319 117.426 685.319 117.076C685.109 117.416 684.629 117.876 683.769 117.876C682.789 117.876 682.159 117.196 682.159 116.436ZM683.899 117.086C684.669 117.086 685.289 116.716 685.289 115.666V115.446L683.819 115.666C683.419 115.726 683.119 115.956 683.119 116.386C683.119 116.746 683.419 117.086 683.899 117.086ZM688.624 117.726H687.694V112.916H688.594V113.556C688.894 113.026 689.494 112.776 690.054 112.776C690.654 112.776 691.234 113.066 691.494 113.686C691.874 112.996 692.494 112.776 693.104 112.776C693.944 112.776 694.764 113.346 694.764 114.606V117.726H693.834V114.706C693.834 114.076 693.524 113.606 692.814 113.606C692.154 113.606 691.704 114.126 691.704 114.816V117.726H690.764V114.706C690.764 114.086 690.464 113.606 689.744 113.606C689.074 113.606 688.624 114.106 688.624 114.826V117.726ZM696.878 114.826H699.508C699.488 114.136 699.038 113.596 698.188 113.596C697.398 113.596 696.918 114.206 696.878 114.826ZM699.648 116.076L700.458 116.356C700.188 117.206 699.418 117.876 698.298 117.876C697.008 117.876 695.878 116.936 695.878 115.306C695.878 113.796 696.968 112.766 698.178 112.766C699.658 112.766 700.488 113.786 700.488 115.286C700.488 115.406 700.478 115.526 700.468 115.586H696.848C696.868 116.446 697.488 117.046 698.298 117.046C699.078 117.046 699.468 116.616 699.648 116.076Z" fill="#525252"/>
<rect width="223" height="30.0845" transform="translate(628.671 130.086)" fill="#FCFCFC"/>
<g clip-path="url(#clip3_895_5167)">
<path d="M644.087 144.42L640.923 141.255C640.531 140.863 639.895 140.863 639.503 141.255L636.339 144.42C635.946 144.812 635.946 145.448 636.339 145.84L639.503 149.004C639.895 149.396 640.531 149.396 640.923 149.004L644.087 145.84C644.479 145.448 644.479 144.812 644.087 144.42Z" fill="#707070"/>
</g>
<path d="M654.245 148.629H653.305V141.389H654.245V148.629ZM655.544 147.339C655.544 146.479 656.174 145.999 657.004 145.879L658.304 145.689C658.594 145.649 658.674 145.499 658.674 145.329C658.674 144.859 658.364 144.469 657.634 144.469C656.974 144.469 656.604 144.879 656.544 145.439L655.644 145.229C655.744 144.309 656.574 143.669 657.614 143.669C659.054 143.669 659.614 144.489 659.614 145.429V147.839C659.614 148.259 659.654 148.509 659.674 148.629H658.754C658.734 148.509 658.704 148.329 658.704 147.979C658.494 148.319 658.014 148.779 657.154 148.779C656.174 148.779 655.544 148.099 655.544 147.339ZM657.284 147.989C658.054 147.989 658.674 147.619 658.674 146.569V146.349L657.204 146.569C656.804 146.629 656.504 146.859 656.504 147.289C656.504 147.649 656.804 147.989 657.284 147.989ZM660.628 147.379L661.478 147.079C661.538 147.579 661.918 147.979 662.598 147.979C663.128 147.979 663.418 147.679 663.418 147.339C663.418 147.039 663.198 146.809 662.798 146.719L661.978 146.539C661.228 146.379 660.778 145.869 660.778 145.189C660.778 144.369 661.548 143.669 662.488 143.669C663.808 143.669 664.218 144.529 664.318 144.959L663.488 145.269C663.448 145.019 663.248 144.469 662.488 144.469C662.008 144.469 661.688 144.779 661.688 145.109C661.688 145.399 661.868 145.609 662.238 145.689L663.018 145.859C663.888 146.049 664.348 146.579 664.348 147.289C664.348 147.969 663.778 148.779 662.588 148.779C661.268 148.779 660.708 147.929 660.628 147.379ZM666.86 142.299V143.819H667.9V144.669H666.86V147.169C666.86 147.609 667.04 147.829 667.53 147.829C667.65 147.829 667.82 147.809 667.9 147.789V148.589C667.82 148.619 667.58 148.679 667.26 148.679C666.44 148.679 665.92 148.179 665.92 147.309V144.669H665V143.819H665.26C665.78 143.819 666 143.499 666 143.079V142.299H666.86ZM673.927 149.419H668.807V148.629H673.927V149.419ZM675.817 145.849V148.629H674.877V143.819H675.797V144.509C676.147 143.909 676.717 143.679 677.277 143.679C678.427 143.679 678.997 144.509 678.997 145.579V148.629H678.057V145.739C678.057 145.069 677.777 144.529 676.937 144.529C676.197 144.529 675.817 145.119 675.817 145.849ZM680.192 147.339C680.192 146.479 680.822 145.999 681.652 145.879L682.952 145.689C683.242 145.649 683.322 145.499 683.322 145.329C683.322 144.859 683.012 144.469 682.282 144.469C681.622 144.469 681.252 144.879 681.192 145.439L680.292 145.229C680.392 144.309 681.222 143.669 682.262 143.669C683.702 143.669 684.262 144.489 684.262 145.429V147.839C684.262 148.259 684.302 148.509 684.322 148.629H683.402C683.382 148.509 683.352 148.329 683.352 147.979C683.142 148.319 682.662 148.779 681.802 148.779C680.822 148.779 680.192 148.099 680.192 147.339ZM681.932 147.989C682.702 147.989 683.322 147.619 683.322 146.569V146.349L681.852 146.569C681.452 146.629 681.152 146.859 681.152 147.289C681.152 147.649 681.452 147.989 681.932 147.989ZM686.657 148.629H685.727V143.819H686.627V144.459C686.927 143.929 687.527 143.679 688.087 143.679C688.687 143.679 689.267 143.969 689.527 144.589C689.907 143.899 690.527 143.679 691.137 143.679C691.977 143.679 692.797 144.249 692.797 145.509V148.629H691.867V145.609C691.867 144.979 691.557 144.509 690.847 144.509C690.187 144.509 689.737 145.029 689.737 145.719V148.629H688.797V145.609C688.797 144.989 688.497 144.509 687.777 144.509C687.107 144.509 686.657 145.009 686.657 145.729V148.629ZM694.911 145.729H697.541C697.521 145.039 697.071 144.499 696.221 144.499C695.431 144.499 694.951 145.109 694.911 145.729ZM697.681 146.979L698.491 147.259C698.221 148.109 697.451 148.779 696.331 148.779C695.041 148.779 693.911 147.839 693.911 146.209C693.911 144.699 695.001 143.669 696.211 143.669C697.691 143.669 698.521 144.689 698.521 146.189C698.521 146.309 698.511 146.429 698.501 146.489H694.881C694.901 147.349 695.521 147.949 696.331 147.949C697.111 147.949 697.501 147.519 697.681 146.979Z" fill="#525252"/>
<rect width="223" height="30.0845" transform="translate(628.671 160.989)" fill="#FCFCFC"/>
<g clip-path="url(#clip4_895_5167)">
<path d="M644.087 175.322L640.923 172.158C640.531 171.765 639.895 171.765 639.503 172.158L636.339 175.322C635.946 175.714 635.946 176.35 636.339 176.742L639.503 179.906C639.895 180.298 640.531 180.298 640.923 179.906L644.087 176.742C644.479 176.35 644.479 175.714 644.087 175.322Z" fill="#707070"/>
</g>
<path d="M653.974 176.631H656.604C656.584 175.941 656.134 175.401 655.284 175.401C654.494 175.401 654.014 176.011 653.974 176.631ZM656.744 177.881L657.554 178.161C657.284 179.011 656.514 179.681 655.394 179.681C654.104 179.681 652.974 178.741 652.974 177.111C652.974 175.601 654.064 174.571 655.274 174.571C656.754 174.571 657.584 175.591 657.584 177.091C657.584 177.211 657.574 177.331 657.564 177.391H653.944C653.964 178.251 654.584 178.851 655.394 178.851C656.174 178.851 656.564 178.421 656.744 177.881ZM659.714 179.531H658.784V174.721H659.684V175.361C659.984 174.831 660.584 174.581 661.144 174.581C661.744 174.581 662.324 174.871 662.584 175.491C662.964 174.801 663.584 174.581 664.194 174.581C665.034 174.581 665.854 175.151 665.854 176.411V179.531H664.924V176.511C664.924 175.881 664.614 175.411 663.904 175.411C663.244 175.411 662.794 175.931 662.794 176.621V179.531H661.854V176.511C661.854 175.891 661.554 175.411 660.834 175.411C660.164 175.411 659.714 175.911 659.714 176.631V179.531ZM667.059 178.241C667.059 177.381 667.689 176.901 668.519 176.781L669.819 176.591C670.109 176.551 670.189 176.401 670.189 176.231C670.189 175.761 669.879 175.371 669.149 175.371C668.489 175.371 668.119 175.781 668.059 176.341L667.159 176.131C667.259 175.211 668.089 174.571 669.129 174.571C670.569 174.571 671.129 175.391 671.129 176.331V178.741C671.129 179.161 671.169 179.411 671.189 179.531H670.269C670.249 179.411 670.219 179.231 670.219 178.881C670.009 179.221 669.529 179.681 668.669 179.681C667.689 179.681 667.059 179.001 667.059 178.241ZM668.799 178.891C669.569 178.891 670.189 178.521 670.189 177.471V177.251L668.719 177.471C668.319 177.531 668.019 177.761 668.019 178.191C668.019 178.551 668.319 178.891 668.799 178.891ZM673.523 179.531H672.593V174.721H673.523V179.531ZM672.383 172.901C672.383 172.521 672.683 172.221 673.053 172.221C673.433 172.221 673.733 172.521 673.733 172.901C673.733 173.271 673.433 173.571 673.053 173.571C672.683 173.571 672.383 173.271 672.383 172.901ZM676.062 179.531H675.122V172.291H676.062V179.531Z" fill="#525252"/>
<rect width="223" height="30.0845" transform="translate(628.671 191.891)" fill="#FCFCFC"/>
<g clip-path="url(#clip5_895_5167)">
<path d="M644.087 206.224L640.923 203.06C640.531 202.668 639.895 202.668 639.503 203.06L636.339 206.224C635.946 206.616 635.946 207.252 636.339 207.644L639.503 210.809C639.895 211.201 640.531 211.201 640.923 210.809L644.087 207.644C644.479 207.252 644.479 206.616 644.087 206.224Z" stroke="#707070" stroke-width="0.8" stroke-linecap="round" stroke-linejoin="round"/>
</g>
<path d="M654.293 212.333H653.363V205.623H654.273V206.373C654.533 205.893 655.103 205.513 655.883 205.513C657.323 205.513 658.093 206.623 658.093 208.023C658.093 209.453 657.263 210.563 655.853 210.563C655.113 210.563 654.553 210.213 654.293 209.783V212.333ZM657.133 208.023C657.133 207.063 656.593 206.343 655.713 206.343C654.853 206.343 654.283 207.063 654.283 208.023C654.283 209.013 654.853 209.723 655.713 209.723C656.583 209.723 657.133 209.013 657.133 208.023ZM660.23 207.603V210.433H659.29V203.193H660.23V206.183C660.58 205.673 661.14 205.483 661.69 205.483C662.84 205.483 663.41 206.313 663.41 207.383V210.433H662.47V207.543C662.47 206.873 662.19 206.333 661.35 206.333C660.63 206.333 660.25 206.893 660.23 207.603ZM666.965 209.743C667.765 209.743 668.465 209.143 668.465 208.023C668.465 206.913 667.765 206.313 666.965 206.313C666.165 206.313 665.465 206.913 665.465 208.023C665.465 209.143 666.165 209.743 666.965 209.743ZM666.965 205.473C668.405 205.473 669.425 206.563 669.425 208.023C669.425 209.493 668.405 210.583 666.965 210.583C665.525 210.583 664.505 209.493 664.505 208.023C664.505 206.563 665.525 205.473 666.965 205.473ZM671.568 207.653V210.433H670.628V205.623H671.548V206.313C671.898 205.713 672.468 205.483 673.028 205.483C674.178 205.483 674.748 206.313 674.748 207.383V210.433H673.808V207.543C673.808 206.873 673.528 206.333 672.688 206.333C671.948 206.333 671.568 206.923 671.568 207.653ZM676.853 207.533H679.483C679.463 206.843 679.013 206.303 678.163 206.303C677.373 206.303 676.893 206.913 676.853 207.533ZM679.623 208.783L680.433 209.063C680.163 209.913 679.393 210.583 678.273 210.583C676.983 210.583 675.853 209.643 675.853 208.013C675.853 206.503 676.943 205.473 678.153 205.473C679.633 205.473 680.463 206.493 680.463 207.993C680.463 208.113 680.453 208.233 680.443 208.293H676.823C676.843 209.153 677.463 209.753 678.273 209.753C679.053 209.753 679.443 209.323 679.623 208.783Z" fill="#525252"/>
</g>
<rect x="628.671" y="37.3796" width="223" height="215.498" rx="4" stroke="#DFDFDF" stroke-width="0.580421"/>
<g clip-path="url(#clip6_895_5167)">
<rect x="360" y="67.8242" width="223" height="215.498" rx="4" fill="#DFDFDF"/>
<rect width="223" height="30.0845" transform="translate(360 67.8242)" fill="white"/>
<path d="M372.542 76.3665H369.875C369.522 76.3665 369.183 76.5069 368.933 76.757C368.682 77.007 368.542 77.3462 368.542 77.6998V80.3665M372.542 76.3665H379.209C379.562 76.3665 379.901 76.5069 380.151 76.757C380.402 77.007 380.542 77.3462 380.542 77.6998V80.3665M372.542 76.3665V88.3665M368.542 80.3665V87.0331C368.542 87.3867 368.682 87.7259 368.933 87.9759C369.183 88.226 369.522 88.3665 369.875 88.3665H372.542M368.542 80.3665H380.542M380.542 80.3665V87.0331C380.542 87.3867 380.402 87.7259 380.151 87.9759C379.901 88.226 379.562 88.3665 379.209 88.3665H372.542" stroke="#707070" stroke-linecap="round" stroke-linejoin="round"/>
<path d="M389.7 85.1685C389.7 84.3698 390.285 83.924 391.056 83.8126L392.263 83.6362C392.533 83.599 392.607 83.4597 392.607 83.3018C392.607 82.8654 392.319 82.5032 391.641 82.5032C391.028 82.5032 390.685 82.8839 390.629 83.404L389.793 83.209C389.886 82.3546 390.657 81.7602 391.623 81.7602C392.96 81.7602 393.48 82.5217 393.48 83.3947V85.6328C393.48 86.0228 393.517 86.255 393.536 86.3665H392.681C392.663 86.255 392.635 86.0879 392.635 85.7628C392.44 86.0786 391.994 86.5058 391.195 86.5058C390.285 86.5058 389.7 85.8743 389.7 85.1685ZM391.316 85.7721C392.031 85.7721 392.607 85.4285 392.607 84.4534V84.2491L391.242 84.4534C390.87 84.5091 390.592 84.7227 390.592 85.122C390.592 85.4564 390.87 85.7721 391.316 85.7721ZM395.704 88.1309H394.84V81.8995H395.685V82.596C395.926 82.1503 396.456 81.7974 397.18 81.7974C398.517 81.7974 399.233 82.8282 399.233 84.1284C399.233 85.4564 398.462 86.4872 397.152 86.4872C396.465 86.4872 395.945 86.1621 395.704 85.7628V88.1309ZM398.341 84.1284C398.341 83.2368 397.839 82.5682 397.022 82.5682C396.224 82.5682 395.694 83.2368 395.694 84.1284C395.694 85.0477 396.224 85.7071 397.022 85.7071C397.83 85.7071 398.341 85.0477 398.341 84.1284ZM401.208 88.1309H400.345V81.8995H401.19V82.596C401.431 82.1503 401.961 81.7974 402.685 81.7974C404.022 81.7974 404.737 82.8282 404.737 84.1284C404.737 85.4564 403.967 86.4872 402.657 86.4872C401.97 86.4872 401.45 86.1621 401.208 85.7628V88.1309ZM403.846 84.1284C403.846 83.2368 403.344 82.5682 402.527 82.5682C401.729 82.5682 401.199 83.2368 401.199 84.1284C401.199 85.0477 401.729 85.7071 402.527 85.7071C403.335 85.7071 403.846 85.0477 403.846 84.1284ZM406.723 86.3665H405.85V79.6429H406.723V86.3665ZM409.071 86.3665H408.208V81.8995H409.071V86.3665ZM408.013 80.2094C408.013 79.8565 408.291 79.5779 408.635 79.5779C408.988 79.5779 409.266 79.8565 409.266 80.2094C409.266 80.553 408.988 80.8316 408.635 80.8316C408.291 80.8316 408.013 80.553 408.013 80.2094ZM412.433 82.5682C411.727 82.5682 411.077 83.0882 411.077 84.1284C411.077 85.1499 411.717 85.6978 412.442 85.6978C413.278 85.6978 413.584 85.1313 413.686 84.7784L414.457 85.1127C414.243 85.7535 413.603 86.5058 412.442 86.5058C411.142 86.5058 410.185 85.4842 410.185 84.1284C410.185 82.7353 411.16 81.7602 412.433 81.7602C413.621 81.7602 414.234 82.5032 414.42 83.1811L413.63 83.5154C413.519 83.079 413.194 82.5682 412.433 82.5682ZM415.157 85.1685C415.157 84.3698 415.742 83.924 416.513 83.8126L417.72 83.6362C417.99 83.599 418.064 83.4597 418.064 83.3018C418.064 82.8654 417.776 82.5032 417.098 82.5032C416.485 82.5032 416.142 82.8839 416.086 83.404L415.25 83.209C415.343 82.3546 416.114 81.7602 417.08 81.7602C418.417 81.7602 418.937 82.5217 418.937 83.3947V85.6328C418.937 86.0228 418.974 86.255 418.993 86.3665H418.138C418.12 86.255 418.092 86.0879 418.092 85.7628C417.897 86.0786 417.451 86.5058 416.652 86.5058C415.742 86.5058 415.157 85.8743 415.157 85.1685ZM416.773 85.7721C417.488 85.7721 418.064 85.4285 418.064 84.4534V84.2491L416.699 84.4534C416.327 84.5091 416.049 84.7227 416.049 85.122C416.049 85.4564 416.327 85.7721 416.773 85.7721ZM421.467 80.488V81.8995H422.433V82.6889H421.467V85.0106C421.467 85.4192 421.634 85.6235 422.089 85.6235C422.201 85.6235 422.358 85.6049 422.433 85.5864V86.3293C422.358 86.3572 422.136 86.4129 421.838 86.4129C421.077 86.4129 420.594 85.9486 420.594 85.1406V82.6889H419.74V81.8995H419.981C420.464 81.8995 420.668 81.6024 420.668 81.2123V80.488H421.467ZM424.462 86.3665H423.598V81.8995H424.462V86.3665ZM423.403 80.2094C423.403 79.8565 423.681 79.5779 424.025 79.5779C424.378 79.5779 424.657 79.8565 424.657 80.2094C424.657 80.553 424.378 80.8316 424.025 80.8316C423.681 80.8316 423.403 80.553 423.403 80.2094ZM427.86 85.7257C428.603 85.7257 429.253 85.1685 429.253 84.1284C429.253 83.0975 428.603 82.5403 427.86 82.5403C427.117 82.5403 426.467 83.0975 426.467 84.1284C426.467 85.1685 427.117 85.7257 427.86 85.7257ZM427.86 81.7602C429.197 81.7602 430.144 82.7725 430.144 84.1284C430.144 85.4935 429.197 86.5058 427.86 86.5058C426.523 86.5058 425.575 85.4935 425.575 84.1284C425.575 82.7725 426.523 81.7602 427.86 81.7602ZM432.134 83.7847V86.3665H431.261V81.8995H432.116V82.5403C432.441 81.9831 432.97 81.7695 433.49 81.7695C434.558 81.7695 435.087 82.5403 435.087 83.534V86.3665H434.214V83.6826C434.214 83.0604 433.954 82.5589 433.174 82.5589C432.487 82.5589 432.134 83.1068 432.134 83.7847ZM436.058 85.2056L436.847 84.927C436.903 85.3913 437.256 85.7628 437.888 85.7628C438.38 85.7628 438.649 85.4842 438.649 85.1685C438.649 84.8899 438.445 84.6763 438.073 84.5927L437.312 84.4255C436.615 84.2769 436.197 83.8033 436.197 83.1718C436.197 82.4103 436.912 81.7602 437.785 81.7602C439.011 81.7602 439.392 82.5589 439.485 82.9582L438.714 83.2461C438.677 83.0139 438.491 82.5032 437.785 82.5032C437.34 82.5032 437.042 82.7911 437.042 83.0975C437.042 83.3668 437.21 83.5619 437.553 83.6362L438.278 83.794C439.086 83.9705 439.513 84.4627 439.513 85.122C439.513 85.7535 438.983 86.5058 437.878 86.5058C436.652 86.5058 436.132 85.7164 436.058 85.2056Z" fill="#171717"/>
<rect width="223" height="30.0845" transform="translate(360 98.7266)" fill="#FCFCFC"/>
<g clip-path="url(#clip7_895_5167)">
<path d="M375.292 109.602L374.458 110.435M374.458 110.435L375.708 111.685L374.25 113.144L373 111.894M374.458 110.435L373 111.894M371.287 113.606C371.503 113.818 371.674 114.071 371.791 114.35C371.908 114.629 371.969 114.928 371.97 115.23C371.971 115.532 371.912 115.832 371.797 116.111C371.681 116.39 371.512 116.644 371.298 116.858C371.085 117.072 370.831 117.241 370.551 117.356C370.272 117.471 369.972 117.53 369.67 117.529C369.368 117.528 369.069 117.467 368.79 117.35C368.512 117.233 368.259 117.062 368.047 116.847C367.629 116.415 367.398 115.836 367.403 115.235C367.409 114.634 367.65 114.059 368.075 113.635C368.499 113.21 369.074 112.969 369.675 112.963C370.276 112.958 370.855 113.189 371.287 113.607L371.287 113.606ZM371.287 113.606L373 111.894" stroke="#707070" stroke-width="0.8" stroke-linecap="round" stroke-linejoin="round"/>
</g>
<path d="M392.416 113.06L389.252 109.896C388.86 109.503 388.224 109.503 387.832 109.896L384.668 113.06C384.275 113.452 384.275 114.088 384.668 114.48L387.832 117.644C388.224 118.036 388.86 118.036 389.252 117.644L392.416 114.48C392.808 114.088 392.808 113.452 392.416 113.06Z" fill="#707070"/>
<path d="M401.841 113.219V112.459H403.281L403.641 110.789H404.481L404.121 112.459H405.541L405.901 110.789H406.741L406.381 112.459H407.731V113.219H406.221L405.881 114.819H407.241V115.579H405.711L405.351 117.269H404.511L404.871 115.579H403.451L403.091 117.269H402.251L402.611 115.579H401.351V114.819H402.781L403.121 113.219H401.841ZM403.961 113.219L403.621 114.819H405.041L405.381 113.219H403.961Z" fill="#525252"/>
<path d="M556.904 111.604C556.644 111.604 556.462 111.551 556.356 111.446C556.257 111.341 556.208 111.211 556.208 111.056V110.861C556.208 110.706 556.257 110.576 556.356 110.471C556.462 110.366 556.641 110.313 556.895 110.313C557.155 110.313 557.335 110.366 557.434 110.471C557.539 110.576 557.592 110.706 557.592 110.861V111.056C557.592 111.211 557.539 111.341 557.434 111.446C557.335 111.551 557.158 111.604 556.904 111.604ZM554.759 116.452H556.394V113.294H554.759V112.477H557.406V116.452H558.938V117.269H554.759V116.452ZM560.17 117.269V112.477H561.182V113.294H561.228C561.278 113.17 561.34 113.053 561.414 112.941C561.495 112.824 561.591 112.724 561.702 112.644C561.813 112.557 561.943 112.489 562.092 112.44C562.241 112.39 562.414 112.365 562.612 112.365C563.095 112.365 563.485 112.523 563.782 112.839C564.079 113.155 564.228 113.604 564.228 114.186V117.269H563.216V114.334C563.216 113.573 562.885 113.192 562.222 113.192C562.092 113.192 561.965 113.21 561.841 113.248C561.717 113.279 561.606 113.328 561.507 113.396C561.408 113.464 561.327 113.551 561.266 113.656C561.21 113.762 561.182 113.882 561.182 114.018V117.269H560.17ZM568.032 117.269C567.611 117.269 567.301 117.157 567.103 116.934C566.905 116.705 566.806 116.411 566.806 116.052V113.294H565.329V112.477H566.379C566.558 112.477 566.685 112.443 566.76 112.375C566.834 112.3 566.871 112.17 566.871 111.985V110.787H567.818V112.477H569.861V113.294H567.818V116.452H569.861V117.269H568.032ZM573.312 117.38C572.929 117.38 572.591 117.334 572.3 117.241C572.009 117.142 571.765 117.009 571.567 116.842C571.368 116.674 571.217 116.476 571.111 116.247C571.012 116.018 570.963 115.767 570.963 115.495C570.963 115.062 571.084 114.715 571.325 114.455C571.567 114.195 571.882 114.012 572.272 113.907V113.833C571.938 113.715 571.669 113.529 571.464 113.276C571.26 113.022 571.158 112.709 571.158 112.338C571.158 111.836 571.344 111.434 571.715 111.13C572.093 110.827 572.625 110.675 573.312 110.675C574 110.675 574.529 110.827 574.9 111.13C575.278 111.434 575.467 111.836 575.467 112.338C575.467 112.709 575.365 113.022 575.16 113.276C574.956 113.529 574.687 113.715 574.353 113.833V113.907C574.743 114.012 575.058 114.195 575.3 114.455C575.541 114.715 575.662 115.062 575.662 115.495C575.662 115.767 575.609 116.018 575.504 116.247C575.405 116.476 575.256 116.674 575.058 116.842C574.86 117.009 574.616 117.142 574.325 117.241C574.034 117.334 573.696 117.38 573.312 117.38ZM573.312 116.554C573.721 116.554 574.034 116.464 574.25 116.284C574.473 116.105 574.585 115.851 574.585 115.523V115.328C574.585 115 574.473 114.746 574.25 114.566C574.034 114.387 573.721 114.297 573.312 114.297C572.904 114.297 572.588 114.387 572.365 114.566C572.149 114.746 572.04 115 572.04 115.328V115.523C572.04 115.851 572.149 116.105 572.365 116.284C572.588 116.464 572.904 116.554 573.312 116.554ZM573.312 113.498C573.684 113.498 573.966 113.418 574.158 113.257C574.356 113.09 574.455 112.858 574.455 112.56V112.44C574.455 112.143 574.356 111.913 574.158 111.752C573.966 111.585 573.684 111.502 573.312 111.502C572.941 111.502 572.656 111.585 572.458 111.752C572.266 111.913 572.17 112.143 572.17 112.44V112.56C572.17 112.858 572.266 113.09 572.458 113.257C572.656 113.418 572.941 113.498 573.312 113.498Z" fill="#B2B2B2"/>
<rect width="223" height="30.0845" transform="translate(360 129.629)" fill="#FCFCFC"/>
<path d="M375.416 143.962L372.252 140.798C371.86 140.406 371.224 140.406 370.832 140.798L367.668 143.962C367.275 144.354 367.275 144.99 367.668 145.382L370.832 148.546C371.224 148.939 371.86 148.939 372.252 148.546L375.416 145.382C375.808 144.99 375.808 144.354 375.416 143.962Z" fill="#707070"/>
<path d="M384.068 146.881C384.068 146.021 384.698 145.541 385.528 145.421L386.828 145.231C387.118 145.191 387.198 145.041 387.198 144.871C387.198 144.401 386.888 144.011 386.158 144.011C385.498 144.011 385.128 144.421 385.068 144.981L384.168 144.771C384.268 143.851 385.098 143.211 386.138 143.211C387.578 143.211 388.138 144.031 388.138 144.971V147.381C388.138 147.801 388.178 148.051 388.198 148.171H387.278C387.258 148.051 387.228 147.871 387.228 147.521C387.018 147.861 386.538 148.321 385.678 148.321C384.698 148.321 384.068 147.641 384.068 146.881ZM385.808 147.531C386.578 147.531 387.198 147.161 387.198 146.111V145.891L385.728 146.111C385.328 146.171 385.028 146.401 385.028 146.831C385.028 147.191 385.328 147.531 385.808 147.531ZM390.533 150.071H389.603V143.361H390.513V144.111C390.773 143.631 391.343 143.251 392.123 143.251C393.563 143.251 394.333 144.361 394.333 145.761C394.333 147.191 393.503 148.301 392.093 148.301C391.353 148.301 390.793 147.951 390.533 147.521V150.071ZM393.373 145.761C393.373 144.801 392.833 144.081 391.953 144.081C391.093 144.081 390.523 144.801 390.523 145.761C390.523 146.751 391.093 147.461 391.953 147.461C392.823 147.461 393.373 146.751 393.373 145.761ZM396.46 150.071H395.53V143.361H396.44V144.111C396.7 143.631 397.27 143.251 398.05 143.251C399.49 143.251 400.26 144.361 400.26 145.761C400.26 147.191 399.43 148.301 398.02 148.301C397.28 148.301 396.72 147.951 396.46 147.521V150.071ZM399.3 145.761C399.3 144.801 398.76 144.081 397.88 144.081C397.02 144.081 396.45 144.801 396.45 145.761C396.45 146.751 397.02 147.461 397.88 147.461C398.75 147.461 399.3 146.751 399.3 145.761ZM402.398 148.171H401.458V140.931H402.398V148.171ZM404.927 148.171H403.997V143.361H404.927V148.171ZM403.787 141.541C403.787 141.161 404.087 140.861 404.457 140.861C404.837 140.861 405.137 141.161 405.137 141.541C405.137 141.911 404.837 142.211 404.457 142.211C404.087 142.211 403.787 141.911 403.787 141.541ZM408.547 144.081C407.787 144.081 407.087 144.641 407.087 145.761C407.087 146.861 407.777 147.451 408.557 147.451C409.457 147.451 409.787 146.841 409.897 146.461L410.727 146.821C410.497 147.511 409.807 148.321 408.557 148.321C407.157 148.321 406.127 147.221 406.127 145.761C406.127 144.261 407.177 143.211 408.547 143.211C409.827 143.211 410.487 144.011 410.687 144.741L409.837 145.101C409.717 144.631 409.367 144.081 408.547 144.081ZM411.48 146.881C411.48 146.021 412.11 145.541 412.94 145.421L414.24 145.231C414.53 145.191 414.61 145.041 414.61 144.871C414.61 144.401 414.3 144.011 413.57 144.011C412.91 144.011 412.54 144.421 412.48 144.981L411.58 144.771C411.68 143.851 412.51 143.211 413.55 143.211C414.99 143.211 415.55 144.031 415.55 144.971V147.381C415.55 147.801 415.59 148.051 415.61 148.171H414.69C414.67 148.051 414.64 147.871 414.64 147.521C414.43 147.861 413.95 148.321 413.09 148.321C412.11 148.321 411.48 147.641 411.48 146.881ZM413.22 147.531C413.99 147.531 414.61 147.161 414.61 146.111V145.891L413.14 146.111C412.74 146.171 412.44 146.401 412.44 146.831C412.44 147.191 412.74 147.531 413.22 147.531ZM417.955 145.391V148.171H417.015V143.361H417.935V144.051C418.285 143.451 418.855 143.221 419.415 143.221C420.565 143.221 421.135 144.051 421.135 145.121V148.171H420.195V145.281C420.195 144.611 419.915 144.071 419.075 144.071C418.335 144.071 417.955 144.661 417.955 145.391ZM423.89 141.841V143.361H424.93V144.211H423.89V146.711C423.89 147.151 424.07 147.371 424.56 147.371C424.68 147.371 424.85 147.351 424.93 147.331V148.131C424.85 148.161 424.61 148.221 424.29 148.221C423.47 148.221 422.95 147.721 422.95 146.851V144.211H422.03V143.361H422.29C422.81 143.361 423.03 143.041 423.03 142.621V141.841H423.89ZM430.958 148.961H425.838V148.171H430.958V148.961ZM432.837 148.171H431.907V143.361H432.837V148.171ZM431.697 141.541C431.697 141.161 431.997 140.861 432.367 140.861C432.747 140.861 433.047 141.161 433.047 141.541C433.047 141.911 432.747 142.211 432.367 142.211C431.997 142.211 431.697 141.911 431.697 141.541ZM434.997 145.751C434.997 146.741 435.507 147.471 436.407 147.471C437.267 147.471 437.797 146.721 437.797 145.731C437.797 144.741 437.277 144.061 436.417 144.061C435.557 144.061 434.997 144.761 434.997 145.751ZM437.807 147.521V147.441C437.577 147.901 437.067 148.301 436.317 148.301C434.907 148.301 434.037 147.181 434.037 145.751C434.037 144.391 434.957 143.231 436.317 143.231C437.167 143.231 437.627 143.651 437.787 144.041V140.931H438.717V147.281C438.717 147.741 438.757 148.091 438.767 148.171H437.857C437.837 148.061 437.807 147.811 437.807 147.521Z" fill="#525252"/>
<path d="M556.904 142.506C556.644 142.506 556.462 142.453 556.356 142.348C556.257 142.243 556.208 142.113 556.208 141.958V141.763C556.208 141.608 556.257 141.478 556.356 141.373C556.462 141.268 556.641 141.215 556.895 141.215C557.155 141.215 557.335 141.268 557.434 141.373C557.539 141.478 557.592 141.608 557.592 141.763V141.958C557.592 142.113 557.539 142.243 557.434 142.348C557.335 142.453 557.158 142.506 556.904 142.506ZM554.759 147.354H556.394V144.196H554.759V143.379H557.406V147.354H558.938V148.171H554.759V147.354ZM560.17 148.171V143.379H561.182V144.196H561.228C561.278 144.072 561.34 143.955 561.414 143.843C561.495 143.726 561.591 143.627 561.702 143.546C561.813 143.459 561.943 143.391 562.092 143.342C562.241 143.292 562.414 143.268 562.612 143.268C563.095 143.268 563.485 143.425 563.782 143.741C564.079 144.057 564.228 144.506 564.228 145.088V148.171H563.216V145.236C563.216 144.475 562.885 144.094 562.222 144.094C562.092 144.094 561.965 144.113 561.841 144.15C561.717 144.181 561.606 144.23 561.507 144.298C561.408 144.366 561.327 144.453 561.266 144.558C561.21 144.664 561.182 144.784 561.182 144.921V148.171H560.17ZM568.032 148.171C567.611 148.171 567.301 148.059 567.103 147.837C566.905 147.608 566.806 147.313 566.806 146.954V144.196H565.329V143.379H566.379C566.558 143.379 566.685 143.345 566.76 143.277C566.834 143.202 566.871 143.072 566.871 142.887V141.689H567.818V143.379H569.861V144.196H567.818V147.354H569.861V148.171H568.032ZM573.312 148.282C572.929 148.282 572.591 148.236 572.3 148.143C572.009 148.044 571.765 147.911 571.567 147.744C571.368 147.577 571.217 147.378 571.111 147.149C571.012 146.92 570.963 146.67 570.963 146.397C570.963 145.964 571.084 145.617 571.325 145.357C571.567 145.097 571.882 144.914 572.272 144.809V144.735C571.938 144.617 571.669 144.431 571.464 144.178C571.26 143.924 571.158 143.611 571.158 143.24C571.158 142.738 571.344 142.336 571.715 142.032C572.093 141.729 572.625 141.577 573.312 141.577C574 141.577 574.529 141.729 574.9 142.032C575.278 142.336 575.467 142.738 575.467 143.24C575.467 143.611 575.365 143.924 575.16 144.178C574.956 144.431 574.687 144.617 574.353 144.735V144.809C574.743 144.914 575.058 145.097 575.3 145.357C575.541 145.617 575.662 145.964 575.662 146.397C575.662 146.67 575.609 146.92 575.504 147.149C575.405 147.378 575.256 147.577 575.058 147.744C574.86 147.911 574.616 148.044 574.325 148.143C574.034 148.236 573.696 148.282 573.312 148.282ZM573.312 147.456C573.721 147.456 574.034 147.366 574.25 147.187C574.473 147.007 574.585 146.753 574.585 146.425V146.23C574.585 145.902 574.473 145.648 574.25 145.468C574.034 145.289 573.721 145.199 573.312 145.199C572.904 145.199 572.588 145.289 572.365 145.468C572.149 145.648 572.04 145.902 572.04 146.23V146.425C572.04 146.753 572.149 147.007 572.365 147.187C572.588 147.366 572.904 147.456 573.312 147.456ZM573.312 144.4C573.684 144.4 573.966 144.32 574.158 144.159C574.356 143.992 574.455 143.76 574.455 143.463V143.342C574.455 143.045 574.356 142.816 574.158 142.655C573.966 142.487 573.684 142.404 573.312 142.404C572.941 142.404 572.656 142.487 572.458 142.655C572.266 142.816 572.17 143.045 572.17 143.342V143.463C572.17 143.76 572.266 143.992 572.458 144.159C572.656 144.32 572.941 144.4 573.312 144.4Z" fill="#B2B2B2"/>
<rect width="223" height="30.0845" transform="translate(360 160.531)" fill="#FCFCFC"/>
<path d="M375.416 174.864L372.252 171.7C371.86 171.308 371.224 171.308 370.832 171.7L367.668 174.864C367.275 175.256 367.275 175.892 367.668 176.284L370.832 179.449C371.224 179.841 371.86 179.841 372.252 179.449L375.416 176.284C375.808 175.892 375.808 175.256 375.416 174.864Z" fill="#707070"/>
<path d="M384.431 179.593V174.263H385.371V179.633C385.371 180.503 384.871 181.123 384.041 181.123C383.681 181.123 383.541 181.073 383.481 181.053V180.263C383.531 180.273 383.641 180.293 383.781 180.293C384.271 180.293 384.431 180.033 384.431 179.593ZM384.221 172.423C384.221 172.043 384.521 171.743 384.891 171.743C385.271 171.743 385.571 172.043 385.571 172.423C385.571 172.793 385.271 173.093 384.891 173.093C384.521 173.093 384.221 172.793 384.221 172.423ZM389.03 178.383C389.83 178.383 390.53 177.783 390.53 176.663C390.53 175.553 389.83 174.953 389.03 174.953C388.23 174.953 387.53 175.553 387.53 176.663C387.53 177.783 388.23 178.383 389.03 178.383ZM389.03 174.113C390.47 174.113 391.49 175.203 391.49 176.663C391.49 178.133 390.47 179.223 389.03 179.223C387.59 179.223 386.57 178.133 386.57 176.663C386.57 175.203 387.59 174.113 389.03 174.113ZM393.623 179.073H392.693V171.833H393.623V174.943C393.853 174.513 394.413 174.123 395.213 174.123C396.673 174.123 397.423 175.243 397.423 176.643C397.423 178.073 396.613 179.203 395.183 179.203C394.473 179.203 393.923 178.893 393.623 178.373V179.073ZM396.463 176.643C396.463 175.603 395.913 174.953 395.043 174.953C394.213 174.953 393.613 175.603 393.613 176.643C393.613 177.683 394.213 178.363 395.043 178.363C395.903 178.363 396.463 177.683 396.463 176.643ZM402.895 179.863H397.775V179.073H402.895V179.863ZM404.775 179.073H403.845V174.263H404.775V179.073ZM403.635 172.443C403.635 172.063 403.935 171.763 404.305 171.763C404.685 171.763 404.985 172.063 404.985 172.443C404.985 172.813 404.685 173.113 404.305 173.113C403.935 173.113 403.635 172.813 403.635 172.443ZM406.934 176.653C406.934 177.643 407.444 178.373 408.344 178.373C409.204 178.373 409.734 177.623 409.734 176.633C409.734 175.643 409.214 174.963 408.354 174.963C407.494 174.963 406.934 175.663 406.934 176.653ZM409.744 178.423V178.343C409.514 178.803 409.004 179.203 408.254 179.203C406.844 179.203 405.974 178.083 405.974 176.653C405.974 175.293 406.894 174.133 408.254 174.133C409.104 174.133 409.564 174.553 409.724 174.943V171.833H410.654V178.183C410.654 178.643 410.694 178.993 410.704 179.073H409.794C409.774 178.963 409.744 178.713 409.744 178.423Z" fill="#525252"/>
<path d="M556.904 173.408C556.644 173.408 556.462 173.356 556.356 173.25C556.257 173.145 556.208 173.015 556.208 172.86V172.665C556.208 172.511 556.257 172.381 556.356 172.275C556.462 172.17 556.641 172.117 556.895 172.117C557.155 172.117 557.335 172.17 557.434 172.275C557.539 172.381 557.592 172.511 557.592 172.665V172.86C557.592 173.015 557.539 173.145 557.434 173.25C557.335 173.356 557.158 173.408 556.904 173.408ZM554.759 178.256H556.394V175.099H554.759V174.281H557.406V178.256H558.938V179.073H554.759V178.256ZM560.17 179.073V174.281H561.182V175.099H561.228C561.278 174.975 561.34 174.857 561.414 174.746C561.495 174.628 561.591 174.529 561.702 174.448C561.813 174.362 561.943 174.294 562.092 174.244C562.241 174.195 562.414 174.17 562.612 174.17C563.095 174.17 563.485 174.328 563.782 174.643C564.079 174.959 564.228 175.408 564.228 175.99V179.073H563.216V176.139C563.216 175.377 562.885 174.996 562.222 174.996C562.092 174.996 561.965 175.015 561.841 175.052C561.717 175.083 561.606 175.133 561.507 175.201C561.408 175.269 561.327 175.355 561.266 175.461C561.21 175.566 561.182 175.687 561.182 175.823V179.073H560.17ZM568.032 179.073C567.611 179.073 567.301 178.962 567.103 178.739C566.905 178.51 566.806 178.216 566.806 177.857V175.099H565.329V174.281H566.379C566.558 174.281 566.685 174.247 566.76 174.179C566.834 174.105 566.871 173.975 566.871 173.789V172.591H567.818V174.281H569.861V175.099H567.818V178.256H569.861V179.073H568.032ZM573.312 179.185C572.929 179.185 572.591 179.138 572.3 179.045C572.009 178.946 571.765 178.813 571.567 178.646C571.368 178.479 571.217 178.281 571.111 178.052C571.012 177.823 570.963 177.572 570.963 177.299C570.963 176.866 571.084 176.519 571.325 176.259C571.567 175.999 571.882 175.817 572.272 175.711V175.637C571.938 175.52 571.669 175.334 571.464 175.08C571.26 174.826 571.158 174.513 571.158 174.142C571.158 173.641 571.344 173.238 571.715 172.935C572.093 172.631 572.625 172.48 573.312 172.48C574 172.48 574.529 172.631 574.9 172.935C575.278 173.238 575.467 173.641 575.467 174.142C575.467 174.513 575.365 174.826 575.16 175.08C574.956 175.334 574.687 175.52 574.353 175.637V175.711C574.743 175.817 575.058 175.999 575.3 176.259C575.541 176.519 575.662 176.866 575.662 177.299C575.662 177.572 575.609 177.823 575.504 178.052C575.405 178.281 575.256 178.479 575.058 178.646C574.86 178.813 574.616 178.946 574.325 179.045C574.034 179.138 573.696 179.185 573.312 179.185ZM573.312 178.358C573.721 178.358 574.034 178.268 574.25 178.089C574.473 177.909 574.585 177.655 574.585 177.327V177.132C574.585 176.804 574.473 176.55 574.25 176.371C574.034 176.191 573.721 176.101 573.312 176.101C572.904 176.101 572.588 176.191 572.365 176.371C572.149 176.55 572.04 176.804 572.04 177.132V177.327C572.04 177.655 572.149 177.909 572.365 178.089C572.588 178.268 572.904 178.358 573.312 178.358ZM573.312 175.303C573.684 175.303 573.966 175.222 574.158 175.061C574.356 174.894 574.455 174.662 574.455 174.365V174.244C574.455 173.947 574.356 173.718 574.158 173.557C573.966 173.39 573.684 173.306 573.312 173.306C572.941 173.306 572.656 173.39 572.458 173.557C572.266 173.718 572.17 173.947 572.17 174.244V174.365C572.17 174.662 572.266 174.894 572.458 175.061C572.656 175.222 572.941 175.303 573.312 175.303Z" fill="#B2B2B2"/>
<rect width="223" height="30.0845" transform="translate(360 191.433)" fill="#FCFCFC"/>
<path d="M375.416 205.766L372.252 202.602C371.86 202.21 371.224 202.21 370.832 202.602L367.668 205.766C367.275 206.159 367.275 206.794 367.668 207.187L370.832 210.351C371.224 210.743 371.86 210.743 372.252 210.351L375.416 207.187C375.808 206.794 375.808 206.159 375.416 205.766Z" fill="#707070"/>
<path d="M384.376 208.685C384.376 207.825 385.006 207.345 385.836 207.225L387.136 207.035C387.426 206.995 387.506 206.845 387.506 206.675C387.506 206.205 387.196 205.815 386.466 205.815C385.806 205.815 385.436 206.225 385.376 206.785L384.476 206.575C384.576 205.655 385.406 205.015 386.446 205.015C387.886 205.015 388.446 205.835 388.446 206.775V209.185C388.446 209.605 388.486 209.855 388.506 209.975H387.586C387.566 209.855 387.536 209.675 387.536 209.325C387.326 209.665 386.846 210.125 385.986 210.125C385.006 210.125 384.376 209.445 384.376 208.685ZM386.116 209.335C386.886 209.335 387.506 208.965 387.506 207.915V207.695L386.036 207.915C385.636 207.975 385.336 208.205 385.336 208.635C385.336 208.995 385.636 209.335 386.116 209.335ZM390.84 211.875H389.91V205.165H390.82V205.915C391.08 205.435 391.65 205.055 392.43 205.055C393.87 205.055 394.64 206.165 394.64 207.565C394.64 208.995 393.81 210.105 392.4 210.105C391.66 210.105 391.1 209.755 390.84 209.325V211.875ZM393.68 207.565C393.68 206.605 393.14 205.885 392.26 205.885C391.4 205.885 390.83 206.605 390.83 207.565C390.83 208.555 391.4 209.265 392.26 209.265C393.13 209.265 393.68 208.555 393.68 207.565ZM396.768 211.875H395.838V205.165H396.748V205.915C397.008 205.435 397.578 205.055 398.358 205.055C399.798 205.055 400.568 206.165 400.568 207.565C400.568 208.995 399.738 210.105 398.328 210.105C397.588 210.105 397.028 209.755 396.768 209.325V211.875ZM399.608 207.565C399.608 206.605 399.068 205.885 398.188 205.885C397.328 205.885 396.758 206.605 396.758 207.565C396.758 208.555 397.328 209.265 398.188 209.265C399.058 209.265 399.608 208.555 399.608 207.565ZM402.706 209.975H401.766V202.735H402.706V209.975ZM405.235 209.975H404.305V205.165H405.235V209.975ZM404.095 203.345C404.095 202.965 404.395 202.665 404.765 202.665C405.145 202.665 405.445 202.965 405.445 203.345C405.445 203.715 405.145 204.015 404.765 204.015C404.395 204.015 404.095 203.715 404.095 203.345ZM408.854 205.885C408.094 205.885 407.394 206.445 407.394 207.565C407.394 208.665 408.084 209.255 408.864 209.255C409.764 209.255 410.094 208.645 410.204 208.265L411.034 208.625C410.804 209.315 410.114 210.125 408.864 210.125C407.464 210.125 406.434 209.025 406.434 207.565C406.434 206.065 407.484 205.015 408.854 205.015C410.134 205.015 410.794 205.815 410.994 206.545L410.144 206.905C410.024 206.435 409.674 205.885 408.854 205.885ZM411.788 208.685C411.788 207.825 412.418 207.345 413.248 207.225L414.548 207.035C414.838 206.995 414.918 206.845 414.918 206.675C414.918 206.205 414.608 205.815 413.878 205.815C413.218 205.815 412.848 206.225 412.788 206.785L411.888 206.575C411.988 205.655 412.818 205.015 413.858 205.015C415.298 205.015 415.858 205.835 415.858 206.775V209.185C415.858 209.605 415.898 209.855 415.918 209.975H414.998C414.978 209.855 414.948 209.675 414.948 209.325C414.738 209.665 414.258 210.125 413.398 210.125C412.418 210.125 411.788 209.445 411.788 208.685ZM413.528 209.335C414.298 209.335 414.918 208.965 414.918 207.915V207.695L413.448 207.915C413.048 207.975 412.748 208.205 412.748 208.635C412.748 208.995 413.048 209.335 413.528 209.335ZM418.582 203.645V205.165H419.622V206.015H418.582V208.515C418.582 208.955 418.762 209.175 419.252 209.175C419.372 209.175 419.542 209.155 419.622 209.135V209.935C419.542 209.965 419.302 210.025 418.982 210.025C418.162 210.025 417.642 209.525 417.642 208.655V206.015H416.722V205.165H416.982C417.502 205.165 417.722 204.845 417.722 204.425V203.645H418.582ZM421.807 209.975H420.877V205.165H421.807V209.975ZM420.667 203.345C420.667 202.965 420.967 202.665 421.337 202.665C421.717 202.665 422.017 202.965 422.017 203.345C422.017 203.715 421.717 204.015 421.337 204.015C420.967 204.015 420.667 203.715 420.667 203.345ZM425.466 209.285C426.266 209.285 426.966 208.685 426.966 207.565C426.966 206.455 426.266 205.855 425.466 205.855C424.666 205.855 423.966 206.455 423.966 207.565C423.966 208.685 424.666 209.285 425.466 209.285ZM425.466 205.015C426.906 205.015 427.926 206.105 427.926 207.565C427.926 209.035 426.906 210.125 425.466 210.125C424.026 210.125 423.006 209.035 423.006 207.565C423.006 206.105 424.026 205.015 425.466 205.015ZM430.069 207.195V209.975H429.129V205.165H430.049V205.855C430.399 205.255 430.969 205.025 431.529 205.025C432.679 205.025 433.249 205.855 433.249 206.925V209.975H432.309V207.085C432.309 206.415 432.029 205.875 431.189 205.875C430.449 205.875 430.069 206.465 430.069 207.195ZM439.214 210.765H434.094V209.975H439.214V210.765ZM440.529 207.555C440.529 208.545 441.039 209.275 441.939 209.275C442.799 209.275 443.329 208.525 443.329 207.535C443.329 206.545 442.809 205.865 441.949 205.865C441.089 205.865 440.529 206.565 440.529 207.555ZM443.339 209.325V209.245C443.109 209.705 442.599 210.105 441.849 210.105C440.439 210.105 439.569 208.985 439.569 207.555C439.569 206.195 440.489 205.035 441.849 205.035C442.699 205.035 443.159 205.455 443.319 205.845V202.735H444.249V209.085C444.249 209.545 444.289 209.895 444.299 209.975H443.389C443.369 209.865 443.339 209.615 443.339 209.325ZM445.548 208.685C445.548 207.825 446.178 207.345 447.008 207.225L448.308 207.035C448.598 206.995 448.678 206.845 448.678 206.675C448.678 206.205 448.368 205.815 447.638 205.815C446.978 205.815 446.608 206.225 446.548 206.785L445.648 206.575C445.748 205.655 446.578 205.015 447.618 205.015C449.058 205.015 449.618 205.835 449.618 206.775V209.185C449.618 209.605 449.658 209.855 449.678 209.975H448.758C448.738 209.855 448.708 209.675 448.708 209.325C448.498 209.665 448.018 210.125 447.158 210.125C446.178 210.125 445.548 209.445 445.548 208.685ZM447.288 209.335C448.058 209.335 448.678 208.965 448.678 207.915V207.695L447.208 207.915C446.808 207.975 446.508 208.205 446.508 208.635C446.508 208.995 446.808 209.335 447.288 209.335ZM452.342 203.645V205.165H453.382V206.015H452.342V208.515C452.342 208.955 452.522 209.175 453.012 209.175C453.132 209.175 453.302 209.155 453.382 209.135V209.935C453.302 209.965 453.062 210.025 452.742 210.025C451.922 210.025 451.402 209.525 451.402 208.655V206.015H450.482V205.165H450.742C451.262 205.165 451.482 204.845 451.482 204.425V203.645H452.342ZM455.198 207.075H457.828C457.808 206.385 457.358 205.845 456.508 205.845C455.718 205.845 455.238 206.455 455.198 207.075ZM457.968 208.325L458.778 208.605C458.508 209.455 457.738 210.125 456.618 210.125C455.328 210.125 454.198 209.185 454.198 207.555C454.198 206.045 455.288 205.015 456.498 205.015C457.978 205.015 458.808 206.035 458.808 207.535C458.808 207.655 458.798 207.775 458.788 207.835H455.168C455.188 208.695 455.808 209.295 456.618 209.295C457.398 209.295 457.788 208.865 457.968 208.325Z" fill="#525252"/>
<path d="M557.647 209.158H557.592C557.449 209.449 557.26 209.678 557.025 209.845C556.79 210.006 556.496 210.087 556.143 210.087C555.579 210.087 555.131 209.876 554.796 209.455C554.462 209.034 554.295 208.409 554.295 207.579C554.295 206.75 554.462 206.124 554.796 205.703C555.131 205.282 555.579 205.072 556.143 205.072C556.496 205.072 556.79 205.156 557.025 205.323C557.26 205.484 557.449 205.71 557.592 206.001H557.647V203.103H558.66V209.975H557.647V209.158ZM556.561 209.26C556.709 209.26 556.849 209.242 556.979 209.205C557.109 209.167 557.223 209.112 557.322 209.037C557.421 208.963 557.499 208.873 557.554 208.768C557.616 208.657 557.647 208.527 557.647 208.378V206.781C557.647 206.632 557.616 206.505 557.554 206.4C557.499 206.289 557.421 206.196 557.322 206.121C557.223 206.047 557.109 205.991 556.979 205.954C556.849 205.917 556.709 205.898 556.561 205.898C556.177 205.898 555.88 206.016 555.669 206.251C555.465 206.487 555.363 206.799 555.363 207.189V207.969C555.363 208.359 555.465 208.672 555.669 208.907C555.88 209.143 556.177 209.26 556.561 209.26ZM563.959 209.975C563.668 209.975 563.448 209.901 563.299 209.752C563.157 209.604 563.07 209.409 563.039 209.167H562.993C562.9 209.458 562.73 209.684 562.482 209.845C562.241 210.006 561.931 210.087 561.553 210.087C561.064 210.087 560.674 209.96 560.383 209.706C560.092 209.446 559.947 209.09 559.947 208.638C559.947 208.174 560.117 207.821 560.458 207.579C560.804 207.332 561.334 207.208 562.046 207.208H562.965V206.836C562.965 206.186 562.621 205.861 561.934 205.861C561.625 205.861 561.374 205.923 561.182 206.047C560.99 206.165 560.829 206.323 560.699 206.521L560.095 206.028C560.232 205.768 560.461 205.546 560.783 205.36C561.105 205.168 561.519 205.072 562.027 205.072C562.634 205.072 563.11 205.217 563.457 205.508C563.804 205.799 563.977 206.22 563.977 206.771V209.177H564.581V209.975H563.959ZM561.841 209.344C562.169 209.344 562.439 209.27 562.649 209.121C562.86 208.972 562.965 208.78 562.965 208.545V207.849H562.064C561.334 207.849 560.968 208.068 560.968 208.508V208.694C560.968 208.91 561.046 209.075 561.201 209.186C561.355 209.291 561.569 209.344 561.841 209.344ZM568.032 209.975C567.611 209.975 567.301 209.864 567.103 209.641C566.905 209.412 566.806 209.118 566.806 208.759V206.001H565.329V205.183H566.379C566.558 205.183 566.685 205.149 566.76 205.081C566.834 205.007 566.871 204.877 566.871 204.691V203.493H567.818V205.183H569.861V206.001H567.818V209.158H569.861V209.975H568.032ZM573.415 210.087C573.049 210.087 572.721 210.028 572.43 209.91C572.139 209.793 571.895 209.626 571.697 209.409C571.498 209.192 571.347 208.932 571.241 208.629C571.136 208.319 571.084 207.973 571.084 207.589C571.084 207.205 571.136 206.858 571.241 206.549C571.353 206.239 571.505 205.976 571.697 205.759C571.895 205.536 572.133 205.366 572.412 205.248C572.69 205.131 573 205.072 573.34 205.072C573.675 205.072 573.978 205.131 574.25 205.248C574.523 205.36 574.755 205.521 574.947 205.731C575.139 205.942 575.284 206.193 575.383 206.484C575.489 206.775 575.541 207.096 575.541 207.449V207.83H572.105V207.988C572.105 208.366 572.223 208.675 572.458 208.917C572.693 209.152 573.018 209.27 573.433 209.27C573.743 209.27 574.006 209.205 574.223 209.075C574.445 208.938 574.625 208.759 574.761 208.536L575.393 209.093C575.232 209.372 574.984 209.607 574.65 209.799C574.322 209.991 573.91 210.087 573.415 210.087ZM573.34 205.843C573.161 205.843 572.994 205.874 572.839 205.936C572.69 205.998 572.56 206.087 572.449 206.205C572.344 206.316 572.26 206.449 572.198 206.604C572.136 206.759 572.105 206.929 572.105 207.115V207.18H574.51V207.087C574.51 206.71 574.402 206.409 574.185 206.186C573.975 205.957 573.693 205.843 573.34 205.843Z" fill="#B2B2B2"/>
</g>
<rect x="360" y="67.8242" width="223" height="215.498" rx="4" stroke="#DFDFDF" stroke-width="0.580421"/>
<path d="M584.252 145.13H601.54C603.749 145.13 605.54 143.339 605.54 141.13V89.521C605.54 87.3119 607.33 85.521 609.54 85.521H628.565" stroke="#525252" stroke-width="0.5" stroke-dasharray="2 2"/>
<g filter="url(#filter0_d_895_5167)">
<rect x="381" y="158" width="359" height="36" rx="18" fill="white" shape-rendering="crispEdges"/>
<rect x="381.5" y="158.5" width="358" height="35" rx="17.5" stroke="#DFDFDF" shape-rendering="crispEdges"/>
<path d="M410.293 175.367L404.166 181.493C403.416 182.244 402.398 182.666 401.336 182.666C400.275 182.666 399.257 182.244 398.506 181.493C397.756 180.743 397.334 179.725 397.334 178.663C397.334 177.602 397.756 176.584 398.506 175.833L404.22 170.12C404.72 169.619 405.399 169.337 406.107 169.336C406.815 169.336 407.495 169.616 407.996 170.117C408.497 170.617 408.779 171.296 408.78 172.004C408.781 172.713 408.5 173.392 408 173.893L402.273 179.607C402.023 179.857 401.683 179.997 401.33 179.997C400.976 179.997 400.636 179.857 400.386 179.607C400.136 179.357 399.995 179.017 399.995 178.663C399.995 178.31 400.136 177.97 400.386 177.72L406.046 172.067" stroke="#707070" stroke-linecap="round" stroke-linejoin="round"/>
<path d="M423.666 175.683C422.678 175.683 421.768 176.411 421.768 177.867C421.768 179.297 422.665 180.064 423.679 180.064C424.849 180.064 425.278 179.271 425.421 178.777L426.5 179.245C426.201 180.142 425.304 181.195 423.679 181.195C421.859 181.195 420.52 179.765 420.52 177.867C420.52 175.917 421.885 174.552 423.666 174.552C425.33 174.552 426.188 175.592 426.448 176.541L425.343 177.009C425.187 176.398 424.732 175.683 423.666 175.683ZM431.405 174.682V175.982C431.223 175.956 431.041 175.943 430.872 175.943C429.845 175.943 429.156 176.489 429.156 177.867V181H427.934V174.747H429.13V175.839C429.585 174.877 430.365 174.643 431.002 174.643C431.171 174.643 431.34 174.669 431.405 174.682ZM433.437 177.23H436.856C436.83 176.333 436.245 175.631 435.14 175.631C434.113 175.631 433.489 176.424 433.437 177.23ZM437.038 178.855L438.091 179.219C437.74 180.324 436.739 181.195 435.283 181.195C433.606 181.195 432.137 179.973 432.137 177.854C432.137 175.891 433.554 174.552 435.127 174.552C437.051 174.552 438.13 175.878 438.13 177.828C438.13 177.984 438.117 178.14 438.104 178.218H433.398C433.424 179.336 434.23 180.116 435.283 180.116C436.297 180.116 436.804 179.557 437.038 178.855ZM439.299 179.323C439.299 178.205 440.118 177.581 441.197 177.425L442.887 177.178C443.264 177.126 443.368 176.931 443.368 176.71C443.368 176.099 442.965 175.592 442.016 175.592C441.158 175.592 440.677 176.125 440.599 176.853L439.429 176.58C439.559 175.384 440.638 174.552 441.99 174.552C443.862 174.552 444.59 175.618 444.59 176.84V179.973C444.59 180.519 444.642 180.844 444.668 181H443.472C443.446 180.844 443.407 180.61 443.407 180.155C443.134 180.597 442.51 181.195 441.392 181.195C440.118 181.195 439.299 180.311 439.299 179.323ZM441.561 180.168C442.562 180.168 443.368 179.687 443.368 178.322V178.036L441.457 178.322C440.937 178.4 440.547 178.699 440.547 179.258C440.547 179.726 440.937 180.168 441.561 180.168ZM448.132 172.771V174.747H449.484V175.852H448.132V179.102C448.132 179.674 448.366 179.96 449.003 179.96C449.159 179.96 449.38 179.934 449.484 179.908V180.948C449.38 180.987 449.068 181.065 448.652 181.065C447.586 181.065 446.91 180.415 446.91 179.284V175.852H445.714V174.747H446.052C446.728 174.747 447.014 174.331 447.014 173.785V172.771H448.132ZM451.845 177.23H455.264C455.238 176.333 454.653 175.631 453.548 175.631C452.521 175.631 451.897 176.424 451.845 177.23ZM455.446 178.855L456.499 179.219C456.148 180.324 455.147 181.195 453.691 181.195C452.014 181.195 450.545 179.973 450.545 177.854C450.545 175.891 451.962 174.552 453.535 174.552C455.459 174.552 456.538 175.878 456.538 177.828C456.538 177.984 456.525 178.14 456.512 178.218H451.806C451.832 179.336 452.638 180.116 453.691 180.116C454.705 180.116 455.212 179.557 455.446 178.855ZM462.57 177.321V181H461.348V171.588H462.57V175.475C463.025 174.812 463.753 174.565 464.468 174.565C465.963 174.565 466.704 175.644 466.704 177.035V181H465.482V177.243C465.482 176.372 465.118 175.67 464.026 175.67C463.09 175.67 462.596 176.398 462.57 177.321ZM469.856 181H468.647V174.747H469.856V181ZM468.374 172.381C468.374 171.887 468.764 171.497 469.245 171.497C469.739 171.497 470.129 171.887 470.129 172.381C470.129 172.862 469.739 173.252 469.245 173.252C468.764 173.252 468.374 172.862 468.374 172.381ZM475.407 174.682V175.982C475.225 175.956 475.043 175.943 474.874 175.943C473.847 175.943 473.158 176.489 473.158 177.867V181H471.936V174.747H473.132V175.839C473.587 174.877 474.367 174.643 475.004 174.643C475.173 174.643 475.342 174.669 475.407 174.682ZM477.918 181H476.709V174.747H477.918V181ZM476.436 172.381C476.436 171.887 476.826 171.497 477.307 171.497C477.801 171.497 478.191 171.887 478.191 172.381C478.191 172.862 477.801 173.252 477.307 173.252C476.826 173.252 476.436 172.862 476.436 172.381ZM481.219 177.386V181H479.997V174.747H481.193V175.644C481.648 174.864 482.389 174.565 483.117 174.565C484.612 174.565 485.353 175.644 485.353 177.035V181H484.131V177.243C484.131 176.372 483.767 175.67 482.675 175.67C481.713 175.67 481.219 176.437 481.219 177.386ZM486.842 181.338L488.025 181.065C488.116 181.936 488.779 182.599 489.728 182.599C491.041 182.599 491.639 181.923 491.639 180.571V179.674C491.34 180.246 490.664 180.701 489.728 180.701C488.064 180.701 486.855 179.44 486.855 177.672C486.855 175.982 488.012 174.63 489.728 174.63C490.69 174.63 491.34 174.994 491.652 175.618V174.747H492.861V180.532C492.861 182.118 492.081 183.665 489.728 183.665C488.168 183.665 486.998 182.677 486.842 181.338ZM489.91 179.674C490.963 179.674 491.691 178.881 491.691 177.672C491.691 176.463 490.963 175.67 489.91 175.67C488.831 175.67 488.103 176.463 488.103 177.672C488.103 178.894 488.805 179.674 489.91 179.674ZM497.672 179.323C497.672 178.205 498.491 177.581 499.57 177.425L501.26 177.178C501.637 177.126 501.741 176.931 501.741 176.71C501.741 176.099 501.338 175.592 500.389 175.592C499.531 175.592 499.05 176.125 498.972 176.853L497.802 176.58C497.932 175.384 499.011 174.552 500.363 174.552C502.235 174.552 502.963 175.618 502.963 176.84V179.973C502.963 180.519 503.015 180.844 503.041 181H501.845C501.819 180.844 501.78 180.61 501.78 180.155C501.507 180.597 500.883 181.195 499.765 181.195C498.491 181.195 497.672 180.311 497.672 179.323ZM499.934 180.168C500.935 180.168 501.741 179.687 501.741 178.322V178.036L499.83 178.322C499.31 178.4 498.92 178.699 498.92 179.258C498.92 179.726 499.31 180.168 499.934 180.168ZM506.076 183.47H504.867V174.747H506.05V175.722C506.388 175.098 507.129 174.604 508.143 174.604C510.015 174.604 511.016 176.047 511.016 177.867C511.016 179.726 509.937 181.169 508.104 181.169C507.142 181.169 506.414 180.714 506.076 180.155V183.47ZM509.768 177.867C509.768 176.619 509.066 175.683 507.922 175.683C506.804 175.683 506.063 176.619 506.063 177.867C506.063 179.154 506.804 180.077 507.922 180.077C509.053 180.077 509.768 179.154 509.768 177.867ZM513.782 183.47H512.573V174.747H513.756V175.722C514.094 175.098 514.835 174.604 515.849 174.604C517.721 174.604 518.722 176.047 518.722 177.867C518.722 179.726 517.643 181.169 515.81 181.169C514.848 181.169 514.12 180.714 513.782 180.155V183.47ZM517.474 177.867C517.474 176.619 516.772 175.683 515.628 175.683C514.51 175.683 513.769 176.619 513.769 177.867C513.769 179.154 514.51 180.077 515.628 180.077C516.759 180.077 517.474 179.154 517.474 177.867ZM525.167 172.771V174.747H526.519V175.852H525.167V179.102C525.167 179.674 525.401 179.96 526.038 179.96C526.194 179.96 526.415 179.934 526.519 179.908V180.948C526.415 180.987 526.103 181.065 525.687 181.065C524.621 181.065 523.945 180.415 523.945 179.284V175.852H522.749V174.747H523.087C523.763 174.747 524.049 174.331 524.049 173.785V172.771H525.167ZM527.76 179.323C527.76 178.205 528.579 177.581 529.658 177.425L531.348 177.178C531.725 177.126 531.829 176.931 531.829 176.71C531.829 176.099 531.426 175.592 530.477 175.592C529.619 175.592 529.138 176.125 529.06 176.853L527.89 176.58C528.02 175.384 529.099 174.552 530.451 174.552C532.323 174.552 533.051 175.618 533.051 176.84V179.973C533.051 180.519 533.103 180.844 533.129 181H531.933C531.907 180.844 531.868 180.61 531.868 180.155C531.595 180.597 530.971 181.195 529.853 181.195C528.579 181.195 527.76 180.311 527.76 179.323ZM530.022 180.168C531.023 180.168 531.829 179.687 531.829 178.322V178.036L529.918 178.322C529.398 178.4 529.008 178.699 529.008 179.258C529.008 179.726 529.398 180.168 530.022 180.168ZM536.164 181H534.955V171.588H536.164V175.631C536.463 175.072 537.191 174.565 538.231 174.565C540.129 174.565 541.104 176.021 541.104 177.841C541.104 179.7 540.051 181.169 538.192 181.169C537.269 181.169 536.554 180.766 536.164 180.09V181ZM539.856 177.841C539.856 176.489 539.141 175.644 538.01 175.644C536.931 175.644 536.151 176.489 536.151 177.841C536.151 179.193 536.931 180.077 538.01 180.077C539.128 180.077 539.856 179.193 539.856 177.841ZM543.883 181H542.661V171.588H543.883V181ZM546.755 177.23H550.174C550.148 176.333 549.563 175.631 548.458 175.631C547.431 175.631 546.807 176.424 546.755 177.23ZM550.356 178.855L551.409 179.219C551.058 180.324 550.057 181.195 548.601 181.195C546.924 181.195 545.455 179.973 545.455 177.854C545.455 175.891 546.872 174.552 548.445 174.552C550.369 174.552 551.448 175.878 551.448 177.828C551.448 177.984 551.435 178.14 551.422 178.218H546.716C546.742 179.336 547.548 180.116 548.601 180.116C549.615 180.116 550.122 179.557 550.356 178.855ZM552.423 179.375L553.528 178.985C553.606 179.635 554.1 180.155 554.984 180.155C555.673 180.155 556.05 179.765 556.05 179.323C556.05 178.933 555.764 178.634 555.244 178.517L554.178 178.283C553.203 178.075 552.618 177.412 552.618 176.528C552.618 175.462 553.619 174.552 554.841 174.552C556.557 174.552 557.09 175.67 557.22 176.229L556.141 176.632C556.089 176.307 555.829 175.592 554.841 175.592C554.217 175.592 553.801 175.995 553.801 176.424C553.801 176.801 554.035 177.074 554.516 177.178L555.53 177.399C556.661 177.646 557.259 178.335 557.259 179.258C557.259 180.142 556.518 181.195 554.971 181.195C553.255 181.195 552.527 180.09 552.423 179.375ZM565.659 174.747H566.92L568.545 179.453L569.923 174.747H571.21L569.182 181H567.921L566.257 176.242L564.632 181H563.345L561.291 174.747H562.63L564.034 179.453L565.659 174.747ZM573.653 181H572.444V174.747H573.653V181ZM572.171 172.381C572.171 171.887 572.561 171.497 573.042 171.497C573.536 171.497 573.926 171.887 573.926 172.381C573.926 172.862 573.536 173.252 573.042 173.252C572.561 173.252 572.171 172.862 572.171 172.381ZM577.37 172.771V174.747H578.722V175.852H577.37V179.102C577.37 179.674 577.604 179.96 578.241 179.96C578.397 179.96 578.618 179.934 578.722 179.908V180.948C578.618 180.987 578.306 181.065 577.89 181.065C576.824 181.065 576.148 180.415 576.148 179.284V175.852H574.952V174.747H575.29C575.966 174.747 576.252 174.331 576.252 173.785V172.771H577.37ZM581.575 177.321V181H580.353V171.588H581.575V175.475C582.03 174.812 582.758 174.565 583.473 174.565C584.968 174.565 585.709 175.644 585.709 177.035V181H584.487V177.243C584.487 176.372 584.123 175.67 583.031 175.67C582.095 175.67 581.601 176.398 581.575 177.321ZM590.318 179.375L591.423 178.985C591.501 179.635 591.995 180.155 592.879 180.155C593.568 180.155 593.945 179.765 593.945 179.323C593.945 178.933 593.659 178.634 593.139 178.517L592.073 178.283C591.098 178.075 590.513 177.412 590.513 176.528C590.513 175.462 591.514 174.552 592.736 174.552C594.452 174.552 594.985 175.67 595.115 176.229L594.036 176.632C593.984 176.307 593.724 175.592 592.736 175.592C592.112 175.592 591.696 175.995 591.696 176.424C591.696 176.801 591.93 177.074 592.411 177.178L593.425 177.399C594.556 177.646 595.154 178.335 595.154 179.258C595.154 180.142 594.413 181.195 592.866 181.195C591.15 181.195 590.422 180.09 590.318 179.375ZM596.264 179.323C596.264 178.205 597.083 177.581 598.162 177.425L599.852 177.178C600.229 177.126 600.333 176.931 600.333 176.71C600.333 176.099 599.93 175.592 598.981 175.592C598.123 175.592 597.642 176.125 597.564 176.853L596.394 176.58C596.524 175.384 597.603 174.552 598.955 174.552C600.827 174.552 601.555 175.618 601.555 176.84V179.973C601.555 180.519 601.607 180.844 601.633 181H600.437C600.411 180.844 600.372 180.61 600.372 180.155C600.099 180.597 599.475 181.195 598.357 181.195C597.083 181.195 596.264 180.311 596.264 179.323ZM598.526 180.168C599.527 180.168 600.333 179.687 600.333 178.322V178.036L598.422 178.322C597.902 178.4 597.512 178.699 597.512 179.258C597.512 179.726 597.902 180.168 598.526 180.168ZM604.668 181H603.459V174.747H604.629V175.579C605.019 174.89 605.799 174.565 606.527 174.565C607.307 174.565 608.061 174.942 608.399 175.748C608.893 174.851 609.699 174.565 610.492 174.565C611.584 174.565 612.65 175.306 612.65 176.944V181H611.441V177.074C611.441 176.255 611.038 175.644 610.115 175.644C609.257 175.644 608.672 176.32 608.672 177.217V181H607.45V177.074C607.45 176.268 607.06 175.644 606.124 175.644C605.253 175.644 604.668 176.294 604.668 177.23V181ZM615.814 183.47H614.605V174.747H615.788V175.722C616.126 175.098 616.867 174.604 617.881 174.604C619.753 174.604 620.754 176.047 620.754 177.867C620.754 179.726 619.675 181.169 617.842 181.169C616.88 181.169 616.152 180.714 615.814 180.155V183.47ZM619.506 177.867C619.506 176.619 618.804 175.683 617.66 175.683C616.542 175.683 615.801 176.619 615.801 177.867C615.801 179.154 616.542 180.077 617.66 180.077C618.791 180.077 619.506 179.154 619.506 177.867ZM623.533 181H622.311V171.588H623.533V181ZM626.405 177.23H629.824C629.798 176.333 629.213 175.631 628.108 175.631C627.081 175.631 626.457 176.424 626.405 177.23ZM630.006 178.855L631.059 179.219C630.708 180.324 629.707 181.195 628.251 181.195C626.574 181.195 625.105 179.973 625.105 177.854C625.105 175.891 626.522 174.552 628.095 174.552C630.019 174.552 631.098 175.878 631.098 177.828C631.098 177.984 631.085 178.14 631.072 178.218H626.366C626.392 179.336 627.198 180.116 628.251 180.116C629.265 180.116 629.772 179.557 630.006 178.855ZM636.636 177.854C636.636 179.141 637.299 180.09 638.469 180.09C639.587 180.09 640.276 179.115 640.276 177.828C640.276 176.541 639.6 175.657 638.482 175.657C637.364 175.657 636.636 176.567 636.636 177.854ZM640.289 180.155V180.051C639.99 180.649 639.327 181.169 638.352 181.169C636.519 181.169 635.388 179.713 635.388 177.854C635.388 176.086 636.584 174.578 638.352 174.578C639.457 174.578 640.055 175.124 640.263 175.631V171.588H641.472V179.843C641.472 180.441 641.524 180.896 641.537 181H640.354C640.328 180.857 640.289 180.532 640.289 180.155ZM643.161 179.323C643.161 178.205 643.98 177.581 645.059 177.425L646.749 177.178C647.126 177.126 647.23 176.931 647.23 176.71C647.23 176.099 646.827 175.592 645.878 175.592C645.02 175.592 644.539 176.125 644.461 176.853L643.291 176.58C643.421 175.384 644.5 174.552 645.852 174.552C647.724 174.552 648.452 175.618 648.452 176.84V179.973C648.452 180.519 648.504 180.844 648.53 181H647.334C647.308 180.844 647.269 180.61 647.269 180.155C646.996 180.597 646.372 181.195 645.254 181.195C643.98 181.195 643.161 180.311 643.161 179.323ZM645.423 180.168C646.424 180.168 647.23 179.687 647.23 178.322V178.036L645.319 178.322C644.799 178.4 644.409 178.699 644.409 179.258C644.409 179.726 644.799 180.168 645.423 180.168ZM651.993 172.771V174.747H653.345V175.852H651.993V179.102C651.993 179.674 652.227 179.96 652.864 179.96C653.02 179.96 653.241 179.934 653.345 179.908V180.948C653.241 180.987 652.929 181.065 652.513 181.065C651.447 181.065 650.771 180.415 650.771 179.284V175.852H649.575V174.747H649.913C650.589 174.747 650.875 174.331 650.875 173.785V172.771H651.993ZM654.587 179.323C654.587 178.205 655.406 177.581 656.485 177.425L658.175 177.178C658.552 177.126 658.656 176.931 658.656 176.71C658.656 176.099 658.253 175.592 657.304 175.592C656.446 175.592 655.965 176.125 655.887 176.853L654.717 176.58C654.847 175.384 655.926 174.552 657.278 174.552C659.15 174.552 659.878 175.618 659.878 176.84V179.973C659.878 180.519 659.93 180.844 659.956 181H658.76C658.734 180.844 658.695 180.61 658.695 180.155C658.422 180.597 657.798 181.195 656.68 181.195C655.406 181.195 654.587 180.311 654.587 179.323ZM656.849 180.168C657.85 180.168 658.656 179.687 658.656 178.322V178.036L656.745 178.322C656.225 178.4 655.835 178.699 655.835 179.258C655.835 179.726 656.225 180.168 656.849 180.168Z" fill="#171717"/>
<rect x="662" y="168.512" width="1.07532" height="14.9759" fill="#171717"/>
<path d="M717 180.667V171.333" stroke="#171717" stroke-linecap="round" stroke-linejoin="round"/>
<path d="M712.333 176L717 171.333L721.666 176" stroke="#171717" stroke-linecap="round" stroke-linejoin="round"/>
</g>
</g>
<defs>
<filter id="filter0_d_895_5167" x="378" y="156" width="367" height="44" filterUnits="userSpaceOnUse" color-interpolation-filters="sRGB">
<feFlood flood-opacity="0" result="BackgroundImageFix"/>
<feColorMatrix in="SourceAlpha" type="matrix" values="0 0 0 0 0 0 0 0 0 0 0 0 0 0 0 0 0 0 127 0" result="hardAlpha"/>
<feOffset dx="1" dy="2"/>
<feGaussianBlur stdDeviation="2"/>
<feComposite in2="hardAlpha" operator="out"/>
<feColorMatrix type="matrix" values="0 0 0 0 0 0 0 0 0 0 0 0 0 0 0 0 0 0 0.15 0"/>
<feBlend mode="normal" in2="BackgroundImageFix" result="effect1_dropShadow_895_5167"/>
<feBlend mode="normal" in="SourceGraphic" in2="effect1_dropShadow_895_5167" result="shape"/>
</filter>
<clipPath id="clip0_895_5167">
<rect width="764" height="219" fill="white"/>
</clipPath>
<clipPath id="clip1_895_5167">
<rect x="628.671" y="37.3796" width="223" height="215.498" rx="4" fill="white"/>
</clipPath>
<clipPath id="clip2_895_5167">
<rect width="10" height="10" fill="white" transform="translate(635.213 78.3242)"/>
</clipPath>
<clipPath id="clip3_895_5167">
<rect width="10" height="10" fill="white" transform="translate(635.213 140.129)"/>
</clipPath>
<clipPath id="clip4_895_5167">
<rect width="10" height="10" fill="white" transform="translate(635.213 171.031)"/>
</clipPath>
<clipPath id="clip5_895_5167">
<rect width="10" height="10" fill="white" transform="translate(635.213 201.933)"/>
</clipPath>
<clipPath id="clip6_895_5167">
<rect x="360" y="67.8242" width="223" height="215.498" rx="4" fill="white"/>
</clipPath>
<clipPath id="clip7_895_5167">
<rect width="10" height="10" fill="white" transform="translate(366.542 108.769)"/>
</clipPath>
</defs>
</svg>
