<svg xmlns="http://www.w3.org/2000/svg" width="764" height="219" fill="none" viewBox="0 0 764 219"><g clip-path="url(#a)"><path fill="#fff" d="M0 0h764v219H0z"/><circle cx="382.314" cy="25.615" r="1.314" fill="#f3f3f3"/><circle cx="409.943" cy="25.615" r="1.314" fill="#f3f3f3"/><circle cx="437.571" cy="25.615" r="1.314" fill="#f3f3f3"/><circle cx="465.2" cy="25.615" r="1.314" fill="#f3f3f3"/><circle cx="492.828" cy="25.615" r="1.314" fill="#f3f3f3"/><circle cx="520.457" cy="25.615" r="1.314" fill="#f3f3f3"/><circle cx="548.086" cy="25.615" r="1.314" fill="#f3f3f3"/><circle cx="575.714" cy="25.615" r="1.314" fill="#f3f3f3"/><circle cx="603.343" cy="25.615" r="1.314" fill="#f3f3f3"/><circle cx="630.971" cy="25.615" r="1.314" fill="#f3f3f3"/><circle cx="658.599" cy="25.615" r="1.314" fill="#f3f3f3"/><circle cx="686.228" cy="25.615" r="1.314" fill="#f3f3f3"/><circle cx="713.857" cy="25.615" r="1.314" fill="#f3f3f3"/><circle cx="741.485" cy="25.615" r="1.314" fill="#f3f3f3"/><circle cx="382.314" cy="53.243" r="1.314" fill="#f3f3f3"/><circle cx="409.943" cy="53.243" r="1.314" fill="#f3f3f3"/><circle cx="437.571" cy="53.243" r="1.314" fill="#f3f3f3"/><circle cx="465.2" cy="53.243" r="1.314" fill="#f3f3f3"/><circle cx="492.828" cy="53.243" r="1.314" fill="#f3f3f3"/><circle cx="520.457" cy="53.243" r="1.314" fill="#f3f3f3"/><circle cx="548.086" cy="53.243" r="1.314" fill="#f3f3f3"/><circle cx="575.714" cy="53.243" r="1.314" fill="#f3f3f3"/><circle cx="603.343" cy="53.243" r="1.314" fill="#f3f3f3"/><circle cx="630.971" cy="53.243" r="1.314" fill="#f3f3f3"/><circle cx="658.599" cy="53.243" r="1.314" fill="#f3f3f3"/><circle cx="686.228" cy="53.243" r="1.314" fill="#f3f3f3"/><circle cx="713.857" cy="53.243" r="1.314" fill="#f3f3f3"/><circle cx="741.485" cy="53.243" r="1.314" fill="#f3f3f3"/><circle cx="382.314" cy="80.871" r="1.314" fill="#f3f3f3"/><circle cx="409.943" cy="80.871" r="1.314" fill="#f3f3f3"/><circle cx="437.571" cy="80.871" r="1.314" fill="#f3f3f3"/><circle cx="465.2" cy="80.871" r="1.314" fill="#f3f3f3"/><circle cx="492.828" cy="80.871" r="1.314" fill="#f3f3f3"/><circle cx="520.457" cy="80.871" r="1.314" fill="#f3f3f3"/><circle cx="548.086" cy="80.871" r="1.314" fill="#f3f3f3"/><circle cx="575.714" cy="80.871" r="1.314" fill="#f3f3f3"/><circle cx="603.343" cy="80.871" r="1.314" fill="#f3f3f3"/><circle cx="630.971" cy="80.871" r="1.314" fill="#f3f3f3"/><circle cx="658.599" cy="80.871" r="1.314" fill="#f3f3f3"/><circle cx="686.228" cy="80.871" r="1.314" fill="#f3f3f3"/><circle cx="713.857" cy="80.871" r="1.314" fill="#f3f3f3"/><circle cx="741.485" cy="80.871" r="1.314" fill="#f3f3f3"/><circle cx="382.314" cy="108.5" r="1.314" fill="#f3f3f3"/><circle cx="409.943" cy="108.5" r="1.314" fill="#f3f3f3"/><circle cx="437.571" cy="108.5" r="1.314" fill="#f3f3f3"/><circle cx="465.2" cy="108.5" r="1.314" fill="#f3f3f3"/><circle cx="492.828" cy="108.5" r="1.314" fill="#f3f3f3"/><circle cx="520.457" cy="108.5" r="1.314" fill="#f3f3f3"/><circle cx="548.086" cy="108.5" r="1.314" fill="#f3f3f3"/><circle cx="575.714" cy="108.5" r="1.314" fill="#f3f3f3"/><circle cx="603.343" cy="108.5" r="1.314" fill="#f3f3f3"/><circle cx="630.971" cy="108.5" r="1.314" fill="#f3f3f3"/><circle cx="658.599" cy="108.5" r="1.314" fill="#f3f3f3"/><circle cx="686.228" cy="108.5" r="1.314" fill="#f3f3f3"/><circle cx="713.857" cy="108.5" r="1.314" fill="#f3f3f3"/><circle cx="741.485" cy="108.5" r="1.314" fill="#f3f3f3"/><circle cx="382.314" cy="136.129" r="1.314" fill="#f3f3f3"/><circle cx="409.943" cy="136.129" r="1.314" fill="#f3f3f3"/><circle cx="437.571" cy="136.129" r="1.314" fill="#f3f3f3"/><circle cx="465.2" cy="136.129" r="1.314" fill="#f3f3f3"/><circle cx="492.828" cy="136.129" r="1.314" fill="#f3f3f3"/><circle cx="520.457" cy="136.129" r="1.314" fill="#f3f3f3"/><circle cx="548.086" cy="136.129" r="1.314" fill="#f3f3f3"/><circle cx="575.714" cy="136.129" r="1.314" fill="#f3f3f3"/><circle cx="603.343" cy="136.129" r="1.314" fill="#f3f3f3"/><circle cx="630.971" cy="136.129" r="1.314" fill="#f3f3f3"/><circle cx="658.599" cy="136.129" r="1.314" fill="#f3f3f3"/><circle cx="686.228" cy="136.129" r="1.314" fill="#f3f3f3"/><circle cx="713.857" cy="136.129" r="1.314" fill="#f3f3f3"/><circle cx="741.485" cy="136.129" r="1.314" fill="#f3f3f3"/><circle cx="382.314" cy="163.757" r="1.314" fill="#f3f3f3"/><circle cx="409.943" cy="163.757" r="1.314" fill="#f3f3f3"/><circle cx="437.571" cy="163.757" r="1.314" fill="#f3f3f3"/><circle cx="465.2" cy="163.757" r="1.314" fill="#f3f3f3"/><circle cx="492.828" cy="163.757" r="1.314" fill="#f3f3f3"/><circle cx="520.457" cy="163.757" r="1.314" fill="#f3f3f3"/><circle cx="548.086" cy="163.757" r="1.314" fill="#f3f3f3"/><circle cx="575.714" cy="163.757" r="1.314" fill="#f3f3f3"/><circle cx="603.343" cy="163.757" r="1.314" fill="#f3f3f3"/><circle cx="630.971" cy="163.757" r="1.314" fill="#f3f3f3"/><circle cx="658.599" cy="163.757" r="1.314" fill="#f3f3f3"/><circle cx="686.228" cy="163.757" r="1.314" fill="#f3f3f3"/><circle cx="713.857" cy="163.757" r="1.314" fill="#f3f3f3"/><circle cx="741.485" cy="163.757" r="1.314" fill="#f3f3f3"/><circle cx="382.314" cy="191.386" r="1.314" fill="#f3f3f3"/><circle cx="409.943" cy="191.386" r="1.314" fill="#f3f3f3"/><circle cx="437.571" cy="191.386" r="1.314" fill="#f3f3f3"/><circle cx="465.2" cy="191.386" r="1.314" fill="#f3f3f3"/><circle cx="492.828" cy="191.386" r="1.314" fill="#f3f3f3"/><circle cx="520.457" cy="191.386" r="1.314" fill="#f3f3f3"/><circle cx="548.086" cy="191.386" r="1.314" fill="#f3f3f3"/><circle cx="575.714" cy="191.386" r="1.314" fill="#f3f3f3"/><circle cx="603.343" cy="191.386" r="1.314" fill="#f3f3f3"/><circle cx="630.971" cy="191.386" r="1.314" fill="#f3f3f3"/><circle cx="658.599" cy="191.386" r="1.314" fill="#f3f3f3"/><circle cx="686.228" cy="191.386" r="1.314" fill="#f3f3f3"/><circle cx="713.857" cy="191.386" r="1.314" fill="#f3f3f3"/><circle cx="741.485" cy="191.386" r="1.314" fill="#f3f3f3"/><circle cx="382.314" cy="219.014" r="1.314" fill="#f3f3f3"/><circle cx="409.943" cy="219.014" r="1.314" fill="#f3f3f3"/><circle cx="437.571" cy="219.014" r="1.314" fill="#f3f3f3"/><circle cx="465.2" cy="219.014" r="1.314" fill="#f3f3f3"/><circle cx="492.828" cy="219.014" r="1.314" fill="#f3f3f3"/><circle cx="520.457" cy="219.014" r="1.314" fill="#f3f3f3"/><circle cx="548.086" cy="219.014" r="1.314" fill="#f3f3f3"/><circle cx="575.714" cy="219.014" r="1.314" fill="#f3f3f3"/><g clip-path="url(#b)"><rect width="223" height="215.498" x="628.671" y="37.38" fill="#dfdfdf" rx="4"/><path fill="#fff" d="M628.671 37.38h223v30.084h-223z"/><path stroke="#707070" stroke-linecap="round" stroke-linejoin="round" d="M641.213 45.922h-2.667a1.335 1.335 0 0 0-1.333 1.333v2.667m4-4h6.667a1.333 1.333 0 0 1 1.333 1.333v2.667m-8-4v12m-4-8v6.667a1.333 1.333 0 0 0 1.333 1.333h2.667m-4-8h12m0 0v6.667a1.334 1.334 0 0 1-1.333 1.333h-6.667"/><path fill="#171717" d="M658.681 54.724c0-.799.585-1.244 1.356-1.356l1.207-.176c.27-.038.344-.177.344-.335 0-.436-.288-.798-.966-.798-.613 0-.956.38-1.012.9l-.836-.195c.093-.854.864-1.448 1.829-1.448 1.338 0 1.858.761 1.858 1.634v2.238c0 .39.037.622.056.734h-.855c-.018-.112-.046-.279-.046-.604-.195.316-.641.743-1.44.743-.91 0-1.495-.631-1.495-1.337m1.616.604c.715 0 1.291-.344 1.291-1.32v-.204l-1.365.205c-.372.056-.65.27-.65.669 0 .334.278.65.724.65m4.387 2.358h-.863v-6.231h.845v.697c.241-.446.771-.8 1.495-.8 1.337 0 2.052 1.032 2.052 2.332 0 1.328-.77 2.359-2.08 2.359-.687 0-1.207-.325-1.449-.725zm2.638-4.002c0-.892-.502-1.56-1.319-1.56-.799 0-1.328.668-1.328 1.56 0 .92.529 1.579 1.328 1.579.808 0 1.319-.66 1.319-1.58m2.867 4.002h-.863v-6.231h.845v.697c.241-.446.771-.8 1.495-.8 1.337 0 2.052 1.032 2.052 2.332 0 1.328-.77 2.359-2.08 2.359-.687 0-1.207-.325-1.449-.725zm2.638-4.002c0-.892-.502-1.56-1.319-1.56-.799 0-1.328.668-1.328 1.56 0 .92.529 1.579 1.328 1.579.808 0 1.319-.66 1.319-1.58m2.877 2.238h-.873v-6.724h.873zm2.348 0h-.863v-4.467h.863zm-1.058-6.157a.626.626 0 1 1 .622.622.62.62 0 0 1-.622-.622m4.419 2.359c-.705 0-1.355.52-1.355 1.56 0 1.021.64 1.57 1.365 1.57.835 0 1.142-.567 1.244-.92l.771.334c-.214.641-.854 1.393-2.015 1.393-1.3 0-2.257-1.021-2.257-2.377 0-1.393.975-2.368 2.247-2.368 1.189 0 1.802.743 1.988 1.42l-.79.335c-.111-.437-.436-.947-1.198-.947m2.725 2.6c0-.799.585-1.244 1.356-1.356l1.207-.176c.269-.038.344-.177.344-.335 0-.436-.288-.798-.966-.798-.613 0-.957.38-1.012.9l-.836-.195c.093-.854.864-1.448 1.829-1.448 1.338 0 1.858.761 1.858 1.634v2.238c0 .39.037.622.055.734h-.854c-.018-.112-.046-.279-.046-.604-.195.316-.641.743-1.44.743-.91 0-1.495-.631-1.495-1.337m1.616.604c.715 0 1.291-.344 1.291-1.32v-.204l-1.365.205c-.372.056-.65.27-.65.669 0 .334.278.65.724.65m4.397-1.988v2.582h-.873v-4.467h.854v.64c.325-.556.854-.77 1.374-.77 1.068 0 1.598.77 1.598 1.764v2.833h-.873v-2.684c0-.622-.26-1.124-1.04-1.124-.687 0-1.04.548-1.04 1.226m5.512-3.297v1.412h.965v.79h-.965v2.321c0 .409.167.613.622.613.111 0 .269-.019.343-.037v.743a1.9 1.9 0 0 1-.594.083c-.762 0-1.244-.464-1.244-1.272v-2.452h-.855v-.789h.242c.483 0 .687-.297.687-.687v-.725zm1.758 4.718.789-.279c.056.465.409.836 1.04.836.493 0 .762-.278.762-.594 0-.279-.204-.492-.576-.576l-.761-.167c-.697-.149-1.115-.622-1.115-1.254 0-.761.715-1.411 1.588-1.411 1.226 0 1.607.798 1.7 1.198l-.771.287c-.037-.232-.223-.742-.929-.742-.445 0-.743.288-.743.594 0 .27.168.464.511.539l.724.157c.808.177 1.236.67 1.236 1.329 0 .631-.53 1.383-1.635 1.383-1.226 0-1.746-.79-1.82-1.3"/><path fill="#fcfcfc" d="M628.671 68.282h223v30.084h-223z"/><g clip-path="url(#c)"><path stroke="#707070" stroke-linecap="round" stroke-linejoin="round" stroke-width=".8" d="m643.963 79.158-.834.833m0 0 1.25 1.25-1.458 1.458-1.25-1.25m1.458-1.458-1.458 1.458m-1.713 1.713a2.3 2.3 0 0 1 .682 1.623 2.283 2.283 0 0 1-1.418 2.126 2.29 2.29 0 0 1-2.504-.508 2.291 2.291 0 0 1 3.24-3.24zm0 0 1.713-1.713"/></g><path fill="#707070" d="m661.087 82.615-3.164-3.164a1.004 1.004 0 0 0-1.42 0l-3.164 3.164a1.003 1.003 0 0 0 0 1.42l3.164 3.165a1.004 1.004 0 0 0 1.42 0l3.164-3.165a1.004 1.004 0 0 0 0-1.42"/><path fill="#525252" d="M670.511 82.774v-.76h1.44l.36-1.67h.84l-.36 1.67h1.42l.36-1.67h.84l-.36 1.67h1.35v.76h-1.51l-.34 1.6h1.36v.76h-1.53l-.36 1.69h-.84l.36-1.69h-1.42l-.36 1.69h-.84l.36-1.69h-1.26v-.76h1.43l.34-1.6zm2.12 0-.34 1.6h1.42l.34-1.6z"/><path fill="#fcfcfc" d="M628.671 99.184h223v30.084h-223z"/><path fill="#707070" d="m644.087 113.517-3.164-3.164a1.004 1.004 0 0 0-1.42 0l-3.164 3.164a1.004 1.004 0 0 0 0 1.421l3.164 3.164a1.004 1.004 0 0 0 1.42 0l3.164-3.164a1.006 1.006 0 0 0 0-1.421"/><path fill="#525252" d="M655.208 110.456c.32 0 .52.07.56.1v.84c-.05-.02-.17-.06-.41-.06-.33 0-.76.15-.76.81v.77h3.18v4.81h-.93v-3.96h-2.25v3.96h-.97v-3.96h-.89v-.85h.89v-.81c0-1.07.71-1.65 1.58-1.65m1.43.62a.674.674 0 1 1 .67.67.67.67 0 0 1-.67-.67m5.405 1.79v1c-.14-.02-.28-.03-.41-.03-.79 0-1.32.42-1.32 1.48v2.41h-.94v-4.81h.92v.84c.35-.74.95-.92 1.44-.92.13 0 .26.02.31.03m.552 3.61.85-.3c.06.5.44.9 1.12.9.53 0 .82-.3.82-.64 0-.3-.22-.53-.62-.62l-.82-.18c-.75-.16-1.2-.67-1.2-1.35 0-.82.77-1.52 1.71-1.52 1.32 0 1.73.86 1.83 1.29l-.83.31c-.04-.25-.24-.8-1-.8-.48 0-.8.31-.8.64 0 .29.18.5.55.58l.78.17c.87.19 1.33.72 1.33 1.43 0 .68-.57 1.49-1.76 1.49-1.32 0-1.88-.85-1.96-1.4m6.232-5.08v1.52h1.04v.85h-1.04v2.5c0 .44.18.66.67.66.12 0 .29-.02.37-.04v.8c-.08.03-.32.09-.64.09-.82 0-1.34-.5-1.34-1.37v-2.64h-.92v-.85h.26c.52 0 .74-.32.74-.74v-.78zm7.067 7.12h-5.12v-.79h5.12zm1.89-3.57v2.78h-.94v-4.81h.92v.69c.35-.6.92-.83 1.48-.83 1.15 0 1.72.83 1.72 1.9v3.05h-.94v-2.89c0-.67-.28-1.21-1.12-1.21-.74 0-1.12.59-1.12 1.32m4.375 1.49c0-.86.63-1.34 1.46-1.46l1.3-.19c.29-.04.37-.19.37-.36 0-.47-.31-.86-1.04-.86-.66 0-1.03.41-1.09.97l-.9-.21c.1-.92.93-1.56 1.97-1.56 1.44 0 2 .82 2 1.76v2.41c0 .42.04.67.06.79h-.92c-.02-.12-.05-.3-.05-.65-.21.34-.69.8-1.55.8-.98 0-1.61-.68-1.61-1.44m1.74.65c.77 0 1.39-.37 1.39-1.42v-.22l-1.47.22c-.4.06-.7.29-.7.72 0 .36.3.7.78.7m4.725.64h-.93v-4.81h.9v.64c.3-.53.9-.78 1.46-.78.6 0 1.18.29 1.44.91.38-.69 1-.91 1.61-.91.84 0 1.66.57 1.66 1.83v3.12h-.93v-3.02c0-.63-.31-1.1-1.02-1.1-.66 0-1.11.52-1.11 1.21v2.91h-.94v-3.02c0-.62-.3-1.1-1.02-1.1-.67 0-1.12.5-1.12 1.22zm8.254-2.9h2.63c-.02-.69-.47-1.23-1.32-1.23-.79 0-1.27.61-1.31 1.23m2.77 1.25.81.28c-.27.85-1.04 1.52-2.16 1.52-1.29 0-2.42-.94-2.42-2.57 0-1.51 1.09-2.54 2.3-2.54 1.48 0 2.31 1.02 2.31 2.52 0 .12-.01.24-.02.3h-3.62c.02.86.64 1.46 1.45 1.46.78 0 1.17-.43 1.35-.97"/><path fill="#fcfcfc" d="M628.671 130.086h223v30.084h-223z"/><g clip-path="url(#d)"><path fill="#707070" d="m644.087 144.42-3.164-3.165a1.004 1.004 0 0 0-1.42 0l-3.164 3.165a1.003 1.003 0 0 0 0 1.42l3.164 3.164a1.004 1.004 0 0 0 1.42 0l3.164-3.164a1.004 1.004 0 0 0 0-1.42"/></g><path fill="#525252" d="M654.245 148.629h-.94v-7.24h.94zm1.299-1.29c0-.86.63-1.34 1.46-1.46l1.3-.19c.29-.04.37-.19.37-.36 0-.47-.31-.86-1.04-.86-.66 0-1.03.41-1.09.97l-.9-.21c.1-.92.93-1.56 1.97-1.56 1.44 0 2 .82 2 1.76v2.41c0 .42.04.67.06.79h-.92c-.02-.12-.05-.3-.05-.65-.21.34-.69.8-1.55.8-.98 0-1.61-.68-1.61-1.44m1.74.65c.77 0 1.39-.37 1.39-1.42v-.22l-1.47.22c-.4.06-.7.29-.7.72 0 .36.3.7.78.7m3.344-.61.85-.3c.06.5.44.9 1.12.9.53 0 .82-.3.82-.64 0-.3-.22-.53-.62-.62l-.82-.18c-.75-.16-1.2-.67-1.2-1.35 0-.82.77-1.52 1.71-1.52 1.32 0 1.73.86 1.83 1.29l-.83.31c-.04-.25-.24-.8-1-.8-.48 0-.8.31-.8.64 0 .29.18.5.55.58l.78.17c.87.19 1.33.72 1.33 1.43 0 .68-.57 1.49-1.76 1.49-1.32 0-1.88-.85-1.96-1.4m6.232-5.08v1.52h1.04v.85h-1.04v2.5c0 .44.18.66.67.66.12 0 .29-.02.37-.04v.8c-.08.03-.32.09-.64.09-.82 0-1.34-.5-1.34-1.37v-2.64H665v-.85h.26c.52 0 .74-.32.74-.74v-.78zm7.067 7.12h-5.12v-.79h5.12zm1.89-3.57v2.78h-.94v-4.81h.92v.69c.35-.6.92-.83 1.48-.83 1.15 0 1.72.83 1.72 1.9v3.05h-.94v-2.89c0-.67-.28-1.21-1.12-1.21-.74 0-1.12.59-1.12 1.32m4.375 1.49c0-.86.63-1.34 1.46-1.46l1.3-.19c.29-.04.37-.19.37-.36 0-.47-.31-.86-1.04-.86-.66 0-1.03.41-1.09.97l-.9-.21c.1-.92.93-1.56 1.97-1.56 1.44 0 2 .82 2 1.76v2.41c0 .42.04.67.06.79h-.92c-.02-.12-.05-.3-.05-.65-.21.34-.69.8-1.55.8-.98 0-1.61-.68-1.61-1.44m1.74.65c.77 0 1.39-.37 1.39-1.42v-.22l-1.47.22c-.4.06-.7.29-.7.72 0 .36.3.7.78.7m4.725.64h-.93v-4.81h.9v.64c.3-.53.9-.78 1.46-.78.6 0 1.18.29 1.44.91.38-.69 1-.91 1.61-.91.84 0 1.66.57 1.66 1.83v3.12h-.93v-3.02c0-.63-.31-1.1-1.02-1.1-.66 0-1.11.52-1.11 1.21v2.91h-.94v-3.02c0-.62-.3-1.1-1.02-1.1-.67 0-1.12.5-1.12 1.22zm8.254-2.9h2.63c-.02-.69-.47-1.23-1.32-1.23-.79 0-1.27.61-1.31 1.23m2.77 1.25.81.28c-.27.85-1.04 1.52-2.16 1.52-1.29 0-2.42-.94-2.42-2.57 0-1.51 1.09-2.54 2.3-2.54 1.48 0 2.31 1.02 2.31 2.52 0 .12-.01.24-.02.3h-3.62c.02.86.64 1.46 1.45 1.46.78 0 1.17-.43 1.35-.97"/><path fill="#fcfcfc" d="M628.671 160.989h223v30.084h-223z"/><g clip-path="url(#e)"><path fill="#707070" d="m644.087 175.322-3.164-3.164a1.003 1.003 0 0 0-1.42 0l-3.164 3.164a1.003 1.003 0 0 0 0 1.42l3.164 3.164a1.004 1.004 0 0 0 1.42 0l3.164-3.164a1.004 1.004 0 0 0 0-1.42"/></g><path fill="#525252" d="M653.974 176.631h2.63c-.02-.69-.47-1.23-1.32-1.23-.79 0-1.27.61-1.31 1.23m2.77 1.25.81.28c-.27.85-1.04 1.52-2.16 1.52-1.29 0-2.42-.94-2.42-2.57 0-1.51 1.09-2.54 2.3-2.54 1.48 0 2.31 1.02 2.31 2.52 0 .12-.01.24-.02.3h-3.62c.02.86.64 1.46 1.45 1.46.78 0 1.17-.43 1.35-.97m2.97 1.65h-.93v-4.81h.9v.64c.3-.53.9-.78 1.46-.78.6 0 1.18.29 1.44.91.38-.69 1-.91 1.61-.91.84 0 1.66.57 1.66 1.83v3.12h-.93v-3.02c0-.63-.31-1.1-1.02-1.1-.66 0-1.11.52-1.11 1.21v2.91h-.94v-3.02c0-.62-.3-1.1-1.02-1.1-.67 0-1.12.5-1.12 1.22zm7.345-1.29c0-.86.63-1.34 1.46-1.46l1.3-.19c.29-.04.37-.19.37-.36 0-.47-.31-.86-1.04-.86-.66 0-1.03.41-1.09.97l-.9-.21c.1-.92.93-1.56 1.97-1.56 1.44 0 2 .82 2 1.76v2.41c0 .42.04.67.06.79h-.92c-.02-.12-.05-.3-.05-.65-.21.34-.69.8-1.55.8-.98 0-1.61-.68-1.61-1.44m1.74.65c.77 0 1.39-.37 1.39-1.42v-.22l-1.47.22c-.4.06-.7.29-.7.72 0 .36.3.7.78.7m4.724.64h-.93v-4.81h.93zm-1.14-6.63a.674.674 0 1 1 .67.67.67.67 0 0 1-.67-.67m3.679 6.63h-.94v-7.24h.94z"/><path fill="#fcfcfc" d="M628.671 191.891h223v30.084h-223z"/><g clip-path="url(#f)"><path stroke="#707070" stroke-linecap="round" stroke-linejoin="round" stroke-width=".8" d="m644.087 206.224-3.164-3.164a1.004 1.004 0 0 0-1.42 0l-3.164 3.164a1.003 1.003 0 0 0 0 1.42l3.164 3.165a1.004 1.004 0 0 0 1.42 0l3.164-3.165a1.004 1.004 0 0 0 0-1.42"/></g><path fill="#525252" d="M654.293 212.333h-.93v-6.71h.91v.75c.26-.48.83-.86 1.61-.86 1.44 0 2.21 1.11 2.21 2.51 0 1.43-.83 2.54-2.24 2.54-.74 0-1.3-.35-1.56-.78zm2.84-4.31c0-.96-.54-1.68-1.42-1.68-.86 0-1.43.72-1.43 1.68 0 .99.57 1.7 1.43 1.7.87 0 1.42-.71 1.42-1.7m3.097-.42v2.83h-.94v-7.24h.94v2.99c.35-.51.91-.7 1.46-.7 1.15 0 1.72.83 1.72 1.9v3.05h-.94v-2.89c0-.67-.28-1.21-1.12-1.21-.72 0-1.1.56-1.12 1.27m6.735 2.14c.8 0 1.5-.6 1.5-1.72 0-1.11-.7-1.71-1.5-1.71s-1.5.6-1.5 1.71c0 1.12.7 1.72 1.5 1.72m0-4.27c1.44 0 2.46 1.09 2.46 2.55 0 1.47-1.02 2.56-2.46 2.56s-2.46-1.09-2.46-2.56c0-1.46 1.02-2.55 2.46-2.55m4.603 2.18v2.78h-.94v-4.81h.92v.69c.35-.6.92-.83 1.48-.83 1.15 0 1.72.83 1.72 1.9v3.05h-.94v-2.89c0-.67-.28-1.21-1.12-1.21-.74 0-1.12.59-1.12 1.32m5.285-.12h2.63c-.02-.69-.47-1.23-1.32-1.23-.79 0-1.27.61-1.31 1.23m2.77 1.25.81.28c-.27.85-1.04 1.52-2.16 1.52-1.29 0-2.42-.94-2.42-2.57 0-1.51 1.09-2.54 2.3-2.54 1.48 0 2.31 1.02 2.31 2.52 0 .12-.01.24-.02.3h-3.62c.02.86.64 1.46 1.45 1.46.78 0 1.17-.43 1.35-.97"/></g><rect width="223" height="215.498" x="628.671" y="37.38" stroke="#dfdfdf" stroke-width=".58" rx="4"/><g clip-path="url(#g)"><rect width="223" height="215.498" x="360" y="67.824" fill="#dfdfdf" rx="4"/><path fill="#fff" d="M360 67.824h223v30.084H360z"/><path stroke="#707070" stroke-linecap="round" stroke-linejoin="round" d="M372.542 76.367h-2.667a1.33 1.33 0 0 0-1.333 1.333v2.666m4-4h6.667a1.33 1.33 0 0 1 1.333 1.334v2.666m-8-4v12m-4-8v6.667a1.332 1.332 0 0 0 1.333 1.333h2.667m-4-8h12m0 0v6.667a1.332 1.332 0 0 1-1.333 1.333h-6.667"/><path fill="#171717" d="M389.7 85.169c0-.8.585-1.245 1.356-1.356l1.207-.177c.27-.037.344-.176.344-.334 0-.437-.288-.799-.966-.799-.613 0-.956.38-1.012.901l-.836-.195c.093-.854.864-1.449 1.83-1.449 1.337 0 1.857.762 1.857 1.635v2.238c0 .39.037.622.056.734h-.855c-.018-.112-.046-.28-.046-.604-.195.316-.641.743-1.44.743-.91 0-1.495-.632-1.495-1.338m1.616.603c.715 0 1.291-.344 1.291-1.319v-.204l-1.365.204c-.372.056-.65.27-.65.669 0 .334.278.65.724.65m4.388 2.359h-.864V81.9h.845v.696c.241-.446.771-.799 1.495-.799 1.337 0 2.053 1.031 2.053 2.331 0 1.328-.771 2.36-2.081 2.36-.687 0-1.207-.326-1.448-.725zm2.637-4.003c0-.891-.502-1.56-1.319-1.56-.798 0-1.328.669-1.328 1.56 0 .92.53 1.58 1.328 1.58.808 0 1.319-.66 1.319-1.58m2.867 4.003h-.863V81.9h.845v.696c.241-.446.771-.799 1.495-.799 1.337 0 2.052 1.031 2.052 2.331 0 1.328-.77 2.36-2.08 2.36-.687 0-1.207-.326-1.449-.725zm2.638-4.003c0-.891-.502-1.56-1.319-1.56-.798 0-1.328.669-1.328 1.56 0 .92.53 1.58 1.328 1.58.808 0 1.319-.66 1.319-1.58m2.877 2.239h-.873v-6.724h.873zm2.348 0h-.863v-4.468h.863zm-1.058-6.158a.626.626 0 1 1 .622.622.62.62 0 0 1-.622-.622m4.42 2.36c-.706 0-1.356.52-1.356 1.56 0 1.02.64 1.569 1.365 1.569.836 0 1.142-.567 1.244-.92l.771.335c-.214.64-.854 1.393-2.015 1.393-1.3 0-2.257-1.022-2.257-2.378 0-1.393.975-2.368 2.248-2.368 1.188 0 1.801.743 1.987 1.421l-.79.334c-.111-.436-.436-.947-1.197-.947m2.724 2.6c0-.8.585-1.245 1.356-1.356l1.207-.177c.27-.037.344-.176.344-.334 0-.437-.288-.799-.966-.799-.613 0-.956.38-1.012.901l-.836-.195c.093-.854.864-1.449 1.83-1.449 1.337 0 1.857.762 1.857 1.635v2.238c0 .39.037.622.056.734h-.855c-.018-.112-.046-.28-.046-.604-.195.316-.641.743-1.44.743-.91 0-1.495-.632-1.495-1.338m1.616.603c.715 0 1.291-.344 1.291-1.319v-.204l-1.365.204c-.372.056-.65.27-.65.669 0 .334.278.65.724.65m4.694-5.284V81.9h.966v.789h-.966v2.322c0 .408.167.613.622.613.112 0 .269-.02.344-.038v.743a1.9 1.9 0 0 1-.595.084c-.761 0-1.244-.464-1.244-1.272v-2.452h-.854v-.79h.241c.483 0 .687-.297.687-.687v-.724zm2.995 5.879h-.864v-4.468h.864zm-1.059-6.158a.627.627 0 1 1 .622.622.62.62 0 0 1-.622-.622m4.457 5.517c.743 0 1.393-.558 1.393-1.598 0-1.03-.65-1.588-1.393-1.588s-1.393.557-1.393 1.588c0 1.04.65 1.598 1.393 1.598m0-3.966c1.337 0 2.284 1.012 2.284 2.368 0 1.365-.947 2.378-2.284 2.378s-2.285-1.013-2.285-2.378c0-1.356.948-2.368 2.285-2.368m4.274 2.025v2.582h-.873v-4.468h.855v.641c.325-.557.854-.77 1.374-.77 1.068 0 1.597.77 1.597 1.764v2.832h-.873v-2.683c0-.623-.26-1.124-1.04-1.124-.687 0-1.04.548-1.04 1.226m3.924 1.42.789-.278c.056.464.409.836 1.041.836.492 0 .761-.279.761-.595 0-.278-.204-.492-.576-.575l-.761-.168c-.697-.148-1.115-.622-1.115-1.253 0-.762.715-1.412 1.588-1.412 1.226 0 1.607.799 1.7 1.198l-.771.288c-.037-.232-.223-.743-.929-.743-.445 0-.743.288-.743.594 0 .27.168.465.511.54l.725.157c.808.177 1.235.669 1.235 1.328 0 .632-.53 1.384-1.635 1.384-1.226 0-1.746-.79-1.82-1.3"/><path fill="#fcfcfc" d="M360 98.727h223v30.084H360z"/><g clip-path="url(#h)"><path stroke="#707070" stroke-linecap="round" stroke-linejoin="round" stroke-width=".8" d="m375.292 109.602-.834.833m0 0 1.25 1.25-1.458 1.459-1.25-1.25m1.458-1.459L373 111.894m-1.713 1.712a2.295 2.295 0 0 1 .011 3.252 2.294 2.294 0 0 1-3.251-.011 2.29 2.29 0 0 1 3.24-3.24zm0 0 1.713-1.712"/></g><path fill="#707070" d="m392.416 113.06-3.164-3.164a1.003 1.003 0 0 0-1.42 0l-3.164 3.164a1.003 1.003 0 0 0 0 1.42l3.164 3.164a1.004 1.004 0 0 0 1.42 0l3.164-3.164a1.004 1.004 0 0 0 0-1.42"/><path fill="#525252" d="M401.841 113.219v-.76h1.44l.36-1.67h.84l-.36 1.67h1.42l.36-1.67h.84l-.36 1.67h1.35v.76h-1.51l-.34 1.6h1.36v.76h-1.53l-.36 1.69h-.84l.36-1.69h-1.42l-.36 1.69h-.84l.36-1.69h-1.26v-.76h1.43l.34-1.6zm2.12 0-.34 1.6h1.42l.34-1.6z"/><path fill="#b2b2b2" d="M556.904 111.604q-.39 0-.548-.158a.55.55 0 0 1-.148-.39v-.195q0-.233.148-.39.159-.158.539-.158.39 0 .539.158a.53.53 0 0 1 .158.39v.195a.53.53 0 0 1-.158.39q-.149.158-.53.158m-2.145 4.848h1.635v-3.158h-1.635v-.817h2.647v3.975h1.532v.817h-4.179zm5.411.817v-4.792h1.012v.817h.046q.075-.186.186-.353.122-.176.288-.297.167-.13.39-.204.223-.075.52-.075.724 0 1.17.474t.446 1.347v3.083h-1.012v-2.935q0-1.142-.994-1.142-.195 0-.381.056a1 1 0 0 0-.334.148.8.8 0 0 0-.241.26.76.76 0 0 0-.084.362v3.251zm7.862 0q-.632 0-.929-.335-.297-.343-.297-.882v-2.758h-1.477v-.817h1.05q.269 0 .381-.102.111-.113.111-.39v-1.198h.947v1.69h2.043v.817h-2.043v3.158h2.043v.817zm5.28.111q-.575 0-1.012-.139a2.2 2.2 0 0 1-.733-.399 1.7 1.7 0 0 1-.456-.595 1.9 1.9 0 0 1-.148-.752q0-.65.362-1.04t.947-.548v-.074a1.8 1.8 0 0 1-.808-.557q-.306-.381-.306-.938 0-.752.557-1.208.567-.455 1.597-.455 1.032 0 1.588.455.567.456.567 1.208 0 .557-.307.938a1.77 1.77 0 0 1-.807.557v.074q.585.158.947.548t.362 1.04q0 .408-.158.752a1.6 1.6 0 0 1-.446.595q-.297.25-.733.399a3.3 3.3 0 0 1-1.013.139m0-.826q.614 0 .938-.27.335-.269.335-.761v-.195q0-.492-.335-.762-.324-.269-.938-.269-.612 0-.947.269-.324.27-.325.762v.195q0 .492.325.761.335.27.947.27m0-3.056q.558 0 .846-.241.297-.25.297-.697v-.12q0-.446-.297-.688-.288-.25-.846-.25-.557 0-.854.25-.288.242-.288.688v.12q0 .447.288.697.297.241.854.241"/><path fill="#fcfcfc" d="M360 129.629h223v30.084H360z"/><path fill="#707070" d="m375.416 143.962-3.164-3.164a1.004 1.004 0 0 0-1.42 0l-3.164 3.164a1.003 1.003 0 0 0 0 1.42l3.164 3.164a1.003 1.003 0 0 0 1.42 0l3.164-3.164a1.004 1.004 0 0 0 0-1.42"/><path fill="#525252" d="M384.068 146.881c0-.86.63-1.34 1.46-1.46l1.3-.19c.29-.04.37-.19.37-.36 0-.47-.31-.86-1.04-.86-.66 0-1.03.41-1.09.97l-.9-.21c.1-.92.93-1.56 1.97-1.56 1.44 0 2 .82 2 1.76v2.41c0 .42.04.67.06.79h-.92c-.02-.12-.05-.3-.05-.65-.21.34-.69.8-1.55.8-.98 0-1.61-.68-1.61-1.44m1.74.65c.77 0 1.39-.37 1.39-1.42v-.22l-1.47.22c-.4.06-.7.29-.7.72 0 .36.3.7.78.7m4.725 2.54h-.93v-6.71h.91v.75c.26-.48.83-.86 1.61-.86 1.44 0 2.21 1.11 2.21 2.51 0 1.43-.83 2.54-2.24 2.54-.74 0-1.3-.35-1.56-.78zm2.84-4.31c0-.96-.54-1.68-1.42-1.68-.86 0-1.43.72-1.43 1.68 0 .99.57 1.7 1.43 1.7.87 0 1.42-.71 1.42-1.7m3.087 4.31h-.93v-6.71h.91v.75c.26-.48.83-.86 1.61-.86 1.44 0 2.21 1.11 2.21 2.51 0 1.43-.83 2.54-2.24 2.54-.74 0-1.3-.35-1.56-.78zm2.84-4.31c0-.96-.54-1.68-1.42-1.68-.86 0-1.43.72-1.43 1.68 0 .99.57 1.7 1.43 1.7.87 0 1.42-.71 1.42-1.7m3.098 2.41h-.94v-7.24h.94zm2.529 0h-.93v-4.81h.93zm-1.14-6.63a.674.674 0 1 1 .67.67.67.67 0 0 1-.67-.67m4.76 2.54c-.76 0-1.46.56-1.46 1.68 0 1.1.69 1.69 1.47 1.69.9 0 1.23-.61 1.34-.99l.83.36c-.23.69-.92 1.5-2.17 1.5-1.4 0-2.43-1.1-2.43-2.56 0-1.5 1.05-2.55 2.42-2.55 1.28 0 1.94.8 2.14 1.53l-.85.36c-.12-.47-.47-1.02-1.29-1.02m2.933 2.8c0-.86.63-1.34 1.46-1.46l1.3-.19c.29-.04.37-.19.37-.36 0-.47-.31-.86-1.04-.86-.66 0-1.03.41-1.09.97l-.9-.21c.1-.92.93-1.56 1.97-1.56 1.44 0 2 .82 2 1.76v2.41c0 .42.04.67.06.79h-.92c-.02-.12-.05-.3-.05-.65-.21.34-.69.8-1.55.8-.98 0-1.61-.68-1.61-1.44m1.74.65c.77 0 1.39-.37 1.39-1.42v-.22l-1.47.22c-.4.06-.7.29-.7.72 0 .36.3.7.78.7m4.735-2.14v2.78h-.94v-4.81h.92v.69c.35-.6.92-.83 1.48-.83 1.15 0 1.72.83 1.72 1.9v3.05h-.94v-2.89c0-.67-.28-1.21-1.12-1.21-.74 0-1.12.59-1.12 1.32m5.935-3.55v1.52h1.04v.85h-1.04v2.5c0 .44.18.66.67.66.12 0 .29-.02.37-.04v.8c-.08.03-.32.09-.64.09-.82 0-1.34-.5-1.34-1.37v-2.64h-.92v-.85h.26c.52 0 .74-.32.74-.74v-.78zm7.068 7.12h-5.12v-.79h5.12zm1.879-.79h-.93v-4.81h.93zm-1.14-6.63a.674.674 0 1 1 .67.67.67.67 0 0 1-.67-.67m3.3 4.21c0 .99.51 1.72 1.41 1.72.86 0 1.39-.75 1.39-1.74s-.52-1.67-1.38-1.67-1.42.7-1.42 1.69m2.81 1.77v-.08c-.23.46-.74.86-1.49.86-1.41 0-2.28-1.12-2.28-2.55 0-1.36.92-2.52 2.28-2.52.85 0 1.31.42 1.47.81v-3.11h.93v6.35c0 .46.04.81.05.89h-.91c-.02-.11-.05-.36-.05-.65"/><path fill="#b2b2b2" d="M556.904 142.506q-.39 0-.548-.158a.55.55 0 0 1-.148-.39v-.195q0-.232.148-.39.159-.158.539-.158.39 0 .539.158a.53.53 0 0 1 .158.39v.195a.53.53 0 0 1-.158.39q-.149.158-.53.158m-2.145 4.848h1.635v-3.158h-1.635v-.817h2.647v3.975h1.532v.817h-4.179zm5.411.817v-4.792h1.012v.817h.046q.075-.186.186-.353.122-.175.288-.297.167-.13.39-.204.223-.075.52-.074.724 0 1.17.473.446.474.446 1.347v3.083h-1.012v-2.935q0-1.142-.994-1.142-.195 0-.381.056a1 1 0 0 0-.334.148.8.8 0 0 0-.241.26.76.76 0 0 0-.084.363v3.25zm7.862 0q-.632 0-.929-.334-.297-.344-.297-.883v-2.758h-1.477v-.817h1.05q.269 0 .381-.102.111-.113.111-.39v-1.198h.947v1.69h2.043v.817h-2.043v3.158h2.043v.817zm5.28.111q-.575 0-1.012-.139a2.2 2.2 0 0 1-.733-.399 1.7 1.7 0 0 1-.456-.595 1.9 1.9 0 0 1-.148-.752q0-.65.362-1.04t.947-.548v-.074a1.8 1.8 0 0 1-.808-.557q-.306-.381-.306-.938 0-.752.557-1.208.567-.455 1.597-.455 1.032 0 1.588.455.567.456.567 1.208 0 .557-.307.938a1.77 1.77 0 0 1-.807.557v.074q.585.158.947.548t.362 1.04q0 .409-.158.752a1.6 1.6 0 0 1-.446.595q-.297.25-.733.399a3.3 3.3 0 0 1-1.013.139m0-.826q.614 0 .938-.269.335-.27.335-.762v-.195q0-.492-.335-.762-.324-.269-.938-.269-.612 0-.947.269-.324.27-.325.762v.195q0 .492.325.762.335.269.947.269m0-3.056q.558 0 .846-.241.297-.25.297-.696v-.121q0-.446-.297-.687-.288-.251-.846-.251-.557 0-.854.251-.288.242-.288.687v.121q0 .446.288.696.297.241.854.241"/><path fill="#fcfcfc" d="M360 160.531h223v30.084H360z"/><path fill="#707070" d="m375.416 174.864-3.164-3.164a1.004 1.004 0 0 0-1.42 0l-3.164 3.164a1.003 1.003 0 0 0 0 1.42l3.164 3.165a1.004 1.004 0 0 0 1.42 0l3.164-3.165a1.004 1.004 0 0 0 0-1.42"/><path fill="#525252" d="M384.431 179.593v-5.33h.94v5.37c0 .87-.5 1.49-1.33 1.49-.36 0-.5-.05-.56-.07v-.79c.05.01.16.03.3.03.49 0 .65-.26.65-.7m-.21-7.17a.674.674 0 1 1 .67.67.67.67 0 0 1-.67-.67m4.809 5.96c.8 0 1.5-.6 1.5-1.72 0-1.11-.7-1.71-1.5-1.71s-1.5.6-1.5 1.71c0 1.12.7 1.72 1.5 1.72m0-4.27c1.44 0 2.46 1.09 2.46 2.55 0 1.47-1.02 2.56-2.46 2.56s-2.46-1.09-2.46-2.56c0-1.46 1.02-2.55 2.46-2.55m4.593 4.96h-.93v-7.24h.93v3.11c.23-.43.79-.82 1.59-.82 1.46 0 2.21 1.12 2.21 2.52 0 1.43-.81 2.56-2.24 2.56-.71 0-1.26-.31-1.56-.83zm2.84-2.43c0-1.04-.55-1.69-1.42-1.69-.83 0-1.43.65-1.43 1.69s.6 1.72 1.43 1.72c.86 0 1.42-.68 1.42-1.72m6.432 3.22h-5.12v-.79h5.12zm1.88-.79h-.93v-4.81h.93zm-1.14-6.63a.674.674 0 1 1 .67.67.67.67 0 0 1-.67-.67m3.299 4.21c0 .99.51 1.72 1.41 1.72.86 0 1.39-.75 1.39-1.74s-.52-1.67-1.38-1.67-1.42.7-1.42 1.69m2.81 1.77v-.08c-.23.46-.74.86-1.49.86-1.41 0-2.28-1.12-2.28-2.55 0-1.36.92-2.52 2.28-2.52.85 0 1.31.42 1.47.81v-3.11h.93v6.35c0 .46.04.81.05.89h-.91c-.02-.11-.05-.36-.05-.65"/><path fill="#b2b2b2" d="M556.904 173.408q-.39 0-.548-.158a.55.55 0 0 1-.148-.39v-.195a.55.55 0 0 1 .148-.39q.159-.158.539-.158.39 0 .539.158a.53.53 0 0 1 .158.39v.195a.53.53 0 0 1-.158.39q-.149.158-.53.158m-2.145 4.848h1.635v-3.157h-1.635v-.818h2.647v3.975h1.532v.817h-4.179zm5.411.817v-4.792h1.012v.818h.046a2 2 0 0 1 .186-.353 1.2 1.2 0 0 1 .288-.298q.167-.129.39-.204t.52-.074q.724 0 1.17.473.446.474.446 1.347v3.083h-1.012v-2.934q0-1.143-.994-1.143-.195 0-.381.056a1 1 0 0 0-.334.149.8.8 0 0 0-.241.26.76.76 0 0 0-.084.362v3.25zm7.862 0q-.632 0-.929-.334-.297-.344-.297-.882v-2.758h-1.477v-.818h1.05q.269 0 .381-.102.111-.111.111-.39v-1.198h.947v1.69h2.043v.818h-2.043v3.157h2.043v.817zm5.28.112a3.3 3.3 0 0 1-1.012-.14 2.2 2.2 0 0 1-.733-.399 1.7 1.7 0 0 1-.456-.594 1.9 1.9 0 0 1-.148-.753q0-.65.362-1.04a1.96 1.96 0 0 1 .947-.548v-.074a1.76 1.76 0 0 1-.808-.557q-.306-.381-.306-.938 0-.752.557-1.207.567-.456 1.597-.455 1.032 0 1.588.455.567.455.567 1.207 0 .557-.307.938-.306.381-.807.557v.074q.585.159.947.548.362.39.362 1.04 0 .41-.158.753a1.6 1.6 0 0 1-.446.594q-.297.25-.733.399-.437.14-1.013.14m0-.827q.614 0 .938-.269.335-.27.335-.762v-.195q0-.492-.335-.761-.324-.27-.938-.27-.612 0-.947.27-.324.269-.325.761v.195q0 .492.325.762.335.269.947.269m0-3.055q.558 0 .846-.242.297-.25.297-.696v-.121q0-.446-.297-.687-.288-.25-.846-.251-.557 0-.854.251-.288.241-.288.687v.121q0 .445.288.696.297.242.854.242"/><path fill="#fcfcfc" d="M360 191.433h223v30.084H360z"/><path fill="#707070" d="m375.416 205.766-3.164-3.164a1.004 1.004 0 0 0-1.42 0l-3.164 3.164a1.004 1.004 0 0 0 0 1.421l3.164 3.164a1.004 1.004 0 0 0 1.42 0l3.164-3.164a1.006 1.006 0 0 0 0-1.421"/><path fill="#525252" d="M384.376 208.685c0-.86.63-1.34 1.46-1.46l1.3-.19c.29-.04.37-.19.37-.36 0-.47-.31-.86-1.04-.86-.66 0-1.03.41-1.09.97l-.9-.21c.1-.92.93-1.56 1.97-1.56 1.44 0 2 .82 2 1.76v2.41c0 .42.04.67.06.79h-.92c-.02-.12-.05-.3-.05-.65-.21.34-.69.8-1.55.8-.98 0-1.61-.68-1.61-1.44m1.74.65c.77 0 1.39-.37 1.39-1.42v-.22l-1.47.22c-.4.06-.7.29-.7.72 0 .36.3.7.78.7m4.724 2.54h-.93v-6.71h.91v.75c.26-.48.83-.86 1.61-.86 1.44 0 2.21 1.11 2.21 2.51 0 1.43-.83 2.54-2.24 2.54-.74 0-1.3-.35-1.56-.78zm2.84-4.31c0-.96-.54-1.68-1.42-1.68-.86 0-1.43.72-1.43 1.68 0 .99.57 1.7 1.43 1.7.87 0 1.42-.71 1.42-1.7m3.088 4.31h-.93v-6.71h.91v.75c.26-.48.83-.86 1.61-.86 1.44 0 2.21 1.11 2.21 2.51 0 1.43-.83 2.54-2.24 2.54-.74 0-1.3-.35-1.56-.78zm2.84-4.31c0-.96-.54-1.68-1.42-1.68-.86 0-1.43.72-1.43 1.68 0 .99.57 1.7 1.43 1.7.87 0 1.42-.71 1.42-1.7m3.098 2.41h-.94v-7.24h.94zm2.529 0h-.93v-4.81h.93zm-1.14-6.63a.674.674 0 1 1 .67.67.67.67 0 0 1-.67-.67m4.759 2.54c-.76 0-1.46.56-1.46 1.68 0 1.1.69 1.69 1.47 1.69.9 0 1.23-.61 1.34-.99l.83.36c-.23.69-.92 1.5-2.17 1.5-1.4 0-2.43-1.1-2.43-2.56 0-1.5 1.05-2.55 2.42-2.55 1.28 0 1.94.8 2.14 1.53l-.85.36c-.12-.47-.47-1.02-1.29-1.02m2.934 2.8c0-.86.63-1.34 1.46-1.46l1.3-.19c.29-.04.37-.19.37-.36 0-.47-.31-.86-1.04-.86-.66 0-1.03.41-1.09.97l-.9-.21c.1-.92.93-1.56 1.97-1.56 1.44 0 2 .82 2 1.76v2.41c0 .42.04.67.06.79h-.92c-.02-.12-.05-.3-.05-.65-.21.34-.69.8-1.55.8-.98 0-1.61-.68-1.61-1.44m1.74.65c.77 0 1.39-.37 1.39-1.42v-.22l-1.47.22c-.4.06-.7.29-.7.72 0 .36.3.7.78.7m5.054-5.69v1.52h1.04v.85h-1.04v2.5c0 .44.18.66.67.66.12 0 .29-.02.37-.04v.8c-.08.03-.32.09-.64.09-.82 0-1.34-.5-1.34-1.37v-2.64h-.92v-.85h.26c.52 0 .74-.32.74-.74v-.78zm3.225 6.33h-.93v-4.81h.93zm-1.14-6.63a.674.674 0 1 1 .67.67.67.67 0 0 1-.67-.67m4.799 5.94c.8 0 1.5-.6 1.5-1.72 0-1.11-.7-1.71-1.5-1.71s-1.5.6-1.5 1.71c0 1.12.7 1.72 1.5 1.72m0-4.27c1.44 0 2.46 1.09 2.46 2.55 0 1.47-1.02 2.56-2.46 2.56s-2.46-1.09-2.46-2.56c0-1.46 1.02-2.55 2.46-2.55m4.603 2.18v2.78h-.94v-4.81h.92v.69c.35-.6.92-.83 1.48-.83 1.15 0 1.72.83 1.72 1.9v3.05h-.94v-2.89c0-.67-.28-1.21-1.12-1.21-.74 0-1.12.59-1.12 1.32m9.145 3.57h-5.12v-.79h5.12zm1.315-3.21c0 .99.51 1.72 1.41 1.72.86 0 1.39-.75 1.39-1.74s-.52-1.67-1.38-1.67-1.42.7-1.42 1.69m2.81 1.77v-.08c-.23.46-.74.86-1.49.86-1.41 0-2.28-1.12-2.28-2.55 0-1.36.92-2.52 2.28-2.52.85 0 1.31.42 1.47.81v-3.11h.93v6.35c0 .46.04.81.05.89h-.91c-.02-.11-.05-.36-.05-.65m2.209-.64c0-.86.63-1.34 1.46-1.46l1.3-.19c.29-.04.37-.19.37-.36 0-.47-.31-.86-1.04-.86-.66 0-1.03.41-1.09.97l-.9-.21c.1-.92.93-1.56 1.97-1.56 1.44 0 2 .82 2 1.76v2.41c0 .42.04.67.06.79h-.92c-.02-.12-.05-.3-.05-.65-.21.34-.69.8-1.55.8-.98 0-1.61-.68-1.61-1.44m1.74.65c.77 0 1.39-.37 1.39-1.42v-.22l-1.47.22c-.4.06-.7.29-.7.72 0 .36.3.7.78.7m5.054-5.69v1.52h1.04v.85h-1.04v2.5c0 .44.18.66.67.66.12 0 .29-.02.37-.04v.8c-.08.03-.32.09-.64.09-.82 0-1.34-.5-1.34-1.37v-2.64h-.92v-.85h.26c.52 0 .74-.32.74-.74v-.78zm2.856 3.43h2.63c-.02-.69-.47-1.23-1.32-1.23-.79 0-1.27.61-1.31 1.23m2.77 1.25.81.28c-.27.85-1.04 1.52-2.16 1.52-1.29 0-2.42-.94-2.42-2.57 0-1.51 1.09-2.54 2.3-2.54 1.48 0 2.31 1.02 2.31 2.52 0 .12-.01.24-.02.3h-3.62c.02.86.64 1.46 1.45 1.46.78 0 1.17-.43 1.35-.97"/><path fill="#b2b2b2" d="M557.647 209.158h-.055q-.215.436-.567.687-.353.242-.882.242-.845 0-1.347-.632-.501-.631-.501-1.876t.501-1.876 1.347-.631q.53 0 .882.251.352.242.567.678h.055v-2.898h1.013v6.872h-1.013zm-1.086.102q.222 0 .418-.055.195-.056.343-.168a.8.8 0 0 0 .325-.659v-1.597a.74.74 0 0 0-.093-.381.8.8 0 0 0-.232-.279 1 1 0 0 0-.343-.167 1.5 1.5 0 0 0-.418-.056q-.576 0-.892.353-.306.354-.306.938v.78q0 .585.306.938.316.353.892.353m7.398.715q-.437 0-.66-.223a1 1 0 0 1-.26-.585h-.046a1.23 1.23 0 0 1-.511.678q-.362.242-.929.242-.733 0-1.17-.381-.436-.39-.436-1.068 0-.696.511-1.059.52-.37 1.588-.371h.919v-.372q0-.975-1.031-.975-.464 0-.752.186a1.5 1.5 0 0 0-.483.474l-.604-.493q.205-.39.688-.668.482-.288 1.244-.288.91 0 1.43.436t.52 1.263v2.406h.604v.798zm-2.118-.631q.493 0 .808-.223t.316-.576v-.696h-.901q-1.095 0-1.096.659v.186q0 .325.233.492.232.158.64.158m6.191.631q-.632 0-.929-.334-.297-.344-.297-.882v-2.758h-1.477v-.818h1.05q.269 0 .381-.102.111-.111.111-.39v-1.198h.947v1.69h2.043v.818h-2.043v3.157h2.043v.817zm5.383.112a2.6 2.6 0 0 1-.985-.177 2 2 0 0 1-.733-.501 2.2 2.2 0 0 1-.456-.78 3.2 3.2 0 0 1-.157-1.04q0-.576.157-1.04.168-.465.456-.79.297-.334.715-.511.418-.176.928-.176.502 0 .91.176.41.168.697.483.288.317.436.753.159.436.158.965v.381h-3.436v.158q0 .567.353.929.352.353.975.353.465 0 .79-.195.333-.205.538-.539l.632.557q-.242.418-.743.706-.492.288-1.235.288m-.075-4.244q-.269 0-.501.093a1.1 1.1 0 0 0-.39.269 1.3 1.3 0 0 0-.251.399 1.4 1.4 0 0 0-.093.511v.065h2.405v-.093q0-.566-.325-.901-.315-.343-.845-.343"/></g><rect width="223" height="215.498" x="360" y="67.824" stroke="#dfdfdf" stroke-width=".58" rx="4"/><path stroke="#525252" stroke-dasharray="2 2" stroke-width=".5" d="M584.252 145.13h17.288a4 4 0 0 0 4-4V89.521a4 4 0 0 1 4-4h19.025"/><g filter="url(#i)"><rect width="359" height="36" x="381" y="158" fill="#fff" rx="18" shape-rendering="crispEdges"/><rect width="358" height="35" x="381.5" y="158.5" stroke="#dfdfdf" rx="17.5" shape-rendering="crispEdges"/><path stroke="#707070" stroke-linecap="round" stroke-linejoin="round" d="m410.293 175.367-6.127 6.126a4 4 0 0 1-5.66 0 4 4 0 0 1 0-5.66l5.714-5.713a2.672 2.672 0 0 1 3.78 3.773l-5.727 5.714a1.334 1.334 0 0 1-1.887-1.887l5.66-5.653"/><path fill="#171717" d="M423.666 175.683c-.988 0-1.898.728-1.898 2.184 0 1.43.897 2.197 1.911 2.197 1.17 0 1.599-.793 1.742-1.287l1.079.468c-.299.897-1.196 1.95-2.821 1.95-1.82 0-3.159-1.43-3.159-3.328 0-1.95 1.365-3.315 3.146-3.315 1.664 0 2.522 1.04 2.782 1.989l-1.105.468c-.156-.611-.611-1.326-1.677-1.326m7.739-1.001v1.3a4 4 0 0 0-.533-.039c-1.027 0-1.716.546-1.716 1.924V181h-1.222v-6.253h1.196v1.092c.455-.962 1.235-1.196 1.872-1.196a2.3 2.3 0 0 1 .403.039m2.032 2.548h3.419c-.026-.897-.611-1.599-1.716-1.599-1.027 0-1.651.793-1.703 1.599m3.601 1.625 1.053.364c-.351 1.105-1.352 1.976-2.808 1.976-1.677 0-3.146-1.222-3.146-3.341 0-1.963 1.417-3.302 2.99-3.302 1.924 0 3.003 1.326 3.003 3.276 0 .156-.013.312-.026.39h-4.706c.026 1.118.832 1.898 1.885 1.898 1.014 0 1.521-.559 1.755-1.261m2.261.468c0-1.118.819-1.742 1.898-1.898l1.69-.247c.377-.052.481-.247.481-.468 0-.611-.403-1.118-1.352-1.118-.858 0-1.339.533-1.417 1.261l-1.17-.273c.13-1.196 1.209-2.028 2.561-2.028 1.872 0 2.6 1.066 2.6 2.288v3.133c0 .546.052.871.078 1.027h-1.196c-.026-.156-.065-.39-.065-.845-.273.442-.897 1.04-2.015 1.04-1.274 0-2.093-.884-2.093-1.872m2.262.845c1.001 0 1.807-.481 1.807-1.846v-.286l-1.911.286c-.52.078-.91.377-.91.936 0 .468.39.91 1.014.91m6.571-7.397v1.976h1.352v1.105h-1.352v3.25c0 .572.234.858.871.858.156 0 .377-.026.481-.052v1.04a2.7 2.7 0 0 1-.832.117c-1.066 0-1.742-.65-1.742-1.781v-3.432h-1.196v-1.105h.338c.676 0 .962-.416.962-.962v-1.014zm3.713 4.459h3.419c-.026-.897-.611-1.599-1.716-1.599-1.027 0-1.651.793-1.703 1.599m3.601 1.625 1.053.364c-.351 1.105-1.352 1.976-2.808 1.976-1.677 0-3.146-1.222-3.146-3.341 0-1.963 1.417-3.302 2.99-3.302 1.924 0 3.003 1.326 3.003 3.276 0 .156-.013.312-.026.39h-4.706c.026 1.118.832 1.898 1.885 1.898 1.014 0 1.521-.559 1.755-1.261m7.124-1.534V181h-1.222v-9.412h1.222v3.887c.455-.663 1.183-.91 1.898-.91 1.495 0 2.236 1.079 2.236 2.47V181h-1.222v-3.757c0-.871-.364-1.573-1.456-1.573-.936 0-1.43.728-1.456 1.651m7.286 3.679h-1.209v-6.253h1.209zm-1.482-8.619a.877.877 0 1 1 .871.871.87.87 0 0 1-.871-.871m7.033 2.301v1.3a4 4 0 0 0-.533-.039c-1.027 0-1.716.546-1.716 1.924V181h-1.222v-6.253h1.196v1.092c.455-.962 1.235-1.196 1.872-1.196a2.3 2.3 0 0 1 .403.039m2.511 6.318h-1.209v-6.253h1.209zm-1.482-8.619a.877.877 0 1 1 .871.871.87.87 0 0 1-.871-.871m4.783 5.005V181h-1.222v-6.253h1.196v.897c.455-.78 1.196-1.079 1.924-1.079 1.495 0 2.236 1.079 2.236 2.47V181h-1.222v-3.757c0-.871-.364-1.573-1.456-1.573-.962 0-1.456.767-1.456 1.716m5.623 3.952 1.183-.273c.091.871.754 1.534 1.703 1.534 1.313 0 1.911-.676 1.911-2.028v-.897c-.299.572-.975 1.027-1.911 1.027-1.664 0-2.873-1.261-2.873-3.029 0-1.69 1.157-3.042 2.873-3.042.962 0 1.612.364 1.924.988v-.871h1.209v5.785c0 1.586-.78 3.133-3.133 3.133-1.56 0-2.73-.988-2.886-2.327m3.068-1.664c1.053 0 1.781-.793 1.781-2.002s-.728-2.002-1.781-2.002c-1.079 0-1.807.793-1.807 2.002 0 1.222.702 2.002 1.807 2.002m7.762-.351c0-1.118.819-1.742 1.898-1.898l1.69-.247c.377-.052.481-.247.481-.468 0-.611-.403-1.118-1.352-1.118-.858 0-1.339.533-1.417 1.261l-1.17-.273c.13-1.196 1.209-2.028 2.561-2.028 1.872 0 2.6 1.066 2.6 2.288v3.133c0 .546.052.871.078 1.027h-1.196c-.026-.156-.065-.39-.065-.845-.273.442-.897 1.04-2.015 1.04-1.274 0-2.093-.884-2.093-1.872m2.262.845c1.001 0 1.807-.481 1.807-1.846v-.286l-1.911.286c-.52.078-.91.377-.91.936 0 .468.39.91 1.014.91m6.142 3.302h-1.209v-8.723h1.183v.975c.338-.624 1.079-1.118 2.093-1.118 1.872 0 2.873 1.443 2.873 3.263 0 1.859-1.079 3.302-2.912 3.302-.962 0-1.69-.455-2.028-1.014zm3.692-5.603c0-1.248-.702-2.184-1.846-2.184-1.118 0-1.859.936-1.859 2.184 0 1.287.741 2.21 1.859 2.21 1.131 0 1.846-.923 1.846-2.21m4.014 5.603h-1.209v-8.723h1.183v.975c.338-.624 1.079-1.118 2.093-1.118 1.872 0 2.873 1.443 2.873 3.263 0 1.859-1.079 3.302-2.912 3.302-.962 0-1.69-.455-2.028-1.014zm3.692-5.603c0-1.248-.702-2.184-1.846-2.184-1.118 0-1.859.936-1.859 2.184 0 1.287.741 2.21 1.859 2.21 1.131 0 1.846-.923 1.846-2.21m7.693-5.096v1.976h1.352v1.105h-1.352v3.25c0 .572.234.858.871.858.156 0 .377-.026.481-.052v1.04a2.7 2.7 0 0 1-.832.117c-1.066 0-1.742-.65-1.742-1.781v-3.432h-1.196v-1.105h.338c.676 0 .962-.416.962-.962v-1.014zm2.593 6.552c0-1.118.819-1.742 1.898-1.898l1.69-.247c.377-.052.481-.247.481-.468 0-.611-.403-1.118-1.352-1.118-.858 0-1.339.533-1.417 1.261l-1.17-.273c.13-1.196 1.209-2.028 2.561-2.028 1.872 0 2.6 1.066 2.6 2.288v3.133c0 .546.052.871.078 1.027h-1.196c-.026-.156-.065-.39-.065-.845-.273.442-.897 1.04-2.015 1.04-1.274 0-2.093-.884-2.093-1.872m2.262.845c1.001 0 1.807-.481 1.807-1.846v-.286l-1.911.286c-.52.078-.91.377-.91.936 0 .468.39.91 1.014.91m6.142.832h-1.209v-9.412h1.209v4.043c.299-.559 1.027-1.066 2.067-1.066 1.898 0 2.873 1.456 2.873 3.276 0 1.859-1.053 3.328-2.912 3.328-.923 0-1.638-.403-2.028-1.079zm3.692-3.159c0-1.352-.715-2.197-1.846-2.197-1.079 0-1.859.845-1.859 2.197s.78 2.236 1.859 2.236c1.118 0 1.846-.884 1.846-2.236m4.027 3.159h-1.222v-9.412h1.222zm2.872-3.77h3.419c-.026-.897-.611-1.599-1.716-1.599-1.027 0-1.651.793-1.703 1.599m3.601 1.625 1.053.364c-.351 1.105-1.352 1.976-2.808 1.976-1.677 0-3.146-1.222-3.146-3.341 0-1.963 1.417-3.302 2.99-3.302 1.924 0 3.003 1.326 3.003 3.276 0 .156-.013.312-.026.39h-4.706c.026 1.118.832 1.898 1.885 1.898 1.014 0 1.521-.559 1.755-1.261m2.067.52 1.105-.39c.078.65.572 1.17 1.456 1.17.689 0 1.066-.39 1.066-.832 0-.39-.286-.689-.806-.806l-1.066-.234c-.975-.208-1.56-.871-1.56-1.755 0-1.066 1.001-1.976 2.223-1.976 1.716 0 2.249 1.118 2.379 1.677l-1.079.403c-.052-.325-.312-1.04-1.3-1.04-.624 0-1.04.403-1.04.832 0 .377.234.65.715.754l1.014.221c1.131.247 1.729.936 1.729 1.859 0 .884-.741 1.937-2.288 1.937-1.716 0-2.444-1.105-2.548-1.82m13.236-4.628h1.261l1.625 4.706 1.378-4.706h1.287L569.182 181h-1.261l-1.664-4.758-1.625 4.758h-1.287l-2.054-6.253h1.339l1.404 4.706zm7.994 6.253h-1.209v-6.253h1.209zm-1.482-8.619a.877.877 0 1 1 .871.871.87.87 0 0 1-.871-.871m5.199.39v1.976h1.352v1.105h-1.352v3.25c0 .572.234.858.871.858.156 0 .377-.026.481-.052v1.04a2.7 2.7 0 0 1-.832.117c-1.066 0-1.742-.65-1.742-1.781v-3.432h-1.196v-1.105h.338c.676 0 .962-.416.962-.962v-1.014zm4.205 4.55V181h-1.222v-9.412h1.222v3.887c.455-.663 1.183-.91 1.898-.91 1.495 0 2.236 1.079 2.236 2.47V181h-1.222v-3.757c0-.871-.364-1.573-1.456-1.573-.936 0-1.43.728-1.456 1.651m8.743 2.054 1.105-.39c.078.65.572 1.17 1.456 1.17.689 0 1.066-.39 1.066-.832 0-.39-.286-.689-.806-.806l-1.066-.234c-.975-.208-1.56-.871-1.56-1.755 0-1.066 1.001-1.976 2.223-1.976 1.716 0 2.249 1.118 2.379 1.677l-1.079.403c-.052-.325-.312-1.04-1.3-1.04-.624 0-1.04.403-1.04.832 0 .377.234.65.715.754l1.014.221c1.131.247 1.729.936 1.729 1.859 0 .884-.741 1.937-2.288 1.937-1.716 0-2.444-1.105-2.548-1.82m5.946-.052c0-1.118.819-1.742 1.898-1.898l1.69-.247c.377-.052.481-.247.481-.468 0-.611-.403-1.118-1.352-1.118-.858 0-1.339.533-1.417 1.261l-1.17-.273c.13-1.196 1.209-2.028 2.561-2.028 1.872 0 2.6 1.066 2.6 2.288v3.133c0 .546.052.871.078 1.027h-1.196a4.6 4.6 0 0 1-.065-.845c-.273.442-.897 1.04-2.015 1.04-1.274 0-2.093-.884-2.093-1.872m2.262.845c1.001 0 1.807-.481 1.807-1.846v-.286l-1.911.286c-.52.078-.91.377-.91.936 0 .468.39.91 1.014.91m6.142.832h-1.209v-6.253h1.17v.832c.39-.689 1.17-1.014 1.898-1.014.78 0 1.534.377 1.872 1.183.494-.897 1.3-1.183 2.093-1.183 1.092 0 2.158.741 2.158 2.379V181h-1.209v-3.926c0-.819-.403-1.43-1.326-1.43-.858 0-1.443.676-1.443 1.573V181h-1.222v-3.926c0-.806-.39-1.43-1.326-1.43-.871 0-1.456.65-1.456 1.586zm11.146 2.47h-1.209v-8.723h1.183v.975c.338-.624 1.079-1.118 2.093-1.118 1.872 0 2.873 1.443 2.873 3.263 0 1.859-1.079 3.302-2.912 3.302-.962 0-1.69-.455-2.028-1.014zm3.692-5.603c0-1.248-.702-2.184-1.846-2.184-1.118 0-1.859.936-1.859 2.184 0 1.287.741 2.21 1.859 2.21 1.131 0 1.846-.923 1.846-2.21m4.027 3.133h-1.222v-9.412h1.222zm2.872-3.77h3.419c-.026-.897-.611-1.599-1.716-1.599-1.027 0-1.651.793-1.703 1.599m3.601 1.625 1.053.364c-.351 1.105-1.352 1.976-2.808 1.976-1.677 0-3.146-1.222-3.146-3.341 0-1.963 1.417-3.302 2.99-3.302 1.924 0 3.003 1.326 3.003 3.276 0 .156-.013.312-.026.39h-4.706c.026 1.118.832 1.898 1.885 1.898 1.014 0 1.521-.559 1.755-1.261m6.63-1.001c0 1.287.663 2.236 1.833 2.236 1.118 0 1.807-.975 1.807-2.262s-.676-2.171-1.794-2.171-1.846.91-1.846 2.197m3.653 2.301v-.104c-.299.598-.962 1.118-1.937 1.118-1.833 0-2.964-1.456-2.964-3.315 0-1.768 1.196-3.276 2.964-3.276 1.105 0 1.703.546 1.911 1.053v-4.043h1.209v8.255c0 .598.052 1.053.065 1.157h-1.183a5 5 0 0 1-.065-.845m2.872-.832c0-1.118.819-1.742 1.898-1.898l1.69-.247c.377-.052.481-.247.481-.468 0-.611-.403-1.118-1.352-1.118-.858 0-1.339.533-1.417 1.261l-1.17-.273c.13-1.196 1.209-2.028 2.561-2.028 1.872 0 2.6 1.066 2.6 2.288v3.133c0 .546.052.871.078 1.027h-1.196c-.026-.156-.065-.39-.065-.845-.273.442-.897 1.04-2.015 1.04-1.274 0-2.093-.884-2.093-1.872m2.262.845c1.001 0 1.807-.481 1.807-1.846v-.286l-1.911.286c-.52.078-.91.377-.91.936 0 .468.39.91 1.014.91m6.57-7.397v1.976h1.352v1.105h-1.352v3.25c0 .572.234.858.871.858.156 0 .377-.026.481-.052v1.04a2.7 2.7 0 0 1-.832.117c-1.066 0-1.742-.65-1.742-1.781v-3.432h-1.196v-1.105h.338c.676 0 .962-.416.962-.962v-1.014zm2.594 6.552c0-1.118.819-1.742 1.898-1.898l1.69-.247c.377-.052.481-.247.481-.468 0-.611-.403-1.118-1.352-1.118-.858 0-1.339.533-1.417 1.261l-1.17-.273c.13-1.196 1.209-2.028 2.561-2.028 1.872 0 2.6 1.066 2.6 2.288v3.133c0 .546.052.871.078 1.027h-1.196c-.026-.156-.065-.39-.065-.845-.273.442-.897 1.04-2.015 1.04-1.274 0-2.093-.884-2.093-1.872m2.262.845c1.001 0 1.807-.481 1.807-1.846v-.286l-1.911.286c-.52.078-.91.377-.91.936 0 .468.39.91 1.014.91M662 168.512h1.075v14.976H662z"/><path stroke="#171717" stroke-linecap="round" stroke-linejoin="round" d="M717 180.667v-9.334M712.333 176l4.667-4.667 4.666 4.667"/></g></g><defs><clipPath id="a"><path fill="#fff" d="M0 0h764v219H0z"/></clipPath><clipPath id="b"><rect width="223" height="215.498" x="628.671" y="37.38" fill="#fff" rx="4"/></clipPath><clipPath id="c"><path fill="#fff" d="M635.213 78.324h10v10h-10z"/></clipPath><clipPath id="d"><path fill="#fff" d="M635.213 140.129h10v10h-10z"/></clipPath><clipPath id="e"><path fill="#fff" d="M635.213 171.031h10v10h-10z"/></clipPath><clipPath id="f"><path fill="#fff" d="M635.213 201.933h10v10h-10z"/></clipPath><clipPath id="g"><rect width="223" height="215.498" x="360" y="67.824" fill="#fff" rx="4"/></clipPath><clipPath id="h"><path fill="#fff" d="M366.542 108.769h10v10h-10z"/></clipPath><filter id="i" width="367" height="44" x="378" y="156" color-interpolation-filters="sRGB" filterUnits="userSpaceOnUse"><feFlood flood-opacity="0" result="BackgroundImageFix"/><feColorMatrix in="SourceAlpha" result="hardAlpha" values="0 0 0 0 0 0 0 0 0 0 0 0 0 0 0 0 0 0 127 0"/><feOffset dx="1" dy="2"/><feGaussianBlur stdDeviation="2"/><feComposite in2="hardAlpha" operator="out"/><feColorMatrix values="0 0 0 0 0 0 0 0 0 0 0 0 0 0 0 0 0 0 0.15 0"/><feBlend in2="BackgroundImageFix" result="effect1_dropShadow_895_5167"/><feBlend in="SourceGraphic" in2="effect1_dropShadow_895_5167" result="shape"/></filter></defs></svg>