<svg width="18" height="18" viewBox="0 0 640 640" fill="none" xmlns="http://www.w3.org/2000/svg">
<path fill-rule="evenodd" clip-rule="evenodd" d="M367.703 11.2611C337.673 -3.7537 302.327 -3.7537 272.297 11.2611L58.9639 117.928C22.8269 135.996 0 172.931 0 213.333V426.667C0 467.069 22.8269 504.004 58.9639 522.072L272.297 628.739C302.327 643.754 337.673 643.754 367.703 628.739L581.036 522.072C617.173 504.004 640 467.069 640 426.667V213.333C640 172.931 617.173 135.996 581.036 117.928L367.703 11.2611ZM213.333 213.333C213.333 154.423 261.09 106.667 320 106.667C378.91 106.667 426.667 154.423 426.667 213.333V426.667C426.667 485.577 378.91 533.333 320 533.333C261.09 533.333 213.333 485.577 213.333 426.667V213.333Z" fill="#000"/>
<path d="M373.333 213.333C373.333 242.789 349.455 266.667 320 266.667C290.545 266.667 266.667 242.789 266.667 213.333C266.667 183.878 290.545 160 320 160C349.455 160 373.333 183.878 373.333 213.333Z" fill="#000"/>
</svg>
