<svg width="800" height="800" viewBox="0 0 800 800" fill="none" xmlns="http://www.w3.org/2000/svg">
<rect width="800" height="800" fill="#212121"/>
<path fill-rule="evenodd" clip-rule="evenodd" d="M587.947 527.768C592.201 582.418 592.201 608.036 592.201 636H465.756C465.756 629.909 465.865 624.337 465.975 618.687C466.317 601.123 466.674 582.807 463.828 545.819C460.067 491.667 436.748 479.634 393.871 479.634H355.883H195V381.109H399.889C454.049 381.109 481.13 364.633 481.13 321.011C481.13 282.654 454.049 259.41 399.889 259.41H195V163H422.456C545.069 163 606 220.912 606 313.42C606 382.613 563.123 427.739 505.201 435.26C554.096 445.037 582.681 472.865 587.947 527.768Z" fill="white"/>
<path d="M195 636V562.553H328.697C351.029 562.553 355.878 579.116 355.878 588.994V636H195Z" fill="white"/>
<path d="M194.5 636V636.5H195H355.878H356.378V636V588.994C356.378 583.988 355.152 577.26 351.063 571.77C346.955 566.255 340.004 562.053 328.697 562.053H195H194.5V562.553V636Z" stroke="white" stroke-opacity="0.8"/>
</svg>
