<svg xmlns="http://www.w3.org/2000/svg" width="1992" height="1992" viewBox="0 0 1992 1992"><defs><linearGradient id="a" x1="-52.871%" x2="94.121%" y1="87.265%" y2="87.265%"><stop offset="0%" stop-color="#64AE8A" stop-opacity=".6"/><stop offset="100%" stop-color="#F4FFFA"/></linearGradient></defs><path fill="url(#a)" fill-rule="evenodd" d="M1989.921 491.37c.547 20.046.766 40.06.89 60.083.141 22.845.141 45.699.141 68.542v753.447c0 22.031 0 44.031-.14 66.063-.125 20.03-.344 40.03-.906 60.047-1.157 43.625-3.735 87.64-11.485 130.765-7.875 43.797-20.719 84.563-40.984 124.36-19.89 39.093-45.89 74.843-76.906 105.843a417.318 417.318 0 0 1-105.875 76.938c-39.766 20.234-80.5 33.078-124.282 40.937-43.156 7.766-87.156 10.36-130.797 11.516-20.046.531-40.062.781-60.093.89-21.203.142-42.422.142-63.625.142H615.087c-21.217 0-42.416 0-63.616-.141-20.036-.11-40.076-.36-60.083-.891-43.63-1.156-87.665-3.75-130.803-11.516-43.78-7.86-84.52-20.687-124.289-40.937a417.416 417.416 0 0 1-105.878-76.938c-31.022-31-57.022-66.75-76.91-105.843-20.262-39.797-33.1-80.563-40.973-124.36-7.747-43.125-10.317-87.14-11.49-130.765-.55-20.016-.782-40.032-.913-60.047C0 1418.489 0 1397.489 0 1376.473V615.281c0-21.273 0-42.554.132-63.833.131-20.021.363-40.035.913-60.082 1.173-43.607 3.746-87.608 11.49-130.749 7.872-43.81 20.711-84.547 40.972-124.345 19.89-39.084 45.89-74.85 76.911-105.866a417.625 417.625 0 0 1 105.875-76.908 419.702 419.702 0 0 1 30.04-13.828c30.285-12.52 61.415-21.223 94.243-27.123 32.356-5.83 65.219-8.73 98.031-10.311 10.938-.527 21.87-.91 32.778-1.203C511.391.489 531.432.26 551.468.138 575.235 0 598.999 0 622.791 0h745.365c23.765 0 47.562 0 71.343.134 20.016.124 40.047.352 60.078.894 43.641 1.181 87.641 3.742 130.797 11.516 43.782 7.864 84.516 20.717 124.282 40.954a417.484 417.484 0 0 1 105.875 76.911c31.015 31.016 57.015 66.782 76.906 105.866 20.265 39.798 33.125 80.534 40.984 124.345 7.75 43.14 10.328 87.142 11.5 130.75Zm-412.453 737.438.14.16c171.063 210.49 124.532 436.1 102.641 393.537-89.406-173.97-255.984-129.563-340.328-85.782-6.984 4.172-14.14 8.11-21.344 11.985-.39.234-.812.484-1.25.734-.484.281-.984.563-1.406.844l.14-.203c-175.529 93.265-411.198 100.172-648.187-1.672-198.726-85.406-362.006-231.719-468.022-401.295 53.908 39.798 112.144 74.826 174.091 103.857 250.452 117.297 501.997 108.829 680.016-.114-253.37-194.851-464.853-448.601-627.02-654.26-31.193-36.885-59.57-75.199-83.429-114.987 194.19 177.735 500.938 400.92 611.006 462.691-233.623-246.825-439.48-550.786-429.825-541.053 367.943 370.744 707.424 580.352 707.424 580.352 12.786 7.05 22.306 12.686 29.862 17.65 6.963-17.868 13.263-36.252 18.502-55.407 58.755-214.753-7.375-460.32-156.93-663.064 341.278 204.942 542.95 594.175 460.325 923.399-1.61 6.386-3.453 12.61-5.281 18.832l-1.125 3.796Z" transform="translate(.516 .527)"/></svg>
