<svg xmlns="http://www.w3.org/2000/svg" xmlns:xlink="http://www.w3.org/1999/xlink" viewBox="0,0,256,256" width="96px" height="96px"><g transform="translate(-42.24,-42.24) scale(1.33,1.33)"><g fill="none" fill-rule="nonzero" stroke="none" stroke-width="1" stroke-linecap="butt" stroke-linejoin="miter" stroke-miterlimit="10" stroke-dasharray="" stroke-dashoffset="0" font-family="none" font-weight="none" font-size="none" text-anchor="none" style="mix-blend-mode: normal"><g transform="scale(5.33333,5.33333)"><path d="M6,10c0,-2.209 1.791,-4 4,-4h28c2.209,0 4,1.791 4,4v28c0,2.208 -1.791,4 -4,4h-28c-2.209,0 -4,-1.792 -4,-4z" fill="#ff5034"></path><path d="M6,10v11.967l4,4c0,0 11.153,12.881 20,4.033c8.847,-8.848 -3.981,-19 -3.981,-19l-5.005,-5h-11.014c-2.209,0 -4,1.79 -4,4z" fill="#ff5034"></path><path d="M26.019,11c11.429,7.698 7.732,16.187 7.732,16.187c0,0 3.25,3.634 1.936,6.813c0,0 -1.34,-2.226 -3.588,-2.226c-2.166,0 -3.44,2.226 -7.8,2.226c-9.708,0 -14.299,-8.033 -14.299,-8.033c8.747,5.7 14.719,1.663 14.719,1.663c-3.941,-2.266 -12.719,-13.63 -12.719,-13.63c7.299,6.155 11,8 11,8c-1.882,-1.542 -8,-9 -8,-9c4.224,4.238 13.307,10.378 13.307,10.378c2.384,-6.544 -2.288,-12.378 -2.288,-12.378z" fill="#ffffff"></path></g></g></g></svg>