<svg xmlns="http://www.w3.org/2000/svg" width="331" height="430" fill="none" viewBox="0 0 331 430"><g clip-path="url(#a)"><rect width="219.287" height="62" x="-60.929" y="278" fill="#fff" stroke="#dfdfdf" rx="8"/><rect width="223.933" height="62" x="167.868" y="278" fill="#fff" stroke="#dfdfdf" rx="8"/><rect width="219.287" height="62" x="-60.929" y="205" fill="#fff" stroke="#dfdfdf" rx="8"/><path fill="#707070" d="m-41.29 241-2.59-7.224h1.134l1.036 3.024 1.12 3.262h.056l1.12-3.262 1.036-3.024h1.106l-2.59 7.224zm9.108.168q-.756 0-1.372-.266a3 3 0 0 1-1.036-.756 3.6 3.6 0 0 1-.644-1.19 5.1 5.1 0 0 1-.224-1.568q0-.853.224-1.554.224-.7.644-1.19.435-.504 1.036-.77.615-.266 1.372-.266.756 0 1.358.266.616.266 1.036.77.435.49.658 1.19t.224 1.554q0 .868-.224 1.568-.225.686-.658 1.19-.42.49-1.036.756a3.3 3.3 0 0 1-1.358.266m0-.966q.939 0 1.512-.56t.574-1.736v-1.036q0-1.176-.574-1.736-.573-.56-1.512-.56-.938 0-1.512.56t-.574 1.736v1.036q0 1.176.574 1.736.575.56 1.512.56m5.623 2.646h3.5v-8.12h-3.626v-.952h4.746v8.372q0 .728-.392 1.19-.379.462-1.204.462h-3.024zm4.06-10.668q-.49 0-.686-.196a.73.73 0 0 1-.196-.518v-.224q0-.308.196-.504.195-.21.686-.21.49 0 .686.21.195.197.196.504v.224a.73.73 0 0 1-.196.518q-.197.196-.686.196m7.554 0q-.49 0-.686-.196a.73.73 0 0 1-.196-.518v-.224q0-.308.196-.504.196-.21.686-.21t.686.21q.196.197.196.504v.224a.73.73 0 0 1-.196.518q-.196.196-.686.196m-3.164 7.868h2.604v-5.32h-2.604v-.952h3.724v6.272h2.436V241h-6.16zm7.765.952 2.688-3.668-2.618-3.556h1.344l1.092 1.526.868 1.204h.056l.84-1.204 1.078-1.526h1.288l-2.646 3.542L-3.638 241h-1.344l-1.218-1.694-.826-1.148h-.056l-.798 1.148L-9.056 241zm11.74.168q-.756 0-1.372-.266a3 3 0 0 1-1.036-.756 3.6 3.6 0 0 1-.644-1.19 5.1 5.1 0 0 1-.224-1.568q0-.853.224-1.554.224-.7.644-1.19.435-.504 1.036-.77.616-.266 1.372-.266t1.358.266q.616.266 1.036.77.435.49.658 1.19.225.7.224 1.554 0 .868-.224 1.568-.223.686-.658 1.19-.42.49-1.036.756a3.3 3.3 0 0 1-1.358.266m0-.966q.939 0 1.512-.56t.574-1.736v-1.036q0-1.176-.574-1.736-.573-.56-1.512-.56-.937 0-1.512.56-.573.56-.574 1.736v1.036q0 1.176.574 1.736.575.56 1.512.56m5.385.798v-1.022h2.8v-7.882h-.098l-2.464 2.296-.686-.742 2.59-2.422h1.834v8.75h2.576V241zm11.418.168a3.6 3.6 0 0 1-1.386-.252 3 3 0 0 1-1.05-.742 3.6 3.6 0 0 1-.658-1.19 5.1 5.1 0 0 1-.224-1.568q0-1.092.322-2.044a8.2 8.2 0 0 1 .84-1.75 7.8 7.8 0 0 1 1.148-1.4q.63-.616 1.232-.994h1.512q-.798.574-1.428 1.12-.615.546-1.092 1.148a6.2 6.2 0 0 0-.798 1.274 8 8 0 0 0-.532 1.526l.07.028q.351-.602.924-.994.575-.406 1.484-.406.645 0 1.176.21.533.21.924.602.393.392.602.952.224.56.224 1.246 0 .714-.238 1.316a3 3 0 0 1-.672 1.022q-.42.42-1.036.658-.602.238-1.344.238m-.014-.994q1.008 0 1.554-.546.56-.546.56-1.54v-.112q0-.994-.56-1.54-.546-.546-1.554-.546t-1.568.546q-.546.546-.546 1.54v.112q0 .994.546 1.54.56.546 1.568.546m8.395.994q-.895 0-1.54-.336a2.9 2.9 0 0 1-1.064-.994q-.42-.644-.616-1.582a10.5 10.5 0 0 1-.196-2.142q0-1.19.196-2.128.195-.952.616-1.596.42-.644 1.064-.98.645-.35 1.54-.35t1.54.35q.645.336 1.064.98t.616 1.596q.195.938.196 2.128 0 1.204-.196 2.142-.195.938-.616 1.582-.42.644-1.064.994-.645.336-1.54.336m0-1.022q.588 0 1.008-.224a1.8 1.8 0 0 0 .672-.658q.266-.42.392-1.008.126-.602.126-1.344v-1.596q0-.728-.126-1.33a3.1 3.1 0 0 0-.392-1.022 1.7 1.7 0 0 0-.672-.644q-.42-.238-1.008-.238t-1.008.238a1.8 1.8 0 0 0-.686.644 3.3 3.3 0 0 0-.378 1.022 6.5 6.5 0 0 0-.126 1.33v1.596q0 .743.126 1.344.126.588.378 1.008.266.42.686.658.42.224 1.008.224m0-3.206q-.49 0-.686-.196a.67.67 0 0 1-.182-.476v-.308q0-.28.182-.476.196-.196.686-.196t.672.196q.195.196.196.476v.308a.65.65 0 0 1-.196.476q-.181.196-.672.196m5.384 4.06v-1.022h2.8v-7.882h-.098l-2.464 2.296-.686-.742 2.59-2.422h1.834v8.75h2.576V241zm14.709-6.188a6.2 6.2 0 0 1-.336 2.058 7.8 7.8 0 0 1-.84 1.75 8.5 8.5 0 0 1-1.148 1.4q-.616.602-1.218.98h-1.512a18 18 0 0 0 1.414-1.12q.63-.546 1.106-1.134.475-.602.798-1.274.322-.686.532-1.54l-.07-.028a3.3 3.3 0 0 1-.938 1.008q-.56.392-1.47.392-.645 0-1.19-.21a2.7 2.7 0 0 1-.924-.602 2.9 2.9 0 0 1-.602-.938 3.6 3.6 0 0 1-.21-1.26q0-.714.224-1.302.239-.602.672-1.022.435-.434 1.036-.672.615-.238 1.358-.238.77 0 1.386.266.615.252 1.036.742.435.476.658 1.176.238.7.238 1.568m-3.304 1.526q1.008 0 1.554-.546.56-.546.56-1.54v-.112q0-.994-.56-1.54-.546-.546-1.554-.546t-1.568.546q-.546.546-.546 1.54v.112q0 .994.546 1.54.56.546 1.568.546m8.395 4.83q-.855 0-1.498-.21a3.2 3.2 0 0 1-1.078-.602 2.6 2.6 0 0 1-.645-.896 3 3 0 0 1-.21-1.12q0-1.008.547-1.596.545-.588 1.441-.826v-.112q-.783-.266-1.245-.854-.45-.602-.449-1.442 0-1.12.826-1.778.827-.672 2.31-.672 1.485 0 2.31.672.827.658.827 1.778 0 .84-.462 1.442-.45.588-1.233.854v.112q.896.238 1.443.826.545.588.545 1.596 0 .602-.224 1.12-.21.518-.644.896-.433.378-1.078.602-.63.21-1.483.21m0-.994q1.035 0 1.624-.462.588-.462.587-1.302v-.308q0-.84-.587-1.302-.574-.462-1.624-.462t-1.639.462q-.573.462-.574 1.302v.308q0 .84.588 1.302.589.462 1.624.462m0-4.788q.952 0 1.441-.406.505-.406.505-1.162v-.196q0-.756-.519-1.162-.504-.406-1.428-.406t-1.441.406q-.505.406-.505 1.162v.196q0 .756.49 1.162.505.406 1.456.406m10.55 7.182h-1.722q-1.065 0-1.792-.364a2.8 2.8 0 0 1-1.162-1.078q-.435-.714-.63-1.792-.182-1.078-.182-2.534 0-1.624.21-2.716.224-1.106.644-1.778t1.036-.952q.63-.294 1.456-.294.84 0 1.428.266.602.266.98.728t.546 1.106q.182.63.182 1.358v5.208h-.994v-.798h-.07a1.84 1.84 0 0 1-.462.672q-.322.294-.938.294-.854 0-1.358-.714-.504-.728-.504-2.282t.504-2.282 1.358-.728q.308 0 .532.084.238.084.406.224t.28.308.182.35h.07v-.336q0-1.19-.504-1.876-.49-.686-1.61-.686-1.245 0-1.792.966-.532.953-.532 3.066v1.806q0 .812.112 1.526.112.7.406 1.232.307.518.826.812.532.308 1.372.308h1.722zm-1.106-3.514q.504 0 .798-.28.308-.28.308-.812v-2.142q0-.532-.308-.812-.294-.28-.798-.28-.588 0-.896.406-.294.392-.294 1.33v.854q0 .938.294 1.344.308.392.896.392m10.999 2.772q0 1.092-.91 1.61-.91.532-2.73.532-1.75 0-2.52-.462-.757-.462-.757-1.33 0-.588.308-.91.309-.322.868-.476v-.168a1.25 1.25 0 0 1-.475-.392 1 1 0 0 1-.168-.602q-.001-.56.364-.84a2.6 2.6 0 0 1 .938-.42v-.056a2.35 2.35 0 0 1-1.05-.868q-.365-.575-.365-1.344 0-.546.197-1.008a2.16 2.16 0 0 1 .56-.784q.378-.336.895-.518a3.5 3.5 0 0 1 1.148-.182q.813 0 1.428.294v-.126q0-.42.197-.7.195-.28.671-.28h1.33v.98h-1.623v.49q.391.336.602.798t.21 1.036q0 .546-.21 1.008-.197.462-.56.798a2.6 2.6 0 0 1-.897.504 3.5 3.5 0 0 1-1.148.182 4.4 4.4 0 0 1-.686-.056 2 2 0 0 0-.35.098 1.1 1.1 0 0 0-.336.168.9.9 0 0 0-.252.238.55.55 0 0 0-.097.322q0 .322.322.434.321.098.84.098h1.596q1.4 0 2.03.532.63.518.63 1.4m-1.05.056a.84.84 0 0 0-.35-.7q-.35-.252-1.219-.252h-2.505q-.728.294-.728.98 0 .476.377.812.378.35 1.26.35h1.093q.98 0 1.526-.308.546-.294.545-.882m-2.647-4.158q.84 0 1.233-.392.406-.392.406-1.036v-.406q0-.644-.406-1.022-.392-.392-1.233-.392-.84 0-1.232.392-.391.378-.392 1.022v.406q0 .644.392 1.036t1.232.392M73.503 241v-7.224h1.036v.84h.056q.167-.42.476-.714t.91-.294q.63 0 .938.322.307.308.378.812h.042q.195-.49.56-.812.364-.322 1.008-.322.882 0 1.176.616.308.617.308 1.764V241h-1.036v-4.83q0-.924-.196-1.274-.182-.364-.686-.364a.96.96 0 0 0-.728.294q-.28.28-.28.868V241H76.43v-4.83q0-.924-.196-1.274-.181-.364-.672-.364-.448 0-.742.294-.28.28-.28.868V241zm14.569 0q-.66 0-.938-.336a1.63 1.63 0 0 1-.35-.84h-.07a2.05 2.05 0 0 1-.77.994q-.518.35-1.4.35-1.134 0-1.806-.588t-.672-1.61q0-1.008.728-1.554.742-.546 2.38-.546h1.54v-.714q0-.798-.448-1.19-.45-.406-1.274-.406-.729 0-1.19.294a2.1 2.1 0 0 0-.742.77l-.756-.56a2.5 2.5 0 0 1 .378-.546 2.3 2.3 0 0 1 .588-.462q.35-.21.798-.322.447-.126.994-.126 1.273 0 2.016.644.756.644.756 1.792v3.976h1.008v.98zm-3.332-.77q.433 0 .784-.098a2.6 2.6 0 0 0 .63-.28q.265-.181.406-.42.154-.252.154-.532v-1.19h-1.54q-1.008 0-1.47.28a.9.9 0 0 0-.462.812v.294q0 .56.392.854.405.28 1.106.28m9.444-8.05q-.49 0-.686-.196a.73.73 0 0 1-.196-.518v-.224q0-.308.196-.504.196-.21.686-.21t.686.21q.195.197.196.504v.224a.73.73 0 0 1-.196.518q-.196.196-.686.196m-3.164 7.868h2.604v-5.32H91.02v-.952h3.724v6.272h2.436V241h-6.16zm8.03 0h2.521v-8.456h-2.52v-.952h3.64v9.408h2.52V241h-6.16zm11.475 1.078q-.573 0-.812-.238a.85.85 0 0 1-.224-.602v-.252q0-.364.224-.602.239-.238.812-.238.575 0 .798.238a.82.82 0 0 1 .238.602v.252a.82.82 0 0 1-.238.602q-.224.238-.798.238m8.647.042q-.785 0-1.4-.266a3 3 0 0 1-1.022-.77 3.4 3.4 0 0 1-.644-1.19 5.4 5.4 0 0 1-.21-1.554q0-.853.224-1.554.224-.7.644-1.19.42-.504 1.022-.77a3.4 3.4 0 0 1 1.372-.266q1.05 0 1.708.462t.966 1.204l-.896.476a1.68 1.68 0 0 0-.658-.868q-.448-.308-1.12-.308-.49 0-.882.168a1.74 1.74 0 0 0-.644.448 2 2 0 0 0-.406.7 3 3 0 0 0-.126.882v1.232q0 .475.126.882.14.406.406.7.265.294.658.462.392.154.896.154.727 0 1.204-.336.475-.336.756-.924l.798.546a2.86 2.86 0 0 1-1.008 1.204q-.672.476-1.764.476m8.142 0q-.756 0-1.372-.266a3 3 0 0 1-1.036-.756 3.6 3.6 0 0 1-.644-1.19 5.1 5.1 0 0 1-.224-1.568q0-.853.224-1.554.225-.7.644-1.19.435-.504 1.036-.77a3.4 3.4 0 0 1 1.372-.266q.756 0 1.358.266.616.266 1.036.77.435.49.658 1.19t.224 1.554a5.1 5.1 0 0 1-.224 1.568 3.4 3.4 0 0 1-.658 1.19 2.8 2.8 0 0 1-1.036.756 3.3 3.3 0 0 1-1.358.266m0-.966q.939 0 1.512-.56t.574-1.736v-1.036q0-1.176-.574-1.736-.573-.56-1.512-.56-.937 0-1.512.56-.574.56-.574 1.736v1.036q0 1.176.574 1.736t1.512.56m4.951.798v-7.224h1.036v.84h.056q.167-.42.476-.714.307-.294.91-.294.63 0 .938.322.308.308.378.812h.042a2.1 2.1 0 0 1 .56-.812q.363-.322 1.008-.322.882 0 1.176.616.308.617.308 1.764V241h-1.036v-4.83q0-.924-.196-1.274-.183-.364-.686-.364-.449 0-.728.294-.28.28-.28.868V241h-1.036v-4.83q0-.924-.196-1.274-.183-.364-.672-.364-.448 0-.742.294-.28.28-.28.868V241z"/><rect width="219.287" height="62" x="-60.929" y="351" fill="#fff" stroke="#dfdfdf" rx="8"/><path fill="#707070" d="m-30.093 387-2.59-7.224h1.134l1.036 3.024 1.12 3.262h.056l1.12-3.262 1.036-3.024h1.106l-2.59 7.224zm9.108.168q-.755 0-1.372-.266a3 3 0 0 1-1.036-.756 3.6 3.6 0 0 1-.644-1.19 5.1 5.1 0 0 1-.224-1.568q0-.853.224-1.554.224-.7.644-1.19.435-.504 1.036-.77.616-.266 1.372-.266t1.358.266q.616.266 1.036.77.436.49.658 1.19.224.7.224 1.554 0 .868-.224 1.568-.223.686-.658 1.19-.42.49-1.036.756a3.3 3.3 0 0 1-1.358.266m0-.966q.939 0 1.512-.56t.574-1.736v-1.036q.001-1.176-.574-1.736-.573-.56-1.512-.56-.937 0-1.512.56-.574.56-.574 1.736v1.036q0 1.176.574 1.736.575.56 1.512.56m5.623 2.646h3.5v-8.12h-3.626v-.952h4.746v8.372q0 .728-.392 1.19-.378.462-1.204.462h-3.024zm4.06-10.668q-.49 0-.686-.196a.73.73 0 0 1-.196-.518v-.224q0-.308.196-.504.196-.21.686-.21t.686.21q.196.196.196.504v.224a.73.73 0 0 1-.196.518q-.196.196-.686.196m7.554 0q-.49 0-.686-.196a.73.73 0 0 1-.196-.518v-.224q0-.308.196-.504.197-.21.686-.21t.686.21q.196.196.196.504v.224a.73.73 0 0 1-.196.518q-.195.196-.686.196m-3.164 7.868h2.604v-5.32h-2.604v-.952h3.724v6.272h2.436V387h-6.16zM.853 387l2.688-3.668-2.618-3.556h1.344l1.092 1.526.868 1.204h.056l.84-1.204 1.078-1.526h1.288l-2.646 3.542L7.559 387H6.215l-1.218-1.694-.826-1.148h-.056l-.798 1.148L2.141 387zm15.059 0H9.388v-1.204l3.262-2.94a7.5 7.5 0 0 0 1.176-1.316q.462-.686.462-1.442v-.168q0-.882-.462-1.358-.463-.49-1.372-.49-.897 0-1.386.462-.477.448-.714 1.204l-1.05-.392q.14-.434.378-.84.252-.42.63-.742t.91-.518a3.7 3.7 0 0 1 1.26-.196q.727 0 1.288.21.573.21.952.588.39.378.588.896.21.517.21 1.134 0 .56-.168 1.05a3.8 3.8 0 0 1-.448.938 5.8 5.8 0 0 1-.686.882q-.393.42-.882.84l-2.73 2.38h5.306zm4.656-5.628q1.022 0 1.526-.448.518-.462.518-1.176v-.098q0-.784-.504-1.176-.49-.392-1.288-.392-.784 0-1.274.35a2.6 2.6 0 0 0-.784.896l-.882-.672q.181-.294.448-.574.266-.294.616-.518.364-.224.826-.364.476-.14 1.078-.14.63 0 1.176.168.546.154.952.476.405.308.63.77.238.462.238 1.05 0 .476-.154.854a1.9 1.9 0 0 1-.406.658 2.3 2.3 0 0 1-.602.476q-.35.196-.742.294v.056q.406.084.784.28.378.182.672.49.294.294.462.728.182.42.182.966 0 .63-.252 1.162a2.6 2.6 0 0 1-.686.896q-.434.364-1.064.574-.616.21-1.372.21a4.3 4.3 0 0 1-1.148-.14 3.6 3.6 0 0 1-.882-.378 4 4 0 0 1-.672-.532 5 5 0 0 1-.504-.616l.882-.672q.195.294.406.532.21.238.476.42.28.168.63.266t.812.098q1.035 0 1.582-.476.56-.476.56-1.358v-.112q0-.869-.546-1.344-.532-.476-1.61-.476H19.49v-1.008zM30.475 387v-1.918h-4.816v-1.036l4.228-6.818h1.708v6.888h1.456v.966h-1.456V387zm-3.766-2.884h3.766v-5.978h-.056zm13.882-5.866h-4.368l-.28 3.738h.098q.365-.49.812-.77.449-.294 1.232-.294.645 0 1.176.21.546.197.938.588.393.392.616.952.224.546.224 1.26t-.224 1.316a2.9 2.9 0 0 1-.658 1.022q-.435.42-1.05.658t-1.4.238q-.616 0-1.106-.14a3.4 3.4 0 0 1-.854-.378 3.6 3.6 0 0 1-.644-.532 5 5 0 0 1-.504-.616l.882-.672q.195.294.392.532.21.238.476.42.267.168.602.266.337.098.784.098 1.008 0 1.54-.546.546-.546.546-1.512v-.112q0-.966-.546-1.512t-1.568-.546q-.7 0-1.092.238a3.5 3.5 0 0 0-.7.588l-.994-.14.35-5.376h5.32zm5.595 8.918a3.6 3.6 0 0 1-1.386-.252 3 3 0 0 1-1.05-.742 3.6 3.6 0 0 1-.658-1.19 5.1 5.1 0 0 1-.224-1.568q0-1.092.322-2.044a8.2 8.2 0 0 1 .84-1.75 7.8 7.8 0 0 1 1.148-1.4q.63-.616 1.232-.994h1.512q-.798.574-1.428 1.12-.617.546-1.092 1.148a6.2 6.2 0 0 0-.798 1.274 8 8 0 0 0-.532 1.526l.07.028q.35-.602.924-.994.573-.406 1.484-.406.644 0 1.176.21t.924.602.602.952q.224.56.224 1.246 0 .714-.238 1.316a3 3 0 0 1-.672 1.022q-.42.42-1.036.658-.603.238-1.344.238m-.014-.994q1.008 0 1.554-.546.56-.546.56-1.54v-.112q0-.994-.56-1.54-.546-.546-1.554-.546t-1.568.546q-.546.546-.546 1.54v.112q0 .994.546 1.54.56.546 1.568.546m6.616.826 3.822-8.764h-4.284v1.82h-1.05v-2.828H57.8v1.036L54.048 387zm12.329 1.568h-1.722q-1.065 0-1.792-.364a2.8 2.8 0 0 1-1.162-1.078q-.435-.714-.63-1.792-.182-1.078-.182-2.534 0-1.624.21-2.716.225-1.106.644-1.778t1.036-.952q.63-.294 1.456-.294.84 0 1.428.266.602.266.98.728t.546 1.106q.182.63.182 1.358v5.208h-.994v-.798h-.07a1.84 1.84 0 0 1-.462.672q-.323.294-.938.294-.855 0-1.358-.714-.504-.728-.504-2.282t.504-2.282 1.358-.728q.307 0 .532.084.237.084.406.224.168.14.28.308.111.168.182.35h.07v-.336q0-1.19-.504-1.876-.49-.686-1.61-.686-1.245 0-1.792.966-.532.952-.532 3.066v1.806q0 .812.112 1.526.112.7.406 1.232.307.518.826.812.531.308 1.372.308h1.722zm-1.106-3.514q.504 0 .798-.28.308-.28.308-.812v-2.142q0-.532-.308-.812-.294-.28-.798-.28-.587 0-.896.406-.294.392-.294 1.33v.854q0 .937.294 1.344.308.392.896.392m10.998 2.772q0 1.092-.91 1.61-.909.532-2.73.532-1.749 0-2.52-.462-.756-.462-.756-1.33 0-.588.308-.91.309-.322.868-.476v-.168a1.25 1.25 0 0 1-.476-.392 1 1 0 0 1-.168-.602q0-.56.364-.84.378-.28.938-.42v-.056a2.35 2.35 0 0 1-1.05-.868q-.364-.575-.364-1.344 0-.546.196-1.008t.56-.784q.377-.336.896-.518a3.5 3.5 0 0 1 1.148-.182q.813 0 1.428.294v-.126q0-.42.196-.7t.672-.28h1.33v.98h-1.624v.49q.393.336.602.798.21.462.21 1.036 0 .546-.21 1.008-.195.462-.56.798a2.6 2.6 0 0 1-.896.504 3.5 3.5 0 0 1-1.148.182 4.4 4.4 0 0 1-.686-.056 2 2 0 0 0-.35.098 1.1 1.1 0 0 0-.336.168.9.9 0 0 0-.252.238.55.55 0 0 0-.098.322q0 .322.322.434.323.098.84.098h1.596q1.4 0 2.03.532.63.518.63 1.4m-1.05.056a.84.84 0 0 0-.35-.7q-.35-.252-1.218-.252h-2.506q-.728.294-.728.98 0 .476.378.812.378.35 1.26.35h1.092q.98 0 1.526-.308.546-.294.546-.882m-2.646-4.158q.84 0 1.232-.392.406-.392.406-1.036v-.406q0-.644-.406-1.022-.392-.392-1.232-.392t-1.232.392q-.392.378-.392 1.022v.406q0 .644.392 1.036t1.232.392M76.306 387v-7.224h1.036v.84h.056q.167-.42.476-.714.307-.294.91-.294.63 0 .938.322.308.308.378.812h.042a2.1 2.1 0 0 1 .56-.812q.365-.322 1.008-.322.882 0 1.176.616.308.617.308 1.764V387h-1.036v-4.83q0-.924-.196-1.274-.182-.364-.686-.364a.96.96 0 0 0-.728.294q-.28.28-.28.868V387h-1.036v-4.83q0-.924-.196-1.274-.182-.364-.672-.364-.448 0-.742.294-.28.28-.28.868V387zm14.568 0q-.657 0-.938-.336a1.63 1.63 0 0 1-.35-.84h-.07a2.05 2.05 0 0 1-.77.994q-.518.35-1.4.35-1.134 0-1.806-.588t-.672-1.61q0-1.008.728-1.554.742-.546 2.38-.546h1.54v-.714q0-.798-.448-1.19-.447-.406-1.274-.406-.728 0-1.19.294a2.1 2.1 0 0 0-.742.77l-.756-.56q.141-.28.378-.546a2.3 2.3 0 0 1 .588-.462q.351-.21.798-.322.448-.126.994-.126 1.275 0 2.016.644.756.644.756 1.792v3.976h1.008v.98zm-3.332-.77q.435 0 .784-.098a2.6 2.6 0 0 0 .63-.28q.267-.182.406-.42.154-.252.154-.532v-1.19h-1.54q-1.008 0-1.47.28a.9.9 0 0 0-.462.812v.294q0 .56.392.854.407.28 1.106.28m9.445-8.05q-.49 0-.686-.196a.73.73 0 0 1-.196-.518v-.224q0-.308.196-.504.196-.21.686-.21t.686.21q.195.196.196.504v.224a.73.73 0 0 1-.196.518q-.196.196-.686.196m-3.164 7.868h2.604v-5.32h-2.604v-.952h3.724v6.272h2.436V387h-6.16zm8.03 0h2.52v-8.456h-2.52v-.952h3.64v9.408h2.52V387h-6.16zm11.475 1.078q-.574 0-.812-.238a.85.85 0 0 1-.224-.602v-.252q0-.364.224-.602.238-.238.812-.238t.798.238a.82.82 0 0 1 .238.602v.252a.82.82 0 0 1-.238.602q-.224.238-.798.238m8.646.042a3.5 3.5 0 0 1-1.4-.266 3 3 0 0 1-1.022-.77 3.4 3.4 0 0 1-.644-1.19 5.4 5.4 0 0 1-.21-1.554q0-.853.224-1.554.225-.7.644-1.19a2.8 2.8 0 0 1 1.022-.77 3.4 3.4 0 0 1 1.372-.266q1.05 0 1.708.462.659.462.966 1.204l-.896.476a1.67 1.67 0 0 0-.658-.868q-.447-.308-1.12-.308-.489 0-.882.168a1.75 1.75 0 0 0-.644.448 2 2 0 0 0-.406.7 3 3 0 0 0-.126.882v1.232q0 .476.126.882.14.406.406.7.267.294.658.462.393.154.896.154.729 0 1.204-.336.477-.336.756-.924l.798.546q-.321.728-1.008 1.204-.672.476-1.764.476m8.143 0q-.756 0-1.372-.266a3 3 0 0 1-1.036-.756 3.6 3.6 0 0 1-.644-1.19 5.1 5.1 0 0 1-.224-1.568q0-.853.224-1.554.224-.7.644-1.19a2.9 2.9 0 0 1 1.036-.77 3.4 3.4 0 0 1 1.372-.266q.756 0 1.358.266.616.266 1.036.77.434.49.658 1.19t.224 1.554q0 .868-.224 1.568a3.4 3.4 0 0 1-.658 1.19 2.8 2.8 0 0 1-1.036.756 3.3 3.3 0 0 1-1.358.266m0-.966q.938 0 1.512-.56t.574-1.736v-1.036q0-1.176-.574-1.736-.575-.56-1.512-.56t-1.512.56-.574 1.736v1.036q0 1.176.574 1.736.575.56 1.512.56m4.951.798v-7.224h1.036v.84h.056q.167-.42.476-.714.307-.294.91-.294.63 0 .938.322.308.308.378.812h.042a2.1 2.1 0 0 1 .56-.812q.363-.322 1.008-.322.882 0 1.176.616.308.617.308 1.764V387h-1.036v-4.83q0-.924-.196-1.274-.183-.364-.686-.364-.449 0-.728.294-.28.28-.28.868V387h-1.036v-4.83q0-.924-.196-1.274-.183-.364-.672-.364-.448 0-.742.294-.28.28-.28.868V387z"/><rect width="223.933" height="62" x="167.868" y="205" fill="#fff" stroke="#dfdfdf" rx="8"/><path fill="#707070" d="M239.022 241q-.659 0-.938-.336a1.6 1.6 0 0 1-.35-.84h-.07q-.239.63-.77.994-.519.35-1.4.35-1.134 0-1.806-.588t-.672-1.61q0-1.008.728-1.554.741-.546 2.38-.546h1.54v-.714q0-.798-.448-1.19-.449-.406-1.274-.406-.728 0-1.19.294a2.1 2.1 0 0 0-.742.77l-.756-.56a2.5 2.5 0 0 1 .378-.546q.237-.266.588-.462.35-.21.798-.322.447-.126.994-.126 1.273 0 2.016.644.756.644.756 1.792v3.976h1.008v.98zm-3.332-.77q.433 0 .784-.098.363-.112.63-.28.265-.181.406-.42a1 1 0 0 0 .154-.532v-1.19h-1.54q-1.008 0-1.47.28a.9.9 0 0 0-.462.812v.294q0 .56.392.854.405.28 1.106.28m5.916-.182h2.52v-8.456h-2.52v-.952h3.64v9.408h2.52V241h-6.16zm11.601 1.12q-.784 0-1.414-.266a3.1 3.1 0 0 1-1.064-.756 3.6 3.6 0 0 1-.672-1.19 4.8 4.8 0 0 1-.238-1.554q0-.868.238-1.568.252-.7.686-1.19a2.9 2.9 0 0 1 1.036-.77 3.4 3.4 0 0 1 1.358-.266q.728 0 1.316.266.602.266 1.022.742.42.462.644 1.106t.224 1.414v.532h-5.348v.336q0 .475.154.882.154.406.434.7.294.294.7.462.42.154.924.154.728 0 1.26-.336t.812-.924l.826.56q-.322.728-1.078 1.204-.742.462-1.82.462m-.07-6.636a2.14 2.14 0 0 0-1.54.63 2.2 2.2 0 0 0-.448.7 2.4 2.4 0 0 0-.154.868v.098h4.144v-.154q0-.476-.154-.868a1.9 1.9 0 0 0-.406-.672 1.6 1.6 0 0 0-.63-.448 2.1 2.1 0 0 0-.812-.154m4.992 6.468 2.688-3.668-2.618-3.556h1.344l1.092 1.526.868 1.204h.056l.84-1.204 1.078-1.526h1.288l-2.646 3.542 2.716 3.682h-1.344l-1.218-1.694-.826-1.148h-.056l-.798 1.148-1.176 1.694zm8.731 0v-1.022h2.8v-7.882h-.098l-2.464 2.296-.686-.742 2.59-2.422h1.834v8.75h2.576V241zm11.418.168q-.77 0-1.386-.252a3 3 0 0 1-1.05-.742 3.6 3.6 0 0 1-.658-1.19 5.1 5.1 0 0 1-.224-1.568q0-1.092.322-2.044a8.2 8.2 0 0 1 .84-1.75 7.8 7.8 0 0 1 1.148-1.4 7.5 7.5 0 0 1 1.232-.994h1.512q-.798.574-1.428 1.12-.615.546-1.092 1.148a6.3 6.3 0 0 0-.798 1.274 8 8 0 0 0-.532 1.526l.07.028q.351-.602.924-.994.575-.406 1.484-.406.645 0 1.176.21.533.21.924.602.392.392.602.952.224.56.224 1.246 0 .714-.238 1.316a3 3 0 0 1-.672 1.022q-.42.42-1.036.658a3.6 3.6 0 0 1-1.344.238m-.014-.994q1.008 0 1.554-.546.56-.546.56-1.54v-.112q0-.994-.56-1.54-.546-.546-1.554-.546t-1.568.546q-.546.546-.546 1.54v.112q0 .994.546 1.54.56.546 1.568.546m8.395.994q-.896 0-1.54-.336a2.9 2.9 0 0 1-1.064-.994q-.42-.644-.616-1.582a10.5 10.5 0 0 1-.196-2.142q0-1.19.196-2.128.196-.952.616-1.596t1.064-.98q.644-.35 1.54-.35t1.54.35q.644.336 1.064.98t.616 1.596q.196.938.196 2.128 0 1.204-.196 2.142t-.616 1.582a2.9 2.9 0 0 1-1.064.994q-.644.336-1.54.336m0-1.022q.588 0 1.008-.224a1.8 1.8 0 0 0 .672-.658 3.1 3.1 0 0 0 .392-1.008q.126-.602.126-1.344v-1.596q0-.728-.126-1.33a3.1 3.1 0 0 0-.392-1.022 1.7 1.7 0 0 0-.672-.644q-.42-.238-1.008-.238t-1.008.238q-.42.224-.686.644a3.3 3.3 0 0 0-.378 1.022 6.5 6.5 0 0 0-.126 1.33v1.596q0 .743.126 1.344.126.588.378 1.008.266.42.686.658.42.224 1.008.224m0-3.206q-.49 0-.686-.196a.68.68 0 0 1-.182-.476v-.308q0-.28.182-.476.196-.196.686-.196t.672.196a.65.65 0 0 1 .196.476v.308a.65.65 0 0 1-.196.476q-.182.196-.672.196m5.385 4.06v-1.022h2.8v-7.882h-.098l-2.464 2.296-.686-.742 2.59-2.422h1.834v8.75h2.576V241zm14.708-6.188a6.2 6.2 0 0 1-.336 2.058 7.8 7.8 0 0 1-.84 1.75 8.5 8.5 0 0 1-1.148 1.4 7.4 7.4 0 0 1-1.218.98h-1.512a18 18 0 0 0 1.414-1.12q.63-.546 1.106-1.134.476-.602.798-1.274.322-.686.532-1.54l-.07-.028a3.3 3.3 0 0 1-.938 1.008q-.56.392-1.47.392a3.3 3.3 0 0 1-1.19-.21 2.7 2.7 0 0 1-.924-.602 2.9 2.9 0 0 1-.602-.938 3.6 3.6 0 0 1-.21-1.26q0-.714.224-1.302a2.9 2.9 0 0 1 .672-1.022 3 3 0 0 1 1.036-.672 3.7 3.7 0 0 1 1.358-.238q.77 0 1.386.266.616.252 1.036.742.434.476.658 1.176.238.7.238 1.568m-3.304 1.526q1.008 0 1.554-.546.56-.546.56-1.54v-.112q0-.994-.56-1.54-.546-.546-1.554-.546t-1.568.546q-.546.546-.546 1.54v.112q0 .994.546 1.54.56.546 1.568.546m8.395 4.83q-.855 0-1.498-.21a3.2 3.2 0 0 1-1.078-.602 2.56 2.56 0 0 1-.644-.896 3 3 0 0 1-.21-1.12q0-1.008.546-1.596t1.442-.826v-.112q-.784-.266-1.246-.854-.448-.602-.448-1.442 0-1.12.826-1.778.825-.672 2.31-.672 1.483 0 2.31.672.826.658.826 1.778 0 .84-.462 1.442-.449.588-1.232.854v.112q.896.238 1.442.826t.546 1.596q0 .602-.224 1.12-.21.518-.644.896t-1.078.602q-.63.21-1.484.21m0-.994q1.036 0 1.624-.462t.588-1.302v-.308q0-.84-.588-1.302-.574-.462-1.624-.462t-1.638.462q-.574.462-.574 1.302v.308q0 .84.588 1.302t1.624.462m0-4.788q.951 0 1.442-.406.504-.406.504-1.162v-.196q0-.756-.518-1.162-.504-.406-1.428-.406t-1.442.406q-.504.406-.504 1.162v.196q0 .756.49 1.162.504.406 1.456.406"/><rect width="223.933" height="62" x="167.868" y="351" fill="#fff" stroke="#dfdfdf" rx="8"/><path fill="#707070" d="M220.256 386.691v-7.224h1.036v.84h.056q.168-.42.476-.714t.91-.294q.63 0 .938.322.308.308.378.812h.042q.196-.49.56-.812t1.008-.322q.882 0 1.176.616.308.617.308 1.764v5.012h-1.036v-4.83q0-.923-.196-1.274-.182-.363-.686-.364a.96.96 0 0 0-.728.294q-.28.28-.28.868v5.306h-1.036v-4.83q0-.923-.196-1.274-.181-.363-.672-.364-.448 0-.742.294-.28.28-.28.868v5.306zm11.965.168a3.6 3.6 0 0 1-1.414-.266 3.1 3.1 0 0 1-1.064-.756 3.6 3.6 0 0 1-.672-1.19 4.8 4.8 0 0 1-.238-1.554q0-.867.238-1.568a3.6 3.6 0 0 1 .686-1.19 2.9 2.9 0 0 1 1.036-.77q.615-.266 1.358-.266.728 0 1.316.266a2.9 2.9 0 0 1 1.022.742q.42.462.644 1.106t.224 1.414v.532h-5.348v.336q0 .477.154.882.153.406.434.7.294.294.7.462.42.154.924.154.728 0 1.26-.336.531-.336.812-.924l.826.56q-.322.729-1.078 1.204-.743.462-1.82.462m-.07-6.636a2.14 2.14 0 0 0-1.54.63q-.28.295-.448.7a2.4 2.4 0 0 0-.154.868v.098h4.144v-.154q0-.475-.154-.868a1.9 1.9 0 0 0-.406-.672 1.6 1.6 0 0 0-.63-.448 2.1 2.1 0 0 0-.812-.154m4.894 6.468v-7.224h1.036v.84h.056q.168-.42.476-.714t.91-.294q.63 0 .938.322.308.308.378.812h.042q.196-.49.56-.812t1.008-.322q.882 0 1.176.616.308.617.308 1.764v5.012h-1.036v-4.83q0-.923-.196-1.274-.182-.363-.686-.364a.96.96 0 0 0-.728.294q-.28.28-.28.868v5.306h-1.036v-4.83q0-.923-.196-1.274-.181-.363-.672-.364-.448 0-.742.294-.28.28-.28.868v5.306zm11.965.168a3.6 3.6 0 0 1-1.414-.266 3.1 3.1 0 0 1-1.064-.756 3.6 3.6 0 0 1-.672-1.19 4.8 4.8 0 0 1-.238-1.554q0-.867.238-1.568a3.6 3.6 0 0 1 .686-1.19 2.9 2.9 0 0 1 1.036-.77q.615-.266 1.358-.266.728 0 1.316.266a2.9 2.9 0 0 1 1.022.742q.42.462.644 1.106t.224 1.414v.532h-5.348v.336q0 .477.154.882.153.406.434.7.294.294.7.462.42.154.924.154.728 0 1.26-.336.531-.336.812-.924l.826.56q-.322.729-1.078 1.204-.743.462-1.82.462m-.07-6.636a2.14 2.14 0 0 0-1.54.63q-.28.295-.448.7a2.4 2.4 0 0 0-.154.868v.098h4.144v-.154q0-.475-.154-.868a1.9 1.9 0 0 0-.406-.672 1.6 1.6 0 0 0-.63-.448 2.1 2.1 0 0 0-.812-.154m4.894 6.468v-7.224h1.036v.84h.056q.168-.42.476-.714t.91-.294q.63 0 .938.322.308.308.378.812h.042q.196-.49.56-.812t1.008-.322q.882 0 1.176.616.308.617.308 1.764v5.012h-1.036v-4.83q0-.923-.196-1.274-.182-.363-.686-.364a.96.96 0 0 0-.728.294q-.28.28-.28.868v5.306h-1.036v-4.83q0-.923-.196-1.274-.182-.363-.672-.364-.448 0-.742.294-.28.28-.28.868v5.306zm14.569 0q-.659 0-.938-.336a1.6 1.6 0 0 1-.35-.84h-.07q-.239.63-.77.994-.519.35-1.4.35-1.134 0-1.806-.588-.672-.587-.672-1.61 0-1.008.728-1.554.742-.546 2.38-.546h1.54v-.714q0-.797-.448-1.19-.449-.405-1.274-.406-.729 0-1.19.294a2.1 2.1 0 0 0-.742.77l-.756-.56q.14-.279.378-.546.237-.266.588-.462.35-.21.798-.322.447-.126.994-.126 1.273 0 2.016.644.756.645.756 1.792v3.976h1.008v.98zm-3.332-.77q.433 0 .784-.098.363-.112.63-.28.265-.182.406-.42a1 1 0 0 0 .154-.532v-1.19h-1.54q-1.008 0-1.47.28a.9.9 0 0 0-.462.812v.294q0 .56.392.854.405.28 1.106.28m9.08.938q-1.134 0-1.96-.378a4.4 4.4 0 0 1-1.386-1.036l.756-.658q.519.546 1.134.84.617.294 1.484.294.84 0 1.372-.294.546-.307.546-.952a.87.87 0 0 0-.112-.462.74.74 0 0 0-.28-.308 1.5 1.5 0 0 0-.406-.168 4 4 0 0 0-.476-.112l-1.134-.168a12 12 0 0 1-.826-.154 2.8 2.8 0 0 1-.798-.308 2.05 2.05 0 0 1-.616-.588q-.238-.363-.238-.952 0-.545.21-.938.225-.405.616-.672.393-.28.924-.406.532-.14 1.162-.14.98 0 1.694.308.729.309 1.246.854l-.728.686a2 2 0 0 0-.322-.308 1.7 1.7 0 0 0-.462-.294 2.6 2.6 0 0 0-.63-.224 3.8 3.8 0 0 0-.84-.084q-.854 0-1.316.294-.447.294-.448.854 0 .28.098.476a.9.9 0 0 0 .294.294q.183.113.406.182.239.057.476.098l1.134.168q.393.057.826.154.435.099.798.322.365.21.602.574.252.364.252.952 0 1.078-.84 1.666-.826.588-2.212.588m8.661-.168q-.827 0-1.218-.462-.378-.462-.378-1.19v-4.62h-2.408v-.952h1.792q.363 0 .504-.14.153-.153.154-.518v-1.89h1.078v2.548h3.29v.952h-3.29v5.32h3.29v.952zm8.17.168q-.784 0-1.414-.266a3.1 3.1 0 0 1-1.064-.756 3.6 3.6 0 0 1-.672-1.19 4.8 4.8 0 0 1-.238-1.554q0-.867.238-1.568.252-.7.686-1.19.435-.504 1.036-.77a3.4 3.4 0 0 1 1.358-.266q.728 0 1.316.266.603.267 1.022.742.42.462.644 1.106t.224 1.414v.532h-5.348v.336q0 .477.154.882.155.406.434.7.295.294.7.462.42.154.924.154.729 0 1.26-.336.533-.336.812-.924l.826.56q-.322.729-1.078 1.204-.741.462-1.82.462m-.07-6.636a2.15 2.15 0 0 0-1.54.63 2.3 2.3 0 0 0-.448.7 2.4 2.4 0 0 0-.154.868v.098h4.144v-.154q0-.475-.154-.868a1.9 1.9 0 0 0-.406-.672 1.6 1.6 0 0 0-.63-.448 2.1 2.1 0 0 0-.812-.154m5.217 5.516h2.114v-5.32h-2.114v-.952h3.234v1.82h.07q.223-.853.84-1.33.63-.49 1.596-.49h1.008v1.12h-1.358q-.966 0-1.568.56-.588.561-.588 1.47v3.122h2.8v.952h-6.034zm11.516 1.12q-.895 0-1.54-.336a2.9 2.9 0 0 1-1.064-.994q-.42-.643-.616-1.582a10.6 10.6 0 0 1-.196-2.142q0-1.19.196-2.128.196-.951.616-1.596.42-.644 1.064-.98.645-.35 1.54-.35.897 0 1.54.35.644.336 1.064.98.42.645.616 1.596.196.939.196 2.128 0 1.204-.196 2.142-.196.939-.616 1.582-.42.645-1.064.994-.643.336-1.54.336m0-1.022q.588 0 1.008-.224.42-.238.672-.658.267-.42.392-1.008.126-.601.126-1.344v-1.596q0-.727-.126-1.33a3.1 3.1 0 0 0-.392-1.022 1.7 1.7 0 0 0-.672-.644q-.42-.238-1.008-.238t-1.008.238q-.42.224-.686.644a3.3 3.3 0 0 0-.378 1.022 6.5 6.5 0 0 0-.126 1.33v1.596q0 .743.126 1.344.126.588.378 1.008.267.42.686.658.42.224 1.008.224m0-3.206q-.49 0-.686-.196a.67.67 0 0 1-.182-.476v-.308q0-.28.182-.476.197-.196.686-.196t.672.196q.196.197.196.476v.308a.65.65 0 0 1-.196.476q-.182.196-.672.196m8.395 4.228q-.896 0-1.54-.336a2.9 2.9 0 0 1-1.064-.994q-.42-.643-.616-1.582a10.5 10.5 0 0 1-.196-2.142q0-1.19.196-2.128.196-.951.616-1.596.42-.644 1.064-.98.644-.35 1.54-.35t1.54.35q.644.336 1.064.98.42.645.616 1.596.196.939.196 2.128 0 1.204-.196 2.142-.196.939-.616 1.582-.42.645-1.064.994-.644.336-1.54.336m0-1.022q.588 0 1.008-.224.42-.238.672-.658a3.1 3.1 0 0 0 .392-1.008q.126-.601.126-1.344v-1.596q0-.727-.126-1.33a3.1 3.1 0 0 0-.392-1.022 1.7 1.7 0 0 0-.672-.644q-.42-.238-1.008-.238t-1.008.238q-.42.224-.686.644a3.3 3.3 0 0 0-.378 1.022 6.5 6.5 0 0 0-.126 1.33v1.596q0 .743.126 1.344.126.588.378 1.008.266.42.686.658.42.224 1.008.224m0-3.206q-.49 0-.686-.196a.67.67 0 0 1-.182-.476v-.308q0-.28.182-.476.196-.196.686-.196t.672.196q.196.197.196.476v.308a.65.65 0 0 1-.196.476q-.182.196-.672.196m8.394 4.228q-.895 0-1.54-.336a2.9 2.9 0 0 1-1.064-.994q-.42-.643-.616-1.582a10.6 10.6 0 0 1-.196-2.142q0-1.19.196-2.128.196-.951.616-1.596.42-.644 1.064-.98.645-.35 1.54-.35.897 0 1.54.35.644.336 1.064.98.42.645.616 1.596.196.939.196 2.128 0 1.204-.196 2.142-.196.939-.616 1.582-.42.645-1.064.994-.643.336-1.54.336m0-1.022q.588 0 1.008-.224.42-.238.672-.658.267-.42.392-1.008.126-.601.126-1.344v-1.596q0-.727-.126-1.33a3.1 3.1 0 0 0-.392-1.022 1.7 1.7 0 0 0-.672-.644q-.42-.238-1.008-.238t-1.008.238q-.42.224-.686.644a3.3 3.3 0 0 0-.378 1.022 6.5 6.5 0 0 0-.126 1.33v1.596q0 .743.126 1.344.126.588.378 1.008.267.42.686.658.42.224 1.008.224m0-3.206q-.49 0-.686-.196a.67.67 0 0 1-.182-.476v-.308q0-.28.182-.476.197-.196.686-.196t.672.196q.196.197.196.476v.308a.65.65 0 0 1-.196.476q-.182.196-.672.196"/><g fill="#707070" filter="url(#b)"><circle cx="206.31" cy="309" r="2.951"/><circle cx="224.562" cy="309" r="2.951"/><circle cx="242.813" cy="309" r="2.951"/><circle cx="261.065" cy="309" r="2.951"/><circle cx="279.317" cy="309" r="2.951"/><circle cx="297.569" cy="309" r="2.951"/><circle cx="315.821" cy="309" r="2.951"/></g><g fill="#707070" filter="url(#c)"><circle cx="4.433" cy="309" r="2.951"/><circle cx="22.685" cy="309" r="2.951"/><circle cx="40.937" cy="309" r="2.951"/><circle cx="59.188" cy="309" r="2.951"/><circle cx="77.44" cy="309" r="2.951"/><circle cx="95.692" cy="309" r="2.951"/><circle cx="113.944" cy="309" r="2.951"/></g></g><defs><filter id="b" width="147.414" height="37.902" x="187.358" y="290.049" color-interpolation-filters="sRGB" filterUnits="userSpaceOnUse"><feFlood flood-opacity="0" result="BackgroundImageFix"/><feBlend in="SourceGraphic" in2="BackgroundImageFix" result="shape"/><feGaussianBlur result="effect1_foregroundBlur_330_2473" stdDeviation="8"/></filter><filter id="c" width="147.414" height="37.902" x="-14.519" y="290.049" color-interpolation-filters="sRGB" filterUnits="userSpaceOnUse"><feFlood flood-opacity="0" result="BackgroundImageFix"/><feBlend in="SourceGraphic" in2="BackgroundImageFix" result="shape"/><feGaussianBlur result="effect1_foregroundBlur_330_2473" stdDeviation="8"/></filter><clipPath id="a"><path fill="#fff" d="M.435 0h330v430h-330z"/></clipPath></defs></svg>