<svg width="300" height="432" viewBox="0 0 300 432" fill="none" xmlns="http://www.w3.org/2000/svg">
<g clip-path="url(#clip0_225_165470)">
<rect x="1" y="1" width="298" height="430" fill="#03090C"/>
<g filter="url(#filter0_f_225_165470)">
<ellipse cx="274.396" cy="319.656" rx="166.302" ry="160.75" fill="#000507"/>
</g>
<rect x="-123.844" y="209.047" width="178.223" height="62.5311" rx="4.52421" fill="#041116" stroke="url(#paint0_linear_225_165470)" stroke-width="0.904842"/>
<path d="M-79.641 251.549V248.535H-87.209V246.907L-80.565 236.193H-77.881V247.017H-75.593V248.535H-77.881V251.549H-79.641ZM-85.559 247.017H-79.641V237.623H-79.729L-85.559 247.017ZM-63.7436 237.799H-70.6076L-71.0476 243.673H-70.8936C-70.5123 243.159 -70.087 242.756 -69.6176 242.463C-69.1483 242.155 -68.503 242.001 -67.6816 242.001C-67.007 242.001 -66.391 242.111 -65.8336 242.331C-65.2616 242.536 -64.7703 242.844 -64.3596 243.255C-63.949 243.665 -63.6263 244.164 -63.3916 244.751C-63.157 245.323 -63.0396 245.983 -63.0396 246.731C-63.0396 247.479 -63.157 248.168 -63.3916 248.799C-63.6263 249.415 -63.971 249.95 -64.4256 250.405C-64.8803 250.845 -65.4303 251.189 -66.0756 251.439C-66.721 251.688 -67.4543 251.813 -68.2756 251.813C-68.921 251.813 -69.5003 251.739 -70.0136 251.593C-70.5123 251.446 -70.9596 251.248 -71.3556 250.999C-71.737 250.749 -72.0743 250.471 -72.3676 250.163C-72.661 249.855 -72.925 249.532 -73.1596 249.195L-71.7736 248.139C-71.5683 248.447 -71.363 248.725 -71.1576 248.975C-70.9376 249.224 -70.6883 249.444 -70.4096 249.635C-70.131 249.811 -69.8156 249.95 -69.4636 250.053C-69.1116 250.155 -68.701 250.207 -68.2316 250.207C-67.1756 250.207 -66.369 249.921 -65.8116 249.349C-65.2396 248.777 -64.9536 247.985 -64.9536 246.973V246.797C-64.9536 245.785 -65.2396 244.993 -65.8116 244.421C-66.3836 243.849 -67.205 243.563 -68.2756 243.563C-69.009 243.563 -69.581 243.687 -69.9916 243.937C-70.3876 244.186 -70.7543 244.494 -71.0916 244.861L-72.6536 244.641L-72.1036 236.193H-63.7436V237.799ZM-54.9522 251.813C-55.7589 251.813 -56.4849 251.681 -57.1302 251.417C-57.7756 251.138 -58.3256 250.749 -58.7802 250.251C-59.2202 249.737 -59.5649 249.114 -59.8142 248.381C-60.0489 247.647 -60.1662 246.826 -60.1662 245.917C-60.1662 244.773 -59.9976 243.702 -59.6602 242.705C-59.3082 241.693 -58.8682 240.776 -58.3402 239.955C-57.7976 239.119 -57.1962 238.385 -56.5362 237.755C-55.8762 237.109 -55.2309 236.589 -54.6002 236.193H-52.2242C-53.0602 236.794 -53.8082 237.381 -54.4682 237.953C-55.1136 238.525 -55.6856 239.126 -56.1842 239.757C-56.6829 240.373 -57.1009 241.04 -57.4382 241.759C-57.7756 242.463 -58.0542 243.262 -58.2742 244.157L-58.1642 244.201C-57.7976 243.57 -57.3136 243.049 -56.7122 242.639C-56.1109 242.213 -55.3336 242.001 -54.3802 242.001C-53.7056 242.001 -53.0896 242.111 -52.5322 242.331C-51.9749 242.551 -51.4909 242.866 -51.0802 243.277C-50.6696 243.687 -50.3542 244.186 -50.1342 244.773C-49.8996 245.359 -49.7822 246.012 -49.7822 246.731C-49.7822 247.479 -49.9069 248.168 -50.1562 248.799C-50.4056 249.415 -50.7576 249.95 -51.2122 250.405C-51.6522 250.845 -52.1949 251.189 -52.8402 251.439C-53.4709 251.688 -54.1749 251.813 -54.9522 251.813ZM-54.9742 250.251C-53.9182 250.251 -53.1042 249.965 -52.5322 249.393C-51.9456 248.821 -51.6522 248.014 -51.6522 246.973V246.797C-51.6522 245.755 -51.9456 244.949 -52.5322 244.377C-53.1042 243.805 -53.9182 243.519 -54.9742 243.519C-56.0302 243.519 -56.8516 243.805 -57.4382 244.377C-58.0102 244.949 -58.2962 245.755 -58.2962 246.797V246.973C-58.2962 248.014 -58.0102 248.821 -57.4382 249.393C-56.8516 249.965 -56.0302 250.251 -54.9742 250.251ZM-44.5768 251.549L-38.5708 237.777H-45.3028V240.637H-46.9528V236.193H-36.7008V237.821L-42.5968 251.549H-44.5768ZM-28.5914 251.813C-29.4861 251.813 -30.2707 251.703 -30.9454 251.483C-31.6201 251.248 -32.1847 250.933 -32.6394 250.537C-33.0794 250.141 -33.4167 249.671 -33.6514 249.129C-33.8714 248.586 -33.9814 247.999 -33.9814 247.369C-33.9814 246.313 -33.6954 245.477 -33.1234 244.861C-32.5514 244.245 -31.7961 243.812 -30.8574 243.563V243.387C-31.6787 243.108 -32.3314 242.661 -32.8154 242.045C-33.2847 241.414 -33.5194 240.659 -33.5194 239.779C-33.5194 238.605 -33.0867 237.674 -32.2214 236.985C-31.3561 236.281 -30.1461 235.929 -28.5914 235.929C-27.0367 235.929 -25.8267 236.281 -24.9614 236.985C-24.0961 237.674 -23.6634 238.605 -23.6634 239.779C-23.6634 240.659 -23.9054 241.414 -24.3894 242.045C-24.8587 242.661 -25.5041 243.108 -26.3254 243.387V243.563C-25.3867 243.812 -24.6314 244.245 -24.0594 244.861C-23.4874 245.477 -23.2014 246.313 -23.2014 247.369C-23.2014 247.999 -23.3187 248.586 -23.5534 249.129C-23.7734 249.671 -24.1107 250.141 -24.5654 250.537C-25.0201 250.933 -25.5847 251.248 -26.2594 251.483C-26.9194 251.703 -27.6967 251.813 -28.5914 251.813ZM-28.5914 250.251C-27.5061 250.251 -26.6554 250.009 -26.0394 249.525C-25.4234 249.041 -25.1154 248.359 -25.1154 247.479V246.995C-25.1154 246.115 -25.4234 245.433 -26.0394 244.949C-26.6407 244.465 -27.4914 244.223 -28.5914 244.223C-29.6914 244.223 -30.5494 244.465 -31.1654 244.949C-31.7667 245.433 -32.0674 246.115 -32.0674 246.995V247.479C-32.0674 248.359 -31.7594 249.041 -31.1434 249.525C-30.5274 250.009 -29.6767 250.251 -28.5914 250.251ZM-28.5914 242.727C-27.5941 242.727 -26.8387 242.514 -26.3254 242.089C-25.7974 241.663 -25.5334 241.055 -25.5334 240.263V239.955C-25.5334 239.163 -25.8047 238.554 -26.3474 238.129C-26.8754 237.703 -27.6234 237.491 -28.5914 237.491C-29.5594 237.491 -30.3147 237.703 -30.8574 238.129C-31.3854 238.554 -31.6494 239.163 -31.6494 239.955V240.263C-31.6494 241.055 -31.3927 241.663 -30.8794 242.089C-30.3514 242.514 -29.5887 242.727 -28.5914 242.727ZM-15.4 251.813C-16.2947 251.813 -17.0793 251.703 -17.754 251.483C-18.4287 251.248 -18.9933 250.933 -19.448 250.537C-19.888 250.141 -20.2253 249.671 -20.46 249.129C-20.68 248.586 -20.79 247.999 -20.79 247.369C-20.79 246.313 -20.504 245.477 -19.932 244.861C-19.36 244.245 -18.6047 243.812 -17.666 243.563V243.387C-18.4873 243.108 -19.14 242.661 -19.624 242.045C-20.0933 241.414 -20.328 240.659 -20.328 239.779C-20.328 238.605 -19.8953 237.674 -19.03 236.985C-18.1647 236.281 -16.9547 235.929 -15.4 235.929C-13.8453 235.929 -12.6353 236.281 -11.77 236.985C-10.9047 237.674 -10.472 238.605 -10.472 239.779C-10.472 240.659 -10.714 241.414 -11.198 242.045C-11.6673 242.661 -12.3127 243.108 -13.134 243.387V243.563C-12.1953 243.812 -11.44 244.245 -10.868 244.861C-10.296 245.477 -10.01 246.313 -10.01 247.369C-10.01 247.999 -10.1273 248.586 -10.362 249.129C-10.582 249.671 -10.9193 250.141 -11.374 250.537C-11.8287 250.933 -12.3933 251.248 -13.068 251.483C-13.728 251.703 -14.5053 251.813 -15.4 251.813ZM-15.4 250.251C-14.3147 250.251 -13.464 250.009 -12.848 249.525C-12.232 249.041 -11.924 248.359 -11.924 247.479V246.995C-11.924 246.115 -12.232 245.433 -12.848 244.949C-13.4493 244.465 -14.3 244.223 -15.4 244.223C-16.5 244.223 -17.358 244.465 -17.974 244.949C-18.5753 245.433 -18.876 246.115 -18.876 246.995V247.479C-18.876 248.359 -18.568 249.041 -17.952 249.525C-17.336 250.009 -16.4853 250.251 -15.4 250.251ZM-15.4 242.727C-14.4027 242.727 -13.6473 242.514 -13.134 242.089C-12.606 241.663 -12.342 241.055 -12.342 240.263V239.955C-12.342 239.163 -12.6133 238.554 -13.156 238.129C-13.684 237.703 -14.432 237.491 -15.4 237.491C-16.368 237.491 -17.1233 237.703 -17.666 238.129C-18.194 238.554 -18.458 239.163 -18.458 239.955V240.263C-18.458 241.055 -18.2013 241.663 -17.688 242.089C-17.16 242.514 -16.3973 242.727 -15.4 242.727ZM-2.86859 242.705C-1.79793 242.705 -0.998593 242.47 -0.470594 242.001C0.0720731 241.517 0.343406 240.901 0.343406 240.153V239.999C0.343406 239.177 0.0794066 238.561 -0.448593 238.151C-0.961926 237.74 -1.63659 237.535 -2.47259 237.535C-3.29393 237.535 -3.96126 237.718 -4.47459 238.085C-4.97326 238.437 -5.38393 238.906 -5.70659 239.493L-7.09259 238.437C-6.90193 238.129 -6.66726 237.828 -6.38859 237.535C-6.10993 237.227 -5.78726 236.955 -5.42059 236.721C-5.03926 236.486 -4.60659 236.295 -4.12259 236.149C-3.62393 236.002 -3.05926 235.929 -2.42859 235.929C-1.76859 235.929 -1.15259 236.017 -0.580593 236.193C-0.0085934 236.354 0.490073 236.603 0.915407 236.941C1.34074 237.263 1.67074 237.667 1.90541 238.151C2.15474 238.635 2.27941 239.185 2.27941 239.801C2.27941 240.299 2.19874 240.747 2.03741 241.143C1.89074 241.539 1.67807 241.883 1.39941 242.177C1.13541 242.47 0.820073 242.719 0.453407 242.925C0.0867402 243.13 -0.301926 243.284 -0.712593 243.387V243.475C-0.28726 243.563 0.123407 243.709 0.519407 243.915C0.915407 244.105 1.26741 244.362 1.57541 244.685C1.88341 244.993 2.12541 245.374 2.30141 245.829C2.49207 246.269 2.58741 246.775 2.58741 247.347C2.58741 248.007 2.45541 248.615 2.19141 249.173C1.94207 249.715 1.58274 250.185 1.11341 250.581C0.65874 250.962 0.101407 251.263 -0.558593 251.483C-1.20393 251.703 -1.92259 251.813 -2.71459 251.813C-3.38926 251.813 -3.99059 251.739 -4.51859 251.593C-5.03193 251.446 -5.49393 251.248 -5.90459 250.999C-6.30059 250.749 -6.65259 250.471 -6.96059 250.163C-7.25393 249.855 -7.51793 249.532 -7.75259 249.195L-6.36659 248.139C-6.16126 248.447 -5.94859 248.725 -5.72859 248.975C-5.50859 249.224 -5.25926 249.444 -4.98059 249.635C-4.68726 249.811 -4.35726 249.95 -3.99059 250.053C-3.62393 250.155 -3.19859 250.207 -2.71459 250.207C-1.62926 250.207 -0.800593 249.957 -0.228593 249.459C0.358073 248.96 0.651406 248.249 0.651406 247.325V247.149C0.651406 246.239 0.365407 245.535 -0.206593 245.037C-0.763927 244.538 -1.60726 244.289 -2.73659 244.289H-4.56259V242.705H-2.86859ZM10.3228 242.705C11.3935 242.705 12.1928 242.47 12.7208 242.001C13.2635 241.517 13.5348 240.901 13.5348 240.153V239.999C13.5348 239.177 13.2708 238.561 12.7428 238.151C12.2295 237.74 11.5548 237.535 10.7188 237.535C9.89748 237.535 9.23015 237.718 8.71681 238.085C8.21815 238.437 7.80748 238.906 7.48481 239.493L6.09881 238.437C6.28948 238.129 6.52415 237.828 6.80281 237.535C7.08148 237.227 7.40415 236.955 7.77081 236.721C8.15215 236.486 8.58481 236.295 9.06881 236.149C9.56748 236.002 10.1321 235.929 10.7628 235.929C11.4228 235.929 12.0388 236.017 12.6108 236.193C13.1828 236.354 13.6815 236.603 14.1068 236.941C14.5321 237.263 14.8621 237.667 15.0968 238.151C15.3461 238.635 15.4708 239.185 15.4708 239.801C15.4708 240.299 15.3901 240.747 15.2288 241.143C15.0821 241.539 14.8695 241.883 14.5908 242.177C14.3268 242.47 14.0115 242.719 13.6448 242.925C13.2781 243.13 12.8895 243.284 12.4788 243.387V243.475C12.9041 243.563 13.3148 243.709 13.7108 243.915C14.1068 244.105 14.4588 244.362 14.7668 244.685C15.0748 244.993 15.3168 245.374 15.4928 245.829C15.6835 246.269 15.7788 246.775 15.7788 247.347C15.7788 248.007 15.6468 248.615 15.3828 249.173C15.1335 249.715 14.7741 250.185 14.3048 250.581C13.8501 250.962 13.2928 251.263 12.6328 251.483C11.9875 251.703 11.2688 251.813 10.4768 251.813C9.80215 251.813 9.20081 251.739 8.67281 251.593C8.15948 251.446 7.69748 251.248 7.28681 250.999C6.89081 250.749 6.53881 250.471 6.23081 250.163C5.93748 249.855 5.67348 249.532 5.43881 249.195L6.82481 248.139C7.03015 248.447 7.24281 248.725 7.46281 248.975C7.68281 249.224 7.93215 249.444 8.21081 249.635C8.50415 249.811 8.83415 249.95 9.20081 250.053C9.56748 250.155 9.99281 250.207 10.4768 250.207C11.5621 250.207 12.3908 249.957 12.9628 249.459C13.5495 248.96 13.8428 248.249 13.8428 247.325V247.149C13.8428 246.239 13.5568 245.535 12.9848 245.037C12.4275 244.538 11.5841 244.289 10.4548 244.289H8.62881V242.705H10.3228Z" fill="#747A8A"/>
<rect x="-123.844" y="282.578" width="178.223" height="62.5311" rx="4.52421" fill="#041116" stroke="url(#paint1_linear_225_165470)" stroke-width="0.904842"/>
<path d="M-86.2934 325.08V322.066H-93.8614V320.438L-87.2174 309.724H-84.5334V320.548H-82.2454V322.066H-84.5334V325.08H-86.2934ZM-92.2114 320.548H-86.2934V311.154H-86.3814L-92.2114 320.548ZM-70.396 311.33H-77.26L-77.7 317.204H-77.546C-77.1646 316.691 -76.7393 316.287 -76.27 315.994C-75.8006 315.686 -75.1553 315.532 -74.334 315.532C-73.6593 315.532 -73.0433 315.642 -72.486 315.862C-71.914 316.067 -71.4226 316.375 -71.012 316.786C-70.6013 317.197 -70.2786 317.695 -70.044 318.282C-69.8093 318.854 -69.692 319.514 -69.692 320.262C-69.692 321.01 -69.8093 321.699 -70.044 322.33C-70.2786 322.946 -70.6233 323.481 -71.078 323.936C-71.5326 324.376 -72.0826 324.721 -72.728 324.97C-73.3733 325.219 -74.1066 325.344 -74.928 325.344C-75.5733 325.344 -76.1526 325.271 -76.666 325.124C-77.1646 324.977 -77.612 324.779 -78.008 324.53C-78.3893 324.281 -78.7266 324.002 -79.02 323.694C-79.3133 323.386 -79.5773 323.063 -79.812 322.726L-78.426 321.67C-78.2206 321.978 -78.0153 322.257 -77.81 322.506C-77.59 322.755 -77.3406 322.975 -77.062 323.166C-76.7833 323.342 -76.468 323.481 -76.116 323.584C-75.764 323.687 -75.3533 323.738 -74.884 323.738C-73.828 323.738 -73.0213 323.452 -72.464 322.88C-71.892 322.308 -71.606 321.516 -71.606 320.504V320.328C-71.606 319.316 -71.892 318.524 -72.464 317.952C-73.036 317.38 -73.8573 317.094 -74.928 317.094C-75.6613 317.094 -76.2333 317.219 -76.644 317.468C-77.04 317.717 -77.4066 318.025 -77.744 318.392L-79.306 318.172L-78.756 309.724H-70.396V311.33ZM-61.6046 325.344C-62.4112 325.344 -63.1372 325.212 -63.7826 324.948C-64.4279 324.669 -64.9779 324.281 -65.4326 323.782C-65.8726 323.269 -66.2172 322.645 -66.4666 321.912C-66.7012 321.179 -66.8186 320.357 -66.8186 319.448C-66.8186 318.304 -66.6499 317.233 -66.3126 316.236C-65.9606 315.224 -65.5206 314.307 -64.9926 313.486C-64.4499 312.65 -63.8486 311.917 -63.1886 311.286C-62.5286 310.641 -61.8832 310.12 -61.2526 309.724H-58.8766C-59.7126 310.325 -60.4606 310.912 -61.1206 311.484C-61.7659 312.056 -62.3379 312.657 -62.8366 313.288C-63.3352 313.904 -63.7532 314.571 -64.0906 315.29C-64.4279 315.994 -64.7066 316.793 -64.9266 317.688L-64.8166 317.732C-64.4499 317.101 -63.9659 316.581 -63.3646 316.17C-62.7632 315.745 -61.9859 315.532 -61.0326 315.532C-60.3579 315.532 -59.7419 315.642 -59.1846 315.862C-58.6272 316.082 -58.1432 316.397 -57.7326 316.808C-57.3219 317.219 -57.0066 317.717 -56.7866 318.304C-56.5519 318.891 -56.4346 319.543 -56.4346 320.262C-56.4346 321.01 -56.5592 321.699 -56.8086 322.33C-57.0579 322.946 -57.4099 323.481 -57.8646 323.936C-58.3046 324.376 -58.8472 324.721 -59.4926 324.97C-60.1232 325.219 -60.8272 325.344 -61.6046 325.344ZM-61.6266 323.782C-60.5706 323.782 -59.7566 323.496 -59.1846 322.924C-58.5979 322.352 -58.3046 321.545 -58.3046 320.504V320.328C-58.3046 319.287 -58.5979 318.48 -59.1846 317.908C-59.7566 317.336 -60.5706 317.05 -61.6266 317.05C-62.6826 317.05 -63.5039 317.336 -64.0906 317.908C-64.6626 318.48 -64.9486 319.287 -64.9486 320.328V320.504C-64.9486 321.545 -64.6626 322.352 -64.0906 322.924C-63.5039 323.496 -62.6826 323.782 -61.6266 323.782ZM-51.2292 325.08L-45.2232 311.308H-51.9552V314.168H-53.6052V309.724H-43.3532V311.352L-49.2492 325.08H-51.2292ZM-35.2437 325.344C-36.1384 325.344 -36.9231 325.234 -37.5977 325.014C-38.2724 324.779 -38.8371 324.464 -39.2917 324.068C-39.7317 323.672 -40.0691 323.203 -40.3037 322.66C-40.5237 322.117 -40.6337 321.531 -40.6337 320.9C-40.6337 319.844 -40.3477 319.008 -39.7757 318.392C-39.2037 317.776 -38.4484 317.343 -37.5097 317.094V316.918C-38.3311 316.639 -38.9837 316.192 -39.4677 315.576C-39.9371 314.945 -40.1717 314.19 -40.1717 313.31C-40.1717 312.137 -39.7391 311.205 -38.8737 310.516C-38.0084 309.812 -36.7984 309.46 -35.2437 309.46C-33.6891 309.46 -32.4791 309.812 -31.6137 310.516C-30.7484 311.205 -30.3157 312.137 -30.3157 313.31C-30.3157 314.19 -30.5577 314.945 -31.0417 315.576C-31.5111 316.192 -32.1564 316.639 -32.9777 316.918V317.094C-32.0391 317.343 -31.2837 317.776 -30.7117 318.392C-30.1397 319.008 -29.8537 319.844 -29.8537 320.9C-29.8537 321.531 -29.9711 322.117 -30.2057 322.66C-30.4257 323.203 -30.7631 323.672 -31.2177 324.068C-31.6724 324.464 -32.2371 324.779 -32.9117 325.014C-33.5717 325.234 -34.3491 325.344 -35.2437 325.344ZM-35.2437 323.782C-34.1584 323.782 -33.3077 323.54 -32.6917 323.056C-32.0757 322.572 -31.7677 321.89 -31.7677 321.01V320.526C-31.7677 319.646 -32.0757 318.964 -32.6917 318.48C-33.2931 317.996 -34.1437 317.754 -35.2437 317.754C-36.3437 317.754 -37.2017 317.996 -37.8177 318.48C-38.4191 318.964 -38.7197 319.646 -38.7197 320.526V321.01C-38.7197 321.89 -38.4117 322.572 -37.7957 323.056C-37.1797 323.54 -36.3291 323.782 -35.2437 323.782ZM-35.2437 316.258C-34.2464 316.258 -33.4911 316.045 -32.9777 315.62C-32.4497 315.195 -32.1857 314.586 -32.1857 313.794V313.486C-32.1857 312.694 -32.4571 312.085 -32.9997 311.66C-33.5277 311.235 -34.2757 311.022 -35.2437 311.022C-36.2117 311.022 -36.9671 311.235 -37.5097 311.66C-38.0377 312.085 -38.3017 312.694 -38.3017 313.486V313.794C-38.3017 314.586 -38.0451 315.195 -37.5317 315.62C-37.0037 316.045 -36.2411 316.258 -35.2437 316.258ZM-22.0523 325.344C-22.947 325.344 -23.7317 325.234 -24.4063 325.014C-25.081 324.779 -25.6457 324.464 -26.1003 324.068C-26.5403 323.672 -26.8777 323.203 -27.1123 322.66C-27.3323 322.117 -27.4423 321.531 -27.4423 320.9C-27.4423 319.844 -27.1563 319.008 -26.5843 318.392C-26.0123 317.776 -25.257 317.343 -24.3183 317.094V316.918C-25.1397 316.639 -25.7923 316.192 -26.2763 315.576C-26.7457 314.945 -26.9803 314.19 -26.9803 313.31C-26.9803 312.137 -26.5477 311.205 -25.6823 310.516C-24.817 309.812 -23.607 309.46 -22.0523 309.46C-20.4977 309.46 -19.2877 309.812 -18.4223 310.516C-17.557 311.205 -17.1243 312.137 -17.1243 313.31C-17.1243 314.19 -17.3663 314.945 -17.8503 315.576C-18.3197 316.192 -18.965 316.639 -19.7863 316.918V317.094C-18.8477 317.343 -18.0923 317.776 -17.5203 318.392C-16.9483 319.008 -16.6623 319.844 -16.6623 320.9C-16.6623 321.531 -16.7797 322.117 -17.0143 322.66C-17.2343 323.203 -17.5717 323.672 -18.0263 324.068C-18.481 324.464 -19.0457 324.779 -19.7203 325.014C-20.3803 325.234 -21.1577 325.344 -22.0523 325.344ZM-22.0523 323.782C-20.967 323.782 -20.1163 323.54 -19.5003 323.056C-18.8843 322.572 -18.5763 321.89 -18.5763 321.01V320.526C-18.5763 319.646 -18.8843 318.964 -19.5003 318.48C-20.1017 317.996 -20.9523 317.754 -22.0523 317.754C-23.1523 317.754 -24.0103 317.996 -24.6263 318.48C-25.2277 318.964 -25.5283 319.646 -25.5283 320.526V321.01C-25.5283 321.89 -25.2203 322.572 -24.6043 323.056C-23.9883 323.54 -23.1377 323.782 -22.0523 323.782ZM-22.0523 316.258C-21.055 316.258 -20.2997 316.045 -19.7863 315.62C-19.2583 315.195 -18.9943 314.586 -18.9943 313.794V313.486C-18.9943 312.694 -19.2657 312.085 -19.8083 311.66C-20.3363 311.235 -21.0843 311.022 -22.0523 311.022C-23.0203 311.022 -23.7757 311.235 -24.3183 311.66C-24.8463 312.085 -25.1103 312.694 -25.1103 313.486V313.794C-25.1103 314.586 -24.8537 315.195 -24.3403 315.62C-23.8123 316.045 -23.0497 316.258 -22.0523 316.258ZM-11.6549 325.08L-5.64894 311.308H-12.3809V314.168H-14.0309V309.724H-3.77894V311.352L-9.67494 325.08H-11.6549ZM4.35247 325.344C3.5458 325.344 2.8198 325.212 2.17447 324.948C1.52914 324.669 0.979136 324.281 0.524469 323.782C0.0844688 323.269 -0.260198 322.645 -0.509531 321.912C-0.744198 321.179 -0.861531 320.357 -0.861531 319.448C-0.861531 318.304 -0.692865 317.233 -0.355531 316.236C-0.00353108 315.224 0.436469 314.307 0.964469 313.486C1.50714 312.65 2.10847 311.917 2.76847 311.286C3.42847 310.641 4.0738 310.12 4.70447 309.724H7.08047C6.24447 310.325 5.49647 310.912 4.83647 311.484C4.19114 312.056 3.61914 312.657 3.12047 313.288C2.6218 313.904 2.2038 314.571 1.86647 315.29C1.52914 315.994 1.25047 316.793 1.03047 317.688L1.14047 317.732C1.50714 317.101 1.99114 316.581 2.59247 316.17C3.1938 315.745 3.97114 315.532 4.92447 315.532C5.59914 315.532 6.21514 315.642 6.77247 315.862C7.3298 316.082 7.8138 316.397 8.22447 316.808C8.63514 317.219 8.95047 317.717 9.17047 318.304C9.40514 318.891 9.52247 319.543 9.52247 320.262C9.52247 321.01 9.3978 321.699 9.14847 322.33C8.89914 322.946 8.54714 323.481 8.09247 323.936C7.65247 324.376 7.1098 324.721 6.46447 324.97C5.8338 325.219 5.1298 325.344 4.35247 325.344ZM4.33047 323.782C5.38647 323.782 6.20047 323.496 6.77247 322.924C7.35914 322.352 7.65247 321.545 7.65247 320.504V320.328C7.65247 319.287 7.35914 318.48 6.77247 317.908C6.20047 317.336 5.38647 317.05 4.33047 317.05C3.27447 317.05 2.45314 317.336 1.86647 317.908C1.29447 318.48 1.00847 319.287 1.00847 320.328V320.504C1.00847 321.545 1.29447 322.352 1.86647 322.924C2.45314 323.496 3.27447 323.782 4.33047 323.782ZM21.9439 311.33H15.0799L14.6399 317.204H14.7939C15.1752 316.691 15.6005 316.287 16.0699 315.994C16.5392 315.686 17.1845 315.532 18.0059 315.532C18.6805 315.532 19.2965 315.642 19.8539 315.862C20.4259 316.067 20.9172 316.375 21.3279 316.786C21.7385 317.197 22.0612 317.695 22.2959 318.282C22.5305 318.854 22.6479 319.514 22.6479 320.262C22.6479 321.01 22.5305 321.699 22.2959 322.33C22.0612 322.946 21.7165 323.481 21.2619 323.936C20.8072 324.376 20.2572 324.721 19.6119 324.97C18.9665 325.219 18.2332 325.344 17.4119 325.344C16.7665 325.344 16.1872 325.271 15.6739 325.124C15.1752 324.977 14.7279 324.779 14.3319 324.53C13.9505 324.281 13.6132 324.002 13.3199 323.694C13.0265 323.386 12.7625 323.063 12.5279 322.726L13.9139 321.67C14.1192 321.978 14.3245 322.257 14.5299 322.506C14.7499 322.755 14.9992 322.975 15.2779 323.166C15.5565 323.342 15.8719 323.481 16.2239 323.584C16.5759 323.687 16.9865 323.738 17.4559 323.738C18.5119 323.738 19.3185 323.452 19.8759 322.88C20.4479 322.308 20.7339 321.516 20.7339 320.504V320.328C20.7339 319.316 20.4479 318.524 19.8759 317.952C19.3039 317.38 18.4825 317.094 17.4119 317.094C16.6785 317.094 16.1065 317.219 15.6959 317.468C15.2999 317.717 14.9332 318.025 14.5959 318.392L13.0339 318.172L13.5839 309.724H21.9439V311.33Z" fill="#747A8A"/>
<rect x="-123.844" y="356.109" width="178.223" height="62.5311" rx="4.52421" fill="#041116" stroke="url(#paint2_linear_225_165470)" stroke-width="0.904842"/>
<path d="M-86.2934 398.611V395.597H-93.8614V393.969L-87.2174 383.255H-84.5334V394.079H-82.2454V395.597H-84.5334V398.611H-86.2934ZM-92.2114 394.079H-86.2934V384.685H-86.3814L-92.2114 394.079ZM-70.396 384.861H-77.26L-77.7 390.735H-77.546C-77.1646 390.222 -76.7393 389.819 -76.27 389.525C-75.8006 389.217 -75.1553 389.063 -74.334 389.063C-73.6593 389.063 -73.0433 389.173 -72.486 389.393C-71.914 389.599 -71.4226 389.907 -71.012 390.317C-70.6013 390.728 -70.2786 391.227 -70.044 391.813C-69.8093 392.385 -69.692 393.045 -69.692 393.793C-69.692 394.541 -69.8093 395.231 -70.044 395.861C-70.2786 396.477 -70.6233 397.013 -71.078 397.467C-71.5326 397.907 -72.0826 398.252 -72.728 398.501C-73.3733 398.751 -74.1066 398.875 -74.928 398.875C-75.5733 398.875 -76.1526 398.802 -76.666 398.655C-77.1646 398.509 -77.612 398.311 -78.008 398.061C-78.3893 397.812 -78.7266 397.533 -79.02 397.225C-79.3133 396.917 -79.5773 396.595 -79.812 396.257L-78.426 395.201C-78.2206 395.509 -78.0153 395.788 -77.81 396.037C-77.59 396.287 -77.3406 396.507 -77.062 396.697C-76.7833 396.873 -76.468 397.013 -76.116 397.115C-75.764 397.218 -75.3533 397.269 -74.884 397.269C-73.828 397.269 -73.0213 396.983 -72.464 396.411C-71.892 395.839 -71.606 395.047 -71.606 394.035V393.859C-71.606 392.847 -71.892 392.055 -72.464 391.483C-73.036 390.911 -73.8573 390.625 -74.928 390.625C-75.6613 390.625 -76.2333 390.75 -76.644 390.999C-77.04 391.249 -77.4066 391.557 -77.744 391.923L-79.306 391.703L-78.756 383.255H-70.396V384.861ZM-61.6046 398.875C-62.4112 398.875 -63.1372 398.743 -63.7826 398.479C-64.4279 398.201 -64.9779 397.812 -65.4326 397.313C-65.8726 396.8 -66.2172 396.177 -66.4666 395.443C-66.7012 394.71 -66.8186 393.889 -66.8186 392.979C-66.8186 391.835 -66.6499 390.765 -66.3126 389.767C-65.9606 388.755 -65.5206 387.839 -64.9926 387.017C-64.4499 386.181 -63.8486 385.448 -63.1886 384.817C-62.5286 384.172 -61.8832 383.651 -61.2526 383.255H-58.8766C-59.7126 383.857 -60.4606 384.443 -61.1206 385.015C-61.7659 385.587 -62.3379 386.189 -62.8366 386.819C-63.3352 387.435 -63.7532 388.103 -64.0906 388.821C-64.4279 389.525 -64.7066 390.325 -64.9266 391.219L-64.8166 391.263C-64.4499 390.633 -63.9659 390.112 -63.3646 389.701C-62.7632 389.276 -61.9859 389.063 -61.0326 389.063C-60.3579 389.063 -59.7419 389.173 -59.1846 389.393C-58.6272 389.613 -58.1432 389.929 -57.7326 390.339C-57.3219 390.75 -57.0066 391.249 -56.7866 391.835C-56.5519 392.422 -56.4346 393.075 -56.4346 393.793C-56.4346 394.541 -56.5592 395.231 -56.8086 395.861C-57.0579 396.477 -57.4099 397.013 -57.8646 397.467C-58.3046 397.907 -58.8472 398.252 -59.4926 398.501C-60.1232 398.751 -60.8272 398.875 -61.6046 398.875ZM-61.6266 397.313C-60.5706 397.313 -59.7566 397.027 -59.1846 396.455C-58.5979 395.883 -58.3046 395.077 -58.3046 394.035V393.859C-58.3046 392.818 -58.5979 392.011 -59.1846 391.439C-59.7566 390.867 -60.5706 390.581 -61.6266 390.581C-62.6826 390.581 -63.5039 390.867 -64.0906 391.439C-64.6626 392.011 -64.9486 392.818 -64.9486 393.859V394.035C-64.9486 395.077 -64.6626 395.883 -64.0906 396.455C-63.5039 397.027 -62.6826 397.313 -61.6266 397.313ZM-51.2292 398.611L-45.2232 384.839H-51.9552V387.699H-53.6052V383.255H-43.3532V384.883L-49.2492 398.611H-51.2292ZM-35.2437 398.875C-36.1384 398.875 -36.9231 398.765 -37.5977 398.545C-38.2724 398.311 -38.8371 397.995 -39.2917 397.599C-39.7317 397.203 -40.0691 396.734 -40.3037 396.191C-40.5237 395.649 -40.6337 395.062 -40.6337 394.431C-40.6337 393.375 -40.3477 392.539 -39.7757 391.923C-39.2037 391.307 -38.4484 390.875 -37.5097 390.625V390.449C-38.3311 390.171 -38.9837 389.723 -39.4677 389.107C-39.9371 388.477 -40.1717 387.721 -40.1717 386.841C-40.1717 385.668 -39.7391 384.737 -38.8737 384.047C-38.0084 383.343 -36.7984 382.991 -35.2437 382.991C-33.6891 382.991 -32.4791 383.343 -31.6137 384.047C-30.7484 384.737 -30.3157 385.668 -30.3157 386.841C-30.3157 387.721 -30.5577 388.477 -31.0417 389.107C-31.5111 389.723 -32.1564 390.171 -32.9777 390.449V390.625C-32.0391 390.875 -31.2837 391.307 -30.7117 391.923C-30.1397 392.539 -29.8537 393.375 -29.8537 394.431C-29.8537 395.062 -29.9711 395.649 -30.2057 396.191C-30.4257 396.734 -30.7631 397.203 -31.2177 397.599C-31.6724 397.995 -32.2371 398.311 -32.9117 398.545C-33.5717 398.765 -34.3491 398.875 -35.2437 398.875ZM-35.2437 397.313C-34.1584 397.313 -33.3077 397.071 -32.6917 396.587C-32.0757 396.103 -31.7677 395.421 -31.7677 394.541V394.057C-31.7677 393.177 -32.0757 392.495 -32.6917 392.011C-33.2931 391.527 -34.1437 391.285 -35.2437 391.285C-36.3437 391.285 -37.2017 391.527 -37.8177 392.011C-38.4191 392.495 -38.7197 393.177 -38.7197 394.057V394.541C-38.7197 395.421 -38.4117 396.103 -37.7957 396.587C-37.1797 397.071 -36.3291 397.313 -35.2437 397.313ZM-35.2437 389.789C-34.2464 389.789 -33.4911 389.577 -32.9777 389.151C-32.4497 388.726 -32.1857 388.117 -32.1857 387.325V387.017C-32.1857 386.225 -32.4571 385.617 -32.9997 385.191C-33.5277 384.766 -34.2757 384.553 -35.2437 384.553C-36.2117 384.553 -36.9671 384.766 -37.5097 385.191C-38.0377 385.617 -38.3017 386.225 -38.3017 387.017V387.325C-38.3017 388.117 -38.0451 388.726 -37.5317 389.151C-37.0037 389.577 -36.2411 389.789 -35.2437 389.789ZM-22.0523 398.875C-22.947 398.875 -23.7317 398.765 -24.4063 398.545C-25.081 398.311 -25.6457 397.995 -26.1003 397.599C-26.5403 397.203 -26.8777 396.734 -27.1123 396.191C-27.3323 395.649 -27.4423 395.062 -27.4423 394.431C-27.4423 393.375 -27.1563 392.539 -26.5843 391.923C-26.0123 391.307 -25.257 390.875 -24.3183 390.625V390.449C-25.1397 390.171 -25.7923 389.723 -26.2763 389.107C-26.7457 388.477 -26.9803 387.721 -26.9803 386.841C-26.9803 385.668 -26.5477 384.737 -25.6823 384.047C-24.817 383.343 -23.607 382.991 -22.0523 382.991C-20.4977 382.991 -19.2877 383.343 -18.4223 384.047C-17.557 384.737 -17.1243 385.668 -17.1243 386.841C-17.1243 387.721 -17.3663 388.477 -17.8503 389.107C-18.3197 389.723 -18.965 390.171 -19.7863 390.449V390.625C-18.8477 390.875 -18.0923 391.307 -17.5203 391.923C-16.9483 392.539 -16.6623 393.375 -16.6623 394.431C-16.6623 395.062 -16.7797 395.649 -17.0143 396.191C-17.2343 396.734 -17.5717 397.203 -18.0263 397.599C-18.481 397.995 -19.0457 398.311 -19.7203 398.545C-20.3803 398.765 -21.1577 398.875 -22.0523 398.875ZM-22.0523 397.313C-20.967 397.313 -20.1163 397.071 -19.5003 396.587C-18.8843 396.103 -18.5763 395.421 -18.5763 394.541V394.057C-18.5763 393.177 -18.8843 392.495 -19.5003 392.011C-20.1017 391.527 -20.9523 391.285 -22.0523 391.285C-23.1523 391.285 -24.0103 391.527 -24.6263 392.011C-25.2277 392.495 -25.5283 393.177 -25.5283 394.057V394.541C-25.5283 395.421 -25.2203 396.103 -24.6043 396.587C-23.9883 397.071 -23.1377 397.313 -22.0523 397.313ZM-22.0523 389.789C-21.055 389.789 -20.2997 389.577 -19.7863 389.151C-19.2583 388.726 -18.9943 388.117 -18.9943 387.325V387.017C-18.9943 386.225 -19.2657 385.617 -19.8083 385.191C-20.3363 384.766 -21.0843 384.553 -22.0523 384.553C-23.0203 384.553 -23.7757 384.766 -24.3183 385.191C-24.8463 385.617 -25.1103 386.225 -25.1103 387.017V387.325C-25.1103 388.117 -24.8537 388.726 -24.3403 389.151C-23.8123 389.577 -23.0497 389.789 -22.0523 389.789ZM-11.6549 398.611L-5.64894 384.839H-12.3809V387.699H-14.0309V383.255H-3.77894V384.883L-9.67494 398.611H-11.6549ZM1.53647 398.611L7.54247 384.839H0.810469V387.699H-0.839531V383.255H9.41247V384.883L3.51647 398.611H1.53647ZM17.5439 398.875C16.7372 398.875 16.0112 398.743 15.3659 398.479C14.7205 398.201 14.1705 397.812 13.7159 397.313C13.2759 396.8 12.9312 396.177 12.6819 395.443C12.4472 394.71 12.3299 393.889 12.3299 392.979C12.3299 391.835 12.4985 390.765 12.8359 389.767C13.1879 388.755 13.6279 387.839 14.1559 387.017C14.6985 386.181 15.2999 385.448 15.9599 384.817C16.6199 384.172 17.2652 383.651 17.8959 383.255H20.2719C19.4359 383.857 18.6879 384.443 18.0279 385.015C17.3825 385.587 16.8105 386.189 16.3119 386.819C15.8132 387.435 15.3952 388.103 15.0579 388.821C14.7205 389.525 14.4419 390.325 14.2219 391.219L14.3319 391.263C14.6985 390.633 15.1825 390.112 15.7839 389.701C16.3852 389.276 17.1625 389.063 18.1159 389.063C18.7905 389.063 19.4065 389.173 19.9639 389.393C20.5212 389.613 21.0052 389.929 21.4159 390.339C21.8265 390.75 22.1419 391.249 22.3619 391.835C22.5965 392.422 22.7139 393.075 22.7139 393.793C22.7139 394.541 22.5892 395.231 22.3399 395.861C22.0905 396.477 21.7385 397.013 21.2839 397.467C20.8439 397.907 20.3012 398.252 19.6559 398.501C19.0252 398.751 18.3212 398.875 17.5439 398.875ZM17.5219 397.313C18.5779 397.313 19.3919 397.027 19.9639 396.455C20.5505 395.883 20.8439 395.077 20.8439 394.035V393.859C20.8439 392.818 20.5505 392.011 19.9639 391.439C19.3919 390.867 18.5779 390.581 17.5219 390.581C16.4659 390.581 15.6445 390.867 15.0579 391.439C14.4859 392.011 14.1999 392.818 14.1999 393.859V394.035C14.1999 395.077 14.4859 395.883 15.0579 396.455C15.6445 397.027 16.4659 397.313 17.5219 397.313Z" fill="#747A8A"/>
<g clip-path="url(#clip1_225_165470)">
<rect x="63.375" y="209.047" width="178" height="62" rx="4.52421" fill="#041116"/>
<path d="M86.3316 248.008V244.994H78.7636V243.366L85.4076 232.652H88.0916V243.476H90.3796V244.994H88.0916V248.008H86.3316ZM80.4136 243.476H86.3316V234.082H86.2436L80.4136 243.476ZM102.229 234.258H95.365L94.925 240.132H95.079C95.4604 239.618 95.8857 239.215 96.355 238.922C96.8244 238.614 97.4697 238.46 98.291 238.46C98.9657 238.46 99.5817 238.57 100.139 238.79C100.711 238.995 101.202 239.303 101.613 239.714C102.024 240.124 102.346 240.623 102.581 241.21C102.816 241.782 102.933 242.442 102.933 243.19C102.933 243.938 102.816 244.627 102.581 245.258C102.346 245.874 102.002 246.409 101.547 246.864C101.092 247.304 100.542 247.648 99.897 247.898C99.2517 248.147 98.5184 248.272 97.697 248.272C97.0517 248.272 96.4724 248.198 95.959 248.052C95.4604 247.905 95.013 247.707 94.617 247.458C94.2357 247.208 93.8984 246.93 93.605 246.622C93.3117 246.314 93.0477 245.991 92.813 245.654L94.199 244.598C94.4044 244.906 94.6097 245.184 94.815 245.434C95.035 245.683 95.2844 245.903 95.563 246.094C95.8417 246.27 96.157 246.409 96.509 246.512C96.861 246.614 97.2717 246.666 97.741 246.666C98.797 246.666 99.6037 246.38 100.161 245.808C100.733 245.236 101.019 244.444 101.019 243.432V243.256C101.019 242.244 100.733 241.452 100.161 240.88C99.589 240.308 98.7677 240.022 97.697 240.022C96.9637 240.022 96.3917 240.146 95.981 240.396C95.585 240.645 95.2184 240.953 94.881 241.32L93.319 241.1L93.869 232.652H102.229V234.258ZM111.02 248.272C110.214 248.272 109.488 248.14 108.842 247.876C108.197 247.597 107.647 247.208 107.192 246.71C106.752 246.196 106.408 245.573 106.158 244.84C105.924 244.106 105.806 243.285 105.806 242.376C105.806 241.232 105.975 240.161 106.312 239.164C106.664 238.152 107.104 237.235 107.632 236.414C108.175 235.578 108.776 234.844 109.436 234.214C110.096 233.568 110.742 233.048 111.372 232.652H113.748C112.912 233.253 112.164 233.84 111.504 234.412C110.859 234.984 110.287 235.585 109.788 236.216C109.29 236.832 108.872 237.499 108.534 238.218C108.197 238.922 107.918 239.721 107.698 240.616L107.808 240.66C108.175 240.029 108.659 239.508 109.26 239.098C109.862 238.672 110.639 238.46 111.592 238.46C112.267 238.46 112.883 238.57 113.44 238.79C113.998 239.01 114.482 239.325 114.892 239.736C115.303 240.146 115.618 240.645 115.838 241.232C116.073 241.818 116.19 242.471 116.19 243.19C116.19 243.938 116.066 244.627 115.816 245.258C115.567 245.874 115.215 246.409 114.76 246.864C114.32 247.304 113.778 247.648 113.132 247.898C112.502 248.147 111.798 248.272 111.02 248.272ZM110.998 246.71C112.054 246.71 112.868 246.424 113.44 245.852C114.027 245.28 114.32 244.473 114.32 243.432V243.256C114.32 242.214 114.027 241.408 113.44 240.836C112.868 240.264 112.054 239.978 110.998 239.978C109.942 239.978 109.121 240.264 108.534 240.836C107.962 241.408 107.676 242.214 107.676 243.256V243.432C107.676 244.473 107.962 245.28 108.534 245.852C109.121 246.424 109.942 246.71 110.998 246.71ZM121.396 248.008L127.402 234.236H120.67V237.096H119.02V232.652H129.272V234.28L123.376 248.008H121.396ZM137.381 248.272C136.487 248.272 135.702 248.162 135.027 247.942C134.353 247.707 133.788 247.392 133.333 246.996C132.893 246.6 132.556 246.13 132.321 245.588C132.101 245.045 131.991 244.458 131.991 243.828C131.991 242.772 132.277 241.936 132.849 241.32C133.421 240.704 134.177 240.271 135.115 240.022V239.846C134.294 239.567 133.641 239.12 133.157 238.504C132.688 237.873 132.453 237.118 132.453 236.238C132.453 235.064 132.886 234.133 133.751 233.444C134.617 232.74 135.827 232.388 137.381 232.388C138.936 232.388 140.146 232.74 141.011 233.444C141.877 234.133 142.309 235.064 142.309 236.238C142.309 237.118 142.067 237.873 141.583 238.504C141.114 239.12 140.469 239.567 139.647 239.846V240.022C140.586 240.271 141.341 240.704 141.913 241.32C142.485 241.936 142.771 242.772 142.771 243.828C142.771 244.458 142.654 245.045 142.419 245.588C142.199 246.13 141.862 246.6 141.407 246.996C140.953 247.392 140.388 247.707 139.713 247.942C139.053 248.162 138.276 248.272 137.381 248.272ZM137.381 246.71C138.467 246.71 139.317 246.468 139.933 245.984C140.549 245.5 140.857 244.818 140.857 243.938V243.454C140.857 242.574 140.549 241.892 139.933 241.408C139.332 240.924 138.481 240.682 137.381 240.682C136.281 240.682 135.423 240.924 134.807 241.408C134.206 241.892 133.905 242.574 133.905 243.454V243.938C133.905 244.818 134.213 245.5 134.829 245.984C135.445 246.468 136.296 246.71 137.381 246.71ZM137.381 239.186C138.379 239.186 139.134 238.973 139.647 238.548C140.175 238.122 140.439 237.514 140.439 236.722V236.414C140.439 235.622 140.168 235.013 139.625 234.588C139.097 234.162 138.349 233.95 137.381 233.95C136.413 233.95 135.658 234.162 135.115 234.588C134.587 235.013 134.323 235.622 134.323 236.414V236.722C134.323 237.514 134.58 238.122 135.093 238.548C135.621 238.973 136.384 239.186 137.381 239.186ZM150.573 248.272C149.678 248.272 148.893 248.162 148.219 247.942C147.544 247.707 146.979 247.392 146.525 246.996C146.085 246.6 145.747 246.13 145.513 245.588C145.293 245.045 145.183 244.458 145.183 243.828C145.183 242.772 145.469 241.936 146.041 241.32C146.613 240.704 147.368 240.271 148.307 240.022V239.846C147.485 239.567 146.833 239.12 146.349 238.504C145.879 237.873 145.645 237.118 145.645 236.238C145.645 235.064 146.077 234.133 146.943 233.444C147.808 232.74 149.018 232.388 150.573 232.388C152.127 232.388 153.337 232.74 154.203 233.444C155.068 234.133 155.501 235.064 155.501 236.238C155.501 237.118 155.259 237.873 154.775 238.504C154.305 239.12 153.66 239.567 152.839 239.846V240.022C153.777 240.271 154.533 240.704 155.105 241.32C155.677 241.936 155.963 242.772 155.963 243.828C155.963 244.458 155.845 245.045 155.611 245.588C155.391 246.13 155.053 246.6 154.599 246.996C154.144 247.392 153.579 247.707 152.905 247.942C152.245 248.162 151.467 248.272 150.573 248.272ZM150.573 246.71C151.658 246.71 152.509 246.468 153.125 245.984C153.741 245.5 154.049 244.818 154.049 243.938V243.454C154.049 242.574 153.741 241.892 153.125 241.408C152.523 240.924 151.673 240.682 150.573 240.682C149.473 240.682 148.615 240.924 147.999 241.408C147.397 241.892 147.097 242.574 147.097 243.454V243.938C147.097 244.818 147.405 245.5 148.021 245.984C148.637 246.468 149.487 246.71 150.573 246.71ZM150.573 239.186C151.57 239.186 152.325 238.973 152.839 238.548C153.367 238.122 153.631 237.514 153.631 236.722V236.414C153.631 235.622 153.359 235.013 152.817 234.588C152.289 234.162 151.541 233.95 150.573 233.95C149.605 233.95 148.849 234.162 148.307 234.588C147.779 235.013 147.515 235.622 147.515 236.414V236.722C147.515 237.514 147.771 238.122 148.285 238.548C148.813 238.973 149.575 239.186 150.573 239.186ZM160.97 248.008L166.976 234.236H160.244V237.096H158.594V232.652H168.846V234.28L162.95 248.008H160.97ZM176.977 248.272C176.171 248.272 175.445 248.14 174.799 247.876C174.154 247.597 173.604 247.208 173.149 246.71C172.709 246.196 172.365 245.573 172.115 244.84C171.881 244.106 171.763 243.285 171.763 242.376C171.763 241.232 171.932 240.161 172.269 239.164C172.621 238.152 173.061 237.235 173.589 236.414C174.132 235.578 174.733 234.844 175.393 234.214C176.053 233.568 176.699 233.048 177.329 232.652H179.705C178.869 233.253 178.121 233.84 177.461 234.412C176.816 234.984 176.244 235.585 175.745 236.216C175.247 236.832 174.829 237.499 174.491 238.218C174.154 238.922 173.875 239.721 173.655 240.616L173.765 240.66C174.132 240.029 174.616 239.508 175.217 239.098C175.819 238.672 176.596 238.46 177.549 238.46C178.224 238.46 178.84 238.57 179.397 238.79C179.955 239.01 180.439 239.325 180.849 239.736C181.26 240.146 181.575 240.645 181.795 241.232C182.03 241.818 182.147 242.471 182.147 243.19C182.147 243.938 182.023 244.627 181.773 245.258C181.524 245.874 181.172 246.409 180.717 246.864C180.277 247.304 179.735 247.648 179.089 247.898C178.459 248.147 177.755 248.272 176.977 248.272ZM176.955 246.71C178.011 246.71 178.825 246.424 179.397 245.852C179.984 245.28 180.277 244.473 180.277 243.432V243.256C180.277 242.214 179.984 241.408 179.397 240.836C178.825 240.264 178.011 239.978 176.955 239.978C175.899 239.978 175.078 240.264 174.491 240.836C173.919 241.408 173.633 242.214 173.633 243.256V243.432C173.633 244.473 173.919 245.28 174.491 245.852C175.078 246.424 175.899 246.71 176.955 246.71ZM194.569 234.258H187.705L187.265 240.132H187.419C187.8 239.618 188.226 239.215 188.695 238.922C189.164 238.614 189.81 238.46 190.631 238.46C191.306 238.46 191.922 238.57 192.479 238.79C193.051 238.995 193.542 239.303 193.953 239.714C194.364 240.124 194.686 240.623 194.921 241.21C195.156 241.782 195.273 242.442 195.273 243.19C195.273 243.938 195.156 244.627 194.921 245.258C194.686 245.874 194.342 246.409 193.887 246.864C193.432 247.304 192.882 247.648 192.237 247.898C191.592 248.147 190.858 248.272 190.037 248.272C189.392 248.272 188.812 248.198 188.299 248.052C187.8 247.905 187.353 247.707 186.957 247.458C186.576 247.208 186.238 246.93 185.945 246.622C185.652 246.314 185.388 245.991 185.153 245.654L186.539 244.598C186.744 244.906 186.95 245.184 187.155 245.434C187.375 245.683 187.624 245.903 187.903 246.094C188.182 246.27 188.497 246.409 188.849 246.512C189.201 246.614 189.612 246.666 190.081 246.666C191.137 246.666 191.944 246.38 192.501 245.808C193.073 245.236 193.359 244.444 193.359 243.432V243.256C193.359 242.244 193.073 241.452 192.501 240.88C191.929 240.308 191.108 240.022 190.037 240.022C189.304 240.022 188.732 240.146 188.321 240.396C187.925 240.645 187.558 240.953 187.221 241.32L185.659 241.1L186.209 232.652H194.569V234.258Z" fill="#C1E6F4"/>
<g filter="url(#filter1_b_225_165470)">
<rect x="64" y="208.008" width="178" height="63" fill="#051116" fill-opacity="0.1"/>
</g>
</g>
<rect x="63.375" y="209.047" width="178" height="62" rx="4.52421" stroke="url(#paint3_linear_225_165470)" stroke-width="0.904842"/>
<g clip-path="url(#clip2_225_165470)">
<rect x="63.375" y="282.047" width="178" height="62" rx="4.52421" fill="#041116"/>
<path d="M86.3316 321.008V317.994H78.7636V316.366L85.4076 305.652H88.0916V316.476H90.3796V317.994H88.0916V321.008H86.3316ZM80.4136 316.476H86.3316V307.082H86.2436L80.4136 316.476ZM102.229 307.258H95.365L94.925 313.132H95.079C95.4604 312.618 95.8857 312.215 96.355 311.922C96.8244 311.614 97.4697 311.46 98.291 311.46C98.9657 311.46 99.5817 311.57 100.139 311.79C100.711 311.995 101.202 312.303 101.613 312.714C102.024 313.124 102.346 313.623 102.581 314.21C102.816 314.782 102.933 315.442 102.933 316.19C102.933 316.938 102.816 317.627 102.581 318.258C102.346 318.874 102.002 319.409 101.547 319.864C101.092 320.304 100.542 320.648 99.897 320.898C99.2517 321.147 98.5184 321.272 97.697 321.272C97.0517 321.272 96.4724 321.198 95.959 321.052C95.4604 320.905 95.013 320.707 94.617 320.458C94.2357 320.208 93.8984 319.93 93.605 319.622C93.3117 319.314 93.0477 318.991 92.813 318.654L94.199 317.598C94.4044 317.906 94.6097 318.184 94.815 318.434C95.035 318.683 95.2844 318.903 95.563 319.094C95.8417 319.27 96.157 319.409 96.509 319.512C96.861 319.614 97.2717 319.666 97.741 319.666C98.797 319.666 99.6037 319.38 100.161 318.808C100.733 318.236 101.019 317.444 101.019 316.432V316.256C101.019 315.244 100.733 314.452 100.161 313.88C99.589 313.308 98.7677 313.022 97.697 313.022C96.9637 313.022 96.3917 313.146 95.981 313.396C95.585 313.645 95.2184 313.953 94.881 314.32L93.319 314.1L93.869 305.652H102.229V307.258ZM111.02 321.272C110.214 321.272 109.488 321.14 108.842 320.876C108.197 320.597 107.647 320.208 107.192 319.71C106.752 319.196 106.408 318.573 106.158 317.84C105.924 317.106 105.806 316.285 105.806 315.376C105.806 314.232 105.975 313.161 106.312 312.164C106.664 311.152 107.104 310.235 107.632 309.414C108.175 308.578 108.776 307.844 109.436 307.214C110.096 306.568 110.742 306.048 111.372 305.652H113.748C112.912 306.253 112.164 306.84 111.504 307.412C110.859 307.984 110.287 308.585 109.788 309.216C109.29 309.832 108.872 310.499 108.534 311.218C108.197 311.922 107.918 312.721 107.698 313.616L107.808 313.66C108.175 313.029 108.659 312.508 109.26 312.098C109.862 311.672 110.639 311.46 111.592 311.46C112.267 311.46 112.883 311.57 113.44 311.79C113.998 312.01 114.482 312.325 114.892 312.736C115.303 313.146 115.618 313.645 115.838 314.232C116.073 314.818 116.19 315.471 116.19 316.19C116.19 316.938 116.066 317.627 115.816 318.258C115.567 318.874 115.215 319.409 114.76 319.864C114.32 320.304 113.778 320.648 113.132 320.898C112.502 321.147 111.798 321.272 111.02 321.272ZM110.998 319.71C112.054 319.71 112.868 319.424 113.44 318.852C114.027 318.28 114.32 317.473 114.32 316.432V316.256C114.32 315.214 114.027 314.408 113.44 313.836C112.868 313.264 112.054 312.978 110.998 312.978C109.942 312.978 109.121 313.264 108.534 313.836C107.962 314.408 107.676 315.214 107.676 316.256V316.432C107.676 317.473 107.962 318.28 108.534 318.852C109.121 319.424 109.942 319.71 110.998 319.71ZM121.396 321.008L127.402 307.236H120.67V310.096H119.02V305.652H129.272V307.28L123.376 321.008H121.396ZM137.381 321.272C136.487 321.272 135.702 321.162 135.027 320.942C134.353 320.707 133.788 320.392 133.333 319.996C132.893 319.6 132.556 319.13 132.321 318.588C132.101 318.045 131.991 317.458 131.991 316.828C131.991 315.772 132.277 314.936 132.849 314.32C133.421 313.704 134.177 313.271 135.115 313.022V312.846C134.294 312.567 133.641 312.12 133.157 311.504C132.688 310.873 132.453 310.118 132.453 309.238C132.453 308.064 132.886 307.133 133.751 306.444C134.617 305.74 135.827 305.388 137.381 305.388C138.936 305.388 140.146 305.74 141.011 306.444C141.877 307.133 142.309 308.064 142.309 309.238C142.309 310.118 142.067 310.873 141.583 311.504C141.114 312.12 140.469 312.567 139.647 312.846V313.022C140.586 313.271 141.341 313.704 141.913 314.32C142.485 314.936 142.771 315.772 142.771 316.828C142.771 317.458 142.654 318.045 142.419 318.588C142.199 319.13 141.862 319.6 141.407 319.996C140.953 320.392 140.388 320.707 139.713 320.942C139.053 321.162 138.276 321.272 137.381 321.272ZM137.381 319.71C138.467 319.71 139.317 319.468 139.933 318.984C140.549 318.5 140.857 317.818 140.857 316.938V316.454C140.857 315.574 140.549 314.892 139.933 314.408C139.332 313.924 138.481 313.682 137.381 313.682C136.281 313.682 135.423 313.924 134.807 314.408C134.206 314.892 133.905 315.574 133.905 316.454V316.938C133.905 317.818 134.213 318.5 134.829 318.984C135.445 319.468 136.296 319.71 137.381 319.71ZM137.381 312.186C138.379 312.186 139.134 311.973 139.647 311.548C140.175 311.122 140.439 310.514 140.439 309.722V309.414C140.439 308.622 140.168 308.013 139.625 307.588C139.097 307.162 138.349 306.95 137.381 306.95C136.413 306.95 135.658 307.162 135.115 307.588C134.587 308.013 134.323 308.622 134.323 309.414V309.722C134.323 310.514 134.58 311.122 135.093 311.548C135.621 311.973 136.384 312.186 137.381 312.186ZM150.573 321.272C149.678 321.272 148.893 321.162 148.219 320.942C147.544 320.707 146.979 320.392 146.525 319.996C146.085 319.6 145.747 319.13 145.513 318.588C145.293 318.045 145.183 317.458 145.183 316.828C145.183 315.772 145.469 314.936 146.041 314.32C146.613 313.704 147.368 313.271 148.307 313.022V312.846C147.485 312.567 146.833 312.12 146.349 311.504C145.879 310.873 145.645 310.118 145.645 309.238C145.645 308.064 146.077 307.133 146.943 306.444C147.808 305.74 149.018 305.388 150.573 305.388C152.127 305.388 153.337 305.74 154.203 306.444C155.068 307.133 155.501 308.064 155.501 309.238C155.501 310.118 155.259 310.873 154.775 311.504C154.305 312.12 153.66 312.567 152.839 312.846V313.022C153.777 313.271 154.533 313.704 155.105 314.32C155.677 314.936 155.963 315.772 155.963 316.828C155.963 317.458 155.845 318.045 155.611 318.588C155.391 319.13 155.053 319.6 154.599 319.996C154.144 320.392 153.579 320.707 152.905 320.942C152.245 321.162 151.467 321.272 150.573 321.272ZM150.573 319.71C151.658 319.71 152.509 319.468 153.125 318.984C153.741 318.5 154.049 317.818 154.049 316.938V316.454C154.049 315.574 153.741 314.892 153.125 314.408C152.523 313.924 151.673 313.682 150.573 313.682C149.473 313.682 148.615 313.924 147.999 314.408C147.397 314.892 147.097 315.574 147.097 316.454V316.938C147.097 317.818 147.405 318.5 148.021 318.984C148.637 319.468 149.487 319.71 150.573 319.71ZM150.573 312.186C151.57 312.186 152.325 311.973 152.839 311.548C153.367 311.122 153.631 310.514 153.631 309.722V309.414C153.631 308.622 153.359 308.013 152.817 307.588C152.289 307.162 151.541 306.95 150.573 306.95C149.605 306.95 148.849 307.162 148.307 307.588C147.779 308.013 147.515 308.622 147.515 309.414V309.722C147.515 310.514 147.771 311.122 148.285 311.548C148.813 311.973 149.575 312.186 150.573 312.186ZM160.97 321.008L166.976 307.236H160.244V310.096H158.594V305.652H168.846V307.28L162.95 321.008H160.97ZM176.977 321.272C176.171 321.272 175.445 321.14 174.799 320.876C174.154 320.597 173.604 320.208 173.149 319.71C172.709 319.196 172.365 318.573 172.115 317.84C171.881 317.106 171.763 316.285 171.763 315.376C171.763 314.232 171.932 313.161 172.269 312.164C172.621 311.152 173.061 310.235 173.589 309.414C174.132 308.578 174.733 307.844 175.393 307.214C176.053 306.568 176.699 306.048 177.329 305.652H179.705C178.869 306.253 178.121 306.84 177.461 307.412C176.816 307.984 176.244 308.585 175.745 309.216C175.247 309.832 174.829 310.499 174.491 311.218C174.154 311.922 173.875 312.721 173.655 313.616L173.765 313.66C174.132 313.029 174.616 312.508 175.217 312.098C175.819 311.672 176.596 311.46 177.549 311.46C178.224 311.46 178.84 311.57 179.397 311.79C179.955 312.01 180.439 312.325 180.849 312.736C181.26 313.146 181.575 313.645 181.795 314.232C182.03 314.818 182.147 315.471 182.147 316.19C182.147 316.938 182.023 317.627 181.773 318.258C181.524 318.874 181.172 319.409 180.717 319.864C180.277 320.304 179.735 320.648 179.089 320.898C178.459 321.147 177.755 321.272 176.977 321.272ZM176.955 319.71C178.011 319.71 178.825 319.424 179.397 318.852C179.984 318.28 180.277 317.473 180.277 316.432V316.256C180.277 315.214 179.984 314.408 179.397 313.836C178.825 313.264 178.011 312.978 176.955 312.978C175.899 312.978 175.078 313.264 174.491 313.836C173.919 314.408 173.633 315.214 173.633 316.256V316.432C173.633 317.473 173.919 318.28 174.491 318.852C175.078 319.424 175.899 319.71 176.955 319.71ZM194.569 307.258H187.705L187.265 313.132H187.419C187.8 312.618 188.226 312.215 188.695 311.922C189.164 311.614 189.81 311.46 190.631 311.46C191.306 311.46 191.922 311.57 192.479 311.79C193.051 311.995 193.542 312.303 193.953 312.714C194.364 313.124 194.686 313.623 194.921 314.21C195.156 314.782 195.273 315.442 195.273 316.19C195.273 316.938 195.156 317.627 194.921 318.258C194.686 318.874 194.342 319.409 193.887 319.864C193.432 320.304 192.882 320.648 192.237 320.898C191.592 321.147 190.858 321.272 190.037 321.272C189.392 321.272 188.812 321.198 188.299 321.052C187.8 320.905 187.353 320.707 186.957 320.458C186.576 320.208 186.238 319.93 185.945 319.622C185.652 319.314 185.388 318.991 185.153 318.654L186.539 317.598C186.744 317.906 186.95 318.184 187.155 318.434C187.375 318.683 187.624 318.903 187.903 319.094C188.182 319.27 188.497 319.409 188.849 319.512C189.201 319.614 189.612 319.666 190.081 319.666C191.137 319.666 191.944 319.38 192.501 318.808C193.073 318.236 193.359 317.444 193.359 316.432V316.256C193.359 315.244 193.073 314.452 192.501 313.88C191.929 313.308 191.108 313.022 190.037 313.022C189.304 313.022 188.732 313.146 188.321 313.396C187.925 313.645 187.558 313.953 187.221 314.32L185.659 314.1L186.209 305.652H194.569V307.258Z" fill="#C1E6F4"/>
<g filter="url(#filter2_b_225_165470)">
<rect x="64" y="281.008" width="178" height="63" fill="#051116" fill-opacity="0.1"/>
</g>
</g>
<rect x="63.375" y="282.047" width="178" height="62" rx="4.52421" stroke="url(#paint4_linear_225_165470)" stroke-width="0.904842"/>
<g clip-path="url(#clip3_225_165470)">
<rect x="63.375" y="355.047" width="178" height="62" rx="4.52421" fill="#041116"/>
<path d="M89.0376 380.258H82.1736L81.7336 386.132H81.8876C82.269 385.618 82.6943 385.215 83.1636 384.922C83.633 384.614 84.2783 384.46 85.0996 384.46C85.7743 384.46 86.3903 384.57 86.9476 384.79C87.5196 384.995 88.011 385.303 88.4216 385.714C88.8323 386.124 89.155 386.623 89.3896 387.21C89.6243 387.782 89.7416 388.442 89.7416 389.19C89.7416 389.938 89.6243 390.627 89.3896 391.258C89.155 391.874 88.8103 392.409 88.3556 392.864C87.901 393.304 87.351 393.648 86.7056 393.898C86.0603 394.147 85.327 394.272 84.5056 394.272C83.8603 394.272 83.281 394.198 82.7676 394.052C82.269 393.905 81.8216 393.707 81.4256 393.458C81.0443 393.208 80.707 392.93 80.4136 392.622C80.1203 392.314 79.8563 391.991 79.6216 391.654L81.0076 390.598C81.213 390.906 81.4183 391.184 81.6236 391.434C81.8436 391.683 82.093 391.903 82.3716 392.094C82.6503 392.27 82.9656 392.409 83.3176 392.512C83.6696 392.614 84.0803 392.666 84.5496 392.666C85.6056 392.666 86.4123 392.38 86.9696 391.808C87.5416 391.236 87.8276 390.444 87.8276 389.432V389.256C87.8276 388.244 87.5416 387.452 86.9696 386.88C86.3976 386.308 85.5763 386.022 84.5056 386.022C83.7723 386.022 83.2003 386.146 82.7896 386.396C82.3936 386.645 82.027 386.953 81.6896 387.32L80.1276 387.1L80.6776 378.652H89.0376V380.258ZM97.829 394.272C97.0224 394.272 96.2964 394.14 95.651 393.876C95.0057 393.597 94.4557 393.208 94.001 392.71C93.561 392.196 93.2164 391.573 92.967 390.84C92.7324 390.106 92.615 389.285 92.615 388.376C92.615 387.232 92.7837 386.161 93.121 385.164C93.473 384.152 93.913 383.235 94.441 382.414C94.9837 381.578 95.585 380.844 96.245 380.214C96.905 379.568 97.5504 379.048 98.181 378.652H100.557C99.721 379.253 98.973 379.84 98.313 380.412C97.6677 380.984 97.0957 381.585 96.597 382.216C96.0984 382.832 95.6804 383.499 95.343 384.218C95.0057 384.922 94.727 385.721 94.507 386.616L94.617 386.66C94.9837 386.029 95.4677 385.508 96.069 385.098C96.6704 384.672 97.4477 384.46 98.401 384.46C99.0757 384.46 99.6917 384.57 100.249 384.79C100.806 385.01 101.29 385.325 101.701 385.736C102.112 386.146 102.427 386.645 102.647 387.232C102.882 387.818 102.999 388.471 102.999 389.19C102.999 389.938 102.874 390.627 102.625 391.258C102.376 391.874 102.024 392.409 101.569 392.864C101.129 393.304 100.586 393.648 99.941 393.898C99.3104 394.147 98.6064 394.272 97.829 394.272ZM97.807 392.71C98.863 392.71 99.677 392.424 100.249 391.852C100.836 391.28 101.129 390.473 101.129 389.432V389.256C101.129 388.214 100.836 387.408 100.249 386.836C99.677 386.264 98.863 385.978 97.807 385.978C96.751 385.978 95.9297 386.264 95.343 386.836C94.771 387.408 94.485 388.214 94.485 389.256V389.432C94.485 390.473 94.771 391.28 95.343 391.852C95.9297 392.424 96.751 392.71 97.807 392.71ZM108.204 394.008L114.21 380.236H107.478V383.096H105.828V378.652H116.08V380.28L110.184 394.008H108.204ZM124.19 394.272C123.295 394.272 122.511 394.162 121.836 393.942C121.161 393.707 120.597 393.392 120.142 392.996C119.702 392.6 119.365 392.13 119.13 391.588C118.91 391.045 118.8 390.458 118.8 389.828C118.8 388.772 119.086 387.936 119.658 387.32C120.23 386.704 120.985 386.271 121.924 386.022V385.846C121.103 385.567 120.45 385.12 119.966 384.504C119.497 383.873 119.262 383.118 119.262 382.238C119.262 381.064 119.695 380.133 120.56 379.444C121.425 378.74 122.635 378.388 124.19 378.388C125.745 378.388 126.955 378.74 127.82 379.444C128.685 380.133 129.118 381.064 129.118 382.238C129.118 383.118 128.876 383.873 128.392 384.504C127.923 385.12 127.277 385.567 126.456 385.846V386.022C127.395 386.271 128.15 386.704 128.722 387.32C129.294 387.936 129.58 388.772 129.58 389.828C129.58 390.458 129.463 391.045 129.228 391.588C129.008 392.13 128.671 392.6 128.216 392.996C127.761 393.392 127.197 393.707 126.522 393.942C125.862 394.162 125.085 394.272 124.19 394.272ZM124.19 392.71C125.275 392.71 126.126 392.468 126.742 391.984C127.358 391.5 127.666 390.818 127.666 389.938V389.454C127.666 388.574 127.358 387.892 126.742 387.408C126.141 386.924 125.29 386.682 124.19 386.682C123.09 386.682 122.232 386.924 121.616 387.408C121.015 387.892 120.714 388.574 120.714 389.454V389.938C120.714 390.818 121.022 391.5 121.638 391.984C122.254 392.468 123.105 392.71 124.19 392.71ZM124.19 385.186C125.187 385.186 125.943 384.973 126.456 384.548C126.984 384.122 127.248 383.514 127.248 382.722V382.414C127.248 381.622 126.977 381.013 126.434 380.588C125.906 380.162 125.158 379.95 124.19 379.95C123.222 379.95 122.467 380.162 121.924 380.588C121.396 381.013 121.132 381.622 121.132 382.414V382.722C121.132 383.514 121.389 384.122 121.902 384.548C122.43 384.973 123.193 385.186 124.19 385.186ZM137.381 394.272C136.487 394.272 135.702 394.162 135.027 393.942C134.353 393.707 133.788 393.392 133.333 392.996C132.893 392.6 132.556 392.13 132.321 391.588C132.101 391.045 131.991 390.458 131.991 389.828C131.991 388.772 132.277 387.936 132.849 387.32C133.421 386.704 134.177 386.271 135.115 386.022V385.846C134.294 385.567 133.641 385.12 133.157 384.504C132.688 383.873 132.453 383.118 132.453 382.238C132.453 381.064 132.886 380.133 133.751 379.444C134.617 378.74 135.827 378.388 137.381 378.388C138.936 378.388 140.146 378.74 141.011 379.444C141.877 380.133 142.309 381.064 142.309 382.238C142.309 383.118 142.067 383.873 141.583 384.504C141.114 385.12 140.469 385.567 139.647 385.846V386.022C140.586 386.271 141.341 386.704 141.913 387.32C142.485 387.936 142.771 388.772 142.771 389.828C142.771 390.458 142.654 391.045 142.419 391.588C142.199 392.13 141.862 392.6 141.407 392.996C140.953 393.392 140.388 393.707 139.713 393.942C139.053 394.162 138.276 394.272 137.381 394.272ZM137.381 392.71C138.467 392.71 139.317 392.468 139.933 391.984C140.549 391.5 140.857 390.818 140.857 389.938V389.454C140.857 388.574 140.549 387.892 139.933 387.408C139.332 386.924 138.481 386.682 137.381 386.682C136.281 386.682 135.423 386.924 134.807 387.408C134.206 387.892 133.905 388.574 133.905 389.454V389.938C133.905 390.818 134.213 391.5 134.829 391.984C135.445 392.468 136.296 392.71 137.381 392.71ZM137.381 385.186C138.379 385.186 139.134 384.973 139.647 384.548C140.175 384.122 140.439 383.514 140.439 382.722V382.414C140.439 381.622 140.168 381.013 139.625 380.588C139.097 380.162 138.349 379.95 137.381 379.95C136.413 379.95 135.658 380.162 135.115 380.588C134.587 381.013 134.323 381.622 134.323 382.414V382.722C134.323 383.514 134.58 384.122 135.093 384.548C135.621 384.973 136.384 385.186 137.381 385.186ZM150.573 394.272C149.678 394.272 148.893 394.162 148.219 393.942C147.544 393.707 146.979 393.392 146.525 392.996C146.085 392.6 145.747 392.13 145.513 391.588C145.293 391.045 145.183 390.458 145.183 389.828C145.183 388.772 145.469 387.936 146.041 387.32C146.613 386.704 147.368 386.271 148.307 386.022V385.846C147.485 385.567 146.833 385.12 146.349 384.504C145.879 383.873 145.645 383.118 145.645 382.238C145.645 381.064 146.077 380.133 146.943 379.444C147.808 378.74 149.018 378.388 150.573 378.388C152.127 378.388 153.337 378.74 154.203 379.444C155.068 380.133 155.501 381.064 155.501 382.238C155.501 383.118 155.259 383.873 154.775 384.504C154.305 385.12 153.66 385.567 152.839 385.846V386.022C153.777 386.271 154.533 386.704 155.105 387.32C155.677 387.936 155.963 388.772 155.963 389.828C155.963 390.458 155.845 391.045 155.611 391.588C155.391 392.13 155.053 392.6 154.599 392.996C154.144 393.392 153.579 393.707 152.905 393.942C152.245 394.162 151.467 394.272 150.573 394.272ZM150.573 392.71C151.658 392.71 152.509 392.468 153.125 391.984C153.741 391.5 154.049 390.818 154.049 389.938V389.454C154.049 388.574 153.741 387.892 153.125 387.408C152.523 386.924 151.673 386.682 150.573 386.682C149.473 386.682 148.615 386.924 147.999 387.408C147.397 387.892 147.097 388.574 147.097 389.454V389.938C147.097 390.818 147.405 391.5 148.021 391.984C148.637 392.468 149.487 392.71 150.573 392.71ZM150.573 385.186C151.57 385.186 152.325 384.973 152.839 384.548C153.367 384.122 153.631 383.514 153.631 382.722V382.414C153.631 381.622 153.359 381.013 152.817 380.588C152.289 380.162 151.541 379.95 150.573 379.95C149.605 379.95 148.849 380.162 148.307 380.588C147.779 381.013 147.515 381.622 147.515 382.414V382.722C147.515 383.514 147.771 384.122 148.285 384.548C148.813 384.973 149.575 385.186 150.573 385.186ZM163.764 394.272C162.825 394.272 162.019 394.096 161.344 393.744C160.669 393.377 160.112 392.856 159.672 392.182C159.232 391.507 158.909 390.678 158.704 389.696C158.499 388.713 158.396 387.591 158.396 386.33C158.396 385.083 158.499 383.968 158.704 382.986C158.909 381.988 159.232 381.152 159.672 380.478C160.112 379.803 160.669 379.29 161.344 378.938C162.019 378.571 162.825 378.388 163.764 378.388C164.703 378.388 165.509 378.571 166.184 378.938C166.859 379.29 167.416 379.803 167.856 380.478C168.296 381.152 168.619 381.988 168.824 382.986C169.029 383.968 169.132 385.083 169.132 386.33C169.132 387.591 169.029 388.713 168.824 389.696C168.619 390.678 168.296 391.507 167.856 392.182C167.416 392.856 166.859 393.377 166.184 393.744C165.509 394.096 164.703 394.272 163.764 394.272ZM163.764 392.666C164.38 392.666 164.908 392.548 165.348 392.314C165.788 392.064 166.14 391.72 166.404 391.28C166.683 390.84 166.888 390.312 167.02 389.696C167.152 389.065 167.218 388.361 167.218 387.584V385.076C167.218 384.313 167.152 383.616 167.02 382.986C166.888 382.355 166.683 381.82 166.404 381.38C166.14 380.94 165.788 380.602 165.348 380.368C164.908 380.118 164.38 379.994 163.764 379.994C163.148 379.994 162.62 380.118 162.18 380.368C161.74 380.602 161.381 380.94 161.102 381.38C160.838 381.82 160.64 382.355 160.508 382.986C160.376 383.616 160.31 384.313 160.31 385.076V387.584C160.31 388.361 160.376 389.065 160.508 389.696C160.64 390.312 160.838 390.84 161.102 391.28C161.381 391.72 161.74 392.064 162.18 392.314C162.62 392.548 163.148 392.666 163.764 392.666ZM163.764 387.628C163.251 387.628 162.891 387.525 162.686 387.32C162.495 387.114 162.4 386.865 162.4 386.572V386.088C162.4 385.794 162.495 385.545 162.686 385.34C162.891 385.134 163.251 385.032 163.764 385.032C164.277 385.032 164.629 385.134 164.82 385.34C165.025 385.545 165.128 385.794 165.128 386.088V386.572C165.128 386.865 165.025 387.114 164.82 387.32C164.629 387.525 164.277 387.628 163.764 387.628Z" fill="#C1E6F4"/>
<g filter="url(#filter3_b_225_165470)">
<rect x="64" y="354.008" width="178" height="63" fill="#051116" fill-opacity="0.1"/>
</g>
</g>
<rect x="63.375" y="355.047" width="178" height="62" rx="4.52421" stroke="url(#paint5_linear_225_165470)" stroke-width="0.904842"/>
<rect x="250.375" y="209.047" width="178.223" height="62.53" rx="4.52421" fill="#041116" stroke="url(#paint6_linear_225_165470)" stroke-width="0.904842"/>
<path d="M290.777 251.549V248.535H283.209V246.907L289.853 236.193H292.537V247.017H294.825V248.535H292.537V251.549H290.777ZM284.859 247.017H290.777V237.623H290.689L284.859 247.017ZM306.674 237.799H299.81L299.37 243.673H299.524C299.906 243.159 300.331 242.756 300.8 242.463C301.27 242.155 301.915 242.001 302.736 242.001C303.411 242.001 304.027 242.111 304.584 242.331C305.156 242.536 305.648 242.844 306.058 243.255C306.469 243.665 306.792 244.164 307.026 244.751C307.261 245.323 307.378 245.983 307.378 246.731C307.378 247.479 307.261 248.168 307.026 248.799C306.792 249.415 306.447 249.95 305.992 250.405C305.538 250.845 304.988 251.189 304.342 251.439C303.697 251.688 302.964 251.813 302.142 251.813C301.497 251.813 300.918 251.739 300.404 251.593C299.906 251.446 299.458 251.248 299.062 250.999C298.681 250.749 298.344 250.471 298.05 250.163C297.757 249.855 297.493 249.532 297.258 249.195L298.644 248.139C298.85 248.447 299.055 248.725 299.26 248.975C299.48 249.224 299.73 249.444 300.008 249.635C300.287 249.811 300.602 249.95 300.954 250.053C301.306 250.155 301.717 250.207 302.186 250.207C303.242 250.207 304.049 249.921 304.606 249.349C305.178 248.777 305.464 247.985 305.464 246.973V246.797C305.464 245.785 305.178 244.993 304.606 244.421C304.034 243.849 303.213 243.563 302.142 243.563C301.409 243.563 300.837 243.687 300.426 243.937C300.03 244.186 299.664 244.494 299.326 244.861L297.764 244.641L298.314 236.193H306.674V237.799ZM315.466 251.813C314.659 251.813 313.933 251.681 313.288 251.417C312.642 251.138 312.092 250.749 311.638 250.251C311.198 249.737 310.853 249.114 310.604 248.381C310.369 247.647 310.252 246.826 310.252 245.917C310.252 244.773 310.42 243.702 310.758 242.705C311.11 241.693 311.55 240.776 312.078 239.955C312.62 239.119 313.222 238.385 313.882 237.755C314.542 237.109 315.187 236.589 315.818 236.193H318.194C317.358 236.794 316.61 237.381 315.95 237.953C315.304 238.525 314.732 239.126 314.234 239.757C313.735 240.373 313.317 241.04 312.98 241.759C312.642 242.463 312.364 243.262 312.144 244.157L312.254 244.201C312.62 243.57 313.104 243.049 313.706 242.639C314.307 242.213 315.084 242.001 316.038 242.001C316.712 242.001 317.328 242.111 317.886 242.331C318.443 242.551 318.927 242.866 319.338 243.277C319.748 243.687 320.064 244.186 320.284 244.773C320.518 245.359 320.636 246.012 320.636 246.731C320.636 247.479 320.511 248.168 320.262 248.799C320.012 249.415 319.66 249.95 319.206 250.405C318.766 250.845 318.223 251.189 317.578 251.439C316.947 251.688 316.243 251.813 315.466 251.813ZM315.444 250.251C316.5 250.251 317.314 249.965 317.886 249.393C318.472 248.821 318.766 248.014 318.766 246.973V246.797C318.766 245.755 318.472 244.949 317.886 244.377C317.314 243.805 316.5 243.519 315.444 243.519C314.388 243.519 313.566 243.805 312.98 244.377C312.408 244.949 312.122 245.755 312.122 246.797V246.973C312.122 248.014 312.408 248.821 312.98 249.393C313.566 249.965 314.388 250.251 315.444 250.251ZM325.841 251.549L331.847 237.777H325.115V240.637H323.465V236.193H333.717V237.821L327.821 251.549H325.841ZM341.827 251.813C340.932 251.813 340.147 251.703 339.473 251.483C338.798 251.248 338.233 250.933 337.779 250.537C337.339 250.141 337.001 249.671 336.767 249.129C336.547 248.586 336.437 247.999 336.437 247.369C336.437 246.313 336.723 245.477 337.295 244.861C337.867 244.245 338.622 243.812 339.561 243.563V243.387C338.739 243.108 338.087 242.661 337.603 242.045C337.133 241.414 336.899 240.659 336.899 239.779C336.899 238.605 337.331 237.674 338.197 236.985C339.062 236.281 340.272 235.929 341.827 235.929C343.381 235.929 344.591 236.281 345.457 236.985C346.322 237.674 346.755 238.605 346.755 239.779C346.755 240.659 346.513 241.414 346.029 242.045C345.559 242.661 344.914 243.108 344.093 243.387V243.563C345.031 243.812 345.787 244.245 346.359 244.861C346.931 245.477 347.217 246.313 347.217 247.369C347.217 247.999 347.099 248.586 346.865 249.129C346.645 249.671 346.307 250.141 345.853 250.537C345.398 250.933 344.833 251.248 344.159 251.483C343.499 251.703 342.721 251.813 341.827 251.813ZM341.827 250.251C342.912 250.251 343.763 250.009 344.379 249.525C344.995 249.041 345.303 248.359 345.303 247.479V246.995C345.303 246.115 344.995 245.433 344.379 244.949C343.777 244.465 342.927 244.223 341.827 244.223C340.727 244.223 339.869 244.465 339.253 244.949C338.651 245.433 338.351 246.115 338.351 246.995V247.479C338.351 248.359 338.659 249.041 339.275 249.525C339.891 250.009 340.741 250.251 341.827 250.251ZM341.827 242.727C342.824 242.727 343.579 242.514 344.093 242.089C344.621 241.663 344.885 241.055 344.885 240.263V239.955C344.885 239.163 344.613 238.554 344.071 238.129C343.543 237.703 342.795 237.491 341.827 237.491C340.859 237.491 340.103 237.703 339.561 238.129C339.033 238.554 338.769 239.163 338.769 239.955V240.263C338.769 241.055 339.025 241.663 339.539 242.089C340.067 242.514 340.829 242.727 341.827 242.727ZM355.018 251.813C354.123 251.813 353.339 251.703 352.664 251.483C351.989 251.248 351.425 250.933 350.97 250.537C350.53 250.141 350.193 249.671 349.958 249.129C349.738 248.586 349.628 247.999 349.628 247.369C349.628 246.313 349.914 245.477 350.486 244.861C351.058 244.245 351.813 243.812 352.752 243.563V243.387C351.931 243.108 351.278 242.661 350.794 242.045C350.325 241.414 350.09 240.659 350.09 239.779C350.09 238.605 350.523 237.674 351.388 236.985C352.253 236.281 353.463 235.929 355.018 235.929C356.573 235.929 357.783 236.281 358.648 236.985C359.513 237.674 359.946 238.605 359.946 239.779C359.946 240.659 359.704 241.414 359.22 242.045C358.751 242.661 358.105 243.108 357.284 243.387V243.563C358.223 243.812 358.978 244.245 359.55 244.861C360.122 245.477 360.408 246.313 360.408 247.369C360.408 247.999 360.291 248.586 360.056 249.129C359.836 249.671 359.499 250.141 359.044 250.537C358.589 250.933 358.025 251.248 357.35 251.483C356.69 251.703 355.913 251.813 355.018 251.813ZM355.018 250.251C356.103 250.251 356.954 250.009 357.57 249.525C358.186 249.041 358.494 248.359 358.494 247.479V246.995C358.494 246.115 358.186 245.433 357.57 244.949C356.969 244.465 356.118 244.223 355.018 244.223C353.918 244.223 353.06 244.465 352.444 244.949C351.843 245.433 351.542 246.115 351.542 246.995V247.479C351.542 248.359 351.85 249.041 352.466 249.525C353.082 250.009 353.933 250.251 355.018 250.251ZM355.018 242.727C356.015 242.727 356.771 242.514 357.284 242.089C357.812 241.663 358.076 241.055 358.076 240.263V239.955C358.076 239.163 357.805 238.554 357.262 238.129C356.734 237.703 355.986 237.491 355.018 237.491C354.05 237.491 353.295 237.703 352.752 238.129C352.224 238.554 351.96 239.163 351.96 239.955V240.263C351.96 241.055 352.217 241.663 352.73 242.089C353.258 242.514 354.021 242.727 355.018 242.727ZM367.549 242.705C368.62 242.705 369.419 242.47 369.947 242.001C370.49 241.517 370.761 240.901 370.761 240.153V239.999C370.761 239.177 370.497 238.561 369.969 238.151C369.456 237.74 368.781 237.535 367.945 237.535C367.124 237.535 366.457 237.718 365.943 238.085C365.445 238.437 365.034 238.906 364.711 239.493L363.325 238.437C363.516 238.129 363.751 237.828 364.029 237.535C364.308 237.227 364.631 236.955 364.997 236.721C365.379 236.486 365.811 236.295 366.295 236.149C366.794 236.002 367.359 235.929 367.989 235.929C368.649 235.929 369.265 236.017 369.837 236.193C370.409 236.354 370.908 236.603 371.333 236.941C371.759 237.263 372.089 237.667 372.323 238.151C372.573 238.635 372.697 239.185 372.697 239.801C372.697 240.299 372.617 240.747 372.455 241.143C372.309 241.539 372.096 241.883 371.817 242.177C371.553 242.47 371.238 242.719 370.871 242.925C370.505 243.13 370.116 243.284 369.705 243.387V243.475C370.131 243.563 370.541 243.709 370.937 243.915C371.333 244.105 371.685 244.362 371.993 244.685C372.301 244.993 372.543 245.374 372.719 245.829C372.91 246.269 373.005 246.775 373.005 247.347C373.005 248.007 372.873 248.615 372.609 249.173C372.36 249.715 372.001 250.185 371.531 250.581C371.077 250.962 370.519 251.263 369.859 251.483C369.214 251.703 368.495 251.813 367.703 251.813C367.029 251.813 366.427 251.739 365.899 251.593C365.386 251.446 364.924 251.248 364.513 250.999C364.117 250.749 363.765 250.471 363.457 250.163C363.164 249.855 362.9 249.532 362.665 249.195L364.051 248.139C364.257 248.447 364.469 248.725 364.689 248.975C364.909 249.224 365.159 249.444 365.437 249.635C365.731 249.811 366.061 249.95 366.427 250.053C366.794 250.155 367.219 250.207 367.703 250.207C368.789 250.207 369.617 249.957 370.189 249.459C370.776 248.96 371.069 248.249 371.069 247.325V247.149C371.069 246.239 370.783 245.535 370.211 245.037C369.654 244.538 368.811 244.289 367.681 244.289H365.855V242.705H367.549ZM380.741 242.705C381.811 242.705 382.611 242.47 383.139 242.001C383.681 241.517 383.953 240.901 383.953 240.153V239.999C383.953 239.177 383.689 238.561 383.161 238.151C382.647 237.74 381.973 237.535 381.137 237.535C380.315 237.535 379.648 237.718 379.135 238.085C378.636 238.437 378.225 238.906 377.903 239.493L376.517 238.437C376.707 238.129 376.942 237.828 377.221 237.535C377.499 237.227 377.822 236.955 378.189 236.721C378.57 236.486 379.003 236.295 379.487 236.149C379.985 236.002 380.55 235.929 381.181 235.929C381.841 235.929 382.457 236.017 383.029 236.193C383.601 236.354 384.099 236.603 384.525 236.941C384.95 237.263 385.28 237.667 385.515 238.151C385.764 238.635 385.889 239.185 385.889 239.801C385.889 240.299 385.808 240.747 385.647 241.143C385.5 241.539 385.287 241.883 385.009 242.177C384.745 242.47 384.429 242.719 384.063 242.925C383.696 243.13 383.307 243.284 382.897 243.387V243.475C383.322 243.563 383.733 243.709 384.129 243.915C384.525 244.105 384.877 244.362 385.185 244.685C385.493 244.993 385.735 245.374 385.911 245.829C386.101 246.269 386.197 246.775 386.197 247.347C386.197 248.007 386.065 248.615 385.801 249.173C385.551 249.715 385.192 250.185 384.723 250.581C384.268 250.962 383.711 251.263 383.051 251.483C382.405 251.703 381.687 251.813 380.895 251.813C380.22 251.813 379.619 251.739 379.091 251.593C378.577 251.446 378.115 251.248 377.705 250.999C377.309 250.749 376.957 250.471 376.649 250.163C376.355 249.855 376.091 249.532 375.857 249.195L377.243 248.139C377.448 248.447 377.661 248.725 377.881 248.975C378.101 249.224 378.35 249.444 378.629 249.635C378.922 249.811 379.252 249.95 379.619 250.053C379.985 250.155 380.411 250.207 380.895 250.207C381.98 250.207 382.809 249.957 383.381 249.459C383.967 248.96 384.261 248.249 384.261 247.325V247.149C384.261 246.239 383.975 245.535 383.403 245.037C382.845 244.538 382.002 244.289 380.873 244.289H379.047V242.705H380.741Z" fill="#747A8A"/>
<rect x="250.375" y="282.576" width="178.223" height="62.53" rx="4.52421" fill="#041116" stroke="url(#paint7_linear_225_165470)" stroke-width="0.904842"/>
<path d="M291.423 325.078H281.171V323.186L286.297 318.566C287.045 317.891 287.661 317.202 288.145 316.498C288.629 315.779 288.871 315.024 288.871 314.232V313.968C288.871 313.044 288.629 312.333 288.145 311.834C287.661 311.321 286.943 311.064 285.989 311.064C285.051 311.064 284.325 311.306 283.811 311.79C283.313 312.259 282.939 312.89 282.689 313.682L281.039 313.066C281.186 312.611 281.384 312.171 281.633 311.746C281.897 311.306 282.227 310.917 282.623 310.58C283.019 310.243 283.496 309.971 284.053 309.766C284.625 309.561 285.285 309.458 286.033 309.458C286.796 309.458 287.471 309.568 288.057 309.788C288.659 310.008 289.157 310.316 289.553 310.712C289.964 311.108 290.272 311.577 290.477 312.12C290.697 312.663 290.807 313.257 290.807 313.902C290.807 314.489 290.719 315.039 290.543 315.552C290.382 316.065 290.147 316.557 289.839 317.026C289.546 317.495 289.187 317.957 288.761 318.412C288.351 318.852 287.889 319.292 287.375 319.732L283.085 323.472H291.423V325.078ZM303.823 311.328H296.959L296.519 317.202H296.673C297.054 316.689 297.479 316.285 297.949 315.992C298.418 315.684 299.063 315.53 299.885 315.53C300.559 315.53 301.175 315.64 301.733 315.86C302.305 316.065 302.796 316.373 303.207 316.784C303.617 317.195 303.94 317.693 304.175 318.28C304.409 318.852 304.527 319.512 304.527 320.26C304.527 321.008 304.409 321.697 304.175 322.328C303.94 322.944 303.595 323.479 303.141 323.934C302.686 324.374 302.136 324.719 301.491 324.968C300.845 325.217 300.112 325.342 299.291 325.342C298.645 325.342 298.066 325.269 297.553 325.122C297.054 324.975 296.607 324.777 296.211 324.528C295.829 324.279 295.492 324 295.199 323.692C294.905 323.384 294.641 323.061 294.407 322.724L295.793 321.668C295.998 321.976 296.203 322.255 296.409 322.504C296.629 322.753 296.878 322.973 297.157 323.164C297.435 323.34 297.751 323.479 298.103 323.582C298.455 323.685 298.865 323.736 299.335 323.736C300.391 323.736 301.197 323.45 301.755 322.878C302.327 322.306 302.613 321.514 302.613 320.502V320.326C302.613 319.314 302.327 318.522 301.755 317.95C301.183 317.378 300.361 317.092 299.291 317.092C298.557 317.092 297.985 317.217 297.575 317.466C297.179 317.715 296.812 318.023 296.475 318.39L294.913 318.17L295.463 309.722H303.823V311.328ZM312.614 325.342C311.808 325.342 311.082 325.21 310.436 324.946C309.791 324.667 309.241 324.279 308.786 323.78C308.346 323.267 308.002 322.643 307.752 321.91C307.518 321.177 307.4 320.355 307.4 319.446C307.4 318.302 307.569 317.231 307.906 316.234C308.258 315.222 308.698 314.305 309.226 313.484C309.769 312.648 310.37 311.915 311.03 311.284C311.69 310.639 312.336 310.118 312.966 309.722H315.342C314.506 310.323 313.758 310.91 313.098 311.482C312.453 312.054 311.881 312.655 311.382 313.286C310.884 313.902 310.466 314.569 310.128 315.288C309.791 315.992 309.512 316.791 309.292 317.686L309.402 317.73C309.769 317.099 310.253 316.579 310.854 316.168C311.456 315.743 312.233 315.53 313.186 315.53C313.861 315.53 314.477 315.64 315.034 315.86C315.592 316.08 316.076 316.395 316.486 316.806C316.897 317.217 317.212 317.715 317.432 318.302C317.667 318.889 317.784 319.541 317.784 320.26C317.784 321.008 317.66 321.697 317.41 322.328C317.161 322.944 316.809 323.479 316.354 323.934C315.914 324.374 315.372 324.719 314.726 324.968C314.096 325.217 313.392 325.342 312.614 325.342ZM312.592 323.78C313.648 323.78 314.462 323.494 315.034 322.922C315.621 322.35 315.914 321.543 315.914 320.502V320.326C315.914 319.285 315.621 318.478 315.034 317.906C314.462 317.334 313.648 317.048 312.592 317.048C311.536 317.048 310.715 317.334 310.128 317.906C309.556 318.478 309.27 319.285 309.27 320.326V320.502C309.27 321.543 309.556 322.35 310.128 322.922C310.715 323.494 311.536 323.78 312.592 323.78ZM322.99 325.078L328.996 311.306H322.264V314.166H320.614V309.722H330.866V311.35L324.97 325.078H322.99ZM338.975 325.342C338.08 325.342 337.296 325.232 336.621 325.012C335.946 324.777 335.382 324.462 334.927 324.066C334.487 323.67 334.15 323.201 333.915 322.658C333.695 322.115 333.585 321.529 333.585 320.898C333.585 319.842 333.871 319.006 334.443 318.39C335.015 317.774 335.77 317.341 336.709 317.092V316.916C335.888 316.637 335.235 316.19 334.751 315.574C334.282 314.943 334.047 314.188 334.047 313.308C334.047 312.135 334.48 311.203 335.345 310.514C336.21 309.81 337.42 309.458 338.975 309.458C340.53 309.458 341.74 309.81 342.605 310.514C343.47 311.203 343.903 312.135 343.903 313.308C343.903 314.188 343.661 314.943 343.177 315.574C342.708 316.19 342.062 316.637 341.241 316.916V317.092C342.18 317.341 342.935 317.774 343.507 318.39C344.079 319.006 344.365 319.842 344.365 320.898C344.365 321.529 344.248 322.115 344.013 322.658C343.793 323.201 343.456 323.67 343.001 324.066C342.546 324.462 341.982 324.777 341.307 325.012C340.647 325.232 339.87 325.342 338.975 325.342ZM338.975 323.78C340.06 323.78 340.911 323.538 341.527 323.054C342.143 322.57 342.451 321.888 342.451 321.008V320.524C342.451 319.644 342.143 318.962 341.527 318.478C340.926 317.994 340.075 317.752 338.975 317.752C337.875 317.752 337.017 317.994 336.401 318.478C335.8 318.962 335.499 319.644 335.499 320.524V321.008C335.499 321.888 335.807 322.57 336.423 323.054C337.039 323.538 337.89 323.78 338.975 323.78ZM338.975 316.256C339.972 316.256 340.728 316.043 341.241 315.618C341.769 315.193 342.033 314.584 342.033 313.792V313.484C342.033 312.692 341.762 312.083 341.219 311.658C340.691 311.233 339.943 311.02 338.975 311.02C338.007 311.02 337.252 311.233 336.709 311.658C336.181 312.083 335.917 312.692 335.917 313.484V313.792C335.917 314.584 336.174 315.193 336.687 315.618C337.215 316.043 337.978 316.256 338.975 316.256ZM352.166 325.342C351.272 325.342 350.487 325.232 349.812 325.012C349.138 324.777 348.573 324.462 348.118 324.066C347.678 323.67 347.341 323.201 347.106 322.658C346.886 322.115 346.776 321.529 346.776 320.898C346.776 319.842 347.062 319.006 347.634 318.39C348.206 317.774 348.962 317.341 349.9 317.092V316.916C349.079 316.637 348.426 316.19 347.942 315.574C347.473 314.943 347.238 314.188 347.238 313.308C347.238 312.135 347.671 311.203 348.536 310.514C349.402 309.81 350.612 309.458 352.166 309.458C353.721 309.458 354.931 309.81 355.796 310.514C356.662 311.203 357.094 312.135 357.094 313.308C357.094 314.188 356.852 314.943 356.368 315.574C355.899 316.19 355.254 316.637 354.432 316.916V317.092C355.371 317.341 356.126 317.774 356.698 318.39C357.27 319.006 357.556 319.842 357.556 320.898C357.556 321.529 357.439 322.115 357.204 322.658C356.984 323.201 356.647 323.67 356.192 324.066C355.738 324.462 355.173 324.777 354.498 325.012C353.838 325.232 353.061 325.342 352.166 325.342ZM352.166 323.78C353.252 323.78 354.102 323.538 354.718 323.054C355.334 322.57 355.642 321.888 355.642 321.008V320.524C355.642 319.644 355.334 318.962 354.718 318.478C354.117 317.994 353.266 317.752 352.166 317.752C351.066 317.752 350.208 317.994 349.592 318.478C348.991 318.962 348.69 319.644 348.69 320.524V321.008C348.69 321.888 348.998 322.57 349.614 323.054C350.23 323.538 351.081 323.78 352.166 323.78ZM352.166 316.256C353.164 316.256 353.919 316.043 354.432 315.618C354.96 315.193 355.224 314.584 355.224 313.792V313.484C355.224 312.692 354.953 312.083 354.41 311.658C353.882 311.233 353.134 311.02 352.166 311.02C351.198 311.02 350.443 311.233 349.9 311.658C349.372 312.083 349.108 312.692 349.108 313.484V313.792C349.108 314.584 349.365 315.193 349.878 315.618C350.406 316.043 351.169 316.256 352.166 316.256ZM362.564 325.078L368.57 311.306H361.838V314.166H360.188V309.722H370.44V311.35L364.544 325.078H362.564ZM378.571 325.342C377.765 325.342 377.039 325.21 376.393 324.946C375.748 324.667 375.198 324.279 374.743 323.78C374.303 323.267 373.959 322.643 373.709 321.91C373.475 321.177 373.357 320.355 373.357 319.446C373.357 318.302 373.526 317.231 373.863 316.234C374.215 315.222 374.655 314.305 375.183 313.484C375.726 312.648 376.327 311.915 376.987 311.284C377.647 310.639 378.293 310.118 378.923 309.722H381.299C380.463 310.323 379.715 310.91 379.055 311.482C378.41 312.054 377.838 312.655 377.339 313.286C376.841 313.902 376.423 314.569 376.085 315.288C375.748 315.992 375.469 316.791 375.249 317.686L375.359 317.73C375.726 317.099 376.21 316.579 376.811 316.168C377.413 315.743 378.19 315.53 379.143 315.53C379.818 315.53 380.434 315.64 380.991 315.86C381.549 316.08 382.033 316.395 382.443 316.806C382.854 317.217 383.169 317.715 383.389 318.302C383.624 318.889 383.741 319.541 383.741 320.26C383.741 321.008 383.617 321.697 383.367 322.328C383.118 322.944 382.766 323.479 382.311 323.934C381.871 324.374 381.329 324.719 380.683 324.968C380.053 325.217 379.349 325.342 378.571 325.342ZM378.549 323.78C379.605 323.78 380.419 323.494 380.991 322.922C381.578 322.35 381.871 321.543 381.871 320.502V320.326C381.871 319.285 381.578 318.478 380.991 317.906C380.419 317.334 379.605 317.048 378.549 317.048C377.493 317.048 376.672 317.334 376.085 317.906C375.513 318.478 375.227 319.285 375.227 320.326V320.502C375.227 321.543 375.513 322.35 376.085 322.922C376.672 323.494 377.493 323.78 378.549 323.78ZM396.163 311.328H389.299L388.859 317.202H389.013C389.394 316.689 389.819 316.285 390.289 315.992C390.758 315.684 391.403 315.53 392.225 315.53C392.899 315.53 393.515 315.64 394.073 315.86C394.645 316.065 395.136 316.373 395.547 316.784C395.957 317.195 396.28 317.693 396.515 318.28C396.749 318.852 396.867 319.512 396.867 320.26C396.867 321.008 396.749 321.697 396.515 322.328C396.28 322.944 395.935 323.479 395.481 323.934C395.026 324.374 394.476 324.719 393.831 324.968C393.185 325.217 392.452 325.342 391.631 325.342C390.985 325.342 390.406 325.269 389.893 325.122C389.394 324.975 388.947 324.777 388.551 324.528C388.169 324.279 387.832 324 387.539 323.692C387.245 323.384 386.981 323.061 386.747 322.724L388.133 321.668C388.338 321.976 388.543 322.255 388.749 322.504C388.969 322.753 389.218 322.973 389.497 323.164C389.775 323.34 390.091 323.479 390.443 323.582C390.795 323.685 391.205 323.736 391.675 323.736C392.731 323.736 393.537 323.45 394.095 322.878C394.667 322.306 394.953 321.514 394.953 320.502V320.326C394.953 319.314 394.667 318.522 394.095 317.95C393.523 317.378 392.701 317.092 391.631 317.092C390.897 317.092 390.325 317.217 389.915 317.466C389.519 317.715 389.152 318.023 388.815 318.39L387.253 318.17L387.803 309.722H396.163V311.328Z" fill="#747A8A"/>
<rect x="250.375" y="356.107" width="178.223" height="62.53" rx="4.52421" fill="#041116" stroke="url(#paint8_linear_225_165470)" stroke-width="0.904842"/>
<path d="M283.415 398.609L289.421 384.837H282.689V387.697H281.039V383.253H291.291V384.881L285.395 398.609H283.415ZM303.823 384.859H296.959L296.519 390.733H296.673C297.054 390.22 297.479 389.817 297.949 389.523C298.418 389.215 299.063 389.061 299.885 389.061C300.559 389.061 301.175 389.171 301.733 389.391C302.305 389.597 302.796 389.905 303.207 390.315C303.617 390.726 303.94 391.225 304.175 391.811C304.409 392.383 304.527 393.043 304.527 393.791C304.527 394.539 304.409 395.229 304.175 395.859C303.94 396.475 303.595 397.011 303.141 397.465C302.686 397.905 302.136 398.25 301.491 398.499C300.845 398.749 300.112 398.873 299.291 398.873C298.645 398.873 298.066 398.8 297.553 398.653C297.054 398.507 296.607 398.309 296.211 398.059C295.829 397.81 295.492 397.531 295.199 397.223C294.905 396.915 294.641 396.593 294.407 396.255L295.793 395.199C295.998 395.507 296.203 395.786 296.409 396.035C296.629 396.285 296.878 396.505 297.157 396.695C297.435 396.871 297.751 397.011 298.103 397.113C298.455 397.216 298.865 397.267 299.335 397.267C300.391 397.267 301.197 396.981 301.755 396.409C302.327 395.837 302.613 395.045 302.613 394.033V393.857C302.613 392.845 302.327 392.053 301.755 391.481C301.183 390.909 300.361 390.623 299.291 390.623C298.557 390.623 297.985 390.748 297.575 390.997C297.179 391.247 296.812 391.555 296.475 391.921L294.913 391.701L295.463 383.253H303.823V384.859ZM312.614 398.873C311.808 398.873 311.082 398.741 310.436 398.477C309.791 398.199 309.241 397.81 308.786 397.311C308.346 396.798 308.002 396.175 307.752 395.441C307.518 394.708 307.4 393.887 307.4 392.977C307.4 391.833 307.569 390.763 307.906 389.765C308.258 388.753 308.698 387.837 309.226 387.015C309.769 386.179 310.37 385.446 311.03 384.815C311.69 384.17 312.336 383.649 312.966 383.253H315.342C314.506 383.855 313.758 384.441 313.098 385.013C312.453 385.585 311.881 386.187 311.382 386.817C310.884 387.433 310.466 388.101 310.128 388.819C309.791 389.523 309.512 390.323 309.292 391.217L309.402 391.261C309.769 390.631 310.253 390.11 310.854 389.699C311.456 389.274 312.233 389.061 313.186 389.061C313.861 389.061 314.477 389.171 315.034 389.391C315.592 389.611 316.076 389.927 316.486 390.337C316.897 390.748 317.212 391.247 317.432 391.833C317.667 392.42 317.784 393.073 317.784 393.791C317.784 394.539 317.66 395.229 317.41 395.859C317.161 396.475 316.809 397.011 316.354 397.465C315.914 397.905 315.372 398.25 314.726 398.499C314.096 398.749 313.392 398.873 312.614 398.873ZM312.592 397.311C313.648 397.311 314.462 397.025 315.034 396.453C315.621 395.881 315.914 395.075 315.914 394.033V393.857C315.914 392.816 315.621 392.009 315.034 391.437C314.462 390.865 313.648 390.579 312.592 390.579C311.536 390.579 310.715 390.865 310.128 391.437C309.556 392.009 309.27 392.816 309.27 393.857V394.033C309.27 395.075 309.556 395.881 310.128 396.453C310.715 397.025 311.536 397.311 312.592 397.311ZM322.99 398.609L328.996 384.837H322.264V387.697H320.614V383.253H330.866V384.881L324.97 398.609H322.99ZM338.975 398.873C338.08 398.873 337.296 398.763 336.621 398.543C335.946 398.309 335.382 397.993 334.927 397.597C334.487 397.201 334.15 396.732 333.915 396.189C333.695 395.647 333.585 395.06 333.585 394.429C333.585 393.373 333.871 392.537 334.443 391.921C335.015 391.305 335.77 390.873 336.709 390.623V390.447C335.888 390.169 335.235 389.721 334.751 389.105C334.282 388.475 334.047 387.719 334.047 386.839C334.047 385.666 334.48 384.735 335.345 384.045C336.21 383.341 337.42 382.989 338.975 382.989C340.53 382.989 341.74 383.341 342.605 384.045C343.47 384.735 343.903 385.666 343.903 386.839C343.903 387.719 343.661 388.475 343.177 389.105C342.708 389.721 342.062 390.169 341.241 390.447V390.623C342.18 390.873 342.935 391.305 343.507 391.921C344.079 392.537 344.365 393.373 344.365 394.429C344.365 395.06 344.248 395.647 344.013 396.189C343.793 396.732 343.456 397.201 343.001 397.597C342.546 397.993 341.982 398.309 341.307 398.543C340.647 398.763 339.87 398.873 338.975 398.873ZM338.975 397.311C340.06 397.311 340.911 397.069 341.527 396.585C342.143 396.101 342.451 395.419 342.451 394.539V394.055C342.451 393.175 342.143 392.493 341.527 392.009C340.926 391.525 340.075 391.283 338.975 391.283C337.875 391.283 337.017 391.525 336.401 392.009C335.8 392.493 335.499 393.175 335.499 394.055V394.539C335.499 395.419 335.807 396.101 336.423 396.585C337.039 397.069 337.89 397.311 338.975 397.311ZM338.975 389.787C339.972 389.787 340.728 389.575 341.241 389.149C341.769 388.724 342.033 388.115 342.033 387.323V387.015C342.033 386.223 341.762 385.615 341.219 385.189C340.691 384.764 339.943 384.551 338.975 384.551C338.007 384.551 337.252 384.764 336.709 385.189C336.181 385.615 335.917 386.223 335.917 387.015V387.323C335.917 388.115 336.174 388.724 336.687 389.149C337.215 389.575 337.978 389.787 338.975 389.787ZM352.166 398.873C351.272 398.873 350.487 398.763 349.812 398.543C349.138 398.309 348.573 397.993 348.118 397.597C347.678 397.201 347.341 396.732 347.106 396.189C346.886 395.647 346.776 395.06 346.776 394.429C346.776 393.373 347.062 392.537 347.634 391.921C348.206 391.305 348.962 390.873 349.9 390.623V390.447C349.079 390.169 348.426 389.721 347.942 389.105C347.473 388.475 347.238 387.719 347.238 386.839C347.238 385.666 347.671 384.735 348.536 384.045C349.402 383.341 350.612 382.989 352.166 382.989C353.721 382.989 354.931 383.341 355.796 384.045C356.662 384.735 357.094 385.666 357.094 386.839C357.094 387.719 356.852 388.475 356.368 389.105C355.899 389.721 355.254 390.169 354.432 390.447V390.623C355.371 390.873 356.126 391.305 356.698 391.921C357.27 392.537 357.556 393.373 357.556 394.429C357.556 395.06 357.439 395.647 357.204 396.189C356.984 396.732 356.647 397.201 356.192 397.597C355.738 397.993 355.173 398.309 354.498 398.543C353.838 398.763 353.061 398.873 352.166 398.873ZM352.166 397.311C353.252 397.311 354.102 397.069 354.718 396.585C355.334 396.101 355.642 395.419 355.642 394.539V394.055C355.642 393.175 355.334 392.493 354.718 392.009C354.117 391.525 353.266 391.283 352.166 391.283C351.066 391.283 350.208 391.525 349.592 392.009C348.991 392.493 348.69 393.175 348.69 394.055V394.539C348.69 395.419 348.998 396.101 349.614 396.585C350.23 397.069 351.081 397.311 352.166 397.311ZM352.166 389.787C353.164 389.787 353.919 389.575 354.432 389.149C354.96 388.724 355.224 388.115 355.224 387.323V387.015C355.224 386.223 354.953 385.615 354.41 385.189C353.882 384.764 353.134 384.551 352.166 384.551C351.198 384.551 350.443 384.764 349.9 385.189C349.372 385.615 349.108 386.223 349.108 387.015V387.323C349.108 388.115 349.365 388.724 349.878 389.149C350.406 389.575 351.169 389.787 352.166 389.787ZM362.564 398.609L368.57 384.837H361.838V387.697H360.188V383.253H370.44V384.881L364.544 398.609H362.564ZM375.755 398.609L381.761 384.837H375.029V387.697H373.379V383.253H383.631V384.881L377.735 398.609H375.755ZM391.763 398.873C390.956 398.873 390.23 398.741 389.585 398.477C388.939 398.199 388.389 397.81 387.935 397.311C387.495 396.798 387.15 396.175 386.901 395.441C386.666 394.708 386.549 393.887 386.549 392.977C386.549 391.833 386.717 390.763 387.055 389.765C387.407 388.753 387.847 387.837 388.375 387.015C388.917 386.179 389.519 385.446 390.179 384.815C390.839 384.17 391.484 383.649 392.115 383.253H394.491C393.655 383.855 392.907 384.441 392.247 385.013C391.601 385.585 391.029 386.187 390.531 386.817C390.032 387.433 389.614 388.101 389.277 388.819C388.939 389.523 388.661 390.323 388.441 391.217L388.551 391.261C388.917 390.631 389.401 390.11 390.003 389.699C390.604 389.274 391.381 389.061 392.335 389.061C393.009 389.061 393.625 389.171 394.183 389.391C394.74 389.611 395.224 389.927 395.635 390.337C396.045 390.748 396.361 391.247 396.581 391.833C396.815 392.42 396.933 393.073 396.933 393.791C396.933 394.539 396.808 395.229 396.559 395.859C396.309 396.475 395.957 397.011 395.503 397.465C395.063 397.905 394.52 398.25 393.875 398.499C393.244 398.749 392.54 398.873 391.763 398.873ZM391.741 397.311C392.797 397.311 393.611 397.025 394.183 396.453C394.769 395.881 395.063 395.075 395.063 394.033V393.857C395.063 392.816 394.769 392.009 394.183 391.437C393.611 390.865 392.797 390.579 391.741 390.579C390.685 390.579 389.863 390.865 389.277 391.437C388.705 392.009 388.419 392.816 388.419 393.857V394.033C388.419 395.075 388.705 395.881 389.277 396.453C389.863 397.025 390.685 397.311 391.741 397.311Z" fill="#747A8A"/>
<g filter="url(#filter4_f_225_165470)">
<circle cx="257.729" cy="49.8145" r="165.611" fill="#020609"/>
</g>
</g>
<rect x="0.5" y="0.5" width="299" height="431" stroke="url(#paint9_linear_225_165470)"/>
<defs>
<filter id="filter0_f_225_165470" x="-7.90625" y="42.9062" width="564.604" height="553.5" filterUnits="userSpaceOnUse" color-interpolation-filters="sRGB">
<feFlood flood-opacity="0" result="BackgroundImageFix"/>
<feBlend mode="normal" in="SourceGraphic" in2="BackgroundImageFix" result="shape"/>
<feGaussianBlur stdDeviation="58" result="effect1_foregroundBlur_225_165470"/>
</filter>
<filter id="filter1_b_225_165470" x="53" y="197.008" width="200" height="85" filterUnits="userSpaceOnUse" color-interpolation-filters="sRGB">
<feFlood flood-opacity="0" result="BackgroundImageFix"/>
<feGaussianBlur in="BackgroundImageFix" stdDeviation="5.5"/>
<feComposite in2="SourceAlpha" operator="in" result="effect1_backgroundBlur_225_165470"/>
<feBlend mode="normal" in="SourceGraphic" in2="effect1_backgroundBlur_225_165470" result="shape"/>
</filter>
<filter id="filter2_b_225_165470" x="53" y="270.008" width="200" height="85" filterUnits="userSpaceOnUse" color-interpolation-filters="sRGB">
<feFlood flood-opacity="0" result="BackgroundImageFix"/>
<feGaussianBlur in="BackgroundImageFix" stdDeviation="5.5"/>
<feComposite in2="SourceAlpha" operator="in" result="effect1_backgroundBlur_225_165470"/>
<feBlend mode="normal" in="SourceGraphic" in2="effect1_backgroundBlur_225_165470" result="shape"/>
</filter>
<filter id="filter3_b_225_165470" x="53" y="343.008" width="200" height="85" filterUnits="userSpaceOnUse" color-interpolation-filters="sRGB">
<feFlood flood-opacity="0" result="BackgroundImageFix"/>
<feGaussianBlur in="BackgroundImageFix" stdDeviation="5.5"/>
<feComposite in2="SourceAlpha" operator="in" result="effect1_backgroundBlur_225_165470"/>
<feBlend mode="normal" in="SourceGraphic" in2="effect1_backgroundBlur_225_165470" result="shape"/>
</filter>
<filter id="filter4_f_225_165470" x="-81.2262" y="-289.14" width="677.909" height="677.909" filterUnits="userSpaceOnUse" color-interpolation-filters="sRGB">
<feFlood flood-opacity="0" result="BackgroundImageFix"/>
<feBlend mode="normal" in="SourceGraphic" in2="BackgroundImageFix" result="shape"/>
<feGaussianBlur stdDeviation="86.6717" result="effect1_foregroundBlur_225_165470"/>
</filter>
<linearGradient id="paint0_linear_225_165470" x1="-34.7321" y1="209.047" x2="-34.7321" y2="271.578" gradientUnits="userSpaceOnUse">
<stop stop-color="#11242A" stop-opacity="0.51"/>
<stop offset="1" stop-color="#262626" stop-opacity="0"/>
</linearGradient>
<linearGradient id="paint1_linear_225_165470" x1="-34.7321" y1="282.578" x2="-34.7321" y2="345.109" gradientUnits="userSpaceOnUse">
<stop stop-color="#11242A" stop-opacity="0.51"/>
<stop offset="1" stop-color="#262626" stop-opacity="0"/>
</linearGradient>
<linearGradient id="paint2_linear_225_165470" x1="-34.7321" y1="356.109" x2="-34.7321" y2="418.641" gradientUnits="userSpaceOnUse">
<stop stop-color="#11242A" stop-opacity="0.51"/>
<stop offset="1" stop-color="#262626" stop-opacity="0"/>
</linearGradient>
<linearGradient id="paint3_linear_225_165470" x1="152.375" y1="209.047" x2="152.375" y2="271.047" gradientUnits="userSpaceOnUse">
<stop stop-color="#11242A" stop-opacity="0.51"/>
<stop offset="1" stop-color="#262626" stop-opacity="0"/>
</linearGradient>
<linearGradient id="paint4_linear_225_165470" x1="152.375" y1="282.047" x2="152.375" y2="344.047" gradientUnits="userSpaceOnUse">
<stop stop-color="#11242A" stop-opacity="0.51"/>
<stop offset="1" stop-color="#262626" stop-opacity="0"/>
</linearGradient>
<linearGradient id="paint5_linear_225_165470" x1="152.375" y1="355.047" x2="152.375" y2="417.047" gradientUnits="userSpaceOnUse">
<stop stop-color="#11242A" stop-opacity="0.51"/>
<stop offset="1" stop-color="#262626" stop-opacity="0"/>
</linearGradient>
<linearGradient id="paint6_linear_225_165470" x1="339.487" y1="209.047" x2="339.487" y2="271.577" gradientUnits="userSpaceOnUse">
<stop stop-color="#11242A" stop-opacity="0.51"/>
<stop offset="1" stop-color="#262626" stop-opacity="0"/>
</linearGradient>
<linearGradient id="paint7_linear_225_165470" x1="339.487" y1="282.576" x2="339.487" y2="345.106" gradientUnits="userSpaceOnUse">
<stop stop-color="#11242A" stop-opacity="0.51"/>
<stop offset="1" stop-color="#262626" stop-opacity="0"/>
</linearGradient>
<linearGradient id="paint8_linear_225_165470" x1="339.487" y1="356.107" x2="339.487" y2="418.637" gradientUnits="userSpaceOnUse">
<stop stop-color="#11242A" stop-opacity="0.51"/>
<stop offset="1" stop-color="#262626" stop-opacity="0"/>
</linearGradient>
<linearGradient id="paint9_linear_225_165470" x1="150" y1="1" x2="150" y2="431" gradientUnits="userSpaceOnUse">
<stop stop-color="#061517"/>
<stop offset="1" stop-color="#061517" stop-opacity="0.49"/>
</linearGradient>
<clipPath id="clip0_225_165470">
<rect x="1" y="1" width="298" height="430" fill="white"/>
</clipPath>
<clipPath id="clip1_225_165470">
<rect x="63.375" y="209.047" width="178" height="62" rx="4.52421" fill="white"/>
</clipPath>
<clipPath id="clip2_225_165470">
<rect x="63.375" y="282.047" width="178" height="62" rx="4.52421" fill="white"/>
</clipPath>
<clipPath id="clip3_225_165470">
<rect x="63.375" y="355.047" width="178" height="62" rx="4.52421" fill="white"/>
</clipPath>
</defs>
</svg>
