<svg width="330" height="430" viewBox="0 0 330 430" fill="none" xmlns="http://www.w3.org/2000/svg">
<g clip-path="url(#clip0_330_2514)">
<rect x="-61.3633" y="278" width="219.287" height="62" rx="8" fill="#212121" stroke="#454545"/>
<rect x="167.434" y="278" width="223.933" height="62" rx="8" fill="#212121" stroke="#454545"/>
<rect x="-61.3633" y="205" width="219.287" height="62" rx="8" fill="#171717" stroke="#2E2E2E"/>
<path d="M-41.7249 241L-44.3149 233.776H-43.1809L-42.1449 236.8L-41.0249 240.062H-40.9689L-39.8489 236.8L-38.8129 233.776H-37.7069L-40.2969 241H-41.7249ZM-32.6164 241.168C-33.1204 241.168 -33.5777 241.079 -33.9884 240.902C-34.3897 240.725 -34.7351 240.473 -35.0244 240.146C-35.3044 239.81 -35.5191 239.413 -35.6684 238.956C-35.8177 238.489 -35.8924 237.967 -35.8924 237.388C-35.8924 236.819 -35.8177 236.301 -35.6684 235.834C-35.5191 235.367 -35.3044 234.971 -35.0244 234.644C-34.7351 234.308 -34.3897 234.051 -33.9884 233.874C-33.5777 233.697 -33.1204 233.608 -32.6164 233.608C-32.1124 233.608 -31.6597 233.697 -31.2584 233.874C-30.8477 234.051 -30.5024 234.308 -30.2224 234.644C-29.9331 234.971 -29.7137 235.367 -29.5644 235.834C-29.4151 236.301 -29.3404 236.819 -29.3404 237.388C-29.3404 237.967 -29.4151 238.489 -29.5644 238.956C-29.7137 239.413 -29.9331 239.81 -30.2224 240.146C-30.5024 240.473 -30.8477 240.725 -31.2584 240.902C-31.6597 241.079 -32.1124 241.168 -32.6164 241.168ZM-32.6164 240.202C-31.9911 240.202 -31.4871 240.015 -31.1044 239.642C-30.7217 239.269 -30.5304 238.69 -30.5304 237.906V236.87C-30.5304 236.086 -30.7217 235.507 -31.1044 235.134C-31.4871 234.761 -31.9911 234.574 -32.6164 234.574C-33.2417 234.574 -33.7457 234.761 -34.1284 235.134C-34.5111 235.507 -34.7024 236.086 -34.7024 236.87V237.906C-34.7024 238.69 -34.5111 239.269 -34.1284 239.642C-33.7457 240.015 -33.2417 240.202 -32.6164 240.202ZM-26.9939 242.848H-23.4939V234.728H-27.1199V233.776H-22.3739V242.148C-22.3739 242.633 -22.5045 243.03 -22.7659 243.338C-23.0179 243.646 -23.4192 243.8 -23.9699 243.8H-26.9939V242.848ZM-22.9339 232.18C-23.2605 232.18 -23.4892 232.115 -23.6199 231.984C-23.7505 231.844 -23.8159 231.671 -23.8159 231.466V231.242C-23.8159 231.037 -23.7505 230.869 -23.6199 230.738C-23.4892 230.598 -23.2605 230.528 -22.9339 230.528C-22.6072 230.528 -22.3785 230.598 -22.2479 230.738C-22.1172 230.869 -22.0519 231.037 -22.0519 231.242V231.466C-22.0519 231.671 -22.1172 231.844 -22.2479 231.984C-22.3785 232.115 -22.6072 232.18 -22.9339 232.18ZM-15.3793 232.18C-15.706 232.18 -15.9347 232.115 -16.0653 231.984C-16.196 231.844 -16.2613 231.671 -16.2613 231.466V231.242C-16.2613 231.037 -16.196 230.869 -16.0653 230.738C-15.9347 230.598 -15.706 230.528 -15.3793 230.528C-15.0527 230.528 -14.824 230.598 -14.6933 230.738C-14.5627 230.869 -14.4973 231.037 -14.4973 231.242V231.466C-14.4973 231.671 -14.5627 231.844 -14.6933 231.984C-14.824 232.115 -15.0527 232.18 -15.3793 232.18ZM-18.5433 240.048H-15.9393V234.728H-18.5433V233.776H-14.8193V240.048H-12.3833V241H-18.5433V240.048ZM-10.7788 241L-8.09081 237.332L-10.7088 233.776H-9.36481L-8.27281 235.302L-7.40481 236.506H-7.34881L-6.50881 235.302L-5.43081 233.776H-4.14281L-6.78881 237.318L-4.07281 241H-5.41681L-6.63481 239.306L-7.46081 238.158H-7.51681L-8.31481 239.306L-9.49081 241H-10.7788ZM0.961719 241.168C0.457719 241.168 0.000385513 241.079 -0.410281 240.902C-0.811614 240.725 -1.15695 240.473 -1.44628 240.146C-1.72628 239.81 -1.94095 239.413 -2.09028 238.956C-2.23961 238.489 -2.31428 237.967 -2.31428 237.388C-2.31428 236.819 -2.23961 236.301 -2.09028 235.834C-1.94095 235.367 -1.72628 234.971 -1.44628 234.644C-1.15695 234.308 -0.811614 234.051 -0.410281 233.874C0.000385513 233.697 0.457719 233.608 0.961719 233.608C1.46572 233.608 1.91839 233.697 2.31972 233.874C2.73039 234.051 3.07572 234.308 3.35572 234.644C3.64505 234.971 3.86439 235.367 4.01372 235.834C4.16305 236.301 4.23772 236.819 4.23772 237.388C4.23772 237.967 4.16305 238.489 4.01372 238.956C3.86439 239.413 3.64505 239.81 3.35572 240.146C3.07572 240.473 2.73039 240.725 2.31972 240.902C1.91839 241.079 1.46572 241.168 0.961719 241.168ZM0.961719 240.202C1.58705 240.202 2.09105 240.015 2.47372 239.642C2.85639 239.269 3.04772 238.69 3.04772 237.906V236.87C3.04772 236.086 2.85639 235.507 2.47372 235.134C2.09105 234.761 1.58705 234.574 0.961719 234.574C0.336386 234.574 -0.167614 234.761 -0.550281 235.134C-0.932948 235.507 -1.12428 236.086 -1.12428 236.87V237.906C-1.12428 238.69 -0.932948 239.269 -0.550281 239.642C-0.167614 240.015 0.336386 240.202 0.961719 240.202ZM6.34625 241V239.978H9.14625V232.096H9.04825L6.58425 234.392L5.89825 233.65L8.48825 231.228H10.3223V239.978H12.8983V241H6.34625ZM17.7648 241.168C17.2514 241.168 16.7894 241.084 16.3788 240.916C15.9681 240.739 15.6181 240.491 15.3288 240.174C15.0488 239.847 14.8294 239.451 14.6708 238.984C14.5214 238.517 14.4468 237.995 14.4468 237.416C14.4468 236.688 14.5541 236.007 14.7688 235.372C14.9928 234.728 15.2728 234.145 15.6088 233.622C15.9541 233.09 16.3368 232.623 16.7568 232.222C17.1768 231.811 17.5874 231.48 17.9888 231.228H19.5008C18.9688 231.611 18.4928 231.984 18.0728 232.348C17.6621 232.712 17.2981 233.095 16.9808 233.496C16.6634 233.888 16.3974 234.313 16.1828 234.77C15.9681 235.218 15.7908 235.727 15.6508 236.296L15.7208 236.324C15.9541 235.923 16.2621 235.591 16.6448 235.33C17.0274 235.059 17.5221 234.924 18.1288 234.924C18.5581 234.924 18.9501 234.994 19.3048 235.134C19.6594 235.274 19.9674 235.475 20.2288 235.736C20.4901 235.997 20.6908 236.315 20.8308 236.688C20.9801 237.061 21.0548 237.477 21.0548 237.934C21.0548 238.41 20.9754 238.849 20.8168 239.25C20.6581 239.642 20.4341 239.983 20.1448 240.272C19.8648 240.552 19.5194 240.771 19.1088 240.93C18.7074 241.089 18.2594 241.168 17.7648 241.168ZM17.7508 240.174C18.4228 240.174 18.9408 239.992 19.3048 239.628C19.6781 239.264 19.8648 238.751 19.8648 238.088V237.976C19.8648 237.313 19.6781 236.8 19.3048 236.436C18.9408 236.072 18.4228 235.89 17.7508 235.89C17.0788 235.89 16.5561 236.072 16.1828 236.436C15.8188 236.8 15.6368 237.313 15.6368 237.976V238.088C15.6368 238.751 15.8188 239.264 16.1828 239.628C16.5561 239.992 17.0788 240.174 17.7508 240.174ZM26.1453 241.168C25.548 241.168 25.0346 241.056 24.6053 240.832C24.176 240.599 23.8213 240.267 23.5413 239.838C23.2613 239.409 23.056 238.881 22.9253 238.256C22.7946 237.631 22.7293 236.917 22.7293 236.114C22.7293 235.321 22.7946 234.611 22.9253 233.986C23.056 233.351 23.2613 232.819 23.5413 232.39C23.8213 231.961 24.176 231.634 24.6053 231.41C25.0346 231.177 25.548 231.06 26.1453 231.06C26.7426 231.06 27.256 231.177 27.6853 231.41C28.1146 231.634 28.4693 231.961 28.7493 232.39C29.0293 232.819 29.2346 233.351 29.3653 233.986C29.496 234.611 29.5613 235.321 29.5613 236.114C29.5613 236.917 29.496 237.631 29.3653 238.256C29.2346 238.881 29.0293 239.409 28.7493 239.838C28.4693 240.267 28.1146 240.599 27.6853 240.832C27.256 241.056 26.7426 241.168 26.1453 241.168ZM26.1453 240.146C26.5373 240.146 26.8733 240.071 27.1533 239.922C27.4333 239.763 27.6573 239.544 27.8253 239.264C28.0026 238.984 28.1333 238.648 28.2173 238.256C28.3013 237.855 28.3433 237.407 28.3433 236.912V235.316C28.3433 234.831 28.3013 234.387 28.2173 233.986C28.1333 233.585 28.0026 233.244 27.8253 232.964C27.6573 232.684 27.4333 232.469 27.1533 232.32C26.8733 232.161 26.5373 232.082 26.1453 232.082C25.7533 232.082 25.4173 232.161 25.1373 232.32C24.8573 232.469 24.6286 232.684 24.4513 232.964C24.2833 233.244 24.1573 233.585 24.0733 233.986C23.9893 234.387 23.9473 234.831 23.9473 235.316V236.912C23.9473 237.407 23.9893 237.855 24.0733 238.256C24.1573 238.648 24.2833 238.984 24.4513 239.264C24.6286 239.544 24.8573 239.763 25.1373 239.922C25.4173 240.071 25.7533 240.146 26.1453 240.146ZM26.1453 236.94C25.8186 236.94 25.59 236.875 25.4593 236.744C25.338 236.613 25.2773 236.455 25.2773 236.268V235.96C25.2773 235.773 25.338 235.615 25.4593 235.484C25.59 235.353 25.8186 235.288 26.1453 235.288C26.472 235.288 26.696 235.353 26.8173 235.484C26.948 235.615 27.0133 235.773 27.0133 235.96V236.268C27.0133 236.455 26.948 236.613 26.8173 236.744C26.696 236.875 26.472 236.94 26.1453 236.94ZM31.5298 241V239.978H34.3298V232.096H34.2318L31.7678 234.392L31.0818 233.65L33.6718 231.228H35.5058V239.978H38.0818V241H31.5298ZM46.2384 234.812C46.2384 235.54 46.1264 236.226 45.9024 236.87C45.6877 237.505 45.4077 238.088 45.0624 238.62C44.717 239.143 44.3344 239.609 43.9144 240.02C43.5037 240.421 43.0977 240.748 42.6964 241H41.1844C41.7164 240.617 42.1877 240.244 42.5984 239.88C43.0184 239.516 43.387 239.138 43.7044 238.746C44.0217 238.345 44.2877 237.92 44.5024 237.472C44.717 237.015 44.8944 236.501 45.0344 235.932L44.9644 235.904C44.7217 236.305 44.409 236.641 44.0264 236.912C43.653 237.173 43.163 237.304 42.5564 237.304C42.127 237.304 41.7304 237.234 41.3664 237.094C41.0117 236.954 40.7037 236.753 40.4424 236.492C40.1904 236.231 39.9897 235.918 39.8404 235.554C39.7004 235.181 39.6304 234.761 39.6304 234.294C39.6304 233.818 39.705 233.384 39.8544 232.992C40.013 232.591 40.237 232.25 40.5264 231.97C40.8157 231.681 41.161 231.457 41.5624 231.298C41.973 231.139 42.4257 231.06 42.9204 231.06C43.4337 231.06 43.8957 231.149 44.3064 231.326C44.717 231.494 45.0624 231.741 45.3424 232.068C45.6317 232.385 45.851 232.777 46.0004 233.244C46.159 233.711 46.2384 234.233 46.2384 234.812ZM42.9344 236.338C43.6064 236.338 44.1244 236.156 44.4884 235.792C44.8617 235.428 45.0484 234.915 45.0484 234.252V234.14C45.0484 233.477 44.8617 232.964 44.4884 232.6C44.1244 232.236 43.6064 232.054 42.9344 232.054C42.2624 232.054 41.7397 232.236 41.3664 232.6C41.0024 232.964 40.8204 233.477 40.8204 234.14V234.252C40.8204 234.915 41.0024 235.428 41.3664 235.792C41.7397 236.156 42.2624 236.338 42.9344 236.338ZM51.3289 241.168C50.7596 241.168 50.2602 241.098 49.8309 240.958C49.4016 240.809 49.0422 240.608 48.7529 240.356C48.4729 240.104 48.2582 239.805 48.1089 239.46C47.9689 239.115 47.8989 238.741 47.8989 238.34C47.8989 237.668 48.0809 237.136 48.4449 236.744C48.8089 236.352 49.2896 236.077 49.8869 235.918V235.806C49.3642 235.629 48.9489 235.344 48.6409 234.952C48.3422 234.551 48.1929 234.07 48.1929 233.51C48.1929 232.763 48.4682 232.171 49.0189 231.732C49.5696 231.284 50.3396 231.06 51.3289 231.06C52.3182 231.06 53.0882 231.284 53.6389 231.732C54.1896 232.171 54.4649 232.763 54.4649 233.51C54.4649 234.07 54.3109 234.551 54.0029 234.952C53.7042 235.344 53.2936 235.629 52.7709 235.806V235.918C53.3682 236.077 53.8489 236.352 54.2129 236.744C54.5769 237.136 54.7589 237.668 54.7589 238.34C54.7589 238.741 54.6842 239.115 54.5349 239.46C54.3949 239.805 54.1802 240.104 53.8909 240.356C53.6016 240.608 53.2422 240.809 52.8129 240.958C52.3929 241.098 51.8982 241.168 51.3289 241.168ZM51.3289 240.174C52.0196 240.174 52.5609 240.02 52.9529 239.712C53.3449 239.404 53.5409 238.97 53.5409 238.41V238.102C53.5409 237.542 53.3449 237.108 52.9529 236.8C52.5702 236.492 52.0289 236.338 51.3289 236.338C50.6289 236.338 50.0829 236.492 49.6909 236.8C49.3082 237.108 49.1169 237.542 49.1169 238.102V238.41C49.1169 238.97 49.3129 239.404 49.7049 239.712C50.0969 240.02 50.6382 240.174 51.3289 240.174ZM51.3289 235.386C51.9636 235.386 52.4442 235.251 52.7709 234.98C53.1069 234.709 53.2749 234.322 53.2749 233.818V233.622C53.2749 233.118 53.1022 232.731 52.7569 232.46C52.4209 232.189 51.9449 232.054 51.3289 232.054C50.7129 232.054 50.2322 232.189 49.8869 232.46C49.5509 232.731 49.3829 233.118 49.3829 233.622V233.818C49.3829 234.322 49.5462 234.709 49.8729 234.98C50.2089 235.251 50.6942 235.386 51.3289 235.386ZM61.8794 242.568H60.1574C59.4481 242.568 58.8508 242.447 58.3654 242.204C57.8894 241.971 57.5021 241.611 57.2034 241.126C56.9141 240.65 56.7041 240.053 56.5734 239.334C56.4521 238.615 56.3914 237.771 56.3914 236.8C56.3914 235.717 56.4614 234.812 56.6014 234.084C56.7508 233.347 56.9654 232.754 57.2454 232.306C57.5254 231.858 57.8708 231.541 58.2814 231.354C58.7014 231.158 59.1868 231.06 59.7374 231.06C60.2974 231.06 60.7734 231.149 61.1654 231.326C61.5668 231.503 61.8934 231.746 62.1454 232.054C62.3974 232.362 62.5794 232.731 62.6914 233.16C62.8128 233.58 62.8734 234.033 62.8734 234.518V239.726H61.8794V238.928H61.8094C61.7161 239.171 61.5621 239.395 61.3474 239.6C61.1328 239.796 60.8201 239.894 60.4094 239.894C59.8401 239.894 59.3874 239.656 59.0514 239.18C58.7154 238.695 58.5474 237.934 58.5474 236.898C58.5474 235.862 58.7154 235.101 59.0514 234.616C59.3874 234.131 59.8401 233.888 60.4094 233.888C60.6148 233.888 60.7921 233.916 60.9414 233.972C61.1001 234.028 61.2354 234.103 61.3474 234.196C61.4594 234.289 61.5528 234.392 61.6274 234.504C61.7021 234.616 61.7628 234.733 61.8094 234.854H61.8794V234.518C61.8794 233.725 61.7114 233.099 61.3754 232.642C61.0488 232.185 60.5121 231.956 59.7654 231.956C58.9348 231.956 58.3374 232.278 57.9734 232.922C57.6188 233.557 57.4414 234.579 57.4414 235.988V237.794C57.4414 238.335 57.4788 238.844 57.5534 239.32C57.6281 239.787 57.7634 240.197 57.9594 240.552C58.1648 240.897 58.4401 241.168 58.7854 241.364C59.1401 241.569 59.5974 241.672 60.1574 241.672H61.8794V242.568ZM60.7734 239.054C61.1094 239.054 61.3754 238.961 61.5714 238.774C61.7768 238.587 61.8794 238.317 61.8794 237.962V235.82C61.8794 235.465 61.7768 235.195 61.5714 235.008C61.3754 234.821 61.1094 234.728 60.7734 234.728C60.3814 234.728 60.0828 234.863 59.8774 235.134C59.6814 235.395 59.5834 235.839 59.5834 236.464V237.318C59.5834 237.943 59.6814 238.391 59.8774 238.662C60.0828 238.923 60.3814 239.054 60.7734 239.054ZM71.772 241.826C71.772 242.554 71.4686 243.091 70.862 243.436C70.2553 243.791 69.3453 243.968 68.132 243.968C66.9653 243.968 66.1253 243.814 65.612 243.506C65.108 243.198 64.856 242.755 64.856 242.176C64.856 241.784 64.9586 241.481 65.164 241.266C65.3693 241.051 65.6586 240.893 66.032 240.79V240.622C65.8266 240.519 65.668 240.389 65.556 240.23C65.444 240.071 65.388 239.871 65.388 239.628C65.388 239.255 65.5093 238.975 65.752 238.788C66.004 238.601 66.3166 238.461 66.69 238.368V238.312C66.242 238.116 65.892 237.827 65.64 237.444C65.3973 237.061 65.276 236.613 65.276 236.1C65.276 235.736 65.3413 235.4 65.472 235.092C65.6026 234.784 65.7893 234.523 66.032 234.308C66.284 234.084 66.5826 233.911 66.928 233.79C67.2733 233.669 67.656 233.608 68.076 233.608C68.6173 233.608 69.0933 233.706 69.504 233.902V233.776C69.504 233.496 69.5693 233.263 69.7 233.076C69.8306 232.889 70.0546 232.796 70.372 232.796H71.702V233.776H70.078V234.266C70.3393 234.49 70.54 234.756 70.68 235.064C70.82 235.372 70.89 235.717 70.89 236.1C70.89 236.464 70.82 236.8 70.68 237.108C70.5493 237.416 70.3626 237.682 70.12 237.906C69.8773 238.121 69.5786 238.289 69.224 238.41C68.8786 238.531 68.496 238.592 68.076 238.592C67.9546 238.592 67.838 238.587 67.726 238.578C67.614 238.569 67.502 238.555 67.39 238.536C67.278 238.555 67.1613 238.587 67.04 238.634C66.9186 238.671 66.8066 238.727 66.704 238.802C66.6013 238.867 66.5173 238.947 66.452 239.04C66.3866 239.133 66.354 239.241 66.354 239.362C66.354 239.577 66.4613 239.721 66.676 239.796C66.8906 239.861 67.1706 239.894 67.516 239.894H69.112C70.0453 239.894 70.722 240.071 71.142 240.426C71.562 240.771 71.772 241.238 71.772 241.826ZM70.722 241.882C70.722 241.593 70.6053 241.359 70.372 241.182C70.1386 241.014 69.7326 240.93 69.154 240.93H66.648C66.1626 241.126 65.92 241.453 65.92 241.91C65.92 242.227 66.046 242.498 66.298 242.722C66.55 242.955 66.97 243.072 67.558 243.072H68.65C69.3033 243.072 69.812 242.969 70.176 242.764C70.54 242.568 70.722 242.274 70.722 241.882ZM68.076 237.724C68.636 237.724 69.0466 237.593 69.308 237.332C69.5786 237.071 69.714 236.725 69.714 236.296V235.89C69.714 235.461 69.5786 235.12 69.308 234.868C69.0466 234.607 68.636 234.476 68.076 234.476C67.516 234.476 67.1053 234.607 66.844 234.868C66.5826 235.12 66.452 235.461 66.452 235.89V236.296C66.452 236.725 66.5826 237.071 66.844 237.332C67.1053 237.593 67.516 237.724 68.076 237.724ZM73.0685 241V233.776H74.1045V234.616H74.1605C74.2725 234.336 74.4312 234.098 74.6365 233.902C74.8418 233.706 75.1452 233.608 75.5465 233.608C75.9665 233.608 76.2792 233.715 76.4845 233.93C76.6898 234.135 76.8158 234.406 76.8625 234.742H76.9045C77.0352 234.415 77.2218 234.145 77.4645 233.93C77.7072 233.715 78.0432 233.608 78.4725 233.608C79.0605 233.608 79.4525 233.813 79.6485 234.224C79.8538 234.635 79.9565 235.223 79.9565 235.988V241H78.9205V236.17C78.9205 235.554 78.8552 235.129 78.7245 234.896C78.6032 234.653 78.3745 234.532 78.0385 234.532C77.7398 234.532 77.4972 234.63 77.3105 234.826C77.1238 235.013 77.0305 235.302 77.0305 235.694V241H75.9945V236.17C75.9945 235.554 75.9292 235.129 75.7985 234.896C75.6772 234.653 75.4532 234.532 75.1265 234.532C74.8278 234.532 74.5805 234.63 74.3845 234.826C74.1978 235.013 74.1045 235.302 74.1045 235.694V241H73.0685ZM87.637 241C87.1984 241 86.8857 240.888 86.699 240.664C86.5124 240.44 86.3957 240.16 86.349 239.824H86.279C86.1204 240.244 85.8637 240.575 85.509 240.818C85.1637 241.051 84.697 241.168 84.109 241.168C83.353 241.168 82.751 240.972 82.303 240.58C81.855 240.188 81.631 239.651 81.631 238.97C81.631 238.298 81.8737 237.78 82.359 237.416C82.8537 237.052 83.647 236.87 84.739 236.87H86.279V236.156C86.279 235.624 86.1297 235.227 85.831 234.966C85.5324 234.695 85.1077 234.56 84.557 234.56C84.0717 234.56 83.675 234.658 83.367 234.854C83.059 235.041 82.8117 235.297 82.625 235.624L81.869 235.064C81.9624 234.877 82.0884 234.695 82.247 234.518C82.4057 234.341 82.6017 234.187 82.835 234.056C83.0684 233.916 83.3344 233.809 83.633 233.734C83.9317 233.65 84.263 233.608 84.627 233.608C85.4764 233.608 86.1484 233.823 86.643 234.252C87.147 234.681 87.399 235.279 87.399 236.044V240.02H88.407V241H87.637ZM84.305 240.23C84.5944 240.23 84.8557 240.197 85.089 240.132C85.3317 240.057 85.5417 239.964 85.719 239.852C85.8964 239.731 86.0317 239.591 86.125 239.432C86.2277 239.264 86.279 239.087 86.279 238.9V237.71H84.739C84.067 237.71 83.577 237.803 83.269 237.99C82.961 238.177 82.807 238.447 82.807 238.802V239.096C82.807 239.469 82.9377 239.754 83.199 239.95C83.4697 240.137 83.8384 240.23 84.305 240.23ZM93.7496 232.18C93.4229 232.18 93.1942 232.115 93.0636 231.984C92.9329 231.844 92.8676 231.671 92.8676 231.466V231.242C92.8676 231.037 92.9329 230.869 93.0636 230.738C93.1942 230.598 93.4229 230.528 93.7496 230.528C94.0762 230.528 94.3049 230.598 94.4356 230.738C94.5662 230.869 94.6316 231.037 94.6316 231.242V231.466C94.6316 231.671 94.5662 231.844 94.4356 231.984C94.3049 232.115 94.0762 232.18 93.7496 232.18ZM90.5856 240.048H93.1896V234.728H90.5856V233.776H94.3096V240.048H96.7456V241H90.5856V240.048ZM98.6161 240.048H101.136V231.592H98.6161V230.64H102.256V240.048H104.776V241H98.6161V240.048ZM110.091 241.126C109.708 241.126 109.437 241.047 109.279 240.888C109.129 240.729 109.055 240.529 109.055 240.286V240.034C109.055 239.791 109.129 239.591 109.279 239.432C109.437 239.273 109.708 239.194 110.091 239.194C110.473 239.194 110.739 239.273 110.889 239.432C111.047 239.591 111.127 239.791 111.127 240.034V240.286C111.127 240.529 111.047 240.729 110.889 240.888C110.739 241.047 110.473 241.126 110.091 241.126ZM118.737 241.168C118.214 241.168 117.748 241.079 117.337 240.902C116.936 240.715 116.595 240.459 116.315 240.132C116.035 239.805 115.82 239.409 115.671 238.942C115.531 238.475 115.461 237.957 115.461 237.388C115.461 236.819 115.536 236.301 115.685 235.834C115.834 235.367 116.049 234.971 116.329 234.644C116.609 234.308 116.95 234.051 117.351 233.874C117.752 233.697 118.21 233.608 118.723 233.608C119.423 233.608 119.992 233.762 120.431 234.07C120.87 234.378 121.192 234.779 121.397 235.274L120.501 235.75C120.37 235.377 120.151 235.087 119.843 234.882C119.544 234.677 119.171 234.574 118.723 234.574C118.396 234.574 118.102 234.63 117.841 234.742C117.589 234.845 117.374 234.994 117.197 235.19C117.02 235.386 116.884 235.619 116.791 235.89C116.707 236.161 116.665 236.455 116.665 236.772V238.004C116.665 238.321 116.707 238.615 116.791 238.886C116.884 239.157 117.02 239.39 117.197 239.586C117.374 239.782 117.594 239.936 117.855 240.048C118.116 240.151 118.415 240.202 118.751 240.202C119.236 240.202 119.638 240.09 119.955 239.866C120.272 239.642 120.524 239.334 120.711 238.942L121.509 239.488C121.294 239.973 120.958 240.375 120.501 240.692C120.053 241.009 119.465 241.168 118.737 241.168ZM126.88 241.168C126.376 241.168 125.918 241.079 125.508 240.902C125.106 240.725 124.761 240.473 124.472 240.146C124.192 239.81 123.977 239.413 123.828 238.956C123.678 238.489 123.604 237.967 123.604 237.388C123.604 236.819 123.678 236.301 123.828 235.834C123.977 235.367 124.192 234.971 124.472 234.644C124.761 234.308 125.106 234.051 125.508 233.874C125.918 233.697 126.376 233.608 126.88 233.608C127.384 233.608 127.836 233.697 128.238 233.874C128.648 234.051 128.994 234.308 129.274 234.644C129.563 234.971 129.782 235.367 129.932 235.834C130.081 236.301 130.156 236.819 130.156 237.388C130.156 237.967 130.081 238.489 129.932 238.956C129.782 239.413 129.563 239.81 129.274 240.146C128.994 240.473 128.648 240.725 128.238 240.902C127.836 241.079 127.384 241.168 126.88 241.168ZM126.88 240.202C127.505 240.202 128.009 240.015 128.392 239.642C128.774 239.269 128.966 238.69 128.966 237.906V236.87C128.966 236.086 128.774 235.507 128.392 235.134C128.009 234.761 127.505 234.574 126.88 234.574C126.254 234.574 125.75 234.761 125.368 235.134C124.985 235.507 124.794 236.086 124.794 236.87V237.906C124.794 238.69 124.985 239.269 125.368 239.642C125.75 240.015 126.254 240.202 126.88 240.202ZM131.83 241V233.776H132.866V234.616H132.922C133.034 234.336 133.193 234.098 133.398 233.902C133.604 233.706 133.907 233.608 134.308 233.608C134.728 233.608 135.041 233.715 135.246 233.93C135.452 234.135 135.578 234.406 135.624 234.742H135.666C135.797 234.415 135.984 234.145 136.226 233.93C136.469 233.715 136.805 233.608 137.234 233.608C137.822 233.608 138.214 233.813 138.41 234.224C138.616 234.635 138.718 235.223 138.718 235.988V241H137.682V236.17C137.682 235.554 137.617 235.129 137.486 234.896C137.365 234.653 137.136 234.532 136.8 234.532C136.502 234.532 136.259 234.63 136.072 234.826C135.886 235.013 135.792 235.302 135.792 235.694V241H134.756V236.17C134.756 235.554 134.691 235.129 134.56 234.896C134.439 234.653 134.215 234.532 133.888 234.532C133.59 234.532 133.342 234.63 133.146 234.826C132.96 235.013 132.866 235.302 132.866 235.694V241H131.83Z" fill="#898989"/>
<rect x="-61.3633" y="351" width="219.287" height="62" rx="8" fill="#171717" stroke="#2E2E2E"/>
<path d="M-30.5277 387L-33.1177 379.776H-31.9837L-30.9477 382.8L-29.8277 386.062H-29.7717L-28.6517 382.8L-27.6157 379.776H-26.5097L-29.0997 387H-30.5277ZM-21.4191 387.168C-21.9231 387.168 -22.3805 387.079 -22.7911 386.902C-23.1925 386.725 -23.5378 386.473 -23.8271 386.146C-24.1071 385.81 -24.3218 385.413 -24.4711 384.956C-24.6205 384.489 -24.6951 383.967 -24.6951 383.388C-24.6951 382.819 -24.6205 382.301 -24.4711 381.834C-24.3218 381.367 -24.1071 380.971 -23.8271 380.644C-23.5378 380.308 -23.1925 380.051 -22.7911 379.874C-22.3805 379.697 -21.9231 379.608 -21.4191 379.608C-20.9151 379.608 -20.4625 379.697 -20.0611 379.874C-19.6505 380.051 -19.3051 380.308 -19.0251 380.644C-18.7358 380.971 -18.5165 381.367 -18.3671 381.834C-18.2178 382.301 -18.1431 382.819 -18.1431 383.388C-18.1431 383.967 -18.2178 384.489 -18.3671 384.956C-18.5165 385.413 -18.7358 385.81 -19.0251 386.146C-19.3051 386.473 -19.6505 386.725 -20.0611 386.902C-20.4625 387.079 -20.9151 387.168 -21.4191 387.168ZM-21.4191 386.202C-20.7938 386.202 -20.2898 386.015 -19.9071 385.642C-19.5245 385.269 -19.3331 384.69 -19.3331 383.906V382.87C-19.3331 382.086 -19.5245 381.507 -19.9071 381.134C-20.2898 380.761 -20.7938 380.574 -21.4191 380.574C-22.0445 380.574 -22.5485 380.761 -22.9311 381.134C-23.3138 381.507 -23.5051 382.086 -23.5051 382.87V383.906C-23.5051 384.69 -23.3138 385.269 -22.9311 385.642C-22.5485 386.015 -22.0445 386.202 -21.4191 386.202ZM-15.7966 388.848H-12.2966V380.728H-15.9226V379.776H-11.1766V388.148C-11.1766 388.633 -11.3073 389.03 -11.5686 389.338C-11.8206 389.646 -12.2219 389.8 -12.7726 389.8H-15.7966V388.848ZM-11.7366 378.18C-12.0633 378.18 -12.2919 378.115 -12.4226 377.984C-12.5533 377.844 -12.6186 377.671 -12.6186 377.466V377.242C-12.6186 377.037 -12.5533 376.869 -12.4226 376.738C-12.2919 376.598 -12.0633 376.528 -11.7366 376.528C-11.4099 376.528 -11.1813 376.598 -11.0506 376.738C-10.9199 376.869 -10.8546 377.037 -10.8546 377.242V377.466C-10.8546 377.671 -10.9199 377.844 -11.0506 377.984C-11.1813 378.115 -11.4099 378.18 -11.7366 378.18ZM-4.18208 378.18C-4.50874 378.18 -4.73741 378.115 -4.86808 377.984C-4.99874 377.844 -5.06408 377.671 -5.06408 377.466V377.242C-5.06408 377.037 -4.99874 376.869 -4.86808 376.738C-4.73741 376.598 -4.50874 376.528 -4.18208 376.528C-3.85541 376.528 -3.62674 376.598 -3.49608 376.738C-3.36541 376.869 -3.30008 377.037 -3.30008 377.242V377.466C-3.30008 377.671 -3.36541 377.844 -3.49608 377.984C-3.62674 378.115 -3.85541 378.18 -4.18208 378.18ZM-7.34608 386.048H-4.74208V380.728H-7.34608V379.776H-3.62208V386.048H-1.18608V387H-7.34608V386.048ZM0.418453 387L3.10645 383.332L0.488453 379.776H1.83245L2.92445 381.302L3.79245 382.506H3.84845L4.68845 381.302L5.76645 379.776H7.05445L4.40845 383.318L7.12445 387H5.78045L4.56245 385.306L3.73645 384.158H3.68045L2.88245 385.306L1.70645 387H0.418453ZM15.477 387H8.95298V385.796L12.215 382.856C12.691 382.427 13.083 381.988 13.391 381.54C13.699 381.083 13.853 380.602 13.853 380.098V379.93C13.853 379.342 13.699 378.889 13.391 378.572C13.083 378.245 12.6257 378.082 12.019 378.082C11.4217 378.082 10.9597 378.236 10.633 378.544C10.3157 378.843 10.0777 379.244 9.91898 379.748L8.86898 379.356C8.96232 379.067 9.08832 378.787 9.24698 378.516C9.41498 378.236 9.62498 377.989 9.87698 377.774C10.129 377.559 10.4323 377.387 10.787 377.256C11.151 377.125 11.571 377.06 12.047 377.06C12.5323 377.06 12.9617 377.13 13.335 377.27C13.7177 377.41 14.035 377.606 14.287 377.858C14.5483 378.11 14.7443 378.409 14.875 378.754C15.015 379.099 15.085 379.477 15.085 379.888C15.085 380.261 15.029 380.611 14.917 380.938C14.8143 381.265 14.665 381.577 14.469 381.876C14.2823 382.175 14.0537 382.469 13.783 382.758C13.5217 383.038 13.2277 383.318 12.901 383.598L10.171 385.978H15.477V387ZM20.1335 381.372C20.8148 381.372 21.3235 381.223 21.6595 380.924C22.0048 380.616 22.1775 380.224 22.1775 379.748V379.65C22.1775 379.127 22.0095 378.735 21.6735 378.474C21.3468 378.213 20.9175 378.082 20.3855 378.082C19.8628 378.082 19.4382 378.199 19.1115 378.432C18.7942 378.656 18.5328 378.955 18.3275 379.328L17.4455 378.656C17.5668 378.46 17.7162 378.269 17.8935 378.082C18.0708 377.886 18.2762 377.713 18.5095 377.564C18.7522 377.415 19.0275 377.293 19.3355 377.2C19.6528 377.107 20.0122 377.06 20.4135 377.06C20.8335 377.06 21.2255 377.116 21.5895 377.228C21.9535 377.331 22.2708 377.489 22.5415 377.704C22.8122 377.909 23.0222 378.166 23.1715 378.474C23.3302 378.782 23.4095 379.132 23.4095 379.524C23.4095 379.841 23.3582 380.126 23.2555 380.378C23.1622 380.63 23.0268 380.849 22.8495 381.036C22.6815 381.223 22.4808 381.381 22.2475 381.512C22.0142 381.643 21.7668 381.741 21.5055 381.806V381.862C21.7762 381.918 22.0375 382.011 22.2895 382.142C22.5415 382.263 22.7655 382.427 22.9615 382.632C23.1575 382.828 23.3115 383.071 23.4235 383.36C23.5448 383.64 23.6055 383.962 23.6055 384.326C23.6055 384.746 23.5215 385.133 23.3535 385.488C23.1948 385.833 22.9662 386.132 22.6675 386.384C22.3782 386.627 22.0235 386.818 21.6035 386.958C21.1928 387.098 20.7355 387.168 20.2315 387.168C19.8022 387.168 19.4195 387.121 19.0835 387.028C18.7568 386.935 18.4628 386.809 18.2015 386.65C17.9495 386.491 17.7255 386.314 17.5295 386.118C17.3428 385.922 17.1748 385.717 17.0255 385.502L17.9075 384.83C18.0382 385.026 18.1735 385.203 18.3135 385.362C18.4535 385.521 18.6122 385.661 18.7895 385.782C18.9762 385.894 19.1862 385.983 19.4195 386.048C19.6528 386.113 19.9235 386.146 20.2315 386.146C20.9222 386.146 21.4495 385.987 21.8135 385.67C22.1868 385.353 22.3735 384.9 22.3735 384.312V384.2C22.3735 383.621 22.1915 383.173 21.8275 382.856C21.4728 382.539 20.9362 382.38 20.2175 382.38H19.0555V381.372H20.1335ZM30.04 387V385.082H25.224V384.046L29.452 377.228H31.16V384.116H32.616V385.082H31.16V387H30.04ZM26.274 384.116H30.04V378.138H29.984L26.274 384.116ZM40.1566 378.25H35.7886L35.5086 381.988H35.6066C35.8492 381.661 36.1199 381.405 36.4186 381.218C36.7172 381.022 37.1279 380.924 37.6506 380.924C38.0799 380.924 38.4719 380.994 38.8266 381.134C39.1906 381.265 39.5032 381.461 39.7646 381.722C40.0259 381.983 40.2312 382.301 40.3806 382.674C40.5299 383.038 40.6046 383.458 40.6046 383.934C40.6046 384.41 40.5299 384.849 40.3806 385.25C40.2312 385.642 40.0119 385.983 39.7226 386.272C39.4332 386.552 39.0832 386.771 38.6726 386.93C38.2619 387.089 37.7952 387.168 37.2726 387.168C36.8619 387.168 36.4932 387.121 36.1666 387.028C35.8492 386.935 35.5646 386.809 35.3126 386.65C35.0699 386.491 34.8552 386.314 34.6686 386.118C34.4819 385.922 34.3139 385.717 34.1646 385.502L35.0466 384.83C35.1772 385.026 35.3079 385.203 35.4386 385.362C35.5786 385.521 35.7372 385.661 35.9146 385.782C36.0919 385.894 36.2926 385.983 36.5166 386.048C36.7406 386.113 37.0019 386.146 37.3006 386.146C37.9726 386.146 38.4859 385.964 38.8406 385.6C39.2046 385.236 39.3866 384.732 39.3866 384.088V383.976C39.3866 383.332 39.2046 382.828 38.8406 382.464C38.4766 382.1 37.9539 381.918 37.2726 381.918C36.8059 381.918 36.4419 381.997 36.1806 382.156C35.9286 382.315 35.6952 382.511 35.4806 382.744L34.4866 382.604L34.8366 377.228H40.1566V378.25ZM45.7511 387.168C45.2378 387.168 44.7758 387.084 44.3651 386.916C43.9544 386.739 43.6044 386.491 43.3151 386.174C43.0351 385.847 42.8158 385.451 42.6571 384.984C42.5078 384.517 42.4331 383.995 42.4331 383.416C42.4331 382.688 42.5404 382.007 42.7551 381.372C42.9791 380.728 43.2591 380.145 43.5951 379.622C43.9404 379.09 44.3231 378.623 44.7431 378.222C45.1631 377.811 45.5738 377.48 45.9751 377.228H47.4871C46.9551 377.611 46.4791 377.984 46.0591 378.348C45.6484 378.712 45.2844 379.095 44.9671 379.496C44.6498 379.888 44.3838 380.313 44.1691 380.77C43.9544 381.218 43.7771 381.727 43.6371 382.296L43.7071 382.324C43.9404 381.923 44.2484 381.591 44.6311 381.33C45.0138 381.059 45.5084 380.924 46.1151 380.924C46.5444 380.924 46.9364 380.994 47.2911 381.134C47.6458 381.274 47.9538 381.475 48.2151 381.736C48.4764 381.997 48.6771 382.315 48.8171 382.688C48.9664 383.061 49.0411 383.477 49.0411 383.934C49.0411 384.41 48.9618 384.849 48.8031 385.25C48.6444 385.642 48.4204 385.983 48.1311 386.272C47.8511 386.552 47.5058 386.771 47.0951 386.93C46.6938 387.089 46.2458 387.168 45.7511 387.168ZM45.7371 386.174C46.4091 386.174 46.9271 385.992 47.2911 385.628C47.6644 385.264 47.8511 384.751 47.8511 384.088V383.976C47.8511 383.313 47.6644 382.8 47.2911 382.436C46.9271 382.072 46.4091 381.89 45.7371 381.89C45.0651 381.89 44.5424 382.072 44.1691 382.436C43.8051 382.8 43.6231 383.313 43.6231 383.976V384.088C43.6231 384.751 43.8051 385.264 44.1691 385.628C44.5424 385.992 45.0651 386.174 45.7371 386.174ZM52.3536 387L56.1756 378.236H51.8916V380.056H50.8416V377.228H57.3656V378.264L53.6136 387H52.3536ZM64.6822 388.568H62.9602C62.2508 388.568 61.6535 388.447 61.1682 388.204C60.6922 387.971 60.3048 387.611 60.0062 387.126C59.7168 386.65 59.5068 386.053 59.3762 385.334C59.2548 384.615 59.1942 383.771 59.1942 382.8C59.1942 381.717 59.2642 380.812 59.4042 380.084C59.5535 379.347 59.7682 378.754 60.0482 378.306C60.3282 377.858 60.6735 377.541 61.0842 377.354C61.5042 377.158 61.9895 377.06 62.5402 377.06C63.1002 377.06 63.5762 377.149 63.9682 377.326C64.3695 377.503 64.6962 377.746 64.9482 378.054C65.2002 378.362 65.3822 378.731 65.4942 379.16C65.6155 379.58 65.6762 380.033 65.6762 380.518V385.726H64.6822V384.928H64.6122C64.5188 385.171 64.3648 385.395 64.1502 385.6C63.9355 385.796 63.6228 385.894 63.2122 385.894C62.6428 385.894 62.1902 385.656 61.8542 385.18C61.5182 384.695 61.3502 383.934 61.3502 382.898C61.3502 381.862 61.5182 381.101 61.8542 380.616C62.1902 380.131 62.6428 379.888 63.2122 379.888C63.4175 379.888 63.5948 379.916 63.7442 379.972C63.9028 380.028 64.0382 380.103 64.1502 380.196C64.2622 380.289 64.3555 380.392 64.4302 380.504C64.5048 380.616 64.5655 380.733 64.6122 380.854H64.6822V380.518C64.6822 379.725 64.5142 379.099 64.1782 378.642C63.8515 378.185 63.3148 377.956 62.5682 377.956C61.7375 377.956 61.1402 378.278 60.7762 378.922C60.4215 379.557 60.2442 380.579 60.2442 381.988V383.794C60.2442 384.335 60.2815 384.844 60.3562 385.32C60.4308 385.787 60.5662 386.197 60.7622 386.552C60.9675 386.897 61.2428 387.168 61.5882 387.364C61.9428 387.569 62.4002 387.672 62.9602 387.672H64.6822V388.568ZM63.5762 385.054C63.9122 385.054 64.1782 384.961 64.3742 384.774C64.5795 384.587 64.6822 384.317 64.6822 383.962V381.82C64.6822 381.465 64.5795 381.195 64.3742 381.008C64.1782 380.821 63.9122 380.728 63.5762 380.728C63.1842 380.728 62.8855 380.863 62.6802 381.134C62.4842 381.395 62.3862 381.839 62.3862 382.464V383.318C62.3862 383.943 62.4842 384.391 62.6802 384.662C62.8855 384.923 63.1842 385.054 63.5762 385.054ZM74.5747 387.826C74.5747 388.554 74.2714 389.091 73.6647 389.436C73.058 389.791 72.148 389.968 70.9347 389.968C69.768 389.968 68.928 389.814 68.4147 389.506C67.9107 389.198 67.6587 388.755 67.6587 388.176C67.6587 387.784 67.7614 387.481 67.9667 387.266C68.172 387.051 68.4614 386.893 68.8347 386.79V386.622C68.6294 386.519 68.4707 386.389 68.3587 386.23C68.2467 386.071 68.1907 385.871 68.1907 385.628C68.1907 385.255 68.312 384.975 68.5547 384.788C68.8067 384.601 69.1194 384.461 69.4927 384.368V384.312C69.0447 384.116 68.6947 383.827 68.4427 383.444C68.2 383.061 68.0787 382.613 68.0787 382.1C68.0787 381.736 68.144 381.4 68.2747 381.092C68.4054 380.784 68.592 380.523 68.8347 380.308C69.0867 380.084 69.3854 379.911 69.7307 379.79C70.076 379.669 70.4587 379.608 70.8787 379.608C71.42 379.608 71.896 379.706 72.3067 379.902V379.776C72.3067 379.496 72.372 379.263 72.5027 379.076C72.6334 378.889 72.8574 378.796 73.1747 378.796H74.5047V379.776H72.8807V380.266C73.142 380.49 73.3427 380.756 73.4827 381.064C73.6227 381.372 73.6927 381.717 73.6927 382.1C73.6927 382.464 73.6227 382.8 73.4827 383.108C73.352 383.416 73.1654 383.682 72.9227 383.906C72.68 384.121 72.3814 384.289 72.0267 384.41C71.6814 384.531 71.2987 384.592 70.8787 384.592C70.7574 384.592 70.6407 384.587 70.5287 384.578C70.4167 384.569 70.3047 384.555 70.1927 384.536C70.0807 384.555 69.964 384.587 69.8427 384.634C69.7214 384.671 69.6094 384.727 69.5067 384.802C69.404 384.867 69.32 384.947 69.2547 385.04C69.1894 385.133 69.1567 385.241 69.1567 385.362C69.1567 385.577 69.264 385.721 69.4787 385.796C69.6934 385.861 69.9734 385.894 70.3187 385.894H71.9147C72.848 385.894 73.5247 386.071 73.9447 386.426C74.3647 386.771 74.5747 387.238 74.5747 387.826ZM73.5247 387.882C73.5247 387.593 73.408 387.359 73.1747 387.182C72.9414 387.014 72.5354 386.93 71.9567 386.93H69.4507C68.9654 387.126 68.7227 387.453 68.7227 387.91C68.7227 388.227 68.8487 388.498 69.1007 388.722C69.3527 388.955 69.7727 389.072 70.3607 389.072H71.4527C72.106 389.072 72.6147 388.969 72.9787 388.764C73.3427 388.568 73.5247 388.274 73.5247 387.882ZM70.8787 383.724C71.4387 383.724 71.8494 383.593 72.1107 383.332C72.3814 383.071 72.5167 382.725 72.5167 382.296V381.89C72.5167 381.461 72.3814 381.12 72.1107 380.868C71.8494 380.607 71.4387 380.476 70.8787 380.476C70.3187 380.476 69.908 380.607 69.6467 380.868C69.3854 381.12 69.2547 381.461 69.2547 381.89V382.296C69.2547 382.725 69.3854 383.071 69.6467 383.332C69.908 383.593 70.3187 383.724 70.8787 383.724ZM75.8712 387V379.776H76.9072V380.616H76.9632C77.0752 380.336 77.2339 380.098 77.4392 379.902C77.6446 379.706 77.9479 379.608 78.3492 379.608C78.7692 379.608 79.0819 379.715 79.2872 379.93C79.4926 380.135 79.6186 380.406 79.6652 380.742H79.7072C79.8379 380.415 80.0246 380.145 80.2672 379.93C80.5099 379.715 80.8459 379.608 81.2752 379.608C81.8632 379.608 82.2552 379.813 82.4512 380.224C82.6566 380.635 82.7592 381.223 82.7592 381.988V387H81.7232V382.17C81.7232 381.554 81.6579 381.129 81.5272 380.896C81.4059 380.653 81.1772 380.532 80.8412 380.532C80.5426 380.532 80.2999 380.63 80.1132 380.826C79.9266 381.013 79.8332 381.302 79.8332 381.694V387H78.7972V382.17C78.7972 381.554 78.7319 381.129 78.6012 380.896C78.4799 380.653 78.2559 380.532 77.9292 380.532C77.6306 380.532 77.3832 380.63 77.1872 380.826C77.0006 381.013 76.9072 381.302 76.9072 381.694V387H75.8712ZM90.4398 387C90.0011 387 89.6884 386.888 89.5018 386.664C89.3151 386.44 89.1984 386.16 89.1518 385.824H89.0818C88.9231 386.244 88.6664 386.575 88.3118 386.818C87.9664 387.051 87.4998 387.168 86.9118 387.168C86.1558 387.168 85.5538 386.972 85.1058 386.58C84.6578 386.188 84.4338 385.651 84.4338 384.97C84.4338 384.298 84.6764 383.78 85.1618 383.416C85.6564 383.052 86.4498 382.87 87.5418 382.87H89.0818V382.156C89.0818 381.624 88.9324 381.227 88.6338 380.966C88.3351 380.695 87.9104 380.56 87.3598 380.56C86.8744 380.56 86.4778 380.658 86.1698 380.854C85.8618 381.041 85.6144 381.297 85.4278 381.624L84.6718 381.064C84.7651 380.877 84.8911 380.695 85.0498 380.518C85.2084 380.341 85.4044 380.187 85.6378 380.056C85.8711 379.916 86.1371 379.809 86.4358 379.734C86.7344 379.65 87.0658 379.608 87.4298 379.608C88.2791 379.608 88.9511 379.823 89.4458 380.252C89.9498 380.681 90.2018 381.279 90.2018 382.044V386.02H91.2098V387H90.4398ZM87.1078 386.23C87.3971 386.23 87.6584 386.197 87.8918 386.132C88.1344 386.057 88.3444 385.964 88.5218 385.852C88.6991 385.731 88.8344 385.591 88.9278 385.432C89.0304 385.264 89.0818 385.087 89.0818 384.9V383.71H87.5418C86.8698 383.71 86.3798 383.803 86.0718 383.99C85.7638 384.177 85.6098 384.447 85.6098 384.802V385.096C85.6098 385.469 85.7404 385.754 86.0018 385.95C86.2724 386.137 86.6411 386.23 87.1078 386.23ZM96.5523 378.18C96.2256 378.18 95.997 378.115 95.8663 377.984C95.7356 377.844 95.6703 377.671 95.6703 377.466V377.242C95.6703 377.037 95.7356 376.869 95.8663 376.738C95.997 376.598 96.2256 376.528 96.5523 376.528C96.879 376.528 97.1076 376.598 97.2383 376.738C97.369 376.869 97.4343 377.037 97.4343 377.242V377.466C97.4343 377.671 97.369 377.844 97.2383 377.984C97.1076 378.115 96.879 378.18 96.5523 378.18ZM93.3883 386.048H95.9923V380.728H93.3883V379.776H97.1123V386.048H99.5483V387H93.3883V386.048ZM101.419 386.048H103.939V377.592H101.419V376.64H105.059V386.048H107.579V387H101.419V386.048ZM112.893 387.126C112.511 387.126 112.24 387.047 112.081 386.888C111.932 386.729 111.857 386.529 111.857 386.286V386.034C111.857 385.791 111.932 385.591 112.081 385.432C112.24 385.273 112.511 385.194 112.893 385.194C113.276 385.194 113.542 385.273 113.691 385.432C113.85 385.591 113.929 385.791 113.929 386.034V386.286C113.929 386.529 113.85 386.729 113.691 386.888C113.542 387.047 113.276 387.126 112.893 387.126ZM121.54 387.168C121.017 387.168 120.551 387.079 120.14 386.902C119.739 386.715 119.398 386.459 119.118 386.132C118.838 385.805 118.623 385.409 118.474 384.942C118.334 384.475 118.264 383.957 118.264 383.388C118.264 382.819 118.339 382.301 118.488 381.834C118.637 381.367 118.852 380.971 119.132 380.644C119.412 380.308 119.753 380.051 120.154 379.874C120.555 379.697 121.013 379.608 121.526 379.608C122.226 379.608 122.795 379.762 123.234 380.07C123.673 380.378 123.995 380.779 124.2 381.274L123.304 381.75C123.173 381.377 122.954 381.087 122.646 380.882C122.347 380.677 121.974 380.574 121.526 380.574C121.199 380.574 120.905 380.63 120.644 380.742C120.392 380.845 120.177 380.994 120 381.19C119.823 381.386 119.687 381.619 119.594 381.89C119.51 382.161 119.468 382.455 119.468 382.772V384.004C119.468 384.321 119.51 384.615 119.594 384.886C119.687 385.157 119.823 385.39 120 385.586C120.177 385.782 120.397 385.936 120.658 386.048C120.919 386.151 121.218 386.202 121.554 386.202C122.039 386.202 122.441 386.09 122.758 385.866C123.075 385.642 123.327 385.334 123.514 384.942L124.312 385.488C124.097 385.973 123.761 386.375 123.304 386.692C122.856 387.009 122.268 387.168 121.54 387.168ZM129.682 387.168C129.178 387.168 128.721 387.079 128.31 386.902C127.909 386.725 127.564 386.473 127.274 386.146C126.994 385.81 126.78 385.413 126.63 384.956C126.481 384.489 126.406 383.967 126.406 383.388C126.406 382.819 126.481 382.301 126.63 381.834C126.78 381.367 126.994 380.971 127.274 380.644C127.564 380.308 127.909 380.051 128.31 379.874C128.721 379.697 129.178 379.608 129.682 379.608C130.186 379.608 130.639 379.697 131.04 379.874C131.451 380.051 131.796 380.308 132.076 380.644C132.366 380.971 132.585 381.367 132.734 381.834C132.884 382.301 132.958 382.819 132.958 383.388C132.958 383.967 132.884 384.489 132.734 384.956C132.585 385.413 132.366 385.81 132.076 386.146C131.796 386.473 131.451 386.725 131.04 386.902C130.639 387.079 130.186 387.168 129.682 387.168ZM129.682 386.202C130.308 386.202 130.812 386.015 131.194 385.642C131.577 385.269 131.768 384.69 131.768 383.906V382.87C131.768 382.086 131.577 381.507 131.194 381.134C130.812 380.761 130.308 380.574 129.682 380.574C129.057 380.574 128.553 380.761 128.17 381.134C127.788 381.507 127.596 382.086 127.596 382.87V383.906C127.596 384.69 127.788 385.269 128.17 385.642C128.553 386.015 129.057 386.202 129.682 386.202ZM134.633 387V379.776H135.669V380.616H135.725C135.837 380.336 135.996 380.098 136.201 379.902C136.406 379.706 136.71 379.608 137.111 379.608C137.531 379.608 137.844 379.715 138.049 379.93C138.254 380.135 138.38 380.406 138.427 380.742H138.469C138.6 380.415 138.786 380.145 139.029 379.93C139.272 379.715 139.608 379.608 140.037 379.608C140.625 379.608 141.017 379.813 141.213 380.224C141.418 380.635 141.521 381.223 141.521 381.988V387H140.485V382.17C140.485 381.554 140.42 381.129 140.289 380.896C140.168 380.653 139.939 380.532 139.603 380.532C139.304 380.532 139.062 380.63 138.875 380.826C138.688 381.013 138.595 381.302 138.595 381.694V387H137.559V382.17C137.559 381.554 137.494 381.129 137.363 380.896C137.242 380.653 137.018 380.532 136.691 380.532C136.392 380.532 136.145 380.63 135.949 380.826C135.762 381.013 135.669 381.302 135.669 381.694V387H134.633Z" fill="#898989"/>
<rect x="167.434" y="205" width="223.933" height="62" rx="8" fill="#171717" stroke="#2E2E2E"/>
<path d="M238.587 241C238.149 241 237.836 240.888 237.649 240.664C237.463 240.44 237.346 240.16 237.299 239.824H237.229C237.071 240.244 236.814 240.575 236.459 240.818C236.114 241.051 235.647 241.168 235.059 241.168C234.303 241.168 233.701 240.972 233.253 240.58C232.805 240.188 232.581 239.651 232.581 238.97C232.581 238.298 232.824 237.78 233.309 237.416C233.804 237.052 234.597 236.87 235.689 236.87H237.229V236.156C237.229 235.624 237.08 235.227 236.781 234.966C236.483 234.695 236.058 234.56 235.507 234.56C235.022 234.56 234.625 234.658 234.317 234.854C234.009 235.041 233.762 235.297 233.575 235.624L232.819 235.064C232.913 234.877 233.039 234.695 233.197 234.518C233.356 234.341 233.552 234.187 233.785 234.056C234.019 233.916 234.285 233.809 234.583 233.734C234.882 233.65 235.213 233.608 235.577 233.608C236.427 233.608 237.099 233.823 237.593 234.252C238.097 234.681 238.349 235.279 238.349 236.044V240.02H239.357V241H238.587ZM235.255 240.23C235.545 240.23 235.806 240.197 236.039 240.132C236.282 240.057 236.492 239.964 236.669 239.852C236.847 239.731 236.982 239.591 237.075 239.432C237.178 239.264 237.229 239.087 237.229 238.9V237.71H235.689C235.017 237.71 234.527 237.803 234.219 237.99C233.911 238.177 233.757 238.447 233.757 238.802V239.096C233.757 239.469 233.888 239.754 234.149 239.95C234.42 240.137 234.789 240.23 235.255 240.23ZM241.172 240.048H243.692V231.592H241.172V230.64H244.812V240.048H247.332V241H241.172V240.048ZM252.772 241.168C252.25 241.168 251.778 241.079 251.358 240.902C250.948 240.725 250.593 240.473 250.294 240.146C250.005 239.81 249.781 239.413 249.622 238.956C249.464 238.489 249.384 237.971 249.384 237.402C249.384 236.823 249.464 236.301 249.622 235.834C249.79 235.367 250.019 234.971 250.308 234.644C250.598 234.308 250.943 234.051 251.344 233.874C251.755 233.697 252.208 233.608 252.702 233.608C253.188 233.608 253.626 233.697 254.018 233.874C254.42 234.051 254.76 234.299 255.04 234.616C255.32 234.924 255.535 235.293 255.684 235.722C255.834 236.151 255.908 236.623 255.908 237.136V237.668H250.56V238.004C250.56 238.321 250.612 238.615 250.714 238.886C250.817 239.157 250.962 239.39 251.148 239.586C251.344 239.782 251.578 239.936 251.848 240.048C252.128 240.151 252.436 240.202 252.772 240.202C253.258 240.202 253.678 240.09 254.032 239.866C254.387 239.642 254.658 239.334 254.844 238.942L255.67 239.502C255.456 239.987 255.096 240.389 254.592 240.706C254.098 241.014 253.491 241.168 252.772 241.168ZM252.702 234.532C252.394 234.532 252.11 234.588 251.848 234.7C251.587 234.812 251.358 234.966 251.162 235.162C250.976 235.358 250.826 235.591 250.714 235.862C250.612 236.123 250.56 236.413 250.56 236.73V236.828H254.704V236.674C254.704 236.357 254.653 236.067 254.55 235.806C254.457 235.545 254.322 235.321 254.144 235.134C253.976 234.938 253.766 234.789 253.514 234.686C253.272 234.583 253.001 234.532 252.702 234.532ZM257.695 241L260.383 237.332L257.765 233.776H259.109L260.201 235.302L261.069 236.506H261.125L261.965 235.302L263.043 233.776H264.331L261.685 237.318L264.401 241H263.057L261.839 239.306L261.013 238.158H260.957L260.159 239.306L258.983 241H257.695ZM266.425 241V239.978H269.225V232.096H269.127L266.663 234.392L265.977 233.65L268.567 231.228H270.401V239.978H272.977V241H266.425ZM277.844 241.168C277.331 241.168 276.869 241.084 276.458 240.916C276.047 240.739 275.697 240.491 275.408 240.174C275.128 239.847 274.909 239.451 274.75 238.984C274.601 238.517 274.526 237.995 274.526 237.416C274.526 236.688 274.633 236.007 274.848 235.372C275.072 234.728 275.352 234.145 275.688 233.622C276.033 233.09 276.416 232.623 276.836 232.222C277.256 231.811 277.667 231.48 278.068 231.228H279.58C279.048 231.611 278.572 231.984 278.152 232.348C277.741 232.712 277.377 233.095 277.06 233.496C276.743 233.888 276.477 234.313 276.262 234.77C276.047 235.218 275.87 235.727 275.73 236.296L275.8 236.324C276.033 235.923 276.341 235.591 276.724 235.33C277.107 235.059 277.601 234.924 278.208 234.924C278.637 234.924 279.029 234.994 279.384 235.134C279.739 235.274 280.047 235.475 280.308 235.736C280.569 235.997 280.77 236.315 280.91 236.688C281.059 237.061 281.134 237.477 281.134 237.934C281.134 238.41 281.055 238.849 280.896 239.25C280.737 239.642 280.513 239.983 280.224 240.272C279.944 240.552 279.599 240.771 279.188 240.93C278.787 241.089 278.339 241.168 277.844 241.168ZM277.83 240.174C278.502 240.174 279.02 239.992 279.384 239.628C279.757 239.264 279.944 238.751 279.944 238.088V237.976C279.944 237.313 279.757 236.8 279.384 236.436C279.02 236.072 278.502 235.89 277.83 235.89C277.158 235.89 276.635 236.072 276.262 236.436C275.898 236.8 275.716 237.313 275.716 237.976V238.088C275.716 238.751 275.898 239.264 276.262 239.628C276.635 239.992 277.158 240.174 277.83 240.174ZM286.224 241.168C285.627 241.168 285.114 241.056 284.684 240.832C284.255 240.599 283.9 240.267 283.62 239.838C283.34 239.409 283.135 238.881 283.004 238.256C282.874 237.631 282.808 236.917 282.808 236.114C282.808 235.321 282.874 234.611 283.004 233.986C283.135 233.351 283.34 232.819 283.62 232.39C283.9 231.961 284.255 231.634 284.684 231.41C285.114 231.177 285.627 231.06 286.224 231.06C286.822 231.06 287.335 231.177 287.764 231.41C288.194 231.634 288.548 231.961 288.828 232.39C289.108 232.819 289.314 233.351 289.444 233.986C289.575 234.611 289.64 235.321 289.64 236.114C289.64 236.917 289.575 237.631 289.444 238.256C289.314 238.881 289.108 239.409 288.828 239.838C288.548 240.267 288.194 240.599 287.764 240.832C287.335 241.056 286.822 241.168 286.224 241.168ZM286.224 240.146C286.616 240.146 286.952 240.071 287.232 239.922C287.512 239.763 287.736 239.544 287.904 239.264C288.082 238.984 288.212 238.648 288.296 238.256C288.38 237.855 288.422 237.407 288.422 236.912V235.316C288.422 234.831 288.38 234.387 288.296 233.986C288.212 233.585 288.082 233.244 287.904 232.964C287.736 232.684 287.512 232.469 287.232 232.32C286.952 232.161 286.616 232.082 286.224 232.082C285.832 232.082 285.496 232.161 285.216 232.32C284.936 232.469 284.708 232.684 284.53 232.964C284.362 233.244 284.236 233.585 284.152 233.986C284.068 234.387 284.026 234.831 284.026 235.316V236.912C284.026 237.407 284.068 237.855 284.152 238.256C284.236 238.648 284.362 238.984 284.53 239.264C284.708 239.544 284.936 239.763 285.216 239.922C285.496 240.071 285.832 240.146 286.224 240.146ZM286.224 236.94C285.898 236.94 285.669 236.875 285.538 236.744C285.417 236.613 285.356 236.455 285.356 236.268V235.96C285.356 235.773 285.417 235.615 285.538 235.484C285.669 235.353 285.898 235.288 286.224 235.288C286.551 235.288 286.775 235.353 286.896 235.484C287.027 235.615 287.092 235.773 287.092 235.96V236.268C287.092 236.455 287.027 236.613 286.896 236.744C286.775 236.875 286.551 236.94 286.224 236.94ZM291.609 241V239.978H294.409V232.096H294.311L291.847 234.392L291.161 233.65L293.751 231.228H295.585V239.978H298.161V241H291.609ZM306.317 234.812C306.317 235.54 306.205 236.226 305.981 236.87C305.767 237.505 305.487 238.088 305.141 238.62C304.796 239.143 304.413 239.609 303.993 240.02C303.583 240.421 303.177 240.748 302.775 241H301.263C301.795 240.617 302.267 240.244 302.677 239.88C303.097 239.516 303.466 239.138 303.783 238.746C304.101 238.345 304.367 237.92 304.581 237.472C304.796 237.015 304.973 236.501 305.113 235.932L305.043 235.904C304.801 236.305 304.488 236.641 304.105 236.912C303.732 237.173 303.242 237.304 302.635 237.304C302.206 237.304 301.809 237.234 301.445 237.094C301.091 236.954 300.783 236.753 300.521 236.492C300.269 236.231 300.069 235.918 299.919 235.554C299.779 235.181 299.709 234.761 299.709 234.294C299.709 233.818 299.784 233.384 299.933 232.992C300.092 232.591 300.316 232.25 300.605 231.97C300.895 231.681 301.24 231.457 301.641 231.298C302.052 231.139 302.505 231.06 302.999 231.06C303.513 231.06 303.975 231.149 304.385 231.326C304.796 231.494 305.141 231.741 305.421 232.068C305.711 232.385 305.93 232.777 306.079 233.244C306.238 233.711 306.317 234.233 306.317 234.812ZM303.013 236.338C303.685 236.338 304.203 236.156 304.567 235.792C304.941 235.428 305.127 234.915 305.127 234.252V234.14C305.127 233.477 304.941 232.964 304.567 232.6C304.203 232.236 303.685 232.054 303.013 232.054C302.341 232.054 301.819 232.236 301.445 232.6C301.081 232.964 300.899 233.477 300.899 234.14V234.252C300.899 234.915 301.081 235.428 301.445 235.792C301.819 236.156 302.341 236.338 303.013 236.338ZM311.408 241.168C310.839 241.168 310.339 241.098 309.91 240.958C309.481 240.809 309.121 240.608 308.832 240.356C308.552 240.104 308.337 239.805 308.188 239.46C308.048 239.115 307.978 238.741 307.978 238.34C307.978 237.668 308.16 237.136 308.524 236.744C308.888 236.352 309.369 236.077 309.966 235.918V235.806C309.443 235.629 309.028 235.344 308.72 234.952C308.421 234.551 308.272 234.07 308.272 233.51C308.272 232.763 308.547 232.171 309.098 231.732C309.649 231.284 310.419 231.06 311.408 231.06C312.397 231.06 313.167 231.284 313.718 231.732C314.269 232.171 314.544 232.763 314.544 233.51C314.544 234.07 314.39 234.551 314.082 234.952C313.783 235.344 313.373 235.629 312.85 235.806V235.918C313.447 236.077 313.928 236.352 314.292 236.744C314.656 237.136 314.838 237.668 314.838 238.34C314.838 238.741 314.763 239.115 314.614 239.46C314.474 239.805 314.259 240.104 313.97 240.356C313.681 240.608 313.321 240.809 312.892 240.958C312.472 241.098 311.977 241.168 311.408 241.168ZM311.408 240.174C312.099 240.174 312.64 240.02 313.032 239.712C313.424 239.404 313.62 238.97 313.62 238.41V238.102C313.62 237.542 313.424 237.108 313.032 236.8C312.649 236.492 312.108 236.338 311.408 236.338C310.708 236.338 310.162 236.492 309.77 236.8C309.387 237.108 309.196 237.542 309.196 238.102V238.41C309.196 238.97 309.392 239.404 309.784 239.712C310.176 240.02 310.717 240.174 311.408 240.174ZM311.408 235.386C312.043 235.386 312.523 235.251 312.85 234.98C313.186 234.709 313.354 234.322 313.354 233.818V233.622C313.354 233.118 313.181 232.731 312.836 232.46C312.5 232.189 312.024 232.054 311.408 232.054C310.792 232.054 310.311 232.189 309.966 232.46C309.63 232.731 309.462 233.118 309.462 233.622V233.818C309.462 234.322 309.625 234.709 309.952 234.98C310.288 235.251 310.773 235.386 311.408 235.386Z" fill="#898989"/>
<rect x="167.434" y="351" width="223.933" height="62" rx="8" fill="#171717" stroke="#2E2E2E"/>
<path d="M219.821 386.691V379.467H220.857V380.307H220.913C221.025 380.027 221.184 379.789 221.389 379.593C221.595 379.397 221.898 379.299 222.299 379.299C222.719 379.299 223.032 379.407 223.237 379.621C223.443 379.827 223.569 380.097 223.615 380.433H223.657C223.788 380.107 223.975 379.836 224.217 379.621C224.46 379.407 224.796 379.299 225.225 379.299C225.813 379.299 226.205 379.505 226.401 379.915C226.607 380.326 226.709 380.914 226.709 381.679V386.691H225.673V381.861C225.673 381.245 225.608 380.821 225.477 380.587C225.356 380.345 225.127 380.223 224.791 380.223C224.493 380.223 224.25 380.321 224.063 380.517C223.877 380.704 223.783 380.993 223.783 381.385V386.691H222.747V381.861C222.747 381.245 222.682 380.821 222.551 380.587C222.43 380.345 222.206 380.223 221.879 380.223C221.581 380.223 221.333 380.321 221.137 380.517C220.951 380.704 220.857 380.993 220.857 381.385V386.691H219.821ZM231.786 386.859C231.263 386.859 230.792 386.771 230.372 386.593C229.961 386.416 229.607 386.164 229.308 385.837C229.019 385.501 228.795 385.105 228.636 384.647C228.477 384.181 228.398 383.663 228.398 383.093C228.398 382.515 228.477 381.992 228.636 381.525C228.804 381.059 229.033 380.662 229.322 380.335C229.611 379.999 229.957 379.743 230.358 379.565C230.769 379.388 231.221 379.299 231.716 379.299C232.201 379.299 232.64 379.388 233.032 379.565C233.433 379.743 233.774 379.99 234.054 380.307C234.334 380.615 234.549 380.984 234.698 381.413C234.847 381.843 234.922 382.314 234.922 382.827V383.359H229.574V383.695C229.574 384.013 229.625 384.307 229.728 384.577C229.831 384.848 229.975 385.081 230.162 385.277C230.358 385.473 230.591 385.627 230.862 385.739C231.142 385.842 231.45 385.893 231.786 385.893C232.271 385.893 232.691 385.781 233.046 385.557C233.401 385.333 233.671 385.025 233.858 384.633L234.684 385.193C234.469 385.679 234.11 386.08 233.606 386.397C233.111 386.705 232.505 386.859 231.786 386.859ZM231.716 380.223C231.408 380.223 231.123 380.279 230.862 380.391C230.601 380.503 230.372 380.657 230.176 380.853C229.989 381.049 229.84 381.283 229.728 381.553C229.625 381.815 229.574 382.104 229.574 382.421V382.519H233.718V382.365C233.718 382.048 233.667 381.759 233.564 381.497C233.471 381.236 233.335 381.012 233.158 380.825C232.99 380.629 232.78 380.48 232.528 380.377C232.285 380.275 232.015 380.223 231.716 380.223ZM236.61 386.691V379.467H237.646V380.307H237.702C237.814 380.027 237.973 379.789 238.178 379.593C238.384 379.397 238.687 379.299 239.088 379.299C239.508 379.299 239.821 379.407 240.026 379.621C240.232 379.827 240.358 380.097 240.404 380.433H240.446C240.577 380.107 240.764 379.836 241.006 379.621C241.249 379.407 241.585 379.299 242.014 379.299C242.602 379.299 242.994 379.505 243.19 379.915C243.396 380.326 243.498 380.914 243.498 381.679V386.691H242.462V381.861C242.462 381.245 242.397 380.821 242.266 380.587C242.145 380.345 241.916 380.223 241.58 380.223C241.282 380.223 241.039 380.321 240.852 380.517C240.666 380.704 240.572 380.993 240.572 381.385V386.691H239.536V381.861C239.536 381.245 239.471 380.821 239.34 380.587C239.219 380.345 238.995 380.223 238.668 380.223C238.37 380.223 238.122 380.321 237.926 380.517C237.74 380.704 237.646 380.993 237.646 381.385V386.691H236.61ZM248.575 386.859C248.052 386.859 247.581 386.771 247.161 386.593C246.75 386.416 246.396 386.164 246.097 385.837C245.808 385.501 245.584 385.105 245.425 384.647C245.266 384.181 245.187 383.663 245.187 383.093C245.187 382.515 245.266 381.992 245.425 381.525C245.593 381.059 245.822 380.662 246.111 380.335C246.4 379.999 246.746 379.743 247.147 379.565C247.558 379.388 248.01 379.299 248.505 379.299C248.99 379.299 249.429 379.388 249.821 379.565C250.222 379.743 250.563 379.99 250.843 380.307C251.123 380.615 251.338 380.984 251.487 381.413C251.636 381.843 251.711 382.314 251.711 382.827V383.359H246.363V383.695C246.363 384.013 246.414 384.307 246.517 384.577C246.62 384.848 246.764 385.081 246.951 385.277C247.147 385.473 247.38 385.627 247.651 385.739C247.931 385.842 248.239 385.893 248.575 385.893C249.06 385.893 249.48 385.781 249.835 385.557C250.19 385.333 250.46 385.025 250.647 384.633L251.473 385.193C251.258 385.679 250.899 386.08 250.395 386.397C249.9 386.705 249.294 386.859 248.575 386.859ZM248.505 380.223C248.197 380.223 247.912 380.279 247.651 380.391C247.39 380.503 247.161 380.657 246.965 380.853C246.778 381.049 246.629 381.283 246.517 381.553C246.414 381.815 246.363 382.104 246.363 382.421V382.519H250.507V382.365C250.507 382.048 250.456 381.759 250.353 381.497C250.26 381.236 250.124 381.012 249.947 380.825C249.779 380.629 249.569 380.48 249.317 380.377C249.074 380.275 248.804 380.223 248.505 380.223ZM253.4 386.691V379.467H254.436V380.307H254.492C254.604 380.027 254.762 379.789 254.968 379.593C255.173 379.397 255.476 379.299 255.878 379.299C256.298 379.299 256.61 379.407 256.816 379.621C257.021 379.827 257.147 380.097 257.194 380.433H257.236C257.366 380.107 257.553 379.836 257.796 379.621C258.038 379.407 258.374 379.299 258.804 379.299C259.392 379.299 259.784 379.505 259.98 379.915C260.185 380.326 260.288 380.914 260.288 381.679V386.691H259.252V381.861C259.252 381.245 259.186 380.821 259.056 380.587C258.934 380.345 258.706 380.223 258.37 380.223C258.071 380.223 257.828 380.321 257.642 380.517C257.455 380.704 257.362 380.993 257.362 381.385V386.691H256.326V381.861C256.326 381.245 256.26 380.821 256.13 380.587C256.008 380.345 255.784 380.223 255.458 380.223C255.159 380.223 254.912 380.321 254.716 380.517C254.529 380.704 254.436 380.993 254.436 381.385V386.691H253.4ZM267.968 386.691C267.529 386.691 267.217 386.579 267.03 386.355C266.843 386.131 266.727 385.851 266.68 385.515H266.61C266.451 385.935 266.195 386.267 265.84 386.509C265.495 386.743 265.028 386.859 264.44 386.859C263.684 386.859 263.082 386.663 262.634 386.271C262.186 385.879 261.962 385.343 261.962 384.661C261.962 383.989 262.205 383.471 262.69 383.107C263.185 382.743 263.978 382.561 265.07 382.561H266.61V381.847C266.61 381.315 266.461 380.919 266.162 380.657C265.863 380.387 265.439 380.251 264.888 380.251C264.403 380.251 264.006 380.349 263.698 380.545C263.39 380.732 263.143 380.989 262.956 381.315L262.2 380.755C262.293 380.569 262.419 380.387 262.578 380.209C262.737 380.032 262.933 379.878 263.166 379.747C263.399 379.607 263.665 379.5 263.964 379.425C264.263 379.341 264.594 379.299 264.958 379.299C265.807 379.299 266.479 379.514 266.974 379.943C267.478 380.373 267.73 380.97 267.73 381.735V385.711H268.738V386.691H267.968ZM264.636 385.921C264.925 385.921 265.187 385.889 265.42 385.823C265.663 385.749 265.873 385.655 266.05 385.543C266.227 385.422 266.363 385.282 266.456 385.123C266.559 384.955 266.61 384.778 266.61 384.591V383.401H265.07C264.398 383.401 263.908 383.495 263.6 383.681C263.292 383.868 263.138 384.139 263.138 384.493V384.787C263.138 385.161 263.269 385.445 263.53 385.641C263.801 385.828 264.169 385.921 264.636 385.921ZM273.717 386.859C272.961 386.859 272.307 386.733 271.757 386.481C271.215 386.22 270.753 385.875 270.371 385.445L271.127 384.787C271.472 385.151 271.85 385.431 272.261 385.627C272.671 385.823 273.166 385.921 273.745 385.921C274.305 385.921 274.762 385.823 275.117 385.627C275.481 385.422 275.663 385.105 275.663 384.675C275.663 384.489 275.625 384.335 275.551 384.213C275.485 384.083 275.392 383.98 275.271 383.905C275.149 383.831 275.014 383.775 274.865 383.737C274.715 383.691 274.557 383.653 274.389 383.625L273.255 383.457C273.003 383.42 272.727 383.369 272.429 383.303C272.139 383.238 271.873 383.135 271.631 382.995C271.388 382.846 271.183 382.65 271.015 382.407C270.856 382.165 270.777 381.847 270.777 381.455C270.777 381.091 270.847 380.779 270.987 380.517C271.136 380.247 271.341 380.023 271.603 379.845C271.864 379.659 272.172 379.523 272.527 379.439C272.881 379.346 273.269 379.299 273.689 379.299C274.342 379.299 274.907 379.402 275.383 379.607C275.868 379.813 276.283 380.097 276.629 380.461L275.901 381.147C275.817 381.045 275.709 380.942 275.579 380.839C275.457 380.727 275.303 380.629 275.117 380.545C274.939 380.452 274.729 380.377 274.487 380.321C274.244 380.265 273.964 380.237 273.647 380.237C273.077 380.237 272.639 380.335 272.331 380.531C272.032 380.727 271.883 381.012 271.883 381.385C271.883 381.572 271.915 381.731 271.981 381.861C272.055 381.983 272.153 382.081 272.275 382.155C272.396 382.23 272.531 382.291 272.681 382.337C272.839 382.375 272.998 382.407 273.157 382.435L274.291 382.603C274.552 382.641 274.827 382.692 275.117 382.757C275.406 382.823 275.672 382.93 275.915 383.079C276.157 383.219 276.358 383.411 276.517 383.653C276.685 383.896 276.769 384.213 276.769 384.605C276.769 385.324 276.489 385.879 275.929 386.271C275.378 386.663 274.641 386.859 273.717 386.859ZM282.377 386.691C281.826 386.691 281.42 386.537 281.159 386.229C280.907 385.921 280.781 385.525 280.781 385.039V380.419H278.373V379.467H280.165C280.408 379.467 280.576 379.421 280.669 379.327C280.772 379.225 280.823 379.052 280.823 378.809V376.919H281.901V379.467H285.191V380.419H281.901V385.739H285.191V386.691H282.377ZM290.548 386.859C290.025 386.859 289.554 386.771 289.134 386.593C288.723 386.416 288.368 386.164 288.07 385.837C287.78 385.501 287.556 385.105 287.398 384.647C287.239 384.181 287.16 383.663 287.16 383.093C287.16 382.515 287.239 381.992 287.398 381.525C287.566 381.059 287.794 380.662 288.084 380.335C288.373 379.999 288.718 379.743 289.12 379.565C289.53 379.388 289.983 379.299 290.478 379.299C290.963 379.299 291.402 379.388 291.794 379.565C292.195 379.743 292.536 379.99 292.816 380.307C293.096 380.615 293.31 380.984 293.46 381.413C293.609 381.843 293.684 382.314 293.684 382.827V383.359H288.336V383.695C288.336 384.013 288.387 384.307 288.49 384.577C288.592 384.848 288.737 385.081 288.924 385.277C289.12 385.473 289.353 385.627 289.624 385.739C289.904 385.842 290.212 385.893 290.548 385.893C291.033 385.893 291.453 385.781 291.808 385.557C292.162 385.333 292.433 385.025 292.62 384.633L293.446 385.193C293.231 385.679 292.872 386.08 292.368 386.397C291.873 386.705 291.266 386.859 290.548 386.859ZM290.478 380.223C290.17 380.223 289.885 380.279 289.624 380.391C289.362 380.503 289.134 380.657 288.938 380.853C288.751 381.049 288.602 381.283 288.49 381.553C288.387 381.815 288.336 382.104 288.336 382.421V382.519H292.48V382.365C292.48 382.048 292.428 381.759 292.326 381.497C292.232 381.236 292.097 381.012 291.92 380.825C291.752 380.629 291.542 380.48 291.29 380.377C291.047 380.275 290.776 380.223 290.478 380.223ZM295.694 385.739H297.808V380.419H295.694V379.467H298.928V381.287H298.998C299.148 380.718 299.428 380.275 299.838 379.957C300.258 379.631 300.79 379.467 301.434 379.467H302.442V380.587H301.084C300.44 380.587 299.918 380.774 299.516 381.147C299.124 381.521 298.928 382.011 298.928 382.617V385.739H301.728V386.691H295.694V385.739ZM307.211 386.859C306.613 386.859 306.1 386.747 305.671 386.523C305.241 386.29 304.887 385.959 304.607 385.529C304.327 385.1 304.121 384.573 303.991 383.947C303.86 383.322 303.795 382.608 303.795 381.805C303.795 381.012 303.86 380.303 303.991 379.677C304.121 379.043 304.327 378.511 304.607 378.081C304.887 377.652 305.241 377.325 305.671 377.101C306.1 376.868 306.613 376.751 307.211 376.751C307.808 376.751 308.321 376.868 308.751 377.101C309.18 377.325 309.535 377.652 309.815 378.081C310.095 378.511 310.3 379.043 310.431 379.677C310.561 380.303 310.627 381.012 310.627 381.805C310.627 382.608 310.561 383.322 310.431 383.947C310.3 384.573 310.095 385.1 309.815 385.529C309.535 385.959 309.18 386.29 308.751 386.523C308.321 386.747 307.808 386.859 307.211 386.859ZM307.211 385.837C307.603 385.837 307.939 385.763 308.219 385.613C308.499 385.455 308.723 385.235 308.891 384.955C309.068 384.675 309.199 384.339 309.283 383.947C309.367 383.546 309.409 383.098 309.409 382.603V381.007C309.409 380.522 309.367 380.079 309.283 379.677C309.199 379.276 309.068 378.935 308.891 378.655C308.723 378.375 308.499 378.161 308.219 378.011C307.939 377.853 307.603 377.773 307.211 377.773C306.819 377.773 306.483 377.853 306.203 378.011C305.923 378.161 305.694 378.375 305.517 378.655C305.349 378.935 305.223 379.276 305.139 379.677C305.055 380.079 305.013 380.522 305.013 381.007V382.603C305.013 383.098 305.055 383.546 305.139 383.947C305.223 384.339 305.349 384.675 305.517 384.955C305.694 385.235 305.923 385.455 306.203 385.613C306.483 385.763 306.819 385.837 307.211 385.837ZM307.211 382.631C306.884 382.631 306.655 382.566 306.525 382.435C306.403 382.305 306.343 382.146 306.343 381.959V381.651C306.343 381.465 306.403 381.306 306.525 381.175C306.655 381.045 306.884 380.979 307.211 380.979C307.537 380.979 307.761 381.045 307.883 381.175C308.013 381.306 308.079 381.465 308.079 381.651V381.959C308.079 382.146 308.013 382.305 307.883 382.435C307.761 382.566 307.537 382.631 307.211 382.631ZM315.605 386.859C315.008 386.859 314.495 386.747 314.065 386.523C313.636 386.29 313.281 385.959 313.001 385.529C312.721 385.1 312.516 384.573 312.385 383.947C312.255 383.322 312.189 382.608 312.189 381.805C312.189 381.012 312.255 380.303 312.385 379.677C312.516 379.043 312.721 378.511 313.001 378.081C313.281 377.652 313.636 377.325 314.065 377.101C314.495 376.868 315.008 376.751 315.605 376.751C316.203 376.751 316.716 376.868 317.145 377.101C317.575 377.325 317.929 377.652 318.209 378.081C318.489 378.511 318.695 379.043 318.825 379.677C318.956 380.303 319.021 381.012 319.021 381.805C319.021 382.608 318.956 383.322 318.825 383.947C318.695 384.573 318.489 385.1 318.209 385.529C317.929 385.959 317.575 386.29 317.145 386.523C316.716 386.747 316.203 386.859 315.605 386.859ZM315.605 385.837C315.997 385.837 316.333 385.763 316.613 385.613C316.893 385.455 317.117 385.235 317.285 384.955C317.463 384.675 317.593 384.339 317.677 383.947C317.761 383.546 317.803 383.098 317.803 382.603V381.007C317.803 380.522 317.761 380.079 317.677 379.677C317.593 379.276 317.463 378.935 317.285 378.655C317.117 378.375 316.893 378.161 316.613 378.011C316.333 377.853 315.997 377.773 315.605 377.773C315.213 377.773 314.877 377.853 314.597 378.011C314.317 378.161 314.089 378.375 313.911 378.655C313.743 378.935 313.617 379.276 313.533 379.677C313.449 380.079 313.407 380.522 313.407 381.007V382.603C313.407 383.098 313.449 383.546 313.533 383.947C313.617 384.339 313.743 384.675 313.911 384.955C314.089 385.235 314.317 385.455 314.597 385.613C314.877 385.763 315.213 385.837 315.605 385.837ZM315.605 382.631C315.279 382.631 315.05 382.566 314.919 382.435C314.798 382.305 314.737 382.146 314.737 381.959V381.651C314.737 381.465 314.798 381.306 314.919 381.175C315.05 381.045 315.279 380.979 315.605 380.979C315.932 380.979 316.156 381.045 316.277 381.175C316.408 381.306 316.473 381.465 316.473 381.651V381.959C316.473 382.146 316.408 382.305 316.277 382.435C316.156 382.566 315.932 382.631 315.605 382.631ZM324 386.859C323.402 386.859 322.889 386.747 322.46 386.523C322.03 386.29 321.676 385.959 321.396 385.529C321.116 385.1 320.91 384.573 320.78 383.947C320.649 383.322 320.584 382.608 320.584 381.805C320.584 381.012 320.649 380.303 320.78 379.677C320.91 379.043 321.116 378.511 321.396 378.081C321.676 377.652 322.03 377.325 322.46 377.101C322.889 376.868 323.402 376.751 324 376.751C324.597 376.751 325.11 376.868 325.54 377.101C325.969 377.325 326.324 377.652 326.604 378.081C326.884 378.511 327.089 379.043 327.22 379.677C327.35 380.303 327.416 381.012 327.416 381.805C327.416 382.608 327.35 383.322 327.22 383.947C327.089 384.573 326.884 385.1 326.604 385.529C326.324 385.959 325.969 386.29 325.54 386.523C325.11 386.747 324.597 386.859 324 386.859ZM324 385.837C324.392 385.837 324.728 385.763 325.008 385.613C325.288 385.455 325.512 385.235 325.68 384.955C325.857 384.675 325.988 384.339 326.072 383.947C326.156 383.546 326.198 383.098 326.198 382.603V381.007C326.198 380.522 326.156 380.079 326.072 379.677C325.988 379.276 325.857 378.935 325.68 378.655C325.512 378.375 325.288 378.161 325.008 378.011C324.728 377.853 324.392 377.773 324 377.773C323.608 377.773 323.272 377.853 322.992 378.011C322.712 378.161 322.483 378.375 322.306 378.655C322.138 378.935 322.012 379.276 321.928 379.677C321.844 380.079 321.802 380.522 321.802 381.007V382.603C321.802 383.098 321.844 383.546 321.928 383.947C322.012 384.339 322.138 384.675 322.306 384.955C322.483 385.235 322.712 385.455 322.992 385.613C323.272 385.763 323.608 385.837 324 385.837ZM324 382.631C323.673 382.631 323.444 382.566 323.314 382.435C323.192 382.305 323.132 382.146 323.132 381.959V381.651C323.132 381.465 323.192 381.306 323.314 381.175C323.444 381.045 323.673 380.979 324 380.979C324.326 380.979 324.55 381.045 324.672 381.175C324.802 381.306 324.868 381.465 324.868 381.651V381.959C324.868 382.146 324.802 382.305 324.672 382.435C324.55 382.566 324.326 382.631 324 382.631Z" fill="#898989"/>
<circle cx="205.875" cy="309" r="2.95117" fill="#898989"/>
<circle cx="224.127" cy="309" r="2.95117" fill="#898989"/>
<circle cx="242.379" cy="309" r="2.95117" fill="#898989"/>
<circle cx="260.631" cy="309" r="2.95117" fill="#898989"/>
<circle cx="278.883" cy="309" r="2.95117" fill="#898989"/>
<circle cx="297.135" cy="309" r="2.95117" fill="#898989"/>
<circle cx="315.387" cy="309" r="2.95117" fill="#898989"/>
<circle cx="3.99805" cy="309" r="2.95117" fill="#898989"/>
<circle cx="22.25" cy="309" r="2.95117" fill="#898989"/>
<circle cx="40.502" cy="309" r="2.95117" fill="#898989"/>
<circle cx="58.7539" cy="309" r="2.95117" fill="#898989"/>
<circle cx="77.0059" cy="309" r="2.95117" fill="#898989"/>
<circle cx="95.2578" cy="309" r="2.95117" fill="#898989"/>
<circle cx="113.51" cy="309" r="2.95117" fill="#898989"/>
</g>
<defs>
<clipPath id="clip0_330_2514">
<rect width="330" height="430" fill="white"/>
</clipPath>
</defs>
</svg>
