<svg width="299" height="430" viewBox="0 0 299 430" fill="none" xmlns="http://www.w3.org/2000/svg">
<g clip-path="url(#clip0_422_1767)">
<g clip-path="url(#clip1_422_1767)">
<path opacity="0.5" d="M307 139.215L-26 139.215M307 149.407L-26 149.407M307 159.598L-26 159.598M307 169.789L-26 169.789M307 179.98L-26 179.98M307 190.172L-26 190.172M307 200.363L-26 200.363M307 210.554L-26 210.554M307 220.745L-26 220.745M307 230.936L-26 230.936M307 241.128L-26 241.128M307 251.319L-26 251.319M307 261.51L-26 261.51M307 271.701L-26 271.701M307 281.892L-26 281.893M307 292.084L-26 292.084M307 302.275L-26 302.275M307 312.466L-26 312.466M307 322.657L-26 322.657M307 332.849L-26 332.849M307 343.04L-26 343.04M307 353.231L-26 353.231M307 363.422L-26 363.422M307 373.614L-26 373.614M307 383.805L-26 383.805M307 393.996L-26 393.996M307 404.187L-26 404.187M307 414.378L-26 414.378M307 424.57L-26 424.57M299.504 472L299.504 139M289.313 472L289.313 139M279.122 472L279.122 139M268.931 472L268.931 139M258.74 472L258.74 139M248.548 472L248.548 139M238.357 472L238.357 139M228.166 472L228.166 139M217.975 472L217.975 139M207.783 472L207.783 139M197.592 472L197.592 139M187.401 472L187.401 139M177.21 472L177.21 139M167.019 472L167.019 139M156.827 472L156.827 139M146.636 472L146.636 139M136.445 472L136.445 139M126.254 472L126.254 139M116.062 472L116.062 139M105.871 472L105.871 139M95.68 472L95.68 139M85.4888 472L85.4888 139M75.2975 472L75.2976 139M65.1063 472L65.1063 139M54.9151 472L54.9151 139M44.7238 472L44.7239 139M34.5326 472L34.5326 139M24.3414 472L24.3414 139M14.1502 472L14.1502 139M3.95893 472L3.95894 139M-6.2323 472L-6.23229 139M-16.4235 472L-16.4235 139" stroke="#282828"/>
<g filter="url(#filter0_f_422_1767)">
<ellipse cx="150" cy="147" rx="99" ry="211" transform="rotate(90 150 147)" fill="#1C1C1C"/>
</g>
<g filter="url(#filter1_f_422_1767)">
<ellipse cx="66.8161" cy="28.6408" rx="66.8161" ry="28.6408" transform="matrix(0.911726 0.410798 0.410798 -0.911726 180.049 231.546)" fill="#85E0B7"/>
</g>
<path opacity="0.2" fill-rule="evenodd" clip-rule="evenodd" d="M65.4562 232.544C65.4562 220.231 75.438 210.249 87.7511 210.249H216.565C228.878 210.249 238.86 220.231 238.86 232.544V251.32C238.864 251.49 238.866 251.66 238.866 251.831V342.262C238.866 342.432 238.864 342.603 238.86 342.772V361.428C238.86 373.741 228.878 383.723 216.565 383.723H87.7511C75.438 383.723 65.4562 373.741 65.4562 361.428V302.721C65.3301 300.81 65.266 298.881 65.266 296.937C65.266 294.993 65.3301 293.065 65.4562 291.153V232.544ZM66.1422 302.698V291.176C66.9183 279.464 70.0432 268.394 75.0501 258.433V335.442C70.0432 325.481 66.9183 314.411 66.1422 302.698ZM66.1422 309.299V342.262C66.1422 350.25 70.4764 357.225 76.9214 360.965C75.718 358.224 75.0501 355.195 75.0501 352.01V336.946C70.6174 328.46 67.5508 319.147 66.1422 309.299ZM75.7361 338.233V352.01C75.7361 355.422 76.5266 358.648 77.9343 361.517C80.057 362.601 82.3826 363.345 84.8391 363.676C84.7554 362.89 84.7124 362.093 84.7124 361.285V351.599C81.325 347.447 78.3154 342.974 75.7361 338.233ZM85.3984 352.43V361.285C85.3984 362.121 85.4459 362.947 85.5385 363.759C86.2659 363.833 87.0041 363.871 87.7511 363.871H96.9488C92.7506 360.426 88.8823 356.594 85.3984 352.43ZM98.0368 363.871C93.405 360.145 89.1679 355.949 85.3984 351.354V242.52C89.0945 238.015 93.24 233.893 97.7664 230.222H205.839C210.598 234.081 214.935 238.439 218.772 243.216V350.658C214.863 355.525 210.433 359.958 205.568 363.871H98.0368ZM97.7957 364.557H87.7511C87.0356 364.557 86.3279 364.523 85.6296 364.457C85.998 366.961 86.7961 369.326 87.9466 371.474C90.7883 372.849 93.9766 373.619 97.345 373.619H111.659C106.74 371.039 102.1 367.999 97.7957 364.557ZM113.159 373.619C108.098 371.064 103.325 368.023 98.901 364.557H204.704C200.28 368.023 195.507 371.064 190.447 373.619H113.159ZM112.995 374.305H97.345C94.2139 374.305 91.2336 373.66 88.5298 372.495C92.3204 378.729 99.1775 382.894 107.007 382.894H141.728C131.501 381.708 121.816 378.739 112.995 374.305ZM161.877 382.894H197.163C204.948 382.894 211.77 378.778 215.574 372.603C212.939 373.7 210.048 374.305 207.016 374.305H190.61C181.789 378.739 172.105 381.708 161.877 382.894ZM189.057 374.305C177.789 379.741 165.151 382.788 151.803 382.788C138.454 382.788 125.817 379.741 114.548 374.305H189.057ZM191.946 373.619H207.016C210.284 373.619 213.382 372.894 216.158 371.596C217.342 369.42 218.163 367.018 218.539 364.471C217.891 364.528 217.234 364.557 216.571 364.557H205.81C201.505 367.999 196.865 371.039 191.946 373.619ZM206.656 363.871H216.571C217.266 363.871 217.953 363.838 218.631 363.774C218.724 362.957 218.772 362.126 218.772 361.285V351.747C215.143 356.176 211.083 360.238 206.656 363.871ZM219.458 350.899V361.285C219.458 362.099 219.415 362.904 219.329 363.696C221.863 363.373 224.259 362.612 226.44 361.491C227.839 358.628 228.625 355.411 228.625 352.01V336.812C226.024 341.814 222.948 346.529 219.458 350.899ZM229.311 335.465V352.01C229.311 355.184 228.648 358.202 227.453 360.935C233.734 357.267 237.997 350.52 238.174 342.765V302.328C237.446 314.176 234.334 325.38 229.311 335.465ZM238.174 291.546V251.328C237.997 243.578 233.74 236.836 227.466 233.166C228.653 235.89 229.311 238.898 229.311 242.059V258.409C234.334 268.494 237.446 279.698 238.174 291.546ZM229.311 259.974C234.659 271.169 237.653 283.703 237.653 296.937C237.653 310.171 234.659 322.705 229.311 333.9V259.974ZM228.625 258.571V335.303C226.05 340.449 222.973 345.3 219.458 349.792V244.082C222.973 248.574 226.05 253.425 228.625 258.571ZM228.625 257.062V242.059C228.625 238.671 227.845 235.464 226.454 232.61C224.275 231.487 221.88 230.724 219.348 230.399C219.421 231.132 219.458 231.877 219.458 232.63V242.975C222.948 247.345 226.024 252.06 228.625 257.062ZM218.772 242.127V232.63C218.772 231.85 218.731 231.079 218.65 230.321C217.966 230.255 217.272 230.222 216.571 230.222H206.922C211.245 233.798 215.216 237.787 218.772 242.127ZM206.082 229.536H216.571C217.243 229.536 217.908 229.566 218.565 229.624C218.213 227.091 217.421 224.699 216.27 222.527C213.465 221.195 210.327 220.451 207.016 220.451H192.317C197.202 223.043 201.809 226.091 206.082 229.536ZM190.997 219.765H207.016C210.097 219.765 213.032 220.39 215.701 221.52C211.924 215.23 205.035 211.021 197.163 211.021H162.218C172.469 212.25 182.17 215.273 190.997 219.765ZM141.387 211.021H107.007C99.0898 211.021 92.1669 215.279 88.4036 221.63C91.1407 220.43 94.1651 219.765 97.345 219.765H112.608C121.435 215.273 131.136 212.25 141.387 211.021ZM114.145 219.765C125.515 214.206 138.294 211.086 151.803 211.086C165.311 211.086 178.09 214.206 189.46 219.765H114.145ZM112.773 220.451H190.832C195.855 223.019 200.592 226.068 204.982 229.536H98.6234C103.013 226.068 107.75 223.019 112.773 220.451ZM111.289 220.451H97.345C93.9328 220.451 90.7054 221.241 87.8359 222.65C86.7178 224.793 85.9486 227.148 85.6038 229.638C86.3105 229.571 87.0268 229.536 87.7511 229.536H97.5237C101.796 226.091 106.404 223.043 111.289 220.451ZM96.6837 230.222H87.7511C86.9973 230.222 86.2526 230.261 85.5187 230.336C85.4392 231.09 85.3984 231.855 85.3984 232.63V241.444C88.8088 237.368 92.5877 233.61 96.6837 230.222ZM84.7124 242.275V232.63C84.7124 231.884 84.749 231.146 84.8206 230.419C82.3652 230.752 80.0408 231.497 77.9195 232.583C76.521 235.444 75.7361 238.66 75.7361 242.059V255.641C78.3154 250.9 81.325 246.427 84.7124 242.275ZM75.7361 257.097V336.777C78.2928 341.648 81.3036 346.244 84.7124 350.507V243.367C81.3036 247.63 78.2928 252.226 75.7361 257.097ZM75.0501 256.928V242.059C75.0501 238.886 75.7131 235.868 76.908 233.135C70.4704 236.877 66.1422 243.848 66.1422 251.831V284.575C67.5508 274.728 70.6174 265.414 75.0501 256.928ZM238.174 232.544V246.299C236.602 240.141 232.466 235.008 226.971 232.105C224.778 227.718 221.181 224.155 216.769 222.005C213.786 216.512 208.562 212.413 202.324 210.935H216.565C228.499 210.935 238.174 220.61 238.174 232.544ZM77.4043 232.077C79.555 227.789 83.0482 224.291 87.3325 222.134C90.3034 216.576 95.5602 212.425 101.847 210.935H87.7511C75.8169 210.935 66.1422 220.61 66.1422 232.544V246.321C67.7151 240.134 71.8758 234.979 77.4043 232.077ZM84.901 229.716C85.2016 227.413 85.854 225.219 86.8024 223.192C83.303 225.152 80.4046 228.057 78.4531 231.561C80.4597 230.639 82.6268 230.007 84.901 229.716ZM225.921 231.586C223.855 230.63 221.617 229.981 219.267 229.697C218.958 227.347 218.283 225.111 217.301 223.051C220.924 225.015 223.922 227.985 225.921 231.586ZM219.243 364.398C218.912 366.762 218.211 369.008 217.2 371.074C220.858 369.116 223.886 366.135 225.904 362.515C223.835 363.47 221.595 364.117 219.243 364.398ZM84.9254 364.379C85.2472 366.697 85.9253 368.9 86.9026 370.933C83.3685 368.979 80.4402 366.063 78.4701 362.539C80.4792 363.46 82.6488 364.091 84.9254 364.379ZM102.096 383.037C95.7803 381.617 90.4784 377.517 87.4479 371.994C83.1213 369.847 79.5911 366.336 77.4198 362.023C71.8836 359.123 67.7166 353.965 66.1422 347.771V361.428C66.1422 373.362 75.8169 383.037 87.7511 383.037H102.096ZM216.652 372.121C213.611 377.58 208.342 381.628 202.074 383.037H216.565C228.499 383.037 238.174 373.362 238.174 361.428V347.794C236.6 353.958 232.458 359.094 226.955 361.996C224.742 366.407 221.107 369.982 216.652 372.121Z" fill="#A0A0A0"/>
<g filter="url(#filter2_bd_422_1767)">
<path d="M149.406 229.778H112.729C106.894 229.778 101.645 233.325 99.4664 238.738L85.5128 273.417C83.4127 278.636 84.5903 284.603 88.5157 288.633L95.535 295.84C98.8222 299.215 100.662 303.74 100.662 308.451L100.662 318.38C100.661 332.235 111.893 343.466 125.748 343.466C129.974 343.466 133.399 340.041 133.399 335.815L133.4 276.654C133.4 263.875 138.504 251.625 147.578 242.627C149.461 240.76 152.502 240.772 154.369 242.656C156.237 244.539 156.224 247.579 154.341 249.447C147.085 256.641 143.004 266.436 143.003 276.654L143.003 335.815C143.003 345.345 135.278 353.07 125.748 353.07C106.589 353.07 91.0573 337.539 91.0576 318.38L91.0577 308.451C91.0577 306.243 90.1957 304.123 88.6552 302.541L81.6359 295.334C75.0569 288.58 73.0834 278.579 76.603 269.832L90.5567 235.153C94.1981 226.103 102.974 220.174 112.729 220.174H150.959V220.232H158.052C191.737 220.232 219.044 247.539 219.044 281.224V316.101C219.044 318.753 216.894 320.903 214.242 320.903C211.59 320.903 209.44 318.753 209.44 316.101V281.224C209.44 252.843 186.433 229.836 158.052 229.836H150.151C149.898 229.836 149.649 229.816 149.406 229.778Z" fill="url(#paint0_linear_422_1767)" fill-opacity="0.07" shape-rendering="crispEdges"/>
<path d="M161.675 338.25C161.675 335.598 159.526 333.448 156.874 333.448C154.221 333.448 152.072 335.598 152.072 338.25V340.386C152.072 358.88 167.064 373.872 185.558 373.872C203.634 373.872 218.365 359.549 219.021 341.633H235.906C238.558 341.633 240.708 339.483 240.708 336.831C240.708 334.179 238.558 332.029 235.906 332.029H217.493C196.403 332.029 176.158 323.74 161.123 308.95C159.232 307.09 156.192 307.115 154.332 309.006C152.472 310.897 152.497 313.937 154.388 315.797C169.291 330.457 188.767 339.411 209.424 341.271C208.958 354.05 198.451 364.268 185.558 364.268C172.368 364.268 161.675 353.575 161.675 340.386V338.25Z" fill="url(#paint1_linear_422_1767)" fill-opacity="0.07" shape-rendering="crispEdges"/>
<path d="M180.884 282.14C180.884 285.427 183.549 288.092 186.836 288.092C190.123 288.092 192.788 285.427 192.788 282.14C192.788 278.852 190.123 276.187 186.836 276.187C183.549 276.187 180.884 278.852 180.884 282.14Z" fill="url(#paint2_linear_422_1767)" fill-opacity="0.07" shape-rendering="crispEdges"/>
<path d="M149.406 229.778H112.729C106.894 229.778 101.645 233.325 99.4664 238.738L85.5128 273.417C83.4127 278.636 84.5903 284.603 88.5157 288.633L95.535 295.84C98.8222 299.215 100.662 303.74 100.662 308.451L100.662 318.38C100.661 332.235 111.893 343.466 125.748 343.466C129.974 343.466 133.399 340.041 133.399 335.815L133.4 276.654C133.4 263.875 138.504 251.625 147.578 242.627C149.461 240.76 152.502 240.772 154.369 242.656C156.237 244.539 156.224 247.579 154.341 249.447C147.085 256.641 143.004 266.436 143.003 276.654L143.003 335.815C143.003 345.345 135.278 353.07 125.748 353.07C106.589 353.07 91.0573 337.539 91.0576 318.38L91.0577 308.451C91.0577 306.243 90.1957 304.123 88.6552 302.541L81.6359 295.334C75.0569 288.58 73.0834 278.579 76.603 269.832L90.5567 235.153C94.1981 226.103 102.974 220.174 112.729 220.174H150.959V220.232H158.052C191.737 220.232 219.044 247.539 219.044 281.224V316.101C219.044 318.753 216.894 320.903 214.242 320.903C211.59 320.903 209.44 318.753 209.44 316.101V281.224C209.44 252.843 186.433 229.836 158.052 229.836H150.151C149.898 229.836 149.649 229.816 149.406 229.778Z" stroke="#A0A0A0" stroke-width="0.5" shape-rendering="crispEdges"/>
<path d="M161.675 338.25C161.675 335.598 159.526 333.448 156.874 333.448C154.221 333.448 152.072 335.598 152.072 338.25V340.386C152.072 358.88 167.064 373.872 185.558 373.872C203.634 373.872 218.365 359.549 219.021 341.633H235.906C238.558 341.633 240.708 339.483 240.708 336.831C240.708 334.179 238.558 332.029 235.906 332.029H217.493C196.403 332.029 176.158 323.74 161.123 308.95C159.232 307.09 156.192 307.115 154.332 309.006C152.472 310.897 152.497 313.937 154.388 315.797C169.291 330.457 188.767 339.411 209.424 341.271C208.958 354.05 198.451 364.268 185.558 364.268C172.368 364.268 161.675 353.575 161.675 340.386V338.25Z" stroke="#A0A0A0" stroke-width="0.5" shape-rendering="crispEdges"/>
<path d="M180.884 282.14C180.884 285.427 183.549 288.092 186.836 288.092C190.123 288.092 192.788 285.427 192.788 282.14C192.788 278.852 190.123 276.187 186.836 276.187C183.549 276.187 180.884 278.852 180.884 282.14Z" stroke="#A0A0A0" stroke-width="0.5" shape-rendering="crispEdges"/>
</g>
</g>
</g>
<defs>
<filter id="filter0_f_422_1767" x="-137" y="-28" width="574" height="350" filterUnits="userSpaceOnUse" color-interpolation-filters="sRGB">
<feFlood flood-opacity="0" result="BackgroundImageFix"/>
<feBlend mode="normal" in="SourceGraphic" in2="BackgroundImageFix" result="shape"/>
<feGaussianBlur stdDeviation="38" result="effect1_foregroundBlur_422_1767"/>
</filter>
<filter id="filter1_f_422_1767" x="17.3344" y="21.6537" width="470.797" height="422.456" filterUnits="userSpaceOnUse" color-interpolation-filters="sRGB">
<feFlood flood-opacity="0" result="BackgroundImageFix"/>
<feBlend mode="normal" in="SourceGraphic" in2="BackgroundImageFix" result="shape"/>
<feGaussianBlur stdDeviation="86.6717" result="effect1_foregroundBlur_422_1767"/>
</filter>
<filter id="filter2_bd_422_1767" x="42.6313" y="187.924" width="230.327" height="218.198" filterUnits="userSpaceOnUse" color-interpolation-filters="sRGB">
<feFlood flood-opacity="0" result="BackgroundImageFix"/>
<feGaussianBlur in="BackgroundImageFix" stdDeviation="1"/>
<feComposite in2="SourceAlpha" operator="in" result="effect1_backgroundBlur_422_1767"/>
<feColorMatrix in="SourceAlpha" type="matrix" values="0 0 0 0 0 0 0 0 0 0 0 0 0 0 0 0 0 0 127 0" result="hardAlpha"/>
<feOffset/>
<feGaussianBlur stdDeviation="16"/>
<feComposite in2="hardAlpha" operator="out"/>
<feColorMatrix type="matrix" values="0 0 0 0 0.0313726 0 0 0 0 0.0470588 0 0 0 0 0.0470588 0 0 0 0.5 0"/>
<feBlend mode="normal" in2="effect1_backgroundBlur_422_1767" result="effect2_dropShadow_422_1767"/>
<feBlend mode="normal" in="SourceGraphic" in2="effect2_dropShadow_422_1767" result="shape"/>
</filter>
<linearGradient id="paint0_linear_422_1767" x1="118.312" y1="231.853" x2="118.312" y2="344.243" gradientUnits="userSpaceOnUse">
<stop stop-color="white"/>
<stop offset="1" stop-color="#7C7C7C"/>
</linearGradient>
<linearGradient id="paint1_linear_422_1767" x1="118.312" y1="231.853" x2="118.312" y2="344.243" gradientUnits="userSpaceOnUse">
<stop stop-color="white"/>
<stop offset="1" stop-color="#7C7C7C"/>
</linearGradient>
<linearGradient id="paint2_linear_422_1767" x1="118.312" y1="231.853" x2="118.312" y2="344.243" gradientUnits="userSpaceOnUse">
<stop stop-color="white"/>
<stop offset="1" stop-color="#7C7C7C"/>
</linearGradient>
<clipPath id="clip0_422_1767">
<rect width="298" height="430" fill="white" transform="translate(0.5)"/>
</clipPath>
<clipPath id="clip1_422_1767">
<rect width="390" height="430" fill="white" transform="translate(-45)"/>
</clipPath>
</defs>
</svg>
