<svg xmlns="http://www.w3.org/2000/svg" width="330" height="430" fill="none" viewBox="0 0 330 430"><rect width="82" height="31" x="23.5" y="377.5" fill="#fff" rx="5.5"/><rect width="82" height="31" x="23.5" y="377.5" stroke="#dfdfdf" rx="5.5"/><path stroke="#b2b2b2" stroke-linecap="round" stroke-linejoin="round" d="M37 387h-2.667A1.33 1.33 0 0 0 33 388.333V391m4-4h6.667A1.33 1.33 0 0 1 45 388.333V391m-8-4v12m-4-8v6.667A1.333 1.333 0 0 0 34.333 399H37m-4-8h12m0 0v6.667A1.333 1.333 0 0 1 43.667 399H37"/><path fill="#707070" d="M58.432 396.672c.96 0 1.8-.72 1.8-2.064 0-1.332-.84-2.052-1.8-2.052s-1.8.72-1.8 2.052c0 1.344.84 2.064 1.8 2.064m0-5.124c1.728 0 2.952 1.308 2.952 3.06 0 1.764-1.224 3.072-2.952 3.072s-2.952-1.308-2.952-3.072c0-1.752 1.224-3.06 2.952-3.06m6.82 1.044c-.913 0-1.753.672-1.753 2.016 0 1.32.828 2.028 1.764 2.028 1.08 0 1.476-.732 1.608-1.188l.996.432c-.276.828-1.104 1.8-2.604 1.8-1.68 0-2.916-1.32-2.916-3.072 0-1.8 1.26-3.06 2.904-3.06 1.536 0 2.328.96 2.568 1.836l-1.02.432c-.144-.564-.564-1.224-1.548-1.224m4.612 1.428h3.156c-.024-.828-.564-1.476-1.584-1.476-.948 0-1.524.732-1.572 1.476m3.324 1.5.972.336c-.324 1.02-1.248 1.824-2.592 1.824-1.548 0-2.904-1.128-2.904-3.084 0-1.812 1.308-3.048 2.76-3.048 1.776 0 2.772 1.224 2.772 3.024 0 .144-.012.288-.024.36h-4.344c.024 1.032.768 1.752 1.74 1.752.936 0 1.404-.516 1.62-1.164m2.088.432c0-1.032.756-1.608 1.752-1.752l1.56-.228c.348-.048.444-.228.444-.432 0-.564-.372-1.032-1.248-1.032-.792 0-1.236.492-1.308 1.164l-1.08-.252c.12-1.104 1.116-1.872 2.364-1.872 1.728 0 2.4.984 2.4 2.112v2.892c0 .504.048.804.072.948h-1.104c-.024-.144-.06-.36-.06-.78-.252.408-.828.96-1.86.96-1.176 0-1.932-.816-1.932-1.728m2.088.78c.924 0 1.668-.444 1.668-1.704v-.264l-1.764.264c-.48.072-.84.348-.84.864 0 .432.36.84.936.84m5.681-2.568v3.336h-1.128v-5.772h1.104v.828c.42-.72 1.104-.996 1.776-.996 1.38 0 2.064.996 2.064 2.28v3.66h-1.128v-3.468c0-.804-.336-1.452-1.344-1.452-.888 0-1.344.708-1.344 1.584m5.07 1.836 1.02-.36c.072.6.528 1.08 1.344 1.08.636 0 .984-.36.984-.768 0-.36-.264-.636-.744-.744l-.984-.216c-.9-.192-1.44-.804-1.44-1.62 0-.984.924-1.824 2.052-1.824 1.584 0 2.076 1.032 2.196 1.548l-.996.372c-.048-.3-.288-.96-1.2-.96-.576 0-.96.372-.96.768 0 .348.216.6.66.696l.936.204c1.044.228 1.596.864 1.596 1.716 0 .816-.684 1.788-2.112 1.788-1.584 0-2.256-1.02-2.352-1.68"/><rect width="101" height="31" x="128.5" y="377.5" fill="#f3f3f3" rx="15.5"/><rect width="101" height="31" x="128.5" y="377.5" stroke="#d4d4d4" rx="15.5"/><path fill="#707070" d="M144.84 396.732c0-.468.36-.84.828-.84s.84.372.84.84a.825.825 0 0 1-.84.828.815.815 0 0 1-.828-.828m3.352 0c0-.468.36-.84.828-.84s.84.372.84.84a.825.825 0 0 1-.84.828.815.815 0 0 1-.828-.828m3.351 0c0-.468.36-.84.828-.84s.84.372.84.84a.825.825 0 0 1-.84.828.815.815 0 0 1-.828-.828m7.72-7.74-4.116 8.508h-1.092l4.116-8.508zm5.782 2.736-2.304 5.772h-1.14l-2.34-5.772h1.272l1.644 4.452 1.656-4.452zm3.455 5.772h-1.152v-5.484h-1.884v-.828c1.08-.024 1.824-.624 2.004-1.464h1.032zm6.103-8.508-4.116 8.508h-1.092l4.116-8.508z"/><path fill="#171717" d="M178.432 396.672c.96 0 1.8-.72 1.8-2.064 0-1.332-.84-2.052-1.8-2.052s-1.8.72-1.8 2.052c0 1.344.84 2.064 1.8 2.064m0-5.124c1.728 0 2.952 1.308 2.952 3.06 0 1.764-1.224 3.072-2.952 3.072s-2.952-1.308-2.952-3.072c0-1.752 1.224-3.06 2.952-3.06m6.819 1.044c-.912 0-1.752.672-1.752 2.016 0 1.32.828 2.028 1.764 2.028 1.08 0 1.476-.732 1.608-1.188l.996.432c-.276.828-1.104 1.8-2.604 1.8-1.68 0-2.916-1.32-2.916-3.072 0-1.8 1.26-3.06 2.904-3.06 1.536 0 2.328.96 2.568 1.836l-1.02.432c-.144-.564-.564-1.224-1.548-1.224m4.613 1.428h3.156c-.024-.828-.564-1.476-1.584-1.476-.948 0-1.524.732-1.572 1.476m3.324 1.5.972.336c-.324 1.02-1.248 1.824-2.592 1.824-1.548 0-2.904-1.128-2.904-3.084 0-1.812 1.308-3.048 2.76-3.048 1.776 0 2.772 1.224 2.772 3.024 0 .144-.012.288-.024.36h-4.344c.024 1.032.768 1.752 1.74 1.752.936 0 1.404-.516 1.62-1.164m2.088.432c0-1.032.756-1.608 1.752-1.752l1.56-.228c.348-.048.444-.228.444-.432 0-.564-.372-1.032-1.248-1.032-.792 0-1.236.492-1.308 1.164l-1.08-.252c.12-1.104 1.116-1.872 2.364-1.872 1.728 0 2.4.984 2.4 2.112v2.892c0 .504.048.804.072.948h-1.104c-.024-.144-.06-.36-.06-.78-.252.408-.828.96-1.86.96-1.176 0-1.932-.816-1.932-1.728m2.088.78c.924 0 1.668-.444 1.668-1.704v-.264l-1.764.264c-.48.072-.84.348-.84.864 0 .432.36.84.936.84m5.681-2.568v3.336h-1.128v-5.772h1.104v.828c.42-.72 1.104-.996 1.776-.996 1.38 0 2.064.996 2.064 2.28v3.66h-1.128v-3.468c0-.804-.336-1.452-1.344-1.452-.888 0-1.344.708-1.344 1.584m5.07 1.836 1.02-.36c.072.6.528 1.08 1.344 1.08.636 0 .984-.36.984-.768 0-.36-.264-.636-.744-.744l-.984-.216c-.9-.192-1.44-.804-1.44-1.62 0-.984.924-1.824 2.052-1.824 1.584 0 2.076 1.032 2.196 1.548l-.996.372c-.048-.3-.288-.96-1.2-.96-.576 0-.96.372-.96.768 0 .348.216.6.66.696l.936.204c1.044.228 1.596.864 1.596 1.716 0 .816-.684 1.788-2.112 1.788-1.584 0-2.256-1.02-2.352-1.68"/><rect width="123" height="31" x="23.5" y="334.5" fill="#fff" rx="5.5"/><rect width="123" height="31" x="23.5" y="334.5" stroke="#dfdfdf" rx="5.5"/><path stroke="#b2b2b2" stroke-linecap="round" stroke-linejoin="round" d="M37 344h-2.667A1.33 1.33 0 0 0 33 345.333V348m4-4h6.667A1.33 1.33 0 0 1 45 345.333V348m-8-4v12m-4-8v6.667A1.333 1.333 0 0 0 34.333 356H37m-4-8h12m0 0v6.667A1.333 1.333 0 0 1 43.667 356H37"/><path fill="#707070" d="M58.384 349.592c-.912 0-1.752.672-1.752 2.016 0 1.32.828 2.028 1.764 2.028 1.08 0 1.476-.732 1.608-1.188l.996.432c-.276.828-1.104 1.8-2.604 1.8-1.68 0-2.916-1.32-2.916-3.072 0-1.8 1.26-3.06 2.904-3.06 1.536 0 2.328.96 2.568 1.836l-1.02.432c-.144-.564-.564-1.224-1.548-1.224m6.353 4.08c.96 0 1.8-.72 1.8-2.064 0-1.332-.84-2.052-1.8-2.052s-1.8.72-1.8 2.052c0 1.344.84 2.064 1.8 2.064m0-5.124c1.728 0 2.952 1.308 2.952 3.06 0 1.764-1.224 3.072-2.952 3.072s-2.952-1.308-2.952-3.072c0-1.752 1.224-3.06 2.952-3.06m8.14 5.256c-.312.6-1.032.876-1.704.876-1.344 0-2.16-1.008-2.16-2.316v-3.636h1.128v3.468c0 .792.36 1.488 1.308 1.488.912 0 1.368-.6 1.368-1.476v-3.48h1.128v4.704c0 .456.036.864.06 1.068h-1.08a5 5 0 0 1-.048-.696m4.121-2.64v3.336H75.87v-5.772h1.104v.828c.42-.72 1.104-.996 1.776-.996 1.38 0 2.064.996 2.064 2.28v3.66h-1.128v-3.468c0-.804-.336-1.452-1.344-1.452-.888 0-1.344.708-1.344 1.584m7.122-4.26v1.824h1.248v1.02H84.12v3c0 .528.216.792.804.792.144 0 .348-.024.444-.048v.96a2.5 2.5 0 0 1-.768.108c-.984 0-1.608-.6-1.608-1.644v-3.168h-1.104v-1.02h.312c.624 0 .888-.384.888-.888v-.936zm5.84 1.764v1.2a3.5 3.5 0 0 0-.491-.036c-.948 0-1.584.504-1.584 1.776v2.892h-1.128v-5.772h1.104v1.008c.42-.888 1.14-1.104 1.728-1.104.156 0 .312.024.372.036m2.819 8.244h-1.236l1.44-3.048-2.484-5.136h1.296l1.8 3.984 1.728-3.984h1.212zm9.608-1.464h-6.144v-.948h6.144zm3.329-5.856c-.912 0-1.752.672-1.752 2.016 0 1.32.828 2.028 1.764 2.028 1.08 0 1.476-.732 1.608-1.188l.996.432c-.276.828-1.104 1.8-2.604 1.8-1.68 0-2.916-1.32-2.916-3.072 0-1.8 1.26-3.06 2.904-3.06 1.536 0 2.328.96 2.568 1.836l-1.02.432c-.144-.564-.564-1.224-1.548-1.224m6.353 4.08c.96 0 1.8-.72 1.8-2.064 0-1.332-.84-2.052-1.8-2.052s-1.8.72-1.8 2.052c0 1.344.84 2.064 1.8 2.064m0-5.124c1.728 0 2.952 1.308 2.952 3.06 0 1.764-1.224 3.072-2.952 3.072s-2.952-1.308-2.952-3.072c0-1.752 1.224-3.06 2.952-3.06m5.067 3.048c0 1.188.612 2.064 1.692 2.064 1.032 0 1.668-.9 1.668-2.088s-.624-2.004-1.656-2.004-1.704.84-1.704 2.028m3.372 2.124v-.096c-.276.552-.888 1.032-1.788 1.032-1.692 0-2.736-1.344-2.736-3.06 0-1.632 1.104-3.024 2.736-3.024 1.02 0 1.572.504 1.764.972v-3.732h1.116v7.62c0 .552.048.972.06 1.068h-1.092a5 5 0 0 1-.06-.78m3.743-2.7h3.156c-.024-.828-.564-1.476-1.584-1.476-.948 0-1.524.732-1.572 1.476m3.324 1.5.972.336c-.324 1.02-1.248 1.824-2.592 1.824-1.548 0-2.904-1.128-2.904-3.084 0-1.812 1.308-3.048 2.76-3.048 1.776 0 2.772 1.224 2.772 3.024 0 .144-.012.288-.024.36h-4.344c.024 1.032.768 1.752 1.74 1.752.936 0 1.404-.516 1.62-1.164m1.908.48 1.02-.36c.072.6.528 1.08 1.344 1.08.636 0 .984-.36.984-.768 0-.36-.264-.636-.744-.744l-.984-.216c-.9-.192-1.44-.804-1.44-1.62 0-.984.924-1.824 2.052-1.824 1.584 0 2.076 1.032 2.196 1.548l-.996.372c-.048-.3-.288-.96-1.2-.96-.576 0-.96.372-.96.768 0 .348.216.6.66.696l.936.204c1.044.228 1.596.864 1.596 1.716 0 .816-.684 1.788-2.112 1.788-1.584 0-2.256-1.02-2.352-1.68"/><rect width="142" height="31" x="169.5" y="334.5" fill="#f3f3f3" rx="15.5"/><rect width="142" height="31" x="169.5" y="334.5" stroke="#d4d4d4" rx="15.5"/><path fill="#707070" d="M185.84 353.732c0-.468.36-.84.828-.84s.84.372.84.84a.825.825 0 0 1-.84.828.815.815 0 0 1-.828-.828m3.352 0c0-.468.36-.84.828-.84s.84.372.84.84a.825.825 0 0 1-.84.828.815.815 0 0 1-.828-.828m3.351 0c0-.468.36-.84.828-.84s.84.372.84.84a.825.825 0 0 1-.84.828.815.815 0 0 1-.828-.828m7.72-7.74-4.116 8.508h-1.092l4.116-8.508zm5.782 2.736-2.304 5.772h-1.14l-2.34-5.772h1.272l1.644 4.452 1.656-4.452zm3.455 5.772h-1.152v-5.484h-1.884v-.828c1.08-.024 1.824-.624 2.004-1.464h1.032zm6.103-8.508-4.116 8.508h-1.092l4.116-8.508z"/><path fill="#171717" d="M219.384 349.592c-.912 0-1.752.672-1.752 2.016 0 1.32.828 2.028 1.764 2.028 1.08 0 1.476-.732 1.608-1.188l.996.432c-.276.828-1.104 1.8-2.604 1.8-1.68 0-2.916-1.32-2.916-3.072 0-1.8 1.26-3.06 2.904-3.06 1.536 0 2.328.96 2.568 1.836l-1.02.432c-.144-.564-.564-1.224-1.548-1.224m6.353 4.08c.96 0 1.8-.72 1.8-2.064 0-1.332-.84-2.052-1.8-2.052s-1.8.72-1.8 2.052c0 1.344.84 2.064 1.8 2.064m0-5.124c1.728 0 2.952 1.308 2.952 3.06 0 1.764-1.224 3.072-2.952 3.072s-2.952-1.308-2.952-3.072c0-1.752 1.224-3.06 2.952-3.06m8.14 5.256c-.312.6-1.032.876-1.704.876-1.344 0-2.16-1.008-2.16-2.316v-3.636h1.128v3.468c0 .792.36 1.488 1.308 1.488.912 0 1.368-.6 1.368-1.476v-3.48h1.128v4.704c0 .456.036.864.06 1.068h-1.08a5 5 0 0 1-.048-.696m4.121-2.64v3.336h-1.128v-5.772h1.104v.828c.42-.72 1.104-.996 1.776-.996 1.38 0 2.064.996 2.064 2.28v3.66h-1.128v-3.468c0-.804-.336-1.452-1.344-1.452-.888 0-1.344.708-1.344 1.584m7.122-4.26v1.824h1.248v1.02h-1.248v3c0 .528.216.792.804.792.144 0 .348-.024.444-.048v.96a2.5 2.5 0 0 1-.768.108c-.984 0-1.608-.6-1.608-1.644v-3.168h-1.104v-1.02h.312c.624 0 .888-.384.888-.888v-.936zm5.841 1.764v1.2a3.5 3.5 0 0 0-.492-.036c-.948 0-1.584.504-1.584 1.776v2.892h-1.128v-5.772h1.104v1.008c.42-.888 1.14-1.104 1.728-1.104.156 0 .312.024.372.036m2.818 8.244h-1.236l1.44-3.048-2.484-5.136h1.296l1.8 3.984 1.728-3.984h1.212zm9.608-1.464h-6.144v-.948h6.144zm3.329-5.856c-.912 0-1.752.672-1.752 2.016 0 1.32.828 2.028 1.764 2.028 1.08 0 1.476-.732 1.608-1.188l.996.432c-.276.828-1.104 1.8-2.604 1.8-1.68 0-2.916-1.32-2.916-3.072 0-1.8 1.26-3.06 2.904-3.06 1.536 0 2.328.96 2.568 1.836l-1.02.432c-.144-.564-.564-1.224-1.548-1.224m6.353 4.08c.96 0 1.8-.72 1.8-2.064 0-1.332-.84-2.052-1.8-2.052s-1.8.72-1.8 2.052c0 1.344.84 2.064 1.8 2.064m0-5.124c1.728 0 2.952 1.308 2.952 3.06 0 1.764-1.224 3.072-2.952 3.072s-2.952-1.308-2.952-3.072c0-1.752 1.224-3.06 2.952-3.06m5.067 3.048c0 1.188.612 2.064 1.692 2.064 1.032 0 1.668-.9 1.668-2.088s-.624-2.004-1.656-2.004-1.704.84-1.704 2.028m3.372 2.124v-.096c-.276.552-.888 1.032-1.788 1.032-1.692 0-2.736-1.344-2.736-3.06 0-1.632 1.104-3.024 2.736-3.024 1.02 0 1.572.504 1.764.972v-3.732h1.116v7.62c0 .552.048.972.06 1.068h-1.092a5 5 0 0 1-.06-.78m3.743-2.7h3.156c-.024-.828-.564-1.476-1.584-1.476-.948 0-1.524.732-1.572 1.476m3.324 1.5.972.336c-.324 1.02-1.248 1.824-2.592 1.824-1.548 0-2.904-1.128-2.904-3.084 0-1.812 1.308-3.048 2.76-3.048 1.776 0 2.772 1.224 2.772 3.024 0 .144-.012.288-.024.36h-4.344c.024 1.032.768 1.752 1.74 1.752.936 0 1.404-.516 1.62-1.164m1.908.48 1.02-.36c.072.6.528 1.08 1.344 1.08.636 0 .984-.36.984-.768 0-.36-.264-.636-.744-.744l-.984-.216c-.9-.192-1.44-.804-1.44-1.62 0-.984.924-1.824 2.052-1.824 1.584 0 2.076 1.032 2.196 1.548l-.996.372c-.048-.3-.288-.96-1.2-.96-.576 0-.96.372-.96.768 0 .348.216.6.66.696l.936.204c1.044.228 1.596.864 1.596 1.716 0 .816-.684 1.788-2.112 1.788-1.584 0-2.256-1.02-2.352-1.68"/><rect width="76" height="31" x="23.5" y="291.5" fill="#fff" rx="5.5"/><rect width="76" height="31" x="23.5" y="291.5" stroke="#dfdfdf" rx="5.5"/><path stroke="#b2b2b2" stroke-linecap="round" stroke-linejoin="round" d="M37 301h-2.667A1.33 1.33 0 0 0 33 302.333V305m4-4h6.667A1.33 1.33 0 0 1 45 302.333V305m-8-4v12m-4-8v6.667A1.333 1.333 0 0 0 34.333 313H37m-4-8h12m0 0v6.667A1.333 1.333 0 0 1 43.667 313H37"/><path fill="#707070" d="m55.42 310 1.02-.36c.072.6.528 1.08 1.344 1.08.636 0 .984-.36.984-.768 0-.36-.264-.636-.744-.744l-.984-.216c-.9-.192-1.44-.804-1.44-1.62 0-.984.924-1.824 2.052-1.824 1.584 0 2.076 1.032 2.196 1.548l-.996.372c-.048-.3-.288-.96-1.2-.96-.576 0-.96.372-.96.768 0 .348.216.6.66.696l.936.204c1.044.228 1.596.864 1.596 1.716 0 .816-.684 1.788-2.112 1.788-1.584 0-2.256-1.02-2.352-1.68m7.478-6.096v1.824h1.248v1.02h-1.248v3c0 .528.216.792.804.792.144 0 .348-.024.444-.048v.96a2.5 2.5 0 0 1-.768.108c-.984 0-1.608-.6-1.608-1.644v-3.168h-1.104v-1.02h.312c.624 0 .888-.384.888-.888v-.936zm2.393 6.048c0-1.032.756-1.608 1.752-1.752l1.56-.228c.348-.048.444-.228.444-.432 0-.564-.372-1.032-1.248-1.032-.792 0-1.236.492-1.308 1.164l-1.08-.252c.12-1.104 1.116-1.872 2.364-1.872 1.728 0 2.4.984 2.4 2.112v2.892c0 .504.048.804.072.948h-1.104a4.2 4.2 0 0 1-.06-.78c-.252.408-.828.96-1.86.96-1.176 0-1.932-.816-1.932-1.728m2.088.78c.924 0 1.668-.444 1.668-1.704v-.264l-1.764.264c-.48.072-.84.348-.84.864 0 .432.36.84.936.84m6.066-6.828v1.824h1.248v1.02h-1.248v3c0 .528.216.792.804.792.144 0 .348-.024.444-.048v.96a2.5 2.5 0 0 1-.768.108c-.984 0-1.608-.6-1.608-1.644v-3.168h-1.104v-1.02h.312c.624 0 .888-.384.888-.888v-.936zm3.427 4.116h3.156c-.024-.828-.564-1.476-1.584-1.476-.948 0-1.524.732-1.572 1.476m3.324 1.5.972.336c-.324 1.02-1.248 1.824-2.592 1.824-1.548 0-2.904-1.128-2.904-3.084 0-1.812 1.308-3.048 2.76-3.048 1.776 0 2.772 1.224 2.772 3.024 0 .144-.012.288-.024.36h-4.344c.024 1.032.768 1.752 1.74 1.752.936 0 1.404-.516 1.62-1.164m1.908.48 1.02-.36c.072.6.528 1.08 1.344 1.08.636 0 .984-.36.984-.768 0-.36-.264-.636-.744-.744l-.984-.216c-.9-.192-1.44-.804-1.44-1.62 0-.984.924-1.824 2.052-1.824 1.584 0 2.076 1.032 2.196 1.548l-.996.372c-.048-.3-.288-.96-1.2-.96-.576 0-.96.372-.96.768 0 .348.216.6.66.696l.936.204c1.044.228 1.596.864 1.596 1.716 0 .816-.684 1.788-2.112 1.788-1.584 0-2.256-1.02-2.352-1.68"/><rect width="95" height="31" x="122.5" y="291.5" fill="#f3f3f3" rx="15.5"/><rect width="95" height="31" x="122.5" y="291.5" stroke="#d4d4d4" rx="15.5"/><path fill="#707070" d="M138.84 310.732c0-.468.36-.84.828-.84s.84.372.84.84a.825.825 0 0 1-.84.828.815.815 0 0 1-.828-.828m3.352 0c0-.468.36-.84.828-.84s.84.372.84.84a.825.825 0 0 1-.84.828.815.815 0 0 1-.828-.828m3.351 0c0-.468.36-.84.828-.84s.84.372.84.84a.825.825 0 0 1-.84.828.815.815 0 0 1-.828-.828m7.72-7.74-4.116 8.508h-1.092l4.116-8.508zm5.782 2.736-2.304 5.772h-1.14l-2.34-5.772h1.272l1.644 4.452 1.656-4.452zm3.455 5.772h-1.152v-5.484h-1.884v-.828c1.08-.024 1.824-.624 2.004-1.464h1.032zm6.103-8.508-4.116 8.508h-1.092l4.116-8.508z"/><path fill="#171717" d="m169.42 310 1.02-.36c.072.6.528 1.08 1.344 1.08.636 0 .984-.36.984-.768 0-.36-.264-.636-.744-.744l-.984-.216c-.9-.192-1.44-.804-1.44-1.62 0-.984.924-1.824 2.052-1.824 1.584 0 2.076 1.032 2.196 1.548l-.996.372c-.048-.3-.288-.96-1.2-.96-.576 0-.96.372-.96.768 0 .348.216.6.66.696l.936.204c1.044.228 1.596.864 1.596 1.716 0 .816-.684 1.788-2.112 1.788-1.584 0-2.256-1.02-2.352-1.68m7.478-6.096v1.824h1.248v1.02h-1.248v3c0 .528.216.792.804.792.144 0 .348-.024.444-.048v.96a2.5 2.5 0 0 1-.768.108c-.984 0-1.608-.6-1.608-1.644v-3.168h-1.104v-1.02h.312c.624 0 .888-.384.888-.888v-.936zm2.393 6.048c0-1.032.756-1.608 1.752-1.752l1.56-.228c.348-.048.444-.228.444-.432 0-.564-.372-1.032-1.248-1.032-.792 0-1.236.492-1.308 1.164l-1.08-.252c.12-1.104 1.116-1.872 2.364-1.872 1.728 0 2.4.984 2.4 2.112v2.892c0 .504.048.804.072.948h-1.104a4.2 4.2 0 0 1-.06-.78c-.252.408-.828.96-1.86.96-1.176 0-1.932-.816-1.932-1.728m2.088.78c.924 0 1.668-.444 1.668-1.704v-.264l-1.764.264c-.48.072-.84.348-.84.864 0 .432.36.84.936.84m6.066-6.828v1.824h1.248v1.02h-1.248v3c0 .528.216.792.804.792.144 0 .348-.024.444-.048v.96a2.5 2.5 0 0 1-.768.108c-.984 0-1.608-.6-1.608-1.644v-3.168h-1.104v-1.02h.312c.624 0 .888-.384.888-.888v-.936zm3.427 4.116h3.156c-.024-.828-.564-1.476-1.584-1.476-.948 0-1.524.732-1.572 1.476m3.324 1.5.972.336c-.324 1.02-1.248 1.824-2.592 1.824-1.548 0-2.904-1.128-2.904-3.084 0-1.812 1.308-3.048 2.76-3.048 1.776 0 2.772 1.224 2.772 3.024 0 .144-.012.288-.024.36h-4.344c.024 1.032.768 1.752 1.74 1.752.936 0 1.404-.516 1.62-1.164m1.908.48 1.02-.36c.072.6.528 1.08 1.344 1.08.636 0 .984-.36.984-.768 0-.36-.264-.636-.744-.744l-.984-.216c-.9-.192-1.44-.804-1.44-1.62 0-.984.924-1.824 2.052-1.824 1.584 0 2.076 1.032 2.196 1.548l-.996.372c-.048-.3-.288-.96-1.2-.96-.576 0-.96.372-.96.768 0 .348.216.6.66.696l.936.204c1.044.228 1.596.864 1.596 1.716 0 .816-.684 1.788-2.112 1.788-1.584 0-2.256-1.02-2.352-1.68"/><rect width="72" height="31" x="23.5" y="248.5" fill="#fff" rx="5.5"/><rect width="72" height="31" x="23.5" y="248.5" stroke="#dfdfdf" rx="5.5"/><path stroke="#b2b2b2" stroke-linecap="round" stroke-linejoin="round" d="M37 258h-2.667A1.33 1.33 0 0 0 33 259.333V262m4-4h6.667A1.33 1.33 0 0 1 45 259.333V262m-8-4v12m-4-8v6.667A1.333 1.333 0 0 0 34.333 270H37m-4-8h12m0 0v6.667A1.333 1.333 0 0 1 43.667 270H37"/><path fill="#707070" d="M58.384 263.592c-.912 0-1.752.672-1.752 2.016 0 1.32.828 2.028 1.764 2.028 1.08 0 1.476-.732 1.608-1.188l.996.432c-.276.828-1.104 1.8-2.604 1.8-1.68 0-2.916-1.32-2.916-3.072 0-1.8 1.26-3.06 2.904-3.06 1.536 0 2.328.96 2.568 1.836l-1.02.432c-.144-.564-.564-1.224-1.548-1.224m5.055 4.908h-1.116v-5.772h1.116zm-1.368-7.956a.81.81 0 1 1 .804.804.804.804 0 0 1-.804-.804m4.8.36v1.824h1.247v1.02H66.87v3c0 .528.216.792.804.792.144 0 .348-.024.444-.048v.96a2.5 2.5 0 0 1-.768.108c-.984 0-1.608-.6-1.608-1.644v-3.168h-1.104v-1.02h.312c.624 0 .888-.384.888-.888v-.936zm3.87 7.596h-1.117v-5.772h1.116zm-1.369-7.956a.81.81 0 1 1 .804.804.804.804 0 0 1-.804-.804m4.02 4.476h3.155c-.024-.828-.564-1.476-1.584-1.476-.948 0-1.524.732-1.572 1.476m3.323 1.5.972.336c-.324 1.02-1.248 1.824-2.592 1.824-1.548 0-2.904-1.128-2.904-3.084 0-1.812 1.308-3.048 2.76-3.048 1.776 0 2.772 1.224 2.772 3.024 0 .144-.012.288-.024.36h-4.344c.024 1.032.768 1.752 1.74 1.752.936 0 1.404-.516 1.62-1.164m1.908.48 1.02-.36c.072.6.528 1.08 1.344 1.08.636 0 .984-.36.984-.768 0-.36-.264-.636-.744-.744l-.984-.216c-.9-.192-1.44-.804-1.44-1.62 0-.984.924-1.824 2.052-1.824 1.584 0 2.076 1.032 2.196 1.548l-.996.372c-.048-.3-.288-.96-1.2-.96-.576 0-.96.372-.96.768 0 .348.216.6.66.696l.936.204c1.044.228 1.596.864 1.596 1.716 0 .816-.684 1.788-2.112 1.788-1.584 0-2.256-1.02-2.352-1.68"/><rect width="91" height="31" x="118.5" y="248.5" fill="#f3f3f3" rx="15.5"/><rect width="91" height="31" x="118.5" y="248.5" stroke="#d4d4d4" rx="15.5"/><path fill="#707070" d="M134.84 267.732c0-.468.36-.84.828-.84s.84.372.84.84a.825.825 0 0 1-.84.828.815.815 0 0 1-.828-.828m3.352 0c0-.468.36-.84.828-.84s.84.372.84.84a.825.825 0 0 1-.84.828.815.815 0 0 1-.828-.828m3.351 0c0-.468.36-.84.828-.84s.84.372.84.84a.825.825 0 0 1-.84.828.815.815 0 0 1-.828-.828m7.72-7.74-4.116 8.508h-1.092l4.116-8.508zm5.782 2.736-2.304 5.772h-1.14l-2.34-5.772h1.272l1.644 4.452 1.656-4.452zm3.455 5.772h-1.152v-5.484h-1.884v-.828c1.08-.024 1.824-.624 2.004-1.464h1.032zm6.103-8.508-4.116 8.508h-1.092l4.116-8.508z"/><path fill="#171717" d="M168.384 263.592c-.912 0-1.752.672-1.752 2.016 0 1.32.828 2.028 1.764 2.028 1.08 0 1.476-.732 1.608-1.188l.996.432c-.276.828-1.104 1.8-2.604 1.8-1.68 0-2.916-1.32-2.916-3.072 0-1.8 1.26-3.06 2.904-3.06 1.536 0 2.328.96 2.568 1.836l-1.02.432c-.144-.564-.564-1.224-1.548-1.224m5.055 4.908h-1.116v-5.772h1.116zm-1.368-7.956a.81.81 0 1 1 .804.804.804.804 0 0 1-.804-.804m4.799.36v1.824h1.248v1.02h-1.248v3c0 .528.216.792.804.792.144 0 .348-.024.444-.048v.96a2.5 2.5 0 0 1-.768.108c-.984 0-1.608-.6-1.608-1.644v-3.168h-1.104v-1.02h.312c.624 0 .888-.384.888-.888v-.936zm3.87 7.596h-1.116v-5.772h1.116zm-1.368-7.956a.81.81 0 1 1 .804.804.804.804 0 0 1-.804-.804m4.019 4.476h3.156c-.024-.828-.564-1.476-1.584-1.476-.948 0-1.524.732-1.572 1.476m3.324 1.5.972.336c-.324 1.02-1.248 1.824-2.592 1.824-1.548 0-2.904-1.128-2.904-3.084 0-1.812 1.308-3.048 2.76-3.048 1.776 0 2.772 1.224 2.772 3.024 0 .144-.012.288-.024.36h-4.344c.024 1.032.768 1.752 1.74 1.752.936 0 1.404-.516 1.62-1.164m1.908.48 1.02-.36c.072.6.528 1.08 1.344 1.08.636 0 .984-.36.984-.768 0-.36-.264-.636-.744-.744l-.984-.216c-.9-.192-1.44-.804-1.44-1.62 0-.984.924-1.824 2.052-1.824 1.584 0 2.076 1.032 2.196 1.548l-.996.372c-.048-.3-.288-.96-1.2-.96-.576 0-.96.372-.96.768 0 .348.216.6.66.696l.936.204c1.044.228 1.596.864 1.596 1.716 0 .816-.684 1.788-2.112 1.788-1.584 0-2.256-1.02-2.352-1.68"/><rect width="100" height="31" x="23.5" y="205.5" fill="#fff" rx="5.5"/><rect width="100" height="31" x="23.5" y="205.5" stroke="#dfdfdf" rx="5.5"/><path stroke="#b2b2b2" stroke-linecap="round" stroke-linejoin="round" d="M37 215h-2.667A1.33 1.33 0 0 0 33 216.333V219m4-4h6.667A1.33 1.33 0 0 1 45 216.333V219m-8-4v12m-4-8v6.667A1.333 1.333 0 0 0 34.333 227H37m-4-8h12m0 0v6.667A1.333 1.333 0 0 1 43.667 227H37"/><path fill="#707070" d="M58.384 220.592c-.912 0-1.752.672-1.752 2.016 0 1.32.828 2.028 1.764 2.028 1.08 0 1.476-.732 1.608-1.188l.996.432c-.276.828-1.104 1.8-2.604 1.8-1.68 0-2.916-1.32-2.916-3.072 0-1.8 1.26-3.06 2.904-3.06 1.536 0 2.328.96 2.568 1.836l-1.02.432c-.144-.564-.564-1.224-1.548-1.224m6.353 4.08c.96 0 1.8-.72 1.8-2.064 0-1.332-.84-2.052-1.8-2.052s-1.8.72-1.8 2.052c0 1.344.84 2.064 1.8 2.064m0-5.124c1.728 0 2.952 1.308 2.952 3.06 0 1.764-1.224 3.072-2.952 3.072s-2.952-1.308-2.952-3.072c0-1.752 1.224-3.06 2.952-3.06m5.523 2.616v3.336h-1.128v-5.772h1.104v.828c.42-.72 1.104-.996 1.776-.996 1.38 0 2.064.996 2.064 2.28v3.66h-1.128v-3.468c0-.804-.336-1.452-1.344-1.452-.888 0-1.344.708-1.344 1.584m7.122-4.26v1.824h1.248v1.02h-1.248v3c0 .528.216.792.804.792.144 0 .348-.024.444-.048v.96a2.5 2.5 0 0 1-.768.108c-.984 0-1.608-.6-1.608-1.644v-3.168H75.15v-1.02h.312c.624 0 .888-.384.888-.888v-.936zm3.87 7.596h-1.116v-5.772h1.116zm-1.368-7.956a.81.81 0 1 1 .804.804.804.804 0 0 1-.804-.804m4.415 4.62v3.336H83.17v-5.772h1.104v.828c.42-.72 1.104-.996 1.776-.996 1.38 0 2.064.996 2.064 2.28v3.66h-1.128v-3.468c0-.804-.336-1.452-1.344-1.452-.888 0-1.344.708-1.344 1.584m6.342-.144h3.156c-.024-.828-.564-1.476-1.584-1.476-.948 0-1.524.732-1.572 1.476m3.324 1.5.972.336c-.324 1.02-1.248 1.824-2.592 1.824-1.548 0-2.904-1.128-2.904-3.084 0-1.812 1.308-3.048 2.76-3.048 1.776 0 2.772 1.224 2.772 3.024 0 .144-.012.288-.024.36h-4.344c.024 1.032.768 1.752 1.74 1.752.936 0 1.404-.516 1.62-1.164m3.576-1.356v3.336h-1.128v-5.772h1.104v.828c.42-.72 1.104-.996 1.776-.996 1.38 0 2.064.996 2.064 2.28v3.66h-1.128v-3.468c0-.804-.336-1.452-1.344-1.452-.888 0-1.344.708-1.344 1.584m7.122-4.26v1.824h1.248v1.02h-1.248v3c0 .528.216.792.804.792.144 0 .348-.024.444-.048v.96a2.5 2.5 0 0 1-.768.108c-.984 0-1.608-.6-1.608-1.644v-3.168h-1.104v-1.02h.312c.624 0 .888-.384.888-.888v-.936zm2.273 6.096 1.02-.36c.072.6.528 1.08 1.344 1.08.636 0 .984-.36.984-.768 0-.36-.264-.636-.744-.744l-.984-.216c-.9-.192-1.44-.804-1.44-1.62 0-.984.924-1.824 2.052-1.824 1.584 0 2.076 1.032 2.196 1.548l-.996.372c-.048-.3-.288-.96-1.2-.96-.576 0-.96.372-.96.768 0 .348.216.6.66.696l.936.204c1.044.228 1.596.864 1.596 1.716 0 .816-.684 1.788-2.112 1.788-1.584 0-2.256-1.02-2.352-1.68"/><rect width="119" height="31" x="146.5" y="205.5" fill="#f3f3f3" rx="15.5"/><rect width="119" height="31" x="146.5" y="205.5" stroke="#d4d4d4" rx="15.5"/><path fill="#707070" d="M162.84 224.732c0-.468.36-.84.828-.84s.84.372.84.84a.825.825 0 0 1-.84.828.815.815 0 0 1-.828-.828m3.352 0c0-.468.36-.84.828-.84s.84.372.84.84a.825.825 0 0 1-.84.828.815.815 0 0 1-.828-.828m3.351 0c0-.468.36-.84.828-.84s.84.372.84.84a.825.825 0 0 1-.84.828.815.815 0 0 1-.828-.828m7.72-7.74-4.116 8.508h-1.092l4.116-8.508zm5.782 2.736-2.304 5.772h-1.14l-2.34-5.772h1.272l1.644 4.452 1.656-4.452zm3.455 5.772h-1.152v-5.484h-1.884v-.828c1.08-.024 1.824-.624 2.004-1.464h1.032zm6.103-8.508-4.116 8.508h-1.092l4.116-8.508z"/><path fill="#171717" d="M196.384 220.592c-.912 0-1.752.672-1.752 2.016 0 1.32.828 2.028 1.764 2.028 1.08 0 1.476-.732 1.608-1.188l.996.432c-.276.828-1.104 1.8-2.604 1.8-1.68 0-2.916-1.32-2.916-3.072 0-1.8 1.26-3.06 2.904-3.06 1.536 0 2.328.96 2.568 1.836l-1.02.432c-.144-.564-.564-1.224-1.548-1.224m6.353 4.08c.96 0 1.8-.72 1.8-2.064 0-1.332-.84-2.052-1.8-2.052s-1.8.72-1.8 2.052c0 1.344.84 2.064 1.8 2.064m0-5.124c1.728 0 2.952 1.308 2.952 3.06 0 1.764-1.224 3.072-2.952 3.072s-2.952-1.308-2.952-3.072c0-1.752 1.224-3.06 2.952-3.06m5.523 2.616v3.336h-1.128v-5.772h1.104v.828c.42-.72 1.104-.996 1.776-.996 1.38 0 2.064.996 2.064 2.28v3.66h-1.128v-3.468c0-.804-.336-1.452-1.344-1.452-.888 0-1.344.708-1.344 1.584m7.122-4.26v1.824h1.248v1.02h-1.248v3c0 .528.216.792.804.792.144 0 .348-.024.444-.048v.96a2.5 2.5 0 0 1-.768.108c-.984 0-1.608-.6-1.608-1.644v-3.168h-1.104v-1.02h.312c.624 0 .888-.384.888-.888v-.936zm3.87 7.596h-1.116v-5.772h1.116zm-1.368-7.956a.81.81 0 1 1 .804.804.804.804 0 0 1-.804-.804m4.415 4.62v3.336h-1.128v-5.772h1.104v.828c.42-.72 1.104-.996 1.776-.996 1.38 0 2.064.996 2.064 2.28v3.66h-1.128v-3.468c0-.804-.336-1.452-1.344-1.452-.888 0-1.344.708-1.344 1.584m6.342-.144h3.156c-.024-.828-.564-1.476-1.584-1.476-.948 0-1.524.732-1.572 1.476m3.324 1.5.972.336c-.324 1.02-1.248 1.824-2.592 1.824-1.548 0-2.904-1.128-2.904-3.084 0-1.812 1.308-3.048 2.76-3.048 1.776 0 2.772 1.224 2.772 3.024 0 .144-.012.288-.024.36h-4.344c.024 1.032.768 1.752 1.74 1.752.936 0 1.404-.516 1.62-1.164m3.576-1.356v3.336h-1.128v-5.772h1.104v.828c.42-.72 1.104-.996 1.776-.996 1.38 0 2.064.996 2.064 2.28v3.66h-1.128v-3.468c0-.804-.336-1.452-1.344-1.452-.888 0-1.344.708-1.344 1.584m7.122-4.26v1.824h1.248v1.02h-1.248v3c0 .528.216.792.804.792.144 0 .348-.024.444-.048v.96a2.5 2.5 0 0 1-.768.108c-.984 0-1.608-.6-1.608-1.644v-3.168h-1.104v-1.02h.312c.624 0 .888-.384.888-.888v-.936zm2.273 6.096 1.02-.36c.072.6.528 1.08 1.344 1.08.636 0 .984-.36.984-.768 0-.36-.264-.636-.744-.744l-.984-.216c-.9-.192-1.44-.804-1.44-1.62 0-.984.924-1.824 2.052-1.824 1.584 0 2.076 1.032 2.196 1.548l-.996.372c-.048-.3-.288-.96-1.2-.96-.576 0-.96.372-.96.768 0 .348.216.6.66.696l.936.204c1.044.228 1.596.864 1.596 1.716 0 .816-.684 1.788-2.112 1.788-1.584 0-2.256-1.02-2.352-1.68"/><rect width="94" height="31" x="23.5" y="162.5" fill="#fff" rx="5.5"/><rect width="94" height="31" x="23.5" y="162.5" stroke="#dfdfdf" rx="5.5"/><path stroke="#b2b2b2" stroke-linecap="round" stroke-linejoin="round" d="M37 172h-2.667A1.33 1.33 0 0 0 33 173.333V176m4-4h6.667A1.33 1.33 0 0 1 45 173.333V176m-8-4v12m-4-8v6.667A1.333 1.333 0 0 0 34.333 184H37m-4-8h12m0 0v6.667A1.333 1.333 0 0 1 43.667 184H37"/><path fill="#707070" d="M58.384 177.592c-.912 0-1.752.672-1.752 2.016 0 1.32.828 2.028 1.764 2.028 1.08 0 1.476-.732 1.608-1.188l.996.432c-.276.828-1.104 1.8-2.604 1.8-1.68 0-2.916-1.32-2.916-3.072 0-1.8 1.26-3.06 2.904-3.06 1.536 0 2.328.96 2.568 1.836l-1.02.432c-.144-.564-.564-1.224-1.548-1.224m6.353 4.08c.96 0 1.8-.72 1.8-2.064 0-1.332-.84-2.052-1.8-2.052s-1.8.72-1.8 2.052c0 1.344.84 2.064 1.8 2.064m0-5.124c1.728 0 2.952 1.308 2.952 3.06 0 1.764-1.224 3.072-2.952 3.072s-2.952-1.308-2.952-3.072c0-1.752 1.224-3.06 2.952-3.06m8.14 5.256c-.312.6-1.032.876-1.704.876-1.344 0-2.16-1.008-2.16-2.316v-3.636h1.128v3.468c0 .792.36 1.488 1.308 1.488.912 0 1.368-.6 1.368-1.476v-3.48h1.128v4.704c0 .456.036.864.06 1.068h-1.08a5 5 0 0 1-.048-.696m4.121-2.64v3.336H75.87v-5.772h1.104v.828c.42-.72 1.104-.996 1.776-.996 1.38 0 2.064.996 2.064 2.28v3.66h-1.128v-3.468c0-.804-.336-1.452-1.344-1.452-.888 0-1.344.708-1.344 1.584m7.122-4.26v1.824h1.248v1.02H84.12v3c0 .528.216.792.804.792.144 0 .348-.024.444-.048v.96a2.5 2.5 0 0 1-.768.108c-.984 0-1.608-.6-1.608-1.644v-3.168h-1.104v-1.02h.312c.624 0 .888-.384.888-.888v-.936zm5.84 1.764v1.2a3.5 3.5 0 0 0-.491-.036c-.948 0-1.584.504-1.584 1.776v2.892h-1.128v-5.772h1.104v1.008c.42-.888 1.14-1.104 1.728-1.104.156 0 .312.024.372.036m2.32 5.832h-1.117v-5.772h1.116zm-1.369-7.956a.81.81 0 1 1 .804.804.804.804 0 0 1-.804-.804m4.02 4.476h3.155c-.024-.828-.564-1.476-1.584-1.476-.948 0-1.524.732-1.572 1.476m3.323 1.5.972.336c-.324 1.02-1.248 1.824-2.592 1.824-1.548 0-2.904-1.128-2.904-3.084 0-1.812 1.308-3.048 2.76-3.048 1.776 0 2.772 1.224 2.772 3.024 0 .144-.012.288-.024.36h-4.344c.024 1.032.768 1.752 1.74 1.752.936 0 1.404-.516 1.62-1.164m1.908.48 1.02-.36c.072.6.528 1.08 1.344 1.08.636 0 .984-.36.984-.768 0-.36-.264-.636-.744-.744l-.984-.216c-.9-.192-1.44-.804-1.44-1.62 0-.984.924-1.824 2.052-1.824 1.584 0 2.076 1.032 2.196 1.548l-.996.372c-.048-.3-.288-.96-1.2-.96-.576 0-.96.372-.96.768 0 .348.216.6.66.696l.936.204c1.044.228 1.596.864 1.596 1.716 0 .816-.684 1.788-2.112 1.788-1.584 0-2.256-1.02-2.352-1.68"/><rect width="113" height="31" x="140.5" y="162.5" fill="#f3f3f3" rx="15.5"/><rect width="113" height="31" x="140.5" y="162.5" stroke="#d4d4d4" rx="15.5"/><path fill="#707070" d="M156.84 181.732c0-.468.36-.84.828-.84s.84.372.84.84a.825.825 0 0 1-.84.828.815.815 0 0 1-.828-.828m3.352 0c0-.468.36-.84.828-.84s.84.372.84.84a.825.825 0 0 1-.84.828.815.815 0 0 1-.828-.828m3.351 0c0-.468.36-.84.828-.84s.84.372.84.84a.825.825 0 0 1-.84.828.815.815 0 0 1-.828-.828m7.72-7.74-4.116 8.508h-1.092l4.116-8.508zm5.782 2.736-2.304 5.772h-1.14l-2.34-5.772h1.272l1.644 4.452 1.656-4.452zm3.455 5.772h-1.152v-5.484h-1.884v-.828c1.08-.024 1.824-.624 2.004-1.464h1.032zm6.103-8.508-4.116 8.508h-1.092l4.116-8.508z"/><path fill="#171717" d="M190.384 177.592c-.912 0-1.752.672-1.752 2.016 0 1.32.828 2.028 1.764 2.028 1.08 0 1.476-.732 1.608-1.188l.996.432c-.276.828-1.104 1.8-2.604 1.8-1.68 0-2.916-1.32-2.916-3.072 0-1.8 1.26-3.06 2.904-3.06 1.536 0 2.328.96 2.568 1.836l-1.02.432c-.144-.564-.564-1.224-1.548-1.224m6.353 4.08c.96 0 1.8-.72 1.8-2.064 0-1.332-.84-2.052-1.8-2.052s-1.8.72-1.8 2.052c0 1.344.84 2.064 1.8 2.064m0-5.124c1.728 0 2.952 1.308 2.952 3.06 0 1.764-1.224 3.072-2.952 3.072s-2.952-1.308-2.952-3.072c0-1.752 1.224-3.06 2.952-3.06m8.14 5.256c-.312.6-1.032.876-1.704.876-1.344 0-2.16-1.008-2.16-2.316v-3.636h1.128v3.468c0 .792.36 1.488 1.308 1.488.912 0 1.368-.6 1.368-1.476v-3.48h1.128v4.704c0 .456.036.864.06 1.068h-1.08a5 5 0 0 1-.048-.696m4.121-2.64v3.336h-1.128v-5.772h1.104v.828c.42-.72 1.104-.996 1.776-.996 1.38 0 2.064.996 2.064 2.28v3.66h-1.128v-3.468c0-.804-.336-1.452-1.344-1.452-.888 0-1.344.708-1.344 1.584m7.122-4.26v1.824h1.248v1.02h-1.248v3c0 .528.216.792.804.792.144 0 .348-.024.444-.048v.96a2.5 2.5 0 0 1-.768.108c-.984 0-1.608-.6-1.608-1.644v-3.168h-1.104v-1.02h.312c.624 0 .888-.384.888-.888v-.936zm5.841 1.764v1.2a3.5 3.5 0 0 0-.492-.036c-.948 0-1.584.504-1.584 1.776v2.892h-1.128v-5.772h1.104v1.008c.42-.888 1.14-1.104 1.728-1.104.156 0 .312.024.372.036m2.318 5.832h-1.116v-5.772h1.116zm-1.368-7.956a.81.81 0 1 1 .804.804.804.804 0 0 1-.804-.804m4.019 4.476h3.156c-.024-.828-.564-1.476-1.584-1.476-.948 0-1.524.732-1.572 1.476m3.324 1.5.972.336c-.324 1.02-1.248 1.824-2.592 1.824-1.548 0-2.904-1.128-2.904-3.084 0-1.812 1.308-3.048 2.76-3.048 1.776 0 2.772 1.224 2.772 3.024 0 .144-.012.288-.024.36h-4.344c.024 1.032.768 1.752 1.74 1.752.936 0 1.404-.516 1.62-1.164m1.908.48 1.02-.36c.072.6.528 1.08 1.344 1.08.636 0 .984-.36.984-.768 0-.36-.264-.636-.744-.744l-.984-.216c-.9-.192-1.44-.804-1.44-1.62 0-.984.924-1.824 2.052-1.824 1.584 0 2.076 1.032 2.196 1.548l-.996.372c-.048-.3-.288-.96-1.2-.96-.576 0-.96.372-.96.768 0 .348.216.6.66.696l.936.204c1.044.228 1.596.864 1.596 1.716 0 .816-.684 1.788-2.112 1.788-1.584 0-2.256-1.02-2.352-1.68"/></svg>