<svg width="390" height="430" viewBox="0 0 390 430" fill="none" xmlns="http://www.w3.org/2000/svg">
<path d="M205.638 126H152.172C143.666 126 136.014 131.169 132.839 139.061L112.498 189.614C109.437 197.222 111.153 205.92 116.875 211.795L127.108 222.3C131.9 227.22 134.581 233.816 134.581 240.684L134.581 255.157C134.58 275.354 150.953 291.727 171.15 291.727C177.31 291.727 182.304 286.733 182.304 280.573L182.304 194.332C182.304 175.704 189.745 157.847 202.973 144.73C205.718 142.008 210.15 142.027 212.872 144.772C215.594 147.517 215.576 151.949 212.831 154.671C202.254 165.159 196.304 179.437 196.304 194.333L196.304 280.573C196.304 294.465 185.042 305.727 171.15 305.727C143.221 305.727 120.58 283.086 120.581 255.157L120.581 240.684C120.581 237.465 119.324 234.374 117.079 232.069L106.846 221.563C97.256 211.717 94.3791 197.139 99.5098 184.388L119.851 133.835C125.159 120.642 137.952 112 152.172 112H207.902V112.084H218.24C267.344 112.084 307.151 151.89 307.151 200.994V251.835C307.151 255.701 304.017 258.835 300.151 258.835C296.285 258.835 293.151 255.701 293.151 251.835V200.994C293.151 159.622 259.612 126.084 218.24 126.084H206.723C206.354 126.084 205.991 126.055 205.638 126Z" stroke="#A0A0A0"/>
<path d="M223.523 284.124C223.523 280.258 220.389 277.124 216.523 277.124C212.657 277.124 209.523 280.258 209.523 284.124V287.236C209.523 314.195 231.378 336.05 258.337 336.05C284.687 336.05 306.161 315.171 307.117 289.054H331.732C335.598 289.054 338.732 285.92 338.732 282.054C338.732 278.188 335.598 275.054 331.732 275.054H304.89C274.147 275.054 244.634 262.972 222.717 241.412C219.961 238.701 215.529 238.737 212.818 241.493C210.107 244.249 210.143 248.681 212.899 251.392C234.624 272.763 263.015 285.816 293.127 288.526C292.449 307.156 277.132 322.05 258.337 322.05C239.11 322.05 223.523 306.464 223.523 287.236V284.124Z" stroke="#A0A0A0"/>
<path d="M251.524 202.329C251.524 207.121 255.408 211.006 260.2 211.006C264.992 211.006 268.877 207.121 268.877 202.329C268.877 197.537 264.992 193.652 260.2 193.652C255.408 193.652 251.524 197.537 251.524 202.329Z" stroke="#A0A0A0"/>
<g clip-path="url(#clip0_444_4598)">
<rect width="390" height="430" fill="#1C1C1C"/>
<path opacity="0.5" d="M0.295906 3L0.295926 460.453M14.2959 3L14.2959 460.453M28.296 3L28.296 460.453M42.296 3L42.296 460.453M56.296 3L56.296 460.453M70.296 3L70.296 460.453M84.296 3L84.2961 460.453M98.2961 3L98.2961 460.453M112.296 3L112.296 460.453M126.296 3L126.296 460.453M140.296 3L140.296 460.453M154.296 3L154.296 460.453M168.296 3L168.296 460.453M182.296 3L182.296 460.453M196.296 3L196.296 460.453M210.296 3L210.296 460.453M224.296 3L224.296 460.453M238.296 3L238.296 460.453M252.296 3L252.296 460.453M266.296 3L266.296 460.453M280.296 3L280.296 460.453M294.296 3L294.296 460.453M308.296 3L308.296 460.453M322.296 3L322.296 460.453M336.296 3L336.296 460.453M350.296 3L350.296 460.453M364.296 3L364.297 460.453M378.297 3L378.297 460.453M392.297 3L392.297 460.453M457.453 13.2969H1.89708e-05M457.453 27.2969H1.83588e-05M457.453 41.2969H1.77469e-05M457.453 55.2969H1.71349e-05M457.453 69.297H1.65229e-05M457.453 83.297H1.5911e-05M457.453 97.297H1.5299e-05M457.453 111.297H1.46871e-05M457.453 125.297H1.40751e-05M457.453 139.297H1.34631e-05M457.453 153.297H1.28512e-05M457.453 167.297H1.22392e-05M457.453 181.297H1.16272e-05M457.453 195.297H1.10153e-05M457.453 209.297H1.04033e-05M457.453 223.297H9.79137e-06M457.453 237.297H9.17941e-06M457.453 251.297H8.56745e-06M457.453 265.297H7.95549e-06M457.453 279.297H7.34353e-06M457.453 293.297H6.73157e-06M457.453 307.297H6.11961e-06M457.453 321.297H5.50765e-06M457.453 335.297H4.89569e-06M457.453 349.297H4.28372e-06M457.453 363.297H3.67176e-06M457.453 377.297H3.0598e-06M457.453 391.297H2.44784e-06M457.453 405.298H1.83588e-06M457.453 419.298H1.22392e-06M457.453 433.298H6.11959e-07M457.453 447.298H0" stroke="#282828"/>
<g filter="url(#filter0_f_444_4598)">
<ellipse cx="28.8492" cy="221.033" rx="78.8492" ry="311.736" fill="#1C1C1C"/>
</g>
<path opacity="0.2" fill-rule="evenodd" clip-rule="evenodd" d="M83.6064 129.895C83.6064 111.945 98.1572 97.3945 116.106 97.3945H303.883C321.833 97.3945 336.383 111.945 336.383 129.895V157.265C336.389 157.513 336.392 157.761 336.392 158.01V289.834C336.392 290.083 336.389 290.331 336.383 290.579V317.773C336.383 335.723 321.832 350.273 303.883 350.273H116.106C98.1572 350.273 83.6064 335.723 83.6064 317.773V232.195C83.4225 229.408 83.3291 226.596 83.3291 223.763C83.3291 220.929 83.4225 218.118 83.6064 215.331V129.895ZM84.6064 232.161V215.364C85.7377 198.291 90.293 182.154 97.5918 167.633V279.892C90.293 265.372 85.7377 249.234 84.6064 232.161ZM84.6064 241.783V289.834C84.6064 301.478 90.9245 311.647 100.32 317.098C98.5654 313.103 97.5918 308.688 97.5918 304.045V282.085C91.13 269.714 86.6597 256.138 84.6064 241.783ZM98.5918 283.961V304.045C98.5918 309.018 99.7441 313.721 101.796 317.903C104.89 319.484 108.281 320.568 111.862 321.05C111.739 319.905 111.677 318.742 111.677 317.564V303.446C106.739 297.392 102.352 290.872 98.5918 283.961ZM112.677 304.656V317.564C112.677 318.784 112.746 319.987 112.881 321.171C113.941 321.279 115.018 321.334 116.106 321.334H129.514C123.394 316.313 117.755 310.727 112.677 304.656ZM131.1 321.334C124.348 315.903 118.172 309.786 112.677 303.089V144.437C118.065 137.87 124.108 131.861 130.706 126.51H288.247C295.184 132.135 301.507 138.488 307.101 145.452V302.073C301.401 309.169 294.945 315.63 287.853 321.334H131.1ZM130.749 322.334H116.106C115.063 322.334 114.032 322.285 113.014 322.189C113.551 325.84 114.714 329.287 116.391 332.418C120.534 334.421 125.182 335.545 130.092 335.545H150.958C143.788 331.783 137.023 327.352 130.749 322.334ZM153.144 335.545C145.767 331.82 138.809 327.387 132.36 322.334H286.593C280.144 327.387 273.186 331.82 265.809 335.545H153.144ZM152.906 336.545H130.092C125.528 336.545 121.183 335.604 117.242 333.906C122.767 342.994 132.763 349.064 144.177 349.064H194.791C179.882 347.336 165.765 343.008 152.906 336.545ZM224.162 349.064H275.601C286.948 349.064 296.894 343.065 302.439 334.064C298.597 335.662 294.383 336.545 289.963 336.545H266.048C253.188 343.008 239.072 347.336 224.162 349.064ZM263.784 336.545C247.357 344.469 228.936 348.91 209.477 348.91C190.017 348.91 171.596 344.469 155.17 336.545H263.784ZM267.995 335.545H289.963C294.726 335.545 299.243 334.488 303.29 332.595C305.016 329.423 306.212 325.922 306.761 322.209C305.815 322.292 304.858 322.334 303.892 322.334H288.204C281.93 327.352 275.166 331.783 267.995 335.545ZM289.439 321.334H303.892C304.904 321.334 305.906 321.286 306.894 321.193C307.03 320.002 307.101 318.792 307.101 317.564V303.661C301.81 310.117 295.892 316.039 289.439 321.334ZM308.101 302.424V317.564C308.101 318.752 308.037 319.925 307.913 321.08C311.605 320.609 315.099 319.499 318.277 317.865C320.318 313.692 321.463 309.002 321.463 304.045V281.89C317.671 289.181 313.188 296.055 308.101 302.424ZM322.463 279.926V304.045C322.463 308.671 321.496 313.071 319.755 317.054C328.91 311.707 335.125 301.873 335.383 290.567V231.621C334.322 248.893 329.785 265.225 322.463 279.926ZM335.383 215.904V157.277C335.125 145.979 328.919 136.151 319.774 130.801C321.504 134.773 322.463 139.157 322.463 143.766V167.6C329.785 182.301 334.322 198.633 335.383 215.904ZM322.463 169.881C330.259 186.199 334.624 204.471 334.624 223.763C334.624 243.054 330.259 261.326 322.463 277.645V169.881ZM321.463 167.836V279.69C317.709 287.191 313.224 294.263 308.101 300.812V146.714C313.224 153.262 317.709 160.334 321.463 167.836ZM321.463 165.635V143.766C321.463 138.826 320.326 134.152 318.299 129.99C315.122 128.353 311.631 127.241 307.94 126.767C308.046 127.837 308.101 128.922 308.101 130.02V145.101C313.188 151.471 317.671 158.345 321.463 165.635ZM307.101 143.865V130.02C307.101 128.883 307.04 127.76 306.923 126.654C305.925 126.558 304.914 126.51 303.892 126.51H289.825C296.128 131.723 301.916 137.537 307.101 143.865ZM288.601 125.51H303.892C304.871 125.51 305.841 125.553 306.798 125.638C306.285 121.946 305.131 118.459 303.453 115.292C299.364 113.351 294.79 112.266 289.963 112.266H268.535C275.656 116.045 282.372 120.488 288.601 125.51ZM266.611 111.266H289.963C294.454 111.266 298.733 112.177 302.624 113.824C297.117 104.655 287.075 98.5195 275.601 98.5195H224.659C239.603 100.312 253.744 104.718 266.611 111.266ZM194.294 98.5195H144.177C132.635 98.5195 122.543 104.727 117.058 113.985C121.048 112.236 125.456 111.266 130.092 111.266H152.342C165.209 104.718 179.35 100.312 194.294 98.5195ZM154.582 111.266C171.156 103.163 189.785 98.6152 209.477 98.6152C229.168 98.6152 247.797 103.163 264.371 111.266H154.582ZM152.582 112.266H266.371C273.693 116.01 280.598 120.454 286.998 125.51H131.955C138.355 120.454 145.26 116.01 152.582 112.266ZM150.418 112.266H130.092C125.118 112.266 120.413 113.419 116.23 115.472C114.6 118.596 113.479 122.029 112.976 125.659C114.006 125.56 115.051 125.51 116.106 125.51H130.352C136.581 120.488 143.297 116.045 150.418 112.266ZM129.128 126.51H116.106C115.008 126.51 113.922 126.566 112.852 126.676C112.736 127.775 112.677 128.89 112.677 130.02V142.869C117.648 136.926 123.157 131.448 129.128 126.51ZM111.677 144.08V130.02C111.677 128.932 111.73 127.857 111.835 126.797C108.255 127.282 104.867 128.369 101.775 129.951C99.736 134.122 98.5918 138.81 98.5918 143.766V163.565C102.352 156.654 106.739 150.133 111.677 144.08ZM98.5918 165.687V281.839C102.319 288.94 106.708 295.639 111.677 301.854V145.671C106.708 151.886 102.319 158.586 98.5918 165.687ZM97.5918 165.44V143.766C97.5918 139.14 98.5582 134.74 100.3 130.757C90.9158 136.211 84.6064 146.374 84.6064 158.01V205.743C86.6597 191.387 91.13 177.811 97.5918 165.44ZM335.383 129.895V149.945C333.091 140.969 327.062 133.487 319.051 129.255C315.855 122.86 310.612 117.666 304.18 114.532C299.832 106.525 292.217 100.549 283.123 98.3945H303.883C321.28 98.3945 335.383 112.498 335.383 129.895ZM101.023 129.214C104.159 122.963 109.251 117.864 115.496 114.72C119.827 106.618 127.49 100.566 136.654 98.3945H116.106C98.7095 98.3945 84.6064 112.498 84.6064 129.895V149.978C86.8993 140.958 92.9644 133.444 101.023 129.214ZM111.952 125.773C112.39 122.415 113.341 119.217 114.723 116.263C109.622 119.119 105.397 123.354 102.552 128.462C105.478 127.118 108.637 126.196 111.952 125.773ZM317.522 128.497C314.51 127.104 311.248 126.158 307.822 125.745C307.372 122.318 306.388 119.06 304.956 116.056C310.237 118.919 314.608 123.248 317.522 128.497ZM307.786 322.103C307.305 325.549 306.283 328.823 304.808 331.834C310.141 328.98 314.556 324.636 317.497 319.358C314.481 320.75 311.216 321.693 307.786 322.103ZM111.987 322.075C112.456 325.454 113.445 328.666 114.869 331.629C109.718 328.78 105.449 324.53 102.577 319.393C105.506 320.735 108.669 321.656 111.987 322.075ZM137.018 349.273C127.811 347.204 120.082 341.227 115.664 333.175C109.357 330.045 104.211 324.928 101.046 318.641C92.9757 314.414 86.9014 306.894 84.6064 297.866V317.773C84.6064 335.17 98.7095 349.273 116.106 349.273H137.018ZM304.01 333.361C299.576 341.318 291.896 347.22 282.759 349.273H303.883C321.28 349.273 335.383 335.17 335.383 317.773V297.898C333.089 306.883 327.051 314.371 319.029 318.601C315.802 325.032 310.504 330.243 304.01 333.361Z" fill="#A0A0A0"/>
<g filter="url(#filter1_f_444_4598)">
<ellipse cx="66.8161" cy="28.6408" rx="66.8161" ry="28.6408" transform="matrix(0.756574 -0.653908 -0.653908 -0.756574 265.91 178.242)" fill="#85E0B7"/>
</g>
<g filter="url(#filter2_bd_444_4598)">
<path d="M205.983 125.863H152.518C144.012 125.863 136.359 131.033 133.184 138.924L112.844 189.477C109.782 197.085 111.499 205.783 117.221 211.658L127.453 222.164C132.245 227.083 134.927 233.68 134.927 240.547L134.926 255.021C134.926 275.218 151.299 291.59 171.496 291.59C177.656 291.59 182.649 286.597 182.649 280.437L182.65 194.196C182.65 175.567 190.091 157.71 203.319 144.593C206.064 141.871 210.496 141.89 213.218 144.635C215.94 147.38 215.921 151.812 213.176 154.535C202.599 165.022 196.65 179.301 196.65 194.196L196.649 280.437C196.649 294.329 185.388 305.59 171.496 305.59C143.567 305.59 120.926 282.949 120.926 255.021L120.927 240.547C120.927 237.329 119.67 234.237 117.424 231.932L107.192 221.427C97.6017 211.58 94.7248 197.002 99.8555 184.251L120.196 133.698C125.504 120.506 138.297 111.863 152.518 111.863H208.247V111.947H218.586C267.69 111.947 307.496 151.753 307.496 200.857V251.699C307.496 255.565 304.362 258.699 300.496 258.699C296.63 258.699 293.496 255.565 293.496 251.699V200.857C293.496 159.485 259.958 125.947 218.586 125.947H207.069C206.7 125.947 206.337 125.918 205.983 125.863Z" fill="url(#paint0_linear_444_4598)" fill-opacity="0.07" shape-rendering="crispEdges"/>
<path d="M223.869 283.987C223.869 280.121 220.735 276.987 216.869 276.987C213.003 276.987 209.869 280.121 209.869 283.987V287.1C209.869 314.059 231.723 335.913 258.682 335.913C285.033 335.913 306.507 315.034 307.463 288.918H332.078C335.944 288.918 339.078 285.784 339.078 281.918C339.078 278.052 335.944 274.918 332.078 274.918H305.236C274.492 274.918 244.98 262.835 223.063 241.275C220.307 238.564 215.875 238.6 213.164 241.356C210.453 244.112 210.489 248.544 213.245 251.255C234.97 272.626 263.361 285.679 293.473 288.389C292.794 307.019 277.478 321.913 258.682 321.913C239.455 321.913 223.869 306.327 223.869 287.1V283.987Z" fill="url(#paint1_linear_444_4598)" fill-opacity="0.07" shape-rendering="crispEdges"/>
<path d="M251.869 202.192C251.869 206.984 255.754 210.869 260.546 210.869C265.338 210.869 269.223 206.984 269.223 202.192C269.223 197.4 265.338 193.516 260.546 193.516C255.754 193.516 251.869 197.4 251.869 202.192Z" fill="url(#paint2_linear_444_4598)" fill-opacity="0.07" shape-rendering="crispEdges"/>
<path d="M205.983 125.863H152.518C144.012 125.863 136.359 131.033 133.184 138.924L112.844 189.477C109.782 197.085 111.499 205.783 117.221 211.658L127.453 222.164C132.245 227.083 134.927 233.68 134.927 240.547L134.926 255.021C134.926 275.218 151.299 291.59 171.496 291.59C177.656 291.59 182.649 286.597 182.649 280.437L182.65 194.196C182.65 175.567 190.091 157.71 203.319 144.593C206.064 141.871 210.496 141.89 213.218 144.635C215.94 147.38 215.921 151.812 213.176 154.535C202.599 165.022 196.65 179.301 196.65 194.196L196.649 280.437C196.649 294.329 185.388 305.59 171.496 305.59C143.567 305.59 120.926 282.949 120.926 255.021L120.927 240.547C120.927 237.329 119.67 234.237 117.424 231.932L107.192 221.427C97.6017 211.58 94.7248 197.002 99.8555 184.251L120.196 133.698C125.504 120.506 138.297 111.863 152.518 111.863H208.247V111.947H218.586C267.69 111.947 307.496 151.753 307.496 200.857V251.699C307.496 255.565 304.362 258.699 300.496 258.699C296.63 258.699 293.496 255.565 293.496 251.699V200.857C293.496 159.485 259.958 125.947 218.586 125.947H207.069C206.7 125.947 206.337 125.918 205.983 125.863Z" stroke="#A0A0A0" stroke-width="0.5" shape-rendering="crispEdges"/>
<path d="M223.869 283.987C223.869 280.121 220.735 276.987 216.869 276.987C213.003 276.987 209.869 280.121 209.869 283.987V287.1C209.869 314.059 231.723 335.913 258.682 335.913C285.033 335.913 306.507 315.034 307.463 288.918H332.078C335.944 288.918 339.078 285.784 339.078 281.918C339.078 278.052 335.944 274.918 332.078 274.918H305.236C274.492 274.918 244.98 262.835 223.063 241.275C220.307 238.564 215.875 238.6 213.164 241.356C210.453 244.112 210.489 248.544 213.245 251.255C234.97 272.626 263.361 285.679 293.473 288.389C292.794 307.019 277.478 321.913 258.682 321.913C239.455 321.913 223.869 306.327 223.869 287.1V283.987Z" stroke="#A0A0A0" stroke-width="0.5" shape-rendering="crispEdges"/>
<path d="M251.869 202.192C251.869 206.984 255.754 210.869 260.546 210.869C265.338 210.869 269.223 206.984 269.223 202.192C269.223 197.4 265.338 193.516 260.546 193.516C255.754 193.516 251.869 197.4 251.869 202.192Z" stroke="#A0A0A0" stroke-width="0.5" shape-rendering="crispEdges"/>
</g>
</g>
<defs>
<filter id="filter0_f_444_4598" x="-166" y="-206.703" width="389.698" height="855.472" filterUnits="userSpaceOnUse" color-interpolation-filters="sRGB">
<feFlood flood-opacity="0" result="BackgroundImageFix"/>
<feBlend mode="normal" in="SourceGraphic" in2="BackgroundImageFix" result="shape"/>
<feGaussianBlur stdDeviation="58" result="effect1_foregroundBlur_444_4598"/>
</filter>
<filter id="filter1_f_444_4598" x="70.4659" y="-109.242" width="454.534" height="444.248" filterUnits="userSpaceOnUse" color-interpolation-filters="sRGB">
<feFlood flood-opacity="0" result="BackgroundImageFix"/>
<feBlend mode="normal" in="SourceGraphic" in2="BackgroundImageFix" result="shape"/>
<feGaussianBlur stdDeviation="86.6717" result="effect1_foregroundBlur_444_4598"/>
</filter>
<filter id="filter2_bd_444_4598" x="65.0957" y="79.6133" width="306.232" height="288.55" filterUnits="userSpaceOnUse" color-interpolation-filters="sRGB">
<feFlood flood-opacity="0" result="BackgroundImageFix"/>
<feGaussianBlur in="BackgroundImageFix" stdDeviation="1"/>
<feComposite in2="SourceAlpha" operator="in" result="effect1_backgroundBlur_444_4598"/>
<feColorMatrix in="SourceAlpha" type="matrix" values="0 0 0 0 0 0 0 0 0 0 0 0 0 0 0 0 0 0 127 0" result="hardAlpha"/>
<feOffset/>
<feGaussianBlur stdDeviation="16"/>
<feComposite in2="hardAlpha" operator="out"/>
<feColorMatrix type="matrix" values="0 0 0 0 0.0313726 0 0 0 0 0.0470588 0 0 0 0 0.0470588 0 0 0 0.5 0"/>
<feBlend mode="normal" in2="effect1_backgroundBlur_444_4598" result="effect2_dropShadow_444_4598"/>
<feBlend mode="normal" in="SourceGraphic" in2="effect2_dropShadow_444_4598" result="shape"/>
</filter>
<linearGradient id="paint0_linear_444_4598" x1="160.656" y1="128.888" x2="160.656" y2="292.723" gradientUnits="userSpaceOnUse">
<stop stop-color="white"/>
<stop offset="1" stop-color="#7C7C7C"/>
</linearGradient>
<linearGradient id="paint1_linear_444_4598" x1="160.656" y1="128.888" x2="160.656" y2="292.723" gradientUnits="userSpaceOnUse">
<stop stop-color="white"/>
<stop offset="1" stop-color="#7C7C7C"/>
</linearGradient>
<linearGradient id="paint2_linear_444_4598" x1="160.656" y1="128.888" x2="160.656" y2="292.723" gradientUnits="userSpaceOnUse">
<stop stop-color="white"/>
<stop offset="1" stop-color="#7C7C7C"/>
</linearGradient>
<clipPath id="clip0_444_4598">
<rect width="390" height="430" fill="white"/>
</clipPath>
</defs>
</svg>
