<svg width="290" height="432" viewBox="0 0 290 432" fill="none" xmlns="http://www.w3.org/2000/svg">
<g clip-path="url(#clip0_225_165541)">
<rect x="1" y="1" width="288" height="430" fill="#03090C"/>
<g filter="url(#filter0_f_225_165541)">
<ellipse cx="103.325" cy="99.3379" rx="103.325" ry="99.3379" transform="matrix(0.978344 0.206986 0.206986 -0.978344 34.083 400.424)" fill="#8BB1D8"/>
</g>
<g filter="url(#filter1_f_225_165541)">
<ellipse cx="62.9152" cy="60.4873" rx="62.9152" ry="60.4873" transform="matrix(0.978344 0.206986 0.206986 -0.978344 -27.4609 408.914)" fill="black"/>
</g>
<g filter="url(#filter2_b_225_165541)">
<circle cx="191.986" cy="191.986" r="191.986" transform="matrix(-0.978344 -0.206986 -0.206986 0.978344 443.438 269.688)" fill="url(#paint0_linear_225_165541)" fill-opacity="0.5"/>
</g>
<g style="mix-blend-mode:lighten">
<path d="M115.906 583.787C114.247 582.775 117.268 574.18 124.644 558.848C132.021 543.517 143.501 521.997 157.926 496.443C172.351 470.889 189.215 442.211 206.824 413.297C224.44 384.37 242.178 356.232 258.248 331.681C274.332 307.139 288.188 287.064 298.421 273.482C308.661 259.885 314.918 253.267 316.577 254.278" stroke="url(#paint1_linear_225_165541)" stroke-width="0.464542"/>
<path d="M91.6728 566.348C84.7817 560.517 83.7629 547.98 88.71 530C93.6708 512.028 104.437 489.226 119.918 463.916C135.4 438.605 155.071 411.667 176.935 385.82C198.806 359.96 222.096 336.096 244.469 316.617C266.855 297.144 287.531 282.735 304.434 274.861C321.337 266.986 333.869 265.911 340.768 271.728" stroke="url(#paint2_linear_225_165541)" stroke-width="0.464542"/>
<path d="M68.0356 542.543C58.1017 530.617 55.2022 513.208 59.6014 492.053C64.0005 470.898 75.5742 446.74 93.1362 422.007C110.698 397.274 133.639 372.837 159.653 351.155C185.668 329.473 213.841 311.318 241.323 298.503C268.819 285.696 294.659 278.668 316.275 278.141C337.883 277.628 354.489 283.618 364.41 295.536" stroke="url(#paint3_linear_225_165541)" stroke-width="0.464542"/>
<path d="M45.177 508.225C35.4947 489.668 33.8837 467.306 40.5145 443.4C47.1454 419.494 61.7838 394.888 82.9383 372.042C104.107 349.203 131.049 328.939 161.071 313.274C191.094 297.609 223.145 287.133 253.982 282.843C284.832 278.561 313.386 280.659 336.777 288.9C360.169 297.141 377.582 311.27 387.264 329.827" stroke="url(#paint4_linear_225_165541)" stroke-width="0.464542"/>
<path d="M27.0806 456.941C22.1822 432.501 26.1098 406.732 38.4683 382.233C50.8269 357.734 71.1767 335.362 97.4835 317.381C123.79 299.4 155.116 286.426 188.317 279.766C221.517 273.106 255.423 273.012 286.628 279.471C317.833 285.931 345.232 298.726 366.073 316.564C386.915 334.403 400.471 356.682 405.37 381.122" stroke="url(#paint5_linear_225_165541)" stroke-width="0.464542"/>
<path d="M26.4395 384.473C31.3159 357.679 44.8779 332.963 65.7678 312.805C86.6438 292.638 114.11 277.739 145.411 269.59C176.704 261.455 210.717 260.356 244.03 266.433C277.351 272.496 308.795 285.516 335.198 304.168C361.601 322.819 382.065 346.443 394.488 372.679C406.912 398.914 410.897 426.82 406.021 453.614" stroke="url(#paint6_linear_225_165541)" stroke-width="0.464542"/>
<path d="M60.1544 305.664C84.7303 271.845 124.734 251.34 171.384 248.682C218.034 246.024 267.491 261.427 308.881 291.489C350.271 321.551 380.216 363.835 392.109 409.005C403.995 454.189 396.881 498.572 372.318 532.4" stroke="url(#paint7_linear_225_165541)" stroke-width="0.464542"/>
<path d="M119.825 251.942C154.146 232.146 197.222 230.753 239.572 248.096C281.923 265.438 320.077 300.058 345.637 344.386C371.205 388.7 382.089 439.069 375.887 484.41C369.685 529.751 346.924 566.348 312.604 586.145" stroke="url(#paint8_linear_225_165541)" stroke-width="0.464542"/>
<path d="M178.315 229.888C212.385 223.061 249.05 236.433 280.254 267.086C311.457 297.738 334.626 343.121 344.685 393.285C354.745 443.449 350.842 494.273 333.864 534.569C316.886 574.865 288.204 601.349 254.134 608.177" stroke="url(#paint9_linear_225_165541)" stroke-width="0.464542"/>
<path d="M224.787 226.322C252.255 227.546 277.701 249.026 295.524 286.023C313.346 323.021 322.07 372.533 319.815 423.641C317.539 474.755 304.458 523.282 283.423 558.562C262.387 593.842 235.147 612.984 207.679 611.76" stroke="url(#paint10_linear_225_165541)" stroke-width="0.464542"/>
<path d="M260.982 231.398C278.858 235.655 291.278 259.524 295.525 297.721C299.771 335.918 295.491 385.342 283.614 435.114C271.745 484.873 253.253 530.919 232.224 563.097C211.196 595.276 189.341 610.963 171.473 606.692" stroke="url(#paint11_linear_225_165541)" stroke-width="0.464542"/>
<path d="M290.619 241.041C298.003 244.13 297.233 265.838 288.501 301.397C279.769 336.955 263.787 383.455 244.058 430.655C224.329 477.855 202.483 521.912 183.299 553.11C164.136 584.302 149.221 600.106 141.837 597.017" stroke="url(#paint12_linear_225_165541)" stroke-width="0.464542"/>
<path d="M150.176 600.299C131.346 593.436 113.062 583.282 97.2816 570.926M220.522 611.901C190.81 612.572 156.019 602.912 123.99 585.126C91.9609 567.34 65.3914 542.908 50.2329 517.338M266.495 605.292C228.711 615.491 175.94 605.307 127.682 578.51C79.4245 551.712 42.8836 512.3 31.568 474.835M304.706 590.454C284.788 600.735 257.758 604.087 227.203 600.065C196.648 596.043 163.973 584.85 133.545 567.953C103.116 551.056 76.3339 529.25 56.7757 505.426C37.2097 481.615 25.7662 456.899 23.9635 434.556M337.088 569.401C317.623 585.043 287.702 592.008 252.179 589.163C216.655 586.318 177.62 573.832 141.424 553.731C105.227 533.631 73.9932 507.097 52.7996 478.446C31.6061 449.796 21.701 420.716 24.689 395.924M363.893 543.175C346.379 564.016 314.992 574.825 275.755 573.529C236.511 572.247 192.149 558.951 151.177 536.2C110.206 513.448 75.468 482.819 53.6344 450.184C31.8008 417.549 24.3834 385.192 32.8092 359.322M384.884 512.69C375.451 529.678 358.397 542.018 335.434 548.514C312.458 555.002 284.397 555.398 254.045 549.647C223.692 543.896 192.133 532.221 162.519 515.776C132.904 499.331 106.311 478.714 85.3839 455.989C64.4567 433.264 49.9455 409.227 43.321 386.302C36.6827 363.369 38.1642 342.363 47.5898 325.389M384.884 512.69C360.048 557.415 318.449 590.449 269.256 604.514C220.063 618.579 167.311 612.523 122.573 587.679C77.8475 562.843 44.814 521.244 30.7411 472.065C16.6758 422.872 22.7323 370.12 47.576 325.381C72.4121 280.656 114.011 247.623 163.19 233.55C212.383 219.485 265.135 225.541 309.874 250.385C354.599 275.221 387.632 316.82 401.705 365.999C415.77 415.191 409.72 467.965 384.884 512.69ZM399.664 478.757C393.226 498.545 377.813 513.62 355.196 522.258C332.587 530.882 303.708 532.719 271.868 527.533C240.02 522.36 206.503 510.374 175.178 492.979C143.839 475.576 115.96 453.469 94.734 429.169C73.5075 404.87 59.7795 379.39 55.1617 355.647C50.5301 331.897 55.193 310.852 68.5804 294.905M407.749 442.153C405.074 464.302 392.243 481.912 370.947 492.691C349.643 503.484 320.849 506.922 288.358 502.584C255.867 498.245 221.182 486.314 188.849 468.36C156.516 450.405 128.053 427.269 107.195 401.983C86.3361 376.696 74.0337 350.437 71.9334 326.648C69.833 302.858 77.9992 282.658 95.3778 268.692M408.51 403.523C410.442 427.453 401.205 447.403 382.203 460.358C363.201 473.314 335.466 478.586 303.166 475.364C270.867 472.143 235.776 460.619 203.18 442.519C170.585 424.419 142.239 400.716 122.444 375.009C102.636 349.294 92.4492 322.964 93.4015 299.985C94.3538 277.006 106.419 258.628 127.74 247.609M400.906 363.244C408.457 388.272 404.102 410.355 388.597 425.596C373.092 440.837 347.441 448.241 316.18 446.499C284.933 444.765 250.099 433.98 217.863 416.079C185.627 398.178 158.071 374.318 140.067 348.703C122.077 323.095 114.802 297.407 119.543 276.189C124.284 254.971 140.735 239.587 165.965 232.78M382.213 320.726C397.1 345.874 399.72 370.06 389.482 388.009C379.244 405.958 356.988 416.222 327.581 416.539C298.166 416.87 263.975 407.236 232.484 389.749C200.993 372.262 174.741 348.331 159.472 323.187C144.203 298.044 141.143 273.739 150.967 255.561C160.791 237.382 182.707 226.82 211.924 226.163M335.171 267.159C356.247 283.665 371.607 303.118 378.437 321.933C385.254 340.74 383.074 357.639 372.274 369.48C361.474 381.321 342.809 387.296 319.718 386.318C296.627 385.339 270.691 377.455 246.721 364.144C222.737 350.826 202.347 332.985 189.31 313.902C176.273 294.818 171.478 275.816 175.82 260.388C180.162 244.961 193.341 234.17 212.923 230.022C232.491 225.866 257.137 228.629 282.29 237.794M361.153 338.46C354.685 350.107 340.405 356.802 321.478 357.071C302.538 357.332 280.499 351.143 260.2 339.87C239.887 328.59 222.982 313.155 213.205 296.947C203.415 280.731 201.555 265.092 208.03 253.431C214.498 241.784 228.778 235.089 247.705 234.82C266.645 234.559 288.684 240.749 308.983 252.021C329.283 263.293 346.201 278.737 355.978 294.945C365.754 311.153 367.62 326.813 361.153 338.46ZM341.305 316.588C336.899 324.523 327.184 329.076 314.303 329.254C301.421 329.431 286.405 325.227 272.591 317.556C258.778 309.885 247.263 299.375 240.612 288.333C233.953 277.305 232.683 266.651 237.089 258.716C241.495 250.781 251.21 246.228 264.091 246.05C276.973 245.873 291.989 250.077 305.803 257.748C319.616 265.419 331.131 275.929 337.782 286.971C344.441 297.999 345.711 308.653 341.305 316.588ZM318.381 297.232C313.737 305.594 298.162 305.81 283.589 297.718C269.017 289.626 260.967 276.291 265.61 267.928C270.254 259.565 285.829 259.349 300.402 267.441C314.975 275.534 323.025 288.869 318.381 297.232Z" stroke="url(#paint13_linear_225_165541)" stroke-width="0.464542"/>
</g>
<g filter="url(#filter3_f_225_165541)">
<circle cx="170.98" cy="170.98" r="170.98" transform="matrix(-0.978344 -0.206986 -0.206986 0.978344 439.539 288.055)" fill="url(#paint14_linear_225_165541)" fill-opacity="0.5"/>
</g>
<g filter="url(#filter4_f_225_165541)">
<circle cx="170.847" cy="170.847" r="170.847" transform="matrix(-0.978344 -0.206986 -0.206986 0.978344 435.297 283.312)" fill="#020405"/>
</g>
<g filter="url(#filter5_f_225_165541)">
<circle cx="179.261" cy="179.261" r="179.261" transform="matrix(-0.978344 -0.206986 -0.206986 0.978344 437.773 271.625)" stroke="url(#paint15_linear_225_165541)" stroke-width="5.5745"/>
</g>
<g filter="url(#filter6_b_225_165541)">
<mask id="path-22-inside-1_225_165541" fill="white">
<path d="M277.339 273.439L277.086 273.606C277.637 274.441 278.189 275.294 278.729 276.137L278.983 275.973C278.442 275.129 277.889 274.277 277.339 273.439ZM275.665 270.923C275.103 270.088 274.531 269.249 273.964 268.426L273.715 268.598C274.282 269.42 274.854 270.259 275.415 271.092L275.665 270.923ZM280.599 278.524L280.343 278.684C280.875 279.536 281.408 280.399 281.927 281.252L282.186 281.095C281.667 280.242 281.133 279.377 280.6 278.525L280.599 278.524ZM272.231 265.949C271.652 265.13 271.06 264.304 270.472 263.493L270.227 263.67C270.815 264.481 271.406 265.306 271.985 266.125L272.232 265.95L272.231 265.949ZM283.741 283.684L283.48 283.837C283.991 284.699 284.503 285.575 285.004 286.441L285.264 286.29C284.763 285.423 284.251 284.546 283.738 283.683L283.741 283.684ZM268.683 261.057C268.084 260.251 267.473 259.44 266.865 258.642L266.626 258.825C267.233 259.621 267.843 260.433 268.44 261.237L268.683 261.057ZM286.761 288.915L286.499 289.063C286.989 289.938 287.481 290.825 287.959 291.702L288.224 291.557C287.745 290.679 287.252 289.79 286.761 288.915V288.915ZM265.02 256.25C264.404 255.46 263.773 254.664 263.146 253.879L262.911 254.068C263.537 254.851 264.167 255.648 264.783 256.436L265.02 256.25V256.25ZM289.655 294.218L289.389 294.359C289.86 295.247 290.329 296.148 290.786 297.033L291.054 296.895C290.598 296.006 290.128 295.107 289.655 294.218ZM261.243 251.532C260.604 250.754 259.954 249.971 259.311 249.208L259.079 249.402C259.721 250.165 260.37 250.945 261.009 251.723L261.242 251.53L261.243 251.532ZM257.35 246.908C256.693 246.147 256.025 245.383 255.36 244.634L255.134 244.834C255.796 245.582 256.466 246.345 257.121 247.104L257.35 246.908V246.908ZM253.341 242.386C252.667 241.644 251.978 240.897 251.293 240.165L251.073 240.371C251.756 241.103 252.445 241.849 253.118 242.59L253.342 242.388L253.341 242.386ZM249.215 237.969C248.518 237.244 247.809 236.515 247.107 235.802L246.892 236.015C247.593 236.726 248.301 237.453 248.996 238.179L249.214 237.97L249.215 237.969ZM244.971 233.666C244.256 232.962 243.525 232.252 242.804 231.559L242.595 231.777C243.317 232.467 244.044 233.177 244.759 233.881L244.971 233.666V233.666ZM240.607 229.485C239.868 228.797 239.117 228.112 238.378 227.444L238.176 227.669C238.914 228.335 239.663 229.021 240.401 229.708L240.605 229.486L240.607 229.485ZM236.12 225.436C235.361 224.772 234.59 224.109 233.829 223.466L233.634 223.696C234.394 224.339 235.164 225.003 235.922 225.665L236.121 225.438L236.12 225.436ZM231.507 221.531C230.728 220.892 229.934 220.256 229.152 219.637L228.965 219.875C229.747 220.493 230.538 221.129 231.316 221.767L231.508 221.533L231.507 221.531ZM226.763 217.784C225.96 217.171 225.145 216.563 224.341 215.974L224.162 216.218C224.965 216.805 225.776 217.414 226.579 218.023L226.763 217.784V217.784ZM221.887 214.209C221.062 213.628 220.225 213.05 219.398 212.495L219.229 212.746C220.054 213.302 220.89 213.878 221.713 214.456L221.887 214.209ZM216.874 210.831C216.025 210.283 215.164 209.741 214.315 209.221L214.157 209.479C215.003 209.998 215.863 210.538 216.711 211.084L216.874 210.831ZM211.718 207.671C210.843 207.162 209.957 206.662 209.087 206.183L208.942 206.447C209.811 206.925 210.693 207.423 211.568 207.93L211.719 207.669L211.718 207.671ZM206.418 204.762C205.517 204.297 204.605 203.844 203.711 203.415L203.581 203.688C204.472 204.116 205.38 204.567 206.279 205.032L206.416 204.763L206.418 204.762ZM200.968 202.144C200.04 201.733 199.104 201.333 198.186 200.96L198.072 201.24C198.988 201.613 199.921 202.009 200.845 202.421L200.968 202.144ZM195.364 199.868C194.409 199.518 193.448 199.184 192.506 198.878L192.412 199.165C193.351 199.471 194.31 199.802 195.26 200.151L195.364 199.868ZM189.613 197.999C188.633 197.722 187.647 197.468 186.683 197.243L186.615 197.536C187.574 197.761 188.554 198.014 189.531 198.288L189.612 197.997L189.613 197.999ZM183.724 196.622C182.721 196.439 181.716 196.279 180.736 196.151L180.696 196.45C181.671 196.577 182.671 196.736 183.669 196.918L183.723 196.621L183.724 196.622ZM177.727 195.845C176.708 195.772 175.692 195.732 174.704 195.723L174.703 196.024C175.684 196.033 176.694 196.073 177.706 196.146L177.728 195.844L177.727 195.845ZM171.68 195.801C170.663 195.863 169.65 195.964 168.67 196.098L168.71 196.398C169.683 196.264 170.688 196.163 171.698 196.101L171.679 195.8L171.68 195.801ZM165.692 196.634C164.7 196.855 163.719 197.119 162.771 197.419L162.863 197.707C163.801 197.409 164.776 197.146 165.758 196.928L165.693 196.633L165.692 196.634ZM159.928 198.467C159.002 198.859 158.084 199.298 157.204 199.774L157.347 200.04C158.219 199.569 159.126 199.133 160.045 198.745L159.928 198.467V198.467ZM154.778 201.593L154.615 201.345C153.777 201.909 152.96 202.519 152.182 203.16L152.374 203.393C153.144 202.757 153.955 202.154 154.781 201.598L154.778 201.593ZM150.149 205.405L149.935 205.191C149.227 205.897 148.542 206.65 147.891 207.43L148.124 207.623C148.767 206.85 149.448 206.104 150.149 205.405V205.405ZM146.306 210.014L146.058 209.842C145.491 210.658 144.944 211.518 144.432 212.401L144.694 212.552C145.201 211.677 145.744 210.824 146.307 210.016L146.306 210.014ZM143.282 215.206L143.011 215.075C142.58 215.965 142.166 216.896 141.784 217.844L142.064 217.957C142.444 217.016 142.853 216.093 143.282 215.206V215.206ZM141.029 220.782L140.742 220.686C140.43 221.626 140.137 222.601 139.87 223.586L140.162 223.665C140.427 222.685 140.718 221.714 141.029 220.782V220.782ZM139.453 226.591L139.159 226.527C138.949 227.495 138.759 228.495 138.593 229.501L138.89 229.551C139.057 228.55 139.246 227.555 139.454 226.592L139.453 226.591ZM138.459 232.531L138.159 232.494C138.038 233.476 137.935 234.49 137.852 235.504L138.153 235.528C138.236 234.519 138.339 233.51 138.459 232.531ZM137.96 238.536L137.66 238.522C137.617 239.462 137.589 240.428 137.576 241.389L137.877 241.394C137.889 240.435 137.918 239.473 137.96 238.536Z"/>
</mask>
<path d="M277.339 273.439L277.086 273.606C277.637 274.441 278.189 275.294 278.729 276.137L278.983 275.973C278.442 275.129 277.889 274.277 277.339 273.439ZM275.665 270.923C275.103 270.088 274.531 269.249 273.964 268.426L273.715 268.598C274.282 269.42 274.854 270.259 275.415 271.092L275.665 270.923ZM280.599 278.524L280.343 278.684C280.875 279.536 281.408 280.399 281.927 281.252L282.186 281.095C281.667 280.242 281.133 279.377 280.6 278.525L280.599 278.524ZM272.231 265.949C271.652 265.13 271.06 264.304 270.472 263.493L270.227 263.67C270.815 264.481 271.406 265.306 271.985 266.125L272.232 265.95L272.231 265.949ZM283.741 283.684L283.48 283.837C283.991 284.699 284.503 285.575 285.004 286.441L285.264 286.29C284.763 285.423 284.251 284.546 283.738 283.683L283.741 283.684ZM268.683 261.057C268.084 260.251 267.473 259.44 266.865 258.642L266.626 258.825C267.233 259.621 267.843 260.433 268.44 261.237L268.683 261.057ZM286.761 288.915L286.499 289.063C286.989 289.938 287.481 290.825 287.959 291.702L288.224 291.557C287.745 290.679 287.252 289.79 286.761 288.915V288.915ZM265.02 256.25C264.404 255.46 263.773 254.664 263.146 253.879L262.911 254.068C263.537 254.851 264.167 255.648 264.783 256.436L265.02 256.25V256.25ZM289.655 294.218L289.389 294.359C289.86 295.247 290.329 296.148 290.786 297.033L291.054 296.895C290.598 296.006 290.128 295.107 289.655 294.218ZM261.243 251.532C260.604 250.754 259.954 249.971 259.311 249.208L259.079 249.402C259.721 250.165 260.37 250.945 261.009 251.723L261.242 251.53L261.243 251.532ZM257.35 246.908C256.693 246.147 256.025 245.383 255.36 244.634L255.134 244.834C255.796 245.582 256.466 246.345 257.121 247.104L257.35 246.908V246.908ZM253.341 242.386C252.667 241.644 251.978 240.897 251.293 240.165L251.073 240.371C251.756 241.103 252.445 241.849 253.118 242.59L253.342 242.388L253.341 242.386ZM249.215 237.969C248.518 237.244 247.809 236.515 247.107 235.802L246.892 236.015C247.593 236.726 248.301 237.453 248.996 238.179L249.214 237.97L249.215 237.969ZM244.971 233.666C244.256 232.962 243.525 232.252 242.804 231.559L242.595 231.777C243.317 232.467 244.044 233.177 244.759 233.881L244.971 233.666V233.666ZM240.607 229.485C239.868 228.797 239.117 228.112 238.378 227.444L238.176 227.669C238.914 228.335 239.663 229.021 240.401 229.708L240.605 229.486L240.607 229.485ZM236.12 225.436C235.361 224.772 234.59 224.109 233.829 223.466L233.634 223.696C234.394 224.339 235.164 225.003 235.922 225.665L236.121 225.438L236.12 225.436ZM231.507 221.531C230.728 220.892 229.934 220.256 229.152 219.637L228.965 219.875C229.747 220.493 230.538 221.129 231.316 221.767L231.508 221.533L231.507 221.531ZM226.763 217.784C225.96 217.171 225.145 216.563 224.341 215.974L224.162 216.218C224.965 216.805 225.776 217.414 226.579 218.023L226.763 217.784V217.784ZM221.887 214.209C221.062 213.628 220.225 213.05 219.398 212.495L219.229 212.746C220.054 213.302 220.89 213.878 221.713 214.456L221.887 214.209ZM216.874 210.831C216.025 210.283 215.164 209.741 214.315 209.221L214.157 209.479C215.003 209.998 215.863 210.538 216.711 211.084L216.874 210.831ZM211.718 207.671C210.843 207.162 209.957 206.662 209.087 206.183L208.942 206.447C209.811 206.925 210.693 207.423 211.568 207.93L211.719 207.669L211.718 207.671ZM206.418 204.762C205.517 204.297 204.605 203.844 203.711 203.415L203.581 203.688C204.472 204.116 205.38 204.567 206.279 205.032L206.416 204.763L206.418 204.762ZM200.968 202.144C200.04 201.733 199.104 201.333 198.186 200.96L198.072 201.24C198.988 201.613 199.921 202.009 200.845 202.421L200.968 202.144ZM195.364 199.868C194.409 199.518 193.448 199.184 192.506 198.878L192.412 199.165C193.351 199.471 194.31 199.802 195.26 200.151L195.364 199.868ZM189.613 197.999C188.633 197.722 187.647 197.468 186.683 197.243L186.615 197.536C187.574 197.761 188.554 198.014 189.531 198.288L189.612 197.997L189.613 197.999ZM183.724 196.622C182.721 196.439 181.716 196.279 180.736 196.151L180.696 196.45C181.671 196.577 182.671 196.736 183.669 196.918L183.723 196.621L183.724 196.622ZM177.727 195.845C176.708 195.772 175.692 195.732 174.704 195.723L174.703 196.024C175.684 196.033 176.694 196.073 177.706 196.146L177.728 195.844L177.727 195.845ZM171.68 195.801C170.663 195.863 169.65 195.964 168.67 196.098L168.71 196.398C169.683 196.264 170.688 196.163 171.698 196.101L171.679 195.8L171.68 195.801ZM165.692 196.634C164.7 196.855 163.719 197.119 162.771 197.419L162.863 197.707C163.801 197.409 164.776 197.146 165.758 196.928L165.693 196.633L165.692 196.634ZM159.928 198.467C159.002 198.859 158.084 199.298 157.204 199.774L157.347 200.04C158.219 199.569 159.126 199.133 160.045 198.745L159.928 198.467V198.467ZM154.778 201.593L154.615 201.345C153.777 201.909 152.96 202.519 152.182 203.16L152.374 203.393C153.144 202.757 153.955 202.154 154.781 201.598L154.778 201.593ZM150.149 205.405L149.935 205.191C149.227 205.897 148.542 206.65 147.891 207.43L148.124 207.623C148.767 206.85 149.448 206.104 150.149 205.405V205.405ZM146.306 210.014L146.058 209.842C145.491 210.658 144.944 211.518 144.432 212.401L144.694 212.552C145.201 211.677 145.744 210.824 146.307 210.016L146.306 210.014ZM143.282 215.206L143.011 215.075C142.58 215.965 142.166 216.896 141.784 217.844L142.064 217.957C142.444 217.016 142.853 216.093 143.282 215.206V215.206ZM141.029 220.782L140.742 220.686C140.43 221.626 140.137 222.601 139.87 223.586L140.162 223.665C140.427 222.685 140.718 221.714 141.029 220.782V220.782ZM139.453 226.591L139.159 226.527C138.949 227.495 138.759 228.495 138.593 229.501L138.89 229.551C139.057 228.55 139.246 227.555 139.454 226.592L139.453 226.591ZM138.459 232.531L138.159 232.494C138.038 233.476 137.935 234.49 137.852 235.504L138.153 235.528C138.236 234.519 138.339 233.51 138.459 232.531ZM137.96 238.536L137.66 238.522C137.617 239.462 137.589 240.428 137.576 241.389L137.877 241.394C137.889 240.435 137.918 239.473 137.96 238.536Z" stroke="#6FB7A0" stroke-width="2.95532" mask="url(#path-22-inside-1_225_165541)"/>
</g>
<g filter="url(#filter7_b_225_165541)">
<mask id="path-23-inside-2_225_165541" fill="white">
<path d="M290.434 230.007C290.434 230.006 290.434 230.006 290.433 230.006C201.923 263.888 142.229 315.573 113.013 383.62C102.64 407.779 96.1578 434.063 93.7451 461.737C91.8146 483.875 92.4716 506.951 95.6955 530.321C100.933 568.29 111.359 594.805 112.402 597.39C112.452 597.514 112.585 597.554 112.709 597.502V597.502C112.833 597.451 112.9 597.328 112.85 597.203C111.807 594.616 101.402 568.148 96.1732 530.24C91.1179 493.576 90.0132 438.413 113.459 383.808C142.596 315.952 202.111 264.391 290.355 230.556C290.493 230.503 290.564 230.347 290.511 230.208L290.434 230.007C290.434 230.007 290.434 230.007 290.434 230.007V230.007Z"/>
</mask>
<path d="M113.013 383.62L112.159 383.253L112.159 383.253L113.013 383.62ZM93.7451 461.737L94.6706 461.817L94.6706 461.817L93.7451 461.737ZM95.6955 530.321L96.6159 530.194L96.6159 530.194L95.6955 530.321ZM96.1732 530.24L95.2528 530.367L95.2528 530.367L96.1732 530.24ZM113.459 383.808L112.606 383.442L112.606 383.442L113.459 383.808ZM290.355 230.556L290.687 231.424L290.355 230.556ZM290.511 230.208L289.644 230.542L290.511 230.208ZM290.434 230.007L291.301 229.674L290.434 230.007ZM112.402 597.39L111.54 597.737L112.402 597.39ZM112.709 597.502L112.353 596.644L112.709 597.502ZM112.85 597.203L111.988 597.55L112.85 597.203ZM290.433 230.006L290.101 229.138L290.433 230.006ZM290.766 230.874C202.421 264.692 142.958 316.231 113.866 383.986L112.159 383.253C141.5 314.916 201.425 263.083 290.101 229.138L290.766 230.874ZM113.866 383.986C103.535 408.05 97.0752 434.236 94.6706 461.817L92.8195 461.656C95.2403 433.889 101.745 407.509 112.159 383.253L113.866 383.986ZM94.6706 461.817C92.7465 483.883 93.4009 506.888 96.6159 530.194L94.7752 530.448C91.5423 507.013 90.8826 483.868 92.8195 461.656L94.6706 461.817ZM96.6159 530.194C101.839 568.063 112.238 594.501 113.263 597.042L111.54 597.737C110.48 595.11 100.026 568.517 94.7752 530.448L96.6159 530.194ZM111.988 597.55C110.928 594.921 100.495 568.375 95.2528 530.367L97.0935 530.113C102.308 567.921 112.686 594.312 113.712 596.856L111.988 597.55ZM95.2528 530.367C90.1849 493.611 89.0679 438.259 112.606 383.442L114.313 384.175C90.9584 438.566 92.051 493.541 97.0935 530.113L95.2528 530.367ZM112.606 383.442C141.867 315.295 201.613 263.587 290.022 229.689L290.687 231.424C202.609 265.195 143.325 316.609 114.313 384.175L112.606 383.442ZM289.644 230.542L289.566 230.341L291.301 229.674L291.378 229.875L289.644 230.542ZM290.022 229.689C289.689 229.816 289.51 230.193 289.644 230.542L291.378 229.875C291.619 230.5 291.298 231.19 290.687 231.424L290.022 229.689ZM289.566 230.341C289.41 229.933 289.558 229.471 289.922 229.231L290.945 230.782C291.309 230.542 291.457 230.081 291.301 229.674L289.566 230.341ZM113.263 597.042C113.187 596.853 113.028 596.702 112.831 596.634C112.647 596.57 112.476 596.593 112.353 596.644L113.065 598.361C112.573 598.565 111.825 598.443 111.54 597.737L113.263 597.042ZM112.353 596.644C112.23 596.696 112.095 596.8 112.011 596.971C111.922 597.152 111.914 597.366 111.988 597.55L113.712 596.856C113.99 597.546 113.561 598.155 113.065 598.361L112.353 596.644ZM290.101 229.138C290.603 228.946 291.059 229.219 291.246 229.555C291.438 229.901 291.422 230.468 290.945 230.782L289.922 229.231C289.446 229.545 289.429 230.112 289.622 230.458C289.808 230.793 290.264 231.066 290.766 230.874L290.101 229.138Z" fill="url(#paint16_linear_225_165541)" mask="url(#path-23-inside-2_225_165541)"/>
</g>
<g filter="url(#filter8_b_225_165541)">
<path d="M463.24 434.348C463.24 434.348 463.239 434.348 463.239 434.347C463.218 434.363 463.195 434.377 463.171 434.39C463.172 434.391 463.173 434.392 463.173 434.393C463.197 434.38 463.219 434.365 463.24 434.348ZM423.822 561.683C423.823 561.683 423.823 561.683 423.823 561.683L423.822 561.683ZM130.843 525.584C130.843 525.584 130.842 525.583 130.842 525.583L130.843 525.584Z" stroke="url(#paint17_linear_225_165541)" stroke-width="0.960585"/>
</g>
<g filter="url(#filter9_f_225_165541)">
<path d="M462.953 433.966C455.894 424.711 447.268 415.514 437.138 406.443C418.384 389.657 395.412 374.155 368.855 360.371C341.364 346.101 311.219 334.3 279.251 325.3C247.283 316.3 215.41 310.638 184.514 308.47C154.664 306.375 126.978 307.615 102.223 312.151C77.4525 316.69 56.8624 324.303 41.0193 334.779C24.5938 345.644 14.0196 359.123 9.59228 374.85C2.83761 398.847 11.1094 426.025 33.5152 453.462C44.2949 466.659 58.0947 479.583 74.5322 491.877C91.1154 504.278 110.072 515.807 130.89 526.144L131.149 525.622C89.3866 504.88 55.7825 479.802 33.9689 453.092C11.691 425.817 3.45077 398.814 10.1533 375.009C18.8422 344.144 51.5773 322.026 102.325 312.726C153.144 303.413 215.919 308.08 279.089 325.864C342.258 343.647 398.246 372.419 436.743 406.878C475.185 441.286 491.571 477.233 482.882 508.099C476.303 531.471 455.771 550.002 423.514 561.686L423.71 562.235C456.153 550.483 476.808 531.817 483.441 508.256C487.868 492.528 485.883 475.513 477.535 457.676C473.835 449.764 468.957 441.842 462.946 433.962L462.953 433.966Z" stroke="url(#paint18_linear_225_165541)" stroke-width="1.48" stroke-linejoin="bevel"/>
</g>
<circle cx="30.4958" cy="191.855" r="51.2734" fill="url(#paint19_linear_225_165541)" stroke="url(#paint20_linear_225_165541)" stroke-width="0.929084"/>
<g filter="url(#filter10_f_225_165541)">
<circle cx="28.3892" cy="190.17" r="49.561" stroke="url(#paint21_linear_225_165541)" stroke-width="4.64542"/>
</g>
<g filter="url(#filter11_f_225_165541)">
<ellipse cx="155.318" cy="15.0039" rx="191.584" ry="119.051" fill="#000507"/>
</g>
</g>
<rect x="0.5" y="0.5" width="289" height="431" stroke="url(#paint22_linear_225_165541)"/>
<defs>
<filter id="filter0_f_225_165541" x="-120.789" y="51.7484" width="553.042" height="545.751" filterUnits="userSpaceOnUse" color-interpolation-filters="sRGB">
<feFlood flood-opacity="0" result="BackgroundImageFix"/>
<feBlend mode="normal" in="SourceGraphic" in2="BackgroundImageFix" result="shape"/>
<feGaussianBlur stdDeviation="86.6717" result="effect1_foregroundBlur_225_165541"/>
</filter>
<filter id="filter1_f_225_165541" x="-294.358" y="24.0078" width="681.941" height="677.502" filterUnits="userSpaceOnUse" color-interpolation-filters="sRGB">
<feFlood flood-opacity="0" result="BackgroundImageFix"/>
<feBlend mode="normal" in="SourceGraphic" in2="BackgroundImageFix" result="shape"/>
<feGaussianBlur stdDeviation="139.072" result="effect1_foregroundBlur_225_165541"/>
</filter>
<filter id="filter2_b_225_165541" x="14.9868" y="216.892" width="401.77" height="401.771" filterUnits="userSpaceOnUse" color-interpolation-filters="sRGB">
<feFlood flood-opacity="0" result="BackgroundImageFix"/>
<feGaussianBlur in="BackgroundImageFix" stdDeviation="4.42994"/>
<feComposite in2="SourceAlpha" operator="in" result="effect1_backgroundBlur_225_165541"/>
<feBlend mode="normal" in="SourceGraphic" in2="effect1_backgroundBlur_225_165541" result="shape"/>
</filter>
<filter id="filter3_f_225_165541" x="12.397" y="195.466" width="448.949" height="448.95" filterUnits="userSpaceOnUse" color-interpolation-filters="sRGB">
<feFlood flood-opacity="0" result="BackgroundImageFix"/>
<feBlend mode="normal" in="SourceGraphic" in2="BackgroundImageFix" result="shape"/>
<feGaussianBlur stdDeviation="26.7297" result="effect1_foregroundBlur_225_165541"/>
</filter>
<filter id="filter4_f_225_165541" x="-13.8532" y="168.457" width="493.28" height="493.279" filterUnits="userSpaceOnUse" color-interpolation-filters="sRGB">
<feFlood flood-opacity="0" result="BackgroundImageFix"/>
<feBlend mode="normal" in="SourceGraphic" in2="BackgroundImageFix" result="shape"/>
<feGaussianBlur stdDeviation="37.8787" result="effect1_foregroundBlur_225_165541"/>
</filter>
<filter id="filter5_f_225_165541" x="23.6943" y="208.304" width="403.192" height="403.191" filterUnits="userSpaceOnUse" color-interpolation-filters="sRGB">
<feFlood flood-opacity="0" result="BackgroundImageFix"/>
<feBlend mode="normal" in="SourceGraphic" in2="BackgroundImageFix" result="shape"/>
<feGaussianBlur stdDeviation="9.75538" result="effect1_foregroundBlur_225_165541"/>
</filter>
<filter id="filter6_b_225_165541" x="75.5135" y="133.661" width="277.603" height="225.434" filterUnits="userSpaceOnUse" color-interpolation-filters="sRGB">
<feFlood flood-opacity="0" result="BackgroundImageFix"/>
<feGaussianBlur in="BackgroundImageFix" stdDeviation="31.0308"/>
<feComposite in2="SourceAlpha" operator="in" result="effect1_backgroundBlur_225_165541"/>
<feBlend mode="normal" in="SourceGraphic" in2="effect1_backgroundBlur_225_165541" result="shape"/>
</filter>
<filter id="filter7_b_225_165541" x="30.6024" y="167.944" width="321.988" height="491.641" filterUnits="userSpaceOnUse" color-interpolation-filters="sRGB">
<feFlood flood-opacity="0" result="BackgroundImageFix"/>
<feGaussianBlur in="BackgroundImageFix" stdDeviation="31.0308"/>
<feComposite in2="SourceAlpha" operator="in" result="effect1_backgroundBlur_225_165541"/>
<feBlend mode="normal" in="SourceGraphic" in2="effect1_backgroundBlur_225_165541" result="shape"/>
</filter>
<filter id="filter8_b_225_165541" x="-56.8613" y="243.316" width="606.763" height="383.002" filterUnits="userSpaceOnUse" color-interpolation-filters="sRGB">
<feFlood flood-opacity="0" result="BackgroundImageFix"/>
<feGaussianBlur in="BackgroundImageFix" stdDeviation="32.083"/>
<feComposite in2="SourceAlpha" operator="in" result="effect1_backgroundBlur_225_165541"/>
<feBlend mode="normal" in="SourceGraphic" in2="effect1_backgroundBlur_225_165541" result="shape"/>
</filter>
<filter id="filter9_f_225_165541" x="3.6827" y="303.86" width="485.675" height="261.951" filterUnits="userSpaceOnUse" color-interpolation-filters="sRGB">
<feFlood flood-opacity="0" result="BackgroundImageFix"/>
<feBlend mode="normal" in="SourceGraphic" in2="BackgroundImageFix" result="shape"/>
<feGaussianBlur stdDeviation="1.44088" result="effect1_foregroundBlur_225_165541"/>
</filter>
<filter id="filter10_f_225_165541" x="-29.0686" y="132.713" width="114.916" height="114.917" filterUnits="userSpaceOnUse" color-interpolation-filters="sRGB">
<feFlood flood-opacity="0" result="BackgroundImageFix"/>
<feBlend mode="normal" in="SourceGraphic" in2="BackgroundImageFix" result="shape"/>
<feGaussianBlur stdDeviation="2.78725" result="effect1_foregroundBlur_225_165541"/>
</filter>
<filter id="filter11_f_225_165541" x="-152.266" y="-220.047" width="615.168" height="470.102" filterUnits="userSpaceOnUse" color-interpolation-filters="sRGB">
<feFlood flood-opacity="0" result="BackgroundImageFix"/>
<feBlend mode="normal" in="SourceGraphic" in2="BackgroundImageFix" result="shape"/>
<feGaussianBlur stdDeviation="58" result="effect1_foregroundBlur_225_165541"/>
</filter>
<linearGradient id="paint0_linear_225_165541" x1="119.46" y1="7.39073" x2="212.081" y2="-52.5378" gradientUnits="userSpaceOnUse">
<stop stop-color="#020405"/>
<stop offset="1" stop-color="#020405"/>
</linearGradient>
<linearGradient id="paint1_linear_225_165541" x1="307.316" y1="249.135" x2="120.168" y2="586.153" gradientUnits="userSpaceOnUse">
<stop stop-color="#00FFA7"/>
<stop offset="1" stop-color="#5B5B5B" stop-opacity="0"/>
</linearGradient>
<linearGradient id="paint2_linear_225_165541" x1="297.103" y1="247.184" x2="113.224" y2="578.315" gradientUnits="userSpaceOnUse">
<stop stop-color="#00FFA7"/>
<stop offset="1" stop-color="#5B5B5B" stop-opacity="0"/>
</linearGradient>
<linearGradient id="paint3_linear_225_165541" x1="288.198" y1="250.007" x2="112.149" y2="567.039" gradientUnits="userSpaceOnUse">
<stop stop-color="#00FFA7"/>
<stop offset="1" stop-color="#5B5B5B" stop-opacity="0"/>
</linearGradient>
<linearGradient id="paint4_linear_225_165541" x1="283.443" y1="257.438" x2="120.846" y2="550.244" gradientUnits="userSpaceOnUse">
<stop stop-color="#00FFA7"/>
<stop offset="1" stop-color="#5B5B5B" stop-opacity="0"/>
</linearGradient>
<linearGradient id="paint5_linear_225_165541" x1="284.925" y1="268.101" x2="144.006" y2="521.87" gradientUnits="userSpaceOnUse">
<stop stop-color="#00FFA7"/>
<stop offset="1" stop-color="#5B5B5B" stop-opacity="0"/>
</linearGradient>
<linearGradient id="paint6_linear_225_165541" x1="290.716" y1="278.045" x2="183.258" y2="471.555" gradientUnits="userSpaceOnUse">
<stop stop-color="#00FFA7"/>
<stop offset="1" stop-color="#5B5B5B" stop-opacity="0"/>
</linearGradient>
<linearGradient id="paint7_linear_225_165541" x1="293.458" y1="280.944" x2="205.32" y2="439.664" gradientUnits="userSpaceOnUse">
<stop stop-color="#00FFA7"/>
<stop offset="1" stop-color="#5B5B5B" stop-opacity="0"/>
</linearGradient>
<linearGradient id="paint8_linear_225_165541" x1="302.33" y1="281.475" x2="175.442" y2="509.978" gradientUnits="userSpaceOnUse">
<stop stop-color="#00FFA7"/>
<stop offset="1" stop-color="#5B5B5B" stop-opacity="0"/>
</linearGradient>
<linearGradient id="paint9_linear_225_165541" x1="313.895" y1="279.155" x2="160.165" y2="555.995" gradientUnits="userSpaceOnUse">
<stop stop-color="#00FFA7"/>
<stop offset="1" stop-color="#5B5B5B" stop-opacity="0"/>
</linearGradient>
<linearGradient id="paint10_linear_225_165541" x1="320.695" y1="272.617" x2="150.118" y2="579.796" gradientUnits="userSpaceOnUse">
<stop stop-color="#00FFA7"/>
<stop offset="1" stop-color="#5B5B5B" stop-opacity="0"/>
</linearGradient>
<linearGradient id="paint11_linear_225_165541" x1="321.12" y1="263.72" x2="140.284" y2="589.373" gradientUnits="userSpaceOnUse">
<stop stop-color="#00FFA7"/>
<stop offset="1" stop-color="#5B5B5B" stop-opacity="0"/>
</linearGradient>
<linearGradient id="paint12_linear_225_165541" x1="316.069" y1="255.14" x2="129.903" y2="590.389" gradientUnits="userSpaceOnUse">
<stop stop-color="#00FFA7"/>
<stop offset="1" stop-color="#5B5B5B" stop-opacity="0"/>
</linearGradient>
<linearGradient id="paint13_linear_225_165541" x1="309.88" y1="250.389" x2="122.579" y2="587.683" gradientUnits="userSpaceOnUse">
<stop stop-color="#00FFA7"/>
<stop offset="1" stop-color="#5B5B5B" stop-opacity="0"/>
</linearGradient>
<linearGradient id="paint14_linear_225_165541" x1="106.39" y1="6.58209" x2="188.877" y2="-46.7895" gradientUnits="userSpaceOnUse">
<stop stop-color="#303030"/>
<stop offset="1" stop-color="#04090D"/>
</linearGradient>
<linearGradient id="paint15_linear_225_165541" x1="206.668" y1="8.85581" x2="312.57" y2="161.724" gradientUnits="userSpaceOnUse">
<stop stop-opacity="0"/>
<stop offset="0.515625" stop-color="#A5A5A5"/>
<stop offset="1" stop-opacity="0"/>
</linearGradient>
<linearGradient id="paint16_linear_225_165541" x1="114.778" y1="372.975" x2="243.139" y2="371.747" gradientUnits="userSpaceOnUse">
<stop stop-color="#3DCB8C"/>
<stop offset="0.463542" stop-color="#8CA499"/>
<stop offset="1" stop-color="#3C3C41" stop-opacity="0"/>
</linearGradient>
<linearGradient id="paint17_linear_225_165541" x1="13.0113" y1="365.118" x2="366.561" y2="293.996" gradientUnits="userSpaceOnUse">
<stop stop-color="#262626"/>
<stop offset="0.0001" stop-color="#D2D2D2"/>
<stop offset="1" stop-color="#3C3C41" stop-opacity="0"/>
</linearGradient>
<linearGradient id="paint18_linear_225_165541" x1="49.563" y1="421.562" x2="260" y2="506.151" gradientUnits="userSpaceOnUse">
<stop stop-color="#3ECF8E"/>
<stop offset="1" stop-color="#4B4B4B" stop-opacity="0"/>
</linearGradient>
<linearGradient id="paint19_linear_225_165541" x1="76.5889" y1="216.406" x2="-2.18702" y2="265.611" gradientUnits="userSpaceOnUse">
<stop stop-color="#020405"/>
<stop offset="1" stop-color="#010608"/>
</linearGradient>
<linearGradient id="paint20_linear_225_165541" x1="81.1543" y1="206.663" x2="30.4958" y2="243.593" gradientUnits="userSpaceOnUse">
<stop stop-color="#5E5E5E" stop-opacity="0"/>
<stop offset="0.276042" stop-color="#73DBBA"/>
<stop offset="1" stop-opacity="0"/>
</linearGradient>
<linearGradient id="paint21_linear_225_165541" x1="83.2034" y1="207.296" x2="50.3704" y2="233.767" gradientUnits="userSpaceOnUse">
<stop stop-opacity="0"/>
<stop offset="0.515525" stop-color="#A8A2A7" stop-opacity="0.969697"/>
<stop offset="0.515625" stop-color="#ADA7AC"/>
<stop offset="1" stop-opacity="0"/>
</linearGradient>
<linearGradient id="paint22_linear_225_165541" x1="145" y1="1" x2="145" y2="431" gradientUnits="userSpaceOnUse">
<stop stop-color="#061517"/>
<stop offset="1" stop-color="#061517" stop-opacity="0.49"/>
</linearGradient>
<clipPath id="clip0_225_165541">
<rect x="1" y="1" width="288" height="430" fill="white"/>
</clipPath>
</defs>
</svg>
