<svg xmlns="http://www.w3.org/2000/svg" width="330" height="430" fill="none" viewBox="0 0 330 430"><g clip-path="url(#a)"><mask id="c" width="501" height="307" x="-72" y="194" maskUnits="userSpaceOnUse" style="mask-type:alpha"><path fill="url(#b)" d="M-71.32 194.31H428.9v306.136H-71.32z"/></mask><g mask="url(#c)"><path stroke="#707070" stroke-width=".63" d="M56.936 615.864c-1.862-1.135 1.53-10.785 9.81-27.996 8.281-17.212 21.17-41.37 37.364-70.058s35.125-60.882 54.893-93.342c19.777-32.475 39.69-64.063 57.731-91.624 18.057-27.552 33.611-50.089 45.099-65.337 11.496-15.264 18.52-22.693 20.383-21.558M29.738 596.282c-7.736-6.546-8.88-20.62-3.326-40.805 5.569-20.176 17.655-45.773 35.035-74.188s39.463-58.656 64.008-87.672c24.554-29.032 50.7-55.822 75.816-77.69 25.131-21.86 48.343-38.036 67.319-46.876 18.976-8.841 33.044-10.048 40.789-3.518M3.204 569.554c-11.152-13.388-14.407-32.932-9.469-56.681 4.94-23.749 17.932-50.87 37.648-78.636 19.715-27.766 45.469-55.199 74.674-79.54s60.832-44.722 91.684-59.108c30.868-14.378 59.877-22.268 84.143-22.86 24.258-.576 42.901 6.149 54.038 19.529m-358.38 238.786c-10.87-20.832-12.678-45.936-5.234-72.774s23.877-54.46 47.626-80.108c23.764-25.639 54.01-48.389 87.714-65.975s69.686-29.347 104.304-34.162c34.634-4.807 66.689-2.452 92.949 6.799 26.259 9.252 45.808 25.114 56.677 45.946M-42.774 473.456c-5.5-27.437-1.09-56.366 12.784-83.869s36.72-52.619 66.252-72.805c29.533-20.186 64.7-34.751 101.972-42.228 37.272-7.476 75.335-7.582 110.367-.33s65.79 21.615 89.187 41.641c23.398 20.026 38.616 45.037 44.115 72.475m-425.396 3.768c5.475-30.08 20.7-57.826 44.151-80.457 23.436-22.639 54.27-39.366 89.41-48.514 35.13-9.132 73.314-10.366 110.712-3.544 37.407 6.807 72.707 21.423 102.348 42.362 29.64 20.939 52.614 47.459 66.561 76.912s18.421 60.781 12.947 90.861M-5.642 303.625c27.59-37.967 72.499-60.986 124.869-63.97s107.893 14.308 154.359 48.056c46.465 33.748 80.082 81.218 93.434 131.927 13.343 50.725 5.356 100.551-22.218 138.526M61.343 243.313c38.53-22.224 86.888-23.788 134.432-4.318s90.377 58.335 119.071 108.098c28.703 49.748 40.922 106.294 33.959 157.195s-32.514 91.986-71.043 114.21M127.004 218.562c38.248-7.665 79.409 7.348 114.439 41.759s61.04 85.359 72.333 141.675c11.293 56.315 6.911 113.372-12.149 158.61-19.06 45.237-51.259 74.969-89.506 82.634m-32.944-428.682c30.836 1.374 59.403 25.487 79.411 67.022 20.007 41.534 29.801 97.118 27.27 154.493-2.555 57.382-17.24 111.86-40.855 151.466s-54.196 61.096-85.033 59.721m59.834-427.002c20.068 4.779 34.011 31.575 38.778 74.457s-.038 98.365-13.371 154.241c-13.325 55.861-34.084 107.553-57.692 143.678s-48.142 53.735-68.201 48.94m133.761-410.486c8.29 3.468 7.425 27.838-2.378 67.757s-27.744 92.122-49.892 145.11-46.674 102.446-68.211 137.471c-21.512 35.017-38.256 52.759-46.546 49.29m9.361 3.681c-21.138-7.705-41.665-19.104-59.38-32.975m138.353 45.999c-33.356.753-72.413-10.091-108.37-30.058s-65.784-47.395-82.801-76.1m242.782 98.739c-42.418 11.45-101.66.017-155.836-30.067-54.175-30.084-95.197-74.328-107.9-116.387m306.632 129.797c-22.361 11.541-52.705 15.304-87.007 10.789s-70.984-17.081-105.144-36.05S12.516 554.636-9.44 527.89c-21.966-26.731-34.813-54.478-36.836-79.56m351.522 151.38c-21.852 17.56-55.442 25.378-95.321 22.185-39.88-3.194-83.702-17.211-124.337-39.776s-75.7-52.354-99.492-84.517c-23.792-32.164-34.912-64.811-31.558-92.642m380.8 165.307c-19.661 23.398-54.898 35.532-98.946 34.077-44.056-1.439-93.859-16.365-139.855-41.907s-84.993-59.926-109.504-96.563c-24.51-36.637-32.838-72.962-23.379-102.005m395.249 172.176c-10.59 19.07-29.735 32.924-55.513 40.216-25.794 7.284-57.296 7.729-91.371 1.272s-69.504-19.563-102.749-38.024c-33.246-18.462-63.1-41.607-86.594-67.119-23.493-25.511-39.784-52.496-47.221-78.233-7.452-25.745-5.79-49.327 4.792-68.382m378.656 210.27a216.6 216.6 0 0 1-129.807 103.083 216.54 216.54 0 0 1-164.671-18.899A216.65 216.65 0 0 1-38.668 490.438a216.54 216.54 0 0 1 18.9-164.672 216.65 216.65 0 0 1 129.791-103.092 216.54 216.54 0 0 1 164.671 18.899 216.65 216.65 0 0 1 103.093 129.792 216.6 216.6 0 0 1-18.884 164.68Zm16.593-38.094c-7.228 22.214-24.531 39.138-49.921 48.835-25.382 9.681-57.803 11.744-93.547 5.921-35.753-5.807-73.38-19.263-108.547-38.791-35.182-19.537-66.479-44.355-90.308-71.634s-39.241-55.884-44.425-82.538c-5.2-26.663.035-50.289 15.064-68.192m380.76 165.306c-3.003 24.864-17.407 44.635-41.315 56.735-23.917 12.117-56.241 15.977-92.716 11.106-36.476-4.871-75.414-18.264-111.712-38.421-36.298-20.156-68.251-46.129-91.668-74.517-23.416-28.387-37.227-57.866-39.585-84.573s6.81-49.384 26.32-65.063M385.426 413.49c2.168 26.865-8.201 49.261-29.534 63.805-21.332 14.545-52.468 20.463-88.729 16.847s-75.654-16.554-112.246-36.873c-36.592-20.32-68.415-46.93-90.637-75.789-22.238-28.869-33.673-58.427-32.604-84.224s14.614-46.429 38.55-58.798M376.89 368.272c8.476 28.098 3.588 52.888-13.818 69.998s-46.203 25.422-81.298 23.467c-35.079-1.947-74.184-14.055-110.373-34.151s-67.124-46.882-87.336-75.638c-20.196-28.748-28.363-57.586-23.04-81.406 5.322-23.82 23.79-41.091 52.113-48.733m242.767 98.731c16.712 28.232 19.654 55.384 8.16 75.534s-36.479 31.673-69.492 32.029c-33.022.371-71.405-10.444-106.758-30.076s-64.824-46.496-81.965-74.723-20.577-55.512-9.548-75.92c11.028-20.408 35.632-32.265 68.431-33.003m138.36 46.023c23.661 18.531 40.904 40.369 48.573 61.491 7.653 21.114 5.205 40.085-6.919 53.378-12.125 13.293-33.079 20.001-59.001 18.902-25.923-1.098-55.039-9.949-81.949-24.892-26.925-14.952-49.815-34.98-64.451-56.404s-20.018-42.756-15.144-60.076c4.875-17.319 19.669-29.433 41.653-34.09 21.968-4.665 49.636-1.563 77.873 8.725m88.534 113.011c-7.261 13.076-23.292 20.592-44.54 20.893-21.263.294-46.004-6.655-68.793-19.31-22.804-12.663-41.781-29.992-52.757-48.187-10.991-18.204-13.079-35.761-5.81-48.852 7.261-13.075 23.292-20.591 44.54-20.893 21.263-.293 46.004 6.655 68.793 19.31 22.788 12.655 41.781 29.992 52.757 48.187 10.976 18.196 13.07 35.777 5.81 48.852Zm-22.282-24.554c-4.947 8.907-15.852 14.02-30.314 14.219s-31.318-4.521-46.826-13.132-28.434-20.411-35.901-32.807c-7.475-12.381-8.901-24.341-3.955-33.249 4.947-8.908 15.853-14.02 30.314-14.219s31.319 4.521 46.827 13.132 28.433 20.411 35.9 32.807c7.476 12.381 8.902 24.341 3.955 33.249Zm-25.735-21.73c-5.214 9.388-22.699 9.631-39.058.546-16.36-9.085-25.397-24.055-20.184-33.443 5.214-9.388 22.699-9.631 39.058-.547 16.36 9.085 25.397 24.056 20.184 33.444Z" opacity=".6"/><path fill="url(#d)" fill-opacity=".08" stroke="url(#e)" stroke-width=".523" d="M96.084 155.412c33.737 11.315 59.645 37.817 73.285 58.961-119.49.257-216.3 97.099-216.507 216.602-24.307-9.556-42.152-23.158-53.506-39.737-11.408-16.659-16.275-36.341-14.544-57.988 3.464-43.304 33.338-94.477 90.097-144.929 45.362-40.322 87.248-44.287 121.175-32.909Z"/></g><path stroke="url(#f)" stroke-width=".523" d="M163.815 289.173c5.145-1.641 18.709-5.589 31.803-8.251"/><path stroke="url(#g)" stroke-width=".63" d="M163.743 289.032c-18.206 5.187-43.077 15.647-62.293 26.53-2.857-5.626-8.859-19.013-10.005-27.548" opacity=".6"/><path stroke="url(#h)" stroke-width=".63" d="M131.988 300.584c-22.779 8.879-64.751 33.864-85.917 52.666" opacity=".6"/><path stroke="url(#i)" stroke-width=".63" d="M163.45 288.852c-2.898-5.107-8.435-18.062-7.4-29.032 1.035-10.971 5.382-16.714 6.676-18.319-18.785-2.95-59.563-4.554-91.751 7.141"/><path stroke="url(#j)" stroke-width=".63" d="M107 416.714c6.591-10.241 29.106-35.532 39.594-47.111-10.111-8.043-21.594-20.919-26.166-26.424 16.488-13.157 43.654-29.649 55.176-36.25-3.036-3.629-9.579-12.312-11.967-17.624"/><path stroke="url(#k)" stroke-width=".63" d="M208.664 423.039c7.109-12.953 20.755-54.004 27.116-72.756-28.112-11.66-48.13-29.228-60.184-43.417"/><path stroke="url(#l)" stroke-width=".63" d="M285.525 394.502c-25.576-1.417-50.611-10.222-59.931-14.446 2.452-6.734 7.929-22.109 10.217-29.736"/><path stroke="url(#m)" stroke-width=".582" d="M163.741 225.905v62.79"/><ellipse cx="163.449" cy="288.951" fill="#171717" rx="3" ry="2.987" transform="rotate(-90 163.449 288.951)"/><ellipse cx="285.522" cy="394.501" fill="#171717" rx="3" ry="2.987" transform="rotate(-90 285.522 394.501)"/><ellipse cx="46.072" cy="353.25" fill="#171717" rx="3" ry="2.987" transform="rotate(-90 46.072 353.25)"/></g><defs><linearGradient id="b" x1="130.011" x2="290.2" y1="159.677" y2="369.686" gradientUnits="userSpaceOnUse"><stop stop-color="#fff"/><stop offset="1" stop-color="#fff" stop-opacity="0"/></linearGradient><linearGradient id="f" x1="161.952" x2="200.942" y1="287.31" y2="282.386" gradientUnits="userSpaceOnUse"><stop stop-color="#fff"/><stop offset="1" stop-color="#fff" stop-opacity="0"/></linearGradient><linearGradient id="g" x1="176.291" x2="146.084" y1="291.992" y2="317.019" gradientUnits="userSpaceOnUse"><stop stop-color="#171717"/><stop offset="1" stop-color="#fff" stop-opacity="0"/></linearGradient><linearGradient id="h" x1="142.094" x2="49.005" y1="298.08" y2="374.208" gradientUnits="userSpaceOnUse"><stop stop-color="#171717"/><stop offset="1" stop-color="#fff" stop-opacity="0"/></linearGradient><linearGradient id="i" x1="163.45" x2="151.98" y1="286.878" y2="260.371" gradientUnits="userSpaceOnUse"><stop stop-color="#171717"/><stop offset="1" stop-color="#fff" stop-opacity="0"/></linearGradient><linearGradient id="j" x1="163.939" x2="120.03" y1="317.43" y2="406.478" gradientUnits="userSpaceOnUse"><stop stop-color="#171717"/><stop offset="1" stop-color="#fff" stop-opacity="0"/></linearGradient><linearGradient id="k" x1="211.598" x2="210.244" y1="358.54" y2="423.039" gradientUnits="userSpaceOnUse"><stop stop-color="#171717"/><stop offset="1" stop-color="#fff" stop-opacity="0"/></linearGradient><linearGradient id="l" x1="252.624" x2="289.44" y1="386.02" y2="398.696" gradientUnits="userSpaceOnUse"><stop stop-color="#171717"/><stop offset="1" stop-color="#fff" stop-opacity="0"/></linearGradient><linearGradient id="m" x1="163.45" x2="163.45" y1="266.262" y2="288.695" gradientUnits="userSpaceOnUse"><stop stop-color="#171717"/><stop offset="1" stop-color="#fff" stop-opacity="0"/></linearGradient><radialGradient id="d" cx="0" cy="0" r="1" gradientTransform="rotate(227.429 99.037 139.361)scale(103.192 103.372)" gradientUnits="userSpaceOnUse"><stop stop-color="#fff"/><stop offset="1" stop-color="#d9d9d9" stop-opacity="0"/></radialGradient><radialGradient id="e" cx="0" cy="0" r="1" gradientTransform="rotate(246.038 108.464 128.218)scale(61.4062 126.439)" gradientUnits="userSpaceOnUse"><stop stop-color="#d9d9d9"/><stop offset="1" stop-color="#d9d9d9" stop-opacity="0"/></radialGradient><clipPath id="a"><path fill="#fff" d="M0 0h330v430H0z"/></clipPath></defs></svg>