<svg width="289" height="431" viewBox="0 0 289 431" fill="none" xmlns="http://www.w3.org/2000/svg">
<g clip-path="url(#clip0_444_4609)">
<rect width="289" height="430" transform="translate(0 0.046875)" fill="#232323"/>
<g opacity="0.5" filter="url(#filter0_f_444_4609)">
<ellipse cx="162" cy="155.6" rx="162" ry="155.6" transform="matrix(1 0 0 -1 -51 480.255)" fill="url(#paint0_radial_444_4609)"/>
</g>
<g filter="url(#filter1_f_444_4609)">
<ellipse cx="232" cy="223.5" rx="232" ry="223.5" transform="matrix(1 0 0 -1 -131 548)" fill="url(#paint1_radial_444_4609)"/>
</g>
<g filter="url(#filter2_b_444_4609)">
<circle cx="191.986" cy="191.986" r="191.986" transform="matrix(-0.978344 -0.206986 -0.206986 0.978344 443.438 268.734)" fill="#1C1C1C"/>
</g>
<path d="M115.905 582.836C114.246 581.825 117.268 573.229 124.644 557.898C132.02 542.567 143.501 521.047 157.926 495.493C172.351 469.939 189.214 441.261 206.823 412.347C224.44 383.419 242.177 355.281 258.248 330.731C274.332 306.189 288.187 286.114 298.42 272.531C308.661 258.935 314.918 252.317 316.577 253.328M91.6721 565.397C84.7811 559.567 83.7622 547.03 88.7093 529.05C93.6702 511.078 104.436 488.276 119.918 462.966C135.399 437.655 155.07 410.717 176.934 384.87C198.806 359.009 222.096 335.146 244.468 315.666C266.854 296.194 287.531 281.785 304.434 273.91C321.337 266.036 333.868 264.96 340.767 270.777M68.035 541.592C58.101 529.667 55.2015 512.258 59.6007 491.103C63.9998 469.948 75.5735 445.789 93.1355 421.056C110.698 396.323 133.638 371.887 159.653 350.205C185.668 328.523 213.84 310.368 241.322 297.553C268.819 284.746 294.658 277.718 316.274 277.191C337.882 276.678 354.489 282.668 364.409 294.586M45.1763 507.274C35.494 488.718 33.883 466.355 40.5139 442.449C47.1447 418.543 61.7831 393.938 82.9376 371.092C104.106 348.253 131.049 327.989 161.071 312.324C191.093 296.658 223.144 286.182 253.981 281.893C284.832 277.611 313.386 279.709 336.777 287.95C360.168 296.191 377.581 310.32 387.263 328.877M27.08 455.991C22.1815 431.55 26.1091 405.782 38.4677 381.283C50.8262 356.784 71.176 334.412 97.4828 316.431C123.79 298.449 155.116 285.476 188.316 278.816C221.517 272.156 255.422 272.062 286.627 278.521C317.833 284.98 345.231 297.775 366.073 315.614C386.915 333.453 400.47 355.731 405.369 380.172M26.4388 383.523C31.3152 356.729 44.8772 332.013 65.7671 311.855C86.6431 291.688 114.11 276.788 145.41 268.64C176.703 260.505 210.716 259.406 244.029 265.483C277.35 271.546 308.794 284.566 335.197 303.217C361.6 321.869 382.064 345.493 394.488 371.728C406.911 397.964 410.897 425.87 406.02 452.664M60.1537 304.714C84.7296 270.894 124.733 250.39 171.383 247.732C218.033 245.074 267.491 260.477 308.881 290.539C350.271 320.6 380.215 362.885 392.108 408.055C403.994 453.239 396.88 497.622 372.318 531.449M119.825 250.992C154.145 231.196 197.221 229.803 239.572 247.145C281.922 264.488 320.076 299.108 345.636 343.436C371.204 387.749 382.088 438.119 375.886 483.46C369.684 528.801 346.924 565.398 312.604 585.194M178.315 228.938C212.385 222.11 249.049 235.483 280.253 266.135C311.457 296.788 334.625 342.171 344.685 392.335C354.744 442.499 350.841 493.323 333.863 533.619C316.885 573.915 288.203 600.399 254.134 607.227M224.786 225.372C252.254 226.596 277.701 248.075 295.523 285.073C313.345 322.07 322.069 371.583 319.814 422.691C317.538 473.805 304.458 522.331 283.422 557.612C262.386 592.892 235.146 612.034 207.678 610.809M260.982 230.447C278.857 234.705 291.277 258.573 295.524 296.771C299.77 334.968 295.49 384.392 283.613 434.164C271.744 483.923 253.252 529.969 232.224 562.147C211.195 594.326 189.34 610.013 171.472 605.742M290.618 240.091C298.002 243.18 297.232 264.888 288.5 300.447C279.768 336.005 263.786 382.505 244.057 429.705C224.329 476.905 202.482 520.961 183.298 552.16C164.135 583.352 149.22 599.156 141.836 596.066M150.175 599.349C131.346 592.485 113.061 582.332 97.2809 569.976M220.521 610.951C190.809 611.622 156.019 601.962 123.99 584.176C91.9602 566.39 65.3907 541.958 50.2323 516.388M266.495 604.342C228.711 614.541 175.939 604.357 127.682 577.559C79.4238 550.762 42.8829 511.35 31.5673 473.885M304.705 589.504C284.787 599.785 257.757 603.137 227.202 599.115C196.647 595.093 163.972 583.9 133.544 567.003C103.115 550.106 76.3333 528.3 56.775 504.476C37.209 480.665 25.7655 455.948 23.9628 433.606M337.087 568.451C317.623 584.093 287.701 591.057 252.178 588.212C216.654 585.368 177.62 572.881 141.423 552.781C105.226 532.681 73.9925 506.147 52.799 477.496C31.6054 448.846 21.7003 419.766 24.6883 394.974M363.893 542.224C346.379 563.066 314.991 573.875 275.755 572.579C236.511 571.297 192.148 558.001 151.177 535.249C110.205 512.498 75.4673 481.869 53.6337 449.234C31.8001 416.599 24.3827 384.242 32.8085 358.372M384.883 511.74C375.45 528.727 358.396 541.068 335.434 547.564C312.458 554.052 284.397 554.448 254.044 548.697C223.691 542.946 192.132 531.271 162.518 514.826C132.904 498.381 106.31 477.764 85.3832 455.039C64.456 432.314 49.9448 408.277 43.3203 385.352C36.682 362.418 38.1636 341.413 47.5892 324.439M384.883 511.74C360.047 556.465 318.448 589.498 269.256 603.564C220.063 617.629 167.311 611.572 122.572 586.729C77.8468 561.893 44.8133 520.294 30.7404 471.115C16.6751 421.922 22.7316 369.17 47.5754 324.431C72.4114 279.706 114.01 246.673 163.189 232.6C212.382 218.534 265.134 224.591 309.873 249.435C354.598 274.271 387.631 315.869 401.704 365.048C415.77 414.241 409.719 467.015 384.883 511.74ZM399.664 477.807C393.225 497.595 377.812 512.67 355.196 521.308C332.586 529.931 303.707 531.769 271.867 526.582C240.02 521.41 206.503 509.424 175.177 492.029C143.838 474.626 115.96 452.518 94.7333 428.219C73.5069 403.92 59.7788 378.44 55.161 354.697C50.5295 330.946 55.1923 309.902 68.5797 293.954M407.749 441.203C405.073 463.352 392.242 480.962 370.946 491.741C349.642 502.534 320.849 505.972 288.357 501.633C255.866 497.295 221.181 485.364 188.848 467.41C156.515 449.455 128.053 426.319 107.194 401.033C86.3354 375.746 74.033 349.487 71.9327 325.697C69.8323 301.908 77.9986 281.707 95.3772 267.742M408.509 402.572C410.441 426.503 401.205 446.452 382.202 459.408C363.2 472.364 335.465 477.635 303.165 474.414C270.866 471.193 235.775 459.669 203.18 441.569C170.585 423.469 142.238 399.766 122.444 374.059C102.635 348.344 92.4485 322.014 93.4008 299.035C94.3531 276.056 106.418 257.678 127.739 246.659M400.905 362.294C408.456 387.322 404.101 409.405 388.597 424.646C373.092 439.887 347.441 447.291 316.179 445.549C284.932 443.815 250.099 433.03 217.862 415.129C185.626 397.228 158.071 373.368 140.067 347.753C122.077 322.145 114.801 296.457 119.542 275.239C124.284 254.021 140.734 238.637 165.964 231.83M382.212 319.775C397.099 344.924 399.72 369.11 389.482 387.059C379.244 405.008 356.987 415.272 327.58 415.589C298.165 415.92 263.974 406.286 232.483 388.799C200.992 371.311 174.74 347.381 159.471 322.237C144.203 297.094 141.142 272.789 150.966 254.61C160.79 236.432 182.706 225.87 211.923 225.213M335.17 266.209C356.246 282.715 371.606 302.168 378.437 320.983C385.253 339.79 383.073 356.689 372.273 368.53C361.473 380.371 342.808 386.346 319.717 385.368C296.626 384.389 270.69 376.505 246.72 363.194C222.736 349.875 202.346 332.035 189.309 312.951C176.272 293.868 171.478 274.865 175.82 259.438C180.162 244.011 193.34 233.219 212.922 229.072C232.49 224.916 257.136 227.679 282.289 236.844M361.152 337.51C354.684 349.157 340.404 355.852 321.478 356.121C302.537 356.382 280.499 350.192 260.199 338.92C239.886 327.64 222.982 312.205 213.205 295.996C203.414 279.781 201.554 264.141 208.03 252.481C214.497 240.834 228.777 234.139 247.704 233.87C266.644 233.609 288.683 239.798 308.982 251.071C329.282 262.343 346.2 277.786 355.977 293.994C365.754 310.203 367.62 325.863 361.152 337.51ZM341.304 315.638C336.898 323.572 327.183 328.126 314.302 328.303C301.42 328.481 286.404 324.277 272.59 316.606C258.777 308.935 247.262 298.425 240.611 287.383C233.952 276.354 232.682 265.701 237.088 257.766C241.495 249.831 251.209 245.277 264.091 245.1C276.972 244.923 291.989 249.127 305.802 256.798C319.616 264.468 331.13 274.979 337.782 286.021C344.441 297.049 345.711 307.703 341.304 315.638ZM318.38 296.281C313.736 304.644 298.161 304.86 283.588 296.768C269.016 288.676 260.966 275.34 265.61 266.978C270.254 258.615 285.829 258.399 300.401 266.491C314.974 274.583 323.024 287.919 318.38 296.281Z" stroke="#3FCF8E" stroke-width="0.464542"/>
<g filter="url(#filter3_f_444_4609)">
<circle cx="187.13" cy="187.13" r="187.13" transform="matrix(-0.978344 -0.206986 -0.206986 0.978344 426.261 289.816)" fill="#161616"/>
</g>
<g filter="url(#filter4_f_444_4609)">
<path d="M115.243 271.843C133.493 259.232 151.644 253.149 150.319 251.231C148.993 249.312 129.62 252.594 111.37 265.205C93.1205 277.816 82.9051 294.98 84.2305 296.898C85.5559 298.817 96.993 284.454 115.243 271.843Z" fill="#707070"/>
</g>
<g opacity="0.5">
<g filter="url(#filter5_b_444_4609)">
<path d="M423.822 560.731C423.823 560.731 423.823 560.731 423.823 560.731L423.822 560.731ZM130.843 524.632C130.843 524.632 130.842 524.632 130.842 524.632L130.843 524.632Z" stroke="#EDEDED" stroke-width="0.960585"/>
</g>
<g filter="url(#filter6_f_444_4609)">
<path d="M462.953 433.014C455.894 423.76 447.268 414.563 437.138 405.491C418.384 388.705 395.412 373.204 368.855 359.419C341.364 345.149 311.219 333.348 279.251 324.349C247.283 315.349 215.41 309.686 184.514 307.519C154.664 305.424 126.978 306.664 102.223 311.2C77.4525 315.739 56.8624 323.351 41.0193 333.828C24.5938 344.693 14.0196 358.171 9.59228 373.898C2.83761 397.895 11.1094 425.073 33.5152 452.51C44.2949 465.707 58.0947 478.631 74.5322 490.926C91.1154 503.327 110.072 514.856 130.89 525.192L131.149 524.67C89.3866 503.928 55.7825 478.85 33.9689 452.141C11.691 424.865 3.45077 397.862 10.1533 374.058C18.8422 343.192 51.5773 321.074 102.325 311.775C153.144 302.462 215.919 307.128 279.089 324.912C342.258 342.696 398.246 371.467 436.743 405.926C475.185 440.335 491.571 476.282 482.882 507.147C476.303 530.52 455.771 549.05 423.514 560.735L423.71 561.283C456.153 549.532 476.808 530.866 483.441 507.304C487.868 491.577 485.883 474.562 477.535 456.725C473.835 448.812 468.957 440.89 462.946 433.01L462.953 433.014Z" stroke="url(#paint2_linear_444_4609)" stroke-width="1.48" stroke-linejoin="bevel"/>
</g>
<g filter="url(#filter7_b_444_4609)">
<mask id="path-9-inside-1_444_4609" fill="white">
<path d="M432.417 493.814C435.614 507.03 437.5 519.496 438.065 531.12C438.065 531.121 438.063 531.122 438.063 531.121C438.062 531.12 438.061 531.12 438.061 531.121C438.541 541.019 438.064 550.308 436.623 558.923C433.38 578.347 425.363 593.486 412.795 603.927C394.02 619.524 366.525 623.203 333.269 614.572C333.113 614.531 333.018 614.371 333.059 614.215C333.1 614.06 333.261 613.968 333.417 614.008C366.483 622.59 393.8 618.953 412.424 603.481C437.088 582.991 443.985 544.092 431.846 493.949C419.688 443.732 389.902 388.278 347.967 337.799C306.033 287.32 256.983 247.867 209.848 226.709C162.78 205.58 123.275 205.226 98.6104 225.716C82.513 239.087 73.928 260.415 73.4098 287.927C73.4083 288.003 73.3773 288.076 73.3233 288.13C73.1371 288.315 72.8209 288.177 72.8258 287.915C73.3487 260.224 82.0063 238.752 98.2388 225.266C110.806 214.826 127.16 209.724 146.851 210.094C165.841 210.453 187.116 215.864 210.091 226.178C233.05 236.484 256.554 251.168 279.948 269.827C304.162 289.137 327.199 311.881 348.421 337.427C369.642 362.973 387.774 389.792 402.319 417.138C416.37 443.555 426.495 469.352 432.417 493.814Z"/>
</mask>
<path d="M438.065 531.12L439.024 531.074L439.024 531.074L438.065 531.12ZM432.417 493.814L433.351 493.588L433.351 493.588L432.417 493.814ZM402.319 417.138L401.471 417.589L401.471 417.589L402.319 417.138ZM348.421 337.427L347.682 338.041L348.421 337.427ZM279.948 269.827L279.349 270.578L279.349 270.578L279.948 269.827ZM210.091 226.178L210.484 225.301L210.484 225.301L210.091 226.178ZM146.851 210.094L146.869 209.133L146.869 209.133L146.851 210.094ZM98.2388 225.266L97.625 224.527L97.625 224.527L98.2388 225.266ZM98.6104 225.716L99.2242 226.455L99.2242 226.455L98.6104 225.716ZM209.848 226.709L209.454 227.585L209.454 227.585L209.848 226.709ZM347.967 337.799L348.706 337.185L347.967 337.799ZM431.846 493.949L432.78 493.722L432.78 493.723L431.846 493.949ZM412.424 603.481L411.81 602.742L411.81 602.742L412.424 603.481ZM333.417 614.008L333.175 614.938L333.175 614.938L333.417 614.008ZM333.269 614.572L333.51 613.642L333.511 613.642L333.269 614.572ZM412.795 603.927L413.409 604.666L412.795 603.927ZM436.623 558.923L435.676 558.765L435.676 558.764L436.623 558.923ZM438.061 531.121L439.02 531.075L439.02 531.075L438.061 531.121ZM72.8258 287.915L71.8654 287.897L72.8258 287.915ZM73.4098 287.927L72.4494 287.909L72.4494 287.909L73.4098 287.927ZM73.3233 288.13L72.6463 287.449L72.6463 287.449L73.3233 288.13ZM438.063 531.121L438.894 530.639L438.9 530.65L438.063 531.121ZM333.059 614.215L332.131 613.969L332.131 613.969L333.059 614.215ZM437.105 531.167C436.544 519.612 434.668 507.206 431.484 494.04L433.351 493.588C436.559 506.853 438.456 519.38 439.024 531.074L437.105 531.167ZM431.484 494.04C425.584 469.669 415.491 443.948 401.471 417.589L403.167 416.687C417.249 443.162 427.407 469.034 433.351 493.588L431.484 494.04ZM401.471 417.589C386.958 390.305 368.864 363.54 347.682 338.041L349.16 336.813C370.42 362.406 388.589 389.279 403.167 416.687L401.471 417.589ZM347.682 338.041C326.499 312.542 303.509 289.845 279.349 270.578L280.547 269.076C304.816 288.43 327.899 311.221 349.16 336.813L347.682 338.041ZM279.349 270.578C256.006 251.96 232.571 237.322 209.697 227.054L210.484 225.301C233.529 235.647 257.101 250.376 280.547 269.076L279.349 270.578ZM209.697 227.054C186.804 216.777 165.658 211.411 146.832 211.054L146.869 209.133C166.023 209.496 187.428 214.951 210.484 225.301L209.697 227.054ZM146.833 211.054C127.323 210.688 111.208 215.741 98.8526 226.005L97.625 224.527C110.405 213.911 126.998 208.76 146.869 209.133L146.833 211.054ZM97.9966 224.977C123.091 204.13 163.061 204.653 210.241 225.832L209.454 227.585C162.5 206.507 123.459 206.322 99.2242 226.455L97.9966 224.977ZM210.241 225.832C257.541 247.065 306.703 286.623 348.706 337.185L347.229 338.413C305.363 288.017 256.425 248.669 209.454 227.585L210.241 225.832ZM348.706 337.185C390.71 387.748 420.58 443.331 432.78 493.722L430.912 494.175C418.797 444.134 389.094 388.809 347.229 338.413L348.706 337.185ZM432.78 493.723C444.948 543.986 438.132 583.372 413.037 604.22L411.81 602.742C436.044 582.609 443.022 544.197 430.912 494.175L432.78 493.723ZM413.037 604.22C394.088 619.963 366.409 623.563 333.175 614.938L333.658 613.078C366.557 621.617 393.513 617.943 411.81 602.742L413.037 604.22ZM333.511 613.642C366.598 622.229 393.732 618.514 412.181 603.188L413.409 604.666C394.309 620.533 366.452 624.176 333.028 615.502L333.511 613.642ZM412.181 603.188C424.537 592.923 432.462 578.011 435.676 558.765L437.571 559.081C434.297 578.684 426.188 594.049 413.409 604.666L412.181 603.188ZM435.676 558.764C437.104 550.226 437.579 541.007 437.102 531.168L439.02 531.075C439.503 541.032 439.024 550.39 437.571 559.081L435.676 558.764ZM98.8527 226.005C82.8988 239.259 74.3056 260.426 73.7862 287.933L71.8654 287.897C72.3917 260.022 81.1137 238.245 97.625 224.527L98.8527 226.005ZM72.4494 287.909C72.971 260.214 81.62 238.58 97.9966 224.977L99.2242 226.455C83.406 239.594 74.885 260.616 74.3702 287.945L72.4494 287.909ZM74.3702 287.945C74.3641 288.267 74.2336 288.58 74.0003 288.812L72.6463 287.449C72.521 287.573 72.4526 287.738 72.4494 287.909L74.3702 287.945ZM437.102 531.168C437.051 530.135 438.401 529.79 438.894 530.639L437.232 531.603C437.723 532.45 439.07 532.106 439.02 531.075L437.102 531.168ZM333.988 614.461C334.085 614.095 333.862 613.733 333.51 613.642L333.028 615.502C332.364 615.329 331.951 614.647 332.131 613.969L333.988 614.461ZM73.7862 287.933C73.7972 287.353 73.0867 287.011 72.6463 287.449L74.0003 288.812C73.1874 289.619 71.8445 289.001 71.8654 287.897L73.7862 287.933ZM333.175 614.938C333.522 615.028 333.891 614.827 333.988 614.461L332.131 613.969C332.31 613.293 333.001 612.908 333.658 613.078L333.175 614.938ZM439.024 531.074C439.078 532.177 437.678 532.397 437.225 531.592L438.9 530.65C438.659 530.221 438.183 530.094 437.813 530.194C437.442 530.295 437.08 530.654 437.105 531.167L439.024 531.074Z" fill="#EDEDED" mask="url(#path-9-inside-1_444_4609)"/>
</g>
<g filter="url(#filter8_f_444_4609)">
<path d="M432.417 493.814C435.614 507.032 437.501 519.499 438.065 531.125L438.061 531.118C438.541 541.017 438.064 550.307 436.623 558.923C433.38 578.348 425.363 593.486 412.795 603.927C393.967 619.568 366.368 623.224 332.984 614.498L333.134 613.935C366.327 622.611 393.747 618.997 412.424 603.481C437.088 582.991 443.985 544.092 431.846 493.949C419.688 443.733 389.902 388.279 347.967 337.799C306.033 287.32 256.983 247.867 209.848 226.709C162.78 205.58 123.275 205.226 98.6104 225.716C82.4897 239.107 73.9031 260.477 73.4076 288.047L72.8153 288.547C73.2177 260.551 81.8831 238.855 98.2388 225.266C110.806 214.826 127.16 209.724 146.851 210.094C165.841 210.454 187.116 215.864 210.091 226.178C233.05 236.485 256.554 251.169 279.948 269.827C304.162 289.138 327.199 311.882 348.421 337.428C369.642 362.973 387.774 389.792 402.319 417.138C416.37 443.555 426.495 469.352 432.417 493.814Z" stroke="url(#paint3_linear_444_4609)" stroke-width="1.48" stroke-linejoin="bevel"/>
</g>
</g>
<circle cx="30.4958" cy="190.902" r="51.738" fill="#1C1C1C"/>
<g filter="url(#filter9_f_444_4609)">
<path d="M55.8599 220.28C46.9137 227.025 37.2807 229.679 38.2528 230.968C39.225 232.257 49.8718 231.442 58.818 224.697C67.7642 217.952 71.6222 207.832 70.65 206.542C69.6778 205.253 64.8062 213.535 55.8599 220.28Z" fill="#707070"/>
</g>
</g>
<defs>
<filter id="filter0_f_444_4609" x="-83" y="137.055" width="388" height="375.2" filterUnits="userSpaceOnUse" color-interpolation-filters="sRGB">
<feFlood flood-opacity="0" result="BackgroundImageFix"/>
<feBlend mode="normal" in="SourceGraphic" in2="BackgroundImageFix" result="shape"/>
<feGaussianBlur stdDeviation="16" result="effect1_foregroundBlur_444_4609"/>
</filter>
<filter id="filter1_f_444_4609" x="-163" y="69" width="528" height="511" filterUnits="userSpaceOnUse" color-interpolation-filters="sRGB">
<feFlood flood-opacity="0" result="BackgroundImageFix"/>
<feBlend mode="normal" in="SourceGraphic" in2="BackgroundImageFix" result="shape"/>
<feGaussianBlur stdDeviation="16" result="effect1_foregroundBlur_444_4609"/>
</filter>
<filter id="filter2_b_444_4609" x="14.9869" y="215.939" width="401.77" height="401.77" filterUnits="userSpaceOnUse" color-interpolation-filters="sRGB">
<feFlood flood-opacity="0" result="BackgroundImageFix"/>
<feGaussianBlur in="BackgroundImageFix" stdDeviation="4.42994"/>
<feComposite in2="SourceAlpha" operator="in" result="effect1_backgroundBlur_444_4609"/>
<feBlend mode="normal" in="SourceGraphic" in2="effect1_backgroundBlur_444_4609" result="shape"/>
</filter>
<filter id="filter3_f_444_4609" x="-58.4759" y="171.235" width="525.852" height="525.852" filterUnits="userSpaceOnUse" color-interpolation-filters="sRGB">
<feFlood flood-opacity="0" result="BackgroundImageFix"/>
<feBlend mode="normal" in="SourceGraphic" in2="BackgroundImageFix" result="shape"/>
<feGaussianBlur stdDeviation="37.8787" result="effect1_foregroundBlur_444_4609"/>
</filter>
<filter id="filter4_f_444_4609" x="63.6057" y="230.213" width="107.291" height="87.3686" filterUnits="userSpaceOnUse" color-interpolation-filters="sRGB">
<feFlood flood-opacity="0" result="BackgroundImageFix"/>
<feBlend mode="normal" in="SourceGraphic" in2="BackgroundImageFix" result="shape"/>
<feGaussianBlur stdDeviation="10.255" result="effect1_foregroundBlur_444_4609"/>
</filter>
<filter id="filter5_b_444_4609" x="-56.8612" y="242.364" width="606.762" height="383.002" filterUnits="userSpaceOnUse" color-interpolation-filters="sRGB">
<feFlood flood-opacity="0" result="BackgroundImageFix"/>
<feGaussianBlur in="BackgroundImageFix" stdDeviation="32.083"/>
<feComposite in2="SourceAlpha" operator="in" result="effect1_backgroundBlur_444_4609"/>
<feBlend mode="normal" in="SourceGraphic" in2="effect1_backgroundBlur_444_4609" result="shape"/>
</filter>
<filter id="filter6_f_444_4609" x="3.68233" y="302.909" width="485.675" height="261.952" filterUnits="userSpaceOnUse" color-interpolation-filters="sRGB">
<feFlood flood-opacity="0" result="BackgroundImageFix"/>
<feBlend mode="normal" in="SourceGraphic" in2="BackgroundImageFix" result="shape"/>
<feGaussianBlur stdDeviation="1.44088" result="effect1_foregroundBlur_444_4609"/>
</filter>
<filter id="filter7_b_444_4609" x="8.65984" y="145.909" width="493.748" height="537.384" filterUnits="userSpaceOnUse" color-interpolation-filters="sRGB">
<feFlood flood-opacity="0" result="BackgroundImageFix"/>
<feGaussianBlur in="BackgroundImageFix" stdDeviation="32.083"/>
<feComposite in2="SourceAlpha" operator="in" result="effect1_backgroundBlur_444_4609"/>
<feBlend mode="normal" in="SourceGraphic" in2="effect1_backgroundBlur_444_4609" result="shape"/>
</filter>
<filter id="filter8_f_444_4609" x="69.1937" y="206.454" width="372.67" height="416.295" filterUnits="userSpaceOnUse" color-interpolation-filters="sRGB">
<feFlood flood-opacity="0" result="BackgroundImageFix"/>
<feBlend mode="normal" in="SourceGraphic" in2="BackgroundImageFix" result="shape"/>
<feGaussianBlur stdDeviation="1.44088" result="effect1_foregroundBlur_444_4609"/>
</filter>
<filter id="filter9_f_444_4609" x="26.6748" y="194.898" width="55.6317" height="48.0923" filterUnits="userSpaceOnUse" color-interpolation-filters="sRGB">
<feFlood flood-opacity="0" result="BackgroundImageFix"/>
<feBlend mode="normal" in="SourceGraphic" in2="BackgroundImageFix" result="shape"/>
<feGaussianBlur stdDeviation="5.755" result="effect1_foregroundBlur_444_4609"/>
</filter>
<radialGradient id="paint0_radial_444_4609" cx="0" cy="0" r="1" gradientUnits="userSpaceOnUse" gradientTransform="translate(162 155.6) rotate(90) scale(155.6 162)">
<stop stop-color="#85E0B7" stop-opacity="0.5"/>
<stop offset="0.276042" stop-color="#85E0B7" stop-opacity="0.25"/>
<stop offset="0.71875" stop-color="#85E0B7" stop-opacity="0.07"/>
<stop offset="1" stop-color="#85E0B7" stop-opacity="0"/>
</radialGradient>
<radialGradient id="paint1_radial_444_4609" cx="0" cy="0" r="1" gradientUnits="userSpaceOnUse" gradientTransform="translate(232 223.5) rotate(90) scale(223.5 232)">
<stop stop-color="#85E0B7" stop-opacity="0.5"/>
<stop offset="0.276042" stop-color="#85E0B7" stop-opacity="0.25"/>
<stop offset="0.71875" stop-color="#85E0B7" stop-opacity="0.07"/>
<stop offset="1" stop-color="#85E0B7" stop-opacity="0"/>
</radialGradient>
<linearGradient id="paint2_linear_444_4609" x1="36.5" y1="344.546" x2="348" y2="427.546" gradientUnits="userSpaceOnUse">
<stop stop-color="#3ECF8E"/>
<stop offset="1" stop-color="#4B4B4B" stop-opacity="0"/>
</linearGradient>
<linearGradient id="paint3_linear_444_4609" x1="137.049" y1="216.358" x2="346.498" y2="461.413" gradientUnits="userSpaceOnUse">
<stop stop-color="#3ECF8E"/>
<stop offset="1" stop-color="#4B4B4B" stop-opacity="0"/>
</linearGradient>
<clipPath id="clip0_444_4609">
<rect width="289" height="430" fill="white" transform="translate(0 0.046875)"/>
</clipPath>
</defs>
</svg>
