<svg width="254" height="254" viewBox="0 0 254 254" fill="none" xmlns="http://www.w3.org/2000/svg">
<g clip-path="url(#clip0_231_166117)">
<path fill-rule="evenodd" clip-rule="evenodd" d="M1.10645 32.8476C1.10645 14.8984 15.6572 0.347656 33.6064 0.347656H221.383C239.333 0.347656 253.883 14.8984 253.883 32.8477V60.2183C253.889 60.4658 253.892 60.714 253.892 60.9629V192.787C253.892 193.036 253.889 193.284 253.883 193.532V220.727C253.883 238.676 239.332 253.227 221.383 253.227H33.6064C15.6572 253.227 1.10645 238.676 1.10645 220.727V192.787V135.148C0.92252 132.361 0.829102 129.549 0.829102 126.716C0.829102 123.882 0.92252 121.071 1.10645 118.284V60.9629V32.8476ZM2.10645 135.114V118.317C3.23774 101.244 7.79299 85.107 15.0918 70.5864V182.845C7.79299 168.325 3.23774 152.188 2.10645 135.114ZM2.10645 144.736V192.787C2.10645 204.431 8.42452 214.6 17.8195 220.052C16.0654 216.056 15.0918 211.641 15.0918 206.998V185.038C8.63 172.667 4.15973 159.091 2.10645 144.736ZM16.0918 186.914V206.998C16.0918 211.971 17.2441 216.674 19.2962 220.856C22.3905 222.437 25.7806 223.521 29.3615 224.004C29.2394 222.858 29.1768 221.695 29.1768 220.518V206.399C24.2388 200.345 19.8517 193.825 16.0918 186.914ZM30.1768 207.609V220.518C30.1768 221.737 30.2461 222.941 30.381 224.124C31.4415 224.232 32.5175 224.287 33.6064 224.287H47.0143C40.8944 219.266 35.2554 213.68 30.1768 207.609ZM48.6003 224.287C41.8483 218.856 35.6718 212.739 30.1768 206.042V47.3898C35.5647 40.8228 41.6078 34.8139 48.2061 29.4629H205.747C212.684 35.0885 219.007 41.4412 224.601 48.4052V205.026C218.901 212.122 212.445 218.583 205.353 224.287H48.6003ZM48.2488 225.287H33.6064C32.5634 225.287 31.5318 225.238 30.5138 225.142C31.0509 228.793 32.2143 232.24 33.8914 235.371C38.0338 237.375 42.6816 238.498 47.5918 238.498H68.4583C61.2876 234.736 54.5234 230.305 48.2488 225.287ZM70.6437 238.498C63.2671 234.773 56.3094 230.34 49.86 225.287H204.093C197.644 230.34 190.686 234.773 183.309 238.498H70.6437ZM70.4056 239.498H47.5918C43.0275 239.498 38.683 238.557 34.7416 236.859C40.2672 245.947 50.2631 252.018 61.6768 252.018H112.291C97.3815 250.289 83.2647 245.961 70.4056 239.498ZM141.662 252.018H193.101C204.448 252.018 214.394 246.018 219.939 237.017C216.097 238.616 211.883 239.498 207.463 239.498H183.548C170.688 245.961 156.572 250.289 141.662 252.018ZM181.284 239.498C164.857 247.422 146.436 251.863 126.977 251.863C107.517 251.863 89.0957 247.422 72.6695 239.498H181.284ZM185.495 238.498H207.463C212.226 238.498 216.743 237.441 220.79 235.548C222.516 232.376 223.712 228.875 224.261 225.162C223.315 225.245 222.358 225.287 221.392 225.287H205.704C199.43 230.305 192.666 234.736 185.495 238.498ZM206.939 224.287H221.392C222.404 224.287 223.406 224.239 224.394 224.146C224.53 222.955 224.601 221.745 224.601 220.518V206.614C219.31 213.07 213.392 218.992 206.939 224.287ZM225.601 205.378V220.518C225.601 221.705 225.537 222.878 225.413 224.033C229.105 223.562 232.599 222.452 235.777 220.818C237.818 216.645 238.963 211.955 238.963 206.998V184.843C235.171 192.134 230.688 199.008 225.601 205.378ZM239.963 182.879V206.998C239.963 211.624 238.996 216.024 237.255 220.007C246.41 214.66 252.625 204.826 252.883 193.52V134.574C251.822 151.846 247.285 168.178 239.963 182.879ZM252.883 118.857V60.2298C252.625 48.9321 246.419 39.1037 237.274 33.754C239.004 37.7257 239.963 42.1102 239.963 46.7188V70.5527C247.285 85.254 251.822 101.586 252.883 118.857ZM239.963 72.8339C247.759 89.1525 252.124 107.424 252.124 126.716C252.124 146.007 247.759 164.279 239.963 180.598V72.8339ZM238.963 70.789V182.643C235.209 190.144 230.724 197.216 225.601 203.765V49.6667C230.724 56.2154 235.209 63.2873 238.963 70.789ZM238.963 68.5882V46.7188C238.963 41.7789 237.826 37.1046 235.799 32.9434C232.622 31.3066 229.131 30.1942 225.44 29.7206C225.546 30.7902 225.601 31.8751 225.601 32.9727V48.0541C230.688 54.424 235.171 61.2976 238.963 68.5882ZM224.601 46.8179V32.9727C224.601 31.8356 224.54 30.7127 224.423 29.6069C223.425 29.5116 222.414 29.4629 221.392 29.4629H207.325C213.628 34.6762 219.416 40.4905 224.601 46.8179ZM206.101 28.4629H221.392C222.371 28.4629 223.341 28.5062 224.298 28.5911C223.785 24.8992 222.631 21.4121 220.953 18.2454C216.864 16.3046 212.29 15.2188 207.463 15.2188H186.035C193.156 18.9986 199.872 23.4407 206.101 28.4629ZM184.111 14.2188H207.463C211.954 14.2188 216.233 15.1298 220.124 16.7772C214.617 7.60804 204.575 1.47266 193.101 1.47266H142.159C157.103 3.26527 171.244 7.67064 184.111 14.2188ZM111.794 1.47266H61.6768C50.1352 1.47266 40.0434 7.67984 34.5576 16.938C38.5476 15.1892 42.9564 14.2188 47.5918 14.2188H69.8417C82.7091 7.67064 96.8499 3.26527 111.794 1.47266ZM72.0823 14.2188C88.6561 6.11617 107.285 1.56836 126.977 1.56836C146.668 1.56836 165.297 6.11617 181.871 14.2188H72.0823ZM70.0824 15.2188H183.871C191.193 18.9627 198.098 23.4069 204.498 28.4629H49.4554C55.8548 23.4069 62.7599 18.9627 70.0824 15.2188ZM67.9178 15.2188H47.5918C42.6178 15.2188 37.913 16.3716 33.7301 18.4248C32.1002 21.5495 30.9789 24.9818 30.4762 28.6117C31.5063 28.5132 32.5505 28.4629 33.6064 28.4629H47.8523C54.0808 23.4407 60.7967 18.9986 67.9178 15.2188ZM46.6278 29.4629H33.6064C32.5076 29.4629 31.422 29.5191 30.3521 29.629C30.2362 30.7277 30.1768 31.8432 30.1768 32.9726V45.8223C35.1483 39.8796 40.6569 34.4016 46.6278 29.4629ZM29.1768 47.0328V32.9726C29.1768 31.8852 29.2302 30.8102 29.3345 29.7501C25.7552 30.2354 22.3668 31.3219 19.2745 32.9046C17.236 37.0756 16.0918 41.7635 16.0918 46.7188V66.5177C19.8517 59.6066 24.2388 53.0862 29.1768 47.0328ZM16.0918 68.6397V184.792C19.8187 191.893 24.2077 198.592 29.1768 204.807V48.6245C24.2077 54.8396 19.8187 61.5386 16.0918 68.6397ZM15.0918 68.3934V46.7188C15.0918 42.0931 16.0582 37.6931 17.8 33.7097C8.41578 39.1642 2.10645 49.3267 2.10645 60.9629V108.696C4.15973 94.3402 8.63 80.7642 15.0918 68.3934ZM252.883 32.8477V52.8985C250.591 43.9219 244.562 36.4401 236.551 32.2078C233.355 25.8127 228.112 20.619 221.68 17.4853C217.332 9.47804 209.717 3.50259 200.623 1.34766H221.383C238.78 1.34766 252.883 15.4507 252.883 32.8477ZM18.5235 32.1673C21.6587 25.9165 26.7508 20.8171 32.9962 17.6726C37.327 9.5713 44.99 3.51936 54.1542 1.34766H33.6064C16.2095 1.34766 2.10645 15.4507 2.10645 32.8476V52.9313C4.39928 43.9114 10.4644 36.3973 18.5235 32.1673ZM29.4517 28.726C29.89 25.3677 30.8409 22.1705 32.2235 19.2157C27.1223 22.0722 22.8972 26.3069 20.0524 31.4155C22.9776 30.0714 26.1366 29.149 29.4517 28.726ZM235.022 31.4506C232.01 30.057 228.748 29.1111 225.322 28.6981C224.872 25.2716 223.888 22.0132 222.456 19.0091C227.737 21.8726 232.108 26.2016 235.022 31.4506ZM225.286 225.056C224.805 228.503 223.783 231.776 222.308 234.787C227.641 231.933 232.056 227.589 234.997 222.311C231.981 223.703 228.716 224.647 225.286 225.056ZM29.4873 225.029C29.9564 228.407 30.9449 231.619 32.3695 234.582C27.2178 231.733 22.949 227.483 20.0772 222.346C23.0059 223.689 26.1686 224.609 29.4873 225.029ZM54.518 252.227C45.3109 250.157 37.5821 244.18 33.1645 236.128C26.8574 232.999 21.7114 227.881 18.5461 221.595C10.4757 217.367 4.40143 209.847 2.10645 200.819V220.727C2.10645 238.124 16.2095 252.227 33.6064 252.227H54.518ZM221.51 236.314C217.076 244.271 209.396 250.173 200.259 252.227H221.383C238.78 252.227 252.883 238.124 252.883 220.727V200.852C250.589 209.837 244.551 217.324 236.529 221.554C233.302 227.985 228.004 233.196 221.51 236.314Z" fill="#D9D9D9" fill-opacity="0.1"/>
<path d="M-82.4775 -107.545L-82.4775 349.908M-68.4775 -107.545L-68.4775 349.908M-54.4775 -107.545L-54.4775 349.908M-40.4775 -107.545L-40.4775 349.908M-26.4775 -107.545L-26.4774 349.908M-12.4774 -107.545L-12.4774 349.908M1.52259 -107.545L1.52261 349.908M15.5226 -107.545L15.5226 349.908M29.5226 -107.545L29.5227 349.908M43.5227 -107.545L43.5227 349.908M57.5227 -107.545L57.5227 349.908M71.5227 -107.545L71.5227 349.908M85.5227 -107.545L85.5227 349.908M99.5227 -107.545L99.5228 349.908M113.523 -107.545L113.523 349.908M127.523 -107.545L127.523 349.908M141.523 -107.545L141.523 349.908M155.523 -107.545L155.523 349.908M169.523 -107.545L169.523 349.908M183.523 -107.545L183.523 349.908M197.523 -107.545L197.523 349.908M211.523 -107.545L211.523 349.908M225.523 -107.545L225.523 349.908M239.523 -107.545L239.523 349.908M253.523 -107.545L253.523 349.908M267.523 -107.545L267.523 349.908M281.523 -107.545L281.523 349.908M295.523 -107.545L295.523 349.908M309.523 -107.545L309.523 349.908M374.68 -97.248H-82.7734M374.68 -83.248H-82.7734M374.68 -69.248H-82.7734M374.68 -55.248H-82.7734M374.68 -41.248H-82.7734M374.68 -27.2479H-82.7734M374.68 -13.2479H-82.7734M374.68 0.752098H-82.7734M374.68 14.7521H-82.7734M374.68 28.7521H-82.7734M374.68 42.7522H-82.7734M374.68 56.7522H-82.7734M374.68 70.7522H-82.7734M374.68 84.7522H-82.7734M374.68 98.7522H-82.7734M374.68 112.752H-82.7734M374.68 126.752H-82.7734M374.68 140.752H-82.7734M374.68 154.752H-82.7734M374.68 168.752H-82.7734M374.68 182.752H-82.7734M374.68 196.752H-82.7734M374.68 210.752H-82.7734M374.68 224.752H-82.7734M374.68 238.752H-82.7734M374.68 252.753H-82.7734M374.68 266.753H-82.7734M374.68 280.753H-82.7734M374.68 294.753H-82.7734M374.68 308.753H-82.7734M374.68 322.753H-82.7734M374.68 336.753H-82.7734" stroke="url(#paint0_radial_231_166117)" stroke-opacity="0.4" stroke-width="0.5"/>
</g>
<defs>
<radialGradient id="paint0_radial_231_166117" cx="0" cy="0" r="1" gradientUnits="userSpaceOnUse" gradientTransform="translate(127.626 127.29) rotate(90) scale(126.71 127.728)">
<stop offset="0.128413" stop-color="#56646B" stop-opacity="0.25"/>
<stop offset="0.539998" stop-color="white" stop-opacity="0.35"/>
<stop offset="1" stop-color="#020303" stop-opacity="0"/>
</radialGradient>
<clipPath id="clip0_231_166117">
<rect width="253.062" height="252.879" fill="white" transform="translate(0.829102 0.347656)"/>
</clipPath>
</defs>
</svg>
