<svg width="298" height="430" viewBox="0 0 298 430" fill="none" xmlns="http://www.w3.org/2000/svg">
<g clip-path="url(#clip0_369_2592)">
<g opacity="0.2">
<g filter="url(#filter0_b_369_2592)">
<rect x="13.2891" y="205.816" width="307.934" height="248.203" rx="12" fill="#707070"/>
<rect x="13.5391" y="206.066" width="307.434" height="247.703" rx="11.75" stroke="#D4D4D4" stroke-width="0.5"/>
</g>
</g>
<path d="M20.4951 219.725C20.4951 216.115 23.4223 213.188 27.0331 213.188H285.495C289.106 213.188 292.033 216.115 292.033 219.725V329.451C292.033 333.062 289.106 335.989 285.495 335.989H27.0331C23.4223 335.989 20.4951 333.062 20.4951 329.451V219.725Z" fill="#FCFCFC"/>
<path d="M20.4951 351.728C20.4951 348.117 23.4223 345.19 27.0331 345.19H85.4712C89.082 345.19 92.0091 348.117 92.0091 351.728V406.478C92.0091 410.088 89.082 413.016 85.4712 413.016H27.0331C23.4223 413.016 20.4951 410.088 20.4951 406.478V351.728Z" fill="#FCFCFC"/>
<path d="M100.517 393.72C100.517 391.765 102.102 390.181 104.057 390.181H285.628C287.583 390.181 289.168 391.765 289.168 393.72C289.168 395.675 287.583 397.26 285.628 397.26H104.057C102.102 397.26 100.517 395.675 100.517 393.72Z" fill="#FCFCFC"/>
<path d="M100.517 348.729C100.517 346.774 102.102 345.19 104.057 345.19H142.447C144.401 345.19 145.986 346.774 145.986 348.729C145.986 350.684 144.401 352.269 142.447 352.269H104.057C102.102 352.269 100.517 350.684 100.517 348.729Z" fill="#FCFCFC"/>
<path d="M150.88 348.729C150.88 346.774 152.465 345.19 154.419 345.19H168.976C170.931 345.19 172.515 346.774 172.515 348.729C172.515 350.684 170.931 352.269 168.976 352.269H154.419C152.465 352.269 150.88 350.684 150.88 348.729Z" fill="#FCFCFC"/>
<path d="M268.614 348.729C268.614 346.774 270.199 345.19 272.154 345.19H286.71C288.665 345.19 290.25 346.774 290.25 348.729C290.25 350.684 288.665 352.269 286.71 352.269H272.154C270.199 352.269 268.614 350.684 268.614 348.729Z" fill="#FCFCFC"/>
<path d="M100.517 409.478C100.517 407.523 102.102 405.938 104.057 405.938H285.628C287.583 405.938 289.168 407.523 289.168 409.478C289.168 411.433 287.583 413.017 285.628 413.017H104.057C102.102 413.017 100.517 411.433 100.517 409.478Z" fill="#FCFCFC"/>
<path d="M47.4814 247.824C47.4814 234.686 58.133 224.035 71.2713 224.035V224.035C84.4085 224.035 95.0593 234.685 95.0593 247.822V247.822C95.0593 260.96 84.4094 271.609 71.2721 271.609H47.4814V247.824Z" fill="#707070"/>
<mask id="mask0_369_2592" style="mask-type:alpha" maskUnits="userSpaceOnUse" x="49" y="226" width="44" height="44">
<rect x="50.1035" y="226.657" width="42.3296" height="42.3296" rx="21.1648" fill="#D9D9D9" stroke="#232323" stroke-width="0.671898"/>
</mask>
<g mask="url(#mask0_369_2592)">
<rect x="49.7676" y="226.322" width="43.0015" height="43.0012" rx="21.5006" fill="#3FCF8E"/>
<path d="M60.896 250.313V249.708L62.6073 249.399V250.235C62.6202 251.175 63.1477 251.599 63.8682 251.599C64.6145 251.599 65.0777 251.072 65.0777 250.274V243.969H66.8534V250.274C66.8534 251.921 65.6567 253.285 63.8811 253.285C62.0798 253.285 60.896 252.101 60.896 250.313ZM77.3995 250.274L79.0465 243.969H80.8607L78.3388 253.092H76.5117L74.4273 246.594L72.3429 253.092H70.49L67.9553 243.969H69.8338L71.5065 250.248L73.5266 243.969H75.3666L77.3995 250.274Z" fill="#FCFCFC"/>
</g>
<rect x="81.144" y="257.698" width="12.4995" height="12.4995" rx="6.24973" fill="#3FCF8E" stroke="#FDFDFD" stroke-width="1.74909"/>
<path d="M148 329.922C148 316.783 158.652 306.133 171.79 306.133V306.133C184.927 306.133 195.578 316.783 195.578 329.92V329.92C195.578 343.057 184.928 353.707 171.791 353.707H148V329.922Z" fill="#707070"/>
<mask id="mask1_369_2592" style="mask-type:alpha" maskUnits="userSpaceOnUse" x="150" y="308" width="44" height="44">
<rect x="150.622" y="308.755" width="42.3296" height="42.3296" rx="21.1648" fill="#D9D9D9" stroke="#232323" stroke-width="0.671898"/>
</mask>
<g mask="url(#mask1_369_2592)">
<rect x="150.286" y="308.419" width="43.0015" height="43.0012" rx="21.5006" fill="#3FCF8E"/>
<path d="M168.916 327.752H166.034V335.189H164.245V327.752H161.363V326.067H168.916V327.752ZM180.343 335.189H178.594V328.795L175.969 335.189H174.489L171.864 328.846V335.189H170.166V326.067H172.508L175.248 332.655L177.925 326.067H180.343V335.189Z" fill="#FCFCFC"/>
</g>
</g>
<defs>
<filter id="filter0_b_369_2592" x="4.56562" y="197.093" width="325.38" height="265.65" filterUnits="userSpaceOnUse" color-interpolation-filters="sRGB">
<feFlood flood-opacity="0" result="BackgroundImageFix"/>
<feGaussianBlur in="BackgroundImageFix" stdDeviation="4.36172"/>
<feComposite in2="SourceAlpha" operator="in" result="effect1_backgroundBlur_369_2592"/>
<feBlend mode="normal" in="SourceGraphic" in2="effect1_backgroundBlur_369_2592" result="shape"/>
</filter>
<clipPath id="clip0_369_2592">
<rect width="298" height="430" fill="white"/>
</clipPath>
</defs>
</svg>
