<svg xmlns="http://www.w3.org/2000/svg" width="330" height="431" fill="none" viewBox="0 0 330 431"><g clip-path="url(#a)"><path stroke="#282828" stroke-width=".5" d="M-16.542-9.64v457.453m14-457.453v457.453m14-457.453v457.453m14-457.453v457.453m14-457.453v457.453m14-457.453v457.453m14-457.453v457.453m14-457.453v457.453m14-457.453v457.453m14-457.453v457.453m14-457.453v457.453m14-457.453v457.453m14-457.453v457.453m14-457.453v457.453m14-457.453v457.453m14-457.453v457.453m14-457.453v457.453m14-457.453v457.453m14-457.453v457.453m14-457.453v457.453m14-457.453v457.453m14-457.453v457.453m14-457.453v457.453m14-457.453.001 457.453m14-457.453v457.453m14-457.453v457.453m14-457.453v457.453m14-457.453v457.453m14-457.453v457.453M440.615.656H-16.838m457.453 14H-16.838m457.453 14H-16.838m457.453 14H-16.838m457.453 14H-16.838m457.453 14H-16.838m457.453 14H-16.838m457.453 14H-16.838m457.453 14.001H-16.838m457.453 14H-16.838m457.453 14H-16.838m457.453 14H-16.838m457.453 14H-16.838m457.453 14H-16.838m457.453 14H-16.838m457.453 14H-16.838m457.453 14H-16.838m457.453 14H-16.838m457.453 14H-16.838m457.453 14H-16.838m457.453 14H-16.838m457.453 14H-16.838m457.453 14H-16.838m457.453 14H-16.838m457.453 14H-16.838m457.453 14H-16.838m457.453 14H-16.838m457.453 14H-16.838m457.453 14H-16.838m457.453 14H-16.838m457.453 14H-16.838m457.453 14H-16.838"/></g><defs><clipPath id="a"><path fill="#fff" d="M0 .906h330v430H0z"/></clipPath></defs></svg>