<svg width="298" height="431" viewBox="0 0 298 431" fill="none" xmlns="http://www.w3.org/2000/svg">
<rect width="298" height="430" transform="translate(0 0.046875)" fill="#1C1C1C"/>
<path d="M5 211.225C5 206.679 8.68513 202.994 13.231 202.994H61.0602C65.6061 202.994 69.2912 206.679 69.2912 211.225V259.054C69.2912 263.6 65.6061 267.285 61.0602 267.285H13.231C8.68513 267.285 5 263.6 5 259.054V211.225Z" fill="#1C1C1C"/>
<path d="M4.74278 211.225C4.74278 206.537 8.54307 202.737 13.231 202.737H61.0602C65.7481 202.737 69.5484 206.537 69.5484 211.225L69.034 211.225C69.034 206.821 65.464 203.251 61.0602 203.251H13.231C8.82719 203.251 5.25722 206.821 5.25722 211.225L4.74278 211.225ZM69.2912 267.285H5H69.2912ZM13.231 267.285C8.54307 267.285 4.74278 263.485 4.74278 258.797V211.225C4.74278 206.537 8.54307 202.737 13.231 202.737L13.231 203.251C8.82719 203.251 5.25722 206.821 5.25722 211.225V259.054C5.25722 263.6 8.82719 267.285 13.231 267.285H13.231ZM61.0602 202.737C65.7481 202.737 69.5484 206.537 69.5484 211.225V258.797C69.5484 263.485 65.7481 267.285 61.0602 267.285H61.0602C65.464 267.285 69.034 263.6 69.034 259.054V211.225C69.034 206.821 65.464 203.251 61.0602 203.251L61.0602 202.737Z" fill="#2E2E2E"/>
<path d="M27.5109 246.193H45.613C47.0412 246.193 48.199 245.035 48.199 243.607V225.505C48.199 224.077 47.0412 222.919 45.613 222.919H27.5109C26.0826 222.919 24.9248 224.077 24.9248 225.505V243.607C24.9248 245.035 26.0826 246.193 27.5109 246.193ZM27.5109 246.193L41.734 231.97L48.1991 238.435M33.9761 230.031C33.9761 231.102 33.1077 231.97 32.0366 231.97C30.9654 231.97 30.097 231.102 30.097 230.031C30.097 228.96 30.9654 228.091 32.0366 228.091C33.1077 228.091 33.9761 228.96 33.9761 230.031Z" stroke="#707070" stroke-width="1.07332" stroke-linecap="round" stroke-linejoin="round"/>
<path d="M79.2912 211.225C79.2912 206.679 82.9763 202.994 87.5222 202.994H135.351C139.897 202.994 143.582 206.679 143.582 211.225V259.054C143.582 263.6 139.897 267.285 135.351 267.285H87.5222C82.9763 267.285 79.2912 263.6 79.2912 259.054V211.225Z" fill="#1C1C1C"/>
<path d="M79.034 211.225C79.034 206.537 82.8343 202.737 87.5222 202.737H135.351C140.039 202.737 143.84 206.537 143.84 211.225L143.325 211.225C143.325 206.821 139.755 203.251 135.351 203.251H87.5222C83.1184 203.251 79.5484 206.821 79.5484 211.225L79.034 211.225ZM143.582 267.285H79.2912H143.582ZM87.5222 267.285C82.8343 267.285 79.034 263.485 79.034 258.797V211.225C79.034 206.537 82.8343 202.737 87.5222 202.737L87.5222 203.251C83.1184 203.251 79.5484 206.821 79.5484 211.225V259.054C79.5484 263.6 83.1184 267.285 87.5222 267.285H87.5222ZM135.351 202.737C140.039 202.737 143.84 206.537 143.84 211.225V258.797C143.84 263.485 140.039 267.285 135.351 267.285H135.351C139.755 267.285 143.325 263.6 143.325 259.054V211.225C143.325 206.821 139.755 203.251 135.351 203.251L135.351 202.737Z" fill="#2E2E2E"/>
<path d="M101.802 246.193H119.904C121.332 246.193 122.49 245.035 122.49 243.607V225.505C122.49 224.077 121.332 222.919 119.904 222.919H101.802C100.374 222.919 99.216 224.077 99.216 225.505V243.607C99.216 245.035 100.374 246.193 101.802 246.193ZM101.802 246.193L116.025 231.97L122.49 238.435M108.267 230.031C108.267 231.102 107.399 231.97 106.328 231.97C105.257 231.97 104.388 231.102 104.388 230.031C104.388 228.96 105.257 228.091 106.328 228.091C107.399 228.091 108.267 228.96 108.267 230.031Z" stroke="#707070" stroke-width="1.07332" stroke-linecap="round" stroke-linejoin="round"/>
<path d="M153.582 211.225C153.582 206.679 157.268 202.994 161.813 202.994H209.643C214.188 202.994 217.874 206.679 217.874 211.225V259.054C217.874 263.6 214.188 267.285 209.643 267.285H161.813C157.268 267.285 153.582 263.6 153.582 259.054V211.225Z" fill="#1C1C1C"/>
<path d="M153.325 211.225C153.325 206.537 157.125 202.737 161.813 202.737H209.643C214.331 202.737 218.131 206.537 218.131 211.225L217.616 211.225C217.616 206.821 214.046 203.251 209.643 203.251H161.813C157.41 203.251 153.84 206.821 153.84 211.225L153.325 211.225ZM217.874 267.285H153.582H217.874ZM161.813 267.285C157.125 267.285 153.325 263.485 153.325 258.797V211.225C153.325 206.537 157.125 202.737 161.813 202.737L161.813 203.251C157.41 203.251 153.84 206.821 153.84 211.225V259.054C153.84 263.6 157.41 267.285 161.813 267.285H161.813ZM209.643 202.737C214.331 202.737 218.131 206.537 218.131 211.225V258.797C218.131 263.485 214.331 267.285 209.643 267.285H209.643C214.046 267.285 217.616 263.6 217.616 259.054V211.225C217.616 206.821 214.046 203.251 209.643 203.251L209.643 202.737Z" fill="#2E2E2E"/>
<path d="M176.093 246.193H194.195C195.624 246.193 196.781 245.035 196.781 243.607V225.505C196.781 224.077 195.624 222.919 194.195 222.919H176.093C174.665 222.919 173.507 224.077 173.507 225.505V243.607C173.507 245.035 174.665 246.193 176.093 246.193ZM176.093 246.193L190.316 231.97L196.781 238.435M182.558 230.031C182.558 231.102 181.69 231.97 180.619 231.97C179.548 231.97 178.679 231.102 178.679 230.031C178.679 228.96 179.548 228.091 180.619 228.091C181.69 228.091 182.558 228.96 182.558 230.031Z" stroke="#707070" stroke-width="1.07332" stroke-linecap="round" stroke-linejoin="round"/>
<path d="M227.874 211.225C227.874 206.679 231.559 202.994 236.105 202.994H283.934C288.48 202.994 292.165 206.679 292.165 211.225V259.054C292.165 263.6 288.48 267.285 283.934 267.285H236.105C231.559 267.285 227.874 263.6 227.874 259.054V211.225Z" fill="#1C1C1C"/>
<path d="M227.616 211.225C227.616 206.537 231.417 202.737 236.105 202.737H283.934C288.622 202.737 292.422 206.537 292.422 211.225L291.908 211.225C291.908 206.821 288.338 203.251 283.934 203.251H236.105C231.701 203.251 228.131 206.821 228.131 211.225L227.616 211.225ZM292.165 267.285H227.874H292.165ZM236.105 267.285C231.417 267.285 227.616 263.485 227.616 258.797V211.225C227.616 206.537 231.417 202.737 236.105 202.737L236.105 203.251C231.701 203.251 228.131 206.821 228.131 211.225V259.054C228.131 263.6 231.701 267.285 236.105 267.285H236.105ZM283.934 202.737C288.622 202.737 292.422 206.537 292.422 211.225V258.797C292.422 263.485 288.622 267.285 283.934 267.285H283.934C288.338 267.285 291.908 263.6 291.908 259.054V211.225C291.908 206.821 288.338 203.251 283.934 203.251L283.934 202.737Z" fill="#2E2E2E"/>
<path d="M250.384 246.193H268.487C269.915 246.193 271.073 245.035 271.073 243.607V225.505C271.073 224.077 269.915 222.919 268.487 222.919H250.384C248.956 222.919 247.798 224.077 247.798 225.505V243.607C247.798 245.035 248.956 246.193 250.384 246.193ZM250.384 246.193L264.608 231.97L271.073 238.435M256.85 230.031C256.85 231.102 255.981 231.97 254.91 231.97C253.839 231.97 252.971 231.102 252.971 230.031C252.971 228.96 253.839 228.091 254.91 228.091C255.981 228.091 256.85 228.96 256.85 230.031Z" stroke="#707070" stroke-width="1.07332" stroke-linecap="round" stroke-linejoin="round"/>
<path d="M5 287.863C5 283.317 8.68513 279.632 13.231 279.632H61.0602C65.6061 279.632 69.2912 283.317 69.2912 287.863V335.692C69.2912 340.238 65.6061 343.923 61.0602 343.923H13.231C8.68513 343.923 5 340.238 5 335.692V287.863Z" fill="#1C1C1C"/>
<path d="M4.74278 287.863C4.74278 283.175 8.54307 279.375 13.231 279.375H61.0602C65.7481 279.375 69.5484 283.175 69.5484 287.863L69.034 287.863C69.034 283.459 65.464 279.889 61.0602 279.889H13.231C8.82719 279.889 5.25722 283.459 5.25722 287.863L4.74278 287.863ZM69.2912 343.923H5H69.2912ZM13.231 343.923C8.54307 343.923 4.74278 340.123 4.74278 335.435V287.863C4.74278 283.175 8.54307 279.375 13.231 279.375L13.231 279.889C8.82719 279.889 5.25722 283.459 5.25722 287.863V335.692C5.25722 340.238 8.82719 343.923 13.231 343.923H13.231ZM61.0602 279.375C65.7481 279.375 69.5484 283.175 69.5484 287.863V335.435C69.5484 340.123 65.7481 343.923 61.0602 343.923H61.0602C65.464 343.923 69.034 340.238 69.034 335.692V287.863C69.034 283.459 65.464 279.889 61.0602 279.889L61.0602 279.375Z" fill="#2E2E2E"/>
<path d="M38.8892 299.557H29.5795C28.9623 299.557 28.3703 299.802 27.9338 300.238C27.4973 300.675 27.2521 301.267 27.2521 301.884V320.503C27.2521 321.121 27.4973 321.713 27.9338 322.149C28.3703 322.586 28.9623 322.831 29.5795 322.831H43.544C44.1613 322.831 44.7533 322.586 45.1898 322.149C45.6262 321.713 45.8714 321.121 45.8714 320.503V306.539M38.8892 299.557L45.8714 306.539M38.8892 299.557L38.8888 306.539H45.8714M41.2158 312.358H31.9062M41.2158 317.012H31.9062M34.2336 307.703H31.9062" stroke="#707070" stroke-width="0.930966" stroke-linecap="round" stroke-linejoin="round"/>
<path d="M79.2912 287.863C79.2912 283.317 82.9763 279.632 87.5222 279.632H135.351C139.897 279.632 143.582 283.317 143.582 287.863V335.692C143.582 340.238 139.897 343.923 135.351 343.923H87.5222C82.9763 343.923 79.2912 340.238 79.2912 335.692V287.863Z" fill="#1C1C1C"/>
<path d="M79.034 287.863C79.034 283.175 82.8343 279.375 87.5222 279.375H135.351C140.039 279.375 143.84 283.175 143.84 287.863L143.325 287.863C143.325 283.459 139.755 279.889 135.351 279.889H87.5222C83.1184 279.889 79.5484 283.459 79.5484 287.863L79.034 287.863ZM143.582 343.923H79.2912H143.582ZM87.5222 343.923C82.8343 343.923 79.034 340.123 79.034 335.435V287.863C79.034 283.175 82.8343 279.375 87.5222 279.375L87.5222 279.889C83.1184 279.889 79.5484 283.459 79.5484 287.863V335.692C79.5484 340.238 83.1184 343.923 87.5222 343.923H87.5222ZM135.351 279.375C140.039 279.375 143.84 283.175 143.84 287.863V335.435C143.84 340.123 140.039 343.923 135.351 343.923H135.351C139.755 343.923 143.325 340.238 143.325 335.692V287.863C143.325 283.459 139.755 279.889 135.351 279.889L135.351 279.375Z" fill="#2E2E2E"/>
<path d="M113.18 299.557H103.871C103.253 299.557 102.661 299.802 102.225 300.238C101.789 300.675 101.543 301.267 101.543 301.884V320.503C101.543 321.121 101.789 321.713 102.225 322.149C102.661 322.586 103.253 322.831 103.871 322.831H117.835C118.452 322.831 119.044 322.586 119.481 322.149C119.917 321.713 120.163 321.121 120.163 320.503V306.539M113.18 299.557L120.163 306.539M113.18 299.557L113.18 306.539H120.163M115.507 312.358H106.197M115.507 317.012H106.197M108.525 307.703H106.197" stroke="#707070" stroke-width="0.930966" stroke-linecap="round" stroke-linejoin="round"/>
<path d="M153.582 287.863C153.582 283.317 157.268 279.632 161.813 279.632H209.643C214.188 279.632 217.874 283.317 217.874 287.863V335.692C217.874 340.238 214.188 343.923 209.643 343.923H161.813C157.268 343.923 153.582 340.238 153.582 335.692V287.863Z" fill="#1C1C1C"/>
<path d="M153.325 287.863C153.325 283.175 157.125 279.375 161.813 279.375H209.643C214.331 279.375 218.131 283.175 218.131 287.863L217.616 287.863C217.616 283.459 214.046 279.889 209.643 279.889H161.813C157.41 279.889 153.84 283.459 153.84 287.863L153.325 287.863ZM217.874 343.923H153.582H217.874ZM161.813 343.923C157.125 343.923 153.325 340.123 153.325 335.435V287.863C153.325 283.175 157.125 279.375 161.813 279.375L161.813 279.889C157.41 279.889 153.84 283.459 153.84 287.863V335.692C153.84 340.238 157.41 343.923 161.813 343.923H161.813ZM209.643 279.375C214.331 279.375 218.131 283.175 218.131 287.863V335.435C218.131 340.123 214.331 343.923 209.643 343.923H209.643C214.046 343.923 217.616 340.238 217.616 335.692V287.863C217.616 283.459 214.046 279.889 209.643 279.889L209.643 279.375Z" fill="#2E2E2E"/>
<path d="M187.472 299.557H178.162C177.545 299.557 176.953 299.802 176.516 300.238C176.08 300.675 175.835 301.267 175.835 301.884V320.503C175.835 321.121 176.08 321.713 176.516 322.149C176.953 322.586 177.545 322.831 178.162 322.831H192.126C192.744 322.831 193.336 322.586 193.772 322.149C194.209 321.713 194.454 321.121 194.454 320.503V306.539M187.472 299.557L194.454 306.539M187.472 299.557L187.471 306.539H194.454M189.798 312.358H180.489M189.798 317.012H180.489M182.816 307.703H180.489" stroke="#707070" stroke-width="0.930966" stroke-linecap="round" stroke-linejoin="round"/>
<path d="M227.874 287.863C227.874 283.317 231.559 279.632 236.105 279.632H283.934C288.48 279.632 292.165 283.317 292.165 287.863V335.692C292.165 340.238 288.48 343.923 283.934 343.923H236.105C231.559 343.923 227.874 340.238 227.874 335.692V287.863Z" fill="#1C1C1C"/>
<path d="M227.616 287.863C227.616 283.175 231.417 279.375 236.105 279.375H283.934C288.622 279.375 292.422 283.175 292.422 287.863L291.908 287.863C291.908 283.459 288.338 279.889 283.934 279.889H236.105C231.701 279.889 228.131 283.459 228.131 287.863L227.616 287.863ZM292.165 343.923H227.874H292.165ZM236.105 343.923C231.417 343.923 227.616 340.123 227.616 335.435V287.863C227.616 283.175 231.417 279.375 236.105 279.375L236.105 279.889C231.701 279.889 228.131 283.459 228.131 287.863V335.692C228.131 340.238 231.701 343.923 236.105 343.923H236.105ZM283.934 279.375C288.622 279.375 292.422 283.175 292.422 287.863V335.435C292.422 340.123 288.622 343.923 283.934 343.923H283.934C288.338 343.923 291.908 340.238 291.908 335.692V287.863C291.908 283.459 288.338 279.889 283.934 279.889L283.934 279.375Z" fill="#2E2E2E"/>
<path d="M261.763 299.557H252.453C251.836 299.557 251.244 299.802 250.807 300.238C250.371 300.675 250.126 301.267 250.126 301.884V320.503C250.126 321.121 250.371 321.713 250.807 322.149C251.244 322.586 251.836 322.831 252.453 322.831H266.418C267.035 322.831 267.627 322.586 268.063 322.149C268.5 321.713 268.745 321.121 268.745 320.503V306.539M261.763 299.557L268.745 306.539M261.763 299.557L261.762 306.539H268.745M264.089 312.358H254.78M264.089 317.012H254.78M257.107 307.703H254.78" stroke="#707070" stroke-width="0.930966" stroke-linecap="round" stroke-linejoin="round"/>
<path d="M5 364.501C5 359.955 8.68513 356.27 13.231 356.27H61.0602C65.6061 356.27 69.2912 359.955 69.2912 364.5V412.33C69.2912 416.876 65.6061 420.561 61.0602 420.561H13.231C8.68513 420.561 5 416.876 5 412.33V364.501Z" fill="#1C1C1C"/>
<path d="M4.74278 364.5C4.74278 359.813 8.54307 356.012 13.231 356.012H61.0602C65.7481 356.012 69.5484 359.813 69.5484 364.5L69.034 364.5C69.034 360.097 65.464 356.527 61.0602 356.527H13.231C8.82719 356.527 5.25722 360.097 5.25722 364.5L4.74278 364.5ZM69.2912 420.561H5H69.2912ZM13.231 420.561C8.54307 420.561 4.74278 416.76 4.74278 412.073V364.5C4.74278 359.813 8.54307 356.012 13.231 356.012L13.231 356.527C8.82719 356.527 5.25722 360.097 5.25722 364.5V412.33C5.25722 416.876 8.82719 420.561 13.231 420.561H13.231ZM61.0602 356.012C65.7481 356.012 69.5484 359.813 69.5484 364.5V412.073C69.5484 416.76 65.7481 420.561 61.0602 420.561H61.0602C65.464 420.561 69.034 416.876 69.034 412.33V364.5C69.034 360.097 65.464 356.527 61.0602 356.527L61.0602 356.012Z" fill="#2E2E2E"/>
<path d="M32.0088 395.076V379.38L46.4969 376.965V392.661M32.0088 395.076C32.0088 397.076 30.3871 398.698 28.3867 398.698C26.3863 398.698 24.7647 397.076 24.7647 395.076C24.7647 393.075 26.3863 391.453 28.3867 391.453C30.3871 391.453 32.0088 393.075 32.0088 395.076ZM46.4969 392.661C46.4969 394.661 44.8753 396.283 42.8749 396.283C40.8745 396.283 39.2529 394.661 39.2529 392.661C39.2529 390.66 40.8745 389.039 42.8749 389.039C44.8753 389.039 46.4969 390.66 46.4969 392.661Z" stroke="#707070" stroke-width="0.930966" stroke-linecap="round" stroke-linejoin="round"/>
<path d="M79.2912 364.501C79.2912 359.955 82.9763 356.27 87.5222 356.27H135.351C139.897 356.27 143.582 359.955 143.582 364.5V412.33C143.582 416.876 139.897 420.561 135.351 420.561H87.5222C82.9763 420.561 79.2912 416.876 79.2912 412.33V364.501Z" fill="#1C1C1C"/>
<path d="M79.034 364.5C79.034 359.813 82.8343 356.012 87.5222 356.012H135.351C140.039 356.012 143.84 359.813 143.84 364.5L143.325 364.5C143.325 360.097 139.755 356.527 135.351 356.527H87.5222C83.1184 356.527 79.5484 360.097 79.5484 364.5L79.034 364.5ZM143.582 420.561H79.2912H143.582ZM87.5222 420.561C82.8343 420.561 79.034 416.76 79.034 412.073V364.5C79.034 359.813 82.8343 356.012 87.5222 356.012L87.5222 356.527C83.1184 356.527 79.5484 360.097 79.5484 364.5V412.33C79.5484 416.876 83.1184 420.561 87.5222 420.561H87.5222ZM135.351 356.012C140.039 356.012 143.84 359.813 143.84 364.5V412.073C143.84 416.76 140.039 420.561 135.351 420.561H135.351C139.755 420.561 143.325 416.876 143.325 412.33V364.5C143.325 360.097 139.755 356.527 135.351 356.527L135.351 356.012Z" fill="#2E2E2E"/>
<path d="M106.3 395.076V379.38L120.788 376.965V392.661M106.3 395.076C106.3 397.076 104.678 398.698 102.678 398.698C100.678 398.698 99.0559 397.076 99.0559 395.076C99.0559 393.075 100.678 391.453 102.678 391.453C104.678 391.453 106.3 393.075 106.3 395.076ZM120.788 392.661C120.788 394.661 119.166 396.283 117.166 396.283C115.166 396.283 113.544 394.661 113.544 392.661C113.544 390.66 115.166 389.039 117.166 389.039C119.166 389.039 120.788 390.66 120.788 392.661Z" stroke="#707070" stroke-width="0.930966" stroke-linecap="round" stroke-linejoin="round"/>
<path d="M153.582 364.501C153.582 359.955 157.268 356.27 161.813 356.27H209.643C214.188 356.27 217.874 359.955 217.874 364.5V412.33C217.874 416.876 214.188 420.561 209.643 420.561H161.813C157.268 420.561 153.582 416.876 153.582 412.33V364.501Z" fill="#1C1C1C"/>
<path d="M153.325 364.5C153.325 359.813 157.125 356.012 161.813 356.012H209.643C214.331 356.012 218.131 359.813 218.131 364.5L217.616 364.5C217.616 360.097 214.046 356.527 209.643 356.527H161.813C157.41 356.527 153.84 360.097 153.84 364.5L153.325 364.5ZM217.874 420.561H153.582H217.874ZM161.813 420.561C157.125 420.561 153.325 416.76 153.325 412.073V364.5C153.325 359.813 157.125 356.012 161.813 356.012L161.813 356.527C157.41 356.527 153.84 360.097 153.84 364.5V412.33C153.84 416.876 157.41 420.561 161.813 420.561H161.813ZM209.643 356.012C214.331 356.012 218.131 359.813 218.131 364.5V412.073C218.131 416.76 214.331 420.561 209.643 420.561H209.643C214.046 420.561 217.616 416.876 217.616 412.33V364.5C217.616 360.097 214.046 356.527 209.643 356.527L209.643 356.012Z" fill="#2E2E2E"/>
<path d="M180.591 395.076V379.38L195.079 376.965V392.661M180.591 395.076C180.591 397.076 178.97 398.698 176.969 398.698C174.969 398.698 173.347 397.076 173.347 395.076C173.347 393.075 174.969 391.453 176.969 391.453C178.97 391.453 180.591 393.075 180.591 395.076ZM195.079 392.661C195.079 394.661 193.458 396.283 191.457 396.283C189.457 396.283 187.835 394.661 187.835 392.661C187.835 390.66 189.457 389.039 191.457 389.039C193.458 389.039 195.079 390.66 195.079 392.661Z" stroke="#707070" stroke-width="0.930966" stroke-linecap="round" stroke-linejoin="round"/>
<path d="M227.874 364.501C227.874 359.955 231.559 356.27 236.105 356.27H283.934C288.48 356.27 292.165 359.955 292.165 364.5V412.33C292.165 416.876 288.48 420.561 283.934 420.561H236.105C231.559 420.561 227.874 416.876 227.874 412.33V364.501Z" fill="#1C1C1C"/>
<path d="M227.616 364.5C227.616 359.813 231.417 356.012 236.105 356.012H283.934C288.622 356.012 292.422 359.813 292.422 364.5L291.908 364.5C291.908 360.097 288.338 356.527 283.934 356.527H236.105C231.701 356.527 228.131 360.097 228.131 364.5L227.616 364.5ZM292.165 420.561H227.874H292.165ZM236.105 420.561C231.417 420.561 227.616 416.76 227.616 412.073V364.5C227.616 359.813 231.417 356.012 236.105 356.012L236.105 356.527C231.701 356.527 228.131 360.097 228.131 364.5V412.33C228.131 416.876 231.701 420.561 236.105 420.561H236.105ZM283.934 356.012C288.622 356.012 292.422 359.813 292.422 364.5V412.073C292.422 416.76 288.622 420.561 283.934 420.561H283.934C288.338 420.561 291.908 416.876 291.908 412.33V364.5C291.908 360.097 288.338 356.527 283.934 356.527L283.934 356.012Z" fill="#2E2E2E"/>
<path d="M254.882 395.076V379.38L269.371 376.965V392.661M254.882 395.076C254.882 397.076 253.261 398.698 251.26 398.698C249.26 398.698 247.638 397.076 247.638 395.076C247.638 393.075 249.26 391.453 251.26 391.453C253.261 391.453 254.882 393.075 254.882 395.076ZM269.371 392.661C269.371 394.661 267.749 396.283 265.748 396.283C263.748 396.283 262.126 394.661 262.126 392.661C262.126 390.66 263.748 389.039 265.748 389.039C267.749 389.039 269.371 390.66 269.371 392.661Z" stroke="#707070" stroke-width="0.930966" stroke-linecap="round" stroke-linejoin="round"/>
</svg>
