<svg width="300" height="432" viewBox="0 0 300 432" fill="none" xmlns="http://www.w3.org/2000/svg">
<mask id="path-1-outside-1_410_1798" maskUnits="userSpaceOnUse" x="0" y="0.046875" width="300" height="431" fill="black">
<rect fill="white" y="0.046875" width="300" height="431"/>
<path d="M1 1.04688H299V431.047H1V1.04688Z"/>
</mask>
<path d="M1 1.04688H299V431.047H1V1.04688Z" fill="#1C1C1C"/>
<path d="M11 215.047C11 210.629 14.5817 207.047 19 207.047H65.4871C69.9054 207.047 73.4871 210.629 73.4871 215.047V261.534C73.4871 265.952 69.9054 269.534 65.4871 269.534H19C14.5817 269.534 11 265.952 11 261.534V215.047Z" fill="#1C1C1C"/>
<path d="M10.75 215.047C10.75 210.491 14.4437 206.797 19 206.797H65.4871C70.0435 206.797 73.7371 210.491 73.7371 215.047H73.2371C73.2371 210.767 69.7673 207.297 65.4871 207.297H19C14.7198 207.297 11.25 210.767 11.25 215.047H10.75ZM73.4871 269.534H11H73.4871ZM19 269.534C14.4437 269.534 10.75 265.84 10.75 261.284V215.047C10.75 210.491 14.4437 206.797 19 206.797V207.297C14.7198 207.297 11.25 210.767 11.25 215.047V261.534C11.25 265.952 14.7198 269.534 19 269.534ZM65.4871 206.797C70.0435 206.797 73.7371 210.491 73.7371 215.047V261.284C73.7371 265.84 70.0435 269.534 65.4871 269.534C69.7673 269.534 73.2371 265.952 73.2371 261.534V215.047C73.2371 210.767 69.7673 207.297 65.4871 207.297V206.797Z" fill="#2E2E2E"/>
<path d="M32.7771 248.932H50.3713C51.7594 248.932 52.8847 247.806 52.8847 246.418V228.824C52.8847 227.436 51.7594 226.311 50.3713 226.311H32.7771C31.389 226.311 30.2637 227.436 30.2637 228.824V246.418C30.2637 247.806 31.389 248.932 32.7771 248.932ZM32.7771 248.932L46.6012 235.108L52.8848 241.392M39.0609 233.223C39.0609 234.264 38.2169 235.108 37.1758 235.108C36.1347 235.108 35.2908 234.264 35.2908 233.223C35.2908 232.182 36.1347 231.338 37.1758 231.338C38.2169 231.338 39.0609 232.182 39.0609 233.223Z" stroke="#707070" stroke-width="1.04321" stroke-linecap="round" stroke-linejoin="round"/>
<path d="M82.5355 215.047C82.5355 210.629 86.1173 207.047 90.5355 207.047H137.023C141.441 207.047 145.023 210.629 145.023 215.047V261.534C145.023 265.952 141.441 269.534 137.023 269.534H90.5356C86.1173 269.534 82.5355 265.952 82.5355 261.534V215.047Z" fill="#1C1C1C"/>
<path d="M82.2855 215.047C82.2855 210.491 85.9792 206.797 90.5355 206.797H137.023C141.579 206.797 145.273 210.491 145.273 215.047H144.773C144.773 210.767 141.303 207.297 137.023 207.297H90.5355C86.2553 207.297 82.7855 210.767 82.7855 215.047H82.2855ZM145.023 269.534H82.5355H145.023ZM90.5355 269.534C85.9792 269.534 82.2855 265.84 82.2855 261.284V215.047C82.2855 210.491 85.9792 206.797 90.5355 206.797V207.297C86.2553 207.297 82.7855 210.767 82.7855 215.047V261.534C82.7855 265.952 86.2553 269.534 90.5355 269.534ZM137.023 206.797C141.579 206.797 145.273 210.491 145.273 215.047V261.284C145.273 265.84 141.579 269.534 137.023 269.534C141.303 269.534 144.773 265.952 144.773 261.534V215.047C144.773 210.767 141.303 207.297 137.023 207.297V206.797Z" fill="#2E2E2E"/>
<path d="M104.313 248.932H121.907C123.295 248.932 124.42 247.806 124.42 246.418V228.824C124.42 227.436 123.295 226.311 121.907 226.311H104.313C102.925 226.311 101.799 227.436 101.799 228.824V246.418C101.799 247.806 102.925 248.932 104.313 248.932ZM104.313 248.932L118.137 235.108L124.42 241.392M110.596 233.223C110.596 234.264 109.752 235.108 108.711 235.108C107.67 235.108 106.826 234.264 106.826 233.223C106.826 232.182 107.67 231.338 108.711 231.338C109.752 231.338 110.596 232.182 110.596 233.223Z" stroke="#707070" stroke-width="1.04321" stroke-linecap="round" stroke-linejoin="round"/>
<path d="M154.071 215.047C154.071 210.629 157.653 207.047 162.071 207.047H208.558C212.976 207.047 216.558 210.629 216.558 215.047V261.534C216.558 265.952 212.976 269.534 208.558 269.534H162.071C157.653 269.534 154.071 265.952 154.071 261.534V215.047Z" fill="#1C1C1C"/>
<path d="M153.821 215.047C153.821 210.491 157.515 206.797 162.071 206.797H208.558C213.115 206.797 216.808 210.491 216.808 215.047H216.308C216.308 210.767 212.838 207.297 208.558 207.297H162.071C157.791 207.297 154.321 210.767 154.321 215.047H153.821ZM216.558 269.534H154.071H216.558ZM162.071 269.534C157.515 269.534 153.821 265.84 153.821 261.284V215.047C153.821 210.491 157.515 206.797 162.071 206.797V207.297C157.791 207.297 154.321 210.767 154.321 215.047V261.534C154.321 265.952 157.791 269.534 162.071 269.534ZM208.558 206.797C213.115 206.797 216.808 210.491 216.808 215.047V261.284C216.808 265.84 213.115 269.534 208.558 269.534C212.838 269.534 216.308 265.952 216.308 261.534V215.047C216.308 210.767 212.838 207.297 208.558 207.297V206.797Z" fill="#2E2E2E"/>
<path d="M175.848 248.932H193.442C194.831 248.932 195.956 247.806 195.956 246.418V228.824C195.956 227.436 194.831 226.311 193.442 226.311H175.848C174.46 226.311 173.335 227.436 173.335 228.824V246.418C173.335 247.806 174.46 248.932 175.848 248.932ZM175.848 248.932L189.672 235.108L195.956 241.392M182.132 233.223C182.132 234.264 181.288 235.108 180.247 235.108C179.206 235.108 178.362 234.264 178.362 233.223C178.362 232.182 179.206 231.338 180.247 231.338C181.288 231.338 182.132 232.182 182.132 233.223Z" stroke="#707070" stroke-width="1.04321" stroke-linecap="round" stroke-linejoin="round"/>
<path d="M225.607 215.047C225.607 210.629 229.188 207.047 233.607 207.047H280.094C284.512 207.047 288.094 210.629 288.094 215.047V261.534C288.094 265.952 284.512 269.534 280.094 269.534H233.607C229.188 269.534 225.607 265.952 225.607 261.534V215.047Z" fill="#1C1C1C"/>
<path d="M225.357 215.047C225.357 210.491 229.05 206.797 233.607 206.797H280.094C284.65 206.797 288.344 210.491 288.344 215.047H287.844C287.844 210.767 284.374 207.297 280.094 207.297H233.607C229.326 207.297 225.857 210.767 225.857 215.047H225.357ZM288.094 269.534H225.607H288.094ZM233.607 269.534C229.05 269.534 225.357 265.84 225.357 261.284V215.047C225.357 210.491 229.05 206.797 233.607 206.797V207.297C229.326 207.297 225.857 210.767 225.857 215.047V261.534C225.857 265.952 229.326 269.534 233.607 269.534ZM280.094 206.797C284.65 206.797 288.344 210.491 288.344 215.047V261.284C288.344 265.84 284.65 269.534 280.094 269.534C284.374 269.534 287.844 265.952 287.844 261.534V215.047C287.844 210.767 284.374 207.297 280.094 207.297V206.797Z" fill="#2E2E2E"/>
<path d="M247.384 248.932H264.978C266.366 248.932 267.491 247.806 267.491 246.418V228.824C267.491 227.436 266.366 226.311 264.978 226.311H247.384C245.996 226.311 244.87 227.436 244.87 228.824V246.418C244.87 247.806 245.996 248.932 247.384 248.932ZM247.384 248.932L261.208 235.108L267.491 241.392M253.668 233.223C253.668 234.264 252.824 235.108 251.782 235.108C250.741 235.108 249.897 234.264 249.897 233.223C249.897 232.182 250.741 231.338 251.782 231.338C252.824 231.338 253.668 232.182 253.668 233.223Z" stroke="#707070" stroke-width="1.04321" stroke-linecap="round" stroke-linejoin="round"/>
<path d="M11 289.534C11 285.116 14.5817 281.534 19 281.534H65.4871C69.9054 281.534 73.4871 285.116 73.4871 289.534V336.021C73.4871 340.44 69.9054 344.021 65.4871 344.021H19C14.5817 344.021 11 340.44 11 336.021V289.534Z" fill="#1C1C1C"/>
<path d="M10.75 289.534C10.75 284.978 14.4437 281.284 19 281.284H65.4871C70.0435 281.284 73.7371 284.978 73.7371 289.534H73.2371C73.2371 285.254 69.7673 281.784 65.4871 281.784H19C14.7198 281.784 11.25 285.254 11.25 289.534H10.75ZM73.4871 344.021H11H73.4871ZM19 344.021C14.4437 344.021 10.75 340.328 10.75 335.771V289.534C10.75 284.978 14.4437 281.284 19 281.284V281.784C14.7198 281.784 11.25 285.254 11.25 289.534V336.021C11.25 340.44 14.7198 344.021 19 344.021ZM65.4871 281.284C70.0435 281.284 73.7371 284.978 73.7371 289.534V335.771C73.7371 340.328 70.0435 344.021 65.4871 344.021C69.7673 344.021 73.2371 340.44 73.2371 336.021V289.534C73.2371 285.254 69.7673 281.784 65.4871 281.784V281.284Z" fill="#2E2E2E"/>
<path d="M43.8362 300.798H34.7878C34.1878 300.798 33.6125 301.036 33.1882 301.46C32.764 301.885 32.5257 302.46 32.5257 303.06V321.157C32.5257 321.757 32.764 322.332 33.1882 322.756C33.6125 323.181 34.1878 323.419 34.7878 323.419H48.3604C48.9604 323.419 49.5357 323.181 49.96 322.756C50.3842 322.332 50.6225 321.757 50.6225 321.157V307.584M43.8362 300.798L50.6225 307.584M43.8362 300.798L43.8358 307.584H50.6225M46.0975 313.24H37.0491M46.0975 317.764H37.0491M39.3112 308.715H37.0491" stroke="#707070" stroke-width="0.904842" stroke-linecap="round" stroke-linejoin="round"/>
<path d="M82.5355 289.534C82.5355 285.116 86.1173 281.534 90.5355 281.534H137.023C141.441 281.534 145.023 285.116 145.023 289.534V336.021C145.023 340.44 141.441 344.021 137.023 344.021H90.5356C86.1173 344.021 82.5355 340.44 82.5355 336.021V289.534Z" fill="#1C1C1C"/>
<path d="M82.2855 289.534C82.2855 284.978 85.9792 281.284 90.5355 281.284H137.023C141.579 281.284 145.273 284.978 145.273 289.534H144.773C144.773 285.254 141.303 281.784 137.023 281.784H90.5355C86.2553 281.784 82.7855 285.254 82.7855 289.534H82.2855ZM145.023 344.021H82.5355H145.023ZM90.5355 344.021C85.9792 344.021 82.2855 340.328 82.2855 335.771V289.534C82.2855 284.978 85.9792 281.284 90.5355 281.284V281.784C86.2553 281.784 82.7855 285.254 82.7855 289.534V336.021C82.7855 340.44 86.2553 344.021 90.5355 344.021ZM137.023 281.284C141.579 281.284 145.273 284.978 145.273 289.534V335.771C145.273 340.328 141.579 344.021 137.023 344.021C141.303 344.021 144.773 340.44 144.773 336.021V289.534C144.773 285.254 141.303 281.784 137.023 281.784V281.284Z" fill="#2E2E2E"/>
<path d="M115.372 300.798H106.323C105.723 300.798 105.148 301.036 104.724 301.46C104.3 301.885 104.061 302.46 104.061 303.06V321.157C104.061 321.757 104.3 322.332 104.724 322.756C105.148 323.181 105.723 323.419 106.323 323.419H119.896C120.496 323.419 121.071 323.181 121.496 322.756C121.92 322.332 122.158 321.757 122.158 321.157V307.584M115.372 300.798L122.158 307.584M115.372 300.798L115.371 307.584H122.158M117.633 313.24H108.585M117.633 317.764H108.585M110.847 308.715H108.585" stroke="#707070" stroke-width="0.904842" stroke-linecap="round" stroke-linejoin="round"/>
<path d="M154.071 289.534C154.071 285.116 157.653 281.534 162.071 281.534H208.558C212.976 281.534 216.558 285.116 216.558 289.534V336.021C216.558 340.44 212.976 344.021 208.558 344.021H162.071C157.653 344.021 154.071 340.44 154.071 336.021V289.534Z" fill="#1C1C1C"/>
<path d="M153.821 289.534C153.821 284.978 157.515 281.284 162.071 281.284H208.558C213.115 281.284 216.808 284.978 216.808 289.534H216.308C216.308 285.254 212.838 281.784 208.558 281.784H162.071C157.791 281.784 154.321 285.254 154.321 289.534H153.821ZM216.558 344.021H154.071H216.558ZM162.071 344.021C157.515 344.021 153.821 340.328 153.821 335.771V289.534C153.821 284.978 157.515 281.284 162.071 281.284V281.784C157.791 281.784 154.321 285.254 154.321 289.534V336.021C154.321 340.44 157.791 344.021 162.071 344.021ZM208.558 281.284C213.115 281.284 216.808 284.978 216.808 289.534V335.771C216.808 340.328 213.115 344.021 208.558 344.021C212.838 344.021 216.308 340.44 216.308 336.021V289.534C216.308 285.254 212.838 281.784 208.558 281.784V281.284Z" fill="#2E2E2E"/>
<path d="M186.907 300.798H177.859C177.259 300.798 176.684 301.036 176.259 301.46C175.835 301.885 175.597 302.46 175.597 303.06V321.157C175.597 321.757 175.835 322.332 176.259 322.756C176.684 323.181 177.259 323.419 177.859 323.419H191.431C192.031 323.419 192.607 323.181 193.031 322.756C193.455 322.332 193.694 321.757 193.694 321.157V307.584M186.907 300.798L193.694 307.584M186.907 300.798L186.907 307.584H193.694M189.169 313.24H180.12M189.169 317.764H180.12M182.382 308.715H180.12" stroke="#707070" stroke-width="0.904842" stroke-linecap="round" stroke-linejoin="round"/>
<path d="M225.607 289.534C225.607 285.116 229.188 281.534 233.607 281.534H280.094C284.512 281.534 288.094 285.116 288.094 289.534V336.021C288.094 340.44 284.512 344.021 280.094 344.021H233.607C229.188 344.021 225.607 340.44 225.607 336.021V289.534Z" fill="#1C1C1C"/>
<path d="M225.357 289.534C225.357 284.978 229.05 281.284 233.607 281.284H280.094C284.65 281.284 288.344 284.978 288.344 289.534H287.844C287.844 285.254 284.374 281.784 280.094 281.784H233.607C229.326 281.784 225.857 285.254 225.857 289.534H225.357ZM288.094 344.021H225.607H288.094ZM233.607 344.021C229.05 344.021 225.357 340.328 225.357 335.771V289.534C225.357 284.978 229.05 281.284 233.607 281.284V281.784C229.326 281.784 225.857 285.254 225.857 289.534V336.021C225.857 340.44 229.326 344.021 233.607 344.021ZM280.094 281.284C284.65 281.284 288.344 284.978 288.344 289.534V335.771C288.344 340.328 284.65 344.021 280.094 344.021C284.374 344.021 287.844 340.44 287.844 336.021V289.534C287.844 285.254 284.374 281.784 280.094 281.784V281.284Z" fill="#2E2E2E"/>
<path d="M258.443 300.798H249.394C248.794 300.798 248.219 301.036 247.795 301.46C247.371 301.885 247.132 302.46 247.132 303.06V321.157C247.132 321.757 247.371 322.332 247.795 322.756C248.219 323.181 248.794 323.419 249.394 323.419H262.967C263.567 323.419 264.142 323.181 264.567 322.756C264.991 322.332 265.229 321.757 265.229 321.157V307.584M258.443 300.798L265.229 307.584M258.443 300.798L258.442 307.584H265.229M260.704 313.24H251.656M260.704 317.764H251.656M253.918 308.715H251.656" stroke="#707070" stroke-width="0.904842" stroke-linecap="round" stroke-linejoin="round"/>
<path d="M11 364.021C11 359.603 14.5817 356.021 19 356.021H65.4871C69.9054 356.021 73.4871 359.603 73.4871 364.021V410.508C73.4871 414.926 69.9054 418.508 65.4871 418.508H19C14.5817 418.508 11 414.926 11 410.508V364.021Z" fill="#1C1C1C"/>
<path d="M10.75 364.021C10.75 359.465 14.4437 355.771 19 355.771H65.4871C70.0435 355.771 73.7371 359.465 73.7371 364.021H73.2371C73.2371 359.741 69.7673 356.271 65.4871 356.271H19C14.7198 356.271 11.25 359.741 11.25 364.021H10.75ZM73.4871 418.508H11H73.4871ZM19 418.508C14.4437 418.508 10.75 414.814 10.75 410.258V364.021C10.75 359.465 14.4437 355.771 19 355.771V356.271C14.7198 356.271 11.25 359.741 11.25 364.021V410.508C11.25 414.926 14.7198 418.508 19 418.508ZM65.4871 355.771C70.0435 355.771 73.7371 359.465 73.7371 364.021V410.258C73.7371 414.814 70.0435 418.508 65.4871 418.508C69.7673 418.508 73.2371 414.926 73.2371 410.508V364.021C73.2371 359.741 69.7673 356.271 65.4871 356.271V355.771Z" fill="#2E2E2E"/>
<path d="M37.1488 393.636V378.381L51.2305 376.034V391.289M37.1488 393.636C37.1488 395.58 35.5727 397.157 33.6284 397.157C31.6842 397.157 30.108 395.58 30.108 393.636C30.108 391.692 31.6842 390.116 33.6284 390.116C35.5727 390.116 37.1488 391.692 37.1488 393.636ZM51.2305 391.289C51.2305 393.234 49.6543 394.81 47.7101 394.81C45.7658 394.81 44.1896 393.234 44.1896 391.289C44.1896 389.345 45.7658 387.769 47.7101 387.769C49.6543 387.769 51.2305 389.345 51.2305 391.289Z" stroke="#707070" stroke-width="0.904842" stroke-linecap="round" stroke-linejoin="round"/>
<path d="M82.5355 364.021C82.5355 359.603 86.1173 356.021 90.5355 356.021H137.023C141.441 356.021 145.023 359.603 145.023 364.021V410.508C145.023 414.926 141.441 418.508 137.023 418.508H90.5356C86.1173 418.508 82.5355 414.926 82.5355 410.508V364.021Z" fill="#1C1C1C"/>
<path d="M82.2855 364.021C82.2855 359.465 85.9792 355.771 90.5355 355.771H137.023C141.579 355.771 145.273 359.465 145.273 364.021H144.773C144.773 359.741 141.303 356.271 137.023 356.271H90.5355C86.2553 356.271 82.7855 359.741 82.7855 364.021H82.2855ZM145.023 418.508H82.5355H145.023ZM90.5355 418.508C85.9792 418.508 82.2855 414.814 82.2855 410.258V364.021C82.2855 359.465 85.9792 355.771 90.5355 355.771V356.271C86.2553 356.271 82.7855 359.741 82.7855 364.021V410.508C82.7855 414.926 86.2553 418.508 90.5355 418.508ZM137.023 355.771C141.579 355.771 145.273 359.465 145.273 364.021V410.258C145.273 414.814 141.579 418.508 137.023 418.508C141.303 418.508 144.773 414.926 144.773 410.508V364.021C144.773 359.741 141.303 356.271 137.023 356.271V355.771Z" fill="#2E2E2E"/>
<path d="M108.684 393.636V378.381L122.766 376.034V391.289M108.684 393.636C108.684 395.58 107.108 397.157 105.164 397.157C103.22 397.157 101.644 395.58 101.644 393.636C101.644 391.692 103.22 390.116 105.164 390.116C107.108 390.116 108.684 391.692 108.684 393.636ZM122.766 391.289C122.766 393.234 121.19 394.81 119.246 394.81C117.301 394.81 115.725 393.234 115.725 391.289C115.725 389.345 117.301 387.769 119.246 387.769C121.19 387.769 122.766 389.345 122.766 391.289Z" stroke="#707070" stroke-width="0.904842" stroke-linecap="round" stroke-linejoin="round"/>
<path d="M154.071 364.021C154.071 359.603 157.653 356.021 162.071 356.021H208.558C212.976 356.021 216.558 359.603 216.558 364.021V410.508C216.558 414.926 212.976 418.508 208.558 418.508H162.071C157.653 418.508 154.071 414.926 154.071 410.508V364.021Z" fill="#1C1C1C"/>
<path d="M153.821 364.021C153.821 359.465 157.515 355.771 162.071 355.771H208.558C213.115 355.771 216.808 359.465 216.808 364.021H216.308C216.308 359.741 212.838 356.271 208.558 356.271H162.071C157.791 356.271 154.321 359.741 154.321 364.021H153.821ZM216.558 418.508H154.071H216.558ZM162.071 418.508C157.515 418.508 153.821 414.814 153.821 410.258V364.021C153.821 359.465 157.515 355.771 162.071 355.771V356.271C157.791 356.271 154.321 359.741 154.321 364.021V410.508C154.321 414.926 157.791 418.508 162.071 418.508ZM208.558 355.771C213.115 355.771 216.808 359.465 216.808 364.021V410.258C216.808 414.814 213.115 418.508 208.558 418.508C212.838 418.508 216.308 414.926 216.308 410.508V364.021C216.308 359.741 212.838 356.271 208.558 356.271V355.771Z" fill="#2E2E2E"/>
<path d="M180.22 393.636V378.381L194.302 376.034V391.289M180.22 393.636C180.22 395.58 178.644 397.157 176.7 397.157C174.755 397.157 173.179 395.58 173.179 393.636C173.179 391.692 174.755 390.116 176.7 390.116C178.644 390.116 180.22 391.692 180.22 393.636ZM194.302 391.289C194.302 393.234 192.725 394.81 190.781 394.81C188.837 394.81 187.261 393.234 187.261 391.289C187.261 389.345 188.837 387.769 190.781 387.769C192.725 387.769 194.302 389.345 194.302 391.289Z" stroke="#707070" stroke-width="0.904842" stroke-linecap="round" stroke-linejoin="round"/>
<path d="M225.607 364.021C225.607 359.603 229.188 356.021 233.607 356.021H280.094C284.512 356.021 288.094 359.603 288.094 364.021V410.508C288.094 414.926 284.512 418.508 280.094 418.508H233.607C229.188 418.508 225.607 414.926 225.607 410.508V364.021Z" fill="#1C1C1C"/>
<path d="M225.357 364.021C225.357 359.465 229.05 355.771 233.607 355.771H280.094C284.65 355.771 288.344 359.465 288.344 364.021H287.844C287.844 359.741 284.374 356.271 280.094 356.271H233.607C229.326 356.271 225.857 359.741 225.857 364.021H225.357ZM288.094 418.508H225.607H288.094ZM233.607 418.508C229.05 418.508 225.357 414.814 225.357 410.258V364.021C225.357 359.465 229.05 355.771 233.607 355.771V356.271C229.326 356.271 225.857 359.741 225.857 364.021V410.508C225.857 414.926 229.326 418.508 233.607 418.508ZM280.094 355.771C284.65 355.771 288.344 359.465 288.344 364.021V410.258C288.344 414.814 284.65 418.508 280.094 418.508C284.374 418.508 287.844 414.926 287.844 410.508V364.021C287.844 359.741 284.374 356.271 280.094 356.271V355.771Z" fill="#2E2E2E"/>
<path d="M251.755 393.636V378.381L265.837 376.034V391.289M251.755 393.636C251.755 395.58 250.179 397.157 248.235 397.157C246.291 397.157 244.715 395.58 244.715 393.636C244.715 391.692 246.291 390.116 248.235 390.116C250.179 390.116 251.755 391.692 251.755 393.636ZM265.837 391.289C265.837 393.234 264.261 394.81 262.317 394.81C260.372 394.81 258.796 393.234 258.796 391.289C258.796 389.345 260.372 387.769 262.317 387.769C264.261 387.769 265.837 389.345 265.837 391.289Z" stroke="#707070" stroke-width="0.904842" stroke-linecap="round" stroke-linejoin="round"/>
<path d="M1 1.04688V0.546875H0.5V1.04688H1ZM299 1.04688H299.5V0.546875H299V1.04688ZM1 1.54688H299V0.546875H1V1.54688ZM298.5 1.04688V431.047H299.5V1.04688H298.5ZM1.5 431.047V1.04688H0.5V431.047H1.5Z" fill="#2E2E2E" mask="url(#path-1-outside-1_410_1798)"/>
</svg>
