<svg width="298" height="431" viewBox="0 0 298 431" fill="none" xmlns="http://www.w3.org/2000/svg">
<rect width="298" height="430" transform="translate(0 0.046875)" fill="#1C1C1C"/>
<path d="M10 214.047C10 209.629 13.5817 206.047 18 206.047H64.4871C68.9054 206.047 72.4871 209.629 72.4871 214.047V260.534C72.4871 264.952 68.9054 268.534 64.4871 268.534H18C13.5817 268.534 10 264.952 10 260.534V214.047Z" fill="#1C1C1C"/>
<path d="M9.75 214.047C9.75 209.491 13.4437 205.797 18 205.797H64.4871C69.0435 205.797 72.7371 209.491 72.7371 214.047H72.2371C72.2371 209.767 68.7673 206.297 64.4871 206.297H18C13.7198 206.297 10.25 209.767 10.25 214.047H9.75ZM72.4871 268.534H10H72.4871ZM18 268.534C13.4437 268.534 9.75 264.84 9.75 260.284V214.047C9.75 209.491 13.4437 205.797 18 205.797V206.297C13.7198 206.297 10.25 209.767 10.25 214.047V260.534C10.25 264.952 13.7198 268.534 18 268.534ZM64.4871 205.797C69.0435 205.797 72.7371 209.491 72.7371 214.047V260.284C72.7371 264.84 69.0435 268.534 64.4871 268.534C68.7673 268.534 72.2371 264.952 72.2371 260.534V214.047C72.2371 209.767 68.7673 206.297 64.4871 206.297V205.797Z" fill="#2E2E2E"/>
<path d="M31.7771 247.932H49.3713C50.7594 247.932 51.8847 246.806 51.8847 245.418V227.824C51.8847 226.436 50.7594 225.311 49.3713 225.311H31.7771C30.389 225.311 29.2637 226.436 29.2637 227.824V245.418C29.2637 246.806 30.389 247.932 31.7771 247.932ZM31.7771 247.932L45.6012 234.108L51.8848 240.392M38.0609 232.223C38.0609 233.264 37.2169 234.108 36.1758 234.108C35.1347 234.108 34.2908 233.264 34.2908 232.223C34.2908 231.182 35.1347 230.338 36.1758 230.338C37.2169 230.338 38.0609 231.182 38.0609 232.223Z" stroke="#707070" stroke-width="1.04321" stroke-linecap="round" stroke-linejoin="round"/>
<path d="M81.5355 214.047C81.5355 209.629 85.1173 206.047 89.5355 206.047H136.023C140.441 206.047 144.023 209.629 144.023 214.047V260.534C144.023 264.952 140.441 268.534 136.023 268.534H89.5356C85.1173 268.534 81.5355 264.952 81.5355 260.534V214.047Z" fill="#1C1C1C"/>
<path d="M81.2855 214.047C81.2855 209.491 84.9792 205.797 89.5355 205.797H136.023C140.579 205.797 144.273 209.491 144.273 214.047H143.773C143.773 209.767 140.303 206.297 136.023 206.297H89.5355C85.2553 206.297 81.7855 209.767 81.7855 214.047H81.2855ZM144.023 268.534H81.5355H144.023ZM89.5355 268.534C84.9792 268.534 81.2855 264.84 81.2855 260.284V214.047C81.2855 209.491 84.9792 205.797 89.5355 205.797V206.297C85.2553 206.297 81.7855 209.767 81.7855 214.047V260.534C81.7855 264.952 85.2553 268.534 89.5355 268.534ZM136.023 205.797C140.579 205.797 144.273 209.491 144.273 214.047V260.284C144.273 264.84 140.579 268.534 136.023 268.534C140.303 268.534 143.773 264.952 143.773 260.534V214.047C143.773 209.767 140.303 206.297 136.023 206.297V205.797Z" fill="#2E2E2E"/>
<path d="M103.313 247.932H120.907C122.295 247.932 123.42 246.806 123.42 245.418V227.824C123.42 226.436 122.295 225.311 120.907 225.311H103.313C101.925 225.311 100.799 226.436 100.799 227.824V245.418C100.799 246.806 101.925 247.932 103.313 247.932ZM103.313 247.932L117.137 234.108L123.42 240.392M109.596 232.223C109.596 233.264 108.752 234.108 107.711 234.108C106.67 234.108 105.826 233.264 105.826 232.223C105.826 231.182 106.67 230.338 107.711 230.338C108.752 230.338 109.596 231.182 109.596 232.223Z" stroke="#707070" stroke-width="1.04321" stroke-linecap="round" stroke-linejoin="round"/>
<path d="M153.071 214.047C153.071 209.629 156.653 206.047 161.071 206.047H207.558C211.976 206.047 215.558 209.629 215.558 214.047V260.534C215.558 264.952 211.976 268.534 207.558 268.534H161.071C156.653 268.534 153.071 264.952 153.071 260.534V214.047Z" fill="#1C1C1C"/>
<path d="M152.821 214.047C152.821 209.491 156.515 205.797 161.071 205.797H207.558C212.115 205.797 215.808 209.491 215.808 214.047H215.308C215.308 209.767 211.838 206.297 207.558 206.297H161.071C156.791 206.297 153.321 209.767 153.321 214.047H152.821ZM215.558 268.534H153.071H215.558ZM161.071 268.534C156.515 268.534 152.821 264.84 152.821 260.284V214.047C152.821 209.491 156.515 205.797 161.071 205.797V206.297C156.791 206.297 153.321 209.767 153.321 214.047V260.534C153.321 264.952 156.791 268.534 161.071 268.534ZM207.558 205.797C212.115 205.797 215.808 209.491 215.808 214.047V260.284C215.808 264.84 212.115 268.534 207.558 268.534C211.838 268.534 215.308 264.952 215.308 260.534V214.047C215.308 209.767 211.838 206.297 207.558 206.297V205.797Z" fill="#2E2E2E"/>
<path d="M174.848 247.932H192.442C193.831 247.932 194.956 246.806 194.956 245.418V227.824C194.956 226.436 193.831 225.311 192.442 225.311H174.848C173.46 225.311 172.335 226.436 172.335 227.824V245.418C172.335 246.806 173.46 247.932 174.848 247.932ZM174.848 247.932L188.672 234.108L194.956 240.392M181.132 232.223C181.132 233.264 180.288 234.108 179.247 234.108C178.206 234.108 177.362 233.264 177.362 232.223C177.362 231.182 178.206 230.338 179.247 230.338C180.288 230.338 181.132 231.182 181.132 232.223Z" stroke="#707070" stroke-width="1.04321" stroke-linecap="round" stroke-linejoin="round"/>
<path d="M224.607 214.047C224.607 209.629 228.188 206.047 232.607 206.047H279.094C283.512 206.047 287.094 209.629 287.094 214.047V260.534C287.094 264.952 283.512 268.534 279.094 268.534H232.607C228.188 268.534 224.607 264.952 224.607 260.534V214.047Z" fill="#1C1C1C"/>
<path d="M224.357 214.047C224.357 209.491 228.05 205.797 232.607 205.797H279.094C283.65 205.797 287.344 209.491 287.344 214.047H286.844C286.844 209.767 283.374 206.297 279.094 206.297H232.607C228.326 206.297 224.857 209.767 224.857 214.047H224.357ZM287.094 268.534H224.607H287.094ZM232.607 268.534C228.05 268.534 224.357 264.84 224.357 260.284V214.047C224.357 209.491 228.05 205.797 232.607 205.797V206.297C228.326 206.297 224.857 209.767 224.857 214.047V260.534C224.857 264.952 228.326 268.534 232.607 268.534ZM279.094 205.797C283.65 205.797 287.344 209.491 287.344 214.047V260.284C287.344 264.84 283.65 268.534 279.094 268.534C283.374 268.534 286.844 264.952 286.844 260.534V214.047C286.844 209.767 283.374 206.297 279.094 206.297V205.797Z" fill="#2E2E2E"/>
<path d="M246.384 247.932H263.978C265.366 247.932 266.491 246.806 266.491 245.418V227.824C266.491 226.436 265.366 225.311 263.978 225.311H246.384C244.996 225.311 243.87 226.436 243.87 227.824V245.418C243.87 246.806 244.996 247.932 246.384 247.932ZM246.384 247.932L260.208 234.108L266.491 240.392M252.668 232.223C252.668 233.264 251.824 234.108 250.782 234.108C249.741 234.108 248.897 233.264 248.897 232.223C248.897 231.182 249.741 230.338 250.782 230.338C251.824 230.338 252.668 231.182 252.668 232.223Z" stroke="#707070" stroke-width="1.04321" stroke-linecap="round" stroke-linejoin="round"/>
<path d="M10 288.534C10 284.116 13.5817 280.534 18 280.534H64.4871C68.9054 280.534 72.4871 284.116 72.4871 288.534V335.021C72.4871 339.44 68.9054 343.021 64.4871 343.021H18C13.5817 343.021 10 339.44 10 335.021V288.534Z" fill="#1C1C1C"/>
<path d="M9.75 288.534C9.75 283.978 13.4437 280.284 18 280.284H64.4871C69.0435 280.284 72.7371 283.978 72.7371 288.534H72.2371C72.2371 284.254 68.7673 280.784 64.4871 280.784H18C13.7198 280.784 10.25 284.254 10.25 288.534H9.75ZM72.4871 343.021H10H72.4871ZM18 343.021C13.4437 343.021 9.75 339.328 9.75 334.771V288.534C9.75 283.978 13.4437 280.284 18 280.284V280.784C13.7198 280.784 10.25 284.254 10.25 288.534V335.021C10.25 339.44 13.7198 343.021 18 343.021ZM64.4871 280.284C69.0435 280.284 72.7371 283.978 72.7371 288.534V334.771C72.7371 339.328 69.0435 343.021 64.4871 343.021C68.7673 343.021 72.2371 339.44 72.2371 335.021V288.534C72.2371 284.254 68.7673 280.784 64.4871 280.784V280.284Z" fill="#2E2E2E"/>
<path d="M42.8362 299.798H33.7878C33.1878 299.798 32.6125 300.036 32.1882 300.46C31.764 300.885 31.5257 301.46 31.5257 302.06V320.157C31.5257 320.757 31.764 321.332 32.1882 321.756C32.6125 322.181 33.1878 322.419 33.7878 322.419H47.3604C47.9604 322.419 48.5357 322.181 48.96 321.756C49.3842 321.332 49.6225 320.757 49.6225 320.157V306.584M42.8362 299.798L49.6225 306.584M42.8362 299.798L42.8358 306.584H49.6225M45.0975 312.24H36.0491M45.0975 316.764H36.0491M38.3112 307.715H36.0491" stroke="#707070" stroke-width="0.904842" stroke-linecap="round" stroke-linejoin="round"/>
<path d="M81.5355 288.534C81.5355 284.116 85.1173 280.534 89.5355 280.534H136.023C140.441 280.534 144.023 284.116 144.023 288.534V335.021C144.023 339.44 140.441 343.021 136.023 343.021H89.5356C85.1173 343.021 81.5355 339.44 81.5355 335.021V288.534Z" fill="#1C1C1C"/>
<path d="M81.2855 288.534C81.2855 283.978 84.9792 280.284 89.5355 280.284H136.023C140.579 280.284 144.273 283.978 144.273 288.534H143.773C143.773 284.254 140.303 280.784 136.023 280.784H89.5355C85.2553 280.784 81.7855 284.254 81.7855 288.534H81.2855ZM144.023 343.021H81.5355H144.023ZM89.5355 343.021C84.9792 343.021 81.2855 339.328 81.2855 334.771V288.534C81.2855 283.978 84.9792 280.284 89.5355 280.284V280.784C85.2553 280.784 81.7855 284.254 81.7855 288.534V335.021C81.7855 339.44 85.2553 343.021 89.5355 343.021ZM136.023 280.284C140.579 280.284 144.273 283.978 144.273 288.534V334.771C144.273 339.328 140.579 343.021 136.023 343.021C140.303 343.021 143.773 339.44 143.773 335.021V288.534C143.773 284.254 140.303 280.784 136.023 280.784V280.284Z" fill="#2E2E2E"/>
<path d="M114.372 299.798H105.323C104.723 299.798 104.148 300.036 103.724 300.46C103.3 300.885 103.061 301.46 103.061 302.06V320.157C103.061 320.757 103.3 321.332 103.724 321.756C104.148 322.181 104.723 322.419 105.323 322.419H118.896C119.496 322.419 120.071 322.181 120.496 321.756C120.92 321.332 121.158 320.757 121.158 320.157V306.584M114.372 299.798L121.158 306.584M114.372 299.798L114.371 306.584H121.158M116.633 312.24H107.585M116.633 316.764H107.585M109.847 307.715H107.585" stroke="#707070" stroke-width="0.904842" stroke-linecap="round" stroke-linejoin="round"/>
<path d="M153.071 288.534C153.071 284.116 156.653 280.534 161.071 280.534H207.558C211.976 280.534 215.558 284.116 215.558 288.534V335.021C215.558 339.44 211.976 343.021 207.558 343.021H161.071C156.653 343.021 153.071 339.44 153.071 335.021V288.534Z" fill="#1C1C1C"/>
<path d="M152.821 288.534C152.821 283.978 156.515 280.284 161.071 280.284H207.558C212.115 280.284 215.808 283.978 215.808 288.534H215.308C215.308 284.254 211.838 280.784 207.558 280.784H161.071C156.791 280.784 153.321 284.254 153.321 288.534H152.821ZM215.558 343.021H153.071H215.558ZM161.071 343.021C156.515 343.021 152.821 339.328 152.821 334.771V288.534C152.821 283.978 156.515 280.284 161.071 280.284V280.784C156.791 280.784 153.321 284.254 153.321 288.534V335.021C153.321 339.44 156.791 343.021 161.071 343.021ZM207.558 280.284C212.115 280.284 215.808 283.978 215.808 288.534V334.771C215.808 339.328 212.115 343.021 207.558 343.021C211.838 343.021 215.308 339.44 215.308 335.021V288.534C215.308 284.254 211.838 280.784 207.558 280.784V280.284Z" fill="#2E2E2E"/>
<path d="M185.907 299.798H176.859C176.259 299.798 175.684 300.036 175.259 300.46C174.835 300.885 174.597 301.46 174.597 302.06V320.157C174.597 320.757 174.835 321.332 175.259 321.756C175.684 322.181 176.259 322.419 176.859 322.419H190.431C191.031 322.419 191.607 322.181 192.031 321.756C192.455 321.332 192.694 320.757 192.694 320.157V306.584M185.907 299.798L192.694 306.584M185.907 299.798L185.907 306.584H192.694M188.169 312.24H179.12M188.169 316.764H179.12M181.382 307.715H179.12" stroke="#707070" stroke-width="0.904842" stroke-linecap="round" stroke-linejoin="round"/>
<path d="M224.607 288.534C224.607 284.116 228.188 280.534 232.607 280.534H279.094C283.512 280.534 287.094 284.116 287.094 288.534V335.021C287.094 339.44 283.512 343.021 279.094 343.021H232.607C228.188 343.021 224.607 339.44 224.607 335.021V288.534Z" fill="#1C1C1C"/>
<path d="M224.357 288.534C224.357 283.978 228.05 280.284 232.607 280.284H279.094C283.65 280.284 287.344 283.978 287.344 288.534H286.844C286.844 284.254 283.374 280.784 279.094 280.784H232.607C228.326 280.784 224.857 284.254 224.857 288.534H224.357ZM287.094 343.021H224.607H287.094ZM232.607 343.021C228.05 343.021 224.357 339.328 224.357 334.771V288.534C224.357 283.978 228.05 280.284 232.607 280.284V280.784C228.326 280.784 224.857 284.254 224.857 288.534V335.021C224.857 339.44 228.326 343.021 232.607 343.021ZM279.094 280.284C283.65 280.284 287.344 283.978 287.344 288.534V334.771C287.344 339.328 283.65 343.021 279.094 343.021C283.374 343.021 286.844 339.44 286.844 335.021V288.534C286.844 284.254 283.374 280.784 279.094 280.784V280.284Z" fill="#2E2E2E"/>
<path d="M257.443 299.798H248.394C247.794 299.798 247.219 300.036 246.795 300.46C246.371 300.885 246.132 301.46 246.132 302.06V320.157C246.132 320.757 246.371 321.332 246.795 321.756C247.219 322.181 247.794 322.419 248.394 322.419H261.967C262.567 322.419 263.142 322.181 263.567 321.756C263.991 321.332 264.229 320.757 264.229 320.157V306.584M257.443 299.798L264.229 306.584M257.443 299.798L257.442 306.584H264.229M259.704 312.24H250.656M259.704 316.764H250.656M252.918 307.715H250.656" stroke="#707070" stroke-width="0.904842" stroke-linecap="round" stroke-linejoin="round"/>
<path d="M10 363.021C10 358.603 13.5817 355.021 18 355.021H64.4871C68.9054 355.021 72.4871 358.603 72.4871 363.021V409.508C72.4871 413.926 68.9054 417.508 64.4871 417.508H18C13.5817 417.508 10 413.926 10 409.508V363.021Z" fill="#1C1C1C"/>
<path d="M9.75 363.021C9.75 358.465 13.4437 354.771 18 354.771H64.4871C69.0435 354.771 72.7371 358.465 72.7371 363.021H72.2371C72.2371 358.741 68.7673 355.271 64.4871 355.271H18C13.7198 355.271 10.25 358.741 10.25 363.021H9.75ZM72.4871 417.508H10H72.4871ZM18 417.508C13.4437 417.508 9.75 413.814 9.75 409.258V363.021C9.75 358.465 13.4437 354.771 18 354.771V355.271C13.7198 355.271 10.25 358.741 10.25 363.021V409.508C10.25 413.926 13.7198 417.508 18 417.508ZM64.4871 354.771C69.0435 354.771 72.7371 358.465 72.7371 363.021V409.258C72.7371 413.814 69.0435 417.508 64.4871 417.508C68.7673 417.508 72.2371 413.926 72.2371 409.508V363.021C72.2371 358.741 68.7673 355.271 64.4871 355.271V354.771Z" fill="#2E2E2E"/>
<path d="M36.1488 392.636V377.381L50.2305 375.034V390.289M36.1488 392.636C36.1488 394.58 34.5727 396.157 32.6284 396.157C30.6842 396.157 29.108 394.58 29.108 392.636C29.108 390.692 30.6842 389.116 32.6284 389.116C34.5727 389.116 36.1488 390.692 36.1488 392.636ZM50.2305 390.289C50.2305 392.234 48.6543 393.81 46.7101 393.81C44.7658 393.81 43.1896 392.234 43.1896 390.289C43.1896 388.345 44.7658 386.769 46.7101 386.769C48.6543 386.769 50.2305 388.345 50.2305 390.289Z" stroke="#707070" stroke-width="0.904842" stroke-linecap="round" stroke-linejoin="round"/>
<path d="M81.5355 363.021C81.5355 358.603 85.1173 355.021 89.5355 355.021H136.023C140.441 355.021 144.023 358.603 144.023 363.021V409.508C144.023 413.926 140.441 417.508 136.023 417.508H89.5356C85.1173 417.508 81.5355 413.926 81.5355 409.508V363.021Z" fill="#1C1C1C"/>
<path d="M81.2855 363.021C81.2855 358.465 84.9792 354.771 89.5355 354.771H136.023C140.579 354.771 144.273 358.465 144.273 363.021H143.773C143.773 358.741 140.303 355.271 136.023 355.271H89.5355C85.2553 355.271 81.7855 358.741 81.7855 363.021H81.2855ZM144.023 417.508H81.5355H144.023ZM89.5355 417.508C84.9792 417.508 81.2855 413.814 81.2855 409.258V363.021C81.2855 358.465 84.9792 354.771 89.5355 354.771V355.271C85.2553 355.271 81.7855 358.741 81.7855 363.021V409.508C81.7855 413.926 85.2553 417.508 89.5355 417.508ZM136.023 354.771C140.579 354.771 144.273 358.465 144.273 363.021V409.258C144.273 413.814 140.579 417.508 136.023 417.508C140.303 417.508 143.773 413.926 143.773 409.508V363.021C143.773 358.741 140.303 355.271 136.023 355.271V354.771Z" fill="#2E2E2E"/>
<path d="M107.684 392.636V377.381L121.766 375.034V390.289M107.684 392.636C107.684 394.58 106.108 396.157 104.164 396.157C102.22 396.157 100.644 394.58 100.644 392.636C100.644 390.692 102.22 389.116 104.164 389.116C106.108 389.116 107.684 390.692 107.684 392.636ZM121.766 390.289C121.766 392.234 120.19 393.81 118.246 393.81C116.301 393.81 114.725 392.234 114.725 390.289C114.725 388.345 116.301 386.769 118.246 386.769C120.19 386.769 121.766 388.345 121.766 390.289Z" stroke="#707070" stroke-width="0.904842" stroke-linecap="round" stroke-linejoin="round"/>
<path d="M153.071 363.021C153.071 358.603 156.653 355.021 161.071 355.021H207.558C211.976 355.021 215.558 358.603 215.558 363.021V409.508C215.558 413.926 211.976 417.508 207.558 417.508H161.071C156.653 417.508 153.071 413.926 153.071 409.508V363.021Z" fill="#1C1C1C"/>
<path d="M152.821 363.021C152.821 358.465 156.515 354.771 161.071 354.771H207.558C212.115 354.771 215.808 358.465 215.808 363.021H215.308C215.308 358.741 211.838 355.271 207.558 355.271H161.071C156.791 355.271 153.321 358.741 153.321 363.021H152.821ZM215.558 417.508H153.071H215.558ZM161.071 417.508C156.515 417.508 152.821 413.814 152.821 409.258V363.021C152.821 358.465 156.515 354.771 161.071 354.771V355.271C156.791 355.271 153.321 358.741 153.321 363.021V409.508C153.321 413.926 156.791 417.508 161.071 417.508ZM207.558 354.771C212.115 354.771 215.808 358.465 215.808 363.021V409.258C215.808 413.814 212.115 417.508 207.558 417.508C211.838 417.508 215.308 413.926 215.308 409.508V363.021C215.308 358.741 211.838 355.271 207.558 355.271V354.771Z" fill="#2E2E2E"/>
<path d="M179.22 392.636V377.381L193.302 375.034V390.289M179.22 392.636C179.22 394.58 177.644 396.157 175.7 396.157C173.755 396.157 172.179 394.58 172.179 392.636C172.179 390.692 173.755 389.116 175.7 389.116C177.644 389.116 179.22 390.692 179.22 392.636ZM193.302 390.289C193.302 392.234 191.725 393.81 189.781 393.81C187.837 393.81 186.261 392.234 186.261 390.289C186.261 388.345 187.837 386.769 189.781 386.769C191.725 386.769 193.302 388.345 193.302 390.289Z" stroke="#707070" stroke-width="0.904842" stroke-linecap="round" stroke-linejoin="round"/>
<path d="M224.607 363.021C224.607 358.603 228.188 355.021 232.607 355.021H279.094C283.512 355.021 287.094 358.603 287.094 363.021V409.508C287.094 413.926 283.512 417.508 279.094 417.508H232.607C228.188 417.508 224.607 413.926 224.607 409.508V363.021Z" fill="#1C1C1C"/>
<path d="M224.357 363.021C224.357 358.465 228.05 354.771 232.607 354.771H279.094C283.65 354.771 287.344 358.465 287.344 363.021H286.844C286.844 358.741 283.374 355.271 279.094 355.271H232.607C228.326 355.271 224.857 358.741 224.857 363.021H224.357ZM287.094 417.508H224.607H287.094ZM232.607 417.508C228.05 417.508 224.357 413.814 224.357 409.258V363.021C224.357 358.465 228.05 354.771 232.607 354.771V355.271C228.326 355.271 224.857 358.741 224.857 363.021V409.508C224.857 413.926 228.326 417.508 232.607 417.508ZM279.094 354.771C283.65 354.771 287.344 358.465 287.344 363.021V409.258C287.344 413.814 283.65 417.508 279.094 417.508C283.374 417.508 286.844 413.926 286.844 409.508V363.021C286.844 358.741 283.374 355.271 279.094 355.271V354.771Z" fill="#2E2E2E"/>
<path d="M250.755 392.636V377.381L264.837 375.034V390.289M250.755 392.636C250.755 394.58 249.179 396.157 247.235 396.157C245.291 396.157 243.715 394.58 243.715 392.636C243.715 390.692 245.291 389.116 247.235 389.116C249.179 389.116 250.755 390.692 250.755 392.636ZM264.837 390.289C264.837 392.234 263.261 393.81 261.317 393.81C259.372 393.81 257.796 392.234 257.796 390.289C257.796 388.345 259.372 386.769 261.317 386.769C263.261 386.769 264.837 388.345 264.837 390.289Z" stroke="#707070" stroke-width="0.904842" stroke-linecap="round" stroke-linejoin="round"/>
</svg>
