<svg width="390" height="430" viewBox="0 0 390 430" fill="none" xmlns="http://www.w3.org/2000/svg">
<g clip-path="url(#clip0_392_4161)">
<path d="M279.173 650.277L279.173 275.195" stroke="#EDEDED" stroke-width="0.502235"/>
<path d="M117.441 650.277L117.441 275.195" stroke="#EDEDED" stroke-width="0.502235"/>
<path d="M198.313 696.482L198.313 321.401" stroke="#EDEDED" stroke-width="0.502235"/>
<path opacity="0.8" d="M-227.715 468.123L196.012 219.457L619.285 470.366L-227.715 468.123Z" fill="#FCFCFC" stroke="#EDEDED" stroke-width="1.23671"/>
<ellipse cx="301.631" cy="222.602" rx="1.50671" ry="1.5067" fill="#B2B2B2"/>
<ellipse cx="326.643" cy="108.326" rx="2.51118" ry="2.49456" fill="#525252"/>
<ellipse cx="350.85" cy="222.602" rx="2.51118" ry="2.51117" fill="#B2B2B2"/>
<ellipse cx="89.6874" cy="176.412" rx="1.50671" ry="1.58432" fill="#13C575"/>
<ellipse cx="251.621" cy="92.2916" rx="1.00447" ry="1.00447" fill="#525252"/>
<ellipse cx="221.696" cy="103.573" rx="2.00894" ry="2.00894" fill="#EDEDED"/>
<ellipse cx="217.068" cy="249.2" rx="1.00447" ry="0.984361" fill="#13C575"/>
<ellipse cx="51.1448" cy="187.789" rx="4.01788" ry="4.01788" fill="#E2E2E2"/>
<ellipse cx="326.102" cy="238.157" rx="2.21297" ry="2.21297" fill="#EDEDED"/>
<ellipse cx="93.2023" cy="215.212" rx="2.00894" ry="2.00894" fill="#EDEDED"/>
<ellipse cx="298.62" cy="213.562" rx="1.50671" ry="1.5067" fill="#EDEDED"/>
<ellipse cx="332.81" cy="267.771" rx="2.51118" ry="2.51117" fill="#E2E2E2"/>
<ellipse cx="213.235" cy="199.429" rx="1.46477" ry="1.46477" fill="#13C575"/>
<ellipse cx="221.273" cy="266.826" rx="4.52012" ry="4.52011" fill="#B2B2B2"/>
<ellipse cx="290.08" cy="367.749" rx="1.00447" ry="1.00447" fill="#13C575"/>
<ellipse cx="137.699" cy="139.772" rx="1.50671" ry="1.5067" fill="#E2E2E2"/>
<ellipse cx="84.1627" cy="325.56" rx="1.00447" ry="1.00447" fill="#EDEDED"/>
<ellipse cx="229.31" cy="64.9007" rx="0.502531" ry="0.502531" fill="#B2B2B2"/>
<ellipse cx="93.6634" cy="309.991" rx="2.55305" ry="2.51117" fill="#13C575"/>
<ellipse cx="228.305" cy="108.093" rx="2.51118" ry="2.51117" fill="#525252"/>
<ellipse cx="29.9215" cy="256.252" rx="1.00447" ry="1.00447" fill="#E2E2E2"/>
<ellipse cx="140.212" cy="96.6016" rx="1.00447" ry="1.00447" fill="#13C575"/>
<ellipse cx="262.959" cy="36.2713" rx="1.00447" ry="1.00594" fill="#13C575"/>
<path d="M195.998 125.21L276.455 171.663V267.035L195.988 313.197L115.117 266.395V171.411L195.998 125.21Z" fill="white" fill-opacity="0.03"/>
<path d="M276.455 171.663L195.998 125.21L115.117 171.411M276.455 171.663V267.035L195.988 313.197M276.455 171.663L212.84 208.223L195.676 218.177M195.988 313.197L115.117 266.395V171.411M195.988 313.197L195.676 218.177M115.117 171.411L195.676 218.177" stroke="#707070" stroke-width="1.00447"/>
<path d="M205.479 166.713L284.927 238.157" stroke="#707070" stroke-width="1.00447" stroke-dasharray="0.5 2.01"/>
<path d="M216.45 151.371L260.8 116.631" stroke="#707070" stroke-width="1.00447" stroke-dasharray="0.5 2.01"/>
<ellipse cx="205.482" cy="166.712" rx="2.51118" ry="2.51117" fill="#13C575"/>
<ellipse cx="289.076" cy="240.369" rx="4.14553" ry="4.14552" fill="#13C575"/>
<ellipse cx="140.212" cy="242.004" rx="2.51118" ry="2.51117" fill="#13C575"/>
<ellipse cx="216.001" cy="151.754" rx="2.19201" ry="2.19201" transform="rotate(18.0323 216.001 151.754)" fill="#13C575"/>
<ellipse cx="260.8" cy="116.631" rx="2.51118" ry="2.51117" transform="rotate(18.0323 260.8 116.631)" fill="#13C575"/>
<path d="M94.4092 309.076L175.95 243.008" stroke="#707070" stroke-width="1.00447" stroke-dasharray="0.5 2.01"/>
<ellipse cx="175.95" cy="243.009" rx="3.51565" ry="3.51564" fill="#13C575"/>
</g>
<defs>
<clipPath id="clip0_392_4161">
<rect width="390" height="430" fill="white"/>
</clipPath>
</defs>
</svg>
