<svg width="620" height="431" viewBox="0 0 620 431" fill="none" xmlns="http://www.w3.org/2000/svg">
<g clip-path="url(#clip0_410_1857)">
<rect width="620" height="430" transform="translate(0 0.046875)" fill="#1C1C1C"/>
<g filter="url(#filter0_f_410_1857)">
<ellipse cx="61.0989" cy="58.7411" rx="61.0989" ry="58.7411" transform="matrix(1 0 0 -1 345.582 321.629)" fill="#85E0B7"/>
</g>
<path d="M111.264 382.609L406.735 221L701.072 382.609H111.264Z" fill="url(#paint0_linear_410_1857)"/>
<mask id="mask0_410_1857" style="mask-type:alpha" maskUnits="userSpaceOnUse" x="222" y="11" width="370" height="410">
<rect x="222.468" y="11.6016" width="368.546" height="409.176" fill="url(#paint1_radial_410_1857)"/>
</mask>
<g mask="url(#mask0_410_1857)">
<path d="M580.705 317.019V116.517L406.192 16.2657L231.68 116.517V317.019M580.705 317.019L406.192 417.27L231.68 317.019M580.705 317.019L407.074 221.371M231.68 317.019L407.074 221.371M407.074 221.371L407.074 21.0893M448.607 244.196V50.982M488.523 266.185V73.0549M533.529 290.978V99.7395M364.283 244.757V50.9819M325.858 265.682V73.1211M281.742 288.621V97.3587M232.356 272.815L406.694 174.161M232.356 224.526L406.694 125.872M232.356 178.087L406.694 79.4324M580.801 273.015L407.462 174.36M580.801 224.942L407.462 125.288M580.801 175.287L407.462 79.6322" stroke="#7E7E7E" stroke-width="0.5"/>
</g>
<ellipse cx="514" cy="228.602" rx="1.5" ry="1.4925" fill="#707070"/>
<circle cx="382.971" cy="61.6354" r="2.29163" fill="#1C1C1C"/>
<ellipse cx="554.906" cy="219.48" rx="2.54695" ry="2.53421" fill="#707070"/>
<ellipse cx="471.586" cy="226.053" rx="2" ry="1.99" fill="#00FFA7"/>
<ellipse cx="281.539" cy="159.979" rx="1" ry="0.995" fill="#00FFA7"/>
<ellipse cx="383.109" cy="248.399" rx="3" ry="2.985" fill="#00FFA7"/>
<ellipse cx="485.914" cy="85.7528" rx="1" ry="0.995" fill="#707070"/>
<ellipse cx="425.812" cy="116.138" rx="2" ry="1.99" fill="#1C1C1C"/>
<ellipse cx="354.586" cy="99.4691" rx="1.5" ry="1.4925" fill="#1C1C1C"/>
<ellipse cx="318.836" cy="344.011" rx="1" ry="0.995" fill="#00FFA7"/>
<ellipse cx="517.57" cy="149.795" rx="2" ry="1.99" fill="#00FFA7"/>
<ellipse cx="422.555" cy="230.136" rx="1" ry="0.995" fill="#00FFA7"/>
<ellipse cx="314.757" cy="216.188" rx="4.07979" ry="4.05939" fill="#1C1C1C"/>
<ellipse cx="501.08" cy="250.106" rx="4.07979" ry="4.05939" fill="#1C1C1C"/>
<ellipse cx="306.597" cy="222.958" rx="1.7122" ry="1.70364" fill="#1C1C1C"/>
<ellipse cx="505.712" cy="211.751" rx="1.7122" ry="1.70364" fill="#1C1C1C"/>
<circle cx="552.604" cy="298.542" r="2.29163" fill="#1C1C1C"/>
<ellipse cx="309.109" cy="100.982" rx="2" ry="1.99" fill="#00FFA7"/>
<circle cx="297.135" cy="206.018" r="4.401" fill="#707070"/>
<ellipse cx="544.177" cy="100.002" rx="2.036" ry="2.02582" fill="#1C1C1C"/>
<ellipse cx="487.945" cy="346.05" rx="1" ry="0.995" fill="#00FFA7"/>
<ellipse cx="511.961" cy="303.344" rx="1.5" ry="1.4925" fill="#00FFA7"/>
<circle cx="342.096" cy="244.651" r="2.29163" fill="#00FFA7"/>
<ellipse cx="362.766" cy="137.094" rx="1.5" ry="1.4925" fill="#707070"/>
<ellipse cx="297.883" cy="320.636" rx="1" ry="0.995" fill="#1C1C1C"/>
<ellipse cx="438.406" cy="67.9741" rx="0.5" ry="0.4975" fill="#707070"/>
<ellipse cx="315.781" cy="295.737" rx="2.54695" ry="2.53421" fill="#00FFA7"/>
<ellipse cx="437.391" cy="109.667" rx="2.54695" ry="2.53421" fill="#1C1C1C"/>
<ellipse cx="450.161" cy="140.674" rx="2.036" ry="2.02582" fill="#1C1C1C"/>
<ellipse cx="246.789" cy="251.487" rx="1" ry="0.995" fill="#707070"/>
<ellipse cx="296.195" cy="91.2528" rx="1" ry="0.995" fill="#00FFA7"/>
<circle cx="265.214" cy="310.745" r="2.29163" fill="#1C1C1C"/>
<ellipse cx="434.297" cy="212.719" rx="1.5" ry="1.4925" fill="#00FFA7"/>
<ellipse cx="406.222" cy="184.394" rx="3.0579" ry="3.04261" fill="#00FFA7"/>
<ellipse cx="379.617" cy="168.779" rx="2" ry="1.99" fill="#00FFA7"/>
<ellipse cx="393.888" cy="272.862" rx="2.036" ry="2.02582" fill="#00FFA7"/>
<ellipse cx="464.109" cy="55.9247" rx="1" ry="0.995" fill="#00FFA7"/>
<ellipse cx="372.52" cy="206.185" rx="4.59073" ry="4.56778" fill="#00FFA7"/>
<ellipse cx="421.805" cy="265.355" rx="2.5" ry="2.4875" fill="#00FFA7"/>
<mask id="mask1_410_1857" style="mask-type:alpha" maskUnits="userSpaceOnUse" x="326" y="171" width="82" height="142">
<path d="M407.253 218.791L326.125 171.969L326.512 265.295L407.253 312.08V218.791Z" fill="url(#paint2_linear_410_1857)"/>
</mask>
<g mask="url(#mask1_410_1857)">
<path d="M407.253 218.791L326.125 171.969L326.512 265.295L407.253 312.08V218.791Z" fill="#072719"/>
</g>
<mask id="mask2_410_1857" style="mask-type:alpha" maskUnits="userSpaceOnUse" x="407" y="171" width="82" height="142">
<path d="M407.019 218.785L488.188 171.789V265.199L407.376 312.273L407.019 218.785Z" fill="url(#paint3_linear_410_1857)"/>
</mask>
<g mask="url(#mask2_410_1857)">
<path d="M407.019 218.785L488.188 171.789V265.199L407.376 312.273L407.019 218.785Z" fill="#072719"/>
</g>
<mask id="mask3_410_1857" style="mask-type:alpha" maskUnits="userSpaceOnUse" x="326" y="126" width="161" height="93">
<path d="M407.229 218.777L326.781 172.379L407.106 126.004L486.932 172.104L407.229 218.777Z" fill="url(#paint4_linear_410_1857)"/>
</mask>
<g mask="url(#mask3_410_1857)">
<path d="M407.229 218.777L326.781 172.379L407.106 126.004L486.932 172.104L407.229 218.777Z" fill="#072719"/>
</g>
<path d="M407.386 125.344L488.246 172.029V265.399L407.386 312.084L326.525 265.399V172.029L407.386 125.344Z" stroke="#3FCF8E"/>
<g filter="url(#filter1_f_410_1857)">
<path d="M407.023 125.711L487.726 172.305V265.492L407.023 312.086L326.321 265.492V172.305L407.023 125.711Z" stroke="#3FCF8E" stroke-width="1.48" stroke-linejoin="bevel"/>
</g>
</g>
<defs>
<filter id="filter0_f_410_1857" x="172.239" y="30.8036" width="468.885" height="464.169" filterUnits="userSpaceOnUse" color-interpolation-filters="sRGB">
<feFlood flood-opacity="0" result="BackgroundImageFix"/>
<feBlend mode="normal" in="SourceGraphic" in2="BackgroundImageFix" result="shape"/>
<feGaussianBlur stdDeviation="86.6717" result="effect1_foregroundBlur_410_1857"/>
</filter>
<filter id="filter1_f_410_1857" x="318.701" y="118.19" width="176.645" height="201.416" filterUnits="userSpaceOnUse" color-interpolation-filters="sRGB">
<feFlood flood-opacity="0" result="BackgroundImageFix"/>
<feBlend mode="normal" in="SourceGraphic" in2="BackgroundImageFix" result="shape"/>
<feGaussianBlur stdDeviation="3.44" result="effect1_foregroundBlur_410_1857"/>
</filter>
<linearGradient id="paint0_linear_410_1857" x1="404.743" y1="263.052" x2="404.743" y2="317.177" gradientUnits="userSpaceOnUse">
<stop stop-color="white" stop-opacity="0.1"/>
<stop offset="1" stop-color="#5D6167" stop-opacity="0"/>
</linearGradient>
<radialGradient id="paint1_radial_410_1857" cx="0" cy="0" r="1" gradientUnits="userSpaceOnUse" gradientTransform="translate(406.741 216.19) rotate(90) scale(174.952 157.579)">
<stop stop-color="white"/>
<stop offset="1" stop-color="white" stop-opacity="0"/>
</radialGradient>
<linearGradient id="paint2_linear_410_1857" x1="339.889" y1="249.972" x2="421.314" y2="209.26" gradientUnits="userSpaceOnUse">
<stop stop-color="white"/>
<stop offset="1" stop-color="white" stop-opacity="0"/>
</linearGradient>
<linearGradient id="paint3_linear_410_1857" x1="447.603" y1="171.789" x2="447.603" y2="312.273" gradientUnits="userSpaceOnUse">
<stop stop-color="white"/>
<stop offset="1" stop-color="white" stop-opacity="0"/>
</linearGradient>
<linearGradient id="paint4_linear_410_1857" x1="366.277" y1="163.274" x2="454.487" y2="203.986" gradientUnits="userSpaceOnUse">
<stop stop-color="white"/>
<stop offset="1" stop-color="white" stop-opacity="0"/>
</linearGradient>
<clipPath id="clip0_410_1857">
<rect width="620" height="430" fill="white" transform="translate(0 0.046875)"/>
</clipPath>
</defs>
</svg>
