<svg width="300" height="430" viewBox="0 0 300 430" fill="none" xmlns="http://www.w3.org/2000/svg">
<g clip-path="url(#clip0_467_4822)">
<rect width="300" height="430" fill="#1C1C1C"/>
<g filter="url(#filter0_f_467_4822)">
<ellipse cx="162" cy="155.6" rx="162" ry="155.6" transform="matrix(1 0 0 -1 -12 484.255)" fill="url(#paint0_radial_467_4822)"/>
</g>
<path d="M-86 423.105L150.377 293.818L385.846 423.105H-86Z" fill="url(#paint1_linear_467_4822)"/>
<circle cx="239.826" cy="302.256" r="1.2" fill="#707070"/>
<ellipse cx="131.026" cy="163.455" rx="2" ry="1.6" fill="#1C1C1C"/>
<circle cx="273.426" cy="294.256" r="2" fill="#707070"/>
<ellipse cx="37.4257" cy="240.256" rx="1.2" ry="0.8" fill="#3FCF8E"/>
<circle cx="216.226" cy="183.456" r="0.8" fill="#707070"/>
<circle cx="165.826" cy="208.256" r="1.6" fill="#1C1C1C"/>
<ellipse cx="107.826" cy="194.656" rx="1.2" ry="1.6" fill="#1C1C1C"/>
<ellipse cx="71.4257" cy="407.856" rx="0.8" ry="1.2" fill="#3FCF8E"/>
<ellipse cx="251.826" cy="231.455" rx="2" ry="1.6" fill="#3FCF8E"/>
<circle cx="74.6258" cy="290.656" r="3.2" fill="#1C1C1C"/>
<circle cx="227.826" cy="318.256" r="3.6" fill="#1C1C1C"/>
<circle cx="68.2257" cy="296.256" r="1.6" fill="#1C1C1C"/>
<circle cx="231.826" cy="287.055" r="1.2" fill="#1C1C1C"/>
<circle cx="270.226" cy="358.256" r="2" fill="#1C1C1C"/>
<circle cx="62.2257" cy="187.056" r="2" fill="#3FCF8E"/>
<circle cx="59.8257" cy="283.056" r="3.6" fill="#707070"/>
<ellipse cx="263.426" cy="195.056" rx="1.6" ry="2" fill="#1C1C1C"/>
<circle cx="225.026" cy="409.856" r="0.8" fill="#3FCF8E"/>
<ellipse cx="246.626" cy="371.055" rx="1.6" ry="1.2" fill="#3FCF8E"/>
<circle cx="114.226" cy="226.256" r="1.2" fill="#707070"/>
<circle cx="61.0257" cy="376.256" r="0.8" fill="#1C1C1C"/>
<circle cx="176.626" cy="168.656" r="0.4" fill="#707070"/>
<ellipse cx="68.2258" cy="363.855" rx="2.4" ry="2" fill="#3FCF8E"/>
<circle cx="175.826" cy="203.056" r="2" fill="#1C1C1C"/>
<circle cx="185.826" cy="228.256" r="1.6" fill="#1C1C1C"/>
<circle cx="17.8258" cy="321.056" r="0.8" fill="#707070"/>
<circle cx="50.6258" cy="177.856" r="0.8" fill="#3FCF8E"/>
<ellipse cx="34.2257" cy="368.256" rx="2" ry="1.6" fill="#1C1C1C"/>
<circle cx="203.426" cy="145.856" r="0.8" fill="#3FCF8E"/>
<circle cx="210.226" cy="300.655" r="2" fill="#3FCF8E"/>
<ellipse cx="165.426" cy="304.255" rx="1.2" ry="0.8" fill="#3FCF8E"/>
<circle cx="92.6257" cy="317.455" r="2" fill="#3FCF8E"/>
<ellipse cx="176.226" cy="288.655" rx="1.6" ry="1.2" fill="#3FCF8E"/>
<circle cx="151.026" cy="263.055" r="2.8" fill="#3FCF8E"/>
<ellipse cx="126.626" cy="248.655" rx="1.6" ry="2" fill="#3FCF8E"/>
<ellipse cx="139.426" cy="343.055" rx="1.6" ry="2" fill="#3FCF8E"/>
<circle cx="120.226" cy="282.655" r="4" fill="#3FCF8E"/>
<circle cx="165.026" cy="336.255" r="2.4" fill="#3FCF8E"/>
<ellipse cx="119.426" cy="328.243" rx="2.4" ry="2.388" fill="#3FCF8E"/>
<mask id="mask0_467_4822" style="mask-type:alpha" maskUnits="userSpaceOnUse" x="3" y="126" width="295" height="328">
<rect x="3" y="126.299" width="294.837" height="327.341" fill="url(#paint2_radial_467_4822)"/>
</mask>
<g mask="url(#mask0_467_4822)">
<path d="M289.589 370.633V210.231L149.98 130.03L10.3695 210.231V370.633M289.589 370.633L149.98 450.834L10.3695 370.633M289.589 370.633L150.685 294.114M10.3695 370.633L150.685 294.114M150.685 294.114L150.685 133.889M183.911 312.375V157.803M215.844 329.966V175.462M251.849 349.8V196.809M116.452 312.824V157.803M85.7123 329.563V175.515M50.419 347.914V194.905M10.9103 335.27L150.381 256.346M10.9103 296.639L150.381 217.715M10.9103 259.487L150.381 180.564M289.666 335.429L150.995 256.506M289.666 296.971L150.995 217.248M289.666 257.247L150.995 180.723" stroke="#7E7E7E" stroke-width="0.4"/>
</g>
<mask id="mask1_467_4822" style="mask-type:alpha" maskUnits="userSpaceOnUse" x="85" y="254" width="66" height="113">
<path d="M150.828 292.051L85.9258 254.593L86.2355 329.253L150.828 366.682V292.051Z" fill="url(#paint3_linear_467_4822)"/>
</mask>
<g mask="url(#mask1_467_4822)">
<path d="M150.828 292.051L85.9258 254.593L86.2355 329.253L150.828 366.682V292.051Z" fill="#1C1C1C"/>
</g>
<mask id="mask2_467_4822" style="mask-type:alpha" maskUnits="userSpaceOnUse" x="150" y="254" width="66" height="113">
<path d="M150.641 292.046L215.576 254.449V329.177L150.927 366.837L150.641 292.046Z" fill="url(#paint4_linear_467_4822)"/>
</mask>
<g mask="url(#mask2_467_4822)">
<path d="M150.641 292.046L215.576 254.449V329.177L150.927 366.837L150.641 292.046Z" fill="#1C1C1C"/>
</g>
<mask id="mask3_467_4822" style="mask-type:alpha" maskUnits="userSpaceOnUse" x="86" y="217" width="129" height="76">
<path d="M150.809 292.039L86.4508 254.921L150.71 217.821L214.571 254.701L150.809 292.039Z" fill="url(#paint5_linear_467_4822)"/>
</mask>
<g mask="url(#mask3_467_4822)">
<path d="M150.809 292.039L86.4508 254.921L150.71 217.821L214.571 254.701L150.809 292.039Z" fill="#1C1C1C"/>
</g>
<mask id="mask4_467_4822" style="mask-type:alpha" maskUnits="userSpaceOnUse" x="78" y="208" width="146" height="168">
<path d="M151.026 208.255L223.426 250.055V333.655L151.026 375.455L78.6261 333.655V250.055L151.026 208.255Z" fill="url(#paint6_linear_467_4822)"/>
</mask>
<g mask="url(#mask4_467_4822)">
<path d="M150.934 217.293L215.623 254.641V329.337L150.934 366.685L86.2457 329.337V254.641L150.934 217.293Z" stroke="#3FCF8E" stroke-width="0.8"/>
<g filter="url(#filter1_f_467_4822)">
<path d="M150.644 217.586L215.207 254.861V329.411L150.644 366.686L86.0823 329.411V254.861L150.644 217.586Z" stroke="#3FCF8E" stroke-width="1.6" stroke-linejoin="bevel"/>
</g>
</g>
<ellipse cx="121.826" cy="326.643" rx="2.4" ry="2.388" fill="#3FCF8E"/>
</g>
<defs>
<filter id="filter0_f_467_4822" x="-44" y="141.055" width="388" height="375.2" filterUnits="userSpaceOnUse" color-interpolation-filters="sRGB">
<feFlood flood-opacity="0" result="BackgroundImageFix"/>
<feBlend mode="normal" in="SourceGraphic" in2="BackgroundImageFix" result="shape"/>
<feGaussianBlur stdDeviation="16" result="effect1_foregroundBlur_467_4822"/>
</filter>
<filter id="filter1_f_467_4822" x="79.7783" y="211.39" width="141.732" height="161.494" filterUnits="userSpaceOnUse" color-interpolation-filters="sRGB">
<feFlood flood-opacity="0" result="BackgroundImageFix"/>
<feBlend mode="normal" in="SourceGraphic" in2="BackgroundImageFix" result="shape"/>
<feGaussianBlur stdDeviation="2.752" result="effect1_foregroundBlur_467_4822"/>
</filter>
<radialGradient id="paint0_radial_467_4822" cx="0" cy="0" r="1" gradientUnits="userSpaceOnUse" gradientTransform="translate(162 155.6) rotate(90) scale(155.6 162)">
<stop stop-color="#85E0B7" stop-opacity="0.5"/>
<stop offset="0.276042" stop-color="#85E0B7" stop-opacity="0.25"/>
<stop offset="0.71875" stop-color="#85E0B7" stop-opacity="0.07"/>
<stop offset="1" stop-color="#85E0B7" stop-opacity="0"/>
</radialGradient>
<linearGradient id="paint1_linear_467_4822" x1="148.784" y1="327.459" x2="148.784" y2="370.76" gradientUnits="userSpaceOnUse">
<stop stop-color="white" stop-opacity="0.1"/>
<stop offset="1" stop-color="#5D6167" stop-opacity="0"/>
</linearGradient>
<radialGradient id="paint2_radial_467_4822" cx="0" cy="0" r="1" gradientUnits="userSpaceOnUse" gradientTransform="translate(150.418 289.97) rotate(90) scale(139.961 126.063)">
<stop stop-color="white"/>
<stop offset="1" stop-color="white" stop-opacity="0"/>
</radialGradient>
<linearGradient id="paint3_linear_467_4822" x1="96.9373" y1="316.996" x2="162.077" y2="284.426" gradientUnits="userSpaceOnUse">
<stop stop-color="white"/>
<stop offset="1" stop-color="white" stop-opacity="0"/>
</linearGradient>
<linearGradient id="paint4_linear_467_4822" x1="183.108" y1="254.449" x2="183.108" y2="366.837" gradientUnits="userSpaceOnUse">
<stop stop-color="white"/>
<stop offset="1" stop-color="white" stop-opacity="0"/>
</linearGradient>
<linearGradient id="paint5_linear_467_4822" x1="118.047" y1="247.637" x2="188.616" y2="280.207" gradientUnits="userSpaceOnUse">
<stop stop-color="white"/>
<stop offset="1" stop-color="white" stop-opacity="0"/>
</linearGradient>
<linearGradient id="paint6_linear_467_4822" x1="151.026" y1="208.255" x2="151.026" y2="375.455" gradientUnits="userSpaceOnUse">
<stop stop-color="#D9D9D9"/>
<stop offset="1" stop-color="#D9D9D9" stop-opacity="0"/>
</linearGradient>
<clipPath id="clip0_467_4822">
<rect width="300" height="430" fill="white"/>
</clipPath>
</defs>
</svg>
