<svg xmlns="http://www.w3.org/2000/svg" width="390" height="430" fill="none" viewBox="0 0 390 430"><g clip-path="url(#a)"><path stroke="#2e2e2e" stroke-width=".502" d="M279.173 650.277V275.195M117.441 650.277V275.195M198.313 696.482V321.401"/><path fill="#232323" stroke="#2e2e2e" stroke-width="1.237" d="m-227.715 468.123 423.727-248.666 423.273 250.909z" opacity=".8"/><circle cx="301.631" cy="222.602" r="1.507" fill="#707070"/><ellipse cx="326.643" cy="108.326" fill="#a0a0a0" rx="2.511" ry="2.495"/><circle cx="350.85" cy="222.602" r="2.511" fill="#707070"/><ellipse cx="89.687" cy="176.412" fill="#3fcf8e" rx="1.507" ry="1.584"/><circle cx="251.621" cy="92.292" r="1.004" fill="#a0a0a0"/><circle cx="221.696" cy="103.573" r="2.009" fill="#2e2e2e"/><ellipse cx="217.068" cy="249.2" fill="#3fcf8e" rx="1.004" ry=".984"/><circle cx="51.145" cy="187.789" r="4.018" fill="#3e3e3e"/><circle cx="326.102" cy="238.157" r="2.213" fill="#2e2e2e"/><circle cx="93.202" cy="215.212" r="2.009" fill="#2e2e2e"/><circle cx="298.62" cy="213.562" r="1.507" fill="#2e2e2e"/><circle cx="332.81" cy="267.771" r="2.511" fill="#3e3e3e"/><circle cx="213.235" cy="199.429" r="1.465" fill="#3fcf8e"/><circle cx="221.273" cy="266.826" r="4.52" fill="#707070"/><circle cx="290.08" cy="367.749" r="1.004" fill="#3fcf8e"/><circle cx="137.699" cy="139.772" r="1.507" fill="#3e3e3e"/><circle cx="84.163" cy="325.56" r="1.004" fill="#2e2e2e"/><circle cx="229.31" cy="64.901" r=".503" fill="#707070"/><ellipse cx="93.663" cy="309.991" fill="#3fcf8e" rx="2.553" ry="2.511"/><circle cx="228.305" cy="108.093" r="2.511" fill="#a0a0a0"/><circle cx="29.922" cy="256.252" r="1.004" fill="#3e3e3e"/><circle cx="140.212" cy="96.602" r="1.004" fill="#3fcf8e"/><ellipse cx="262.959" cy="36.271" fill="#3fcf8e" rx="1.004" ry="1.006"/><path fill="#fff" fill-opacity=".03" d="m195.998 125.21 80.457 46.453v95.372l-80.467 46.162-80.871-46.802v-94.984z"/><path stroke="#7e7e7e" stroke-width="1.004" d="m276.455 171.663-80.457-46.453-80.881 46.201m161.338.252v95.372l-80.467 46.162m80.467-141.534-63.615 36.56-17.164 9.954m.312 95.02-80.871-46.802v-94.984m80.871 141.786-.312-95.02m-80.559-46.766 80.559 46.766"/><path stroke="#7e7e7e" stroke-dasharray="0.5 2.01" stroke-width="1.004" d="m205.479 166.713 79.448 71.444M216.45 151.371l44.35-34.74"/><circle cx="205.482" cy="166.712" r="2.511" fill="#3fcf8e"/><circle cx="289.076" cy="240.369" r="4.146" fill="#3fcf8e"/><circle cx="140.212" cy="242.004" r="2.511" fill="#3fcf8e"/><circle cx="216.001" cy="151.754" r="2.192" fill="#3fcf8e" transform="rotate(18.032 216.001 151.754)"/><circle cx="260.8" cy="116.631" r="2.511" fill="#3fcf8e" transform="rotate(18.032 260.8 116.631)"/><path stroke="#7e7e7e" stroke-dasharray="0.5 2.01" stroke-width="1.004" d="m94.41 309.076 81.54-66.068"/><circle cx="175.95" cy="243.009" r="3.516" fill="#3fcf8e"/></g><defs><clipPath id="a"><path fill="#fff" d="M0 0h390v430H0z"/></clipPath></defs></svg>