<svg width="622" height="432" viewBox="0 0 622 432" fill="none" xmlns="http://www.w3.org/2000/svg">
<g clip-path="url(#clip0_410_1857)">
<mask id="path-1-outside-1_410_1857" maskUnits="userSpaceOnUse" x="0" y="0.046875" width="622" height="431" fill="black">
<rect fill="white" y="0.046875" width="622" height="431"/>
<path d="M1 1.04688H621V431.047H1V1.04688Z"/>
</mask>
<path d="M1 1.04688H621V431.047H1V1.04688Z" fill="#1C1C1C"/>
<g filter="url(#filter0_f_410_1857)">
<ellipse cx="61.0989" cy="58.7411" rx="61.0989" ry="58.7411" transform="matrix(1 0 0 -1 346.582 322.629)" fill="#85E0B7"/>
</g>
<path d="M112.264 383.609L407.735 222L702.072 383.609H112.264Z" fill="url(#paint0_linear_410_1857)"/>
<mask id="mask0_410_1857" style="mask-type:alpha" maskUnits="userSpaceOnUse" x="223" y="12" width="370" height="410">
<rect x="223.468" y="12.6016" width="368.546" height="409.176" fill="url(#paint1_radial_410_1857)"/>
</mask>
<g mask="url(#mask0_410_1857)">
<path d="M581.705 318.019V117.517L407.192 17.2657L232.68 117.517V318.019M581.705 318.019L407.192 418.27L232.68 318.019M581.705 318.019L408.074 222.371M232.68 318.019L408.074 222.371M408.074 222.371L408.074 22.0893M449.607 245.196V51.982M489.523 267.185V74.0549M534.529 291.978V100.739M365.283 245.757V51.9819M326.858 266.682V74.1211M282.742 289.621V98.3587M233.356 273.815L407.694 175.161M233.356 225.526L407.694 126.872M233.356 179.087L407.694 80.4324M581.801 274.015L408.462 175.36M581.801 225.942L408.462 126.288M581.801 176.287L408.462 80.6322" stroke="#7E7E7E" stroke-width="0.5"/>
</g>
<ellipse cx="515" cy="229.602" rx="1.5" ry="1.4925" fill="#707070"/>
<circle cx="383.971" cy="62.6354" r="2.29163" fill="#1C1C1C"/>
<ellipse cx="555.906" cy="220.48" rx="2.54695" ry="2.53421" fill="#707070"/>
<ellipse cx="472.586" cy="227.053" rx="2" ry="1.99" fill="#00FFA7"/>
<ellipse cx="282.539" cy="160.979" rx="1" ry="0.995" fill="#00FFA7"/>
<ellipse cx="384.109" cy="249.399" rx="3" ry="2.985" fill="#00FFA7"/>
<ellipse cx="486.914" cy="86.7528" rx="1" ry="0.995" fill="#707070"/>
<ellipse cx="426.812" cy="117.138" rx="2" ry="1.99" fill="#1C1C1C"/>
<ellipse cx="355.586" cy="100.469" rx="1.5" ry="1.4925" fill="#1C1C1C"/>
<ellipse cx="319.836" cy="345.011" rx="1" ry="0.995" fill="#00FFA7"/>
<ellipse cx="518.57" cy="150.795" rx="2" ry="1.99" fill="#00FFA7"/>
<ellipse cx="423.555" cy="231.136" rx="1" ry="0.995" fill="#00FFA7"/>
<ellipse cx="315.757" cy="217.188" rx="4.07979" ry="4.05939" fill="#1C1C1C"/>
<ellipse cx="502.08" cy="251.106" rx="4.07979" ry="4.05939" fill="#1C1C1C"/>
<ellipse cx="307.597" cy="223.958" rx="1.7122" ry="1.70364" fill="#1C1C1C"/>
<ellipse cx="506.712" cy="212.751" rx="1.7122" ry="1.70364" fill="#1C1C1C"/>
<circle cx="553.604" cy="299.542" r="2.29163" fill="#1C1C1C"/>
<ellipse cx="310.109" cy="101.982" rx="2" ry="1.99" fill="#00FFA7"/>
<circle cx="298.135" cy="207.018" r="4.401" fill="#707070"/>
<ellipse cx="545.177" cy="101.002" rx="2.036" ry="2.02582" fill="#1C1C1C"/>
<ellipse cx="488.945" cy="347.05" rx="1" ry="0.995" fill="#00FFA7"/>
<ellipse cx="512.961" cy="304.344" rx="1.5" ry="1.4925" fill="#00FFA7"/>
<circle cx="343.096" cy="245.651" r="2.29163" fill="#00FFA7"/>
<ellipse cx="363.766" cy="138.094" rx="1.5" ry="1.4925" fill="#707070"/>
<ellipse cx="298.883" cy="321.636" rx="1" ry="0.995" fill="#1C1C1C"/>
<ellipse cx="439.406" cy="68.9741" rx="0.5" ry="0.4975" fill="#707070"/>
<ellipse cx="316.781" cy="296.737" rx="2.54695" ry="2.53421" fill="#00FFA7"/>
<ellipse cx="438.391" cy="110.667" rx="2.54695" ry="2.53421" fill="#1C1C1C"/>
<ellipse cx="451.161" cy="141.674" rx="2.036" ry="2.02582" fill="#1C1C1C"/>
<ellipse cx="247.789" cy="252.487" rx="1" ry="0.995" fill="#707070"/>
<ellipse cx="297.195" cy="92.2528" rx="1" ry="0.995" fill="#00FFA7"/>
<circle cx="266.214" cy="311.745" r="2.29163" fill="#1C1C1C"/>
<ellipse cx="435.297" cy="213.719" rx="1.5" ry="1.4925" fill="#00FFA7"/>
<ellipse cx="407.222" cy="185.394" rx="3.0579" ry="3.04261" fill="#00FFA7"/>
<ellipse cx="380.617" cy="169.779" rx="2" ry="1.99" fill="#00FFA7"/>
<ellipse cx="394.888" cy="273.862" rx="2.036" ry="2.02582" fill="#00FFA7"/>
<ellipse cx="465.109" cy="56.9247" rx="1" ry="0.995" fill="#00FFA7"/>
<ellipse cx="373.52" cy="207.185" rx="4.59073" ry="4.56778" fill="#00FFA7"/>
<ellipse cx="422.805" cy="266.355" rx="2.5" ry="2.4875" fill="#00FFA7"/>
<mask id="mask1_410_1857" style="mask-type:alpha" maskUnits="userSpaceOnUse" x="327" y="172" width="82" height="142">
<path d="M408.253 219.791L327.125 172.969L327.512 266.295L408.253 313.08V219.791Z" fill="url(#paint2_linear_410_1857)"/>
</mask>
<g mask="url(#mask1_410_1857)">
<path d="M408.253 219.791L327.125 172.969L327.512 266.295L408.253 313.08V219.791Z" fill="#072719"/>
</g>
<mask id="mask2_410_1857" style="mask-type:alpha" maskUnits="userSpaceOnUse" x="408" y="172" width="82" height="142">
<path d="M408.019 219.785L489.188 172.789V266.199L408.376 313.273L408.019 219.785Z" fill="url(#paint3_linear_410_1857)"/>
</mask>
<g mask="url(#mask2_410_1857)">
<path d="M408.019 219.785L489.188 172.789V266.199L408.376 313.273L408.019 219.785Z" fill="#072719"/>
</g>
<mask id="mask3_410_1857" style="mask-type:alpha" maskUnits="userSpaceOnUse" x="327" y="127" width="161" height="93">
<path d="M408.229 219.777L327.781 173.379L408.106 127.004L487.932 173.104L408.229 219.777Z" fill="url(#paint4_linear_410_1857)"/>
</mask>
<g mask="url(#mask3_410_1857)">
<path d="M408.229 219.777L327.781 173.379L408.106 127.004L487.932 173.104L408.229 219.777Z" fill="#072719"/>
</g>
<path d="M408.386 126.344L489.246 173.029V266.399L408.386 313.084L327.525 266.399V173.029L408.386 126.344Z" stroke="#3FCF8E"/>
<g filter="url(#filter1_f_410_1857)">
<path d="M408.023 126.711L488.726 173.305V266.492L408.023 313.086L327.321 266.492V173.305L408.023 126.711Z" stroke="#3FCF8E" stroke-width="1.48" stroke-linejoin="bevel"/>
</g>
</g>
<path d="M1 1.04688V0.546875H0.5V1.04688H1ZM621 1.04688H621.5V0.546875H621V1.04688ZM1 1.54688H621V0.546875H1V1.54688ZM620.5 1.04688V431.047H621.5V1.04688H620.5ZM1.5 431.047V1.04688H0.5V431.047H1.5Z" fill="#2E2E2E" mask="url(#path-1-outside-1_410_1857)"/>
<defs>
<filter id="filter0_f_410_1857" x="173.239" y="31.8036" width="468.885" height="464.169" filterUnits="userSpaceOnUse" color-interpolation-filters="sRGB">
<feFlood flood-opacity="0" result="BackgroundImageFix"/>
<feBlend mode="normal" in="SourceGraphic" in2="BackgroundImageFix" result="shape"/>
<feGaussianBlur stdDeviation="86.6717" result="effect1_foregroundBlur_410_1857"/>
</filter>
<filter id="filter1_f_410_1857" x="319.701" y="119.19" width="176.645" height="201.416" filterUnits="userSpaceOnUse" color-interpolation-filters="sRGB">
<feFlood flood-opacity="0" result="BackgroundImageFix"/>
<feBlend mode="normal" in="SourceGraphic" in2="BackgroundImageFix" result="shape"/>
<feGaussianBlur stdDeviation="3.44" result="effect1_foregroundBlur_410_1857"/>
</filter>
<linearGradient id="paint0_linear_410_1857" x1="405.743" y1="264.052" x2="405.743" y2="318.177" gradientUnits="userSpaceOnUse">
<stop stop-color="white" stop-opacity="0.1"/>
<stop offset="1" stop-color="#5D6167" stop-opacity="0"/>
</linearGradient>
<radialGradient id="paint1_radial_410_1857" cx="0" cy="0" r="1" gradientUnits="userSpaceOnUse" gradientTransform="translate(407.741 217.19) rotate(90) scale(174.952 157.579)">
<stop stop-color="white"/>
<stop offset="1" stop-color="white" stop-opacity="0"/>
</radialGradient>
<linearGradient id="paint2_linear_410_1857" x1="340.889" y1="250.972" x2="422.314" y2="210.26" gradientUnits="userSpaceOnUse">
<stop stop-color="white"/>
<stop offset="1" stop-color="white" stop-opacity="0"/>
</linearGradient>
<linearGradient id="paint3_linear_410_1857" x1="448.603" y1="172.789" x2="448.603" y2="313.273" gradientUnits="userSpaceOnUse">
<stop stop-color="white"/>
<stop offset="1" stop-color="white" stop-opacity="0"/>
</linearGradient>
<linearGradient id="paint4_linear_410_1857" x1="367.277" y1="164.274" x2="455.487" y2="204.986" gradientUnits="userSpaceOnUse">
<stop stop-color="white"/>
<stop offset="1" stop-color="white" stop-opacity="0"/>
</linearGradient>
<clipPath id="clip0_410_1857">
<path d="M1 1.04688H621V431.047H1V1.04688Z" fill="white"/>
</clipPath>
</defs>
</svg>
