<svg width="822" height="430" viewBox="0 0 822 430" fill="none" xmlns="http://www.w3.org/2000/svg">
<g clip-path="url(#clip0_225_165618)">
<rect width="822" height="430" fill="#03090C"/>
<g filter="url(#filter0_f_225_165618)">
<ellipse cx="255.537" cy="-27.2305" rx="191.584" ry="119.051" fill="#000507"/>
</g>
<g filter="url(#filter1_f_225_165618)">
<ellipse cx="112.775" cy="108.423" rx="112.775" ry="108.423" transform="matrix(0.978344 0.206986 0.206986 -0.978344 260.703 382.562)" fill="#294857"/>
</g>
<path d="M-13.9219 448.877L406.964 221.953L822.256 448.877H-13.9219Z" fill="url(#paint0_linear_225_165618)"/>
<path d="M580.705 316.917V116.415L406.192 16.1641L231.68 116.415V316.917M580.705 316.917L406.192 417.168L231.68 316.917M580.705 316.917L406.677 221.049M231.68 316.917L407.381 221.24M407.074 221.529L407.074 21.0404M448.607 245.67V50.9331M488.523 266.136V73.006M533.529 290.929V99.6906M364.283 244.709V50.933M325.858 265.633V73.0722M281.742 288.572V97.3097M232.356 272.766L406.694 174.112M232.356 224.477L406.694 125.823M232.356 178.038L406.694 79.3834M580.801 272.966L407.462 174.311M580.801 224.893L407.462 125.239M580.801 175.238L407.462 79.5832" stroke="url(#paint1_radial_225_165618)" stroke-width="0.5"/>
<ellipse cx="514" cy="228.555" rx="1.5" ry="1.4925" fill="#105870"/>
<circle cx="382.971" cy="61.5885" r="2.29163" fill="#263E41"/>
<ellipse cx="554.906" cy="219.433" rx="2.54695" ry="2.53421" fill="#105870"/>
<ellipse cx="471.586" cy="226.006" rx="2" ry="1.99" fill="#00FFA7"/>
<ellipse cx="281.539" cy="159.932" rx="1" ry="0.995" fill="#00FFA7"/>
<ellipse cx="383.109" cy="248.352" rx="3" ry="2.985" fill="#00FFA7"/>
<ellipse cx="485.914" cy="85.7059" rx="1" ry="0.995" fill="#105870"/>
<ellipse cx="425.812" cy="116.092" rx="2" ry="1.99" fill="#263E41"/>
<ellipse cx="354.586" cy="99.4222" rx="1.5" ry="1.4925" fill="#263E41"/>
<ellipse cx="318.836" cy="343.964" rx="1" ry="0.995" fill="#00FFA7"/>
<ellipse cx="517.57" cy="149.748" rx="2" ry="1.99" fill="#00FFA7"/>
<ellipse cx="422.555" cy="230.089" rx="1" ry="0.995" fill="#00FFA7"/>
<ellipse cx="319.861" cy="226.02" rx="4.07979" ry="4.05939" fill="#263E41"/>
<circle cx="552.604" cy="298.495" r="2.29163" fill="#263E41"/>
<ellipse cx="309.109" cy="100.935" rx="2" ry="1.99" fill="#00FFA7"/>
<circle cx="297.135" cy="205.971" r="4.401" fill="#105870"/>
<ellipse cx="544.177" cy="99.9555" rx="2.036" ry="2.02582" fill="#263E41"/>
<ellipse cx="487.945" cy="346.003" rx="1" ry="0.995" fill="#00FFA7"/>
<ellipse cx="511.961" cy="303.297" rx="1.5" ry="1.4925" fill="#00FFA7"/>
<circle cx="342.096" cy="244.604" r="2.29163" fill="#00FFA7"/>
<ellipse cx="362.766" cy="137.047" rx="1.5" ry="1.4925" fill="#105870"/>
<ellipse cx="297.883" cy="320.589" rx="1" ry="0.995" fill="#263E41"/>
<ellipse cx="438.406" cy="67.9272" rx="0.5" ry="0.4975" fill="#105870"/>
<ellipse cx="315.781" cy="295.69" rx="2.54695" ry="2.53421" fill="#00FFA7"/>
<ellipse cx="437.391" cy="109.62" rx="2.54695" ry="2.53421" fill="#263E41"/>
<ellipse cx="450.161" cy="140.627" rx="2.036" ry="2.02582" fill="#263E41"/>
<ellipse cx="246.789" cy="251.44" rx="1" ry="0.995" fill="#105870"/>
<ellipse cx="296.195" cy="91.2059" rx="1" ry="0.995" fill="#00FFA7"/>
<circle cx="265.214" cy="310.698" r="2.29163" fill="#263E41"/>
<ellipse cx="434.297" cy="212.672" rx="1.5" ry="1.4925" fill="#00FFA7"/>
<ellipse cx="406.222" cy="184.347" rx="3.0579" ry="3.04261" fill="#00FFA7"/>
<ellipse cx="379.617" cy="168.732" rx="2" ry="1.99" fill="#00FFA7"/>
<ellipse cx="393.888" cy="272.815" rx="2.036" ry="2.02582" fill="#00FFA7"/>
<ellipse cx="464.109" cy="55.8778" rx="1" ry="0.995" fill="#00FFA7"/>
<ellipse cx="372.52" cy="206.138" rx="4.59073" ry="4.56778" fill="#00FFA7"/>
<ellipse cx="421.805" cy="265.308" rx="2.5" ry="2.4875" fill="#00FFA7"/>
<path d="M407.253 218.744L326.125 171.922L326.512 265.248L407.253 312.033V218.744Z" fill="url(#paint2_linear_225_165618)"/>
<path d="M407.019 218.739L488.188 171.742V265.152L407.376 312.226L407.019 218.739Z" fill="url(#paint3_linear_225_165618)"/>
<path d="M407.229 218.726L326.781 172.328L407.106 125.953L486.932 172.053L407.229 218.726Z" fill="url(#paint4_linear_225_165618)"/>
<path d="M407.386 125.297L488.246 171.982V265.352L407.386 312.037L326.525 265.352V171.982L407.386 125.297Z" stroke="url(#paint5_linear_225_165618)"/>
<g filter="url(#filter2_f_225_165618)">
<path d="M407.023 125.664L487.726 172.258V265.445L407.023 312.039L326.321 265.445V172.258L407.023 125.664Z" stroke="url(#paint6_linear_225_165618)" stroke-width="1.48" stroke-linejoin="bevel"/>
</g>
</g>
<defs>
<filter id="filter0_f_225_165618" x="-52.0469" y="-262.281" width="615.168" height="470.102" filterUnits="userSpaceOnUse" color-interpolation-filters="sRGB">
<feFlood flood-opacity="0" result="BackgroundImageFix"/>
<feBlend mode="normal" in="SourceGraphic" in2="BackgroundImageFix" result="shape"/>
<feGaussianBlur stdDeviation="58" result="effect1_foregroundBlur_225_165618"/>
</filter>
<filter id="filter1_f_225_165618" x="107.52" y="17.852" width="571.914" height="563.958" filterUnits="userSpaceOnUse" color-interpolation-filters="sRGB">
<feFlood flood-opacity="0" result="BackgroundImageFix"/>
<feBlend mode="normal" in="SourceGraphic" in2="BackgroundImageFix" result="shape"/>
<feGaussianBlur stdDeviation="86.6717" result="effect1_foregroundBlur_225_165618"/>
</filter>
<filter id="filter2_f_225_165618" x="322.699" y="122.142" width="168.648" height="193.42" filterUnits="userSpaceOnUse" color-interpolation-filters="sRGB">
<feFlood flood-opacity="0" result="BackgroundImageFix"/>
<feBlend mode="normal" in="SourceGraphic" in2="BackgroundImageFix" result="shape"/>
<feGaussianBlur stdDeviation="1.44088" result="effect1_foregroundBlur_225_165618"/>
</filter>
<linearGradient id="paint0_linear_225_165618" x1="404.168" y1="311.73" x2="404.168" y2="488.014" gradientUnits="userSpaceOnUse">
<stop stop-color="#030C0C"/>
<stop offset="1" stop-color="#0A0F15" stop-opacity="0"/>
</linearGradient>
<radialGradient id="paint1_radial_225_165618" cx="0" cy="0" r="1" gradientUnits="userSpaceOnUse" gradientTransform="translate(407.023 201.043) rotate(-90) scale(146.041 173.777)">
<stop offset="0.609375" stop-color="#00293E"/>
<stop offset="1" stop-color="#161817" stop-opacity="0"/>
</radialGradient>
<linearGradient id="paint2_linear_225_165618" x1="376.62" y1="211.134" x2="366.302" y2="312.685" gradientUnits="userSpaceOnUse">
<stop stop-color="#161616" stop-opacity="0"/>
<stop offset="1" stop-color="#003E3E"/>
</linearGradient>
<linearGradient id="paint3_linear_225_165618" x1="425.697" y1="186.776" x2="463.149" y2="283.298" gradientUnits="userSpaceOnUse">
<stop stop-color="#003E3E"/>
<stop offset="1" stop-color="#161616" stop-opacity="0"/>
</linearGradient>
<linearGradient id="paint4_linear_225_165618" x1="370.6" y1="218.509" x2="434.785" y2="138.789" gradientUnits="userSpaceOnUse">
<stop stop-color="#003E3E"/>
<stop offset="1" stop-color="#161616" stop-opacity="0"/>
</linearGradient>
<linearGradient id="paint5_linear_225_165618" x1="407.386" y1="125.297" x2="407.386" y2="312.037" gradientUnits="userSpaceOnUse">
<stop stop-color="#00FFA7"/>
<stop offset="1" stop-color="#2F2F2F"/>
</linearGradient>
<linearGradient id="paint6_linear_225_165618" x1="346.894" y1="142.648" x2="440.595" y2="189.625" gradientUnits="userSpaceOnUse">
<stop stop-color="#04DB91"/>
<stop offset="1" stop-color="#4B4B4B" stop-opacity="0"/>
</linearGradient>
<clipPath id="clip0_225_165618">
<rect width="822" height="430" fill="white"/>
</clipPath>
</defs>
</svg>
