<svg width="390" height="430" viewBox="0 0 390 430" fill="none" xmlns="http://www.w3.org/2000/svg">
<g clip-path="url(#clip0_481_4702)">
<g filter="url(#filter0_f_481_4702)">
<ellipse cx="167.5" cy="160.5" rx="167.5" ry="160.5" transform="matrix(1 0 0 -1 28 423)" fill="url(#paint0_radial_481_4702)"/>
</g>
<path d="M-100 382.609L195.471 221L489.808 382.609H-100Z" fill="url(#paint1_linear_481_4702)"/>
<mask id="mask0_481_4702" style="mask-type:alpha" maskUnits="userSpaceOnUse" x="11" y="11" width="369" height="410">
<rect x="11" y="11.6016" width="368.546" height="409.176" fill="url(#paint2_radial_481_4702)"/>
</mask>
<g mask="url(#mask0_481_4702)">
<path d="M369.237 317.019V116.517L194.724 16.2657L20.2119 116.517V317.019M369.237 317.019L194.724 417.27L20.2119 317.019M369.237 317.019L195.606 221.371M20.2119 317.019L195.606 221.371M195.606 221.371L195.606 21.0893M237.139 244.196V50.982M277.055 266.185V73.0549M322.062 290.978V99.7395M152.815 244.757V50.9819M114.39 265.682V73.1211M70.2738 288.621V97.3587M20.888 272.815L195.227 174.161M20.888 224.526L195.227 125.872M20.888 178.087L195.227 79.4324M369.333 273.015L195.994 174.36M369.333 224.942L195.994 125.288M369.333 175.287L195.994 79.6322" stroke="#7E7E7E" stroke-width="0.5"/>
</g>
<ellipse cx="302.532" cy="228.602" rx="1.5" ry="1.4925" fill="#707070"/>
<circle cx="171.504" cy="61.6354" r="2.29163" fill="#1C1C1C"/>
<ellipse cx="343.439" cy="219.48" rx="2.54695" ry="2.53421" fill="#707070"/>
<ellipse cx="70.0713" cy="159.979" rx="1" ry="0.995" fill="#00FFA7"/>
<ellipse cx="274.446" cy="85.7528" rx="1" ry="0.995" fill="#707070"/>
<ellipse cx="214.345" cy="116.138" rx="2" ry="1.99" fill="#1C1C1C"/>
<ellipse cx="143.118" cy="99.4691" rx="1.5" ry="1.4925" fill="#1C1C1C"/>
<ellipse cx="107.368" cy="344.011" rx="1" ry="0.995" fill="#00FFA7"/>
<ellipse cx="306.103" cy="149.795" rx="2" ry="1.99" fill="#00FFA7"/>
<ellipse cx="103.289" cy="216.188" rx="4.07979" ry="4.05939" fill="#1C1C1C"/>
<ellipse cx="289.612" cy="250.106" rx="4.07979" ry="4.05939" fill="#1C1C1C"/>
<ellipse cx="95.1292" cy="222.958" rx="1.7122" ry="1.70364" fill="#1C1C1C"/>
<ellipse cx="294.244" cy="211.751" rx="1.7122" ry="1.70364" fill="#1C1C1C"/>
<circle cx="341.136" cy="298.542" r="2.29163" fill="#1C1C1C"/>
<ellipse cx="97.6416" cy="100.982" rx="2" ry="1.99" fill="#00FFA7"/>
<circle cx="85.6676" cy="206.018" r="4.401" fill="#707070"/>
<ellipse cx="332.709" cy="100.002" rx="2.036" ry="2.02582" fill="#1C1C1C"/>
<ellipse cx="276.478" cy="346.05" rx="1" ry="0.995" fill="#00FFA7"/>
<ellipse cx="300.493" cy="303.344" rx="1.5" ry="1.4925" fill="#00FFA7"/>
<ellipse cx="151.298" cy="137.094" rx="1.5" ry="1.4925" fill="#707070"/>
<ellipse cx="86.415" cy="320.636" rx="1" ry="0.995" fill="#1C1C1C"/>
<ellipse cx="226.938" cy="67.9741" rx="0.5" ry="0.4975" fill="#707070"/>
<ellipse cx="104.314" cy="295.737" rx="2.54695" ry="2.53421" fill="#00FFA7"/>
<ellipse cx="225.923" cy="109.667" rx="2.54695" ry="2.53421" fill="#1C1C1C"/>
<ellipse cx="238.693" cy="140.674" rx="2.036" ry="2.02582" fill="#1C1C1C"/>
<ellipse cx="35.3213" cy="251.487" rx="1" ry="0.995" fill="#707070"/>
<ellipse cx="84.7275" cy="91.2528" rx="1" ry="0.995" fill="#00FFA7"/>
<circle cx="53.7457" cy="310.745" r="2.29163" fill="#1C1C1C"/>
<ellipse cx="252.642" cy="55.9247" rx="1" ry="0.995" fill="#00FFA7"/>
<ellipse cx="260.118" cy="226.053" rx="2" ry="1.99" fill="#00FFA7"/>
<ellipse cx="171.642" cy="248.399" rx="3" ry="2.985" fill="#00FFA7"/>
<ellipse cx="211.087" cy="230.136" rx="1" ry="0.995" fill="#00FFA7"/>
<circle cx="130.629" cy="244.651" r="2.29163" fill="#00FFA7"/>
<ellipse cx="222.829" cy="212.719" rx="1.5" ry="1.4925" fill="#00FFA7"/>
<ellipse cx="194.754" cy="184.394" rx="3.0579" ry="3.04261" fill="#00FFA7"/>
<ellipse cx="168.149" cy="168.779" rx="2" ry="1.99" fill="#00FFA7"/>
<ellipse cx="182.42" cy="272.862" rx="2.036" ry="2.02582" fill="#00FFA7"/>
<ellipse cx="161.053" cy="206.185" rx="4.59073" ry="4.56778" fill="#00FFA7"/>
<ellipse cx="210.337" cy="265.355" rx="2.5" ry="2.4875" fill="#00FFA7"/>
<mask id="mask1_481_4702" style="mask-type:alpha" maskUnits="userSpaceOnUse" x="114" y="171" width="82" height="142">
<path d="M195.785 218.791L114.657 171.969L115.044 265.295L195.785 312.08V218.791Z" fill="url(#paint3_linear_481_4702)"/>
</mask>
<g mask="url(#mask1_481_4702)">
<path d="M195.785 218.791L114.657 171.969L115.044 265.295L195.785 312.08V218.791Z" fill="#1C1C1C"/>
</g>
<mask id="mask2_481_4702" style="mask-type:alpha" maskUnits="userSpaceOnUse" x="195" y="171" width="82" height="142">
<path d="M195.551 218.785L276.72 171.789V265.199L195.908 312.273L195.551 218.785Z" fill="url(#paint4_linear_481_4702)"/>
</mask>
<g mask="url(#mask2_481_4702)">
<path d="M195.551 218.785L276.72 171.789V265.199L195.908 312.273L195.551 218.785Z" fill="#1C1C1C"/>
</g>
<mask id="mask3_481_4702" style="mask-type:alpha" maskUnits="userSpaceOnUse" x="115" y="126" width="161" height="93">
<path d="M195.761 218.777L115.313 172.379L195.638 126.004L275.464 172.104L195.761 218.777Z" fill="url(#paint5_linear_481_4702)"/>
</mask>
<g mask="url(#mask3_481_4702)">
<path d="M195.761 218.777L115.313 172.379L195.638 126.004L275.464 172.104L195.761 218.777Z" fill="#1C1C1C"/>
</g>
<path opacity="0.3" d="M195.918 125.344L276.779 172.029V265.399L195.918 312.084L115.057 265.399V172.029L195.918 125.344Z" stroke="#3FCF8E"/>
<g filter="url(#filter1_f_481_4702)">
<path d="M195.556 125.711L276.258 172.305V265.492L195.556 312.086L114.853 265.492V172.305L195.556 125.711Z" stroke="#3FCF8E" stroke-width="1.48" stroke-linejoin="bevel"/>
</g>
</g>
<defs>
<filter id="filter0_f_481_4702" x="-12" y="62" width="415" height="401" filterUnits="userSpaceOnUse" color-interpolation-filters="sRGB">
<feFlood flood-opacity="0" result="BackgroundImageFix"/>
<feBlend mode="normal" in="SourceGraphic" in2="BackgroundImageFix" result="shape"/>
<feGaussianBlur stdDeviation="20" result="effect1_foregroundBlur_481_4702"/>
</filter>
<filter id="filter1_f_481_4702" x="107.233" y="118.19" width="176.645" height="201.416" filterUnits="userSpaceOnUse" color-interpolation-filters="sRGB">
<feFlood flood-opacity="0" result="BackgroundImageFix"/>
<feBlend mode="normal" in="SourceGraphic" in2="BackgroundImageFix" result="shape"/>
<feGaussianBlur stdDeviation="3.44" result="effect1_foregroundBlur_481_4702"/>
</filter>
<radialGradient id="paint0_radial_481_4702" cx="0" cy="0" r="1" gradientUnits="userSpaceOnUse" gradientTransform="translate(167.5 160.5) rotate(90) scale(160.5 167.5)">
<stop stop-color="#85E0B7" stop-opacity="0.5"/>
<stop offset="0.276042" stop-color="#85E0B7" stop-opacity="0.25"/>
<stop offset="0.71875" stop-color="#85E0B7" stop-opacity="0.07"/>
<stop offset="1" stop-color="#85E0B7" stop-opacity="0"/>
</radialGradient>
<linearGradient id="paint1_linear_481_4702" x1="193.48" y1="263.052" x2="193.48" y2="317.177" gradientUnits="userSpaceOnUse">
<stop stop-color="white" stop-opacity="0.1"/>
<stop offset="1" stop-color="#5D6167" stop-opacity="0"/>
</linearGradient>
<radialGradient id="paint2_radial_481_4702" cx="0" cy="0" r="1" gradientUnits="userSpaceOnUse" gradientTransform="translate(195.273 216.19) rotate(90) scale(174.952 157.579)">
<stop stop-color="white"/>
<stop offset="1" stop-color="white" stop-opacity="0"/>
</radialGradient>
<linearGradient id="paint3_linear_481_4702" x1="128.422" y1="249.972" x2="209.846" y2="209.26" gradientUnits="userSpaceOnUse">
<stop stop-color="white"/>
<stop offset="1" stop-color="white" stop-opacity="0"/>
</linearGradient>
<linearGradient id="paint4_linear_481_4702" x1="236.135" y1="171.789" x2="236.135" y2="312.273" gradientUnits="userSpaceOnUse">
<stop stop-color="white"/>
<stop offset="1" stop-color="white" stop-opacity="0"/>
</linearGradient>
<linearGradient id="paint5_linear_481_4702" x1="154.809" y1="163.274" x2="243.02" y2="203.986" gradientUnits="userSpaceOnUse">
<stop stop-color="white"/>
<stop offset="1" stop-color="white" stop-opacity="0"/>
</linearGradient>
<clipPath id="clip0_481_4702">
<rect width="390" height="430" fill="white"/>
</clipPath>
</defs>
</svg>
