<svg width="15" height="15" viewBox="0 0 14.5 15" fill="none" xmlns="http://www.w3.org/2000/svg">
<g clip-path="url(#clip0_334_12847)">
<path d="M15.7539 -0.0610352V4.32178H14.3008V5.7749H15.7539V10.1577H14.3008V11.6226H15.7539V16.0054H14.3008V17.4585H15.7539V21.8413H14.3008V23.3062H15.7539V24.7593H-1.76562V20.3882H-0.300781V18.9233H-1.76562V14.5405H-0.300781V13.0757H-1.76562V8.70459H-0.300781V7.23975H-1.76562V2.85693H-0.300781V1.39209H-1.76562V-2.979H-0.300781V-4.44385H1.15234V-2.979H2.61719V-4.44385H4.07031V-2.979H5.53516V-4.44385H7V-2.979H8.45312V-4.44385H9.91797V-2.979H11.3828V-4.44385H12.8359V-2.979H14.3008V-4.44385H15.7539V-1.52588H14.3008V-0.0610352H15.7539ZM-0.300781 -1.52588V-0.0610352H1.15234V-1.52588H-0.300781ZM2.61719 -1.52588V-0.0610352H4.07031V-1.52588H2.61719ZM5.53516 -1.52588V-0.0610352H7V-1.52588H5.53516ZM8.45312 -1.52588V-0.0610352H9.91797V-1.52588H8.45312ZM11.3828 -1.52588V-0.0610352H12.8359V-1.52588H11.3828ZM14.3008 1.39209H12.8359V2.85693H14.3008V1.39209ZM11.3828 1.39209H9.91797V2.85693H11.3828V1.39209ZM8.45312 1.39209H7V2.85693H8.45312V1.39209ZM5.53516 1.39209H4.07031V2.85693H5.53516V1.39209ZM2.61719 1.39209H1.15234V2.85693H2.61719V1.39209ZM-0.300781 4.32178V5.7749H1.15234V4.32178H-0.300781ZM2.61719 4.32178V5.7749H4.07031V4.32178H2.61719ZM5.53516 4.32178V5.7749H7V4.32178H5.53516ZM8.45312 4.32178V5.7749H9.91797V4.32178H8.45312ZM11.3828 4.32178V5.7749H12.8359V4.32178H11.3828ZM2.61719 7.23975H1.15234V8.70459H2.61719V7.23975ZM4.07031 7.23975V8.70459H5.53516V7.23975H4.07031ZM7 7.23975V8.70459H8.45312V7.23975H7ZM9.91797 7.23975V8.70459H11.3828V7.23975H9.91797ZM12.8359 7.23975V8.70459H14.3008V7.23975H12.8359ZM-0.300781 10.1577V11.6226H1.15234V10.1577H-0.300781ZM5.53516 10.1577V11.6226H7V10.1577H5.53516ZM4.07031 11.6226V10.1577H2.61719V11.6226H4.07031ZM8.45312 10.1577V11.6226H9.91797V10.1577H8.45312ZM11.3828 10.1577V11.6226H12.8359V10.1577H11.3828ZM14.3008 14.5405V13.0757H12.8359V14.5405H14.3008ZM11.3828 14.5405V13.0757H9.91797V14.5405H11.3828ZM8.45312 14.5405V13.0757H7V14.5405H8.45312ZM5.53516 14.5405V13.0757H4.07031V14.5405H5.53516ZM2.61719 14.5405V13.0757H1.15234V14.5405H2.61719ZM-0.300781 16.0054V17.4585H1.15234V16.0054H-0.300781ZM2.61719 16.0054V17.4585H4.07031V16.0054H2.61719ZM5.53516 16.0054V17.4585H7V16.0054H5.53516ZM8.45312 16.0054V17.4585H9.91797V16.0054H8.45312ZM11.3828 16.0054V17.4585H12.8359V16.0054H11.3828ZM14.3008 20.3882V18.9233H12.8359V20.3882H14.3008ZM11.3828 20.3882V18.9233H9.91797V20.3882H11.3828ZM8.45312 20.3882V18.9233H7V20.3882H8.45312ZM5.53516 20.3882V18.9233H4.07031V20.3882H5.53516ZM2.61719 20.3882V18.9233H1.15234V20.3882H2.61719ZM-0.300781 21.8413V23.3062H1.15234V21.8413H-0.300781ZM2.61719 21.8413V23.3062H4.07031V21.8413H2.61719ZM5.53516 21.8413V23.3062H7V21.8413H5.53516ZM8.45312 21.8413V23.3062H9.91797V21.8413H8.45312ZM11.3828 21.8413V23.3062H12.8359V21.8413H11.3828Z" fill="black"/>
</g>
<defs>
<clipPath id="clip0_334_12847">
<rect width="14.5" height="15" fill="white"/>
</clipPath>
</defs>
</svg>
