<svg width="841" height="112" viewBox="0 0 841 112" fill="none" xmlns="http://www.w3.org/2000/svg">
<path d="M135.372 66.5501C135.972 72.1514 141.067 81.7535 155.852 81.7535C168.74 81.7535 174.934 73.5517 174.934 65.55C174.934 58.3483 170.039 52.447 160.348 50.4465L153.355 48.9462C150.657 48.4461 148.859 46.9458 148.859 44.5452C148.859 41.7445 151.656 39.6442 155.153 39.6442C160.748 39.6442 162.846 43.3449 163.245 46.2457L174.335 43.7451C173.735 38.4439 169.04 29.542 155.053 29.542C144.463 29.542 136.671 36.8436 136.671 45.6454C136.671 52.5469 140.967 58.2484 150.458 60.3487L156.951 61.8491C160.748 62.6492 162.246 64.4498 162.246 66.6502C162.246 69.2508 160.148 71.5513 155.752 71.5513C149.958 71.5513 147.061 67.9504 146.761 64.0495L135.372 66.5501Z" fill="#1F1F1F"/>
<path d="M217.396 80.253H230.084C229.885 78.5525 229.584 75.1518 229.584 71.3509V31.042H216.296V59.6483C216.296 65.3497 212.9 69.3505 207.006 69.3505C200.812 69.3505 198.014 64.9495 198.014 59.4483V31.042H184.728V62.149C184.728 72.8513 191.52 81.5532 203.409 81.5532C208.604 81.5532 214.3 79.5528 216.997 74.9518C216.997 76.9522 217.196 79.2527 217.396 80.253Z" fill="#1F1F1F"/>
<path d="M257.051 99.2573V75.4521C259.448 78.7527 264.444 81.4534 271.238 81.4534C285.125 81.4534 294.414 70.4508 294.414 55.5475C294.414 40.9443 286.124 29.9419 271.738 29.9419C264.345 29.9419 258.85 33.2425 256.653 37.0435V31.0421H243.765V99.2573H257.051ZM281.328 55.6476C281.328 64.4496 275.933 69.5506 269.139 69.5506C262.347 69.5506 256.852 64.3495 256.852 55.6476C256.852 46.9457 262.347 41.8445 269.139 41.8445C275.933 41.8445 281.328 46.9457 281.328 55.6476Z" fill="#1F1F1F"/>
<path d="M301.939 66.8502C301.939 74.552 308.333 81.6536 318.823 81.6536C326.115 81.6536 330.81 78.2527 333.308 74.3518C333.308 76.2523 333.507 78.9528 333.808 80.2533H345.996C345.696 78.5528 345.398 75.052 345.398 72.4515V48.246C345.398 38.3438 339.603 29.542 324.018 29.542C310.831 29.542 303.736 38.0437 302.939 45.7455L314.726 48.246C315.127 43.9451 318.324 40.2443 324.117 40.2443C329.712 40.2443 332.41 43.1449 332.41 46.6457C332.41 48.3462 331.511 49.7465 328.713 50.1465L316.626 51.9469C308.434 53.1472 301.939 58.0482 301.939 66.8502ZM321.619 71.7514C317.325 71.7514 315.226 68.9507 315.226 66.0501C315.226 62.2492 317.923 60.3487 321.321 59.8487L332.41 58.1483V60.3487C332.41 69.0508 327.215 71.7514 321.619 71.7514Z" fill="#1F1F1F"/>
<path d="M371.678 80.2531V74.2518C374.275 78.4528 379.47 81.4534 386.264 81.4534C400.251 81.4534 409.442 70.3509 409.442 55.4476C409.442 40.8442 401.149 29.7419 386.763 29.7419C379.47 29.7419 374.075 32.9426 371.878 36.4432V7.83691H358.791V80.2531H371.678ZM396.154 55.5475C396.154 64.5495 390.76 69.5506 383.966 69.5506C377.272 69.5506 371.678 64.4496 371.678 55.5475C371.678 46.5455 377.272 41.6445 383.966 41.6445C390.76 41.6445 396.154 46.5455 396.154 55.5475Z" fill="#1F1F1F"/>
<path d="M416.965 66.8502C416.965 74.552 423.358 81.6536 433.849 81.6536C441.14 81.6536 445.838 78.2527 448.333 74.3518C448.333 76.2523 448.535 78.9528 448.833 80.2533H461.021C460.723 78.5528 460.423 75.052 460.423 72.4515V48.246C460.423 38.3438 454.628 29.542 439.043 29.542C425.856 29.542 418.764 38.0437 417.964 45.7455L429.752 48.246C430.152 43.9451 433.349 40.2443 439.142 40.2443C444.738 40.2443 447.435 43.1449 447.435 46.6457C447.435 48.3462 446.537 49.7465 443.739 50.1465L431.651 51.9469C423.459 53.1472 416.965 58.0482 416.965 66.8502ZM436.646 71.7514C432.35 71.7514 430.251 68.9507 430.251 66.0501C430.251 62.2492 432.948 60.3487 436.346 59.8487L447.435 58.1483V60.3487C447.435 69.0508 442.24 71.7514 436.646 71.7514Z" fill="#1F1F1F"/>
<path d="M469.62 66.5501C470.218 72.1514 475.315 81.7535 490.099 81.7535C502.987 81.7535 509.181 73.5517 509.181 65.55C509.181 58.3483 504.286 52.447 494.595 50.4465L487.602 48.9462C484.905 48.4461 483.108 46.9458 483.108 44.5452C483.108 41.7445 485.904 39.6442 489.4 39.6442C494.996 39.6442 497.093 43.3449 497.494 46.2457L508.583 43.7451C507.982 38.4439 503.287 29.542 489.302 29.542C478.711 29.542 470.919 36.8436 470.919 45.6454C470.919 52.5469 475.214 58.2484 484.705 60.3487L491.199 61.8491C494.996 62.6492 496.495 64.4498 496.495 66.6502C496.495 69.2508 494.396 71.5513 490.001 71.5513C484.206 71.5513 481.309 67.9504 481.009 64.0495L469.62 66.5501Z" fill="#1F1F1F"/>
<path d="M529.36 50.0464C529.66 45.5455 533.457 40.3442 540.35 40.3442C547.942 40.3442 551.141 45.1455 551.34 50.0464H529.36ZM552.639 62.8494C551.04 67.2502 547.644 70.351 541.45 70.351C534.855 70.351 529.36 65.6499 529.062 59.1486H564.227C564.227 58.9484 564.427 56.948 564.427 55.0475C564.427 39.244 555.336 29.542 540.151 29.542C527.563 29.542 515.973 39.7441 515.973 55.4477C515.973 72.0513 527.861 81.7535 541.349 81.7535C553.437 81.7535 561.23 74.6519 563.728 66.15L552.639 62.8494Z" fill="#1F1F1F"/>
<path d="M63.6827 110.073C60.8232 113.674 55.0253 111.701 54.9564 107.103L53.9489 39.8516L99.1686 39.8516C107.359 39.8516 111.928 49.3117 106.834 55.7263L63.6827 110.073Z" fill="url(#paint0_linear_2203_4846)"/>
<path d="M63.6827 110.073C60.8232 113.674 55.0253 111.701 54.9564 107.103L53.9489 39.8516L99.1686 39.8516C107.359 39.8516 111.928 49.3117 106.834 55.7263L63.6827 110.073Z" fill="url(#paint1_linear_2203_4846)" fill-opacity="0.2"/>
<path d="M45.2924 1.85984C48.1519 -1.74155 53.9498 0.231755 54.0187 4.82982L54.4603 72.081H9.80647C1.61572 72.081 -2.95241 62.6209 2.14084 56.2063L45.2924 1.85984Z" fill="#3ECF8E"/>
<rect x="600" y="12" width="240.1" height="87.5904" rx="14.0145" fill="#3ECF8E" fill-opacity="0.2"/>
<path d="M661.22 46.0399V38.7443H632.472V46.0399H643.005V73H650.639V46.0399H661.22ZM674.177 55.848C674.177 48.6973 679.299 45.4601 684.082 45.4601C688.817 45.4601 693.938 48.6973 693.938 55.848C693.938 62.9987 688.817 66.1875 684.082 66.1875C679.299 66.1875 674.177 62.9987 674.177 55.848ZM666.254 55.8963C666.254 66.719 674.419 73.7247 684.082 73.7247C693.697 73.7247 701.862 66.719 701.862 55.8963C701.862 45.0253 693.697 38.0195 684.082 38.0195C674.419 38.0195 666.254 45.0253 666.254 55.8963ZM716.386 55.848C716.386 48.6973 721.507 45.4601 726.29 45.4601C731.025 45.4601 736.147 48.6973 736.147 55.848C736.147 62.9987 731.025 66.1875 726.29 66.1875C721.507 66.1875 716.386 62.9987 716.386 55.848ZM708.462 55.8963C708.462 66.719 716.627 73.7247 726.29 73.7247C735.905 73.7247 744.07 66.719 744.07 55.8963C744.07 45.0253 735.905 38.0195 726.29 38.0195C716.627 38.0195 708.462 45.0253 708.462 55.8963ZM775.069 73V65.7043H760.285V38.7443H752.651V73H775.069ZM806.972 47.1512C806.247 43.141 803.01 38.0195 794.458 38.0195C787.887 38.0195 782.186 42.5612 782.186 49.0355C782.186 54.1086 785.713 57.9739 791.511 59.0851L796.197 59.9548C798.468 60.3896 799.869 61.6458 799.869 63.3852C799.869 65.5111 798.033 66.9606 795.038 66.9606C790.351 66.9606 788.225 64.2066 787.935 61.0661L780.929 62.7571C781.413 67.5887 785.471 73.7247 794.941 73.7247C803.106 73.7247 807.6 68.2651 807.6 62.902C807.6 58.0222 804.218 53.8187 797.695 52.6108L793.105 51.7412C790.738 51.3063 789.723 50.0984 789.723 48.4557C789.723 46.5714 791.559 44.7837 794.41 44.7837C798.565 44.7837 799.869 47.4894 800.111 49.0838L806.972 47.1512Z" fill="#3ECF8E"/>
<defs>
<linearGradient id="paint0_linear_2203_4846" x1="53.9489" y1="54.7628" x2="94.1386" y2="71.6184" gradientUnits="userSpaceOnUse">
<stop stop-color="#249361"/>
<stop offset="1" stop-color="#3ECF8E"/>
</linearGradient>
<linearGradient id="paint1_linear_2203_4846" x1="36.1309" y1="30.3669" x2="54.4595" y2="64.8695" gradientUnits="userSpaceOnUse">
<stop/>
<stop offset="1" stop-opacity="0"/>
</linearGradient>
</defs>
</svg>
