<svg width="1680" height="712" viewBox="0 0 1680 712" fill="none" xmlns="http://www.w3.org/2000/svg">
<g clip-path="url(#clip0_102_14286)">
<rect x="1170.53" y="599.434" width="518.092" height="37.3916" fill="#0F0F0F"/>
<rect x="1170.53" y="599.434" width="518.092" height="37.3916" fill="#121212"/>
<rect x="1081.83" y="674.581" width="266.106" height="37.3916" fill="#0F0F0F"/>
<rect x="1081.83" y="674.581" width="266.106" height="37.3916" fill="#121212"/>
<rect x="1081.83" y="523.546" width="354.808" height="37.3916" fill="#0F0F0F"/>
<rect x="1081.83" y="523.546" width="354.808" height="37.3916" fill="#121212"/>
<rect x="1436.64" y="447.657" width="251.986" height="37.3916" fill="#0F0F0F"/>
<rect x="1436.64" y="447.657" width="251.986" height="37.3916" fill="#121212"/>
<rect x="1081.83" y="675.203" width="88.702" height="38.0886" stroke="#242424" stroke-width="0.860678"/>
<rect x="904.428" y="408.487" width="88.702" height="38.0886" stroke="#242424" stroke-width="0.860678"/>
<rect x="1259.24" y="675.203" width="88.702" height="38.0886" stroke="#242424" stroke-width="0.860678"/>
<rect x="1170.53" y="675.203" width="88.702" height="38.0886" stroke="#242424" stroke-width="0.860678"/>
<rect x="1081.83" y="370.398" width="88.702" height="38.0886" fill="#0F0F0F"/>
<rect x="1081.83" y="370.398" width="88.702" height="38.0886" fill="#121212"/>
<rect x="1081.83" y="370.398" width="88.702" height="38.0886" stroke="#242424" stroke-width="0.860678"/>
<rect x="993.13" y="294.221" width="88.702" height="38.0886" fill="#0F0F0F"/>
<rect x="993.13" y="294.221" width="88.702" height="38.0886" fill="#121212"/>
<rect x="993.13" y="294.221" width="88.702" height="38.0886" stroke="#242424" stroke-width="0.860678"/>
<rect x="1436.64" y="675.203" width="88.702" height="38.0886" stroke="#242424" stroke-width="0.860678"/>
<rect x="1170.53" y="599.026" width="88.702" height="38.0886" stroke="#242424" stroke-width="0.860678"/>
<rect x="1259.24" y="599.026" width="88.702" height="38.0886" stroke="#242424" stroke-width="0.860678"/>
<rect x="1347.94" y="599.026" width="88.702" height="38.0886" stroke="#242424" stroke-width="0.860678"/>
<rect x="1436.64" y="599.026" width="88.702" height="38.0886" stroke="#242424" stroke-width="0.860678"/>
<rect x="1525.34" y="599.026" width="88.702" height="38.0886" stroke="#242424" stroke-width="0.860678"/>
<rect x="1614.04" y="599.026" width="88.702" height="38.0886" stroke="#242424" stroke-width="0.860678"/>
<rect x="1347.94" y="408.487" width="88.702" height="38.0886" stroke="#242424" stroke-width="0.860678"/>
<rect x="1259.24" y="332.31" width="88.702" height="38.0886" stroke="#242424" stroke-width="0.860678"/>
<rect x="1436.64" y="370.398" width="88.702" height="38.0886" fill="#0F0F0F"/>
<rect x="1436.64" y="370.398" width="88.702" height="38.0886" fill="#121212"/>
<rect x="1436.64" y="370.398" width="88.702" height="38.0886" stroke="#242424" stroke-width="0.860678"/>
<rect x="1436.64" y="294.221" width="88.702" height="38.0886" fill="#0F0F0F"/>
<rect x="1436.64" y="294.221" width="88.702" height="38.0886" fill="#121212"/>
<rect x="1436.64" y="294.221" width="88.702" height="38.0886" stroke="#242424" stroke-width="0.860678"/>
<rect x="1436.64" y="446.576" width="88.702" height="38.0886" stroke="#242424" stroke-width="0.860678"/>
<rect x="1525.34" y="446.576" width="88.702" height="38.0886" stroke="#242424" stroke-width="0.860678"/>
<rect x="1614.04" y="446.576" width="88.702" height="38.0886" stroke="#242424" stroke-width="0.860678"/>
<rect x="1347.94" y="484.664" width="88.702" height="38.0886" stroke="#242424" stroke-width="0.860678"/>
<rect x="1436.64" y="484.664" width="88.702" height="38.0886" stroke="#242424" stroke-width="0.860678"/>
<rect x="1525.34" y="484.664" width="88.702" height="38.0886" stroke="#242424" stroke-width="0.860678"/>
<rect x="1614.04" y="484.664" width="88.702" height="38.0886" stroke="#242424" stroke-width="0.860678"/>
<rect x="460.918" y="522.849" width="88.702" height="38.0886" stroke="#242424" stroke-width="0.860678"/>
<rect x="549.62" y="484.664" width="88.702" height="38.0886" stroke="#242424" stroke-width="0.860678"/>
<rect x="638.322" y="522.849" width="88.702" height="38.0886" fill="#0F0F0F"/>
<rect x="638.322" y="522.849" width="88.702" height="38.0886" fill="#121212"/>
<rect x="638.322" y="522.849" width="88.702" height="38.0886" stroke="#242424" stroke-width="0.860678"/>
<rect x="727.024" y="522.849" width="88.702" height="38.0886" fill="#0F0F0F"/>
<rect x="727.024" y="522.849" width="88.702" height="38.0886" fill="#121212"/>
<rect x="727.024" y="522.849" width="88.702" height="38.0886" stroke="#242424" stroke-width="0.860678"/>
<rect x="904.428" y="522.849" width="88.702" height="38.0886" fill="#0F0F0F"/>
<rect x="904.428" y="522.849" width="88.702" height="38.0886" fill="#121212"/>
<rect x="904.428" y="522.849" width="88.702" height="38.0886" stroke="#242424" stroke-width="0.860678"/>
<rect x="1081.83" y="522.849" width="88.702" height="38.0886" stroke="#242424" stroke-width="0.860678"/>
<rect x="1170.53" y="522.849" width="88.702" height="38.0886" stroke="#242424" stroke-width="0.860678"/>
<rect x="1259.24" y="522.849" width="88.702" height="38.0886" stroke="#242424" stroke-width="0.860678"/>
<rect x="1347.94" y="522.849" width="88.702" height="38.0886" stroke="#242424" stroke-width="0.860678"/>
<rect x="815.726" y="637.114" width="88.702" height="38.0886" stroke="#242424" stroke-width="0.860678"/>
<rect x="1170.53" y="637.114" width="88.702" height="38.0886" stroke="#242424" stroke-width="0.860678"/>
<rect x="1259.24" y="637.114" width="88.702" height="38.0886" stroke="#242424" stroke-width="0.860678"/>
<rect x="1347.94" y="637.114" width="88.702" height="38.0886" stroke="#242424" stroke-width="0.860678"/>
<rect x="1436.64" y="637.114" width="88.702" height="38.0886" stroke="#242424" stroke-width="0.860678"/>
<rect x="815.726" y="560.937" width="88.702" height="38.0886" stroke="#242424" stroke-width="0.860678"/>
<rect x="904.428" y="599.026" width="88.702" height="38.0886" stroke="#242424" stroke-width="0.860678"/>
<rect x="993.13" y="560.937" width="88.702" height="38.0886" stroke="#242424" stroke-width="0.860678"/>
<rect x="1081.83" y="560.937" width="88.702" height="38.0886" stroke="#242424" stroke-width="0.860678"/>
<rect x="1170.53" y="560.937" width="88.702" height="38.0886" stroke="#242424" stroke-width="0.860678"/>
<rect x="1259.24" y="560.937" width="88.702" height="38.0886" stroke="#242424" stroke-width="0.860678"/>
<rect x="1347.94" y="560.937" width="88.702" height="38.0886" stroke="#242424" stroke-width="0.860678"/>
<rect x="1436.64" y="560.937" width="88.702" height="38.0886" stroke="#242424" stroke-width="0.860678"/>
<rect x="1525.34" y="560.937" width="88.702" height="38.0886" stroke="#242424" stroke-width="0.860678"/>
<path opacity="0.5" d="M904.428 637.756L904.428 561.483" stroke="url(#paint0_linear_102_14286)" stroke-width="1.29102"/>
<path opacity="0.5" d="M815.726 599.122L815.726 522.849" stroke="url(#paint1_linear_102_14286)" stroke-width="1.29102"/>
<path opacity="0.5" d="M1436.64 539.558L1436.64 446.576" stroke="url(#paint2_linear_102_14286)" stroke-width="1.29102"/>
<path opacity="0.5" d="M1436.64 693.277L1436.64 600.295" stroke="url(#paint3_linear_102_14286)" stroke-width="1.29102"/>
<path opacity="0.5" d="M1347.94 577.743L1347.94 484.76" stroke="url(#paint4_linear_102_14286)" stroke-width="1.29102"/>
<path opacity="0.5" d="M1614.04 655.189L1614.04 562.206" stroke="url(#paint5_linear_102_14286)" stroke-width="1.29102"/>
</g>
<defs>
<linearGradient id="paint0_linear_102_14286" x1="903.928" y1="637.756" x2="903.928" y2="561.483" gradientUnits="userSpaceOnUse">
<stop stop-color="#676C6A" stop-opacity="0"/>
<stop offset="0.67" stop-color="white"/>
</linearGradient>
<linearGradient id="paint1_linear_102_14286" x1="815.226" y1="599.122" x2="815.226" y2="522.849" gradientUnits="userSpaceOnUse">
<stop stop-color="#676C6A" stop-opacity="0"/>
<stop offset="0.67" stop-color="white"/>
</linearGradient>
<linearGradient id="paint2_linear_102_14286" x1="1436.14" y1="539.558" x2="1436.14" y2="446.576" gradientUnits="userSpaceOnUse">
<stop stop-color="#676C6A" stop-opacity="0"/>
<stop offset="0.67" stop-color="white"/>
</linearGradient>
<linearGradient id="paint3_linear_102_14286" x1="1436.14" y1="693.277" x2="1436.14" y2="600.295" gradientUnits="userSpaceOnUse">
<stop stop-color="#676C6A" stop-opacity="0"/>
<stop offset="0.67" stop-color="white"/>
</linearGradient>
<linearGradient id="paint4_linear_102_14286" x1="1347.44" y1="577.743" x2="1347.44" y2="484.76" gradientUnits="userSpaceOnUse">
<stop stop-color="#676C6A" stop-opacity="0"/>
<stop offset="0.67" stop-color="white"/>
</linearGradient>
<linearGradient id="paint5_linear_102_14286" x1="1613.54" y1="655.189" x2="1613.54" y2="562.206" gradientUnits="userSpaceOnUse">
<stop stop-color="#676C6A" stop-opacity="0"/>
<stop offset="0.67" stop-color="white"/>
</linearGradient>
<clipPath id="clip0_102_14286">
<rect width="1680" height="712" fill="white"/>
</clipPath>
</defs>
</svg>
