<svg xmlns="http://www.w3.org/2000/svg" width="1680" height="712" fill="none" viewBox="0 0 1680 712"><g clip-path="url(#a)"><path fill="#fdfdfd" d="M1170.53 599.434h518.092v37.392H1170.53z"/><path fill="#fcfcfc" d="M1170.53 599.434h518.092v37.392H1170.53z"/><path fill="#fdfdfd" d="M1081.83 674.581h266.106v37.392H1081.83z"/><path fill="#fcfcfc" d="M1081.83 674.581h266.106v37.392H1081.83z"/><path fill="#fdfdfd" d="M1081.83 523.546h354.808v37.392H1081.83z"/><path fill="#fcfcfc" d="M1081.83 523.546h354.808v37.392H1081.83z"/><path fill="#fdfdfd" d="M1436.64 447.657h251.986v37.392H1436.64z"/><path fill="#fcfcfc" d="M1436.64 447.657h251.986v37.392H1436.64z"/><path stroke="#ededed" stroke-width=".861" d="M1081.83 675.203h88.702v38.089h-88.702zM904.428 408.487h88.702v38.089h-88.702zM1259.24 675.203h88.702v38.089h-88.702z"/><path stroke="#ededed" stroke-width=".861" d="M1170.53 675.203h88.702v38.089h-88.702z"/><path fill="#fdfdfd" d="M1081.83 370.398h88.702v38.089h-88.702z"/><path fill="#fcfcfc" d="M1081.83 370.398h88.702v38.089h-88.702z"/><path stroke="#ededed" stroke-width=".861" d="M1081.83 370.398h88.702v38.089h-88.702z"/><path fill="#fdfdfd" d="M993.13 294.221h88.702v38.089H993.13z"/><path fill="#fcfcfc" d="M993.13 294.221h88.702v38.089H993.13z"/><path stroke="#ededed" stroke-width=".861" d="M993.13 294.221h88.702v38.089H993.13zM1436.64 675.203h88.702v38.089h-88.702zM1170.53 599.026h88.702v38.089h-88.702zM1259.24 599.026h88.702v38.089h-88.702z"/><path stroke="#ededed" stroke-width=".861" d="M1347.94 599.026h88.702v38.089h-88.702z"/><path stroke="#ededed" stroke-width=".861" d="M1436.64 599.026h88.702v38.089h-88.702z"/><path stroke="#ededed" stroke-width=".861" d="M1525.34 599.026h88.702v38.089h-88.702z"/><path stroke="#ededed" stroke-width=".861" d="M1614.04 599.026h88.702v38.089h-88.702zM1347.94 408.487h88.702v38.089h-88.702zM1259.24 332.31h88.702v38.089h-88.702z"/><path fill="#fdfdfd" d="M1436.64 370.398h88.702v38.089h-88.702z"/><path fill="#fcfcfc" d="M1436.64 370.398h88.702v38.089h-88.702z"/><path stroke="#ededed" stroke-width=".861" d="M1436.64 370.398h88.702v38.089h-88.702z"/><path fill="#fdfdfd" d="M1436.64 294.221h88.702v38.089h-88.702z"/><path fill="#fcfcfc" d="M1436.64 294.221h88.702v38.089h-88.702z"/><path stroke="#ededed" stroke-width=".861" d="M1436.64 294.221h88.702v38.089h-88.702zM1436.64 446.576h88.702v38.089h-88.702z"/><path stroke="#ededed" stroke-width=".861" d="M1525.34 446.576h88.702v38.089h-88.702z"/><path stroke="#ededed" stroke-width=".861" d="M1614.04 446.576h88.702v38.089h-88.702zM1347.94 484.664h88.702v38.089h-88.702z"/><path stroke="#ededed" stroke-width=".861" d="M1436.64 484.664h88.702v38.089h-88.702z"/><path stroke="#ededed" stroke-width=".861" d="M1525.34 484.664h88.702v38.089h-88.702z"/><path stroke="#ededed" stroke-width=".861" d="M1614.04 484.664h88.702v38.089h-88.702zM460.918 522.849h88.702v38.089h-88.702zM549.62 484.664h88.702v38.089H549.62z"/><path fill="#fdfdfd" d="M638.322 522.849h88.702v38.089h-88.702z"/><path fill="#fcfcfc" d="M638.322 522.849h88.702v38.089h-88.702z"/><path stroke="#ededed" stroke-width=".861" d="M638.322 522.849h88.702v38.089h-88.702z"/><path fill="#fdfdfd" d="M727.024 522.849h88.702v38.089h-88.702z"/><path fill="#fcfcfc" d="M727.024 522.849h88.702v38.089h-88.702z"/><path stroke="#ededed" stroke-width=".861" d="M727.024 522.849h88.702v38.089h-88.702z"/><path fill="#fdfdfd" d="M904.428 522.849h88.702v38.089h-88.702z"/><path fill="#fcfcfc" d="M904.428 522.849h88.702v38.089h-88.702z"/><path stroke="#ededed" stroke-width=".861" d="M904.428 522.849h88.702v38.089h-88.702zM1081.83 522.849h88.702v38.089h-88.702z"/><path stroke="#ededed" stroke-width=".861" d="M1170.53 522.849h88.702v38.089h-88.702zM1259.24 522.849h88.702v38.089h-88.702z"/><path stroke="#ededed" stroke-width=".861" d="M1347.94 522.849h88.702v38.089h-88.702zM815.726 637.114h88.702v38.089h-88.702zM1170.53 637.114h88.702v38.089h-88.702zM1259.24 637.114h88.702v38.089h-88.702z"/><path stroke="#ededed" stroke-width=".861" d="M1347.94 637.114h88.702v38.089h-88.702z"/><path stroke="#ededed" stroke-width=".861" d="M1436.64 637.114h88.702v38.089h-88.702zM815.726 560.937h88.702v38.089h-88.702zM904.428 599.026h88.702v38.089h-88.702zM993.13 560.937h88.702v38.089H993.13z"/><path stroke="#ededed" stroke-width=".861" d="M1081.83 560.937h88.702v38.089h-88.702z"/><path stroke="#ededed" stroke-width=".861" d="M1170.53 560.937h88.702v38.089h-88.702zM1259.24 560.937h88.702v38.089h-88.702z"/><path stroke="#ededed" stroke-width=".861" d="M1347.94 560.937h88.702v38.089h-88.702z"/><path stroke="#ededed" stroke-width=".861" d="M1436.64 560.937h88.702v38.089h-88.702z"/><path stroke="#ededed" stroke-width=".861" d="M1525.34 560.937h88.702v38.089h-88.702z"/><path stroke="url(#b)" stroke-width="1.291" d="M904.428 637.756v-76.273" opacity=".5"/><path stroke="url(#c)" stroke-width="1.291" d="M815.726 599.122v-76.273" opacity=".5"/><path stroke="url(#d)" stroke-width="1.291" d="M1436.64 539.558v-92.982" opacity=".5"/><path stroke="url(#e)" stroke-width="1.291" d="M1436.64 693.277v-92.982" opacity=".5"/><path stroke="url(#f)" stroke-width="1.291" d="M1347.94 577.743V484.76" opacity=".5"/><path stroke="url(#g)" stroke-width="1.291" d="M1614.04 655.189v-92.983" opacity=".5"/></g><defs><linearGradient id="b" x1="903.928" x2="903.928" y1="637.756" y2="561.483" gradientUnits="userSpaceOnUse"><stop stop-color="#676c6a" stop-opacity="0"/><stop offset=".67" stop-color="#fff"/></linearGradient><linearGradient id="c" x1="815.226" x2="815.226" y1="599.122" y2="522.849" gradientUnits="userSpaceOnUse"><stop stop-color="#676c6a" stop-opacity="0"/><stop offset=".67" stop-color="#fff"/></linearGradient><linearGradient id="d" x1="1436.14" x2="1436.14" y1="539.558" y2="446.576" gradientUnits="userSpaceOnUse"><stop stop-color="#676c6a" stop-opacity="0"/><stop offset=".67" stop-color="#fff"/></linearGradient><linearGradient id="e" x1="1436.14" x2="1436.14" y1="693.277" y2="600.295" gradientUnits="userSpaceOnUse"><stop stop-color="#676c6a" stop-opacity="0"/><stop offset=".67" stop-color="#fff"/></linearGradient><linearGradient id="f" x1="1347.44" x2="1347.44" y1="577.743" y2="484.76" gradientUnits="userSpaceOnUse"><stop stop-color="#676c6a" stop-opacity="0"/><stop offset=".67" stop-color="#fff"/></linearGradient><linearGradient id="g" x1="1613.54" x2="1613.54" y1="655.189" y2="562.206" gradientUnits="userSpaceOnUse"><stop stop-color="#676c6a" stop-opacity="0"/><stop offset=".67" stop-color="#fff"/></linearGradient><clipPath id="a"><path fill="#fff" d="M0 0h1680v712H0z"/></clipPath></defs></svg>