<svg width="361" height="210" viewBox="0 0 361 210" fill="none" xmlns="http://www.w3.org/2000/svg">
<g clip-path="url(#clip0_1119_17619)">
<path d="M403.692 312.024H404.192V311.524V24C404.192 21.5147 402.177 19.5 399.692 19.5H31.4873C29.002 19.5 26.9873 21.5147 26.9873 24V311.524V312.024H27.4873H403.692Z" fill="white" stroke="#ECEEF0"/>
<path d="M27.4873 24C27.4873 21.7909 29.2782 20 31.4873 20H399.692C401.901 20 403.692 21.7909 403.692 24V42.2113H27.4873V24Z" fill="#D7DBDF"/>
<path d="M48.3297 115.164H39.7996V113.59L44.0647 109.746C44.6871 109.184 45.1996 108.611 45.6023 108.025C46.005 107.427 46.2064 106.799 46.2064 106.14V105.92C46.2064 105.151 46.005 104.559 45.6023 104.145C45.1996 103.717 44.6016 103.504 43.8084 103.504C43.0274 103.504 42.4233 103.705 41.9962 104.108C41.5813 104.498 41.2701 105.023 41.0627 105.682L39.6898 105.17C39.8119 104.791 39.9766 104.425 40.184 104.071C40.4037 103.705 40.6783 103.382 41.0078 103.101C41.3373 102.82 41.7339 102.595 42.1976 102.424C42.6735 102.253 43.2227 102.168 43.845 102.168C44.4796 102.168 45.0409 102.259 45.5291 102.442C46.0294 102.625 46.4443 102.881 46.7738 103.211C47.1155 103.54 47.3718 103.931 47.5426 104.382C47.7257 104.834 47.8172 105.328 47.8172 105.865C47.8172 106.353 47.744 106.811 47.5975 107.238C47.4633 107.665 47.268 108.074 47.0118 108.464C46.7677 108.855 46.4687 109.239 46.1148 109.618C45.7731 109.984 45.3887 110.35 44.9616 110.716L41.3922 113.828H48.3297V115.164ZM51.0317 115.164V113.828H54.6927V103.522H54.5645L51.3429 106.524L50.4459 105.554L53.8323 102.387H56.2303V113.828H59.5984V115.164H51.0317ZM48.3297 139.164H39.7996V137.59L44.0647 133.746C44.6871 133.184 45.1996 132.611 45.6023 132.025C46.005 131.427 46.2064 130.799 46.2064 130.14V129.92C46.2064 129.151 46.005 128.559 45.6023 128.145C45.1996 127.717 44.6016 127.504 43.8084 127.504C43.0274 127.504 42.4233 127.705 41.9962 128.108C41.5813 128.498 41.2701 129.023 41.0627 129.682L39.6898 129.17C39.8119 128.791 39.9766 128.425 40.184 128.071C40.4037 127.705 40.6783 127.382 41.0078 127.101C41.3373 126.82 41.7339 126.595 42.1976 126.424C42.6735 126.253 43.2227 126.168 43.845 126.168C44.4796 126.168 45.0409 126.259 45.5291 126.442C46.0294 126.625 46.4443 126.881 46.7738 127.211C47.1155 127.54 47.3718 127.931 47.5426 128.382C47.7257 128.834 47.8172 129.328 47.8172 129.865C47.8172 130.353 47.744 130.811 47.5975 131.238C47.4633 131.665 47.268 132.074 47.0118 132.464C46.7677 132.855 46.4687 133.239 46.1148 133.618C45.7731 133.984 45.3887 134.35 44.9616 134.716L41.3922 137.828H48.3297V139.164ZM59.3055 139.164H50.7754V137.59L55.0405 133.746C55.6628 133.184 56.1754 132.611 56.5781 132.025C56.9808 131.427 57.1821 130.799 57.1821 130.14V129.92C57.1821 129.151 56.9808 128.559 56.5781 128.145C56.1754 127.717 55.5774 127.504 54.7842 127.504C54.0032 127.504 53.3991 127.705 52.972 128.108C52.5571 128.498 52.2459 129.023 52.0385 129.682L50.6656 129.17C50.7876 128.791 50.9524 128.425 51.1598 128.071C51.3795 127.705 51.6541 127.382 51.9836 127.101C52.313 126.82 52.7096 126.595 53.1734 126.424C53.6493 126.253 54.1984 126.168 54.8208 126.168C55.4554 126.168 56.0167 126.259 56.5049 126.442C57.0052 126.625 57.4201 126.881 57.7496 127.211C58.0913 127.54 58.3475 127.931 58.5184 128.382C58.7014 128.834 58.793 129.328 58.793 129.865C58.793 130.353 58.7197 130.811 58.5733 131.238C58.4391 131.665 58.2438 132.074 57.9876 132.464C57.7435 132.855 57.4445 133.239 57.0906 133.618C56.7489 133.984 56.3645 134.35 55.9374 134.716L52.368 137.828H59.3055V139.164ZM48.3297 163.164H39.7996V161.59L44.0647 157.746C44.6871 157.184 45.1996 156.611 45.6023 156.025C46.005 155.427 46.2064 154.799 46.2064 154.14V153.92C46.2064 153.151 46.005 152.559 45.6023 152.145C45.1996 151.717 44.6016 151.504 43.8084 151.504C43.0274 151.504 42.4233 151.705 41.9962 152.108C41.5813 152.498 41.2701 153.023 41.0627 153.682L39.6898 153.17C39.8119 152.791 39.9766 152.425 40.184 152.071C40.4037 151.705 40.6783 151.382 41.0078 151.101C41.3373 150.82 41.7339 150.595 42.1976 150.424C42.6735 150.253 43.2227 150.168 43.845 150.168C44.4796 150.168 45.0409 150.259 45.5291 150.442C46.0294 150.625 46.4443 150.881 46.7738 151.211C47.1155 151.54 47.3718 151.931 47.5426 152.382C47.7257 152.834 47.8172 153.328 47.8172 153.865C47.8172 154.353 47.744 154.811 47.5975 155.238C47.4633 155.665 47.268 156.074 47.0118 156.464C46.7677 156.855 46.4687 157.239 46.1148 157.618C45.7731 157.984 45.3887 158.35 44.9616 158.716L41.3922 161.828H48.3297V163.164ZM54.4181 155.805C55.3089 155.805 55.974 155.61 56.4133 155.22C56.8649 154.817 57.0906 154.304 57.0906 153.682V153.554C57.0906 152.871 56.871 152.358 56.4316 152.016C56.0045 151.675 55.4432 151.504 54.7476 151.504C54.0642 151.504 53.509 151.656 53.0818 151.961C52.6669 152.254 52.3252 152.645 52.0568 153.133L50.9036 152.254C51.0622 151.998 51.2575 151.748 51.4893 151.504C51.7212 151.248 51.9897 151.022 52.2947 150.827C52.612 150.631 52.972 150.473 53.3747 150.351C53.7896 150.229 54.2595 150.168 54.7842 150.168C55.3333 150.168 55.8459 150.241 56.3218 150.387C56.7977 150.521 57.2126 150.729 57.5665 151.01C57.9204 151.278 58.195 151.614 58.3903 152.016C58.5977 152.419 58.7014 152.877 58.7014 153.389C58.7014 153.804 58.6343 154.176 58.5001 154.506C58.3781 154.835 58.2011 155.122 57.9692 155.366C57.7496 155.61 57.4872 155.818 57.1821 155.989C56.8771 156.159 56.5537 156.288 56.212 156.373V156.446C56.5659 156.519 56.9076 156.641 57.2371 156.812C57.5665 156.971 57.8594 157.184 58.1157 157.453C58.372 157.709 58.5733 158.026 58.7197 158.405C58.8784 158.771 58.9577 159.192 58.9577 159.668C58.9577 160.217 58.8479 160.723 58.6282 161.187C58.4208 161.639 58.1218 162.029 57.7313 162.359C57.353 162.676 56.8893 162.926 56.3401 163.109C55.8032 163.292 55.2052 163.384 54.5462 163.384C53.9849 163.384 53.4846 163.323 53.0452 163.201C52.6181 163.079 52.2337 162.914 51.892 162.706C51.5625 162.499 51.2697 162.267 51.0134 162.011C50.7693 161.755 50.5497 161.486 50.3544 161.205L51.5076 160.327C51.6785 160.583 51.8554 160.815 52.0385 161.022C52.2215 161.23 52.429 161.413 52.6608 161.572C52.9049 161.718 53.1795 161.834 53.4846 161.919C53.7896 162.005 54.1435 162.047 54.5462 162.047C55.4493 162.047 56.1388 161.84 56.6147 161.425C57.1028 161.01 57.3469 160.418 57.3469 159.65V159.503C57.3469 158.746 57.1089 158.161 56.633 157.746C56.1693 157.331 55.4676 157.123 54.5279 157.123H53.0086V155.805H54.4181Z" fill="#9BA1A6"/>
<path d="M43.4904 35.3126C46.1947 35.3126 48.387 33.1277 48.387 30.4326C48.387 27.7375 46.1947 25.5527 43.4904 25.5527C40.7861 25.5527 38.5938 27.7375 38.5938 30.4326C38.5938 33.1277 40.7861 35.3126 43.4904 35.3126Z" fill="#ECEEF0"/>
<path d="M57.1652 35.3126C59.8695 35.3126 62.0619 33.1277 62.0619 30.4326C62.0619 27.7375 59.8695 25.5527 57.1652 25.5527C54.4609 25.5527 52.2686 27.7375 52.2686 30.4326C52.2686 33.1277 54.4609 35.3126 57.1652 35.3126Z" fill="#ECEEF0"/>
<path d="M70.8312 35.3126C73.5356 35.3126 75.7279 33.1277 75.7279 30.4326C75.7279 27.7375 73.5356 25.5527 70.8312 25.5527C68.1269 25.5527 65.9346 27.7375 65.9346 30.4326C65.9346 33.1277 68.1269 35.3126 70.8312 35.3126Z" fill="#ECEEF0"/>
<path d="M228.23 133.471C228.23 132.58 228.328 131.726 228.523 130.909C228.731 130.079 229.005 129.31 229.347 128.602C229.701 127.894 230.11 127.26 230.573 126.698C231.037 126.125 231.525 125.643 232.038 125.252H233.521C232.984 125.655 232.477 126.125 232.001 126.662C231.537 127.187 231.123 127.766 230.756 128.401C230.403 129.023 230.122 129.7 229.914 130.433C229.707 131.153 229.603 131.903 229.603 132.684V134.258C229.603 135.039 229.707 135.796 229.914 136.528C230.122 137.248 230.403 137.925 230.756 138.56C231.123 139.182 231.537 139.756 232.001 140.281C232.477 140.818 232.984 141.287 233.521 141.69H232.038C231.525 141.312 231.037 140.836 230.573 140.262C230.11 139.689 229.701 139.048 229.347 138.34C229.005 137.633 228.731 136.87 228.523 136.052C228.328 135.222 228.23 134.362 228.23 133.471Z" fill="#9BA1A6"/>
<path d="M241.275 139.384C240.591 139.384 239.981 139.268 239.444 139.036C238.919 138.792 238.474 138.456 238.108 138.029C237.742 137.602 237.461 137.083 237.266 136.473C237.083 135.863 236.991 135.186 236.991 134.441C236.991 133.697 237.089 133.02 237.284 132.41C237.479 131.799 237.76 131.281 238.126 130.854C238.492 130.414 238.938 130.079 239.462 129.847C239.987 129.615 240.585 129.499 241.256 129.499C242.172 129.499 242.916 129.7 243.49 130.103C244.063 130.506 244.484 131.031 244.753 131.677L243.581 132.3C243.41 131.812 243.123 131.433 242.721 131.165C242.33 130.896 241.842 130.762 241.256 130.762C240.829 130.762 240.445 130.835 240.103 130.982C239.774 131.116 239.493 131.311 239.261 131.568C239.029 131.824 238.852 132.129 238.73 132.483C238.62 132.837 238.565 133.221 238.565 133.636V135.247C238.565 135.662 238.62 136.046 238.73 136.4C238.852 136.754 239.029 137.059 239.261 137.315C239.493 137.572 239.78 137.773 240.121 137.919C240.463 138.054 240.854 138.121 241.293 138.121C241.927 138.121 242.452 137.974 242.867 137.681C243.282 137.388 243.612 136.986 243.856 136.473L244.899 137.187C244.618 137.822 244.179 138.346 243.581 138.761C242.995 139.176 242.226 139.384 241.275 139.384Z" fill="#9BA1A6"/>
<path d="M247.418 139.164V129.719H248.772V130.817H248.846C248.992 130.451 249.2 130.14 249.468 129.883C249.737 129.627 250.133 129.499 250.658 129.499C251.207 129.499 251.616 129.639 251.884 129.92C252.153 130.189 252.318 130.542 252.379 130.982H252.433C252.604 130.555 252.848 130.201 253.166 129.92C253.483 129.639 253.922 129.499 254.484 129.499C255.252 129.499 255.765 129.768 256.021 130.304C256.29 130.841 256.424 131.61 256.424 132.611V139.164H255.069V132.849C255.069 132.043 254.984 131.488 254.813 131.183C254.654 130.866 254.355 130.707 253.916 130.707C253.526 130.707 253.208 130.835 252.964 131.092C252.72 131.336 252.598 131.714 252.598 132.226V139.164H251.244V132.849C251.244 132.043 251.158 131.488 250.987 131.183C250.829 130.866 250.536 130.707 250.109 130.707C249.718 130.707 249.395 130.835 249.139 131.092C248.894 131.336 248.772 131.714 248.772 132.226V139.164H247.418Z" fill="#9BA1A6"/>
<path d="M262.11 136.675H264.471L262.366 141.745H261.139L262.11 136.675Z" fill="#9BA1A6"/>
<path d="M283.915 139.164L280.528 129.719H282.011L283.366 133.673L284.83 137.938H284.903L286.368 133.673L287.722 129.719H289.168L285.782 139.164H283.915Z" fill="#9BA1A6"/>
<path d="M296.41 127.632C295.983 127.632 295.684 127.547 295.513 127.376C295.342 127.193 295.257 126.967 295.257 126.698V126.406C295.257 126.137 295.342 125.917 295.513 125.747C295.684 125.564 295.983 125.472 296.41 125.472C296.837 125.472 297.136 125.564 297.307 125.747C297.478 125.917 297.563 126.137 297.563 126.406V126.698C297.563 126.967 297.478 127.193 297.307 127.376C297.136 127.547 296.837 127.632 296.41 127.632ZM292.273 137.919H295.678V130.963H292.273V129.719H297.142V137.919H300.327V139.164H292.273V137.919Z" fill="#9BA1A6"/>
<path d="M306.965 139.384C306.281 139.384 305.665 139.268 305.116 139.036C304.579 138.804 304.115 138.475 303.725 138.047C303.346 137.608 303.053 137.089 302.846 136.492C302.639 135.881 302.535 135.204 302.535 134.46C302.535 133.703 302.639 133.02 302.846 132.41C303.066 131.799 303.365 131.281 303.743 130.854C304.121 130.414 304.573 130.079 305.097 129.847C305.634 129.615 306.226 129.499 306.873 129.499C307.508 129.499 308.081 129.615 308.594 129.847C309.118 130.079 309.564 130.402 309.93 130.817C310.296 131.22 310.577 131.702 310.772 132.263C310.967 132.824 311.065 133.441 311.065 134.112V134.807H304.072V135.247C304.072 135.662 304.14 136.046 304.274 136.4C304.408 136.754 304.597 137.059 304.841 137.315C305.097 137.572 305.403 137.773 305.756 137.919C306.123 138.054 306.525 138.121 306.965 138.121C307.599 138.121 308.148 137.974 308.612 137.681C309.076 137.388 309.43 136.986 309.674 136.473L310.754 137.205C310.473 137.84 310.003 138.365 309.344 138.78C308.697 139.182 307.904 139.384 306.965 139.384ZM306.873 130.707C306.47 130.707 306.098 130.78 305.756 130.927C305.415 131.073 305.116 131.275 304.859 131.531C304.615 131.787 304.42 132.092 304.274 132.446C304.14 132.788 304.072 133.166 304.072 133.581V133.709H309.491V133.508C309.491 133.093 309.424 132.715 309.289 132.373C309.167 132.031 308.99 131.738 308.758 131.494C308.539 131.238 308.264 131.043 307.935 130.909C307.617 130.774 307.264 130.707 306.873 130.707Z" fill="#9BA1A6"/>
<path d="M312.833 129.719H314.133L315.213 137.883H315.378L316.988 129.719H318.599L320.21 137.883H320.375L321.455 129.719H322.718L321.272 139.164H319.368L317.867 131.256H317.721L316.183 139.164H314.279L312.833 129.719Z" fill="#9BA1A6"/>
<path d="M324.999 129.719H326.463V131.256H326.536C327.147 130.085 328.117 129.499 329.447 129.499C330.606 129.499 331.509 129.932 332.156 130.799C332.815 131.665 333.145 132.879 333.145 134.441C333.145 136.003 332.815 137.218 332.156 138.084C331.509 138.95 330.606 139.384 329.447 139.384C328.117 139.384 327.147 138.798 326.536 137.626H326.463V142.825H324.999V129.719ZM328.88 138.084C329.734 138.084 330.393 137.828 330.856 137.315C331.332 136.791 331.57 136.101 331.57 135.247V133.636C331.57 132.782 331.332 132.098 330.856 131.586C330.393 131.061 329.734 130.799 328.88 130.799C328.55 130.799 328.239 130.841 327.946 130.927C327.653 131.012 327.397 131.14 327.177 131.311C326.958 131.47 326.781 131.671 326.646 131.915C326.524 132.147 326.463 132.422 326.463 132.739V136.144C326.463 136.461 326.524 136.742 326.646 136.986C326.781 137.218 326.958 137.419 327.177 137.59C327.397 137.748 327.653 137.87 327.946 137.956C328.239 138.041 328.55 138.084 328.88 138.084Z" fill="#9BA1A6"/>
<path d="M339.727 139.384C339.068 139.384 338.47 139.268 337.933 139.036C337.409 138.804 336.957 138.475 336.579 138.047C336.213 137.608 335.932 137.089 335.737 136.492C335.541 135.881 335.444 135.198 335.444 134.441C335.444 133.697 335.541 133.02 335.737 132.41C335.932 131.799 336.213 131.281 336.579 130.854C336.957 130.414 337.409 130.079 337.933 129.847C338.47 129.615 339.068 129.499 339.727 129.499C340.386 129.499 340.978 129.615 341.503 129.847C342.04 130.079 342.491 130.414 342.857 130.854C343.236 131.281 343.522 131.799 343.718 132.41C343.913 133.02 344.01 133.697 344.01 134.441C344.01 135.198 343.913 135.881 343.718 136.492C343.522 137.089 343.236 137.608 342.857 138.047C342.491 138.475 342.04 138.804 341.503 139.036C340.978 139.268 340.386 139.384 339.727 139.384ZM339.727 138.121C340.545 138.121 341.204 137.877 341.704 137.388C342.204 136.9 342.455 136.144 342.455 135.119V133.764C342.455 132.739 342.204 131.982 341.704 131.494C341.204 131.006 340.545 130.762 339.727 130.762C338.91 130.762 338.251 131.006 337.75 131.494C337.25 131.982 337 132.739 337 133.764V135.119C337 136.144 337.25 136.9 337.75 137.388C338.251 137.877 338.91 138.121 339.727 138.121Z" fill="#9BA1A6"/>
<path d="M346.621 137.919H349.385V130.963H346.621V129.719H350.849V132.098H350.941C351.136 131.354 351.502 130.774 352.039 130.359C352.588 129.932 353.284 129.719 354.126 129.719H355.444V131.183H353.668C352.826 131.183 352.143 131.427 351.618 131.915C351.106 132.403 350.849 133.044 350.849 133.837V137.919H354.51V139.164H346.621V137.919Z" fill="#9BA1A6"/>
<path d="M362.136 139.164C361.416 139.164 360.886 138.963 360.544 138.56C360.214 138.157 360.05 137.639 360.05 137.004V130.963H356.901V129.719H359.244C359.561 129.719 359.781 129.658 359.903 129.536C360.037 129.401 360.104 129.176 360.104 128.858V126.387H361.514V129.719H365.816V130.963H361.514V137.919H365.816V139.164H362.136Z" fill="#9BA1A6"/>
<path d="M371.867 136.675H374.229L372.124 141.745H370.897L371.867 136.675Z" fill="#9BA1A6"/>
<path d="M390.634 137.919H393.819V130.963H390.451V129.719H393.819V127.778C393.819 127.144 393.984 126.625 394.313 126.222C394.655 125.82 395.186 125.618 395.906 125.618H399.072V126.863H395.283V129.719H399.072V130.963H395.283V137.919H398.651V139.164H390.634V137.919Z" fill="#9BA1A6"/>
<path d="M405.582 139.384C404.923 139.384 404.325 139.268 403.788 139.036C403.263 138.804 402.812 138.475 402.433 138.047C402.067 137.608 401.787 137.089 401.591 136.492C401.396 135.881 401.299 135.198 401.299 134.441C401.299 133.697 401.396 133.02 401.591 132.41C401.787 131.799 402.067 131.281 402.433 130.854C402.812 130.414 403.263 130.079 403.788 129.847C404.325 129.615 404.923 129.499 405.582 129.499C406.241 129.499 406.833 129.615 407.357 129.847C407.894 130.079 408.346 130.414 408.712 130.854C409.09 131.281 409.377 131.799 409.572 132.41C409.768 133.02 409.865 133.697 409.865 134.441C409.865 135.198 409.768 135.881 409.572 136.492C409.377 137.089 409.09 137.608 408.712 138.047C408.346 138.475 407.894 138.804 407.357 139.036C406.833 139.268 406.241 139.384 405.582 139.384ZM405.582 138.121C406.399 138.121 407.058 137.877 407.559 137.388C408.059 136.9 408.309 136.144 408.309 135.119V133.764C408.309 132.739 408.059 131.982 407.559 131.494C407.058 131.006 406.399 130.762 405.582 130.762C404.764 130.762 404.105 131.006 403.605 131.494C403.105 131.982 402.854 132.739 402.854 133.764V135.119C402.854 136.144 403.105 136.9 403.605 137.388C404.105 137.877 404.764 138.121 405.582 138.121Z" fill="#9BA1A6"/>
<path d="M412.476 137.919H415.24V130.963H412.476V129.719H416.704V132.098H416.796C416.991 131.354 417.357 130.774 417.894 130.359C418.443 129.932 419.139 129.719 419.981 129.719H421.299V131.183H419.523C418.681 131.183 417.998 131.427 417.473 131.915C416.96 132.403 416.704 133.044 416.704 133.837V137.919H420.365V139.164H412.476V137.919Z" fill="#9BA1A6"/>
<path d="M427.863 139.384C427.18 139.384 426.569 139.268 426.032 139.036C425.508 138.792 425.062 138.456 424.696 138.029C424.33 137.602 424.049 137.083 423.854 136.473C423.671 135.863 423.58 135.186 423.58 134.441C423.58 133.697 423.677 133.02 423.872 132.41C424.068 131.799 424.348 131.281 424.714 130.854C425.081 130.414 425.526 130.079 426.051 129.847C426.575 129.615 427.173 129.499 427.845 129.499C428.76 129.499 429.504 129.7 430.078 130.103C430.651 130.506 431.072 131.031 431.341 131.677L430.169 132.3C429.998 131.812 429.712 131.433 429.309 131.165C428.918 130.896 428.43 130.762 427.845 130.762C427.417 130.762 427.033 130.835 426.691 130.982C426.362 131.116 426.081 131.311 425.849 131.568C425.618 131.824 425.441 132.129 425.319 132.483C425.209 132.837 425.154 133.221 425.154 133.636V135.247C425.154 135.662 425.209 136.046 425.319 136.4C425.441 136.754 425.618 137.059 425.849 137.315C426.081 137.572 426.368 137.773 426.71 137.919C427.051 138.054 427.442 138.121 427.881 138.121C428.516 138.121 429.041 137.974 429.455 137.681C429.87 137.388 430.2 136.986 430.444 136.473L431.487 137.187C431.207 137.822 430.767 138.346 430.169 138.761C429.584 139.176 428.815 139.384 427.863 139.384Z" fill="#9BA1A6"/>
<path d="M438.674 139.384C437.991 139.384 437.374 139.268 436.825 139.036C436.288 138.804 435.824 138.475 435.434 138.047C435.056 137.608 434.763 137.089 434.555 136.492C434.348 135.881 434.244 135.204 434.244 134.46C434.244 133.703 434.348 133.02 434.555 132.41C434.775 131.799 435.074 131.281 435.452 130.854C435.831 130.414 436.282 130.079 436.807 129.847C437.344 129.615 437.936 129.499 438.582 129.499C439.217 129.499 439.791 129.615 440.303 129.847C440.828 130.079 441.273 130.402 441.639 130.817C442.005 131.22 442.286 131.702 442.481 132.263C442.677 132.824 442.774 133.441 442.774 134.112V134.807H435.782V135.247C435.782 135.662 435.849 136.046 435.983 136.4C436.117 136.754 436.307 137.059 436.551 137.315C436.807 137.572 437.112 137.773 437.466 137.919C437.832 138.054 438.235 138.121 438.674 138.121C439.309 138.121 439.858 137.974 440.321 137.681C440.785 137.388 441.139 136.986 441.383 136.473L442.463 137.205C442.182 137.84 441.713 138.365 441.054 138.78C440.407 139.182 439.614 139.384 438.674 139.384ZM438.582 130.707C438.18 130.707 437.808 130.78 437.466 130.927C437.124 131.073 436.825 131.275 436.569 131.531C436.325 131.787 436.13 132.092 435.983 132.446C435.849 132.788 435.782 133.166 435.782 133.581V133.709H441.2V133.508C441.2 133.093 441.133 132.715 440.999 132.373C440.877 132.031 440.7 131.738 440.468 131.494C440.248 131.238 439.974 131.043 439.644 130.909C439.327 130.774 438.973 130.707 438.582 130.707Z" fill="#9BA1A6"/>
<path d="M451.224 133.471C451.224 134.362 451.12 135.222 450.913 136.052C450.717 136.87 450.443 137.633 450.089 138.34C449.747 139.048 449.345 139.689 448.881 140.262C448.417 140.836 447.929 141.312 447.417 141.69H445.934C446.459 141.287 446.959 140.818 447.435 140.281C447.911 139.756 448.326 139.182 448.68 138.56C449.046 137.925 449.332 137.248 449.54 136.528C449.747 135.796 449.851 135.039 449.851 134.258V132.684C449.851 131.903 449.747 131.153 449.54 130.433C449.332 129.7 449.046 129.023 448.68 128.401C448.326 127.766 447.911 127.187 447.435 126.662C446.959 126.125 446.459 125.655 445.934 125.252H447.417C447.929 125.643 448.417 126.125 448.881 126.698C449.345 127.26 449.747 127.894 450.089 128.602C450.443 129.31 450.717 130.079 450.913 130.909C451.12 131.726 451.224 132.58 451.224 133.471Z" fill="#9BA1A6"/>
<path d="M471.784 141.69C471.272 141.69 470.887 141.544 470.631 141.251C470.375 140.97 470.247 140.616 470.247 140.189V139.036C470.247 138.706 470.277 138.42 470.338 138.176C470.411 137.932 470.497 137.712 470.595 137.517C470.692 137.321 470.802 137.15 470.924 137.004C471.046 136.845 471.162 136.699 471.272 136.565C471.479 136.321 471.62 136.113 471.693 135.942C471.778 135.759 471.821 135.57 471.821 135.375C471.821 134.911 471.607 134.576 471.18 134.368C470.753 134.148 470.125 134.039 469.295 134.039H467.867V132.904H469.295C470.125 132.904 470.753 132.8 471.18 132.593C471.607 132.373 471.821 132.031 471.821 131.568C471.821 131.372 471.778 131.189 471.693 131.018C471.62 130.835 471.479 130.622 471.272 130.378C471.162 130.243 471.046 130.103 470.924 129.957C470.802 129.798 470.692 129.627 470.595 129.444C470.497 129.249 470.411 129.029 470.338 128.785C470.277 128.529 470.247 128.236 470.247 127.907V126.753C470.247 126.326 470.375 125.972 470.631 125.692C470.887 125.399 471.272 125.252 471.784 125.252H475.006V126.387H471.51V127.797C471.51 128.297 471.583 128.681 471.729 128.95C471.876 129.218 472.047 129.481 472.242 129.737C472.449 130.005 472.645 130.286 472.828 130.579C473.011 130.86 473.102 131.195 473.102 131.586C473.102 132.098 472.919 132.513 472.553 132.831C472.199 133.148 471.711 133.349 471.089 133.435V133.508C471.711 133.593 472.199 133.795 472.553 134.112C472.919 134.429 473.102 134.844 473.102 135.357C473.102 135.747 473.011 136.089 472.828 136.382C472.645 136.662 472.449 136.937 472.242 137.205C472.047 137.462 471.876 137.724 471.729 137.993C471.583 138.261 471.51 138.645 471.51 139.146V140.555H475.006V141.69H471.784Z" fill="#9BA1A6"/>
<path d="M177.379 161.626H177.305C176.695 162.798 175.725 163.384 174.395 163.384C173.236 163.384 172.326 162.95 171.667 162.084C171.021 161.218 170.697 160.003 170.697 158.441C170.697 156.879 171.021 155.665 171.667 154.799C172.326 153.932 173.236 153.499 174.395 153.499C175.725 153.499 176.695 154.085 177.305 155.256H177.379V149.618H178.843V163.164H177.379V161.626ZM174.962 162.084C175.292 162.084 175.603 162.041 175.896 161.956C176.189 161.87 176.445 161.748 176.665 161.59C176.884 161.419 177.055 161.218 177.177 160.986C177.311 160.742 177.379 160.461 177.379 160.144V156.739C177.379 156.422 177.311 156.147 177.177 155.915C177.055 155.671 176.884 155.47 176.665 155.311C176.445 155.14 176.189 155.012 175.896 154.927C175.603 154.841 175.292 154.799 174.962 154.799C174.108 154.799 173.443 155.061 172.967 155.586C172.503 156.098 172.271 156.782 172.271 157.636V159.247C172.271 160.101 172.503 160.79 172.967 161.315C173.443 161.828 174.108 162.084 174.962 162.084Z" fill="#9BA1A6"/>
<path d="M186.652 151.632C186.225 151.632 185.926 151.547 185.755 151.376C185.584 151.193 185.499 150.967 185.499 150.698V150.406C185.499 150.137 185.584 149.917 185.755 149.747C185.926 149.564 186.225 149.472 186.652 149.472C187.079 149.472 187.378 149.564 187.549 149.747C187.72 149.917 187.805 150.137 187.805 150.406V150.698C187.805 150.967 187.72 151.193 187.549 151.376C187.378 151.547 187.079 151.632 186.652 151.632ZM182.515 161.919H185.92V154.963H182.515V153.719H187.384V161.919H190.569V163.164H182.515V161.919Z" fill="#9BA1A6"/>
<path d="M197.152 163.384C196.163 163.384 195.309 163.219 194.589 162.889C193.881 162.548 193.277 162.096 192.777 161.535L193.765 160.675C194.217 161.15 194.711 161.517 195.248 161.773C195.785 162.029 196.432 162.157 197.188 162.157C197.921 162.157 198.519 162.029 198.982 161.773C199.458 161.504 199.696 161.089 199.696 160.528C199.696 160.284 199.647 160.083 199.55 159.924C199.464 159.753 199.342 159.619 199.184 159.521C199.025 159.424 198.848 159.351 198.653 159.302C198.458 159.241 198.25 159.192 198.03 159.155L196.548 158.936C196.218 158.887 195.858 158.82 195.468 158.734C195.089 158.649 194.742 158.515 194.424 158.332C194.107 158.136 193.839 157.88 193.619 157.563C193.412 157.245 193.308 156.831 193.308 156.318C193.308 155.842 193.399 155.433 193.582 155.092C193.778 154.738 194.046 154.445 194.388 154.213C194.729 153.969 195.132 153.792 195.596 153.682C196.06 153.56 196.566 153.499 197.115 153.499C197.969 153.499 198.708 153.633 199.33 153.902C199.965 154.17 200.508 154.542 200.959 155.018L200.007 155.915C199.898 155.781 199.757 155.647 199.586 155.513C199.428 155.366 199.226 155.238 198.982 155.128C198.75 155.006 198.476 154.909 198.159 154.835C197.841 154.762 197.475 154.725 197.06 154.725C196.316 154.725 195.742 154.854 195.34 155.11C194.949 155.366 194.754 155.738 194.754 156.226C194.754 156.471 194.797 156.678 194.882 156.849C194.98 157.007 195.108 157.136 195.266 157.233C195.425 157.331 195.602 157.41 195.797 157.471C196.005 157.52 196.212 157.563 196.42 157.599L197.902 157.819C198.244 157.868 198.604 157.935 198.982 158.02C199.361 158.106 199.708 158.246 200.026 158.441C200.343 158.624 200.605 158.875 200.813 159.192C201.032 159.509 201.142 159.924 201.142 160.437C201.142 161.376 200.776 162.102 200.044 162.615C199.324 163.127 198.36 163.384 197.152 163.384Z" fill="#9BA1A6"/>
<path d="M204.265 153.719H205.73V155.256H205.803C206.413 154.085 207.383 153.499 208.713 153.499C209.873 153.499 210.776 153.932 211.423 154.799C212.081 155.665 212.411 156.879 212.411 158.441C212.411 160.003 212.081 161.218 211.423 162.084C210.776 162.95 209.873 163.384 208.713 163.384C207.383 163.384 206.413 162.798 205.803 161.626H205.73V166.825H204.265V153.719ZM208.146 162.084C209 162.084 209.659 161.828 210.123 161.315C210.599 160.79 210.837 160.101 210.837 159.247V157.636C210.837 156.782 210.599 156.098 210.123 155.586C209.659 155.061 209 154.799 208.146 154.799C207.816 154.799 207.505 154.841 207.212 154.927C206.919 155.012 206.663 155.14 206.444 155.311C206.224 155.47 206.047 155.671 205.913 155.915C205.791 156.147 205.73 156.422 205.73 156.739V160.144C205.73 160.461 205.791 160.742 205.913 160.986C206.047 161.218 206.224 161.419 206.444 161.59C206.663 161.748 206.919 161.87 207.212 161.956C207.505 162.041 207.816 162.084 208.146 162.084Z" fill="#9BA1A6"/>
<path d="M214.966 161.919H218.261V150.863H214.966V149.618H219.726V161.919H223.021V163.164H214.966V161.919Z" fill="#9BA1A6"/>
<path d="M233.539 163.164C232.965 163.164 232.556 163.018 232.312 162.725C232.068 162.432 231.916 162.066 231.855 161.626H231.763C231.556 162.176 231.22 162.609 230.756 162.926C230.305 163.231 229.695 163.384 228.926 163.384C227.938 163.384 227.15 163.127 226.565 162.615C225.979 162.102 225.686 161.401 225.686 160.51C225.686 159.631 226.003 158.954 226.638 158.478C227.285 158.002 228.322 157.764 229.75 157.764H231.763V156.831C231.763 156.135 231.568 155.616 231.177 155.275C230.787 154.921 230.232 154.744 229.512 154.744C228.877 154.744 228.359 154.872 227.956 155.128C227.553 155.372 227.23 155.708 226.986 156.135L225.997 155.403C226.119 155.159 226.284 154.921 226.491 154.689C226.699 154.457 226.955 154.256 227.26 154.085C227.565 153.902 227.913 153.761 228.304 153.664C228.694 153.554 229.127 153.499 229.603 153.499C230.714 153.499 231.592 153.78 232.239 154.341C232.898 154.902 233.228 155.683 233.228 156.684V161.883H234.546V163.164H233.539ZM229.182 162.157C229.561 162.157 229.902 162.115 230.207 162.029C230.525 161.932 230.799 161.809 231.031 161.663C231.263 161.504 231.44 161.321 231.562 161.114C231.696 160.894 231.763 160.662 231.763 160.418V158.862H229.75C228.871 158.862 228.23 158.984 227.828 159.228C227.425 159.473 227.224 159.826 227.224 160.29V160.675C227.224 161.163 227.394 161.535 227.736 161.791C228.09 162.035 228.572 162.157 229.182 162.157Z" fill="#9BA1A6"/>
<path d="M244.002 153.719H245.466L240.78 165.232C240.671 165.501 240.549 165.733 240.414 165.928C240.28 166.136 240.121 166.3 239.938 166.422C239.755 166.557 239.536 166.654 239.279 166.715C239.023 166.788 238.718 166.825 238.364 166.825H236.973V165.58H239.17L240.231 162.981L236.424 153.719H237.925L239.517 157.673L240.927 161.26H241L242.41 157.673L244.002 153.719Z" fill="#9BA1A6"/>
<path d="M258.54 156.355V155.11H267.253V156.355H258.54ZM258.54 160.016V158.771H267.253V160.016H258.54Z" fill="#9BA1A6"/>
<path d="M285.178 163.384C284.494 163.384 283.884 163.268 283.347 163.036C282.823 162.792 282.377 162.456 282.011 162.029C281.645 161.602 281.364 161.083 281.169 160.473C280.986 159.863 280.894 159.186 280.894 158.441C280.894 157.697 280.992 157.02 281.187 156.41C281.383 155.799 281.663 155.281 282.029 154.854C282.395 154.414 282.841 154.079 283.366 153.847C283.89 153.615 284.488 153.499 285.159 153.499C286.075 153.499 286.819 153.7 287.393 154.103C287.966 154.506 288.387 155.031 288.656 155.677L287.484 156.3C287.313 155.812 287.027 155.433 286.624 155.165C286.233 154.896 285.745 154.762 285.159 154.762C284.732 154.762 284.348 154.835 284.006 154.982C283.677 155.116 283.396 155.311 283.164 155.568C282.932 155.824 282.755 156.129 282.633 156.483C282.524 156.837 282.469 157.221 282.469 157.636V159.247C282.469 159.662 282.524 160.046 282.633 160.4C282.755 160.754 282.932 161.059 283.164 161.315C283.396 161.572 283.683 161.773 284.025 161.919C284.366 162.054 284.757 162.121 285.196 162.121C285.831 162.121 286.355 161.974 286.77 161.681C287.185 161.388 287.515 160.986 287.759 160.473L288.802 161.187C288.521 161.822 288.082 162.346 287.484 162.761C286.898 163.176 286.13 163.384 285.178 163.384Z" fill="#9BA1A6"/>
<path d="M291.321 163.164V153.719H292.676V154.817H292.749C292.895 154.451 293.103 154.14 293.371 153.883C293.64 153.627 294.036 153.499 294.561 153.499C295.11 153.499 295.519 153.639 295.787 153.92C296.056 154.189 296.221 154.542 296.282 154.982H296.337C296.507 154.555 296.751 154.201 297.069 153.92C297.386 153.639 297.825 153.499 298.387 153.499C299.156 153.499 299.668 153.768 299.924 154.304C300.193 154.841 300.327 155.61 300.327 156.611V163.164H298.972V156.849C298.972 156.043 298.887 155.488 298.716 155.183C298.558 154.866 298.259 154.707 297.819 154.707C297.429 154.707 297.111 154.835 296.867 155.092C296.623 155.336 296.501 155.714 296.501 156.226V163.164H295.147V156.849C295.147 156.043 295.061 155.488 294.89 155.183C294.732 154.866 294.439 154.707 294.012 154.707C293.621 154.707 293.298 154.835 293.042 155.092C292.798 155.336 292.676 155.714 292.676 156.226V163.164H291.321Z" fill="#9BA1A6"/>
<path d="M306.8 163.329C306.299 163.329 305.946 163.225 305.738 163.018C305.543 162.81 305.445 162.548 305.445 162.23V161.901C305.445 161.584 305.543 161.321 305.738 161.114C305.946 160.906 306.299 160.803 306.8 160.803C307.3 160.803 307.648 160.906 307.843 161.114C308.051 161.321 308.154 161.584 308.154 161.901V162.23C308.154 162.548 308.051 162.81 307.843 163.018C307.648 163.225 307.3 163.329 306.8 163.329Z" fill="#9BA1A6"/>
<path d="M320.064 161.626H319.99C319.38 162.798 318.41 163.384 317.08 163.384C315.921 163.384 315.012 162.95 314.353 162.084C313.706 161.218 313.382 160.003 313.382 158.441C313.382 156.879 313.706 155.665 314.353 154.799C315.012 153.932 315.921 153.499 317.08 153.499C318.41 153.499 319.38 154.085 319.99 155.256H320.064V149.618H321.528V163.164H320.064V161.626ZM317.647 162.084C317.977 162.084 318.288 162.041 318.581 161.956C318.874 161.87 319.13 161.748 319.35 161.59C319.569 161.419 319.74 161.218 319.862 160.986C319.997 160.742 320.064 160.461 320.064 160.144V156.739C320.064 156.422 319.997 156.147 319.862 155.915C319.74 155.671 319.569 155.47 319.35 155.311C319.13 155.14 318.874 155.012 318.581 154.927C318.288 154.841 317.977 154.799 317.647 154.799C316.793 154.799 316.128 155.061 315.652 155.586C315.189 156.098 314.957 156.782 314.957 157.636V159.247C314.957 160.101 315.189 160.79 315.652 161.315C316.128 161.828 316.793 162.084 317.647 162.084Z" fill="#9BA1A6"/>
<path d="M329.337 151.632C328.91 151.632 328.611 151.547 328.44 151.376C328.269 151.193 328.184 150.967 328.184 150.698V150.406C328.184 150.137 328.269 149.917 328.44 149.747C328.611 149.564 328.91 149.472 329.337 149.472C329.764 149.472 330.063 149.564 330.234 149.747C330.405 149.917 330.49 150.137 330.49 150.406V150.698C330.49 150.967 330.405 151.193 330.234 151.376C330.063 151.547 329.764 151.632 329.337 151.632ZM325.2 161.919H328.605V154.963H325.2V153.719H330.069V161.919H333.254V163.164H325.2V161.919Z" fill="#9BA1A6"/>
<path d="M339.837 163.384C338.849 163.384 337.994 163.219 337.274 162.889C336.567 162.548 335.962 162.096 335.462 161.535L336.451 160.675C336.902 161.15 337.396 161.517 337.933 161.773C338.47 162.029 339.117 162.157 339.874 162.157C340.606 162.157 341.204 162.029 341.667 161.773C342.143 161.504 342.381 161.089 342.381 160.528C342.381 160.284 342.333 160.083 342.235 159.924C342.15 159.753 342.027 159.619 341.869 159.521C341.71 159.424 341.533 159.351 341.338 159.302C341.143 159.241 340.935 159.192 340.716 159.155L339.233 158.936C338.903 158.887 338.543 158.82 338.153 158.734C337.775 158.649 337.427 158.515 337.11 158.332C336.792 158.136 336.524 157.88 336.304 157.563C336.097 157.245 335.993 156.831 335.993 156.318C335.993 155.842 336.084 155.433 336.268 155.092C336.463 154.738 336.731 154.445 337.073 154.213C337.415 153.969 337.817 153.792 338.281 153.682C338.745 153.56 339.251 153.499 339.8 153.499C340.655 153.499 341.393 153.633 342.015 153.902C342.65 154.17 343.193 154.542 343.644 155.018L342.693 155.915C342.583 155.781 342.442 155.647 342.272 155.513C342.113 155.366 341.912 155.238 341.667 155.128C341.436 155.006 341.161 154.909 340.844 154.835C340.526 154.762 340.16 154.725 339.745 154.725C339.001 154.725 338.428 154.854 338.025 155.11C337.634 155.366 337.439 155.738 337.439 156.226C337.439 156.471 337.482 156.678 337.567 156.849C337.665 157.007 337.793 157.136 337.952 157.233C338.11 157.331 338.287 157.41 338.482 157.471C338.69 157.52 338.897 157.563 339.105 157.599L340.587 157.819C340.929 157.868 341.289 157.935 341.667 158.02C342.046 158.106 342.394 158.246 342.711 158.441C343.028 158.624 343.291 158.875 343.498 159.192C343.718 159.509 343.827 159.924 343.827 160.437C343.827 161.376 343.461 162.102 342.729 162.615C342.009 163.127 341.045 163.384 339.837 163.384Z" fill="#9BA1A6"/>
<path d="M346.95 153.719H348.415V155.256H348.488C349.098 154.085 350.068 153.499 351.399 153.499C352.558 153.499 353.461 153.932 354.108 154.799C354.767 155.665 355.096 156.879 355.096 158.441C355.096 160.003 354.767 161.218 354.108 162.084C353.461 162.95 352.558 163.384 351.399 163.384C350.068 163.384 349.098 162.798 348.488 161.626H348.415V166.825H346.95V153.719ZM350.831 162.084C351.685 162.084 352.344 161.828 352.808 161.315C353.284 160.79 353.522 160.101 353.522 159.247V157.636C353.522 156.782 353.284 156.098 352.808 155.586C352.344 155.061 351.685 154.799 350.831 154.799C350.502 154.799 350.19 154.841 349.898 154.927C349.605 155.012 349.348 155.14 349.129 155.311C348.909 155.47 348.732 155.671 348.598 155.915C348.476 156.147 348.415 156.422 348.415 156.739V160.144C348.415 160.461 348.476 160.742 348.598 160.986C348.732 161.218 348.909 161.419 349.129 161.59C349.348 161.748 349.605 161.87 349.898 161.956C350.19 162.041 350.502 162.084 350.831 162.084Z" fill="#9BA1A6"/>
<path d="M357.652 161.919H360.947V150.863H357.652V149.618H362.411V161.919H365.706V163.164H357.652V161.919Z" fill="#9BA1A6"/>
<path d="M376.224 163.164C375.65 163.164 375.242 163.018 374.998 162.725C374.753 162.432 374.601 162.066 374.54 161.626H374.448C374.241 162.176 373.905 162.609 373.442 162.926C372.99 163.231 372.38 163.384 371.611 163.384C370.623 163.384 369.836 163.127 369.25 162.615C368.664 162.102 368.371 161.401 368.371 160.51C368.371 159.631 368.688 158.954 369.323 158.478C369.97 158.002 371.007 157.764 372.435 157.764H374.448V156.831C374.448 156.135 374.253 155.616 373.863 155.275C373.472 154.921 372.917 154.744 372.197 154.744C371.562 154.744 371.044 154.872 370.641 155.128C370.238 155.372 369.915 155.708 369.671 156.135L368.682 155.403C368.804 155.159 368.969 154.921 369.177 154.689C369.384 154.457 369.64 154.256 369.945 154.085C370.25 153.902 370.598 153.761 370.989 153.664C371.379 153.554 371.812 153.499 372.288 153.499C373.399 153.499 374.278 153.78 374.924 154.341C375.583 154.902 375.913 155.683 375.913 156.684V161.883H377.231V163.164H376.224ZM371.867 162.157C372.246 162.157 372.587 162.115 372.892 162.029C373.21 161.932 373.484 161.809 373.716 161.663C373.948 161.504 374.125 161.321 374.247 161.114C374.381 160.894 374.448 160.662 374.448 160.418V158.862H372.435C371.556 158.862 370.916 158.984 370.513 159.228C370.11 159.473 369.909 159.826 369.909 160.29V160.675C369.909 161.163 370.08 161.535 370.421 161.791C370.775 162.035 371.257 162.157 371.867 162.157Z" fill="#9BA1A6"/>
<path d="M386.687 153.719H388.152L383.466 165.232C383.356 165.501 383.234 165.733 383.099 165.928C382.965 166.136 382.807 166.3 382.624 166.422C382.44 166.557 382.221 166.654 381.965 166.715C381.708 166.788 381.403 166.825 381.049 166.825H379.658V165.58H381.855L382.916 162.981L379.109 153.719H380.61L382.203 157.673L383.612 161.26H383.685L385.095 157.673L386.687 153.719Z" fill="#9BA1A6"/>
<path d="M127.209 161.919H130.504V150.863H127.209V149.618H131.968V161.919H135.263V163.164H127.209V161.919Z" fill="#D7DBDF"/>
<path d="M142.377 163.384C141.693 163.384 141.077 163.268 140.528 163.036C139.991 162.804 139.527 162.475 139.137 162.047C138.758 161.608 138.465 161.089 138.258 160.492C138.051 159.881 137.947 159.204 137.947 158.46C137.947 157.703 138.051 157.02 138.258 156.41C138.478 155.799 138.777 155.281 139.155 154.854C139.533 154.414 139.985 154.079 140.509 153.847C141.046 153.615 141.638 153.499 142.285 153.499C142.92 153.499 143.493 153.615 144.006 153.847C144.53 154.079 144.976 154.402 145.342 154.817C145.708 155.22 145.989 155.702 146.184 156.263C146.379 156.824 146.477 157.441 146.477 158.112V158.807H139.484V159.247C139.484 159.662 139.552 160.046 139.686 160.4C139.82 160.754 140.009 161.059 140.253 161.315C140.509 161.571 140.815 161.773 141.168 161.919C141.535 162.054 141.937 162.121 142.377 162.121C143.011 162.121 143.56 161.974 144.024 161.681C144.488 161.388 144.842 160.986 145.086 160.473L146.166 161.205C145.885 161.84 145.415 162.365 144.756 162.78C144.109 163.182 143.316 163.384 142.377 163.384ZM142.285 154.707C141.882 154.707 141.51 154.78 141.168 154.927C140.827 155.073 140.528 155.275 140.272 155.531C140.027 155.787 139.832 156.092 139.686 156.446C139.552 156.788 139.484 157.166 139.484 157.581V157.709H144.903V157.508C144.903 157.093 144.836 156.715 144.701 156.373C144.579 156.031 144.402 155.738 144.17 155.494C143.951 155.238 143.676 155.043 143.347 154.909C143.029 154.774 142.676 154.707 142.285 154.707Z" fill="#D7DBDF"/>
<path d="M153.645 163.164C152.925 163.164 152.394 162.963 152.053 162.56C151.723 162.157 151.558 161.639 151.558 161.004V154.963H148.41V153.719H150.753C151.07 153.719 151.29 153.658 151.412 153.536C151.546 153.401 151.613 153.176 151.613 152.858V150.387H153.023V153.719H157.325V154.963H153.023V161.919H157.325V163.164H153.645Z" fill="#D7DBDF"/>
<path d="M87.4493 115.107C86.7659 115.107 86.1497 114.991 85.6005 114.76C85.0636 114.528 84.5999 114.198 84.2093 113.771C83.831 113.332 83.5382 112.813 83.3307 112.215C83.1233 111.605 83.0195 110.928 83.0195 110.183C83.0195 109.427 83.1233 108.743 83.3307 108.133C83.5504 107.523 83.8494 107.004 84.2277 106.577C84.606 106.138 85.0575 105.802 85.5822 105.57C86.1192 105.339 86.711 105.223 87.3578 105.223C87.9924 105.223 88.5659 105.339 89.0784 105.57C89.6032 105.802 90.0486 106.126 90.4147 106.541C90.7808 106.943 91.0615 107.425 91.2567 107.987C91.452 108.548 91.5496 109.164 91.5496 109.836V110.531H84.5571V110.97C84.5571 111.385 84.6243 111.77 84.7585 112.124C84.8927 112.478 85.0819 112.783 85.3259 113.039C85.5822 113.295 85.8873 113.496 86.2412 113.643C86.6073 113.777 87.01 113.844 87.4493 113.844C88.0839 113.844 88.633 113.698 89.0968 113.405C89.5605 113.112 89.9144 112.709 90.1584 112.197L91.2384 112.929C90.9578 113.564 90.4879 114.088 89.8289 114.503C89.1822 114.906 88.389 115.107 87.4493 115.107ZM87.3578 106.431C86.9551 106.431 86.5829 106.504 86.2412 106.65C85.8995 106.797 85.6005 106.998 85.3443 107.255C85.1002 107.511 84.9049 107.816 84.7585 108.17C84.6243 108.511 84.5571 108.89 84.5571 109.305V109.433H89.9754V109.231C89.9754 108.817 89.9083 108.438 89.774 108.097C89.652 107.755 89.4751 107.462 89.2432 107.218C89.0235 106.962 88.749 106.766 88.4195 106.632C88.1022 106.498 87.7483 106.431 87.3578 106.431Z" fill="#D7DBDF"/>
<path d="M93.8855 114.888L97.4 110.092L93.977 105.442H95.7343L97.1621 107.438L98.297 109.012H98.3702L99.4685 107.438L100.878 105.442H102.562L99.1024 110.073L102.654 114.888H100.896L99.3037 112.673L98.2237 111.172H98.1505L97.1071 112.673L95.5695 114.888H93.8855Z" fill="#D7DBDF"/>
<path d="M105.484 105.442H106.948V106.98H107.021C107.631 105.808 108.602 105.223 109.932 105.223C111.091 105.223 111.994 105.656 112.641 106.522C113.3 107.389 113.629 108.603 113.629 110.165C113.629 111.727 113.3 112.941 112.641 113.808C111.994 114.674 111.091 115.107 109.932 115.107C108.602 115.107 107.631 114.522 107.021 113.35H106.948V118.549H105.484V105.442ZM109.364 113.808C110.218 113.808 110.877 113.551 111.341 113.039C111.817 112.514 112.055 111.825 112.055 110.97V109.36C112.055 108.505 111.817 107.822 111.341 107.309C110.877 106.785 110.218 106.522 109.364 106.522C109.035 106.522 108.724 106.565 108.431 106.65C108.138 106.736 107.882 106.864 107.662 107.035C107.442 107.194 107.265 107.395 107.131 107.639C107.009 107.871 106.948 108.145 106.948 108.463V111.867C106.948 112.185 107.009 112.465 107.131 112.709C107.265 112.941 107.442 113.143 107.662 113.313C107.882 113.472 108.138 113.594 108.431 113.68C108.724 113.765 109.035 113.808 109.364 113.808Z" fill="#D7DBDF"/>
<path d="M120.212 115.107C119.553 115.107 118.955 114.991 118.418 114.76C117.893 114.528 117.442 114.198 117.063 113.771C116.697 113.332 116.417 112.813 116.221 112.215C116.026 111.605 115.929 110.922 115.929 110.165C115.929 109.421 116.026 108.743 116.221 108.133C116.417 107.523 116.697 107.004 117.063 106.577C117.442 106.138 117.893 105.802 118.418 105.57C118.955 105.339 119.553 105.223 120.212 105.223C120.871 105.223 121.463 105.339 121.987 105.57C122.524 105.802 122.976 106.138 123.342 106.577C123.72 107.004 124.007 107.523 124.202 108.133C124.398 108.743 124.495 109.421 124.495 110.165C124.495 110.922 124.398 111.605 124.202 112.215C124.007 112.813 123.72 113.332 123.342 113.771C122.976 114.198 122.524 114.528 121.987 114.76C121.463 114.991 120.871 115.107 120.212 115.107ZM120.212 113.844C121.03 113.844 121.689 113.6 122.189 113.112C122.689 112.624 122.939 111.867 122.939 110.842V109.488C122.939 108.463 122.689 107.706 122.189 107.218C121.689 106.73 121.03 106.486 120.212 106.486C119.394 106.486 118.735 106.73 118.235 107.218C117.735 107.706 117.484 108.463 117.484 109.488V110.842C117.484 111.867 117.735 112.624 118.235 113.112C118.735 113.6 119.394 113.844 120.212 113.844Z" fill="#D7DBDF"/>
<path d="M127.106 113.643H129.87V106.687H127.106V105.442H131.334V107.822H131.426C131.621 107.078 131.987 106.498 132.524 106.083C133.073 105.656 133.769 105.442 134.611 105.442H135.929V106.907H134.153C133.311 106.907 132.628 107.151 132.103 107.639C131.59 108.127 131.334 108.768 131.334 109.561V113.643H134.995V114.888H127.106V113.643Z" fill="#D7DBDF"/>
<path d="M142.621 114.888C141.901 114.888 141.37 114.686 141.029 114.284C140.699 113.881 140.534 113.362 140.534 112.728V106.687H137.386V105.442H139.729C140.046 105.442 140.266 105.381 140.388 105.259C140.522 105.125 140.589 104.899 140.589 104.582V102.111H141.999V105.442H146.3V106.687H141.999V113.643H146.3V114.888H142.621Z" fill="#D7DBDF"/>
<path d="M164.445 115.107C163.761 115.107 163.151 114.991 162.614 114.76C162.089 114.515 161.644 114.18 161.278 113.753C160.912 113.326 160.631 112.807 160.436 112.197C160.253 111.587 160.161 110.909 160.161 110.165C160.161 109.421 160.259 108.743 160.454 108.133C160.649 107.523 160.93 107.004 161.296 106.577C161.662 106.138 162.108 105.802 162.632 105.57C163.157 105.339 163.755 105.223 164.426 105.223C165.341 105.223 166.086 105.424 166.659 105.827C167.233 106.229 167.654 106.754 167.922 107.401L166.751 108.023C166.58 107.535 166.293 107.157 165.891 106.888C165.5 106.62 165.012 106.486 164.426 106.486C163.999 106.486 163.615 106.559 163.273 106.705C162.944 106.84 162.663 107.035 162.431 107.291C162.199 107.547 162.022 107.852 161.9 108.206C161.79 108.56 161.735 108.945 161.735 109.36V110.97C161.735 111.385 161.79 111.77 161.9 112.124C162.022 112.478 162.199 112.783 162.431 113.039C162.663 113.295 162.95 113.496 163.291 113.643C163.633 113.777 164.024 113.844 164.463 113.844C165.097 113.844 165.622 113.698 166.037 113.405C166.452 113.112 166.781 112.709 167.026 112.197L168.069 112.911C167.788 113.545 167.349 114.07 166.751 114.485C166.165 114.9 165.396 115.107 164.445 115.107Z" fill="#D7DBDF"/>
<path d="M171.064 113.643H174.359V102.587H171.064V101.342H175.823V113.643H179.118V114.888H171.064V113.643Z" fill="#D7DBDF"/>
<path d="M189.636 114.888C189.063 114.888 188.654 114.741 188.41 114.448C188.166 114.155 188.013 113.789 187.952 113.35H187.86C187.653 113.899 187.317 114.332 186.854 114.65C186.402 114.955 185.792 115.107 185.023 115.107C184.035 115.107 183.248 114.851 182.662 114.339C182.076 113.826 181.783 113.124 181.783 112.233C181.783 111.355 182.101 110.678 182.735 110.202C183.382 109.726 184.419 109.488 185.847 109.488H187.86V108.554C187.86 107.859 187.665 107.34 187.275 106.998C186.884 106.644 186.329 106.467 185.609 106.467C184.974 106.467 184.456 106.596 184.053 106.852C183.65 107.096 183.327 107.431 183.083 107.859L182.094 107.126C182.216 106.882 182.381 106.644 182.589 106.412C182.796 106.181 183.052 105.979 183.357 105.808C183.663 105.625 184.01 105.485 184.401 105.387C184.791 105.278 185.225 105.223 185.701 105.223C186.811 105.223 187.69 105.503 188.336 106.065C188.995 106.626 189.325 107.407 189.325 108.408V113.606H190.643V114.888H189.636ZM185.279 113.881C185.658 113.881 185.999 113.838 186.305 113.753C186.622 113.655 186.896 113.533 187.128 113.387C187.36 113.228 187.537 113.045 187.659 112.838C187.793 112.618 187.86 112.386 187.86 112.142V110.586H185.847C184.968 110.586 184.328 110.708 183.925 110.952C183.522 111.196 183.321 111.55 183.321 112.014V112.398C183.321 112.886 183.492 113.259 183.833 113.515C184.187 113.759 184.669 113.881 185.279 113.881Z" fill="#D7DBDF"/>
<path d="M197.152 115.107C196.164 115.107 195.31 114.943 194.59 114.613C193.882 114.271 193.278 113.82 192.777 113.259L193.766 112.398C194.217 112.874 194.712 113.24 195.249 113.496C195.785 113.753 196.432 113.881 197.189 113.881C197.921 113.881 198.519 113.753 198.983 113.496C199.459 113.228 199.697 112.813 199.697 112.252C199.697 112.008 199.648 111.806 199.55 111.648C199.465 111.477 199.343 111.343 199.184 111.245C199.025 111.147 198.848 111.074 198.653 111.025C198.458 110.964 198.251 110.915 198.031 110.879L196.548 110.659C196.219 110.61 195.859 110.543 195.468 110.458C195.09 110.372 194.742 110.238 194.425 110.055C194.108 109.86 193.839 109.604 193.619 109.286C193.412 108.969 193.308 108.554 193.308 108.042C193.308 107.566 193.4 107.157 193.583 106.815C193.778 106.461 194.046 106.168 194.388 105.937C194.73 105.693 195.133 105.516 195.596 105.406C196.06 105.284 196.566 105.223 197.116 105.223C197.97 105.223 198.708 105.357 199.33 105.625C199.965 105.894 200.508 106.266 200.96 106.742L200.008 107.639C199.898 107.505 199.758 107.37 199.587 107.236C199.428 107.09 199.227 106.962 198.983 106.852C198.751 106.73 198.476 106.632 198.159 106.559C197.842 106.486 197.476 106.449 197.061 106.449C196.316 106.449 195.743 106.577 195.34 106.834C194.95 107.09 194.754 107.462 194.754 107.95C194.754 108.194 194.797 108.402 194.882 108.572C194.98 108.731 195.108 108.859 195.267 108.957C195.425 109.054 195.602 109.134 195.798 109.195C196.005 109.244 196.213 109.286 196.42 109.323L197.903 109.543C198.244 109.591 198.604 109.659 198.983 109.744C199.361 109.829 199.709 109.97 200.026 110.165C200.343 110.348 200.606 110.598 200.813 110.915C201.033 111.233 201.143 111.648 201.143 112.16C201.143 113.1 200.777 113.826 200.044 114.339C199.324 114.851 198.36 115.107 197.152 115.107Z" fill="#D7DBDF"/>
<path d="M208.128 115.107C207.14 115.107 206.285 114.943 205.565 114.613C204.858 114.271 204.253 113.82 203.753 113.259L204.742 112.398C205.193 112.874 205.687 113.24 206.224 113.496C206.761 113.753 207.408 113.881 208.165 113.881C208.897 113.881 209.495 113.753 209.958 113.496C210.434 113.228 210.672 112.813 210.672 112.252C210.672 112.008 210.624 111.806 210.526 111.648C210.441 111.477 210.318 111.343 210.16 111.245C210.001 111.147 209.824 111.074 209.629 111.025C209.434 110.964 209.226 110.915 209.007 110.879L207.524 110.659C207.194 110.61 206.834 110.543 206.444 110.458C206.066 110.372 205.718 110.238 205.401 110.055C205.083 109.86 204.815 109.604 204.595 109.286C204.388 108.969 204.284 108.554 204.284 108.042C204.284 107.566 204.375 107.157 204.559 106.815C204.754 106.461 205.022 106.168 205.364 105.937C205.706 105.693 206.108 105.516 206.572 105.406C207.036 105.284 207.542 105.223 208.091 105.223C208.946 105.223 209.684 105.357 210.306 105.625C210.941 105.894 211.484 106.266 211.935 106.742L210.984 107.639C210.874 107.505 210.733 107.37 210.563 107.236C210.404 107.09 210.203 106.962 209.958 106.852C209.727 106.73 209.452 106.632 209.135 106.559C208.817 106.486 208.451 106.449 208.036 106.449C207.292 106.449 206.719 106.577 206.316 106.834C205.925 107.09 205.73 107.462 205.73 107.95C205.73 108.194 205.773 108.402 205.858 108.572C205.956 108.731 206.084 108.859 206.243 108.957C206.401 109.054 206.578 109.134 206.773 109.195C206.981 109.244 207.188 109.286 207.396 109.323L208.879 109.543C209.22 109.591 209.58 109.659 209.958 109.744C210.337 109.829 210.685 109.97 211.002 110.165C211.319 110.348 211.582 110.598 211.789 110.915C212.009 111.233 212.118 111.648 212.118 112.16C212.118 113.1 211.752 113.826 211.02 114.339C210.3 114.851 209.336 115.107 208.128 115.107Z" fill="#D7DBDF"/>
<path fill-rule="evenodd" clip-rule="evenodd" d="M196.715 108.618V78.6445C196.715 77.4107 195.708 76.4065 194.47 76.4065H100.018C98.7801 76.4065 97.7725 77.4107 97.7725 78.6445V137.416C97.7725 137.447 97.7729 137.479 97.7738 137.51V144.977H225.617V120.571H104.279V113.094C104.279 111.861 105.287 110.856 106.525 110.856H194.47C195.708 110.856 196.715 109.852 196.715 108.618Z" fill="#9BA1A6"/>
<path d="M108.133 139.384C107.45 139.384 106.839 139.268 106.302 139.036C105.778 138.792 105.332 138.456 104.966 138.029C104.6 137.602 104.319 137.083 104.124 136.473C103.941 135.863 103.85 135.186 103.85 134.441C103.85 133.697 103.947 133.02 104.142 132.41C104.338 131.799 104.618 131.281 104.985 130.854C105.351 130.414 105.796 130.079 106.321 129.847C106.846 129.615 107.443 129.499 108.115 129.499C109.03 129.499 109.774 129.7 110.348 130.103C110.921 130.506 111.342 131.031 111.611 131.677L110.439 132.3C110.269 131.812 109.982 131.433 109.579 131.165C109.189 130.896 108.7 130.762 108.115 130.762C107.688 130.762 107.303 130.835 106.961 130.982C106.632 131.116 106.351 131.311 106.119 131.567C105.888 131.824 105.711 132.129 105.589 132.483C105.479 132.837 105.424 133.221 105.424 133.636V135.247C105.424 135.662 105.479 136.046 105.589 136.4C105.711 136.754 105.888 137.059 106.119 137.315C106.351 137.571 106.638 137.773 106.98 137.919C107.321 138.054 107.712 138.121 108.151 138.121C108.786 138.121 109.311 137.974 109.725 137.681C110.14 137.388 110.47 136.986 110.714 136.473L111.757 137.187C111.477 137.822 111.037 138.346 110.439 138.761C109.854 139.176 109.085 139.384 108.133 139.384Z" fill="#202425"/>
<path d="M118.779 139.384C118.12 139.384 117.522 139.268 116.985 139.036C116.461 138.804 116.009 138.475 115.631 138.047C115.265 137.608 114.984 137.089 114.789 136.492C114.594 135.881 114.496 135.198 114.496 134.441C114.496 133.697 114.594 133.02 114.789 132.41C114.984 131.799 115.265 131.281 115.631 130.854C116.009 130.414 116.461 130.079 116.985 129.847C117.522 129.615 118.12 129.499 118.779 129.499C119.438 129.499 120.03 129.615 120.555 129.847C121.092 130.079 121.543 130.414 121.909 130.854C122.288 131.281 122.574 131.799 122.77 132.41C122.965 133.02 123.063 133.697 123.063 134.441C123.063 135.198 122.965 135.881 122.77 136.492C122.574 137.089 122.288 137.608 121.909 138.047C121.543 138.475 121.092 138.804 120.555 139.036C120.03 139.268 119.438 139.384 118.779 139.384ZM118.779 138.121C119.597 138.121 120.256 137.877 120.756 137.388C121.257 136.9 121.507 136.144 121.507 135.119V133.764C121.507 132.739 121.257 131.982 120.756 131.494C120.256 131.006 119.597 130.762 118.779 130.762C117.962 130.762 117.303 131.006 116.802 131.494C116.302 131.982 116.052 132.739 116.052 133.764V135.119C116.052 136.144 116.302 136.9 116.802 137.388C117.303 137.877 117.962 138.121 118.779 138.121Z" fill="#202425"/>
<path d="M126.057 139.164V129.719H127.522V131.256H127.595C127.693 131.024 127.815 130.805 127.961 130.597C128.108 130.378 128.285 130.189 128.492 130.03C128.712 129.871 128.968 129.743 129.261 129.645C129.554 129.548 129.895 129.499 130.286 129.499C131.274 129.499 132.068 129.816 132.666 130.451C133.263 131.073 133.562 131.958 133.562 133.105V139.164H132.098V133.361C132.098 132.495 131.909 131.854 131.531 131.439C131.152 131.012 130.597 130.799 129.865 130.799C129.572 130.799 129.285 130.835 129.005 130.909C128.724 130.982 128.474 131.092 128.254 131.238C128.034 131.384 127.857 131.574 127.723 131.805C127.589 132.037 127.522 132.306 127.522 132.611V139.164H126.057Z" fill="#202425"/>
<path d="M140.841 139.384C139.852 139.384 138.998 139.219 138.278 138.889C137.57 138.548 136.966 138.096 136.466 137.535L137.454 136.675C137.906 137.15 138.4 137.517 138.937 137.773C139.474 138.029 140.121 138.157 140.877 138.157C141.609 138.157 142.207 138.029 142.671 137.773C143.147 137.504 143.385 137.089 143.385 136.528C143.385 136.284 143.336 136.083 143.239 135.924C143.153 135.753 143.031 135.619 142.872 135.521C142.714 135.424 142.537 135.35 142.342 135.302C142.146 135.241 141.939 135.192 141.719 135.155L140.237 134.936C139.907 134.887 139.547 134.82 139.157 134.734C138.778 134.649 138.43 134.515 138.113 134.332C137.796 134.136 137.527 133.88 137.308 133.563C137.1 133.245 136.997 132.831 136.997 132.318C136.997 131.842 137.088 131.433 137.271 131.092C137.466 130.738 137.735 130.445 138.077 130.213C138.418 129.969 138.821 129.792 139.285 129.682C139.748 129.56 140.255 129.499 140.804 129.499C141.658 129.499 142.397 129.633 143.019 129.902C143.653 130.17 144.197 130.542 144.648 131.018L143.696 131.915C143.586 131.781 143.446 131.647 143.275 131.513C143.117 131.366 142.915 131.238 142.671 131.128C142.439 131.006 142.165 130.909 141.847 130.835C141.53 130.762 141.164 130.725 140.749 130.725C140.005 130.725 139.431 130.854 139.028 131.11C138.638 131.366 138.443 131.738 138.443 132.226C138.443 132.471 138.485 132.678 138.571 132.849C138.668 133.007 138.797 133.136 138.955 133.233C139.114 133.331 139.291 133.41 139.486 133.471C139.694 133.52 139.901 133.563 140.108 133.599L141.591 133.819C141.933 133.868 142.293 133.935 142.671 134.02C143.049 134.106 143.397 134.246 143.715 134.441C144.032 134.624 144.294 134.875 144.502 135.192C144.721 135.509 144.831 135.924 144.831 136.437C144.831 137.376 144.465 138.102 143.733 138.615C143.013 139.127 142.049 139.384 140.841 139.384Z" fill="#202425"/>
<path d="M152.164 139.164C151.444 139.164 150.913 138.963 150.572 138.56C150.242 138.157 150.077 137.639 150.077 137.004V130.963H146.929V129.719H149.272C149.589 129.719 149.809 129.658 149.931 129.536C150.065 129.401 150.132 129.176 150.132 128.858V126.387H151.542V129.719H155.843V130.963H151.542V137.919H155.843V139.164H152.164Z" fill="#202425"/>
<path d="M158.6 137.919H161.364V130.963H158.6V129.719H162.829V132.098H162.92C163.116 131.354 163.482 130.774 164.019 130.359C164.568 129.932 165.263 129.719 166.105 129.719H167.423V131.183H165.648C164.806 131.183 164.122 131.427 163.598 131.915C163.085 132.403 162.829 133.044 162.829 133.837V137.919H166.49V139.164H158.6V137.919Z" fill="#202425"/>
<path d="M175.891 137.626H175.818C175.721 137.858 175.598 138.084 175.452 138.304C175.306 138.511 175.123 138.694 174.903 138.853C174.695 139.011 174.445 139.14 174.152 139.237C173.86 139.335 173.518 139.384 173.127 139.384C172.139 139.384 171.346 139.072 170.748 138.45C170.15 137.816 169.851 136.925 169.851 135.778V129.719H171.315V135.521C171.315 136.388 171.504 137.035 171.883 137.462C172.261 137.877 172.816 138.084 173.548 138.084C173.841 138.084 174.128 138.047 174.409 137.974C174.689 137.901 174.939 137.791 175.159 137.645C175.379 137.498 175.556 137.315 175.69 137.096C175.824 136.864 175.891 136.589 175.891 136.272V129.719H177.356V139.164H175.891V137.626Z" fill="#202425"/>
<path d="M184.963 139.384C184.28 139.384 183.67 139.268 183.133 139.036C182.608 138.792 182.163 138.456 181.797 138.029C181.431 137.602 181.15 137.083 180.955 136.473C180.772 135.863 180.68 135.186 180.68 134.441C180.68 133.697 180.778 133.02 180.973 132.41C181.168 131.799 181.449 131.281 181.815 130.854C182.181 130.414 182.626 130.079 183.151 129.847C183.676 129.615 184.274 129.499 184.945 129.499C185.86 129.499 186.605 129.7 187.178 130.103C187.752 130.506 188.173 131.031 188.441 131.677L187.27 132.3C187.099 131.812 186.812 131.433 186.41 131.165C186.019 130.896 185.531 130.762 184.945 130.762C184.518 130.762 184.134 130.835 183.792 130.982C183.462 131.116 183.182 131.311 182.95 131.567C182.718 131.824 182.541 132.129 182.419 132.483C182.309 132.837 182.254 133.221 182.254 133.636V135.247C182.254 135.662 182.309 136.046 182.419 136.4C182.541 136.754 182.718 137.059 182.95 137.315C183.182 137.571 183.469 137.773 183.81 137.919C184.152 138.054 184.542 138.121 184.982 138.121C185.616 138.121 186.141 137.974 186.556 137.681C186.971 137.388 187.3 136.986 187.544 136.473L188.588 137.187C188.307 137.822 187.868 138.346 187.27 138.761C186.684 139.176 185.915 139.384 184.963 139.384Z" fill="#202425"/>
<path d="M196.067 139.164C195.347 139.164 194.816 138.963 194.475 138.56C194.145 138.157 193.981 137.639 193.981 137.004V130.963H190.832V129.719H193.175C193.492 129.719 193.712 129.658 193.834 129.536C193.968 129.401 194.035 129.176 194.035 128.858V126.387H195.445V129.719H199.747V130.963H195.445V137.919H199.747V139.164H196.067Z" fill="#202425"/>
<path d="M206.585 139.384C205.927 139.384 205.329 139.268 204.792 139.036C204.267 138.804 203.815 138.475 203.437 138.047C203.071 137.608 202.79 137.089 202.595 136.492C202.4 135.881 202.302 135.198 202.302 134.441C202.302 133.697 202.4 133.02 202.595 132.41C202.79 131.799 203.071 131.281 203.437 130.854C203.815 130.414 204.267 130.079 204.792 129.847C205.329 129.615 205.927 129.499 206.585 129.499C207.244 129.499 207.836 129.615 208.361 129.847C208.898 130.079 209.35 130.414 209.716 130.854C210.094 131.281 210.381 131.799 210.576 132.41C210.771 133.02 210.869 133.697 210.869 134.441C210.869 135.198 210.771 135.881 210.576 136.492C210.381 137.089 210.094 137.608 209.716 138.047C209.35 138.475 208.898 138.804 208.361 139.036C207.836 139.268 207.244 139.384 206.585 139.384ZM206.585 138.121C207.403 138.121 208.062 137.877 208.562 137.388C209.063 136.9 209.313 136.144 209.313 135.119V133.764C209.313 132.739 209.063 131.982 208.562 131.494C208.062 131.006 207.403 130.762 206.585 130.762C205.768 130.762 205.109 131.006 204.609 131.494C204.108 131.982 203.858 132.739 203.858 133.764V135.119C203.858 136.144 204.108 136.9 204.609 137.388C205.109 137.877 205.768 138.121 206.585 138.121Z" fill="#202425"/>
<path d="M213.479 137.919H216.243V130.963H213.479V129.719H217.708V132.098H217.799C217.994 131.354 218.361 130.774 218.898 130.359C219.447 129.932 220.142 129.719 220.984 129.719H222.302V131.183H220.527C219.685 131.183 219.001 131.427 218.477 131.915C217.964 132.403 217.708 133.044 217.708 133.837V137.919H221.369V139.164H213.479V137.919Z" fill="#202425"/>
<path d="M122.91 95.9458V89.628H124.458C126.076 89.628 127.415 90.6461 127.415 92.7939C127.415 94.9416 126.062 95.9458 124.444 95.9458H122.91ZM124.514 97.731C127.331 97.731 129.409 95.9179 129.409 92.7939C129.409 89.6698 127.345 87.8428 124.528 87.8428H120.985V97.731H124.514ZM130.519 95.8621C130.519 96.936 131.412 97.9262 132.876 97.9262C133.895 97.9262 134.55 97.452 134.899 96.9081C134.899 97.1731 134.927 97.5497 134.968 97.731H136.67C136.628 97.4939 136.586 97.0057 136.586 96.6431V93.2681C136.586 91.8873 135.777 90.66 133.602 90.66C131.761 90.66 130.771 91.8455 130.659 92.9194L132.305 93.2681C132.36 92.6683 132.807 92.1523 133.616 92.1523C134.397 92.1523 134.773 92.5568 134.773 93.0449C134.773 93.282 134.648 93.4773 134.257 93.533L132.57 93.7841C131.426 93.9514 130.519 94.6348 130.519 95.8621ZM133.267 96.5455C132.667 96.5455 132.374 96.155 132.374 95.7505C132.374 95.2206 132.751 94.9556 133.225 94.8859L134.773 94.6488V94.9556C134.773 96.1689 134.048 96.5455 133.267 96.5455ZM140.311 100.381V97.0615C140.646 97.5218 141.343 97.8983 142.291 97.8983C144.23 97.8983 145.527 96.3642 145.527 94.2862C145.527 92.25 144.369 90.7158 142.361 90.7158C141.329 90.7158 140.562 91.1761 140.255 91.706V90.8692H138.456V100.381H140.311ZM143.7 94.3001C143.7 95.5274 142.947 96.2387 141.998 96.2387C141.05 96.2387 140.283 95.5135 140.283 94.3001C140.283 93.0867 141.05 92.3755 141.998 92.3755C142.947 92.3755 143.7 93.0867 143.7 94.3001ZM148.85 93.7004C148.892 92.9473 149.352 92.3615 150.133 92.3615C151.026 92.3615 151.403 92.9612 151.403 93.7283V97.731H153.258V93.4075C153.258 91.9013 152.449 90.6879 150.705 90.6879C150.05 90.6879 149.297 90.9111 148.85 91.441V87.6336H146.996V97.731H148.85V93.7004ZM156.995 93.7841C156.995 92.9891 157.469 92.3615 158.278 92.3615C159.171 92.3615 159.547 92.9612 159.547 93.7283V97.731H161.402V93.4075C161.402 91.9013 160.621 90.6879 158.92 90.6879C158.18 90.6879 157.358 91.0087 156.939 91.72V90.8692H155.14V97.731H156.995V93.7841ZM164.638 93.5191C164.679 92.8915 165.209 92.1663 166.172 92.1663C167.232 92.1663 167.678 92.8357 167.706 93.5191H164.638ZM167.887 95.3043C167.664 95.9179 167.19 96.3502 166.325 96.3502C165.405 96.3502 164.638 95.6948 164.596 94.7882H169.505C169.505 94.7603 169.533 94.4814 169.533 94.2164C169.533 92.0129 168.264 90.66 166.144 90.66C164.386 90.66 162.769 92.0826 162.769 94.2722C162.769 96.5873 164.428 97.9402 166.311 97.9402C167.999 97.9402 169.086 96.9499 169.435 95.7645L167.887 95.3043Z" fill="#202425"/>
<path fill-rule="evenodd" clip-rule="evenodd" d="M289.694 84.2118V54.238C289.694 53.0042 288.686 52 287.448 52H216.241C215.003 52 213.995 53.0042 213.995 54.238V96.1641H213.994V120.571H377.866V96.1641H220.502V88.6878C220.502 87.4541 221.509 86.4498 222.747 86.4498H287.448C288.686 86.4498 289.694 85.4456 289.694 84.2118Z" fill="#3FCF8E"/>
<path d="M223.497 102.387H227.066C228.628 102.387 229.794 102.924 230.562 103.998C231.331 105.072 231.716 106.664 231.716 108.776C231.716 110.887 231.331 112.479 230.562 113.553C229.794 114.627 228.628 115.164 227.066 115.164H223.497V102.387ZM226.993 113.828C228.018 113.828 228.787 113.474 229.299 112.766C229.824 112.058 230.087 111.058 230.087 109.764V107.787C230.087 106.494 229.824 105.493 229.299 104.785C228.787 104.077 228.018 103.724 226.993 103.724H225.034V113.828H226.993ZM238.811 103.632C238.384 103.632 238.085 103.547 237.914 103.376C237.743 103.193 237.658 102.967 237.658 102.698V102.406C237.658 102.137 237.743 101.917 237.914 101.747C238.085 101.564 238.384 101.472 238.811 101.472C239.238 101.472 239.537 101.564 239.708 101.747C239.879 101.917 239.964 102.137 239.964 102.406V102.698C239.964 102.967 239.879 103.193 239.708 103.376C239.537 103.547 239.238 103.632 238.811 103.632ZM234.674 113.919H238.079V106.963H234.674V105.719H239.543V113.919H242.728V115.164H234.674V113.919ZM249.311 115.384C248.322 115.384 247.468 115.219 246.748 114.889C246.04 114.548 245.436 114.096 244.936 113.535L245.924 112.675C246.376 113.151 246.87 113.517 247.407 113.773C247.944 114.029 248.591 114.157 249.347 114.157C250.079 114.157 250.677 114.029 251.141 113.773C251.617 113.504 251.855 113.09 251.855 112.528C251.855 112.284 251.806 112.083 251.709 111.924C251.623 111.753 251.501 111.619 251.343 111.521C251.184 111.424 251.007 111.351 250.812 111.302C250.616 111.241 250.409 111.192 250.189 111.155L248.707 110.936C248.377 110.887 248.017 110.82 247.627 110.734C247.248 110.649 246.901 110.515 246.583 110.332C246.266 110.136 245.997 109.88 245.778 109.563C245.57 109.245 245.467 108.831 245.467 108.318C245.467 107.842 245.558 107.433 245.741 107.092C245.936 106.738 246.205 106.445 246.547 106.213C246.888 105.969 247.291 105.792 247.755 105.682C248.218 105.56 248.725 105.499 249.274 105.499C250.128 105.499 250.867 105.633 251.489 105.902C252.124 106.17 252.667 106.542 253.118 107.018L252.166 107.915C252.056 107.781 251.916 107.647 251.745 107.513C251.587 107.366 251.385 107.238 251.141 107.128C250.909 107.006 250.635 106.909 250.317 106.835C250 106.762 249.634 106.726 249.219 106.726C248.475 106.726 247.901 106.854 247.498 107.11C247.108 107.366 246.913 107.738 246.913 108.227C246.913 108.471 246.955 108.678 247.041 108.849C247.138 109.008 247.267 109.136 247.425 109.233C247.584 109.331 247.761 109.41 247.956 109.471C248.164 109.52 248.371 109.563 248.578 109.599L250.061 109.819C250.403 109.868 250.763 109.935 251.141 110.02C251.519 110.106 251.867 110.246 252.185 110.441C252.502 110.624 252.764 110.875 252.972 111.192C253.191 111.509 253.301 111.924 253.301 112.437C253.301 113.376 252.935 114.102 252.203 114.615C251.483 115.127 250.519 115.384 249.311 115.384ZM256.424 105.719H257.889V107.256H257.962C258.572 106.085 259.542 105.499 260.872 105.499C262.032 105.499 262.935 105.932 263.581 106.799C264.24 107.665 264.57 108.879 264.57 110.441C264.57 112.003 264.24 113.218 263.581 114.084C262.935 114.951 262.032 115.384 260.872 115.384C259.542 115.384 258.572 114.798 257.962 113.626H257.889V118.825H256.424V105.719ZM260.305 114.084C261.159 114.084 261.818 113.828 262.282 113.315C262.758 112.791 262.996 112.101 262.996 111.247V109.636C262.996 108.782 262.758 108.098 262.282 107.586C261.818 107.061 261.159 106.799 260.305 106.799C259.975 106.799 259.664 106.841 259.371 106.927C259.078 107.012 258.822 107.14 258.602 107.311C258.383 107.47 258.206 107.671 258.072 107.915C257.95 108.147 257.889 108.422 257.889 108.739V112.144C257.889 112.461 257.95 112.742 258.072 112.986C258.206 113.218 258.383 113.419 258.602 113.59C258.822 113.748 259.078 113.871 259.371 113.956C259.664 114.041 259.975 114.084 260.305 114.084ZM267.125 113.919H270.42V102.863H267.125V101.618H271.885V113.919H275.179V115.164H267.125V113.919ZM285.698 115.164C285.124 115.164 284.715 115.018 284.471 114.725C284.227 114.432 284.075 114.066 284.014 113.626H283.922C283.715 114.176 283.379 114.609 282.915 114.926C282.464 115.231 281.854 115.384 281.085 115.384C280.096 115.384 279.309 115.127 278.723 114.615C278.138 114.102 277.845 113.401 277.845 112.51C277.845 111.631 278.162 110.954 278.797 110.478C279.443 110.002 280.481 109.764 281.909 109.764H283.922V108.831C283.922 108.135 283.727 107.616 283.336 107.275C282.946 106.921 282.391 106.744 281.671 106.744C281.036 106.744 280.517 106.872 280.115 107.128C279.712 107.372 279.389 107.708 279.144 108.135L278.156 107.403C278.278 107.159 278.443 106.921 278.65 106.689C278.858 106.457 279.114 106.256 279.419 106.085C279.724 105.902 280.072 105.761 280.462 105.664C280.853 105.554 281.286 105.499 281.762 105.499C282.873 105.499 283.751 105.78 284.398 106.341C285.057 106.902 285.386 107.683 285.386 108.684V113.883H286.704V115.164H285.698ZM281.341 114.157C281.719 114.157 282.061 114.115 282.366 114.029C282.683 113.932 282.958 113.81 283.19 113.663C283.422 113.504 283.599 113.321 283.721 113.114C283.855 112.894 283.922 112.662 283.922 112.418V110.862H281.909C281.03 110.862 280.389 110.984 279.987 111.229C279.584 111.473 279.382 111.826 279.382 112.29V112.675C279.382 113.163 279.553 113.535 279.895 113.791C280.249 114.035 280.731 114.157 281.341 114.157ZM296.161 105.719H297.625L292.939 117.233C292.829 117.501 292.707 117.733 292.573 117.928C292.439 118.136 292.28 118.3 292.097 118.422C291.914 118.557 291.694 118.654 291.438 118.715C291.182 118.788 290.877 118.825 290.523 118.825H289.132V117.58H291.328L292.39 114.981L288.583 105.719H290.084L291.676 109.673L293.086 113.26H293.159L294.568 109.673L296.161 105.719ZM301.59 102.387V110.057C301.59 110.679 301.609 111.235 301.645 111.723C301.682 112.211 301.779 112.632 301.938 112.986C302.097 113.327 302.341 113.59 302.67 113.773C303.012 113.956 303.482 114.047 304.08 114.047C304.678 114.047 305.141 113.956 305.471 113.773C305.813 113.59 306.063 113.327 306.221 112.986C306.38 112.632 306.478 112.211 306.514 111.723C306.551 111.235 306.569 110.679 306.569 110.057V102.387H308.107V109.691C308.107 110.643 308.058 111.473 307.96 112.18C307.875 112.888 307.686 113.48 307.393 113.956C307.112 114.432 306.703 114.792 306.167 115.036C305.642 115.268 304.946 115.384 304.08 115.384C303.213 115.384 302.512 115.268 301.975 115.036C301.45 114.792 301.041 114.432 300.748 113.956C300.468 113.48 300.278 112.888 300.181 112.18C300.095 111.473 300.053 110.643 300.053 109.691V102.387H301.59ZM311.303 105.719H312.767V107.256H312.841C313.451 106.085 314.421 105.499 315.751 105.499C316.91 105.499 317.813 105.932 318.46 106.799C319.119 107.665 319.449 108.879 319.449 110.441C319.449 112.003 319.119 113.218 318.46 114.084C317.813 114.951 316.91 115.384 315.751 115.384C314.421 115.384 313.451 114.798 312.841 113.626H312.767V118.825H311.303V105.719ZM315.184 114.084C316.038 114.084 316.697 113.828 317.161 113.315C317.637 112.791 317.874 112.101 317.874 111.247V109.636C317.874 108.782 317.637 108.098 317.161 107.586C316.697 107.061 316.038 106.799 315.184 106.799C314.854 106.799 314.543 106.841 314.25 106.927C313.957 107.012 313.701 107.14 313.481 107.311C313.262 107.47 313.085 107.671 312.95 107.915C312.828 108.147 312.767 108.422 312.767 108.739V112.144C312.767 112.461 312.828 112.742 312.95 112.986C313.085 113.218 313.262 113.419 313.481 113.59C313.701 113.748 313.957 113.871 314.25 113.956C314.543 114.041 314.854 114.084 315.184 114.084ZM328.319 113.626H328.246C327.636 114.798 326.666 115.384 325.336 115.384C324.176 115.384 323.267 114.951 322.608 114.084C321.962 113.218 321.638 112.003 321.638 110.441C321.638 108.879 321.962 107.665 322.608 106.799C323.267 105.932 324.176 105.499 325.336 105.499C326.666 105.499 327.636 106.085 328.246 107.256H328.319V101.618H329.784V115.164H328.319V113.626ZM325.903 114.084C326.233 114.084 326.544 114.041 326.837 113.956C327.13 113.871 327.386 113.748 327.606 113.59C327.825 113.419 327.996 113.218 328.118 112.986C328.252 112.742 328.319 112.461 328.319 112.144V108.739C328.319 108.422 328.252 108.147 328.118 107.915C327.996 107.671 327.825 107.47 327.606 107.311C327.386 107.14 327.13 107.012 326.837 106.927C326.544 106.841 326.233 106.799 325.903 106.799C325.049 106.799 324.384 107.061 323.908 107.586C323.444 108.098 323.212 108.782 323.212 109.636V111.247C323.212 112.101 323.444 112.791 323.908 113.315C324.384 113.828 325.049 114.084 325.903 114.084ZM340.577 115.164C340.003 115.164 339.594 115.018 339.35 114.725C339.106 114.432 338.954 114.066 338.892 113.626H338.801C338.594 114.176 338.258 114.609 337.794 114.926C337.343 115.231 336.733 115.384 335.964 115.384C334.975 115.384 334.188 115.127 333.602 114.615C333.017 114.102 332.724 113.401 332.724 112.51C332.724 111.631 333.041 110.954 333.676 110.478C334.322 110.002 335.36 109.764 336.787 109.764H338.801V108.831C338.801 108.135 338.606 107.616 338.215 107.275C337.825 106.921 337.269 106.744 336.549 106.744C335.915 106.744 335.396 106.872 334.994 107.128C334.591 107.372 334.267 107.708 334.023 108.135L333.035 107.403C333.157 107.159 333.322 106.921 333.529 106.689C333.737 106.457 333.993 106.256 334.298 106.085C334.603 105.902 334.951 105.761 335.341 105.664C335.732 105.554 336.165 105.499 336.641 105.499C337.751 105.499 338.63 105.78 339.277 106.341C339.936 106.902 340.265 107.683 340.265 108.684V113.883H341.583V115.164H340.577ZM336.22 114.157C336.598 114.157 336.94 114.115 337.245 114.029C337.562 113.932 337.837 113.81 338.069 113.663C338.301 113.504 338.478 113.321 338.6 113.114C338.734 112.894 338.801 112.662 338.801 112.418V110.862H336.787C335.909 110.862 335.268 110.984 334.865 111.229C334.463 111.473 334.261 111.826 334.261 112.29V112.675C334.261 113.163 334.432 113.535 334.774 113.791C335.128 114.035 335.61 114.157 336.22 114.157ZM348.44 115.164C347.721 115.164 347.19 114.963 346.848 114.56C346.518 114.157 346.354 113.639 346.354 113.004V106.963H343.205V105.719H345.548C345.866 105.719 346.085 105.658 346.207 105.536C346.342 105.401 346.409 105.176 346.409 104.858V102.387H347.818V105.719H352.12V106.963H347.818V113.919H352.12V115.164H348.44ZM359.123 115.384C358.44 115.384 357.824 115.268 357.275 115.036C356.738 114.804 356.274 114.475 355.883 114.047C355.505 113.608 355.212 113.09 355.005 112.492C354.797 111.881 354.694 111.204 354.694 110.46C354.694 109.703 354.797 109.02 355.005 108.41C355.224 107.799 355.523 107.281 355.902 106.854C356.28 106.414 356.732 106.079 357.256 105.847C357.793 105.615 358.385 105.499 359.032 105.499C359.666 105.499 360.24 105.615 360.753 105.847C361.277 106.079 361.723 106.402 362.089 106.817C362.455 107.22 362.736 107.702 362.931 108.263C363.126 108.824 363.224 109.441 363.224 110.112V110.807H356.231V111.247C356.231 111.662 356.298 112.046 356.433 112.4C356.567 112.754 356.756 113.059 357 113.315C357.256 113.572 357.561 113.773 357.915 113.919C358.281 114.054 358.684 114.121 359.123 114.121C359.758 114.121 360.307 113.974 360.771 113.681C361.235 113.388 361.588 112.986 361.833 112.473L362.913 113.205C362.632 113.84 362.162 114.365 361.503 114.78C360.856 115.182 360.063 115.384 359.123 115.384ZM359.032 106.707C358.629 106.707 358.257 106.78 357.915 106.927C357.574 107.073 357.275 107.275 357.018 107.531C356.774 107.787 356.579 108.092 356.433 108.446C356.298 108.788 356.231 109.166 356.231 109.581V109.709H361.649V109.508C361.649 109.093 361.582 108.715 361.448 108.373C361.326 108.031 361.149 107.738 360.917 107.494C360.698 107.238 360.423 107.043 360.094 106.909C359.776 106.774 359.422 106.707 359.032 106.707Z" fill="#202425"/>
<path d="M236.688 74.5833H238.836L236.716 70.5387C238.013 70.1622 238.822 69.1162 238.822 67.7355C238.822 66.0201 237.594 64.6951 235.67 64.6951H231.806V74.5833H233.745V70.7758H234.749L236.688 74.5833ZM233.745 69.1162V66.3687H235.307C236.283 66.3687 236.855 66.9126 236.855 67.7494C236.855 68.5583 236.283 69.1162 235.307 69.1162H233.745ZM243.275 73.1049C242.369 73.1049 241.532 72.4355 241.532 71.1524C241.532 69.8554 242.369 69.1999 243.275 69.1999C244.182 69.1999 245.018 69.8554 245.018 71.1524C245.018 72.4494 244.182 73.1049 243.275 73.1049ZM243.275 67.5123C241.225 67.5123 239.677 69.0325 239.677 71.1524C239.677 73.2583 241.225 74.7925 243.275 74.7925C245.325 74.7925 246.873 73.2583 246.873 71.1524C246.873 69.0325 245.325 67.5123 243.275 67.5123ZM250.137 74.5833V73.7465C250.499 74.3322 251.224 74.7506 252.173 74.7506C254.125 74.7506 255.408 73.2025 255.408 71.1245C255.408 69.0883 254.251 67.5402 252.243 67.5402C251.224 67.5402 250.471 67.9865 250.164 68.4746V64.4859H248.337V74.5833H250.137ZM253.554 71.1384C253.554 72.3936 252.8 73.091 251.852 73.091C250.918 73.091 250.137 72.3797 250.137 71.1384C250.137 69.8833 250.918 69.1999 251.852 69.1999C252.8 69.1999 253.554 69.8833 253.554 71.1384ZM258.23 70.3714C258.272 69.7438 258.802 69.0186 259.764 69.0186C260.824 69.0186 261.27 69.688 261.298 70.3714H258.23ZM261.479 72.1565C261.256 72.7702 260.782 73.2025 259.917 73.2025C258.997 73.2025 258.23 72.5471 258.188 71.6405H263.097C263.097 71.6126 263.125 71.3337 263.125 71.0687C263.125 68.8652 261.856 67.5123 259.736 67.5123C257.979 67.5123 256.361 68.9349 256.361 71.1245C256.361 73.4396 258.021 74.7925 259.903 74.7925C261.591 74.7925 262.679 73.8022 263.027 72.6168L261.479 72.1565ZM268.77 67.6936C268.63 67.6797 268.491 67.6657 268.337 67.6657C267.752 67.6657 266.803 67.8331 266.385 68.7396V67.7215H264.586V74.5833H266.441V71.4453C266.441 69.9669 267.264 69.5067 268.212 69.5067C268.379 69.5067 268.561 69.5206 268.77 69.5625V67.6936ZM272.634 65.6714H270.961V66.6337C270.961 67.2474 270.626 67.7215 269.901 67.7215H269.552V69.3672H270.793V72.561C270.793 73.8859 271.63 74.6809 272.969 74.6809C273.513 74.6809 273.848 74.5833 274.015 74.5135V72.9794C273.917 73.0073 273.666 73.0352 273.443 73.0352C272.913 73.0352 272.634 72.8399 272.634 72.2402V69.3672H274.015V67.7215H272.634V65.6714Z" fill="#202425"/>
</g>
<defs>
<clipPath id="clip0_1119_17619">
<rect width="360" height="210" fill="white" transform="translate(0.5)"/>
</clipPath>
</defs>
</svg>
