<svg xmlns="http://www.w3.org/2000/svg" width="361" height="210" fill="none" viewBox="0 0 361 210"><g clip-path="url(#a)"><rect width="270" height="216" x="45" y="18.5" fill="#fff" stroke="#eceef0" rx="7.768"/><circle cx="80.5" cy="54" r="19" fill="#eceef0"/><path fill="#9ba1a6" d="M84.802 60v-1.824h-6.448l6.368-7.696v-1.824H76.13v1.808h6.112l-6.288 7.648V60z"/><path fill="#202425" d="M116.664 47v-1.584h-4.56l4.5-5.376v-1.548h-6.48v1.572h4.272l-4.428 5.328V47zm3.922-1.272c-.78 0-1.5-.576-1.5-1.68 0-1.116.72-1.68 1.5-1.68s1.5.564 1.5 1.68-.72 1.68-1.5 1.68m0-4.812c-1.764 0-3.096 1.308-3.096 3.132 0 1.812 1.332 3.132 3.096 3.132s3.096-1.32 3.096-3.132c0-1.824-1.332-3.132-3.096-3.132m5.52 2.46c.036-.54.492-1.164 1.32-1.164.912 0 1.296.576 1.32 1.164zm2.796 1.536c-.192.528-.6.9-1.344.9-.792 0-1.452-.564-1.488-1.344h4.224c0-.024.024-.264.024-.492 0-1.896-1.092-3.06-2.916-3.06-1.512 0-2.904 1.224-2.904 3.108 0 1.992 1.428 3.156 3.048 3.156 1.452 0 2.388-.852 2.688-1.872z"/><path fill="#9ba1a6" d="M141.192 42.02c-.012-.12-.024-.24-.024-.348 0-.888.48-1.596 1.5-1.596.984 0 1.464.66 1.464 1.368 0 .6-.336 1.152-1.068 1.62l-1.296.84c-1.32.852-1.824 1.824-1.848 3.096h5.448v-1.092h-3.996c.108-.48.504-.804.948-1.092l1.536-.984c.888-.564 1.464-1.38 1.464-2.4 0-1.296-.96-2.388-2.628-2.388-1.704 0-2.688 1.188-2.688 2.52 0 .096 0 .204.012.312zm9.736 4.98v-3.48c0-.864.54-1.464 1.344-1.464.864 0 1.224.576 1.224 1.32V47h1.128v-3.492c0-.828.54-1.452 1.332-1.452.852 0 1.224.564 1.224 1.32V47h1.116v-3.744c0-1.512-.984-2.196-1.992-2.196-.732 0-1.476.264-1.932 1.092-.312-.744-1.008-1.092-1.728-1.092-.672 0-1.392.3-1.752.936v-.768h-1.08V47zm10.289 0v-5.772h-1.116V47zm-1.368-7.956c0 .444.36.804.804.804a.81.81 0 1 0-.804-.804m4.415 4.62c0-.876.456-1.584 1.344-1.584 1.008 0 1.344.648 1.344 1.452V47h1.128v-3.66c0-1.284-.684-2.28-2.064-2.28-.672 0-1.356.276-1.776.996v-.828h-1.104V47h1.128zm9.297 2.64c0 .24.024.564.048.696h1.08a10 10 0 0 1-.06-1.068v-4.704h-1.128v3.48c0 .876-.456 1.476-1.368 1.476-.948 0-1.308-.696-1.308-1.488v-3.468h-1.128v3.636c0 1.308.816 2.316 2.16 2.316.672 0 1.392-.276 1.704-.876m4.505-6.9h-1.032v.936c0 .504-.264.888-.888.888h-.312v1.02h1.104v3.168c0 1.044.624 1.644 1.608 1.644.384 0 .672-.072.768-.108v-.96c-.096.024-.3.048-.444.048-.588 0-.804-.264-.804-.792v-3h1.248v-1.02h-1.248zm3.427 4.116c.048-.744.624-1.476 1.572-1.476 1.02 0 1.56.648 1.584 1.476zm3.324 1.5c-.216.648-.684 1.164-1.62 1.164-.972 0-1.716-.72-1.74-1.752h4.344c.012-.072.024-.216.024-.36 0-1.8-.996-3.024-2.772-3.024-1.452 0-2.76 1.236-2.76 3.048 0 1.956 1.356 3.084 2.904 3.084 1.344 0 2.268-.804 2.592-1.824zm1.908.48c.096.66.768 1.68 2.352 1.68 1.428 0 2.112-.972 2.112-1.788 0-.852-.552-1.488-1.596-1.716l-.936-.204c-.444-.096-.66-.348-.66-.696 0-.396.384-.768.96-.768.912 0 1.152.66 1.2.96l.996-.372c-.12-.516-.612-1.548-2.196-1.548-1.128 0-2.052.84-2.052 1.824 0 .816.54 1.428 1.44 1.62l.984.216c.48.108.744.384.744.744 0 .408-.348.768-.984.768-.816 0-1.272-.48-1.344-1.08zm8.605-.048c0 .912.756 1.728 1.932 1.728 1.032 0 1.608-.552 1.86-.96 0 .42.036.636.06.78h1.104a5.4 5.4 0 0 1-.072-.948V43.16c0-1.128-.672-2.112-2.4-2.112-1.248 0-2.244.768-2.364 1.872l1.08.252c.072-.672.516-1.164 1.308-1.164.876 0 1.248.468 1.248 1.032 0 .204-.096.384-.444.432l-1.56.228c-.996.144-1.752.72-1.752 1.752m2.088.78c-.576 0-.936-.408-.936-.84 0-.516.36-.792.84-.864l1.764-.264v.264c0 1.26-.744 1.704-1.668 1.704m4.134 1.08c.144 1.236 1.224 2.148 2.664 2.148 2.172 0 2.892-1.428 2.892-2.892v-5.34h-1.116v.804c-.288-.576-.888-.912-1.776-.912-1.584 0-2.652 1.248-2.652 2.808 0 1.632 1.116 2.796 2.652 2.796.864 0 1.488-.42 1.764-.948v.828c0 1.248-.552 1.872-1.764 1.872-.876 0-1.488-.612-1.572-1.416zm2.832-1.536c-1.02 0-1.668-.72-1.668-1.848 0-1.116.672-1.848 1.668-1.848.972 0 1.644.732 1.644 1.848s-.672 1.848-1.644 1.848m6.997.396c-.96 0-1.8-.72-1.8-2.064 0-1.332.84-2.052 1.8-2.052s1.8.72 1.8 2.052c0 1.344-.84 2.064-1.8 2.064m0-5.124c-1.728 0-2.952 1.308-2.952 3.06 0 1.764 1.224 3.072 2.952 3.072s2.952-1.308 2.952-3.072c0-1.752-1.224-3.06-2.952-3.06"/><path fill="#202425" d="M114.984 66h1.368l-2.028-3.564c1.284-.24 2.064-1.188 2.064-2.412 0-1.404-.996-2.532-2.604-2.532h-3.204V66h1.188v-3.48h1.272zm-3.216-4.536v-2.916h1.8c.96 0 1.608.576 1.608 1.476 0 .876-.648 1.44-1.608 1.44zm6.619 1.056c.048-.744.624-1.476 1.572-1.476 1.02 0 1.56.648 1.584 1.476zm3.324 1.5c-.216.648-.684 1.164-1.62 1.164-.972 0-1.716-.72-1.74-1.752h4.344c.012-.072.024-.216.024-.36 0-1.8-.996-3.024-2.772-3.024-1.452 0-2.76 1.236-2.76 3.048 0 1.956 1.356 3.084 2.904 3.084 1.344 0 2.268-.804 2.592-1.824zm2.088.432c0 .912.756 1.728 1.932 1.728 1.032 0 1.608-.552 1.86-.96 0 .42.036.636.06.78h1.104a5.4 5.4 0 0 1-.072-.948V62.16c0-1.128-.672-2.112-2.4-2.112-1.248 0-2.244.768-2.364 1.872l1.08.252c.072-.672.516-1.164 1.308-1.164.876 0 1.248.468 1.248 1.032 0 .204-.096.384-.444.432l-1.56.228c-.996.144-1.752.72-1.752 1.752m2.088.78c-.576 0-.936-.408-.936-.84 0-.516.36-.792.84-.864l1.764-.264v.264c0 1.26-.744 1.704-1.668 1.704m5.681.768v-8.688h-1.128V66zm3.047 0v-8.688h-1.128V66zm3.359 2.412 3.756-8.184h-1.212l-1.728 3.984-1.8-3.984h-1.296l2.484 5.136-1.44 3.048zm7.421-2.1c.144 1.236 1.224 2.148 2.664 2.148 2.172 0 2.892-1.428 2.892-2.892v-5.34h-1.116v.804c-.288-.576-.888-.912-1.776-.912-1.584 0-2.652 1.248-2.652 2.808 0 1.632 1.116 2.796 2.652 2.796.864 0 1.488-.42 1.764-.948v.828c0 1.248-.552 1.872-1.764 1.872-.876 0-1.488-.612-1.572-1.416zm2.832-1.536c-1.02 0-1.668-.72-1.668-1.848 0-1.116.672-1.848 1.668-1.848.972 0 1.644.732 1.644 1.848s-.672 1.848-1.644 1.848m6.998.396c-.96 0-1.8-.72-1.8-2.064 0-1.332.84-2.052 1.8-2.052s1.8.72 1.8 2.052c0 1.344-.84 2.064-1.8 2.064m0-5.124c-1.728 0-2.952 1.308-2.952 3.06 0 1.764 1.224 3.072 2.952 3.072s2.952-1.308 2.952-3.072c0-1.752-1.224-3.06-2.952-3.06m6.867 5.124c-.96 0-1.8-.72-1.8-2.064 0-1.332.84-2.052 1.8-2.052s1.8.72 1.8 2.052c0 1.344-.84 2.064-1.8 2.064m0-5.124c-1.728 0-2.952 1.308-2.952 3.06 0 1.764 1.224 3.072 2.952 3.072s2.952-1.308 2.952-3.072c0-1.752-1.224-3.06-2.952-3.06m5.067 3.048c0-1.188.672-2.028 1.704-2.028s1.656.816 1.656 2.004-.636 2.088-1.668 2.088c-1.08 0-1.692-.876-1.692-2.064m3.372 2.124c0 .348.036.648.06.78h1.092a9 9 0 0 1-.06-1.068v-7.62h-1.116v3.732c-.192-.468-.744-.972-1.764-.972-1.632 0-2.736 1.392-2.736 3.024 0 1.716 1.044 3.06 2.736 3.06.9 0 1.512-.48 1.788-1.032zm8.915-3.972v-1.02h-1.392v-.912c0-.792.516-.984.912-.984.288 0 .432.048.492.072v-1.008c-.048-.036-.288-.12-.672-.12-1.044 0-1.896.696-1.896 1.98v.972h-1.068v1.02h1.068V66h1.164v-4.752zm1.707 1.272c.048-.744.624-1.476 1.572-1.476 1.02 0 1.56.648 1.584 1.476zm3.324 1.5c-.216.648-.684 1.164-1.62 1.164-.972 0-1.716-.72-1.74-1.752h4.344c.012-.072.024-.216.024-.36 0-1.8-.996-3.024-2.772-3.024-1.452 0-2.76 1.236-2.76 3.048 0 1.956 1.356 3.084 2.904 3.084 1.344 0 2.268-.804 2.592-1.824zm3.18-1.5c.048-.744.624-1.476 1.572-1.476 1.02 0 1.56.648 1.584 1.476zm3.324 1.5c-.216.648-.684 1.164-1.62 1.164-.972 0-1.716-.72-1.74-1.752h4.344c.012-.072.024-.216.024-.36 0-1.8-.996-3.024-2.772-3.024-1.452 0-2.76 1.236-2.76 3.048 0 1.956 1.356 3.084 2.904 3.084 1.344 0 2.268-.804 2.592-1.824zm3.12-.924c0-1.188.672-2.028 1.704-2.028s1.656.816 1.656 2.004-.636 2.088-1.668 2.088c-1.08 0-1.692-.876-1.692-2.064m3.372 2.124c0 .348.036.648.06.78h1.092a9 9 0 0 1-.06-1.068v-7.62h-1.116v3.732c-.192-.468-.744-.972-1.764-.972-1.632 0-2.736 1.392-2.736 3.024 0 1.716 1.044 3.06 2.736 3.06.9 0 1.512-.48 1.788-1.032zm4.126.78v-.84c.36.624 1.02.996 1.872.996 1.716 0 2.688-1.356 2.688-3.072 0-1.68-.9-3.024-2.652-3.024-.96 0-1.632.468-1.908.984v-3.732h-1.116V66zm3.408-2.916c0 1.248-.672 2.064-1.704 2.064-.996 0-1.716-.816-1.716-2.064s.72-2.028 1.716-2.028c1.044 0 1.704.78 1.704 2.028m2.23 1.368c0 .912.756 1.728 1.932 1.728 1.032 0 1.608-.552 1.86-.96 0 .42.036.636.06.78h1.104a5.4 5.4 0 0 1-.072-.948V62.16c0-1.128-.672-2.112-2.4-2.112-1.248 0-2.244.768-2.364 1.872l1.08.252c.072-.672.516-1.164 1.308-1.164.876 0 1.248.468 1.248 1.032 0 .204-.096.384-.444.432l-1.56.228c-.996.144-1.752.72-1.752 1.752m2.088.78c-.576 0-.936-.408-.936-.84 0-.516.36-.792.84-.864l1.764-.264v.264c0 1.26-.744 1.704-1.668 1.704m6.977-4.14c.984 0 1.404.66 1.548 1.224l1.02-.432c-.24-.876-1.032-1.836-2.568-1.836-1.644 0-2.904 1.26-2.904 3.06 0 1.752 1.236 3.072 2.916 3.072 1.5 0 2.328-.972 2.604-1.8l-.996-.432c-.132.456-.528 1.188-1.608 1.188-.936 0-1.764-.708-1.764-2.028 0-1.344.84-2.016 1.752-2.016m9.111-.864h-1.56l-2.496 2.556v-5.472h-1.116V66h1.116v-1.74l.804-.804L224.045 66h1.416l-2.508-3.336zM231.034 66v-5.904h-1.596V66zm-1.788-7.836c0 .528.444.972.984.972a.98.98 0 0 0 .984-.972.983.983 0 1 0-1.968 0m5.093 4.44c0-.684.408-1.224 1.104-1.224.768 0 1.092.516 1.092 1.176V66h1.596v-3.72c0-1.296-.672-2.34-2.136-2.34-.636 0-1.344.276-1.704.888v-.732h-1.548V66h1.596zm9.972-.072c.036-.648.432-1.152 1.104-1.152.768 0 1.092.516 1.092 1.176V66h1.596v-3.72c0-1.296-.696-2.34-2.196-2.34-.564 0-1.212.192-1.596.648v-3.276h-1.596V66h1.596zm6.576-.156c.036-.54.492-1.164 1.32-1.164.912 0 1.296.576 1.32 1.164zm2.796 1.536c-.192.528-.6.9-1.344.9-.792 0-1.452-.564-1.488-1.344h4.224c0-.024.024-.264.024-.492 0-1.896-1.092-3.06-2.916-3.06-1.512 0-2.904 1.224-2.904 3.108 0 1.992 1.428 3.156 3.048 3.156 1.452 0 2.388-.852 2.688-1.872zm6.273-3.84c-.12-.012-.24-.024-.372-.024-.504 0-1.32.144-1.68.924v-.876h-1.548V66h1.596v-2.7c0-1.272.708-1.668 1.524-1.668.144 0 .3.012.48.048zm2.228 2.304c.036-.54.492-1.164 1.32-1.164.912 0 1.296.576 1.32 1.164zm2.796 1.536c-.192.528-.6.9-1.344.9-.792 0-1.452-.564-1.488-1.344h4.224c0-.024.024-.264.024-.492 0-1.896-1.092-3.06-2.916-3.06-1.512 0-2.904 1.224-2.904 3.108 0 1.992 1.428 3.156 3.048 3.156 1.452 0 2.388-.852 2.688-1.872zm2.661 1.32c0 .468.36.828.828.828s.84-.36.84-.828a.835.835 0 0 0-.84-.84.825.825 0 0 0-.828.84M116.712 79.356c1.248 0 2.28-1.332 2.28-3.12 0-2.244-1.86-3.924-4.296-3.924-2.532 0-4.656 1.908-4.656 4.692 0 2.724 1.992 4.56 4.8 4.56 1.032 0 2.256-.408 2.952-1.068l-.492-.648c-.72.576-1.584.84-2.46.84-2.4 0-3.816-1.572-3.816-3.672 0-2.292 1.572-3.828 3.684-3.828 2.028 0 3.36 1.308 3.36 3.06 0 1.2-.624 2.28-1.296 2.28-.336 0-.456-.216-.456-.492 0-.108.012-.216.036-.336l.648-3.012h-.948l-.108.636c-.18-.54-.78-.792-1.284-.792-1.296 0-2.4 1.188-2.4 2.796 0 1.236.756 2.052 1.836 2.052.516 0 1.068-.276 1.428-.792.132.528.624.768 1.188.768m-1.032-2.796c-.036 1.128-.6 1.944-1.416 1.944-.78 0-1.02-.576-1.02-1.308 0-.888.564-1.764 1.428-1.764.648 0 1.008.42 1.008 1.128m9.218 4.44h1.368l-2.028-3.564c1.284-.24 2.064-1.188 2.064-2.412 0-1.404-.996-2.532-2.604-2.532h-3.204V81h1.188v-3.48h1.272zm-3.216-4.536v-2.916h1.8c.96 0 1.608.576 1.608 1.476 0 .876-.648 1.44-1.608 1.44zm6.619 1.056c.048-.744.624-1.476 1.572-1.476 1.02 0 1.56.648 1.584 1.476zm3.324 1.5c-.216.648-.684 1.164-1.62 1.164-.972 0-1.716-.72-1.74-1.752h4.344c.012-.072.024-.216.024-.36 0-1.8-.996-3.024-2.772-3.024-1.452 0-2.76 1.236-2.76 3.048 0 1.956 1.356 3.084 2.904 3.084 1.344 0 2.268-.804 2.592-1.824zm3.564 1.98v-.84c.36.624 1.02.996 1.872.996 1.716 0 2.688-1.356 2.688-3.072 0-1.68-.9-3.024-2.652-3.024-.96 0-1.632.468-1.908.984v-3.732h-1.116V81zm3.408-2.916c0 1.248-.672 2.064-1.704 2.064-.996 0-1.716-.816-1.716-2.064s.72-2.028 1.716-2.028c1.044 0 1.704.78 1.704 2.028m3.322-.564c.048-.744.624-1.476 1.572-1.476 1.02 0 1.56.648 1.584 1.476zm3.324 1.5c-.216.648-.684 1.164-1.62 1.164-.972 0-1.716-.72-1.74-1.752h4.344c.012-.072.024-.216.024-.36 0-1.8-.996-3.024-2.772-3.024-1.452 0-2.76 1.236-2.76 3.048 0 1.956 1.356 3.084 2.904 3.084 1.344 0 2.268-.804 2.592-1.824zm4.871-2.928c.984 0 1.404.66 1.548 1.224l1.02-.432c-.24-.876-1.032-1.836-2.568-1.836-1.644 0-2.904 1.26-2.904 3.06 0 1.752 1.236 3.072 2.916 3.072 1.5 0 2.328-.972 2.604-1.8l-.996-.432c-.132.456-.528 1.188-1.608 1.188-.936 0-1.764-.708-1.764-2.028 0-1.344.84-2.016 1.752-2.016m6.305 0c.984 0 1.404.66 1.548 1.224l1.02-.432c-.24-.876-1.032-1.836-2.568-1.836-1.644 0-2.904 1.26-2.904 3.06 0 1.752 1.236 3.072 2.916 3.072 1.5 0 2.328-.972 2.604-1.8l-.996-.432c-.132.456-.528 1.188-1.608 1.188-.936 0-1.764-.708-1.764-2.028 0-1.344.84-2.016 1.752-2.016m3.521 3.36c0 .912.756 1.728 1.932 1.728 1.032 0 1.608-.552 1.86-.96 0 .42.036.636.06.78h1.104a5.4 5.4 0 0 1-.072-.948V77.16c0-1.128-.672-2.112-2.4-2.112-1.248 0-2.244.768-2.364 1.872l1.08.252c.072-.672.516-1.164 1.308-1.164.876 0 1.248.468 1.248 1.032 0 .204-.096.384-.444.432l-1.56.228c-.996.144-1.752.72-1.752 1.752m2.088.78c-.576 0-.936-.408-.936-.84 0-.516.36-.792.84-.864l1.764-.264v.264c0 1.26-.744 1.704-1.668 1.704m9.065-6.828h-1.032v.936c0 .504-.264.888-.888.888h-.312v1.02h1.104v3.168c0 1.044.624 1.644 1.608 1.644.384 0 .672-.072.768-.108v-.96c-.096.024-.3.048-.444.048-.588 0-.804-.264-.804-.792v-3h1.248v-1.02h-1.248zm3.882 4.2c.024-.852.48-1.524 1.344-1.524 1.008 0 1.344.648 1.344 1.452V81h1.128v-3.66c0-1.284-.684-2.28-2.064-2.28-.66 0-1.332.228-1.752.84v-3.588h-1.128V81h1.128zm5.25 1.848c0 .912.756 1.728 1.932 1.728 1.032 0 1.608-.552 1.86-.96 0 .42.036.636.06.78h1.104a5.4 5.4 0 0 1-.072-.948V77.16c0-1.128-.672-2.112-2.4-2.112-1.248 0-2.244.768-2.364 1.872l1.08.252c.072-.672.516-1.164 1.308-1.164.876 0 1.248.468 1.248 1.032 0 .204-.096.384-.444.432l-1.56.228c-.996.144-1.752.72-1.752 1.752m2.088.78c-.576 0-.936-.408-.936-.84 0-.516.36-.792.84-.864l1.764-.264v.264c0 1.26-.744 1.704-1.668 1.704m5.681-2.568c0-.876.456-1.584 1.344-1.584 1.008 0 1.344.648 1.344 1.452V81h1.128v-3.66c0-1.284-.684-2.28-2.064-2.28-.672 0-1.356.276-1.776.996v-.828h-1.104V81h1.128zm10.783-2.436h-1.56l-2.496 2.556v-5.472h-1.116V81h1.116v-1.74l.804-.804L197.409 81h1.416l-2.508-3.336zm.592 4.272c.096.66.768 1.68 2.352 1.68 1.428 0 2.112-.972 2.112-1.788 0-.852-.552-1.488-1.596-1.716l-.936-.204c-.444-.096-.66-.348-.66-.696 0-.396.384-.768.96-.768.912 0 1.152.66 1.2.96l.996-.372c-.12-.516-.612-1.548-2.196-1.548-1.128 0-2.052.84-2.052 1.824 0 .816.54 1.428 1.44 1.62l.984.216c.48.108.744.384.744.744 0 .408-.348.768-.984.768-.816 0-1.272-.48-1.344-1.08zm11.87-3.252v-1.02h-1.392v-.912c0-.792.516-.984.912-.984.288 0 .432.048.492.072v-1.008c-.048-.036-.288-.12-.672-.12-1.044 0-1.896.696-1.896 1.98v.972h-1.068v1.02h1.068V81h1.164v-4.752zm3.447 3.924c-.96 0-1.8-.72-1.8-2.064 0-1.332.84-2.052 1.8-2.052s1.8.72 1.8 2.052c0 1.344-.84 2.064-1.8 2.064m0-5.124c-1.728 0-2.952 1.308-2.952 3.06 0 1.764 1.224 3.072 2.952 3.072s2.952-1.308 2.952-3.072c0-1.752-1.224-3.06-2.952-3.06m7.599.12a2 2 0 0 0-.372-.036c-.588 0-1.308.216-1.728 1.104v-1.008h-1.104V81h1.128v-2.892c0-1.272.636-1.776 1.584-1.776.156 0 .324.012.492.036zm5.33 2.436c.024-.852.48-1.524 1.344-1.524 1.008 0 1.344.648 1.344 1.452V81h1.128v-3.66c0-1.284-.684-2.28-2.064-2.28-.66 0-1.332.228-1.752.84v-3.588h-1.128V81h1.128zM234.342 81v-5.772h-1.116V81zm-1.368-7.956c0 .444.36.804.804.804a.81.81 0 1 0-.804-.804m2.867 8.268c.144 1.236 1.224 2.148 2.664 2.148 2.172 0 2.892-1.428 2.892-2.892v-5.34h-1.116v.804c-.288-.576-.888-.912-1.776-.912-1.584 0-2.652 1.248-2.652 2.808 0 1.632 1.116 2.796 2.652 2.796.864 0 1.488-.42 1.764-.948v.828c0 1.248-.552 1.872-1.764 1.872-.876 0-1.488-.612-1.572-1.416zm2.832-1.536c-1.02 0-1.668-.72-1.668-1.848 0-1.116.672-1.848 1.668-1.848.972 0 1.644.732 1.644 1.848s-.672 1.848-1.644 1.848m5.653-2.172c.024-.852.48-1.524 1.344-1.524 1.008 0 1.344.648 1.344 1.452V81h1.128v-3.66c0-1.284-.684-2.28-2.064-2.28-.66 0-1.332.228-1.752.84v-3.588h-1.128V81h1.128zM251.065 81v-8.688h-1.128V81zm3.034 0v-5.772h-1.116V81zm-1.368-7.956c0 .444.36.804.804.804a.81.81 0 1 0-.804-.804m2.868 8.268c.144 1.236 1.224 2.148 2.664 2.148 2.172 0 2.892-1.428 2.892-2.892v-5.34h-1.116v.804c-.288-.576-.888-.912-1.776-.912-1.584 0-2.652 1.248-2.652 2.808 0 1.632 1.116 2.796 2.652 2.796.864 0 1.488-.42 1.764-.948v.828c0 1.248-.552 1.872-1.764 1.872-.876 0-1.488-.612-1.572-1.416zm2.832-1.536c-1.02 0-1.668-.72-1.668-1.848 0-1.116.672-1.848 1.668-1.848.972 0 1.644.732 1.644 1.848s-.672 1.848-1.644 1.848m5.653-2.172c.024-.852.48-1.524 1.344-1.524 1.008 0 1.344.648 1.344 1.452V81h1.128v-3.66c0-1.284-.684-2.28-2.064-2.28-.66 0-1.332.228-1.752.84v-3.588h-1.128V81h1.128zm7.122-4.2h-1.032v.936c0 .504-.264.888-.888.888h-.312v1.02h1.104v3.168c0 1.044.624 1.644 1.608 1.644.384 0 .672-.072.768-.108v-.96c-.096.024-.3.048-.444.048-.588 0-.804-.264-.804-.792v-3h1.248v-1.02h-1.248zm3.87 7.596v-5.772h-1.116V81zm-1.368-7.956c0 .444.36.804.804.804a.81.81 0 1 0-.804-.804m4.415 4.62c0-.876.456-1.584 1.344-1.584 1.008 0 1.344.648 1.344 1.452V81h1.128v-3.66c0-1.284-.684-2.28-2.064-2.28-.672 0-1.356.276-1.776.996v-.828h-1.104V81h1.128zm5.19 3.648c.144 1.236 1.224 2.148 2.664 2.148 2.172 0 2.892-1.428 2.892-2.892v-5.34h-1.116v.804c-.288-.576-.888-.912-1.776-.912-1.584 0-2.652 1.248-2.652 2.808 0 1.632 1.116 2.796 2.652 2.796.864 0 1.488-.42 1.764-.948v.828c0 1.248-.552 1.872-1.764 1.872-.876 0-1.488-.612-1.572-1.416zm2.832-1.536c-1.02 0-1.668-.72-1.668-1.848 0-1.116.672-1.848 1.668-1.848.972 0 1.644.732 1.644 1.848s-.672 1.848-1.644 1.848m-174.173 8.628h-1.032v.936c0 .504-.264.888-.888.888h-.312v1.02h1.104v3.168c0 1.044.624 1.644 1.608 1.644.384 0 .672-.072.768-.108v-.96c-.096.024-.3.048-.444.048-.588 0-.804-.264-.804-.792v-3h1.248v-1.02h-1.248zm3.882 4.2c.024-.852.48-1.524 1.344-1.524 1.008 0 1.344.648 1.344 1.452V96h1.128v-3.66c0-1.284-.684-2.28-2.064-2.28-.66 0-1.332.228-1.752.84v-3.588h-1.128V96h1.128zM122.58 96v-5.772h-1.116V96zm-1.368-7.956c0 .444.36.804.804.804a.81.81 0 1 0-.804-.804m2.747 6.456c.096.66.768 1.68 2.352 1.68 1.428 0 2.112-.972 2.112-1.788 0-.852-.552-1.488-1.596-1.716l-.936-.204c-.444-.096-.66-.348-.66-.696 0-.396.384-.768.96-.768.912 0 1.152.66 1.2.96l.996-.372c-.12-.516-.612-1.548-2.196-1.548-1.128 0-2.052.84-2.052 1.824 0 .816.54 1.428 1.44 1.62l.984.216c.48.108.744.384.744.744 0 .408-.348.768-.984.768-.816 0-1.272-.48-1.344-1.08zm10.478-6.096h-1.032v.936c0 .504-.264.888-.888.888h-.312v1.02h1.104v3.168c0 1.044.624 1.644 1.608 1.644.384 0 .672-.072.768-.108v-.96c-.096.024-.3.048-.444.048-.588 0-.804-.264-.804-.792v-3h1.248v-1.02h-1.248zm6.123 1.824-1.5 4.344-1.296-4.344h-1.236L138.424 96h1.188l1.5-4.392L142.648 96h1.164l1.872-5.772h-1.188l-1.272 4.344-1.5-4.344zm6.878 2.292c.048-.744.624-1.476 1.572-1.476 1.02 0 1.56.648 1.584 1.476zm3.324 1.5c-.216.648-.684 1.164-1.62 1.164-.972 0-1.716-.72-1.74-1.752h4.344c.012-.072.024-.216.024-.36 0-1.8-.996-3.024-2.772-3.024-1.452 0-2.76 1.236-2.76 3.048 0 1.956 1.356 3.084 2.904 3.084 1.344 0 2.268-.804 2.592-1.824zm3.18-1.5c.048-.744.624-1.476 1.572-1.476 1.02 0 1.56.648 1.584 1.476zm3.324 1.5c-.216.648-.684 1.164-1.62 1.164-.972 0-1.716-.72-1.74-1.752h4.344c.012-.072.024-.216.024-.36 0-1.8-.996-3.024-2.772-3.024-1.452 0-2.76 1.236-2.76 3.048 0 1.956 1.356 3.084 2.904 3.084 1.344 0 2.268-.804 2.592-1.824zm3.96-5.616h-1.032v.936c0 .504-.264.888-.888.888h-.312v1.02h1.104v3.168c0 1.044.624 1.644 1.608 1.644.384 0 .672-.072.768-.108v-.96c-.096.024-.3.048-.444.048-.588 0-.804-.264-.804-.792v-3h1.248v-1.02h-1.248zm2.634 6.828c0 .468.36.828.828.828s.84-.36.84-.828a.835.835 0 0 0-.84-.84.825.825 0 0 0-.828.84"/><circle cx="80.5" cy="130" r="19" fill="#9ba1a6"/><rect width="13.5" height="13.5" x="89.5" y="136" fill="#3fcf8e" stroke="#fff" stroke-width="4" rx="6.75"/><path fill="#202425" d="M82.37 136h2.176l-2.56-4.672c1.584-.384 2.56-1.616 2.56-3.232 0-1.92-1.36-3.44-3.552-3.44h-4.352V136h1.936v-4.48h1.408zm-3.792-6.176v-3.472h2.064c1.184 0 1.952.688 1.952 1.744 0 1.04-.768 1.728-1.952 1.728zM116.172 123h1.848l-1.824-3.48c1.116-.324 1.812-1.224 1.812-2.412 0-1.476-1.056-2.616-2.712-2.616h-3.324V123h1.668v-3.276h.864zm-2.532-4.704v-2.364h1.344c.84 0 1.332.468 1.332 1.188 0 .696-.492 1.176-1.332 1.176zm6.712 1.08c.036-.54.492-1.164 1.32-1.164.912 0 1.296.576 1.32 1.164zm2.796 1.536c-.192.528-.6.9-1.344.9-.792 0-1.452-.564-1.488-1.344h4.224c0-.024.024-.264.024-.492 0-1.896-1.092-3.06-2.916-3.06-1.512 0-2.904 1.224-2.904 3.108 0 1.992 1.428 3.156 3.048 3.156 1.452 0 2.388-.852 2.688-1.872zm4.221 2.088v-.72c.312.504.936.864 1.752.864 1.68 0 2.784-1.332 2.784-3.12 0-1.752-.996-3.084-2.724-3.084-.876 0-1.524.384-1.788.804v-3.432h-1.572V123zm2.94-2.964c0 1.08-.648 1.68-1.464 1.68-.804 0-1.476-.612-1.476-1.68 0-1.08.672-1.668 1.476-1.668.816 0 1.464.588 1.464 1.668m4.023-.66c.036-.54.492-1.164 1.32-1.164.912 0 1.296.576 1.32 1.164zm2.796 1.536c-.192.528-.6.9-1.344.9-.792 0-1.452-.564-1.488-1.344h4.224c0-.024.024-.264.024-.492 0-1.896-1.092-3.06-2.916-3.06-1.512 0-2.904 1.224-2.904 3.108 0 1.992 1.428 3.156 3.048 3.156 1.452 0 2.388-.852 2.688-1.872zm5.325-2.52c.792 0 1.164.504 1.308.996l1.428-.48c-.252-.996-1.164-1.992-2.772-1.992-1.716 0-3.06 1.308-3.06 3.132 0 1.812 1.368 3.132 3.108 3.132 1.572 0 2.496-1.008 2.76-1.992l-1.404-.468c-.132.456-.54.996-1.356.996s-1.512-.6-1.512-1.668.684-1.656 1.5-1.656m6.539 0c.792 0 1.164.504 1.308.996l1.428-.48c-.252-.996-1.164-1.992-2.772-1.992-1.716 0-3.06 1.308-3.06 3.132 0 1.812 1.368 3.132 3.108 3.132 1.572 0 2.496-1.008 2.76-1.992l-1.404-.468c-.132.456-.54.996-1.356.996s-1.512-.6-1.512-1.668.684-1.656 1.5-1.656m3.563 3c0 .924.768 1.776 2.028 1.776.876 0 1.44-.408 1.74-.876 0 .228.024.552.06.708h1.464a7 7 0 0 1-.072-.936v-2.904c0-1.188-.696-2.244-2.568-2.244-1.584 0-2.436 1.02-2.532 1.944l1.416.3c.048-.516.432-.96 1.128-.96.672 0 .996.348.996.768 0 .204-.108.372-.444.42l-1.452.216c-.984.144-1.764.732-1.764 1.788m2.364.588c-.516 0-.768-.336-.768-.684 0-.456.324-.684.732-.744l1.332-.204v.264c0 1.044-.625 1.368-1.296 1.368"/><path fill="#9ba1a6" d="M167.24 120.468c0 1.632.984 2.712 2.652 2.712 1.584 0 2.556-1.236 2.556-2.724v-5.964h-1.176v6.048c0 .984-.528 1.548-1.392 1.548-.852 0-1.464-.504-1.464-1.632v-.804l-1.176.264zm10.934 1.836c0 .24.024.564.048.696h1.08a10 10 0 0 1-.06-1.068v-4.704h-1.128v3.48c0 .876-.456 1.476-1.368 1.476-.948 0-1.308-.696-1.308-1.488v-3.468h-1.128v3.636c0 1.308.816 2.316 2.16 2.316.672 0 1.392-.276 1.704-.876m2.453-.804c.096.66.768 1.68 2.352 1.68 1.428 0 2.112-.972 2.112-1.788 0-.852-.552-1.488-1.596-1.716l-.936-.204c-.444-.096-.66-.348-.66-.696 0-.396.384-.768.96-.768.912 0 1.152.66 1.2.96l.996-.372c-.12-.516-.612-1.548-2.196-1.548-1.128 0-2.052.84-2.052 1.824 0 .816.54 1.428 1.44 1.62l.984.216c.48.108.744.384.744.744 0 .408-.348.768-.984.768-.816 0-1.272-.48-1.344-1.08zm7.478-6.096h-1.032v.936c0 .504-.264.888-.888.888h-.312v1.02h1.104v3.168c0 1.044.624 1.644 1.608 1.644.384 0 .672-.072.768-.108v-.96c-.096.024-.3.048-.444.048-.588 0-.804-.264-.804-.792v-3h1.248v-1.02h-1.248zm6.881 4.26c0-.876.456-1.584 1.344-1.584 1.008 0 1.344.648 1.344 1.452V123h1.128v-3.66c0-1.284-.684-2.28-2.064-2.28-.672 0-1.356.276-1.776.996v-.828h-1.104V123h1.128zm8.083 2.508c-.96 0-1.8-.72-1.8-2.064 0-1.332.84-2.052 1.8-2.052s1.8.72 1.8 2.052c0 1.344-.84 2.064-1.8 2.064m0-5.124c-1.728 0-2.952 1.308-2.952 3.06 0 1.764 1.224 3.072 2.952 3.072s2.952-1.308 2.952-3.072c0-1.752-1.224-3.06-2.952-3.06m7.53.18-1.5 4.344-1.296-4.344h-1.236l1.896 5.772h1.188l1.5-4.392 1.536 4.392h1.164l1.872-5.772h-1.188l-1.272 4.344-1.5-4.344z"/><path fill="#202425" d="M117.972 142h1.272l-3.384-8.508h-1.356L111.12 142h1.26l.9-2.376h3.768zm-2.82-7.284 1.476 3.816H113.7zm4.638 7.596c.144 1.236 1.224 2.148 2.664 2.148 2.172 0 2.892-1.428 2.892-2.892v-5.34h-1.116v.804c-.288-.576-.888-.912-1.776-.912-1.584 0-2.652 1.248-2.652 2.808 0 1.632 1.116 2.796 2.652 2.796.864 0 1.488-.42 1.764-.948v.828c0 1.248-.552 1.872-1.764 1.872-.876 0-1.488-.612-1.572-1.416zm2.832-1.536c-1.02 0-1.668-.72-1.668-1.848 0-1.116.672-1.848 1.668-1.848.972 0 1.644.732 1.644 1.848s-.672 1.848-1.644 1.848m7.73-4.608a2 2 0 0 0-.372-.036c-.588 0-1.308.216-1.728 1.104v-1.008h-1.104V142h1.128v-2.892c0-1.272.636-1.776 1.584-1.776.156 0 .324.012.492.036zm1.875 2.352c.048-.744.624-1.476 1.572-1.476 1.02 0 1.56.648 1.584 1.476zm3.324 1.5c-.216.648-.684 1.164-1.62 1.164-.972 0-1.716-.72-1.74-1.752h4.344c.012-.072.024-.216.024-.36 0-1.8-.996-3.024-2.772-3.024-1.452 0-2.76 1.236-2.76 3.048 0 1.956 1.356 3.084 2.904 3.084 1.344 0 2.268-.804 2.592-1.824zm3.18-1.5c.048-.744.624-1.476 1.572-1.476 1.02 0 1.56.648 1.584 1.476zm3.324 1.5c-.216.648-.684 1.164-1.62 1.164-.972 0-1.716-.72-1.74-1.752h4.344c.012-.072.024-.216.024-.36 0-1.8-.996-3.024-2.772-3.024-1.452 0-2.76 1.236-2.76 3.048 0 1.956 1.356 3.084 2.904 3.084 1.344 0 2.268-.804 2.592-1.824zm3.12-.924c0-1.188.672-2.028 1.704-2.028s1.656.816 1.656 2.004-.636 2.088-1.668 2.088c-1.08 0-1.692-.876-1.692-2.064m3.372 2.124c0 .348.036.648.06.78h1.092a9 9 0 0 1-.06-1.068v-7.62h-1.116v3.732c-.192-.468-.744-.972-1.764-.972-1.632 0-2.736 1.392-2.736 3.024 0 1.716 1.044 3.06 2.736 3.06.9 0 1.512-.48 1.788-1.032zm2.891.012c0 .516.36.816.804.816a.5.5 0 0 0 .264-.06c-.012.576-.408 1.164-.996 1.296v.624c.744-.096 1.776-.756 1.776-2.34 0-.756-.456-1.14-.972-1.14-.504 0-.876.372-.876.804m7.775-2.568c0-.876.456-1.584 1.344-1.584 1.008 0 1.344.648 1.344 1.452V142h1.128v-3.66c0-1.284-.684-2.28-2.064-2.28-.672 0-1.356.276-1.776.996v-.828h-1.104V142h1.128zm8.082 2.508c-.96 0-1.8-.72-1.8-2.064 0-1.332.84-2.052 1.8-2.052s1.8.72 1.8 2.052c0 1.344-.84 2.064-1.8 2.064m0-5.124c-1.728 0-2.952 1.308-2.952 3.06 0 1.764 1.224 3.072 2.952 3.072s2.952-1.308 2.952-3.072c0-1.752-1.224-3.06-2.952-3.06m8.511 8.232v-3.06c.312.516.984.936 1.872.936 1.692 0 2.688-1.332 2.688-3.048 0-1.68-.924-3.012-2.652-3.012-.936 0-1.62.456-1.932 1.032v-.9h-1.092v8.052zm3.408-5.172c0 1.188-.66 2.04-1.704 2.04-1.032 0-1.716-.852-1.716-2.04 0-1.152.684-2.016 1.716-2.016 1.056 0 1.704.864 1.704 2.016m5.794-2.94a2 2 0 0 0-.372-.036c-.588 0-1.308.216-1.728 1.104v-1.008h-1.104V142h1.128v-2.892c0-1.272.636-1.776 1.584-1.776.156 0 .324.012.492.036zm3.615 5.004c-.96 0-1.8-.72-1.8-2.064 0-1.332.84-2.052 1.8-2.052s1.8.72 1.8 2.052c0 1.344-.84 2.064-1.8 2.064m0-5.124c-1.728 0-2.952 1.308-2.952 3.06 0 1.764 1.224 3.072 2.952 3.072s2.952-1.308 2.952-3.072c0-1.752-1.224-3.06-2.952-3.06m5.512 5.952v-.84c.36.624 1.02.996 1.872.996 1.716 0 2.688-1.356 2.688-3.072 0-1.68-.9-3.024-2.652-3.024-.96 0-1.632.468-1.908.984v-3.732h-1.116V142zm3.408-2.916c0 1.248-.672 2.064-1.704 2.064-.996 0-1.716-.816-1.716-2.064s.72-2.028 1.716-2.028c1.044 0 1.704.78 1.704 2.028M201.26 142v-8.688h-1.128V142zm2.651-3.48c.048-.744.624-1.476 1.572-1.476 1.02 0 1.56.648 1.584 1.476zm3.324 1.5c-.216.648-.684 1.164-1.62 1.164-.972 0-1.716-.72-1.74-1.752h4.344c.012-.072.024-.216.024-.36 0-1.8-.996-3.024-2.772-3.024-1.452 0-2.76 1.236-2.76 3.048 0 1.956 1.356 3.084 2.904 3.084 1.344 0 2.268-.804 2.592-1.824zm3.564 1.98v-3.48c0-.864.54-1.464 1.344-1.464.864 0 1.224.576 1.224 1.32V142h1.128v-3.492c0-.828.54-1.452 1.332-1.452.852 0 1.224.564 1.224 1.32V142h1.116v-3.744c0-1.512-.984-2.196-1.992-2.196-.732 0-1.476.264-1.932 1.092-.312-.744-1.008-1.092-1.728-1.092-.672 0-1.392.3-1.752.936v-.768h-1.08V142zm10.781-8.508h-1.416l.312 6.072h.804zm-1.488 7.788c0 .432.348.78.78.78a.79.79 0 0 0 .792-.78.8.8 0 0 0-.792-.792c-.432 0-.78.36-.78.792"/><rect width="239" height="32" x="62" y="161.5" fill="#d7dbdf" stroke="#eceef0" rx="4.5"/><path fill="#9ba1a6" d="M85.004 175.424c-.192-.924-.96-2.112-2.88-2.112-1.572 0-2.808 1.2-2.808 2.532 0 1.272.864 2.064 2.076 2.328l1.212.264c.852.18 1.272.708 1.272 1.32 0 .744-.576 1.356-1.752 1.356-1.284 0-1.956-.876-2.04-1.824l-1.128.36c.156 1.212 1.128 2.532 3.18 2.532 1.812 0 2.94-1.2 2.94-2.52 0-1.188-.792-2.076-2.208-2.388l-1.272-.276c-.72-.156-1.092-.624-1.092-1.236 0-.792.684-1.416 1.644-1.416 1.188 0 1.704.84 1.8 1.452zm2.184 3.096c.048-.744.624-1.476 1.572-1.476 1.02 0 1.56.648 1.584 1.476zm3.324 1.5c-.216.648-.684 1.164-1.62 1.164-.972 0-1.716-.72-1.74-1.752h4.344c.012-.072.024-.216.024-.36 0-1.8-.996-3.024-2.772-3.024-1.452 0-2.76 1.236-2.76 3.048 0 1.956 1.356 3.084 2.904 3.084 1.344 0 2.268-.804 2.592-1.824zm3.576-1.356c0-.876.456-1.584 1.344-1.584 1.008 0 1.344.648 1.344 1.452V182h1.128v-3.66c0-1.284-.684-2.28-2.064-2.28-.672 0-1.356.276-1.776.996v-.828H92.96V182h1.128zm6.282.432c0-1.188.672-2.028 1.704-2.028s1.656.816 1.656 2.004-.636 2.088-1.668 2.088c-1.08 0-1.692-.876-1.692-2.064m3.372 2.124c0 .348.036.648.06.78h1.092a9 9 0 0 1-.06-1.068v-7.62h-1.116v3.732c-.192-.468-.744-.972-1.764-.972-1.632 0-2.736 1.392-2.736 3.024 0 1.716 1.044 3.06 2.736 3.06.9 0 1.512-.48 1.788-1.032zm5.651-.768c0 .912.756 1.728 1.932 1.728 1.032 0 1.608-.552 1.86-.96 0 .42.036.636.06.78h1.104a5.4 5.4 0 0 1-.072-.948v-2.892c0-1.128-.672-2.112-2.4-2.112-1.248 0-2.244.768-2.364 1.872l1.08.252c.072-.672.516-1.164 1.308-1.164.876 0 1.248.468 1.248 1.032 0 .204-.096.384-.444.432l-1.56.228c-.996.144-1.752.72-1.752 1.752m2.088.78c-.576 0-.936-.408-.936-.84 0-.516.36-.792.84-.864l1.764-.264v.264c0 1.26-.744 1.704-1.668 1.704m8.669.768v-3.48c0-.864.54-1.464 1.344-1.464.864 0 1.224.576 1.224 1.32V182h1.128v-3.492c0-.828.54-1.452 1.332-1.452.852 0 1.224.564 1.224 1.32V182h1.116v-3.744c0-1.512-.984-2.196-1.992-2.196-.732 0-1.476.264-1.932 1.092-.312-.744-1.008-1.092-1.728-1.092-.672 0-1.392.3-1.752.936v-.768h-1.08V182zm9.905-3.48c.048-.744.624-1.476 1.572-1.476 1.02 0 1.56.648 1.584 1.476zm3.324 1.5c-.216.648-.684 1.164-1.62 1.164-.972 0-1.716-.72-1.74-1.752h4.344c.012-.072.024-.216.024-.36 0-1.8-.996-3.024-2.772-3.024-1.452 0-2.76 1.236-2.76 3.048 0 1.956 1.356 3.084 2.904 3.084 1.344 0 2.268-.804 2.592-1.824zm1.908.48c.096.66.768 1.68 2.352 1.68 1.428 0 2.112-.972 2.112-1.788 0-.852-.552-1.488-1.596-1.716l-.936-.204c-.444-.096-.66-.348-.66-.696 0-.396.384-.768.96-.768.912 0 1.152.66 1.2.96l.996-.372c-.12-.516-.612-1.548-2.196-1.548-1.128 0-2.052.84-2.052 1.824 0 .816.54 1.428 1.44 1.62l.984.216c.48.108.744.384.744.744 0 .408-.348.768-.984.768-.816 0-1.272-.48-1.344-1.08zm5.426 0c.096.66.768 1.68 2.352 1.68 1.428 0 2.112-.972 2.112-1.788 0-.852-.552-1.488-1.596-1.716l-.936-.204c-.444-.096-.66-.348-.66-.696 0-.396.384-.768.96-.768.912 0 1.152.66 1.2.96l.996-.372c-.12-.516-.612-1.548-2.196-1.548-1.128 0-2.052.84-2.052 1.824 0 .816.54 1.428 1.44 1.62l.984.216c.48.108.744.384.744.744 0 .408-.348.768-.984.768-.816 0-1.272-.48-1.344-1.08zm5.489-.048c0 .912.756 1.728 1.932 1.728 1.032 0 1.608-.552 1.86-.96 0 .42.036.636.06.78h1.104a5.4 5.4 0 0 1-.072-.948v-2.892c0-1.128-.672-2.112-2.4-2.112-1.248 0-2.244.768-2.364 1.872l1.08.252c.072-.672.516-1.164 1.308-1.164.876 0 1.248.468 1.248 1.032 0 .204-.096.384-.444.432l-1.56.228c-.996.144-1.752.72-1.752 1.752m2.088.78c-.576 0-.936-.408-.936-.84 0-.516.36-.792.84-.864l1.764-.264v.264c0 1.26-.744 1.704-1.668 1.704m4.133 1.08c.144 1.236 1.224 2.148 2.664 2.148 2.172 0 2.892-1.428 2.892-2.892v-5.34h-1.116v.804c-.288-.576-.888-.912-1.776-.912-1.584 0-2.652 1.248-2.652 2.808 0 1.632 1.116 2.796 2.652 2.796.864 0 1.488-.42 1.764-.948v.828c0 1.248-.552 1.872-1.764 1.872-.876 0-1.488-.612-1.572-1.416zm2.832-1.536c-1.02 0-1.668-.72-1.668-1.848 0-1.116.672-1.848 1.668-1.848.972 0 1.644.732 1.644 1.848s-.672 1.848-1.644 1.848m5.257-2.256c.048-.744.624-1.476 1.572-1.476 1.02 0 1.56.648 1.584 1.476zm3.324 1.5c-.216.648-.684 1.164-1.62 1.164-.972 0-1.716-.72-1.74-1.752h4.344c.012-.072.024-.216.024-.36 0-1.8-.996-3.024-2.772-3.024-1.452 0-2.76 1.236-2.76 3.048 0 1.956 1.356 3.084 2.904 3.084 1.344 0 2.268-.804 2.592-1.824z"/></g><defs><clipPath id="a"><path fill="#fff" d="M.5 0h360v210H.5z"/></clipPath></defs></svg>