<svg width="361" height="210" viewBox="0 0 361 210" fill="none" xmlns="http://www.w3.org/2000/svg">
<g clip-path="url(#clip0_931_17663)">
<rect x="45" y="18.5" width="270" height="216" rx="7.76794" fill="white" stroke="#ECEEF0"/>
<circle cx="80.5" cy="54" r="19" fill="#ECEEF0"/>
<path d="M84.8022 60V58.176H78.3542L84.7222 50.48V48.656H76.1302V50.464H82.2422L75.9542 58.112V60H84.8022Z" fill="#9BA1A6"/>
<path d="M116.664 47V45.416H112.104L116.604 40.04V38.492H110.124V40.064H114.396L109.968 45.392V47H116.664ZM120.586 45.728C119.806 45.728 119.086 45.152 119.086 44.048C119.086 42.932 119.806 42.368 120.586 42.368C121.366 42.368 122.086 42.932 122.086 44.048C122.086 45.164 121.366 45.728 120.586 45.728ZM120.586 40.916C118.822 40.916 117.49 42.224 117.49 44.048C117.49 45.86 118.822 47.18 120.586 47.18C122.35 47.18 123.682 45.86 123.682 44.048C123.682 42.224 122.35 40.916 120.586 40.916ZM126.106 43.376C126.142 42.836 126.598 42.212 127.426 42.212C128.338 42.212 128.722 42.788 128.746 43.376H126.106ZM128.902 44.912C128.71 45.44 128.302 45.812 127.558 45.812C126.766 45.812 126.106 45.248 126.07 44.468H130.294C130.294 44.444 130.318 44.204 130.318 43.976C130.318 42.08 129.226 40.916 127.402 40.916C125.89 40.916 124.498 42.14 124.498 44.024C124.498 46.016 125.926 47.18 127.546 47.18C128.998 47.18 129.934 46.328 130.234 45.308L128.902 44.912Z" fill="#202425"/>
<path d="M141.192 42.02C141.18 41.9 141.168 41.78 141.168 41.672C141.168 40.784 141.648 40.076 142.668 40.076C143.652 40.076 144.132 40.736 144.132 41.444C144.132 42.044 143.796 42.596 143.064 43.064L141.768 43.904C140.448 44.756 139.944 45.728 139.92 47H145.368V45.908H141.372C141.48 45.428 141.876 45.104 142.32 44.816L143.856 43.832C144.744 43.268 145.32 42.452 145.32 41.432C145.32 40.136 144.36 39.044 142.692 39.044C140.988 39.044 140.004 40.232 140.004 41.564C140.004 41.66 140.004 41.768 140.016 41.876L141.192 42.02ZM150.928 47V43.52C150.928 42.656 151.468 42.056 152.272 42.056C153.136 42.056 153.496 42.632 153.496 43.376V47H154.624V43.508C154.624 42.68 155.164 42.056 155.956 42.056C156.808 42.056 157.18 42.62 157.18 43.376V47H158.296V43.256C158.296 41.744 157.312 41.06 156.304 41.06C155.572 41.06 154.828 41.324 154.372 42.152C154.06 41.408 153.364 41.06 152.644 41.06C151.972 41.06 151.252 41.36 150.892 41.996V41.228H149.812V47H150.928ZM161.217 47V41.228H160.101V47H161.217ZM159.849 39.044C159.849 39.488 160.209 39.848 160.653 39.848C161.109 39.848 161.469 39.488 161.469 39.044C161.469 38.588 161.109 38.228 160.653 38.228C160.209 38.228 159.849 38.588 159.849 39.044ZM164.264 43.664C164.264 42.788 164.72 42.08 165.608 42.08C166.616 42.08 166.952 42.728 166.952 43.532V47H168.08V43.34C168.08 42.056 167.396 41.06 166.016 41.06C165.344 41.06 164.66 41.336 164.24 42.056V41.228H163.136V47H164.264V43.664ZM173.561 46.304C173.561 46.544 173.585 46.868 173.609 47H174.689C174.665 46.796 174.629 46.388 174.629 45.932V41.228H173.501V44.708C173.501 45.584 173.045 46.184 172.133 46.184C171.185 46.184 170.825 45.488 170.825 44.696V41.228H169.697V44.864C169.697 46.172 170.513 47.18 171.857 47.18C172.529 47.18 173.249 46.904 173.561 46.304ZM178.066 39.404H177.034V40.34C177.034 40.844 176.77 41.228 176.146 41.228H175.834V42.248H176.938V45.416C176.938 46.46 177.562 47.06 178.546 47.06C178.93 47.06 179.218 46.988 179.314 46.952V45.992C179.218 46.016 179.014 46.04 178.87 46.04C178.282 46.04 178.066 45.776 178.066 45.248V42.248H179.314V41.228H178.066V39.404ZM181.493 43.52C181.541 42.776 182.117 42.044 183.065 42.044C184.085 42.044 184.625 42.692 184.649 43.52H181.493ZM184.817 45.02C184.601 45.668 184.133 46.184 183.197 46.184C182.225 46.184 181.481 45.464 181.457 44.432H185.801C185.813 44.36 185.825 44.216 185.825 44.072C185.825 42.272 184.829 41.048 183.053 41.048C181.601 41.048 180.293 42.284 180.293 44.096C180.293 46.052 181.649 47.18 183.197 47.18C184.541 47.18 185.465 46.376 185.789 45.356L184.817 45.02ZM186.725 45.5C186.821 46.16 187.493 47.18 189.077 47.18C190.505 47.18 191.189 46.208 191.189 45.392C191.189 44.54 190.637 43.904 189.593 43.676L188.657 43.472C188.213 43.376 187.997 43.124 187.997 42.776C187.997 42.38 188.381 42.008 188.957 42.008C189.869 42.008 190.109 42.668 190.157 42.968L191.153 42.596C191.033 42.08 190.541 41.048 188.957 41.048C187.829 41.048 186.905 41.888 186.905 42.872C186.905 43.688 187.445 44.3 188.345 44.492L189.329 44.708C189.809 44.816 190.073 45.092 190.073 45.452C190.073 45.86 189.725 46.22 189.089 46.22C188.273 46.22 187.817 45.74 187.745 45.14L186.725 45.5ZM195.33 45.452C195.33 46.364 196.086 47.18 197.262 47.18C198.294 47.18 198.87 46.628 199.122 46.22C199.122 46.64 199.158 46.856 199.182 47H200.286C200.262 46.856 200.214 46.556 200.214 46.052V43.16C200.214 42.032 199.542 41.048 197.814 41.048C196.566 41.048 195.57 41.816 195.45 42.92L196.53 43.172C196.602 42.5 197.046 42.008 197.838 42.008C198.714 42.008 199.086 42.476 199.086 43.04C199.086 43.244 198.99 43.424 198.642 43.472L197.082 43.7C196.086 43.844 195.33 44.42 195.33 45.452ZM197.418 46.232C196.842 46.232 196.482 45.824 196.482 45.392C196.482 44.876 196.842 44.6 197.322 44.528L199.086 44.264V44.528C199.086 45.788 198.342 46.232 197.418 46.232ZM201.552 47.312C201.696 48.548 202.776 49.46 204.216 49.46C206.388 49.46 207.108 48.032 207.108 46.568V41.228H205.992V42.032C205.704 41.456 205.104 41.12 204.216 41.12C202.632 41.12 201.564 42.368 201.564 43.928C201.564 45.56 202.68 46.724 204.216 46.724C205.08 46.724 205.704 46.304 205.98 45.776V46.604C205.98 47.852 205.428 48.476 204.216 48.476C203.34 48.476 202.728 47.864 202.644 47.06L201.552 47.312ZM204.384 45.776C203.364 45.776 202.716 45.056 202.716 43.928C202.716 42.812 203.388 42.08 204.384 42.08C205.356 42.08 206.028 42.812 206.028 43.928C206.028 45.044 205.356 45.776 204.384 45.776ZM211.381 46.172C210.421 46.172 209.581 45.452 209.581 44.108C209.581 42.776 210.421 42.056 211.381 42.056C212.341 42.056 213.181 42.776 213.181 44.108C213.181 45.452 212.341 46.172 211.381 46.172ZM211.381 41.048C209.653 41.048 208.429 42.356 208.429 44.108C208.429 45.872 209.653 47.18 211.381 47.18C213.109 47.18 214.333 45.872 214.333 44.108C214.333 42.356 213.109 41.048 211.381 41.048Z" fill="#9BA1A6"/>
<path d="M114.984 66H116.352L114.324 62.436C115.608 62.196 116.388 61.248 116.388 60.024C116.388 58.62 115.392 57.492 113.784 57.492H110.58V66H111.768V62.52H113.04L114.984 66ZM111.768 61.464V58.548H113.568C114.528 58.548 115.176 59.124 115.176 60.024C115.176 60.9 114.528 61.464 113.568 61.464H111.768ZM118.387 62.52C118.435 61.776 119.011 61.044 119.959 61.044C120.979 61.044 121.519 61.692 121.543 62.52H118.387ZM121.711 64.02C121.495 64.668 121.027 65.184 120.091 65.184C119.119 65.184 118.375 64.464 118.351 63.432H122.695C122.707 63.36 122.719 63.216 122.719 63.072C122.719 61.272 121.723 60.048 119.947 60.048C118.495 60.048 117.187 61.284 117.187 63.096C117.187 65.052 118.543 66.18 120.091 66.18C121.435 66.18 122.359 65.376 122.683 64.356L121.711 64.02ZM123.799 64.452C123.799 65.364 124.555 66.18 125.731 66.18C126.763 66.18 127.339 65.628 127.591 65.22C127.591 65.64 127.627 65.856 127.651 66H128.755C128.731 65.856 128.683 65.556 128.683 65.052V62.16C128.683 61.032 128.011 60.048 126.283 60.048C125.035 60.048 124.039 60.816 123.919 61.92L124.999 62.172C125.071 61.5 125.515 61.008 126.307 61.008C127.183 61.008 127.555 61.476 127.555 62.04C127.555 62.244 127.459 62.424 127.111 62.472L125.551 62.7C124.555 62.844 123.799 63.42 123.799 64.452ZM125.887 65.232C125.311 65.232 124.951 64.824 124.951 64.392C124.951 63.876 125.311 63.6 125.791 63.528L127.555 63.264V63.528C127.555 64.788 126.811 65.232 125.887 65.232ZM131.568 66V57.312H130.44V66H131.568ZM134.615 66V57.312H133.487V66H134.615ZM137.974 68.412L141.73 60.228H140.518L138.79 64.212L136.99 60.228H135.694L138.178 65.364L136.738 68.412H137.974ZM145.395 66.312C145.539 67.548 146.619 68.46 148.059 68.46C150.231 68.46 150.951 67.032 150.951 65.568V60.228H149.835V61.032C149.547 60.456 148.947 60.12 148.059 60.12C146.475 60.12 145.407 61.368 145.407 62.928C145.407 64.56 146.523 65.724 148.059 65.724C148.923 65.724 149.547 65.304 149.823 64.776V65.604C149.823 66.852 149.271 67.476 148.059 67.476C147.183 67.476 146.571 66.864 146.487 66.06L145.395 66.312ZM148.227 64.776C147.207 64.776 146.559 64.056 146.559 62.928C146.559 61.812 147.231 61.08 148.227 61.08C149.199 61.08 149.871 61.812 149.871 62.928C149.871 64.044 149.199 64.776 148.227 64.776ZM155.225 65.172C154.265 65.172 153.425 64.452 153.425 63.108C153.425 61.776 154.265 61.056 155.225 61.056C156.185 61.056 157.025 61.776 157.025 63.108C157.025 64.452 156.185 65.172 155.225 65.172ZM155.225 60.048C153.497 60.048 152.273 61.356 152.273 63.108C152.273 64.872 153.497 66.18 155.225 66.18C156.953 66.18 158.177 64.872 158.177 63.108C158.177 61.356 156.953 60.048 155.225 60.048ZM162.092 65.172C161.132 65.172 160.292 64.452 160.292 63.108C160.292 61.776 161.132 61.056 162.092 61.056C163.052 61.056 163.892 61.776 163.892 63.108C163.892 64.452 163.052 65.172 162.092 65.172ZM162.092 60.048C160.364 60.048 159.14 61.356 159.14 63.108C159.14 64.872 160.364 66.18 162.092 66.18C163.82 66.18 165.044 64.872 165.044 63.108C165.044 61.356 163.82 60.048 162.092 60.048ZM167.159 63.096C167.159 61.908 167.831 61.068 168.863 61.068C169.895 61.068 170.519 61.884 170.519 63.072C170.519 64.26 169.883 65.16 168.851 65.16C167.771 65.16 167.159 64.284 167.159 63.096ZM170.531 65.22C170.531 65.568 170.567 65.868 170.591 66H171.683C171.671 65.904 171.623 65.484 171.623 64.932V57.312H170.507V61.044C170.315 60.576 169.763 60.072 168.743 60.072C167.111 60.072 166.007 61.464 166.007 63.096C166.007 64.812 167.051 66.156 168.743 66.156C169.643 66.156 170.255 65.676 170.531 65.124V65.22ZM179.446 61.248V60.228H178.054V59.316C178.054 58.524 178.57 58.332 178.966 58.332C179.254 58.332 179.398 58.38 179.458 58.404V57.396C179.41 57.36 179.17 57.276 178.786 57.276C177.742 57.276 176.89 57.972 176.89 59.256V60.228H175.822V61.248H176.89V66H178.054V61.248H179.446ZM181.153 62.52C181.201 61.776 181.777 61.044 182.725 61.044C183.745 61.044 184.285 61.692 184.309 62.52H181.153ZM184.477 64.02C184.261 64.668 183.793 65.184 182.857 65.184C181.885 65.184 181.141 64.464 181.117 63.432H185.461C185.473 63.36 185.485 63.216 185.485 63.072C185.485 61.272 184.489 60.048 182.713 60.048C181.261 60.048 179.953 61.284 179.953 63.096C179.953 65.052 181.309 66.18 182.857 66.18C184.201 66.18 185.125 65.376 185.449 64.356L184.477 64.02ZM187.657 62.52C187.705 61.776 188.281 61.044 189.229 61.044C190.249 61.044 190.789 61.692 190.813 62.52H187.657ZM190.981 64.02C190.765 64.668 190.297 65.184 189.361 65.184C188.389 65.184 187.645 64.464 187.621 63.432H191.965C191.977 63.36 191.989 63.216 191.989 63.072C191.989 61.272 190.993 60.048 189.217 60.048C187.765 60.048 186.457 61.284 186.457 63.096C186.457 65.052 187.813 66.18 189.361 66.18C190.705 66.18 191.629 65.376 191.953 64.356L190.981 64.02ZM194.101 63.096C194.101 61.908 194.773 61.068 195.805 61.068C196.837 61.068 197.461 61.884 197.461 63.072C197.461 64.26 196.825 65.16 195.793 65.16C194.713 65.16 194.101 64.284 194.101 63.096ZM197.473 65.22C197.473 65.568 197.509 65.868 197.533 66H198.625C198.613 65.904 198.565 65.484 198.565 64.932V57.312H197.449V61.044C197.257 60.576 196.705 60.072 195.685 60.072C194.053 60.072 192.949 61.464 192.949 63.096C192.949 64.812 193.993 66.156 195.685 66.156C196.585 66.156 197.197 65.676 197.473 65.124V65.22ZM201.599 66V65.16C201.959 65.784 202.619 66.156 203.471 66.156C205.187 66.156 206.159 64.8 206.159 63.084C206.159 61.404 205.259 60.06 203.507 60.06C202.547 60.06 201.875 60.528 201.599 61.044V57.312H200.483V66H201.599ZM205.007 63.084C205.007 64.332 204.335 65.148 203.303 65.148C202.307 65.148 201.587 64.332 201.587 63.084C201.587 61.836 202.307 61.056 203.303 61.056C204.347 61.056 205.007 61.836 205.007 63.084ZM207.237 64.452C207.237 65.364 207.993 66.18 209.169 66.18C210.201 66.18 210.777 65.628 211.029 65.22C211.029 65.64 211.065 65.856 211.089 66H212.193C212.169 65.856 212.121 65.556 212.121 65.052V62.16C212.121 61.032 211.449 60.048 209.721 60.048C208.473 60.048 207.477 60.816 207.357 61.92L208.437 62.172C208.509 61.5 208.953 61.008 209.745 61.008C210.621 61.008 210.993 61.476 210.993 62.04C210.993 62.244 210.897 62.424 210.549 62.472L208.989 62.7C207.993 62.844 207.237 63.42 207.237 64.452ZM209.325 65.232C208.749 65.232 208.389 64.824 208.389 64.392C208.389 63.876 208.749 63.6 209.229 63.528L210.993 63.264V63.528C210.993 64.788 210.249 65.232 209.325 65.232ZM216.302 61.092C217.286 61.092 217.706 61.752 217.85 62.316L218.87 61.884C218.63 61.008 217.838 60.048 216.302 60.048C214.658 60.048 213.398 61.308 213.398 63.108C213.398 64.86 214.634 66.18 216.314 66.18C217.814 66.18 218.642 65.208 218.918 64.38L217.922 63.948C217.79 64.404 217.394 65.136 216.314 65.136C215.378 65.136 214.55 64.428 214.55 63.108C214.55 61.764 215.39 61.092 216.302 61.092ZM225.413 60.228H223.853L221.357 62.784V57.312H220.241V66H221.357V64.26L222.161 63.456L224.045 66H225.461L222.953 62.664L225.413 60.228ZM231.034 66V60.096H229.438V66H231.034ZM229.246 58.164C229.246 58.692 229.69 59.136 230.23 59.136C230.782 59.136 231.214 58.692 231.214 58.164C231.214 57.612 230.782 57.168 230.23 57.168C229.69 57.168 229.246 57.612 229.246 58.164ZM234.339 62.604C234.339 61.92 234.747 61.38 235.443 61.38C236.211 61.38 236.535 61.896 236.535 62.556V66H238.131V62.28C238.131 60.984 237.459 59.94 235.995 59.94C235.359 59.94 234.651 60.216 234.291 60.828V60.096H232.743V66H234.339V62.604ZM244.311 62.532C244.347 61.884 244.743 61.38 245.415 61.38C246.183 61.38 246.507 61.896 246.507 62.556V66H248.103V62.28C248.103 60.984 247.407 59.94 245.907 59.94C245.343 59.94 244.695 60.132 244.311 60.588V57.312H242.715V66H244.311V62.532ZM250.887 62.376C250.923 61.836 251.379 61.212 252.207 61.212C253.119 61.212 253.503 61.788 253.527 62.376H250.887ZM253.683 63.912C253.491 64.44 253.083 64.812 252.339 64.812C251.547 64.812 250.887 64.248 250.851 63.468H255.075C255.075 63.444 255.099 63.204 255.099 62.976C255.099 61.08 254.007 59.916 252.183 59.916C250.671 59.916 249.279 61.14 249.279 63.024C249.279 65.016 250.707 66.18 252.327 66.18C253.779 66.18 254.715 65.328 255.015 64.308L253.683 63.912ZM259.956 60.072C259.836 60.06 259.716 60.048 259.584 60.048C259.08 60.048 258.264 60.192 257.904 60.972V60.096H256.356V66H257.952V63.3C257.952 62.028 258.66 61.632 259.476 61.632C259.62 61.632 259.776 61.644 259.956 61.68V60.072ZM262.184 62.376C262.22 61.836 262.676 61.212 263.504 61.212C264.416 61.212 264.8 61.788 264.824 62.376H262.184ZM264.98 63.912C264.788 64.44 264.38 64.812 263.636 64.812C262.844 64.812 262.184 64.248 262.148 63.468H266.372C266.372 63.444 266.396 63.204 266.396 62.976C266.396 61.08 265.304 59.916 263.48 59.916C261.968 59.916 260.576 61.14 260.576 63.024C260.576 65.016 262.004 66.18 263.624 66.18C265.076 66.18 266.012 65.328 266.312 64.308L264.98 63.912ZM267.641 65.232C267.641 65.7 268.001 66.06 268.469 66.06C268.937 66.06 269.309 65.7 269.309 65.232C269.309 64.764 268.937 64.392 268.469 64.392C268.001 64.392 267.641 64.764 267.641 65.232ZM116.712 79.356C117.96 79.356 118.992 78.024 118.992 76.236C118.992 73.992 117.132 72.312 114.696 72.312C112.164 72.312 110.04 74.22 110.04 77.004C110.04 79.728 112.032 81.564 114.84 81.564C115.872 81.564 117.096 81.156 117.792 80.496L117.3 79.848C116.58 80.424 115.716 80.688 114.84 80.688C112.44 80.688 111.024 79.116 111.024 77.016C111.024 74.724 112.596 73.188 114.708 73.188C116.736 73.188 118.068 74.496 118.068 76.248C118.068 77.448 117.444 78.528 116.772 78.528C116.436 78.528 116.316 78.312 116.316 78.036C116.316 77.928 116.328 77.82 116.352 77.7L117 74.688H116.052L115.944 75.324C115.764 74.784 115.164 74.532 114.66 74.532C113.364 74.532 112.26 75.72 112.26 77.328C112.26 78.564 113.016 79.38 114.096 79.38C114.612 79.38 115.164 79.104 115.524 78.588C115.656 79.116 116.148 79.356 116.712 79.356ZM115.68 76.56C115.644 77.688 115.08 78.504 114.264 78.504C113.484 78.504 113.244 77.928 113.244 77.196C113.244 76.308 113.808 75.432 114.672 75.432C115.32 75.432 115.68 75.852 115.68 76.56ZM124.898 81H126.266L124.238 77.436C125.522 77.196 126.302 76.248 126.302 75.024C126.302 73.62 125.306 72.492 123.698 72.492H120.494V81H121.682V77.52H122.954L124.898 81ZM121.682 76.464V73.548H123.482C124.442 73.548 125.09 74.124 125.09 75.024C125.09 75.9 124.442 76.464 123.482 76.464H121.682ZM128.301 77.52C128.349 76.776 128.925 76.044 129.873 76.044C130.893 76.044 131.433 76.692 131.457 77.52H128.301ZM131.625 79.02C131.409 79.668 130.941 80.184 130.005 80.184C129.033 80.184 128.289 79.464 128.265 78.432H132.609C132.621 78.36 132.633 78.216 132.633 78.072C132.633 76.272 131.637 75.048 129.861 75.048C128.409 75.048 127.101 76.284 127.101 78.096C127.101 80.052 128.457 81.18 130.005 81.18C131.349 81.18 132.273 80.376 132.597 79.356L131.625 79.02ZM135.189 81V80.16C135.549 80.784 136.209 81.156 137.061 81.156C138.777 81.156 139.749 79.8 139.749 78.084C139.749 76.404 138.849 75.06 137.097 75.06C136.137 75.06 135.465 75.528 135.189 76.044V72.312H134.073V81H135.189ZM138.597 78.084C138.597 79.332 137.925 80.148 136.893 80.148C135.897 80.148 135.177 79.332 135.177 78.084C135.177 76.836 135.897 76.056 136.893 76.056C137.937 76.056 138.597 76.836 138.597 78.084ZM141.919 77.52C141.967 76.776 142.543 76.044 143.491 76.044C144.511 76.044 145.051 76.692 145.075 77.52H141.919ZM145.243 79.02C145.027 79.668 144.559 80.184 143.623 80.184C142.651 80.184 141.907 79.464 141.883 78.432H146.227C146.239 78.36 146.251 78.216 146.251 78.072C146.251 76.272 145.255 75.048 143.479 75.048C142.027 75.048 140.719 76.284 140.719 78.096C140.719 80.052 142.075 81.18 143.623 81.18C144.967 81.18 145.891 80.376 146.215 79.356L145.243 79.02ZM150.114 76.092C151.098 76.092 151.518 76.752 151.662 77.316L152.682 76.884C152.442 76.008 151.65 75.048 150.114 75.048C148.47 75.048 147.21 76.308 147.21 78.108C147.21 79.86 148.446 81.18 150.126 81.18C151.626 81.18 152.454 80.208 152.73 79.38L151.734 78.948C151.602 79.404 151.206 80.136 150.126 80.136C149.19 80.136 148.362 79.428 148.362 78.108C148.362 76.764 149.202 76.092 150.114 76.092ZM156.419 76.092C157.403 76.092 157.823 76.752 157.967 77.316L158.987 76.884C158.747 76.008 157.955 75.048 156.419 75.048C154.775 75.048 153.515 76.308 153.515 78.108C153.515 79.86 154.751 81.18 156.431 81.18C157.931 81.18 158.759 80.208 159.035 79.38L158.039 78.948C157.907 79.404 157.511 80.136 156.431 80.136C155.495 80.136 154.667 79.428 154.667 78.108C154.667 76.764 155.507 76.092 156.419 76.092ZM159.94 79.452C159.94 80.364 160.696 81.18 161.872 81.18C162.904 81.18 163.48 80.628 163.732 80.22C163.732 80.64 163.768 80.856 163.792 81H164.896C164.872 80.856 164.824 80.556 164.824 80.052V77.16C164.824 76.032 164.152 75.048 162.424 75.048C161.176 75.048 160.18 75.816 160.06 76.92L161.14 77.172C161.212 76.5 161.656 76.008 162.448 76.008C163.324 76.008 163.696 76.476 163.696 77.04C163.696 77.244 163.6 77.424 163.252 77.472L161.692 77.7C160.696 77.844 159.94 78.42 159.94 79.452ZM162.028 80.232C161.452 80.232 161.092 79.824 161.092 79.392C161.092 78.876 161.452 78.6 161.932 78.528L163.696 78.264V78.528C163.696 79.788 162.952 80.232 162.028 80.232ZM171.093 73.404H170.061V74.34C170.061 74.844 169.797 75.228 169.173 75.228H168.861V76.248H169.965V79.416C169.965 80.46 170.589 81.06 171.573 81.06C171.957 81.06 172.245 80.988 172.341 80.952V79.992C172.245 80.016 172.041 80.04 171.897 80.04C171.309 80.04 171.093 79.776 171.093 79.248V76.248H172.341V75.228H171.093V73.404ZM174.975 77.604C174.999 76.752 175.455 76.08 176.319 76.08C177.327 76.08 177.663 76.728 177.663 77.532V81H178.791V77.34C178.791 76.056 178.107 75.06 176.727 75.06C176.067 75.06 175.395 75.288 174.975 75.9V72.312H173.847V81H174.975V77.604ZM180.225 79.452C180.225 80.364 180.981 81.18 182.157 81.18C183.189 81.18 183.765 80.628 184.017 80.22C184.017 80.64 184.053 80.856 184.077 81H185.181C185.157 80.856 185.109 80.556 185.109 80.052V77.16C185.109 76.032 184.437 75.048 182.709 75.048C181.461 75.048 180.465 75.816 180.345 76.92L181.425 77.172C181.497 76.5 181.941 76.008 182.733 76.008C183.609 76.008 183.981 76.476 183.981 77.04C183.981 77.244 183.885 77.424 183.537 77.472L181.977 77.7C180.981 77.844 180.225 78.42 180.225 79.452ZM182.313 80.232C181.737 80.232 181.377 79.824 181.377 79.392C181.377 78.876 181.737 78.6 182.217 78.528L183.981 78.264V78.528C183.981 79.788 183.237 80.232 182.313 80.232ZM187.994 77.664C187.994 76.788 188.45 76.08 189.338 76.08C190.346 76.08 190.682 76.728 190.682 77.532V81H191.81V77.34C191.81 76.056 191.126 75.06 189.746 75.06C189.074 75.06 188.39 75.336 187.97 76.056V75.228H186.866V81H187.994V77.664ZM198.777 75.228H197.217L194.721 77.784V72.312H193.605V81H194.721V79.26L195.525 78.456L197.409 81H198.825L196.317 77.664L198.777 75.228ZM199.369 79.5C199.465 80.16 200.137 81.18 201.721 81.18C203.149 81.18 203.833 80.208 203.833 79.392C203.833 78.54 203.281 77.904 202.237 77.676L201.301 77.472C200.857 77.376 200.641 77.124 200.641 76.776C200.641 76.38 201.025 76.008 201.601 76.008C202.513 76.008 202.753 76.668 202.801 76.968L203.797 76.596C203.677 76.08 203.185 75.048 201.601 75.048C200.473 75.048 199.549 75.888 199.549 76.872C199.549 77.688 200.089 78.3 200.989 78.492L201.973 78.708C202.453 78.816 202.717 79.092 202.717 79.452C202.717 79.86 202.369 80.22 201.733 80.22C200.917 80.22 200.461 79.74 200.389 79.14L199.369 79.5ZM211.239 76.248V75.228H209.847V74.316C209.847 73.524 210.363 73.332 210.759 73.332C211.047 73.332 211.191 73.38 211.251 73.404V72.396C211.203 72.36 210.963 72.276 210.579 72.276C209.535 72.276 208.683 72.972 208.683 74.256V75.228H207.615V76.248H208.683V81H209.847V76.248H211.239ZM214.686 80.172C213.726 80.172 212.886 79.452 212.886 78.108C212.886 76.776 213.726 76.056 214.686 76.056C215.646 76.056 216.486 76.776 216.486 78.108C216.486 79.452 215.646 80.172 214.686 80.172ZM214.686 75.048C212.958 75.048 211.734 76.356 211.734 78.108C211.734 79.872 212.958 81.18 214.686 81.18C216.414 81.18 217.638 79.872 217.638 78.108C217.638 76.356 216.414 75.048 214.686 75.048ZM222.285 75.168C222.225 75.156 222.069 75.132 221.913 75.132C221.325 75.132 220.605 75.348 220.185 76.236V75.228H219.081V81H220.209V78.108C220.209 76.836 220.845 76.332 221.793 76.332C221.949 76.332 222.117 76.344 222.285 76.368V75.168ZM227.615 77.604C227.639 76.752 228.095 76.08 228.959 76.08C229.967 76.08 230.303 76.728 230.303 77.532V81H231.431V77.34C231.431 76.056 230.747 75.06 229.367 75.06C228.707 75.06 228.035 75.288 227.615 75.9V72.312H226.487V81H227.615V77.604ZM234.342 81V75.228H233.226V81H234.342ZM232.974 73.044C232.974 73.488 233.334 73.848 233.778 73.848C234.234 73.848 234.594 73.488 234.594 73.044C234.594 72.588 234.234 72.228 233.778 72.228C233.334 72.228 232.974 72.588 232.974 73.044ZM235.841 81.312C235.985 82.548 237.065 83.46 238.505 83.46C240.677 83.46 241.397 82.032 241.397 80.568V75.228H240.281V76.032C239.993 75.456 239.393 75.12 238.505 75.12C236.921 75.12 235.853 76.368 235.853 77.928C235.853 79.56 236.969 80.724 238.505 80.724C239.369 80.724 239.993 80.304 240.269 79.776V80.604C240.269 81.852 239.717 82.476 238.505 82.476C237.629 82.476 237.017 81.864 236.933 81.06L235.841 81.312ZM238.673 79.776C237.653 79.776 237.005 79.056 237.005 77.928C237.005 76.812 237.677 76.08 238.673 76.08C239.645 76.08 240.317 76.812 240.317 77.928C240.317 79.044 239.645 79.776 238.673 79.776ZM244.326 77.604C244.35 76.752 244.806 76.08 245.67 76.08C246.678 76.08 247.014 76.728 247.014 77.532V81H248.142V77.34C248.142 76.056 247.458 75.06 246.078 75.06C245.418 75.06 244.746 75.288 244.326 75.9V72.312H243.198V81H244.326V77.604ZM251.065 81V72.312H249.937V81H251.065ZM254.099 81V75.228H252.983V81H254.099ZM252.731 73.044C252.731 73.488 253.091 73.848 253.535 73.848C253.991 73.848 254.351 73.488 254.351 73.044C254.351 72.588 253.991 72.228 253.535 72.228C253.091 72.228 252.731 72.588 252.731 73.044ZM255.599 81.312C255.743 82.548 256.823 83.46 258.263 83.46C260.435 83.46 261.155 82.032 261.155 80.568V75.228H260.039V76.032C259.751 75.456 259.151 75.12 258.263 75.12C256.679 75.12 255.611 76.368 255.611 77.928C255.611 79.56 256.727 80.724 258.263 80.724C259.127 80.724 259.751 80.304 260.027 79.776V80.604C260.027 81.852 259.475 82.476 258.263 82.476C257.387 82.476 256.775 81.864 256.691 81.06L255.599 81.312ZM258.431 79.776C257.411 79.776 256.763 79.056 256.763 77.928C256.763 76.812 257.435 76.08 258.431 76.08C259.403 76.08 260.075 76.812 260.075 77.928C260.075 79.044 259.403 79.776 258.431 79.776ZM264.084 77.604C264.108 76.752 264.564 76.08 265.428 76.08C266.436 76.08 266.772 76.728 266.772 77.532V81H267.9V77.34C267.9 76.056 267.216 75.06 265.836 75.06C265.176 75.06 264.504 75.288 264.084 75.9V72.312H262.956V81H264.084V77.604ZM271.206 73.404H270.174V74.34C270.174 74.844 269.91 75.228 269.286 75.228H268.974V76.248H270.078V79.416C270.078 80.46 270.702 81.06 271.686 81.06C272.07 81.06 272.358 80.988 272.454 80.952V79.992C272.358 80.016 272.154 80.04 272.01 80.04C271.422 80.04 271.206 79.776 271.206 79.248V76.248H272.454V75.228H271.206V73.404ZM275.076 81V75.228H273.96V81H275.076ZM273.708 73.044C273.708 73.488 274.068 73.848 274.512 73.848C274.968 73.848 275.328 73.488 275.328 73.044C275.328 72.588 274.968 72.228 274.512 72.228C274.068 72.228 273.708 72.588 273.708 73.044ZM278.123 77.664C278.123 76.788 278.579 76.08 279.467 76.08C280.475 76.08 280.811 76.728 280.811 77.532V81H281.939V77.34C281.939 76.056 281.255 75.06 279.875 75.06C279.203 75.06 278.519 75.336 278.099 76.056V75.228H276.995V81H278.123V77.664ZM283.313 81.312C283.457 82.548 284.537 83.46 285.977 83.46C288.149 83.46 288.869 82.032 288.869 80.568V75.228H287.753V76.032C287.465 75.456 286.865 75.12 285.977 75.12C284.393 75.12 283.325 76.368 283.325 77.928C283.325 79.56 284.441 80.724 285.977 80.724C286.841 80.724 287.465 80.304 287.741 79.776V80.604C287.741 81.852 287.189 82.476 285.977 82.476C285.101 82.476 284.489 81.864 284.405 81.06L283.313 81.312ZM286.145 79.776C285.125 79.776 284.477 79.056 284.477 77.928C284.477 76.812 285.149 76.08 286.145 76.08C287.117 76.08 287.789 76.812 287.789 77.928C287.789 79.044 287.117 79.776 286.145 79.776ZM111.972 88.404H110.94V89.34C110.94 89.844 110.676 90.228 110.052 90.228H109.74V91.248H110.844V94.416C110.844 95.46 111.468 96.06 112.452 96.06C112.836 96.06 113.124 95.988 113.22 95.952V94.992C113.124 95.016 112.92 95.04 112.776 95.04C112.188 95.04 111.972 94.776 111.972 94.248V91.248H113.22V90.228H111.972V88.404ZM115.854 92.604C115.878 91.752 116.334 91.08 117.198 91.08C118.206 91.08 118.542 91.728 118.542 92.532V96H119.67V92.34C119.67 91.056 118.986 90.06 117.606 90.06C116.946 90.06 116.274 90.288 115.854 90.9V87.312H114.726V96H115.854V92.604ZM122.58 96V90.228H121.464V96H122.58ZM121.212 88.044C121.212 88.488 121.572 88.848 122.016 88.848C122.472 88.848 122.832 88.488 122.832 88.044C122.832 87.588 122.472 87.228 122.016 87.228C121.572 87.228 121.212 87.588 121.212 88.044ZM123.959 94.5C124.055 95.16 124.727 96.18 126.311 96.18C127.739 96.18 128.423 95.208 128.423 94.392C128.423 93.54 127.871 92.904 126.827 92.676L125.891 92.472C125.447 92.376 125.231 92.124 125.231 91.776C125.231 91.38 125.615 91.008 126.191 91.008C127.103 91.008 127.343 91.668 127.391 91.968L128.387 91.596C128.267 91.08 127.775 90.048 126.191 90.048C125.063 90.048 124.139 90.888 124.139 91.872C124.139 92.688 124.679 93.3 125.579 93.492L126.563 93.708C127.043 93.816 127.307 94.092 127.307 94.452C127.307 94.86 126.959 95.22 126.323 95.22C125.507 95.22 125.051 94.74 124.979 94.14L123.959 94.5ZM134.437 88.404H133.405V89.34C133.405 89.844 133.141 90.228 132.517 90.228H132.205V91.248H133.309V94.416C133.309 95.46 133.933 96.06 134.917 96.06C135.301 96.06 135.589 95.988 135.685 95.952V94.992C135.589 95.016 135.385 95.04 135.241 95.04C134.653 95.04 134.437 94.776 134.437 94.248V91.248H135.685V90.228H134.437V88.404ZM140.56 90.228L139.06 94.572L137.764 90.228H136.528L138.424 96H139.612L141.112 91.608L142.648 96H143.812L145.684 90.228H144.496L143.224 94.572L141.724 90.228H140.56ZM147.438 92.52C147.486 91.776 148.062 91.044 149.01 91.044C150.03 91.044 150.57 91.692 150.594 92.52H147.438ZM150.762 94.02C150.546 94.668 150.078 95.184 149.142 95.184C148.17 95.184 147.426 94.464 147.402 93.432H151.746C151.758 93.36 151.77 93.216 151.77 93.072C151.77 91.272 150.774 90.048 148.998 90.048C147.546 90.048 146.238 91.284 146.238 93.096C146.238 95.052 147.594 96.18 149.142 96.18C150.486 96.18 151.41 95.376 151.734 94.356L150.762 94.02ZM153.942 92.52C153.99 91.776 154.566 91.044 155.514 91.044C156.534 91.044 157.074 91.692 157.098 92.52H153.942ZM157.266 94.02C157.05 94.668 156.582 95.184 155.646 95.184C154.674 95.184 153.93 94.464 153.906 93.432H158.25C158.262 93.36 158.274 93.216 158.274 93.072C158.274 91.272 157.278 90.048 155.502 90.048C154.05 90.048 152.742 91.284 152.742 93.096C152.742 95.052 154.098 96.18 155.646 96.18C156.99 96.18 157.914 95.376 158.238 94.356L157.266 94.02ZM161.226 88.404H160.194V89.34C160.194 89.844 159.93 90.228 159.306 90.228H158.994V91.248H160.098V94.416C160.098 95.46 160.722 96.06 161.706 96.06C162.09 96.06 162.378 95.988 162.474 95.952V94.992C162.378 95.016 162.174 95.04 162.03 95.04C161.442 95.04 161.226 94.776 161.226 94.248V91.248H162.474V90.228H161.226V88.404ZM163.86 95.232C163.86 95.7 164.22 96.06 164.688 96.06C165.156 96.06 165.528 95.7 165.528 95.232C165.528 94.764 165.156 94.392 164.688 94.392C164.22 94.392 163.86 94.764 163.86 95.232Z" fill="#202425"/>
<circle cx="80.5" cy="130" r="19" fill="#9BA1A6"/>
<rect x="89.5" y="136" width="13.5" height="13.5" rx="6.75" fill="#3FCF8E" stroke="white" stroke-width="4"/>
<path d="M82.3702 136H84.5462L81.9862 131.328C83.5702 130.944 84.5462 129.712 84.5462 128.096C84.5462 126.176 83.1862 124.656 80.9942 124.656H76.6422V136H78.5782V131.52H79.9862L82.3702 136ZM78.5782 129.824V126.352H80.6422C81.8262 126.352 82.5942 127.04 82.5942 128.096C82.5942 129.136 81.8262 129.824 80.6422 129.824H78.5782Z" fill="#202425"/>
<path d="M116.172 123H118.02L116.196 119.52C117.312 119.196 118.008 118.296 118.008 117.108C118.008 115.632 116.952 114.492 115.296 114.492H111.972V123H113.64V119.724H114.504L116.172 123ZM113.64 118.296V115.932H114.984C115.824 115.932 116.316 116.4 116.316 117.12C116.316 117.816 115.824 118.296 114.984 118.296H113.64ZM120.352 119.376C120.388 118.836 120.844 118.212 121.672 118.212C122.584 118.212 122.968 118.788 122.992 119.376H120.352ZM123.148 120.912C122.956 121.44 122.548 121.812 121.804 121.812C121.012 121.812 120.352 121.248 120.316 120.468H124.54C124.54 120.444 124.564 120.204 124.564 119.976C124.564 118.08 123.472 116.916 121.648 116.916C120.136 116.916 118.744 118.14 118.744 120.024C118.744 122.016 120.172 123.18 121.792 123.18C123.244 123.18 124.18 122.328 124.48 121.308L123.148 120.912ZM127.369 123V122.28C127.681 122.784 128.305 123.144 129.121 123.144C130.801 123.144 131.905 121.812 131.905 120.024C131.905 118.272 130.909 116.94 129.181 116.94C128.305 116.94 127.657 117.324 127.393 117.744V114.312H125.821V123H127.369ZM130.309 120.036C130.309 121.116 129.661 121.716 128.845 121.716C128.041 121.716 127.369 121.104 127.369 120.036C127.369 118.956 128.041 118.368 128.845 118.368C129.661 118.368 130.309 118.956 130.309 120.036ZM134.332 119.376C134.368 118.836 134.824 118.212 135.652 118.212C136.564 118.212 136.948 118.788 136.972 119.376H134.332ZM137.128 120.912C136.936 121.44 136.528 121.812 135.784 121.812C134.992 121.812 134.332 121.248 134.296 120.468H138.52C138.52 120.444 138.544 120.204 138.544 119.976C138.544 118.08 137.452 116.916 135.628 116.916C134.116 116.916 132.724 118.14 132.724 120.024C132.724 122.016 134.152 123.18 135.772 123.18C137.224 123.18 138.16 122.328 138.46 121.308L137.128 120.912ZM142.453 118.392C143.245 118.392 143.617 118.896 143.761 119.388L145.189 118.908C144.937 117.912 144.025 116.916 142.417 116.916C140.701 116.916 139.357 118.224 139.357 120.048C139.357 121.86 140.725 123.18 142.465 123.18C144.037 123.18 144.961 122.172 145.225 121.188L143.821 120.72C143.689 121.176 143.281 121.716 142.465 121.716C141.649 121.716 140.953 121.116 140.953 120.048C140.953 118.98 141.637 118.392 142.453 118.392ZM148.992 118.392C149.784 118.392 150.156 118.896 150.3 119.388L151.728 118.908C151.476 117.912 150.564 116.916 148.956 116.916C147.24 116.916 145.896 118.224 145.896 120.048C145.896 121.86 147.264 123.18 149.004 123.18C150.576 123.18 151.5 122.172 151.764 121.188L150.36 120.72C150.228 121.176 149.82 121.716 149.004 121.716C148.188 121.716 147.492 121.116 147.492 120.048C147.492 118.98 148.176 118.392 148.992 118.392ZM152.555 121.392C152.555 122.316 153.323 123.168 154.583 123.168C155.459 123.168 156.023 122.76 156.323 122.292C156.323 122.52 156.347 122.844 156.383 123H157.847C157.811 122.796 157.775 122.376 157.775 122.064V119.16C157.775 117.972 157.079 116.916 155.207 116.916C153.623 116.916 152.771 117.936 152.675 118.86L154.091 119.16C154.139 118.644 154.523 118.2 155.219 118.2C155.891 118.2 156.215 118.548 156.215 118.968C156.215 119.172 156.107 119.34 155.771 119.388L154.319 119.604C153.335 119.748 152.555 120.336 152.555 121.392ZM154.919 121.98C154.403 121.98 154.151 121.644 154.151 121.296C154.151 120.84 154.475 120.612 154.883 120.552L156.215 120.348V120.612C156.215 121.656 155.59 121.98 154.919 121.98Z" fill="#202425"/>
<path d="M167.24 120.468C167.24 122.1 168.224 123.18 169.892 123.18C171.476 123.18 172.448 121.944 172.448 120.456V114.492H171.272V120.54C171.272 121.524 170.744 122.088 169.88 122.088C169.028 122.088 168.416 121.584 168.416 120.456V119.652L167.24 119.916V120.468ZM178.174 122.304C178.174 122.544 178.198 122.868 178.222 123H179.302C179.278 122.796 179.242 122.388 179.242 121.932V117.228H178.114V120.708C178.114 121.584 177.658 122.184 176.746 122.184C175.798 122.184 175.438 121.488 175.438 120.696V117.228H174.31V120.864C174.31 122.172 175.126 123.18 176.47 123.18C177.142 123.18 177.862 122.904 178.174 122.304ZM180.627 121.5C180.723 122.16 181.395 123.18 182.979 123.18C184.407 123.18 185.091 122.208 185.091 121.392C185.091 120.54 184.539 119.904 183.495 119.676L182.559 119.472C182.115 119.376 181.899 119.124 181.899 118.776C181.899 118.38 182.283 118.008 182.859 118.008C183.771 118.008 184.011 118.668 184.059 118.968L185.055 118.596C184.935 118.08 184.443 117.048 182.859 117.048C181.731 117.048 180.807 117.888 180.807 118.872C180.807 119.688 181.347 120.3 182.247 120.492L183.231 120.708C183.711 120.816 183.975 121.092 183.975 121.452C183.975 121.86 183.627 122.22 182.991 122.22C182.175 122.22 181.719 121.74 181.647 121.14L180.627 121.5ZM188.105 115.404H187.073V116.34C187.073 116.844 186.809 117.228 186.185 117.228H185.873V118.248H186.977V121.416C186.977 122.46 187.601 123.06 188.585 123.06C188.969 123.06 189.257 122.988 189.353 122.952V121.992C189.257 122.016 189.053 122.04 188.909 122.04C188.321 122.04 188.105 121.776 188.105 121.248V118.248H189.353V117.228H188.105V115.404ZM194.986 119.664C194.986 118.788 195.442 118.08 196.33 118.08C197.338 118.08 197.674 118.728 197.674 119.532V123H198.802V119.34C198.802 118.056 198.118 117.06 196.738 117.06C196.066 117.06 195.382 117.336 194.962 118.056V117.228H193.858V123H194.986V119.664ZM203.069 122.172C202.109 122.172 201.269 121.452 201.269 120.108C201.269 118.776 202.109 118.056 203.069 118.056C204.029 118.056 204.869 118.776 204.869 120.108C204.869 121.452 204.029 122.172 203.069 122.172ZM203.069 117.048C201.341 117.048 200.117 118.356 200.117 120.108C200.117 121.872 201.341 123.18 203.069 123.18C204.797 123.18 206.021 121.872 206.021 120.108C206.021 118.356 204.797 117.048 203.069 117.048ZM210.599 117.228L209.099 121.572L207.803 117.228H206.567L208.463 123H209.651L211.151 118.608L212.687 123H213.851L215.723 117.228H214.535L213.263 121.572L211.763 117.228H210.599Z" fill="#9BA1A6"/>
<path d="M117.972 142H119.244L115.86 133.492H114.504L111.12 142H112.38L113.28 139.624H117.048L117.972 142ZM115.152 134.716L116.628 138.532H113.7L115.152 134.716ZM119.79 142.312C119.934 143.548 121.014 144.46 122.454 144.46C124.626 144.46 125.346 143.032 125.346 141.568V136.228H124.23V137.032C123.942 136.456 123.342 136.12 122.454 136.12C120.87 136.12 119.802 137.368 119.802 138.928C119.802 140.56 120.918 141.724 122.454 141.724C123.318 141.724 123.942 141.304 124.218 140.776V141.604C124.218 142.852 123.666 143.476 122.454 143.476C121.578 143.476 120.966 142.864 120.882 142.06L119.79 142.312ZM122.622 140.776C121.602 140.776 120.954 140.056 120.954 138.928C120.954 137.812 121.626 137.08 122.622 137.08C123.594 137.08 124.266 137.812 124.266 138.928C124.266 140.044 123.594 140.776 122.622 140.776ZM130.352 136.168C130.292 136.156 130.136 136.132 129.98 136.132C129.392 136.132 128.672 136.348 128.252 137.236V136.228H127.148V142H128.276V139.108C128.276 137.836 128.912 137.332 129.86 137.332C130.016 137.332 130.184 137.344 130.352 137.368V136.168ZM132.227 138.52C132.275 137.776 132.851 137.044 133.799 137.044C134.819 137.044 135.359 137.692 135.383 138.52H132.227ZM135.551 140.02C135.335 140.668 134.867 141.184 133.931 141.184C132.959 141.184 132.215 140.464 132.191 139.432H136.535C136.547 139.36 136.559 139.216 136.559 139.072C136.559 137.272 135.563 136.048 133.787 136.048C132.335 136.048 131.027 137.284 131.027 139.096C131.027 141.052 132.383 142.18 133.931 142.18C135.275 142.18 136.199 141.376 136.523 140.356L135.551 140.02ZM138.731 138.52C138.779 137.776 139.355 137.044 140.303 137.044C141.323 137.044 141.863 137.692 141.887 138.52H138.731ZM142.055 140.02C141.839 140.668 141.371 141.184 140.435 141.184C139.463 141.184 138.719 140.464 138.695 139.432H143.039C143.051 139.36 143.063 139.216 143.063 139.072C143.063 137.272 142.067 136.048 140.291 136.048C138.839 136.048 137.531 137.284 137.531 139.096C137.531 141.052 138.887 142.18 140.435 142.18C141.779 142.18 142.703 141.376 143.027 140.356L142.055 140.02ZM145.175 139.096C145.175 137.908 145.847 137.068 146.879 137.068C147.911 137.068 148.535 137.884 148.535 139.072C148.535 140.26 147.899 141.16 146.867 141.16C145.787 141.16 145.175 140.284 145.175 139.096ZM148.547 141.22C148.547 141.568 148.583 141.868 148.607 142H149.699C149.687 141.904 149.639 141.484 149.639 140.932V133.312H148.523V137.044C148.331 136.576 147.779 136.072 146.759 136.072C145.127 136.072 144.023 137.464 144.023 139.096C144.023 140.812 145.067 142.156 146.759 142.156C147.659 142.156 148.271 141.676 148.547 141.124V141.22ZM151.438 141.232C151.438 141.748 151.798 142.048 152.242 142.048C152.374 142.048 152.47 142.012 152.506 141.988C152.494 142.564 152.098 143.152 151.51 143.284V143.908C152.254 143.812 153.286 143.152 153.286 141.568C153.286 140.812 152.83 140.428 152.314 140.428C151.81 140.428 151.438 140.8 151.438 141.232ZM159.213 138.664C159.213 137.788 159.669 137.08 160.557 137.08C161.565 137.08 161.901 137.728 161.901 138.532V142H163.029V138.34C163.029 137.056 162.345 136.06 160.965 136.06C160.293 136.06 159.609 136.336 159.189 137.056V136.228H158.085V142H159.213V138.664ZM167.295 141.172C166.335 141.172 165.495 140.452 165.495 139.108C165.495 137.776 166.335 137.056 167.295 137.056C168.255 137.056 169.095 137.776 169.095 139.108C169.095 140.452 168.255 141.172 167.295 141.172ZM167.295 136.048C165.567 136.048 164.343 137.356 164.343 139.108C164.343 140.872 165.567 142.18 167.295 142.18C169.023 142.18 170.247 140.872 170.247 139.108C170.247 137.356 169.023 136.048 167.295 136.048ZM175.806 144.28V141.22C176.118 141.736 176.79 142.156 177.678 142.156C179.37 142.156 180.366 140.824 180.366 139.108C180.366 137.428 179.442 136.096 177.714 136.096C176.778 136.096 176.094 136.552 175.782 137.128V136.228H174.69V144.28H175.806ZM179.214 139.108C179.214 140.296 178.554 141.148 177.51 141.148C176.478 141.148 175.794 140.296 175.794 139.108C175.794 137.956 176.478 137.092 177.51 137.092C178.566 137.092 179.214 137.956 179.214 139.108ZM185.008 136.168C184.948 136.156 184.792 136.132 184.636 136.132C184.048 136.132 183.328 136.348 182.908 137.236V136.228H181.804V142H182.932V139.108C182.932 137.836 183.568 137.332 184.516 137.332C184.672 137.332 184.84 137.344 185.008 137.368V136.168ZM188.623 141.172C187.663 141.172 186.823 140.452 186.823 139.108C186.823 137.776 187.663 137.056 188.623 137.056C189.583 137.056 190.423 137.776 190.423 139.108C190.423 140.452 189.583 141.172 188.623 141.172ZM188.623 136.048C186.895 136.048 185.671 137.356 185.671 139.108C185.671 140.872 186.895 142.18 188.623 142.18C190.351 142.18 191.575 140.872 191.575 139.108C191.575 137.356 190.351 136.048 188.623 136.048ZM194.135 142V141.16C194.495 141.784 195.155 142.156 196.007 142.156C197.723 142.156 198.695 140.8 198.695 139.084C198.695 137.404 197.795 136.06 196.043 136.06C195.083 136.06 194.411 136.528 194.135 137.044V133.312H193.019V142H194.135ZM197.543 139.084C197.543 140.332 196.871 141.148 195.839 141.148C194.843 141.148 194.123 140.332 194.123 139.084C194.123 137.836 194.843 137.056 195.839 137.056C196.883 137.056 197.543 137.836 197.543 139.084ZM201.26 142V133.312H200.132V142H201.26ZM203.911 138.52C203.959 137.776 204.535 137.044 205.483 137.044C206.503 137.044 207.043 137.692 207.067 138.52H203.911ZM207.235 140.02C207.019 140.668 206.551 141.184 205.615 141.184C204.643 141.184 203.899 140.464 203.875 139.432H208.219C208.231 139.36 208.243 139.216 208.243 139.072C208.243 137.272 207.247 136.048 205.471 136.048C204.019 136.048 202.711 137.284 202.711 139.096C202.711 141.052 204.067 142.18 205.615 142.18C206.959 142.18 207.883 141.376 208.207 140.356L207.235 140.02ZM210.799 142V138.52C210.799 137.656 211.339 137.056 212.143 137.056C213.007 137.056 213.367 137.632 213.367 138.376V142H214.495V138.508C214.495 137.68 215.035 137.056 215.827 137.056C216.679 137.056 217.051 137.62 217.051 138.376V142H218.167V138.256C218.167 136.744 217.183 136.06 216.175 136.06C215.443 136.06 214.699 136.324 214.243 137.152C213.931 136.408 213.235 136.06 212.515 136.06C211.843 136.06 211.123 136.36 210.763 136.996V136.228H209.683V142H210.799ZM221.58 133.492H220.164L220.476 139.564H221.28L221.58 133.492ZM220.092 141.28C220.092 141.712 220.44 142.06 220.872 142.06C221.304 142.06 221.664 141.712 221.664 141.28C221.664 140.848 221.304 140.488 220.872 140.488C220.44 140.488 220.092 140.848 220.092 141.28Z" fill="#202425"/>
<rect x="62" y="161.5" width="239" height="32" rx="4.5" fill="#D7DBDF" stroke="#ECEEF0"/>
<path d="M85.004 175.424C84.812 174.5 84.044 173.312 82.124 173.312C80.552 173.312 79.316 174.512 79.316 175.844C79.316 177.116 80.18 177.908 81.392 178.172L82.604 178.436C83.456 178.616 83.876 179.144 83.876 179.756C83.876 180.5 83.3 181.112 82.124 181.112C80.84 181.112 80.168 180.236 80.084 179.288L78.956 179.648C79.112 180.86 80.084 182.18 82.136 182.18C83.948 182.18 85.076 180.98 85.076 179.66C85.076 178.472 84.284 177.584 82.868 177.272L81.596 176.996C80.876 176.84 80.504 176.372 80.504 175.76C80.504 174.968 81.188 174.344 82.148 174.344C83.336 174.344 83.852 175.184 83.948 175.796L85.004 175.424ZM87.1881 178.52C87.2361 177.776 87.8121 177.044 88.7601 177.044C89.7801 177.044 90.3201 177.692 90.3441 178.52H87.1881ZM90.5121 180.02C90.2961 180.668 89.8281 181.184 88.8921 181.184C87.9201 181.184 87.1761 180.464 87.1521 179.432H91.4961C91.5081 179.36 91.5201 179.216 91.5201 179.072C91.5201 177.272 90.5241 176.048 88.7481 176.048C87.2961 176.048 85.9881 177.284 85.9881 179.096C85.9881 181.052 87.3441 182.18 88.8921 182.18C90.2361 182.18 91.1601 181.376 91.4841 180.356L90.5121 180.02ZM94.088 178.664C94.088 177.788 94.544 177.08 95.432 177.08C96.44 177.08 96.776 177.728 96.776 178.532V182H97.904V178.34C97.904 177.056 97.22 176.06 95.84 176.06C95.168 176.06 94.484 176.336 94.064 177.056V176.228H92.96V182H94.088V178.664ZM100.37 179.096C100.37 177.908 101.042 177.068 102.074 177.068C103.106 177.068 103.73 177.884 103.73 179.072C103.73 180.26 103.094 181.16 102.062 181.16C100.982 181.16 100.37 180.284 100.37 179.096ZM103.742 181.22C103.742 181.568 103.778 181.868 103.802 182H104.894C104.882 181.904 104.834 181.484 104.834 180.932V173.312H103.718V177.044C103.526 176.576 102.974 176.072 101.954 176.072C100.322 176.072 99.2183 177.464 99.2183 179.096C99.2183 180.812 100.262 182.156 101.954 182.156C102.854 182.156 103.466 181.676 103.742 181.124V181.22ZM109.393 180.452C109.393 181.364 110.149 182.18 111.325 182.18C112.357 182.18 112.933 181.628 113.185 181.22C113.185 181.64 113.221 181.856 113.245 182H114.349C114.325 181.856 114.277 181.556 114.277 181.052V178.16C114.277 177.032 113.605 176.048 111.877 176.048C110.629 176.048 109.633 176.816 109.513 177.92L110.593 178.172C110.665 177.5 111.109 177.008 111.901 177.008C112.777 177.008 113.149 177.476 113.149 178.04C113.149 178.244 113.053 178.424 112.705 178.472L111.145 178.7C110.149 178.844 109.393 179.42 109.393 180.452ZM111.481 181.232C110.905 181.232 110.545 180.824 110.545 180.392C110.545 179.876 110.905 179.6 111.385 179.528L113.149 179.264V179.528C113.149 180.788 112.405 181.232 111.481 181.232ZM120.15 182V178.52C120.15 177.656 120.69 177.056 121.494 177.056C122.358 177.056 122.718 177.632 122.718 178.376V182H123.846V178.508C123.846 177.68 124.386 177.056 125.178 177.056C126.03 177.056 126.402 177.62 126.402 178.376V182H127.518V178.256C127.518 176.744 126.534 176.06 125.526 176.06C124.794 176.06 124.05 176.324 123.594 177.152C123.282 176.408 122.586 176.06 121.866 176.06C121.194 176.06 120.474 176.36 120.114 176.996V176.228H119.034V182H120.15ZM130.055 178.52C130.103 177.776 130.679 177.044 131.627 177.044C132.647 177.044 133.187 177.692 133.211 178.52H130.055ZM133.379 180.02C133.163 180.668 132.695 181.184 131.759 181.184C130.787 181.184 130.043 180.464 130.019 179.432H134.363C134.375 179.36 134.387 179.216 134.387 179.072C134.387 177.272 133.391 176.048 131.615 176.048C130.163 176.048 128.855 177.284 128.855 179.096C128.855 181.052 130.211 182.18 131.759 182.18C133.103 182.18 134.027 181.376 134.351 180.356L133.379 180.02ZM135.287 180.5C135.383 181.16 136.055 182.18 137.639 182.18C139.067 182.18 139.751 181.208 139.751 180.392C139.751 179.54 139.199 178.904 138.155 178.676L137.219 178.472C136.775 178.376 136.559 178.124 136.559 177.776C136.559 177.38 136.943 177.008 137.519 177.008C138.431 177.008 138.671 177.668 138.719 177.968L139.715 177.596C139.595 177.08 139.103 176.048 137.519 176.048C136.391 176.048 135.467 176.888 135.467 177.872C135.467 178.688 136.007 179.3 136.907 179.492L137.891 179.708C138.371 179.816 138.635 180.092 138.635 180.452C138.635 180.86 138.287 181.22 137.651 181.22C136.835 181.22 136.379 180.74 136.307 180.14L135.287 180.5ZM140.713 180.5C140.809 181.16 141.481 182.18 143.065 182.18C144.493 182.18 145.177 181.208 145.177 180.392C145.177 179.54 144.625 178.904 143.581 178.676L142.645 178.472C142.201 178.376 141.985 178.124 141.985 177.776C141.985 177.38 142.369 177.008 142.945 177.008C143.857 177.008 144.097 177.668 144.145 177.968L145.141 177.596C145.021 177.08 144.529 176.048 142.945 176.048C141.817 176.048 140.893 176.888 140.893 177.872C140.893 178.688 141.433 179.3 142.333 179.492L143.317 179.708C143.797 179.816 144.061 180.092 144.061 180.452C144.061 180.86 143.713 181.22 143.077 181.22C142.261 181.22 141.805 180.74 141.733 180.14L140.713 180.5ZM146.202 180.452C146.202 181.364 146.958 182.18 148.134 182.18C149.166 182.18 149.742 181.628 149.994 181.22C149.994 181.64 150.03 181.856 150.054 182H151.158C151.134 181.856 151.086 181.556 151.086 181.052V178.16C151.086 177.032 150.414 176.048 148.686 176.048C147.438 176.048 146.442 176.816 146.322 177.92L147.402 178.172C147.474 177.5 147.918 177.008 148.71 177.008C149.586 177.008 149.958 177.476 149.958 178.04C149.958 178.244 149.862 178.424 149.514 178.472L147.954 178.7C146.958 178.844 146.202 179.42 146.202 180.452ZM148.29 181.232C147.714 181.232 147.354 180.824 147.354 180.392C147.354 179.876 147.714 179.6 148.194 179.528L149.958 179.264V179.528C149.958 180.788 149.214 181.232 148.29 181.232ZM152.423 182.312C152.567 183.548 153.647 184.46 155.087 184.46C157.259 184.46 157.979 183.032 157.979 181.568V176.228H156.863V177.032C156.575 176.456 155.975 176.12 155.087 176.12C153.503 176.12 152.435 177.368 152.435 178.928C152.435 180.56 153.551 181.724 155.087 181.724C155.951 181.724 156.575 181.304 156.851 180.776V181.604C156.851 182.852 156.299 183.476 155.087 183.476C154.211 183.476 153.599 182.864 153.515 182.06L152.423 182.312ZM155.255 180.776C154.235 180.776 153.587 180.056 153.587 178.928C153.587 177.812 154.259 177.08 155.255 177.08C156.227 177.08 156.899 177.812 156.899 178.928C156.899 180.044 156.227 180.776 155.255 180.776ZM160.512 178.52C160.56 177.776 161.136 177.044 162.084 177.044C163.104 177.044 163.644 177.692 163.668 178.52H160.512ZM163.836 180.02C163.62 180.668 163.152 181.184 162.216 181.184C161.244 181.184 160.5 180.464 160.476 179.432H164.82C164.832 179.36 164.844 179.216 164.844 179.072C164.844 177.272 163.848 176.048 162.072 176.048C160.62 176.048 159.312 177.284 159.312 179.096C159.312 181.052 160.668 182.18 162.216 182.18C163.56 182.18 164.484 181.376 164.808 180.356L163.836 180.02Z" fill="#9BA1A6"/>
</g>
<defs>
<clipPath id="clip0_931_17663">
<rect width="360" height="210" fill="white" transform="translate(0.5)"/>
</clipPath>
</defs>
</svg>
