<svg width="360" height="210" viewBox="0 0 360 210" fill="none" xmlns="http://www.w3.org/2000/svg">
<g clip-path="url(#clip0_931_17672)">
<rect x="44.5" y="19.5" width="270" height="35" rx="3.5" fill="#FBFCFD" stroke="#ECEEF0"/>
<rect x="84" y="35" width="158" height="5" rx="2.5" fill="#ECEEF0"/>
<circle cx="64" cy="37" r="11" fill="#ECEEF0"/>
<path d="M263.454 40.7148C263.851 40.9876 264.695 41.186 265.315 41.186C268.018 41.186 269.333 39.425 269.333 36.4733C269.333 33.9061 267.783 32.7775 266.208 32.7775C264.633 32.7775 263.244 33.8937 263.244 35.5556C263.244 37.329 264.633 38.2716 266.022 38.2716C267.113 38.2716 267.82 37.7755 268.105 37.2422C268.055 38.8173 267.262 40.0947 265.315 40.0947C264.794 40.0947 264.198 39.921 263.851 39.7102L263.454 40.7148ZM267.944 35.5308C267.944 36.5973 267.101 37.2298 266.208 37.2298C265.29 37.2298 264.471 36.6221 264.471 35.5308C264.471 34.4766 265.315 33.8441 266.208 33.8441C267.088 33.8441 267.944 34.489 267.944 35.5308ZM271.716 36.9818C271.716 35.754 271.939 34.8859 272.423 34.3774C272.733 34.0549 273.13 33.8565 273.7 33.8565C274.271 33.8565 274.668 34.0549 274.978 34.3774C275.462 34.8859 275.685 35.754 275.685 36.9818C275.685 38.2096 275.462 39.0777 274.978 39.5862C274.668 39.9086 274.271 40.1071 273.7 40.1071C273.13 40.1071 272.733 39.9086 272.423 39.5862C271.939 39.0777 271.716 38.2096 271.716 36.9818ZM270.513 36.9818C270.513 38.0856 270.699 39.1025 271.233 39.8962C271.753 40.6776 272.56 41.186 273.7 41.186C274.841 41.186 275.648 40.6776 276.168 39.8962C276.702 39.1025 276.888 38.0856 276.888 36.9818C276.888 35.878 276.702 34.8611 276.168 34.0673C275.648 33.286 274.841 32.7775 273.7 32.7775C272.56 32.7775 271.753 33.286 271.233 34.0673C270.699 34.8611 270.513 35.878 270.513 36.9818ZM282.397 32.207H281.268L277.015 41H278.143L282.397 32.207ZM285.84 41V32.9636H284.773C284.587 33.8317 283.818 34.4518 282.702 34.4766V35.3323H284.649V41H285.84ZM288.648 36.9818C288.648 35.754 288.871 34.8859 289.355 34.3774C289.665 34.0549 290.062 33.8565 290.632 33.8565C291.202 33.8565 291.599 34.0549 291.909 34.3774C292.393 34.8859 292.616 35.754 292.616 36.9818C292.616 38.2096 292.393 39.0777 291.909 39.5862C291.599 39.9086 291.202 40.1071 290.632 40.1071C290.062 40.1071 289.665 39.9086 289.355 39.5862C288.871 39.0777 288.648 38.2096 288.648 36.9818ZM287.445 36.9818C287.445 38.0856 287.631 39.1025 288.164 39.8962C288.685 40.6776 289.491 41.186 290.632 41.186C291.773 41.186 292.579 40.6776 293.1 39.8962C293.633 39.1025 293.819 38.0856 293.819 36.9818C293.819 35.878 293.633 34.8611 293.1 34.0673C292.579 33.286 291.773 32.7775 290.632 32.7775C289.491 32.7775 288.685 33.286 288.164 34.0673C287.631 34.8611 287.445 35.878 287.445 36.9818ZM296.205 36.9818C296.205 35.754 296.428 34.8859 296.912 34.3774C297.222 34.0549 297.619 33.8565 298.189 33.8565C298.76 33.8565 299.157 34.0549 299.467 34.3774C299.95 34.8859 300.174 35.754 300.174 36.9818C300.174 38.2096 299.95 39.0777 299.467 39.5862C299.157 39.9086 298.76 40.1071 298.189 40.1071C297.619 40.1071 297.222 39.9086 296.912 39.5862C296.428 39.0777 296.205 38.2096 296.205 36.9818ZM295.002 36.9818C295.002 38.0856 295.188 39.1025 295.721 39.8962C296.242 40.6776 297.048 41.186 298.189 41.186C299.33 41.186 300.137 40.6776 300.657 39.8962C301.191 39.1025 301.377 38.0856 301.377 36.9818C301.377 35.878 301.191 34.8611 300.657 34.0673C300.137 33.286 299.33 32.7775 298.189 32.7775C297.048 32.7775 296.242 33.286 295.721 34.0673C295.188 34.8611 295.002 35.878 295.002 36.9818Z" fill="#11181C"/>
<rect x="44.5" y="59.5" width="270" height="35" rx="3.5" fill="#FBFCFD" stroke="#ECEEF0"/>
<rect x="84" y="75" width="158" height="5" rx="2.5" fill="#ECEEF0"/>
<circle cx="64" cy="77" r="11" fill="#ECEEF0"/>
<path d="M270.577 72.9636H264.711V74.0797H269.238C269.238 74.0797 266.286 76.3245 265.926 81H267.179C267.563 76.7461 269.833 74.7246 270.577 74.1293V72.9636ZM270.896 78.8173C271.008 80.0823 272.161 81.1984 273.873 81.1984C275.659 81.1984 276.825 79.9706 276.825 78.4576C276.825 76.7958 275.671 75.7912 274.096 75.7912C273.464 75.7912 272.819 75.9896 272.459 76.3865L273.054 74.0797H276.49V72.9636H272.248L271.206 76.957C271.616 77.1058 271.975 77.267 272.397 77.4282C272.744 77.0686 273.29 76.8454 273.86 76.8454C274.791 76.8454 275.597 77.4034 275.597 78.5072C275.597 79.4994 274.828 80.1319 273.873 80.1319C272.868 80.1319 272.137 79.4622 272.062 78.47L270.896 78.8173ZM282.397 72.207H281.268L277.015 81H278.143L282.397 72.207ZM285.84 81V72.9636H284.773C284.587 73.8317 283.818 74.4518 282.702 74.4766V75.3323H284.649V81H285.84ZM288.648 76.9818C288.648 75.754 288.871 74.8859 289.355 74.3774C289.665 74.0549 290.062 73.8565 290.632 73.8565C291.202 73.8565 291.599 74.0549 291.909 74.3774C292.393 74.8859 292.616 75.754 292.616 76.9818C292.616 78.2096 292.393 79.0777 291.909 79.5862C291.599 79.9086 291.202 80.1071 290.632 80.1071C290.062 80.1071 289.665 79.9086 289.355 79.5862C288.871 79.0777 288.648 78.2096 288.648 76.9818ZM287.445 76.9818C287.445 78.0856 287.631 79.1025 288.164 79.8962C288.685 80.6776 289.491 81.186 290.632 81.186C291.773 81.186 292.579 80.6776 293.1 79.8962C293.633 79.1025 293.819 78.0856 293.819 76.9818C293.819 75.878 293.633 74.8611 293.1 74.0673C292.579 73.286 291.773 72.7775 290.632 72.7775C289.491 72.7775 288.685 73.286 288.164 74.0673C287.631 74.8611 287.445 75.878 287.445 76.9818ZM296.205 76.9818C296.205 75.754 296.428 74.8859 296.912 74.3774C297.222 74.0549 297.619 73.8565 298.189 73.8565C298.76 73.8565 299.157 74.0549 299.467 74.3774C299.95 74.8859 300.174 75.754 300.174 76.9818C300.174 78.2096 299.95 79.0777 299.467 79.5862C299.157 79.9086 298.76 80.1071 298.189 80.1071C297.619 80.1071 297.222 79.9086 296.912 79.5862C296.428 79.0777 296.205 78.2096 296.205 76.9818ZM295.002 76.9818C295.002 78.0856 295.188 79.1025 295.721 79.8962C296.242 80.6776 297.048 81.186 298.189 81.186C299.33 81.186 300.137 80.6776 300.657 79.8962C301.191 79.1025 301.377 78.0856 301.377 76.9818C301.377 75.878 301.191 74.8611 300.657 74.0673C300.137 73.286 299.33 72.7775 298.189 72.7775C297.048 72.7775 296.242 73.286 295.721 74.0673C295.188 74.8611 295.002 75.878 295.002 76.9818Z" fill="#11181C"/>
<rect x="44.5" y="99.5" width="270" height="35" rx="3.5" fill="#FBFCFD" stroke="#ECEEF0"/>
<rect x="84" y="115" width="158" height="5" rx="2.5" fill="#DFE3E6"/>
<circle cx="64" cy="117" r="11" fill="#ECEEF0"/>
<path d="M269.21 113.224C268.838 112.964 268.205 112.778 267.474 112.778C265.13 112.778 263.332 114.477 263.332 117.465C263.332 120.119 264.931 121.186 266.469 121.186C268.044 121.186 269.446 120.169 269.446 118.445C269.446 116.697 268.28 115.704 266.692 115.704C265.626 115.704 264.894 116.213 264.572 116.746C264.671 115.097 265.725 113.869 267.399 113.869C268.007 113.869 268.54 114.043 268.838 114.216L269.21 113.224ZM264.745 118.445C264.745 117.366 265.551 116.746 266.482 116.746C267.412 116.746 268.218 117.366 268.218 118.445C268.218 119.512 267.424 120.132 266.482 120.132C265.601 120.132 264.745 119.499 264.745 118.445ZM271.716 116.982C271.716 115.754 271.939 114.886 272.423 114.377C272.733 114.055 273.13 113.856 273.7 113.856C274.271 113.856 274.668 114.055 274.978 114.377C275.462 114.886 275.685 115.754 275.685 116.982C275.685 118.21 275.462 119.078 274.978 119.586C274.668 119.909 274.271 120.107 273.7 120.107C273.13 120.107 272.733 119.909 272.423 119.586C271.939 119.078 271.716 118.21 271.716 116.982ZM270.513 116.982C270.513 118.086 270.699 119.103 271.233 119.896C271.753 120.678 272.56 121.186 273.7 121.186C274.841 121.186 275.648 120.678 276.168 119.896C276.702 119.103 276.888 118.086 276.888 116.982C276.888 115.878 276.702 114.861 276.168 114.067C275.648 113.286 274.841 112.778 273.7 112.778C272.56 112.778 271.753 113.286 271.233 114.067C270.699 114.861 270.513 115.878 270.513 116.982ZM282.397 112.207H281.268L277.015 121H278.143L282.397 112.207ZM285.84 121V112.964H284.773C284.587 113.832 283.818 114.452 282.702 114.477V115.332H284.649V121H285.84ZM288.648 116.982C288.648 115.754 288.871 114.886 289.355 114.377C289.665 114.055 290.062 113.856 290.632 113.856C291.202 113.856 291.599 114.055 291.909 114.377C292.393 114.886 292.616 115.754 292.616 116.982C292.616 118.21 292.393 119.078 291.909 119.586C291.599 119.909 291.202 120.107 290.632 120.107C290.062 120.107 289.665 119.909 289.355 119.586C288.871 119.078 288.648 118.21 288.648 116.982ZM287.445 116.982C287.445 118.086 287.631 119.103 288.164 119.896C288.685 120.678 289.491 121.186 290.632 121.186C291.773 121.186 292.579 120.678 293.1 119.896C293.633 119.103 293.819 118.086 293.819 116.982C293.819 115.878 293.633 114.861 293.1 114.067C292.579 113.286 291.773 112.778 290.632 112.778C289.491 112.778 288.685 113.286 288.164 114.067C287.631 114.861 287.445 115.878 287.445 116.982ZM296.205 116.982C296.205 115.754 296.428 114.886 296.912 114.377C297.222 114.055 297.619 113.856 298.189 113.856C298.76 113.856 299.157 114.055 299.467 114.377C299.95 114.886 300.174 115.754 300.174 116.982C300.174 118.21 299.95 119.078 299.467 119.586C299.157 119.909 298.76 120.107 298.189 120.107C297.619 120.107 297.222 119.909 296.912 119.586C296.428 119.078 296.205 118.21 296.205 116.982ZM295.002 116.982C295.002 118.086 295.188 119.103 295.721 119.896C296.242 120.678 297.048 121.186 298.189 121.186C299.33 121.186 300.137 120.678 300.657 119.896C301.191 119.103 301.377 118.086 301.377 116.982C301.377 115.878 301.191 114.861 300.657 114.067C300.137 113.286 299.33 112.778 298.189 112.778C297.048 112.778 296.242 113.286 295.721 114.067C295.188 114.861 295.002 115.878 295.002 116.982Z" fill="#11181C"/>
<rect x="44.5" y="139.5" width="270" height="35" rx="3.5" fill="#FBFCFD" stroke="#ECEEF0"/>
<rect x="84" y="155" width="158" height="5" rx="2.5" fill="#DFE3E6"/>
<circle cx="64" cy="157" r="11" fill="#ECEEF0"/>
<path d="M264.102 158.817C264.214 160.082 265.367 161.198 267.078 161.198C268.864 161.198 270.03 159.971 270.03 158.458C270.03 156.796 268.877 155.791 267.302 155.791C266.669 155.791 266.024 155.99 265.665 156.386L266.26 154.08H269.695V152.964H265.454L264.412 156.957C264.821 157.106 265.181 157.267 265.603 157.428C265.95 157.069 266.496 156.845 267.066 156.845C267.996 156.845 268.802 157.403 268.802 158.507C268.802 159.499 268.033 160.132 267.078 160.132C266.074 160.132 265.342 159.462 265.268 158.47L264.102 158.817ZM270.896 158.817C271.008 160.082 272.161 161.198 273.873 161.198C275.659 161.198 276.825 159.971 276.825 158.458C276.825 156.796 275.671 155.791 274.096 155.791C273.464 155.791 272.819 155.99 272.459 156.386L273.054 154.08H276.49V152.964H272.248L271.206 156.957C271.616 157.106 271.975 157.267 272.397 157.428C272.744 157.069 273.29 156.845 273.86 156.845C274.791 156.845 275.597 157.403 275.597 158.507C275.597 159.499 274.828 160.132 273.873 160.132C272.868 160.132 272.137 159.462 272.062 158.47L270.896 158.817ZM282.397 152.207H281.268L277.015 161H278.143L282.397 152.207ZM285.84 161V152.964H284.773C284.587 153.832 283.818 154.452 282.702 154.477V155.332H284.649V161H285.84ZM288.648 156.982C288.648 155.754 288.871 154.886 289.355 154.377C289.665 154.055 290.062 153.856 290.632 153.856C291.202 153.856 291.599 154.055 291.909 154.377C292.393 154.886 292.616 155.754 292.616 156.982C292.616 158.21 292.393 159.078 291.909 159.586C291.599 159.909 291.202 160.107 290.632 160.107C290.062 160.107 289.665 159.909 289.355 159.586C288.871 159.078 288.648 158.21 288.648 156.982ZM287.445 156.982C287.445 158.086 287.631 159.103 288.164 159.896C288.685 160.678 289.491 161.186 290.632 161.186C291.773 161.186 292.579 160.678 293.1 159.896C293.633 159.103 293.819 158.086 293.819 156.982C293.819 155.878 293.633 154.861 293.1 154.067C292.579 153.286 291.773 152.778 290.632 152.778C289.491 152.778 288.685 153.286 288.164 154.067C287.631 154.861 287.445 155.878 287.445 156.982ZM296.205 156.982C296.205 155.754 296.428 154.886 296.912 154.377C297.222 154.055 297.619 153.856 298.189 153.856C298.76 153.856 299.157 154.055 299.467 154.377C299.95 154.886 300.174 155.754 300.174 156.982C300.174 158.21 299.95 159.078 299.467 159.586C299.157 159.909 298.76 160.107 298.189 160.107C297.619 160.107 297.222 159.909 296.912 159.586C296.428 159.078 296.205 158.21 296.205 156.982ZM295.002 156.982C295.002 158.086 295.188 159.103 295.721 159.896C296.242 160.678 297.048 161.186 298.189 161.186C299.33 161.186 300.137 160.678 300.657 159.896C301.191 159.103 301.377 158.086 301.377 156.982C301.377 155.878 301.191 154.861 300.657 154.067C300.137 153.286 299.33 152.778 298.189 152.778C297.048 152.778 296.242 153.286 295.721 154.067C295.188 154.861 295.002 155.878 295.002 156.982Z" fill="#11181C"/>
<rect x="44.5" y="179.5" width="270" height="35" rx="3.5" fill="#FBFCFD" stroke="#ECEEF0"/>
<rect x="84" y="195" width="158" height="5" rx="2.5" fill="#DFE3E6"/>
<circle cx="64" cy="197" r="11" fill="#ECEEF0"/>
<path d="M265.077 195.853C265.065 195.729 265.053 195.605 265.053 195.494C265.053 194.576 265.549 193.844 266.603 193.844C267.62 193.844 268.116 194.526 268.116 195.258C268.116 195.878 267.769 196.448 267.012 196.932L265.673 197.8C264.309 198.681 263.788 199.685 263.763 201H269.393V199.871H265.264C265.375 199.375 265.784 199.04 266.243 198.743L267.831 197.726C268.748 197.143 269.344 196.3 269.344 195.246C269.344 193.906 268.352 192.778 266.628 192.778C264.867 192.778 263.85 194.005 263.85 195.382C263.85 195.481 263.85 195.593 263.862 195.704L265.077 195.853ZM271.716 196.982C271.716 195.754 271.939 194.886 272.423 194.377C272.733 194.055 273.13 193.856 273.7 193.856C274.271 193.856 274.668 194.055 274.978 194.377C275.462 194.886 275.685 195.754 275.685 196.982C275.685 198.21 275.462 199.078 274.978 199.586C274.668 199.909 274.271 200.107 273.7 200.107C273.13 200.107 272.733 199.909 272.423 199.586C271.939 199.078 271.716 198.21 271.716 196.982ZM270.513 196.982C270.513 198.086 270.699 199.103 271.233 199.896C271.753 200.678 272.56 201.186 273.7 201.186C274.841 201.186 275.648 200.678 276.168 199.896C276.702 199.103 276.888 198.086 276.888 196.982C276.888 195.878 276.702 194.861 276.168 194.067C275.648 193.286 274.841 192.778 273.7 192.778C272.56 192.778 271.753 193.286 271.233 194.067C270.699 194.861 270.513 195.878 270.513 196.982ZM282.397 192.207H281.268L277.015 201H278.143L282.397 192.207ZM285.84 201V192.964H284.773C284.587 193.832 283.818 194.452 282.702 194.477V195.332H284.649V201H285.84ZM288.648 196.982C288.648 195.754 288.871 194.886 289.355 194.377C289.665 194.055 290.062 193.856 290.632 193.856C291.202 193.856 291.599 194.055 291.909 194.377C292.393 194.886 292.616 195.754 292.616 196.982C292.616 198.21 292.393 199.078 291.909 199.586C291.599 199.909 291.202 200.107 290.632 200.107C290.062 200.107 289.665 199.909 289.355 199.586C288.871 199.078 288.648 198.21 288.648 196.982ZM287.445 196.982C287.445 198.086 287.631 199.103 288.164 199.896C288.685 200.678 289.491 201.186 290.632 201.186C291.773 201.186 292.579 200.678 293.1 199.896C293.633 199.103 293.819 198.086 293.819 196.982C293.819 195.878 293.633 194.861 293.1 194.067C292.579 193.286 291.773 192.778 290.632 192.778C289.491 192.778 288.685 193.286 288.164 194.067C287.631 194.861 287.445 195.878 287.445 196.982ZM296.205 196.982C296.205 195.754 296.428 194.886 296.912 194.377C297.222 194.055 297.619 193.856 298.189 193.856C298.76 193.856 299.157 194.055 299.467 194.377C299.95 194.886 300.174 195.754 300.174 196.982C300.174 198.21 299.95 199.078 299.467 199.586C299.157 199.909 298.76 200.107 298.189 200.107C297.619 200.107 297.222 199.909 296.912 199.586C296.428 199.078 296.205 198.21 296.205 196.982ZM295.002 196.982C295.002 198.086 295.188 199.103 295.721 199.896C296.242 200.678 297.048 201.186 298.189 201.186C299.33 201.186 300.137 200.678 300.657 199.896C301.191 199.103 301.377 198.086 301.377 196.982C301.377 195.878 301.191 194.861 300.657 194.067C300.137 193.286 299.33 192.778 298.189 192.778C297.048 192.778 296.242 193.286 295.721 194.067C295.188 194.861 295.002 195.878 295.002 196.982Z" fill="#11181C"/>
<rect x="84" y="35" width="140" height="5" rx="2.5" fill="#3FCF8E"/>
<rect x="84" y="75" width="121" height="5" rx="2.5" fill="#3FCF8E"/>
<rect x="84" y="116" width="109" height="5" rx="2.5" fill="#3FCF8E"/>
<rect x="84" y="154" width="91" height="5" rx="2.5" fill="#3FCF8E"/>
<rect x="84" y="195" width="39" height="5" rx="2.5" fill="#3FCF8E"/>
</g>
<defs>
<clipPath id="clip0_931_17672">
<rect width="360" height="210" fill="white"/>
</clipPath>
</defs>
</svg>
