<svg xmlns="http://www.w3.org/2000/svg" width="361" height="210" fill="none" viewBox="0 0 361 210"><g clip-path="url(#a)"><rect width="270" height="35" x="45" y="19.5" fill="#fff" stroke="#eceef0" rx="3.5"/><rect width="158" height="5" x="84.5" y="35" fill="#eceef0" rx="2.5"/><circle cx="64.5" cy="37" r="11" fill="#f1f3f5"/><path fill="#202425" d="M263.954 40.715c.397.273 1.241.471 1.861.471 2.703 0 4.018-1.761 4.018-4.713 0-2.567-1.55-3.695-3.125-3.695s-2.964 1.116-2.964 2.778c0 1.773 1.389 2.716 2.778 2.716 1.091 0 1.798-.496 2.083-1.03-.05 1.575-.843 2.853-2.79 2.853-.521 0-1.117-.174-1.464-.385zm4.49-5.184c0 1.066-.843 1.699-1.736 1.699-.918 0-1.737-.608-1.737-1.7 0-1.053.844-1.686 1.737-1.686.88 0 1.736.645 1.736 1.687m3.772 1.45c0-1.227.223-2.095.707-2.604.31-.322.707-.52 1.277-.52.571 0 .968.198 1.278.52.484.509.707 1.377.707 2.605s-.223 2.096-.707 2.604c-.31.323-.707.521-1.278.521-.57 0-.967-.198-1.277-.52-.484-.51-.707-1.377-.707-2.605m-1.203 0c0 1.105.186 2.121.72 2.915.52.782 1.327 1.29 2.467 1.29s1.948-.508 2.468-1.29c.534-.794.72-1.81.72-2.914s-.186-2.12-.72-2.915c-.52-.781-1.327-1.29-2.468-1.29-1.14 0-1.947.509-2.467 1.29-.534.794-.72 1.811-.72 2.915m11.884-4.774h-1.129L277.515 41h1.128zM286.34 41v-8.036h-1.067c-.186.868-.955 1.488-2.071 1.513v.855h1.947V41zm2.808-4.018c0-1.228.223-2.096.707-2.605.31-.322.707-.52 1.277-.52s.967.198 1.277.52c.484.509.707 1.377.707 2.605s-.223 2.096-.707 2.604c-.31.323-.707.521-1.277.521s-.967-.198-1.277-.52c-.484-.51-.707-1.377-.707-2.605m-1.203 0c0 1.104.186 2.12.719 2.914.521.782 1.327 1.29 2.468 1.29s1.947-.508 2.468-1.29c.533-.794.719-1.81.719-2.914s-.186-2.12-.719-2.915c-.521-.781-1.327-1.29-2.468-1.29s-1.947.509-2.468 1.29c-.533.794-.719 1.811-.719 2.915m8.76 0c0-1.228.223-2.096.707-2.605.31-.322.707-.52 1.277-.52.571 0 .968.198 1.278.52.483.509.707 1.377.707 2.605s-.224 2.096-.707 2.604c-.31.323-.707.521-1.278.521-.57 0-.967-.198-1.277-.52-.484-.51-.707-1.377-.707-2.605m-1.203 0c0 1.104.186 2.12.719 2.914.521.782 1.327 1.29 2.468 1.29s1.948-.508 2.468-1.29c.534-.794.72-1.81.72-2.914s-.186-2.12-.72-2.915c-.52-.781-1.327-1.29-2.468-1.29s-1.947.509-2.468 1.29c-.533.794-.719 1.811-.719 2.915"/><rect width="270" height="35" x="45" y="59.5" fill="#fff" stroke="#eceef0" rx="3.5"/><rect width="158" height="5" x="84.5" y="75" fill="#eceef0" rx="2.5"/><circle cx="64.5" cy="77" r="11" fill="#f1f3f5"/><path fill="#202425" d="M271.077 72.964h-5.866v1.116h4.527s-2.952 2.245-3.312 6.92h1.253c.384-4.254 2.654-6.275 3.398-6.87zm.319 5.853c.112 1.265 1.265 2.381 2.977 2.381 1.786 0 2.952-1.227 2.952-2.74 0-1.662-1.154-2.667-2.729-2.667-.632 0-1.277.199-1.637.596l.595-2.307h3.436v-1.116h-4.242l-1.042 3.993c.41.149.769.31 1.191.471.347-.36.893-.583 1.463-.583.931 0 1.737.558 1.737 1.662 0 .992-.769 1.625-1.724 1.625-1.005 0-1.736-.67-1.811-1.662zm11.501-6.61h-1.129L277.515 81h1.128zM286.34 81v-8.036h-1.067c-.186.868-.955 1.488-2.071 1.513v.855h1.947V81zm2.808-4.018c0-1.228.223-2.096.707-2.605.31-.322.707-.52 1.277-.52s.967.198 1.277.52c.484.509.707 1.377.707 2.605s-.223 2.096-.707 2.604c-.31.323-.707.521-1.277.521s-.967-.198-1.277-.52c-.484-.51-.707-1.377-.707-2.605m-1.203 0c0 1.104.186 2.12.719 2.914.521.782 1.327 1.29 2.468 1.29s1.947-.508 2.468-1.29c.533-.793.719-1.81.719-2.914s-.186-2.12-.719-2.915c-.521-.781-1.327-1.29-2.468-1.29s-1.947.509-2.468 1.29c-.533.794-.719 1.811-.719 2.915m8.76 0c0-1.228.223-2.096.707-2.605.31-.322.707-.52 1.277-.52.571 0 .968.198 1.278.52.483.509.707 1.377.707 2.605s-.224 2.096-.707 2.604c-.31.323-.707.521-1.278.521-.57 0-.967-.198-1.277-.52-.484-.51-.707-1.377-.707-2.605m-1.203 0c0 1.104.186 2.12.719 2.914.521.782 1.327 1.29 2.468 1.29s1.948-.508 2.468-1.29c.534-.793.72-1.81.72-2.914s-.186-2.12-.72-2.915c-.52-.781-1.327-1.29-2.468-1.29s-1.947.509-2.468 1.29c-.533.794-.719 1.811-.719 2.915"/><rect width="270" height="35" x="45" y="99.5" fill="#fff" stroke="#eceef0" rx="3.5"/><rect width="158" height="5" x="84.5" y="115" fill="#eceef0" rx="2.5"/><circle cx="64.5" cy="117" r="11" fill="#f1f3f5"/><path fill="#202425" d="M269.71 113.224c-.372-.26-1.005-.446-1.736-.446-2.344 0-4.142 1.699-4.142 4.687 0 2.654 1.599 3.721 3.137 3.721 1.575 0 2.977-1.017 2.977-2.741 0-1.748-1.166-2.741-2.754-2.741-1.066 0-1.798.509-2.12 1.042.099-1.649 1.153-2.877 2.827-2.877.608 0 1.141.174 1.439.347zm-4.465 5.221c0-1.079.806-1.699 1.737-1.699.93 0 1.736.62 1.736 1.699 0 1.067-.794 1.687-1.736 1.687-.881 0-1.737-.633-1.737-1.687m6.971-1.463c0-1.228.223-2.096.707-2.605.31-.322.707-.521 1.277-.521.571 0 .968.199 1.278.521.484.509.707 1.377.707 2.605s-.223 2.096-.707 2.604c-.31.323-.707.521-1.278.521-.57 0-.967-.198-1.277-.521-.484-.508-.707-1.376-.707-2.604m-1.203 0c0 1.104.186 2.121.72 2.914.52.782 1.327 1.29 2.467 1.29s1.948-.508 2.468-1.29c.534-.793.72-1.81.72-2.914s-.186-2.121-.72-2.915c-.52-.781-1.327-1.289-2.468-1.289-1.14 0-1.947.508-2.467 1.289-.534.794-.72 1.811-.72 2.915m11.884-4.775h-1.129L277.515 121h1.128zM286.34 121v-8.036h-1.067c-.186.868-.955 1.488-2.071 1.513v.855h1.947V121zm2.808-4.018c0-1.228.223-2.096.707-2.605.31-.322.707-.521 1.277-.521s.967.199 1.277.521c.484.509.707 1.377.707 2.605s-.223 2.096-.707 2.604c-.31.323-.707.521-1.277.521s-.967-.198-1.277-.521c-.484-.508-.707-1.376-.707-2.604m-1.203 0c0 1.104.186 2.121.719 2.914.521.782 1.327 1.29 2.468 1.29s1.947-.508 2.468-1.29c.533-.793.719-1.81.719-2.914s-.186-2.121-.719-2.915c-.521-.781-1.327-1.289-2.468-1.289s-1.947.508-2.468 1.289c-.533.794-.719 1.811-.719 2.915m8.76 0c0-1.228.223-2.096.707-2.605.31-.322.707-.521 1.277-.521.571 0 .968.199 1.278.521.483.509.707 1.377.707 2.605s-.224 2.096-.707 2.604c-.31.323-.707.521-1.278.521-.57 0-.967-.198-1.277-.521-.484-.508-.707-1.376-.707-2.604m-1.203 0c0 1.104.186 2.121.719 2.914.521.782 1.327 1.29 2.468 1.29s1.948-.508 2.468-1.29c.534-.793.72-1.81.72-2.914s-.186-2.121-.72-2.915c-.52-.781-1.327-1.289-2.468-1.289s-1.947.508-2.468 1.289c-.533.794-.719 1.811-.719 2.915"/><rect width="270" height="35" x="45" y="139.5" fill="#fff" stroke="#eceef0" rx="3.5"/><rect width="158" height="5" x="84.5" y="155" fill="#eceef0" rx="2.5"/><circle cx="64.5" cy="157" r="11" fill="#f1f3f5"/><path fill="#202425" d="M264.602 158.817c.112 1.265 1.265 2.381 2.976 2.381 1.786 0 2.952-1.227 2.952-2.74 0-1.662-1.153-2.667-2.728-2.667-.633 0-1.278.199-1.637.595l.595-2.306h3.435v-1.116h-4.241l-1.042 3.993c.409.149.769.31 1.191.471.347-.359.893-.583 1.463-.583.93 0 1.736.558 1.736 1.662 0 .992-.769 1.625-1.724 1.625-1.004 0-1.736-.67-1.81-1.662zm6.794 0c.112 1.265 1.265 2.381 2.977 2.381 1.786 0 2.952-1.227 2.952-2.74 0-1.662-1.154-2.667-2.729-2.667-.632 0-1.277.199-1.637.595l.595-2.306h3.436v-1.116h-4.242l-1.042 3.993c.41.149.769.31 1.191.471.347-.359.893-.583 1.463-.583.931 0 1.737.558 1.737 1.662 0 .992-.769 1.625-1.724 1.625-1.005 0-1.736-.67-1.811-1.662zm11.501-6.61h-1.129L277.515 161h1.128zM286.34 161v-8.036h-1.067c-.186.868-.955 1.488-2.071 1.513v.855h1.947V161zm2.808-4.018c0-1.228.223-2.096.707-2.605.31-.322.707-.521 1.277-.521s.967.199 1.277.521c.484.509.707 1.377.707 2.605s-.223 2.096-.707 2.604c-.31.323-.707.521-1.277.521s-.967-.198-1.277-.521c-.484-.508-.707-1.376-.707-2.604m-1.203 0c0 1.104.186 2.121.719 2.914.521.782 1.327 1.29 2.468 1.29s1.947-.508 2.468-1.29c.533-.793.719-1.81.719-2.914s-.186-2.121-.719-2.915c-.521-.781-1.327-1.289-2.468-1.289s-1.947.508-2.468 1.289c-.533.794-.719 1.811-.719 2.915m8.76 0c0-1.228.223-2.096.707-2.605.31-.322.707-.521 1.277-.521.571 0 .968.199 1.278.521.483.509.707 1.377.707 2.605s-.224 2.096-.707 2.604c-.31.323-.707.521-1.278.521-.57 0-.967-.198-1.277-.521-.484-.508-.707-1.376-.707-2.604m-1.203 0c0 1.104.186 2.121.719 2.914.521.782 1.327 1.29 2.468 1.29s1.948-.508 2.468-1.29c.534-.793.72-1.81.72-2.914s-.186-2.121-.72-2.915c-.52-.781-1.327-1.289-2.468-1.289s-1.947.508-2.468 1.289c-.533.794-.719 1.811-.719 2.915"/><rect width="270" height="35" x="45" y="179.5" fill="#fff" stroke="#eceef0" rx="3.5"/><rect width="158" height="5" x="84.5" y="195" fill="#eceef0" rx="2.5"/><circle cx="64.5" cy="197" r="11" fill="#f1f3f5"/><path fill="#202425" d="M265.577 195.853a4 4 0 0 1-.024-.359c0-.918.496-1.65 1.55-1.65 1.017 0 1.513.682 1.513 1.414 0 .62-.347 1.19-1.104 1.674l-1.339.868c-1.364.881-1.885 1.885-1.91 3.2h5.63v-1.129h-4.129c.111-.496.52-.831.979-1.128l1.588-1.017c.917-.583 1.513-1.426 1.513-2.48 0-1.34-.992-2.468-2.716-2.468-1.761 0-2.778 1.227-2.778 2.604 0 .099 0 .211.012.322zm6.639 1.129c0-1.228.223-2.096.707-2.605.31-.322.707-.521 1.277-.521.571 0 .968.199 1.278.521.484.509.707 1.377.707 2.605s-.223 2.096-.707 2.604c-.31.323-.707.521-1.278.521-.57 0-.967-.198-1.277-.521-.484-.508-.707-1.376-.707-2.604m-1.203 0c0 1.104.186 2.121.72 2.914.52.782 1.327 1.29 2.467 1.29s1.948-.508 2.468-1.29c.534-.793.72-1.81.72-2.914s-.186-2.121-.72-2.915c-.52-.781-1.327-1.289-2.468-1.289-1.14 0-1.947.508-2.467 1.289-.534.794-.72 1.811-.72 2.915m11.884-4.775h-1.129L277.515 201h1.128zM286.34 201v-8.036h-1.067c-.186.868-.955 1.488-2.071 1.513v.855h1.947V201zm2.808-4.018c0-1.228.223-2.096.707-2.605.31-.322.707-.521 1.277-.521s.967.199 1.277.521c.484.509.707 1.377.707 2.605s-.223 2.096-.707 2.604c-.31.323-.707.521-1.277.521s-.967-.198-1.277-.521c-.484-.508-.707-1.376-.707-2.604m-1.203 0c0 1.104.186 2.121.719 2.914.521.782 1.327 1.29 2.468 1.29s1.947-.508 2.468-1.29c.533-.793.719-1.81.719-2.914s-.186-2.121-.719-2.915c-.521-.781-1.327-1.289-2.468-1.289s-1.947.508-2.468 1.289c-.533.794-.719 1.811-.719 2.915m8.76 0c0-1.228.223-2.096.707-2.605.31-.322.707-.521 1.277-.521.571 0 .968.199 1.278.521.483.509.707 1.377.707 2.605s-.224 2.096-.707 2.604c-.31.323-.707.521-1.278.521-.57 0-.967-.198-1.277-.521-.484-.508-.707-1.376-.707-2.604m-1.203 0c0 1.104.186 2.121.719 2.914.521.782 1.327 1.29 2.468 1.29s1.948-.508 2.468-1.29c.534-.793.72-1.81.72-2.914s-.186-2.121-.72-2.915c-.52-.781-1.327-1.289-2.468-1.289s-1.947.508-2.468 1.289c-.533.794-.719 1.811-.719 2.915"/><rect width="140" height="5" x="84.5" y="35" fill="#3fcf8e" rx="2.5"/><rect width="121" height="5" x="84.5" y="75" fill="#3fcf8e" rx="2.5"/><rect width="109" height="5" x="84.5" y="115" fill="#3fcf8e" rx="2.5"/><rect width="91" height="5" x="84.5" y="155" fill="#3fcf8e" rx="2.5"/><rect width="39" height="5" x="84.5" y="195" fill="#3fcf8e" rx="2.5"/></g><defs><clipPath id="a"><path fill="#fff" d="M.5 0h360v210H.5z"/></clipPath></defs></svg>