<svg width="360" height="210" viewBox="0 0 360 210" fill="none" xmlns="http://www.w3.org/2000/svg">
<g clip-path="url(#clip0_931_17674)">
<path d="M301.992 21H58.0083C54.69 21 52 23.7359 52 27.1109V309.889C52 313.264 54.69 316 58.0083 316H301.992C305.31 316 308 313.264 308 309.889V27.1109C308 23.7359 305.31 21 301.992 21Z" fill="#FBFCFD"/>
<path d="M116 21H84V53H116V21Z" fill="#DFE3E6"/>
<path d="M180 21H148V53H180V21Z" fill="#DFE3E6"/>
<path d="M244 21H212V53H244V21Z" fill="#DFE3E6"/>
<path d="M308 26.9164V53H276V21H301.879C305.256 21 308 23.6467 308 26.9164Z" fill="#DFE3E6"/>
<path d="M116 85H84V117H116V85Z" fill="#DFE3E6"/>
<path d="M180 85H148V117H180V85Z" fill="#DFE3E6"/>
<path d="M244 85H212V117H244V85Z" fill="#DFE3E6"/>
<path d="M308 85H276V117H308V85Z" fill="#DFE3E6"/>
<path d="M116 149H84V181H116V149Z" fill="#DFE3E6"/>
<path d="M180 149H148V181H180V149Z" fill="#DFE3E6"/>
<path d="M244 149H212V181H244V149Z" fill="#DFE3E6"/>
<path d="M308 149H276V181H308V149Z" fill="#DFE3E6"/>
<path d="M84 181H52V213H84V181Z" fill="#DFE3E6"/>
<path d="M148 181H116V213H148V181Z" fill="#DFE3E6"/>
<path d="M212 181H180V213H212V181Z" fill="#DFE3E6"/>
<path d="M276 181H244V213H276V181Z" fill="#DFE3E6"/>
<path d="M84 117H52V149H84V117Z" fill="#DFE3E6"/>
<path d="M148 117H116V149H148V117Z" fill="#DFE3E6"/>
<path d="M212 117H180V149H212V117Z" fill="#DFE3E6"/>
<path d="M276 117H244V149H276V117Z" fill="#DFE3E6"/>
<path d="M84 53H52V85H84V53Z" fill="#DFE3E6"/>
<path d="M148 53H116V85H148V53Z" fill="#DFE3E6"/>
<path d="M212 53H180V85H212V53Z" fill="#DFE3E6"/>
<path d="M276 53H244V85H276V53Z" fill="#DFE3E6"/>
<path d="M68.0947 45.1895C73.1176 45.1895 77.1895 41.1176 77.1895 36.0947C77.1895 31.0719 73.1176 27 68.0947 27C63.0718 27 59 31.0719 59 36.0947C59 41.1176 63.0718 45.1895 68.0947 45.1895Z" fill="#687076"/>
<path d="M68.0947 78.1895C73.1176 78.1895 77.1895 74.1176 77.1895 69.0947C77.1895 64.0719 73.1176 60 68.0947 60C63.0718 60 59 64.0719 59 69.0947C59 74.1176 63.0718 78.1895 68.0947 78.1895Z" fill="#687076"/>
<path d="M100.095 78.1895C105.118 78.1895 109.189 74.1176 109.189 69.0947C109.189 64.0719 105.118 60 100.095 60C95.0718 60 91 64.0719 91 69.0947C91 74.1176 95.0718 78.1895 100.095 78.1895Z" fill="#687076"/>
<path d="M132.095 78.1895C137.118 78.1895 141.189 74.1176 141.189 69.0947C141.189 64.0719 137.118 60 132.095 60C127.072 60 123 64.0719 123 69.0947C123 74.1176 127.072 78.1895 132.095 78.1895Z" fill="#687076"/>
<path d="M132.095 142.189C137.118 142.189 141.189 138.118 141.189 133.095C141.189 128.072 137.118 124 132.095 124C127.072 124 123 128.072 123 133.095C123 138.118 127.072 142.189 132.095 142.189Z" fill="#687076"/>
<path d="M196.095 174.189C201.118 174.189 205.189 170.118 205.189 165.095C205.189 160.072 201.118 156 196.095 156C191.072 156 187 160.072 187 165.095C187 170.118 191.072 174.189 196.095 174.189Z" fill="#ECEEF0"/>
<path d="M260.095 174.189C265.118 174.189 269.189 170.118 269.189 165.095C269.189 160.072 265.118 156 260.095 156C255.072 156 251 160.072 251 165.095C251 170.118 255.072 174.189 260.095 174.189Z" fill="#ECEEF0"/>
<path d="M292.095 206.189C297.118 206.189 301.189 202.118 301.189 197.095C301.189 192.072 297.118 188 292.095 188C287.072 188 283 192.072 283 197.095C283 202.118 287.072 206.189 292.095 206.189Z" fill="#ECEEF0"/>
<path d="M132.095 206.189C137.118 206.189 141.189 202.118 141.189 197.095C141.189 192.072 137.118 188 132.095 188C127.072 188 123 192.072 123 197.095C123 202.118 127.072 206.189 132.095 206.189Z" fill="#ECEEF0"/>
<path d="M68.0947 206.189C73.1176 206.189 77.1895 202.118 77.1895 197.095C77.1895 192.072 73.1176 188 68.0947 188C63.0718 188 59 192.072 59 197.095C59 202.118 63.0718 206.189 68.0947 206.189Z" fill="#ECEEF0"/>
<path d="M164.095 78.1895C169.118 78.1895 173.189 74.1176 173.189 69.0947C173.189 64.0719 169.118 60 164.095 60C159.072 60 155 64.0719 155 69.0947C155 74.1176 159.072 78.1895 164.095 78.1895Z" fill="#687076"/>
<path d="M198.726 78.9463C203.748 78.9463 207.82 74.8745 207.82 69.8516C207.82 64.8287 203.748 60.7568 198.726 60.7568C193.703 60.7568 189.631 64.8287 189.631 69.8516C189.631 74.8745 193.703 78.9463 198.726 78.9463Z" fill="#687076"/>
<path d="M228.095 78.1895C233.118 78.1895 237.189 74.1176 237.189 69.0947C237.189 64.0719 233.118 60 228.095 60C223.072 60 219 64.0719 219 69.0947C219 74.1176 223.072 78.1895 228.095 78.1895Z" fill="#687076"/>
<path d="M228.095 46.1895C233.118 46.1895 237.189 42.1176 237.189 37.0947C237.189 32.0719 233.118 28 228.095 28C223.072 28 219 32.0719 219 37.0947C219 42.1176 223.072 46.1895 228.095 46.1895Z" fill="#687076"/>
<path d="M260.095 78.1895C265.118 78.1895 269.189 74.1176 269.189 69.0947C269.189 64.0719 265.118 60 260.095 60C255.072 60 251 64.0719 251 69.0947C251 74.1176 255.072 78.1895 260.095 78.1895Z" fill="#687076"/>
<path d="M292.095 110.189C297.118 110.189 301.189 106.118 301.189 101.095C301.189 96.0719 297.118 92 292.095 92C287.072 92 283 96.0719 283 101.095C283 106.118 287.072 110.189 292.095 110.189Z" fill="#687076"/>
<path d="M228.095 110.189C233.118 110.189 237.189 106.118 237.189 101.095C237.189 96.0719 233.118 92 228.095 92C223.072 92 219 96.0719 219 101.095C219 106.118 223.072 110.189 228.095 110.189Z" fill="#687076"/>
<path d="M164.095 110.189C169.118 110.189 173.189 106.118 173.189 101.095C173.189 96.0719 169.118 92 164.095 92C159.072 92 155 96.0719 155 101.095C155 106.118 159.072 110.189 164.095 110.189Z" fill="#687076"/>
<path d="M260.095 46.1895C265.118 46.1895 269.189 42.1176 269.189 37.0947C269.189 32.0719 265.118 28 260.095 28C255.072 28 251 32.0719 251 37.0947C251 42.1176 255.072 46.1895 260.095 46.1895Z" fill="#687076"/>
<path d="M155.386 108.565H107.432V157.346H155.386V108.565Z" stroke="#3FCF8E" stroke-width="3.13" stroke-miterlimit="10"/>
<path d="M94 132.417L107.022 124.899L107.022 139.936L94 132.417Z" fill="#3FCF8E"/>
<path d="M150.425 113.526H112.393V152.385H150.425V113.526Z" fill="#17C573"/>
<path d="M131.409 142.464C136.432 142.464 140.504 138.392 140.504 133.369C140.504 128.346 136.432 124.274 131.409 124.274C126.386 124.274 122.314 128.346 122.314 133.369C122.314 138.392 126.386 142.464 131.409 142.464Z" fill="#FBFCFD"/>
<path d="M215 184L215 146L177 146L177 184L215 184Z" fill="#17C573"/>
<path d="M187 165.095C187 170.118 191.072 174.189 196.095 174.189C201.118 174.189 205.189 170.118 205.189 165.095C205.189 160.072 201.118 156 196.095 156C191.072 156 187 160.072 187 165.095Z" fill="#ECEEF0"/>
</g>
<defs>
<clipPath id="clip0_931_17674">
<rect width="360" height="210" fill="white"/>
</clipPath>
</defs>
</svg>
