<svg xmlns="http://www.w3.org/2000/svg" width="361" height="210" fill="none" viewBox="0 0 361 210"><g clip-path="url(#a)"><path fill="#fff" stroke="#eceef0" stroke-width=".827" d="M58.508 21.413h243.984c3.083 0 5.595 2.545 5.595 5.698v282.778c0 3.153-2.512 5.698-5.595 5.698H58.508c-3.083 0-5.595-2.545-5.595-5.698V27.111c0-3.153 2.512-5.698 5.595-5.698Z"/><path fill="#d7dbdf" d="M116.5 21h-32v32h32zM180.5 21h-32v32h32zM244.5 21h-32v32h32zM308.5 26.916V53h-32V21h25.879c3.377 0 6.121 2.647 6.121 5.916M116.5 85h-32v32h32zM180.5 85h-32v32h32zM244.5 85h-32v32h32zM308.5 85h-32v32h32zM116.5 149h-32v32h32zM180.5 149h-32v32h32zM244.5 149h-32v32h32zM308.5 149h-32v32h32zM84.5 181h-32v32h32zM148.5 181h-32v32h32zM212.5 181h-32v32h32zM276.5 181h-32v32h32zM84.5 117h-32v32h32zM148.5 117h-32v32h32zM212.5 117h-32v32h32zM276.5 117h-32v32h32zM84.5 53h-32v32h32zM148.5 53h-32v32h32zM212.5 53h-32v32h32zM276.5 53h-32v32h32z"/><path fill="#9ba1a6" d="M68.595 45.19a9.095 9.095 0 1 0 0-18.19 9.095 9.095 0 0 0 0 18.19M68.595 78.19a9.095 9.095 0 1 0 0-18.19 9.095 9.095 0 0 0 0 18.19M100.595 78.19a9.094 9.094 0 0 0 9.094-9.095 9.095 9.095 0 1 0-9.094 9.095M132.595 78.19a9.094 9.094 0 0 0 9.094-9.095 9.095 9.095 0 1 0-9.094 9.095"/><path fill="#a0a0a0" d="M132.595 142.189a9.093 9.093 0 0 0 9.094-9.094 9.095 9.095 0 1 0-9.094 9.094"/><path fill="#282828" d="M196.595 174.189a9.093 9.093 0 0 0 9.094-9.094 9.095 9.095 0 1 0-9.094 9.094"/><path fill="#eceef0" d="M260.595 174.189a9.093 9.093 0 0 0 9.094-9.094 9.095 9.095 0 1 0-9.094 9.094M292.595 206.189a9.093 9.093 0 0 0 9.094-9.094 9.095 9.095 0 1 0-9.094 9.094M132.595 206.189a9.093 9.093 0 0 0 9.094-9.094 9.095 9.095 0 1 0-9.094 9.094M68.595 206.189a9.095 9.095 0 1 0 0-18.188 9.095 9.095 0 0 0 0 18.188"/><path fill="#9ba1a6" d="M164.595 78.19a9.094 9.094 0 0 0 9.094-9.095 9.095 9.095 0 1 0-9.094 9.095M196.226 78.946a9.095 9.095 0 0 0 9.094-9.094 9.095 9.095 0 1 0-9.094 9.094M228.595 78.19a9.094 9.094 0 0 0 9.094-9.095 9.095 9.095 0 1 0-9.094 9.095M228.595 46.19a9.094 9.094 0 0 0 9.094-9.095 9.095 9.095 0 1 0-9.094 9.095M260.595 78.19a9.094 9.094 0 0 0 9.094-9.095 9.095 9.095 0 1 0-9.094 9.095M292.595 110.189a9.093 9.093 0 0 0 9.094-9.094 9.095 9.095 0 1 0-9.094 9.094M228.595 110.189a9.093 9.093 0 0 0 9.094-9.094 9.095 9.095 0 1 0-9.094 9.094M164.595 110.189a9.093 9.093 0 0 0 9.094-9.094 9.095 9.095 0 1 0-9.094 9.094M260.595 46.19a9.094 9.094 0 0 0 9.094-9.095 9.095 9.095 0 1 0-9.094 9.095"/><path stroke="#3fcf8e" stroke-miterlimit="10" stroke-width="3.13" d="M155.886 108.565h-47.954v48.781h47.954z"/><path fill="#3fcf8e" d="m94.5 132.417 13.022-7.518v15.037zM150.925 113.526h-38.032v38.859h38.032z"/><path fill="#202425" d="M131.909 142.464a9.095 9.095 0 1 0 0-18.19 9.095 9.095 0 0 0 0 18.19"/><path fill="#eceef0" d="M187.5 165.095a9.094 9.094 0 0 0 9.095 9.094 9.093 9.093 0 0 0 9.094-9.094 9.095 9.095 0 0 0-18.189 0"/></g><defs><clipPath id="a"><path fill="#fff" d="M.5 0h360v210H.5z"/></clipPath></defs></svg>