<svg width="361" height="210" viewBox="0 0 361 210" fill="none" xmlns="http://www.w3.org/2000/svg">
<rect x="59.5892" y="58.4134" width="241.173" height="130.173" rx="7.5866" fill="#E6E8EB" stroke="#ECEEF0" stroke-width="0.826794"/>
<rect x="49.8743" y="37.2957" width="260.44" height="141.382" rx="7.5866" fill="#ECEEF0" stroke="#ECEEF0" stroke-width="0.826794"/>
<rect x="45" y="21.5" width="270.188" height="146.169" rx="7.5" fill="white" stroke="#ECEEF0"/>
<rect x="59.3818" y="35.8823" width="24.8038" height="24.8038" rx="4.13397" fill="#3FCF8E"/>
<path d="M98.131 46.133C97.939 45.209 97.171 44.021 95.251 44.021C93.679 44.021 92.443 45.221 92.443 46.553C92.443 47.825 93.307 48.617 94.519 48.881L95.731 49.145C96.583 49.325 97.003 49.853 97.003 50.465C97.003 51.209 96.427 51.821 95.251 51.821C93.967 51.821 93.295 50.945 93.211 49.997L92.083 50.357C92.239 51.569 93.211 52.889 95.263 52.889C97.075 52.889 98.203 51.689 98.203 50.369C98.203 49.181 97.411 48.293 95.995 47.981L94.723 47.705C94.003 47.549 93.631 47.081 93.631 46.469C93.631 45.677 94.315 45.053 95.275 45.053C96.463 45.053 96.979 45.893 97.075 46.505L98.131 46.133ZM103.2 52.013C103.2 52.253 103.224 52.577 103.248 52.709H104.328C104.304 52.505 104.268 52.097 104.268 51.641V46.937H103.14V50.417C103.14 51.293 102.684 51.893 101.772 51.893C100.824 51.893 100.464 51.197 100.464 50.405V46.937H99.3355V50.573C99.3355 51.881 100.152 52.889 101.496 52.889C102.168 52.889 102.888 52.613 103.2 52.013ZM107.308 54.989V51.929C107.62 52.445 108.292 52.865 109.18 52.865C110.872 52.865 111.868 51.533 111.868 49.817C111.868 48.137 110.944 46.805 109.216 46.805C108.28 46.805 107.596 47.261 107.284 47.837V46.937H106.192V54.989H107.308ZM110.716 49.817C110.716 51.005 110.056 51.857 109.012 51.857C107.98 51.857 107.296 51.005 107.296 49.817C107.296 48.665 107.98 47.801 109.012 47.801C110.068 47.801 110.716 48.665 110.716 49.817ZM112.946 51.161C112.946 52.073 113.702 52.889 114.878 52.889C115.91 52.889 116.486 52.337 116.738 51.929C116.738 52.349 116.774 52.565 116.798 52.709H117.902C117.878 52.565 117.83 52.265 117.83 51.761V48.869C117.83 47.741 117.158 46.757 115.43 46.757C114.182 46.757 113.186 47.525 113.066 48.629L114.146 48.881C114.218 48.209 114.662 47.717 115.454 47.717C116.33 47.717 116.702 48.185 116.702 48.749C116.702 48.953 116.606 49.133 116.258 49.181L114.698 49.409C113.702 49.553 112.946 50.129 112.946 51.161ZM115.034 51.941C114.458 51.941 114.098 51.533 114.098 51.101C114.098 50.585 114.458 50.309 114.938 50.237L116.702 49.973V50.237C116.702 51.497 115.958 51.941 115.034 51.941ZM120.703 52.709V51.869C121.063 52.493 121.723 52.865 122.575 52.865C124.291 52.865 125.263 51.509 125.263 49.793C125.263 48.113 124.363 46.769 122.611 46.769C121.651 46.769 120.979 47.237 120.703 47.753V44.021H119.587V52.709H120.703ZM124.111 49.793C124.111 51.041 123.439 51.857 122.407 51.857C121.411 51.857 120.691 51.041 120.691 49.793C120.691 48.545 121.411 47.765 122.407 47.765C123.451 47.765 124.111 48.545 124.111 49.793ZM126.34 51.161C126.34 52.073 127.096 52.889 128.272 52.889C129.304 52.889 129.88 52.337 130.132 51.929C130.132 52.349 130.168 52.565 130.192 52.709H131.296C131.272 52.565 131.224 52.265 131.224 51.761V48.869C131.224 47.741 130.552 46.757 128.824 46.757C127.576 46.757 126.58 47.525 126.46 48.629L127.54 48.881C127.612 48.209 128.056 47.717 128.848 47.717C129.724 47.717 130.096 48.185 130.096 48.749C130.096 48.953 130 49.133 129.652 49.181L128.092 49.409C127.096 49.553 126.34 50.129 126.34 51.161ZM128.428 51.941C127.852 51.941 127.492 51.533 127.492 51.101C127.492 50.585 127.852 50.309 128.332 50.237L130.096 49.973V50.237C130.096 51.497 129.352 51.941 128.428 51.941ZM132.441 51.209C132.537 51.869 133.209 52.889 134.793 52.889C136.221 52.889 136.905 51.917 136.905 51.101C136.905 50.249 136.353 49.613 135.309 49.385L134.373 49.181C133.929 49.085 133.713 48.833 133.713 48.485C133.713 48.089 134.097 47.717 134.673 47.717C135.585 47.717 135.825 48.377 135.873 48.677L136.869 48.305C136.749 47.789 136.257 46.757 134.673 46.757C133.545 46.757 132.621 47.597 132.621 48.581C132.621 49.397 133.161 50.009 134.061 50.201L135.045 50.417C135.525 50.525 135.789 50.801 135.789 51.161C135.789 51.569 135.441 51.929 134.805 51.929C133.989 51.929 133.533 51.449 133.461 50.849L132.441 51.209ZM139.081 49.229C139.129 48.485 139.705 47.753 140.653 47.753C141.673 47.753 142.213 48.401 142.237 49.229H139.081ZM142.405 50.729C142.189 51.377 141.721 51.893 140.785 51.893C139.813 51.893 139.069 51.173 139.045 50.141H143.389C143.401 50.069 143.413 49.925 143.413 49.781C143.413 47.981 142.417 46.757 140.641 46.757C139.189 46.757 137.881 47.993 137.881 49.805C137.881 51.761 139.237 52.889 140.785 52.889C142.129 52.889 143.053 52.085 143.377 51.065L142.405 50.729ZM147.493 51.161C147.493 52.073 148.249 52.889 149.425 52.889C150.457 52.889 151.033 52.337 151.285 51.929C151.285 52.349 151.321 52.565 151.345 52.709H152.449C152.425 52.565 152.377 52.265 152.377 51.761V48.869C152.377 47.741 151.705 46.757 149.977 46.757C148.729 46.757 147.733 47.525 147.613 48.629L148.693 48.881C148.765 48.209 149.209 47.717 150.001 47.717C150.877 47.717 151.249 48.185 151.249 48.749C151.249 48.953 151.153 49.133 150.805 49.181L149.245 49.409C148.249 49.553 147.493 50.129 147.493 51.161ZM149.581 51.941C149.005 51.941 148.645 51.533 148.645 51.101C148.645 50.585 149.005 50.309 149.485 50.237L151.249 49.973V50.237C151.249 51.497 150.505 51.941 149.581 51.941ZM155.25 54.989V51.929C155.562 52.445 156.234 52.865 157.122 52.865C158.814 52.865 159.81 51.533 159.81 49.817C159.81 48.137 158.886 46.805 157.158 46.805C156.222 46.805 155.538 47.261 155.226 47.837V46.937H154.134V54.989H155.25ZM158.658 49.817C158.658 51.005 157.998 51.857 156.954 51.857C155.922 51.857 155.238 51.005 155.238 49.817C155.238 48.665 155.922 47.801 156.954 47.801C158.01 47.801 158.658 48.665 158.658 49.817ZM162.363 54.989V51.929C162.675 52.445 163.347 52.865 164.235 52.865C165.927 52.865 166.923 51.533 166.923 49.817C166.923 48.137 165.999 46.805 164.271 46.805C163.335 46.805 162.651 47.261 162.339 47.837V46.937H161.247V54.989H162.363ZM165.771 49.817C165.771 51.005 165.111 51.857 164.067 51.857C163.035 51.857 162.351 51.005 162.351 49.817C162.351 48.665 163.035 47.801 164.067 47.801C165.123 47.801 165.771 48.665 165.771 49.817Z" fill="#9BA1A6"/>
<path d="M66.1258 84.9541H67.9258L64.6858 76.4461H62.7658L59.5018 84.9541H61.2538L61.9618 83.0101H65.4178L66.1258 84.9541ZM63.6898 78.2821L64.8658 81.4981H62.5138L63.6898 78.2821ZM70.4666 81.5581C70.4666 80.8741 70.8746 80.3341 71.5706 80.3341C72.3386 80.3341 72.6626 80.8501 72.6626 81.5101V84.9541H74.2586V81.2341C74.2586 79.9381 73.5866 78.8941 72.1226 78.8941C71.4866 78.8941 70.7786 79.1701 70.4186 79.7821V79.0501H68.8706V84.9541H70.4666V81.5581ZM81.5064 76.2661H79.9344V79.6381C79.7664 79.3261 79.2864 78.9061 78.2664 78.9061C76.5984 78.9061 75.4344 80.2621 75.4344 81.9901C75.4344 83.7781 76.6344 85.0981 78.3144 85.0981C79.1064 85.0981 79.7064 84.7381 79.9704 84.2701C79.9704 84.5461 80.0064 84.8341 80.0304 84.9541H81.5544C81.5304 84.7141 81.5064 84.2821 81.5064 83.8861V76.2661ZM77.0424 81.9901C77.0424 80.9341 77.6904 80.3341 78.5064 80.3341C79.3224 80.3341 79.9584 80.9221 79.9584 81.9781C79.9584 83.0461 79.3224 83.6701 78.5064 83.6701C77.6664 83.6701 77.0424 83.0461 77.0424 81.9901ZM86.8377 79.0261C86.7177 79.0141 86.5977 79.0021 86.4657 79.0021C85.9617 79.0021 85.1457 79.1461 84.7857 79.9261V79.0501H83.2377V84.9541H84.8337V82.2541C84.8337 80.9821 85.5417 80.5861 86.3577 80.5861C86.5017 80.5861 86.6577 80.5981 86.8377 80.6341V79.0261ZM89.0658 81.3301C89.1018 80.7901 89.5578 80.1661 90.3858 80.1661C91.2978 80.1661 91.6818 80.7421 91.7058 81.3301H89.0658ZM91.8618 82.8661C91.6698 83.3941 91.2618 83.7661 90.5178 83.7661C89.7258 83.7661 89.0658 83.2021 89.0298 82.4221H93.2538C93.2538 82.3981 93.2778 82.1581 93.2778 81.9301C93.2778 80.0341 92.1858 78.8701 90.3618 78.8701C88.8498 78.8701 87.4578 80.0941 87.4578 81.9781C87.4578 83.9701 88.8858 85.1341 90.5058 85.1341C91.9578 85.1341 92.8938 84.2821 93.1938 83.2621L91.8618 82.8661ZM97.7889 79.0501L96.5049 82.8421L95.4129 79.0501H93.7329L95.6169 84.9541H97.2369L98.5929 80.9221L99.9729 84.9541H101.569L103.417 79.0501H101.833L100.741 82.8541L99.4689 79.0501H97.7889Z" fill="#202425"/>
<path d="M61.6618 104.931V96.4232H60.4618V104.931H61.6618ZM69.1291 100.023C70.1131 100.023 70.5331 100.683 70.6771 101.247L71.6971 100.815C71.4571 99.9392 70.6651 98.9792 69.1291 98.9792C67.4851 98.9792 66.2251 100.239 66.2251 102.039C66.2251 103.791 67.4611 105.111 69.1411 105.111C70.6411 105.111 71.4691 104.139 71.7451 103.311L70.7491 102.879C70.6171 103.335 70.2211 104.067 69.1411 104.067C68.2051 104.067 67.3771 103.359 67.3771 102.039C67.3771 100.695 68.2171 100.023 69.1291 100.023ZM72.6498 103.383C72.6498 104.295 73.4058 105.111 74.5818 105.111C75.6138 105.111 76.1898 104.559 76.4418 104.151C76.4418 104.571 76.4778 104.787 76.5018 104.931H77.6058C77.5818 104.787 77.5338 104.487 77.5338 103.983V101.091C77.5338 99.9632 76.8618 98.9792 75.1338 98.9792C73.8858 98.9792 72.8898 99.7472 72.7698 100.851L73.8498 101.103C73.9218 100.431 74.3658 99.9392 75.1578 99.9392C76.0338 99.9392 76.4058 100.407 76.4058 100.971C76.4058 101.175 76.3098 101.355 75.9618 101.403L74.4018 101.631C73.4058 101.775 72.6498 102.351 72.6498 103.383ZM74.7378 104.163C74.1618 104.163 73.8018 103.755 73.8018 103.323C73.8018 102.807 74.1618 102.531 74.6418 102.459L76.4058 102.195V102.459C76.4058 103.719 75.6618 104.163 74.7378 104.163ZM80.4191 101.595C80.4191 100.719 80.8751 100.011 81.7631 100.011C82.7711 100.011 83.1071 100.659 83.1071 101.463V104.931H84.2351V101.271C84.2351 99.9872 83.5511 98.9912 82.1711 98.9912C81.4991 98.9912 80.8151 99.2672 80.3951 99.9872V99.1592H79.2911V104.931H80.4191V101.595ZM91.4533 100.023C92.4373 100.023 92.8573 100.683 93.0013 101.247L94.0213 100.815C93.7813 99.9392 92.9893 98.9792 91.4533 98.9792C89.8093 98.9792 88.5493 100.239 88.5493 102.039C88.5493 103.791 89.7853 105.111 91.4653 105.111C92.9653 105.111 93.7933 104.139 94.0693 103.311L93.0733 102.879C92.9413 103.335 92.5453 104.067 91.4653 104.067C90.5293 104.067 89.7013 103.359 89.7013 102.039C89.7013 100.695 90.5413 100.023 91.4533 100.023ZM97.806 104.103C96.846 104.103 96.006 103.383 96.006 102.039C96.006 100.707 96.846 99.9872 97.806 99.9872C98.766 99.9872 99.606 100.707 99.606 102.039C99.606 103.383 98.766 104.103 97.806 104.103ZM97.806 98.9792C96.078 98.9792 94.854 100.287 94.854 102.039C94.854 103.803 96.078 105.111 97.806 105.111C99.534 105.111 100.758 103.803 100.758 102.039C100.758 100.287 99.534 98.9792 97.806 98.9792ZM103.329 101.595C103.329 100.719 103.785 100.011 104.673 100.011C105.681 100.011 106.017 100.659 106.017 101.463V104.931H107.145V101.271C107.145 99.9872 106.461 98.9912 105.081 98.9912C104.409 98.9912 103.725 99.2672 103.305 99.9872V99.1592H102.201V104.931H103.329V101.595ZM111.183 96.2072C110.139 96.2072 109.287 96.9032 109.287 98.1872V99.1592H108.219V100.179H109.287V104.931H110.451V100.179H113.151V104.931H114.267V99.1592H110.451V98.2352C110.451 97.4432 110.967 97.2632 111.363 97.2632C111.651 97.2632 111.795 97.3112 111.855 97.3352V96.3272C111.807 96.2912 111.567 96.2072 111.183 96.2072ZM112.899 96.9512C112.899 97.3952 113.259 97.7552 113.703 97.7552C114.159 97.7552 114.519 97.3952 114.519 96.9512C114.519 96.4952 114.159 96.1352 113.703 96.1352C113.259 96.1352 112.899 96.4952 112.899 96.9512ZM119.386 99.0992C119.326 99.0872 119.17 99.0632 119.014 99.0632C118.426 99.0632 117.706 99.2792 117.286 100.167V99.1592H116.182V104.931H117.31V102.039C117.31 100.767 117.946 100.263 118.894 100.263C119.05 100.263 119.218 100.275 119.386 100.299V99.0992ZM121.704 104.931V101.451C121.704 100.587 122.244 99.9872 123.048 99.9872C123.912 99.9872 124.272 100.563 124.272 101.307V104.931H125.4V101.439C125.4 100.611 125.94 99.9872 126.732 99.9872C127.584 99.9872 127.956 100.551 127.956 101.307V104.931H129.072V101.187C129.072 99.6752 128.088 98.9912 127.08 98.9912C126.348 98.9912 125.604 99.2552 125.148 100.083C124.836 99.3392 124.14 98.9912 123.42 98.9912C122.748 98.9912 122.028 99.2912 121.668 99.9272V99.1592H120.588V104.931H121.704ZM139.889 104.931H141.161L137.777 96.4232H136.421L133.037 104.931H134.297L135.197 102.555H138.965L139.889 104.931ZM137.069 97.6472L138.545 101.463H135.617L137.069 97.6472ZM143.314 101.595C143.314 100.719 143.77 100.011 144.658 100.011C145.666 100.011 146.002 100.659 146.002 101.463V104.931H147.13V101.271C147.13 99.9872 146.446 98.9912 145.066 98.9912C144.394 98.9912 143.71 99.2672 143.29 99.9872V99.1592H142.186V104.931H143.314V101.595ZM150.436 97.3352H149.404V98.2712C149.404 98.7752 149.14 99.1592 148.516 99.1592H148.204V100.179H149.308V103.347C149.308 104.391 149.932 104.991 150.916 104.991C151.3 104.991 151.588 104.919 151.684 104.883V103.923C151.588 103.947 151.384 103.971 151.24 103.971C150.652 103.971 150.436 103.707 150.436 103.179V100.179H151.684V99.1592H150.436V97.3352ZM157.305 104.931V99.1592H156.189V104.931H157.305ZM155.937 96.9752C155.937 97.4192 156.297 97.7792 156.741 97.7792C157.197 97.7792 157.557 97.4192 157.557 96.9752C157.557 96.5192 157.197 96.1592 156.741 96.1592C156.297 96.1592 155.937 96.5192 155.937 96.9752ZM158.685 103.431C158.781 104.091 159.453 105.111 161.037 105.111C162.465 105.111 163.149 104.139 163.149 103.323C163.149 102.471 162.597 101.835 161.553 101.607L160.617 101.403C160.173 101.307 159.957 101.055 159.957 100.707C159.957 100.311 160.341 99.9392 160.917 99.9392C161.829 99.9392 162.069 100.599 162.117 100.899L163.113 100.527C162.993 100.011 162.501 98.9792 160.917 98.9792C159.789 98.9792 158.865 99.8192 158.865 100.803C158.865 101.619 159.405 102.231 160.305 102.423L161.289 102.639C161.769 102.747 162.033 103.023 162.033 103.383C162.033 103.791 161.685 104.151 161.049 104.151C160.233 104.151 159.777 103.671 159.705 103.071L158.685 103.431ZM167.29 103.383C167.29 104.295 168.046 105.111 169.222 105.111C170.254 105.111 170.83 104.559 171.082 104.151C171.082 104.571 171.118 104.787 171.142 104.931H172.246C172.222 104.787 172.174 104.487 172.174 103.983V101.091C172.174 99.9632 171.502 98.9792 169.774 98.9792C168.526 98.9792 167.53 99.7472 167.41 100.851L168.49 101.103C168.562 100.431 169.006 99.9392 169.798 99.9392C170.674 99.9392 171.046 100.407 171.046 100.971C171.046 101.175 170.95 101.355 170.602 101.403L169.042 101.631C168.046 101.775 167.29 102.351 167.29 103.383ZM169.378 104.163C168.802 104.163 168.442 103.755 168.442 103.323C168.442 102.807 168.802 102.531 169.282 102.459L171.046 102.195V102.459C171.046 103.719 170.302 104.163 169.378 104.163ZM180.184 99.1592L178.684 103.503L177.388 99.1592H176.152L178.048 104.931H179.236L180.736 100.539L182.272 104.931H183.436L185.308 99.1592H184.12L182.848 103.503L181.348 99.1592H180.184ZM186.029 103.383C186.029 104.295 186.785 105.111 187.961 105.111C188.993 105.111 189.569 104.559 189.821 104.151C189.821 104.571 189.857 104.787 189.881 104.931H190.985C190.961 104.787 190.913 104.487 190.913 103.983V101.091C190.913 99.9632 190.241 98.9792 188.513 98.9792C187.265 98.9792 186.269 99.7472 186.149 100.851L187.229 101.103C187.301 100.431 187.745 99.9392 188.537 99.9392C189.413 99.9392 189.785 100.407 189.785 100.971C189.785 101.175 189.689 101.355 189.341 101.403L187.781 101.631C186.785 101.775 186.029 102.351 186.029 103.383ZM188.117 104.163C187.541 104.163 187.181 103.755 187.181 103.323C187.181 102.807 187.541 102.531 188.021 102.459L189.785 102.195V102.459C189.785 103.719 189.041 104.163 188.117 104.163ZM193.798 104.931V96.2432H192.67V104.931H193.798ZM200.889 99.1592H199.329L196.833 101.715V96.2432H195.717V104.931H196.833V103.191L197.637 102.387L199.521 104.931H200.937L198.429 101.595L200.889 99.1592ZM203.138 104.931V99.1592H202.022V104.931H203.138ZM201.77 96.9752C201.77 97.4192 202.13 97.7792 202.574 97.7792C203.03 97.7792 203.39 97.4192 203.39 96.9752C203.39 96.5192 203.03 96.1592 202.574 96.1592C202.13 96.1592 201.77 96.5192 201.77 96.9752ZM206.185 101.595C206.185 100.719 206.641 100.011 207.529 100.011C208.537 100.011 208.873 100.659 208.873 101.463V104.931H210.001V101.271C210.001 99.9872 209.317 98.9912 207.937 98.9912C207.265 98.9912 206.581 99.2672 206.161 99.9872V99.1592H205.057V104.931H206.185V101.595ZM211.375 105.243C211.519 106.479 212.599 107.391 214.039 107.391C216.211 107.391 216.931 105.963 216.931 104.499V99.1592H215.815V99.9632C215.527 99.3872 214.927 99.0512 214.039 99.0512C212.455 99.0512 211.387 100.299 211.387 101.859C211.387 103.491 212.503 104.655 214.039 104.655C214.903 104.655 215.527 104.235 215.803 103.707V104.535C215.803 105.783 215.251 106.407 214.039 106.407C213.163 106.407 212.551 105.795 212.467 104.991L211.375 105.243ZM214.207 103.707C213.187 103.707 212.539 102.987 212.539 101.859C212.539 100.743 213.211 100.011 214.207 100.011C215.179 100.011 215.851 100.743 215.851 101.859C215.851 102.975 215.179 103.707 214.207 103.707ZM222.848 104.931V101.451C222.848 100.587 223.388 99.9872 224.192 99.9872C225.056 99.9872 225.416 100.563 225.416 101.307V104.931H226.544V101.439C226.544 100.611 227.084 99.9872 227.876 99.9872C228.728 99.9872 229.1 100.551 229.1 101.307V104.931H230.216V101.187C230.216 99.6752 229.232 98.9912 228.224 98.9912C227.492 98.9912 226.748 99.2552 226.292 100.083C225.98 99.3392 225.284 98.9912 224.564 98.9912C223.892 98.9912 223.172 99.2912 222.812 99.9272V99.1592H221.732V104.931H222.848ZM232.754 101.451C232.802 100.707 233.378 99.9752 234.326 99.9752C235.346 99.9752 235.886 100.623 235.91 101.451H232.754ZM236.078 102.951C235.862 103.599 235.394 104.115 234.458 104.115C233.486 104.115 232.742 103.395 232.718 102.363H237.062C237.074 102.291 237.086 102.147 237.086 102.003C237.086 100.203 236.09 98.9792 234.314 98.9792C232.862 98.9792 231.554 100.215 231.554 102.027C231.554 103.983 232.91 105.111 234.458 105.111C235.802 105.111 236.726 104.307 237.05 103.287L236.078 102.951ZM239.641 104.931V101.451C239.641 100.587 240.181 99.9872 240.985 99.9872C241.849 99.9872 242.209 100.563 242.209 101.307V104.931H243.337V101.439C243.337 100.611 243.877 99.9872 244.669 99.9872C245.521 99.9872 245.893 100.551 245.893 101.307V104.931H247.009V101.187C247.009 99.6752 246.025 98.9912 245.017 98.9912C244.285 98.9912 243.541 99.2552 243.085 100.083C242.773 99.3392 242.077 98.9912 241.357 98.9912C240.685 98.9912 239.965 99.2912 239.605 99.9272V99.1592H238.525V104.931H239.641ZM249.546 101.451C249.594 100.707 250.17 99.9752 251.118 99.9752C252.138 99.9752 252.678 100.623 252.702 101.451H249.546ZM252.87 102.951C252.654 103.599 252.186 104.115 251.25 104.115C250.278 104.115 249.534 103.395 249.51 102.363H253.854C253.866 102.291 253.878 102.147 253.878 102.003C253.878 100.203 252.882 98.9792 251.106 98.9792C249.654 98.9792 248.346 100.215 248.346 102.027C248.346 103.983 249.702 105.111 251.25 105.111C252.594 105.111 253.518 104.307 253.842 103.287L252.87 102.951ZM59.9218 120.243C60.0658 121.479 61.1458 122.391 62.5858 122.391C64.7578 122.391 65.4778 120.963 65.4778 119.499V114.159H64.3618V114.963C64.0738 114.387 63.4738 114.051 62.5858 114.051C61.0018 114.051 59.9338 115.299 59.9338 116.859C59.9338 118.491 61.0498 119.655 62.5858 119.655C63.4498 119.655 64.0738 119.235 64.3498 118.707V119.535C64.3498 120.783 63.7978 121.407 62.5858 121.407C61.7098 121.407 61.0978 120.795 61.0138 119.991L59.9218 120.243ZM62.7538 118.707C61.7338 118.707 61.0858 117.987 61.0858 116.859C61.0858 115.743 61.7578 115.011 62.7538 115.011C63.7258 115.011 64.3978 115.743 64.3978 116.859C64.3978 117.975 63.7258 118.707 62.7538 118.707ZM68.0113 116.451C68.0593 115.707 68.6353 114.975 69.5833 114.975C70.6033 114.975 71.1433 115.623 71.1673 116.451H68.0113ZM71.3353 117.951C71.1193 118.599 70.6513 119.115 69.7153 119.115C68.7433 119.115 67.9993 118.395 67.9753 117.363H72.3193C72.3313 117.291 72.3433 117.147 72.3433 117.003C72.3433 115.203 71.3473 113.979 69.5713 113.979C68.1193 113.979 66.8113 115.215 66.8113 117.027C66.8113 118.983 68.1673 120.111 69.7153 120.111C71.0593 120.111 71.9833 119.307 72.3073 118.287L71.3353 117.951ZM74.9112 116.595C74.9112 115.719 75.3672 115.011 76.2552 115.011C77.2632 115.011 77.5992 115.659 77.5992 116.463V119.931H78.7272V116.271C78.7272 114.987 78.0432 113.991 76.6632 113.991C75.9912 113.991 75.3072 114.267 74.8872 114.987V114.159H73.7832V119.931H74.9112V116.595ZM81.2535 116.451C81.3015 115.707 81.8775 114.975 82.8255 114.975C83.8455 114.975 84.3855 115.623 84.4095 116.451H81.2535ZM84.5775 117.951C84.3615 118.599 83.8935 119.115 82.9575 119.115C81.9855 119.115 81.2415 118.395 81.2175 117.363H85.5615C85.5735 117.291 85.5855 117.147 85.5855 117.003C85.5855 115.203 84.5895 113.979 82.8135 113.979C81.3615 113.979 80.0535 115.215 80.0535 117.027C80.0535 118.983 81.4095 120.111 82.9575 120.111C84.3015 120.111 85.2255 119.307 85.5495 118.287L84.5775 117.951ZM90.2294 114.099C90.1694 114.087 90.0134 114.063 89.8574 114.063C89.2694 114.063 88.5494 114.279 88.1294 115.167V114.159H87.0254V119.931H88.1534V117.039C88.1534 115.767 88.7894 115.263 89.7374 115.263C89.8934 115.263 90.0614 115.275 90.2294 115.299V114.099ZM91.0717 118.383C91.0717 119.295 91.8277 120.111 93.0037 120.111C94.0357 120.111 94.6117 119.559 94.8637 119.151C94.8637 119.571 94.8997 119.787 94.9237 119.931H96.0277C96.0037 119.787 95.9557 119.487 95.9557 118.983V116.091C95.9557 114.963 95.2837 113.979 93.5557 113.979C92.3077 113.979 91.3117 114.747 91.1917 115.851L92.2717 116.103C92.3437 115.431 92.7877 114.939 93.5797 114.939C94.4557 114.939 94.8277 115.407 94.8277 115.971C94.8277 116.175 94.7317 116.355 94.3837 116.403L92.8237 116.631C91.8277 116.775 91.0717 117.351 91.0717 118.383ZM93.1597 119.163C92.5837 119.163 92.2237 118.755 92.2237 118.323C92.2237 117.807 92.5837 117.531 93.0637 117.459L94.8277 117.195V117.459C94.8277 118.719 94.0837 119.163 93.1597 119.163ZM99.2249 112.335H98.1929V113.271C98.1929 113.775 97.9289 114.159 97.3049 114.159H96.9929V115.179H98.0969V118.347C98.0969 119.391 98.7209 119.991 99.7049 119.991C100.089 119.991 100.377 119.919 100.473 119.883V118.923C100.377 118.947 100.173 118.971 100.029 118.971C99.4409 118.971 99.2249 118.707 99.2249 118.179V115.179H100.473V114.159H99.2249V112.335ZM104.392 119.103C103.432 119.103 102.592 118.383 102.592 117.039C102.592 115.707 103.432 114.987 104.392 114.987C105.352 114.987 106.192 115.707 106.192 117.039C106.192 118.383 105.352 119.103 104.392 119.103ZM104.392 113.979C102.664 113.979 101.44 115.287 101.44 117.039C101.44 118.803 102.664 120.111 104.392 120.111C106.12 120.111 107.344 118.803 107.344 117.039C107.344 115.287 106.12 113.979 104.392 113.979ZM111.991 114.099C111.931 114.087 111.775 114.063 111.619 114.063C111.031 114.063 110.311 114.279 109.891 115.167V114.159H108.787V119.931H109.915V117.039C109.915 115.767 110.551 115.263 111.499 115.263C111.655 115.263 111.823 115.275 111.991 115.299V114.099ZM111.995 119.163C111.995 119.631 112.355 119.991 112.823 119.991C113.291 119.991 113.663 119.631 113.663 119.163C113.663 118.695 113.291 118.323 112.823 118.323C112.355 118.323 111.995 118.695 111.995 119.163ZM125.283 119.931V111.423H124.107V115.059H119.763V111.423H118.587V119.931H119.763V116.151H124.107V119.931H125.283ZM129.798 119.103C128.838 119.103 127.998 118.383 127.998 117.039C127.998 115.707 128.838 114.987 129.798 114.987C130.758 114.987 131.598 115.707 131.598 117.039C131.598 118.383 130.758 119.103 129.798 119.103ZM129.798 113.979C128.07 113.979 126.846 115.287 126.846 117.039C126.846 118.803 128.07 120.111 129.798 120.111C131.526 120.111 132.75 118.803 132.75 117.039C132.75 115.287 131.526 113.979 129.798 113.979ZM137.328 114.159L135.828 118.503L134.532 114.159H133.296L135.192 119.931H136.38L137.88 115.539L139.416 119.931H140.58L142.452 114.159H141.264L139.992 118.503L138.492 114.159H137.328ZM147.264 117.027C147.264 115.839 147.936 114.999 148.968 114.999C150 114.999 150.624 115.815 150.624 117.003C150.624 118.191 149.988 119.091 148.956 119.091C147.876 119.091 147.264 118.215 147.264 117.027ZM150.636 119.151C150.636 119.499 150.672 119.799 150.696 119.931H151.788C151.776 119.835 151.728 119.415 151.728 118.863V111.243H150.612V114.975C150.42 114.507 149.868 114.003 148.848 114.003C147.216 114.003 146.112 115.395 146.112 117.027C146.112 118.743 147.156 120.087 148.848 120.087C149.748 120.087 150.36 119.607 150.636 119.055V119.151ZM156.119 119.103C155.159 119.103 154.319 118.383 154.319 117.039C154.319 115.707 155.159 114.987 156.119 114.987C157.079 114.987 157.919 115.707 157.919 117.039C157.919 118.383 157.079 119.103 156.119 119.103ZM156.119 113.979C154.391 113.979 153.167 115.287 153.167 117.039C153.167 118.803 154.391 120.111 156.119 120.111C157.847 120.111 159.071 118.803 159.071 117.039C159.071 115.287 157.847 113.979 156.119 113.979ZM161.246 116.451C161.294 115.707 161.87 114.975 162.818 114.975C163.838 114.975 164.378 115.623 164.402 116.451H161.246ZM164.57 117.951C164.354 118.599 163.886 119.115 162.95 119.115C161.978 119.115 161.234 118.395 161.21 117.363H165.554C165.566 117.291 165.578 117.147 165.578 117.003C165.578 115.203 164.582 113.979 162.806 113.979C161.354 113.979 160.046 115.215 160.046 117.027C160.046 118.983 161.402 120.111 162.95 120.111C164.294 120.111 165.218 119.307 165.542 118.287L164.57 117.951ZM166.478 118.431C166.574 119.091 167.246 120.111 168.83 120.111C170.258 120.111 170.942 119.139 170.942 118.323C170.942 117.471 170.39 116.835 169.346 116.607L168.41 116.403C167.966 116.307 167.75 116.055 167.75 115.707C167.75 115.311 168.134 114.939 168.71 114.939C169.622 114.939 169.862 115.599 169.91 115.899L170.906 115.527C170.786 115.011 170.294 113.979 168.71 113.979C167.582 113.979 166.658 114.819 166.658 115.803C166.658 116.619 167.198 117.231 168.098 117.423L169.082 117.639C169.562 117.747 169.826 118.023 169.826 118.383C169.826 118.791 169.478 119.151 168.842 119.151C168.026 119.151 167.57 118.671 167.498 118.071L166.478 118.431ZM176.571 116.535C176.595 115.683 177.051 115.011 177.915 115.011C178.923 115.011 179.259 115.659 179.259 116.463V119.931H180.387V116.271C180.387 114.987 179.703 113.991 178.323 113.991C177.663 113.991 176.991 114.219 176.571 114.831V111.243H175.443V119.931H176.571V116.535ZM182.914 116.451C182.962 115.707 183.538 114.975 184.486 114.975C185.506 114.975 186.046 115.623 186.07 116.451H182.914ZM186.238 117.951C186.022 118.599 185.554 119.115 184.618 119.115C183.646 119.115 182.902 118.395 182.878 117.363H187.222C187.234 117.291 187.246 117.147 187.246 117.003C187.246 115.203 186.25 113.979 184.474 113.979C183.022 113.979 181.714 115.215 181.714 117.027C181.714 118.983 183.07 120.111 184.618 120.111C185.962 120.111 186.886 119.307 187.21 118.287L186.238 117.951ZM194.11 115.023C195.094 115.023 195.514 115.683 195.658 116.247L196.678 115.815C196.438 114.939 195.646 113.979 194.11 113.979C192.466 113.979 191.206 115.239 191.206 117.039C191.206 118.791 192.442 120.111 194.122 120.111C195.622 120.111 196.45 119.139 196.726 118.311L195.73 117.879C195.598 118.335 195.202 119.067 194.122 119.067C193.186 119.067 192.358 118.359 192.358 117.039C192.358 115.695 193.198 115.023 194.11 115.023ZM200.462 119.103C199.502 119.103 198.662 118.383 198.662 117.039C198.662 115.707 199.502 114.987 200.462 114.987C201.422 114.987 202.262 115.707 202.262 117.039C202.262 118.383 201.422 119.103 200.462 119.103ZM200.462 113.979C198.734 113.979 197.51 115.287 197.51 117.039C197.51 118.803 198.734 120.111 200.462 120.111C202.19 120.111 203.414 118.803 203.414 117.039C203.414 115.287 202.19 113.979 200.462 113.979ZM205.973 119.931V116.451C205.973 115.587 206.513 114.987 207.317 114.987C208.181 114.987 208.541 115.563 208.541 116.307V119.931H209.669V116.439C209.669 115.611 210.209 114.987 211.001 114.987C211.853 114.987 212.225 115.551 212.225 116.307V119.931H213.341V116.187C213.341 114.675 212.357 113.991 211.349 113.991C210.617 113.991 209.873 114.255 209.417 115.083C209.105 114.339 208.409 113.991 207.689 113.991C207.017 113.991 206.297 114.291 205.937 114.927V114.159H204.857V119.931H205.973ZM215.879 116.451C215.927 115.707 216.503 114.975 217.451 114.975C218.471 114.975 219.011 115.623 219.035 116.451H215.879ZM219.203 117.951C218.987 118.599 218.519 119.115 217.583 119.115C216.611 119.115 215.867 118.395 215.843 117.363H220.187C220.199 117.291 220.211 117.147 220.211 117.003C220.211 115.203 219.215 113.979 217.439 113.979C215.987 113.979 214.679 115.215 214.679 117.027C214.679 118.983 216.035 120.111 217.583 120.111C218.927 120.111 219.851 119.307 220.175 118.287L219.203 117.951ZM228.454 119.235C228.454 119.475 228.478 119.799 228.502 119.931H229.582C229.558 119.727 229.522 119.319 229.522 118.863V114.159H228.394V117.639C228.394 118.515 227.938 119.115 227.026 119.115C226.078 119.115 225.718 118.419 225.718 117.627V114.159H224.59V117.795C224.59 119.103 225.406 120.111 226.75 120.111C227.422 120.111 228.142 119.835 228.454 119.235ZM232.563 122.211V119.151C232.875 119.667 233.547 120.087 234.435 120.087C236.127 120.087 237.123 118.755 237.123 117.039C237.123 115.359 236.199 114.027 234.471 114.027C233.535 114.027 232.851 114.483 232.539 115.059V114.159H231.447V122.211H232.563ZM235.971 117.039C235.971 118.227 235.311 119.079 234.267 119.079C233.235 119.079 232.551 118.227 232.551 117.039C232.551 115.887 233.235 115.023 234.267 115.023C235.323 115.023 235.971 115.887 235.971 117.039ZM244.813 114.159L243.313 118.503L242.017 114.159H240.781L242.677 119.931H243.865L245.365 115.539L246.901 119.931H248.065L249.937 114.159H248.749L247.477 118.503L245.977 114.159H244.813ZM252.192 119.931V114.159H251.076V119.931H252.192ZM250.824 111.975C250.824 112.419 251.184 112.779 251.628 112.779C252.084 112.779 252.444 112.419 252.444 111.975C252.444 111.519 252.084 111.159 251.628 111.159C251.184 111.159 250.824 111.519 250.824 111.975ZM255.623 112.335H254.591V113.271C254.591 113.775 254.327 114.159 253.703 114.159H253.391V115.179H254.495V118.347C254.495 119.391 255.119 119.991 256.103 119.991C256.487 119.991 256.775 119.919 256.871 119.883V118.923C256.775 118.947 256.571 118.971 256.427 118.971C255.839 118.971 255.623 118.707 255.623 118.179V115.179H256.871V114.159H255.623V112.335ZM259.505 116.535C259.529 115.683 259.985 115.011 260.849 115.011C261.857 115.011 262.193 115.659 262.193 116.463V119.931H263.321V116.271C263.321 114.987 262.637 113.991 261.257 113.991C260.597 113.991 259.925 114.219 259.505 114.831V111.243H258.377V119.931H259.505V116.535ZM269.627 112.335H268.595V113.271C268.595 113.775 268.331 114.159 267.707 114.159H267.395V115.179H268.499V118.347C268.499 119.391 269.123 119.991 270.107 119.991C270.491 119.991 270.779 119.919 270.875 119.883V118.923C270.779 118.947 270.575 118.971 270.431 118.971C269.843 118.971 269.627 118.707 269.627 118.179V115.179H270.875V114.159H269.627V112.335ZM273.509 116.535C273.533 115.683 273.989 115.011 274.853 115.011C275.861 115.011 276.197 115.659 276.197 116.463V119.931H277.325V116.271C277.325 114.987 276.641 113.991 275.261 113.991C274.601 113.991 273.929 114.219 273.509 114.831V111.243H272.381V119.931H273.509V116.535ZM280.235 119.931V114.159H279.119V119.931H280.235ZM278.867 111.975C278.867 112.419 279.227 112.779 279.671 112.779C280.127 112.779 280.487 112.419 280.487 111.975C280.487 111.519 280.127 111.159 279.671 111.159C279.227 111.159 278.867 111.519 278.867 111.975ZM281.614 118.431C281.71 119.091 282.382 120.111 283.966 120.111C285.394 120.111 286.078 119.139 286.078 118.323C286.078 117.471 285.526 116.835 284.482 116.607L283.546 116.403C283.102 116.307 282.886 116.055 282.886 115.707C282.886 115.311 283.27 114.939 283.846 114.939C284.758 114.939 284.998 115.599 285.046 115.899L286.042 115.527C285.922 115.011 285.43 113.979 283.846 113.979C282.718 113.979 281.794 114.819 281.794 115.803C281.794 116.619 282.334 117.231 283.234 117.423L284.218 117.639C284.698 117.747 284.962 118.023 284.962 118.383C284.962 118.791 284.614 119.151 283.978 119.151C283.162 119.151 282.706 118.671 282.634 118.071L281.614 118.431ZM59.8018 133.431C59.8978 134.091 60.5698 135.111 62.1538 135.111C63.5818 135.111 64.2658 134.139 64.2658 133.323C64.2658 132.471 63.7138 131.835 62.6698 131.607L61.7338 131.403C61.2898 131.307 61.0738 131.055 61.0738 130.707C61.0738 130.311 61.4578 129.939 62.0338 129.939C62.9458 129.939 63.1858 130.599 63.2338 130.899L64.2298 130.527C64.1098 130.011 63.6178 128.979 62.0338 128.979C60.9058 128.979 59.9818 129.819 59.9818 130.803C59.9818 131.619 60.5218 132.231 61.4218 132.423L62.4058 132.639C62.8858 132.747 63.1498 133.023 63.1498 133.383C63.1498 133.791 62.8018 134.151 62.1658 134.151C61.3498 134.151 60.8938 133.671 60.8218 133.071L59.8018 133.431ZM68.181 134.103C67.221 134.103 66.381 133.383 66.381 132.039C66.381 130.707 67.221 129.987 68.181 129.987C69.141 129.987 69.981 130.707 69.981 132.039C69.981 133.383 69.141 134.103 68.181 134.103ZM68.181 128.979C66.453 128.979 65.229 130.287 65.229 132.039C65.229 133.803 66.453 135.111 68.181 135.111C69.909 135.111 71.133 133.803 71.133 132.039C71.133 130.287 69.909 128.979 68.181 128.979ZM75.7802 129.099C75.7202 129.087 75.5642 129.063 75.4082 129.063C74.8202 129.063 74.1002 129.279 73.6802 130.167V129.159H72.5762V134.931H73.7042V132.039C73.7042 130.767 74.3402 130.263 75.2882 130.263C75.4442 130.263 75.6122 130.275 75.7802 130.299V129.099ZM78.7991 127.335H77.7671V128.271C77.7671 128.775 77.5031 129.159 76.8791 129.159H76.5671V130.179H77.6711V133.347C77.6711 134.391 78.2951 134.991 79.2791 134.991C79.6631 134.991 79.9511 134.919 80.0471 134.883V133.923C79.9511 133.947 79.7471 133.971 79.6031 133.971C79.0151 133.971 78.7991 133.707 78.7991 133.179V130.179H80.0471V129.159H78.7991V127.335ZM87.0248 134.103C86.0648 134.103 85.2248 133.383 85.2248 132.039C85.2248 130.707 86.0648 129.987 87.0248 129.987C87.9848 129.987 88.8248 130.707 88.8248 132.039C88.8248 133.383 87.9848 134.103 87.0248 134.103ZM87.0248 128.979C85.2968 128.979 84.0728 130.287 84.0728 132.039C84.0728 133.803 85.2968 135.111 87.0248 135.111C88.7528 135.111 89.9768 133.803 89.9768 132.039C89.9768 130.287 88.7528 128.979 87.0248 128.979ZM94.324 130.179V129.159H92.932V128.247C92.932 127.455 93.448 127.263 93.844 127.263C94.132 127.263 94.276 127.311 94.336 127.335V126.327C94.288 126.291 94.048 126.207 93.664 126.207C92.62 126.207 91.768 126.903 91.768 128.187V129.159H90.7V130.179H91.768V134.931H92.932V130.179H94.324ZM100.957 130.023C101.941 130.023 102.361 130.683 102.505 131.247L103.525 130.815C103.285 129.939 102.493 128.979 100.957 128.979C99.3132 128.979 98.0532 130.239 98.0532 132.039C98.0532 133.791 99.2892 135.111 100.969 135.111C102.469 135.111 103.297 134.139 103.573 133.311L102.577 132.879C102.445 133.335 102.049 134.067 100.969 134.067C100.033 134.067 99.2052 133.359 99.2052 132.039C99.2052 130.695 100.045 130.023 100.957 130.023ZM107.31 134.103C106.35 134.103 105.51 133.383 105.51 132.039C105.51 130.707 106.35 129.987 107.31 129.987C108.27 129.987 109.11 130.707 109.11 132.039C109.11 133.383 108.27 134.103 107.31 134.103ZM107.31 128.979C105.582 128.979 104.358 130.287 104.358 132.039C104.358 133.803 105.582 135.111 107.31 135.111C109.038 135.111 110.262 133.803 110.262 132.039C110.262 130.287 109.038 128.979 107.31 128.979ZM112.833 131.595C112.833 130.719 113.289 130.011 114.177 130.011C115.185 130.011 115.521 130.659 115.521 131.463V134.931H116.649V131.271C116.649 129.987 115.965 128.991 114.585 128.991C113.913 128.991 113.229 129.267 112.809 129.987V129.159H111.705V134.931H112.833V131.595ZM119.955 127.335H118.923V128.271C118.923 128.775 118.659 129.159 118.035 129.159H117.723V130.179H118.827V133.347C118.827 134.391 119.451 134.991 120.435 134.991C120.819 134.991 121.107 134.919 121.203 134.883V133.923C121.107 133.947 120.903 133.971 120.759 133.971C120.171 133.971 119.955 133.707 119.955 133.179V130.179H121.203V129.159H119.955V127.335ZM123.382 131.451C123.43 130.707 124.006 129.975 124.954 129.975C125.974 129.975 126.514 130.623 126.538 131.451H123.382ZM126.706 132.951C126.49 133.599 126.022 134.115 125.086 134.115C124.114 134.115 123.37 133.395 123.346 132.363H127.69C127.702 132.291 127.714 132.147 127.714 132.003C127.714 130.203 126.718 128.979 124.942 128.979C123.49 128.979 122.182 130.215 122.182 132.027C122.182 133.983 123.538 135.111 125.086 135.111C126.43 135.111 127.354 134.307 127.678 133.287L126.706 132.951ZM130.282 131.595C130.282 130.719 130.738 130.011 131.626 130.011C132.634 130.011 132.97 130.659 132.97 131.463V134.931H134.098V131.271C134.098 129.987 133.414 128.991 132.034 128.991C131.362 128.991 130.678 129.267 130.258 129.987V129.159H129.154V134.931H130.282V131.595ZM137.405 127.335H136.373V128.271C136.373 128.775 136.109 129.159 135.485 129.159H135.173V130.179H136.277V133.347C136.277 134.391 136.901 134.991 137.885 134.991C138.269 134.991 138.557 134.919 138.653 134.883V133.923C138.557 133.947 138.353 133.971 138.209 133.971C137.621 133.971 137.405 133.707 137.405 133.179V130.179H138.653V129.159H137.405V127.335ZM142.665 132.495C142.653 132.375 142.653 132.327 142.653 132.267C142.653 131.799 142.809 131.367 143.181 131.115L143.733 130.743C144.429 130.275 144.957 129.615 144.957 128.655C144.957 127.431 144.009 126.243 142.329 126.243C140.481 126.243 139.677 127.599 139.677 128.703C139.677 128.919 139.701 129.111 139.749 129.279L140.913 129.423C140.865 129.291 140.829 129.039 140.829 128.835C140.829 128.079 141.285 127.299 142.329 127.299C143.289 127.299 143.757 127.959 143.757 128.667C143.757 129.135 143.529 129.567 143.121 129.843L142.593 130.203C141.885 130.683 141.597 131.283 141.597 132.075C141.597 132.231 141.597 132.351 141.609 132.495H142.665ZM141.345 134.211C141.345 134.643 141.693 134.991 142.125 134.991C142.557 134.991 142.917 134.643 142.917 134.211C142.917 133.779 142.557 133.419 142.125 133.419C141.693 133.419 141.345 133.779 141.345 134.211Z" fill="#9BA1A6"/>
<path d="M278.584 50.5073C278.584 49.6313 279.04 48.9233 279.928 48.9233C280.936 48.9233 281.272 49.5713 281.272 50.3753V53.8433H282.4V50.1833C282.4 48.8993 281.716 47.9033 280.336 47.9033C279.664 47.9033 278.98 48.1793 278.56 48.8993V48.0713H277.456V53.8433H278.584V50.5073ZM286.666 53.0153C285.706 53.0153 284.866 52.2953 284.866 50.9513C284.866 49.6193 285.706 48.8993 286.666 48.8993C287.626 48.8993 288.466 49.6193 288.466 50.9513C288.466 52.2953 287.626 53.0153 286.666 53.0153ZM286.666 47.8913C284.938 47.8913 283.714 49.1993 283.714 50.9513C283.714 52.7153 284.938 54.0233 286.666 54.0233C288.394 54.0233 289.618 52.7153 289.618 50.9513C289.618 49.1993 288.394 47.8913 286.666 47.8913ZM294.196 48.0713L292.696 52.4153L291.4 48.0713H290.164L292.06 53.8433H293.248L294.748 49.4513L296.284 53.8433H297.448L299.32 48.0713H298.132L296.86 52.4153L295.36 48.0713H294.196Z" fill="#9BA1A6"/>
</svg>
