<svg xmlns="http://www.w3.org/2000/svg" width="361" height="210" fill="none" viewBox="0 0 361 210"><path stroke="#d7dbdf" d="M45.75 41h268.5M45.75 73h268.5M45.75 105h268.5M45.75 137h268.5M45.75 169h268.5"/><path stroke="#9ba1a6" stroke-miterlimit="10" stroke-width="2" d="M96.5 132V31"/><path fill="#9ba1a6" d="M98.5 54h-4a2 2 0 0 0-2 2v47a2 2 0 0 0 2 2h4a2 2 0 0 0 2-2V56a2 2 0 0 0-2-2"/><path stroke="#3fcf8e" stroke-miterlimit="10" stroke-width="2" d="M68.5 152V51"/><path fill="#17c573" d="M70.5 74h-4a2 2 0 0 0-2 2v47a2 2 0 0 0 2 2h4a2 2 0 0 0 2-2V76a2 2 0 0 0-2-2"/><path stroke="#3fcf8e" stroke-miterlimit="10" stroke-width="2" d="M208.5 169V68"/><path fill="#17c573" d="M210.5 91h-4a2 2 0 0 0-2 2v47a2 2 0 0 0 2 2h4a2 2 0 0 0 2-2V93a2 2 0 0 0-2-2"/><path stroke="#3fcf8e" stroke-miterlimit="10" stroke-width="2" d="M236.5 113V51"/><path fill="#17c573" d="M238.5 66h-4a2 2 0 0 0-2 2v32a2 2 0 0 0 2 2h4a2 2 0 0 0 2-2V68a2 2 0 0 0-2-2"/><path stroke="#3fcf8e" stroke-miterlimit="10" stroke-width="2" d="M264.5 113V33"/><path fill="#17c573" d="M266.5 43h-4a2 2 0 0 0-2 2v36a2 2 0 0 0 2 2h4a2 2 0 0 0 2-2V45a2 2 0 0 0-2-2"/><path stroke="#3fcf8e" stroke-miterlimit="10" stroke-width="2" d="M292.5 124V23"/><path fill="#17c573" d="M294.5 33h-4a2 2 0 0 0-2 2v68a2 2 0 0 0 2 2h4a2 2 0 0 0 2-2V35a2 2 0 0 0-2-2"/><path stroke="#9ba1a6" stroke-miterlimit="10" stroke-width="2" d="M124.5 177V80"/><path fill="#9ba1a6" d="M126.5 91h-4a2 2 0 0 0-2 2v47a2 2 0 0 0 2 2h4a2 2 0 0 0 2-2V93a2 2 0 0 0-2-2"/><path stroke="#3fcf8e" stroke-miterlimit="10" stroke-width="2" d="M180.5 167V91"/><path fill="#17c573" d="M182.5 102h-4a2 2 0 0 0-2 2v47a2 2 0 0 0 2 2h4a2 2 0 0 0 2-2v-47a2 2 0 0 0-2-2"/><path stroke="#9ba1a6" stroke-miterlimit="10" stroke-width="2" d="M152.5 189v-65"/><path fill="#9ba1a6" d="M154.5 147h-4a2 2 0 0 0-2 2v23a2 2 0 0 0 2 2h4a2 2 0 0 0 2-2v-23a2 2 0 0 0-2-2"/></svg>