<svg width="360" height="210" viewBox="0 0 360 210" fill="none" xmlns="http://www.w3.org/2000/svg">
<rect x="59" y="43" width="242" height="124" rx="8" fill="#ECEEF0"/>
<rect x="49" y="43" width="261" height="113" rx="8" fill="#E6E8EB"/>
<rect x="44.5" y="43.5" width="270" height="98" rx="7.5" fill="#FBFCFD" stroke="#ECEEF0"/>
<path d="M66 58C65.7348 58 65.4804 58.1054 65.2929 58.2929C65.1054 58.4804 65 58.7348 65 59C65 59.2652 65.1054 59.5196 65.2929 59.7071C65.4804 59.8946 65.7348 60 66 60H72C72.2652 60 72.5196 59.8946 72.7071 59.7071C72.8946 59.5196 73 59.2652 73 59C73 58.7348 72.8946 58.4804 72.7071 58.2929C72.5196 58.1054 72.2652 58 72 58H66ZM63 62C63 61.7348 63.1054 61.4804 63.2929 61.2929C63.4804 61.1054 63.7348 61 64 61H74C74.2652 61 74.5196 61.1054 74.7071 61.2929C74.8946 61.4804 75 61.7348 75 62C75 62.2652 74.8946 62.5196 74.7071 62.7071C74.5196 62.8946 74.2652 63 74 63H64C63.7348 63 63.4804 62.8946 63.2929 62.7071C63.1054 62.5196 63 62.2652 63 62ZM61 66C61 65.4696 61.2107 64.9609 61.5858 64.5858C61.9609 64.2107 62.4696 64 63 64H75C75.5304 64 76.0391 64.2107 76.4142 64.5858C76.7893 64.9609 77 65.4696 77 66V70C77 70.5304 76.7893 71.0391 76.4142 71.4142C76.0391 71.7893 75.5304 72 75 72H63C62.4696 72 61.9609 71.7893 61.5858 71.4142C61.2107 71.0391 61 70.5304 61 70V66Z" fill="#687076"/>
<path d="M95.152 67.192C96.976 67.192 98.428 66.076 98.428 63.988V58.492H96.772V63.868C96.772 64.984 96.16 65.572 95.152 65.572C94.168 65.572 93.544 64.984 93.544 63.868V58.492H91.888V63.988C91.888 66.076 93.34 67.192 95.152 67.192ZM101.71 69.28V66.424C101.998 66.82 102.598 67.144 103.414 67.144C105.082 67.144 106.198 65.824 106.198 64.036C106.198 62.284 105.202 60.964 103.474 60.964C102.586 60.964 101.926 61.36 101.662 61.816V61.096H100.114V69.28H101.71ZM104.626 64.048C104.626 65.104 103.978 65.716 103.162 65.716C102.346 65.716 101.686 65.092 101.686 64.048C101.686 63.004 102.346 62.392 103.162 62.392C103.978 62.392 104.626 63.004 104.626 64.048ZM109.057 67V58.312H107.461V67H109.057ZM113.418 65.728C112.638 65.728 111.918 65.152 111.918 64.048C111.918 62.932 112.638 62.368 113.418 62.368C114.198 62.368 114.918 62.932 114.918 64.048C114.918 65.164 114.198 65.728 113.418 65.728ZM113.418 60.916C111.654 60.916 110.322 62.224 110.322 64.048C110.322 65.86 111.654 67.18 113.418 67.18C115.182 67.18 116.514 65.86 116.514 64.048C116.514 62.224 115.182 60.916 113.418 60.916ZM117.414 65.392C117.414 66.316 118.182 67.168 119.442 67.168C120.318 67.168 120.882 66.76 121.182 66.292C121.182 66.52 121.206 66.844 121.242 67H122.706C122.67 66.796 122.634 66.376 122.634 66.064V63.16C122.634 61.972 121.938 60.916 120.066 60.916C118.482 60.916 117.63 61.936 117.534 62.86L118.95 63.16C118.998 62.644 119.382 62.2 120.078 62.2C120.75 62.2 121.074 62.548 121.074 62.968C121.074 63.172 120.966 63.34 120.63 63.388L119.178 63.604C118.194 63.748 117.414 64.336 117.414 65.392ZM119.778 65.98C119.262 65.98 119.01 65.644 119.01 65.296C119.01 64.84 119.334 64.612 119.742 64.552L121.074 64.348V64.612C121.074 65.656 120.45 65.98 119.778 65.98ZM129.847 58.312H128.275V61.684C128.107 61.372 127.627 60.952 126.607 60.952C124.939 60.952 123.775 62.308 123.775 64.036C123.775 65.824 124.975 67.144 126.655 67.144C127.447 67.144 128.047 66.784 128.311 66.316C128.311 66.592 128.347 66.88 128.371 67H129.895C129.871 66.76 129.847 66.328 129.847 65.932V58.312ZM125.383 64.036C125.383 62.98 126.031 62.38 126.847 62.38C127.663 62.38 128.299 62.968 128.299 64.024C128.299 65.092 127.663 65.716 126.847 65.716C126.007 65.716 125.383 65.092 125.383 64.036ZM133.175 67V61.096H131.579V67H133.175ZM131.387 59.164C131.387 59.692 131.831 60.136 132.371 60.136C132.923 60.136 133.355 59.692 133.355 59.164C133.355 58.612 132.923 58.168 132.371 58.168C131.831 58.168 131.387 58.612 131.387 59.164ZM136.479 63.604C136.479 62.92 136.887 62.38 137.583 62.38C138.351 62.38 138.675 62.896 138.675 63.556V67H140.271V63.28C140.271 61.984 139.599 60.94 138.135 60.94C137.499 60.94 136.791 61.216 136.431 61.828V61.096H134.883V67H136.479V63.604ZM141.471 67.324C141.639 68.452 142.719 69.46 144.339 69.46C146.559 69.46 147.435 67.984 147.435 66.364V61.096H145.899V61.792C145.695 61.396 145.155 60.988 144.219 60.988C142.599 60.988 141.471 62.308 141.471 63.868C141.471 65.524 142.647 66.736 144.219 66.736C145.071 66.736 145.623 66.364 145.863 65.98V66.412C145.863 67.552 145.299 68.056 144.291 68.056C143.535 68.056 143.019 67.588 142.911 66.94L141.471 67.324ZM144.495 65.368C143.667 65.368 143.079 64.792 143.079 63.868C143.079 62.956 143.703 62.38 144.495 62.38C145.263 62.38 145.887 62.956 145.887 63.868C145.887 64.78 145.311 65.368 144.495 65.368ZM155.052 67V59.212H153.624C153.468 60.028 152.676 60.664 151.536 60.676V61.792H153.408V67H155.052ZM158.162 62.224C158.126 62.092 158.102 61.936 158.102 61.792C158.102 61.06 158.51 60.496 159.338 60.496C160.118 60.496 160.514 61 160.514 61.564C160.514 62.104 160.25 62.512 159.59 62.908L158.306 63.676C156.914 64.516 156.482 65.632 156.47 67H162.23V65.572H158.498C158.618 65.272 158.87 65.056 159.17 64.864L160.67 63.952C161.63 63.364 162.182 62.548 162.182 61.54C162.182 60.184 161.114 59.032 159.374 59.032C157.562 59.032 156.53 60.268 156.53 61.636C156.53 61.828 156.566 62.068 156.59 62.176L158.162 62.224ZM169.07 65.728C168.29 65.728 167.57 65.152 167.57 64.048C167.57 62.932 168.29 62.368 169.07 62.368C169.85 62.368 170.57 62.932 170.57 64.048C170.57 65.164 169.85 65.728 169.07 65.728ZM169.07 60.916C167.306 60.916 165.974 62.224 165.974 64.048C165.974 65.86 167.306 67.18 169.07 67.18C170.834 67.18 172.166 65.86 172.166 64.048C172.166 62.224 170.834 60.916 169.07 60.916ZM177.267 67H178.791C178.767 66.796 178.731 66.388 178.731 65.932V61.096H177.135V64.528C177.135 65.212 176.727 65.692 176.019 65.692C175.275 65.692 174.939 65.164 174.939 64.504V61.096H173.343V64.828C173.343 66.112 174.159 67.156 175.587 67.156C176.211 67.156 176.895 66.916 177.219 66.364C177.219 66.604 177.243 66.88 177.267 67ZM182.402 59.332H180.962V60.16C180.962 60.688 180.674 61.096 180.05 61.096H179.75V62.512H180.818V65.26C180.818 66.4 181.538 67.084 182.69 67.084C183.158 67.084 183.446 67 183.59 66.94V65.62C183.506 65.644 183.29 65.668 183.098 65.668C182.642 65.668 182.402 65.5 182.402 64.984V62.512H183.59V61.096H182.402V59.332ZM190.527 65.728C189.747 65.728 189.027 65.152 189.027 64.048C189.027 62.932 189.747 62.368 190.527 62.368C191.307 62.368 192.027 62.932 192.027 64.048C192.027 65.164 191.307 65.728 190.527 65.728ZM190.527 60.916C188.763 60.916 187.431 62.224 187.431 64.048C187.431 65.86 188.763 67.18 190.527 67.18C192.291 67.18 193.623 65.86 193.623 64.048C193.623 62.224 192.291 60.916 190.527 60.916ZM197.619 59.632C197.883 59.632 198.039 59.668 198.123 59.692V58.348C197.991 58.288 197.667 58.228 197.331 58.228C196.023 58.228 195.183 59.092 195.183 60.424V61.096H194.199V62.464H195.183V67H196.791V62.464H198.123V61.096H196.791V60.448C196.791 59.788 197.259 59.632 197.619 59.632ZM203.349 62.224C203.313 62.092 203.289 61.936 203.289 61.792C203.289 61.06 203.697 60.496 204.525 60.496C205.305 60.496 205.701 61 205.701 61.564C205.701 62.104 205.437 62.512 204.777 62.908L203.493 63.676C202.101 64.516 201.669 65.632 201.657 67H207.417V65.572H203.685C203.805 65.272 204.057 65.056 204.357 64.864L205.857 63.952C206.817 63.364 207.369 62.548 207.369 61.54C207.369 60.184 206.301 59.032 204.561 59.032C202.749 59.032 201.717 60.268 201.717 61.636C201.717 61.828 201.753 62.068 201.777 62.176L203.349 62.224ZM208.137 64.816C208.233 66.04 209.409 67.192 211.101 67.192C212.973 67.192 214.089 65.932 214.089 64.48C214.089 62.812 212.985 61.876 211.425 61.876C210.909 61.876 210.357 62.044 210.021 62.356L210.405 60.64H213.669V59.212H209.277L208.353 63.208C208.521 63.256 209.709 63.664 209.865 63.724C210.117 63.436 210.537 63.196 211.065 63.196C211.785 63.196 212.445 63.616 212.445 64.504C212.445 65.284 211.845 65.776 211.101 65.776C210.273 65.776 209.721 65.188 209.685 64.468L208.137 64.816ZM222.522 62.464V67H224.106V61.096H220.158V60.448C220.158 59.788 220.638 59.632 220.986 59.632C221.25 59.632 221.406 59.668 221.49 59.692V58.348C221.358 58.288 221.034 58.228 220.698 58.228C219.39 58.228 218.55 59.092 218.55 60.424V61.096H217.566V62.464H218.55V67H220.158V62.464H222.522ZM222.33 59.152C222.33 59.692 222.774 60.124 223.314 60.124C223.854 60.124 224.298 59.692 224.298 59.152C224.298 58.6 223.854 58.156 223.314 58.156C222.774 58.156 222.33 58.6 222.33 59.152ZM227.417 67V58.312H225.821V67H227.417ZM230.289 63.376C230.325 62.836 230.781 62.212 231.609 62.212C232.521 62.212 232.905 62.788 232.929 63.376H230.289ZM233.085 64.912C232.893 65.44 232.485 65.812 231.741 65.812C230.949 65.812 230.289 65.248 230.253 64.468H234.477C234.477 64.444 234.501 64.204 234.501 63.976C234.501 62.08 233.409 60.916 231.585 60.916C230.073 60.916 228.681 62.14 228.681 64.024C228.681 66.016 230.109 67.18 231.729 67.18C233.181 67.18 234.117 66.328 234.417 65.308L233.085 64.912ZM235.254 65.356C235.326 66.028 235.938 67.18 237.714 67.18C239.262 67.18 240.006 66.196 240.006 65.236C240.006 64.372 239.418 63.664 238.254 63.424L237.414 63.244C237.09 63.184 236.874 63.004 236.874 62.716C236.874 62.38 237.21 62.128 237.63 62.128C238.302 62.128 238.554 62.572 238.602 62.92L239.934 62.62C239.862 61.984 239.298 60.916 237.618 60.916C236.346 60.916 235.41 61.792 235.41 62.848C235.41 63.676 235.926 64.36 237.066 64.612L237.846 64.792C238.302 64.888 238.482 65.104 238.482 65.368C238.482 65.68 238.23 65.956 237.702 65.956C237.006 65.956 236.658 65.524 236.622 65.056L235.254 65.356Z" fill="#11181C"/>
<rect x="91" y="78" width="192" height="4" rx="2" fill="#F1F3F5"/>
<rect x="91" y="78" width="111" height="4" rx="2" fill="#3FCF8E"/>
<path d="M95.02 102.18C96.748 102.18 98.08 101.1 98.08 99.096V93.492H96.904V99.06C96.904 100.356 96.22 101.088 95.02 101.088C93.832 101.088 93.124 100.356 93.124 99.06V93.492H91.96V99.096C91.96 101.1 93.292 102.18 95.02 102.18ZM101.056 104.28V101.22C101.368 101.736 102.04 102.156 102.928 102.156C104.62 102.156 105.616 100.824 105.616 99.108C105.616 97.428 104.692 96.096 102.964 96.096C102.028 96.096 101.344 96.552 101.032 97.128V96.228H99.9405V104.28H101.056ZM104.464 99.108C104.464 100.296 103.804 101.148 102.76 101.148C101.728 101.148 101.044 100.296 101.044 99.108C101.044 97.956 101.728 97.092 102.76 97.092C103.816 97.092 104.464 97.956 104.464 99.108ZM108.182 102V93.312H107.054V102H108.182ZM112.573 101.172C111.613 101.172 110.773 100.452 110.773 99.108C110.773 97.776 111.613 97.056 112.573 97.056C113.533 97.056 114.373 97.776 114.373 99.108C114.373 100.452 113.533 101.172 112.573 101.172ZM112.573 96.048C110.845 96.048 109.621 97.356 109.621 99.108C109.621 100.872 110.845 102.18 112.573 102.18C114.301 102.18 115.525 100.872 115.525 99.108C115.525 97.356 114.301 96.048 112.573 96.048ZM116.608 100.452C116.608 101.364 117.364 102.18 118.54 102.18C119.572 102.18 120.148 101.628 120.4 101.22C120.4 101.64 120.436 101.856 120.46 102H121.564C121.54 101.856 121.492 101.556 121.492 101.052V98.16C121.492 97.032 120.82 96.048 119.092 96.048C117.844 96.048 116.848 96.816 116.728 97.92L117.808 98.172C117.88 97.5 118.324 97.008 119.116 97.008C119.992 97.008 120.364 97.476 120.364 98.04C120.364 98.244 120.268 98.424 119.92 98.472L118.36 98.7C117.364 98.844 116.608 99.42 116.608 100.452ZM118.696 101.232C118.12 101.232 117.76 100.824 117.76 100.392C117.76 99.876 118.12 99.6 118.6 99.528L120.364 99.264V99.528C120.364 100.788 119.62 101.232 118.696 101.232ZM123.921 99.096C123.921 97.908 124.593 97.068 125.625 97.068C126.657 97.068 127.281 97.884 127.281 99.072C127.281 100.26 126.645 101.16 125.613 101.16C124.533 101.16 123.921 100.284 123.921 99.096ZM127.293 101.22C127.293 101.568 127.329 101.868 127.353 102H128.445C128.433 101.904 128.385 101.484 128.385 100.932V93.312H127.269V97.044C127.077 96.576 126.525 96.072 125.505 96.072C123.873 96.072 122.769 97.464 122.769 99.096C122.769 100.812 123.813 102.156 125.505 102.156C126.405 102.156 127.017 101.676 127.293 101.124V101.22ZM131.42 102V96.228H130.304V102H131.42ZM130.052 94.044C130.052 94.488 130.412 94.848 130.856 94.848C131.312 94.848 131.672 94.488 131.672 94.044C131.672 93.588 131.312 93.228 130.856 93.228C130.412 93.228 130.052 93.588 130.052 94.044ZM134.467 98.664C134.467 97.788 134.923 97.08 135.811 97.08C136.819 97.08 137.155 97.728 137.155 98.532V102H138.283V98.34C138.283 97.056 137.599 96.06 136.219 96.06C135.547 96.06 134.863 96.336 134.443 97.056V96.228H133.339V102H134.467V98.664ZM139.657 102.312C139.801 103.548 140.881 104.46 142.321 104.46C144.493 104.46 145.213 103.032 145.213 101.568V96.228H144.097V97.032C143.809 96.456 143.209 96.12 142.321 96.12C140.737 96.12 139.669 97.368 139.669 98.928C139.669 100.56 140.785 101.724 142.321 101.724C143.185 101.724 143.809 101.304 144.085 100.776V101.604C144.085 102.852 143.533 103.476 142.321 103.476C141.445 103.476 140.833 102.864 140.749 102.06L139.657 102.312ZM142.489 100.776C141.469 100.776 140.821 100.056 140.821 98.928C140.821 97.812 141.493 97.08 142.489 97.08C143.461 97.08 144.133 97.812 144.133 98.928C144.133 100.044 143.461 100.776 142.489 100.776ZM151.527 94.404H150.495V95.34C150.495 95.844 150.231 96.228 149.607 96.228H149.295V97.248H150.399V100.416C150.399 101.46 151.023 102.06 152.007 102.06C152.391 102.06 152.679 101.988 152.775 101.952V100.992C152.679 101.016 152.475 101.04 152.331 101.04C151.743 101.04 151.527 100.776 151.527 100.248V97.248H152.775V96.228H151.527V94.404ZM155.408 98.604C155.432 97.752 155.888 97.08 156.752 97.08C157.76 97.08 158.096 97.728 158.096 98.532V102H159.224V98.34C159.224 97.056 158.54 96.06 157.16 96.06C156.5 96.06 155.828 96.288 155.408 96.9V93.312H154.28V102H155.408V98.604ZM161.751 98.52C161.799 97.776 162.375 97.044 163.323 97.044C164.343 97.044 164.883 97.692 164.907 98.52H161.751ZM165.075 100.02C164.859 100.668 164.391 101.184 163.455 101.184C162.483 101.184 161.739 100.464 161.715 99.432H166.059C166.071 99.36 166.083 99.216 166.083 99.072C166.083 97.272 165.087 96.048 163.311 96.048C161.859 96.048 160.551 97.284 160.551 99.096C160.551 101.052 161.907 102.18 163.455 102.18C164.799 102.18 165.723 101.376 166.047 100.356L165.075 100.02ZM166.983 100.5C167.079 101.16 167.751 102.18 169.335 102.18C170.763 102.18 171.447 101.208 171.447 100.392C171.447 99.54 170.895 98.904 169.851 98.676L168.915 98.472C168.471 98.376 168.255 98.124 168.255 97.776C168.255 97.38 168.639 97.008 169.215 97.008C170.127 97.008 170.367 97.668 170.415 97.968L171.411 97.596C171.291 97.08 170.799 96.048 169.215 96.048C168.087 96.048 167.163 96.888 167.163 97.872C167.163 98.688 167.703 99.3 168.603 99.492L169.587 99.708C170.067 99.816 170.331 100.092 170.331 100.452C170.331 100.86 169.983 101.22 169.347 101.22C168.531 101.22 168.075 100.74 168.003 100.14L166.983 100.5ZM173.622 98.52C173.67 97.776 174.246 97.044 175.194 97.044C176.214 97.044 176.754 97.692 176.778 98.52H173.622ZM176.946 100.02C176.73 100.668 176.262 101.184 175.326 101.184C174.354 101.184 173.61 100.464 173.586 99.432H177.93C177.942 99.36 177.954 99.216 177.954 99.072C177.954 97.272 176.958 96.048 175.182 96.048C173.73 96.048 172.422 97.284 172.422 99.096C172.422 101.052 173.778 102.18 175.326 102.18C176.67 102.18 177.594 101.376 177.918 100.356L176.946 100.02ZM181.854 100.5C181.95 101.16 182.622 102.18 184.206 102.18C185.634 102.18 186.318 101.208 186.318 100.392C186.318 99.54 185.766 98.904 184.722 98.676L183.786 98.472C183.342 98.376 183.126 98.124 183.126 97.776C183.126 97.38 183.51 97.008 184.086 97.008C184.998 97.008 185.238 97.668 185.286 97.968L186.282 97.596C186.162 97.08 185.67 96.048 184.086 96.048C182.958 96.048 182.034 96.888 182.034 97.872C182.034 98.688 182.574 99.3 183.474 99.492L184.458 99.708C184.938 99.816 185.202 100.092 185.202 100.452C185.202 100.86 184.854 101.22 184.218 101.22C183.402 101.22 182.946 100.74 182.874 100.14L181.854 100.5ZM191.565 101.304C191.565 101.544 191.589 101.868 191.613 102H192.693C192.669 101.796 192.633 101.388 192.633 100.932V96.228H191.505V99.708C191.505 100.584 191.049 101.184 190.137 101.184C189.189 101.184 188.829 100.488 188.829 99.696V96.228H187.701V99.864C187.701 101.172 188.517 102.18 189.861 102.18C190.533 102.18 191.253 101.904 191.565 101.304ZM195.674 104.28V101.22C195.986 101.736 196.658 102.156 197.546 102.156C199.238 102.156 200.234 100.824 200.234 99.108C200.234 97.428 199.31 96.096 197.582 96.096C196.646 96.096 195.962 96.552 195.65 97.128V96.228H194.558V104.28H195.674ZM199.082 99.108C199.082 100.296 198.422 101.148 197.378 101.148C196.346 101.148 195.662 100.296 195.662 99.108C195.662 97.956 196.346 97.092 197.378 97.092C198.434 97.092 199.082 97.956 199.082 99.108ZM201.311 100.452C201.311 101.364 202.067 102.18 203.243 102.18C204.275 102.18 204.851 101.628 205.103 101.22C205.103 101.64 205.139 101.856 205.163 102H206.267C206.243 101.856 206.195 101.556 206.195 101.052V98.16C206.195 97.032 205.523 96.048 203.795 96.048C202.547 96.048 201.551 96.816 201.431 97.92L202.511 98.172C202.583 97.5 203.027 97.008 203.819 97.008C204.695 97.008 205.067 97.476 205.067 98.04C205.067 98.244 204.971 98.424 204.623 98.472L203.063 98.7C202.067 98.844 201.311 99.42 201.311 100.452ZM203.399 101.232C202.823 101.232 202.463 100.824 202.463 100.392C202.463 99.876 202.823 99.6 203.303 99.528L205.067 99.264V99.528C205.067 100.788 204.323 101.232 203.399 101.232ZM210.784 99.048V98.064H207.532V99.048H210.784ZM215.192 97.248V96.228H213.8V95.316C213.8 94.524 214.316 94.332 214.712 94.332C215 94.332 215.144 94.38 215.204 94.404V93.396C215.156 93.36 214.916 93.276 214.532 93.276C213.488 93.276 212.636 93.972 212.636 95.256V96.228H211.568V97.248H212.636V102H213.8V97.248H215.192ZM215.866 100.452C215.866 101.364 216.622 102.18 217.798 102.18C218.83 102.18 219.406 101.628 219.658 101.22C219.658 101.64 219.694 101.856 219.718 102H220.822C220.798 101.856 220.75 101.556 220.75 101.052V98.16C220.75 97.032 220.078 96.048 218.35 96.048C217.102 96.048 216.106 96.816 215.986 97.92L217.066 98.172C217.138 97.5 217.582 97.008 218.374 97.008C219.25 97.008 219.622 97.476 219.622 98.04C219.622 98.244 219.526 98.424 219.178 98.472L217.618 98.7C216.622 98.844 215.866 99.42 215.866 100.452ZM217.954 101.232C217.378 101.232 217.018 100.824 217.018 100.392C217.018 99.876 217.378 99.6 217.858 99.528L219.622 99.264V99.528C219.622 100.788 218.878 101.232 217.954 101.232ZM221.967 100.5C222.063 101.16 222.735 102.18 224.319 102.18C225.747 102.18 226.431 101.208 226.431 100.392C226.431 99.54 225.879 98.904 224.835 98.676L223.899 98.472C223.455 98.376 223.239 98.124 223.239 97.776C223.239 97.38 223.623 97.008 224.199 97.008C225.111 97.008 225.351 97.668 225.399 97.968L226.395 97.596C226.275 97.08 225.783 96.048 224.199 96.048C223.071 96.048 222.147 96.888 222.147 97.872C222.147 98.688 222.687 99.3 223.587 99.492L224.571 99.708C225.051 99.816 225.315 100.092 225.315 100.452C225.315 100.86 224.967 101.22 224.331 101.22C223.515 101.22 223.059 100.74 222.987 100.14L221.967 100.5ZM229.445 94.404H228.413V95.34C228.413 95.844 228.149 96.228 227.525 96.228H227.213V97.248H228.317V100.416C228.317 101.46 228.941 102.06 229.925 102.06C230.309 102.06 230.597 101.988 230.693 101.952V100.992C230.597 101.016 230.393 101.04 230.249 101.04C229.661 101.04 229.445 100.776 229.445 100.248V97.248H230.693V96.228H229.445V94.404ZM238.45 96.228L236.95 100.572L235.654 96.228H234.418L236.314 102H237.502L239.002 97.608L240.538 102H241.702L243.574 96.228H242.386L241.114 100.572L239.614 96.228H238.45ZM245.83 102V96.228H244.714V102H245.83ZM244.462 94.044C244.462 94.488 244.822 94.848 245.266 94.848C245.722 94.848 246.082 94.488 246.082 94.044C246.082 93.588 245.722 93.228 245.266 93.228C244.822 93.228 244.462 93.588 244.462 94.044ZM249.261 94.404H248.229V95.34C248.229 95.844 247.965 96.228 247.341 96.228H247.029V97.248H248.133V100.416C248.133 101.46 248.757 102.06 249.741 102.06C250.125 102.06 250.413 101.988 250.509 101.952V100.992C250.413 101.016 250.209 101.04 250.065 101.04C249.477 101.04 249.261 100.776 249.261 100.248V97.248H250.509V96.228H249.261V94.404ZM253.143 98.604C253.167 97.752 253.623 97.08 254.487 97.08C255.495 97.08 255.831 97.728 255.831 98.532V102H256.959V98.34C256.959 97.056 256.275 96.06 254.895 96.06C254.235 96.06 253.563 96.288 253.143 96.9V93.312H252.015V102H253.143V98.604ZM97.504 110.424C97.312 109.5 96.544 108.312 94.624 108.312C93.052 108.312 91.816 109.512 91.816 110.844C91.816 112.116 92.68 112.908 93.892 113.172L95.104 113.436C95.956 113.616 96.376 114.144 96.376 114.756C96.376 115.5 95.8 116.112 94.624 116.112C93.34 116.112 92.668 115.236 92.584 114.288L91.456 114.648C91.612 115.86 92.584 117.18 94.636 117.18C96.448 117.18 97.576 115.98 97.576 114.66C97.576 113.472 96.784 112.584 95.368 112.272L94.096 111.996C93.376 111.84 93.004 111.372 93.004 110.76C93.004 109.968 93.688 109.344 94.648 109.344C95.836 109.344 96.352 110.184 96.448 110.796L97.504 110.424ZM102.573 116.304C102.573 116.544 102.597 116.868 102.621 117H103.701C103.677 116.796 103.641 116.388 103.641 115.932V111.228H102.513V114.708C102.513 115.584 102.057 116.184 101.145 116.184C100.197 116.184 99.8366 115.488 99.8366 114.696V111.228H98.7086V114.864C98.7086 116.172 99.5246 117.18 100.869 117.18C101.541 117.18 102.261 116.904 102.573 116.304ZM106.681 119.28V116.22C106.993 116.736 107.665 117.156 108.553 117.156C110.245 117.156 111.241 115.824 111.241 114.108C111.241 112.428 110.317 111.096 108.589 111.096C107.653 111.096 106.969 111.552 106.657 112.128V111.228H105.565V119.28H106.681ZM110.089 114.108C110.089 115.296 109.429 116.148 108.385 116.148C107.353 116.148 106.669 115.296 106.669 114.108C106.669 112.956 107.353 112.092 108.385 112.092C109.441 112.092 110.089 112.956 110.089 114.108ZM112.319 115.452C112.319 116.364 113.075 117.18 114.251 117.18C115.283 117.18 115.859 116.628 116.111 116.22C116.111 116.64 116.147 116.856 116.171 117H117.275C117.251 116.856 117.203 116.556 117.203 116.052V113.16C117.203 112.032 116.531 111.048 114.803 111.048C113.555 111.048 112.559 111.816 112.439 112.92L113.519 113.172C113.591 112.5 114.035 112.008 114.827 112.008C115.703 112.008 116.075 112.476 116.075 113.04C116.075 113.244 115.979 113.424 115.631 113.472L114.071 113.7C113.075 113.844 112.319 114.42 112.319 115.452ZM114.407 116.232C113.831 116.232 113.471 115.824 113.471 115.392C113.471 114.876 113.831 114.6 114.311 114.528L116.075 114.264V114.528C116.075 115.788 115.331 116.232 114.407 116.232ZM120.076 117V116.16C120.436 116.784 121.096 117.156 121.948 117.156C123.664 117.156 124.636 115.8 124.636 114.084C124.636 112.404 123.736 111.06 121.984 111.06C121.024 111.06 120.352 111.528 120.076 112.044V108.312H118.96V117H120.076ZM123.484 114.084C123.484 115.332 122.812 116.148 121.78 116.148C120.784 116.148 120.064 115.332 120.064 114.084C120.064 112.836 120.784 112.056 121.78 112.056C122.824 112.056 123.484 112.836 123.484 114.084ZM125.713 115.452C125.713 116.364 126.469 117.18 127.645 117.18C128.677 117.18 129.253 116.628 129.505 116.22C129.505 116.64 129.541 116.856 129.565 117H130.669C130.645 116.856 130.597 116.556 130.597 116.052V113.16C130.597 112.032 129.925 111.048 128.197 111.048C126.949 111.048 125.953 111.816 125.833 112.92L126.913 113.172C126.985 112.5 127.429 112.008 128.221 112.008C129.097 112.008 129.469 112.476 129.469 113.04C129.469 113.244 129.373 113.424 129.025 113.472L127.465 113.7C126.469 113.844 125.713 114.42 125.713 115.452ZM127.801 116.232C127.225 116.232 126.865 115.824 126.865 115.392C126.865 114.876 127.225 114.6 127.705 114.528L129.469 114.264V114.528C129.469 115.788 128.725 116.232 127.801 116.232ZM131.815 115.5C131.911 116.16 132.583 117.18 134.167 117.18C135.595 117.18 136.279 116.208 136.279 115.392C136.279 114.54 135.727 113.904 134.683 113.676L133.747 113.472C133.303 113.376 133.087 113.124 133.087 112.776C133.087 112.38 133.471 112.008 134.047 112.008C134.959 112.008 135.199 112.668 135.247 112.968L136.243 112.596C136.123 112.08 135.631 111.048 134.047 111.048C132.919 111.048 131.995 111.888 131.995 112.872C131.995 113.688 132.535 114.3 133.435 114.492L134.419 114.708C134.899 114.816 135.163 115.092 135.163 115.452C135.163 115.86 134.815 116.22 134.179 116.22C133.363 116.22 132.907 115.74 132.835 115.14L131.815 115.5ZM138.454 113.52C138.502 112.776 139.078 112.044 140.026 112.044C141.046 112.044 141.586 112.692 141.61 113.52H138.454ZM141.778 115.02C141.562 115.668 141.094 116.184 140.158 116.184C139.186 116.184 138.442 115.464 138.418 114.432H142.762C142.774 114.36 142.786 114.216 142.786 114.072C142.786 112.272 141.79 111.048 140.014 111.048C138.562 111.048 137.254 112.284 137.254 114.096C137.254 116.052 138.61 117.18 140.158 117.18C141.502 117.18 142.426 116.376 142.75 115.356L141.778 115.02ZM152.77 110.424C152.578 109.5 151.81 108.312 149.89 108.312C148.318 108.312 147.082 109.512 147.082 110.844C147.082 112.116 147.946 112.908 149.158 113.172L150.37 113.436C151.222 113.616 151.642 114.144 151.642 114.756C151.642 115.5 151.066 116.112 149.89 116.112C148.606 116.112 147.934 115.236 147.85 114.288L146.722 114.648C146.878 115.86 147.85 117.18 149.902 117.18C151.714 117.18 152.842 115.98 152.842 114.66C152.842 113.472 152.05 112.584 150.634 112.272L149.362 111.996C148.642 111.84 148.27 111.372 148.27 110.76C148.27 109.968 148.954 109.344 149.914 109.344C151.102 109.344 151.618 110.184 151.714 110.796L152.77 110.424ZM155.734 109.404H154.702V110.34C154.702 110.844 154.438 111.228 153.814 111.228H153.502V112.248H154.606V115.416C154.606 116.46 155.23 117.06 156.214 117.06C156.598 117.06 156.886 116.988 156.982 116.952V115.992C156.886 116.016 156.682 116.04 156.538 116.04C155.95 116.04 155.734 115.776 155.734 115.248V112.248H156.982V111.228H155.734V109.404ZM160.901 116.172C159.941 116.172 159.101 115.452 159.101 114.108C159.101 112.776 159.941 112.056 160.901 112.056C161.861 112.056 162.701 112.776 162.701 114.108C162.701 115.452 161.861 116.172 160.901 116.172ZM160.901 111.048C159.173 111.048 157.949 112.356 157.949 114.108C157.949 115.872 159.173 117.18 160.901 117.18C162.629 117.18 163.853 115.872 163.853 114.108C163.853 112.356 162.629 111.048 160.901 111.048ZM168.5 111.168C168.44 111.156 168.284 111.132 168.128 111.132C167.54 111.132 166.82 111.348 166.4 112.236V111.228H165.296V117H166.424V114.108C166.424 112.836 167.06 112.332 168.008 112.332C168.164 112.332 168.332 112.344 168.5 112.368V111.168ZM169.342 115.452C169.342 116.364 170.098 117.18 171.274 117.18C172.306 117.18 172.882 116.628 173.134 116.22C173.134 116.64 173.17 116.856 173.194 117H174.298C174.274 116.856 174.226 116.556 174.226 116.052V113.16C174.226 112.032 173.554 111.048 171.826 111.048C170.578 111.048 169.582 111.816 169.462 112.92L170.542 113.172C170.614 112.5 171.058 112.008 171.85 112.008C172.726 112.008 173.098 112.476 173.098 113.04C173.098 113.244 173.002 113.424 172.654 113.472L171.094 113.7C170.098 113.844 169.342 114.42 169.342 115.452ZM171.43 116.232C170.854 116.232 170.494 115.824 170.494 115.392C170.494 114.876 170.854 114.6 171.334 114.528L173.098 114.264V114.528C173.098 115.788 172.354 116.232 171.43 116.232ZM175.563 117.312C175.707 118.548 176.787 119.46 178.227 119.46C180.399 119.46 181.119 118.032 181.119 116.568V111.228H180.003V112.032C179.715 111.456 179.115 111.12 178.227 111.12C176.643 111.12 175.575 112.368 175.575 113.928C175.575 115.56 176.691 116.724 178.227 116.724C179.091 116.724 179.715 116.304 179.991 115.776V116.604C179.991 117.852 179.439 118.476 178.227 118.476C177.351 118.476 176.739 117.864 176.655 117.06L175.563 117.312ZM178.395 115.776C177.375 115.776 176.727 115.056 176.727 113.928C176.727 112.812 177.399 112.08 178.395 112.08C179.367 112.08 180.039 112.812 180.039 113.928C180.039 115.044 179.367 115.776 178.395 115.776ZM183.653 113.52C183.701 112.776 184.277 112.044 185.225 112.044C186.245 112.044 186.785 112.692 186.809 113.52H183.653ZM186.977 115.02C186.761 115.668 186.293 116.184 185.357 116.184C184.385 116.184 183.641 115.464 183.617 114.432H187.961C187.973 114.36 187.985 114.216 187.985 114.072C187.985 112.272 186.989 111.048 185.213 111.048C183.761 111.048 182.453 112.284 182.453 114.096C182.453 116.052 183.809 117.18 185.357 117.18C186.701 117.18 187.625 116.376 187.949 115.356L186.977 115.02ZM189.129 116.232C189.129 116.7 189.489 117.06 189.957 117.06C190.425 117.06 190.797 116.7 190.797 116.232C190.797 115.764 190.425 115.392 189.957 115.392C189.489 115.392 189.129 115.764 189.129 116.232Z" fill="#687076"/>
</svg>
