<svg width="360" height="210" viewBox="0 0 360 210" fill="none" xmlns="http://www.w3.org/2000/svg">
<path fill-rule="evenodd" clip-rule="evenodd" d="M309.582 47H187.582V169H272.582L309.582 147V47Z" fill="#C1C8CD"/>
<path d="M272.582 169L272.582 147L309.582 147L272.582 169Z" fill="#889096"/>
<path fill-rule="evenodd" clip-rule="evenodd" d="M256.582 25H134.582V147H219.582L256.582 125V25Z" fill="#FBFCFD"/>
<path d="M134.582 25V24.5H134.082V25H134.582ZM256.582 25H257.082V24.5H256.582V25ZM134.582 147H134.082V147.5H134.582V147ZM219.582 147V147.5H219.719L219.838 147.43L219.582 147ZM256.582 125L256.838 125.43L257.082 125.284V125H256.582ZM134.582 25.5H256.582V24.5H134.582V25.5ZM135.082 147V25H134.082V147H135.082ZM219.582 146.5H134.582V147.5H219.582V146.5ZM219.838 147.43L256.838 125.43L256.326 124.57L219.326 146.57L219.838 147.43ZM256.082 25V125H257.082V25H256.082Z" fill="#ECEEF0"/>
<path d="M219.582 147L219.582 125L256.582 125L219.582 147Z" fill="#E6E8EB"/>
<path fill-rule="evenodd" clip-rule="evenodd" d="M159.202 120.437L151.669 156.269L151.673 156.27C151.324 157.931 149.134 158.329 148.222 156.899L140.007 144C139.738 143.576 139.313 143.278 138.827 143.168L124.343 139.885C122.644 139.499 122.322 137.221 123.846 136.379L156.436 118.388C157.851 117.606 159.536 118.852 159.202 120.437ZM66.7761 151.686C56.9586 151.686 49 159.645 49 169.462C49 179.28 56.9586 187.238 66.7761 187.238H122.171C131.989 187.238 139.947 179.28 139.947 169.462C139.947 159.645 131.989 151.686 122.171 151.686H66.7761Z" fill="#3FCF8E"/>
<path fill-rule="evenodd" clip-rule="evenodd" d="M98.608 169.876C98.608 172.159 96.7572 174.01 94.4741 174.01C92.1909 174.01 90.3401 172.159 90.3401 169.876C90.3401 167.593 92.1909 165.742 94.4741 165.742C96.7572 165.742 98.608 167.593 98.608 169.876ZM114.317 169.876C114.317 172.159 112.466 174.01 110.183 174.01C107.899 174.01 106.049 172.159 106.049 169.876C106.049 167.593 107.899 165.742 110.183 165.742C112.466 165.742 114.317 167.593 114.317 169.876ZM78.7648 174.01C81.048 174.01 82.8988 172.159 82.8988 169.876C82.8988 167.593 81.048 165.742 78.7648 165.742C76.4817 165.742 74.6309 167.593 74.6309 169.876C74.6309 172.159 76.4817 174.01 78.7648 174.01Z" fill="#EDEDED"/>
<path d="M118.648 93.8926C120.339 97.1275 122.127 100.331 124.256 103.303C125.681 105.29 127.204 107.197 129.134 108.702C131.495 110.554 134.579 111.268 137.054 109.225C138.755 107.823 139.678 105.556 140.228 103.464C142.301 95.5744 143.637 87.3904 144.762 79.3177C146.135 69.4583 146.873 59.5095 146.821 49.5508L142.794 49.4999C142.861 58.2222 143.234 66.9484 143.995 75.6307C144.381 80.1021 144.873 84.5667 145.582 89.0015C146.142 92.4988 146.806 96.0218 147.948 99.38C148.763 101.782 149.817 104.48 151.948 106.004C154.08 107.528 157.029 106.784 158.967 105.19C161.205 103.347 162.467 100.385 163.443 97.7207C164.753 94.1494 165.557 90.3846 166.233 86.6507C167.749 78.2494 168.517 69.7329 169.309 61.241C169.392 60.3797 169.467 59.5101 169.551 58.6488L165.524 58.5979C165.358 62.8101 165.49 67.0424 165.743 71.2436C166.009 75.7053 166.329 80.3061 167.475 84.6406C167.859 86.0936 168.37 87.7109 169.411 88.8305C170.627 90.1313 172.447 90.2113 173.948 89.3516C175.449 88.4919 176.574 86.8139 177.391 85.2621C178.455 83.2335 179.256 81.0632 179.952 78.8754C181.487 74.054 182.598 69.0158 183.161 63.9787L179.134 63.9279C179.201 71.3729 178.584 78.8093 178.699 86.2549C178.743 89.1681 178.752 92.3086 179.586 95.1178C180.312 97.5758 181.991 99.2079 184.657 98.6395C186.95 98.1478 188.62 96.1024 189.843 94.2304C191.355 91.9308 192.466 89.3821 193.569 86.8739C194.672 84.3658 195.778 81.6461 197.098 79.1407C197.635 78.1224 198.211 77.129 198.899 76.2102C198.547 76.6776 198.989 76.1137 199.087 76.0092C199.251 75.8323 199.43 75.6718 199.601 75.495C199.944 75.1332 199.277 75.6455 199.707 75.4069C199.942 75.2715 200.435 75.1638 199.846 75.2784C199.959 75.2555 200.193 75.2096 200.298 75.1458C199.99 75.3128 199.815 75.1804 200.129 75.1762C200.201 75.1772 200.29 75.1945 200.362 75.1792C200.604 75.1578 199.808 75.0502 200.153 75.1521C200.362 75.2117 200.401 75.3099 199.945 75.0356C200.425 75.3264 199.643 74.7064 199.97 75.0359C200.296 75.3655 199.765 74.6103 199.986 75.0443C200.064 75.208 200.158 75.3881 200.253 75.5439C200.324 75.6669 200.385 75.9605 200.206 75.4294C200.245 75.5438 200.292 75.6583 200.331 75.7808C200.408 76.0422 200.485 76.2953 200.554 76.5566C200.685 77.0789 200.791 77.6009 200.881 78.1309C200.933 78.4407 200.978 78.7423 201.022 79.052C201.037 79.1661 201.052 79.2883 201.074 79.4025C201.081 79.4839 201.177 80.2336 201.118 79.761C201.285 81.195 201.404 82.6447 201.507 84.086C201.734 87.1072 201.913 90.136 202.327 93.1351C202.607 95.1807 202.953 97.7397 204.472 99.2803C206.254 101.093 208.89 100.28 210.536 98.7548C212.305 97.1256 213.414 94.764 214.368 92.5957C215.579 89.8367 216.597 87.002 217.624 84.1756C218.083 82.9041 218.55 81.6327 219.049 80.3698C219.149 80.1108 219.257 79.8518 219.365 79.6009C219.59 79.0505 219.291 79.7464 219.531 79.2207C219.771 78.6949 219.995 78.2096 220.267 77.7248C220.448 77.3936 220.686 77.0874 220.867 76.7561C221.048 76.4249 220.517 77.069 220.785 76.8609C220.834 76.8289 220.859 76.7642 220.908 76.7241C221.436 76.324 220.657 76.8104 220.973 76.6354C221.346 76.4286 220.448 76.7834 220.844 76.6908C220.844 76.6908 220.175 76.6823 220.183 76.6824C220.626 76.688 219.895 76.5567 220.279 76.7406C220.367 76.7824 220.455 76.8567 220.543 76.9148C220.152 76.6495 220.979 77.4654 220.757 77.1453C220.931 77.3997 221.081 77.6782 221.222 77.9566C221.223 77.9484 221.441 78.4719 221.332 78.202C221.223 77.9322 221.433 78.4962 221.425 78.4798C221.65 79.1986 221.826 79.933 221.953 80.675C222.231 82.2568 222.284 83.1931 222.488 84.9042C222.795 87.4139 223.448 91.132 226.789 90.7023C229.887 90.3021 231.93 86.6831 233.275 84.1862C233.646 83.4912 234.001 82.7879 234.325 82.0679C234.764 81.0646 234.65 79.8916 233.635 79.2767C232.796 78.7617 231.311 78.9626 230.871 79.9741C230.025 81.8915 228.788 84.1621 227.628 85.5061C227.391 85.7797 227.13 86.0286 226.877 86.2857C226.811 86.3581 226.486 86.6062 226.803 86.3743C226.665 86.4702 226.527 86.5579 226.381 86.6456C226.178 86.7732 226.331 86.7751 226.445 86.6464C226.298 86.8317 225.906 86.5745 226.428 86.7031C226.043 86.6169 226.581 86.7539 226.597 86.7622C226.404 86.7028 226.476 86.7363 226.829 86.879C226.661 86.7712 226.725 86.8289 227.012 87.0441C226.67 86.6736 227.289 87.4137 226.965 86.9703C226.688 86.5925 227.009 87.2718 226.887 86.7659C226.741 86.2027 226.619 85.6479 226.529 85.0773C226.5 84.8979 226.478 84.7186 226.456 84.5475C226.374 83.9607 226.485 84.8001 226.441 84.4334C226.397 84.0668 226.361 83.7165 226.318 83.358C226.224 82.5025 226.13 81.639 226.012 80.7832C225.805 79.2999 225.501 77.8479 224.923 76.4657C223.992 74.241 221.439 71.6379 218.907 73.1761C217.161 74.2361 216.294 76.5682 215.539 78.3567C214.5 80.8249 213.639 83.3687 212.713 85.8872C212.212 87.2558 211.695 88.6242 211.131 89.9676C211.072 90.1133 210.757 90.8497 210.89 90.5422C210.765 90.8254 210.641 91.1086 210.509 91.3916C210.235 91.974 209.954 92.5562 209.649 93.1218C209.385 93.6148 209.105 94.0994 208.793 94.5673C208.645 94.7932 208.489 95.0109 208.334 95.2286C208.268 95.3173 208.088 95.5103 208.399 95.1481C208.285 95.285 208.17 95.4137 208.056 95.5424C207.917 95.6952 207.762 95.8235 207.615 95.9762C207.248 96.3539 207.931 95.8419 207.485 96.0803C207.339 96.1598 207.161 96.2471 207.031 96.3349C207.551 95.9835 207.056 96.2457 206.862 96.3409C207.34 96.1029 207.159 96.3609 206.822 96.3079C206.436 96.246 207.344 96.4121 207.023 96.3267C206.726 96.2497 207.471 96.5439 207.271 96.4356C206.991 96.2775 207.661 96.8473 207.279 96.4357C207.001 96.1311 207.475 96.8693 207.216 96.321C207.138 96.1573 207.059 95.9936 206.981 95.838C207.272 96.403 206.981 95.8217 206.927 95.6421C206.764 95.1437 206.641 94.6378 206.543 94.1321C206.429 93.5693 206.332 92.9986 206.251 92.4199C206.228 92.2732 206.111 91.3686 206.162 91.8005C206.118 91.4257 206.074 91.0509 206.039 90.6762C205.896 89.275 205.792 87.8663 205.689 86.4575C205.477 83.5422 205.296 80.6192 204.857 77.7336C204.567 75.8181 204.162 73.4617 202.673 72.0843C200.873 70.4344 198.318 71.2157 196.704 72.7086C195.091 74.2014 193.91 76.4889 192.925 78.5348C190.593 83.3705 188.938 88.7192 185.758 93.0886C185.463 93.4916 185.954 92.8551 185.758 93.0886C185.676 93.177 185.602 93.2737 185.521 93.3622C185.365 93.5392 185.21 93.7081 185.047 93.8688C184.884 94.0294 184.697 94.1898 184.517 94.3502C184.306 94.5347 184.94 94.0871 184.583 94.2941C184.469 94.3659 184.347 94.4457 184.233 94.5175C184.152 94.5653 184.055 94.5966 183.982 94.6526C183.689 94.8767 184.41 94.5685 184.055 94.6291C183.893 94.6515 183.683 94.7139 183.529 94.7689C184.031 94.5881 183.731 94.7227 183.425 94.7432C183.119 94.7637 183.306 94.6197 183.385 94.7508C183.586 94.7859 183.618 94.7863 183.489 94.7522C183.305 94.6847 183.393 94.7265 183.762 94.8776C183.386 94.6532 184.103 95.2481 183.794 94.9024C183.563 94.6473 184.013 95.3608 183.881 95.0256C183.857 94.9683 183.802 94.9107 183.778 94.8534C183.668 94.6242 183.519 94.2807 183.691 94.7384C183.59 94.4687 183.504 94.1991 183.427 93.9297C183.281 93.399 183.183 92.8608 183.093 92.3146C183.071 92.1841 182.968 91.353 183.019 91.7767C182.976 91.3856 182.941 90.9947 182.905 90.6037C182.328 83.3719 182.928 76.0492 183.108 68.8107C183.144 67.2084 183.173 65.6142 183.161 64.0113C183.15 62.9128 182.276 61.9662 181.173 61.9522C179.997 61.9374 179.26 62.8637 179.134 63.9604C179.097 64.3098 179.053 64.6509 179.008 65.0002C178.99 65.1301 178.911 65.6417 178.972 65.252C178.937 65.5037 178.894 65.7554 178.858 66.0071C178.709 66.949 178.536 67.8906 178.347 68.8319C177.917 71.0069 177.415 73.1646 176.824 75.2968C176.233 77.4291 175.571 79.4872 174.74 81.5025C174.524 82.0286 174.085 82.9586 173.665 83.6937C173.459 84.0572 173.245 84.4125 173.007 84.7511C172.917 84.8883 172.818 85.0172 172.72 85.1462C172.982 84.8078 172.655 85.2104 172.549 85.323C172.434 85.4436 172.312 85.5478 172.198 85.6684C171.937 85.9499 172.271 85.6368 172.198 85.6765C172.084 85.7483 171.938 85.8116 171.841 85.8998C171.653 86.0683 172.253 85.783 171.808 85.8994C171.493 85.9849 171.696 85.898 171.921 85.9008C171.494 85.8955 172.025 85.9347 172.074 85.9434C171.761 85.8663 172.394 86.1021 172.29 86.0357C171.978 85.8609 172.722 86.2364 172.378 86.11C172.298 86.0764 172.227 85.9291 172.163 85.8714C172.338 86.0282 172.376 86.232 172.243 85.9537C172.125 85.7082 171.983 85.4623 171.857 85.2166C171.708 84.9219 171.974 85.5842 171.826 85.1349C171.772 84.9715 171.709 84.808 171.655 84.6446C171.539 84.2851 171.431 83.9177 171.339 83.5504C170.301 79.5833 170.042 75.8946 169.787 71.8072C169.512 67.443 169.366 63.0398 169.542 58.6731C169.588 57.5754 168.618 56.6275 167.555 56.6141C166.387 56.5993 165.618 57.5252 165.515 58.6222C164.774 66.3418 164.134 74.2172 162.975 81.7932C162.388 85.6096 161.695 89.4246 160.665 93.1459C160.226 94.7187 159.724 96.2663 159.116 97.7881C159.1 97.8286 158.859 98.3951 159.033 97.9823C158.959 98.1441 158.884 98.3059 158.81 98.4676C158.661 98.7749 158.512 99.0903 158.347 99.3893C158.05 99.9469 157.729 100.488 157.368 101.004C157.286 101.125 157.196 101.238 157.106 101.359C157.433 100.932 157.139 101.31 157.073 101.391C156.893 101.592 156.714 101.785 156.518 101.97C156.388 102.09 155.729 102.562 156.257 102.219C156.03 102.37 155.786 102.505 155.551 102.649C155.105 102.912 155.906 102.596 155.405 102.704C155.187 102.75 154.969 102.804 154.751 102.85C155.421 102.704 154.687 102.809 154.486 102.814C154.341 102.813 153.939 102.718 154.542 102.84C154.429 102.822 154.333 102.772 154.221 102.738C154.935 102.967 154.332 102.845 154.197 102.681C153.84 102.253 154.467 103.001 154.118 102.623C153.974 102.474 153.831 102.326 153.688 102.178C153.617 102.096 153.553 102.005 153.482 101.923C153.895 102.392 153.529 101.997 153.451 101.858C153.198 101.448 152.954 101.03 152.733 100.596C152.6 100.334 152.482 100.064 152.365 99.7937C152.326 99.7119 152.13 99.2294 152.326 99.7037C152.248 99.4994 152.17 99.3031 152.092 99.0988C150.97 96.0581 150.31 92.8362 149.746 89.648C149.048 85.6608 148.581 81.7579 148.197 77.7503C147.3 68.391 146.887 58.9809 146.813 49.5832C146.789 46.9713 142.771 46.9124 142.786 49.5323C142.866 66.1221 140.749 82.6271 137.169 98.8045C136.794 100.484 136.49 102.205 135.898 103.824C135.822 104.035 135.731 104.237 135.648 104.448C135.915 103.743 135.615 104.504 135.516 104.698C135.409 104.908 135.293 105.11 135.17 105.312C135.022 105.554 134.606 105.997 135.046 105.538C134.907 105.691 134.777 105.852 134.63 106.005C134.556 106.077 134.467 106.149 134.393 106.222C134.1 106.519 134.58 106.135 134.458 106.174C134.369 106.205 133.996 106.388 133.947 106.46C133.955 106.444 134.44 106.344 134.101 106.389C134.012 106.404 133.843 106.443 133.762 106.482C133.462 106.617 134.164 106.495 133.939 106.468C133.835 106.451 133.705 106.473 133.609 106.48C133.496 106.479 133.375 106.453 133.263 106.452C133.593 106.439 133.672 106.546 133.343 106.453C133.135 106.385 132.366 106.05 132.95 106.358C132.67 106.208 132.381 106.074 132.11 105.9C131.942 105.792 131.774 105.676 131.615 105.56C131.559 105.519 131.503 105.477 131.447 105.436C131.048 105.146 131.774 105.725 131.383 105.386C131.025 105.073 130.674 104.759 130.34 104.421C129.561 103.631 128.727 102.636 128.133 101.839C125.82 98.7588 123.938 95.3343 122.161 91.9274C120.95 89.6097 117.452 91.6157 118.656 93.9333L118.648 93.9332L118.648 93.8926Z" fill="#3FCF8E"/>
</svg>
