<svg xmlns="http://www.w3.org/2000/svg" width="16" height="17" fill="none">
  <path fill="#097C4F" fill-rule="evenodd" d="M6.007 2.226a.5.5 0 0 1-.182.683L2.915 4.6 8 7.554 13.085 4.6l-2.91-1.69a.5.5 0 0 1 .502-.865l3.624 2.105a.5.5 0 0 1 .249.432V8.86a.5.5 0 1 1-1 0V5.486L8.5 8.42v5.836l3.066-1.781a.5.5 0 0 1 .503.864L8.25 15.557a.5.5 0 0 1-.502 0l-3.817-2.218a.5.5 0 0 1 .502-.864l3.066 1.78V8.42L2.45 5.487v3.336a.5.5 0 0 1-1 0V4.582a.5.5 0 0 1 .25-.432l3.623-2.105a.5.5 0 0 1 .684.18Z" clip-rule="evenodd"/>
</svg>
