<svg xmlns="http://www.w3.org/2000/svg" width="16" height="17" fill="none">
  <path fill="#097C4F" fill-rule="evenodd" d="M5.5 3.5a2.5 2.5 0 0 1 5 0V5a2.5 2.5 0 0 1 2.473 2.5v5a2.5 2.5 0 0 1-2.5 2.5h-5a2.5 2.5 0 0 1-2.5-2.5v-5a2.5 2.5 0 0 1 2.5-2.5H5.5V3.5ZM5.473 6a1.5 1.5 0 0 0-1.5 1.5v.475h4.521a.5.5 0 0 1 .5.5v4a.5.5 0 0 1-.5.5H4.05A1.5 1.5 0 0 0 5.473 14h5a1.5 1.5 0 0 0 1.5-1.5v-5a1.5 1.5 0 0 0-1.5-1.5h-5ZM9.5 5h-3V3.5a1.5 1.5 0 1 1 3 0V5Zm-5.506 6.975h4v-1h-4v1Zm0-2h4v-1h-4v1Z" clip-rule="evenodd"/>
</svg>
