<svg xmlns="http://www.w3.org/2000/svg" width="16" height="16" fill="none">
  <path fill="#85E0B7" fill-rule="evenodd" d="M6.242 1.937a1.75 1.75 0 0 1 3.486-.016l2.65 1.53a1.75 1.75 0 1 1 1.75 3.032v3.034a1.75 1.75 0 1 1-1.75 3.032l-2.647 1.529a1.75 1.75 0 0 1-3.491-.016l-2.59-1.495a1.75 1.75 0 0 1-1.78-3.012v-3.11a1.749 1.749 0 0 1 .937-3.23c.306 0 .594.08.845.218l2.59-1.496Zm1.744-.598a.75.75 0 1 0 0 1.5.75.75 0 0 0 0-1.5ZM6.468 2.961l-2.1 1.213a1.75 1.75 0 0 1-1.498 2.54v2.571c.213.008.416.053.603.13l3.276-5.942a.502.502 0 0 1 .061-.087 1.758 1.758 0 0 1-.342-.425Zm-2.1 8.865 2.114 1.22a1.75 1.75 0 0 1 3.015.012l2.183-1.26a1.738 1.738 0 0 1-.164-.567h-6.97a1.738 1.738 0 0 1-.178.595Zm9.021-1.53c.055.03.117.05.182.058a.75.75 0 1 1-.182-.058Zm-.26-1.007V6.71a1.75 1.75 0 0 1-1.449-2.508L9.51 2.95a1.757 1.757 0 0 1-.344.431l3.35 6.067a1.74 1.74 0 0 1 .612-.16Zm-1.42.765a.502.502 0 0 0 .05.074 1.72 1.72 0 0 0-.07.124.5.5 0 0 0-.143-.021H4.468a.504.504 0 0 0-.1.01 1.75 1.75 0 0 0-.108-.182l3.365-6.103a.5.5 0 0 0 .053-.144 1.76 1.76 0 0 0 .587.005l3.444 6.237ZM2.057 4.966a.75.75 0 1 1 1.5 0 .75.75 0 0 1-1.5 0Zm5.179 8.976a.75.75 0 1 1 1.5 0 .75.75 0 0 1-1.5 0Zm-4.43-3.658a.75.75 0 1 0 0 1.5.75.75 0 0 0 0-1.5Zm9.7-5.318a.75.75 0 1 1 1.5 0 .75.75 0 0 1-1.5 0Z" clip-rule="evenodd"/>
</svg>
