<svg xmlns="http://www.w3.org/2000/svg" width="16" height="17" fill="none">
  <path fill="#85E0B7" fill-rule="evenodd" d="M6.54 2.276a2.5 2.5 0 0 1 2.92-.004l2.427 1.741c.653.469.794 1.33.426 1.969l.6.431a1.5 1.5 0 0 1 .369 2.06l.717.518a1.5 1.5 0 0 1-.017 2.446l-4.736 3.315a2.5 2.5 0 0 1-2.873-.004l-4.71-3.317a1.5 1.5 0 0 1-.023-2.437l.985-.72a1.5 1.5 0 0 1 .479-1.858l.603-.435a1.501 1.501 0 0 1 .423-1.965l2.41-1.74Zm-1.714 3.44a.497.497 0 0 0-.155-.114.5.5 0 0 1 .044-.776l2.41-1.74a1.5 1.5 0 0 1 1.753-.002l2.426 1.741a.5.5 0 0 1 .05.772.496.496 0 0 0-.174.128L8.863 7.346a1.5 1.5 0 0 1-1.724-.002L4.826 5.715Zm-.373.96-.764.55a.5.5 0 0 0 .005.815l3.443 2.424a1.5 1.5 0 0 0 1.723.002l3.466-2.426a.5.5 0 0 0 .005-.815l-.766-.55-2.128 1.49a2.5 2.5 0 0 1-2.873-.004L4.453 6.675Zm-1.13 2.326L2.23 9.8a.5.5 0 0 0 .008.812l4.71 3.317a1.5 1.5 0 0 0 1.724.002l4.735-3.315a.5.5 0 0 0 .006-.815l-.916-.66-3.064 2.144a2.5 2.5 0 0 1-2.873-.004l-3.239-2.28Z" clip-rule="evenodd"/>
</svg>
