<svg xmlns="http://www.w3.org/2000/svg" xmlns:xlink="http://www.w3.org/1999/xlink" viewBox="0,0,256,256" width="48px" height="48px" fill-rule="nonzero"><g fill="none" fill-rule="nonzero" stroke="none" stroke-width="1" stroke-linecap="butt" stroke-linejoin="miter" stroke-miterlimit="10" stroke-dasharray="" stroke-dashoffset="0" font-family="none" font-weight="none" font-size="none" text-anchor="none" style="mix-blend-mode: normal"><g transform="scale(5.33333,5.33333)"><path d="M24.047,5c-1.555,0.005 -2.633,0.142 -3.936,0.367c-3.848,0.67 -4.549,2.077 -4.549,4.67v3.963h9v2h-9.342h-4.35c-2.636,0 -4.943,1.242 -5.674,4.219c-0.826,3.417 -0.863,5.557 0,9.125c0.655,2.661 2.098,4.656 4.735,4.656h3.632v-5.104c0,-2.966 2.686,-5.896 5.764,-5.896h7.236c2.523,0 5,-1.862 5,-4.377v-8.586c0,-2.439 -1.759,-4.263 -4.218,-4.672c0.061,-0.006 -1.756,-0.371 -3.298,-0.365zM19.063,9c0.821,0 1.5,0.677 1.5,1.502c0,0.833 -0.679,1.498 -1.5,1.498c-0.837,0 -1.5,-0.664 -1.5,-1.498c0,-0.822 0.663,-1.502 1.5,-1.502z" fill="#666666"></path><path d="M23.078,43c1.555,-0.005 2.633,-0.142 3.936,-0.367c3.848,-0.67 4.549,-2.077 4.549,-4.67v-3.963h-9v-2h9.343h4.35c2.636,0 4.943,-1.242 5.674,-4.219c0.826,-3.417 0.863,-5.557 0,-9.125c-0.656,-2.661 -2.099,-4.656 -4.736,-4.656h-3.632v5.104c0,2.966 -2.686,5.896 -5.764,5.896h-7.236c-2.523,0 -5,1.862 -5,4.377v8.586c0,2.439 1.759,4.263 4.218,4.672c-0.061,0.006 1.756,0.371 3.298,0.365zM28.063,39c-0.821,0 -1.5,-0.677 -1.5,-1.502c0,-0.833 0.679,-1.498 1.5,-1.498c0.837,0 1.5,0.664 1.5,1.498c0,0.822 -0.664,1.502 -1.5,1.502z" fill="#9a9a9a"></path></g></g></svg>