<svg xmlns="http://www.w3.org/2000/svg" width="17" height="16" fill="none">
  <path fill="#85E0B7" fill-rule="evenodd" d="M2.291 10.898a7 7 0 0 1 9.283-9.267 2.5 2.5 0 0 1 3.458 3.456 7 7 0 0 1-9.312 9.265 2.5 2.5 0 0 1-3.429-3.454ZM2.665 8a6 6 0 0 1 8.152-5.603 2.488 2.488 0 0 0-.382 1.464 4.5 4.5 0 0 0-5.929 5.86 2.489 2.489 0 0 0-1.455.401A5.985 5.985 0 0 1 2.665 8ZM6.5 13.598a6 6 0 0 0 7.767-7.753 2.488 2.488 0 0 1-1.465.382 4.5 4.5 0 0 1-5.89 5.918l.001.076c0 .508-.152.982-.413 1.377Zm4.932-9.867a1.5 1.5 0 1 1 3 0 1.5 1.5 0 0 1-3 0Zm-5.363 6.617c.081.072.158.149.23.23a3.5 3.5 0 1 0-.23-.23Zm-1.656.373c.365 0 .7.13.96.346.064.07.131.137.2.203a1.5 1.5 0 1 1-1.16-.55Z" clip-rule="evenodd"/>
</svg>
