<svg xmlns="http://www.w3.org/2000/svg" width="16" height="17" fill="none">
  <path fill="#097C4F" fill-rule="evenodd" d="M5.857 1.691a.5.5 0 0 1 .5.5v2.494a.5.5 0 1 1-1 0V2.19a.5.5 0 0 1 .5-.5Zm-4.345.439a.5.5 0 0 1 .707.01l2.13 2.197a.5.5 0 0 1-.717.696L1.501 2.837a.5.5 0 0 1 .01-.707Zm3.595 4.974c-.365-.834.485-1.683 1.32-1.316l7.929 3.487c.873.384.764 1.655-.161 1.886l-3.039.756-.74 2.868c-.237.92-1.504 1.02-1.884.15l-3.425-7.83Zm8.847 3.086-7.93-3.486 3.424 7.83.815-3.155a.5.5 0 0 1 .363-.36l3.328-.829ZM1.047 6.41a.5.5 0 0 1 .5-.5H3.99a.5.5 0 0 1 0 1H1.547a.5.5 0 0 1-.5-.5Z" clip-rule="evenodd"/>
</svg>
