<svg xmlns="http://www.w3.org/2000/svg" width="17" height="16" fill="none">
  <path fill="#85E0B7" fill-rule="evenodd" d="M4.678 2.342a1.5 1.5 0 1 0 0 3 1.5 1.5 0 0 0 0-3Zm-2.5 1.5a2.5 2.5 0 0 1 4.304-1.73 6.344 6.344 0 0 1 2.386-.463.5.5 0 0 1 0 1c-.649 0-1.27.115-1.845.326a2.5 2.5 0 1 1-4.845.868Zm10.862-1.5a1.5 1.5 0 1 0 0 3 1.5 1.5 0 0 0 0-3Zm-2.5 1.5a2.5 2.5 0 1 1 4.234 1.801c.293.732.454 1.53.454 2.366a.5.5 0 1 1-1 0c0-.64-.112-1.254-.318-1.823a2.5 2.5 0 0 1-3.37-2.344ZM3.008 7.509a.5.5 0 0 1 .5.5c0 .632.11 1.238.31 1.8a2.5 2.5 0 1 1-.866.539 6.345 6.345 0 0 1-.444-2.34.5.5 0 0 1 .5-.5Zm1.67 3.149a1.498 1.498 0 0 0-1.5 1.5 1.5 1.5 0 1 0 1.5-1.5Zm8.362 0a1.5 1.5 0 1 0 0 3 1.5 1.5 0 0 0 0-3Zm-2.5 1.5a2.5 2.5 0 1 1 .713 1.748 6.343 6.343 0 0 1-2.385.463.5.5 0 0 1 0-1 5.36 5.36 0 0 0 1.835-.322 2.494 2.494 0 0 1-.163-.889Z" clip-rule="evenodd"/>
</svg>
