<svg xmlns="http://www.w3.org/2000/svg" width="16" height="16" fill="none">
  <path fill="#85E0B7" fill-rule="evenodd" d="M2.5 3.4a.5.5 0 0 1 .5-.5h.025a.5.5 0 0 1 0 1H3a.5.5 0 0 1-.5-.5Zm1.975.008a.5.5 0 0 1 .5-.5H13a.5.5 0 0 1 0 1H4.975a.5.5 0 0 1-.5-.5ZM2.5 6.368a.5.5 0 0 1 .5-.5h.025a.5.5 0 1 1 0 1H3a.5.5 0 0 1-.5-.5Zm1.975.007a.5.5 0 0 1 .5-.5H13a.5.5 0 0 1 0 1H4.975a.5.5 0 0 1-.5-.5ZM2.518 9.372a.5.5 0 0 1 .5-.5h.007a.5.5 0 1 1 0 1h-.007a.5.5 0 0 1-.5-.5Zm1.957.007a.5.5 0 0 1 .5-.5H13a.5.5 0 0 1 0 1H4.975a.5.5 0 0 1-.5-.5Zm-1.098 2.66a.5.5 0 0 1 .002.707l-.006.007a.5.5 0 0 1-.71-.704l.007-.007a.5.5 0 0 1 .707-.003Zm1.098.362a.5.5 0 0 1 .5-.5H13a.5.5 0 1 1 0 1H4.975a.5.5 0 0 1-.5-.5Z" clip-rule="evenodd"/>
</svg>
