<svg xmlns="http://www.w3.org/2000/svg" width="16" height="16" fill="none" viewBox="0 0 16 16">
  <path fill="#EDEDED" fill-rule="evenodd" d="M8.5 1.5c-.6.2-1.1.8-1.6 1.7-.8 1.4-1.8 3.4-.4 5 .6.7 1.7 1.2 3 .5 1.1-.6 1.4-2.1 1-3.2-.8-1.5-1.6-1.9-1.8-2.9-.2-.6-.2-1.1-.2-1.1ZM8.3 1.3c-.6.2-1.1.8-1.6 1.7-.8 1.4-1.8 3.4-.4 5 .6.7 1.7 1 2.3.5.4-.3.6-.5.8-1.2.2-.6 0-1.5 0-1.9-.1-.5-.2-1 0-1.7l-.1-.1c-.3-.4-.5-.7-.6-1.2-.2-.5-.3-1-.4-1.1ZM7.4 1.6c-.5.4-.9 1.1-1.2 2.2-.4 1.4-.4 2.8-.3 3.5.3 1.5 1.6 2.1 3 1.4.9-.4 1.2-1.4 1.2-2.4 0-1.1-2.1-2.3-2.4-3.2-.2-.6-.3-1.1-.3-1.5Z" clip-rule="evenodd"/>
  <path fill="#EDEDED" d="M9.8 4.5c.6.8.8 1.4.5 1.9-.5.5-1.8.8-2.6.2-.5-.4-.7-1.2-.6-2.5-.3.6-.5 1.1-.6 1.5-.2.7-.3 1.1 0 1.7.2.4.7.7 1.4.8 1.1.2 2.2.1 3-.2.5-.2.7-.5.7-.8 0-.4-.1-.7-.3-1-.2-.3-.6-.7-1.1-1ZM6.5 3.9c0 .6.1 1.2.5 1.8.5.8 1 1.5 1.9 2.3.5.4 1 .5 1.4.4-.2.5-.5.7-.9.7-.4 0-1-.2-1.9-1.2-.6-.7-1-1.4-1.2-2.1 0-.2 0-.5.1-.8.1-.2.1-.6.1-1.1ZM7.9 4.5c0 .5.2 1.2 0 1.9-.2.6-1.3 1.5-1 2.4.3.8 1.1.6 1.6.2.4-.4.7-1 .8-1.6 0-.4-.1-1.2-.2-2 0-.5 0-.9.1-1.2l-.1-.2-1-.2c-.1.2-.2.5-.2.7ZM8.5 2.1c-.3.1-.5.3-.8.7-.4.6-.5.8-.4 2 .1.7.2 1.3.2 2l1.2-3.3c0-.1-.1-.3-.1-.5-.1-.2-.1-.4-.1-.5ZM8.9 2.9c-.3.2-.5.6-.7 1.2-.2.5-.3 1.4-.4 2.3.2-.6.3-1.1.4-1.4.1-.4.1-1 .3-1.5.2-.3.3-.5.4-.6ZM6.4 8.5c.5.1.8.1.8.2 0 .1-.1.2-.3.1-.2 0-.3-.1-.5-.3ZM6.8 2.1c-.2.3-.5.7-.7 1-.2.4-.3.6-.4.8 0 .1 0 .3 0 .6v.9c.1-.5.2-.9.3-1.2.2-.6.4-1 .8-1.4Z"/>
</svg>
