<svg xmlns="http://www.w3.org/2000/svg" width="17" height="16" fill="none">
  <g clip-path="url(#a)">
    <path fill="#171717" fill-rule="evenodd" d="M16.08 4.235v7.516c0 .337-.03.66-.089.982a3.032 3.032 0 0 1-.323.925c-.161.28-.352.547-.602.786-.235.238-.514.42-.823.575a3.383 3.383 0 0 1-.97.308c-.333.056-.68.07-1.014.084H4.355c-.352 0-.69-.028-1.027-.084a3.383 3.383 0 0 1-.97-.308 3.58 3.58 0 0 1-.823-.575 2.927 2.927 0 0 1-.602-.786 3.033 3.033 0 0 1-.323-.925 7.28 7.28 0 0 1-.088-.968V4.22c.014-.337.029-.66.088-.982.058-.322.161-.631.323-.926a3.43 3.43 0 0 1 .602-.785c.03-.028.063-.056.096-.084.033-.028.066-.056.095-.084.206-.154.412-.295.647-.407A2.5 2.5 0 0 0 2.49.903c.04-.017.08-.035.118-.049.235-.084.484-.154.734-.196.243-.041.5-.056.743-.07h.021c.074-.014.162-.014.25-.014h7.89c.352 0 .69.028 1.027.084.338.056.662.154.97.308.294.154.573.337.823.575.25.225.44.491.602.786.162.294.265.603.323.925.058.318.073.65.088.968v.014Zm-3.203 5.343-.044.168c1.351 1.57.984 3.253.778 2.959-.705-1.29-1.998-.968-2.659-.645a1.08 1.08 0 0 0-.088.049c-.03.017-.059.035-.088.049 0 .014-.015.014-.015.014-1.366.701-3.217.743-5.068-.014-1.557-.645-2.836-1.739-3.658-3.001.426.294.881.56 1.366.771 1.954.884 3.923.814 5.318 0C6.736 8.47 5.076 6.577 3.812 5.034a7.37 7.37 0 0 1-.646-.855c1.528 1.318 3.922 2.987 4.79 3.45-1.822-1.838-3.439-4.11-3.365-4.04 2.88 2.763 5.539 4.334 5.539 4.334.102.042.176.084.235.126.058-.14.102-.28.146-.42.456-1.6-.058-3.436-1.234-4.95 2.674 1.528 4.246 4.445 3.6 6.899Z" clip-rule="evenodd"/>
  </g>
  <defs>
    <clipPath id="a">
      <path fill="#fff" d="M.286.099h16v15.803h-16z"/>
    </clipPath>
  </defs>
</svg>
