<svg width="16" height="16" viewBox="0 0 16 16" fill="none" xmlns="http://www.w3.org/2000/svg">
<path d="M2.90669 9.96902L2.86328 10.1004H3.00164H3.50995H3.5838L3.60552 10.0298L3.96055 8.87615H5.23575L5.58501 10.0294L5.60652 10.1004H5.68072H6.20696H6.34532L6.30191 9.96902L4.98032 5.96902L4.95764 5.90039H4.88536H4.32324H4.25096L4.22829 5.96902L2.90669 9.96902ZM6.90596 10.0004V10.1004H7.00596H7.5023H7.6023V10.0004V8.51251H8.20795C8.65195 8.51251 9.03901 8.41117 9.31702 8.18826C9.59851 7.96255 9.75513 7.62268 9.75513 7.17615C9.75513 6.71252 9.6005 6.38487 9.31548 6.17782C9.03683 5.97538 8.64959 5.90039 8.20795 5.90039H7.00596H6.90596V6.00039V10.0004ZM10.4498 10.0004V10.1004H10.5498H13.0016H13.1016V10.0004V9.57009V9.47009H13.0016H12.1268V6.52463H13.0016H13.1016V6.42463V6.00039V5.90039H13.0016H10.5498H10.4498V6.00039V6.42463V6.52463H10.5498H11.4245V9.47009H10.5498H10.4498V9.57009V10.0004ZM4.29332 7.78711C4.40029 7.43828 4.5001 7.10025 4.59832 6.74754C4.69654 7.10026 4.79635 7.43829 4.90333 7.78713C4.90335 7.78718 4.90337 7.78723 4.90338 7.78729L5.0496 8.27009H4.14704L4.29326 7.78729C4.29328 7.78723 4.2933 7.78717 4.29332 7.78711ZM7.6023 7.90039V6.50645H8.14217C8.47874 6.50645 8.70599 6.55387 8.84831 6.65471C8.98206 6.74947 9.05879 6.90524 9.05879 7.17615C9.05879 7.44126 8.98314 7.61378 8.84582 7.72389C8.70372 7.83781 8.47699 7.90039 8.14217 7.90039H7.6023Z" fill="url(#paint0_linear_1032_62531)"/>
<path d="M12 0.75H4C2.20507 0.75 0.75 2.20507 0.75 4V12C0.75 13.7949 2.20507 15.25 4 15.25H12C13.7949 15.25 15.25 13.7949 15.25 12V4C15.25 2.20507 13.7949 0.75 12 0.75Z" stroke="url(#paint1_linear_1032_62531)" stroke-width="1.5"/>
<defs>
<linearGradient id="paint0_linear_1032_62531" x1="4.78868" y1="9.53602" x2="8.97515" y2="9.53602" gradientUnits="userSpaceOnUse">
<stop stop-color="#429B72"/>
<stop offset="1" stop-color="#4CC38A" stop-opacity="0.6"/>
</linearGradient>
<linearGradient id="paint1_linear_1032_62531" x1="3.47684" y1="13.3016" x2="9.40588" y2="13.3016" gradientUnits="userSpaceOnUse">
<stop stop-color="#429B72"/>
<stop offset="1" stop-color="#4CC38A" stop-opacity="0.6"/>
</linearGradient>
</defs>
</svg>
