<svg xmlns="http://www.w3.org/2000/svg" width="14" height="14"><defs><linearGradient id="a" x1="-52.871%" x2="94.121%" y1="87.265%" y2="87.265%"><stop offset="0%"/><stop offset="100%" stop-color="#A2A2A2"/></linearGradient></defs><path fill="url(#a)" fill-rule="evenodd" d="M12.735 3.145c.004.128.005.256.006.384l.001.439v5.245c-.002.128-.003.256-.007.384-.007.28-.024.561-.073.837a2.84 2.84 0 0 1-.262.796 2.67 2.67 0 0 1-1.17 1.17 2.83 2.83 0 0 1-.796.262c-.276.05-.557.066-.837.073a16.39 16.39 0 0 1-.384.006l-.408.001H3.53c-.128-.002-.256-.003-.384-.007a5.558 5.558 0 0 1-.837-.073 2.82 2.82 0 0 1-.796-.262 2.671 2.671 0 0 1-1.17-1.17 2.825 2.825 0 0 1-.262-.796 5.585 5.585 0 0 1-.073-.837A18.376 18.376 0 0 1 0 9.213V3.53c.002-.128.003-.256.007-.384.007-.28.024-.561.073-.837.05-.28.133-.541.262-.796A2.673 2.673 0 0 1 1.705.254c.193-.08.393-.136.603-.174.207-.037.417-.056.627-.066.07-.003.14-.006.21-.007C3.273.003 3.4.002 3.529 0h5.684c.128.002.256.003.384.007.28.007.561.024.837.073.28.05.541.133.796.262.504.256.914.666 1.17 1.17.13.255.212.516.262.796.05.276.066.558.073.837Zm-2.64 4.72h.002c1.094 1.348.797 2.791.657 2.519-.573-1.113-1.639-.83-2.179-.549a3.493 3.493 0 0 1-.144.081l-.01.006.002-.001c-1.124.596-2.632.64-4.149-.011A6.673 6.673 0 0 1 1.28 7.342c.345.254.718.478 1.114.664 1.603.75 3.213.697 4.352 0C5.124 6.757 3.77 5.133 2.732 3.817a5.644 5.644 0 0 1-.534-.736c1.243 1.138 3.206 2.566 3.91 2.962-1.494-1.58-2.812-3.525-2.75-3.463 2.355 2.373 4.528 3.714 4.528 3.714.081.045.142.081.19.113a3.52 3.52 0 0 0 .12-.355C8.57 4.68 8.147 3.107 7.19 1.81c2.184 1.311 3.475 3.803 2.946 5.91-.01.04-.022.08-.034.12l-.007.024v.001Z" transform="translate(.629 .629)"/></svg>