<svg xmlns="http://www.w3.org/2000/svg" width="16" height="16" fill="none">
  <path fill="#85E0B7" fill-rule="evenodd" d="M1.5 4A2.5 2.5 0 0 1 4 1.5h8A2.5 2.5 0 0 1 14.5 4v8a2.5 2.5 0 0 1-2.5 2.5H4A2.5 2.5 0 0 1 1.5 12V4ZM4 2.5A1.5 1.5 0 0 0 2.5 4v8A1.5 1.5 0 0 0 4 13.5h8a1.5 1.5 0 0 0 1.5-1.5V4A1.5 1.5 0 0 0 12 2.5H4Zm.912 2.699a.5.5 0 0 1 .707 0l2.401 2.4a.5.5 0 0 1 0 .708l-2.4 2.401a.5.5 0 0 1-.708-.707L6.96 7.953 4.912 5.906a.5.5 0 0 1 0-.707Zm2.588 4.95a.5.5 0 0 1 .5-.5h3a.5.5 0 0 1 0 1H8a.5.5 0 0 1-.5-.5Z" clip-rule="evenodd"/>
</svg>
