<svg width="15" height="15" fill="none" xmlns="http://www.w3.org/2000/svg"><path d="m3.558 4.523 4.517 10.332 1.177-4.558L14 9.115 3.558 4.523Z" fill="url(#a)"/><path fill-rule="evenodd" clip-rule="evenodd" d="m3.266 4.65.42-.418 10.443 4.592-.052.6-4.564 1.136-1.13 4.374-.6.048L3.267 4.651Zm.91.493 3.822 8.74.946-3.666.231-.229 3.844-.957-8.843-3.888Z" fill="url(#b)"/><path fill-rule="evenodd" clip-rule="evenodd" d="m.595 1.06 2.13 2.196-.456.443L.138 1.503l.457-.443Z" fill="url(#c)"/><path fill-rule="evenodd" clip-rule="evenodd" d="M3.862 3.333V.984H4.5v2.35h-.637Z" fill="url(#d)"/><path fill-rule="evenodd" clip-rule="evenodd" d="M.052 4.703h2.366v.636H.052v-.636Z" fill="url(#e)"/><defs><linearGradient id="a" x1="-2.606" y1=".984" x2="19.391" y2=".984" gradientUnits="userSpaceOnUse"><stop stop-color="#F4FFFA"/><stop offset="1" stop-color="#D8FFEC" stop-opacity=".6"/></linearGradient><linearGradient id="b" x1="-2.606" y1=".984" x2="19.391" y2=".984" gradientUnits="userSpaceOnUse"><stop stop-color="#F4FFFA"/><stop offset="1" stop-color="#D8FFEC" stop-opacity=".6"/></linearGradient><linearGradient id="c" x1="-2.606" y1=".984" x2="19.391" y2=".984" gradientUnits="userSpaceOnUse"><stop stop-color="#F4FFFA"/><stop offset="1" stop-color="#D8FFEC" stop-opacity=".6"/></linearGradient><linearGradient id="d" x1="-2.606" y1=".984" x2="19.391" y2=".984" gradientUnits="userSpaceOnUse"><stop stop-color="#F4FFFA"/><stop offset="1" stop-color="#D8FFEC" stop-opacity=".6"/></linearGradient><linearGradient id="e" x1="-2.606" y1=".984" x2="19.391" y2=".984" gradientUnits="userSpaceOnUse"><stop stop-color="#F4FFFA"/><stop offset="1" stop-color="#D8FFEC" stop-opacity=".6"/></linearGradient></defs></svg>