<svg xmlns="http://www.w3.org/2000/svg" width="17" height="17" fill="none">
  <g fill="#EDEDED" fill-rule="evenodd" clip-path="url(#a)" clip-rule="evenodd">
    <path d="M6.735.864A10.967 10.967 0 0 1 8.57.707a11.98 11.98 0 0 1 2.001.157c1.043.174 1.92.955 1.92 1.996v3.658c0 1.072-.852 1.952-1.92 1.952H6.735c-1.303 0-2.4 1.118-2.4 2.386v1.755h-1.32c-1.116 0-1.768-.81-2.041-1.948-.369-1.527-.353-2.44 0-3.903.305-1.277 1.283-1.948 2.399-1.948h5.282v-.488h-3.84V2.86c0-1.108.295-1.709 1.92-1.996Zm.479 1.755a.729.729 0 0 0-.72-.734.728.728 0 0 0-.722.734c0 .403.323.73.721.73.397 0 .72-.327.72-.73Z"/>
    <path d="M12.97 6.518V4.812h1.442c1.118 0 1.645.836 1.92 1.948.385 1.543.402 2.7 0 3.903-.387 1.169-.803 1.947-1.92 1.947H8.655v.489h3.837v1.463c0 1.109-.954 1.672-1.92 1.952-1.455.422-2.621.358-3.837 0-1.015-.299-1.92-.91-1.92-1.952v-3.657c0-1.052.869-1.952 1.92-1.952h3.836c1.279 0 2.4-1.113 2.4-2.435Zm-1.436 8.286a.725.725 0 0 0-.72-.73.726.726 0 0 0-.722.73c0 .405.324.734.721.734.398 0 .72-.329.72-.734Z"/>
  </g>
  <defs>
    <clipPath id="a">
      <path fill="#fff" d="M.665.757h16v16h-16z"/>
    </clipPath>
  </defs>
</svg>
