<?xml version="1.0" encoding="utf-8"?><!-- Uploaded to: SVG Repo, www.svgrepo.com, Generator: SVG Repo Mixer Tools -->
<svg fill="#000000" width="800px" height="800px" viewBox="0 0 24 24" role="img" xmlns="http://www.w3.org/2000/svg"><title>Swift icon</title><path d="M21.984 16.348c.056-.112.056-.224.112-.336 1.346-5.272-1.851-11.44-7.347-14.693 2.412 3.253 3.365 7.122 2.524 10.599-.056.28-.168.617-.28.897a5.173 5.173 0 0 1-.45-.28S11.104 9.17 5.273 3.282c-.169-.168 3.14 4.71 6.841 8.58-1.738-1.01-6.673-4.542-9.758-7.403.337.617.842 1.234 1.346 1.851 2.58 3.309 5.945 7.346 9.983 10.43-2.86 1.74-6.842 1.851-10.88 0-1.01-.448-1.85-1.009-2.804-1.682 1.682 2.636 4.318 5.048 7.459 6.337 3.757 1.627 7.57 1.515 10.318 0h.057c.112-.056.224-.112.336-.224 1.346-.673 3.982-1.402 5.44 1.402.392.785 1.121-2.86-1.626-6.225z"/></svg>