<svg xmlns="http://www.w3.org/2000/svg" width="16" height="16" fill="none">
  <g clip-path="url(#a)">
    <path fill="#171717" fill-rule="evenodd" d="m1.506 11.723-.005.003c.106.192.27.356.487.483.408.237 1.188.685 2.03 1.17h.002c1.331.765 2.82 1.621 3.251 1.877.04.023.078.044.117.063.437.22.865.21 1.304-.047 1.097-.635 2.196-1.267 3.294-1.898h.002l.005-.004c.67-.385 1.34-.77 2.01-1.157.222-.127.381-.286.488-.483a1.34 1.34 0 0 0 .155-.646V4.916c0-.25-.053-.475-.163-.664a1.252 1.252 0 0 0-.48-.467l-2.635-1.518-.005-.002L8.692.726C8.212.452 7.754.46 7.279.74c-.367.215-1.501.868-2.652 1.53a681.912 681.912 0 0 0-2.63 1.516c-.435.25-.643.635-.643 1.135v6.159c0 .243.051.457.151.644Zm8.406-2.65a2.2 2.2 0 0 1-1.916 1.121 2.19 2.19 0 0 1-1.909-1.11 2.197 2.197 0 0 1 3.808-2.19l1.921-1.106A4.42 4.42 0 0 0 7.991 3.58a4.414 4.414 0 1 0 .005 8.829 4.417 4.417 0 0 0 3.837-2.228l-1.92-1.11ZM12.34 6.95h-.438v.356h-.353v.438h.353v.529h-.353v.438h.353v.356h.439v-.356h.532v.356h.438v-.356h.355v-.438h-.355v-.529h.355v-.438h-.355V6.95h-.438v.356h-.532V6.95Zm0 .794v.529h.533v-.529h-.532Z" clip-rule="evenodd"/>
  </g>
  <defs>
    <clipPath id="a">
      <path fill="#fff" d="M0 .099h16v15.803H0z"/>
    </clipPath>
  </defs>
</svg>
