<svg xmlns="http://www.w3.org/2000/svg" width="17" height="16" fill="none">
  <path fill="#85E0B7" fill-rule="evenodd" d="M5.717 2.5a1.5 1.5 0 0 0-1.5 1.5v6.768a1.99 1.99 0 0 1 1-.268h7.493a.5.5 0 0 0 .5-.5l.006-4.999-.005-2.002a.5.5 0 0 0-.5-.499H9.873V6a.5.5 0 0 1-.875.331L7.873 5.06 6.747 6.331A.5.5 0 0 1 5.873 6V2.5h-.156Zm0-1a2.5 2.5 0 0 0-2.5 2.5v8.5a2 2 0 0 0 2 2h7.5a1.5 1.5 0 0 0 1.5-1.5V9.338a.504.504 0 0 0-.007-.08l.006-4.257-.005-2.005a1.5 1.5 0 0 0-1.5-1.496H5.717Zm7.5 9.912c-.159.057-.33.088-.508.088H5.218a1 1 0 1 0 0 2h7.5a.5.5 0 0 0 .5-.5v-1.588ZM6.873 2.5v2.18l.625-.707a.5.5 0 0 1 .75 0l.625.707V2.5h-2Z" clip-rule="evenodd"/>
</svg>
