<svg xmlns="http://www.w3.org/2000/svg" width="17" height="16" fill="none">
  <path fill="#097C4F" fill-rule="evenodd" d="M5.43 2.5A1.5 1.5 0 0 0 3.93 4v6.768a1.99 1.99 0 0 1 1-.268h7.493a.5.5 0 0 0 .5-.5l.007-4.999-.005-2.002a.5.5 0 0 0-.5-.499h-2.84V6a.5.5 0 0 1-.874.331L7.587 5.06 6.46 6.331A.5.5 0 0 1 5.586 6V2.5h-.155Zm0-1A2.5 2.5 0 0 0 2.93 4v8.5a2 2 0 0 0 2 2h7.5a1.5 1.5 0 0 0 1.5-1.5V9.338a.504.504 0 0 0-.006-.08l.006-4.257-.006-2.005a1.5 1.5 0 0 0-1.5-1.496H5.431Zm7.5 9.912a1.492 1.492 0 0 1-.507.088H4.931a1 1 0 1 0 0 2h7.5a.5.5 0 0 0 .5-.5v-1.588ZM6.587 2.5v2.18l.626-.707a.5.5 0 0 1 .75 0l.624.707V2.5h-2Z" clip-rule="evenodd"/>
</svg>
