<svg xmlns="http://www.w3.org/2000/svg" width="16" height="16" fill="none">
  <path fill="#097C4F" fill-rule="evenodd" d="M8.906 2.5v2.084a1.5 1.5 0 0 0 1.5 1.5h2.12v.925H6.82a.5.5 0 0 1-.35-.144l-.95-.934A1.5 1.5 0 0 0 4.468 5.5h-.942V3a.5.5 0 0 1 .5-.5h4.88Zm.583-.993A.5.5 0 0 0 9.39 1.5H4.026a1.5 1.5 0 0 0-1.5 1.5v2.576A1.5 1.5 0 0 0 1.5 7v5A2.5 2.5 0 0 0 4 14.5h8a2.5 2.5 0 0 0 2.5-2.5V8.509a1.5 1.5 0 0 0-.974-1.405V5.6a.5.5 0 0 0-.147-.354l-3.619-3.6a.5.5 0 0 0-.272-.14ZM3 6.5a.5.5 0 0 0-.5.5v5A1.5 1.5 0 0 0 4 13.5h8a1.5 1.5 0 0 0 1.5-1.5V8.509a.5.5 0 0 0-.5-.5H6.82a1.5 1.5 0 0 1-1.052-.431l-.95-.935a.5.5 0 0 0-.35-.143H3Zm6.906-3.293v1.377a.5.5 0 0 0 .5.5h1.378L9.906 3.207Z" clip-rule="evenodd"/>
</svg>
