<svg xmlns="http://www.w3.org/2000/svg" width="467" height="398" fill="none" viewBox="0 0 467 398"><g clip-path="url(#a)"><path fill="#030a0c" d="M0 0h467v398H0z"/><g filter="url(#b)"><path fill="#7032bf" fill-opacity=".1" d="M102.954-13.847C66.934 4.326 81.888 48.22 47.687 87.243c-30.413 34.701-112.2 62.986-112.2 105.101 0 68.172 286.366 41.365 445.607 69.232 289.121 57.228 225.923 175.667 325.889-25.314 9.778-22.081 63.619-136.238-264.46-136.238-174.695 0-257.781-149.84-339.569-113.871"/></g><g filter="url(#c)"><path fill="#a91bec" fill-opacity=".1" d="M105.706 212.08c-3.023-39.49 113.599-66.257 194.169-72.424 80.571-6.166 105.799 19.538 108.822 59.029s-1.128 72.716-131.855 25.527c-72.313-24.329-168.114 27.359-171.136-12.132"/></g><g filter="url(#d)" opacity=".71"><ellipse cx="387.252" cy="173.787" fill="url(#e)" rx="402.158" ry="238.4"/></g><path fill="url(#f)" fill-opacity=".2" fill-rule="evenodd" d="M72.3-16.64h23.545c6.021 0 10.457 0 13.917.375 3.44.373 5.795 1.106 7.699 2.49a15 15 0 0 1 3.319 3.318c1.383 1.904 2.116 4.259 2.488 7.7.375 3.458.377 7.895.377 13.916v23.545c0 6.022-.002 10.458-.377 13.917-.372 3.44-1.105 5.796-2.488 7.7a15 15 0 0 1-3.319 3.318c-1.904 1.383-4.259 2.116-7.699 2.489-3.46.374-7.896.376-13.918.376H72.3c-6.022 0-10.458-.002-13.917-.376-3.44-.373-5.796-1.105-7.7-2.489a15 15 0 0 1-3.318-3.318c-1.384-1.904-2.116-4.26-2.489-7.7-.375-3.46-.376-7.895-.376-13.917V11.159c0-6.021.001-10.458.376-13.917.373-3.44 1.105-5.795 2.489-7.7a15 15 0 0 1 3.318-3.318c1.904-1.383 4.26-2.116 7.7-2.489 3.46-.374 7.895-.376 13.917-.376m-28.8 27.8c0-12 0-18 3.056-22.205a16 16 0 0 1 3.54-3.54C54.3-17.64 60.3-17.64 72.3-17.64h23.545c11.999 0 17.998 0 22.204 3.056a16 16 0 0 1 3.54 3.54c3.056 4.206 3.056 10.205 3.056 22.204v23.545c0 11.999 0 17.999-3.056 22.204a16 16 0 0 1-3.54 3.54c-4.206 3.056-10.205 3.056-22.205 3.056H72.3c-12 0-17.999 0-22.205-3.056a16 16 0 0 1-3.54-3.54C43.5 52.704 43.5 46.704 43.5 34.704zm-66.305 64.346H.739c6.022 0 10.458.001 13.917.376 3.44.373 5.796 1.105 7.7 2.489a15 15 0 0 1 3.318 3.318c1.384 1.904 2.116 4.26 2.489 7.7.375 3.459.376 7.895.376 13.917v23.544c0 6.022-.001 10.458-.376 13.917-.373 3.441-1.105 5.796-2.489 7.7a15 15 0 0 1-3.318 3.319c-1.904 1.383-4.26 2.115-7.7 2.488-3.459.375-7.895.376-13.917.376h-23.544c-6.022 0-10.458-.001-13.917-.376-3.441-.373-5.796-1.105-7.7-2.488a15 15 0 0 1-3.319-3.319c-1.383-1.904-2.116-4.259-2.488-7.7-.375-3.459-.377-7.895-.377-13.917v-23.544c0-6.022.002-10.458.377-13.917.372-3.44 1.105-5.796 2.488-7.7a15 15 0 0 1 3.319-3.318c1.904-1.384 4.259-2.116 7.7-2.489 3.459-.375 7.895-.376 13.917-.376m-28.8 27.8c0-12 0-17.999 3.055-22.205a16 16 0 0 1 3.54-3.54c4.206-3.055 10.205-3.055 22.205-3.055H.739c12 0 17.999 0 22.205 3.056a16 16 0 0 1 3.54 3.54c3.055 4.205 3.055 10.205 3.055 22.204v23.544c0 12 0 17.999-3.056 22.205a16 16 0 0 1-3.54 3.54C18.739 155.65 12.739 155.65.74 155.65h-23.544c-12 0-18 0-22.205-3.055a16 16 0 0 1-3.54-3.54c-3.056-4.206-3.056-10.205-3.056-22.205zm-39.05 63.303H-114.2c-6.022 0-10.458.002-13.917.377-3.44.372-5.796 1.105-7.7 2.488a15 15 0 0 0-3.318 3.319c-1.384 1.904-2.116 4.259-2.489 7.699-.375 3.459-.376 7.896-.376 13.917v23.545c0 6.022.001 10.458.376 13.917.373 3.44 1.105 5.796 2.489 7.7a15 15 0 0 0 3.318 3.318c1.904 1.384 4.26 2.116 7.7 2.489 3.459.375 7.895.376 13.917.376h23.545c6.021 0 10.457-.001 13.917-.376 3.44-.373 5.795-1.105 7.7-2.489a15 15 0 0 0 3.318-3.318c1.383-1.904 2.116-4.26 2.488-7.7.375-3.459.377-7.895.377-13.917v-23.545c0-6.021-.002-10.458-.377-13.917-.372-3.44-1.105-5.795-2.488-7.699a15 15 0 0 0-3.319-3.319c-1.904-1.383-4.259-2.116-7.7-2.488-3.459-.375-7.895-.377-13.916-.377m-49.289 5.596C-143 176.411-143 182.41-143 194.409v23.545c0 11.999 0 17.999 3.056 22.204a16 16 0 0 0 3.539 3.54c4.206 3.056 10.206 3.056 22.205 3.056h23.545c11.999 0 17.998 0 22.204-3.056a16 16 0 0 0 3.54-3.54c3.056-4.205 3.056-10.205 3.056-22.204v-23.545c0-11.999 0-17.998-3.056-22.204a16 16 0 0 0-3.54-3.54c-4.206-3.056-10.205-3.056-22.205-3.056H-114.2c-11.999 0-17.999 0-22.205 3.056a16 16 0 0 0-3.539 3.54M.739 166.609h-23.544c-6.022 0-10.458.002-13.917.377-3.441.372-5.796 1.105-7.7 2.488a15 15 0 0 0-3.319 3.319c-1.383 1.904-2.116 4.259-2.488 7.699-.375 3.459-.377 7.896-.377 13.917v23.545c0 6.022.002 10.458.377 13.917.372 3.44 1.105 5.796 2.488 7.7a15 15 0 0 0 3.319 3.318c1.904 1.384 4.259 2.116 7.7 2.489 3.459.375 7.895.376 13.917.376H.739c6.022 0 10.458-.001 13.917-.376 3.44-.373 5.796-1.105 7.7-2.489a15 15 0 0 0 3.318-3.318c1.384-1.904 2.116-4.26 2.489-7.7.375-3.459.376-7.895.376-13.917v-23.545c0-6.021-.001-10.458-.376-13.917-.373-3.44-1.105-5.795-2.489-7.699a15 15 0 0 0-3.318-3.319c-1.904-1.383-4.26-2.116-7.7-2.488-3.459-.375-7.895-.377-13.917-.377m-49.289 5.596c-3.056 4.206-3.056 10.205-3.056 22.204v23.545c0 11.999 0 17.999 3.056 22.204a16 16 0 0 0 3.54 3.54c4.206 3.056 10.205 3.056 22.205 3.056H.739c12 0 17.999 0 22.205-3.056a16 16 0 0 0 3.54-3.54c3.055-4.205 3.055-10.205 3.055-22.204v-23.545c0-11.999 0-17.998-3.056-22.204a16 16 0 0 0-3.54-3.54c-4.205-3.056-10.205-3.056-22.204-3.056h-23.544c-12 0-18 0-22.205 3.056a16 16 0 0 0-3.54 3.54m426.022 173.406h23.544c6.022 0 10.458.002 13.917.376 3.441.373 5.796 1.106 7.7 2.489a15 15 0 0 1 3.319 3.319c1.383 1.904 2.116 4.259 2.488 7.699.375 3.459.376 7.895.376 13.917v23.545c0 6.022-.001 10.458-.376 13.917-.372 3.44-1.105 5.796-2.488 7.7a15 15 0 0 1-3.319 3.318c-1.904 1.383-4.259 2.116-7.7 2.489-3.459.374-7.895.376-13.917.376h-23.544c-6.022 0-10.458-.002-13.917-.376-3.441-.373-5.796-1.106-7.7-2.489a15 15 0 0 1-3.318-3.318c-1.384-1.904-2.116-4.26-2.489-7.7-.375-3.459-.376-7.895-.376-13.917v-23.545c0-6.022.001-10.458.376-13.917.373-3.44 1.105-5.795 2.489-7.699a15 15 0 0 1 3.318-3.319c1.904-1.383 4.259-2.116 7.7-2.489 3.459-.374 7.895-.376 13.917-.376m-28.8 27.8c0-11.999 0-17.998 3.056-22.204a16 16 0 0 1 3.539-3.54c4.206-3.056 10.206-3.056 22.205-3.056h23.544c12 0 17.999 0 22.205 3.056a16 16 0 0 1 3.54 3.54c3.055 4.206 3.055 10.205 3.055 22.204v23.545c0 11.999 0 17.999-3.055 22.204a16 16 0 0 1-3.54 3.54c-4.206 3.056-10.205 3.056-22.205 3.056h-23.544c-11.999 0-17.999 0-22.205-3.056a16 16 0 0 1-3.539-3.54c-3.056-4.205-3.056-10.205-3.056-22.204zm123.801-117.878h-23.544c-6.022 0-10.458.002-13.917.376-3.441.373-5.796 1.106-7.7 2.489a15 15 0 0 0-3.318 3.318c-1.384 1.904-2.116 4.26-2.489 7.7-.375 3.459-.376 7.895-.376 13.917v23.545c0 6.022.001 10.458.376 13.917.373 3.44 1.105 5.795 2.489 7.7a15 15 0 0 0 3.318 3.318c1.904 1.383 4.259 2.116 7.7 2.489 3.459.374 7.895.376 13.917.376h23.544c6.022 0 10.458-.002 13.918-.376 3.44-.373 5.795-1.106 7.699-2.489a15 15 0 0 0 3.319-3.318c1.383-1.905 2.116-4.26 2.488-7.7.375-3.459.376-7.895.376-13.917v-23.545c0-6.022-.001-10.458-.376-13.917-.372-3.44-1.105-5.796-2.488-7.7a15 15 0 0 0-3.319-3.318c-1.904-1.383-4.259-2.116-7.699-2.489-3.46-.374-7.896-.376-13.918-.376m-49.288 5.596c-3.056 4.205-3.056 10.205-3.056 22.204v23.545c0 11.999 0 17.998 3.056 22.204a16 16 0 0 0 3.539 3.54c4.206 3.056 10.206 3.056 22.205 3.056h23.544c12 0 17.999 0 22.205-3.056a16 16 0 0 0 3.54-3.54c3.055-4.206 3.055-10.205 3.055-22.204v-23.545c0-11.999 0-17.999-3.055-22.204a16 16 0 0 0-3.54-3.54c-4.206-3.056-10.205-3.056-22.205-3.056h-23.544c-11.999 0-17.999 0-22.205 3.056a16 16 0 0 0-3.539 3.54M95.845 75.506H72.3c-6.022 0-10.458.001-13.917.376-3.44.373-5.796 1.105-7.7 2.489a15 15 0 0 0-3.318 3.318c-1.384 1.904-2.116 4.26-2.489 7.7-.375 3.459-.376 7.895-.376 13.917v23.544c0 6.022.001 10.458.376 13.917.373 3.441 1.105 5.796 2.489 7.7a15 15 0 0 0 3.318 3.319c1.904 1.383 4.26 2.115 7.7 2.488 3.46.375 7.895.376 13.917.376h23.545c6.021 0 10.457-.001 13.917-.376 3.44-.373 5.795-1.105 7.699-2.488a15 15 0 0 0 3.319-3.319c1.383-1.904 2.116-4.259 2.488-7.7.375-3.459.377-7.895.377-13.917v-23.544c0-6.022-.002-10.458-.377-13.917-.372-3.44-1.105-5.796-2.488-7.7a15 15 0 0 0-3.319-3.318c-1.904-1.384-4.259-2.116-7.699-2.489-3.46-.375-7.896-.376-13.918-.376M46.554 81.1C43.5 85.307 43.5 91.307 43.5 103.306v23.544c0 12 0 17.999 3.056 22.205a16 16 0 0 0 3.54 3.54C54.3 155.65 60.3 155.65 72.3 155.65h23.545c11.999 0 17.998 0 22.204-3.055a16 16 0 0 0 3.54-3.54c3.056-4.206 3.056-10.205 3.056-22.205v-23.544c0-12 0-17.999-3.056-22.205a16 16 0 0 0-3.54-3.54c-4.206-3.055-10.205-3.055-22.205-3.055H72.3c-12 0-17.999 0-22.205 3.056a16 16 0 0 0-3.54 3.54m438.601-5.219c-3.459-.375-7.895-.376-13.917-.376h-23.544c-6.022 0-10.458.001-13.918.376-3.44.373-5.795 1.105-7.699 2.489a15 15 0 0 0-3.319 3.318c-1.383 1.904-2.116 4.26-2.488 7.7-.375 3.459-.376 7.895-.376 13.917v23.544c0 6.022.001 10.458.376 13.917.372 3.441 1.105 5.796 2.488 7.7a15 15 0 0 0 3.319 3.319c1.904 1.383 4.259 2.115 7.699 2.488 3.46.375 7.896.376 13.918.376h23.544c6.022 0 10.458-.001 13.917-.376 3.441-.373 5.796-1.105 7.7-2.488a15 15 0 0 0 3.318-3.319c1.384-1.904 2.116-4.259 2.489-7.7.375-3.459.376-7.895.376-13.917v-23.544c0-6.022-.001-10.458-.376-13.917-.373-3.44-1.105-5.796-2.489-7.7a15 15 0 0 0-3.318-3.318c-1.904-1.384-4.259-2.116-7.7-2.489m-63.206 5.22c-3.055 4.205-3.055 10.205-3.055 22.204v23.544c0 12 0 17.999 3.055 22.205a16 16 0 0 0 3.54 3.54c4.206 3.055 10.205 3.055 22.205 3.055h23.544c11.999 0 17.999 0 22.205-3.055a16 16 0 0 0 3.539-3.54c3.056-4.206 3.056-10.205 3.056-22.205v-23.544c0-12 0-17.999-3.056-22.205a16 16 0 0 0-3.539-3.54c-4.206-3.055-10.206-3.055-22.205-3.055h-23.544c-12 0-17.999 0-22.205 3.056a16 16 0 0 0-3.54 3.54M91.673 345.61H68.128c-6.022 0-10.458.002-13.917.376-3.44.373-5.796 1.106-7.7 2.489a15 15 0 0 0-3.318 3.319c-1.383 1.904-2.116 4.259-2.489 7.699-.374 3.459-.376 7.895-.376 13.917v23.545c0 6.022.002 10.458.376 13.917.373 3.44 1.105 5.796 2.489 7.7a15 15 0 0 0 3.318 3.318c1.904 1.383 4.26 2.116 7.7 2.489 3.46.374 7.895.376 13.917.376h23.545c6.022 0 10.458-.002 13.917-.376 3.44-.373 5.795-1.106 7.699-2.489a15 15 0 0 0 3.319-3.318c1.383-1.904 2.116-4.26 2.488-7.7.375-3.459.377-7.895.377-13.917v-23.545c0-6.022-.002-10.458-.377-13.917-.372-3.44-1.105-5.795-2.488-7.699a15 15 0 0 0-3.319-3.319c-1.904-1.383-4.259-2.116-7.699-2.489-3.459-.374-7.895-.376-13.917-.376m-49.29 5.596c-3.055 4.206-3.055 10.205-3.055 22.204v23.545c0 11.999 0 17.999 3.056 22.204a16 16 0 0 0 3.54 3.54c4.205 3.056 10.205 3.056 22.204 3.056h23.545c11.999 0 17.998 0 22.204-3.056a16 16 0 0 0 3.54-3.54c3.056-4.205 3.056-10.205 3.056-22.204v-23.545c0-11.999 0-17.998-3.056-22.204a16 16 0 0 0-3.54-3.54c-4.206-3.056-10.205-3.056-22.204-3.056H68.128c-11.999 0-17.999 0-22.204 3.056a16 16 0 0 0-3.54 3.54m116.417-5.596h23.545c6.021 0 10.457.002 13.917.376 3.44.373 5.795 1.106 7.699 2.489a15 15 0 0 1 3.319 3.319c1.383 1.904 2.116 4.259 2.488 7.699.375 3.459.377 7.895.377 13.917v23.545c0 6.022-.002 10.458-.377 13.917-.372 3.44-1.105 5.796-2.488 7.7a15 15 0 0 1-3.319 3.318c-1.904 1.383-4.259 2.116-7.699 2.489-3.46.374-7.896.376-13.917.376H158.8c-6.022 0-10.458-.002-13.917-.376-3.44-.373-5.796-1.106-7.7-2.489a15 15 0 0 1-3.318-3.318c-1.384-1.904-2.116-4.26-2.489-7.7-.375-3.459-.376-7.895-.376-13.917v-23.545c0-6.022.001-10.458.376-13.917.373-3.44 1.105-5.795 2.489-7.699a15 15 0 0 1 3.318-3.319c1.904-1.383 4.26-2.116 7.7-2.489 3.459-.374 7.895-.376 13.917-.376m-28.8 27.8c0-11.999 0-17.998 3.056-22.204a16 16 0 0 1 3.539-3.54c4.206-3.056 10.206-3.056 22.205-3.056h23.545c11.999 0 17.998 0 22.204 3.056a16 16 0 0 1 3.54 3.54c3.056 4.206 3.056 10.205 3.056 22.204v23.545c0 11.999 0 17.999-3.056 22.204a16 16 0 0 1-3.54 3.54c-4.206 3.056-10.205 3.056-22.204 3.056H158.8c-11.999 0-17.999 0-22.205-3.056a16 16 0 0 1-3.539-3.54C130 414.955 130 408.955 130 396.956zM-.327 256.611h-23.545c-6.022 0-10.458.002-13.917.376-3.44.373-5.796 1.106-7.7 2.489a15 15 0 0 0-3.318 3.319c-1.383 1.904-2.116 4.259-2.489 7.699-.374 3.459-.376 7.895-.376 13.917v23.545c0 6.022.002 10.458.376 13.917.373 3.44 1.105 5.796 2.489 7.7a15 15 0 0 0 3.318 3.318c1.904 1.383 4.26 2.116 7.7 2.489 3.46.374 7.895.376 13.917.376H-.327c6.022 0 10.458-.002 13.917-.376 3.44-.373 5.795-1.106 7.7-2.489a15 15 0 0 0 3.318-3.318c1.383-1.904 2.116-4.26 2.488-7.7.375-3.459.377-7.895.377-13.917v-23.545c0-6.022-.002-10.458-.377-13.917-.372-3.44-1.105-5.795-2.488-7.699a15 15 0 0 0-3.319-3.319c-1.904-1.383-4.259-2.116-7.7-2.489-3.458-.374-7.895-.376-13.916-.376m-49.29 5.596c-3.055 4.206-3.055 10.205-3.055 22.204v23.545c0 11.999 0 17.999 3.056 22.204a16 16 0 0 0 3.54 3.54c4.205 3.056 10.205 3.056 22.204 3.056H-.327c11.999 0 17.998 0 22.204-3.056a16 16 0 0 0 3.54-3.54c3.056-4.205 3.056-10.205 3.056-22.204v-23.545c0-11.999 0-17.998-3.056-22.204a16 16 0 0 0-3.54-3.54c-4.206-3.056-10.205-3.056-22.204-3.056h-23.545c-11.999 0-17.999 0-22.204 3.056a16 16 0 0 0-3.54 3.54m497.312-96.701h23.544c6.022 0 10.458.001 13.917.376 3.441.373 5.796 1.105 7.7 2.489a15 15 0 0 1 3.318 3.318c1.384 1.904 2.116 4.259 2.489 7.7.375 3.459.376 7.895.376 13.917v23.544c0 6.022-.001 10.458-.376 13.917-.373 3.441-1.105 5.796-2.489 7.7a15 15 0 0 1-3.318 3.319c-1.904 1.383-4.259 2.115-7.7 2.488-3.459.375-7.895.376-13.917.376h-23.544c-6.022 0-10.458-.001-13.918-.376-3.44-.373-5.795-1.105-7.699-2.488a15 15 0 0 1-3.319-3.319c-1.383-1.904-2.116-4.259-2.488-7.7-.375-3.459-.376-7.895-.376-13.917v-23.544c0-6.022.001-10.458.376-13.917.372-3.441 1.105-5.796 2.488-7.7a15 15 0 0 1 3.319-3.318c1.904-1.384 4.259-2.116 7.699-2.489 3.46-.375 7.896-.376 13.918-.376m-28.8 27.8c0-11.999 0-17.999 3.055-22.205a16 16 0 0 1 3.54-3.539c4.206-3.056 10.205-3.056 22.205-3.056h23.544c11.999 0 17.999 0 22.205 3.056a16 16 0 0 1 3.539 3.539c3.056 4.206 3.056 10.206 3.056 22.205v23.544c0 12 0 17.999-3.056 22.205a16 16 0 0 1-3.539 3.54c-4.206 3.055-10.206 3.055-22.205 3.055h-23.544c-12 0-17.999 0-22.205-3.055a16 16 0 0 1-3.54-3.54c-3.055-4.206-3.055-10.205-3.055-22.205z" clip-rule="evenodd"/><circle cx="1.957" cy="1.957" r="1.957" fill="#cacbdc" fill-opacity=".15" transform="rotate(129.817 103.228 198.64)scale(-1 1)"/><circle cx="1.957" cy="1.957" r="1.957" fill="#cacbdc" fill-opacity=".15" transform="rotate(129.817 124.179 278.77)scale(-1 1)"/><circle cx="1.957" cy="1.957" r="1.957" fill="#cacbdc" fill-opacity=".15" transform="rotate(129.817 117.954 261.392)scale(-1 1)"/><circle cx="1.957" cy="1.957" r="1.957" fill="#cacbdc" fill-opacity=".15" transform="rotate(129.817 77.32 137.273)scale(-1 1)"/><circle cx="1.957" cy="1.957" r="1.957" fill="#cacbdc" fill-opacity=".15" transform="rotate(129.817 103.298 134.77)scale(-1 1)"/><circle cx="1.957" cy="1.957" r="1.957" fill="#cacbdc" fill-opacity=".15" transform="rotate(-50.183 455.947 -260.55)scale(1 -1)"/><circle cx="1.004" cy="1.004" r="1.004" fill="#cacbdc" fill-opacity=".15" transform="rotate(129.817 115.65 197.443)scale(-1 1)"/><g filter="url(#g)"><circle cx="1.004" cy="1.004" r="1.004" fill="#fff" fill-opacity=".41" shape-rendering="crispEdges" transform="rotate(-96.81 329.263 25.001)scale(1 -1)"/></g><circle cx="1.004" cy="1.004" r="1.004" fill="#cacbdc" fill-opacity=".15" transform="rotate(129.817 118.228 205.57)scale(-1 1)"/><circle cx="1.004" cy="1.004" r="1.004" fill="#cacbdc" fill-opacity=".15" transform="rotate(51.954 -113.57 474.266)scale(-1 1)"/><circle cx="1.004" cy="1.004" r="1.004" fill="#cacbdc" fill-opacity=".15" transform="rotate(-50.183 462.3 -257.163)scale(1 -1)"/><circle cx="1.004" cy="1.004" r="1.004" fill="#cacbdc" fill-opacity=".15" transform="rotate(51.954 -93.411 477.827)scale(-1 1)"/><circle cx="1.004" cy="1.004" r="1.004" fill="#cacbdc" fill-opacity=".15" transform="rotate(-128.046 170.612 12.19)scale(1 -1)"/><circle cx="1.004" cy="1.004" r="1.004" fill="#cacbdc" fill-opacity=".15" transform="rotate(51.954 15.087 403.223)scale(-1 1)"/><circle cx="1.004" cy="1.004" r="1.004" fill="#cacbdc" fill-opacity=".15" transform="rotate(51.954 80.392 324.951)scale(-1 1)"/><circle cx="1.004" cy="1.004" r="1.004" fill="#cacbdc" fill-opacity=".15" transform="rotate(-128.046 132.996 6.72)scale(1 -1)"/><g filter="url(#h)"><circle cx="1.004" cy="1.004" r="1.004" fill="#fff" fill-opacity=".41" shape-rendering="crispEdges" transform="rotate(161.053 173.152 169.606)scale(-1 1)"/></g><g filter="url(#i)"><circle cx="1.004" cy="1.004" r="1.004" fill="#fff" fill-opacity=".41" shape-rendering="crispEdges" transform="rotate(161.053 150.453 170.57)scale(-1 1)"/></g><g filter="url(#j)"><circle cx="1.004" cy="1.004" r="1.004" fill="#fff" fill-opacity=".41" shape-rendering="crispEdges" transform="rotate(161.053 123.094 75.856)scale(-1 1)"/></g><path fill="url(#k)" d="M356.852 38.725v-24.64h11.087q2.358 0 4.259 1.022 1.937 1.02 3.027 2.816 1.092 1.76 1.092 4.012 0 2.324-1.092 4.189a7.85 7.85 0 0 1-2.992 2.886q-1.9 1.056-4.294 1.056h-5.385v8.66zm13.657 0-6.266-11.123 6.125-.88 6.969 12.003zm-7.955-13.235h4.857q.915 0 1.584-.387.704-.422 1.056-1.161.387-.74.387-1.69t-.422-1.654a2.74 2.74 0 0 0-1.232-1.127q-.774-.387-1.901-.387h-4.329z" opacity=".3"/><g opacity=".3"><path fill="url(#l)" d="m185.834 121.827.223-.794c.264-.943.166-1.814-.279-2.456-.417-.591-1.095-.937-1.926-.978l-15.724-.206a.3.3 0 0 1-.141-.037.3.3 0 0 1-.109-.101.317.317 0 0 1-.031-.29.42.42 0 0 1 .364-.286l15.876-.214c1.874-.088 3.923-1.659 4.637-3.576l.903-2.431a.6.6 0 0 0 .025-.329 10.7 10.7 0 0 0-3.412-5.791 10.18 10.18 0 0 0-6.122-2.498c-2.251-.125-4.48.51-6.348 1.808a10.6 10.6 0 0 0-3.998 5.381 4.58 4.58 0 0 0-2.66-.943 4.57 4.57 0 0 0-2.703.806 4.76 4.76 0 0 0-1.756 2.261 4.9 4.9 0 0 0-.167 2.887 6.46 6.46 0 0 0-2.698.672 6.65 6.65 0 0 0-2.192 1.751 6.9 6.9 0 0 0-1.298 2.523 7 7 0 0 0-.174 2.848c.01.075.046.144.101.193s.127.078.201.078h29.04a.37.37 0 0 0 .229-.076.4.4 0 0 0 .139-.202"/><path fill="url(#m)" d="M191.074 110.642q-.208 0-.437.013a.2.2 0 0 0-.067.015.24.24 0 0 0-.158.171l-.624 2.196c-.267.943-.169 1.814.279 2.456.226.304.517.55.85.72.334.169.701.258 1.073.258l3.354.214a.3.3 0 0 1 .237.133.3.3 0 0 1 .053.142.34.34 0 0 1-.017.151.412.412 0 0 1-.364.287l-3.483.214c-1.893.09-3.931 1.658-4.645 3.573l-.252.676q-.016.044-.011.089a.2.2 0 0 0 .092.147.2.2 0 0 0 .083.026h11.998a.328.328 0 0 0 .321-.251 9.1 9.1 0 0 0 .167-4.035 9 9 0 0 0-1.595-3.691 8.7 8.7 0 0 0-3.025-2.577 8.4 8.4 0 0 0-3.825-.927z"/></g><g opacity=".5"><path fill="url(#n)" d="M258.278 39.87a.73.73 0 0 1-.669-.43.71.71 0 0 1-.012-.553c.017-.048.705-2.002 1.023-8.622.172-3.6.177-5.182-.116-8.717-.284-3.384.179-5.374 1.364-5.919 1.662-.756 3.17.464 4.628 1.644 1.61 1.304 3.272 2.64 5.501 2.319 1.52-.226 2.077-1.635 2.753-3.759l.003-.007c.527-1.652 1.071-3.353 2.663-3.593.751-.108 1.577.18 2.455.86 4.211 3.261 9.162 14.82 9.996 23.338a.717.717 0 0 1-.654.788.73.73 0 0 1-.532-.162.72.72 0 0 1-.261-.487c-.855-8.758-5.908-19.606-9.451-22.345-.535-.413-1.013-.617-1.35-.566-.697.102-1.082 1.307-1.492 2.59l-.005.016-.001.003c-.62 1.948-1.391 4.37-3.92 4.747-2.867.427-4.961-1.267-6.64-2.64-1.403-1.135-2.304-1.812-3.102-1.44-.337.154-.778 1.507-.528 4.49.3 3.618.293 5.23.119 8.903-.337 7.006-1.086 8.988-1.117 9.07a.72.72 0 0 1-.655.473"/><path fill="url(#o)" d="M261.664 34.259a.368.368 0 0 1-.341-.498.36.36 0 0 1 .198-.2l2.858-1.215-3-.605a.358.358 0 0 1-.23-.552.35.35 0 0 1 .231-.154.4.4 0 0 1 .141 0l4.142.836a.36.36 0 0 1 .291.314.37.37 0 0 1-.218.37l-3.929 1.673a.3.3 0 0 1-.143.03"/><path fill="url(#p)" d="M283.634 30.75h.019a.37.37 0 0 0 .364-.322.365.365 0 0 0-.345-.38l-3.104-.164 2.608-1.59a.365.365 0 0 0 .118-.496.37.37 0 0 0-.499-.118l-3.598 2.196a.36.36 0 0 0-.163.394.36.36 0 0 0 .332.252z"/><path fill="url(#q)" d="M272.288 33.225a2.7 2.7 0 0 1-1.666-.486 2.66 2.66 0 0 1-1.017-1.394.48.48 0 0 1 .308-.595.49.49 0 0 1 .618.293c.317.96 1.153 1.378 2.295 1.174s1.752-.898 1.73-1.906c0-.127.051-.25.142-.34a.487.487 0 0 1 .827.34c.032 1.483-.938 2.582-2.527 2.868a4 4 0 0 1-.71.046"/><path fill="url(#r)" fill-rule="evenodd" d="M273.53 27.954a3.864 3.864 0 0 0 5.429 0 3.8 3.8 0 0 0 1.126-2.688q-.001-.539-.149-1.049l.625-.113a.6.6 0 0 0 .388-.25.595.595 0 0 0-.155-.832.6.6 0 0 0-.451-.096l-.914.165-.018.004-.013.003a3.864 3.864 0 0 0-5.868-.52 3.8 3.8 0 0 0-.941 1.525 3.872 3.872 0 0 0-2.554.468 3.865 3.865 0 0 0-3.055-1.502 3.86 3.86 0 0 0-2.713 1.115 3.8 3.8 0 0 0-1.025 1.822l-1.06.193a.6.6 0 0 0-.388.249.6.6 0 0 0 .497.942.6.6 0 0 0 .109-.017l.758-.137a3.8 3.8 0 0 0 1.108 2.324 3.864 3.864 0 0 0 5.429 0 3.8 3.8 0 0 0 1.126-2.688 3.8 3.8 0 0 0-.212-1.24 2.65 2.65 0 0 1 1.795-.34 3.8 3.8 0 0 0 1.126 2.662m-8.766.315q.153.239.359.443a2.644 2.644 0 0 0 3.715 0 2.6 2.6 0 0 0 .682-1.172c-.275-.485-1.366-1.268-2.454-1.096-1.021.162-1.952 1.092-2.302 1.825m4.752-2.079a2.6 2.6 0 0 0-.679-1.157 2.65 2.65 0 0 0-1.857-.763v-.003a2.64 2.64 0 0 0-1.857.765 2.6 2.6 0 0 0-.76 2.086c.591-.756 1.507-1.46 2.55-1.622.949-.147 1.909.197 2.603.694m4.619.628a2.64 2.64 0 0 0 4.614-.762c-.46-.587-1.621-1.226-2.638-1.064-1.104.173-1.74 1.186-1.976 1.826m4.702-1.984c-.782-.563-1.872-.933-2.866-.778-1.104.174-1.862.893-2.323 1.614a2.595 2.595 0 0 1 .738-2.244 2.645 2.645 0 0 1 3.717 0c.389.384.644.878.734 1.408" clip-rule="evenodd"/></g><path fill="url(#s)" fill-rule="evenodd" d="m359.441 111.772 6.297-10.905 15.606 27.027h-31.211l6.297-10.906 4.454 2.572-1.842 3.191h13.393l-6.697-11.598-1.842 3.191z" clip-rule="evenodd" opacity=".3"/><g opacity=".3"><path fill="url(#t)" d="M459.343 101.039h7.112l-4.182 6.942h8.668l3.557 6.16h-15.78l-3.557-6.159z"/><path fill="url(#u)" d="m459.612 115.823-7.891 13.666h7.113l7.89-13.667z"/><path fill="url(#v)" d="m457.707 115.758-3.555 6.16-.001-.002-8.103-.15-3.556-6.159 8.103.151 2.518 4.359-6.851-11.865 3.555-6.162z"/><path fill="url(#w)" d="m463.168 121.983 3.557-6.161 3.921 7.093-3.556 6.16z"/></g><g filter="url(#x)"><circle cx="202.865" cy="97.885" r="1.314" fill="#fff" fill-opacity=".41" shape-rendering="crispEdges" transform="rotate(113.209 202.865 97.885)"/></g><g filter="url(#y)"><circle cx="220.341" cy="78.092" r="1.314" fill="#fff" fill-opacity=".41" shape-rendering="crispEdges" transform="rotate(113.209 220.341 78.092)"/></g><g filter="url(#z)"><circle cx="209.518" cy="65.691" r=".885" fill="#fff" fill-opacity=".41" shape-rendering="crispEdges" transform="rotate(113.209 209.518 65.691)"/></g><circle cx="212.107" cy="95.294" r="1.974" fill="#cacbdc" fill-opacity=".05" transform="rotate(113.209 212.107 95.294)"/><circle cx="224.096" cy="80.135" r="1.069" fill="#cacbdc" fill-opacity=".05" transform="rotate(113.209 224.096 80.135)"/><circle cx="205.92" cy="79.84" r="1.013" fill="#cacbdc" fill-opacity=".05" transform="rotate(113.209 205.92 79.84)"/><path fill="url(#A)" fill-opacity=".6" fill-rule="evenodd" d="M378.016-13.598h-23.544c-6.022 0-10.458.002-13.917.377-3.441.372-5.796 1.105-7.7 2.488a15 15 0 0 0-3.318 3.319c-1.384 1.904-2.116 4.259-2.489 7.7-.375 3.458-.376 7.895-.376 13.916v23.545c0 6.022.001 10.458.376 13.917.373 3.44 1.105 5.796 2.489 7.7a15 15 0 0 0 3.318 3.318c1.904 1.383 4.259 2.116 7.7 2.489 3.459.374 7.895.376 13.917.376h23.544c6.022 0 10.458-.001 13.917-.376 3.441-.373 5.796-1.106 7.7-2.489a15 15 0 0 0 3.319-3.318c1.383-1.904 2.116-4.26 2.488-7.7.375-3.46.376-7.895.376-13.917V14.202c0-6.021-.001-10.458-.376-13.917-.372-3.44-1.105-5.795-2.488-7.7a15 15 0 0 0-3.319-3.318c-1.904-1.383-4.259-2.116-7.7-2.488-3.459-.375-7.895-.377-13.917-.377m-49.288 5.596c-3.056 4.206-3.056 10.205-3.056 22.204v23.545c0 11.999 0 17.999 3.056 22.204a16 16 0 0 0 3.539 3.54c4.206 3.056 10.206 3.056 22.205 3.056h23.544c12 0 17.999 0 22.205-3.056a16 16 0 0 0 3.54-3.54c3.055-4.205 3.055-10.205 3.055-22.204V14.202c0-11.999 0-17.998-3.055-22.204a16 16 0 0 0-3.54-3.54c-4.206-3.056-10.205-3.056-22.205-3.056h-23.544c-11.999 0-17.999 0-22.205 3.056a16 16 0 0 0-3.539 3.54m-161.967 81.63h23.544c6.022 0 10.458.002 13.918.377 3.44.373 5.795 1.105 7.699 2.489a15 15 0 0 1 3.319 3.318c1.383 1.904 2.116 4.26 2.488 7.7.375 3.459.376 7.895.376 13.917v23.544c0 6.022-.001 10.458-.376 13.918-.372 3.44-1.105 5.795-2.488 7.699a15 15 0 0 1-3.319 3.319c-1.904 1.383-4.259 2.116-7.699 2.488-3.46.375-7.896.376-13.918.376h-23.544c-6.022 0-10.458-.001-13.917-.376-3.441-.372-5.796-1.105-7.7-2.488a15 15 0 0 1-3.318-3.319c-1.384-1.904-2.116-4.259-2.489-7.699-.375-3.46-.376-7.896-.376-13.918v-23.544c0-6.022.001-10.458.376-13.917.373-3.44 1.105-5.796 2.489-7.7a15 15 0 0 1 3.318-3.318c1.904-1.384 4.259-2.116 7.7-2.489 3.459-.375 7.895-.376 13.917-.376m-28.8 27.801c0-12 0-17.999 3.056-22.205a16 16 0 0 1 3.539-3.54c4.206-3.055 10.206-3.055 22.205-3.055h23.544c12 0 17.999 0 22.205 3.056a16 16 0 0 1 3.54 3.54c3.055 4.205 3.055 10.205 3.055 22.204v23.544c0 12 0 17.999-3.055 22.205a16 16 0 0 1-3.54 3.54c-4.206 3.055-10.205 3.055-22.205 3.055h-23.544c-11.999 0-17.999 0-22.205-3.055a16 16 0 0 1-3.539-3.54c-3.056-4.206-3.056-10.205-3.056-22.205zm122.978-27.8h23.544c6.022 0 10.458.001 13.917.376 3.441.373 5.796 1.105 7.7 2.489a15 15 0 0 1 3.318 3.318c1.384 1.904 2.116 4.26 2.489 7.7.375 3.459.376 7.895.376 13.917v23.544c0 6.022-.001 10.458-.376 13.918-.373 3.44-1.105 5.795-2.489 7.699a15 15 0 0 1-3.318 3.319c-1.904 1.383-4.259 2.116-7.7 2.488-3.459.375-7.895.376-13.917.376h-23.544c-6.022 0-10.458-.001-13.917-.376-3.441-.372-5.796-1.105-7.7-2.488a15 15 0 0 1-3.319-3.319c-1.383-1.904-2.115-4.259-2.488-7.699-.375-3.46-.376-7.896-.376-13.918v-23.544c0-6.022.001-10.458.376-13.917.373-3.44 1.105-5.796 2.488-7.7a15 15 0 0 1 3.319-3.318c1.904-1.384 4.259-2.116 7.7-2.489 3.459-.375 7.895-.376 13.917-.376m-28.8 27.8c0-12 0-17.999 3.055-22.205a16 16 0 0 1 3.54-3.54c4.206-3.055 10.206-3.055 22.205-3.055h23.544c11.999 0 17.999 0 22.205 3.056a16 16 0 0 1 3.539 3.54c3.056 4.205 3.056 10.205 3.056 22.204v23.544c0 12 0 17.999-3.056 22.205a16 16 0 0 1-3.539 3.54c-4.206 3.055-10.206 3.055-22.205 3.055h-23.544c-11.999 0-17.999 0-22.205-3.055a16 16 0 0 1-3.54-3.54c-3.055-4.206-3.055-10.205-3.055-22.205zm238.389-25.683h-23.544c-6.022 0-10.458.002-13.917.376-3.441.373-5.796 1.106-7.7 2.489a15 15 0 0 0-3.319 3.318c-1.383 1.904-2.116 4.26-2.488 7.7-.375 3.46-.376 7.895-.376 13.917v23.545c0 6.021.001 10.458.376 13.917.372 3.44 1.105 5.795 2.488 7.699a15 15 0 0 0 3.319 3.319c1.904 1.383 4.259 2.116 7.7 2.488 3.459.375 7.895.377 13.917.377h23.544c6.022 0 10.458-.002 13.917-.377 3.441-.372 5.796-1.105 7.7-2.488a15 15 0 0 0 3.318-3.319c1.384-1.904 2.116-4.259 2.489-7.699.375-3.459.376-7.896.376-13.917v-23.545c0-6.022-.001-10.458-.376-13.917-.373-3.44-1.105-5.796-2.489-7.7a15 15 0 0 0-3.318-3.318c-1.904-1.383-4.259-2.116-7.7-2.489-3.459-.374-7.895-.376-13.917-.376m-49.289 5.596c-3.055 4.205-3.055 10.205-3.055 22.204v23.545c0 11.999 0 17.998 3.055 22.204a16 16 0 0 0 3.54 3.54c4.206 3.056 10.205 3.056 22.205 3.056h23.544c11.999 0 17.999 0 22.205-3.056a16 16 0 0 0 3.539-3.54c3.056-4.206 3.056-10.205 3.056-22.204v-23.545c0-11.999 0-17.999-3.056-22.205a16 16 0 0 0-3.539-3.54c-4.206-3.055-10.206-3.055-22.205-3.055h-23.544c-12 0-17.999 0-22.205 3.056a16 16 0 0 0-3.54 3.54m-66.767-5.834h23.544c6.022 0 10.458.001 13.917.376 3.441.373 5.796 1.105 7.7 2.489a15 15 0 0 1 3.319 3.318c1.383 1.904 2.116 4.26 2.488 7.7.375 3.459.376 7.895.376 13.917v23.544c0 6.022-.001 10.458-.376 13.917-.372 3.441-1.105 5.796-2.488 7.7a15 15 0 0 1-3.319 3.319c-1.904 1.383-4.259 2.115-7.7 2.488-3.459.375-7.895.376-13.917.376h-23.544c-6.022 0-10.458-.001-13.917-.376-3.441-.373-5.796-1.105-7.7-2.488a15 15 0 0 1-3.318-3.319c-1.384-1.904-2.116-4.259-2.489-7.7-.375-3.459-.376-7.895-.376-13.917v-23.544c0-6.022.001-10.458.376-13.917.373-3.44 1.105-5.796 2.489-7.7a15 15 0 0 1 3.318-3.318c1.904-1.384 4.259-2.116 7.7-2.489 3.459-.375 7.895-.376 13.917-.376m-28.8 27.8c0-12 0-17.999 3.056-22.205a16 16 0 0 1 3.539-3.54c4.206-3.055 10.206-3.055 22.205-3.055h23.544c12 0 17.999 0 22.205 3.056a16 16 0 0 1 3.54 3.54c3.055 4.205 3.055 10.205 3.055 22.204v23.544c0 11.999 0 17.999-3.055 22.205a16 16 0 0 1-3.54 3.54c-4.206 3.055-10.205 3.055-22.205 3.055h-23.544c-11.999 0-17.999 0-22.205-3.055a16 16 0 0 1-3.539-3.54c-3.056-4.206-3.056-10.206-3.056-22.205zM260.851-13.598h23.544c6.022 0 10.458.002 13.917.377 3.441.372 5.796 1.105 7.7 2.488a15 15 0 0 1 3.319 3.319c1.383 1.904 2.115 4.259 2.488 7.7.375 3.458.376 7.895.376 13.916v23.545c0 6.022-.001 10.458-.376 13.917-.373 3.44-1.105 5.796-2.488 7.7a15 15 0 0 1-3.319 3.318c-1.904 1.383-4.259 2.116-7.7 2.489-3.459.374-7.895.376-13.917.376h-23.544c-6.022 0-10.458-.001-13.917-.376-3.441-.373-5.796-1.106-7.7-2.489a15 15 0 0 1-3.318-3.318c-1.384-1.904-2.116-4.26-2.489-7.7-.375-3.46-.376-7.895-.376-13.917V14.202c0-6.021.001-10.458.376-13.917.373-3.44 1.105-5.795 2.489-7.7a15 15 0 0 1 3.318-3.318c1.904-1.383 4.259-2.116 7.7-2.488 3.459-.375 7.895-.377 13.917-.377m-28.8 27.8c0-11.999 0-17.998 3.056-22.204a16 16 0 0 1 3.539-3.54c4.206-3.056 10.206-3.056 22.205-3.056h23.544c11.999 0 17.999 0 22.205 3.056a16 16 0 0 1 3.54 3.54c3.055 4.206 3.055 10.205 3.055 22.204v23.545c0 11.999 0 17.999-3.055 22.204a16 16 0 0 1-3.54 3.54c-4.206 3.056-10.206 3.056-22.205 3.056h-23.544c-11.999 0-17.999 0-22.205-3.056a16 16 0 0 1-3.539-3.54c-3.056-4.205-3.056-10.205-3.056-22.204z" clip-rule="evenodd"/><path fill="url(#B)" d="m272.587 97.992 17.13 30.045h-34.26z" opacity=".3"/><g filter="url(#C)"><rect width="392.746" height="295" x="37" y="132.684" fill="#2b1d40" rx="13" shape-rendering="crispEdges"/><path fill="#fff" d="M53.879 160.684v-8h2.852q.933 0 1.546.339.614.34.918.93.305.586.305 1.32 0 .739-.309 1.329-.304.585-.922.929-.613.34-1.542.34h-1.961v-1.023h1.851q.59 0 .957-.203.367-.207.54-.563.171-.355.171-.809 0-.453-.172-.804a1.23 1.23 0 0 0-.543-.551q-.367-.2-.968-.199h-1.516v6.965zm9.563.121q-.886 0-1.527-.379a2.57 2.57 0 0 1-.985-1.074q-.343-.696-.343-1.629 0-.923.343-1.625.348-.704.97-1.098.624-.395 1.46-.395.508 0 .984.168.477.168.856.528t.597.933q.22.571.22 1.387v.414h-4.77v-.875h3.625q0-.46-.188-.816-.187-.36-.527-.567a1.47 1.47 0 0 0-.79-.207q-.491 0-.859.242-.363.239-.562.625-.195.383-.195.833v.683q0 .601.21 1.024.216.422.598.644.383.219.895.219.332 0 .605-.094a1.256 1.256 0 0 0 .777-.762l1.106.2q-.132.488-.476.855a2.3 2.3 0 0 1-.856.566q-.511.2-1.168.2m3.98-.121v-6h1.13v.953h.062a1.45 1.45 0 0 1 .578-.762 1.65 1.65 0 0 1 .945-.281q.11 0 .258.008.151.007.238.019v1.117a2 2 0 0 0-.25-.043 2.4 2.4 0 0 0-.36-.027q-.413 0-.738.176a1.3 1.3 0 0 0-.695 1.176v3.664zm4.332 0v-6h1.12v.976h.075q.188-.496.613-.773.426-.282 1.02-.282.601 0 1.008.282.41.28.605.773h.063q.214-.48.683-.765.47-.29 1.117-.29.818 0 1.332.512.52.512.52 1.543v4.024h-1.168v-3.914q0-.61-.332-.883a1.2 1.2 0 0 0-.793-.274q-.57 0-.887.352-.315.348-.316.894v3.825H75.25v-3.989q0-.488-.305-.785-.304-.297-.793-.297-.331 0-.613.176a1.3 1.3 0 0 0-.45.481 1.47 1.47 0 0 0-.167.714v3.7zm9.831 0v-6h1.169v6zm.59-6.926a.74.74 0 0 1-.523-.203.66.66 0 0 1-.215-.493q0-.288.215-.492a.74.74 0 0 1 .523-.207q.306 0 .52.207.219.204.219.492a.66.66 0 0 1-.22.493.73.73 0 0 1-.519.203m6.756 2.39-1.059.188a1.3 1.3 0 0 0-.21-.387 1.06 1.06 0 0 0-.384-.301 1.4 1.4 0 0 0-.605-.117q-.496 0-.828.223-.332.22-.332.566 0 .301.222.485.224.183.72.3l.952.219q.829.192 1.235.59.406.399.406 1.035 0 .54-.312.961a2.04 2.04 0 0 1-.864.656q-.55.239-1.277.239-1.008 0-1.645-.43-.636-.434-.78-1.23l1.128-.172q.105.441.434.668.328.222.855.222.574 0 .918-.238.344-.242.344-.59a.61.61 0 0 0-.211-.472q-.207-.191-.637-.29l-1.016-.222q-.84-.192-1.242-.61-.398-.417-.398-1.058 0-.531.297-.93t.82-.621a3 3 0 0 1 1.2-.227q.972 0 1.53.422.56.419.739 1.121m6.007 0-1.058.188a1.3 1.3 0 0 0-.211-.387 1.06 1.06 0 0 0-.383-.301 1.4 1.4 0 0 0-.606-.117q-.495 0-.828.223-.332.22-.332.566 0 .301.223.485.222.183.719.3l.953.219q.828.192 1.234.59.406.399.406 1.035 0 .54-.312.961a2.04 2.04 0 0 1-.863.656q-.55.239-1.278.239-1.008 0-1.644-.43-.637-.434-.781-1.23l1.128-.172q.105.441.434.668.328.222.856.222.573 0 .918-.238.343-.242.343-.59a.61.61 0 0 0-.21-.472q-.207-.191-.637-.29l-1.016-.222q-.84-.192-1.242-.61-.399-.417-.399-1.058 0-.531.297-.93t.82-.621a3 3 0 0 1 1.2-.227q.972 0 1.531.422.558.419.738 1.121m1.512 4.536v-6h1.168v6zm.59-6.926a.74.74 0 0 1-.524-.203.66.66 0 0 1-.215-.493q0-.288.215-.492a.74.74 0 0 1 .523-.207q.306 0 .52.207.219.204.219.492a.66.66 0 0 1-.219.493.73.73 0 0 1-.52.203m4.786 7.047q-.843 0-1.472-.387a2.6 2.6 0 0 1-.977-1.082q-.348-.695-.348-1.625 0-.933.348-1.633.347-.699.977-1.086.629-.387 1.472-.387.845 0 1.473.387t.977 1.086q.347.7.347 1.633 0 .93-.347 1.625a2.6 2.6 0 0 1-.977 1.082q-.629.387-1.473.387m.004-.981q.547 0 .906-.289.36-.29.532-.769.175-.482.175-1.059 0-.574-.175-1.055a1.7 1.7 0 0 0-.532-.777q-.358-.293-.906-.293-.55 0-.914.293a1.75 1.75 0 0 0-.535.777 3.1 3.1 0 0 0-.172 1.055q0 .577.172 1.059.176.48.535.769.363.29.914.289m5.375-2.703v3.563h-1.168v-6h1.121v.976h.074q.207-.477.649-.765.445-.29 1.121-.29.614 0 1.074.258.461.255.715.758.254.504.254 1.246v3.817h-1.168v-3.676q0-.653-.34-1.02-.34-.37-.934-.371-.406 0-.722.176a1.25 1.25 0 0 0-.496.516q-.18.335-.18.812m10.012-.973-1.058.188a1.3 1.3 0 0 0-.211-.387 1.1 1.1 0 0 0-.383-.301 1.4 1.4 0 0 0-.606-.117q-.495 0-.828.223-.332.22-.332.566 0 .301.223.485.222.183.719.3l.953.219q.828.192 1.234.59.406.399.406 1.035 0 .54-.312.961a2.04 2.04 0 0 1-.863.656q-.551.239-1.278.239-1.008 0-1.644-.43-.637-.434-.782-1.23l1.129-.172q.106.441.434.668.329.222.855.222.575 0 .918-.238.344-.242.344-.59a.61.61 0 0 0-.211-.472q-.207-.191-.637-.29l-1.015-.222q-.84-.192-1.242-.61-.399-.417-.399-1.058 0-.531.297-.93t.82-.621a3 3 0 0 1 1.2-.227q.973 0 1.531.422.558.419.738 1.121"/><g filter="url(#D)"><path stroke="#fff" stroke-opacity=".1" stroke-width=".5" d="M53 180.684h360.746"/></g><rect width="17.512" height="17.512" x="53" y="196.926" fill="#fff" fill-opacity=".05" rx="4"/><g stroke="#fff" stroke-linecap="round" stroke-linejoin="round" stroke-width=".55" opacity=".5"><path d="M59.379 209.646v-7.135c0-.107 0-.218.028-.325a.59.59 0 0 1 .436-.44c.115-.027.618-.027.725-.027h2.774c.107 0 .218 0 .325.027a.59.59 0 0 1 .44.436c.028.111.028.222.028.329v7.135zM57.794 206.476v2.378c0 .436.357.793.793.793h.792v-3.963h-.792c-.108 0-.219 0-.326.027a.6.6 0 0 0-.285.159.6.6 0 0 0-.154.281 1.4 1.4 0 0 0-.028.325"/><path d="M65.25 204.521a1.3 1.3 0 0 0-.325-.028h-.792v5.152h.793a.79.79 0 0 0 .792-.792v-3.567c0-.111 0-.218-.028-.325a.6.6 0 0 0-.158-.286.6.6 0 0 0-.281-.154M60.965 203.305h1.585M60.965 204.891h1.585M60.965 206.473h1.585M60.965 208.059h1.585"/></g><path fill="#9296aa" d="M86.23 205.684q0 1.265-.457 2.187-.456.923-1.254 1.422-.796.5-1.82.5-1.023 0-1.82-.5t-1.254-1.422-.457-2.187.457-2.188q.457-.921 1.254-1.422t1.82-.5q1.025 0 1.82.5.798.501 1.254 1.422.458.922.458 2.188m-.937 0q0-1.04-.348-1.754-.344-.716-.933-1.082a2.4 2.4 0 0 0-1.313-.368 2.44 2.44 0 0 0-1.316.368q-.585.366-.934 1.082-.343.714-.343 1.754 0 1.038.343 1.753.348.716.934 1.083.59.367 1.316.367t1.313-.367q.59-.367.933-1.083.348-.714.348-1.753m2.551 4v-6h.891v.906h.063q.164-.446.593-.723.43-.277.969-.277a9 9 0 0 1 .484.015v.938a2 2 0 0 0-.215-.035 2 2 0 0 0-.347-.028q-.438 0-.781.184a1.349 1.349 0 0 0-.734 1.223v3.797zm6.442 2.375q-.668 0-1.148-.172a2.4 2.4 0 0 1-.8-.446 2.4 2.4 0 0 1-.505-.586l.735-.515q.125.163.316.375.192.215.523.371.337.16.88.16.725 0 1.199-.351.472-.352.472-1.102v-1.219h-.078a5 5 0 0 1-.289.406q-.184.238-.531.426-.345.184-.93.184-.727 0-1.304-.344a2.4 2.4 0 0 1-.91-1q-.333-.656-.333-1.594 0-.921.325-1.605.323-.687.902-1.063.577-.379 1.336-.379.585 0 .93.196.347.19.53.437.188.243.29.399h.094v-.953h.89v6.171q0 .774-.351 1.258a2 2 0 0 1-.938.715 3.5 3.5 0 0 1-1.305.231m-.03-3.297q.553 0 .937-.254.382-.254.582-.731.198-.476.199-1.14a3.1 3.1 0 0 0-.195-1.145 1.7 1.7 0 0 0-.578-.777q-.383-.281-.946-.281-.585 0-.976.296a1.8 1.8 0 0 0-.582.797 3.1 3.1 0 0 0-.192 1.11q0 .625.196 1.105.199.477.585.75.39.27.97.27m6.187 1.062q-.57 0-1.035-.215a1.77 1.77 0 0 1-.738-.629q-.274-.414-.274-1 0-.515.204-.835.203-.325.543-.508.339-.184.75-.274.414-.094.832-.148.547-.07.886-.106.344-.039.5-.129.16-.09.16-.312v-.031q0-.578-.316-.899-.313-.32-.949-.32-.66 0-1.035.289t-.528.617l-.875-.312q.235-.548.625-.852.395-.309.86-.43.468-.125.922-.125.288 0 .664.071.378.066.73.277.356.211.59.637t.234 1.14v3.954h-.922v-.813h-.046a1.6 1.6 0 0 1-.313.418q-.219.223-.582.379t-.887.156m.141-.828q.547 0 .922-.215a1.47 1.47 0 0 0 .57-.554q.195-.34.195-.715v-.844q-.059.07-.257.129a5 5 0 0 1-.454.098 21 21 0 0 1-.882.117q-.36.047-.672.152a1.16 1.16 0 0 0-.5.309q-.188.203-.188.554 0 .481.356.727.36.242.91.242m5.324-2.922v3.61h-.922v-6h.891v.937h.078q.21-.457.64-.734.43-.282 1.11-.282.609 0 1.066.25.457.247.711.75.254.501.254 1.266v3.813h-.922v-3.75q0-.708-.367-1.102-.368-.398-1.008-.398-.441 0-.789.191-.343.192-.543.559-.2.366-.199.89m5.622 3.61v-6h.922v6zm.469-7a.66.66 0 0 1-.465-.184.6.6 0 0 1-.191-.441q0-.258.191-.442a.66.66 0 0 1 .465-.183q.27 0 .461.183.195.184.195.442a.59.59 0 0 1-.195.441.64.64 0 0 1-.461.184m2.08 7v-.704l3.406-4.375v-.062h-3.297v-.859h4.485v.734l-3.313 4.344v.062h3.422v.86zm7.999.14q-.571 0-1.036-.215a1.77 1.77 0 0 1-.738-.629q-.273-.414-.273-1 0-.515.203-.835.203-.325.543-.508.339-.184.75-.274.414-.094.832-.148.546-.07.887-.106.343-.039.5-.129.16-.09.16-.312v-.031q0-.578-.317-.899-.312-.32-.949-.32-.66 0-1.035.289t-.527.617l-.875-.312q.234-.548.625-.852a2.3 2.3 0 0 1 .859-.43q.468-.125.922-.125.29 0 .664.071.38.066.73.277.356.211.59.637.235.426.235 1.14v3.954h-.922v-.813h-.047a1.6 1.6 0 0 1-.313.418 1.8 1.8 0 0 1-.582.379q-.363.156-.886.156m.14-.828q.547 0 .922-.215.38-.215.57-.554.196-.34.196-.715v-.844q-.059.07-.258.129-.195.054-.453.098a22 22 0 0 1-.883.117q-.36.047-.672.152a1.16 1.16 0 0 0-.5.309q-.187.203-.187.554 0 .481.355.727.36.242.91.242m7.012-5.312v.781h-3.11v-.781zm-2.204-1.438h.922v5.719q0 .39.114.586a.6.6 0 0 0 .297.258q.183.062.386.062.153 0 .25-.016l.156-.031.188.828q-.094.036-.262.071a2 2 0 0 1-.426.039q-.39 0-.765-.168a1.5 1.5 0 0 1-.617-.512q-.243-.344-.243-.867zm3.7 7.438v-6h.922v6zm.469-7a.66.66 0 0 1-.465-.184.6.6 0 0 1-.191-.441q0-.258.191-.442a.66.66 0 0 1 .465-.183q.27 0 .461.183.195.184.195.442a.59.59 0 0 1-.195.441.64.64 0 0 1-.461.184m4.689 7.125q-.812 0-1.426-.387a2.63 2.63 0 0 1-.953-1.082q-.34-.696-.34-1.625 0-.938.34-1.637.344-.699.953-1.086.614-.387 1.426-.387.813 0 1.422.387.614.387.953 1.086.344.7.344 1.637 0 .93-.344 1.625a2.6 2.6 0 0 1-.953 1.082q-.609.387-1.422.387m0-.829q.618 0 1.016-.316t.59-.832a3.2 3.2 0 0 0 .191-1.117 3.2 3.2 0 0 0-.191-1.121 1.9 1.9 0 0 0-.59-.84q-.398-.32-1.016-.32-.617 0-1.015.32a1.9 1.9 0 0 0-.59.84q-.192.52-.192 1.121t.192 1.117q.19.516.59.832.398.316 1.015.316m5.158-2.906v3.61h-.922v-6h.891v.937h.078q.211-.457.641-.734.43-.282 1.109-.282.61 0 1.066.25.458.247.711.75.254.501.254 1.266v3.813h-.922v-3.75q0-.708-.367-1.102-.368-.398-1.008-.398-.441 0-.789.191-.344.192-.543.559-.2.366-.199.89m8.951 3.61v-8h2.704q.94 0 1.539.339.602.336.89.911a2.8 2.8 0 0 1 .289 1.281q0 .707-.289 1.285-.285.578-.883.922-.597.34-1.531.34h-1.937v-.86h1.906q.645 0 1.035-.222.39-.223.567-.602.179-.383.179-.863t-.179-.86a1.3 1.3 0 0 0-.571-.593q-.394-.219-1.047-.219h-1.703v7.141zm9.419.125q-.867 0-1.496-.383a2.57 2.57 0 0 1-.965-1.078q-.336-.696-.336-1.618 0-.921.336-1.625.34-.707.945-1.101.61-.399 1.422-.399.469 0 .926.157.457.156.832.508.375.347.598.921t.222 1.414v.391h-4.625v-.797h3.688q0-.507-.203-.906a1.53 1.53 0 0 0-.57-.629 1.6 1.6 0 0 0-.868-.23q-.55 0-.953.273-.398.27-.613.703a2.1 2.1 0 0 0-.215.93v.531q0 .68.234 1.152.238.47.661.715.422.243.98.242.363 0 .656-.101a1.4 1.4 0 0 0 .512-.313q.215-.21.332-.523l.891.25a2 2 0 0 1-.473.797 2.3 2.3 0 0 1-.82.531 3 3 0 0 1-1.098.188m3.997-.125v-6h.89v.906h.063q.163-.446.594-.723t.968-.277a9 9 0 0 1 .485.015v.938a2 2 0 0 0-.215-.035 2 2 0 0 0-.348-.028q-.437 0-.781.184-.34.18-.539.5a1.35 1.35 0 0 0-.195.723v3.797zm4.203 0v-6h.89v.937h.078q.187-.48.606-.746.417-.27 1.004-.27.594 0 .988.27.399.266.621.746h.063q.23-.465.691-.738.461-.278 1.105-.278.805 0 1.317.504.512.5.512 1.559v4.016h-.922v-4.016q0-.664-.364-.949a1.34 1.34 0 0 0-.855-.285q-.633 0-.981.382-.347.38-.347.961v3.907h-.938v-4.11q0-.512-.332-.824-.332-.316-.855-.316-.36 0-.672.191a1.45 1.45 0 0 0-.5.531 1.57 1.57 0 0 0-.188.778v3.75zm9.67 0v-6h.922v6zm.469-7a.66.66 0 0 1-.465-.184.59.59 0 0 1-.191-.441.6.6 0 0 1 .191-.442.66.66 0 0 1 .465-.183q.27 0 .461.183.195.184.195.442a.59.59 0 0 1-.195.441.64.64 0 0 1-.461.184m6.501 2.343-.828.235a1.6 1.6 0 0 0-.23-.403 1.1 1.1 0 0 0-.406-.328q-.258-.129-.661-.129-.55 0-.918.254-.363.25-.363.637 0 .344.25.543t.781.332l.891.219q.805.195 1.199.597.395.398.395 1.028 0 .515-.297.922-.293.406-.82.64a3 3 0 0 1-1.227.235q-.918 0-1.519-.399-.602-.397-.762-1.164l.875-.219q.125.484.472.727.353.242.918.242.645 0 1.024-.273.383-.278.383-.664a.7.7 0 0 0-.219-.524q-.219-.215-.672-.32l-1-.235q-.824-.195-1.211-.605-.383-.414-.383-1.035 0-.508.285-.899.29-.39.786-.613a2.8 2.8 0 0 1 1.132-.223q.89 0 1.399.391.512.391.726 1.031m5.858 0-.829.235a1.6 1.6 0 0 0-.23-.403 1.1 1.1 0 0 0-.406-.328q-.258-.129-.66-.129-.552 0-.918.254-.364.25-.364.637 0 .344.25.543t.782.332l.89.219q.805.195 1.199.597.395.398.395 1.028 0 .515-.297.922-.293.406-.82.64a3 3 0 0 1-1.227.235q-.918 0-1.519-.399-.601-.397-.762-1.164l.875-.219q.125.484.473.727.351.242.918.242.644 0 1.023-.273.383-.278.383-.664a.7.7 0 0 0-.219-.524q-.219-.215-.672-.32l-1-.235q-.824-.195-1.211-.605-.383-.414-.383-1.035 0-.508.286-.899.288-.39.785-.613a2.8 2.8 0 0 1 1.133-.223q.89 0 1.398.391.511.391.727 1.031m1.607 4.657v-6h.921v6zm.468-7a.66.66 0 0 1-.464-.184.59.59 0 0 1-.192-.441q0-.258.192-.442a.66.66 0 0 1 .464-.183q.27 0 .461.183.196.184.196.442a.59.59 0 0 1-.196.441.64.64 0 0 1-.461.184m4.689 7.125q-.811 0-1.425-.387a2.63 2.63 0 0 1-.953-1.082q-.34-.696-.34-1.625 0-.938.34-1.637.343-.699.953-1.086.613-.387 1.425-.387t1.422.387q.614.387.953 1.086.344.7.344 1.637 0 .93-.344 1.625a2.6 2.6 0 0 1-.953 1.082q-.609.387-1.422.387m0-.829q.617 0 1.016-.316.398-.316.59-.832t.191-1.117q0-.602-.191-1.121a1.9 1.9 0 0 0-.59-.84q-.399-.32-1.016-.32t-1.015.32a1.9 1.9 0 0 0-.59.84q-.191.52-.191 1.121t.191 1.117.59.832q.398.316 1.015.316m5.158-2.906v3.61h-.922v-6h.891v.937h.078q.211-.457.641-.734.43-.282 1.109-.282.61 0 1.067.25.456.247.711.75.253.501.253 1.266v3.813h-.921v-3.75q0-.708-.368-1.102-.366-.398-1.007-.398-.442 0-.79.191-.344.192-.542.559-.2.366-.2.89m9.873-1.047-.828.235a1.5 1.5 0 0 0-.231-.403 1.1 1.1 0 0 0-.406-.328q-.258-.129-.66-.129-.55 0-.918.254-.363.25-.363.637 0 .344.25.543t.781.332l.891.219q.804.195 1.199.597.394.398.394 1.028 0 .515-.297.922-.292.406-.82.64-.527.235-1.226.235-.918 0-1.52-.399-.601-.397-.762-1.164l.875-.219q.126.484.473.727.351.242.918.242.645 0 1.023-.273.383-.278.383-.664a.7.7 0 0 0-.219-.524q-.218-.215-.671-.32l-1-.235q-.825-.195-1.211-.605-.383-.414-.383-1.035 0-.508.285-.899.289-.39.785-.613a2.8 2.8 0 0 1 1.133-.223q.891 0 1.398.391.513.391.727 1.031"/><path stroke="#fff" stroke-linecap="round" stroke-linejoin="round" stroke-width=".553" d="m402.613 204.492 2.378 2.378 2.378-2.378" opacity=".5"/><rect width="17.512" height="17.512" x="53" y="222.926" fill="#fff" fill-opacity=".05" rx="4"/><path stroke="#fff" stroke-linecap="round" stroke-linejoin="round" stroke-width=".553" d="m62.15 227.719-3.962 4.756h3.567l-.397 3.171 3.964-4.757h-3.567z" opacity=".5"/><path fill="#9296aa" d="M79.48 235.684v-8h2.704q.94 0 1.539.339.601.336.89.911.29.573.29 1.281 0 .707-.29 1.285a2.15 2.15 0 0 1-.882.922q-.599.34-1.532.34h-1.937v-.86h1.906q.645 0 1.035-.222.391-.223.566-.602.18-.383.18-.863t-.18-.86a1.3 1.3 0 0 0-.57-.593q-.394-.219-1.047-.219H80.45v7.141zm6.968 0v-6h.89v.906h.063q.164-.446.594-.723t.968-.277a9 9 0 0 1 .485.015v.938a2 2 0 0 0-.215-.035 2 2 0 0 0-.348-.028q-.437 0-.78.184a1.349 1.349 0 0 0-.734 1.223v3.797zm6.458.125q-.813 0-1.426-.387a2.63 2.63 0 0 1-.953-1.082q-.34-.696-.34-1.625 0-.938.34-1.637.343-.699.953-1.086.614-.387 1.425-.387.813 0 1.422.387.614.387.954 1.086.343.7.343 1.637 0 .93-.343 1.625a2.6 2.6 0 0 1-.954 1.082q-.61.387-1.421.387m0-.829q.617 0 1.015-.316.399-.316.59-.832t.191-1.117q0-.602-.191-1.121a1.9 1.9 0 0 0-.59-.84q-.398-.32-1.016-.32-.616 0-1.015.32a1.9 1.9 0 0 0-.59.84q-.19.52-.191 1.121 0 .601.191 1.117.192.516.59.832t1.016.316m4.235-5.296h.922v6.437q0 .555-.191.961a1.38 1.38 0 0 1-.57.629q-.38.223-.957.223h-.188v-.86h.172q.422 0 .617-.25.195-.246.195-.703zm.454-1a.66.66 0 0 1-.465-.184.6.6 0 0 1-.192-.441q0-.258.192-.442a.66.66 0 0 1 .465-.183q.27 0 .46.183.195.184.196.442a.58.58 0 0 1-.195.441.64.64 0 0 1-.461.184m4.783 7.125q-.868 0-1.497-.383a2.57 2.57 0 0 1-.964-1.078q-.336-.696-.336-1.618 0-.921.336-1.625.339-.707.945-1.101.609-.399 1.422-.399.468 0 .926.157.457.156.832.508.375.347.597.921.223.575.223 1.414v.391h-4.625v-.797h3.687q0-.507-.203-.906a1.53 1.53 0 0 0-.57-.629 1.6 1.6 0 0 0-.867-.23q-.55 0-.953.273-.398.27-.614.703a2.1 2.1 0 0 0-.214.93v.531q0 .68.234 1.152.239.47.66.715.422.243.981.242.363 0 .656-.101.297-.106.511-.313.215-.21.333-.523l.89.25a2 2 0 0 1-.473.797 2.3 2.3 0 0 1-.82.531 3 3 0 0 1-1.097.188m6.434 0q-.844 0-1.453-.399a2.6 2.6 0 0 1-.938-1.098q-.328-.699-.328-1.597 0-.915.336-1.613.34-.704.945-1.098.609-.399 1.422-.399.633 0 1.141.235.507.234.832.656t.402.984h-.922a1.42 1.42 0 0 0-.469-.726q-.359-.32-.968-.32-.54 0-.946.281a1.84 1.84 0 0 0-.629.785q-.222.504-.222 1.184 0 .695.219 1.211.222.515.625.8.405.285.953.285.359 0 .652-.125a1.34 1.34 0 0 0 .785-.921h.922a2.13 2.13 0 0 1-1.195 1.628q-.501.247-1.164.247m6.426-6.125v.781h-3.109v-.781zm-2.203-1.438h.922v5.719q0 .39.113.586a.6.6 0 0 0 .297.258q.183.062.387.062.152 0 .25-.016l.156-.031.188.828q-.094.036-.262.071a2 2 0 0 1-.426.039q-.39 0-.766-.168a1.5 1.5 0 0 1-.617-.512q-.242-.344-.242-.867zm7.029 7.438v-8h2.703q.94 0 1.539.339.602.336.89.911a2.8 2.8 0 0 1 .289 1.281q0 .707-.289 1.285a2.15 2.15 0 0 1-.882.922q-.598.34-1.532.34h-1.937v-.86h1.906q.645 0 1.035-.222.39-.223.567-.602.179-.383.179-.863t-.179-.86a1.3 1.3 0 0 0-.571-.593q-.395-.219-1.047-.219h-1.703v7.141zm9.418.125q-.867 0-1.496-.383a2.57 2.57 0 0 1-.965-1.078q-.336-.696-.336-1.618 0-.921.336-1.625.34-.707.946-1.101.61-.399 1.421-.399.47 0 .926.157.457.156.832.508.375.347.598.921t.223 1.414v.391h-4.625v-.797h3.687q0-.507-.203-.906a1.53 1.53 0 0 0-.57-.629 1.6 1.6 0 0 0-.868-.23q-.55 0-.953.273-.398.27-.613.703a2.1 2.1 0 0 0-.215.93v.531q0 .68.235 1.152.237.47.66.715.422.243.98.242.363 0 .656-.101a1.4 1.4 0 0 0 .512-.313q.215-.21.332-.523l.891.25a2 2 0 0 1-.473.797 2.3 2.3 0 0 1-.82.531 3 3 0 0 1-1.098.188m3.997-.125v-6h.891v.906h.062q.163-.446.594-.723.429-.277.969-.277a9 9 0 0 1 .484.015v.938a2 2 0 0 0-.215-.035 2 2 0 0 0-.348-.028q-.437 0-.781.184-.34.18-.539.5a1.35 1.35 0 0 0-.195.723v3.797zm4.203 0v-6h.89v.937h.078q.188-.48.606-.746.418-.27 1.004-.27.594 0 .988.27.399.266.621.746h.063q.23-.465.691-.738.46-.278 1.106-.278.804 0 1.316.504.512.5.512 1.559v4.016h-.922v-4.016q0-.664-.363-.949a1.35 1.35 0 0 0-.856-.285q-.633 0-.98.382-.348.38-.348.961v3.907h-.938v-4.11q0-.512-.332-.824-.331-.316-.855-.316-.36 0-.672.191a1.45 1.45 0 0 0-.5.531 1.57 1.57 0 0 0-.187.778v3.75zm9.67 0v-6h.922v6zm.469-7a.66.66 0 0 1-.465-.184.6.6 0 0 1-.191-.441q0-.258.191-.442a.66.66 0 0 1 .465-.183q.27 0 .461.183.195.184.195.442a.59.59 0 0 1-.195.441.64.64 0 0 1-.461.184m6.502 2.343-.829.235a1.5 1.5 0 0 0-.23-.403 1.1 1.1 0 0 0-.406-.328q-.258-.129-.66-.129-.552 0-.918.254-.364.25-.364.637 0 .344.25.543t.782.332l.89.219q.805.195 1.199.597.395.398.395 1.028 0 .515-.297.922-.293.406-.82.64a3 3 0 0 1-1.227.235q-.918 0-1.519-.399-.602-.397-.762-1.164l.875-.219q.125.484.473.727.351.242.918.242.643 0 1.023-.273.383-.278.383-.664a.7.7 0 0 0-.219-.524q-.219-.215-.672-.32l-1-.235q-.824-.195-1.211-.605-.383-.414-.383-1.035 0-.508.286-.899.288-.39.785-.613a2.8 2.8 0 0 1 1.133-.223q.89 0 1.398.391.511.391.727 1.031m5.857 0-.828.235a1.6 1.6 0 0 0-.231-.403 1.1 1.1 0 0 0-.406-.328q-.258-.129-.66-.129-.552 0-.918.254-.364.25-.364.637 0 .344.25.543t.782.332l.89.219q.805.195 1.199.597.396.398.395 1.028 0 .515-.297.922-.293.406-.82.64a3 3 0 0 1-1.227.235q-.918 0-1.519-.399-.601-.397-.762-1.164l.875-.219q.125.484.473.727.351.242.918.242.644 0 1.023-.273.383-.278.383-.664a.7.7 0 0 0-.219-.524q-.219-.215-.672-.32l-1-.235q-.824-.195-1.211-.605-.382-.414-.382-1.035 0-.508.285-.899.288-.39.785-.613a2.8 2.8 0 0 1 1.133-.223q.89 0 1.398.391.511.391.727 1.031m1.607 4.657v-6h.922v6zm.468-7a.66.66 0 0 1-.464-.184.59.59 0 0 1-.192-.441q0-.258.192-.442a.66.66 0 0 1 .464-.183q.27 0 .461.183.196.184.196.442a.58.58 0 0 1-.196.441.64.64 0 0 1-.461.184m4.69 7.125q-.813 0-1.426-.387a2.63 2.63 0 0 1-.953-1.082q-.34-.696-.34-1.625 0-.938.34-1.637.344-.699.953-1.086.613-.387 1.426-.387t1.421.387q.614.387.954 1.086.343.7.343 1.637 0 .93-.343 1.625a2.6 2.6 0 0 1-.954 1.082q-.61.387-1.421.387m0-.829q.617 0 1.015-.316t.59-.832.191-1.117q0-.602-.191-1.121a1.9 1.9 0 0 0-.59-.84q-.398-.32-1.015-.32-.618 0-1.016.32a1.9 1.9 0 0 0-.59.84q-.192.52-.191 1.121 0 .601.191 1.117.192.516.59.832t1.016.316m5.157-2.906v3.61h-.921v-6h.89v.937h.078q.211-.457.641-.734.43-.282 1.109-.282.61 0 1.067.25.456.247.711.75.254.501.254 1.266v3.813h-.922v-3.75q0-.708-.368-1.102-.366-.398-1.007-.398a1.6 1.6 0 0 0-.789.191q-.345.192-.543.559-.2.366-.2.89m9.873-1.047-.828.235a1.6 1.6 0 0 0-.23-.403 1.1 1.1 0 0 0-.407-.328q-.258-.129-.66-.129-.55 0-.918.254-.363.25-.363.637 0 .344.25.543t.781.332l.891.219q.804.195 1.199.597.394.398.394 1.028 0 .515-.296.922-.293.406-.821.64-.527.235-1.226.235-.918 0-1.52-.399-.601-.397-.762-1.164l.875-.219q.125.484.473.727.352.242.918.242.645 0 1.024-.273.382-.278.382-.664a.7.7 0 0 0-.218-.524q-.219-.215-.672-.32l-1-.235q-.825-.195-1.211-.605-.383-.414-.383-1.035 0-.508.285-.899.29-.39.785-.613a2.8 2.8 0 0 1 1.133-.223q.89 0 1.399.391.511.391.726 1.031"/><path stroke="#fff" stroke-linecap="round" stroke-linejoin="round" stroke-width=".553" d="m402.613 230.492 2.378 2.378 2.378-2.378" opacity=".5"/><rect width="17.512" height="17.512" x="53" y="248.926" fill="#fff" fill-opacity=".05" rx="4"/><g stroke="#fff" stroke-linecap="round" stroke-linejoin="round" stroke-width=".553" opacity=".5"><path d="M64.53 261.249v-.793a1.587 1.587 0 0 0-1.586-1.585h-2.378a1.586 1.586 0 0 0-1.586 1.585v.793M61.757 257.284a1.585 1.585 0 1 0 0-3.17 1.585 1.585 0 0 0 0 3.17"/></g><path fill="#9296aa" d="M79.48 261.684v-8h2.704q.94 0 1.539.339.601.336.89.911.29.573.29 1.281 0 .707-.29 1.285a2.15 2.15 0 0 1-.882.922q-.599.34-1.532.34h-1.937v-.86h1.906q.645 0 1.035-.222.391-.223.566-.602.18-.383.18-.863t-.18-.86a1.3 1.3 0 0 0-.57-.593q-.394-.219-1.047-.219H80.45v7.141zm9.42.125q-.87 0-1.497-.383a2.57 2.57 0 0 1-.965-1.078q-.336-.696-.336-1.618 0-.921.336-1.625.34-.707.945-1.101.61-.399 1.422-.399.469 0 .926.157.457.156.832.508.376.347.598.921t.222 1.414v.391h-4.625v-.797h3.688q0-.507-.203-.906a1.53 1.53 0 0 0-.57-.629 1.6 1.6 0 0 0-.868-.23q-.55 0-.953.273a1.8 1.8 0 0 0-.613.703 2.1 2.1 0 0 0-.215.93v.531q0 .68.234 1.152.24.47.66.715.423.243.981.242.363 0 .656-.101.297-.106.512-.313.215-.21.332-.523l.89.25a2 2 0 0 1-.472.797 2.3 2.3 0 0 1-.82.531 3 3 0 0 1-1.098.188m3.996-.125v-6h.89v.906h.063q.164-.445.594-.723t.968-.277a9 9 0 0 1 .485.015v.938a2 2 0 0 0-.215-.035 2 2 0 0 0-.348-.028q-.437 0-.781.184a1.349 1.349 0 0 0-.734 1.223v3.797zm8.453-4.657-.829.235a1.5 1.5 0 0 0-.23-.403 1.1 1.1 0 0 0-.406-.328q-.258-.129-.66-.129-.552 0-.918.254-.364.25-.364.637 0 .344.25.543t.782.332l.89.219q.805.195 1.199.597.395.399.395 1.028 0 .515-.297.922-.293.406-.82.64-.527.235-1.227.235-.917 0-1.52-.399-.6-.398-.761-1.164l.875-.219q.124.484.473.727.351.242.918.242.644 0 1.023-.273.383-.278.383-.664a.7.7 0 0 0-.219-.524q-.219-.215-.672-.32l-1-.235q-.825-.195-1.21-.605-.384-.414-.384-1.035 0-.508.286-.899.288-.39.785-.613a2.8 2.8 0 0 1 1.133-.223q.89 0 1.398.391.511.391.727 1.031m4.044 4.782q-.813 0-1.426-.387a2.63 2.63 0 0 1-.953-1.082q-.34-.695-.34-1.625 0-.938.34-1.637.344-.699.953-1.086.613-.387 1.426-.387t1.422.387q.614.387.953 1.086.344.7.344 1.637 0 .93-.344 1.625a2.6 2.6 0 0 1-.953 1.082q-.609.387-1.422.387m0-.829q.618 0 1.016-.316t.59-.832a3.2 3.2 0 0 0 .191-1.117 3.2 3.2 0 0 0-.191-1.121 1.9 1.9 0 0 0-.59-.84q-.398-.32-1.016-.32-.617 0-1.015.32a1.9 1.9 0 0 0-.59.84q-.192.52-.192 1.121t.192 1.117q.19.516.59.832.398.316 1.015.316m5.158-2.906v3.61h-.922v-6h.891v.937h.078q.21-.457.64-.734.43-.282 1.11-.282.61 0 1.066.25.458.247.711.75.254.501.254 1.266v3.813h-.922v-3.75q0-.708-.367-1.102-.368-.399-1.008-.398-.441 0-.789.191-.344.192-.543.559-.2.366-.199.89m7.388 3.75q-.57 0-1.035-.215a1.76 1.76 0 0 1-.738-.629q-.273-.414-.274-1 0-.515.204-.835.203-.325.543-.508.339-.184.75-.274.414-.094.832-.148.547-.07.886-.106.344-.039.5-.129.16-.09.16-.312v-.031q0-.579-.316-.899-.312-.32-.949-.32-.66 0-1.035.289t-.528.617l-.875-.312q.235-.548.625-.852.395-.309.86-.43.468-.125.922-.125.288 0 .664.071.379.066.73.277.356.211.59.637t.234 1.14v3.954h-.922v-.813h-.046a1.6 1.6 0 0 1-.313.418q-.219.223-.582.379t-.887.156m.141-.828q.547 0 .922-.215a1.46 1.46 0 0 0 .765-1.269v-.844q-.059.07-.257.129a5 5 0 0 1-.454.098 21 21 0 0 1-.882.117q-.36.047-.672.152a1.16 1.16 0 0 0-.5.309q-.188.203-.188.554 0 .481.356.727.359.242.91.242m5.324-7.312v8h-.922v-8zm5.455 8h-1.015l2.937-8h1l2.938 8h-1.016l-2.391-6.735h-.062zm.375-3.125h4.094v.859h-4.094zm9.153 3.25q-.844 0-1.453-.399a2.6 2.6 0 0 1-.938-1.098q-.327-.699-.328-1.597 0-.915.336-1.613.34-.703.946-1.098.61-.399 1.421-.399.633 0 1.141.235t.832.656.402.984h-.921a1.44 1.44 0 0 0-.469-.726q-.36-.32-.969-.32-.538 0-.945.281a1.83 1.83 0 0 0-.629.785q-.223.504-.223 1.184 0 .695.219 1.211.222.515.625.8.407.285.953.285.36 0 .652-.125t.497-.359q.202-.235.289-.562h.921a2.14 2.14 0 0 1-.386.957 2.15 2.15 0 0 1-.809.671q-.5.247-1.164.247m6.255 0q-.844 0-1.453-.399a2.6 2.6 0 0 1-.938-1.098q-.328-.699-.328-1.597 0-.915.336-1.613.339-.703.945-1.098.609-.399 1.422-.399.633 0 1.141.235.507.234.832.656.324.421.402.984h-.922a1.42 1.42 0 0 0-.469-.726q-.359-.32-.968-.32-.54 0-.946.281a1.83 1.83 0 0 0-.629.785q-.222.504-.222 1.184 0 .695.219 1.211.222.515.625.8.405.285.953.285.359 0 .652-.125a1.34 1.34 0 0 0 .785-.921h.922a2.13 2.13 0 0 1-1.195 1.628q-.501.247-1.164.247m6.254 0q-.812 0-1.426-.387a2.63 2.63 0 0 1-.953-1.082q-.34-.695-.34-1.625 0-.938.34-1.637.344-.699.953-1.086.614-.387 1.426-.387.813 0 1.422.387.614.387.953 1.086.344.7.344 1.637 0 .93-.344 1.625a2.6 2.6 0 0 1-.953 1.082q-.609.387-1.422.387m0-.829q.618 0 1.016-.316t.59-.832a3.2 3.2 0 0 0 .191-1.117 3.2 3.2 0 0 0-.191-1.121 1.9 1.9 0 0 0-.59-.84q-.398-.32-1.016-.32-.617 0-1.015.32a1.9 1.9 0 0 0-.59.84q-.192.52-.192 1.121t.192 1.117q.19.516.59.832.398.316 1.015.316m8.017-1.75v-3.546h.922v6h-.922v-1.016h-.062a1.96 1.96 0 0 1-.656.777q-.446.317-1.125.317-.563 0-1-.246a1.73 1.73 0 0 1-.688-.75q-.25-.504-.25-1.27v-3.812h.922v3.75q0 .656.367 1.046.372.391.946.391.344 0 .699-.176.359-.176.601-.539.246-.363.246-.926m3.643-1.156v3.61h-.922v-6h.89v.937h.079q.21-.457.64-.734.43-.282 1.11-.282.609 0 1.066.25.458.247.711.75.254.501.254 1.266v3.813h-.922v-3.75q0-.708-.367-1.102-.368-.399-1.008-.398-.441 0-.789.191-.344.192-.543.559-.2.366-.199.89m8.232-2.39v.781h-3.11v-.781zm-2.203-1.438h.921v5.719q0 .39.114.586a.6.6 0 0 0 .297.258q.183.062.386.062.153 0 .25-.016l.157-.031.187.828q-.094.036-.262.071a2 2 0 0 1-.425.039q-.391 0-.766-.168a1.5 1.5 0 0 1-.617-.512q-.243-.343-.242-.867zm7.028 7.438v-8h2.703q.942 0 1.539.339.602.336.891.911a2.8 2.8 0 0 1 .289 1.281q0 .707-.289 1.285-.285.578-.883.922-.597.34-1.531.34h-1.938v-.86h1.907q.643 0 1.035-.222a1.33 1.33 0 0 0 .566-.602q.18-.383.18-.863t-.18-.86a1.28 1.28 0 0 0-.57-.593q-.394-.219-1.047-.219h-1.703v7.141zm9.419.125q-.867 0-1.496-.383a2.56 2.56 0 0 1-.965-1.078q-.336-.696-.336-1.618 0-.921.336-1.625.339-.707.945-1.101.609-.399 1.422-.399.469 0 .926.157.456.156.832.508.375.347.597.921.223.575.223 1.414v.391h-4.625v-.797h3.688q0-.507-.203-.906a1.53 1.53 0 0 0-.571-.629 1.6 1.6 0 0 0-.867-.23q-.55 0-.953.273-.399.27-.613.703a2.06 2.06 0 0 0-.215.93v.531q0 .68.234 1.152.239.47.66.715.422.243.981.242.363 0 .656-.101a1.4 1.4 0 0 0 .512-.313q.215-.21.332-.523l.89.25a2 2 0 0 1-.472.797 2.3 2.3 0 0 1-.821.531 3 3 0 0 1-1.097.188m3.996-.125v-6h.891v.906h.063a1.44 1.44 0 0 1 .593-.723 1.75 1.75 0 0 1 .969-.277 9 9 0 0 1 .484.015v.938a2 2 0 0 0-.214-.035 2 2 0 0 0-.348-.028q-.438 0-.781.184-.34.18-.539.5a1.34 1.34 0 0 0-.196.723v3.797zm4.203 0v-6h.891v.937h.078q.188-.48.605-.746.419-.27 1.004-.27.594 0 .989.27.398.266.621.746h.062q.23-.465.692-.738.46-.278 1.105-.278.805 0 1.317.504.511.5.511 1.559v4.016h-.922v-4.016q0-.664-.363-.949a1.34 1.34 0 0 0-.855-.285q-.633 0-.981.382-.348.38-.348.961v3.907h-.937v-4.11q0-.512-.332-.824-.332-.316-.856-.316-.359 0-.671.191a1.45 1.45 0 0 0-.5.531 1.57 1.57 0 0 0-.188.778v3.75zm9.671 0v-6h.922v6zm.469-7a.66.66 0 0 1-.465-.184.59.59 0 0 1-.192-.441q0-.258.192-.442a.66.66 0 0 1 .465-.183q.269 0 .46.183.196.184.196.442a.58.58 0 0 1-.196.441.64.64 0 0 1-.46.184m6.501 2.343-.828.235a1.6 1.6 0 0 0-.23-.403 1.1 1.1 0 0 0-.407-.328q-.258-.129-.66-.129-.55 0-.918.254-.363.25-.363.637 0 .344.25.543t.781.332l.891.219q.804.195 1.199.597.395.399.395 1.028 0 .515-.297.922-.293.406-.821.64-.527.235-1.226.235-.918 0-1.52-.399-.602-.398-.761-1.164l.875-.219q.124.484.472.727.352.242.918.242.645 0 1.024-.273.382-.278.382-.664a.7.7 0 0 0-.218-.524q-.219-.215-.672-.32l-1-.235q-.825-.195-1.211-.605-.383-.414-.383-1.035 0-.508.285-.899.29-.39.785-.613a2.8 2.8 0 0 1 1.133-.223q.89 0 1.399.391.512.391.726 1.031m5.857 0-.828.235a1.6 1.6 0 0 0-.23-.403 1.1 1.1 0 0 0-.407-.328q-.258-.129-.66-.129-.55 0-.918.254-.363.25-.363.637 0 .344.25.543t.781.332l.891.219q.804.195 1.199.597.395.399.395 1.028 0 .515-.297.922-.293.406-.821.64-.527.235-1.226.235-.918 0-1.52-.399-.602-.398-.761-1.164l.875-.219q.124.484.472.727.352.242.918.242.645 0 1.024-.273.382-.278.382-.664a.7.7 0 0 0-.218-.524q-.219-.215-.672-.32l-1-.235q-.825-.195-1.211-.605-.383-.414-.383-1.035 0-.508.285-.899.29-.39.785-.613a2.8 2.8 0 0 1 1.133-.223q.89 0 1.399.391.511.391.726 1.031m1.607 4.657v-6h.922v6zm.469-7a.66.66 0 0 1-.465-.184.6.6 0 0 1-.191-.441q0-.258.191-.442a.66.66 0 0 1 .465-.183q.27 0 .461.183.195.184.195.442a.59.59 0 0 1-.195.441.64.64 0 0 1-.461.184m4.689 7.125q-.813 0-1.426-.387a2.63 2.63 0 0 1-.953-1.082q-.34-.695-.34-1.625 0-.938.34-1.637.344-.699.953-1.086.613-.387 1.426-.387t1.422.387q.614.387.953 1.086.344.7.344 1.637 0 .93-.344 1.625a2.6 2.6 0 0 1-.953 1.082q-.609.387-1.422.387m0-.829q.618 0 1.016-.316t.59-.832a3.2 3.2 0 0 0 .191-1.117 3.2 3.2 0 0 0-.191-1.121 1.9 1.9 0 0 0-.59-.84q-.399-.32-1.016-.32t-1.015.32a1.9 1.9 0 0 0-.59.84q-.192.52-.192 1.121t.192 1.117q.19.516.59.832.398.316 1.015.316m5.158-2.906v3.61h-.922v-6h.891v.937h.078q.21-.457.64-.734.43-.282 1.11-.282.61 0 1.066.25.458.247.711.75.254.501.254 1.266v3.813h-.922v-3.75q0-.708-.367-1.102-.368-.399-1.008-.398-.441 0-.789.191-.344.192-.543.559-.2.366-.199.89m9.873-1.047-.828.235a1.6 1.6 0 0 0-.231-.403 1.1 1.1 0 0 0-.406-.328q-.258-.129-.66-.129-.55 0-.918.254-.363.25-.364.637 0 .344.25.543t.782.332l.89.219q.806.195 1.2.597.394.399.394 1.028 0 .515-.297.922-.293.406-.82.64a3 3 0 0 1-1.227.235q-.918 0-1.519-.399-.602-.398-.762-1.164l.875-.219q.125.484.473.727.351.242.918.242.644 0 1.023-.273.383-.278.383-.664a.7.7 0 0 0-.219-.524q-.219-.215-.672-.32l-1-.235q-.824-.195-1.211-.605-.382-.414-.382-1.035 0-.508.285-.899.288-.39.785-.613a2.8 2.8 0 0 1 1.133-.223q.89 0 1.398.391.511.391.727 1.031"/><path stroke="#fff" stroke-linecap="round" stroke-linejoin="round" stroke-width=".553" d="m402.613 256.492 2.378 2.378 2.378-2.378" opacity=".5"/><g filter="url(#E)"><path stroke="#fff" stroke-opacity=".1" stroke-width=".5" d="M53 282.684h360.746"/></g><path fill="#9296aa" d="M59.09 306.684a1.22 1.22 0 0 0-.57-.922q-.501-.328-1.227-.328-.531 0-.93.171a1.5 1.5 0 0 0-.617.473 1.14 1.14 0 0 0-.219.684q0 .32.153.55.156.228.398.379.242.148.508.246.266.094.488.153l.813.219q.312.081.695.226.387.145.738.395.356.246.586.632.23.387.23.95 0 .648-.34 1.172-.335.523-.983.832-.645.308-1.567.308-.86 0-1.488-.277a2.37 2.37 0 0 1-.985-.774 2.2 2.2 0 0 1-.402-1.152h1q.04.453.305.75.27.293.68.438.413.14.89.14.555 0 .996-.179.441-.184.7-.508.257-.328.257-.766 0-.399-.222-.648a1.64 1.64 0 0 0-.586-.407 6 6 0 0 0-.785-.273l-.985-.281q-.938-.27-1.484-.77-.547-.5-.547-1.308 0-.672.363-1.172.367-.504.984-.782a3.3 3.3 0 0 1 1.387-.281q.774 0 1.375.278.602.273.953.75.356.476.375 1.082zm5.14 6.125q-.867 0-1.496-.383a2.57 2.57 0 0 1-.965-1.078q-.336-.696-.336-1.618 0-.921.336-1.625a2.65 2.65 0 0 1 .946-1.101q.61-.399 1.421-.399.469 0 .926.157.457.156.832.508.376.347.598.921t.222 1.414v.391H62.09v-.797h3.687q0-.507-.203-.906a1.53 1.53 0 0 0-.57-.629 1.6 1.6 0 0 0-.868-.23q-.55 0-.953.273a1.8 1.8 0 0 0-.613.703 2.1 2.1 0 0 0-.215.93v.531q0 .68.235 1.152.237.47.66.715.421.243.98.242.363 0 .656-.101.297-.106.512-.313.215-.21.332-.523l.89.25a2 2 0 0 1-.472.797 2.3 2.3 0 0 1-.82.531 3 3 0 0 1-1.098.188m4.919-8.125v8h-.922v-8zm4.314 8.125q-.867 0-1.496-.383a2.57 2.57 0 0 1-.965-1.078q-.336-.696-.336-1.618 0-.921.336-1.625a2.65 2.65 0 0 1 .945-1.101q.609-.399 1.422-.399.469 0 .926.157.457.156.832.508.376.347.598.921t.222 1.414v.391h-4.625v-.797h3.688q0-.507-.203-.906a1.53 1.53 0 0 0-.57-.629 1.6 1.6 0 0 0-.868-.23q-.55 0-.953.273a1.8 1.8 0 0 0-.613.703 2.1 2.1 0 0 0-.215.93v.531q0 .68.234 1.152.24.47.66.715.422.243.98.242.364 0 .657-.101.297-.106.512-.313.215-.21.332-.523l.89.25a2 2 0 0 1-.472.797 2.3 2.3 0 0 1-.82.531 3 3 0 0 1-1.098.188m6.434 0q-.844 0-1.453-.399a2.6 2.6 0 0 1-.938-1.098q-.328-.699-.328-1.597 0-.915.336-1.613.34-.703.946-1.098.61-.399 1.421-.399.633 0 1.141.235t.832.656.402.984h-.921a1.43 1.43 0 0 0-.47-.726q-.359-.32-.968-.32-.54 0-.945.281a1.83 1.83 0 0 0-.63.785q-.222.504-.222 1.184 0 .695.219 1.211.222.515.625.8.405.285.953.285.36 0 .652-.125.294-.125.496-.359.203-.235.29-.562h.921a2.14 2.14 0 0 1-.386.957 2.15 2.15 0 0 1-.809.671q-.5.247-1.164.247m6.426-6.125v.781h-3.109v-.781zm-2.203-1.438h.922v5.719q0 .39.114.586a.6.6 0 0 0 .296.258q.185.062.387.062.153 0 .25-.016l.156-.031.188.828a1.93 1.93 0 0 1-.687.11q-.391 0-.766-.168a1.5 1.5 0 0 1-.618-.512q-.242-.343-.242-.867zm8.67 7.578q-.57 0-1.036-.215a1.77 1.77 0 0 1-.738-.629q-.273-.414-.273-1 0-.515.203-.835.203-.325.543-.508.339-.184.75-.274.414-.094.832-.148.547-.07.886-.106.345-.039.5-.129.16-.09.16-.312v-.031q0-.579-.316-.899-.312-.32-.949-.32-.66 0-1.035.289t-.527.617l-.876-.312q.235-.548.626-.852.394-.309.859-.43.469-.125.922-.125.288 0 .664.071.378.066.73.277.356.211.59.637t.234 1.14v3.954h-.921v-.813h-.047a1.6 1.6 0 0 1-.313.418q-.219.223-.582.379-.364.156-.886.156m.14-.828q.547 0 .922-.215a1.46 1.46 0 0 0 .766-1.269v-.844q-.06.07-.258.129a5 5 0 0 1-.453.098 22 22 0 0 1-.883.117q-.36.047-.672.152a1.16 1.16 0 0 0-.5.309q-.187.203-.187.554 0 .481.355.727.36.242.91.242m5.324-2.922v3.61h-.922v-6h.89v.937h.079q.21-.457.64-.734.43-.282 1.11-.282.61 0 1.066.25.457.248.711.75.255.501.254 1.266v3.813h-.922v-3.75q0-.708-.367-1.102-.368-.399-1.008-.398-.441 0-.789.191-.343.192-.543.559-.2.366-.199.89m11.264 3.735q-.813 0-1.426-.387a2.63 2.63 0 0 1-.953-1.082q-.34-.695-.34-1.625 0-.938.34-1.637.344-.699.953-1.086.613-.387 1.426-.387t1.422.387q.613.387.953 1.086.344.7.344 1.637 0 .93-.344 1.625a2.6 2.6 0 0 1-.953 1.082q-.609.387-1.422.387m0-.829q.617 0 1.016-.316.398-.316.589-.832.192-.516.192-1.117 0-.602-.192-1.121a1.9 1.9 0 0 0-.589-.84q-.4-.32-1.016-.32-.617 0-1.016.32a1.9 1.9 0 0 0-.59.84 3.2 3.2 0 0 0-.191 1.121q0 .601.191 1.117.192.516.59.832.4.316 1.016.316m4.236.704v-6h.891v.906h.062q.163-.445.594-.723.429-.277.969-.277a9 9 0 0 1 .484.015v.938a2 2 0 0 0-.215-.035 2 2 0 0 0-.348-.028q-.437 0-.781.184-.34.18-.539.5a1.35 1.35 0 0 0-.195.723v3.797zm6.442 2.375q-.668 0-1.148-.172a2.42 2.42 0 0 1-1.305-1.032l.734-.515q.125.163.317.375a1.6 1.6 0 0 0 .523.371q.336.16.879.16.726 0 1.199-.351.473-.352.473-1.102v-1.219h-.078q-.102.165-.289.406-.184.239-.532.426-.344.184-.929.184-.728 0-1.305-.344a2.4 2.4 0 0 1-.91-1q-.332-.656-.332-1.594 0-.921.324-1.605.324-.687.902-1.063a2.4 2.4 0 0 1 1.336-.379q.587 0 .93.196.348.19.531.437.188.243.289.399h.094v-.953h.891v6.171q0 .774-.352 1.258a2 2 0 0 1-.937.715 3.5 3.5 0 0 1-1.305.231m-.031-3.297q.555 0 .937-.254a1.6 1.6 0 0 0 .582-.731q.2-.476.199-1.14 0-.649-.195-1.145a1.7 1.7 0 0 0-.578-.777q-.383-.281-.945-.281-.586 0-.977.296a1.8 1.8 0 0 0-.582.797 3.1 3.1 0 0 0-.191 1.11q0 .625.195 1.105.2.477.586.75.39.27.969.27m6.188 1.062q-.57 0-1.035-.215a1.77 1.77 0 0 1-.739-.629q-.273-.414-.273-1 0-.515.203-.835.204-.325.543-.508.34-.184.75-.274.414-.094.832-.148.547-.07.887-.106.344-.039.5-.129.16-.09.16-.312v-.031q0-.579-.316-.899-.313-.32-.95-.32-.66 0-1.035.289t-.527.617l-.875-.312q.234-.548.625-.852a2.3 2.3 0 0 1 .859-.43q.47-.125.922-.125.29 0 .664.071.379.066.731.277.355.211.589.637.235.426.235 1.14v3.954h-.922v-.813h-.047q-.094.195-.312.418-.219.223-.582.379-.364.156-.887.156m.14-.828q.547 0 .922-.215.38-.215.571-.554.195-.34.195-.715v-.844q-.059.07-.258.129-.195.054-.453.098a22 22 0 0 1-.883.117 3.6 3.6 0 0 0-.672.152 1.17 1.17 0 0 0-.5.309q-.187.203-.187.554 0 .481.355.727.36.242.91.242m5.324-2.922v3.61h-.922v-6h.891v.937h.078q.211-.457.641-.734.43-.282 1.109-.282.61 0 1.067.25.456.248.711.75.253.501.253 1.266v3.813h-.921v-3.75q0-.708-.368-1.102-.366-.399-1.007-.398a1.6 1.6 0 0 0-.789.191q-.345.192-.543.559-.2.366-.2.89m5.623 3.61v-6h.922v6zm.469-7a.66.66 0 0 1-.465-.184.59.59 0 0 1-.191-.441.6.6 0 0 1 .191-.442.66.66 0 0 1 .465-.183q.269 0 .461.183.195.184.195.442a.59.59 0 0 1-.195.441.65.65 0 0 1-.461.184m2.08 7v-.704l3.406-4.375v-.062h-3.297v-.859h4.484v.734l-3.312 4.344v.062h3.422v.86zm7.998.14q-.57 0-1.035-.215a1.76 1.76 0 0 1-.738-.629q-.274-.414-.274-1 0-.515.203-.835.204-.325.543-.508.34-.184.75-.274.415-.094.832-.148.548-.07.887-.106.344-.039.5-.129.16-.09.16-.312v-.031q0-.579-.316-.899-.312-.32-.949-.32-.66 0-1.035.289t-.528.617l-.875-.312q.235-.548.625-.852.395-.309.86-.43.468-.125.921-.125.29 0 .665.071.379.066.73.277.356.211.59.637t.234 1.14v3.954h-.922v-.813h-.047a1.6 1.6 0 0 1-.312.418q-.219.223-.582.379t-.887.156m.141-.828q.547 0 .922-.215a1.47 1.47 0 0 0 .57-.554q.195-.34.195-.715v-.844q-.059.07-.257.129a5 5 0 0 1-.454.098 21 21 0 0 1-.882.117q-.36.047-.672.152a1.16 1.16 0 0 0-.5.309q-.188.203-.188.554 0 .481.356.727.359.242.91.242m7.011-5.312v.781h-3.109v-.781zm-2.203-1.438h.922v5.719q0 .39.113.586a.6.6 0 0 0 .297.258q.183.062.387.062.152 0 .25-.016l.156-.031.188.828q-.094.036-.262.071a2 2 0 0 1-.426.039q-.39 0-.766-.168a1.5 1.5 0 0 1-.617-.512q-.242-.343-.242-.867zm3.7 7.438v-6h.922v6zm.469-7a.66.66 0 0 1-.465-.184.59.59 0 0 1-.192-.441q0-.258.192-.442a.66.66 0 0 1 .465-.183q.269 0 .461.183.195.184.195.442a.59.59 0 0 1-.195.441.65.65 0 0 1-.461.184m4.689 7.125q-.813 0-1.426-.387a2.63 2.63 0 0 1-.953-1.082q-.34-.695-.34-1.625 0-.938.34-1.637.344-.699.953-1.086.613-.387 1.426-.387.811 0 1.422.387.612.387.953 1.086.343.7.343 1.637 0 .93-.343 1.625a2.6 2.6 0 0 1-.953 1.082q-.61.387-1.422.387m0-.829q.617 0 1.015-.316.4-.316.59-.832.192-.516.192-1.117 0-.602-.192-1.121a1.9 1.9 0 0 0-.59-.84q-.398-.32-1.015-.32-.618 0-1.016.32a1.9 1.9 0 0 0-.59.84 3.2 3.2 0 0 0-.191 1.121q0 .601.191 1.117.192.516.59.832t1.016.316m5.158-2.906v3.61h-.922v-6h.89v.937h.078q.212-.457.641-.734.43-.282 1.109-.282.61 0 1.067.25.458.248.711.75.254.501.254 1.266v3.813h-.922v-3.75q0-.708-.367-1.102-.367-.399-1.008-.398-.441 0-.789.191-.344.192-.543.559-.2.366-.199.89m11.435-2.39v.781h-3.109v-.781zm-2.203-1.438h.922v5.719q0 .39.113.586a.6.6 0 0 0 .297.258q.184.062.387.062.153 0 .25-.016l.156-.031.188.828q-.094.036-.262.071a2 2 0 0 1-.426.039q-.39 0-.765-.168a1.53 1.53 0 0 1-.618-.512q-.242-.343-.242-.867zm6.073 7.563q-.812 0-1.426-.387a2.63 2.63 0 0 1-.953-1.082q-.34-.695-.34-1.625 0-.938.34-1.637.344-.699.953-1.086.614-.387 1.426-.387.813 0 1.422.387.614.387.953 1.086.344.7.344 1.637 0 .93-.344 1.625a2.6 2.6 0 0 1-.953 1.082q-.609.387-1.422.387m0-.829q.618 0 1.016-.316t.59-.832a3.2 3.2 0 0 0 .191-1.117 3.2 3.2 0 0 0-.191-1.121 1.9 1.9 0 0 0-.59-.84q-.399-.32-1.016-.32t-1.015.32a1.9 1.9 0 0 0-.59.84q-.192.52-.192 1.121t.192 1.117q.19.516.59.832.398.316 1.015.316m9.862 3.079q-.668 0-1.149-.172a2.43 2.43 0 0 1-1.304-1.032l.734-.515q.125.163.316.375.192.215.524.371.336.16.879.16.726 0 1.199-.351.473-.352.473-1.102v-1.219h-.078q-.102.165-.29.406a1.6 1.6 0 0 1-.531.426q-.344.184-.929.184-.727 0-1.305-.344a2.4 2.4 0 0 1-.91-1q-.332-.656-.332-1.594 0-.921.324-1.605.324-.687.902-1.063a2.4 2.4 0 0 1 1.336-.379q.587 0 .93.196.348.19.531.437.187.243.289.399h.094v-.953h.891v6.171q0 .774-.352 1.258a2 2 0 0 1-.938.715q-.585.231-1.304.231m-.031-3.297q.554 0 .937-.254a1.6 1.6 0 0 0 .582-.731q.2-.476.199-1.14 0-.649-.195-1.145a1.7 1.7 0 0 0-.578-.777q-.382-.281-.945-.281-.587 0-.977.296a1.8 1.8 0 0 0-.582.797 3.1 3.1 0 0 0-.191 1.11q0 .625.195 1.105.2.477.586.75.39.27.969.27m4.422.922v-6h.891v.906h.062q.164-.445.594-.723t.969-.277a9 9 0 0 1 .484.015v.938a2 2 0 0 0-.215-.035 2 2 0 0 0-.347-.028q-.438 0-.782.184-.34.18-.539.5a1.35 1.35 0 0 0-.195.723v3.797zm5.968.14q-.57 0-1.035-.215a1.76 1.76 0 0 1-.738-.629q-.273-.414-.273-1 0-.515.203-.835.202-.325.543-.508.339-.184.75-.274.414-.094.832-.148.547-.07.886-.106.345-.039.5-.129.16-.09.161-.312v-.031q0-.579-.317-.899-.312-.32-.949-.32-.66 0-1.035.289t-.528.617l-.875-.312q.235-.548.625-.852.395-.309.86-.43.469-.125.922-.125.288 0 .664.071.379.066.73.277.356.211.59.637t.234 1.14v3.954h-.921v-.813h-.047a1.6 1.6 0 0 1-.313.418q-.219.223-.582.379t-.887.156m.141-.828q.547 0 .922-.215a1.46 1.46 0 0 0 .766-1.269v-.844q-.059.07-.258.129-.195.054-.453.098a23 23 0 0 1-.883.117q-.36.047-.672.152a1.16 1.16 0 0 0-.5.309q-.188.203-.188.554 0 .481.356.727.359.242.91.242m5.324-2.922v3.61h-.922v-6h.891v.937h.078q.21-.457.64-.734.43-.282 1.11-.282.61 0 1.066.25.458.248.711.75.254.501.254 1.266v3.813h-.922v-3.75q0-.708-.367-1.102-.367-.399-1.008-.398-.441 0-.789.191-.344.192-.543.559-.2.366-.199.89m8.232-2.39v.781h-3.109v-.781zm-2.203-1.438h.922v5.719q0 .39.113.586a.6.6 0 0 0 .297.258q.183.062.387.062.152 0 .25-.016l.156-.031.187.828a1.931 1.931 0 0 1-.687.11q-.391 0-.766-.168a1.5 1.5 0 0 1-.617-.512q-.242-.343-.242-.867zm7.357 7.438h-1.016l2.937-8h1l2.938 8h-1.016l-2.39-6.735h-.063zm.375-3.125h4.093v.859h-4.093zm6.84 3.125v-8h2.703q.942 0 1.539.339.601.336.891.911a2.8 2.8 0 0 1 .289 1.281q0 .707-.289 1.285-.285.578-.883.922-.597.34-1.531.34h-1.938v-.86h1.907q.643 0 1.035-.222a1.33 1.33 0 0 0 .566-.602q.18-.383.18-.863t-.18-.86a1.28 1.28 0 0 0-.57-.593q-.395-.219-1.047-.219h-1.703v7.141zm8.061-8v8h-.969v-8zm6.897 8.14q-.57 0-1.035-.215a1.76 1.76 0 0 1-.738-.629q-.274-.414-.274-1 0-.515.203-.835.204-.325.543-.508.34-.184.75-.274.415-.094.832-.148.547-.07.887-.106.344-.039.5-.129.16-.09.16-.312v-.031q0-.579-.316-.899-.313-.32-.95-.32-.66 0-1.035.289t-.527.617l-.875-.312q.235-.548.625-.852a2.3 2.3 0 0 1 .859-.43q.47-.125.922-.125.29 0 .664.071.379.066.731.277.355.211.59.637t.234 1.14v3.954h-.922v-.813h-.047a1.6 1.6 0 0 1-.312.418q-.219.223-.582.379t-.887.156m.141-.828q.546 0 .921-.215.38-.215.571-.554.195-.34.195-.715v-.844q-.059.07-.258.129-.195.054-.453.098a21 21 0 0 1-.883.117 3.6 3.6 0 0 0-.672.152 1.17 1.17 0 0 0-.5.309q-.187.203-.187.554 0 .481.355.727.36.242.911.242m6.839.813q-.843 0-1.453-.399a2.6 2.6 0 0 1-.938-1.098q-.328-.699-.328-1.597 0-.915.336-1.613.34-.703.946-1.098.61-.399 1.421-.399.633 0 1.141.235t.832.656.402.984h-.921a1.44 1.44 0 0 0-.469-.726q-.36-.32-.969-.32-.539 0-.945.281a1.83 1.83 0 0 0-.629.785q-.223.504-.223 1.184 0 .695.219 1.211.222.515.625.8.407.285.953.285.36 0 .652-.125t.497-.359q.202-.235.289-.562h.921q-.078.531-.386.957a2.15 2.15 0 0 1-.809.671q-.5.247-1.164.247m6.255 0q-.844 0-1.453-.399a2.6 2.6 0 0 1-.938-1.098q-.328-.699-.328-1.597 0-.915.336-1.613.339-.703.945-1.098.609-.399 1.422-.399.633 0 1.141.235.507.234.832.656.324.421.402.984h-.922a1.42 1.42 0 0 0-.469-.726q-.359-.32-.968-.32-.54 0-.946.281a1.83 1.83 0 0 0-.629.785q-.222.504-.222 1.184 0 .695.219 1.211.222.515.625.8.405.285.953.285.359 0 .652-.125a1.34 1.34 0 0 0 .785-.921h.922a2.13 2.13 0 0 1-1.195 1.628q-.501.247-1.164.247m6.332 0q-.867 0-1.496-.383a2.6 2.6 0 0 1-.965-1.078q-.336-.696-.336-1.618 0-.921.336-1.625.34-.707.946-1.101.609-.399 1.422-.399.468 0 .925.157.457.156.832.508.376.347.598.921t.223 1.414v.391h-4.625v-.797h3.687q0-.507-.203-.906a1.53 1.53 0 0 0-.57-.629 1.6 1.6 0 0 0-.867-.23 1.66 1.66 0 0 0-.954.273q-.398.27-.613.703a2.1 2.1 0 0 0-.215.93v.531q0 .68.235 1.152.239.47.66.715.422.243.98.242.363 0 .657-.101.296-.106.511-.313.215-.21.332-.523l.891.25a2 2 0 0 1-.473.797 2.3 2.3 0 0 1-.82.531 3 3 0 0 1-1.098.188m8.247-4.782-.828.235a1.5 1.5 0 0 0-.231-.403 1.1 1.1 0 0 0-.406-.328q-.258-.129-.66-.129-.55 0-.918.254-.363.25-.363.637 0 .344.25.543t.781.332l.891.219q.804.195 1.199.597.394.399.394 1.028 0 .515-.296.922-.293.406-.821.64-.527.235-1.226.235-.918 0-1.52-.399-.601-.398-.762-1.164l.875-.219q.126.484.473.727.351.242.918.242.645 0 1.023-.273.383-.278.383-.664a.7.7 0 0 0-.218-.524q-.219-.215-.672-.32l-1-.235q-.824-.195-1.211-.605-.384-.414-.383-1.035 0-.508.285-.899.289-.39.785-.613a2.8 2.8 0 0 1 1.133-.223q.891 0 1.398.391.513.391.727 1.031m5.857 0-.828.235a1.5 1.5 0 0 0-.231-.403 1.1 1.1 0 0 0-.406-.328q-.258-.129-.66-.129-.55 0-.918.254-.363.25-.363.637 0 .344.25.543t.781.332l.891.219q.804.195 1.199.597.394.399.394 1.028 0 .515-.296.922-.293.406-.821.64-.527.235-1.226.235-.918 0-1.52-.399-.601-.398-.762-1.164l.875-.219q.126.484.473.727.351.242.918.242.645 0 1.024-.273.382-.278.382-.664a.7.7 0 0 0-.218-.524q-.219-.215-.672-.32l-1-.235q-.825-.195-1.211-.605-.383-.414-.383-1.035 0-.508.285-.899.29-.39.785-.613a2.8 2.8 0 0 1 1.133-.223q.89 0 1.399.391.512.391.726 1.031m7.42-1.343v.781h-3.109v-.781zm-2.203-1.438h.922v5.719q0 .39.113.586a.6.6 0 0 0 .297.258q.184.062.387.062.152 0 .25-.016l.156-.031.188.828q-.094.036-.262.071a2 2 0 0 1-.426.039q-.39 0-.765-.168a1.5 1.5 0 0 1-.618-.512q-.242-.343-.242-.867zm6.073 7.563q-.813 0-1.426-.387a2.63 2.63 0 0 1-.953-1.082q-.34-.695-.34-1.625 0-.938.34-1.637.344-.699.953-1.086.613-.387 1.426-.387t1.422.387q.613.387.953 1.086.344.7.344 1.637 0 .93-.344 1.625a2.6 2.6 0 0 1-.953 1.082q-.609.387-1.422.387m0-.829q.618 0 1.016-.316t.59-.832a3.2 3.2 0 0 0 .191-1.117 3.2 3.2 0 0 0-.191-1.121 1.9 1.9 0 0 0-.59-.84q-.399-.32-1.016-.32t-1.016.32a1.9 1.9 0 0 0-.589.84q-.192.52-.192 1.121t.192 1.117q.191.516.589.832.4.316 1.016.316"/><g filter="url(#F)"><path fill="#9296aa" d="M69.27 337.285h-1.22a1.87 1.87 0 0 0-.73-1.191 2 2 0 0 0-.62-.313 2.4 2.4 0 0 0-.723-.105q-.691 0-1.239.347-.543.348-.86 1.02-.311.672-.312 1.641 0 .976.313 1.648.316.672.863 1.016.548.343 1.23.343.38 0 .72-.101.344-.105.62-.309a1.9 1.9 0 0 0 .739-1.176l1.218.004a3.3 3.3 0 0 1-.378 1.086 3 3 0 0 1-.715.852q-.434.355-.992.551-.56.195-1.22.195-1.039 0-1.85-.492-.814-.497-1.282-1.418-.465-.923-.465-2.199 0-1.282.469-2.2.469-.921 1.281-1.414.813-.495 1.848-.496.636 0 1.187.184.555.18.996.531.442.348.73.852.29.5.391 1.144m2.628 1.836v3.563H70.73v-8h1.152v2.976h.075q.21-.484.644-.769t1.133-.286q.617 0 1.078.254.465.255.719.758.258.5.258 1.25v3.817H74.62v-3.676q0-.66-.34-1.024-.34-.367-.945-.367-.414 0-.743.176a1.26 1.26 0 0 0-.511.516 1.7 1.7 0 0 0-.184.812m8.087 3.684q-.845 0-1.473-.387a2.6 2.6 0 0 1-.977-1.082q-.347-.696-.347-1.625 0-.933.347-1.633.348-.699.977-1.086.63-.387 1.473-.387t1.472.387.977 1.086q.347.7.347 1.633 0 .93-.347 1.625a2.6 2.6 0 0 1-.977 1.082q-.629.387-1.472.387m.004-.981q.546 0 .906-.289.36-.29.531-.769a3.1 3.1 0 0 0 .176-1.059q0-.574-.176-1.055a1.7 1.7 0 0 0-.531-.777q-.36-.293-.906-.293-.551 0-.915.293-.36.293-.535.777a3.1 3.1 0 0 0-.171 1.055q0 .577.171 1.059.176.48.535.769.364.29.915.289m6.734.981q-.844 0-1.473-.387a2.6 2.6 0 0 1-.977-1.082q-.347-.696-.347-1.625 0-.933.347-1.633.348-.699.977-1.086.63-.387 1.473-.387t1.472.387.977 1.086q.347.7.347 1.633 0 .93-.347 1.625a2.6 2.6 0 0 1-.977 1.082q-.629.387-1.472.387m.004-.981q.546 0 .906-.289.36-.29.531-.769.176-.482.176-1.059 0-.574-.176-1.055a1.7 1.7 0 0 0-.531-.777q-.36-.293-.906-.293-.551 0-.915.293-.36.293-.535.777a3.1 3.1 0 0 0-.172 1.055q0 .577.172 1.059.176.48.535.769.364.29.915.289m8.702-3.676-1.058.188a1.3 1.3 0 0 0-.211-.387 1.06 1.06 0 0 0-.383-.301 1.4 1.4 0 0 0-.606-.117q-.495 0-.828.223-.332.22-.332.566 0 .301.223.485.222.183.719.3l.953.219q.828.191 1.234.59t.406 1.035q0 .54-.312.961a2.04 2.04 0 0 1-.863.656q-.55.239-1.278.239-1.008 0-1.644-.43-.637-.433-.781-1.23l1.128-.172q.105.441.434.668.328.222.855.222.575 0 .919-.238.343-.242.343-.59a.61.61 0 0 0-.21-.472q-.208-.191-.637-.29l-1.016-.222q-.84-.192-1.242-.61-.399-.417-.399-1.058 0-.531.297-.93t.82-.621a3 3 0 0 1 1.2-.227q.972 0 1.531.422.558.419.738 1.121m4.098 4.657q-.887 0-1.528-.379a2.57 2.57 0 0 1-.984-1.074q-.344-.696-.344-1.629 0-.923.344-1.625.348-.704.969-1.098.624-.395 1.46-.395.509 0 .985.168.477.168.855.528.38.36.598.933.219.571.219 1.387v.414h-4.77v-.875h3.625q0-.46-.187-.816a1.4 1.4 0 0 0-.528-.567 1.47 1.47 0 0 0-.789-.207q-.492 0-.859.242-.364.239-.562.625-.195.384-.196.833v.683q0 .601.211 1.024.214.422.598.644.383.219.894.219.333 0 .606-.094.273-.097.472-.289a1.25 1.25 0 0 0 .305-.473l1.106.2q-.133.488-.477.855a2.3 2.3 0 0 1-.855.566q-.512.2-1.168.2m9.528 0q-.843 0-1.472-.387a2.6 2.6 0 0 1-.977-1.082q-.348-.696-.348-1.625 0-.933.348-1.633.347-.699.977-1.086.629-.387 1.472-.387.844 0 1.473.387a2.6 2.6 0 0 1 .976 1.086q.348.7.348 1.633 0 .93-.348 1.625a2.6 2.6 0 0 1-.976 1.082q-.629.387-1.473.387m.004-.981q.547 0 .906-.289.36-.29.532-.769.175-.482.175-1.059 0-.574-.175-1.055a1.7 1.7 0 0 0-.532-.777q-.358-.293-.906-.293-.55 0-.914.293-.36.293-.535.777a3.1 3.1 0 0 0-.172 1.055q0 .577.172 1.059.175.48.535.769.363.29.914.289m4.207.86v-6h1.129v.953h.062q.165-.484.578-.762.418-.282.946-.281.109 0 .257.008.153.007.239.019v1.117a2 2 0 0 0-.25-.043 2.4 2.4 0 0 0-.36-.027q-.414 0-.738.176a1.3 1.3 0 0 0-.695 1.176v3.664zm6.632 2.375q-.715 0-1.23-.188a2.4 2.4 0 0 1-.836-.496 2.1 2.1 0 0 1-.485-.676l1.004-.414q.106.172.282.363.179.196.484.332.309.137.793.137.665 0 1.098-.324.433-.321.433-1.023v-1.18h-.074q-.105.19-.305.426-.195.234-.539.406-.343.171-.894.172-.71 0-1.282-.332a2.36 2.36 0 0 1-.898-.989q-.328-.656-.328-1.613t.324-1.64q.328-.684.899-1.047.57-.368 1.292-.368.56 0 .903.188.343.184.535.43.195.246.301.433h.086v-.972h1.144v6.132q0 .774-.359 1.27-.36.496-.973.734a3.7 3.7 0 0 1-1.375.239m-.012-3.434q.504 0 .852-.234a1.46 1.46 0 0 0 .531-.68q.184-.445.184-1.066 0-.606-.18-1.067a1.6 1.6 0 0 0-.527-.719q-.348-.261-.86-.261-.527 0-.878.273-.352.27-.532.734-.175.465-.175 1.04 0 .59.179 1.035.18.445.531.695.356.25.875.25m6.142 1.191q-.57 0-1.032-.211a1.74 1.74 0 0 1-.73-.621q-.266-.405-.266-.996 0-.507.196-.836.195-.328.527-.519.332-.192.742-.289.41-.098.836-.149l.875-.101q.336-.043.488-.137.153-.093.153-.305v-.027q0-.511-.289-.793-.285-.28-.852-.281-.59 0-.93.261a1.4 1.4 0 0 0-.464.575l-1.098-.25q.195-.547.57-.883.38-.34.871-.492a3.4 3.4 0 0 1 1.036-.157q.359 0 .761.086.407.083.758.305.356.223.582.637.227.41.227 1.066v3.985h-1.141v-.821h-.047q-.113.227-.34.446a1.8 1.8 0 0 1-.582.363 2.3 2.3 0 0 1-.851.144m.254-.937q.484 0 .828-.191.347-.192.527-.501.184-.312.184-.667v-.774a.6.6 0 0 1-.242.117 4 4 0 0 1-.403.09q-.226.036-.441.067l-.36.046a3 3 0 0 0-.621.145 1.06 1.06 0 0 0-.445.293q-.164.188-.164.5 0 .434.32.656.32.219.817.219m5.54-2.758v3.563h-1.168v-6h1.121v.976h.075q.207-.477.648-.765.446-.29 1.121-.29.613 0 1.074.258.462.255.715.758.254.504.254 1.246v3.817h-1.168v-3.676q0-.652-.34-1.02-.339-.37-.933-.371-.406 0-.723.176a1.26 1.26 0 0 0-.496.516q-.18.335-.18.812m5.517 3.563v-6h1.168v6zm.589-6.926a.74.74 0 0 1-.523-.203.66.66 0 0 1-.215-.493q0-.288.215-.492a.73.73 0 0 1 .523-.207.72.72 0 0 1 .52.207q.219.204.219.492a.66.66 0 0 1-.219.493.73.73 0 0 1-.52.203m2.135 6.926v-.801l3.25-4.129v-.055h-3.145v-1.015h4.602v.851l-3.125 4.078v.055h3.234v1.016zm8.05.132q-.57 0-1.031-.211a1.73 1.73 0 0 1-.73-.621q-.266-.405-.266-.996 0-.507.195-.836t.528-.519q.331-.192.742-.289.41-.098.836-.149l.875-.101q.335-.043.488-.137.153-.093.152-.305v-.027q0-.511-.289-.793-.285-.28-.851-.281-.59 0-.93.261a1.4 1.4 0 0 0-.465.575l-1.098-.25q.196-.547.571-.883.379-.34.871-.492a3.4 3.4 0 0 1 1.035-.157q.36 0 .762.086.406.083.758.305.356.223.582.637.226.41.226 1.066v3.985h-1.14v-.821h-.047a1.7 1.7 0 0 1-.34.446 1.8 1.8 0 0 1-.582.363 2.3 2.3 0 0 1-.852.144m.254-.937q.484 0 .828-.191.348-.192.528-.501.183-.312.183-.667v-.774a.6.6 0 0 1-.242.117 4 4 0 0 1-.402.09q-.226.036-.442.067l-.359.046a3 3 0 0 0-.621.145 1.07 1.07 0 0 0-.446.293q-.164.188-.164.5 0 .434.321.656.32.219.816.219m7.174-5.195v.937h-3.278v-.937zm-2.399-1.438h1.168v5.676q0 .34.102.512a.53.53 0 0 0 .261.23q.165.059.356.059.141 0 .246-.02l.164-.031.211.965a2.361 2.361 0 0 1-.758.125 2.1 2.1 0 0 1-.859-.164 1.48 1.48 0 0 1-.645-.532q-.246-.359-.246-.902zm3.801 7.438v-6h1.168v6zm.589-6.926a.74.74 0 0 1-.523-.203.66.66 0 0 1-.215-.493q0-.288.215-.492a.73.73 0 0 1 .523-.207.72.72 0 0 1 .52.207q.219.204.219.492a.66.66 0 0 1-.219.493.73.73 0 0 1-.52.203m4.787 7.047q-.843 0-1.472-.387a2.6 2.6 0 0 1-.977-1.082q-.348-.696-.348-1.625 0-.933.348-1.633.347-.699.977-1.086.629-.387 1.472-.387.845 0 1.473.387a2.6 2.6 0 0 1 .976 1.086q.348.7.348 1.633 0 .93-.348 1.625a2.6 2.6 0 0 1-.976 1.082q-.629.387-1.473.387m.004-.981q.548 0 .906-.289.36-.29.532-.769.175-.482.175-1.059 0-.574-.175-1.055a1.7 1.7 0 0 0-.532-.777q-.358-.293-.906-.293-.55 0-.914.293-.36.293-.535.777a3.1 3.1 0 0 0-.172 1.055q0 .577.172 1.059.175.48.535.769.363.29.914.289m5.375-2.703v3.563h-1.168v-6h1.121v.976h.074q.207-.477.649-.765.444-.29 1.121-.29.613 0 1.074.258.46.255.715.758.254.504.254 1.246v3.817h-1.168v-3.676q0-.652-.34-1.02-.34-.37-.934-.371a1.46 1.46 0 0 0-.722.176 1.26 1.26 0 0 0-.497.516 1.7 1.7 0 0 0-.179.812"/><g stroke="#fff" stroke-linecap="round" stroke-linejoin="round" stroke-width=".553" opacity=".4"><path d="m399.008 339.871 1.982 1.982 1.981-1.982M399.008 337.493l1.982-1.981 1.981 1.981"/></g><rect width="359.5" height="29.5" x="53.996" y="323.934" stroke="#fff" stroke-opacity=".1" stroke-width=".5" rx="4.289"/></g><rect width="74" height="19" x="258.746" y="368.684" fill="#9a41cd" fill-opacity=".2" rx="2"/><path fill="#ededed" d="M283.152 380.459h1.207c1.09 0 2.005-.732 2.005-2.213 0-1.49-.898-2.239-1.989-2.239h-1.223zm1.232.725h-2.048v-5.902h2.064c1.498 0 2.805 1.024 2.805 2.964 0 1.93-1.323 2.938-2.821 2.938m4.367-2.414h2.189c-.017-.574-.391-1.024-1.099-1.024-.657 0-1.057.508-1.09 1.024m2.305 1.04.675.233c-.225.708-.866 1.265-1.798 1.265-1.074 0-2.014-.782-2.014-2.139 0-1.256.907-2.114 1.914-2.114 1.232 0 1.923.849 1.923 2.098 0 .1-.009.199-.017.249h-3.013c.017.716.533 1.216 1.207 1.216.649 0 .974-.358 1.123-.808m3.38-2.031c-.633 0-1.216.467-1.216 1.399 0 .915.575 1.406 1.224 1.406.749 0 1.024-.507 1.115-.824l.691.3c-.191.574-.766 1.248-1.806 1.248-1.165 0-2.023-.915-2.023-2.13 0-1.249.874-2.123 2.015-2.123 1.065 0 1.614.666 1.781 1.274l-.708.299c-.1-.391-.391-.849-1.073-.849m3.514 3.405h-.782v-6.026h.782zm2.105 0h-.774v-4.004h.774zm-.949-5.519a.562.562 0 1 1 1.125-.009.562.562 0 0 1-1.125.009m3.063 3.205v2.314h-.783v-4.004h.766v.574c.291-.499.766-.69 1.232-.69.957 0 1.431.69 1.431 1.581v2.539h-.782v-2.406c0-.557-.233-1.007-.932-1.007-.616 0-.932.491-.932 1.099m4.399-.1h2.189c-.017-.574-.392-1.024-1.099-1.024-.658 0-1.057.508-1.09 1.024m2.305 1.04.674.233c-.224.708-.865 1.265-1.797 1.265-1.074 0-2.015-.782-2.015-2.139 0-1.256.908-2.114 1.915-2.114 1.232 0 1.922.849 1.922 2.098 0 .1-.008.199-.016.249h-3.013c.016.716.532 1.216 1.207 1.216.649 0 .973-.358 1.123-.808"/><rect width="74.5" height="19.5" x="258.496" y="368.434" stroke="#a095cf" stroke-opacity=".2" stroke-width=".5" rx="2.25"/><rect width="77" height="19" x="336.746" y="368.684" fill="#8024b6" rx="2"/><path fill="#ededed" d="m361.956 381.184-.641-1.648h-2.613l-.624 1.648h-.874l2.347-5.902h.94l2.347 5.902zM360 376.131l-1.007 2.647h2.031zm6.017 4.57c-.217.416-.716.607-1.182.607-.932 0-1.498-.699-1.498-1.606v-2.522h.782v2.406c0 .549.25 1.032.907 1.032.633 0 .949-.417.949-1.024v-2.414h.783v3.263c0 .316.025.599.041.741h-.749a4 4 0 0 1-.033-.483m3.124-4.786v1.265h.866v.708h-.866v2.08c0 .367.15.55.558.55.1 0 .241-.017.308-.034v.666a1.7 1.7 0 0 1-.533.075c-.682 0-1.115-.416-1.115-1.14v-2.197h-.766v-.708h.217c.433 0 .616-.266.616-.616v-.649zm2.693 2.913v2.356h-.783v-6.026h.783v2.488c.291-.424.757-.582 1.215-.582.957 0 1.431.69 1.431 1.581v2.539h-.782v-2.406c0-.557-.233-1.007-.932-1.007-.599 0-.916.466-.932 1.057m5.606 1.781c.665 0 1.248-.499 1.248-1.431 0-.924-.583-1.424-1.248-1.424-.666 0-1.249.5-1.249 1.424 0 .932.583 1.431 1.249 1.431m0-3.554c1.198 0 2.047.908 2.047 2.123 0 1.223-.849 2.13-2.047 2.13s-2.048-.907-2.048-2.13c0-1.215.849-2.123 2.048-2.123m5.27.084v.832a2.4 2.4 0 0 0-.341-.025c-.657 0-1.099.349-1.099 1.232v2.006h-.782v-4.004h.766v.699c.291-.616.79-.765 1.198-.765.109 0 .217.016.258.025m1.608 4.045h-.774v-4.004h.774zm-.949-5.519a.562.562 0 1 1 1.125-.009.562.562 0 0 1-1.125.009m5.16 5.519h-3.213v-.683l2.198-2.613h-2.164v-.708h3.138v.683l-2.198 2.613h2.239zm1.505-2.414h2.189c-.016-.574-.391-1.024-1.098-1.024-.658 0-1.058.508-1.091 1.024m2.306 1.04.674.233c-.225.708-.866 1.265-1.798 1.265-1.074 0-2.014-.782-2.014-2.139 0-1.256.907-2.114 1.914-2.114 1.232 0 1.923.849 1.923 2.098 0 .1-.008.199-.017.249h-3.013c.017.716.533 1.216 1.207 1.216.649 0 .974-.358 1.124-.808"/><rect width="77.5" height="19.5" x="336.496" y="368.434" stroke="#fff" stroke-opacity=".1" stroke-width=".5" rx="2.25"/><rect width="391.746" height="294" x="37.5" y="133.184" stroke="url(#G)" stroke-opacity=".1" rx="12.5" shape-rendering="crispEdges"/></g><g filter="url(#H)" style="mix-blend-mode:overlay"><ellipse cx="516.882" cy="77.438" fill="#c57aff" rx="516.882" ry="77.438" transform="rotate(143.742 419.33 -13.125)scale(1 -1)"/></g></g><defs><linearGradient id="e" x1="387.252" x2="387.252" y1="-64.613" y2="412.188" gradientUnits="userSpaceOnUse"><stop stop-color="#6f13a4"/><stop offset="1" stop-color="#6f13a4" stop-opacity="0"/></linearGradient><linearGradient id="k" x1="385.402" x2="376.442" y1="26.406" y2="10.23" gradientUnits="userSpaceOnUse"><stop stop-color="#fff"/><stop offset="1" stop-color="#ededed" stop-opacity=".5"/></linearGradient><linearGradient id="l" x1="166.399" x2="191.489" y1="111.973" y2="106.54" gradientUnits="userSpaceOnUse"><stop stop-color="#ededed" stop-opacity=".5"/><stop offset="1" stop-color="#fff"/></linearGradient><linearGradient id="m" x1="166.399" x2="191.489" y1="111.973" y2="106.54" gradientUnits="userSpaceOnUse"><stop stop-color="#ededed" stop-opacity=".5"/><stop offset="1" stop-color="#fff"/></linearGradient><linearGradient id="n" x1="264.405" x2="288.302" y1="17.332" y2="37.671" gradientUnits="userSpaceOnUse"><stop stop-color="#ededed" stop-opacity=".2"/><stop offset="1" stop-color="#fff"/></linearGradient><linearGradient id="o" x1="264.405" x2="288.302" y1="17.332" y2="37.671" gradientUnits="userSpaceOnUse"><stop stop-color="#ededed" stop-opacity=".2"/><stop offset="1" stop-color="#fff"/></linearGradient><linearGradient id="p" x1="264.405" x2="288.302" y1="17.332" y2="37.671" gradientUnits="userSpaceOnUse"><stop stop-color="#ededed" stop-opacity=".2"/><stop offset="1" stop-color="#fff"/></linearGradient><linearGradient id="q" x1="264.405" x2="288.302" y1="17.332" y2="37.671" gradientUnits="userSpaceOnUse"><stop stop-color="#ededed" stop-opacity=".2"/><stop offset="1" stop-color="#fff"/></linearGradient><linearGradient id="r" x1="264.405" x2="288.302" y1="17.332" y2="37.671" gradientUnits="userSpaceOnUse"><stop stop-color="#ededed" stop-opacity=".2"/><stop offset="1" stop-color="#fff"/></linearGradient><linearGradient id="s" x1="376.973" x2="359.823" y1="125.821" y2="110.624" gradientUnits="userSpaceOnUse"><stop stop-color="#ededed" stop-opacity=".5"/><stop offset="1" stop-color="#fff"/></linearGradient><linearGradient id="t" x1="463.982" x2="452.159" y1="126.636" y2="107.096" gradientUnits="userSpaceOnUse"><stop stop-color="#ededed" stop-opacity=".5"/><stop offset="1" stop-color="#fff"/></linearGradient><linearGradient id="u" x1="463.982" x2="452.159" y1="126.636" y2="107.096" gradientUnits="userSpaceOnUse"><stop stop-color="#ededed" stop-opacity=".5"/><stop offset="1" stop-color="#fff"/></linearGradient><linearGradient id="v" x1="463.982" x2="452.159" y1="126.636" y2="107.096" gradientUnits="userSpaceOnUse"><stop stop-color="#ededed" stop-opacity=".5"/><stop offset="1" stop-color="#fff"/></linearGradient><linearGradient id="w" x1="463.982" x2="452.159" y1="126.636" y2="107.096" gradientUnits="userSpaceOnUse"><stop stop-color="#ededed" stop-opacity=".5"/><stop offset="1" stop-color="#fff"/></linearGradient><linearGradient id="B" x1="263.584" x2="283.944" y1="113.013" y2="110.674" gradientUnits="userSpaceOnUse"><stop stop-color="#ededed" stop-opacity=".5"/><stop offset="1" stop-color="#fff"/></linearGradient><linearGradient id="G" x1="323.298" x2="208.038" y1="132.684" y2="417.429" gradientUnits="userSpaceOnUse"><stop stop-color="#fff"/><stop offset="1" stop-color="#343232" stop-opacity="0"/></linearGradient><filter id="b" width="946.73" height="534.082" x="-147.512" y="-102.422" color-interpolation-filters="sRGB" filterUnits="userSpaceOnUse"><feFlood flood-opacity="0" result="BackgroundImageFix"/><feBlend in="SourceGraphic" in2="BackgroundImageFix" result="shape"/><feGaussianBlur result="effect1_foregroundBlur_3052_33249" stdDeviation="41.5"/></filter><filter id="c" width="408.285" height="213.301" x="53.318" y="86.416" color-interpolation-filters="sRGB" filterUnits="userSpaceOnUse"><feFlood flood-opacity="0" result="BackgroundImageFix"/><feBlend in="SourceGraphic" in2="BackgroundImageFix" result="shape"/><feGaussianBlur result="effect1_foregroundBlur_3052_33249" stdDeviation="26.165"/></filter><filter id="d" width="1686.23" height="1358.72" x="-455.864" y="-505.571" color-interpolation-filters="sRGB" filterUnits="userSpaceOnUse"><feFlood flood-opacity="0" result="BackgroundImageFix"/><feBlend in="SourceGraphic" in2="BackgroundImageFix" result="shape"/><feGaussianBlur result="effect1_foregroundBlur_3052_33249" stdDeviation="220.479"/></filter><filter id="g" width="6.008" height="6.008" x="339.363" y="351.023" color-interpolation-filters="sRGB" filterUnits="userSpaceOnUse"><feFlood flood-opacity="0" result="BackgroundImageFix"/><feColorMatrix in="SourceAlpha" result="hardAlpha" values="0 0 0 0 0 0 0 0 0 0 0 0 0 0 0 0 0 0 127 0"/><feOffset/><feGaussianBlur stdDeviation="1"/><feComposite in2="hardAlpha" operator="out"/><feColorMatrix values="0 0 0 0 1 0 0 0 0 1 0 0 0 0 1 0 0 0 0.52 0"/><feBlend in2="BackgroundImageFix" result="effect1_dropShadow_3052_33249"/><feBlend in="SourceGraphic" in2="effect1_dropShadow_3052_33249" result="shape"/></filter><filter id="h" width="6.008" height="6.012" x="389.613" y="269.52" color-interpolation-filters="sRGB" filterUnits="userSpaceOnUse"><feFlood flood-opacity="0" result="BackgroundImageFix"/><feColorMatrix in="SourceAlpha" result="hardAlpha" values="0 0 0 0 0 0 0 0 0 0 0 0 0 0 0 0 0 0 127 0"/><feOffset/><feGaussianBlur stdDeviation="1"/><feComposite in2="hardAlpha" operator="out"/><feColorMatrix values="0 0 0 0 1 0 0 0 0 1 0 0 0 0 1 0 0 0 0.52 0"/><feBlend in2="BackgroundImageFix" result="effect1_dropShadow_3052_33249"/><feBlend in="SourceGraphic" in2="effect1_dropShadow_3052_33249" result="shape"/></filter><filter id="i" width="6.008" height="6.012" x="345.758" y="278.766" color-interpolation-filters="sRGB" filterUnits="userSpaceOnUse"><feFlood flood-opacity="0" result="BackgroundImageFix"/><feColorMatrix in="SourceAlpha" result="hardAlpha" values="0 0 0 0 0 0 0 0 0 0 0 0 0 0 0 0 0 0 127 0"/><feOffset/><feGaussianBlur stdDeviation="1"/><feComposite in2="hardAlpha" operator="out"/><feColorMatrix values="0 0 0 0 1 0 0 0 0 1 0 0 0 0 1 0 0 0 0.52 0"/><feBlend in2="BackgroundImageFix" result="effect1_dropShadow_3052_33249"/><feBlend in="SourceGraphic" in2="effect1_dropShadow_3052_33249" result="shape"/></filter><filter id="j" width="6.008" height="6.012" x="261.77" y="103.352" color-interpolation-filters="sRGB" filterUnits="userSpaceOnUse"><feFlood flood-opacity="0" result="BackgroundImageFix"/><feColorMatrix in="SourceAlpha" result="hardAlpha" values="0 0 0 0 0 0 0 0 0 0 0 0 0 0 0 0 0 0 127 0"/><feOffset/><feGaussianBlur stdDeviation="1"/><feComposite in2="hardAlpha" operator="out"/><feColorMatrix values="0 0 0 0 1 0 0 0 0 1 0 0 0 0 1 0 0 0 0.52 0"/><feBlend in2="BackgroundImageFix" result="effect1_dropShadow_3052_33249"/><feBlend in="SourceGraphic" in2="effect1_dropShadow_3052_33249" result="shape"/></filter><filter id="x" width="6.086" height="6.086" x="199.822" y="94.842" color-interpolation-filters="sRGB" filterUnits="userSpaceOnUse"><feFlood flood-opacity="0" result="BackgroundImageFix"/><feColorMatrix in="SourceAlpha" result="hardAlpha" values="0 0 0 0 0 0 0 0 0 0 0 0 0 0 0 0 0 0 127 0"/><feOffset/><feGaussianBlur stdDeviation=".864"/><feComposite in2="hardAlpha" operator="out"/><feColorMatrix values="0 0 0 0 1 0 0 0 0 1 0 0 0 0 1 0 0 0 0.52 0"/><feBlend in2="BackgroundImageFix" result="effect1_dropShadow_3052_33249"/><feBlend in="SourceGraphic" in2="effect1_dropShadow_3052_33249" result="shape"/></filter><filter id="y" width="6.086" height="6.086" x="217.299" y="75.049" color-interpolation-filters="sRGB" filterUnits="userSpaceOnUse"><feFlood flood-opacity="0" result="BackgroundImageFix"/><feColorMatrix in="SourceAlpha" result="hardAlpha" values="0 0 0 0 0 0 0 0 0 0 0 0 0 0 0 0 0 0 127 0"/><feOffset/><feGaussianBlur stdDeviation=".864"/><feComposite in2="hardAlpha" operator="out"/><feColorMatrix values="0 0 0 0 1 0 0 0 0 1 0 0 0 0 1 0 0 0 0.52 0"/><feBlend in2="BackgroundImageFix" result="effect1_dropShadow_3052_33249"/><feBlend in="SourceGraphic" in2="effect1_dropShadow_3052_33249" result="shape"/></filter><filter id="z" width="5.226" height="5.23" x="206.905" y="63.076" color-interpolation-filters="sRGB" filterUnits="userSpaceOnUse"><feFlood flood-opacity="0" result="BackgroundImageFix"/><feColorMatrix in="SourceAlpha" result="hardAlpha" values="0 0 0 0 0 0 0 0 0 0 0 0 0 0 0 0 0 0 127 0"/><feOffset/><feGaussianBlur stdDeviation=".864"/><feComposite in2="hardAlpha" operator="out"/><feColorMatrix values="0 0 0 0 1 0 0 0 0 1 0 0 0 0 1 0 0 0 0.52 0"/><feBlend in2="BackgroundImageFix" result="effect1_dropShadow_3052_33249"/><feBlend in="SourceGraphic" in2="effect1_dropShadow_3052_33249" result="shape"/></filter><filter id="C" width="428.746" height="331" x="19" y="114.684" color-interpolation-filters="sRGB" filterUnits="userSpaceOnUse"><feFlood flood-opacity="0" result="BackgroundImageFix"/><feColorMatrix in="SourceAlpha" result="hardAlpha" values="0 0 0 0 0 0 0 0 0 0 0 0 0 0 0 0 0 0 127 0"/><feOffset/><feGaussianBlur stdDeviation="9"/><feComposite in2="hardAlpha" operator="out"/><feColorMatrix values="0 0 0 0 0.0329625 0 0 0 0 0.0196875 0 0 0 0 0.075 0 0 0 0.39 0"/><feBlend in2="BackgroundImageFix" result="effect1_dropShadow_3052_33249"/><feBlend in="SourceGraphic" in2="effect1_dropShadow_3052_33249" result="shape"/></filter><filter id="D" width="374.364" height="14.118" x="46.191" y="173.625" color-interpolation-filters="sRGB" filterUnits="userSpaceOnUse"><feFlood flood-opacity="0" result="BackgroundImageFix"/><feGaussianBlur in="BackgroundImageFix" stdDeviation="3.404"/><feComposite in2="SourceAlpha" operator="in" result="effect1_backgroundBlur_3052_33249"/><feBlend in="SourceGraphic" in2="effect1_backgroundBlur_3052_33249" result="shape"/></filter><filter id="E" width="374.364" height="14.118" x="46.191" y="275.625" color-interpolation-filters="sRGB" filterUnits="userSpaceOnUse"><feFlood flood-opacity="0" result="BackgroundImageFix"/><feGaussianBlur in="BackgroundImageFix" stdDeviation="3.404"/><feComposite in2="SourceAlpha" operator="in" result="effect1_backgroundBlur_3052_33249"/><feBlend in="SourceGraphic" in2="effect1_backgroundBlur_3052_33249" result="shape"/></filter><filter id="F" width="373.618" height="43.618" x="46.937" y="316.875" color-interpolation-filters="sRGB" filterUnits="userSpaceOnUse"><feFlood flood-opacity="0" result="BackgroundImageFix"/><feGaussianBlur in="BackgroundImageFix" stdDeviation="3.404"/><feComposite in2="SourceAlpha" operator="in" result="effect1_backgroundBlur_3052_33249"/><feBlend in="SourceGraphic" in2="effect1_backgroundBlur_3052_33249" result="shape"/></filter><filter id="H" width="942.676" height="728.141" x="-92.633" y="-267.641" color-interpolation-filters="sRGB" filterUnits="userSpaceOnUse"><feFlood flood-opacity="0" result="BackgroundImageFix"/><feBlend in="SourceGraphic" in2="BackgroundImageFix" result="shape"/><feGaussianBlur result="effect1_foregroundBlur_3052_33249" stdDeviation="26"/></filter><radialGradient id="f" cx="0" cy="0" r="1" gradientTransform="matrix(0 279.002 -379.016 0 236.016 187.047)" gradientUnits="userSpaceOnUse"><stop stop-color="#fff"/><stop offset="1" stop-color="#a095cf" stop-opacity="0"/></radialGradient><radialGradient id="A" cx="0" cy="0" r="1" gradientTransform="rotate(48.782 47.195 402.211)scale(129.877 376.668)" gradientUnits="userSpaceOnUse"><stop stop-color="#bbb0eb"/><stop offset="1" stop-color="#a095cf" stop-opacity="0"/></radialGradient><clipPath id="a"><path fill="#fff" d="M0 0h467v398H0z"/></clipPath></defs></svg>