<svg xmlns="http://www.w3.org/2000/svg" width="764" height="220" fill="none" viewBox="0 0 764 220"><g clip-path="url(#a)"><path fill="#171717" d="M0 .58h764v219H0z"/><mask id="c" width="112" height="163" x="554" y="31" maskUnits="userSpaceOnUse" style="mask-type:alpha"><path fill="url(#b)" d="M554.256 31.363h111.631v162.505H554.256z"/></mask><g mask="url(#c)"><path stroke="#b4b4b4" stroke-width=".5" d="M555.296 86.347h25.346c2.648 0 5.253-.996 7.576-2.896l48.063-39.314c2.324-1.9 4.929-2.897 7.576-2.897m-88.561 51.524h25.346c2.648 0 5.253-.747 7.576-2.173l48.063-29.485c2.324-1.425 4.929-2.172 7.576-2.172h25.222M555.296 99.792h25.346c2.648 0 5.253-.498 7.576-1.449l48.063-19.657c2.324-.95 4.929-1.448 7.576-1.448h14.175M555.296 106.51h25.346c2.648 0 5.253-.249 7.576-.724l48.063-9.828c2.324-.476 4.929-.725 7.576-.725h9.45m-98.011 16.937H667.41m-112.114 5.962h25.346c2.648 0 5.253.249 7.576.724l48.063 9.828c2.324.476 4.929.725 7.576.725h9.45m-98.011-4.86h25.346c2.648 0 5.253.498 7.576 1.448l48.063 19.657c2.324.95 4.929 1.448 7.576 1.448h14.175m-102.736-15.224h25.346c2.648 0 5.253.747 7.576 2.172l48.063 29.485c2.324 1.426 4.929 2.173 7.576 2.173h25.222m-113.783-27.413h25.346c2.648 0 5.253.996 7.576 2.896l48.063 39.314c2.324 1.901 4.929 2.897 7.576 2.897"/></g><mask id="e" width="113" height="149" x="560" y="38" maskUnits="userSpaceOnUse" style="mask-type:alpha"><path fill="url(#d)" d="M560.58 38.512h111.631v148.207H560.58z"/></mask><g mask="url(#e)"><path stroke="#b4b4b4" stroke-width=".5" d="M561.619 89.73h25.346c2.647 0 5.252-.91 7.576-2.643l24.031-17.927m-56.953 31.76h25.346c2.647 0 5.252-.454 7.576-1.32l12.016-4.483 6.008-2.24m-50.946 19.333h50.946m-50.946 11.289h25.346c2.647 0 5.252.454 7.576 1.321l12.016 4.482m-44.938 6.277h25.346c2.647 0 5.252.908 7.576 2.642l24.031 17.927"/></g><rect width="45.2" height="45.2" x="666.287" y="33.015" fill="#1f1f1f" rx="7.6"/><rect width="45.2" height="45.2" x="666.287" y="33.015" stroke="#2e2e2e" stroke-width=".8" rx="7.6"/><path fill="#b4b4b4" d="m697.55 61.382-2.285-1.507-1.907 3.184-2.216-.648-1.952 2.98.1.937 10.612-1.955-.616-6.63zm-9.897-2.857 1.703-.235c.275.123.468.17.798.255.515.134 1.11.263 1.992-.182.204-.101.633-.493.805-.715l6.975-1.266.712 8.613-11.951 2.154zm12.958-3.104-.689.131-1.322-13.667-22.539 2.613 2.777 22.535 2.638-.384c-.21-.3-.54-.665-1.099-1.131-.778-.645-.503-1.742-.043-2.435.605-1.169 3.731-2.656 3.553-4.526-.064-.68-.172-1.565-.803-2.172-.023.252.019.495.019.495s-.259-.33-.389-.782c-.129-.173-.229-.228-.366-.46-.097.268-.084.578-.084.578s-.211-.501-.246-.924c-.126.19-.158.549-.158.549s-.275-.79-.212-1.216c-.126-.37-.499-1.104-.393-2.773.688.483 2.203.367 2.792-.502.196-.289.331-1.075-.098-2.623-.275-.993-.955-2.473-1.22-3.035l-.031.023c.139.452.428 1.4.539 1.86.334 1.394.424 1.88.267 2.521-.134.559-.454.924-1.267 1.334s-1.891-.588-1.96-.643c-.79-.628-1.401-1.655-1.469-2.154-.07-.546.314-.874.509-1.32-.277.08-.588.221-.588.221s.37-.383.827-.713a5 5 0 0 0 .498-.37c-.288-.004-.522.002-.522.002s.48-.26.979-.448c-.364-.016-.714-.003-.714-.003s1.073-.48 1.92-.832c.582-.238 1.151-.168 1.471.294.42.606.86.935 1.795 1.14.575-.255.748-.385 1.469-.581.634-.698 1.132-.789 1.132-.789s-.246.226-.313.583c.361-.284.755-.52.755-.52s-.153.188-.295.487l.032.049c.42-.252.913-.45.913-.45s-.141.179-.306.41c.317-.004.959.013 1.207.041 1.472.033 1.776-1.571 2.341-1.772.707-.252 1.023-.405 2.228.778 1.033 1.016 1.841 2.833 1.44 3.24-.336.338-1-.131-1.734-1.048a3.96 3.96 0 0 1-.82-1.787c-.117-.615-.568-.971-.568-.971s.262.583.262 1.098c0 .282.035 1.333.486 1.923-.045.086-.065.426-.115.491-.524-.634-1.652-1.087-1.834-1.222.621.51 2.051 1.68 2.599 2.802.519 1.06.213 2.034.476 2.286.074.071 1.116 1.37 1.317 2.022.349 1.137.02 2.332-.436 3.073l-1.278.2c-.187-.052-.313-.08-.481-.176.092-.164.276-.571.278-.655l-.072-.126c-.398.563-1.064 1.11-1.618 1.425-.724.41-1.559.347-2.102.179-1.543-.476-3.002-1.519-3.353-1.793 0 0-.011.218.055.269.389.438 1.28 1.232 2.142 1.785l-1.836.202.869 6.76c-.385.055-.445.082-.866.141-.371-1.311-1.081-2.169-1.857-2.667-.684-.44-1.629-.54-2.534-.36l-.058.067a3.26 3.26 0 0 1 2.132.508c.748.473 1.351 1.695 1.573 2.43.285.94.481 1.946-.284 3.012-.545.758-2.133 1.176-3.417.271.343.552.806 1.003 1.429 1.087.927.126 1.806-.035 2.41-.656.517-.531.792-1.642.719-2.811l.816-.118.296 2.099 13.531-1.63zm-8.233-5.701c-.038.086-.098.142-.009.422l.006.017.013.036.037.084c.161.328.337.638.631.797q.115-.019.237-.026c.277-.012.452.031.563.092.009-.055.012-.135.005-.255-.022-.415.083-1.123-.717-1.495-.302-.14-.724-.098-.865.078a.3.3 0 0 1 .066.015c.215.074.072.147.033.235m2.24 3.881c-.104-.058-.594-.035-.938.006-.656.077-1.365.304-1.521.425-.281.218-.154.599.055.755.585.436 1.097.73 1.638.658.332-.043.624-.569.831-1.047.144-.328.144-.682-.065-.797m-5.808-3.367c.186-.176-.921-.406-1.78.18-.632.431-.653 1.358-.047 1.883q.09.075.157.119a5.379 5.379 0 0 1 1.597-.47c.129-.144.278-.396.24-.853-.05-.621-.52-.523-.167-.859"/><rect width="45.2" height="45.2" x="666.287" y="89.015" fill="#1f1f1f" rx="7.6"/><rect width="45.2" height="45.2" x="666.287" y="89.015" stroke="#2e2e2e" stroke-width=".8" rx="7.6"/><path fill="#b4b4b4" d="M682.03 110.044c0 .387.042.701.115.931.084.229.188.48.335.752a.46.46 0 0 1 .073.24c0 .105-.063.209-.199.314l-.658.439a.5.5 0 0 1-.272.094c-.104 0-.209-.052-.313-.146a3.2 3.2 0 0 1-.377-.492 8 8 0 0 1-.324-.616q-1.222 1.442-3.072 1.442c-.878 0-1.578-.251-2.091-.752-.512-.502-.773-1.171-.773-2.007 0-.888.314-1.61.951-2.153.638-.543 1.484-.815 2.561-.815.355 0 .721.031 1.108.083.386.053.783.136 1.201.23v-.763c0-.794-.167-1.348-.491-1.672-.334-.324-.899-.481-1.703-.481-.366 0-.742.042-1.129.136a8 8 0 0 0-1.129.356 3 3 0 0 1-.366.136.7.7 0 0 1-.167.031c-.146 0-.219-.105-.219-.324v-.512c0-.167.021-.293.073-.366a.8.8 0 0 1 .293-.219 6 6 0 0 1 1.316-.471 6.3 6.3 0 0 1 1.631-.198c1.243 0 2.153.282 2.738.846.575.565.867 1.422.867 2.571v3.386zm-4.243 1.589c.345 0 .7-.063 1.077-.188.376-.126.71-.356.992-.669.168-.199.293-.418.356-.669a3.7 3.7 0 0 0 .104-.909v-.439a9 9 0 0 0-.961-.178 8 8 0 0 0-.983-.063c-.7 0-1.212.136-1.557.419-.345.282-.512.679-.512 1.201 0 .492.125.857.387 1.108.251.262.616.387 1.097.387m8.392 1.129c-.188 0-.313-.032-.397-.105-.083-.063-.156-.209-.219-.407l-2.456-8.079c-.063-.209-.094-.345-.094-.418 0-.167.083-.262.251-.262h1.024c.198 0 .334.032.407.105.084.063.147.209.209.408l1.756 6.918 1.631-6.918c.052-.209.115-.345.198-.408.084-.063.23-.105.418-.105h.836c.199 0 .335.032.418.105.084.063.157.209.199.408l1.651 7.002 1.808-7.002c.063-.209.136-.345.209-.408.084-.063.22-.105.408-.105h.972c.167 0 .261.084.261.262 0 .052-.01.104-.021.167-.01.063-.031.146-.073.261l-2.519 8.079q-.094.314-.219.408a.68.68 0 0 1-.397.104h-.899c-.199 0-.335-.031-.418-.104-.084-.074-.157-.209-.199-.418l-1.62-6.741-1.609 6.73c-.052.209-.115.345-.199.418-.083.073-.23.105-.418.105zm13.43.282a7 7 0 0 1-1.609-.188c-.523-.126-.93-.262-1.202-.418-.167-.094-.282-.199-.324-.293a.7.7 0 0 1-.063-.293v-.533c0-.219.084-.324.241-.324q.093 0 .188.032c.062.021.156.062.261.104.355.157.742.282 1.15.366a6.2 6.2 0 0 0 1.243.125c.659 0 1.171-.114 1.526-.344s.544-.565.544-.993c0-.293-.094-.533-.283-.732s-.543-.376-1.055-.543l-1.516-.471c-.763-.24-1.327-.595-1.672-1.066a2.5 2.5 0 0 1-.522-1.515q0-.659.282-1.16c.188-.335.439-.627.752-.857a3.3 3.3 0 0 1 1.087-.544 4.6 4.6 0 0 1 1.317-.177c.23 0 .47.01.7.042.241.031.46.073.68.114.209.053.407.105.595.168q.283.093.439.188a.9.9 0 0 1 .314.261.56.56 0 0 1 .094.345v.491c0 .22-.084.335-.24.335-.084 0-.22-.042-.398-.126q-.893-.407-2.006-.407c-.596 0-1.066.094-1.39.292-.324.199-.491.502-.491.93 0 .293.104.544.313.742.209.199.596.398 1.15.575l1.484.471c.752.24 1.296.574 1.62 1.003s.48.92.48 1.463c0 .449-.094.857-.271 1.212a2.8 2.8 0 0 1-.763.92c-.324.261-.711.45-1.16.585-.471.147-.962.22-1.495.22"/><path fill="#b4b4b4" fill-rule="evenodd" d="M701.584 118.123c-3.438 2.54-8.434 3.888-12.729 3.888-6.02 0-11.444-2.226-15.541-5.926-.324-.292-.031-.69.355-.46 4.432 2.571 9.898 4.129 15.552 4.129 3.814 0 8.005-.795 11.862-2.425.575-.261 1.066.376.501.794" clip-rule="evenodd"/><path fill="#b4b4b4" fill-rule="evenodd" d="M703.016 116.493c-.439-.565-2.905-.272-4.023-.136-.335.042-.387-.251-.084-.47 1.965-1.38 5.194-.983 5.57-.523.377.47-.104 3.7-1.943 5.247-.283.24-.554.114-.429-.199.418-1.035 1.348-3.365.909-3.919" clip-rule="evenodd"/><rect width="45.2" height="45.2" x="666.287" y="145.015" fill="#1f1f1f" rx="7.6"/><rect width="45.2" height="45.2" x="666.287" y="145.015" stroke="#2e2e2e" stroke-width=".8" rx="7.6"/><path fill="#b4b4b4" fill-rule="evenodd" d="M704.024 168.345a5.96 5.96 0 0 0-3.941-5.618 8.7 8.7 0 0 0 .154-1.625c0-4.721-3.839-8.56-8.548-8.56a8.54 8.54 0 0 0-6.936 3.544 4.544 4.544 0 0 0-7.319 3.596c0 .55.103 1.088.282 1.587a6.01 6.01 0 0 0-3.967 5.63 5.97 5.97 0 0 0 3.954 5.63 8.6 8.6 0 0 0-.154 1.625c0 4.709 3.826 8.535 8.535 8.535a8.51 8.51 0 0 0 6.923-3.557 4.47 4.47 0 0 0 2.777.972 4.543 4.543 0 0 0 4.542-4.542c0-.551-.102-1.088-.281-1.587 2.354-.845 3.979-3.11 3.979-5.63m-18.375-2.815 6.628 3.019 6.68-5.86c.102-.486.14-.96.14-1.472 0-4.12-3.352-7.473-7.472-7.473a7.45 7.45 0 0 0-6.155 3.251l-1.113 5.771zm-6.999 8.509c0-.512.039-1.011.141-1.497l6.526-5.886 6.654 3.032 1.471 2.815-1.1 5.746a7.5 7.5 0 0 1-6.194 3.275c-4.133 0-7.498-3.352-7.498-7.485m.102-12.962 4.543 1.074.998-5.156a3.56 3.56 0 0 0-2.176-.73 3.585 3.585 0 0 0-3.365 4.812m-3.838 5.834c0-2.136 1.42-4.081 3.442-4.747l4.99 1.177 1.165 2.496-6.373 5.758a5.02 5.02 0 0 1-3.224-4.684m18.579 11.338a3.6 3.6 0 0 0 2.163.742c1.971 0 3.583-1.6 3.583-3.583a3.6 3.6 0 0 0-.218-1.241l-4.529-1.062zm5.912-5.17-4.991-1.164-1.318-2.547 6.526-5.72a5.01 5.01 0 0 1 3.225 4.671c0 2.15-1.408 4.095-3.442 4.76" clip-rule="evenodd"/><mask id="g" width="286" height="242" x="286" y="-11" maskUnits="userSpaceOnUse" style="mask-type:alpha"><path fill="url(#f)" d="M286.458-10.113h285.2v240.58h-285.2z"/></mask><g mask="url(#g)"><path fill="url(#h)" d="M0 0h270.067v276H0z" transform="translate(294.024 -25.384)"/><path fill="#171717" d="M294.024-2.385h270.067v23H294.024z"/><path stroke="#2e2e2e" stroke-width=".5" d="M294.024-2.385h270.067v23H294.024z"/><rect width="28.982" height="6.958" x="302.024" y="5.636" fill="#212121" rx="3.479"/><rect width="30" height="13" x="335.006" y="2.615" fill="#212121" rx="4"/><path fill="#393939" d="M346.462 12.616h-4.82v-1.07l2.28-1.99q.54-.48.83-.91.3-.43.3-.91v-.11q0-.55-.3-.84-.3-.3-.87-.3-.579 0-.9.31-.309.31-.45.79l-.98-.37a2.6 2.6 0 0 1 .29-.63q.19-.31.48-.55.3-.24.7-.38.41-.14.94-.14.54 0 .96.16.43.15.72.42t.44.65q.15.37.15.82 0 .42-.13.78-.12.35-.35.68-.22.32-.53.62t-.68.6l-1.69 1.42h3.61zm3.546.12q-.66 0-1.15-.24a2.2 2.2 0 0 1-.8-.71 3.3 3.3 0 0 1-.46-1.13 7 7 0 0 1-.15-1.53q0-.85.15-1.52.15-.681.46-1.14.32-.46.8-.7.49-.25 1.15-.25t1.14.25q.49.24.8.7.32.459.47 1.14.15.67.15 1.52a7 7 0 0 1-.15 1.53q-.15.67-.47 1.13a2.1 2.1 0 0 1-.8.71q-.48.24-1.14.24m0-.92q.76 0 1.08-.56.33-.57.33-1.53v-1.2q0-.96-.33-1.52-.32-.57-1.08-.57-.38 0-.65.15-.27.14-.44.42-.17.27-.25.66-.07.38-.07.86v1.2q0 .48.07.87.08.38.25.66.17.27.44.42.27.14.65.14m0-2.1q-.35 0-.49-.14a.48.48 0 0 1-.13-.34v-.22q0-.2.13-.34.14-.14.49-.14.351 0 .48.14a.46.46 0 0 1 .14.34v.22a.46.46 0 0 1-.14.34q-.129.14-.48.14m5.996 3.02q-.66 0-1.15-.24a2.2 2.2 0 0 1-.8-.71 3.3 3.3 0 0 1-.46-1.13 7 7 0 0 1-.15-1.53q0-.85.15-1.52.15-.681.46-1.14.32-.46.8-.7.49-.25 1.15-.25t1.14.25q.49.24.8.7.32.459.47 1.14.15.67.15 1.52a7 7 0 0 1-.15 1.53q-.15.67-.47 1.13a2.1 2.1 0 0 1-.8.71q-.48.24-1.14.24m0-.92q.76 0 1.08-.56.33-.57.33-1.53v-1.2q0-.96-.33-1.52-.32-.57-1.08-.57-.38 0-.65.15-.27.14-.44.42-.17.27-.25.66-.07.38-.07.86v1.2q0 .48.07.87.08.38.25.66.17.27.44.42.27.14.65.14m0-2.1q-.35 0-.49-.14a.48.48 0 0 1-.13-.34v-.22q0-.2.13-.34.14-.14.49-.14.351 0 .48.14a.46.46 0 0 1 .14.34v.22a.46.46 0 0 1-.14.34q-.129.14-.48.14"/><rect width="15.437" height="6.958" x="369.006" y="5.636" fill="#212121" rx="3.479"/><rect width="96.968" height="6.958" x="388.443" y="5.636" fill="#212121" rx="3.479"/><rect width="38.68" height="6.958" x="517.411" y="5.636" fill="#212121" rx="3.479"/><path fill="#171717" d="M294.024 20.616h270.067v23H294.024z"/><path stroke="#2e2e2e" stroke-width=".5" d="M294.024 20.616h270.067v23H294.024z"/><rect width="28.982" height="6.958" x="302.024" y="28.637" fill="#212121" rx="3.479"/><rect width="30" height="13" x="335.006" y="25.616" fill="#212121" rx="4"/><path fill="#393939" d="M346.462 35.616h-4.82v-1.07l2.28-1.99q.54-.48.83-.91.3-.43.3-.91v-.11q0-.55-.3-.84-.3-.3-.87-.3-.579 0-.9.31-.309.31-.45.79l-.98-.37a2.6 2.6 0 0 1 .29-.63q.19-.31.48-.55.3-.24.7-.38.41-.14.94-.14.54 0 .96.16.43.15.72.42t.44.65q.15.37.15.82 0 .42-.13.78-.12.35-.35.68-.22.32-.53.62t-.68.6l-1.69 1.42h3.61zm3.546.12q-.66 0-1.15-.24a2.2 2.2 0 0 1-.8-.71 3.3 3.3 0 0 1-.46-1.13 7 7 0 0 1-.15-1.53q0-.85.15-1.52.15-.681.46-1.14.32-.46.8-.7.49-.25 1.15-.25t1.14.25q.49.24.8.7.32.459.47 1.14.15.67.15 1.52a7 7 0 0 1-.15 1.53q-.15.67-.47 1.13a2.1 2.1 0 0 1-.8.71q-.48.24-1.14.24m0-.92q.76 0 1.08-.56.33-.57.33-1.53v-1.2q0-.96-.33-1.52-.32-.57-1.08-.57-.38 0-.65.15a1.1 1.1 0 0 0-.44.42q-.17.27-.25.66-.07.38-.07.86v1.2q0 .48.07.87.08.38.25.66.17.27.44.42.27.14.65.14m0-2.1q-.35 0-.49-.14a.49.49 0 0 1-.13-.34v-.22q0-.2.13-.34.14-.14.49-.14.351 0 .48.14a.46.46 0 0 1 .14.34v.22a.46.46 0 0 1-.14.34q-.129.14-.48.14m5.996 3.02q-.66 0-1.15-.24a2.2 2.2 0 0 1-.8-.71 3.3 3.3 0 0 1-.46-1.13 7 7 0 0 1-.15-1.53q0-.85.15-1.52.15-.681.46-1.14.32-.46.8-.7.49-.25 1.15-.25t1.14.25q.49.24.8.7.32.459.47 1.14.15.67.15 1.52a7 7 0 0 1-.15 1.53q-.15.67-.47 1.13a2.1 2.1 0 0 1-.8.71q-.48.24-1.14.24m0-.92q.76 0 1.08-.56.33-.57.33-1.53v-1.2q0-.96-.33-1.52-.32-.57-1.08-.57-.38 0-.65.15a1.1 1.1 0 0 0-.44.42q-.17.27-.25.66-.07.38-.07.86v1.2q0 .48.07.87.08.38.25.66.17.27.44.42.27.14.65.14m0-2.1q-.35 0-.49-.14a.49.49 0 0 1-.13-.34v-.22q0-.2.13-.34.14-.14.49-.14.351 0 .48.14a.46.46 0 0 1 .14.34v.22a.46.46 0 0 1-.14.34q-.129.14-.48.14"/><rect width="15.437" height="6.958" x="369.006" y="28.637" fill="#212121" rx="3.479"/><rect width="96.968" height="6.958" x="388.443" y="28.637" fill="#212121" rx="3.479"/><rect width="38.68" height="6.958" x="517.411" y="28.637" fill="#212121" rx="3.479"/><path fill="#171717" d="M294.024 43.615h270.067v23H294.024z"/><path stroke="#2e2e2e" stroke-width=".5" d="M294.024 43.615h270.067v23H294.024z"/><rect width="28.982" height="6.958" x="302.024" y="51.636" fill="#212121" rx="3.479"/><rect width="30" height="13" x="335.006" y="48.615" fill="#212121" rx="4"/><path fill="#393939" d="M346.462 58.616h-4.82v-1.07l2.28-1.99q.54-.48.83-.91.3-.43.3-.91v-.11q0-.55-.3-.84-.3-.3-.87-.3-.579 0-.9.31-.309.31-.45.79l-.98-.37a2.6 2.6 0 0 1 .29-.63q.19-.31.48-.55.3-.24.7-.38.41-.14.94-.14.54 0 .96.16.43.15.72.42t.44.65q.15.37.15.82 0 .42-.13.78-.12.35-.35.68-.22.32-.53.62t-.68.6l-1.69 1.42h3.61zm3.546.12q-.66 0-1.15-.24a2.2 2.2 0 0 1-.8-.71 3.3 3.3 0 0 1-.46-1.13 7 7 0 0 1-.15-1.53q0-.85.15-1.52.15-.681.46-1.14.32-.46.8-.7.49-.25 1.15-.25t1.14.25q.49.24.8.7.32.459.47 1.14.15.67.15 1.52a7 7 0 0 1-.15 1.53q-.15.67-.47 1.13a2.1 2.1 0 0 1-.8.71q-.48.24-1.14.24m0-.92q.76 0 1.08-.56.33-.57.33-1.53v-1.2q0-.96-.33-1.52-.32-.57-1.08-.57-.38 0-.65.15a1.1 1.1 0 0 0-.44.42q-.17.27-.25.66-.07.38-.07.86v1.2q0 .48.07.87.08.38.25.66.17.27.44.42.27.14.65.14m0-2.1q-.35 0-.49-.14a.49.49 0 0 1-.13-.34v-.22q0-.2.13-.34.14-.14.49-.14.351 0 .48.14a.46.46 0 0 1 .14.34v.22a.46.46 0 0 1-.14.34q-.129.14-.48.14m5.996 3.02q-.66 0-1.15-.24a2.2 2.2 0 0 1-.8-.71 3.3 3.3 0 0 1-.46-1.13 7 7 0 0 1-.15-1.53q0-.85.15-1.52.15-.681.46-1.14.32-.46.8-.7.49-.25 1.15-.25t1.14.25q.49.24.8.7.32.459.47 1.14.15.67.15 1.52a7 7 0 0 1-.15 1.53q-.15.67-.47 1.13a2.1 2.1 0 0 1-.8.71q-.48.24-1.14.24m0-.92q.76 0 1.08-.56.33-.57.33-1.53v-1.2q0-.96-.33-1.52-.32-.57-1.08-.57-.38 0-.65.15a1.1 1.1 0 0 0-.44.42q-.17.27-.25.66-.07.38-.07.86v1.2q0 .48.07.87.08.38.25.66.17.27.44.42.27.14.65.14m0-2.1q-.35 0-.49-.14a.49.49 0 0 1-.13-.34v-.22q0-.2.13-.34.14-.14.49-.14.351 0 .48.14a.46.46 0 0 1 .14.34v.22a.46.46 0 0 1-.14.34q-.129.14-.48.14"/><rect width="15.437" height="6.958" x="369.006" y="51.636" fill="#212121" rx="3.479"/><rect width="96.968" height="6.958" x="388.443" y="51.636" fill="#212121" rx="3.479"/><rect width="38.68" height="6.958" x="517.411" y="51.636" fill="#212121" rx="3.479"/><path fill="#171717" d="M294.024 66.615h270.067v23H294.024z"/><path stroke="#2e2e2e" stroke-width=".5" d="M294.024 66.615h270.067v23H294.024z"/><rect width="28.982" height="6.958" x="302.024" y="74.636" fill="#212121" rx="3.479"/><rect width="30" height="13" x="335.006" y="71.615" fill="#212121" rx="4"/><path fill="#393939" d="M346.462 81.616h-4.82v-1.07l2.28-1.99q.54-.48.83-.91.3-.43.3-.91v-.11q0-.55-.3-.84-.3-.3-.87-.3-.579 0-.9.31-.309.31-.45.79l-.98-.37a2.6 2.6 0 0 1 .29-.63q.19-.31.48-.55.3-.24.7-.38.41-.14.94-.14.54 0 .96.16.43.15.72.42t.44.65q.15.37.15.82 0 .42-.13.78-.12.35-.35.68-.22.32-.53.62t-.68.6l-1.69 1.42h3.61zm3.546.12q-.66 0-1.15-.24a2.2 2.2 0 0 1-.8-.71 3.3 3.3 0 0 1-.46-1.13 7 7 0 0 1-.15-1.53q0-.85.15-1.52.15-.681.46-1.14.32-.46.8-.7.49-.25 1.15-.25t1.14.25q.49.24.8.7.32.459.47 1.14.15.67.15 1.52a7 7 0 0 1-.15 1.53q-.15.67-.47 1.13a2.1 2.1 0 0 1-.8.71q-.48.24-1.14.24m0-.92q.76 0 1.08-.56.33-.57.33-1.53v-1.2q0-.96-.33-1.52-.32-.57-1.08-.57-.38 0-.65.15a1.1 1.1 0 0 0-.44.42q-.17.27-.25.66-.07.38-.07.86v1.2q0 .48.07.87.08.38.25.66.17.27.44.42.27.14.65.14m0-2.1q-.35 0-.49-.14a.49.49 0 0 1-.13-.34v-.22q0-.2.13-.34.14-.14.49-.14.351 0 .48.14a.46.46 0 0 1 .14.34v.22a.46.46 0 0 1-.14.34q-.129.14-.48.14m5.996 3.02q-.66 0-1.15-.24a2.2 2.2 0 0 1-.8-.71 3.3 3.3 0 0 1-.46-1.13 7 7 0 0 1-.15-1.53q0-.85.15-1.52.15-.681.46-1.14.32-.46.8-.7.49-.25 1.15-.25t1.14.25q.49.24.8.7.32.459.47 1.14.15.67.15 1.52a7 7 0 0 1-.15 1.53q-.15.67-.47 1.13a2.1 2.1 0 0 1-.8.71q-.48.24-1.14.24m0-.92q.76 0 1.08-.56.33-.57.33-1.53v-1.2q0-.96-.33-1.52-.32-.57-1.08-.57-.38 0-.65.15a1.1 1.1 0 0 0-.44.42q-.17.27-.25.66-.07.38-.07.86v1.2q0 .48.07.87.08.38.25.66.17.27.44.42.27.14.65.14m0-2.1q-.35 0-.49-.14a.49.49 0 0 1-.13-.34v-.22q0-.2.13-.34.14-.14.49-.14.351 0 .48.14a.46.46 0 0 1 .14.34v.22a.46.46 0 0 1-.14.34q-.129.14-.48.14"/><rect width="15.437" height="6.958" x="369.006" y="74.636" fill="#212121" rx="3.479"/><rect width="96.968" height="6.958" x="388.443" y="74.636" fill="#212121" rx="3.479"/><rect width="38.68" height="6.958" x="517.411" y="74.636" fill="#212121" rx="3.479"/><path fill="#171717" d="M294.024 89.615h270.067v23H294.024z"/><path stroke="#2e2e2e" stroke-width=".5" d="M294.024 89.615h270.067v23H294.024z"/><rect width="28.982" height="6.958" x="302.024" y="97.636" fill="#212121" rx="3.479"/><rect width="30" height="13" x="335.006" y="94.615" fill="#212121" rx="4"/><path fill="#393939" d="M346.462 104.615h-4.82v-1.07l2.28-1.99q.54-.48.83-.91.3-.43.3-.91v-.11q0-.549-.3-.84-.3-.3-.87-.3-.579 0-.9.31-.309.31-.45.79l-.98-.37a2.6 2.6 0 0 1 .29-.63q.19-.31.48-.55.3-.24.7-.38.41-.14.94-.14.54 0 .96.16.43.15.72.42t.44.65q.15.37.15.82 0 .42-.13.78-.12.35-.35.68-.22.32-.53.62t-.68.6l-1.69 1.42h3.61zm3.546.12q-.66 0-1.15-.24a2.2 2.2 0 0 1-.8-.71 3.3 3.3 0 0 1-.46-1.13q-.15-.669-.15-1.53 0-.85.15-1.52.15-.68.46-1.14.32-.46.8-.7.49-.25 1.15-.25t1.14.25q.49.24.8.7.32.46.47 1.14.15.67.15 1.52 0 .861-.15 1.53-.15.67-.47 1.13a2.1 2.1 0 0 1-.8.71q-.48.24-1.14.24m0-.92q.76 0 1.08-.56.33-.57.33-1.53v-1.2q0-.96-.33-1.52-.32-.57-1.08-.57-.38 0-.65.15a1.1 1.1 0 0 0-.44.42q-.17.27-.25.66a5 5 0 0 0-.07.86v1.2q0 .48.07.87.08.381.25.66.17.27.44.42.27.14.65.14m0-2.1q-.35 0-.49-.14a.48.48 0 0 1-.13-.34v-.22q0-.2.13-.34.14-.14.49-.14.351 0 .48.14.14.14.14.34v.22a.46.46 0 0 1-.14.34q-.129.14-.48.14m5.996 3.02q-.66 0-1.15-.24a2.2 2.2 0 0 1-.8-.71 3.3 3.3 0 0 1-.46-1.13q-.15-.669-.15-1.53 0-.85.15-1.52.15-.68.46-1.14.32-.46.8-.7.49-.25 1.15-.25t1.14.25q.49.24.8.7.32.46.47 1.14.15.67.15 1.52 0 .861-.15 1.53-.15.67-.47 1.13a2.1 2.1 0 0 1-.8.71q-.48.24-1.14.24m0-.92q.76 0 1.08-.56.33-.57.33-1.53v-1.2q0-.96-.33-1.52-.32-.57-1.08-.57-.38 0-.65.15a1.1 1.1 0 0 0-.44.42q-.17.27-.25.66a5 5 0 0 0-.07.86v1.2q0 .48.07.87.08.381.25.66.17.27.44.42.27.14.65.14m0-2.1q-.35 0-.49-.14a.48.48 0 0 1-.13-.34v-.22q0-.2.13-.34.14-.14.49-.14.351 0 .48.14.14.14.14.34v.22a.46.46 0 0 1-.14.34q-.129.14-.48.14"/><rect width="15.437" height="6.958" x="369.006" y="97.636" fill="#212121" rx="3.479"/><rect width="96.968" height="6.958" x="388.443" y="97.636" fill="#212121" rx="3.479"/><rect width="38.68" height="6.958" x="517.411" y="97.636" fill="#212121" rx="3.479"/><path fill="#171717" d="M294.024 112.615h270.067v23H294.024z"/><path stroke="#2e2e2e" stroke-width=".5" d="M294.024 112.615h270.067v23H294.024z"/><rect width="28.982" height="6.958" x="302.024" y="120.636" fill="#212121" rx="3.479"/><rect width="30" height="13" x="335.006" y="117.615" fill="#212121" rx="4"/><path fill="#393939" d="M346.462 127.615h-4.82v-1.07l2.28-1.99q.54-.48.83-.91.3-.43.3-.91v-.11q0-.549-.3-.84-.3-.3-.87-.3-.579 0-.9.31-.309.31-.45.79l-.98-.37a2.6 2.6 0 0 1 .29-.63q.19-.31.48-.55.3-.24.7-.38.41-.14.94-.14.54 0 .96.16.43.15.72.42t.44.65q.15.37.15.82 0 .42-.13.78-.12.35-.35.68-.22.32-.53.62t-.68.6l-1.69 1.42h3.61zm3.546.12q-.66 0-1.15-.24a2.2 2.2 0 0 1-.8-.71 3.3 3.3 0 0 1-.46-1.13q-.15-.669-.15-1.53 0-.85.15-1.52.15-.68.46-1.14.32-.46.8-.7.49-.25 1.15-.25t1.14.25q.49.24.8.7.32.46.47 1.14.15.67.15 1.52 0 .861-.15 1.53-.15.67-.47 1.13a2.1 2.1 0 0 1-.8.71q-.48.24-1.14.24m0-.92q.76 0 1.08-.56.33-.57.33-1.53v-1.2q0-.96-.33-1.52-.32-.57-1.08-.57-.38 0-.65.15a1.1 1.1 0 0 0-.44.42q-.17.27-.25.66-.07.38-.07.86v1.2q0 .48.07.87.08.381.25.66.17.27.44.42.27.14.65.14m0-2.1q-.35 0-.49-.14a.48.48 0 0 1-.13-.34v-.22q0-.2.13-.34.14-.14.49-.14.351 0 .48.14.14.14.14.34v.22a.46.46 0 0 1-.14.34q-.129.14-.48.14m5.996 3.02q-.66 0-1.15-.24a2.2 2.2 0 0 1-.8-.71 3.3 3.3 0 0 1-.46-1.13q-.15-.669-.15-1.53 0-.85.15-1.52.15-.68.46-1.14.32-.46.8-.7.49-.25 1.15-.25t1.14.25q.49.24.8.7.32.46.47 1.14.15.67.15 1.52 0 .861-.15 1.53-.15.67-.47 1.13a2.1 2.1 0 0 1-.8.71q-.48.24-1.14.24m0-.92q.76 0 1.08-.56.33-.57.33-1.53v-1.2q0-.96-.33-1.52-.32-.57-1.08-.57-.38 0-.65.15a1.1 1.1 0 0 0-.44.42q-.17.27-.25.66-.07.38-.07.86v1.2q0 .48.07.87.08.381.25.66.17.27.44.42.27.14.65.14m0-2.1q-.35 0-.49-.14a.48.48 0 0 1-.13-.34v-.22q0-.2.13-.34.14-.14.49-.14.351 0 .48.14.14.14.14.34v.22a.46.46 0 0 1-.14.34q-.129.14-.48.14"/><rect width="15.437" height="6.958" x="369.006" y="120.636" fill="#212121" rx="3.479"/><rect width="96.968" height="6.958" x="388.443" y="120.636" fill="#212121" rx="3.479"/><rect width="38.68" height="6.958" x="517.411" y="120.636" fill="#212121" rx="3.479"/><path fill="#171717" d="M294.024 135.615h270.067v23H294.024z"/><path stroke="#2e2e2e" stroke-width=".5" d="M294.024 135.615h270.067v23H294.024z"/><rect width="28.982" height="6.958" x="302.024" y="143.636" fill="#212121" rx="3.479"/><rect width="30" height="13" x="335.006" y="140.615" fill="#212121" rx="4"/><path fill="#393939" d="M346.462 150.615h-4.82v-1.07l2.28-1.99q.54-.48.83-.91.3-.43.3-.91v-.11q0-.549-.3-.84-.3-.3-.87-.3-.579 0-.9.31-.309.31-.45.79l-.98-.37a2.6 2.6 0 0 1 .29-.63q.19-.31.48-.55.3-.24.7-.38.41-.14.94-.14.54 0 .96.16.43.15.72.42t.44.65q.15.37.15.82 0 .42-.13.78-.12.35-.35.68-.22.32-.53.62t-.68.6l-1.69 1.42h3.61zm3.546.12q-.66 0-1.15-.24a2.2 2.2 0 0 1-.8-.71 3.3 3.3 0 0 1-.46-1.13q-.15-.669-.15-1.53 0-.85.15-1.52.15-.68.46-1.14.32-.46.8-.7.49-.25 1.15-.25t1.14.25q.49.24.8.7.32.46.47 1.14.15.67.15 1.52 0 .861-.15 1.53-.15.67-.47 1.13a2.1 2.1 0 0 1-.8.71q-.48.24-1.14.24m0-.92q.76 0 1.08-.56.33-.57.33-1.53v-1.2q0-.96-.33-1.52-.32-.57-1.08-.57-.38 0-.65.15a1.1 1.1 0 0 0-.44.42q-.17.27-.25.66-.07.38-.07.86v1.2q0 .48.07.87.08.381.25.66.17.27.44.42.27.14.65.14m0-2.1q-.35 0-.49-.14a.48.48 0 0 1-.13-.34v-.22q0-.2.13-.34.14-.14.49-.14.351 0 .48.14.14.14.14.34v.22a.46.46 0 0 1-.14.34q-.129.14-.48.14m5.996 3.02q-.66 0-1.15-.24a2.2 2.2 0 0 1-.8-.71 3.3 3.3 0 0 1-.46-1.13q-.15-.669-.15-1.53 0-.85.15-1.52.15-.68.46-1.14.32-.46.8-.7.49-.25 1.15-.25t1.14.25q.49.24.8.7.32.46.47 1.14.15.67.15 1.52 0 .861-.15 1.53-.15.67-.47 1.13a2.1 2.1 0 0 1-.8.71q-.48.24-1.14.24m0-.92q.76 0 1.08-.56.33-.57.33-1.53v-1.2q0-.96-.33-1.52-.32-.57-1.08-.57-.38 0-.65.15a1.1 1.1 0 0 0-.44.42q-.17.27-.25.66-.07.38-.07.86v1.2q0 .48.07.87.08.381.25.66.17.27.44.42.27.14.65.14m0-2.1q-.35 0-.49-.14a.48.48 0 0 1-.13-.34v-.22q0-.2.13-.34.14-.14.49-.14.351 0 .48.14.14.14.14.34v.22a.46.46 0 0 1-.14.34q-.129.14-.48.14"/><rect width="15.437" height="6.958" x="369.006" y="143.636" fill="#212121" rx="3.479"/><rect width="96.968" height="6.958" x="388.443" y="143.636" fill="#212121" rx="3.479"/><rect width="38.68" height="6.958" x="517.411" y="143.636" fill="#212121" rx="3.479"/><path fill="#171717" d="M294.024 158.615h270.067v23H294.024z"/><path stroke="#2e2e2e" stroke-width=".5" d="M294.024 158.615h270.067v23H294.024z"/><rect width="28.982" height="6.958" x="302.024" y="166.636" fill="#212121" rx="3.479"/><rect width="30" height="13" x="335.006" y="163.615" fill="#212121" rx="4"/><path fill="#393939" d="M346.462 173.615h-4.82v-1.07l2.28-1.99q.54-.48.83-.91.3-.43.3-.91v-.11q0-.549-.3-.84-.3-.3-.87-.3-.579 0-.9.31-.309.31-.45.79l-.98-.37a2.6 2.6 0 0 1 .29-.63q.19-.31.48-.55.3-.24.7-.38.41-.14.94-.14.54 0 .96.16.43.15.72.42t.44.65q.15.37.15.82 0 .42-.13.78-.12.35-.35.68-.22.32-.53.62t-.68.6l-1.69 1.42h3.61zm3.546.12q-.66 0-1.15-.24a2.2 2.2 0 0 1-.8-.71 3.3 3.3 0 0 1-.46-1.13q-.15-.669-.15-1.53 0-.85.15-1.52.15-.68.46-1.14.32-.46.8-.7.49-.25 1.15-.25t1.14.25q.49.24.8.7.32.46.47 1.14.15.67.15 1.52 0 .861-.15 1.53-.15.67-.47 1.13a2.1 2.1 0 0 1-.8.71q-.48.24-1.14.24m0-.92q.76 0 1.08-.56.33-.57.33-1.53v-1.2q0-.96-.33-1.52-.32-.57-1.08-.57-.38 0-.65.15a1.1 1.1 0 0 0-.44.42q-.17.27-.25.66-.07.38-.07.86v1.2q0 .48.07.87.08.381.25.66.17.27.44.42.27.14.65.14m0-2.1q-.35 0-.49-.14a.48.48 0 0 1-.13-.34v-.22q0-.2.13-.34.14-.14.49-.14.351 0 .48.14.14.14.14.34v.22a.46.46 0 0 1-.14.34q-.129.14-.48.14m5.996 3.02q-.66 0-1.15-.24a2.2 2.2 0 0 1-.8-.71 3.3 3.3 0 0 1-.46-1.13q-.15-.669-.15-1.53 0-.85.15-1.52.15-.68.46-1.14.32-.46.8-.7.49-.25 1.15-.25t1.14.25q.49.24.8.7.32.46.47 1.14.15.67.15 1.52 0 .861-.15 1.53-.15.67-.47 1.13a2.1 2.1 0 0 1-.8.71q-.48.24-1.14.24m0-.92q.76 0 1.08-.56.33-.57.33-1.53v-1.2q0-.96-.33-1.52-.32-.57-1.08-.57-.38 0-.65.15a1.1 1.1 0 0 0-.44.42q-.17.27-.25.66-.07.38-.07.86v1.2q0 .48.07.87.08.381.25.66.17.27.44.42.27.14.65.14m0-2.1q-.35 0-.49-.14a.48.48 0 0 1-.13-.34v-.22q0-.2.13-.34.14-.14.49-.14.351 0 .48.14.14.14.14.34v.22a.46.46 0 0 1-.14.34q-.129.14-.48.14"/><rect width="15.437" height="6.958" x="369.006" y="166.636" fill="#212121" rx="3.479"/><rect width="96.968" height="6.958" x="388.443" y="166.636" fill="#212121" rx="3.479"/><rect width="38.68" height="6.958" x="517.411" y="166.636" fill="#212121" rx="3.479"/><path fill="#171717" d="M294.024 181.615h270.067v23H294.024z"/><path stroke="#2e2e2e" stroke-width=".5" d="M294.024 181.615h270.067v23H294.024z"/><rect width="28.982" height="6.958" x="302.024" y="189.636" fill="#212121" rx="3.479"/><rect width="30" height="13" x="335.006" y="186.615" fill="#212121" rx="4"/><path fill="#393939" d="M346.462 196.615h-4.82v-1.07l2.28-1.99q.54-.48.83-.91.3-.43.3-.91v-.11q0-.549-.3-.84-.3-.3-.87-.3-.579 0-.9.31-.309.31-.45.79l-.98-.37a2.6 2.6 0 0 1 .29-.63q.19-.31.48-.55.3-.24.7-.38.41-.14.94-.14.54 0 .96.16.43.15.72.42t.44.65q.15.37.15.82 0 .42-.13.78-.12.35-.35.68-.22.32-.53.62t-.68.6l-1.69 1.42h3.61zm3.546.12q-.66 0-1.15-.24a2.2 2.2 0 0 1-.8-.71 3.3 3.3 0 0 1-.46-1.13q-.15-.669-.15-1.53 0-.85.15-1.52.15-.68.46-1.14.32-.46.8-.7.49-.25 1.15-.25t1.14.25q.49.24.8.7.32.46.47 1.14.15.67.15 1.52 0 .861-.15 1.53-.15.67-.47 1.13a2.1 2.1 0 0 1-.8.71q-.48.24-1.14.24m0-.92q.76 0 1.08-.56.33-.57.33-1.53v-1.2q0-.96-.33-1.52-.32-.57-1.08-.57-.38 0-.65.15a1.1 1.1 0 0 0-.44.42q-.17.27-.25.66-.07.38-.07.86v1.2q0 .48.07.87.08.381.25.66.17.27.44.42.27.14.65.14m0-2.1q-.35 0-.49-.14a.48.48 0 0 1-.13-.34v-.22q0-.2.13-.34.14-.14.49-.14.351 0 .48.14.14.14.14.34v.22a.46.46 0 0 1-.14.34q-.129.14-.48.14m5.996 3.02q-.66 0-1.15-.24a2.2 2.2 0 0 1-.8-.71 3.3 3.3 0 0 1-.46-1.13q-.15-.669-.15-1.53 0-.85.15-1.52.15-.68.46-1.14.32-.46.8-.7.49-.25 1.15-.25t1.14.25q.49.24.8.7.32.46.47 1.14.15.67.15 1.52 0 .861-.15 1.53-.15.67-.47 1.13a2.1 2.1 0 0 1-.8.71q-.48.24-1.14.24m0-.92q.76 0 1.08-.56.33-.57.33-1.53v-1.2q0-.96-.33-1.52-.32-.57-1.08-.57-.38 0-.65.15a1.1 1.1 0 0 0-.44.42q-.17.27-.25.66-.07.38-.07.86v1.2q0 .48.07.87.08.381.25.66.17.27.44.42.27.14.65.14m0-2.1q-.35 0-.49-.14a.48.48 0 0 1-.13-.34v-.22q0-.2.13-.34.14-.14.49-.14.351 0 .48.14.14.14.14.34v.22a.46.46 0 0 1-.14.34q-.129.14-.48.14"/><rect width="15.437" height="6.958" x="369.006" y="189.636" fill="#212121" rx="3.479"/><rect width="96.968" height="6.958" x="388.443" y="189.636" fill="#212121" rx="3.479"/><rect width="38.68" height="6.958" x="517.411" y="189.636" fill="#212121" rx="3.479"/><path fill="#171717" d="M294.024 204.615h270.067v23H294.024z"/><path stroke="#2e2e2e" stroke-width=".5" d="M294.024 204.615h270.067v23H294.024z"/><rect width="28.982" height="6.958" x="302.024" y="212.636" fill="#212121" rx="3.479"/><rect width="30" height="13" x="335.006" y="209.615" fill="#212121" rx="4"/><path fill="#393939" d="M346.462 219.615h-4.82v-1.07l2.28-1.99q.54-.48.83-.91.3-.43.3-.91v-.11q0-.549-.3-.84-.3-.3-.87-.3-.579 0-.9.31-.309.31-.45.79l-.98-.37a2.6 2.6 0 0 1 .29-.63q.19-.31.48-.55.3-.24.7-.38.41-.14.94-.14.54 0 .96.16.43.15.72.42t.44.65q.15.37.15.82 0 .42-.13.78-.12.35-.35.68-.22.32-.53.62t-.68.6l-1.69 1.42h3.61zm3.546.12q-.66 0-1.15-.24a2.2 2.2 0 0 1-.8-.71 3.3 3.3 0 0 1-.46-1.13q-.15-.669-.15-1.53 0-.85.15-1.52.15-.68.46-1.14.32-.46.8-.7.49-.25 1.15-.25t1.14.25q.49.24.8.7.32.46.47 1.14.15.67.15 1.52 0 .861-.15 1.53-.15.67-.47 1.13a2.1 2.1 0 0 1-.8.71q-.48.24-1.14.24m0-.92q.76 0 1.08-.56.33-.57.33-1.53v-1.2q0-.96-.33-1.52-.32-.57-1.08-.57-.38 0-.65.15a1.1 1.1 0 0 0-.44.42q-.17.27-.25.66-.07.38-.07.86v1.2q0 .48.07.87.08.381.25.66.17.27.44.42.27.14.65.14m0-2.1q-.35 0-.49-.14a.48.48 0 0 1-.13-.34v-.22q0-.2.13-.34.14-.14.49-.14.351 0 .48.14.14.14.14.34v.22a.46.46 0 0 1-.14.34q-.129.14-.48.14m5.996 3.02q-.66 0-1.15-.24a2.2 2.2 0 0 1-.8-.71 3.3 3.3 0 0 1-.46-1.13q-.15-.669-.15-1.53 0-.85.15-1.52.15-.68.46-1.14.32-.46.8-.7.49-.25 1.15-.25t1.14.25q.49.24.8.7.32.46.47 1.14.15.67.15 1.52 0 .861-.15 1.53-.15.67-.47 1.13a2.1 2.1 0 0 1-.8.71q-.48.24-1.14.24m0-.92q.76 0 1.08-.56.33-.57.33-1.53v-1.2q0-.96-.33-1.52-.32-.57-1.08-.57-.38 0-.65.15a1.1 1.1 0 0 0-.44.42q-.17.27-.25.66-.07.38-.07.86v1.2q0 .48.07.87.08.381.25.66.17.27.44.42.27.14.65.14m0-2.1q-.35 0-.49-.14a.48.48 0 0 1-.13-.34v-.22q0-.2.13-.34.14-.14.49-.14.351 0 .48.14.14.14.14.34v.22a.46.46 0 0 1-.14.34q-.129.14-.48.14"/><rect width="15.437" height="6.958" x="369.006" y="212.636" fill="#212121" rx="3.479"/><rect width="96.968" height="6.958" x="388.443" y="212.636" fill="#212121" rx="3.479"/><rect width="38.68" height="6.958" x="517.411" y="212.636" fill="#212121" rx="3.479"/></g></g><defs><linearGradient id="b" x1="663.13" x2="607.309" y1="112.615" y2="112.615" gradientUnits="userSpaceOnUse"><stop offset=".006" stop-color="#7d7d7d"/><stop offset=".895" stop-color="#171717" stop-opacity="0"/></linearGradient><linearGradient id="d" x1="635.992" x2="560.58" y1="112.615" y2="112.615" gradientUnits="userSpaceOnUse"><stop stop-color="#7d7d7d"/><stop offset="1" stop-color="#171717" stop-opacity="0"/></linearGradient><linearGradient id="f" x1="571.658" x2="275.369" y1="110.177" y2="110.177" gradientUnits="userSpaceOnUse"><stop offset=".53" stop-color="#737373"/><stop offset=".928" stop-color="#d9d9d9" stop-opacity="0"/></linearGradient><linearGradient id="h" x1="270.067" x2="-10.5" y1="138" y2="138" gradientUnits="userSpaceOnUse"><stop offset=".53" stop-color="#737373"/><stop offset=".928" stop-color="#d9d9d9" stop-opacity="0"/></linearGradient><clipPath id="a"><path fill="#fff" d="M0 .58h764v219H0z"/></clipPath></defs></svg>