<svg width="764" height="220" viewBox="0 0 764 220" fill="none" xmlns="http://www.w3.org/2000/svg">
<g clip-path="url(#clip0_895_5180)">
<rect width="764" height="219" transform="translate(0 0.580078)" fill="white"/>
<mask id="mask0_895_5180" style="mask-type:alpha" maskUnits="userSpaceOnUse" x="554" y="31" width="112" height="163">
<rect x="554.257" y="31.3629" width="111.631" height="162.505" fill="url(#paint0_linear_895_5180)"/>
</mask>
<g mask="url(#mask0_895_5180)">
<path d="M555.297 86.3473H580.642C583.29 86.3473 585.895 85.3513 588.219 83.4506L636.282 44.1369C638.605 42.2363 641.21 41.2402 643.858 41.2402M555.297 92.7638H580.642C583.29 92.7638 585.895 92.0168 588.219 90.5913L636.282 61.106C638.605 59.6805 641.21 58.9335 643.858 58.9335H669.08M555.297 99.7917H580.642C583.29 99.7917 585.895 99.2937 588.219 98.3433L636.282 78.6865C638.605 77.7361 641.21 77.2381 643.858 77.2381H653.307H658.032M555.297 106.51H580.642C583.29 106.51 585.895 106.261 588.219 105.786L636.282 95.9576C638.605 95.4824 641.21 95.2334 643.858 95.2334H653.307M555.297 112.17H580.642C583.29 112.17 585.895 112.17 588.219 112.17H636.282C638.605 112.17 664.763 112.17 667.41 112.17M555.297 118.132H580.642C583.29 118.132 585.895 118.381 588.219 118.856L636.282 128.684C638.605 129.16 641.21 129.409 643.858 129.409H653.307M555.297 124.549H580.642C583.29 124.549 585.895 125.047 588.219 125.997L636.282 145.654C638.605 146.604 641.21 147.102 643.858 147.102H653.307H658.032M555.297 131.878H580.642C583.29 131.878 585.895 132.625 588.219 134.05L636.282 163.535C638.605 164.961 641.21 165.708 643.858 165.708H669.08M555.297 138.295H580.642C583.29 138.295 585.895 139.291 588.219 141.191L636.282 180.505C638.605 182.406 641.21 183.402 643.858 183.402" stroke="#525252" stroke-width="0.5"/>
</g>
<mask id="mask1_895_5180" style="mask-type:alpha" maskUnits="userSpaceOnUse" x="560" y="38" width="113" height="149">
<rect x="560.58" y="38.512" width="111.631" height="148.207" fill="url(#paint1_linear_895_5180)"/>
</mask>
<g mask="url(#mask1_895_5180)">
<path d="M561.619 89.7292H586.965C589.612 89.7292 592.217 88.8208 594.541 87.0874L618.572 69.16M561.619 100.92H586.965C589.612 100.92 592.217 100.466 594.541 99.5992L606.557 95.1174L612.565 92.8764M561.619 112.21H586.965C589.612 112.21 592.217 112.21 594.541 112.21H606.557H612.565M561.619 123.499H586.965C589.612 123.499 592.217 123.953 594.541 124.82L606.557 129.302M561.619 135.579H586.965C589.612 135.579 592.217 136.487 594.541 138.221L618.572 156.148" stroke="#525252" stroke-width="0.5"/>
</g>
<rect x="666.288" y="33.0154" width="45.2" height="45.2" rx="7.6" fill="#FCFCFC"/>
<rect x="666.288" y="33.0154" width="45.2" height="45.2" rx="7.6" stroke="#DFDFDF" stroke-width="0.8"/>
<path d="M697.551 61.3817L695.266 59.8752L693.359 63.0589L691.143 62.4113L689.191 65.3905L689.291 66.328L699.903 64.3731L699.287 57.7427L697.551 61.3817ZM687.654 58.5245L689.357 58.2901C689.632 58.4134 689.825 58.4608 690.155 58.5448C690.67 58.6789 691.265 58.8076 692.147 58.3632C692.351 58.2616 692.78 57.8701 692.952 57.6479L699.927 56.3825L700.639 64.9949L688.688 67.149L687.654 58.5245ZM700.612 55.4207L699.923 55.5521L698.601 41.885L676.062 44.4984L678.839 67.0325L681.477 66.6491C681.267 66.3483 680.937 65.9839 680.378 65.5179C679.6 64.873 679.875 63.7756 680.335 63.0833C680.94 61.9141 684.066 60.4266 683.888 58.557C683.824 57.8769 683.716 56.9922 683.085 56.3853C683.062 56.6372 683.104 56.8798 683.104 56.8798C683.104 56.8798 682.845 56.5492 682.715 56.098C682.586 55.9246 682.486 55.8704 682.349 55.6388C682.252 55.9057 682.265 56.2159 682.265 56.2159C682.265 56.2159 682.054 55.7146 682.019 55.2919C681.893 55.4816 681.861 55.8406 681.861 55.8406C681.861 55.8406 681.586 55.0508 681.649 54.6254C681.523 54.2555 681.15 53.5212 681.256 51.8522C681.944 52.3345 683.459 52.2193 684.048 51.3495C684.244 51.061 684.379 50.2752 683.95 48.7267C683.675 47.7336 682.995 46.2542 682.73 45.692L682.699 45.715C682.838 46.1675 683.127 47.1145 683.238 47.5751C683.572 48.9692 683.662 49.4542 683.505 50.0964C683.371 50.6545 683.051 51.0203 682.238 51.4295C681.425 51.84 680.347 50.8415 680.278 50.7873C679.488 50.1587 678.877 49.1317 678.809 48.6332C678.739 48.0872 679.123 47.7594 679.318 47.3136C679.041 47.3936 678.73 47.5345 678.73 47.5345C678.73 47.5345 679.1 47.1511 679.557 46.8205C679.747 46.6958 679.856 46.6159 680.055 46.4506C679.767 46.4466 679.532 46.4533 679.532 46.4533C679.532 46.4533 680.013 46.1932 680.512 46.0049C680.148 45.9886 679.798 46.0022 679.798 46.0022C679.798 46.0022 680.871 45.5226 681.718 45.1704C682.3 44.9319 682.869 45.0024 683.189 45.4643C683.609 46.0699 684.049 46.3991 684.984 46.6037C685.559 46.349 685.732 46.219 686.453 46.0225C687.087 45.3248 687.585 45.234 687.585 45.234C687.585 45.234 687.339 45.4603 687.272 45.8166C687.633 45.5334 688.027 45.2964 688.027 45.2964C688.027 45.2964 687.874 45.4847 687.732 45.7841L687.764 45.8328C688.184 45.5809 688.677 45.3831 688.677 45.3831C688.677 45.3831 688.536 45.5619 688.371 45.7922C688.688 45.7895 689.33 45.8058 689.578 45.8342C691.05 45.8667 691.354 44.2627 691.919 44.0621C692.626 43.8102 692.942 43.6571 694.147 44.8398C695.18 45.8559 695.988 47.6726 695.587 48.0804C695.251 48.4178 694.587 47.949 693.853 47.0318C693.464 46.5468 693.171 45.9737 693.033 45.2449C692.916 44.6298 692.465 44.2735 692.465 44.2735C692.465 44.2735 692.727 44.8574 692.727 45.3722C692.727 45.654 692.762 46.7053 693.213 47.2947C693.168 47.3814 693.148 47.7214 693.098 47.7864C692.574 47.1524 691.446 46.6986 691.264 46.5644C691.885 47.0738 693.315 48.2444 693.863 49.3661C694.382 50.4269 694.076 51.3997 694.339 51.6516C694.413 51.7234 695.455 53.0213 695.656 53.6743C696.005 54.811 695.676 56.0059 695.22 56.747L693.942 56.9461C693.755 56.8947 693.629 56.8676 693.461 56.7714C693.553 56.6074 693.737 56.1997 693.739 56.1157L693.667 55.9897C693.269 56.5532 692.603 57.1006 692.049 57.4149C691.325 57.8254 690.49 57.7617 689.947 57.5937C688.404 57.1182 686.945 56.075 686.594 55.8013C686.594 55.8013 686.583 56.0195 686.649 56.0696C687.038 56.5085 687.929 57.3024 688.791 57.8552L686.955 58.0571L687.824 64.8161C687.439 64.8716 687.379 64.8987 686.958 64.9583C686.587 63.6469 685.877 62.7893 685.101 62.2908C684.416 61.8505 683.472 61.7516 682.567 61.9304L682.509 61.9981C683.138 61.9331 683.88 62.0239 684.641 62.5062C685.389 62.979 685.992 64.201 686.214 64.9366C686.499 65.8769 686.695 66.8821 685.93 67.9483C685.385 68.7057 683.797 69.1243 682.513 68.2193C682.856 68.7707 683.319 69.2218 683.942 69.3058C684.869 69.4318 685.748 69.2706 686.352 68.6501C686.869 68.119 687.144 67.0081 687.071 65.8389L687.887 65.7211L688.183 67.8196L701.714 66.1898L700.612 55.4207ZM692.379 49.7197C692.341 49.8064 692.281 49.862 692.37 50.1424L692.376 50.1587L692.389 50.1953L692.426 50.2792C692.587 50.6071 692.763 50.9173 693.057 51.0759C693.133 51.0637 693.213 51.0542 693.294 51.0501C693.571 51.0379 693.746 51.0813 693.857 51.1422C693.866 51.0867 693.869 51.0068 693.862 50.8875C693.84 50.4716 693.945 49.7644 693.145 49.3919C692.843 49.2523 692.421 49.2943 692.28 49.4704C692.305 49.4732 692.328 49.4786 692.346 49.4853C692.561 49.5585 692.418 49.6317 692.379 49.7197ZM694.619 53.6012C694.515 53.5429 694.025 53.566 693.68 53.6066C693.025 53.6838 692.316 53.9114 692.16 54.032C691.879 54.2501 692.006 54.6308 692.215 54.7866C692.8 55.2229 693.312 55.5168 693.853 55.445C694.184 55.4017 694.477 54.876 694.684 54.3978C694.828 54.0699 694.828 53.7163 694.619 53.6012ZM688.811 50.2345C688.997 50.0584 687.89 49.8281 687.031 50.4134C686.399 50.8455 686.378 51.7722 686.984 52.2965C687.045 52.348 687.095 52.3859 687.141 52.4157C687.318 52.3317 687.52 52.2477 687.752 52.1732C688.145 52.0459 688.47 51.9795 688.738 51.9456C688.867 51.802 689.016 51.55 688.978 51.0935C688.928 50.4716 688.458 50.5705 688.811 50.2345Z" fill="#525252"/>
<rect x="666.288" y="89.0154" width="45.2" height="45.2" rx="7.6" fill="#FCFCFC"/>
<rect x="666.288" y="89.0154" width="45.2" height="45.2" rx="7.6" stroke="#DFDFDF" stroke-width="0.8"/>
<path d="M682.031 110.044C682.031 110.431 682.073 110.745 682.146 110.975C682.23 111.204 682.334 111.455 682.481 111.727C682.533 111.811 682.554 111.894 682.554 111.967C682.554 112.072 682.491 112.176 682.355 112.281L681.697 112.72C681.603 112.783 681.509 112.814 681.425 112.814C681.321 112.814 681.216 112.762 681.112 112.668C680.965 112.511 680.84 112.344 680.735 112.176C680.631 111.999 680.526 111.8 680.411 111.56C679.596 112.521 678.572 113.002 677.339 113.002C676.461 113.002 675.761 112.751 675.248 112.25C674.736 111.748 674.475 111.079 674.475 110.243C674.475 109.355 674.789 108.633 675.426 108.09C676.064 107.547 676.91 107.275 677.987 107.275C678.342 107.275 678.708 107.306 679.095 107.358C679.481 107.411 679.878 107.494 680.296 107.588V106.825C680.296 106.031 680.129 105.477 679.805 105.153C679.471 104.829 678.906 104.672 678.102 104.672C677.736 104.672 677.36 104.714 676.973 104.808C676.586 104.902 676.21 105.017 675.844 105.164C675.677 105.237 675.552 105.279 675.478 105.3C675.405 105.32 675.353 105.331 675.311 105.331C675.165 105.331 675.092 105.226 675.092 105.007V104.495C675.092 104.328 675.113 104.202 675.165 104.129C675.217 104.056 675.311 103.983 675.457 103.91C675.823 103.721 676.262 103.565 676.774 103.439C677.286 103.303 677.83 103.241 678.405 103.241C679.648 103.241 680.558 103.523 681.143 104.087C681.718 104.652 682.01 105.509 682.01 106.658V110.044H682.031ZM677.788 111.633C678.133 111.633 678.488 111.57 678.865 111.445C679.241 111.319 679.575 111.089 679.857 110.776C680.025 110.577 680.15 110.358 680.213 110.107C680.275 109.856 680.317 109.553 680.317 109.198V108.759C680.014 108.686 679.69 108.623 679.356 108.581C679.021 108.539 678.697 108.518 678.373 108.518C677.673 108.518 677.161 108.654 676.816 108.937C676.471 109.219 676.304 109.616 676.304 110.138C676.304 110.63 676.429 110.995 676.691 111.246C676.942 111.508 677.307 111.633 677.788 111.633ZM686.18 112.762C685.992 112.762 685.867 112.73 685.783 112.657C685.7 112.594 685.626 112.448 685.564 112.25L683.108 104.171C683.045 103.962 683.014 103.826 683.014 103.753C683.014 103.586 683.097 103.491 683.265 103.491H684.289C684.487 103.491 684.623 103.523 684.696 103.596C684.78 103.659 684.843 103.805 684.905 104.004L686.661 110.922L688.292 104.004C688.344 103.795 688.407 103.659 688.49 103.596C688.574 103.533 688.72 103.491 688.908 103.491H689.744C689.943 103.491 690.079 103.523 690.162 103.596C690.246 103.659 690.319 103.805 690.361 104.004L692.012 111.006L693.82 104.004C693.883 103.795 693.956 103.659 694.029 103.596C694.113 103.533 694.249 103.491 694.437 103.491H695.409C695.576 103.491 695.67 103.575 695.67 103.753C695.67 103.805 695.66 103.857 695.649 103.92C695.639 103.983 695.618 104.066 695.576 104.181L693.057 112.26C692.995 112.469 692.921 112.605 692.838 112.668C692.754 112.73 692.618 112.772 692.441 112.772H691.542C691.343 112.772 691.207 112.741 691.124 112.668C691.04 112.594 690.967 112.459 690.925 112.25L689.305 105.509L687.696 112.239C687.644 112.448 687.581 112.584 687.497 112.657C687.414 112.73 687.267 112.762 687.079 112.762H686.18ZM699.61 113.044C699.067 113.044 698.523 112.981 698.001 112.856C697.478 112.73 697.071 112.594 696.799 112.438C696.632 112.344 696.517 112.239 696.475 112.145C696.433 112.051 696.412 111.946 696.412 111.852V111.319C696.412 111.1 696.496 110.995 696.653 110.995C696.715 110.995 696.778 111.006 696.841 111.027C696.903 111.048 696.997 111.089 697.102 111.131C697.457 111.288 697.844 111.413 698.252 111.497C698.67 111.581 699.077 111.622 699.495 111.622C700.154 111.622 700.666 111.508 701.021 111.278C701.376 111.048 701.565 110.713 701.565 110.285C701.565 109.992 701.471 109.752 701.282 109.553C701.094 109.355 700.739 109.177 700.227 109.01L698.711 108.539C697.948 108.299 697.384 107.944 697.039 107.473C696.694 107.014 696.517 106.501 696.517 105.958C696.517 105.519 696.611 105.132 696.799 104.798C696.987 104.463 697.238 104.171 697.551 103.941C697.865 103.7 698.22 103.523 698.638 103.397C699.056 103.272 699.495 103.22 699.955 103.22C700.185 103.22 700.425 103.23 700.655 103.262C700.896 103.293 701.115 103.335 701.335 103.376C701.544 103.429 701.742 103.481 701.93 103.544C702.118 103.606 702.265 103.669 702.369 103.732C702.516 103.815 702.62 103.899 702.683 103.993C702.746 104.077 702.777 104.192 702.777 104.338V104.829C702.777 105.049 702.693 105.164 702.537 105.164C702.453 105.164 702.317 105.122 702.139 105.038C701.544 104.767 700.875 104.631 700.133 104.631C699.537 104.631 699.067 104.725 698.743 104.923C698.419 105.122 698.252 105.425 698.252 105.853C698.252 106.146 698.356 106.397 698.565 106.595C698.774 106.794 699.161 106.993 699.715 107.17L701.199 107.641C701.951 107.881 702.495 108.215 702.819 108.644C703.143 109.072 703.299 109.564 703.299 110.107C703.299 110.556 703.205 110.964 703.028 111.319C702.84 111.675 702.589 111.988 702.265 112.239C701.941 112.5 701.554 112.689 701.105 112.824C700.634 112.971 700.143 113.044 699.61 113.044Z" fill="#525252"/>
<path fill-rule="evenodd" clip-rule="evenodd" d="M701.585 118.123C698.147 120.663 693.151 122.011 688.856 122.011C682.836 122.011 677.412 119.785 673.315 116.085C672.991 115.793 673.284 115.395 673.67 115.625C678.102 118.196 683.568 119.754 689.222 119.754C693.036 119.754 697.227 118.959 701.084 117.329C701.659 117.068 702.15 117.705 701.585 118.123Z" fill="#525252"/>
<path fill-rule="evenodd" clip-rule="evenodd" d="M703.017 116.493C702.578 115.928 700.112 116.221 698.994 116.357C698.659 116.399 698.607 116.106 698.91 115.887C700.875 114.507 704.104 114.904 704.48 115.364C704.857 115.834 704.376 119.064 702.537 120.611C702.254 120.851 701.983 120.725 702.108 120.412C702.526 119.377 703.456 117.047 703.017 116.493Z" fill="#525252"/>
<rect x="666.288" y="145.015" width="45.2" height="45.2" rx="7.6" fill="#FCFCFC"/>
<rect x="666.288" y="145.015" width="45.2" height="45.2" rx="7.6" stroke="#DFDFDF" stroke-width="0.8"/>
<path fill-rule="evenodd" clip-rule="evenodd" d="M704.025 168.345C704.025 165.811 702.451 163.585 700.084 162.727C700.186 162.19 700.237 161.652 700.237 161.102C700.237 156.381 696.399 152.542 691.69 152.542C688.926 152.542 686.367 153.86 684.754 156.086C683.961 155.472 682.989 155.139 681.978 155.139C679.47 155.139 677.435 157.174 677.435 159.682C677.435 160.232 677.538 160.77 677.717 161.269C675.362 162.113 673.75 164.378 673.75 166.899C673.75 169.445 675.337 171.672 677.704 172.529C677.602 173.054 677.55 173.604 677.55 174.154C677.55 178.863 681.376 182.689 686.085 182.689C688.849 182.689 691.408 181.358 693.008 179.132C693.801 179.759 694.774 180.104 695.785 180.104C698.292 180.104 700.327 178.07 700.327 175.562C700.327 175.011 700.225 174.474 700.046 173.975C702.4 173.13 704.025 170.865 704.025 168.345ZM685.65 165.53L692.278 168.549L698.958 162.689C699.06 162.203 699.098 161.729 699.098 161.217C699.098 157.097 695.746 153.744 691.626 153.744C689.156 153.744 686.865 154.96 685.471 156.995L684.358 162.766L685.65 165.53ZM678.651 174.039C678.651 173.527 678.689 173.028 678.792 172.542L685.318 166.656L691.972 169.688L693.443 172.503L692.343 178.249C690.948 180.296 688.632 181.524 686.149 181.524C682.016 181.524 678.651 178.172 678.651 174.039ZM678.753 161.077L683.296 162.151L684.294 156.995C683.679 156.521 682.912 156.265 682.118 156.265C680.148 156.265 678.536 157.865 678.536 159.848C678.536 160.27 678.612 160.693 678.753 161.077ZM674.915 166.911C674.915 164.775 676.335 162.83 678.357 162.164L683.347 163.341L684.512 165.837L678.139 171.595C676.207 170.853 674.915 168.997 674.915 166.911ZM693.494 178.249C694.121 178.722 694.876 178.991 695.657 178.991C697.628 178.991 699.24 177.391 699.24 175.408C699.24 174.973 699.163 174.551 699.022 174.167L694.493 173.105L693.494 178.249ZM699.406 173.079L694.415 171.915L693.097 169.368L699.623 163.648C701.555 164.378 702.848 166.246 702.848 168.319C702.848 170.469 701.44 172.414 699.406 173.079Z" fill="#525252"/>
<mask id="mask2_895_5180" style="mask-type:alpha" maskUnits="userSpaceOnUse" x="286" y="-11" width="286" height="242">
<rect x="286.458" y="-10.1133" width="285.2" height="240.58" fill="url(#paint2_linear_895_5180)"/>
</mask>
<g mask="url(#mask2_895_5180)">
<rect width="270.067" height="276" transform="translate(294.024 -25.3845)" fill="url(#paint3_linear_895_5180)"/>
<rect x="294.024" y="-2.38452" width="270.067" height="23" fill="white"/>
<rect x="294.024" y="-2.38452" width="270.067" height="23" stroke="#DFDFDF" stroke-width="0.5"/>
<rect x="302.024" y="5.63647" width="28.9824" height="6.95805" rx="3.47903" fill="#F3F3F3"/>
<rect x="335.007" y="2.61548" width="30" height="13" rx="4" fill="#F3F3F3"/>
<path d="M346.463 12.6155H341.643V11.5455L343.923 9.55548C344.283 9.23548 344.559 8.93215 344.753 8.64548C344.953 8.35881 345.053 8.05548 345.053 7.73548V7.62548C345.053 7.25881 344.953 6.97881 344.753 6.78548C344.553 6.58548 344.263 6.48548 343.883 6.48548C343.496 6.48548 343.196 6.58881 342.983 6.79548C342.776 7.00215 342.626 7.26548 342.533 7.58548L341.553 7.21548C341.619 6.99548 341.716 6.78548 341.843 6.58548C341.969 6.37881 342.129 6.19548 342.323 6.03548C342.523 5.87548 342.756 5.74881 343.023 5.65548C343.296 5.56214 343.609 5.51548 343.963 5.51548C344.323 5.51548 344.643 5.56881 344.923 5.67548C345.209 5.77548 345.449 5.91548 345.643 6.09548C345.836 6.27548 345.983 6.49215 346.083 6.74548C346.183 6.99215 346.233 7.26548 346.233 7.56548C346.233 7.84548 346.189 8.10548 346.103 8.34548C346.023 8.57881 345.906 8.80548 345.753 9.02548C345.606 9.23881 345.429 9.44548 345.223 9.64548C345.016 9.84548 344.789 10.0455 344.543 10.2455L342.853 11.6655H346.463V12.6155ZM350.009 12.7355C349.569 12.7355 349.185 12.6555 348.859 12.4955C348.539 12.3288 348.272 12.0921 348.059 11.7855C347.852 11.4788 347.699 11.1021 347.599 10.6555C347.499 10.2088 347.449 9.69881 347.449 9.12548C347.449 8.55881 347.499 8.05214 347.599 7.60548C347.699 7.15214 347.852 6.77215 348.059 6.46548C348.272 6.15881 348.539 5.92548 348.859 5.76548C349.185 5.59881 349.569 5.51548 350.009 5.51548C350.449 5.51548 350.829 5.59881 351.149 5.76548C351.475 5.92548 351.742 6.15881 351.949 6.46548C352.162 6.77215 352.319 7.15214 352.419 7.60548C352.519 8.05214 352.569 8.55881 352.569 9.12548C352.569 9.69881 352.519 10.2088 352.419 10.6555C352.319 11.1021 352.162 11.4788 351.949 11.7855C351.742 12.0921 351.475 12.3288 351.149 12.4955C350.829 12.6555 350.449 12.7355 350.009 12.7355ZM350.009 11.8155C350.515 11.8155 350.875 11.6288 351.089 11.2555C351.309 10.8755 351.419 10.3655 351.419 9.72548V8.52548C351.419 7.88548 351.309 7.37881 351.089 7.00548C350.875 6.62548 350.515 6.43548 350.009 6.43548C349.755 6.43548 349.539 6.48548 349.359 6.58548C349.179 6.67881 349.032 6.81881 348.919 7.00548C348.805 7.18548 348.722 7.40548 348.669 7.66548C348.622 7.91881 348.599 8.20548 348.599 8.52548V9.72548C348.599 10.0455 348.622 10.3355 348.669 10.5955C348.722 10.8488 348.805 11.0688 348.919 11.2555C349.032 11.4355 349.179 11.5755 349.359 11.6755C349.539 11.7688 349.755 11.8155 350.009 11.8155ZM350.009 9.71548C349.775 9.71548 349.612 9.66881 349.519 9.57548C349.432 9.48214 349.389 9.36881 349.389 9.23548V9.01548C349.389 8.88214 349.432 8.76881 349.519 8.67548C349.612 8.58214 349.775 8.53548 350.009 8.53548C350.242 8.53548 350.402 8.58214 350.489 8.67548C350.582 8.76881 350.629 8.88214 350.629 9.01548V9.23548C350.629 9.36881 350.582 9.48214 350.489 9.57548C350.402 9.66881 350.242 9.71548 350.009 9.71548ZM356.005 12.7355C355.565 12.7355 355.182 12.6555 354.855 12.4955C354.535 12.3288 354.268 12.0921 354.055 11.7855C353.848 11.4788 353.695 11.1021 353.595 10.6555C353.495 10.2088 353.445 9.69881 353.445 9.12548C353.445 8.55881 353.495 8.05214 353.595 7.60548C353.695 7.15214 353.848 6.77215 354.055 6.46548C354.268 6.15881 354.535 5.92548 354.855 5.76548C355.182 5.59881 355.565 5.51548 356.005 5.51548C356.445 5.51548 356.825 5.59881 357.145 5.76548C357.472 5.92548 357.738 6.15881 357.945 6.46548C358.158 6.77215 358.315 7.15214 358.415 7.60548C358.515 8.05214 358.565 8.55881 358.565 9.12548C358.565 9.69881 358.515 10.2088 358.415 10.6555C358.315 11.1021 358.158 11.4788 357.945 11.7855C357.738 12.0921 357.472 12.3288 357.145 12.4955C356.825 12.6555 356.445 12.7355 356.005 12.7355ZM356.005 11.8155C356.512 11.8155 356.872 11.6288 357.085 11.2555C357.305 10.8755 357.415 10.3655 357.415 9.72548V8.52548C357.415 7.88548 357.305 7.37881 357.085 7.00548C356.872 6.62548 356.512 6.43548 356.005 6.43548C355.752 6.43548 355.535 6.48548 355.355 6.58548C355.175 6.67881 355.028 6.81881 354.915 7.00548C354.802 7.18548 354.718 7.40548 354.665 7.66548C354.618 7.91881 354.595 8.20548 354.595 8.52548V9.72548C354.595 10.0455 354.618 10.3355 354.665 10.5955C354.718 10.8488 354.802 11.0688 354.915 11.2555C355.028 11.4355 355.175 11.5755 355.355 11.6755C355.535 11.7688 355.752 11.8155 356.005 11.8155ZM356.005 9.71548C355.772 9.71548 355.608 9.66881 355.515 9.57548C355.428 9.48214 355.385 9.36881 355.385 9.23548V9.01548C355.385 8.88214 355.428 8.76881 355.515 8.67548C355.608 8.58214 355.772 8.53548 356.005 8.53548C356.238 8.53548 356.398 8.58214 356.485 8.67548C356.578 8.76881 356.625 8.88214 356.625 9.01548V9.23548C356.625 9.36881 356.578 9.48214 356.485 9.57548C356.398 9.66881 356.238 9.71548 356.005 9.71548Z" fill="#C7C7C7"/>
<rect x="369.007" y="5.63647" width="15.437" height="6.95805" rx="3.47903" fill="#F3F3F3"/>
<rect x="388.443" y="5.63647" width="96.9676" height="6.95805" rx="3.47903" fill="#F3F3F3"/>
<rect x="517.411" y="5.63647" width="38.6802" height="6.95805" rx="3.47903" fill="#F3F3F3"/>
<rect x="294.024" y="20.6155" width="270.067" height="23" fill="white"/>
<rect x="294.024" y="20.6155" width="270.067" height="23" stroke="#DFDFDF" stroke-width="0.5"/>
<rect x="302.024" y="28.6365" width="28.9824" height="6.95805" rx="3.47903" fill="#F3F3F3"/>
<rect x="335.007" y="25.6155" width="30" height="13" rx="4" fill="#F3F3F3"/>
<path d="M346.463 35.6155H341.643V34.5455L343.923 32.5555C344.283 32.2355 344.559 31.9321 344.753 31.6455C344.953 31.3588 345.053 31.0555 345.053 30.7355V30.6255C345.053 30.2588 344.953 29.9788 344.753 29.7855C344.553 29.5855 344.263 29.4855 343.883 29.4855C343.496 29.4855 343.196 29.5888 342.983 29.7955C342.776 30.0021 342.626 30.2655 342.533 30.5855L341.553 30.2155C341.619 29.9955 341.716 29.7855 341.843 29.5855C341.969 29.3788 342.129 29.1955 342.323 29.0355C342.523 28.8755 342.756 28.7488 343.023 28.6555C343.296 28.5621 343.609 28.5155 343.963 28.5155C344.323 28.5155 344.643 28.5688 344.923 28.6755C345.209 28.7755 345.449 28.9155 345.643 29.0955C345.836 29.2755 345.983 29.4921 346.083 29.7455C346.183 29.9921 346.233 30.2655 346.233 30.5655C346.233 30.8455 346.189 31.1055 346.103 31.3455C346.023 31.5788 345.906 31.8055 345.753 32.0255C345.606 32.2388 345.429 32.4455 345.223 32.6455C345.016 32.8455 344.789 33.0455 344.543 33.2455L342.853 34.6655H346.463V35.6155ZM350.009 35.7355C349.569 35.7355 349.185 35.6555 348.859 35.4955C348.539 35.3288 348.272 35.0921 348.059 34.7855C347.852 34.4788 347.699 34.1021 347.599 33.6555C347.499 33.2088 347.449 32.6988 347.449 32.1255C347.449 31.5588 347.499 31.0521 347.599 30.6055C347.699 30.1521 347.852 29.7721 348.059 29.4655C348.272 29.1588 348.539 28.9255 348.859 28.7655C349.185 28.5988 349.569 28.5155 350.009 28.5155C350.449 28.5155 350.829 28.5988 351.149 28.7655C351.475 28.9255 351.742 29.1588 351.949 29.4655C352.162 29.7721 352.319 30.1521 352.419 30.6055C352.519 31.0521 352.569 31.5588 352.569 32.1255C352.569 32.6988 352.519 33.2088 352.419 33.6555C352.319 34.1021 352.162 34.4788 351.949 34.7855C351.742 35.0921 351.475 35.3288 351.149 35.4955C350.829 35.6555 350.449 35.7355 350.009 35.7355ZM350.009 34.8155C350.515 34.8155 350.875 34.6288 351.089 34.2555C351.309 33.8755 351.419 33.3655 351.419 32.7255V31.5255C351.419 30.8855 351.309 30.3788 351.089 30.0055C350.875 29.6255 350.515 29.4355 350.009 29.4355C349.755 29.4355 349.539 29.4855 349.359 29.5855C349.179 29.6788 349.032 29.8188 348.919 30.0055C348.805 30.1855 348.722 30.4055 348.669 30.6655C348.622 30.9188 348.599 31.2055 348.599 31.5255V32.7255C348.599 33.0455 348.622 33.3355 348.669 33.5955C348.722 33.8488 348.805 34.0688 348.919 34.2555C349.032 34.4355 349.179 34.5755 349.359 34.6755C349.539 34.7688 349.755 34.8155 350.009 34.8155ZM350.009 32.7155C349.775 32.7155 349.612 32.6688 349.519 32.5755C349.432 32.4821 349.389 32.3688 349.389 32.2355V32.0155C349.389 31.8821 349.432 31.7688 349.519 31.6755C349.612 31.5821 349.775 31.5355 350.009 31.5355C350.242 31.5355 350.402 31.5821 350.489 31.6755C350.582 31.7688 350.629 31.8821 350.629 32.0155V32.2355C350.629 32.3688 350.582 32.4821 350.489 32.5755C350.402 32.6688 350.242 32.7155 350.009 32.7155ZM356.005 35.7355C355.565 35.7355 355.182 35.6555 354.855 35.4955C354.535 35.3288 354.268 35.0921 354.055 34.7855C353.848 34.4788 353.695 34.1021 353.595 33.6555C353.495 33.2088 353.445 32.6988 353.445 32.1255C353.445 31.5588 353.495 31.0521 353.595 30.6055C353.695 30.1521 353.848 29.7721 354.055 29.4655C354.268 29.1588 354.535 28.9255 354.855 28.7655C355.182 28.5988 355.565 28.5155 356.005 28.5155C356.445 28.5155 356.825 28.5988 357.145 28.7655C357.472 28.9255 357.738 29.1588 357.945 29.4655C358.158 29.7721 358.315 30.1521 358.415 30.6055C358.515 31.0521 358.565 31.5588 358.565 32.1255C358.565 32.6988 358.515 33.2088 358.415 33.6555C358.315 34.1021 358.158 34.4788 357.945 34.7855C357.738 35.0921 357.472 35.3288 357.145 35.4955C356.825 35.6555 356.445 35.7355 356.005 35.7355ZM356.005 34.8155C356.512 34.8155 356.872 34.6288 357.085 34.2555C357.305 33.8755 357.415 33.3655 357.415 32.7255V31.5255C357.415 30.8855 357.305 30.3788 357.085 30.0055C356.872 29.6255 356.512 29.4355 356.005 29.4355C355.752 29.4355 355.535 29.4855 355.355 29.5855C355.175 29.6788 355.028 29.8188 354.915 30.0055C354.802 30.1855 354.718 30.4055 354.665 30.6655C354.618 30.9188 354.595 31.2055 354.595 31.5255V32.7255C354.595 33.0455 354.618 33.3355 354.665 33.5955C354.718 33.8488 354.802 34.0688 354.915 34.2555C355.028 34.4355 355.175 34.5755 355.355 34.6755C355.535 34.7688 355.752 34.8155 356.005 34.8155ZM356.005 32.7155C355.772 32.7155 355.608 32.6688 355.515 32.5755C355.428 32.4821 355.385 32.3688 355.385 32.2355V32.0155C355.385 31.8821 355.428 31.7688 355.515 31.6755C355.608 31.5821 355.772 31.5355 356.005 31.5355C356.238 31.5355 356.398 31.5821 356.485 31.6755C356.578 31.7688 356.625 31.8821 356.625 32.0155V32.2355C356.625 32.3688 356.578 32.4821 356.485 32.5755C356.398 32.6688 356.238 32.7155 356.005 32.7155Z" fill="#C7C7C7"/>
<rect x="369.007" y="28.6365" width="15.437" height="6.95805" rx="3.47903" fill="#F3F3F3"/>
<rect x="388.443" y="28.6365" width="96.9676" height="6.95805" rx="3.47903" fill="#F3F3F3"/>
<rect x="517.411" y="28.6365" width="38.6802" height="6.95805" rx="3.47903" fill="#F3F3F3"/>
<rect x="294.024" y="43.6155" width="270.067" height="23" fill="white"/>
<rect x="294.024" y="43.6155" width="270.067" height="23" stroke="#DFDFDF" stroke-width="0.5"/>
<rect x="302.024" y="51.6365" width="28.9824" height="6.95805" rx="3.47903" fill="#F3F3F3"/>
<rect x="335.007" y="48.6155" width="30" height="13" rx="4" fill="#F3F3F3"/>
<path d="M346.463 58.6155H341.643V57.5455L343.923 55.5555C344.283 55.2355 344.559 54.9321 344.753 54.6455C344.953 54.3588 345.053 54.0555 345.053 53.7355V53.6255C345.053 53.2588 344.953 52.9788 344.753 52.7855C344.553 52.5855 344.263 52.4855 343.883 52.4855C343.496 52.4855 343.196 52.5888 342.983 52.7955C342.776 53.0021 342.626 53.2655 342.533 53.5855L341.553 53.2155C341.619 52.9955 341.716 52.7855 341.843 52.5855C341.969 52.3788 342.129 52.1955 342.323 52.0355C342.523 51.8755 342.756 51.7488 343.023 51.6555C343.296 51.5621 343.609 51.5155 343.963 51.5155C344.323 51.5155 344.643 51.5688 344.923 51.6755C345.209 51.7755 345.449 51.9155 345.643 52.0955C345.836 52.2755 345.983 52.4921 346.083 52.7455C346.183 52.9921 346.233 53.2655 346.233 53.5655C346.233 53.8455 346.189 54.1055 346.103 54.3455C346.023 54.5788 345.906 54.8055 345.753 55.0255C345.606 55.2388 345.429 55.4455 345.223 55.6455C345.016 55.8455 344.789 56.0455 344.543 56.2455L342.853 57.6655H346.463V58.6155ZM350.009 58.7355C349.569 58.7355 349.185 58.6555 348.859 58.4955C348.539 58.3288 348.272 58.0921 348.059 57.7855C347.852 57.4788 347.699 57.1021 347.599 56.6555C347.499 56.2088 347.449 55.6988 347.449 55.1255C347.449 54.5588 347.499 54.0521 347.599 53.6055C347.699 53.1521 347.852 52.7721 348.059 52.4655C348.272 52.1588 348.539 51.9255 348.859 51.7655C349.185 51.5988 349.569 51.5155 350.009 51.5155C350.449 51.5155 350.829 51.5988 351.149 51.7655C351.475 51.9255 351.742 52.1588 351.949 52.4655C352.162 52.7721 352.319 53.1521 352.419 53.6055C352.519 54.0521 352.569 54.5588 352.569 55.1255C352.569 55.6988 352.519 56.2088 352.419 56.6555C352.319 57.1021 352.162 57.4788 351.949 57.7855C351.742 58.0921 351.475 58.3288 351.149 58.4955C350.829 58.6555 350.449 58.7355 350.009 58.7355ZM350.009 57.8155C350.515 57.8155 350.875 57.6288 351.089 57.2555C351.309 56.8755 351.419 56.3655 351.419 55.7255V54.5255C351.419 53.8855 351.309 53.3788 351.089 53.0055C350.875 52.6255 350.515 52.4355 350.009 52.4355C349.755 52.4355 349.539 52.4855 349.359 52.5855C349.179 52.6788 349.032 52.8188 348.919 53.0055C348.805 53.1855 348.722 53.4055 348.669 53.6655C348.622 53.9188 348.599 54.2055 348.599 54.5255V55.7255C348.599 56.0455 348.622 56.3355 348.669 56.5955C348.722 56.8488 348.805 57.0688 348.919 57.2555C349.032 57.4355 349.179 57.5755 349.359 57.6755C349.539 57.7688 349.755 57.8155 350.009 57.8155ZM350.009 55.7155C349.775 55.7155 349.612 55.6688 349.519 55.5755C349.432 55.4821 349.389 55.3688 349.389 55.2355V55.0155C349.389 54.8821 349.432 54.7688 349.519 54.6755C349.612 54.5821 349.775 54.5355 350.009 54.5355C350.242 54.5355 350.402 54.5821 350.489 54.6755C350.582 54.7688 350.629 54.8821 350.629 55.0155V55.2355C350.629 55.3688 350.582 55.4821 350.489 55.5755C350.402 55.6688 350.242 55.7155 350.009 55.7155ZM356.005 58.7355C355.565 58.7355 355.182 58.6555 354.855 58.4955C354.535 58.3288 354.268 58.0921 354.055 57.7855C353.848 57.4788 353.695 57.1021 353.595 56.6555C353.495 56.2088 353.445 55.6988 353.445 55.1255C353.445 54.5588 353.495 54.0521 353.595 53.6055C353.695 53.1521 353.848 52.7721 354.055 52.4655C354.268 52.1588 354.535 51.9255 354.855 51.7655C355.182 51.5988 355.565 51.5155 356.005 51.5155C356.445 51.5155 356.825 51.5988 357.145 51.7655C357.472 51.9255 357.738 52.1588 357.945 52.4655C358.158 52.7721 358.315 53.1521 358.415 53.6055C358.515 54.0521 358.565 54.5588 358.565 55.1255C358.565 55.6988 358.515 56.2088 358.415 56.6555C358.315 57.1021 358.158 57.4788 357.945 57.7855C357.738 58.0921 357.472 58.3288 357.145 58.4955C356.825 58.6555 356.445 58.7355 356.005 58.7355ZM356.005 57.8155C356.512 57.8155 356.872 57.6288 357.085 57.2555C357.305 56.8755 357.415 56.3655 357.415 55.7255V54.5255C357.415 53.8855 357.305 53.3788 357.085 53.0055C356.872 52.6255 356.512 52.4355 356.005 52.4355C355.752 52.4355 355.535 52.4855 355.355 52.5855C355.175 52.6788 355.028 52.8188 354.915 53.0055C354.802 53.1855 354.718 53.4055 354.665 53.6655C354.618 53.9188 354.595 54.2055 354.595 54.5255V55.7255C354.595 56.0455 354.618 56.3355 354.665 56.5955C354.718 56.8488 354.802 57.0688 354.915 57.2555C355.028 57.4355 355.175 57.5755 355.355 57.6755C355.535 57.7688 355.752 57.8155 356.005 57.8155ZM356.005 55.7155C355.772 55.7155 355.608 55.6688 355.515 55.5755C355.428 55.4821 355.385 55.3688 355.385 55.2355V55.0155C355.385 54.8821 355.428 54.7688 355.515 54.6755C355.608 54.5821 355.772 54.5355 356.005 54.5355C356.238 54.5355 356.398 54.5821 356.485 54.6755C356.578 54.7688 356.625 54.8821 356.625 55.0155V55.2355C356.625 55.3688 356.578 55.4821 356.485 55.5755C356.398 55.6688 356.238 55.7155 356.005 55.7155Z" fill="#C7C7C7"/>
<rect x="369.007" y="51.6365" width="15.437" height="6.95805" rx="3.47903" fill="#F3F3F3"/>
<rect x="388.443" y="51.6365" width="96.9676" height="6.95805" rx="3.47903" fill="#F3F3F3"/>
<rect x="517.411" y="51.6365" width="38.6802" height="6.95805" rx="3.47903" fill="#F3F3F3"/>
<rect x="294.024" y="66.6155" width="270.067" height="23" fill="white"/>
<rect x="294.024" y="66.6155" width="270.067" height="23" stroke="#DFDFDF" stroke-width="0.5"/>
<rect x="302.024" y="74.6365" width="28.9824" height="6.95805" rx="3.47903" fill="#F3F3F3"/>
<rect x="335.007" y="71.6155" width="30" height="13" rx="4" fill="#F3F3F3"/>
<path d="M346.463 81.6155H341.643V80.5455L343.923 78.5555C344.283 78.2355 344.559 77.9321 344.753 77.6455C344.953 77.3588 345.053 77.0555 345.053 76.7355V76.6255C345.053 76.2588 344.953 75.9788 344.753 75.7855C344.553 75.5855 344.263 75.4855 343.883 75.4855C343.496 75.4855 343.196 75.5888 342.983 75.7955C342.776 76.0021 342.626 76.2655 342.533 76.5855L341.553 76.2155C341.619 75.9955 341.716 75.7855 341.843 75.5855C341.969 75.3788 342.129 75.1955 342.323 75.0355C342.523 74.8755 342.756 74.7488 343.023 74.6555C343.296 74.5621 343.609 74.5155 343.963 74.5155C344.323 74.5155 344.643 74.5688 344.923 74.6755C345.209 74.7755 345.449 74.9155 345.643 75.0955C345.836 75.2755 345.983 75.4921 346.083 75.7455C346.183 75.9921 346.233 76.2655 346.233 76.5655C346.233 76.8455 346.189 77.1055 346.103 77.3455C346.023 77.5788 345.906 77.8055 345.753 78.0255C345.606 78.2388 345.429 78.4455 345.223 78.6455C345.016 78.8455 344.789 79.0455 344.543 79.2455L342.853 80.6655H346.463V81.6155ZM350.009 81.7355C349.569 81.7355 349.185 81.6555 348.859 81.4955C348.539 81.3288 348.272 81.0921 348.059 80.7855C347.852 80.4788 347.699 80.1021 347.599 79.6555C347.499 79.2088 347.449 78.6988 347.449 78.1255C347.449 77.5588 347.499 77.0521 347.599 76.6055C347.699 76.1521 347.852 75.7721 348.059 75.4655C348.272 75.1588 348.539 74.9255 348.859 74.7655C349.185 74.5988 349.569 74.5155 350.009 74.5155C350.449 74.5155 350.829 74.5988 351.149 74.7655C351.475 74.9255 351.742 75.1588 351.949 75.4655C352.162 75.7721 352.319 76.1521 352.419 76.6055C352.519 77.0521 352.569 77.5588 352.569 78.1255C352.569 78.6988 352.519 79.2088 352.419 79.6555C352.319 80.1021 352.162 80.4788 351.949 80.7855C351.742 81.0921 351.475 81.3288 351.149 81.4955C350.829 81.6555 350.449 81.7355 350.009 81.7355ZM350.009 80.8155C350.515 80.8155 350.875 80.6288 351.089 80.2555C351.309 79.8755 351.419 79.3655 351.419 78.7255V77.5255C351.419 76.8855 351.309 76.3788 351.089 76.0055C350.875 75.6255 350.515 75.4355 350.009 75.4355C349.755 75.4355 349.539 75.4855 349.359 75.5855C349.179 75.6788 349.032 75.8188 348.919 76.0055C348.805 76.1855 348.722 76.4055 348.669 76.6655C348.622 76.9188 348.599 77.2055 348.599 77.5255V78.7255C348.599 79.0455 348.622 79.3355 348.669 79.5955C348.722 79.8488 348.805 80.0688 348.919 80.2555C349.032 80.4355 349.179 80.5755 349.359 80.6755C349.539 80.7688 349.755 80.8155 350.009 80.8155ZM350.009 78.7155C349.775 78.7155 349.612 78.6688 349.519 78.5755C349.432 78.4821 349.389 78.3688 349.389 78.2355V78.0155C349.389 77.8821 349.432 77.7688 349.519 77.6755C349.612 77.5821 349.775 77.5355 350.009 77.5355C350.242 77.5355 350.402 77.5821 350.489 77.6755C350.582 77.7688 350.629 77.8821 350.629 78.0155V78.2355C350.629 78.3688 350.582 78.4821 350.489 78.5755C350.402 78.6688 350.242 78.7155 350.009 78.7155ZM356.005 81.7355C355.565 81.7355 355.182 81.6555 354.855 81.4955C354.535 81.3288 354.268 81.0921 354.055 80.7855C353.848 80.4788 353.695 80.1021 353.595 79.6555C353.495 79.2088 353.445 78.6988 353.445 78.1255C353.445 77.5588 353.495 77.0521 353.595 76.6055C353.695 76.1521 353.848 75.7721 354.055 75.4655C354.268 75.1588 354.535 74.9255 354.855 74.7655C355.182 74.5988 355.565 74.5155 356.005 74.5155C356.445 74.5155 356.825 74.5988 357.145 74.7655C357.472 74.9255 357.738 75.1588 357.945 75.4655C358.158 75.7721 358.315 76.1521 358.415 76.6055C358.515 77.0521 358.565 77.5588 358.565 78.1255C358.565 78.6988 358.515 79.2088 358.415 79.6555C358.315 80.1021 358.158 80.4788 357.945 80.7855C357.738 81.0921 357.472 81.3288 357.145 81.4955C356.825 81.6555 356.445 81.7355 356.005 81.7355ZM356.005 80.8155C356.512 80.8155 356.872 80.6288 357.085 80.2555C357.305 79.8755 357.415 79.3655 357.415 78.7255V77.5255C357.415 76.8855 357.305 76.3788 357.085 76.0055C356.872 75.6255 356.512 75.4355 356.005 75.4355C355.752 75.4355 355.535 75.4855 355.355 75.5855C355.175 75.6788 355.028 75.8188 354.915 76.0055C354.802 76.1855 354.718 76.4055 354.665 76.6655C354.618 76.9188 354.595 77.2055 354.595 77.5255V78.7255C354.595 79.0455 354.618 79.3355 354.665 79.5955C354.718 79.8488 354.802 80.0688 354.915 80.2555C355.028 80.4355 355.175 80.5755 355.355 80.6755C355.535 80.7688 355.752 80.8155 356.005 80.8155ZM356.005 78.7155C355.772 78.7155 355.608 78.6688 355.515 78.5755C355.428 78.4821 355.385 78.3688 355.385 78.2355V78.0155C355.385 77.8821 355.428 77.7688 355.515 77.6755C355.608 77.5821 355.772 77.5355 356.005 77.5355C356.238 77.5355 356.398 77.5821 356.485 77.6755C356.578 77.7688 356.625 77.8821 356.625 78.0155V78.2355C356.625 78.3688 356.578 78.4821 356.485 78.5755C356.398 78.6688 356.238 78.7155 356.005 78.7155Z" fill="#C7C7C7"/>
<rect x="369.007" y="74.6365" width="15.437" height="6.95805" rx="3.47903" fill="#F3F3F3"/>
<rect x="388.443" y="74.6365" width="96.9676" height="6.95805" rx="3.47903" fill="#F3F3F3"/>
<rect x="517.411" y="74.6365" width="38.6802" height="6.95805" rx="3.47903" fill="#F3F3F3"/>
<rect x="294.024" y="89.6155" width="270.067" height="23" fill="white"/>
<rect x="294.024" y="89.6155" width="270.067" height="23" stroke="#DFDFDF" stroke-width="0.5"/>
<rect x="302.024" y="97.6365" width="28.9824" height="6.95805" rx="3.47903" fill="#F3F3F3"/>
<rect x="335.007" y="94.6155" width="30" height="13" rx="4" fill="#F3F3F3"/>
<path d="M346.463 104.615H341.643V103.545L343.923 101.555C344.283 101.235 344.559 100.932 344.753 100.645C344.953 100.359 345.053 100.055 345.053 99.7355V99.6255C345.053 99.2588 344.953 98.9788 344.753 98.7855C344.553 98.5855 344.263 98.4855 343.883 98.4855C343.496 98.4855 343.196 98.5888 342.983 98.7955C342.776 99.0021 342.626 99.2655 342.533 99.5855L341.553 99.2155C341.619 98.9955 341.716 98.7855 341.843 98.5855C341.969 98.3788 342.129 98.1955 342.323 98.0355C342.523 97.8755 342.756 97.7488 343.023 97.6555C343.296 97.5621 343.609 97.5155 343.963 97.5155C344.323 97.5155 344.643 97.5688 344.923 97.6755C345.209 97.7755 345.449 97.9155 345.643 98.0955C345.836 98.2755 345.983 98.4921 346.083 98.7455C346.183 98.9921 346.233 99.2655 346.233 99.5655C346.233 99.8455 346.189 100.105 346.103 100.345C346.023 100.579 345.906 100.805 345.753 101.025C345.606 101.239 345.429 101.445 345.223 101.645C345.016 101.845 344.789 102.045 344.543 102.245L342.853 103.665H346.463V104.615ZM350.009 104.735C349.569 104.735 349.185 104.655 348.859 104.495C348.539 104.329 348.272 104.092 348.059 103.785C347.852 103.479 347.699 103.102 347.599 102.655C347.499 102.209 347.449 101.699 347.449 101.125C347.449 100.559 347.499 100.052 347.599 99.6055C347.699 99.1521 347.852 98.7721 348.059 98.4655C348.272 98.1588 348.539 97.9255 348.859 97.7655C349.185 97.5988 349.569 97.5155 350.009 97.5155C350.449 97.5155 350.829 97.5988 351.149 97.7655C351.475 97.9255 351.742 98.1588 351.949 98.4655C352.162 98.7721 352.319 99.1521 352.419 99.6055C352.519 100.052 352.569 100.559 352.569 101.125C352.569 101.699 352.519 102.209 352.419 102.655C352.319 103.102 352.162 103.479 351.949 103.785C351.742 104.092 351.475 104.329 351.149 104.495C350.829 104.655 350.449 104.735 350.009 104.735ZM350.009 103.815C350.515 103.815 350.875 103.629 351.089 103.255C351.309 102.875 351.419 102.365 351.419 101.725V100.525C351.419 99.8855 351.309 99.3788 351.089 99.0055C350.875 98.6255 350.515 98.4355 350.009 98.4355C349.755 98.4355 349.539 98.4855 349.359 98.5855C349.179 98.6788 349.032 98.8188 348.919 99.0055C348.805 99.1855 348.722 99.4055 348.669 99.6655C348.622 99.9188 348.599 100.205 348.599 100.525V101.725C348.599 102.045 348.622 102.335 348.669 102.595C348.722 102.849 348.805 103.069 348.919 103.255C349.032 103.435 349.179 103.575 349.359 103.675C349.539 103.769 349.755 103.815 350.009 103.815ZM350.009 101.715C349.775 101.715 349.612 101.669 349.519 101.575C349.432 101.482 349.389 101.369 349.389 101.235V101.015C349.389 100.882 349.432 100.769 349.519 100.675C349.612 100.582 349.775 100.535 350.009 100.535C350.242 100.535 350.402 100.582 350.489 100.675C350.582 100.769 350.629 100.882 350.629 101.015V101.235C350.629 101.369 350.582 101.482 350.489 101.575C350.402 101.669 350.242 101.715 350.009 101.715ZM356.005 104.735C355.565 104.735 355.182 104.655 354.855 104.495C354.535 104.329 354.268 104.092 354.055 103.785C353.848 103.479 353.695 103.102 353.595 102.655C353.495 102.209 353.445 101.699 353.445 101.125C353.445 100.559 353.495 100.052 353.595 99.6055C353.695 99.1521 353.848 98.7721 354.055 98.4655C354.268 98.1588 354.535 97.9255 354.855 97.7655C355.182 97.5988 355.565 97.5155 356.005 97.5155C356.445 97.5155 356.825 97.5988 357.145 97.7655C357.472 97.9255 357.738 98.1588 357.945 98.4655C358.158 98.7721 358.315 99.1521 358.415 99.6055C358.515 100.052 358.565 100.559 358.565 101.125C358.565 101.699 358.515 102.209 358.415 102.655C358.315 103.102 358.158 103.479 357.945 103.785C357.738 104.092 357.472 104.329 357.145 104.495C356.825 104.655 356.445 104.735 356.005 104.735ZM356.005 103.815C356.512 103.815 356.872 103.629 357.085 103.255C357.305 102.875 357.415 102.365 357.415 101.725V100.525C357.415 99.8855 357.305 99.3788 357.085 99.0055C356.872 98.6255 356.512 98.4355 356.005 98.4355C355.752 98.4355 355.535 98.4855 355.355 98.5855C355.175 98.6788 355.028 98.8188 354.915 99.0055C354.802 99.1855 354.718 99.4055 354.665 99.6655C354.618 99.9188 354.595 100.205 354.595 100.525V101.725C354.595 102.045 354.618 102.335 354.665 102.595C354.718 102.849 354.802 103.069 354.915 103.255C355.028 103.435 355.175 103.575 355.355 103.675C355.535 103.769 355.752 103.815 356.005 103.815ZM356.005 101.715C355.772 101.715 355.608 101.669 355.515 101.575C355.428 101.482 355.385 101.369 355.385 101.235V101.015C355.385 100.882 355.428 100.769 355.515 100.675C355.608 100.582 355.772 100.535 356.005 100.535C356.238 100.535 356.398 100.582 356.485 100.675C356.578 100.769 356.625 100.882 356.625 101.015V101.235C356.625 101.369 356.578 101.482 356.485 101.575C356.398 101.669 356.238 101.715 356.005 101.715Z" fill="#C7C7C7"/>
<rect x="369.007" y="97.6365" width="15.437" height="6.95805" rx="3.47903" fill="#F3F3F3"/>
<rect x="388.443" y="97.6365" width="96.9676" height="6.95805" rx="3.47903" fill="#F3F3F3"/>
<rect x="517.411" y="97.6365" width="38.6802" height="6.95805" rx="3.47903" fill="#F3F3F3"/>
<rect x="294.024" y="112.615" width="270.067" height="23" fill="white"/>
<rect x="294.024" y="112.615" width="270.067" height="23" stroke="#DFDFDF" stroke-width="0.5"/>
<rect x="302.024" y="120.636" width="28.9824" height="6.95805" rx="3.47903" fill="#F3F3F3"/>
<rect x="335.007" y="117.615" width="30" height="13" rx="4" fill="#F3F3F3"/>
<path d="M346.463 127.615H341.643V126.545L343.923 124.555C344.283 124.235 344.559 123.932 344.753 123.645C344.953 123.359 345.053 123.055 345.053 122.735V122.625C345.053 122.259 344.953 121.979 344.753 121.785C344.553 121.585 344.263 121.485 343.883 121.485C343.496 121.485 343.196 121.589 342.983 121.795C342.776 122.002 342.626 122.265 342.533 122.585L341.553 122.215C341.619 121.995 341.716 121.785 341.843 121.585C341.969 121.379 342.129 121.195 342.323 121.035C342.523 120.875 342.756 120.749 343.023 120.655C343.296 120.562 343.609 120.515 343.963 120.515C344.323 120.515 344.643 120.569 344.923 120.675C345.209 120.775 345.449 120.915 345.643 121.095C345.836 121.275 345.983 121.492 346.083 121.745C346.183 121.992 346.233 122.265 346.233 122.565C346.233 122.845 346.189 123.105 346.103 123.345C346.023 123.579 345.906 123.805 345.753 124.025C345.606 124.239 345.429 124.445 345.223 124.645C345.016 124.845 344.789 125.045 344.543 125.245L342.853 126.665H346.463V127.615ZM350.009 127.735C349.569 127.735 349.185 127.655 348.859 127.495C348.539 127.329 348.272 127.092 348.059 126.785C347.852 126.479 347.699 126.102 347.599 125.655C347.499 125.209 347.449 124.699 347.449 124.125C347.449 123.559 347.499 123.052 347.599 122.605C347.699 122.152 347.852 121.772 348.059 121.465C348.272 121.159 348.539 120.925 348.859 120.765C349.185 120.599 349.569 120.515 350.009 120.515C350.449 120.515 350.829 120.599 351.149 120.765C351.475 120.925 351.742 121.159 351.949 121.465C352.162 121.772 352.319 122.152 352.419 122.605C352.519 123.052 352.569 123.559 352.569 124.125C352.569 124.699 352.519 125.209 352.419 125.655C352.319 126.102 352.162 126.479 351.949 126.785C351.742 127.092 351.475 127.329 351.149 127.495C350.829 127.655 350.449 127.735 350.009 127.735ZM350.009 126.815C350.515 126.815 350.875 126.629 351.089 126.255C351.309 125.875 351.419 125.365 351.419 124.725V123.525C351.419 122.885 351.309 122.379 351.089 122.005C350.875 121.625 350.515 121.435 350.009 121.435C349.755 121.435 349.539 121.485 349.359 121.585C349.179 121.679 349.032 121.819 348.919 122.005C348.805 122.185 348.722 122.405 348.669 122.665C348.622 122.919 348.599 123.205 348.599 123.525V124.725C348.599 125.045 348.622 125.335 348.669 125.595C348.722 125.849 348.805 126.069 348.919 126.255C349.032 126.435 349.179 126.575 349.359 126.675C349.539 126.769 349.755 126.815 350.009 126.815ZM350.009 124.715C349.775 124.715 349.612 124.669 349.519 124.575C349.432 124.482 349.389 124.369 349.389 124.235V124.015C349.389 123.882 349.432 123.769 349.519 123.675C349.612 123.582 349.775 123.535 350.009 123.535C350.242 123.535 350.402 123.582 350.489 123.675C350.582 123.769 350.629 123.882 350.629 124.015V124.235C350.629 124.369 350.582 124.482 350.489 124.575C350.402 124.669 350.242 124.715 350.009 124.715ZM356.005 127.735C355.565 127.735 355.182 127.655 354.855 127.495C354.535 127.329 354.268 127.092 354.055 126.785C353.848 126.479 353.695 126.102 353.595 125.655C353.495 125.209 353.445 124.699 353.445 124.125C353.445 123.559 353.495 123.052 353.595 122.605C353.695 122.152 353.848 121.772 354.055 121.465C354.268 121.159 354.535 120.925 354.855 120.765C355.182 120.599 355.565 120.515 356.005 120.515C356.445 120.515 356.825 120.599 357.145 120.765C357.472 120.925 357.738 121.159 357.945 121.465C358.158 121.772 358.315 122.152 358.415 122.605C358.515 123.052 358.565 123.559 358.565 124.125C358.565 124.699 358.515 125.209 358.415 125.655C358.315 126.102 358.158 126.479 357.945 126.785C357.738 127.092 357.472 127.329 357.145 127.495C356.825 127.655 356.445 127.735 356.005 127.735ZM356.005 126.815C356.512 126.815 356.872 126.629 357.085 126.255C357.305 125.875 357.415 125.365 357.415 124.725V123.525C357.415 122.885 357.305 122.379 357.085 122.005C356.872 121.625 356.512 121.435 356.005 121.435C355.752 121.435 355.535 121.485 355.355 121.585C355.175 121.679 355.028 121.819 354.915 122.005C354.802 122.185 354.718 122.405 354.665 122.665C354.618 122.919 354.595 123.205 354.595 123.525V124.725C354.595 125.045 354.618 125.335 354.665 125.595C354.718 125.849 354.802 126.069 354.915 126.255C355.028 126.435 355.175 126.575 355.355 126.675C355.535 126.769 355.752 126.815 356.005 126.815ZM356.005 124.715C355.772 124.715 355.608 124.669 355.515 124.575C355.428 124.482 355.385 124.369 355.385 124.235V124.015C355.385 123.882 355.428 123.769 355.515 123.675C355.608 123.582 355.772 123.535 356.005 123.535C356.238 123.535 356.398 123.582 356.485 123.675C356.578 123.769 356.625 123.882 356.625 124.015V124.235C356.625 124.369 356.578 124.482 356.485 124.575C356.398 124.669 356.238 124.715 356.005 124.715Z" fill="#C7C7C7"/>
<rect x="369.007" y="120.636" width="15.437" height="6.95805" rx="3.47903" fill="#F3F3F3"/>
<rect x="388.443" y="120.636" width="96.9676" height="6.95805" rx="3.47903" fill="#F3F3F3"/>
<rect x="517.411" y="120.636" width="38.6802" height="6.95805" rx="3.47903" fill="#F3F3F3"/>
<rect x="294.024" y="135.615" width="270.067" height="23" fill="white"/>
<rect x="294.024" y="135.615" width="270.067" height="23" stroke="#DFDFDF" stroke-width="0.5"/>
<rect x="302.024" y="143.636" width="28.9824" height="6.95805" rx="3.47903" fill="#F3F3F3"/>
<rect x="335.007" y="140.615" width="30" height="13" rx="4" fill="#F3F3F3"/>
<path d="M346.463 150.615H341.643V149.545L343.923 147.555C344.283 147.235 344.559 146.932 344.753 146.645C344.953 146.359 345.053 146.055 345.053 145.735V145.625C345.053 145.259 344.953 144.979 344.753 144.785C344.553 144.585 344.263 144.485 343.883 144.485C343.496 144.485 343.196 144.589 342.983 144.795C342.776 145.002 342.626 145.265 342.533 145.585L341.553 145.215C341.619 144.995 341.716 144.785 341.843 144.585C341.969 144.379 342.129 144.195 342.323 144.035C342.523 143.875 342.756 143.749 343.023 143.655C343.296 143.562 343.609 143.515 343.963 143.515C344.323 143.515 344.643 143.569 344.923 143.675C345.209 143.775 345.449 143.915 345.643 144.095C345.836 144.275 345.983 144.492 346.083 144.745C346.183 144.992 346.233 145.265 346.233 145.565C346.233 145.845 346.189 146.105 346.103 146.345C346.023 146.579 345.906 146.805 345.753 147.025C345.606 147.239 345.429 147.445 345.223 147.645C345.016 147.845 344.789 148.045 344.543 148.245L342.853 149.665H346.463V150.615ZM350.009 150.735C349.569 150.735 349.185 150.655 348.859 150.495C348.539 150.329 348.272 150.092 348.059 149.785C347.852 149.479 347.699 149.102 347.599 148.655C347.499 148.209 347.449 147.699 347.449 147.125C347.449 146.559 347.499 146.052 347.599 145.605C347.699 145.152 347.852 144.772 348.059 144.465C348.272 144.159 348.539 143.925 348.859 143.765C349.185 143.599 349.569 143.515 350.009 143.515C350.449 143.515 350.829 143.599 351.149 143.765C351.475 143.925 351.742 144.159 351.949 144.465C352.162 144.772 352.319 145.152 352.419 145.605C352.519 146.052 352.569 146.559 352.569 147.125C352.569 147.699 352.519 148.209 352.419 148.655C352.319 149.102 352.162 149.479 351.949 149.785C351.742 150.092 351.475 150.329 351.149 150.495C350.829 150.655 350.449 150.735 350.009 150.735ZM350.009 149.815C350.515 149.815 350.875 149.629 351.089 149.255C351.309 148.875 351.419 148.365 351.419 147.725V146.525C351.419 145.885 351.309 145.379 351.089 145.005C350.875 144.625 350.515 144.435 350.009 144.435C349.755 144.435 349.539 144.485 349.359 144.585C349.179 144.679 349.032 144.819 348.919 145.005C348.805 145.185 348.722 145.405 348.669 145.665C348.622 145.919 348.599 146.205 348.599 146.525V147.725C348.599 148.045 348.622 148.335 348.669 148.595C348.722 148.849 348.805 149.069 348.919 149.255C349.032 149.435 349.179 149.575 349.359 149.675C349.539 149.769 349.755 149.815 350.009 149.815ZM350.009 147.715C349.775 147.715 349.612 147.669 349.519 147.575C349.432 147.482 349.389 147.369 349.389 147.235V147.015C349.389 146.882 349.432 146.769 349.519 146.675C349.612 146.582 349.775 146.535 350.009 146.535C350.242 146.535 350.402 146.582 350.489 146.675C350.582 146.769 350.629 146.882 350.629 147.015V147.235C350.629 147.369 350.582 147.482 350.489 147.575C350.402 147.669 350.242 147.715 350.009 147.715ZM356.005 150.735C355.565 150.735 355.182 150.655 354.855 150.495C354.535 150.329 354.268 150.092 354.055 149.785C353.848 149.479 353.695 149.102 353.595 148.655C353.495 148.209 353.445 147.699 353.445 147.125C353.445 146.559 353.495 146.052 353.595 145.605C353.695 145.152 353.848 144.772 354.055 144.465C354.268 144.159 354.535 143.925 354.855 143.765C355.182 143.599 355.565 143.515 356.005 143.515C356.445 143.515 356.825 143.599 357.145 143.765C357.472 143.925 357.738 144.159 357.945 144.465C358.158 144.772 358.315 145.152 358.415 145.605C358.515 146.052 358.565 146.559 358.565 147.125C358.565 147.699 358.515 148.209 358.415 148.655C358.315 149.102 358.158 149.479 357.945 149.785C357.738 150.092 357.472 150.329 357.145 150.495C356.825 150.655 356.445 150.735 356.005 150.735ZM356.005 149.815C356.512 149.815 356.872 149.629 357.085 149.255C357.305 148.875 357.415 148.365 357.415 147.725V146.525C357.415 145.885 357.305 145.379 357.085 145.005C356.872 144.625 356.512 144.435 356.005 144.435C355.752 144.435 355.535 144.485 355.355 144.585C355.175 144.679 355.028 144.819 354.915 145.005C354.802 145.185 354.718 145.405 354.665 145.665C354.618 145.919 354.595 146.205 354.595 146.525V147.725C354.595 148.045 354.618 148.335 354.665 148.595C354.718 148.849 354.802 149.069 354.915 149.255C355.028 149.435 355.175 149.575 355.355 149.675C355.535 149.769 355.752 149.815 356.005 149.815ZM356.005 147.715C355.772 147.715 355.608 147.669 355.515 147.575C355.428 147.482 355.385 147.369 355.385 147.235V147.015C355.385 146.882 355.428 146.769 355.515 146.675C355.608 146.582 355.772 146.535 356.005 146.535C356.238 146.535 356.398 146.582 356.485 146.675C356.578 146.769 356.625 146.882 356.625 147.015V147.235C356.625 147.369 356.578 147.482 356.485 147.575C356.398 147.669 356.238 147.715 356.005 147.715Z" fill="#C7C7C7"/>
<rect x="369.007" y="143.636" width="15.437" height="6.95805" rx="3.47903" fill="#F3F3F3"/>
<rect x="388.443" y="143.636" width="96.9676" height="6.95805" rx="3.47903" fill="#F3F3F3"/>
<rect x="517.411" y="143.636" width="38.6802" height="6.95805" rx="3.47903" fill="#F3F3F3"/>
<rect x="294.024" y="158.615" width="270.067" height="23" fill="white"/>
<rect x="294.024" y="158.615" width="270.067" height="23" stroke="#DFDFDF" stroke-width="0.5"/>
<rect x="302.024" y="166.636" width="28.9824" height="6.95805" rx="3.47903" fill="#F3F3F3"/>
<rect x="335.007" y="163.615" width="30" height="13" rx="4" fill="#F3F3F3"/>
<path d="M346.463 173.615H341.643V172.545L343.923 170.555C344.283 170.235 344.559 169.932 344.753 169.645C344.953 169.359 345.053 169.055 345.053 168.735V168.625C345.053 168.259 344.953 167.979 344.753 167.785C344.553 167.585 344.263 167.485 343.883 167.485C343.496 167.485 343.196 167.589 342.983 167.795C342.776 168.002 342.626 168.265 342.533 168.585L341.553 168.215C341.619 167.995 341.716 167.785 341.843 167.585C341.969 167.379 342.129 167.195 342.323 167.035C342.523 166.875 342.756 166.749 343.023 166.655C343.296 166.562 343.609 166.515 343.963 166.515C344.323 166.515 344.643 166.569 344.923 166.675C345.209 166.775 345.449 166.915 345.643 167.095C345.836 167.275 345.983 167.492 346.083 167.745C346.183 167.992 346.233 168.265 346.233 168.565C346.233 168.845 346.189 169.105 346.103 169.345C346.023 169.579 345.906 169.805 345.753 170.025C345.606 170.239 345.429 170.445 345.223 170.645C345.016 170.845 344.789 171.045 344.543 171.245L342.853 172.665H346.463V173.615ZM350.009 173.735C349.569 173.735 349.185 173.655 348.859 173.495C348.539 173.329 348.272 173.092 348.059 172.785C347.852 172.479 347.699 172.102 347.599 171.655C347.499 171.209 347.449 170.699 347.449 170.125C347.449 169.559 347.499 169.052 347.599 168.605C347.699 168.152 347.852 167.772 348.059 167.465C348.272 167.159 348.539 166.925 348.859 166.765C349.185 166.599 349.569 166.515 350.009 166.515C350.449 166.515 350.829 166.599 351.149 166.765C351.475 166.925 351.742 167.159 351.949 167.465C352.162 167.772 352.319 168.152 352.419 168.605C352.519 169.052 352.569 169.559 352.569 170.125C352.569 170.699 352.519 171.209 352.419 171.655C352.319 172.102 352.162 172.479 351.949 172.785C351.742 173.092 351.475 173.329 351.149 173.495C350.829 173.655 350.449 173.735 350.009 173.735ZM350.009 172.815C350.515 172.815 350.875 172.629 351.089 172.255C351.309 171.875 351.419 171.365 351.419 170.725V169.525C351.419 168.885 351.309 168.379 351.089 168.005C350.875 167.625 350.515 167.435 350.009 167.435C349.755 167.435 349.539 167.485 349.359 167.585C349.179 167.679 349.032 167.819 348.919 168.005C348.805 168.185 348.722 168.405 348.669 168.665C348.622 168.919 348.599 169.205 348.599 169.525V170.725C348.599 171.045 348.622 171.335 348.669 171.595C348.722 171.849 348.805 172.069 348.919 172.255C349.032 172.435 349.179 172.575 349.359 172.675C349.539 172.769 349.755 172.815 350.009 172.815ZM350.009 170.715C349.775 170.715 349.612 170.669 349.519 170.575C349.432 170.482 349.389 170.369 349.389 170.235V170.015C349.389 169.882 349.432 169.769 349.519 169.675C349.612 169.582 349.775 169.535 350.009 169.535C350.242 169.535 350.402 169.582 350.489 169.675C350.582 169.769 350.629 169.882 350.629 170.015V170.235C350.629 170.369 350.582 170.482 350.489 170.575C350.402 170.669 350.242 170.715 350.009 170.715ZM356.005 173.735C355.565 173.735 355.182 173.655 354.855 173.495C354.535 173.329 354.268 173.092 354.055 172.785C353.848 172.479 353.695 172.102 353.595 171.655C353.495 171.209 353.445 170.699 353.445 170.125C353.445 169.559 353.495 169.052 353.595 168.605C353.695 168.152 353.848 167.772 354.055 167.465C354.268 167.159 354.535 166.925 354.855 166.765C355.182 166.599 355.565 166.515 356.005 166.515C356.445 166.515 356.825 166.599 357.145 166.765C357.472 166.925 357.738 167.159 357.945 167.465C358.158 167.772 358.315 168.152 358.415 168.605C358.515 169.052 358.565 169.559 358.565 170.125C358.565 170.699 358.515 171.209 358.415 171.655C358.315 172.102 358.158 172.479 357.945 172.785C357.738 173.092 357.472 173.329 357.145 173.495C356.825 173.655 356.445 173.735 356.005 173.735ZM356.005 172.815C356.512 172.815 356.872 172.629 357.085 172.255C357.305 171.875 357.415 171.365 357.415 170.725V169.525C357.415 168.885 357.305 168.379 357.085 168.005C356.872 167.625 356.512 167.435 356.005 167.435C355.752 167.435 355.535 167.485 355.355 167.585C355.175 167.679 355.028 167.819 354.915 168.005C354.802 168.185 354.718 168.405 354.665 168.665C354.618 168.919 354.595 169.205 354.595 169.525V170.725C354.595 171.045 354.618 171.335 354.665 171.595C354.718 171.849 354.802 172.069 354.915 172.255C355.028 172.435 355.175 172.575 355.355 172.675C355.535 172.769 355.752 172.815 356.005 172.815ZM356.005 170.715C355.772 170.715 355.608 170.669 355.515 170.575C355.428 170.482 355.385 170.369 355.385 170.235V170.015C355.385 169.882 355.428 169.769 355.515 169.675C355.608 169.582 355.772 169.535 356.005 169.535C356.238 169.535 356.398 169.582 356.485 169.675C356.578 169.769 356.625 169.882 356.625 170.015V170.235C356.625 170.369 356.578 170.482 356.485 170.575C356.398 170.669 356.238 170.715 356.005 170.715Z" fill="#C7C7C7"/>
<rect x="369.007" y="166.636" width="15.437" height="6.95805" rx="3.47903" fill="#F3F3F3"/>
<rect x="388.443" y="166.636" width="96.9676" height="6.95805" rx="3.47903" fill="#F3F3F3"/>
<rect x="517.411" y="166.636" width="38.6802" height="6.95805" rx="3.47903" fill="#F3F3F3"/>
<rect x="294.024" y="181.615" width="270.067" height="23" fill="white"/>
<rect x="294.024" y="181.615" width="270.067" height="23" stroke="#DFDFDF" stroke-width="0.5"/>
<rect x="302.024" y="189.636" width="28.9824" height="6.95805" rx="3.47903" fill="#F3F3F3"/>
<rect x="335.007" y="186.615" width="30" height="13" rx="4" fill="#F3F3F3"/>
<path d="M346.463 196.615H341.643V195.545L343.923 193.555C344.283 193.235 344.559 192.932 344.753 192.645C344.953 192.359 345.053 192.055 345.053 191.735V191.625C345.053 191.259 344.953 190.979 344.753 190.785C344.553 190.585 344.263 190.485 343.883 190.485C343.496 190.485 343.196 190.589 342.983 190.795C342.776 191.002 342.626 191.265 342.533 191.585L341.553 191.215C341.619 190.995 341.716 190.785 341.843 190.585C341.969 190.379 342.129 190.195 342.323 190.035C342.523 189.875 342.756 189.749 343.023 189.655C343.296 189.562 343.609 189.515 343.963 189.515C344.323 189.515 344.643 189.569 344.923 189.675C345.209 189.775 345.449 189.915 345.643 190.095C345.836 190.275 345.983 190.492 346.083 190.745C346.183 190.992 346.233 191.265 346.233 191.565C346.233 191.845 346.189 192.105 346.103 192.345C346.023 192.579 345.906 192.805 345.753 193.025C345.606 193.239 345.429 193.445 345.223 193.645C345.016 193.845 344.789 194.045 344.543 194.245L342.853 195.665H346.463V196.615ZM350.009 196.735C349.569 196.735 349.185 196.655 348.859 196.495C348.539 196.329 348.272 196.092 348.059 195.785C347.852 195.479 347.699 195.102 347.599 194.655C347.499 194.209 347.449 193.699 347.449 193.125C347.449 192.559 347.499 192.052 347.599 191.605C347.699 191.152 347.852 190.772 348.059 190.465C348.272 190.159 348.539 189.925 348.859 189.765C349.185 189.599 349.569 189.515 350.009 189.515C350.449 189.515 350.829 189.599 351.149 189.765C351.475 189.925 351.742 190.159 351.949 190.465C352.162 190.772 352.319 191.152 352.419 191.605C352.519 192.052 352.569 192.559 352.569 193.125C352.569 193.699 352.519 194.209 352.419 194.655C352.319 195.102 352.162 195.479 351.949 195.785C351.742 196.092 351.475 196.329 351.149 196.495C350.829 196.655 350.449 196.735 350.009 196.735ZM350.009 195.815C350.515 195.815 350.875 195.629 351.089 195.255C351.309 194.875 351.419 194.365 351.419 193.725V192.525C351.419 191.885 351.309 191.379 351.089 191.005C350.875 190.625 350.515 190.435 350.009 190.435C349.755 190.435 349.539 190.485 349.359 190.585C349.179 190.679 349.032 190.819 348.919 191.005C348.805 191.185 348.722 191.405 348.669 191.665C348.622 191.919 348.599 192.205 348.599 192.525V193.725C348.599 194.045 348.622 194.335 348.669 194.595C348.722 194.849 348.805 195.069 348.919 195.255C349.032 195.435 349.179 195.575 349.359 195.675C349.539 195.769 349.755 195.815 350.009 195.815ZM350.009 193.715C349.775 193.715 349.612 193.669 349.519 193.575C349.432 193.482 349.389 193.369 349.389 193.235V193.015C349.389 192.882 349.432 192.769 349.519 192.675C349.612 192.582 349.775 192.535 350.009 192.535C350.242 192.535 350.402 192.582 350.489 192.675C350.582 192.769 350.629 192.882 350.629 193.015V193.235C350.629 193.369 350.582 193.482 350.489 193.575C350.402 193.669 350.242 193.715 350.009 193.715ZM356.005 196.735C355.565 196.735 355.182 196.655 354.855 196.495C354.535 196.329 354.268 196.092 354.055 195.785C353.848 195.479 353.695 195.102 353.595 194.655C353.495 194.209 353.445 193.699 353.445 193.125C353.445 192.559 353.495 192.052 353.595 191.605C353.695 191.152 353.848 190.772 354.055 190.465C354.268 190.159 354.535 189.925 354.855 189.765C355.182 189.599 355.565 189.515 356.005 189.515C356.445 189.515 356.825 189.599 357.145 189.765C357.472 189.925 357.738 190.159 357.945 190.465C358.158 190.772 358.315 191.152 358.415 191.605C358.515 192.052 358.565 192.559 358.565 193.125C358.565 193.699 358.515 194.209 358.415 194.655C358.315 195.102 358.158 195.479 357.945 195.785C357.738 196.092 357.472 196.329 357.145 196.495C356.825 196.655 356.445 196.735 356.005 196.735ZM356.005 195.815C356.512 195.815 356.872 195.629 357.085 195.255C357.305 194.875 357.415 194.365 357.415 193.725V192.525C357.415 191.885 357.305 191.379 357.085 191.005C356.872 190.625 356.512 190.435 356.005 190.435C355.752 190.435 355.535 190.485 355.355 190.585C355.175 190.679 355.028 190.819 354.915 191.005C354.802 191.185 354.718 191.405 354.665 191.665C354.618 191.919 354.595 192.205 354.595 192.525V193.725C354.595 194.045 354.618 194.335 354.665 194.595C354.718 194.849 354.802 195.069 354.915 195.255C355.028 195.435 355.175 195.575 355.355 195.675C355.535 195.769 355.752 195.815 356.005 195.815ZM356.005 193.715C355.772 193.715 355.608 193.669 355.515 193.575C355.428 193.482 355.385 193.369 355.385 193.235V193.015C355.385 192.882 355.428 192.769 355.515 192.675C355.608 192.582 355.772 192.535 356.005 192.535C356.238 192.535 356.398 192.582 356.485 192.675C356.578 192.769 356.625 192.882 356.625 193.015V193.235C356.625 193.369 356.578 193.482 356.485 193.575C356.398 193.669 356.238 193.715 356.005 193.715Z" fill="#C7C7C7"/>
<rect x="369.007" y="189.636" width="15.437" height="6.95805" rx="3.47903" fill="#F3F3F3"/>
<rect x="388.443" y="189.636" width="96.9676" height="6.95805" rx="3.47903" fill="#F3F3F3"/>
<rect x="517.411" y="189.636" width="38.6802" height="6.95805" rx="3.47903" fill="#F3F3F3"/>
<rect x="294.024" y="204.615" width="270.067" height="23" fill="white"/>
<rect x="294.024" y="204.615" width="270.067" height="23" stroke="#DFDFDF" stroke-width="0.5"/>
<rect x="302.024" y="212.636" width="28.9824" height="6.95805" rx="3.47903" fill="#F3F3F3"/>
<rect x="335.007" y="209.615" width="30" height="13" rx="4" fill="#F3F3F3"/>
<path d="M346.463 219.615H341.643V218.545L343.923 216.555C344.283 216.235 344.559 215.932 344.753 215.645C344.953 215.359 345.053 215.055 345.053 214.735V214.625C345.053 214.259 344.953 213.979 344.753 213.785C344.553 213.585 344.263 213.485 343.883 213.485C343.496 213.485 343.196 213.589 342.983 213.795C342.776 214.002 342.626 214.265 342.533 214.585L341.553 214.215C341.619 213.995 341.716 213.785 341.843 213.585C341.969 213.379 342.129 213.195 342.323 213.035C342.523 212.875 342.756 212.749 343.023 212.655C343.296 212.562 343.609 212.515 343.963 212.515C344.323 212.515 344.643 212.569 344.923 212.675C345.209 212.775 345.449 212.915 345.643 213.095C345.836 213.275 345.983 213.492 346.083 213.745C346.183 213.992 346.233 214.265 346.233 214.565C346.233 214.845 346.189 215.105 346.103 215.345C346.023 215.579 345.906 215.805 345.753 216.025C345.606 216.239 345.429 216.445 345.223 216.645C345.016 216.845 344.789 217.045 344.543 217.245L342.853 218.665H346.463V219.615ZM350.009 219.735C349.569 219.735 349.185 219.655 348.859 219.495C348.539 219.329 348.272 219.092 348.059 218.785C347.852 218.479 347.699 218.102 347.599 217.655C347.499 217.209 347.449 216.699 347.449 216.125C347.449 215.559 347.499 215.052 347.599 214.605C347.699 214.152 347.852 213.772 348.059 213.465C348.272 213.159 348.539 212.925 348.859 212.765C349.185 212.599 349.569 212.515 350.009 212.515C350.449 212.515 350.829 212.599 351.149 212.765C351.475 212.925 351.742 213.159 351.949 213.465C352.162 213.772 352.319 214.152 352.419 214.605C352.519 215.052 352.569 215.559 352.569 216.125C352.569 216.699 352.519 217.209 352.419 217.655C352.319 218.102 352.162 218.479 351.949 218.785C351.742 219.092 351.475 219.329 351.149 219.495C350.829 219.655 350.449 219.735 350.009 219.735ZM350.009 218.815C350.515 218.815 350.875 218.629 351.089 218.255C351.309 217.875 351.419 217.365 351.419 216.725V215.525C351.419 214.885 351.309 214.379 351.089 214.005C350.875 213.625 350.515 213.435 350.009 213.435C349.755 213.435 349.539 213.485 349.359 213.585C349.179 213.679 349.032 213.819 348.919 214.005C348.805 214.185 348.722 214.405 348.669 214.665C348.622 214.919 348.599 215.205 348.599 215.525V216.725C348.599 217.045 348.622 217.335 348.669 217.595C348.722 217.849 348.805 218.069 348.919 218.255C349.032 218.435 349.179 218.575 349.359 218.675C349.539 218.769 349.755 218.815 350.009 218.815ZM350.009 216.715C349.775 216.715 349.612 216.669 349.519 216.575C349.432 216.482 349.389 216.369 349.389 216.235V216.015C349.389 215.882 349.432 215.769 349.519 215.675C349.612 215.582 349.775 215.535 350.009 215.535C350.242 215.535 350.402 215.582 350.489 215.675C350.582 215.769 350.629 215.882 350.629 216.015V216.235C350.629 216.369 350.582 216.482 350.489 216.575C350.402 216.669 350.242 216.715 350.009 216.715ZM356.005 219.735C355.565 219.735 355.182 219.655 354.855 219.495C354.535 219.329 354.268 219.092 354.055 218.785C353.848 218.479 353.695 218.102 353.595 217.655C353.495 217.209 353.445 216.699 353.445 216.125C353.445 215.559 353.495 215.052 353.595 214.605C353.695 214.152 353.848 213.772 354.055 213.465C354.268 213.159 354.535 212.925 354.855 212.765C355.182 212.599 355.565 212.515 356.005 212.515C356.445 212.515 356.825 212.599 357.145 212.765C357.472 212.925 357.738 213.159 357.945 213.465C358.158 213.772 358.315 214.152 358.415 214.605C358.515 215.052 358.565 215.559 358.565 216.125C358.565 216.699 358.515 217.209 358.415 217.655C358.315 218.102 358.158 218.479 357.945 218.785C357.738 219.092 357.472 219.329 357.145 219.495C356.825 219.655 356.445 219.735 356.005 219.735ZM356.005 218.815C356.512 218.815 356.872 218.629 357.085 218.255C357.305 217.875 357.415 217.365 357.415 216.725V215.525C357.415 214.885 357.305 214.379 357.085 214.005C356.872 213.625 356.512 213.435 356.005 213.435C355.752 213.435 355.535 213.485 355.355 213.585C355.175 213.679 355.028 213.819 354.915 214.005C354.802 214.185 354.718 214.405 354.665 214.665C354.618 214.919 354.595 215.205 354.595 215.525V216.725C354.595 217.045 354.618 217.335 354.665 217.595C354.718 217.849 354.802 218.069 354.915 218.255C355.028 218.435 355.175 218.575 355.355 218.675C355.535 218.769 355.752 218.815 356.005 218.815ZM356.005 216.715C355.772 216.715 355.608 216.669 355.515 216.575C355.428 216.482 355.385 216.369 355.385 216.235V216.015C355.385 215.882 355.428 215.769 355.515 215.675C355.608 215.582 355.772 215.535 356.005 215.535C356.238 215.535 356.398 215.582 356.485 215.675C356.578 215.769 356.625 215.882 356.625 216.015V216.235C356.625 216.369 356.578 216.482 356.485 216.575C356.398 216.669 356.238 216.715 356.005 216.715Z" fill="#C7C7C7"/>
<rect x="369.007" y="212.636" width="15.437" height="6.95805" rx="3.47903" fill="#F3F3F3"/>
<rect x="388.443" y="212.636" width="96.9676" height="6.95805" rx="3.47903" fill="#F3F3F3"/>
<rect x="517.411" y="212.636" width="38.6802" height="6.95805" rx="3.47903" fill="#F3F3F3"/>
</g>
</g>
<defs>
<linearGradient id="paint0_linear_895_5180" x1="663.131" y1="112.615" x2="607.31" y2="112.615" gradientUnits="userSpaceOnUse">
<stop offset="0.00550741" stop-color="#7D7D7D"/>
<stop offset="0.895" stop-color="#171717" stop-opacity="0"/>
</linearGradient>
<linearGradient id="paint1_linear_895_5180" x1="635.993" y1="112.615" x2="560.58" y2="112.615" gradientUnits="userSpaceOnUse">
<stop stop-color="#7D7D7D"/>
<stop offset="1" stop-color="#171717" stop-opacity="0"/>
</linearGradient>
<linearGradient id="paint2_linear_895_5180" x1="571.658" y1="110.177" x2="275.369" y2="110.177" gradientUnits="userSpaceOnUse">
<stop offset="0.53" stop-color="#737373"/>
<stop offset="0.928151" stop-color="#D9D9D9" stop-opacity="0"/>
</linearGradient>
<linearGradient id="paint3_linear_895_5180" x1="270.067" y1="138" x2="-10.5002" y2="138" gradientUnits="userSpaceOnUse">
<stop offset="0.53" stop-color="#737373"/>
<stop offset="0.928151" stop-color="#D9D9D9" stop-opacity="0"/>
</linearGradient>
<clipPath id="clip0_895_5180">
<rect width="764" height="219" fill="white" transform="translate(0 0.580078)"/>
</clipPath>
</defs>
</svg>
