<svg width="349" height="175" viewBox="0 0 349 175" fill="none" xmlns="http://www.w3.org/2000/svg">
<g clip-path="url(#clip0_893_3319)">
<rect width="349" height="174" transform="translate(0 0.580078)" fill="#171717"/>
<g clip-path="url(#clip1_893_3319)">
<rect width="607.013" height="174" transform="translate(-247 0.580078)" fill="#171717"/>
<mask id="mask0_893_3319" style="mask-type:alpha" maskUnits="userSpaceOnUse" x="193" y="25" width="90" height="130">
<rect x="193.367" y="25.0377" width="88.6931" height="129.113" fill="url(#paint0_linear_893_3319)"/>
</mask>
<g mask="url(#mask0_893_3319)">
<path d="M194.193 68.724H214.331C216.434 68.724 218.504 67.9326 220.351 66.4225L258.537 35.187C260.383 33.6769 262.453 32.8855 264.557 32.8855M194.193 73.822H214.331C216.434 73.822 218.504 73.2284 220.351 72.0959L258.537 48.6692C260.383 47.5366 262.453 46.9431 264.557 46.9431H284.596M194.193 79.4058H214.331C216.434 79.4058 218.504 79.0101 220.351 78.255L258.537 62.6373C260.383 61.8822 262.453 61.4865 264.557 61.4865H272.065H275.819M194.193 84.7437H214.331C216.434 84.7437 218.504 84.5459 220.351 84.1684L258.537 76.3595C260.383 75.982 262.453 75.7841 264.557 75.7841H272.065M194.193 89.2408H214.331C216.434 89.2408 218.504 89.2408 220.351 89.2408H258.537C260.383 89.2408 281.166 89.2408 283.27 89.2408M194.193 93.9773H214.331C216.434 93.9773 218.504 94.1752 220.351 94.5527L258.537 102.362C260.383 102.739 262.453 102.937 264.557 102.937H272.065M194.193 99.0759H214.331C216.434 99.0759 218.504 99.4716 220.351 100.227L258.537 115.844C260.383 116.599 262.453 116.995 264.557 116.995H272.065H275.819M194.193 104.899H214.331C216.434 104.899 218.504 105.492 220.351 106.625L258.537 130.051C260.383 131.184 262.453 131.777 264.557 131.777H284.596M194.193 109.997H214.331C216.434 109.997 218.504 110.789 220.351 112.299L258.537 143.534C260.383 145.044 262.453 145.836 264.557 145.836" stroke="#B4B4B4" stroke-width="0.39726"/>
</g>
<mask id="mask1_893_3319" style="mask-type:alpha" maskUnits="userSpaceOnUse" x="198" y="30" width="90" height="119">
<rect x="198.392" y="30.7178" width="88.6931" height="117.753" fill="url(#paint1_linear_893_3319)"/>
</mask>
<g mask="url(#mask1_893_3319)">
<path d="M199.217 71.4109H219.354C221.458 71.4109 223.528 70.6891 225.374 69.3119L244.467 55.0682M199.217 80.3022H219.354C221.458 80.3022 223.528 79.9414 225.374 79.2527L234.921 75.6918L239.694 73.9114M199.217 89.2719H219.354C221.458 89.2719 223.528 89.2719 225.374 89.2719H234.921H239.694M199.217 98.2417H219.354C221.458 98.2417 223.528 98.6026 225.374 99.2912L234.921 102.852M199.217 107.839H219.354C221.458 107.839 223.528 108.561 225.374 109.938L244.467 124.182" stroke="#B4B4B4" stroke-width="0.39726"/>
</g>
<rect x="-2" y="-2.05481" width="202" height="17.9452" fill="#171717"/>
<rect x="-2" y="-2.05481" width="202" height="17.9452" stroke="#2E2E2E" stroke-width="0.39726"/>
<rect x="4.35645" y="4.15369" width="23.0271" height="5.52831" rx="2.76416" fill="#212121"/>
<rect x="30.5615" y="1.91785" width="24.5342" height="10" rx="3.17808" fill="#212121"/>
<path d="M40.0132 9.91785H36.1836V9.06771L37.9951 7.48662C38.2812 7.23237 38.501 6.99137 38.6546 6.7636C38.8135 6.53584 38.8929 6.29484 38.8929 6.04059V5.95319C38.8929 5.66187 38.8135 5.4394 38.6546 5.2858C38.4957 5.12689 38.2653 5.04744 37.9634 5.04744C37.6561 5.04744 37.4178 5.12954 37.2483 5.29374C37.0841 5.45794 36.9649 5.66717 36.8908 5.92141L36.1121 5.62744C36.1651 5.45265 36.2419 5.2858 36.3425 5.12689C36.4432 4.96269 36.5703 4.81703 36.7239 4.68991C36.8828 4.56278 37.0682 4.46214 37.2801 4.38799C37.4972 4.31383 37.7462 4.27676 38.0269 4.27676C38.3129 4.27676 38.5672 4.31913 38.7897 4.40388C39.0174 4.48333 39.2081 4.59456 39.3617 4.73758C39.5153 4.88059 39.6318 5.05274 39.7113 5.25402C39.7907 5.45 39.8305 5.66717 39.8305 5.90552C39.8305 6.12799 39.796 6.33456 39.7272 6.52525C39.6636 6.71064 39.5709 6.89073 39.4491 7.06552C39.3326 7.23502 39.1922 7.39922 39.028 7.55812C38.8638 7.71703 38.6837 7.87593 38.4877 8.03483L37.145 9.16305H40.0132V9.91785ZM42.8307 10.0132C42.4811 10.0132 42.1765 9.94963 41.917 9.8225C41.6627 9.69008 41.4508 9.50205 41.2813 9.2584C41.1171 9.01474 40.9953 8.71547 40.9159 8.36059C40.8364 8.0057 40.7967 7.6005 40.7967 7.14497C40.7967 6.69475 40.8364 6.29219 40.9159 5.9373C40.9953 5.57712 41.1171 5.2752 41.2813 5.03155C41.4508 4.7879 41.6627 4.60251 41.917 4.47539C42.1765 4.34297 42.4811 4.27676 42.8307 4.27676C43.1802 4.27676 43.4822 4.34297 43.7364 4.47539C43.9959 4.60251 44.2078 4.7879 44.372 5.03155C44.5415 5.2752 44.666 5.57712 44.7454 5.9373C44.8249 6.29219 44.8646 6.69475 44.8646 7.14497C44.8646 7.6005 44.8249 8.0057 44.7454 8.36059C44.666 8.71547 44.5415 9.01474 44.372 9.2584C44.2078 9.50205 43.9959 9.69008 43.7364 9.8225C43.4822 9.94963 43.1802 10.0132 42.8307 10.0132ZM42.8307 9.28223C43.2332 9.28223 43.5192 9.13392 43.6887 8.8373C43.8635 8.53538 43.9509 8.13018 43.9509 7.62168V6.66826C43.9509 6.15977 43.8635 5.75721 43.6887 5.46059C43.5192 5.15867 43.2332 5.00771 42.8307 5.00771C42.6294 5.00771 42.4572 5.04744 42.3142 5.12689C42.1712 5.20105 42.0547 5.31228 41.9646 5.46059C41.8746 5.6036 41.8084 5.7784 41.766 5.98497C41.7289 6.18625 41.7104 6.41401 41.7104 6.66826V7.62168C41.7104 7.87593 41.7289 8.10634 41.766 8.31292C41.8084 8.5142 41.8746 8.68899 41.9646 8.8373C42.0547 8.98031 42.1712 9.09155 42.3142 9.171C42.4572 9.24515 42.6294 9.28223 42.8307 9.28223ZM42.8307 7.61374C42.6453 7.61374 42.5155 7.57666 42.4413 7.50251C42.3725 7.42835 42.3381 7.33831 42.3381 7.23237V7.05758C42.3381 6.95164 42.3725 6.86159 42.4413 6.78744C42.5155 6.71328 42.6453 6.67621 42.8307 6.67621C43.016 6.67621 43.1432 6.71328 43.212 6.78744C43.2862 6.86159 43.3233 6.95164 43.3233 7.05758V7.23237C43.3233 7.33831 43.2862 7.42835 43.212 7.50251C43.1432 7.57666 43.016 7.61374 42.8307 7.61374ZM47.5947 10.0132C47.2451 10.0132 46.9405 9.94963 46.681 9.8225C46.4267 9.69008 46.2149 9.50205 46.0454 9.2584C45.8812 9.01474 45.7593 8.71547 45.6799 8.36059C45.6004 8.0057 45.5607 7.6005 45.5607 7.14497C45.5607 6.69475 45.6004 6.29219 45.6799 5.9373C45.7593 5.57712 45.8812 5.2752 46.0454 5.03155C46.2149 4.7879 46.4267 4.60251 46.681 4.47539C46.9405 4.34297 47.2451 4.27676 47.5947 4.27676C47.9443 4.27676 48.2462 4.34297 48.5004 4.47539C48.76 4.60251 48.9718 4.7879 49.136 5.03155C49.3055 5.2752 49.43 5.57712 49.5095 5.9373C49.5889 6.29219 49.6286 6.69475 49.6286 7.14497C49.6286 7.6005 49.5889 8.0057 49.5095 8.36059C49.43 8.71547 49.3055 9.01474 49.136 9.2584C48.9718 9.50205 48.76 9.69008 48.5004 9.8225C48.2462 9.94963 47.9443 10.0132 47.5947 10.0132ZM47.5947 9.28223C47.9972 9.28223 48.2833 9.13392 48.4527 8.8373C48.6275 8.53538 48.7149 8.13018 48.7149 7.62168V6.66826C48.7149 6.15977 48.6275 5.75721 48.4527 5.46059C48.2833 5.15867 47.9972 5.00771 47.5947 5.00771C47.3934 5.00771 47.2212 5.04744 47.0782 5.12689C46.9352 5.20105 46.8187 5.31228 46.7286 5.46059C46.6386 5.6036 46.5724 5.7784 46.53 5.98497C46.4929 6.18625 46.4744 6.41401 46.4744 6.66826V7.62168C46.4744 7.87593 46.4929 8.10634 46.53 8.31292C46.5724 8.5142 46.6386 8.68899 46.7286 8.8373C46.8187 8.98031 46.9352 9.09155 47.0782 9.171C47.2212 9.24515 47.3934 9.28223 47.5947 9.28223ZM47.5947 7.61374C47.4093 7.61374 47.2795 7.57666 47.2054 7.50251C47.1365 7.42835 47.1021 7.33831 47.1021 7.23237V7.05758C47.1021 6.95164 47.1365 6.86159 47.2054 6.78744C47.2795 6.71328 47.4093 6.67621 47.5947 6.67621C47.7801 6.67621 47.9072 6.71328 47.976 6.78744C48.0502 6.86159 48.0873 6.95164 48.0873 7.05758V7.23237C48.0873 7.33831 48.0502 7.42835 47.976 7.50251C47.9072 7.57666 47.7801 7.61374 47.5947 7.61374Z" fill="#393939"/>
<rect x="58.2744" y="4.15369" width="12.265" height="5.52831" rx="2.76416" fill="#212121"/>
<rect x="73.7168" y="4.15369" width="63.7703" height="5.52831" rx="2.76416" fill="#212121"/>
<rect x="162.912" y="4.15369" width="30.7322" height="5.52831" rx="2.76416" fill="#212121"/>
<rect x="-2" y="15.8904" width="202" height="17.9452" fill="#171717"/>
<rect x="-2" y="15.8904" width="202" height="17.9452" stroke="#2E2E2E" stroke-width="0.39726"/>
<rect x="4.35645" y="22.0989" width="23.0271" height="5.52831" rx="2.76416" fill="#212121"/>
<rect x="30.5615" y="19.863" width="24.5342" height="10" rx="3.17808" fill="#212121"/>
<path d="M40.0132 27.863H36.1836V27.0129L37.9951 25.4318C38.2812 25.1776 38.501 24.9366 38.6546 24.7088C38.8135 24.481 38.8929 24.24 38.8929 23.9858V23.8984C38.8929 23.6071 38.8135 23.3846 38.6546 23.231C38.4957 23.0721 38.2653 22.9926 37.9634 22.9926C37.6561 22.9926 37.4178 23.0747 37.2483 23.2389C37.0841 23.4031 36.9649 23.6124 36.8908 23.8666L36.1121 23.5726C36.1651 23.3978 36.2419 23.231 36.3425 23.0721C36.4432 22.9079 36.5703 22.7622 36.7239 22.6351C36.8828 22.508 37.0682 22.4073 37.2801 22.3332C37.4972 22.259 37.7462 22.2219 38.0269 22.2219C38.3129 22.2219 38.5672 22.2643 38.7897 22.3491C39.0174 22.4285 39.2081 22.5398 39.3617 22.6828C39.5153 22.8258 39.6318 22.9979 39.7113 23.1992C39.7907 23.3952 39.8305 23.6124 39.8305 23.8507C39.8305 24.0732 39.796 24.2798 39.7272 24.4704C39.6636 24.6558 39.5709 24.8359 39.4491 25.0107C39.3326 25.1802 39.1922 25.3444 39.028 25.5033C38.8638 25.6622 38.6837 25.8211 38.4877 25.98L37.145 27.1082H40.0132V27.863ZM42.8307 27.9584C42.4811 27.9584 42.1765 27.8948 41.917 27.7677C41.6627 27.6353 41.4508 27.4472 41.2813 27.2036C41.1171 26.9599 40.9953 26.6607 40.9159 26.3058C40.8364 25.9509 40.7967 25.5457 40.7967 25.0902C40.7967 24.6399 40.8364 24.2374 40.9159 23.8825C40.9953 23.5223 41.1171 23.2204 41.2813 22.9767C41.4508 22.7331 41.6627 22.5477 41.917 22.4206C42.1765 22.2882 42.4811 22.2219 42.8307 22.2219C43.1802 22.2219 43.4822 22.2882 43.7364 22.4206C43.9959 22.5477 44.2078 22.7331 44.372 22.9767C44.5415 23.2204 44.666 23.5223 44.7454 23.8825C44.8249 24.2374 44.8646 24.6399 44.8646 25.0902C44.8646 25.5457 44.8249 25.9509 44.7454 26.3058C44.666 26.6607 44.5415 26.9599 44.372 27.2036C44.2078 27.4472 43.9959 27.6353 43.7364 27.7677C43.4822 27.8948 43.1802 27.9584 42.8307 27.9584ZM42.8307 27.2274C43.2332 27.2274 43.5192 27.0791 43.6887 26.7825C43.8635 26.4806 43.9509 26.0754 43.9509 25.5669V24.6135C43.9509 24.105 43.8635 23.7024 43.6887 23.4058C43.5192 23.1039 43.2332 22.9529 42.8307 22.9529C42.6294 22.9529 42.4572 22.9926 42.3142 23.0721C42.1712 23.1462 42.0547 23.2575 41.9646 23.4058C41.8746 23.5488 41.8084 23.7236 41.766 23.9302C41.7289 24.1314 41.7104 24.3592 41.7104 24.6135V25.5669C41.7104 25.8211 41.7289 26.0515 41.766 26.2581C41.8084 26.4594 41.8746 26.6342 41.9646 26.7825C42.0547 26.9255 42.1712 27.0367 42.3142 27.1162C42.4572 27.1903 42.6294 27.2274 42.8307 27.2274ZM42.8307 25.5589C42.6453 25.5589 42.5155 25.5219 42.4413 25.4477C42.3725 25.3735 42.3381 25.2835 42.3381 25.1776V25.0028C42.3381 24.8968 42.3725 24.8068 42.4413 24.7326C42.5155 24.6585 42.6453 24.6214 42.8307 24.6214C43.016 24.6214 43.1432 24.6585 43.212 24.7326C43.2862 24.8068 43.3233 24.8968 43.3233 25.0028V25.1776C43.3233 25.2835 43.2862 25.3735 43.212 25.4477C43.1432 25.5219 43.016 25.5589 42.8307 25.5589ZM47.5947 27.9584C47.2451 27.9584 46.9405 27.8948 46.681 27.7677C46.4267 27.6353 46.2149 27.4472 46.0454 27.2036C45.8812 26.9599 45.7593 26.6607 45.6799 26.3058C45.6004 25.9509 45.5607 25.5457 45.5607 25.0902C45.5607 24.6399 45.6004 24.2374 45.6799 23.8825C45.7593 23.5223 45.8812 23.2204 46.0454 22.9767C46.2149 22.7331 46.4267 22.5477 46.681 22.4206C46.9405 22.2882 47.2451 22.2219 47.5947 22.2219C47.9443 22.2219 48.2462 22.2882 48.5004 22.4206C48.76 22.5477 48.9718 22.7331 49.136 22.9767C49.3055 23.2204 49.43 23.5223 49.5095 23.8825C49.5889 24.2374 49.6286 24.6399 49.6286 25.0902C49.6286 25.5457 49.5889 25.9509 49.5095 26.3058C49.43 26.6607 49.3055 26.9599 49.136 27.2036C48.9718 27.4472 48.76 27.6353 48.5004 27.7677C48.2462 27.8948 47.9443 27.9584 47.5947 27.9584ZM47.5947 27.2274C47.9972 27.2274 48.2833 27.0791 48.4527 26.7825C48.6275 26.4806 48.7149 26.0754 48.7149 25.5669V24.6135C48.7149 24.105 48.6275 23.7024 48.4527 23.4058C48.2833 23.1039 47.9972 22.9529 47.5947 22.9529C47.3934 22.9529 47.2212 22.9926 47.0782 23.0721C46.9352 23.1462 46.8187 23.2575 46.7286 23.4058C46.6386 23.5488 46.5724 23.7236 46.53 23.9302C46.4929 24.1314 46.4744 24.3592 46.4744 24.6135V25.5669C46.4744 25.8211 46.4929 26.0515 46.53 26.2581C46.5724 26.4594 46.6386 26.6342 46.7286 26.7825C46.8187 26.9255 46.9352 27.0367 47.0782 27.1162C47.2212 27.1903 47.3934 27.2274 47.5947 27.2274ZM47.5947 25.5589C47.4093 25.5589 47.2795 25.5219 47.2054 25.4477C47.1365 25.3735 47.1021 25.2835 47.1021 25.1776V25.0028C47.1021 24.8968 47.1365 24.8068 47.2054 24.7326C47.2795 24.6585 47.4093 24.6214 47.5947 24.6214C47.7801 24.6214 47.9072 24.6585 47.976 24.7326C48.0502 24.8068 48.0873 24.8968 48.0873 25.0028V25.1776C48.0873 25.2835 48.0502 25.3735 47.976 25.4477C47.9072 25.5219 47.7801 25.5589 47.5947 25.5589Z" fill="#393939"/>
<rect x="58.2744" y="22.0989" width="12.265" height="5.52831" rx="2.76416" fill="#212121"/>
<rect x="73.7168" y="22.0989" width="63.7703" height="5.52831" rx="2.76416" fill="#212121"/>
<rect x="162.912" y="22.0989" width="30.7322" height="5.52831" rx="2.76416" fill="#212121"/>
<rect x="-2" y="33.8356" width="202" height="17.9452" fill="#171717"/>
<rect x="-2" y="33.8356" width="202" height="17.9452" stroke="#2E2E2E" stroke-width="0.39726"/>
<rect x="4.35645" y="40.0441" width="23.0271" height="5.52831" rx="2.76416" fill="#212121"/>
<rect x="30.5615" y="37.8082" width="24.5342" height="10" rx="3.17808" fill="#212121"/>
<path d="M40.0132 45.8082H36.1836V44.9581L37.9951 43.377C38.2812 43.1228 38.501 42.8817 38.6546 42.654C38.8135 42.4262 38.8929 42.1852 38.8929 41.931V41.8436C38.8929 41.5523 38.8135 41.3298 38.6546 41.1762C38.4957 41.0173 38.2653 40.9378 37.9634 40.9378C37.6561 40.9378 37.4178 41.0199 37.2483 41.1841C37.0841 41.3483 36.9649 41.5575 36.8908 41.8118L36.1121 41.5178C36.1651 41.343 36.2419 41.1762 36.3425 41.0173C36.4432 40.8531 36.5703 40.7074 36.7239 40.5803C36.8828 40.4532 37.0682 40.3525 37.2801 40.2784C37.4972 40.2042 37.7462 40.1671 38.0269 40.1671C38.3129 40.1671 38.5672 40.2095 38.7897 40.2943C39.0174 40.3737 39.2081 40.4849 39.3617 40.628C39.5153 40.771 39.6318 40.9431 39.7113 41.1444C39.7907 41.3404 39.8305 41.5575 39.8305 41.7959C39.8305 42.0184 39.796 42.2249 39.7272 42.4156C39.6636 42.601 39.5709 42.7811 39.4491 42.9559C39.3326 43.1254 39.1922 43.2896 39.028 43.4485C38.8638 43.6074 38.6837 43.7663 38.4877 43.9252L37.145 45.0534H40.0132V45.8082ZM42.8307 45.9036C42.4811 45.9036 42.1765 45.84 41.917 45.7129C41.6627 45.5805 41.4508 45.3924 41.2813 45.1488C41.1171 44.9051 40.9953 44.6059 40.9159 44.251C40.8364 43.8961 40.7967 43.4909 40.7967 43.0354C40.7967 42.5851 40.8364 42.1826 40.9159 41.8277C40.9953 41.4675 41.1171 41.1656 41.2813 40.9219C41.4508 40.6783 41.6627 40.4929 41.917 40.3658C42.1765 40.2333 42.4811 40.1671 42.8307 40.1671C43.1802 40.1671 43.4822 40.2333 43.7364 40.3658C43.9959 40.4929 44.2078 40.6783 44.372 40.9219C44.5415 41.1656 44.666 41.4675 44.7454 41.8277C44.8249 42.1826 44.8646 42.5851 44.8646 43.0354C44.8646 43.4909 44.8249 43.8961 44.7454 44.251C44.666 44.6059 44.5415 44.9051 44.372 45.1488C44.2078 45.3924 43.9959 45.5805 43.7364 45.7129C43.4822 45.84 43.1802 45.9036 42.8307 45.9036ZM42.8307 45.1726C43.2332 45.1726 43.5192 45.0243 43.6887 44.7277C43.8635 44.4258 43.9509 44.0206 43.9509 43.5121V42.5586C43.9509 42.0501 43.8635 41.6476 43.6887 41.351C43.5192 41.0491 43.2332 40.8981 42.8307 40.8981C42.6294 40.8981 42.4572 40.9378 42.3142 41.0173C42.1712 41.0914 42.0547 41.2027 41.9646 41.351C41.8746 41.494 41.8084 41.6688 41.766 41.8754C41.7289 42.0766 41.7104 42.3044 41.7104 42.5586V43.5121C41.7104 43.7663 41.7289 43.9967 41.766 44.2033C41.8084 44.4046 41.8746 44.5794 41.9646 44.7277C42.0547 44.8707 42.1712 44.9819 42.3142 45.0614C42.4572 45.1355 42.6294 45.1726 42.8307 45.1726ZM42.8307 43.5041C42.6453 43.5041 42.5155 43.467 42.4413 43.3929C42.3725 43.3187 42.3381 43.2287 42.3381 43.1228V42.948C42.3381 42.842 42.3725 42.752 42.4413 42.6778C42.5155 42.6037 42.6453 42.5666 42.8307 42.5666C43.016 42.5666 43.1432 42.6037 43.212 42.6778C43.2862 42.752 43.3233 42.842 43.3233 42.948V43.1228C43.3233 43.2287 43.2862 43.3187 43.212 43.3929C43.1432 43.467 43.016 43.5041 42.8307 43.5041ZM47.5947 45.9036C47.2451 45.9036 46.9405 45.84 46.681 45.7129C46.4267 45.5805 46.2149 45.3924 46.0454 45.1488C45.8812 44.9051 45.7593 44.6059 45.6799 44.251C45.6004 43.8961 45.5607 43.4909 45.5607 43.0354C45.5607 42.5851 45.6004 42.1826 45.6799 41.8277C45.7593 41.4675 45.8812 41.1656 46.0454 40.9219C46.2149 40.6783 46.4267 40.4929 46.681 40.3658C46.9405 40.2333 47.2451 40.1671 47.5947 40.1671C47.9443 40.1671 48.2462 40.2333 48.5004 40.3658C48.76 40.4929 48.9718 40.6783 49.136 40.9219C49.3055 41.1656 49.43 41.4675 49.5095 41.8277C49.5889 42.1826 49.6286 42.5851 49.6286 43.0354C49.6286 43.4909 49.5889 43.8961 49.5095 44.251C49.43 44.6059 49.3055 44.9051 49.136 45.1488C48.9718 45.3924 48.76 45.5805 48.5004 45.7129C48.2462 45.84 47.9443 45.9036 47.5947 45.9036ZM47.5947 45.1726C47.9972 45.1726 48.2833 45.0243 48.4527 44.7277C48.6275 44.4258 48.7149 44.0206 48.7149 43.5121V42.5586C48.7149 42.0501 48.6275 41.6476 48.4527 41.351C48.2833 41.0491 47.9972 40.8981 47.5947 40.8981C47.3934 40.8981 47.2212 40.9378 47.0782 41.0173C46.9352 41.0914 46.8187 41.2027 46.7286 41.351C46.6386 41.494 46.5724 41.6688 46.53 41.8754C46.4929 42.0766 46.4744 42.3044 46.4744 42.5586V43.5121C46.4744 43.7663 46.4929 43.9967 46.53 44.2033C46.5724 44.4046 46.6386 44.5794 46.7286 44.7277C46.8187 44.8707 46.9352 44.9819 47.0782 45.0614C47.2212 45.1355 47.3934 45.1726 47.5947 45.1726ZM47.5947 43.5041C47.4093 43.5041 47.2795 43.467 47.2054 43.3929C47.1365 43.3187 47.1021 43.2287 47.1021 43.1228V42.948C47.1021 42.842 47.1365 42.752 47.2054 42.6778C47.2795 42.6037 47.4093 42.5666 47.5947 42.5666C47.7801 42.5666 47.9072 42.6037 47.976 42.6778C48.0502 42.752 48.0873 42.842 48.0873 42.948V43.1228C48.0873 43.2287 48.0502 43.3187 47.976 43.3929C47.9072 43.467 47.7801 43.5041 47.5947 43.5041Z" fill="#393939"/>
<rect x="58.2744" y="40.0441" width="12.265" height="5.52831" rx="2.76416" fill="#212121"/>
<rect x="73.7168" y="40.0441" width="63.7703" height="5.52831" rx="2.76416" fill="#212121"/>
<rect x="162.912" y="40.0441" width="30.7322" height="5.52831" rx="2.76416" fill="#212121"/>
<rect x="-2" y="51.7808" width="202" height="17.9452" fill="#171717"/>
<rect x="-2" y="51.7808" width="202" height="17.9452" stroke="#2E2E2E" stroke-width="0.39726"/>
<rect x="4.35645" y="57.9893" width="23.0271" height="5.52831" rx="2.76416" fill="#212121"/>
<rect x="30.5615" y="55.7534" width="24.5342" height="10" rx="3.17808" fill="#212121"/>
<path d="M40.0132 63.7534H36.1836V62.9033L37.9951 61.3222C38.2812 61.0679 38.501 60.8269 38.6546 60.5992C38.8135 60.3714 38.8929 60.1304 38.8929 59.8762V59.7888C38.8929 59.4974 38.8135 59.275 38.6546 59.1214C38.4957 58.9625 38.2653 58.883 37.9634 58.883C37.6561 58.883 37.4178 58.9651 37.2483 59.1293C37.0841 59.2935 36.9649 59.5027 36.8908 59.757L36.1121 59.463C36.1651 59.2882 36.2419 59.1214 36.3425 58.9625C36.4432 58.7983 36.5703 58.6526 36.7239 58.5255C36.8828 58.3984 37.0682 58.2977 37.2801 58.2236C37.4972 58.1494 37.7462 58.1123 38.0269 58.1123C38.3129 58.1123 38.5672 58.1547 38.7897 58.2395C39.0174 58.3189 39.2081 58.4301 39.3617 58.5731C39.5153 58.7162 39.6318 58.8883 39.7113 59.0896C39.7907 59.2856 39.8305 59.5027 39.8305 59.7411C39.8305 59.9636 39.796 60.1701 39.7272 60.3608C39.6636 60.5462 39.5709 60.7263 39.4491 60.9011C39.3326 61.0706 39.1922 61.2348 39.028 61.3937C38.8638 61.5526 38.6837 61.7115 38.4877 61.8704L37.145 62.9986H40.0132V63.7534ZM42.8307 63.8488C42.4811 63.8488 42.1765 63.7852 41.917 63.6581C41.6627 63.5257 41.4508 63.3376 41.2813 63.094C41.1171 62.8503 40.9953 62.551 40.9159 62.1962C40.8364 61.8413 40.7967 61.4361 40.7967 60.9805C40.7967 60.5303 40.8364 60.1278 40.9159 59.7729C40.9953 59.4127 41.1171 59.1108 41.2813 58.8671C41.4508 58.6235 41.6627 58.4381 41.917 58.311C42.1765 58.1785 42.4811 58.1123 42.8307 58.1123C43.1802 58.1123 43.4822 58.1785 43.7364 58.311C43.9959 58.4381 44.2078 58.6235 44.372 58.8671C44.5415 59.1108 44.666 59.4127 44.7454 59.7729C44.8249 60.1278 44.8646 60.5303 44.8646 60.9805C44.8646 61.4361 44.8249 61.8413 44.7454 62.1962C44.666 62.551 44.5415 62.8503 44.372 63.094C44.2078 63.3376 43.9959 63.5257 43.7364 63.6581C43.4822 63.7852 43.1802 63.8488 42.8307 63.8488ZM42.8307 63.1178C43.2332 63.1178 43.5192 62.9695 43.6887 62.6729C43.8635 62.371 43.9509 61.9657 43.9509 61.4573V60.5038C43.9509 59.9953 43.8635 59.5928 43.6887 59.2962C43.5192 58.9942 43.2332 58.8433 42.8307 58.8433C42.6294 58.8433 42.4572 58.883 42.3142 58.9625C42.1712 59.0366 42.0547 59.1479 41.9646 59.2962C41.8746 59.4392 41.8084 59.614 41.766 59.8205C41.7289 60.0218 41.7104 60.2496 41.7104 60.5038V61.4573C41.7104 61.7115 41.7289 61.9419 41.766 62.1485C41.8084 62.3498 41.8746 62.5246 41.9646 62.6729C42.0547 62.8159 42.1712 62.9271 42.3142 63.0066C42.4572 63.0807 42.6294 63.1178 42.8307 63.1178ZM42.8307 61.4493C42.6453 61.4493 42.5155 61.4122 42.4413 61.3381C42.3725 61.2639 42.3381 61.1739 42.3381 61.0679V60.8931C42.3381 60.7872 42.3725 60.6972 42.4413 60.623C42.5155 60.5489 42.6453 60.5118 42.8307 60.5118C43.016 60.5118 43.1432 60.5489 43.212 60.623C43.2862 60.6972 43.3233 60.7872 43.3233 60.8931V61.0679C43.3233 61.1739 43.2862 61.2639 43.212 61.3381C43.1432 61.4122 43.016 61.4493 42.8307 61.4493ZM47.5947 63.8488C47.2451 63.8488 46.9405 63.7852 46.681 63.6581C46.4267 63.5257 46.2149 63.3376 46.0454 63.094C45.8812 62.8503 45.7593 62.551 45.6799 62.1962C45.6004 61.8413 45.5607 61.4361 45.5607 60.9805C45.5607 60.5303 45.6004 60.1278 45.6799 59.7729C45.7593 59.4127 45.8812 59.1108 46.0454 58.8671C46.2149 58.6235 46.4267 58.4381 46.681 58.311C46.9405 58.1785 47.2451 58.1123 47.5947 58.1123C47.9443 58.1123 48.2462 58.1785 48.5004 58.311C48.76 58.4381 48.9718 58.6235 49.136 58.8671C49.3055 59.1108 49.43 59.4127 49.5095 59.7729C49.5889 60.1278 49.6286 60.5303 49.6286 60.9805C49.6286 61.4361 49.5889 61.8413 49.5095 62.1962C49.43 62.551 49.3055 62.8503 49.136 63.094C48.9718 63.3376 48.76 63.5257 48.5004 63.6581C48.2462 63.7852 47.9443 63.8488 47.5947 63.8488ZM47.5947 63.1178C47.9972 63.1178 48.2833 62.9695 48.4527 62.6729C48.6275 62.371 48.7149 61.9657 48.7149 61.4573V60.5038C48.7149 59.9953 48.6275 59.5928 48.4527 59.2962C48.2833 58.9942 47.9972 58.8433 47.5947 58.8433C47.3934 58.8433 47.2212 58.883 47.0782 58.9625C46.9352 59.0366 46.8187 59.1479 46.7286 59.2962C46.6386 59.4392 46.5724 59.614 46.53 59.8205C46.4929 60.0218 46.4744 60.2496 46.4744 60.5038V61.4573C46.4744 61.7115 46.4929 61.9419 46.53 62.1485C46.5724 62.3498 46.6386 62.5246 46.7286 62.6729C46.8187 62.8159 46.9352 62.9271 47.0782 63.0066C47.2212 63.0807 47.3934 63.1178 47.5947 63.1178ZM47.5947 61.4493C47.4093 61.4493 47.2795 61.4122 47.2054 61.3381C47.1365 61.2639 47.1021 61.1739 47.1021 61.0679V60.8931C47.1021 60.7872 47.1365 60.6972 47.2054 60.623C47.2795 60.5489 47.4093 60.5118 47.5947 60.5118C47.7801 60.5118 47.9072 60.5489 47.976 60.623C48.0502 60.6972 48.0873 60.7872 48.0873 60.8931V61.0679C48.0873 61.1739 48.0502 61.2639 47.976 61.3381C47.9072 61.4122 47.7801 61.4493 47.5947 61.4493Z" fill="#393939"/>
<rect x="58.2744" y="57.9893" width="12.265" height="5.52831" rx="2.76416" fill="#212121"/>
<rect x="73.7168" y="57.9893" width="63.7703" height="5.52831" rx="2.76416" fill="#212121"/>
<rect x="162.912" y="57.9893" width="30.7322" height="5.52831" rx="2.76416" fill="#212121"/>
<rect x="-2" y="69.726" width="202" height="17.9452" fill="#171717"/>
<rect x="-2" y="69.726" width="202" height="17.9452" stroke="#2E2E2E" stroke-width="0.39726"/>
<rect x="4.35645" y="75.9344" width="23.0271" height="5.52831" rx="2.76416" fill="#212121"/>
<rect x="30.5615" y="73.6986" width="24.5342" height="10" rx="3.17808" fill="#212121"/>
<path d="M40.0132 81.6986H36.1836V80.8485L37.9951 79.2674C38.2812 79.0131 38.501 78.7721 38.6546 78.5444C38.8135 78.3166 38.8929 78.0756 38.8929 77.8214V77.734C38.8929 77.4426 38.8135 77.2202 38.6546 77.0666C38.4957 76.9077 38.2653 76.8282 37.9634 76.8282C37.6561 76.8282 37.4178 76.9103 37.2483 77.0745C37.0841 77.2387 36.9649 77.4479 36.8908 77.7022L36.1121 77.4082C36.1651 77.2334 36.2419 77.0666 36.3425 76.9077C36.4432 76.7435 36.5703 76.5978 36.7239 76.4707C36.8828 76.3435 37.0682 76.2429 37.2801 76.1688C37.4972 76.0946 37.7462 76.0575 38.0269 76.0575C38.3129 76.0575 38.5672 76.0999 38.7897 76.1846C39.0174 76.2641 39.2081 76.3753 39.3617 76.5183C39.5153 76.6614 39.6318 76.8335 39.7113 77.0348C39.7907 77.2308 39.8305 77.4479 39.8305 77.6863C39.8305 77.9087 39.796 78.1153 39.7272 78.306C39.6636 78.4914 39.5709 78.6715 39.4491 78.8463C39.3326 79.0158 39.1922 79.18 39.028 79.3389C38.8638 79.4978 38.6837 79.6567 38.4877 79.8156L37.145 80.9438H40.0132V81.6986ZM42.8307 81.794C42.4811 81.794 42.1765 81.7304 41.917 81.6033C41.6627 81.4708 41.4508 81.2828 41.2813 81.0392C41.1171 80.7955 40.9953 80.4962 40.9159 80.1413C40.8364 79.7865 40.7967 79.3813 40.7967 78.9257C40.7967 78.4755 40.8364 78.073 40.9159 77.7181C40.9953 77.3579 41.1171 77.056 41.2813 76.8123C41.4508 76.5687 41.6627 76.3833 41.917 76.2561C42.1765 76.1237 42.4811 76.0575 42.8307 76.0575C43.1802 76.0575 43.4822 76.1237 43.7364 76.2561C43.9959 76.3833 44.2078 76.5687 44.372 76.8123C44.5415 77.056 44.666 77.3579 44.7454 77.7181C44.8249 78.073 44.8646 78.4755 44.8646 78.9257C44.8646 79.3813 44.8249 79.7865 44.7454 80.1413C44.666 80.4962 44.5415 80.7955 44.372 81.0392C44.2078 81.2828 43.9959 81.4708 43.7364 81.6033C43.4822 81.7304 43.1802 81.794 42.8307 81.794ZM42.8307 81.063C43.2332 81.063 43.5192 80.9147 43.6887 80.6181C43.8635 80.3161 43.9509 79.9109 43.9509 79.4024V78.449C43.9509 77.9405 43.8635 77.538 43.6887 77.2414C43.5192 76.9394 43.2332 76.7885 42.8307 76.7885C42.6294 76.7885 42.4572 76.8282 42.3142 76.9077C42.1712 76.9818 42.0547 77.093 41.9646 77.2414C41.8746 77.3844 41.8084 77.5592 41.766 77.7657C41.7289 77.967 41.7104 78.1948 41.7104 78.449V79.4024C41.7104 79.6567 41.7289 79.8871 41.766 80.0937C41.8084 80.295 41.8746 80.4698 41.9646 80.6181C42.0547 80.7611 42.1712 80.8723 42.3142 80.9518C42.4572 81.0259 42.6294 81.063 42.8307 81.063ZM42.8307 79.3945C42.6453 79.3945 42.5155 79.3574 42.4413 79.2833C42.3725 79.2091 42.3381 79.1191 42.3381 79.0131V78.8383C42.3381 78.7324 42.3725 78.6424 42.4413 78.5682C42.5155 78.494 42.6453 78.457 42.8307 78.457C43.016 78.457 43.1432 78.494 43.212 78.5682C43.2862 78.6424 43.3233 78.7324 43.3233 78.8383V79.0131C43.3233 79.1191 43.2862 79.2091 43.212 79.2833C43.1432 79.3574 43.016 79.3945 42.8307 79.3945ZM47.5947 81.794C47.2451 81.794 46.9405 81.7304 46.681 81.6033C46.4267 81.4708 46.2149 81.2828 46.0454 81.0392C45.8812 80.7955 45.7593 80.4962 45.6799 80.1413C45.6004 79.7865 45.5607 79.3813 45.5607 78.9257C45.5607 78.4755 45.6004 78.073 45.6799 77.7181C45.7593 77.3579 45.8812 77.056 46.0454 76.8123C46.2149 76.5687 46.4267 76.3833 46.681 76.2561C46.9405 76.1237 47.2451 76.0575 47.5947 76.0575C47.9443 76.0575 48.2462 76.1237 48.5004 76.2561C48.76 76.3833 48.9718 76.5687 49.136 76.8123C49.3055 77.056 49.43 77.3579 49.5095 77.7181C49.5889 78.073 49.6286 78.4755 49.6286 78.9257C49.6286 79.3813 49.5889 79.7865 49.5095 80.1413C49.43 80.4962 49.3055 80.7955 49.136 81.0392C48.9718 81.2828 48.76 81.4708 48.5004 81.6033C48.2462 81.7304 47.9443 81.794 47.5947 81.794ZM47.5947 81.063C47.9972 81.063 48.2833 80.9147 48.4527 80.6181C48.6275 80.3161 48.7149 79.9109 48.7149 79.4024V78.449C48.7149 77.9405 48.6275 77.538 48.4527 77.2414C48.2833 76.9394 47.9972 76.7885 47.5947 76.7885C47.3934 76.7885 47.2212 76.8282 47.0782 76.9077C46.9352 76.9818 46.8187 77.093 46.7286 77.2414C46.6386 77.3844 46.5724 77.5592 46.53 77.7657C46.4929 77.967 46.4744 78.1948 46.4744 78.449V79.4024C46.4744 79.6567 46.4929 79.8871 46.53 80.0937C46.5724 80.295 46.6386 80.4698 46.7286 80.6181C46.8187 80.7611 46.9352 80.8723 47.0782 80.9518C47.2212 81.0259 47.3934 81.063 47.5947 81.063ZM47.5947 79.3945C47.4093 79.3945 47.2795 79.3574 47.2054 79.2833C47.1365 79.2091 47.1021 79.1191 47.1021 79.0131V78.8383C47.1021 78.7324 47.1365 78.6424 47.2054 78.5682C47.2795 78.494 47.4093 78.457 47.5947 78.457C47.7801 78.457 47.9072 78.494 47.976 78.5682C48.0502 78.6424 48.0873 78.7324 48.0873 78.8383V79.0131C48.0873 79.1191 48.0502 79.2091 47.976 79.2833C47.9072 79.3574 47.7801 79.3945 47.5947 79.3945Z" fill="#393939"/>
<rect x="58.2744" y="75.9344" width="12.265" height="5.52831" rx="2.76416" fill="#212121"/>
<rect x="73.7168" y="75.9344" width="63.7703" height="5.52831" rx="2.76416" fill="#212121"/>
<rect x="162.912" y="75.9344" width="30.7322" height="5.52831" rx="2.76416" fill="#212121"/>
<rect x="-2" y="87.6711" width="202" height="17.9452" fill="#171717"/>
<rect x="-2" y="87.6711" width="202" height="17.9452" stroke="#2E2E2E" stroke-width="0.39726"/>
<rect x="4.35645" y="93.8796" width="23.0271" height="5.52831" rx="2.76416" fill="#212121"/>
<rect x="30.5615" y="91.6438" width="24.5342" height="10" rx="3.17808" fill="#212121"/>
<path d="M40.0132 99.6438H36.1836V98.7937L37.9951 97.2126C38.2812 96.9583 38.501 96.7173 38.6546 96.4896C38.8135 96.2618 38.8929 96.0208 38.8929 95.7665V95.6791C38.8929 95.3878 38.8135 95.1654 38.6546 95.0117C38.4957 94.8528 38.2653 94.7734 37.9634 94.7734C37.6561 94.7734 37.4178 94.8555 37.2483 95.0197C37.0841 95.1839 36.9649 95.3931 36.8908 95.6474L36.1121 95.3534C36.1651 95.1786 36.2419 95.0117 36.3425 94.8528C36.4432 94.6886 36.5703 94.543 36.7239 94.4159C36.8828 94.2887 37.0682 94.1881 37.2801 94.1139C37.4972 94.0398 37.7462 94.0027 38.0269 94.0027C38.3129 94.0027 38.5672 94.0451 38.7897 94.1298C39.0174 94.2093 39.2081 94.3205 39.3617 94.4635C39.5153 94.6065 39.6318 94.7787 39.7113 94.98C39.7907 95.1759 39.8305 95.3931 39.8305 95.6315C39.8305 95.8539 39.796 96.0605 39.7272 96.2512C39.6636 96.4366 39.5709 96.6167 39.4491 96.7915C39.3326 96.961 39.1922 97.1252 39.028 97.2841C38.8638 97.443 38.6837 97.6019 38.4877 97.7608L37.145 98.889H40.0132V99.6438ZM42.8307 99.7391C42.4811 99.7391 42.1765 99.6756 41.917 99.5485C41.6627 99.416 41.4508 99.228 41.2813 98.9843C41.1171 98.7407 40.9953 98.4414 40.9159 98.0865C40.8364 97.7317 40.7967 97.3264 40.7967 96.8709C40.7967 96.4207 40.8364 96.0181 40.9159 95.6633C40.9953 95.3031 41.1171 95.0012 41.2813 94.7575C41.4508 94.5139 41.6627 94.3285 41.917 94.2013C42.1765 94.0689 42.4811 94.0027 42.8307 94.0027C43.1802 94.0027 43.4822 94.0689 43.7364 94.2013C43.9959 94.3285 44.2078 94.5139 44.372 94.7575C44.5415 95.0012 44.666 95.3031 44.7454 95.6633C44.8249 96.0181 44.8646 96.4207 44.8646 96.8709C44.8646 97.3264 44.8249 97.7317 44.7454 98.0865C44.666 98.4414 44.5415 98.7407 44.372 98.9843C44.2078 99.228 43.9959 99.416 43.7364 99.5485C43.4822 99.6756 43.1802 99.7391 42.8307 99.7391ZM42.8307 99.0082C43.2332 99.0082 43.5192 98.8599 43.6887 98.5633C43.8635 98.2613 43.9509 97.8561 43.9509 97.3476V96.3942C43.9509 95.8857 43.8635 95.4832 43.6887 95.1865C43.5192 94.8846 43.2332 94.7337 42.8307 94.7337C42.6294 94.7337 42.4572 94.7734 42.3142 94.8528C42.1712 94.927 42.0547 95.0382 41.9646 95.1865C41.8746 95.3296 41.8084 95.5044 41.766 95.7109C41.7289 95.9122 41.7104 96.14 41.7104 96.3942V97.3476C41.7104 97.6019 41.7289 97.8323 41.766 98.0389C41.8084 98.2401 41.8746 98.4149 41.9646 98.5633C42.0547 98.7063 42.1712 98.8175 42.3142 98.897C42.4572 98.9711 42.6294 99.0082 42.8307 99.0082ZM42.8307 97.3397C42.6453 97.3397 42.5155 97.3026 42.4413 97.2285C42.3725 97.1543 42.3381 97.0643 42.3381 96.9583V96.7835C42.3381 96.6776 42.3725 96.5875 42.4413 96.5134C42.5155 96.4392 42.6453 96.4022 42.8307 96.4022C43.016 96.4022 43.1432 96.4392 43.212 96.5134C43.2862 96.5875 43.3233 96.6776 43.3233 96.7835V96.9583C43.3233 97.0643 43.2862 97.1543 43.212 97.2285C43.1432 97.3026 43.016 97.3397 42.8307 97.3397ZM47.5947 99.7391C47.2451 99.7391 46.9405 99.6756 46.681 99.5485C46.4267 99.416 46.2149 99.228 46.0454 98.9843C45.8812 98.7407 45.7593 98.4414 45.6799 98.0865C45.6004 97.7317 45.5607 97.3264 45.5607 96.8709C45.5607 96.4207 45.6004 96.0181 45.6799 95.6633C45.7593 95.3031 45.8812 95.0012 46.0454 94.7575C46.2149 94.5139 46.4267 94.3285 46.681 94.2013C46.9405 94.0689 47.2451 94.0027 47.5947 94.0027C47.9443 94.0027 48.2462 94.0689 48.5004 94.2013C48.76 94.3285 48.9718 94.5139 49.136 94.7575C49.3055 95.0012 49.43 95.3031 49.5095 95.6633C49.5889 96.0181 49.6286 96.4207 49.6286 96.8709C49.6286 97.3264 49.5889 97.7317 49.5095 98.0865C49.43 98.4414 49.3055 98.7407 49.136 98.9843C48.9718 99.228 48.76 99.416 48.5004 99.5485C48.2462 99.6756 47.9443 99.7391 47.5947 99.7391ZM47.5947 99.0082C47.9972 99.0082 48.2833 98.8599 48.4527 98.5633C48.6275 98.2613 48.7149 97.8561 48.7149 97.3476V96.3942C48.7149 95.8857 48.6275 95.4832 48.4527 95.1865C48.2833 94.8846 47.9972 94.7337 47.5947 94.7337C47.3934 94.7337 47.2212 94.7734 47.0782 94.8528C46.9352 94.927 46.8187 95.0382 46.7286 95.1865C46.6386 95.3296 46.5724 95.5044 46.53 95.7109C46.4929 95.9122 46.4744 96.14 46.4744 96.3942V97.3476C46.4744 97.6019 46.4929 97.8323 46.53 98.0389C46.5724 98.2401 46.6386 98.4149 46.7286 98.5633C46.8187 98.7063 46.9352 98.8175 47.0782 98.897C47.2212 98.9711 47.3934 99.0082 47.5947 99.0082ZM47.5947 97.3397C47.4093 97.3397 47.2795 97.3026 47.2054 97.2285C47.1365 97.1543 47.1021 97.0643 47.1021 96.9583V96.7835C47.1021 96.6776 47.1365 96.5875 47.2054 96.5134C47.2795 96.4392 47.4093 96.4022 47.5947 96.4022C47.7801 96.4022 47.9072 96.4392 47.976 96.5134C48.0502 96.5875 48.0873 96.6776 48.0873 96.7835V96.9583C48.0873 97.0643 48.0502 97.1543 47.976 97.2285C47.9072 97.3026 47.7801 97.3397 47.5947 97.3397Z" fill="#393939"/>
<rect x="58.2744" y="93.8796" width="12.265" height="5.52831" rx="2.76416" fill="#212121"/>
<rect x="73.7168" y="93.8796" width="63.7703" height="5.52831" rx="2.76416" fill="#212121"/>
<rect x="162.912" y="93.8796" width="30.7322" height="5.52831" rx="2.76416" fill="#212121"/>
<rect x="-2" y="105.616" width="202" height="17.9452" fill="#171717"/>
<rect x="-2" y="105.616" width="202" height="17.9452" stroke="#2E2E2E" stroke-width="0.39726"/>
<rect x="4.35645" y="111.825" width="23.0271" height="5.52831" rx="2.76416" fill="#212121"/>
<rect x="30.5615" y="109.589" width="24.5342" height="10" rx="3.17808" fill="#212121"/>
<path d="M40.0132 117.589H36.1836V116.739L37.9951 115.158C38.2812 114.904 38.501 114.663 38.6546 114.435C38.8135 114.207 38.8929 113.966 38.8929 113.712V113.624C38.8929 113.333 38.8135 113.111 38.6546 112.957C38.4957 112.798 38.2653 112.719 37.9634 112.719C37.6561 112.719 37.4178 112.801 37.2483 112.965C37.0841 113.129 36.9649 113.338 36.8908 113.593L36.1121 113.299C36.1651 113.124 36.2419 112.957 36.3425 112.798C36.4432 112.634 36.5703 112.488 36.7239 112.361C36.8828 112.234 37.0682 112.133 37.2801 112.059C37.4972 111.985 37.7462 111.948 38.0269 111.948C38.3129 111.948 38.5672 111.99 38.7897 112.075C39.0174 112.154 39.2081 112.266 39.3617 112.409C39.5153 112.552 39.6318 112.724 39.7113 112.925C39.7907 113.121 39.8305 113.338 39.8305 113.577C39.8305 113.799 39.796 114.006 39.7272 114.196C39.6636 114.382 39.5709 114.562 39.4491 114.737C39.3326 114.906 39.1922 115.07 39.028 115.229C38.8638 115.388 38.6837 115.547 38.4877 115.706L37.145 116.834H40.0132V117.589ZM42.8307 117.684C42.4811 117.684 42.1765 117.621 41.917 117.494C41.6627 117.361 41.4508 117.173 41.2813 116.93C41.1171 116.686 40.9953 116.387 40.9159 116.032C40.8364 115.677 40.7967 115.272 40.7967 114.816C40.7967 114.366 40.8364 113.963 40.9159 113.608C40.9953 113.248 41.1171 112.946 41.2813 112.703C41.4508 112.459 41.6627 112.274 41.917 112.147C42.1765 112.014 42.4811 111.948 42.8307 111.948C43.1802 111.948 43.4822 112.014 43.7364 112.147C43.9959 112.274 44.2078 112.459 44.372 112.703C44.5415 112.946 44.666 113.248 44.7454 113.608C44.8249 113.963 44.8646 114.366 44.8646 114.816C44.8646 115.272 44.8249 115.677 44.7454 116.032C44.666 116.387 44.5415 116.686 44.372 116.93C44.2078 117.173 43.9959 117.361 43.7364 117.494C43.4822 117.621 43.1802 117.684 42.8307 117.684ZM42.8307 116.953C43.2332 116.953 43.5192 116.805 43.6887 116.508C43.8635 116.207 43.9509 115.801 43.9509 115.293V114.339C43.9509 113.831 43.8635 113.428 43.6887 113.132C43.5192 112.83 43.2332 112.679 42.8307 112.679C42.6294 112.679 42.4572 112.719 42.3142 112.798C42.1712 112.872 42.0547 112.983 41.9646 113.132C41.8746 113.275 41.8084 113.45 41.766 113.656C41.7289 113.857 41.7104 114.085 41.7104 114.339V115.293C41.7104 115.547 41.7289 115.777 41.766 115.984C41.8084 116.185 41.8746 116.36 41.9646 116.508C42.0547 116.651 42.1712 116.763 42.3142 116.842C42.4572 116.916 42.6294 116.953 42.8307 116.953ZM42.8307 115.285C42.6453 115.285 42.5155 115.248 42.4413 115.174C42.3725 115.099 42.3381 115.009 42.3381 114.904V114.729C42.3381 114.623 42.3725 114.533 42.4413 114.459C42.5155 114.384 42.6453 114.347 42.8307 114.347C43.016 114.347 43.1432 114.384 43.212 114.459C43.2862 114.533 43.3233 114.623 43.3233 114.729V114.904C43.3233 115.009 43.2862 115.099 43.212 115.174C43.1432 115.248 43.016 115.285 42.8307 115.285ZM47.5947 117.684C47.2451 117.684 46.9405 117.621 46.681 117.494C46.4267 117.361 46.2149 117.173 46.0454 116.93C45.8812 116.686 45.7593 116.387 45.6799 116.032C45.6004 115.677 45.5607 115.272 45.5607 114.816C45.5607 114.366 45.6004 113.963 45.6799 113.608C45.7593 113.248 45.8812 112.946 46.0454 112.703C46.2149 112.459 46.4267 112.274 46.681 112.147C46.9405 112.014 47.2451 111.948 47.5947 111.948C47.9443 111.948 48.2462 112.014 48.5004 112.147C48.76 112.274 48.9718 112.459 49.136 112.703C49.3055 112.946 49.43 113.248 49.5095 113.608C49.5889 113.963 49.6286 114.366 49.6286 114.816C49.6286 115.272 49.5889 115.677 49.5095 116.032C49.43 116.387 49.3055 116.686 49.136 116.93C48.9718 117.173 48.76 117.361 48.5004 117.494C48.2462 117.621 47.9443 117.684 47.5947 117.684ZM47.5947 116.953C47.9972 116.953 48.2833 116.805 48.4527 116.508C48.6275 116.207 48.7149 115.801 48.7149 115.293V114.339C48.7149 113.831 48.6275 113.428 48.4527 113.132C48.2833 112.83 47.9972 112.679 47.5947 112.679C47.3934 112.679 47.2212 112.719 47.0782 112.798C46.9352 112.872 46.8187 112.983 46.7286 113.132C46.6386 113.275 46.5724 113.45 46.53 113.656C46.4929 113.857 46.4744 114.085 46.4744 114.339V115.293C46.4744 115.547 46.4929 115.777 46.53 115.984C46.5724 116.185 46.6386 116.36 46.7286 116.508C46.8187 116.651 46.9352 116.763 47.0782 116.842C47.2212 116.916 47.3934 116.953 47.5947 116.953ZM47.5947 115.285C47.4093 115.285 47.2795 115.248 47.2054 115.174C47.1365 115.099 47.1021 115.009 47.1021 114.904V114.729C47.1021 114.623 47.1365 114.533 47.2054 114.459C47.2795 114.384 47.4093 114.347 47.5947 114.347C47.7801 114.347 47.9072 114.384 47.976 114.459C48.0502 114.533 48.0873 114.623 48.0873 114.729V114.904C48.0873 115.009 48.0502 115.099 47.976 115.174C47.9072 115.248 47.7801 115.285 47.5947 115.285Z" fill="#393939"/>
<rect x="58.2744" y="111.825" width="12.265" height="5.52831" rx="2.76416" fill="#212121"/>
<rect x="73.7168" y="111.825" width="63.7703" height="5.52831" rx="2.76416" fill="#212121"/>
<rect x="162.912" y="111.825" width="30.7322" height="5.52831" rx="2.76416" fill="#212121"/>
<rect x="-2" y="123.562" width="202" height="17.9452" fill="#171717"/>
<rect x="-2" y="123.562" width="202" height="17.9452" stroke="#2E2E2E" stroke-width="0.39726"/>
<rect x="4.35645" y="129.77" width="23.0271" height="5.52831" rx="2.76416" fill="#212121"/>
<rect x="30.5615" y="127.534" width="24.5342" height="10" rx="3.17808" fill="#212121"/>
<path d="M40.0132 135.534H36.1836V134.684L37.9951 133.103C38.2812 132.849 38.501 132.608 38.6546 132.38C38.8135 132.152 38.8929 131.911 38.8929 131.657V131.57C38.8929 131.278 38.8135 131.056 38.6546 130.902C38.4957 130.743 38.2653 130.664 37.9634 130.664C37.6561 130.664 37.4178 130.746 37.2483 130.91C37.0841 131.074 36.9649 131.283 36.8908 131.538L36.1121 131.244C36.1651 131.069 36.2419 130.902 36.3425 130.743C36.4432 130.579 36.5703 130.433 36.7239 130.306C36.8828 130.179 37.0682 130.078 37.2801 130.004C37.4972 129.93 37.7462 129.893 38.0269 129.893C38.3129 129.893 38.5672 129.935 38.7897 130.02C39.0174 130.1 39.2081 130.211 39.3617 130.354C39.5153 130.497 39.6318 130.669 39.7113 130.87C39.7907 131.066 39.8305 131.283 39.8305 131.522C39.8305 131.744 39.796 131.951 39.7272 132.142C39.6636 132.327 39.5709 132.507 39.4491 132.682C39.3326 132.851 39.1922 133.016 39.028 133.174C38.8638 133.333 38.6837 133.492 38.4877 133.651L37.145 134.779H40.0132V135.534ZM42.8307 135.63C42.4811 135.63 42.1765 135.566 41.917 135.439C41.6627 135.306 41.4508 135.118 41.2813 134.875C41.1171 134.631 40.9953 134.332 40.9159 133.977C40.8364 133.622 40.7967 133.217 40.7967 132.761C40.7967 132.311 40.8364 131.909 40.9159 131.554C40.9953 131.193 41.1171 130.892 41.2813 130.648C41.4508 130.404 41.6627 130.219 41.917 130.092C42.1765 129.959 42.4811 129.893 42.8307 129.893C43.1802 129.893 43.4822 129.959 43.7364 130.092C43.9959 130.219 44.2078 130.404 44.372 130.648C44.5415 130.892 44.666 131.193 44.7454 131.554C44.8249 131.909 44.8646 132.311 44.8646 132.761C44.8646 133.217 44.8249 133.622 44.7454 133.977C44.666 134.332 44.5415 134.631 44.372 134.875C44.2078 135.118 43.9959 135.306 43.7364 135.439C43.4822 135.566 43.1802 135.63 42.8307 135.63ZM42.8307 134.899C43.2332 134.899 43.5192 134.75 43.6887 134.454C43.8635 134.152 43.9509 133.747 43.9509 133.238V132.285C43.9509 131.776 43.8635 131.374 43.6887 131.077C43.5192 130.775 43.2332 130.624 42.8307 130.624C42.6294 130.624 42.4572 130.664 42.3142 130.743C42.1712 130.817 42.0547 130.929 41.9646 131.077C41.8746 131.22 41.8084 131.395 41.766 131.601C41.7289 131.803 41.7104 132.03 41.7104 132.285V133.238C41.7104 133.492 41.7289 133.723 41.766 133.929C41.8084 134.131 41.8746 134.305 41.9646 134.454C42.0547 134.597 42.1712 134.708 42.3142 134.787C42.4572 134.861 42.6294 134.899 42.8307 134.899ZM42.8307 133.23C42.6453 133.23 42.5155 133.193 42.4413 133.119C42.3725 133.045 42.3381 132.955 42.3381 132.849V132.674C42.3381 132.568 42.3725 132.478 42.4413 132.404C42.5155 132.33 42.6453 132.293 42.8307 132.293C43.016 132.293 43.1432 132.33 43.212 132.404C43.2862 132.478 43.3233 132.568 43.3233 132.674V132.849C43.3233 132.955 43.2862 133.045 43.212 133.119C43.1432 133.193 43.016 133.23 42.8307 133.23ZM47.5947 135.63C47.2451 135.63 46.9405 135.566 46.681 135.439C46.4267 135.306 46.2149 135.118 46.0454 134.875C45.8812 134.631 45.7593 134.332 45.6799 133.977C45.6004 133.622 45.5607 133.217 45.5607 132.761C45.5607 132.311 45.6004 131.909 45.6799 131.554C45.7593 131.193 45.8812 130.892 46.0454 130.648C46.2149 130.404 46.4267 130.219 46.681 130.092C46.9405 129.959 47.2451 129.893 47.5947 129.893C47.9443 129.893 48.2462 129.959 48.5004 130.092C48.76 130.219 48.9718 130.404 49.136 130.648C49.3055 130.892 49.43 131.193 49.5095 131.554C49.5889 131.909 49.6286 132.311 49.6286 132.761C49.6286 133.217 49.5889 133.622 49.5095 133.977C49.43 134.332 49.3055 134.631 49.136 134.875C48.9718 135.118 48.76 135.306 48.5004 135.439C48.2462 135.566 47.9443 135.63 47.5947 135.63ZM47.5947 134.899C47.9972 134.899 48.2833 134.75 48.4527 134.454C48.6275 134.152 48.7149 133.747 48.7149 133.238V132.285C48.7149 131.776 48.6275 131.374 48.4527 131.077C48.2833 130.775 47.9972 130.624 47.5947 130.624C47.3934 130.624 47.2212 130.664 47.0782 130.743C46.9352 130.817 46.8187 130.929 46.7286 131.077C46.6386 131.22 46.5724 131.395 46.53 131.601C46.4929 131.803 46.4744 132.03 46.4744 132.285V133.238C46.4744 133.492 46.4929 133.723 46.53 133.929C46.5724 134.131 46.6386 134.305 46.7286 134.454C46.8187 134.597 46.9352 134.708 47.0782 134.787C47.2212 134.861 47.3934 134.899 47.5947 134.899ZM47.5947 133.23C47.4093 133.23 47.2795 133.193 47.2054 133.119C47.1365 133.045 47.1021 132.955 47.1021 132.849V132.674C47.1021 132.568 47.1365 132.478 47.2054 132.404C47.2795 132.33 47.4093 132.293 47.5947 132.293C47.7801 132.293 47.9072 132.33 47.976 132.404C48.0502 132.478 48.0873 132.568 48.0873 132.674V132.849C48.0873 132.955 48.0502 133.045 47.976 133.119C47.9072 133.193 47.7801 133.23 47.5947 133.23Z" fill="#393939"/>
<rect x="58.2744" y="129.77" width="12.265" height="5.52831" rx="2.76416" fill="#212121"/>
<rect x="73.7168" y="129.77" width="63.7703" height="5.52831" rx="2.76416" fill="#212121"/>
<rect x="162.912" y="129.77" width="30.7322" height="5.52831" rx="2.76416" fill="#212121"/>
<rect x="-2" y="141.507" width="202" height="17.9452" fill="#171717"/>
<rect x="-2" y="141.507" width="202" height="17.9452" stroke="#2E2E2E" stroke-width="0.39726"/>
<rect x="4.35645" y="147.715" width="23.0271" height="5.52831" rx="2.76416" fill="#212121"/>
<rect x="30.5615" y="145.479" width="24.5342" height="10" rx="3.17808" fill="#212121"/>
<path d="M40.0132 153.479H36.1836V152.629L37.9951 151.048C38.2812 150.794 38.501 150.553 38.6546 150.325C38.8135 150.097 38.8929 149.856 38.8929 149.602V149.515C38.8929 149.223 38.8135 149.001 38.6546 148.847C38.4957 148.688 38.2653 148.609 37.9634 148.609C37.6561 148.609 37.4178 148.691 37.2483 148.855C37.0841 149.019 36.9649 149.229 36.8908 149.483L36.1121 149.189C36.1651 149.014 36.2419 148.847 36.3425 148.688C36.4432 148.524 36.5703 148.379 36.7239 148.251C36.8828 148.124 37.0682 148.024 37.2801 147.95C37.4972 147.875 37.7462 147.838 38.0269 147.838C38.3129 147.838 38.5672 147.881 38.7897 147.965C39.0174 148.045 39.2081 148.156 39.3617 148.299C39.5153 148.442 39.6318 148.614 39.7113 148.816C39.7907 149.012 39.8305 149.229 39.8305 149.467C39.8305 149.69 39.796 149.896 39.7272 150.087C39.6636 150.272 39.5709 150.452 39.4491 150.627C39.3326 150.797 39.1922 150.961 39.028 151.12C38.8638 151.279 38.6837 151.437 38.4877 151.596L37.145 152.725H40.0132V153.479ZM42.8307 153.575C42.4811 153.575 42.1765 153.511 41.917 153.384C41.6627 153.252 41.4508 153.064 41.2813 152.82C41.1171 152.576 40.9953 152.277 40.9159 151.922C40.8364 151.567 40.7967 151.162 40.7967 150.706C40.7967 150.256 40.8364 149.854 40.9159 149.499C40.9953 149.139 41.1171 148.837 41.2813 148.593C41.4508 148.349 41.6627 148.164 41.917 148.037C42.1765 147.904 42.4811 147.838 42.8307 147.838C43.1802 147.838 43.4822 147.904 43.7364 148.037C43.9959 148.164 44.2078 148.349 44.372 148.593C44.5415 148.837 44.666 149.139 44.7454 149.499C44.8249 149.854 44.8646 150.256 44.8646 150.706C44.8646 151.162 44.8249 151.567 44.7454 151.922C44.666 152.277 44.5415 152.576 44.372 152.82C44.2078 153.064 43.9959 153.252 43.7364 153.384C43.4822 153.511 43.1802 153.575 42.8307 153.575ZM42.8307 152.844C43.2332 152.844 43.5192 152.695 43.6887 152.399C43.8635 152.097 43.9509 151.692 43.9509 151.183V150.23C43.9509 149.721 43.8635 149.319 43.6887 149.022C43.5192 148.72 43.2332 148.569 42.8307 148.569C42.6294 148.569 42.4572 148.609 42.3142 148.688C42.1712 148.763 42.0547 148.874 41.9646 149.022C41.8746 149.165 41.8084 149.34 41.766 149.546C41.7289 149.748 41.7104 149.976 41.7104 150.23V151.183C41.7104 151.437 41.7289 151.668 41.766 151.874C41.8084 152.076 41.8746 152.251 41.9646 152.399C42.0547 152.542 42.1712 152.653 42.3142 152.733C42.4572 152.807 42.6294 152.844 42.8307 152.844ZM42.8307 151.175C42.6453 151.175 42.5155 151.138 42.4413 151.064C42.3725 150.99 42.3381 150.9 42.3381 150.794V150.619C42.3381 150.513 42.3725 150.423 42.4413 150.349C42.5155 150.275 42.6453 150.238 42.8307 150.238C43.016 150.238 43.1432 150.275 43.212 150.349C43.2862 150.423 43.3233 150.513 43.3233 150.619V150.794C43.3233 150.9 43.2862 150.99 43.212 151.064C43.1432 151.138 43.016 151.175 42.8307 151.175ZM47.5947 153.575C47.2451 153.575 46.9405 153.511 46.681 153.384C46.4267 153.252 46.2149 153.064 46.0454 152.82C45.8812 152.576 45.7593 152.277 45.6799 151.922C45.6004 151.567 45.5607 151.162 45.5607 150.706C45.5607 150.256 45.6004 149.854 45.6799 149.499C45.7593 149.139 45.8812 148.837 46.0454 148.593C46.2149 148.349 46.4267 148.164 46.681 148.037C46.9405 147.904 47.2451 147.838 47.5947 147.838C47.9443 147.838 48.2462 147.904 48.5004 148.037C48.76 148.164 48.9718 148.349 49.136 148.593C49.3055 148.837 49.43 149.139 49.5095 149.499C49.5889 149.854 49.6286 150.256 49.6286 150.706C49.6286 151.162 49.5889 151.567 49.5095 151.922C49.43 152.277 49.3055 152.576 49.136 152.82C48.9718 153.064 48.76 153.252 48.5004 153.384C48.2462 153.511 47.9443 153.575 47.5947 153.575ZM47.5947 152.844C47.9972 152.844 48.2833 152.695 48.4527 152.399C48.6275 152.097 48.7149 151.692 48.7149 151.183V150.23C48.7149 149.721 48.6275 149.319 48.4527 149.022C48.2833 148.72 47.9972 148.569 47.5947 148.569C47.3934 148.569 47.2212 148.609 47.0782 148.688C46.9352 148.763 46.8187 148.874 46.7286 149.022C46.6386 149.165 46.5724 149.34 46.53 149.546C46.4929 149.748 46.4744 149.976 46.4744 150.23V151.183C46.4744 151.437 46.4929 151.668 46.53 151.874C46.5724 152.076 46.6386 152.251 46.7286 152.399C46.8187 152.542 46.9352 152.653 47.0782 152.733C47.2212 152.807 47.3934 152.844 47.5947 152.844ZM47.5947 151.175C47.4093 151.175 47.2795 151.138 47.2054 151.064C47.1365 150.99 47.1021 150.9 47.1021 150.794V150.619C47.1021 150.513 47.1365 150.423 47.2054 150.349C47.2795 150.275 47.4093 150.238 47.5947 150.238C47.7801 150.238 47.9072 150.275 47.976 150.349C48.0502 150.423 48.0873 150.513 48.0873 150.619V150.794C48.0873 150.9 48.0502 150.99 47.976 151.064C47.9072 151.138 47.7801 151.175 47.5947 151.175Z" fill="#393939"/>
<rect x="58.2744" y="147.715" width="12.265" height="5.52831" rx="2.76416" fill="#212121"/>
<rect x="73.7168" y="147.715" width="63.7703" height="5.52831" rx="2.76416" fill="#212121"/>
<rect x="162.912" y="147.715" width="30.7322" height="5.52831" rx="2.76416" fill="#212121"/>
<rect x="-2" y="159.452" width="202" height="17.9452" fill="#171717"/>
<rect x="-2" y="159.452" width="202" height="17.9452" stroke="#2E2E2E" stroke-width="0.39726"/>
<rect x="4.35645" y="165.66" width="23.0271" height="5.52831" rx="2.76416" fill="#212121"/>
<rect x="30.5615" y="163.425" width="24.5342" height="10" rx="3.17808" fill="#212121"/>
<path d="M40.0132 171.425H36.1836V170.574L37.9951 168.993C38.2812 168.739 38.501 168.498 38.6546 168.27C38.8135 168.043 38.8929 167.802 38.8929 167.547V167.46C38.8929 167.169 38.8135 166.946 38.6546 166.793C38.4957 166.634 38.2653 166.554 37.9634 166.554C37.6561 166.554 37.4178 166.636 37.2483 166.8C37.0841 166.965 36.9649 167.174 36.8908 167.428L36.1121 167.134C36.1651 166.959 36.2419 166.793 36.3425 166.634C36.4432 166.469 36.5703 166.324 36.7239 166.197C36.8828 166.069 37.0682 165.969 37.2801 165.895C37.4972 165.821 37.7462 165.783 38.0269 165.783C38.3129 165.783 38.5672 165.826 38.7897 165.911C39.0174 165.99 39.2081 166.101 39.3617 166.244C39.5153 166.387 39.6318 166.559 39.7113 166.761C39.7907 166.957 39.8305 167.174 39.8305 167.412C39.8305 167.635 39.796 167.841 39.7272 168.032C39.6636 168.217 39.5709 168.397 39.4491 168.572C39.3326 168.742 39.1922 168.906 39.028 169.065C38.8638 169.224 38.6837 169.383 38.4877 169.542L37.145 170.67H40.0132V171.425ZM42.8307 171.52C42.4811 171.52 42.1765 171.456 41.917 171.329C41.6627 171.197 41.4508 171.009 41.2813 170.765C41.1171 170.521 40.9953 170.222 40.9159 169.867C40.8364 169.512 40.7967 169.107 40.7967 168.652C40.7967 168.201 40.8364 167.799 40.9159 167.444C40.9953 167.084 41.1171 166.782 41.2813 166.538C41.4508 166.295 41.6627 166.109 41.917 165.982C42.1765 165.85 42.4811 165.783 42.8307 165.783C43.1802 165.783 43.4822 165.85 43.7364 165.982C43.9959 166.109 44.2078 166.295 44.372 166.538C44.5415 166.782 44.666 167.084 44.7454 167.444C44.8249 167.799 44.8646 168.201 44.8646 168.652C44.8646 169.107 44.8249 169.512 44.7454 169.867C44.666 170.222 44.5415 170.521 44.372 170.765C44.2078 171.009 43.9959 171.197 43.7364 171.329C43.4822 171.456 43.1802 171.52 42.8307 171.52ZM42.8307 170.789C43.2332 170.789 43.5192 170.641 43.6887 170.344C43.8635 170.042 43.9509 169.637 43.9509 169.128V168.175C43.9509 167.666 43.8635 167.264 43.6887 166.967C43.5192 166.665 43.2332 166.514 42.8307 166.514C42.6294 166.514 42.4572 166.554 42.3142 166.634C42.1712 166.708 42.0547 166.819 41.9646 166.967C41.8746 167.11 41.8084 167.285 41.766 167.492C41.7289 167.693 41.7104 167.921 41.7104 168.175V169.128C41.7104 169.383 41.7289 169.613 41.766 169.82C41.8084 170.021 41.8746 170.196 41.9646 170.344C42.0547 170.487 42.1712 170.598 42.3142 170.678C42.4572 170.752 42.6294 170.789 42.8307 170.789ZM42.8307 169.12C42.6453 169.12 42.5155 169.083 42.4413 169.009C42.3725 168.935 42.3381 168.845 42.3381 168.739V168.564C42.3381 168.458 42.3725 168.368 42.4413 168.294C42.5155 168.22 42.6453 168.183 42.8307 168.183C43.016 168.183 43.1432 168.22 43.212 168.294C43.2862 168.368 43.3233 168.458 43.3233 168.564V168.739C43.3233 168.845 43.2862 168.935 43.212 169.009C43.1432 169.083 43.016 169.12 42.8307 169.12ZM47.5947 171.52C47.2451 171.52 46.9405 171.456 46.681 171.329C46.4267 171.197 46.2149 171.009 46.0454 170.765C45.8812 170.521 45.7593 170.222 45.6799 169.867C45.6004 169.512 45.5607 169.107 45.5607 168.652C45.5607 168.201 45.6004 167.799 45.6799 167.444C45.7593 167.084 45.8812 166.782 46.0454 166.538C46.2149 166.295 46.4267 166.109 46.681 165.982C46.9405 165.85 47.2451 165.783 47.5947 165.783C47.9443 165.783 48.2462 165.85 48.5004 165.982C48.76 166.109 48.9718 166.295 49.136 166.538C49.3055 166.782 49.43 167.084 49.5095 167.444C49.5889 167.799 49.6286 168.201 49.6286 168.652C49.6286 169.107 49.5889 169.512 49.5095 169.867C49.43 170.222 49.3055 170.521 49.136 170.765C48.9718 171.009 48.76 171.197 48.5004 171.329C48.2462 171.456 47.9443 171.52 47.5947 171.52ZM47.5947 170.789C47.9972 170.789 48.2833 170.641 48.4527 170.344C48.6275 170.042 48.7149 169.637 48.7149 169.128V168.175C48.7149 167.666 48.6275 167.264 48.4527 166.967C48.2833 166.665 47.9972 166.514 47.5947 166.514C47.3934 166.514 47.2212 166.554 47.0782 166.634C46.9352 166.708 46.8187 166.819 46.7286 166.967C46.6386 167.11 46.5724 167.285 46.53 167.492C46.4929 167.693 46.4744 167.921 46.4744 168.175V169.128C46.4744 169.383 46.4929 169.613 46.53 169.82C46.5724 170.021 46.6386 170.196 46.7286 170.344C46.8187 170.487 46.9352 170.598 47.0782 170.678C47.2212 170.752 47.3934 170.789 47.5947 170.789ZM47.5947 169.12C47.4093 169.12 47.2795 169.083 47.2054 169.009C47.1365 168.935 47.1021 168.845 47.1021 168.739V168.564C47.1021 168.458 47.1365 168.368 47.2054 168.294C47.2795 168.22 47.4093 168.183 47.5947 168.183C47.7801 168.183 47.9072 168.22 47.976 168.294C48.0502 168.368 48.0873 168.458 48.0873 168.564V168.739C48.0873 168.845 48.0502 168.935 47.976 169.009C47.9072 169.083 47.7801 169.12 47.5947 169.12Z" fill="#393939"/>
<rect x="58.2744" y="165.66" width="12.265" height="5.52831" rx="2.76416" fill="#212121"/>
<rect x="73.7168" y="165.66" width="63.7703" height="5.52831" rx="2.76416" fill="#212121"/>
<rect x="162.912" y="165.66" width="30.7322" height="5.52831" rx="2.76416" fill="#212121"/>
<rect x="282.458" y="26.4301" width="35.7534" height="35.7534" rx="6.72163" fill="#1F1F1F"/>
<rect x="282.458" y="26.4301" width="35.7534" height="35.7534" rx="6.72163" stroke="#2E2E2E" stroke-width="0.79452"/>
<path d="M307.217 48.8883L305.402 47.6914L303.887 50.2209L302.126 49.7064L300.575 52.0734L300.655 52.8183L309.086 51.265L308.596 45.9971L307.217 48.8883ZM299.354 46.6182L300.707 46.432C300.926 46.5299 301.079 46.5676 301.341 46.6343C301.75 46.7409 302.223 46.8432 302.924 46.4901C303.086 46.4094 303.426 46.0983 303.563 45.9218L309.105 44.9164L309.671 51.7591L300.176 53.4706L299.354 46.6182ZM309.649 44.1522L309.102 44.2566L308.052 33.3978L290.144 35.4742L292.35 53.378L294.446 53.0734C294.279 52.8344 294.018 52.5449 293.573 52.1746C292.955 51.6622 293.174 50.7903 293.539 50.2403C294.02 49.3114 296.503 48.1295 296.362 46.644C296.311 46.1037 296.225 45.4008 295.724 44.9186C295.705 45.1188 295.739 45.3114 295.739 45.3114C295.739 45.3114 295.533 45.0488 295.43 44.6904C295.328 44.5526 295.248 44.5095 295.139 44.3255C295.062 44.5375 295.072 44.784 295.072 44.784C295.072 44.784 294.904 44.3857 294.876 44.0499C294.776 44.2006 294.752 44.4858 294.752 44.4858C294.752 44.4858 294.533 43.8583 294.583 43.5203C294.483 43.2265 294.187 42.643 294.27 41.3169C294.817 41.7001 296.021 41.6086 296.489 40.9176C296.645 40.6883 296.752 40.064 296.411 38.8337C296.193 38.0447 295.653 36.8692 295.442 36.4225L295.417 36.4408C295.528 36.8003 295.757 37.5527 295.845 37.9187C296.111 39.0263 296.182 39.4117 296.057 39.9219C295.951 40.3654 295.697 40.656 295.051 40.9811C294.405 41.3072 293.548 40.5139 293.493 40.4709C292.866 39.9714 292.38 39.1555 292.326 38.7594C292.271 38.3256 292.576 38.0651 292.731 37.711C292.511 37.7745 292.264 37.8864 292.264 37.8864C292.264 37.8864 292.558 37.5818 292.921 37.3192C293.071 37.2201 293.159 37.1566 293.317 37.0253C293.088 37.0221 292.901 37.0275 292.901 37.0275C292.901 37.0275 293.283 36.8208 293.68 36.6712C293.39 36.6582 293.112 36.669 293.112 36.669C293.112 36.669 293.965 36.288 294.638 36.0081C295.1 35.8187 295.552 35.8746 295.807 36.2417C296.14 36.7228 296.49 36.9844 297.233 37.1469C297.689 36.9446 297.827 36.8412 298.4 36.6852C298.903 36.1308 299.299 36.0587 299.299 36.0587C299.299 36.0587 299.104 36.2385 299.051 36.5215C299.337 36.2966 299.65 36.1082 299.65 36.1082C299.65 36.1082 299.529 36.2578 299.416 36.4957L299.442 36.5345C299.775 36.3343 300.167 36.1771 300.167 36.1771C300.167 36.1771 300.055 36.3192 299.924 36.5022C300.176 36.5 300.686 36.5129 300.883 36.5355C302.052 36.5614 302.294 35.2869 302.743 35.1276C303.305 34.9274 303.556 34.8058 304.512 35.7455C305.334 36.5528 305.975 37.9962 305.657 38.3202C305.39 38.5882 304.862 38.2158 304.279 37.4871C303.97 37.1017 303.737 36.6464 303.628 36.0673C303.535 35.5786 303.177 35.2955 303.177 35.2955C303.177 35.2955 303.384 35.7595 303.384 36.1685C303.384 36.3924 303.412 37.2277 303.771 37.6959C303.735 37.7648 303.719 38.035 303.679 38.0866C303.263 37.5829 302.367 37.2223 302.222 37.1157C302.716 37.5204 303.852 38.4505 304.287 39.3417C304.7 40.1845 304.456 40.9574 304.665 41.1576C304.725 41.2147 305.552 42.2459 305.712 42.7647C305.989 43.6678 305.728 44.6172 305.365 45.206L304.35 45.3642C304.201 45.3233 304.101 45.3018 303.968 45.2253C304.041 45.0951 304.187 44.7711 304.188 44.7044L304.131 44.6042C303.815 45.052 303.286 45.4869 302.846 45.7366C302.27 46.0628 301.607 46.0122 301.176 45.8787C299.95 45.5009 298.79 44.6721 298.512 44.4546C298.512 44.4546 298.503 44.6279 298.556 44.6678C298.865 45.0165 299.573 45.6473 300.257 46.0865L298.799 46.2468L299.489 51.617C299.183 51.6611 299.136 51.6827 298.801 51.73C298.506 50.6881 297.942 50.0067 297.325 49.6106C296.782 49.2608 296.031 49.1822 295.312 49.3243L295.266 49.3781C295.766 49.3264 296.355 49.3985 296.96 49.7817C297.555 50.1574 298.034 51.1283 298.21 51.7128C298.436 52.4598 298.592 53.2585 297.984 54.1056C297.551 54.7074 296.29 55.04 295.269 54.3209C295.542 54.759 295.91 55.1175 296.405 55.1842C297.141 55.2843 297.84 55.1562 298.32 54.6632C298.73 54.2413 298.949 53.3586 298.89 52.4297L299.539 52.336L299.774 54.0034L310.525 52.7085L309.649 44.1522ZM303.108 39.6227C303.078 39.6916 303.03 39.7357 303.101 39.9585L303.106 39.9714L303.116 40.0005L303.145 40.0672C303.274 40.3277 303.413 40.5742 303.647 40.7001C303.707 40.6905 303.771 40.6829 303.835 40.6797C304.055 40.67 304.194 40.7044 304.282 40.7529C304.29 40.7087 304.292 40.6452 304.286 40.5505C304.269 40.2201 304.352 39.6582 303.717 39.3622C303.477 39.2513 303.141 39.2847 303.029 39.4246C303.05 39.4268 303.068 39.4311 303.082 39.4364C303.253 39.4946 303.139 39.5527 303.108 39.6227ZM304.888 42.7066C304.805 42.6603 304.416 42.6786 304.142 42.7109C303.621 42.7722 303.058 42.953 302.934 43.0488C302.711 43.2221 302.812 43.5246 302.978 43.6484C303.443 43.995 303.849 44.2286 304.279 44.1715C304.543 44.1371 304.775 43.7194 304.94 43.3395C305.054 43.079 305.054 42.798 304.888 42.7066ZM300.274 40.0317C300.421 39.8918 299.542 39.7088 298.859 40.1738C298.357 40.5172 298.34 41.2534 298.822 41.67C298.87 41.7109 298.91 41.741 298.946 41.7647C299.087 41.698 299.248 41.6312 299.432 41.572C299.744 41.4708 300.002 41.4181 300.215 41.3912C300.318 41.2771 300.436 41.0769 300.406 40.7141C300.366 40.2201 299.993 40.2986 300.274 40.0317Z" fill="#B4B4B4"/>
<rect x="282.458" y="70.9231" width="35.7534" height="35.7534" rx="6.72163" fill="#1F1F1F"/>
<rect x="282.458" y="70.9231" width="35.7534" height="35.7534" rx="6.72163" stroke="#2E2E2E" stroke-width="0.79452"/>
<path d="M294.887 87.5516C294.887 87.8588 294.921 88.1079 294.979 88.2906C295.045 88.4733 295.128 88.6726 295.244 88.8885C295.286 88.9549 295.303 89.0213 295.303 89.0795C295.303 89.1625 295.253 89.2455 295.145 89.3286L294.622 89.6773C294.547 89.7271 294.472 89.752 294.406 89.752C294.323 89.752 294.24 89.7105 294.157 89.6358C294.04 89.5112 293.941 89.3784 293.858 89.2455C293.775 89.1044 293.692 88.9466 293.6 88.7556C292.953 89.5195 292.139 89.9015 291.159 89.9015C290.462 89.9015 289.905 89.7022 289.498 89.3037C289.091 88.9051 288.884 88.3736 288.884 87.7093C288.884 87.0035 289.133 86.4306 289.64 85.9988C290.146 85.567 290.819 85.3511 291.674 85.3511C291.956 85.3511 292.247 85.376 292.554 85.4175C292.861 85.459 293.177 85.5255 293.509 85.6002V84.994C293.509 84.363 293.376 83.9229 293.119 83.6655C292.853 83.408 292.405 83.2835 291.765 83.2835C291.475 83.2835 291.176 83.3167 290.868 83.3914C290.561 83.4662 290.262 83.5575 289.972 83.6738C289.839 83.7319 289.739 83.7651 289.681 83.7817C289.623 83.7983 289.581 83.8066 289.548 83.8066C289.432 83.8066 289.374 83.7236 289.374 83.5492V83.1423C289.374 83.0095 289.39 82.9098 289.432 82.8517C289.473 82.7936 289.548 82.7354 289.664 82.6773C289.955 82.5278 290.304 82.4033 290.711 82.3036C291.118 82.1957 291.549 82.1459 292.006 82.1459C292.994 82.1459 293.717 82.3701 294.182 82.8185C294.638 83.2669 294.871 83.9478 294.871 84.8612V87.5516H294.887ZM291.516 88.8137C291.79 88.8137 292.072 88.7639 292.371 88.6643C292.67 88.5646 292.936 88.3819 293.16 88.1328C293.293 87.9751 293.393 87.8007 293.443 87.6014C293.492 87.4021 293.526 87.1613 293.526 86.879V86.5302C293.285 86.4721 293.027 86.4223 292.762 86.3891C292.496 86.3558 292.239 86.3392 291.981 86.3392C291.425 86.3392 291.018 86.4472 290.744 86.6714C290.47 86.8956 290.337 87.2111 290.337 87.6263C290.337 88.0166 290.437 88.3072 290.644 88.5065C290.844 88.7141 291.134 88.8137 291.516 88.8137ZM298.184 89.7105C298.035 89.7105 297.935 89.6856 297.868 89.6275C297.802 89.5777 297.744 89.4614 297.694 89.3037L295.743 82.8849C295.693 82.7188 295.668 82.6109 295.668 82.5528C295.668 82.4199 295.734 82.3452 295.867 82.3452H296.681C296.839 82.3452 296.947 82.3701 297.005 82.4282C297.071 82.478 297.121 82.5943 297.171 82.752L298.566 88.2491L299.861 82.752C299.903 82.586 299.953 82.478 300.019 82.4282C300.086 82.3784 300.202 82.3452 300.351 82.3452H301.016C301.173 82.3452 301.281 82.3701 301.348 82.4282C301.414 82.478 301.472 82.5943 301.505 82.752L302.817 88.3155L304.254 82.752C304.304 82.586 304.362 82.478 304.42 82.4282C304.486 82.3784 304.594 82.3452 304.744 82.3452H305.516C305.649 82.3452 305.724 82.4116 305.724 82.5528C305.724 82.5943 305.715 82.6358 305.707 82.6856C305.699 82.7354 305.682 82.8019 305.649 82.8932L303.648 89.312C303.598 89.478 303.54 89.586 303.473 89.6358C303.407 89.6856 303.299 89.7188 303.158 89.7188H302.444C302.286 89.7188 302.178 89.6939 302.112 89.6358C302.045 89.5777 301.987 89.4697 301.954 89.3037L300.667 83.9478L299.388 89.2953C299.347 89.4614 299.297 89.5694 299.23 89.6275C299.164 89.6856 299.048 89.7105 298.898 89.7105H298.184ZM308.854 89.9347C308.422 89.9347 307.991 89.8849 307.575 89.7853C307.16 89.6856 306.836 89.5777 306.621 89.4531C306.488 89.3784 306.396 89.2953 306.363 89.2206C306.33 89.1459 306.313 89.0628 306.313 88.9881V88.5646C306.313 88.3902 306.38 88.3072 306.504 88.3072C306.554 88.3072 306.604 88.3155 306.654 88.3321C306.704 88.3487 306.778 88.3819 306.861 88.4152C307.144 88.5397 307.451 88.6394 307.775 88.7058C308.107 88.7722 308.431 88.8054 308.763 88.8054C309.286 88.8054 309.693 88.7141 309.975 88.5314C310.258 88.3487 310.407 88.083 310.407 87.7426C310.407 87.5101 310.332 87.3191 310.183 87.1613C310.033 87.0035 309.751 86.8624 309.344 86.7295L308.14 86.3558C307.534 86.1649 307.086 85.8825 306.812 85.5089C306.537 85.1435 306.396 84.7366 306.396 84.3048C306.396 83.9561 306.471 83.6488 306.621 83.3831C306.77 83.1174 306.969 82.8849 307.218 82.7022C307.468 82.5112 307.75 82.3701 308.082 82.2704C308.414 82.1708 308.763 82.1293 309.128 82.1293C309.311 82.1293 309.502 82.1376 309.685 82.1625C309.876 82.1874 310.05 82.2206 310.224 82.2538C310.39 82.2953 310.548 82.3369 310.698 82.3867C310.847 82.4365 310.963 82.4863 311.046 82.5362C311.163 82.6026 311.246 82.669 311.296 82.7437C311.345 82.8102 311.37 82.9015 311.37 83.0178V83.408C311.37 83.5824 311.304 83.6738 311.179 83.6738C311.113 83.6738 311.005 83.6405 310.864 83.5741C310.39 83.3582 309.859 83.2503 309.269 83.2503C308.796 83.2503 308.422 83.325 308.165 83.4828C307.908 83.6405 307.775 83.8813 307.775 84.2218C307.775 84.4543 307.858 84.6536 308.024 84.8114C308.19 84.9691 308.497 85.1269 308.937 85.2681L310.116 85.6417C310.714 85.8327 311.146 86.0984 311.403 86.4389C311.661 86.7793 311.785 87.1696 311.785 87.6014C311.785 87.9585 311.711 88.2823 311.57 88.5646C311.42 88.8469 311.221 89.0961 310.963 89.2953C310.706 89.5029 310.399 89.6524 310.042 89.7604C309.668 89.8766 309.278 89.9347 308.854 89.9347Z" fill="#B4B4B4"/>
<path fill-rule="evenodd" clip-rule="evenodd" d="M310.424 93.9703C307.692 95.9881 303.723 97.0593 300.31 97.0593C295.527 97.0593 291.217 95.2906 287.962 92.3511C287.705 92.1186 287.937 91.8031 288.244 91.9857C291.765 94.0284 296.108 95.2657 300.6 95.2657C303.631 95.2657 306.961 94.6346 310.025 93.3392C310.482 93.1316 310.872 93.6382 310.424 93.9703Z" fill="#B4B4B4"/>
<path fill-rule="evenodd" clip-rule="evenodd" d="M311.561 92.6749C311.212 92.2265 309.253 92.4591 308.364 92.567C308.099 92.6002 308.057 92.3677 308.298 92.1933C309.859 91.0972 312.425 91.4128 312.724 91.7781C313.023 92.1518 312.641 94.7177 311.179 95.9466C310.955 96.1376 310.739 96.0379 310.839 95.7888C311.171 94.9668 311.91 93.115 311.561 92.6749Z" fill="#B4B4B4"/>
<rect x="282.458" y="115.416" width="35.7534" height="35.7534" rx="6.72163" fill="#1F1F1F"/>
<rect x="282.458" y="115.416" width="35.7534" height="35.7534" rx="6.72163" stroke="#2E2E2E" stroke-width="0.79452"/>
<path fill-rule="evenodd" clip-rule="evenodd" d="M312.362 133.872C312.362 131.859 311.111 130.09 309.23 129.409C309.312 128.982 309.352 128.555 309.352 128.118C309.352 124.367 306.302 121.317 302.561 121.317C300.365 121.317 298.332 122.364 297.051 124.133C296.421 123.645 295.648 123.38 294.845 123.38C292.852 123.38 291.236 124.997 291.236 126.99C291.236 127.427 291.317 127.854 291.459 128.25C289.589 128.921 288.308 130.721 288.308 132.724C288.308 134.747 289.568 136.516 291.449 137.197C291.368 137.614 291.327 138.051 291.327 138.488C291.327 142.229 294.367 145.269 298.108 145.269C300.304 145.269 302.337 144.212 303.608 142.443C304.239 142.941 305.011 143.215 305.814 143.215C307.807 143.215 309.424 141.599 309.424 139.606C309.424 139.169 309.342 138.742 309.2 138.346C311.071 137.675 312.362 135.875 312.362 133.872ZM297.762 131.636L303.029 134.035L308.336 129.379C308.417 128.992 308.447 128.616 308.447 128.21C308.447 124.936 305.784 122.272 302.51 122.272C300.548 122.272 298.728 123.238 297.62 124.855L296.735 129.44L297.762 131.636ZM292.202 138.396C292.202 137.99 292.232 137.593 292.313 137.207L297.498 132.53L302.785 134.94L303.954 137.177L303.08 141.741C301.972 143.368 300.132 144.344 298.159 144.344C294.875 144.344 292.202 141.68 292.202 138.396ZM292.283 128.098L295.892 128.952L296.685 124.855C296.197 124.478 295.587 124.275 294.956 124.275C293.391 124.275 292.11 125.546 292.11 127.122C292.11 127.457 292.171 127.793 292.283 128.098ZM289.233 132.734C289.233 131.036 290.362 129.49 291.968 128.962L295.933 129.897L296.858 131.88L291.795 136.455C290.26 135.865 289.233 134.391 289.233 132.734ZM303.995 141.741C304.493 142.117 305.093 142.331 305.713 142.331C307.279 142.331 308.56 141.06 308.56 139.484C308.56 139.139 308.499 138.803 308.387 138.498L304.788 137.654L303.995 141.741ZM308.691 137.634L304.726 136.709L303.679 134.686L308.864 130.141C310.399 130.721 311.426 132.205 311.426 133.852C311.426 135.56 310.308 137.105 308.691 137.634Z" fill="#B4B4B4"/>
</g>
</g>
<defs>
<linearGradient id="paint0_linear_893_3319" x1="279.869" y1="89.5944" x2="235.519" y2="89.5944" gradientUnits="userSpaceOnUse">
<stop offset="0.00550741" stop-color="#7D7D7D"/>
<stop offset="0.895" stop-color="#171717" stop-opacity="0"/>
</linearGradient>
<linearGradient id="paint1_linear_893_3319" x1="258.309" y1="89.5945" x2="198.392" y2="89.5945" gradientUnits="userSpaceOnUse">
<stop stop-color="#7D7D7D"/>
<stop offset="1" stop-color="#171717" stop-opacity="0"/>
</linearGradient>
<clipPath id="clip0_893_3319">
<rect width="349" height="174" fill="white" transform="translate(0 0.580078)"/>
</clipPath>
<clipPath id="clip1_893_3319">
<rect width="607.013" height="174" fill="white" transform="translate(-247 0.580078)"/>
</clipPath>
</defs>
</svg>
