<svg width="349" height="175" viewBox="0 0 349 175" fill="none" xmlns="http://www.w3.org/2000/svg">
<g clip-path="url(#clip0_895_5174)">
<rect width="349" height="174" transform="translate(0 0.580078)" fill="white"/>
<g clip-path="url(#clip1_895_5174)">
<rect width="607.013" height="174" transform="translate(-241 0.580078)" fill="white"/>
<mask id="mask0_895_5174" style="mask-type:alpha" maskUnits="userSpaceOnUse" x="199" y="25" width="90" height="130">
<rect x="199.369" y="25.0376" width="88.6931" height="129.113" fill="url(#paint0_linear_895_5174)"/>
</mask>
<g mask="url(#mask0_895_5174)">
<path d="M200.195 68.7239H220.333C222.436 68.7239 224.506 67.9325 226.352 66.4224L264.539 35.1869C266.385 33.6768 268.455 32.8854 270.559 32.8854M200.195 73.8219H220.333C222.436 73.8219 224.506 73.2283 226.352 72.0957L264.539 48.6691C266.385 47.5365 268.455 46.943 270.559 46.943H290.598M200.195 79.4056H220.333C222.436 79.4056 224.506 79.01 226.352 78.2549L264.539 62.6372C266.385 61.8821 268.455 61.4864 270.559 61.4864H278.067H281.82M200.195 84.7436H220.333C222.436 84.7436 224.506 84.5458 226.352 84.1682L264.539 76.3594C266.385 75.9818 268.455 75.784 270.559 75.784H278.067M200.195 89.2406H220.333C222.436 89.2406 224.506 89.2406 226.352 89.2406H264.539C266.385 89.2406 287.168 89.2406 289.271 89.2406M200.195 93.9772H220.333C222.436 93.9772 224.506 94.175 226.352 94.5526L264.539 102.361C266.385 102.739 268.455 102.937 270.559 102.937H278.067M200.195 99.0758H220.333C222.436 99.0758 224.506 99.4715 226.352 100.227L264.539 115.844C266.385 116.599 268.455 116.995 270.559 116.995H278.067H281.82M200.195 104.899H220.333C222.436 104.899 224.506 105.492 226.352 106.625L264.539 130.051C266.385 131.184 268.455 131.777 270.559 131.777H290.598M200.195 109.997H220.333C222.436 109.997 224.506 110.788 226.352 112.299L264.539 143.534C266.385 145.044 268.455 145.836 270.559 145.836" stroke="#525252" stroke-width="0.39726"/>
</g>
<mask id="mask1_895_5174" style="mask-type:alpha" maskUnits="userSpaceOnUse" x="204" y="30" width="90" height="119">
<rect x="204.394" y="30.7178" width="88.6931" height="117.753" fill="url(#paint1_linear_895_5174)"/>
</mask>
<g mask="url(#mask1_895_5174)">
<path d="M205.219 71.411H225.356C227.46 71.411 229.53 70.6892 231.376 69.312L250.469 55.0684M205.219 80.3024H225.356C227.46 80.3024 229.53 79.9415 231.376 79.2529L240.923 75.692L245.696 73.9115M205.219 89.272H225.356C227.46 89.272 229.53 89.272 231.376 89.272H240.923H245.696M205.219 98.2418H225.356C227.46 98.2418 229.53 98.6027 231.376 99.2913L240.923 102.852M205.219 107.839H225.356C227.46 107.839 229.53 108.561 231.376 109.938L250.469 124.182" stroke="#525252" stroke-width="0.39726"/>
</g>
<rect x="-2" y="-2.05481" width="208" height="17.9452" fill="white"/>
<rect x="-2" y="-2.05481" width="208" height="17.9452" stroke="#DFDFDF" stroke-width="0.39726"/>
<rect x="4.35645" y="4.15356" width="23.0271" height="5.52831" rx="2.76416" fill="#F3F3F3"/>
<rect x="30.5615" y="1.91772" width="24.5342" height="10" rx="3.17808" fill="#F3F3F3"/>
<path d="M40.0122 9.91772H36.1827V9.06759L37.9942 7.48649C38.2802 7.23225 38.5 6.99124 38.6536 6.76348C38.8125 6.53572 38.892 6.29471 38.892 6.04047V5.95307C38.892 5.66175 38.8125 5.43928 38.6536 5.28567C38.4947 5.12677 38.2643 5.04732 37.9624 5.04732C37.6552 5.04732 37.4168 5.12942 37.2473 5.29362C37.0831 5.45782 36.9639 5.66704 36.8898 5.92129L36.1111 5.62732C36.1641 5.45252 36.2409 5.28567 36.3416 5.12677C36.4422 4.96257 36.5693 4.81691 36.7229 4.68978C36.8818 4.56266 37.0672 4.46202 37.2791 4.38787C37.4963 4.31371 37.7452 4.27663 38.0259 4.27663C38.312 4.27663 38.5662 4.31901 38.7887 4.40376C39.0164 4.48321 39.2071 4.59444 39.3607 4.73746C39.5143 4.88047 39.6309 5.05262 39.7103 5.25389C39.7898 5.44988 39.8295 5.66704 39.8295 5.9054C39.8295 6.12787 39.7951 6.33444 39.7262 6.52513C39.6626 6.71051 39.57 6.8906 39.4481 7.0654C39.3316 7.2349 39.1912 7.3991 39.027 7.558C38.8628 7.7169 38.6827 7.87581 38.4868 8.03471L37.144 9.16293H40.0122V9.91772ZM42.8297 10.0131C42.4801 10.0131 42.1755 9.94951 41.916 9.82238C41.6617 9.68996 41.4499 9.50193 41.2804 9.25827C41.1162 9.01462 40.9943 8.71535 40.9149 8.36047C40.8354 8.00558 40.7957 7.60038 40.7957 7.14485C40.7957 6.69462 40.8354 6.29207 40.9149 5.93718C40.9943 5.577 41.1162 5.27508 41.2804 5.03143C41.4499 4.78778 41.6617 4.60239 41.916 4.47526C42.1755 4.34284 42.4801 4.27663 42.8297 4.27663C43.1793 4.27663 43.4812 4.34284 43.7354 4.47526C43.995 4.60239 44.2068 4.78778 44.371 5.03143C44.5405 5.27508 44.665 5.577 44.7445 5.93718C44.8239 6.29207 44.8636 6.69462 44.8636 7.14485C44.8636 7.60038 44.8239 8.00558 44.7445 8.36047C44.665 8.71535 44.5405 9.01462 44.371 9.25827C44.2068 9.50193 43.995 9.68996 43.7354 9.82238C43.4812 9.94951 43.1793 10.0131 42.8297 10.0131ZM42.8297 9.28211C43.2322 9.28211 43.5183 9.1338 43.6878 8.83718C43.8626 8.53526 43.9499 8.13006 43.9499 7.62156V6.66814C43.9499 6.15965 43.8626 5.75709 43.6878 5.46047C43.5183 5.15855 43.2322 5.00759 42.8297 5.00759C42.6284 5.00759 42.4563 5.04732 42.3132 5.12677C42.1702 5.20093 42.0537 5.31216 41.9637 5.46047C41.8736 5.60348 41.8074 5.77828 41.765 5.98485C41.7279 6.18613 41.7094 6.41389 41.7094 6.66814V7.62156C41.7094 7.87581 41.7279 8.10622 41.765 8.31279C41.8074 8.51407 41.8736 8.68887 41.9637 8.83718C42.0537 8.98019 42.1702 9.09142 42.3132 9.17088C42.4563 9.24503 42.6284 9.28211 42.8297 9.28211ZM42.8297 7.61362C42.6443 7.61362 42.5145 7.57654 42.4404 7.50238C42.3715 7.42823 42.3371 7.33818 42.3371 7.23225V7.05745C42.3371 6.95152 42.3715 6.86147 42.4404 6.78732C42.5145 6.71316 42.6443 6.67608 42.8297 6.67608C43.0151 6.67608 43.1422 6.71316 43.211 6.78732C43.2852 6.86147 43.3223 6.95152 43.3223 7.05745V7.23225C43.3223 7.33818 43.2852 7.42823 43.211 7.50238C43.1422 7.57654 43.0151 7.61362 42.8297 7.61362ZM47.5937 10.0131C47.2441 10.0131 46.9395 9.94951 46.68 9.82238C46.4257 9.68996 46.2139 9.50193 46.0444 9.25827C45.8802 9.01462 45.7584 8.71535 45.6789 8.36047C45.5994 8.00558 45.5597 7.60038 45.5597 7.14485C45.5597 6.69462 45.5994 6.29207 45.6789 5.93718C45.7584 5.577 45.8802 5.27508 46.0444 5.03143C46.2139 4.78778 46.4257 4.60239 46.68 4.47526C46.9395 4.34284 47.2441 4.27663 47.5937 4.27663C47.9433 4.27663 48.2452 4.34284 48.4994 4.47526C48.759 4.60239 48.9709 4.78778 49.1351 5.03143C49.3046 5.27508 49.429 5.577 49.5085 5.93718C49.5879 6.29207 49.6277 6.69462 49.6277 7.14485C49.6277 7.60038 49.5879 8.00558 49.5085 8.36047C49.429 8.71535 49.3046 9.01462 49.1351 9.25827C48.9709 9.50193 48.759 9.68996 48.4994 9.82238C48.2452 9.94951 47.9433 10.0131 47.5937 10.0131ZM47.5937 9.28211C47.9962 9.28211 48.2823 9.1338 48.4518 8.83718C48.6266 8.53526 48.714 8.13006 48.714 7.62156V6.66814C48.714 6.15965 48.6266 5.75709 48.4518 5.46047C48.2823 5.15855 47.9962 5.00759 47.5937 5.00759C47.3924 5.00759 47.2203 5.04732 47.0773 5.12677C46.9342 5.20093 46.8177 5.31216 46.7277 5.46047C46.6376 5.60348 46.5714 5.77828 46.529 5.98485C46.492 6.18613 46.4734 6.41389 46.4734 6.66814V7.62156C46.4734 7.87581 46.492 8.10622 46.529 8.31279C46.5714 8.51407 46.6376 8.68887 46.7277 8.83718C46.8177 8.98019 46.9342 9.09142 47.0773 9.17088C47.2203 9.24503 47.3924 9.28211 47.5937 9.28211ZM47.5937 7.61362C47.4083 7.61362 47.2785 7.57654 47.2044 7.50238C47.1355 7.42823 47.1011 7.33818 47.1011 7.23225V7.05745C47.1011 6.95152 47.1355 6.86147 47.2044 6.78732C47.2785 6.71316 47.4083 6.67608 47.5937 6.67608C47.7791 6.67608 47.9062 6.71316 47.9751 6.78732C48.0492 6.86147 48.0863 6.95152 48.0863 7.05745V7.23225C48.0863 7.33818 48.0492 7.42823 47.9751 7.50238C47.9062 7.57654 47.7791 7.61362 47.5937 7.61362Z" fill="#C7C7C7"/>
<rect x="58.2744" y="4.15356" width="12.265" height="5.52831" rx="2.76416" fill="#F3F3F3"/>
<rect x="73.7168" y="4.15356" width="69.7703" height="5.52831" rx="2.76416" fill="#F3F3F3"/>
<rect x="168.912" y="4.15356" width="30.7322" height="5.52831" rx="2.76416" fill="#F3F3F3"/>
<rect x="-2" y="15.8904" width="208" height="17.9452" fill="white"/>
<rect x="-2" y="15.8904" width="208" height="17.9452" stroke="#DFDFDF" stroke-width="0.39726"/>
<rect x="4.35645" y="22.0989" width="23.0271" height="5.52831" rx="2.76416" fill="#F3F3F3"/>
<rect x="30.5615" y="19.863" width="24.5342" height="10" rx="3.17808" fill="#F3F3F3"/>
<path d="M40.0122 27.863H36.1827V27.0129L37.9942 25.4318C38.2802 25.1776 38.5 24.9366 38.6536 24.7088C38.8125 24.481 38.892 24.24 38.892 23.9858V23.8984C38.892 23.6071 38.8125 23.3846 38.6536 23.231C38.4947 23.0721 38.2643 22.9926 37.9624 22.9926C37.6552 22.9926 37.4168 23.0747 37.2473 23.2389C37.0831 23.4031 36.9639 23.6124 36.8898 23.8666L36.1111 23.5726C36.1641 23.3978 36.2409 23.231 36.3416 23.0721C36.4422 22.9079 36.5693 22.7622 36.7229 22.6351C36.8818 22.508 37.0672 22.4073 37.2791 22.3332C37.4963 22.259 37.7452 22.2219 38.0259 22.2219C38.312 22.2219 38.5662 22.2643 38.7887 22.3491C39.0164 22.4285 39.2071 22.5398 39.3607 22.6828C39.5143 22.8258 39.6309 22.9979 39.7103 23.1992C39.7898 23.3952 39.8295 23.6124 39.8295 23.8507C39.8295 24.0732 39.7951 24.2798 39.7262 24.4704C39.6626 24.6558 39.57 24.8359 39.4481 25.0107C39.3316 25.1802 39.1912 25.3444 39.027 25.5033C38.8628 25.6622 38.6827 25.8211 38.4868 25.98L37.144 27.1082H40.0122V27.863ZM42.8297 27.9584C42.4801 27.9584 42.1755 27.8948 41.916 27.7677C41.6617 27.6353 41.4499 27.4472 41.2804 27.2036C41.1162 26.9599 40.9943 26.6607 40.9149 26.3058C40.8354 25.9509 40.7957 25.5457 40.7957 25.0902C40.7957 24.6399 40.8354 24.2374 40.9149 23.8825C40.9943 23.5223 41.1162 23.2204 41.2804 22.9767C41.4499 22.7331 41.6617 22.5477 41.916 22.4206C42.1755 22.2882 42.4801 22.2219 42.8297 22.2219C43.1793 22.2219 43.4812 22.2882 43.7354 22.4206C43.995 22.5477 44.2068 22.7331 44.371 22.9767C44.5405 23.2204 44.665 23.5223 44.7445 23.8825C44.8239 24.2374 44.8636 24.6399 44.8636 25.0902C44.8636 25.5457 44.8239 25.9509 44.7445 26.3058C44.665 26.6607 44.5405 26.9599 44.371 27.2036C44.2068 27.4472 43.995 27.6353 43.7354 27.7677C43.4812 27.8948 43.1793 27.9584 42.8297 27.9584ZM42.8297 27.2274C43.2322 27.2274 43.5183 27.0791 43.6878 26.7825C43.8626 26.4806 43.9499 26.0754 43.9499 25.5669V24.6135C43.9499 24.105 43.8626 23.7024 43.6878 23.4058C43.5183 23.1039 43.2322 22.9529 42.8297 22.9529C42.6284 22.9529 42.4563 22.9926 42.3132 23.0721C42.1702 23.1462 42.0537 23.2575 41.9637 23.4058C41.8736 23.5488 41.8074 23.7236 41.765 23.9302C41.7279 24.1314 41.7094 24.3592 41.7094 24.6135V25.5669C41.7094 25.8211 41.7279 26.0515 41.765 26.2581C41.8074 26.4594 41.8736 26.6342 41.9637 26.7825C42.0537 26.9255 42.1702 27.0367 42.3132 27.1162C42.4563 27.1903 42.6284 27.2274 42.8297 27.2274ZM42.8297 25.5589C42.6443 25.5589 42.5145 25.5219 42.4404 25.4477C42.3715 25.3735 42.3371 25.2835 42.3371 25.1776V25.0028C42.3371 24.8968 42.3715 24.8068 42.4404 24.7326C42.5145 24.6585 42.6443 24.6214 42.8297 24.6214C43.0151 24.6214 43.1422 24.6585 43.211 24.7326C43.2852 24.8068 43.3223 24.8968 43.3223 25.0028V25.1776C43.3223 25.2835 43.2852 25.3735 43.211 25.4477C43.1422 25.5219 43.0151 25.5589 42.8297 25.5589ZM47.5937 27.9584C47.2441 27.9584 46.9395 27.8948 46.68 27.7677C46.4257 27.6353 46.2139 27.4472 46.0444 27.2036C45.8802 26.9599 45.7584 26.6607 45.6789 26.3058C45.5994 25.9509 45.5597 25.5457 45.5597 25.0902C45.5597 24.6399 45.5994 24.2374 45.6789 23.8825C45.7584 23.5223 45.8802 23.2204 46.0444 22.9767C46.2139 22.7331 46.4257 22.5477 46.68 22.4206C46.9395 22.2882 47.2441 22.2219 47.5937 22.2219C47.9433 22.2219 48.2452 22.2882 48.4994 22.4206C48.759 22.5477 48.9709 22.7331 49.1351 22.9767C49.3046 23.2204 49.429 23.5223 49.5085 23.8825C49.5879 24.2374 49.6277 24.6399 49.6277 25.0902C49.6277 25.5457 49.5879 25.9509 49.5085 26.3058C49.429 26.6607 49.3046 26.9599 49.1351 27.2036C48.9709 27.4472 48.759 27.6353 48.4994 27.7677C48.2452 27.8948 47.9433 27.9584 47.5937 27.9584ZM47.5937 27.2274C47.9962 27.2274 48.2823 27.0791 48.4518 26.7825C48.6266 26.4806 48.714 26.0754 48.714 25.5669V24.6135C48.714 24.105 48.6266 23.7024 48.4518 23.4058C48.2823 23.1039 47.9962 22.9529 47.5937 22.9529C47.3924 22.9529 47.2203 22.9926 47.0773 23.0721C46.9342 23.1462 46.8177 23.2575 46.7277 23.4058C46.6376 23.5488 46.5714 23.7236 46.529 23.9302C46.492 24.1314 46.4734 24.3592 46.4734 24.6135V25.5669C46.4734 25.8211 46.492 26.0515 46.529 26.2581C46.5714 26.4594 46.6376 26.6342 46.7277 26.7825C46.8177 26.9255 46.9342 27.0367 47.0773 27.1162C47.2203 27.1903 47.3924 27.2274 47.5937 27.2274ZM47.5937 25.5589C47.4083 25.5589 47.2785 25.5219 47.2044 25.4477C47.1355 25.3735 47.1011 25.2835 47.1011 25.1776V25.0028C47.1011 24.8968 47.1355 24.8068 47.2044 24.7326C47.2785 24.6585 47.4083 24.6214 47.5937 24.6214C47.7791 24.6214 47.9062 24.6585 47.9751 24.7326C48.0492 24.8068 48.0863 24.8968 48.0863 25.0028V25.1776C48.0863 25.2835 48.0492 25.3735 47.9751 25.4477C47.9062 25.5219 47.7791 25.5589 47.5937 25.5589Z" fill="#C7C7C7"/>
<rect x="58.2744" y="22.0989" width="12.265" height="5.52831" rx="2.76416" fill="#F3F3F3"/>
<rect x="73.7168" y="22.0989" width="69.7703" height="5.52831" rx="2.76416" fill="#F3F3F3"/>
<rect x="168.912" y="22.0989" width="30.7322" height="5.52831" rx="2.76416" fill="#F3F3F3"/>
<rect x="-2" y="33.8356" width="208" height="17.9452" fill="white"/>
<rect x="-2" y="33.8356" width="208" height="17.9452" stroke="#DFDFDF" stroke-width="0.39726"/>
<rect x="4.35645" y="40.0439" width="23.0271" height="5.52831" rx="2.76416" fill="#F3F3F3"/>
<rect x="30.5615" y="37.8081" width="24.5342" height="10" rx="3.17808" fill="#F3F3F3"/>
<path d="M40.0122 45.8081H36.1827V44.958L37.9942 43.3769C38.2802 43.1226 38.5 42.8816 38.6536 42.6539C38.8125 42.4261 38.892 42.1851 38.892 41.9308V41.8435C38.892 41.5521 38.8125 41.3297 38.6536 41.1761C38.4947 41.0172 38.2643 40.9377 37.9624 40.9377C37.6552 40.9377 37.4168 41.0198 37.2473 41.184C37.0831 41.3482 36.9639 41.5574 36.8898 41.8117L36.1111 41.5177C36.1641 41.3429 36.2409 41.1761 36.3416 41.0172C36.4422 40.853 36.5693 40.7073 36.7229 40.5802C36.8818 40.453 37.0672 40.3524 37.2791 40.2782C37.4963 40.2041 37.7452 40.167 38.0259 40.167C38.312 40.167 38.5662 40.2094 38.7887 40.2941C39.0164 40.3736 39.2071 40.4848 39.3607 40.6278C39.5143 40.7709 39.6309 40.943 39.7103 41.1443C39.7898 41.3403 39.8295 41.5574 39.8295 41.7958C39.8295 42.0182 39.7951 42.2248 39.7262 42.4155C39.6626 42.6009 39.57 42.781 39.4481 42.9558C39.3316 43.1253 39.1912 43.2895 39.027 43.4484C38.8628 43.6073 38.6827 43.7662 38.4868 43.9251L37.144 45.0533H40.0122V45.8081ZM42.8297 45.9034C42.4801 45.9034 42.1755 45.8399 41.916 45.7128C41.6617 45.5803 41.4499 45.3923 41.2804 45.1487C41.1162 44.905 40.9943 44.6057 40.9149 44.2508C40.8354 43.896 40.7957 43.4908 40.7957 43.0352C40.7957 42.585 40.8354 42.1824 40.9149 41.8276C40.9943 41.4674 41.1162 41.1655 41.2804 40.9218C41.4499 40.6782 41.6617 40.4928 41.916 40.3656C42.1755 40.2332 42.4801 40.167 42.8297 40.167C43.1793 40.167 43.4812 40.2332 43.7354 40.3656C43.995 40.4928 44.2068 40.6782 44.371 40.9218C44.5405 41.1655 44.665 41.4674 44.7445 41.8276C44.8239 42.1824 44.8636 42.585 44.8636 43.0352C44.8636 43.4908 44.8239 43.896 44.7445 44.2508C44.665 44.6057 44.5405 44.905 44.371 45.1487C44.2068 45.3923 43.995 45.5803 43.7354 45.7128C43.4812 45.8399 43.1793 45.9034 42.8297 45.9034ZM42.8297 45.1725C43.2322 45.1725 43.5183 45.0242 43.6878 44.7276C43.8626 44.4256 43.9499 44.0204 43.9499 43.5119V42.5585C43.9499 42.05 43.8626 41.6475 43.6878 41.3508C43.5183 41.0489 43.2322 40.898 42.8297 40.898C42.6284 40.898 42.4563 40.9377 42.3132 41.0172C42.1702 41.0913 42.0537 41.2025 41.9637 41.3508C41.8736 41.4939 41.8074 41.6687 41.765 41.8752C41.7279 42.0765 41.7094 42.3043 41.7094 42.5585V43.5119C41.7094 43.7662 41.7279 43.9966 41.765 44.2032C41.8074 44.4045 41.8736 44.5792 41.9637 44.7276C42.0537 44.8706 42.1702 44.9818 42.3132 45.0613C42.4563 45.1354 42.6284 45.1725 42.8297 45.1725ZM42.8297 43.504C42.6443 43.504 42.5145 43.4669 42.4404 43.3928C42.3715 43.3186 42.3371 43.2286 42.3371 43.1226V42.9478C42.3371 42.8419 42.3715 42.7519 42.4404 42.6777C42.5145 42.6035 42.6443 42.5665 42.8297 42.5665C43.0151 42.5665 43.1422 42.6035 43.211 42.6777C43.2852 42.7519 43.3223 42.8419 43.3223 42.9478V43.1226C43.3223 43.2286 43.2852 43.3186 43.211 43.3928C43.1422 43.4669 43.0151 43.504 42.8297 43.504ZM47.5937 45.9034C47.2441 45.9034 46.9395 45.8399 46.68 45.7128C46.4257 45.5803 46.2139 45.3923 46.0444 45.1487C45.8802 44.905 45.7584 44.6057 45.6789 44.2508C45.5994 43.896 45.5597 43.4908 45.5597 43.0352C45.5597 42.585 45.5994 42.1824 45.6789 41.8276C45.7584 41.4674 45.8802 41.1655 46.0444 40.9218C46.2139 40.6782 46.4257 40.4928 46.68 40.3656C46.9395 40.2332 47.2441 40.167 47.5937 40.167C47.9433 40.167 48.2452 40.2332 48.4994 40.3656C48.759 40.4928 48.9709 40.6782 49.1351 40.9218C49.3046 41.1655 49.429 41.4674 49.5085 41.8276C49.5879 42.1824 49.6277 42.585 49.6277 43.0352C49.6277 43.4908 49.5879 43.896 49.5085 44.2508C49.429 44.6057 49.3046 44.905 49.1351 45.1487C48.9709 45.3923 48.759 45.5803 48.4994 45.7128C48.2452 45.8399 47.9433 45.9034 47.5937 45.9034ZM47.5937 45.1725C47.9962 45.1725 48.2823 45.0242 48.4518 44.7276C48.6266 44.4256 48.714 44.0204 48.714 43.5119V42.5585C48.714 42.05 48.6266 41.6475 48.4518 41.3508C48.2823 41.0489 47.9962 40.898 47.5937 40.898C47.3924 40.898 47.2203 40.9377 47.0773 41.0172C46.9342 41.0913 46.8177 41.2025 46.7277 41.3508C46.6376 41.4939 46.5714 41.6687 46.529 41.8752C46.492 42.0765 46.4734 42.3043 46.4734 42.5585V43.5119C46.4734 43.7662 46.492 43.9966 46.529 44.2032C46.5714 44.4045 46.6376 44.5792 46.7277 44.7276C46.8177 44.8706 46.9342 44.9818 47.0773 45.0613C47.2203 45.1354 47.3924 45.1725 47.5937 45.1725ZM47.5937 43.504C47.4083 43.504 47.2785 43.4669 47.2044 43.3928C47.1355 43.3186 47.1011 43.2286 47.1011 43.1226V42.9478C47.1011 42.8419 47.1355 42.7519 47.2044 42.6777C47.2785 42.6035 47.4083 42.5665 47.5937 42.5665C47.7791 42.5665 47.9062 42.6035 47.9751 42.6777C48.0492 42.7519 48.0863 42.8419 48.0863 42.9478V43.1226C48.0863 43.2286 48.0492 43.3186 47.9751 43.3928C47.9062 43.4669 47.7791 43.504 47.5937 43.504Z" fill="#C7C7C7"/>
<rect x="58.2744" y="40.0439" width="12.265" height="5.52831" rx="2.76416" fill="#F3F3F3"/>
<rect x="73.7168" y="40.0439" width="69.7703" height="5.52831" rx="2.76416" fill="#F3F3F3"/>
<rect x="168.912" y="40.0439" width="30.7322" height="5.52831" rx="2.76416" fill="#F3F3F3"/>
<rect x="-2" y="51.7808" width="208" height="17.9452" fill="white"/>
<rect x="-2" y="51.7808" width="208" height="17.9452" stroke="#DFDFDF" stroke-width="0.39726"/>
<rect x="4.35645" y="57.9894" width="23.0271" height="5.52831" rx="2.76416" fill="#F3F3F3"/>
<rect x="30.5615" y="55.7535" width="24.5342" height="10" rx="3.17808" fill="#F3F3F3"/>
<path d="M40.0122 63.7535H36.1827V62.9034L37.9942 61.3223C38.2802 61.0681 38.5 60.8271 38.6536 60.5993C38.8125 60.3715 38.892 60.1305 38.892 59.8763V59.7889C38.892 59.4976 38.8125 59.2751 38.6536 59.1215C38.4947 58.9626 38.2643 58.8831 37.9624 58.8831C37.6552 58.8831 37.4168 58.9652 37.2473 59.1294C37.0831 59.2936 36.9639 59.5029 36.8898 59.7571L36.1111 59.4631C36.1641 59.2883 36.2409 59.1215 36.3416 58.9626C36.4422 58.7984 36.5693 58.6527 36.7229 58.5256C36.8818 58.3985 37.0672 58.2978 37.2791 58.2237C37.4963 58.1495 37.7452 58.1124 38.0259 58.1124C38.312 58.1124 38.5662 58.1548 38.7887 58.2396C39.0164 58.319 39.2071 58.4303 39.3607 58.5733C39.5143 58.7163 39.6309 58.8884 39.7103 59.0897C39.7898 59.2857 39.8295 59.5029 39.8295 59.7412C39.8295 59.9637 39.7951 60.1703 39.7262 60.3609C39.6626 60.5463 39.57 60.7264 39.4481 60.9012C39.3316 61.0707 39.1912 61.2349 39.027 61.3938C38.8628 61.5527 38.6827 61.7116 38.4868 61.8705L37.144 62.9987H40.0122V63.7535ZM42.8297 63.8489C42.4801 63.8489 42.1755 63.7853 41.916 63.6582C41.6617 63.5258 41.4499 63.3377 41.2804 63.0941C41.1162 62.8504 40.9943 62.5512 40.9149 62.1963C40.8354 61.8414 40.7957 61.4362 40.7957 60.9807C40.7957 60.5304 40.8354 60.1279 40.9149 59.773C40.9943 59.4128 41.1162 59.1109 41.2804 58.8672C41.4499 58.6236 41.6617 58.4382 41.916 58.3111C42.1755 58.1787 42.4801 58.1124 42.8297 58.1124C43.1793 58.1124 43.4812 58.1787 43.7354 58.3111C43.995 58.4382 44.2068 58.6236 44.371 58.8672C44.5405 59.1109 44.665 59.4128 44.7445 59.773C44.8239 60.1279 44.8636 60.5304 44.8636 60.9807C44.8636 61.4362 44.8239 61.8414 44.7445 62.1963C44.665 62.5512 44.5405 62.8504 44.371 63.0941C44.2068 63.3377 43.995 63.5258 43.7354 63.6582C43.4812 63.7853 43.1793 63.8489 42.8297 63.8489ZM42.8297 63.1179C43.2322 63.1179 43.5183 62.9696 43.6878 62.673C43.8626 62.3711 43.9499 61.9659 43.9499 61.4574V60.504C43.9499 59.9955 43.8626 59.5929 43.6878 59.2963C43.5183 58.9944 43.2322 58.8434 42.8297 58.8434C42.6284 58.8434 42.4563 58.8831 42.3132 58.9626C42.1702 59.0367 42.0537 59.148 41.9637 59.2963C41.8736 59.4393 41.8074 59.6141 41.765 59.8207C41.7279 60.0219 41.7094 60.2497 41.7094 60.504V61.4574C41.7094 61.7116 41.7279 61.942 41.765 62.1486C41.8074 62.3499 41.8736 62.5247 41.9637 62.673C42.0537 62.816 42.1702 62.9272 42.3132 63.0067C42.4563 63.0808 42.6284 63.1179 42.8297 63.1179ZM42.8297 61.4494C42.6443 61.4494 42.5145 61.4124 42.4404 61.3382C42.3715 61.264 42.3371 61.174 42.3371 61.0681V60.8933C42.3371 60.7873 42.3715 60.6973 42.4404 60.6231C42.5145 60.549 42.6443 60.5119 42.8297 60.5119C43.0151 60.5119 43.1422 60.549 43.211 60.6231C43.2852 60.6973 43.3223 60.7873 43.3223 60.8933V61.0681C43.3223 61.174 43.2852 61.264 43.211 61.3382C43.1422 61.4124 43.0151 61.4494 42.8297 61.4494ZM47.5937 63.8489C47.2441 63.8489 46.9395 63.7853 46.68 63.6582C46.4257 63.5258 46.2139 63.3377 46.0444 63.0941C45.8802 62.8504 45.7584 62.5512 45.6789 62.1963C45.5994 61.8414 45.5597 61.4362 45.5597 60.9807C45.5597 60.5304 45.5994 60.1279 45.6789 59.773C45.7584 59.4128 45.8802 59.1109 46.0444 58.8672C46.2139 58.6236 46.4257 58.4382 46.68 58.3111C46.9395 58.1787 47.2441 58.1124 47.5937 58.1124C47.9433 58.1124 48.2452 58.1787 48.4994 58.3111C48.759 58.4382 48.9709 58.6236 49.1351 58.8672C49.3046 59.1109 49.429 59.4128 49.5085 59.773C49.5879 60.1279 49.6277 60.5304 49.6277 60.9807C49.6277 61.4362 49.5879 61.8414 49.5085 62.1963C49.429 62.5512 49.3046 62.8504 49.1351 63.0941C48.9709 63.3377 48.759 63.5258 48.4994 63.6582C48.2452 63.7853 47.9433 63.8489 47.5937 63.8489ZM47.5937 63.1179C47.9962 63.1179 48.2823 62.9696 48.4518 62.673C48.6266 62.3711 48.714 61.9659 48.714 61.4574V60.504C48.714 59.9955 48.6266 59.5929 48.4518 59.2963C48.2823 58.9944 47.9962 58.8434 47.5937 58.8434C47.3924 58.8434 47.2203 58.8831 47.0773 58.9626C46.9342 59.0367 46.8177 59.148 46.7277 59.2963C46.6376 59.4393 46.5714 59.6141 46.529 59.8207C46.492 60.0219 46.4734 60.2497 46.4734 60.504V61.4574C46.4734 61.7116 46.492 61.942 46.529 62.1486C46.5714 62.3499 46.6376 62.5247 46.7277 62.673C46.8177 62.816 46.9342 62.9272 47.0773 63.0067C47.2203 63.0808 47.3924 63.1179 47.5937 63.1179ZM47.5937 61.4494C47.4083 61.4494 47.2785 61.4124 47.2044 61.3382C47.1355 61.264 47.1011 61.174 47.1011 61.0681V60.8933C47.1011 60.7873 47.1355 60.6973 47.2044 60.6231C47.2785 60.549 47.4083 60.5119 47.5937 60.5119C47.7791 60.5119 47.9062 60.549 47.9751 60.6231C48.0492 60.6973 48.0863 60.7873 48.0863 60.8933V61.0681C48.0863 61.174 48.0492 61.264 47.9751 61.3382C47.9062 61.4124 47.7791 61.4494 47.5937 61.4494Z" fill="#C7C7C7"/>
<rect x="58.2744" y="57.9894" width="12.265" height="5.52831" rx="2.76416" fill="#F3F3F3"/>
<rect x="73.7168" y="57.9894" width="69.7703" height="5.52831" rx="2.76416" fill="#F3F3F3"/>
<rect x="168.912" y="57.9894" width="30.7322" height="5.52831" rx="2.76416" fill="#F3F3F3"/>
<rect x="-2" y="69.726" width="208" height="17.9452" fill="white"/>
<rect x="-2" y="69.726" width="208" height="17.9452" stroke="#DFDFDF" stroke-width="0.39726"/>
<rect x="4.35645" y="75.9343" width="23.0271" height="5.52831" rx="2.76416" fill="#F3F3F3"/>
<rect x="30.5615" y="73.6985" width="24.5342" height="10" rx="3.17808" fill="#F3F3F3"/>
<path d="M40.0122 81.6985H36.1827V80.8484L37.9942 79.2673C38.2802 79.013 38.5 78.772 38.6536 78.5442C38.8125 78.3165 38.892 78.0755 38.892 77.8212V77.7338C38.892 77.4425 38.8125 77.22 38.6536 77.0664C38.4947 76.9075 38.2643 76.8281 37.9624 76.8281C37.6552 76.8281 37.4168 76.9102 37.2473 77.0744C37.0831 77.2386 36.9639 77.4478 36.8898 77.7021L36.1111 77.4081C36.1641 77.2333 36.2409 77.0664 36.3416 76.9075C36.4422 76.7433 36.5693 76.5977 36.7229 76.4705C36.8818 76.3434 37.0672 76.2428 37.2791 76.1686C37.4963 76.0945 37.7452 76.0574 38.0259 76.0574C38.312 76.0574 38.5662 76.0998 38.7887 76.1845C39.0164 76.264 39.2071 76.3752 39.3607 76.5182C39.5143 76.6612 39.6309 76.8334 39.7103 77.0347C39.7898 77.2306 39.8295 77.4478 39.8295 77.6862C39.8295 77.9086 39.7951 78.1152 39.7262 78.3059C39.6626 78.4913 39.57 78.6714 39.4481 78.8462C39.3316 79.0157 39.1912 79.1799 39.027 79.3388C38.8628 79.4977 38.6827 79.6566 38.4868 79.8155L37.144 80.9437H40.0122V81.6985ZM42.8297 81.7938C42.4801 81.7938 42.1755 81.7303 41.916 81.6031C41.6617 81.4707 41.4499 81.2827 41.2804 81.039C41.1162 80.7954 40.9943 80.4961 40.9149 80.1412C40.8354 79.7863 40.7957 79.3811 40.7957 78.9256C40.7957 78.4754 40.8354 78.0728 40.9149 77.7179C40.9943 77.3578 41.1162 77.0558 41.2804 76.8122C41.4499 76.5685 41.6617 76.3831 41.916 76.256C42.1755 76.1236 42.4801 76.0574 42.8297 76.0574C43.1793 76.0574 43.4812 76.1236 43.7354 76.256C43.995 76.3831 44.2068 76.5685 44.371 76.8122C44.5405 77.0558 44.665 77.3578 44.7445 77.7179C44.8239 78.0728 44.8636 78.4754 44.8636 78.9256C44.8636 79.3811 44.8239 79.7863 44.7445 80.1412C44.665 80.4961 44.5405 80.7954 44.371 81.039C44.2068 81.2827 43.995 81.4707 43.7354 81.6031C43.4812 81.7303 43.1793 81.7938 42.8297 81.7938ZM42.8297 81.0629C43.2322 81.0629 43.5183 80.9146 43.6878 80.6179C43.8626 80.316 43.9499 79.9108 43.9499 79.4023V78.4489C43.9499 77.9404 43.8626 77.5379 43.6878 77.2412C43.5183 76.9393 43.2322 76.7884 42.8297 76.7884C42.6284 76.7884 42.4563 76.8281 42.3132 76.9075C42.1702 76.9817 42.0537 77.0929 41.9637 77.2412C41.8736 77.3842 41.8074 77.559 41.765 77.7656C41.7279 77.9669 41.7094 78.1947 41.7094 78.4489V79.4023C41.7094 79.6566 41.7279 79.887 41.765 80.0936C41.8074 80.2948 41.8736 80.4696 41.9637 80.6179C42.0537 80.761 42.1702 80.8722 42.3132 80.9516C42.4563 81.0258 42.6284 81.0629 42.8297 81.0629ZM42.8297 79.3944C42.6443 79.3944 42.5145 79.3573 42.4404 79.2831C42.3715 79.209 42.3371 79.1189 42.3371 79.013V78.8382C42.3371 78.7323 42.3715 78.6422 42.4404 78.5681C42.5145 78.4939 42.6443 78.4568 42.8297 78.4568C43.0151 78.4568 43.1422 78.4939 43.211 78.5681C43.2852 78.6422 43.3223 78.7323 43.3223 78.8382V79.013C43.3223 79.1189 43.2852 79.209 43.211 79.2831C43.1422 79.3573 43.0151 79.3944 42.8297 79.3944ZM47.5937 81.7938C47.2441 81.7938 46.9395 81.7303 46.68 81.6031C46.4257 81.4707 46.2139 81.2827 46.0444 81.039C45.8802 80.7954 45.7584 80.4961 45.6789 80.1412C45.5994 79.7863 45.5597 79.3811 45.5597 78.9256C45.5597 78.4754 45.5994 78.0728 45.6789 77.7179C45.7584 77.3578 45.8802 77.0558 46.0444 76.8122C46.2139 76.5685 46.4257 76.3831 46.68 76.256C46.9395 76.1236 47.2441 76.0574 47.5937 76.0574C47.9433 76.0574 48.2452 76.1236 48.4994 76.256C48.759 76.3831 48.9709 76.5685 49.1351 76.8122C49.3046 77.0558 49.429 77.3578 49.5085 77.7179C49.5879 78.0728 49.6277 78.4754 49.6277 78.9256C49.6277 79.3811 49.5879 79.7863 49.5085 80.1412C49.429 80.4961 49.3046 80.7954 49.1351 81.039C48.9709 81.2827 48.759 81.4707 48.4994 81.6031C48.2452 81.7303 47.9433 81.7938 47.5937 81.7938ZM47.5937 81.0629C47.9962 81.0629 48.2823 80.9146 48.4518 80.6179C48.6266 80.316 48.714 79.9108 48.714 79.4023V78.4489C48.714 77.9404 48.6266 77.5379 48.4518 77.2412C48.2823 76.9393 47.9962 76.7884 47.5937 76.7884C47.3924 76.7884 47.2203 76.8281 47.0773 76.9075C46.9342 76.9817 46.8177 77.0929 46.7277 77.2412C46.6376 77.3842 46.5714 77.559 46.529 77.7656C46.492 77.9669 46.4734 78.1947 46.4734 78.4489V79.4023C46.4734 79.6566 46.492 79.887 46.529 80.0936C46.5714 80.2948 46.6376 80.4696 46.7277 80.6179C46.8177 80.761 46.9342 80.8722 47.0773 80.9516C47.2203 81.0258 47.3924 81.0629 47.5937 81.0629ZM47.5937 79.3944C47.4083 79.3944 47.2785 79.3573 47.2044 79.2831C47.1355 79.209 47.1011 79.1189 47.1011 79.013V78.8382C47.1011 78.7323 47.1355 78.6422 47.2044 78.5681C47.2785 78.4939 47.4083 78.4568 47.5937 78.4568C47.7791 78.4568 47.9062 78.4939 47.9751 78.5681C48.0492 78.6422 48.0863 78.7323 48.0863 78.8382V79.013C48.0863 79.1189 48.0492 79.209 47.9751 79.2831C47.9062 79.3573 47.7791 79.3944 47.5937 79.3944Z" fill="#C7C7C7"/>
<rect x="58.2744" y="75.9343" width="12.265" height="5.52831" rx="2.76416" fill="#F3F3F3"/>
<rect x="73.7168" y="75.9343" width="69.7703" height="5.52831" rx="2.76416" fill="#F3F3F3"/>
<rect x="168.912" y="75.9343" width="30.7322" height="5.52831" rx="2.76416" fill="#F3F3F3"/>
<rect x="-2" y="87.6711" width="208" height="17.9452" fill="white"/>
<rect x="-2" y="87.6711" width="208" height="17.9452" stroke="#DFDFDF" stroke-width="0.39726"/>
<rect x="4.35645" y="93.8796" width="23.0271" height="5.52831" rx="2.76416" fill="#F3F3F3"/>
<rect x="30.5615" y="91.6438" width="24.5342" height="10" rx="3.17808" fill="#F3F3F3"/>
<path d="M40.0122 99.6438H36.1827V98.7937L37.9942 97.2126C38.2802 96.9583 38.5 96.7173 38.6536 96.4896C38.8125 96.2618 38.892 96.0208 38.892 95.7665V95.6791C38.892 95.3878 38.8125 95.1654 38.6536 95.0117C38.4947 94.8528 38.2643 94.7734 37.9624 94.7734C37.6552 94.7734 37.4168 94.8555 37.2473 95.0197C37.0831 95.1839 36.9639 95.3931 36.8898 95.6474L36.1111 95.3534C36.1641 95.1786 36.2409 95.0117 36.3416 94.8528C36.4422 94.6886 36.5693 94.543 36.7229 94.4159C36.8818 94.2887 37.0672 94.1881 37.2791 94.1139C37.4963 94.0398 37.7452 94.0027 38.0259 94.0027C38.312 94.0027 38.5662 94.0451 38.7887 94.1298C39.0164 94.2093 39.2071 94.3205 39.3607 94.4635C39.5143 94.6065 39.6309 94.7787 39.7103 94.98C39.7898 95.1759 39.8295 95.3931 39.8295 95.6315C39.8295 95.8539 39.7951 96.0605 39.7262 96.2512C39.6626 96.4366 39.57 96.6167 39.4481 96.7915C39.3316 96.961 39.1912 97.1252 39.027 97.2841C38.8628 97.443 38.6827 97.6019 38.4868 97.7608L37.144 98.889H40.0122V99.6438ZM42.8297 99.7391C42.4801 99.7391 42.1755 99.6756 41.916 99.5485C41.6617 99.416 41.4499 99.228 41.2804 98.9843C41.1162 98.7407 40.9943 98.4414 40.9149 98.0865C40.8354 97.7317 40.7957 97.3264 40.7957 96.8709C40.7957 96.4207 40.8354 96.0181 40.9149 95.6633C40.9943 95.3031 41.1162 95.0012 41.2804 94.7575C41.4499 94.5138 41.6617 94.3285 41.916 94.2013C42.1755 94.0689 42.4801 94.0027 42.8297 94.0027C43.1793 94.0027 43.4812 94.0689 43.7354 94.2013C43.995 94.3285 44.2068 94.5138 44.371 94.7575C44.5405 95.0012 44.665 95.3031 44.7445 95.6633C44.8239 96.0181 44.8636 96.4207 44.8636 96.8709C44.8636 97.3264 44.8239 97.7317 44.7445 98.0865C44.665 98.4414 44.5405 98.7407 44.371 98.9843C44.2068 99.228 43.995 99.416 43.7354 99.5485C43.4812 99.6756 43.1793 99.7391 42.8297 99.7391ZM42.8297 99.0082C43.2322 99.0082 43.5183 98.8599 43.6878 98.5633C43.8626 98.2613 43.9499 97.8561 43.9499 97.3476V96.3942C43.9499 95.8857 43.8626 95.4832 43.6878 95.1865C43.5183 94.8846 43.2322 94.7337 42.8297 94.7337C42.6284 94.7337 42.4563 94.7734 42.3132 94.8528C42.1702 94.927 42.0537 95.0382 41.9637 95.1865C41.8736 95.3296 41.8074 95.5044 41.765 95.7109C41.7279 95.9122 41.7094 96.14 41.7094 96.3942V97.3476C41.7094 97.6019 41.7279 97.8323 41.765 98.0389C41.8074 98.2401 41.8736 98.4149 41.9637 98.5633C42.0537 98.7063 42.1702 98.8175 42.3132 98.897C42.4563 98.9711 42.6284 99.0082 42.8297 99.0082ZM42.8297 97.3397C42.6443 97.3397 42.5145 97.3026 42.4404 97.2285C42.3715 97.1543 42.3371 97.0643 42.3371 96.9583V96.7835C42.3371 96.6776 42.3715 96.5875 42.4404 96.5134C42.5145 96.4392 42.6443 96.4022 42.8297 96.4022C43.0151 96.4022 43.1422 96.4392 43.211 96.5134C43.2852 96.5875 43.3223 96.6776 43.3223 96.7835V96.9583C43.3223 97.0643 43.2852 97.1543 43.211 97.2285C43.1422 97.3026 43.0151 97.3397 42.8297 97.3397ZM47.5937 99.7391C47.2441 99.7391 46.9395 99.6756 46.68 99.5485C46.4257 99.416 46.2139 99.228 46.0444 98.9843C45.8802 98.7407 45.7584 98.4414 45.6789 98.0865C45.5994 97.7317 45.5597 97.3264 45.5597 96.8709C45.5597 96.4207 45.5994 96.0181 45.6789 95.6633C45.7584 95.3031 45.8802 95.0012 46.0444 94.7575C46.2139 94.5138 46.4257 94.3285 46.68 94.2013C46.9395 94.0689 47.2441 94.0027 47.5937 94.0027C47.9433 94.0027 48.2452 94.0689 48.4994 94.2013C48.759 94.3285 48.9709 94.5138 49.1351 94.7575C49.3046 95.0012 49.429 95.3031 49.5085 95.6633C49.5879 96.0181 49.6277 96.4207 49.6277 96.8709C49.6277 97.3264 49.5879 97.7317 49.5085 98.0865C49.429 98.4414 49.3046 98.7407 49.1351 98.9843C48.9709 99.228 48.759 99.416 48.4994 99.5485C48.2452 99.6756 47.9433 99.7391 47.5937 99.7391ZM47.5937 99.0082C47.9962 99.0082 48.2823 98.8599 48.4518 98.5633C48.6266 98.2613 48.714 97.8561 48.714 97.3476V96.3942C48.714 95.8857 48.6266 95.4832 48.4518 95.1865C48.2823 94.8846 47.9962 94.7337 47.5937 94.7337C47.3924 94.7337 47.2203 94.7734 47.0773 94.8528C46.9342 94.927 46.8177 95.0382 46.7277 95.1865C46.6376 95.3296 46.5714 95.5044 46.529 95.7109C46.492 95.9122 46.4734 96.14 46.4734 96.3942V97.3476C46.4734 97.6019 46.492 97.8323 46.529 98.0389C46.5714 98.2401 46.6376 98.4149 46.7277 98.5633C46.8177 98.7063 46.9342 98.8175 47.0773 98.897C47.2203 98.9711 47.3924 99.0082 47.5937 99.0082ZM47.5937 97.3397C47.4083 97.3397 47.2785 97.3026 47.2044 97.2285C47.1355 97.1543 47.1011 97.0643 47.1011 96.9583V96.7835C47.1011 96.6776 47.1355 96.5875 47.2044 96.5134C47.2785 96.4392 47.4083 96.4022 47.5937 96.4022C47.7791 96.4022 47.9062 96.4392 47.9751 96.5134C48.0492 96.5875 48.0863 96.6776 48.0863 96.7835V96.9583C48.0863 97.0643 48.0492 97.1543 47.9751 97.2285C47.9062 97.3026 47.7791 97.3397 47.5937 97.3397Z" fill="#C7C7C7"/>
<rect x="58.2744" y="93.8796" width="12.265" height="5.52831" rx="2.76416" fill="#F3F3F3"/>
<rect x="73.7168" y="93.8796" width="69.7703" height="5.52831" rx="2.76416" fill="#F3F3F3"/>
<rect x="168.912" y="93.8796" width="30.7322" height="5.52831" rx="2.76416" fill="#F3F3F3"/>
<rect x="-2" y="105.616" width="208" height="17.9452" fill="white"/>
<rect x="-2" y="105.616" width="208" height="17.9452" stroke="#DFDFDF" stroke-width="0.39726"/>
<rect x="4.35645" y="111.825" width="23.0271" height="5.52831" rx="2.76416" fill="#F3F3F3"/>
<rect x="30.5615" y="109.589" width="24.5342" height="10" rx="3.17808" fill="#F3F3F3"/>
<path d="M40.0122 117.589H36.1827V116.739L37.9942 115.158C38.2802 114.903 38.5 114.662 38.6536 114.435C38.8125 114.207 38.892 113.966 38.892 113.712V113.624C38.892 113.333 38.8125 113.11 38.6536 112.957C38.4947 112.798 38.2643 112.718 37.9624 112.718C37.6552 112.718 37.4168 112.801 37.2473 112.965C37.0831 113.129 36.9639 113.338 36.8898 113.592L36.1111 113.298C36.1641 113.124 36.2409 112.957 36.3416 112.798C36.4422 112.634 36.5693 112.488 36.7229 112.361C36.8818 112.234 37.0672 112.133 37.2791 112.059C37.4963 111.985 37.7452 111.948 38.0259 111.948C38.312 111.948 38.5662 111.99 38.7887 112.075C39.0164 112.154 39.2071 112.266 39.3607 112.409C39.5143 112.552 39.6309 112.724 39.7103 112.925C39.7898 113.121 39.8295 113.338 39.8295 113.577C39.8295 113.799 39.7951 114.006 39.7262 114.196C39.6626 114.382 39.57 114.562 39.4481 114.737C39.3316 114.906 39.1912 115.07 39.027 115.229C38.8628 115.388 38.6827 115.547 38.4868 115.706L37.144 116.834H40.0122V117.589ZM42.8297 117.684C42.4801 117.684 42.1755 117.621 41.916 117.494C41.6617 117.361 41.4499 117.173 41.2804 116.929C41.1162 116.686 40.9943 116.386 40.9149 116.032C40.8354 115.677 40.7957 115.272 40.7957 114.816C40.7957 114.366 40.8354 113.963 40.9149 113.608C40.9943 113.248 41.1162 112.946 41.2804 112.703C41.4499 112.459 41.6617 112.274 41.916 112.146C42.1755 112.014 42.4801 111.948 42.8297 111.948C43.1793 111.948 43.4812 112.014 43.7354 112.146C43.995 112.274 44.2068 112.459 44.371 112.703C44.5405 112.946 44.665 113.248 44.7445 113.608C44.8239 113.963 44.8636 114.366 44.8636 114.816C44.8636 115.272 44.8239 115.677 44.7445 116.032C44.665 116.386 44.5405 116.686 44.371 116.929C44.2068 117.173 43.995 117.361 43.7354 117.494C43.4812 117.621 43.1793 117.684 42.8297 117.684ZM42.8297 116.953C43.2322 116.953 43.5183 116.805 43.6878 116.508C43.8626 116.206 43.9499 115.801 43.9499 115.293V114.339C43.9499 113.831 43.8626 113.428 43.6878 113.132C43.5183 112.83 43.2322 112.679 42.8297 112.679C42.6284 112.679 42.4563 112.718 42.3132 112.798C42.1702 112.872 42.0537 112.983 41.9637 113.132C41.8736 113.275 41.8074 113.449 41.765 113.656C41.7279 113.857 41.7094 114.085 41.7094 114.339V115.293C41.7094 115.547 41.7279 115.777 41.765 115.984C41.8074 116.185 41.8736 116.36 41.9637 116.508C42.0537 116.651 42.1702 116.763 42.3132 116.842C42.4563 116.916 42.6284 116.953 42.8297 116.953ZM42.8297 115.285C42.6443 115.285 42.5145 115.248 42.4404 115.174C42.3715 115.099 42.3371 115.009 42.3371 114.903V114.729C42.3371 114.623 42.3715 114.533 42.4404 114.458C42.5145 114.384 42.6443 114.347 42.8297 114.347C43.0151 114.347 43.1422 114.384 43.211 114.458C43.2852 114.533 43.3223 114.623 43.3223 114.729V114.903C43.3223 115.009 43.2852 115.099 43.211 115.174C43.1422 115.248 43.0151 115.285 42.8297 115.285ZM47.5937 117.684C47.2441 117.684 46.9395 117.621 46.68 117.494C46.4257 117.361 46.2139 117.173 46.0444 116.929C45.8802 116.686 45.7584 116.386 45.6789 116.032C45.5994 115.677 45.5597 115.272 45.5597 114.816C45.5597 114.366 45.5994 113.963 45.6789 113.608C45.7584 113.248 45.8802 112.946 46.0444 112.703C46.2139 112.459 46.4257 112.274 46.68 112.146C46.9395 112.014 47.2441 111.948 47.5937 111.948C47.9433 111.948 48.2452 112.014 48.4994 112.146C48.759 112.274 48.9709 112.459 49.1351 112.703C49.3046 112.946 49.429 113.248 49.5085 113.608C49.5879 113.963 49.6277 114.366 49.6277 114.816C49.6277 115.272 49.5879 115.677 49.5085 116.032C49.429 116.386 49.3046 116.686 49.1351 116.929C48.9709 117.173 48.759 117.361 48.4994 117.494C48.2452 117.621 47.9433 117.684 47.5937 117.684ZM47.5937 116.953C47.9962 116.953 48.2823 116.805 48.4518 116.508C48.6266 116.206 48.714 115.801 48.714 115.293V114.339C48.714 113.831 48.6266 113.428 48.4518 113.132C48.2823 112.83 47.9962 112.679 47.5937 112.679C47.3924 112.679 47.2203 112.718 47.0773 112.798C46.9342 112.872 46.8177 112.983 46.7277 113.132C46.6376 113.275 46.5714 113.449 46.529 113.656C46.492 113.857 46.4734 114.085 46.4734 114.339V115.293C46.4734 115.547 46.492 115.777 46.529 115.984C46.5714 116.185 46.6376 116.36 46.7277 116.508C46.8177 116.651 46.9342 116.763 47.0773 116.842C47.2203 116.916 47.3924 116.953 47.5937 116.953ZM47.5937 115.285C47.4083 115.285 47.2785 115.248 47.2044 115.174C47.1355 115.099 47.1011 115.009 47.1011 114.903V114.729C47.1011 114.623 47.1355 114.533 47.2044 114.458C47.2785 114.384 47.4083 114.347 47.5937 114.347C47.7791 114.347 47.9062 114.384 47.9751 114.458C48.0492 114.533 48.0863 114.623 48.0863 114.729V114.903C48.0863 115.009 48.0492 115.099 47.9751 115.174C47.9062 115.248 47.7791 115.285 47.5937 115.285Z" fill="#C7C7C7"/>
<rect x="58.2744" y="111.825" width="12.265" height="5.52831" rx="2.76416" fill="#F3F3F3"/>
<rect x="73.7168" y="111.825" width="69.7703" height="5.52831" rx="2.76416" fill="#F3F3F3"/>
<rect x="168.912" y="111.825" width="30.7322" height="5.52831" rx="2.76416" fill="#F3F3F3"/>
<rect x="-2" y="123.562" width="208" height="17.9452" fill="white"/>
<rect x="-2" y="123.562" width="208" height="17.9452" stroke="#DFDFDF" stroke-width="0.39726"/>
<rect x="4.35645" y="129.77" width="23.0271" height="5.52831" rx="2.76416" fill="#F3F3F3"/>
<rect x="30.5615" y="127.534" width="24.5342" height="10" rx="3.17808" fill="#F3F3F3"/>
<path d="M40.0122 135.534H36.1827V134.684L37.9942 133.103C38.2802 132.849 38.5 132.608 38.6536 132.38C38.8125 132.152 38.892 131.911 38.892 131.657V131.57C38.892 131.278 38.8125 131.056 38.6536 130.902C38.4947 130.743 38.2643 130.664 37.9624 130.664C37.6552 130.664 37.4168 130.746 37.2473 130.91C37.0831 131.074 36.9639 131.283 36.8898 131.538L36.1111 131.244C36.1641 131.069 36.2409 130.902 36.3416 130.743C36.4422 130.579 36.5693 130.433 36.7229 130.306C36.8818 130.179 37.0672 130.078 37.2791 130.004C37.4963 129.93 37.7452 129.893 38.0259 129.893C38.312 129.893 38.5662 129.935 38.7887 130.02C39.0164 130.1 39.2071 130.211 39.3607 130.354C39.5143 130.497 39.6309 130.669 39.7103 130.87C39.7898 131.066 39.8295 131.283 39.8295 131.522C39.8295 131.744 39.7951 131.951 39.7262 132.142C39.6626 132.327 39.57 132.507 39.4481 132.682C39.3316 132.851 39.1912 133.016 39.027 133.174C38.8628 133.333 38.6827 133.492 38.4868 133.651L37.144 134.779H40.0122V135.534ZM42.8297 135.63C42.4801 135.63 42.1755 135.566 41.916 135.439C41.6617 135.306 41.4499 135.118 41.2804 134.875C41.1162 134.631 40.9943 134.332 40.9149 133.977C40.8354 133.622 40.7957 133.217 40.7957 132.761C40.7957 132.311 40.8354 131.909 40.9149 131.554C40.9943 131.193 41.1162 130.892 41.2804 130.648C41.4499 130.404 41.6617 130.219 41.916 130.092C42.1755 129.959 42.4801 129.893 42.8297 129.893C43.1793 129.893 43.4812 129.959 43.7354 130.092C43.995 130.219 44.2068 130.404 44.371 130.648C44.5405 130.892 44.665 131.193 44.7445 131.554C44.8239 131.909 44.8636 132.311 44.8636 132.761C44.8636 133.217 44.8239 133.622 44.7445 133.977C44.665 134.332 44.5405 134.631 44.371 134.875C44.2068 135.118 43.995 135.306 43.7354 135.439C43.4812 135.566 43.1793 135.63 42.8297 135.63ZM42.8297 134.899C43.2322 134.899 43.5183 134.75 43.6878 134.454C43.8626 134.152 43.9499 133.747 43.9499 133.238V132.285C43.9499 131.776 43.8626 131.374 43.6878 131.077C43.5183 130.775 43.2322 130.624 42.8297 130.624C42.6284 130.624 42.4563 130.664 42.3132 130.743C42.1702 130.817 42.0537 130.929 41.9637 131.077C41.8736 131.22 41.8074 131.395 41.765 131.601C41.7279 131.803 41.7094 132.03 41.7094 132.285V133.238C41.7094 133.492 41.7279 133.723 41.765 133.929C41.8074 134.131 41.8736 134.305 41.9637 134.454C42.0537 134.597 42.1702 134.708 42.3132 134.787C42.4563 134.861 42.6284 134.899 42.8297 134.899ZM42.8297 133.23C42.6443 133.23 42.5145 133.193 42.4404 133.119C42.3715 133.045 42.3371 132.955 42.3371 132.849V132.674C42.3371 132.568 42.3715 132.478 42.4404 132.404C42.5145 132.33 42.6443 132.293 42.8297 132.293C43.0151 132.293 43.1422 132.33 43.211 132.404C43.2852 132.478 43.3223 132.568 43.3223 132.674V132.849C43.3223 132.955 43.2852 133.045 43.211 133.119C43.1422 133.193 43.0151 133.23 42.8297 133.23ZM47.5937 135.63C47.2441 135.63 46.9395 135.566 46.68 135.439C46.4257 135.306 46.2139 135.118 46.0444 134.875C45.8802 134.631 45.7584 134.332 45.6789 133.977C45.5994 133.622 45.5597 133.217 45.5597 132.761C45.5597 132.311 45.5994 131.909 45.6789 131.554C45.7584 131.193 45.8802 130.892 46.0444 130.648C46.2139 130.404 46.4257 130.219 46.68 130.092C46.9395 129.959 47.2441 129.893 47.5937 129.893C47.9433 129.893 48.2452 129.959 48.4994 130.092C48.759 130.219 48.9709 130.404 49.1351 130.648C49.3046 130.892 49.429 131.193 49.5085 131.554C49.5879 131.909 49.6277 132.311 49.6277 132.761C49.6277 133.217 49.5879 133.622 49.5085 133.977C49.429 134.332 49.3046 134.631 49.1351 134.875C48.9709 135.118 48.759 135.306 48.4994 135.439C48.2452 135.566 47.9433 135.63 47.5937 135.63ZM47.5937 134.899C47.9962 134.899 48.2823 134.75 48.4518 134.454C48.6266 134.152 48.714 133.747 48.714 133.238V132.285C48.714 131.776 48.6266 131.374 48.4518 131.077C48.2823 130.775 47.9962 130.624 47.5937 130.624C47.3924 130.624 47.2203 130.664 47.0773 130.743C46.9342 130.817 46.8177 130.929 46.7277 131.077C46.6376 131.22 46.5714 131.395 46.529 131.601C46.492 131.803 46.4734 132.03 46.4734 132.285V133.238C46.4734 133.492 46.492 133.723 46.529 133.929C46.5714 134.131 46.6376 134.305 46.7277 134.454C46.8177 134.597 46.9342 134.708 47.0773 134.787C47.2203 134.861 47.3924 134.899 47.5937 134.899ZM47.5937 133.23C47.4083 133.23 47.2785 133.193 47.2044 133.119C47.1355 133.045 47.1011 132.955 47.1011 132.849V132.674C47.1011 132.568 47.1355 132.478 47.2044 132.404C47.2785 132.33 47.4083 132.293 47.5937 132.293C47.7791 132.293 47.9062 132.33 47.9751 132.404C48.0492 132.478 48.0863 132.568 48.0863 132.674V132.849C48.0863 132.955 48.0492 133.045 47.9751 133.119C47.9062 133.193 47.7791 133.23 47.5937 133.23Z" fill="#C7C7C7"/>
<rect x="58.2744" y="129.77" width="12.265" height="5.52831" rx="2.76416" fill="#F3F3F3"/>
<rect x="73.7168" y="129.77" width="69.7703" height="5.52831" rx="2.76416" fill="#F3F3F3"/>
<rect x="168.912" y="129.77" width="30.7322" height="5.52831" rx="2.76416" fill="#F3F3F3"/>
<rect x="-2" y="141.507" width="208" height="17.9452" fill="white"/>
<rect x="-2" y="141.507" width="208" height="17.9452" stroke="#DFDFDF" stroke-width="0.39726"/>
<rect x="4.35645" y="147.715" width="23.0271" height="5.52831" rx="2.76416" fill="#F3F3F3"/>
<rect x="30.5615" y="145.479" width="24.5342" height="10" rx="3.17808" fill="#F3F3F3"/>
<path d="M40.0122 153.479H36.1827V152.629L37.9942 151.048C38.2802 150.794 38.5 150.553 38.6536 150.325C38.8125 150.097 38.892 149.856 38.892 149.602V149.515C38.892 149.223 38.8125 149.001 38.6536 148.847C38.4947 148.688 38.2643 148.609 37.9624 148.609C37.6552 148.609 37.4168 148.691 37.2473 148.855C37.0831 149.019 36.9639 149.229 36.8898 149.483L36.1111 149.189C36.1641 149.014 36.2409 148.847 36.3416 148.688C36.4422 148.524 36.5693 148.379 36.7229 148.251C36.8818 148.124 37.0672 148.024 37.2791 147.95C37.4963 147.875 37.7452 147.838 38.0259 147.838C38.312 147.838 38.5662 147.881 38.7887 147.965C39.0164 148.045 39.2071 148.156 39.3607 148.299C39.5143 148.442 39.6309 148.614 39.7103 148.816C39.7898 149.012 39.8295 149.229 39.8295 149.467C39.8295 149.69 39.7951 149.896 39.7262 150.087C39.6626 150.272 39.57 150.452 39.4481 150.627C39.3316 150.797 39.1912 150.961 39.027 151.12C38.8628 151.279 38.6827 151.437 38.4868 151.596L37.144 152.725H40.0122V153.479ZM42.8297 153.575C42.4801 153.575 42.1755 153.511 41.916 153.384C41.6617 153.252 41.4499 153.064 41.2804 152.82C41.1162 152.576 40.9943 152.277 40.9149 151.922C40.8354 151.567 40.7957 151.162 40.7957 150.706C40.7957 150.256 40.8354 149.854 40.9149 149.499C40.9943 149.139 41.1162 148.837 41.2804 148.593C41.4499 148.349 41.6617 148.164 41.916 148.037C42.1755 147.904 42.4801 147.838 42.8297 147.838C43.1793 147.838 43.4812 147.904 43.7354 148.037C43.995 148.164 44.2068 148.349 44.371 148.593C44.5405 148.837 44.665 149.139 44.7445 149.499C44.8239 149.854 44.8636 150.256 44.8636 150.706C44.8636 151.162 44.8239 151.567 44.7445 151.922C44.665 152.277 44.5405 152.576 44.371 152.82C44.2068 153.064 43.995 153.252 43.7354 153.384C43.4812 153.511 43.1793 153.575 42.8297 153.575ZM42.8297 152.844C43.2322 152.844 43.5183 152.695 43.6878 152.399C43.8626 152.097 43.9499 151.692 43.9499 151.183V150.23C43.9499 149.721 43.8626 149.319 43.6878 149.022C43.5183 148.72 43.2322 148.569 42.8297 148.569C42.6284 148.569 42.4563 148.609 42.3132 148.688C42.1702 148.763 42.0537 148.874 41.9637 149.022C41.8736 149.165 41.8074 149.34 41.765 149.546C41.7279 149.748 41.7094 149.976 41.7094 150.23V151.183C41.7094 151.437 41.7279 151.668 41.765 151.874C41.8074 152.076 41.8736 152.251 41.9637 152.399C42.0537 152.542 42.1702 152.653 42.3132 152.733C42.4563 152.807 42.6284 152.844 42.8297 152.844ZM42.8297 151.175C42.6443 151.175 42.5145 151.138 42.4404 151.064C42.3715 150.99 42.3371 150.9 42.3371 150.794V150.619C42.3371 150.513 42.3715 150.423 42.4404 150.349C42.5145 150.275 42.6443 150.238 42.8297 150.238C43.0151 150.238 43.1422 150.275 43.211 150.349C43.2852 150.423 43.3223 150.513 43.3223 150.619V150.794C43.3223 150.9 43.2852 150.99 43.211 151.064C43.1422 151.138 43.0151 151.175 42.8297 151.175ZM47.5937 153.575C47.2441 153.575 46.9395 153.511 46.68 153.384C46.4257 153.252 46.2139 153.064 46.0444 152.82C45.8802 152.576 45.7584 152.277 45.6789 151.922C45.5994 151.567 45.5597 151.162 45.5597 150.706C45.5597 150.256 45.5994 149.854 45.6789 149.499C45.7584 149.139 45.8802 148.837 46.0444 148.593C46.2139 148.349 46.4257 148.164 46.68 148.037C46.9395 147.904 47.2441 147.838 47.5937 147.838C47.9433 147.838 48.2452 147.904 48.4994 148.037C48.759 148.164 48.9709 148.349 49.1351 148.593C49.3046 148.837 49.429 149.139 49.5085 149.499C49.5879 149.854 49.6277 150.256 49.6277 150.706C49.6277 151.162 49.5879 151.567 49.5085 151.922C49.429 152.277 49.3046 152.576 49.1351 152.82C48.9709 153.064 48.759 153.252 48.4994 153.384C48.2452 153.511 47.9433 153.575 47.5937 153.575ZM47.5937 152.844C47.9962 152.844 48.2823 152.695 48.4518 152.399C48.6266 152.097 48.714 151.692 48.714 151.183V150.23C48.714 149.721 48.6266 149.319 48.4518 149.022C48.2823 148.72 47.9962 148.569 47.5937 148.569C47.3924 148.569 47.2203 148.609 47.0773 148.688C46.9342 148.763 46.8177 148.874 46.7277 149.022C46.6376 149.165 46.5714 149.34 46.529 149.546C46.492 149.748 46.4734 149.976 46.4734 150.23V151.183C46.4734 151.437 46.492 151.668 46.529 151.874C46.5714 152.076 46.6376 152.251 46.7277 152.399C46.8177 152.542 46.9342 152.653 47.0773 152.733C47.2203 152.807 47.3924 152.844 47.5937 152.844ZM47.5937 151.175C47.4083 151.175 47.2785 151.138 47.2044 151.064C47.1355 150.99 47.1011 150.9 47.1011 150.794V150.619C47.1011 150.513 47.1355 150.423 47.2044 150.349C47.2785 150.275 47.4083 150.238 47.5937 150.238C47.7791 150.238 47.9062 150.275 47.9751 150.349C48.0492 150.423 48.0863 150.513 48.0863 150.619V150.794C48.0863 150.9 48.0492 150.99 47.9751 151.064C47.9062 151.138 47.7791 151.175 47.5937 151.175Z" fill="#C7C7C7"/>
<rect x="58.2744" y="147.715" width="12.265" height="5.52831" rx="2.76416" fill="#F3F3F3"/>
<rect x="73.7168" y="147.715" width="69.7703" height="5.52831" rx="2.76416" fill="#F3F3F3"/>
<rect x="168.912" y="147.715" width="30.7322" height="5.52831" rx="2.76416" fill="#F3F3F3"/>
<rect x="-2" y="159.452" width="208" height="17.9452" fill="white"/>
<rect x="-2" y="159.452" width="208" height="17.9452" stroke="#DFDFDF" stroke-width="0.39726"/>
<rect x="4.35645" y="165.661" width="23.0271" height="5.52831" rx="2.76416" fill="#F3F3F3"/>
<rect x="30.5615" y="163.425" width="24.5342" height="10" rx="3.17808" fill="#F3F3F3"/>
<path d="M40.0122 171.425H36.1827V170.575L37.9942 168.993C38.2802 168.739 38.5 168.498 38.6536 168.27C38.8125 168.043 38.892 167.802 38.892 167.547V167.46C38.892 167.169 38.8125 166.946 38.6536 166.793C38.4947 166.634 38.2643 166.554 37.9624 166.554C37.6552 166.554 37.4168 166.636 37.2473 166.801C37.0831 166.965 36.9639 167.174 36.8898 167.428L36.1111 167.134C36.1641 166.959 36.2409 166.793 36.3416 166.634C36.4422 166.47 36.5693 166.324 36.7229 166.197C36.8818 166.07 37.0672 165.969 37.2791 165.895C37.4963 165.821 37.7452 165.784 38.0259 165.784C38.312 165.784 38.5662 165.826 38.7887 165.911C39.0164 165.99 39.2071 166.101 39.3607 166.244C39.5143 166.387 39.6309 166.56 39.7103 166.761C39.7898 166.957 39.8295 167.174 39.8295 167.412C39.8295 167.635 39.7951 167.841 39.7262 168.032C39.6626 168.217 39.57 168.398 39.4481 168.572C39.3316 168.742 39.1912 168.906 39.027 169.065C38.8628 169.224 38.6827 169.383 38.4868 169.542L37.144 170.67H40.0122V171.425ZM42.8297 171.52C42.4801 171.52 42.1755 171.456 41.916 171.329C41.6617 171.197 41.4499 171.009 41.2804 170.765C41.1162 170.522 40.9943 170.222 40.9149 169.867C40.8354 169.513 40.7957 169.107 40.7957 168.652C40.7957 168.202 40.8354 167.799 40.9149 167.444C40.9943 167.084 41.1162 166.782 41.2804 166.538C41.4499 166.295 41.6617 166.109 41.916 165.982C42.1755 165.85 42.4801 165.784 42.8297 165.784C43.1793 165.784 43.4812 165.85 43.7354 165.982C43.995 166.109 44.2068 166.295 44.371 166.538C44.5405 166.782 44.665 167.084 44.7445 167.444C44.8239 167.799 44.8636 168.202 44.8636 168.652C44.8636 169.107 44.8239 169.513 44.7445 169.867C44.665 170.222 44.5405 170.522 44.371 170.765C44.2068 171.009 43.995 171.197 43.7354 171.329C43.4812 171.456 43.1793 171.52 42.8297 171.52ZM42.8297 170.789C43.2322 170.789 43.5183 170.641 43.6878 170.344C43.8626 170.042 43.9499 169.637 43.9499 169.129V168.175C43.9499 167.667 43.8626 167.264 43.6878 166.967C43.5183 166.666 43.2322 166.515 42.8297 166.515C42.6284 166.515 42.4563 166.554 42.3132 166.634C42.1702 166.708 42.0537 166.819 41.9637 166.967C41.8736 167.11 41.8074 167.285 41.765 167.492C41.7279 167.693 41.7094 167.921 41.7094 168.175V169.129C41.7094 169.383 41.7279 169.613 41.765 169.82C41.8074 170.021 41.8736 170.196 41.9637 170.344C42.0537 170.487 42.1702 170.598 42.3132 170.678C42.4563 170.752 42.6284 170.789 42.8297 170.789ZM42.8297 169.121C42.6443 169.121 42.5145 169.083 42.4404 169.009C42.3715 168.935 42.3371 168.845 42.3371 168.739V168.564C42.3371 168.458 42.3715 168.368 42.4404 168.294C42.5145 168.22 42.6443 168.183 42.8297 168.183C43.0151 168.183 43.1422 168.22 43.211 168.294C43.2852 168.368 43.3223 168.458 43.3223 168.564V168.739C43.3223 168.845 43.2852 168.935 43.211 169.009C43.1422 169.083 43.0151 169.121 42.8297 169.121ZM47.5937 171.52C47.2441 171.52 46.9395 171.456 46.68 171.329C46.4257 171.197 46.2139 171.009 46.0444 170.765C45.8802 170.522 45.7584 170.222 45.6789 169.867C45.5994 169.513 45.5597 169.107 45.5597 168.652C45.5597 168.202 45.5994 167.799 45.6789 167.444C45.7584 167.084 45.8802 166.782 46.0444 166.538C46.2139 166.295 46.4257 166.109 46.68 165.982C46.9395 165.85 47.2441 165.784 47.5937 165.784C47.9433 165.784 48.2452 165.85 48.4994 165.982C48.759 166.109 48.9709 166.295 49.1351 166.538C49.3046 166.782 49.429 167.084 49.5085 167.444C49.5879 167.799 49.6277 168.202 49.6277 168.652C49.6277 169.107 49.5879 169.513 49.5085 169.867C49.429 170.222 49.3046 170.522 49.1351 170.765C48.9709 171.009 48.759 171.197 48.4994 171.329C48.2452 171.456 47.9433 171.52 47.5937 171.52ZM47.5937 170.789C47.9962 170.789 48.2823 170.641 48.4518 170.344C48.6266 170.042 48.714 169.637 48.714 169.129V168.175C48.714 167.667 48.6266 167.264 48.4518 166.967C48.2823 166.666 47.9962 166.515 47.5937 166.515C47.3924 166.515 47.2203 166.554 47.0773 166.634C46.9342 166.708 46.8177 166.819 46.7277 166.967C46.6376 167.11 46.5714 167.285 46.529 167.492C46.492 167.693 46.4734 167.921 46.4734 168.175V169.129C46.4734 169.383 46.492 169.613 46.529 169.82C46.5714 170.021 46.6376 170.196 46.7277 170.344C46.8177 170.487 46.9342 170.598 47.0773 170.678C47.2203 170.752 47.3924 170.789 47.5937 170.789ZM47.5937 169.121C47.4083 169.121 47.2785 169.083 47.2044 169.009C47.1355 168.935 47.1011 168.845 47.1011 168.739V168.564C47.1011 168.458 47.1355 168.368 47.2044 168.294C47.2785 168.22 47.4083 168.183 47.5937 168.183C47.7791 168.183 47.9062 168.22 47.9751 168.294C48.0492 168.368 48.0863 168.458 48.0863 168.564V168.739C48.0863 168.845 48.0492 168.935 47.9751 169.009C47.9062 169.083 47.7791 169.121 47.5937 169.121Z" fill="#C7C7C7"/>
<rect x="58.2744" y="165.661" width="12.265" height="5.52831" rx="2.76416" fill="#F3F3F3"/>
<rect x="73.7168" y="165.661" width="69.7703" height="5.52831" rx="2.76416" fill="#F3F3F3"/>
<rect x="168.912" y="165.661" width="30.7322" height="5.52831" rx="2.76416" fill="#F3F3F3"/>
<rect x="288.459" y="26.4301" width="35.7534" height="35.7534" rx="6.72163" fill="#FCFCFC"/>
<rect x="288.459" y="26.4301" width="35.7534" height="35.7534" rx="6.72163" stroke="#DFDFDF" stroke-width="0.79452"/>
<path d="M313.218 48.8883L311.403 47.6914L309.888 50.2209L308.127 49.7064L306.576 52.0734L306.656 52.8183L315.087 51.265L314.597 45.9971L313.218 48.8883ZM305.355 46.6182L306.708 46.432C306.927 46.5299 307.08 46.5676 307.342 46.6343C307.751 46.7409 308.224 46.8432 308.925 46.4901C309.087 46.4094 309.427 46.0983 309.564 45.9218L315.106 44.9164L315.672 51.7591L306.177 53.4706L305.355 46.6182ZM315.65 44.1522L315.103 44.2566L314.053 33.3978L296.145 35.4742L298.351 53.378L300.447 53.0734C300.28 52.8344 300.019 52.5449 299.574 52.1746C298.956 51.6622 299.175 50.7903 299.54 50.2403C300.021 49.3114 302.504 48.1295 302.363 46.644C302.312 46.1037 302.226 45.4008 301.725 44.9186C301.706 45.1188 301.74 45.3114 301.74 45.3114C301.74 45.3114 301.534 45.0488 301.431 44.6904C301.328 44.5526 301.249 44.5095 301.14 44.3255C301.063 44.5375 301.073 44.784 301.073 44.784C301.073 44.784 300.905 44.3857 300.877 44.0499C300.777 44.2006 300.753 44.4858 300.753 44.4858C300.753 44.4858 300.534 43.8583 300.584 43.5203C300.484 43.2265 300.188 42.643 300.271 41.3169C300.818 41.7001 302.022 41.6086 302.49 40.9176C302.646 40.6883 302.753 40.064 302.412 38.8337C302.194 38.0447 301.654 36.8692 301.443 36.4225L301.418 36.4408C301.529 36.8003 301.758 37.5527 301.846 37.9187C302.112 39.0263 302.183 39.4117 302.058 39.9219C301.952 40.3654 301.698 40.656 301.052 40.9811C300.406 41.3072 299.549 40.5139 299.494 40.4709C298.867 39.9714 298.381 39.1555 298.327 38.7594C298.272 38.3256 298.577 38.0651 298.732 37.711C298.512 37.7745 298.265 37.8864 298.265 37.8864C298.265 37.8864 298.559 37.5818 298.922 37.3192C299.072 37.2201 299.16 37.1566 299.318 37.0253C299.088 37.0221 298.902 37.0275 298.902 37.0275C298.902 37.0275 299.284 36.8208 299.681 36.6712C299.391 36.6582 299.113 36.669 299.113 36.669C299.113 36.669 299.966 36.288 300.639 36.0081C301.101 35.8187 301.553 35.8746 301.807 36.2417C302.141 36.7228 302.491 36.9844 303.234 37.1469C303.69 36.9446 303.828 36.8412 304.401 36.6852C304.904 36.1308 305.3 36.0587 305.3 36.0587C305.3 36.0587 305.105 36.2385 305.052 36.5215C305.338 36.2966 305.651 36.1082 305.651 36.1082C305.651 36.1082 305.53 36.2578 305.417 36.4957L305.443 36.5345C305.776 36.3343 306.168 36.1771 306.168 36.1771C306.168 36.1771 306.056 36.3192 305.925 36.5022C306.177 36.5 306.687 36.5129 306.884 36.5355C308.053 36.5614 308.295 35.2869 308.744 35.1276C309.306 34.9274 309.557 34.8058 310.513 35.7455C311.335 36.5528 311.976 37.9962 311.658 38.3202C311.391 38.5882 310.863 38.2158 310.28 37.4871C309.971 37.1017 309.738 36.6464 309.629 36.0673C309.536 35.5786 309.178 35.2955 309.178 35.2955C309.178 35.2955 309.385 35.7595 309.385 36.1685C309.385 36.3924 309.413 37.2277 309.772 37.6959C309.736 37.7648 309.72 38.035 309.68 38.0866C309.264 37.5829 308.368 37.2223 308.223 37.1157C308.717 37.5204 309.853 38.4505 310.288 39.3417C310.701 40.1845 310.457 40.9574 310.666 41.1576C310.725 41.2147 311.553 42.2459 311.713 42.7647C311.99 43.6678 311.729 44.6172 311.366 45.206L310.351 45.3642C310.202 45.3233 310.102 45.3018 309.969 45.2253C310.042 45.0951 310.188 44.7711 310.189 44.7044L310.132 44.6042C309.816 45.052 309.287 45.4869 308.847 45.7366C308.271 46.0628 307.608 46.0122 307.177 45.8787C305.951 45.5009 304.791 44.6721 304.512 44.4546C304.512 44.4546 304.504 44.6279 304.557 44.6678C304.866 45.0165 305.574 45.6473 306.258 46.0865L304.8 46.2468L305.49 51.617C305.184 51.6611 305.137 51.6827 304.802 51.73C304.507 50.6881 303.943 50.0067 303.326 49.6106C302.783 49.2608 302.032 49.1822 301.313 49.3243L301.267 49.3781C301.767 49.3264 302.356 49.3985 302.961 49.7817C303.556 50.1574 304.035 51.1283 304.211 51.7128C304.437 52.4598 304.593 53.2585 303.985 54.1057C303.552 54.7074 302.291 55.04 301.27 54.3209C301.543 54.759 301.911 55.1175 302.406 55.1842C303.142 55.2843 303.841 55.1562 304.321 54.6632C304.731 54.2413 304.95 53.3586 304.891 52.4297L305.54 52.336L305.775 54.0034L316.526 52.7085L315.65 44.1522ZM309.109 39.6227C309.079 39.6916 309.031 39.7357 309.102 39.9585L309.107 39.9714L309.117 40.0005L309.146 40.0672C309.274 40.3277 309.414 40.5742 309.648 40.7001C309.708 40.6905 309.772 40.6829 309.836 40.6797C310.056 40.67 310.195 40.7044 310.283 40.7529C310.291 40.7088 310.293 40.6452 310.287 40.5505C310.27 40.2201 310.353 39.6582 309.718 39.3622C309.478 39.2513 309.142 39.2847 309.03 39.4246C309.051 39.4268 309.069 39.4311 309.083 39.4364C309.254 39.4946 309.14 39.5527 309.109 39.6227ZM310.889 42.7066C310.806 42.6603 310.417 42.6786 310.143 42.7109C309.622 42.7722 309.059 42.953 308.935 43.0488C308.712 43.2221 308.813 43.5246 308.978 43.6484C309.443 43.995 309.85 44.2286 310.28 44.1715C310.544 44.1371 310.776 43.7194 310.941 43.3395C311.055 43.079 311.055 42.798 310.889 42.7066ZM306.275 40.0317C306.422 39.8918 305.543 39.7088 304.86 40.1738C304.357 40.5172 304.341 41.2534 304.822 41.67C304.871 41.7109 304.911 41.741 304.947 41.7647C305.088 41.698 305.249 41.6312 305.433 41.572C305.745 41.4708 306.003 41.4181 306.216 41.3912C306.319 41.2771 306.437 41.0769 306.407 40.7141C306.367 40.2201 305.994 40.2986 306.275 40.0317Z" fill="#525252"/>
<rect x="288.459" y="70.9233" width="35.7534" height="35.7534" rx="6.72163" fill="#FCFCFC"/>
<rect x="288.459" y="70.9233" width="35.7534" height="35.7534" rx="6.72163" stroke="#DFDFDF" stroke-width="0.79452"/>
<path d="M300.889 87.5517C300.889 87.8589 300.923 88.108 300.981 88.2907C301.047 88.4734 301.13 88.6727 301.246 88.8886C301.288 88.955 301.305 89.0214 301.305 89.0796C301.305 89.1626 301.255 89.2456 301.147 89.3287L300.624 89.6774C300.549 89.7273 300.474 89.7522 300.408 89.7522C300.325 89.7522 300.242 89.7107 300.159 89.6359C300.042 89.5114 299.943 89.3785 299.86 89.2456C299.777 89.1045 299.694 88.9467 299.602 88.7557C298.955 89.5197 298.141 89.9016 297.161 89.9016C296.464 89.9016 295.907 89.7024 295.5 89.3038C295.093 88.9052 294.886 88.3738 294.886 87.7095C294.886 87.0037 295.135 86.4307 295.641 85.9989C296.148 85.5671 296.821 85.3512 297.676 85.3512C297.958 85.3512 298.249 85.3761 298.556 85.4177C298.863 85.4592 299.179 85.5256 299.511 85.6003V84.9942C299.511 84.3631 299.378 83.923 299.121 83.6656C298.855 83.4082 298.407 83.2836 297.767 83.2836C297.477 83.2836 297.178 83.3168 296.87 83.3916C296.563 83.4663 296.264 83.5576 295.974 83.6739C295.841 83.732 295.741 83.7652 295.683 83.7818C295.625 83.7984 295.583 83.8067 295.55 83.8067C295.434 83.8067 295.376 83.7237 295.376 83.5493V83.1424C295.376 83.0096 295.392 82.9099 295.434 82.8518C295.475 82.7937 295.55 82.7356 295.666 82.6774C295.957 82.528 296.306 82.4034 296.713 82.3038C297.12 82.1958 297.551 82.146 298.008 82.146C298.996 82.146 299.719 82.3702 300.184 82.8186C300.64 83.267 300.873 83.9479 300.873 84.8613V87.5517H300.889ZM297.518 88.8139C297.792 88.8139 298.074 88.764 298.373 88.6644C298.672 88.5647 298.938 88.3821 299.162 88.133C299.295 87.9752 299.395 87.8008 299.445 87.6015C299.494 87.4022 299.528 87.1614 299.528 86.8791V86.5303C299.287 86.4722 299.029 86.4224 298.764 86.3892C298.498 86.356 298.241 86.3394 297.983 86.3394C297.427 86.3394 297.02 86.4473 296.746 86.6715C296.472 86.8957 296.339 87.2112 296.339 87.6264C296.339 88.0167 296.439 88.3073 296.646 88.5066C296.845 88.7142 297.136 88.8139 297.518 88.8139ZM304.186 89.7107C304.036 89.7107 303.937 89.6857 303.87 89.6276C303.804 89.5778 303.746 89.4615 303.696 89.3038L301.745 82.885C301.695 82.719 301.67 82.611 301.67 82.5529C301.67 82.42 301.736 82.3453 301.869 82.3453H302.683C302.841 82.3453 302.949 82.3702 303.007 82.4283C303.073 82.4781 303.123 82.5944 303.173 82.7522L304.568 88.2492L305.863 82.7522C305.905 82.5861 305.955 82.4781 306.021 82.4283C306.087 82.3785 306.204 82.3453 306.353 82.3453H307.018C307.175 82.3453 307.283 82.3702 307.35 82.4283C307.416 82.4781 307.474 82.5944 307.507 82.7522L308.819 88.3156L310.256 82.7522C310.306 82.5861 310.364 82.4781 310.422 82.4283C310.488 82.3785 310.596 82.3453 310.746 82.3453H311.518C311.651 82.3453 311.726 82.4117 311.726 82.5529C311.726 82.5944 311.717 82.6359 311.709 82.6857C311.701 82.7356 311.684 82.802 311.651 82.8933L309.65 89.3121C309.6 89.4782 309.542 89.5861 309.475 89.6359C309.409 89.6857 309.301 89.719 309.16 89.719H308.446C308.288 89.719 308.18 89.694 308.114 89.6359C308.047 89.5778 307.989 89.4698 307.956 89.3038L306.669 83.9479L305.39 89.2955C305.348 89.4615 305.299 89.5695 305.232 89.6276C305.166 89.6857 305.05 89.7107 304.9 89.7107H304.186ZM314.856 89.9349C314.424 89.9349 313.993 89.885 313.577 89.7854C313.162 89.6857 312.838 89.5778 312.622 89.4532C312.49 89.3785 312.398 89.2955 312.365 89.2207C312.332 89.146 312.315 89.063 312.315 88.9882V88.5647C312.315 88.3904 312.382 88.3073 312.506 88.3073C312.556 88.3073 312.606 88.3156 312.656 88.3322C312.706 88.3489 312.78 88.3821 312.863 88.4153C313.146 88.5398 313.453 88.6395 313.777 88.7059C314.109 88.7723 314.433 88.8056 314.765 88.8056C315.288 88.8056 315.695 88.7142 315.977 88.5315C316.26 88.3489 316.409 88.0831 316.409 87.7427C316.409 87.5102 316.334 87.3192 316.185 87.1614C316.035 87.0037 315.753 86.8625 315.346 86.7296L314.142 86.356C313.536 86.165 313.087 85.8827 312.813 85.509C312.539 85.1436 312.398 84.7367 312.398 84.305C312.398 83.9562 312.473 83.649 312.622 83.3833C312.772 83.1175 312.971 82.885 313.22 82.7023C313.469 82.5114 313.752 82.3702 314.084 82.2706C314.416 82.1709 314.765 82.1294 315.13 82.1294C315.313 82.1294 315.504 82.1377 315.687 82.1626C315.878 82.1875 316.052 82.2207 316.226 82.2539C316.392 82.2955 316.55 82.337 316.7 82.3868C316.849 82.4366 316.965 82.4865 317.048 82.5363C317.165 82.6027 317.248 82.6691 317.297 82.7439C317.347 82.8103 317.372 82.9016 317.372 83.0179V83.4082C317.372 83.5825 317.306 83.6739 317.181 83.6739C317.115 83.6739 317.007 83.6407 316.866 83.5742C316.392 83.3583 315.861 83.2504 315.271 83.2504C314.798 83.2504 314.424 83.3251 314.167 83.4829C313.91 83.6407 313.777 83.8815 313.777 84.2219C313.777 84.4544 313.86 84.6537 314.026 84.8115C314.192 84.9693 314.499 85.127 314.939 85.2682L316.118 85.6419C316.716 85.8328 317.148 86.0986 317.405 86.439C317.663 86.7795 317.787 87.1697 317.787 87.6015C317.787 87.9586 317.713 88.2824 317.571 88.5647C317.422 88.8471 317.223 89.0962 316.965 89.2955C316.708 89.5031 316.401 89.6525 316.044 89.7605C315.67 89.8767 315.28 89.9349 314.856 89.9349Z" fill="#525252"/>
<path fill-rule="evenodd" clip-rule="evenodd" d="M316.426 93.9704C313.694 95.9882 309.725 97.0594 306.312 97.0594C301.529 97.0594 297.219 95.2907 293.964 92.3512C293.707 92.1187 293.939 91.8032 294.246 91.9859C297.767 94.0286 302.11 95.2658 306.602 95.2658C309.633 95.2658 312.963 94.6347 316.027 93.3394C316.484 93.1318 316.874 93.6383 316.426 93.9704Z" fill="#525252"/>
<path fill-rule="evenodd" clip-rule="evenodd" d="M317.563 92.6751C317.214 92.2267 315.255 92.4592 314.366 92.5671C314.101 92.6003 314.059 92.3678 314.3 92.1935C315.861 91.0974 318.427 91.4129 318.726 91.7783C319.025 92.1519 318.643 94.7178 317.181 95.9467C316.957 96.1377 316.741 96.0381 316.841 95.7889C317.173 94.9669 317.912 93.1152 317.563 92.6751Z" fill="#525252"/>
<rect x="288.459" y="115.416" width="35.7534" height="35.7534" rx="6.72163" fill="#FCFCFC"/>
<rect x="288.459" y="115.416" width="35.7534" height="35.7534" rx="6.72163" stroke="#DFDFDF" stroke-width="0.79452"/>
<path fill-rule="evenodd" clip-rule="evenodd" d="M318.363 133.872C318.363 131.86 317.112 130.091 315.231 129.409C315.313 128.982 315.353 128.555 315.353 128.118C315.353 124.367 312.303 121.317 308.562 121.317C306.366 121.317 304.333 122.364 303.052 124.133C302.422 123.645 301.649 123.381 300.846 123.381C298.853 123.381 297.237 124.997 297.237 126.99C297.237 127.427 297.318 127.854 297.46 128.25C295.59 128.921 294.309 130.721 294.309 132.724C294.309 134.747 295.569 136.516 297.45 137.197C297.369 137.614 297.328 138.051 297.328 138.488C297.328 142.229 300.368 145.269 304.109 145.269C306.305 145.269 308.338 144.212 309.609 142.443C310.24 142.941 311.012 143.216 311.815 143.216C313.808 143.216 315.425 141.599 315.425 139.606C315.425 139.169 315.343 138.742 315.201 138.346C317.072 137.675 318.363 135.875 318.363 133.872ZM303.763 131.636L309.03 134.035L314.337 129.379C314.418 128.992 314.448 128.616 314.448 128.21C314.448 124.936 311.785 122.272 308.511 122.272C306.549 122.272 304.729 123.238 303.621 124.855L302.736 129.44L303.763 131.636ZM298.203 138.397C298.203 137.99 298.233 137.594 298.314 137.207L303.499 132.531L308.786 134.94L309.955 137.177L309.081 141.741C307.973 143.368 306.133 144.344 304.16 144.344C300.876 144.344 298.203 141.68 298.203 138.397ZM298.284 128.098L301.893 128.952L302.686 124.855C302.198 124.479 301.588 124.275 300.957 124.275C299.392 124.275 298.111 125.546 298.111 127.122C298.111 127.457 298.172 127.793 298.284 128.098ZM295.234 132.734C295.234 131.036 296.363 129.491 297.969 128.962L301.934 129.897L302.859 131.88L297.796 136.455C296.261 135.865 295.234 134.391 295.234 132.734ZM309.996 141.741C310.494 142.118 311.094 142.331 311.714 142.331C313.28 142.331 314.561 141.06 314.561 139.484C314.561 139.139 314.5 138.803 314.388 138.498L310.789 137.654L309.996 141.741ZM314.692 137.634L310.727 136.709L309.68 134.686L314.865 130.141C316.4 130.721 317.427 132.205 317.427 133.852C317.427 135.56 316.309 137.105 314.692 137.634Z" fill="#525252"/>
</g>
</g>
<defs>
<linearGradient id="paint0_linear_895_5174" x1="285.871" y1="89.5943" x2="241.521" y2="89.5943" gradientUnits="userSpaceOnUse">
<stop offset="0.00550741" stop-color="#7D7D7D"/>
<stop offset="0.895" stop-color="#171717" stop-opacity="0"/>
</linearGradient>
<linearGradient id="paint1_linear_895_5174" x1="264.31" y1="89.5945" x2="204.394" y2="89.5945" gradientUnits="userSpaceOnUse">
<stop stop-color="#7D7D7D"/>
<stop offset="1" stop-color="#171717" stop-opacity="0"/>
</linearGradient>
<clipPath id="clip0_895_5174">
<rect width="349" height="174" fill="white" transform="translate(0 0.580078)"/>
</clipPath>
<clipPath id="clip1_895_5174">
<rect width="607.013" height="174" fill="white" transform="translate(-241 0.580078)"/>
</clipPath>
</defs>
</svg>
