<svg xmlns="http://www.w3.org/2000/svg" width="670" height="425" fill="none" viewBox="0 0 670 425"><g clip-path="url(#a)"><g opacity=".1"><path fill="url(#b)" d="m875.391-96.343.029-.592.964-.095-.036.592 43.479-4.295-2.944 50.432.46-.051-.065 1.146-.461.051L913.896.897l.46-.05-.066 1.16-.46.052-2.899 49.657.452-.059-.065 1.155-.453.058-2.878 49.307.453-.059-.066 1.125-.452.059-2.856 48.941.453-.058-.066 1.117-.453.059-2.834 48.576.453-.066-.066 1.125-.452.066-2.812 48.197.453-.066-.066 1.117-.453.066-2.79 47.861.445-.073-.065 1.088-.446.073-2.775 47.51.445-.073-.065 1.081-.446.073-2.753 47.167.445-.073-.066 1.095-.445.074-2.732 46.801.446-.08-.066 1.088-.445.08-2.71 46.481.446-.081-.059 1.06-.445.08-2.695 46.144.438-.08-.059 1.052-.438.08-2.673 45.816.438-.088-.058 1.066-.438.088-2.652 45.465.439-.088-.059 1.059-.438.088-2.637 45.158.438-.095-.058 1.03-.438.095-2.615 44.837.438-.095-.058 1.023-.438.095-2.6 44.515.431-.094-.059 1.037-.438.094-2.578 44.187.431-.094-.059 1.022-.431.095-2.563 43.895-40.718 9.538-.029.497-.906.212.029-.497-41.2 9.648-.021.497-.913.212.021-.497-41.696 9.765-.022.497-.913.212.022-.497-42.208 9.882-.021.504-.921.219.022-.504-42.704 9.999-.022.504-.95.219.022-.504-43.223 10.123-.022.503-.942.22.022-.504-43.763 10.247-.015.511-.957.226.015-.511-44.289 10.371-.015.511-.986.234.015-.511-44.837 10.495-.015.519-.993.234.014-.519-45.392 10.627-.014.518-.994.234.015-.519-45.962 10.766v.519l-1.029.241v-.519l-46.532 10.897v.526l-1.044.241v-.526l-47.123 11.036v.526l-1.037.241v-.526l-47.722 11.178v.52l-1.067.25v-.53L184.35 1020v.53l-1.08.25v-.53l-48.964 11.47v.53l-1.074.25v-.53l-49.628 11.62v.54l-1.08.25v-.54l-50.257 11.77v.54l-1.118.26v-.54l-50.92 11.93-.556-48.6-.57.13-.014-1.14.57-.13-.563-48.964-.57.125-.014-1.147.57-.124-.563-49.38-.577.124-.014-1.132.577-.124-.57-49.782-.577.117-.015-1.147.578-.116-.578-50.184-.576.117-.015-1.176.577-.117-.577-50.57-.577.117-.015-1.183.577-.117-.584-51.001-.584.109-.015-1.169.584-.109-.584-51.418-.584.11-.015-1.183.585-.11-.592-51.841-.584.102-.015-1.212.592-.102-.6-52.251-.59.103-.016-1.22.592-.102-.606-52.703-.592.095-.014-1.213.591-.095-.606-53.141-.591.095-.015-1.22.591-.095-.613-53.586-.599.087-.015-1.256.6-.088-.621-54.017-.6.087-.014-1.263.599-.088-.62-54.492-.607.08-.015-1.249.607-.08-.629-54.953-.606.081-.014-1.264.606-.08-.636-55.42-.606.073-.014-1.3.606-.073-.636-55.873-.613.073-.015-1.308.614-.073-.643-56.376-.614.065-.014-1.292.613-.066-.65-56.866 55.355-5.47v-.658l1.212-.117v.658l54.58-5.39v-.658l1.176-.117v.658l53.835-5.317v-.65l1.161-.117v.65l53.061-5.244v-.65l1.169-.117v.65l52.323-5.171v-.643l1.154-.117v.643l51.6-5.098v-.643l1.118-.11v.644l50.899-5.033v-.635l1.132-.11v.636l50.205-4.96.015-.628 1.102-.11-.014.629 49.54-4.893.015-.629 1.066-.102-.014.628 48.876-4.827.014-.621 1.074-.11-.015.621 48.234-4.762.021-.62 1.06-.103-.022.62 47.597-4.703.022-.613 1.03-.102-.022.613 46.992-4.645.022-.614 1.015-.102-.022.614 46.364-4.58.021-.606 1.016-.102-.022.606 45.757-4.52.029-.607.986-.095-.029.606 45.187-4.462.03-.6.971-.094-.029.599 44.596-4.404.029-.6.979-.094-.029.599zm45.451-5.661L-33.312-7.889l12.416 1077.079L864.53 861.733l56.303-963.737"/><path fill="url(#c)" d="m30.79 1006.44-51.126 11.64-.57.14.015 1.14.57-.14 51.118-11.65v-1.13m51.57-11.764-50.453 11.494v1.13l50.461-11.499v-1.125m50.906-11.598-49.818 11.357v1.125l49.818-11.357v-1.117m50.235-11.452-49.161 11.203v1.118l49.153-11.211v-1.11m49.614-11.307-48.533 11.058v1.11l48.518-11.065v-1.103M282.1 949.16l-47.912 10.919v1.103l47.898-10.926zm48.343-11.014-47.306 10.78-.014 1.096 47.298-10.787.022-1.096m47.751-10.875-46.714 10.641-.022 1.096 46.707-10.649.022-1.088m47.159-10.744-46.129 10.51-.022 1.088 46.122-10.517zm46.554-10.612-45.553 10.378-.029 1.081 45.553-10.385zm45.991-10.481-44.998 10.255-.029 1.073 44.99-10.261.037-1.074m45.428-10.342-44.442 10.13-.037 1.067 44.436-10.131.036-1.066m44.888-10.232-43.917 10.006-.036 1.066 43.917-10.013.043-1.059m44.304-10.094-43.369 9.882-.043 1.059 43.368-9.889zm43.8-9.984-42.843 9.765-.044 1.052 42.843-9.773zm43.282-9.86-42.354 9.648-.044 1.045 42.346-9.656.052-1.044m42.74-9.736-41.827 9.531-.052 1.045 41.828-9.539zm42.252-9.626-41.339 9.422-.051 1.037 41.332-9.422.058-1.03m42.193-9.626-.431.095-40.849 9.312-.058 1.03 40.849-9.312.431-.095.058-1.023"/><path fill="url(#d)" d="m30.415 956.598-51.33 11.371-.57.125.015 1.146.57-.124 51.33-11.379v-1.139m51.776-11.474-50.658 11.225v1.14l50.658-11.233zm51.103-11.321-50.015 11.08v1.132l50.015-11.087zm50.432-11.174-49.351 10.933v1.125l49.343-10.941v-1.117m49.811-11.036-48.715 10.794v1.118l48.708-10.802v-1.118m49.168-10.882-48.095 10.656v1.118l48.08-10.664zm48.518-10.751-47.481 10.525-.015 1.11 47.481-10.525.015-1.103m47.926-10.626-46.882 10.385-.022 1.103 46.882-10.393zm47.328-10.488-46.298 10.254-.022 1.095 46.291-10.261zm46.721-10.35-45.721 10.13-.029 1.089 45.714-10.138.029-1.081m46.166-10.225-45.151 10.006-.029 1.081 45.151-10.013.037-1.081m45.582-10.094-44.596 9.882-.037 1.081 44.596-9.889zm45.026-9.984-44.07 9.765-.036 1.074 44.063-9.772zm44.472-9.852-43.515 9.64-.044 1.067 43.515-9.648zm43.946-9.736-42.989 9.524-.044 1.059 42.989-9.531.044-1.059m43.42-9.612-42.492 9.414-.044 1.059 42.485-9.421zm42.88-9.502-41.967 9.297-.051 1.052 41.967-9.305zm42.39-9.393-41.47 9.188-.051 1.045 41.463-9.195zm42.325-9.377-.431.095-40.981 9.078-.058 1.037 40.973-9.086.438-.095.059-1.037"/><path fill="url(#e)" d="m30.052 906.368-52.12 11.218.015 1.132L30.06 907.5v-1.132m51.98-11.189-50.863 10.948v1.125l50.863-10.948zm51.315-11.043-50.212 10.809v1.125l50.212-10.809v-1.118m50.629-10.904-49.541 10.663v1.117l49.541-10.67zm49.986-10.759-48.905 10.525v1.11l48.89-10.532v-1.103m49.366-10.619-48.277 10.386v1.103l48.262-10.393zm48.708-10.481-47.664 10.255-.014 1.095 47.656-10.262.014-1.088m48.109-10.349-47.057 10.13-.015 1.088 47.05-10.13zm47.496-10.225-46.466 9.999-.022 1.08 46.459-10.005.029-1.081m46.889-10.079-45.881 9.874-.029 1.081 45.881-9.882zm46.327-9.97-45.312 9.751-.029 1.073 45.312-9.758.037-1.066m45.735-9.845-44.757 9.633-.036 1.067 44.749-9.634.037-1.059m45.202-9.736-44.224 9.517-.036 1.059 44.216-9.524.044-1.059m44.618-9.59-43.669 9.4-.044 1.059 43.662-9.4.043-1.051m44.1-9.502-43.135 9.283-.044 1.051 43.135-9.29zm43.566-9.371-42.631 9.174-.044 1.044 42.631-9.181.051-1.037m43.019-9.261-42.106 9.064-.051 1.037 42.106-9.064.051-1.03m42.529-9.158-41.602 8.954-.051 1.03 41.602-8.962.058-1.03m42.449-9.129-.438.095-41.113 8.844-.058 1.03 41.105-8.852.438-.095.058-1.022"/><path fill="url(#f)" d="m29.685 855.733-51.754 10.802-.577.117.015 1.147.577-.117 51.746-10.81v-1.139m52.192-10.897-51.067 10.663v1.14l51.067-10.671zm51.512-10.758L82.98 844.602v1.132l50.409-10.531v-1.125m50.833-10.612-49.737 10.385v1.125l49.73-10.393v-1.117m50.198-10.474-49.095 10.247v1.118l49.08-10.255v-1.11m49.548-10.349-48.459 10.115v1.111l48.445-10.123zm48.891-10.203-47.839 9.991-.015 1.103 47.839-9.991.015-1.096m48.284-10.086-47.232 9.86-.015 1.095 47.225-9.867.022-1.096m47.671-9.947-46.634 9.736-.022 1.095 46.634-9.743.029-1.088m47.05-9.824-46.049 9.612-.029 1.088 46.049-9.619zm46.488-9.706-45.48 9.495-.029 1.081 45.472-9.502zm45.911-9.582-44.91 9.377-.037 1.074 44.91-9.385zm45.348-9.473-44.377 9.268-.037 1.066 44.377-9.268.044-1.066m44.764-9.342-43.814 9.152-.044 1.066 43.814-9.151.044-1.059m44.246-9.247-43.282 9.035-.044 1.059 43.282-9.042zm43.705-9.129-42.778 8.932-.044 1.052 42.771-8.94zm43.171-9.013-42.244 8.823-.051 1.044 42.244-8.823.051-1.037m42.668-8.91-41.74 8.713-.051 1.045 41.733-8.721zm42.595-8.896-.438.095-41.244 8.611-.058 1.037 41.243-8.618.439-.095z"/><path fill="url(#g)" d="m29.31 804.666-52.543 10.626.015 1.176 52.535-10.634v-1.168m52.403-10.605L30.45 804.432v1.168l51.271-10.378zm51.724-10.459-50.614 10.24v1.161l50.614-10.247zm51.024-10.32-49.935 10.101v1.154l49.927-10.108v-1.147m50.388-10.196-49.285 9.969v1.147l49.27-9.977v-1.139m49.746-10.057-48.65 9.838v1.139l48.635-9.845zm49.073-9.933-48.022 9.714-.014 1.132 48.014-9.721.014-1.125m48.475-9.802-47.408 9.59-.022 1.125 47.408-9.597zm47.846-9.677-46.809 9.473-.022 1.117 46.802-9.472zm47.225-9.553-46.217 9.349-.03 1.117 46.211-9.356.029-1.11m46.663-9.444-45.641 9.232-.029 1.11 45.633-9.239zm46.071-9.319-45.071 9.115-.036 1.103 45.071-9.123zm45.509-9.203-44.53 9.006-.037 1.095 44.53-9.012.044-1.089m44.918-9.093-43.968 8.896-.044 1.088 43.96-8.903.044-1.081m44.407-8.976-43.428 8.786-.044 1.081 43.428-8.793.051-1.081m43.844-8.867-42.917 8.684-.051 1.081 42.916-8.691zm43.31-8.764-42.383 8.574-.051 1.074 42.383-8.582.058-1.066m42.8-8.662-41.879 8.472-.059 1.066 41.872-8.479.058-1.059m42.748-8.64-.438.087-41.375 8.37-.058 1.059 41.375-8.377.438-.088.058-1.059"/><path fill="url(#h)" d="m28.92 753.212-52.177 10.218-.577.117.015 1.183.577-.117 52.17-10.225v-1.176m52.622-10.298-51.476 10.079v1.176l51.484-10.086v-1.169m51.921-10.166-50.819 9.947v1.169l50.819-9.955zm51.228-10.028-50.132 9.816v1.161l50.125-9.823v-1.154m50.584-9.904-49.474 9.685v1.154l49.467-9.692v-1.147m49.921-9.772-48.833 9.56v1.147l48.818-9.568zm49.263-9.648-48.204 9.436-.015 1.139 48.197-9.443zm48.642-9.524-47.583 9.319-.022 1.132 47.583-9.319zm48.028-9.4-46.976 9.195-.022 1.132 46.977-9.202.029-1.125m47.393-9.283-46.385 9.079-.029 1.124 46.385-9.085zm46.824-9.166-45.801 8.969-.03 1.117 45.801-8.976.037-1.11m46.225-9.049-45.232 8.852-.036 1.11 45.224-8.859.036-1.103m45.677-8.94-44.691 8.75-.036 1.103 44.684-8.757zm45.078-8.83-44.121 8.64-.044 1.096 44.114-8.648.044-1.095m44.552-8.713-43.581 8.53-.043 1.096 43.573-8.538zm44.005-8.612-43.063 8.429-.051 1.088 43.063-8.436zm43.456-8.508-42.529 8.326-.051 1.081 42.522-8.334zm42.946-8.407-42.011 8.224-.058 1.074 42.01-8.231zm42.879-8.399-.438.088-41.514 8.129-.058 1.066 41.506-8.129.439-.088.058-1.066"/><path fill="url(#i)" d="m28.552 701.337-52.389 9.911-.584.109.014 1.169.585-.11 52.389-9.918v-1.161m52.827-9.999-51.688 9.78v1.161l51.695-9.787v-1.154m52.126-9.86-51.023 9.656v1.154l51.023-9.663zm51.432-9.736-50.329 9.524v1.147l50.322-9.531v-1.147m50.782-9.597-49.672 9.4v1.147l49.658-9.407v-1.14m50.132-9.48-49.022 9.276v1.139l49.007-9.283zm49.438-9.356-48.386 9.152-.015 1.132 48.387-9.159.021-1.125m48.825-9.239-47.766 9.035-.021 1.124 47.758-9.041.022-1.118m48.211-9.122-47.152 8.925-.022 1.117 47.152-8.925.029-1.11m47.569-9.005-46.553 8.808-.029 1.11 46.553-8.815zm46.992-8.889-45.969 8.699-.03 1.103 45.97-8.706.036-1.096m46.393-8.779-45.392 8.589-.037 1.096 45.392-8.597.037-1.095m45.823-8.662-44.845 8.487-.036 1.095 44.844-8.494.044-1.088m45.231-8.56-44.274 8.377-.044 1.088 44.267-8.384.044-1.081m44.706-8.458-43.727 8.275-.044 1.081 43.727-8.282.051-1.074m44.15-8.355-43.208 8.173-.051 1.073 43.208-8.18zm43.596-8.253-42.668 8.07-.051 1.067 42.668-8.078.058-1.059m43.084-8.151-42.149 7.976-.058 1.059 42.149-7.983.058-1.059m43.011-8.129-.438.08-41.645 7.881-.058 1.059 41.645-7.888.438-.08z"/><path fill="url(#j)" d="m28.166 649.049-52.608 9.604-.584.11.014 1.183.584-.11 52.601-9.611v-1.176m53.046-9.685-51.9 9.473v1.176l51.908-9.48v-1.169m52.338-9.56-51.228 9.356v1.168l51.228-9.363zm51.636-9.422-50.526 9.225v1.161l50.526-9.232zm50.972-9.312-49.862 9.1v1.154l49.855-9.107v-1.147m50.315-9.181-49.212 8.984v1.146l49.197-8.99zm49.635-9.063-48.569 8.866-.014 1.139 48.569-8.873.022-1.132m49.007-8.947-47.948 8.757-.022 1.132 47.941-8.757.022-1.125m48.386-8.845-47.327 8.64-.022 1.125 47.327-8.647.03-1.118m47.743-8.713-46.728 8.531-.029 1.117 46.721-8.538.029-1.117m47.167-8.604-46.137 8.421-.029 1.117 46.13-8.428zm46.575-8.501-45.552 8.318-.037 1.11 45.553-8.326zm45.984-8.4-45.005 8.217-.036 1.103 44.997-8.224zm45.4-8.289-44.429 8.114-.043 1.096 44.42-8.115.044-1.088m44.859-8.195-43.88 8.012-.044 1.089 43.873-8.02zm44.304-8.085-43.354 7.917-.052 1.081 43.355-7.924.051-1.081m43.741-7.983-42.813 7.815-.052 1.074 42.807-7.823.058-1.073m43.231-7.881-42.288 7.72-.059 1.074 42.288-7.728zm43.157-7.881-.446.081-41.777 7.625-.058 1.066 41.777-7.632.445-.081z"/><path fill="url(#k)" d="m27.783 596.308-52.828 9.29-.591.103.014 1.212 53.405-9.4zm53.272-9.37-52.111 9.166v1.205l52.119-9.174v-1.197m52.549-9.247L82.18 586.74v1.198l51.432-9.056zm51.841-9.115-50.731 8.925v1.191l50.724-8.932v-1.184m51.184-9.005-50.059 8.808v1.183l50.052-8.808v-1.176m50.512-8.888-49.402 8.691v1.176l49.387-8.699zm49.825-8.765-48.759 8.575-.015 1.168 48.752-8.581zm49.197-8.655-48.131 8.465-.021 1.162 48.123-8.473.022-1.154m48.569-8.537-47.51 8.355-.022 1.154 47.503-8.363zm47.927-8.429-46.897 8.246-.029 1.147 46.897-8.253zm47.335-8.326-46.305 8.144-.03 1.139 46.298-8.151.037-1.139m46.736-8.217-45.721 8.041-.037 1.14 45.714-8.049.036-1.132m46.159-8.114-45.165 7.946-.037 1.132 45.158-7.946.044-1.125m45.553-8.019-44.581 7.844-.044 1.125 44.581-7.845.044-1.117m45.005-7.924-44.026 7.741-.044 1.118 44.026-7.749.051-1.11m44.45-7.823-43.5 7.655-.051 1.11 43.5-7.662zm43.888-7.72-42.953 7.552-.051 1.103 42.953-7.559.058-1.096m43.369-7.625-42.427 7.465-.058 1.095 42.427-7.471.058-1.096m43.296-7.61-.446.08-41.915 7.369-.059 1.096 41.916-7.377.446-.08.065-1.088"/><path fill="url(#l)" d="m27.383 543.151-53.046 8.976-.592.102.015 1.22.591-.103 53.047-8.983v-1.212m53.477-9.05-52.33 8.852v1.213l52.33-8.859zm52.776-8.925-51.644 8.735v1.206l51.644-8.743zm52.046-8.808-50.936 8.618v1.198l50.928-8.625v-1.191m51.389-8.684-50.256 8.502v1.19l50.249-8.509v-1.183m50.709-8.582-49.599 8.392v1.183l49.584-8.399zm50.015-8.457-48.949 8.282-.015 1.176 48.942-8.29.022-1.176m49.387-8.348-48.313 8.173-.022 1.169 48.306-8.18.022-1.169m48.752-8.238-47.686 8.063-.022 1.161 47.686-8.07.029-1.162m48.094-8.129-47.072 7.961-.029 1.162 47.072-7.969zm47.511-8.034-46.474 7.859-.029 1.154 46.473-7.866.037-1.147m46.897-7.931-45.882 7.763-.036 1.147 45.881-7.764.037-1.139m46.312-7.844-45.327 7.669-.036 1.139 45.319-7.676zm45.713-7.735-44.742 7.567-.044 1.132 44.735-7.574.044-1.125m45.173-7.639-44.18 7.471-.043 1.125 44.179-7.479.051-1.117m44.596-7.545-43.654 7.384-.051 1.117 43.647-7.391.051-1.11m44.048-7.45-43.099 7.289-.051 1.11 43.099-7.296.058-1.11m43.516-7.347-42.573 7.201-.059 1.11 42.566-7.209.058-1.102m43.442-7.348-.445.073-42.055 7.114-.058 1.103 42.054-7.121.446-.073.066-1.096"/><path fill="url(#m)" d="m26.996 489.56-53.273 8.648-.592.095.015 1.212.591-.095 53.266-8.655v-1.205m53.71-8.72-52.542 8.53v1.206l52.55-8.538v-1.198m52.981-8.604-51.856 8.421v1.198l51.856-8.428zm52.257-8.479-51.14 8.304v1.19l51.133-8.311v-1.183m51.593-8.378-50.461 8.195v1.183l50.446-8.202v-1.176m50.914-8.26-49.789 8.085v1.176l49.774-8.093zm50.205-8.158-49.139 7.975-.015 1.169 49.132-7.983zm49.577-8.049-48.496 7.873-.022 1.162 48.489-7.881.022-1.154m48.941-7.939-47.868 7.771-.022 1.154 47.861-7.778zm48.277-7.844-47.247 7.669-.029 1.147 47.247-7.677zm47.686-7.742-46.641 7.574-.029 1.139 46.641-7.581.036-1.132m47.065-7.639-46.05 7.478-.036 1.133 46.042-7.479.036-1.125m46.488-7.552-45.487 7.384-.037 1.125 45.48-7.392zm45.874-7.45-44.895 7.289-.044 1.118 44.895-7.297.044-1.117m45.319-7.348-44.333 7.202-.044 1.117 44.333-7.201.052-1.11m44.749-7.275-43.8 7.114-.051 1.11 43.8-7.114.051-1.102m44.194-7.187-43.245 7.019-.051 1.102 43.238-7.026zm43.661-7.085-42.711 6.939-.059 1.095 42.712-6.938.058-1.088m43.574-7.085-.446.073-42.193 6.851-.058 1.088 42.186-6.858.445-.073z"/><path fill="url(#n)" d="m26.595 435.523-53.5 8.319-.591.095.014 1.22.592-.095 53.492-8.326v-1.213m53.93-8.384-52.762 8.202v1.212l52.77-8.209v-1.205m53.199-8.275-52.068 8.1v1.205l52.068-8.107zm52.469-8.158-51.344 7.983v1.197l51.344-7.99zm51.79-8.056-50.658 7.88v1.191l50.651-7.888v-1.183m51.103-7.947-49.986 7.772v1.183l49.972-7.779zm50.41-7.836-49.329 7.668-.014 1.176 49.321-7.676zm49.76-7.742-48.679 7.574-.022 1.168 48.679-7.574.022-1.161m49.117-7.647-48.044 7.472-.021 1.161 48.043-7.479.029-1.154m48.452-7.537-47.422 7.376-.029 1.154 47.422-7.383zm47.861-7.443-46.816 7.282-.029 1.147 46.808-7.289zm47.24-7.347-46.217 7.187-.037 1.139 46.21-7.194.037-1.132m46.655-7.253-45.647 7.1-.037 1.132 45.64-7.107zm46.035-7.157-45.056 7.004-.044 1.125 45.049-7.012.044-1.124m45.487-7.063-44.487 6.917-.043 1.124 44.486-6.924.051-1.117m44.91-6.99-43.953 6.837-.051 1.117 43.946-6.843.051-1.111m44.34-6.894-43.391 6.748-.051 1.11 43.391-6.755.059-1.103m43.807-6.807-42.858 6.668-.058 1.103 42.85-6.668.058-1.096m43.727-6.807-.445.073-42.332 6.581-.058 1.095 42.331-6.588.446-.073.066-1.088"/><path fill="url(#o)" d="m26.192 381.017-53.726 7.982-.599.088.015 1.256.599-.087 53.718-7.991v-1.248m54.157-8.049-52.981 7.873v1.249l52.988-7.88v-1.235m53.419-7.946-52.28 7.771v1.234l52.28-7.778zm52.681-7.83-51.557 7.662v1.227l51.549-7.669v-1.22m52.002-7.727-50.862 7.559v1.22l50.855-7.566v-1.213m51.308-7.625-50.183 7.457v1.213l50.168-7.465zm50.607-7.515-49.519 7.362-.014 1.205 49.518-7.369.022-1.198m49.95-7.428-48.869 7.26-.022 1.198 48.862-7.268.022-1.19m49.306-7.326-48.225 7.165-.022 1.191 48.226-7.172.029-1.184m48.635-7.223-47.605 7.077-.03 1.184 47.598-7.078.029-1.176m48.044-7.15-46.992 6.982-.036 1.176 46.984-6.989.036-1.176m47.423-7.041-46.386 6.895-.036 1.168 46.378-6.902.044-1.168m46.816-6.946-45.808 6.807-.044 1.161 45.808-6.814.044-1.161m46.196-6.858-45.217 6.719-.044 1.161 45.209-6.726zm45.64-6.785-44.647 6.631-.051 1.154 44.64-6.639.051-1.146m45.078-6.698-44.107 6.551-.051 1.147 44.099-6.558zm44.486-6.61-43.537 6.471-.058 1.14 43.537-6.479zm43.954-6.529-42.997 6.391-.058 1.132 42.996-6.398zm43.872-6.522-.452.065-42.471 6.311-.066 1.125 42.471-6.318.453-.066z"/><path fill="url(#p)" d="m25.782 326.079-53.952 7.64-.599.088.015 1.263.599-.088 53.944-7.646v-1.257m54.383-7.705-53.207 7.537v1.257l53.207-7.545zm53.653-7.596-52.499 7.435v1.249l52.499-7.442zm52.9-7.493-51.768 7.333v1.241l51.76-7.34v-1.234m52.207-7.399-51.067 7.231v1.234l51.06-7.238v-1.227m51.512-7.289-50.38 7.136v1.227l50.366-7.143zm50.804-7.201-49.716 7.04-.014 1.22 49.708-7.048zm50.147-7.099-49.059 6.945-.021 1.213 49.051-6.953.022-1.205m49.496-7.012-48.415 6.858-.022 1.205 48.408-6.865zm48.833-6.916-47.781 6.77-.029 1.198 47.78-6.778.037-1.19m48.204-6.829-47.16 6.682-.029 1.191 47.16-6.69.036-1.183m47.583-6.742-46.553 6.596-.037 1.183 46.554-6.603.044-1.176m46.969-6.653-45.976 6.515-.044 1.175 45.977-6.522zm46.371-6.566-45.377 6.427-.044 1.169 45.37-6.435zm45.794-6.486-44.801 6.347-.051 1.161 44.801-6.354zm45.224-6.405-44.26 6.266-.051 1.154 44.253-6.273zm44.64-6.325-43.691 6.186-.058 1.147 43.683-6.194.059-1.139m44.113-6.245-43.142 6.114-.059 1.139 43.143-6.121.066-1.132m44.004-6.237-.453.066-42.616 6.033-.066 1.132 42.609-6.04.453-.066.066-1.125"/><path fill="url(#q)" d="m25.388 270.682-54.178 7.296-.606.081.014 1.249.606-.081 54.179-7.303v-1.242m54.602-7.355-53.434 7.194v1.242l53.434-7.201zm53.871-7.252-52.717 7.099v1.234l52.717-7.106zm53.112-7.15-51.98 6.996v1.227l51.973-7.004v-1.219m52.426-7.056-51.272 6.902v1.22l51.264-6.909v-1.213m51.717-6.96-50.585 6.807v1.212l50.571-6.814zm51.002-6.866-49.913 6.72-.015 1.205 49.906-6.727zm50.344-6.777-49.249 6.631-.022 1.198 49.241-6.639.022-1.19m49.687-6.69-48.599 6.544-.021 1.19 48.591-6.551zm49.007-6.596-47.963 6.457-.029 1.183 47.956-6.464.029-1.176m48.401-6.514-47.335 6.376-.029 1.176 47.335-6.384.036-1.168m47.759-6.435-46.729 6.288-.036 1.169 46.721-6.296zm47.152-6.347-46.144 6.216-.044 1.161 46.137-6.216.044-1.154m46.539-6.273-45.538 6.127-.044 1.154 45.531-6.135zm45.954-6.186-44.961 6.054-.051 1.147 44.954-6.062.051-1.139m45.392-6.106-44.413 5.981-.052 1.14 44.407-5.989zm44.793-6.033-43.836 5.901-.059 1.132 43.837-5.908.058-1.132m44.253-5.953-43.289 5.828-.058 1.132 43.289-5.835zm44.158-5.945-.453.058-42.756 5.756-.058 1.124 42.755-5.762.453-.059.066-1.117"/><path fill="url(#r)" d="m24.977 214.814-54.412 6.938-.607.08.015 1.264.606-.08 54.405-6.946v-1.256m54.843-6.997-53.66 6.843v1.257l53.66-6.851zm54.098-6.902-52.937 6.748v1.249l52.937-6.763v-1.241m53.331-6.793-52.192 6.654v1.241l52.185-6.668v-1.234m52.637-6.705-51.483 6.566v1.234l51.468-6.573v-1.227m51.937-6.624-50.79 6.478v1.22l50.775-6.486zm51.198-6.53-50.103 6.391-.014 1.212 50.102-6.398.022-1.205m50.534-6.442-49.438 6.303-.022 1.206 49.431-6.311.022-1.198m49.877-6.361-48.782 6.223-.021 1.197 48.781-6.23.029-1.19m49.19-6.281-48.146 6.142-.029 1.191 48.138-6.15.03-1.183m48.576-6.194-47.517 6.062-.03 1.184 47.511-6.07zm47.941-6.113-46.897 5.982-.036 1.176 46.897-5.989.043-1.169m47.313-6.033-46.312 5.909-.044 1.169 46.305-5.916.044-1.162m46.707-5.959-45.699 5.828-.044 1.161 45.699-5.835.051-1.162m46.115-5.872-45.114 5.756-.051 1.153 45.114-5.762.051-1.154m45.538-5.806-44.566 5.682-.051 1.154 44.559-5.69zm44.947-5.734-43.99 5.609-.058 1.147 43.982-5.616.059-1.14m44.413-5.66-43.435 5.543-.058 1.14 43.435-5.544.065-1.132m44.297-5.66-.453.058-42.901 5.471-.066 1.132 42.894-5.478.453-.058.066-1.125"/><path fill="url(#s)" d="m24.556 158.454-55.252 6.653.015 1.3 55.245-6.66v-1.293m55.076-6.632-53.886 6.486v1.292l53.886-6.492v-1.279m54.317-6.544-53.155 6.398v1.278l53.155-6.405zm53.558-6.449-52.411 6.311v1.27l52.404-6.317v-1.264m52.849-6.361-51.695 6.222v1.264l51.68-6.23zm52.126-6.281-50.994 6.142v1.256l50.979-6.149zm51.403-6.187-50.308 6.055-.014 1.249 50.3-6.062zm50.738-6.113-49.635 5.975-.022 1.241 49.628-5.981.022-1.235m50.074-6.025-48.971 5.894-.022 1.234 48.971-5.901.029-1.227m49.372-5.945-48.328 5.821-.029 1.227 48.321-5.829zm48.752-5.873-47.692 5.741-.037 1.22 47.685-5.748.037-1.212m48.124-5.792-47.072 5.667-.037 1.213 47.065-5.675zm47.495-5.719-46.48 5.595-.044 1.205 46.473-5.602.044-1.198m46.875-5.646-45.867 5.522-.044 1.198 45.859-5.53zm46.283-5.572-45.276 5.448-.051 1.19 45.276-5.455zm45.699-5.5-44.721 5.383-.051 1.183 44.721-5.39.058-1.176m45.1-5.434-44.136 5.317-.058 1.176 44.136-5.324zm44.552-5.368-43.588 5.251-.058 1.169 43.58-5.251.066-1.162m44.457-5.353-.453.058-43.04 5.186-.066 1.16 43.041-5.192.453-.058z"/><path fill="url(#t)" d="m24.133 101.641-54.887 6.215-.614.073.015 1.307.613-.073 54.88-6.222v-1.3m55.317-6.26-54.112 6.128v1.3l54.12-6.135v-1.293M134 89.203l-53.382 6.04v1.292L134 90.481v-1.286m53.777-6.076-52.623 5.96v1.285l52.623-5.967v-1.271m53.061-6.018-51.907 5.88v1.27l51.892-5.887v-1.263m52.353-5.924-51.199 5.8v1.263l51.184-5.806zm51.607-5.842-50.505 5.718-.014 1.257 50.497-5.726zm50.936-5.77-49.826 5.638-.022 1.249 49.826-5.646zm50.256-5.69-49.161 5.566-.022 1.241 49.161-5.572.029-1.235m49.57-5.609-48.511 5.492-.029 1.235 48.503-5.5zm48.934-5.544-47.875 5.42-.036 1.227 47.868-5.427.036-1.22m48.306-5.463-47.247 5.347-.036 1.22 47.239-5.354zm47.664-5.397-46.648 5.28-.044 1.213 46.648-5.288zm47.035-5.324-46.027 5.214-.044 1.206 46.027-5.215.052-1.198m46.443-5.266L688.5 26.428l-.051 1.198 45.436-5.15zm45.86-5.193-44.881 5.084-.051 1.19 44.874-5.09zm45.261-5.127-44.29 5.018-.058 1.183 44.289-5.025zm44.705-5.061-43.734 4.951-.058 1.176 43.726-4.959zM914.365.858l-.46.05-43.186 4.887-.066 1.169 43.186-4.894.461-.051z"/><path fill="url(#u)" d="m23.721 44.343-55.12 5.843-.614.066.014 1.292 55.727-5.916v-1.285m55.544-5.887-54.346 5.755v1.286l54.346-5.77v-1.278m54.785-5.792L80.448 38.34v1.278l53.609-5.69zm53.996-5.726-52.842 5.602v1.27l52.842-5.608zm53.28-5.646-52.119 5.522v1.263l52.104-5.529v-1.256m52.565-5.565-51.404 5.448-.014 1.257 51.403-5.456zm51.811-5.492-50.709 5.375-.014 1.249 50.702-5.383.021-1.234m51.141-5.427-50.023 5.303-.022 1.234 50.015-5.31.022-1.227m50.461-5.346-49.351 5.23-.022 1.226L447.266.682l.029-1.22m49.753-5.273L448.354-.648l-.029 1.22 48.694-5.163.036-1.213m49.11-5.207-48.051 5.09-.036 1.213 48.05-5.098zm48.481-5.142-47.422 5.025-.037 1.205 47.415-5.032zm47.846-5.069-46.823 4.96-.044 1.197 46.816-4.966.044-1.19m47.211-4.997L643.5-21.324l-.044 1.19 46.196-4.9.051-1.184m46.605-4.944-45.604 4.835-.051 1.183 45.596-4.842.051-1.176m46.028-4.872-45.034 4.77-.052 1.175 45.035-4.776.058-1.169m45.414-4.813-44.442 4.711-.059 1.169 44.443-4.718zm44.859-4.754-43.88 4.652-.059 1.161 43.881-4.66.065-1.153m44.743-4.74-.461.05-43.332 4.595-.066 1.154 43.333-4.602.46-.05z"/><path fill="url(#v)" d="m876.398-97.029-.964.095-.037.592-2.79 50.738-.065 1.154L869.766 5.9l-.065 1.169-2.754 49.95-.066 1.16-2.731 49.6-.066 1.132-2.71 49.219-.058 1.125-2.695 48.861-.066 1.132-2.673 48.474-.058 1.125-2.652 48.138-.065 1.096-2.63 47.78-.058 1.088-2.615 47.43-.065 1.096-2.593 47.064-.059 1.089-12.927 234.563-.058 1.037-2.484 45.071-.058 1.03-2.469 44.749-.058 1.037-2.447 44.421-.051 1.03-2.432 44.114-.029.496.905-.211.029-.497 2.433-44.114.058-1.03 4.974-90.192.058-1.03 2.491-45.071.051-1.03 12.949-234.534.059-1.096 2.592-47.05.066-1.102 2.615-47.423.058-1.088 2.637-47.773.066-1.103 2.651-48.124.066-1.125 2.673-48.474.065-1.132 2.695-48.847.059-1.124 2.717-49.22.066-1.132 2.731-49.584.066-1.161 2.761-49.95.058-1.168 2.783-50.344.065-1.154 2.798-50.731z"/><path fill="url(#w)" d="m831.396-92.588-.979.095-.029.6-2.644 51.044-.066 1.161-2.621 50.651-.066 1.176-2.6 50.25-.066 1.168-10.401 200.696-.058 1.132-2.512 48.409-.051 1.103-2.491 48.05-.058 1.096-2.476 47.693-.059 1.11-2.454 47.32-.051 1.103-2.439 46.992-.059 1.073-2.417 46.648-.051 1.067-2.403 46.312-.051 1.074-2.389 45.954-.051 1.067-2.366 45.64-.059 1.044-2.344 45.312-.051 1.03-2.337 44.99-.052 1.045-2.315 44.647-.051 1.037-2.301 44.348-.029.497.921-.22.021-.496 2.301-44.341.058-1.037 2.316-44.64.051-1.044 2.337-44.983.051-1.03 2.359-45.312.051-1.037 2.367-45.64.058-1.067 2.381-45.947.059-1.073 2.402-46.305.059-1.067 2.417-46.648.059-1.066 2.439-46.992.059-1.096 2.454-47.32.059-1.102 2.475-47.693.058-1.096 2.491-48.043.058-1.103 2.513-48.401.058-1.132 10.416-200.674.058-1.169 2.614-50.242.059-1.176 2.629-50.644.059-1.168 2.651-51.03z"/><path fill="url(#x)" d="m785.823-88.086-.979.095-2.519 51.958-.059 1.169-4.981 102.689-.058 1.168-2.432 50.184-.051 1.146-2.418 49.804-.058 1.132-2.396 49.431-.058 1.147-2.374 49.029-.059 1.139-2.359 48.686-.058 1.11-2.344 48.329-.052 1.095-2.329 47.963-.052 1.118-2.308 47.583-.051 1.11-2.293 47.255-.058 1.073-4.587 94.546-.051 1.081-4.521 93.157-.044 1.052-8.896 183.365-.029.497.913-.212.022-.504 8.91-183.344.051-1.044 4.521-93.15.059-1.081 4.586-94.531.059-1.081 2.293-47.247.051-1.103 2.316-47.583.051-1.11 2.329-47.963.059-1.096 2.344-48.321.052-1.11 2.366-48.679.058-1.139 2.381-49.029.059-1.147 2.395-49.416.059-1.14 2.417-49.796.059-1.139 2.432-50.176.058-1.176 4.989-102.675.058-1.168z"/><path fill="url(#y)" d="m739.664-83.534-.994.095-.022.606-2.337 51.666-.051 1.176-2.315 51.272-.051 1.19-2.301 50.848-.051 1.183-13.672 302.889-.052 1.103-6.58 145.839-.051 1.088-2.133 47.167-.044 1.074-2.118 46.816-.044 1.088-2.096 46.459-.051 1.073-2.081 46.138-.052 1.051-2.066 45.794-.044 1.044-2.053 45.466-.051 1.059-2.037 45.114-.044 1.045-2.045 45.311.92-.211.022-.504 2.03-44.808.044-1.045 2.038-45.107.051-1.059 2.052-45.458.051-1.044 2.067-45.794.052-1.052 2.081-46.129.051-1.074 2.104-46.451.043-1.088 2.118-46.817.051-1.073 2.133-47.16.044-1.081 2.155-47.517.043-1.111 18.143-401.152.051-1.183 2.3-50.848.052-1.183 2.322-51.264.051-1.176 2.337-51.659z"/><path fill="url(#z)" d="m692.912-78.915-1.023.102-.022.607-2.169 51.987-.051 1.183-2.154 51.578-.044 1.198-2.14 51.155-.051 1.19-2.118 50.782-.044 1.162-2.104 50.388-.051 1.154-2.081 50.008-.051 1.161-2.075 49.606-.044 1.154-2.059 49.248-.044 1.125-2.038 48.876-.051 1.118-2.023 48.503-.044 1.125-2.008 48.131-.044 1.117-1.994 47.781-.051 1.095-1.979 47.43-.044 1.081-1.965 47.072-.044 1.095-1.95 46.707-.044 1.088-9.713 232.753-.022.504.949-.22.022-.504 3.82-91.441.051-1.066 5.858-140.223.043-1.088 1.958-46.7.043-1.095 1.965-47.072.051-1.081 1.98-47.423.043-1.088 2.002-47.78.043-1.118 2.009-48.116.051-1.125 2.03-48.503.044-1.118 2.045-48.875.044-1.118 2.06-49.248.044-1.147 2.074-49.606.051-1.154 2.089-50.008.051-1.147 2.103-50.388.051-1.154 2.119-50.782.051-1.19 4.345-103.916.051-1.184 2.17-51.98z"/><path fill="url(#A)" d="m645.524-74.242-1.008.102-.022.614-2.001 52.301-.051 1.198-1.987 51.892-.043 1.205-1.972 51.469-.044 1.19-11.723 306.468-5.689 148.615-.044 1.095-1.826 47.7-.036 1.081-1.812 47.342-.044 1.096-1.796 46.97-.044 1.088-1.782 46.634-.044 1.066-1.767 46.29-.044 1.059-1.76 45.948-.037 1.066-1.745 45.597-.044 1.059-1.731 45.282-.022.511.949-.226.015-.504 1.738-45.275.037-1.059 1.753-45.59.036-1.066 1.768-45.947.036-1.059 1.775-46.283.044-1.067 1.782-46.633.044-1.089 1.804-46.962.036-1.095 1.819-47.335.044-1.089 1.825-47.685.044-1.096 17.441-455.023.052-1.198 1.971-51.462.044-1.205 1.987-51.885.051-1.19 2.001-52.302z"/><path fill="url(#B)" d="m597.526-69.502-1.03.102-1.848 53.244-.043 1.205-1.812 52.213-.044 1.213-1.804 51.782-.036 1.198-1.789 51.403-.037 1.169-1.775 51.001-.044 1.161-1.752 50.607-.044 1.176-1.746 50.191-.036 1.168-1.739 49.826-.036 1.139-1.716 49.446-.044 1.125-1.702 49.073-.044 1.139-1.687 48.671-.037 1.132-1.679 48.329-.044 1.102-1.665 47.963-.037 1.089-1.658 47.605-.036 1.103-1.644 47.225-.036 1.095-4.923 141.771-.044 1.067-3.206 92.427-.022.511.957-.226.022-.511 8.187-235.236.044-1.095 1.643-47.218.037-1.103 1.658-47.598.036-1.096 1.673-47.955.036-1.103 1.688-48.321.036-1.125 1.694-48.671.044-1.139 1.702-49.066.044-1.125 1.723-49.446.037-1.132 1.738-49.818.037-1.168 1.753-50.191.036-1.168 1.76-50.6.044-1.161 1.775-50.994.044-1.176 1.789-51.389.037-1.205 1.804-51.775.044-1.213 1.818-52.206.044-1.198z"/><path fill="url(#C)" d="m548.892-64.692-1.059.102-.015.621-3.331 106.699-.036 1.22-1.629 52.104-.036 1.212-12.811 410.713-.036 1.132-1.52 48.606-.029 1.11-1.504 48.233-.037 1.096-1.49 47.868-.036 1.11-1.483 47.488-.036 1.103-1.468 47.152-.037 1.074-1.453 46.801-.037 1.067-1.446 46.451-.037 1.073-1.438 46.086-.03 1.074-1.431 45.757-.015.519.986-.234.015-.511 1.431-45.757.037-1.074 1.439-46.079.029-1.081 1.453-46.436.037-1.074 1.461-46.787.036-1.073 1.475-47.153.03-1.095 1.49-47.488.029-1.111 1.497-47.86.037-1.103 1.504-48.226.037-1.103 14.395-460.4.044-1.204 1.629-52.098.036-1.22 1.643-52.527.037-1.212 1.658-52.951z"/><path fill="url(#D)" d="m499.603-59.828-1.074.102-.014.629-1.468 53.287-.037 1.22-1.453 52.863-.037 1.227-1.446 52.426-.036 1.219-1.432 52.024-.036 1.191-1.425 51.622-.029 1.176-1.409 51.213-.037 1.19-1.402 50.797-.029 1.176-1.395 50.417-.03 1.154-1.38 50.023-.029 1.139-1.373 49.643-.03 1.154-1.358 49.241-.029 1.139-1.352 48.883-.029 1.111-1.336 48.51-.037 1.103-1.322 48.138-.029 1.118-1.322 47.758-.029 1.103-6.573 238.34.993-.234 6.595-238.31.029-1.11 1.322-47.745.03-1.117 1.336-48.131.029-1.103 1.337-48.503.036-1.117 1.352-48.876.029-1.14 1.358-49.234.037-1.154 1.373-49.635.029-1.139 1.388-50.023.029-1.147 1.395-50.409.029-1.184 1.41-50.782.029-1.19 1.417-51.213.036-1.176 1.425-51.615.036-1.183 1.439-52.024.029-1.22 1.454-52.418.029-1.22 1.468-52.863.029-1.213 1.475-53.287z"/><path fill="url(#E)" d="m449.656-54.9-1.074.11-6.441 269.366-.029 1.183-1.235 51.526-.022 1.198-1.226 51.095-.03 1.192-1.213 50.716-.029 1.154-1.198 50.329-.029 1.147-1.198 49.928-.029 1.161-1.183 49.526-.029 1.147-1.176 49.16-.022 1.125-1.169 48.781-.029 1.11-1.154 48.416-.029 1.125-1.147 48.022-.029 1.109-1.139 47.679-.03 1.088-1.132 47.313-.022 1.081-1.124 46.955-.022 1.088-1.118 46.59-.029 1.081-1.103 46.254-.014.518.993-.233.015-.519 1.11-46.247.022-1.08 1.117-46.583.029-1.088 1.125-46.955.029-1.074 1.132-47.313.03-1.088 1.139-47.671.029-1.109 1.154-48.015.029-1.125 1.162-48.409.021-1.11 1.176-48.781.022-1.117 1.183-49.161.03-1.147 1.183-49.518.029-1.162 1.198-49.92.029-1.147 1.205-50.322.029-1.154 2.498-104.186z"/><path fill="url(#F)" d="m399.039-49.902-1.103.11-.014.628-1.088 53.973-.022 1.235-1.089 53.528-.021 1.242-1.074 53.083-.022 1.234-1.066 52.681-.022 1.198-1.059 52.257-.022 1.191-1.052 51.841-.022 1.205-1.037 51.403-.022 1.198-1.037 51.023-.022 1.161-1.022 50.622-.022 1.154-1.016 50.227-.021 1.169-1.008 49.81-.022 1.162-4.017 198.863-.029 1.117-4.857 240.443-.008.526 1.023-.241.007-.518 5.88-289.824.022-1.132 3.03-149.424.03-1.154 1.008-49.811.022-1.161 1.022-50.22.022-1.154 1.022-50.622.03-1.161 1.029-51.016.03-1.19 1.044-51.403.022-1.205 1.052-51.834.022-1.191 1.059-52.25.029-1.198 1.066-52.674.022-1.234 1.081-53.075.022-1.242 1.088-53.521.022-1.234 1.096-53.96z"/><path fill="url(#G)" d="m347.708-44.837-1.117.11-.008.635-.898 54.317-.015 1.242-.891 53.872-.014 1.249-.884 53.418-.015 1.242-.876 53.002-.022 1.205-.862 52.587-.022 1.197-.854 52.156-.022 1.212-.847 51.724-.022 1.198-.84 51.338-.022 1.168-.84 50.921-.015 1.161-.832 50.527-.022 1.168-.818 50.111-.022 1.161-.818 49.738-.015 1.132-.818 49.35-.014 1.125-.804 48.964-.022 1.139-.796 48.562-.022 1.132-.788 48.211-.022 1.103-.782 47.839-.022 1.088-.781 47.481-.015 1.103-.774 47.094-.022 1.095-.767 46.758-.007.519 1.037-.241.007-.519.774-46.758.015-1.088.782-47.094.014-1.102.789-47.467.015-1.095.788-47.839.022-1.096.796-48.204.015-1.132.803-48.562.022-1.132.811-48.963.015-1.125.818-49.336.014-1.139.826-49.724.014-1.168.833-50.096.014-1.176.84-50.519.015-1.161.84-50.921.022-1.169.847-51.322.022-1.198.854-51.717.022-1.213.862-52.148.015-1.205.869-52.571.022-1.205.876-53.003.022-1.242.877-53.404.021-1.249.891-53.871.022-1.235.899-54.31z"/><path fill="url(#H)" d="m295.699-39.704-1.117.11-.008.642-1.387 110.131-11.686 926.094-.007.526 1.029-.241.008-.526 11.05-869.724.709-56.253.693-54.215.709-55.902z"/><path fill="url(#I)" d="m242.963-34.495-1.147.11-.007.642-.482 55.026-.007 1.256-.482 54.566-.007 1.27-.475 54.098-.008 1.257-.474 53.674-.008 1.22-.467 53.243-.007 1.213-.468 52.805-.007 1.227-.46 52.36-.007 1.219-.453 51.959-.015 1.183-.445 51.541-.015 1.176-.446 51.133-.007 1.183-.445 50.702-.015 1.176-.438 50.322-.007 1.147-.439 49.927-.007 1.14-.431 49.533-.015 1.147-.43 49.124-.008 1.139-.423 48.767-.015 1.11-.424 48.379-.007 1.103-.416 48.007-.015 1.117-.416 47.62-.007 1.103-.417 47.271v.53l1.059-.25.008-.53.416-47.262.007-1.11.424-47.613.007-1.11.424-48.007.007-1.095.431-48.38.007-1.11.431-48.759.015-1.139.431-49.117.007-1.147.438-49.533.015-1.132.438-49.92.007-1.147.446-50.315.007-1.176.453-50.702.007-1.183.453-51.125.007-1.176.461-51.535.007-1.183.46-51.951.008-1.219.467-52.353.007-1.219.467-52.806.008-1.212.475-53.229.007-1.227.475-53.667.007-1.256.482-54.091.007-1.264.482-54.565.015-1.249.482-55.018z"/><path fill="url(#J)" d="m189.478-29.215-1.168.11v.65l-.541 111.57v1.27l-.533 109.731v1.234l-.263 53.572v1.22l-.255 53.141-.008 1.234-.255 52.681-.008 1.227-.248 52.28-.007 1.183-.249 51.863-.007 1.183-.248 51.433v1.197l-.249 51.009-.007 1.183-.241 50.622-.007 1.154-.241 50.212-.007 1.147-.234 49.825-.007 1.154-.241 49.409v1.147l-.242 49.037v1.117l-.233 48.657-.008 1.11-.233 48.277-.008 1.125-.226 47.882-.007 1.111-.227 47.528-.007.54 1.081-.26v-.53l.234-47.527.007-1.11.234-47.875.007-1.125.234-48.27.007-1.11.234-48.649.007-1.118.241-49.036.007-1.147.241-49.402v-1.154l.249-49.818.007-1.139.241-50.213.007-1.154.249-50.614.007-1.183.248-51.001.008-1.191.248-51.439.007-1.176.256-51.856v-1.191l.255-52.272.008-1.22.255-52.673.271-54.369.007-1.219.263-53.565v-1.235l.27-54.01v-1.263l.818-167.268z"/><path fill="url(#K)" d="m135.259-23.858-1.162.11-.701 857.826-.161 198.452 1.074-.25.176-197.304v-1.125l.043-49.313.008-1.154.131-153.778.051-50.921z"/><path fill="url(#L)" d="m80.263-18.434-1.176.117v.657l.183 56.114.007 1.278.183 55.647v1.292l.182 55.15v1.286l.175 54.711.008 1.249.175 54.259.007 1.234.168 53.813.008 1.249.175 53.346v1.242l.175 52.929v1.205l.175 52.491v1.198l.168 52.068.008 1.205.168 51.629v1.198l.168 51.228v1.168l.168 50.812v1.161l.168 50.41v1.168l.16 49.979.008 1.161.16 49.614.008 1.125.153 49.219.007 1.117.161 48.825v1.14l.153 48.415.008 1.125.153 48.07.007.54 1.081-.26v-.54l-.153-48.058v-1.118l-.153-48.423-.008-1.132-.153-48.817v-1.125l-.16-49.205V844.6l-.161-49.599v-1.161l-.161-49.979v-1.168l-.16-50.403v-1.161l-.161-50.804-.008-1.169-.16-51.22v-1.198l-.168-51.622v-1.205l-.168-52.06v-1.198l-.168-52.491v-1.206l-.168-52.922-.008-1.234-.168-53.338v-1.249l-.175-53.806v-1.235l-.175-54.251v-1.249l-.175-54.711v-1.278l-.176-55.143-.007-1.293-.175-55.639V38.33l-.176-56.106z"/><path fill="url(#M)" d="m24.512-12.926-1.22.117.007.665.417 56.486.007 1.293.41 56.004.014 1.3.41 55.515.007 1.293.4 55.069.015 1.256.402 54.61.007 1.241.395 54.157.014 1.256.395 53.682.007 1.249.394 53.258.008 1.212.387 52.82.007 1.205.387 52.389.008 1.213.387 51.943.007 1.205.38 51.535.007 1.176.373 51.118.007 1.168.372 50.702.015 1.176.365 50.278.008 1.169.372 49.898.007 1.14 1.096 149.568.014 1.13.35 48.33.008.54 1.118-.27-.008-.54-2.183-301.462-.015-1.176-.372-51.87-.373-51.111-.007-1.176-.373-51.527-.014-1.205-.373-51.936-.014-1.213-.38-52.382-.008-1.205-.38-52.812-.014-1.213-.387-53.251-.007-1.248-.387-53.675-.008-1.256-.394-54.149-.015-1.242-.394-54.602-.007-1.256-.402-55.062-.007-1.286-.402-55.507-.015-1.3-.401-56.005-.015-1.285-.409-56.486z"/></g><mask id="az" width="955" height="1173" x="-34" y="-103" maskUnits="userSpaceOnUse" style="mask-type:alpha"><path fill="url(#N)" d="m875.391-96.343.029-.592.964-.095-.036.592 43.479-4.295-2.944 50.432.46-.051-.065 1.146-.461.051L913.896.897l.46-.05-.066 1.16-.46.052-2.899 49.657.452-.059-.065 1.155-.453.058-2.878 49.307.453-.059-.066 1.125-.452.059-2.856 48.941.453-.058-.066 1.117-.453.059-2.834 48.576.453-.066-.066 1.125-.452.066-2.812 48.197.453-.066-.066 1.117-.453.066-2.79 47.861.445-.073-.065 1.088-.446.073-2.775 47.51.445-.073-.065 1.081-.446.073-2.753 47.167.445-.073-.066 1.095-.445.074-2.732 46.801.446-.08-.066 1.088-.445.08-2.71 46.481.446-.081-.059 1.06-.445.08-2.695 46.144.438-.08-.059 1.052-.438.08-2.673 45.816.438-.088-.058 1.066-.438.088-2.652 45.465.439-.088-.059 1.059-.438.088-2.637 45.158.438-.095-.058 1.03-.438.095-2.615 44.837.438-.095-.058 1.023-.438.095-2.6 44.515.431-.094-.059 1.037-.438.094-2.578 44.187.431-.094-.059 1.022-.431.095-2.563 43.895-40.718 9.538-.029.497-.906.212.029-.497-41.2 9.648-.021.497-.913.212.021-.497-41.696 9.765-.022.497-.913.212.022-.497-42.208 9.882-.021.504-.921.219.022-.504-42.704 9.999-.022.504-.95.219.022-.504-43.223 10.123-.022.503-.942.22.022-.504-43.763 10.247-.015.511-.957.226.015-.511-44.289 10.371-.015.511-.986.234.015-.511-44.837 10.495-.015.519-.993.234.014-.519-45.392 10.627-.014.518-.994.234.015-.519-45.962 10.766v.519l-1.029.241v-.519l-46.532 10.897v.526l-1.044.241v-.526l-47.123 11.036v.526l-1.037.241v-.526l-47.722 11.178v.52l-1.067.25v-.53L184.35 1020v.53l-1.08.25v-.53l-48.964 11.47v.53l-1.074.25v-.53l-49.628 11.62v.54l-1.08.25v-.54l-50.257 11.77v.54l-1.118.26v-.54l-50.92 11.93-.556-48.6-.57.13-.014-1.14.57-.13-.563-48.964-.57.125-.014-1.147.57-.124-.563-49.38-.577.124-.014-1.132.577-.124-.57-49.782-.577.117-.015-1.147.578-.116-.578-50.184-.576.117-.015-1.176.577-.117-.577-50.57-.577.117-.015-1.183.577-.117-.584-51.001-.584.109-.015-1.169.584-.109-.584-51.418-.584.11-.015-1.183.585-.11-.592-51.841-.584.102-.015-1.212.592-.102-.6-52.251-.59.103-.016-1.22.592-.102-.606-52.703-.592.095-.014-1.213.591-.095-.606-53.141-.591.095-.015-1.22.591-.095-.613-53.586-.599.087-.015-1.256.6-.088-.621-54.017-.6.087-.014-1.263.599-.088-.62-54.492-.607.08-.015-1.249.607-.08-.629-54.953-.606.081-.014-1.264.606-.08-.636-55.42-.606.073-.014-1.3.606-.073-.636-55.873-.613.073-.015-1.308.614-.073-.643-56.376-.614.065-.014-1.292.613-.066-.65-56.866 55.355-5.47v-.658l1.212-.117v.658l54.58-5.39v-.658l1.176-.117v.658l53.835-5.317v-.65l1.161-.117v.65l53.061-5.244v-.65l1.169-.117v.65l52.323-5.171v-.643l1.154-.117v.643l51.6-5.098v-.643l1.118-.11v.644l50.899-5.033v-.635l1.132-.11v.636l50.205-4.96.015-.628 1.102-.11-.014.629 49.54-4.893.015-.629 1.066-.102-.014.628 48.876-4.827.014-.621 1.074-.11-.015.621 48.234-4.762.021-.62 1.06-.103-.022.62 47.597-4.703.022-.613 1.03-.102-.022.613 46.992-4.645.022-.614 1.015-.102-.022.614 46.364-4.58.021-.606 1.016-.102-.022.606 45.757-4.52.029-.607.986-.095-.029.606 45.187-4.462.03-.6.971-.094-.029.599 44.596-4.404.029-.6.979-.094-.029.599zm45.451-5.661L-33.312-7.889l12.416 1077.079L864.53 861.733l56.303-963.737"/><path fill="url(#O)" d="m30.79 1006.44-51.126 11.64-.57.14.015 1.14.57-.14 51.118-11.65v-1.13m51.57-11.764-50.453 11.494v1.13l50.461-11.499v-1.125m50.906-11.598-49.818 11.357v1.125l49.818-11.357v-1.117m50.235-11.452-49.161 11.203v1.118l49.153-11.211v-1.11m49.614-11.307-48.533 11.058v1.11l48.518-11.065v-1.103M282.1 949.16l-47.912 10.919v1.103l47.898-10.926zm48.343-11.014-47.306 10.78-.014 1.096 47.298-10.787.022-1.096m47.751-10.875-46.714 10.641-.022 1.096 46.707-10.649.022-1.088m47.159-10.744-46.129 10.51-.022 1.088 46.122-10.517zm46.554-10.612-45.553 10.378-.029 1.081 45.553-10.385zm45.991-10.481-44.998 10.255-.029 1.073 44.99-10.261.037-1.074m45.428-10.342-44.442 10.13-.037 1.067 44.436-10.131.036-1.066m44.888-10.232-43.917 10.006-.036 1.066 43.917-10.013.043-1.059m44.304-10.094-43.369 9.882-.043 1.059 43.368-9.889zm43.8-9.984-42.843 9.765-.044 1.052 42.843-9.773zm43.282-9.86-42.354 9.648-.044 1.045 42.346-9.656.052-1.044m42.74-9.736-41.827 9.531-.052 1.045 41.828-9.539zm42.252-9.626-41.339 9.422-.051 1.037 41.332-9.422.058-1.03m42.193-9.626-.431.095-40.849 9.312-.058 1.03 40.849-9.312.431-.095.058-1.023"/><path fill="url(#P)" d="m30.415 956.598-51.33 11.371-.57.125.015 1.146.57-.124 51.33-11.379v-1.139m51.776-11.474-50.658 11.225v1.14l50.658-11.233zm51.103-11.321-50.015 11.08v1.132l50.015-11.087zm50.432-11.174-49.351 10.933v1.125l49.343-10.941v-1.117m49.811-11.036-48.715 10.794v1.118l48.708-10.802v-1.118m49.168-10.882-48.095 10.656v1.118l48.08-10.664zm48.518-10.751-47.481 10.525-.015 1.11 47.481-10.525.015-1.103m47.926-10.626-46.882 10.385-.022 1.103 46.882-10.393zm47.328-10.488-46.298 10.254-.022 1.095 46.291-10.261zm46.721-10.35-45.721 10.13-.029 1.089 45.714-10.138.029-1.081m46.166-10.225-45.151 10.006-.029 1.081 45.151-10.013.037-1.081m45.582-10.094-44.596 9.882-.037 1.081 44.596-9.889zm45.026-9.984-44.07 9.765-.036 1.074 44.063-9.772zm44.472-9.852-43.515 9.64-.044 1.067 43.515-9.648zm43.946-9.736-42.989 9.524-.044 1.059 42.989-9.531.044-1.059m43.42-9.612-42.492 9.414-.044 1.059 42.485-9.421zm42.88-9.502-41.967 9.297-.051 1.052 41.967-9.305zm42.39-9.393-41.47 9.188-.051 1.045 41.463-9.195zm42.325-9.377-.431.095-40.981 9.078-.058 1.037 40.973-9.086.438-.095.059-1.037"/><path fill="url(#Q)" d="m30.052 906.368-52.12 11.218.015 1.132L30.06 907.5v-1.132m51.98-11.189-50.863 10.948v1.125l50.863-10.948zm51.315-11.043-50.212 10.809v1.125l50.212-10.809v-1.118m50.629-10.904-49.541 10.663v1.117l49.541-10.67zm49.986-10.759-48.905 10.525v1.11l48.89-10.532v-1.103m49.366-10.619-48.277 10.386v1.103l48.262-10.393zm48.708-10.481-47.664 10.255-.014 1.095 47.656-10.262.014-1.088m48.109-10.349-47.057 10.13-.015 1.088 47.05-10.13zm47.496-10.225-46.466 9.999-.022 1.08 46.459-10.005.029-1.081m46.889-10.079-45.881 9.874-.029 1.081 45.881-9.882zm46.327-9.97-45.312 9.751-.029 1.073 45.312-9.758.037-1.066m45.735-9.845-44.757 9.633-.036 1.067 44.749-9.634.037-1.059m45.202-9.736-44.224 9.517-.036 1.059 44.216-9.524.044-1.059m44.618-9.59-43.669 9.4-.044 1.059 43.662-9.4.043-1.051m44.1-9.502-43.135 9.283-.044 1.051 43.135-9.29zm43.566-9.371-42.631 9.174-.044 1.044 42.631-9.181.051-1.037m43.019-9.261-42.106 9.064-.051 1.037 42.106-9.064.051-1.03m42.529-9.158-41.602 8.954-.051 1.03 41.602-8.962.058-1.03m42.449-9.129-.438.095-41.113 8.844-.058 1.03 41.105-8.852.438-.095.058-1.022"/><path fill="url(#R)" d="m29.685 855.733-51.754 10.802-.577.117.015 1.147.577-.117 51.746-10.81v-1.139m52.192-10.897-51.067 10.663v1.14l51.067-10.671zm51.512-10.758L82.98 844.602v1.132l50.409-10.531v-1.125m50.833-10.612-49.737 10.385v1.125l49.73-10.393v-1.117m50.198-10.474-49.095 10.247v1.118l49.08-10.255v-1.11m49.548-10.349-48.459 10.115v1.111l48.445-10.123zm48.891-10.203-47.839 9.991-.015 1.103 47.839-9.991.015-1.096m48.284-10.086-47.232 9.86-.015 1.095 47.225-9.867.022-1.096m47.671-9.947-46.634 9.736-.022 1.095 46.634-9.743.029-1.088m47.05-9.824-46.049 9.612-.029 1.088 46.049-9.619zm46.488-9.706-45.48 9.495-.029 1.081 45.472-9.502zm45.911-9.582-44.91 9.377-.037 1.074 44.91-9.385zm45.348-9.473-44.377 9.268-.037 1.066 44.377-9.268.044-1.066m44.764-9.342-43.814 9.152-.044 1.066 43.814-9.151.044-1.059m44.246-9.247-43.282 9.035-.044 1.059 43.282-9.042zm43.705-9.129-42.778 8.932-.044 1.052 42.771-8.94zm43.171-9.013-42.244 8.823-.051 1.044 42.244-8.823.051-1.037m42.668-8.91-41.74 8.713-.051 1.045 41.733-8.721zm42.595-8.896-.438.095-41.244 8.611-.058 1.037 41.243-8.618.439-.095z"/><path fill="url(#S)" d="m29.31 804.666-52.543 10.626.015 1.176 52.535-10.634v-1.168m52.403-10.605L30.45 804.432v1.168l51.271-10.378zm51.724-10.459-50.614 10.24v1.161l50.614-10.247zm51.024-10.32-49.935 10.101v1.154l49.927-10.108v-1.147m50.388-10.196-49.285 9.969v1.147l49.27-9.977v-1.139m49.746-10.057-48.65 9.838v1.139l48.635-9.845zm49.073-9.933-48.022 9.714-.014 1.132 48.014-9.721.014-1.125m48.475-9.802-47.408 9.59-.022 1.125 47.408-9.597zm47.846-9.677-46.809 9.473-.022 1.117 46.802-9.472zm47.225-9.553-46.217 9.349-.03 1.117 46.211-9.356.029-1.11m46.663-9.444-45.641 9.232-.029 1.11 45.633-9.239zm46.071-9.319-45.071 9.115-.036 1.103 45.071-9.123zm45.509-9.203-44.53 9.006-.037 1.095 44.53-9.012.044-1.089m44.918-9.093-43.968 8.896-.044 1.088 43.96-8.903.044-1.081m44.407-8.976-43.428 8.786-.044 1.081 43.428-8.793.051-1.081m43.844-8.867-42.917 8.684-.051 1.081 42.916-8.691zm43.31-8.764-42.383 8.574-.051 1.074 42.383-8.582.058-1.066m42.8-8.662-41.879 8.472-.059 1.066 41.872-8.479.058-1.059m42.748-8.64-.438.087-41.375 8.37-.058 1.059 41.375-8.377.438-.088.058-1.059"/><path fill="url(#T)" d="m28.92 753.212-52.177 10.218-.577.117.015 1.183.577-.117 52.17-10.225v-1.176m52.622-10.298-51.476 10.079v1.176l51.484-10.086v-1.169m51.921-10.166-50.819 9.947v1.169l50.819-9.955zm51.228-10.028-50.132 9.816v1.161l50.125-9.823v-1.154m50.584-9.904-49.474 9.685v1.154l49.467-9.692v-1.147m49.921-9.772-48.833 9.56v1.147l48.818-9.568zm49.263-9.648-48.204 9.436-.015 1.139 48.197-9.443zm48.642-9.524-47.583 9.319-.022 1.132 47.583-9.319zm48.028-9.4-46.976 9.195-.022 1.132 46.977-9.202.029-1.125m47.393-9.283-46.385 9.079-.029 1.124 46.385-9.085zm46.824-9.166-45.801 8.969-.03 1.117 45.801-8.976.037-1.11m46.225-9.049-45.232 8.852-.036 1.11 45.224-8.859.036-1.103m45.677-8.94-44.691 8.75-.036 1.103 44.684-8.757zm45.078-8.83-44.121 8.64-.044 1.096 44.114-8.648.044-1.095m44.552-8.713-43.581 8.53-.043 1.096 43.573-8.538zm44.005-8.612-43.063 8.429-.051 1.088 43.063-8.436zm43.456-8.508-42.529 8.326-.051 1.081 42.522-8.334zm42.946-8.407-42.011 8.224-.058 1.074 42.01-8.231zm42.879-8.399-.438.088-41.514 8.129-.058 1.066 41.506-8.129.439-.088.058-1.066"/><path fill="url(#U)" d="m28.552 701.337-52.389 9.911-.584.109.014 1.169.585-.11 52.389-9.918v-1.161m52.827-9.999-51.688 9.78v1.161l51.695-9.787v-1.154m52.126-9.86-51.023 9.656v1.154l51.023-9.663zm51.432-9.736-50.329 9.524v1.147l50.322-9.531v-1.147m50.782-9.597-49.672 9.4v1.147l49.658-9.407v-1.14m50.132-9.48-49.022 9.276v1.139l49.007-9.283zm49.438-9.356-48.386 9.152-.015 1.132 48.387-9.159.021-1.125m48.825-9.239-47.766 9.035-.021 1.124 47.758-9.041.022-1.118m48.211-9.122-47.152 8.925-.022 1.117 47.152-8.925.029-1.11m47.569-9.005-46.553 8.808-.029 1.11 46.553-8.815zm46.992-8.889-45.969 8.699-.03 1.103 45.97-8.706.036-1.096m46.393-8.779-45.392 8.589-.037 1.096 45.392-8.597.037-1.095m45.823-8.662-44.845 8.487-.036 1.095 44.844-8.494.044-1.088m45.231-8.56-44.274 8.377-.044 1.088 44.267-8.384.044-1.081m44.706-8.458-43.727 8.275-.044 1.081 43.727-8.282.051-1.074m44.15-8.355-43.208 8.173-.051 1.073 43.208-8.18zm43.596-8.253-42.668 8.07-.051 1.067 42.668-8.078.058-1.059m43.084-8.151-42.149 7.976-.058 1.059 42.149-7.983.058-1.059m43.011-8.129-.438.08-41.645 7.881-.058 1.059 41.645-7.888.438-.08z"/><path fill="url(#V)" d="m28.166 649.049-52.608 9.604-.584.11.014 1.183.584-.11 52.601-9.611v-1.176m53.046-9.685-51.9 9.473v1.176l51.908-9.48v-1.169m52.338-9.56-51.228 9.356v1.168l51.228-9.363zm51.636-9.422-50.526 9.225v1.161l50.526-9.232zm50.972-9.312-49.862 9.1v1.154l49.855-9.107v-1.147m50.315-9.181-49.212 8.984v1.146l49.197-8.99zm49.635-9.063-48.569 8.866-.014 1.139 48.569-8.873.022-1.132m49.007-8.947-47.948 8.757-.022 1.132 47.941-8.757.022-1.125m48.386-8.845-47.327 8.64-.022 1.125 47.327-8.647.03-1.118m47.743-8.713-46.728 8.531-.029 1.117 46.721-8.538.029-1.117m47.167-8.604-46.137 8.421-.029 1.117 46.13-8.428zm46.575-8.501-45.552 8.318-.037 1.11 45.553-8.326zm45.984-8.4-45.005 8.217-.036 1.103 44.997-8.224zm45.4-8.289-44.429 8.114-.043 1.096 44.42-8.115.044-1.088m44.859-8.195-43.88 8.012-.044 1.089 43.873-8.02zm44.304-8.085-43.354 7.917-.052 1.081 43.355-7.924.051-1.081m43.741-7.983-42.813 7.815-.052 1.074 42.807-7.823.058-1.073m43.231-7.881-42.288 7.72-.059 1.074 42.288-7.728zm43.157-7.881-.446.081-41.777 7.625-.058 1.066 41.777-7.632.445-.081z"/><path fill="url(#W)" d="m27.783 596.308-52.828 9.29-.591.103.014 1.212 53.405-9.4zm53.272-9.37-52.111 9.166v1.205l52.119-9.174v-1.197m52.549-9.247L82.18 586.74v1.198l51.432-9.056zm51.841-9.115-50.731 8.925v1.191l50.724-8.932v-1.184m51.184-9.005-50.059 8.808v1.183l50.052-8.808v-1.176m50.512-8.888-49.402 8.691v1.176l49.387-8.699zm49.825-8.765-48.759 8.575-.015 1.168 48.752-8.581zm49.197-8.655-48.131 8.465-.021 1.162 48.123-8.473.022-1.154m48.569-8.537-47.51 8.355-.022 1.154 47.503-8.363zm47.927-8.429-46.897 8.246-.029 1.147 46.897-8.253zm47.335-8.326-46.305 8.144-.03 1.139 46.298-8.151.037-1.139m46.736-8.217-45.721 8.041-.037 1.14 45.714-8.049.036-1.132m46.159-8.114-45.165 7.946-.037 1.132 45.158-7.946.044-1.125m45.553-8.019-44.581 7.844-.044 1.125 44.581-7.845.044-1.117m45.005-7.924-44.026 7.741-.044 1.118 44.026-7.749.051-1.11m44.45-7.823-43.5 7.655-.051 1.11 43.5-7.662zm43.888-7.72-42.953 7.552-.051 1.103 42.953-7.559.058-1.096m43.369-7.625-42.427 7.465-.058 1.095 42.427-7.471.058-1.096m43.296-7.61-.446.08-41.915 7.369-.059 1.096 41.916-7.377.446-.08.065-1.088"/><path fill="url(#X)" d="m27.383 543.151-53.046 8.976-.592.102.015 1.22.591-.103 53.047-8.983v-1.212m53.477-9.05-52.33 8.852v1.213l52.33-8.859zm52.776-8.925-51.644 8.735v1.206l51.644-8.743zm52.046-8.808-50.936 8.618v1.198l50.928-8.625v-1.191m51.389-8.684-50.256 8.502v1.19l50.249-8.509v-1.183m50.709-8.582-49.599 8.392v1.183l49.584-8.399zm50.015-8.457-48.949 8.282-.015 1.176 48.942-8.29.022-1.176m49.387-8.348-48.313 8.173-.022 1.169 48.306-8.18.022-1.169m48.752-8.238-47.686 8.063-.022 1.161 47.686-8.07.029-1.162m48.094-8.129-47.072 7.961-.029 1.162 47.072-7.969zm47.511-8.034-46.474 7.859-.029 1.154 46.473-7.866.037-1.147m46.897-7.931-45.882 7.763-.036 1.147 45.881-7.764.037-1.139m46.312-7.844-45.327 7.669-.036 1.139 45.319-7.676zm45.713-7.735-44.742 7.567-.044 1.132 44.735-7.574.044-1.125m45.173-7.639-44.18 7.471-.043 1.125 44.179-7.479.051-1.117m44.596-7.545-43.654 7.384-.051 1.117 43.647-7.391.051-1.11m44.048-7.45-43.099 7.289-.051 1.11 43.099-7.296.058-1.11m43.516-7.347-42.573 7.201-.059 1.11 42.566-7.209.058-1.102m43.442-7.348-.445.073-42.055 7.114-.058 1.103 42.054-7.121.446-.073.066-1.096"/><path fill="url(#Y)" d="m26.996 489.56-53.273 8.648-.592.095.015 1.212.591-.095 53.266-8.655v-1.205m53.71-8.72-52.542 8.53v1.206l52.55-8.538v-1.198m52.981-8.604-51.856 8.421v1.198l51.856-8.428zm52.257-8.479-51.14 8.304v1.19l51.133-8.311v-1.183m51.593-8.378-50.461 8.195v1.183l50.446-8.202v-1.176m50.914-8.26-49.789 8.085v1.176l49.774-8.093zm50.205-8.158-49.139 7.975-.015 1.169 49.132-7.983zm49.577-8.049-48.496 7.873-.022 1.162 48.489-7.881.022-1.154m48.941-7.939-47.868 7.771-.022 1.154 47.861-7.778zm48.277-7.844-47.247 7.669-.029 1.147 47.247-7.677zm47.686-7.742-46.641 7.574-.029 1.139 46.641-7.581.036-1.132m47.065-7.639-46.05 7.478-.036 1.133 46.042-7.479.036-1.125m46.488-7.552-45.487 7.384-.037 1.125 45.48-7.392zm45.874-7.45-44.895 7.289-.044 1.118 44.895-7.297.044-1.117m45.319-7.348-44.333 7.202-.044 1.117 44.333-7.201.052-1.11m44.749-7.275-43.8 7.114-.051 1.11 43.8-7.114.051-1.102m44.194-7.187-43.245 7.019-.051 1.102 43.238-7.026zm43.661-7.085-42.711 6.939-.059 1.095 42.712-6.938.058-1.088m43.574-7.085-.446.073-42.193 6.851-.058 1.088 42.186-6.858.445-.073z"/><path fill="url(#Z)" d="m26.595 435.523-53.5 8.319-.591.095.014 1.22.592-.095 53.492-8.326v-1.213m53.93-8.384-52.762 8.202v1.212l52.77-8.209v-1.205m53.199-8.275-52.068 8.1v1.205l52.068-8.107zm52.469-8.158-51.344 7.983v1.197l51.344-7.99zm51.79-8.056-50.658 7.88v1.191l50.651-7.888v-1.183m51.103-7.947-49.986 7.772v1.183l49.972-7.779zm50.41-7.836-49.329 7.668-.014 1.176 49.321-7.676zm49.76-7.742-48.679 7.574-.022 1.168 48.679-7.574.022-1.161m49.117-7.647-48.044 7.472-.021 1.161 48.043-7.479.029-1.154m48.452-7.537-47.422 7.376-.029 1.154 47.422-7.383zm47.861-7.443-46.816 7.282-.029 1.147 46.808-7.289zm47.24-7.347-46.217 7.187-.037 1.139 46.21-7.194.037-1.132m46.655-7.253-45.647 7.1-.037 1.132 45.64-7.107zm46.035-7.157-45.056 7.004-.044 1.125 45.049-7.012.044-1.124m45.487-7.063-44.487 6.917-.043 1.124 44.486-6.924.051-1.117m44.91-6.99-43.953 6.837-.051 1.117 43.946-6.843.051-1.111m44.34-6.894-43.391 6.748-.051 1.11 43.391-6.755.059-1.103m43.807-6.807-42.858 6.668-.058 1.103 42.85-6.668.058-1.096m43.727-6.807-.445.073-42.332 6.581-.058 1.095 42.331-6.588.446-.073.066-1.088"/><path fill="url(#aa)" d="m26.192 381.017-53.726 7.982-.599.088.015 1.256.599-.087 53.718-7.991v-1.248m54.157-8.049-52.981 7.873v1.249l52.988-7.88v-1.235m53.419-7.946-52.28 7.771v1.234l52.28-7.778zm52.681-7.83-51.557 7.662v1.227l51.549-7.669v-1.22m52.002-7.727-50.862 7.559v1.22l50.855-7.566v-1.213m51.308-7.625-50.183 7.457v1.213l50.168-7.465zm50.607-7.515-49.519 7.362-.014 1.205 49.518-7.369.022-1.198m49.95-7.428-48.869 7.26-.022 1.198 48.862-7.268.022-1.19m49.306-7.326-48.225 7.165-.022 1.191 48.226-7.172.029-1.184m48.635-7.223-47.605 7.077-.03 1.184 47.598-7.078.029-1.176m48.044-7.15-46.992 6.982-.036 1.176 46.984-6.989.036-1.176m47.423-7.041-46.386 6.895-.036 1.168 46.378-6.902.044-1.168m46.816-6.946-45.808 6.807-.044 1.161 45.808-6.814.044-1.161m46.196-6.858-45.217 6.719-.044 1.161 45.209-6.726zm45.64-6.785-44.647 6.631-.051 1.154 44.64-6.639.051-1.146m45.078-6.698-44.107 6.551-.051 1.147 44.099-6.558zm44.486-6.61-43.537 6.471-.058 1.14 43.537-6.479zm43.954-6.529-42.997 6.391-.058 1.132 42.996-6.398zm43.872-6.522-.452.065-42.471 6.311-.066 1.125 42.471-6.318.453-.066z"/><path fill="url(#ab)" d="m25.782 326.079-53.952 7.64-.599.088.015 1.263.599-.088 53.944-7.646v-1.257m54.383-7.705-53.207 7.537v1.257l53.207-7.545zm53.653-7.596-52.499 7.435v1.249l52.499-7.442zm52.9-7.493-51.768 7.333v1.241l51.76-7.34v-1.234m52.207-7.399-51.067 7.231v1.234l51.06-7.238v-1.227m51.512-7.289-50.38 7.136v1.227l50.366-7.143zm50.804-7.201-49.716 7.04-.014 1.22 49.708-7.048zm50.147-7.099-49.059 6.945-.021 1.213 49.051-6.953.022-1.205m49.496-7.012-48.415 6.858-.022 1.205 48.408-6.865zm48.833-6.916-47.781 6.77-.029 1.198 47.78-6.778.037-1.19m48.204-6.829-47.16 6.682-.029 1.191 47.16-6.69.036-1.183m47.583-6.742-46.553 6.596-.037 1.183 46.554-6.603.044-1.176m46.969-6.653-45.976 6.515-.044 1.175 45.977-6.522zm46.371-6.566-45.377 6.427-.044 1.169 45.37-6.435zm45.794-6.486-44.801 6.347-.051 1.161 44.801-6.354zm45.224-6.405-44.26 6.266-.051 1.154 44.253-6.273zm44.64-6.325-43.691 6.186-.058 1.147 43.683-6.194.059-1.139m44.113-6.245-43.142 6.114-.059 1.139 43.143-6.121.066-1.132m44.004-6.237-.453.066-42.616 6.033-.066 1.132 42.609-6.04.453-.066.066-1.125"/><path fill="url(#ac)" d="m25.388 270.682-54.178 7.296-.606.081.014 1.249.606-.081 54.179-7.303v-1.242m54.602-7.355-53.434 7.194v1.242l53.434-7.201zm53.871-7.252-52.717 7.099v1.234l52.717-7.106zm53.112-7.15-51.98 6.996v1.227l51.973-7.004v-1.219m52.426-7.056-51.272 6.902v1.22l51.264-6.909v-1.213m51.717-6.96-50.585 6.807v1.212l50.571-6.814zm51.002-6.866-49.913 6.72-.015 1.205 49.906-6.727zm50.344-6.777-49.249 6.631-.022 1.198 49.241-6.639.022-1.19m49.687-6.69-48.599 6.544-.021 1.19 48.591-6.551zm49.007-6.596-47.963 6.457-.029 1.183 47.956-6.464.029-1.176m48.401-6.514-47.335 6.376-.029 1.176 47.335-6.384.036-1.168m47.759-6.435-46.729 6.288-.036 1.169 46.721-6.296zm47.152-6.347-46.144 6.216-.044 1.161 46.137-6.216.044-1.154m46.539-6.273-45.538 6.127-.044 1.154 45.531-6.135zm45.954-6.186-44.961 6.054-.051 1.147 44.954-6.062.051-1.139m45.392-6.106-44.413 5.981-.052 1.14 44.407-5.989zm44.793-6.033-43.836 5.901-.059 1.132 43.837-5.908.058-1.132m44.253-5.953-43.289 5.828-.058 1.132 43.289-5.835zm44.158-5.945-.453.058-42.756 5.756-.058 1.124 42.755-5.762.453-.059.066-1.117"/><path fill="url(#ad)" d="m24.977 214.814-54.412 6.938-.607.08.015 1.264.606-.08 54.405-6.946v-1.256m54.843-6.997-53.66 6.843v1.257l53.66-6.851zm54.098-6.902-52.937 6.748v1.249l52.937-6.763v-1.241m53.331-6.793-52.192 6.654v1.241l52.185-6.668v-1.234m52.637-6.705-51.483 6.566v1.234l51.468-6.573v-1.227m51.937-6.624-50.79 6.478v1.22l50.775-6.486zm51.198-6.53-50.103 6.391-.014 1.212 50.102-6.398.022-1.205m50.534-6.442-49.438 6.303-.022 1.206 49.431-6.311.022-1.198m49.877-6.361-48.782 6.223-.021 1.197 48.781-6.23.029-1.19m49.19-6.281-48.146 6.142-.029 1.191 48.138-6.15.03-1.183m48.576-6.194-47.517 6.062-.03 1.184 47.511-6.07zm47.941-6.113-46.897 5.982-.036 1.176 46.897-5.989.043-1.169m47.313-6.033-46.312 5.909-.044 1.169 46.305-5.916.044-1.162m46.707-5.959-45.699 5.828-.044 1.161 45.699-5.835.051-1.162m46.115-5.872-45.114 5.756-.051 1.153 45.114-5.762.051-1.154m45.538-5.806-44.566 5.682-.051 1.154 44.559-5.69zm44.947-5.734-43.99 5.609-.058 1.147 43.982-5.616.059-1.14m44.413-5.66-43.435 5.543-.058 1.14 43.435-5.544.065-1.132m44.297-5.66-.453.058-42.901 5.471-.066 1.132 42.894-5.478.453-.058.066-1.125"/><path fill="url(#ae)" d="m24.556 158.454-55.252 6.653.015 1.3 55.245-6.66v-1.293m55.076-6.632-53.886 6.486v1.292l53.886-6.492v-1.279m54.317-6.544-53.155 6.398v1.278l53.155-6.405zm53.558-6.449-52.411 6.311v1.27l52.404-6.317v-1.264m52.849-6.361-51.695 6.222v1.264l51.68-6.23zm52.126-6.281-50.994 6.142v1.256l50.979-6.149zm51.403-6.187-50.308 6.055-.014 1.249 50.3-6.062zm50.738-6.113-49.635 5.975-.022 1.241 49.628-5.981.022-1.235m50.074-6.025-48.971 5.894-.022 1.234 48.971-5.901.029-1.227m49.372-5.945-48.328 5.821-.029 1.227 48.321-5.829zm48.752-5.873-47.692 5.741-.037 1.22 47.685-5.748.037-1.212m48.124-5.792-47.072 5.667-.037 1.213 47.065-5.675zm47.495-5.719-46.48 5.595-.044 1.205 46.473-5.602.044-1.198m46.875-5.646-45.867 5.522-.044 1.198 45.859-5.53zm46.283-5.572-45.276 5.448-.051 1.19 45.276-5.455zm45.699-5.5-44.721 5.383-.051 1.183 44.721-5.39.058-1.176m45.1-5.434-44.136 5.317-.058 1.176 44.136-5.324zm44.552-5.368-43.588 5.251-.058 1.169 43.58-5.251.066-1.162m44.457-5.353-.453.058-43.04 5.186-.066 1.16 43.041-5.192.453-.058z"/><path fill="url(#af)" d="m24.133 101.641-54.887 6.215-.614.073.015 1.307.613-.073 54.88-6.222v-1.3m55.317-6.26-54.112 6.128v1.3l54.12-6.135v-1.293M134 89.203l-53.382 6.04v1.292L134 90.481v-1.286m53.777-6.076-52.623 5.96v1.285l52.623-5.967v-1.271m53.061-6.018-51.907 5.88v1.27l51.892-5.887v-1.263m52.353-5.924-51.199 5.8v1.263l51.184-5.806zm51.607-5.842-50.505 5.718-.014 1.257 50.497-5.726zm50.936-5.77-49.826 5.638-.022 1.249 49.826-5.646zm50.256-5.69-49.161 5.566-.022 1.241 49.161-5.572.029-1.235m49.57-5.609-48.511 5.492-.029 1.235 48.503-5.5zm48.934-5.544-47.875 5.42-.036 1.227 47.868-5.427.036-1.22m48.306-5.463-47.247 5.347-.036 1.22 47.239-5.354zm47.664-5.397-46.648 5.28-.044 1.213 46.648-5.288zm47.035-5.324-46.027 5.214-.044 1.206 46.027-5.215.052-1.198m46.443-5.266L688.5 26.428l-.051 1.198 45.436-5.15zm45.86-5.193-44.881 5.084-.051 1.19 44.874-5.09zm45.261-5.127-44.29 5.018-.058 1.183 44.289-5.025zm44.705-5.061-43.734 4.951-.058 1.176 43.726-4.959zM914.365.858l-.46.05-43.186 4.887-.066 1.169 43.186-4.894.461-.051z"/><path fill="url(#ag)" d="m23.721 44.343-55.12 5.843-.614.066.014 1.292 55.727-5.916v-1.285m55.544-5.887-54.346 5.755v1.286l54.346-5.77v-1.278m54.785-5.792L80.448 38.34v1.278l53.609-5.69zm53.996-5.726-52.842 5.602v1.27l52.842-5.608zm53.28-5.646-52.119 5.522v1.263l52.104-5.529v-1.256m52.565-5.565-51.404 5.448-.014 1.257 51.403-5.456zm51.811-5.492-50.709 5.375-.014 1.249 50.702-5.383.021-1.234m51.141-5.427-50.023 5.303-.022 1.234 50.015-5.31.022-1.227m50.461-5.346-49.351 5.23-.022 1.226L447.266.682l.029-1.22m49.753-5.273L448.354-.648l-.029 1.22 48.694-5.163.036-1.213m49.11-5.207-48.051 5.09-.036 1.213 48.05-5.098zm48.481-5.142-47.422 5.025-.037 1.205 47.415-5.032zm47.846-5.069-46.823 4.96-.044 1.197 46.816-4.966.044-1.19m47.211-4.997L643.5-21.324l-.044 1.19 46.196-4.9.051-1.184m46.605-4.944-45.604 4.835-.051 1.183 45.596-4.842.051-1.176m46.028-4.872-45.034 4.77-.052 1.175 45.035-4.776.058-1.169m45.414-4.813-44.442 4.711-.059 1.169 44.443-4.718zm44.859-4.754-43.88 4.652-.059 1.161 43.881-4.66.065-1.153m44.743-4.74-.461.05-43.332 4.595-.066 1.154 43.333-4.602.46-.05z"/><path fill="url(#ah)" d="m876.398-97.029-.964.095-.037.592-2.79 50.738-.065 1.154L869.766 5.9l-.065 1.169-2.754 49.95-.066 1.16-2.731 49.6-.066 1.132-2.71 49.219-.058 1.125-2.695 48.861-.066 1.132-2.673 48.474-.058 1.125-2.652 48.138-.065 1.096-2.63 47.78-.058 1.088-2.615 47.43-.065 1.096-2.593 47.064-.059 1.089-12.927 234.563-.058 1.037-2.484 45.071-.058 1.03-2.469 44.749-.058 1.037-2.447 44.421-.051 1.03-2.432 44.114-.029.496.905-.211.029-.497 2.433-44.114.058-1.03 4.974-90.192.058-1.03 2.491-45.071.051-1.03 12.949-234.534.059-1.096 2.592-47.05.066-1.102 2.615-47.423.058-1.088 2.637-47.773.066-1.103 2.651-48.124.066-1.125 2.673-48.474.065-1.132 2.695-48.847.059-1.124 2.717-49.22.066-1.132 2.731-49.584.066-1.161 2.761-49.95.058-1.168 2.783-50.344.065-1.154 2.798-50.731z"/><path fill="url(#ai)" d="m831.396-92.588-.979.095-.029.6-2.644 51.044-.066 1.161-2.621 50.651-.066 1.176-2.6 50.25-.066 1.168-10.401 200.696-.058 1.132-2.512 48.409-.051 1.103-2.491 48.05-.058 1.096-2.476 47.693-.059 1.11-2.454 47.32-.051 1.103-2.439 46.992-.059 1.073-2.417 46.648-.051 1.067-2.403 46.312-.051 1.074-2.389 45.954-.051 1.067-2.366 45.64-.059 1.044-2.344 45.312-.051 1.03-2.337 44.99-.052 1.045-2.315 44.647-.051 1.037-2.301 44.348-.029.497.921-.22.021-.496 2.301-44.341.058-1.037 2.316-44.64.051-1.044 2.337-44.983.051-1.03 2.359-45.312.051-1.037 2.367-45.64.058-1.067 2.381-45.947.059-1.073 2.402-46.305.059-1.067 2.417-46.648.059-1.066 2.439-46.992.059-1.096 2.454-47.32.059-1.102 2.475-47.693.058-1.096 2.491-48.043.058-1.103 2.513-48.401.058-1.132 10.416-200.674.058-1.169 2.614-50.242.059-1.176 2.629-50.644.059-1.168 2.651-51.03z"/><path fill="url(#aj)" d="m785.823-88.086-.979.095-2.519 51.958-.059 1.169-4.981 102.689-.058 1.168-2.432 50.184-.051 1.146-2.418 49.804-.058 1.132-2.396 49.431-.058 1.147-2.374 49.029-.059 1.139-2.359 48.686-.058 1.11-2.344 48.329-.052 1.095-2.329 47.963-.052 1.118-2.308 47.583-.051 1.11-2.293 47.255-.058 1.073-4.587 94.546-.051 1.081-4.521 93.157-.044 1.052-8.896 183.365-.029.497.913-.212.022-.504 8.91-183.344.051-1.044 4.521-93.15.059-1.081 4.586-94.531.059-1.081 2.293-47.247.051-1.103 2.316-47.583.051-1.11 2.329-47.963.059-1.096 2.344-48.321.052-1.11 2.366-48.679.058-1.139 2.381-49.029.059-1.147 2.395-49.416.059-1.14 2.417-49.796.059-1.139 2.432-50.176.058-1.176 4.989-102.675.058-1.168z"/><path fill="url(#ak)" d="m739.664-83.534-.994.095-.022.606-2.337 51.666-.051 1.176-2.315 51.272-.051 1.19-2.301 50.848-.051 1.183-13.672 302.889-.052 1.103-6.58 145.839-.051 1.088-2.133 47.167-.044 1.074-2.118 46.816-.044 1.088-2.096 46.459-.051 1.073-2.081 46.138-.052 1.051-2.066 45.794-.044 1.044-2.053 45.466-.051 1.059-2.037 45.114-.044 1.045-2.045 45.311.92-.211.022-.504 2.03-44.808.044-1.045 2.038-45.107.051-1.059 2.052-45.458.051-1.044 2.067-45.794.052-1.052 2.081-46.129.051-1.074 2.104-46.451.043-1.088 2.118-46.817.051-1.073 2.133-47.16.044-1.081 2.155-47.517.043-1.111 18.143-401.152.051-1.183 2.3-50.848.052-1.183 2.322-51.264.051-1.176 2.337-51.659z"/><path fill="url(#al)" d="m692.912-78.915-1.023.102-.022.607-2.169 51.987-.051 1.183-2.154 51.578-.044 1.198-2.14 51.155-.051 1.19-2.118 50.782-.044 1.162-2.104 50.388-.051 1.154-2.081 50.008-.051 1.161-2.075 49.606-.044 1.154-2.059 49.248-.044 1.125-2.038 48.876-.051 1.118-2.023 48.503-.044 1.125-2.008 48.131-.044 1.117-1.994 47.781-.051 1.095-1.979 47.43-.044 1.081-1.965 47.072-.044 1.095-1.95 46.707-.044 1.088-9.713 232.753-.022.504.949-.22.022-.504 3.82-91.441.051-1.066 5.858-140.223.043-1.088 1.958-46.7.043-1.095 1.965-47.072.051-1.081 1.98-47.423.043-1.088 2.002-47.78.043-1.118 2.009-48.116.051-1.125 2.03-48.503.044-1.118 2.045-48.875.044-1.118 2.06-49.248.044-1.147 2.074-49.606.051-1.154 2.089-50.008.051-1.147 2.103-50.388.051-1.154 2.119-50.782.051-1.19 4.345-103.916.051-1.184 2.17-51.98z"/><path fill="url(#am)" d="m645.524-74.242-1.008.102-.022.614-2.001 52.301-.051 1.198-1.987 51.892-.043 1.205-1.972 51.469-.044 1.19-11.723 306.468-5.689 148.615-.044 1.095-1.826 47.7-.036 1.081-1.812 47.342-.044 1.096-1.796 46.97-.044 1.088-1.782 46.634-.044 1.066-1.767 46.29-.044 1.059-1.76 45.948-.037 1.066-1.745 45.597-.044 1.059-1.731 45.282-.022.511.949-.226.015-.504 1.738-45.275.037-1.059 1.753-45.59.036-1.066 1.768-45.947.036-1.059 1.775-46.283.044-1.067 1.782-46.633.044-1.089 1.804-46.962.036-1.095 1.819-47.335.044-1.089 1.825-47.685.044-1.096 17.441-455.023.052-1.198 1.971-51.462.044-1.205 1.987-51.885.051-1.19 2.001-52.302z"/><path fill="url(#an)" d="m597.526-69.502-1.03.102-1.848 53.244-.043 1.205-1.812 52.213-.044 1.213-1.804 51.782-.036 1.198-1.789 51.403-.037 1.169-1.775 51.001-.044 1.161-1.752 50.607-.044 1.176-1.746 50.191-.036 1.168-1.739 49.826-.036 1.139-1.716 49.446-.044 1.125-1.702 49.073-.044 1.139-1.687 48.671-.037 1.132-1.679 48.329-.044 1.102-1.665 47.963-.037 1.089-1.658 47.605-.036 1.103-1.644 47.225-.036 1.095-4.923 141.771-.044 1.067-3.206 92.427-.022.511.957-.226.022-.511 8.187-235.236.044-1.095 1.643-47.218.037-1.103 1.658-47.598.036-1.096 1.673-47.955.036-1.103 1.688-48.321.036-1.125 1.694-48.671.044-1.139 1.702-49.066.044-1.125 1.723-49.446.037-1.132 1.738-49.818.037-1.168 1.753-50.191.036-1.168 1.76-50.6.044-1.161 1.775-50.994.044-1.176 1.789-51.389.037-1.205 1.804-51.775.044-1.213 1.818-52.206.044-1.198z"/><path fill="url(#ao)" d="m548.892-64.692-1.059.102-.015.621-3.331 106.699-.036 1.22-1.629 52.104-.036 1.212-12.811 410.713-.036 1.132-1.52 48.606-.029 1.11-1.504 48.233-.037 1.096-1.49 47.868-.036 1.11-1.483 47.488-.036 1.103-1.468 47.152-.037 1.074-1.453 46.801-.037 1.067-1.446 46.451-.037 1.073-1.438 46.086-.03 1.074-1.431 45.757-.015.519.986-.234.015-.511 1.431-45.757.037-1.074 1.439-46.079.029-1.081 1.453-46.436.037-1.074 1.461-46.787.036-1.073 1.475-47.153.03-1.095 1.49-47.488.029-1.111 1.497-47.86.037-1.103 1.504-48.226.037-1.103 14.395-460.4.044-1.204 1.629-52.098.036-1.22 1.643-52.527.037-1.212 1.658-52.951z"/><path fill="url(#ap)" d="m499.603-59.828-1.074.102-.014.629-1.468 53.287-.037 1.22-1.453 52.863-.037 1.227-1.446 52.426-.036 1.219-1.432 52.024-.036 1.191-1.425 51.622-.029 1.176-1.409 51.213-.037 1.19-1.402 50.797-.029 1.176-1.395 50.417-.03 1.154-1.38 50.023-.029 1.139-1.373 49.643-.03 1.154-1.358 49.241-.029 1.139-1.352 48.883-.029 1.111-1.336 48.51-.037 1.103-1.322 48.138-.029 1.118-1.322 47.758-.029 1.103-6.573 238.34.993-.234 6.595-238.31.029-1.11 1.322-47.745.03-1.117 1.336-48.131.029-1.103 1.337-48.503.036-1.117 1.352-48.876.029-1.14 1.358-49.234.037-1.154 1.373-49.635.029-1.139 1.388-50.023.029-1.147 1.395-50.409.029-1.184 1.41-50.782.029-1.19 1.417-51.213.036-1.176 1.425-51.615.036-1.183 1.439-52.024.029-1.22 1.454-52.418.029-1.22 1.468-52.863.029-1.213 1.475-53.287z"/><path fill="url(#aq)" d="m449.656-54.9-1.074.11-6.441 269.366-.029 1.183-1.235 51.526-.022 1.198-1.226 51.095-.03 1.192-1.213 50.716-.029 1.154-1.198 50.329-.029 1.147-1.198 49.928-.029 1.161-1.183 49.526-.029 1.147-1.176 49.16-.022 1.125-1.169 48.781-.029 1.11-1.154 48.416-.029 1.125-1.147 48.022-.029 1.109-1.139 47.679-.03 1.088-1.132 47.313-.022 1.081-1.124 46.955-.022 1.088-1.118 46.59-.029 1.081-1.103 46.254-.014.518.993-.233.015-.519 1.11-46.247.022-1.08 1.117-46.583.029-1.088 1.125-46.955.029-1.074 1.132-47.313.03-1.088 1.139-47.671.029-1.109 1.154-48.015.029-1.125 1.162-48.409.021-1.11 1.176-48.781.022-1.117 1.183-49.161.03-1.147 1.183-49.518.029-1.162 1.198-49.92.029-1.147 1.205-50.322.029-1.154 2.498-104.186z"/><path fill="url(#ar)" d="m399.039-49.902-1.103.11-.014.628-1.088 53.973-.022 1.235-1.089 53.528-.021 1.242-1.074 53.083-.022 1.234-1.066 52.681-.022 1.198-1.059 52.257-.022 1.191-1.052 51.841-.022 1.205-1.037 51.403-.022 1.198-1.037 51.023-.022 1.161-1.022 50.622-.022 1.154-1.016 50.227-.021 1.169-1.008 49.81-.022 1.162-4.017 198.863-.029 1.117-4.857 240.443-.008.526 1.023-.241.007-.518 5.88-289.824.022-1.132 3.03-149.424.03-1.154 1.008-49.811.022-1.161 1.022-50.22.022-1.154 1.022-50.622.03-1.161 1.029-51.016.03-1.19 1.044-51.403.022-1.205 1.052-51.834.022-1.191 1.059-52.25.029-1.198 1.066-52.674.022-1.234 1.081-53.075.022-1.242 1.088-53.521.022-1.234 1.096-53.96z"/><path fill="url(#as)" d="m347.708-44.837-1.117.11-.008.635-.898 54.317-.015 1.242-.891 53.872-.014 1.249-.884 53.418-.015 1.242-.876 53.002-.022 1.205-.862 52.587-.022 1.197-.854 52.156-.022 1.212-.847 51.724-.022 1.198-.84 51.338-.022 1.168-.84 50.921-.015 1.161-.832 50.527-.022 1.168-.818 50.111-.022 1.161-.818 49.738-.015 1.132-.818 49.35-.014 1.125-.804 48.964-.022 1.139-.796 48.562-.022 1.132-.788 48.211-.022 1.103-.782 47.839-.022 1.088-.781 47.481-.015 1.103-.774 47.094-.022 1.095-.767 46.758-.007.519 1.037-.241.007-.519.774-46.758.015-1.088.782-47.094.014-1.102.789-47.467.015-1.095.788-47.839.022-1.096.796-48.204.015-1.132.803-48.562.022-1.132.811-48.963.015-1.125.818-49.336.014-1.139.826-49.724.014-1.168.833-50.096.014-1.176.84-50.519.015-1.161.84-50.921.022-1.169.847-51.322.022-1.198.854-51.717.022-1.213.862-52.148.015-1.205.869-52.571.022-1.205.876-53.003.022-1.242.877-53.404.021-1.249.891-53.871.022-1.235.899-54.31z"/><path fill="url(#at)" d="m295.699-39.704-1.117.11-.008.642-1.387 110.131-11.686 926.094-.007.526 1.029-.241.008-.526 11.05-869.724.709-56.253.693-54.215.709-55.902z"/><path fill="url(#au)" d="m242.963-34.495-1.147.11-.007.642-.482 55.026-.007 1.256-.482 54.566-.007 1.27-.475 54.098-.008 1.257-.474 53.674-.008 1.22-.467 53.243-.007 1.213-.468 52.805-.007 1.227-.46 52.36-.007 1.219-.453 51.959-.015 1.183-.445 51.541-.015 1.176-.446 51.133-.007 1.183-.445 50.702-.015 1.176-.438 50.322-.007 1.147-.439 49.927-.007 1.14-.431 49.533-.015 1.147-.43 49.124-.008 1.139-.423 48.767-.015 1.11-.424 48.379-.007 1.103-.416 48.007-.015 1.117-.416 47.62-.007 1.103-.417 47.271v.53l1.059-.25.008-.53.416-47.262.007-1.11.424-47.613.007-1.11.424-48.007.007-1.095.431-48.38.007-1.11.431-48.759.015-1.139.431-49.117.007-1.147.438-49.533.015-1.132.438-49.92.007-1.147.446-50.315.007-1.176.453-50.702.007-1.183.453-51.125.007-1.176.461-51.535.007-1.183.46-51.951.008-1.219.467-52.353.007-1.219.467-52.806.008-1.212.475-53.229.007-1.227.475-53.667.007-1.256.482-54.091.007-1.264.482-54.565.015-1.249.482-55.018z"/><path fill="url(#av)" d="m189.478-29.215-1.168.11v.65l-.541 111.57v1.27l-.533 109.731v1.234l-.263 53.572v1.22l-.255 53.141-.008 1.234-.255 52.681-.008 1.227-.248 52.28-.007 1.183-.249 51.863-.007 1.183-.248 51.433v1.197l-.249 51.009-.007 1.183-.241 50.622-.007 1.154-.241 50.212-.007 1.147-.234 49.825-.007 1.154-.241 49.409v1.147l-.242 49.037v1.117l-.233 48.657-.008 1.11-.233 48.277-.008 1.125-.226 47.882-.007 1.111-.227 47.528-.007.54 1.081-.26v-.53l.234-47.527.007-1.11.234-47.875.007-1.125.234-48.27.007-1.11.234-48.649.007-1.118.241-49.036.007-1.147.241-49.402v-1.154l.249-49.818.007-1.139.241-50.213.007-1.154.249-50.614.007-1.183.248-51.001.008-1.191.248-51.439.007-1.176.256-51.856v-1.191l.255-52.272.008-1.22.255-52.673.271-54.369.007-1.219.263-53.565v-1.235l.27-54.01v-1.263l.818-167.268z"/><path fill="url(#aw)" d="m135.259-23.858-1.162.11-.701 857.826-.161 198.452 1.074-.25.176-197.304v-1.125l.043-49.313.008-1.154.131-153.778.051-50.921z"/><path fill="url(#ax)" d="m80.263-18.434-1.176.117v.657l.183 56.114.007 1.278.183 55.647v1.292l.182 55.15v1.286l.175 54.711.008 1.249.175 54.259.007 1.234.168 53.813.008 1.249.175 53.346v1.242l.175 52.929v1.205l.175 52.491v1.198l.168 52.068.008 1.205.168 51.629v1.198l.168 51.228v1.168l.168 50.812v1.161l.168 50.41v1.168l.16 49.979.008 1.161.16 49.614.008 1.125.153 49.219.007 1.117.161 48.825v1.14l.153 48.415.008 1.125.153 48.07.007.54 1.081-.26v-.54l-.153-48.058v-1.118l-.153-48.423-.008-1.132-.153-48.817v-1.125l-.16-49.205V844.6l-.161-49.599v-1.161l-.161-49.979v-1.168l-.16-50.403v-1.161l-.161-50.804-.008-1.169-.16-51.22v-1.198l-.168-51.622v-1.205l-.168-52.06v-1.198l-.168-52.491v-1.206l-.168-52.922-.008-1.234-.168-53.338v-1.249l-.175-53.806v-1.235l-.175-54.251v-1.249l-.175-54.711v-1.278l-.176-55.143-.007-1.293-.175-55.639V38.33l-.176-56.106z"/><path fill="url(#ay)" d="m24.512-12.926-1.22.117.007.665.417 56.486.007 1.293.41 56.004.014 1.3.41 55.515.007 1.293.4 55.069.015 1.256.402 54.61.007 1.241.395 54.157.014 1.256.395 53.682.007 1.249.394 53.258.008 1.212.387 52.82.007 1.205.387 52.389.008 1.213.387 51.943.007 1.205.38 51.535.007 1.176.373 51.118.007 1.168.372 50.702.015 1.176.365 50.278.008 1.169.372 49.898.007 1.14 1.096 149.568.014 1.13.35 48.33.008.54 1.118-.27-.008-.54-2.183-301.462-.015-1.176-.372-51.87-.373-51.111-.007-1.176-.373-51.527-.014-1.205-.373-51.936-.014-1.213-.38-52.382-.008-1.205-.38-52.812-.014-1.213-.387-53.251-.007-1.248-.387-53.675-.008-1.256-.394-54.149-.015-1.242-.394-54.602-.007-1.256-.402-55.062-.007-1.286-.402-55.507-.015-1.3-.401-56.005-.015-1.285-.409-56.486z"/></mask><g mask="url(#az)"><path fill="url(#aA)" d="M269 205C184 276.667 12.4 420.2 6 421l-79 41 7 69 730 6-18-580-96 104-163 175z"/></g><path stroke="url(#aB)" stroke-width="3" d="M469 60h82v73"/><path stroke="url(#aC)" stroke-width="3" d="M6 421c6.4-.8 178-144.333 263-216l118 31L550 61"/></g><defs><radialGradient id="b" cx="0" cy="0" r="1" gradientTransform="rotate(250.386 217.903 4.298)scale(291.94 285.475)" gradientUnits="userSpaceOnUse"><stop stop-color="#171717"/><stop offset=".875" stop-color="#fdfdfd"/></radialGradient><radialGradient id="c" cx="0" cy="0" r="1" gradientTransform="rotate(250.386 217.903 4.298)scale(291.94 285.475)" gradientUnits="userSpaceOnUse"><stop stop-color="#171717"/><stop offset=".875" stop-color="#fdfdfd"/></radialGradient><radialGradient id="d" cx="0" cy="0" r="1" gradientTransform="rotate(250.386 217.903 4.298)scale(291.94 285.475)" gradientUnits="userSpaceOnUse"><stop stop-color="#171717"/><stop offset=".875" stop-color="#fdfdfd"/></radialGradient><radialGradient id="e" cx="0" cy="0" r="1" gradientTransform="rotate(250.386 217.903 4.298)scale(291.94 285.475)" gradientUnits="userSpaceOnUse"><stop stop-color="#171717"/><stop offset=".875" stop-color="#fdfdfd"/></radialGradient><radialGradient id="f" cx="0" cy="0" r="1" gradientTransform="rotate(250.386 217.903 4.298)scale(291.94 285.475)" gradientUnits="userSpaceOnUse"><stop stop-color="#171717"/><stop offset=".875" stop-color="#fdfdfd"/></radialGradient><radialGradient id="g" cx="0" cy="0" r="1" gradientTransform="rotate(250.386 217.903 4.298)scale(291.94 285.475)" gradientUnits="userSpaceOnUse"><stop stop-color="#171717"/><stop offset=".875" stop-color="#fdfdfd"/></radialGradient><radialGradient id="h" cx="0" cy="0" r="1" gradientTransform="rotate(250.386 217.903 4.298)scale(291.94 285.475)" gradientUnits="userSpaceOnUse"><stop stop-color="#171717"/><stop offset=".875" stop-color="#fdfdfd"/></radialGradient><radialGradient id="i" cx="0" cy="0" r="1" gradientTransform="rotate(250.386 217.903 4.298)scale(291.94 285.475)" gradientUnits="userSpaceOnUse"><stop stop-color="#171717"/><stop offset=".875" stop-color="#fdfdfd"/></radialGradient><radialGradient id="j" cx="0" cy="0" r="1" gradientTransform="rotate(250.386 217.903 4.298)scale(291.94 285.475)" gradientUnits="userSpaceOnUse"><stop stop-color="#171717"/><stop offset=".875" stop-color="#fdfdfd"/></radialGradient><radialGradient id="k" cx="0" cy="0" r="1" gradientTransform="rotate(250.386 217.903 4.298)scale(291.94 285.475)" gradientUnits="userSpaceOnUse"><stop stop-color="#171717"/><stop offset=".875" stop-color="#fdfdfd"/></radialGradient><radialGradient id="l" cx="0" cy="0" r="1" gradientTransform="rotate(250.386 217.903 4.298)scale(291.94 285.475)" gradientUnits="userSpaceOnUse"><stop stop-color="#171717"/><stop offset=".875" stop-color="#fdfdfd"/></radialGradient><radialGradient id="m" cx="0" cy="0" r="1" gradientTransform="rotate(250.386 217.903 4.298)scale(291.94 285.475)" gradientUnits="userSpaceOnUse"><stop stop-color="#171717"/><stop offset=".875" stop-color="#fdfdfd"/></radialGradient><radialGradient id="n" cx="0" cy="0" r="1" gradientTransform="rotate(250.386 217.903 4.298)scale(291.94 285.475)" gradientUnits="userSpaceOnUse"><stop stop-color="#171717"/><stop offset=".875" stop-color="#fdfdfd"/></radialGradient><radialGradient id="o" cx="0" cy="0" r="1" gradientTransform="rotate(250.386 217.903 4.298)scale(291.94 285.475)" gradientUnits="userSpaceOnUse"><stop stop-color="#171717"/><stop offset=".875" stop-color="#fdfdfd"/></radialGradient><radialGradient id="p" cx="0" cy="0" r="1" gradientTransform="rotate(250.386 217.903 4.298)scale(291.94 285.475)" gradientUnits="userSpaceOnUse"><stop stop-color="#171717"/><stop offset=".875" stop-color="#fdfdfd"/></radialGradient><radialGradient id="q" cx="0" cy="0" r="1" gradientTransform="rotate(250.386 217.903 4.298)scale(291.94 285.475)" gradientUnits="userSpaceOnUse"><stop stop-color="#171717"/><stop offset=".875" stop-color="#fdfdfd"/></radialGradient><radialGradient id="r" cx="0" cy="0" r="1" gradientTransform="rotate(250.386 217.903 4.298)scale(291.94 285.475)" gradientUnits="userSpaceOnUse"><stop stop-color="#171717"/><stop offset=".875" stop-color="#fdfdfd"/></radialGradient><radialGradient id="s" cx="0" cy="0" r="1" gradientTransform="rotate(250.386 217.903 4.298)scale(291.94 285.475)" gradientUnits="userSpaceOnUse"><stop stop-color="#171717"/><stop offset=".875" stop-color="#fdfdfd"/></radialGradient><radialGradient id="t" cx="0" cy="0" r="1" gradientTransform="rotate(250.386 217.903 4.298)scale(291.94 285.475)" gradientUnits="userSpaceOnUse"><stop stop-color="#171717"/><stop offset=".875" stop-color="#fdfdfd"/></radialGradient><radialGradient id="u" cx="0" cy="0" r="1" gradientTransform="rotate(250.386 217.903 4.298)scale(291.94 285.475)" gradientUnits="userSpaceOnUse"><stop stop-color="#171717"/><stop offset=".875" stop-color="#fdfdfd"/></radialGradient><radialGradient id="v" cx="0" cy="0" r="1" gradientTransform="rotate(250.386 217.903 4.298)scale(291.94 285.475)" gradientUnits="userSpaceOnUse"><stop stop-color="#171717"/><stop offset=".875" stop-color="#fdfdfd"/></radialGradient><radialGradient id="w" cx="0" cy="0" r="1" gradientTransform="rotate(250.386 217.903 4.298)scale(291.94 285.475)" gradientUnits="userSpaceOnUse"><stop stop-color="#171717"/><stop offset=".875" stop-color="#fdfdfd"/></radialGradient><radialGradient id="x" cx="0" cy="0" r="1" gradientTransform="rotate(250.386 217.903 4.298)scale(291.94 285.475)" gradientUnits="userSpaceOnUse"><stop stop-color="#171717"/><stop offset=".875" stop-color="#fdfdfd"/></radialGradient><radialGradient id="y" cx="0" cy="0" r="1" gradientTransform="rotate(250.386 217.903 4.298)scale(291.94 285.475)" gradientUnits="userSpaceOnUse"><stop stop-color="#171717"/><stop offset=".875" stop-color="#fdfdfd"/></radialGradient><radialGradient id="z" cx="0" cy="0" r="1" gradientTransform="rotate(250.386 217.903 4.298)scale(291.94 285.475)" gradientUnits="userSpaceOnUse"><stop stop-color="#171717"/><stop offset=".875" stop-color="#fdfdfd"/></radialGradient><radialGradient id="A" cx="0" cy="0" r="1" gradientTransform="rotate(250.386 217.903 4.298)scale(291.94 285.475)" gradientUnits="userSpaceOnUse"><stop stop-color="#171717"/><stop offset=".875" stop-color="#fdfdfd"/></radialGradient><radialGradient id="B" cx="0" cy="0" r="1" gradientTransform="rotate(250.386 217.903 4.298)scale(291.94 285.475)" gradientUnits="userSpaceOnUse"><stop stop-color="#171717"/><stop offset=".875" stop-color="#fdfdfd"/></radialGradient><radialGradient id="C" cx="0" cy="0" r="1" gradientTransform="rotate(250.386 217.903 4.298)scale(291.94 285.475)" gradientUnits="userSpaceOnUse"><stop stop-color="#171717"/><stop offset=".875" stop-color="#fdfdfd"/></radialGradient><radialGradient id="D" cx="0" cy="0" r="1" gradientTransform="rotate(250.386 217.903 4.298)scale(291.94 285.475)" gradientUnits="userSpaceOnUse"><stop stop-color="#171717"/><stop offset=".875" stop-color="#fdfdfd"/></radialGradient><radialGradient id="E" cx="0" cy="0" r="1" gradientTransform="rotate(250.386 217.903 4.298)scale(291.94 285.475)" gradientUnits="userSpaceOnUse"><stop stop-color="#171717"/><stop offset=".875" stop-color="#fdfdfd"/></radialGradient><radialGradient id="F" cx="0" cy="0" r="1" gradientTransform="rotate(250.386 217.903 4.298)scale(291.94 285.475)" gradientUnits="userSpaceOnUse"><stop stop-color="#171717"/><stop offset=".875" stop-color="#fdfdfd"/></radialGradient><radialGradient id="G" cx="0" cy="0" r="1" gradientTransform="rotate(250.386 217.903 4.298)scale(291.94 285.475)" gradientUnits="userSpaceOnUse"><stop stop-color="#171717"/><stop offset=".875" stop-color="#fdfdfd"/></radialGradient><radialGradient id="H" cx="0" cy="0" r="1" gradientTransform="rotate(250.386 217.903 4.298)scale(291.94 285.475)" gradientUnits="userSpaceOnUse"><stop stop-color="#171717"/><stop offset=".875" stop-color="#fdfdfd"/></radialGradient><radialGradient id="I" cx="0" cy="0" r="1" gradientTransform="rotate(250.386 217.903 4.298)scale(291.94 285.475)" gradientUnits="userSpaceOnUse"><stop stop-color="#171717"/><stop offset=".875" stop-color="#fdfdfd"/></radialGradient><radialGradient id="J" cx="0" cy="0" r="1" gradientTransform="rotate(250.386 217.903 4.298)scale(291.94 285.475)" gradientUnits="userSpaceOnUse"><stop stop-color="#171717"/><stop offset=".875" stop-color="#fdfdfd"/></radialGradient><radialGradient id="K" cx="0" cy="0" r="1" gradientTransform="rotate(250.386 217.903 4.298)scale(291.94 285.475)" gradientUnits="userSpaceOnUse"><stop stop-color="#171717"/><stop offset=".875" stop-color="#fdfdfd"/></radialGradient><radialGradient id="L" cx="0" cy="0" r="1" gradientTransform="rotate(250.386 217.903 4.298)scale(291.94 285.475)" gradientUnits="userSpaceOnUse"><stop stop-color="#171717"/><stop offset=".875" stop-color="#fdfdfd"/></radialGradient><radialGradient id="M" cx="0" cy="0" r="1" gradientTransform="rotate(250.386 217.903 4.298)scale(291.94 285.475)" gradientUnits="userSpaceOnUse"><stop stop-color="#171717"/><stop offset=".875" stop-color="#fdfdfd"/></radialGradient><radialGradient id="N" cx="0" cy="0" r="1" gradientTransform="rotate(67.404 38.041 258.412)scale(374.769 366.47)" gradientUnits="userSpaceOnUse"><stop offset=".014" stop-color="#fcfcfc"/><stop offset=".817" stop-color="#171717"/></radialGradient><radialGradient id="O" cx="0" cy="0" r="1" gradientTransform="rotate(67.404 38.041 258.412)scale(374.769 366.47)" gradientUnits="userSpaceOnUse"><stop offset=".014" stop-color="#fcfcfc"/><stop offset=".817" stop-color="#171717"/></radialGradient><radialGradient id="P" cx="0" cy="0" r="1" gradientTransform="rotate(67.404 38.041 258.412)scale(374.769 366.47)" gradientUnits="userSpaceOnUse"><stop offset=".014" stop-color="#fcfcfc"/><stop offset=".817" stop-color="#171717"/></radialGradient><radialGradient id="Q" cx="0" cy="0" r="1" gradientTransform="rotate(67.404 38.041 258.412)scale(374.769 366.47)" gradientUnits="userSpaceOnUse"><stop offset=".014" stop-color="#fcfcfc"/><stop offset=".817" stop-color="#171717"/></radialGradient><radialGradient id="R" cx="0" cy="0" r="1" gradientTransform="rotate(67.404 38.041 258.412)scale(374.769 366.47)" gradientUnits="userSpaceOnUse"><stop offset=".014" stop-color="#fcfcfc"/><stop offset=".817" stop-color="#171717"/></radialGradient><radialGradient id="S" cx="0" cy="0" r="1" gradientTransform="rotate(67.404 38.041 258.412)scale(374.769 366.47)" gradientUnits="userSpaceOnUse"><stop offset=".014" stop-color="#fcfcfc"/><stop offset=".817" stop-color="#171717"/></radialGradient><radialGradient id="T" cx="0" cy="0" r="1" gradientTransform="rotate(67.404 38.041 258.412)scale(374.769 366.47)" gradientUnits="userSpaceOnUse"><stop offset=".014" stop-color="#fcfcfc"/><stop offset=".817" stop-color="#171717"/></radialGradient><radialGradient id="U" cx="0" cy="0" r="1" gradientTransform="rotate(67.404 38.041 258.412)scale(374.769 366.47)" gradientUnits="userSpaceOnUse"><stop offset=".014" stop-color="#fcfcfc"/><stop offset=".817" stop-color="#171717"/></radialGradient><radialGradient id="V" cx="0" cy="0" r="1" gradientTransform="rotate(67.404 38.041 258.412)scale(374.769 366.47)" gradientUnits="userSpaceOnUse"><stop offset=".014" stop-color="#fcfcfc"/><stop offset=".817" stop-color="#171717"/></radialGradient><radialGradient id="W" cx="0" cy="0" r="1" gradientTransform="rotate(67.404 38.041 258.412)scale(374.769 366.47)" gradientUnits="userSpaceOnUse"><stop offset=".014" stop-color="#fcfcfc"/><stop offset=".817" stop-color="#171717"/></radialGradient><radialGradient id="X" cx="0" cy="0" r="1" gradientTransform="rotate(67.404 38.041 258.412)scale(374.769 366.47)" gradientUnits="userSpaceOnUse"><stop offset=".014" stop-color="#fcfcfc"/><stop offset=".817" stop-color="#171717"/></radialGradient><radialGradient id="Y" cx="0" cy="0" r="1" gradientTransform="rotate(67.404 38.041 258.412)scale(374.769 366.47)" gradientUnits="userSpaceOnUse"><stop offset=".014" stop-color="#fcfcfc"/><stop offset=".817" stop-color="#171717"/></radialGradient><radialGradient id="Z" cx="0" cy="0" r="1" gradientTransform="rotate(67.404 38.041 258.412)scale(374.769 366.47)" gradientUnits="userSpaceOnUse"><stop offset=".014" stop-color="#fcfcfc"/><stop offset=".817" stop-color="#171717"/></radialGradient><radialGradient id="aa" cx="0" cy="0" r="1" gradientTransform="rotate(67.404 38.041 258.412)scale(374.769 366.47)" gradientUnits="userSpaceOnUse"><stop offset=".014" stop-color="#fcfcfc"/><stop offset=".817" stop-color="#171717"/></radialGradient><radialGradient id="ab" cx="0" cy="0" r="1" gradientTransform="rotate(67.404 38.041 258.412)scale(374.769 366.47)" gradientUnits="userSpaceOnUse"><stop offset=".014" stop-color="#fcfcfc"/><stop offset=".817" stop-color="#171717"/></radialGradient><radialGradient id="ac" cx="0" cy="0" r="1" gradientTransform="rotate(67.404 38.041 258.412)scale(374.769 366.47)" gradientUnits="userSpaceOnUse"><stop offset=".014" stop-color="#fcfcfc"/><stop offset=".817" stop-color="#171717"/></radialGradient><radialGradient id="ad" cx="0" cy="0" r="1" gradientTransform="rotate(67.404 38.041 258.412)scale(374.769 366.47)" gradientUnits="userSpaceOnUse"><stop offset=".014" stop-color="#fcfcfc"/><stop offset=".817" stop-color="#171717"/></radialGradient><radialGradient id="ae" cx="0" cy="0" r="1" gradientTransform="rotate(67.404 38.041 258.412)scale(374.769 366.47)" gradientUnits="userSpaceOnUse"><stop offset=".014" stop-color="#fcfcfc"/><stop offset=".817" stop-color="#171717"/></radialGradient><radialGradient id="af" cx="0" cy="0" r="1" gradientTransform="rotate(67.404 38.041 258.412)scale(374.769 366.47)" gradientUnits="userSpaceOnUse"><stop offset=".014" stop-color="#fcfcfc"/><stop offset=".817" stop-color="#171717"/></radialGradient><radialGradient id="ag" cx="0" cy="0" r="1" gradientTransform="rotate(67.404 38.041 258.412)scale(374.769 366.47)" gradientUnits="userSpaceOnUse"><stop offset=".014" stop-color="#fcfcfc"/><stop offset=".817" stop-color="#171717"/></radialGradient><radialGradient id="ah" cx="0" cy="0" r="1" gradientTransform="rotate(67.404 38.041 258.412)scale(374.769 366.47)" gradientUnits="userSpaceOnUse"><stop offset=".014" stop-color="#fcfcfc"/><stop offset=".817" stop-color="#171717"/></radialGradient><radialGradient id="ai" cx="0" cy="0" r="1" gradientTransform="rotate(67.404 38.041 258.412)scale(374.769 366.47)" gradientUnits="userSpaceOnUse"><stop offset=".014" stop-color="#fcfcfc"/><stop offset=".817" stop-color="#171717"/></radialGradient><radialGradient id="aj" cx="0" cy="0" r="1" gradientTransform="rotate(67.404 38.041 258.412)scale(374.769 366.47)" gradientUnits="userSpaceOnUse"><stop offset=".014" stop-color="#fcfcfc"/><stop offset=".817" stop-color="#171717"/></radialGradient><radialGradient id="ak" cx="0" cy="0" r="1" gradientTransform="rotate(67.404 38.041 258.412)scale(374.769 366.47)" gradientUnits="userSpaceOnUse"><stop offset=".014" stop-color="#fcfcfc"/><stop offset=".817" stop-color="#171717"/></radialGradient><radialGradient id="al" cx="0" cy="0" r="1" gradientTransform="rotate(67.404 38.041 258.412)scale(374.769 366.47)" gradientUnits="userSpaceOnUse"><stop offset=".014" stop-color="#fcfcfc"/><stop offset=".817" stop-color="#171717"/></radialGradient><radialGradient id="am" cx="0" cy="0" r="1" gradientTransform="rotate(67.404 38.041 258.412)scale(374.769 366.47)" gradientUnits="userSpaceOnUse"><stop offset=".014" stop-color="#fcfcfc"/><stop offset=".817" stop-color="#171717"/></radialGradient><radialGradient id="an" cx="0" cy="0" r="1" gradientTransform="rotate(67.404 38.041 258.412)scale(374.769 366.47)" gradientUnits="userSpaceOnUse"><stop offset=".014" stop-color="#fcfcfc"/><stop offset=".817" stop-color="#171717"/></radialGradient><radialGradient id="ao" cx="0" cy="0" r="1" gradientTransform="rotate(67.404 38.041 258.412)scale(374.769 366.47)" gradientUnits="userSpaceOnUse"><stop offset=".014" stop-color="#fcfcfc"/><stop offset=".817" stop-color="#171717"/></radialGradient><radialGradient id="ap" cx="0" cy="0" r="1" gradientTransform="rotate(67.404 38.041 258.412)scale(374.769 366.47)" gradientUnits="userSpaceOnUse"><stop offset=".014" stop-color="#fcfcfc"/><stop offset=".817" stop-color="#171717"/></radialGradient><radialGradient id="aq" cx="0" cy="0" r="1" gradientTransform="rotate(67.404 38.041 258.412)scale(374.769 366.47)" gradientUnits="userSpaceOnUse"><stop offset=".014" stop-color="#fcfcfc"/><stop offset=".817" stop-color="#171717"/></radialGradient><radialGradient id="ar" cx="0" cy="0" r="1" gradientTransform="rotate(67.404 38.041 258.412)scale(374.769 366.47)" gradientUnits="userSpaceOnUse"><stop offset=".014" stop-color="#fcfcfc"/><stop offset=".817" stop-color="#171717"/></radialGradient><radialGradient id="as" cx="0" cy="0" r="1" gradientTransform="rotate(67.404 38.041 258.412)scale(374.769 366.47)" gradientUnits="userSpaceOnUse"><stop offset=".014" stop-color="#fcfcfc"/><stop offset=".817" stop-color="#171717"/></radialGradient><radialGradient id="at" cx="0" cy="0" r="1" gradientTransform="rotate(67.404 38.041 258.412)scale(374.769 366.47)" gradientUnits="userSpaceOnUse"><stop offset=".014" stop-color="#fcfcfc"/><stop offset=".817" stop-color="#171717"/></radialGradient><radialGradient id="au" cx="0" cy="0" r="1" gradientTransform="rotate(67.404 38.041 258.412)scale(374.769 366.47)" gradientUnits="userSpaceOnUse"><stop offset=".014" stop-color="#fcfcfc"/><stop offset=".817" stop-color="#171717"/></radialGradient><radialGradient id="av" cx="0" cy="0" r="1" gradientTransform="rotate(67.404 38.041 258.412)scale(374.769 366.47)" gradientUnits="userSpaceOnUse"><stop offset=".014" stop-color="#fcfcfc"/><stop offset=".817" stop-color="#171717"/></radialGradient><radialGradient id="aw" cx="0" cy="0" r="1" gradientTransform="rotate(67.404 38.041 258.412)scale(374.769 366.47)" gradientUnits="userSpaceOnUse"><stop offset=".014" stop-color="#fcfcfc"/><stop offset=".817" stop-color="#171717"/></radialGradient><radialGradient id="ax" cx="0" cy="0" r="1" gradientTransform="rotate(67.404 38.041 258.412)scale(374.769 366.47)" gradientUnits="userSpaceOnUse"><stop offset=".014" stop-color="#fcfcfc"/><stop offset=".817" stop-color="#171717"/></radialGradient><radialGradient id="ay" cx="0" cy="0" r="1" gradientTransform="rotate(67.404 38.041 258.412)scale(374.769 366.47)" gradientUnits="userSpaceOnUse"><stop offset=".014" stop-color="#fcfcfc"/><stop offset=".817" stop-color="#171717"/></radialGradient><radialGradient id="aA" cx="0" cy="0" r="1" gradientTransform="rotate(79.751 49.563 274.638)scale(275.394 267.569)" gradientUnits="userSpaceOnUse"><stop stop-color="#171717"/><stop offset="1" stop-color="#fdfdfd"/></radialGradient><radialGradient id="aB" cx="0" cy="0" r="1" gradientTransform="rotate(115.301 249.515 207.78)scale(60.8358 68.3362)" gradientUnits="userSpaceOnUse"><stop stop-color="#171717"/><stop offset="1" stop-color="#fdfdfd"/></radialGradient><radialGradient id="aC" cx="0" cy="0" r="1" gradientTransform="rotate(133.659 218.946 129.794)scale(453.38 350.258)" gradientUnits="userSpaceOnUse"><stop stop-color="#171717"/><stop offset="1" stop-color="#fdfdfd"/></radialGradient><clipPath id="a"><path fill="#fff" d="M.5 0h669v425H.5z"/></clipPath></defs></svg>