<svg width="1278" height="273" viewBox="0 0 1278 273" fill="none" xmlns="http://www.w3.org/2000/svg">
<g clip-path="url(#clip0_7_662288)">
<rect width="1277" height="273" transform="translate(0.5)" fill="#FDFDFD"/>
<circle opacity="0.5" cx="13.5" cy="19.5" r="0.5" fill="#B2B2B2"/>
<circle opacity="0.5" cx="39.5" cy="19.5" r="0.5" fill="#B2B2B2"/>
<circle opacity="0.5" cx="65.5" cy="19.5" r="0.5" fill="#B2B2B2"/>
<circle opacity="0.5" cx="91.5" cy="19.5" r="0.5" fill="#B2B2B2"/>
<circle opacity="0.5" cx="117.5" cy="19.5" r="0.5" fill="#B2B2B2"/>
<circle opacity="0.5" cx="143.5" cy="19.5" r="0.5" fill="#B2B2B2"/>
<circle opacity="0.5" cx="169.5" cy="19.5" r="0.5" fill="#B2B2B2"/>
<circle opacity="0.5" cx="195.5" cy="19.5" r="0.5" fill="#B2B2B2"/>
<circle opacity="0.5" cx="221.5" cy="19.5" r="0.5" fill="#B2B2B2"/>
<circle opacity="0.5" cx="247.5" cy="19.5" r="0.5" fill="#B2B2B2"/>
<circle opacity="0.5" cx="273.5" cy="19.5" r="0.5" fill="#B2B2B2"/>
<circle opacity="0.5" cx="299.5" cy="19.5" r="0.5" fill="#B2B2B2"/>
<circle opacity="0.5" cx="325.5" cy="19.5" r="0.5" fill="#B2B2B2"/>
<circle opacity="0.5" cx="351.5" cy="19.5" r="0.5" fill="#B2B2B2"/>
<circle opacity="0.5" cx="377.5" cy="19.5" r="0.5" fill="#B2B2B2"/>
<circle opacity="0.5" cx="403.5" cy="19.5" r="0.5" fill="#B2B2B2"/>
<circle opacity="0.5" cx="429.5" cy="19.5" r="0.5" fill="#B2B2B2"/>
<circle opacity="0.5" cx="455.5" cy="19.5" r="0.5" fill="#B2B2B2"/>
<circle opacity="0.5" cx="481.5" cy="19.5" r="0.5" fill="#B2B2B2"/>
<circle opacity="0.5" cx="507.5" cy="19.5" r="0.5" fill="#B2B2B2"/>
<circle opacity="0.5" cx="533.5" cy="19.5" r="0.5" fill="#B2B2B2"/>
<circle opacity="0.5" cx="559.5" cy="19.5" r="0.5" fill="#B2B2B2"/>
<circle opacity="0.5" cx="585.5" cy="19.5" r="0.5" fill="#B2B2B2"/>
<circle opacity="0.5" cx="611.5" cy="19.5" r="0.5" fill="#B2B2B2"/>
<circle opacity="0.5" cx="637.5" cy="19.5" r="0.5" fill="#B2B2B2"/>
<circle opacity="0.5" cx="663.5" cy="19.5" r="0.5" fill="#B2B2B2"/>
<circle opacity="0.5" cx="689.5" cy="19.5" r="0.5" fill="#B2B2B2"/>
<circle opacity="0.5" cx="715.5" cy="19.5" r="0.5" fill="#B2B2B2"/>
<circle opacity="0.5" cx="741.5" cy="19.5" r="0.5" fill="#B2B2B2"/>
<circle opacity="0.5" cx="767.5" cy="19.5" r="0.5" fill="#B2B2B2"/>
<circle opacity="0.5" cx="793.5" cy="19.5" r="0.5" fill="#B2B2B2"/>
<circle opacity="0.5" cx="819.5" cy="19.5" r="0.5" fill="#B2B2B2"/>
<circle opacity="0.5" cx="845.5" cy="19.5" r="0.5" fill="#B2B2B2"/>
<circle opacity="0.5" cx="871.5" cy="19.5" r="0.5" fill="#B2B2B2"/>
<circle opacity="0.5" cx="897.5" cy="19.5" r="0.5" fill="#B2B2B2"/>
<circle opacity="0.5" cx="923.5" cy="19.5" r="0.5" fill="#B2B2B2"/>
<circle opacity="0.5" cx="949.5" cy="19.5" r="0.5" fill="#B2B2B2"/>
<circle opacity="0.5" cx="975.5" cy="19.5" r="0.5" fill="#B2B2B2"/>
<circle opacity="0.5" cx="1001.5" cy="19.5" r="0.5" fill="#B2B2B2"/>
<circle opacity="0.5" cx="1027.5" cy="19.5" r="0.5" fill="#B2B2B2"/>
<circle opacity="0.5" cx="1053.5" cy="19.5" r="0.5" fill="#B2B2B2"/>
<circle opacity="0.5" cx="1079.5" cy="19.5" r="0.5" fill="#B2B2B2"/>
<circle opacity="0.5" cx="1105.5" cy="19.5" r="0.5" fill="#B2B2B2"/>
<circle opacity="0.5" cx="1131.5" cy="19.5" r="0.5" fill="#B2B2B2"/>
<circle opacity="0.5" cx="1157.5" cy="19.5" r="0.5" fill="#B2B2B2"/>
<circle opacity="0.5" cx="1183.5" cy="19.5" r="0.5" fill="#B2B2B2"/>
<circle opacity="0.5" cx="1209.5" cy="19.5" r="0.5" fill="#B2B2B2"/>
<circle opacity="0.5" cx="1235.5" cy="19.5" r="0.5" fill="#B2B2B2"/>
<circle opacity="0.5" cx="1261.5" cy="19.5" r="0.5" fill="#B2B2B2"/>
<circle opacity="0.5" cx="13.5" cy="45.5" r="0.5" fill="#B2B2B2"/>
<circle opacity="0.5" cx="39.5" cy="45.5" r="0.5" fill="#B2B2B2"/>
<circle opacity="0.5" cx="65.5" cy="45.5" r="0.5" fill="#B2B2B2"/>
<circle opacity="0.5" cx="91.5" cy="45.5" r="0.5" fill="#B2B2B2"/>
<circle opacity="0.5" cx="117.5" cy="45.5" r="0.5" fill="#B2B2B2"/>
<circle opacity="0.5" cx="143.5" cy="45.5" r="0.5" fill="#B2B2B2"/>
<circle opacity="0.5" cx="169.5" cy="45.5" r="0.5" fill="#B2B2B2"/>
<circle opacity="0.5" cx="195.5" cy="45.5" r="0.5" fill="#B2B2B2"/>
<circle opacity="0.5" cx="221.5" cy="45.5" r="0.5" fill="#B2B2B2"/>
<circle opacity="0.5" cx="247.5" cy="45.5" r="0.5" fill="#B2B2B2"/>
<circle opacity="0.5" cx="273.5" cy="45.5" r="0.5" fill="#B2B2B2"/>
<circle opacity="0.5" cx="299.5" cy="45.5" r="0.5" fill="#B2B2B2"/>
<circle opacity="0.5" cx="325.5" cy="45.5" r="0.5" fill="#B2B2B2"/>
<circle opacity="0.5" cx="351.5" cy="45.5" r="0.5" fill="#B2B2B2"/>
<circle opacity="0.5" cx="377.5" cy="45.5" r="0.5" fill="#B2B2B2"/>
<circle opacity="0.5" cx="403.5" cy="45.5" r="0.5" fill="#B2B2B2"/>
<circle opacity="0.5" cx="429.5" cy="45.5" r="0.5" fill="#B2B2B2"/>
<circle opacity="0.5" cx="455.5" cy="45.5" r="0.5" fill="#B2B2B2"/>
<circle opacity="0.5" cx="481.5" cy="45.5" r="0.5" fill="#B2B2B2"/>
<circle opacity="0.5" cx="507.5" cy="45.5" r="0.5" fill="#B2B2B2"/>
<circle opacity="0.5" cx="533.5" cy="45.5" r="0.5" fill="#B2B2B2"/>
<circle opacity="0.5" cx="559.5" cy="45.5" r="0.5" fill="#B2B2B2"/>
<circle opacity="0.5" cx="585.5" cy="45.5" r="0.5" fill="#B2B2B2"/>
<circle opacity="0.5" cx="611.5" cy="45.5" r="0.5" fill="#B2B2B2"/>
<circle opacity="0.5" cx="637.5" cy="45.5" r="0.5" fill="#B2B2B2"/>
<circle opacity="0.5" cx="663.5" cy="45.5" r="0.5" fill="#B2B2B2"/>
<circle opacity="0.5" cx="689.5" cy="45.5" r="0.5" fill="#B2B2B2"/>
<circle opacity="0.5" cx="715.5" cy="45.5" r="0.5" fill="#B2B2B2"/>
<circle opacity="0.5" cx="741.5" cy="45.5" r="0.5" fill="#B2B2B2"/>
<circle opacity="0.5" cx="767.5" cy="45.5" r="0.5" fill="#B2B2B2"/>
<circle opacity="0.5" cx="793.5" cy="45.5" r="0.5" fill="#B2B2B2"/>
<circle opacity="0.5" cx="819.5" cy="45.5" r="0.5" fill="#B2B2B2"/>
<circle opacity="0.5" cx="845.5" cy="45.5" r="0.5" fill="#B2B2B2"/>
<circle opacity="0.5" cx="871.5" cy="45.5" r="0.5" fill="#B2B2B2"/>
<circle opacity="0.5" cx="897.5" cy="45.5" r="0.5" fill="#B2B2B2"/>
<circle opacity="0.5" cx="923.5" cy="45.5" r="0.5" fill="#B2B2B2"/>
<circle opacity="0.5" cx="949.5" cy="45.5" r="0.5" fill="#B2B2B2"/>
<circle opacity="0.5" cx="975.5" cy="45.5" r="0.5" fill="#B2B2B2"/>
<circle opacity="0.5" cx="1001.5" cy="45.5" r="0.5" fill="#B2B2B2"/>
<circle opacity="0.5" cx="1027.5" cy="45.5" r="0.5" fill="#B2B2B2"/>
<circle opacity="0.5" cx="1053.5" cy="45.5" r="0.5" fill="#B2B2B2"/>
<circle opacity="0.5" cx="1079.5" cy="45.5" r="0.5" fill="#B2B2B2"/>
<circle opacity="0.5" cx="1105.5" cy="45.5" r="0.5" fill="#B2B2B2"/>
<circle opacity="0.5" cx="1131.5" cy="45.5" r="0.5" fill="#B2B2B2"/>
<circle opacity="0.5" cx="1157.5" cy="45.5" r="0.5" fill="#B2B2B2"/>
<circle opacity="0.5" cx="1183.5" cy="45.5" r="0.5" fill="#B2B2B2"/>
<circle opacity="0.5" cx="1209.5" cy="45.5" r="0.5" fill="#B2B2B2"/>
<circle opacity="0.5" cx="1235.5" cy="45.5" r="0.5" fill="#B2B2B2"/>
<circle opacity="0.5" cx="1261.5" cy="45.5" r="0.5" fill="#B2B2B2"/>
<circle opacity="0.5" cx="13.5" cy="71.5" r="0.5" fill="#B2B2B2"/>
<circle opacity="0.5" cx="39.5" cy="71.5" r="0.5" fill="#B2B2B2"/>
<circle opacity="0.5" cx="65.5" cy="71.5" r="0.5" fill="#B2B2B2"/>
<circle opacity="0.5" cx="91.5" cy="71.5" r="0.5" fill="#B2B2B2"/>
<circle opacity="0.5" cx="117.5" cy="71.5" r="0.5" fill="#B2B2B2"/>
<circle opacity="0.5" cx="143.5" cy="71.5" r="0.5" fill="#B2B2B2"/>
<circle opacity="0.5" cx="169.5" cy="71.5" r="0.5" fill="#B2B2B2"/>
<circle opacity="0.5" cx="195.5" cy="71.5" r="0.5" fill="#B2B2B2"/>
<circle opacity="0.5" cx="221.5" cy="71.5" r="0.5" fill="#B2B2B2"/>
<circle opacity="0.5" cx="247.5" cy="71.5" r="0.5" fill="#B2B2B2"/>
<circle opacity="0.5" cx="273.5" cy="71.5" r="0.5" fill="#B2B2B2"/>
<circle opacity="0.5" cx="299.5" cy="71.5" r="0.5" fill="#B2B2B2"/>
<circle opacity="0.5" cx="325.5" cy="71.5" r="0.5" fill="#B2B2B2"/>
<circle opacity="0.5" cx="351.5" cy="71.5" r="0.5" fill="#B2B2B2"/>
<circle opacity="0.5" cx="377.5" cy="71.5" r="0.5" fill="#B2B2B2"/>
<circle opacity="0.5" cx="403.5" cy="71.5" r="0.5" fill="#B2B2B2"/>
<circle opacity="0.5" cx="429.5" cy="71.5" r="0.5" fill="#B2B2B2"/>
<circle opacity="0.5" cx="455.5" cy="71.5" r="0.5" fill="#B2B2B2"/>
<circle opacity="0.5" cx="481.5" cy="71.5" r="0.5" fill="#B2B2B2"/>
<circle opacity="0.5" cx="507.5" cy="71.5" r="0.5" fill="#B2B2B2"/>
<circle opacity="0.5" cx="533.5" cy="71.5" r="0.5" fill="#B2B2B2"/>
<circle opacity="0.5" cx="559.5" cy="71.5" r="0.5" fill="#B2B2B2"/>
<circle opacity="0.5" cx="585.5" cy="71.5" r="0.5" fill="#B2B2B2"/>
<circle opacity="0.5" cx="611.5" cy="71.5" r="0.5" fill="#B2B2B2"/>
<circle opacity="0.5" cx="637.5" cy="71.5" r="0.5" fill="#B2B2B2"/>
<circle opacity="0.5" cx="663.5" cy="71.5" r="0.5" fill="#B2B2B2"/>
<circle opacity="0.5" cx="689.5" cy="71.5" r="0.5" fill="#B2B2B2"/>
<circle opacity="0.5" cx="715.5" cy="71.5" r="0.5" fill="#B2B2B2"/>
<circle opacity="0.5" cx="741.5" cy="71.5" r="0.5" fill="#B2B2B2"/>
<circle opacity="0.5" cx="767.5" cy="71.5" r="0.5" fill="#B2B2B2"/>
<circle opacity="0.5" cx="793.5" cy="71.5" r="0.5" fill="#B2B2B2"/>
<circle opacity="0.5" cx="819.5" cy="71.5" r="0.5" fill="#B2B2B2"/>
<circle opacity="0.5" cx="845.5" cy="71.5" r="0.5" fill="#B2B2B2"/>
<circle opacity="0.5" cx="871.5" cy="71.5" r="0.5" fill="#B2B2B2"/>
<circle opacity="0.5" cx="897.5" cy="71.5" r="0.5" fill="#B2B2B2"/>
<circle opacity="0.5" cx="923.5" cy="71.5" r="0.5" fill="#B2B2B2"/>
<circle opacity="0.5" cx="949.5" cy="71.5" r="0.5" fill="#B2B2B2"/>
<circle opacity="0.5" cx="975.5" cy="71.5" r="0.5" fill="#B2B2B2"/>
<circle opacity="0.5" cx="1001.5" cy="71.5" r="0.5" fill="#B2B2B2"/>
<circle opacity="0.5" cx="1027.5" cy="71.5" r="0.5" fill="#B2B2B2"/>
<circle opacity="0.5" cx="1053.5" cy="71.5" r="0.5" fill="#B2B2B2"/>
<circle opacity="0.5" cx="1079.5" cy="71.5" r="0.5" fill="#B2B2B2"/>
<circle opacity="0.5" cx="1105.5" cy="71.5" r="0.5" fill="#B2B2B2"/>
<circle opacity="0.5" cx="1131.5" cy="71.5" r="0.5" fill="#B2B2B2"/>
<circle opacity="0.5" cx="1157.5" cy="71.5" r="0.5" fill="#B2B2B2"/>
<circle opacity="0.5" cx="1183.5" cy="71.5" r="0.5" fill="#B2B2B2"/>
<circle opacity="0.5" cx="1209.5" cy="71.5" r="0.5" fill="#B2B2B2"/>
<circle opacity="0.5" cx="1235.5" cy="71.5" r="0.5" fill="#B2B2B2"/>
<circle opacity="0.5" cx="1261.5" cy="71.5" r="0.5" fill="#B2B2B2"/>
<circle opacity="0.5" cx="13.5" cy="97.5" r="0.5" fill="#B2B2B2"/>
<circle opacity="0.5" cx="39.5" cy="97.5" r="0.5" fill="#B2B2B2"/>
<circle opacity="0.5" cx="65.5" cy="97.5" r="0.5" fill="#B2B2B2"/>
<circle opacity="0.5" cx="91.5" cy="97.5" r="0.5" fill="#B2B2B2"/>
<circle opacity="0.5" cx="117.5" cy="97.5" r="0.5" fill="#B2B2B2"/>
<circle opacity="0.5" cx="143.5" cy="97.5" r="0.5" fill="#B2B2B2"/>
<circle opacity="0.5" cx="169.5" cy="97.5" r="0.5" fill="#B2B2B2"/>
<circle opacity="0.5" cx="195.5" cy="97.5" r="0.5" fill="#B2B2B2"/>
<circle opacity="0.5" cx="221.5" cy="97.5" r="0.5" fill="#B2B2B2"/>
<circle opacity="0.5" cx="247.5" cy="97.5" r="0.5" fill="#B2B2B2"/>
<circle opacity="0.5" cx="273.5" cy="97.5" r="0.5" fill="#B2B2B2"/>
<circle opacity="0.5" cx="299.5" cy="97.5" r="0.5" fill="#B2B2B2"/>
<circle opacity="0.5" cx="325.5" cy="97.5" r="0.5" fill="#B2B2B2"/>
<circle opacity="0.5" cx="351.5" cy="97.5" r="0.5" fill="#B2B2B2"/>
<circle opacity="0.5" cx="377.5" cy="97.5" r="0.5" fill="#B2B2B2"/>
<circle opacity="0.5" cx="403.5" cy="97.5" r="0.5" fill="#B2B2B2"/>
<circle opacity="0.5" cx="429.5" cy="97.5" r="0.5" fill="#B2B2B2"/>
<circle opacity="0.5" cx="455.5" cy="97.5" r="0.5" fill="#B2B2B2"/>
<circle opacity="0.5" cx="481.5" cy="97.5" r="0.5" fill="#B2B2B2"/>
<circle opacity="0.5" cx="507.5" cy="97.5" r="0.5" fill="#B2B2B2"/>
<circle opacity="0.5" cx="533.5" cy="97.5" r="0.5" fill="#B2B2B2"/>
<circle opacity="0.5" cx="559.5" cy="97.5" r="0.5" fill="#B2B2B2"/>
<circle opacity="0.5" cx="585.5" cy="97.5" r="0.5" fill="#B2B2B2"/>
<circle opacity="0.5" cx="611.5" cy="97.5" r="0.5" fill="#B2B2B2"/>
<circle opacity="0.5" cx="637.5" cy="97.5" r="0.5" fill="#B2B2B2"/>
<circle opacity="0.5" cx="663.5" cy="97.5" r="0.5" fill="#B2B2B2"/>
<circle opacity="0.5" cx="689.5" cy="97.5" r="0.5" fill="#B2B2B2"/>
<circle opacity="0.5" cx="715.5" cy="97.5" r="0.5" fill="#B2B2B2"/>
<circle opacity="0.5" cx="741.5" cy="97.5" r="0.5" fill="#B2B2B2"/>
<circle opacity="0.5" cx="767.5" cy="97.5" r="0.5" fill="#B2B2B2"/>
<circle opacity="0.5" cx="793.5" cy="97.5" r="0.5" fill="#B2B2B2"/>
<circle opacity="0.5" cx="819.5" cy="97.5" r="0.5" fill="#B2B2B2"/>
<circle opacity="0.5" cx="845.5" cy="97.5" r="0.5" fill="#B2B2B2"/>
<circle opacity="0.5" cx="871.5" cy="97.5" r="0.5" fill="#B2B2B2"/>
<circle opacity="0.5" cx="897.5" cy="97.5" r="0.5" fill="#B2B2B2"/>
<circle opacity="0.5" cx="923.5" cy="97.5" r="0.5" fill="#B2B2B2"/>
<circle opacity="0.5" cx="949.5" cy="97.5" r="0.5" fill="#B2B2B2"/>
<circle opacity="0.5" cx="975.5" cy="97.5" r="0.5" fill="#B2B2B2"/>
<circle opacity="0.5" cx="1001.5" cy="97.5" r="0.5" fill="#B2B2B2"/>
<circle opacity="0.5" cx="1027.5" cy="97.5" r="0.5" fill="#B2B2B2"/>
<circle opacity="0.5" cx="1053.5" cy="97.5" r="0.5" fill="#B2B2B2"/>
<circle opacity="0.5" cx="1079.5" cy="97.5" r="0.5" fill="#B2B2B2"/>
<circle opacity="0.5" cx="1105.5" cy="97.5" r="0.5" fill="#B2B2B2"/>
<circle opacity="0.5" cx="1131.5" cy="97.5" r="0.5" fill="#B2B2B2"/>
<circle opacity="0.5" cx="1157.5" cy="97.5" r="0.5" fill="#B2B2B2"/>
<circle opacity="0.5" cx="1183.5" cy="97.5" r="0.5" fill="#B2B2B2"/>
<circle opacity="0.5" cx="1209.5" cy="97.5" r="0.5" fill="#B2B2B2"/>
<circle opacity="0.5" cx="1235.5" cy="97.5" r="0.5" fill="#B2B2B2"/>
<circle opacity="0.5" cx="1261.5" cy="97.5" r="0.5" fill="#B2B2B2"/>
<circle opacity="0.5" cx="13.5" cy="123.5" r="0.5" fill="#B2B2B2"/>
<circle opacity="0.5" cx="39.5" cy="123.5" r="0.5" fill="#B2B2B2"/>
<circle opacity="0.5" cx="65.5" cy="123.5" r="0.5" fill="#B2B2B2"/>
<circle opacity="0.5" cx="91.5" cy="123.5" r="0.5" fill="#B2B2B2"/>
<circle opacity="0.5" cx="117.5" cy="123.5" r="0.5" fill="#B2B2B2"/>
<circle opacity="0.5" cx="143.5" cy="123.5" r="0.5" fill="#B2B2B2"/>
<circle opacity="0.5" cx="169.5" cy="123.5" r="0.5" fill="#B2B2B2"/>
<circle opacity="0.5" cx="195.5" cy="123.5" r="0.5" fill="#B2B2B2"/>
<circle opacity="0.5" cx="221.5" cy="123.5" r="0.5" fill="#B2B2B2"/>
<circle opacity="0.5" cx="247.5" cy="123.5" r="0.5" fill="#B2B2B2"/>
<circle opacity="0.5" cx="273.5" cy="123.5" r="0.5" fill="#B2B2B2"/>
<circle opacity="0.5" cx="299.5" cy="123.5" r="0.5" fill="#B2B2B2"/>
<circle opacity="0.5" cx="325.5" cy="123.5" r="0.5" fill="#B2B2B2"/>
<circle opacity="0.5" cx="351.5" cy="123.5" r="0.5" fill="#B2B2B2"/>
<circle opacity="0.5" cx="377.5" cy="123.5" r="0.5" fill="#B2B2B2"/>
<circle opacity="0.5" cx="403.5" cy="123.5" r="0.5" fill="#B2B2B2"/>
<circle opacity="0.5" cx="429.5" cy="123.5" r="0.5" fill="#B2B2B2"/>
<circle opacity="0.5" cx="455.5" cy="123.5" r="0.5" fill="#B2B2B2"/>
<circle opacity="0.5" cx="481.5" cy="123.5" r="0.5" fill="#B2B2B2"/>
<circle opacity="0.5" cx="507.5" cy="123.5" r="0.5" fill="#B2B2B2"/>
<circle opacity="0.5" cx="533.5" cy="123.5" r="0.5" fill="#B2B2B2"/>
<circle opacity="0.5" cx="559.5" cy="123.5" r="0.5" fill="#B2B2B2"/>
<circle opacity="0.5" cx="585.5" cy="123.5" r="0.5" fill="#B2B2B2"/>
<circle opacity="0.5" cx="611.5" cy="123.5" r="0.5" fill="#B2B2B2"/>
<circle opacity="0.5" cx="637.5" cy="123.5" r="0.5" fill="#B2B2B2"/>
<circle opacity="0.5" cx="663.5" cy="123.5" r="0.5" fill="#B2B2B2"/>
<circle opacity="0.5" cx="689.5" cy="123.5" r="0.5" fill="#B2B2B2"/>
<circle opacity="0.5" cx="715.5" cy="123.5" r="0.5" fill="#B2B2B2"/>
<circle opacity="0.5" cx="741.5" cy="123.5" r="0.5" fill="#B2B2B2"/>
<circle opacity="0.5" cx="767.5" cy="123.5" r="0.5" fill="#B2B2B2"/>
<circle opacity="0.5" cx="793.5" cy="123.5" r="0.5" fill="#B2B2B2"/>
<circle opacity="0.5" cx="819.5" cy="123.5" r="0.5" fill="#B2B2B2"/>
<circle opacity="0.5" cx="845.5" cy="123.5" r="0.5" fill="#B2B2B2"/>
<circle opacity="0.5" cx="871.5" cy="123.5" r="0.5" fill="#B2B2B2"/>
<circle opacity="0.5" cx="897.5" cy="123.5" r="0.5" fill="#B2B2B2"/>
<circle opacity="0.5" cx="923.5" cy="123.5" r="0.5" fill="#B2B2B2"/>
<circle opacity="0.5" cx="949.5" cy="123.5" r="0.5" fill="#B2B2B2"/>
<circle opacity="0.5" cx="975.5" cy="123.5" r="0.5" fill="#B2B2B2"/>
<circle opacity="0.5" cx="1001.5" cy="123.5" r="0.5" fill="#B2B2B2"/>
<circle opacity="0.5" cx="1027.5" cy="123.5" r="0.5" fill="#B2B2B2"/>
<circle opacity="0.5" cx="1053.5" cy="123.5" r="0.5" fill="#B2B2B2"/>
<circle opacity="0.5" cx="1079.5" cy="123.5" r="0.5" fill="#B2B2B2"/>
<circle opacity="0.5" cx="1105.5" cy="123.5" r="0.5" fill="#B2B2B2"/>
<circle opacity="0.5" cx="1131.5" cy="123.5" r="0.5" fill="#B2B2B2"/>
<circle opacity="0.5" cx="1157.5" cy="123.5" r="0.5" fill="#B2B2B2"/>
<circle opacity="0.5" cx="1183.5" cy="123.5" r="0.5" fill="#B2B2B2"/>
<circle opacity="0.5" cx="1209.5" cy="123.5" r="0.5" fill="#B2B2B2"/>
<circle opacity="0.5" cx="1235.5" cy="123.5" r="0.5" fill="#B2B2B2"/>
<circle opacity="0.5" cx="1261.5" cy="123.5" r="0.5" fill="#B2B2B2"/>
<circle opacity="0.5" cx="13.5" cy="149.5" r="0.5" fill="#B2B2B2"/>
<circle opacity="0.5" cx="39.5" cy="149.5" r="0.5" fill="#B2B2B2"/>
<circle opacity="0.5" cx="65.5" cy="149.5" r="0.5" fill="#B2B2B2"/>
<circle opacity="0.5" cx="91.5" cy="149.5" r="0.5" fill="#B2B2B2"/>
<circle opacity="0.5" cx="117.5" cy="149.5" r="0.5" fill="#B2B2B2"/>
<circle opacity="0.5" cx="143.5" cy="149.5" r="0.5" fill="#B2B2B2"/>
<circle opacity="0.5" cx="169.5" cy="149.5" r="0.5" fill="#B2B2B2"/>
<circle opacity="0.5" cx="195.5" cy="149.5" r="0.5" fill="#B2B2B2"/>
<circle opacity="0.5" cx="221.5" cy="149.5" r="0.5" fill="#B2B2B2"/>
<circle opacity="0.5" cx="247.5" cy="149.5" r="0.5" fill="#B2B2B2"/>
<circle opacity="0.5" cx="273.5" cy="149.5" r="0.5" fill="#B2B2B2"/>
<circle opacity="0.5" cx="299.5" cy="149.5" r="0.5" fill="#B2B2B2"/>
<circle opacity="0.5" cx="325.5" cy="149.5" r="0.5" fill="#B2B2B2"/>
<circle opacity="0.5" cx="351.5" cy="149.5" r="0.5" fill="#B2B2B2"/>
<circle opacity="0.5" cx="377.5" cy="149.5" r="0.5" fill="#B2B2B2"/>
<circle opacity="0.5" cx="403.5" cy="149.5" r="0.5" fill="#B2B2B2"/>
<circle opacity="0.5" cx="429.5" cy="149.5" r="0.5" fill="#B2B2B2"/>
<circle opacity="0.5" cx="455.5" cy="149.5" r="0.5" fill="#B2B2B2"/>
<circle opacity="0.5" cx="481.5" cy="149.5" r="0.5" fill="#B2B2B2"/>
<circle opacity="0.5" cx="507.5" cy="149.5" r="0.5" fill="#B2B2B2"/>
<circle opacity="0.5" cx="533.5" cy="149.5" r="0.5" fill="#B2B2B2"/>
<circle opacity="0.5" cx="559.5" cy="149.5" r="0.5" fill="#B2B2B2"/>
<circle opacity="0.5" cx="585.5" cy="149.5" r="0.5" fill="#B2B2B2"/>
<circle opacity="0.5" cx="611.5" cy="149.5" r="0.5" fill="#B2B2B2"/>
<circle opacity="0.5" cx="637.5" cy="149.5" r="0.5" fill="#B2B2B2"/>
<circle opacity="0.5" cx="663.5" cy="149.5" r="0.5" fill="#B2B2B2"/>
<circle opacity="0.5" cx="689.5" cy="149.5" r="0.5" fill="#B2B2B2"/>
<circle opacity="0.5" cx="715.5" cy="149.5" r="0.5" fill="#B2B2B2"/>
<circle opacity="0.5" cx="741.5" cy="149.5" r="0.5" fill="#B2B2B2"/>
<circle opacity="0.5" cx="767.5" cy="149.5" r="0.5" fill="#B2B2B2"/>
<circle opacity="0.5" cx="793.5" cy="149.5" r="0.5" fill="#B2B2B2"/>
<circle opacity="0.5" cx="819.5" cy="149.5" r="0.5" fill="#B2B2B2"/>
<circle opacity="0.5" cx="845.5" cy="149.5" r="0.5" fill="#B2B2B2"/>
<circle opacity="0.5" cx="871.5" cy="149.5" r="0.5" fill="#B2B2B2"/>
<circle opacity="0.5" cx="897.5" cy="149.5" r="0.5" fill="#B2B2B2"/>
<circle opacity="0.5" cx="923.5" cy="149.5" r="0.5" fill="#B2B2B2"/>
<circle opacity="0.5" cx="949.5" cy="149.5" r="0.5" fill="#B2B2B2"/>
<circle opacity="0.5" cx="975.5" cy="149.5" r="0.5" fill="#B2B2B2"/>
<circle opacity="0.5" cx="1001.5" cy="149.5" r="0.5" fill="#B2B2B2"/>
<circle opacity="0.5" cx="1027.5" cy="149.5" r="0.5" fill="#B2B2B2"/>
<circle opacity="0.5" cx="1053.5" cy="149.5" r="0.5" fill="#B2B2B2"/>
<circle opacity="0.5" cx="1079.5" cy="149.5" r="0.5" fill="#B2B2B2"/>
<circle opacity="0.5" cx="1105.5" cy="149.5" r="0.5" fill="#B2B2B2"/>
<circle opacity="0.5" cx="1131.5" cy="149.5" r="0.5" fill="#B2B2B2"/>
<circle opacity="0.5" cx="1157.5" cy="149.5" r="0.5" fill="#B2B2B2"/>
<circle opacity="0.5" cx="1183.5" cy="149.5" r="0.5" fill="#B2B2B2"/>
<circle opacity="0.5" cx="1209.5" cy="149.5" r="0.5" fill="#B2B2B2"/>
<circle opacity="0.5" cx="1235.5" cy="149.5" r="0.5" fill="#B2B2B2"/>
<circle opacity="0.5" cx="1261.5" cy="149.5" r="0.5" fill="#B2B2B2"/>
<circle opacity="0.5" cx="13.5" cy="175.5" r="0.5" fill="#B2B2B2"/>
<circle opacity="0.5" cx="39.5" cy="175.5" r="0.5" fill="#B2B2B2"/>
<circle opacity="0.5" cx="65.5" cy="175.5" r="0.5" fill="#B2B2B2"/>
<circle opacity="0.5" cx="91.5" cy="175.5" r="0.5" fill="#B2B2B2"/>
<circle opacity="0.5" cx="117.5" cy="175.5" r="0.5" fill="#B2B2B2"/>
<circle opacity="0.5" cx="143.5" cy="175.5" r="0.5" fill="#B2B2B2"/>
<circle opacity="0.5" cx="169.5" cy="175.5" r="0.5" fill="#B2B2B2"/>
<circle opacity="0.5" cx="195.5" cy="175.5" r="0.5" fill="#B2B2B2"/>
<circle opacity="0.5" cx="221.5" cy="175.5" r="0.5" fill="#B2B2B2"/>
<circle opacity="0.5" cx="247.5" cy="175.5" r="0.5" fill="#B2B2B2"/>
<circle opacity="0.5" cx="273.5" cy="175.5" r="0.5" fill="#B2B2B2"/>
<circle opacity="0.5" cx="299.5" cy="175.5" r="0.5" fill="#B2B2B2"/>
<circle opacity="0.5" cx="325.5" cy="175.5" r="0.5" fill="#B2B2B2"/>
<circle opacity="0.5" cx="351.5" cy="175.5" r="0.5" fill="#B2B2B2"/>
<circle opacity="0.5" cx="377.5" cy="175.5" r="0.5" fill="#B2B2B2"/>
<circle opacity="0.5" cx="403.5" cy="175.5" r="0.5" fill="#B2B2B2"/>
<circle opacity="0.5" cx="429.5" cy="175.5" r="0.5" fill="#B2B2B2"/>
<circle opacity="0.5" cx="455.5" cy="175.5" r="0.5" fill="#B2B2B2"/>
<circle opacity="0.5" cx="481.5" cy="175.5" r="0.5" fill="#B2B2B2"/>
<circle opacity="0.5" cx="507.5" cy="175.5" r="0.5" fill="#B2B2B2"/>
<circle opacity="0.5" cx="533.5" cy="175.5" r="0.5" fill="#B2B2B2"/>
<circle opacity="0.5" cx="559.5" cy="175.5" r="0.5" fill="#B2B2B2"/>
<circle opacity="0.5" cx="585.5" cy="175.5" r="0.5" fill="#B2B2B2"/>
<circle opacity="0.5" cx="611.5" cy="175.5" r="0.5" fill="#B2B2B2"/>
<circle opacity="0.5" cx="637.5" cy="175.5" r="0.5" fill="#B2B2B2"/>
<circle opacity="0.5" cx="663.5" cy="175.5" r="0.5" fill="#B2B2B2"/>
<circle opacity="0.5" cx="689.5" cy="175.5" r="0.5" fill="#B2B2B2"/>
<circle opacity="0.5" cx="715.5" cy="175.5" r="0.5" fill="#B2B2B2"/>
<circle opacity="0.5" cx="741.5" cy="175.5" r="0.5" fill="#B2B2B2"/>
<circle opacity="0.5" cx="767.5" cy="175.5" r="0.5" fill="#B2B2B2"/>
<circle opacity="0.5" cx="793.5" cy="175.5" r="0.5" fill="#B2B2B2"/>
<circle opacity="0.5" cx="819.5" cy="175.5" r="0.5" fill="#B2B2B2"/>
<circle opacity="0.5" cx="845.5" cy="175.5" r="0.5" fill="#B2B2B2"/>
<circle opacity="0.5" cx="871.5" cy="175.5" r="0.5" fill="#B2B2B2"/>
<circle opacity="0.5" cx="897.5" cy="175.5" r="0.5" fill="#B2B2B2"/>
<circle opacity="0.5" cx="923.5" cy="175.5" r="0.5" fill="#B2B2B2"/>
<circle opacity="0.5" cx="949.5" cy="175.5" r="0.5" fill="#B2B2B2"/>
<circle opacity="0.5" cx="975.5" cy="175.5" r="0.5" fill="#B2B2B2"/>
<circle opacity="0.5" cx="1001.5" cy="175.5" r="0.5" fill="#B2B2B2"/>
<circle opacity="0.5" cx="1027.5" cy="175.5" r="0.5" fill="#B2B2B2"/>
<circle opacity="0.5" cx="1053.5" cy="175.5" r="0.5" fill="#B2B2B2"/>
<circle opacity="0.5" cx="1079.5" cy="175.5" r="0.5" fill="#B2B2B2"/>
<circle opacity="0.5" cx="1105.5" cy="175.5" r="0.5" fill="#B2B2B2"/>
<circle opacity="0.5" cx="1131.5" cy="175.5" r="0.5" fill="#B2B2B2"/>
<circle opacity="0.5" cx="1157.5" cy="175.5" r="0.5" fill="#B2B2B2"/>
<circle opacity="0.5" cx="1183.5" cy="175.5" r="0.5" fill="#B2B2B2"/>
<circle opacity="0.5" cx="1209.5" cy="175.5" r="0.5" fill="#B2B2B2"/>
<circle opacity="0.5" cx="1235.5" cy="175.5" r="0.5" fill="#B2B2B2"/>
<circle opacity="0.5" cx="1261.5" cy="175.5" r="0.5" fill="#B2B2B2"/>
<circle opacity="0.5" cx="13.5" cy="201.5" r="0.5" fill="#B2B2B2"/>
<circle opacity="0.5" cx="39.5" cy="201.5" r="0.5" fill="#B2B2B2"/>
<circle opacity="0.5" cx="65.5" cy="201.5" r="0.5" fill="#B2B2B2"/>
<circle opacity="0.5" cx="91.5" cy="201.5" r="0.5" fill="#B2B2B2"/>
<circle opacity="0.5" cx="117.5" cy="201.5" r="0.5" fill="#B2B2B2"/>
<circle opacity="0.5" cx="143.5" cy="201.5" r="0.5" fill="#B2B2B2"/>
<circle opacity="0.5" cx="169.5" cy="201.5" r="0.5" fill="#B2B2B2"/>
<circle opacity="0.5" cx="195.5" cy="201.5" r="0.5" fill="#B2B2B2"/>
<circle opacity="0.5" cx="221.5" cy="201.5" r="0.5" fill="#B2B2B2"/>
<circle opacity="0.5" cx="247.5" cy="201.5" r="0.5" fill="#B2B2B2"/>
<circle opacity="0.5" cx="273.5" cy="201.5" r="0.5" fill="#B2B2B2"/>
<circle opacity="0.5" cx="299.5" cy="201.5" r="0.5" fill="#B2B2B2"/>
<circle opacity="0.5" cx="325.5" cy="201.5" r="0.5" fill="#B2B2B2"/>
<circle opacity="0.5" cx="351.5" cy="201.5" r="0.5" fill="#B2B2B2"/>
<circle opacity="0.5" cx="377.5" cy="201.5" r="0.5" fill="#B2B2B2"/>
<circle opacity="0.5" cx="403.5" cy="201.5" r="0.5" fill="#B2B2B2"/>
<circle opacity="0.5" cx="429.5" cy="201.5" r="0.5" fill="#B2B2B2"/>
<circle opacity="0.5" cx="455.5" cy="201.5" r="0.5" fill="#B2B2B2"/>
<circle opacity="0.5" cx="481.5" cy="201.5" r="0.5" fill="#B2B2B2"/>
<circle opacity="0.5" cx="507.5" cy="201.5" r="0.5" fill="#B2B2B2"/>
<circle opacity="0.5" cx="533.5" cy="201.5" r="0.5" fill="#B2B2B2"/>
<circle opacity="0.5" cx="559.5" cy="201.5" r="0.5" fill="#B2B2B2"/>
<circle opacity="0.5" cx="585.5" cy="201.5" r="0.5" fill="#B2B2B2"/>
<circle opacity="0.5" cx="611.5" cy="201.5" r="0.5" fill="#B2B2B2"/>
<circle opacity="0.5" cx="637.5" cy="201.5" r="0.5" fill="#B2B2B2"/>
<circle opacity="0.5" cx="663.5" cy="201.5" r="0.5" fill="#B2B2B2"/>
<circle opacity="0.5" cx="689.5" cy="201.5" r="0.5" fill="#B2B2B2"/>
<circle opacity="0.5" cx="715.5" cy="201.5" r="0.5" fill="#B2B2B2"/>
<circle opacity="0.5" cx="741.5" cy="201.5" r="0.5" fill="#B2B2B2"/>
<circle opacity="0.5" cx="767.5" cy="201.5" r="0.5" fill="#B2B2B2"/>
<circle opacity="0.5" cx="793.5" cy="201.5" r="0.5" fill="#B2B2B2"/>
<circle opacity="0.5" cx="819.5" cy="201.5" r="0.5" fill="#B2B2B2"/>
<circle opacity="0.5" cx="845.5" cy="201.5" r="0.5" fill="#B2B2B2"/>
<circle opacity="0.5" cx="871.5" cy="201.5" r="0.5" fill="#B2B2B2"/>
<circle opacity="0.5" cx="897.5" cy="201.5" r="0.5" fill="#B2B2B2"/>
<circle opacity="0.5" cx="923.5" cy="201.5" r="0.5" fill="#B2B2B2"/>
<circle opacity="0.5" cx="949.5" cy="201.5" r="0.5" fill="#B2B2B2"/>
<circle opacity="0.5" cx="975.5" cy="201.5" r="0.5" fill="#B2B2B2"/>
<circle opacity="0.5" cx="1001.5" cy="201.5" r="0.5" fill="#B2B2B2"/>
<circle opacity="0.5" cx="1027.5" cy="201.5" r="0.5" fill="#B2B2B2"/>
<circle opacity="0.5" cx="1053.5" cy="201.5" r="0.5" fill="#B2B2B2"/>
<circle opacity="0.5" cx="1079.5" cy="201.5" r="0.5" fill="#B2B2B2"/>
<circle opacity="0.5" cx="1105.5" cy="201.5" r="0.5" fill="#B2B2B2"/>
<circle opacity="0.5" cx="1131.5" cy="201.5" r="0.5" fill="#B2B2B2"/>
<circle opacity="0.5" cx="1157.5" cy="201.5" r="0.5" fill="#B2B2B2"/>
<circle opacity="0.5" cx="1183.5" cy="201.5" r="0.5" fill="#B2B2B2"/>
<circle opacity="0.5" cx="1209.5" cy="201.5" r="0.5" fill="#B2B2B2"/>
<circle opacity="0.5" cx="1235.5" cy="201.5" r="0.5" fill="#B2B2B2"/>
<circle opacity="0.5" cx="1261.5" cy="201.5" r="0.5" fill="#B2B2B2"/>
<circle opacity="0.5" cx="13.5" cy="227.5" r="0.5" fill="#B2B2B2"/>
<circle opacity="0.5" cx="39.5" cy="227.5" r="0.5" fill="#B2B2B2"/>
<circle opacity="0.5" cx="65.5" cy="227.5" r="0.5" fill="#B2B2B2"/>
<circle opacity="0.5" cx="91.5" cy="227.5" r="0.5" fill="#B2B2B2"/>
<circle opacity="0.5" cx="117.5" cy="227.5" r="0.5" fill="#B2B2B2"/>
<circle opacity="0.5" cx="143.5" cy="227.5" r="0.5" fill="#B2B2B2"/>
<circle opacity="0.5" cx="169.5" cy="227.5" r="0.5" fill="#B2B2B2"/>
<circle opacity="0.5" cx="195.5" cy="227.5" r="0.5" fill="#B2B2B2"/>
<circle opacity="0.5" cx="221.5" cy="227.5" r="0.5" fill="#B2B2B2"/>
<circle opacity="0.5" cx="247.5" cy="227.5" r="0.5" fill="#B2B2B2"/>
<circle opacity="0.5" cx="273.5" cy="227.5" r="0.5" fill="#B2B2B2"/>
<circle opacity="0.5" cx="299.5" cy="227.5" r="0.5" fill="#B2B2B2"/>
<circle opacity="0.5" cx="325.5" cy="227.5" r="0.5" fill="#B2B2B2"/>
<circle opacity="0.5" cx="351.5" cy="227.5" r="0.5" fill="#B2B2B2"/>
<circle opacity="0.5" cx="377.5" cy="227.5" r="0.5" fill="#B2B2B2"/>
<circle opacity="0.5" cx="403.5" cy="227.5" r="0.5" fill="#B2B2B2"/>
<circle opacity="0.5" cx="429.5" cy="227.5" r="0.5" fill="#B2B2B2"/>
<circle opacity="0.5" cx="455.5" cy="227.5" r="0.5" fill="#B2B2B2"/>
<circle opacity="0.5" cx="481.5" cy="227.5" r="0.5" fill="#B2B2B2"/>
<circle opacity="0.5" cx="507.5" cy="227.5" r="0.5" fill="#B2B2B2"/>
<circle opacity="0.5" cx="533.5" cy="227.5" r="0.5" fill="#B2B2B2"/>
<circle opacity="0.5" cx="559.5" cy="227.5" r="0.5" fill="#B2B2B2"/>
<circle opacity="0.5" cx="585.5" cy="227.5" r="0.5" fill="#B2B2B2"/>
<circle opacity="0.5" cx="611.5" cy="227.5" r="0.5" fill="#B2B2B2"/>
<circle opacity="0.5" cx="637.5" cy="227.5" r="0.5" fill="#B2B2B2"/>
<circle opacity="0.5" cx="663.5" cy="227.5" r="0.5" fill="#B2B2B2"/>
<circle opacity="0.5" cx="689.5" cy="227.5" r="0.5" fill="#B2B2B2"/>
<circle opacity="0.5" cx="715.5" cy="227.5" r="0.5" fill="#B2B2B2"/>
<circle opacity="0.5" cx="741.5" cy="227.5" r="0.5" fill="#B2B2B2"/>
<circle opacity="0.5" cx="767.5" cy="227.5" r="0.5" fill="#B2B2B2"/>
<circle opacity="0.5" cx="793.5" cy="227.5" r="0.5" fill="#B2B2B2"/>
<circle opacity="0.5" cx="819.5" cy="227.5" r="0.5" fill="#B2B2B2"/>
<circle opacity="0.5" cx="845.5" cy="227.5" r="0.5" fill="#B2B2B2"/>
<circle opacity="0.5" cx="871.5" cy="227.5" r="0.5" fill="#B2B2B2"/>
<circle opacity="0.5" cx="897.5" cy="227.5" r="0.5" fill="#B2B2B2"/>
<circle opacity="0.5" cx="923.5" cy="227.5" r="0.5" fill="#B2B2B2"/>
<circle opacity="0.5" cx="949.5" cy="227.5" r="0.5" fill="#B2B2B2"/>
<circle opacity="0.5" cx="975.5" cy="227.5" r="0.5" fill="#B2B2B2"/>
<circle opacity="0.5" cx="1001.5" cy="227.5" r="0.5" fill="#B2B2B2"/>
<circle opacity="0.5" cx="1027.5" cy="227.5" r="0.5" fill="#B2B2B2"/>
<circle opacity="0.5" cx="1053.5" cy="227.5" r="0.5" fill="#B2B2B2"/>
<circle opacity="0.5" cx="1079.5" cy="227.5" r="0.5" fill="#B2B2B2"/>
<circle opacity="0.5" cx="1105.5" cy="227.5" r="0.5" fill="#B2B2B2"/>
<circle opacity="0.5" cx="1131.5" cy="227.5" r="0.5" fill="#B2B2B2"/>
<circle opacity="0.5" cx="1157.5" cy="227.5" r="0.5" fill="#B2B2B2"/>
<circle opacity="0.5" cx="1183.5" cy="227.5" r="0.5" fill="#B2B2B2"/>
<circle opacity="0.5" cx="1209.5" cy="227.5" r="0.5" fill="#B2B2B2"/>
<circle opacity="0.5" cx="1235.5" cy="227.5" r="0.5" fill="#B2B2B2"/>
<circle opacity="0.5" cx="1261.5" cy="227.5" r="0.5" fill="#B2B2B2"/>
<circle opacity="0.5" cx="13.5" cy="253.5" r="0.5" fill="#B2B2B2"/>
<circle opacity="0.5" cx="39.5" cy="253.5" r="0.5" fill="#B2B2B2"/>
<circle opacity="0.5" cx="65.5" cy="253.5" r="0.5" fill="#B2B2B2"/>
<circle opacity="0.5" cx="91.5" cy="253.5" r="0.5" fill="#B2B2B2"/>
<circle opacity="0.5" cx="117.5" cy="253.5" r="0.5" fill="#B2B2B2"/>
<circle opacity="0.5" cx="143.5" cy="253.5" r="0.5" fill="#B2B2B2"/>
<circle opacity="0.5" cx="169.5" cy="253.5" r="0.5" fill="#B2B2B2"/>
<circle opacity="0.5" cx="195.5" cy="253.5" r="0.5" fill="#B2B2B2"/>
<circle opacity="0.5" cx="221.5" cy="253.5" r="0.5" fill="#B2B2B2"/>
<circle opacity="0.5" cx="247.5" cy="253.5" r="0.5" fill="#B2B2B2"/>
<circle opacity="0.5" cx="273.5" cy="253.5" r="0.5" fill="#B2B2B2"/>
<circle opacity="0.5" cx="299.5" cy="253.5" r="0.5" fill="#B2B2B2"/>
<circle opacity="0.5" cx="325.5" cy="253.5" r="0.5" fill="#B2B2B2"/>
<circle opacity="0.5" cx="351.5" cy="253.5" r="0.5" fill="#B2B2B2"/>
<circle opacity="0.5" cx="377.5" cy="253.5" r="0.5" fill="#B2B2B2"/>
<circle opacity="0.5" cx="403.5" cy="253.5" r="0.5" fill="#B2B2B2"/>
<circle opacity="0.5" cx="429.5" cy="253.5" r="0.5" fill="#B2B2B2"/>
<circle opacity="0.5" cx="455.5" cy="253.5" r="0.5" fill="#B2B2B2"/>
<circle opacity="0.5" cx="481.5" cy="253.5" r="0.5" fill="#B2B2B2"/>
<circle opacity="0.5" cx="507.5" cy="253.5" r="0.5" fill="#B2B2B2"/>
<circle opacity="0.5" cx="533.5" cy="253.5" r="0.5" fill="#B2B2B2"/>
<circle opacity="0.5" cx="559.5" cy="253.5" r="0.5" fill="#B2B2B2"/>
<circle opacity="0.5" cx="585.5" cy="253.5" r="0.5" fill="#B2B2B2"/>
<circle opacity="0.5" cx="611.5" cy="253.5" r="0.5" fill="#B2B2B2"/>
<circle opacity="0.5" cx="637.5" cy="253.5" r="0.5" fill="#B2B2B2"/>
<circle opacity="0.5" cx="663.5" cy="253.5" r="0.5" fill="#B2B2B2"/>
<circle opacity="0.5" cx="689.5" cy="253.5" r="0.5" fill="#B2B2B2"/>
<circle opacity="0.5" cx="715.5" cy="253.5" r="0.5" fill="#B2B2B2"/>
<circle opacity="0.5" cx="741.5" cy="253.5" r="0.5" fill="#B2B2B2"/>
<circle opacity="0.5" cx="767.5" cy="253.5" r="0.5" fill="#B2B2B2"/>
<circle opacity="0.5" cx="793.5" cy="253.5" r="0.5" fill="#B2B2B2"/>
<circle opacity="0.5" cx="819.5" cy="253.5" r="0.5" fill="#B2B2B2"/>
<circle opacity="0.5" cx="845.5" cy="253.5" r="0.5" fill="#B2B2B2"/>
<circle opacity="0.5" cx="871.5" cy="253.5" r="0.5" fill="#B2B2B2"/>
<circle opacity="0.5" cx="897.5" cy="253.5" r="0.5" fill="#B2B2B2"/>
<circle opacity="0.5" cx="923.5" cy="253.5" r="0.5" fill="#B2B2B2"/>
<circle opacity="0.5" cx="949.5" cy="253.5" r="0.5" fill="#B2B2B2"/>
<circle opacity="0.5" cx="975.5" cy="253.5" r="0.5" fill="#B2B2B2"/>
<circle opacity="0.5" cx="1001.5" cy="253.5" r="0.5" fill="#B2B2B2"/>
<circle opacity="0.5" cx="1027.5" cy="253.5" r="0.5" fill="#B2B2B2"/>
<circle opacity="0.5" cx="1053.5" cy="253.5" r="0.5" fill="#B2B2B2"/>
<circle opacity="0.5" cx="1079.5" cy="253.5" r="0.5" fill="#B2B2B2"/>
<circle opacity="0.5" cx="1105.5" cy="253.5" r="0.5" fill="#B2B2B2"/>
<circle opacity="0.5" cx="1131.5" cy="253.5" r="0.5" fill="#B2B2B2"/>
<circle opacity="0.5" cx="1157.5" cy="253.5" r="0.5" fill="#B2B2B2"/>
<circle opacity="0.5" cx="1183.5" cy="253.5" r="0.5" fill="#B2B2B2"/>
<circle opacity="0.5" cx="1209.5" cy="253.5" r="0.5" fill="#B2B2B2"/>
<circle opacity="0.5" cx="1235.5" cy="253.5" r="0.5" fill="#B2B2B2"/>
<circle opacity="0.5" cx="1261.5" cy="253.5" r="0.5" fill="#B2B2B2"/>
</g>
<defs>
<clipPath id="clip0_7_662288">
<rect width="1277" height="273" fill="white" transform="translate(0.5)"/>
</clipPath>
</defs>
</svg>
