<svg xmlns="http://www.w3.org/2000/svg" width="1278" height="273" fill="none" viewBox="0 0 1278 273"><g clip-path="url(#a)"><path fill="#fdfdfd" d="M.5 0h1277v273H.5z"/><circle cx="13.5" cy="19.5" r=".5" fill="#b2b2b2" opacity=".5"/><circle cx="39.5" cy="19.5" r=".5" fill="#b2b2b2" opacity=".5"/><circle cx="65.5" cy="19.5" r=".5" fill="#b2b2b2" opacity=".5"/><circle cx="91.5" cy="19.5" r=".5" fill="#b2b2b2" opacity=".5"/><circle cx="117.5" cy="19.5" r=".5" fill="#b2b2b2" opacity=".5"/><circle cx="143.5" cy="19.5" r=".5" fill="#b2b2b2" opacity=".5"/><circle cx="169.5" cy="19.5" r=".5" fill="#b2b2b2" opacity=".5"/><circle cx="195.5" cy="19.5" r=".5" fill="#b2b2b2" opacity=".5"/><circle cx="221.5" cy="19.5" r=".5" fill="#b2b2b2" opacity=".5"/><circle cx="247.5" cy="19.5" r=".5" fill="#b2b2b2" opacity=".5"/><circle cx="273.5" cy="19.5" r=".5" fill="#b2b2b2" opacity=".5"/><circle cx="299.5" cy="19.5" r=".5" fill="#b2b2b2" opacity=".5"/><circle cx="325.5" cy="19.5" r=".5" fill="#b2b2b2" opacity=".5"/><circle cx="351.5" cy="19.5" r=".5" fill="#b2b2b2" opacity=".5"/><circle cx="377.5" cy="19.5" r=".5" fill="#b2b2b2" opacity=".5"/><circle cx="403.5" cy="19.5" r=".5" fill="#b2b2b2" opacity=".5"/><circle cx="429.5" cy="19.5" r=".5" fill="#b2b2b2" opacity=".5"/><circle cx="455.5" cy="19.5" r=".5" fill="#b2b2b2" opacity=".5"/><circle cx="481.5" cy="19.5" r=".5" fill="#b2b2b2" opacity=".5"/><circle cx="507.5" cy="19.5" r=".5" fill="#b2b2b2" opacity=".5"/><circle cx="533.5" cy="19.5" r=".5" fill="#b2b2b2" opacity=".5"/><circle cx="559.5" cy="19.5" r=".5" fill="#b2b2b2" opacity=".5"/><circle cx="585.5" cy="19.5" r=".5" fill="#b2b2b2" opacity=".5"/><circle cx="611.5" cy="19.5" r=".5" fill="#b2b2b2" opacity=".5"/><circle cx="637.5" cy="19.5" r=".5" fill="#b2b2b2" opacity=".5"/><circle cx="663.5" cy="19.5" r=".5" fill="#b2b2b2" opacity=".5"/><circle cx="689.5" cy="19.5" r=".5" fill="#b2b2b2" opacity=".5"/><circle cx="715.5" cy="19.5" r=".5" fill="#b2b2b2" opacity=".5"/><circle cx="741.5" cy="19.5" r=".5" fill="#b2b2b2" opacity=".5"/><circle cx="767.5" cy="19.5" r=".5" fill="#b2b2b2" opacity=".5"/><circle cx="793.5" cy="19.5" r=".5" fill="#b2b2b2" opacity=".5"/><circle cx="819.5" cy="19.5" r=".5" fill="#b2b2b2" opacity=".5"/><circle cx="845.5" cy="19.5" r=".5" fill="#b2b2b2" opacity=".5"/><circle cx="871.5" cy="19.5" r=".5" fill="#b2b2b2" opacity=".5"/><circle cx="897.5" cy="19.5" r=".5" fill="#b2b2b2" opacity=".5"/><circle cx="923.5" cy="19.5" r=".5" fill="#b2b2b2" opacity=".5"/><circle cx="949.5" cy="19.5" r=".5" fill="#b2b2b2" opacity=".5"/><circle cx="975.5" cy="19.5" r=".5" fill="#b2b2b2" opacity=".5"/><circle cx="1001.5" cy="19.5" r=".5" fill="#b2b2b2" opacity=".5"/><circle cx="1027.5" cy="19.5" r=".5" fill="#b2b2b2" opacity=".5"/><circle cx="1053.5" cy="19.5" r=".5" fill="#b2b2b2" opacity=".5"/><circle cx="1079.5" cy="19.5" r=".5" fill="#b2b2b2" opacity=".5"/><circle cx="1105.5" cy="19.5" r=".5" fill="#b2b2b2" opacity=".5"/><circle cx="1131.5" cy="19.5" r=".5" fill="#b2b2b2" opacity=".5"/><circle cx="1157.5" cy="19.5" r=".5" fill="#b2b2b2" opacity=".5"/><circle cx="1183.5" cy="19.5" r=".5" fill="#b2b2b2" opacity=".5"/><circle cx="1209.5" cy="19.5" r=".5" fill="#b2b2b2" opacity=".5"/><circle cx="1235.5" cy="19.5" r=".5" fill="#b2b2b2" opacity=".5"/><circle cx="1261.5" cy="19.5" r=".5" fill="#b2b2b2" opacity=".5"/><circle cx="13.5" cy="45.5" r=".5" fill="#b2b2b2" opacity=".5"/><circle cx="39.5" cy="45.5" r=".5" fill="#b2b2b2" opacity=".5"/><circle cx="65.5" cy="45.5" r=".5" fill="#b2b2b2" opacity=".5"/><circle cx="91.5" cy="45.5" r=".5" fill="#b2b2b2" opacity=".5"/><circle cx="117.5" cy="45.5" r=".5" fill="#b2b2b2" opacity=".5"/><circle cx="143.5" cy="45.5" r=".5" fill="#b2b2b2" opacity=".5"/><circle cx="169.5" cy="45.5" r=".5" fill="#b2b2b2" opacity=".5"/><circle cx="195.5" cy="45.5" r=".5" fill="#b2b2b2" opacity=".5"/><circle cx="221.5" cy="45.5" r=".5" fill="#b2b2b2" opacity=".5"/><circle cx="247.5" cy="45.5" r=".5" fill="#b2b2b2" opacity=".5"/><circle cx="273.5" cy="45.5" r=".5" fill="#b2b2b2" opacity=".5"/><circle cx="299.5" cy="45.5" r=".5" fill="#b2b2b2" opacity=".5"/><circle cx="325.5" cy="45.5" r=".5" fill="#b2b2b2" opacity=".5"/><circle cx="351.5" cy="45.5" r=".5" fill="#b2b2b2" opacity=".5"/><circle cx="377.5" cy="45.5" r=".5" fill="#b2b2b2" opacity=".5"/><circle cx="403.5" cy="45.5" r=".5" fill="#b2b2b2" opacity=".5"/><circle cx="429.5" cy="45.5" r=".5" fill="#b2b2b2" opacity=".5"/><circle cx="455.5" cy="45.5" r=".5" fill="#b2b2b2" opacity=".5"/><circle cx="481.5" cy="45.5" r=".5" fill="#b2b2b2" opacity=".5"/><circle cx="507.5" cy="45.5" r=".5" fill="#b2b2b2" opacity=".5"/><circle cx="533.5" cy="45.5" r=".5" fill="#b2b2b2" opacity=".5"/><circle cx="559.5" cy="45.5" r=".5" fill="#b2b2b2" opacity=".5"/><circle cx="585.5" cy="45.5" r=".5" fill="#b2b2b2" opacity=".5"/><circle cx="611.5" cy="45.5" r=".5" fill="#b2b2b2" opacity=".5"/><circle cx="637.5" cy="45.5" r=".5" fill="#b2b2b2" opacity=".5"/><circle cx="663.5" cy="45.5" r=".5" fill="#b2b2b2" opacity=".5"/><circle cx="689.5" cy="45.5" r=".5" fill="#b2b2b2" opacity=".5"/><circle cx="715.5" cy="45.5" r=".5" fill="#b2b2b2" opacity=".5"/><circle cx="741.5" cy="45.5" r=".5" fill="#b2b2b2" opacity=".5"/><circle cx="767.5" cy="45.5" r=".5" fill="#b2b2b2" opacity=".5"/><circle cx="793.5" cy="45.5" r=".5" fill="#b2b2b2" opacity=".5"/><circle cx="819.5" cy="45.5" r=".5" fill="#b2b2b2" opacity=".5"/><circle cx="845.5" cy="45.5" r=".5" fill="#b2b2b2" opacity=".5"/><circle cx="871.5" cy="45.5" r=".5" fill="#b2b2b2" opacity=".5"/><circle cx="897.5" cy="45.5" r=".5" fill="#b2b2b2" opacity=".5"/><circle cx="923.5" cy="45.5" r=".5" fill="#b2b2b2" opacity=".5"/><circle cx="949.5" cy="45.5" r=".5" fill="#b2b2b2" opacity=".5"/><circle cx="975.5" cy="45.5" r=".5" fill="#b2b2b2" opacity=".5"/><circle cx="1001.5" cy="45.5" r=".5" fill="#b2b2b2" opacity=".5"/><circle cx="1027.5" cy="45.5" r=".5" fill="#b2b2b2" opacity=".5"/><circle cx="1053.5" cy="45.5" r=".5" fill="#b2b2b2" opacity=".5"/><circle cx="1079.5" cy="45.5" r=".5" fill="#b2b2b2" opacity=".5"/><circle cx="1105.5" cy="45.5" r=".5" fill="#b2b2b2" opacity=".5"/><circle cx="1131.5" cy="45.5" r=".5" fill="#b2b2b2" opacity=".5"/><circle cx="1157.5" cy="45.5" r=".5" fill="#b2b2b2" opacity=".5"/><circle cx="1183.5" cy="45.5" r=".5" fill="#b2b2b2" opacity=".5"/><circle cx="1209.5" cy="45.5" r=".5" fill="#b2b2b2" opacity=".5"/><circle cx="1235.5" cy="45.5" r=".5" fill="#b2b2b2" opacity=".5"/><circle cx="1261.5" cy="45.5" r=".5" fill="#b2b2b2" opacity=".5"/><circle cx="13.5" cy="71.5" r=".5" fill="#b2b2b2" opacity=".5"/><circle cx="39.5" cy="71.5" r=".5" fill="#b2b2b2" opacity=".5"/><circle cx="65.5" cy="71.5" r=".5" fill="#b2b2b2" opacity=".5"/><circle cx="91.5" cy="71.5" r=".5" fill="#b2b2b2" opacity=".5"/><circle cx="117.5" cy="71.5" r=".5" fill="#b2b2b2" opacity=".5"/><circle cx="143.5" cy="71.5" r=".5" fill="#b2b2b2" opacity=".5"/><circle cx="169.5" cy="71.5" r=".5" fill="#b2b2b2" opacity=".5"/><circle cx="195.5" cy="71.5" r=".5" fill="#b2b2b2" opacity=".5"/><circle cx="221.5" cy="71.5" r=".5" fill="#b2b2b2" opacity=".5"/><circle cx="247.5" cy="71.5" r=".5" fill="#b2b2b2" opacity=".5"/><circle cx="273.5" cy="71.5" r=".5" fill="#b2b2b2" opacity=".5"/><circle cx="299.5" cy="71.5" r=".5" fill="#b2b2b2" opacity=".5"/><circle cx="325.5" cy="71.5" r=".5" fill="#b2b2b2" opacity=".5"/><circle cx="351.5" cy="71.5" r=".5" fill="#b2b2b2" opacity=".5"/><circle cx="377.5" cy="71.5" r=".5" fill="#b2b2b2" opacity=".5"/><circle cx="403.5" cy="71.5" r=".5" fill="#b2b2b2" opacity=".5"/><circle cx="429.5" cy="71.5" r=".5" fill="#b2b2b2" opacity=".5"/><circle cx="455.5" cy="71.5" r=".5" fill="#b2b2b2" opacity=".5"/><circle cx="481.5" cy="71.5" r=".5" fill="#b2b2b2" opacity=".5"/><circle cx="507.5" cy="71.5" r=".5" fill="#b2b2b2" opacity=".5"/><circle cx="533.5" cy="71.5" r=".5" fill="#b2b2b2" opacity=".5"/><circle cx="559.5" cy="71.5" r=".5" fill="#b2b2b2" opacity=".5"/><circle cx="585.5" cy="71.5" r=".5" fill="#b2b2b2" opacity=".5"/><circle cx="611.5" cy="71.5" r=".5" fill="#b2b2b2" opacity=".5"/><circle cx="637.5" cy="71.5" r=".5" fill="#b2b2b2" opacity=".5"/><circle cx="663.5" cy="71.5" r=".5" fill="#b2b2b2" opacity=".5"/><circle cx="689.5" cy="71.5" r=".5" fill="#b2b2b2" opacity=".5"/><circle cx="715.5" cy="71.5" r=".5" fill="#b2b2b2" opacity=".5"/><circle cx="741.5" cy="71.5" r=".5" fill="#b2b2b2" opacity=".5"/><circle cx="767.5" cy="71.5" r=".5" fill="#b2b2b2" opacity=".5"/><circle cx="793.5" cy="71.5" r=".5" fill="#b2b2b2" opacity=".5"/><circle cx="819.5" cy="71.5" r=".5" fill="#b2b2b2" opacity=".5"/><circle cx="845.5" cy="71.5" r=".5" fill="#b2b2b2" opacity=".5"/><circle cx="871.5" cy="71.5" r=".5" fill="#b2b2b2" opacity=".5"/><circle cx="897.5" cy="71.5" r=".5" fill="#b2b2b2" opacity=".5"/><circle cx="923.5" cy="71.5" r=".5" fill="#b2b2b2" opacity=".5"/><circle cx="949.5" cy="71.5" r=".5" fill="#b2b2b2" opacity=".5"/><circle cx="975.5" cy="71.5" r=".5" fill="#b2b2b2" opacity=".5"/><circle cx="1001.5" cy="71.5" r=".5" fill="#b2b2b2" opacity=".5"/><circle cx="1027.5" cy="71.5" r=".5" fill="#b2b2b2" opacity=".5"/><circle cx="1053.5" cy="71.5" r=".5" fill="#b2b2b2" opacity=".5"/><circle cx="1079.5" cy="71.5" r=".5" fill="#b2b2b2" opacity=".5"/><circle cx="1105.5" cy="71.5" r=".5" fill="#b2b2b2" opacity=".5"/><circle cx="1131.5" cy="71.5" r=".5" fill="#b2b2b2" opacity=".5"/><circle cx="1157.5" cy="71.5" r=".5" fill="#b2b2b2" opacity=".5"/><circle cx="1183.5" cy="71.5" r=".5" fill="#b2b2b2" opacity=".5"/><circle cx="1209.5" cy="71.5" r=".5" fill="#b2b2b2" opacity=".5"/><circle cx="1235.5" cy="71.5" r=".5" fill="#b2b2b2" opacity=".5"/><circle cx="1261.5" cy="71.5" r=".5" fill="#b2b2b2" opacity=".5"/><circle cx="13.5" cy="97.5" r=".5" fill="#b2b2b2" opacity=".5"/><circle cx="39.5" cy="97.5" r=".5" fill="#b2b2b2" opacity=".5"/><circle cx="65.5" cy="97.5" r=".5" fill="#b2b2b2" opacity=".5"/><circle cx="91.5" cy="97.5" r=".5" fill="#b2b2b2" opacity=".5"/><circle cx="117.5" cy="97.5" r=".5" fill="#b2b2b2" opacity=".5"/><circle cx="143.5" cy="97.5" r=".5" fill="#b2b2b2" opacity=".5"/><circle cx="169.5" cy="97.5" r=".5" fill="#b2b2b2" opacity=".5"/><circle cx="195.5" cy="97.5" r=".5" fill="#b2b2b2" opacity=".5"/><circle cx="221.5" cy="97.5" r=".5" fill="#b2b2b2" opacity=".5"/><circle cx="247.5" cy="97.5" r=".5" fill="#b2b2b2" opacity=".5"/><circle cx="273.5" cy="97.5" r=".5" fill="#b2b2b2" opacity=".5"/><circle cx="299.5" cy="97.5" r=".5" fill="#b2b2b2" opacity=".5"/><circle cx="325.5" cy="97.5" r=".5" fill="#b2b2b2" opacity=".5"/><circle cx="351.5" cy="97.5" r=".5" fill="#b2b2b2" opacity=".5"/><circle cx="377.5" cy="97.5" r=".5" fill="#b2b2b2" opacity=".5"/><circle cx="403.5" cy="97.5" r=".5" fill="#b2b2b2" opacity=".5"/><circle cx="429.5" cy="97.5" r=".5" fill="#b2b2b2" opacity=".5"/><circle cx="455.5" cy="97.5" r=".5" fill="#b2b2b2" opacity=".5"/><circle cx="481.5" cy="97.5" r=".5" fill="#b2b2b2" opacity=".5"/><circle cx="507.5" cy="97.5" r=".5" fill="#b2b2b2" opacity=".5"/><circle cx="533.5" cy="97.5" r=".5" fill="#b2b2b2" opacity=".5"/><circle cx="559.5" cy="97.5" r=".5" fill="#b2b2b2" opacity=".5"/><circle cx="585.5" cy="97.5" r=".5" fill="#b2b2b2" opacity=".5"/><circle cx="611.5" cy="97.5" r=".5" fill="#b2b2b2" opacity=".5"/><circle cx="637.5" cy="97.5" r=".5" fill="#b2b2b2" opacity=".5"/><circle cx="663.5" cy="97.5" r=".5" fill="#b2b2b2" opacity=".5"/><circle cx="689.5" cy="97.5" r=".5" fill="#b2b2b2" opacity=".5"/><circle cx="715.5" cy="97.5" r=".5" fill="#b2b2b2" opacity=".5"/><circle cx="741.5" cy="97.5" r=".5" fill="#b2b2b2" opacity=".5"/><circle cx="767.5" cy="97.5" r=".5" fill="#b2b2b2" opacity=".5"/><circle cx="793.5" cy="97.5" r=".5" fill="#b2b2b2" opacity=".5"/><circle cx="819.5" cy="97.5" r=".5" fill="#b2b2b2" opacity=".5"/><circle cx="845.5" cy="97.5" r=".5" fill="#b2b2b2" opacity=".5"/><circle cx="871.5" cy="97.5" r=".5" fill="#b2b2b2" opacity=".5"/><circle cx="897.5" cy="97.5" r=".5" fill="#b2b2b2" opacity=".5"/><circle cx="923.5" cy="97.5" r=".5" fill="#b2b2b2" opacity=".5"/><circle cx="949.5" cy="97.5" r=".5" fill="#b2b2b2" opacity=".5"/><circle cx="975.5" cy="97.5" r=".5" fill="#b2b2b2" opacity=".5"/><circle cx="1001.5" cy="97.5" r=".5" fill="#b2b2b2" opacity=".5"/><circle cx="1027.5" cy="97.5" r=".5" fill="#b2b2b2" opacity=".5"/><circle cx="1053.5" cy="97.5" r=".5" fill="#b2b2b2" opacity=".5"/><circle cx="1079.5" cy="97.5" r=".5" fill="#b2b2b2" opacity=".5"/><circle cx="1105.5" cy="97.5" r=".5" fill="#b2b2b2" opacity=".5"/><circle cx="1131.5" cy="97.5" r=".5" fill="#b2b2b2" opacity=".5"/><circle cx="1157.5" cy="97.5" r=".5" fill="#b2b2b2" opacity=".5"/><circle cx="1183.5" cy="97.5" r=".5" fill="#b2b2b2" opacity=".5"/><circle cx="1209.5" cy="97.5" r=".5" fill="#b2b2b2" opacity=".5"/><circle cx="1235.5" cy="97.5" r=".5" fill="#b2b2b2" opacity=".5"/><circle cx="1261.5" cy="97.5" r=".5" fill="#b2b2b2" opacity=".5"/><circle cx="13.5" cy="123.5" r=".5" fill="#b2b2b2" opacity=".5"/><circle cx="39.5" cy="123.5" r=".5" fill="#b2b2b2" opacity=".5"/><circle cx="65.5" cy="123.5" r=".5" fill="#b2b2b2" opacity=".5"/><circle cx="91.5" cy="123.5" r=".5" fill="#b2b2b2" opacity=".5"/><circle cx="117.5" cy="123.5" r=".5" fill="#b2b2b2" opacity=".5"/><circle cx="143.5" cy="123.5" r=".5" fill="#b2b2b2" opacity=".5"/><circle cx="169.5" cy="123.5" r=".5" fill="#b2b2b2" opacity=".5"/><circle cx="195.5" cy="123.5" r=".5" fill="#b2b2b2" opacity=".5"/><circle cx="221.5" cy="123.5" r=".5" fill="#b2b2b2" opacity=".5"/><circle cx="247.5" cy="123.5" r=".5" fill="#b2b2b2" opacity=".5"/><circle cx="273.5" cy="123.5" r=".5" fill="#b2b2b2" opacity=".5"/><circle cx="299.5" cy="123.5" r=".5" fill="#b2b2b2" opacity=".5"/><circle cx="325.5" cy="123.5" r=".5" fill="#b2b2b2" opacity=".5"/><circle cx="351.5" cy="123.5" r=".5" fill="#b2b2b2" opacity=".5"/><circle cx="377.5" cy="123.5" r=".5" fill="#b2b2b2" opacity=".5"/><circle cx="403.5" cy="123.5" r=".5" fill="#b2b2b2" opacity=".5"/><circle cx="429.5" cy="123.5" r=".5" fill="#b2b2b2" opacity=".5"/><circle cx="455.5" cy="123.5" r=".5" fill="#b2b2b2" opacity=".5"/><circle cx="481.5" cy="123.5" r=".5" fill="#b2b2b2" opacity=".5"/><circle cx="507.5" cy="123.5" r=".5" fill="#b2b2b2" opacity=".5"/><circle cx="533.5" cy="123.5" r=".5" fill="#b2b2b2" opacity=".5"/><circle cx="559.5" cy="123.5" r=".5" fill="#b2b2b2" opacity=".5"/><circle cx="585.5" cy="123.5" r=".5" fill="#b2b2b2" opacity=".5"/><circle cx="611.5" cy="123.5" r=".5" fill="#b2b2b2" opacity=".5"/><circle cx="637.5" cy="123.5" r=".5" fill="#b2b2b2" opacity=".5"/><circle cx="663.5" cy="123.5" r=".5" fill="#b2b2b2" opacity=".5"/><circle cx="689.5" cy="123.5" r=".5" fill="#b2b2b2" opacity=".5"/><circle cx="715.5" cy="123.5" r=".5" fill="#b2b2b2" opacity=".5"/><circle cx="741.5" cy="123.5" r=".5" fill="#b2b2b2" opacity=".5"/><circle cx="767.5" cy="123.5" r=".5" fill="#b2b2b2" opacity=".5"/><circle cx="793.5" cy="123.5" r=".5" fill="#b2b2b2" opacity=".5"/><circle cx="819.5" cy="123.5" r=".5" fill="#b2b2b2" opacity=".5"/><circle cx="845.5" cy="123.5" r=".5" fill="#b2b2b2" opacity=".5"/><circle cx="871.5" cy="123.5" r=".5" fill="#b2b2b2" opacity=".5"/><circle cx="897.5" cy="123.5" r=".5" fill="#b2b2b2" opacity=".5"/><circle cx="923.5" cy="123.5" r=".5" fill="#b2b2b2" opacity=".5"/><circle cx="949.5" cy="123.5" r=".5" fill="#b2b2b2" opacity=".5"/><circle cx="975.5" cy="123.5" r=".5" fill="#b2b2b2" opacity=".5"/><circle cx="1001.5" cy="123.5" r=".5" fill="#b2b2b2" opacity=".5"/><circle cx="1027.5" cy="123.5" r=".5" fill="#b2b2b2" opacity=".5"/><circle cx="1053.5" cy="123.5" r=".5" fill="#b2b2b2" opacity=".5"/><circle cx="1079.5" cy="123.5" r=".5" fill="#b2b2b2" opacity=".5"/><circle cx="1105.5" cy="123.5" r=".5" fill="#b2b2b2" opacity=".5"/><circle cx="1131.5" cy="123.5" r=".5" fill="#b2b2b2" opacity=".5"/><circle cx="1157.5" cy="123.5" r=".5" fill="#b2b2b2" opacity=".5"/><circle cx="1183.5" cy="123.5" r=".5" fill="#b2b2b2" opacity=".5"/><circle cx="1209.5" cy="123.5" r=".5" fill="#b2b2b2" opacity=".5"/><circle cx="1235.5" cy="123.5" r=".5" fill="#b2b2b2" opacity=".5"/><circle cx="1261.5" cy="123.5" r=".5" fill="#b2b2b2" opacity=".5"/><circle cx="13.5" cy="149.5" r=".5" fill="#b2b2b2" opacity=".5"/><circle cx="39.5" cy="149.5" r=".5" fill="#b2b2b2" opacity=".5"/><circle cx="65.5" cy="149.5" r=".5" fill="#b2b2b2" opacity=".5"/><circle cx="91.5" cy="149.5" r=".5" fill="#b2b2b2" opacity=".5"/><circle cx="117.5" cy="149.5" r=".5" fill="#b2b2b2" opacity=".5"/><circle cx="143.5" cy="149.5" r=".5" fill="#b2b2b2" opacity=".5"/><circle cx="169.5" cy="149.5" r=".5" fill="#b2b2b2" opacity=".5"/><circle cx="195.5" cy="149.5" r=".5" fill="#b2b2b2" opacity=".5"/><circle cx="221.5" cy="149.5" r=".5" fill="#b2b2b2" opacity=".5"/><circle cx="247.5" cy="149.5" r=".5" fill="#b2b2b2" opacity=".5"/><circle cx="273.5" cy="149.5" r=".5" fill="#b2b2b2" opacity=".5"/><circle cx="299.5" cy="149.5" r=".5" fill="#b2b2b2" opacity=".5"/><circle cx="325.5" cy="149.5" r=".5" fill="#b2b2b2" opacity=".5"/><circle cx="351.5" cy="149.5" r=".5" fill="#b2b2b2" opacity=".5"/><circle cx="377.5" cy="149.5" r=".5" fill="#b2b2b2" opacity=".5"/><circle cx="403.5" cy="149.5" r=".5" fill="#b2b2b2" opacity=".5"/><circle cx="429.5" cy="149.5" r=".5" fill="#b2b2b2" opacity=".5"/><circle cx="455.5" cy="149.5" r=".5" fill="#b2b2b2" opacity=".5"/><circle cx="481.5" cy="149.5" r=".5" fill="#b2b2b2" opacity=".5"/><circle cx="507.5" cy="149.5" r=".5" fill="#b2b2b2" opacity=".5"/><circle cx="533.5" cy="149.5" r=".5" fill="#b2b2b2" opacity=".5"/><circle cx="559.5" cy="149.5" r=".5" fill="#b2b2b2" opacity=".5"/><circle cx="585.5" cy="149.5" r=".5" fill="#b2b2b2" opacity=".5"/><circle cx="611.5" cy="149.5" r=".5" fill="#b2b2b2" opacity=".5"/><circle cx="637.5" cy="149.5" r=".5" fill="#b2b2b2" opacity=".5"/><circle cx="663.5" cy="149.5" r=".5" fill="#b2b2b2" opacity=".5"/><circle cx="689.5" cy="149.5" r=".5" fill="#b2b2b2" opacity=".5"/><circle cx="715.5" cy="149.5" r=".5" fill="#b2b2b2" opacity=".5"/><circle cx="741.5" cy="149.5" r=".5" fill="#b2b2b2" opacity=".5"/><circle cx="767.5" cy="149.5" r=".5" fill="#b2b2b2" opacity=".5"/><circle cx="793.5" cy="149.5" r=".5" fill="#b2b2b2" opacity=".5"/><circle cx="819.5" cy="149.5" r=".5" fill="#b2b2b2" opacity=".5"/><circle cx="845.5" cy="149.5" r=".5" fill="#b2b2b2" opacity=".5"/><circle cx="871.5" cy="149.5" r=".5" fill="#b2b2b2" opacity=".5"/><circle cx="897.5" cy="149.5" r=".5" fill="#b2b2b2" opacity=".5"/><circle cx="923.5" cy="149.5" r=".5" fill="#b2b2b2" opacity=".5"/><circle cx="949.5" cy="149.5" r=".5" fill="#b2b2b2" opacity=".5"/><circle cx="975.5" cy="149.5" r=".5" fill="#b2b2b2" opacity=".5"/><circle cx="1001.5" cy="149.5" r=".5" fill="#b2b2b2" opacity=".5"/><circle cx="1027.5" cy="149.5" r=".5" fill="#b2b2b2" opacity=".5"/><circle cx="1053.5" cy="149.5" r=".5" fill="#b2b2b2" opacity=".5"/><circle cx="1079.5" cy="149.5" r=".5" fill="#b2b2b2" opacity=".5"/><circle cx="1105.5" cy="149.5" r=".5" fill="#b2b2b2" opacity=".5"/><circle cx="1131.5" cy="149.5" r=".5" fill="#b2b2b2" opacity=".5"/><circle cx="1157.5" cy="149.5" r=".5" fill="#b2b2b2" opacity=".5"/><circle cx="1183.5" cy="149.5" r=".5" fill="#b2b2b2" opacity=".5"/><circle cx="1209.5" cy="149.5" r=".5" fill="#b2b2b2" opacity=".5"/><circle cx="1235.5" cy="149.5" r=".5" fill="#b2b2b2" opacity=".5"/><circle cx="1261.5" cy="149.5" r=".5" fill="#b2b2b2" opacity=".5"/><circle cx="13.5" cy="175.5" r=".5" fill="#b2b2b2" opacity=".5"/><circle cx="39.5" cy="175.5" r=".5" fill="#b2b2b2" opacity=".5"/><circle cx="65.5" cy="175.5" r=".5" fill="#b2b2b2" opacity=".5"/><circle cx="91.5" cy="175.5" r=".5" fill="#b2b2b2" opacity=".5"/><circle cx="117.5" cy="175.5" r=".5" fill="#b2b2b2" opacity=".5"/><circle cx="143.5" cy="175.5" r=".5" fill="#b2b2b2" opacity=".5"/><circle cx="169.5" cy="175.5" r=".5" fill="#b2b2b2" opacity=".5"/><circle cx="195.5" cy="175.5" r=".5" fill="#b2b2b2" opacity=".5"/><circle cx="221.5" cy="175.5" r=".5" fill="#b2b2b2" opacity=".5"/><circle cx="247.5" cy="175.5" r=".5" fill="#b2b2b2" opacity=".5"/><circle cx="273.5" cy="175.5" r=".5" fill="#b2b2b2" opacity=".5"/><circle cx="299.5" cy="175.5" r=".5" fill="#b2b2b2" opacity=".5"/><circle cx="325.5" cy="175.5" r=".5" fill="#b2b2b2" opacity=".5"/><circle cx="351.5" cy="175.5" r=".5" fill="#b2b2b2" opacity=".5"/><circle cx="377.5" cy="175.5" r=".5" fill="#b2b2b2" opacity=".5"/><circle cx="403.5" cy="175.5" r=".5" fill="#b2b2b2" opacity=".5"/><circle cx="429.5" cy="175.5" r=".5" fill="#b2b2b2" opacity=".5"/><circle cx="455.5" cy="175.5" r=".5" fill="#b2b2b2" opacity=".5"/><circle cx="481.5" cy="175.5" r=".5" fill="#b2b2b2" opacity=".5"/><circle cx="507.5" cy="175.5" r=".5" fill="#b2b2b2" opacity=".5"/><circle cx="533.5" cy="175.5" r=".5" fill="#b2b2b2" opacity=".5"/><circle cx="559.5" cy="175.5" r=".5" fill="#b2b2b2" opacity=".5"/><circle cx="585.5" cy="175.5" r=".5" fill="#b2b2b2" opacity=".5"/><circle cx="611.5" cy="175.5" r=".5" fill="#b2b2b2" opacity=".5"/><circle cx="637.5" cy="175.5" r=".5" fill="#b2b2b2" opacity=".5"/><circle cx="663.5" cy="175.5" r=".5" fill="#b2b2b2" opacity=".5"/><circle cx="689.5" cy="175.5" r=".5" fill="#b2b2b2" opacity=".5"/><circle cx="715.5" cy="175.5" r=".5" fill="#b2b2b2" opacity=".5"/><circle cx="741.5" cy="175.5" r=".5" fill="#b2b2b2" opacity=".5"/><circle cx="767.5" cy="175.5" r=".5" fill="#b2b2b2" opacity=".5"/><circle cx="793.5" cy="175.5" r=".5" fill="#b2b2b2" opacity=".5"/><circle cx="819.5" cy="175.5" r=".5" fill="#b2b2b2" opacity=".5"/><circle cx="845.5" cy="175.5" r=".5" fill="#b2b2b2" opacity=".5"/><circle cx="871.5" cy="175.5" r=".5" fill="#b2b2b2" opacity=".5"/><circle cx="897.5" cy="175.5" r=".5" fill="#b2b2b2" opacity=".5"/><circle cx="923.5" cy="175.5" r=".5" fill="#b2b2b2" opacity=".5"/><circle cx="949.5" cy="175.5" r=".5" fill="#b2b2b2" opacity=".5"/><circle cx="975.5" cy="175.5" r=".5" fill="#b2b2b2" opacity=".5"/><circle cx="1001.5" cy="175.5" r=".5" fill="#b2b2b2" opacity=".5"/><circle cx="1027.5" cy="175.5" r=".5" fill="#b2b2b2" opacity=".5"/><circle cx="1053.5" cy="175.5" r=".5" fill="#b2b2b2" opacity=".5"/><circle cx="1079.5" cy="175.5" r=".5" fill="#b2b2b2" opacity=".5"/><circle cx="1105.5" cy="175.5" r=".5" fill="#b2b2b2" opacity=".5"/><circle cx="1131.5" cy="175.5" r=".5" fill="#b2b2b2" opacity=".5"/><circle cx="1157.5" cy="175.5" r=".5" fill="#b2b2b2" opacity=".5"/><circle cx="1183.5" cy="175.5" r=".5" fill="#b2b2b2" opacity=".5"/><circle cx="1209.5" cy="175.5" r=".5" fill="#b2b2b2" opacity=".5"/><circle cx="1235.5" cy="175.5" r=".5" fill="#b2b2b2" opacity=".5"/><circle cx="1261.5" cy="175.5" r=".5" fill="#b2b2b2" opacity=".5"/><circle cx="13.5" cy="201.5" r=".5" fill="#b2b2b2" opacity=".5"/><circle cx="39.5" cy="201.5" r=".5" fill="#b2b2b2" opacity=".5"/><circle cx="65.5" cy="201.5" r=".5" fill="#b2b2b2" opacity=".5"/><circle cx="91.5" cy="201.5" r=".5" fill="#b2b2b2" opacity=".5"/><circle cx="117.5" cy="201.5" r=".5" fill="#b2b2b2" opacity=".5"/><circle cx="143.5" cy="201.5" r=".5" fill="#b2b2b2" opacity=".5"/><circle cx="169.5" cy="201.5" r=".5" fill="#b2b2b2" opacity=".5"/><circle cx="195.5" cy="201.5" r=".5" fill="#b2b2b2" opacity=".5"/><circle cx="221.5" cy="201.5" r=".5" fill="#b2b2b2" opacity=".5"/><circle cx="247.5" cy="201.5" r=".5" fill="#b2b2b2" opacity=".5"/><circle cx="273.5" cy="201.5" r=".5" fill="#b2b2b2" opacity=".5"/><circle cx="299.5" cy="201.5" r=".5" fill="#b2b2b2" opacity=".5"/><circle cx="325.5" cy="201.5" r=".5" fill="#b2b2b2" opacity=".5"/><circle cx="351.5" cy="201.5" r=".5" fill="#b2b2b2" opacity=".5"/><circle cx="377.5" cy="201.5" r=".5" fill="#b2b2b2" opacity=".5"/><circle cx="403.5" cy="201.5" r=".5" fill="#b2b2b2" opacity=".5"/><circle cx="429.5" cy="201.5" r=".5" fill="#b2b2b2" opacity=".5"/><circle cx="455.5" cy="201.5" r=".5" fill="#b2b2b2" opacity=".5"/><circle cx="481.5" cy="201.5" r=".5" fill="#b2b2b2" opacity=".5"/><circle cx="507.5" cy="201.5" r=".5" fill="#b2b2b2" opacity=".5"/><circle cx="533.5" cy="201.5" r=".5" fill="#b2b2b2" opacity=".5"/><circle cx="559.5" cy="201.5" r=".5" fill="#b2b2b2" opacity=".5"/><circle cx="585.5" cy="201.5" r=".5" fill="#b2b2b2" opacity=".5"/><circle cx="611.5" cy="201.5" r=".5" fill="#b2b2b2" opacity=".5"/><circle cx="637.5" cy="201.5" r=".5" fill="#b2b2b2" opacity=".5"/><circle cx="663.5" cy="201.5" r=".5" fill="#b2b2b2" opacity=".5"/><circle cx="689.5" cy="201.5" r=".5" fill="#b2b2b2" opacity=".5"/><circle cx="715.5" cy="201.5" r=".5" fill="#b2b2b2" opacity=".5"/><circle cx="741.5" cy="201.5" r=".5" fill="#b2b2b2" opacity=".5"/><circle cx="767.5" cy="201.5" r=".5" fill="#b2b2b2" opacity=".5"/><circle cx="793.5" cy="201.5" r=".5" fill="#b2b2b2" opacity=".5"/><circle cx="819.5" cy="201.5" r=".5" fill="#b2b2b2" opacity=".5"/><circle cx="845.5" cy="201.5" r=".5" fill="#b2b2b2" opacity=".5"/><circle cx="871.5" cy="201.5" r=".5" fill="#b2b2b2" opacity=".5"/><circle cx="897.5" cy="201.5" r=".5" fill="#b2b2b2" opacity=".5"/><circle cx="923.5" cy="201.5" r=".5" fill="#b2b2b2" opacity=".5"/><circle cx="949.5" cy="201.5" r=".5" fill="#b2b2b2" opacity=".5"/><circle cx="975.5" cy="201.5" r=".5" fill="#b2b2b2" opacity=".5"/><circle cx="1001.5" cy="201.5" r=".5" fill="#b2b2b2" opacity=".5"/><circle cx="1027.5" cy="201.5" r=".5" fill="#b2b2b2" opacity=".5"/><circle cx="1053.5" cy="201.5" r=".5" fill="#b2b2b2" opacity=".5"/><circle cx="1079.5" cy="201.5" r=".5" fill="#b2b2b2" opacity=".5"/><circle cx="1105.5" cy="201.5" r=".5" fill="#b2b2b2" opacity=".5"/><circle cx="1131.5" cy="201.5" r=".5" fill="#b2b2b2" opacity=".5"/><circle cx="1157.5" cy="201.5" r=".5" fill="#b2b2b2" opacity=".5"/><circle cx="1183.5" cy="201.5" r=".5" fill="#b2b2b2" opacity=".5"/><circle cx="1209.5" cy="201.5" r=".5" fill="#b2b2b2" opacity=".5"/><circle cx="1235.5" cy="201.5" r=".5" fill="#b2b2b2" opacity=".5"/><circle cx="1261.5" cy="201.5" r=".5" fill="#b2b2b2" opacity=".5"/><circle cx="13.5" cy="227.5" r=".5" fill="#b2b2b2" opacity=".5"/><circle cx="39.5" cy="227.5" r=".5" fill="#b2b2b2" opacity=".5"/><circle cx="65.5" cy="227.5" r=".5" fill="#b2b2b2" opacity=".5"/><circle cx="91.5" cy="227.5" r=".5" fill="#b2b2b2" opacity=".5"/><circle cx="117.5" cy="227.5" r=".5" fill="#b2b2b2" opacity=".5"/><circle cx="143.5" cy="227.5" r=".5" fill="#b2b2b2" opacity=".5"/><circle cx="169.5" cy="227.5" r=".5" fill="#b2b2b2" opacity=".5"/><circle cx="195.5" cy="227.5" r=".5" fill="#b2b2b2" opacity=".5"/><circle cx="221.5" cy="227.5" r=".5" fill="#b2b2b2" opacity=".5"/><circle cx="247.5" cy="227.5" r=".5" fill="#b2b2b2" opacity=".5"/><circle cx="273.5" cy="227.5" r=".5" fill="#b2b2b2" opacity=".5"/><circle cx="299.5" cy="227.5" r=".5" fill="#b2b2b2" opacity=".5"/><circle cx="325.5" cy="227.5" r=".5" fill="#b2b2b2" opacity=".5"/><circle cx="351.5" cy="227.5" r=".5" fill="#b2b2b2" opacity=".5"/><circle cx="377.5" cy="227.5" r=".5" fill="#b2b2b2" opacity=".5"/><circle cx="403.5" cy="227.5" r=".5" fill="#b2b2b2" opacity=".5"/><circle cx="429.5" cy="227.5" r=".5" fill="#b2b2b2" opacity=".5"/><circle cx="455.5" cy="227.5" r=".5" fill="#b2b2b2" opacity=".5"/><circle cx="481.5" cy="227.5" r=".5" fill="#b2b2b2" opacity=".5"/><circle cx="507.5" cy="227.5" r=".5" fill="#b2b2b2" opacity=".5"/><circle cx="533.5" cy="227.5" r=".5" fill="#b2b2b2" opacity=".5"/><circle cx="559.5" cy="227.5" r=".5" fill="#b2b2b2" opacity=".5"/><circle cx="585.5" cy="227.5" r=".5" fill="#b2b2b2" opacity=".5"/><circle cx="611.5" cy="227.5" r=".5" fill="#b2b2b2" opacity=".5"/><circle cx="637.5" cy="227.5" r=".5" fill="#b2b2b2" opacity=".5"/><circle cx="663.5" cy="227.5" r=".5" fill="#b2b2b2" opacity=".5"/><circle cx="689.5" cy="227.5" r=".5" fill="#b2b2b2" opacity=".5"/><circle cx="715.5" cy="227.5" r=".5" fill="#b2b2b2" opacity=".5"/><circle cx="741.5" cy="227.5" r=".5" fill="#b2b2b2" opacity=".5"/><circle cx="767.5" cy="227.5" r=".5" fill="#b2b2b2" opacity=".5"/><circle cx="793.5" cy="227.5" r=".5" fill="#b2b2b2" opacity=".5"/><circle cx="819.5" cy="227.5" r=".5" fill="#b2b2b2" opacity=".5"/><circle cx="845.5" cy="227.5" r=".5" fill="#b2b2b2" opacity=".5"/><circle cx="871.5" cy="227.5" r=".5" fill="#b2b2b2" opacity=".5"/><circle cx="897.5" cy="227.5" r=".5" fill="#b2b2b2" opacity=".5"/><circle cx="923.5" cy="227.5" r=".5" fill="#b2b2b2" opacity=".5"/><circle cx="949.5" cy="227.5" r=".5" fill="#b2b2b2" opacity=".5"/><circle cx="975.5" cy="227.5" r=".5" fill="#b2b2b2" opacity=".5"/><circle cx="1001.5" cy="227.5" r=".5" fill="#b2b2b2" opacity=".5"/><circle cx="1027.5" cy="227.5" r=".5" fill="#b2b2b2" opacity=".5"/><circle cx="1053.5" cy="227.5" r=".5" fill="#b2b2b2" opacity=".5"/><circle cx="1079.5" cy="227.5" r=".5" fill="#b2b2b2" opacity=".5"/><circle cx="1105.5" cy="227.5" r=".5" fill="#b2b2b2" opacity=".5"/><circle cx="1131.5" cy="227.5" r=".5" fill="#b2b2b2" opacity=".5"/><circle cx="1157.5" cy="227.5" r=".5" fill="#b2b2b2" opacity=".5"/><circle cx="1183.5" cy="227.5" r=".5" fill="#b2b2b2" opacity=".5"/><circle cx="1209.5" cy="227.5" r=".5" fill="#b2b2b2" opacity=".5"/><circle cx="1235.5" cy="227.5" r=".5" fill="#b2b2b2" opacity=".5"/><circle cx="1261.5" cy="227.5" r=".5" fill="#b2b2b2" opacity=".5"/><circle cx="13.5" cy="253.5" r=".5" fill="#b2b2b2" opacity=".5"/><circle cx="39.5" cy="253.5" r=".5" fill="#b2b2b2" opacity=".5"/><circle cx="65.5" cy="253.5" r=".5" fill="#b2b2b2" opacity=".5"/><circle cx="91.5" cy="253.5" r=".5" fill="#b2b2b2" opacity=".5"/><circle cx="117.5" cy="253.5" r=".5" fill="#b2b2b2" opacity=".5"/><circle cx="143.5" cy="253.5" r=".5" fill="#b2b2b2" opacity=".5"/><circle cx="169.5" cy="253.5" r=".5" fill="#b2b2b2" opacity=".5"/><circle cx="195.5" cy="253.5" r=".5" fill="#b2b2b2" opacity=".5"/><circle cx="221.5" cy="253.5" r=".5" fill="#b2b2b2" opacity=".5"/><circle cx="247.5" cy="253.5" r=".5" fill="#b2b2b2" opacity=".5"/><circle cx="273.5" cy="253.5" r=".5" fill="#b2b2b2" opacity=".5"/><circle cx="299.5" cy="253.5" r=".5" fill="#b2b2b2" opacity=".5"/><circle cx="325.5" cy="253.5" r=".5" fill="#b2b2b2" opacity=".5"/><circle cx="351.5" cy="253.5" r=".5" fill="#b2b2b2" opacity=".5"/><circle cx="377.5" cy="253.5" r=".5" fill="#b2b2b2" opacity=".5"/><circle cx="403.5" cy="253.5" r=".5" fill="#b2b2b2" opacity=".5"/><circle cx="429.5" cy="253.5" r=".5" fill="#b2b2b2" opacity=".5"/><circle cx="455.5" cy="253.5" r=".5" fill="#b2b2b2" opacity=".5"/><circle cx="481.5" cy="253.5" r=".5" fill="#b2b2b2" opacity=".5"/><circle cx="507.5" cy="253.5" r=".5" fill="#b2b2b2" opacity=".5"/><circle cx="533.5" cy="253.5" r=".5" fill="#b2b2b2" opacity=".5"/><circle cx="559.5" cy="253.5" r=".5" fill="#b2b2b2" opacity=".5"/><circle cx="585.5" cy="253.5" r=".5" fill="#b2b2b2" opacity=".5"/><circle cx="611.5" cy="253.5" r=".5" fill="#b2b2b2" opacity=".5"/><circle cx="637.5" cy="253.5" r=".5" fill="#b2b2b2" opacity=".5"/><circle cx="663.5" cy="253.5" r=".5" fill="#b2b2b2" opacity=".5"/><circle cx="689.5" cy="253.5" r=".5" fill="#b2b2b2" opacity=".5"/><circle cx="715.5" cy="253.5" r=".5" fill="#b2b2b2" opacity=".5"/><circle cx="741.5" cy="253.5" r=".5" fill="#b2b2b2" opacity=".5"/><circle cx="767.5" cy="253.5" r=".5" fill="#b2b2b2" opacity=".5"/><circle cx="793.5" cy="253.5" r=".5" fill="#b2b2b2" opacity=".5"/><circle cx="819.5" cy="253.5" r=".5" fill="#b2b2b2" opacity=".5"/><circle cx="845.5" cy="253.5" r=".5" fill="#b2b2b2" opacity=".5"/><circle cx="871.5" cy="253.5" r=".5" fill="#b2b2b2" opacity=".5"/><circle cx="897.5" cy="253.5" r=".5" fill="#b2b2b2" opacity=".5"/><circle cx="923.5" cy="253.5" r=".5" fill="#b2b2b2" opacity=".5"/><circle cx="949.5" cy="253.5" r=".5" fill="#b2b2b2" opacity=".5"/><circle cx="975.5" cy="253.5" r=".5" fill="#b2b2b2" opacity=".5"/><circle cx="1001.5" cy="253.5" r=".5" fill="#b2b2b2" opacity=".5"/><circle cx="1027.5" cy="253.5" r=".5" fill="#b2b2b2" opacity=".5"/><circle cx="1053.5" cy="253.5" r=".5" fill="#b2b2b2" opacity=".5"/><circle cx="1079.5" cy="253.5" r=".5" fill="#b2b2b2" opacity=".5"/><circle cx="1105.5" cy="253.5" r=".5" fill="#b2b2b2" opacity=".5"/><circle cx="1131.5" cy="253.5" r=".5" fill="#b2b2b2" opacity=".5"/><circle cx="1157.5" cy="253.5" r=".5" fill="#b2b2b2" opacity=".5"/><circle cx="1183.5" cy="253.5" r=".5" fill="#b2b2b2" opacity=".5"/><circle cx="1209.5" cy="253.5" r=".5" fill="#b2b2b2" opacity=".5"/><circle cx="1235.5" cy="253.5" r=".5" fill="#b2b2b2" opacity=".5"/><circle cx="1261.5" cy="253.5" r=".5" fill="#b2b2b2" opacity=".5"/></g><defs><clipPath id="a"><path fill="#fff" d="M.5 0h1277v273H.5z"/></clipPath></defs></svg>