<svg width="333" height="261" viewBox="0 0 333 261" fill="none" xmlns="http://www.w3.org/2000/svg">
<g clip-path="url(#clip0_2627_69091)">
<rect width="332" height="260" transform="translate(0.39502 0.335449)" fill="white"/>
<rect width="33.1893" height="33.3142" transform="matrix(1 -8.77517e-08 -8.70951e-08 -1 129.5 292.483)" stroke="#396764" stroke-opacity="0.1" stroke-width="0.386912"/>
<rect width="33.1893" height="33.3142" transform="matrix(1 -8.77517e-08 -8.70951e-08 -1 -3.29492 292.483)" stroke="#396764" stroke-opacity="0.1" stroke-width="0.386912"/>
<rect width="33.1893" height="33.3142" transform="matrix(1 -8.77517e-08 -8.70951e-08 -1 162.689 292.483)" stroke="#396764" stroke-opacity="0.1" stroke-width="0.386912"/>
<rect width="33.1893" height="33.3142" transform="matrix(1 -8.77517e-08 -8.70951e-08 -1 29.897 292.483)" stroke="#396764" stroke-opacity="0.1" stroke-width="0.386912"/>
<rect width="33.1893" height="33.3142" transform="matrix(1 -8.77517e-08 -8.70951e-08 -1 195.877 292.483)" stroke="#396764" stroke-opacity="0.1" stroke-width="0.386912"/>
<rect width="33.1893" height="33.3142" transform="matrix(1 -8.77517e-08 -8.70951e-08 -1 63.0859 292.483)" stroke="#396764" stroke-opacity="0.1" stroke-width="0.386912"/>
<rect width="33.1893" height="33.3142" transform="matrix(1 -8.77517e-08 -8.70951e-08 -1 229.07 292.483)" stroke="#396764" stroke-opacity="0.1" stroke-width="0.386912"/>
<rect width="33.1893" height="33.3142" transform="matrix(1 -8.77517e-08 -8.70951e-08 -1 96.2783 292.483)" stroke="#396764" stroke-opacity="0.1" stroke-width="0.386912"/>
<rect width="33.1893" height="33.3142" transform="matrix(1 -8.77517e-08 -8.70951e-08 -1 129.5 259.167)" stroke="#396764" stroke-opacity="0.1" stroke-width="0.386912"/>
<rect width="33.1893" height="33.3142" transform="matrix(1 -8.77517e-08 -8.70951e-08 -1 295.444 259.167)" stroke="#396764" stroke-opacity="0.1" stroke-width="0.386912"/>
<rect width="33.1893" height="33.3142" transform="matrix(1 -8.77517e-08 -8.70951e-08 -1 129.5 225.855)" stroke="#396764" stroke-opacity="0.1" stroke-width="0.386912"/>
<rect width="33.1893" height="33.3142" transform="matrix(1 -8.77517e-08 -8.70951e-08 -1 295.444 225.855)" stroke="#396764" stroke-opacity="0.1" stroke-width="0.386912"/>
<rect width="33.1893" height="33.3142" transform="matrix(1 -8.77517e-08 -8.70951e-08 -1 -3.29492 259.167)" stroke="#396764" stroke-opacity="0.1" stroke-width="0.386912"/>
<rect width="33.1893" height="33.3142" transform="matrix(1 -8.77517e-08 -8.70951e-08 -1 162.689 259.167)" stroke="#396764" stroke-opacity="0.1" stroke-width="0.386912"/>
<rect width="33.1893" height="33.3142" transform="matrix(1 -8.77517e-08 -8.70951e-08 -1 328.636 259.167)" stroke="#396764" stroke-opacity="0.1" stroke-width="0.386912"/>
<rect width="33.1893" height="33.3142" transform="matrix(1 -8.77517e-08 -8.70951e-08 -1 -3.29492 225.855)" stroke="#396764" stroke-opacity="0.1" stroke-width="0.386912"/>
<rect width="33.1893" height="33.3142" transform="matrix(1 -8.77517e-08 -8.70951e-08 -1 162.689 225.855)" stroke="#396764" stroke-opacity="0.1" stroke-width="0.386912"/>
<rect width="33.1893" height="33.3142" transform="matrix(1 -8.77517e-08 -8.70951e-08 -1 328.636 225.855)" stroke="#396764" stroke-opacity="0.1" stroke-width="0.386912"/>
<rect width="33.1893" height="33.3142" transform="matrix(1 -8.77517e-08 -8.70951e-08 -1 29.897 259.167)" stroke="#396764" stroke-opacity="0.1" stroke-width="0.386912"/>
<rect width="33.1893" height="33.3142" transform="matrix(1 -8.77517e-08 -8.70951e-08 -1 195.877 259.167)" stroke="#396764" stroke-opacity="0.1" stroke-width="0.386912"/>
<rect width="33.1893" height="33.3142" transform="matrix(1 -8.77517e-08 -8.70951e-08 -1 29.897 225.855)" stroke="#396764" stroke-opacity="0.1" stroke-width="0.386912"/>
<rect width="33.1893" height="33.3142" transform="matrix(1 -8.77517e-08 -8.70951e-08 -1 195.877 225.855)" stroke="#396764" stroke-opacity="0.1" stroke-width="0.386912"/>
<rect width="33.1893" height="33.3142" transform="matrix(1 -8.77517e-08 -8.70951e-08 -1 63.0859 259.167)" stroke="#396764" stroke-opacity="0.1" stroke-width="0.386912"/>
<rect width="33.1893" height="33.3142" transform="matrix(1 -8.77517e-08 -8.70951e-08 -1 63.0859 225.855)" stroke="#396764" stroke-opacity="0.1" stroke-width="0.386912"/>
<rect width="33.1893" height="33.3142" transform="matrix(1 -8.77517e-08 -8.70951e-08 -1 229.07 225.855)" stroke="#396764" stroke-opacity="0.1" stroke-width="0.386912"/>
<rect width="33.1893" height="33.3142" transform="matrix(1 -8.77517e-08 -8.70951e-08 -1 96.2783 259.167)" stroke="#396764" stroke-opacity="0.1" stroke-width="0.386912"/>
<rect width="33.1893" height="33.3142" transform="matrix(1 -8.77517e-08 -8.70951e-08 -1 262.262 259.167)" stroke="#396764" stroke-opacity="0.1" stroke-width="0.386912"/>
<rect width="33.1893" height="33.3142" transform="matrix(1 -8.77517e-08 -8.70951e-08 -1 96.2783 225.855)" stroke="#396764" stroke-opacity="0.1" stroke-width="0.386912"/>
<rect width="33.1893" height="33.3142" transform="matrix(1 -8.77517e-08 -8.70951e-08 -1 262.262 225.855)" stroke="#396764" stroke-opacity="0.1" stroke-width="0.386912"/>
<rect width="33.1893" height="33.3142" transform="matrix(1 -8.77517e-08 -8.70951e-08 -1 129.5 192.54)" stroke="#396764" stroke-opacity="0.1" stroke-width="0.386912"/>
<rect width="33.1893" height="33.3142" transform="matrix(1 -8.77517e-08 -8.70951e-08 -1 295.444 192.54)" stroke="#396764" stroke-opacity="0.1" stroke-width="0.386912"/>
<rect width="33.1893" height="33.3142" transform="matrix(1 -8.77517e-08 -8.70951e-08 -1 129.5 159.225)" stroke="#396764" stroke-opacity="0.1" stroke-width="0.386912"/>
<rect width="33.1893" height="33.3142" transform="matrix(1 -8.77517e-08 -8.70951e-08 -1 -3.29492 192.54)" stroke="#396764" stroke-opacity="0.1" stroke-width="0.386912"/>
<rect width="33.1893" height="33.3142" transform="matrix(1 -8.77517e-08 -8.70951e-08 -1 162.689 192.54)" stroke="#396764" stroke-opacity="0.1" stroke-width="0.386912"/>
<rect width="33.1893" height="33.3142" transform="matrix(1 -8.77517e-08 -8.70951e-08 -1 328.636 192.54)" stroke="#396764" stroke-opacity="0.1" stroke-width="0.386912"/>
<rect width="33.1893" height="33.3142" transform="matrix(1 -8.77517e-08 -8.70951e-08 -1 -3.29492 159.225)" stroke="#396764" stroke-opacity="0.1" stroke-width="0.386912"/>
<rect width="33.1893" height="33.3142" transform="matrix(1 -8.77517e-08 -8.70951e-08 -1 162.689 159.225)" stroke="#396764" stroke-opacity="0.1" stroke-width="0.386912"/>
<rect width="33.1893" height="33.3142" transform="matrix(1 -8.77517e-08 -8.70951e-08 -1 29.897 192.54)" stroke="#396764" stroke-opacity="0.1" stroke-width="0.386912"/>
<rect width="33.1893" height="33.3142" transform="matrix(1 -8.77517e-08 -8.70951e-08 -1 195.877 192.54)" stroke="#396764" stroke-opacity="0.1" stroke-width="0.386912"/>
<rect width="33.1893" height="33.3142" transform="matrix(1 -8.77517e-08 -8.70951e-08 -1 29.897 159.225)" stroke="#396764" stroke-opacity="0.1" stroke-width="0.386912"/>
<rect width="33.1893" height="33.3142" transform="matrix(1 -8.77517e-08 -8.70951e-08 -1 195.877 159.225)" stroke="#396764" stroke-opacity="0.1" stroke-width="0.386912"/>
<rect width="33.1893" height="33.3142" transform="matrix(1 -8.77517e-08 -8.70951e-08 -1 229.07 192.54)" stroke="#396764" stroke-opacity="0.1" stroke-width="0.386912"/>
<rect width="33.1893" height="33.3142" transform="matrix(1 -8.77517e-08 -8.70951e-08 -1 63.0859 159.225)" stroke="#396764" stroke-opacity="0.1" stroke-width="0.386912"/>
<rect width="33.1893" height="33.3142" transform="matrix(1 -8.77517e-08 -8.70951e-08 -1 229.07 159.225)" stroke="#396764" stroke-opacity="0.1" stroke-width="0.386912"/>
<rect width="33.1893" height="33.3142" transform="matrix(1 -8.77517e-08 -8.70951e-08 -1 96.2783 192.54)" stroke="#396764" stroke-opacity="0.1" stroke-width="0.386912"/>
<rect width="33.1893" height="33.3142" transform="matrix(1 -8.77517e-08 -8.70951e-08 -1 262.262 192.54)" stroke="#396764" stroke-opacity="0.1" stroke-width="0.386912"/>
<rect width="33.1893" height="33.3142" transform="matrix(1 -8.77517e-08 -8.70951e-08 -1 96.2783 159.225)" stroke="#396764" stroke-opacity="0.1" stroke-width="0.386912"/>
<rect width="33.1893" height="33.3142" transform="matrix(1 -8.77517e-08 -8.70951e-08 -1 -3.29492 125.911)" stroke="#396764" stroke-opacity="0.1" stroke-width="0.386912"/>
<rect width="33.1893" height="33.3142" transform="matrix(1 -8.77517e-08 -8.70951e-08 -1 162.689 125.911)" stroke="#396764" stroke-opacity="0.1" stroke-width="0.386912"/>
<rect width="33.1893" height="33.3142" transform="matrix(1 -8.77517e-08 -8.70951e-08 -1 -3.29492 92.5984)" stroke="#396764" stroke-opacity="0.1" stroke-width="0.386912"/>
<rect width="33.1893" height="33.3142" transform="matrix(1 -8.77517e-08 -8.70951e-08 -1 29.897 125.911)" stroke="#396764" stroke-opacity="0.1" stroke-width="0.386912"/>
<rect width="33.1893" height="33.3142" transform="matrix(1 -8.77517e-08 -8.70951e-08 -1 195.877 92.5986)" stroke="#396764" stroke-opacity="0.1" stroke-width="0.386912"/>
<rect width="33.1893" height="33.3142" transform="matrix(1 -8.77517e-08 -8.70951e-08 -1 63.0859 125.911)" stroke="#396764" stroke-opacity="0.1" stroke-width="0.386912"/>
<rect width="33.1893" height="33.3142" transform="matrix(1 -8.77517e-08 -8.70951e-08 -1 229.07 125.911)" stroke="#396764" stroke-opacity="0.1" stroke-width="0.386912"/>
<rect width="33.1893" height="33.3142" transform="matrix(1 -8.77517e-08 -8.70951e-08 -1 63.0859 92.5984)" stroke="#396764" stroke-opacity="0.1" stroke-width="0.386912"/>
<rect width="33.1893" height="33.3142" transform="matrix(1 -8.77517e-08 -8.70951e-08 -1 229.07 92.5986)" stroke="#396764" stroke-opacity="0.1" stroke-width="0.386912"/>
<rect width="33.1893" height="33.3142" transform="matrix(1 -8.77517e-08 -8.70951e-08 -1 262.262 92.5984)" stroke="#396764" stroke-opacity="0.1" stroke-width="0.386912"/>
<rect width="33.1893" height="33.3142" transform="matrix(1 -8.77517e-08 -8.70951e-08 -1 295.444 59.2832)" stroke="#396764" stroke-opacity="0.1" stroke-width="0.386912"/>
<rect width="33.1893" height="33.3142" transform="matrix(1 -8.77517e-08 -8.70951e-08 -1 295.444 25.9695)" stroke="#396764" stroke-opacity="0.1" stroke-width="0.386912"/>
<rect width="33.1893" height="33.3142" transform="matrix(1 -8.77517e-08 -8.70951e-08 -1 -3.29492 59.2832)" stroke="#396764" stroke-opacity="0.1" stroke-width="0.386912"/>
<rect width="33.1893" height="33.3142" transform="matrix(1 -8.77517e-08 -8.70951e-08 -1 328.636 59.2832)" stroke="#396764" stroke-opacity="0.1" stroke-width="0.386912"/>
<rect width="33.1893" height="33.3142" transform="matrix(1 -8.77517e-08 -8.70951e-08 -1 -3.29492 25.9695)" stroke="#396764" stroke-opacity="0.1" stroke-width="0.386912"/>
<rect width="33.1893" height="33.3142" transform="matrix(1 -8.77517e-08 -8.70951e-08 -1 328.636 25.9695)" stroke="#396764" stroke-opacity="0.1" stroke-width="0.386912"/>
<rect width="33.1893" height="33.3142" transform="matrix(1 -8.77517e-08 -8.70951e-08 -1 29.897 59.2832)" stroke="#396764" stroke-opacity="0.1" stroke-width="0.386912"/>
<rect width="33.1893" height="33.3142" transform="matrix(1 -8.77517e-08 -8.70951e-08 -1 29.897 25.9695)" stroke="#396764" stroke-opacity="0.1" stroke-width="0.386912"/>
<rect width="33.1893" height="33.3142" transform="matrix(1 -8.77517e-08 -8.70951e-08 -1 63.0859 59.2832)" stroke="#396764" stroke-opacity="0.1" stroke-width="0.386912"/>
<rect width="33.1893" height="33.3142" transform="matrix(1 -8.77517e-08 -8.70951e-08 -1 229.07 59.2832)" stroke="#396764" stroke-opacity="0.1" stroke-width="0.386912"/>
<rect width="33.1893" height="33.3142" transform="matrix(1 -8.77517e-08 -8.70951e-08 -1 63.0859 25.9695)" stroke="#396764" stroke-opacity="0.1" stroke-width="0.386912"/>
<rect width="33.1893" height="33.3142" transform="matrix(1 -8.77517e-08 -8.70951e-08 -1 262.262 25.9695)" stroke="#396764" stroke-opacity="0.1" stroke-width="0.386912"/>
<rect width="33.1893" height="33.3142" transform="matrix(1 -8.77517e-08 -8.70951e-08 -1 63.0869 192.541)" stroke="#346458" stroke-opacity="0.3" stroke-width="0.898712"/>
<rect width="33.1893" height="33.3142" transform="matrix(1 -8.77517e-08 -8.70951e-08 -1 96.2793 92.5999)" stroke="#346458" stroke-opacity="0.3" stroke-width="0.898712"/>
<rect width="33.1893" height="33.3142" transform="matrix(1 -8.77517e-08 -8.70951e-08 -1 229.071 25.9709)" stroke="#346458" stroke-opacity="0.3" stroke-width="0.898712"/>
<rect width="33.1893" height="33.3142" transform="matrix(1 -8.77517e-08 -8.70951e-08 -1 262.263 159.226)" stroke="#346458" stroke-opacity="0.3" stroke-width="0.898712"/>
<rect width="33.1893" height="33.3142" transform="matrix(1 -8.77517e-08 -8.70951e-08 -1 195.879 125.912)" stroke="#346458" stroke-opacity="0.3" stroke-width="0.898712"/>
<rect width="33.1893" height="33.3142" transform="matrix(1 -8.77517e-08 -8.70951e-08 -1 229.071 259.169)" stroke="#346458" stroke-opacity="0.3" stroke-width="0.898712"/>
<rect width="33.1893" height="33.3142" transform="matrix(1 -8.77517e-08 -8.70951e-08 -1 262.263 59.2847)" stroke="#346458" stroke-opacity="0.3" stroke-width="0.898712"/>
<g filter="url(#filter0_f_2627_69091)">
<path d="M387.396 210.335L-22.6045 210.335L117.838 121.335L238.487 121.335L387.396 210.335Z" fill="#AFFDF4"/>
</g>
<g filter="url(#filter1_b_2627_69091)">
<rect x="19.3955" y="77.3354" width="293" height="42" rx="21" fill="url(#paint0_linear_2627_69091)"/>
<path fill-rule="evenodd" clip-rule="evenodd" d="M46.6576 95.4558H49.6975V93.8941C49.6975 93.0546 49.017 92.3741 48.1775 92.3741C47.3381 92.3741 46.6576 93.0546 46.6576 93.8941V95.4558ZM45.0988 95.4558H43.9542C43.0934 95.4558 42.3955 96.1537 42.3955 97.0145V104.297C42.3955 105.157 43.0934 105.855 43.9542 105.855H52.4002C53.2611 105.855 53.9589 105.157 53.9589 104.297V97.0145C53.9589 96.1537 53.2611 95.4558 52.4002 95.4558H51.2562V93.8941C51.2562 92.1938 49.8778 90.8154 48.1775 90.8154C46.4772 90.8154 45.0988 92.1938 45.0988 93.8941V95.4558Z" fill="#707070"/>
<path d="M72.047 99.4394C72.071 98.5874 72.527 97.9154 73.391 97.9154C74.399 97.9154 74.735 98.5634 74.735 99.3674V102.835H75.863V99.1754C75.863 97.8914 75.179 96.8954 73.799 96.8954C73.139 96.8954 72.467 97.1234 72.047 97.7354V94.1474H70.919V102.835H72.047V99.4394ZM79.1693 95.2394H78.1373V96.1754C78.1373 96.6794 77.8733 97.0634 77.2493 97.0634H76.9373V98.0834H78.0413V101.251C78.0413 102.295 78.6653 102.895 79.6493 102.895C80.0333 102.895 80.3213 102.823 80.4173 102.787V101.827C80.3213 101.851 80.1173 101.875 79.9733 101.875C79.3853 101.875 79.1693 101.611 79.1693 101.083V98.0834H80.4173V97.0634H79.1693V95.2394ZM83.4349 95.2394H82.4029V96.1754C82.4029 96.6794 82.1389 97.0634 81.5149 97.0634H81.2029V98.0834H82.3069V101.251C82.3069 102.295 82.9309 102.895 83.9149 102.895C84.2989 102.895 84.5869 102.823 84.6829 102.787V101.827C84.5869 101.851 84.3829 101.875 84.2389 101.875C83.6509 101.875 83.4349 101.611 83.4349 101.083V98.0834H84.6829V97.0634H83.4349V95.2394ZM87.1873 105.115V102.055C87.4993 102.571 88.1713 102.991 89.0593 102.991C90.7513 102.991 91.7473 101.659 91.7473 99.9434C91.7473 98.2634 90.8233 96.9314 89.0953 96.9314C88.1593 96.9314 87.4753 97.3874 87.1633 97.9634V97.0634H86.0713V105.115H87.1873ZM90.5953 99.9434C90.5953 101.131 89.9353 101.983 88.8913 101.983C87.8593 101.983 87.1753 101.131 87.1753 99.9434C87.1753 98.7914 87.8593 97.9274 88.8913 97.9274C89.9473 97.9274 90.5953 98.7914 90.5953 99.9434ZM92.6446 101.335C92.7406 101.995 93.4126 103.015 94.9966 103.015C96.4246 103.015 97.1086 102.043 97.1086 101.227C97.1086 100.375 96.5566 99.7394 95.5126 99.5114L94.5766 99.3074C94.1326 99.2114 93.9166 98.9594 93.9166 98.6114C93.9166 98.2154 94.3006 97.8434 94.8766 97.8434C95.7886 97.8434 96.0286 98.5034 96.0766 98.8034L97.0726 98.4314C96.9526 97.9154 96.4606 96.8834 94.8766 96.8834C93.7486 96.8834 92.8246 97.7234 92.8246 98.7074C92.8246 99.5234 93.3646 100.135 94.2646 100.327L95.2486 100.543C95.7286 100.651 95.9926 100.927 95.9926 101.287C95.9926 101.695 95.6446 102.055 95.0086 102.055C94.1926 102.055 93.7366 101.575 93.6646 100.975L92.6446 101.335ZM98.5624 102.067C98.5624 102.535 98.9224 102.895 99.3904 102.895C99.8584 102.895 100.23 102.535 100.23 102.067C100.23 101.599 99.8584 101.227 99.3904 101.227C98.9224 101.227 98.5624 101.599 98.5624 102.067ZM98.5504 97.8434C98.5504 98.3114 98.9104 98.6714 99.3784 98.6714C99.8464 98.6714 100.218 98.3114 100.218 97.8434C100.218 97.3754 99.8464 97.0034 99.3784 97.0034C98.9104 97.0034 98.5504 97.3754 98.5504 97.8434ZM106.339 94.3274H105.247L101.131 102.835H102.223L106.339 94.3274ZM109.866 94.3274H108.774L104.658 102.835H105.75L109.866 94.3274ZM109.32 101.335C109.416 101.995 110.088 103.015 111.672 103.015C113.1 103.015 113.784 102.043 113.784 101.227C113.784 100.375 113.232 99.7394 112.188 99.5114L111.252 99.3074C110.808 99.2114 110.592 98.9594 110.592 98.6114C110.592 98.2154 110.976 97.8434 111.552 97.8434C112.464 97.8434 112.704 98.5034 112.752 98.8034L113.748 98.4314C113.628 97.9154 113.136 96.8834 111.552 96.8834C110.424 96.8834 109.5 97.7234 109.5 98.7074C109.5 99.5234 110.04 100.135 110.94 100.327L111.924 100.543C112.404 100.651 112.668 100.927 112.668 101.287C112.668 101.695 112.32 102.055 111.684 102.055C110.868 102.055 110.412 101.575 110.34 100.975L109.32 101.335ZM120.4 105.115V97.0634H119.308V97.9514C119.068 97.4354 118.456 96.9194 117.46 96.9194C115.768 96.9194 114.748 98.2994 114.748 99.9314C114.748 101.611 115.828 102.991 117.484 102.991C118.336 102.991 118.984 102.607 119.284 102.019V105.115H120.4ZM115.9 99.9314C115.9 98.7434 116.548 97.9154 117.592 97.9154C118.612 97.9154 119.296 98.7434 119.296 99.9314C119.296 101.119 118.612 101.995 117.592 101.995C116.56 101.995 115.9 101.119 115.9 99.9314ZM127.144 97.0634H125.932L124.276 101.515L122.632 97.0634H121.36L123.7 102.835H124.84L127.144 97.0634ZM131.303 98.0834V97.0634H129.911V96.1514C129.911 95.3594 130.427 95.1674 130.823 95.1674C131.111 95.1674 131.255 95.2154 131.315 95.2394V94.2314C131.267 94.1954 131.027 94.1114 130.643 94.1114C129.599 94.1114 128.747 94.8074 128.747 96.0914V97.0634H127.679V98.0834H128.747V102.835H129.911V98.0834H131.303ZM132.95 99.9314C132.95 98.7434 133.622 97.9034 134.654 97.9034C135.686 97.9034 136.31 98.7194 136.31 99.9074C136.31 101.095 135.674 101.995 134.642 101.995C133.562 101.995 132.95 101.119 132.95 99.9314ZM136.322 102.055C136.322 102.403 136.358 102.703 136.382 102.835H137.474C137.462 102.739 137.414 102.319 137.414 101.767V94.1474H136.298V97.8794C136.106 97.4114 135.554 96.9074 134.534 96.9074C132.902 96.9074 131.798 98.2994 131.798 99.9314C131.798 101.647 132.842 102.991 134.534 102.991C135.434 102.991 136.046 102.511 136.322 101.959V102.055ZM140.461 99.4994C140.461 98.6234 140.917 97.9154 141.805 97.9154C142.813 97.9154 143.149 98.5634 143.149 99.3674V102.835H144.277V99.1754C144.277 97.8914 143.593 96.8954 142.213 96.8954C141.541 96.8954 140.857 97.1714 140.437 97.8914V97.0634H139.333V102.835H140.461V99.4994ZM151.243 97.0634H149.683L147.187 99.6194V94.1474H146.071V102.835H147.187V101.095L147.991 100.291L149.875 102.835H151.291L148.783 99.4994L151.243 97.0634ZM152.803 99.3554C152.851 98.6114 153.427 97.8794 154.375 97.8794C155.395 97.8794 155.935 98.5274 155.959 99.3554H152.803ZM156.127 100.855C155.911 101.503 155.443 102.019 154.507 102.019C153.535 102.019 152.791 101.299 152.767 100.267H157.111C157.123 100.195 157.135 100.051 157.135 99.9074C157.135 98.1074 156.139 96.8834 154.363 96.8834C152.911 96.8834 151.603 98.1194 151.603 99.9314C151.603 101.887 152.959 103.015 154.507 103.015C155.851 103.015 156.775 102.211 157.099 101.191L156.127 100.855ZM159.691 102.835V97.0634H158.575V102.835H159.691ZM158.323 94.8794C158.323 95.3234 158.683 95.6834 159.127 95.6834C159.583 95.6834 159.943 95.3234 159.943 94.8794C159.943 94.4234 159.583 94.0634 159.127 94.0634C158.683 94.0634 158.323 94.4234 158.323 94.8794ZM165.414 102.139C165.414 102.379 165.438 102.703 165.462 102.835H166.542C166.518 102.631 166.482 102.223 166.482 101.767V97.0634H165.354V100.543C165.354 101.419 164.898 102.019 163.986 102.019C163.038 102.019 162.678 101.323 162.678 100.531V97.0634H161.55V100.699C161.55 102.007 162.366 103.015 163.71 103.015C164.382 103.015 165.102 102.739 165.414 102.139ZM172.559 102.835V101.815H169.331L172.499 98.0474V97.0634H167.975V98.0834H171.095L167.927 101.851V102.835H172.559ZM175.509 95.2394H174.477V96.1754C174.477 96.6794 174.213 97.0634 173.589 97.0634H173.277V98.0834H174.381V101.251C174.381 102.295 175.005 102.895 175.989 102.895C176.373 102.895 176.661 102.823 176.757 102.787V101.827C176.661 101.851 176.457 101.875 176.313 101.875C175.725 101.875 175.509 101.611 175.509 101.083V98.0834H176.757V97.0634H175.509V95.2394ZM179.274 99.4994C179.274 98.6234 179.73 97.9154 180.618 97.9154C181.626 97.9154 181.962 98.5634 181.962 99.3674V102.835H183.09V99.1754C183.09 97.8914 182.406 96.8954 181.026 96.8954C180.354 96.8954 179.67 97.1714 179.25 97.8914V97.0634H178.146V102.835H179.274V99.4994ZM184.344 101.335C184.44 101.995 185.112 103.015 186.696 103.015C188.124 103.015 188.808 102.043 188.808 101.227C188.808 100.375 188.256 99.7394 187.212 99.5114L186.276 99.3074C185.832 99.2114 185.616 98.9594 185.616 98.6114C185.616 98.2154 186 97.8434 186.576 97.8434C187.488 97.8434 187.728 98.5034 187.776 98.8034L188.772 98.4314C188.652 97.9154 188.16 96.8834 186.576 96.8834C185.448 96.8834 184.524 97.7234 184.524 98.7074C184.524 99.5234 185.064 100.135 185.964 100.327L186.948 100.543C187.428 100.651 187.692 100.927 187.692 101.287C187.692 101.695 187.344 102.055 186.708 102.055C185.892 102.055 185.436 101.575 185.364 100.975L184.344 101.335ZM191.426 102.835V97.0634H190.31V102.835H191.426ZM190.058 94.8794C190.058 95.3234 190.418 95.6834 190.862 95.6834C191.318 95.6834 191.678 95.3234 191.678 94.8794C191.678 94.4234 191.318 94.0634 190.862 94.0634C190.418 94.0634 190.058 94.4234 190.058 94.8794ZM194.473 99.4994C194.473 98.6234 194.929 97.9154 195.817 97.9154C196.825 97.9154 197.161 98.5634 197.161 99.3674V102.835H198.289V99.1754C198.289 97.8914 197.605 96.8954 196.225 96.8954C195.553 96.8954 194.869 97.1714 194.449 97.8914V97.0634H193.345V102.835H194.473V99.4994ZM201.199 102.835V99.3554C201.199 98.4914 201.739 97.8914 202.543 97.8914C203.407 97.8914 203.767 98.4674 203.767 99.2114V102.835H204.895V99.3434C204.895 98.5154 205.435 97.8914 206.227 97.8914C207.079 97.8914 207.451 98.4554 207.451 99.2114V102.835H208.567V99.0914C208.567 97.5794 207.583 96.8954 206.575 96.8954C205.843 96.8954 205.099 97.1594 204.643 97.9874C204.331 97.2434 203.635 96.8954 202.915 96.8954C202.243 96.8954 201.523 97.1954 201.163 97.8314V97.0634H200.083V102.835H201.199ZM211.884 95.2394H210.852V96.1754C210.852 96.6794 210.588 97.0634 209.964 97.0634H209.652V98.0834H210.756V101.251C210.756 102.295 211.38 102.895 212.364 102.895C212.748 102.895 213.036 102.823 213.132 102.787V101.827C213.036 101.851 212.832 101.875 212.688 101.875C212.1 101.875 211.884 101.611 211.884 101.083V98.0834H213.132V97.0634H211.884V95.2394ZM214.278 101.287C214.278 102.199 215.034 103.015 216.21 103.015C217.242 103.015 217.818 102.463 218.07 102.055C218.07 102.475 218.106 102.691 218.13 102.835H219.234C219.21 102.691 219.162 102.391 219.162 101.887V98.9954C219.162 97.8674 218.49 96.8834 216.762 96.8834C215.514 96.8834 214.518 97.6514 214.398 98.7554L215.478 99.0074C215.55 98.3354 215.994 97.8434 216.786 97.8434C217.662 97.8434 218.034 98.3114 218.034 98.8754C218.034 99.0794 217.938 99.2594 217.59 99.3074L216.03 99.5354C215.034 99.6794 214.278 100.255 214.278 101.287ZM216.366 102.067C215.79 102.067 215.43 101.659 215.43 101.227C215.43 100.711 215.79 100.435 216.27 100.363L218.034 100.099V100.363C218.034 101.623 217.29 102.067 216.366 102.067ZM224.606 102.139C224.606 102.379 224.63 102.703 224.654 102.835H225.734C225.71 102.631 225.674 102.223 225.674 101.767V97.0634H224.546V100.543C224.546 101.419 224.09 102.019 223.178 102.019C222.23 102.019 221.87 101.323 221.87 100.531V97.0634H220.742V100.699C220.742 102.007 221.558 103.015 222.902 103.015C223.574 103.015 224.294 102.739 224.606 102.139ZM227.479 102.067C227.479 102.535 227.839 102.895 228.307 102.895C228.775 102.895 229.147 102.535 229.147 102.067C229.147 101.599 228.775 101.227 228.307 101.227C227.839 101.227 227.479 101.599 227.479 102.067ZM230.41 101.335C230.506 101.995 231.178 103.015 232.762 103.015C234.19 103.015 234.874 102.043 234.874 101.227C234.874 100.375 234.322 99.7394 233.278 99.5114L232.342 99.3074C231.898 99.2114 231.682 98.9594 231.682 98.6114C231.682 98.2154 232.066 97.8434 232.642 97.8434C233.554 97.8434 233.794 98.5034 233.842 98.8034L234.838 98.4314C234.718 97.9154 234.226 96.8834 232.642 96.8834C231.514 96.8834 230.59 97.7234 230.59 98.7074C230.59 99.5234 231.13 100.135 232.03 100.327L233.014 100.543C233.494 100.651 233.758 100.927 233.758 101.287C233.758 101.695 233.41 102.055 232.774 102.055C231.958 102.055 231.502 101.575 231.43 100.975L230.41 101.335ZM240.121 102.139C240.121 102.379 240.145 102.703 240.169 102.835H241.249C241.225 102.631 241.189 102.223 241.189 101.767V97.0634H240.061V100.543C240.061 101.419 239.605 102.019 238.693 102.019C237.745 102.019 237.385 101.323 237.385 100.531V97.0634H236.257V100.699C236.257 102.007 237.073 103.015 238.417 103.015C239.089 103.015 239.809 102.739 240.121 102.139ZM244.23 105.115V102.055C244.542 102.571 245.214 102.991 246.102 102.991C247.794 102.991 248.79 101.659 248.79 99.9434C248.79 98.2634 247.866 96.9314 246.138 96.9314C245.202 96.9314 244.518 97.3874 244.206 97.9634V97.0634H243.114V105.115H244.23ZM247.638 99.9434C247.638 101.131 246.978 101.983 245.934 101.983C244.902 101.983 244.218 101.131 244.218 99.9434C244.218 98.7914 244.902 97.9274 245.934 97.9274C246.99 97.9274 247.638 98.7914 247.638 99.9434ZM249.868 101.287C249.868 102.199 250.624 103.015 251.8 103.015C252.832 103.015 253.408 102.463 253.66 102.055C253.66 102.475 253.696 102.691 253.72 102.835H254.824C254.8 102.691 254.752 102.391 254.752 101.887V98.9954C254.752 97.8674 254.08 96.8834 252.352 96.8834C251.104 96.8834 250.108 97.6514 249.988 98.7554L251.068 99.0074C251.14 98.3354 251.584 97.8434 252.376 97.8434C253.252 97.8434 253.624 98.3114 253.624 98.8754C253.624 99.0794 253.528 99.2594 253.18 99.3074L251.62 99.5354C250.624 99.6794 249.868 100.255 249.868 101.287ZM251.956 102.067C251.38 102.067 251.02 101.659 251.02 101.227C251.02 100.711 251.38 100.435 251.86 100.363L253.624 100.099V100.363C253.624 101.623 252.88 102.067 251.956 102.067ZM257.625 102.835V101.995C257.985 102.619 258.645 102.991 259.497 102.991C261.213 102.991 262.185 101.635 262.185 99.9194C262.185 98.2394 261.285 96.8954 259.533 96.8954C258.573 96.8954 257.901 97.3634 257.625 97.8794V94.1474H256.509V102.835H257.625ZM261.033 99.9194C261.033 101.167 260.361 101.983 259.329 101.983C258.333 101.983 257.613 101.167 257.613 99.9194C257.613 98.6714 258.333 97.8914 259.329 97.8914C260.373 97.8914 261.033 98.6714 261.033 99.9194ZM263.262 101.287C263.262 102.199 264.018 103.015 265.194 103.015C266.226 103.015 266.802 102.463 267.054 102.055C267.054 102.475 267.09 102.691 267.114 102.835H268.218C268.194 102.691 268.146 102.391 268.146 101.887V98.9954C268.146 97.8674 267.474 96.8834 265.746 96.8834C264.498 96.8834 263.502 97.6514 263.382 98.7554L264.462 99.0074C264.534 98.3354 264.978 97.8434 265.77 97.8434C266.646 97.8434 267.018 98.3114 267.018 98.8754C267.018 99.0794 266.922 99.2594 266.574 99.3074L265.014 99.5354C264.018 99.6794 263.262 100.255 263.262 101.287ZM265.35 102.067C264.774 102.067 264.414 101.659 264.414 101.227C264.414 100.711 264.774 100.435 265.254 100.363L267.018 100.099V100.363C267.018 101.623 266.274 102.067 265.35 102.067ZM269.363 101.335C269.459 101.995 270.131 103.015 271.715 103.015C273.143 103.015 273.827 102.043 273.827 101.227C273.827 100.375 273.275 99.7394 272.231 99.5114L271.295 99.3074C270.851 99.2114 270.635 98.9594 270.635 98.6114C270.635 98.2154 271.019 97.8434 271.595 97.8434C272.507 97.8434 272.747 98.5034 272.795 98.8034L273.791 98.4314C273.671 97.9154 273.179 96.8834 271.595 96.8834C270.467 96.8834 269.543 97.7234 269.543 98.7074C269.543 99.5234 270.083 100.135 270.983 100.327L271.967 100.543C272.447 100.651 272.711 100.927 272.711 101.287C272.711 101.695 272.363 102.055 271.727 102.055C270.911 102.055 270.455 101.575 270.383 100.975L269.363 101.335ZM276.003 99.3554C276.051 98.6114 276.627 97.8794 277.575 97.8794C278.595 97.8794 279.135 98.5274 279.159 99.3554H276.003ZM279.327 100.855C279.111 101.503 278.643 102.019 277.707 102.019C276.735 102.019 275.991 101.299 275.967 100.267H280.311C280.323 100.195 280.335 100.051 280.335 99.9074C280.335 98.1074 279.339 96.8834 277.563 96.8834C276.111 96.8834 274.803 98.1194 274.803 99.9314C274.803 101.887 276.159 103.015 277.707 103.015C279.051 103.015 279.975 102.211 280.299 101.191L279.327 100.855ZM281.479 102.067C281.479 102.535 281.839 102.895 282.307 102.895C282.775 102.895 283.147 102.535 283.147 102.067C283.147 101.599 282.775 101.227 282.307 101.227C281.839 101.227 281.479 101.599 281.479 102.067ZM287.198 97.9274C288.182 97.9274 288.602 98.5874 288.746 99.1514L289.766 98.7194C289.526 97.8434 288.734 96.8834 287.198 96.8834C285.554 96.8834 284.294 98.1434 284.294 99.9434C284.294 101.695 285.53 103.015 287.21 103.015C288.71 103.015 289.538 102.043 289.814 101.215L288.818 100.783C288.686 101.239 288.29 101.971 287.21 101.971C286.274 101.971 285.446 101.263 285.446 99.9434C285.446 98.5994 286.286 97.9274 287.198 97.9274ZM293.551 102.007C292.591 102.007 291.751 101.287 291.751 99.9434C291.751 98.6114 292.591 97.8914 293.551 97.8914C294.511 97.8914 295.351 98.6114 295.351 99.9434C295.351 101.287 294.511 102.007 293.551 102.007ZM293.551 96.8834C291.823 96.8834 290.599 98.1914 290.599 99.9434C290.599 101.707 291.823 103.015 293.551 103.015C295.279 103.015 296.503 101.707 296.503 99.9434C296.503 98.1914 295.279 96.8834 293.551 96.8834Z" fill="#707070"/>
<rect x="19.8955" y="77.8354" width="292" height="41" rx="20.5" stroke="url(#paint1_linear_2627_69091)"/>
</g>
<rect x="0.395508" y="0.335449" width="332" height="260" fill="url(#paint2_radial_2627_69091)"/>
<g filter="url(#filter2_b_2627_69091)">
<rect x="66.3955" y="131.335" width="196" height="41" rx="20.5" fill="url(#paint3_linear_2627_69091)"/>
<path fill-rule="evenodd" clip-rule="evenodd" d="M93.5778 149.01H96.5607V147.477C96.5607 146.654 95.893 145.986 95.0692 145.986C94.2455 145.986 93.5778 146.654 93.5778 147.477V149.01ZM92.0483 149.01H90.925C90.0803 149.01 89.3955 149.695 89.3955 150.539V157.685C89.3955 158.529 90.0803 159.214 90.925 159.214H99.2127C100.057 159.214 100.742 158.529 100.742 157.685V150.539C100.742 149.695 100.057 149.01 99.2127 149.01H98.0902V147.477C98.0902 145.809 96.7377 144.457 95.0692 144.457C93.4008 144.457 92.0483 145.809 92.0483 147.477V149.01Z" fill="url(#paint4_linear_2627_69091)"/>
<path d="M118.83 152.939C118.854 152.087 119.31 151.415 120.174 151.415C121.182 151.415 121.518 152.063 121.518 152.867V156.335H122.646V152.675C122.646 151.391 121.962 150.395 120.582 150.395C119.922 150.395 119.25 150.623 118.83 151.235V147.647H117.702V156.335H118.83V152.939ZM125.952 148.739H124.92V149.675C124.92 150.179 124.656 150.563 124.032 150.563H123.72V151.583H124.824V154.751C124.824 155.795 125.448 156.395 126.432 156.395C126.816 156.395 127.104 156.323 127.2 156.287V155.327C127.104 155.351 126.9 155.375 126.756 155.375C126.168 155.375 125.952 155.111 125.952 154.583V151.583H127.2V150.563H125.952V148.739ZM130.218 148.739H129.186V149.675C129.186 150.179 128.922 150.563 128.298 150.563H127.986V151.583H129.09V154.751C129.09 155.795 129.714 156.395 130.698 156.395C131.082 156.395 131.37 156.323 131.466 156.287V155.327C131.37 155.351 131.166 155.375 131.022 155.375C130.434 155.375 130.218 155.111 130.218 154.583V151.583H131.466V150.563H130.218V148.739ZM133.971 158.615V155.555C134.283 156.071 134.955 156.491 135.843 156.491C137.535 156.491 138.531 155.159 138.531 153.443C138.531 151.763 137.607 150.431 135.879 150.431C134.943 150.431 134.259 150.887 133.947 151.463V150.563H132.855V158.615H133.971ZM137.379 153.443C137.379 154.631 136.719 155.483 135.675 155.483C134.643 155.483 133.959 154.631 133.959 153.443C133.959 152.291 134.643 151.427 135.675 151.427C136.731 151.427 137.379 152.291 137.379 153.443ZM139.428 154.835C139.524 155.495 140.196 156.515 141.78 156.515C143.208 156.515 143.892 155.543 143.892 154.727C143.892 153.875 143.34 153.239 142.296 153.011L141.36 152.807C140.916 152.711 140.7 152.459 140.7 152.111C140.7 151.715 141.084 151.343 141.66 151.343C142.572 151.343 142.812 152.003 142.86 152.303L143.856 151.931C143.736 151.415 143.244 150.383 141.66 150.383C140.532 150.383 139.608 151.223 139.608 152.207C139.608 153.023 140.148 153.635 141.048 153.827L142.032 154.043C142.512 154.151 142.776 154.427 142.776 154.787C142.776 155.195 142.428 155.555 141.792 155.555C140.976 155.555 140.52 155.075 140.448 154.475L139.428 154.835ZM145.346 155.567C145.346 156.035 145.706 156.395 146.174 156.395C146.642 156.395 147.014 156.035 147.014 155.567C147.014 155.099 146.642 154.727 146.174 154.727C145.706 154.727 145.346 155.099 145.346 155.567ZM145.334 151.343C145.334 151.811 145.694 152.171 146.162 152.171C146.63 152.171 147.002 151.811 147.002 151.343C147.002 150.875 146.63 150.503 146.162 150.503C145.694 150.503 145.334 150.875 145.334 151.343ZM153.122 147.827H152.03L147.914 156.335H149.006L153.122 147.827ZM156.649 147.827H155.557L151.441 156.335H152.533L156.649 147.827ZM155.862 154.787C155.862 155.699 156.618 156.515 157.794 156.515C158.826 156.515 159.402 155.963 159.654 155.555C159.654 155.975 159.69 156.191 159.714 156.335H160.818C160.794 156.191 160.746 155.891 160.746 155.387V152.495C160.746 151.367 160.074 150.383 158.346 150.383C157.098 150.383 156.102 151.151 155.982 152.255L157.062 152.507C157.134 151.835 157.578 151.343 158.37 151.343C159.246 151.343 159.618 151.811 159.618 152.375C159.618 152.579 159.522 152.759 159.174 152.807L157.614 153.035C156.618 153.179 155.862 153.755 155.862 154.787ZM157.95 155.567C157.374 155.567 157.014 155.159 157.014 154.727C157.014 154.211 157.374 153.935 157.854 153.863L159.618 153.599V153.863C159.618 155.123 158.874 155.567 157.95 155.567ZM163.619 158.615V155.555C163.931 156.071 164.603 156.491 165.491 156.491C167.183 156.491 168.179 155.159 168.179 153.443C168.179 151.763 167.255 150.431 165.527 150.431C164.591 150.431 163.907 150.887 163.595 151.463V150.563H162.503V158.615H163.619ZM167.027 153.443C167.027 154.631 166.367 155.483 165.323 155.483C164.291 155.483 163.607 154.631 163.607 153.443C163.607 152.291 164.291 151.427 165.323 151.427C166.379 151.427 167.027 152.291 167.027 153.443ZM170.732 156.335V150.563H169.616V156.335H170.732ZM169.364 148.379C169.364 148.823 169.724 149.183 170.168 149.183C170.624 149.183 170.984 148.823 170.984 148.379C170.984 147.923 170.624 147.563 170.168 147.563C169.724 147.563 169.364 147.923 169.364 148.379ZM172.531 155.567C172.531 156.035 172.891 156.395 173.359 156.395C173.827 156.395 174.199 156.035 174.199 155.567C174.199 155.099 173.827 154.727 173.359 154.727C172.891 154.727 172.531 155.099 172.531 155.567ZM176.559 152.855C176.607 152.111 177.183 151.379 178.131 151.379C179.151 151.379 179.691 152.027 179.715 152.855H176.559ZM179.883 154.355C179.667 155.003 179.199 155.519 178.263 155.519C177.291 155.519 176.547 154.799 176.523 153.767H180.867C180.879 153.695 180.891 153.551 180.891 153.407C180.891 151.607 179.895 150.383 178.119 150.383C176.667 150.383 175.359 151.619 175.359 153.431C175.359 155.387 176.715 156.515 178.263 156.515C179.607 156.515 180.531 155.711 180.855 154.691L179.883 154.355ZM181.433 156.335H182.777L184.241 154.211L185.729 156.335H187.085C186.737 155.867 185.309 153.863 184.961 153.395L187.013 150.563H185.681L184.289 152.591L182.873 150.563H181.505L183.581 153.395L181.433 156.335ZM187.807 154.787C187.807 155.699 188.563 156.515 189.739 156.515C190.771 156.515 191.347 155.963 191.599 155.555C191.599 155.975 191.635 156.191 191.659 156.335H192.763C192.739 156.191 192.691 155.891 192.691 155.387V152.495C192.691 151.367 192.019 150.383 190.291 150.383C189.043 150.383 188.047 151.151 187.927 152.255L189.007 152.507C189.079 151.835 189.523 151.343 190.315 151.343C191.191 151.343 191.563 151.811 191.563 152.375C191.563 152.579 191.467 152.759 191.119 152.807L189.559 153.035C188.563 153.179 187.807 153.755 187.807 154.787ZM189.895 155.567C189.319 155.567 188.959 155.159 188.959 154.727C188.959 154.211 189.319 153.935 189.799 153.863L191.563 153.599V153.863C191.563 155.123 190.819 155.567 189.895 155.567ZM195.564 156.335V152.855C195.564 151.991 196.104 151.391 196.908 151.391C197.772 151.391 198.132 151.967 198.132 152.711V156.335H199.26V152.843C199.26 152.015 199.8 151.391 200.592 151.391C201.444 151.391 201.816 151.955 201.816 152.711V156.335H202.932V152.591C202.932 151.079 201.948 150.395 200.94 150.395C200.208 150.395 199.464 150.659 199.008 151.487C198.696 150.743 198 150.395 197.28 150.395C196.608 150.395 195.888 150.695 195.528 151.331V150.563H194.448V156.335H195.564ZM205.853 158.615V155.555C206.165 156.071 206.837 156.491 207.725 156.491C209.417 156.491 210.413 155.159 210.413 153.443C210.413 151.763 209.489 150.431 207.761 150.431C206.825 150.431 206.141 150.887 205.829 151.463V150.563H204.737V158.615H205.853ZM209.261 153.443C209.261 154.631 208.601 155.483 207.557 155.483C206.525 155.483 205.841 154.631 205.841 153.443C205.841 152.291 206.525 151.427 207.557 151.427C208.613 151.427 209.261 152.291 209.261 153.443ZM212.979 156.335V147.647H211.851V156.335H212.979ZM215.63 152.855C215.678 152.111 216.254 151.379 217.202 151.379C218.222 151.379 218.762 152.027 218.786 152.855H215.63ZM218.954 154.355C218.738 155.003 218.27 155.519 217.334 155.519C216.362 155.519 215.618 154.799 215.594 153.767H219.938C219.95 153.695 219.962 153.551 219.962 153.407C219.962 151.607 218.966 150.383 217.19 150.383C215.738 150.383 214.43 151.619 214.43 153.431C214.43 155.387 215.786 156.515 217.334 156.515C218.678 156.515 219.602 155.711 219.926 154.691L218.954 154.355ZM221.106 155.567C221.106 156.035 221.466 156.395 221.934 156.395C222.402 156.395 222.774 156.035 222.774 155.567C222.774 155.099 222.402 154.727 221.934 154.727C221.466 154.727 221.106 155.099 221.106 155.567ZM226.825 151.427C227.809 151.427 228.229 152.087 228.373 152.651L229.393 152.219C229.153 151.343 228.361 150.383 226.825 150.383C225.181 150.383 223.921 151.643 223.921 153.443C223.921 155.195 225.157 156.515 226.837 156.515C228.337 156.515 229.165 155.543 229.441 154.715L228.445 154.283C228.313 154.739 227.917 155.471 226.837 155.471C225.901 155.471 225.073 154.763 225.073 153.443C225.073 152.099 225.913 151.427 226.825 151.427ZM233.178 155.507C232.218 155.507 231.378 154.787 231.378 153.443C231.378 152.111 232.218 151.391 233.178 151.391C234.138 151.391 234.978 152.111 234.978 153.443C234.978 154.787 234.138 155.507 233.178 155.507ZM233.178 150.383C231.45 150.383 230.226 151.691 230.226 153.443C230.226 155.207 231.45 156.515 233.178 156.515C234.906 156.515 236.13 155.207 236.13 153.443C236.13 151.691 234.906 150.383 233.178 150.383ZM238.689 156.335V152.855C238.689 151.991 239.229 151.391 240.033 151.391C240.897 151.391 241.257 151.967 241.257 152.711V156.335H242.385V152.843C242.385 152.015 242.925 151.391 243.717 151.391C244.569 151.391 244.941 151.955 244.941 152.711V156.335H246.057V152.591C246.057 151.079 245.073 150.395 244.065 150.395C243.333 150.395 242.589 150.659 242.133 151.487C241.821 150.743 241.125 150.395 240.405 150.395C239.733 150.395 239.013 150.695 238.653 151.331V150.563H237.573V156.335H238.689Z" fill="#3E3E3E"/>
<rect x="66.8955" y="131.835" width="195" height="40" rx="20" stroke="url(#paint5_linear_2627_69091)"/>
</g>
<rect x="62.6299" y="128.401" width="203.017" height="47.4471" rx="23.7235" stroke="url(#paint6_linear_2627_69091)" stroke-width="2"/>
<rect x="57.5693" y="123.478" width="213.138" height="57.2937" rx="28.6469" stroke="url(#paint7_linear_2627_69091)" stroke-opacity="0.3" stroke-width="0.961538"/>
<rect x="53.1597" y="119.335" width="221.958" height="65.5791" rx="32.7895" stroke="url(#paint8_linear_2627_69091)" stroke-opacity="0.3" stroke-width="0.961538"/>
</g>
<defs>
<filter id="filter0_f_2627_69091" x="-142.284" y="1.6552" width="649.36" height="328.36" filterUnits="userSpaceOnUse" color-interpolation-filters="sRGB">
<feFlood flood-opacity="0" result="BackgroundImageFix"/>
<feBlend mode="normal" in="SourceGraphic" in2="BackgroundImageFix" result="shape"/>
<feGaussianBlur stdDeviation="59.84" result="effect1_foregroundBlur_2627_69091"/>
</filter>
<filter id="filter1_b_2627_69091" x="4.39551" y="62.3354" width="323" height="72" filterUnits="userSpaceOnUse" color-interpolation-filters="sRGB">
<feFlood flood-opacity="0" result="BackgroundImageFix"/>
<feGaussianBlur in="BackgroundImageFix" stdDeviation="7.5"/>
<feComposite in2="SourceAlpha" operator="in" result="effect1_backgroundBlur_2627_69091"/>
<feBlend mode="normal" in="SourceGraphic" in2="effect1_backgroundBlur_2627_69091" result="shape"/>
</filter>
<filter id="filter2_b_2627_69091" x="51.3955" y="116.335" width="226" height="71" filterUnits="userSpaceOnUse" color-interpolation-filters="sRGB">
<feFlood flood-opacity="0" result="BackgroundImageFix"/>
<feGaussianBlur in="BackgroundImageFix" stdDeviation="7.5"/>
<feComposite in2="SourceAlpha" operator="in" result="effect1_backgroundBlur_2627_69091"/>
<feBlend mode="normal" in="SourceGraphic" in2="effect1_backgroundBlur_2627_69091" result="shape"/>
</filter>
<linearGradient id="paint0_linear_2627_69091" x1="142.861" y1="47.8773" x2="169.193" y2="153.025" gradientUnits="userSpaceOnUse">
<stop stop-color="white" stop-opacity="0.26"/>
<stop offset="1" stop-color="white" stop-opacity="0"/>
</linearGradient>
<linearGradient id="paint1_linear_2627_69091" x1="139.688" y1="76.4602" x2="144.303" y2="121.546" gradientUnits="userSpaceOnUse">
<stop stop-color="#CACECE"/>
<stop offset="1" stop-color="#DEDEDE" stop-opacity="0"/>
</linearGradient>
<radialGradient id="paint2_radial_2627_69091" cx="0" cy="0" r="1" gradientUnits="userSpaceOnUse" gradientTransform="translate(163.4 19.3355) rotate(90) scale(225 376.615)">
<stop offset="0.629777" stop-color="white" stop-opacity="0"/>
<stop offset="1" stop-color="white"/>
</radialGradient>
<linearGradient id="paint3_linear_2627_69091" x1="148.987" y1="102.579" x2="184.154" y2="198.809" gradientUnits="userSpaceOnUse">
<stop stop-color="white" stop-opacity="0.59"/>
<stop offset="1" stop-color="white" stop-opacity="0.19"/>
</linearGradient>
<linearGradient id="paint4_linear_2627_69091" x1="89.3955" y1="159.214" x2="103.658" y2="148.249" gradientUnits="userSpaceOnUse">
<stop/>
<stop offset="1" stop-color="#82978D"/>
</linearGradient>
<linearGradient id="paint5_linear_2627_69091" x1="146.865" y1="130.481" x2="153.362" y2="173.983" gradientUnits="userSpaceOnUse">
<stop stop-color="#CACECE"/>
<stop offset="1" stop-color="#DEDEDE" stop-opacity="0"/>
</linearGradient>
<linearGradient id="paint6_linear_2627_69091" x1="164.138" y1="109.446" x2="164.138" y2="198.888" gradientUnits="userSpaceOnUse">
<stop stop-color="#22BB76" stop-opacity="0.83"/>
<stop offset="1" stop-color="#6CE2AD" stop-opacity="0"/>
</linearGradient>
<linearGradient id="paint7_linear_2627_69091" x1="164.138" y1="123.478" x2="164.138" y2="180.772" gradientUnits="userSpaceOnUse">
<stop stop-color="#14DC64"/>
<stop offset="1" stop-color="#47DBB6" stop-opacity="0"/>
</linearGradient>
<linearGradient id="paint8_linear_2627_69091" x1="164.138" y1="119.335" x2="164.138" y2="184.915" gradientUnits="userSpaceOnUse">
<stop stop-color="#14DC64"/>
<stop offset="1" stop-color="#47DBB6" stop-opacity="0"/>
</linearGradient>
<clipPath id="clip0_2627_69091">
<rect width="332" height="260" fill="white" transform="translate(0.39502 0.335449)"/>
</clipPath>
</defs>
</svg>
