<svg width="333" height="261" viewBox="0 0 333 261" fill="none" xmlns="http://www.w3.org/2000/svg">
<g clip-path="url(#clip0_2610_73953)">
<rect width="332" height="260" transform="translate(0.394531 0.335449)" fill="#232323"/>
<rect x="83.5059" y="242.855" width="35.3035" height="33.3142" transform="rotate(-180 83.5059 242.855)" stroke="#396764" stroke-opacity="0.1" stroke-width="0.386912"/>
<rect x="48.2026" y="276.167" width="35.3035" height="33.3142" transform="rotate(-180 48.2026 276.167)" stroke="#396764" stroke-opacity="0.1" stroke-width="0.386912"/>
<rect x="48.2026" y="242.855" width="35.3035" height="33.3142" transform="rotate(-180 48.2026 242.855)" stroke="#396764" stroke-opacity="0.1" stroke-width="0.386912"/>
<rect x="12.8994" y="276.167" width="35.3035" height="33.3142" transform="rotate(-180 12.8994 276.167)" stroke="#396764" stroke-opacity="0.1" stroke-width="0.386912"/>
<rect x="12.8994" y="242.855" width="35.3035" height="33.3142" transform="rotate(-180 12.8994 242.855)" stroke="#396764" stroke-opacity="0.1" stroke-width="0.386912"/>
<rect x="154.112" y="242.855" width="35.3035" height="33.3142" transform="rotate(-180 154.112 242.855)" stroke="#396764" stroke-opacity="0.1" stroke-width="0.386912"/>
<rect x="83.5059" y="209.54" width="35.3035" height="33.3142" transform="rotate(-180 83.5059 209.54)" stroke="#396764" stroke-opacity="0.1" stroke-width="0.386912"/>
<rect x="83.5059" y="176.225" width="35.3035" height="33.3142" transform="rotate(-180 83.5059 176.225)" stroke="#396764" stroke-opacity="0.1" stroke-width="0.386912"/>
<rect x="48.2026" y="209.54" width="35.3035" height="33.3142" transform="rotate(-180 48.2026 209.54)" stroke="#396764" stroke-opacity="0.1" stroke-width="0.386912"/>
<rect x="48.2026" y="176.225" width="35.3035" height="33.3142" transform="rotate(-180 48.2026 176.225)" stroke="#396764" stroke-opacity="0.1" stroke-width="0.386912"/>
<rect x="12.8994" y="209.54" width="35.3035" height="33.3142" transform="rotate(-180 12.8994 209.54)" stroke="#396764" stroke-opacity="0.1" stroke-width="0.386912"/>
<rect x="12.8994" y="176.225" width="35.3035" height="33.3142" transform="rotate(-180 12.8994 176.225)" stroke="#396764" stroke-opacity="0.1" stroke-width="0.386912"/>
<rect x="154.112" y="176.225" width="35.3035" height="33.3142" transform="rotate(-180 154.112 176.225)" stroke="#396764" stroke-opacity="0.1" stroke-width="0.386912"/>
<rect x="118.809" y="209.54" width="35.3035" height="33.3142" transform="rotate(-180 118.809 209.54)" stroke="#396764" stroke-opacity="0.1" stroke-width="0.386912"/>
<rect x="118.809" y="176.225" width="35.3035" height="33.3142" transform="rotate(-180 118.809 176.225)" stroke="#396764" stroke-opacity="0.1" stroke-width="0.386912"/>
<rect x="83.5059" y="142.911" width="35.3035" height="33.3142" transform="rotate(-180 83.5059 142.911)" stroke="#396764" stroke-opacity="0.1" stroke-width="0.386912"/>
<rect x="83.5059" y="109.599" width="35.3035" height="33.3142" transform="rotate(-180 83.5059 109.599)" stroke="#396764" stroke-opacity="0.1" stroke-width="0.386912"/>
<rect x="85.5229" y="109.599" width="17.5839" height="33.3142" transform="rotate(-180 85.5229 109.599)" stroke="#396764" stroke-opacity="0.1" stroke-width="0.386912"/>
<rect x="260.024" y="109.599" width="35.3035" height="33.3142" transform="rotate(-180 260.024 109.599)" stroke="#396764" stroke-opacity="0.1" stroke-width="0.386912"/>
<rect x="48.2026" y="142.911" width="35.3035" height="33.3142" transform="rotate(-180 48.2026 142.911)" stroke="#346458" stroke-opacity="0.3" stroke-width="0.898712"/>
<rect x="48.2026" y="109.599" width="35.3035" height="33.3142" transform="rotate(-180 48.2026 109.599)" stroke="#396764" stroke-opacity="0.1" stroke-width="0.386912"/>
<rect x="224.722" y="109.599" width="35.3035" height="33.3142" transform="rotate(-180 224.722 109.599)" stroke="#396764" stroke-opacity="0.1" stroke-width="0.386912"/>
<rect x="12.8994" y="142.911" width="35.3035" height="33.3142" transform="rotate(-180 12.8994 142.911)" stroke="#396764" stroke-opacity="0.1" stroke-width="0.386912"/>
<rect x="189.415" y="109.599" width="35.3035" height="33.3142" transform="rotate(-180 189.415 109.599)" stroke="#396764" stroke-opacity="0.1" stroke-width="0.386912"/>
<rect x="154.112" y="142.911" width="35.3035" height="33.3142" transform="rotate(-180 154.112 142.911)" stroke="#396764" stroke-opacity="0.1" stroke-width="0.386912"/>
<rect x="154.112" y="109.599" width="35.3035" height="33.3142" transform="rotate(-180 154.112 109.599)" stroke="#396764" stroke-opacity="0.1" stroke-width="0.386912"/>
<rect x="118.809" y="142.911" width="35.3035" height="33.3142" transform="rotate(-180 118.809 142.911)" stroke="#396764" stroke-opacity="0.1" stroke-width="0.386912"/>
<rect x="365.934" y="109.599" width="35.3035" height="33.3142" transform="rotate(-180 365.934 109.599)" stroke="#396764" stroke-opacity="0.1" stroke-width="0.386912"/>
<rect x="330.627" y="109.599" width="35.3035" height="33.3142" transform="rotate(-180 330.627 109.599)" stroke="#396764" stroke-opacity="0.1" stroke-width="0.386912"/>
<rect x="260.024" y="76.2832" width="35.3035" height="33.3142" transform="rotate(-180 260.024 76.2832)" stroke="#396764" stroke-opacity="0.1" stroke-width="0.386912"/>
<rect x="260.024" y="42.9697" width="35.3035" height="33.3142" transform="rotate(-180 260.024 42.9697)" stroke="#396764" stroke-opacity="0.1" stroke-width="0.386912"/>
<rect x="48.2026" y="76.2837" width="35.3035" height="33.3142" transform="rotate(-180 48.2026 76.2837)" stroke="#396764" stroke-opacity="0.1" stroke-width="0.386912"/>
<rect x="224.722" y="76.2832" width="35.3035" height="33.3142" transform="rotate(-180 224.722 76.2832)" stroke="#396764" stroke-opacity="0.1" stroke-width="0.386912"/>
<rect x="48.2026" y="42.9697" width="35.3035" height="33.3142" transform="rotate(-180 48.2026 42.9697)" stroke="#396764" stroke-opacity="0.1" stroke-width="0.386912"/>
<rect x="224.722" y="42.9697" width="35.3035" height="33.3142" transform="rotate(-180 224.722 42.9697)" stroke="#396764" stroke-opacity="0.1" stroke-width="0.386912"/>
<rect x="12.8994" y="76.2837" width="35.3035" height="33.3142" transform="rotate(-180 12.8994 76.2837)" stroke="#396764" stroke-opacity="0.1" stroke-width="0.386912"/>
<rect x="189.415" y="76.2832" width="35.3035" height="33.3142" transform="rotate(-180 189.415 76.2832)" stroke="#396764" stroke-opacity="0.1" stroke-width="0.386912"/>
<rect x="12.8994" y="42.9697" width="35.3035" height="33.3142" transform="rotate(-180 12.8994 42.9697)" stroke="#396764" stroke-opacity="0.1" stroke-width="0.386912"/>
<rect x="189.415" y="42.9697" width="35.3035" height="33.3142" transform="rotate(-180 189.415 42.9697)" stroke="#396764" stroke-opacity="0.1" stroke-width="0.386912"/>
<rect x="154.112" y="76.2832" width="35.3035" height="33.3142" transform="rotate(-180 154.112 76.2832)" stroke="#396764" stroke-opacity="0.1" stroke-width="0.386912"/>
<rect x="154.112" y="42.9697" width="35.3035" height="33.3142" transform="rotate(-180 154.112 42.9697)" stroke="#396764" stroke-opacity="0.1" stroke-width="0.386912"/>
<rect x="118.809" y="76.2832" width="35.3035" height="33.3142" transform="rotate(-180 118.809 76.2832)" stroke="#396764" stroke-opacity="0.1" stroke-width="0.386912"/>
<rect x="118.809" y="42.9697" width="35.3035" height="33.3142" transform="rotate(-180 118.809 42.9697)" stroke="#396764" stroke-opacity="0.1" stroke-width="0.386912"/>
<rect x="365.934" y="76.2837" width="35.3035" height="33.3142" transform="rotate(-180 365.934 76.2837)" stroke="#396764" stroke-opacity="0.1" stroke-width="0.386912"/>
<rect x="365.934" y="42.9697" width="35.3035" height="33.3142" transform="rotate(-180 365.934 42.9697)" stroke="#396764" stroke-opacity="0.1" stroke-width="0.386912"/>
<rect x="330.627" y="76.2837" width="35.3035" height="33.3142" transform="rotate(-180 330.627 76.2837)" stroke="#396764" stroke-opacity="0.1" stroke-width="0.386912"/>
<rect x="330.627" y="42.9697" width="35.3035" height="33.3142" transform="rotate(-180 330.627 42.9697)" stroke="#396764" stroke-opacity="0.1" stroke-width="0.386912"/>
<rect x="295.328" y="76.2837" width="35.3035" height="33.3142" transform="rotate(-180 295.328 76.2837)" stroke="#396764" stroke-opacity="0.1" stroke-width="0.386912"/>
<rect x="295.328" y="42.9697" width="35.3035" height="33.3142" transform="rotate(-180 295.328 42.9697)" stroke="#396764" stroke-opacity="0.1" stroke-width="0.386912"/>
<rect x="260.024" y="9.6543" width="35.3035" height="33.3142" transform="rotate(-180 260.024 9.6543)" stroke="#396764" stroke-opacity="0.1" stroke-width="0.386912"/>
<rect x="224.722" y="9.6543" width="35.3035" height="33.3142" transform="rotate(-180 224.722 9.6543)" stroke="#396764" stroke-opacity="0.1" stroke-width="0.386912"/>
<rect x="12.8994" y="9.65479" width="35.3035" height="33.3142" transform="rotate(-180 12.8994 9.65479)" stroke="#396764" stroke-opacity="0.1" stroke-width="0.386912"/>
<rect x="365.934" y="9.65479" width="35.3035" height="33.3142" transform="rotate(-180 365.934 9.65479)" stroke="#396764" stroke-opacity="0.1" stroke-width="0.386912"/>
<rect x="330.627" y="9.65479" width="35.3035" height="33.3142" transform="rotate(-180 330.627 9.65479)" stroke="#396764" stroke-opacity="0.1" stroke-width="0.386912"/>
<rect x="295.328" y="9.65479" width="35.3035" height="33.3142" transform="rotate(-180 295.328 9.65479)" stroke="#396764" stroke-opacity="0.1" stroke-width="0.386912"/>
<rect x="12.8994" y="109.599" width="35.3035" height="33.3142" transform="rotate(-180 12.8994 109.599)" stroke="#346458" stroke-opacity="0.3" stroke-width="0.898712"/>
<g filter="url(#filter0_f_2610_73953)">
<path d="M514.395 167.336L61.395 167.336L216.567 -4.66429L349.869 -4.66428L514.395 167.336Z" fill="#0B554C" fill-opacity="0.4"/>
</g>
<g filter="url(#filter1_b_2610_73953)">
<rect x="68.3945" y="26.1309" width="329" height="238.205" rx="6.42646" fill="url(#paint0_linear_2610_73953)"/>
<rect x="68.7962" y="26.5325" width="328.197" height="237.401" rx="6.02481" stroke="url(#paint1_linear_2610_73953)" stroke-width="0.803308"/>
</g>
<circle cx="105.018" cy="60.4672" r="16.1772" fill="#3A9F6F"/>
<path d="M108.667 57.1303V55.5909H100.752V57.1303H103.886V65.2495H105.52V57.1303H108.667Z" fill="url(#paint2_linear_2610_73953)"/>
<path d="M135.319 49.1042V48.227H129.805V49.1042H132.09V55.0615H133.035V49.1042H135.319ZM136.893 55.0615V50.4248H135.997V55.0615H136.893ZM135.794 48.6704C135.794 49.0271 136.083 49.3163 136.44 49.3163C136.806 49.3163 137.096 49.0271 137.096 48.6704C137.096 48.3041 136.806 48.0149 136.44 48.0149C136.083 48.0149 135.794 48.3041 135.794 48.6704ZM139.331 55.0615V52.266C139.331 51.572 139.765 51.09 140.411 51.09C141.105 51.09 141.394 51.5527 141.394 52.1503V55.0615H142.3V52.2564C142.3 51.5912 142.734 51.09 143.37 51.09C144.055 51.09 144.354 51.543 144.354 52.1503V55.0615H145.25V52.0539C145.25 50.8393 144.46 50.2899 143.65 50.2899C143.062 50.2899 142.464 50.5019 142.098 51.1671C141.847 50.5694 141.288 50.2899 140.71 50.2899C140.17 50.2899 139.592 50.5309 139.302 51.0418V50.4248H138.435V55.0615H139.331Z" fill="#ECEDEE"/>
<path d="M154.88 51.0112C154.87 50.9149 154.86 50.8185 154.86 50.7317C154.86 50.0184 155.246 49.4496 156.065 49.4496C156.856 49.4496 157.241 49.9798 157.241 50.5485C157.241 51.0305 156.972 51.474 156.383 51.8499L155.342 52.5247C154.282 53.2091 153.877 53.9899 153.858 55.0117H158.234V54.1345H155.024C155.111 53.7489 155.429 53.4886 155.786 53.2573L157.02 52.4668C157.733 52.0138 158.196 51.3583 158.196 50.5389C158.196 49.4978 157.425 48.6206 156.085 48.6206C154.716 48.6206 153.925 49.5749 153.925 50.6449C153.925 50.7221 153.925 50.8088 153.935 50.8956L154.88 51.0112ZM162.7 55.0117V52.2162C162.7 51.5222 163.134 51.0402 163.78 51.0402C164.474 51.0402 164.763 51.5029 164.763 52.1005V55.0117H165.669V52.2066C165.669 51.5414 166.103 51.0402 166.739 51.0402C167.424 51.0402 167.723 51.4932 167.723 52.1005V55.0117H168.619V52.0041C168.619 50.7895 167.829 50.2401 167.019 50.2401C166.431 50.2401 165.833 50.4521 165.467 51.1173C165.216 50.5196 164.657 50.2401 164.079 50.2401C163.539 50.2401 162.961 50.4811 162.671 50.992V50.375H161.804V55.0117H162.7ZM170.966 55.0117V50.375H170.069V55.0117H170.966ZM169.867 48.6206C169.867 48.9773 170.156 49.2665 170.513 49.2665C170.879 49.2665 171.168 48.9773 171.168 48.6206C171.168 48.2543 170.879 47.9651 170.513 47.9651C170.156 47.9651 169.867 48.2543 169.867 48.6206ZM173.413 52.3319C173.413 51.6282 173.78 51.0594 174.493 51.0594C175.303 51.0594 175.573 51.58 175.573 52.2258V55.0117H176.479V52.0716C176.479 51.0402 175.929 50.2401 174.821 50.2401C174.281 50.2401 173.732 50.4618 173.394 51.0402V50.375H172.507V55.0117H173.413V52.3319ZM180.882 54.4526C180.882 54.6454 180.901 54.9057 180.92 55.0117H181.788C181.769 54.8478 181.74 54.5201 181.74 54.1538V50.375H180.834V53.1705C180.834 53.8742 180.467 54.3562 179.735 54.3562C178.973 54.3562 178.684 53.7971 178.684 53.1609V50.375H177.778V53.2959C177.778 54.3466 178.433 55.1563 179.513 55.1563C180.053 55.1563 180.631 54.9346 180.882 54.4526ZM184.501 48.9098H183.672V49.6617C183.672 50.0666 183.46 50.375 182.958 50.375H182.708V51.1944H183.595V53.7393C183.595 54.5779 184.096 55.0599 184.886 55.0599C185.195 55.0599 185.426 55.0021 185.503 54.9732V54.202C185.426 54.2213 185.262 54.2405 185.147 54.2405C184.674 54.2405 184.501 54.0285 184.501 53.6043V51.1944H185.503V50.375H184.501V48.9098ZM187.254 52.2162C187.292 51.6185 187.755 51.0305 188.516 51.0305C189.336 51.0305 189.77 51.5511 189.789 52.2162H187.254ZM189.924 53.4212C189.75 53.9417 189.374 54.3562 188.622 54.3562C187.842 54.3562 187.244 53.7778 187.225 52.9488H190.714C190.724 52.891 190.734 52.7753 190.734 52.6596C190.734 51.2137 189.933 50.2304 188.507 50.2304C187.34 50.2304 186.29 51.2233 186.29 52.6789C186.29 54.2502 187.379 55.1563 188.622 55.1563C189.702 55.1563 190.444 54.5105 190.705 53.6911L189.924 53.4212ZM191.456 53.8068C191.534 54.3369 192.073 55.1563 193.346 55.1563C194.493 55.1563 195.042 54.3755 195.042 53.72C195.042 53.0356 194.599 52.5247 193.76 52.3415L193.008 52.1776C192.652 52.1005 192.478 51.8981 192.478 51.6185C192.478 51.3004 192.787 51.0016 193.249 51.0016C193.982 51.0016 194.175 51.5318 194.213 51.7728L195.014 51.474C194.917 51.0594 194.522 50.2304 193.249 50.2304C192.343 50.2304 191.601 50.9052 191.601 51.6957C191.601 52.3512 192.035 52.8428 192.758 52.997L193.548 53.1705C193.934 53.2573 194.146 53.479 194.146 53.7682C194.146 54.0959 193.866 54.3851 193.355 54.3851C192.7 54.3851 192.334 53.9996 192.276 53.5176L191.456 53.8068ZM198.37 53.7682C198.37 54.5008 198.977 55.1563 199.922 55.1563C200.751 55.1563 201.213 54.7129 201.416 54.3851C201.416 54.7225 201.445 54.896 201.464 55.0117H202.351C202.331 54.896 202.293 54.6551 202.293 54.2502V51.927C202.293 51.0209 201.753 50.2304 200.365 50.2304C199.362 50.2304 198.562 50.8474 198.466 51.7342L199.334 51.9367C199.391 51.3968 199.748 51.0016 200.384 51.0016C201.088 51.0016 201.387 51.3776 201.387 51.8306C201.387 51.9945 201.31 52.1391 201.03 52.1776L199.777 52.3608C198.977 52.4765 198.37 52.9392 198.37 53.7682ZM200.047 54.3948C199.584 54.3948 199.295 54.067 199.295 53.72C199.295 53.3055 199.584 53.0838 199.97 53.0259L201.387 52.8139V53.0259C201.387 54.0381 200.789 54.3948 200.047 54.3948ZM203.367 55.2624C203.483 56.2552 204.35 56.9879 205.507 56.9879C207.252 56.9879 207.83 55.8407 207.83 54.6647V50.375H206.934V51.0209C206.702 50.5582 206.22 50.2883 205.507 50.2883C204.235 50.2883 203.377 51.2908 203.377 52.544C203.377 53.855 204.273 54.79 205.507 54.79C206.201 54.79 206.702 54.4526 206.924 54.0285V54.6936C206.924 55.6961 206.481 56.1974 205.507 56.1974C204.803 56.1974 204.312 55.7058 204.244 55.0599L203.367 55.2624ZM205.642 54.0285C204.823 54.0285 204.302 53.4501 204.302 52.544C204.302 51.6475 204.842 51.0594 205.642 51.0594C206.423 51.0594 206.963 51.6475 206.963 52.544C206.963 53.4404 206.423 54.0285 205.642 54.0285ZM211.263 54.3466C210.492 54.3466 209.817 53.7682 209.817 52.6886C209.817 51.6185 210.492 51.0402 211.263 51.0402C212.034 51.0402 212.709 51.6185 212.709 52.6886C212.709 53.7682 212.034 54.3466 211.263 54.3466ZM211.263 50.2304C209.875 50.2304 208.892 51.2812 208.892 52.6886C208.892 54.1056 209.875 55.1563 211.263 55.1563C212.651 55.1563 213.635 54.1056 213.635 52.6886C213.635 51.2812 212.651 50.2304 211.263 50.2304Z" fill="#707070"/>
<path d="M135.956 70.4673V63.6327H135.011V66.5536H131.521V63.6327H130.577V70.4673H131.521V67.4308H135.011V70.4673H135.956ZM138.185 67.6718C138.224 67.0741 138.686 66.4861 139.448 66.4861C140.267 66.4861 140.701 67.0066 140.72 67.6718H138.185ZM140.855 68.8767C140.682 69.3973 140.306 69.8118 139.554 69.8118C138.773 69.8118 138.175 69.2334 138.156 68.4044H141.646C141.655 68.3466 141.665 68.2309 141.665 68.1152C141.665 66.6692 140.865 65.686 139.438 65.686C138.272 65.686 137.221 66.6789 137.221 68.1345C137.221 69.7057 138.31 70.6119 139.554 70.6119C140.633 70.6119 141.376 69.966 141.636 69.1466L140.855 68.8767ZM143.884 72.4049L146.901 65.8306H145.928L144.54 69.031L143.094 65.8306H142.053L144.048 69.9564L142.891 72.4049H143.884ZM146.613 69.8503C146.613 70.2649 146.902 70.5058 147.259 70.5058C147.365 70.5058 147.442 70.4769 147.471 70.4576C147.461 70.9204 147.143 71.3927 146.671 71.4987V72C147.269 71.9229 148.098 71.3927 148.098 70.1203C148.098 69.513 147.731 69.2045 147.317 69.2045C146.912 69.2045 146.613 69.5033 146.613 69.8503ZM152.859 67.7393C152.878 67.0548 153.245 66.515 153.939 66.515C154.748 66.515 155.018 67.0356 155.018 67.6814V70.4673H155.925V67.5272C155.925 66.4957 155.375 65.6956 154.266 65.6956C153.736 65.6956 153.196 65.8788 152.859 66.3704V63.4881H151.953V70.4673H152.859V67.7393ZM159.352 69.8021C158.58 69.8021 157.906 69.2238 157.906 68.1441C157.906 67.0741 158.58 66.4957 159.352 66.4957C160.123 66.4957 160.798 67.0741 160.798 68.1441C160.798 69.2238 160.123 69.8021 159.352 69.8021ZM159.352 65.686C157.964 65.686 156.98 66.7367 156.98 68.1441C156.98 69.5612 157.964 70.6119 159.352 70.6119C160.74 70.6119 161.723 69.5612 161.723 68.1441C161.723 66.7367 160.74 65.686 159.352 65.686ZM165.401 65.8306L164.196 69.3202L163.154 65.8306H162.162L163.685 70.4673H164.639L165.844 66.9392L167.078 70.4673H168.013L169.517 65.8306H168.562L167.541 69.3202L166.336 65.8306H165.401ZM174.789 66.5247C175.58 66.5247 175.917 67.0548 176.033 67.5079L176.852 67.1609C176.659 66.4572 176.023 65.686 174.789 65.686C173.469 65.686 172.456 66.6982 172.456 68.1441C172.456 69.5515 173.449 70.6119 174.799 70.6119C176.004 70.6119 176.669 69.8311 176.891 69.1659L176.091 68.8189C175.985 69.1852 175.667 69.7732 174.799 69.7732C174.047 69.7732 173.382 69.2045 173.382 68.1441C173.382 67.0645 174.057 66.5247 174.789 66.5247ZM177.617 69.2238C177.617 69.9564 178.225 70.6119 179.169 70.6119C179.998 70.6119 180.461 70.1685 180.664 69.8407C180.664 70.1781 180.693 70.3516 180.712 70.4673H181.599C181.579 70.3516 181.541 70.1106 181.541 69.7057V67.3826C181.541 66.4765 181.001 65.686 179.613 65.686C178.61 65.686 177.81 66.3029 177.714 67.1898L178.581 67.3922C178.639 66.8524 178.996 66.4572 179.632 66.4572C180.336 66.4572 180.635 66.8331 180.635 67.2862C180.635 67.4501 180.558 67.5947 180.278 67.6332L179.025 67.8164C178.225 67.932 177.617 68.3948 177.617 69.2238ZM179.295 69.8503C178.832 69.8503 178.543 69.5226 178.543 69.1756C178.543 68.7611 178.832 68.5393 179.218 68.4815L180.635 68.2694V68.4815C180.635 69.4937 180.037 69.8503 179.295 69.8503ZM183.859 67.7875C183.859 67.0838 184.225 66.515 184.938 66.515C185.748 66.515 186.018 67.0356 186.018 67.6814V70.4673H186.924V67.5272C186.924 66.4957 186.375 65.6956 185.266 65.6956C184.726 65.6956 184.177 65.9174 183.839 66.4957V65.8306H182.952V70.4673H183.859V67.7875ZM191.836 70.4673V63.6327H190.872V70.4673H191.836ZM195.598 69.2238C195.598 69.9564 196.205 70.6119 197.15 70.6119C197.979 70.6119 198.441 70.1685 198.644 69.8407C198.644 70.1781 198.673 70.3516 198.692 70.4673H199.579C199.56 70.3516 199.521 70.1106 199.521 69.7057V67.3826C199.521 66.4765 198.981 65.686 197.593 65.686C196.591 65.686 195.791 66.3029 195.694 67.1898L196.562 67.3922C196.62 66.8524 196.976 66.4572 197.612 66.4572C198.316 66.4572 198.615 66.8331 198.615 67.2862C198.615 67.4501 198.538 67.5947 198.258 67.6332L197.005 67.8164C196.205 67.932 195.598 68.3948 195.598 69.2238ZM197.275 69.8503C196.812 69.8503 196.523 69.5226 196.523 69.1756C196.523 68.7611 196.812 68.5393 197.198 68.4815L198.615 68.2694V68.4815C198.615 69.4937 198.017 69.8503 197.275 69.8503ZM201.473 68.1345C201.473 67.1802 202.012 66.5054 202.841 66.5054C203.67 66.5054 204.172 67.1609 204.172 68.1152C204.172 69.0695 203.661 69.7925 202.832 69.7925C201.964 69.7925 201.473 69.0888 201.473 68.1345ZM204.181 69.8407C204.181 70.1203 204.21 70.3612 204.23 70.4673H205.107C205.097 70.3902 205.059 70.0528 205.059 69.6094V63.4881H204.162V66.4861C204.008 66.1101 203.564 65.7053 202.745 65.7053C201.434 65.7053 200.547 66.8235 200.547 68.1345C200.547 69.513 201.386 70.5926 202.745 70.5926C203.468 70.5926 203.96 70.207 204.181 69.7636V69.8407ZM207.14 68.1345C207.14 67.1802 207.679 66.5054 208.508 66.5054C209.337 66.5054 209.839 67.1609 209.839 68.1152C209.839 69.0695 209.328 69.7925 208.499 69.7925C207.631 69.7925 207.14 69.0888 207.14 68.1345ZM209.848 69.8407C209.848 70.1203 209.877 70.3612 209.897 70.4673H210.774C210.764 70.3902 210.726 70.0528 210.726 69.6094V63.4881H209.829V66.4861C209.675 66.1101 209.231 65.7053 208.412 65.7053C207.101 65.7053 206.214 66.8235 206.214 68.1345C206.214 69.513 207.053 70.5926 208.412 70.5926C209.135 70.5926 209.627 70.207 209.848 69.7636V69.8407ZM214.388 69.2238C214.388 69.9564 214.995 70.6119 215.94 70.6119C216.769 70.6119 217.231 70.1685 217.434 69.8407C217.434 70.1781 217.463 70.3516 217.482 70.4673H218.369C218.35 70.3516 218.311 70.1106 218.311 69.7057V67.3826C218.311 66.4765 217.771 65.686 216.383 65.686C215.381 65.686 214.58 66.3029 214.484 67.1898L215.352 67.3922C215.409 66.8524 215.766 66.4572 216.402 66.4572C217.106 66.4572 217.405 66.8331 217.405 67.2862C217.405 67.4501 217.328 67.5947 217.048 67.6332L215.795 67.8164C214.995 67.932 214.388 68.3948 214.388 69.2238ZM216.065 69.8503C215.602 69.8503 215.313 69.5226 215.313 69.1756C215.313 68.7611 215.602 68.5393 215.988 68.4815L217.405 68.2694V68.4815C217.405 69.4937 216.807 69.8503 216.065 69.8503ZM223.039 67.7875C223.039 67.0838 223.405 66.515 224.118 66.515C224.928 66.515 225.198 67.0356 225.198 67.6814V70.4673H226.104V67.5272C226.104 66.4957 225.555 65.6956 224.446 65.6956C223.906 65.6956 223.357 65.9174 223.019 66.4957V65.8306H222.133V70.4673H223.039V67.7875ZM228.133 67.6718C228.172 67.0741 228.635 66.4861 229.396 66.4861C230.216 66.4861 230.649 67.0066 230.669 67.6718H228.133ZM230.804 68.8767C230.63 69.3973 230.254 69.8118 229.502 69.8118C228.721 69.8118 228.124 69.2334 228.105 68.4044H231.594C231.604 68.3466 231.613 68.2309 231.613 68.1152C231.613 66.6692 230.813 65.686 229.387 65.686C228.22 65.686 227.169 66.6789 227.169 68.1345C227.169 69.7057 228.259 70.6119 229.502 70.6119C230.582 70.6119 231.324 69.966 231.584 69.1466L230.804 68.8767ZM235.335 65.8306L234.13 69.3202L233.089 65.8306H232.096L233.62 70.4673H234.574L235.779 66.9392L237.013 70.4673H237.948L239.452 65.8306H238.497L237.475 69.3202L236.27 65.8306H235.335ZM245.351 65.7824C245.303 65.7728 245.177 65.7535 245.052 65.7535C244.58 65.7535 244.001 65.927 243.664 66.6403V65.8306H242.777V70.4673H243.683V68.1441C243.683 67.1223 244.194 66.7174 244.955 66.7174C245.081 66.7174 245.216 66.7271 245.351 66.7464V65.7824ZM248.255 69.8021C247.484 69.8021 246.809 69.2238 246.809 68.1441C246.809 67.0741 247.484 66.4957 248.255 66.4957C249.026 66.4957 249.701 67.0741 249.701 68.1441C249.701 69.2238 249.026 69.8021 248.255 69.8021ZM248.255 65.686C246.867 65.686 245.884 66.7367 245.884 68.1441C245.884 69.5612 246.867 70.6119 248.255 70.6119C249.643 70.6119 250.627 69.5612 250.627 68.1441C250.627 66.7367 249.643 65.686 248.255 65.686ZM252.692 70.4673V63.4881H251.786V70.4673H252.692ZM254.821 67.6718C254.86 67.0741 255.323 66.4861 256.084 66.4861C256.904 66.4861 257.337 67.0066 257.357 67.6718H254.821ZM257.492 68.8767C257.318 69.3973 256.942 69.8118 256.19 69.8118C255.409 69.8118 254.812 69.2334 254.793 68.4044H258.282C258.292 68.3466 258.301 68.2309 258.301 68.1152C258.301 66.6692 257.501 65.686 256.075 65.686C254.908 65.686 253.857 66.6789 253.857 68.1345C253.857 69.7057 254.947 70.6119 256.19 70.6119C257.27 70.6119 258.012 69.966 258.272 69.1466L257.492 68.8767ZM263.854 69.8021C263.083 69.8021 262.408 69.2238 262.408 68.1441C262.408 67.0741 263.083 66.4957 263.854 66.4957C264.625 66.4957 265.3 67.0741 265.3 68.1441C265.3 69.2238 264.625 69.8021 263.854 69.8021ZM263.854 65.686C262.466 65.686 261.482 66.7367 261.482 68.1441C261.482 69.5612 262.466 70.6119 263.854 70.6119C265.242 70.6119 266.225 69.5612 266.225 68.1441C266.225 66.7367 265.242 65.686 263.854 65.686ZM269.958 65.7824C269.91 65.7728 269.785 65.7535 269.659 65.7535C269.187 65.7535 268.609 65.927 268.271 66.6403V65.8306H267.384V70.4673H268.291V68.1441C268.291 67.1223 268.802 66.7174 269.563 66.7174C269.688 66.7174 269.823 66.7271 269.958 66.7464V65.7824ZM131.068 80.6718C131.107 80.0741 131.569 79.4861 132.331 79.4861C133.15 79.4861 133.584 80.0066 133.603 80.6718H131.068ZM133.738 81.8767C133.565 82.3973 133.189 82.8118 132.437 82.8118C131.656 82.8118 131.059 82.2334 131.039 81.4044H134.529C134.538 81.3466 134.548 81.2309 134.548 81.1152C134.548 79.6692 133.748 78.686 132.321 78.686C131.155 78.686 130.104 79.6789 130.104 81.1345C130.104 82.7057 131.193 83.6119 132.437 83.6119C133.517 83.6119 134.259 82.966 134.519 82.1466L133.738 81.8767ZM136.245 81.1345C136.245 80.1802 136.784 79.5054 137.613 79.5054C138.442 79.5054 138.944 80.1609 138.944 81.1152C138.944 82.0695 138.433 82.7925 137.604 82.7925C136.736 82.7925 136.245 82.0888 136.245 81.1345ZM138.953 82.8407C138.953 83.1203 138.982 83.3612 139.002 83.4673H139.879C139.869 83.3902 139.831 83.0528 139.831 82.6094V76.4881H138.934V79.4861C138.78 79.1101 138.336 78.7053 137.517 78.7053C136.206 78.7053 135.319 79.8235 135.319 81.1345C135.319 82.513 136.158 83.5926 137.517 83.5926C138.24 83.5926 138.732 83.207 138.953 82.7636V82.8407ZM142.268 83.4673V78.8306H141.372V83.4673H142.268ZM141.169 77.0762C141.169 77.4328 141.459 77.722 141.815 77.722C142.182 77.722 142.471 77.4328 142.471 77.0762C142.471 76.7099 142.182 76.4207 141.815 76.4207C141.459 76.4207 141.169 76.7099 141.169 77.0762ZM145.025 77.3654H144.196V78.1173C144.196 78.5221 143.984 78.8306 143.482 78.8306H143.232V79.65H144.119V82.1948C144.119 83.0335 144.62 83.5155 145.41 83.5155C145.719 83.5155 145.95 83.4576 146.027 83.4287V82.6576C145.95 82.6768 145.786 82.6961 145.671 82.6961C145.198 82.6961 145.025 82.484 145.025 82.0599V79.65H146.027V78.8306H145.025V77.3654ZM149.357 82.2238C149.357 82.9564 149.965 83.6119 150.909 83.6119C151.738 83.6119 152.201 83.1685 152.404 82.8407C152.404 83.1781 152.432 83.3516 152.452 83.4673H153.339C153.319 83.3516 153.281 83.1106 153.281 82.7057V80.3826C153.281 79.4765 152.741 78.686 151.353 78.686C150.35 78.686 149.55 79.3029 149.454 80.1898L150.321 80.3922C150.379 79.8524 150.736 79.4572 151.372 79.4572C152.076 79.4572 152.375 79.8331 152.375 80.2862C152.375 80.4501 152.297 80.5947 152.018 80.6332L150.765 80.8164C149.965 80.932 149.357 81.3948 149.357 82.2238ZM151.035 82.8503C150.572 82.8503 150.283 82.5226 150.283 82.1756C150.283 81.7611 150.572 81.5393 150.958 81.4815L152.375 81.2694V81.4815C152.375 82.4937 151.777 82.8503 151.035 82.8503ZM155.598 80.7875C155.598 80.0838 155.965 79.515 156.678 79.515C157.488 79.515 157.758 80.0356 157.758 80.6814V83.4673H158.664V80.5272C158.664 79.4957 158.114 78.6956 157.006 78.6956C156.466 78.6956 155.917 78.9174 155.579 79.4957V78.8306H154.692V83.4673H155.598V80.7875ZM163.103 80.6718C163.142 80.0741 163.604 79.4861 164.366 79.4861C165.185 79.4861 165.619 80.0066 165.638 80.6718H163.103ZM165.773 81.8767C165.6 82.3973 165.224 82.8118 164.472 82.8118C163.691 82.8118 163.094 82.2334 163.074 81.4044H166.564C166.573 81.3466 166.583 81.2309 166.583 81.1152C166.583 79.6692 165.783 78.686 164.356 78.686C163.19 78.686 162.139 79.6789 162.139 81.1345C162.139 82.7057 163.229 83.6119 164.472 83.6119C165.552 83.6119 166.294 82.966 166.554 82.1466L165.773 81.8767ZM167.018 83.4673H168.098L169.274 81.7611L170.469 83.4673H171.558C171.279 83.0913 170.132 81.4815 169.852 81.1056L171.5 78.8306H170.43L169.312 80.4597L168.175 78.8306H167.076L168.743 81.1056L167.018 83.4673ZM173.324 83.4673V78.8306H172.428V83.4673H173.324ZM172.225 77.0762C172.225 77.4328 172.515 77.722 172.871 77.722C173.238 77.722 173.527 77.4328 173.527 77.0762C173.527 76.7099 173.238 76.4207 172.871 76.4207C172.515 76.4207 172.225 76.7099 172.225 77.0762ZM174.432 82.2623C174.509 82.7925 175.049 83.6119 176.322 83.6119C177.469 83.6119 178.018 82.8311 178.018 82.1756C178.018 81.4911 177.575 80.9802 176.736 80.7971L175.984 80.6332C175.628 80.5561 175.454 80.3537 175.454 80.0741C175.454 79.756 175.763 79.4572 176.225 79.4572C176.958 79.4572 177.151 79.9874 177.189 80.2283L177.989 79.9295C177.893 79.515 177.498 78.686 176.225 78.686C175.319 78.686 174.577 79.3608 174.577 80.1512C174.577 80.8067 175.011 81.2984 175.734 81.4526L176.524 81.6261C176.91 81.7129 177.122 81.9346 177.122 82.2238C177.122 82.5515 176.842 82.8407 176.331 82.8407C175.676 82.8407 175.309 82.4551 175.252 81.9731L174.432 82.2623ZM180.439 77.3654H179.61V78.1173C179.61 78.5221 179.398 78.8306 178.897 78.8306H178.646V79.65H179.533V82.1948C179.533 83.0335 180.034 83.5155 180.825 83.5155C181.133 83.5155 181.365 83.4576 181.442 83.4287V82.6576C181.365 82.6768 181.201 82.6961 181.085 82.6961C180.613 82.6961 180.439 82.484 180.439 82.0599V79.65H181.442V78.8306H180.439V77.3654ZM183.548 83.4673V78.8306H182.651V83.4673H183.548ZM182.449 77.0762C182.449 77.4328 182.738 77.722 183.095 77.722C183.461 77.722 183.75 77.4328 183.75 77.0762C183.75 76.7099 183.461 76.4207 183.095 76.4207C182.738 76.4207 182.449 76.7099 182.449 77.0762ZM185.996 80.7875C185.996 80.0838 186.362 79.515 187.075 79.515C187.885 79.515 188.155 80.0356 188.155 80.6814V83.4673H189.061V80.5272C189.061 79.4957 188.511 78.6956 187.403 78.6956C186.863 78.6956 186.314 78.9174 185.976 79.4957V78.8306H185.089V83.4673H185.996V80.7875ZM190.165 83.7179C190.281 84.7108 191.148 85.4434 192.305 85.4434C194.05 85.4434 194.628 84.2963 194.628 83.1203V78.8306H193.732V79.4765C193.5 79.0137 193.018 78.7438 192.305 78.7438C191.032 78.7438 190.175 79.7464 190.175 80.9995C190.175 82.3105 191.071 83.2456 192.305 83.2456C192.999 83.2456 193.5 82.9082 193.722 82.484V83.1492C193.722 84.1517 193.279 84.653 192.305 84.653C191.601 84.653 191.11 84.1613 191.042 83.5155L190.165 83.7179ZM192.44 82.484C191.621 82.484 191.1 81.9057 191.1 80.9995C191.1 80.103 191.64 79.515 192.44 79.515C193.221 79.515 193.761 80.103 193.761 80.9995C193.761 81.896 193.221 82.484 192.44 82.484ZM200.471 82.8021C199.7 82.8021 199.025 82.2238 199.025 81.1441C199.025 80.0741 199.7 79.4957 200.471 79.4957C201.242 79.4957 201.917 80.0741 201.917 81.1441C201.917 82.2238 201.242 82.8021 200.471 82.8021ZM200.471 78.686C199.083 78.686 198.1 79.7367 198.1 81.1441C198.1 82.5612 199.083 83.6119 200.471 83.6119C201.859 83.6119 202.842 82.5612 202.842 81.1441C202.842 79.7367 201.859 78.686 200.471 78.686ZM204.908 80.7875C204.908 80.0838 205.274 79.515 205.987 79.515C206.797 79.515 207.067 80.0356 207.067 80.6814V83.4673H207.973V80.5272C207.973 79.4957 207.424 78.6956 206.315 78.6956C205.775 78.6956 205.226 78.9174 204.888 79.4957V78.8306H204.002V83.4673H204.908V80.7875ZM210.003 80.6718C210.041 80.0741 210.504 79.4861 211.265 79.4861C212.085 79.4861 212.519 80.0066 212.538 80.6718H210.003ZM212.673 81.8767C212.499 82.3973 212.123 82.8118 211.371 82.8118C210.591 82.8118 209.993 82.2334 209.974 81.4044H213.463C213.473 81.3466 213.482 81.2309 213.482 81.1152C213.482 79.6692 212.682 78.686 211.256 78.686C210.089 78.686 209.039 79.6789 209.039 81.1345C209.039 82.7057 210.128 83.6119 211.371 83.6119C212.451 83.6119 213.193 82.966 213.454 82.1466L212.673 81.8767ZM216.361 81.5104C216.351 81.414 216.351 81.3755 216.351 81.3273C216.351 80.9513 216.477 80.6043 216.775 80.4019L217.219 80.103C217.778 79.7271 218.202 79.1969 218.202 78.4257C218.202 77.4425 217.441 76.4881 216.091 76.4881C214.606 76.4881 213.961 77.5774 213.961 78.4643C213.961 78.6378 213.98 78.792 214.018 78.927L214.954 79.0427C214.915 78.9366 214.886 78.7342 214.886 78.5703C214.886 77.963 215.252 77.3364 216.091 77.3364C216.862 77.3364 217.238 77.8666 217.238 78.4354C217.238 78.8113 217.055 79.1583 216.727 79.3801L216.303 79.6692C215.734 80.0548 215.503 80.5368 215.503 81.173C215.503 81.2984 215.503 81.3948 215.513 81.5104H216.361ZM215.301 82.8889C215.301 83.2359 215.58 83.5155 215.927 83.5155C216.274 83.5155 216.563 83.2359 216.563 82.8889C216.563 82.5419 216.274 82.2527 215.927 82.2527C215.58 82.2527 215.301 82.5419 215.301 82.8889Z" fill="#707070"/>
<circle cx="105.018" cy="111.665" r="16.1772" fill="#585858"/>
<rect x="112.68" y="116.773" width="11.4943" height="11.4943" rx="5.74717" fill="#4CC38A" stroke="#28302E" stroke-width="3.40573"/>
<path d="M108.34 116.447H110.125L106.365 106.789H104.471L100.711 116.447H102.442L103.341 114.022H107.428L108.34 116.447ZM105.384 108.56L106.855 112.51H103.913L105.384 108.56Z" fill="url(#paint3_linear_2610_73953)"/>
<path d="M136.587 105.873H137.609L134.89 99.0385H133.801L131.083 105.873H132.095L132.818 103.964H135.845L136.587 105.873ZM134.322 100.022L135.507 103.087H133.155L134.322 100.022ZM139.338 103.193C139.338 102.49 139.704 101.921 140.418 101.921C141.227 101.921 141.497 102.441 141.497 103.087V105.873H142.403V102.933C142.403 101.901 141.854 101.101 140.745 101.101C140.206 101.101 139.656 101.323 139.319 101.901V101.236H138.432V105.873H139.338V103.193ZM144.751 103.193C144.751 102.49 145.117 101.921 145.831 101.921C146.64 101.921 146.91 102.441 146.91 103.087V105.873H147.816V102.933C147.816 101.901 147.267 101.101 146.158 101.101C145.618 101.101 145.069 101.323 144.732 101.901V101.236H143.845V105.873H144.751V103.193ZM148.968 104.63C148.968 105.362 149.576 106.018 150.52 106.018C151.349 106.018 151.812 105.574 152.015 105.246C152.015 105.584 152.044 105.757 152.063 105.873H152.95C152.93 105.757 152.892 105.516 152.892 105.112V102.788C152.892 101.882 152.352 101.092 150.964 101.092C149.961 101.092 149.161 101.709 149.065 102.596L149.932 102.798C149.99 102.258 150.347 101.863 150.983 101.863C151.687 101.863 151.986 102.239 151.986 102.692C151.986 102.856 151.909 103 151.629 103.039L150.376 103.222C149.576 103.338 148.968 103.801 148.968 104.63ZM150.646 105.256C150.183 105.256 149.894 104.928 149.894 104.581C149.894 104.167 150.183 103.945 150.569 103.887L151.986 103.675V103.887C151.986 104.899 151.388 105.256 150.646 105.256Z" fill="#ECEDEE"/>
<path d="M160.991 103.618C160.991 104.929 161.781 105.796 163.121 105.796C164.393 105.796 165.174 104.803 165.174 103.608V98.8171H164.23V103.675C164.23 104.466 163.805 104.919 163.111 104.919C162.427 104.919 161.935 104.514 161.935 103.608V102.962L160.991 103.174V103.618ZM169.774 105.093C169.774 105.285 169.793 105.546 169.813 105.652H170.68C170.661 105.488 170.632 105.16 170.632 104.794V101.015H169.726V103.81C169.726 104.514 169.36 104.996 168.627 104.996C167.865 104.996 167.576 104.437 167.576 103.801V101.015H166.67V103.936C166.67 104.986 167.326 105.796 168.405 105.796C168.945 105.796 169.524 105.574 169.774 105.093ZM171.745 104.447C171.822 104.977 172.361 105.796 173.634 105.796C174.781 105.796 175.331 105.015 175.331 104.36C175.331 103.675 174.887 103.165 174.048 102.981L173.297 102.818C172.94 102.74 172.766 102.538 172.766 102.258C172.766 101.94 173.075 101.642 173.538 101.642C174.27 101.642 174.463 102.172 174.502 102.413L175.302 102.114C175.205 101.699 174.81 100.87 173.538 100.87C172.631 100.87 171.889 101.545 171.889 102.336C171.889 102.991 172.323 103.483 173.046 103.637L173.836 103.81C174.222 103.897 174.434 104.119 174.434 104.408C174.434 104.736 174.154 105.025 173.644 105.025C172.988 105.025 172.622 104.639 172.564 104.157L171.745 104.447ZM177.752 99.5497H176.922V100.302C176.922 100.706 176.71 101.015 176.209 101.015H175.959V101.834H176.845V104.379C176.845 105.218 177.347 105.7 178.137 105.7C178.446 105.7 178.677 105.642 178.754 105.613V104.842C178.677 104.861 178.513 104.88 178.397 104.88C177.925 104.88 177.752 104.668 177.752 104.244V101.834H178.754V101.015H177.752V99.5497ZM183.28 102.972C183.28 102.268 183.646 101.699 184.359 101.699C185.169 101.699 185.439 102.22 185.439 102.866V105.652H186.345V102.712C186.345 101.68 185.796 100.88 184.687 100.88C184.147 100.88 183.598 101.102 183.26 101.68V101.015H182.373V105.652H183.28V102.972ZM189.772 104.986C189.001 104.986 188.326 104.408 188.326 103.328C188.326 102.258 189.001 101.68 189.772 101.68C190.543 101.68 191.218 102.258 191.218 103.328C191.218 104.408 190.543 104.986 189.772 104.986ZM189.772 100.87C188.384 100.87 187.401 101.921 187.401 103.328C187.401 104.745 188.384 105.796 189.772 105.796C191.16 105.796 192.143 104.745 192.143 103.328C192.143 101.921 191.16 100.87 189.772 100.87ZM195.821 101.015L194.616 104.504L193.575 101.015H192.582L194.105 105.652H195.059L196.264 102.123L197.498 105.652H198.433L199.937 101.015H198.983L197.961 104.504L196.756 101.015H195.821Z" fill="#707070"/>
<path d="M137.233 121.664V114.83H136.288V117.751H132.799V114.83H131.854V121.664H132.799V118.628H136.288V121.664H137.233ZM139.462 118.869C139.501 118.271 139.964 117.683 140.725 117.683C141.545 117.683 141.978 118.204 141.998 118.869H139.462ZM142.133 120.074C141.959 120.594 141.583 121.009 140.831 121.009C140.05 121.009 139.453 120.43 139.433 119.601H142.923C142.933 119.544 142.942 119.428 142.942 119.312C142.942 117.866 142.142 116.883 140.715 116.883C139.549 116.883 138.498 117.876 138.498 119.332C138.498 120.903 139.588 121.809 140.831 121.809C141.911 121.809 142.653 121.163 142.913 120.344L142.133 120.074ZM145.162 123.602L148.179 117.028H147.205L145.817 120.228L144.371 117.028H143.33L145.325 121.153L144.169 123.602H145.162ZM156.3 115.707V114.83H150.786V115.707H153.07V121.664H154.015V115.707H156.3ZM157.873 121.664V117.028H156.977V121.664H157.873ZM156.775 115.273C156.775 115.63 157.064 115.919 157.42 115.919C157.787 115.919 158.076 115.63 158.076 115.273C158.076 114.907 157.787 114.618 157.42 114.618C157.064 114.618 156.775 114.907 156.775 115.273ZM160.312 121.664V118.869C160.312 118.175 160.745 117.693 161.391 117.693C162.085 117.693 162.375 118.155 162.375 118.753V121.664H163.281V118.859C163.281 118.194 163.714 117.693 164.351 117.693C165.035 117.693 165.334 118.146 165.334 118.753V121.664H166.23V118.657C166.23 117.442 165.44 116.893 164.63 116.893C164.042 116.893 163.445 117.105 163.078 117.77C162.828 117.172 162.268 116.893 161.69 116.893C161.15 116.893 160.572 117.134 160.283 117.645V117.028H159.415V121.664H160.312ZM167.584 121.047C167.584 121.462 167.873 121.703 168.23 121.703C168.336 121.703 168.413 121.674 168.442 121.655C168.432 122.117 168.114 122.59 167.642 122.696V123.197C168.24 123.12 169.069 122.59 169.069 121.317C169.069 120.71 168.702 120.402 168.288 120.402C167.883 120.402 167.584 120.7 167.584 121.047ZM173.83 118.936C173.849 118.252 174.216 117.712 174.91 117.712C175.719 117.712 175.989 118.233 175.989 118.878V121.664H176.895V118.724C176.895 117.693 176.346 116.893 175.237 116.893C174.707 116.893 174.167 117.076 173.83 117.567V114.685H172.924V121.664H173.83V118.936ZM178.925 118.869C178.963 118.271 179.426 117.683 180.188 117.683C181.007 117.683 181.441 118.204 181.46 118.869H178.925ZM181.595 120.074C181.421 120.594 181.046 121.009 180.294 121.009C179.513 121.009 178.915 120.43 178.896 119.601H182.385C182.395 119.544 182.405 119.428 182.405 119.312C182.405 117.866 181.605 116.883 180.178 116.883C179.012 116.883 177.961 117.876 177.961 119.332C177.961 120.903 179.05 121.809 180.294 121.809C181.373 121.809 182.116 121.163 182.376 120.344L181.595 120.074ZM186.135 116.979C186.087 116.97 185.962 116.95 185.836 116.95C185.364 116.95 184.786 117.124 184.448 117.837V117.028H183.561V121.664H184.468V119.341C184.468 118.319 184.978 117.914 185.74 117.914C185.865 117.914 186 117.924 186.135 117.943V116.979ZM187.642 118.869C187.681 118.271 188.143 117.683 188.905 117.683C189.724 117.683 190.158 118.204 190.177 118.869H187.642ZM190.312 120.074C190.139 120.594 189.763 121.009 189.011 121.009C188.23 121.009 187.632 120.43 187.613 119.601H191.103C191.112 119.544 191.122 119.428 191.122 119.312C191.122 117.866 190.322 116.883 188.895 116.883C187.729 116.883 186.678 117.876 186.678 119.332C186.678 120.903 187.767 121.809 189.011 121.809C190.09 121.809 190.833 121.163 191.093 120.344L190.312 120.074ZM191.507 115.341C191.507 115.726 191.777 115.958 192.114 115.958C192.211 115.958 192.278 115.929 192.307 115.909C192.297 116.343 191.999 116.787 191.565 116.883V117.346C192.124 117.278 192.895 116.787 192.895 115.591C192.895 115.032 192.548 114.743 192.163 114.743C191.787 114.743 191.507 115.023 191.507 115.341ZM193.087 120.459C193.165 120.99 193.704 121.809 194.977 121.809C196.124 121.809 196.673 121.028 196.673 120.373C196.673 119.688 196.23 119.177 195.391 118.994L194.639 118.83C194.283 118.753 194.109 118.551 194.109 118.271C194.109 117.953 194.418 117.654 194.88 117.654C195.613 117.654 195.806 118.184 195.844 118.425L196.644 118.127C196.548 117.712 196.153 116.883 194.88 116.883C193.974 116.883 193.232 117.558 193.232 118.348C193.232 119.004 193.666 119.495 194.389 119.65L195.179 119.823C195.565 119.91 195.777 120.132 195.777 120.421C195.777 120.749 195.497 121.038 194.986 121.038C194.331 121.038 193.965 120.652 193.907 120.17L193.087 120.459ZM200 120.421C200 121.153 200.608 121.809 201.552 121.809C202.381 121.809 202.844 121.365 203.047 121.038C203.047 121.375 203.076 121.549 203.095 121.664H203.982C203.962 121.549 203.924 121.308 203.924 120.903V118.58C203.924 117.673 203.384 116.883 201.996 116.883C200.993 116.883 200.193 117.5 200.097 118.387L200.964 118.589C201.022 118.049 201.379 117.654 202.015 117.654C202.719 117.654 203.018 118.03 203.018 118.483C203.018 118.647 202.941 118.792 202.661 118.83L201.408 119.013C200.608 119.129 200 119.592 200 120.421ZM201.678 121.047C201.215 121.047 200.926 120.72 200.926 120.373C200.926 119.958 201.215 119.736 201.601 119.679L203.018 119.466V119.679C203.018 120.691 202.42 121.047 201.678 121.047ZM207.408 121.915C207.524 122.908 208.391 123.64 209.548 123.64C211.293 123.64 211.871 122.493 211.871 121.317V117.028H210.975V117.673C210.743 117.211 210.261 116.941 209.548 116.941C208.276 116.941 207.418 117.943 207.418 119.197C207.418 120.508 208.314 121.443 209.548 121.443C210.242 121.443 210.743 121.105 210.965 120.681V121.346C210.965 122.349 210.522 122.85 209.548 122.85C208.844 122.85 208.353 122.358 208.285 121.713L207.408 121.915ZM209.683 120.681C208.864 120.681 208.343 120.103 208.343 119.197C208.343 118.3 208.883 117.712 209.683 117.712C210.464 117.712 211.004 118.3 211.004 119.197C211.004 120.093 210.464 120.681 209.683 120.681ZM216.327 121.105C216.327 121.298 216.346 121.558 216.366 121.664H217.233C217.214 121.5 217.185 121.173 217.185 120.806V117.028H216.279V119.823C216.279 120.527 215.913 121.009 215.18 121.009C214.418 121.009 214.129 120.45 214.129 119.813V117.028H213.223V119.948C213.223 120.999 213.879 121.809 214.958 121.809C215.498 121.809 216.076 121.587 216.327 121.105ZM219.628 121.664V117.028H218.731V121.664H219.628ZM218.529 115.273C218.529 115.63 218.818 115.919 219.175 115.919C219.541 115.919 219.83 115.63 219.83 115.273C219.83 114.907 219.541 114.618 219.175 114.618C218.818 114.618 218.529 114.907 218.529 115.273ZM221.709 119.332C221.709 118.377 222.249 117.702 223.078 117.702C223.907 117.702 224.408 118.358 224.408 119.312C224.408 120.267 223.897 120.99 223.068 120.99C222.201 120.99 221.709 120.286 221.709 119.332ZM224.418 121.038C224.418 121.317 224.447 121.558 224.466 121.664H225.343C225.334 121.587 225.295 121.25 225.295 120.806V114.685H224.399V117.683C224.244 117.307 223.801 116.902 222.982 116.902C221.671 116.902 220.784 118.021 220.784 119.332C220.784 120.71 221.622 121.79 222.982 121.79C223.705 121.79 224.196 121.404 224.418 120.961V121.038ZM227.425 118.869C227.463 118.271 227.926 117.683 228.687 117.683C229.507 117.683 229.94 118.204 229.96 118.869H227.425ZM230.095 120.074C229.921 120.594 229.545 121.009 228.793 121.009C228.013 121.009 227.415 120.43 227.396 119.601H230.885C230.895 119.544 230.904 119.428 230.904 119.312C230.904 117.866 230.104 116.883 228.678 116.883C227.511 116.883 226.461 117.876 226.461 119.332C226.461 120.903 227.55 121.809 228.793 121.809C229.873 121.809 230.615 121.163 230.876 120.344L230.095 120.074ZM236.457 120.999C235.686 120.999 235.011 120.421 235.011 119.341C235.011 118.271 235.686 117.693 236.457 117.693C237.228 117.693 237.903 118.271 237.903 119.341C237.903 120.421 237.228 120.999 236.457 120.999ZM236.457 116.883C235.069 116.883 234.085 117.934 234.085 119.341C234.085 120.758 235.069 121.809 236.457 121.809C237.845 121.809 238.828 120.758 238.828 119.341C238.828 117.934 237.845 116.883 236.457 116.883ZM240.894 118.984C240.894 118.281 241.26 117.712 241.973 117.712C242.783 117.712 243.053 118.233 243.053 118.878V121.664H243.959V118.724C243.959 117.693 243.41 116.893 242.301 116.893C241.761 116.893 241.212 117.114 240.874 117.693V117.028H239.988V121.664H240.894V118.984ZM248.716 118.936C248.736 118.252 249.102 117.712 249.796 117.712C250.606 117.712 250.876 118.233 250.876 118.878V121.664H251.782V118.724C251.782 117.693 251.232 116.893 250.124 116.893C249.594 116.893 249.054 117.076 248.716 117.567V114.685H247.81V121.664H248.716V118.936ZM255.209 120.999C254.438 120.999 253.763 120.421 253.763 119.341C253.763 118.271 254.438 117.693 255.209 117.693C255.98 117.693 256.655 118.271 256.655 119.341C256.655 120.421 255.98 120.999 255.209 120.999ZM255.209 116.883C253.821 116.883 252.838 117.934 252.838 119.341C252.838 120.758 253.821 121.809 255.209 121.809C256.597 121.809 257.58 120.758 257.58 119.341C257.58 117.934 256.597 116.883 255.209 116.883ZM261.258 117.028L260.053 120.517L259.012 117.028H258.019L259.542 121.664H260.496L261.701 118.136L262.935 121.664H263.87L265.374 117.028H264.42L263.398 120.517L262.193 117.028H261.258ZM269.914 115.562H269.085V116.314C269.085 116.719 268.873 117.028 268.372 117.028H268.121V117.847H269.008V120.392C269.008 121.231 269.509 121.713 270.3 121.713C270.608 121.713 270.839 121.655 270.917 121.626V120.855C270.839 120.874 270.676 120.893 270.56 120.893C270.088 120.893 269.914 120.681 269.914 120.257V117.847H270.917V117.028H269.914V115.562ZM274.065 120.999C273.294 120.999 272.619 120.421 272.619 119.341C272.619 118.271 273.294 117.693 274.065 117.693C274.836 117.693 275.511 118.271 275.511 119.341C275.511 120.421 274.836 120.999 274.065 120.999ZM274.065 116.883C272.677 116.883 271.693 117.934 271.693 119.341C271.693 120.758 272.677 121.809 274.065 121.809C275.453 121.809 276.436 120.758 276.436 119.341C276.436 117.934 275.453 116.883 274.065 116.883ZM132.297 132.332C132.297 131.377 132.837 130.702 133.666 130.702C134.495 130.702 134.996 131.358 134.996 132.312C134.996 133.267 134.486 133.99 133.657 133.99C132.789 133.99 132.297 133.286 132.297 132.332ZM135.006 134.038C135.006 134.317 135.035 134.558 135.054 134.664H135.931C135.922 134.587 135.883 134.25 135.883 133.806V127.685H134.987V130.683C134.833 130.307 134.389 129.902 133.57 129.902C132.259 129.902 131.372 131.021 131.372 132.332C131.372 133.71 132.211 134.79 133.57 134.79C134.293 134.79 134.784 134.404 135.006 133.961V134.038ZM139.41 133.999C138.639 133.999 137.964 133.421 137.964 132.341C137.964 131.271 138.639 130.693 139.41 130.693C140.182 130.693 140.856 131.271 140.856 132.341C140.856 133.421 140.182 133.999 139.41 133.999ZM139.41 129.883C138.022 129.883 137.039 130.934 137.039 132.341C137.039 133.758 138.022 134.809 139.41 134.809C140.798 134.809 141.782 133.758 141.782 132.341C141.782 130.934 140.798 129.883 139.41 129.883ZM146.566 128.562H145.737V129.314C145.737 129.719 145.524 130.028 145.023 130.028H144.773V130.847H145.659V133.392C145.659 134.231 146.161 134.713 146.951 134.713C147.26 134.713 147.491 134.655 147.568 134.626V133.855C147.491 133.874 147.327 133.893 147.211 133.893C146.739 133.893 146.566 133.681 146.566 133.257V130.847H147.568V130.028H146.566V128.562ZM149.684 131.936C149.703 131.252 150.069 130.712 150.763 130.712C151.573 130.712 151.843 131.233 151.843 131.878V134.664H152.749V131.724C152.749 130.693 152.2 129.893 151.091 129.893C150.561 129.893 150.021 130.076 149.684 130.567V127.685H148.778V134.664H149.684V131.936ZM155.087 134.664V130.028H154.19V134.664H155.087ZM153.988 128.273C153.988 128.63 154.277 128.919 154.634 128.919C155 128.919 155.289 128.63 155.289 128.273C155.289 127.907 155 127.618 154.634 127.618C154.277 127.618 153.988 127.907 153.988 128.273ZM156.195 133.459C156.272 133.99 156.812 134.809 158.084 134.809C159.231 134.809 159.781 134.028 159.781 133.373C159.781 132.688 159.337 132.177 158.499 131.994L157.747 131.83C157.39 131.753 157.217 131.551 157.217 131.271C157.217 130.953 157.525 130.654 157.988 130.654C158.72 130.654 158.913 131.184 158.952 131.425L159.752 131.127C159.656 130.712 159.26 129.883 157.988 129.883C157.082 129.883 156.339 130.558 156.339 131.348C156.339 132.004 156.773 132.495 157.496 132.65L158.287 132.823C158.672 132.91 158.884 133.132 158.884 133.421C158.884 133.749 158.605 134.038 158.094 134.038C157.438 134.038 157.072 133.652 157.014 133.17L156.195 133.459ZM160.891 134.047C160.891 134.462 161.18 134.703 161.537 134.703C161.643 134.703 161.72 134.674 161.749 134.655C161.739 135.117 161.421 135.59 160.949 135.696V136.197C161.546 136.12 162.375 135.59 162.375 134.317C162.375 133.71 162.009 133.402 161.595 133.402C161.19 133.402 160.891 133.7 160.891 134.047ZM167.137 134.664V127.685H166.231V134.664H167.137ZM169.266 131.869C169.305 131.271 169.768 130.683 170.529 130.683C171.348 130.683 171.782 131.204 171.802 131.869H169.266ZM171.936 133.074C171.763 133.594 171.387 134.009 170.635 134.009C169.854 134.009 169.257 133.43 169.237 132.601H172.727C172.737 132.544 172.746 132.428 172.746 132.312C172.746 130.866 171.946 129.883 170.519 129.883C169.353 129.883 168.302 130.876 168.302 132.332C168.302 133.903 169.392 134.809 170.635 134.809C171.715 134.809 172.457 134.163 172.717 133.344L171.936 133.074ZM175.118 128.562H174.288V129.314C174.288 129.719 174.076 130.028 173.575 130.028H173.325V130.847H174.211V133.392C174.211 134.231 174.713 134.713 175.503 134.713C175.812 134.713 176.043 134.655 176.12 134.626V133.855C176.043 133.874 175.879 133.893 175.763 133.893C175.291 133.893 175.118 133.681 175.118 133.257V130.847H176.12V130.028H175.118V128.562ZM180.636 134.664V131.869C180.636 131.175 181.07 130.693 181.716 130.693C182.41 130.693 182.699 131.155 182.699 131.753V134.664H183.605V131.859C183.605 131.194 184.039 130.693 184.675 130.693C185.359 130.693 185.658 131.146 185.658 131.753V134.664H186.555V131.657C186.555 130.442 185.764 129.893 184.955 129.893C184.366 129.893 183.769 130.105 183.403 130.77C183.152 130.172 182.593 129.893 182.014 129.893C181.475 129.893 180.896 130.134 180.607 130.645V130.028H179.739V134.664H180.636ZM188.593 131.869C188.631 131.271 189.094 130.683 189.856 130.683C190.675 130.683 191.109 131.204 191.128 131.869H188.593ZM191.263 133.074C191.089 133.594 190.713 134.009 189.962 134.009C189.181 134.009 188.583 133.43 188.564 132.601H192.053C192.063 132.544 192.073 132.428 192.073 132.312C192.073 130.866 191.273 129.883 189.846 129.883C188.68 129.883 187.629 130.876 187.629 132.332C187.629 133.903 188.718 134.809 189.962 134.809C191.041 134.809 191.783 134.163 192.044 133.344L191.263 133.074ZM199.794 130.028H198.541L196.536 132.081V127.685H195.639V134.664H196.536V133.267L197.182 132.621L198.695 134.664H199.833L197.818 131.984L199.794 130.028ZM201.61 131.984C201.61 131.281 201.976 130.712 202.69 130.712C203.499 130.712 203.769 131.233 203.769 131.878V134.664H204.675V131.724C204.675 130.693 204.126 129.893 203.017 129.893C202.478 129.893 201.928 130.114 201.591 130.693V130.028H200.704V134.664H201.61V131.984ZM208.103 133.999C207.331 133.999 206.657 133.421 206.657 132.341C206.657 131.271 207.331 130.693 208.103 130.693C208.874 130.693 209.549 131.271 209.549 132.341C209.549 133.421 208.874 133.999 208.103 133.999ZM208.103 129.883C206.714 129.883 205.731 130.934 205.731 132.341C205.731 133.758 206.714 134.809 208.103 134.809C209.491 134.809 210.474 133.758 210.474 132.341C210.474 130.934 209.491 129.883 208.103 129.883ZM214.151 130.028L212.947 133.517L211.905 130.028H210.913L212.436 134.664H213.39L214.595 131.136L215.829 134.664H216.764L218.268 130.028H217.313L216.291 133.517L215.087 130.028H214.151ZM222.49 134.664V130.028H221.593V134.664H222.49ZM221.391 128.273C221.391 128.63 221.68 128.919 222.036 128.919C222.403 128.919 222.692 128.63 222.692 128.273C222.692 127.907 222.403 127.618 222.036 127.618C221.68 127.618 221.391 127.907 221.391 128.273ZM226.364 130.847V130.028H225.246V129.295C225.246 128.659 225.66 128.505 225.978 128.505C226.21 128.505 226.325 128.543 226.374 128.562V127.753C226.335 127.724 226.142 127.656 225.834 127.656C224.995 127.656 224.311 128.215 224.311 129.247V130.028H223.453V130.847H224.311V134.664H225.246V130.847H226.364ZM230.96 128.562H230.131V129.314C230.131 129.719 229.919 130.028 229.418 130.028H229.167V130.847H230.054V133.392C230.054 134.231 230.555 134.713 231.346 134.713C231.654 134.713 231.885 134.655 231.962 134.626V133.855C231.885 133.874 231.721 133.893 231.606 133.893C231.133 133.893 230.96 133.681 230.96 133.257V130.847H231.962V130.028H230.96V128.562ZM234.078 131.936C234.097 131.252 234.464 130.712 235.158 130.712C235.967 130.712 236.237 131.233 236.237 131.878V134.664H237.143V131.724C237.143 130.693 236.594 129.893 235.485 129.893C234.955 129.893 234.415 130.076 234.078 130.567V127.685H233.172V134.664H234.078V131.936ZM239.173 131.869C239.211 131.271 239.674 130.683 240.436 130.683C241.255 130.683 241.689 131.204 241.708 131.869H239.173ZM241.843 133.074C241.67 133.594 241.294 134.009 240.542 134.009C239.761 134.009 239.163 133.43 239.144 132.601H242.634C242.643 132.544 242.653 132.428 242.653 132.312C242.653 130.866 241.853 129.883 240.426 129.883C239.26 129.883 238.209 130.876 238.209 132.332C238.209 133.903 239.298 134.809 240.542 134.809C241.621 134.809 242.364 134.163 242.624 133.344L241.843 133.074ZM246.383 129.979C246.335 129.97 246.21 129.95 246.084 129.95C245.612 129.95 245.034 130.124 244.696 130.837V130.028H243.809V134.664H244.716V132.341C244.716 131.319 245.227 130.914 245.988 130.914C246.113 130.914 246.248 130.924 246.383 130.943V129.979ZM247.89 131.869C247.929 131.271 248.391 130.683 249.153 130.683C249.972 130.683 250.406 131.204 250.425 131.869H247.89ZM250.56 133.074C250.387 133.594 250.011 134.009 249.259 134.009C248.478 134.009 247.88 133.43 247.861 132.601H251.351C251.36 132.544 251.37 132.428 251.37 132.312C251.37 130.866 250.57 129.883 249.143 129.883C247.977 129.883 246.926 130.876 246.926 132.332C246.926 133.903 248.015 134.809 249.259 134.809C250.339 134.809 251.081 134.163 251.341 133.344L250.56 133.074ZM252.093 133.459C252.17 133.99 252.71 134.809 253.982 134.809C255.129 134.809 255.679 134.028 255.679 133.373C255.679 132.688 255.235 132.177 254.397 131.994L253.645 131.83C253.288 131.753 253.115 131.551 253.115 131.271C253.115 130.953 253.423 130.654 253.886 130.654C254.618 130.654 254.811 131.184 254.85 131.425L255.65 131.127C255.553 130.712 255.158 129.883 253.886 129.883C252.98 129.883 252.237 130.558 252.237 131.348C252.237 132.004 252.671 132.495 253.394 132.65L254.185 132.823C254.57 132.91 254.782 133.132 254.782 133.421C254.782 133.749 254.503 134.038 253.992 134.038C253.336 134.038 252.97 133.652 252.912 133.17L252.093 133.459ZM131.468 146.421C131.468 147.153 132.076 147.809 133.02 147.809C133.849 147.809 134.312 147.365 134.514 147.038C134.514 147.375 134.543 147.549 134.563 147.664H135.45C135.43 147.549 135.392 147.308 135.392 146.903V144.58C135.392 143.673 134.852 142.883 133.464 142.883C132.461 142.883 131.661 143.5 131.565 144.387L132.432 144.589C132.49 144.049 132.847 143.654 133.483 143.654C134.187 143.654 134.486 144.03 134.486 144.483C134.486 144.647 134.408 144.792 134.129 144.83L132.876 145.013C132.076 145.129 131.468 145.592 131.468 146.421ZM133.146 147.047C132.683 147.047 132.394 146.72 132.394 146.373C132.394 145.958 132.683 145.736 133.069 145.679L134.486 145.466V145.679C134.486 146.691 133.888 147.047 133.146 147.047ZM137.709 144.984C137.709 144.281 138.076 143.712 138.789 143.712C139.599 143.712 139.869 144.233 139.869 144.878V147.664H140.775V144.724C140.775 143.693 140.225 142.893 139.117 142.893C138.577 142.893 138.028 143.114 137.69 143.693V143.028H136.803V147.664H137.709V144.984ZM143.373 149.602L146.39 143.028H145.417L144.028 146.228L142.582 143.028H141.541L143.537 147.153L142.38 149.602H143.373ZM148.524 141.562H147.695V142.314C147.695 142.719 147.483 143.028 146.981 143.028H146.731V143.847H147.618V146.392C147.618 147.231 148.119 147.713 148.909 147.713C149.218 147.713 149.449 147.655 149.526 147.626V146.855C149.449 146.874 149.285 146.893 149.169 146.893C148.697 146.893 148.524 146.681 148.524 146.257V143.847H149.526V143.028H148.524V141.562ZM151.642 144.936C151.661 144.252 152.027 143.712 152.721 143.712C153.531 143.712 153.801 144.233 153.801 144.878V147.664H154.707V144.724C154.707 143.693 154.158 142.893 153.049 142.893C152.519 142.893 151.979 143.076 151.642 143.567V140.685H150.736V147.664H151.642V144.936ZM157.045 147.664V143.028H156.149V147.664H157.045ZM155.946 141.273C155.946 141.63 156.235 141.919 156.592 141.919C156.958 141.919 157.247 141.63 157.247 141.273C157.247 140.907 156.958 140.618 156.592 140.618C156.235 140.618 155.946 140.907 155.946 141.273ZM159.493 144.984C159.493 144.281 159.859 143.712 160.572 143.712C161.382 143.712 161.652 144.233 161.652 144.878V147.664H162.558V144.724C162.558 143.693 162.009 142.893 160.9 142.893C160.36 142.893 159.811 143.114 159.474 143.693V143.028H158.587V147.664H159.493V144.984ZM163.662 147.915C163.778 148.908 164.645 149.64 165.802 149.64C167.547 149.64 168.125 148.493 168.125 147.317V143.028H167.229V143.673C166.998 143.211 166.516 142.941 165.802 142.941C164.53 142.941 163.672 143.943 163.672 145.197C163.672 146.508 164.568 147.443 165.802 147.443C166.496 147.443 166.998 147.105 167.219 146.681V147.346C167.219 148.349 166.776 148.85 165.802 148.85C165.099 148.85 164.607 148.358 164.539 147.713L163.662 147.915ZM165.937 146.681C165.118 146.681 164.597 146.103 164.597 145.197C164.597 144.3 165.137 143.712 165.937 143.712C166.718 143.712 167.258 144.3 167.258 145.197C167.258 146.093 166.718 146.681 165.937 146.681ZM172.571 144.869C172.609 144.271 173.072 143.683 173.833 143.683C174.653 143.683 175.086 144.204 175.106 144.869H172.571ZM175.241 146.074C175.067 146.594 174.691 147.009 173.939 147.009C173.159 147.009 172.561 146.43 172.542 145.601H176.031C176.041 145.544 176.05 145.428 176.05 145.312C176.05 143.866 175.25 142.883 173.824 142.883C172.657 142.883 171.607 143.876 171.607 145.332C171.607 146.903 172.696 147.809 173.939 147.809C175.019 147.809 175.761 147.163 176.022 146.344L175.241 146.074ZM178.113 147.664V140.685H177.207V147.664H178.113ZM179.221 146.459C179.298 146.99 179.838 147.809 181.11 147.809C182.257 147.809 182.807 147.028 182.807 146.373C182.807 145.688 182.363 145.177 181.525 144.994L180.773 144.83C180.416 144.753 180.243 144.551 180.243 144.271C180.243 143.953 180.551 143.654 181.014 143.654C181.747 143.654 181.939 144.184 181.978 144.425L182.778 144.127C182.682 143.712 182.286 142.883 181.014 142.883C180.108 142.883 179.366 143.558 179.366 144.348C179.366 145.004 179.799 145.495 180.522 145.65L181.313 145.823C181.698 145.91 181.91 146.132 181.91 146.421C181.91 146.749 181.631 147.038 181.12 147.038C180.464 147.038 180.098 146.652 180.04 146.17L179.221 146.459ZM184.554 144.869C184.593 144.271 185.056 143.683 185.817 143.683C186.636 143.683 187.07 144.204 187.089 144.869H184.554ZM187.224 146.074C187.051 146.594 186.675 147.009 185.923 147.009C185.142 147.009 184.545 146.43 184.525 145.601H188.015C188.025 145.544 188.034 145.428 188.034 145.312C188.034 143.866 187.234 142.883 185.807 142.883C184.641 142.883 183.59 143.876 183.59 145.332C183.59 146.903 184.68 147.809 185.923 147.809C187.003 147.809 187.745 147.163 188.005 146.344L187.224 146.074ZM192.758 149.602L195.775 143.028H194.801L193.413 146.228L191.967 143.028H190.926L192.921 147.153L191.765 149.602H192.758ZM198.444 146.999C197.673 146.999 196.998 146.421 196.998 145.341C196.998 144.271 197.673 143.693 198.444 143.693C199.215 143.693 199.89 144.271 199.89 145.341C199.89 146.421 199.215 146.999 198.444 146.999ZM198.444 142.883C197.056 142.883 196.073 143.934 196.073 145.341C196.073 146.758 197.056 147.809 198.444 147.809C199.832 147.809 200.815 146.758 200.815 145.341C200.815 143.934 199.832 142.883 198.444 142.883ZM204.983 147.105C204.983 147.298 205.003 147.558 205.022 147.664H205.89C205.87 147.5 205.841 147.173 205.841 146.806V143.028H204.935V145.823C204.935 146.527 204.569 147.009 203.836 147.009C203.075 147.009 202.786 146.45 202.786 145.813V143.028H201.879V145.948C201.879 146.999 202.535 147.809 203.615 147.809C204.154 147.809 204.733 147.587 204.983 147.105ZM207.002 141.341C207.002 141.726 207.272 141.958 207.609 141.958C207.706 141.958 207.773 141.929 207.802 141.909C207.793 142.343 207.494 142.787 207.06 142.883V143.346C207.619 143.278 208.39 142.787 208.39 141.591C208.39 141.032 208.043 140.743 207.658 140.743C207.282 140.743 207.002 141.023 207.002 141.341ZM211.731 142.979C211.683 142.97 211.558 142.95 211.432 142.95C210.96 142.95 210.382 143.124 210.044 143.837V143.028H209.157V147.664H210.064V145.341C210.064 144.319 210.574 143.914 211.336 143.914C211.461 143.914 211.596 143.924 211.731 143.943V142.979ZM213.238 144.869C213.277 144.271 213.739 143.683 214.501 143.683C215.32 143.683 215.754 144.204 215.773 144.869H213.238ZM215.908 146.074C215.735 146.594 215.359 147.009 214.607 147.009C213.826 147.009 213.228 146.43 213.209 145.601H216.699C216.708 145.544 216.718 145.428 216.718 145.312C216.718 143.866 215.918 142.883 214.491 142.883C213.325 142.883 212.274 143.876 212.274 145.332C212.274 146.903 213.363 147.809 214.607 147.809C215.686 147.809 216.429 147.163 216.689 146.344L215.908 146.074ZM219.851 146.459C219.928 146.99 220.468 147.809 221.74 147.809C222.887 147.809 223.437 147.028 223.437 146.373C223.437 145.688 222.993 145.177 222.155 144.994L221.403 144.83C221.046 144.753 220.873 144.551 220.873 144.271C220.873 143.953 221.181 143.654 221.644 143.654C222.376 143.654 222.569 144.184 222.608 144.425L223.408 144.127C223.311 143.712 222.916 142.883 221.644 142.883C220.738 142.883 219.995 143.558 219.995 144.348C219.995 145.004 220.429 145.495 221.152 145.65L221.943 145.823C222.328 145.91 222.54 146.132 222.54 146.421C222.54 146.749 222.261 147.038 221.75 147.038C221.094 147.038 220.728 146.652 220.67 146.17L219.851 146.459ZM225.858 141.562H225.029V142.314C225.029 142.719 224.817 143.028 224.315 143.028H224.065V143.847H224.952V146.392C224.952 147.231 225.453 147.713 226.243 147.713C226.552 147.713 226.783 147.655 226.86 147.626V146.855C226.783 146.874 226.619 146.893 226.504 146.893C226.031 146.893 225.858 146.681 225.858 146.257V143.847H226.86V143.028H225.858V141.562ZM231.125 147.105C231.125 147.298 231.145 147.558 231.164 147.664H232.032C232.012 147.5 231.983 147.173 231.983 146.806V143.028H231.077V145.823C231.077 146.527 230.711 147.009 229.978 147.009C229.217 147.009 228.928 146.45 228.928 145.813V143.028H228.021V145.948C228.021 146.999 228.677 147.809 229.757 147.809C230.296 147.809 230.875 147.587 231.125 147.105ZM235.43 143.722C236.22 143.722 236.558 144.252 236.673 144.705L237.493 144.358C237.3 143.654 236.664 142.883 235.43 142.883C234.109 142.883 233.097 143.895 233.097 145.341C233.097 146.749 234.09 147.809 235.439 147.809C236.644 147.809 237.31 147.028 237.531 146.363L236.731 146.016C236.625 146.382 236.307 146.97 235.439 146.97C234.688 146.97 234.022 146.402 234.022 145.341C234.022 144.261 234.697 143.722 235.43 143.722ZM242.749 143.028H241.496L239.491 145.081V140.685H238.594V147.664H239.491V146.267L240.137 145.621L241.65 147.664H242.788L240.773 144.984L242.749 143.028ZM248.681 143.028L247.476 146.517L246.435 143.028H245.442L246.965 147.664H247.92L249.125 144.136L250.358 147.664H251.294L252.797 143.028H251.843L250.821 146.517L249.616 143.028H248.681ZM254.609 147.664V143.028H253.713V147.664H254.609ZM253.51 141.273C253.51 141.63 253.8 141.919 254.156 141.919C254.522 141.919 254.812 141.63 254.812 141.273C254.812 140.907 254.522 140.618 254.156 140.618C253.8 140.618 253.51 140.907 253.51 141.273ZM257.366 141.562H256.537V142.314C256.537 142.719 256.324 143.028 255.823 143.028H255.573V143.847H256.459V146.392C256.459 147.231 256.961 147.713 257.751 147.713C258.06 147.713 258.291 147.655 258.368 147.626V146.855C258.291 146.874 258.127 146.893 258.011 146.893C257.539 146.893 257.366 146.681 257.366 146.257V143.847H258.368V143.028H257.366V141.562ZM260.484 144.936C260.503 144.252 260.869 143.712 261.563 143.712C262.373 143.712 262.643 144.233 262.643 144.878V147.664H263.549V144.724C263.549 143.693 263 142.893 261.891 142.893C261.361 142.893 260.821 143.076 260.484 143.567V140.685H259.578V147.664H260.484V144.936ZM264.894 147.047C264.894 147.423 265.183 147.713 265.559 147.713C265.935 147.713 266.234 147.423 266.234 147.047C266.234 146.671 265.935 146.373 265.559 146.373C265.183 146.373 264.894 146.671 264.894 147.047Z" fill="#707070"/>
<path d="M94.4506 163.727V162.85H88.9367V163.727H91.2213V169.685H92.166V163.727H94.4506ZM96.0245 169.685V165.048H95.128V169.685H96.0245ZM94.9255 163.293C94.9255 163.65 95.2147 163.939 95.5714 163.939C95.9377 163.939 96.2269 163.65 96.2269 163.293C96.2269 162.927 95.9377 162.638 95.5714 162.638C95.2147 162.638 94.9255 162.927 94.9255 163.293ZM98.4626 169.685V166.889C98.4626 166.195 98.8964 165.713 99.5423 165.713C100.236 165.713 100.526 166.176 100.526 166.773V169.685H101.432V166.879C101.432 166.214 101.865 165.713 102.502 165.713C103.186 165.713 103.485 166.166 103.485 166.773V169.685H104.381V166.677C104.381 165.462 103.591 164.913 102.781 164.913C102.193 164.913 101.596 165.125 101.229 165.79C100.979 165.192 100.419 164.913 99.8411 164.913C99.3013 164.913 98.7229 165.154 98.4337 165.665V165.048H97.5661V169.685H98.4626ZM109.138 169.685V165.048H108.241V169.685H109.138ZM108.039 163.293C108.039 163.65 108.328 163.939 108.685 163.939C109.051 163.939 109.34 163.65 109.34 163.293C109.34 162.927 109.051 162.638 108.685 162.638C108.328 162.638 108.039 162.927 108.039 163.293ZM110.246 168.48C110.323 169.01 110.863 169.829 112.135 169.829C113.282 169.829 113.832 169.048 113.832 168.393C113.832 167.708 113.388 167.198 112.55 167.014L111.798 166.851C111.441 166.773 111.268 166.571 111.268 166.291C111.268 165.973 111.576 165.674 112.039 165.674C112.771 165.674 112.964 166.205 113.003 166.446L113.803 166.147C113.706 165.732 113.311 164.903 112.039 164.903C111.133 164.903 110.39 165.578 110.39 166.369C110.39 167.024 110.824 167.516 111.547 167.67L112.338 167.843C112.723 167.93 112.935 168.152 112.935 168.441C112.935 168.769 112.656 169.058 112.145 169.058C111.489 169.058 111.123 168.672 111.065 168.19L110.246 168.48ZM118.663 163.583H117.834V164.335C117.834 164.739 117.622 165.048 117.12 165.048H116.87V165.867H117.756V168.412C117.756 169.251 118.258 169.733 119.048 169.733C119.357 169.733 119.588 169.675 119.665 169.646V168.875C119.588 168.894 119.424 168.913 119.308 168.913C118.836 168.913 118.663 168.701 118.663 168.277V165.867H119.665V165.048H118.663V163.583ZM122.078 171.622L125.096 165.048H124.122L122.734 168.248L121.288 165.048H120.247L122.242 169.174L121.086 171.622H122.078ZM126.864 171.516V169.058C127.115 169.472 127.654 169.81 128.368 169.81C129.727 169.81 130.527 168.74 130.527 167.361C130.527 166.012 129.785 164.942 128.397 164.942C127.645 164.942 127.095 165.308 126.845 165.771V165.048H125.967V171.516H126.864ZM129.602 167.361C129.602 168.316 129.071 169 128.233 169C127.404 169 126.854 168.316 126.854 167.361C126.854 166.436 127.404 165.742 128.233 165.742C129.081 165.742 129.602 166.436 129.602 167.361ZM132.578 169.685V165.048H131.682V169.685H132.578ZM131.479 163.293C131.479 163.65 131.768 163.939 132.125 163.939C132.491 163.939 132.781 163.65 132.781 163.293C132.781 162.927 132.491 162.638 132.125 162.638C131.768 162.638 131.479 162.927 131.479 163.293ZM135.026 167.005C135.026 166.301 135.392 165.732 136.106 165.732C136.915 165.732 137.185 166.253 137.185 166.899V169.685H138.091V166.744C138.091 165.713 137.542 164.913 136.433 164.913C135.893 164.913 135.344 165.135 135.007 165.713V165.048H134.12V169.685H135.026V167.005ZM139.195 169.935C139.311 170.928 140.179 171.661 141.335 171.661C143.08 171.661 143.658 170.514 143.658 169.338V165.048H142.762V165.694C142.531 165.231 142.049 164.961 141.335 164.961C140.063 164.961 139.205 165.964 139.205 167.217C139.205 168.528 140.101 169.463 141.335 169.463C142.029 169.463 142.531 169.125 142.752 168.701V169.366C142.752 170.369 142.309 170.87 141.335 170.87C140.632 170.87 140.14 170.379 140.072 169.733L139.195 169.935ZM141.47 168.701C140.651 168.701 140.13 168.123 140.13 167.217C140.13 166.32 140.67 165.732 141.47 165.732C142.251 165.732 142.791 166.32 142.791 167.217C142.791 168.113 142.251 168.701 141.47 168.701ZM145.009 169.068C145.009 169.444 145.298 169.733 145.674 169.733C146.05 169.733 146.349 169.444 146.349 169.068C146.349 168.692 146.05 168.393 145.674 168.393C145.298 168.393 145.009 168.692 145.009 169.068ZM147.702 169.068C147.702 169.444 147.991 169.733 148.367 169.733C148.743 169.733 149.041 169.444 149.041 169.068C149.041 168.692 148.743 168.393 148.367 168.393C147.991 168.393 147.702 168.692 147.702 169.068ZM150.394 169.068C150.394 169.444 150.683 169.733 151.059 169.733C151.435 169.733 151.734 169.444 151.734 169.068C151.734 168.692 151.435 168.393 151.059 168.393C150.683 168.393 150.394 168.692 150.394 169.068Z" fill="#707070"/>
<g filter="url(#filter2_b_2610_73953)">
<rect x="88.8403" y="181.704" width="261.275" height="25.3764" rx="6.42646" fill="url(#paint4_linear_2610_73953)"/>
<rect x="89.242" y="182.106" width="260.471" height="24.5731" rx="6.02481" stroke="url(#paint5_linear_2610_73953)" stroke-width="0.803308"/>
</g>
<path d="M104.885 192.301C104.722 191.514 104.068 190.503 102.433 190.503C101.095 190.503 100.042 191.524 100.042 192.658C100.042 193.742 100.778 194.416 101.81 194.641L102.842 194.865C103.567 195.019 103.925 195.468 103.925 195.989C103.925 196.623 103.435 197.144 102.433 197.144C101.34 197.144 100.768 196.398 100.696 195.591L99.7359 195.897C99.8687 196.929 100.696 198.053 102.443 198.053C103.986 198.053 104.947 197.031 104.947 195.908C104.947 194.896 104.272 194.14 103.067 193.874L101.984 193.639C101.371 193.507 101.054 193.108 101.054 192.587C101.054 191.913 101.636 191.381 102.454 191.381C103.465 191.381 103.905 192.097 103.986 192.618L104.885 192.301ZM106.745 194.937C106.786 194.303 107.276 193.68 108.083 193.68C108.952 193.68 109.412 194.232 109.432 194.937H106.745ZM109.575 196.214C109.391 196.766 108.993 197.205 108.196 197.205C107.368 197.205 106.735 196.592 106.714 195.713H110.413C110.423 195.652 110.433 195.53 110.433 195.407C110.433 193.874 109.585 192.832 108.073 192.832C106.837 192.832 105.723 193.885 105.723 195.427C105.723 197.093 106.878 198.053 108.196 198.053C109.34 198.053 110.127 197.369 110.403 196.5L109.575 196.214ZM112.62 195.06C112.62 194.314 113.008 193.711 113.764 193.711C114.622 193.711 114.908 194.263 114.908 194.947V197.9H115.869V194.784C115.869 193.69 115.286 192.842 114.111 192.842C113.539 192.842 112.957 193.077 112.599 193.69V192.985H111.659V197.9H112.62V195.06ZM117.969 195.427C117.969 194.416 118.541 193.701 119.42 193.701C120.298 193.701 120.83 194.395 120.83 195.407C120.83 196.418 120.288 197.185 119.409 197.185C118.49 197.185 117.969 196.439 117.969 195.427ZM120.84 197.236C120.84 197.532 120.87 197.788 120.891 197.9H121.821C121.81 197.818 121.77 197.461 121.77 196.991V190.503H120.819V193.68C120.656 193.282 120.186 192.853 119.317 192.853C117.928 192.853 116.988 194.038 116.988 195.427C116.988 196.888 117.877 198.033 119.317 198.033C120.084 198.033 120.605 197.624 120.84 197.154V197.236ZM125.651 196.582C125.651 197.358 126.295 198.053 127.296 198.053C128.175 198.053 128.665 197.583 128.88 197.236C128.88 197.593 128.91 197.777 128.931 197.9H129.871C129.85 197.777 129.809 197.522 129.809 197.093V194.63C129.809 193.67 129.237 192.832 127.766 192.832C126.703 192.832 125.855 193.486 125.753 194.426L126.673 194.641C126.734 194.068 127.112 193.65 127.786 193.65C128.532 193.65 128.849 194.048 128.849 194.528C128.849 194.702 128.767 194.855 128.471 194.896L127.143 195.09C126.295 195.213 125.651 195.703 125.651 196.582ZM127.429 197.246C126.938 197.246 126.632 196.899 126.632 196.531C126.632 196.091 126.938 195.856 127.347 195.795L128.849 195.57V195.795C128.849 196.868 128.215 197.246 127.429 197.246ZM134.81 197.9V194.937C134.81 194.201 135.27 193.69 135.954 193.69C136.69 193.69 136.996 194.181 136.996 194.814V197.9H137.957V194.927C137.957 194.222 138.417 193.69 139.091 193.69C139.816 193.69 140.133 194.171 140.133 194.814V197.9H141.083V194.712C141.083 193.425 140.246 192.842 139.387 192.842C138.764 192.842 138.131 193.067 137.742 193.772C137.477 193.139 136.884 192.842 136.271 192.842C135.699 192.842 135.086 193.098 134.779 193.639V192.985H133.86V197.9H134.81ZM143.243 194.937C143.284 194.303 143.775 193.68 144.582 193.68C145.45 193.68 145.91 194.232 145.931 194.937H143.243ZM146.074 196.214C145.89 196.766 145.491 197.205 144.694 197.205C143.867 197.205 143.233 196.592 143.213 195.713H146.911C146.922 195.652 146.932 195.53 146.932 195.407C146.932 193.874 146.084 192.832 144.572 192.832C143.335 192.832 142.222 193.885 142.222 195.427C142.222 197.093 143.376 198.053 144.694 198.053C145.839 198.053 146.625 197.369 146.901 196.5L146.074 196.214ZM147.698 196.623C147.78 197.185 148.352 198.053 149.701 198.053C150.916 198.053 151.499 197.226 151.499 196.531C151.499 195.805 151.029 195.264 150.14 195.07L149.343 194.896C148.965 194.814 148.781 194.6 148.781 194.303C148.781 193.966 149.108 193.65 149.598 193.65C150.375 193.65 150.579 194.211 150.62 194.467L151.468 194.15C151.366 193.711 150.947 192.832 149.598 192.832C148.638 192.832 147.851 193.547 147.851 194.385C147.851 195.08 148.311 195.601 149.077 195.765L149.915 195.948C150.324 196.04 150.549 196.275 150.549 196.582C150.549 196.929 150.252 197.236 149.711 197.236C149.016 197.236 148.628 196.827 148.567 196.316L147.698 196.623ZM152.318 196.623C152.399 197.185 152.972 198.053 154.32 198.053C155.536 198.053 156.119 197.226 156.119 196.531C156.119 195.805 155.649 195.264 154.76 195.07L153.963 194.896C153.585 194.814 153.401 194.6 153.401 194.303C153.401 193.966 153.728 193.65 154.218 193.65C154.995 193.65 155.199 194.211 155.24 194.467L156.088 194.15C155.986 193.711 155.567 192.832 154.218 192.832C153.258 192.832 152.471 193.547 152.471 194.385C152.471 195.08 152.931 195.601 153.697 195.765L154.535 195.948C154.944 196.04 155.168 196.275 155.168 196.582C155.168 196.929 154.872 197.236 154.331 197.236C153.636 197.236 153.248 196.827 153.186 196.316L152.318 196.623ZM156.991 196.582C156.991 197.358 157.635 198.053 158.636 198.053C159.515 198.053 160.005 197.583 160.22 197.236C160.22 197.593 160.25 197.777 160.271 197.9H161.211C161.19 197.777 161.149 197.522 161.149 197.093V194.63C161.149 193.67 160.577 192.832 159.106 192.832C158.043 192.832 157.195 193.486 157.093 194.426L158.013 194.641C158.074 194.068 158.452 193.65 159.126 193.65C159.872 193.65 160.189 194.048 160.189 194.528C160.189 194.702 160.107 194.855 159.811 194.896L158.483 195.09C157.635 195.213 156.991 195.703 156.991 196.582ZM158.769 197.246C158.278 197.246 157.972 196.899 157.972 196.531C157.972 196.091 158.278 195.856 158.687 195.795L160.189 195.57V195.795C160.189 196.868 159.555 197.246 158.769 197.246ZM162.288 198.166C162.41 199.218 163.33 199.994 164.556 199.994C166.405 199.994 167.018 198.779 167.018 197.532V192.985H166.068V193.67C165.823 193.18 165.312 192.893 164.556 192.893C163.207 192.893 162.298 193.956 162.298 195.284C162.298 196.674 163.248 197.665 164.556 197.665C165.292 197.665 165.823 197.307 166.058 196.858V197.563C166.058 198.625 165.588 199.157 164.556 199.157C163.81 199.157 163.289 198.636 163.218 197.951L162.288 198.166ZM164.699 196.858C163.831 196.858 163.279 196.245 163.279 195.284C163.279 194.334 163.851 193.711 164.699 193.711C165.527 193.711 166.099 194.334 166.099 195.284C166.099 196.235 165.527 196.858 164.699 196.858ZM169.176 194.937C169.216 194.303 169.707 193.68 170.514 193.68C171.382 193.68 171.842 194.232 171.863 194.937H169.176ZM172.006 196.214C171.822 196.766 171.423 197.205 170.626 197.205C169.799 197.205 169.165 196.592 169.145 195.713H172.844C172.854 195.652 172.864 195.53 172.864 195.407C172.864 193.874 172.016 192.832 170.504 192.832C169.268 192.832 168.154 193.885 168.154 195.427C168.154 197.093 169.308 198.053 170.626 198.053C171.771 198.053 172.557 197.369 172.833 196.5L172.006 196.214Z" fill="#707070"/>
<rect x="0.394531" y="0.335449" width="332" height="260" fill="url(#paint6_radial_2610_73953)"/>
</g>
<defs>
<filter id="filter0_f_2610_73953" x="-178.285" y="-244.344" width="932.36" height="651.36" filterUnits="userSpaceOnUse" color-interpolation-filters="sRGB">
<feFlood flood-opacity="0" result="BackgroundImageFix"/>
<feBlend mode="normal" in="SourceGraphic" in2="BackgroundImageFix" result="shape"/>
<feGaussianBlur stdDeviation="119.84" result="effect1_foregroundBlur_2610_73953"/>
</filter>
<filter id="filter1_b_2610_73953" x="56.3449" y="14.0812" width="353.099" height="262.304" filterUnits="userSpaceOnUse" color-interpolation-filters="sRGB">
<feFlood flood-opacity="0" result="BackgroundImageFix"/>
<feGaussianBlur in="BackgroundImageFix" stdDeviation="6.02481"/>
<feComposite in2="SourceAlpha" operator="in" result="effect1_backgroundBlur_2610_73953"/>
<feBlend mode="normal" in="SourceGraphic" in2="effect1_backgroundBlur_2610_73953" result="shape"/>
</filter>
<filter id="filter2_b_2610_73953" x="76.7907" y="169.655" width="285.374" height="49.4757" filterUnits="userSpaceOnUse" color-interpolation-filters="sRGB">
<feFlood flood-opacity="0" result="BackgroundImageFix"/>
<feGaussianBlur in="BackgroundImageFix" stdDeviation="6.02481"/>
<feComposite in2="SourceAlpha" operator="in" result="effect1_backgroundBlur_2610_73953"/>
<feBlend mode="normal" in="SourceGraphic" in2="effect1_backgroundBlur_2610_73953" result="shape"/>
</filter>
<linearGradient id="paint0_linear_2610_73953" x1="232.895" y1="26.1309" x2="232.895" y2="264.335" gradientUnits="userSpaceOnUse">
<stop stopColor="#929292" stop-opacity="0.26"/>
<stop offset="1" stop-color="#1C1C1C" stop-opacity="0"/>
</linearGradient>
<linearGradient id="paint1_linear_2610_73953" x1="203.468" y1="21.167" x2="308.875" y2="225.054" gradientUnits="userSpaceOnUse">
<stop stopColor="#868686" stop-opacity="0.37"/>
<stop offset="1" stop-color="#3E3E3E" stop-opacity="0"/>
</linearGradient>
<linearGradient id="paint2_linear_2610_73953" x1="100.575" y1="70.3091" x2="119.687" y2="56.3418" gradientUnits="userSpaceOnUse">
<stop stopColor="white"/>
<stop offset="1" stop-color="#82978D"/>
</linearGradient>
<linearGradient id="paint3_linear_2610_73953" x1="100.575" y1="121.507" x2="119.687" y2="107.54" gradientUnits="userSpaceOnUse">
<stop stopColor="white"/>
<stop offset="1" stop-color="#82978D"/>
</linearGradient>
<linearGradient id="paint4_linear_2610_73953" x1="106.713" y1="101.2" x2="304.327" y2="308.051" gradientUnits="userSpaceOnUse">
<stop stopColor="#929292" stop-opacity="0.26"/>
<stop offset="1" stop-color="#1C1C1C" stop-opacity="0"/>
</linearGradient>
<linearGradient id="paint5_linear_2610_73953" x1="196.108" y1="181.176" x2="198.008" y2="208.57" gradientUnits="userSpaceOnUse">
<stop stopColor="#3E3E3E"/>
<stop offset="1" stop-color="#3E3E3E" stop-opacity="0"/>
</linearGradient>
<radialGradient id="paint6_radial_2610_73953" cx="0" cy="0" r="1" gradientUnits="userSpaceOnUse" gradientTransform="translate(163.399 82.3355) rotate(90) scale(162.5 180.365)">
<stop offset="0.53125" stop-color="#242424" stop-opacity="0"/>
<stop offset="1" stop-color="#232323"/>
</radialGradient>
<clipPath id="clip0_2610_73953">
<rect width="332" height="260" fill="white" transform="translate(0.394531 0.335449)"/>
</clipPath>
</defs>
</svg>
