<svg width="333" height="261" viewBox="0 0 333 261" fill="none" xmlns="http://www.w3.org/2000/svg">
<g clip-path="url(#clip0_2627_69093)">
<rect width="332" height="260" transform="translate(0.546387 0.164062)" fill="white"/>
<rect x="83.6572" y="242.684" width="35.3035" height="33.3142" transform="rotate(-180 83.6572 242.684)" stroke="#396764" stroke-opacity="0.1" stroke-width="0.386912"/>
<rect x="48.354" y="275.996" width="35.3035" height="33.3142" transform="rotate(-180 48.354 275.996)" stroke="#396764" stroke-opacity="0.1" stroke-width="0.386912"/>
<rect x="48.354" y="242.684" width="35.3035" height="33.3142" transform="rotate(-180 48.354 242.684)" stroke="#396764" stroke-opacity="0.1" stroke-width="0.386912"/>
<rect x="13.0508" y="275.996" width="35.3035" height="33.3142" transform="rotate(-180 13.0508 275.996)" stroke="#396764" stroke-opacity="0.1" stroke-width="0.386912"/>
<rect x="13.0508" y="242.684" width="35.3035" height="33.3142" transform="rotate(-180 13.0508 242.684)" stroke="#396764" stroke-opacity="0.1" stroke-width="0.386912"/>
<rect x="154.263" y="242.684" width="35.3035" height="33.3142" transform="rotate(-180 154.263 242.684)" stroke="#396764" stroke-opacity="0.1" stroke-width="0.386912"/>
<rect x="83.6572" y="209.369" width="35.3035" height="33.3142" transform="rotate(-180 83.6572 209.369)" stroke="#396764" stroke-opacity="0.1" stroke-width="0.386912"/>
<rect x="83.6572" y="176.053" width="35.3035" height="33.3142" transform="rotate(-180 83.6572 176.053)" stroke="#396764" stroke-opacity="0.1" stroke-width="0.386912"/>
<rect x="48.354" y="209.369" width="35.3035" height="33.3142" transform="rotate(-180 48.354 209.369)" stroke="#396764" stroke-opacity="0.1" stroke-width="0.386912"/>
<rect x="48.354" y="176.053" width="35.3035" height="33.3142" transform="rotate(-180 48.354 176.053)" stroke="#396764" stroke-opacity="0.1" stroke-width="0.386912"/>
<rect x="13.0508" y="209.369" width="35.3035" height="33.3142" transform="rotate(-180 13.0508 209.369)" stroke="#396764" stroke-opacity="0.1" stroke-width="0.386912"/>
<rect x="13.0508" y="176.053" width="35.3035" height="33.3142" transform="rotate(-180 13.0508 176.053)" stroke="#396764" stroke-opacity="0.1" stroke-width="0.386912"/>
<rect x="154.263" y="176.053" width="35.3035" height="33.3142" transform="rotate(-180 154.263 176.053)" stroke="#396764" stroke-opacity="0.1" stroke-width="0.386912"/>
<rect x="118.96" y="209.369" width="35.3035" height="33.3142" transform="rotate(-180 118.96 209.369)" stroke="#396764" stroke-opacity="0.1" stroke-width="0.386912"/>
<rect x="118.96" y="176.053" width="35.3035" height="33.3142" transform="rotate(-180 118.96 176.053)" stroke="#396764" stroke-opacity="0.1" stroke-width="0.386912"/>
<rect x="83.6572" y="142.74" width="35.3035" height="33.3142" transform="rotate(-180 83.6572 142.74)" stroke="#396764" stroke-opacity="0.1" stroke-width="0.386912"/>
<rect x="83.6572" y="109.427" width="35.3035" height="33.3142" transform="rotate(-180 83.6572 109.427)" stroke="#396764" stroke-opacity="0.1" stroke-width="0.386912"/>
<rect x="85.6743" y="109.427" width="17.5839" height="33.3142" transform="rotate(-180 85.6743 109.427)" stroke="#396764" stroke-opacity="0.1" stroke-width="0.386912"/>
<rect x="260.176" y="109.427" width="35.3035" height="33.3142" transform="rotate(-180 260.176 109.427)" stroke="#396764" stroke-opacity="0.1" stroke-width="0.386912"/>
<rect x="48.354" y="142.74" width="35.3035" height="33.3142" transform="rotate(-180 48.354 142.74)" stroke="#346458" stroke-opacity="0.3" stroke-width="0.898712"/>
<rect x="48.354" y="109.427" width="35.3035" height="33.3142" transform="rotate(-180 48.354 109.427)" stroke="#396764" stroke-opacity="0.1" stroke-width="0.386912"/>
<rect x="224.873" y="109.427" width="35.3035" height="33.3142" transform="rotate(-180 224.873 109.427)" stroke="#396764" stroke-opacity="0.1" stroke-width="0.386912"/>
<rect x="13.0508" y="142.74" width="35.3035" height="33.3142" transform="rotate(-180 13.0508 142.74)" stroke="#396764" stroke-opacity="0.1" stroke-width="0.386912"/>
<rect x="189.566" y="109.427" width="35.3035" height="33.3142" transform="rotate(-180 189.566 109.427)" stroke="#396764" stroke-opacity="0.1" stroke-width="0.386912"/>
<rect x="154.263" y="142.74" width="35.3035" height="33.3142" transform="rotate(-180 154.263 142.74)" stroke="#396764" stroke-opacity="0.1" stroke-width="0.386912"/>
<rect x="154.263" y="109.427" width="35.3035" height="33.3142" transform="rotate(-180 154.263 109.427)" stroke="#396764" stroke-opacity="0.1" stroke-width="0.386912"/>
<rect x="118.96" y="142.74" width="35.3035" height="33.3142" transform="rotate(-180 118.96 142.74)" stroke="#396764" stroke-opacity="0.1" stroke-width="0.386912"/>
<rect x="366.085" y="109.427" width="35.3035" height="33.3142" transform="rotate(-180 366.085 109.427)" stroke="#396764" stroke-opacity="0.1" stroke-width="0.386912"/>
<rect x="330.779" y="109.427" width="35.3035" height="33.3142" transform="rotate(-180 330.779 109.427)" stroke="#396764" stroke-opacity="0.1" stroke-width="0.386912"/>
<rect x="260.176" y="76.1118" width="35.3035" height="33.3142" transform="rotate(-180 260.176 76.1118)" stroke="#396764" stroke-opacity="0.1" stroke-width="0.386912"/>
<rect x="260.176" y="42.7983" width="35.3035" height="33.3142" transform="rotate(-180 260.176 42.7983)" stroke="#396764" stroke-opacity="0.1" stroke-width="0.386912"/>
<rect x="48.354" y="76.1123" width="35.3035" height="33.3142" transform="rotate(-180 48.354 76.1123)" stroke="#396764" stroke-opacity="0.1" stroke-width="0.386912"/>
<rect x="224.873" y="76.1118" width="35.3035" height="33.3142" transform="rotate(-180 224.873 76.1118)" stroke="#396764" stroke-opacity="0.1" stroke-width="0.386912"/>
<rect x="48.354" y="42.7983" width="35.3035" height="33.3142" transform="rotate(-180 48.354 42.7983)" stroke="#396764" stroke-opacity="0.1" stroke-width="0.386912"/>
<rect x="224.873" y="42.7983" width="35.3035" height="33.3142" transform="rotate(-180 224.873 42.7983)" stroke="#396764" stroke-opacity="0.1" stroke-width="0.386912"/>
<rect x="13.0508" y="76.1123" width="35.3035" height="33.3142" transform="rotate(-180 13.0508 76.1123)" stroke="#396764" stroke-opacity="0.1" stroke-width="0.386912"/>
<rect x="189.566" y="76.1118" width="35.3035" height="33.3142" transform="rotate(-180 189.566 76.1118)" stroke="#396764" stroke-opacity="0.1" stroke-width="0.386912"/>
<rect x="13.0508" y="42.7983" width="35.3035" height="33.3142" transform="rotate(-180 13.0508 42.7983)" stroke="#396764" stroke-opacity="0.1" stroke-width="0.386912"/>
<rect x="189.566" y="42.7983" width="35.3035" height="33.3142" transform="rotate(-180 189.566 42.7983)" stroke="#396764" stroke-opacity="0.1" stroke-width="0.386912"/>
<rect x="154.263" y="76.1118" width="35.3035" height="33.3142" transform="rotate(-180 154.263 76.1118)" stroke="#396764" stroke-opacity="0.1" stroke-width="0.386912"/>
<rect x="154.263" y="42.7983" width="35.3035" height="33.3142" transform="rotate(-180 154.263 42.7983)" stroke="#396764" stroke-opacity="0.1" stroke-width="0.386912"/>
<rect x="118.96" y="76.1118" width="35.3035" height="33.3142" transform="rotate(-180 118.96 76.1118)" stroke="#396764" stroke-opacity="0.1" stroke-width="0.386912"/>
<rect x="118.96" y="42.7983" width="35.3035" height="33.3142" transform="rotate(-180 118.96 42.7983)" stroke="#396764" stroke-opacity="0.1" stroke-width="0.386912"/>
<rect x="366.085" y="76.1123" width="35.3035" height="33.3142" transform="rotate(-180 366.085 76.1123)" stroke="#396764" stroke-opacity="0.1" stroke-width="0.386912"/>
<rect x="366.085" y="42.7983" width="35.3035" height="33.3142" transform="rotate(-180 366.085 42.7983)" stroke="#396764" stroke-opacity="0.1" stroke-width="0.386912"/>
<rect x="330.779" y="76.1123" width="35.3035" height="33.3142" transform="rotate(-180 330.779 76.1123)" stroke="#396764" stroke-opacity="0.1" stroke-width="0.386912"/>
<rect x="330.779" y="42.7983" width="35.3035" height="33.3142" transform="rotate(-180 330.779 42.7983)" stroke="#396764" stroke-opacity="0.1" stroke-width="0.386912"/>
<rect x="295.479" y="76.1123" width="35.3035" height="33.3142" transform="rotate(-180 295.479 76.1123)" stroke="#396764" stroke-opacity="0.1" stroke-width="0.386912"/>
<rect x="295.479" y="42.7983" width="35.3035" height="33.3142" transform="rotate(-180 295.479 42.7983)" stroke="#396764" stroke-opacity="0.1" stroke-width="0.386912"/>
<rect x="260.176" y="9.48291" width="35.3035" height="33.3142" transform="rotate(-180 260.176 9.48291)" stroke="#396764" stroke-opacity="0.1" stroke-width="0.386912"/>
<rect x="224.873" y="9.48291" width="35.3035" height="33.3142" transform="rotate(-180 224.873 9.48291)" stroke="#396764" stroke-opacity="0.1" stroke-width="0.386912"/>
<rect x="13.0508" y="9.4834" width="35.3035" height="33.3142" transform="rotate(-180 13.0508 9.4834)" stroke="#396764" stroke-opacity="0.1" stroke-width="0.386912"/>
<rect x="366.085" y="9.4834" width="35.3035" height="33.3142" transform="rotate(-180 366.085 9.4834)" stroke="#396764" stroke-opacity="0.1" stroke-width="0.386912"/>
<rect x="330.779" y="9.4834" width="35.3035" height="33.3142" transform="rotate(-180 330.779 9.4834)" stroke="#396764" stroke-opacity="0.1" stroke-width="0.386912"/>
<rect x="295.479" y="9.4834" width="35.3035" height="33.3142" transform="rotate(-180 295.479 9.4834)" stroke="#396764" stroke-opacity="0.1" stroke-width="0.386912"/>
<rect x="13.0508" y="109.427" width="35.3035" height="33.3142" transform="rotate(-180 13.0508 109.427)" stroke="#346458" stroke-opacity="0.3" stroke-width="0.898712"/>
<g filter="url(#filter0_f_2627_69093)">
<path d="M514.547 167.164L61.5469 167.164L216.719 -4.83567L350.021 -4.83566L514.547 167.164Z" fill="#AAF5F5"/>
</g>
<g filter="url(#filter1_b_2627_69093)">
<rect x="68.5464" y="25.9595" width="329" height="238.205" rx="8" fill="url(#paint0_linear_2627_69093)"/>
<rect x="69.0464" y="26.4595" width="328" height="237.205" rx="7.5" stroke="url(#paint1_linear_2627_69093)"/>
</g>
<circle cx="105.169" cy="60.2959" r="16.1772" fill="#4CC38A"/>
<path d="M108.819 56.9589V55.4195H100.904V56.9589H104.037V65.0781H105.672V56.9589H108.819Z" fill="url(#paint2_linear_2627_69093)"/>
<path d="M135.471 48.9328V48.0556H129.957V48.9328H132.242V54.8901H133.187V48.9328H135.471ZM137.045 54.8901V50.2534H136.148V54.8901H137.045ZM135.946 48.499C135.946 48.8557 136.235 49.1449 136.592 49.1449C136.958 49.1449 137.247 48.8557 137.247 48.499C137.247 48.1327 136.958 47.8435 136.592 47.8435C136.235 47.8435 135.946 48.1327 135.946 48.499ZM139.483 54.8901V52.0946C139.483 51.4006 139.917 50.9186 140.563 50.9186C141.257 50.9186 141.546 51.3813 141.546 51.979V54.8901H142.452V52.085C142.452 51.4198 142.886 50.9186 143.522 50.9186C144.207 50.9186 144.505 51.3716 144.505 51.979V54.8901H145.402V51.8826C145.402 50.668 144.611 50.1185 143.802 50.1185C143.214 50.1185 142.616 50.3306 142.25 50.9957C141.999 50.398 141.44 50.1185 140.862 50.1185C140.322 50.1185 139.743 50.3595 139.454 50.8704V50.2534H138.587V54.8901H139.483Z" fill="#232323"/>
<path d="M155.032 50.8399C155.022 50.7435 155.012 50.6471 155.012 50.5603C155.012 49.847 155.398 49.2782 156.217 49.2782C157.008 49.2782 157.393 49.8084 157.393 50.3772C157.393 50.8591 157.123 51.3026 156.535 51.6785L155.494 52.3533C154.434 53.0377 154.029 53.8185 154.01 54.8403H158.386V53.9631H155.176C155.263 53.5775 155.581 53.3173 155.938 53.0859L157.172 52.2955C157.885 51.8424 158.348 51.1869 158.348 50.3675C158.348 49.3264 157.576 48.4492 156.237 48.4492C154.868 48.4492 154.077 49.4035 154.077 50.4736C154.077 50.5507 154.077 50.6374 154.087 50.7242L155.032 50.8399ZM162.852 54.8403V52.0448C162.852 51.3508 163.286 50.8688 163.932 50.8688C164.626 50.8688 164.915 51.3315 164.915 51.9291V54.8403H165.821V52.0352C165.821 51.37 166.255 50.8688 166.891 50.8688C167.576 50.8688 167.874 51.3218 167.874 51.9291V54.8403H168.771V51.8327C168.771 50.6181 167.981 50.0687 167.171 50.0687C166.583 50.0687 165.985 50.2808 165.619 50.9459C165.368 50.3482 164.809 50.0687 164.231 50.0687C163.691 50.0687 163.112 50.3097 162.823 50.8206V50.2036H161.956V54.8403H162.852ZM171.117 54.8403V50.2036H170.221V54.8403H171.117ZM170.019 48.4492C170.019 48.8059 170.308 49.0951 170.664 49.0951C171.031 49.0951 171.32 48.8059 171.32 48.4492C171.32 48.0829 171.031 47.7937 170.664 47.7937C170.308 47.7937 170.019 48.0829 170.019 48.4492ZM173.565 52.1605C173.565 51.4568 173.932 50.8881 174.645 50.8881C175.455 50.8881 175.725 51.4086 175.725 52.0545V54.8403H176.631V51.9002C176.631 50.8688 176.081 50.0687 174.973 50.0687C174.433 50.0687 173.883 50.2904 173.546 50.8688V50.2036H172.659V54.8403H173.565V52.1605ZM181.034 54.2812C181.034 54.474 181.053 54.7343 181.072 54.8403H181.94C181.921 54.6765 181.892 54.3487 181.892 53.9824V50.2036H180.986V52.9992C180.986 53.7028 180.619 54.1848 179.887 54.1848C179.125 54.1848 178.836 53.6257 178.836 52.9895V50.2036H177.93V53.1245C177.93 54.1752 178.585 54.9849 179.665 54.9849C180.205 54.9849 180.783 54.7632 181.034 54.2812ZM184.653 48.7384H183.824V49.4903C183.824 49.8952 183.611 50.2036 183.11 50.2036H182.86V51.023H183.746V53.5679C183.746 54.4065 184.248 54.8885 185.038 54.8885C185.347 54.8885 185.578 54.8307 185.655 54.8018V54.0306C185.578 54.0499 185.414 54.0692 185.298 54.0692C184.826 54.0692 184.653 53.8571 184.653 53.4329V51.023H185.655V50.2036H184.653V48.7384ZM187.405 52.0448C187.444 51.4472 187.907 50.8591 188.668 50.8591C189.488 50.8591 189.921 51.3797 189.941 52.0448H187.405ZM190.076 53.2498C189.902 53.7703 189.526 54.1848 188.774 54.1848C187.994 54.1848 187.396 53.6065 187.377 52.7774H190.866C190.876 52.7196 190.885 52.6039 190.885 52.4882C190.885 51.0423 190.085 50.059 188.659 50.059C187.492 50.059 186.442 51.0519 186.442 52.5075C186.442 54.0788 187.531 54.9849 188.774 54.9849C189.854 54.9849 190.596 54.3391 190.856 53.5197L190.076 53.2498ZM191.608 53.6354C191.685 54.1656 192.225 54.9849 193.498 54.9849C194.645 54.9849 195.194 54.2041 195.194 53.5486C195.194 52.8642 194.751 52.3533 193.912 52.1701L193.16 52.0063C192.804 51.9291 192.63 51.7267 192.63 51.4472C192.63 51.1291 192.939 50.8302 193.401 50.8302C194.134 50.8302 194.327 51.3604 194.365 51.6014L195.165 51.3026C195.069 50.8881 194.674 50.059 193.401 50.059C192.495 50.059 191.753 50.7338 191.753 51.5243C191.753 52.1798 192.187 52.6714 192.91 52.8256L193.7 52.9992C194.086 53.0859 194.298 53.3076 194.298 53.5968C194.298 53.9246 194.018 54.2138 193.507 54.2138C192.852 54.2138 192.486 53.8282 192.428 53.3462L191.608 53.6354ZM198.521 53.5968C198.521 54.3294 199.129 54.9849 200.073 54.9849C200.902 54.9849 201.365 54.5415 201.568 54.2138C201.568 54.5511 201.596 54.7247 201.616 54.8403H202.503C202.483 54.7247 202.445 54.4837 202.445 54.0788V51.7556C202.445 50.8495 201.905 50.059 200.517 50.059C199.514 50.059 198.714 50.676 198.618 51.5628L199.485 51.7653C199.543 51.2254 199.9 50.8302 200.536 50.8302C201.24 50.8302 201.539 51.2062 201.539 51.6592C201.539 51.8231 201.462 51.9677 201.182 52.0063L199.929 52.1894C199.129 52.3051 198.521 52.7678 198.521 53.5968ZM200.199 54.2234C199.736 54.2234 199.447 53.8956 199.447 53.5486C199.447 53.1341 199.736 52.9124 200.122 52.8546L201.539 52.6425V52.8546C201.539 53.8667 200.941 54.2234 200.199 54.2234ZM203.519 55.091C203.635 56.0839 204.502 56.8165 205.659 56.8165C207.404 56.8165 207.982 55.6693 207.982 54.4933V50.2036H207.086V50.8495C206.854 50.3868 206.372 50.1169 205.659 50.1169C204.387 50.1169 203.529 51.1194 203.529 52.3726C203.529 53.6836 204.425 54.6186 205.659 54.6186C206.353 54.6186 206.854 54.2812 207.076 53.8571V54.5222C207.076 55.5248 206.633 56.026 205.659 56.026C204.955 56.026 204.464 55.5344 204.396 54.8885L203.519 55.091ZM205.794 53.8571C204.975 53.8571 204.454 53.2787 204.454 52.3726C204.454 51.4761 204.994 50.8881 205.794 50.8881C206.575 50.8881 207.115 51.4761 207.115 52.3726C207.115 53.2691 206.575 53.8571 205.794 53.8571ZM211.415 54.1752C210.644 54.1752 209.969 53.5968 209.969 52.5172C209.969 51.4472 210.644 50.8688 211.415 50.8688C212.186 50.8688 212.861 51.4472 212.861 52.5172C212.861 53.5968 212.186 54.1752 211.415 54.1752ZM211.415 50.059C210.027 50.059 209.044 51.1098 209.044 52.5172C209.044 53.9342 210.027 54.9849 211.415 54.9849C212.803 54.9849 213.786 53.9342 213.786 52.5172C213.786 51.1098 212.803 50.059 211.415 50.059Z" fill="#707070"/>
<path d="M136.107 70.2959V63.4614H135.163V66.3822H131.673V63.4614H130.728V70.2959H131.673V67.2594H135.163V70.2959H136.107ZM138.337 67.5004C138.375 66.9027 138.838 66.3147 139.6 66.3147C140.419 66.3147 140.853 66.8352 140.872 67.5004H138.337ZM141.007 68.7053C140.834 69.2259 140.458 69.6404 139.706 69.6404C138.925 69.6404 138.327 69.062 138.308 68.233H141.797C141.807 68.1752 141.817 68.0595 141.817 67.9438C141.817 66.4979 141.017 65.5146 139.59 65.5146C138.424 65.5146 137.373 66.5075 137.373 67.9631C137.373 69.5344 138.462 70.4405 139.706 70.4405C140.785 70.4405 141.528 69.7946 141.788 68.9753L141.007 68.7053ZM144.036 72.2335L147.053 65.6592H146.08L144.692 68.8596L143.246 65.6592H142.205L144.2 69.785L143.043 72.2335H144.036ZM146.765 69.679C146.765 70.0935 147.054 70.3345 147.411 70.3345C147.517 70.3345 147.594 70.3055 147.623 70.2863C147.613 70.749 147.295 71.2213 146.823 71.3273V71.8286C147.42 71.7515 148.249 71.2213 148.249 69.9489C148.249 69.3416 147.883 69.0331 147.469 69.0331C147.064 69.0331 146.765 69.3319 146.765 69.679ZM153.011 67.5679C153.03 66.8834 153.397 66.3436 154.091 66.3436C154.9 66.3436 155.17 66.8642 155.17 67.51V70.2959H156.076V67.3558C156.076 66.3243 155.527 65.5243 154.418 65.5243C153.888 65.5243 153.348 65.7074 153.011 66.199V63.3168H152.105V70.2959H153.011V67.5679ZM159.503 69.6308C158.732 69.6308 158.058 69.0524 158.058 67.9727C158.058 66.9027 158.732 66.3243 159.503 66.3243C160.275 66.3243 160.949 66.9027 160.949 67.9727C160.949 69.0524 160.275 69.6308 159.503 69.6308ZM159.503 65.5146C158.115 65.5146 157.132 66.5653 157.132 67.9727C157.132 69.3898 158.115 70.4405 159.503 70.4405C160.892 70.4405 161.875 69.3898 161.875 67.9727C161.875 66.5653 160.892 65.5146 159.503 65.5146ZM165.552 65.6592L164.347 69.1488L163.306 65.6592H162.313L163.837 70.2959H164.791L165.996 66.7678L167.23 70.2959H168.165L169.669 65.6592H168.714L167.692 69.1488L166.487 65.6592H165.552ZM174.941 66.3533C175.732 66.3533 176.069 66.8834 176.185 67.3365L177.004 66.9895C176.811 66.2858 176.175 65.5146 174.941 65.5146C173.621 65.5146 172.608 66.5268 172.608 67.9727C172.608 69.3801 173.601 70.4405 174.951 70.4405C176.156 70.4405 176.821 69.6597 177.043 68.9945L176.243 68.6475C176.136 69.0138 175.818 69.6018 174.951 69.6018C174.199 69.6018 173.534 69.0331 173.534 67.9727C173.534 66.8931 174.209 66.3533 174.941 66.3533ZM177.769 69.0524C177.769 69.785 178.377 70.4405 179.321 70.4405C180.15 70.4405 180.613 69.9971 180.815 69.6693C180.815 70.0067 180.844 70.1802 180.864 70.2959H181.751C181.731 70.1802 181.693 69.9392 181.693 69.5344V67.2112C181.693 66.3051 181.153 65.5146 179.765 65.5146C178.762 65.5146 177.962 66.1316 177.866 67.0184L178.733 67.2208C178.791 66.681 179.148 66.2858 179.784 66.2858C180.488 66.2858 180.787 66.6617 180.787 67.1148C180.787 67.2787 180.709 67.4233 180.43 67.4618L179.177 67.645C178.377 67.7607 177.769 68.2234 177.769 69.0524ZM179.447 69.679C178.984 69.679 178.695 69.3512 178.695 69.0042C178.695 68.5897 178.984 68.368 179.37 68.3101L180.787 68.098V68.3101C180.787 69.3223 180.189 69.679 179.447 69.679ZM184.01 67.6161C184.01 66.9124 184.377 66.3436 185.09 66.3436C185.9 66.3436 186.17 66.8642 186.17 67.51V70.2959H187.076V67.3558C187.076 66.3243 186.526 65.5243 185.418 65.5243C184.878 65.5243 184.329 65.746 183.991 66.3243V65.6592H183.104V70.2959H184.01V67.6161ZM191.988 70.2959V63.4614H191.024V70.2959H191.988ZM195.75 69.0524C195.75 69.785 196.357 70.4405 197.302 70.4405C198.131 70.4405 198.593 69.9971 198.796 69.6693C198.796 70.0067 198.825 70.1802 198.844 70.2959H199.731C199.712 70.1802 199.673 69.9392 199.673 69.5344V67.2112C199.673 66.3051 199.133 65.5146 197.745 65.5146C196.743 65.5146 195.942 66.1316 195.846 67.0184L196.714 67.2208C196.771 66.681 197.128 66.2858 197.764 66.2858C198.468 66.2858 198.767 66.6617 198.767 67.1148C198.767 67.2787 198.69 67.4233 198.41 67.4618L197.157 67.645C196.357 67.7607 195.75 68.2234 195.75 69.0524ZM197.427 69.679C196.964 69.679 196.675 69.3512 196.675 69.0042C196.675 68.5897 196.964 68.368 197.35 68.3101L198.767 68.098V68.3101C198.767 69.3223 198.169 69.679 197.427 69.679ZM201.624 67.9631C201.624 67.0088 202.164 66.334 202.993 66.334C203.822 66.334 204.324 66.9895 204.324 67.9438C204.324 68.8981 203.813 69.6211 202.984 69.6211C202.116 69.6211 201.624 68.9174 201.624 67.9631ZM204.333 69.6693C204.333 69.9489 204.362 70.1899 204.381 70.2959H205.259C205.249 70.2188 205.21 69.8814 205.21 69.438V63.3168H204.314V66.3147C204.16 65.9388 203.716 65.5339 202.897 65.5339C201.586 65.5339 200.699 66.6521 200.699 67.9631C200.699 69.3416 201.538 70.4212 202.897 70.4212C203.62 70.4212 204.111 70.0356 204.333 69.5922V69.6693ZM207.292 67.9631C207.292 67.0088 207.831 66.334 208.66 66.334C209.489 66.334 209.991 66.9895 209.991 67.9438C209.991 68.8981 209.48 69.6211 208.651 69.6211C207.783 69.6211 207.292 68.9174 207.292 67.9631ZM210 69.6693C210 69.9489 210.029 70.1899 210.048 70.2959H210.926C210.916 70.2188 210.877 69.8814 210.877 69.438V63.3168H209.981V66.3147C209.827 65.9388 209.383 65.5339 208.564 65.5339C207.253 65.5339 206.366 66.6521 206.366 67.9631C206.366 69.3416 207.205 70.4212 208.564 70.4212C209.287 70.4212 209.779 70.0356 210 69.5922V69.6693ZM214.539 69.0524C214.539 69.785 215.147 70.4405 216.091 70.4405C216.92 70.4405 217.383 69.9971 217.586 69.6693C217.586 70.0067 217.615 70.1802 217.634 70.2959H218.521C218.501 70.1802 218.463 69.9392 218.463 69.5344V67.2112C218.463 66.3051 217.923 65.5146 216.535 65.5146C215.532 65.5146 214.732 66.1316 214.636 67.0184L215.503 67.2208C215.561 66.681 215.918 66.2858 216.554 66.2858C217.258 66.2858 217.557 66.6617 217.557 67.1148C217.557 67.2787 217.48 67.4233 217.2 67.4618L215.947 67.645C215.147 67.7607 214.539 68.2234 214.539 69.0524ZM216.217 69.679C215.754 69.679 215.465 69.3512 215.465 69.0042C215.465 68.5897 215.754 68.368 216.14 68.3101L217.557 68.098V68.3101C217.557 69.3223 216.959 69.679 216.217 69.679ZM223.191 67.6161C223.191 66.9124 223.557 66.3436 224.27 66.3436C225.08 66.3436 225.35 66.8642 225.35 67.51V70.2959H226.256V67.3558C226.256 66.3243 225.706 65.5243 224.598 65.5243C224.058 65.5243 223.509 65.746 223.171 66.3243V65.6592H222.284V70.2959H223.191V67.6161ZM228.285 67.5004C228.324 66.9027 228.787 66.3147 229.548 66.3147C230.367 66.3147 230.801 66.8352 230.821 67.5004H228.285ZM230.956 68.7053C230.782 69.2259 230.406 69.6404 229.654 69.6404C228.873 69.6404 228.276 69.062 228.256 68.233H231.746C231.756 68.1752 231.765 68.0595 231.765 67.9438C231.765 66.4979 230.965 65.5146 229.538 65.5146C228.372 65.5146 227.321 66.5075 227.321 67.9631C227.321 69.5344 228.411 70.4405 229.654 70.4405C230.734 70.4405 231.476 69.7946 231.736 68.9753L230.956 68.7053ZM235.487 65.6592L234.282 69.1488L233.241 65.6592H232.248L233.771 70.2959H234.726L235.931 66.7678L237.165 70.2959H238.1L239.603 65.6592H238.649L237.627 69.1488L236.422 65.6592H235.487ZM245.503 65.611C245.454 65.6014 245.329 65.5821 245.204 65.5821C244.731 65.5821 244.153 65.7556 243.816 66.4689V65.6592H242.929V70.2959H243.835V67.9727C243.835 66.9509 244.346 66.5461 245.107 66.5461C245.233 66.5461 245.368 66.5557 245.503 66.575V65.611ZM248.407 69.6308C247.636 69.6308 246.961 69.0524 246.961 67.9727C246.961 66.9027 247.636 66.3243 248.407 66.3243C249.178 66.3243 249.853 66.9027 249.853 67.9727C249.853 69.0524 249.178 69.6308 248.407 69.6308ZM248.407 65.5146C247.019 65.5146 246.036 66.5653 246.036 67.9727C246.036 69.3898 247.019 70.4405 248.407 70.4405C249.795 70.4405 250.778 69.3898 250.778 67.9727C250.778 66.5653 249.795 65.5146 248.407 65.5146ZM252.844 70.2959V63.3168H251.938V70.2959H252.844ZM254.973 67.5004C255.012 66.9027 255.475 66.3147 256.236 66.3147C257.055 66.3147 257.489 66.8352 257.509 67.5004H254.973ZM257.644 68.7053C257.47 69.2259 257.094 69.6404 256.342 69.6404C255.561 69.6404 254.964 69.062 254.944 68.233H258.434C258.444 68.1752 258.453 68.0595 258.453 67.9438C258.453 66.4979 257.653 65.5146 256.226 65.5146C255.06 65.5146 254.009 66.5075 254.009 67.9631C254.009 69.5344 255.099 70.4405 256.342 70.4405C257.422 70.4405 258.164 69.7946 258.424 68.9753L257.644 68.7053ZM264.006 69.6308C263.234 69.6308 262.56 69.0524 262.56 67.9727C262.56 66.9027 263.234 66.3243 264.006 66.3243C264.777 66.3243 265.452 66.9027 265.452 67.9727C265.452 69.0524 264.777 69.6308 264.006 69.6308ZM264.006 65.5146C262.618 65.5146 261.634 66.5653 261.634 67.9727C261.634 69.3898 262.618 70.4405 264.006 70.4405C265.394 70.4405 266.377 69.3898 266.377 67.9727C266.377 66.5653 265.394 65.5146 264.006 65.5146ZM270.11 65.611C270.062 65.6014 269.937 65.5821 269.811 65.5821C269.339 65.5821 268.761 65.7556 268.423 66.4689V65.6592H267.536V70.2959H268.442V67.9727C268.442 66.9509 268.953 66.5461 269.715 66.5461C269.84 66.5461 269.975 66.5557 270.11 66.575V65.611ZM131.22 80.5004C131.259 79.9027 131.721 79.3147 132.483 79.3147C133.302 79.3147 133.736 79.8352 133.755 80.5004H131.22ZM133.89 81.7053C133.717 82.2259 133.341 82.6404 132.589 82.6404C131.808 82.6404 131.21 82.062 131.191 81.233H134.681C134.69 81.1752 134.7 81.0595 134.7 80.9438C134.7 79.4979 133.9 78.5146 132.473 78.5146C131.307 78.5146 130.256 79.5075 130.256 80.9631C130.256 82.5344 131.345 83.4405 132.589 83.4405C133.669 83.4405 134.411 82.7946 134.671 81.9753L133.89 81.7053ZM136.396 80.9631C136.396 80.0088 136.936 79.334 137.765 79.334C138.594 79.334 139.096 79.9895 139.096 80.9438C139.096 81.8981 138.585 82.6211 137.756 82.6211C136.888 82.6211 136.396 81.9174 136.396 80.9631ZM139.105 82.6693C139.105 82.9489 139.134 83.1899 139.153 83.2959H140.031C140.021 83.2188 139.982 82.8814 139.982 82.438V76.3168H139.086V79.3147C138.932 78.9388 138.488 78.5339 137.669 78.5339C136.358 78.5339 135.471 79.6521 135.471 80.9631C135.471 82.3416 136.31 83.4212 137.669 83.4212C138.392 83.4212 138.884 83.0356 139.105 82.5922V82.6693ZM142.42 83.2959V78.6592H141.524V83.2959H142.42ZM141.321 76.9048C141.321 77.2615 141.61 77.5506 141.967 77.5506C142.333 77.5506 142.623 77.2615 142.623 76.9048C142.623 76.5385 142.333 76.2493 141.967 76.2493C141.61 76.2493 141.321 76.5385 141.321 76.9048ZM145.177 77.194H144.347V77.9459C144.347 78.3507 144.135 78.6592 143.634 78.6592H143.384V79.4786H144.27V82.0235C144.27 82.8621 144.772 83.3441 145.562 83.3441C145.871 83.3441 146.102 83.2863 146.179 83.2573V82.4862C146.102 82.5054 145.938 82.5247 145.822 82.5247C145.35 82.5247 145.177 82.3126 145.177 81.8885V79.4786H146.179V78.6592H145.177V77.194ZM149.509 82.0524C149.509 82.785 150.117 83.4405 151.061 83.4405C151.89 83.4405 152.353 82.9971 152.555 82.6693C152.555 83.0067 152.584 83.1802 152.604 83.2959H153.49C153.471 83.1802 153.433 82.9392 153.433 82.5344V80.2112C153.433 79.3051 152.893 78.5146 151.505 78.5146C150.502 78.5146 149.702 79.1316 149.606 80.0184L150.473 80.2208C150.531 79.681 150.888 79.2858 151.524 79.2858C152.228 79.2858 152.526 79.6617 152.526 80.1148C152.526 80.2787 152.449 80.4233 152.17 80.4618L150.917 80.645C150.117 80.7607 149.509 81.2234 149.509 82.0524ZM151.187 82.679C150.724 82.679 150.435 82.3512 150.435 82.0042C150.435 81.5897 150.724 81.368 151.109 81.3101L152.526 81.098V81.3101C152.526 82.3223 151.929 82.679 151.187 82.679ZM155.75 80.6161C155.75 79.9124 156.117 79.3436 156.83 79.3436C157.64 79.3436 157.91 79.8642 157.91 80.51V83.2959H158.816V80.3558C158.816 79.3243 158.266 78.5243 157.158 78.5243C156.618 78.5243 156.068 78.746 155.731 79.3243V78.6592H154.844V83.2959H155.75V80.6161ZM163.255 80.5004C163.294 79.9027 163.756 79.3147 164.518 79.3147C165.337 79.3147 165.771 79.8352 165.79 80.5004H163.255ZM165.925 81.7053C165.752 82.2259 165.376 82.6404 164.624 82.6404C163.843 82.6404 163.245 82.062 163.226 81.233H166.716C166.725 81.1752 166.735 81.0595 166.735 80.9438C166.735 79.4979 165.935 78.5146 164.508 78.5146C163.342 78.5146 162.291 79.5075 162.291 80.9631C162.291 82.5344 163.38 83.4405 164.624 83.4405C165.704 83.4405 166.446 82.7946 166.706 81.9753L165.925 81.7053ZM167.17 83.2959H168.249L169.426 81.5897L170.621 83.2959H171.71C171.431 82.92 170.283 81.3101 170.004 80.9342L171.652 78.6592H170.582L169.464 80.2883L168.327 78.6592H167.228L168.895 80.9342L167.17 83.2959ZM173.476 83.2959V78.6592H172.58V83.2959H173.476ZM172.377 76.9048C172.377 77.2615 172.666 77.5506 173.023 77.5506C173.389 77.5506 173.679 77.2615 173.679 76.9048C173.679 76.5385 173.389 76.2493 173.023 76.2493C172.666 76.2493 172.377 76.5385 172.377 76.9048ZM174.584 82.0909C174.661 82.6211 175.201 83.4405 176.473 83.4405C177.621 83.4405 178.17 82.6597 178.17 82.0042C178.17 81.3198 177.727 80.8089 176.888 80.6257L176.136 80.4618C175.779 80.3847 175.606 80.1823 175.606 79.9027C175.606 79.5846 175.914 79.2858 176.377 79.2858C177.11 79.2858 177.303 79.816 177.341 80.057L178.141 79.7581C178.045 79.3436 177.65 78.5146 176.377 78.5146C175.471 78.5146 174.729 79.1894 174.729 79.9798C174.729 80.6353 175.162 81.127 175.885 81.2812L176.676 81.4547C177.062 81.5415 177.274 81.7632 177.274 82.0524C177.274 82.3801 176.994 82.6693 176.483 82.6693C175.828 82.6693 175.461 82.2837 175.403 81.8017L174.584 82.0909ZM180.591 77.194H179.762V77.9459C179.762 78.3507 179.55 78.6592 179.049 78.6592H178.798V79.4786H179.685V82.0235C179.685 82.8621 180.186 83.3441 180.977 83.3441C181.285 83.3441 181.516 83.2863 181.594 83.2573V82.4862C181.516 82.5054 181.353 82.5247 181.237 82.5247C180.765 82.5247 180.591 82.3126 180.591 81.8885V79.4786H181.594V78.6592H180.591V77.194ZM183.7 83.2959V78.6592H182.803V83.2959H183.7ZM182.601 76.9048C182.601 77.2615 182.89 77.5506 183.246 77.5506C183.613 77.5506 183.902 77.2615 183.902 76.9048C183.902 76.5385 183.613 76.2493 183.246 76.2493C182.89 76.2493 182.601 76.5385 182.601 76.9048ZM186.147 80.6161C186.147 79.9124 186.514 79.3436 187.227 79.3436C188.037 79.3436 188.307 79.8642 188.307 80.51V83.2959H189.213V80.3558C189.213 79.3243 188.663 78.5243 187.555 78.5243C187.015 78.5243 186.465 78.746 186.128 79.3243V78.6592H185.241V83.2959H186.147V80.6161ZM190.317 83.5465C190.432 84.5394 191.3 85.272 192.457 85.272C194.202 85.272 194.78 84.1249 194.78 82.9489V78.6592H193.883V79.3051C193.652 78.8424 193.17 78.5725 192.457 78.5725C191.184 78.5725 190.326 79.575 190.326 80.8281C190.326 82.1391 191.223 83.0742 192.457 83.0742C193.151 83.0742 193.652 82.7368 193.874 82.3126V82.9778C193.874 83.9803 193.43 84.4816 192.457 84.4816C191.753 84.4816 191.261 83.99 191.194 83.3441L190.317 83.5465ZM192.592 82.3126C191.772 82.3126 191.252 81.7343 191.252 80.8281C191.252 79.9316 191.792 79.3436 192.592 79.3436C193.373 79.3436 193.912 79.9316 193.912 80.8281C193.912 81.7246 193.373 82.3126 192.592 82.3126ZM200.623 82.6308C199.852 82.6308 199.177 82.0524 199.177 80.9727C199.177 79.9027 199.852 79.3243 200.623 79.3243C201.394 79.3243 202.069 79.9027 202.069 80.9727C202.069 82.0524 201.394 82.6308 200.623 82.6308ZM200.623 78.5146C199.235 78.5146 198.251 79.5653 198.251 80.9727C198.251 82.3898 199.235 83.4405 200.623 83.4405C202.011 83.4405 202.994 82.3898 202.994 80.9727C202.994 79.5653 202.011 78.5146 200.623 78.5146ZM205.06 80.6161C205.06 79.9124 205.426 79.3436 206.139 79.3436C206.949 79.3436 207.219 79.8642 207.219 80.51V83.2959H208.125V80.3558C208.125 79.3243 207.576 78.5243 206.467 78.5243C205.927 78.5243 205.378 78.746 205.04 79.3243V78.6592H204.153V83.2959H205.06V80.6161ZM210.154 80.5004C210.193 79.9027 210.656 79.3147 211.417 79.3147C212.237 79.3147 212.67 79.8352 212.69 80.5004H210.154ZM212.825 81.7053C212.651 82.2259 212.275 82.6404 211.523 82.6404C210.742 82.6404 210.145 82.062 210.125 81.233H213.615C213.625 81.1752 213.634 81.0595 213.634 80.9438C213.634 79.4979 212.834 78.5146 211.408 78.5146C210.241 78.5146 209.19 79.5075 209.19 80.9631C209.19 82.5344 210.28 83.4405 211.523 83.4405C212.603 83.4405 213.345 82.7946 213.605 81.9753L212.825 81.7053ZM216.513 81.339C216.503 81.2426 216.503 81.2041 216.503 81.1559C216.503 80.7799 216.628 80.4329 216.927 80.2305L217.371 79.9316C217.93 79.5557 218.354 79.0255 218.354 78.2543C218.354 77.2711 217.592 76.3168 216.243 76.3168C214.758 76.3168 214.112 77.406 214.112 78.2929C214.112 78.4664 214.132 78.6206 214.17 78.7556L215.105 78.8713C215.067 78.7652 215.038 78.5628 215.038 78.3989C215.038 77.7916 215.404 77.1651 216.243 77.1651C217.014 77.1651 217.39 77.6952 217.39 78.264C217.39 78.6399 217.207 78.987 216.879 79.2087L216.455 79.4979C215.886 79.8834 215.655 80.3654 215.655 81.0017C215.655 81.127 215.655 81.2234 215.664 81.339H216.513ZM215.452 82.7175C215.452 83.0645 215.732 83.3441 216.079 83.3441C216.426 83.3441 216.715 83.0645 216.715 82.7175C216.715 82.3705 216.426 82.0813 216.079 82.0813C215.732 82.0813 215.452 82.3705 215.452 82.7175Z" fill="#A0A0A0"/>
<circle cx="105.169" cy="111.493" r="16.1772" fill="#585858"/>
<rect x="112.832" y="116.602" width="11.4943" height="11.4943" rx="5.74717" fill="#4CC38A" stroke="#F2FDFD" stroke-width="3.40573"/>
<path d="M108.492 116.276H110.277L106.517 106.617H104.623L100.863 116.276H102.593L103.493 113.851H107.579L108.492 116.276ZM105.536 108.388L107.007 112.339H104.065L105.536 108.388Z" fill="url(#paint3_linear_2627_69093)"/>
<path d="M136.739 105.702H137.761L135.042 98.8671H133.953L131.235 105.702H132.247L132.97 103.793H135.997L136.739 105.702ZM134.474 99.8504L135.659 102.916H133.307L134.474 99.8504ZM139.49 103.022C139.49 102.318 139.856 101.749 140.569 101.749C141.379 101.749 141.649 102.27 141.649 102.916V105.702H142.555V102.762C142.555 101.73 142.006 100.93 140.897 100.93C140.357 100.93 139.808 101.152 139.471 101.73V101.065H138.584V105.702H139.49V103.022ZM144.903 103.022C144.903 102.318 145.269 101.749 145.982 101.749C146.792 101.749 147.062 102.27 147.062 102.916V105.702H147.968V102.762C147.968 101.73 147.419 100.93 146.31 100.93C145.77 100.93 145.221 101.152 144.883 101.73V101.065H143.997V105.702H144.903V103.022ZM149.12 104.458C149.12 105.191 149.728 105.846 150.672 105.846C151.501 105.846 151.964 105.403 152.166 105.075C152.166 105.412 152.195 105.586 152.215 105.702H153.102C153.082 105.586 153.044 105.345 153.044 104.94V102.617C153.044 101.711 152.504 100.92 151.116 100.92C150.113 100.92 149.313 101.537 149.217 102.424L150.084 102.627C150.142 102.087 150.499 101.692 151.135 101.692C151.839 101.692 152.138 102.067 152.138 102.521C152.138 102.684 152.06 102.829 151.781 102.868L150.528 103.051C149.728 103.166 149.12 103.629 149.12 104.458ZM150.798 105.085C150.335 105.085 150.046 104.757 150.046 104.41C150.046 103.995 150.335 103.774 150.721 103.716L152.138 103.504V103.716C152.138 104.728 151.54 105.085 150.798 105.085Z" fill="#232323"/>
<path d="M161.143 103.446C161.143 104.757 161.933 105.625 163.273 105.625C164.545 105.625 165.326 104.632 165.326 103.437V98.6457H164.381V103.504C164.381 104.295 163.957 104.748 163.263 104.748C162.579 104.748 162.087 104.343 162.087 103.437V102.791L161.143 103.003V103.446ZM169.926 104.921C169.926 105.114 169.945 105.374 169.965 105.48H170.832C170.813 105.316 170.784 104.989 170.784 104.622V100.844H169.878V103.639C169.878 104.343 169.511 104.825 168.779 104.825C168.017 104.825 167.728 104.266 167.728 103.629V100.844H166.822V103.764C166.822 104.815 167.478 105.625 168.557 105.625C169.097 105.625 169.675 105.403 169.926 104.921ZM171.896 104.275C171.974 104.805 172.513 105.625 173.786 105.625C174.933 105.625 175.482 104.844 175.482 104.189C175.482 103.504 175.039 102.993 174.2 102.81L173.448 102.646C173.092 102.569 172.918 102.367 172.918 102.087C172.918 101.769 173.227 101.47 173.689 101.47C174.422 101.47 174.615 102 174.653 102.241L175.453 101.942C175.357 101.528 174.962 100.699 173.689 100.699C172.783 100.699 172.041 101.374 172.041 102.164C172.041 102.82 172.475 103.311 173.198 103.466L173.988 103.639C174.374 103.726 174.586 103.948 174.586 104.237C174.586 104.564 174.306 104.854 173.795 104.854C173.14 104.854 172.774 104.468 172.716 103.986L171.896 104.275ZM177.903 99.3783H177.074V100.13C177.074 100.535 176.862 100.844 176.361 100.844H176.11V101.663H176.997V104.208C176.997 105.046 177.498 105.528 178.289 105.528C178.597 105.528 178.829 105.471 178.906 105.442V104.67C178.829 104.69 178.665 104.709 178.549 104.709C178.077 104.709 177.903 104.497 177.903 104.073V101.663H178.906V100.844H177.903V99.3783ZM183.431 102.8C183.431 102.097 183.798 101.528 184.511 101.528C185.321 101.528 185.591 102.048 185.591 102.694V105.48H186.497V102.54C186.497 101.509 185.947 100.709 184.839 100.709C184.299 100.709 183.75 100.93 183.412 101.509V100.844H182.525V105.48H183.431V102.8ZM189.924 104.815C189.153 104.815 188.478 104.237 188.478 103.157C188.478 102.087 189.153 101.509 189.924 101.509C190.695 101.509 191.37 102.087 191.37 103.157C191.37 104.237 190.695 104.815 189.924 104.815ZM189.924 100.699C188.536 100.699 187.553 101.75 187.553 103.157C187.553 104.574 188.536 105.625 189.924 105.625C191.312 105.625 192.295 104.574 192.295 103.157C192.295 101.75 191.312 100.699 189.924 100.699ZM195.973 100.844L194.768 104.333L193.727 100.844H192.734L194.257 105.48H195.211L196.416 101.952L197.65 105.48H198.585L200.089 100.844H199.135L198.113 104.333L196.908 100.844H195.973Z" fill="#707070"/>
<path d="M137.385 121.493V114.658H136.44V117.579H132.95V114.658H132.006V121.493H132.95V118.456H136.44V121.493H137.385ZM139.614 118.697C139.653 118.1 140.115 117.512 140.877 117.512C141.696 117.512 142.13 118.032 142.149 118.697H139.614ZM142.284 119.902C142.111 120.423 141.735 120.837 140.983 120.837C140.202 120.837 139.605 120.259 139.585 119.43H143.075C143.084 119.372 143.094 119.257 143.094 119.141C143.094 117.695 142.294 116.712 140.867 116.712C139.701 116.712 138.65 117.705 138.65 119.16C138.65 120.731 139.739 121.638 140.983 121.638C142.063 121.638 142.805 120.992 143.065 120.172L142.284 119.902ZM145.313 123.43L148.331 116.856H147.357L145.969 120.057L144.523 116.856H143.482L145.477 120.982L144.321 123.43H145.313ZM156.451 115.536V114.658H150.938V115.536H153.222V121.493H154.167V115.536H156.451ZM158.025 121.493V116.856H157.129V121.493H158.025ZM156.926 115.102C156.926 115.458 157.216 115.748 157.572 115.748C157.939 115.748 158.228 115.458 158.228 115.102C158.228 114.735 157.939 114.446 157.572 114.446C157.216 114.446 156.926 114.735 156.926 115.102ZM160.463 121.493V118.697C160.463 118.003 160.897 117.521 161.543 117.521C162.237 117.521 162.526 117.984 162.526 118.582V121.493H163.433V118.688C163.433 118.023 163.866 117.521 164.503 117.521C165.187 117.521 165.486 117.974 165.486 118.582V121.493H166.382V118.485C166.382 117.271 165.592 116.721 164.782 116.721C164.194 116.721 163.596 116.933 163.23 117.598C162.979 117.001 162.42 116.721 161.842 116.721C161.302 116.721 160.724 116.962 160.435 117.473V116.856H159.567V121.493H160.463ZM167.736 120.876C167.736 121.29 168.025 121.531 168.382 121.531C168.488 121.531 168.565 121.503 168.594 121.483C168.584 121.946 168.266 122.418 167.794 122.524V123.026C168.391 122.949 169.22 122.418 169.22 121.146C169.22 120.539 168.854 120.23 168.44 120.23C168.035 120.23 167.736 120.529 167.736 120.876ZM173.982 118.765C174.001 118.08 174.367 117.541 175.062 117.541C175.871 117.541 176.141 118.061 176.141 118.707V121.493H177.047V118.553C177.047 117.521 176.498 116.721 175.389 116.721C174.859 116.721 174.319 116.904 173.982 117.396V114.514H173.076V121.493H173.982V118.765ZM179.077 118.697C179.115 118.1 179.578 117.512 180.339 117.512C181.159 117.512 181.593 118.032 181.612 118.697H179.077ZM181.747 119.902C181.573 120.423 181.197 120.837 180.446 120.837C179.665 120.837 179.067 120.259 179.048 119.43H182.537C182.547 119.372 182.557 119.257 182.557 119.141C182.557 117.695 181.756 116.712 180.33 116.712C179.163 116.712 178.113 117.705 178.113 119.16C178.113 120.731 179.202 121.638 180.446 121.638C181.525 121.638 182.267 120.992 182.528 120.172L181.747 119.902ZM186.287 116.808C186.239 116.798 186.114 116.779 185.988 116.779C185.516 116.779 184.938 116.953 184.6 117.666V116.856H183.713V121.493H184.619V119.17C184.619 118.148 185.13 117.743 185.892 117.743C186.017 117.743 186.152 117.753 186.287 117.772V116.808ZM187.794 118.697C187.832 118.1 188.295 117.512 189.057 117.512C189.876 117.512 190.31 118.032 190.329 118.697H187.794ZM190.464 119.902C190.29 120.423 189.915 120.837 189.163 120.837C188.382 120.837 187.784 120.259 187.765 119.43H191.254C191.264 119.372 191.274 119.257 191.274 119.141C191.274 117.695 190.474 116.712 189.047 116.712C187.881 116.712 186.83 117.705 186.83 119.16C186.83 120.731 187.919 121.638 189.163 121.638C190.242 121.638 190.985 120.992 191.245 120.172L190.464 119.902ZM191.659 115.169C191.659 115.555 191.929 115.786 192.266 115.786C192.363 115.786 192.43 115.757 192.459 115.738C192.449 116.172 192.15 116.615 191.717 116.712V117.174C192.276 117.107 193.047 116.615 193.047 115.42C193.047 114.861 192.7 114.572 192.314 114.572C191.938 114.572 191.659 114.851 191.659 115.169ZM193.239 120.288C193.316 120.818 193.856 121.638 195.129 121.638C196.276 121.638 196.825 120.857 196.825 120.201C196.825 119.517 196.382 119.006 195.543 118.823L194.791 118.659C194.435 118.582 194.261 118.379 194.261 118.1C194.261 117.782 194.57 117.483 195.032 117.483C195.765 117.483 195.958 118.013 195.996 118.254L196.796 117.955C196.7 117.541 196.305 116.712 195.032 116.712C194.126 116.712 193.384 117.386 193.384 118.177C193.384 118.832 193.818 119.324 194.541 119.478L195.331 119.652C195.717 119.738 195.929 119.96 195.929 120.249C195.929 120.577 195.649 120.866 195.138 120.866C194.483 120.866 194.116 120.481 194.059 119.999L193.239 120.288ZM200.152 120.249C200.152 120.982 200.76 121.638 201.704 121.638C202.533 121.638 202.996 121.194 203.198 120.866C203.198 121.204 203.227 121.377 203.247 121.493H204.134C204.114 121.377 204.076 121.136 204.076 120.731V118.408C204.076 117.502 203.536 116.712 202.148 116.712C201.145 116.712 200.345 117.329 200.249 118.215L201.116 118.418C201.174 117.878 201.531 117.483 202.167 117.483C202.871 117.483 203.17 117.859 203.17 118.312C203.17 118.476 203.092 118.62 202.813 118.659L201.56 118.842C200.76 118.958 200.152 119.42 200.152 120.249ZM201.83 120.876C201.367 120.876 201.078 120.548 201.078 120.201C201.078 119.787 201.367 119.565 201.753 119.507L203.17 119.295V119.507C203.17 120.519 202.572 120.876 201.83 120.876ZM207.56 121.744C207.676 122.736 208.543 123.469 209.7 123.469C211.445 123.469 212.023 122.322 212.023 121.146V116.856H211.127V117.502C210.895 117.039 210.413 116.769 209.7 116.769C208.427 116.769 207.569 117.772 207.569 119.025C207.569 120.336 208.466 121.271 209.7 121.271C210.394 121.271 210.895 120.934 211.117 120.51V121.175C211.117 122.177 210.673 122.679 209.7 122.679C208.996 122.679 208.505 122.187 208.437 121.541L207.56 121.744ZM209.835 120.51C209.015 120.51 208.495 119.931 208.495 119.025C208.495 118.129 209.035 117.541 209.835 117.541C210.616 117.541 211.155 118.129 211.155 119.025C211.155 119.922 210.616 120.51 209.835 120.51ZM216.479 120.934C216.479 121.127 216.498 121.387 216.517 121.493H217.385C217.366 121.329 217.337 121.001 217.337 120.635V116.856H216.431V119.652C216.431 120.355 216.064 120.837 215.332 120.837C214.57 120.837 214.281 120.278 214.281 119.642V116.856H213.375V119.777C213.375 120.828 214.03 121.638 215.11 121.638C215.65 121.638 216.228 121.416 216.479 120.934ZM219.78 121.493V116.856H218.883V121.493H219.78ZM218.681 115.102C218.681 115.458 218.97 115.748 219.327 115.748C219.693 115.748 219.982 115.458 219.982 115.102C219.982 114.735 219.693 114.446 219.327 114.446C218.97 114.446 218.681 114.735 218.681 115.102ZM221.861 119.16C221.861 118.206 222.401 117.531 223.23 117.531C224.059 117.531 224.56 118.187 224.56 119.141C224.56 120.095 224.049 120.818 223.22 120.818C222.353 120.818 221.861 120.114 221.861 119.16ZM224.57 120.866C224.57 121.146 224.599 121.387 224.618 121.493H225.495C225.486 121.416 225.447 121.078 225.447 120.635V114.514H224.551V117.512C224.396 117.136 223.953 116.731 223.134 116.731C221.823 116.731 220.936 117.849 220.936 119.16C220.936 120.539 221.774 121.618 223.134 121.618C223.856 121.618 224.348 121.233 224.57 120.789V120.866ZM227.576 118.697C227.615 118.1 228.078 117.512 228.839 117.512C229.659 117.512 230.092 118.032 230.112 118.697H227.576ZM230.247 119.902C230.073 120.423 229.697 120.837 228.945 120.837C228.164 120.837 227.567 120.259 227.547 119.43H231.037C231.047 119.372 231.056 119.257 231.056 119.141C231.056 117.695 230.256 116.712 228.83 116.712C227.663 116.712 226.612 117.705 226.612 119.16C226.612 120.731 227.702 121.638 228.945 121.638C230.025 121.638 230.767 120.992 231.027 120.172L230.247 119.902ZM236.609 120.828C235.837 120.828 235.163 120.249 235.163 119.17C235.163 118.1 235.837 117.521 236.609 117.521C237.38 117.521 238.055 118.1 238.055 119.17C238.055 120.249 237.38 120.828 236.609 120.828ZM236.609 116.712C235.221 116.712 234.237 117.762 234.237 119.17C234.237 120.587 235.221 121.638 236.609 121.638C237.997 121.638 238.98 120.587 238.98 119.17C238.98 117.762 237.997 116.712 236.609 116.712ZM241.045 118.813C241.045 118.109 241.412 117.541 242.125 117.541C242.935 117.541 243.205 118.061 243.205 118.707V121.493H244.111V118.553C244.111 117.521 243.561 116.721 242.453 116.721C241.913 116.721 241.364 116.943 241.026 117.521V116.856H240.139V121.493H241.045V118.813ZM248.868 118.765C248.888 118.08 249.254 117.541 249.948 117.541C250.758 117.541 251.028 118.061 251.028 118.707V121.493H251.934V118.553C251.934 117.521 251.384 116.721 250.276 116.721C249.746 116.721 249.206 116.904 248.868 117.396V114.514H247.962V121.493H248.868V118.765ZM255.361 120.828C254.59 120.828 253.915 120.249 253.915 119.17C253.915 118.1 254.59 117.521 255.361 117.521C256.132 117.521 256.807 118.1 256.807 119.17C256.807 120.249 256.132 120.828 255.361 120.828ZM255.361 116.712C253.973 116.712 252.99 117.762 252.99 119.17C252.99 120.587 253.973 121.638 255.361 121.638C256.749 121.638 257.732 120.587 257.732 119.17C257.732 117.762 256.749 116.712 255.361 116.712ZM261.41 116.856L260.205 120.346L259.164 116.856H258.171L259.694 121.493H260.648L261.853 117.965L263.087 121.493H264.022L265.526 116.856H264.572L263.55 120.346L262.345 116.856H261.41ZM270.066 115.391H269.237V116.143C269.237 116.548 269.025 116.856 268.524 116.856H268.273V117.676H269.16V120.22C269.16 121.059 269.661 121.541 270.452 121.541C270.76 121.541 270.991 121.483 271.068 121.454V120.683C270.991 120.702 270.827 120.722 270.712 120.722C270.239 120.722 270.066 120.51 270.066 120.086V117.676H271.068V116.856H270.066V115.391ZM274.217 120.828C273.445 120.828 272.771 120.249 272.771 119.17C272.771 118.1 273.445 117.521 274.217 117.521C274.988 117.521 275.663 118.1 275.663 119.17C275.663 120.249 274.988 120.828 274.217 120.828ZM274.217 116.712C272.829 116.712 271.845 117.762 271.845 119.17C271.845 120.587 272.829 121.638 274.217 121.638C275.605 121.638 276.588 120.587 276.588 119.17C276.588 117.762 275.605 116.712 274.217 116.712ZM132.449 132.16C132.449 131.206 132.989 130.531 133.818 130.531C134.647 130.531 135.148 131.187 135.148 132.141C135.148 133.095 134.637 133.818 133.808 133.818C132.941 133.818 132.449 133.114 132.449 132.16ZM135.158 133.866C135.158 134.146 135.187 134.387 135.206 134.493H136.083C136.074 134.416 136.035 134.078 136.035 133.635V127.514H135.139V130.512C134.984 130.136 134.541 129.731 133.722 129.731C132.411 129.731 131.524 130.849 131.524 132.16C131.524 133.539 132.362 134.618 133.722 134.618C134.445 134.618 134.936 134.233 135.158 133.789V133.866ZM139.562 133.828C138.791 133.828 138.116 133.249 138.116 132.17C138.116 131.1 138.791 130.521 139.562 130.521C140.333 130.521 141.008 131.1 141.008 132.17C141.008 133.249 140.333 133.828 139.562 133.828ZM139.562 129.712C138.174 129.712 137.191 130.762 137.191 132.17C137.191 133.587 138.174 134.638 139.562 134.638C140.95 134.638 141.934 133.587 141.934 132.17C141.934 130.762 140.95 129.712 139.562 129.712ZM146.717 128.391H145.888V129.143C145.888 129.548 145.676 129.856 145.175 129.856H144.924V130.676H145.811V133.22C145.811 134.059 146.313 134.541 147.103 134.541C147.411 134.541 147.643 134.483 147.72 134.454V133.683C147.643 133.702 147.479 133.722 147.363 133.722C146.891 133.722 146.717 133.51 146.717 133.086V130.676H147.72V129.856H146.717V128.391ZM149.836 131.765C149.855 131.08 150.221 130.541 150.915 130.541C151.725 130.541 151.995 131.061 151.995 131.707V134.493H152.901V131.553C152.901 130.521 152.352 129.721 151.243 129.721C150.713 129.721 150.173 129.904 149.836 130.396V127.514H148.929V134.493H149.836V131.765ZM155.239 134.493V129.856H154.342V134.493H155.239ZM154.14 128.102C154.14 128.458 154.429 128.748 154.786 128.748C155.152 128.748 155.441 128.458 155.441 128.102C155.441 127.735 155.152 127.446 154.786 127.446C154.429 127.446 154.14 127.735 154.14 128.102ZM156.347 133.288C156.424 133.818 156.964 134.638 158.236 134.638C159.383 134.638 159.933 133.857 159.933 133.201C159.933 132.517 159.489 132.006 158.651 131.823L157.899 131.659C157.542 131.582 157.369 131.379 157.369 131.1C157.369 130.782 157.677 130.483 158.14 130.483C158.872 130.483 159.065 131.013 159.104 131.254L159.904 130.955C159.807 130.541 159.412 129.712 158.14 129.712C157.234 129.712 156.491 130.386 156.491 131.177C156.491 131.832 156.925 132.324 157.648 132.478L158.439 132.652C158.824 132.738 159.036 132.96 159.036 133.249C159.036 133.577 158.757 133.866 158.246 133.866C157.59 133.866 157.224 133.481 157.166 132.999L156.347 133.288ZM161.043 133.876C161.043 134.29 161.332 134.531 161.689 134.531C161.795 134.531 161.872 134.503 161.901 134.483C161.891 134.946 161.573 135.418 161.101 135.524V136.026C161.698 135.949 162.527 135.418 162.527 134.146C162.527 133.539 162.161 133.23 161.746 133.23C161.342 133.23 161.043 133.529 161.043 133.876ZM167.289 134.493V127.514H166.383V134.493H167.289ZM169.418 131.697C169.457 131.1 169.919 130.512 170.681 130.512C171.5 130.512 171.934 131.032 171.953 131.697H169.418ZM172.088 132.902C171.915 133.423 171.539 133.837 170.787 133.837C170.006 133.837 169.409 133.259 169.389 132.43H172.879C172.888 132.372 172.898 132.257 172.898 132.141C172.898 130.695 172.098 129.712 170.671 129.712C169.505 129.712 168.454 130.705 168.454 132.16C168.454 133.731 169.543 134.638 170.787 134.638C171.867 134.638 172.609 133.992 172.869 133.172L172.088 132.902ZM175.269 128.391H174.44V129.143C174.44 129.548 174.228 129.856 173.727 129.856H173.476V130.676H174.363V133.22C174.363 134.059 174.864 134.541 175.655 134.541C175.963 134.541 176.195 134.483 176.272 134.454V133.683C176.195 133.702 176.031 133.722 175.915 133.722C175.443 133.722 175.269 133.51 175.269 133.086V130.676H176.272V129.856H175.269V128.391ZM180.788 134.493V131.697C180.788 131.003 181.222 130.521 181.867 130.521C182.561 130.521 182.851 130.984 182.851 131.582V134.493H183.757V131.688C183.757 131.023 184.191 130.521 184.827 130.521C185.511 130.521 185.81 130.974 185.81 131.582V134.493H186.707V131.485C186.707 130.271 185.916 129.721 185.106 129.721C184.518 129.721 183.921 129.933 183.554 130.598C183.304 130.001 182.745 129.721 182.166 129.721C181.626 129.721 181.048 129.962 180.759 130.473V129.856H179.891V134.493H180.788ZM188.745 131.697C188.783 131.1 189.246 130.512 190.007 130.512C190.827 130.512 191.261 131.032 191.28 131.697H188.745ZM191.415 132.902C191.241 133.423 190.865 133.837 190.113 133.837C189.333 133.837 188.735 133.259 188.716 132.43H192.205C192.215 132.372 192.225 132.257 192.225 132.141C192.225 130.695 191.424 129.712 189.998 129.712C188.831 129.712 187.781 130.705 187.781 132.16C187.781 133.731 188.87 134.638 190.113 134.638C191.193 134.638 191.935 133.992 192.196 133.172L191.415 132.902ZM199.946 129.856H198.693L196.688 131.909V127.514H195.791V134.493H196.688V133.095L197.333 132.449L198.847 134.493H199.984L197.97 131.813L199.946 129.856ZM201.762 131.813C201.762 131.109 202.128 130.541 202.842 130.541C203.651 130.541 203.921 131.061 203.921 131.707V134.493H204.827V131.553C204.827 130.521 204.278 129.721 203.169 129.721C202.629 129.721 202.08 129.943 201.743 130.521V129.856H200.856V134.493H201.762V131.813ZM208.254 133.828C207.483 133.828 206.808 133.249 206.808 132.17C206.808 131.1 207.483 130.521 208.254 130.521C209.026 130.521 209.7 131.1 209.7 132.17C209.7 133.249 209.026 133.828 208.254 133.828ZM208.254 129.712C206.866 129.712 205.883 130.762 205.883 132.17C205.883 133.587 206.866 134.638 208.254 134.638C209.643 134.638 210.626 133.587 210.626 132.17C210.626 130.762 209.643 129.712 208.254 129.712ZM214.303 129.856L213.098 133.346L212.057 129.856H211.064L212.587 134.493H213.542L214.747 130.965L215.981 134.493H216.916L218.419 129.856H217.465L216.443 133.346L215.238 129.856H214.303ZM222.641 134.493V129.856H221.745V134.493H222.641ZM221.542 128.102C221.542 128.458 221.832 128.748 222.188 128.748C222.555 128.748 222.844 128.458 222.844 128.102C222.844 127.735 222.555 127.446 222.188 127.446C221.832 127.446 221.542 127.735 221.542 128.102ZM226.516 130.676V129.856H225.398V129.124C225.398 128.487 225.812 128.333 226.13 128.333C226.362 128.333 226.477 128.372 226.525 128.391V127.581C226.487 127.552 226.294 127.485 225.986 127.485C225.147 127.485 224.463 128.044 224.463 129.075V129.856H223.605V130.676H224.463V134.493H225.398V130.676H226.516ZM231.112 128.391H230.283V129.143C230.283 129.548 230.071 129.856 229.569 129.856H229.319V130.676H230.206V133.22C230.206 134.059 230.707 134.541 231.497 134.541C231.806 134.541 232.037 134.483 232.114 134.454V133.683C232.037 133.702 231.873 133.722 231.758 133.722C231.285 133.722 231.112 133.51 231.112 133.086V130.676H232.114V129.856H231.112V128.391ZM234.23 131.765C234.249 131.08 234.616 130.541 235.31 130.541C236.119 130.541 236.389 131.061 236.389 131.707V134.493H237.295V131.553C237.295 130.521 236.746 129.721 235.637 129.721C235.107 129.721 234.567 129.904 234.23 130.396V127.514H233.324V134.493H234.23V131.765ZM239.325 131.697C239.363 131.1 239.826 130.512 240.588 130.512C241.407 130.512 241.841 131.032 241.86 131.697H239.325ZM241.995 132.902C241.821 133.423 241.445 133.837 240.694 133.837C239.913 133.837 239.315 133.259 239.296 132.43H242.785C242.795 132.372 242.805 132.257 242.805 132.141C242.805 130.695 242.005 129.712 240.578 129.712C239.411 129.712 238.361 130.705 238.361 132.16C238.361 133.731 239.45 134.638 240.694 134.638C241.773 134.638 242.515 133.992 242.776 133.172L241.995 132.902ZM246.535 129.808C246.487 129.798 246.362 129.779 246.236 129.779C245.764 129.779 245.186 129.953 244.848 130.666V129.856H243.961V134.493H244.867V132.17C244.867 131.148 245.378 130.743 246.14 130.743C246.265 130.743 246.4 130.753 246.535 130.772V129.808ZM248.042 131.697C248.08 131.1 248.543 130.512 249.305 130.512C250.124 130.512 250.558 131.032 250.577 131.697H248.042ZM250.712 132.902C250.539 133.423 250.163 133.837 249.411 133.837C248.63 133.837 248.032 133.259 248.013 132.43H251.503C251.512 132.372 251.522 132.257 251.522 132.141C251.522 130.695 250.722 129.712 249.295 129.712C248.129 129.712 247.078 130.705 247.078 132.16C247.078 133.731 248.167 134.638 249.411 134.638C250.49 134.638 251.233 133.992 251.493 133.172L250.712 132.902ZM252.245 133.288C252.322 133.818 252.862 134.638 254.134 134.638C255.281 134.638 255.831 133.857 255.831 133.201C255.831 132.517 255.387 132.006 254.549 131.823L253.797 131.659C253.44 131.582 253.267 131.379 253.267 131.1C253.267 130.782 253.575 130.483 254.038 130.483C254.77 130.483 254.963 131.013 255.002 131.254L255.802 130.955C255.705 130.541 255.31 129.712 254.038 129.712C253.132 129.712 252.389 130.386 252.389 131.177C252.389 131.832 252.823 132.324 253.546 132.478L254.337 132.652C254.722 132.738 254.934 132.96 254.934 133.249C254.934 133.577 254.655 133.866 254.144 133.866C253.488 133.866 253.122 133.481 253.064 132.999L252.245 133.288ZM131.62 146.249C131.62 146.982 132.227 147.638 133.172 147.638C134.001 147.638 134.464 147.194 134.666 146.866C134.666 147.204 134.695 147.377 134.715 147.493H135.601C135.582 147.377 135.544 147.136 135.544 146.731V144.408C135.544 143.502 135.004 142.712 133.616 142.712C132.613 142.712 131.813 143.329 131.717 144.215L132.584 144.418C132.642 143.878 132.999 143.483 133.635 143.483C134.339 143.483 134.637 143.859 134.637 144.312C134.637 144.476 134.56 144.62 134.281 144.659L133.028 144.842C132.227 144.958 131.62 145.42 131.62 146.249ZM133.297 146.876C132.835 146.876 132.546 146.548 132.546 146.201C132.546 145.787 132.835 145.565 133.22 145.507L134.637 145.295V145.507C134.637 146.519 134.04 146.876 133.297 146.876ZM137.861 144.813C137.861 144.109 138.228 143.541 138.941 143.541C139.751 143.541 140.021 144.061 140.021 144.707V147.493H140.927V144.553C140.927 143.521 140.377 142.721 139.269 142.721C138.729 142.721 138.179 142.943 137.842 143.521V142.856H136.955V147.493H137.861V144.813ZM143.525 149.43L146.542 142.856H145.568L144.18 146.057L142.734 142.856H141.693L143.689 146.982L142.532 149.43H143.525ZM148.675 141.391H147.846V142.143C147.846 142.548 147.634 142.856 147.133 142.856H146.883V143.676H147.769V146.22C147.769 147.059 148.271 147.541 149.061 147.541C149.37 147.541 149.601 147.483 149.678 147.454V146.683C149.601 146.702 149.437 146.722 149.321 146.722C148.849 146.722 148.675 146.51 148.675 146.086V143.676H149.678V142.856H148.675V141.391ZM151.794 144.765C151.813 144.08 152.179 143.541 152.873 143.541C153.683 143.541 153.953 144.061 153.953 144.707V147.493H154.859V144.553C154.859 143.521 154.31 142.721 153.201 142.721C152.671 142.721 152.131 142.904 151.794 143.396V140.514H150.887V147.493H151.794V144.765ZM157.197 147.493V142.856H156.3V147.493H157.197ZM156.098 141.102C156.098 141.458 156.387 141.748 156.744 141.748C157.11 141.748 157.399 141.458 157.399 141.102C157.399 140.735 157.11 140.446 156.744 140.446C156.387 140.446 156.098 140.735 156.098 141.102ZM159.645 144.813C159.645 144.109 160.011 143.541 160.724 143.541C161.534 143.541 161.804 144.061 161.804 144.707V147.493H162.71V144.553C162.71 143.521 162.161 142.721 161.052 142.721C160.512 142.721 159.963 142.943 159.625 143.521V142.856H158.739V147.493H159.645V144.813ZM163.814 147.744C163.93 148.736 164.797 149.469 165.954 149.469C167.699 149.469 168.277 148.322 168.277 147.146V142.856H167.381V143.502C167.149 143.039 166.667 142.769 165.954 142.769C164.682 142.769 163.824 143.772 163.824 145.025C163.824 146.336 164.72 147.271 165.954 147.271C166.648 147.271 167.149 146.934 167.371 146.51V147.175C167.371 148.177 166.928 148.679 165.954 148.679C165.25 148.679 164.759 148.187 164.691 147.541L163.814 147.744ZM166.089 146.51C165.27 146.51 164.749 145.931 164.749 145.025C164.749 144.129 165.289 143.541 166.089 143.541C166.87 143.541 167.41 144.129 167.41 145.025C167.41 145.922 166.87 146.51 166.089 146.51ZM172.722 144.697C172.761 144.1 173.224 143.512 173.985 143.512C174.805 143.512 175.238 144.032 175.258 144.697H172.722ZM175.393 145.902C175.219 146.423 174.843 146.837 174.091 146.837C173.31 146.837 172.713 146.259 172.693 145.43H176.183C176.193 145.372 176.202 145.257 176.202 145.141C176.202 143.695 175.402 142.712 173.976 142.712C172.809 142.712 171.758 143.705 171.758 145.16C171.758 146.731 172.848 147.638 174.091 147.638C175.171 147.638 175.913 146.992 176.173 146.172L175.393 145.902ZM178.265 147.493V140.514H177.359V147.493H178.265ZM179.373 146.288C179.45 146.818 179.99 147.638 181.262 147.638C182.409 147.638 182.959 146.857 182.959 146.201C182.959 145.517 182.515 145.006 181.677 144.823L180.925 144.659C180.568 144.582 180.395 144.379 180.395 144.1C180.395 143.782 180.703 143.483 181.166 143.483C181.898 143.483 182.091 144.013 182.13 144.254L182.93 143.955C182.833 143.541 182.438 142.712 181.166 142.712C180.26 142.712 179.517 143.386 179.517 144.177C179.517 144.832 179.951 145.324 180.674 145.478L181.465 145.652C181.85 145.738 182.062 145.96 182.062 146.249C182.062 146.577 181.783 146.866 181.272 146.866C180.616 146.866 180.25 146.481 180.192 145.999L179.373 146.288ZM184.706 144.697C184.745 144.1 185.207 143.512 185.969 143.512C186.788 143.512 187.222 144.032 187.241 144.697H184.706ZM187.376 145.902C187.203 146.423 186.827 146.837 186.075 146.837C185.294 146.837 184.696 146.259 184.677 145.43H188.167C188.176 145.372 188.186 145.257 188.186 145.141C188.186 143.695 187.386 142.712 185.959 142.712C184.793 142.712 183.742 143.705 183.742 145.16C183.742 146.731 184.831 147.638 186.075 147.638C187.155 147.638 187.897 146.992 188.157 146.172L187.376 145.902ZM192.909 149.43L195.927 142.856H194.953L193.565 146.057L192.119 142.856H191.078L193.073 146.982L191.917 149.43H192.909ZM198.596 146.828C197.825 146.828 197.15 146.249 197.15 145.17C197.15 144.1 197.825 143.521 198.596 143.521C199.367 143.521 200.042 144.1 200.042 145.17C200.042 146.249 199.367 146.828 198.596 146.828ZM198.596 142.712C197.208 142.712 196.225 143.762 196.225 145.17C196.225 146.587 197.208 147.638 198.596 147.638C199.984 147.638 200.967 146.587 200.967 145.17C200.967 143.762 199.984 142.712 198.596 142.712ZM205.135 146.934C205.135 147.127 205.155 147.387 205.174 147.493H206.041C206.022 147.329 205.993 147.001 205.993 146.635V142.856H205.087V145.652C205.087 146.355 204.721 146.837 203.988 146.837C203.227 146.837 202.937 146.278 202.937 145.642V142.856H202.031V145.777C202.031 146.828 202.687 147.638 203.766 147.638C204.306 147.638 204.885 147.416 205.135 146.934ZM207.154 141.169C207.154 141.555 207.424 141.786 207.761 141.786C207.858 141.786 207.925 141.757 207.954 141.738C207.944 142.172 207.646 142.615 207.212 142.712V143.174C207.771 143.107 208.542 142.615 208.542 141.42C208.542 140.861 208.195 140.572 207.809 140.572C207.433 140.572 207.154 140.851 207.154 141.169ZM211.883 142.808C211.835 142.798 211.71 142.779 211.584 142.779C211.112 142.779 210.534 142.953 210.196 143.666V142.856H209.309V147.493H210.215V145.17C210.215 144.148 210.726 143.743 211.488 143.743C211.613 143.743 211.748 143.753 211.883 143.772V142.808ZM213.39 144.697C213.428 144.1 213.891 143.512 214.653 143.512C215.472 143.512 215.906 144.032 215.925 144.697H213.39ZM216.06 145.902C215.887 146.423 215.511 146.837 214.759 146.837C213.978 146.837 213.38 146.259 213.361 145.43H216.85C216.86 145.372 216.87 145.257 216.87 145.141C216.87 143.695 216.07 142.712 214.643 142.712C213.477 142.712 212.426 143.705 212.426 145.16C212.426 146.731 213.515 147.638 214.759 147.638C215.838 147.638 216.581 146.992 216.841 146.172L216.06 145.902ZM220.003 146.288C220.08 146.818 220.62 147.638 221.892 147.638C223.039 147.638 223.589 146.857 223.589 146.201C223.589 145.517 223.145 145.006 222.306 144.823L221.555 144.659C221.198 144.582 221.024 144.379 221.024 144.1C221.024 143.782 221.333 143.483 221.796 143.483C222.528 143.483 222.721 144.013 222.76 144.254L223.56 143.955C223.463 143.541 223.068 142.712 221.796 142.712C220.889 142.712 220.147 143.386 220.147 144.177C220.147 144.832 220.581 145.324 221.304 145.478L222.094 145.652C222.48 145.738 222.692 145.96 222.692 146.249C222.692 146.577 222.412 146.866 221.902 146.866C221.246 146.866 220.88 146.481 220.822 145.999L220.003 146.288ZM226.01 141.391H225.181V142.143C225.181 142.548 224.968 142.856 224.467 142.856H224.217V143.676H225.103V146.22C225.103 147.059 225.605 147.541 226.395 147.541C226.704 147.541 226.935 147.483 227.012 147.454V146.683C226.935 146.702 226.771 146.722 226.655 146.722C226.183 146.722 226.01 146.51 226.01 146.086V143.676H227.012V142.856H226.01V141.391ZM231.277 146.934C231.277 147.127 231.297 147.387 231.316 147.493H232.183C232.164 147.329 232.135 147.001 232.135 146.635V142.856H231.229V145.652C231.229 146.355 230.863 146.837 230.13 146.837C229.369 146.837 229.079 146.278 229.079 145.642V142.856H228.173V145.777C228.173 146.828 228.829 147.638 229.908 147.638C230.448 147.638 231.027 147.416 231.277 146.934ZM235.582 143.55C236.372 143.55 236.71 144.08 236.825 144.534L237.645 144.187C237.452 143.483 236.816 142.712 235.582 142.712C234.261 142.712 233.249 143.724 233.249 145.17C233.249 146.577 234.242 147.638 235.591 147.638C236.796 147.638 237.461 146.857 237.683 146.192L236.883 145.845C236.777 146.211 236.459 146.799 235.591 146.799C234.839 146.799 234.174 146.23 234.174 145.17C234.174 144.09 234.849 143.55 235.582 143.55ZM242.901 142.856H241.648L239.643 144.909V140.514H238.746V147.493H239.643V146.095L240.288 145.449L241.802 147.493H242.939L240.925 144.813L242.901 142.856ZM248.833 142.856L247.628 146.346L246.587 142.856H245.594L247.117 147.493H248.071L249.276 143.965L250.51 147.493H251.445L252.949 142.856H251.995L250.973 146.346L249.768 142.856H248.833ZM254.761 147.493V142.856H253.865V147.493H254.761ZM253.662 141.102C253.662 141.458 253.951 141.748 254.308 141.748C254.674 141.748 254.964 141.458 254.964 141.102C254.964 140.735 254.674 140.446 254.308 140.446C253.951 140.446 253.662 140.735 253.662 141.102ZM257.517 141.391H256.688V142.143C256.688 142.548 256.476 142.856 255.975 142.856H255.724V143.676H256.611V146.22C256.611 147.059 257.113 147.541 257.903 147.541C258.211 147.541 258.443 147.483 258.52 147.454V146.683C258.443 146.702 258.279 146.722 258.163 146.722C257.691 146.722 257.517 146.51 257.517 146.086V143.676H258.52V142.856H257.517V141.391ZM260.636 144.765C260.655 144.08 261.021 143.541 261.715 143.541C262.525 143.541 262.795 144.061 262.795 144.707V147.493H263.701V144.553C263.701 143.521 263.151 142.721 262.043 142.721C261.513 142.721 260.973 142.904 260.636 143.396V140.514H259.729V147.493H260.636V144.765ZM265.046 146.876C265.046 147.252 265.335 147.541 265.711 147.541C266.087 147.541 266.386 147.252 266.386 146.876C266.386 146.5 266.087 146.201 265.711 146.201C265.335 146.201 265.046 146.5 265.046 146.876Z" fill="#A0A0A0"/>
<path d="M94.6025 163.556V162.679H89.0886V163.556H91.3732V169.513H92.3179V163.556H94.6025ZM96.1763 169.513V164.876H95.2798V169.513H96.1763ZM95.0774 163.122C95.0774 163.479 95.3666 163.768 95.7233 163.768C96.0896 163.768 96.3788 163.479 96.3788 163.122C96.3788 162.756 96.0896 162.467 95.7233 162.467C95.3666 162.467 95.0774 162.756 95.0774 163.122ZM98.6145 169.513V166.718C98.6145 166.024 99.0483 165.542 99.6941 165.542C100.388 165.542 100.677 166.004 100.677 166.602V169.513H101.584V166.708C101.584 166.043 102.017 165.542 102.654 165.542C103.338 165.542 103.637 165.995 103.637 166.602V169.513H104.533V166.506C104.533 165.291 103.743 164.742 102.933 164.742C102.345 164.742 101.747 164.954 101.381 165.619C101.13 165.021 100.571 164.742 99.993 164.742C99.4531 164.742 98.8748 164.983 98.5856 165.493V164.876H97.718V169.513H98.6145ZM109.29 169.513V164.876H108.393V169.513H109.29ZM108.191 163.122C108.191 163.479 108.48 163.768 108.837 163.768C109.203 163.768 109.492 163.479 109.492 163.122C109.492 162.756 109.203 162.467 108.837 162.467C108.48 162.467 108.191 162.756 108.191 163.122ZM110.398 168.308C110.475 168.838 111.015 169.658 112.287 169.658C113.434 169.658 113.984 168.877 113.984 168.221C113.984 167.537 113.54 167.026 112.701 166.843L111.95 166.679C111.593 166.602 111.419 166.4 111.419 166.12C111.419 165.802 111.728 165.503 112.191 165.503C112.923 165.503 113.116 166.033 113.155 166.274L113.955 165.975C113.858 165.561 113.463 164.732 112.191 164.732C111.284 164.732 110.542 165.407 110.542 166.197C110.542 166.853 110.976 167.344 111.699 167.498L112.489 167.672C112.875 167.759 113.087 167.98 113.087 168.27C113.087 168.597 112.807 168.887 112.297 168.887C111.641 168.887 111.275 168.501 111.217 168.019L110.398 168.308ZM118.814 163.411H117.985V164.163C117.985 164.568 117.773 164.876 117.272 164.876H117.021V165.696H117.908V168.241C117.908 169.079 118.41 169.561 119.2 169.561C119.509 169.561 119.74 169.504 119.817 169.475V168.703C119.74 168.723 119.576 168.742 119.46 168.742C118.988 168.742 118.814 168.53 118.814 168.106V165.696H119.817V164.876H118.814V163.411ZM122.23 171.451L125.248 164.876H124.274L122.886 168.077L121.44 164.876H120.399L122.394 169.002L121.237 171.451H122.23ZM127.016 171.345V168.887C127.266 169.301 127.806 169.638 128.52 169.638C129.879 169.638 130.679 168.568 130.679 167.19C130.679 165.84 129.937 164.77 128.549 164.77C127.797 164.77 127.247 165.137 126.997 165.599V164.876H126.119V171.345H127.016ZM129.753 167.19C129.753 168.144 129.223 168.829 128.385 168.829C127.556 168.829 127.006 168.144 127.006 167.19C127.006 166.265 127.556 165.571 128.385 165.571C129.233 165.571 129.753 166.265 129.753 167.19ZM132.73 169.513V164.876H131.833V169.513H132.73ZM131.631 163.122C131.631 163.479 131.92 163.768 132.277 163.768C132.643 163.768 132.932 163.479 132.932 163.122C132.932 162.756 132.643 162.467 132.277 162.467C131.92 162.467 131.631 162.756 131.631 163.122ZM135.178 166.833C135.178 166.13 135.544 165.561 136.257 165.561C137.067 165.561 137.337 166.081 137.337 166.727V169.513H138.243V166.573C138.243 165.542 137.694 164.742 136.585 164.742C136.045 164.742 135.496 164.963 135.158 165.542V164.876H134.272V169.513H135.178V166.833ZM139.347 169.764C139.463 170.757 140.33 171.489 141.487 171.489C143.232 171.489 143.81 170.342 143.81 169.166V164.876H142.914V165.522C142.682 165.06 142.2 164.79 141.487 164.79C140.215 164.79 139.357 165.792 139.357 167.045C139.357 168.356 140.253 169.291 141.487 169.291C142.181 169.291 142.682 168.954 142.904 168.53V169.195C142.904 170.198 142.461 170.699 141.487 170.699C140.783 170.699 140.292 170.207 140.224 169.561L139.347 169.764ZM141.622 168.53C140.803 168.53 140.282 167.952 140.282 167.045C140.282 166.149 140.822 165.561 141.622 165.561C142.403 165.561 142.943 166.149 142.943 167.045C142.943 167.942 142.403 168.53 141.622 168.53ZM145.161 168.896C145.161 169.272 145.45 169.561 145.826 169.561C146.202 169.561 146.501 169.272 146.501 168.896C146.501 168.52 146.202 168.221 145.826 168.221C145.45 168.221 145.161 168.52 145.161 168.896ZM147.853 168.896C147.853 169.272 148.143 169.561 148.519 169.561C148.895 169.561 149.193 169.272 149.193 168.896C149.193 168.52 148.895 168.221 148.519 168.221C148.143 168.221 147.853 168.52 147.853 168.896ZM150.546 168.896C150.546 169.272 150.835 169.561 151.211 169.561C151.587 169.561 151.886 169.272 151.886 168.896C151.886 168.52 151.587 168.221 151.211 168.221C150.835 168.221 150.546 168.52 150.546 168.896Z" fill="#A0A0A0"/>
<g filter="url(#filter2_b_2627_69093)">
<rect x="88.9922" y="181.533" width="261.275" height="25.3764" rx="7.69231" fill="url(#paint4_linear_2627_69093)"/>
<rect x="89.473" y="182.014" width="260.313" height="24.4149" rx="7.21154" stroke="url(#paint5_linear_2627_69093)" stroke-width="0.961538"/>
</g>
<path d="M105.037 192.129C104.874 191.343 104.22 190.331 102.585 190.331C101.247 190.331 100.194 191.353 100.194 192.487C100.194 193.57 100.93 194.244 101.962 194.469L102.994 194.694C103.719 194.847 104.077 195.297 104.077 195.818C104.077 196.451 103.586 196.972 102.585 196.972C101.492 196.972 100.92 196.227 100.848 195.419L99.8878 195.726C100.021 196.758 100.848 197.882 102.595 197.882C104.138 197.882 105.099 196.86 105.099 195.736C105.099 194.725 104.424 193.969 103.219 193.703L102.136 193.468C101.523 193.335 101.206 192.937 101.206 192.416C101.206 191.741 101.788 191.21 102.606 191.21C103.617 191.21 104.056 191.925 104.138 192.446L105.037 192.129ZM106.897 194.766C106.938 194.132 107.428 193.509 108.235 193.509C109.104 193.509 109.564 194.061 109.584 194.766H106.897ZM109.727 196.043C109.543 196.594 109.145 197.034 108.348 197.034C107.52 197.034 106.887 196.421 106.866 195.542H110.565C110.575 195.481 110.585 195.358 110.585 195.236C110.585 193.703 109.737 192.661 108.225 192.661C106.989 192.661 105.875 193.713 105.875 195.256C105.875 196.921 107.03 197.882 108.348 197.882C109.492 197.882 110.279 197.197 110.555 196.329L109.727 196.043ZM112.772 194.888C112.772 194.142 113.16 193.539 113.916 193.539C114.774 193.539 115.06 194.091 115.06 194.776V197.729H116.021V194.612C116.021 193.519 115.438 192.671 114.263 192.671C113.691 192.671 113.109 192.906 112.751 193.519V192.814H111.811V197.729H112.772V194.888ZM118.121 195.256C118.121 194.244 118.693 193.529 119.571 193.529C120.45 193.529 120.981 194.224 120.981 195.236C120.981 196.247 120.44 197.013 119.561 197.013C118.642 197.013 118.121 196.267 118.121 195.256ZM120.992 197.064C120.992 197.361 121.022 197.616 121.043 197.729H121.972C121.962 197.647 121.921 197.289 121.921 196.819V190.331H120.971V193.509C120.808 193.11 120.338 192.681 119.469 192.681C118.08 192.681 117.14 193.866 117.14 195.256C117.14 196.717 118.029 197.861 119.469 197.861C120.236 197.861 120.757 197.453 120.992 196.983V197.064ZM125.803 196.41C125.803 197.187 126.446 197.882 127.448 197.882C128.326 197.882 128.817 197.412 129.031 197.064C129.031 197.422 129.062 197.606 129.082 197.729H130.022C130.002 197.606 129.961 197.35 129.961 196.921V194.459C129.961 193.499 129.389 192.661 127.918 192.661C126.855 192.661 126.007 193.315 125.905 194.255L126.824 194.469C126.886 193.897 127.264 193.478 127.938 193.478C128.684 193.478 129.001 193.877 129.001 194.357C129.001 194.531 128.919 194.684 128.623 194.725L127.294 194.919C126.446 195.041 125.803 195.532 125.803 196.41ZM127.581 197.075C127.09 197.075 126.784 196.727 126.784 196.359C126.784 195.92 127.09 195.685 127.499 195.624L129.001 195.399V195.624C129.001 196.697 128.367 197.075 127.581 197.075ZM134.962 197.729V194.766C134.962 194.03 135.422 193.519 136.106 193.519C136.842 193.519 137.148 194.009 137.148 194.643V197.729H138.109V194.755C138.109 194.05 138.569 193.519 139.243 193.519C139.968 193.519 140.285 193.999 140.285 194.643V197.729H141.235V194.541C141.235 193.253 140.397 192.671 139.539 192.671C138.916 192.671 138.282 192.896 137.894 193.601C137.629 192.967 137.036 192.671 136.423 192.671C135.851 192.671 135.238 192.926 134.931 193.468V192.814H134.012V197.729H134.962ZM143.395 194.766C143.436 194.132 143.927 193.509 144.734 193.509C145.602 193.509 146.062 194.061 146.082 194.766H143.395ZM146.225 196.043C146.042 196.594 145.643 197.034 144.846 197.034C144.019 197.034 143.385 196.421 143.365 195.542H147.063C147.074 195.481 147.084 195.358 147.084 195.236C147.084 193.703 146.236 192.661 144.724 192.661C143.487 192.661 142.374 193.713 142.374 195.256C142.374 196.921 143.528 197.882 144.846 197.882C145.99 197.882 146.777 197.197 147.053 196.329L146.225 196.043ZM147.85 196.451C147.932 197.013 148.504 197.882 149.852 197.882C151.068 197.882 151.651 197.054 151.651 196.359C151.651 195.634 151.181 195.092 150.292 194.898L149.495 194.725C149.117 194.643 148.933 194.428 148.933 194.132C148.933 193.795 149.26 193.478 149.75 193.478C150.527 193.478 150.731 194.04 150.772 194.296L151.62 193.979C151.518 193.539 151.099 192.661 149.75 192.661C148.79 192.661 148.003 193.376 148.003 194.214C148.003 194.909 148.463 195.43 149.229 195.593L150.067 195.777C150.476 195.869 150.701 196.104 150.701 196.41C150.701 196.758 150.404 197.064 149.863 197.064C149.168 197.064 148.78 196.656 148.718 196.145L147.85 196.451ZM152.47 196.451C152.551 197.013 153.124 197.882 154.472 197.882C155.688 197.882 156.27 197.054 156.27 196.359C156.27 195.634 155.8 195.092 154.912 194.898L154.115 194.725C153.737 194.643 153.553 194.428 153.553 194.132C153.553 193.795 153.88 193.478 154.37 193.478C155.147 193.478 155.351 194.04 155.392 194.296L156.24 193.979C156.138 193.539 155.719 192.661 154.37 192.661C153.41 192.661 152.623 193.376 152.623 194.214C152.623 194.909 153.083 195.43 153.849 195.593L154.687 195.777C155.095 195.869 155.32 196.104 155.32 196.41C155.32 196.758 155.024 197.064 154.482 197.064C153.788 197.064 153.399 196.656 153.338 196.145L152.47 196.451ZM157.143 196.41C157.143 197.187 157.786 197.882 158.788 197.882C159.666 197.882 160.157 197.412 160.371 197.064C160.371 197.422 160.402 197.606 160.422 197.729H161.362C161.342 197.606 161.301 197.35 161.301 196.921V194.459C161.301 193.499 160.729 192.661 159.258 192.661C158.195 192.661 157.347 193.315 157.245 194.255L158.164 194.469C158.226 193.897 158.604 193.478 159.278 193.478C160.024 193.478 160.341 193.877 160.341 194.357C160.341 194.531 160.259 194.684 159.963 194.725L158.634 194.919C157.786 195.041 157.143 195.532 157.143 196.41ZM158.921 197.075C158.43 197.075 158.124 196.727 158.124 196.359C158.124 195.92 158.43 195.685 158.839 195.624L160.341 195.399V195.624C160.341 196.697 159.707 197.075 158.921 197.075ZM162.44 197.994C162.562 199.047 163.482 199.823 164.708 199.823C166.557 199.823 167.17 198.607 167.17 197.361V192.814H166.22V193.499C165.975 193.008 165.464 192.722 164.708 192.722C163.359 192.722 162.45 193.785 162.45 195.113C162.45 196.502 163.4 197.494 164.708 197.494C165.444 197.494 165.975 197.136 166.21 196.686V197.391C166.21 198.454 165.74 198.985 164.708 198.985C163.962 198.985 163.441 198.464 163.37 197.78L162.44 197.994ZM164.851 196.686C163.983 196.686 163.431 196.073 163.431 195.113C163.431 194.163 164.003 193.539 164.851 193.539C165.679 193.539 166.251 194.163 166.251 195.113C166.251 196.063 165.679 196.686 164.851 196.686ZM169.327 194.766C169.368 194.132 169.859 193.509 170.666 193.509C171.534 193.509 171.994 194.061 172.015 194.766H169.327ZM172.158 196.043C171.974 196.594 171.575 197.034 170.778 197.034C169.951 197.034 169.317 196.421 169.297 195.542H172.995C173.006 195.481 173.016 195.358 173.016 195.236C173.016 193.703 172.168 192.661 170.656 192.661C169.419 192.661 168.306 193.713 168.306 195.256C168.306 196.921 169.46 197.882 170.778 197.882C171.923 197.882 172.709 197.197 172.985 196.329L172.158 196.043Z" fill="#A0A0A0"/>
<rect x="0.546387" y="0.164062" width="332" height="260" fill="url(#paint6_radial_2627_69093)"/>
</g>
<defs>
<filter id="filter0_f_2627_69093" x="-178.133" y="-244.515" width="932.36" height="651.36" filterUnits="userSpaceOnUse" color-interpolation-filters="sRGB">
<feFlood flood-opacity="0" result="BackgroundImageFix"/>
<feBlend mode="normal" in="SourceGraphic" in2="BackgroundImageFix" result="shape"/>
<feGaussianBlur stdDeviation="119.84" result="effect1_foregroundBlur_2627_69093"/>
</filter>
<filter id="filter1_b_2627_69093" x="53.5464" y="10.9595" width="359" height="268.205" filterUnits="userSpaceOnUse" color-interpolation-filters="sRGB">
<feFlood flood-opacity="0" result="BackgroundImageFix"/>
<feGaussianBlur in="BackgroundImageFix" stdDeviation="7.5"/>
<feComposite in2="SourceAlpha" operator="in" result="effect1_backgroundBlur_2627_69093"/>
<feBlend mode="normal" in="SourceGraphic" in2="effect1_backgroundBlur_2627_69093" result="shape"/>
</filter>
<filter id="filter2_b_2627_69093" x="74.5691" y="167.11" width="290.121" height="54.2226" filterUnits="userSpaceOnUse" color-interpolation-filters="sRGB">
<feFlood flood-opacity="0" result="BackgroundImageFix"/>
<feGaussianBlur in="BackgroundImageFix" stdDeviation="7.21154"/>
<feComposite in2="SourceAlpha" operator="in" result="effect1_backgroundBlur_2627_69093"/>
<feBlend mode="normal" in="SourceGraphic" in2="effect1_backgroundBlur_2627_69093" result="shape"/>
</filter>
<linearGradient id="paint0_linear_2627_69093" x1="346.797" y1="25.9595" x2="95.3962" y2="276.75" gradientUnits="userSpaceOnUse">
<stop stopColor="white" stop-opacity="0.87"/>
<stop offset="1" stop-color="white" stop-opacity="0"/>
</linearGradient>
<linearGradient id="paint1_linear_2627_69093" x1="203.619" y1="20.9957" x2="309.027" y2="224.883" gradientUnits="userSpaceOnUse">
<stop stopColor="#CACECE"/>
<stop offset="1" stop-color="#DEDEDE" stop-opacity="0"/>
</linearGradient>
<linearGradient id="paint2_linear_2627_69093" x1="100.727" y1="70.1377" x2="119.839" y2="56.1704" gradientUnits="userSpaceOnUse">
<stop/>
<stop offset="1" stop-color="#82978D"/>
</linearGradient>
<linearGradient id="paint3_linear_2627_69093" x1="100.727" y1="121.335" x2="119.839" y2="107.368" gradientUnits="userSpaceOnUse">
<stop stopColor="white"/>
<stop offset="1" stop-color="#82978D"/>
</linearGradient>
<linearGradient id="paint4_linear_2627_69093" x1="175.342" y1="181.533" x2="350.267" y2="238.49" gradientUnits="userSpaceOnUse">
<stop stopColor="#CDCDCD" stop-opacity="0.26"/>
<stop offset="1" stop-color="white" stop-opacity="0"/>
</linearGradient>
<linearGradient id="paint5_linear_2627_69093" x1="196.26" y1="181.004" x2="198.16" y2="208.398" gradientUnits="userSpaceOnUse">
<stop stopColor="#868686" stop-opacity="0.37"/>
<stop offset="1" stop-color="#3E3E3E" stop-opacity="0"/>
</linearGradient>
<radialGradient id="paint6_radial_2627_69093" cx="0" cy="0" r="1" gradientUnits="userSpaceOnUse" gradientTransform="translate(163.551 19.1641) rotate(90) scale(225 376.615)">
<stop offset="0.629777" stop-color="white" stop-opacity="0"/>
<stop offset="1" stop-color="white"/>
</radialGradient>
<clipPath id="clip0_2627_69093">
<rect width="332" height="260" fill="white" transform="translate(0.546387 0.164062)"/>
</clipPath>
</defs>
</svg>
