<svg width="333" height="261" viewBox="0 0 333 261" fill="none" xmlns="http://www.w3.org/2000/svg">
<g clip-path="url(#clip0_2610_74376)">
<rect width="332" height="260" transform="translate(0.394531 0.335449)" fill="#232323"/>
<rect width="33.1893" height="33.3142" transform="matrix(1 -8.77517e-08 -8.70951e-08 -1 129.5 292.483)" stroke="#396764" stroke-opacity="0.1" stroke-width="0.386912"/>
<rect width="33.1893" height="33.3142" transform="matrix(1 -8.77517e-08 -8.70951e-08 -1 -3.29541 292.483)" stroke="#396764" stroke-opacity="0.1" stroke-width="0.386912"/>
<rect width="33.1893" height="33.3142" transform="matrix(1 -8.77517e-08 -8.70951e-08 -1 162.688 292.483)" stroke="#396764" stroke-opacity="0.1" stroke-width="0.386912"/>
<rect width="33.1893" height="33.3142" transform="matrix(1 -8.77517e-08 -8.70951e-08 -1 29.8965 292.483)" stroke="#396764" stroke-opacity="0.1" stroke-width="0.386912"/>
<rect width="33.1893" height="33.3142" transform="matrix(1 -8.77517e-08 -8.70951e-08 -1 195.877 292.483)" stroke="#396764" stroke-opacity="0.1" stroke-width="0.386912"/>
<rect width="33.1893" height="33.3142" transform="matrix(1 -8.77517e-08 -8.70951e-08 -1 63.0854 292.483)" stroke="#396764" stroke-opacity="0.1" stroke-width="0.386912"/>
<rect width="33.1893" height="33.3142" transform="matrix(1 -8.77517e-08 -8.70951e-08 -1 229.069 292.483)" stroke="#396764" stroke-opacity="0.1" stroke-width="0.386912"/>
<rect width="33.1893" height="33.3142" transform="matrix(1 -8.77517e-08 -8.70951e-08 -1 96.2778 292.483)" stroke="#396764" stroke-opacity="0.1" stroke-width="0.386912"/>
<rect width="33.1893" height="33.3142" transform="matrix(1 -8.77517e-08 -8.70951e-08 -1 129.5 259.167)" stroke="#396764" stroke-opacity="0.1" stroke-width="0.386912"/>
<rect width="33.1893" height="33.3142" transform="matrix(1 -8.77517e-08 -8.70951e-08 -1 295.443 259.167)" stroke="#396764" stroke-opacity="0.1" stroke-width="0.386912"/>
<rect width="33.1893" height="33.3142" transform="matrix(1 -8.77517e-08 -8.70951e-08 -1 129.5 225.855)" stroke="#396764" stroke-opacity="0.1" stroke-width="0.386912"/>
<rect width="33.1893" height="33.3142" transform="matrix(1 -8.77517e-08 -8.70951e-08 -1 295.443 225.855)" stroke="#396764" stroke-opacity="0.1" stroke-width="0.386912"/>
<rect width="33.1893" height="33.3142" transform="matrix(1 -8.77517e-08 -8.70951e-08 -1 -3.29541 259.167)" stroke="#396764" stroke-opacity="0.1" stroke-width="0.386912"/>
<rect width="33.1893" height="33.3142" transform="matrix(1 -8.77517e-08 -8.70951e-08 -1 162.688 259.167)" stroke="#396764" stroke-opacity="0.1" stroke-width="0.386912"/>
<rect width="33.1893" height="33.3142" transform="matrix(1 -8.77517e-08 -8.70951e-08 -1 328.635 259.167)" stroke="#396764" stroke-opacity="0.1" stroke-width="0.386912"/>
<rect width="33.1893" height="33.3142" transform="matrix(1 -8.77517e-08 -8.70951e-08 -1 -3.29541 225.855)" stroke="#396764" stroke-opacity="0.1" stroke-width="0.386912"/>
<rect width="33.1893" height="33.3142" transform="matrix(1 -8.77517e-08 -8.70951e-08 -1 162.688 225.855)" stroke="#396764" stroke-opacity="0.1" stroke-width="0.386912"/>
<rect width="33.1893" height="33.3142" transform="matrix(1 -8.77517e-08 -8.70951e-08 -1 328.635 225.855)" stroke="#396764" stroke-opacity="0.1" stroke-width="0.386912"/>
<rect width="33.1893" height="33.3142" transform="matrix(1 -8.77517e-08 -8.70951e-08 -1 29.8965 259.167)" stroke="#396764" stroke-opacity="0.1" stroke-width="0.386912"/>
<rect width="33.1893" height="33.3142" transform="matrix(1 -8.77517e-08 -8.70951e-08 -1 195.877 259.167)" stroke="#396764" stroke-opacity="0.1" stroke-width="0.386912"/>
<rect width="33.1893" height="33.3142" transform="matrix(1 -8.77517e-08 -8.70951e-08 -1 29.8965 225.855)" stroke="#396764" stroke-opacity="0.1" stroke-width="0.386912"/>
<rect width="33.1893" height="33.3142" transform="matrix(1 -8.77517e-08 -8.70951e-08 -1 195.877 225.855)" stroke="#396764" stroke-opacity="0.1" stroke-width="0.386912"/>
<rect width="33.1893" height="33.3142" transform="matrix(1 -8.77517e-08 -8.70951e-08 -1 63.0854 259.167)" stroke="#396764" stroke-opacity="0.1" stroke-width="0.386912"/>
<rect width="33.1893" height="33.3142" transform="matrix(1 -8.77517e-08 -8.70951e-08 -1 63.0854 225.855)" stroke="#396764" stroke-opacity="0.1" stroke-width="0.386912"/>
<rect width="33.1893" height="33.3142" transform="matrix(1 -8.77517e-08 -8.70951e-08 -1 229.069 225.855)" stroke="#396764" stroke-opacity="0.1" stroke-width="0.386912"/>
<rect width="33.1893" height="33.3142" transform="matrix(1 -8.77517e-08 -8.70951e-08 -1 96.2778 259.167)" stroke="#396764" stroke-opacity="0.1" stroke-width="0.386912"/>
<rect width="33.1893" height="33.3142" transform="matrix(1 -8.77517e-08 -8.70951e-08 -1 262.261 259.167)" stroke="#396764" stroke-opacity="0.1" stroke-width="0.386912"/>
<rect width="33.1893" height="33.3142" transform="matrix(1 -8.77517e-08 -8.70951e-08 -1 96.2778 225.855)" stroke="#396764" stroke-opacity="0.1" stroke-width="0.386912"/>
<rect width="33.1893" height="33.3142" transform="matrix(1 -8.77517e-08 -8.70951e-08 -1 262.261 225.855)" stroke="#396764" stroke-opacity="0.1" stroke-width="0.386912"/>
<rect width="33.1893" height="33.3142" transform="matrix(1 -8.77517e-08 -8.70951e-08 -1 129.5 192.54)" stroke="#396764" stroke-opacity="0.1" stroke-width="0.386912"/>
<rect width="33.1893" height="33.3142" transform="matrix(1 -8.77517e-08 -8.70951e-08 -1 295.443 192.54)" stroke="#396764" stroke-opacity="0.1" stroke-width="0.386912"/>
<rect width="33.1893" height="33.3142" transform="matrix(1 -8.77517e-08 -8.70951e-08 -1 129.5 159.225)" stroke="#396764" stroke-opacity="0.1" stroke-width="0.386912"/>
<rect width="33.1893" height="33.3142" transform="matrix(1 -8.77517e-08 -8.70951e-08 -1 -3.29541 192.54)" stroke="#396764" stroke-opacity="0.1" stroke-width="0.386912"/>
<rect width="33.1893" height="33.3142" transform="matrix(1 -8.77517e-08 -8.70951e-08 -1 162.688 192.54)" stroke="#396764" stroke-opacity="0.1" stroke-width="0.386912"/>
<rect width="33.1893" height="33.3142" transform="matrix(1 -8.77517e-08 -8.70951e-08 -1 328.635 192.54)" stroke="#396764" stroke-opacity="0.1" stroke-width="0.386912"/>
<rect width="33.1893" height="33.3142" transform="matrix(1 -8.77517e-08 -8.70951e-08 -1 -3.29541 159.225)" stroke="#396764" stroke-opacity="0.1" stroke-width="0.386912"/>
<rect width="33.1893" height="33.3142" transform="matrix(1 -8.77517e-08 -8.70951e-08 -1 162.688 159.225)" stroke="#396764" stroke-opacity="0.1" stroke-width="0.386912"/>
<rect width="33.1893" height="33.3142" transform="matrix(1 -8.77517e-08 -8.70951e-08 -1 29.8965 192.54)" stroke="#396764" stroke-opacity="0.1" stroke-width="0.386912"/>
<rect width="33.1893" height="33.3142" transform="matrix(1 -8.77517e-08 -8.70951e-08 -1 195.877 192.54)" stroke="#396764" stroke-opacity="0.1" stroke-width="0.386912"/>
<rect width="33.1893" height="33.3142" transform="matrix(1 -8.77517e-08 -8.70951e-08 -1 29.8965 159.225)" stroke="#396764" stroke-opacity="0.1" stroke-width="0.386912"/>
<rect width="33.1893" height="33.3142" transform="matrix(1 -8.77517e-08 -8.70951e-08 -1 195.877 159.225)" stroke="#396764" stroke-opacity="0.1" stroke-width="0.386912"/>
<rect width="33.1893" height="33.3142" transform="matrix(1 -8.77517e-08 -8.70951e-08 -1 229.069 192.54)" stroke="#396764" stroke-opacity="0.1" stroke-width="0.386912"/>
<rect width="33.1893" height="33.3142" transform="matrix(1 -8.77517e-08 -8.70951e-08 -1 63.0854 159.225)" stroke="#396764" stroke-opacity="0.1" stroke-width="0.386912"/>
<rect width="33.1893" height="33.3142" transform="matrix(1 -8.77517e-08 -8.70951e-08 -1 229.069 159.225)" stroke="#396764" stroke-opacity="0.1" stroke-width="0.386912"/>
<rect width="33.1893" height="33.3142" transform="matrix(1 -8.77517e-08 -8.70951e-08 -1 96.2778 192.54)" stroke="#396764" stroke-opacity="0.1" stroke-width="0.386912"/>
<rect width="33.1893" height="33.3142" transform="matrix(1 -8.77517e-08 -8.70951e-08 -1 262.261 192.54)" stroke="#396764" stroke-opacity="0.1" stroke-width="0.386912"/>
<rect width="33.1893" height="33.3142" transform="matrix(1 -8.77517e-08 -8.70951e-08 -1 96.2778 159.225)" stroke="#396764" stroke-opacity="0.1" stroke-width="0.386912"/>
<rect width="33.1893" height="33.3142" transform="matrix(1 -8.77517e-08 -8.70951e-08 -1 -3.29541 125.911)" stroke="#396764" stroke-opacity="0.1" stroke-width="0.386912"/>
<rect width="33.1893" height="33.3142" transform="matrix(1 -8.77517e-08 -8.70951e-08 -1 162.688 125.911)" stroke="#396764" stroke-opacity="0.1" stroke-width="0.386912"/>
<rect width="33.1893" height="33.3142" transform="matrix(1 -8.77517e-08 -8.70951e-08 -1 -3.29541 92.5984)" stroke="#396764" stroke-opacity="0.1" stroke-width="0.386912"/>
<rect width="33.1893" height="33.3142" transform="matrix(1 -8.77517e-08 -8.70951e-08 -1 29.8965 125.911)" stroke="#396764" stroke-opacity="0.1" stroke-width="0.386912"/>
<rect width="33.1893" height="33.3142" transform="matrix(1 -8.77517e-08 -8.70951e-08 -1 195.877 92.5986)" stroke="#396764" stroke-opacity="0.1" stroke-width="0.386912"/>
<rect width="33.1893" height="33.3142" transform="matrix(1 -8.77517e-08 -8.70951e-08 -1 63.0854 125.911)" stroke="#396764" stroke-opacity="0.1" stroke-width="0.386912"/>
<rect width="33.1893" height="33.3142" transform="matrix(1 -8.77517e-08 -8.70951e-08 -1 229.069 125.911)" stroke="#396764" stroke-opacity="0.1" stroke-width="0.386912"/>
<rect width="33.1893" height="33.3142" transform="matrix(1 -8.77517e-08 -8.70951e-08 -1 63.0854 92.5984)" stroke="#396764" stroke-opacity="0.1" stroke-width="0.386912"/>
<rect width="33.1893" height="33.3142" transform="matrix(1 -8.77517e-08 -8.70951e-08 -1 229.069 92.5986)" stroke="#396764" stroke-opacity="0.1" stroke-width="0.386912"/>
<rect width="33.1893" height="33.3142" transform="matrix(1 -8.77517e-08 -8.70951e-08 -1 262.261 92.5984)" stroke="#396764" stroke-opacity="0.1" stroke-width="0.386912"/>
<rect width="33.1893" height="33.3142" transform="matrix(1 -8.77517e-08 -8.70951e-08 -1 295.443 59.2832)" stroke="#396764" stroke-opacity="0.1" stroke-width="0.386912"/>
<rect width="33.1893" height="33.3142" transform="matrix(1 -8.77517e-08 -8.70951e-08 -1 295.443 25.9695)" stroke="#396764" stroke-opacity="0.1" stroke-width="0.386912"/>
<rect width="33.1893" height="33.3142" transform="matrix(1 -8.77517e-08 -8.70951e-08 -1 -3.29541 59.2832)" stroke="#396764" stroke-opacity="0.1" stroke-width="0.386912"/>
<rect width="33.1893" height="33.3142" transform="matrix(1 -8.77517e-08 -8.70951e-08 -1 328.635 59.2832)" stroke="#396764" stroke-opacity="0.1" stroke-width="0.386912"/>
<rect width="33.1893" height="33.3142" transform="matrix(1 -8.77517e-08 -8.70951e-08 -1 -3.29541 25.9695)" stroke="#396764" stroke-opacity="0.1" stroke-width="0.386912"/>
<rect width="33.1893" height="33.3142" transform="matrix(1 -8.77517e-08 -8.70951e-08 -1 328.635 25.9695)" stroke="#396764" stroke-opacity="0.1" stroke-width="0.386912"/>
<rect width="33.1893" height="33.3142" transform="matrix(1 -8.77517e-08 -8.70951e-08 -1 29.8965 59.2832)" stroke="#396764" stroke-opacity="0.1" stroke-width="0.386912"/>
<rect width="33.1893" height="33.3142" transform="matrix(1 -8.77517e-08 -8.70951e-08 -1 29.8965 25.9695)" stroke="#396764" stroke-opacity="0.1" stroke-width="0.386912"/>
<rect width="33.1893" height="33.3142" transform="matrix(1 -8.77517e-08 -8.70951e-08 -1 63.0854 59.2832)" stroke="#396764" stroke-opacity="0.1" stroke-width="0.386912"/>
<rect width="33.1893" height="33.3142" transform="matrix(1 -8.77517e-08 -8.70951e-08 -1 229.069 59.2832)" stroke="#396764" stroke-opacity="0.1" stroke-width="0.386912"/>
<rect width="33.1893" height="33.3142" transform="matrix(1 -8.77517e-08 -8.70951e-08 -1 63.0854 25.9695)" stroke="#396764" stroke-opacity="0.1" stroke-width="0.386912"/>
<rect width="33.1893" height="33.3142" transform="matrix(1 -8.77517e-08 -8.70951e-08 -1 262.261 25.9695)" stroke="#396764" stroke-opacity="0.1" stroke-width="0.386912"/>
<rect width="33.1893" height="33.3142" transform="matrix(1 -8.77517e-08 -8.70951e-08 -1 63.0864 192.541)" stroke="#346458" stroke-opacity="0.3" stroke-width="0.898712"/>
<rect width="33.1893" height="33.3142" transform="matrix(1 -8.77517e-08 -8.70951e-08 -1 96.2788 92.5999)" stroke="#346458" stroke-opacity="0.3" stroke-width="0.898712"/>
<rect width="33.1893" height="33.3142" transform="matrix(1 -8.77517e-08 -8.70951e-08 -1 229.07 25.9709)" stroke="#346458" stroke-opacity="0.3" stroke-width="0.898712"/>
<rect width="33.1893" height="33.3142" transform="matrix(1 -8.77517e-08 -8.70951e-08 -1 262.262 159.226)" stroke="#346458" stroke-opacity="0.3" stroke-width="0.898712"/>
<rect width="33.1893" height="33.3142" transform="matrix(1 -8.77517e-08 -8.70951e-08 -1 195.879 125.912)" stroke="#346458" stroke-opacity="0.3" stroke-width="0.898712"/>
<rect width="33.1893" height="33.3142" transform="matrix(1 -8.77517e-08 -8.70951e-08 -1 229.07 259.169)" stroke="#346458" stroke-opacity="0.3" stroke-width="0.898712"/>
<rect width="33.1893" height="33.3142" transform="matrix(1 -8.77517e-08 -8.70951e-08 -1 262.262 59.2847)" stroke="#346458" stroke-opacity="0.3" stroke-width="0.898712"/>
<g filter="url(#filter0_f_2610_74376)">
<path d="M387.395 210.335L-22.6055 210.335L117.837 121.335L238.486 121.335L387.395 210.335Z" fill="#0B554C" fill-opacity="0.6"/>
</g>
<g filter="url(#filter1_b_2610_74376)">
<rect x="19.395" y="77.3354" width="293" height="42" rx="21" fill="url(#paint0_linear_2610_74376)"/>
<path fill-rule="evenodd" clip-rule="evenodd" d="M46.6571 95.4559H49.697V93.8942C49.697 93.0547 49.0165 92.3742 48.1771 92.3742C47.3376 92.3742 46.6571 93.0547 46.6571 93.8942V95.4559ZM45.0984 95.4559H43.9538C43.0929 95.4559 42.3951 96.1537 42.3951 97.0146V104.297C42.3951 105.158 43.0929 105.855 43.9538 105.855H52.3998C53.2606 105.855 53.9585 105.158 53.9585 104.297V97.0146C53.9585 96.1537 53.2606 95.4559 52.3998 95.4559H51.2557V93.8942C51.2557 92.1939 49.8774 90.8155 48.1771 90.8155C46.4768 90.8155 45.0984 92.1939 45.0984 93.8942V95.4559Z" fill="#707070"/>
<path d="M72.0465 99.4394C72.0705 98.5874 72.5265 97.9154 73.3905 97.9154C74.3985 97.9154 74.7345 98.5634 74.7345 99.3674V102.835H75.8625V99.1754C75.8625 97.8914 75.1785 96.8954 73.7985 96.8954C73.1385 96.8954 72.4665 97.1234 72.0465 97.7354V94.1474H70.9185V102.835H72.0465V99.4394ZM79.1688 95.2394H78.1368V96.1754C78.1368 96.6794 77.8728 97.0634 77.2488 97.0634H76.9368V98.0834H78.0408V101.251C78.0408 102.295 78.6648 102.895 79.6488 102.895C80.0328 102.895 80.3208 102.823 80.4168 102.787V101.827C80.3208 101.851 80.1168 101.875 79.9728 101.875C79.3848 101.875 79.1688 101.611 79.1688 101.083V98.0834H80.4168V97.0634H79.1688V95.2394ZM83.4344 95.2394H82.4024V96.1754C82.4024 96.6794 82.1384 97.0634 81.5144 97.0634H81.2024V98.0834H82.3064V101.251C82.3064 102.295 82.9304 102.895 83.9144 102.895C84.2984 102.895 84.5864 102.823 84.6824 102.787V101.827C84.5864 101.851 84.3824 101.875 84.2384 101.875C83.6504 101.875 83.4344 101.611 83.4344 101.083V98.0834H84.6824V97.0634H83.4344V95.2394ZM87.1868 105.115V102.055C87.4988 102.571 88.1708 102.991 89.0588 102.991C90.7508 102.991 91.7468 101.659 91.7468 99.9434C91.7468 98.2634 90.8228 96.9314 89.0948 96.9314C88.1588 96.9314 87.4748 97.3874 87.1628 97.9634V97.0634H86.0708V105.115H87.1868ZM90.5948 99.9434C90.5948 101.131 89.9348 101.983 88.8908 101.983C87.8588 101.983 87.1748 101.131 87.1748 99.9434C87.1748 98.7914 87.8588 97.9274 88.8908 97.9274C89.9468 97.9274 90.5948 98.7914 90.5948 99.9434ZM92.6441 101.335C92.7401 101.995 93.4121 103.015 94.9961 103.015C96.4241 103.015 97.1081 102.043 97.1081 101.227C97.1081 100.375 96.5561 99.7394 95.5121 99.5114L94.5761 99.3074C94.1321 99.2114 93.9161 98.9594 93.9161 98.6114C93.9161 98.2154 94.3001 97.8434 94.8761 97.8434C95.7881 97.8434 96.0281 98.5034 96.0761 98.8034L97.0721 98.4314C96.9521 97.9154 96.4601 96.8834 94.8761 96.8834C93.7481 96.8834 92.8241 97.7234 92.8241 98.7074C92.8241 99.5234 93.3641 100.135 94.2641 100.327L95.2481 100.543C95.7281 100.651 95.9921 100.927 95.9921 101.287C95.9921 101.695 95.6441 102.055 95.0081 102.055C94.1921 102.055 93.7361 101.575 93.6641 100.975L92.6441 101.335ZM98.5619 102.067C98.5619 102.535 98.9219 102.895 99.3899 102.895C99.8579 102.895 100.23 102.535 100.23 102.067C100.23 101.599 99.8579 101.227 99.3899 101.227C98.9219 101.227 98.5619 101.599 98.5619 102.067ZM98.5499 97.8434C98.5499 98.3114 98.9099 98.6714 99.3779 98.6714C99.8459 98.6714 100.218 98.3114 100.218 97.8434C100.218 97.3754 99.8459 97.0034 99.3779 97.0034C98.9099 97.0034 98.5499 97.3754 98.5499 97.8434ZM106.338 94.3274H105.246L101.13 102.835H102.222L106.338 94.3274ZM109.866 94.3274H108.774L104.658 102.835H105.75L109.866 94.3274ZM109.32 101.335C109.416 101.995 110.088 103.015 111.672 103.015C113.1 103.015 113.784 102.043 113.784 101.227C113.784 100.375 113.232 99.7394 112.188 99.5114L111.252 99.3074C110.808 99.2114 110.592 98.9594 110.592 98.6114C110.592 98.2154 110.976 97.8434 111.552 97.8434C112.464 97.8434 112.704 98.5034 112.752 98.8034L113.748 98.4314C113.628 97.9154 113.136 96.8834 111.552 96.8834C110.424 96.8834 109.5 97.7234 109.5 98.7074C109.5 99.5234 110.04 100.135 110.94 100.327L111.924 100.543C112.404 100.651 112.668 100.927 112.668 101.287C112.668 101.695 112.32 102.055 111.684 102.055C110.868 102.055 110.412 101.575 110.34 100.975L109.32 101.335ZM120.399 105.115V97.0634H119.307V97.9514C119.067 97.4354 118.455 96.9194 117.459 96.9194C115.767 96.9194 114.747 98.2994 114.747 99.9314C114.747 101.611 115.827 102.991 117.483 102.991C118.335 102.991 118.983 102.607 119.283 102.019V105.115H120.399ZM115.899 99.9314C115.899 98.7434 116.547 97.9154 117.591 97.9154C118.611 97.9154 119.295 98.7434 119.295 99.9314C119.295 101.119 118.611 101.995 117.591 101.995C116.559 101.995 115.899 101.119 115.899 99.9314ZM127.144 97.0634H125.932L124.276 101.515L122.632 97.0634H121.36L123.7 102.835H124.84L127.144 97.0634ZM131.303 98.0834V97.0634H129.911V96.1514C129.911 95.3594 130.427 95.1674 130.823 95.1674C131.111 95.1674 131.255 95.2154 131.315 95.2394V94.2314C131.267 94.1954 131.027 94.1114 130.643 94.1114C129.599 94.1114 128.747 94.8074 128.747 96.0914V97.0634H127.679V98.0834H128.747V102.835H129.911V98.0834H131.303ZM132.95 99.9314C132.95 98.7434 133.622 97.9034 134.654 97.9034C135.686 97.9034 136.31 98.7194 136.31 99.9074C136.31 101.095 135.674 101.995 134.642 101.995C133.562 101.995 132.95 101.119 132.95 99.9314ZM136.322 102.055C136.322 102.403 136.358 102.703 136.382 102.835H137.474C137.462 102.739 137.414 102.319 137.414 101.767V94.1474H136.298V97.8794C136.106 97.4114 135.554 96.9074 134.534 96.9074C132.902 96.9074 131.798 98.2994 131.798 99.9314C131.798 101.647 132.842 102.991 134.534 102.991C135.434 102.991 136.046 102.511 136.322 101.959V102.055ZM140.461 99.4994C140.461 98.6234 140.917 97.9154 141.805 97.9154C142.813 97.9154 143.149 98.5634 143.149 99.3674V102.835H144.277V99.1754C144.277 97.8914 143.593 96.8954 142.213 96.8954C141.541 96.8954 140.857 97.1714 140.437 97.8914V97.0634H139.333V102.835H140.461V99.4994ZM151.243 97.0634H149.683L147.187 99.6194V94.1474H146.071V102.835H147.187V101.095L147.991 100.291L149.875 102.835H151.291L148.783 99.4994L151.243 97.0634ZM152.803 99.3554C152.851 98.6114 153.427 97.8794 154.375 97.8794C155.395 97.8794 155.935 98.5274 155.959 99.3554H152.803ZM156.127 100.855C155.911 101.503 155.443 102.019 154.507 102.019C153.535 102.019 152.791 101.299 152.767 100.267H157.111C157.123 100.195 157.135 100.051 157.135 99.9074C157.135 98.1074 156.139 96.8834 154.363 96.8834C152.911 96.8834 151.603 98.1194 151.603 99.9314C151.603 101.887 152.959 103.015 154.507 103.015C155.851 103.015 156.775 102.211 157.099 101.191L156.127 100.855ZM159.691 102.835V97.0634H158.575V102.835H159.691ZM158.323 94.8794C158.323 95.3234 158.683 95.6834 159.127 95.6834C159.583 95.6834 159.943 95.3234 159.943 94.8794C159.943 94.4234 159.583 94.0634 159.127 94.0634C158.683 94.0634 158.323 94.4234 158.323 94.8794ZM165.414 102.139C165.414 102.379 165.438 102.703 165.462 102.835H166.542C166.518 102.631 166.482 102.223 166.482 101.767V97.0634H165.354V100.543C165.354 101.419 164.898 102.019 163.986 102.019C163.038 102.019 162.678 101.323 162.678 100.531V97.0634H161.55V100.699C161.55 102.007 162.366 103.015 163.71 103.015C164.382 103.015 165.102 102.739 165.414 102.139ZM172.559 102.835V101.815H169.331L172.499 98.0474V97.0634H167.975V98.0834H171.095L167.927 101.851V102.835H172.559ZM175.509 95.2394H174.477V96.1754C174.477 96.6794 174.213 97.0634 173.589 97.0634H173.277V98.0834H174.381V101.251C174.381 102.295 175.005 102.895 175.989 102.895C176.373 102.895 176.661 102.823 176.757 102.787V101.827C176.661 101.851 176.457 101.875 176.313 101.875C175.725 101.875 175.509 101.611 175.509 101.083V98.0834H176.757V97.0634H175.509V95.2394ZM179.273 99.4994C179.273 98.6234 179.729 97.9154 180.617 97.9154C181.625 97.9154 181.961 98.5634 181.961 99.3674V102.835H183.089V99.1754C183.089 97.8914 182.405 96.8954 181.025 96.8954C180.353 96.8954 179.669 97.1714 179.249 97.8914V97.0634H178.145V102.835H179.273V99.4994ZM184.343 101.335C184.439 101.995 185.111 103.015 186.695 103.015C188.123 103.015 188.807 102.043 188.807 101.227C188.807 100.375 188.255 99.7394 187.211 99.5114L186.275 99.3074C185.831 99.2114 185.615 98.9594 185.615 98.6114C185.615 98.2154 185.999 97.8434 186.575 97.8434C187.487 97.8434 187.727 98.5034 187.775 98.8034L188.771 98.4314C188.651 97.9154 188.159 96.8834 186.575 96.8834C185.447 96.8834 184.523 97.7234 184.523 98.7074C184.523 99.5234 185.063 100.135 185.963 100.327L186.947 100.543C187.427 100.651 187.691 100.927 187.691 101.287C187.691 101.695 187.343 102.055 186.707 102.055C185.891 102.055 185.435 101.575 185.363 100.975L184.343 101.335ZM191.425 102.835V97.0634H190.309V102.835H191.425ZM190.057 94.8794C190.057 95.3234 190.417 95.6834 190.861 95.6834C191.317 95.6834 191.677 95.3234 191.677 94.8794C191.677 94.4234 191.317 94.0634 190.861 94.0634C190.417 94.0634 190.057 94.4234 190.057 94.8794ZM194.472 99.4994C194.472 98.6234 194.928 97.9154 195.816 97.9154C196.824 97.9154 197.16 98.5634 197.16 99.3674V102.835H198.288V99.1754C198.288 97.8914 197.604 96.8954 196.224 96.8954C195.552 96.8954 194.868 97.1714 194.448 97.8914V97.0634H193.344V102.835H194.472V99.4994ZM201.199 102.835V99.3554C201.199 98.4914 201.739 97.8914 202.543 97.8914C203.407 97.8914 203.767 98.4674 203.767 99.2114V102.835H204.895V99.3434C204.895 98.5154 205.435 97.8914 206.227 97.8914C207.079 97.8914 207.451 98.4554 207.451 99.2114V102.835H208.567V99.0914C208.567 97.5794 207.583 96.8954 206.575 96.8954C205.843 96.8954 205.099 97.1594 204.643 97.9874C204.331 97.2434 203.635 96.8954 202.915 96.8954C202.243 96.8954 201.523 97.1954 201.163 97.8314V97.0634H200.083V102.835H201.199ZM211.884 95.2394H210.852V96.1754C210.852 96.6794 210.588 97.0634 209.964 97.0634H209.652V98.0834H210.756V101.251C210.756 102.295 211.38 102.895 212.364 102.895C212.748 102.895 213.036 102.823 213.132 102.787V101.827C213.036 101.851 212.832 101.875 212.688 101.875C212.1 101.875 211.884 101.611 211.884 101.083V98.0834H213.132V97.0634H211.884V95.2394ZM214.277 101.287C214.277 102.199 215.033 103.015 216.209 103.015C217.241 103.015 217.817 102.463 218.069 102.055C218.069 102.475 218.105 102.691 218.129 102.835H219.233C219.209 102.691 219.161 102.391 219.161 101.887V98.9954C219.161 97.8674 218.489 96.8834 216.761 96.8834C215.513 96.8834 214.517 97.6514 214.397 98.7554L215.477 99.0074C215.549 98.3354 215.993 97.8434 216.785 97.8434C217.661 97.8434 218.033 98.3114 218.033 98.8754C218.033 99.0794 217.937 99.2594 217.589 99.3074L216.029 99.5354C215.033 99.6794 214.277 100.255 214.277 101.287ZM216.365 102.067C215.789 102.067 215.429 101.659 215.429 101.227C215.429 100.711 215.789 100.435 216.269 100.363L218.033 100.099V100.363C218.033 101.623 217.289 102.067 216.365 102.067ZM224.605 102.139C224.605 102.379 224.629 102.703 224.653 102.835H225.733C225.709 102.631 225.673 102.223 225.673 101.767V97.0634H224.545V100.543C224.545 101.419 224.089 102.019 223.177 102.019C222.229 102.019 221.869 101.323 221.869 100.531V97.0634H220.741V100.699C220.741 102.007 221.557 103.015 222.901 103.015C223.573 103.015 224.293 102.739 224.605 102.139ZM227.478 102.067C227.478 102.535 227.838 102.895 228.306 102.895C228.774 102.895 229.146 102.535 229.146 102.067C229.146 101.599 228.774 101.227 228.306 101.227C227.838 101.227 227.478 101.599 227.478 102.067ZM230.41 101.335C230.506 101.995 231.178 103.015 232.762 103.015C234.19 103.015 234.874 102.043 234.874 101.227C234.874 100.375 234.322 99.7394 233.278 99.5114L232.342 99.3074C231.898 99.2114 231.682 98.9594 231.682 98.6114C231.682 98.2154 232.066 97.8434 232.642 97.8434C233.554 97.8434 233.794 98.5034 233.842 98.8034L234.838 98.4314C234.718 97.9154 234.226 96.8834 232.642 96.8834C231.514 96.8834 230.59 97.7234 230.59 98.7074C230.59 99.5234 231.13 100.135 232.03 100.327L233.014 100.543C233.494 100.651 233.758 100.927 233.758 101.287C233.758 101.695 233.41 102.055 232.774 102.055C231.958 102.055 231.502 101.575 231.43 100.975L230.41 101.335ZM240.121 102.139C240.121 102.379 240.145 102.703 240.169 102.835H241.249C241.225 102.631 241.189 102.223 241.189 101.767V97.0634H240.061V100.543C240.061 101.419 239.605 102.019 238.693 102.019C237.745 102.019 237.385 101.323 237.385 100.531V97.0634H236.257V100.699C236.257 102.007 237.073 103.015 238.417 103.015C239.089 103.015 239.809 102.739 240.121 102.139ZM244.23 105.115V102.055C244.542 102.571 245.214 102.991 246.102 102.991C247.794 102.991 248.79 101.659 248.79 99.9434C248.79 98.2634 247.866 96.9314 246.138 96.9314C245.202 96.9314 244.518 97.3874 244.206 97.9634V97.0634H243.114V105.115H244.23ZM247.638 99.9434C247.638 101.131 246.978 101.983 245.934 101.983C244.902 101.983 244.218 101.131 244.218 99.9434C244.218 98.7914 244.902 97.9274 245.934 97.9274C246.99 97.9274 247.638 98.7914 247.638 99.9434ZM249.867 101.287C249.867 102.199 250.623 103.015 251.799 103.015C252.831 103.015 253.407 102.463 253.659 102.055C253.659 102.475 253.695 102.691 253.719 102.835H254.823C254.799 102.691 254.751 102.391 254.751 101.887V98.9954C254.751 97.8674 254.079 96.8834 252.351 96.8834C251.103 96.8834 250.107 97.6514 249.987 98.7554L251.067 99.0074C251.139 98.3354 251.583 97.8434 252.375 97.8434C253.251 97.8434 253.623 98.3114 253.623 98.8754C253.623 99.0794 253.527 99.2594 253.179 99.3074L251.619 99.5354C250.623 99.6794 249.867 100.255 249.867 101.287ZM251.955 102.067C251.379 102.067 251.019 101.659 251.019 101.227C251.019 100.711 251.379 100.435 251.859 100.363L253.623 100.099V100.363C253.623 101.623 252.879 102.067 251.955 102.067ZM257.624 102.835V101.995C257.984 102.619 258.644 102.991 259.496 102.991C261.212 102.991 262.184 101.635 262.184 99.9194C262.184 98.2394 261.284 96.8954 259.532 96.8954C258.572 96.8954 257.9 97.3634 257.624 97.8794V94.1474H256.508V102.835H257.624ZM261.032 99.9194C261.032 101.167 260.36 101.983 259.328 101.983C258.332 101.983 257.612 101.167 257.612 99.9194C257.612 98.6714 258.332 97.8914 259.328 97.8914C260.372 97.8914 261.032 98.6714 261.032 99.9194ZM263.262 101.287C263.262 102.199 264.018 103.015 265.194 103.015C266.226 103.015 266.802 102.463 267.054 102.055C267.054 102.475 267.09 102.691 267.114 102.835H268.218C268.194 102.691 268.146 102.391 268.146 101.887V98.9954C268.146 97.8674 267.474 96.8834 265.746 96.8834C264.498 96.8834 263.502 97.6514 263.382 98.7554L264.462 99.0074C264.534 98.3354 264.978 97.8434 265.77 97.8434C266.646 97.8434 267.018 98.3114 267.018 98.8754C267.018 99.0794 266.922 99.2594 266.574 99.3074L265.014 99.5354C264.018 99.6794 263.262 100.255 263.262 101.287ZM265.35 102.067C264.774 102.067 264.414 101.659 264.414 101.227C264.414 100.711 264.774 100.435 265.254 100.363L267.018 100.099V100.363C267.018 101.623 266.274 102.067 265.35 102.067ZM269.363 101.335C269.459 101.995 270.131 103.015 271.715 103.015C273.143 103.015 273.827 102.043 273.827 101.227C273.827 100.375 273.275 99.7394 272.231 99.5114L271.295 99.3074C270.851 99.2114 270.635 98.9594 270.635 98.6114C270.635 98.2154 271.019 97.8434 271.595 97.8434C272.507 97.8434 272.747 98.5034 272.795 98.8034L273.791 98.4314C273.671 97.9154 273.179 96.8834 271.595 96.8834C270.467 96.8834 269.543 97.7234 269.543 98.7074C269.543 99.5234 270.083 100.135 270.983 100.327L271.967 100.543C272.447 100.651 272.711 100.927 272.711 101.287C272.711 101.695 272.363 102.055 271.727 102.055C270.911 102.055 270.455 101.575 270.383 100.975L269.363 101.335ZM276.002 99.3554C276.05 98.6114 276.626 97.8794 277.574 97.8794C278.594 97.8794 279.134 98.5274 279.158 99.3554H276.002ZM279.326 100.855C279.11 101.503 278.642 102.019 277.706 102.019C276.734 102.019 275.99 101.299 275.966 100.267H280.31C280.322 100.195 280.334 100.051 280.334 99.9074C280.334 98.1074 279.338 96.8834 277.562 96.8834C276.11 96.8834 274.802 98.1194 274.802 99.9314C274.802 101.887 276.158 103.015 277.706 103.015C279.05 103.015 279.974 102.211 280.298 101.191L279.326 100.855ZM281.478 102.067C281.478 102.535 281.838 102.895 282.306 102.895C282.774 102.895 283.146 102.535 283.146 102.067C283.146 101.599 282.774 101.227 282.306 101.227C281.838 101.227 281.478 101.599 281.478 102.067ZM287.198 97.9274C288.182 97.9274 288.602 98.5874 288.746 99.1514L289.766 98.7194C289.526 97.8434 288.734 96.8834 287.198 96.8834C285.554 96.8834 284.294 98.1434 284.294 99.9434C284.294 101.695 285.53 103.015 287.21 103.015C288.71 103.015 289.538 102.043 289.814 101.215L288.818 100.783C288.686 101.239 288.29 101.971 287.21 101.971C286.274 101.971 285.446 101.263 285.446 99.9434C285.446 98.5994 286.286 97.9274 287.198 97.9274ZM293.551 102.007C292.591 102.007 291.751 101.287 291.751 99.9434C291.751 98.6114 292.591 97.8914 293.551 97.8914C294.511 97.8914 295.351 98.6114 295.351 99.9434C295.351 101.287 294.511 102.007 293.551 102.007ZM293.551 96.8834C291.823 96.8834 290.599 98.1914 290.599 99.9434C290.599 101.707 291.823 103.015 293.551 103.015C295.279 103.015 296.503 101.707 296.503 99.9434C296.503 98.1914 295.279 96.8834 293.551 96.8834Z" fill="#707070"/>
<rect x="19.895" y="77.8354" width="292" height="41" rx="20.5" stroke="url(#paint1_linear_2610_74376)"/>
</g>
<rect x="0.39502" y="0.335449" width="332" height="260" fill="url(#paint2_radial_2610_74376)"/>
<g filter="url(#filter2_b_2610_74376)">
<rect x="66.395" y="131.335" width="196" height="41" rx="20.5" fill="url(#paint3_linear_2610_74376)"/>
<path fill-rule="evenodd" clip-rule="evenodd" d="M92.2779 149.01H95.2608V147.477C95.2608 146.654 94.5931 145.986 93.7693 145.986C92.9456 145.986 92.2779 146.654 92.2779 147.477V149.01ZM90.7484 149.01H89.6251C88.7804 149.01 88.0956 149.695 88.0956 150.539V157.685C88.0956 158.529 88.7804 159.214 89.6251 159.214H97.9128C98.7575 159.214 99.4423 158.529 99.4423 157.685V150.539C99.4423 149.695 98.7575 149.01 97.9128 149.01H96.7903V147.477C96.7903 145.809 95.4378 144.457 93.7693 144.457C92.1009 144.457 90.7484 145.809 90.7484 147.477V149.01Z" fill="url(#paint4_linear_2610_74376)"/>
<path d="M117.53 152.939C117.554 152.087 118.01 151.415 118.874 151.415C119.882 151.415 120.218 152.063 120.218 152.867V156.335H121.346V152.675C121.346 151.391 120.662 150.395 119.282 150.395C118.622 150.395 117.95 150.623 117.53 151.235V147.647H116.402V156.335H117.53V152.939ZM124.653 148.739H123.621V149.675C123.621 150.179 123.357 150.563 122.733 150.563H122.421V151.583H123.525V154.751C123.525 155.795 124.149 156.395 125.133 156.395C125.517 156.395 125.805 156.323 125.901 156.287V155.327C125.805 155.351 125.601 155.375 125.457 155.375C124.869 155.375 124.653 155.111 124.653 154.583V151.583H125.901V150.563H124.653V148.739ZM128.918 148.739H127.886V149.675C127.886 150.179 127.622 150.563 126.998 150.563H126.686V151.583H127.79V154.751C127.79 155.795 128.414 156.395 129.398 156.395C129.782 156.395 130.07 156.323 130.166 156.287V155.327C130.07 155.351 129.866 155.375 129.722 155.375C129.134 155.375 128.918 155.111 128.918 154.583V151.583H130.166V150.563H128.918V148.739ZM132.671 158.615V155.555C132.983 156.071 133.655 156.491 134.543 156.491C136.235 156.491 137.231 155.159 137.231 153.443C137.231 151.763 136.307 150.431 134.579 150.431C133.643 150.431 132.959 150.887 132.647 151.463V150.563H131.555V158.615H132.671ZM136.079 153.443C136.079 154.631 135.419 155.483 134.375 155.483C133.343 155.483 132.659 154.631 132.659 153.443C132.659 152.291 133.343 151.427 134.375 151.427C135.431 151.427 136.079 152.291 136.079 153.443ZM138.128 154.835C138.224 155.495 138.896 156.515 140.48 156.515C141.908 156.515 142.592 155.543 142.592 154.727C142.592 153.875 142.04 153.239 140.996 153.011L140.06 152.807C139.616 152.711 139.4 152.459 139.4 152.111C139.4 151.715 139.784 151.343 140.36 151.343C141.272 151.343 141.512 152.003 141.56 152.303L142.556 151.931C142.436 151.415 141.944 150.383 140.36 150.383C139.232 150.383 138.308 151.223 138.308 152.207C138.308 153.023 138.848 153.635 139.748 153.827L140.732 154.043C141.212 154.151 141.476 154.427 141.476 154.787C141.476 155.195 141.128 155.555 140.492 155.555C139.676 155.555 139.22 155.075 139.148 154.475L138.128 154.835ZM144.046 155.567C144.046 156.035 144.406 156.395 144.874 156.395C145.342 156.395 145.714 156.035 145.714 155.567C145.714 155.099 145.342 154.727 144.874 154.727C144.406 154.727 144.046 155.099 144.046 155.567ZM144.034 151.343C144.034 151.811 144.394 152.171 144.862 152.171C145.33 152.171 145.702 151.811 145.702 151.343C145.702 150.875 145.33 150.503 144.862 150.503C144.394 150.503 144.034 150.875 144.034 151.343ZM151.822 147.827H150.73L146.614 156.335H147.706L151.822 147.827ZM155.35 147.827H154.258L150.142 156.335H151.234L155.35 147.827ZM154.562 154.787C154.562 155.699 155.318 156.515 156.494 156.515C157.526 156.515 158.102 155.963 158.354 155.555C158.354 155.975 158.39 156.191 158.414 156.335H159.518C159.494 156.191 159.446 155.891 159.446 155.387V152.495C159.446 151.367 158.774 150.383 157.046 150.383C155.798 150.383 154.802 151.151 154.682 152.255L155.762 152.507C155.834 151.835 156.278 151.343 157.07 151.343C157.946 151.343 158.318 151.811 158.318 152.375C158.318 152.579 158.222 152.759 157.874 152.807L156.314 153.035C155.318 153.179 154.562 153.755 154.562 154.787ZM156.65 155.567C156.074 155.567 155.714 155.159 155.714 154.727C155.714 154.211 156.074 153.935 156.554 153.863L158.318 153.599V153.863C158.318 155.123 157.574 155.567 156.65 155.567ZM162.319 158.615V155.555C162.631 156.071 163.303 156.491 164.191 156.491C165.883 156.491 166.879 155.159 166.879 153.443C166.879 151.763 165.955 150.431 164.227 150.431C163.291 150.431 162.607 150.887 162.295 151.463V150.563H161.203V158.615H162.319ZM165.727 153.443C165.727 154.631 165.067 155.483 164.023 155.483C162.991 155.483 162.307 154.631 162.307 153.443C162.307 152.291 162.991 151.427 164.023 151.427C165.079 151.427 165.727 152.291 165.727 153.443ZM169.432 156.335V150.563H168.316V156.335H169.432ZM168.064 148.379C168.064 148.823 168.424 149.183 168.868 149.183C169.324 149.183 169.684 148.823 169.684 148.379C169.684 147.923 169.324 147.563 168.868 147.563C168.424 147.563 168.064 147.923 168.064 148.379ZM171.232 155.567C171.232 156.035 171.592 156.395 172.06 156.395C172.528 156.395 172.9 156.035 172.9 155.567C172.9 155.099 172.528 154.727 172.06 154.727C171.592 154.727 171.232 155.099 171.232 155.567ZM175.259 152.855C175.307 152.111 175.883 151.379 176.831 151.379C177.851 151.379 178.391 152.027 178.415 152.855H175.259ZM178.583 154.355C178.367 155.003 177.899 155.519 176.963 155.519C175.991 155.519 175.247 154.799 175.223 153.767H179.567C179.579 153.695 179.591 153.551 179.591 153.407C179.591 151.607 178.595 150.383 176.819 150.383C175.367 150.383 174.059 151.619 174.059 153.431C174.059 155.387 175.415 156.515 176.963 156.515C178.307 156.515 179.231 155.711 179.555 154.691L178.583 154.355ZM180.133 156.335H181.477L182.941 154.211L184.429 156.335H185.785C185.437 155.867 184.009 153.863 183.661 153.395L185.713 150.563H184.381L182.989 152.591L181.573 150.563H180.205L182.281 153.395L180.133 156.335ZM186.507 154.787C186.507 155.699 187.263 156.515 188.439 156.515C189.471 156.515 190.047 155.963 190.299 155.555C190.299 155.975 190.335 156.191 190.359 156.335H191.463C191.439 156.191 191.391 155.891 191.391 155.387V152.495C191.391 151.367 190.719 150.383 188.991 150.383C187.743 150.383 186.747 151.151 186.627 152.255L187.707 152.507C187.779 151.835 188.223 151.343 189.015 151.343C189.891 151.343 190.263 151.811 190.263 152.375C190.263 152.579 190.167 152.759 189.819 152.807L188.259 153.035C187.263 153.179 186.507 153.755 186.507 154.787ZM188.595 155.567C188.019 155.567 187.659 155.159 187.659 154.727C187.659 154.211 188.019 153.935 188.499 153.863L190.263 153.599V153.863C190.263 155.123 189.519 155.567 188.595 155.567ZM194.264 156.335V152.855C194.264 151.991 194.804 151.391 195.608 151.391C196.472 151.391 196.832 151.967 196.832 152.711V156.335H197.96V152.843C197.96 152.015 198.5 151.391 199.292 151.391C200.144 151.391 200.516 151.955 200.516 152.711V156.335H201.632V152.591C201.632 151.079 200.648 150.395 199.64 150.395C198.908 150.395 198.164 150.659 197.708 151.487C197.396 150.743 196.7 150.395 195.98 150.395C195.308 150.395 194.588 150.695 194.228 151.331V150.563H193.148V156.335H194.264ZM204.554 158.615V155.555C204.866 156.071 205.538 156.491 206.426 156.491C208.118 156.491 209.114 155.159 209.114 153.443C209.114 151.763 208.19 150.431 206.462 150.431C205.526 150.431 204.842 150.887 204.53 151.463V150.563H203.438V158.615H204.554ZM207.962 153.443C207.962 154.631 207.302 155.483 206.258 155.483C205.226 155.483 204.542 154.631 204.542 153.443C204.542 152.291 205.226 151.427 206.258 151.427C207.314 151.427 207.962 152.291 207.962 153.443ZM211.679 156.335V147.647H210.551V156.335H211.679ZM214.33 152.855C214.378 152.111 214.954 151.379 215.902 151.379C216.922 151.379 217.462 152.027 217.486 152.855H214.33ZM217.654 154.355C217.438 155.003 216.97 155.519 216.034 155.519C215.062 155.519 214.318 154.799 214.294 153.767H218.638C218.65 153.695 218.662 153.551 218.662 153.407C218.662 151.607 217.666 150.383 215.89 150.383C214.438 150.383 213.13 151.619 213.13 153.431C213.13 155.387 214.486 156.515 216.034 156.515C217.378 156.515 218.302 155.711 218.626 154.691L217.654 154.355ZM219.806 155.567C219.806 156.035 220.166 156.395 220.634 156.395C221.102 156.395 221.474 156.035 221.474 155.567C221.474 155.099 221.102 154.727 220.634 154.727C220.166 154.727 219.806 155.099 219.806 155.567ZM225.526 151.427C226.51 151.427 226.93 152.087 227.074 152.651L228.094 152.219C227.854 151.343 227.062 150.383 225.526 150.383C223.882 150.383 222.622 151.643 222.622 153.443C222.622 155.195 223.858 156.515 225.538 156.515C227.038 156.515 227.866 155.543 228.142 154.715L227.146 154.283C227.014 154.739 226.618 155.471 225.538 155.471C224.602 155.471 223.774 154.763 223.774 153.443C223.774 152.099 224.614 151.427 225.526 151.427ZM231.878 155.507C230.918 155.507 230.078 154.787 230.078 153.443C230.078 152.111 230.918 151.391 231.878 151.391C232.838 151.391 233.678 152.111 233.678 153.443C233.678 154.787 232.838 155.507 231.878 155.507ZM231.878 150.383C230.15 150.383 228.926 151.691 228.926 153.443C228.926 155.207 230.15 156.515 231.878 156.515C233.606 156.515 234.83 155.207 234.83 153.443C234.83 151.691 233.606 150.383 231.878 150.383ZM237.389 156.335V152.855C237.389 151.991 237.929 151.391 238.733 151.391C239.597 151.391 239.957 151.967 239.957 152.711V156.335H241.085V152.843C241.085 152.015 241.625 151.391 242.417 151.391C243.269 151.391 243.641 151.955 243.641 152.711V156.335H244.757V152.591C244.757 151.079 243.773 150.395 242.765 150.395C242.033 150.395 241.289 150.659 240.833 151.487C240.521 150.743 239.825 150.395 239.105 150.395C238.433 150.395 237.713 150.695 237.353 151.331V150.563H236.273V156.335H237.389Z" fill="#ECEDEE"/>
<rect x="66.895" y="131.835" width="195" height="40" rx="20" stroke="url(#paint5_linear_2610_74376)"/>
</g>
<rect x="62.6294" y="128.401" width="203.017" height="47.4471" rx="23.7235" stroke="url(#paint6_linear_2610_74376)" stroke-width="2"/>
<rect x="57.5688" y="123.478" width="213.138" height="57.2937" rx="28.6469" stroke="url(#paint7_linear_2610_74376)"/>
<rect x="53.1592" y="119.335" width="221.958" height="65.5791" rx="32.7895" stroke="url(#paint8_linear_2610_74376)"/>
</g>
<defs>
<filter id="filter0_f_2610_74376" x="-142.285" y="1.6552" width="649.36" height="328.36" filterUnits="userSpaceOnUse" color-interpolation-filters="sRGB">
<feFlood flood-opacity="0" result="BackgroundImageFix"/>
<feBlend mode="normal" in="SourceGraphic" in2="BackgroundImageFix" result="shape"/>
<feGaussianBlur stdDeviation="59.84" result="effect1_foregroundBlur_2610_74376"/>
</filter>
<filter id="filter1_b_2610_74376" x="4.39502" y="62.3354" width="323" height="72" filterUnits="userSpaceOnUse" color-interpolation-filters="sRGB">
<feFlood flood-opacity="0" result="BackgroundImageFix"/>
<feGaussianBlur in="BackgroundImageFix" stdDeviation="7.5"/>
<feComposite in2="SourceAlpha" operator="in" result="effect1_backgroundBlur_2610_74376"/>
<feBlend mode="normal" in="SourceGraphic" in2="effect1_backgroundBlur_2610_74376" result="shape"/>
</filter>
<filter id="filter2_b_2610_74376" x="51.395" y="116.335" width="226" height="71" filterUnits="userSpaceOnUse" color-interpolation-filters="sRGB">
<feFlood flood-opacity="0" result="BackgroundImageFix"/>
<feGaussianBlur in="BackgroundImageFix" stdDeviation="7.5"/>
<feComposite in2="SourceAlpha" operator="in" result="effect1_backgroundBlur_2610_74376"/>
<feBlend mode="normal" in="SourceGraphic" in2="effect1_backgroundBlur_2610_74376" result="shape"/>
</filter>
<linearGradient id="paint0_linear_2610_74376" x1="142.907" y1="-23.1646" x2="189.836" y2="166.14" gradientUnits="userSpaceOnUse">
<stop stop-color="#929292" stop-opacity="0.26"/>
<stop offset="1" stop-color="#1C1C1C" stop-opacity="0"/>
<stop offset="1" stop-color="#121B1A"/>
</linearGradient>
<linearGradient id="paint1_linear_2610_74376" x1="139.688" y1="76.4602" x2="144.303" y2="121.546" gradientUnits="userSpaceOnUse">
<stop stop-color="#3E3E3E"/>
<stop offset="1" stop-color="#3E3E3E" stop-opacity="0"/>
</linearGradient>
<radialGradient id="paint2_radial_2610_74376" cx="0" cy="0" r="1" gradientUnits="userSpaceOnUse" gradientTransform="translate(163.4 54.8354) rotate(90) scale(167.5 223.248)">
<stop offset="0.489583" stop-color="#242424" stop-opacity="0"/>
<stop offset="1" stop-color="#232323"/>
</radialGradient>
<linearGradient id="paint3_linear_2610_74376" x1="164.395" y1="131.335" x2="164.395" y2="172.335" gradientUnits="userSpaceOnUse">
<stop stop-color="#929292" stop-opacity="0.26"/>
<stop offset="1" stop-color="#1C1C1C" stop-opacity="0"/>
</linearGradient>
<linearGradient id="paint4_linear_2610_74376" x1="88.0957" y1="159.214" x2="102.358" y2="148.249" gradientUnits="userSpaceOnUse">
<stop stop-color="white"/>
<stop offset="1" stop-color="#82978D"/>
</linearGradient>
<linearGradient id="paint5_linear_2610_74376" x1="146.864" y1="130.481" x2="153.362" y2="173.983" gradientUnits="userSpaceOnUse">
<stop stop-color="#3E3E3E"/>
<stop offset="1" stop-color="#3E3E3E" stop-opacity="0"/>
</linearGradient>
<linearGradient id="paint6_linear_2610_74376" x1="164.138" y1="128.401" x2="164.138" y2="175.848" gradientUnits="userSpaceOnUse">
<stop stop-color="#3ECF8E" stop-opacity="0.83"/>
<stop offset="1" stop-color="#2A3635" stop-opacity="0"/>
</linearGradient>
<linearGradient id="paint7_linear_2610_74376" x1="164.138" y1="123.478" x2="164.138" y2="180.772" gradientUnits="userSpaceOnUse">
<stop stop-color="#465F5C"/>
<stop offset="1" stop-color="#2A3635" stop-opacity="0"/>
</linearGradient>
<linearGradient id="paint8_linear_2610_74376" x1="164.138" y1="119.335" x2="164.138" y2="184.915" gradientUnits="userSpaceOnUse">
<stop stop-color="#465F5C"/>
<stop offset="1" stop-color="#2A3635" stop-opacity="0"/>
</linearGradient>
<clipPath id="clip0_2610_74376">
<rect width="332" height="260" fill="white" transform="translate(0.394531 0.335449)"/>
</clipPath>
</defs>
</svg>
