<svg width="333" height="261" viewBox="0 0 333 261" fill="none" xmlns="http://www.w3.org/2000/svg">
<g clip-path="url(#clip0_2610_74779)">
<rect width="332" height="260" transform="translate(0.394531 0.335449)" fill="#232323"/>
<g filter="url(#filter0_f_2610_74779)">
<path d="M473.395 199.336L20.3945 199.336L175.566 27.3357L308.869 27.3357L473.395 199.336Z" fill="#0B554C" fill-opacity="0.4"/>
</g>
<g filter="url(#filter1_b_2610_74779)">
<rect x="-211.605" y="46.3354" width="278.212" height="201.955" rx="8" fill="url(#paint0_linear_2610_74779)"/>
<rect x="-211.105" y="46.8354" width="277.212" height="200.955" rx="7.5" stroke="url(#paint1_linear_2610_74779)"/>
</g>
<g filter="url(#filter2_b_2610_74779)">
<rect x="-201.684" y="52.5588" width="278.212" height="201.955" rx="8" fill="url(#paint2_linear_2610_74779)"/>
<rect x="-201.184" y="53.0588" width="277.212" height="200.955" rx="7.5" stroke="url(#paint3_linear_2610_74779)"/>
</g>
<g filter="url(#filter3_b_2610_74779)">
<rect x="-158.605" y="58.3354" width="243.017" height="186.872" rx="8" fill="url(#paint4_linear_2610_74779)"/>
<rect x="-158.105" y="58.8354" width="242.017" height="185.872" rx="7.5" stroke="url(#paint5_linear_2610_74779)"/>
</g>
<g filter="url(#filter4_b_2610_74779)">
<rect x="-185.605" y="65.3354" width="278.212" height="201.955" rx="8" fill="url(#paint6_linear_2610_74779)"/>
<rect x="-185.105" y="65.8354" width="277.212" height="200.955" rx="7.5" stroke="url(#paint7_linear_2610_74779)"/>
</g>
<g filter="url(#filter5_b_2610_74779)">
<rect x="-98.9741" y="71.5813" width="216.201" height="147.486" rx="8" fill="url(#paint8_linear_2610_74779)"/>
<rect x="-98.4741" y="72.0813" width="215.201" height="146.486" rx="7.5" stroke="url(#paint9_linear_2610_74779)"/>
</g>
<g filter="url(#filter6_b_2610_74779)">
<rect x="-154.605" y="89.3354" width="278" height="214" rx="8" fill="url(#paint10_linear_2610_74779)"/>
<rect x="-154.105" y="89.8354" width="277" height="213" rx="7.5" stroke="url(#paint11_linear_2610_74779)"/>
</g>
<g filter="url(#filter7_b_2610_74779)">
<rect x="-188.605" y="97.3354" width="319" height="231" rx="8" fill="url(#paint12_linear_2610_74779)"/>
<rect x="-188.105" y="97.8354" width="318" height="230" rx="7.5" stroke="url(#paint13_linear_2610_74779)"/>
</g>
<g filter="url(#filter8_b_2610_74779)">
<path d="M142.395 80.3354C142.395 75.9172 145.976 72.3354 150.395 72.3354H613.208C617.626 72.3354 621.208 75.9172 621.208 80.3354V275.335C621.208 279.754 617.626 283.335 613.208 283.335H150.395C145.976 283.335 142.395 279.754 142.395 275.335V80.3354Z" fill="url(#paint14_linear_2610_74779)"/>
<path d="M142.895 80.3354C142.895 76.1933 146.252 72.8354 150.395 72.8354H613.208C617.35 72.8354 620.708 76.1933 620.708 80.3354V275.335C620.708 279.478 617.35 282.835 613.208 282.835H150.395C146.252 282.835 142.895 279.478 142.895 275.335V80.3354Z" stroke="url(#paint15_linear_2610_74779)"/>
</g>
<path d="M164.651 102.291V95.8714H166.415C167.987 95.8714 169.283 96.9514 169.283 99.0994C169.283 101.235 167.963 102.291 166.391 102.291H164.651ZM166.427 103.335C168.587 103.335 170.495 101.883 170.495 99.0994C170.495 96.3034 168.611 94.8274 166.451 94.8274H163.475V103.335H166.427ZM171.631 101.787C171.631 102.699 172.387 103.515 173.563 103.515C174.595 103.515 175.171 102.963 175.423 102.555C175.423 102.975 175.459 103.191 175.483 103.335H176.587C176.563 103.191 176.515 102.891 176.515 102.387V99.4954C176.515 98.3674 175.843 97.3834 174.115 97.3834C172.867 97.3834 171.871 98.1514 171.751 99.2554L172.831 99.5074C172.903 98.8354 173.347 98.3434 174.139 98.3434C175.015 98.3434 175.387 98.8114 175.387 99.3754C175.387 99.5794 175.291 99.7594 174.943 99.8074L173.383 100.035C172.387 100.179 171.631 100.755 171.631 101.787ZM173.719 102.567C173.143 102.567 172.783 102.159 172.783 101.727C172.783 101.211 173.143 100.935 173.623 100.863L175.387 100.599V100.863C175.387 102.123 174.643 102.567 173.719 102.567ZM179.785 95.7394H178.753V96.6754C178.753 97.1794 178.489 97.5634 177.865 97.5634H177.553V98.5834H178.657V101.751C178.657 102.795 179.281 103.395 180.265 103.395C180.649 103.395 180.937 103.323 181.033 103.287V102.327C180.937 102.351 180.733 102.375 180.589 102.375C180.001 102.375 179.785 102.111 179.785 101.583V98.5834H181.033V97.5634H179.785V95.7394ZM182.178 101.787C182.178 102.699 182.934 103.515 184.11 103.515C185.142 103.515 185.718 102.963 185.97 102.555C185.97 102.975 186.006 103.191 186.03 103.335H187.134C187.11 103.191 187.062 102.891 187.062 102.387V99.4954C187.062 98.3674 186.39 97.3834 184.662 97.3834C183.414 97.3834 182.418 98.1514 182.298 99.2554L183.378 99.5074C183.45 98.8354 183.894 98.3434 184.686 98.3434C185.562 98.3434 185.934 98.8114 185.934 99.3754C185.934 99.5794 185.838 99.7594 185.49 99.8074L183.93 100.035C182.934 100.179 182.178 100.755 182.178 101.787ZM184.266 102.567C183.69 102.567 183.33 102.159 183.33 101.727C183.33 101.211 183.69 100.935 184.17 100.863L185.934 100.599V100.863C185.934 102.123 185.19 102.567 184.266 102.567ZM189.935 103.335V102.495C190.295 103.119 190.955 103.491 191.807 103.491C193.523 103.491 194.495 102.135 194.495 100.419C194.495 98.7394 193.595 97.3954 191.843 97.3954C190.883 97.3954 190.211 97.8634 189.935 98.3794V94.6474H188.819V103.335H189.935ZM193.343 100.419C193.343 101.667 192.671 102.483 191.639 102.483C190.643 102.483 189.923 101.667 189.923 100.419C189.923 99.1714 190.643 98.3914 191.639 98.3914C192.683 98.3914 193.343 99.1714 193.343 100.419ZM195.573 101.787C195.573 102.699 196.329 103.515 197.505 103.515C198.537 103.515 199.113 102.963 199.365 102.555C199.365 102.975 199.401 103.191 199.425 103.335H200.529C200.505 103.191 200.457 102.891 200.457 102.387V99.4954C200.457 98.3674 199.785 97.3834 198.057 97.3834C196.809 97.3834 195.813 98.1514 195.693 99.2554L196.773 99.5074C196.845 98.8354 197.289 98.3434 198.081 98.3434C198.957 98.3434 199.329 98.8114 199.329 99.3754C199.329 99.5794 199.233 99.7594 198.885 99.8074L197.325 100.035C196.329 100.179 195.573 100.755 195.573 101.787ZM197.661 102.567C197.085 102.567 196.725 102.159 196.725 101.727C196.725 101.211 197.085 100.935 197.565 100.863L199.329 100.599V100.863C199.329 102.123 198.585 102.567 197.661 102.567ZM201.674 101.835C201.77 102.495 202.442 103.515 204.026 103.515C205.454 103.515 206.138 102.543 206.138 101.727C206.138 100.875 205.586 100.239 204.542 100.011L203.606 99.8074C203.162 99.7114 202.946 99.4594 202.946 99.1114C202.946 98.7154 203.33 98.3434 203.906 98.3434C204.818 98.3434 205.058 99.0034 205.106 99.3034L206.102 98.9314C205.982 98.4154 205.49 97.3834 203.906 97.3834C202.778 97.3834 201.854 98.2234 201.854 99.2074C201.854 100.023 202.394 100.635 203.294 100.827L204.278 101.043C204.758 101.151 205.022 101.427 205.022 101.787C205.022 102.195 204.674 102.555 204.038 102.555C203.222 102.555 202.766 102.075 202.694 101.475L201.674 101.835ZM208.313 99.8554C208.361 99.1114 208.937 98.3794 209.885 98.3794C210.905 98.3794 211.445 99.0274 211.469 99.8554H208.313ZM211.637 101.355C211.421 102.003 210.953 102.519 210.017 102.519C209.045 102.519 208.301 101.799 208.277 100.767H212.621C212.633 100.695 212.645 100.551 212.645 100.407C212.645 98.6074 211.649 97.3834 209.873 97.3834C208.421 97.3834 207.113 98.6194 207.113 100.431C207.113 102.387 208.469 103.515 210.017 103.515C211.361 103.515 212.285 102.711 212.609 101.691L211.637 101.355ZM218.201 103.335V97.5634H217.085V103.335H218.201ZM216.833 95.3794C216.833 95.8234 217.193 96.1834 217.637 96.1834C218.093 96.1834 218.453 95.8234 218.453 95.3794C218.453 94.9234 218.093 94.5634 217.637 94.5634C217.193 94.5634 216.833 94.9234 216.833 95.3794ZM219.58 101.835C219.676 102.495 220.348 103.515 221.932 103.515C223.36 103.515 224.044 102.543 224.044 101.727C224.044 100.875 223.492 100.239 222.448 100.011L221.512 99.8074C221.068 99.7114 220.852 99.4594 220.852 99.1114C220.852 98.7154 221.236 98.3434 221.812 98.3434C222.724 98.3434 222.964 99.0034 223.012 99.3034L224.008 98.9314C223.888 98.4154 223.396 97.3834 221.812 97.3834C220.684 97.3834 219.76 98.2234 219.76 99.2074C219.76 100.023 220.3 100.635 221.2 100.827L222.184 101.043C222.664 101.151 222.928 101.427 222.928 101.787C222.928 102.195 222.58 102.555 221.944 102.555C221.128 102.555 220.672 102.075 220.6 101.475L219.58 101.835ZM229.662 103.335V102.495C230.022 103.119 230.682 103.491 231.534 103.491C233.25 103.491 234.222 102.135 234.222 100.419C234.222 98.7394 233.322 97.3954 231.57 97.3954C230.61 97.3954 229.938 97.8634 229.662 98.3794V94.6474H228.546V103.335H229.662ZM233.07 100.419C233.07 101.667 232.398 102.483 231.366 102.483C230.37 102.483 229.65 101.667 229.65 100.419C229.65 99.1714 230.37 98.3914 231.366 98.3914C232.41 98.3914 233.07 99.1714 233.07 100.419ZM236.391 99.8554C236.439 99.1114 237.015 98.3794 237.963 98.3794C238.983 98.3794 239.523 99.0274 239.547 99.8554H236.391ZM239.715 101.355C239.499 102.003 239.031 102.519 238.095 102.519C237.123 102.519 236.379 101.799 236.355 100.767H240.699C240.711 100.695 240.723 100.551 240.723 100.407C240.723 98.6074 239.727 97.3834 237.951 97.3834C236.499 97.3834 235.191 98.6194 235.191 100.431C235.191 102.387 236.547 103.515 238.095 103.515C239.439 103.515 240.363 102.711 240.687 101.691L239.715 101.355ZM243.279 103.335V97.5634H242.163V103.335H243.279ZM241.911 95.3794C241.911 95.8234 242.271 96.1834 242.715 96.1834C243.171 96.1834 243.531 95.8234 243.531 95.3794C243.531 94.9234 243.171 94.5634 242.715 94.5634C242.271 94.5634 241.911 94.9234 241.911 95.3794ZM246.326 99.9994C246.326 99.1234 246.782 98.4154 247.67 98.4154C248.678 98.4154 249.014 99.0634 249.014 99.8674V103.335H250.142V99.6754C250.142 98.3914 249.458 97.3954 248.078 97.3954C247.406 97.3954 246.722 97.6714 246.302 98.3914V97.5634H245.198V103.335H246.326V99.9994ZM251.517 103.647C251.661 104.883 252.741 105.795 254.181 105.795C256.353 105.795 257.073 104.367 257.073 102.903V97.5634H255.957V98.3674C255.669 97.7914 255.069 97.4554 254.181 97.4554C252.597 97.4554 251.529 98.7034 251.529 100.263C251.529 101.895 252.645 103.059 254.181 103.059C255.045 103.059 255.669 102.639 255.945 102.111V102.939C255.945 104.187 255.393 104.811 254.181 104.811C253.305 104.811 252.693 104.199 252.609 103.395L251.517 103.647ZM254.349 102.111C253.329 102.111 252.681 101.391 252.681 100.263C252.681 99.1474 253.353 98.4154 254.349 98.4154C255.321 98.4154 255.993 99.1474 255.993 100.263C255.993 101.379 255.321 102.111 254.349 102.111ZM265.078 97.5034C265.018 97.4914 264.862 97.4674 264.706 97.4674C264.118 97.4674 263.398 97.6834 262.978 98.5714V97.5634H261.874V103.335H263.002V100.443C263.002 99.1714 263.638 98.6674 264.586 98.6674C264.742 98.6674 264.91 98.6794 265.078 98.7034V97.5034ZM266.954 99.8554C267.002 99.1114 267.578 98.3794 268.526 98.3794C269.546 98.3794 270.086 99.0274 270.11 99.8554H266.954ZM270.278 101.355C270.062 102.003 269.594 102.519 268.658 102.519C267.686 102.519 266.942 101.799 266.918 100.767H271.262C271.274 100.695 271.286 100.551 271.286 100.407C271.286 98.6074 270.29 97.3834 268.514 97.3834C267.062 97.3834 265.754 98.6194 265.754 100.431C265.754 102.387 267.11 103.515 268.658 103.515C270.002 103.515 270.926 102.711 271.25 101.691L270.278 101.355ZM275.15 98.4274C276.134 98.4274 276.554 99.0874 276.698 99.6514L277.718 99.2194C277.478 98.3434 276.686 97.3834 275.15 97.3834C273.506 97.3834 272.246 98.6434 272.246 100.443C272.246 102.195 273.482 103.515 275.162 103.515C276.662 103.515 277.49 102.543 277.766 101.715L276.77 101.283C276.638 101.739 276.242 102.471 275.162 102.471C274.226 102.471 273.398 101.763 273.398 100.443C273.398 99.0994 274.238 98.4274 275.15 98.4274ZM281.502 102.507C280.542 102.507 279.702 101.787 279.702 100.443C279.702 99.1114 280.542 98.3914 281.502 98.3914C282.462 98.3914 283.302 99.1114 283.302 100.443C283.302 101.787 282.462 102.507 281.502 102.507ZM281.502 97.3834C279.774 97.3834 278.55 98.6914 278.55 100.443C278.55 102.207 279.774 103.515 281.502 103.515C283.23 103.515 284.454 102.207 284.454 100.443C284.454 98.6914 283.23 97.3834 281.502 97.3834ZM290.666 97.5634H289.454L287.798 102.015L286.154 97.5634H284.882L287.222 103.335H288.362L290.666 97.5634ZM292.301 99.8554C292.349 99.1114 292.925 98.3794 293.873 98.3794C294.893 98.3794 295.433 99.0274 295.457 99.8554H292.301ZM295.625 101.355C295.409 102.003 294.941 102.519 294.005 102.519C293.033 102.519 292.289 101.799 292.265 100.767H296.609C296.621 100.695 296.633 100.551 296.633 100.407C296.633 98.6074 295.637 97.3834 293.861 97.3834C292.409 97.3834 291.101 98.6194 291.101 100.431C291.101 102.387 292.457 103.515 294.005 103.515C295.349 103.515 296.273 102.711 296.597 101.691L295.625 101.355ZM301.277 97.5034C301.217 97.4914 301.061 97.4674 300.905 97.4674C300.317 97.4674 299.597 97.6834 299.177 98.5714V97.5634H298.073V103.335H299.201V100.443C299.201 99.1714 299.837 98.6674 300.785 98.6674C300.941 98.6674 301.109 98.6794 301.277 98.7034V97.5034ZM303.153 99.8554C303.201 99.1114 303.777 98.3794 304.725 98.3794C305.745 98.3794 306.285 99.0274 306.309 99.8554H303.153ZM306.477 101.355C306.261 102.003 305.793 102.519 304.857 102.519C303.885 102.519 303.141 101.799 303.117 100.767H307.461C307.473 100.695 307.485 100.551 307.485 100.407C307.485 98.6074 306.489 97.3834 304.713 97.3834C303.261 97.3834 301.953 98.6194 301.953 100.431C301.953 102.387 303.309 103.515 304.857 103.515C306.201 103.515 307.125 102.711 307.449 101.691L306.477 101.355ZM309.597 100.431C309.597 99.2434 310.269 98.4034 311.301 98.4034C312.333 98.4034 312.957 99.2194 312.957 100.407C312.957 101.595 312.321 102.495 311.289 102.495C310.209 102.495 309.597 101.619 309.597 100.431ZM312.969 102.555C312.969 102.903 313.005 103.203 313.029 103.335H314.121C314.109 103.239 314.061 102.819 314.061 102.267V94.6474H312.945V98.3794C312.753 97.9114 312.201 97.4074 311.181 97.4074C309.549 97.4074 308.445 98.7994 308.445 100.431C308.445 102.147 309.489 103.491 311.181 103.491C312.081 103.491 312.693 103.011 312.969 102.459V102.555Z" fill="#ECEDEE"/>
<path d="M165.977 139.471C167.448 139.471 168.459 138.613 168.802 137.413L168.017 137.124C167.755 138 167.069 138.659 165.977 138.659C164.813 138.659 163.703 137.801 163.703 136.132C163.703 134.462 164.813 133.614 165.977 133.614C167.024 133.614 167.728 134.155 167.972 135.121L168.793 134.832C168.468 133.596 167.439 132.802 165.977 132.802C164.389 132.802 162.801 133.993 162.801 136.132C162.801 138.271 164.326 139.471 165.977 139.471ZM172.569 138.812C172.569 138.993 172.587 139.236 172.605 139.335H173.418C173.399 139.182 173.372 138.875 173.372 138.532V134.995H172.524V137.612C172.524 138.271 172.181 138.722 171.495 138.722C170.782 138.722 170.512 138.198 170.512 137.603V134.995H169.663V137.729C169.663 138.713 170.277 139.471 171.288 139.471C171.793 139.471 172.335 139.263 172.569 138.812ZM177.23 134.95C177.184 134.941 177.067 134.923 176.95 134.923C176.508 134.923 175.966 135.085 175.65 135.753V134.995H174.82V139.335H175.668V137.161C175.668 136.204 176.147 135.825 176.86 135.825C176.977 135.825 177.103 135.834 177.23 135.852V134.95ZM180.543 134.95C180.498 134.941 180.381 134.923 180.263 134.923C179.821 134.923 179.28 135.085 178.964 135.753V134.995H178.134V139.335H178.982V137.161C178.982 136.204 179.46 135.825 180.173 135.825C180.29 135.825 180.417 135.834 180.543 135.852V134.95ZM181.954 136.718C181.99 136.159 182.423 135.608 183.136 135.608C183.903 135.608 184.309 136.096 184.327 136.718H181.954ZM184.453 137.846C184.291 138.334 183.939 138.722 183.235 138.722C182.504 138.722 181.945 138.18 181.927 137.404H185.193C185.202 137.35 185.212 137.242 185.212 137.133C185.212 135.78 184.462 134.859 183.127 134.859C182.035 134.859 181.051 135.789 181.051 137.152C181.051 138.623 182.071 139.471 183.235 139.471C184.246 139.471 184.941 138.866 185.184 138.099L184.453 137.846ZM187.143 136.827C187.143 136.168 187.486 135.635 188.153 135.635C188.911 135.635 189.164 136.123 189.164 136.727V139.335H190.012V136.583C190.012 135.617 189.498 134.868 188.46 134.868C187.955 134.868 187.44 135.076 187.125 135.617V134.995H186.294V139.335H187.143V136.827ZM192.499 133.623H191.723V134.327C191.723 134.706 191.524 134.995 191.055 134.995H190.82V135.762H191.651V138.144C191.651 138.929 192.12 139.381 192.86 139.381C193.149 139.381 193.365 139.326 193.437 139.299V138.577C193.365 138.595 193.212 138.613 193.103 138.613C192.661 138.613 192.499 138.415 192.499 138.018V135.762H193.437V134.995H192.499V133.623ZM195.418 139.335V132.802H194.57V139.335H195.418ZM197.944 141.149L200.769 134.995H199.857L198.558 137.991L197.204 134.995H196.229L198.097 138.857L197.014 141.149H197.944ZM204.68 139.335V134.995H203.841V139.335H204.68ZM203.651 133.352C203.651 133.686 203.922 133.957 204.256 133.957C204.599 133.957 204.87 133.686 204.87 133.352C204.87 133.009 204.599 132.739 204.256 132.739C203.922 132.739 203.651 133.009 203.651 133.352ZM206.972 136.827C206.972 136.168 207.315 135.635 207.982 135.635C208.74 135.635 208.993 136.123 208.993 136.727V139.335H209.841V136.583C209.841 135.617 209.327 134.868 208.289 134.868C207.784 134.868 207.269 135.076 206.954 135.617V134.995H206.123V139.335H206.972V136.827ZM211.696 137.152C211.696 136.258 212.201 135.626 212.978 135.626C213.754 135.626 214.223 136.24 214.223 137.133C214.223 138.027 213.745 138.704 212.969 138.704C212.156 138.704 211.696 138.045 211.696 137.152ZM214.232 138.749C214.232 139.011 214.259 139.236 214.277 139.335H215.098C215.089 139.263 215.053 138.947 215.053 138.532V132.802H214.214V135.608C214.07 135.256 213.654 134.877 212.887 134.877C211.66 134.877 210.83 135.924 210.83 137.152C210.83 138.442 211.615 139.453 212.887 139.453C213.564 139.453 214.024 139.092 214.232 138.677V138.749ZM217.047 136.718C217.083 136.159 217.516 135.608 218.229 135.608C218.996 135.608 219.402 136.096 219.42 136.718H217.047ZM219.546 137.846C219.384 138.334 219.032 138.722 218.328 138.722C217.597 138.722 217.038 138.18 217.02 137.404H220.286C220.295 137.35 220.304 137.242 220.304 137.133C220.304 135.78 219.555 134.859 218.22 134.859C217.128 134.859 216.144 135.789 216.144 137.152C216.144 138.623 217.164 139.471 218.328 139.471C219.339 139.471 220.034 138.866 220.277 138.099L219.546 137.846ZM220.711 139.335H221.722L222.823 137.738L223.942 139.335H224.962C224.7 138.983 223.626 137.476 223.365 137.124L224.908 134.995H223.906L222.859 136.52L221.794 134.995H220.766L222.327 137.124L220.711 139.335ZM226.615 139.335V134.995H225.776V139.335H226.615ZM225.587 133.352C225.587 133.686 225.857 133.957 226.191 133.957C226.534 133.957 226.805 133.686 226.805 133.352C226.805 133.009 226.534 132.739 226.191 132.739C225.857 132.739 225.587 133.009 225.587 133.352ZM228.907 136.827C228.907 136.168 229.25 135.635 229.918 135.635C230.676 135.635 230.928 136.123 230.928 136.727V139.335H231.777V136.583C231.777 135.617 231.262 134.868 230.224 134.868C229.719 134.868 229.205 135.076 228.889 135.617V134.995H228.059V139.335H228.907V136.827ZM232.81 139.57C232.918 140.5 233.731 141.185 234.814 141.185C236.447 141.185 236.988 140.112 236.988 139.011V134.995H236.149V135.599C235.933 135.166 235.481 134.913 234.814 134.913C233.622 134.913 232.819 135.852 232.819 137.025C232.819 138.253 233.658 139.128 234.814 139.128C235.463 139.128 235.933 138.812 236.14 138.415V139.038C236.14 139.976 235.725 140.445 234.814 140.445C234.155 140.445 233.695 139.985 233.631 139.381L232.81 139.57ZM234.94 138.415C234.173 138.415 233.686 137.873 233.686 137.025C233.686 136.186 234.191 135.635 234.94 135.635C235.671 135.635 236.176 136.186 236.176 137.025C236.176 137.864 235.671 138.415 234.94 138.415ZM241.736 133.623H240.96V134.327C240.96 134.706 240.762 134.995 240.293 134.995H240.058V135.762H240.888V138.144C240.888 138.929 241.357 139.381 242.097 139.381C242.386 139.381 242.603 139.326 242.675 139.299V138.577C242.603 138.595 242.449 138.613 242.341 138.613C241.899 138.613 241.736 138.415 241.736 138.018V135.762H242.675V134.995H241.736V133.623ZM244.656 136.782C244.674 136.141 245.016 135.635 245.666 135.635C246.424 135.635 246.677 136.123 246.677 136.727V139.335H247.525V136.583C247.525 135.617 247.011 134.868 245.973 134.868C245.477 134.868 244.971 135.04 244.656 135.5V132.802H243.807V139.335H244.656V136.782ZM249.425 136.718C249.461 136.159 249.894 135.608 250.607 135.608C251.374 135.608 251.78 136.096 251.799 136.718H249.425ZM251.925 137.846C251.762 138.334 251.41 138.722 250.707 138.722C249.976 138.722 249.416 138.18 249.398 137.404H252.665C252.674 137.35 252.683 137.242 252.683 137.133C252.683 135.78 251.934 134.859 250.598 134.859C249.506 134.859 248.523 135.789 248.523 137.152C248.523 138.623 249.542 139.471 250.707 139.471C251.717 139.471 252.412 138.866 252.656 138.099L251.925 137.846ZM257.159 133.623H256.383V134.327C256.383 134.706 256.184 134.995 255.715 134.995H255.48V135.762H256.311V138.144C256.311 138.929 256.78 139.381 257.52 139.381C257.809 139.381 258.025 139.326 258.097 139.299V138.577C258.025 138.595 257.872 138.613 257.764 138.613C257.321 138.613 257.159 138.415 257.159 138.018V135.762H258.097V134.995H257.159V133.623ZM258.959 138.171C258.959 138.857 259.528 139.471 260.412 139.471C261.188 139.471 261.621 139.056 261.811 138.749C261.811 139.065 261.838 139.227 261.856 139.335H262.686C262.668 139.227 262.632 139.002 262.632 138.623V136.448C262.632 135.599 262.127 134.859 260.827 134.859C259.889 134.859 259.14 135.437 259.049 136.267L259.861 136.457C259.916 135.951 260.25 135.581 260.845 135.581C261.504 135.581 261.784 135.933 261.784 136.357C261.784 136.511 261.711 136.646 261.45 136.682L260.277 136.854C259.528 136.962 258.959 137.395 258.959 138.171ZM260.529 138.758C260.096 138.758 259.825 138.451 259.825 138.126C259.825 137.738 260.096 137.531 260.457 137.476L261.784 137.278V137.476C261.784 138.424 261.224 138.758 260.529 138.758ZM264.793 139.335V138.704C265.063 139.173 265.56 139.453 266.201 139.453C267.491 139.453 268.222 138.433 268.222 137.143C268.222 135.879 267.545 134.868 266.228 134.868C265.506 134.868 265 135.22 264.793 135.608V132.802H263.953V139.335H264.793ZM267.356 137.143C267.356 138.081 266.85 138.695 266.074 138.695C265.325 138.695 264.784 138.081 264.784 137.143C264.784 136.204 265.325 135.617 266.074 135.617C266.859 135.617 267.356 136.204 267.356 137.143ZM270.151 139.335V132.802H269.303V139.335H270.151ZM272.145 136.718C272.181 136.159 272.614 135.608 273.327 135.608C274.094 135.608 274.5 136.096 274.518 136.718H272.145ZM274.644 137.846C274.482 138.334 274.13 138.722 273.426 138.722C272.695 138.722 272.136 138.18 272.118 137.404H275.384C275.394 137.35 275.403 137.242 275.403 137.133C275.403 135.78 274.654 134.859 273.318 134.859C272.226 134.859 271.242 135.789 271.242 137.152C271.242 138.623 272.262 139.471 273.426 139.471C274.437 139.471 275.132 138.866 275.375 138.099L274.644 137.846ZM276.079 138.207C276.151 138.704 276.657 139.471 277.848 139.471C278.922 139.471 279.436 138.74 279.436 138.126C279.436 137.485 279.021 137.007 278.236 136.836L277.532 136.682C277.198 136.61 277.036 136.421 277.036 136.159C277.036 135.861 277.325 135.581 277.758 135.581C278.444 135.581 278.624 136.078 278.66 136.303L279.409 136.023C279.319 135.635 278.949 134.859 277.758 134.859C276.91 134.859 276.215 135.491 276.215 136.231C276.215 136.845 276.621 137.305 277.298 137.449L278.038 137.612C278.399 137.693 278.597 137.901 278.597 138.171C278.597 138.478 278.335 138.749 277.857 138.749C277.243 138.749 276.901 138.388 276.846 137.937L276.079 138.207ZM280.476 138.758C280.476 139.11 280.746 139.381 281.098 139.381C281.45 139.381 281.73 139.11 281.73 138.758C281.73 138.406 281.45 138.126 281.098 138.126C280.746 138.126 280.476 138.406 280.476 138.758ZM282.996 138.758C282.996 139.11 283.267 139.381 283.619 139.381C283.971 139.381 284.25 139.11 284.25 138.758C284.25 138.406 283.971 138.126 283.619 138.126C283.267 138.126 282.996 138.406 282.996 138.758ZM285.516 138.758C285.516 139.11 285.787 139.381 286.139 139.381C286.491 139.381 286.771 139.11 286.771 138.758C286.771 138.406 286.491 138.126 286.139 138.126C285.787 138.126 285.516 138.406 285.516 138.758Z" fill="#707070"/>
<path d="M163.667 152.575C163.658 152.485 163.649 152.394 163.649 152.313C163.649 151.645 164.01 151.113 164.777 151.113C165.517 151.113 165.878 151.609 165.878 152.142C165.878 152.593 165.625 153.008 165.075 153.36L164.1 153.992C163.107 154.633 162.728 155.363 162.71 156.32H166.807V155.499H163.802C163.884 155.138 164.181 154.894 164.515 154.678L165.67 153.938C166.338 153.513 166.771 152.9 166.771 152.133C166.771 151.158 166.049 150.337 164.795 150.337C163.514 150.337 162.774 151.23 162.774 152.232C162.774 152.304 162.774 152.385 162.783 152.467L163.667 152.575ZM168.732 156.32V153.703C168.732 153.053 169.138 152.602 169.743 152.602C170.393 152.602 170.664 153.035 170.664 153.595V156.32H171.512V153.694C171.512 153.071 171.918 152.602 172.514 152.602C173.154 152.602 173.434 153.026 173.434 153.595V156.32H174.273V153.504C174.273 152.367 173.533 151.853 172.775 151.853C172.225 151.853 171.665 152.052 171.322 152.674C171.088 152.115 170.564 151.853 170.023 151.853C169.517 151.853 168.976 152.079 168.705 152.557V151.979H167.893V156.32H168.732ZM178.735 156.32V149.786H177.887V156.32H178.735ZM180.729 153.703C180.765 153.143 181.198 152.593 181.911 152.593C182.678 152.593 183.084 153.08 183.102 153.703H180.729ZM183.228 154.831C183.066 155.318 182.714 155.706 182.01 155.706C181.279 155.706 180.72 155.165 180.702 154.389H183.968C183.977 154.335 183.987 154.226 183.987 154.118C183.987 152.764 183.237 151.844 181.902 151.844C180.81 151.844 179.826 152.773 179.826 154.136C179.826 155.607 180.846 156.455 182.01 156.455C183.021 156.455 183.716 155.851 183.959 155.084L183.228 154.831ZM187.253 152.746V151.979H186.206V151.293C186.206 150.698 186.594 150.553 186.892 150.553C187.109 150.553 187.217 150.59 187.262 150.608V149.85C187.226 149.823 187.046 149.759 186.757 149.759C185.972 149.759 185.331 150.283 185.331 151.248V151.979H184.528V152.746H185.331V156.32H186.206V152.746H187.253ZM189.3 150.608H188.524V151.312C188.524 151.691 188.325 151.979 187.856 151.979H187.621V152.746H188.451V155.129C188.451 155.914 188.921 156.365 189.661 156.365C189.95 156.365 190.166 156.311 190.238 156.284V155.562C190.166 155.58 190.013 155.598 189.904 155.598C189.462 155.598 189.3 155.4 189.3 155.003V152.746H190.238V151.979H189.3V150.608Z" fill="#707070"/>
<g filter="url(#filter9_b_2610_74779)">
<rect x="162.395" y="169.328" width="430" height="4.52314" rx="2.26157" fill="url(#paint16_linear_2610_74779)"/>
</g>
<rect x="162.395" y="169.328" width="121.921" height="4.52314" rx="2.26157" fill="url(#paint17_linear_2610_74779)"/>
<rect x="0.394531" y="0.335449" width="332" height="260" fill="url(#paint18_radial_2610_74779)"/>
</g>
<defs>
<filter id="filter0_f_2610_74779" x="-219.285" y="-212.344" width="932.36" height="651.36" filterUnits="userSpaceOnUse" color-interpolation-filters="sRGB">
<feFlood flood-opacity="0" result="BackgroundImageFix"/>
<feBlend mode="normal" in="SourceGraphic" in2="BackgroundImageFix" result="shape"/>
<feGaussianBlur stdDeviation="119.84" result="effect1_foregroundBlur_2610_74779"/>
</filter>
<filter id="filter1_b_2610_74779" x="-226.605" y="31.3354" width="308.212" height="231.955" filterUnits="userSpaceOnUse" color-interpolation-filters="sRGB">
<feFlood flood-opacity="0" result="BackgroundImageFix"/>
<feGaussianBlur in="BackgroundImageFix" stdDeviation="7.5"/>
<feComposite in2="SourceAlpha" operator="in" result="effect1_backgroundBlur_2610_74779"/>
<feBlend mode="normal" in="SourceGraphic" in2="effect1_backgroundBlur_2610_74779" result="shape"/>
</filter>
<filter id="filter2_b_2610_74779" x="-216.684" y="37.5588" width="308.212" height="231.955" filterUnits="userSpaceOnUse" color-interpolation-filters="sRGB">
<feFlood flood-opacity="0" result="BackgroundImageFix"/>
<feGaussianBlur in="BackgroundImageFix" stdDeviation="7.5"/>
<feComposite in2="SourceAlpha" operator="in" result="effect1_backgroundBlur_2610_74779"/>
<feBlend mode="normal" in="SourceGraphic" in2="effect1_backgroundBlur_2610_74779" result="shape"/>
</filter>
<filter id="filter3_b_2610_74779" x="-173.605" y="43.3354" width="273.017" height="216.872" filterUnits="userSpaceOnUse" color-interpolation-filters="sRGB">
<feFlood flood-opacity="0" result="BackgroundImageFix"/>
<feGaussianBlur in="BackgroundImageFix" stdDeviation="7.5"/>
<feComposite in2="SourceAlpha" operator="in" result="effect1_backgroundBlur_2610_74779"/>
<feBlend mode="normal" in="SourceGraphic" in2="effect1_backgroundBlur_2610_74779" result="shape"/>
</filter>
<filter id="filter4_b_2610_74779" x="-200.605" y="50.3354" width="308.212" height="231.955" filterUnits="userSpaceOnUse" color-interpolation-filters="sRGB">
<feFlood flood-opacity="0" result="BackgroundImageFix"/>
<feGaussianBlur in="BackgroundImageFix" stdDeviation="7.5"/>
<feComposite in2="SourceAlpha" operator="in" result="effect1_backgroundBlur_2610_74779"/>
<feBlend mode="normal" in="SourceGraphic" in2="effect1_backgroundBlur_2610_74779" result="shape"/>
</filter>
<filter id="filter5_b_2610_74779" x="-113.974" y="56.5813" width="246.201" height="177.486" filterUnits="userSpaceOnUse" color-interpolation-filters="sRGB">
<feFlood flood-opacity="0" result="BackgroundImageFix"/>
<feGaussianBlur in="BackgroundImageFix" stdDeviation="7.5"/>
<feComposite in2="SourceAlpha" operator="in" result="effect1_backgroundBlur_2610_74779"/>
<feBlend mode="normal" in="SourceGraphic" in2="effect1_backgroundBlur_2610_74779" result="shape"/>
</filter>
<filter id="filter6_b_2610_74779" x="-169.605" y="74.3354" width="308" height="244" filterUnits="userSpaceOnUse" color-interpolation-filters="sRGB">
<feFlood flood-opacity="0" result="BackgroundImageFix"/>
<feGaussianBlur in="BackgroundImageFix" stdDeviation="7.5"/>
<feComposite in2="SourceAlpha" operator="in" result="effect1_backgroundBlur_2610_74779"/>
<feBlend mode="normal" in="SourceGraphic" in2="effect1_backgroundBlur_2610_74779" result="shape"/>
</filter>
<filter id="filter7_b_2610_74779" x="-203.605" y="82.3354" width="349" height="261" filterUnits="userSpaceOnUse" color-interpolation-filters="sRGB">
<feFlood flood-opacity="0" result="BackgroundImageFix"/>
<feGaussianBlur in="BackgroundImageFix" stdDeviation="7.5"/>
<feComposite in2="SourceAlpha" operator="in" result="effect1_backgroundBlur_2610_74779"/>
<feBlend mode="normal" in="SourceGraphic" in2="effect1_backgroundBlur_2610_74779" result="shape"/>
</filter>
<filter id="filter8_b_2610_74779" x="127.395" y="57.3354" width="508.813" height="241" filterUnits="userSpaceOnUse" color-interpolation-filters="sRGB">
<feFlood flood-opacity="0" result="BackgroundImageFix"/>
<feGaussianBlur in="BackgroundImageFix" stdDeviation="7.5"/>
<feComposite in2="SourceAlpha" operator="in" result="effect1_backgroundBlur_2610_74779"/>
<feBlend mode="normal" in="SourceGraphic" in2="effect1_backgroundBlur_2610_74779" result="shape"/>
</filter>
<filter id="filter9_b_2610_74779" x="147.395" y="154.328" width="460" height="34.5232" filterUnits="userSpaceOnUse" color-interpolation-filters="sRGB">
<feFlood flood-opacity="0" result="BackgroundImageFix"/>
<feGaussianBlur in="BackgroundImageFix" stdDeviation="7.5"/>
<feComposite in2="SourceAlpha" operator="in" result="effect1_backgroundBlur_2610_74779"/>
<feBlend mode="normal" in="SourceGraphic" in2="effect1_backgroundBlur_2610_74779" result="shape"/>
</filter>
<linearGradient id="paint0_linear_2610_74779" x1="-72.4993" y1="46.3354" x2="-72.4993" y2="248.291" gradientUnits="userSpaceOnUse">
<stop stop-color="#656565" stop-opacity="0.01"/>
<stop offset="1" stop-color="#1C1C1C" stop-opacity="0"/>
</linearGradient>
<linearGradient id="paint1_linear_2610_74779" x1="-97.3837" y1="42.127" x2="-7.88285" y2="214.798" gradientUnits="userSpaceOnUse">
<stop stop-color="#868686" stop-opacity="0.37"/>
<stop offset="1" stop-color="#3E3E3E" stop-opacity="0"/>
</linearGradient>
<linearGradient id="paint2_linear_2610_74779" x1="-62.5775" y1="52.5588" x2="-62.5775" y2="254.514" gradientUnits="userSpaceOnUse">
<stop stop-color="#656565" stop-opacity="0.01"/>
<stop offset="1" stop-color="#1C1C1C" stop-opacity="0"/>
</linearGradient>
<linearGradient id="paint3_linear_2610_74779" x1="-87.4618" y1="48.3504" x2="2.03903" y2="221.021" gradientUnits="userSpaceOnUse">
<stop stop-color="#868686" stop-opacity="0.37"/>
<stop offset="1" stop-color="#3E3E3E" stop-opacity="0"/>
</linearGradient>
<linearGradient id="paint4_linear_2610_74779" x1="-37.0971" y1="58.3354" x2="-37.0971" y2="245.207" gradientUnits="userSpaceOnUse">
<stop stop-color="#656565" stop-opacity="0.01"/>
<stop offset="1" stop-color="#1C1C1C" stop-opacity="0"/>
</linearGradient>
<linearGradient id="paint5_linear_2610_74779" x1="-58.8334" y1="54.4413" x2="26.6831" y2="210.187" gradientUnits="userSpaceOnUse">
<stop stop-color="#868686" stop-opacity="0.37"/>
<stop offset="1" stop-color="#3E3E3E" stop-opacity="0"/>
</linearGradient>
<linearGradient id="paint6_linear_2610_74779" x1="-46.4993" y1="65.3354" x2="-46.4993" y2="267.291" gradientUnits="userSpaceOnUse">
<stop stop-color="#656565" stop-opacity="0.01"/>
<stop offset="1" stop-color="#1C1C1C" stop-opacity="0"/>
</linearGradient>
<linearGradient id="paint7_linear_2610_74779" x1="-71.3837" y1="61.127" x2="18.1172" y2="233.798" gradientUnits="userSpaceOnUse">
<stop stop-color="#868686" stop-opacity="0.37"/>
<stop offset="1" stop-color="#3E3E3E" stop-opacity="0"/>
</linearGradient>
<linearGradient id="paint8_linear_2610_74779" x1="34.9232" y1="43.0897" x2="-21.3289" y2="185.938" gradientUnits="userSpaceOnUse">
<stop stop-color="#828282" stop-opacity="0.26"/>
<stop offset="1" stop-color="#1C1C1C" stop-opacity="0"/>
</linearGradient>
<linearGradient id="paint9_linear_2610_74779" x1="120.395" y1="76.8355" x2="106.743" y2="122.431" gradientUnits="userSpaceOnUse">
<stop stop-color="#EDEDED"/>
<stop offset="1" stop-color="#3E3E3E" stop-opacity="0"/>
</linearGradient>
<linearGradient id="paint10_linear_2610_74779" x1="-15.6055" y1="89.3354" x2="-15.6055" y2="303.335" gradientUnits="userSpaceOnUse">
<stop stop-color="#656565" stop-opacity="0.01"/>
<stop offset="1" stop-color="#1C1C1C" stop-opacity="0"/>
</linearGradient>
<linearGradient id="paint11_linear_2610_74779" x1="-40.4708" y1="84.876" x2="57.5162" y2="263.143" gradientUnits="userSpaceOnUse">
<stop stop-color="#868686" stop-opacity="0.37"/>
<stop offset="1" stop-color="#3E3E3E" stop-opacity="0"/>
</linearGradient>
<linearGradient id="paint12_linear_2610_74779" x1="-29.1055" y1="97.3354" x2="-29.1055" y2="328.335" gradientUnits="userSpaceOnUse">
<stop stop-color="#656565" stop-opacity="0.01"/>
<stop offset="1" stop-color="#1C1C1C" stop-opacity="0"/>
</linearGradient>
<linearGradient id="paint13_linear_2610_74779" x1="-57.638" y1="92.5218" x2="44.5908" y2="290.229" gradientUnits="userSpaceOnUse">
<stop stop-color="#868686" stop-opacity="0.37"/>
<stop offset="1" stop-color="#3E3E3E" stop-opacity="0"/>
</linearGradient>
<linearGradient id="paint14_linear_2610_74779" x1="381.801" y1="72.3355" x2="381.801" y2="283.335" gradientUnits="userSpaceOnUse">
<stop stop-color="#929292" stop-opacity="0.26"/>
<stop offset="1" stop-color="#1C1C1C" stop-opacity="0"/>
</linearGradient>
<linearGradient id="paint15_linear_2610_74779" x1="172.895" y1="74.3354" x2="181.895" y2="133.835" gradientUnits="userSpaceOnUse">
<stop stop-color="white" stop-opacity="0.71"/>
<stop offset="1" stop-color="#3E3E3E" stop-opacity="0"/>
</linearGradient>
<linearGradient id="paint16_linear_2610_74779" x1="227.395" y1="144.26" x2="926.395" y2="144.26" gradientUnits="userSpaceOnUse">
<stop stop-color="#929292" stop-opacity="0.26"/>
<stop offset="1" stop-color="#1C1C1C" stop-opacity="0"/>
</linearGradient>
<linearGradient id="paint17_linear_2610_74779" x1="258.395" y1="148.258" x2="301.395" y2="214.758" gradientUnits="userSpaceOnUse">
<stop stop-color="#3ECF8E" stop-opacity="0.83"/>
<stop offset="1" stop-color="#2A3635" stop-opacity="0"/>
</linearGradient>
<radialGradient id="paint18_radial_2610_74779" cx="0" cy="0" r="1" gradientUnits="userSpaceOnUse" gradientTransform="translate(163.399 54.8354) rotate(89.8502) scale(191.001 254.575)">
<stop offset="0.714353" stop-color="#242424" stop-opacity="0"/>
<stop offset="1" stop-color="#232323"/>
</radialGradient>
<clipPath id="clip0_2610_74779">
<rect width="332" height="260" fill="white" transform="translate(0.394531 0.335449)"/>
</clipPath>
</defs>
</svg>
