<svg width="333" height="261" viewBox="0 0 333 261" fill="none" xmlns="http://www.w3.org/2000/svg">
<g clip-path="url(#clip0_2627_69090)">
<rect width="332" height="260" transform="translate(0.546387 0.335449)" fill="white"/>
<g filter="url(#filter0_f_2627_69090)">
<path d="M473.546 199.336L20.5464 199.336L175.718 27.3357L309.021 27.3357L473.546 199.336Z" fill="#C4FFF8"/>
</g>
<g filter="url(#filter1_b_2627_69090)">
<rect x="-211.454" y="46.3354" width="278.212" height="201.955" rx="8" fill="url(#paint0_linear_2627_69090)"/>
<rect x="-210.954" y="46.8354" width="277.212" height="200.955" rx="7.5" stroke="url(#paint1_linear_2627_69090)"/>
</g>
<g filter="url(#filter2_b_2627_69090)">
<rect x="-201.532" y="52.5588" width="278.212" height="201.955" rx="8" fill="url(#paint2_linear_2627_69090)"/>
<rect x="-201.032" y="53.0588" width="277.212" height="200.955" rx="7.5" stroke="url(#paint3_linear_2627_69090)"/>
</g>
<g filter="url(#filter3_b_2627_69090)">
<rect x="-158.454" y="58.3354" width="243.017" height="186.872" rx="8" fill="url(#paint4_linear_2627_69090)"/>
<rect x="-157.954" y="58.8354" width="242.017" height="185.872" rx="7.5" stroke="url(#paint5_linear_2627_69090)"/>
</g>
<g filter="url(#filter4_b_2627_69090)">
<rect x="-185.454" y="65.3354" width="278.212" height="201.955" rx="8" fill="url(#paint6_linear_2627_69090)"/>
<rect x="-184.954" y="65.8354" width="277.212" height="200.955" rx="7.5" stroke="url(#paint7_linear_2627_69090)"/>
</g>
<g filter="url(#filter5_b_2627_69090)">
<rect x="-98.8223" y="71.5813" width="216.201" height="147.486" rx="7.69231" fill="url(#paint8_linear_2627_69090)"/>
<rect x="-98.3415" y="72.0621" width="215.24" height="146.525" rx="7.21154" stroke="url(#paint9_linear_2627_69090)" stroke-width="0.961538"/>
</g>
<g filter="url(#filter6_b_2627_69090)">
<rect x="-154.454" y="89.3354" width="278" height="214" rx="8" fill="url(#paint10_linear_2627_69090)"/>
<rect x="-153.954" y="89.8354" width="277" height="213" rx="7.5" stroke="url(#paint11_linear_2627_69090)"/>
</g>
<g filter="url(#filter7_b_2627_69090)">
<rect x="-188.454" y="97.3354" width="319" height="231" rx="8" fill="url(#paint12_linear_2627_69090)"/>
<rect x="-187.954" y="97.8354" width="318" height="230" rx="7.5" stroke="url(#paint13_linear_2627_69090)"/>
</g>
<g filter="url(#filter8_b_2627_69090)">
<path d="M142.546 80.0278C142.546 75.7794 145.99 72.3354 150.239 72.3354H613.667C617.916 72.3354 621.36 75.7794 621.36 80.0278V275.643C621.36 279.891 617.916 283.335 613.667 283.335H150.239C145.99 283.335 142.546 279.891 142.546 275.643V80.0278Z" fill="url(#paint14_linear_2627_69090)"/>
<path d="M143.027 80.0278C143.027 76.0449 146.256 72.8162 150.239 72.8162H613.667C617.65 72.8162 620.879 76.0449 620.879 80.0278V275.643C620.879 279.626 617.65 282.855 613.667 282.855H150.239C146.256 282.855 143.027 279.626 143.027 275.643V80.0278Z" stroke="url(#paint15_linear_2627_69090)" stroke-width="0.961538"/>
</g>
<path d="M164.802 102.291V95.8714H166.566C168.138 95.8714 169.434 96.9514 169.434 99.0994C169.434 101.235 168.114 102.291 166.542 102.291H164.802ZM166.578 103.335C168.738 103.335 170.646 101.883 170.646 99.0994C170.646 96.3034 168.762 94.8274 166.602 94.8274H163.626V103.335H166.578ZM171.783 101.787C171.783 102.699 172.539 103.515 173.715 103.515C174.747 103.515 175.323 102.963 175.575 102.555C175.575 102.975 175.611 103.191 175.635 103.335H176.739C176.715 103.191 176.667 102.891 176.667 102.387V99.4954C176.667 98.3674 175.995 97.3834 174.267 97.3834C173.019 97.3834 172.023 98.1514 171.903 99.2554L172.983 99.5074C173.055 98.8354 173.499 98.3434 174.291 98.3434C175.167 98.3434 175.539 98.8114 175.539 99.3754C175.539 99.5794 175.443 99.7594 175.095 99.8074L173.535 100.035C172.539 100.179 171.783 100.755 171.783 101.787ZM173.871 102.567C173.295 102.567 172.935 102.159 172.935 101.727C172.935 101.211 173.295 100.935 173.775 100.863L175.539 100.599V100.863C175.539 102.123 174.795 102.567 173.871 102.567ZM179.936 95.7394H178.904V96.6754C178.904 97.1794 178.64 97.5634 178.016 97.5634H177.704V98.5834H178.808V101.751C178.808 102.795 179.432 103.395 180.416 103.395C180.8 103.395 181.088 103.323 181.184 103.287V102.327C181.088 102.351 180.884 102.375 180.74 102.375C180.152 102.375 179.936 102.111 179.936 101.583V98.5834H181.184V97.5634H179.936V95.7394ZM182.33 101.787C182.33 102.699 183.086 103.515 184.262 103.515C185.294 103.515 185.87 102.963 186.122 102.555C186.122 102.975 186.158 103.191 186.182 103.335H187.286C187.262 103.191 187.214 102.891 187.214 102.387V99.4954C187.214 98.3674 186.542 97.3834 184.814 97.3834C183.566 97.3834 182.57 98.1514 182.45 99.2554L183.53 99.5074C183.602 98.8354 184.046 98.3434 184.838 98.3434C185.714 98.3434 186.086 98.8114 186.086 99.3754C186.086 99.5794 185.99 99.7594 185.642 99.8074L184.082 100.035C183.086 100.179 182.33 100.755 182.33 101.787ZM184.418 102.567C183.842 102.567 183.482 102.159 183.482 101.727C183.482 101.211 183.842 100.935 184.322 100.863L186.086 100.599V100.863C186.086 102.123 185.342 102.567 184.418 102.567ZM190.087 103.335V102.495C190.447 103.119 191.107 103.491 191.959 103.491C193.675 103.491 194.647 102.135 194.647 100.419C194.647 98.7394 193.747 97.3954 191.995 97.3954C191.035 97.3954 190.363 97.8634 190.087 98.3794V94.6474H188.971V103.335H190.087ZM193.495 100.419C193.495 101.667 192.823 102.483 191.791 102.483C190.795 102.483 190.075 101.667 190.075 100.419C190.075 99.1714 190.795 98.3914 191.791 98.3914C192.835 98.3914 193.495 99.1714 193.495 100.419ZM195.725 101.787C195.725 102.699 196.481 103.515 197.657 103.515C198.689 103.515 199.265 102.963 199.517 102.555C199.517 102.975 199.553 103.191 199.577 103.335H200.681C200.657 103.191 200.609 102.891 200.609 102.387V99.4954C200.609 98.3674 199.937 97.3834 198.209 97.3834C196.961 97.3834 195.965 98.1514 195.845 99.2554L196.925 99.5074C196.997 98.8354 197.441 98.3434 198.233 98.3434C199.109 98.3434 199.481 98.8114 199.481 99.3754C199.481 99.5794 199.385 99.7594 199.037 99.8074L197.477 100.035C196.481 100.179 195.725 100.755 195.725 101.787ZM197.813 102.567C197.237 102.567 196.877 102.159 196.877 101.727C196.877 101.211 197.237 100.935 197.717 100.863L199.481 100.599V100.863C199.481 102.123 198.737 102.567 197.813 102.567ZM201.826 101.835C201.922 102.495 202.594 103.515 204.178 103.515C205.606 103.515 206.29 102.543 206.29 101.727C206.29 100.875 205.738 100.239 204.694 100.011L203.758 99.8074C203.314 99.7114 203.098 99.4594 203.098 99.1114C203.098 98.7154 203.482 98.3434 204.058 98.3434C204.97 98.3434 205.21 99.0034 205.258 99.3034L206.254 98.9314C206.134 98.4154 205.642 97.3834 204.058 97.3834C202.93 97.3834 202.006 98.2234 202.006 99.2074C202.006 100.023 202.546 100.635 203.446 100.827L204.43 101.043C204.91 101.151 205.174 101.427 205.174 101.787C205.174 102.195 204.826 102.555 204.19 102.555C203.374 102.555 202.918 102.075 202.846 101.475L201.826 101.835ZM208.465 99.8554C208.513 99.1114 209.089 98.3794 210.037 98.3794C211.057 98.3794 211.597 99.0274 211.621 99.8554H208.465ZM211.789 101.355C211.573 102.003 211.105 102.519 210.169 102.519C209.197 102.519 208.453 101.799 208.429 100.767H212.773C212.785 100.695 212.797 100.551 212.797 100.407C212.797 98.6074 211.801 97.3834 210.025 97.3834C208.573 97.3834 207.265 98.6194 207.265 100.431C207.265 102.387 208.621 103.515 210.169 103.515C211.513 103.515 212.437 102.711 212.761 101.691L211.789 101.355ZM218.353 103.335V97.5634H217.237V103.335H218.353ZM216.985 95.3794C216.985 95.8234 217.345 96.1834 217.789 96.1834C218.245 96.1834 218.605 95.8234 218.605 95.3794C218.605 94.9234 218.245 94.5634 217.789 94.5634C217.345 94.5634 216.985 94.9234 216.985 95.3794ZM219.732 101.835C219.828 102.495 220.5 103.515 222.084 103.515C223.512 103.515 224.196 102.543 224.196 101.727C224.196 100.875 223.644 100.239 222.6 100.011L221.664 99.8074C221.22 99.7114 221.004 99.4594 221.004 99.1114C221.004 98.7154 221.388 98.3434 221.964 98.3434C222.876 98.3434 223.116 99.0034 223.164 99.3034L224.16 98.9314C224.04 98.4154 223.548 97.3834 221.964 97.3834C220.836 97.3834 219.912 98.2234 219.912 99.2074C219.912 100.023 220.452 100.635 221.352 100.827L222.336 101.043C222.816 101.151 223.08 101.427 223.08 101.787C223.08 102.195 222.732 102.555 222.096 102.555C221.28 102.555 220.824 102.075 220.752 101.475L219.732 101.835ZM229.814 103.335V102.495C230.174 103.119 230.834 103.491 231.686 103.491C233.402 103.491 234.374 102.135 234.374 100.419C234.374 98.7394 233.474 97.3954 231.722 97.3954C230.762 97.3954 230.09 97.8634 229.814 98.3794V94.6474H228.698V103.335H229.814ZM233.222 100.419C233.222 101.667 232.55 102.483 231.518 102.483C230.522 102.483 229.802 101.667 229.802 100.419C229.802 99.1714 230.522 98.3914 231.518 98.3914C232.562 98.3914 233.222 99.1714 233.222 100.419ZM236.543 99.8554C236.591 99.1114 237.167 98.3794 238.115 98.3794C239.135 98.3794 239.675 99.0274 239.699 99.8554H236.543ZM239.867 101.355C239.651 102.003 239.183 102.519 238.247 102.519C237.275 102.519 236.531 101.799 236.507 100.767H240.851C240.863 100.695 240.875 100.551 240.875 100.407C240.875 98.6074 239.879 97.3834 238.103 97.3834C236.651 97.3834 235.343 98.6194 235.343 100.431C235.343 102.387 236.699 103.515 238.247 103.515C239.591 103.515 240.515 102.711 240.839 101.691L239.867 101.355ZM243.431 103.335V97.5634H242.315V103.335H243.431ZM242.063 95.3794C242.063 95.8234 242.423 96.1834 242.867 96.1834C243.323 96.1834 243.683 95.8234 243.683 95.3794C243.683 94.9234 243.323 94.5634 242.867 94.5634C242.423 94.5634 242.063 94.9234 242.063 95.3794ZM246.478 99.9994C246.478 99.1234 246.934 98.4154 247.822 98.4154C248.83 98.4154 249.166 99.0634 249.166 99.8674V103.335H250.294V99.6754C250.294 98.3914 249.61 97.3954 248.23 97.3954C247.558 97.3954 246.874 97.6714 246.454 98.3914V97.5634H245.35V103.335H246.478V99.9994ZM251.668 103.647C251.812 104.883 252.892 105.795 254.332 105.795C256.504 105.795 257.224 104.367 257.224 102.903V97.5634H256.108V98.3674C255.82 97.7914 255.22 97.4554 254.332 97.4554C252.748 97.4554 251.68 98.7034 251.68 100.263C251.68 101.895 252.796 103.059 254.332 103.059C255.196 103.059 255.82 102.639 256.096 102.111V102.939C256.096 104.187 255.544 104.811 254.332 104.811C253.456 104.811 252.844 104.199 252.76 103.395L251.668 103.647ZM254.5 102.111C253.48 102.111 252.832 101.391 252.832 100.263C252.832 99.1474 253.504 98.4154 254.5 98.4154C255.472 98.4154 256.144 99.1474 256.144 100.263C256.144 101.379 255.472 102.111 254.5 102.111ZM265.23 97.5034C265.17 97.4914 265.014 97.4674 264.858 97.4674C264.27 97.4674 263.55 97.6834 263.13 98.5714V97.5634H262.026V103.335H263.154V100.443C263.154 99.1714 263.79 98.6674 264.738 98.6674C264.894 98.6674 265.062 98.6794 265.23 98.7034V97.5034ZM267.106 99.8554C267.154 99.1114 267.73 98.3794 268.678 98.3794C269.698 98.3794 270.238 99.0274 270.262 99.8554H267.106ZM270.43 101.355C270.214 102.003 269.746 102.519 268.81 102.519C267.838 102.519 267.094 101.799 267.07 100.767H271.414C271.426 100.695 271.438 100.551 271.438 100.407C271.438 98.6074 270.442 97.3834 268.666 97.3834C267.214 97.3834 265.906 98.6194 265.906 100.431C265.906 102.387 267.262 103.515 268.81 103.515C270.154 103.515 271.078 102.711 271.402 101.691L270.43 101.355ZM275.301 98.4274C276.285 98.4274 276.705 99.0874 276.849 99.6514L277.869 99.2194C277.629 98.3434 276.837 97.3834 275.301 97.3834C273.657 97.3834 272.397 98.6434 272.397 100.443C272.397 102.195 273.633 103.515 275.313 103.515C276.813 103.515 277.641 102.543 277.917 101.715L276.921 101.283C276.789 101.739 276.393 102.471 275.313 102.471C274.377 102.471 273.549 101.763 273.549 100.443C273.549 99.0994 274.389 98.4274 275.301 98.4274ZM281.654 102.507C280.694 102.507 279.854 101.787 279.854 100.443C279.854 99.1114 280.694 98.3914 281.654 98.3914C282.614 98.3914 283.454 99.1114 283.454 100.443C283.454 101.787 282.614 102.507 281.654 102.507ZM281.654 97.3834C279.926 97.3834 278.702 98.6914 278.702 100.443C278.702 102.207 279.926 103.515 281.654 103.515C283.382 103.515 284.606 102.207 284.606 100.443C284.606 98.6914 283.382 97.3834 281.654 97.3834ZM290.818 97.5634H289.606L287.95 102.015L286.306 97.5634H285.034L287.374 103.335H288.514L290.818 97.5634ZM292.453 99.8554C292.501 99.1114 293.077 98.3794 294.025 98.3794C295.045 98.3794 295.585 99.0274 295.609 99.8554H292.453ZM295.777 101.355C295.561 102.003 295.093 102.519 294.157 102.519C293.185 102.519 292.441 101.799 292.417 100.767H296.761C296.773 100.695 296.785 100.551 296.785 100.407C296.785 98.6074 295.789 97.3834 294.013 97.3834C292.561 97.3834 291.253 98.6194 291.253 100.431C291.253 102.387 292.609 103.515 294.157 103.515C295.501 103.515 296.425 102.711 296.749 101.691L295.777 101.355ZM301.429 97.5034C301.369 97.4914 301.213 97.4674 301.057 97.4674C300.469 97.4674 299.749 97.6834 299.329 98.5714V97.5634H298.225V103.335H299.353V100.443C299.353 99.1714 299.989 98.6674 300.937 98.6674C301.093 98.6674 301.261 98.6794 301.429 98.7034V97.5034ZM303.305 99.8554C303.353 99.1114 303.929 98.3794 304.877 98.3794C305.897 98.3794 306.437 99.0274 306.461 99.8554H303.305ZM306.629 101.355C306.413 102.003 305.945 102.519 305.009 102.519C304.037 102.519 303.293 101.799 303.269 100.767H307.613C307.625 100.695 307.637 100.551 307.637 100.407C307.637 98.6074 306.641 97.3834 304.865 97.3834C303.413 97.3834 302.105 98.6194 302.105 100.431C302.105 102.387 303.461 103.515 305.009 103.515C306.353 103.515 307.277 102.711 307.601 101.691L306.629 101.355ZM309.749 100.431C309.749 99.2434 310.421 98.4034 311.453 98.4034C312.485 98.4034 313.109 99.2194 313.109 100.407C313.109 101.595 312.473 102.495 311.441 102.495C310.361 102.495 309.749 101.619 309.749 100.431ZM313.121 102.555C313.121 102.903 313.157 103.203 313.181 103.335H314.273C314.261 103.239 314.213 102.819 314.213 102.267V94.6474H313.097V98.3794C312.905 97.9114 312.353 97.4074 311.333 97.4074C309.701 97.4074 308.597 98.7994 308.597 100.431C308.597 102.147 309.641 103.491 311.333 103.491C312.233 103.491 312.845 103.011 313.121 102.459V102.555Z" fill="#3E3E3E"/>
<path d="M166.129 139.471C167.6 139.471 168.611 138.613 168.954 137.413L168.169 137.124C167.907 138 167.221 138.659 166.129 138.659C164.965 138.659 163.855 137.801 163.855 136.132C163.855 134.462 164.965 133.614 166.129 133.614C167.176 133.614 167.88 134.155 168.123 135.121L168.945 134.832C168.62 133.596 167.591 132.802 166.129 132.802C164.541 132.802 162.952 133.993 162.952 136.132C162.952 138.271 164.478 139.471 166.129 139.471ZM172.721 138.812C172.721 138.993 172.739 139.236 172.757 139.335H173.569C173.551 139.182 173.524 138.875 173.524 138.532V134.995H172.676V137.612C172.676 138.271 172.333 138.722 171.647 138.722C170.934 138.722 170.664 138.198 170.664 137.603V134.995H169.815V137.729C169.815 138.713 170.429 139.471 171.44 139.471C171.945 139.471 172.486 139.263 172.721 138.812ZM177.381 134.95C177.336 134.941 177.219 134.923 177.102 134.923C176.659 134.923 176.118 135.085 175.802 135.753V134.995H174.972V139.335H175.82V137.161C175.82 136.204 176.298 135.825 177.011 135.825C177.129 135.825 177.255 135.834 177.381 135.852V134.95ZM180.695 134.95C180.65 134.941 180.533 134.923 180.415 134.923C179.973 134.923 179.432 135.085 179.116 135.753V134.995H178.285V139.335H179.134V137.161C179.134 136.204 179.612 135.825 180.325 135.825C180.442 135.825 180.569 135.834 180.695 135.852V134.95ZM182.106 136.718C182.142 136.159 182.575 135.608 183.288 135.608C184.055 135.608 184.461 136.096 184.479 136.718H182.106ZM184.605 137.846C184.443 138.334 184.091 138.722 183.387 138.722C182.656 138.722 182.097 138.18 182.078 137.404H185.345C185.354 137.35 185.363 137.242 185.363 137.133C185.363 135.78 184.614 134.859 183.279 134.859C182.187 134.859 181.203 135.789 181.203 137.152C181.203 138.623 182.223 139.471 183.387 139.471C184.398 139.471 185.093 138.866 185.336 138.099L184.605 137.846ZM187.295 136.827C187.295 136.168 187.637 135.635 188.305 135.635C189.063 135.635 189.316 136.123 189.316 136.727V139.335H190.164V136.583C190.164 135.617 189.65 134.868 188.612 134.868C188.107 134.868 187.592 135.076 187.276 135.617V134.995H186.446V139.335H187.295V136.827ZM192.651 133.623H191.875V134.327C191.875 134.706 191.676 134.995 191.207 134.995H190.972V135.762H191.802V138.144C191.802 138.929 192.272 139.381 193.012 139.381C193.3 139.381 193.517 139.326 193.589 139.299V138.577C193.517 138.595 193.364 138.613 193.255 138.613C192.813 138.613 192.651 138.415 192.651 138.018V135.762H193.589V134.995H192.651V133.623ZM195.57 139.335V132.802H194.722V139.335H195.57ZM198.096 141.149L200.92 134.995H200.009L198.709 137.991L197.356 134.995H196.381L198.249 138.857L197.166 141.149H198.096ZM204.832 139.335V134.995H203.993V139.335H204.832ZM203.803 133.352C203.803 133.686 204.074 133.957 204.408 133.957C204.751 133.957 205.021 133.686 205.021 133.352C205.021 133.009 204.751 132.739 204.408 132.739C204.074 132.739 203.803 133.009 203.803 133.352ZM207.123 136.827C207.123 136.168 207.466 135.635 208.134 135.635C208.892 135.635 209.145 136.123 209.145 136.727V139.335H209.993V136.583C209.993 135.617 209.479 134.868 208.441 134.868C207.936 134.868 207.421 135.076 207.105 135.617V134.995H206.275V139.335H207.123V136.827ZM211.848 137.152C211.848 136.258 212.353 135.626 213.129 135.626C213.906 135.626 214.375 136.24 214.375 137.133C214.375 138.027 213.897 138.704 213.12 138.704C212.308 138.704 211.848 138.045 211.848 137.152ZM214.384 138.749C214.384 139.011 214.411 139.236 214.429 139.335H215.25C215.241 139.263 215.205 138.947 215.205 138.532V132.802H214.366V135.608C214.221 135.256 213.806 134.877 213.039 134.877C211.812 134.877 210.982 135.924 210.982 137.152C210.982 138.442 211.767 139.453 213.039 139.453C213.716 139.453 214.176 139.092 214.384 138.677V138.749ZM217.198 136.718C217.235 136.159 217.668 135.608 218.381 135.608C219.148 135.608 219.554 136.096 219.572 136.718H217.198ZM219.698 137.846C219.536 138.334 219.184 138.722 218.48 138.722C217.749 138.722 217.189 138.18 217.171 137.404H220.438C220.447 137.35 220.456 137.242 220.456 137.133C220.456 135.78 219.707 134.859 218.372 134.859C217.28 134.859 216.296 135.789 216.296 137.152C216.296 138.623 217.316 139.471 218.48 139.471C219.491 139.471 220.186 138.866 220.429 138.099L219.698 137.846ZM220.863 139.335H221.874L222.975 137.738L224.094 139.335H225.114C224.852 138.983 223.778 137.476 223.517 137.124L225.06 134.995H224.058L223.011 136.52L221.946 134.995H220.917L222.479 137.124L220.863 139.335ZM226.767 139.335V134.995H225.928V139.335H226.767ZM225.738 133.352C225.738 133.686 226.009 133.957 226.343 133.957C226.686 133.957 226.957 133.686 226.957 133.352C226.957 133.009 226.686 132.739 226.343 132.739C226.009 132.739 225.738 133.009 225.738 133.352ZM229.059 136.827C229.059 136.168 229.402 135.635 230.069 135.635C230.828 135.635 231.08 136.123 231.08 136.727V139.335H231.929V136.583C231.929 135.617 231.414 134.868 230.376 134.868C229.871 134.868 229.357 135.076 229.041 135.617V134.995H228.21V139.335H229.059V136.827ZM232.962 139.57C233.07 140.5 233.883 141.185 234.965 141.185C236.599 141.185 237.14 140.112 237.14 139.011V134.995H236.301V135.599C236.084 135.166 235.633 134.913 234.965 134.913C233.774 134.913 232.971 135.852 232.971 137.025C232.971 138.253 233.81 139.128 234.965 139.128C235.615 139.128 236.084 138.812 236.292 138.415V139.038C236.292 139.976 235.877 140.445 234.965 140.445C234.307 140.445 233.846 139.985 233.783 139.381L232.962 139.57ZM235.092 138.415C234.325 138.415 233.837 137.873 233.837 137.025C233.837 136.186 234.343 135.635 235.092 135.635C235.823 135.635 236.328 136.186 236.328 137.025C236.328 137.864 235.823 138.415 235.092 138.415ZM241.888 133.623H241.112V134.327C241.112 134.706 240.914 134.995 240.444 134.995H240.21V135.762H241.04V138.144C241.04 138.929 241.509 139.381 242.249 139.381C242.538 139.381 242.755 139.326 242.827 139.299V138.577C242.755 138.595 242.601 138.613 242.493 138.613C242.051 138.613 241.888 138.415 241.888 138.018V135.762H242.827V134.995H241.888V133.623ZM244.807 136.782C244.825 136.141 245.168 135.635 245.818 135.635C246.576 135.635 246.829 136.123 246.829 136.727V139.335H247.677V136.583C247.677 135.617 247.163 134.868 246.125 134.868C245.629 134.868 245.123 135.04 244.807 135.5V132.802H243.959V139.335H244.807V136.782ZM249.577 136.718C249.613 136.159 250.046 135.608 250.759 135.608C251.526 135.608 251.932 136.096 251.95 136.718H249.577ZM252.077 137.846C251.914 138.334 251.562 138.722 250.858 138.722C250.127 138.722 249.568 138.18 249.55 137.404H252.817C252.826 137.35 252.835 137.242 252.835 137.133C252.835 135.78 252.086 134.859 250.75 134.859C249.658 134.859 248.675 135.789 248.675 137.152C248.675 138.623 249.694 139.471 250.858 139.471C251.869 139.471 252.564 138.866 252.808 138.099L252.077 137.846ZM257.311 133.623H256.535V134.327C256.535 134.706 256.336 134.995 255.867 134.995H255.632V135.762H256.463V138.144C256.463 138.929 256.932 139.381 257.672 139.381C257.961 139.381 258.177 139.326 258.249 139.299V138.577C258.177 138.595 258.024 138.613 257.915 138.613C257.473 138.613 257.311 138.415 257.311 138.018V135.762H258.249V134.995H257.311V133.623ZM259.111 138.171C259.111 138.857 259.679 139.471 260.564 139.471C261.34 139.471 261.773 139.056 261.963 138.749C261.963 139.065 261.99 139.227 262.008 139.335H262.838C262.82 139.227 262.784 139.002 262.784 138.623V136.448C262.784 135.599 262.278 134.859 260.979 134.859C260.04 134.859 259.291 135.437 259.201 136.267L260.013 136.457C260.067 135.951 260.401 135.581 260.997 135.581C261.656 135.581 261.936 135.933 261.936 136.357C261.936 136.511 261.863 136.646 261.602 136.682L260.428 136.854C259.679 136.962 259.111 137.395 259.111 138.171ZM260.681 138.758C260.248 138.758 259.977 138.451 259.977 138.126C259.977 137.738 260.248 137.531 260.609 137.476L261.936 137.278V137.476C261.936 138.424 261.376 138.758 260.681 138.758ZM264.945 139.335V138.704C265.215 139.173 265.712 139.453 266.352 139.453C267.643 139.453 268.374 138.433 268.374 137.143C268.374 135.879 267.697 134.868 266.379 134.868C265.658 134.868 265.152 135.22 264.945 135.608V132.802H264.105V139.335H264.945ZM267.508 137.143C267.508 138.081 267.002 138.695 266.226 138.695C265.477 138.695 264.936 138.081 264.936 137.143C264.936 136.204 265.477 135.617 266.226 135.617C267.011 135.617 267.508 136.204 267.508 137.143ZM270.303 139.335V132.802H269.455V139.335H270.303ZM272.297 136.718C272.333 136.159 272.766 135.608 273.479 135.608C274.246 135.608 274.652 136.096 274.67 136.718H272.297ZM274.796 137.846C274.634 138.334 274.282 138.722 273.578 138.722C272.847 138.722 272.288 138.18 272.27 137.404H275.536C275.545 137.35 275.554 137.242 275.554 137.133C275.554 135.78 274.805 134.859 273.47 134.859C272.378 134.859 271.394 135.789 271.394 137.152C271.394 138.623 272.414 139.471 273.578 139.471C274.589 139.471 275.284 138.866 275.527 138.099L274.796 137.846ZM276.231 138.207C276.303 138.704 276.809 139.471 278 139.471C279.074 139.471 279.588 138.74 279.588 138.126C279.588 137.485 279.173 137.007 278.388 136.836L277.684 136.682C277.35 136.61 277.188 136.421 277.188 136.159C277.188 135.861 277.477 135.581 277.91 135.581C278.596 135.581 278.776 136.078 278.812 136.303L279.561 136.023C279.471 135.635 279.101 134.859 277.91 134.859C277.061 134.859 276.367 135.491 276.367 136.231C276.367 136.845 276.773 137.305 277.449 137.449L278.189 137.612C278.55 137.693 278.749 137.901 278.749 138.171C278.749 138.478 278.487 138.749 278.009 138.749C277.395 138.749 277.052 138.388 276.998 137.937L276.231 138.207ZM280.627 138.758C280.627 139.11 280.898 139.381 281.25 139.381C281.602 139.381 281.882 139.11 281.882 138.758C281.882 138.406 281.602 138.126 281.25 138.126C280.898 138.126 280.627 138.406 280.627 138.758ZM283.148 138.758C283.148 139.11 283.419 139.381 283.771 139.381C284.122 139.381 284.402 139.11 284.402 138.758C284.402 138.406 284.122 138.126 283.771 138.126C283.419 138.126 283.148 138.406 283.148 138.758ZM285.668 138.758C285.668 139.11 285.939 139.381 286.291 139.381C286.643 139.381 286.923 139.11 286.923 138.758C286.923 138.406 286.643 138.126 286.291 138.126C285.939 138.126 285.668 138.406 285.668 138.758Z" fill="#707070"/>
<path d="M163.819 152.575C163.81 152.485 163.801 152.394 163.801 152.313C163.801 151.645 164.162 151.113 164.929 151.113C165.669 151.113 166.03 151.609 166.03 152.142C166.03 152.593 165.777 153.008 165.227 153.36L164.252 153.992C163.259 154.633 162.88 155.363 162.862 156.32H166.959V155.499H163.954C164.035 155.138 164.333 154.894 164.667 154.678L165.822 153.938C166.49 153.513 166.923 152.9 166.923 152.133C166.923 151.158 166.201 150.337 164.947 150.337C163.665 150.337 162.925 151.23 162.925 152.232C162.925 152.304 162.925 152.385 162.934 152.467L163.819 152.575ZM168.884 156.32V153.703C168.884 153.053 169.29 152.602 169.895 152.602C170.545 152.602 170.815 153.035 170.815 153.595V156.32H171.664V153.694C171.664 153.071 172.07 152.602 172.665 152.602C173.306 152.602 173.586 153.026 173.586 153.595V156.32H174.425V153.504C174.425 152.367 173.685 151.853 172.927 151.853C172.377 151.853 171.817 152.052 171.474 152.674C171.24 152.115 170.716 151.853 170.175 151.853C169.669 151.853 169.128 152.079 168.857 152.557V151.979H168.045V156.32H168.884ZM178.887 156.32V149.786H178.039V156.32H178.887ZM180.881 153.703C180.917 153.143 181.35 152.593 182.063 152.593C182.83 152.593 183.236 153.08 183.254 153.703H180.881ZM183.38 154.831C183.218 155.318 182.866 155.706 182.162 155.706C181.431 155.706 180.872 155.165 180.853 154.389H184.12C184.129 154.335 184.138 154.226 184.138 154.118C184.138 152.764 183.389 151.844 182.054 151.844C180.962 151.844 179.978 152.773 179.978 154.136C179.978 155.607 180.998 156.455 182.162 156.455C183.173 156.455 183.868 155.851 184.111 155.084L183.38 154.831ZM187.405 152.746V151.979H186.358V151.293C186.358 150.698 186.746 150.553 187.044 150.553C187.261 150.553 187.369 150.59 187.414 150.608V149.85C187.378 149.823 187.198 149.759 186.909 149.759C186.124 149.759 185.483 150.283 185.483 151.248V151.979H184.68V152.746H185.483V156.32H186.358V152.746H187.405ZM189.452 150.608H188.676V151.312C188.676 151.691 188.477 151.979 188.008 151.979H187.773V152.746H188.603V155.129C188.603 155.914 189.073 156.365 189.813 156.365C190.101 156.365 190.318 156.311 190.39 156.284V155.562C190.318 155.58 190.165 155.598 190.056 155.598C189.614 155.598 189.452 155.4 189.452 155.003V152.746H190.39V151.979H189.452V150.608Z" fill="#A0A0A0"/>
<g filter="url(#filter9_b_2627_69090)">
<rect x="162.546" y="169.328" width="430" height="4.52314" rx="2.26157" fill="url(#paint16_linear_2627_69090)"/>
</g>
<rect x="162.546" y="169.328" width="121.921" height="4.52314" rx="2.26157" fill="url(#paint17_linear_2627_69090)"/>
<rect x="0.546387" y="0.335449" width="332" height="260" fill="url(#paint18_radial_2627_69090)"/>
</g>
<defs>
<filter id="filter0_f_2627_69090" x="-219.134" y="-212.344" width="932.36" height="651.36" filterUnits="userSpaceOnUse" color-interpolation-filters="sRGB">
<feFlood flood-opacity="0" result="BackgroundImageFix"/>
<feBlend mode="normal" in="SourceGraphic" in2="BackgroundImageFix" result="shape"/>
<feGaussianBlur stdDeviation="119.84" result="effect1_foregroundBlur_2627_69090"/>
</filter>
<filter id="filter1_b_2627_69090" x="-226.454" y="31.3354" width="308.212" height="231.955" filterUnits="userSpaceOnUse" color-interpolation-filters="sRGB">
<feFlood flood-opacity="0" result="BackgroundImageFix"/>
<feGaussianBlur in="BackgroundImageFix" stdDeviation="7.5"/>
<feComposite in2="SourceAlpha" operator="in" result="effect1_backgroundBlur_2627_69090"/>
<feBlend mode="normal" in="SourceGraphic" in2="effect1_backgroundBlur_2627_69090" result="shape"/>
</filter>
<filter id="filter2_b_2627_69090" x="-216.532" y="37.5588" width="308.212" height="231.955" filterUnits="userSpaceOnUse" color-interpolation-filters="sRGB">
<feFlood flood-opacity="0" result="BackgroundImageFix"/>
<feGaussianBlur in="BackgroundImageFix" stdDeviation="7.5"/>
<feComposite in2="SourceAlpha" operator="in" result="effect1_backgroundBlur_2627_69090"/>
<feBlend mode="normal" in="SourceGraphic" in2="effect1_backgroundBlur_2627_69090" result="shape"/>
</filter>
<filter id="filter3_b_2627_69090" x="-173.454" y="43.3354" width="273.017" height="216.872" filterUnits="userSpaceOnUse" color-interpolation-filters="sRGB">
<feFlood flood-opacity="0" result="BackgroundImageFix"/>
<feGaussianBlur in="BackgroundImageFix" stdDeviation="7.5"/>
<feComposite in2="SourceAlpha" operator="in" result="effect1_backgroundBlur_2627_69090"/>
<feBlend mode="normal" in="SourceGraphic" in2="effect1_backgroundBlur_2627_69090" result="shape"/>
</filter>
<filter id="filter4_b_2627_69090" x="-200.454" y="50.3354" width="308.212" height="231.955" filterUnits="userSpaceOnUse" color-interpolation-filters="sRGB">
<feFlood flood-opacity="0" result="BackgroundImageFix"/>
<feGaussianBlur in="BackgroundImageFix" stdDeviation="7.5"/>
<feComposite in2="SourceAlpha" operator="in" result="effect1_backgroundBlur_2627_69090"/>
<feBlend mode="normal" in="SourceGraphic" in2="effect1_backgroundBlur_2627_69090" result="shape"/>
</filter>
<filter id="filter5_b_2627_69090" x="-113.245" y="57.1582" width="245.047" height="176.332" filterUnits="userSpaceOnUse" color-interpolation-filters="sRGB">
<feFlood flood-opacity="0" result="BackgroundImageFix"/>
<feGaussianBlur in="BackgroundImageFix" stdDeviation="7.21154"/>
<feComposite in2="SourceAlpha" operator="in" result="effect1_backgroundBlur_2627_69090"/>
<feBlend mode="normal" in="SourceGraphic" in2="effect1_backgroundBlur_2627_69090" result="shape"/>
</filter>
<filter id="filter6_b_2627_69090" x="-169.454" y="74.3354" width="308" height="244" filterUnits="userSpaceOnUse" color-interpolation-filters="sRGB">
<feFlood flood-opacity="0" result="BackgroundImageFix"/>
<feGaussianBlur in="BackgroundImageFix" stdDeviation="7.5"/>
<feComposite in2="SourceAlpha" operator="in" result="effect1_backgroundBlur_2627_69090"/>
<feBlend mode="normal" in="SourceGraphic" in2="effect1_backgroundBlur_2627_69090" result="shape"/>
</filter>
<filter id="filter7_b_2627_69090" x="-203.454" y="82.3354" width="349" height="261" filterUnits="userSpaceOnUse" color-interpolation-filters="sRGB">
<feFlood flood-opacity="0" result="BackgroundImageFix"/>
<feGaussianBlur in="BackgroundImageFix" stdDeviation="7.5"/>
<feComposite in2="SourceAlpha" operator="in" result="effect1_backgroundBlur_2627_69090"/>
<feBlend mode="normal" in="SourceGraphic" in2="effect1_backgroundBlur_2627_69090" result="shape"/>
</filter>
<filter id="filter8_b_2627_69090" x="128.123" y="57.9124" width="507.66" height="239.846" filterUnits="userSpaceOnUse" color-interpolation-filters="sRGB">
<feFlood flood-opacity="0" result="BackgroundImageFix"/>
<feGaussianBlur in="BackgroundImageFix" stdDeviation="7.21154"/>
<feComposite in2="SourceAlpha" operator="in" result="effect1_backgroundBlur_2627_69090"/>
<feBlend mode="normal" in="SourceGraphic" in2="effect1_backgroundBlur_2627_69090" result="shape"/>
</filter>
<filter id="filter9_b_2627_69090" x="148.123" y="154.905" width="458.846" height="33.3693" filterUnits="userSpaceOnUse" color-interpolation-filters="sRGB">
<feFlood flood-opacity="0" result="BackgroundImageFix"/>
<feGaussianBlur in="BackgroundImageFix" stdDeviation="7.21154"/>
<feComposite in2="SourceAlpha" operator="in" result="effect1_backgroundBlur_2627_69090"/>
<feBlend mode="normal" in="SourceGraphic" in2="effect1_backgroundBlur_2627_69090" result="shape"/>
</filter>
<linearGradient id="paint0_linear_2627_69090" x1="-94.2194" y1="-95.3131" x2="167.027" y2="110.69" gradientUnits="userSpaceOnUse">
<stop stop-color="white" stop-opacity="0"/>
<stop offset="1" stop-color="white" stop-opacity="0.19"/>
</linearGradient>
<linearGradient id="paint1_linear_2627_69090" x1="-97.2318" y1="42.127" x2="-7.73099" y2="214.798" gradientUnits="userSpaceOnUse">
<stop stop-color="#DDE1E1"/>
<stop offset="1" stop-color="#DEDEDE" stop-opacity="0"/>
</linearGradient>
<linearGradient id="paint2_linear_2627_69090" x1="-84.2975" y1="-89.0897" x2="176.949" y2="116.913" gradientUnits="userSpaceOnUse">
<stop stop-color="white" stop-opacity="0"/>
<stop offset="1" stop-color="white" stop-opacity="0.19"/>
</linearGradient>
<linearGradient id="paint3_linear_2627_69090" x1="-87.3099" y1="48.3504" x2="2.19088" y2="221.021" gradientUnits="userSpaceOnUse">
<stop stop-color="#DDE1E1"/>
<stop offset="1" stop-color="#DEDEDE" stop-opacity="0"/>
</linearGradient>
<linearGradient id="paint4_linear_2627_69090" x1="-56.0502" y1="-72.7335" x2="182.086" y2="104.531" gradientUnits="userSpaceOnUse">
<stop stop-color="white" stop-opacity="0"/>
<stop offset="1" stop-color="white" stop-opacity="0.19"/>
</linearGradient>
<linearGradient id="paint5_linear_2627_69090" x1="-58.6816" y1="54.4413" x2="26.835" y2="210.187" gradientUnits="userSpaceOnUse">
<stop stop-color="#DDE1E1"/>
<stop offset="1" stop-color="#DEDEDE" stop-opacity="0"/>
</linearGradient>
<linearGradient id="paint6_linear_2627_69090" x1="-68.2194" y1="-76.3131" x2="193.027" y2="129.69" gradientUnits="userSpaceOnUse">
<stop stop-color="white" stop-opacity="0"/>
<stop offset="1" stop-color="white" stop-opacity="0.19"/>
</linearGradient>
<linearGradient id="paint7_linear_2627_69090" x1="-71.2318" y1="61.127" x2="18.269" y2="233.798" gradientUnits="userSpaceOnUse">
<stop stop-color="#DDE1E1"/>
<stop offset="1" stop-color="#DEDEDE" stop-opacity="0"/>
</linearGradient>
<linearGradient id="paint8_linear_2627_69090" x1="9.27829" y1="71.5813" x2="9.27829" y2="219.067" gradientUnits="userSpaceOnUse">
<stop stop-color="white" stop-opacity="0.26"/>
<stop offset="1" stop-color="white" stop-opacity="0"/>
</linearGradient>
<linearGradient id="paint9_linear_2627_69090" x1="103.491" y1="71.5813" x2="93.428" y2="117.58" gradientUnits="userSpaceOnUse">
<stop stop-color="#171717" stop-opacity="0.51"/>
<stop offset="1" stop-color="white" stop-opacity="0"/>
</linearGradient>
<linearGradient id="paint10_linear_2627_69090" x1="-37.3088" y1="-60.7611" x2="235.315" y2="141.959" gradientUnits="userSpaceOnUse">
<stop stop-color="white" stop-opacity="0"/>
<stop offset="1" stop-color="white" stop-opacity="0.19"/>
</linearGradient>
<linearGradient id="paint11_linear_2627_69090" x1="-40.319" y1="84.876" x2="57.6681" y2="263.143" gradientUnits="userSpaceOnUse">
<stop stop-color="#DDE1E1"/>
<stop offset="1" stop-color="#DEDEDE" stop-opacity="0"/>
</linearGradient>
<linearGradient id="paint12_linear_2627_69090" x1="-54.0321" y1="-64.6846" x2="244.955" y2="171.653" gradientUnits="userSpaceOnUse">
<stop stop-color="white" stop-opacity="0"/>
<stop offset="1" stop-color="white" stop-opacity="0.19"/>
</linearGradient>
<linearGradient id="paint13_linear_2627_69090" x1="-57.4862" y1="92.5218" x2="44.7426" y2="290.229" gradientUnits="userSpaceOnUse">
<stop stop-color="#DDE1E1"/>
<stop offset="1" stop-color="#DEDEDE" stop-opacity="0"/>
</linearGradient>
<linearGradient id="paint14_linear_2627_69090" x1="151.565" y1="72.3354" x2="290.66" y2="138.132" gradientUnits="userSpaceOnUse">
<stop stop-color="white" stop-opacity="0.7"/>
<stop offset="1" stop-color="white" stop-opacity="0"/>
</linearGradient>
<linearGradient id="paint15_linear_2627_69090" x1="161.115" y1="72.3354" x2="175.786" y2="133.116" gradientUnits="userSpaceOnUse">
<stop stop-color="#171717" stop-opacity="0.37"/>
<stop offset="1" stop-color="white" stop-opacity="0"/>
</linearGradient>
<linearGradient id="paint16_linear_2627_69090" x1="280.227" y1="164.646" x2="377.546" y2="173.851" gradientUnits="userSpaceOnUse">
<stop stop-color="#CDCDCD" stop-opacity="0.26"/>
<stop offset="1" stop-color="white" stop-opacity="0"/>
</linearGradient>
<linearGradient id="paint17_linear_2627_69090" x1="168.572" y1="171.589" x2="459.558" y2="171.589" gradientUnits="userSpaceOnUse">
<stop stop-color="#22BB76" stop-opacity="0.83"/>
<stop offset="1" stop-color="#6CE2AD" stop-opacity="0"/>
</linearGradient>
<radialGradient id="paint18_radial_2627_69090" cx="0" cy="0" r="1" gradientUnits="userSpaceOnUse" gradientTransform="translate(163.551 19.3355) rotate(90) scale(225 376.615)">
<stop offset="0.629777" stop-color="white" stop-opacity="0"/>
<stop offset="1" stop-color="white"/>
</radialGradient>
<clipPath id="clip0_2627_69090">
<rect width="332" height="260" fill="white" transform="translate(0.546387 0.335449)"/>
</clipPath>
</defs>
</svg>
