<svg xmlns="http://www.w3.org/2000/svg" width="21" height="21" fill="none"><path fill="url(#a)" fill-rule="evenodd" d="m3.51 3.22.5-.5h12.5l.5.5v3.995l2.444 2.48-.356.85h-2.085v5.175h-.003v2.5l-.5.5H4.01l-.5-.5v-5l.5-.5h.127v-4H4.01l-.5-.5v-5Zm12.5.5V6.2l-1.706-1.73h-.712l-3.204 3.25H4.51v-4h11.5Zm-10.873 5h4.266l-.961.975.356.85h2.28v2.175h-5.94v-4Zm-.627 5h6.568v1.337h1v-5.011l-.5-.5H9.993l3.955-4.012 3.955 4.012h-1.39l-.5.5v4.618h-.003v3.056H4.51v-4Zm8.923-3.032v5.62h1v-5.62h-1Z" clip-rule="evenodd"/><defs><linearGradient id="a" x1="3.51" x2="19.51" y1="18.72" y2="2.776" gradientUnits="userSpaceOnUse"><stop stop-color="#EDEDED" stop-opacity=".5"/><stop offset="1" stop-color="#fff"/></linearGradient></defs></svg>