<svg width="412" height="230" viewBox="0 0 412 230" fill="none" xmlns="http://www.w3.org/2000/svg">
<path d="M123.791 83.6572L95.7773 99.6652L123.791 115.673M123.791 83.6572L151.805 99.6652L123.791 115.673M123.791 83.6572V115.673" stroke="#ECEEF0"/>
<path d="M123.791 51.6414L95.7773 67.6493L123.791 83.6572M123.791 51.6414L151.805 67.6493L123.791 83.6572M123.791 51.6414V83.6572" stroke="#ECEEF0"/>
<path d="M67.7639 83.6572L39.75 99.6652L67.7639 115.673M67.7639 83.6572L95.7778 99.6652L67.7639 115.673M67.7639 83.6572V115.673" stroke="#ECEEF0"/>
<path d="M207.836 3.61768L11.6855 115.703L207.836 227.789L403.986 115.703L207.836 3.61768Z" stroke="#ECEEF0"/>
<path d="M67.7639 115.673L39.75 131.681L67.7639 147.689M67.7639 115.673L95.7778 131.681L67.7639 147.689M67.7639 115.673V147.689" stroke="#ECEEF0"/>
<path d="M123.791 115.673L95.7773 131.681L123.791 147.689M123.791 115.673L151.805 131.681L123.791 147.689M123.791 115.673V147.689" stroke="#ECEEF0"/>
<path d="M123.791 147.689L95.7773 163.697L123.791 179.705M123.791 147.689L151.805 163.697L123.791 179.705M123.791 147.689V179.705" stroke="#ECEEF0"/>
<path d="M179.819 83.6572L151.805 99.6652L179.819 115.673M179.819 83.6572L207.832 99.6652L179.819 115.673M179.819 83.6572V115.673" stroke="#ECEEF0"/>
<path d="M179.819 51.6414L151.805 67.6493L179.819 83.6572M179.819 51.6414L207.832 67.6493L179.819 83.6572M179.819 51.6414V83.6572" stroke="#ECEEF0"/>
<path d="M179.819 19.6255L151.805 35.6334L179.819 51.6413M179.819 19.6255L207.832 35.6334L179.819 51.6413M179.819 19.6255V51.6413" stroke="#ECEEF0"/>
<path d="M179.819 115.673L151.805 131.681L179.819 147.689M179.819 115.673L207.832 131.681L179.819 147.689M179.819 115.673V147.689" stroke="#ECEEF0"/>
<path d="M179.819 147.689L151.805 163.697L179.819 179.705M179.819 147.689L207.832 163.697L179.819 179.705M179.819 147.689V179.705" stroke="#ECEEF0"/>
<path d="M179.819 179.705L151.805 195.713L179.819 211.721M179.819 179.705L207.832 195.713L179.819 211.721M179.819 179.705V211.721" stroke="#ECEEF0"/>
<path d="M235.848 83.6572L207.834 99.6652L235.848 115.673M235.848 83.6572L263.862 99.6652L235.848 115.673M235.848 83.6572V115.673" stroke="#ECEEF0"/>
<path d="M235.848 51.6414L207.834 67.6493L235.848 83.6572M235.848 51.6414L263.862 67.6493L235.848 83.6572M235.848 51.6414V83.6572" stroke="#ECEEF0"/>
<path d="M235.848 19.6255L207.834 35.6334L235.848 51.6413M235.848 19.6255L263.862 35.6334L235.848 51.6413M235.848 19.6255V51.6413" stroke="#ECEEF0"/>
<path d="M235.848 115.673L207.834 131.681L235.848 147.689M235.848 115.673L263.862 131.681L235.848 147.689M235.848 115.673V147.689" stroke="#ECEEF0"/>
<path d="M207.951 131.678L179.794 147.738L151.43 131.678" stroke="#ECEEF0"/>
<path d="M235.848 147.689L207.834 163.697L235.848 179.705M235.848 147.689L263.862 163.697L235.848 179.705M235.848 147.689V179.705" stroke="#ECEEF0"/>
<path d="M235.848 179.705L207.834 195.713L235.848 211.721M235.848 179.705L263.862 195.713L235.848 211.721M235.848 179.705V211.721" stroke="#ECEEF0"/>
<path d="M291.875 83.6572L263.861 99.6652L291.875 115.673M291.875 83.6572L319.889 99.6652L291.875 115.673M291.875 83.6572V115.673" stroke="#ECEEF0"/>
<path d="M347.903 83.6572L319.889 99.6652L347.903 115.673M347.903 83.6572L375.916 99.6652L347.903 115.673M347.903 83.6572V115.673" stroke="#ECEEF0"/>
<path d="M291.875 51.6414L263.861 67.6493L291.875 83.6572M291.875 51.6414L319.889 67.6493L291.875 83.6572M291.875 51.6414V83.6572" stroke="#ECEEF0"/>
<path d="M291.875 115.673L263.861 131.681L291.875 147.689M291.875 115.673L319.889 131.681L291.875 147.689M291.875 115.673V147.689" stroke="#ECEEF0"/>
<path d="M347.903 115.673L319.889 131.681L347.903 147.689M347.903 115.673L375.916 131.681L347.903 147.689M347.903 115.673V147.689" stroke="#ECEEF0"/>
<path d="M291.875 147.689L263.861 163.697L291.875 179.705M291.875 147.689L319.889 163.697L291.875 179.705M291.875 147.689V179.705" stroke="#ECEEF0"/>
<g filter="url(#filter0_b_180_16877)">
<path d="M235.92 101.412L207.984 117.791L179.818 101.472L207.99 85.3516L235.92 101.412Z" fill="white"/>
<path d="M235.966 101.399L235.926 116.403L207.946 132.642L207.985 117.761L235.966 101.399Z" fill="white"/>
<path d="M207.985 117.756L207.945 132.627L179.779 116.359L179.819 101.487L207.985 117.756Z" fill="white"/>
<path d="M235.92 101.412L207.984 117.791L179.818 101.472L207.99 85.3516L235.92 101.412Z" stroke="#C1C8CD" stroke-linejoin="bevel"/>
<path d="M235.966 101.399L235.926 116.403L207.946 132.642L207.985 117.761L235.966 101.399Z" stroke="#C1C8CD" stroke-linejoin="bevel"/>
<path d="M207.985 117.756L207.945 132.627L179.779 116.359L179.819 101.487L207.985 117.756Z" stroke="#C1C8CD" stroke-linejoin="bevel"/>
</g>
<defs>
<filter id="filter0_b_180_16877" x="178.508" y="84.146" width="58.7305" height="49.7002" filterUnits="userSpaceOnUse" color-interpolation-filters="sRGB">
<feFlood flood-opacity="0" result="BackgroundImageFix"/>
<feGaussianBlur in="BackgroundImageFix" stdDeviation="0.385753"/>
<feComposite in2="SourceAlpha" operator="in" result="effect1_backgroundBlur_180_16877"/>
<feBlend mode="normal" in="SourceGraphic" in2="effect1_backgroundBlur_180_16877" result="shape"/>
</filter>
</defs>
</svg>
