<svg xmlns="http://www.w3.org/2000/svg" width="412" height="230" fill="none" viewBox="0 0 412 230"><path stroke="#eceef0" d="M123.791 83.657 95.777 99.665l28.014 16.008m0-32.016 28.014 16.008-28.014 16.008m0-32.016v32.016"/><path stroke="#eceef0" d="M123.791 51.641 95.777 67.65l28.014 16.008m0-32.016 28.014 16.008-28.014 16.008m0-32.016v32.016M67.764 83.657 39.75 99.665l28.014 16.008m0-32.016 28.014 16.008-28.014 16.008m0-32.016v32.016"/><path stroke="#eceef0" d="M207.836 3.618 11.686 115.703l196.15 112.086 196.15-112.086z"/><path stroke="#eceef0" d="M67.764 115.673 39.75 131.681l28.014 16.008m0-32.016 28.014 16.008-28.014 16.008m0-32.016v32.016"/><path stroke="#eceef0" d="m123.791 115.673-28.014 16.008 28.014 16.008m0-32.016 28.014 16.008-28.014 16.008m0-32.016v32.016"/><path stroke="#eceef0" d="m123.791 147.689-28.014 16.008 28.014 16.008m0-32.016 28.014 16.008-28.014 16.008m0-32.016v32.016M179.819 83.657l-28.014 16.008 28.014 16.008m0-32.016 28.013 16.008-28.013 16.008m0-32.016v32.016"/><path stroke="#eceef0" d="M179.819 51.641 151.805 67.65l28.014 16.008m0-32.016 28.013 16.008-28.013 16.008m0-32.016v32.016"/><path stroke="#eceef0" d="m179.819 19.626-28.014 16.007 28.014 16.008m0-32.015 28.013 16.007-28.013 16.008m0-32.015V51.64M179.819 115.673l-28.014 16.008 28.014 16.008m0-32.016 28.013 16.008-28.013 16.008m0-32.016v32.016"/><path stroke="#eceef0" d="m179.819 147.689-28.014 16.008 28.014 16.008m0-32.016 28.013 16.008-28.013 16.008m0-32.016v32.016M179.819 179.705l-28.014 16.008 28.014 16.008m0-32.016 28.013 16.008-28.013 16.008m0-32.016v32.016M235.848 83.657l-28.014 16.008 28.014 16.008m0-32.016 28.014 16.008-28.014 16.008m0-32.016v32.016"/><path stroke="#eceef0" d="M235.848 51.641 207.834 67.65l28.014 16.008m0-32.016 28.014 16.008-28.014 16.008m0-32.016v32.016"/><path stroke="#eceef0" d="m235.848 19.626-28.014 16.007 28.014 16.008m0-32.015 28.014 16.007-28.014 16.008m0-32.015V51.64M235.848 115.673l-28.014 16.008 28.014 16.008m0-32.016 28.014 16.008-28.014 16.008m0-32.016v32.016"/><path stroke="#eceef0" d="m207.951 131.678-28.157 16.06-28.364-16.06M235.848 147.689l-28.014 16.008 28.014 16.008m0-32.016 28.014 16.008-28.014 16.008m0-32.016v32.016M235.848 179.705l-28.014 16.008 28.014 16.008m0-32.016 28.014 16.008-28.014 16.008m0-32.016v32.016M291.875 83.657l-28.014 16.008 28.014 16.008m0-32.016 28.014 16.008-28.014 16.008m0-32.016v32.016M347.903 83.657l-28.014 16.008 28.014 16.008m0-32.016 28.013 16.008-28.013 16.008m0-32.016v32.016"/><path stroke="#eceef0" d="M291.875 51.641 263.861 67.65l28.014 16.008m0-32.016 28.014 16.008-28.014 16.008m0-32.016v32.016M291.875 115.673l-28.014 16.008 28.014 16.008m0-32.016 28.014 16.008-28.014 16.008m0-32.016v32.016M347.903 115.673l-28.014 16.008 28.014 16.008m0-32.016 28.013 16.008-28.013 16.008m0-32.016v32.016"/><path stroke="#eceef0" d="m291.875 147.689-28.014 16.008 28.014 16.008m0-32.016 28.014 16.008-28.014 16.008m0-32.016v32.016"/><g filter="url(#a)"><path fill="#fff" d="m235.92 101.412-27.936 16.379-28.166-16.319 28.172-16.12z"/><path fill="#fff" d="m235.966 101.399-.04 15.004-27.98 16.239.039-14.881zM207.985 117.756l-.04 14.871-28.166-16.268.04-14.872z"/><path stroke="#c1c8cd" stroke-linejoin="bevel" d="m235.92 101.412-27.936 16.379-28.166-16.319 28.172-16.12z"/><path stroke="#c1c8cd" stroke-linejoin="bevel" d="m235.966 101.399-.04 15.004-27.98 16.239.039-14.881zM207.985 117.756l-.04 14.871-28.166-16.268.04-14.872z"/></g><defs><filter id="a" width="58.73" height="49.7" x="178.508" y="84.146" color-interpolation-filters="sRGB" filterUnits="userSpaceOnUse"><feFlood flood-opacity="0" result="BackgroundImageFix"/><feGaussianBlur in="BackgroundImageFix" stdDeviation=".386"/><feComposite in2="SourceAlpha" operator="in" result="effect1_backgroundBlur_180_16877"/><feBlend in="SourceGraphic" in2="effect1_backgroundBlur_180_16877" result="shape"/></filter></defs></svg>