<svg width="159" height="104" viewBox="0 0 159 104" fill="none" xmlns="http://www.w3.org/2000/svg">
<g clip-path="url(#clip0_212_15244)">
<g filter="url(#filter0_b_212_15244)">
<rect x="141.477" y="17" width="32" height="187.5" rx="16" transform="rotate(90 141.477 17)" fill="#161616"/>
<rect x="141.977" y="16.5" width="33" height="188.5" rx="16.5" transform="rotate(90 141.977 16.5)" stroke="#EDEDED"/>
</g>
<path d="M-91.4354 33.604V37H-92.5634V28.312H-91.4354V31.9C-91.0154 31.288 -90.3434 31.06 -89.6834 31.06C-88.3034 31.06 -87.6194 32.056 -87.6194 33.34V37H-88.7474V33.532C-88.7474 32.728 -89.0834 32.08 -90.0914 32.08C-90.9554 32.08 -91.4114 32.752 -91.4354 33.604ZM-84.3132 29.404V31.228H-83.0652V32.248H-84.3132V35.248C-84.3132 35.776 -84.0972 36.04 -83.5092 36.04C-83.3652 36.04 -83.1612 36.016 -83.0652 35.992V36.952C-83.1612 36.988 -83.4492 37.06 -83.8332 37.06C-84.8172 37.06 -85.4412 36.46 -85.4412 35.416V32.248H-86.5452V31.228H-86.2332C-85.6092 31.228 -85.3452 30.844 -85.3452 30.34V29.404H-84.3132ZM-80.0475 29.404V31.228H-78.7995V32.248H-80.0475V35.248C-80.0475 35.776 -79.8315 36.04 -79.2435 36.04C-79.0995 36.04 -78.8955 36.016 -78.7995 35.992V36.952C-78.8955 36.988 -79.1835 37.06 -79.5675 37.06C-80.5515 37.06 -81.1755 36.46 -81.1755 35.416V32.248H-82.2795V31.228H-81.9675C-81.3435 31.228 -81.0795 30.844 -81.0795 30.34V29.404H-80.0475ZM-76.2951 39.28H-77.4111V31.228H-76.3191V32.128C-76.0071 31.552 -75.3231 31.096 -74.3871 31.096C-72.6591 31.096 -71.7351 32.428 -71.7351 34.108C-71.7351 35.824 -72.7311 37.156 -74.4231 37.156C-75.3111 37.156 -75.9831 36.736 -76.2951 36.22V39.28ZM-72.8871 34.108C-72.8871 32.956 -73.5351 32.092 -74.5911 32.092C-75.6231 32.092 -76.3071 32.956 -76.3071 34.108C-76.3071 35.296 -75.6231 36.148 -74.5911 36.148C-73.5471 36.148 -72.8871 35.296 -72.8871 34.108ZM-70.8378 35.5L-69.8178 35.14C-69.7458 35.74 -69.2898 36.22 -68.4738 36.22C-67.8378 36.22 -67.4898 35.86 -67.4898 35.452C-67.4898 35.092 -67.7538 34.816 -68.2338 34.708L-69.2178 34.492C-70.1178 34.3 -70.6578 33.688 -70.6578 32.872C-70.6578 31.888 -69.7338 31.048 -68.6058 31.048C-67.0218 31.048 -66.5298 32.08 -66.4098 32.596L-67.4058 32.968C-67.4538 32.668 -67.6938 32.008 -68.6058 32.008C-69.1818 32.008 -69.5658 32.38 -69.5658 32.776C-69.5658 33.124 -69.3498 33.376 -68.9058 33.472L-67.9698 33.676C-66.9258 33.904 -66.3738 34.54 -66.3738 35.392C-66.3738 36.208 -67.0578 37.18 -68.4858 37.18C-70.0698 37.18 -70.7418 36.16 -70.8378 35.5ZM-64.92 36.232C-64.92 35.764 -64.56 35.392 -64.092 35.392C-63.624 35.392 -63.252 35.764 -63.252 36.232C-63.252 36.7 -63.624 37.06 -64.092 37.06C-64.56 37.06 -64.92 36.7 -64.92 36.232ZM-64.932 32.008C-64.932 31.54 -64.572 31.168 -64.104 31.168C-63.636 31.168 -63.264 31.54 -63.264 32.008C-63.264 32.476 -63.636 32.836 -64.104 32.836C-64.572 32.836 -64.932 32.476 -64.932 32.008ZM-57.1436 28.492L-61.2596 37H-62.3516L-58.2356 28.492H-57.1436ZM-53.6162 28.492L-57.7322 37H-58.8242L-54.7082 28.492H-53.6162ZM-54.162 35.5L-53.142 35.14C-53.07 35.74 -52.614 36.22 -51.798 36.22C-51.162 36.22 -50.814 35.86 -50.814 35.452C-50.814 35.092 -51.078 34.816 -51.558 34.708L-52.542 34.492C-53.442 34.3 -53.982 33.688 -53.982 32.872C-53.982 31.888 -53.058 31.048 -51.93 31.048C-50.346 31.048 -49.854 32.08 -49.734 32.596L-50.73 32.968C-50.778 32.668 -51.018 32.008 -51.93 32.008C-52.506 32.008 -52.89 32.38 -52.89 32.776C-52.89 33.124 -52.674 33.376 -52.23 33.472L-51.294 33.676C-50.25 33.904 -49.698 34.54 -49.698 35.392C-49.698 36.208 -50.382 37.18 -51.81 37.18C-53.394 37.18 -54.066 36.16 -54.162 35.5ZM-43.0828 39.28H-44.1988V36.184C-44.4988 36.772 -45.1468 37.156 -45.9988 37.156C-47.6548 37.156 -48.7348 35.776 -48.7348 34.096C-48.7348 32.464 -47.7148 31.084 -46.0228 31.084C-45.0268 31.084 -44.4148 31.6 -44.1748 32.116V31.228H-43.0828V39.28ZM-47.5828 34.096C-47.5828 35.284 -46.9228 36.16 -45.8908 36.16C-44.8708 36.16 -44.1868 35.284 -44.1868 34.096C-44.1868 32.908 -44.8708 32.08 -45.8908 32.08C-46.9348 32.08 -47.5828 32.908 -47.5828 34.096ZM-36.3382 31.228L-38.6422 37H-39.7822L-42.1222 31.228H-40.8502L-39.2062 35.68L-37.5502 31.228H-36.3382ZM-32.179 32.248H-33.571V37H-34.735V32.248H-35.803V31.228H-34.735V30.256C-34.735 28.972 -33.883 28.276 -32.839 28.276C-32.455 28.276 -32.215 28.36 -32.167 28.396V29.404C-32.227 29.38 -32.371 29.332 -32.659 29.332C-33.055 29.332 -33.571 29.524 -33.571 30.316V31.228H-32.179V32.248ZM-30.5321 34.096C-30.5321 35.284 -29.9201 36.16 -28.8401 36.16C-27.8081 36.16 -27.1721 35.26 -27.1721 34.072C-27.1721 32.884 -27.7961 32.068 -28.8281 32.068C-29.8601 32.068 -30.5321 32.908 -30.5321 34.096ZM-27.1601 36.22V36.124C-27.4361 36.676 -28.0481 37.156 -28.9481 37.156C-30.6401 37.156 -31.6841 35.812 -31.6841 34.096C-31.6841 32.464 -30.5801 31.072 -28.9481 31.072C-27.9281 31.072 -27.3761 31.576 -27.1841 32.044V28.312H-26.0681V35.932C-26.0681 36.484 -26.0201 36.904 -26.0081 37H-27.1001C-27.1241 36.868 -27.1601 36.568 -27.1601 36.22ZM-20.404 36.304C-20.716 36.904 -21.436 37.18 -22.108 37.18C-23.452 37.18 -24.268 36.172 -24.268 34.864V31.228H-23.14V34.696C-23.14 35.488 -22.78 36.184 -21.832 36.184C-20.92 36.184 -20.464 35.584 -20.464 34.708V31.228H-19.336V35.932C-19.336 36.388 -19.3 36.796 -19.276 37H-20.356C-20.38 36.868 -20.404 36.544 -20.404 36.304ZM-16.2951 37H-17.4111V31.228H-16.2951V37ZM-17.6631 29.044C-17.6631 28.588 -17.3031 28.228 -16.8591 28.228C-16.4031 28.228 -16.0431 28.588 -16.0431 29.044C-16.0431 29.488 -16.4031 29.848 -16.8591 29.848C-17.3031 29.848 -17.6631 29.488 -17.6631 29.044ZM-14.7359 35.452C-14.7359 34.42 -13.9799 33.844 -12.9839 33.7L-11.4239 33.472C-11.0759 33.424 -10.9799 33.244 -10.9799 33.04C-10.9799 32.476 -11.3519 32.008 -12.2279 32.008C-13.0199 32.008 -13.4639 32.5 -13.5359 33.172L-14.6159 32.92C-14.4959 31.816 -13.4999 31.048 -12.2519 31.048C-10.5239 31.048 -9.85194 32.032 -9.85194 33.16V36.052C-9.85194 36.556 -9.80394 36.856 -9.77994 37H-10.8839C-10.9079 36.856 -10.9439 36.64 -10.9439 36.22C-11.1959 36.628 -11.7719 37.18 -12.8039 37.18C-13.9799 37.18 -14.7359 36.364 -14.7359 35.452ZM-12.6479 36.232C-11.7239 36.232 -10.9799 35.788 -10.9799 34.528V34.264L-12.7439 34.528C-13.2239 34.6 -13.5839 34.876 -13.5839 35.392C-13.5839 35.824 -13.2239 36.232 -12.6479 36.232ZM-4.84269 31.228H-3.67869L-2.17869 35.572L-0.906687 31.228H0.281313L-1.59069 37H-2.75469L-4.29069 32.608L-5.79069 37H-6.97869L-8.87469 31.228H-7.63869L-6.34269 35.572L-4.84269 31.228ZM1.97575 34.096C1.97575 35.284 2.58775 36.16 3.66775 36.16C4.69975 36.16 5.33575 35.26 5.33575 34.072C5.33575 32.884 4.71175 32.068 3.67975 32.068C2.64775 32.068 1.97575 32.908 1.97575 34.096ZM5.34775 36.22V36.124C5.07175 36.676 4.45975 37.156 3.55975 37.156C1.86775 37.156 0.82375 35.812 0.82375 34.096C0.82375 32.464 1.92775 31.072 3.55975 31.072C4.57975 31.072 5.13175 31.576 5.32375 32.044V28.312H6.43975V35.932C6.43975 36.484 6.48775 36.904 6.49975 37H5.40775C5.38375 36.868 5.34775 36.568 5.34775 36.22ZM11.6104 31.228H12.7744L14.2744 35.572L15.5464 31.228H16.7344L14.8624 37H13.6984L12.1624 32.608L10.6624 37H9.47444L7.57844 31.228H8.81444L10.1104 35.572L11.6104 31.228ZM19.0021 33.664V37H17.8741V31.228H18.9781V32.056C19.3981 31.336 20.0821 31.06 20.7541 31.06C22.1341 31.06 22.8181 32.056 22.8181 33.34V37H21.6901V33.532C21.6901 32.728 21.3541 32.08 20.3461 32.08C19.4581 32.08 19.0021 32.788 19.0021 33.664ZM25.7403 33.664V37H24.6123V31.228H25.7163V32.056C26.1363 31.336 26.8203 31.06 27.4923 31.06C28.8723 31.06 29.5563 32.056 29.5563 33.34V37H28.4283V33.532C28.4283 32.728 28.0923 32.08 27.0843 32.08C26.1963 32.08 25.7403 32.788 25.7403 33.664ZM30.9906 35.452C30.9906 34.42 31.7466 33.844 32.7426 33.7L34.3026 33.472C34.6506 33.424 34.7466 33.244 34.7466 33.04C34.7466 32.476 34.3746 32.008 33.4986 32.008C32.7066 32.008 32.2626 32.5 32.1906 33.172L31.1106 32.92C31.2306 31.816 32.2266 31.048 33.4746 31.048C35.2026 31.048 35.8746 32.032 35.8746 33.16V36.052C35.8746 36.556 35.9226 36.856 35.9466 37H34.8426C34.8186 36.856 34.7826 36.64 34.7826 36.22C34.5306 36.628 33.9546 37.18 32.9226 37.18C31.7466 37.18 30.9906 36.364 30.9906 35.452ZM33.0786 36.232C34.0026 36.232 34.7466 35.788 34.7466 34.528V34.264L32.9826 34.528C32.5026 34.6 32.1426 34.876 32.1426 35.392C32.1426 35.824 32.5026 36.232 33.0786 36.232ZM38.3039 34.096C38.3039 35.284 38.9159 36.16 39.9959 36.16C41.0279 36.16 41.6639 35.26 41.6639 34.072C41.6639 32.884 41.0399 32.068 40.0079 32.068C38.9759 32.068 38.3039 32.908 38.3039 34.096ZM41.6759 36.22V36.124C41.3999 36.676 40.7879 37.156 39.8879 37.156C38.1959 37.156 37.1519 35.812 37.1519 34.096C37.1519 32.464 38.2559 31.072 39.8879 31.072C40.9079 31.072 41.4599 31.576 41.6519 32.044V28.312H42.7679V35.932C42.7679 36.484 42.8159 36.904 42.8279 37H41.7359C41.7119 36.868 41.6759 36.568 41.6759 36.22ZM44.3266 35.452C44.3266 34.42 45.0826 33.844 46.0786 33.7L47.6386 33.472C47.9866 33.424 48.0826 33.244 48.0826 33.04C48.0826 32.476 47.7106 32.008 46.8346 32.008C46.0426 32.008 45.5986 32.5 45.5266 33.172L44.4466 32.92C44.5666 31.816 45.5626 31.048 46.8106 31.048C48.5386 31.048 49.2106 32.032 49.2106 33.16V36.052C49.2106 36.556 49.2586 36.856 49.2826 37H48.1786C48.1546 36.856 48.1186 36.64 48.1186 36.22C47.8666 36.628 47.2906 37.18 46.2586 37.18C45.0826 37.18 44.3266 36.364 44.3266 35.452ZM46.4146 36.232C47.3386 36.232 48.0826 35.788 48.0826 34.528V34.264L46.3186 34.528C45.8386 34.6 45.4786 34.876 45.4786 35.392C45.4786 35.824 45.8386 36.232 46.4146 36.232ZM51.6398 34.096C51.6398 35.284 52.2518 36.16 53.3318 36.16C54.3638 36.16 54.9998 35.26 54.9998 34.072C54.9998 32.884 54.3758 32.068 53.3438 32.068C52.3118 32.068 51.6398 32.908 51.6398 34.096ZM55.0118 36.22V36.124C54.7358 36.676 54.1238 37.156 53.2238 37.156C51.5318 37.156 50.4878 35.812 50.4878 34.096C50.4878 32.464 51.5918 31.072 53.2238 31.072C54.2438 31.072 54.7958 31.576 54.9878 32.044V28.312H56.1038V35.932C56.1038 36.484 56.1518 36.904 56.1638 37H55.0718C55.0478 36.868 55.0118 36.568 55.0118 36.22ZM57.9025 36.232C57.9025 35.764 58.2625 35.392 58.7305 35.392C59.1985 35.392 59.5705 35.764 59.5705 36.232C59.5705 36.7 59.1985 37.06 58.7305 37.06C58.2625 37.06 57.9025 36.7 57.9025 36.232ZM60.8341 35.5L61.8541 35.14C61.9261 35.74 62.3821 36.22 63.1981 36.22C63.8341 36.22 64.1821 35.86 64.1821 35.452C64.1821 35.092 63.9181 34.816 63.4381 34.708L62.4541 34.492C61.5541 34.3 61.0141 33.688 61.0141 32.872C61.0141 31.888 61.9381 31.048 63.0661 31.048C64.6501 31.048 65.1421 32.08 65.2621 32.596L64.2661 32.968C64.2181 32.668 63.9781 32.008 63.0661 32.008C62.4901 32.008 62.1061 32.38 62.1061 32.776C62.1061 33.124 62.3221 33.376 62.7661 33.472L63.7021 33.676C64.7461 33.904 65.2981 34.54 65.2981 35.392C65.2981 36.208 64.6141 37.18 63.1861 37.18C61.6021 37.18 60.9301 36.16 60.8341 35.5ZM70.5453 36.304C70.2333 36.904 69.5133 37.18 68.8413 37.18C67.4973 37.18 66.6813 36.172 66.6813 34.864V31.228H67.8093V34.696C67.8093 35.488 68.1693 36.184 69.1173 36.184C70.0293 36.184 70.4853 35.584 70.4853 34.708V31.228H71.6133V35.932C71.6133 36.388 71.6493 36.796 71.6733 37H70.5933C70.5693 36.868 70.5453 36.544 70.5453 36.304ZM74.6541 39.28H73.5381V31.228H74.6301V32.128C74.9421 31.552 75.6261 31.096 76.5621 31.096C78.2901 31.096 79.2141 32.428 79.2141 34.108C79.2141 35.824 78.2181 37.156 76.5261 37.156C75.6381 37.156 74.9661 36.736 74.6541 36.22V39.28ZM78.0621 34.108C78.0621 32.956 77.4141 32.092 76.3581 32.092C75.3261 32.092 74.6421 32.956 74.6421 34.108C74.6421 35.296 75.3261 36.148 76.3581 36.148C77.4021 36.148 78.0621 35.296 78.0621 34.108ZM80.2914 35.452C80.2914 34.42 81.0474 33.844 82.0434 33.7L83.6034 33.472C83.9514 33.424 84.0474 33.244 84.0474 33.04C84.0474 32.476 83.6754 32.008 82.7994 32.008C82.0074 32.008 81.5634 32.5 81.4914 33.172L80.4114 32.92C80.5314 31.816 81.5274 31.048 82.7754 31.048C84.5034 31.048 85.1754 32.032 85.1754 33.16V36.052C85.1754 36.556 85.2234 36.856 85.2474 37H84.1434C84.1194 36.856 84.0834 36.64 84.0834 36.22C83.8314 36.628 83.2554 37.18 82.2234 37.18C81.0474 37.18 80.2914 36.364 80.2914 35.452ZM82.3794 36.232C83.3034 36.232 84.0474 35.788 84.0474 34.528V34.264L82.2834 34.528C81.8034 34.6 81.4434 34.876 81.4434 35.392C81.4434 35.824 81.8034 36.232 82.3794 36.232ZM88.0487 37H86.9327V28.312H88.0487V32.044C88.3247 31.528 88.9967 31.06 89.9567 31.06C91.7087 31.06 92.6087 32.404 92.6087 34.084C92.6087 35.8 91.6367 37.156 89.9207 37.156C89.0687 37.156 88.4087 36.784 88.0487 36.16V37ZM91.4567 34.084C91.4567 32.836 90.7967 32.056 89.7527 32.056C88.7567 32.056 88.0367 32.836 88.0367 34.084C88.0367 35.332 88.7567 36.148 89.7527 36.148C90.7847 36.148 91.4567 35.332 91.4567 34.084ZM93.6859 35.452C93.6859 34.42 94.4419 33.844 95.4379 33.7L96.9979 33.472C97.3459 33.424 97.4419 33.244 97.4419 33.04C97.4419 32.476 97.0699 32.008 96.1939 32.008C95.4019 32.008 94.9579 32.5 94.8859 33.172L93.8059 32.92C93.9259 31.816 94.9219 31.048 96.1699 31.048C97.8979 31.048 98.5699 32.032 98.5699 33.16V36.052C98.5699 36.556 98.6179 36.856 98.6419 37H97.5379C97.5139 36.856 97.4779 36.64 97.4779 36.22C97.2259 36.628 96.6499 37.18 95.6179 37.18C94.4419 37.18 93.6859 36.364 93.6859 35.452ZM95.7739 36.232C96.6979 36.232 97.4419 35.788 97.4419 34.528V34.264L95.6779 34.528C95.1979 34.6 94.8379 34.876 94.8379 35.392C94.8379 35.824 95.1979 36.232 95.7739 36.232ZM99.7872 35.5L100.807 35.14C100.879 35.74 101.335 36.22 102.151 36.22C102.787 36.22 103.135 35.86 103.135 35.452C103.135 35.092 102.871 34.816 102.391 34.708L101.407 34.492C100.507 34.3 99.9672 33.688 99.9672 32.872C99.9672 31.888 100.891 31.048 102.019 31.048C103.603 31.048 104.095 32.08 104.215 32.596L103.219 32.968C103.171 32.668 102.931 32.008 102.019 32.008C101.443 32.008 101.059 32.38 101.059 32.776C101.059 33.124 101.275 33.376 101.719 33.472L102.655 33.676C103.699 33.904 104.251 34.54 104.251 35.392C104.251 36.208 103.567 37.18 102.139 37.18C100.555 37.18 99.8832 36.16 99.7872 35.5ZM106.426 33.52H109.582C109.558 32.692 109.018 32.044 107.998 32.044C107.05 32.044 106.474 32.776 106.426 33.52ZM109.75 35.02L110.722 35.356C110.398 36.376 109.474 37.18 108.13 37.18C106.582 37.18 105.226 36.052 105.226 34.096C105.226 32.284 106.534 31.048 107.986 31.048C109.762 31.048 110.758 32.272 110.758 34.072C110.758 34.216 110.746 34.36 110.734 34.432H106.39C106.414 35.464 107.158 36.184 108.13 36.184C109.066 36.184 109.534 35.668 109.75 35.02ZM111.903 36.232C111.903 35.764 112.263 35.392 112.731 35.392C113.199 35.392 113.571 35.764 113.571 36.232C113.571 36.7 113.199 37.06 112.731 37.06C112.263 37.06 111.903 36.7 111.903 36.232ZM117.622 32.092C116.71 32.092 115.87 32.764 115.87 34.108C115.87 35.428 116.698 36.136 117.634 36.136C118.714 36.136 119.11 35.404 119.242 34.948L120.238 35.38C119.962 36.208 119.134 37.18 117.634 37.18C115.954 37.18 114.718 35.86 114.718 34.108C114.718 32.308 115.978 31.048 117.622 31.048C119.158 31.048 119.95 32.008 120.19 32.884L119.17 33.316C119.026 32.752 118.606 32.092 117.622 32.092ZM123.975 36.172C124.935 36.172 125.775 35.452 125.775 34.108C125.775 32.776 124.935 32.056 123.975 32.056C123.015 32.056 122.175 32.776 122.175 34.108C122.175 35.452 123.015 36.172 123.975 36.172ZM123.975 31.048C125.703 31.048 126.927 32.356 126.927 34.108C126.927 35.872 125.703 37.18 123.975 37.18C122.247 37.18 121.023 35.872 121.023 34.108C121.023 32.356 122.247 31.048 123.975 31.048Z" fill="#EDEDED"/>
<g filter="url(#filter1_b_212_15244)">
<rect x="141.477" y="55.5" width="32" height="187.5" rx="16" transform="rotate(90 141.477 55.5)" fill="#161616"/>
<rect x="141.977" y="55" width="33" height="188.5" rx="16.5" transform="rotate(90 141.977 55)" stroke="#EDEDED"/>
</g>
<path d="M-1.43544 72.104V75.5H-2.56344V66.812H-1.43544V70.4C-1.01544 69.788 -0.343437 69.56 0.316563 69.56C1.69656 69.56 2.38056 70.556 2.38056 71.84V75.5H1.25256V72.032C1.25256 71.228 0.916563 70.58 -0.0914373 70.58C-0.955437 70.58 -1.41144 71.252 -1.43544 72.104ZM5.68684 67.904V69.728H6.93484V70.748H5.68684V73.748C5.68684 74.276 5.90284 74.54 6.49084 74.54C6.63484 74.54 6.83884 74.516 6.93484 74.492V75.452C6.83884 75.488 6.55084 75.56 6.16684 75.56C5.18284 75.56 4.55884 74.96 4.55884 73.916V70.748H3.45484V69.728H3.76684C4.39084 69.728 4.65484 69.344 4.65484 68.84V67.904H5.68684ZM9.95247 67.904V69.728H11.2005V70.748H9.95247V73.748C9.95247 74.276 10.1685 74.54 10.7565 74.54C10.9005 74.54 11.1045 74.516 11.2005 74.492V75.452C11.1045 75.488 10.8165 75.56 10.4325 75.56C9.44847 75.56 8.82447 74.96 8.82447 73.916V70.748H7.72047V69.728H8.03247C8.65647 69.728 8.92047 69.344 8.92047 68.84V67.904H9.95247ZM13.7049 77.78H12.5889V69.728H13.6809V70.628C13.9929 70.052 14.6769 69.596 15.6129 69.596C17.3409 69.596 18.2649 70.928 18.2649 72.608C18.2649 74.324 17.2689 75.656 15.5769 75.656C14.6889 75.656 14.0169 75.236 13.7049 74.72V77.78ZM17.1129 72.608C17.1129 71.456 16.4649 70.592 15.4089 70.592C14.3769 70.592 13.6929 71.456 13.6929 72.608C13.6929 73.796 14.3769 74.648 15.4089 74.648C16.4529 74.648 17.1129 73.796 17.1129 72.608ZM19.1622 74L20.1822 73.64C20.2542 74.24 20.7102 74.72 21.5262 74.72C22.1622 74.72 22.5102 74.36 22.5102 73.952C22.5102 73.592 22.2462 73.316 21.7662 73.208L20.7822 72.992C19.8822 72.8 19.3422 72.188 19.3422 71.372C19.3422 70.388 20.2662 69.548 21.3942 69.548C22.9782 69.548 23.4702 70.58 23.5902 71.096L22.5942 71.468C22.5462 71.168 22.3062 70.508 21.3942 70.508C20.8182 70.508 20.4342 70.88 20.4342 71.276C20.4342 71.624 20.6502 71.876 21.0942 71.972L22.0302 72.176C23.0742 72.404 23.6262 73.04 23.6262 73.892C23.6262 74.708 22.9422 75.68 21.5142 75.68C19.9302 75.68 19.2582 74.66 19.1622 74ZM25.08 74.732C25.08 74.264 25.44 73.892 25.908 73.892C26.376 73.892 26.748 74.264 26.748 74.732C26.748 75.2 26.376 75.56 25.908 75.56C25.44 75.56 25.08 75.2 25.08 74.732ZM25.068 70.508C25.068 70.04 25.428 69.668 25.896 69.668C26.364 69.668 26.736 70.04 26.736 70.508C26.736 70.976 26.364 71.336 25.896 71.336C25.428 71.336 25.068 70.976 25.068 70.508ZM32.8564 66.992L28.7404 75.5H27.6484L31.7644 66.992H32.8564ZM36.3838 66.992L32.2678 75.5H31.1758L35.2918 66.992H36.3838ZM38.6617 77.912H37.4257L38.8657 74.864L36.3817 69.728H37.6777L39.4777 73.712L41.2057 69.728H42.4177L38.6617 77.912ZM45.7406 74.672C46.7006 74.672 47.5406 73.952 47.5406 72.608C47.5406 71.276 46.7006 70.556 45.7406 70.556C44.7806 70.556 43.9406 71.276 43.9406 72.608C43.9406 73.952 44.7806 74.672 45.7406 74.672ZM45.7406 69.548C47.4686 69.548 48.6926 70.856 48.6926 72.608C48.6926 74.372 47.4686 75.68 45.7406 75.68C44.0126 75.68 42.7886 74.372 42.7886 72.608C42.7886 70.856 44.0126 69.548 45.7406 69.548ZM53.8812 74.804C53.5692 75.404 52.8492 75.68 52.1772 75.68C50.8332 75.68 50.0172 74.672 50.0172 73.364V69.728H51.1452V73.196C51.1452 73.988 51.5052 74.684 52.4532 74.684C53.3652 74.684 53.8212 74.084 53.8212 73.208V69.728H54.9492V74.432C54.9492 74.888 54.9852 75.296 55.0092 75.5H53.9292C53.9052 75.368 53.8812 75.044 53.8812 74.804ZM60.0781 69.668V70.868C59.9101 70.844 59.7421 70.832 59.5861 70.832C58.6381 70.832 58.0021 71.336 58.0021 72.608V75.5H56.8741V69.728H57.9781V70.736C58.3981 69.848 59.1181 69.632 59.7061 69.632C59.8621 69.632 60.0181 69.656 60.0781 69.668ZM61.8937 72.596C61.8937 73.784 62.5057 74.66 63.5857 74.66C64.6177 74.66 65.2537 73.76 65.2537 72.572C65.2537 71.384 64.6297 70.568 63.5977 70.568C62.5657 70.568 61.8937 71.408 61.8937 72.596ZM65.2657 74.72V74.624C64.9897 75.176 64.3777 75.656 63.4777 75.656C61.7857 75.656 60.7417 74.312 60.7417 72.596C60.7417 70.964 61.8457 69.572 63.4777 69.572C64.4977 69.572 65.0497 70.076 65.2417 70.544V66.812H66.3577V74.432C66.3577 74.984 66.4057 75.404 66.4177 75.5H65.3257C65.3017 75.368 65.2657 75.068 65.2657 74.72ZM70.7484 74.672C71.7084 74.672 72.5484 73.952 72.5484 72.608C72.5484 71.276 71.7084 70.556 70.7484 70.556C69.7884 70.556 68.9484 71.276 68.9484 72.608C68.9484 73.952 69.7884 74.672 70.7484 74.672ZM70.7484 69.548C72.4764 69.548 73.7004 70.856 73.7004 72.608C73.7004 74.372 72.4764 75.68 70.7484 75.68C69.0204 75.68 67.7964 74.372 67.7964 72.608C67.7964 70.856 69.0204 69.548 70.7484 69.548ZM76.2596 75.5H75.1436V69.728H76.2236V70.496C76.5836 69.86 77.3036 69.56 77.9756 69.56C78.6956 69.56 79.3916 69.908 79.7036 70.652C80.1596 69.824 80.9036 69.56 81.6356 69.56C82.6436 69.56 83.6276 70.244 83.6276 71.756V75.5H82.5116V71.876C82.5116 71.12 82.1396 70.556 81.2876 70.556C80.4956 70.556 79.9556 71.18 79.9556 72.008V75.5H78.8276V71.876C78.8276 71.132 78.4676 70.556 77.6036 70.556C76.7996 70.556 76.2596 71.156 76.2596 72.02V75.5ZM85.0727 73.952C85.0727 72.92 85.8287 72.344 86.8247 72.2L88.3847 71.972C88.7327 71.924 88.8287 71.744 88.8287 71.54C88.8287 70.976 88.4567 70.508 87.5807 70.508C86.7887 70.508 86.3447 71 86.2727 71.672L85.1927 71.42C85.3127 70.316 86.3087 69.548 87.5567 69.548C89.2847 69.548 89.9567 70.532 89.9567 71.66V74.552C89.9567 75.056 90.0047 75.356 90.0287 75.5H88.9247C88.9007 75.356 88.8647 75.14 88.8647 74.72C88.6127 75.128 88.0367 75.68 87.0047 75.68C85.8287 75.68 85.0727 74.864 85.0727 73.952ZM87.1607 74.732C88.0847 74.732 88.8287 74.288 88.8287 73.028V72.764L87.0647 73.028C86.5847 73.1 86.2247 73.376 86.2247 73.892C86.2247 74.324 86.5847 74.732 87.1607 74.732ZM92.8299 75.5H91.7139V69.728H92.8299V75.5ZM91.4619 67.544C91.4619 67.088 91.8219 66.728 92.2659 66.728C92.7219 66.728 93.0819 67.088 93.0819 67.544C93.0819 67.988 92.7219 68.348 92.2659 68.348C91.8219 68.348 91.4619 67.988 91.4619 67.544ZM95.8771 72.164V75.5H94.7491V69.728H95.8531V70.556C96.2731 69.836 96.9571 69.56 97.6291 69.56C99.0091 69.56 99.6931 70.556 99.6931 71.84V75.5H98.5651V72.032C98.5651 71.228 98.2291 70.58 97.2211 70.58C96.3331 70.58 95.8771 71.288 95.8771 72.164ZM101.367 74.732C101.367 74.264 101.727 73.892 102.195 73.892C102.663 73.892 103.035 74.264 103.035 74.732C103.035 75.2 102.663 75.56 102.195 75.56C101.727 75.56 101.367 75.2 101.367 74.732ZM107.087 70.592C106.175 70.592 105.335 71.264 105.335 72.608C105.335 73.928 106.163 74.636 107.099 74.636C108.179 74.636 108.575 73.904 108.707 73.448L109.703 73.88C109.427 74.708 108.599 75.68 107.099 75.68C105.419 75.68 104.183 74.36 104.183 72.608C104.183 70.808 105.443 69.548 107.087 69.548C108.623 69.548 109.415 70.508 109.655 71.384L108.635 71.816C108.491 71.252 108.071 70.592 107.087 70.592ZM113.44 74.672C114.4 74.672 115.24 73.952 115.24 72.608C115.24 71.276 114.4 70.556 113.44 70.556C112.48 70.556 111.64 71.276 111.64 72.608C111.64 73.952 112.48 74.672 113.44 74.672ZM113.44 69.548C115.168 69.548 116.392 70.856 116.392 72.608C116.392 74.372 115.168 75.68 113.44 75.68C111.712 75.68 110.488 74.372 110.488 72.608C110.488 70.856 111.712 69.548 113.44 69.548ZM118.951 75.5H117.835V69.728H118.915V70.496C119.275 69.86 119.995 69.56 120.667 69.56C121.387 69.56 122.083 69.908 122.395 70.652C122.851 69.824 123.595 69.56 124.327 69.56C125.335 69.56 126.319 70.244 126.319 71.756V75.5H125.203V71.876C125.203 71.12 124.831 70.556 123.979 70.556C123.187 70.556 122.647 71.18 122.647 72.008V75.5H121.519V71.876C121.519 71.132 121.159 70.556 120.295 70.556C119.491 70.556 118.951 71.156 118.951 72.02V75.5Z" fill="#EDEDED"/>
</g>
<defs>
<filter id="filter0_b_212_15244" x="-60.0234" y="3" width="215.5" height="60" filterUnits="userSpaceOnUse" color-interpolation-filters="sRGB">
<feFlood flood-opacity="0" result="BackgroundImageFix"/>
<feGaussianBlur in="BackgroundImageFix" stdDeviation="6.5"/>
<feComposite in2="SourceAlpha" operator="in" result="effect1_backgroundBlur_212_15244"/>
<feBlend mode="normal" in="SourceGraphic" in2="effect1_backgroundBlur_212_15244" result="shape"/>
</filter>
<filter id="filter1_b_212_15244" x="-60.0234" y="41.5" width="215.5" height="60" filterUnits="userSpaceOnUse" color-interpolation-filters="sRGB">
<feFlood flood-opacity="0" result="BackgroundImageFix"/>
<feGaussianBlur in="BackgroundImageFix" stdDeviation="6.5"/>
<feComposite in2="SourceAlpha" operator="in" result="effect1_backgroundBlur_212_15244"/>
<feBlend mode="normal" in="SourceGraphic" in2="effect1_backgroundBlur_212_15244" result="shape"/>
</filter>
<clipPath id="clip0_212_15244">
<rect width="159" height="104" fill="white"/>
</clipPath>
</defs>
</svg>
