<svg width="20" height="20" viewBox="0 0 20 20" fill="none" xmlns="http://www.w3.org/2000/svg">
<path fill-rule="evenodd" clip-rule="evenodd" d="M7.71713 3.14317C6.2883 3.61856 5.05758 4.52812 4.18148 5.71595H6.37691C6.70968 4.68741 7.16463 3.80091 7.71713 3.14317ZM9.99982 1.91805C7.10921 1.91805 4.57359 3.43574 3.14547 5.71595H1.25L0.75 6.21595V13.7159L1.25 14.2159H3.10313C4.52317 16.5342 7.08043 18.0822 9.99982 18.0822C12.9192 18.0822 15.4764 16.5342 16.8965 14.2159H18.75L19.25 13.7159V6.21595L18.75 5.71595H16.8542C15.4261 3.43574 12.8904 1.91805 9.99982 1.91805ZM7.76241 16.872C6.28692 16.3919 5.01971 15.4498 4.13167 14.2159H6.34309C6.68102 15.2263 7.14133 16.1163 7.69095 16.7867C7.71454 16.8154 7.73836 16.8439 7.76241 16.872ZM8.35378 16.2432C7.93095 15.7275 7.55121 15.0333 7.25126 14.2159H12.7501C12.4554 15.0184 12.0835 15.7026 11.6691 16.2157C11.1186 16.8972 10.539 17.2251 9.99982 17.2251C9.46817 17.2251 8.89761 16.9065 8.35378 16.2432ZM12.3359 16.7542C12.874 16.0881 13.3255 15.2107 13.6583 14.2159H15.868C14.9802 15.4495 13.7134 16.3915 12.2383 16.8716C12.2713 16.8331 12.3038 16.794 12.3359 16.7542ZM12.2825 3.14317C13.7113 3.61856 14.9421 4.52812 15.8182 5.71595H13.6227C13.29 4.68741 12.835 3.80091 12.2825 3.14317ZM11.6091 3.67431C12.036 4.17587 12.4175 4.87064 12.7177 5.71595H7.2819C7.58217 4.87064 7.96366 4.17587 8.39051 3.67431C8.90821 3.06598 9.46054 2.7752 9.99982 2.7752C10.5391 2.7752 11.0914 3.06598 11.6091 3.67431ZM1.75 6.71595V13.2159H18.25V6.71595H1.75ZM15.7732 11.891L17.1542 8.66722L16.4188 8.35221L15.4579 10.5953L14.7687 8.46337L14.014 8.44492L13.2274 10.5246L12.5611 8.46337L11.8063 8.44491L11.0198 10.5246L10.3534 8.46337L9.5987 8.44491L8.81215 10.5246L8.1458 8.46337L7.39106 8.44491L6.60449 10.5246L5.93808 8.46337L5.18334 8.44492L4.37609 10.5794L3.58938 8.39927L2.83688 8.67081L3.99104 11.8693L4.74143 11.875L5.52794 9.79532L6.19433 11.8565L6.94907 11.875L7.73563 9.79532L8.40197 11.8565L9.15671 11.875L9.94327 9.79532L10.6096 11.8565L11.3644 11.875L12.1509 9.79532L12.8173 11.8565L13.572 11.875L14.3585 9.79534L15.0249 11.8565L15.7732 11.891Z" fill="url(#paint0_linear_2737_12772)"/>
<defs>
<linearGradient id="paint0_linear_2737_12772" x1="0.75" y1="18.0822" x2="16.768" y2="-0.250548" gradientUnits="userSpaceOnUse">
<stop stop-color="#EDEDED" stop-opacity="0.5"/>
<stop offset="1" stop-color="white"/>
</linearGradient>
</defs>
</svg>
