<svg width="21" height="21" viewBox="0 0 21 21" fill="none" xmlns="http://www.w3.org/2000/svg">
<path fill-rule="evenodd" clip-rule="evenodd" d="M5.31669 5.66997C3.94223 7.04443 3.25637 8.84626 3.25951 10.6486L4.61453 9.29356L5.32163 10.0007L3.34323 11.9791H2.63612L0.657715 10.0007L1.36482 9.29356L2.27134 10.2001C2.37456 8.29501 3.15386 6.41859 4.60959 4.96287C7.74302 1.82943 12.8233 1.82943 15.9567 4.96287C19.0902 8.0963 19.0902 13.1766 15.9567 16.31C12.8233 19.4435 7.74302 19.4435 4.60959 16.31C3.87034 15.5708 3.30486 14.7222 2.9141 13.8158L3.8324 13.4199C4.17391 14.212 4.66836 14.9546 5.31669 15.6029C8.0596 18.3458 12.5067 18.3458 15.2496 15.6029C17.9925 12.86 17.9925 8.41288 15.2496 5.66997C12.5067 2.92707 8.0596 2.92707 5.31669 5.66997ZM13.5704 9.7274V11.5918L13.8846 11.906V14.3983L13.3846 14.8983H7.13457L6.63457 14.3983V11.906L6.94788 11.5927V9.72659L6.63457 9.41327V6.92093L7.13457 6.42093H13.3846L13.8846 6.92093V9.41327L13.5704 9.7274ZM7.63457 13.8983V12.406H12.8846V13.8983H7.63457ZM7.94788 9.91345V11.4058H12.5704V9.91345H7.94788ZM7.63457 8.91327V7.42093H12.8846V8.91327H7.63457Z" fill="url(#paint0_linear_1744_15061)"/>
<defs>
<linearGradient id="paint0_linear_1744_15061" x1="0.657715" y1="18.6601" x2="16.6327" y2="1.09058" gradientUnits="userSpaceOnUse">
<stop stop-color="#171717" stop-opacity="0.5"/>
<stop offset="1"/>
</linearGradient>
</defs>
</svg>
