<svg xmlns="http://www.w3.org/2000/svg" width="19" height="16" fill="none" viewBox="0 0 19 16"><path fill="url(#a)" fill-rule="evenodd" d="m1.466 0-.5.5v11.717l.5.5h3.72V15.5l.862.346 3.004-3.13h.766v.127h1V7.326l-.5-.5H8.733l3.955-4.013 3.278 3.325v.119h.117l.56.569h-1.39l-.5.5V13h1V7.826h2.085l.356-.851-1.228-1.247V.5l-.5-.5zm14.5 4.714V1h-14v10.717h3.72l.5.5v2.04L8.48 11.87l.36-.153h.98V8.468H4.264v-1H7.39l-.207-.493 1.634-1.658h-4.55v-1h5.536l2.53-2.567h.712zM12.309 15.5V7.968h1V15.5z" clip-rule="evenodd"/><defs><linearGradient id="a" x1=".966" x2="16.757" y1="15.846" y2="-1.322" gradientUnits="userSpaceOnUse"><stop stop-opacity=".5"/><stop offset="1" stop-color="#020202"/></linearGradient></defs></svg>