<svg xmlns="http://www.w3.org/2000/svg" width="20" height="20" fill="none" viewBox="0 0 20 20"><path fill="url(#a)" fill-rule="evenodd" d="m2.466 2-.5.5v11.717l.5.5h3.72V17.5l.862.346 3.004-3.13h.766v.127h1V9.326l-.5-.5H9.733l3.955-4.013 3.278 3.325v.119h.117l.56.569h-1.39l-.5.5V15h1V9.826h2.085l.356-.851-1.228-1.247V2.5l-.5-.5zm14.5 4.714V3h-14v10.717h3.72l.5.5v2.04L9.48 13.87l.36-.153h.98v-3.249H5.264v-1H8.39l-.207-.493 1.634-1.658h-4.55v-1h5.536l2.53-2.567h.712zM13.309 17.5V9.968h1V17.5z" clip-rule="evenodd"/><defs><linearGradient id="a" x1="1.966" x2="17.757" y1="17.846" y2=".678" gradientUnits="userSpaceOnUse"><stop stop-opacity=".5"/><stop offset="1" stop-color="#fff"/></linearGradient></defs></svg>