<svg xmlns="http://www.w3.org/2000/svg" width="361" height="210" fill="none" viewBox="0 0 361 210"><g clip-path="url(#a)"><path fill="#343434" stroke="#3e3e3e" d="M403.692 312.024h.5V24a4.5 4.5 0 0 0-4.5-4.5H31.487a4.5 4.5 0 0 0-4.5 4.5v288.024h376.705Z"/><path fill="#282828" d="M27.487 24a4 4 0 0 1 4-4h368.205a4 4 0 0 1 4 4v18.211H27.487z"/><path fill="#a0a0a0" d="M48.33 115.164H39.8v-1.574l4.265-3.844a10 10 0 0 0 1.537-1.721q.604-.897.604-1.885v-.22q0-1.154-.604-1.775-.603-.641-1.794-.641-1.17 0-1.812.604-.623.585-.933 1.574l-1.373-.512q.183-.568.494-1.099.33-.549.824-.97.495-.421 1.19-.677.713-.256 1.647-.256.952 0 1.684.274.75.274 1.245.769.512.494.769 1.171.274.678.274 1.483 0 .732-.22 1.373-.201.64-.585 1.226a7.6 7.6 0 0 1-.897 1.154 14 14 0 0 1-1.153 1.098l-3.57 3.112h6.938zm2.702 0v-1.336h3.66v-10.306h-.127l-3.222 3.002-.897-.97 3.386-3.167h2.398v11.441h3.368v1.336zm-2.702 24H39.8v-1.574l4.265-3.844a10 10 0 0 0 1.537-1.721q.604-.897.604-1.885v-.22q0-1.154-.604-1.775-.603-.642-1.794-.641-1.17 0-1.812.604-.623.585-.933 1.574l-1.373-.512q.183-.568.494-1.099.33-.549.824-.97.495-.421 1.19-.677.713-.256 1.647-.256.952 0 1.684.274.75.274 1.245.769.512.494.769 1.171.274.678.274 1.483 0 .732-.22 1.373-.201.64-.585 1.226a7.6 7.6 0 0 1-.897 1.154 14 14 0 0 1-1.153 1.098l-3.57 3.112h6.938zm10.976 0h-8.53v-1.574l4.264-3.844a10 10 0 0 0 1.538-1.721q.604-.897.604-1.885v-.22q0-1.154-.604-1.775-.604-.642-1.794-.641-1.17 0-1.812.604-.622.585-.934 1.574l-1.372-.512q.183-.568.494-1.099.33-.549.824-.97a3.9 3.9 0 0 1 1.19-.677q.712-.256 1.647-.256.952 0 1.684.274.75.274 1.245.769.512.494.768 1.171.275.678.275 1.483 0 .732-.22 1.373-.202.64-.585 1.226a7.6 7.6 0 0 1-.897 1.154 14 14 0 0 1-1.154 1.098l-3.569 3.112h6.938zm-10.976 24H39.8v-1.574l4.265-3.844a10 10 0 0 0 1.537-1.721q.604-.897.604-1.885v-.22q0-1.154-.604-1.775-.603-.641-1.794-.641-1.17 0-1.812.604-.623.585-.933 1.574l-1.373-.512q.183-.568.494-1.099.33-.549.824-.97.495-.421 1.19-.677.713-.256 1.647-.256.952 0 1.684.274.75.274 1.245.769.512.494.769 1.171.274.678.274 1.483 0 .732-.22 1.373-.201.64-.585 1.226a7.6 7.6 0 0 1-.897 1.154 14 14 0 0 1-1.153 1.098l-3.57 3.112h6.938zm6.088-7.359q1.336 0 1.995-.585.678-.605.678-1.538v-.128q0-1.025-.66-1.538-.64-.512-1.683-.512-1.026 0-1.666.457a3.4 3.4 0 0 0-1.025 1.172l-1.153-.879q.237-.384.585-.75.347-.384.806-.677a4.6 4.6 0 0 1 1.08-.476 5 5 0 0 1 1.41-.183q.822 0 1.537.219.714.201 1.244.623.531.403.824 1.006.312.605.311 1.373 0 .622-.2 1.117a2.5 2.5 0 0 1-.532.86q-.33.366-.787.623-.457.256-.97.384v.073q.531.11 1.025.366.494.238.879.641.384.384.604.952.238.549.238 1.263 0 .823-.33 1.519a3.35 3.35 0 0 1-.897 1.172 4.2 4.2 0 0 1-1.39.75 5.5 5.5 0 0 1-1.795.275 5.6 5.6 0 0 1-1.5-.183 4.7 4.7 0 0 1-1.154-.495 5 5 0 0 1-.879-.695 7 7 0 0 1-.659-.806l1.154-.878q.255.384.53.695.276.312.623.55.366.22.824.347a4 4 0 0 0 1.061.128q1.355 0 2.069-.622.732-.623.732-1.775v-.147q0-1.135-.714-1.757-.696-.623-2.105-.623h-1.52v-1.318z"/><path fill="#3e3e3e" d="M43.49 35.313c2.705 0 4.897-2.185 4.897-4.88s-2.192-4.88-4.897-4.88-4.896 2.185-4.896 4.88 2.192 4.88 4.896 4.88M57.165 35.313c2.705 0 4.897-2.185 4.897-4.88s-2.192-4.88-4.897-4.88-4.896 2.185-4.896 4.88 2.192 4.88 4.896 4.88M70.831 35.313c2.705 0 4.897-2.185 4.897-4.88s-2.192-4.88-4.897-4.88-4.896 2.185-4.896 4.88 2.192 4.88 4.896 4.88"/><path fill="#a0a0a0" d="M228.23 133.471a11 11 0 0 1 .293-2.562q.311-1.245.824-2.307.531-1.061 1.226-1.904a8.6 8.6 0 0 1 1.465-1.446h1.483q-.806.605-1.52 1.41a10.7 10.7 0 0 0-1.245 1.739 9.2 9.2 0 0 0-.842 2.032 8.1 8.1 0 0 0-.311 2.251v1.574q0 1.172.311 2.27.312 1.08.842 2.032.55.933 1.245 1.721a10.3 10.3 0 0 0 1.52 1.409h-1.483a8 8 0 0 1-1.465-1.428 10.6 10.6 0 0 1-1.226-1.922 12 12 0 0 1-.824-2.288q-.293-1.245-.293-2.581M241.275 139.384q-1.026 0-1.831-.348a3.9 3.9 0 0 1-1.336-1.007 4.4 4.4 0 0 1-.842-1.556 7 7 0 0 1-.275-2.032q0-1.116.293-2.031a4.4 4.4 0 0 1 .842-1.556 3.6 3.6 0 0 1 1.336-1.007q.787-.348 1.794-.348 1.374 0 2.234.604.86.605 1.263 1.574l-1.172.623a2.2 2.2 0 0 0-.86-1.135q-.586-.403-1.465-.403-.64 0-1.153.22-.494.2-.842.586a2.6 2.6 0 0 0-.531.915q-.165.53-.165 1.153v1.611q0 .622.165 1.153.183.531.531.915.348.385.86.604.513.202 1.172.202.951 0 1.574-.44.623-.439.989-1.208l1.043.714a3.73 3.73 0 0 1-1.318 1.574q-.88.623-2.306.623M247.418 139.164v-9.445h1.354v1.098h.074q.22-.549.622-.934.403-.384 1.19-.384.824 0 1.226.421.403.403.495 1.062h.054q.256-.64.733-1.062.475-.421 1.318-.421 1.153 0 1.537.805.403.806.403 2.307v6.553h-1.355v-6.315q0-1.209-.256-1.666-.238-.476-.897-.476-.585 0-.952.385-.366.366-.366 1.134v6.938h-1.354v-6.315q0-1.209-.257-1.666-.237-.476-.878-.476-.586 0-.97.385-.367.366-.367 1.134v6.938zM262.11 136.675h2.361l-2.105 5.07h-1.227zM283.915 139.164l-3.387-9.445h1.483l1.355 3.954 1.464 4.265h.073l1.465-4.265 1.354-3.954h1.446l-3.386 9.445zM296.41 127.632q-.64 0-.897-.256a.96.96 0 0 1-.256-.678v-.292a.9.9 0 0 1 .256-.659q.257-.275.897-.275t.897.275a.9.9 0 0 1 .256.659v.292a.96.96 0 0 1-.256.678q-.257.256-.897.256m-4.137 10.287h3.405v-6.956h-3.405v-1.244h4.869v8.2h3.185v1.245h-8.054zM306.965 139.384q-1.026 0-1.849-.348a4 4 0 0 1-1.391-.989 4.7 4.7 0 0 1-.879-1.555 6.3 6.3 0 0 1-.311-2.032q0-1.135.311-2.05.33-.916.897-1.556.567-.66 1.354-1.007a4.4 4.4 0 0 1 1.776-.348q.952 0 1.721.348.786.348 1.336.97.55.604.842 1.446.293.842.293 1.849v.695h-6.993v.44q0 .622.202 1.153.201.531.567.915.385.385.915.604.55.202 1.209.202.951 0 1.647-.44a2.84 2.84 0 0 0 1.062-1.208l1.08.732q-.421.952-1.41 1.575-.97.603-2.379.604m-.092-8.677a2.8 2.8 0 0 0-2.014.824 2.9 2.9 0 0 0-.585.915q-.202.513-.202 1.135v.128h5.419v-.201q0-.622-.202-1.135a2.45 2.45 0 0 0-.531-.879 2.1 2.1 0 0 0-.823-.585 2.7 2.7 0 0 0-1.062-.202M312.833 129.719h1.3l1.08 8.164h.165l1.61-8.164h1.611l1.611 8.164h.165l1.08-8.164h1.263l-1.446 9.445h-1.904l-1.501-7.908h-.146l-1.538 7.908h-1.904zM324.999 129.719h1.464v1.537h.073q.916-1.757 2.911-1.757 1.739 0 2.709 1.3.989 1.299.989 3.642t-.989 3.643q-.97 1.3-2.709 1.3-1.995 0-2.911-1.758h-.073v5.199h-1.464zm3.881 8.365q1.281 0 1.976-.769.714-.786.714-2.068v-1.611q0-1.282-.714-2.05-.695-.787-1.976-.787-.495 0-.934.128a2.3 2.3 0 0 0-.769.384 1.8 1.8 0 0 0-.531.604 1.75 1.75 0 0 0-.183.824v3.405q0 .476.183.842.203.348.531.604.33.237.769.366.44.128.934.128M339.727 139.384a4.5 4.5 0 0 1-1.794-.348 3.9 3.9 0 0 1-1.354-.989 4.7 4.7 0 0 1-.842-1.555q-.293-.916-.293-2.051 0-1.116.293-2.031a4.4 4.4 0 0 1 .842-1.556q.567-.66 1.354-1.007a4.5 4.5 0 0 1 1.794-.348q.988 0 1.776.348a3.6 3.6 0 0 1 1.354 1.007q.568.64.861 1.556.292.915.292 2.031 0 1.135-.292 2.051a4.5 4.5 0 0 1-.861 1.555 3.7 3.7 0 0 1-1.354.989q-.787.348-1.776.348m0-1.263q1.227 0 1.977-.733.75-.732.751-2.269v-1.355q0-1.538-.751-2.27-.75-.732-1.977-.732-1.226 0-1.977.732-.75.732-.75 2.27v1.355q0 1.537.75 2.269.751.733 1.977.733M346.621 137.919h2.764v-6.956h-2.764v-1.244h4.228v2.379h.092q.292-1.116 1.098-1.739.824-.64 2.087-.64h1.318v1.464h-1.776q-1.263 0-2.05.732-.768.732-.769 1.922v4.082h3.661v1.245h-7.889zM362.136 139.164q-1.08 0-1.592-.604-.495-.604-.494-1.556v-6.041h-3.149v-1.244h2.343q.476 0 .659-.183.201-.202.201-.678v-2.471h1.41v3.332h4.302v1.244h-4.302v6.956h4.302v1.245zM371.867 136.675h2.362l-2.105 5.07h-1.227zM390.634 137.919h3.185v-6.956h-3.368v-1.244h3.368v-1.941q0-.951.494-1.556.513-.603 1.593-.604h3.166v1.245h-3.789v2.856h3.789v1.244h-3.789v6.956h3.368v1.245h-8.017zM405.582 139.384a4.5 4.5 0 0 1-1.794-.348 3.9 3.9 0 0 1-1.355-.989 4.7 4.7 0 0 1-.842-1.555q-.292-.916-.292-2.051 0-1.116.292-2.031.293-.916.842-1.556.568-.66 1.355-1.007a4.5 4.5 0 0 1 1.794-.348q.989 0 1.775.348.806.347 1.355 1.007.567.64.86 1.556.293.915.293 2.031 0 1.135-.293 2.051a4.5 4.5 0 0 1-.86 1.555 3.7 3.7 0 0 1-1.355.989q-.786.348-1.775.348m0-1.263q1.226 0 1.977-.733.75-.732.75-2.269v-1.355q0-1.538-.75-2.27-.751-.732-1.977-.732-1.227 0-1.977.732t-.751 2.27v1.355q0 1.537.751 2.269.75.733 1.977.733M412.476 137.919h2.764v-6.956h-2.764v-1.244h4.228v2.379h.092q.292-1.116 1.098-1.739.824-.64 2.087-.64h1.318v1.464h-1.776q-1.263 0-2.05.732-.77.732-.769 1.922v4.082h3.661v1.245h-7.889zM427.863 139.384q-1.025 0-1.831-.348a3.9 3.9 0 0 1-1.336-1.007 4.4 4.4 0 0 1-.842-1.556 7 7 0 0 1-.274-2.032q0-1.116.292-2.031.294-.916.842-1.556.55-.66 1.337-1.007.786-.348 1.794-.348 1.372 0 2.233.604.86.605 1.263 1.574l-1.172.623a2.18 2.18 0 0 0-.86-1.135q-.587-.403-1.464-.403-.641 0-1.154.22-.494.2-.842.586a2.6 2.6 0 0 0-.53.915q-.165.53-.165 1.153v1.611q0 .622.165 1.153.183.531.53.915.348.385.861.604.512.202 1.171.202.953 0 1.574-.44.623-.439.989-1.208l1.043.714a3.7 3.7 0 0 1-1.318 1.574q-.878.623-2.306.623M438.674 139.384q-1.025 0-1.849-.348a4 4 0 0 1-1.391-.989 4.8 4.8 0 0 1-.879-1.555 6.3 6.3 0 0 1-.311-2.032q0-1.135.311-2.05.33-.916.897-1.556.568-.66 1.355-1.007a4.4 4.4 0 0 1 1.775-.348q.953 0 1.721.348.787.348 1.336.97.55.604.842 1.446.293.842.293 1.849v.695h-6.992v.44q0 .622.201 1.153.2.531.568.915.384.385.915.604.55.202 1.208.202.953 0 1.647-.44a2.84 2.84 0 0 0 1.062-1.208l1.08.732q-.421.952-1.409 1.575-.97.603-2.38.604m-.092-8.677a2.8 2.8 0 0 0-2.013.824 3 3 0 0 0-.586.915q-.201.513-.201 1.135v.128h5.418v-.201q0-.622-.201-1.135a2.45 2.45 0 0 0-.531-.879 2.1 2.1 0 0 0-.824-.585 2.7 2.7 0 0 0-1.062-.202M451.224 133.471q0 1.336-.311 2.581-.294 1.227-.824 2.288a9.8 9.8 0 0 1-1.208 1.922 8 8 0 0 1-1.464 1.428h-1.483a11 11 0 0 0 1.501-1.409 9.7 9.7 0 0 0 1.245-1.721 9 9 0 0 0 .86-2.032 8.3 8.3 0 0 0 .311-2.27v-1.574q0-1.171-.311-2.251a8.6 8.6 0 0 0-.86-2.032 9.4 9.4 0 0 0-1.245-1.739 11 11 0 0 0-1.501-1.41h1.483q.768.587 1.464 1.446a9.4 9.4 0 0 1 1.208 1.904q.53 1.062.824 2.307.31 1.226.311 2.562M471.784 141.69q-.768 0-1.153-.439-.384-.421-.384-1.062v-1.153q0-.495.091-.86a4 4 0 0 1 .257-.659q.146-.294.329-.513.183-.238.348-.439.311-.366.421-.623.128-.274.128-.567 0-.696-.641-1.007-.64-.33-1.885-.329h-1.428v-1.135h1.428q1.245 0 1.885-.311.64-.33.641-1.025 0-.294-.128-.55-.11-.274-.421-.64-.165-.202-.348-.421a3.7 3.7 0 0 1-.329-.513 4 4 0 0 1-.257-.659 3.8 3.8 0 0 1-.091-.878v-1.154q0-.64.384-1.061.385-.44 1.153-.44h3.222v1.135h-3.496v1.41q0 .75.219 1.153.22.403.513.787.311.402.586.842.274.421.274 1.007 0 .768-.549 1.245-.531.475-1.464.604v.073q.933.128 1.464.604.549.476.549 1.245 0 .585-.274 1.025-.275.42-.586.823a6 6 0 0 0-.513.788q-.219.402-.219 1.153v1.409h3.496v1.135zM177.379 161.626h-.074q-.915 1.758-2.91 1.758-1.739 0-2.728-1.3-.97-1.3-.97-3.643t.97-3.642q.989-1.3 2.728-1.3 1.995 0 2.91 1.757h.074v-5.638h1.464v13.546h-1.464zm-2.417.458q.495 0 .934-.128.44-.129.769-.366.329-.256.512-.604.201-.366.202-.842v-3.405a1.6 1.6 0 0 0-.202-.824 1.65 1.65 0 0 0-.512-.604 2.3 2.3 0 0 0-.769-.384 3.3 3.3 0 0 0-.934-.128q-1.281 0-1.995.787-.696.768-.696 2.05v1.611q0 1.281.696 2.068.714.77 1.995.769M186.652 151.632q-.64 0-.897-.256a.96.96 0 0 1-.256-.678v-.292a.9.9 0 0 1 .256-.659q.257-.275.897-.275t.897.275a.9.9 0 0 1 .256.659v.292a.96.96 0 0 1-.256.678q-.256.256-.897.256m-4.137 10.287h3.405v-6.956h-3.405v-1.244h4.869v8.2h3.185v1.245h-8.054zM197.152 163.384q-1.483 0-2.563-.495a5.7 5.7 0 0 1-1.812-1.354l.988-.86q.678.713 1.483 1.098.806.384 1.94.384 1.1 0 1.794-.384.714-.404.714-1.245 0-.366-.146-.604a1 1 0 0 0-.366-.403 1.9 1.9 0 0 0-.531-.219 5 5 0 0 0-.623-.147l-1.482-.219q-.495-.073-1.08-.202a3.7 3.7 0 0 1-1.044-.402 2.7 2.7 0 0 1-.805-.769q-.31-.476-.311-1.245 0-.714.274-1.226a2.5 2.5 0 0 1 .806-.879 3.4 3.4 0 0 1 1.208-.531 6 6 0 0 1 1.519-.183q1.281 0 2.215.403.952.402 1.629 1.116l-.952.897a2.6 2.6 0 0 0-.421-.402 2.2 2.2 0 0 0-.604-.385 3.5 3.5 0 0 0-.823-.293 5 5 0 0 0-1.099-.11q-1.117 0-1.72.385-.586.384-.586 1.116 0 .367.128.623.147.238.384.384.239.147.531.238.311.074.623.128l1.482.22q.513.073 1.08.201.568.129 1.044.421.475.275.787.751.329.476.329 1.245 0 1.409-1.098 2.178-1.08.769-2.892.769M204.265 153.719h1.465v1.537h.073q.915-1.757 2.91-1.757 1.74 0 2.71 1.3.987 1.299.988 3.642 0 2.343-.988 3.643-.97 1.3-2.71 1.3-1.995 0-2.91-1.758h-.073v5.199h-1.465zm3.881 8.365q1.281 0 1.977-.769.714-.786.714-2.068v-1.611q0-1.282-.714-2.05-.696-.787-1.977-.787-.495 0-.934.128a2.3 2.3 0 0 0-.768.384q-.33.238-.531.604a1.75 1.75 0 0 0-.183.824v3.405q0 .476.183.842.201.348.531.604.328.237.768.366.44.128.934.128M214.966 161.919h3.295v-11.056h-3.295v-1.245h4.76v12.301h3.295v1.245h-8.055zM233.539 163.164q-.861 0-1.227-.439-.366-.44-.457-1.099h-.092a2.67 2.67 0 0 1-1.007 1.3q-.677.458-1.83.458-1.483 0-2.361-.769t-.879-2.105q0-1.318.952-2.032.97-.714 3.112-.714h2.013v-.933q0-1.044-.586-1.556-.585-.531-1.665-.531-.952 0-1.556.384-.604.366-.97 1.007l-.989-.732q.183-.366.494-.714.312-.348.769-.604a3.8 3.8 0 0 1 1.044-.421q.585-.165 1.299-.165 1.666 0 2.636.842.989.842.989 2.343v5.199h1.318v1.281zm-4.357-1.007q.568 0 1.025-.128.477-.146.824-.366.348-.239.531-.549.201-.33.201-.696v-1.556h-2.013q-1.319 0-1.922.366-.604.367-.604 1.062v.385q0 .732.512 1.116.531.366 1.446.366M244.002 153.719h1.464l-4.686 11.513a3.6 3.6 0 0 1-.366.696 1.7 1.7 0 0 1-.476.494 1.8 1.8 0 0 1-.659.293q-.384.11-.915.11h-1.391v-1.245h2.197l1.061-2.599-3.807-9.262h1.501l1.592 3.954 1.41 3.587H241l1.41-3.587zM258.54 156.355v-1.245h8.713v1.245zm0 3.661v-1.245h8.713v1.245zM285.178 163.384q-1.026 0-1.831-.348a3.9 3.9 0 0 1-1.336-1.007 4.4 4.4 0 0 1-.842-1.556 7 7 0 0 1-.275-2.032q0-1.116.293-2.031.293-.916.842-1.556.55-.66 1.337-1.007.786-.348 1.793-.348 1.374 0 2.234.604.86.605 1.263 1.574l-1.172.623a2.2 2.2 0 0 0-.86-1.135q-.586-.403-1.465-.403-.64 0-1.153.22-.494.2-.842.586a2.6 2.6 0 0 0-.531.915 3.9 3.9 0 0 0-.164 1.153v1.611q0 .622.164 1.153.183.531.531.915.348.385.861.604.512.202 1.171.202.952 0 1.574-.44.623-.439.989-1.208l1.043.714a3.73 3.73 0 0 1-1.318 1.574q-.878.623-2.306.623M291.321 163.164v-9.445h1.355v1.098h.073q.22-.549.622-.934.403-.384 1.19-.384.824 0 1.226.421.404.403.495 1.062h.055q.255-.64.732-1.062.475-.421 1.318-.421 1.153 0 1.537.805.403.806.403 2.307v6.553h-1.355v-6.315q0-1.209-.256-1.666-.237-.476-.897-.476-.586 0-.952.385-.366.366-.366 1.134v6.938h-1.354v-6.315q0-1.209-.257-1.666-.237-.476-.878-.476-.586 0-.97.385-.366.366-.366 1.134v6.938zM306.8 163.329q-.75 0-1.062-.311a1.1 1.1 0 0 1-.293-.788v-.329q0-.476.293-.787.311-.311 1.062-.311.75 0 1.043.311.312.311.311.787v.329q0 .477-.311.788-.293.31-1.043.311M320.064 161.626h-.074q-.915 1.758-2.91 1.758-1.738 0-2.727-1.3-.97-1.3-.971-3.643 0-2.343.971-3.642.988-1.3 2.727-1.3 1.995 0 2.91 1.757h.074v-5.638h1.464v13.546h-1.464zm-2.417.458q.495 0 .934-.128.44-.129.769-.366.329-.256.512-.604.202-.366.202-.842v-3.405a1.6 1.6 0 0 0-.202-.824 1.65 1.65 0 0 0-.512-.604 2.3 2.3 0 0 0-.769-.384 3.3 3.3 0 0 0-.934-.128q-1.281 0-1.995.787-.695.768-.695 2.05v1.611q0 1.281.695 2.068.714.77 1.995.769M329.337 151.632q-.64 0-.897-.256a.96.96 0 0 1-.256-.678v-.292a.9.9 0 0 1 .256-.659q.257-.275.897-.275t.897.275a.9.9 0 0 1 .256.659v.292a.96.96 0 0 1-.256.678q-.257.256-.897.256m-4.137 10.287h3.405v-6.956H325.2v-1.244h4.869v8.2h3.185v1.245H325.2zM339.837 163.384q-1.482 0-2.563-.495a5.7 5.7 0 0 1-1.812-1.354l.989-.86q.677.713 1.482 1.098.805.384 1.941.384 1.098 0 1.793-.384.714-.404.714-1.245 0-.366-.146-.604a1 1 0 0 0-.366-.403 1.9 1.9 0 0 0-.531-.219 5 5 0 0 0-.622-.147l-1.483-.219q-.495-.073-1.08-.202a3.7 3.7 0 0 1-1.043-.402 2.7 2.7 0 0 1-.806-.769q-.31-.476-.311-1.245 0-.714.275-1.226.292-.531.805-.879a3.4 3.4 0 0 1 1.208-.531 6 6 0 0 1 1.519-.183q1.282 0 2.215.403.952.402 1.629 1.116l-.951.897a2.7 2.7 0 0 0-.421-.402 2.2 2.2 0 0 0-.605-.385 3.4 3.4 0 0 0-.823-.293 5 5 0 0 0-1.099-.11q-1.116 0-1.72.385-.586.384-.586 1.116 0 .367.128.623.147.238.385.384.237.147.53.238.312.074.623.128l1.482.22q.513.073 1.08.201.568.129 1.044.421.476.275.787.751.33.476.329 1.245 0 1.409-1.098 2.178-1.08.769-2.892.769M346.95 153.719h1.465v1.537h.073q.915-1.757 2.911-1.757 1.739 0 2.709 1.3.988 1.299.988 3.642t-.988 3.643q-.97 1.3-2.709 1.3-1.996 0-2.911-1.758h-.073v5.199h-1.465zm3.881 8.365q1.281 0 1.977-.769.714-.786.714-2.068v-1.611q0-1.282-.714-2.05-.696-.787-1.977-.787-.494 0-.933.128t-.769.384q-.33.238-.531.604a1.75 1.75 0 0 0-.183.824v3.405q0 .476.183.842.201.348.531.604.329.237.769.366.439.128.933.128M357.652 161.919h3.295v-11.056h-3.295v-1.245h4.759v12.301h3.295v1.245h-8.054zM376.224 163.164q-.86 0-1.226-.439-.367-.44-.458-1.099h-.092q-.311.825-1.006 1.3-.678.458-1.831.458-1.482 0-2.361-.769t-.879-2.105q0-1.318.952-2.032.97-.714 3.112-.714h2.013v-.933q0-1.044-.585-1.556-.586-.531-1.666-.531-.952 0-1.556.384-.604.366-.97 1.007l-.989-.732q.183-.366.495-.714a3 3 0 0 1 .768-.604 3.8 3.8 0 0 1 1.044-.421q.585-.165 1.299-.165 1.667 0 2.636.842.989.842.989 2.343v5.199h1.318v1.281zm-4.357-1.007q.568 0 1.025-.128.476-.146.824-.366.348-.239.531-.549.201-.33.201-.696v-1.556h-2.013q-1.318 0-1.922.366-.604.367-.604 1.062v.385q0 .732.512 1.116.531.366 1.446.366M386.687 153.719h1.465l-4.686 11.513q-.165.404-.367.696a1.7 1.7 0 0 1-.475.494 1.8 1.8 0 0 1-.659.293q-.385.11-.916.11h-1.391v-1.245h2.197l1.061-2.599-3.807-9.262h1.501l1.593 3.954 1.409 3.587h.073l1.41-3.587z"/><path fill="#282828" d="M127.209 161.919h3.295v-11.056h-3.295v-1.245h4.759v12.301h3.295v1.245h-8.054zM142.377 163.384q-1.026 0-1.849-.348a4 4 0 0 1-1.391-.989 4.7 4.7 0 0 1-.879-1.555 6.3 6.3 0 0 1-.311-2.032q0-1.135.311-2.05.33-.916.897-1.556.567-.66 1.354-1.007a4.4 4.4 0 0 1 1.776-.348q.952 0 1.721.348.787.348 1.336.97.55.604.842 1.446.293.842.293 1.849v.695h-6.993v.44q0 .622.202 1.153.201.531.567.915.385.385.915.604.55.202 1.209.202.951 0 1.647-.44a2.84 2.84 0 0 0 1.062-1.208l1.08.732q-.421.952-1.41 1.575-.97.603-2.379.604m-.092-8.677a2.8 2.8 0 0 0-2.013.824q-.367.384-.586.915-.202.513-.202 1.135v.128h5.419v-.201q0-.622-.202-1.135a2.45 2.45 0 0 0-.531-.879 2.1 2.1 0 0 0-.823-.585 2.7 2.7 0 0 0-1.062-.202M153.645 163.164q-1.08 0-1.592-.604-.495-.604-.495-1.556v-6.041h-3.148v-1.244h2.343q.476 0 .659-.183.201-.202.201-.678v-2.471h1.41v3.332h4.302v1.244h-4.302v6.956h4.302v1.245zM87.45 115.107q-1.025 0-1.85-.347a4 4 0 0 1-1.39-.989 4.7 4.7 0 0 1-.88-1.556 6.3 6.3 0 0 1-.31-2.032q0-1.134.31-2.05.33-.915.898-1.556.567-.659 1.354-1.007a4.45 4.45 0 0 1 1.776-.347q.952 0 1.72.347.787.348 1.337.971.549.603.842 1.446a5.6 5.6 0 0 1 .293 1.849v.695h-6.993v.439q0 .623.201 1.154.202.531.568.915.384.384.915.604.55.201 1.208.201.952 0 1.648-.439a2.84 2.84 0 0 0 1.061-1.208l1.08.732q-.42.952-1.41 1.574-.969.604-2.379.604m-.092-8.676q-.604 0-1.117.219-.511.22-.897.605-.367.384-.585.915-.202.512-.202 1.135v.128h5.418v-.202q0-.622-.201-1.134a2.5 2.5 0 0 0-.53-.879 2.1 2.1 0 0 0-.825-.586 2.7 2.7 0 0 0-1.061-.201M93.886 114.888l3.514-4.796-3.423-4.65h1.757l1.428 1.996 1.135 1.574h.073l1.099-1.574 1.409-1.996h1.684l-3.46 4.631 3.552 4.815h-1.758l-1.592-2.215-1.08-1.501h-.074l-1.043 1.501-1.537 2.215zM105.484 105.442h1.464v1.538h.073q.916-1.758 2.911-1.757 1.738 0 2.709 1.299.988 1.3.988 3.643t-.988 3.643q-.97 1.299-2.709 1.299-1.995 0-2.911-1.757h-.073v5.199h-1.464zm3.88 8.366q1.281 0 1.977-.769.714-.787.714-2.069v-1.61q0-1.282-.714-2.051-.696-.786-1.977-.787-.493 0-.933.128a2.3 2.3 0 0 0-.769.385q-.33.238-.531.604a1.75 1.75 0 0 0-.183.824v3.404q0 .476.183.842.201.348.531.604.33.238.769.367.44.128.933.128M120.212 115.107a4.5 4.5 0 0 1-1.794-.347 3.9 3.9 0 0 1-1.355-.989 4.7 4.7 0 0 1-.842-1.556q-.292-.915-.292-2.05 0-1.116.292-2.032.293-.915.842-1.556a3.8 3.8 0 0 1 1.355-1.007 4.5 4.5 0 0 1 1.794-.347q.989 0 1.775.347.806.348 1.355 1.007.567.64.86 1.556.293.915.293 2.032 0 1.135-.293 2.05a4.5 4.5 0 0 1-.86 1.556 3.7 3.7 0 0 1-1.355.989q-.786.347-1.775.347m0-1.263q1.227 0 1.977-.732t.75-2.27v-1.354q0-1.538-.75-2.27t-1.977-.732-1.977.732-.751 2.27v1.354q0 1.538.751 2.27.75.732 1.977.732M127.106 113.643h2.764v-6.956h-2.764v-1.245h4.228v2.38h.092q.293-1.116 1.098-1.739.824-.64 2.087-.641h1.318v1.465h-1.776q-1.263 0-2.05.732-.77.732-.769 1.922v4.082h3.661v1.245h-7.889zM142.621 114.888q-1.08 0-1.592-.604-.495-.605-.495-1.556v-6.041h-3.148v-1.245h2.343q.476 0 .659-.183.201-.201.201-.677v-2.471h1.41v3.331h4.301v1.245h-4.301v6.956h4.301v1.245zM164.445 115.107q-1.026 0-1.831-.347a3.9 3.9 0 0 1-1.336-1.007 4.4 4.4 0 0 1-.842-1.556 7 7 0 0 1-.275-2.032q0-1.116.293-2.032t.842-1.556a3.6 3.6 0 0 1 1.336-1.007q.787-.347 1.794-.347 1.373 0 2.233.604.861.603 1.263 1.574l-1.171.622a2.2 2.2 0 0 0-.86-1.135q-.586-.402-1.465-.402-.64 0-1.153.219-.494.202-.842.586a2.6 2.6 0 0 0-.531.915q-.165.531-.165 1.154v1.61q0 .623.165 1.154.183.531.531.915t.86.604q.513.201 1.172.201.951 0 1.574-.439.622-.44.989-1.208l1.043.714a3.73 3.73 0 0 1-1.318 1.574q-.88.622-2.306.622M171.064 113.643h3.295v-11.056h-3.295v-1.245h4.759v12.301h3.295v1.245h-8.054zM189.636 114.888q-.86 0-1.226-.44t-.458-1.098h-.092a2.7 2.7 0 0 1-1.006 1.3q-.678.457-1.831.457-1.482 0-2.361-.768-.879-.77-.879-2.106 0-1.317.952-2.031.97-.714 3.112-.714h2.013v-.934q0-1.043-.585-1.556-.586-.531-1.666-.531-.952 0-1.556.385a2.74 2.74 0 0 0-.97 1.007l-.989-.733q.183-.366.495-.714a3 3 0 0 1 .768-.604 3.8 3.8 0 0 1 1.044-.421q.586-.164 1.3-.164 1.665 0 2.635.842.989.842.989 2.343v5.198h1.318v1.282zm-4.357-1.007q.568 0 1.026-.128.475-.147.823-.366.348-.239.531-.549.201-.33.201-.696v-1.556h-2.013q-1.318 0-1.922.366t-.604 1.062v.384q0 .733.512 1.117.531.366 1.446.366M197.152 115.107q-1.482 0-2.562-.494a5.8 5.8 0 0 1-1.813-1.354l.989-.861q.677.714 1.483 1.098.804.385 1.94.385 1.098 0 1.794-.385.714-.402.714-1.244 0-.366-.147-.604a.97.97 0 0 0-.366-.403 1.9 1.9 0 0 0-.531-.22 4.5 4.5 0 0 0-.622-.146l-1.483-.22a17 17 0 0 1-1.08-.201 3.7 3.7 0 0 1-1.043-.403 2.7 2.7 0 0 1-.806-.769q-.31-.476-.311-1.244 0-.714.275-1.227.292-.531.805-.878a3.4 3.4 0 0 1 1.208-.531q.696-.183 1.52-.183 1.281 0 2.214.402a4.8 4.8 0 0 1 1.63 1.117l-.952.897a2.7 2.7 0 0 0-.421-.403 2.3 2.3 0 0 0-.604-.384 3.4 3.4 0 0 0-.824-.293 5 5 0 0 0-1.098-.11q-1.117 0-1.721.385-.586.384-.586 1.116 0 .367.128.622.147.238.385.385.237.146.531.238.311.073.622.128l1.483.22q.511.073 1.08.201.567.128 1.043.421.476.275.787.75.33.477.33 1.245 0 1.41-1.099 2.179-1.08.768-2.892.768M208.128 115.107q-1.482 0-2.563-.494a5.8 5.8 0 0 1-1.812-1.354l.989-.861q.677.714 1.482 1.098t1.941.385q1.098 0 1.793-.385.714-.402.714-1.244 0-.366-.146-.604a1 1 0 0 0-.366-.403 1.9 1.9 0 0 0-.531-.22 5 5 0 0 0-.622-.146l-1.483-.22q-.495-.074-1.08-.201a3.7 3.7 0 0 1-1.043-.403 2.7 2.7 0 0 1-.806-.769q-.31-.476-.311-1.244 0-.714.275-1.227.292-.531.805-.878a3.4 3.4 0 0 1 1.208-.531 6 6 0 0 1 1.519-.183q1.282 0 2.215.402a4.8 4.8 0 0 1 1.629 1.117l-.951.897a2.7 2.7 0 0 0-.421-.403 2.3 2.3 0 0 0-.605-.384 3.4 3.4 0 0 0-.823-.293 5 5 0 0 0-1.099-.11q-1.116 0-1.72.385-.586.384-.586 1.116 0 .367.128.622.147.238.385.385.237.146.53.238.311.073.623.128l1.483.22q.512.073 1.079.201.569.128 1.044.421.476.275.787.75.33.477.329 1.245 0 1.41-1.098 2.179-1.08.768-2.892.768"/><path fill="#a0a0a0" fill-rule="evenodd" d="M196.715 108.618V78.645a2.244 2.244 0 0 0-2.245-2.239h-94.452a2.245 2.245 0 0 0-2.246 2.238v58.772q0 .047.002.094v7.467h127.843v-24.406H104.279v-7.477a2.246 2.246 0 0 1 2.246-2.238h87.945a2.244 2.244 0 0 0 2.245-2.238" clip-rule="evenodd"/><path fill="#ecedee" d="M108.133 139.384q-1.025 0-1.831-.348a3.9 3.9 0 0 1-1.336-1.007 4.4 4.4 0 0 1-.842-1.556 7 7 0 0 1-.274-2.032q0-1.116.292-2.031.293-.916.843-1.556.549-.66 1.336-1.007.787-.348 1.794-.348 1.372 0 2.233.604.86.605 1.263 1.574l-1.172.623a2.18 2.18 0 0 0-.86-1.135q-.586-.403-1.464-.403-.64 0-1.154.22-.494.201-.842.585a2.6 2.6 0 0 0-.53.916q-.165.53-.165 1.153v1.611q0 .622.165 1.153.183.531.53.915.348.385.861.604.512.202 1.171.202.953 0 1.574-.44.623-.439.989-1.208l1.043.714a3.7 3.7 0 0 1-1.318 1.574q-.878.623-2.306.623M118.779 139.384a4.5 4.5 0 0 1-1.794-.348 3.9 3.9 0 0 1-1.354-.989 4.7 4.7 0 0 1-.842-1.555q-.293-.916-.293-2.051 0-1.116.293-2.031a4.4 4.4 0 0 1 .842-1.556q.567-.66 1.354-1.007a4.5 4.5 0 0 1 1.794-.348q.989 0 1.776.348a3.6 3.6 0 0 1 1.354 1.007q.568.64.861 1.556.293.915.293 2.031 0 1.135-.293 2.051a4.5 4.5 0 0 1-.861 1.555 3.7 3.7 0 0 1-1.354.989q-.787.348-1.776.348m0-1.263q1.227 0 1.977-.733.751-.732.751-2.269v-1.355q0-1.538-.751-2.27-.75-.732-1.977-.732-1.225 0-1.977.732-.75.732-.75 2.27v1.355q0 1.537.75 2.269.752.733 1.977.733M126.057 139.164v-9.445h1.465v1.537h.073q.147-.347.366-.659.22-.328.531-.567a2.8 2.8 0 0 1 .769-.385 3.3 3.3 0 0 1 1.025-.146q1.483 0 2.38.952.896.933.896 2.654v6.059h-1.464v-5.803q0-1.3-.567-1.922-.568-.64-1.666-.64-.44 0-.86.11a2.5 2.5 0 0 0-.751.329q-.33.22-.531.567a1.6 1.6 0 0 0-.201.806v6.553zM140.841 139.384q-1.483 0-2.563-.495a5.7 5.7 0 0 1-1.812-1.354l.988-.86q.678.713 1.483 1.098.806.384 1.94.384 1.098 0 1.794-.384.714-.404.714-1.245 0-.366-.146-.604a1 1 0 0 0-.367-.403 1.9 1.9 0 0 0-.53-.219 5 5 0 0 0-.623-.147l-1.482-.219q-.495-.073-1.08-.202a3.7 3.7 0 0 1-1.044-.402 2.7 2.7 0 0 1-.805-.769q-.311-.476-.311-1.245 0-.714.274-1.226a2.5 2.5 0 0 1 .806-.879 3.4 3.4 0 0 1 1.208-.531q.695-.183 1.519-.183 1.282 0 2.215.403.952.402 1.629 1.116l-.952.897a2.7 2.7 0 0 0-.421-.402 2.2 2.2 0 0 0-.604-.385 3.5 3.5 0 0 0-.824-.293 5 5 0 0 0-1.098-.11q-1.116 0-1.721.385-.585.384-.585 1.116 0 .367.128.623.146.238.384.384t.531.238q.312.074.622.128l1.483.22q.513.073 1.08.201.567.129 1.044.421.475.275.787.751.329.476.329 1.245 0 1.409-1.098 2.178-1.08.769-2.892.769M152.164 139.164q-1.08 0-1.592-.604-.495-.604-.495-1.556v-6.041h-3.148v-1.244h2.343q.476 0 .659-.183.201-.202.201-.678v-2.471h1.41v3.332h4.301v1.244h-4.301v6.956h4.301v1.245zM158.6 137.919h2.764v-6.956H158.6v-1.244h4.229v2.379h.091q.294-1.116 1.099-1.739.823-.64 2.086-.64h1.318v1.464h-1.775q-1.263 0-2.05.732-.77.732-.769 1.922v4.082h3.661v1.245h-7.89zM175.891 137.626h-.073q-.146.348-.366.678-.219.31-.549.549a2.6 2.6 0 0 1-.751.384 3.2 3.2 0 0 1-1.025.147q-1.482 0-2.379-.934-.897-.951-.897-2.672v-6.059h1.464v5.802q0 1.3.568 1.941.567.622 1.665.622.44 0 .861-.11.42-.11.75-.329t.531-.549a1.6 1.6 0 0 0 .201-.824v-6.553h1.465v9.445h-1.465zM184.963 139.384q-1.024 0-1.83-.348a3.9 3.9 0 0 1-1.336-1.007 4.4 4.4 0 0 1-.842-1.556 7 7 0 0 1-.275-2.032q0-1.116.293-2.031a4.4 4.4 0 0 1 .842-1.556q.549-.66 1.336-1.007.787-.348 1.794-.348 1.373 0 2.233.604.861.605 1.263 1.574l-1.171.623a2.2 2.2 0 0 0-.86-1.135q-.586-.403-1.465-.403-.64 0-1.153.22-.495.201-.842.585a2.6 2.6 0 0 0-.531.916q-.165.53-.165 1.153v1.611q0 .622.165 1.153.183.531.531.915.348.385.86.604.512.202 1.172.202.951 0 1.574-.44.622-.439.988-1.208l1.044.714a3.73 3.73 0 0 1-1.318 1.574q-.879.623-2.307.623M196.067 139.164q-1.08 0-1.592-.604-.495-.604-.494-1.556v-6.041h-3.149v-1.244h2.343q.476 0 .659-.183.201-.202.201-.678v-2.471h1.41v3.332h4.302v1.244h-4.302v6.956h4.302v1.245zM206.585 139.384a4.5 4.5 0 0 1-1.793-.348 3.9 3.9 0 0 1-1.355-.989 4.7 4.7 0 0 1-.842-1.555q-.293-.916-.293-2.051 0-1.116.293-2.031a4.4 4.4 0 0 1 .842-1.556q.567-.66 1.355-1.007a4.5 4.5 0 0 1 1.793-.348q.988 0 1.776.348.806.347 1.355 1.007.567.64.86 1.556.293.915.293 2.031 0 1.135-.293 2.051a4.5 4.5 0 0 1-.86 1.555 3.7 3.7 0 0 1-1.355.989q-.788.348-1.776.348m0-1.263q1.227 0 1.977-.733.751-.732.751-2.269v-1.355q0-1.538-.751-2.27-.75-.732-1.977-.732-1.226 0-1.976.732-.751.732-.751 2.27v1.355q0 1.537.751 2.269.75.733 1.976.733M213.479 137.919h2.764v-6.956h-2.764v-1.244h4.229v2.379h.091q.293-1.116 1.099-1.739.823-.64 2.086-.64h1.318v1.464h-1.775q-1.264 0-2.05.732-.77.732-.769 1.922v4.082h3.661v1.245h-7.89zM122.91 95.946v-6.318h1.548c1.618 0 2.957 1.018 2.957 3.166s-1.353 3.152-2.971 3.152zm1.604 1.785c2.817 0 4.895-1.813 4.895-4.937s-2.064-4.951-4.881-4.951h-3.543v9.888zm6.005-1.869c0 1.074.893 2.064 2.357 2.064 1.019 0 1.674-.474 2.023-1.018 0 .265.028.642.069.823h1.702a8 8 0 0 1-.084-1.088v-3.375c0-1.38-.809-2.608-2.984-2.608-1.841 0-2.831 1.186-2.943 2.26l1.646.348c.055-.6.502-1.116 1.311-1.116.781 0 1.157.405 1.157.893 0 .237-.125.432-.516.488l-1.687.251c-1.144.167-2.051.85-2.051 2.078m2.748.684c-.6 0-.893-.391-.893-.796 0-.53.377-.794.851-.864l1.548-.237v.307c0 1.213-.725 1.59-1.506 1.59m7.044 3.835v-3.32c.335.46 1.032.837 1.98.837 1.939 0 3.236-1.534 3.236-3.612 0-2.036-1.158-3.57-3.166-3.57-1.032 0-1.799.46-2.106.99v-.837h-1.799v9.512zm3.389-6.08c0 1.226-.753 1.938-1.702 1.938-.948 0-1.715-.726-1.715-1.939s.767-1.924 1.715-1.924 1.702.71 1.702 1.924m5.15-.6c.042-.754.502-1.34 1.283-1.34.893 0 1.27.6 1.27 1.367v4.003h1.855v-4.323c0-1.507-.809-2.72-2.553-2.72-.655 0-1.408.223-1.855.753v-3.807h-1.854V97.73h1.854zm8.145.083c0-.795.474-1.422 1.283-1.422.893 0 1.269.6 1.269 1.366v4.003h1.855v-4.323c0-1.507-.781-2.72-2.482-2.72-.74 0-1.562.32-1.981 1.032v-.85h-1.799v6.861h1.855zm7.643-.265c.041-.628.571-1.353 1.534-1.353 1.06 0 1.506.67 1.534 1.353zm3.249 1.785c-.223.614-.697 1.046-1.562 1.046-.92 0-1.687-.655-1.729-1.562h4.909c0-.028.028-.307.028-.572 0-2.203-1.269-3.556-3.389-3.556-1.758 0-3.375 1.423-3.375 3.612 0 2.315 1.659 3.668 3.542 3.668 1.688 0 2.775-.99 3.124-2.175z"/><path fill="#3fcf8e" fill-rule="evenodd" d="M289.694 84.212V54.238A2.245 2.245 0 0 0 287.448 52h-71.207a2.245 2.245 0 0 0-2.246 2.238v41.926h-.001v24.407h163.872V96.164H220.502v-7.476a2.244 2.244 0 0 1 2.245-2.238h64.701a2.245 2.245 0 0 0 2.246-2.238" clip-rule="evenodd"/><path fill="#ecedee" d="M223.497 102.387h3.569q2.344 0 3.496 1.611 1.154 1.61 1.154 4.778 0 3.166-1.154 4.777t-3.496 1.611h-3.569zm3.496 11.441q1.538 0 2.306-1.062.788-1.061.788-3.002v-1.977q0-1.94-.788-3.002-.768-1.061-2.306-1.061h-1.959v10.104zm11.818-10.196q-.64 0-.897-.256a.96.96 0 0 1-.256-.678v-.292a.9.9 0 0 1 .256-.659q.256-.275.897-.275.64 0 .897.275a.9.9 0 0 1 .256.659v.292a.96.96 0 0 1-.256.678q-.257.256-.897.256m-4.137 10.287h3.405v-6.956h-3.405v-1.244h4.869v8.2h3.185v1.245h-8.054zm14.637 1.465q-1.483 0-2.563-.495a5.7 5.7 0 0 1-1.812-1.354l.988-.86a5 5 0 0 0 1.483 1.098q.806.384 1.94.384 1.098 0 1.794-.384.714-.403.714-1.245 0-.366-.146-.604a1 1 0 0 0-.366-.403 1.9 1.9 0 0 0-.531-.219 5 5 0 0 0-.623-.147l-1.482-.219q-.495-.073-1.08-.202a3.7 3.7 0 0 1-1.044-.402 2.7 2.7 0 0 1-.805-.769q-.311-.476-.311-1.245 0-.714.274-1.226a2.5 2.5 0 0 1 .806-.879 3.4 3.4 0 0 1 1.208-.531q.695-.183 1.519-.183 1.281 0 2.215.403.952.402 1.629 1.116l-.952.897a2.7 2.7 0 0 0-.421-.402 2.2 2.2 0 0 0-.604-.385 3.5 3.5 0 0 0-.824-.293 5 5 0 0 0-1.098-.109q-1.116 0-1.721.384-.585.384-.585 1.117 0 .366.128.622.146.239.384.384.238.147.531.238.312.074.622.128l1.483.22q.513.074 1.08.201.567.129 1.044.421.475.275.787.751.329.475.329 1.245 0 1.409-1.098 2.178-1.08.768-2.892.769m7.113-9.665h1.465v1.537h.073q.915-1.757 2.91-1.757 1.74 0 2.709 1.3.989 1.299.989 3.642t-.989 3.643q-.969 1.3-2.709 1.3-1.995 0-2.91-1.758h-.073v5.199h-1.465zm3.881 8.365q1.281 0 1.977-.769.714-.787.714-2.068v-1.611q0-1.281-.714-2.05-.696-.787-1.977-.787-.495 0-.934.128a2.3 2.3 0 0 0-.769.384q-.329.238-.53.604a1.75 1.75 0 0 0-.183.824v3.405q0 .476.183.842.201.348.53.604.33.238.769.366.44.128.934.128m6.82-.165h3.295v-11.056h-3.295v-1.245h4.76v12.301h3.294v1.245h-8.054zm18.573 1.245q-.861 0-1.227-.439-.366-.44-.457-1.099h-.092a2.67 2.67 0 0 1-1.007 1.3q-.676.458-1.83.458-1.483 0-2.362-.769-.878-.769-.878-2.105 0-1.318.952-2.032.97-.714 3.112-.714h2.013v-.933q0-1.044-.586-1.556-.585-.531-1.665-.531-.953 0-1.556.384-.604.366-.971 1.007l-.988-.732q.183-.366.494-.714.312-.348.769-.604a3.8 3.8 0 0 1 1.043-.421q.586-.165 1.3-.165 1.666 0 2.636.842.988.842.988 2.343v5.199h1.318v1.281zm-4.357-1.007q.567 0 1.025-.128.476-.145.824-.366.348-.239.531-.549.201-.33.201-.696v-1.556h-2.013q-1.319 0-1.922.367-.605.365-.605 1.061v.385q0 .732.513 1.116.531.366 1.446.366m14.82-8.438h1.464l-4.686 11.514q-.165.402-.366.695a1.7 1.7 0 0 1-.476.494 1.8 1.8 0 0 1-.659.293q-.384.11-.915.11h-1.391v-1.245h2.196l1.062-2.599-3.807-9.262h1.501l1.592 3.954 1.41 3.587h.073l1.409-3.587zm5.429-3.332v7.67q0 .933.055 1.666t.293 1.263q.239.512.732.787.513.274 1.41.274t1.391-.274q.513-.275.75-.787.239-.531.293-1.263a22 22 0 0 0 .055-1.666v-7.67h1.538v7.304q0 1.428-.147 2.489-.127 1.062-.567 1.776a2.66 2.66 0 0 1-1.226 1.08q-.788.348-2.087.348t-2.105-.348a2.8 2.8 0 0 1-1.227-1.08q-.42-.714-.567-1.776a21 21 0 0 1-.128-2.489v-7.304zm9.713 3.332h1.464v1.537h.074q.915-1.757 2.91-1.757 1.739 0 2.709 1.3.989 1.299.989 3.642t-.989 3.643q-.97 1.3-2.709 1.3-1.995 0-2.91-1.758h-.074v5.199h-1.464zm3.881 8.365q1.281 0 1.977-.769.714-.787.713-2.068v-1.611q0-1.281-.713-2.05-.696-.787-1.977-.787-.495 0-.934.128a2.3 2.3 0 0 0-.769.384 1.8 1.8 0 0 0-.531.604 1.75 1.75 0 0 0-.183.824v3.405q0 .476.183.842.202.348.531.604.33.238.769.366.44.128.934.128m13.135-.458h-.073q-.915 1.758-2.91 1.758-1.74 0-2.728-1.3-.97-1.3-.97-3.643t.97-3.642q.988-1.3 2.728-1.3 1.995 0 2.91 1.757h.073v-5.638h1.465v13.546h-1.465zm-2.416.458q.495 0 .934-.128t.769-.366q.329-.256.512-.604.201-.366.201-.842v-3.405a1.6 1.6 0 0 0-.201-.824 1.65 1.65 0 0 0-.512-.604 2.3 2.3 0 0 0-.769-.384 3.3 3.3 0 0 0-.934-.128q-1.281 0-1.995.787-.696.769-.696 2.05v1.611q0 1.281.696 2.068.714.77 1.995.769m14.674 1.08q-.861 0-1.227-.439-.365-.44-.458-1.099h-.091a2.67 2.67 0 0 1-1.007 1.3q-.676.458-1.83.458-1.483 0-2.362-.769-.878-.769-.878-2.105 0-1.318.952-2.032.97-.714 3.111-.714h2.014v-.933q0-1.044-.586-1.556-.586-.531-1.666-.531-.952 0-1.555.384-.605.366-.971 1.007l-.988-.732q.183-.366.494-.714.312-.348.769-.604a3.8 3.8 0 0 1 1.043-.421q.586-.165 1.3-.165 1.665 0 2.636.842.988.842.988 2.343v5.199h1.318v1.281zm-4.357-1.007q.567 0 1.025-.128.476-.145.824-.366.348-.239.531-.549.201-.33.201-.696v-1.556h-2.014q-1.317 0-1.922.367-.603.365-.604 1.061v.385q0 .732.513 1.116.531.366 1.446.366m12.22 1.007q-1.079 0-1.592-.604-.495-.604-.494-1.556v-6.041h-3.149v-1.244h2.343q.476 0 .659-.183.202-.202.202-.678v-2.471h1.409v3.332h4.302v1.244h-4.302v6.956h4.302v1.245zm10.683.22q-1.025 0-1.848-.348a4 4 0 0 1-1.392-.989 4.7 4.7 0 0 1-.878-1.555q-.312-.916-.311-2.032 0-1.135.311-2.05a4.7 4.7 0 0 1 .897-1.556q.567-.66 1.354-1.007a4.4 4.4 0 0 1 1.776-.348q.951 0 1.721.348.787.348 1.336.97.55.605.842 1.446.293.842.293 1.849v.695h-6.993v.44q0 .622.202 1.153.201.531.567.915.384.385.915.604.55.202 1.208.202.952 0 1.648-.44a2.84 2.84 0 0 0 1.062-1.208l1.08.732q-.421.953-1.41 1.575-.97.603-2.38.604m-.091-8.677a2.8 2.8 0 0 0-2.014.824 2.9 2.9 0 0 0-.585.915q-.202.513-.202 1.135v.128h5.418v-.201q0-.622-.201-1.135a2.45 2.45 0 0 0-.531-.879 2.1 2.1 0 0 0-.823-.585 2.7 2.7 0 0 0-1.062-.202M236.688 74.583h2.148l-2.12-4.044c1.297-.377 2.106-1.423 2.106-2.803 0-1.716-1.228-3.04-3.152-3.04h-3.864v9.887h1.939v-3.807h1.004zm-2.943-5.467V66.37h1.562c.976 0 1.548.544 1.548 1.38 0 .81-.572 1.367-1.548 1.367zm9.53 3.989c-.906 0-1.743-.67-1.743-1.953 0-1.297.837-1.952 1.743-1.952s1.743.655 1.743 1.952-.836 1.953-1.743 1.953m0-5.593c-2.05 0-3.598 1.52-3.598 3.64 0 2.106 1.548 3.64 3.598 3.64s3.598-1.534 3.598-3.64c0-2.12-1.548-3.64-3.598-3.64m6.862 7.071v-.837c.362.586 1.087 1.005 2.036 1.005 1.952 0 3.235-1.549 3.235-3.627 0-2.036-1.157-3.584-3.165-3.584-1.019 0-1.772.447-2.079.935v-3.99h-1.827v10.098zm3.417-3.445c0 1.256-.754 1.953-1.702 1.953-.934 0-1.715-.711-1.715-1.953 0-1.255.781-1.938 1.715-1.938.948 0 1.702.683 1.702 1.938m4.676-.767c.042-.627.572-1.352 1.534-1.352 1.06 0 1.506.669 1.534 1.352zm3.249 1.785c-.223.614-.697 1.046-1.562 1.046-.92 0-1.687-.655-1.729-1.561h4.909c0-.028.028-.307.028-.572 0-2.204-1.269-3.557-3.389-3.557-1.757 0-3.375 1.423-3.375 3.612 0 2.316 1.66 3.669 3.542 3.669 1.688 0 2.776-.99 3.124-2.176zm7.291-4.462c-.14-.014-.279-.028-.433-.028-.585 0-1.534.167-1.952 1.074v-1.018h-1.799v6.861h1.855v-3.138c0-1.478.823-1.938 1.771-1.938.167 0 .349.014.558.055zm3.864-2.023h-1.673v.963c0 .613-.335 1.088-1.06 1.088h-.349v1.645h1.241v3.194c0 1.325.837 2.12 2.176 2.12.544 0 .879-.098 1.046-.168V72.98a2.7 2.7 0 0 1-.572.056c-.53 0-.809-.195-.809-.795v-2.873h1.381v-1.645h-1.381z"/></g><defs><clipPath id="a"><path fill="#fff" d="M.5 0h360v210H.5z"/></clipPath></defs></svg>