<svg width="361" height="210" viewBox="0 0 361 210" fill="none" xmlns="http://www.w3.org/2000/svg">
<mask id="mask0_1125_17886" style="mask-type:alpha" maskUnits="userSpaceOnUse" x="87" y="38" width="60" height="60">
<rect x="87.9635" y="38.4635" width="58.4057" height="58.4057" rx="29.2028" fill="#D9D9D9" stroke="#232323" stroke-width="0.927074"/>
</mask>
<g mask="url(#mask0_1125_17886)">
<rect x="76.8385" y="27.3385" width="80.6555" height="112.176" fill="#A0A0A0" stroke="#3FCF8E" stroke-width="0.927074"/>
<path d="M102.855 70.1654C102.855 72.6331 104.488 74.2664 106.974 74.2664C109.424 74.2664 111.075 72.3846 111.075 70.1121V61.4129H108.625V70.1121C108.625 71.2128 107.986 71.9407 106.956 71.9407C105.962 71.9407 105.234 71.3549 105.216 70.0589V68.9049L102.855 69.331V70.1654ZM125.626 70.1121L122.821 61.4129H120.283L117.495 70.0766L115.187 61.4129H112.595L116.093 74.0001H118.649L121.525 65.0346L124.401 74.0001H126.922L130.402 61.4129H127.899L125.626 70.1121Z" fill="#7E7E7E"/>
</g>
<rect x="129.219" y="79.7183" width="20.3956" height="20.3956" rx="10.1978" fill="#3FCF8E" stroke="#232323" stroke-width="5.56245"/>
<path d="M162.112 61.1539C162.112 63.0925 163.395 64.3756 165.348 64.3756C167.272 64.3756 168.569 62.8972 168.569 61.1121V54.2783H166.645V61.1121C166.645 61.9768 166.143 62.5486 165.334 62.5486C164.553 62.5486 163.981 62.0883 163.967 61.0702V60.1637L162.112 60.4984V61.1539ZM172.441 64.1664V57.3047H170.586V64.1664H172.441ZM170.363 55.0593C170.363 55.6729 170.879 56.1889 171.507 56.1889C172.148 56.1889 172.651 55.6729 172.651 55.0593C172.651 54.4177 172.148 53.9017 171.507 53.9017C170.879 53.9017 170.363 54.4177 170.363 55.0593ZM176.282 64.1664V60.1498C176.282 59.3967 176.756 58.7969 177.565 58.7969C178.402 58.7969 178.779 59.3548 178.779 60.094V64.1664H180.619V60.1498C180.619 59.4106 181.094 58.7969 181.889 58.7969C182.739 58.7969 183.102 59.3548 183.102 60.094V64.1664H184.901V59.7174C184.901 57.8765 183.688 57.1094 182.419 57.1094C181.512 57.1094 180.787 57.4162 180.243 58.253C179.894 57.5139 179.141 57.1094 178.207 57.1094C177.454 57.1094 176.575 57.472 176.198 58.1415V57.3047H174.427V64.1664H176.282ZM199.64 61.1121L197.436 54.2783H195.442L193.252 61.0842L191.439 54.2783H189.403L192.151 64.1664H194.159L196.418 57.1234L198.678 64.1664H200.658L203.392 54.2783H201.425L199.64 61.1121ZM206.409 60.1358C206.451 59.3827 206.911 58.7969 207.692 58.7969C208.585 58.7969 208.961 59.3967 208.961 60.1637V64.1664H210.816V59.8429C210.816 58.3367 210.007 57.1234 208.264 57.1234C207.608 57.1234 206.855 57.3465 206.409 57.8765V54.0691H204.554V64.1664H206.409V60.1358ZM214.051 59.9545C214.093 59.3269 214.623 58.6017 215.586 58.6017C216.645 58.6017 217.092 59.2711 217.12 59.9545H214.051ZM217.301 61.7397C217.078 62.3533 216.604 62.7857 215.739 62.7857C214.818 62.7857 214.051 62.1302 214.01 61.2237H218.919C218.919 61.1958 218.947 60.9168 218.947 60.6518C218.947 58.4483 217.678 57.0955 215.558 57.0955C213.8 57.0955 212.183 58.518 212.183 60.7076C212.183 63.0228 213.842 64.3756 215.725 64.3756C217.413 64.3756 218.5 63.3854 218.849 62.1999L217.301 61.7397ZM222.262 64.1664V54.0691H220.407V64.1664H222.262ZM223.789 62.2975C223.789 63.3714 224.681 64.3616 226.146 64.3616C227.164 64.3616 227.819 63.8875 228.168 63.3435C228.168 63.6085 228.196 63.9851 228.238 64.1664H229.939C229.897 63.9293 229.856 63.4412 229.856 63.0785V59.7035C229.856 58.3228 229.047 57.0955 226.871 57.0955C225.03 57.0955 224.04 58.2809 223.928 59.3548L225.574 59.7035C225.63 59.1038 226.076 58.5877 226.885 58.5877C227.666 58.5877 228.043 58.9922 228.043 59.4803C228.043 59.7174 227.917 59.9127 227.527 59.9685L225.839 60.2195C224.695 60.3869 223.789 61.0702 223.789 62.2975ZM226.536 62.9809C225.937 62.9809 225.644 62.5904 225.644 62.186C225.644 61.656 226.02 61.391 226.494 61.3213L228.043 61.0842V61.391C228.043 62.6044 227.317 62.9809 226.536 62.9809ZM233.58 60.2195C233.58 59.4245 234.054 58.7969 234.863 58.7969C235.756 58.7969 236.132 59.3967 236.132 60.1637V64.1664H237.987V59.8429C237.987 58.3367 237.206 57.1234 235.505 57.1234C234.766 57.1234 233.943 57.4441 233.524 58.1554V57.3047H231.725V64.1664H233.58V60.2195Z" fill="#ECEDEE"/>
<path d="M166.505 81.3756C168.513 81.3756 170.061 80.1204 170.061 77.7913V71.2783H168.695V77.7495C168.695 79.2557 167.9 80.1064 166.505 80.1064C165.124 80.1064 164.302 79.2557 164.302 77.7495V71.2783H162.949V77.7913C162.949 80.1204 164.497 81.3756 166.505 81.3756ZM171.664 79.4231C171.776 80.1901 172.557 81.3756 174.398 81.3756C176.057 81.3756 176.852 80.2459 176.852 79.2975C176.852 78.3073 176.211 77.5682 174.997 77.3032L173.91 77.0661C173.394 76.9545 173.143 76.6616 173.143 76.2572C173.143 75.7969 173.589 75.3646 174.258 75.3646C175.318 75.3646 175.597 76.1317 175.653 76.4803L176.811 76.048C176.671 75.4483 176.099 74.2489 174.258 74.2489C172.947 74.2489 171.873 75.2251 171.873 76.3688C171.873 77.3171 172.501 78.0284 173.547 78.2515L174.691 78.5026C175.249 78.6281 175.555 78.9489 175.555 79.3673C175.555 79.8415 175.151 80.2599 174.412 80.2599C173.463 80.2599 172.933 79.702 172.85 79.0047L171.664 79.4231ZM179.38 77.1219C179.436 76.2572 180.106 75.4064 181.207 75.4064C182.393 75.4064 183.02 76.1596 183.048 77.1219H179.38ZM183.244 78.8652C182.993 79.6183 182.449 80.218 181.361 80.218C180.231 80.218 179.366 79.3812 179.339 78.1818H184.387C184.401 78.0981 184.415 77.9308 184.415 77.7634C184.415 75.6714 183.258 74.2489 181.193 74.2489C179.506 74.2489 177.986 75.6854 177.986 77.7913C177.986 80.0646 179.562 81.3756 181.361 81.3756C182.923 81.3756 183.997 80.4412 184.373 79.2557L183.244 78.8652ZM189.812 74.3883C189.743 74.3744 189.561 74.3465 189.38 74.3465C188.697 74.3465 187.86 74.5975 187.372 75.6296V74.4581H186.089V81.1664H187.4V77.8053C187.4 76.3269 188.139 75.7412 189.241 75.7412C189.422 75.7412 189.617 75.7551 189.812 75.783V74.3883ZM197.569 80.2041C196.454 80.2041 195.477 79.3673 195.477 77.8053C195.477 76.2572 196.454 75.4204 197.569 75.4204C198.685 75.4204 199.661 76.2572 199.661 77.8053C199.661 79.3673 198.685 80.2041 197.569 80.2041ZM197.569 74.2489C195.561 74.2489 194.138 75.7691 194.138 77.8053C194.138 79.8554 195.561 81.3756 197.569 81.3756C199.578 81.3756 201 79.8554 201 77.8053C201 75.7691 199.578 74.2489 197.569 74.2489ZM203.988 77.2892C203.988 76.2711 204.518 75.4483 205.55 75.4483C206.722 75.4483 207.112 76.2014 207.112 77.1358V81.1664H208.423V76.9127C208.423 75.4204 207.628 74.2628 206.025 74.2628C205.244 74.2628 204.449 74.5836 203.961 75.4204V74.4581H202.677V81.1664H203.988V77.2892ZM211.82 81.1664V71.0691H210.509V81.1664H211.82ZM215.347 81.1664V74.4581H214.05V81.1664H215.347ZM213.757 71.9198C213.757 72.4358 214.175 72.8542 214.691 72.8542C215.221 72.8542 215.64 72.4358 215.64 71.9198C215.64 71.3898 215.221 70.9714 214.691 70.9714C214.175 70.9714 213.757 71.3898 213.757 71.9198ZM218.888 77.2892C218.888 76.2711 219.418 75.4483 220.45 75.4483C221.622 75.4483 222.012 76.2014 222.012 77.1358V81.1664H223.323V76.9127C223.323 75.4204 222.528 74.2628 220.925 74.2628C220.144 74.2628 219.349 74.5836 218.86 75.4204V74.4581H217.577V81.1664H218.888V77.2892ZM226.259 77.1219C226.315 76.2572 226.985 75.4064 228.086 75.4064C229.272 75.4064 229.9 76.1596 229.927 77.1219H226.259ZM230.123 78.8652C229.872 79.6183 229.328 80.218 228.24 80.218C227.11 80.218 226.246 79.3812 226.218 78.1818H231.266C231.28 78.0981 231.294 77.9308 231.294 77.7634C231.294 75.6714 230.137 74.2489 228.073 74.2489C226.385 74.2489 224.865 75.6854 224.865 77.7913C224.865 80.0646 226.441 81.3756 228.24 81.3756C229.802 81.3756 230.876 80.4412 231.252 79.2557L230.123 78.8652Z" fill="#3FCF8E"/>
<mask id="mask1_1125_17886" style="mask-type:alpha" maskUnits="userSpaceOnUse" x="87" y="112" width="60" height="61">
<rect x="87.9635" y="113.274" width="58.4057" height="58.4057" rx="29.2028" fill="#D9D9D9" stroke="#232323" stroke-width="0.927074"/>
</mask>
<g mask="url(#mask1_1125_17886)">
<rect x="76.8385" y="102.149" width="80.6555" height="112.176" fill="#7E7E7E" stroke="#3FCF8E" stroke-width="0.927074"/>
<path d="M115.092 148.352H117.755L112.961 135.765H110.121L105.292 148.352H107.884L108.931 145.476H114.044L115.092 148.352ZM111.488 138.481L113.228 143.239H109.748L111.488 138.481ZM127.247 148.352V146.044H121.815V143.133H126.732V140.949H121.815V138.073H127.247V135.765H119.365V148.352H127.247Z" fill="#A0A0A0"/>
</g>
<circle cx="117.166" cy="142.477" r="32.4476" stroke="#232323" stroke-width="5.56245"/>
<path d="M169.671 138.977H171.763L167.997 129.089H165.766L161.972 138.977H164.009L164.832 136.718H168.848L169.671 138.977ZM166.84 131.223L168.207 134.961H165.473L166.84 131.223ZM174.716 135.03C174.716 134.235 175.19 133.608 175.999 133.608C176.892 133.608 177.268 134.208 177.268 134.975V138.977H179.123V134.654C179.123 133.148 178.342 131.934 176.64 131.934C175.901 131.934 175.078 132.255 174.66 132.966V132.116H172.861V138.977H174.716V135.03ZM182.86 135.03C182.86 134.235 183.335 133.608 184.144 133.608C185.036 133.608 185.413 134.208 185.413 134.975V138.977H187.268V134.654C187.268 133.148 186.487 131.934 184.785 131.934C184.046 131.934 183.223 132.255 182.805 132.966V132.116H181.006V138.977H182.86V135.03ZM188.732 137.108C188.732 138.182 189.624 139.173 191.089 139.173C192.107 139.173 192.762 138.698 193.111 138.154C193.111 138.419 193.139 138.796 193.181 138.977H194.882C194.84 138.74 194.798 138.252 194.798 137.889V134.514C194.798 133.134 193.99 131.906 191.814 131.906C189.973 131.906 188.983 133.092 188.871 134.166L190.517 134.514C190.573 133.915 191.019 133.399 191.828 133.399C192.609 133.399 192.985 133.803 192.985 134.291C192.985 134.528 192.86 134.724 192.469 134.779L190.782 135.03C189.638 135.198 188.732 135.881 188.732 137.108ZM191.479 137.792C190.879 137.792 190.587 137.401 190.587 136.997C190.587 136.467 190.963 136.202 191.437 136.132L192.985 135.895V136.202C192.985 137.415 192.26 137.792 191.479 137.792ZM206.446 138.977V137.164H202.178V134.877H206.041V133.162H202.178V130.902H206.446V129.089H200.253V138.977H206.446ZM207.731 137.108C207.731 138.182 208.624 139.173 210.088 139.173C211.106 139.173 211.762 138.698 212.11 138.154C212.11 138.419 212.138 138.796 212.18 138.977H213.882C213.84 138.74 213.798 138.252 213.798 137.889V134.514C213.798 133.134 212.989 131.906 210.813 131.906C208.972 131.906 207.982 133.092 207.871 134.166L209.516 134.514C209.572 133.915 210.018 133.399 210.827 133.399C211.608 133.399 211.985 133.803 211.985 134.291C211.985 134.528 211.859 134.724 211.469 134.779L209.781 135.03C208.638 135.198 207.731 135.881 207.731 137.108ZM210.479 137.792C209.879 137.792 209.586 137.401 209.586 136.997C209.586 136.467 209.963 136.202 210.437 136.132L211.985 135.895V136.202C211.985 137.415 211.26 137.792 210.479 137.792ZM215.082 137.067C215.166 137.848 215.877 139.186 217.941 139.186C219.74 139.186 220.605 138.043 220.605 136.927C220.605 135.923 219.921 135.1 218.569 134.821L217.592 134.612C217.216 134.542 216.965 134.333 216.965 133.998C216.965 133.608 217.355 133.315 217.843 133.315C218.624 133.315 218.917 133.831 218.973 134.235L220.521 133.887C220.437 133.148 219.782 131.906 217.829 131.906C216.351 131.906 215.263 132.924 215.263 134.152C215.263 135.114 215.863 135.909 217.188 136.202L218.094 136.411C218.624 136.523 218.834 136.774 218.834 137.081C218.834 137.443 218.541 137.764 217.927 137.764C217.118 137.764 216.714 137.262 216.672 136.718L215.082 137.067ZM224.383 130.065H222.71V131.028C222.71 131.641 222.375 132.116 221.65 132.116H221.301V133.761H222.542V136.955C222.542 138.28 223.379 139.075 224.718 139.075C225.262 139.075 225.597 138.977 225.764 138.908V137.373C225.667 137.401 225.415 137.429 225.192 137.429C224.662 137.429 224.383 137.234 224.383 136.634V133.761H225.764V132.116H224.383V130.065ZM231.244 132.116L229.752 136.523L228.483 132.116H226.531L228.72 138.977H230.603L232.179 134.291L233.783 138.977H235.638L237.785 132.116H235.944L234.675 136.537L233.197 132.116H231.244ZM241.849 137.499C240.942 137.499 240.106 136.83 240.106 135.546C240.106 134.249 240.942 133.594 241.849 133.594C242.755 133.594 243.592 134.249 243.592 135.546C243.592 136.843 242.755 137.499 241.849 137.499ZM241.849 131.906C239.799 131.906 238.251 133.427 238.251 135.546C238.251 137.652 239.799 139.186 241.849 139.186C243.899 139.186 245.447 137.652 245.447 135.546C245.447 133.427 243.899 131.906 241.849 131.906ZM249.993 137.499C249.087 137.499 248.25 136.83 248.25 135.546C248.25 134.249 249.087 133.594 249.993 133.594C250.9 133.594 251.737 134.249 251.737 135.546C251.737 136.843 250.9 137.499 249.993 137.499ZM249.993 131.906C247.943 131.906 246.395 133.427 246.395 135.546C246.395 137.652 247.943 139.186 249.993 139.186C252.044 139.186 253.592 137.652 253.592 135.546C253.592 133.427 252.044 131.906 249.993 131.906ZM261.597 128.88H259.77V132.799C259.575 132.436 259.017 131.948 257.831 131.948C255.893 131.948 254.54 133.524 254.54 135.532C254.54 137.611 255.935 139.145 257.887 139.145C258.808 139.145 259.505 138.726 259.812 138.182C259.812 138.503 259.853 138.838 259.881 138.977H261.653C261.625 138.698 261.597 138.196 261.597 137.736V128.88ZM256.409 135.532C256.409 134.305 257.162 133.608 258.11 133.608C259.059 133.608 259.798 134.291 259.798 135.519C259.798 136.76 259.059 137.485 258.11 137.485C257.134 137.485 256.409 136.76 256.409 135.532Z" fill="#ECEDEE"/>
<path d="M169.936 155.977H171.414L167.481 146.089H165.905L161.972 155.977H163.437L164.483 153.216H168.862L169.936 155.977ZM166.659 147.512L168.374 151.947H164.971L166.659 147.512ZM175.354 150.273C176.498 150.273 176.986 151.04 177.153 151.696L178.339 151.194C178.06 150.176 177.139 149.06 175.354 149.06C173.444 149.06 171.979 150.524 171.979 152.616C171.979 154.652 173.416 156.186 175.368 156.186C177.111 156.186 178.074 155.057 178.395 154.095L177.237 153.592C177.084 154.122 176.623 154.973 175.368 154.973C174.28 154.973 173.318 154.15 173.318 152.616C173.318 151.054 174.294 150.273 175.354 150.273ZM181.69 147.149H180.49V148.237C180.49 148.823 180.184 149.269 179.458 149.269H179.096V150.454H180.379V154.136C180.379 155.35 181.104 156.047 182.248 156.047C182.694 156.047 183.029 155.963 183.14 155.922V154.806C183.029 154.834 182.792 154.862 182.624 154.862C181.941 154.862 181.69 154.555 181.69 153.941V150.454H183.14V149.269H181.69V147.149ZM186.187 155.977V149.269H184.89V155.977H186.187ZM184.597 146.731C184.597 147.247 185.016 147.665 185.532 147.665C186.062 147.665 186.48 147.247 186.48 146.731C186.48 146.201 186.062 145.782 185.532 145.782C185.016 145.782 184.597 146.201 184.597 146.731ZM194.164 149.269H192.755L190.83 154.443L188.92 149.269H187.441L190.161 155.977H191.486L194.164 149.269ZM196.065 151.933C196.12 151.068 196.79 150.217 197.892 150.217C199.077 150.217 199.705 150.97 199.733 151.933H196.065ZM199.928 153.676C199.677 154.429 199.133 155.029 198.045 155.029C196.915 155.029 196.051 154.192 196.023 152.993H201.071C201.085 152.909 201.099 152.742 201.099 152.574C201.099 150.482 199.942 149.06 197.878 149.06C196.19 149.06 194.67 150.496 194.67 152.602C194.67 154.876 196.246 156.186 198.045 156.186C199.607 156.186 200.681 155.252 201.057 154.067L199.928 153.676ZM205.632 153.523C205.757 154.945 207.054 156.2 208.979 156.2C210.987 156.2 212.298 154.82 212.298 153.118C212.298 151.249 211.001 150.12 209.23 150.12C208.519 150.12 207.794 150.343 207.389 150.789L208.059 148.195H211.922V146.94H207.152L205.98 151.431C206.441 151.598 206.845 151.779 207.319 151.961C207.71 151.556 208.323 151.305 208.965 151.305C210.011 151.305 210.918 151.933 210.918 153.174C210.918 154.29 210.053 155.001 208.979 155.001C207.849 155.001 207.026 154.248 206.943 153.132L205.632 153.523ZM218.684 155.977V151.933C218.684 150.929 219.311 150.231 220.246 150.231C221.25 150.231 221.668 150.901 221.668 151.765V155.977H222.979V151.919C222.979 150.957 223.607 150.231 224.527 150.231C225.518 150.231 225.95 150.887 225.95 151.765V155.977H227.247V151.626C227.247 149.869 226.103 149.074 224.932 149.074C224.081 149.074 223.216 149.381 222.686 150.343C222.324 149.478 221.515 149.074 220.678 149.074C219.897 149.074 219.06 149.422 218.642 150.162V149.269H217.387V155.977H218.684ZM230.642 155.977V149.269H229.345V155.977H230.642ZM229.052 146.731C229.052 147.247 229.47 147.665 229.986 147.665C230.516 147.665 230.935 147.247 230.935 146.731C230.935 146.201 230.516 145.782 229.986 145.782C229.47 145.782 229.052 146.201 229.052 146.731ZM234.183 152.1C234.183 151.082 234.713 150.259 235.745 150.259C236.917 150.259 237.307 151.012 237.307 151.947V155.977H238.618V151.724C238.618 150.231 237.823 149.074 236.219 149.074C235.438 149.074 234.644 149.395 234.155 150.231V149.269H232.872V155.977H234.183V152.1ZM240.076 154.234C240.188 155.001 240.969 156.186 242.81 156.186C244.469 156.186 245.264 155.057 245.264 154.108C245.264 153.118 244.623 152.379 243.409 152.114L242.321 151.877C241.805 151.765 241.554 151.473 241.554 151.068C241.554 150.608 242.001 150.176 242.67 150.176C243.73 150.176 244.009 150.943 244.065 151.291L245.222 150.859C245.083 150.259 244.511 149.06 242.67 149.06C241.359 149.06 240.285 150.036 240.285 151.18C240.285 152.128 240.913 152.839 241.959 153.062L243.102 153.313C243.66 153.439 243.967 153.76 243.967 154.178C243.967 154.652 243.563 155.071 242.824 155.071C241.875 155.071 241.345 154.513 241.262 153.816L240.076 154.234ZM250.078 154.178C250.078 155.238 250.956 156.186 252.323 156.186C253.523 156.186 254.192 155.545 254.485 155.071C254.485 155.559 254.527 155.81 254.555 155.977H255.838C255.81 155.81 255.754 155.461 255.754 154.876V151.514C255.754 150.203 254.973 149.06 252.965 149.06C251.514 149.06 250.357 149.952 250.217 151.235L251.472 151.528C251.556 150.747 252.072 150.176 252.993 150.176C254.011 150.176 254.443 150.719 254.443 151.375C254.443 151.612 254.332 151.821 253.927 151.877L252.114 152.142C250.956 152.309 250.078 152.979 250.078 154.178ZM252.505 155.085C251.835 155.085 251.417 154.611 251.417 154.108C251.417 153.509 251.835 153.188 252.393 153.104L254.443 152.797V153.104C254.443 154.569 253.578 155.085 252.505 155.085ZM257.308 156.34C257.476 157.776 258.731 158.836 260.404 158.836C262.929 158.836 263.766 157.177 263.766 155.475V149.269H262.468V150.203C262.134 149.534 261.436 149.143 260.404 149.143C258.563 149.143 257.322 150.594 257.322 152.407C257.322 154.304 258.619 155.657 260.404 155.657C261.409 155.657 262.134 155.168 262.455 154.555V155.517C262.455 156.968 261.813 157.693 260.404 157.693C259.386 157.693 258.675 156.981 258.577 156.047L257.308 156.34ZM260.6 154.555C259.414 154.555 258.661 153.718 258.661 152.407C258.661 151.11 259.442 150.259 260.6 150.259C261.729 150.259 262.51 151.11 262.51 152.407C262.51 153.704 261.729 154.555 260.6 154.555ZM268.732 155.015C267.617 155.015 266.64 154.178 266.64 152.616C266.64 151.068 267.617 150.231 268.732 150.231C269.848 150.231 270.824 151.068 270.824 152.616C270.824 154.178 269.848 155.015 268.732 155.015ZM268.732 149.06C266.724 149.06 265.301 150.58 265.301 152.616C265.301 154.666 266.724 156.186 268.732 156.186C270.741 156.186 272.163 154.666 272.163 152.616C272.163 150.58 270.741 149.06 268.732 149.06Z" fill="#7E7E7E"/>
</svg>
