<svg width="360" height="210" viewBox="0 0 360 210" fill="none" xmlns="http://www.w3.org/2000/svg">
<rect x="58.6758" y="58" width="242" height="131" rx="8" fill="#282828"/>
<rect x="48.9609" y="35.8823" width="261.267" height="142.209" rx="8" fill="#2E2E2E"/>
<rect x="44.5" y="21.5" width="270.188" height="146.169" rx="7.5" fill="#343434" stroke="#3E3E3E"/>
<rect x="58.8818" y="35.8823" width="24.8038" height="24.8038" rx="4.13397" fill="#3FCF8E"/>
<path d="M97.631 46.133C97.439 45.209 96.671 44.021 94.751 44.021C93.179 44.021 91.943 45.221 91.943 46.553C91.943 47.825 92.807 48.617 94.019 48.881L95.231 49.145C96.083 49.325 96.503 49.853 96.503 50.465C96.503 51.209 95.927 51.821 94.751 51.821C93.467 51.821 92.795 50.945 92.711 49.997L91.583 50.357C91.739 51.569 92.711 52.889 94.763 52.889C96.575 52.889 97.703 51.689 97.703 50.369C97.703 49.181 96.911 48.293 95.495 47.981L94.223 47.705C93.503 47.549 93.131 47.081 93.131 46.469C93.131 45.677 93.815 45.053 94.775 45.053C95.963 45.053 96.479 45.893 96.575 46.505L97.631 46.133ZM102.7 52.013C102.7 52.253 102.724 52.577 102.748 52.709H103.828C103.804 52.505 103.768 52.097 103.768 51.641V46.937H102.64V50.417C102.64 51.293 102.184 51.893 101.272 51.893C100.324 51.893 99.9635 51.197 99.9635 50.405V46.937H98.8355V50.573C98.8355 51.881 99.6515 52.889 100.996 52.889C101.668 52.889 102.388 52.613 102.7 52.013ZM106.808 54.989V51.929C107.12 52.445 107.792 52.865 108.68 52.865C110.372 52.865 111.368 51.533 111.368 49.817C111.368 48.137 110.444 46.805 108.716 46.805C107.78 46.805 107.096 47.261 106.784 47.837V46.937H105.692V54.989H106.808ZM110.216 49.817C110.216 51.005 109.556 51.857 108.512 51.857C107.48 51.857 106.796 51.005 106.796 49.817C106.796 48.665 107.48 47.801 108.512 47.801C109.568 47.801 110.216 48.665 110.216 49.817ZM112.446 51.161C112.446 52.073 113.202 52.889 114.378 52.889C115.41 52.889 115.986 52.337 116.238 51.929C116.238 52.349 116.274 52.565 116.298 52.709H117.402C117.378 52.565 117.33 52.265 117.33 51.761V48.869C117.33 47.741 116.658 46.757 114.93 46.757C113.682 46.757 112.686 47.525 112.566 48.629L113.646 48.881C113.718 48.209 114.162 47.717 114.954 47.717C115.83 47.717 116.202 48.185 116.202 48.749C116.202 48.953 116.106 49.133 115.758 49.181L114.198 49.409C113.202 49.553 112.446 50.129 112.446 51.161ZM114.534 51.941C113.958 51.941 113.598 51.533 113.598 51.101C113.598 50.585 113.958 50.309 114.438 50.237L116.202 49.973V50.237C116.202 51.497 115.458 51.941 114.534 51.941ZM120.203 52.709V51.869C120.563 52.493 121.223 52.865 122.075 52.865C123.791 52.865 124.763 51.509 124.763 49.793C124.763 48.113 123.863 46.769 122.111 46.769C121.151 46.769 120.479 47.237 120.203 47.753V44.021H119.087V52.709H120.203ZM123.611 49.793C123.611 51.041 122.939 51.857 121.907 51.857C120.911 51.857 120.191 51.041 120.191 49.793C120.191 48.545 120.911 47.765 121.907 47.765C122.951 47.765 123.611 48.545 123.611 49.793ZM125.84 51.161C125.84 52.073 126.596 52.889 127.772 52.889C128.804 52.889 129.38 52.337 129.632 51.929C129.632 52.349 129.668 52.565 129.692 52.709H130.796C130.772 52.565 130.724 52.265 130.724 51.761V48.869C130.724 47.741 130.052 46.757 128.324 46.757C127.076 46.757 126.08 47.525 125.96 48.629L127.04 48.881C127.112 48.209 127.556 47.717 128.348 47.717C129.224 47.717 129.596 48.185 129.596 48.749C129.596 48.953 129.5 49.133 129.152 49.181L127.592 49.409C126.596 49.553 125.84 50.129 125.84 51.161ZM127.928 51.941C127.352 51.941 126.992 51.533 126.992 51.101C126.992 50.585 127.352 50.309 127.832 50.237L129.596 49.973V50.237C129.596 51.497 128.852 51.941 127.928 51.941ZM131.941 51.209C132.037 51.869 132.709 52.889 134.293 52.889C135.721 52.889 136.405 51.917 136.405 51.101C136.405 50.249 135.853 49.613 134.809 49.385L133.873 49.181C133.429 49.085 133.213 48.833 133.213 48.485C133.213 48.089 133.597 47.717 134.173 47.717C135.085 47.717 135.325 48.377 135.373 48.677L136.369 48.305C136.249 47.789 135.757 46.757 134.173 46.757C133.045 46.757 132.121 47.597 132.121 48.581C132.121 49.397 132.661 50.009 133.561 50.201L134.545 50.417C135.025 50.525 135.289 50.801 135.289 51.161C135.289 51.569 134.941 51.929 134.305 51.929C133.489 51.929 133.033 51.449 132.961 50.849L131.941 51.209ZM138.581 49.229C138.629 48.485 139.205 47.753 140.153 47.753C141.173 47.753 141.713 48.401 141.737 49.229H138.581ZM141.905 50.729C141.689 51.377 141.221 51.893 140.285 51.893C139.313 51.893 138.569 51.173 138.545 50.141H142.889C142.901 50.069 142.913 49.925 142.913 49.781C142.913 47.981 141.917 46.757 140.141 46.757C138.689 46.757 137.381 47.993 137.381 49.805C137.381 51.761 138.737 52.889 140.285 52.889C141.629 52.889 142.553 52.085 142.877 51.065L141.905 50.729ZM146.993 51.161C146.993 52.073 147.749 52.889 148.925 52.889C149.957 52.889 150.533 52.337 150.785 51.929C150.785 52.349 150.821 52.565 150.845 52.709H151.949C151.925 52.565 151.877 52.265 151.877 51.761V48.869C151.877 47.741 151.205 46.757 149.477 46.757C148.229 46.757 147.233 47.525 147.113 48.629L148.193 48.881C148.265 48.209 148.709 47.717 149.501 47.717C150.377 47.717 150.749 48.185 150.749 48.749C150.749 48.953 150.653 49.133 150.305 49.181L148.745 49.409C147.749 49.553 146.993 50.129 146.993 51.161ZM149.081 51.941C148.505 51.941 148.145 51.533 148.145 51.101C148.145 50.585 148.505 50.309 148.985 50.237L150.749 49.973V50.237C150.749 51.497 150.005 51.941 149.081 51.941ZM154.75 54.989V51.929C155.062 52.445 155.734 52.865 156.622 52.865C158.314 52.865 159.31 51.533 159.31 49.817C159.31 48.137 158.386 46.805 156.658 46.805C155.722 46.805 155.038 47.261 154.726 47.837V46.937H153.634V54.989H154.75ZM158.158 49.817C158.158 51.005 157.498 51.857 156.454 51.857C155.422 51.857 154.738 51.005 154.738 49.817C154.738 48.665 155.422 47.801 156.454 47.801C157.51 47.801 158.158 48.665 158.158 49.817ZM161.863 54.989V51.929C162.175 52.445 162.847 52.865 163.735 52.865C165.427 52.865 166.423 51.533 166.423 49.817C166.423 48.137 165.499 46.805 163.771 46.805C162.835 46.805 162.151 47.261 161.839 47.837V46.937H160.747V54.989H161.863ZM165.271 49.817C165.271 51.005 164.611 51.857 163.567 51.857C162.535 51.857 161.851 51.005 161.851 49.817C161.851 48.665 162.535 47.801 163.567 47.801C164.623 47.801 165.271 48.665 165.271 49.817Z" fill="#707070"/>
<path d="M65.6258 84.9541H67.4258L64.1858 76.4461H62.2658L59.0018 84.9541H60.7538L61.4618 83.0101H64.9178L65.6258 84.9541ZM63.1898 78.2821L64.3658 81.4981H62.0138L63.1898 78.2821ZM69.9666 81.5581C69.9666 80.8741 70.3746 80.3341 71.0706 80.3341C71.8386 80.3341 72.1626 80.8501 72.1626 81.5101V84.9541H73.7586V81.2341C73.7586 79.9381 73.0866 78.8941 71.6226 78.8941C70.9866 78.8941 70.2786 79.1701 69.9186 79.7821V79.0501H68.3706V84.9541H69.9666V81.5581ZM81.0064 76.2661H79.4344V79.6381C79.2664 79.3261 78.7864 78.9061 77.7664 78.9061C76.0984 78.9061 74.9344 80.2621 74.9344 81.9901C74.9344 83.7781 76.1344 85.0981 77.8144 85.0981C78.6064 85.0981 79.2064 84.7381 79.4704 84.2701C79.4704 84.5461 79.5064 84.8341 79.5304 84.9541H81.0544C81.0304 84.7141 81.0064 84.2821 81.0064 83.8861V76.2661ZM76.5424 81.9901C76.5424 80.9341 77.1904 80.3341 78.0064 80.3341C78.8224 80.3341 79.4584 80.9221 79.4584 81.9781C79.4584 83.0461 78.8224 83.6701 78.0064 83.6701C77.1664 83.6701 76.5424 83.0461 76.5424 81.9901ZM86.3377 79.0261C86.2177 79.0141 86.0977 79.0021 85.9657 79.0021C85.4617 79.0021 84.6457 79.1461 84.2857 79.9261V79.0501H82.7377V84.9541H84.3337V82.2541C84.3337 80.9821 85.0417 80.5861 85.8577 80.5861C86.0017 80.5861 86.1577 80.5981 86.3377 80.6341V79.0261ZM88.5658 81.3301C88.6018 80.7901 89.0578 80.1661 89.8858 80.1661C90.7978 80.1661 91.1818 80.7421 91.2058 81.3301H88.5658ZM91.3618 82.8661C91.1698 83.3941 90.7618 83.7661 90.0178 83.7661C89.2258 83.7661 88.5658 83.2021 88.5298 82.4221H92.7538C92.7538 82.3981 92.7778 82.1581 92.7778 81.9301C92.7778 80.0341 91.6858 78.8701 89.8618 78.8701C88.3498 78.8701 86.9578 80.0941 86.9578 81.9781C86.9578 83.9701 88.3858 85.1341 90.0058 85.1341C91.4578 85.1341 92.3938 84.2821 92.6938 83.2621L91.3618 82.8661ZM97.2889 79.0501L96.0049 82.8421L94.9129 79.0501H93.2329L95.1169 84.9541H96.7369L98.0929 80.9221L99.4729 84.9541H101.069L102.917 79.0501H101.333L100.241 82.8541L98.9689 79.0501H97.2889Z" fill="#EDEDED"/>
<path d="M61.1618 104.931V96.4232H59.9618V104.931H61.1618ZM68.6291 100.023C69.6131 100.023 70.0331 100.683 70.1771 101.247L71.1971 100.815C70.9571 99.9392 70.1651 98.9792 68.6291 98.9792C66.9851 98.9792 65.7251 100.239 65.7251 102.039C65.7251 103.791 66.9611 105.111 68.6411 105.111C70.1411 105.111 70.9691 104.139 71.2451 103.311L70.2491 102.879C70.1171 103.335 69.7211 104.067 68.6411 104.067C67.7051 104.067 66.8771 103.359 66.8771 102.039C66.8771 100.695 67.7171 100.023 68.6291 100.023ZM72.1498 103.383C72.1498 104.295 72.9058 105.111 74.0818 105.111C75.1138 105.111 75.6898 104.559 75.9418 104.151C75.9418 104.571 75.9778 104.787 76.0018 104.931H77.1058C77.0818 104.787 77.0338 104.487 77.0338 103.983V101.091C77.0338 99.9632 76.3618 98.9792 74.6338 98.9792C73.3858 98.9792 72.3898 99.7472 72.2698 100.851L73.3498 101.103C73.4218 100.431 73.8658 99.9392 74.6578 99.9392C75.5338 99.9392 75.9058 100.407 75.9058 100.971C75.9058 101.175 75.8098 101.355 75.4618 101.403L73.9018 101.631C72.9058 101.775 72.1498 102.351 72.1498 103.383ZM74.2378 104.163C73.6618 104.163 73.3018 103.755 73.3018 103.323C73.3018 102.807 73.6618 102.531 74.1418 102.459L75.9058 102.195V102.459C75.9058 103.719 75.1618 104.163 74.2378 104.163ZM79.9191 101.595C79.9191 100.719 80.3751 100.011 81.2631 100.011C82.2711 100.011 82.6071 100.659 82.6071 101.463V104.931H83.7351V101.271C83.7351 99.9872 83.0511 98.9912 81.6711 98.9912C80.9991 98.9912 80.3151 99.2672 79.8951 99.9872V99.1592H78.7911V104.931H79.9191V101.595ZM90.9533 100.023C91.9373 100.023 92.3573 100.683 92.5013 101.247L93.5213 100.815C93.2813 99.9392 92.4893 98.9792 90.9533 98.9792C89.3093 98.9792 88.0493 100.239 88.0493 102.039C88.0493 103.791 89.2853 105.111 90.9653 105.111C92.4653 105.111 93.2933 104.139 93.5693 103.311L92.5733 102.879C92.4413 103.335 92.0453 104.067 90.9653 104.067C90.0293 104.067 89.2013 103.359 89.2013 102.039C89.2013 100.695 90.0413 100.023 90.9533 100.023ZM97.306 104.103C96.346 104.103 95.506 103.383 95.506 102.039C95.506 100.707 96.346 99.9872 97.306 99.9872C98.266 99.9872 99.106 100.707 99.106 102.039C99.106 103.383 98.266 104.103 97.306 104.103ZM97.306 98.9792C95.578 98.9792 94.354 100.287 94.354 102.039C94.354 103.803 95.578 105.111 97.306 105.111C99.034 105.111 100.258 103.803 100.258 102.039C100.258 100.287 99.034 98.9792 97.306 98.9792ZM102.829 101.595C102.829 100.719 103.285 100.011 104.173 100.011C105.181 100.011 105.517 100.659 105.517 101.463V104.931H106.645V101.271C106.645 99.9872 105.961 98.9912 104.581 98.9912C103.909 98.9912 103.225 99.2672 102.805 99.9872V99.1592H101.701V104.931H102.829V101.595ZM110.683 96.2072C109.639 96.2072 108.787 96.9032 108.787 98.1872V99.1592H107.719V100.179H108.787V104.931H109.951V100.179H112.651V104.931H113.767V99.1592H109.951V98.2352C109.951 97.4432 110.467 97.2632 110.863 97.2632C111.151 97.2632 111.295 97.3112 111.355 97.3352V96.3272C111.307 96.2912 111.067 96.2072 110.683 96.2072ZM112.399 96.9512C112.399 97.3952 112.759 97.7552 113.203 97.7552C113.659 97.7552 114.019 97.3952 114.019 96.9512C114.019 96.4952 113.659 96.1352 113.203 96.1352C112.759 96.1352 112.399 96.4952 112.399 96.9512ZM118.886 99.0992C118.826 99.0872 118.67 99.0632 118.514 99.0632C117.926 99.0632 117.206 99.2792 116.786 100.167V99.1592H115.682V104.931H116.81V102.039C116.81 100.767 117.446 100.263 118.394 100.263C118.55 100.263 118.718 100.275 118.886 100.299V99.0992ZM121.204 104.931V101.451C121.204 100.587 121.744 99.9872 122.548 99.9872C123.412 99.9872 123.772 100.563 123.772 101.307V104.931H124.9V101.439C124.9 100.611 125.44 99.9872 126.232 99.9872C127.084 99.9872 127.456 100.551 127.456 101.307V104.931H128.572V101.187C128.572 99.6752 127.588 98.9912 126.58 98.9912C125.848 98.9912 125.104 99.2552 124.648 100.083C124.336 99.3392 123.64 98.9912 122.92 98.9912C122.248 98.9912 121.528 99.2912 121.168 99.9272V99.1592H120.088V104.931H121.204ZM139.389 104.931H140.661L137.277 96.4232H135.921L132.537 104.931H133.797L134.697 102.555H138.465L139.389 104.931ZM136.569 97.6472L138.045 101.463H135.117L136.569 97.6472ZM142.814 101.595C142.814 100.719 143.27 100.011 144.158 100.011C145.166 100.011 145.502 100.659 145.502 101.463V104.931H146.63V101.271C146.63 99.9872 145.946 98.9912 144.566 98.9912C143.894 98.9912 143.21 99.2672 142.79 99.9872V99.1592H141.686V104.931H142.814V101.595ZM149.936 97.3352H148.904V98.2712C148.904 98.7752 148.64 99.1592 148.016 99.1592H147.704V100.179H148.808V103.347C148.808 104.391 149.432 104.991 150.416 104.991C150.8 104.991 151.088 104.919 151.184 104.883V103.923C151.088 103.947 150.884 103.971 150.74 103.971C150.152 103.971 149.936 103.707 149.936 103.179V100.179H151.184V99.1592H149.936V97.3352ZM156.805 104.931V99.1592H155.689V104.931H156.805ZM155.437 96.9752C155.437 97.4192 155.797 97.7792 156.241 97.7792C156.697 97.7792 157.057 97.4192 157.057 96.9752C157.057 96.5192 156.697 96.1592 156.241 96.1592C155.797 96.1592 155.437 96.5192 155.437 96.9752ZM158.185 103.431C158.281 104.091 158.953 105.111 160.537 105.111C161.965 105.111 162.649 104.139 162.649 103.323C162.649 102.471 162.097 101.835 161.053 101.607L160.117 101.403C159.673 101.307 159.457 101.055 159.457 100.707C159.457 100.311 159.841 99.9392 160.417 99.9392C161.329 99.9392 161.569 100.599 161.617 100.899L162.613 100.527C162.493 100.011 162.001 98.9792 160.417 98.9792C159.289 98.9792 158.365 99.8192 158.365 100.803C158.365 101.619 158.905 102.231 159.805 102.423L160.789 102.639C161.269 102.747 161.533 103.023 161.533 103.383C161.533 103.791 161.185 104.151 160.549 104.151C159.733 104.151 159.277 103.671 159.205 103.071L158.185 103.431ZM166.79 103.383C166.79 104.295 167.546 105.111 168.722 105.111C169.754 105.111 170.33 104.559 170.582 104.151C170.582 104.571 170.618 104.787 170.642 104.931H171.746C171.722 104.787 171.674 104.487 171.674 103.983V101.091C171.674 99.9632 171.002 98.9792 169.274 98.9792C168.026 98.9792 167.03 99.7472 166.91 100.851L167.99 101.103C168.062 100.431 168.506 99.9392 169.298 99.9392C170.174 99.9392 170.546 100.407 170.546 100.971C170.546 101.175 170.45 101.355 170.102 101.403L168.542 101.631C167.546 101.775 166.79 102.351 166.79 103.383ZM168.878 104.163C168.302 104.163 167.942 103.755 167.942 103.323C167.942 102.807 168.302 102.531 168.782 102.459L170.546 102.195V102.459C170.546 103.719 169.802 104.163 168.878 104.163ZM179.684 99.1592L178.184 103.503L176.888 99.1592H175.652L177.548 104.931H178.736L180.236 100.539L181.772 104.931H182.936L184.808 99.1592H183.62L182.348 103.503L180.848 99.1592H179.684ZM185.529 103.383C185.529 104.295 186.285 105.111 187.461 105.111C188.493 105.111 189.069 104.559 189.321 104.151C189.321 104.571 189.357 104.787 189.381 104.931H190.485C190.461 104.787 190.413 104.487 190.413 103.983V101.091C190.413 99.9632 189.741 98.9792 188.013 98.9792C186.765 98.9792 185.769 99.7472 185.649 100.851L186.729 101.103C186.801 100.431 187.245 99.9392 188.037 99.9392C188.913 99.9392 189.285 100.407 189.285 100.971C189.285 101.175 189.189 101.355 188.841 101.403L187.281 101.631C186.285 101.775 185.529 102.351 185.529 103.383ZM187.617 104.163C187.041 104.163 186.681 103.755 186.681 103.323C186.681 102.807 187.041 102.531 187.521 102.459L189.285 102.195V102.459C189.285 103.719 188.541 104.163 187.617 104.163ZM193.298 104.931V96.2432H192.17V104.931H193.298ZM200.389 99.1592H198.829L196.333 101.715V96.2432H195.217V104.931H196.333V103.191L197.137 102.387L199.021 104.931H200.437L197.929 101.595L200.389 99.1592ZM202.638 104.931V99.1592H201.522V104.931H202.638ZM201.27 96.9752C201.27 97.4192 201.63 97.7792 202.074 97.7792C202.53 97.7792 202.89 97.4192 202.89 96.9752C202.89 96.5192 202.53 96.1592 202.074 96.1592C201.63 96.1592 201.27 96.5192 201.27 96.9752ZM205.685 101.595C205.685 100.719 206.141 100.011 207.029 100.011C208.037 100.011 208.373 100.659 208.373 101.463V104.931H209.501V101.271C209.501 99.9872 208.817 98.9912 207.437 98.9912C206.765 98.9912 206.081 99.2672 205.661 99.9872V99.1592H204.557V104.931H205.685V101.595ZM210.875 105.243C211.019 106.479 212.099 107.391 213.539 107.391C215.711 107.391 216.431 105.963 216.431 104.499V99.1592H215.315V99.9632C215.027 99.3872 214.427 99.0512 213.539 99.0512C211.955 99.0512 210.887 100.299 210.887 101.859C210.887 103.491 212.003 104.655 213.539 104.655C214.403 104.655 215.027 104.235 215.303 103.707V104.535C215.303 105.783 214.751 106.407 213.539 106.407C212.663 106.407 212.051 105.795 211.967 104.991L210.875 105.243ZM213.707 103.707C212.687 103.707 212.039 102.987 212.039 101.859C212.039 100.743 212.711 100.011 213.707 100.011C214.679 100.011 215.351 100.743 215.351 101.859C215.351 102.975 214.679 103.707 213.707 103.707ZM222.348 104.931V101.451C222.348 100.587 222.888 99.9872 223.692 99.9872C224.556 99.9872 224.916 100.563 224.916 101.307V104.931H226.044V101.439C226.044 100.611 226.584 99.9872 227.376 99.9872C228.228 99.9872 228.6 100.551 228.6 101.307V104.931H229.716V101.187C229.716 99.6752 228.732 98.9912 227.724 98.9912C226.992 98.9912 226.248 99.2552 225.792 100.083C225.48 99.3392 224.784 98.9912 224.064 98.9912C223.392 98.9912 222.672 99.2912 222.312 99.9272V99.1592H221.232V104.931H222.348ZM232.254 101.451C232.302 100.707 232.878 99.9752 233.826 99.9752C234.846 99.9752 235.386 100.623 235.41 101.451H232.254ZM235.578 102.951C235.362 103.599 234.894 104.115 233.958 104.115C232.986 104.115 232.242 103.395 232.218 102.363H236.562C236.574 102.291 236.586 102.147 236.586 102.003C236.586 100.203 235.59 98.9792 233.814 98.9792C232.362 98.9792 231.054 100.215 231.054 102.027C231.054 103.983 232.41 105.111 233.958 105.111C235.302 105.111 236.226 104.307 236.55 103.287L235.578 102.951ZM239.141 104.931V101.451C239.141 100.587 239.681 99.9872 240.485 99.9872C241.349 99.9872 241.709 100.563 241.709 101.307V104.931H242.837V101.439C242.837 100.611 243.377 99.9872 244.169 99.9872C245.021 99.9872 245.393 100.551 245.393 101.307V104.931H246.509V101.187C246.509 99.6752 245.525 98.9912 244.517 98.9912C243.785 98.9912 243.041 99.2552 242.585 100.083C242.273 99.3392 241.577 98.9912 240.857 98.9912C240.185 98.9912 239.465 99.2912 239.105 99.9272V99.1592H238.025V104.931H239.141ZM249.046 101.451C249.094 100.707 249.67 99.9752 250.618 99.9752C251.638 99.9752 252.178 100.623 252.202 101.451H249.046ZM252.37 102.951C252.154 103.599 251.686 104.115 250.75 104.115C249.778 104.115 249.034 103.395 249.01 102.363H253.354C253.366 102.291 253.378 102.147 253.378 102.003C253.378 100.203 252.382 98.9792 250.606 98.9792C249.154 98.9792 247.846 100.215 247.846 102.027C247.846 103.983 249.202 105.111 250.75 105.111C252.094 105.111 253.018 104.307 253.342 103.287L252.37 102.951ZM59.4218 120.243C59.5658 121.479 60.6458 122.391 62.0858 122.391C64.2578 122.391 64.9778 120.963 64.9778 119.499V114.159H63.8618V114.963C63.5738 114.387 62.9738 114.051 62.0858 114.051C60.5018 114.051 59.4338 115.299 59.4338 116.859C59.4338 118.491 60.5498 119.655 62.0858 119.655C62.9498 119.655 63.5738 119.235 63.8498 118.707V119.535C63.8498 120.783 63.2978 121.407 62.0858 121.407C61.2098 121.407 60.5978 120.795 60.5138 119.991L59.4218 120.243ZM62.2538 118.707C61.2338 118.707 60.5858 117.987 60.5858 116.859C60.5858 115.743 61.2578 115.011 62.2538 115.011C63.2258 115.011 63.8978 115.743 63.8978 116.859C63.8978 117.975 63.2258 118.707 62.2538 118.707ZM67.5113 116.451C67.5593 115.707 68.1353 114.975 69.0833 114.975C70.1033 114.975 70.6433 115.623 70.6673 116.451H67.5113ZM70.8353 117.951C70.6193 118.599 70.1513 119.115 69.2153 119.115C68.2433 119.115 67.4993 118.395 67.4753 117.363H71.8193C71.8313 117.291 71.8433 117.147 71.8433 117.003C71.8433 115.203 70.8473 113.979 69.0713 113.979C67.6193 113.979 66.3113 115.215 66.3113 117.027C66.3113 118.983 67.6673 120.111 69.2153 120.111C70.5593 120.111 71.4833 119.307 71.8073 118.287L70.8353 117.951ZM74.4112 116.595C74.4112 115.719 74.8672 115.011 75.7552 115.011C76.7632 115.011 77.0992 115.659 77.0992 116.463V119.931H78.2272V116.271C78.2272 114.987 77.5432 113.991 76.1632 113.991C75.4912 113.991 74.8072 114.267 74.3872 114.987V114.159H73.2832V119.931H74.4112V116.595ZM80.7535 116.451C80.8015 115.707 81.3775 114.975 82.3255 114.975C83.3455 114.975 83.8855 115.623 83.9095 116.451H80.7535ZM84.0775 117.951C83.8615 118.599 83.3935 119.115 82.4575 119.115C81.4855 119.115 80.7415 118.395 80.7175 117.363H85.0615C85.0735 117.291 85.0855 117.147 85.0855 117.003C85.0855 115.203 84.0895 113.979 82.3135 113.979C80.8615 113.979 79.5535 115.215 79.5535 117.027C79.5535 118.983 80.9095 120.111 82.4575 120.111C83.8015 120.111 84.7255 119.307 85.0495 118.287L84.0775 117.951ZM89.7294 114.099C89.6694 114.087 89.5134 114.063 89.3574 114.063C88.7694 114.063 88.0494 114.279 87.6294 115.167V114.159H86.5254V119.931H87.6534V117.039C87.6534 115.767 88.2894 115.263 89.2374 115.263C89.3934 115.263 89.5614 115.275 89.7294 115.299V114.099ZM90.5717 118.383C90.5717 119.295 91.3277 120.111 92.5037 120.111C93.5357 120.111 94.1117 119.559 94.3637 119.151C94.3637 119.571 94.3997 119.787 94.4237 119.931H95.5277C95.5037 119.787 95.4557 119.487 95.4557 118.983V116.091C95.4557 114.963 94.7837 113.979 93.0557 113.979C91.8077 113.979 90.8117 114.747 90.6917 115.851L91.7717 116.103C91.8437 115.431 92.2877 114.939 93.0797 114.939C93.9557 114.939 94.3277 115.407 94.3277 115.971C94.3277 116.175 94.2317 116.355 93.8837 116.403L92.3237 116.631C91.3277 116.775 90.5717 117.351 90.5717 118.383ZM92.6597 119.163C92.0837 119.163 91.7237 118.755 91.7237 118.323C91.7237 117.807 92.0837 117.531 92.5637 117.459L94.3277 117.195V117.459C94.3277 118.719 93.5837 119.163 92.6597 119.163ZM98.7249 112.335H97.6929V113.271C97.6929 113.775 97.4289 114.159 96.8049 114.159H96.4929V115.179H97.5969V118.347C97.5969 119.391 98.2209 119.991 99.2049 119.991C99.5889 119.991 99.8769 119.919 99.9729 119.883V118.923C99.8769 118.947 99.6729 118.971 99.5289 118.971C98.9409 118.971 98.7249 118.707 98.7249 118.179V115.179H99.9729V114.159H98.7249V112.335ZM103.892 119.103C102.932 119.103 102.092 118.383 102.092 117.039C102.092 115.707 102.932 114.987 103.892 114.987C104.852 114.987 105.692 115.707 105.692 117.039C105.692 118.383 104.852 119.103 103.892 119.103ZM103.892 113.979C102.164 113.979 100.94 115.287 100.94 117.039C100.94 118.803 102.164 120.111 103.892 120.111C105.62 120.111 106.844 118.803 106.844 117.039C106.844 115.287 105.62 113.979 103.892 113.979ZM111.491 114.099C111.431 114.087 111.275 114.063 111.119 114.063C110.531 114.063 109.811 114.279 109.391 115.167V114.159H108.287V119.931H109.415V117.039C109.415 115.767 110.051 115.263 110.999 115.263C111.155 115.263 111.323 115.275 111.491 115.299V114.099ZM111.495 119.163C111.495 119.631 111.855 119.991 112.323 119.991C112.791 119.991 113.163 119.631 113.163 119.163C113.163 118.695 112.791 118.323 112.323 118.323C111.855 118.323 111.495 118.695 111.495 119.163ZM124.783 119.931V111.423H123.607V115.059H119.263V111.423H118.087V119.931H119.263V116.151H123.607V119.931H124.783ZM129.298 119.103C128.338 119.103 127.498 118.383 127.498 117.039C127.498 115.707 128.338 114.987 129.298 114.987C130.258 114.987 131.098 115.707 131.098 117.039C131.098 118.383 130.258 119.103 129.298 119.103ZM129.298 113.979C127.57 113.979 126.346 115.287 126.346 117.039C126.346 118.803 127.57 120.111 129.298 120.111C131.026 120.111 132.25 118.803 132.25 117.039C132.25 115.287 131.026 113.979 129.298 113.979ZM136.828 114.159L135.328 118.503L134.032 114.159H132.796L134.692 119.931H135.88L137.38 115.539L138.916 119.931H140.08L141.952 114.159H140.764L139.492 118.503L137.992 114.159H136.828ZM146.764 117.027C146.764 115.839 147.436 114.999 148.468 114.999C149.5 114.999 150.124 115.815 150.124 117.003C150.124 118.191 149.488 119.091 148.456 119.091C147.376 119.091 146.764 118.215 146.764 117.027ZM150.136 119.151C150.136 119.499 150.172 119.799 150.196 119.931H151.288C151.276 119.835 151.228 119.415 151.228 118.863V111.243H150.112V114.975C149.92 114.507 149.368 114.003 148.348 114.003C146.716 114.003 145.612 115.395 145.612 117.027C145.612 118.743 146.656 120.087 148.348 120.087C149.248 120.087 149.86 119.607 150.136 119.055V119.151ZM155.619 119.103C154.659 119.103 153.819 118.383 153.819 117.039C153.819 115.707 154.659 114.987 155.619 114.987C156.579 114.987 157.419 115.707 157.419 117.039C157.419 118.383 156.579 119.103 155.619 119.103ZM155.619 113.979C153.891 113.979 152.667 115.287 152.667 117.039C152.667 118.803 153.891 120.111 155.619 120.111C157.347 120.111 158.571 118.803 158.571 117.039C158.571 115.287 157.347 113.979 155.619 113.979ZM160.746 116.451C160.794 115.707 161.37 114.975 162.318 114.975C163.338 114.975 163.878 115.623 163.902 116.451H160.746ZM164.07 117.951C163.854 118.599 163.386 119.115 162.45 119.115C161.478 119.115 160.734 118.395 160.71 117.363H165.054C165.066 117.291 165.078 117.147 165.078 117.003C165.078 115.203 164.082 113.979 162.306 113.979C160.854 113.979 159.546 115.215 159.546 117.027C159.546 118.983 160.902 120.111 162.45 120.111C163.794 120.111 164.718 119.307 165.042 118.287L164.07 117.951ZM165.978 118.431C166.074 119.091 166.746 120.111 168.33 120.111C169.758 120.111 170.442 119.139 170.442 118.323C170.442 117.471 169.89 116.835 168.846 116.607L167.91 116.403C167.466 116.307 167.25 116.055 167.25 115.707C167.25 115.311 167.634 114.939 168.21 114.939C169.122 114.939 169.362 115.599 169.41 115.899L170.406 115.527C170.286 115.011 169.794 113.979 168.21 113.979C167.082 113.979 166.158 114.819 166.158 115.803C166.158 116.619 166.698 117.231 167.598 117.423L168.582 117.639C169.062 117.747 169.326 118.023 169.326 118.383C169.326 118.791 168.978 119.151 168.342 119.151C167.526 119.151 167.07 118.671 166.998 118.071L165.978 118.431ZM176.071 116.535C176.095 115.683 176.551 115.011 177.415 115.011C178.423 115.011 178.759 115.659 178.759 116.463V119.931H179.887V116.271C179.887 114.987 179.203 113.991 177.823 113.991C177.163 113.991 176.491 114.219 176.071 114.831V111.243H174.943V119.931H176.071V116.535ZM182.414 116.451C182.462 115.707 183.038 114.975 183.986 114.975C185.006 114.975 185.546 115.623 185.57 116.451H182.414ZM185.738 117.951C185.522 118.599 185.054 119.115 184.118 119.115C183.146 119.115 182.402 118.395 182.378 117.363H186.722C186.734 117.291 186.746 117.147 186.746 117.003C186.746 115.203 185.75 113.979 183.974 113.979C182.522 113.979 181.214 115.215 181.214 117.027C181.214 118.983 182.57 120.111 184.118 120.111C185.462 120.111 186.386 119.307 186.71 118.287L185.738 117.951ZM193.61 115.023C194.594 115.023 195.014 115.683 195.158 116.247L196.178 115.815C195.938 114.939 195.146 113.979 193.61 113.979C191.966 113.979 190.706 115.239 190.706 117.039C190.706 118.791 191.942 120.111 193.622 120.111C195.122 120.111 195.95 119.139 196.226 118.311L195.23 117.879C195.098 118.335 194.702 119.067 193.622 119.067C192.686 119.067 191.858 118.359 191.858 117.039C191.858 115.695 192.698 115.023 193.61 115.023ZM199.962 119.103C199.002 119.103 198.162 118.383 198.162 117.039C198.162 115.707 199.002 114.987 199.962 114.987C200.922 114.987 201.762 115.707 201.762 117.039C201.762 118.383 200.922 119.103 199.962 119.103ZM199.962 113.979C198.234 113.979 197.01 115.287 197.01 117.039C197.01 118.803 198.234 120.111 199.962 120.111C201.69 120.111 202.914 118.803 202.914 117.039C202.914 115.287 201.69 113.979 199.962 113.979ZM205.473 119.931V116.451C205.473 115.587 206.013 114.987 206.817 114.987C207.681 114.987 208.041 115.563 208.041 116.307V119.931H209.169V116.439C209.169 115.611 209.709 114.987 210.501 114.987C211.353 114.987 211.725 115.551 211.725 116.307V119.931H212.841V116.187C212.841 114.675 211.857 113.991 210.849 113.991C210.117 113.991 209.373 114.255 208.917 115.083C208.605 114.339 207.909 113.991 207.189 113.991C206.517 113.991 205.797 114.291 205.437 114.927V114.159H204.357V119.931H205.473ZM215.379 116.451C215.427 115.707 216.003 114.975 216.951 114.975C217.971 114.975 218.511 115.623 218.535 116.451H215.379ZM218.703 117.951C218.487 118.599 218.019 119.115 217.083 119.115C216.111 119.115 215.367 118.395 215.343 117.363H219.687C219.699 117.291 219.711 117.147 219.711 117.003C219.711 115.203 218.715 113.979 216.939 113.979C215.487 113.979 214.179 115.215 214.179 117.027C214.179 118.983 215.535 120.111 217.083 120.111C218.427 120.111 219.351 119.307 219.675 118.287L218.703 117.951ZM227.954 119.235C227.954 119.475 227.978 119.799 228.002 119.931H229.082C229.058 119.727 229.022 119.319 229.022 118.863V114.159H227.894V117.639C227.894 118.515 227.438 119.115 226.526 119.115C225.578 119.115 225.218 118.419 225.218 117.627V114.159H224.09V117.795C224.09 119.103 224.906 120.111 226.25 120.111C226.922 120.111 227.642 119.835 227.954 119.235ZM232.063 122.211V119.151C232.375 119.667 233.047 120.087 233.935 120.087C235.627 120.087 236.623 118.755 236.623 117.039C236.623 115.359 235.699 114.027 233.971 114.027C233.035 114.027 232.351 114.483 232.039 115.059V114.159H230.947V122.211H232.063ZM235.471 117.039C235.471 118.227 234.811 119.079 233.767 119.079C232.735 119.079 232.051 118.227 232.051 117.039C232.051 115.887 232.735 115.023 233.767 115.023C234.823 115.023 235.471 115.887 235.471 117.039ZM244.313 114.159L242.813 118.503L241.517 114.159H240.281L242.177 119.931H243.365L244.865 115.539L246.401 119.931H247.565L249.437 114.159H248.249L246.977 118.503L245.477 114.159H244.313ZM251.692 119.931V114.159H250.576V119.931H251.692ZM250.324 111.975C250.324 112.419 250.684 112.779 251.128 112.779C251.584 112.779 251.944 112.419 251.944 111.975C251.944 111.519 251.584 111.159 251.128 111.159C250.684 111.159 250.324 111.519 250.324 111.975ZM255.123 112.335H254.091V113.271C254.091 113.775 253.827 114.159 253.203 114.159H252.891V115.179H253.995V118.347C253.995 119.391 254.619 119.991 255.603 119.991C255.987 119.991 256.275 119.919 256.371 119.883V118.923C256.275 118.947 256.071 118.971 255.927 118.971C255.339 118.971 255.123 118.707 255.123 118.179V115.179H256.371V114.159H255.123V112.335ZM259.005 116.535C259.029 115.683 259.485 115.011 260.349 115.011C261.357 115.011 261.693 115.659 261.693 116.463V119.931H262.821V116.271C262.821 114.987 262.137 113.991 260.757 113.991C260.097 113.991 259.425 114.219 259.005 114.831V111.243H257.877V119.931H259.005V116.535ZM269.127 112.335H268.095V113.271C268.095 113.775 267.831 114.159 267.207 114.159H266.895V115.179H267.999V118.347C267.999 119.391 268.623 119.991 269.607 119.991C269.991 119.991 270.279 119.919 270.375 119.883V118.923C270.279 118.947 270.075 118.971 269.931 118.971C269.343 118.971 269.127 118.707 269.127 118.179V115.179H270.375V114.159H269.127V112.335ZM273.009 116.535C273.033 115.683 273.489 115.011 274.353 115.011C275.361 115.011 275.697 115.659 275.697 116.463V119.931H276.825V116.271C276.825 114.987 276.141 113.991 274.761 113.991C274.101 113.991 273.429 114.219 273.009 114.831V111.243H271.881V119.931H273.009V116.535ZM279.735 119.931V114.159H278.619V119.931H279.735ZM278.367 111.975C278.367 112.419 278.727 112.779 279.171 112.779C279.627 112.779 279.987 112.419 279.987 111.975C279.987 111.519 279.627 111.159 279.171 111.159C278.727 111.159 278.367 111.519 278.367 111.975ZM281.114 118.431C281.21 119.091 281.882 120.111 283.466 120.111C284.894 120.111 285.578 119.139 285.578 118.323C285.578 117.471 285.026 116.835 283.982 116.607L283.046 116.403C282.602 116.307 282.386 116.055 282.386 115.707C282.386 115.311 282.77 114.939 283.346 114.939C284.258 114.939 284.498 115.599 284.546 115.899L285.542 115.527C285.422 115.011 284.93 113.979 283.346 113.979C282.218 113.979 281.294 114.819 281.294 115.803C281.294 116.619 281.834 117.231 282.734 117.423L283.718 117.639C284.198 117.747 284.462 118.023 284.462 118.383C284.462 118.791 284.114 119.151 283.478 119.151C282.662 119.151 282.206 118.671 282.134 118.071L281.114 118.431ZM59.3018 133.431C59.3978 134.091 60.0698 135.111 61.6538 135.111C63.0818 135.111 63.7658 134.139 63.7658 133.323C63.7658 132.471 63.2138 131.835 62.1698 131.607L61.2338 131.403C60.7898 131.307 60.5738 131.055 60.5738 130.707C60.5738 130.311 60.9578 129.939 61.5338 129.939C62.4458 129.939 62.6858 130.599 62.7338 130.899L63.7298 130.527C63.6098 130.011 63.1178 128.979 61.5338 128.979C60.4058 128.979 59.4818 129.819 59.4818 130.803C59.4818 131.619 60.0218 132.231 60.9218 132.423L61.9058 132.639C62.3858 132.747 62.6498 133.023 62.6498 133.383C62.6498 133.791 62.3018 134.151 61.6658 134.151C60.8498 134.151 60.3938 133.671 60.3218 133.071L59.3018 133.431ZM67.681 134.103C66.721 134.103 65.881 133.383 65.881 132.039C65.881 130.707 66.721 129.987 67.681 129.987C68.641 129.987 69.481 130.707 69.481 132.039C69.481 133.383 68.641 134.103 67.681 134.103ZM67.681 128.979C65.953 128.979 64.729 130.287 64.729 132.039C64.729 133.803 65.953 135.111 67.681 135.111C69.409 135.111 70.633 133.803 70.633 132.039C70.633 130.287 69.409 128.979 67.681 128.979ZM75.2802 129.099C75.2202 129.087 75.0642 129.063 74.9082 129.063C74.3202 129.063 73.6002 129.279 73.1802 130.167V129.159H72.0762V134.931H73.2042V132.039C73.2042 130.767 73.8402 130.263 74.7882 130.263C74.9442 130.263 75.1122 130.275 75.2802 130.299V129.099ZM78.2991 127.335H77.2671V128.271C77.2671 128.775 77.0031 129.159 76.3791 129.159H76.0671V130.179H77.1711V133.347C77.1711 134.391 77.7951 134.991 78.7791 134.991C79.1631 134.991 79.4511 134.919 79.5471 134.883V133.923C79.4511 133.947 79.2471 133.971 79.1031 133.971C78.5151 133.971 78.2991 133.707 78.2991 133.179V130.179H79.5471V129.159H78.2991V127.335ZM86.5248 134.103C85.5648 134.103 84.7248 133.383 84.7248 132.039C84.7248 130.707 85.5648 129.987 86.5248 129.987C87.4848 129.987 88.3248 130.707 88.3248 132.039C88.3248 133.383 87.4848 134.103 86.5248 134.103ZM86.5248 128.979C84.7968 128.979 83.5728 130.287 83.5728 132.039C83.5728 133.803 84.7968 135.111 86.5248 135.111C88.2528 135.111 89.4768 133.803 89.4768 132.039C89.4768 130.287 88.2528 128.979 86.5248 128.979ZM93.824 130.179V129.159H92.432V128.247C92.432 127.455 92.948 127.263 93.344 127.263C93.632 127.263 93.776 127.311 93.836 127.335V126.327C93.788 126.291 93.548 126.207 93.164 126.207C92.12 126.207 91.268 126.903 91.268 128.187V129.159H90.2V130.179H91.268V134.931H92.432V130.179H93.824ZM100.457 130.023C101.441 130.023 101.861 130.683 102.005 131.247L103.025 130.815C102.785 129.939 101.993 128.979 100.457 128.979C98.8132 128.979 97.5532 130.239 97.5532 132.039C97.5532 133.791 98.7892 135.111 100.469 135.111C101.969 135.111 102.797 134.139 103.073 133.311L102.077 132.879C101.945 133.335 101.549 134.067 100.469 134.067C99.5332 134.067 98.7052 133.359 98.7052 132.039C98.7052 130.695 99.5452 130.023 100.457 130.023ZM106.81 134.103C105.85 134.103 105.01 133.383 105.01 132.039C105.01 130.707 105.85 129.987 106.81 129.987C107.77 129.987 108.61 130.707 108.61 132.039C108.61 133.383 107.77 134.103 106.81 134.103ZM106.81 128.979C105.082 128.979 103.858 130.287 103.858 132.039C103.858 133.803 105.082 135.111 106.81 135.111C108.538 135.111 109.762 133.803 109.762 132.039C109.762 130.287 108.538 128.979 106.81 128.979ZM112.333 131.595C112.333 130.719 112.789 130.011 113.677 130.011C114.685 130.011 115.021 130.659 115.021 131.463V134.931H116.149V131.271C116.149 129.987 115.465 128.991 114.085 128.991C113.413 128.991 112.729 129.267 112.309 129.987V129.159H111.205V134.931H112.333V131.595ZM119.455 127.335H118.423V128.271C118.423 128.775 118.159 129.159 117.535 129.159H117.223V130.179H118.327V133.347C118.327 134.391 118.951 134.991 119.935 134.991C120.319 134.991 120.607 134.919 120.703 134.883V133.923C120.607 133.947 120.403 133.971 120.259 133.971C119.671 133.971 119.455 133.707 119.455 133.179V130.179H120.703V129.159H119.455V127.335ZM122.882 131.451C122.93 130.707 123.506 129.975 124.454 129.975C125.474 129.975 126.014 130.623 126.038 131.451H122.882ZM126.206 132.951C125.99 133.599 125.522 134.115 124.586 134.115C123.614 134.115 122.87 133.395 122.846 132.363H127.19C127.202 132.291 127.214 132.147 127.214 132.003C127.214 130.203 126.218 128.979 124.442 128.979C122.99 128.979 121.682 130.215 121.682 132.027C121.682 133.983 123.038 135.111 124.586 135.111C125.93 135.111 126.854 134.307 127.178 133.287L126.206 132.951ZM129.782 131.595C129.782 130.719 130.238 130.011 131.126 130.011C132.134 130.011 132.47 130.659 132.47 131.463V134.931H133.598V131.271C133.598 129.987 132.914 128.991 131.534 128.991C130.862 128.991 130.178 129.267 129.758 129.987V129.159H128.654V134.931H129.782V131.595ZM136.905 127.335H135.873V128.271C135.873 128.775 135.609 129.159 134.985 129.159H134.673V130.179H135.777V133.347C135.777 134.391 136.401 134.991 137.385 134.991C137.769 134.991 138.057 134.919 138.153 134.883V133.923C138.057 133.947 137.853 133.971 137.709 133.971C137.121 133.971 136.905 133.707 136.905 133.179V130.179H138.153V129.159H136.905V127.335ZM142.165 132.495C142.153 132.375 142.153 132.327 142.153 132.267C142.153 131.799 142.309 131.367 142.681 131.115L143.233 130.743C143.929 130.275 144.457 129.615 144.457 128.655C144.457 127.431 143.509 126.243 141.829 126.243C139.981 126.243 139.177 127.599 139.177 128.703C139.177 128.919 139.201 129.111 139.249 129.279L140.413 129.423C140.365 129.291 140.329 129.039 140.329 128.835C140.329 128.079 140.785 127.299 141.829 127.299C142.789 127.299 143.257 127.959 143.257 128.667C143.257 129.135 143.029 129.567 142.621 129.843L142.093 130.203C141.385 130.683 141.097 131.283 141.097 132.075C141.097 132.231 141.097 132.351 141.109 132.495H142.165ZM140.845 134.211C140.845 134.643 141.193 134.991 141.625 134.991C142.057 134.991 142.417 134.643 142.417 134.211C142.417 133.779 142.057 133.419 141.625 133.419C141.193 133.419 140.845 133.779 140.845 134.211Z" fill="#A0A0A0"/>
<path d="M278.084 50.5073C278.084 49.6313 278.54 48.9233 279.428 48.9233C280.436 48.9233 280.772 49.5713 280.772 50.3753V53.8433H281.9V50.1833C281.9 48.8993 281.216 47.9033 279.836 47.9033C279.164 47.9033 278.48 48.1793 278.06 48.8993V48.0713H276.956V53.8433H278.084V50.5073ZM286.166 53.0153C285.206 53.0153 284.366 52.2953 284.366 50.9513C284.366 49.6193 285.206 48.8993 286.166 48.8993C287.126 48.8993 287.966 49.6193 287.966 50.9513C287.966 52.2953 287.126 53.0153 286.166 53.0153ZM286.166 47.8913C284.438 47.8913 283.214 49.1993 283.214 50.9513C283.214 52.7153 284.438 54.0233 286.166 54.0233C287.894 54.0233 289.118 52.7153 289.118 50.9513C289.118 49.1993 287.894 47.8913 286.166 47.8913ZM293.696 48.0713L292.196 52.4153L290.9 48.0713H289.664L291.56 53.8433H292.748L294.248 49.4513L295.784 53.8433H296.948L298.82 48.0713H297.632L296.36 52.4153L294.86 48.0713H293.696Z" fill="#707070"/>
</svg>
