<svg width="361" height="210" viewBox="0 0 361 210" fill="none" xmlns="http://www.w3.org/2000/svg">
<rect x="59.9134" y="48.863" width="241.173" height="115.724" rx="7.5866" fill="#282828" stroke="#2E2E2E" stroke-width="0.826794"/>
<rect x="49.9134" y="46.9919" width="260.173" height="105.889" rx="7.5866" fill="#2E2E2E" stroke="#343434" stroke-width="0.826794"/>
<rect x="45" y="43.5" width="270" height="98" rx="7.5" fill="#343434" stroke="#3E3E3E"/>
<path d="M66.5 58C66.2348 58 65.9804 58.1054 65.7929 58.2929C65.6054 58.4804 65.5 58.7348 65.5 59C65.5 59.2652 65.6054 59.5196 65.7929 59.7071C65.9804 59.8946 66.2348 60 66.5 60H72.5C72.7652 60 73.0196 59.8946 73.2071 59.7071C73.3946 59.5196 73.5 59.2652 73.5 59C73.5 58.7348 73.3946 58.4804 73.2071 58.2929C73.0196 58.1054 72.7652 58 72.5 58H66.5ZM63.5 62C63.5 61.7348 63.6054 61.4804 63.7929 61.2929C63.9804 61.1054 64.2348 61 64.5 61H74.5C74.7652 61 75.0196 61.1054 75.2071 61.2929C75.3946 61.4804 75.5 61.7348 75.5 62C75.5 62.2652 75.3946 62.5196 75.2071 62.7071C75.0196 62.8946 74.7652 63 74.5 63H64.5C64.2348 63 63.9804 62.8946 63.7929 62.7071C63.6054 62.5196 63.5 62.2652 63.5 62ZM61.5 66C61.5 65.4696 61.7107 64.9609 62.0858 64.5858C62.4609 64.2107 62.9696 64 63.5 64H75.5C76.0304 64 76.5391 64.2107 76.9142 64.5858C77.2893 64.9609 77.5 65.4696 77.5 66V70C77.5 70.5304 77.2893 71.0391 76.9142 71.4142C76.5391 71.7893 76.0304 72 75.5 72H63.5C62.9696 72 62.4609 71.7893 62.0858 71.4142C61.7107 71.0391 61.5 70.5304 61.5 70V66Z" fill="#A0A0A0"/>
<path d="M95.652 67.192C97.476 67.192 98.928 66.076 98.928 63.988V58.492H97.272V63.868C97.272 64.984 96.66 65.572 95.652 65.572C94.668 65.572 94.044 64.984 94.044 63.868V58.492H92.388V63.988C92.388 66.076 93.84 67.192 95.652 67.192ZM102.21 69.28V66.424C102.498 66.82 103.098 67.144 103.914 67.144C105.582 67.144 106.698 65.824 106.698 64.036C106.698 62.284 105.702 60.964 103.974 60.964C103.086 60.964 102.426 61.36 102.162 61.816V61.096H100.614V69.28H102.21ZM105.126 64.048C105.126 65.104 104.478 65.716 103.662 65.716C102.846 65.716 102.186 65.092 102.186 64.048C102.186 63.004 102.846 62.392 103.662 62.392C104.478 62.392 105.126 63.004 105.126 64.048ZM109.557 67V58.312H107.961V67H109.557ZM113.918 65.728C113.138 65.728 112.418 65.152 112.418 64.048C112.418 62.932 113.138 62.368 113.918 62.368C114.698 62.368 115.418 62.932 115.418 64.048C115.418 65.164 114.698 65.728 113.918 65.728ZM113.918 60.916C112.154 60.916 110.822 62.224 110.822 64.048C110.822 65.86 112.154 67.18 113.918 67.18C115.682 67.18 117.014 65.86 117.014 64.048C117.014 62.224 115.682 60.916 113.918 60.916ZM117.914 65.392C117.914 66.316 118.682 67.168 119.942 67.168C120.818 67.168 121.382 66.76 121.682 66.292C121.682 66.52 121.706 66.844 121.742 67H123.206C123.17 66.796 123.134 66.376 123.134 66.064V63.16C123.134 61.972 122.438 60.916 120.566 60.916C118.982 60.916 118.13 61.936 118.034 62.86L119.45 63.16C119.498 62.644 119.882 62.2 120.578 62.2C121.25 62.2 121.574 62.548 121.574 62.968C121.574 63.172 121.466 63.34 121.13 63.388L119.678 63.604C118.694 63.748 117.914 64.336 117.914 65.392ZM120.278 65.98C119.762 65.98 119.51 65.644 119.51 65.296C119.51 64.84 119.834 64.612 120.242 64.552L121.574 64.348V64.612C121.574 65.656 120.95 65.98 120.278 65.98ZM130.347 58.312H128.775V61.684C128.607 61.372 128.127 60.952 127.107 60.952C125.439 60.952 124.275 62.308 124.275 64.036C124.275 65.824 125.475 67.144 127.155 67.144C127.947 67.144 128.547 66.784 128.811 66.316C128.811 66.592 128.847 66.88 128.871 67H130.395C130.371 66.76 130.347 66.328 130.347 65.932V58.312ZM125.883 64.036C125.883 62.98 126.531 62.38 127.347 62.38C128.163 62.38 128.799 62.968 128.799 64.024C128.799 65.092 128.163 65.716 127.347 65.716C126.507 65.716 125.883 65.092 125.883 64.036ZM133.675 67V61.096H132.079V67H133.675ZM131.887 59.164C131.887 59.692 132.331 60.136 132.871 60.136C133.423 60.136 133.855 59.692 133.855 59.164C133.855 58.612 133.423 58.168 132.871 58.168C132.331 58.168 131.887 58.612 131.887 59.164ZM136.979 63.604C136.979 62.92 137.387 62.38 138.083 62.38C138.851 62.38 139.175 62.896 139.175 63.556V67H140.771V63.28C140.771 61.984 140.099 60.94 138.635 60.94C137.999 60.94 137.291 61.216 136.931 61.828V61.096H135.383V67H136.979V63.604ZM141.971 67.324C142.139 68.452 143.219 69.46 144.839 69.46C147.059 69.46 147.935 67.984 147.935 66.364V61.096H146.399V61.792C146.195 61.396 145.655 60.988 144.719 60.988C143.099 60.988 141.971 62.308 141.971 63.868C141.971 65.524 143.147 66.736 144.719 66.736C145.571 66.736 146.123 66.364 146.363 65.98V66.412C146.363 67.552 145.799 68.056 144.791 68.056C144.035 68.056 143.519 67.588 143.411 66.94L141.971 67.324ZM144.995 65.368C144.167 65.368 143.579 64.792 143.579 63.868C143.579 62.956 144.203 62.38 144.995 62.38C145.763 62.38 146.387 62.956 146.387 63.868C146.387 64.78 145.811 65.368 144.995 65.368ZM155.552 67V59.212H154.124C153.968 60.028 153.176 60.664 152.036 60.676V61.792H153.908V67H155.552ZM158.662 62.224C158.626 62.092 158.602 61.936 158.602 61.792C158.602 61.06 159.01 60.496 159.838 60.496C160.618 60.496 161.014 61 161.014 61.564C161.014 62.104 160.75 62.512 160.09 62.908L158.806 63.676C157.414 64.516 156.982 65.632 156.97 67H162.73V65.572H158.998C159.118 65.272 159.37 65.056 159.67 64.864L161.17 63.952C162.13 63.364 162.682 62.548 162.682 61.54C162.682 60.184 161.614 59.032 159.874 59.032C158.062 59.032 157.03 60.268 157.03 61.636C157.03 61.828 157.066 62.068 157.09 62.176L158.662 62.224ZM169.57 65.728C168.79 65.728 168.07 65.152 168.07 64.048C168.07 62.932 168.79 62.368 169.57 62.368C170.35 62.368 171.07 62.932 171.07 64.048C171.07 65.164 170.35 65.728 169.57 65.728ZM169.57 60.916C167.806 60.916 166.474 62.224 166.474 64.048C166.474 65.86 167.806 67.18 169.57 67.18C171.334 67.18 172.666 65.86 172.666 64.048C172.666 62.224 171.334 60.916 169.57 60.916ZM177.767 67H179.291C179.267 66.796 179.231 66.388 179.231 65.932V61.096H177.635V64.528C177.635 65.212 177.227 65.692 176.519 65.692C175.775 65.692 175.439 65.164 175.439 64.504V61.096H173.843V64.828C173.843 66.112 174.659 67.156 176.087 67.156C176.711 67.156 177.395 66.916 177.719 66.364C177.719 66.604 177.743 66.88 177.767 67ZM182.902 59.332H181.462V60.16C181.462 60.688 181.174 61.096 180.55 61.096H180.25V62.512H181.318V65.26C181.318 66.4 182.038 67.084 183.19 67.084C183.658 67.084 183.946 67 184.09 66.94V65.62C184.006 65.644 183.79 65.668 183.598 65.668C183.142 65.668 182.902 65.5 182.902 64.984V62.512H184.09V61.096H182.902V59.332ZM191.027 65.728C190.247 65.728 189.527 65.152 189.527 64.048C189.527 62.932 190.247 62.368 191.027 62.368C191.807 62.368 192.527 62.932 192.527 64.048C192.527 65.164 191.807 65.728 191.027 65.728ZM191.027 60.916C189.263 60.916 187.931 62.224 187.931 64.048C187.931 65.86 189.263 67.18 191.027 67.18C192.791 67.18 194.123 65.86 194.123 64.048C194.123 62.224 192.791 60.916 191.027 60.916ZM198.119 59.632C198.383 59.632 198.539 59.668 198.623 59.692V58.348C198.491 58.288 198.167 58.228 197.831 58.228C196.523 58.228 195.683 59.092 195.683 60.424V61.096H194.699V62.464H195.683V67H197.291V62.464H198.623V61.096H197.291V60.448C197.291 59.788 197.759 59.632 198.119 59.632ZM203.849 62.224C203.813 62.092 203.789 61.936 203.789 61.792C203.789 61.06 204.197 60.496 205.025 60.496C205.805 60.496 206.201 61 206.201 61.564C206.201 62.104 205.937 62.512 205.277 62.908L203.993 63.676C202.601 64.516 202.169 65.632 202.157 67H207.917V65.572H204.185C204.305 65.272 204.557 65.056 204.857 64.864L206.357 63.952C207.317 63.364 207.869 62.548 207.869 61.54C207.869 60.184 206.801 59.032 205.061 59.032C203.249 59.032 202.217 60.268 202.217 61.636C202.217 61.828 202.253 62.068 202.277 62.176L203.849 62.224ZM208.637 64.816C208.733 66.04 209.909 67.192 211.601 67.192C213.473 67.192 214.589 65.932 214.589 64.48C214.589 62.812 213.485 61.876 211.925 61.876C211.409 61.876 210.857 62.044 210.521 62.356L210.905 60.64H214.169V59.212H209.777L208.853 63.208C209.021 63.256 210.209 63.664 210.365 63.724C210.617 63.436 211.037 63.196 211.565 63.196C212.285 63.196 212.945 63.616 212.945 64.504C212.945 65.284 212.345 65.776 211.601 65.776C210.773 65.776 210.221 65.188 210.185 64.468L208.637 64.816ZM223.022 62.464V67H224.606V61.096H220.658V60.448C220.658 59.788 221.138 59.632 221.486 59.632C221.75 59.632 221.906 59.668 221.99 59.692V58.348C221.858 58.288 221.534 58.228 221.198 58.228C219.89 58.228 219.05 59.092 219.05 60.424V61.096H218.066V62.464H219.05V67H220.658V62.464H223.022ZM222.83 59.152C222.83 59.692 223.274 60.124 223.814 60.124C224.354 60.124 224.798 59.692 224.798 59.152C224.798 58.6 224.354 58.156 223.814 58.156C223.274 58.156 222.83 58.6 222.83 59.152ZM227.917 67V58.312H226.321V67H227.917ZM230.789 63.376C230.825 62.836 231.281 62.212 232.109 62.212C233.021 62.212 233.405 62.788 233.429 63.376H230.789ZM233.585 64.912C233.393 65.44 232.985 65.812 232.241 65.812C231.449 65.812 230.789 65.248 230.753 64.468H234.977C234.977 64.444 235.001 64.204 235.001 63.976C235.001 62.08 233.909 60.916 232.085 60.916C230.573 60.916 229.181 62.14 229.181 64.024C229.181 66.016 230.609 67.18 232.229 67.18C233.681 67.18 234.617 66.328 234.917 65.308L233.585 64.912ZM235.754 65.356C235.826 66.028 236.438 67.18 238.214 67.18C239.762 67.18 240.506 66.196 240.506 65.236C240.506 64.372 239.918 63.664 238.754 63.424L237.914 63.244C237.59 63.184 237.374 63.004 237.374 62.716C237.374 62.38 237.71 62.128 238.13 62.128C238.802 62.128 239.054 62.572 239.102 62.92L240.434 62.62C240.362 61.984 239.798 60.916 238.118 60.916C236.846 60.916 235.91 61.792 235.91 62.848C235.91 63.676 236.426 64.36 237.566 64.612L238.346 64.792C238.802 64.888 238.982 65.104 238.982 65.368C238.982 65.68 238.73 65.956 238.202 65.956C237.506 65.956 237.158 65.524 237.122 65.056L235.754 65.356Z" fill="#ECEDEE"/>
<rect x="91.5" y="78" width="192" height="4" rx="2" fill="#3E3E3E"/>
<rect x="91.5" y="78" width="111" height="4" rx="2" fill="#3FCF8E"/>
<path d="M95.52 102.18C97.248 102.18 98.58 101.1 98.58 99.096V93.492H97.404V99.06C97.404 100.356 96.72 101.088 95.52 101.088C94.332 101.088 93.624 100.356 93.624 99.06V93.492H92.46V99.096C92.46 101.1 93.792 102.18 95.52 102.18ZM101.556 104.28V101.22C101.868 101.736 102.54 102.156 103.428 102.156C105.12 102.156 106.116 100.824 106.116 99.108C106.116 97.428 105.192 96.096 103.464 96.096C102.528 96.096 101.844 96.552 101.532 97.128V96.228H100.44V104.28H101.556ZM104.964 99.108C104.964 100.296 104.304 101.148 103.26 101.148C102.228 101.148 101.544 100.296 101.544 99.108C101.544 97.956 102.228 97.092 103.26 97.092C104.316 97.092 104.964 97.956 104.964 99.108ZM108.682 102V93.312H107.554V102H108.682ZM113.073 101.172C112.113 101.172 111.273 100.452 111.273 99.108C111.273 97.776 112.113 97.056 113.073 97.056C114.033 97.056 114.873 97.776 114.873 99.108C114.873 100.452 114.033 101.172 113.073 101.172ZM113.073 96.048C111.345 96.048 110.121 97.356 110.121 99.108C110.121 100.872 111.345 102.18 113.073 102.18C114.801 102.18 116.025 100.872 116.025 99.108C116.025 97.356 114.801 96.048 113.073 96.048ZM117.108 100.452C117.108 101.364 117.864 102.18 119.04 102.18C120.072 102.18 120.648 101.628 120.9 101.22C120.9 101.64 120.936 101.856 120.96 102H122.064C122.04 101.856 121.992 101.556 121.992 101.052V98.16C121.992 97.032 121.32 96.048 119.592 96.048C118.344 96.048 117.348 96.816 117.228 97.92L118.308 98.172C118.38 97.5 118.824 97.008 119.616 97.008C120.492 97.008 120.864 97.476 120.864 98.04C120.864 98.244 120.768 98.424 120.42 98.472L118.86 98.7C117.864 98.844 117.108 99.42 117.108 100.452ZM119.196 101.232C118.62 101.232 118.26 100.824 118.26 100.392C118.26 99.876 118.62 99.6 119.1 99.528L120.864 99.264V99.528C120.864 100.788 120.12 101.232 119.196 101.232ZM124.421 99.096C124.421 97.908 125.093 97.068 126.125 97.068C127.157 97.068 127.781 97.884 127.781 99.072C127.781 100.26 127.145 101.16 126.113 101.16C125.033 101.16 124.421 100.284 124.421 99.096ZM127.793 101.22C127.793 101.568 127.829 101.868 127.853 102H128.945C128.933 101.904 128.885 101.484 128.885 100.932V93.312H127.769V97.044C127.577 96.576 127.025 96.072 126.005 96.072C124.373 96.072 123.269 97.464 123.269 99.096C123.269 100.812 124.313 102.156 126.005 102.156C126.905 102.156 127.517 101.676 127.793 101.124V101.22ZM131.92 102V96.228H130.804V102H131.92ZM130.552 94.044C130.552 94.488 130.912 94.848 131.356 94.848C131.812 94.848 132.172 94.488 132.172 94.044C132.172 93.588 131.812 93.228 131.356 93.228C130.912 93.228 130.552 93.588 130.552 94.044ZM134.967 98.664C134.967 97.788 135.423 97.08 136.311 97.08C137.319 97.08 137.655 97.728 137.655 98.532V102H138.783V98.34C138.783 97.056 138.099 96.06 136.719 96.06C136.047 96.06 135.363 96.336 134.943 97.056V96.228H133.839V102H134.967V98.664ZM140.157 102.312C140.301 103.548 141.381 104.46 142.821 104.46C144.993 104.46 145.713 103.032 145.713 101.568V96.228H144.597V97.032C144.309 96.456 143.709 96.12 142.821 96.12C141.237 96.12 140.169 97.368 140.169 98.928C140.169 100.56 141.285 101.724 142.821 101.724C143.685 101.724 144.309 101.304 144.585 100.776V101.604C144.585 102.852 144.033 103.476 142.821 103.476C141.945 103.476 141.333 102.864 141.249 102.06L140.157 102.312ZM142.989 100.776C141.969 100.776 141.321 100.056 141.321 98.928C141.321 97.812 141.993 97.08 142.989 97.08C143.961 97.08 144.633 97.812 144.633 98.928C144.633 100.044 143.961 100.776 142.989 100.776ZM152.027 94.404H150.995V95.34C150.995 95.844 150.731 96.228 150.107 96.228H149.795V97.248H150.899V100.416C150.899 101.46 151.523 102.06 152.507 102.06C152.891 102.06 153.179 101.988 153.275 101.952V100.992C153.179 101.016 152.975 101.04 152.831 101.04C152.243 101.04 152.027 100.776 152.027 100.248V97.248H153.275V96.228H152.027V94.404ZM155.908 98.604C155.932 97.752 156.388 97.08 157.252 97.08C158.26 97.08 158.596 97.728 158.596 98.532V102H159.724V98.34C159.724 97.056 159.04 96.06 157.66 96.06C157 96.06 156.328 96.288 155.908 96.9V93.312H154.78V102H155.908V98.604ZM162.251 98.52C162.299 97.776 162.875 97.044 163.823 97.044C164.843 97.044 165.383 97.692 165.407 98.52H162.251ZM165.575 100.02C165.359 100.668 164.891 101.184 163.955 101.184C162.983 101.184 162.239 100.464 162.215 99.432H166.559C166.571 99.36 166.583 99.216 166.583 99.072C166.583 97.272 165.587 96.048 163.811 96.048C162.359 96.048 161.051 97.284 161.051 99.096C161.051 101.052 162.407 102.18 163.955 102.18C165.299 102.18 166.223 101.376 166.547 100.356L165.575 100.02ZM167.483 100.5C167.579 101.16 168.251 102.18 169.835 102.18C171.263 102.18 171.947 101.208 171.947 100.392C171.947 99.54 171.395 98.904 170.351 98.676L169.415 98.472C168.971 98.376 168.755 98.124 168.755 97.776C168.755 97.38 169.139 97.008 169.715 97.008C170.627 97.008 170.867 97.668 170.915 97.968L171.911 97.596C171.791 97.08 171.299 96.048 169.715 96.048C168.587 96.048 167.663 96.888 167.663 97.872C167.663 98.688 168.203 99.3 169.103 99.492L170.087 99.708C170.567 99.816 170.831 100.092 170.831 100.452C170.831 100.86 170.483 101.22 169.847 101.22C169.031 101.22 168.575 100.74 168.503 100.14L167.483 100.5ZM174.122 98.52C174.17 97.776 174.746 97.044 175.694 97.044C176.714 97.044 177.254 97.692 177.278 98.52H174.122ZM177.446 100.02C177.23 100.668 176.762 101.184 175.826 101.184C174.854 101.184 174.11 100.464 174.086 99.432H178.43C178.442 99.36 178.454 99.216 178.454 99.072C178.454 97.272 177.458 96.048 175.682 96.048C174.23 96.048 172.922 97.284 172.922 99.096C172.922 101.052 174.278 102.18 175.826 102.18C177.17 102.18 178.094 101.376 178.418 100.356L177.446 100.02ZM182.354 100.5C182.45 101.16 183.122 102.18 184.706 102.18C186.134 102.18 186.818 101.208 186.818 100.392C186.818 99.54 186.266 98.904 185.222 98.676L184.286 98.472C183.842 98.376 183.626 98.124 183.626 97.776C183.626 97.38 184.01 97.008 184.586 97.008C185.498 97.008 185.738 97.668 185.786 97.968L186.782 97.596C186.662 97.08 186.17 96.048 184.586 96.048C183.458 96.048 182.534 96.888 182.534 97.872C182.534 98.688 183.074 99.3 183.974 99.492L184.958 99.708C185.438 99.816 185.702 100.092 185.702 100.452C185.702 100.86 185.354 101.22 184.718 101.22C183.902 101.22 183.446 100.74 183.374 100.14L182.354 100.5ZM192.065 101.304C192.065 101.544 192.089 101.868 192.113 102H193.193C193.169 101.796 193.133 101.388 193.133 100.932V96.228H192.005V99.708C192.005 100.584 191.549 101.184 190.637 101.184C189.689 101.184 189.329 100.488 189.329 99.696V96.228H188.201V99.864C188.201 101.172 189.017 102.18 190.361 102.18C191.033 102.18 191.753 101.904 192.065 101.304ZM196.174 104.28V101.22C196.486 101.736 197.158 102.156 198.046 102.156C199.738 102.156 200.734 100.824 200.734 99.108C200.734 97.428 199.81 96.096 198.082 96.096C197.146 96.096 196.462 96.552 196.15 97.128V96.228H195.058V104.28H196.174ZM199.582 99.108C199.582 100.296 198.922 101.148 197.878 101.148C196.846 101.148 196.162 100.296 196.162 99.108C196.162 97.956 196.846 97.092 197.878 97.092C198.934 97.092 199.582 97.956 199.582 99.108ZM201.811 100.452C201.811 101.364 202.567 102.18 203.743 102.18C204.775 102.18 205.351 101.628 205.603 101.22C205.603 101.64 205.639 101.856 205.663 102H206.767C206.743 101.856 206.695 101.556 206.695 101.052V98.16C206.695 97.032 206.023 96.048 204.295 96.048C203.047 96.048 202.051 96.816 201.931 97.92L203.011 98.172C203.083 97.5 203.527 97.008 204.319 97.008C205.195 97.008 205.567 97.476 205.567 98.04C205.567 98.244 205.471 98.424 205.123 98.472L203.563 98.7C202.567 98.844 201.811 99.42 201.811 100.452ZM203.899 101.232C203.323 101.232 202.963 100.824 202.963 100.392C202.963 99.876 203.323 99.6 203.803 99.528L205.567 99.264V99.528C205.567 100.788 204.823 101.232 203.899 101.232ZM211.284 99.048V98.064H208.032V99.048H211.284ZM215.692 97.248V96.228H214.3V95.316C214.3 94.524 214.816 94.332 215.212 94.332C215.5 94.332 215.644 94.38 215.704 94.404V93.396C215.656 93.36 215.416 93.276 215.032 93.276C213.988 93.276 213.136 93.972 213.136 95.256V96.228H212.068V97.248H213.136V102H214.3V97.248H215.692ZM216.366 100.452C216.366 101.364 217.122 102.18 218.298 102.18C219.33 102.18 219.906 101.628 220.158 101.22C220.158 101.64 220.194 101.856 220.218 102H221.322C221.298 101.856 221.25 101.556 221.25 101.052V98.16C221.25 97.032 220.578 96.048 218.85 96.048C217.602 96.048 216.606 96.816 216.486 97.92L217.566 98.172C217.638 97.5 218.082 97.008 218.874 97.008C219.75 97.008 220.122 97.476 220.122 98.04C220.122 98.244 220.026 98.424 219.678 98.472L218.118 98.7C217.122 98.844 216.366 99.42 216.366 100.452ZM218.454 101.232C217.878 101.232 217.518 100.824 217.518 100.392C217.518 99.876 217.878 99.6 218.358 99.528L220.122 99.264V99.528C220.122 100.788 219.378 101.232 218.454 101.232ZM222.467 100.5C222.563 101.16 223.235 102.18 224.819 102.18C226.247 102.18 226.931 101.208 226.931 100.392C226.931 99.54 226.379 98.904 225.335 98.676L224.399 98.472C223.955 98.376 223.739 98.124 223.739 97.776C223.739 97.38 224.123 97.008 224.699 97.008C225.611 97.008 225.851 97.668 225.899 97.968L226.895 97.596C226.775 97.08 226.283 96.048 224.699 96.048C223.571 96.048 222.647 96.888 222.647 97.872C222.647 98.688 223.187 99.3 224.087 99.492L225.071 99.708C225.551 99.816 225.815 100.092 225.815 100.452C225.815 100.86 225.467 101.22 224.831 101.22C224.015 101.22 223.559 100.74 223.487 100.14L222.467 100.5ZM229.945 94.404H228.913V95.34C228.913 95.844 228.649 96.228 228.025 96.228H227.713V97.248H228.817V100.416C228.817 101.46 229.441 102.06 230.425 102.06C230.809 102.06 231.097 101.988 231.193 101.952V100.992C231.097 101.016 230.893 101.04 230.749 101.04C230.161 101.04 229.945 100.776 229.945 100.248V97.248H231.193V96.228H229.945V94.404ZM238.95 96.228L237.45 100.572L236.154 96.228H234.918L236.814 102H238.002L239.502 97.608L241.038 102H242.202L244.074 96.228H242.886L241.614 100.572L240.114 96.228H238.95ZM246.33 102V96.228H245.214V102H246.33ZM244.962 94.044C244.962 94.488 245.322 94.848 245.766 94.848C246.222 94.848 246.582 94.488 246.582 94.044C246.582 93.588 246.222 93.228 245.766 93.228C245.322 93.228 244.962 93.588 244.962 94.044ZM249.761 94.404H248.729V95.34C248.729 95.844 248.465 96.228 247.841 96.228H247.529V97.248H248.633V100.416C248.633 101.46 249.257 102.06 250.241 102.06C250.625 102.06 250.913 101.988 251.009 101.952V100.992C250.913 101.016 250.709 101.04 250.565 101.04C249.977 101.04 249.761 100.776 249.761 100.248V97.248H251.009V96.228H249.761V94.404ZM253.643 98.604C253.667 97.752 254.123 97.08 254.987 97.08C255.995 97.08 256.331 97.728 256.331 98.532V102H257.459V98.34C257.459 97.056 256.775 96.06 255.395 96.06C254.735 96.06 254.063 96.288 253.643 96.9V93.312H252.515V102H253.643V98.604ZM98.004 110.424C97.812 109.5 97.044 108.312 95.124 108.312C93.552 108.312 92.316 109.512 92.316 110.844C92.316 112.116 93.18 112.908 94.392 113.172L95.604 113.436C96.456 113.616 96.876 114.144 96.876 114.756C96.876 115.5 96.3 116.112 95.124 116.112C93.84 116.112 93.168 115.236 93.084 114.288L91.956 114.648C92.112 115.86 93.084 117.18 95.136 117.18C96.948 117.18 98.076 115.98 98.076 114.66C98.076 113.472 97.284 112.584 95.868 112.272L94.596 111.996C93.876 111.84 93.504 111.372 93.504 110.76C93.504 109.968 94.188 109.344 95.148 109.344C96.336 109.344 96.852 110.184 96.948 110.796L98.004 110.424ZM103.073 116.304C103.073 116.544 103.097 116.868 103.121 117H104.201C104.177 116.796 104.141 116.388 104.141 115.932V111.228H103.013V114.708C103.013 115.584 102.557 116.184 101.645 116.184C100.697 116.184 100.337 115.488 100.337 114.696V111.228H99.2086V114.864C99.2086 116.172 100.025 117.18 101.369 117.18C102.041 117.18 102.761 116.904 103.073 116.304ZM107.181 119.28V116.22C107.493 116.736 108.165 117.156 109.053 117.156C110.745 117.156 111.741 115.824 111.741 114.108C111.741 112.428 110.817 111.096 109.089 111.096C108.153 111.096 107.469 111.552 107.157 112.128V111.228H106.065V119.28H107.181ZM110.589 114.108C110.589 115.296 109.929 116.148 108.885 116.148C107.853 116.148 107.169 115.296 107.169 114.108C107.169 112.956 107.853 112.092 108.885 112.092C109.941 112.092 110.589 112.956 110.589 114.108ZM112.819 115.452C112.819 116.364 113.575 117.18 114.751 117.18C115.783 117.18 116.359 116.628 116.611 116.22C116.611 116.64 116.647 116.856 116.671 117H117.775C117.751 116.856 117.703 116.556 117.703 116.052V113.16C117.703 112.032 117.031 111.048 115.303 111.048C114.055 111.048 113.059 111.816 112.939 112.92L114.019 113.172C114.091 112.5 114.535 112.008 115.327 112.008C116.203 112.008 116.575 112.476 116.575 113.04C116.575 113.244 116.479 113.424 116.131 113.472L114.571 113.7C113.575 113.844 112.819 114.42 112.819 115.452ZM114.907 116.232C114.331 116.232 113.971 115.824 113.971 115.392C113.971 114.876 114.331 114.6 114.811 114.528L116.575 114.264V114.528C116.575 115.788 115.831 116.232 114.907 116.232ZM120.576 117V116.16C120.936 116.784 121.596 117.156 122.448 117.156C124.164 117.156 125.136 115.8 125.136 114.084C125.136 112.404 124.236 111.06 122.484 111.06C121.524 111.06 120.852 111.528 120.576 112.044V108.312H119.46V117H120.576ZM123.984 114.084C123.984 115.332 123.312 116.148 122.28 116.148C121.284 116.148 120.564 115.332 120.564 114.084C120.564 112.836 121.284 112.056 122.28 112.056C123.324 112.056 123.984 112.836 123.984 114.084ZM126.213 115.452C126.213 116.364 126.969 117.18 128.145 117.18C129.177 117.18 129.753 116.628 130.005 116.22C130.005 116.64 130.041 116.856 130.065 117H131.169C131.145 116.856 131.097 116.556 131.097 116.052V113.16C131.097 112.032 130.425 111.048 128.697 111.048C127.449 111.048 126.453 111.816 126.333 112.92L127.413 113.172C127.485 112.5 127.929 112.008 128.721 112.008C129.597 112.008 129.969 112.476 129.969 113.04C129.969 113.244 129.873 113.424 129.525 113.472L127.965 113.7C126.969 113.844 126.213 114.42 126.213 115.452ZM128.301 116.232C127.725 116.232 127.365 115.824 127.365 115.392C127.365 114.876 127.725 114.6 128.205 114.528L129.969 114.264V114.528C129.969 115.788 129.225 116.232 128.301 116.232ZM132.315 115.5C132.411 116.16 133.083 117.18 134.667 117.18C136.095 117.18 136.779 116.208 136.779 115.392C136.779 114.54 136.227 113.904 135.183 113.676L134.247 113.472C133.803 113.376 133.587 113.124 133.587 112.776C133.587 112.38 133.971 112.008 134.547 112.008C135.459 112.008 135.699 112.668 135.747 112.968L136.743 112.596C136.623 112.08 136.131 111.048 134.547 111.048C133.419 111.048 132.495 111.888 132.495 112.872C132.495 113.688 133.035 114.3 133.935 114.492L134.919 114.708C135.399 114.816 135.663 115.092 135.663 115.452C135.663 115.86 135.315 116.22 134.679 116.22C133.863 116.22 133.407 115.74 133.335 115.14L132.315 115.5ZM138.954 113.52C139.002 112.776 139.578 112.044 140.526 112.044C141.546 112.044 142.086 112.692 142.11 113.52H138.954ZM142.278 115.02C142.062 115.668 141.594 116.184 140.658 116.184C139.686 116.184 138.942 115.464 138.918 114.432H143.262C143.274 114.36 143.286 114.216 143.286 114.072C143.286 112.272 142.29 111.048 140.514 111.048C139.062 111.048 137.754 112.284 137.754 114.096C137.754 116.052 139.11 117.18 140.658 117.18C142.002 117.18 142.926 116.376 143.25 115.356L142.278 115.02ZM153.27 110.424C153.078 109.5 152.31 108.312 150.39 108.312C148.818 108.312 147.582 109.512 147.582 110.844C147.582 112.116 148.446 112.908 149.658 113.172L150.87 113.436C151.722 113.616 152.142 114.144 152.142 114.756C152.142 115.5 151.566 116.112 150.39 116.112C149.106 116.112 148.434 115.236 148.35 114.288L147.222 114.648C147.378 115.86 148.35 117.18 150.402 117.18C152.214 117.18 153.342 115.98 153.342 114.66C153.342 113.472 152.55 112.584 151.134 112.272L149.862 111.996C149.142 111.84 148.77 111.372 148.77 110.76C148.77 109.968 149.454 109.344 150.414 109.344C151.602 109.344 152.118 110.184 152.214 110.796L153.27 110.424ZM156.234 109.404H155.202V110.34C155.202 110.844 154.938 111.228 154.314 111.228H154.002V112.248H155.106V115.416C155.106 116.46 155.73 117.06 156.714 117.06C157.098 117.06 157.386 116.988 157.482 116.952V115.992C157.386 116.016 157.182 116.04 157.038 116.04C156.45 116.04 156.234 115.776 156.234 115.248V112.248H157.482V111.228H156.234V109.404ZM161.401 116.172C160.441 116.172 159.601 115.452 159.601 114.108C159.601 112.776 160.441 112.056 161.401 112.056C162.361 112.056 163.201 112.776 163.201 114.108C163.201 115.452 162.361 116.172 161.401 116.172ZM161.401 111.048C159.673 111.048 158.449 112.356 158.449 114.108C158.449 115.872 159.673 117.18 161.401 117.18C163.129 117.18 164.353 115.872 164.353 114.108C164.353 112.356 163.129 111.048 161.401 111.048ZM169 111.168C168.94 111.156 168.784 111.132 168.628 111.132C168.04 111.132 167.32 111.348 166.9 112.236V111.228H165.796V117H166.924V114.108C166.924 112.836 167.56 112.332 168.508 112.332C168.664 112.332 168.832 112.344 169 112.368V111.168ZM169.842 115.452C169.842 116.364 170.598 117.18 171.774 117.18C172.806 117.18 173.382 116.628 173.634 116.22C173.634 116.64 173.67 116.856 173.694 117H174.798C174.774 116.856 174.726 116.556 174.726 116.052V113.16C174.726 112.032 174.054 111.048 172.326 111.048C171.078 111.048 170.082 111.816 169.962 112.92L171.042 113.172C171.114 112.5 171.558 112.008 172.35 112.008C173.226 112.008 173.598 112.476 173.598 113.04C173.598 113.244 173.502 113.424 173.154 113.472L171.594 113.7C170.598 113.844 169.842 114.42 169.842 115.452ZM171.93 116.232C171.354 116.232 170.994 115.824 170.994 115.392C170.994 114.876 171.354 114.6 171.834 114.528L173.598 114.264V114.528C173.598 115.788 172.854 116.232 171.93 116.232ZM176.063 117.312C176.207 118.548 177.287 119.46 178.727 119.46C180.899 119.46 181.619 118.032 181.619 116.568V111.228H180.503V112.032C180.215 111.456 179.615 111.12 178.727 111.12C177.143 111.12 176.075 112.368 176.075 113.928C176.075 115.56 177.191 116.724 178.727 116.724C179.591 116.724 180.215 116.304 180.491 115.776V116.604C180.491 117.852 179.939 118.476 178.727 118.476C177.851 118.476 177.239 117.864 177.155 117.06L176.063 117.312ZM178.895 115.776C177.875 115.776 177.227 115.056 177.227 113.928C177.227 112.812 177.899 112.08 178.895 112.08C179.867 112.08 180.539 112.812 180.539 113.928C180.539 115.044 179.867 115.776 178.895 115.776ZM184.153 113.52C184.201 112.776 184.777 112.044 185.725 112.044C186.745 112.044 187.285 112.692 187.309 113.52H184.153ZM187.477 115.02C187.261 115.668 186.793 116.184 185.857 116.184C184.885 116.184 184.141 115.464 184.117 114.432H188.461C188.473 114.36 188.485 114.216 188.485 114.072C188.485 112.272 187.489 111.048 185.713 111.048C184.261 111.048 182.953 112.284 182.953 114.096C182.953 116.052 184.309 117.18 185.857 117.18C187.201 117.18 188.125 116.376 188.449 115.356L187.477 115.02ZM189.629 116.232C189.629 116.7 189.989 117.06 190.457 117.06C190.925 117.06 191.297 116.7 191.297 116.232C191.297 115.764 190.925 115.392 190.457 115.392C189.989 115.392 189.629 115.764 189.629 116.232Z" fill="#A0A0A0"/>
</svg>
