<svg width="24" height="24" viewBox="0 0 24 24" fill="none" xmlns="http://www.w3.org/2000/svg">
<path d="M5.92381 15.2988L9.85798 13.0912L9.92381 12.8988L9.85798 12.7924H9.66558L9.00735 12.7519L6.75925 12.6912L4.80988 12.6102L2.92127 12.5089L2.44533 12.4076L1.99976 11.8203L2.04533 11.5266L2.44533 11.2583L3.01748 11.3089L4.2833 11.395L6.18203 11.5266L7.55925 11.6076L9.59976 11.8203H9.92381L9.96938 11.6886L9.85798 11.6076L9.77191 11.5266L7.80735 10.195L5.68077 8.78737L4.56684 7.97724L3.96431 7.56711L3.66052 7.1823L3.52887 6.3418L4.07571 5.73927L4.80988 5.7899L4.99722 5.84053L5.74153 6.41268L7.3314 7.64306L9.40735 9.17218L9.71115 9.42534L9.83267 9.33927L9.84786 9.27851L9.71115 9.05066L8.58203 7.01015L7.37697 4.9342L6.84026 4.07344L6.69849 3.55699C6.64786 3.34433 6.61241 3.16712 6.61241 2.94939L7.2352 2.10382L7.5795 1.99243L8.40988 2.10382L8.75925 2.40762L9.27571 3.58737L10.1111 5.4456L11.4074 7.97218L11.7871 8.72154L11.9896 9.41522L12.0656 9.62787H12.1972V9.50635L12.3036 8.08357L12.501 6.33673L12.6934 4.08863L12.7592 3.45572L13.0732 2.69623L13.696 2.2861L14.182 2.51901L14.582 3.09117L14.5263 3.46079L14.2884 5.00509L13.8225 7.42534L13.5187 9.0456H13.696L13.8985 8.84306L14.7187 7.75446L16.096 6.03294L16.7036 5.34939L17.4124 4.59496L17.8681 4.23547H18.7289L19.3618 5.17724L19.0782 6.14939L18.1922 7.27344L17.458 8.22534L16.4048 9.64306L15.7466 10.7772L15.8074 10.8684L15.9643 10.8532L18.3441 10.3469L19.6301 10.114L21.1643 9.85066L21.858 10.1747L21.9339 10.5038L21.6605 11.1772L20.02 11.5823L18.096 11.9671L15.2301 12.6456L15.1947 12.6709L15.2352 12.7215L16.5263 12.8431L17.0782 12.8734H18.4301L20.9466 13.0608L21.6048 13.4962L21.9998 14.0279L21.9339 14.4329L20.9213 14.9494L19.5542 14.6253L16.3643 13.8658L15.2706 13.5924H15.1187V13.6836L16.0301 14.5747L17.701 16.0836L19.7922 18.0279L19.8985 18.5089L19.6301 18.8886L19.3466 18.8481L17.5086 17.4658L16.7998 16.8431L15.1947 15.4912H15.0884V15.6329L15.458 16.1747L17.4124 19.1114L17.5137 20.0127L17.3719 20.3064L16.8656 20.4836L16.3086 20.3823L15.1643 18.7772L13.9846 16.9696L13.0327 15.3494L12.9162 15.4152L12.3542 21.4658L12.0909 21.7747L11.4833 22.0076L10.977 21.6228L10.7086 21L10.977 19.7696L11.301 18.1646L11.5643 16.8886L11.8023 15.3038L11.9441 14.7772L11.9339 14.7418L11.8175 14.757L10.6225 16.3975L8.80482 18.8532L7.36684 20.3924L7.02254 20.5291L6.42507 20.2203L6.48077 19.6684L6.81495 19.1772L8.80482 16.6456L10.0048 15.076L10.7795 14.1696L10.7744 14.038H10.7289L5.44279 17.4709L4.50102 17.5924L4.09596 17.2127L4.14659 16.5899L4.339 16.3874L5.92887 15.2937L5.92381 15.2988Z" fill="#D97757"/>
</svg>
