<svg width="467" height="533" viewBox="0 0 467 533" fill="none" xmlns="http://www.w3.org/2000/svg">
<path d="M457.43 125.943L244.42 2.9625C237.58 -0.9875 229.14 -0.9875 222.3 2.9625L9.3 125.943C3.55 129.263 0 135.403 0 142.053V390.043C0 396.683 3.55 402.832 9.3 406.152L222.31 529.133C229.15 533.083 237.59 533.083 244.43 529.133L457.44 406.152C463.19 402.832 466.74 396.693 466.74 390.043V142.053C466.74 135.413 463.19 129.263 457.44 125.943H457.43ZM444.05 151.993L238.42 508.152C237.03 510.552 233.36 509.573 233.36 506.793V273.582C233.36 268.922 230.87 264.612 226.83 262.272L24.87 145.673C22.47 144.283 23.45 140.613 26.23 140.613H437.49C443.33 140.613 446.98 146.943 444.06 152.003H444.05V151.993Z" fill="#26251E"/>
</svg>
