<svg xmlns="http://www.w3.org/2000/svg" viewBox="0 0 98.1 118">
  <path fill="#ff3e00" d="M91.8 15.6C80.9-.1 59.2-4.7 43.6 5.2L16.1 22.8A31.25 31.25 0 001.9 43.9c-1.3 7.3-.2 14.8 3.3 21.3-2.4 3.6-4 7.6-4.7 11.8-1.6 8.9.5 18.1 5.7 25.4 11 15.7 32.6 20.3 48.2 10.4l27.5-17.5c7.5-4.7 12.7-12.4 14.2-21.1 1.3-7.3.2-14.8-3.3-21.3 2.4-3.6 4-7.6 4.7-11.8 1.7-9-.4-18.2-5.7-25.5"/>
  <path fill="#fff" d="M40.9 103.9a21.8 21.8 0 01-23.4-8.7c-3.2-4.4-4.4-9.9-3.5-15.3l.6-2.6.5-1.6 1.4 1c3.3 2.4 6.9 4.2 10.8 5.4l1 .3-.1 1c-.1 1.4.3 2.9 1.1 4.1a6.62 6.62 0 008.8 2L65.5 72c1.4-.9 2.3-2.2 2.6-3.8.3-1.6-.1-3.3-1-4.6a6.56 6.56 0 00-8.8-1.9l-10.5 6.7a18.6 18.6 0 01-5.6 2.4 21.8 21.8 0 01-23.4-8.7 20.2 20.2 0 01-3.4-15.3c.9-5.2 4.1-9.9 8.6-12.7l27.5-17.5c1.7-1.1 3.6-1.9 5.6-2.5a21.8 21.8 0 0123.4 8.7c3.2 4.4 4.4 9.9 3.5 15.3-.2.9-.4 1.7-.7 2.6l-.5 1.6-1.4-1c-3.3-2.4-6.9-4.2-10.8-5.4l-1-.3.1-1c.1-1.4-.3-2.9-1.1-4.1a6.56 6.56 0 00-8.8-1.9L32.4 46.1c-1.4.9-2.3 2.2-2.6 3.8s.1 3.3 1 4.6a6.56 6.56 0 008.8 1.9l10.5-6.7c1.7-1.1 3.6-1.9 5.6-2.5a21.8 21.8 0 0123.4 8.7c3.2 4.4 4.4 9.9 3.5 15.3-.9 5.2-4.1 9.9-8.6 12.7l-27.5 17.5c-1.7 1.1-3.6 1.9-5.6 2.5"/>
</svg>
