<svg width="143" height="60" viewBox="0 0 143 60" fill="none" xmlns="http://www.w3.org/2000/svg">
<path fill-rule="evenodd" clip-rule="evenodd" d="M21.6268 41.1788C28.0274 41.1788 33.2162 35.9901 33.2162 29.5894C33.2162 23.1888 28.0274 18 21.6268 18C15.2261 18 10.0374 23.1888 10.0374 29.5894C10.0374 35.9901 15.2261 41.1788 21.6268 41.1788ZM23.8454 23.4132V30.0691C23.8454 30.2475 23.7746 30.4185 23.6485 30.5446L22.8488 31.3443C22.7963 31.3968 22.7963 31.482 22.8488 31.5345L23.6485 32.3342C23.7746 32.4603 23.8454 32.6313 23.8454 32.8096V35.9439C23.8454 36.3152 23.5444 36.6163 23.173 36.6163H20.0805C19.7091 36.6163 19.4081 36.3152 19.4081 35.9439V29.3232C19.4081 29.1448 19.4789 28.9738 19.605 28.8477L20.3871 28.0656C20.4396 28.0131 20.4396 27.9279 20.3871 27.8754L19.605 27.0933C19.4789 26.9672 19.4081 26.7962 19.4081 26.6179V23.4132C19.4081 23.0418 19.7091 22.7408 20.0805 22.7408H23.173C23.5444 22.7408 23.8454 23.0418 23.8454 23.4132Z" fill="#7E7E7E"/>
<path d="M85.9797 26.1418C86.9337 26.1418 87.8157 26.1238 88.6977 26.1598C88.7877 26.1598 88.9317 26.3938 88.9677 26.5378C89.4357 28.7878 89.9037 31.0377 90.3717 33.2877C90.4257 33.5397 90.4797 33.7737 90.5697 34.1517C90.6597 33.9177 90.7137 33.8277 90.7317 33.7197C91.3077 31.3437 91.8837 28.9678 92.4417 26.5738C92.5137 26.2318 92.6397 26.1058 92.9997 26.1238C93.7377 26.1418 94.4577 26.1418 95.1956 26.1238C95.5196 26.1058 95.6276 26.2318 95.6996 26.5378C96.3116 28.9498 96.9416 31.3617 97.5536 33.7737C97.5896 33.8817 97.6256 33.9897 97.7156 34.2237C97.9856 32.9457 98.2196 31.8117 98.4716 30.6597C98.7596 29.2918 99.0476 27.9058 99.3176 26.5378C99.3896 26.2138 99.5336 26.1058 99.8576 26.1238C100.65 26.1418 101.442 26.1238 102.288 26.1238C102.234 26.4118 102.198 26.6458 102.144 26.8618C101.37 30.0298 100.578 33.1977 99.8036 36.3657C99.7136 36.7257 99.5696 36.8337 99.2096 36.8337C98.0936 36.8157 96.9596 36.8157 95.8256 36.8157C95.2676 34.4397 94.7097 32.0817 94.1697 29.7418C94.1337 29.7418 94.1157 29.7238 94.0797 29.7238C93.5217 32.0817 92.9637 34.4397 92.3877 36.7977C91.1277 36.7977 89.9037 36.7977 88.6437 36.7977C87.7257 33.2697 86.8617 29.7418 85.9797 26.1418Z" fill="#7E7E7E"/>
<path d="M129.196 22.1638V27.2578C128.926 27.0418 128.674 26.8078 128.422 26.6098C126.694 25.2778 123.814 25.7458 122.464 27.6358C121.114 29.5258 120.97 31.5957 121.654 33.7557C122.158 35.3757 123.22 36.5457 124.912 36.9777C126.514 37.3917 128.314 36.9417 129.088 35.4477C129.106 35.4117 129.16 35.3937 129.286 35.2857V36.8157H132.13V22.1638H129.196ZM129.088 31.4157C129.106 32.3877 128.926 33.1977 128.314 33.8997C127.558 34.7637 125.668 34.7997 124.966 33.5757C124.192 32.2077 124.174 30.7858 124.948 29.4358C125.74 28.0498 127.756 28.0678 128.602 29.4358C128.998 30.0658 129.124 30.7678 129.088 31.4157Z" fill="#7E7E7E"/>
<path d="M54.428 23.7658C53.564 23.1358 52.592 22.8298 51.53 22.8298C49.658 22.8118 47.786 22.8118 45.914 22.8118C45.806 22.8118 45.716 22.8298 45.59 22.8478V36.8157H48.668V36.3117C48.668 35.1057 48.686 33.8817 48.668 32.6757C48.668 32.3697 48.758 32.2617 49.082 32.2617C49.982 32.2617 50.882 32.2617 51.782 32.1897C54.5 31.9737 56.1199 30.2457 56.1919 27.5458C56.2099 25.9978 55.688 24.7018 54.428 23.7658ZM50.846 29.5438C50.252 29.5438 49.658 29.5258 49.046 29.5438C48.758 29.5438 48.65 29.4538 48.65 29.1478C48.668 28.5898 48.65 28.0498 48.65 27.4918C48.65 26.9518 48.668 26.4118 48.65 25.8718C48.65 25.6018 48.722 25.4578 49.028 25.4758C49.784 25.5118 50.558 25.4938 51.314 25.5298C52.214 25.5838 52.844 26.1778 52.952 27.0778C53.168 28.6258 52.394 29.5258 50.846 29.5438Z" fill="#7E7E7E"/>
<path d="M66.3673 36.8157C66.3133 34.2777 66.3133 31.7757 66.1693 29.2918C66.0973 28.1218 65.4133 27.1678 64.3693 26.5378C62.7314 25.5478 59.7614 25.5658 58.1234 27.1678C57.5474 27.7438 57.0974 28.3918 56.8994 29.2198C57.6554 29.3998 58.3754 29.5438 59.0594 29.7598C59.4554 29.8678 59.7254 29.8678 59.8874 29.3998C59.9594 29.1838 60.1574 28.9678 60.3374 28.8058C60.8594 28.3378 61.4714 28.2298 62.1374 28.4278C62.7494 28.6258 63.0734 29.0938 63.1994 29.7058C63.3794 30.5338 63.2174 30.7317 62.3714 30.7317C61.6154 30.7317 60.8414 30.7137 60.0854 30.7317C59.6174 30.7497 59.1494 30.7857 58.6994 30.8937C56.4854 31.4157 55.6394 34.1877 57.1694 35.8797C58.6814 37.5357 61.6334 37.5357 63.1454 35.8437C63.2354 35.7537 63.2534 35.6097 63.3074 35.5017C63.3614 35.5557 63.4334 35.5917 63.4874 35.6457V36.8337H66.3673V36.8157ZM61.4174 34.7637C61.1114 34.7997 60.7874 34.7997 60.4814 34.7637C59.8694 34.6737 59.4914 34.2237 59.5094 33.6657C59.5274 33.0897 59.8874 32.6577 60.5354 32.6397C61.4354 32.6037 62.3174 32.6397 63.2354 32.6397C63.4154 33.6117 62.6054 34.6017 61.4174 34.7637Z" fill="#7E7E7E"/>
<path d="M107.752 25.8718C104.674 25.8178 102.298 28.1758 102.244 31.3257C102.19 34.4937 104.458 36.9777 107.41 37.1037C110.542 37.2297 113.188 35.0157 113.206 31.5237C113.224 28.2298 110.848 25.8718 107.752 25.8718ZM109.552 33.4317C108.544 34.9257 106.51 34.7997 105.754 33.1617C105.52 32.6577 105.448 32.0637 105.286 31.4877C105.448 30.9117 105.52 30.3177 105.754 29.7958C106.078 29.0398 106.708 28.5718 107.536 28.4818C108.4 28.4098 109.066 28.7878 109.552 29.5078C110.254 30.5697 110.254 32.3877 109.552 33.4317Z" fill="#7E7E7E"/>
<path d="M76.0869 29.0218C75.2409 29.1838 74.3949 29.3278 73.5669 29.4718C73.4949 29.4898 73.3509 29.3098 73.2969 29.2018C72.7929 28.1938 71.7669 27.7618 70.6869 28.1398C70.2909 28.2838 70.0029 28.5178 69.9669 28.9678C69.9129 29.4358 70.1829 29.7238 70.5789 29.8498C71.5509 30.1558 72.5409 30.3717 73.4949 30.6957C74.1249 30.9117 74.7909 31.1637 75.2949 31.5597C76.3929 32.4417 76.5189 34.0797 75.7269 35.2857C75.0789 36.2577 74.1609 36.7797 73.0269 36.9777C71.2989 37.2837 69.6249 37.1577 68.1309 36.1317C67.4469 35.6637 67.0509 34.9977 66.889 34.1337C67.6989 33.9357 68.4729 33.7377 69.2469 33.5577C69.3369 33.5397 69.5349 33.6477 69.5709 33.7557C70.1829 34.9797 71.7309 35.0517 72.5949 34.7637C72.9909 34.6377 73.2969 34.3677 73.2969 33.8817C73.3149 33.3957 72.9729 33.2157 72.6129 33.1077C71.7309 32.8557 70.8309 32.6217 69.9489 32.3697C69.6249 32.2797 69.3009 32.1537 68.9769 32.0277C67.8789 31.5777 67.1769 30.8217 67.1049 29.5798C67.0329 28.3738 67.4289 27.3838 68.4549 26.6818C69.3549 26.0518 70.3809 25.8898 71.4429 25.8718C72.7569 25.8718 74.0169 26.0878 75.0069 27.0418C75.5469 27.5818 75.9069 28.2118 76.0869 29.0218Z" fill="#7E7E7E"/>
<path d="M76.7171 34.1157C77.5091 33.9177 78.2651 33.7197 79.0211 33.5577C79.1291 33.5397 79.3451 33.6297 79.3991 33.7197C79.9751 34.8537 81.343 35.0337 82.333 34.7637C82.837 34.6377 83.125 34.2777 83.143 33.8637C83.161 33.3597 82.801 33.1797 82.423 33.0717C81.541 32.8017 80.641 32.5857 79.7411 32.3517C79.4171 32.2617 79.0931 32.1357 78.7691 32.0097C77.6891 31.5597 77.0051 30.8038 76.9151 29.5978C76.8431 28.4098 77.2211 27.4198 78.2111 26.7178C79.1111 26.0698 80.1551 25.8898 81.2351 25.8898C82.549 25.8898 83.791 26.1058 84.799 27.0598C85.339 27.5638 85.717 28.2478 85.897 29.0398C85.231 29.1658 84.547 29.2558 83.899 29.4178C83.449 29.5258 83.215 29.4538 82.981 28.9858C82.513 28.0678 81.2531 27.7438 80.3171 28.2118C79.9931 28.3738 79.7951 28.6438 79.7951 29.0218C79.7951 29.3998 79.9931 29.6698 80.3171 29.7778C81.0731 30.0298 81.865 30.2278 82.621 30.4798C83.287 30.6958 83.989 30.8578 84.601 31.1817C86.113 31.9917 86.509 33.8277 85.555 35.2677C84.925 36.2397 83.989 36.7617 82.873 36.9597C81.1451 37.2657 79.4711 37.1397 77.9771 36.1137C77.2931 35.6637 76.8971 34.9977 76.7171 34.1157Z" fill="#7E7E7E"/>
<path d="M39.5421 36.7977C39.5421 33.3057 39.5421 29.8498 39.5421 26.3398C38.8581 26.3398 38.1921 26.3398 37.4901 26.3398C37.4901 25.4758 37.4901 24.6838 37.4901 23.8738C37.9221 23.8018 38.3721 23.7478 38.8041 23.6398C39.3441 23.5138 39.7941 23.2438 40.1361 22.7938C40.2081 22.7038 40.3161 22.5958 40.4061 22.5958C41.1441 22.5778 41.9001 22.5958 42.674 22.5958C42.674 27.3658 42.674 32.0637 42.674 36.7977C41.6301 36.7977 40.6041 36.7977 39.5421 36.7977Z" fill="#7E7E7E"/>
<path d="M117.097 26.1778C117.097 26.7718 117.097 27.3298 117.097 27.8878C117.133 27.8878 117.151 27.9058 117.187 27.9058C117.313 27.7078 117.421 27.4918 117.547 27.2938C118.231 26.1958 119.581 25.6378 120.805 25.9258C121.129 25.9978 121.327 26.1058 121.219 26.5378C121.039 27.2218 120.913 27.9058 120.859 28.6078C120.823 29.0578 120.607 29.0218 120.283 29.0218C119.743 29.0038 119.185 29.0218 118.645 29.1118C117.961 29.2198 117.565 29.6878 117.457 30.3537C117.385 30.7677 117.367 31.1817 117.367 31.5957C117.349 33.1617 117.367 34.7457 117.367 36.3117C117.367 36.4737 117.367 36.6357 117.367 36.8337C116.341 36.8337 115.351 36.8337 114.325 36.8337C114.325 33.2877 114.325 29.7778 114.325 26.1958C115.207 26.1778 116.107 26.1778 117.097 26.1778Z" fill="#7E7E7E"/>
</svg>
