<svg xmlns="http://www.w3.org/2000/svg" width="149" height="60" fill="none" viewBox="0 0 149 60"><g fill="#7e7e7e" fill-rule="evenodd" clip-path="url(#a)" clip-rule="evenodd"><path d="M36.341 30.003c0 7.091-5.748 12.84-12.84 12.84-7.09 0-12.84-5.749-12.84-12.84s5.75-12.84 12.84-12.84c7.092 0 12.84 5.749 12.84 12.84m-15.725-5.14a.085.085 0 0 0-.128.075v10.139a.086.086 0 0 0 .128.074l8.78-5.07a.086.086 0 0 0 0-.148zm1.532-.784c-.078 0-.107.105-.038.145h-.002l7.044 4.067c.07.04.146-.037.107-.105l-2.294-3.99a.23.23 0 0 0-.201-.117zM19.042 34.09c.04.07.146.042.146-.038v-8.103c0-.08-.105-.106-.146-.038l-2.284 3.973a.23.23 0 0 0 0 .233zm10.102-2.362c.07-.04.147.037.107.105l-.001.002-2.286 3.973a.23.23 0 0 1-.202.117h-4.597c-.08 0-.107-.105-.04-.145zm2.437-2.114a.78.78 0 0 1 0 .774l-3.706 6.446a.78.78 0 0 1-.674.39h-7.407a.78.78 0 0 1-.673-.39l-3.706-6.446a.78.78 0 0 1 0-.774l3.706-6.446a.78.78 0 0 1 .673-.39h7.407a.78.78 0 0 1 .674.39zM43.308 32.33c0-1.697 1.253-3.045 3.037-3.045s3.038 1.348 3.038 3.045-1.275 3.066-3.038 3.066c-1.764 0-3.038-1.37-3.038-3.066m3.568 5.17c2.89 0 4.865-2.288 4.865-5.17s-1.976-5.15-4.865-5.15c-1.402 0-2.782.634-3.505 1.758V22.95h-2.358v14.304h2.23v-1.758c.68 1.288 2.168 2.003 3.633 2.003zm7.97-6.336c.362-1.308 1.338-2.125 2.783-2.125s2.465.817 2.805 2.125zM57.8 37.56c2.082 0 3.91-.879 4.823-2.84v-.042c-.638.041-1.593-.389-1.976-.899l-.02.02c-.383 1.023-1.402 1.78-2.783 1.78-1.657 0-2.91-1.044-3.123-2.739h7.966c.382-3.085-1.657-5.722-5.036-5.722-2.996 0-5.163 2.33-5.163 5.21s2.21 5.232 5.312 5.232m5.388-8.112h1.38v7.806h2.381v-7.806h1.509v-2.044h-1.509v-3.148h-2.38v3.148h-1.381zm8.06 2.882c0-1.697 1.253-3.045 3.037-3.045s3.06 1.369 3.06 3.045-1.254 3.066-3.06 3.066-3.038-1.37-3.038-3.066m2.528 5.15c1.381 0 2.89-.675 3.569-1.942v1.716h2.294v-9.85h-2.294v1.716c-.68-1.266-2.188-1.941-3.569-1.941-2.91 0-4.887 2.288-4.887 5.15 0 2.86 1.976 5.149 4.887 5.149zm11.263.081c2.338 0 3.93-1.43 3.93-3.29s-1.487-2.677-3.059-2.984l-.957-.184c-.85-.184-1.487-.409-1.487-1.062 0-.572.552-1.103 1.424-1.103.956 0 1.7.47 1.932 1.471h.02c.404-.47 1.361-.838 1.997-.756l.021-.021c-.383-1.39-1.763-2.533-3.91-2.533-2.146 0-3.782 1.39-3.782 3.066 0 1.512 1.02 2.411 3.08 2.84l.999.204c.786.184 1.402.43 1.402 1.145 0 .717-.552 1.288-1.593 1.288-1.274 0-2.188-.817-2.358-1.84l-.021-.02c-.404.47-1.36.817-1.997.736l-.02.02c.382 1.84 2.082 3.025 4.376 3.025zm5.077-.307h2.359v-5.599c0-1.43 1.02-2.37 2.422-2.37 1.401 0 2.294.899 2.294 2.288v5.681h2.358v-6.518c0-2.084-1.657-3.576-3.846-3.576-1.296 0-2.57.572-3.228 1.736V22.95h-2.359zm12.922-4.924c0-1.697 1.253-3.045 3.037-3.045s3.06 1.369 3.06 3.045-1.253 3.066-3.06 3.066c-1.806 0-3.037-1.37-3.037-3.066m2.528 5.15c1.381 0 2.89-.675 3.569-1.942v1.716h2.294v-9.85h-2.294v1.716c-.679-1.266-2.188-1.941-3.569-1.941-2.91 0-4.887 2.288-4.887 5.15 0 2.86 1.976 5.149 4.887 5.149zm7.716-7.378v7.152h2.358v-4.372c0-1.716.531-3.31 2.252-3.31.51 0 .956.122 1.189.306h.021c.021-.633.574-1.553 1.126-1.9v-.041c-.383-.429-1.062-.694-1.976-.694-1.296 0-2.21.777-2.677 1.839v-1.676h-2.295v2.698zm8.647 1.062c.36-1.308 1.338-2.125 2.782-2.125 1.445 0 2.465.817 2.805 2.125zm2.953 6.396c2.082 0 3.909-.879 4.823-2.84v-.042c-.638.041-1.593-.389-1.976-.899l-.02.02c-.383 1.023-1.402 1.78-2.783 1.78-1.656 0-2.91-1.044-3.123-2.739h7.966c.382-3.085-1.657-5.722-5.036-5.722-2.996 0-5.162 2.33-5.162 5.21s2.209 5.232 5.311 5.232m9.863.001c2.337 0 3.93-1.43 3.93-3.29s-1.487-2.677-3.06-2.984l-.956-.184c-.85-.184-1.488-.409-1.488-1.062 0-.572.552-1.103 1.424-1.103.957 0 1.7.47 1.933 1.471h.02c.404-.47 1.36-.838 1.997-.756l.02-.021c-.382-1.39-1.763-2.533-3.909-2.533s-3.782 1.39-3.782 3.066c0 1.512 1.02 2.411 3.08 2.84l.998.204c.787.184 1.402.43 1.402 1.145 0 .717-.552 1.288-1.593 1.288-1.274 0-2.188-.817-2.358-1.84l-.021-.02c-.403.47-1.36.817-1.996.736l-.021.02c.383 1.84 2.082 3.025 4.377 3.025z"/></g><defs><clipPath id="a"><path fill="#fff" d="M10.59 17.04h128.13v25.92H10.59z"/></clipPath></defs></svg>