<svg width="149" height="60" viewBox="0 0 149 60" fill="none" xmlns="http://www.w3.org/2000/svg">
<g clip-path="url(#clip0_2080_14366)">
<path fill-rule="evenodd" clip-rule="evenodd" d="M35.7548 29.9629C35.7548 37.0541 30.0062 42.8027 22.915 42.8027C15.8238 42.8027 10.0752 37.0541 10.0752 29.9629C10.0752 22.8717 15.8238 17.1231 22.915 17.1231C30.0062 17.1231 35.7548 22.8717 35.7548 29.9629ZM20.0294 24.8237C19.973 24.7911 19.9018 24.8326 19.9018 24.8979V35.0368C19.9019 35.0517 19.9058 35.0664 19.9133 35.0793C19.9207 35.0923 19.9314 35.103 19.9443 35.1105C19.9572 35.118 19.9719 35.122 19.9868 35.1221C20.0017 35.1222 20.0164 35.1183 20.0294 35.111L28.8098 30.0415C28.8661 30.0089 28.8661 29.9258 28.8098 29.8932L20.0294 24.8237ZM21.5615 24.0391C21.4829 24.0391 21.4547 24.1444 21.5229 24.1845H21.5215L28.565 28.2513C28.6347 28.2914 28.7119 28.2142 28.6718 28.146L26.3788 24.1563C26.3373 24.0836 26.2602 24.0391 26.1771 24.0391H21.5615ZM18.4558 34.0505C18.4958 34.1202 18.6011 34.092 18.6011 34.0119V25.9094C18.6011 25.8293 18.4958 25.8026 18.4558 25.8708L16.1717 29.8442C16.1301 29.9169 16.1301 30.0059 16.1717 30.0771L18.4558 34.0505ZM28.5576 31.6878C28.6273 31.6478 28.7044 31.7249 28.6644 31.7931L28.6629 31.7946L26.3774 35.768C26.3358 35.8407 26.2587 35.8852 26.1756 35.8852H21.5778C21.4992 35.8852 21.471 35.7799 21.5393 35.7398L28.5576 31.6878ZM30.9945 29.5743C31.1324 29.8146 31.1324 30.1083 30.9945 30.3485L27.288 36.7944C27.1501 37.0361 26.892 37.1844 26.6147 37.1844H19.2077C19.0711 37.1842 18.937 37.148 18.8188 37.0796C18.7006 37.0111 18.6025 36.9127 18.5344 36.7944L14.8279 30.3485C14.69 30.1083 14.69 29.8146 14.8279 29.5743L18.5344 23.1285C18.6723 22.8867 18.9304 22.7384 19.2077 22.7384H26.6147C26.7513 22.7386 26.8854 22.7748 27.0036 22.8433C27.1218 22.9117 27.2199 23.0101 27.288 23.1285L30.9945 29.5743Z" fill="#7E7E7E"/>
<path fill-rule="evenodd" clip-rule="evenodd" d="M42.7208 32.2899C42.7208 30.5932 43.9741 29.245 45.7583 29.245C47.5426 29.245 48.7959 30.5932 48.7959 32.2899C48.7959 33.9867 47.5218 35.3557 45.7583 35.3557C43.9948 35.3557 42.7208 33.9867 42.7208 32.2899ZM46.2893 37.4603C49.1785 37.4603 51.1541 35.1717 51.1541 32.2899C51.1541 29.4082 49.1785 27.1404 46.2893 27.1404C44.8877 27.1404 43.5069 27.7737 42.7846 28.8979V22.9104H40.4263V37.2141H42.657V35.4565C43.3363 36.7439 44.8239 37.4588 46.2893 37.4588V37.4603ZM54.2599 31.1242C54.6217 29.816 55.5977 28.9988 57.0423 28.9988C58.4869 28.9988 59.5073 29.816 59.847 31.1242H54.2599ZM57.2128 37.5196C59.2952 37.5196 61.1225 36.6416 62.0361 34.6793V34.6378C61.3983 34.6793 60.4432 34.2492 60.0605 33.739L60.0398 33.7598C59.6571 34.7817 58.6382 35.5381 57.2573 35.5381C55.6006 35.5381 54.3474 34.4954 54.1338 32.8002H62.0999C62.4825 29.7152 60.4432 27.0781 57.0645 27.0781C54.0685 27.0781 51.9016 29.4082 51.9016 32.2885C51.9016 35.1688 54.1115 37.5196 57.2128 37.5196ZM62.6012 29.4082H63.982V37.2141H66.3625V29.4082H67.8709V27.3643H66.3625V24.2156H63.982V27.3643H62.6012V29.4082ZM70.6607 32.2899C70.6607 30.5932 71.914 29.245 73.6983 29.245C75.4825 29.245 76.758 30.614 76.758 32.2899C76.758 33.9659 75.5048 35.3557 73.6983 35.3557C71.8918 35.3557 70.6607 33.9867 70.6607 32.2899ZM73.1895 37.4395C74.5704 37.4395 76.0787 36.7647 76.758 35.498V37.2141H79.0525V27.3643H76.758V29.0804C76.0787 27.8137 74.5704 27.1389 73.1895 27.1389C70.2796 27.1389 68.3025 29.4274 68.3025 32.2885C68.3025 35.1495 70.2781 37.438 73.1895 37.438V37.4395ZM84.4527 37.5211C86.7902 37.5211 88.3831 36.0913 88.3831 34.2314C88.3831 32.3715 86.8955 31.5543 85.3233 31.2473L84.3667 31.0634C83.5168 30.8795 82.8791 30.654 82.8791 30.0014C82.8791 29.4289 83.4308 28.8979 84.3029 28.8979C85.2596 28.8979 86.0026 29.3681 86.2355 30.3692H86.2562C86.6597 29.8991 87.6163 29.5313 88.2526 29.6128L88.2734 29.5921C87.8907 28.2023 86.5099 27.0588 84.3637 27.0588C82.2176 27.0588 80.5816 28.4485 80.5816 30.1245C80.5816 31.6374 81.6021 32.5362 83.6622 32.9648L84.6604 33.1695C85.4464 33.3534 86.062 33.5981 86.062 34.3145C86.062 35.0308 85.5102 35.6019 84.469 35.6019C83.195 35.6019 82.2814 34.7846 82.1108 33.7627L82.09 33.742C81.6866 34.2121 80.73 34.5592 80.0937 34.4776L80.0729 34.4984C80.4556 36.3375 82.1553 37.5226 84.4497 37.5226L84.4527 37.5211ZM89.5296 37.2141H91.8878V31.6151C91.8878 30.1853 92.9083 29.245 94.3099 29.245C95.7114 29.245 96.6043 30.1438 96.6043 31.5335V37.2141H98.9626V30.6955C98.9626 28.6117 97.3058 27.1196 95.1167 27.1196C93.8204 27.1196 92.5464 27.6921 91.8878 28.8564V22.9104H89.5296V37.2141ZM102.451 32.2899C102.451 30.5932 103.704 29.245 105.488 29.245C107.273 29.245 108.548 30.614 108.548 32.2899C108.548 33.9659 107.295 35.3557 105.488 35.3557C103.682 35.3557 102.451 33.9867 102.451 32.2899ZM104.98 37.4395C106.361 37.4395 107.869 36.7647 108.548 35.498V37.2141H110.843V27.3643H108.548V29.0804C107.869 27.8137 106.361 27.1389 104.98 27.1389C102.07 27.1389 100.093 29.4274 100.093 32.2885C100.093 35.1495 102.068 37.438 104.98 37.438V37.4395ZM112.695 30.0622V37.2141H115.053V32.8417C115.053 31.1257 115.584 29.5313 117.305 29.5313C117.815 29.5313 118.262 29.6544 118.494 29.8383H118.515C118.536 29.205 119.089 28.2854 119.641 27.9383V27.8968C119.258 27.4682 118.579 27.2027 117.665 27.2027C116.369 27.2027 115.455 27.9799 114.988 29.0418V27.3658H112.694V30.0637L112.695 30.0622ZM121.342 31.1242C121.702 29.816 122.68 28.9988 124.124 28.9988C125.569 28.9988 126.59 29.816 126.929 31.1242H121.342ZM124.295 37.5196C126.377 37.5196 128.205 36.6416 129.118 34.6793V34.6378C128.481 34.6793 127.525 34.2492 127.143 33.739L127.122 33.7598C126.739 34.7817 125.72 35.5381 124.34 35.5381C122.683 35.5381 121.43 34.4954 121.216 32.8002H129.182C129.565 29.7152 127.525 27.0781 124.147 27.0781C121.151 27.0781 118.984 29.4082 118.984 32.2885C118.984 35.1688 121.194 37.5196 124.295 37.5196ZM134.158 37.5211C136.496 37.5211 138.089 36.0913 138.089 34.2314C138.089 32.3715 136.601 31.5543 135.029 31.2473L134.072 31.0634C133.222 30.8795 132.584 30.654 132.584 30.0014C132.584 29.4289 133.136 28.8979 134.008 28.8979C134.965 28.8979 135.708 29.3681 135.941 30.3692H135.962C136.365 29.8991 137.322 29.5313 137.958 29.6128L137.979 29.5921C137.596 28.2023 136.215 27.0588 134.069 27.0588C131.923 27.0588 130.287 28.4485 130.287 30.1245C130.287 31.6374 131.307 32.5362 133.368 32.9648L134.366 33.1695C135.152 33.3534 135.767 33.5981 135.767 34.3145C135.767 35.0308 135.216 35.6019 134.174 35.6019C132.9 35.6019 131.987 34.7846 131.816 33.7627L131.795 33.742C131.392 34.2121 130.435 34.5592 129.799 34.4776L129.778 34.4984C130.161 36.3375 131.861 37.5226 134.155 37.5226L134.158 37.5211Z" fill="#7E7E7E"/>
</g>
<defs>
<clipPath id="clip0_2080_14366">
<rect width="128.129" height="25.9198" fill="white" transform="translate(10.0042 17)"/>
</clipPath>
</defs>
</svg>
