<?xml version="1.0" encoding="UTF-8"?>
<svg width="130px" height="40px" viewBox="0 0 130 40" version="1.1" xmlns="http://www.w3.org/2000/svg" xmlns:xlink="http://www.w3.org/1999/xlink">
    <title>brthrs-logotype-color</title>
    <defs>
        <polygon id="path-1" points="0 0 130 0 130 40 0 40"></polygon>
    </defs>
    <g id="brthrs-logotype-color" stroke="none" stroke-width="1" fill="none" fill-rule="evenodd">
        <mask id="mask-2" fill="white">
            <use xlink:href="#path-1"></use>
        </mask>
        <g id="Clip-2"></g>
        <path d="M119.768234,32 C117.898023,32 116.681663,31.1207404 116,30.0152264 C119.41895,25.6778708 121.631357,19 121.631357,19 C122.4409,19 124,24.3952982 124,27.528052 C124,29.7130897 122.63122,32 119.768234,32 Z M125.722294,10.5495228 L117.486497,10.5495228 C118.056172,14.9750306 114.232541,23.6322092 112.742226,26.8614646 L112.733409,26.8431644 C112.733409,26.8431644 110.422135,32.3914833 107.248266,32.3914833 C106.078546,32.3914833 104.972505,31.5571406 105.13317,29.6775217 C105.286242,27.8865142 106.602912,24.0398692 107.021473,22.679397 C108.576936,17.6227745 106.671733,13.5480999 100.056547,13.5480999 C100.056547,13.5480999 100.055567,13.5483407 100.055322,13.5483407 C100.055567,13.5476184 100.056547,13.5442473 100.056547,13.5442473 C100.056547,13.5442473 100.393552,11.3723075 100.206925,10.5495228 L94.3624904,10.5495228 C94.6096108,15.7665125 90.012289,32.4052084 85.1651527,32.4052084 C83.8590147,32.4052084 82.820815,31.7040234 83.4487801,28.8419751 C83.6846344,27.7666 85.7218472,19.2103132 85.7218472,17.5062314 C85.7218472,14.6735596 84.1149521,13.2208642 80.9450019,13.2208642 C77.9229811,13.2208642 75.629096,15.0294495 74.49244,16.0511281 L74.8850407,14.2603613 C75.8590723,10.0183366 76.649172,6.52637762 76.9761351,5.0113172 L71.1287611,5.0113172 C70.9053975,6.00939817 70.0876224,9.44332643 69.2044546,13.3463166 L69.2039648,13.3463166 C69.2039648,13.3463166 69.1983317,13.3725629 69.1878003,13.4207212 C69.106733,13.7787782 69.0254209,14.1404471 68.9436189,14.5047648 C68.9218213,14.6025261 68.9071263,14.6925822 68.8887576,14.7864909 C68.4295398,16.88523 67.5304524,20.9943378 66.6188744,25.1590684 C64.8963788,27.8997577 61.5782543,32.4013557 58.3620149,32.4013557 C55.9243641,32.4013557 56.1866694,29.1451316 56.5770658,27.3818151 C57.1805392,24.6562956 57.8631207,21.5823507 58.5285579,18.5859407 L62.3720277,18.5859407 L63.5615856,13.2283288 L59.7186057,13.2242353 C60.5471572,9.49052157 61.2334123,6.38792248 61.5326999,5.00144475 L55.6564258,5 C55.4286538,6.01782587 54.6929255,9.33472944 53.832535,13.2182155 L50.328764,13.2146036 L49.139206,18.5859407 L52.6434669,18.5859407 C51.9907652,21.5322661 51.3623103,24.370476 50.9057865,26.4333372 C50.4125253,27.2614194 47.2070622,32.4013557 43.5874459,32.4013557 C42.4179711,32.4013557 41.3685052,31.5571406 41.5289253,29.6775217 C41.6819979,27.8865142 42.9989123,24.0398692 43.417474,22.679397 C44.9726918,17.6227745 43.3596738,13.5480999 38.1189572,13.5480999 C38.1189572,13.5480999 38.7123892,11.6932826 38.6663449,10.5495228 L32.7121875,10.5533755 C32.5836065,11.9675442 32.0330349,16.42893 28,19.2404121 L31.3394322,23.6526764 C31.3394322,23.6526764 33.9717914,22.04756 35.5911773,18.9781901 C36.8270243,19.1869564 38.3704862,20.0039621 37.5336075,22.4386055 C37.5336075,22.4386055 35.4831692,28.5484502 35.4510852,31.5585853 C35.4008774,36.2740062 38.9119959,38 41.9883881,38 C46.1311454,38 48.8896364,35.9824076 50.4762035,34.2903654 C51.2378929,36.359728 53.0706007,38 56.7394452,38 C60.0590392,38 62.6953171,36.3435949 64.5534962,34.5973746 C64.1704473,36.3479292 63.9145098,37.5174537 63.8814462,37.6689116 L69.7626186,37.6689116 C70.0988885,36.1572223 71.6014493,28.9659827 72.6129532,24.6170466 C73.4353817,21.0812635 76.1363175,18.6762375 78.5445783,18.6762375 C79.3202279,18.6762375 79.6075146,19.5418831 79.4608098,20.2103205 C79.2905931,20.9856693 78.9626503,22.8238719 78.3648099,25.2276939 C77.6214892,28.2173618 77.2210513,30.6587473 77.2210513,32.2210029 C77.2210513,36.5952221 80.3843888,38 83.6701843,38 C92.6436686,38 97.1067763,24.3538614 98.5287596,18.9175107 C99.74036,18.9300318 102.1376,19.5300844 101.138097,22.4386055 C101.138097,22.4386055 99.0876584,28.5484502 99.0555744,31.5585853 C99.0053665,36.2740062 102.51624,38 105.592387,38 C109.126773,38 111.53185,36.5415256 113.060127,35.0702892 C114.076039,36.2198281 116.303552,38 120.366956,38 C126.607421,38 130,33.7459357 130,27.7661184 C130,21.9066969 126.205513,15.2346039 125.722294,10.5495228 L125.722294,10.5495228 Z" id="Fill-1" fill="#FFFFFF" mask="url(#mask-2)"></path>
        <path d="M11,33.9811595 C11.425622,32.109806 12.5859338,27.0088547 13.7228352,22 C16.5998306,22.3743664 21,23.591715 21,27.5363166 C21,32.810218 16.086793,34.1830542 11,33.9811595 Z M22.5070236,19.5325178 C26.4719736,17.2493915 29,13.4510219 29,8.81000891 C29,0.997783594 21.3553589,0 18.716838,0 C8.23196781,0 1.30739528,6.99914407 0.750967456,7.63045475 L3.96791626,11.9724259 C4.50358001,11.4229608 10.1929371,5.02898568 17.9752638,5.02898568 C20.6676725,5.02898568 23.2008899,6.23003958 23.2008899,9.65069778 C23.2008899,11.9343127 21.584011,15.2538244 15.1137762,17.1560631 C15.821238,13.9425843 16.3979355,11.3157064 16.597419,10.3873083 L10.6608705,10.3909731 C10.1936787,12.489397 7.01801088,26.9159698 5.59567159,33.3785976 C2.72627389,32.4355406 1.16229394,31.1883111 1.16229394,31.1883111 L0,36.5480996 C0,36.5480996 4.32337749,39.5096894 10.3533644,39.9450593 C17.6909937,40.4749791 27.1307387,37.2275404 27.1307387,27.7603234 C27.1307387,23.5236522 24.9893196,21.0160002 22.5070236,19.5325178 L22.5070236,19.5325178 Z" id="Fill-3" fill="#FFFFFF" mask="url(#mask-2)"></path>
    </g>
</svg>