<svg xmlns="http://www.w3.org/2000/svg" viewBox="0 0 380 120" fill="none">
  <defs>
    <linearGradient id="lg" x1="218.5" y1="472.666" x2="218.5" y2="0" gradientUnits="userSpaceOnUse">
      <stop offset="0" stop-color="#c7d2ff"/>
      <stop offset=".015" stop-color="#c8d3ff"/>
      <stop offset=".414" stop-color="#e6ebff"/>
      <stop offset=".756" stop-color="#f8f9ff"/>
      <stop offset="1" stop-color="#fff"/>
    </linearGradient>
  </defs>
  <g transform="translate(0,2) scale(0.245)">
    <polygon fill="#54556b" points="0 96.67 5.63 350.077 209 472.67 209 208.67 0 96.67"/>
    <polygon fill="#231f20" points="45.74 177.181 49.051 320.843 163.26 388.603 163.26 240.158 45.74 177.181"/>
    <polygon fill="url(#lg)" points="225 0 0 96.67 209 208.67 209 472.666 430.813 360.3 437 105.166 225 0"/>
    <polygon fill="#231f20" points="129.654 79.407 216.641 123.097 282.963 92.444 197.63 48.61 129.654 79.407"/>
    <path fill="#231f20" d="M382.518,296.843c0,9.169-2.005,17.671-6.016,25.505-4.011,7.817-9.461,14.895-16.365,21.223-6.904,6.328-14.543,11.491-22.948,15.504l-64.893,30.98v-157.458l74.109-35.38c6.277-2.996,11.696-3.634,16.273-1.903,4.577,1.731,8.083,5.13,10.532,10.169,2.449,5.039,3.674,10.88,3.674,17.54,0,7.238-1.607,15.08-4.807,23.466-3.199,8.404-7.991,15.763-14.39,22.067,7.654-.983,13.701.859,18.156,5.537,4.455,4.66,6.675,12.263,6.675,22.75ZM303.143,248.914v32.596l30.097-14.368c2.373-1.133,4.577-2.763,6.583-4.911s3.598-4.677,4.792-7.612c1.194-2.934,1.791-6.252,1.791-9.952s-.536-6.476-1.592-8.337c-1.072-1.853-2.48-2.985-4.24-3.408-1.76-.405-3.827-.05-6.2,1.083l-31.23,14.909ZM351.304,304.651c0-3.249-.566-5.938-1.699-8.051-1.133-2.13-2.602-3.541-4.424-4.223s-4.041-.399-6.675.858l-35.363,16.882v34.383l34.046-16.254c2.756-1.316,5.205-3.225,7.333-5.721s3.797-5.278,4.991-8.375c1.194-3.079,1.791-6.252,1.791-9.5Z"/>
  </g>
  <text x="135" y="85" font-family="system-ui, -apple-system, BlinkMacSystemFont, 'Segoe UI', sans-serif" font-size="72" font-weight="700" fill="#231f20" letter-spacing="-1">Buildify</text>
</svg>
