<svg width="92" height="60" viewBox="0 0 92 60" fill="none" xmlns="http://www.w3.org/2000/svg">
<g clip-path="url(#clip0_2801_860)">
<path d="M81.6316 29.2995C81.6316 24.2485 79.2026 19.1867 75.6026 15.7104C72.5335 12.7431 68.4498 10.6194 64.1771 10.1758C60.3007 9.77944 56.4171 10.1758 52.8498 11.8085C49.536 13.3105 46.6945 15.6879 44.6315 18.6849C43.2323 20.7363 42.2227 23.0279 41.6534 25.4449C41.2897 27.0195 41.177 28.6849 40.9625 30.2922C40.8715 30.9649 40.7988 31.6413 40.6534 32.3031C40.2645 34.044 39.4482 35.6608 38.2782 37.0073C37.1082 38.3538 35.6212 39.3878 33.9515 40.0158C29.3188 41.7176 24.0097 39.7504 21.4243 35.594C20.4884 34.0886 19.9411 32.3743 19.8315 30.6051C19.722 28.8359 20.0536 27.0671 20.7966 25.4577C21.5397 23.8484 22.6708 22.4488 24.0885 21.3847C25.5062 20.3206 27.166 19.6253 28.9188 19.3613C30.2166 19.1657 31.5394 19.2113 32.8206 19.4958C33.6098 19.6702 34.3771 19.9324 35.1079 20.2776C35.2061 20.3249 35.6315 20.5976 35.7006 20.5613C35.7697 20.5249 35.8206 20.3358 35.8534 20.2813L39.6279 13.3722L40.1625 12.394C37.6827 11.0923 34.9665 10.3024 32.1754 10.0713C29.3843 9.84015 26.5753 10.1725 23.9152 11.0485C20.9746 12.0618 18.308 13.7411 16.1235 15.9551C13.9391 18.1692 12.296 20.8582 11.3224 23.8122C9.8495 28.3825 10.0818 33.3316 11.9764 37.7439C13.871 42.1561 17.2996 45.7328 21.6279 47.812C24.1957 49.016 26.9736 49.7076 29.8061 49.8484C32.5897 49.9865 35.3715 49.5422 37.9737 48.544C40.5759 47.5458 42.9413 46.0161 44.9188 44.0521C45.2825 43.6885 45.6461 43.3031 45.9843 42.9103C49.6207 47.1065 55.1153 49.8702 60.7117 49.9065C63.8647 49.9775 66.9949 49.3567 69.8826 48.0884C73.0917 46.632 75.8655 44.3633 77.9298 41.5067C80.4662 37.9523 81.7666 33.664 81.6316 29.2995ZM72.1989 31.0195C71.9189 33.7683 70.5938 36.3046 68.4975 38.1042C66.4007 39.9039 63.6931 40.8293 60.9335 40.6892C58.1738 40.5492 55.5738 39.3543 53.6702 37.3517C51.7666 35.349 50.7051 32.6916 50.7051 29.9285C50.7051 27.1655 51.7666 24.508 53.6702 22.5054C55.5738 20.5027 58.1738 19.3079 60.9335 19.1678C63.6931 19.0278 66.4007 19.9532 68.4975 21.7528C70.5938 23.5525 71.9189 26.0888 72.1989 28.8376C72.2727 29.563 72.2727 30.294 72.1989 31.0195Z" fill="#7E7E7E"/>
</g>
<defs>
<clipPath id="clip0_2801_860">
<rect width="71.2727" height="40" fill="white" transform="translate(10.3643 10)"/>
</clipPath>
</defs>
</svg>
