<svg width="47" height="60" viewBox="0 0 47 60" fill="none" xmlns="http://www.w3.org/2000/svg">
<path d="M23.4643 10H30.1309C33.813 10 36.7976 12.9846 36.7976 16.6667C36.7976 20.3488 33.813 23.3333 30.1309 23.3333H23.4643V10Z" fill="#7E7E7E"/>
<path d="M23.4643 30C23.4643 26.3179 26.4488 23.3333 30.1309 23.3333C33.813 23.3333 36.7976 26.3179 36.7976 30C36.7976 33.6821 33.813 36.6667 30.1309 36.6667C26.4488 36.6667 23.4643 33.6821 23.4643 30Z" fill="#7E7E7E"/>
<path d="M23.4643 23.3333L16.7975 23.3333C13.1154 23.3333 10.1309 26.3179 10.1309 30C10.1309 33.679 13.1104 36.6616 16.7882 36.6667C13.1104 36.6717 10.1309 39.6543 10.1309 43.3333C10.1309 47.0154 13.1154 50 16.7975 50C20.4796 50 23.4642 47.0154 23.4642 43.3333L23.4643 23.3333Z" fill="#7E7E7E"/>
<path d="M10.1309 16.6667C10.1309 20.3488 13.1154 23.3333 16.7975 23.3333L23.4643 23.3333V10H16.7975C13.1154 10 10.1309 12.9846 10.1309 16.6667Z" fill="#7E7E7E"/>
</svg>
