<svg width="166" height="60" viewBox="0 0 166 60" fill="none" xmlns="http://www.w3.org/2000/svg">
<path fill-rule="evenodd" clip-rule="evenodd" d="M45.1553 10.0006C50.648 10.0006 56.1411 10.0006 61.6338 10.0006C61.6466 11.3183 61.6338 12.6333 61.595 13.9454C57.4625 13.9648 53.3296 13.9713 49.1972 13.9648C49.1972 16.7371 49.1972 19.5095 49.1972 22.2818C52.3712 22.2753 55.5449 22.2818 58.719 22.3012C58.7446 22.9461 58.7578 23.5939 58.7578 24.2444C58.7578 24.895 58.7446 25.5428 58.719 26.1877C55.5449 26.2071 52.3712 26.2137 49.1972 26.2071C49.2038 31.0912 49.1972 35.9749 49.1777 40.859C47.8571 40.8715 46.5162 40.8715 45.1553 40.859C45.1553 30.5728 45.1553 20.2868 45.1553 10.0006Z" fill="#7E7E7E"/>
<path fill-rule="evenodd" clip-rule="evenodd" d="M30.853 10.0394C33.9225 10.5273 35.8593 12.2762 36.6632 15.2861C37.1478 18.76 35.8394 21.2862 32.7379 22.8647C32.7249 22.8518 32.712 22.8388 32.699 22.8258C32.1102 23.0976 31.4948 23.2531 30.853 23.2922C30.84 23.2922 30.827 23.2922 30.8141 23.2922C30.8012 23.2922 30.7882 23.2922 30.7752 23.2922C30.1225 23.3171 29.4748 23.343 28.832 23.3699C27.0831 23.3699 25.3342 23.3699 23.5853 23.3699C23.5079 18.945 23.482 14.5144 23.5076 10.0783C25.6215 10.0685 27.7267 10.0555 29.8231 10.0394C30.1599 10.0654 30.4967 10.0912 30.8335 10.1172C30.8516 10.0941 30.8581 10.0681 30.853 10.0394Z" fill="#7E7E7E"/>
<path fill-rule="evenodd" clip-rule="evenodd" d="M23.4298 23.3311C20.9292 23.3344 18.4807 23.3344 16.0845 23.3311C16.0715 23.3311 16.0585 23.3311 16.0456 23.3311C16.0413 23.3071 16.0283 23.2877 16.0067 23.2728C15.677 23.2365 15.3532 23.1717 15.0351 23.0785C14.5735 22.9341 14.1201 22.7722 13.6749 22.5927C12.2221 21.8139 11.1986 20.6609 10.6046 19.1337C10.6012 19.095 10.6142 19.0626 10.6434 19.0366C10.406 18.4641 10.2764 17.8747 10.2548 17.2682C10.2445 17.1458 10.2056 17.0421 10.1382 16.9573C10.1382 16.7889 10.1382 16.6205 10.1382 16.4521C10.1984 16.3821 10.2373 16.2979 10.2548 16.1995C10.2812 15.4595 10.4431 14.7406 10.7406 14.0425C10.9167 13.6902 11.0916 13.3404 11.2653 12.9931C12.1487 11.6696 13.3535 10.7758 14.8797 10.3115C14.9184 10.3081 14.9507 10.3211 14.9768 10.3503C15.3217 10.2174 15.6715 10.1526 16.0262 10.156C16.348 10.1 16.6719 10.0612 16.9978 10.0394C19.0705 10.0394 21.1433 10.0394 23.2161 10.0394C23.2995 10.0633 23.3837 10.0891 23.4687 10.1172C23.4568 14.5228 23.4438 18.9275 23.4298 23.3311Z" fill="#7E7E7E"/>
<path fill-rule="evenodd" clip-rule="evenodd" d="M30.8532 10.0395C30.8583 10.0682 30.8518 10.0941 30.8338 10.1172C30.4969 10.0913 30.1601 10.0654 29.8233 10.0395C27.7269 10.0555 25.6217 10.0685 23.5078 10.0783C23.4822 14.5144 23.5081 18.945 23.5855 23.37C23.5596 23.37 23.5337 23.37 23.5078 23.37C23.4949 23.37 23.4819 23.37 23.4689 23.37C23.4689 23.3441 23.456 23.3311 23.4301 23.3311C23.4441 18.9275 23.457 14.5229 23.4689 10.1172C23.384 10.0892 23.2998 10.0633 23.2163 10.0395C21.1436 10.0395 19.0708 10.0395 16.998 10.0395C16.6722 10.0612 16.3483 10.1001 16.0264 10.1561C15.6717 10.1527 15.3219 10.2175 14.977 10.3504C14.951 10.3212 14.9186 10.3082 14.8799 10.3115C15.3939 10.157 15.9121 10.0598 16.4345 10.02C21.2415 9.98793 26.0478 9.99442 30.8532 10.0395Z" fill="#7E7E7E"/>
<path fill-rule="evenodd" clip-rule="evenodd" d="M68.3961 11.0887C69.8815 11.0564 70.8465 11.743 71.2915 13.1486C71.4757 14.5573 70.925 15.5613 69.6398 16.1606C68.2858 16.5597 67.217 16.1646 66.4335 14.9752C65.8486 13.7314 66.0495 12.6368 67.0359 11.6911C67.4548 11.3772 67.9084 11.1764 68.3961 11.0887Z" fill="#7E7E7E"/>
<path fill-rule="evenodd" clip-rule="evenodd" d="M11.2653 12.9932C11.0916 13.3405 10.9167 13.6902 10.7406 14.0425C10.4431 14.7406 10.2812 15.4596 10.2548 16.1995C10.2373 16.2979 10.1984 16.3821 10.1382 16.4521C10.1873 15.5661 10.3881 14.7111 10.7406 13.887C10.8792 13.5623 11.0541 13.2643 11.2653 12.9932Z" fill="#7E7E7E"/>
<path fill-rule="evenodd" clip-rule="evenodd" d="M10.1382 17.3459C10.1929 17.3643 10.2188 17.4032 10.216 17.4625C10.1558 17.4501 10.1299 17.4112 10.1382 17.3459Z" fill="#7E7E7E"/>
<path fill-rule="evenodd" clip-rule="evenodd" d="M10.1382 16.9573C10.2056 17.0421 10.2445 17.1458 10.2548 17.2682C10.2764 17.8746 10.406 18.4641 10.6434 19.0365C10.6142 19.0626 10.6012 19.095 10.6046 19.1337C10.3846 18.6032 10.255 18.0461 10.2159 17.4625C10.2187 17.4032 10.1928 17.3643 10.1382 17.3459C10.1382 17.2164 10.1382 17.0868 10.1382 16.9573Z" fill="#7E7E7E"/>
<path fill-rule="evenodd" clip-rule="evenodd" d="M85.0688 19.5223C87.4302 19.4494 89.4445 20.2396 91.1122 21.8931C91.1192 21.3137 91.1386 20.7372 91.1705 20.1636C92.5047 20.1442 93.8393 20.1377 95.1736 20.1442C95.1802 26.7251 95.1736 33.3064 95.1541 39.8873C94.7814 43.883 92.8188 46.7784 89.2662 48.5735C86.4197 49.8405 83.557 49.8405 80.6771 48.5735C80.2706 48.3769 79.8819 48.1499 79.5112 47.8934C79.4983 47.8674 79.4851 47.8417 79.4723 47.8157C80.1303 46.668 80.7976 45.5281 81.4738 44.3956C83.3106 45.6369 85.26 45.8767 87.3229 45.1146C89.5149 44.1181 90.778 42.4275 91.1122 40.0428C91.1188 38.9324 91.1383 37.8248 91.1705 36.7199C91.1445 36.6938 91.1188 36.6938 91.0928 36.7199C89.1635 38.5702 86.8573 39.3343 84.1749 39.0129C81.3106 38.5422 79.1536 37.0459 77.704 34.524C76.4984 32.2077 76.1097 29.7981 76.538 27.2952C76.9986 24.9159 78.1451 22.9403 79.9775 21.3684C81.4808 20.2122 83.178 19.5969 85.0688 19.5223ZM85.302 23.4865C87.6199 23.4254 89.3493 24.4229 90.4904 26.4791C91.1627 27.8922 91.3182 29.369 90.9568 30.9096C90.4095 32.8011 89.2242 34.1159 87.4007 34.8544C85.1609 35.4746 83.276 34.8979 81.7459 33.1249C80.3184 31.17 80.0463 29.0585 80.9297 26.79C81.8259 24.9167 83.2834 23.8155 85.302 23.4865Z" fill="#7E7E7E"/>
<path fill-rule="evenodd" clip-rule="evenodd" d="M110.059 19.5223C112.443 19.4768 114.393 20.3707 115.908 22.2039C116.076 22.4686 116.251 22.7277 116.433 22.9812C118.309 20.3365 120.861 19.216 124.089 19.6194C126.748 20.2044 128.555 21.7784 129.511 24.3415C129.748 25.0106 129.917 25.6973 130.016 26.4013C130.08 31.2201 130.093 36.0393 130.055 40.8589C128.735 40.8593 127.407 40.8593 126.071 40.8589C126.078 36.4544 126.071 32.0495 126.052 27.645C125.882 25.4934 124.762 24.1267 122.69 23.5448C120.826 23.2845 119.368 23.9257 118.318 25.4685C117.992 25.9929 117.785 26.563 117.696 27.1786C117.677 31.7386 117.67 36.2989 117.677 40.8589C116.329 40.8589 114.982 40.8589 113.635 40.8589C113.641 36.3506 113.635 31.8423 113.615 27.334C113.291 25.3001 112.132 24.0371 110.137 23.5448C108.283 23.3219 106.838 24.002 105.803 25.5851C105.484 26.1502 105.29 26.7592 105.221 27.4118C105.201 31.894 105.194 36.3766 105.201 40.8589C103.867 40.8589 102.532 40.8589 101.198 40.8589C101.193 33.9628 101.181 27.0771 101.159 20.2024C102.501 20.1444 103.848 20.125 105.201 20.1441C105.194 20.7531 105.201 21.362 105.221 21.9707C106.458 20.4036 108.071 19.5875 110.059 19.5223Z" fill="#7E7E7E"/>
<path fill-rule="evenodd" clip-rule="evenodd" d="M143.832 19.5224C146.664 19.4498 149.087 20.4084 151.1 22.3984C151.132 21.6472 151.145 20.9087 151.139 20.1831C152.473 20.1442 153.807 20.1313 155.142 20.1442C155.142 27.0493 155.142 33.9539 155.142 40.859C153.807 40.8718 152.473 40.859 151.139 40.8201C151.143 40.0821 151.13 39.3437 151.1 38.6049C149.59 40.1109 147.789 41.0374 145.698 41.3837C141.404 41.8528 138.081 40.2788 135.729 36.6616C134.1 33.7406 133.66 30.7091 134.407 27.5673C135.079 24.8823 136.536 22.7383 138.78 21.1353C140.323 20.1543 142.008 19.6166 143.832 19.5224ZM144.065 23.4866C146.382 23.4013 148.254 24.2693 149.681 26.0905C151.281 28.4103 151.553 30.8976 150.497 33.5525C149.425 35.7922 147.67 37.107 145.231 37.4972C142.927 37.6278 141.055 36.7922 139.615 34.9905C138.242 33.0647 137.815 30.94 138.333 28.6167C138.946 26.4138 140.3 24.8398 142.394 23.8946C142.637 23.8112 142.883 23.7335 143.132 23.6615C143.462 23.6212 143.773 23.5629 144.065 23.4866Z" fill="#7E7E7E"/>
<path fill-rule="evenodd" clip-rule="evenodd" d="M66.6865 20.1442C68.034 20.1442 69.381 20.1442 70.7284 20.1442C70.735 27.036 70.7284 33.9282 70.709 40.8201C69.3709 40.8589 68.0301 40.8718 66.6865 40.8589C66.6865 33.9539 66.6865 27.0492 66.6865 20.1442Z" fill="#7E7E7E"/>
<path fill-rule="evenodd" clip-rule="evenodd" d="M13.6748 22.5927C14.12 22.7722 14.5735 22.9341 15.0351 23.0785C15.3531 23.1717 15.677 23.2364 16.0067 23.2728C16.0283 23.2877 16.0412 23.3071 16.0455 23.3311C15.4097 23.253 14.7749 23.0911 14.1412 22.8453C13.9895 22.7501 13.8341 22.6659 13.6748 22.5927Z" fill="#7E7E7E"/>
<path fill-rule="evenodd" clip-rule="evenodd" d="M16.0845 23.3312C18.4807 23.3345 20.9292 23.3345 23.4298 23.3312C23.4558 23.3312 23.4687 23.3441 23.4687 23.37C23.4687 25.2744 23.4687 27.1788 23.4687 29.0831C23.4698 29.6886 23.4698 30.2972 23.4687 30.9098C23.4687 32.8141 23.4687 34.7185 23.4687 36.6228C21.2146 36.6228 18.9604 36.6228 16.7063 36.6228C16.6209 36.645 16.5302 36.645 16.4342 36.6228C16.3315 36.6143 16.2408 36.6143 16.1622 36.6228C15.971 36.6096 15.7832 36.5836 15.5986 36.5451C15.5857 36.5579 15.5727 36.5711 15.5598 36.584C15.4469 36.5404 15.3367 36.5016 15.2294 36.4674C15.1511 36.4122 15.0604 36.3861 14.9574 36.3896C14.0687 36.1506 13.2785 35.7359 12.5866 35.146C12.5607 35.0943 12.5219 35.0554 12.4701 35.0294C12.1462 34.7834 11.8612 34.4981 11.615 34.1744C11.6179 34.1149 11.592 34.076 11.5373 34.0578C11.0053 33.4227 10.6426 32.6971 10.4491 31.8814C10.4376 31.8075 10.4117 31.7426 10.3714 31.687C10.3403 31.6272 10.3273 31.5623 10.3325 31.4927C10.3186 31.3687 10.2927 31.2521 10.2548 31.1429C10.2193 31.0174 10.2063 30.888 10.2159 30.7543C10.2357 30.642 10.2098 30.5514 10.1382 30.4822C10.1382 30.1453 10.1382 29.8087 10.1382 29.4718C10.2074 29.4139 10.2333 29.3361 10.2159 29.2386C10.2981 28.3703 10.5443 27.5542 10.9543 26.7901C11.009 26.7719 11.0349 26.733 11.0321 26.6735C11.045 26.6475 11.058 26.6218 11.0709 26.5958C11.1256 26.5775 11.1515 26.5387 11.1487 26.4792C11.2169 26.3556 11.2946 26.239 11.3818 26.1294C11.4365 26.1112 11.4624 26.0722 11.4596 26.0128C12.6314 24.4624 14.173 23.5685 16.0845 23.3312Z" fill="#7E7E7E"/>
<path fill-rule="evenodd" clip-rule="evenodd" d="M23.4688 23.37C23.4817 23.37 23.4947 23.37 23.5076 23.37C23.4947 25.2291 23.5077 27.0816 23.5465 28.9276C23.5403 28.9917 23.5144 29.0438 23.4688 29.0831C23.4688 27.1787 23.4688 25.2744 23.4688 23.37Z" fill="#7E7E7E"/>
<path fill-rule="evenodd" clip-rule="evenodd" d="M30.7753 23.2922C30.7882 23.344 30.8012 23.344 30.8141 23.2922C30.8271 23.2922 30.8401 23.2922 30.853 23.2922C33.3607 23.7028 35.1679 25.0631 36.2746 27.373C37.1976 29.8168 36.8866 32.0838 35.3419 34.1743C33.7115 36.0351 31.7165 36.8645 29.3567 36.6616C26.8434 36.2559 25.0426 34.9088 23.9546 32.6197C23.8299 32.2587 23.7133 31.8961 23.6048 31.5315C23.5684 31.3912 23.549 31.2486 23.5465 31.104C23.5612 31.0185 23.5353 30.954 23.4688 30.9097C23.4698 30.2972 23.4698 29.6886 23.4688 29.083C23.5144 29.0438 23.5403 28.9917 23.5465 28.9276C23.7898 27.3209 24.5282 25.98 25.7618 24.9051C26.7698 24.0767 27.9098 23.5715 29.1818 23.3894C29.0659 23.37 28.9493 23.3636 28.8321 23.37C29.4748 23.343 30.1225 23.3171 30.7753 23.2922Z" fill="#7E7E7E"/>
<path fill-rule="evenodd" clip-rule="evenodd" d="M11.4598 26.0128C11.4626 26.0722 11.4367 26.1111 11.382 26.1294C11.3792 26.0701 11.4051 26.0312 11.4598 26.0128Z" fill="#7E7E7E"/>
<path fill-rule="evenodd" clip-rule="evenodd" d="M11.1487 26.4791C11.1516 26.5386 11.1257 26.5775 11.071 26.5957C11.0682 26.5363 11.0941 26.4974 11.1487 26.4791Z" fill="#7E7E7E"/>
<path fill-rule="evenodd" clip-rule="evenodd" d="M11.032 26.6735C11.0349 26.7329 11.009 26.7718 10.9543 26.7901C10.9515 26.7306 10.9774 26.6917 11.032 26.6735Z" fill="#7E7E7E"/>
<path fill-rule="evenodd" clip-rule="evenodd" d="M10.2158 29.2385C10.2332 29.3361 10.2072 29.4138 10.1381 29.4717C10.1196 29.3714 10.1455 29.2937 10.2158 29.2385Z" fill="#7E7E7E"/>
<path fill-rule="evenodd" clip-rule="evenodd" d="M10.1381 30.4822C10.2097 30.5514 10.2356 30.6419 10.2158 30.7542C10.1918 30.75 10.1724 30.7371 10.1575 30.7154C10.1382 30.6388 10.1318 30.5611 10.1381 30.4822Z" fill="#7E7E7E"/>
<path fill-rule="evenodd" clip-rule="evenodd" d="M10.255 31.1429C10.2928 31.2522 10.3188 31.3687 10.3327 31.4927C10.2641 31.3909 10.2382 31.2743 10.255 31.1429Z" fill="#7E7E7E"/>
<path fill-rule="evenodd" clip-rule="evenodd" d="M10.3717 31.687C10.412 31.7426 10.4379 31.8075 10.4494 31.8813C10.3828 31.837 10.3569 31.7725 10.3717 31.687Z" fill="#7E7E7E"/>
<path fill-rule="evenodd" clip-rule="evenodd" d="M11.5373 34.0577C11.592 34.076 11.6179 34.1149 11.615 34.1743C11.5604 34.1561 11.5345 34.1172 11.5373 34.0577Z" fill="#7E7E7E"/>
<path fill-rule="evenodd" clip-rule="evenodd" d="M12.4702 35.0293C12.522 35.0553 12.5609 35.0942 12.5868 35.1459C12.5091 35.1459 12.4702 35.107 12.4702 35.0293Z" fill="#7E7E7E"/>
<path fill-rule="evenodd" clip-rule="evenodd" d="M14.9575 36.3896C15.0606 36.3861 15.1513 36.4121 15.2296 36.4673C15.1265 36.4708 15.0358 36.4448 14.9575 36.3896Z" fill="#7E7E7E"/>
<path fill-rule="evenodd" clip-rule="evenodd" d="M16.4342 36.6227C16.3523 36.6604 16.2616 36.6733 16.1621 36.6616C16.1621 36.6488 16.1621 36.6356 16.1621 36.6227C16.2407 36.6142 16.3314 36.6142 16.4342 36.6227Z" fill="#7E7E7E"/>
<path fill-rule="evenodd" clip-rule="evenodd" d="M16.4342 36.6228C16.5302 36.645 16.6209 36.645 16.7063 36.6228C18.9502 36.6488 21.1978 36.6749 23.4493 36.7005C23.4687 39.0196 23.4752 41.3382 23.4687 43.6573C23.4832 43.9216 23.4573 44.1808 23.391 44.4346C23.333 44.5807 23.2941 44.7362 23.2744 44.9009C22.7373 46.9608 21.5066 48.457 19.5823 49.3898C19.3939 49.471 19.1996 49.5293 18.9993 49.5647C18.8731 49.5861 18.7565 49.6249 18.6495 49.6813C18.509 49.6968 18.3794 49.7357 18.2609 49.7979C18.1813 49.8472 18.1035 49.86 18.0277 49.8367C17.9232 49.8305 17.8196 49.8367 17.7168 49.8562C17.6952 49.8709 17.6822 49.8904 17.6779 49.9145C17.5872 49.9145 17.4965 49.9145 17.4058 49.9145C17.2998 49.9016 17.2091 49.9277 17.1338 49.9922C16.9783 49.9922 16.8229 49.9922 16.6674 49.9922C16.6631 49.9681 16.6502 49.9487 16.6286 49.9339C16.4996 49.9145 16.3701 49.9079 16.2399 49.9145C16.227 49.9145 16.214 49.9145 16.201 49.9145C15.9496 49.8589 15.6905 49.82 15.4238 49.7979C15.4108 49.7979 15.3978 49.7979 15.3849 49.7979C15.2664 49.7357 15.1368 49.6968 14.9962 49.6813C14.9266 49.6863 14.8619 49.6735 14.8019 49.6424C14.7522 49.5868 14.6874 49.5608 14.6076 49.5647C14.438 49.5484 14.2826 49.4967 14.1412 49.4092C14.1105 49.3742 14.0717 49.3482 14.0246 49.3315C13.5089 49.1267 13.0425 48.8414 12.6255 48.4765C12.5707 48.3828 12.4929 48.3179 12.3923 48.2821C11.7544 47.7369 11.2621 47.1022 10.9155 46.3778C10.8965 46.3195 10.8706 46.2678 10.8377 46.2223C10.6496 45.9126 10.5201 45.5756 10.4491 45.2119C10.4451 45.0898 10.4062 44.9864 10.3325 44.9009C10.3325 44.8621 10.3325 44.8232 10.3325 44.7843C10.3076 44.5698 10.2687 44.3623 10.2159 44.1625C10.2159 44.1236 10.2159 44.0848 10.2159 44.0459C10.2327 43.9146 10.2068 43.798 10.1382 43.6961C10.1382 43.3592 10.1382 43.0226 10.1382 42.6857C10.2048 42.6414 10.2307 42.5768 10.2159 42.4913C10.2039 42.3666 10.2168 42.25 10.2548 42.1416C10.2968 42.0199 10.3227 41.8905 10.3325 41.7529C10.3947 41.6344 10.4336 41.505 10.4491 41.3643C10.4491 41.3514 10.4491 41.3382 10.4491 41.3254C10.5112 41.2341 10.55 41.1307 10.5657 41.0145C10.9264 39.9173 11.5482 38.9974 12.4312 38.2551C12.5186 38.2326 12.5833 38.1809 12.6255 38.0997C13.0344 37.746 13.4878 37.4611 13.9858 37.2446C14.089 37.2279 14.1797 37.1891 14.2578 37.128C14.3803 37.0589 14.5099 37.0006 14.6465 36.9532C14.7482 36.9213 14.8518 36.9018 14.9574 36.8949C15.0979 36.8793 15.2275 36.8404 15.346 36.7783C15.359 36.7783 15.3719 36.7783 15.3849 36.7783C15.6251 36.7518 15.8583 36.713 16.0845 36.6617C16.1104 36.6617 16.1363 36.6617 16.1622 36.6617C16.2616 36.6733 16.3523 36.6605 16.4342 36.6228Z" fill="#7E7E7E"/>
<path fill-rule="evenodd" clip-rule="evenodd" d="M23.4685 30.9097C23.5351 30.954 23.561 31.0185 23.5462 31.104C23.5203 35.2885 23.4944 39.4727 23.4685 43.6572C23.475 41.3382 23.4685 39.0195 23.449 36.7005C21.1976 36.6748 18.9499 36.6488 16.7061 36.6227C18.9602 36.6227 21.2143 36.6227 23.4685 36.6227C23.4685 34.7184 23.4685 32.814 23.4685 30.9097Z" fill="#7E7E7E"/>
<path fill-rule="evenodd" clip-rule="evenodd" d="M16.0843 36.6616C15.8581 36.7129 15.6249 36.7518 15.3848 36.7782C15.401 36.7502 15.4269 36.7308 15.4625 36.7199C15.6682 36.6818 15.8755 36.6624 16.0843 36.6616Z" fill="#7E7E7E"/>
<path fill-rule="evenodd" clip-rule="evenodd" d="M15.3462 36.7782C15.2276 36.8404 15.0981 36.8792 14.9575 36.8948C15.0722 36.8206 15.2018 36.7817 15.3462 36.7782Z" fill="#7E7E7E"/>
<path fill-rule="evenodd" clip-rule="evenodd" d="M14.2579 37.1279C14.1798 37.1889 14.0891 37.2278 13.9858 37.2445C14.0566 37.1687 14.1473 37.1299 14.2579 37.1279Z" fill="#7E7E7E"/>
<path fill-rule="evenodd" clip-rule="evenodd" d="M12.6255 38.0996C12.5833 38.1808 12.5186 38.2325 12.4312 38.2551C12.4733 38.1738 12.5381 38.1222 12.6255 38.0996Z" fill="#7E7E7E"/>
<path fill-rule="evenodd" clip-rule="evenodd" d="M10.5658 41.0145C10.5502 41.1307 10.5113 41.2341 10.4492 41.3254C10.4532 41.2034 10.4921 41.1 10.5658 41.0145Z" fill="#7E7E7E"/>
<path fill-rule="evenodd" clip-rule="evenodd" d="M10.4491 41.3643C10.4336 41.5049 10.3947 41.6344 10.3325 41.7529C10.336 41.6087 10.3749 41.4789 10.4491 41.3643Z" fill="#7E7E7E"/>
<path fill-rule="evenodd" clip-rule="evenodd" d="M10.3325 41.7529C10.3227 41.8905 10.2968 42.0199 10.2548 42.1416C10.2484 42.037 10.2549 41.9336 10.2742 41.8307C10.2851 41.7949 10.3045 41.7693 10.3325 41.7529Z" fill="#7E7E7E"/>
<path fill-rule="evenodd" clip-rule="evenodd" d="M10.2155 42.4913C10.2303 42.5768 10.2044 42.6413 10.1378 42.6857C10.123 42.6002 10.149 42.5356 10.2155 42.4913Z" fill="#7E7E7E"/>
<path fill-rule="evenodd" clip-rule="evenodd" d="M10.1382 43.6962C10.2068 43.798 10.2327 43.9146 10.2159 44.0459C10.1426 43.9492 10.1166 43.8326 10.1382 43.6962Z" fill="#7E7E7E"/>
<path fill-rule="evenodd" clip-rule="evenodd" d="M10.2158 44.1625C10.2686 44.3622 10.3075 44.5698 10.3324 44.7843C10.3044 44.768 10.2849 44.7423 10.2741 44.7066C10.2419 44.5262 10.2225 44.3451 10.2158 44.1625Z" fill="#7E7E7E"/>
<path fill-rule="evenodd" clip-rule="evenodd" d="M23.391 44.4346C23.3909 44.6044 23.3521 44.7599 23.2744 44.9009C23.2942 44.7362 23.333 44.5807 23.391 44.4346Z" fill="#7E7E7E"/>
<path fill-rule="evenodd" clip-rule="evenodd" d="M10.3325 44.9009C10.4062 44.9864 10.4451 45.0898 10.4491 45.2118C10.387 45.1205 10.3482 45.0171 10.3325 44.9009Z" fill="#7E7E7E"/>
<path fill-rule="evenodd" clip-rule="evenodd" d="M10.8379 46.2223C10.8707 46.2678 10.8966 46.3195 10.9156 46.3777C10.8504 46.3513 10.8245 46.2992 10.8379 46.2223Z" fill="#7E7E7E"/>
<path fill-rule="evenodd" clip-rule="evenodd" d="M12.3921 48.2821C12.4927 48.3179 12.5704 48.3828 12.6253 48.4764C12.5247 48.4407 12.4469 48.3758 12.3921 48.2821Z" fill="#7E7E7E"/>
<path fill-rule="evenodd" clip-rule="evenodd" d="M14.0244 49.3314C14.0714 49.3481 14.1103 49.3742 14.141 49.4091C14.0758 49.4173 14.0369 49.3917 14.0244 49.3314Z" fill="#7E7E7E"/>
<path fill-rule="evenodd" clip-rule="evenodd" d="M14.6074 49.5646C14.6872 49.5607 14.752 49.5867 14.8017 49.6423C14.7163 49.6571 14.6515 49.631 14.6074 49.5646Z" fill="#7E7E7E"/>
<path fill-rule="evenodd" clip-rule="evenodd" d="M18.9992 49.5647C18.9017 49.6444 18.7851 49.6832 18.6494 49.6813C18.7564 49.6249 18.873 49.5861 18.9992 49.5647Z" fill="#7E7E7E"/>
<path fill-rule="evenodd" clip-rule="evenodd" d="M14.9961 49.6813C15.1366 49.6968 15.2662 49.7357 15.3847 49.7979C15.2404 49.7944 15.1108 49.7555 14.9961 49.6813Z" fill="#7E7E7E"/>
<path fill-rule="evenodd" clip-rule="evenodd" d="M18.6494 49.6813C18.5347 49.7555 18.4051 49.7944 18.2607 49.7979C18.3793 49.7357 18.5089 49.6968 18.6494 49.6813Z" fill="#7E7E7E"/>
<path fill-rule="evenodd" clip-rule="evenodd" d="M18.028 49.8367C17.9202 49.8818 17.8036 49.9074 17.6782 49.9144C17.6825 49.8903 17.6955 49.8709 17.7171 49.8561C17.8199 49.8367 17.9236 49.8305 18.028 49.8367Z" fill="#7E7E7E"/>
<path fill-rule="evenodd" clip-rule="evenodd" d="M15.4238 49.7979C15.6906 49.82 15.9497 49.8589 16.2011 49.9144C15.9291 49.9257 15.67 49.8869 15.4238 49.7979Z" fill="#7E7E7E"/>
<path fill-rule="evenodd" clip-rule="evenodd" d="M16.2397 49.9145C16.3699 49.9079 16.4995 49.9145 16.6284 49.9339C16.65 49.9487 16.6629 49.9681 16.6673 49.9922C16.506 50.0147 16.3635 49.9887 16.2397 49.9145Z" fill="#7E7E7E"/>
<path fill-rule="evenodd" clip-rule="evenodd" d="M17.4058 49.9144C17.4015 49.9385 17.3886 49.958 17.367 49.9727C17.2903 49.9922 17.2126 49.9984 17.1338 49.9922C17.2091 49.9276 17.2998 49.9016 17.4058 49.9144Z" fill="#7E7E7E"/>
</svg>
