<svg xmlns="http://www.w3.org/2000/svg" width="166" height="60" fill="none" viewBox="0 0 166 60"><path fill="#7e7e7e" fill-rule="evenodd" d="M45.155 10h16.479q.02 1.977-.039 3.945-6.198.03-12.398.02v8.317q4.761-.01 9.522.02a49 49 0 0 1 0 3.886q-4.761.03-9.522.02.01 7.325-.02 14.651-1.98.018-4.022 0zM30.853 10.04q4.604.73 5.81 5.246.727 5.21-3.925 7.579l-.039-.04a5.1 5.1 0 0 1-1.846.467h-.078q-.978.038-1.943.078h-5.247a571 571 0 0 1-.077-13.292q3.171-.014 6.315-.039l1.01.078a.1.1 0 0 0 .02-.078M23.43 23.331q-3.751.004-7.346 0h-.038a.1.1 0 0 0-.04-.058 5.7 5.7 0 0 1-.97-.195 18 18 0 0 1-1.361-.485q-2.18-1.169-3.07-3.46a.11.11 0 0 1 .038-.096 5 5 0 0 1-.388-1.769.56.56 0 0 0-.117-.31v-.506q.09-.105.117-.253.039-1.11.486-2.157l.524-1.049q1.326-1.985 3.615-2.681a.11.11 0 0 1 .097.038 2.8 2.8 0 0 1 1.05-.194q.482-.084.97-.117h6.22q.124.036.252.078-.018 6.608-.04 13.214" clip-rule="evenodd"/><path fill="#7e7e7e" fill-rule="evenodd" d="M30.853 10.04a.1.1 0 0 1-.02.077l-1.01-.078q-3.144.025-6.315.04-.039 6.653.078 13.291h-.118q0-.039-.038-.039.021-6.605.039-13.214a7 7 0 0 0-.253-.078h-6.218q-.489.033-.972.117a2.8 2.8 0 0 0-1.049.194.11.11 0 0 0-.097-.038 7.3 7.3 0 0 1 1.554-.292q7.21-.049 14.42.02M68.396 11.089q2.228-.05 2.895 2.06.277 2.112-1.651 3.012-2.031.599-3.207-1.186-.877-1.865.603-3.284a3.2 3.2 0 0 1 1.36-.602M11.265 12.993l-.524 1.05a6 6 0 0 0-.486 2.157.5.5 0 0 1-.117.252q.074-1.328.603-2.565.207-.487.524-.894M10.138 17.346q.082.027.078.116-.09-.017-.078-.116" clip-rule="evenodd"/><path fill="#7e7e7e" fill-rule="evenodd" d="M10.138 16.957a.56.56 0 0 1 .117.311q.032.91.388 1.768a.11.11 0 0 0-.038.098 5.3 5.3 0 0 1-.39-1.672q.006-.089-.077-.116zM85.069 19.522q3.542-.109 6.043 2.371.01-.87.059-1.73 2-.028 4.003-.019.01 9.872-.02 19.743-.559 5.993-5.888 8.687-4.269 1.9-8.589 0a9 9 0 0 1-1.166-.68l-.039-.078a224 224 0 0 1 2.002-3.42q2.755 1.86 5.849.719 3.288-1.495 3.79-5.072.009-1.665.058-3.323-.04-.039-.078 0-2.895 2.775-6.918 2.293-4.296-.706-6.471-4.489-1.809-3.474-1.166-7.229.69-3.57 3.44-5.927a8.73 8.73 0 0 1 5.09-1.846m.233 3.965q3.477-.093 5.188 2.992 1.009 2.12.467 4.43-.821 2.838-3.556 3.945-3.36.93-5.655-1.73-2.142-2.931-.816-6.334 1.344-2.81 4.372-3.303M110.059 19.522q3.576-.068 5.849 2.682.252.397.525.777 2.814-3.967 7.656-3.362 3.988.878 5.422 4.723.356 1.003.505 2.06.096 7.227.039 14.457h-3.984q.01-6.608-.019-13.214-.255-3.227-3.362-4.1-2.797-.39-4.372 1.923a4.4 4.4 0 0 0-.622 1.71q-.029 6.84-.019 13.68h-4.042q.01-6.761-.02-13.524-.486-3.05-3.478-3.79-2.781-.333-4.334 2.041a4.7 4.7 0 0 0-.582 1.827q-.03 6.724-.02 13.447h-4.003q-.007-10.344-.039-20.657a71 71 0 0 1 4.042-.058q-.01.914.02 1.827 1.856-2.351 4.838-2.449M143.832 19.522q4.248-.109 7.268 2.876.048-1.126.039-2.215 2-.058 4.003-.039V40.86q-2.002.02-4.003-.039a48 48 0 0 0-.039-2.215q-2.265 2.259-5.402 2.779-6.441.703-9.969-4.722-2.443-4.382-1.322-9.095 1.007-4.027 4.373-6.432a10.25 10.25 0 0 1 5.052-1.613m.233 3.965q3.476-.129 5.616 2.604 2.4 3.48.816 7.462-1.608 3.36-5.266 3.944-3.456.196-5.616-2.507-2.06-2.888-1.282-6.373.92-3.304 4.061-4.722.364-.126.738-.233.495-.061.933-.175M66.687 20.144h4.041q.01 10.338-.019 20.676a104 104 0 0 1-4.023.039zM13.675 22.593q.667.27 1.36.485.477.14.972.195a.1.1 0 0 1 .038.058 8 8 0 0 1-1.904-.486 4 4 0 0 0-.466-.252M16.084 23.331q3.595.005 7.346 0 .039 0 .039.039v13.253h-6.763a.56.56 0 0 1-.272 0 1.5 1.5 0 0 0-.272 0 4 4 0 0 1-.563-.078l-.04.039a6 6 0 0 0-.33-.117.43.43 0 0 0-.272-.077 6 6 0 0 1-2.37-1.244.26.26 0 0 0-.117-.117 4.5 4.5 0 0 1-.855-.855q.005-.09-.078-.116a5.2 5.2 0 0 1-1.088-2.177.44.44 0 0 0-.078-.194.36.36 0 0 1-.039-.194 1.6 1.6 0 0 0-.077-.35 1.1 1.1 0 0 1-.04-.389q.03-.168-.077-.272v-1.01q.104-.087.078-.233a6.4 6.4 0 0 1 .738-2.449q.082-.027.078-.116l.039-.078q.082-.027.078-.117.102-.185.233-.35.082-.027.078-.116 1.757-2.326 4.624-2.682M23.469 23.37h.039q-.02 2.79.039 5.558a.23.23 0 0 1-.078.155z" clip-rule="evenodd"/><path fill="#7e7e7e" fill-rule="evenodd" d="M30.775 23.292q.02.078.04 0h.038q3.762.616 5.422 4.081 1.385 3.665-.933 6.801-2.445 2.791-5.985 2.488-3.77-.609-5.402-4.042a26 26 0 0 1-.35-1.088 1.8 1.8 0 0 1-.058-.428q.021-.128-.078-.194v-1.827a.23.23 0 0 0 .078-.155q.364-2.41 2.215-4.023a6.8 6.8 0 0 1 3.42-1.516q-.174-.028-.35-.019.964-.04 1.943-.078M11.46 26.013q.005.09-.078.116-.005-.089.078-.116M11.149 26.48q.005.089-.078.116-.005-.09.078-.117M11.032 26.674q.005.089-.078.116-.005-.09.078-.116M10.216 29.239q.025.146-.078.233-.027-.15.078-.234M10.138 30.482q.108.105.078.272a.09.09 0 0 1-.058-.039.7.7 0 0 1-.02-.233M10.255 31.143q.057.165.078.35a.5.5 0 0 1-.078-.35M10.372 31.687q.06.084.077.194-.1-.066-.077-.194M11.537 34.058q.082.027.078.116-.082-.027-.078-.116M12.47 35.03q.077.038.117.116-.117 0-.117-.117M14.958 36.39a.43.43 0 0 1 .272.077.43.43 0 0 1-.273-.077M16.434 36.623a.5.5 0 0 1-.272.039v-.04q.119-.012.272 0" clip-rule="evenodd"/><path fill="#7e7e7e" fill-rule="evenodd" d="M16.434 36.623a.56.56 0 0 0 .272 0l6.743.078q.03 3.478.02 6.956.021.397-.078.778a1.9 1.9 0 0 0-.117.466q-.805 3.09-3.692 4.489a2.6 2.6 0 0 1-.583.175q-.189.032-.35.116-.21.024-.388.117a.28.28 0 0 1-.233.039 1.3 1.3 0 0 0-.311.02.09.09 0 0 0-.04.057h-.271a.34.34 0 0 0-.272.078h-.467a.09.09 0 0 0-.038-.058 2 2 0 0 0-.39-.02h-.038a6 6 0 0 0-.777-.116h-.04a1.1 1.1 0 0 0-.388-.117.36.36 0 0 1-.194-.039.23.23 0 0 0-.194-.077 1.1 1.1 0 0 1-.467-.156.3.3 0 0 0-.116-.078 4.8 4.8 0 0 1-1.4-.855.43.43 0 0 0-.233-.194 5.8 5.8 0 0 1-1.476-1.904.6.6 0 0 0-.078-.156 3 3 0 0 1-.389-1.01.5.5 0 0 0-.117-.311v-.117a4.4 4.4 0 0 0-.116-.621v-.117a.5.5 0 0 0-.078-.35v-1.01q.1-.067.078-.195a.8.8 0 0 1 .039-.35q.063-.181.077-.388.095-.178.117-.389v-.039a.7.7 0 0 0 .117-.31 5.98 5.98 0 0 1 1.865-2.76.3.3 0 0 0 .195-.155 5.3 5.3 0 0 1 1.36-.855.6.6 0 0 0 .272-.117q.183-.104.389-.175.152-.048.31-.058.21-.024.389-.117h.039a6 6 0 0 0 .7-.116h.077a.5.5 0 0 0 .272-.04" clip-rule="evenodd"/><path fill="#7e7e7e" fill-rule="evenodd" d="M23.469 30.91q.1.066.077.194l-.078 12.553q.01-3.478-.019-6.956l-6.743-.078h6.762zM16.084 36.662q-.34.076-.7.116a.13.13 0 0 1 .079-.058 3.5 3.5 0 0 1 .621-.058M15.346 36.778a1.1 1.1 0 0 1-.389.117.73.73 0 0 1 .39-.117M14.258 37.128a.6.6 0 0 1-.272.117.37.37 0 0 1 .272-.117M12.626 38.1a.3.3 0 0 1-.195.155.3.3 0 0 1 .195-.155M10.566 41.015a.7.7 0 0 1-.117.31.5.5 0 0 1 .117-.31M10.45 41.364q-.024.21-.117.389a.73.73 0 0 1 .116-.389M10.333 41.753q-.015.207-.078.389a1.3 1.3 0 0 1 .02-.311.13.13 0 0 1 .057-.078M10.216 42.491q.021.128-.078.195-.023-.128.078-.195M10.138 43.696a.5.5 0 0 1 .078.35.44.44 0 0 1-.078-.35M10.216 44.163q.079.3.116.621a.13.13 0 0 1-.058-.077 4 4 0 0 1-.058-.544M23.391 44.435q0 .255-.117.466.03-.247.117-.466M10.333 44.9a.5.5 0 0 1 .116.312.7.7 0 0 1-.117-.311M10.838 46.222a.6.6 0 0 1 .078.156q-.098-.04-.078-.156M12.392 48.282q.15.053.233.194a.43.43 0 0 1-.233-.194M14.024 49.331a.3.3 0 0 1 .117.078q-.097.013-.117-.078M14.607 49.565a.23.23 0 0 1 .195.077q-.128.022-.195-.077M19 49.565a.52.52 0 0 1-.35.116q.16-.084.35-.116M14.996 49.681q.21.024.389.117a.73.73 0 0 1-.389-.117M18.65 49.681a.73.73 0 0 1-.39.117q.18-.093.39-.117M18.028 49.837q-.162.067-.35.077a.09.09 0 0 1 .04-.058q.154-.03.31-.02M15.424 49.798q.4.032.777.116a2 2 0 0 1-.777-.116M16.24 49.915q.195-.01.388.019a.1.1 0 0 1 .04.058.64.64 0 0 1-.428-.078M17.406 49.914a.09.09 0 0 1-.039.059.7.7 0 0 1-.233.02.34.34 0 0 1 .272-.079" clip-rule="evenodd"/></svg>