<svg xmlns="http://www.w3.org/2000/svg" width="139" height="62" fill="none" viewBox="0 0 139 62"><path fill="#7e7e7e" d="M82.549 39.079h-.04c.02 0 .02.02.04.02h.02zm0 .02c-.158 0-.572.079-1.006.079-1.36 0-1.834-.631-1.834-1.46v-5.482h2.78c.159 0 .277-.138.277-.335v-2.978c0-.157-.138-.295-.276-.295h-2.78V24.92c0-.138-.1-.217-.257-.217h-3.786c-.158 0-.237.099-.237.217v3.806s-1.913.473-2.03.493a.296.296 0 0 0-.218.296V31.9c0 .197.138.335.296.335h1.933v5.758c0 4.28 2.977 4.713 5.008 4.713.927 0 2.051-.295 2.229-.394.098-.04.157-.158.157-.276v-2.623c0-.158-.098-.276-.256-.315m41.53-3.846c0-3.175-1.282-3.589-2.623-3.45-1.045.058-1.893.591-1.893.591v6.172s.848.592 2.13.631c1.794.04 2.386-.611 2.386-3.944m4.259-.276c0 6.015-1.952 7.73-5.344 7.73-2.879 0-4.417-1.459-4.417-1.459s-.059.809-.158.907c-.059.099-.138.138-.256.138h-2.583c-.178 0-.336-.138-.336-.295l.04-19.464c0-.158.138-.296.296-.296h3.727c.157 0 .296.138.296.296v6.606s1.439-.927 3.549-.927l-.02-.04c2.091 0 5.206.79 5.206 6.804m-15.282-6.33h-3.688c-.197 0-.296.138-.296.335v9.525s-.966.67-2.287.67c-1.302 0-1.696-.591-1.696-1.912v-8.322a.303.303 0 0 0-.296-.296h-3.747a.303.303 0 0 0-.296.296v8.973c0 3.845 2.15 4.811 5.108 4.811 2.445 0 4.417-1.34 4.417-1.34s.099.69.138.788c.04.079.158.158.276.158h2.347c.197 0 .296-.138.296-.296l.039-13.094c.02-.158-.138-.296-.315-.296m-41.53-.02h-3.727c-.158 0-.296.158-.296.355V41.84c0 .355.237.473.532.473h3.372c.355 0 .434-.158.434-.473V28.923c-.02-.157-.158-.295-.315-.295m-1.854-5.935a2.41 2.41 0 0 0-2.425 2.425 2.41 2.41 0 0 0 2.425 2.426c1.321 0 2.386-1.065 2.386-2.426 0-1.34-1.065-2.425-2.386-2.425m28.91-.434h-3.708a.303.303 0 0 0-.296.296v7.158h-5.797v-7.158a.303.303 0 0 0-.296-.296h-3.727a.303.303 0 0 0-.296.296v19.463c0 .158.158.296.296.296h3.727a.303.303 0 0 0 .296-.296v-8.321h5.797l-.04 8.321c0 .158.139.296.297.296h3.727a.303.303 0 0 0 .295-.296V22.554c.02-.158-.118-.296-.276-.296m-33.07 8.618v10.057c0 .059-.02.197-.1.217 0 0-2.188 1.557-5.797 1.557-4.358 0-9.544-1.36-9.544-10.372s4.515-10.866 8.933-10.846c3.825 0 5.363.868 5.6 1.025.06.099.099.158.099.237l-.71 3.135c0 .158-.158.355-.355.296-.631-.197-1.578-.572-3.806-.572-2.583 0-5.344.73-5.344 6.547 0 5.798 2.623 6.488 4.516 6.488 1.617 0 2.189-.197 2.189-.197v-4.023h-2.584c-.197 0-.335-.138-.335-.296v-3.234c0-.157.138-.296.335-.296h6.567c.197-.02.335.119.335.276"/><path fill="#7e7e7e" fill-rule="evenodd" d="M25.027 16.5C16.723 16.5 10 23.224 10 31.526c0 6.646 4.299 12.266 10.274 14.258.75.118 1.045-.316 1.045-.71 0-.355-.02-1.538-.02-2.8-3.766.69-4.752-.927-5.048-1.755-.177-.434-.907-1.775-1.538-2.13-.532-.276-1.282-.986-.02-1.006 1.184-.02 2.031 1.085 2.307 1.538 1.361 2.268 3.51 1.637 4.378 1.243.138-.967.533-1.637.967-2.012-3.333-.374-6.843-1.676-6.843-7.414 0-1.637.591-2.998 1.538-4.043-.158-.375-.67-1.913.158-3.983 0 0 1.262-.395 4.14 1.538a13.966 13.966 0 0 1 7.494 0c2.88-1.952 4.122-1.538 4.122-1.538.828 2.07.296 3.608.158 3.983.966 1.045 1.538 2.386 1.538 4.043 0 5.758-3.51 7.04-6.863 7.414.552.474 1.026 1.361 1.026 2.78 0 2.012-.02 3.63-.02 4.122 0 .395.276.868 1.025.71a15.065 15.065 0 0 0 10.235-14.257c0-8.283-6.724-15.007-15.026-15.007" clip-rule="evenodd"/></svg>