<svg xmlns="http://www.w3.org/2000/svg" width="168" height="60" fill="none" viewBox="0 0 168 60"><path fill="#7e7e7e" d="M44.925 43.193H12.81a2.645 2.645 0 0 1-2.652-2.635V22.442a2.645 2.645 0 0 1 2.652-2.635h32.114a2.645 2.645 0 0 1 2.652 2.635v18.116a2.645 2.645 0 0 1-2.652 2.635m-7.246-16.099c-2.482 0-4.495 2-4.495 4.466s2.014 4.466 4.495 4.466 4.495-2 4.495-4.466c0-2.465-2.014-4.466-4.495-4.466m-17.188 0c-2.48 0-4.494 2-4.494 4.466s2.013 4.466 4.494 4.466c2.482 0 4.495-2 4.495-4.466 0-2.465-2.013-4.466-4.495-4.466"/><path fill="#7e7e7e" fill-rule="evenodd" d="M108.451 25.946h-3.268l-.046 3.781a5 5 0 0 0-.269-.36l-.006-.007-.008-.01-.008-.008-.053-.055c-.736-.653-1.515-.974-2.511-.98l-.177.002c-.427.003-.84.008-1.256.113l-.083.025-.064.02a7 7 0 0 0-.491.163c-.694.3-1.446.796-1.762 1.51l-.035.101h-.093c-.447 1.016-.594 1.941-.567 3.044.05 1.08.456 2.107 1.241 2.852l.018.017.019.017.001.002.037.035a1.5 1.5 0 0 0 .412.304l.032.01.067.022v.093c1.233.557 2.61.87 3.943.421.664-.267 1.37-.656 1.67-1.346l.036-.102h.093c0 .054 0 .097.002.14.005.183.034.365.185 1.305v.002h2.941zm-3.696 5.493c.38.419.498.928.483 1.485-.028.4-.112.715-.335 1.052l-.084.128c-.399.41-.975.528-1.529.541-.645.008-1.21-.066-1.701-.529-.33-.33-.417-.797-.429-1.246.008-.589.143-1.13.569-1.555.821-.645 2.26-.576 3.026.124" clip-rule="evenodd"/><path fill="#7e7e7e" d="M66.966 26.215h.102c.51.003 1.012.013 1.514.105l.12.021c1.104.206 2.098.587 2.915 1.38l.03.026.058.051c.583.531.983 1.479 1.079 2.256v.374h-3.735l-.047-.158v-.002L69 30.266l-.01-.03-.04-.133-.025-.085-.017-.057h-.093q-.03-.052-.062-.105c-.204-.334-.584-.482-.948-.584-.783-.164-1.754-.142-2.447.298l-.091.064-.095.063-.002.002c-.437.33-.626.867-.71 1.391a5.9 5.9 0 0 0 .2 2.466h.093l.047.12c.235.403.631.612 1.067.747.315.082.628.079.951.076h.209c.728-.005 1.384-.069 1.928-.607.178-.196.273-.367.373-.616l-2.848-.047-.002-.954-.002-.302v-.359q0-.15.004-.3c.064-.062.141-.058.225-.054l.065.002h5.91c.061.004.086.005.106.016a.2.2 0 0 1 .044.037q.006.111.006.223v.479l-.001.231v1.023l-.001.35v.255l-.002.755v.387l-.002 2.039h-2.942v-.001c-.073-.59-.096-.774-.112-.959l-.01-.134-.005-.071-.008-.126-.007-.087-.008-.124-.01-.15-.009-.122-.005-.072-.006-.087-.008-.114-.022-.33-.023-.33-.027.131-.002.012-.022.106-.012.058-.024.112v.006l-.012.054c-.19.807-.626 1.477-1.319 1.939-1.193.712-2.772.736-4.094.405q-1.718-.47-2.611-1.983l-.06-.1c-.827-1.426-.778-3.56-.379-5.114.311-1.119 1.03-2.156 2.026-2.77h.094v-.093c.569-.294 1.112-.529 1.736-.683l.023-.006.026-.006.033-.008.034-.009c.63-.148 1.256-.192 1.9-.186"/><path fill="#7e7e7e" fill-rule="evenodd" d="M141.643 28.315h.018l.088-.001.088-.002c.405-.003.771.045 1.161.155l.111.03c1.01.285 1.782.972 2.289 1.875.231.462.355.95.448 1.456l.024.13c.184 1.241-.01 2.554-.76 3.577q-.12.156-.244.308l-.103.14c-.161.192-.373.339-.579.483h-.002l-.068.048-.042.03-.1.07c-.968.643-2.262.74-3.383.569a3.2 3.2 0 0 1-.672-.22l-.138-.06c-.575-.265-.897-.584-1.263-1.106l-.046 4.248h-3.315V28.514h2.895c.157 1.064.182 1.23.186 1.396v.098h.094a1 1 0 0 1 .034-.103c.092-.204.246-.36.401-.518l.078-.08.095-.1c.689-.671 1.683-.888 2.612-.891zm.842 4.027c-.097-.463-.276-.8-.654-1.08-.831-.515-2.219-.524-2.944.185-.358.402-.465.927-.469 1.456.021.487.114.91.472 1.26.611.51 1.34.52 2.101.466.491-.087.869-.256 1.19-.644.326-.466.372-1.092.304-1.643M79.26 28.266q.176 0 .351-.003c1.37-.005 2.7.35 3.77 1.231l.102.078c.772.624 1.243 1.658 1.346 2.63.061 1.387-.127 2.57-1.074 3.641l-.024.028-.032.038-.02.023c-.44.484-1.048.773-1.652.997q-.095.035-.188.072c-1.706.663-4.038.465-5.697-.238-.628-.291-1.25-.769-1.584-1.386v-.094h-.093c-.556-1.35-.78-2.86-.204-4.247.2-.442.441-.806.764-1.168l.089-.101a3.8 3.8 0 0 1 1.171-.833h.094v-.093c.963-.35 1.853-.578 2.882-.576m.112 2.652.142-.001c.543.01 1.08.137 1.478.528.426.52.49 1.23.429 1.877a1.8 1.8 0 0 1-.187.467l-.082.149c-.33.413-.708.6-1.225.691-.726.048-1.47.072-2.054-.42-.366-.333-.495-.773-.525-1.257-.015-.579.065-1.06.478-1.497.443-.428.951-.534 1.547-.537M91.516 28.263q-.176.003-.35.002c-.552 0-1.09.018-1.629.154l-.15.045q-.156.045-.31.097c-1.217.428-2.265 1.132-2.847 2.318-.504 1.106-.554 2.52-.147 3.662.417 1.071 1.057 1.801 2.107 2.283 1.585.684 3.932.808 5.553.177l.189-.072c.63-.233 1.23-.537 1.692-1.037l.045-.052.037-.043c.596-.68.988-1.53 1.035-2.44.044-1.347-.17-2.552-1.118-3.574-1.102-1.084-2.588-1.525-4.107-1.52m-.222 2.663h.037l.07-.002c.522 0 .995.112 1.41.437.11.117.196.24.28.374q.025.03.048.062l.035.046c.24.518.227 1.258.053 1.794a1.58 1.58 0 0 1-.782.823c-.383.142-.727.18-1.133.181l-.139.003c-.532.003-1.068-.121-1.475-.481-.265-.282-.414-.69-.434-1.074l-.007-.123c-.017-.533.06-1.057.427-1.465.227-.211.456-.362.747-.466l.053-.023.003-.001.013-.005q.022-.01.047-.02c.227-.061.446-.06.68-.06h.067M152.333 28.266q.19 0 .38-.003c1.33-.005 2.682.271 3.73 1.138l.099.076c.796.642 1.185 1.698 1.348 2.678v1.494h-7.656c.212.58.357.807.887 1.074.46.192.923.196 1.416.198l.179.003c.499.002.949-.064 1.346-.388l.011-.02.01-.018.009-.016.023-.042a.4.4 0 0 1 .087-.077.5.5 0 0 1 .156-.036l.194.001h.108q.177 0 .353.003h.244l.643.005.653.004h.003q.645.003 1.288.01l-.065.165-.068.172-.012.03-.026.067c-.132.333-.312.589-.53.873l-.067.094c-.785 1.013-2.222 1.373-3.423 1.527l-.104.013-.085.01-.026.003-.041.005c-1.739.17-3.75.047-5.176-1.066-.776-.675-1.153-1.597-1.302-2.594-.072-1.31.105-2.645 1.007-3.662l.125-.13.082-.083.004-.004.001-.001.022-.025.048-.055c.54-.595 1.361-.956 2.119-1.175l.058-.018.059-.018c.625-.184 1.242-.214 1.889-.213m.171 2.378.147-.002c.497.003 1.071.08 1.454.426.219.234.424.522.424.854h-4.248c.091-.457.369-.727.747-.98.441-.29.959-.294 1.471-.298zM128.843 28.269h-.132c-.415 0-.83 0-1.243.044l-.034.005-.033.004-.042.005c-1.076.128-2.087.487-2.941 1.167-.634.592-.904 1.299-.981 2.148h3.408l.001-.004c.112-.335.19-.57.486-.772.686-.371 1.734-.376 2.478-.173l.102.035.053.018c.156.051.304.1.396.245.044.188.058.375-.015.557a1.14 1.14 0 0 1-.443.232l-.07.011-.114.019c-.408.066-.819.11-1.23.15q-.366.036-.759.062c-1.037.074-2.168.154-3.038.643l-.042.024-.046.026c-.302.152-.587.306-.834.54-.441.504-.614 1.082-.625 1.748.022.603.213 1.148.657 1.573l.095.069.054.038c.223.173.449.302.712.406 1.58.526 3.243.26 4.703-.452v-.093h.093c.383-.268.672-.582.945-.958l.062-.087.021-.03.1.43.04.178.186.98h2.895v-.005l.002-2.001.001-1.126.001-.9v-.475l.001-.455v-.168c.003-.939-.172-1.807-.843-2.503-1.079-1.004-2.618-1.154-4.027-1.155m1.214 5.988c.281-.35.411-.672.383-1.121-.26 0-.612.12-.967.243-.296.102-.594.204-.84.237q-.105.014-.212.027c-.537.067-1.083.135-1.532.455-.163.15-.181.303-.194.519a.5.5 0 0 0 .021.127c.022.058.07.106.202.238.304.241.304.241 1.142.219a3.03 3.03 0 0 0 1.997-.944" clip-rule="evenodd"/><path fill="#7e7e7e" d="M113.4 26.46h10.084v2.987h-3.361v7.61h-3.455v-7.61H113.4z"/></svg>