<svg xmlns="http://www.w3.org/2000/svg" width="95" height="60" fill="none" viewBox="0 0 95 60"><g clip-path="url(#a)"><path fill="#7e7e7e" d="M61.88 23.943v7.021c0 1.817-.595 2.898-1.994 2.898-1.391 0-1.994-1.08-1.994-2.898v-7.021h-3.968v7.288c0 3.817 2.383 5.393 5.956 5.393 2.95 0 5.955-1.576 5.955-5.393v-7.288zm-30.204-.28c-4.095 0-6.812 2.572-6.812 6.572 0 4.012 2.877 6.39 6.577 6.39 3.413 0 6.725-2.072 6.725-6.605 0-3.74-2.59-6.357-6.49-6.357m-.12 10.219c-1.694 0-2.604-1.602-2.604-3.732 0-1.843.723-3.732 2.616-3.732 1.794 0 2.516 1.889 2.516 3.719.007 2.24-.977 3.745-2.529 3.745M22.04 23.07c-1.332.886-1.68 2.24-1.68 2.24-.722-.885-2.214-1.589-3.96-1.589-2.918 0-5.97 2.534-5.97 6.533 0 3.55 2.577 6.279 5.97 6.279 1.404 0 2.355-.339 3.11-1.068v.267c0 2.254-1.431 3.263-3.312 3.263-1.84 0-3.138-.593-3.947-1.042l-.783 2.93c1.057.535 3.151 1.056 4.83 1.056 1.881 0 3.775-.352 5.16-1.518 1.445-1.237 1.94-3.198 1.94-5.575v-5.49c.027-1.903.723-3.238 1.58-4.182 0-.007-2.938-2.104-2.938-2.104M17.129 33.92c-1.693 0-2.604-1.602-2.604-3.732 0-1.843.723-3.732 2.617-3.732 1.78.013 2.502 1.889 2.502 3.719 0 2.24-.97 3.745-2.515 3.745m28.92-10.258c-4.25 0-6.565 2.742-6.565 6.8v11.203h3.962V35.53c.709.716 1.84 1.114 3.352 1.114 2.837 0 5.801-2.124 5.801-6.644 0-3.973-2.69-6.337-6.55-6.337m-.014 10.219c-1.693 0-2.603-1.602-2.603-3.732 0-1.843.723-3.732 2.617-3.732 1.793 0 2.516 1.889 2.516 3.719-.02 2.24-.984 3.745-2.53 3.745m38.382-12.584v-2.957c-.549-.156-1.231-.267-2.094-.267-1.158 0-2.53.326-3.527 1.238-1.13 1.029-1.606 2.677-1.606 4.149v.462h-4.095v-.625c-.06-2.996 2.951-2.124 3.299-2.013v-2.957c-.555-.156-1.238-.267-2.101-.267-1.158 0-2.53.326-3.526 1.238-1.131 1.029-1.606 2.67-1.606 4.149v.462h-1.693v2.846h1.693v9.588c0 2.631-1.88 2.254-2.717 2.124l-.422 2.846a5 5 0 0 0 1.693.312c1.794.014 3.065-.52 3.921-1.335 1.071-1.029 1.48-2.507 1.48-3.973l.026-9.555h4.062v9.588c.06 2.774-2.168 2.208-2.717 2.123l-.421 2.846a5 5 0 0 0 1.692.313c1.794.013 3.065-.521 3.922-1.335 1.07-1.03 1.472-2.508 1.472-3.973l.026-9.556h3.252v-2.826h-3.299v-.632c.04-3.029 2.938-2.11 3.286-2.013"/></g><defs><clipPath id="a"><path fill="#fff" d="M10.43 18.061h74v23.878h-74z"/></clipPath></defs></svg>