<svg width="95" height="60" viewBox="0 0 95 60" fill="none" xmlns="http://www.w3.org/2000/svg">
<g clip-path="url(#clip0_2080_14298)">
<path d="M62.2806 23.8816V30.9029C62.2806 32.7202 61.6851 33.8015 60.2865 33.8015C58.8948 33.8015 58.2925 32.7202 58.2925 30.9029V23.8816H54.3245V31.17C54.3245 34.9868 56.7067 36.5632 60.2799 36.5632C63.2308 36.5632 66.2352 34.9868 66.2352 31.17V23.8816C66.2419 23.8816 62.2806 23.8816 62.2806 23.8816ZM32.0757 23.6015C27.9806 23.6015 25.2638 26.1743 25.2638 30.1735C25.2638 34.1858 28.1412 36.5632 31.8416 36.5632C35.2541 36.5632 38.5664 34.4918 38.5664 29.9586C38.5664 26.2199 35.9768 23.6015 32.0757 23.6015ZM31.9553 33.821C30.2623 33.821 29.3523 32.2188 29.3523 30.0888C29.3523 28.2455 30.075 26.3567 31.9686 26.3567C33.7619 26.3567 34.4846 28.2455 34.4846 30.0758C34.4913 32.3164 33.5077 33.821 31.9553 33.821ZM22.4401 23.0088C21.1085 23.8946 20.7606 25.2494 20.7606 25.2494C20.0379 24.3636 18.5457 23.6601 16.7993 23.6601C13.8818 23.6601 10.8306 26.1938 10.8306 30.1931C10.8306 33.7428 13.4067 36.4719 16.7993 36.4719C18.2045 36.4719 19.1547 36.1332 19.9108 35.4037V35.6708C19.9108 37.9245 18.4788 38.934 16.5985 38.934C14.7584 38.934 13.4603 38.3413 12.6506 37.8919L11.8677 40.8229C12.925 41.357 15.0194 41.8781 16.6989 41.8781C18.5792 41.8781 20.4729 41.5263 21.858 40.3604C23.3033 39.1229 23.7985 37.1624 23.7985 34.785V29.2942C23.8252 27.3923 24.5212 26.057 25.3776 25.1126C25.3776 25.1061 22.4401 23.0088 22.4401 23.0088ZM17.5286 33.8601C15.8357 33.8601 14.9257 32.2578 14.9257 30.1279C14.9257 28.2846 15.6484 26.3957 17.542 26.3957C19.3219 26.4088 20.0446 28.2846 20.0446 30.1149C20.0446 32.3555 19.0744 33.8601 17.5286 33.8601ZM46.4488 23.6015C42.1998 23.6015 39.8846 26.3436 39.8846 30.4015V41.6045H43.8459V35.4689C44.5551 36.1854 45.6859 36.5827 47.1982 36.5827C50.0354 36.5827 52.9997 34.4593 52.9997 29.939C52.9997 25.9659 50.3097 23.6015 46.4488 23.6015ZM46.4354 33.821C44.7425 33.821 43.8324 32.2188 43.8324 30.0888C43.8324 28.2455 44.5551 26.3567 46.4488 26.3567C48.2421 26.3567 48.9648 28.2455 48.9648 30.0758C48.9447 32.3164 47.9811 33.821 46.4354 33.821ZM84.8171 21.2371V18.2801C84.2685 18.1238 83.586 18.013 82.7228 18.013C81.5652 18.013 80.1934 18.3387 79.1964 19.2506C78.0656 20.2797 77.5905 21.9276 77.5905 23.3996V23.862H73.4954V23.2368C73.4352 20.2406 76.4462 21.1134 76.7942 21.2241V18.267C76.2388 18.1107 75.5564 18 74.6931 18C73.5355 18 72.1638 18.3257 71.1668 19.2375C70.036 20.2667 69.5609 21.908 69.5609 23.3866V23.849H67.8679V26.6954H69.5609V36.283C69.5609 38.9144 67.6805 38.5366 66.8442 38.4064L66.4226 41.2528C66.8241 41.409 67.4664 41.5654 68.1155 41.5654C69.9088 41.5784 71.1802 41.0443 72.0366 40.2302C73.1072 39.2011 73.5155 37.7225 73.5155 36.257L73.5422 26.7019H77.6039V36.2896C77.6641 39.0642 75.4358 38.4975 74.8872 38.413L74.4657 41.2592C74.8672 41.4156 75.5095 41.5719 76.1585 41.5719C77.9518 41.585 79.2232 41.0509 80.0796 40.2366C81.1503 39.2076 81.5517 37.7291 81.5517 36.2636L81.5786 26.7084H84.8306V23.8816H81.5317V23.2498C81.5719 20.2211 84.4692 21.1394 84.8171 21.2371Z" fill="#7E7E7E"/>
</g>
<defs>
<clipPath id="clip0_2080_14298">
<rect width="74" height="23.878" fill="white" transform="translate(10.8306 18)"/>
</clipPath>
</defs>
</svg>
