<svg xmlns="http://www.w3.org/2000/svg" width="188" height="60" fill="none" viewBox="0 0 188 60"><path fill="#7e7e7e" d="m66.859 37.304.322 4.353c-.766.242-1.693.403-2.901.403-2.5 0-4.072-1.169-4.636-3.386-1.088 2.016-2.982 3.386-5.844 3.386-4.474 0-6.973-3.225-6.973-7.255V22.109h5.562v11.406c0 2.297 1.17 3.749 3.184 3.749 2.257 0 3.83-1.653 3.83-4.112V22.11h5.521v14.187c0 .766.403 1.21.968 1.21.322 0 .523-.04.967-.202m26.596-15.397c4.393 0 6.731 3.104 6.731 7.497v12.454h-5.562V30.613c0-2.499-1.25-3.91-3.265-3.91-2.217 0-3.748 1.653-3.748 4.112v11.043h-5.522V30.613c0-2.458-1.21-3.91-3.265-3.91-2.216 0-3.748 1.653-3.748 4.112v11.043h-5.522v-19.75h5.32l.162 2.862c1.128-1.813 3.063-3.063 5.803-3.063 3.185 0 5.28 1.653 6.207 4.111 1.008-2.378 3.144-4.11 6.409-4.11m17.571 15.397.323 4.353c-.766.242-1.693.403-2.902.403-3.225 0-4.877-1.935-4.877-5.441V13.242h5.522v23.054c0 .766.402 1.21.967 1.21.322 0 .524-.04.967-.202m11.624-15.397c6.126 0 10.157 4.071 10.157 9.996S128.776 42.06 122.65 42.06c-6.046 0-10.117-4.03-10.117-9.956 0-5.965 4.071-10.197 10.117-10.197m0 4.555c-2.741 0-4.554 2.217-4.554 5.562 0 3.265 1.813 5.481 4.554 5.481 2.821 0 4.554-2.216 4.554-5.481 0-3.346-1.733-5.562-4.554-5.562m21.895-4.555c6.127 0 10.157 4.071 10.157 9.996s-4.03 10.157-10.157 10.157c-6.045 0-10.116-4.03-10.116-9.956 0-5.965 4.071-10.197 10.116-10.197m0 4.555c-2.74 0-4.554 2.217-4.554 5.562 0 3.265 1.814 5.481 4.554 5.481 2.822 0 4.555-2.216 4.555-5.481 0-3.346-1.733-5.562-4.555-5.562m24.476-4.555c4.997 0 8.584 3.507 8.584 9.754 0 6.127-3.426 10.399-8.786 10.399-2.902 0-4.837-1.21-5.925-3.023V50h-5.522V22.068h5.361l.121 2.902c1.128-1.773 3.184-3.063 6.167-3.063m-1.452 15.518c2.62 0 4.434-2.177 4.434-5.522 0-3.265-1.693-5.36-4.393-5.36-3.063 0-4.716 2.579-4.716 4.796v1.25c0 2.377 1.733 4.836 4.675 4.836M21.364 11.038c.754-.32 2.168-.708 3.195-.868.772-.132 1.63-.16 3.91-.17h17.026c-.43 5.188-5.156 5.222-6.03 5.313s-7.65 0-7.65 0c-6.05.076-6.842.17-8.68.944-2.61 1.104-4.579 2.973-5.823 5.52-.744 1.52-.914 2.228-1.008 4.323-.141 2.756.716 5.162 2.648 7.503.999 1.208 3.034 2.595 4.617 3.142 1.329.463 1.678.52 3.251.576 1.357.047 1.677.028 2.526-.15 1.083-.227 2.073-.596 3.175-1.18 1.932-1.03 3.6-2.822 4.58-4.917.923-1.982 1.263-4.72.697-5.616a2.2 2.2 0 0 0-.5-.547c-.621-.453-.697-.453-5.823-.406l-4.815.057-.396.264c-.216.142-.518.462-.678.698-.358.576-.358 1.048-.01 1.737.208.425.34.557.764.764l.518.265h7.406v.226c0 .255-.47 1.321-.838 1.897-1.48 2.331-4.297 3.68-6.992 3.35-1.819-.217-3.27-.915-4.495-2.16-1.15-1.162-1.819-2.474-2.054-4.021-.405-2.614.612-5.295 2.591-6.87.98-.765 1.659-1.124 2.752-1.445l.885-.264 5.183.029c3.016.009 5.437.056 5.795.122.792.123 1.847.434 2.262.67.848.472 1.197.69 1.413.887.132.123.255.218.293.218.103 0 .716.613.933.943.122.18.254.35.282.378.283.255 1.037 2.142 1.197 2.972.254 1.36-.019 4.408-.547 6.06-1.036 3.265-3.213 6.398-5.738 8.276-3.044 2.255-6.314 3.36-9.942 3.36-2.78 0-5.07-.53-7.397-1.7-3.995-2.01-6.945-5.407-8.274-9.531-.442-1.387-.537-1.784-.725-3.114-.48-3.445.273-7.23 2.064-10.287a17 17 0 0 1 5.946-6.002c.951-.566 1.14-.66 1.743-.925.179-.075.528-.217.763-.32"/></svg>