<svg width="160" height="60" viewBox="0 0 160 60" fill="none" xmlns="http://www.w3.org/2000/svg">
<path d="M57.0525 35.9494V30.5491H52.746V35.9494H50.4351V23.8729H52.746V28.714H57.0525V23.8729H59.3809V35.9494H57.0525Z" fill="#7E7E7E"/>
<path d="M68.9722 33.5026C68.9722 33.8638 69.0247 34.1318 69.1298 34.3066C69.2465 34.4697 69.4274 34.5979 69.6725 34.6911L69.1998 36.1766C68.6746 36.13 68.2428 36.0018 67.9043 35.7921C67.5775 35.5824 67.3266 35.262 67.1515 34.8309C66.8364 35.2969 66.4396 35.6465 65.9611 35.8795C65.4943 36.1009 64.9691 36.2116 64.3855 36.2116C63.4635 36.2116 62.7341 35.9494 62.1972 35.4251C61.6604 34.9008 61.3919 34.2134 61.3919 33.3628C61.3919 32.3608 61.7537 31.5977 62.4773 31.0734C63.2126 30.5374 64.2572 30.2694 65.611 30.2694H66.7664V29.7451C66.7664 29.1509 66.6264 28.7373 66.3463 28.5043C66.0778 28.2596 65.6402 28.1372 65.0333 28.1372C64.3564 28.1372 63.5394 28.3004 62.5824 28.6266L62.0572 27.1061C63.2126 26.6634 64.333 26.442 65.4184 26.442C67.7876 26.442 68.9722 27.5023 68.9722 29.6228V33.5026ZM64.9808 34.5862C65.7394 34.5862 66.3346 34.2076 66.7664 33.4502V31.5802H65.8386C64.3914 31.5802 63.6678 32.1162 63.6678 33.1881C63.6678 33.6308 63.7786 33.9745 64.0004 34.2192C64.2221 34.4639 64.5489 34.5862 64.9808 34.5862Z" fill="#7E7E7E"/>
<path d="M76.4807 26.442C77.6478 26.442 78.5114 26.8673 79.0716 27.7178C79.6318 28.5683 79.912 29.7626 79.912 31.3006C79.912 32.256 79.7661 33.1065 79.4743 33.8522C79.1942 34.5862 78.774 35.163 78.2138 35.5824C77.6653 36.0018 77.0117 36.2116 76.2531 36.2116C75.2727 36.2116 74.4966 35.8737 73.9248 35.1979V39.5147L71.6839 39.7594V26.7041H73.6447L73.7672 27.8401C74.129 27.3741 74.5433 27.0246 75.0102 26.7915C75.477 26.5585 75.9672 26.442 76.4807 26.442ZM75.6229 34.4988C76.9183 34.4988 77.5661 33.4386 77.5661 31.318C77.5661 30.1879 77.4202 29.3723 77.1284 28.8713C76.8367 28.3703 76.399 28.1198 75.8154 28.1198C75.442 28.1198 75.0918 28.2363 74.7651 28.4693C74.4383 28.6907 74.1582 28.9936 73.9248 29.3781V33.5376C74.3566 34.1784 74.9226 34.4988 75.6229 34.4988Z" fill="#7E7E7E"/>
<path d="M86.9093 26.442C88.0764 26.442 88.9401 26.8673 89.5003 27.7178C90.0605 28.5683 90.3406 29.7626 90.3406 31.3006C90.3406 32.256 90.1947 33.1065 89.9029 33.8522C89.6228 34.5862 89.2027 35.163 88.6425 35.5824C88.0939 36.0018 87.4404 36.2116 86.6817 36.2116C85.7014 36.2116 84.9253 35.8737 84.3534 35.1979V39.5147L82.1126 39.7594V26.7041H84.0733L84.1958 27.8401C84.5576 27.3741 84.9719 27.0246 85.4388 26.7915C85.9056 26.5585 86.3958 26.442 86.9093 26.442ZM86.0515 34.4988C87.347 34.4988 87.9947 33.4386 87.9947 31.318C87.9947 30.1879 87.8488 29.3723 87.5571 28.8713C87.2653 28.3703 86.8276 28.1198 86.2441 28.1198C85.8706 28.1198 85.5205 28.2363 85.1937 28.4693C84.8669 28.6907 84.5868 28.9936 84.3534 29.3781V33.5376C84.7852 34.1784 85.3513 34.4988 86.0515 34.4988Z" fill="#7E7E7E"/>
<path d="M96.9203 35.9844C96.5468 37.1262 95.9807 38.0117 95.2221 38.6409C94.4635 39.2817 93.4248 39.6545 92.106 39.7594L91.8784 38.134C92.4853 38.0408 92.9696 37.9068 93.3314 37.7321C93.7049 37.5689 94.0025 37.3476 94.2243 37.0679C94.446 36.7883 94.6503 36.4155 94.837 35.9494H94.0667L91.1256 26.7041H93.5065L95.5197 34.4639L97.6205 26.7041H99.9314L96.9203 35.9844Z" fill="#7E7E7E"/>
<path d="M109.137 23.8729L108.892 25.708H105.741V35.9494H103.413V25.708H100.156V23.8729H109.137Z" fill="#7E7E7E"/>
<path d="M117.218 31.1083C117.218 31.2248 117.2 31.5278 117.165 32.0171H111.353C111.423 32.9143 111.657 33.5551 112.054 33.9396C112.45 34.3241 112.976 34.5163 113.629 34.5163C114.038 34.5163 114.423 34.4522 114.785 34.3241C115.146 34.1842 115.532 33.9745 115.94 33.6949L116.868 34.9707C115.841 35.7979 114.697 36.2116 113.437 36.2116C112.024 36.2116 110.933 35.7805 110.163 34.9183C109.404 34.0561 109.025 32.8793 109.025 31.3879C109.025 30.4442 109.188 29.5995 109.515 28.8538C109.842 28.0965 110.315 27.5081 110.933 27.0886C111.552 26.6575 112.287 26.442 113.139 26.442C114.434 26.442 115.438 26.8556 116.15 27.6829C116.862 28.4984 117.218 29.6403 117.218 31.1083ZM114.995 30.4617C114.995 28.8421 114.394 28.0324 113.192 28.0324C112.643 28.0324 112.211 28.2363 111.896 28.6441C111.593 29.0402 111.412 29.681 111.353 30.5665H114.995V30.4617Z" fill="#7E7E7E"/>
<path d="M125.902 33.5026C125.902 33.8638 125.955 34.1318 126.06 34.3066C126.177 34.4697 126.357 34.5979 126.603 34.6911L126.13 36.1766C125.605 36.13 125.173 36.0018 124.834 35.7921C124.508 35.5824 124.257 35.262 124.082 34.8309C123.766 35.2969 123.37 35.6465 122.891 35.8795C122.424 36.1009 121.899 36.2116 121.316 36.2116C120.394 36.2116 119.664 35.9494 119.127 35.4251C118.59 34.9008 118.322 34.2134 118.322 33.3628C118.322 32.3608 118.684 31.5977 119.407 31.0734C120.143 30.5374 121.187 30.2694 122.541 30.2694H123.696V29.7451C123.696 29.1509 123.556 28.7373 123.276 28.5043C123.008 28.2596 122.57 28.1372 121.963 28.1372C121.286 28.1372 120.469 28.3004 119.512 28.6266L118.987 27.1061C120.143 26.6634 121.263 26.442 122.348 26.442C124.718 26.442 125.902 27.5023 125.902 29.6228V33.5026ZM121.911 34.5862C122.669 34.5862 123.265 34.2076 123.696 33.4502V31.5802H122.769C121.321 31.5802 120.598 32.1162 120.598 33.1881C120.598 33.6308 120.709 33.9745 120.93 34.2192C121.152 34.4639 121.479 34.5862 121.911 34.5862Z" fill="#7E7E7E"/>
<path d="M138.435 26.442C139.182 26.442 139.777 26.6983 140.221 27.211C140.664 27.712 140.886 28.3936 140.886 29.2558V35.9494H138.645V29.6053C138.645 28.6149 138.307 28.1198 137.63 28.1198C137.268 28.1198 136.953 28.2363 136.684 28.4693C136.428 28.6907 136.159 29.0402 135.879 29.5179V35.9494H133.638V29.6053C133.638 28.6149 133.3 28.1198 132.623 28.1198C132.249 28.1198 131.929 28.2363 131.66 28.4693C131.403 28.6907 131.135 29.0402 130.855 29.5179V35.9494H128.614V26.7041H130.557L130.732 27.91C131.433 26.9313 132.325 26.442 133.411 26.442C133.948 26.442 134.409 26.5818 134.794 26.8614C135.191 27.1294 135.476 27.5081 135.652 27.9974C136.025 27.4964 136.434 27.1119 136.877 26.844C137.332 26.576 137.852 26.442 138.435 26.442Z" fill="#7E7E7E"/>
<path d="M146.411 26.442C147.66 26.442 148.757 26.809 149.702 27.543L148.827 28.8538C148.033 28.3528 147.257 28.1023 146.499 28.1023C146.055 28.1023 145.711 28.1897 145.466 28.3644C145.221 28.5276 145.098 28.7489 145.098 29.0286C145.098 29.2383 145.151 29.4131 145.256 29.5529C145.361 29.6927 145.548 29.8267 145.816 29.9548C146.096 30.0714 146.505 30.2053 147.041 30.3568C148.045 30.6248 148.786 30.9802 149.265 31.4229C149.755 31.8657 150 32.4832 150 33.2755C150 34.1959 149.627 34.9183 148.88 35.4426C148.133 35.9552 147.205 36.2116 146.096 36.2116C145.337 36.2116 144.643 36.0951 144.013 35.862C143.394 35.629 142.857 35.3086 142.402 34.9008L143.523 33.6425C144.328 34.2483 145.168 34.5513 146.044 34.5513C146.545 34.5513 146.942 34.4522 147.234 34.2542C147.537 34.0561 147.689 33.7823 147.689 33.4327C147.689 33.1648 147.631 32.955 147.514 32.8036C147.409 32.6405 147.211 32.5006 146.919 32.3841C146.639 32.256 146.195 32.1045 145.588 31.9297C144.643 31.6734 143.949 31.318 143.505 30.8636C143.062 30.3976 142.84 29.8209 142.84 29.1334C142.84 28.6208 142.986 28.1606 143.278 27.7528C143.581 27.345 144.001 27.0246 144.538 26.7915C145.087 26.5585 145.711 26.442 146.411 26.442Z" fill="#7E7E7E"/>
<path d="M41.1529 32.6112C41.3375 31.6519 41.4342 30.6614 41.4342 29.6485C41.4342 21.0061 34.3973 14 25.7171 14C17.0368 14 10 21.0061 10 29.6485C10 38.2909 17.0368 45.2969 25.7171 45.2969C27.3448 45.2969 28.9147 45.0506 30.3913 44.5933C30.0867 43.7722 29.8975 42.8952 29.8432 41.982C28.5464 42.4119 27.159 42.6447 25.7171 42.6447C18.508 42.6447 12.6639 36.8261 12.6639 29.6485C12.6639 22.4709 18.508 16.6523 25.7171 16.6523C32.9261 16.6523 38.7702 22.4709 38.7702 29.6485C38.7702 30.5753 38.6728 31.4794 38.4876 32.3513C38.6365 32.344 38.7864 32.3404 38.9372 32.3404C39.7014 32.3404 40.4436 32.4343 41.1529 32.6112Z" fill="#7E7E7E"/>
<path d="M39.0244 33.0121C34.3165 33.0121 30.4999 36.812 30.4999 41.4994C30.4999 42.5142 30.7527 43.5883 31.0069 44.3895C32.3198 42.9558 41.0156 33.2494 41.0156 33.2494C41.0156 33.2494 39.6378 33.0121 39.0244 33.0121Z" fill="#7E7E7E"/>
<path fill-rule="evenodd" clip-rule="evenodd" d="M20.0522 28.5116C20.4328 28.4727 20.7729 28.7484 20.8119 29.1272C21.0498 31.4375 23.1085 33.2871 25.6644 33.2871C28.2168 33.2871 30.2733 31.4426 30.516 29.1369C30.5558 28.7581 30.8965 28.4832 31.277 28.5229C31.6574 28.5626 31.9335 28.9018 31.8937 29.2806C31.5728 32.3298 28.8835 34.6662 25.6644 34.6662C22.441 34.6662 19.7486 32.3233 19.4339 29.2679C19.3949 28.8891 19.6717 28.5504 20.0522 28.5116Z" fill="#7E7E7E"/>
<path fill-rule="evenodd" clip-rule="evenodd" d="M29.283 24.6091C28.6228 24.6091 28.088 25.156 28.088 25.8304C28.088 26.5056 28.6228 27.0523 29.283 27.0523C29.9432 27.0523 30.4773 26.5056 30.4773 25.8304C30.4773 25.156 29.9432 24.6091 29.283 24.6091Z" fill="#7E7E7E"/>
<path fill-rule="evenodd" clip-rule="evenodd" d="M22.0105 24.6091C21.351 24.6091 20.8155 25.156 20.8155 25.8304C20.8155 26.5056 21.351 27.0523 22.0105 27.0523C22.6701 27.0523 23.2055 26.5056 23.2055 25.8304C23.2055 25.156 22.6701 24.6091 22.0105 24.6091Z" fill="#7E7E7E"/>
</svg>
