<svg xmlns="http://www.w3.org/2000/svg" width="160" height="60" fill="none" viewBox="0 0 160 60"><path fill="#7e7e7e" d="M57.053 37.301v-5.4h-4.307v5.4h-2.31V25.224h2.31v4.842h4.307v-4.841h2.328V37.3zM68.972 34.854q0 .542.158.804.175.244.543.385l-.473 1.485q-.787-.07-1.296-.384-.49-.315-.752-.962a3 3 0 0 1-1.19 1.05 3.6 3.6 0 0 1-1.577.331q-1.382 0-2.188-.786-.805-.787-.805-2.063 0-1.503 1.085-2.29 1.103-.803 3.134-.803h1.155v-.524q0-.891-.42-1.241-.402-.367-1.313-.367-1.016 0-2.45.49l-.526-1.521q1.734-.664 3.361-.664 3.555 0 3.554 3.18zm-3.991 1.084q1.138 0 1.785-1.136v-1.87h-.927q-2.171 0-2.171 1.608 0 .663.332 1.03.333.368.98.368M76.48 27.794q1.751 0 2.592 1.275.84 1.276.84 3.583 0 1.434-.438 2.552-.42 1.1-1.26 1.73-.823.63-1.96.63-1.471 0-2.33-1.014v4.316l-2.24.245V28.056h1.96l.123 1.136a3.6 3.6 0 0 1 1.243-1.049q.7-.35 1.47-.35m-.857 8.056q1.943 0 1.943-3.18 0-1.695-.438-2.447-.437-.752-1.313-.752-.56 0-1.05.35a2.9 2.9 0 0 0-.84.909v4.16q.648.96 1.698.96M86.91 27.794q1.75 0 2.59 1.275.84 1.276.84 3.583 0 1.434-.437 2.552-.42 1.1-1.26 1.73-.824.63-1.961.63-1.47 0-2.329-1.014v4.316l-2.24.245V28.056h1.96l.123 1.136a3.6 3.6 0 0 1 1.243-1.049q.7-.35 1.47-.35m-.858 8.056q1.943 0 1.943-3.18 0-1.695-.438-2.447t-1.313-.752q-.56 0-1.05.35a2.9 2.9 0 0 0-.84.909v4.16q.647.96 1.698.96M96.92 37.336q-.56 1.713-1.698 2.656-1.137.962-3.116 1.119l-.228-1.625q.911-.141 1.453-.402.56-.245.893-.665t.613-1.118h-.77l-2.941-9.245h2.38l2.014 7.76 2.1-7.76h2.311zM109.137 25.225l-.245 1.834h-3.151v10.242h-2.328V27.059h-3.257v-1.835zM117.218 32.46q0 .175-.053.909h-5.812q.105 1.346.701 1.922.595.577 1.575.577.613 0 1.156-.192.542-.21 1.155-.63l.928 1.276q-1.54 1.242-3.431 1.241-2.12 0-3.274-1.293-1.138-1.294-1.138-3.53 0-1.416.49-2.535.49-1.135 1.418-1.765.928-.646 2.206-.646 1.943 0 3.011 1.24 1.068 1.224 1.068 3.426m-2.223-.647q0-2.43-1.803-2.429-.824 0-1.296.612-.455.594-.543 1.922h3.642zM125.902 34.854q0 .542.158.804.175.244.543.385l-.473 1.485q-.788-.07-1.296-.384-.49-.315-.752-.962a3 3 0 0 1-1.191 1.05 3.6 3.6 0 0 1-1.575.331q-1.383 0-2.189-.786-.805-.787-.805-2.063 0-1.503 1.085-2.29 1.103-.803 3.134-.803h1.155v-.524q0-.891-.42-1.241-.402-.367-1.313-.367-1.016 0-2.451.49l-.525-1.521q1.734-.664 3.361-.664 3.555 0 3.554 3.18zm-3.991 1.084q1.138 0 1.785-1.136v-1.87h-.927q-2.172 0-2.171 1.608 0 .663.332 1.03.333.368.981.368M138.435 27.794q1.12 0 1.786.768.665.753.665 2.045v6.694h-2.241v-6.344q0-1.486-1.015-1.486-.543 0-.946.35-.385.331-.805 1.048v6.432h-2.241v-6.344q0-1.486-1.015-1.486a1.42 1.42 0 0 0-.963.35q-.385.331-.805 1.048v6.432h-2.241v-9.245h1.943l.175 1.206q1.05-1.469 2.679-1.468.805 0 1.383.419.595.402.858 1.136.56-.752 1.225-1.154.683-.401 1.558-.401M146.411 27.794q1.874 0 3.291 1.1l-.875 1.311q-1.191-.75-2.328-.751-.666 0-1.033.262a.76.76 0 0 0-.368.664q0 .315.158.524t.56.402q.42.175 1.225.402 1.506.402 2.224 1.067.735.663.735 1.852 0 1.38-1.12 2.167-1.12.77-2.784.77a6 6 0 0 1-2.083-.35 5 5 0 0 1-1.611-.962l1.121-1.258q1.207.909 2.521.909.752 0 1.19-.297.455-.297.455-.822 0-.401-.175-.629-.157-.244-.595-.42-.42-.191-1.331-.454-1.417-.384-2.083-1.066-.665-.7-.665-1.73 0-.77.438-1.38.454-.613 1.26-.962.823-.35 1.873-.35M41.153 33.963c.184-.96.281-1.95.281-2.963 0-8.642-7.037-15.648-15.717-15.648S10 22.358 10 31s7.037 15.648 15.717 15.648c1.628 0 3.198-.246 4.674-.703a9 9 0 0 1-.548-2.611 13.1 13.1 0 0 1-4.126.662c-7.209 0-13.053-5.818-13.053-12.996s5.844-12.996 13.053-12.996S38.77 23.822 38.77 31c0 .927-.097 1.83-.282 2.703q.222-.01.45-.011c.763 0 1.506.094 2.215.27"/><path fill="#7e7e7e" d="M39.024 34.364c-4.708 0-8.524 3.8-8.524 8.487 0 1.015.253 2.089.507 2.89 1.313-1.434 10.009-11.14 10.009-11.14s-1.378-.237-1.992-.237"/><path fill="#7e7e7e" fill-rule="evenodd" d="M20.052 29.863c.38-.039.72.237.76.616.238 2.31 2.296 4.16 4.852 4.16 2.553 0 4.61-1.845 4.852-4.15a.692.692 0 0 1 1.378.143c-.321 3.05-3.01 5.386-6.23 5.386-3.223 0-5.915-2.343-6.23-5.399a.69.69 0 0 1 .618-.756M29.283 25.96c-.66 0-1.195.548-1.195 1.222 0 .675.535 1.222 1.195 1.222s1.194-.547 1.194-1.222-.534-1.221-1.194-1.221M22.01 25.96c-.659 0-1.195.548-1.195 1.222 0 .675.536 1.222 1.195 1.222.66 0 1.195-.547 1.195-1.222s-.535-1.221-1.194-1.221" clip-rule="evenodd"/></svg>