<svg xmlns="http://www.w3.org/2000/svg" width="240" fill="none" viewBox="0 0 214 26"><path fill="currentColor" d="M158.605 7.518h1.528v10.925h-1.528v-5.046h-5.34v5.046h-1.529V7.518h1.529v4.557h5.34V7.518ZM169.977 14.345c0 .653-.095 1.241-.284 1.766a4.063 4.063 0 0 1-.794 1.357 3.46 3.46 0 0 1-1.222.875 3.845 3.845 0 0 1-1.544.307 3.848 3.848 0 0 1-1.544-.307 3.492 3.492 0 0 1-1.221-.875 4.042 4.042 0 0 1-.795-1.357 5.212 5.212 0 0 1-.284-1.766c0-.652.096-1.227.284-1.756.189-.53.454-.985.795-1.364.34-.38.746-.67 1.221-.875a3.85 3.85 0 0 1 1.544-.307c.556 0 1.072.102 1.544.307.472.204.879.495 1.222.875a4 4 0 0 1 .794 1.364c.189.531.284 1.115.284 1.756Zm-1.528 0c0-.925-.206-1.656-.622-2.2-.416-.54-.978-.811-1.694-.811-.715 0-1.278.27-1.694.811-.415.541-.622 1.275-.622 2.2 0 .925.207 1.66.622 2.2.416.541.979.812 1.694.812.716 0 1.278-.27 1.694-.811.416-.541.622-1.275.622-2.2ZM175.063 10.072c.125 0 .27.01.434.023.163.016.322.036.481.064.157.027.302.052.433.08.132.026.23.05.291.07l-.252 1.277a5.432 5.432 0 0 0-.574-.15 5.097 5.097 0 0 0-1.031-.086 3.9 3.9 0 0 0-.811.086c-.268.057-.443.098-.527.118v6.89h-1.464v-7.851a9.627 9.627 0 0 1 1.292-.355 8.223 8.223 0 0 1 1.733-.166h-.005ZM178.843 8.763a.943.943 0 0 1-.67-.26c-.184-.172-.275-.406-.275-.702 0-.295.091-.527.275-.702a.943.943 0 0 1 .67-.26c.264 0 .486.087.67.26.184.173.275.407.275.702 0 .296-.094.528-.275.703a.941.941 0 0 1-.67.259Zm.74 9.682h-1.464v-8.198h1.464v8.198ZM187.538 11.35c-.22.24-.511.583-.874 1.024-.363.441-.752.93-1.165 1.466a48.493 48.493 0 0 0-1.244 1.687 24.31 24.31 0 0 0-1.095 1.686h4.505v1.23h-6.253v-.978c.252-.461.561-.973.929-1.53.367-.556.753-1.11 1.158-1.663a56.843 56.843 0 0 1 2.179-2.8h-4.048v-1.23h5.905v1.105l.003.002ZM196.438 14.345c0 .653-.095 1.241-.284 1.766a4.048 4.048 0 0 1-.795 1.357c-.34.38-.747.67-1.221.875a3.845 3.845 0 0 1-1.544.307 3.845 3.845 0 0 1-1.544-.307 3.492 3.492 0 0 1-1.221-.875 4.025 4.025 0 0 1-.795-1.357 5.187 5.187 0 0 1-.284-1.766c0-.652.095-1.227.284-1.756.188-.53.454-.985.795-1.364.34-.38.746-.67 1.221-.875a3.847 3.847 0 0 1 1.544-.307c.556 0 1.072.102 1.544.307.472.204.878.495 1.221.875.343.38.607.834.795 1.364.189.531.284 1.115.284 1.756Zm-1.528 0c0-.925-.207-1.656-.622-2.2-.416-.54-.979-.811-1.694-.811s-1.279.27-1.694.811c-.415.541-.622 1.275-.622 2.2 0 .925.207 1.66.622 2.2.415.541.979.812 1.694.812s1.278-.27 1.694-.811c.415-.541.622-1.275.622-2.2ZM198.501 10.481c.336-.084.781-.172 1.339-.268.557-.095 1.197-.14 1.921-.14.652 0 1.192.092 1.621.274.432.184.774.441 1.031.773.256.332.439.727.543 1.191.104.464.157.973.157 1.53v4.604h-1.465v-4.288c0-.505-.034-.937-.102-1.294-.068-.356-.182-.645-.338-.866a1.34 1.34 0 0 0-.632-.482c-.263-.1-.588-.15-.976-.15a7.2 7.2 0 0 0-.488.016c-.168.012-.329.023-.482.04a6.615 6.615 0 0 0-.667.101v6.921h-1.465v-7.962h.003ZM209.446 17.389c.6 0 1.043-.08 1.331-.236.289-.157.434-.41.434-.757 0-.348-.141-.641-.424-.853-.285-.209-.752-.445-1.401-.709a18.434 18.434 0 0 1-.906-.386 3.112 3.112 0 0 1-.747-.466 1.982 1.982 0 0 1-.504-.645c-.125-.253-.189-.562-.189-.93 0-.725.268-1.3.804-1.727.536-.428 1.264-.639 2.189-.639.231 0 .46.014.692.039.231.027.447.056.645.095.2.036.374.077.527.118.152.043.27.08.354.112l-.268 1.261c-.157-.084-.404-.17-.741-.26a4.797 4.797 0 0 0-1.212-.133 2.24 2.24 0 0 0-1.072.245.811.811 0 0 0-.456.764c0 .18.034.336.102.473.068.136.173.259.316.37.143.112.318.214.526.307.21.095.462.195.757.3.388.148.735.291 1.039.434.305.141.566.307.779.498.216.189.382.418.495.686.116.268.173.596.173.987 0 .757-.282 1.33-.842 1.718-.561.389-1.363.584-2.403.584-.724 0-1.292-.061-1.7-.182a9.676 9.676 0 0 1-.836-.275l.268-1.261c.168.064.436.157.804.284.368.127.856.189 1.464.189l.002-.005ZM41.481 7.596h2.464v10.848H41.48V13.84h-4.137v4.603h-2.463V7.596h2.463v4.148h4.137V7.596ZM49.742 12.945c0 .532.066 1.016.195 1.44a3.3 3.3 0 0 0 .566 1.11c.245.307.547.545.901.714.356.165.763.254 1.224.254.46 0 .856-.089 1.217-.255.36-.165.665-.406.91-.713.246-.307.434-.677.566-1.11.13-.426.195-.91.195-1.44 0-.53-.066-1.02-.195-1.457a3.32 3.32 0 0 0-.566-1.114 2.505 2.505 0 0 0-.91-.713 2.885 2.885 0 0 0-1.217-.255c-.45 0-.87.089-1.224.261a2.587 2.587 0 0 0-.901.723 3.324 3.324 0 0 0-.566 1.114 4.973 4.973 0 0 0-.195 1.44Zm8.303 0c0 .932-.138 1.75-.415 2.457a5.076 5.076 0 0 1-1.138 1.775 4.777 4.777 0 0 1-1.718 1.077 6.296 6.296 0 0 1-2.144.36c-.765 0-1.444-.121-2.102-.36a4.947 4.947 0 0 1-1.726-1.077 5.064 5.064 0 0 1-1.163-1.775c-.281-.707-.424-1.525-.424-2.457 0-.932.147-1.755.44-2.462.293-.707.688-1.302 1.186-1.78a4.915 4.915 0 0 1 1.725-1.088 5.973 5.973 0 0 1 2.064-.36c.722 0 1.444.121 2.103.36a4.811 4.811 0 0 1 1.725 1.089c.49.48.879 1.072 1.16 1.78.284.706.425 1.524.425 2.46h.002ZM64.203 16.527c.346 0 .632-.032.857-.089a1.57 1.57 0 0 0 .54-.234.81.81 0 0 0 .283-.355c.053-.136.08-.29.08-.459 0-.354-.168-.65-.502-.884-.334-.238-.91-.488-1.725-.766-.357-.125-.713-.27-1.067-.432a3.92 3.92 0 0 1-.959-.609 2.997 2.997 0 0 1-.69-.895c-.177-.355-.266-.782-.266-1.28 0-.497.094-.957.282-1.359.188-.407.454-.75.801-1.03.345-.281.763-.5 1.256-.65a5.698 5.698 0 0 1 1.664-.23c.734 0 1.367.078 1.901.235.534.157.972.334 1.319.52l-.706 1.932a6.473 6.473 0 0 0-1.013-.416c-.372-.12-.82-.181-1.341-.181-.586 0-1.009.084-1.265.245-.257.161-.384.411-.384.746 0 .202.048.37.14.504.094.136.228.261.4.37.173.11.373.21.598.298.224.089.471.182.744.275.566.21 1.056.416 1.476.62.418.21.765.444 1.044.719.278.27.484.589.62.957.136.364.205.811.205 1.332 0 1.016-.357 1.807-1.068 2.364-.71.56-1.784.843-3.217.843a9.02 9.02 0 0 1-2.331-.298 6.991 6.991 0 0 1-.77-.27 5.453 5.453 0 0 1-.54-.266l.69-1.948c.324.177.724.338 1.2.48.477.14 1.06.213 1.751.213l-.007-.002ZM79.275 7.506v2.093h-3.281v8.796h-2.448V9.599h-3.28V7.506h9.01ZM81.994 18.395h2.448V7.505h-2.448v10.89ZM95.403 18.395a55.473 55.473 0 0 0-2.275-3.696 38.938 38.938 0 0 0-2.605-3.44v7.136h-2.416V7.505h1.994c.345.349.727.771 1.146 1.276.418.5.845 1.036 1.279 1.61.434.572.865 1.16 1.294 1.774.429.614.831 1.203 1.208 1.77V7.509h2.434v10.89h-2.057l-.002-.003ZM106.427 9.39c-1.14 0-1.965.319-2.474.953-.508.634-.76 1.5-.76 2.598a5.2 5.2 0 0 0 .189 1.456c.125.432.313.807.565 1.119.252.318.565.561.942.734.377.172.815.254 1.317.254.272 0 .506-.004.699-.016.193-.004.364-.031.511-.061v-3.784h2.448v5.386c-.293.114-.763.239-1.412.37-.65.13-1.449.199-2.402.199-.818 0-1.558-.125-2.221-.38a4.572 4.572 0 0 1-1.703-1.098 4.864 4.864 0 0 1-1.09-1.775c-.257-.702-.384-1.504-.384-2.405 0-.9.141-1.718.425-2.415a5.237 5.237 0 0 1 1.163-1.787 4.963 4.963 0 0 1 1.734-1.11 5.983 5.983 0 0 1 2.125-.374c.513 0 .977.032 1.39.1.413.073.767.15 1.067.239.298.088.545.177.738.275.193.093.332.165.416.218l-.707 1.961a6.4 6.4 0 0 0-1.153-.463 4.95 4.95 0 0 0-1.421-.198l-.002.004ZM113.289 18.395V7.505h7.345v2.062h-4.898v2.134h4.349v2.01h-4.349v2.623h5.259v2.061h-7.706ZM127.28 9.47c-.178 0-.336.004-.479.015-.141.012-.275.025-.4.032v2.957h.69c.919 0 1.58-.113 1.978-.348.397-.229.597-.62.597-1.177s-.202-.911-.604-1.14c-.402-.223-.997-.34-1.782-.34Zm-.141-2.09c1.632 0 2.881.292 3.751.876.867.577 1.303 1.484 1.303 2.707 0 .766-.175 1.384-.527 1.864-.35.472-.856.847-1.514 1.125.22.27.449.584.69.931.241.355.479.719.715 1.098.236.384.464.782.684 1.198.22.411.422.818.61 1.218h-2.738c-.2-.359-.402-.718-.606-1.088a31.218 31.218 0 0 0-.631-1.069c-.216-.343-.427-.67-.638-.98a10.503 10.503 0 0 0-.632-.842h-1.207v3.977h-2.448V7.663a13.701 13.701 0 0 1 1.655-.218 21.64 21.64 0 0 1 1.53-.062l.003-.002ZM142.656 7.514h-.711v10.929h.711V7.513ZM20.968 5.14c-.68 0-1.344-.275-1.914-.79l-1.997-1.806a1.468 1.468 0 0 0-1.967 0l-1.998 1.807c-.57.516-1.235.789-1.914.789h-7.93v3.306h7.931c.68 0 1.344-.275 1.914-.79L15.09 5.85a1.468 1.468 0 0 1 1.967 0l1.998 1.807c.57.515 1.235.789 1.913.789h1.783V5.14h-1.783ZM20.968 11.75c-.68 0-1.344-.275-1.914-.79l-1.997-1.806a1.468 1.468 0 0 0-1.967 0l-1.998 1.806c-.57.516-1.235.79-1.914.79h-7.93v3.305h7.931c.68 0 1.344-.275 1.914-.789l1.997-1.807a1.468 1.468 0 0 1 1.967 0l1.998 1.807c.57.516 1.235.789 1.913.789h1.783v-3.306h-1.783ZM19.054 17.571c.57.515 1.235.79 1.914.79h1.783v3.305h-1.783c-.678 0-1.343-.273-1.913-.789l-1.998-1.807a1.468 1.468 0 0 0-1.967 0l-1.997 1.807c-.57.514-1.235.789-1.914.789H3.248V18.36h7.93c.68 0 1.344-.273 1.914-.789l1.997-1.806a1.468 1.468 0 0 1 1.967 0l1.998 1.806Z"></path></svg>