<svg xmlns="http://www.w3.org/2000/svg" width="122" height="60" fill="none" viewBox="0 0 122 60"><path fill="#7e7e7e" fill-rule="evenodd" d="M13.643 25.095a.83.83 0 0 0-.832.831v9.148c0 .459.373.831.832.831h2.91V38.4h-2.91a3.326 3.326 0 0 1-3.326-3.326v-9.148a3.326 3.326 0 0 1 3.326-3.326h2.91v2.495zM30.274 35.905c.46 0 .832-.372.832-.831v-9.148a.83.83 0 0 0-.832-.831h-2.91V22.6h2.91a3.326 3.326 0 0 1 3.327 3.326v9.148a3.326 3.326 0 0 1-3.327 3.326h-2.91v-2.495z" clip-rule="evenodd"/><path fill="#7e7e7e" d="M29.859 30.463a2.015 2.015 0 0 0-1.729-1.995 5 5 0 0 1-4.135-4.14 2.03 2.03 0 0 0-2-1.728h-.073a2.015 2.015 0 0 0-1.995 1.728 5 5 0 0 1-4.14 4.135 2.03 2.03 0 0 0-1.728 2v.074c0 1.002.735 1.852 1.728 1.995a5 5 0 0 1 4.135 4.14c.148.99.997 1.726 2 1.728h.074a2.015 2.015 0 0 0 1.994-1.728 5 5 0 0 1 4.14-4.135 2.03 2.03 0 0 0 1.729-2zm-2.963.067c0 .02-.027.037-.054.042a5.835 5.835 0 0 0-4.82 4.816c0 .027-.019.05-.034.05h-.062c-.02 0-.037-.028-.041-.055a5.83 5.83 0 0 0-4.817-4.819c-.027 0-.05-.02-.05-.034v-.062c0-.02.028-.037.055-.042a5.835 5.835 0 0 0 4.819-4.816c0-.028.02-.05.034-.05h.062c.02 0 .037.027.042.054a5.83 5.83 0 0 0 4.817 4.82c.027 0 .049.02.049.034zM51.726 22.6h2.717v15.561h-2.717v-6.805h-7.301v6.805h-2.717V22.6h2.717v6.329h7.301zM65.627 26.783v11.379H63.08v-1.214c-.637.758-1.592 1.452-3.035 1.452-2.335 0-3.778-1.625-3.778-4.075v-7.542h2.547v6.979c0 1.387.594 2.276 1.974 2.276 1.146 0 2.292-.867 2.292-2.493v-6.762zM69.98 31.486v6.676h-2.547V26.783h2.547v1.214c.616-.759 1.57-1.43 3.057-1.43 1.337 0 2.334.607 2.95 1.582.679-.737 1.74-1.582 3.46-1.582 2.292 0 3.777 1.647 3.777 4.096v7.499h-2.547v-6.74c0-1.41-.509-2.428-1.867-2.428-1.083 0-2.208.867-2.208 2.492v6.676h-2.547v-6.74c0-1.41-.509-2.428-1.867-2.428-1.083 0-2.208.867-2.208 2.492M88.131 38.357c-2.122 0-3.757-1.322-3.757-3.36 0-2.167 1.592-3.12 3.736-3.576l3.077-.65v-.195c0-1.084-.552-1.756-1.91-1.756-1.21 0-1.846.564-2.144 1.67l-2.398-.564c.552-1.886 2.186-3.36 4.648-3.36 2.674 0 4.288 1.3 4.288 3.923v4.899c0 .65.275.845.976.758v2.016c-1.847.217-2.823-.152-3.205-1.084-.7.802-1.868 1.279-3.311 1.279m3.056-4.205v-1.387l-2.398.52c-1.082.239-1.889.585-1.889 1.604 0 .889.637 1.387 1.613 1.387 1.358 0 2.674-.737 2.674-2.124M96.053 35.3v-6.307h-1.55v-2.21h1.55v-3.338h2.505v3.338h2.334v2.21h-2.334v5.896c0 1.018.573 1.127 1.485 1.127a8 8 0 0 0 1.04-.065v2.189c-.466.086-1.103.151-1.761.151-2.123 0-3.269-.671-3.269-2.99M105.304 38.357c-2.122 0-3.756-1.322-3.756-3.36 0-2.167 1.592-3.12 3.735-3.576l3.077-.65v-.195c0-1.084-.551-1.756-1.909-1.756-1.21 0-1.847.564-2.144 1.67l-2.398-.564c.551-1.886 2.186-3.36 4.647-3.36 2.675 0 4.288 1.3 4.288 3.923v4.899c0 .65.277.845.977.758v2.016c-1.847.217-2.824-.152-3.206-1.084-.7.802-1.867 1.279-3.311 1.279m3.056-4.205v-1.387l-2.397.52c-1.082.239-1.889.585-1.889 1.604 0 .889.637 1.387 1.612 1.387 1.359 0 2.674-.737 2.674-2.124"/></svg>