<svg xmlns="http://www.w3.org/2000/svg" width="106" height="60" fill="none" viewBox="0 0 106 60"><path fill="#7e7e7e" d="M10.637 50V12.764h10.11v15.054h.508l11.2-15.054h11.782L31.655 29.346 44.528 50H32.455l-8.363-13.964-3.346 4.364V50zM45.933 50V22.073h10.036V50zm5.018-30.836q-2.037 0-3.491-1.346t-1.455-3.236q0-1.89 1.455-3.237Q48.915 10 50.95 10q2.055 0 3.492 1.345 1.454 1.345 1.454 3.237 0 1.891-1.454 3.236-1.436 1.346-3.491 1.346M66.9 43.382l.074-11.927h1.309l6.763-9.382H86.32L74.974 36.69h-2.837zM57.884 50V12.764h10.036V50zm17.236 0-6.4-11.054 6.546-7.128L86.61 50z"/><path fill="#7e7e7e" d="M85.733 50V22.073h10.036V50zm5.018-30.836q-2.036 0-3.491-1.346t-1.455-3.236q0-1.89 1.455-3.237Q88.715 10 90.75 10q2.055 0 3.492 1.345 1.455 1.345 1.454 3.237 0 1.891-1.454 3.236-1.437 1.346-3.491 1.346"/></svg>