<svg width="107" height="60" viewBox="0 0 107 60" fill="none" xmlns="http://www.w3.org/2000/svg">
<path d="M86.6115 23.9407H90.4803L96.119 38.8606H92.2913L91.3858 36.2059H85.6237L84.7388 38.8606H80.9934L86.6115 23.9407ZM86.5909 33.3454H90.4392L88.5253 27.6656L86.5909 33.3454Z" fill="#7E7E7E"/>
<path d="M68.6029 23.9407H80.0449V27.0276H72.122V29.6412H79.6128V32.7486H72.122V35.7532H80.0449V38.8606H68.6029V23.9407Z" fill="#7E7E7E"/>
<path d="M59.4719 33.2425H57.0847V38.8606H53.5657V23.9407H59.3073C60.1304 23.9407 60.8644 23.9819 61.5092 24.0642C62.154 24.1465 62.7646 24.2906 63.3408 24.4964C63.9307 24.7022 64.4177 24.9766 64.8019 25.3196C65.1998 25.6625 65.5084 26.1084 65.728 26.6572C65.9612 27.1923 66.0778 27.8233 66.0778 28.5505C66.0778 30.5398 65.1037 31.9117 63.1556 32.6663L66.8392 38.8606H62.7028L59.4719 33.2425ZM57.0847 26.9041V30.2791H59.4102C60.3568 30.2791 61.0839 30.1625 61.5915 29.9293C62.0992 29.6823 62.353 29.2364 62.353 28.5916C62.353 27.9468 62.0923 27.5078 61.571 27.2746C61.0634 27.0276 60.3431 26.9041 59.4102 26.9041H57.0847Z" fill="#7E7E7E"/>
<path d="M42.2083 29.847L47.6206 23.9407H51.9216L46.4064 29.8881L52.2097 38.8606H47.9704L43.9369 32.5634L42.2083 34.4567V38.8606H38.6892V23.9407H42.2083V29.847Z" fill="#7E7E7E"/>
<path d="M13.5971 20.0302C15.55 19.8928 17.273 21.2525 17.5244 23.1294C17.7631 24.9123 16.5428 26.6368 14.7093 27.0405C14.2498 27.1417 13.739 27.1136 13.2527 27.1753C12.0692 27.3256 11.0558 27.8195 10.2125 28.657L10.2037 28.6615L10.1939 28.6607L10.1861 28.6548L10.1829 28.6457C10.1826 28.639 10.1843 28.6331 10.1881 28.628C10.1934 28.6204 10.196 28.6121 10.196 28.603C10.1845 27.2202 10.1809 25.546 10.1852 23.5803C10.189 21.7229 11.6565 20.1663 13.5971 20.0302Z" fill="#7E7E7E"/>
<path d="M13.8026 35.5575C11.3169 35.538 9.53506 33.0923 10.3997 30.8007C10.8766 29.5358 12.0541 28.6135 13.4497 28.4683C13.874 28.4243 14.3838 28.4356 14.7931 28.3594C16.8949 27.9688 18.5183 26.3614 18.8468 24.3148C18.9196 23.8607 18.8816 23.3194 18.9887 22.8376C19.4849 20.6078 22.0401 19.3565 24.1861 20.3646C25.3049 20.8909 26.0549 21.8844 26.2405 23.0713C26.2786 23.3147 26.291 23.6163 26.2775 23.9759C26.0342 30.4372 20.5159 35.611 13.8026 35.5575Z" fill="#7E7E7E"/>
<path d="M16.9332 36.5858C16.9219 36.5806 16.9143 36.5731 16.9102 36.5631L16.9092 36.5568L16.911 36.5507L16.915 36.5459C16.9168 36.5446 16.9188 36.5437 16.921 36.5431C19.4712 35.9594 21.6807 34.7852 23.5493 33.0202C23.5828 32.9885 23.6133 32.9909 23.6408 33.0275C23.9406 33.4222 24.2536 33.8464 24.5045 34.2516C25.5354 35.9157 26.1196 37.7182 26.2567 39.6591C26.2843 40.0504 26.2929 40.3527 26.2826 40.566C26.19 42.4519 24.6117 43.9735 22.6221 43.9849C20.8605 43.9944 19.3118 42.7926 18.9772 41.1113C18.8983 40.7134 18.9227 40.1621 18.8555 39.7416C18.6481 38.4476 18.0159 37.4005 16.9586 36.5999C16.9539 36.5959 16.9455 36.5912 16.9332 36.5858Z" fill="#7E7E7E"/>
<path d="M13.2066 43.9306C11.7105 43.6702 10.5066 42.5084 10.2388 41.0629C10.2021 40.8651 10.1838 40.5637 10.1838 40.1587C10.1835 38.5645 10.1832 36.9701 10.1829 35.3755C10.1829 35.3598 10.1888 35.3573 10.2007 35.3678C11.179 36.2375 12.2071 36.7688 13.5501 36.8573C13.5501 36.8573 13.6716 36.8615 13.9109 36.869C15.6594 36.9249 17.1405 38.0708 17.482 39.7354C17.9877 42.1967 15.7595 44.3748 13.2066 43.9306Z" fill="#7E7E7E"/>
</svg>
