<svg xmlns="http://www.w3.org/2000/svg" width="164" height="60" fill="none" viewBox="0 0 164 60"><g fill="#7e7e7e" clip-path="url(#a)"><path d="M47.027 24.422c-.634 0-1.23.245-1.676.691L43.55 26.91a2.36 2.36 0 0 0-.673 1.963c.064.53.297 1.007.673 1.381.26.259.546.423.894.537q.027.157.028.316c0 .477-.186.924-.522 1.259l-.11.11a3.9 3.9 0 0 1-1.558-.957c-.602-.6-1-1.358-1.15-2.19l-.02-.116-.092.074q-.093.075-.175.158l-1.802 1.797a2.363 2.363 0 0 0 1.676 4.034c.608 0 1.213-.23 1.675-.691l1.802-1.797a2.363 2.363 0 0 0 0-3.343 2.34 2.34 0 0 0-.872-.55 1.942 1.942 0 0 1 .552-1.705 4.1 4.1 0 0 1 1.59.99c.6.6.997 1.356 1.15 2.19l.02.116.092-.074q.092-.075.177-.16l1.801-1.796a2.362 2.362 0 0 0-1.676-4.034z"/><path d="M46.061 17.85H22.484C15.766 17.85 10.3 23.3 10.3 30s5.466 12.15 12.183 12.15h23.578c6.718 0 12.184-5.45 12.184-12.15S52.779 17.85 46.06 17.85M34.431 36.9c-.388.08-.825.094-1.122-.216-.11.252-.366.12-.563.087l-.052.146c-.656.044-1.148-.624-1.462-1.128-.62-.336-1.326-.54-1.961-.89-.037.578.09 1.294-.462 1.667-.028 1.112 1.686.132 1.843.96-.121.014-.257-.02-.354.074-.447.434-.96-.328-1.475-.013-.692.347-.762.632-1.618.703-.048-.071-.028-.119.012-.162.241-.28.258-.609.67-.728-.424-.067-.779.166-1.136.351-.464.19-.46-.428-1.174.033-.08-.065-.042-.123.004-.173.181-.22.42-.254.69-.241-1.325-.737-1.949.9-2.56.086-.185.048-.254.214-.37.33-.1-.109-.024-.242-.02-.37-.119-.056-.27-.083-.234-.274-.234-.079-.398.06-.572.191-.157-.121.106-.299.155-.425.14-.243.46-.05.621-.225.46-.261 1.103.163 1.63.091.405.051.907-.364.703-.779-.433-.552-.357-1.276-.366-1.936-.054-.386-.981-.877-1.25-1.292-.33-.374-.589-.808-.847-1.235-.932-1.8-.639-4.111-1.813-5.782-.531.293-1.223.154-1.681-.238-.248.224-.259.519-.278.83-.593-.59-.52-1.709-.045-2.367.194-.26.425-.474.683-.663.059-.042.078-.083.077-.149.47-2.104 3.669-1.699 4.68-.208.733.918.955 2.132 1.787 2.983 1.12 1.223 2.395 2.3 3.428 3.6.978 1.19 1.676 2.585 2.285 3.99.248.467.25 1.04.619 1.438.181.24 1.068.896.876 1.128.11.24.94.572.652.805m15.54-7.18-1.802 1.798a4.15 4.15 0 0 1-1.717 1.031l-.033.01-.012.032a4.1 4.1 0 0 1-.947 1.46l-1.802 1.797a4.14 4.14 0 0 1-2.944 1.215 4.15 4.15 0 0 1-2.945-7.089l1.802-1.796a4.1 4.1 0 0 1 1.714-1.028l.033-.01.012-.032c.21-.551.529-1.045.95-1.465l1.801-1.797a4.14 4.14 0 0 1 2.945-1.215c1.113 0 2.159.431 2.945 1.215a4.12 4.12 0 0 1 1.218 2.937c0 1.11-.432 2.154-1.218 2.936z"/><path d="M27.102 34.724c-.158.615-.21 1.661-1.011 1.692-.066.355.246.488.531.374.282-.129.416.102.51.332.436.063 1.079-.145 1.103-.659-.65-.373-.85-1.083-1.132-1.74zM69.532 24.219h-2.14v12.983h9.18v-2.068h-7.04zM87.331 37.202h2.14v-.023h.029l.004-.096c0-.027.008-.287-.031-.688v-4.832c0-1.818 1.325-2.645 2.557-2.645 1.325 0 1.97.714 1.97 2.183v6.1h2.14v-6.384c0-2.426-1.54-3.933-4.02-3.933-1.054 0-1.994.3-2.733.868l-.02-.69h-2.033v10.14zM104.851 27.807c-.744-.604-1.7-.923-2.779-.923-2.886 0-4.68 1.99-4.68 5.194s1.794 5.212 4.68 5.212c1.018 0 1.927-.277 2.642-.804-.061 1.572-1.046 2.505-2.659 2.505-1.358 0-2.125-.432-2.283-1.284l-.02-.106-2.08.635.02.085c.35 1.693 1.934 2.703 4.238 2.703 1.563 0 2.789-.425 3.645-1.265.863-.847 1.3-2.067 1.3-3.626v-9.07h-1.98l-.043.744zm-.134 4.36c0 1.935-.942 3.09-2.521 3.09-1.693 0-2.663-1.158-2.663-3.178s.971-3.161 2.663-3.161c1.541 0 2.506 1.15 2.521 3zM117.421 33.085c-.444 1.435-1.583 2.226-3.207 2.226-2.322 0-3.766-1.763-3.766-4.601s1.457-4.601 3.802-4.601c1.623 0 2.558.636 3.033 2.061l.222.667 2.021-.949-.189-.534c-.77-2.168-2.547-3.314-5.14-3.314-1.762 0-3.258.637-4.326 1.84-1.057 1.19-1.616 2.86-1.616 4.83 0 4.052 2.338 6.67 5.959 6.67 2.551 0 4.527-1.334 5.286-3.57l.193-.572-2.076-.79-.198.638zM125.414 26.884c-1.022 0-1.932.28-2.646.813v-4.723h-2.14v14.229h2.14v-5.639c0-1.83 1.325-2.663 2.558-2.663 1.324 0 1.969.715 1.969 2.184v6.119h2.141V30.8c0-2.378-1.578-3.914-4.021-3.914zM141.946 22.668c-.795 0-1.372.578-1.372 1.373 0 .794.577 1.372 1.372 1.372s1.372-.578 1.372-1.372-.577-1.373-1.372-1.373M149.568 26.884c-1.054 0-1.994.3-2.732.868l-.02-.69h-2.033v10.14h2.141v-5.639c0-1.818 1.325-2.645 2.557-2.645 1.325 0 1.969.714 1.969 2.183v6.1h2.141v-6.384c0-2.426-1.541-3.933-4.021-3.933zM142.986 27.062h-2.13v5.027a6 6 0 0 0-2.073-1.117v-.512c0-2.239-1.47-3.576-3.933-3.576-2 0-3.497.94-4.106 2.577l-.164.441 1.715 1.265.295-.767c.388-1.012 1.107-1.483 2.26-1.483 1.154 0 1.793.555 1.793 1.65v.056l-.208-.006c-2.291-.036-3.963.5-4.968 1.591-1.029 1.117-.939 2.37-.925 2.509l.009.096h.01c.16 1.562 1.524 2.565 3.507 2.565 1.092 0 2.101-.304 2.864-.86l.008.683h1.843v-3.172l-.04-.029c-.26-.19-.715-.437-1.398-.523a4 4 0 0 0-.608-.037h-.096v.292c0 .67-.77 1.614-2.485 1.614-1.266 0-1.455-.532-1.455-.85v-.032c.01-.142.07-.49.384-.815.4-.413 1.299-.896 3.315-.865 1.46.023 2.58.43 3.33 1.213.92.96 1.093 2.275 1.125 2.79v.415h2.129v-10.14zM81.797 26.84c-2 0-3.496.94-4.106 2.576l-.164.442 1.716 1.265.294-.767c.388-1.012 1.107-1.483 2.26-1.483 1.154 0 1.793.555 1.793 1.65v.256l-2.205.389c-2.584.457-3.894 1.562-3.894 3.282 0 1.721 1.383 2.884 3.523 2.884 1.093 0 2.101-.304 2.864-.86l.009.683h1.842v-6.74c0-2.24-1.47-3.577-3.932-3.577m1.793 5.945v.903c0 .671-.772 1.615-2.486 1.615-1.266 0-1.454-.532-1.454-.85 0-.282 0-.942 2.242-1.358z"/></g><defs><clipPath id="a"><path fill="#fff" d="M10.3 17.76h143.291v24.48H10.3z"/></clipPath></defs></svg>