<svg xmlns="http://www.w3.org/2000/svg" width="221" height="60" fill="none" viewBox="0 0 221 60"><g clip-path="url(#a)"><mask id="b" width="46" height="40" x="10" y="10" maskUnits="userSpaceOnUse" style="mask-type:alpha"><path fill="#fff" d="M33.095 49.978q-.675 0-1.357-.244a3.16 3.16 0 0 1-1.188-.748l-3.276-3.014q-6.624-6.12-11.63-11.818-5.007-5.699-5.007-12.117 0-5.128 3.444-8.571 3.443-3.444 8.533-3.444 2.901 0 5.652 1.338t4.828 4.164q2.265-2.825 4.904-4.164a12.2 12.2 0 0 1 5.577-1.338q5.09 0 8.534 3.444 3.443 3.444 3.443 8.57 0 6.42-4.997 12.128t-11.66 11.828l-3.255 2.994a3.16 3.16 0 0 1-1.188.748 4 4 0 0 1-1.358.244"/></mask><g mask="url(#b)"><path fill="#7e7e7e" d="M33.094 49.978q-.675 0-1.357-.244a3.16 3.16 0 0 1-1.188-.748l-3.276-3.014q-6.624-6.12-11.63-11.818-5.007-5.699-5.007-12.117 0-5.128 3.444-8.571 3.443-3.444 8.533-3.444 2.901 0 5.652 1.338t4.828 4.164q2.265-2.825 4.904-4.164a12.2 12.2 0 0 1 5.577-1.338q5.09 0 8.534 3.444 3.443 3.444 3.443 8.57 0 6.42-4.997 12.128-4.995 5.708-11.66 11.828l-3.255 2.994a3.16 3.16 0 0 1-1.188.748 4 4 0 0 1-1.358.244"/><g filter="url(#c)"><path fill="#7e7e7e" d="M55.984 54.359c-2.428-9.059-11.835-14.41-21.012-11.95-9.177 2.459-14.65 11.796-12.222 20.855 2.427 9.059 11.835 14.409 21.012 11.95s14.65-11.796 12.222-20.855"/></g><g filter="url(#d)"><path fill="#7e7e7e" d="M66.701 51.486c-2.427-9.059-11.835-14.409-21.012-11.95S31.04 51.332 33.467 60.391c2.428 9.059 11.835 14.41 21.012 11.95 9.178-2.459 14.65-11.796 12.222-20.855"/></g><g filter="url(#e)"><path fill="#7e7e7e" d="M39.514 35.79c-2.428-9.059-11.835-14.409-21.012-11.95C9.324 26.3 3.852 35.636 6.28 44.695c2.427 9.059 11.834 14.41 21.012 11.95C36.469 54.186 41.94 44.85 39.514 35.79"/></g><g filter="url(#f)"><path fill="#7e7e7e" d="M50.231 32.918c-2.427-9.06-11.834-14.41-21.012-11.95-9.177 2.459-14.649 11.796-12.222 20.854 2.428 9.06 11.835 14.41 21.013 11.95 9.177-2.459 14.649-11.796 12.221-20.854"/></g><g filter="url(#g)"><path fill="#7e7e7e" d="M-5.873 37.507c10.498.437 19.362-7.719 19.799-18.216S6.207-.07-4.29-.507-23.652 7.21-24.088 17.709c-.437 10.497 7.718 19.36 18.215 19.798"/></g><g filter="url(#h)"><path fill="#7e7e7e" d="M55.33 3.977C50.035-1.883 41.694-2.854 36.7 1.81c-4.995 4.664-4.75 13.197.544 19.058 5.296 5.86 13.637 6.831 18.631 2.167 4.995-4.664 4.75-13.197-.545-19.058"/></g><g filter="url(#i)" style="mix-blend-mode:hard-light"><path fill="#7e7e7e" d="M65.083 12.552c-5.97-6.607-15.37-7.704-20.995-2.45-5.626 5.255-5.348 14.87.621 21.477 5.97 6.607 15.37 7.704 20.995 2.45 5.627-5.255 5.348-14.87-.621-21.477"/></g></g><path fill="#7e7e7e" d="M200.665 24.72c6.084 0 9.736 3.868 9.736 10.735v1.043h-14.996c.305 3.086 2.565 4.868 5.651 4.868 2.868 0 4.868-1.608 5.998-2.738l2.694 3.868c-1.781 1.652-4.476 3.607-8.692 3.607-6.563 0-10.823-4.259-10.823-10.648 0-6.39 4.129-10.735 10.432-10.735m-.261 4.302c-2.565 0-4.433 1.26-4.868 4.043h9.475c-.174-2.565-1.999-4.043-4.607-4.043M181.275 15.03h5.346v30.424h-5.346zM168.063 46.106c-3.26 0-5.433-1.39-6.693-3.477h-.087v2.825h-5.346V15.03h5.346V28.2h.087c1.26-2.087 3.433-3.478 6.693-3.478 5.259 0 9.649 3.825 9.649 10.692s-4.39 10.692-9.649 10.692m-1.348-5.042c3.217 0 5.434-2.26 5.434-5.65s-2.217-5.65-5.434-5.65-5.432 2.26-5.432 5.65 2.216 5.65 5.432 5.65M139.153 46.104c-5.259 0-9.649-3.825-9.649-10.692 0-6.868 4.39-10.692 9.649-10.692 3.26 0 5.433 1.39 6.694 3.477h.087V25.37h5.302v20.08h-5.302v-2.825h-.087c-1.261 2.087-3.434 3.477-6.694 3.477m1.348-5.042c3.216 0 5.433-2.26 5.433-5.65s-2.217-5.65-5.433-5.65c-3.217 0-5.433 2.26-5.433 5.65s2.216 5.65 5.433 5.65M118.604 39.282l4.737-13.908h6.085l-8.215 20.08h-5.215l-8.171-20.08h6.041zM96.647 24.72c6.389 0 11.127 4.39 11.127 10.692s-4.738 10.691-11.127 10.691-11.127-4.39-11.127-10.691c0-6.303 4.738-10.692 11.127-10.692m0 5.041c-3.26 0-5.65 2.217-5.65 5.65s2.39 5.65 5.65 5.65 5.607-2.216 5.607-5.65c0-3.433-2.348-5.65-5.607-5.65M76.562 15.03h5.346v30.424H76.56z"/><mask id="j" width="46" height="40" x="10" y="10" maskUnits="userSpaceOnUse" style="mask-type:alpha"><path fill="#fff" d="M33.095 49.978q-.675 0-1.357-.244a3.16 3.16 0 0 1-1.188-.748l-3.276-3.014q-6.624-6.12-11.63-11.818-5.007-5.699-5.007-12.117 0-5.128 3.444-8.571 3.443-3.444 8.533-3.444 2.901 0 5.652 1.338t4.828 4.164q2.265-2.825 4.904-4.164a12.2 12.2 0 0 1 5.577-1.338q5.09 0 8.534 3.444 3.443 3.444 3.443 8.57 0 6.42-4.997 12.128t-11.66 11.828l-3.255 2.994a3.16 3.16 0 0 1-1.188.748 4 4 0 0 1-1.358.244"/></mask><g mask="url(#j)"><path fill="#7e7e7e" d="M33.094 49.978q-.675 0-1.357-.244a3.16 3.16 0 0 1-1.188-.748l-3.276-3.014q-6.624-6.12-11.63-11.818-5.007-5.699-5.007-12.117 0-5.128 3.444-8.571 3.443-3.444 8.533-3.444 2.901 0 5.652 1.338t4.828 4.164q2.265-2.825 4.904-4.164a12.2 12.2 0 0 1 5.577-1.338q5.09 0 8.534 3.444 3.443 3.444 3.443 8.57 0 6.42-4.997 12.128-4.995 5.708-11.66 11.828l-3.255 2.994a3.16 3.16 0 0 1-1.188.748 4 4 0 0 1-1.358.244"/><g filter="url(#k)"><path fill="#7e7e7e" d="M55.984 54.359c-2.428-9.059-11.835-14.41-21.012-11.95-9.177 2.459-14.65 11.796-12.222 20.855 2.427 9.059 11.835 14.409 21.012 11.95s14.65-11.796 12.222-20.855"/></g><g filter="url(#l)"><path fill="#7e7e7e" d="M66.701 51.486c-2.427-9.059-11.835-14.409-21.012-11.95S31.04 51.332 33.467 60.391c2.428 9.059 11.835 14.41 21.012 11.95 9.178-2.459 14.65-11.796 12.222-20.855"/></g><g filter="url(#m)"><path fill="#7e7e7e" d="M39.514 35.79c-2.428-9.059-11.835-14.409-21.012-11.95C9.324 26.3 3.852 35.636 6.28 44.695c2.427 9.059 11.834 14.41 21.012 11.95C36.469 54.186 41.94 44.85 39.514 35.79"/></g><g filter="url(#n)"><path fill="#7e7e7e" d="M50.231 32.918c-2.427-9.06-11.834-14.41-21.012-11.95-9.177 2.459-14.649 11.796-12.222 20.854 2.428 9.06 11.835 14.41 21.013 11.95 9.177-2.459 14.649-11.796 12.221-20.854"/></g><g filter="url(#o)"><path fill="#7e7e7e" d="M-5.873 37.507c10.498.437 19.362-7.719 19.799-18.216S6.207-.07-4.29-.507-23.652 7.21-24.088 17.709c-.437 10.497 7.718 19.36 18.215 19.798"/></g><g filter="url(#p)"><path fill="#7e7e7e" d="M55.33 3.977C50.035-1.883 41.694-2.854 36.7 1.81c-4.995 4.664-4.75 13.197.544 19.058 5.296 5.86 13.637 6.831 18.631 2.167 4.995-4.664 4.75-13.197-.545-19.058"/></g><g filter="url(#q)" style="mix-blend-mode:hard-light"><path fill="#7e7e7e" d="M65.083 12.552c-5.97-6.607-15.37-7.704-20.995-2.45-5.626 5.255-5.348 14.87.621 21.477 5.97 6.607 15.37 7.704 20.995 2.45 5.627-5.255 5.348-14.87-.621-21.477"/></g></g><path fill="#7e7e7e" d="M200.756 24.72c6.085 0 9.736 3.868 9.736 10.735v1.043h-14.995c.304 3.086 2.564 4.868 5.65 4.868 2.869 0 4.868-1.608 5.998-2.738l2.695 3.868c-1.782 1.652-4.477 3.607-8.693 3.607-6.563 0-10.822-4.259-10.822-10.648 0-6.39 4.129-10.735 10.431-10.735m-.261 4.302c-2.564 0-4.433 1.26-4.868 4.043h9.475c-.174-2.565-1.999-4.043-4.607-4.043M181.354 15.03h5.345v30.424h-5.345zM168.141 46.106c-3.26 0-5.433-1.39-6.693-3.477h-.087v2.825h-5.346V15.03h5.346V28.2h.087c1.26-2.087 3.433-3.478 6.693-3.478 5.259 0 9.649 3.825 9.649 10.692s-4.39 10.692-9.649 10.692m-1.347-5.042c3.216 0 5.433-2.26 5.433-5.65s-2.217-5.65-5.433-5.65c-3.217 0-5.433 2.26-5.433 5.65s2.216 5.65 5.433 5.65M139.231 46.104c-5.259 0-9.648-3.825-9.648-10.692 0-6.868 4.389-10.692 9.648-10.692 3.26 0 5.433 1.39 6.694 3.477h.087V25.37h5.302v20.08h-5.302v-2.825h-.087c-1.261 2.087-3.434 3.477-6.694 3.477m1.348-5.042c3.216 0 5.433-2.26 5.433-5.65s-2.217-5.65-5.433-5.65-5.433 2.26-5.433 5.65 2.217 5.65 5.433 5.65M118.695 39.282l4.738-13.908h6.084l-8.214 20.08h-5.216l-8.171-20.08h6.042zM96.738 24.72c6.389 0 11.127 4.39 11.127 10.692s-4.738 10.691-11.127 10.691-11.127-4.39-11.127-10.691c0-6.303 4.738-10.692 11.127-10.692m0 5.041c-3.26 0-5.65 2.217-5.65 5.65s2.39 5.65 5.65 5.65 5.607-2.216 5.607-5.65c0-3.433-2.347-5.65-5.607-5.65M76.64 15.03h5.346v30.424H76.64zM33.095 49.978q-.675 0-1.357-.244a3.16 3.16 0 0 1-1.188-.748l-3.276-3.014q-6.624-6.12-11.63-11.818-5.007-5.699-5.007-12.117 0-5.128 3.444-8.571 3.443-3.444 8.533-3.444 2.901 0 5.652 1.338t4.828 4.164q2.265-2.825 4.904-4.164a12.2 12.2 0 0 1 5.577-1.338q5.09 0 8.534 3.444 3.443 3.444 3.443 8.57 0 6.42-4.997 12.128t-11.66 11.828l-3.255 2.994a3.16 3.16 0 0 1-1.188.748 4 4 0 0 1-1.358.244"/><path fill="#7e7e7e" d="M200.756 24.72c6.085 0 9.736 3.868 9.736 10.735v1.043h-14.995c.304 3.086 2.564 4.868 5.65 4.868 2.869 0 4.868-1.608 5.998-2.738l2.695 3.868c-1.782 1.652-4.477 3.607-8.693 3.607-6.563 0-10.822-4.259-10.822-10.648 0-6.39 4.129-10.735 10.431-10.735m-.261 4.302c-2.564 0-4.433 1.26-4.868 4.043h9.475c-.174-2.565-1.999-4.043-4.607-4.043M181.354 15.03h5.345v30.424h-5.345zM168.141 46.106c-3.26 0-5.433-1.39-6.693-3.477h-.087v2.825h-5.346V15.03h5.346V28.2h.087c1.26-2.087 3.433-3.478 6.693-3.478 5.259 0 9.649 3.825 9.649 10.692s-4.39 10.692-9.649 10.692m-1.347-5.042c3.216 0 5.433-2.26 5.433-5.65s-2.217-5.65-5.433-5.65c-3.217 0-5.433 2.26-5.433 5.65s2.216 5.65 5.433 5.65M139.231 46.104c-5.259 0-9.648-3.825-9.648-10.692 0-6.868 4.389-10.692 9.648-10.692 3.26 0 5.433 1.39 6.694 3.477h.087V25.37h5.302v20.08h-5.302v-2.825h-.087c-1.261 2.087-3.434 3.477-6.694 3.477m1.348-5.042c3.216 0 5.433-2.26 5.433-5.65s-2.217-5.65-5.433-5.65-5.433 2.26-5.433 5.65 2.217 5.65 5.433 5.65M118.695 39.282l4.738-13.908h6.084l-8.214 20.08h-5.216l-8.171-20.08h6.042zM96.738 24.72c6.389 0 11.127 4.39 11.127 10.692s-4.738 10.691-11.127 10.691-11.127-4.39-11.127-10.691c0-6.303 4.738-10.692 11.127-10.692m0 5.041c-3.26 0-5.65 2.217-5.65 5.65s2.39 5.65 5.65 5.65 5.607-2.216 5.607-5.65c0-3.433-2.347-5.65-5.607-5.65M76.64 15.03h5.346v30.424H76.64z"/></g><defs><filter id="c" width="66.35" height="65.965" x="6.192" y="25.829" color-interpolation-filters="sRGB" filterUnits="userSpaceOnUse"><feFlood flood-opacity="0" result="BackgroundImageFix"/><feBlend in="SourceGraphic" in2="BackgroundImageFix" result="shape"/><feGaussianBlur result="effect1_foregroundBlur_2801_869" stdDeviation="7.991"/></filter><filter id="d" width="66.35" height="65.965" x="16.909" y="22.956" color-interpolation-filters="sRGB" filterUnits="userSpaceOnUse"><feFlood flood-opacity="0" result="BackgroundImageFix"/><feBlend in="SourceGraphic" in2="BackgroundImageFix" result="shape"/><feGaussianBlur result="effect1_foregroundBlur_2801_869" stdDeviation="7.991"/></filter><filter id="e" width="66.35" height="65.965" x="-10.278" y="7.26" color-interpolation-filters="sRGB" filterUnits="userSpaceOnUse"><feFlood flood-opacity="0" result="BackgroundImageFix"/><feBlend in="SourceGraphic" in2="BackgroundImageFix" result="shape"/><feGaussianBlur result="effect1_foregroundBlur_2801_869" stdDeviation="7.991"/></filter><filter id="f" width="66.35" height="65.965" x=".44" y="4.387" color-interpolation-filters="sRGB" filterUnits="userSpaceOnUse"><feFlood flood-opacity="0" result="BackgroundImageFix"/><feBlend in="SourceGraphic" in2="BackgroundImageFix" result="shape"/><feGaussianBlur result="effect1_foregroundBlur_2801_869" stdDeviation="7.991"/></filter><filter id="g" width="94.874" height="94.874" x="-52.518" y="-28.937" color-interpolation-filters="sRGB" filterUnits="userSpaceOnUse"><feFlood flood-opacity="0" result="BackgroundImageFix"/><feBlend in="SourceGraphic" in2="BackgroundImageFix" result="shape"/><feGaussianBlur result="effect1_foregroundBlur_2801_869" stdDeviation="14.206"/></filter><filter id="h" width="58.324" height="59.091" x="17.126" y="-17.123" color-interpolation-filters="sRGB" filterUnits="userSpaceOnUse"><feFlood flood-opacity="0" result="BackgroundImageFix"/><feBlend in="SourceGraphic" in2="BackgroundImageFix" result="shape"/><feGaussianBlur result="effect1_foregroundBlur_2801_869" stdDeviation="7.991"/></filter><filter id="i" width="61.67" height="62.535" x="24.061" y="-9.202" color-interpolation-filters="sRGB" filterUnits="userSpaceOnUse"><feFlood flood-opacity="0" result="BackgroundImageFix"/><feBlend in="SourceGraphic" in2="BackgroundImageFix" result="shape"/><feGaussianBlur result="effect1_foregroundBlur_2801_869" stdDeviation="7.991"/></filter><filter id="k" width="66.35" height="65.965" x="6.192" y="25.829" color-interpolation-filters="sRGB" filterUnits="userSpaceOnUse"><feFlood flood-opacity="0" result="BackgroundImageFix"/><feBlend in="SourceGraphic" in2="BackgroundImageFix" result="shape"/><feGaussianBlur result="effect1_foregroundBlur_2801_869" stdDeviation="7.991"/></filter><filter id="l" width="66.35" height="65.965" x="16.909" y="22.956" color-interpolation-filters="sRGB" filterUnits="userSpaceOnUse"><feFlood flood-opacity="0" result="BackgroundImageFix"/><feBlend in="SourceGraphic" in2="BackgroundImageFix" result="shape"/><feGaussianBlur result="effect1_foregroundBlur_2801_869" stdDeviation="7.991"/></filter><filter id="m" width="66.35" height="65.965" x="-10.278" y="7.26" color-interpolation-filters="sRGB" filterUnits="userSpaceOnUse"><feFlood flood-opacity="0" result="BackgroundImageFix"/><feBlend in="SourceGraphic" in2="BackgroundImageFix" result="shape"/><feGaussianBlur result="effect1_foregroundBlur_2801_869" stdDeviation="7.991"/></filter><filter id="n" width="66.35" height="65.965" x=".44" y="4.387" color-interpolation-filters="sRGB" filterUnits="userSpaceOnUse"><feFlood flood-opacity="0" result="BackgroundImageFix"/><feBlend in="SourceGraphic" in2="BackgroundImageFix" result="shape"/><feGaussianBlur result="effect1_foregroundBlur_2801_869" stdDeviation="7.991"/></filter><filter id="o" width="94.874" height="94.874" x="-52.518" y="-28.937" color-interpolation-filters="sRGB" filterUnits="userSpaceOnUse"><feFlood flood-opacity="0" result="BackgroundImageFix"/><feBlend in="SourceGraphic" in2="BackgroundImageFix" result="shape"/><feGaussianBlur result="effect1_foregroundBlur_2801_869" stdDeviation="14.206"/></filter><filter id="p" width="58.324" height="59.091" x="17.126" y="-17.123" color-interpolation-filters="sRGB" filterUnits="userSpaceOnUse"><feFlood flood-opacity="0" result="BackgroundImageFix"/><feBlend in="SourceGraphic" in2="BackgroundImageFix" result="shape"/><feGaussianBlur result="effect1_foregroundBlur_2801_869" stdDeviation="7.991"/></filter><filter id="q" width="61.67" height="62.535" x="24.061" y="-9.202" color-interpolation-filters="sRGB" filterUnits="userSpaceOnUse"><feFlood flood-opacity="0" result="BackgroundImageFix"/><feBlend in="SourceGraphic" in2="BackgroundImageFix" result="shape"/><feGaussianBlur result="effect1_foregroundBlur_2801_869" stdDeviation="7.991"/></filter><clipPath id="a"><path fill="#fff" d="M10.637 10h200v40h-200z"/></clipPath></defs></svg>