<svg width="221" height="60" viewBox="0 0 221 60" fill="none" xmlns="http://www.w3.org/2000/svg">
<g clip-path="url(#clip0_2801_869)">
<mask id="mask0_2801_869" style="mask-type:alpha" maskUnits="userSpaceOnUse" x="10" y="10" width="46" height="40">
<path d="M33.0945 49.9778C32.6454 49.9778 32.1931 49.8966 31.7376 49.7341C31.2825 49.5721 30.8865 49.3226 30.5496 48.9858L27.2742 45.9725C22.8576 41.8928 18.9807 37.9534 15.6435 34.1543C12.306 30.3553 10.6372 26.3162 10.6372 22.0369C10.6372 18.6185 11.785 15.7614 14.0805 13.4655C16.3764 11.17 19.221 10.0222 22.6143 10.0222C24.5482 10.0222 26.4322 10.4682 28.2662 11.3601C30.1003 12.2524 31.7097 13.6405 33.0945 15.5243C34.6041 13.6405 36.2385 12.2524 37.9977 11.3601C39.7569 10.4682 41.6159 10.0222 43.5748 10.0222C46.9682 10.0222 49.8128 11.17 52.1087 13.4655C54.4041 15.7614 55.552 18.6185 55.552 22.0369C55.552 26.3162 53.8865 30.3585 50.5553 34.1638C47.2241 37.9694 43.3375 41.9119 38.8958 45.9916L35.6397 48.9858C35.3027 49.3226 34.9067 49.5721 34.4516 49.7341C33.9961 49.8966 33.5438 49.9778 33.0945 49.9778Z" fill="white"/>
</mask>
<g mask="url(#mask0_2801_869)">
<path d="M33.0935 49.9778C32.6445 49.9778 32.1921 49.8966 31.7366 49.7341C31.2815 49.5721 30.8855 49.3226 30.5486 48.9858L27.2732 45.9725C22.8566 41.8928 18.9797 37.9534 15.6425 34.1543C12.305 30.3553 10.6362 26.3162 10.6362 22.0369C10.6362 18.6185 11.784 15.7614 14.0795 13.4655C16.3754 11.17 19.22 10.0222 22.6133 10.0222C24.5473 10.0222 26.4313 10.4682 28.2653 11.3601C30.0993 12.2524 31.7087 13.6405 33.0935 15.5243C34.6032 13.6405 36.2376 12.2524 37.9967 11.3601C39.7559 10.4682 41.6149 10.0222 43.5739 10.0222C46.9672 10.0222 49.8118 11.17 52.1077 13.4655C54.4032 15.7614 55.551 18.6185 55.551 22.0369C55.551 26.3162 53.8855 30.3585 50.5543 34.1638C47.2231 37.9694 43.3366 41.9119 38.8948 45.9916L35.6387 48.9858C35.3017 49.3226 34.9057 49.5721 34.4507 49.7341C33.9952 49.8966 33.5428 49.9778 33.0935 49.9778Z" fill="#7E7E7E"/>
<g filter="url(#filter0_f_2801_869)">
<path d="M55.9838 54.3589C53.5565 45.3 44.1491 39.9498 34.9719 42.4089C25.7946 44.8679 20.3227 54.205 22.75 63.2639C25.1773 72.3227 34.5847 77.6729 43.7619 75.2139C52.9392 72.7548 58.4111 63.4177 55.9838 54.3589Z" fill="#7E7E7E"/>
</g>
<g filter="url(#filter1_f_2801_869)">
<path d="M66.7011 51.4862C64.2738 42.4273 54.8664 37.0771 45.6891 39.5362C36.5119 41.9952 31.04 51.3323 33.4673 60.3912C35.8946 69.45 45.302 74.8003 54.4792 72.3412C63.6565 69.8822 69.1284 60.5451 66.7011 51.4862Z" fill="#7E7E7E"/>
</g>
<g filter="url(#filter2_f_2801_869)">
<path d="M39.5136 35.7902C37.0863 26.7313 27.6789 21.3811 18.5016 23.8401C9.32438 26.2992 3.85245 35.6363 6.27976 44.6951C8.70708 53.754 18.1145 59.1042 27.2917 56.6452C36.469 54.1861 41.9409 44.849 39.5136 35.7902Z" fill="#7E7E7E"/>
</g>
<g filter="url(#filter3_f_2801_869)">
<path d="M50.2314 32.9175C47.8041 23.8586 38.3967 18.5084 29.2194 20.9675C20.0421 23.4265 14.5702 32.7636 16.9975 41.8225C19.4249 50.8813 28.8322 56.2315 38.0095 53.7725C47.1868 51.3134 52.6587 41.9763 50.2314 32.9175Z" fill="#7E7E7E"/>
</g>
<g filter="url(#filter4_f_2801_869)">
<path d="M-5.87258 37.5069C4.62475 37.9438 13.4887 29.7883 13.9257 19.2909C14.3626 8.79362 6.20706 -0.0703615 -4.29027 -0.507305C-14.7876 -0.944249 -23.6516 7.2113 -24.0885 17.7086C-24.5255 28.206 -16.3699 37.0699 -5.87258 37.5069Z" fill="#7E7E7E"/>
</g>
<g filter="url(#filter5_f_2801_869)">
<path d="M55.3303 3.97713C50.035 -1.88388 41.6937 -2.85405 36.6994 1.81018C31.7052 6.47441 31.9492 15.0068 37.2445 20.8678C42.5398 26.7288 50.8812 27.699 55.8754 23.0348C60.8696 18.3705 60.6256 9.83814 55.3303 3.97713Z" fill="#7E7E7E"/>
</g>
<g style="mix-blend-mode:hard-light" filter="url(#filter6_f_2801_869)">
<path d="M65.083 12.5518C59.1137 5.94471 49.7137 4.8481 44.0876 10.1024C38.4615 15.3567 38.7398 24.9723 44.7091 31.5794C50.6785 38.1864 60.0784 39.283 65.7045 34.0287C71.3306 28.7744 71.0523 19.1588 65.083 12.5518Z" fill="#7E7E7E"/>
</g>
</g>
<path d="M200.665 24.7195C206.749 24.7195 210.401 28.5877 210.401 35.4549V36.4982H195.405C195.71 39.5841 197.97 41.3661 201.056 41.3661C203.924 41.3661 205.924 39.7579 207.054 38.6278L209.748 42.496C207.967 44.1477 205.272 46.1035 201.056 46.1035C194.493 46.1035 190.233 41.844 190.233 35.4549C190.233 29.0659 194.362 24.7195 200.665 24.7195ZM200.404 29.0224C197.839 29.0224 195.971 30.2828 195.536 33.0645H205.011C204.837 30.5001 203.012 29.0224 200.404 29.0224Z" fill="#7E7E7E"/>
<path d="M181.275 15.0297H186.621V45.4542H181.275V15.0297Z" fill="#7E7E7E"/>
<path d="M168.063 46.1061C164.803 46.1061 162.63 44.7152 161.37 42.6291H161.283V45.4542H155.937V15.0297H161.283V28.1991H161.37C162.63 26.1129 164.803 24.722 168.063 24.722C173.322 24.722 177.712 28.5468 177.712 35.414C177.712 42.2813 173.322 46.1061 168.063 46.1061ZM166.715 41.0644C169.932 41.0644 172.149 38.8042 172.149 35.414C172.149 32.0239 169.932 29.7638 166.715 29.7638C163.499 29.7638 161.283 32.0239 161.283 35.414C161.283 38.8042 163.499 41.0644 166.715 41.0644Z" fill="#7E7E7E"/>
<path d="M139.153 46.1035C133.894 46.1035 129.504 42.2787 129.504 35.4116C129.504 28.5443 133.894 24.7195 139.153 24.7195C142.413 24.7195 144.586 26.1103 145.847 28.1966H145.934V25.3714H151.236V45.4516H145.934V42.6265H145.847C144.586 44.7126 142.413 46.1035 139.153 46.1035ZM140.501 41.0618C143.717 41.0618 145.934 38.8016 145.934 35.4116C145.934 32.0214 143.717 29.7613 140.501 29.7613C137.284 29.7613 135.068 32.0214 135.068 35.4116C135.068 38.8016 137.284 41.0618 140.501 41.0618Z" fill="#7E7E7E"/>
<path d="M118.604 39.2823L123.341 25.374H129.426L121.211 45.4541H115.996L107.825 25.374H113.866L118.604 39.2823Z" fill="#7E7E7E"/>
<path d="M96.6468 24.7195C103.036 24.7195 107.774 29.1093 107.774 35.4116C107.774 41.7137 103.036 46.1035 96.6468 46.1035C90.2576 46.1035 85.52 41.7137 85.52 35.4116C85.52 29.1093 90.2576 24.7195 96.6468 24.7195ZM96.6468 29.7613C93.3871 29.7613 90.9966 31.9779 90.9966 35.4116C90.9966 38.8451 93.3871 41.0618 96.6468 41.0618C99.9065 41.0618 102.254 38.8451 102.254 35.4116C102.254 31.9779 99.9065 29.7613 96.6468 29.7613Z" fill="#7E7E7E"/>
<path d="M76.5615 15.0297H81.9076V45.4542H76.5615V15.0297Z" fill="#7E7E7E"/>
<mask id="mask1_2801_869" style="mask-type:alpha" maskUnits="userSpaceOnUse" x="10" y="10" width="46" height="40">
<path d="M33.0945 49.9778C32.6454 49.9778 32.1931 49.8966 31.7376 49.7341C31.2825 49.5721 30.8865 49.3226 30.5496 48.9858L27.2742 45.9725C22.8576 41.8928 18.9807 37.9534 15.6435 34.1543C12.306 30.3553 10.6372 26.3162 10.6372 22.0369C10.6372 18.6185 11.785 15.7614 14.0805 13.4655C16.3764 11.17 19.221 10.0222 22.6143 10.0222C24.5482 10.0222 26.4322 10.4682 28.2662 11.3601C30.1003 12.2524 31.7097 13.6405 33.0945 15.5243C34.6041 13.6405 36.2385 12.2524 37.9977 11.3601C39.7569 10.4682 41.6159 10.0222 43.5748 10.0222C46.9682 10.0222 49.8128 11.17 52.1087 13.4655C54.4041 15.7614 55.552 18.6185 55.552 22.0369C55.552 26.3162 53.8865 30.3585 50.5553 34.1638C47.2241 37.9694 43.3375 41.9119 38.8958 45.9916L35.6397 48.9858C35.3027 49.3226 34.9067 49.5721 34.4516 49.7341C33.9961 49.8966 33.5438 49.9778 33.0945 49.9778Z" fill="white"/>
</mask>
<g mask="url(#mask1_2801_869)">
<path d="M33.0935 49.9778C32.6445 49.9778 32.1921 49.8966 31.7366 49.7341C31.2815 49.5721 30.8855 49.3226 30.5486 48.9858L27.2732 45.9725C22.8566 41.8928 18.9797 37.9534 15.6425 34.1543C12.305 30.3553 10.6362 26.3162 10.6362 22.0369C10.6362 18.6185 11.784 15.7614 14.0795 13.4655C16.3754 11.17 19.22 10.0222 22.6133 10.0222C24.5473 10.0222 26.4313 10.4682 28.2653 11.3601C30.0993 12.2524 31.7087 13.6405 33.0935 15.5243C34.6032 13.6405 36.2376 12.2524 37.9967 11.3601C39.7559 10.4682 41.6149 10.0222 43.5739 10.0222C46.9672 10.0222 49.8118 11.17 52.1077 13.4655C54.4032 15.7614 55.551 18.6185 55.551 22.0369C55.551 26.3162 53.8855 30.3585 50.5543 34.1638C47.2231 37.9694 43.3366 41.9119 38.8948 45.9916L35.6387 48.9858C35.3017 49.3226 34.9057 49.5721 34.4507 49.7341C33.9952 49.8966 33.5428 49.9778 33.0935 49.9778Z" fill="#7E7E7E"/>
<g filter="url(#filter7_f_2801_869)">
<path d="M55.9838 54.3589C53.5565 45.3 44.1491 39.9498 34.9719 42.4089C25.7946 44.8679 20.3227 54.205 22.75 63.2639C25.1773 72.3227 34.5847 77.6729 43.7619 75.2139C52.9392 72.7548 58.4111 63.4177 55.9838 54.3589Z" fill="#7E7E7E"/>
</g>
<g filter="url(#filter8_f_2801_869)">
<path d="M66.7011 51.4862C64.2738 42.4273 54.8664 37.0771 45.6891 39.5362C36.5119 41.9952 31.04 51.3323 33.4673 60.3912C35.8946 69.45 45.302 74.8003 54.4792 72.3412C63.6565 69.8822 69.1284 60.5451 66.7011 51.4862Z" fill="#7E7E7E"/>
</g>
<g filter="url(#filter9_f_2801_869)">
<path d="M39.5136 35.7902C37.0863 26.7313 27.6789 21.3811 18.5016 23.8401C9.32438 26.2992 3.85245 35.6363 6.27976 44.6951C8.70708 53.754 18.1145 59.1042 27.2917 56.6452C36.469 54.1861 41.9409 44.849 39.5136 35.7902Z" fill="#7E7E7E"/>
</g>
<g filter="url(#filter10_f_2801_869)">
<path d="M50.2314 32.9175C47.8041 23.8586 38.3967 18.5084 29.2194 20.9675C20.0421 23.4265 14.5702 32.7636 16.9975 41.8225C19.4249 50.8813 28.8322 56.2315 38.0095 53.7725C47.1868 51.3134 52.6587 41.9763 50.2314 32.9175Z" fill="#7E7E7E"/>
</g>
<g filter="url(#filter11_f_2801_869)">
<path d="M-5.87258 37.5069C4.62475 37.9438 13.4887 29.7883 13.9257 19.2909C14.3626 8.79362 6.20706 -0.0703615 -4.29027 -0.507305C-14.7876 -0.944249 -23.6516 7.2113 -24.0885 17.7086C-24.5255 28.206 -16.3699 37.0699 -5.87258 37.5069Z" fill="#7E7E7E"/>
</g>
<g filter="url(#filter12_f_2801_869)">
<path d="M55.3303 3.97713C50.035 -1.88388 41.6937 -2.85405 36.6994 1.81018C31.7052 6.47441 31.9492 15.0068 37.2445 20.8678C42.5398 26.7288 50.8812 27.699 55.8754 23.0348C60.8696 18.3705 60.6256 9.83814 55.3303 3.97713Z" fill="#7E7E7E"/>
</g>
<g style="mix-blend-mode:hard-light" filter="url(#filter13_f_2801_869)">
<path d="M65.083 12.5518C59.1137 5.94471 49.7137 4.8481 44.0876 10.1024C38.4615 15.3567 38.7398 24.9723 44.7091 31.5794C50.6785 38.1864 60.0784 39.283 65.7045 34.0287C71.3306 28.7744 71.0523 19.1588 65.083 12.5518Z" fill="#7E7E7E"/>
</g>
</g>
<path d="M200.756 24.7195C206.841 24.7195 210.492 28.5877 210.492 35.4549V36.4982H195.497C195.801 39.5841 198.061 41.3661 201.147 41.3661C204.016 41.3661 206.015 39.7579 207.145 38.6278L209.84 42.496C208.058 44.1477 205.363 46.1035 201.147 46.1035C194.584 46.1035 190.325 41.844 190.325 35.4549C190.325 29.0659 194.454 24.7195 200.756 24.7195ZM200.495 29.0224C197.931 29.0224 196.062 30.2828 195.627 33.0645H205.102C204.928 30.5001 203.103 29.0224 200.495 29.0224Z" fill="#7E7E7E"/>
<path d="M181.354 15.0297H186.699V45.4542H181.354V15.0297Z" fill="#7E7E7E"/>
<path d="M168.141 46.1061C164.881 46.1061 162.708 44.7152 161.448 42.6291H161.361V45.4542H156.015V15.0297H161.361V28.1991H161.448C162.708 26.1129 164.881 24.722 168.141 24.722C173.4 24.722 177.79 28.5468 177.79 35.414C177.79 42.2813 173.4 46.1061 168.141 46.1061ZM166.794 41.0644C170.01 41.0644 172.227 38.8042 172.227 35.414C172.227 32.0239 170.01 29.7638 166.794 29.7638C163.577 29.7638 161.361 32.0239 161.361 35.414C161.361 38.8042 163.577 41.0644 166.794 41.0644Z" fill="#7E7E7E"/>
<path d="M139.231 46.1035C133.972 46.1035 129.583 42.2787 129.583 35.4116C129.583 28.5443 133.972 24.7195 139.231 24.7195C142.491 24.7195 144.664 26.1103 145.925 28.1966H146.012V25.3714H151.314V45.4516H146.012V42.6265H145.925C144.664 44.7126 142.491 46.1035 139.231 46.1035ZM140.579 41.0618C143.795 41.0618 146.012 38.8016 146.012 35.4116C146.012 32.0214 143.795 29.7613 140.579 29.7613C137.363 29.7613 135.146 32.0214 135.146 35.4116C135.146 38.8016 137.363 41.0618 140.579 41.0618Z" fill="#7E7E7E"/>
<path d="M118.695 39.2823L123.433 25.374H129.517L121.303 45.4541H116.087L107.916 25.374H113.958L118.695 39.2823Z" fill="#7E7E7E"/>
<path d="M96.7381 24.7195C103.127 24.7195 107.865 29.1093 107.865 35.4116C107.865 41.7137 103.127 46.1035 96.7381 46.1035C90.349 46.1035 85.6113 41.7137 85.6113 35.4116C85.6113 29.1093 90.349 24.7195 96.7381 24.7195ZM96.7381 29.7613C93.4784 29.7613 91.0879 31.9779 91.0879 35.4116C91.0879 38.8451 93.4784 41.0618 96.7381 41.0618C99.9978 41.0618 102.345 38.8451 102.345 35.4116C102.345 31.9779 99.9978 29.7613 96.7381 29.7613Z" fill="#7E7E7E"/>
<path d="M76.6396 15.0297H81.9857V45.4542H76.6396V15.0297Z" fill="#7E7E7E"/>
<path d="M33.0945 49.9778C32.6454 49.9778 32.1931 49.8966 31.7376 49.7341C31.2825 49.5721 30.8865 49.3226 30.5496 48.9858L27.2742 45.9725C22.8576 41.8928 18.9807 37.9534 15.6435 34.1543C12.306 30.3553 10.6372 26.3162 10.6372 22.0369C10.6372 18.6185 11.785 15.7614 14.0805 13.4655C16.3764 11.17 19.221 10.0222 22.6143 10.0222C24.5482 10.0222 26.4322 10.4682 28.2662 11.3601C30.1003 12.2524 31.7097 13.6405 33.0945 15.5243C34.6041 13.6405 36.2385 12.2524 37.9977 11.3601C39.7569 10.4682 41.6159 10.0222 43.5748 10.0222C46.9682 10.0222 49.8128 11.17 52.1087 13.4655C54.4041 15.7614 55.552 18.6185 55.552 22.0369C55.552 26.3162 53.8865 30.3585 50.5553 34.1638C47.2241 37.9694 43.3375 41.9119 38.8958 45.9916L35.6397 48.9858C35.3027 49.3226 34.9067 49.5721 34.4516 49.7341C33.9961 49.8966 33.5438 49.9778 33.0945 49.9778Z" fill="#7E7E7E"/>
<path d="M200.756 24.7195C206.841 24.7195 210.492 28.5877 210.492 35.4549V36.4982H195.497C195.801 39.5841 198.061 41.3661 201.147 41.3661C204.016 41.3661 206.015 39.7579 207.145 38.6278L209.84 42.496C208.058 44.1477 205.363 46.1035 201.147 46.1035C194.584 46.1035 190.325 41.844 190.325 35.4549C190.325 29.0659 194.454 24.7195 200.756 24.7195ZM200.495 29.0224C197.931 29.0224 196.062 30.2828 195.627 33.0645H205.102C204.928 30.5001 203.103 29.0224 200.495 29.0224Z" fill="#7E7E7E"/>
<path d="M181.354 15.0297H186.699V45.4542H181.354V15.0297Z" fill="#7E7E7E"/>
<path d="M168.141 46.1061C164.881 46.1061 162.708 44.7152 161.448 42.6291H161.361V45.4542H156.015V15.0297H161.361V28.1991H161.448C162.708 26.1129 164.881 24.722 168.141 24.722C173.4 24.722 177.79 28.5468 177.79 35.414C177.79 42.2813 173.4 46.1061 168.141 46.1061ZM166.794 41.0644C170.01 41.0644 172.227 38.8042 172.227 35.414C172.227 32.0239 170.01 29.7638 166.794 29.7638C163.577 29.7638 161.361 32.0239 161.361 35.414C161.361 38.8042 163.577 41.0644 166.794 41.0644Z" fill="#7E7E7E"/>
<path d="M139.231 46.1035C133.972 46.1035 129.583 42.2787 129.583 35.4116C129.583 28.5443 133.972 24.7195 139.231 24.7195C142.491 24.7195 144.664 26.1103 145.925 28.1966H146.012V25.3714H151.314V45.4516H146.012V42.6265H145.925C144.664 44.7126 142.491 46.1035 139.231 46.1035ZM140.579 41.0618C143.795 41.0618 146.012 38.8016 146.012 35.4116C146.012 32.0214 143.795 29.7613 140.579 29.7613C137.363 29.7613 135.146 32.0214 135.146 35.4116C135.146 38.8016 137.363 41.0618 140.579 41.0618Z" fill="#7E7E7E"/>
<path d="M118.695 39.2823L123.433 25.374H129.517L121.303 45.4541H116.087L107.916 25.374H113.958L118.695 39.2823Z" fill="#7E7E7E"/>
<path d="M96.7381 24.7195C103.127 24.7195 107.865 29.1093 107.865 35.4116C107.865 41.7137 103.127 46.1035 96.7381 46.1035C90.349 46.1035 85.6113 41.7137 85.6113 35.4116C85.6113 29.1093 90.349 24.7195 96.7381 24.7195ZM96.7381 29.7613C93.4784 29.7613 91.0879 31.9779 91.0879 35.4116C91.0879 38.8451 93.4784 41.0618 96.7381 41.0618C99.9978 41.0618 102.345 38.8451 102.345 35.4116C102.345 31.9779 99.9978 29.7613 96.7381 29.7613Z" fill="#7E7E7E"/>
<path d="M76.6396 15.0297H81.9857V45.4542H76.6396V15.0297Z" fill="#7E7E7E"/>
</g>
<defs>
<filter id="filter0_f_2801_869" x="6.19207" y="25.8288" width="66.3497" height="65.9652" filterUnits="userSpaceOnUse" color-interpolation-filters="sRGB">
<feFlood flood-opacity="0" result="BackgroundImageFix"/>
<feBlend mode="normal" in="SourceGraphic" in2="BackgroundImageFix" result="shape"/>
<feGaussianBlur stdDeviation="7.99112" result="effect1_foregroundBlur_2801_869"/>
</filter>
<filter id="filter1_f_2801_869" x="16.9094" y="22.9561" width="66.3497" height="65.9652" filterUnits="userSpaceOnUse" color-interpolation-filters="sRGB">
<feFlood flood-opacity="0" result="BackgroundImageFix"/>
<feBlend mode="normal" in="SourceGraphic" in2="BackgroundImageFix" result="shape"/>
<feGaussianBlur stdDeviation="7.99112" result="effect1_foregroundBlur_2801_869"/>
</filter>
<filter id="filter2_f_2801_869" x="-10.2781" y="7.26007" width="66.3497" height="65.9652" filterUnits="userSpaceOnUse" color-interpolation-filters="sRGB">
<feFlood flood-opacity="0" result="BackgroundImageFix"/>
<feBlend mode="normal" in="SourceGraphic" in2="BackgroundImageFix" result="shape"/>
<feGaussianBlur stdDeviation="7.99112" result="effect1_foregroundBlur_2801_869"/>
</filter>
<filter id="filter3_f_2801_869" x="0.439632" y="4.38739" width="66.3497" height="65.9652" filterUnits="userSpaceOnUse" color-interpolation-filters="sRGB">
<feFlood flood-opacity="0" result="BackgroundImageFix"/>
<feBlend mode="normal" in="SourceGraphic" in2="BackgroundImageFix" result="shape"/>
<feGaussianBlur stdDeviation="7.99112" result="effect1_foregroundBlur_2801_869"/>
</filter>
<filter id="filter4_f_2801_869" x="-52.5183" y="-28.9369" width="94.8736" height="94.8735" filterUnits="userSpaceOnUse" color-interpolation-filters="sRGB">
<feFlood flood-opacity="0" result="BackgroundImageFix"/>
<feBlend mode="normal" in="SourceGraphic" in2="BackgroundImageFix" result="shape"/>
<feGaussianBlur stdDeviation="14.2064" result="effect1_foregroundBlur_2801_869"/>
</filter>
<filter id="filter5_f_2801_869" x="17.1257" y="-17.1229" width="58.3239" height="59.0907" filterUnits="userSpaceOnUse" color-interpolation-filters="sRGB">
<feFlood flood-opacity="0" result="BackgroundImageFix"/>
<feBlend mode="normal" in="SourceGraphic" in2="BackgroundImageFix" result="shape"/>
<feGaussianBlur stdDeviation="7.99112" result="effect1_foregroundBlur_2801_869"/>
</filter>
<filter id="filter6_f_2801_869" x="24.0612" y="-9.20221" width="61.6696" height="62.5355" filterUnits="userSpaceOnUse" color-interpolation-filters="sRGB">
<feFlood flood-opacity="0" result="BackgroundImageFix"/>
<feBlend mode="normal" in="SourceGraphic" in2="BackgroundImageFix" result="shape"/>
<feGaussianBlur stdDeviation="7.99112" result="effect1_foregroundBlur_2801_869"/>
</filter>
<filter id="filter7_f_2801_869" x="6.19207" y="25.8288" width="66.3497" height="65.9652" filterUnits="userSpaceOnUse" color-interpolation-filters="sRGB">
<feFlood flood-opacity="0" result="BackgroundImageFix"/>
<feBlend mode="normal" in="SourceGraphic" in2="BackgroundImageFix" result="shape"/>
<feGaussianBlur stdDeviation="7.99112" result="effect1_foregroundBlur_2801_869"/>
</filter>
<filter id="filter8_f_2801_869" x="16.9094" y="22.9561" width="66.3497" height="65.9652" filterUnits="userSpaceOnUse" color-interpolation-filters="sRGB">
<feFlood flood-opacity="0" result="BackgroundImageFix"/>
<feBlend mode="normal" in="SourceGraphic" in2="BackgroundImageFix" result="shape"/>
<feGaussianBlur stdDeviation="7.99112" result="effect1_foregroundBlur_2801_869"/>
</filter>
<filter id="filter9_f_2801_869" x="-10.2781" y="7.26007" width="66.3497" height="65.9652" filterUnits="userSpaceOnUse" color-interpolation-filters="sRGB">
<feFlood flood-opacity="0" result="BackgroundImageFix"/>
<feBlend mode="normal" in="SourceGraphic" in2="BackgroundImageFix" result="shape"/>
<feGaussianBlur stdDeviation="7.99112" result="effect1_foregroundBlur_2801_869"/>
</filter>
<filter id="filter10_f_2801_869" x="0.439632" y="4.38739" width="66.3497" height="65.9652" filterUnits="userSpaceOnUse" color-interpolation-filters="sRGB">
<feFlood flood-opacity="0" result="BackgroundImageFix"/>
<feBlend mode="normal" in="SourceGraphic" in2="BackgroundImageFix" result="shape"/>
<feGaussianBlur stdDeviation="7.99112" result="effect1_foregroundBlur_2801_869"/>
</filter>
<filter id="filter11_f_2801_869" x="-52.5183" y="-28.9369" width="94.8736" height="94.8735" filterUnits="userSpaceOnUse" color-interpolation-filters="sRGB">
<feFlood flood-opacity="0" result="BackgroundImageFix"/>
<feBlend mode="normal" in="SourceGraphic" in2="BackgroundImageFix" result="shape"/>
<feGaussianBlur stdDeviation="14.2064" result="effect1_foregroundBlur_2801_869"/>
</filter>
<filter id="filter12_f_2801_869" x="17.1257" y="-17.1229" width="58.3239" height="59.0907" filterUnits="userSpaceOnUse" color-interpolation-filters="sRGB">
<feFlood flood-opacity="0" result="BackgroundImageFix"/>
<feBlend mode="normal" in="SourceGraphic" in2="BackgroundImageFix" result="shape"/>
<feGaussianBlur stdDeviation="7.99112" result="effect1_foregroundBlur_2801_869"/>
</filter>
<filter id="filter13_f_2801_869" x="24.0612" y="-9.20221" width="61.6696" height="62.5355" filterUnits="userSpaceOnUse" color-interpolation-filters="sRGB">
<feFlood flood-opacity="0" result="BackgroundImageFix"/>
<feBlend mode="normal" in="SourceGraphic" in2="BackgroundImageFix" result="shape"/>
<feGaussianBlur stdDeviation="7.99112" result="effect1_foregroundBlur_2801_869"/>
</filter>
<clipPath id="clip0_2801_869">
<rect width="200" height="40" fill="white" transform="translate(10.6372 10)"/>
</clipPath>
</defs>
</svg>
