<svg width="181" height="60" viewBox="0 0 181 60" fill="none" xmlns="http://www.w3.org/2000/svg">
<path d="M52.8144 12H18.7991C14.1835 12 10.4419 15.7417 10.4419 20.3572V38.831C10.4419 43.4466 14.1835 47.1883 18.7991 47.1883H52.8144C57.43 47.1883 61.1716 43.4466 61.1716 38.831V20.3572C61.1716 15.7417 57.43 12 52.8144 12Z" stroke="#7E7E7E" stroke-width="0.501433"/>
<path d="M45.92 22.4403C45.92 22.1132 46.0499 21.7995 46.2812 21.5682C46.5125 21.3369 46.8262 21.207 47.1533 21.207H49.6203C49.9474 21.207 50.2611 21.3369 50.4924 21.5682C50.7237 21.7995 50.8537 22.1132 50.8537 22.4403V28.6076C50.8537 28.9347 50.7237 29.2485 50.4924 29.4798C50.2611 29.7111 49.9474 29.841 49.6203 29.841H47.1533C46.8262 29.841 46.5125 29.7111 46.2812 29.4798C46.0499 29.2485 45.92 28.9347 45.92 28.6076V22.4403ZM51.3472 35.0216C51.3472 36.6564 50.0218 37.9818 48.387 37.9818C46.7519 37.9818 45.4268 36.6564 45.4268 35.0216C45.4268 33.3868 46.7519 32.0614 48.387 32.0614C50.0218 32.0614 51.3472 33.3868 51.3472 35.0216ZM21.4976 37.9818C21.1705 37.9818 20.8568 37.8519 20.6255 37.6206C20.3942 37.3893 20.2642 37.0756 20.2642 36.7484V22.4403C20.2642 22.1132 20.3942 21.7995 20.6255 21.5682C20.8568 21.3369 21.1705 21.207 21.4976 21.207H24.6053C24.9797 21.207 25.3343 21.377 25.5683 21.6697L29.1686 26.1703C29.2842 26.3148 29.4307 26.4314 29.5975 26.5116C29.7642 26.5918 29.9469 26.6334 30.1319 26.6334C30.3169 26.6334 30.4996 26.5918 30.6663 26.5116C30.833 26.4314 30.9796 26.3148 31.0952 26.1703L34.6952 21.6697C34.8108 21.5253 34.9574 21.4087 35.1241 21.3286C35.2909 21.2485 35.4735 21.2069 35.6585 21.207H38.7659C39.093 21.207 39.4068 21.3369 39.6381 21.5682C39.8695 21.7995 39.9995 22.1132 39.9996 22.4403V36.7484C39.9995 37.0756 39.8695 37.3893 39.6381 37.6206C39.4068 37.8519 39.093 37.9818 38.7659 37.9818H36.2992C36.1372 37.9818 35.9768 37.95 35.8271 37.888C35.6775 37.826 35.5415 37.7352 35.4269 37.6207C35.3124 37.5061 35.2215 37.3702 35.1595 37.2205C35.0975 37.0708 35.0656 36.9104 35.0656 36.7484V31.8772C35.0656 30.7113 33.5973 30.1961 32.8692 31.1066L31.0952 33.3243C30.9796 33.4688 30.833 33.5855 30.6663 33.6657C30.4996 33.7458 30.3169 33.7875 30.1319 33.7875C29.9469 33.7875 29.7642 33.7458 29.5975 33.6657C29.4307 33.5855 29.2842 33.4688 29.1686 33.3243L27.3945 31.1066C26.6664 30.1961 25.1982 30.7113 25.1982 31.8772V36.7484C25.1982 36.9104 25.1663 37.0708 25.1043 37.2205C25.0423 37.3702 24.9514 37.5061 24.8369 37.6207C24.7223 37.7352 24.5863 37.826 24.4366 37.888C24.287 37.95 24.1265 37.9818 23.9646 37.9818H21.4976Z" fill="#7E7E7E"/>
<path d="M70.0391 23.8775H72.1126L75.7179 32.6805H75.8506L79.4559 23.8775H81.5294V35.202H79.9038V27.0072H79.7987L76.4589 35.1854H75.1097L71.7698 27.0017H71.6648V35.202H70.0391V23.8775ZM86.3526 35.39C85.8144 35.39 85.3278 35.2904 84.8928 35.0914C84.4578 34.8886 84.1131 34.5956 83.8588 34.2122C83.6081 33.8288 83.4828 33.3588 83.4828 32.8021C83.4828 32.3229 83.5749 31.9285 83.7592 31.6188C83.9435 31.3092 84.1924 31.064 84.5057 30.8834C84.8191 30.7028 85.1693 30.5664 85.5563 30.4742C85.9434 30.3821 86.3378 30.312 86.7396 30.2641C87.2484 30.2051 87.6612 30.1572 87.9783 30.1203C88.2953 30.0798 88.5257 30.0153 88.6695 29.9268C88.8132 29.8383 88.8851 29.6945 88.8851 29.4955V29.4568C88.8851 28.9739 88.7487 28.5997 88.4759 28.3343C88.2068 28.0689 87.805 27.9362 87.2705 27.9362C86.7138 27.9362 86.2752 28.0596 85.9545 28.3066C85.6374 28.5499 85.4181 28.8209 85.2964 29.1195L83.7426 28.7656C83.927 28.2495 84.1961 27.8329 84.55 27.5159C84.9075 27.1952 85.3186 26.963 85.783 26.8192C86.2475 26.6717 86.736 26.598 87.2484 26.598C87.5875 26.598 87.9469 26.6386 88.3266 26.7197C88.71 26.7971 89.0676 26.9408 89.3994 27.151C89.7348 27.3611 90.0094 27.6615 90.2233 28.0523C90.4371 28.4393 90.544 28.9425 90.544 29.5618V35.202H88.9293V34.0408H88.863C88.7561 34.2546 88.5957 34.4647 88.3819 34.6711C88.1681 34.8776 87.8935 35.049 87.558 35.1854C87.2226 35.3218 86.8207 35.39 86.3526 35.39ZM86.712 34.0629C87.1691 34.0629 87.5599 33.9726 87.8843 33.7919C88.2123 33.6113 88.4612 33.3754 88.6307 33.0842C88.804 32.7892 88.8906 32.4741 88.8906 32.1386V31.0438C88.8317 31.1027 88.7174 31.158 88.5478 31.2096C88.3819 31.2576 88.1921 31.3 87.9783 31.3368C87.7645 31.37 87.5562 31.4013 87.3534 31.4308C87.1507 31.4566 86.9811 31.4787 86.8447 31.4972C86.524 31.5377 86.2309 31.6059 85.9655 31.7018C85.7038 31.7976 85.4937 31.9359 85.3351 32.1165C85.1803 32.2934 85.1029 32.5294 85.1029 32.8243C85.1029 33.2335 85.254 33.5431 85.5563 33.7532C85.8586 33.9597 86.2438 34.0629 86.712 34.0629ZM92.7461 35.202V26.7086H94.3441V28.0578H94.4326C94.5874 27.6007 94.8602 27.2413 95.251 26.9795C95.6454 26.7141 96.0915 26.5814 96.5891 26.5814C96.6924 26.5814 96.814 26.5851 96.9541 26.5925C97.0979 26.5999 97.2103 26.6091 97.2914 26.6201V28.2016C97.225 28.1831 97.1071 28.1629 96.9375 28.1407C96.7679 28.1149 96.5984 28.102 96.4288 28.102C96.038 28.102 95.6897 28.185 95.3837 28.3509C95.0814 28.5131 94.8418 28.7398 94.6649 29.031C94.4879 29.3185 94.3994 29.6466 94.3994 30.0153V35.202H92.7461ZM100.243 32.3211L100.232 30.3028H100.519L103.903 26.7086H105.883L102.023 30.8005H101.763L100.243 32.3211ZM98.7222 35.202V23.8775H100.375V35.202H98.7222ZM104.086 35.202L101.045 31.1654L102.184 30.0097L106.115 35.202H104.086ZM107.39 38.387V26.7086H109.004V28.0855H109.143C109.238 27.9085 109.377 27.7039 109.557 27.4717C109.738 27.2394 109.989 27.0367 110.309 26.8634C110.63 26.6865 111.054 26.598 111.581 26.598C112.267 26.598 112.879 26.7713 113.417 27.1178C113.955 27.4643 114.377 27.9638 114.683 28.6163C114.993 29.2688 115.148 30.054 115.148 30.9719C115.148 31.8898 114.995 32.6768 114.689 33.333C114.383 33.9855 113.962 34.4887 113.428 34.8425C112.893 35.1927 112.283 35.3679 111.598 35.3679C111.082 35.3679 110.659 35.2812 110.331 35.108C110.007 34.9347 109.753 34.732 109.568 34.4997C109.384 34.2675 109.242 34.061 109.143 33.8804H109.043V38.387H107.39ZM109.01 30.9553C109.01 31.5525 109.096 32.0759 109.27 32.5257C109.443 32.9754 109.694 33.3275 110.022 33.5818C110.35 33.8325 110.752 33.9578 111.227 33.9578C111.721 33.9578 112.134 33.827 112.466 33.5652C112.798 33.2998 113.048 32.9404 113.218 32.487C113.391 32.0335 113.478 31.523 113.478 30.9553C113.478 30.395 113.393 29.8918 113.223 29.4457C113.057 28.9997 112.807 28.6476 112.471 28.3896C112.14 28.1315 111.725 28.0025 111.227 28.0025C110.748 28.0025 110.342 28.126 110.011 28.373C109.683 28.62 109.434 28.9646 109.264 29.407C109.095 29.8494 109.01 30.3655 109.01 30.9553ZM117 35.202V26.7086H118.598V28.0578H118.687C118.841 27.6007 119.114 27.2413 119.505 26.9795C119.899 26.7141 120.345 26.5814 120.843 26.5814C120.946 26.5814 121.068 26.5851 121.208 26.5925C121.352 26.5999 121.464 26.6091 121.545 26.6201V28.2016C121.479 28.1831 121.361 28.1629 121.191 28.1407C121.022 28.1149 120.852 28.102 120.683 28.102C120.292 28.102 119.944 28.185 119.638 28.3509C119.335 28.5131 119.096 28.7398 118.919 29.031C118.742 29.3185 118.653 29.6466 118.653 30.0153V35.202H117ZM126.25 35.3734C125.453 35.3734 124.758 35.1909 124.165 34.826C123.571 34.461 123.111 33.9504 122.783 33.2943C122.454 32.6381 122.29 31.8713 122.29 30.994C122.29 30.1129 122.454 29.3425 122.783 28.6826C123.111 28.0228 123.571 27.5104 124.165 27.1454C124.758 26.7805 125.453 26.598 126.25 26.598C127.046 26.598 127.741 26.7805 128.334 27.1454C128.928 27.5104 129.388 28.0228 129.717 28.6826C130.045 29.3425 130.209 30.1129 130.209 30.994C130.209 31.8713 130.045 32.6381 129.717 33.2943C129.388 33.9504 128.928 34.461 128.334 34.826C127.741 35.1909 127.046 35.3734 126.25 35.3734ZM126.255 33.9855C126.771 33.9855 127.199 33.8491 127.538 33.5763C127.877 33.3035 128.128 32.9404 128.29 32.487C128.456 32.0335 128.539 31.534 128.539 30.9885C128.539 30.4466 128.456 29.9489 128.29 29.4955C128.128 29.0384 127.877 28.6716 127.538 28.3951C127.199 28.1186 126.771 27.9804 126.255 27.9804C125.735 27.9804 125.304 28.1186 124.961 28.3951C124.622 28.6716 124.37 29.0384 124.204 29.4955C124.041 29.9489 123.96 30.4466 123.96 30.9885C123.96 31.534 124.041 32.0335 124.204 32.487C124.37 32.9404 124.622 33.3035 124.961 33.5763C125.304 33.8491 125.735 33.9855 126.255 33.9855ZM132.054 35.202V26.7086H133.641V28.091H133.746C133.923 27.6228 134.213 27.2579 134.614 26.9961C135.016 26.7307 135.497 26.598 136.058 26.598C136.625 26.598 137.101 26.7307 137.484 26.9961C137.871 27.2616 138.157 27.6265 138.341 28.091H138.43C138.632 27.6376 138.955 27.2763 139.397 27.0072C139.84 26.7344 140.367 26.598 140.979 26.598C141.749 26.598 142.378 26.8395 142.864 27.3224C143.355 27.8053 143.6 28.5333 143.6 29.5065V35.202H141.947V29.6614C141.947 29.0863 141.79 28.6697 141.477 28.4117C141.163 28.1537 140.789 28.0246 140.354 28.0246C139.816 28.0246 139.397 28.1905 139.099 28.5223C138.8 28.8504 138.651 29.2725 138.651 29.7885V35.202H137.003V29.5563C137.003 29.0955 136.859 28.725 136.572 28.4449C136.284 28.1647 135.91 28.0246 135.449 28.0246C135.136 28.0246 134.847 28.1076 134.581 28.2735C134.319 28.4357 134.107 28.6624 133.945 28.9536C133.787 29.2448 133.708 29.5821 133.708 29.9655V35.202H132.054ZM145.816 38.387V26.7086H147.43V28.0855H147.569C147.665 27.9085 147.803 27.7039 147.983 27.4717C148.164 27.2394 148.415 27.0367 148.735 26.8634C149.056 26.6865 149.48 26.598 150.007 26.598C150.693 26.598 151.305 26.7713 151.843 27.1178C152.381 27.4643 152.803 27.9638 153.109 28.6163C153.419 29.2688 153.574 30.054 153.574 30.9719C153.574 31.8898 153.421 32.6768 153.115 33.333C152.809 33.9855 152.389 34.4887 151.854 34.8425C151.32 35.1927 150.709 35.3679 150.024 35.3679C149.508 35.3679 149.086 35.2812 148.758 35.108C148.433 34.9347 148.179 34.732 147.994 34.4997C147.81 34.2675 147.668 34.061 147.569 33.8804H147.469V38.387H145.816ZM147.436 30.9553C147.436 31.5525 147.523 32.0759 147.696 32.5257C147.869 32.9754 148.12 33.3275 148.448 33.5818C148.776 33.8325 149.178 33.9578 149.653 33.9578C150.147 33.9578 150.56 33.827 150.892 33.5652C151.224 33.2998 151.474 32.9404 151.644 32.487C151.817 32.0335 151.904 31.523 151.904 30.9553C151.904 30.395 151.819 29.8918 151.649 29.4457C151.484 28.9997 151.233 28.6476 150.897 28.3896C150.566 28.1315 150.151 28.0025 149.653 28.0025C149.174 28.0025 148.769 28.126 148.437 28.373C148.109 28.62 147.86 28.9646 147.69 29.407C147.521 29.8494 147.436 30.3655 147.436 30.9553ZM159.391 26.7086V28.0357H154.752V26.7086H159.391ZM155.996 24.6737H157.649V32.7081C157.649 33.0289 157.697 33.2703 157.793 33.4325C157.889 33.591 158.012 33.6998 158.163 33.7588C158.318 33.8141 158.486 33.8417 158.666 33.8417C158.799 33.8417 158.915 33.8325 159.015 33.8141C159.114 33.7956 159.192 33.7809 159.247 33.7698L159.546 35.1356C159.45 35.1725 159.313 35.2093 159.136 35.2462C158.96 35.2868 158.738 35.3089 158.473 35.3126C158.038 35.3199 157.632 35.2425 157.256 35.0803C156.88 34.9181 156.576 34.6674 156.344 34.3283C156.112 33.9892 155.996 33.5634 155.996 33.051V24.6737Z" fill="#7E7E7E"/>
</svg>
