<svg width="125" height="61" viewBox="0 0 125 61" fill="none" xmlns="http://www.w3.org/2000/svg">
<path d="M21.8146 15L13.5101 41.7428H10.1129L18.3883 15H21.8146ZM24.8345 15V41.7428H21.8146V15H24.8345ZM36.5362 15L28.2608 41.7428H24.8635L33.1389 15H36.5362ZM39.5561 15V41.7428H36.5362V15H39.5561Z" fill="#7E7E7E"/>
<path d="M66.9957 36.1968H62.0304V34.5998H63.1338V30.012C63.1338 28.9376 62.9306 28.1827 62.5241 27.7181C62.1176 27.2535 61.5659 27.0502 60.869 27.0502C59.9398 27.0502 59.2429 27.3696 58.7783 28.0375C58.3138 28.7053 58.0815 29.3732 58.0524 30.041V34.5707H59.7946V36.1678H54.8293V34.5707H55.9327V30.012C55.9327 28.9086 55.7295 28.1536 55.323 27.7181C54.9165 27.2825 54.3648 27.0502 53.6969 27.0502C52.7677 27.0502 52.0999 27.3696 51.6063 28.0084C51.1417 28.6473 50.9094 29.3151 50.8804 30.012V34.5998H52.8839V36.1968H47.0185V34.5998H48.7607V27.2535H46.9894V25.6274H50.8804V27.4858C51.2288 26.876 51.6644 26.3824 52.2451 25.9759C52.8258 25.5984 53.5227 25.3951 54.3648 25.3951C55.2068 25.3951 55.9037 25.5984 56.5425 26.0049C57.1813 26.4114 57.6169 27.0212 57.8492 27.8633C58.1686 27.1373 58.6332 26.5566 59.272 26.092C59.9108 25.6274 60.6657 25.3951 61.5659 25.3951C62.5821 25.3951 63.4532 25.7145 64.1501 26.3534C64.847 26.9922 65.2245 27.9794 65.2245 29.3151V34.5998H66.9957V36.1968ZM79.3363 36.1968H75.5035V34.1061C75.155 34.745 74.6904 35.2966 74.0807 35.7322C73.4709 36.1968 72.6869 36.4291 71.6706 36.4291C70.2769 36.4291 69.1444 35.9645 68.3024 35.0063C67.4603 34.0771 67.0538 32.7705 67.0538 31.1444C67.0538 29.6926 67.4313 28.3569 68.2153 27.1664C68.9702 25.9759 70.2188 25.3661 71.932 25.3661C73.6451 25.3661 74.7775 26.0049 75.5035 27.2535V21.5333H73.0063V19.9072H77.5941V34.5998H79.3363V36.1968ZM75.4744 31.3186V30.041C75.4454 29.1699 75.126 28.444 74.5453 27.9213C73.9645 27.3987 73.2676 27.1083 72.4546 27.1083C71.4093 27.1083 70.6253 27.4858 70.0736 28.2407C69.5219 28.9957 69.2606 29.9249 69.2606 31.0283C69.2606 32.2188 69.5509 33.1479 70.1317 33.7867C70.7124 34.4256 71.4383 34.745 72.2804 34.745C73.2096 34.745 73.9645 34.3675 74.5453 33.6416C75.155 32.8866 75.4454 32.1026 75.4744 31.3186ZM87.7279 36.1968V34.5998H89.4701V30.012C89.4701 28.9376 89.2669 28.1827 88.8313 27.7181C88.4248 27.2535 87.8441 27.0502 87.1762 27.0502C86.2761 27.0502 85.5502 27.3406 85.0275 27.9213C84.5048 28.5021 84.2145 29.1989 84.1854 29.9539V34.5707H85.9276V36.1678H80.3236V34.5707H82.0658V27.2535H80.2655V25.6274H84.2145V27.4277C84.9694 26.092 86.189 25.4242 87.9021 25.4242C88.9475 25.4242 89.8476 25.7436 90.5735 26.3824C91.2994 27.0212 91.6479 28.0084 91.6479 29.3441V34.6288H93.3901V36.1968H87.7279Z" fill="#7E7E7E"/>
<path d="M94.9873 42.5268H114.442V45.082H94.9873V42.5268Z" fill="#7E7E7E"/>
</svg>
