<svg xmlns="http://www.w3.org/2000/svg" width="118" height="60" fill="none" viewBox="0 0 118 60"><path fill="#7e7e7e" d="m21.001 16.004-7.727 24.884h-3.161l7.7-24.884zm2.81 0v24.884h-2.81V16.004zm10.889 0L27 40.888h-3.162l7.7-24.884zm2.81 0v24.884H34.7V16.004zM63.042 35.728h-4.62v-1.486h1.027v-4.269c0-1-.19-1.702-.568-2.134-.378-.433-.891-.622-1.54-.622-.864 0-1.513.297-1.945.919-.432.621-.649 1.243-.676 1.864v4.215h1.622V35.7h-4.62v-1.486h1.026v-4.242c0-1.027-.19-1.73-.567-2.134-.379-.406-.892-.622-1.513-.622-.865 0-1.486.297-1.946.892-.432.594-.648 1.215-.675 1.864v4.269h1.864v1.486h-5.458v-1.486h1.621v-6.836h-1.648v-1.513h3.62v1.73a4.2 4.2 0 0 1 1.27-1.406c.541-.35 1.19-.54 1.973-.54s1.432.19 2.026.567c.595.379 1 .946 1.216 1.73a3.95 3.95 0 0 1 1.324-1.648c.595-.433 1.297-.649 2.135-.649.945 0 1.756.297 2.404.892.649.594 1 1.513 1 2.756v4.917h1.648zm11.483 0h-3.567v-1.945a4.44 4.44 0 0 1-1.323 1.513c-.568.432-1.297.648-2.243.648-1.297 0-2.35-.432-3.134-1.324-.784-.864-1.162-2.08-1.162-3.593 0-1.351.351-2.594 1.08-3.702.703-1.108 1.865-1.675 3.46-1.675 1.593 0 2.647.594 3.323 1.756v-5.322h-2.324V20.57h4.269v13.672h1.621zm-3.594-4.54V30c-.026-.81-.324-1.486-.864-1.972a2.83 2.83 0 0 0-1.945-.757c-.973 0-1.703.351-2.216 1.054-.513.702-.757 1.567-.757 2.594 0 1.107.27 1.972.811 2.566.54.595 1.216.892 2 .892.864 0 1.567-.351 2.107-1.027.567-.702.838-1.432.865-2.161m11.402 4.54v-1.486h1.621v-4.269c0-1-.189-1.702-.594-2.134-.378-.433-.919-.622-1.54-.622-.838 0-1.513.27-2 .81a2.96 2.96 0 0 0-.783 1.892v4.296h1.621V35.7h-5.214v-1.486h1.62v-6.809H75.39v-1.513h3.674v1.675c.703-1.242 1.837-1.864 3.431-1.864.973 0 1.81.297 2.486.892.676.594 1 1.513 1 2.756v4.917h1.62v1.459zM89.088 41.618h18.103v2.378H89.088z"/></svg>