<svg xmlns="http://www.w3.org/2000/svg" width="123" height="60" fill="none" viewBox="0 0 123 60"><path fill="#7e7e7e" d="m19.807 31.797-5.87-8.745v8.745h-3.511V17.62h3.51l5.871 8.785V17.62h3.512v14.177zM36.596 26.992h-7.944q.082 1.049.688 1.606.606.555 1.49.555 1.313 0 1.827-1.091h3.736a5 5 0 0 1-1.036 1.998 5.2 5.2 0 0 1-1.879 1.393q-1.13.504-2.524.504-1.683 0-2.996-.707a5.1 5.1 0 0 1-2.053-2.02q-.74-1.314-.74-3.07 0-1.758.73-3.071a5 5 0 0 1 2.041-2.02q1.311-.7 3.015-.701 1.663.001 2.956.686a5 5 0 0 1 2.022 1.958q.73 1.272.73 2.969 0 .484-.063 1.011m-3.53-1.92q0-.89-.615-1.415-.616-.525-1.54-.525-.883 0-1.49.504-.605.504-.747 1.435zM45.279 31.797l-2.197-3.13-1.846 3.13H37.44l3.777-5.757-3.88-5.512h3.942l2.196 3.11 1.847-3.11h3.796l-3.84 5.674 3.943 5.595zM56.96 28.87v2.93h-1.787q-1.908 0-2.977-.918-1.067-.92-1.069-2.999v-4.487h-1.396v-2.868h1.396v-2.745h3.511v2.748h2.3v2.867h-2.3v4.525q0 .504.247.728c.166.15.437.222.822.222h1.252zM72.643 18.508q1.703.89 2.638 2.495t.933 3.705q0 2.082-.933 3.695-.934 1.617-2.65 2.505c-1.14.593-2.467.889-3.972.889h-5.398V17.62h5.398q2.28 0 3.984.888m-1.11 9.231q1.11-1.069 1.11-3.03t-1.11-3.05q-1.11-1.092-3.099-1.091H66.77v8.24h1.662q1.991 0 3.102-1.069M110.106 20.941a4 4 0 0 1 2.053-.536v3.655h-.965q-1.313 0-1.971.555t-.656 1.95v5.232h-3.512v-11.27h3.512v1.88a4.6 4.6 0 0 1 1.539-1.466M27.459 41.049h2.207v1.28h-3.89v-6.805h1.683zM37.082 36.852v1.377h2.256v1.28h-2.256v1.494h2.551v1.329h-4.235v-6.808h4.235v1.328zM51.84 42.33h-1.684l-2.817-4.197v4.196h-1.683v-6.805h1.683l2.818 4.215v-4.215h1.683zM62.488 35.95q.818.428 1.267 1.198.447.772.447 1.78 0 .999-.447 1.774a3.05 3.05 0 0 1-1.272 1.203q-.823.428-1.906.427h-2.593v-6.808h2.593q1.094.001 1.911.427m-.531 4.432q.532-.513.531-1.454 0-.94-.531-1.465-.533-.524-1.489-.523h-.797v3.954h.797q.958 0 1.489-.512M71.759 35.524v6.805h-1.684v-6.805zM84.093 42.33H82.41l-2.817-4.197v4.196h-1.684v-6.805h1.684l2.817 4.215v-4.215h1.684zM94.83 37.677a1.23 1.23 0 0 0-.536-.518 1.8 1.8 0 0 0-.822-.179q-.817 0-1.31.529-.492.527-.493 1.41 0 .941.518 1.468.517.528 1.423.528.623 0 1.05-.31.426-.308.626-.89H93.15v-1.222h3.666v1.542a3.2 3.2 0 0 1-.634 1.153 3.3 3.3 0 0 1-1.14.861q-.69.33-1.555.331-1.026 0-1.828-.44a3.16 3.16 0 0 1-1.25-1.227q-.448-.784-.448-1.793 0-1.01.448-1.798a3.16 3.16 0 0 1 1.247-1.23q.799-.44 1.822-.44 1.243 0 2.093.592.852.591 1.129 1.638H94.83zM88.817 23.348a5.3 5.3 0 0 0-2.153-2.046q-1.369-.713-3.064-.713-1.697 0-3.064.713a5.3 5.3 0 0 0-2.153 2.046q-.785 1.333-.786 3.087-.001 1.773.775 3.094a5.26 5.26 0 0 0 2.131 2.036q1.356.711 3.053.712 1.696 0 3.075-.712a5.36 5.36 0 0 0 2.174-2.047q.798-1.333.798-3.086 0-1.748-.786-3.084m-1.907 6.32h-2.329V27.22h-1.96v2.447h-2.33V25.78l3.309-2.09 3.308 2.09v3.887zm.689-4.322a.386.386 0 0 1-.531.112L83.6 23.241l-3.468 2.217a.386.386 0 0 1-.532-.112.37.37 0 0 1 .114-.523l3.677-2.35a.39.39 0 0 1 .42 0l3.677 2.35c.176.115.228.35.111.523M102.325 23.348a5.3 5.3 0 0 0-2.153-2.046q-1.366-.713-3.064-.713-1.696 0-3.064.713a5.3 5.3 0 0 0-2.153 2.046q-.785 1.333-.786 3.087 0 1.773.775 3.094a5.27 5.27 0 0 0 2.132 2.036q1.355.711 3.052.712 1.697 0 3.075-.712a5.37 5.37 0 0 0 2.176-2.047q.796-1.333.796-3.086 0-1.748-.786-3.084m-1.906 6.32h-2.332V27.22h-1.96v2.447h-2.33V25.78l3.309-2.09 3.307 2.09v3.887zm.688-4.322a.385.385 0 0 1-.531.112l-3.468-2.217-3.468 2.217a.386.386 0 0 1-.531-.112.37.37 0 0 1 .114-.523l3.677-2.35a.39.39 0 0 1 .42 0l3.676 2.35c.176.115.228.35.111.523"/></svg>