<svg width="144" height="60" viewBox="0 0 144 60" fill="none" xmlns="http://www.w3.org/2000/svg">
<path d="M21.5122 32.1613L14.4061 21.5752V32.1613H10.1555V15H14.4061L21.5122 25.6346V15H25.7628V32.1613H21.5122Z" fill="#7E7E7E"/>
<path d="M41.8359 26.3451H32.2189C32.2844 27.1911 32.5635 27.8403 33.0525 28.2892C33.5416 28.7381 34.1422 28.9609 34.8545 28.9609C35.9147 28.9609 36.6532 28.5217 37.0668 27.6401H41.5897C41.3567 28.5379 40.9399 29.342 40.3359 30.0589C39.7319 30.7758 38.9737 31.3378 38.0613 31.7447C37.1488 32.1516 36.1313 32.355 35.0054 32.355C33.6466 32.355 32.4387 32.0709 31.3786 31.4992C30.3184 30.9276 29.4912 30.1138 28.8939 29.0546C28.2965 27.9953 27.9978 26.7552 27.9978 25.3374C27.9978 23.9197 28.2932 22.6796 28.8808 21.6204C29.4683 20.5611 30.2922 19.7473 31.3523 19.1757C32.4092 18.6105 33.627 18.3263 35.0022 18.3263C36.3447 18.3263 37.5361 18.6041 38.5798 19.1563C39.6237 19.7118 40.4376 20.4998 41.0285 21.5267C41.6159 22.5537 41.9114 23.7518 41.9114 25.1211C41.9114 25.5118 41.8851 25.9187 41.8359 26.3451ZM37.5623 24.0199C37.5623 23.3029 37.3129 22.7313 36.8173 22.3082C36.3216 21.8852 35.698 21.672 34.953 21.672C34.2408 21.672 33.6401 21.8755 33.151 22.2824C32.6619 22.6893 32.3599 23.2674 32.2451 24.0199H37.5623Z" fill="#7E7E7E"/>
<path d="M52.3458 32.1614L49.6871 28.3731L47.4519 32.1614H42.8567L47.4289 25.1922L42.732 18.5201H47.5044L50.163 22.2857L52.3982 18.5201H56.9934L52.3458 25.3891L57.1182 32.1614H52.3458Z" fill="#7E7E7E"/>
<path d="M66.4858 28.6186V32.1645H64.3228C62.7834 32.1645 61.5821 31.7931 60.7189 31.0536C59.8589 30.3108 59.4256 29.103 59.4256 27.4237V21.9918H57.7352V18.5201H59.4256V15.197H63.6762V18.5233H66.4595V21.995H63.6762V27.4722C63.6762 27.879 63.7747 28.1729 63.9748 28.3538C64.1751 28.5346 64.5033 28.6218 64.9694 28.6218H66.4858V28.6186Z" fill="#7E7E7E"/>
<path d="M85.4706 16.0754C86.8459 16.7923 87.9094 17.7999 88.6642 19.0949C89.4192 20.3899 89.7934 21.8852 89.7934 23.5806C89.7934 25.26 89.4159 26.752 88.6642 28.0534C87.9094 29.3581 86.8426 30.3689 85.4575 31.0859C84.0756 31.8028 82.4706 32.1613 80.6489 32.1613H74.1139V15H80.6489C82.487 15 84.0954 15.3585 85.4706 16.0754ZM84.1282 27.2493C85.0243 26.387 85.4706 25.1631 85.4706 23.5806C85.4706 22.0014 85.0243 20.7678 84.1282 19.8894C83.2321 19.0077 81.9815 18.5685 80.3765 18.5685H78.3612V28.5443H80.3733C81.9815 28.5443 83.2321 28.1116 84.1282 27.2493Z" fill="#7E7E7E"/>
<path d="M130.821 19.0207C131.567 18.5879 132.394 18.3716 133.306 18.3716V22.7959H132.138C131.078 22.7959 130.284 23.0187 129.751 23.4676C129.219 23.9165 128.957 24.7012 128.957 25.8284V32.1613H124.707V18.5201H128.957V20.7936C129.456 20.0444 130.076 19.4534 130.821 19.0207Z" fill="#7E7E7E"/>
<path d="M30.7747 43.3611H33.4465V44.9111H28.7364V36.6729H30.7747V43.3611Z" fill="#7E7E7E"/>
<path d="M42.4236 38.2811V39.9475H45.1545V41.4976H42.4236V43.3061H45.5122V44.9144H40.3853V36.6729H45.5122V38.2811H42.4236Z" fill="#7E7E7E"/>
<path d="M60.2889 44.9111H58.2506L54.8403 39.8312V44.9111H52.8021V36.6729H54.8403L58.2506 41.7754V36.6729H60.2889V44.9111Z" fill="#7E7E7E"/>
<path d="M73.1785 37.1895C73.8383 37.5351 74.3503 38.0163 74.7113 38.6396C75.0724 39.2629 75.2529 39.9798 75.2529 40.7936C75.2529 41.601 75.0724 42.3147 74.7113 42.9412C74.3503 43.5678 73.8383 44.0521 73.1719 44.3977C72.509 44.7432 71.7376 44.9144 70.8646 44.9144H67.7266V36.6729H70.8646C71.7475 36.6729 72.5188 36.8472 73.1785 37.1895ZM72.5352 42.5537C72.9652 42.1403 73.1785 41.5525 73.1785 40.7936C73.1785 40.0347 72.9652 39.4437 72.5352 39.0207C72.1053 38.5976 71.5046 38.3877 70.7332 38.3877H69.7682V43.1738H70.7332C71.5079 43.1738 72.1053 42.9671 72.5352 42.5537Z" fill="#7E7E7E"/>
<path d="M84.4007 36.6729V44.9111H82.3624V36.6729H84.4007Z" fill="#7E7E7E"/>
<path d="M99.3317 44.9111H97.2934L93.8831 39.8312V44.9111H91.8448V36.6729H93.8831L97.2934 41.7754V36.6729H99.3317V44.9111Z" fill="#7E7E7E"/>
<path d="M112.33 39.279C112.179 39.0045 111.961 38.7946 111.68 38.6525C111.398 38.5072 111.066 38.4361 110.685 38.4361C110.025 38.4361 109.497 38.6492 109.1 39.0755C108.703 39.5019 108.502 40.0702 108.502 40.7839C108.502 41.5429 108.712 42.1338 109.129 42.5601C109.546 42.9864 110.121 43.1995 110.852 43.1995C111.354 43.1995 111.778 43.0736 112.123 42.8249C112.467 42.5762 112.72 42.2145 112.881 41.7463H110.294V40.2672H114.732V42.1338C114.581 42.6344 114.325 43.0994 113.964 43.529C113.602 43.9585 113.144 44.3072 112.585 44.5721C112.027 44.8369 111.4 44.9725 110.702 44.9725C109.875 44.9725 109.136 44.7949 108.489 44.4397C107.843 44.0844 107.337 43.5903 106.976 42.9541C106.615 42.3211 106.434 41.5977 106.434 40.7839C106.434 39.9701 106.615 39.2435 106.976 38.6073C107.337 37.9711 107.839 37.4738 108.485 37.1185C109.129 36.7632 109.864 36.5857 110.691 36.5857C111.693 36.5857 112.539 36.8246 113.225 37.3026C113.912 37.7805 114.368 38.4394 114.591 39.2854H112.33V39.279Z" fill="#7E7E7E"/>
<path d="M105.05 21.9336C104.416 20.8582 103.546 20.0315 102.443 19.4566C101.34 18.8818 100.103 18.5944 98.7342 18.5944C97.3655 18.5944 96.128 18.8818 95.0252 19.4566C93.9224 20.0315 93.0526 20.8582 92.4191 21.9336C91.7857 23.009 91.4673 24.2556 91.4673 25.6701C91.4673 27.1008 91.7791 28.3506 92.406 29.4163C93.0329 30.4852 93.8929 31.3054 94.9859 31.8803C96.0789 32.4551 97.313 32.7426 98.6817 32.7426C100.05 32.7426 101.291 32.4551 102.404 31.8803C103.513 31.3054 104.393 30.4788 105.036 29.4033C105.679 28.3279 106.001 27.0814 106.001 25.6668C106.001 24.2556 105.683 23.0122 105.05 21.9336ZM102.742 29.5842H99.9224V26.6227H97.5493V29.5842H94.7298V24.8789L98.7342 22.3502L102.739 24.8789V29.5842H102.742ZM103.576 24.3525C103.487 24.4881 103.336 24.5624 103.185 24.5624C103.096 24.5624 103.011 24.5398 102.932 24.4881L98.7342 21.8044L94.5362 24.4881C94.3195 24.627 94.0307 24.5656 93.8929 24.3525C93.7517 24.1393 93.8141 23.8551 94.0307 23.7195L98.4815 20.8744C98.6358 20.7742 98.8359 20.7742 98.9902 20.8744L103.441 23.7195C103.654 23.8584 103.717 24.1426 103.576 24.3525Z" fill="#7E7E7E"/>
<path d="M121.402 21.9336C120.768 20.8582 119.899 20.0315 118.795 19.4566C117.693 18.8818 116.456 18.5944 115.086 18.5944C113.718 18.5944 112.48 18.8818 111.378 19.4566C110.274 20.0315 109.405 20.8582 108.771 21.9336C108.138 23.009 107.819 24.2556 107.819 25.6701C107.819 27.1008 108.131 28.3506 108.758 29.4163C109.386 30.4852 110.245 31.3054 111.339 31.8803C112.431 32.4551 113.665 32.7426 115.034 32.7426C116.403 32.7426 117.643 32.4551 118.756 31.8803C119.866 31.3054 120.745 30.4788 121.389 29.4033C122.031 28.3279 122.354 27.0814 122.354 25.6668C122.354 24.2556 122.035 23.0122 121.402 21.9336ZM119.094 29.5842H116.271V26.6227H113.898V29.5842H111.079V24.8789L115.083 22.3502L119.088 24.8789V29.5842H119.094ZM119.928 24.3525C119.84 24.4881 119.688 24.5624 119.537 24.5624C119.449 24.5624 119.363 24.5398 119.284 24.4881L115.086 21.8044L110.889 24.4881C110.672 24.627 110.383 24.5656 110.245 24.3525C110.104 24.1393 110.167 23.8551 110.383 23.7195L114.834 20.8744C114.988 20.7742 115.188 20.7742 115.343 20.8744L119.793 23.7195C120.006 23.8584 120.069 24.1426 119.928 24.3525Z" fill="#7E7E7E"/>
</svg>
