<svg xmlns="http://www.w3.org/2000/svg" width="164" height="32" viewBox="0 0 164 32" fill="none">
<path d="M77.7841 17.6705C77.7841 20.1413 76.9016 22.2513 75.1383 24.0021C73.3734 25.7529 71.2464 26.6268 68.7573 26.6268C66.2666 26.6268 64.1396 25.7514 62.3763 24.0021C60.6114 22.2528 59.7305 20.1413 59.7305 17.6705C59.7305 15.1998 60.6129 13.0898 62.3763 11.3405C64.1412 9.59123 66.2682 8.71582 68.7573 8.71582C71.2479 8.71582 73.3749 9.59123 75.1383 11.3405C76.9016 13.0898 77.7841 15.1998 77.7841 17.6705ZM68.7557 10.5055C66.7619 10.5055 65.0597 11.2052 63.649 12.6046C62.2384 14.0041 61.533 15.6927 61.533 17.6705C61.533 19.6484 62.2384 21.337 63.649 22.7364C65.0597 24.1358 66.7619 24.8356 68.7557 24.8356C70.7495 24.8356 72.4517 24.1358 73.8624 22.7364C75.2731 21.337 75.9784 19.6484 75.9784 17.6705C75.9784 15.6927 75.2731 14.0041 73.8624 12.6046C72.4517 11.2052 70.7495 10.5055 68.7557 10.5055Z" fill="black"/>
<path d="M81.3955 31.1048C81.3955 31.3505 81.3077 31.5619 81.1306 31.7376C80.9535 31.9133 80.7419 32.0004 80.4927 32.0004C80.245 32.0004 80.0319 31.9133 79.8547 31.7376C79.6776 31.5619 79.5898 31.352 79.5898 31.1048V20.3573C79.5898 18.6267 80.2058 17.1479 81.441 15.9242C82.6745 14.7005 84.1652 14.0879 85.9097 14.0879C87.6558 14.0879 89.1449 14.7005 90.3784 15.9242C91.612 17.1479 92.2296 18.6267 92.2296 20.3573C92.2296 22.0894 91.612 23.5666 90.3784 24.7903C89.1449 26.014 87.6543 26.6267 85.9097 26.6267C84.1652 26.6267 82.6745 26.014 81.441 24.7903C81.4253 24.7748 81.4112 24.7608 81.3955 24.7452V31.1048V31.1048ZM81.3955 20.3573C81.3955 21.5965 81.836 22.6523 82.7153 23.5262C83.5962 24.4 84.6605 24.8354 85.9097 24.8354C87.159 24.8354 88.2232 24.3985 89.1041 23.5262C89.985 22.6523 90.4239 21.5965 90.4239 20.3573C90.4239 19.118 89.9835 18.0622 89.1041 17.1884C88.2232 16.3145 87.159 15.8791 85.9097 15.8791C84.6605 15.8791 83.5962 16.3161 82.7153 17.1884C81.8344 18.0622 81.3955 19.118 81.3955 20.3573Z" fill="black"/>
<path d="M100.353 24.8351C100.601 24.8351 100.814 24.9222 100.991 25.0979C101.169 25.2736 101.256 25.4835 101.256 25.7308C101.256 25.978 101.169 26.1879 100.991 26.3636C100.814 26.5393 100.603 26.6264 100.353 26.6264C97.344 26.6264 95.8392 25.1337 95.8392 22.1483V15.8789H94.9364C94.6888 15.8789 94.4756 15.7918 94.2985 15.6161C94.1213 15.4404 94.0336 15.2305 94.0336 14.9832C94.0336 14.7376 94.1213 14.5261 94.2985 14.3504C94.4756 14.1747 94.6872 14.0876 94.9364 14.0876H95.8392V9.60949C95.8392 9.36381 95.927 9.15235 96.1041 8.97665C96.2813 8.80094 96.4929 8.71387 96.7421 8.71387C96.9913 8.71387 97.2029 8.80094 97.38 8.97665C97.5572 9.15235 97.6449 9.36226 97.6449 9.60949V14.0876H99.4616C99.7092 14.0876 99.9224 14.1747 100.1 14.3504C100.277 14.5261 100.364 14.736 100.364 14.9832C100.364 15.2289 100.277 15.4404 100.1 15.6161C99.9224 15.7918 99.7108 15.8789 99.4616 15.8789H97.6449V22.1483C97.6449 23.9395 98.5478 24.8351 100.353 24.8351Z" fill="black"/>
<path d="M105.996 11.4008C105.996 11.7071 105.885 11.9699 105.664 12.1907C105.441 12.4115 105.176 12.5203 104.868 12.5203C104.559 12.5203 104.294 12.4099 104.071 12.1907C103.849 11.9699 103.739 11.7071 103.739 11.4008C103.739 11.0945 103.85 10.8317 104.071 10.6109C104.294 10.3916 104.559 10.2812 104.868 10.2812C105.176 10.2812 105.441 10.3916 105.664 10.6109C105.885 10.8317 105.996 11.0945 105.996 11.4008ZM103.965 14.9833C103.965 14.7376 104.052 14.5262 104.23 14.3504C104.407 14.1747 104.618 14.0877 104.868 14.0877C105.115 14.0877 105.328 14.1747 105.505 14.3504C105.683 14.5262 105.77 14.7361 105.77 14.9833V25.7308C105.77 25.9765 105.683 26.188 105.505 26.3637C105.328 26.5394 105.117 26.6264 104.868 26.6264C104.62 26.6264 104.407 26.5394 104.23 26.3637C104.052 26.188 103.965 25.978 103.965 25.7308V14.9833Z" fill="black"/>
<path d="M110.443 16.1136C109.637 15.1729 109.285 14.0829 109.382 12.8452C109.487 11.6137 110.014 10.5983 110.962 9.80066C111.811 9.07608 112.789 8.71533 113.896 8.71533C115.205 8.71533 116.349 9.24867 117.327 10.3169C117.492 10.5113 117.639 10.7118 117.768 10.9217C117.859 11.0632 117.902 11.2234 117.902 11.4038C117.902 11.6494 117.815 11.8609 117.637 12.0366C117.46 12.2123 117.249 12.2994 117 12.2994C116.713 12.2994 116.503 12.2092 116.368 12.0304C116.233 11.8516 116.094 11.6681 115.951 11.4815C115.462 10.914 114.849 10.6014 114.111 10.5408C113.366 10.4817 112.708 10.6916 112.136 11.1736C111.564 11.6557 111.249 12.2621 111.188 12.9929C111.128 13.7315 111.341 14.3845 111.83 14.9521C112.228 15.333 112.876 15.6393 113.771 15.8695C115.343 16.2131 116.539 16.8475 117.36 17.7727C118.21 18.7725 118.636 19.9076 118.636 21.1764C118.636 21.3474 118.628 21.52 118.614 21.691C118.493 23.1682 117.865 24.3857 116.73 25.3404C115.714 26.1987 114.559 26.6279 113.266 26.6279C111.648 26.6279 110.256 25.9935 109.09 24.7247C108.932 24.5536 108.789 24.3701 108.661 24.1758C108.54 24.0187 108.481 23.8399 108.481 23.6378C108.481 23.3921 108.568 23.1806 108.745 23.0049C108.923 22.8292 109.134 22.7422 109.383 22.7422C109.706 22.7422 109.963 22.8805 110.151 23.1558C110.242 23.2973 110.347 23.4325 110.468 23.5585C111.108 24.3204 111.927 24.7418 112.929 24.8242C113.923 24.8988 114.799 24.6174 115.559 23.9783C116.319 23.3408 116.739 22.5291 116.822 21.5433C116.906 20.5513 116.627 19.6774 115.987 18.9233C115.431 18.3044 114.561 17.8411 113.38 17.5348C112.233 17.3342 111.255 16.8599 110.443 16.1136Z" fill="black"/>
<path d="M123.376 11.4008C123.376 11.7071 123.265 11.9699 123.044 12.1907C122.821 12.4115 122.556 12.5203 122.247 12.5203C121.939 12.5203 121.674 12.4099 121.451 12.1907C121.229 11.9699 121.119 11.7071 121.119 11.4008C121.119 11.0945 121.23 10.8317 121.451 10.6109C121.674 10.3916 121.939 10.2812 122.247 10.2812C122.556 10.2812 122.821 10.3916 123.044 10.6109C123.265 10.8317 123.376 11.0945 123.376 11.4008ZM121.345 14.9833C121.345 14.7376 121.432 14.5262 121.61 14.3504C121.787 14.1747 121.998 14.0877 122.247 14.0877C122.497 14.0877 122.708 14.1747 122.885 14.3504C123.063 14.5262 123.15 14.7361 123.15 14.9833V25.7308C123.15 25.9765 123.063 26.188 122.885 26.3637C122.708 26.5394 122.497 26.6264 122.247 26.6264C121.998 26.6264 121.787 26.5394 121.61 26.3637C121.432 26.188 121.345 25.978 121.345 25.7308V14.9833Z" fill="black"/>
<path d="M136.693 24.7452C136.677 24.7608 136.663 24.7748 136.647 24.7903C135.414 26.014 133.923 26.6267 132.178 26.6267C130.434 26.6267 128.943 26.014 127.71 24.7903C126.476 23.5666 125.859 22.0879 125.859 20.3573C125.859 18.6267 126.476 17.1479 127.71 15.9242C128.943 14.7005 130.434 14.0879 132.178 14.0879C133.923 14.0879 135.414 14.7005 136.647 15.9242C137.881 17.1479 138.498 18.6267 138.498 20.3573V26.6267C138.498 27.9328 138.025 29.0679 137.077 30.0304C135.752 31.3442 134.153 32.0004 132.28 32.0004C130.407 32.0004 128.812 31.3442 127.495 30.0304C127.006 29.553 126.606 29.0337 126.299 28.4739C126.208 28.3402 126.164 28.1831 126.164 28.0043C126.164 27.7586 126.252 27.5472 126.429 27.3715C126.606 27.1958 126.818 27.1087 127.067 27.1087C127.315 27.1087 127.529 27.1942 127.71 27.3668C127.785 27.4492 127.849 27.5378 127.901 27.6358C128.127 28.0385 128.417 28.4164 128.769 28.7662C129.739 29.7287 130.909 30.2107 132.279 30.2107C133.649 30.2107 134.818 29.7287 135.788 28.7662C136.39 28.0494 136.691 27.3373 136.691 26.6282V24.7452H136.693ZM132.178 15.8791C130.929 15.8791 129.865 16.3161 128.984 17.1884C128.103 18.0622 127.664 19.118 127.664 20.3573C127.664 21.5965 128.105 22.6523 128.984 23.5262C129.865 24.4 130.929 24.8354 132.178 24.8354C133.428 24.8354 134.492 24.3985 135.373 23.5262C136.254 22.6523 136.693 21.5965 136.693 20.3573C136.693 19.118 136.252 18.0622 135.373 17.1884C134.492 16.3161 133.428 15.8791 132.178 15.8791Z" fill="black"/>
<path d="M140.304 14.9835C140.304 14.7378 140.392 14.5264 140.569 14.3507C140.746 14.175 140.958 14.0879 141.207 14.0879C141.456 14.0879 141.668 14.175 141.845 14.3507C142.022 14.5264 142.11 14.7363 142.11 14.9835V15.7112C143.238 14.629 144.593 14.0879 146.173 14.0879C147.79 14.0879 149.173 14.657 150.32 15.7952C151.467 16.9334 152.041 18.3048 152.041 19.9095V25.731C152.041 25.9767 151.953 26.1882 151.776 26.3639C151.599 26.5396 151.387 26.6267 151.138 26.6267C150.889 26.6267 150.677 26.5396 150.5 26.3639C150.323 26.1882 150.235 25.9783 150.235 25.731V19.9095C150.235 18.7977 149.839 17.8477 149.044 17.0609C148.249 16.2741 147.293 15.8791 146.173 15.8791C145.052 15.8791 144.094 16.2725 143.301 17.0609C142.508 17.8492 142.11 18.7977 142.11 19.9095V25.731C142.11 25.9767 142.022 26.1882 141.845 26.3639C141.668 26.5396 141.456 26.6267 141.207 26.6267C140.958 26.6267 140.746 26.5396 140.569 26.3639C140.392 26.1882 140.304 25.9783 140.304 25.731V14.9835V14.9835Z" fill="black"/>
<path d="M156.08 20.3572C155.395 20.1037 154.917 19.8394 154.648 19.5626C154.113 19.0402 153.847 18.4089 153.847 17.6703C153.847 16.9317 154.126 16.2864 154.682 15.7345C155.765 14.6367 157.179 14.0894 158.925 14.0894C160.814 14.0894 162.431 14.8388 163.778 16.3393C163.898 16.4808 163.955 16.6565 163.947 16.8649C163.947 17.1105 163.859 17.322 163.682 17.4977C163.505 17.6734 163.293 17.7605 163.044 17.7605C162.795 17.7605 162.596 17.6828 162.445 17.5257C162.295 17.3687 162.185 17.2567 162.118 17.1898C161.237 16.316 160.173 15.8806 158.923 15.8806C157.674 15.8806 156.677 16.2693 155.933 17.0452C155.753 17.2614 155.662 17.5195 155.662 17.818C155.684 18.1694 155.869 18.4073 156.215 18.5348L161.767 20.3603C162.452 20.6138 162.93 20.8796 163.199 21.1549C163.734 21.6773 164 22.3086 164 23.0472C164 23.7858 163.721 24.431 163.165 24.9846C162.082 26.0808 160.666 26.6297 158.922 26.6297C157.025 26.6297 155.408 25.8802 154.069 24.3797C153.956 24.2227 153.9 24.0485 153.9 23.8542C153.9 23.6085 153.988 23.397 154.165 23.2213C154.342 23.0456 154.553 22.9586 154.803 22.9586C155.052 22.9586 155.251 23.0363 155.401 23.1933C155.552 23.3504 155.662 23.4623 155.729 23.5292C156.61 24.4031 157.674 24.8384 158.923 24.8384C160.173 24.8384 161.17 24.4497 161.914 23.6738C162.094 23.4577 162.185 23.1996 162.185 22.901C162.163 22.5496 161.978 22.3117 161.632 22.1842L156.08 20.3572Z" fill="black"/>
<path d="M41.9696 13.8838C41.3502 13.6801 41.2167 13.4328 41.1328 12.7969C40.7183 9.64975 39.1612 7.58328 36.5033 6.34558C34.5146 5.41885 31.7807 5.20739 29.6103 6.02527L29.5761 5.97241C29.4985 5.85268 29.4333 5.75316 29.3712 5.6552C27.1434 2.11312 23.3646 0 19.263 0C17.5118 0 15.8133 0.387177 14.2174 1.15219C10.108 3.1207 7.75594 6.51817 7.22655 11.2513C7.17687 11.6913 7.06354 11.8437 6.67542 11.9868C1.93102 13.7376 -0.739255 18.4879 0.179816 23.5397C0.592777 25.8115 1.84718 27.9121 3.70861 29.4546C5.57315 30.9986 7.88946 31.8507 10.2291 31.8538L19.3157 31.8818C21.0266 31.8818 22.3571 30.5291 22.3571 28.8171L22.3695 25.1335H14.871V20.5979H14.8772V12.9959H33.1142L33.1127 25.132H25.6297L25.6251 28.8155C25.6251 30.5291 27.0518 31.7776 28.7626 31.7776C28.7626 31.7776 35.9211 31.8367 37.7732 31.8227C39.1224 31.8134 40.5848 31.5429 42.0022 31.0406C45.7173 29.7252 48.0709 26.379 47.9979 22.5182C47.9249 18.578 45.4456 15.0282 41.9696 13.8838ZM41.2104 29.6739C40.0973 30.0159 38.8848 30.2041 37.7049 30.2212C36.0578 30.2445 33.7088 30.257 31.4577 30.2585V30.2523H28.7285C27.9383 30.2523 27.294 29.607 27.294 28.8155V26.8159H32.5196V26.8268H33.8113C34.5099 26.8268 34.8359 26.5018 34.8359 25.8021C34.8359 21.31 34.8359 16.8179 34.8359 12.3258C34.8359 11.5825 34.5301 11.2793 33.7787 11.2793H24.0011H14.2236C13.4722 11.2793 13.1664 11.5825 13.1664 12.3258V25.7726C13.1664 26.5127 13.4815 26.8284 14.2205 26.8284L20.6928 26.8191V28.8171C20.6928 29.6101 20.0485 30.2538 19.2583 30.2538H17.5366V30.2507H15.5044C13.8044 30.2507 12.1045 30.2507 10.4045 30.2492C6.08547 30.2476 2.35174 27.186 1.71678 23.1277C1.00574 18.5749 3.41985 14.5928 7.72489 13.2183C8.43593 12.9913 8.72159 12.6072 8.74022 11.85C8.85821 7.22877 12.2085 3.05073 16.706 1.9172C17.5459 1.70574 18.4075 1.59845 19.2645 1.59845C22.9703 1.59845 26.437 3.62605 28.3108 6.89135C28.5468 7.30029 28.789 7.72478 29.3293 7.72478C29.5016 7.72478 29.6895 7.68124 29.9053 7.5895C30.7809 7.22099 31.6875 7.0344 32.6004 7.0344C35.7845 7.0344 39.1689 9.81458 39.5369 12.6601C39.7511 14.3145 40.3053 15.0095 41.8175 15.518C44.5638 16.4431 46.5479 19.6385 46.4315 22.9489C46.3212 26.0463 44.2238 28.7502 41.2104 29.6739Z" fill="#20CE88"/>
<path d="M27.8044 17.3557C27.4333 16.6032 26.8713 16.0061 26.1308 15.5816C26.0314 15.524 25.9212 15.4945 25.811 15.4945C25.5144 15.4945 25.2645 15.6982 25.2039 15.9905C25.145 16.2766 25.2629 16.5099 25.5657 16.7027C26.7052 17.4288 27.2222 18.6929 26.9117 20.0006C26.5965 21.327 25.3701 22.2879 23.9961 22.2879C23.8347 22.2879 23.6716 22.2739 23.5117 22.2475C22.5244 22.0826 21.7124 21.4685 21.2839 20.5619C20.8539 19.6539 20.8943 18.6339 21.3942 17.7631C21.6457 17.3231 22.0136 16.9561 22.5197 16.6405C22.8116 16.4585 22.8954 16.0838 22.7122 15.7899C22.5973 15.6033 22.3939 15.4883 22.1828 15.4883C22.0648 15.4883 21.9499 15.5241 21.8506 15.5925L21.7947 15.6313C21.5075 15.8304 21.2094 16.0356 20.9641 16.2891C19.9674 17.32 19.5746 18.5483 19.7982 19.9415C20.132 22.022 21.8428 23.5318 23.8704 23.5318H23.8937C24.9245 23.5318 25.7551 23.2722 26.5111 22.7139C27.601 21.9085 28.1894 20.7936 28.2623 19.3958C28.2934 18.7272 28.1397 18.0383 27.8044 17.3557Z" fill="#20CE88"/>
<path d="M23.3439 17.1473C23.3424 17.477 23.3408 17.8066 23.347 18.1347C23.3532 18.5141 23.6451 18.822 23.996 18.822H23.9975C24.3468 18.8204 24.6449 18.5126 24.648 18.1487C24.6558 17.1769 24.6558 16.2268 24.648 15.3297C24.6449 14.9627 24.353 14.6626 23.996 14.6626C23.6404 14.6626 23.3548 14.9565 23.3486 15.3312C23.3424 15.6577 23.3439 15.9889 23.3455 16.3092C23.3455 16.4228 23.347 16.5347 23.347 16.6482V16.726C23.3455 16.8659 23.3439 17.0074 23.3439 17.1473Z" fill="#20CE88"/>
</svg>