<svg xmlns="http://www.w3.org/2000/svg" width="151" height="60" fill="none" viewBox="0 0 151 60"><path fill="#7e7e7e" fill-rule="evenodd" d="M36.426 17.632c-2.641-.657-5.146.496-6.867 2.196l-2.19 2.163a6.7 6.7 0 0 1-3.007 1.712l-7.913 2.075c-2.34.614-4.963 2.248-5.418 5.187-.377 2.436.1 5.268 2.5 7.533 2.344 2.212 6.33 3.695 12.547 3.986 9.823.458 16.505-1.293 19.845-4.84 1.717-1.822 2.485-4.058 2.35-6.495-.132-2.397-1.13-4.921-2.808-7.438-2.543-3.814-6.344-5.41-9.039-6.08m-4.985 4.101c1.287-1.27 2.879-1.866 4.34-1.503 2.349.584 5.426 1.921 7.456 4.966 1.508 2.263 2.265 4.33 2.362 6.1.096 1.732-.43 3.243-1.625 4.512-2.484 2.638-8.094 4.452-17.771 4-5.924-.276-9.157-1.676-10.834-3.258-1.62-1.528-1.966-3.401-1.691-5.175.215-1.392 1.55-2.508 3.45-3.006l7.914-2.075a9.4 9.4 0 0 0 4.208-2.398zM84.97 20.12v8.75a4.1 4.1 0 0 1 1.216-1.261q.994-.64 2.253-.64 1.326 0 2.453.64 1.126.618 1.811 1.812.685 1.17.685 2.85 0 1.656-.685 2.85-.684 1.192-1.811 1.833a5 5 0 0 1-2.453.619q-1.26 0-2.253-.64a4.1 4.1 0 0 1-1.215-1.261v1.68h-2.409V20.12zm.42 13.918q-.42-.729-.42-1.767 0-1.039.42-1.746.442-.729 1.105-1.104t1.348-.376q.84 0 1.524.376.707.375 1.127 1.104t.42 1.746-.42 1.745-1.127 1.105q-.684.375-1.524.375-.685 0-1.348-.375a3.1 3.1 0 0 1-1.105-1.083M58.858 21.887v15.465h2.607v-5.855h2.054q1.68 0 2.917-.574 1.26-.596 1.944-1.68.685-1.08.685-2.562 0-1.48-.685-2.54-.686-1.083-1.944-1.658-1.237-.597-2.917-.596zm2.607 2.297V29.2h2.054q1.348 0 2.166-.641.816-.64.817-1.878 0-1.238-.817-1.856-.818-.64-2.166-.64zM70.63 35.054a4.6 4.6 0 0 0 1.812 1.856q1.192.663 2.74.663 1.767 0 3.026-.685 1.26-.684 2.055-2.054l-2.055-.84q-.486.818-1.215 1.215t-1.701.398q-.928 0-1.59-.398-.642-.398-.973-1.149a4.2 4.2 0 0 1-.3-1.237h7.9q.022-.089.022-.287.022-.2.022-.376 0-1.635-.618-2.784a4.13 4.13 0 0 0-1.724-1.79q-1.126-.618-2.74-.618-1.612 0-2.805.663a4.54 4.54 0 0 0-1.856 1.834q-.64 1.192-.64 2.806 0 1.59.64 2.783m1.863-3.866h5.286a2.7 2.7 0 0 0-.322-1.149 2.24 2.24 0 0 0-.884-.928q-.552-.33-1.303-.331-.906 0-1.547.397a2.5 2.5 0 0 0-.972 1.15q-.17.384-.258.861M97.98 28.87v-8.75h-2.407v17.232h2.408v-1.68q.49.783 1.215 1.26.994.64 2.254.641 1.325 0 2.452-.619 1.127-.64 1.812-1.833.684-1.194.684-2.85 0-1.68-.684-2.85-.686-1.194-1.812-1.812a4.9 4.9 0 0 0-2.452-.64q-1.26 0-2.254.64a4.1 4.1 0 0 0-1.215 1.26m0 3.4q0 1.04.42 1.768.442.706 1.105 1.083.663.375 1.348.375.84 0 1.524-.375.707-.376 1.127-1.105.42-.73.42-1.745 0-1.017-.42-1.746a2.8 2.8 0 0 0-1.127-1.104 3.1 3.1 0 0 0-1.524-.376q-.685 0-1.348.376-.663.375-1.104 1.104-.42.707-.42 1.746" clip-rule="evenodd"/><path fill="#7e7e7e" d="M108.671 20.12h2.386v17.232h-2.386z"/><path fill="#7e7e7e" fill-rule="evenodd" d="M113.976 35.054a4.6 4.6 0 0 0 1.811 1.856q1.194.663 2.74.663 1.767 0 3.027-.685 1.259-.684 2.054-2.054l-2.054-.84q-.486.818-1.215 1.215t-1.702.398q-.927 0-1.59-.398a2.5 2.5 0 0 1-.972-1.149 4.2 4.2 0 0 1-.301-1.237h7.901q.022-.089.022-.287.022-.2.022-.376 0-1.635-.619-2.784a4.13 4.13 0 0 0-1.723-1.79q-1.126-.618-2.74-.618-1.613 0-2.805.663a4.54 4.54 0 0 0-1.856 1.834q-.64 1.192-.641 2.806 0 1.59.641 2.783m1.862-3.866h5.287a2.7 2.7 0 0 0-.322-1.149 2.24 2.24 0 0 0-.884-.928q-.552-.33-1.304-.331-.906 0-1.546.397-.64.399-.972 1.15a4 4 0 0 0-.259.861" clip-rule="evenodd"/><path fill="#7e7e7e" d="M125.996 20.12h2.387v17.232h-2.387zM133.797 42.213l6.629-15.024h-2.563l-2.635 6.606-2.668-6.606h-2.739l4.087 8.97-2.651 6.054z"/></svg>