<svg xmlns="http://www.w3.org/2000/svg" width="82" height="60" fill="none" viewBox="0 0 82 60"><path fill="#7e7e7e" d="M33.9 20.487h-2.911v3.047h2.91zm37.293 15.506v-7.279c0-4.254-2.663-6.152-8.638-6.152-5.02 0-8.015 2.256-8.015 6.037h2.935c0-2.263 1.567-3.27 5.08-3.27 4.245 0 5.751.94 5.751 3.593-1.037.14-2.022.263-2.984.383-7.214.902-11.568 1.447-11.568 5.622 0 1.637.627 2.798 1.918 3.547 1.155.67 3.214 1.04 5.795 1.04 3.478 0 6.372-.846 7.203-2.103-.076 1.143 0 1.853 0 1.86h2.647c-.004-.013-.124-1.315-.124-3.278m-2.887-3.427c0 1.774-.629 2.992-1.924 3.72-1.157.65-2.897.954-5.47.954-1.578 0-4.223-.303-4.223-2.337 0-.992.69-1.598 2.381-2.088 1.823-.53 4.886-.94 9.238-1.426v1.177zm-11.47 2.302h-.073v.069h.072zM20.88 20.487H10.43V39.27h2.911v-6.683h7.54c7.041 0 7.802-4.231 7.802-6.049-.002-1.82-.763-6.051-7.803-6.051m-.525 9.312H13.34v-6.524h7.016c3.645 0 5.2.975 5.2 3.261C25.555 28.823 24 29.8 20.355 29.8m33.022-7.124h-4.032L39.3 30.465v-9.978h-2.91V39.27h2.91v-7.93l10.14 7.93h4.222l-10.83-8.573zM33.9 24.852h-2.911V39.27h2.91z"/></svg>