<svg width="82" height="60" viewBox="0 0 82 60" fill="none" xmlns="http://www.w3.org/2000/svg">
<path d="M34.3 20H31.389V23.0474H34.3V20ZM71.5928 35.5066V28.2277C71.5928 23.9728 68.9298 22.0746 62.9555 22.0746C57.9358 22.0746 54.9397 24.3317 54.9397 28.1122H57.8749C57.8749 25.8492 59.442 24.8415 62.9555 24.8415C67.2002 24.8415 68.7063 25.7825 68.7063 28.4356C67.6691 28.5748 66.6847 28.6985 65.7225 28.8181C58.5082 29.7201 54.1543 30.2653 54.1543 34.4399C54.1543 36.0773 54.7813 37.2382 56.0723 37.9872C57.2275 38.6577 59.2857 39.0263 61.8676 39.0263C65.345 39.0263 68.2395 38.1811 69.0696 36.9243C68.9947 38.0675 69.0696 38.7773 69.0696 38.7833H71.7167C71.7127 38.7715 71.5928 37.4694 71.5928 35.5066ZM68.7063 32.079C68.7063 33.8535 68.0771 35.0712 66.782 35.7988C65.6249 36.4497 63.8854 36.7537 61.3115 36.7537C59.7343 36.7537 57.0894 36.4497 57.0894 34.4163C57.0894 33.4242 57.7795 32.8183 59.4704 32.3281C61.2933 31.7986 64.3564 31.3887 68.7084 30.9024V32.079H68.7063ZM57.2356 34.3811H57.1628V34.4496H57.2356V34.3811ZM21.2804 20H10.8306V38.7833H13.7414V32.1006H21.2804C28.3221 32.1006 29.0833 27.8692 29.0833 26.0513C29.0812 24.2317 28.3199 20 21.2804 20ZM20.7547 29.3124H13.7414V22.7885H20.7567C24.4025 22.7885 25.9572 23.763 25.9572 26.0494C25.9553 28.3358 24.4003 29.3124 20.7547 29.3124ZM53.7767 22.1885H49.7454L39.6995 29.979V20H36.7886V38.7833H39.6995V30.8534L49.8386 38.7833H54.0608L43.2315 30.2103L53.7767 22.1885ZM34.3 24.365H31.389V38.7833H34.3V24.365Z" fill="#7E7E7E"/>
</svg>
