<svg xmlns="http://www.w3.org/2000/svg" width="113" height="60" fill="none" viewBox="0 0 113 60"><g clip-path="url(#a)"><mask id="b" width="96" height="56" x="7" y="18" maskUnits="userSpaceOnUse" style="mask-type:luminance"><path fill="#fff" d="M102.931 18.71H7.608v54.48h95.323z"/></mask><g mask="url(#b)"><path fill="#7e7e7e" d="M102.931 42.104H76.766V35.42h26.165z"/><path fill="#7e7e7e" d="M99.532 42.104H76.766V25.39h22.766z"/><path fill="#7e7e7e" d="M90.126 42.103h-13.36V18.711h13.36z"/><path fill="#7e7e7e" d="M92.755 42.103h-15.99V21.321h15.99z"/><path fill="#7e7e7e" d="M76.762 21.325v20.776h13.363V21.325z"/><path fill="#3e3e3e" d="M63.368 42.104h13.398v3.34H63.368z"/><path fill="#7e7e7e" d="M90.046 25.386v10.081h2.717v-10.08z"/><path fill="#7e7e7e" d="M76.762 25.386v16.715h13.363V25.386z"/><path fill="#505050" d="M85.12 35.533h-8.354v-3.461h8.355z"/><path fill="#7e7e7e" d="M76.762 35.426V42.1H99.54v-6.675z"/><path fill="#7e7e7e" d="M90.11 35.426V42.1h2.653v-6.675z"/><path fill="#505050" d="M76.762 35.426V42.1h13.363v-6.675z"/><path fill="#3e3e3e" d="M76.762 35.426V42.1h8.367v-6.675z"/><path fill="#7e7e7e" d="M65.304 24.755c-2.28.404-3.495 2.123-3.495 5.105 0 3.033 1.62 5.055 4.002 5.055 1.165 0 2.178-.405 4.305-1.466v2.477c-2.583 1.213-4.103 1.516-6.13 1.516-2.279 0-3.9-.556-5.166-1.92-1.317-1.315-2.026-3.033-2.026-5.005 0-4.296 3.242-7.279 7.953-7.279 3.09 0 5.268 1.466 5.268 3.539 0 1.364-1.013 2.325-2.482 2.325-.76 0-1.368-.253-2.23-.708M53.906 30.517c2.077-2.578 2.837-3.64 2.837-4.903 0-1.264-1.014-2.376-2.432-2.376-.81 0-1.57.455-1.925.86v5.307l-3.394 4.55V23.642H45.75l-5.37 8.846v-8.846h-1.823l-4.914 1.112v1.264l2.685.252V37.24h3.394l5.167-8.492v8.492h3.8M23.36 35.521h.76c2.735 0 4.255-1.668 4.255-5.004 0-2.78-1.216-4.296-3.496-4.296-.304 0-.76.05-1.52.202zm0 5.965 2.229.506v1.263h-8.764v-1.264l2.026-.505V26.221h-2.229v-1.264l5.32-1.617h1.418v1.82c2.482-1.517 3.343-1.77 4.66-1.77 2.938 0 5.167 2.73 5.167 6.52 0 4.348-2.989 7.33-7.548 7.33-.506 0-1.368-.05-2.28-.101"/></g></g><defs><clipPath id="a"><path fill="#fff" d="M10.43 18.5h92v27h-92z"/></clipPath></defs></svg>