<svg width="114" height="60" viewBox="0 0 114 60" fill="none" xmlns="http://www.w3.org/2000/svg">
<path fill-rule="evenodd" clip-rule="evenodd" d="M31.2435 42.1556C31.2724 42.2874 31.371 42.3083 31.4695 42.3292C31.5365 42.3434 31.6034 42.3575 31.6483 42.4066C31.6624 42.4222 31.6789 42.4358 31.6952 42.4494L31.7093 42.4611L31.7218 42.4721C31.7134 42.4759 31.7049 42.4795 31.6963 42.483C31.6792 42.4902 31.6621 42.4973 31.646 42.5065C31.5461 42.5685 31.4531 42.5812 31.3268 42.5502C31.2624 42.5341 31.1978 42.5196 31.1332 42.5051C30.8831 42.4489 30.6341 42.393 30.4114 42.2516C30.3999 42.2439 30.3807 42.249 30.361 42.2543C30.3512 42.257 30.3413 42.2596 30.3322 42.2607L30.3329 42.2647L30.3337 42.2701L30.3342 42.2752L30.3349 42.2839C30.3363 42.301 30.3377 42.3179 30.3471 42.3274C30.4781 42.4675 30.5573 42.6271 30.5584 42.8246C30.5584 42.8879 30.5663 42.9507 30.5741 43.0136C30.5775 43.0409 30.5809 43.0682 30.5837 43.0957C30.4496 43.1005 30.4464 43.0164 30.4435 42.9366C30.4422 42.9016 30.4409 42.8674 30.4287 42.8419C30.3017 42.5744 30.0774 42.4173 29.8532 42.2602C29.8117 42.2312 29.7701 42.2021 29.7293 42.1723C29.6534 42.1169 29.5636 42.0788 29.4752 42.0412L29.4272 42.0207C29.3265 41.9777 29.2238 41.9385 29.1212 41.8993C29.0869 41.8863 29.0525 41.8732 29.0184 41.8599C29.0337 41.8956 29.0519 41.931 29.0702 41.9663C29.1106 42.0447 29.1509 42.1229 29.1596 42.2045C29.1792 42.3914 29.1774 42.5805 29.1756 42.7689C29.1751 42.8235 29.1745 42.8782 29.1745 42.9326C29.1745 42.9474 29.1619 42.9616 29.1491 42.976C29.143 42.9829 29.1369 42.9899 29.1321 42.9969C29.1276 42.9885 29.1223 42.9801 29.1171 42.9718C29.1073 42.9564 29.0975 42.941 29.093 42.9246C29.0241 42.6168 28.9276 42.3228 28.6669 42.1172C28.5337 42.0127 28.3982 41.9093 28.2558 41.8186C28.2103 41.7893 28.1566 41.7735 28.1025 41.7575C28.0761 41.7497 28.0495 41.7419 28.0238 41.7325C28.0298 41.7538 28.0354 41.7754 28.041 41.7969C28.0547 41.8494 28.0686 41.9026 28.0881 41.953C28.2363 42.3343 28.25 42.5467 28.1455 42.936C28.141 42.9528 28.1298 42.968 28.1188 42.9831L28.1105 42.9947C28.1078 42.9985 28.1053 43.0023 28.103 43.0061C28.0983 42.9979 28.0922 42.9898 28.086 42.9818C28.0742 42.9662 28.0624 42.9508 28.0617 42.9349C28.0414 42.4175 27.7377 42.0531 27.4341 41.6888C27.3946 41.6414 27.3552 41.5941 27.3163 41.5464C27.2755 41.4967 27.2323 41.4488 27.1888 41.4008C27.165 41.3745 27.1412 41.3481 27.1177 41.3213C27.1033 41.3055 27.0905 41.2882 27.0776 41.2707C27.0707 41.2615 27.0639 41.2523 27.0568 41.2432C27.054 41.2512 27.0507 41.2592 27.0474 41.267C27.0398 41.2851 27.0323 41.3029 27.0315 41.3213C27.02 41.6337 27.0258 41.9392 27.1487 42.2412C27.2218 42.4195 27.2679 42.6088 27.3139 42.7979C27.3307 42.8672 27.3476 42.9363 27.3657 43.005C27.3698 43.0204 27.3595 43.0398 27.3495 43.0587C27.3453 43.0666 27.3412 43.0745 27.3382 43.0819C27.3307 43.0778 27.3223 43.0744 27.314 43.0711C27.2965 43.0641 27.2793 43.0572 27.2715 43.044C27.2301 42.9804 27.1884 42.9169 27.1467 42.8534L27.1461 42.8524C26.9873 42.6105 26.8284 42.3684 26.6812 42.1195C26.6273 42.0288 26.6077 41.907 26.602 41.7979C26.5952 41.6663 26.595 41.5348 26.5949 41.4032C26.5948 41.2913 26.5947 41.1794 26.5905 41.0675C26.5897 41.0407 26.5646 41.0144 26.5396 40.9883C26.5314 40.9797 26.5231 40.9711 26.5158 40.9625C26.5156 41.041 26.5162 41.1195 26.5168 41.198C26.5184 41.4002 26.52 41.6029 26.5078 41.8037C26.4837 42.1964 26.4378 42.5881 26.2781 42.9556C26.2661 42.9834 26.2466 43.0083 26.2272 43.0332C26.217 43.0462 26.2068 43.0593 26.1977 43.0727C26.1942 43.0607 26.1898 43.0487 26.1854 43.0367C26.1755 43.0097 26.1656 42.9826 26.1656 42.9556C26.1643 42.8777 26.1661 42.7996 26.1679 42.7215C26.171 42.5843 26.1741 42.4465 26.161 42.3113L26.1496 42.195C26.1029 41.7166 26.0563 41.2375 25.8268 40.7988C25.8165 40.7798 25.8019 40.7636 25.7871 40.7471C25.7803 40.7396 25.7735 40.732 25.7671 40.7241C25.7657 40.728 25.7641 40.7319 25.7625 40.7359L25.7571 40.748C25.7488 40.7663 25.7405 40.7846 25.7429 40.8022C25.7692 41.0445 25.7032 41.2702 25.6372 41.4954C25.6082 41.5947 25.5791 41.694 25.558 41.7945L25.5431 41.8659C25.4 42.5517 25.3925 42.5876 25.5592 43.3587C25.5647 43.3856 25.5593 43.4148 25.5539 43.4439C25.5515 43.4569 25.5491 43.4699 25.5477 43.4827C25.5385 43.4736 25.5284 43.465 25.5184 43.4565C25.497 43.4383 25.476 43.4204 25.465 43.3977C25.2066 42.8694 25.0504 42.3365 25.202 41.7302C25.2506 41.5364 25.2427 41.3285 25.2348 41.1201C25.2306 41.0086 25.2263 40.8969 25.2307 40.7873C25.2514 40.2601 25.2032 39.7422 25.0539 39.2357C25.042 39.1969 25.0321 39.1568 25.0222 39.1168L25.0114 39.0738C25.0066 39.0925 25.0009 39.1113 24.9952 39.1301C24.9817 39.1746 24.9682 39.2192 24.9666 39.2644C24.9639 39.3384 24.9652 39.4127 24.9666 39.487C24.9681 39.5707 24.9697 39.6543 24.9654 39.7376C24.9584 39.877 24.9528 40.0166 24.9471 40.1561C24.9315 40.542 24.916 40.9281 24.8713 41.311C24.7978 41.9346 24.5164 42.4663 24.0329 42.8798C24.0198 42.8912 24.0022 42.898 23.9848 42.9046C23.9777 42.9074 23.9706 42.9101 23.964 42.9131C23.961 42.9 23.9558 42.8861 23.9507 42.8723C23.94 42.8435 23.9294 42.815 23.9387 42.7948C23.9744 42.714 24.0138 42.6345 24.0533 42.5551C24.0951 42.4709 24.1369 42.3867 24.1741 42.3009C24.2453 42.1356 24.3154 41.9679 24.3602 41.7945C24.3762 41.732 24.3654 41.6622 24.3547 41.5929C24.35 41.563 24.3454 41.5331 24.343 41.5039C24.3247 41.5309 24.306 41.5578 24.2873 41.5847C24.2569 41.6286 24.2263 41.6727 24.1971 41.7175C24.1688 41.7608 24.1408 41.8043 24.1129 41.8478C24.057 41.9349 24.0011 42.0219 23.9422 42.1069C23.7883 42.3308 23.6447 42.5571 23.6723 42.8476C23.6746 42.8763 23.6769 42.9073 23.6688 42.9326C23.6437 43.0095 23.6168 43.0852 23.5898 43.161L23.5895 43.162L23.5597 43.2461C23.5534 43.2134 23.5456 43.1806 23.5378 43.1478C23.5216 43.0795 23.5054 43.0112 23.5023 42.9429C23.4862 42.5594 23.5138 42.1907 23.6585 41.8186C23.8227 41.3983 23.8767 40.9423 23.8457 40.4841C23.8441 40.4568 23.8335 40.4305 23.823 40.4043C23.818 40.3919 23.813 40.3795 23.8089 40.3669C23.8042 40.3782 23.7991 40.3895 23.794 40.4009C23.783 40.4253 23.772 40.4498 23.7641 40.4749C23.7337 40.5697 23.7047 40.6651 23.6758 40.7604C23.6154 40.9597 23.555 41.1589 23.4805 41.3523C23.3024 41.8119 22.9956 42.1913 22.6897 42.5696L22.6191 42.657C22.4576 42.858 22.2962 43.059 22.1336 43.26C22.1103 42.9908 22.2186 42.7603 22.3269 42.5296C22.3524 42.4751 22.3783 42.4202 22.4021 42.3653C22.4112 42.3438 22.4174 42.3204 22.4235 42.2969L22.4278 42.2805L22.4302 42.2718L22.4331 42.2619C22.4214 42.2636 22.4091 42.2644 22.3969 42.2652C22.3684 42.2671 22.3399 42.2689 22.3182 42.2826C21.9105 42.5364 21.5028 42.7902 21.2547 43.2266C21.2455 43.2436 21.2171 43.2491 21.1883 43.2548C21.1742 43.2576 21.16 43.2604 21.1479 43.2645C21.1496 43.2482 21.1515 43.2319 21.1533 43.2155L21.1557 43.1951C21.157 43.1835 21.1583 43.1718 21.1594 43.16C21.195 42.8074 21.365 42.526 21.6096 42.2768C21.7968 42.085 21.9691 41.8783 22.1379 41.6693L22.1422 41.664C22.2245 41.562 22.3123 41.4532 22.2991 41.3068C22.2772 41.3244 22.2544 41.3414 22.2316 41.3584C22.179 41.3977 22.1262 41.4371 22.0828 41.4844C21.5786 42.0414 20.9286 42.3228 20.2188 42.5054C19.8502 42.6001 19.4855 42.7114 19.1208 42.8226C19.0037 42.8583 18.8867 42.894 18.7695 42.9292C18.6937 42.952 18.6203 42.9834 18.5467 43.015C18.5165 43.0279 18.4863 43.0408 18.4559 43.0532C18.4279 43.0647 18.4049 43.0884 18.382 43.112C18.3365 43.159 18.2911 43.2058 18.2056 43.1577L18.2437 43.0998C18.2759 43.0509 18.3082 43.0018 18.3411 42.9533C18.6121 42.5571 19.029 42.3848 19.4585 42.2435C19.6642 42.1755 19.8735 42.1194 20.0827 42.0634L20.0836 42.0631C20.1845 42.0361 20.2862 42.0089 20.3865 41.9805C20.408 41.9749 20.4288 41.9662 20.4494 41.9576L20.4635 41.9518C20.4552 41.9461 20.4471 41.9394 20.439 41.9327C20.4214 41.9181 20.4036 41.9034 20.3831 41.8978C19.8433 41.7531 19.3276 41.752 18.8533 42.1126C18.4376 42.4284 17.9495 42.5283 17.4384 42.6041C17.0065 42.6684 16.5762 42.6655 16.146 42.6625C15.9232 42.661 15.6997 42.6595 15.4768 42.6673C15.4499 42.6681 15.4229 42.6574 15.3955 42.6465C15.3833 42.6417 15.371 42.6368 15.3585 42.6329L15.3679 42.6282L15.3851 42.6194C15.4097 42.6066 15.4346 42.5937 15.4607 42.5869C15.5746 42.5576 15.6884 42.5279 15.8021 42.4982L15.8031 42.4979C16.1349 42.4112 16.467 42.3244 16.801 42.2493C17.4809 42.0965 18.1263 41.8634 18.6764 41.427C19.0417 41.1376 19.462 41.0618 19.9007 41.0376C20.576 41.002 21.1721 40.7965 21.6383 40.2842C22.0816 39.7984 22.2275 39.2449 22.0483 38.6006C21.8209 37.7829 21.2903 37.2672 20.5071 36.9836C20.1763 36.8641 19.849 36.7481 19.4907 36.7309C18.9096 36.7033 18.4824 36.948 18.1711 37.428C18.1072 37.5263 18.0392 37.622 17.9713 37.7176C17.867 37.8642 17.7628 38.0108 17.6738 38.1665C17.4648 38.5328 17.1111 38.6741 16.7505 38.7924C16.1958 38.9739 15.7077 38.7625 15.2402 38.4812C15.215 38.4662 15.1926 38.4464 15.1701 38.4266C15.1496 38.4085 15.1289 38.3903 15.1059 38.3755C14.9348 38.2641 14.7682 38.1516 14.697 37.946C14.7585 37.9759 14.8201 38.0055 14.8816 38.035C14.9943 38.089 15.1075 38.1434 15.2196 38.1998C15.6755 38.4295 16.1383 38.4524 16.6092 38.2526C16.948 38.1091 17.1869 37.8438 17.3752 37.544C17.4752 37.3832 17.5555 37.1719 17.5452 36.9893C17.5326 36.7768 17.4602 36.5391 17.1915 36.4633C17.0357 36.4188 16.881 36.369 16.7262 36.3193C16.4144 36.2191 16.1028 36.1189 15.7835 36.0613C15.3356 35.9798 14.9704 36.244 14.6476 36.5299C14.5416 36.6239 14.4429 36.7259 14.3442 36.8279C14.2634 36.9114 14.1823 36.9952 14.0975 37.0743C13.7082 37.4361 13.2626 37.6566 12.7136 37.5911C12.6339 37.5815 12.5558 37.5534 12.4786 37.5257L12.4334 37.5096C12.415 37.5034 12.4002 37.4876 12.3853 37.4717C12.3778 37.4636 12.3702 37.4556 12.3622 37.4487C12.3697 37.446 12.3773 37.4428 12.3848 37.4396C12.4026 37.4322 12.4206 37.4247 12.4391 37.4223C12.491 37.4155 12.543 37.4107 12.595 37.406C12.6834 37.3979 12.7715 37.3898 12.8583 37.3717C13.467 37.2443 13.8828 36.8595 14.1986 36.3485C14.31 36.1682 14.4191 35.9867 14.5098 35.7961C14.7372 35.3206 15.3677 35.0162 15.9144 35.2563C16.045 35.3137 16.1782 35.3658 16.3114 35.4178C16.4524 35.4728 16.5934 35.528 16.7309 35.5893C16.8894 35.6605 17.0456 35.7042 17.2202 35.7065C17.381 35.7088 17.4246 35.6341 17.4062 35.4975C17.3955 35.4142 17.3828 35.3311 17.3701 35.248C17.3531 35.1362 17.3361 35.0244 17.3236 34.9117C17.3197 34.8791 17.3347 34.8449 17.3498 34.8105C17.3571 34.7941 17.3643 34.7776 17.3695 34.7613C17.3811 34.7705 17.3952 34.7792 17.4093 34.788C17.441 34.8078 17.473 34.8277 17.4786 34.8532C17.5866 35.3275 17.961 35.502 18.3641 35.602C18.5416 35.6458 18.7195 35.6882 18.8975 35.7305L18.8997 35.7311L18.9007 35.7313L18.9017 35.7316C19.3888 35.8475 19.8763 35.9635 20.3555 36.1096C20.5014 36.1544 20.6438 36.1383 20.7552 36.0361C20.8551 35.9442 20.9493 35.8477 20.8735 35.6743L20.8582 35.6392C20.8069 35.5214 20.7588 35.4107 20.6679 35.3114C20.1637 34.759 19.5504 34.3524 18.9142 33.9769C18.3089 33.6197 17.6773 33.6427 17.0422 33.8976C16.8742 33.965 16.7086 34.039 16.5433 34.113L16.5423 34.1134L16.5414 34.1138C16.4509 34.1542 16.36 34.1949 16.2693 34.2341C15.6686 34.4948 15.0485 34.4558 14.4421 34.2973C14.0849 34.2043 13.7737 34.2479 13.4647 34.4041C13.2649 34.5052 13.0754 34.6304 12.8882 34.7544C12.5586 34.9726 12.2359 35.1828 11.8408 35.2884C11.48 35.3838 11.1949 35.2522 10.8986 35.1155L10.8451 35.0909C10.8348 35.0862 10.8295 35.0712 10.8241 35.0563C10.8217 35.0495 10.8192 35.0427 10.8164 35.0369C10.8248 35.0339 10.8332 35.0299 10.8416 35.0259C10.8585 35.018 10.8753 35.0101 10.8922 35.0094C11.0208 35.0082 11.1494 35.0094 11.2792 35.0117C11.6341 35.0174 11.9373 34.9003 12.2083 34.666C12.4644 34.4432 12.7309 34.2296 13.0111 34.0389C13.2798 33.8563 13.575 33.7059 13.9138 33.7277C14.1791 33.7449 14.4524 33.7656 14.7051 33.8402C15.0335 33.9367 15.3149 33.8276 15.5986 33.7104C15.7548 33.6461 15.8753 33.3234 15.834 33.1638C15.7892 32.9938 15.6353 32.8744 15.424 32.8594C15.0381 32.8319 14.666 32.8904 14.302 33.0283L14.2836 33.0352C13.9635 33.157 13.6398 33.2801 13.3074 33.3567C12.7871 33.4762 12.1957 33.1718 11.9775 32.7354L11.9443 32.6693C11.8477 32.4772 11.7499 32.2826 11.688 32.0796C11.5192 31.5295 11.1701 31.1505 10.6648 30.8967C10.6292 30.8789 10.6024 30.8449 10.5754 30.8106C10.5623 30.794 10.5492 30.7773 10.535 30.7623C10.55 30.7568 10.565 30.7499 10.5801 30.743C10.6145 30.7273 10.6491 30.7115 10.6843 30.7107C11.1621 30.6946 11.5399 30.8956 11.804 31.2849C11.904 31.432 11.9815 31.594 12.059 31.7559C12.091 31.8228 12.123 31.8898 12.1566 31.9556C12.3335 32.3001 12.5218 32.6378 12.9364 32.7354C13.2132 32.7997 13.4923 32.8215 13.7679 32.6952C14.0358 32.5719 14.3093 32.4623 14.5824 32.3529L14.7395 32.2898C15.2862 32.0693 15.8087 32.098 16.3198 32.415C16.4542 32.4985 16.6002 32.5631 16.7462 32.6278C16.8572 32.6769 16.9682 32.7261 17.0743 32.7836C17.2736 32.8921 17.4822 32.8744 17.6863 32.8571C17.7195 32.8542 17.7534 32.8513 17.7864 32.8491C18.0758 32.8296 18.1413 32.6688 18.0976 32.3518C18.0299 31.8476 17.7646 31.4836 17.2914 31.3618C16.9935 31.2852 16.659 31.3212 16.3414 31.3553L16.2808 31.3618C16.1396 31.3771 15.9998 31.4139 15.8603 31.4506C15.6855 31.4966 15.5112 31.5424 15.3356 31.5456C15.0174 31.5513 14.6695 31.4698 14.4444 31.2217C14.0412 30.7773 13.5543 30.5315 12.9916 30.3271C12.4345 30.1238 12.1991 29.6805 12.2336 29.1177C12.2442 28.9393 12.3278 28.7978 12.4116 28.6557C12.427 28.6295 12.4425 28.6033 12.4575 28.5768C12.4667 28.5607 12.5138 28.5538 12.5356 28.563C12.5551 28.5699 12.5781 28.6067 12.5758 28.6262C12.5731 28.6502 12.5633 28.6731 12.5535 28.6961C12.5469 28.7116 12.5402 28.7272 12.5356 28.7433C12.4196 29.1499 12.5747 29.4818 12.8779 29.723C13.0823 29.8849 13.3361 30.0089 13.5865 30.0813C13.931 30.1824 14.2445 30.3236 14.5282 30.5384C14.9382 30.8485 15.3941 30.8542 15.865 30.7394C16.0199 30.7013 16.1733 30.6557 16.3266 30.6102C16.4417 30.576 16.5567 30.5418 16.6724 30.5108C17.3293 30.3351 18.0896 30.6613 18.4066 31.247C18.4469 31.3215 18.4866 31.3964 18.5263 31.4714C18.6323 31.6713 18.7381 31.8711 18.8568 32.0624C19.207 32.6251 19.632 33.1087 20.259 33.3854C20.4428 33.467 20.6196 33.467 20.8 33.4532C21.0021 33.4383 21.164 33.189 21.1698 32.8996C21.1824 32.3208 21.0354 31.7764 20.7379 31.286C20.228 30.4442 19.4677 29.9044 18.5203 29.7023C18.0666 29.6058 17.5889 29.53 17.0927 29.6483C16.6999 29.7425 16.2601 29.7184 15.8535 29.6621C15.3137 29.5875 14.9393 29.2429 14.7384 28.7319C14.6672 28.5493 14.6063 28.3609 14.5627 28.1703C14.5052 27.9165 14.341 27.7419 14.1527 27.5891C14.0332 27.4915 13.8942 27.418 13.7254 27.4295C13.6327 27.436 13.5404 27.4394 13.448 27.4429C13.2463 27.4504 13.0444 27.4579 12.8388 27.4973C12.4403 27.5742 12.0291 27.5581 11.6616 27.2814C11.5574 27.2022 11.4857 27.1028 11.4148 27.0043C11.356 26.9228 11.2977 26.8419 11.2218 26.7737C11.2148 26.7675 11.2209 26.7461 11.2271 26.7247C11.23 26.7144 11.2329 26.7042 11.2344 26.6956C11.2423 26.698 11.2505 26.6997 11.2587 26.7014C11.274 26.7045 11.289 26.7076 11.301 26.7152C11.3485 26.7464 11.3947 26.7807 11.4408 26.8149C11.532 26.8825 11.623 26.95 11.7237 26.9942C12.0452 27.1343 12.3886 27.1298 12.7263 27.0585C12.8596 27.0308 12.9903 26.9909 13.1208 26.9511C13.2444 26.9134 13.3678 26.8757 13.4934 26.8484C13.8368 26.7737 14.3915 26.9391 14.6465 27.3284C14.7901 27.5473 14.8869 27.7842 14.9839 28.0213C15.0141 28.0952 15.0443 28.1692 15.076 28.2426C15.2379 28.6182 15.4722 28.9191 15.8708 29.0787C16.2061 29.2131 16.5483 29.1752 16.8825 29.1361C17.1536 29.1051 17.2822 28.7927 17.1662 28.5378C17.1234 28.4429 17.0673 28.3542 17.0111 28.2654C16.9769 28.2114 16.9425 28.1569 16.9113 28.1014C16.8929 28.0692 16.8814 28.0118 16.8975 27.9888C16.9147 27.9647 16.979 27.9475 17.0066 27.9612C17.095 28.0049 17.1869 28.052 17.2581 28.1186C17.7301 28.5596 18.3239 28.7491 18.9257 28.8915C20.1258 29.174 21.0675 29.8275 21.7658 30.8267C22.1414 31.3653 22.3481 31.9694 22.3998 32.6401C22.4142 32.8246 22.4228 33.0095 22.4314 33.1944L22.4315 33.1954C22.4427 33.4359 22.4539 33.6761 22.4779 33.9149C22.5341 34.4753 22.6536 35.0243 22.9361 35.5262C23.1038 35.8236 23.3369 36.0361 23.6516 36.1624C23.9456 36.2807 24.1523 36.1693 24.2809 35.8707C24.3906 35.6152 24.3704 35.3549 24.3506 35.0985C24.3465 35.046 24.3424 34.9937 24.3395 34.9416C24.3188 34.5925 24.2511 34.2445 24.1787 33.8999C23.9318 32.7239 23.593 31.5812 22.9062 30.574C22.4893 29.963 21.9335 29.5013 21.2835 29.1625C21.0643 29.0482 20.8383 28.947 20.6124 28.8458C20.3754 28.7397 20.1386 28.6336 19.9099 28.5125C19.3357 28.2093 18.7729 27.8854 18.2894 27.4341C17.8852 27.0563 17.4258 26.745 16.9032 26.5532C16.7407 26.4931 16.5676 26.461 16.3949 26.429C16.3471 26.4201 16.2984 26.4111 16.2509 26.4016C16.1651 26.3846 16.0789 26.3692 15.9928 26.3537C15.6372 26.29 15.282 26.2263 14.9566 26.0525C14.7544 25.9445 14.5787 25.8125 14.4627 25.6011C14.3467 25.391 14.2066 25.1946 14.0642 25.0005C13.7335 24.5503 13.2982 24.3034 12.7263 24.3378C12.5253 24.3505 12.3438 24.4136 12.175 24.5239C12.1449 24.5437 12.1092 24.5548 12.0738 24.5658C12.0579 24.5707 12.0421 24.5756 12.0268 24.5813C12.0319 24.5622 12.035 24.5407 12.0381 24.5193C12.0449 24.4724 12.0517 24.4257 12.0785 24.4045L12.0931 24.3929C12.24 24.2759 12.3907 24.156 12.5574 24.076C13.2993 23.7211 13.9276 23.9864 14.4903 24.4803C14.5941 24.5716 14.6819 24.6806 14.7698 24.7897C14.8521 24.892 14.9345 24.9943 15.0301 25.082C15.2575 25.2922 15.4941 25.5104 15.7662 25.6482C16.0559 25.7946 16.3733 25.8891 16.6875 25.9828C16.7358 25.9972 16.784 26.0116 16.832 26.0261C17.0939 26.1053 17.2937 25.9273 17.3132 25.6494C17.3276 25.4532 17.2666 25.2781 17.2055 25.1027C17.1836 25.0399 17.1617 24.9771 17.1432 24.9132C17.137 24.8905 17.1478 24.8624 17.1586 24.8344C17.1637 24.8214 17.1687 24.8085 17.172 24.7961C17.1787 24.805 17.1852 24.8144 17.1917 24.8237C17.2052 24.8432 17.2189 24.8629 17.2351 24.8799C17.4568 25.1131 17.5751 25.4105 17.6417 25.708C17.7542 26.211 18.0942 26.4246 18.5409 26.5429C18.6948 26.5831 18.8751 26.5303 18.9383 26.3936L18.9532 26.3617C19.0255 26.2068 19.1055 26.0358 19.0979 25.8779C19.0669 25.298 18.8349 24.7938 18.3331 24.4814C18.1171 24.347 17.8335 24.2988 17.5739 24.2574C16.7895 24.1346 16.1843 23.7223 15.8283 23.0389C15.4183 22.2545 15.4757 21.446 16.1177 20.6731C16.1938 20.5812 16.282 20.4986 16.37 20.4162C16.3974 20.3905 16.4249 20.3648 16.4519 20.3389C16.4607 20.3301 16.4783 20.3302 16.496 20.3303C16.5038 20.3304 16.5115 20.3304 16.5185 20.3297C16.5196 20.3385 16.522 20.3482 16.5243 20.3578C16.5294 20.3785 16.5343 20.3988 16.5265 20.4089C16.3198 20.6662 16.1843 20.9579 16.0947 21.2749C15.8742 22.049 16.1108 22.8012 16.7252 23.2502C16.9836 23.4397 17.3132 23.5041 17.6348 23.558C17.7146 23.5716 17.7948 23.5837 17.8751 23.5959C18.115 23.6322 18.3555 23.6687 18.5834 23.7418C19.0933 23.906 19.47 24.2506 19.6607 24.757C19.7181 24.9094 19.744 25.074 19.7698 25.2384C19.7812 25.3107 19.7925 25.383 19.8065 25.4541C19.8255 25.5525 19.8411 25.652 19.8567 25.7515C19.8892 25.9583 19.9218 26.1658 19.9845 26.3626C20.1878 26.9988 20.6151 27.4525 21.195 27.7832C21.6075 28.0178 22.0549 28.1378 22.5023 28.2577C22.6351 28.2934 22.7685 28.3292 22.9005 28.3678C22.9935 28.3954 23.1015 28.385 23.2002 28.3724C23.4839 28.3368 23.5781 28.2128 23.5953 27.921C23.616 27.5845 23.4839 27.3135 23.2703 27.0723C23.0222 26.7921 22.7282 26.5739 22.3952 26.4039C22.1448 26.2753 21.8944 26.1409 21.6659 25.9778C21.2789 25.7011 21.0951 25.2715 20.9343 24.8489C20.7058 24.2448 20.3854 23.7085 19.9593 23.2238C19.4723 22.6703 19.0474 22.0742 18.851 21.3415C18.781 21.0808 18.6363 20.8511 18.4295 20.6639C18.3098 20.5558 18.1955 20.4419 18.0811 20.3279C17.9927 20.2397 17.9039 20.1512 17.8128 20.0656C17.3833 19.6613 17.4108 18.8723 17.6003 18.429C17.6207 18.3802 17.6624 18.3403 17.7036 18.3009C17.7157 18.2893 17.7278 18.2777 17.7393 18.2659C17.7531 18.251 17.7967 18.2407 17.8036 18.2487C17.8197 18.2671 17.8335 18.3004 17.8289 18.3233C17.8196 18.3687 17.8069 18.4138 17.7943 18.4588C17.7728 18.5357 17.7513 18.6126 17.7462 18.6908C17.7025 19.3305 17.9989 19.8083 18.4835 20.1896C18.509 20.2098 18.5381 20.2256 18.5673 20.2415C18.588 20.2527 18.6087 20.264 18.6282 20.2769C19.0221 20.5433 19.0956 20.5272 19.3759 20.1276C19.4482 20.0231 19.5275 19.9197 19.6182 19.8324C19.6798 19.7732 19.7506 19.7238 19.8213 19.6744C19.8534 19.652 19.8855 19.6295 19.9168 19.6062C19.9667 19.7117 19.9025 19.7726 19.8422 19.8297C19.8166 19.854 19.7917 19.8776 19.7767 19.9036C19.4735 20.4262 19.4999 20.9556 19.6859 21.4965C19.8549 21.9905 20.1119 22.4411 20.3689 22.8919C20.4334 23.005 20.498 23.1181 20.5611 23.2319C20.7046 23.4903 20.8551 23.7464 21.017 23.9933C21.0641 24.0657 21.1629 24.1426 21.2421 24.1483C21.3891 24.1587 21.4155 23.9945 21.4213 23.9037C21.4396 23.604 21.4293 23.3031 21.4167 23.0022C21.4138 22.9336 21.4007 22.8653 21.3875 22.7971C21.374 22.727 21.3604 22.6568 21.3581 22.5864C21.3478 22.2626 21.2352 21.9858 21.0377 21.7297L21.0289 21.7183C20.8937 21.5438 20.7524 21.3612 20.6759 21.1589C20.4049 20.4377 20.6771 19.9082 21.2295 19.4351L21.2564 19.412C21.3955 19.2927 21.541 19.168 21.6349 19.0159C21.9082 18.5749 21.8336 18.0684 21.473 17.6974C21.4411 17.6645 21.408 17.6327 21.375 17.6011C21.3355 17.5632 21.2962 17.5255 21.2593 17.4861C21.2412 17.4671 21.2296 17.4416 21.2181 17.4164C21.2136 17.4066 21.2091 17.3967 21.2042 17.3873C21.217 17.387 21.2304 17.3849 21.2439 17.3828C21.2717 17.3785 21.2993 17.3742 21.3202 17.385C21.8129 17.6297 22.1138 18.0477 22.1896 18.5714C22.2332 18.87 22.0483 19.1686 21.8382 19.4075C21.7061 19.5579 21.5671 19.7072 21.4098 19.8301C20.9998 20.1517 21.0113 20.7454 21.2639 21.1865L21.2783 21.2115C21.3999 21.4238 21.5222 21.6375 21.6659 21.8342C21.8152 22.0398 21.8738 22.2637 21.8726 22.5095L21.8716 22.8351V22.8372C21.8703 23.2157 21.869 23.5939 21.8726 23.9726C21.8735 24.073 21.8914 24.1741 21.9091 24.2741C21.9135 24.2988 21.9179 24.3237 21.922 24.3482C22.0231 24.9511 22.4469 25.2187 22.9855 25.3542C23.1141 25.3868 23.2459 25.4052 23.3776 25.4236C23.4411 25.4325 23.5046 25.4414 23.5678 25.4518C24.2385 25.5644 24.6852 25.9698 24.9494 26.5727C25.0849 26.8805 25.1595 27.2124 25.148 27.5627C25.1429 27.7109 25.1605 27.8594 25.1782 28.0081C25.1923 28.1268 25.2064 28.2456 25.2089 28.3644C25.2135 28.6032 25.2089 28.8398 25.1572 29.0821C25.0975 29.3681 25.1297 29.6747 25.2181 29.9665C25.3054 30.257 25.5282 30.3592 25.7625 30.1686C25.9221 30.0388 26.053 29.8562 26.1552 29.6736C26.432 29.1798 26.6158 28.6595 26.6985 28.0864C26.7697 27.5926 26.6858 27.1366 26.5606 26.6807C26.4343 26.2225 26.1633 25.8469 25.8337 25.5012C25.298 24.9391 24.663 24.5088 24.0287 24.079C23.9477 24.0241 23.8667 23.9692 23.786 23.9141C23.3851 23.6407 22.9958 23.3571 22.742 22.9298C22.3435 22.2591 22.2677 21.5609 22.5491 20.8224C22.8029 20.1528 23.2577 19.7199 23.9387 19.4994C24.0925 19.4496 24.2338 19.3633 24.3753 19.2769C24.4526 19.2297 24.5299 19.1824 24.6094 19.141C25.1561 18.8585 25.2376 18.2315 25.0803 17.7801C24.9758 17.4808 24.8541 17.1879 24.7325 16.8952C24.6763 16.7601 24.6202 16.6249 24.5658 16.4892C24.5244 16.3859 24.4854 16.2802 24.4521 16.1734C24.4473 16.159 24.4575 16.1401 24.4677 16.1214C24.4721 16.1133 24.4765 16.1053 24.4796 16.0976C24.4866 16.1017 24.4947 16.1051 24.5028 16.1086C24.52 16.116 24.5373 16.1234 24.5451 16.1367C24.5768 16.1884 24.6089 16.2399 24.6409 16.2915C24.7505 16.4677 24.8603 16.6442 24.9562 16.828C25.0416 16.9906 25.1202 17.157 25.1988 17.3233C25.2651 17.4637 25.3314 17.604 25.4018 17.7422C25.4593 17.8548 25.5305 17.9673 25.6189 18.0546C25.8325 18.2659 25.9887 18.259 26.2597 18.0982C26.7214 17.8249 26.8926 17.3839 26.9236 16.8912C26.9419 16.5938 26.8156 16.3112 26.5836 16.0965C26.5683 16.0827 26.5637 16.0571 26.5592 16.0315C26.5573 16.0207 26.5553 16.0099 26.5526 16C26.5651 16.0018 26.5781 16.0027 26.5911 16.0036C26.6187 16.0055 26.6463 16.0074 26.6698 16.0184C26.8409 16.0976 26.9615 16.2194 27.0602 16.3893C27.4438 17.0497 27.2371 17.8054 26.8225 18.2223C26.7414 18.3038 26.6606 18.3858 26.5798 18.4678L26.5791 18.4685L26.5779 18.4697C26.2768 18.7751 25.9752 19.081 25.658 19.3684C25.279 19.7118 24.8138 19.922 24.3441 20.1172C24.0983 20.2195 23.8514 20.3286 23.6275 20.471C23.1244 20.7914 22.9556 21.2841 22.9866 21.8583C22.9897 21.9174 23.0181 21.9765 23.0453 22.0332L23.0555 22.0547C23.1325 22.212 23.3139 22.2419 23.4299 22.1144C23.4499 22.0926 23.463 22.0648 23.4762 22.0369C23.4874 22.0133 23.4985 21.9897 23.5138 21.9697C23.5618 21.9059 23.6131 21.8449 23.6642 21.7839C23.6877 21.7559 23.7112 21.728 23.7343 21.6998C23.7282 21.733 23.7213 21.7661 23.7143 21.7991C23.6989 21.8724 23.6835 21.9455 23.678 22.0191C23.6493 22.4188 23.8388 22.7059 24.1879 22.8644C24.4406 22.9792 24.7128 23.0872 24.985 23.1136C25.55 23.1676 26.1196 23.1664 26.664 22.9539C26.9385 22.8471 27.1693 22.6955 27.2256 22.3763C27.2371 22.312 27.2474 22.243 27.2348 22.181C27.1751 21.8916 27.082 21.6148 26.9488 21.3472C26.7318 20.9143 26.6789 20.4572 26.8524 19.9909C27.0154 19.5533 27.3186 19.249 27.7516 19.0871C27.8051 19.067 27.8587 19.0473 27.9123 19.0275C28.2675 18.8965 28.623 18.7653 28.9403 18.5588C29.4284 18.2407 29.6592 17.617 29.4284 17.0681C29.348 16.8774 29.2641 16.6822 29.0574 16.5765C28.9665 16.5302 28.8836 16.4667 28.8006 16.403C28.7704 16.3798 28.7401 16.3566 28.7094 16.3342C28.6986 16.3265 28.694 16.3104 28.6894 16.294C28.6871 16.2861 28.6848 16.2781 28.6819 16.271C28.6908 16.2683 28.6999 16.2643 28.7089 16.2603C28.7265 16.2524 28.744 16.2446 28.76 16.2469C29.3721 16.3503 29.7936 16.7913 29.9475 17.3265C30.1817 18.143 29.6362 19.0331 28.9988 19.3466C28.9492 19.3709 28.9006 19.3982 28.8521 19.4256C28.751 19.4825 28.6503 19.5392 28.5417 19.5671C28.25 19.6418 28.0422 19.8186 27.84 20.0231C27.5139 20.3527 27.4668 20.7466 27.592 21.1612C27.6965 21.5092 27.832 21.8503 27.9756 22.1856C28.1823 22.668 28.0112 23.117 27.5656 23.3295C27.4438 23.3874 27.3211 23.4433 27.1985 23.4992C26.9879 23.5951 26.7775 23.691 26.5721 23.7969C26.4515 23.8589 26.331 23.9531 26.2575 24.0645C26.0967 24.3068 26.1518 24.5652 26.3815 24.7432C26.4814 24.8202 26.5905 24.888 26.7042 24.9431L26.805 24.9919C27.1895 25.1779 27.5746 25.3643 27.9675 25.5322C28.118 25.5966 28.2948 25.6218 28.4614 25.6264C29.1045 25.6448 29.5696 25.0338 29.3813 24.4182C29.2919 24.1261 29.188 23.8389 29.0841 23.5516L29.0837 23.5504C29.0541 23.4688 29.0246 23.3871 28.9954 23.3054C28.7266 22.5462 29.0643 22.0421 29.6156 21.6677C29.6847 21.6206 29.757 21.5783 29.8292 21.536C29.9031 21.4927 29.977 21.4495 30.0474 21.4012C30.4953 21.0957 30.5803 20.7409 30.3173 20.2688C30.2863 20.2128 30.2466 20.1613 30.2069 20.1098C30.1774 20.0716 30.148 20.0333 30.122 19.9932C30.1067 19.9694 30.1005 19.9399 30.0944 19.9103C30.0914 19.8956 30.0883 19.8809 30.0841 19.8669C30.1015 19.8683 30.1205 19.8677 30.1396 19.8671C30.1808 19.8658 30.2221 19.8645 30.2472 19.8841L30.2814 19.9113C30.5055 20.0897 30.7363 20.2735 30.8008 20.5686C30.9133 21.0854 31.2395 21.2152 31.7138 20.9085C32.156 20.6237 32.4373 20.2608 32.45 19.6981C32.4603 19.2387 32.3409 18.8333 32.1192 18.4439C32.109 18.4259 32.117 18.3972 32.125 18.3687C32.1286 18.3554 32.1323 18.3423 32.1341 18.3302C32.1416 18.3358 32.1498 18.3409 32.1579 18.346C32.1749 18.3566 32.1918 18.3672 32.2019 18.3819C32.2455 18.4478 32.2911 18.5122 32.3367 18.5765C32.4926 18.7965 32.6479 19.0156 32.7199 19.2938C32.9277 20.0977 32.6923 20.8247 32.0583 21.3002C31.754 21.5287 31.3991 21.6665 31.0259 21.7595C30.6113 21.8629 30.2231 22.0432 29.8912 22.3051C29.41 22.6852 29.4192 23.3352 29.7763 23.6913C29.9406 23.8555 30.0003 23.8589 30.176 23.7223C30.2007 23.7031 30.2232 23.6807 30.2456 23.6583C30.2742 23.6296 30.3028 23.6011 30.3356 23.5799C30.3737 23.5545 30.4177 23.5385 30.4621 23.5223C30.482 23.515 30.5021 23.5077 30.5217 23.4995C30.5171 23.5226 30.5129 23.5458 30.5087 23.5689C30.5016 23.6088 30.4944 23.6485 30.4849 23.6878C30.472 23.7419 30.4581 23.7958 30.4441 23.8499C30.4195 23.9449 30.3949 24.0402 30.3758 24.1369C30.3276 24.3723 30.4746 24.517 30.6411 24.633C30.7502 24.7088 30.8846 24.7122 30.9972 24.6158C31.174 24.4642 31.3004 24.2919 31.3268 24.0427C31.3468 23.8586 31.3827 23.6763 31.4187 23.4938C31.4424 23.3734 31.4661 23.2529 31.4853 23.132C31.5142 22.9511 31.6137 22.8118 31.7135 22.6722C31.7525 22.6177 31.7915 22.5631 31.8263 22.506C31.834 22.4938 31.8508 22.4866 31.8677 22.4795C31.8761 22.4759 31.8845 22.4724 31.8918 22.4681C31.8941 22.4771 31.8982 22.4865 31.9022 22.4959C31.91 22.5143 31.9178 22.5325 31.9125 22.5462C31.7549 22.9332 31.7255 23.3388 31.6959 23.7453L31.6958 23.7464C31.6867 23.8727 31.6775 23.9994 31.6644 24.1254C31.6081 24.6674 31.3991 25.1245 30.8938 25.4151C30.4918 25.6471 30.0979 25.8997 29.727 26.1788C29.5088 26.3431 29.2814 26.4751 29.039 26.5934C28.9675 26.6281 28.8993 26.6702 28.831 26.7124C28.7548 26.7595 28.678 26.8069 28.5969 26.8438C28.2087 27.0229 28.1076 27.3755 28.0628 27.7453C28.0332 27.9909 27.9829 28.2293 27.9325 28.4685C27.9223 28.5168 27.9121 28.5651 27.9021 28.6136C27.7975 29.1223 27.5633 29.5702 27.3152 30.0101C26.8145 30.8979 26.4286 31.8293 26.1644 32.8112C26.0622 33.1902 25.9611 33.5692 25.8796 33.9528C25.8362 34.1564 25.807 34.3632 25.7777 34.5699C25.7636 34.6697 25.7494 34.7699 25.7338 34.8692L25.7173 34.9732C25.7052 35.0491 25.6931 35.1256 25.6821 35.2011C25.6522 35.4113 25.6384 35.6146 25.7142 35.8271C25.8865 36.3117 26.2747 36.4438 26.6537 36.0958C26.904 35.8661 27.151 35.6134 27.3267 35.3275C27.6655 34.7762 27.9308 34.1882 27.9767 33.5198C27.9879 33.353 28.0203 33.1879 28.0526 33.0228C28.0797 32.8844 28.1067 32.7461 28.1214 32.6068C28.129 32.5327 28.1115 32.4566 28.0938 32.3799C28.0795 32.3174 28.065 32.2546 28.064 32.1922C28.0619 32.0958 28.0583 31.9991 28.0548 31.9023C28.043 31.5817 28.0312 31.2602 28.0709 30.9461C28.0917 30.7821 28.1041 30.6168 28.1164 30.4514C28.1448 30.0702 28.1733 29.6883 28.3063 29.3199C28.6072 28.4849 29.0919 27.7959 29.797 27.2469C30.1558 26.9666 30.5581 26.7757 30.9604 26.5847L30.9613 26.5843C31.1058 26.5157 31.2509 26.4468 31.3934 26.3741C31.8826 26.1248 32.2432 25.77 32.4465 25.2555C32.5407 25.0166 32.6107 24.7777 32.6085 24.5193C32.6073 24.3995 32.6072 24.2796 32.6071 24.1599C32.6069 23.9352 32.6068 23.7108 32.5993 23.4868C32.5878 23.1653 32.7199 22.8977 32.9346 22.6875C33.1344 22.4911 33.363 22.3131 33.6065 22.1741C34.2852 21.7825 34.4391 21.0842 34.2795 20.4549C34.2659 20.4011 34.2475 20.3488 34.2291 20.2965C34.215 20.2562 34.2007 20.2155 34.1887 20.1747C34.1853 20.1632 34.2117 20.1391 34.2289 20.1264C34.2381 20.1195 34.2599 20.1207 34.2703 20.1276C34.2944 20.1414 34.3208 20.1574 34.3369 20.1793C34.7813 20.7661 34.8353 21.5827 34.3794 22.1477C34.2808 22.2705 34.1402 22.3592 33.9996 22.4479C33.9337 22.4895 33.8679 22.531 33.8063 22.5761C33.7549 22.6138 33.7017 22.6498 33.6484 22.6857C33.5265 22.7679 33.4047 22.8501 33.3056 22.9539C32.9507 23.326 33.0001 23.7889 33.0782 24.2414C33.2011 24.9477 33.1861 25.6333 32.8473 26.2868C32.744 26.4855 32.6544 26.6933 32.5774 26.9047C32.4936 27.1355 32.574 27.3124 32.7784 27.4375C33.0655 27.6121 33.549 27.5581 33.9039 27.2056C34.1692 26.9414 34.3311 26.6141 34.4104 26.2466C34.4271 26.1695 34.4431 26.0921 34.4591 26.0146C34.497 25.8313 34.535 25.6476 34.5827 25.4668C34.8227 24.5457 35.3579 23.9198 36.3283 23.7315C36.3576 23.726 36.3864 23.7128 36.4149 23.6998C36.4524 23.6827 36.4893 23.6658 36.5259 23.6671C36.5638 23.6684 36.5996 23.6529 36.635 23.6374C36.6929 23.6122 36.75 23.5874 36.8141 23.6373C36.7919 23.6638 36.7711 23.692 36.7502 23.7203C36.7042 23.7827 36.6583 23.845 36.5982 23.8876C36.4501 23.9933 36.287 24.0829 36.1227 24.1621C35.4876 24.4699 35.1661 25.0097 35.0191 25.6701C34.9456 25.9985 34.879 26.3327 34.8525 26.6669C34.7871 27.4766 33.9441 28.0703 33.3171 28.1415C32.9902 28.1789 32.6791 28.1391 32.3665 28.0991C32.2562 28.0849 32.1456 28.0708 32.0342 28.06C31.3405 27.9945 30.6469 27.9635 30.0474 28.4562C29.6776 28.7606 29.2733 29.352 29.1677 29.8608C29.1623 29.886 29.1561 29.911 29.1498 29.9359C29.1195 30.0562 29.0899 30.1739 29.1745 30.2995C29.2602 30.426 29.3839 30.4709 29.5135 30.518L29.5406 30.5279L29.5627 30.5361C29.9311 30.675 30.2668 30.5546 30.5993 30.4353C30.6462 30.4185 30.693 30.4017 30.7399 30.3856C31.0423 30.2822 31.3004 30.0998 31.5583 29.9176C31.6354 29.8631 31.7125 29.8086 31.7907 29.7563C31.9003 29.6827 32.0063 29.6034 32.1124 29.524C32.2329 29.4338 32.3541 29.3431 32.4798 29.2613C32.9587 28.9501 33.4767 28.8903 34.0245 29.0465C34.253 29.112 34.4827 29.1752 34.7159 29.22C34.9938 29.2728 35.2407 29.1935 35.4647 29.0155C35.9826 28.6044 36.0952 27.851 35.8138 27.2343C35.7265 27.0425 35.6392 26.8495 35.5715 26.6508C35.5434 26.5692 35.5396 26.4783 35.5359 26.3883C35.5349 26.3643 35.5339 26.3403 35.5324 26.3166C35.5316 26.3007 35.5441 26.2842 35.5564 26.2679C35.5619 26.2607 35.5673 26.2536 35.5715 26.2466L35.5831 26.2663C35.5932 26.2835 35.6034 26.3006 35.6117 26.3189C35.6282 26.3574 35.6452 26.3958 35.6622 26.434C35.702 26.5236 35.7418 26.6131 35.7748 26.7048C35.823 26.8403 35.9126 26.8897 36.0492 26.9345C36.2158 26.9885 36.3111 26.9552 36.3926 26.8162C36.5867 26.482 36.6706 26.1111 36.7245 25.7355C36.733 25.6771 36.7147 25.6158 36.6961 25.5537C36.6818 25.5058 36.6673 25.4573 36.6648 25.4094C36.6636 25.3825 36.6452 25.3575 36.6273 25.3333C36.5963 25.2912 36.567 25.2514 36.6327 25.2084C36.6505 25.1965 36.7031 25.2369 36.752 25.2745C36.7691 25.2876 36.7858 25.3005 36.8003 25.3106C36.8233 25.3267 36.844 25.3496 36.8566 25.3749L36.8722 25.4038C36.9631 25.5731 37.0552 25.7447 37.2953 25.7034C37.5687 25.6563 37.8133 25.5564 37.9362 25.2784C37.9438 25.2608 37.9525 25.2442 37.9612 25.2276C37.9655 25.2193 37.9699 25.211 37.9741 25.2026C38.0108 25.128 38.0476 25.0533 38.0832 24.9787C38.0859 25.0033 38.0893 25.0279 38.0926 25.0524C38.1008 25.1116 38.1089 25.1706 38.1073 25.229C38.1038 25.476 38.0051 25.6643 37.7639 25.7642C37.701 25.7904 37.6403 25.8221 37.5798 25.8537C37.5022 25.8942 37.4249 25.9345 37.3436 25.9629C36.9301 26.1065 36.7464 26.3959 36.728 26.8289C36.7016 27.449 36.5948 28.0589 36.3926 28.648C36.0929 29.5197 35.4096 29.7827 34.6263 29.6564C34.5338 29.6414 34.4411 29.6209 34.3484 29.6005C34.15 29.5567 33.9518 29.513 33.7569 29.5232C33.3676 29.5427 32.9691 29.6104 32.6693 29.9136C32.6171 29.9666 32.5632 30.0182 32.5093 30.0698C32.3972 30.1772 32.2851 30.2846 32.1881 30.404C31.8103 30.868 31.2946 31.0678 30.7411 31.2252C29.8338 31.4824 29.2136 32.0567 28.9437 32.9766C28.9093 33.096 28.907 33.2338 28.9242 33.3579C28.9598 33.622 29.0827 33.7093 29.3537 33.7231C29.6006 33.7357 29.8257 33.668 30.0508 33.5772C30.5447 33.3774 30.9684 33.0719 31.3383 32.6964C31.5542 32.477 31.8091 32.3334 32.0848 32.2186C32.1858 32.1761 32.3041 32.1646 32.4155 32.1623C32.6143 32.159 32.8135 32.1599 33.0127 32.1608H33.0137C33.1581 32.1615 33.3026 32.1621 33.4468 32.1612C34.1187 32.1554 34.5953 31.8189 34.941 31.2665C34.9844 31.1976 35.0246 31.1263 35.0648 31.0552L35.0653 31.0542C35.1153 30.9657 35.1653 30.8772 35.2212 30.7934C35.6622 30.1341 36.403 29.9297 37.1035 30.2846C37.1294 30.2975 37.1581 30.3083 37.1875 30.3193C37.286 30.3562 37.3912 30.3956 37.4144 30.5274C37.3668 30.5171 37.319 30.5075 37.2713 30.498C37.158 30.4753 37.0447 30.4526 36.9336 30.4201C36.4179 30.2708 35.8655 30.5235 35.6036 30.9863C35.4141 31.3216 35.6312 31.8247 35.8712 32.0222C36.1021 32.2117 36.3605 32.3644 36.6637 32.3886C36.9072 32.4081 37.1345 32.3197 37.3091 32.1462C37.5009 31.9556 37.6835 31.7546 37.8512 31.5433C38.1004 31.2263 38.4266 31.0426 38.8113 30.9702C38.9136 30.9512 39.0219 30.9639 39.1302 30.9766C39.1788 30.9823 39.2273 30.988 39.2753 30.9909C39.2339 31.0066 39.1922 31.0219 39.1505 31.0373C39.0616 31.0699 38.9724 31.1027 38.8848 31.1402C38.5954 31.2631 38.3255 31.4043 38.1659 31.7029C38.0522 31.9142 37.9166 32.1152 37.7696 32.3059C37.7466 32.3356 37.7236 32.366 37.7005 32.3965C37.5763 32.5605 37.4484 32.7294 37.2838 32.833C36.9313 33.0547 36.5465 32.9823 36.1974 32.7871C36.0761 32.7187 35.9687 32.6261 35.8616 32.5338C35.8176 32.4959 35.7736 32.458 35.7288 32.4219C35.6863 32.3877 35.6446 32.3526 35.6029 32.3176C35.5254 32.2523 35.4481 32.1873 35.3659 32.129C35.1178 31.9521 34.9398 31.9464 34.7101 32.1106C34.6442 32.1576 34.586 32.2164 34.5278 32.2751C34.5049 32.2983 34.482 32.3214 34.4586 32.3438C34.2232 32.57 33.9372 32.6757 33.6168 32.6918C33.5069 32.6973 33.3968 32.6962 33.2866 32.695C33.1677 32.6938 33.0487 32.6926 32.93 32.6998C32.7199 32.7124 32.5074 32.7331 32.303 32.7802C31.9756 32.856 31.8757 33.1075 31.9975 33.4268C32.1686 33.8747 32.4925 34.1744 32.8864 34.4145C33.3504 34.6958 33.8063 34.6464 34.2416 34.3547C34.4191 34.2358 34.5872 34.1038 34.7556 33.9715C34.8214 33.9199 34.8872 33.8682 34.9536 33.8173C35.2235 33.6105 35.5221 33.5267 35.8655 33.5336C36.1859 33.5405 36.442 33.6657 36.6671 33.8678C36.767 33.9574 36.8605 34.0546 36.954 34.1518C37.0596 34.2616 37.1654 34.3715 37.2804 34.4707L37.3014 34.4889C37.58 34.7295 37.8519 34.9645 38.244 35.0519C38.4825 35.1051 38.6753 35.05 38.8762 34.9927C38.9091 34.9833 38.9431 34.9736 38.9767 34.9646C39.0036 34.9572 39.0318 34.9528 39.0598 34.9483C39.0712 34.9465 39.0826 34.9447 39.0938 34.9427C39.0878 34.9559 39.0828 34.9705 39.0777 34.9852C39.0663 35.0182 39.0548 35.0516 39.0318 35.0691C38.6034 35.3895 38.1521 35.5847 37.6307 35.2838C37.4113 35.1575 37.1943 35.0243 36.9887 34.8773C36.9057 34.8185 36.8284 34.7511 36.7513 34.6839C36.6566 34.6013 36.562 34.5188 36.457 34.4524C36.0205 34.1756 35.5566 34.1182 35.0914 34.3766C34.9698 34.4441 34.857 34.5271 34.744 34.6102C34.6745 34.6613 34.605 34.7125 34.5333 34.7601C34.3561 34.8785 34.176 34.994 33.9959 35.1095L33.8603 35.1966C33.5295 35.409 33.1827 35.3355 32.8565 35.2103C32.5958 35.1104 32.3489 34.9634 32.1112 34.813C31.7322 34.5741 31.3084 34.4248 30.8789 34.4282C30.2426 34.4328 29.6603 34.6545 29.2354 35.1724C29.1826 35.2368 29.1263 35.3137 29.1102 35.3929C29.0275 35.8052 29.0677 36.0177 29.5065 35.9626C29.7982 35.9258 30.0899 35.8787 30.3793 35.8236C30.7629 35.7513 31.143 35.7409 31.4956 35.9247C31.6253 35.9922 31.7438 36.0808 31.8623 36.1693C31.9252 36.2163 31.9881 36.2633 32.0526 36.3071L32.0845 36.3291L32.0943 36.3359C32.1625 36.3833 32.2324 36.432 32.3087 36.453C32.4603 36.4943 32.6176 36.4955 32.7578 36.3933C32.812 36.3538 32.8683 36.3167 32.9245 36.2795L32.9253 36.279C33.0342 36.2071 33.1429 36.1353 33.2367 36.0476C33.5732 35.7329 33.9923 35.5629 34.4219 35.5537C34.8686 35.5434 35.3154 35.6961 35.6484 36.0384C35.8862 36.283 36.1136 36.5403 36.3214 36.809C36.5913 37.157 36.9313 37.3384 37.37 37.335L37.3932 37.3348C37.4281 37.3345 37.464 37.3342 37.4986 37.3407C37.5154 37.3438 37.5311 37.3534 37.5472 37.3632C37.5553 37.3682 37.5636 37.3732 37.5721 37.3775C37.564 37.3824 37.5558 37.3876 37.5476 37.3928C37.5327 37.4022 37.5176 37.4118 37.5021 37.42C37.1162 37.6279 36.4753 37.5302 36.1159 37.1949C35.962 37.0517 35.8162 36.9003 35.6705 36.749C35.5976 36.6733 35.5248 36.5977 35.4509 36.523C35.0604 36.1291 34.5964 36.0212 34.0969 36.2485C33.649 36.453 33.2114 36.6884 32.7945 36.9514C32.3615 37.2247 32.3971 37.6359 32.7945 38.0321C33.1138 38.3502 33.5088 38.4111 33.9154 38.449C34.081 38.4646 34.2475 38.4643 34.4143 38.4641C34.5054 38.4639 34.5971 38.4638 34.6883 38.4662C34.7078 38.4662 34.7469 38.503 34.7434 38.5145C34.7343 38.5501 34.7147 38.6075 34.6906 38.6109C34.5703 38.6321 34.4507 38.6574 34.331 38.6828C33.9821 38.7569 33.6331 38.8309 33.2688 38.7993C32.6797 38.7488 32.226 38.4949 31.9067 37.9862C31.8552 37.9039 31.8075 37.819 31.7598 37.734C31.6417 37.5238 31.5234 37.3131 31.3451 37.1398C31.0052 36.809 30.6182 36.7343 30.153 36.7872C29.8028 36.8262 29.5019 36.9514 29.1964 37.0961C28.598 37.3786 28.2236 37.8575 28.0043 38.4674C27.7482 39.1783 28.0617 40.1384 28.6899 40.5805C29.0402 40.8275 29.4261 40.971 29.8533 41.0445C30.0691 41.0816 30.2833 41.097 30.4979 41.1124C30.5495 41.1161 30.601 41.1198 30.6526 41.1238C30.7755 41.133 30.9064 41.164 31.0155 41.2202C31.1448 41.2869 31.2709 41.3603 31.397 41.4336C31.5642 41.531 31.7314 41.6283 31.9056 41.7095C32.4649 41.9702 33.038 42.1953 33.6455 42.3262C33.896 42.3797 34.1442 42.443 34.3926 42.5062C34.4961 42.5326 34.5996 42.5589 34.7032 42.5846C34.7301 42.5915 34.7558 42.6004 34.7816 42.6094C34.7945 42.6138 34.8074 42.6183 34.8204 42.6225C34.8085 42.6271 34.7967 42.6331 34.7848 42.6391C34.7611 42.6511 34.7373 42.6631 34.7136 42.6639C34.557 42.6647 34.4003 42.6667 34.2436 42.6686C33.7845 42.6742 33.3248 42.6798 32.8669 42.6593C32.5476 42.6443 32.2363 42.5306 31.9446 42.3859C31.7211 42.2753 31.4976 42.1669 31.2435 42.1556ZM22.3141 41.2844L22.3124 41.2851L22.3194 41.2668C22.3237 41.2556 22.328 41.2444 22.332 41.2329L22.3331 41.2341C22.3294 41.2443 22.3255 41.2544 22.3217 41.2645L22.3141 41.2844ZM22.3141 41.2844L22.3319 41.2771L22.361 41.2652L22.3619 41.2662C22.3511 41.2707 22.3407 41.2749 22.3303 41.2792L22.3135 41.286L22.3141 41.2844ZM26.4388 40.6197C26.4424 40.6524 26.4368 40.6874 26.4312 40.7225C26.4183 40.8036 26.4054 40.885 26.5055 40.9389C26.402 40.8852 26.4151 40.8041 26.4281 40.7224C26.4338 40.6867 26.4395 40.6511 26.4355 40.6178L26.4388 40.6197ZM26.422 40.5846L26.4221 40.5802L26.4145 40.5692C26.3956 40.5414 26.3764 40.5134 26.3597 40.4841C26.3582 40.4811 26.3658 40.4734 26.3738 40.4652C26.3773 40.4616 26.3809 40.4579 26.3839 40.4545L26.3826 40.4508C26.3794 40.4549 26.3748 40.4595 26.3703 40.4641C26.3623 40.4722 26.3547 40.48 26.3562 40.4829C26.3763 40.518 26.399 40.5514 26.422 40.5846ZM31.2301 42.1532L31.2139 42.154C31.1933 42.155 31.1726 42.1561 31.1534 42.1539C31.1162 42.1494 31.086 42.1317 31.0768 42.0751C31.0839 42.075 31.0913 42.0747 31.0986 42.0741L31.1141 42.0729C31.1316 42.0713 31.1492 42.0698 31.1654 42.0712C31.1973 42.0764 31.2225 42.0958 31.2301 42.1532Z" fill="#7E7E7E"/>
<path d="M37.4144 30.5274L37.4228 30.5292L37.4159 30.5372L37.4144 30.5274Z" fill="#7E7E7E"/>
<path d="M22.1215 43.2837L22.1263 43.2713L22.1253 43.2703L22.1336 43.26L22.1351 43.2751L22.1364 43.2763L22.1377 43.2772L22.1354 43.2781L22.1356 43.2806L22.1338 43.2788L22.1215 43.2837Z" fill="#7E7E7E"/>
<path d="M22.1215 43.2837L22.1155 43.2995L22.1035 43.3311C22.0943 43.322 22.0851 43.3127 22.0759 43.3024L22.0881 43.2976L22.1069 43.2898L22.1215 43.2837Z" fill="#7E7E7E"/>
<path d="M38.2589 29.5817C38.4093 29.5702 38.6252 29.3153 38.6207 29.1545C38.6161 28.9903 38.3508 28.7319 38.1934 28.7399C38.0303 28.7468 37.7731 29.0178 37.7823 29.1717C37.7949 29.3624 38.0671 29.5978 38.2589 29.5817Z" fill="#7E7E7E"/>
<path d="M10.9668 28.7399C11.1517 28.7445 11.3917 29.0052 11.3894 29.2004C11.3883 29.3451 11.1333 29.5909 10.9932 29.584C10.7486 29.5725 10.6028 29.4003 10.6119 29.1315C10.6188 28.9179 10.7842 28.7353 10.9668 28.7399Z" fill="#7E7E7E"/>
<path d="M13.9253 22.6232C14.1664 22.6255 14.3169 22.4727 14.3146 22.2304C14.3123 22.0065 14.1618 21.8445 13.9632 21.8411C13.7564 21.8388 13.5428 22.0156 13.5417 22.2672C13.5405 22.4681 13.7047 22.622 13.9253 22.6232Z" fill="#7E7E7E"/>
<path d="M35.9252 22.8827C35.7254 22.8793 35.5313 22.6852 35.5485 22.5072C35.5657 22.3361 35.7931 22.1006 35.9355 22.1052C36.1342 22.1133 36.3938 22.3602 36.3869 22.5371C36.38 22.7174 36.1538 22.8862 35.9252 22.8827Z" fill="#7E7E7E"/>
<path d="M23.771 17.8352C23.7722 17.5918 23.6252 17.4459 23.3794 17.4459C23.1566 17.4459 22.9947 17.5941 22.9947 17.7985C22.9935 18.0029 23.1807 18.2165 23.3691 18.2257C23.585 18.2361 23.7699 18.0569 23.771 17.8352Z" fill="#7E7E7E"/>
<path d="M17.6761 21.5884C17.8725 21.5965 18.0769 21.8239 18.0551 22.0099C18.0287 22.2258 17.8737 22.3636 17.6601 22.3602C17.4522 22.3579 17.3063 22.1925 17.3098 21.9651C17.3132 21.7389 17.4694 21.5792 17.6761 21.5884Z" fill="#7E7E7E"/>
<path d="M15.1128 40.2498C15.2345 40.236 15.4297 40.0109 15.4194 39.8961C15.4068 39.7548 15.1805 39.5642 15.0358 39.5722C14.8865 39.5814 14.7372 39.7617 14.743 39.9259C14.7487 40.0925 14.9485 40.2682 15.1128 40.2498Z" fill="#7E7E7E"/>
<path d="M38.5472 27.3905C38.5495 27.5868 38.391 27.766 38.2267 27.7534C38.0637 27.7396 37.9327 27.5822 37.9339 27.3996C37.935 27.1745 38.0177 27.0907 38.2371 27.0884C38.4622 27.0861 38.5449 27.1677 38.5472 27.3905Z" fill="#7E7E7E"/>
<path d="M34.4322 40.2509C34.5482 40.2441 34.763 40.0178 34.7561 39.9087C34.7434 39.7204 34.5666 39.5573 34.3909 39.5733C34.245 39.586 34.0796 39.7801 34.0877 39.9294C34.0934 40.0419 34.3231 40.2567 34.4322 40.2509Z" fill="#7E7E7E"/>
<path d="M10.7578 33.2074C10.9117 33.2166 11.0598 33.3935 11.0541 33.56C11.0472 33.7242 10.8726 33.8839 10.7222 33.8597C10.5603 33.8345 10.4385 33.6955 10.442 33.5405C10.4466 33.3705 10.6096 33.1982 10.7578 33.2074Z" fill="#7E7E7E"/>
<path d="M38.809 33.8839C38.9468 33.8781 39.0674 33.7346 39.0709 33.5726C39.0754 33.3418 38.9916 33.2223 38.8159 33.2132C38.7045 33.2063 38.4805 33.4061 38.4679 33.5244C38.4541 33.6576 38.6735 33.8896 38.809 33.8839Z" fill="#7E7E7E"/>
<path d="M28.3924 24.3344C28.5544 24.3264 28.7335 24.4929 28.7289 24.6445C28.7255 24.7766 28.5567 24.9339 28.4154 24.9396C28.2294 24.9465 28.1467 24.8581 28.1386 24.6468C28.1329 24.4366 28.2087 24.3424 28.3924 24.3344Z" fill="#7E7E7E"/>
<path d="M12.6447 36.4714C12.7837 36.4656 12.9479 36.2864 12.9341 36.1555C12.9192 36.0143 12.7366 35.8558 12.6103 35.8742C12.4736 35.8948 12.3174 36.0901 12.3427 36.2106C12.3679 36.3335 12.5322 36.4759 12.6447 36.4714Z" fill="#7E7E7E"/>
<path d="M34.2255 23.1434C34.3197 23.1365 34.4908 23.3054 34.5046 23.4191C34.5218 23.5626 34.3863 23.7372 34.2542 23.7418C34.1152 23.7464 33.928 23.6074 33.912 23.4891C33.8982 23.3892 34.1141 23.1515 34.2255 23.1434Z" fill="#7E7E7E"/>
<path d="M13.0226 25.6023C13.0122 25.4427 12.9123 25.3577 12.7435 25.3646C12.6011 25.3715 12.4231 25.5322 12.4323 25.6482C12.438 25.7355 12.6551 25.9549 12.732 25.9514C12.8882 25.9445 13.034 25.7688 13.0226 25.6023Z" fill="#7E7E7E"/>
<path d="M19.2312 18.3922C19.3954 18.4014 19.4827 18.5014 19.4746 18.6713C19.4666 18.839 19.369 18.9274 19.2013 18.9217C19.0589 18.9171 18.8636 18.7483 18.8786 18.6415C18.8947 18.5266 19.0945 18.3854 19.2312 18.3922Z" fill="#7E7E7E"/>
<path d="M30.9076 19.3455C30.9018 19.4385 31.1028 19.6682 31.1935 19.6705C31.2808 19.6728 31.4876 19.4534 31.4887 19.3581C31.4898 19.2547 31.3187 19.0917 31.205 19.0882C31.0982 19.0848 30.9145 19.2433 30.9076 19.3455Z" fill="#7E7E7E"/>
<path d="M16.1372 24.9465C15.9695 24.9534 15.8696 24.8684 15.8604 24.7076C15.8489 24.5239 15.9488 24.4159 16.1315 24.4182C16.298 24.4194 16.3841 24.5078 16.3853 24.6778C16.3853 24.8455 16.3003 24.9385 16.1372 24.9465Z" fill="#7E7E7E"/>
<path d="M16.6391 27.8751C16.809 27.874 16.894 27.7901 16.8975 27.6179C16.8998 27.4456 16.8182 27.3572 16.6506 27.348C16.4794 27.3399 16.3807 27.4215 16.3692 27.5834C16.3554 27.7717 16.4519 27.8763 16.6391 27.8751Z" fill="#7E7E7E"/>
<path d="M28.5027 17.3368C28.4958 17.5206 28.4028 17.632 28.265 17.6228C28.1237 17.6124 27.9652 17.439 27.9767 17.3081C27.9859 17.2001 28.1559 17.0485 28.2742 17.0417C28.3913 17.0359 28.5084 17.1864 28.5027 17.3368Z" fill="#7E7E7E"/>
<path d="M37.424 30.5395L37.4308 30.5326L37.4358 30.5439L37.424 30.5395Z" fill="#7E7E7E"/>
<path d="M37.4358 30.5439C37.4536 30.5505 37.4713 30.5571 37.4883 30.5637C37.4831 30.5688 37.4782 30.5743 37.4734 30.5797C37.4685 30.5852 37.4636 30.5906 37.4584 30.5958L37.4446 30.5641L37.4358 30.5439Z" fill="#7E7E7E"/>
<path d="M77.9714 25.7642V37.5387H81.2369V25.7642H77.9714Z" fill="#7E7E7E"/>
<path d="M78.3623 23.7634C78.7098 24.0854 79.1263 24.2464 79.6118 24.2464C80.0973 24.2464 80.5113 24.0854 80.8537 23.7634C81.2012 23.4364 81.3749 23.0454 81.3749 22.5906C81.3749 22.1409 81.2012 21.755 80.8537 21.4331C80.5113 21.106 80.0973 20.9424 79.6118 20.9424C79.1263 20.9424 78.7098 21.106 78.3623 21.4331C78.0199 21.755 77.8487 22.1409 77.8487 22.5906C77.8487 23.0454 78.0199 23.4364 78.3623 23.7634Z" fill="#7E7E7E"/>
<path fill-rule="evenodd" clip-rule="evenodd" d="M61.1719 34.0585C60.7624 34.8224 60.2577 35.4715 59.6579 36.0059L61.9078 38.8266H58.8109L57.5471 37.2736C56.6996 37.5935 55.7819 37.7534 54.7941 37.7534C53.3989 37.7534 52.1468 37.4365 51.0378 36.8028C49.9289 36.1691 49.0524 35.2518 48.4085 34.0508C47.7646 32.8499 47.4426 31.3959 47.4426 29.689C47.4426 27.977 47.7646 26.5205 48.4085 25.3196C49.0524 24.1186 49.9289 23.2038 51.0378 22.5752C52.1468 21.9415 53.3989 21.6247 54.7941 21.6247C56.179 21.6247 57.4259 21.9415 58.5349 22.5752C59.649 23.2038 60.528 24.1186 61.1719 25.3196C61.821 26.5205 62.1455 27.977 62.1455 29.689C62.1455 31.401 61.821 32.8575 61.1719 34.0585ZM53.6442 32.0807H56.4652L57.6269 33.5753C57.8854 33.2697 58.1038 32.9095 58.282 32.4947C58.6141 31.7332 58.7802 30.798 58.7802 29.689C58.7802 28.5801 58.6141 27.6448 58.282 26.8834C57.9549 26.1219 57.4924 25.5444 56.8945 25.1509C56.2965 24.7574 55.5964 24.5607 54.7941 24.5607C53.9917 24.5607 53.2916 24.7574 52.6936 25.1509C52.0957 25.5444 51.6307 26.1219 51.2985 26.8834C50.9714 27.6448 50.8079 28.5801 50.8079 29.689C50.8079 30.798 50.9714 31.7332 51.2985 32.4947C51.6307 33.2561 52.0957 33.8336 52.6936 34.2271C53.2916 34.6206 53.9917 34.8174 54.7941 34.8174C55.0959 34.8174 55.3833 34.7895 55.6562 34.7338L53.6442 32.0807Z" fill="#7E7E7E"/>
<path d="M72.0937 32.5253V25.7642H75.3593V37.5387H72.224V35.4H72.1013C71.8356 36.0899 71.3935 36.6444 70.7752 37.0635C70.1619 37.4825 69.4132 37.692 68.5291 37.692C67.7421 37.692 67.0496 37.5132 66.4517 37.1554C65.8538 36.7977 65.3862 36.2892 65.0489 35.63C64.7167 34.9707 64.548 34.1811 64.5429 33.2613V25.7642H67.8085V32.6787C67.8136 33.3737 68.0002 33.9231 68.3681 34.3268C68.7361 34.7305 69.2292 34.9324 69.8476 34.9324C70.2411 34.9324 70.6091 34.8429 70.9515 34.6641C71.2939 34.4801 71.5698 34.2092 71.7794 33.8515C71.994 33.4938 72.0988 33.0517 72.0937 32.5253Z" fill="#7E7E7E"/>
<path d="M94.8302 25.7642L90.7137 37.5387H87.0341L82.9177 25.7642H86.3672L88.8126 34.1888H88.9352L91.3729 25.7642H94.8302Z" fill="#7E7E7E"/>
<path d="M96.5013 25.7642V37.5387H99.7669V30.8772C99.7669 30.3968 99.8742 29.9727 100.089 29.6047C100.309 29.2368 100.605 28.9506 100.978 28.7461C101.356 28.5366 101.786 28.4319 102.266 28.4319C102.491 28.4319 102.739 28.4497 103.01 28.4855C103.28 28.5213 103.492 28.5622 103.646 28.6082V25.7105C103.503 25.6747 103.337 25.6466 103.147 25.6262C102.958 25.6058 102.782 25.5955 102.619 25.5955C101.959 25.5955 101.377 25.7846 100.871 26.1628C100.365 26.5359 100.005 27.0878 99.7899 27.8186H99.6673V25.7642H96.5013Z" fill="#7E7E7E"/>
</svg>
