<svg xmlns="http://www.w3.org/2000/svg" width="114" height="60" fill="none" viewBox="0 0 114 60"><path fill="#7e7e7e" fill-rule="evenodd" d="M31.228 42.414c.029.132.127.153.226.174.067.014.134.028.179.077q.021.024.047.043l.014.012.012.01q-.012.007-.025.012-.027.01-.05.023a.38.38 0 0 1-.32.044q-.096-.023-.194-.045c-.25-.056-.499-.112-.721-.254-.012-.007-.031-.002-.05.003l-.03.006.001.004v.006l.001.005.001.009c.002.017.003.034.012.043.131.14.21.3.212.497 0 .064.008.126.015.19l.01.081c-.134.005-.137-.079-.14-.159-.002-.035-.003-.069-.015-.095-.127-.267-.351-.424-.576-.581q-.062-.044-.123-.088c-.076-.055-.166-.093-.255-.131l-.047-.02q-.152-.065-.306-.122-.053-.02-.103-.04.023.054.051.107c.04.078.081.157.09.238.02.187.018.376.016.565l-.001.163c0 .015-.013.03-.026.044l-.017.02-.015-.025a.2.2 0 0 1-.024-.047c-.069-.308-.165-.602-.426-.807a5 5 0 0 0-.411-.299.6.6 0 0 0-.153-.06q-.04-.012-.079-.026l.017.065q.02.079.047.156c.149.38.162.593.058.983q-.009.025-.027.047l-.008.011-.008.012q-.006-.013-.017-.025c-.012-.015-.023-.03-.024-.046-.02-.518-.324-.882-.628-1.247q-.06-.07-.117-.142-.062-.074-.128-.146l-.071-.079-.04-.05-.021-.028-.01.024a.2.2 0 0 0-.015.054c-.012.312-.006.618.117.92.073.178.12.367.165.557l.052.207c.004.015-.006.034-.016.053l-.012.024-.024-.011c-.017-.007-.034-.014-.042-.027l-.125-.19v-.002c-.16-.242-.318-.484-.465-.733a.7.7 0 0 1-.08-.321q-.009-.198-.007-.395.001-.168-.004-.336c-.001-.027-.026-.053-.051-.079l-.024-.026.001.236c.002.202.003.405-.009.605-.024.393-.07.785-.23 1.152a.4.4 0 0 1-.05.078l-.03.04q-.005-.02-.012-.037a.2.2 0 0 1-.02-.08q-.001-.118.002-.235a3 3 0 0 0-.007-.41l-.011-.116c-.047-.479-.093-.958-.323-1.397q-.016-.028-.04-.051l-.02-.023-.004.012-.006.012c-.008.018-.016.036-.014.054.026.242-.04.468-.105.693q-.047.15-.08.3l-.015.07c-.143.686-.15.722.016 1.493a.2.2 0 0 1-.005.086l-.006.038-.03-.026a.2.2 0 0 1-.053-.059c-.258-.528-.414-1.06-.263-1.667.049-.194.041-.402.033-.61a4 4 0 0 1-.004-.333 4.8 4.8 0 0 0-.177-1.552l-.032-.118-.01-.044-.016.057c-.014.044-.028.089-.03.134q-.002.11 0 .223.004.125 0 .25l-.019.419c-.015.386-.03.772-.076 1.155a2.38 2.38 0 0 1-.838 1.568q-.02.017-.048.025l-.02.009-.014-.041c-.01-.029-.021-.057-.012-.078q.055-.12.115-.24.063-.126.12-.253c.072-.166.142-.333.186-.507a.5.5 0 0 0-.005-.201q-.008-.045-.012-.09l-.055.081q-.046.066-.09.133l-.085.13q-.083.132-.17.26c-.154.224-.298.45-.27.74a.2.2 0 0 1-.004.085l-.079.229-.03.085-.022-.099c-.016-.068-.032-.136-.035-.204-.016-.384.011-.753.156-1.125.164-.42.218-.876.187-1.334q-.005-.041-.023-.08l-.014-.037-.015.034q-.017.036-.03.074l-.088.285c-.06.2-.12.399-.195.592-.178.46-.485.839-.791 1.217l-.07.088-.486.603c-.023-.27.085-.5.193-.73q.04-.082.075-.165.014-.033.022-.068l.004-.017.002-.008.003-.01-.036.003a.2.2 0 0 0-.079.017c-.407.254-.815.508-1.063.944-.01.017-.038.023-.066.029l-.04.01q.001-.025.005-.05l.002-.02.004-.035c.035-.353.205-.634.45-.883.187-.192.36-.399.528-.608l.004-.005c.083-.102.17-.211.157-.358l-.067.052c-.053.04-.106.079-.149.126-.504.557-1.154.838-1.864 1.021-.369.095-.733.206-1.098.317l-.351.107q-.114.036-.223.086l-.09.038c-.029.011-.052.035-.075.059-.045.047-.09.093-.176.045l.038-.057q.048-.075.097-.147c.271-.396.688-.569 1.118-.71.205-.068.415-.124.624-.18l.304-.083q.031-.008.063-.023l.014-.005-.025-.02a.2.2 0 0 0-.056-.035c-.54-.144-1.055-.145-1.53.215-.415.316-.903.416-1.414.492-.432.064-.863.061-1.293.058-.223-.001-.446-.003-.669.005-.027 0-.054-.01-.081-.02q-.02-.008-.037-.014l.01-.005.016-.009q.037-.021.076-.032l.341-.09h.001c.332-.086.664-.173.998-.248.68-.153 1.326-.386 1.876-.822.365-.29.785-.366 1.224-.39.675-.035 1.271-.24 1.738-.753.443-.486.589-1.04.41-1.684-.228-.817-.758-1.333-1.542-1.617-.33-.12-.658-.235-1.016-.252-.581-.028-1.008.217-1.32.697a8 8 0 0 1-.2.29c-.104.146-.208.292-.297.448-.209.367-.563.508-.923.626-.555.181-1.043-.03-1.51-.311a.5.5 0 0 1-.07-.055q-.031-.028-.065-.05c-.171-.112-.338-.225-.409-.43l.185.089q.17.08.338.165c.456.23.919.252 1.39.052.338-.143.577-.409.765-.708.1-.161.18-.372.17-.555-.012-.212-.084-.45-.353-.526q-.233-.068-.465-.144c-.312-.1-.624-.2-.943-.258-.448-.081-.813.183-1.136.469a6 6 0 0 0-.304.298q-.12.126-.246.246c-.39.362-.835.582-1.384.517a1 1 0 0 1-.235-.066l-.045-.016c-.019-.006-.034-.022-.048-.038l-.024-.023.023-.009q.027-.012.054-.017.078-.01.156-.016c.089-.008.177-.017.264-.035.608-.127 1.024-.512 1.34-1.023.111-.18.22-.362.311-.552.228-.476.858-.78 1.405-.54q.196.085.397.161.212.08.42.172c.158.071.314.115.488.117.161.002.205-.072.186-.209q-.016-.124-.036-.25-.027-.166-.046-.336c-.004-.032.011-.067.026-.1q.012-.026.02-.05.017.014.04.027c.031.02.063.04.069.065.108.474.482.649.885.749q.267.066.534.128h.002v.001h.002c.487.116.974.232 1.454.378.146.045.288.029.4-.073.1-.092.194-.189.118-.362l-.016-.035c-.05-.118-.099-.229-.19-.328-.504-.552-1.117-.959-1.754-1.334-.605-.358-1.236-.335-1.872-.08q-.251.103-.498.216h-.002l-.273.12c-.6.262-1.22.223-1.827.064a1.32 1.32 0 0 0-.977.107c-.2.1-.39.226-.577.35-.33.218-.652.428-1.047.534-.36.095-.646-.036-.942-.173l-.054-.024c-.01-.005-.015-.02-.02-.035l-.008-.02.025-.01a.14.14 0 0 1 .05-.017q.193-.001.387.002c.355.006.659-.111.93-.345.256-.223.522-.437.802-.627.27-.183.564-.334.903-.312.265.018.539.038.791.113.329.096.61-.013.894-.13.156-.064.277-.387.235-.547-.044-.17-.198-.289-.41-.304a2.6 2.6 0 0 0-1.122.169l-.018.007c-.32.122-.644.245-.976.321-.52.12-1.112-.184-1.33-.62l-.033-.067c-.097-.192-.195-.387-.257-.59-.168-.55-.518-.929-1.023-1.183-.036-.017-.062-.051-.09-.086q-.018-.025-.04-.048l.045-.02c.035-.015.07-.03.104-.032.478-.016.856.185 1.12.575.1.147.178.309.255.47q.048.1.098.2c.177.345.365.682.78.78.277.064.556.086.831-.04.268-.123.542-.233.815-.343l.157-.062c.546-.221 1.069-.192 1.58.125.135.083.28.148.427.212.11.05.221.099.328.156.199.109.407.091.611.074l.1-.008c.29-.02.355-.18.312-.497-.068-.505-.333-.869-.806-.99-.298-.077-.633-.041-.95-.007l-.061.006a3 3 0 0 0-.42.09c-.175.045-.35.091-.525.094-.318.006-.666-.075-.891-.324-.404-.444-.89-.69-1.453-.894-.557-.203-.793-.647-.758-1.21.01-.178.094-.32.178-.462l.046-.079c.009-.016.056-.023.078-.013.02.007.042.043.04.063a.3.3 0 0 1-.022.07l-.018.047c-.116.407.039.739.342.98.204.162.458.286.709.358.344.101.658.242.941.457.41.31.866.316 1.337.201q.232-.059.462-.13.172-.05.346-.098c.657-.176 1.417.15 1.734.736l.12.224c.105.2.211.4.33.591.35.563.775 1.046 1.402 1.323.184.082.36.082.541.068.202-.015.364-.264.37-.554a2.95 2.95 0 0 0-.432-1.613 3.34 3.34 0 0 0-2.218-1.584c-.453-.096-.93-.172-1.427-.054-.393.094-.833.07-1.24.014-.539-.075-.913-.42-1.114-.93a4 4 0 0 1-.176-.562c-.058-.254-.222-.428-.41-.581-.12-.098-.258-.171-.427-.16q-.139.01-.278.014a4 4 0 0 0-.609.054c-.399.077-.81.06-1.177-.216-.104-.08-.176-.178-.247-.277a1.4 1.4 0 0 0-.193-.23c-.007-.007 0-.028.005-.05l.008-.029.024.006a.1.1 0 0 1 .042.014q.071.047.14.1c.091.067.182.135.283.179.322.14.665.135 1.002.064.134-.027.264-.067.395-.107a5 5 0 0 1 .373-.103c.343-.075.898.09 1.153.48.143.219.24.456.337.693q.044.111.092.221c.162.376.396.677.795.836.335.135.678.097 1.012.058.27-.031.4-.344.284-.599-.043-.095-.1-.183-.156-.272q-.052-.08-.1-.164c-.018-.032-.03-.09-.013-.113s.081-.04.109-.027c.088.044.18.09.251.157.472.441 1.066.63 1.668.773 1.2.283 2.142.936 2.84 1.935.376.539.582 1.143.634 1.814q.02.277.032.554v.001c.01.24.022.48.046.72.056.56.176 1.109.458 1.61.168.298.401.51.716.637.294.118.5.007.63-.292.109-.255.089-.515.069-.772l-.011-.157a7 7 0 0 0-.161-1.041c-.247-1.176-.586-2.32-1.273-3.326a4.4 4.4 0 0 0-1.622-1.412c-.22-.114-.445-.215-.671-.316a12 12 0 0 1-.703-.334c-.574-.303-1.137-.627-1.62-1.078a4.1 4.1 0 0 0-1.387-.881 3 3 0 0 0-.508-.124l-.144-.028-.258-.048c-.356-.063-.71-.127-1.036-.3-.202-.109-.378-.24-.494-.452a6 6 0 0 0-.398-.6c-.331-.451-.767-.698-1.338-.664a1.1 1.1 0 0 0-.552.187.4.4 0 0 1-.101.041l-.047.016.011-.062c.007-.047.014-.094.04-.115l.015-.011c.147-.117.298-.237.465-.317.742-.355 1.37-.09 1.933.404.103.091.191.2.279.31.082.102.165.204.26.292.228.21.464.428.737.566.29.146.607.24.92.334l.145.044c.262.079.462-.099.482-.377.014-.196-.047-.371-.108-.547q-.034-.093-.062-.19c-.007-.022.004-.05.015-.078l.013-.038.02.027q.02.03.043.057c.222.233.34.53.407.828.112.503.452.716.9.835.153.04.333-.013.396-.15l.015-.032c.073-.155.153-.326.145-.483-.03-.58-.263-1.085-.765-1.397-.216-.134-.5-.182-.759-.224-.784-.123-1.39-.535-1.745-1.218-.41-.785-.353-1.593.289-2.366.076-.092.164-.175.252-.257l.082-.077c.009-.01.027-.01.044-.009h.023l.006.027c.005.021.01.041.002.052a2.4 2.4 0 0 0-.432.866c-.22.774.016 1.526.63 1.975.259.19.588.254.91.308l.24.038c.24.036.48.072.709.145.51.165.886.51 1.077 1.016.057.152.083.317.11.481q.015.109.036.216.027.148.05.297c.032.207.065.414.128.611.203.637.63 1.09 1.21 1.42.413.235.86.355 1.308.475q.199.053.398.11a.8.8 0 0 0 .3.005c.283-.035.377-.16.395-.451.02-.337-.112-.608-.325-.849a2.9 2.9 0 0 0-.876-.668c-.25-.129-.5-.263-.729-.427-.387-.276-.57-.706-.731-1.128a5.2 5.2 0 0 0-.976-1.625c-.486-.554-.911-1.15-1.108-1.883a1.4 1.4 0 0 0-.421-.677q-.178-.164-.349-.336-.132-.134-.268-.263c-.43-.404-.402-1.193-.212-1.636a.4.4 0 0 1 .103-.128l.036-.035c.013-.015.057-.026.064-.018.016.019.03.052.025.075q-.016.067-.034.136a1 1 0 0 0-.049.232c-.043.64.253 1.117.738 1.498q.038.029.084.052l.06.035c.394.267.468.25.748-.149.073-.104.152-.208.242-.295a2 2 0 0 1 .203-.158q.05-.033.096-.068c.05.105-.014.166-.075.223-.025.025-.05.048-.065.074-.303.523-.277 1.052-.09 1.593.168.494.425.945.682 1.396q.098.17.192.34.214.389.456.761c.047.072.146.15.225.155.147.01.174-.154.18-.245.018-.3.008-.6-.005-.901-.003-.069-.016-.137-.03-.205-.013-.07-.026-.14-.029-.21-.01-.325-.122-.602-.32-.858l-.009-.011c-.135-.175-.276-.357-.353-.56-.27-.72.001-1.25.554-1.723l.027-.023c.139-.12.284-.244.378-.396.273-.441.199-.948-.162-1.319q-.048-.05-.098-.096-.06-.057-.115-.115c-.019-.02-.03-.045-.042-.07l-.014-.029q.02-.001.04-.005c.028-.004.056-.008.076.003.493.244.794.662.87 1.186.044.299-.141.597-.352.836-.132.15-.27.3-.428.423-.41.321-.398.915-.146 1.356l.014.025c.122.213.244.426.388.623.15.205.208.43.207.675l-.001.326v.002q-.003.567 0 1.135c.002.1.02.202.037.302l.013.074c.101.603.525.87 1.064 1.006.128.032.26.05.392.07q.095.012.19.027c.67.113 1.117.518 1.382 1.121.135.308.21.64.198.99-.005.149.013.297.03.446.015.118.029.237.031.356.005.239 0 .476-.052.718-.06.286-.027.592.061.884.088.29.31.393.545.202.16-.13.29-.312.393-.495.276-.494.46-1.014.543-1.587.07-.494-.013-.95-.138-1.406-.126-.458-.398-.833-.727-1.18-.536-.561-1.17-.992-1.805-1.421l-.243-.165c-.4-.274-.79-.557-1.044-.984-.398-.671-.474-1.37-.193-2.108.254-.67.709-1.102 1.39-1.323.154-.05.295-.136.437-.223q.115-.072.234-.135c.546-.283.628-.91.47-1.361-.104-.3-.226-.592-.347-.885q-.085-.202-.167-.406a4 4 0 0 1-.114-.316c-.005-.014.006-.033.016-.052l.012-.024.023.011c.017.008.035.015.042.028l.096.155c.11.176.22.353.316.537.085.162.163.329.242.495q.098.21.203.419c.058.112.129.225.217.312.214.212.37.205.641.044.462-.273.633-.714.664-1.207a1 1 0 0 0-.34-.795c-.016-.014-.02-.04-.025-.065q-.002-.016-.006-.031.018.002.038.003c.028.002.056.004.079.015.171.08.292.201.39.371.384.66.177 1.416-.237 1.833l-.243.245v.001l-.002.001c-.3.306-.603.612-.92.9-.379.343-.844.553-1.314.748a4.7 4.7 0 0 0-.716.354c-.503.32-.672.813-.641 1.387.003.06.031.118.058.175l.01.021c.078.158.26.188.375.06q.028-.035.046-.078a.4.4 0 0 1 .038-.067q.074-.095.15-.185l.07-.084q-.009.05-.02.099c-.015.073-.03.146-.036.22-.028.4.161.687.51.845.253.115.525.223.797.25.565.053 1.135.052 1.68-.16.274-.107.505-.259.56-.578a.5.5 0 0 0 .01-.195 3.4 3.4 0 0 0-.286-.834c-.217-.433-.27-.89-.096-1.356.163-.438.466-.742.899-.904l.16-.06c.356-.13.711-.262 1.028-.469.489-.318.72-.941.489-1.49-.08-.19-.165-.386-.371-.492-.091-.046-.174-.11-.257-.173l-.091-.07c-.011-.007-.016-.023-.02-.04l-.008-.022.027-.011c.018-.008.035-.016.051-.013.612.103 1.034.544 1.188 1.08.234.816-.311 1.706-.949 2.02q-.074.035-.147.078c-.1.057-.201.114-.31.142-.292.074-.5.251-.702.456-.326.33-.373.723-.248 1.138.105.348.24.689.384 1.024.206.483.035.932-.41 1.144q-.184.087-.367.17c-.21.096-.421.192-.627.298a.85.85 0 0 0-.314.267c-.161.242-.106.5.124.679q.151.117.323.2l.1.048c.385.187.77.373 1.163.54.15.065.327.09.494.095a.93.93 0 0 0 .92-1.208c-.09-.292-.194-.58-.298-.867q-.046-.124-.088-.246c-.27-.76.069-1.263.62-1.638q.104-.07.213-.131.112-.065.219-.135c.448-.306.532-.66.27-1.133a1.3 1.3 0 0 0-.11-.159q-.046-.056-.086-.116a.2.2 0 0 1-.027-.083l-.01-.044q.026.002.055 0c.041 0 .082-.002.108.018l.034.027c.224.178.455.362.519.657.113.517.439.647.913.34.442-.285.724-.648.736-1.21a2.36 2.36 0 0 0-.33-1.254c-.01-.018-.003-.047.005-.076q.007-.02.01-.038l.023.016q.027.014.044.036.067.099.135.194c.156.22.311.44.383.717.208.804-.028 1.531-.661 2.007-.305.228-.66.366-1.033.46a3 3 0 0 0-1.135.545c-.48.38-.472 1.03-.114 1.386.164.164.224.168.4.03q.035-.028.069-.063.042-.045.09-.079a.6.6 0 0 1 .126-.057l.06-.023-.013.07q-.01.06-.024.119l-.04.162q-.039.142-.069.286c-.048.236.099.38.265.497.11.076.244.079.356-.018.177-.151.304-.323.33-.573.02-.184.056-.366.092-.549q.037-.18.067-.361c.028-.181.128-.32.228-.46q.06-.082.113-.166c.007-.012.024-.02.04-.027l.025-.011.01.027c.008.019.016.037.01.05-.157.388-.186.794-.216 1.2v.001q-.013.19-.031.379c-.057.542-.266 1-.771 1.29-.402.232-.796.484-1.167.764a4 4 0 0 1-.688.414q-.106.054-.208.12a2 2 0 0 1-.234.13c-.388.18-.49.532-.534.902-.03.246-.08.484-.13.723l-.03.145c-.105.509-.34.957-.588 1.397-.5.888-.886 1.819-1.15 2.8-.102.38-.204.759-.285 1.142a9 9 0 0 0-.102.618q-.02.15-.044.299l-.016.104-.036.228c-.03.21-.043.413.032.626.173.484.56.617.94.269.25-.23.497-.483.673-.769.339-.551.604-1.14.65-1.807.011-.167.044-.333.076-.498.027-.138.054-.276.069-.416.007-.074-.01-.15-.028-.226a1 1 0 0 1-.03-.188l-.009-.29a6 6 0 0 1 .016-.956c.021-.164.033-.33.046-.495.028-.381.057-.763.19-1.132a4.5 4.5 0 0 1 1.49-2.072c.36-.28.761-.472 1.164-.663q.218-.102.433-.21c.489-.25.85-.604 1.053-1.119.094-.239.164-.478.162-.736q-.003-.18-.002-.36.002-.336-.008-.672c-.011-.322.121-.59.336-.8.2-.196.428-.374.672-.513.678-.392.832-1.09.673-1.72a2 2 0 0 0-.05-.158l-.041-.122c-.004-.011.023-.035.04-.048.01-.007.031-.006.041.001.025.014.051.03.067.052.445.587.499 1.403.043 1.968-.099.123-.24.212-.38.3a3 3 0 0 0-.193.129l-.158.11c-.122.081-.244.164-.343.268-.355.372-.306.834-.228 1.287.123.706.108 1.392-.23 2.045a5 5 0 0 0-.27.618c-.084.231-.004.408.2.533.288.175.771.12 1.126-.232.266-.264.427-.591.507-.959l.048-.232c.038-.183.076-.367.124-.548.24-.92.775-1.547 1.746-1.735.029-.005.058-.018.086-.031.038-.018.075-.035.111-.033.038.001.074-.014.11-.03.057-.025.114-.05.178 0l-.064.083a.7.7 0 0 1-.151.167 3.3 3.3 0 0 1-.476.275c-.635.308-.957.847-1.104 1.508-.073.328-.14.662-.166.997-.066.81-.909 1.403-1.536 1.474-.327.038-.638-.002-.95-.042q-.165-.022-.332-.04c-.694-.065-1.388-.096-1.987.397-.37.304-.774.896-.88 1.404q-.008.038-.018.076c-.03.12-.06.238.025.363.085.127.21.172.339.219l.027.01.022.008c.368.139.704.018 1.037-.101l.14-.05c.302-.103.56-.285.819-.468q.115-.082.232-.161.164-.112.322-.232c.12-.09.241-.181.367-.263.479-.311.997-.371 1.545-.215.228.066.458.129.691.174.278.053.525-.027.749-.205.518-.411.63-1.164.35-1.781a7 7 0 0 1-.243-.583c-.028-.082-.032-.173-.036-.263l-.003-.072c-.001-.016.011-.032.024-.048l.015-.022.011.02q.015.025.029.053l.05.115q.062.134.113.27c.048.136.138.185.274.23.167.054.262.02.344-.118.194-.334.278-.705.332-1.08a.4.4 0 0 0-.029-.183.6.6 0 0 1-.03-.144c-.002-.027-.02-.052-.038-.076-.031-.042-.06-.082.005-.125.018-.012.07.029.12.066l.048.036a.2.2 0 0 1 .056.065l.015.028c.091.17.183.341.424.3.273-.047.517-.147.64-.425l.025-.05.013-.026.11-.224q.004.038.009.074c.008.06.016.118.015.177-.004.247-.103.435-.344.535q-.094.04-.184.09c-.078.04-.155.08-.236.109-.414.143-.597.433-.616.865a6.4 6.4 0 0 1-.335 1.82c-.3.871-.983 1.134-1.766 1.008a5 5 0 0 1-.278-.056c-.199-.044-.397-.087-.592-.077-.39.02-.788.087-1.087.39l-.16.156c-.112.108-.225.215-.322.335-.377.464-.893.663-1.447.82-.907.258-1.527.832-1.797 1.752a.95.95 0 0 0-.02.382c.036.264.159.351.43.365.247.012.472-.055.697-.146.494-.2.918-.505 1.288-.881a2.2 2.2 0 0 1 .746-.478.9.9 0 0 1 .33-.056 28 28 0 0 1 .598-.002h.001q.217.002.433 0c.672-.005 1.149-.341 1.494-.894q.065-.104.124-.211v-.001q.073-.134.157-.261c.44-.66 1.181-.864 1.882-.509q.039.019.084.035c.098.037.203.076.227.208l-.144-.03a4 4 0 0 1-.337-.077c-.516-.15-1.068.103-1.33.566-.19.335.027.838.267 1.036.231.19.49.342.793.366.243.02.47-.069.645-.242q.29-.286.542-.603c.25-.317.576-.5.96-.573.103-.02.211-.006.32.006q.073.01.145.015l-.125.046q-.135.048-.266.103c-.29.123-.56.264-.719.563-.114.21-.25.412-.396.603l-.07.09c-.123.164-.251.333-.416.437-.352.221-.737.149-1.086-.046a2 2 0 0 1-.336-.254l-.133-.111-.126-.105q-.115-.1-.237-.188c-.248-.177-.426-.183-.656-.019a1.5 1.5 0 0 0-.182.165l-.07.068a1.26 1.26 0 0 1-.84.348q-.165.007-.331.004c-.12-.002-.238-.003-.357.005-.21.012-.422.033-.627.08-.327.076-.427.327-.305.646.17.448.495.748.889.988.464.282.92.232 1.355-.06a8 8 0 0 0 .514-.383l.198-.154c.27-.207.568-.29.912-.284a1.2 1.2 0 0 1 .801.334q.149.137.287.285c.106.11.212.22.327.318l.02.019c.28.24.551.475.943.563.239.053.431-.002.632-.06l.1-.028a1 1 0 0 1 .084-.016l.034-.006-.016.043c-.011.033-.023.066-.046.084-.428.32-.88.515-1.401.214a8 8 0 0 1-.642-.406q-.123-.09-.237-.194a2.5 2.5 0 0 0-.295-.231c-.436-.277-.9-.334-1.365-.076-.122.068-.235.15-.348.234q-.104.077-.21.15-.267.177-.538.35l-.136.086c-.33.213-.677.14-1.003.014-.26-.1-.508-.247-.746-.397-.379-.24-.802-.389-1.232-.385-.636.005-1.218.226-1.643.744a.55.55 0 0 0-.125.22c-.083.413-.043.625.396.57q.437-.055.872-.139c.384-.072.764-.082 1.117.101.13.068.248.156.366.245q.094.071.19.138l.033.022.01.006c.068.048.138.097.214.118.152.041.309.042.449-.06q.081-.06.167-.114c.11-.072.218-.144.312-.232a1.8 1.8 0 0 1 1.185-.494c.447-.01.894.143 1.227.485.237.245.465.502.673.77.27.349.61.53 1.048.527h.023q.053-.002.106.005.025.006.048.023l.025.014-.024.015q-.022.015-.046.028c-.386.207-1.026.11-1.386-.226-.154-.143-.3-.294-.445-.445l-.22-.226c-.39-.394-.854-.502-1.354-.275-.448.205-.885.44-1.302.703-.433.273-.398.685 0 1.08.319.319.714.38 1.12.418.166.015.333.015.5.015q.136 0 .274.002c.02 0 .058.037.055.048-.01.036-.029.093-.053.097q-.18.032-.36.072c-.349.074-.698.148-1.062.116-.59-.05-1.043-.304-1.362-.813q-.077-.124-.147-.252c-.118-.21-.236-.421-.415-.595-.34-.33-.727-.405-1.192-.352-.35.039-.65.164-.956.309-.599.282-.973.761-1.193 1.371-.256.71.058 1.671.686 2.113.35.247.736.39 1.163.464.216.037.43.053.645.068l.155.011c.123.01.254.04.363.097.13.066.255.14.381.213.168.098.335.195.509.276.56.26 1.132.486 1.74.617.25.053.498.117.747.18l.31.078q.04.011.079.025l.039.013q-.018.007-.036.017c-.024.012-.047.024-.071.024l-.47.005c-.46.006-.919.011-1.377-.01-.32-.014-.63-.128-.922-.272-.224-.111-.447-.22-.701-.23m-8.93-.87h-.001l.007-.019.012-.033h.001l-.011.031zm0 0 .018-.008.03-.012-.032.014zm4.125-.666a.4.4 0 0 1-.007.103c-.013.081-.026.163.074.216-.104-.053-.09-.134-.078-.216.006-.036.012-.071.008-.105zm-.017-.035v-.004l-.007-.011a1 1 0 0 1-.055-.085c-.002-.003.006-.01.014-.02l.01-.01-.001-.004-.012.014c-.008.008-.016.016-.015.019q.03.052.066.101m4.808 1.569h-.016a.4.4 0 0 1-.06 0c-.038-.004-.068-.022-.077-.078l.022-.001.015-.002a.3.3 0 0 1 .052-.001c.032.005.057.024.064.082" clip-rule="evenodd"/><path fill="#7e7e7e" d="m37.399 30.786.008.002-.007.008zM22.106 43.542l.004-.012v-.001l.008-.01.001.015.002.001h.001l-.002.002v.002l-.002-.002zM22.106 43.542l-.006.016-.012.032-.028-.029.012-.005.02-.008zM38.243 29.84c.15-.011.366-.266.362-.427-.005-.164-.27-.422-.427-.414-.163.007-.42.277-.411.431.012.191.284.427.476.41M10.951 28.999c.185.004.425.265.423.46-.001.145-.256.39-.397.384-.244-.012-.39-.184-.38-.453.006-.213.172-.396.354-.391M13.91 22.882c.24.002.391-.15.389-.393-.002-.224-.153-.386-.352-.39a.43.43 0 0 0-.421.427c-.001.2.163.355.383.356M35.91 23.141c-.2-.003-.394-.197-.377-.375.017-.171.244-.407.387-.402.198.008.458.255.451.432-.007.18-.233.349-.462.345M23.755 18.094c.001-.244-.146-.39-.391-.39-.223 0-.385.149-.385.353-.001.205.186.418.374.427a.39.39 0 0 0 .402-.39M17.66 21.847c.197.008.401.235.38.422-.027.216-.182.353-.396.35-.208-.002-.353-.168-.35-.395s.16-.386.366-.377M15.097 40.509c.122-.014.317-.24.307-.354-.013-.142-.24-.332-.384-.324-.15.01-.298.19-.293.354.006.166.206.342.37.323M38.531 27.65c.003.196-.156.375-.32.362-.163-.014-.294-.171-.293-.354.001-.225.084-.309.303-.31.225-.003.308.078.31.301M34.417 40.51c.115-.007.33-.233.323-.343-.012-.188-.19-.351-.365-.335-.146.013-.311.207-.303.356.006.113.235.327.344.322M10.742 33.466c.154.01.302.186.296.353-.007.164-.181.323-.332.3a.326.326 0 0 1-.28-.32c.005-.17.168-.342.316-.333M38.793 34.143c.138-.006.259-.15.262-.312q.008-.345-.255-.36c-.111-.006-.335.194-.348.312-.014.133.206.365.341.36M28.377 24.593c.162-.008.34.159.336.31-.003.132-.172.29-.313.295-.186.007-.27-.081-.277-.293-.006-.21.07-.304.254-.312M12.629 36.73c.139-.006.303-.185.29-.316-.016-.141-.198-.3-.325-.281-.136.02-.292.216-.267.336.025.123.19.266.302.261M34.21 23.402c.094-.007.265.162.279.276.017.143-.118.318-.25.322-.14.005-.327-.134-.343-.252-.014-.1.202-.338.314-.346M13.007 25.861c-.01-.16-.11-.245-.28-.238-.142.007-.32.168-.31.284.005.087.222.306.3.303.155-.007.301-.183.29-.349M19.215 18.65c.165.01.252.11.244.28-.008.168-.106.256-.273.25-.143-.004-.338-.173-.323-.28.016-.115.216-.256.352-.25M30.892 19.604c-.006.093.195.323.286.325.087.003.294-.217.295-.312.001-.104-.17-.267-.284-.27-.107-.004-.29.155-.297.257M16.121 25.205c-.167.007-.267-.078-.276-.239-.012-.183.088-.291.27-.29q.251.004.255.26c0 .168-.085.261-.249.27M16.623 28.134q.254 0 .259-.258.003-.257-.247-.27c-.171-.007-.27.074-.282.236-.013.188.083.293.27.292M28.487 17.596c-.007.183-.1.295-.238.285-.141-.01-.3-.183-.288-.314.01-.108.18-.26.297-.267.117-.005.235.145.229.296M37.408 30.798l.007-.007.005.012zM37.42 30.803l.052.02-.014.015-.015.017-.014-.032zM77.956 26.023v11.774h3.265V26.023zM78.347 24.022q.52.483 1.25.483.728 0 1.24-.483.522-.49.522-1.173 0-.675-.521-1.157a1.73 1.73 0 0 0-1.242-.49q-.728 0-1.25.49a1.53 1.53 0 0 0-.513 1.157q0 .683.514 1.173"/><path fill="#7e7e7e" fill-rule="evenodd" d="M61.156 34.317a7 7 0 0 1-1.514 1.948l2.25 2.82h-3.097l-1.264-1.553q-1.27.48-2.753.48-2.093 0-3.756-.95t-2.63-2.752q-.965-1.802-.965-4.362 0-2.568.966-4.37.965-1.801 2.63-2.744 1.662-.95 3.755-.95 2.078 0 3.741.95 1.671.942 2.637 2.744.974 1.802.974 4.37t-.974 4.37m-7.528-1.978h2.821l1.162 1.495a4.3 4.3 0 0 0 .655-1.08q.498-1.143.498-2.806t-.498-2.806Q57.775 26 56.88 25.41q-.897-.59-2.1-.59t-2.101.59-1.395 1.732q-.49 1.143-.49 2.806t.49 2.805q.498 1.143 1.395 1.733t2.1.59q.453 0 .863-.084z" clip-rule="evenodd"/><path fill="#7e7e7e" d="M72.078 32.784v-6.761h3.266v11.774h-3.136V35.66h-.122a3.48 3.48 0 0 1-1.327 1.663q-.92.63-2.246.629-1.181 0-2.077-.537a3.7 3.7 0 0 1-1.403-1.525q-.497-.99-.506-2.37v-7.496h3.266v6.914q.007 1.043.56 1.649.55.605 1.479.605.59 0 1.104-.268.513-.276.828-.813.321-.537.314-1.326M94.814 26.023l-4.116 11.774h-3.68l-4.116-11.774h3.45l2.445 8.424h.123l2.437-8.424zM96.486 26.023v11.774h3.265v-6.661q0-.72.322-1.273.33-.552.889-.858.568-.314 1.288-.314.337 0 .744.053.407.054.636.123v-2.898a4.933 4.933 0 0 0-1.027-.115q-.989 0-1.748.567-.759.56-1.08 1.656h-.124v-2.054z"/></svg>