<svg width="114" height="60" viewBox="0 0 114 60" fill="none" xmlns="http://www.w3.org/2000/svg">
<path fill-rule="evenodd" clip-rule="evenodd" d="M31.2278 42.4143C31.2567 42.5461 31.3553 42.567 31.4538 42.5878C31.5207 42.602 31.5877 42.6162 31.6326 42.6653C31.6467 42.6808 31.6631 42.6945 31.6795 42.708L31.6936 42.7198L31.7061 42.7307C31.6977 42.7346 31.6891 42.7381 31.6806 42.7417C31.6635 42.7489 31.6464 42.756 31.6303 42.7652C31.5304 42.8272 31.4374 42.8398 31.311 42.8088C31.2467 42.7928 31.182 42.7783 31.1175 42.7638C30.8673 42.7076 30.6184 42.6517 30.3957 42.5102C30.3842 42.5026 30.365 42.5077 30.3452 42.513C30.3355 42.5156 30.3256 42.5183 30.3165 42.5194L30.3172 42.5233L30.3179 42.5288L30.3184 42.5338L30.3192 42.5426C30.3206 42.5597 30.322 42.5766 30.3314 42.586C30.4623 42.7261 30.5416 42.8858 30.5427 43.0833C30.5427 43.1466 30.5505 43.2093 30.5584 43.2723C30.5618 43.2996 30.5652 43.3269 30.568 43.3543C30.4338 43.3591 30.4307 43.2751 30.4277 43.1952C30.4264 43.1603 30.4252 43.1261 30.4129 43.1005C30.286 42.8331 30.0617 42.676 29.8374 42.5189C29.7959 42.4898 29.7544 42.4608 29.7135 42.431C29.6377 42.3756 29.5479 42.3375 29.4594 42.2999L29.4115 42.2794C29.3108 42.2363 29.2081 42.1972 29.1055 42.158C29.0712 42.1449 29.0368 42.1318 29.0026 42.1186C29.018 42.1543 29.0362 42.1897 29.0544 42.225C29.0948 42.3034 29.1352 42.3816 29.1439 42.4631C29.1635 42.6501 29.1616 42.8391 29.1598 43.0276C29.1593 43.0822 29.1588 43.1368 29.1588 43.1913C29.1588 43.206 29.1462 43.2203 29.1334 43.2347C29.1273 43.2416 29.1211 43.2485 29.1163 43.2556C29.1119 43.2471 29.1066 43.2388 29.1013 43.2305C29.0915 43.2151 29.0817 43.1996 29.0773 43.1832C29.0084 42.8754 28.9119 42.5814 28.6512 42.3759C28.518 42.2713 28.3824 42.168 28.24 42.0773C28.1946 42.048 28.1408 42.0321 28.0868 42.0162C28.0603 42.0084 28.0337 42.0006 28.008 41.9911C28.014 42.0125 28.0197 42.034 28.0253 42.0556C28.039 42.1081 28.0529 42.1613 28.0724 42.2116C28.2205 42.5929 28.2343 42.8054 28.1298 43.1947C28.1252 43.2115 28.1141 43.2267 28.1031 43.2418L28.0947 43.2534C28.0921 43.2572 28.0896 43.2609 28.0873 43.2648C28.0826 43.2566 28.0764 43.2485 28.0703 43.2404C28.0584 43.2249 28.0467 43.2095 28.0459 43.1936C28.0256 42.6762 27.7219 42.3118 27.4183 41.9474C27.3789 41.9001 27.3394 41.8527 27.3006 41.8051C27.2598 41.7553 27.2165 41.7075 27.1731 41.6594C27.1493 41.6331 27.1255 41.6068 27.1019 41.58C27.0876 41.5642 27.0748 41.5469 27.0618 41.5294C27.055 41.5202 27.0482 41.511 27.041 41.5019C27.0382 41.5099 27.0349 41.5178 27.0316 41.5257C27.024 41.5438 27.0166 41.5616 27.0158 41.58C27.0043 41.8924 27.01 42.1978 27.1329 42.4999C27.2061 42.6781 27.2521 42.8675 27.2981 43.0566C27.315 43.1258 27.3318 43.195 27.35 43.2636C27.354 43.279 27.3438 43.2984 27.3338 43.3174C27.3296 43.3253 27.3255 43.3331 27.3224 43.3406C27.315 43.3365 27.3066 43.3331 27.2982 43.3298C27.2808 43.3228 27.2636 43.3159 27.2558 43.3027C27.2143 43.239 27.1726 43.1755 27.131 43.1121L27.1303 43.1111C26.9716 42.8692 26.8126 42.627 26.6655 42.3782C26.6115 42.2874 26.592 42.1657 26.5862 42.0566C26.5794 41.925 26.5793 41.7934 26.5792 41.6619C26.5791 41.55 26.579 41.438 26.5748 41.3262C26.574 41.2994 26.5488 41.2731 26.5239 41.247C26.5156 41.2384 26.5074 41.2298 26.5001 41.2212C26.4999 41.2997 26.5005 41.3782 26.5011 41.4567C26.5027 41.6589 26.5042 41.8616 26.4921 42.0623C26.468 42.4551 26.422 42.8467 26.2624 43.2142C26.2503 43.2421 26.2309 43.267 26.2115 43.2918C26.2013 43.3049 26.1911 43.3179 26.182 43.3314C26.1785 43.3194 26.1741 43.3074 26.1697 43.2954C26.1597 43.2683 26.1498 43.2413 26.1498 43.2142C26.1486 43.1364 26.1504 43.0583 26.1521 42.9801C26.1553 42.843 26.1584 42.7051 26.1452 42.57L26.1338 42.4537C26.0872 41.9753 26.0405 41.4962 25.811 41.0574C25.8008 41.0385 25.7862 41.0223 25.7714 41.0058C25.7646 40.9983 25.7578 40.9907 25.7513 40.9828C25.7499 40.9867 25.7484 40.9906 25.7467 40.9945L25.7413 41.0066C25.733 41.025 25.7248 41.0432 25.7272 41.0609C25.7535 41.3032 25.6874 41.5289 25.6215 41.7541C25.5924 41.8534 25.5634 41.9526 25.5423 42.0531L25.5274 42.1246C25.3843 42.8104 25.3768 42.8462 25.5434 43.6173C25.549 43.6443 25.5436 43.6735 25.5382 43.7025C25.5358 43.7156 25.5334 43.7286 25.532 43.7414C25.5228 43.7322 25.5127 43.7236 25.5027 43.7151C25.4813 43.697 25.4602 43.6791 25.4493 43.6564C25.1909 43.1281 25.0347 42.5952 25.1863 41.9888C25.2349 41.795 25.227 41.5871 25.2191 41.3787C25.2148 41.2672 25.2106 41.1556 25.215 41.0459C25.2357 40.5188 25.1874 40.0008 25.0381 39.4944C25.0263 39.4555 25.0163 39.4154 25.0064 39.3755L24.9956 39.3324C24.9908 39.3512 24.9852 39.3699 24.9795 39.3887C24.966 39.4332 24.9524 39.4779 24.9508 39.5231C24.9481 39.5971 24.9495 39.6714 24.9509 39.7457C24.9524 39.8293 24.9539 39.9129 24.9497 39.9962C24.9427 40.1357 24.937 40.2752 24.9314 40.4148C24.9158 40.8007 24.9002 41.1868 24.8555 41.5696C24.782 42.1933 24.5006 42.725 24.0171 43.1384C24.0041 43.1498 23.9864 43.1566 23.9691 43.1633C23.962 43.166 23.9549 43.1687 23.9482 43.1717C23.9452 43.1587 23.9401 43.1448 23.9349 43.131C23.9243 43.1022 23.9136 43.0736 23.923 43.0535C23.9586 42.9726 23.9981 42.8932 24.0375 42.8138C24.0793 42.7295 24.1211 42.6453 24.1584 42.5596C24.2296 42.3942 24.2997 42.2266 24.3444 42.0531C24.3605 41.9906 24.3497 41.9209 24.3389 41.8516C24.3343 41.8216 24.3296 41.7917 24.3272 41.7626C24.3089 41.7896 24.2903 41.8165 24.2716 41.8434C24.2411 41.8872 24.2105 41.9314 24.1814 41.9762C24.153 42.0195 24.1251 42.063 24.0971 42.1065C24.0412 42.1935 23.9854 42.2805 23.9264 42.3655C23.7725 42.5895 23.629 42.8157 23.6565 43.1063C23.6588 43.135 23.6611 43.166 23.6531 43.1913C23.628 43.2682 23.6011 43.3439 23.5741 43.4197L23.5738 43.4206L23.544 43.5048C23.5376 43.472 23.5299 43.4392 23.5221 43.4065C23.5059 43.3382 23.4896 43.2699 23.4865 43.2016C23.4705 42.818 23.498 42.4494 23.6427 42.0773C23.807 41.6569 23.8609 41.201 23.8299 40.7427C23.8284 40.7154 23.8178 40.6892 23.8072 40.6629C23.8022 40.6505 23.7972 40.6381 23.7932 40.6256C23.7884 40.6369 23.7834 40.6482 23.7782 40.6595C23.7673 40.6839 23.7562 40.7085 23.7484 40.7336C23.7179 40.8283 23.689 40.9237 23.6601 41.0191C23.5997 41.2184 23.5393 41.4176 23.4647 41.611C23.2866 42.0706 22.9798 42.45 22.6739 42.8283L22.6034 42.9156C22.4419 43.1166 22.2804 43.3176 22.1178 43.5186C22.0946 43.2494 22.2028 43.0189 22.3112 42.7882C22.3367 42.7338 22.3625 42.6789 22.3863 42.6239C22.3955 42.6025 22.4016 42.579 22.4077 42.5556L22.4121 42.5391L22.4144 42.5305L22.4173 42.5206C22.4056 42.5223 22.3934 42.5231 22.3812 42.5239C22.3527 42.5257 22.3242 42.5276 22.3025 42.5412C21.8948 42.795 21.4871 43.0489 21.239 43.4853C21.2297 43.5022 21.2014 43.5078 21.1726 43.5135C21.1585 43.5162 21.1443 43.519 21.1322 43.5232C21.1338 43.5069 21.1357 43.4906 21.1376 43.4742L21.14 43.4537C21.1413 43.4421 21.1425 43.4305 21.1437 43.4187C21.1793 43.0661 21.3493 42.7847 21.5939 42.5355C21.7811 42.3437 21.9533 42.137 22.1222 41.928L22.1264 41.9227C22.2087 41.8207 22.2965 41.7119 22.2834 41.5655C22.2614 41.5831 22.2387 41.6 22.2159 41.617C22.1632 41.6564 22.1104 41.6958 22.067 41.7431C21.5629 42.3001 20.9128 42.5814 20.2031 42.764C19.8344 42.8588 19.4697 42.97 19.105 43.0813C18.988 43.117 18.8709 43.1527 18.7537 43.1878C18.678 43.2106 18.6046 43.2421 18.531 43.2736C18.5008 43.2866 18.4706 43.2995 18.4402 43.3119C18.4121 43.3234 18.3892 43.3471 18.3663 43.3707C18.3208 43.4176 18.2754 43.4645 18.1898 43.4164L18.228 43.3585C18.2601 43.3096 18.2924 43.2605 18.3253 43.2119C18.5964 42.8157 19.0133 42.6435 19.4428 42.5022C19.6485 42.4341 19.8578 42.3781 20.0669 42.3221L20.0679 42.3218C20.1688 42.2948 20.2704 42.2675 20.3708 42.2392C20.3923 42.2336 20.4131 42.2249 20.4337 42.2163L20.4477 42.2105C20.4394 42.2047 20.4314 42.1981 20.4233 42.1914C20.4056 42.1767 20.3878 42.162 20.3673 42.1565C19.8275 42.0118 19.3119 42.0107 18.8376 42.3713C18.4218 42.6871 17.9337 42.787 17.4227 42.8628C16.9908 42.9271 16.5604 42.9241 16.1303 42.9212C15.9074 42.9197 15.684 42.9181 15.4611 42.926C15.4341 42.9268 15.4071 42.916 15.3798 42.9052C15.3675 42.9003 15.3552 42.8954 15.3428 42.8915L15.3521 42.8869L15.3694 42.878C15.394 42.8653 15.4189 42.8523 15.445 42.8456C15.5589 42.8163 15.6726 42.7866 15.7863 42.7569L15.7874 42.7566C16.1192 42.6699 16.4512 42.5831 16.7853 42.5079C17.4651 42.3552 18.1106 42.122 18.6607 41.6856C19.0259 41.3962 19.4462 41.3204 19.885 41.2963C20.5603 41.2607 21.1563 41.0551 21.6226 40.5429C22.0659 40.0571 22.2117 39.5036 22.0326 38.8593C21.8052 38.0416 21.2746 37.5259 20.4913 37.2422C20.1606 37.1228 19.8333 37.0068 19.475 36.9896C18.8938 36.962 18.4666 37.2066 18.1554 37.6867C18.0915 37.785 18.0235 37.8807 17.9555 37.9762C17.8513 38.1229 17.7471 38.2694 17.6581 38.4251C17.4491 38.7915 17.0953 38.9328 16.7347 39.0511C16.18 39.2325 15.6919 39.0212 15.2245 38.7398C15.1993 38.7248 15.1769 38.7051 15.1544 38.6853C15.1338 38.6672 15.1131 38.649 15.0901 38.6342C14.919 38.5228 14.7525 38.4102 14.6813 38.2046C14.7428 38.2346 14.8043 38.2641 14.8658 38.2936C14.9785 38.3477 15.0918 38.402 15.2038 38.4585C15.6598 38.6881 16.1226 38.7111 16.5935 38.5113C16.9323 38.3677 17.1711 38.1024 17.3595 37.8027C17.4594 37.6419 17.5398 37.4306 17.5295 37.248C17.5168 37.0355 17.4445 36.7978 17.1757 36.722C17.02 36.6774 16.8652 36.6277 16.7105 36.578C16.3987 36.4777 16.087 36.3776 15.7677 36.32C15.3198 36.2385 14.9546 36.5026 14.6319 36.7886C14.5259 36.8826 14.4271 36.9846 14.3284 37.0866C14.2476 37.1701 14.1665 37.2539 14.0818 37.333C13.6924 37.6947 13.2468 37.9152 12.6979 37.8498C12.6182 37.8402 12.54 37.8121 12.4629 37.7843L12.4177 37.7682C12.3993 37.7621 12.3845 37.7463 12.3695 37.7303C12.362 37.7223 12.3545 37.7143 12.3464 37.7074C12.354 37.7046 12.3615 37.7015 12.3691 37.6983C12.3869 37.6909 12.4049 37.6834 12.4234 37.6809C12.4753 37.6741 12.5273 37.6694 12.5792 37.6646C12.6676 37.6566 12.7558 37.6485 12.8426 37.6304C13.4513 37.5029 13.867 37.1182 14.1828 36.6071C14.2942 36.4268 14.4033 36.2454 14.4941 36.0547C14.7215 35.5793 15.352 35.2749 15.8986 35.5149C16.0292 35.5724 16.1625 35.6245 16.2957 35.6765C16.4366 35.7315 16.5777 35.7866 16.7152 35.848C16.8737 35.9192 17.0299 35.9628 17.2044 35.9651C17.3652 35.9674 17.4089 35.8928 17.3905 35.7561C17.3797 35.6728 17.3671 35.5898 17.3544 35.5066C17.3374 35.3949 17.3203 35.283 17.3078 35.1704C17.3039 35.1378 17.319 35.1035 17.3341 35.0692C17.3413 35.0527 17.3486 35.0363 17.3537 35.02C17.3654 35.0291 17.3794 35.0379 17.3935 35.0467C17.4253 35.0664 17.4573 35.0864 17.4629 35.1118C17.5708 35.5861 17.9452 35.7607 18.3483 35.8606C18.5258 35.9045 18.7038 35.9468 18.8817 35.9892L18.8839 35.9897L18.8849 35.99L18.886 35.9902C19.3731 36.1062 19.8605 36.2222 20.3398 36.3682C20.4856 36.413 20.628 36.397 20.7394 36.2947C20.8393 36.2029 20.9335 36.1064 20.8577 35.933L20.8424 35.8979C20.7912 35.7801 20.7431 35.6694 20.6521 35.5701C20.148 35.0177 19.5347 34.6111 18.8984 34.2356C18.2932 33.8784 17.6615 33.9014 17.0264 34.1563C16.8585 34.2236 16.6929 34.2977 16.5276 34.3716L16.5266 34.372L16.5256 34.3724C16.4352 34.4129 16.3442 34.4535 16.2535 34.4928C15.6529 34.7535 15.0327 34.7145 14.4263 34.556C14.0691 34.463 13.7579 34.5066 13.449 34.6628C13.2491 34.7638 13.0596 34.889 12.8724 35.0131C12.5428 35.2313 12.2201 35.4414 11.825 35.5471C11.4643 35.6424 11.1791 35.5109 10.8828 35.3742L10.8293 35.3496C10.8191 35.3448 10.8137 35.3298 10.8084 35.3149C10.8059 35.3081 10.8035 35.3013 10.8006 35.2956C10.809 35.2925 10.8175 35.2886 10.8259 35.2846C10.8427 35.2767 10.8596 35.2688 10.8764 35.268C11.005 35.2669 11.1337 35.268 11.2634 35.2703C11.6183 35.2761 11.9215 35.1589 12.1926 34.9246C12.4487 34.7018 12.7151 34.4882 12.9953 34.2976C13.2641 34.115 13.5592 33.9645 13.898 33.9863C14.1633 34.0036 14.4367 34.0242 14.6893 34.0989C15.0178 34.1954 15.2991 34.0863 15.5828 33.9691C15.739 33.9048 15.8596 33.5821 15.8183 33.4224C15.7735 33.2525 15.6196 33.133 15.4083 33.1181C15.0224 33.0905 14.6503 33.1491 14.2862 33.2869L14.2679 33.2939C13.9477 33.4157 13.6241 33.5388 13.2916 33.6154C12.7714 33.7348 12.1799 33.4305 11.9617 32.9941L11.9286 32.928C11.832 32.7359 11.7341 32.5413 11.6723 32.3383C11.5035 31.7882 11.1543 31.4092 10.649 31.1554C10.6134 31.1376 10.5867 31.1036 10.5597 31.0693C10.5466 31.0527 10.5335 31.036 10.5192 31.021C10.5343 31.0154 10.5493 31.0086 10.5643 31.0017C10.5988 30.986 10.6334 30.9701 10.6685 30.9693C11.1463 30.9532 11.5241 31.1542 11.7883 31.5436C11.8882 31.6906 11.9658 31.8527 12.0432 32.0146C12.0753 32.0815 12.1073 32.1484 12.1409 32.2143C12.3177 32.5588 12.5061 32.8964 12.9207 32.9941C13.1975 33.0584 13.4765 33.0802 13.7522 32.9539C14.02 32.8305 14.2936 32.7209 14.5666 32.6115L14.7238 32.5485C15.2704 32.328 15.793 32.3567 16.3041 32.6736C16.4385 32.7572 16.5844 32.8218 16.7305 32.8865C16.8414 32.9356 16.9525 32.9848 17.0586 33.0423C17.2579 33.1508 17.4664 33.1331 17.6705 33.1157C17.7038 33.1129 17.7377 33.11 17.7706 33.1078C18.0601 33.0882 18.1255 32.9275 18.0819 32.6105C18.0141 32.1063 17.7488 31.7422 17.2757 31.6205C16.9777 31.5439 16.6433 31.5798 16.3257 31.614L16.265 31.6205C16.1238 31.6358 15.984 31.6726 15.8446 31.7093C15.6698 31.7552 15.4955 31.8011 15.3198 31.8043C15.0017 31.81 14.6537 31.7285 14.4286 31.4804C14.0255 31.0359 13.5386 30.7902 12.9758 30.5857C12.4188 30.3825 12.1834 29.9392 12.2178 29.3764C12.2285 29.198 12.312 29.0564 12.3958 28.9144C12.4113 28.8882 12.4268 28.8619 12.4418 28.8355C12.451 28.8194 12.498 28.8125 12.5199 28.8217C12.5394 28.8286 12.5624 28.8653 12.5601 28.8849C12.5573 28.9089 12.5476 28.9317 12.5377 28.9548C12.5311 28.9703 12.5245 28.9859 12.5199 29.002C12.4039 29.4086 12.5589 29.7405 12.8621 29.9816C13.0665 30.1436 13.3203 30.2676 13.5707 30.34C13.9152 30.441 14.2288 30.5823 14.5125 30.7971C14.9225 31.1071 15.3784 31.1129 15.8493 30.998C16.0041 30.96 16.1575 30.9144 16.3109 30.8689C16.4259 30.8347 16.541 30.8005 16.6566 30.7695C17.3136 30.5938 18.0738 30.9199 18.3908 31.5057C18.4312 31.5802 18.4709 31.6551 18.5106 31.73C18.6165 31.9299 18.7224 32.1298 18.841 32.3211C19.1913 32.8838 19.6162 33.3673 20.2433 33.6441C20.427 33.7256 20.6039 33.7256 20.7842 33.7119C20.9863 33.6969 21.1483 33.4477 21.154 33.1583C21.1666 32.5795 21.0196 32.0351 20.7222 31.5447C20.2123 30.7029 19.452 30.1631 18.5045 29.961C18.0509 29.8645 17.5731 29.7887 17.077 29.907C16.6842 30.0012 16.2443 29.9771 15.8378 29.9208C15.298 29.8461 14.9236 29.5016 14.7226 28.9905C14.6514 28.8079 14.5905 28.6196 14.5469 28.4289C14.4895 28.1751 14.3253 28.0006 14.1369 27.8478C14.0175 27.7502 13.8785 27.6767 13.7097 27.6882C13.617 27.6947 13.5246 27.6981 13.4323 27.7015C13.2305 27.709 13.0287 27.7165 12.8231 27.7559C12.4245 27.8329 12.0134 27.8168 11.6459 27.54C11.5416 27.4609 11.47 27.3615 11.399 27.263C11.3403 27.1815 11.282 27.1006 11.206 27.0324C11.199 27.0262 11.2052 27.0047 11.2113 26.9833C11.2142 26.9731 11.2172 26.9629 11.2187 26.9543C11.2266 26.9567 11.2348 26.9584 11.2429 26.96C11.2583 26.9632 11.2732 26.9663 11.2853 26.9738C11.3327 27.0051 11.3789 27.0393 11.425 27.0735C11.5162 27.1412 11.6073 27.2087 11.7079 27.2529C12.0295 27.393 12.3729 27.3884 12.7105 27.3172C12.8439 27.2895 12.9745 27.2496 13.1051 27.2098C13.2286 27.1721 13.3521 27.1344 13.4777 27.107C13.8211 27.0324 14.3758 27.1978 14.6307 27.5871C14.7743 27.806 14.8712 28.0429 14.9681 28.2799C14.9984 28.3539 15.0286 28.4278 15.0603 28.5013C15.2222 28.8768 15.4565 29.1777 15.855 29.3374C16.1904 29.4717 16.5326 29.4338 16.8668 29.3948C17.1378 29.3638 17.2665 29.0514 17.1505 28.7964C17.1077 28.7015 17.0516 28.6129 16.9954 28.5241C16.9612 28.47 16.9268 28.4156 16.8955 28.36C16.8771 28.3279 16.8657 28.2704 16.8817 28.2475C16.899 28.2234 16.9633 28.2061 16.9908 28.2199C17.0793 28.2635 17.1711 28.3106 17.2423 28.3772C17.7144 28.8183 18.3081 29.0078 18.9099 29.1502C20.1101 29.4327 21.0518 30.0862 21.7501 31.0853C22.1256 31.624 22.3323 32.228 22.384 32.8987C22.3985 33.0833 22.4071 33.2682 22.4157 33.453L22.4157 33.454C22.4269 33.6945 22.4381 33.9348 22.4621 34.1735C22.5184 34.734 22.6378 35.283 22.9203 35.7848C23.088 36.0823 23.3212 36.2948 23.6358 36.4211C23.9298 36.5394 24.1366 36.428 24.2652 36.1294C24.3748 35.8739 24.3547 35.6136 24.3348 35.3571C24.3307 35.3047 24.3267 35.2523 24.3238 35.2003C24.3031 34.8511 24.2353 34.5031 24.163 34.1586C23.9161 32.9826 23.5773 31.8399 22.8905 30.8327C22.4736 30.2217 21.9177 29.76 21.2677 29.4212C21.0485 29.3069 20.8225 29.2056 20.5966 29.1045C20.3597 28.9984 20.1229 28.8923 19.8941 28.7712C19.3199 28.468 18.7572 28.1441 18.2737 27.6928C17.8694 27.3149 17.41 27.0037 16.8875 26.8119C16.7249 26.7517 16.5518 26.7196 16.3792 26.6876C16.3314 26.6788 16.2827 26.6698 16.2351 26.6603C16.1494 26.6433 16.0632 26.6278 15.977 26.6124C15.6214 26.5486 15.2662 26.4849 14.9408 26.3112C14.7387 26.2032 14.563 26.0711 14.447 25.8598C14.331 25.6496 14.1909 25.4533 14.0485 25.2592C13.7177 24.809 13.2824 24.5621 12.7105 24.5965C12.5095 24.6091 12.3281 24.6723 12.1592 24.7826C12.1291 24.8024 12.0935 24.8135 12.058 24.8245C12.0422 24.8294 12.0264 24.8343 12.0111 24.84C12.0161 24.8209 12.0193 24.7994 12.0224 24.778C12.0292 24.7311 12.036 24.6844 12.0628 24.6631L12.0773 24.6516C12.2243 24.5346 12.3749 24.4147 12.5417 24.3347C13.2836 23.9798 13.9118 24.2451 14.4746 24.7389C14.5783 24.8302 14.6662 24.9393 14.754 25.0484C14.8364 25.1506 14.9188 25.2529 15.0143 25.3407C15.2417 25.5509 15.4783 25.7691 15.7505 25.9069C16.0402 26.0532 16.3575 26.1478 16.6718 26.2415C16.72 26.2559 16.7682 26.2702 16.8163 26.2847C17.0781 26.364 17.2779 26.186 17.2975 25.9081C17.3119 25.7118 17.2509 25.5368 17.1897 25.3613C17.1679 25.2986 17.146 25.2357 17.1275 25.1719C17.1212 25.1491 17.1321 25.121 17.1429 25.0931C17.1479 25.0801 17.1529 25.0671 17.1562 25.0547C17.1629 25.0637 17.1694 25.073 17.1759 25.0824C17.1894 25.1019 17.2031 25.1215 17.2194 25.1386C17.441 25.3717 17.5593 25.6692 17.6259 25.9666C17.7385 26.4697 18.0784 26.6833 18.5252 26.8016C18.6791 26.8418 18.8594 26.7889 18.9225 26.6523L18.9374 26.6204C19.0098 26.4655 19.0897 26.2945 19.0822 26.1366C19.0512 25.5566 18.8192 25.0524 18.3173 24.7401C18.1014 24.6057 17.8177 24.5575 17.5582 24.5161C16.7738 24.3932 16.1685 23.9809 15.8125 23.2976C15.4025 22.5132 15.4599 21.7047 16.1019 20.9318C16.1781 20.8398 16.2663 20.7572 16.3543 20.6748C16.3817 20.6492 16.4091 20.6235 16.4361 20.5976C16.4449 20.5888 16.4626 20.5889 16.4803 20.589C16.488 20.589 16.4957 20.5891 16.5027 20.5884C16.5038 20.5972 16.5062 20.6069 16.5086 20.6165C16.5136 20.6371 16.5186 20.6574 16.5108 20.6676C16.3041 20.9249 16.1685 21.2166 16.079 21.5336C15.8584 22.3076 16.095 23.0599 16.7095 23.5089C16.9679 23.6984 17.2975 23.7627 17.619 23.8167C17.6988 23.8302 17.7791 23.8424 17.8594 23.8546C18.0993 23.8909 18.3397 23.9273 18.5677 24.0005C19.0776 24.1647 19.4543 24.5092 19.6449 25.0157C19.7024 25.1681 19.7282 25.3327 19.7541 25.4971C19.7654 25.5694 19.7768 25.6416 19.7908 25.7128C19.8098 25.8112 19.8254 25.9107 19.841 26.0102C19.8734 26.2169 19.906 26.4245 19.9688 26.6212C20.1721 27.2575 20.5993 27.7111 21.1793 28.0419C21.5918 28.2765 22.0391 28.3964 22.4865 28.5164C22.6194 28.552 22.7528 28.5878 22.8847 28.6265C22.9778 28.654 23.0857 28.6437 23.1845 28.6311C23.4682 28.5955 23.5623 28.4714 23.5796 28.1797C23.6002 27.8432 23.4682 27.5722 23.2546 27.331C23.0065 27.0508 22.7125 26.8326 22.3794 26.6626C22.1291 26.534 21.8787 26.3996 21.6501 26.2365C21.2631 25.9597 21.0794 25.5302 20.9186 25.1076C20.69 24.5035 20.3696 23.9672 19.9435 23.4825C19.4566 22.9289 19.0317 22.3329 18.8353 21.6002C18.7652 21.3395 18.6205 21.1098 18.4138 20.9226C18.294 20.8145 18.1798 20.7005 18.0654 20.5865C17.9769 20.4983 17.8882 20.4099 17.7971 20.3242C17.3675 19.92 17.3951 19.131 17.5846 18.6877C17.605 18.6389 17.6466 18.599 17.6878 18.5595C17.7 18.5479 17.7121 18.5363 17.7236 18.5246C17.7373 18.5097 17.781 18.4993 17.7879 18.5074C17.8039 18.5257 17.8177 18.559 17.8131 18.582C17.8038 18.6274 17.7912 18.6724 17.7786 18.7175C17.757 18.7944 17.7355 18.8713 17.7304 18.9495C17.6868 19.5892 17.9831 20.067 18.4678 20.4483C18.4933 20.4684 18.5224 20.4843 18.5516 20.5001C18.5722 20.5114 18.5929 20.5227 18.6125 20.5355C19.0064 20.802 19.0799 20.7859 19.3601 20.3862C19.4325 20.2817 19.5117 20.1784 19.6024 20.0911C19.664 20.0319 19.7348 19.9824 19.8055 19.9331C19.8377 19.9106 19.8698 19.8882 19.901 19.8648C19.951 19.9704 19.8867 20.0313 19.8265 20.0884C19.8009 20.1127 19.776 20.1363 19.7609 20.1623C19.4577 20.6848 19.4841 21.2143 19.6702 21.7552C19.8391 22.2491 20.0961 22.6998 20.3532 23.1505C20.4177 23.2636 20.4822 23.3767 20.5453 23.4905C20.6889 23.7489 20.8393 24.005 21.0013 24.252C21.0484 24.3243 21.1471 24.4013 21.2264 24.407C21.3734 24.4173 21.3998 24.2531 21.4055 24.1624C21.4239 23.8626 21.4136 23.5617 21.4009 23.2608C21.3981 23.1923 21.3849 23.124 21.3717 23.0557C21.3582 22.9856 21.3447 22.9155 21.3424 22.8451C21.332 22.5212 21.2195 22.2445 21.0219 21.9883L21.0132 21.977C20.878 21.8024 20.7366 21.6199 20.6602 21.4176C20.3891 20.6963 20.6613 20.1669 21.2137 19.6937L21.2406 19.6706C21.3798 19.5514 21.5253 19.4266 21.6191 19.2745C21.8925 18.8335 21.8178 18.327 21.4572 17.9561C21.4253 17.9231 21.3922 17.8914 21.3592 17.8597C21.3198 17.8219 21.2805 17.7842 21.2436 17.7448C21.2254 17.7258 21.2138 17.7003 21.2023 17.6751C21.1978 17.6652 21.1933 17.6554 21.1885 17.646C21.2012 17.6456 21.2147 17.6435 21.2281 17.6415C21.2559 17.6372 21.2836 17.6329 21.3045 17.6437C21.7972 17.8883 22.098 18.3064 22.1738 18.8301C22.2175 19.1287 22.0326 19.4273 21.8224 19.6662C21.6903 19.8166 21.5514 19.9659 21.394 20.0888C20.984 20.4104 20.9955 21.0041 21.2482 21.4451L21.2625 21.4702C21.3841 21.6825 21.5065 21.8962 21.6501 22.0929C21.7994 22.2984 21.858 22.5224 21.8569 22.7682L21.8559 23.0938V23.0959C21.8546 23.4743 21.8533 23.8526 21.8569 24.2313C21.8578 24.3316 21.8757 24.4327 21.8934 24.5328C21.8978 24.5575 21.9022 24.5823 21.9063 24.6068C22.0073 25.2098 22.4311 25.4774 22.9697 25.6129C23.0984 25.6454 23.2301 25.6639 23.3619 25.6823C23.4254 25.6912 23.4889 25.7001 23.552 25.7105C24.2227 25.8231 24.6695 26.2285 24.9336 26.8314C25.0691 27.1392 25.1438 27.4711 25.1323 27.8214C25.1272 27.9696 25.1448 28.1181 25.1624 28.2667C25.1765 28.3854 25.1906 28.5042 25.1932 28.623C25.1978 28.8619 25.1932 29.0985 25.1415 29.3408C25.0818 29.6268 25.1139 29.9334 25.2023 30.2251C25.2896 30.5157 25.5124 30.6179 25.7467 30.4273C25.9064 30.2975 26.0373 30.1149 26.1395 29.9323C26.4163 29.4384 26.6 28.9182 26.6827 28.3451C26.7539 27.8513 26.6701 27.3953 26.5449 26.9394C26.4186 26.4811 26.1475 26.1056 25.8179 25.7599C25.2822 25.1977 24.6472 24.7674 24.013 24.3376C23.932 24.2828 23.851 24.2279 23.7702 24.1727C23.3694 23.8994 22.9801 23.6157 22.7263 23.1885C22.3277 22.5178 22.2519 21.8195 22.5333 21.0811C22.7871 20.4115 23.2419 19.9785 23.923 19.758C24.0767 19.7083 24.218 19.622 24.3596 19.5355C24.4368 19.4883 24.5142 19.4411 24.5937 19.3997C25.1403 19.1172 25.2219 18.4901 25.0645 18.0388C24.96 17.7394 24.8383 17.4466 24.7167 17.1539C24.6606 17.0188 24.6044 16.8835 24.55 16.7479C24.5087 16.6446 24.4696 16.5389 24.4363 16.4321C24.4315 16.4177 24.4418 16.3988 24.452 16.3801C24.4564 16.372 24.4608 16.3639 24.4639 16.3563C24.4709 16.3603 24.479 16.3638 24.4871 16.3673C24.5042 16.3746 24.5216 16.3821 24.5293 16.3953C24.5611 16.4471 24.5931 16.4986 24.6252 16.5502C24.7348 16.7263 24.8446 16.9028 24.9405 17.0867C25.0258 17.2493 25.1044 17.4156 25.1831 17.582C25.2494 17.7223 25.3157 17.8627 25.3861 18.0009C25.4435 18.1134 25.5147 18.226 25.6032 18.3133C25.8168 18.5246 25.973 18.5177 26.244 18.3569C26.7057 18.0836 26.8768 17.6426 26.9078 17.1499C26.9262 16.8524 26.7999 16.5699 26.5679 16.3551C26.5525 16.3414 26.548 16.3158 26.5434 16.2902C26.5415 16.2794 26.5396 16.2686 26.5369 16.2587C26.5494 16.2605 26.5624 16.2614 26.5754 16.2623C26.6029 16.2642 26.6306 16.2661 26.654 16.277C26.8251 16.3563 26.9457 16.478 27.0445 16.648C27.4281 17.3084 27.2213 18.0641 26.8067 18.4809C26.7257 18.5625 26.6449 18.6444 26.5641 18.7264L26.5633 18.7272L26.5622 18.7283C26.2611 19.0337 25.9595 19.3397 25.6422 19.6271C25.2632 19.9705 24.7981 20.1807 24.3284 20.3759C24.0826 20.4781 23.8357 20.5872 23.6117 20.7296C23.1087 21.0501 22.9399 21.5427 22.9709 22.117C22.9739 22.1761 23.0023 22.2352 23.0295 22.2919L23.0398 22.3134C23.1167 22.4707 23.2982 22.5006 23.4142 22.3731C23.4341 22.3513 23.4473 22.3234 23.4605 22.2955C23.4716 22.272 23.4828 22.2484 23.498 22.2284C23.546 22.1646 23.5973 22.1035 23.6485 22.0426C23.672 22.0146 23.6954 21.9867 23.7185 21.9585C23.7125 21.9917 23.7055 22.0248 23.6986 22.0578C23.6832 22.1311 23.6678 22.2041 23.6623 22.2778C23.6335 22.6774 23.823 22.9645 24.1722 23.123C24.4248 23.2379 24.697 23.3458 24.9692 23.3722C25.5343 23.4262 26.1039 23.4251 26.6483 23.2126C26.9227 23.1058 27.1536 22.9542 27.2099 22.6349C27.2213 22.5706 27.2317 22.5017 27.219 22.4397C27.1593 22.1503 27.0663 21.8735 26.9331 21.6059C26.716 21.1729 26.6632 20.7159 26.8366 20.2496C26.9997 19.812 27.3029 19.5077 27.7359 19.3457C27.7893 19.3257 27.8429 19.3059 27.8966 19.2861C28.2517 19.1551 28.6072 19.024 28.9245 18.8174C29.4126 18.4993 29.6435 17.8757 29.4126 17.3267C29.3322 17.1361 29.2484 16.9409 29.0417 16.8352C28.9507 16.7889 28.8679 16.7253 28.7848 16.6617C28.7546 16.6385 28.7243 16.6153 28.6937 16.5929C28.6828 16.5851 28.6783 16.569 28.6736 16.5527C28.6714 16.5448 28.6691 16.5368 28.6661 16.5297C28.6751 16.527 28.6841 16.5229 28.6932 16.5189C28.7108 16.5111 28.7283 16.5033 28.7442 16.5056C29.3563 16.6089 29.7778 17.05 29.9317 17.5851C30.166 18.4017 29.6205 19.2918 28.9831 19.6053C28.9335 19.6295 28.8849 19.6569 28.8363 19.6843C28.7353 19.7411 28.6346 19.7979 28.526 19.8258C28.2343 19.9004 28.0264 20.0773 27.8243 20.2817C27.4981 20.6113 27.451 21.0053 27.5762 21.4199C27.6807 21.7678 27.8162 22.1089 27.9598 22.4443C28.1665 22.9266 27.9954 23.3757 27.5498 23.5882C27.4281 23.6461 27.3054 23.702 27.1827 23.7578C26.9722 23.8538 26.7618 23.9496 26.5564 24.0556C26.4358 24.1176 26.3152 24.2118 26.2417 24.3232C26.0809 24.5655 26.136 24.8239 26.3657 25.0019C26.4657 25.0789 26.5748 25.1466 26.6885 25.2017L26.7893 25.2505C27.1738 25.4366 27.5589 25.623 27.9518 25.7909C28.1022 25.8552 28.2791 25.8805 28.4456 25.8851C29.0887 25.9035 29.5539 25.2925 29.3655 24.6769C29.2762 24.3848 29.1723 24.0976 29.0684 23.8103L29.0679 23.8091C29.0384 23.7274 29.0088 23.6458 28.9796 23.564C28.7109 22.8049 29.0485 22.3007 29.5998 21.9263C29.669 21.8793 29.7413 21.837 29.8134 21.7947C29.8874 21.7514 29.9613 21.7081 30.0316 21.6599C30.4795 21.3544 30.5645 20.9995 30.3015 20.5275C30.2705 20.4715 30.2309 20.42 30.1912 20.3685C30.1617 20.3302 30.1322 20.292 30.1063 20.2519C30.0909 20.2281 30.0848 20.1986 30.0787 20.169C30.0756 20.1543 30.0726 20.1396 30.0684 20.1255C30.0858 20.127 30.1048 20.1264 30.1238 20.1258C30.165 20.1244 30.2063 20.1231 30.2315 20.1428L30.2656 20.17C30.4897 20.3484 30.7205 20.5322 30.785 20.8273C30.8976 21.3441 31.2237 21.4738 31.6981 21.1672C32.1402 20.8824 32.4216 20.5195 32.4342 19.9567C32.4446 19.4973 32.3251 19.0919 32.1035 18.7026C32.0933 18.6846 32.1013 18.6558 32.1092 18.6274C32.1129 18.6141 32.1166 18.6009 32.1184 18.5889C32.1258 18.5945 32.134 18.5996 32.1422 18.6047C32.1592 18.6153 32.1761 18.6258 32.1862 18.6406C32.2298 18.7065 32.2754 18.7709 32.3209 18.8351C32.4769 19.0552 32.6321 19.2742 32.7041 19.5525C32.912 20.3564 32.6765 21.0834 32.0426 21.5588C31.7382 21.7874 31.3834 21.9252 31.0101 22.0182C30.5955 22.1216 30.2073 22.3019 29.8754 22.5637C29.3942 22.9439 29.4034 23.5939 29.7606 23.9499C29.9248 24.1142 29.9845 24.1176 30.1603 23.9809C30.1849 23.9618 30.2074 23.9393 30.2298 23.917C30.2585 23.8883 30.287 23.8598 30.3199 23.8385C30.3579 23.8132 30.4019 23.7971 30.4463 23.7809C30.4663 23.7736 30.4863 23.7663 30.5059 23.7581C30.5013 23.7813 30.4971 23.8045 30.493 23.8276C30.4858 23.8675 30.4787 23.9072 30.4692 23.9465C30.4563 24.0006 30.4423 24.0545 30.4284 24.1085C30.4038 24.2036 30.3791 24.2989 30.3601 24.3955C30.3119 24.631 30.4589 24.7757 30.6254 24.8917C30.7345 24.9675 30.8689 24.9709 30.9814 24.8744C31.1583 24.7228 31.2846 24.5506 31.311 24.3014C31.3311 24.1173 31.367 23.9349 31.4029 23.7524C31.4266 23.6321 31.4503 23.5116 31.4695 23.3906C31.4984 23.2097 31.598 23.0704 31.6978 22.9309C31.7368 22.8764 31.7758 22.8218 31.8106 22.7647C31.8183 22.7525 31.8351 22.7453 31.8519 22.7382C31.8604 22.7346 31.8688 22.731 31.8761 22.7268C31.8784 22.7357 31.8824 22.7452 31.8864 22.7545C31.8943 22.773 31.9021 22.7912 31.8967 22.8049C31.7392 23.1919 31.7097 23.5975 31.6802 24.004L31.6801 24.005C31.6709 24.1314 31.6617 24.2581 31.6487 24.384C31.5924 24.9261 31.3834 25.3832 30.878 25.6738C30.4761 25.9058 30.0822 26.1584 29.7112 26.4375C29.493 26.6017 29.2656 26.7338 29.0233 26.8521C28.9517 26.8868 28.8835 26.9289 28.8153 26.9711C28.739 27.0182 28.6622 27.0655 28.5811 27.1025C28.1929 27.2816 28.0919 27.6342 28.0471 28.004C28.0175 28.2496 27.9672 28.488 27.9167 28.7271C27.9065 28.7754 27.8963 28.8238 27.8863 28.8722C27.7818 29.381 27.5475 29.8289 27.2994 30.2688C26.7987 31.1565 26.4128 32.0879 26.1487 33.0699C26.0465 33.4489 25.9454 33.8279 25.8639 34.2114C25.8205 34.4151 25.7912 34.6219 25.762 34.8286C25.7479 34.9283 25.7337 35.0285 25.718 35.1279L25.7016 35.2319C25.6895 35.3078 25.6773 35.3842 25.6663 35.4598C25.6365 35.67 25.6227 35.8733 25.6985 36.0857C25.8708 36.5704 26.2589 36.7025 26.6379 36.3545C26.8883 36.1248 27.1352 35.8721 27.3109 35.5861C27.6497 35.0349 27.915 34.4469 27.961 33.7785C27.9722 33.6116 28.0045 33.4465 28.0368 33.2814C28.0639 33.1431 28.091 33.0047 28.1057 32.8654C28.1133 32.7914 28.0957 32.7153 28.0781 32.6386C28.0637 32.5761 28.0493 32.5132 28.0482 32.4508C28.0461 32.3545 28.0426 32.2578 28.039 32.161C28.0272 31.8403 28.0154 31.5188 28.0551 31.2048C28.076 31.0408 28.0883 30.8755 28.1007 30.7101C28.1291 30.3289 28.1576 29.947 28.2906 29.5785C28.5915 28.7436 29.0761 28.0545 29.7813 27.5056C30.1401 27.2253 30.5423 27.0344 30.9446 26.8434L30.9456 26.8429C31.0901 26.7744 31.2351 26.7055 31.3776 26.6327C31.8669 26.3835 32.2275 26.0286 32.4308 25.5141C32.5249 25.2752 32.595 25.0364 32.5927 24.778C32.5915 24.6581 32.5914 24.5383 32.5913 24.4185C32.5912 24.1939 32.591 23.9695 32.5835 23.7455C32.572 23.4239 32.7041 23.1563 32.9189 22.9462C33.1187 22.7498 33.3472 22.5718 33.5907 22.4328C34.2695 22.0412 34.4234 21.3429 34.2637 20.7136C34.2501 20.6598 34.2318 20.6074 34.2134 20.5551C34.1992 20.5149 34.185 20.4742 34.173 20.4333C34.1695 20.4218 34.196 20.3977 34.2132 20.3851C34.2224 20.3782 34.2442 20.3794 34.2545 20.3862C34.2786 20.4 34.3051 20.4161 34.3211 20.4379C34.7656 21.0248 34.8196 21.8413 34.3636 22.4064C34.2651 22.5292 34.1245 22.6179 33.9839 22.7066C33.918 22.7481 33.8521 22.7897 33.7906 22.8348C33.7392 22.8725 33.6859 22.9084 33.6327 22.9443C33.5108 23.0265 33.3889 23.1087 33.2898 23.2126C32.9349 23.5847 32.9843 24.0475 33.0624 24.5C33.1853 25.2063 33.1704 25.892 32.8316 26.5454C32.7282 26.7441 32.6386 26.952 32.5617 27.1633C32.4779 27.3942 32.5583 27.571 32.7627 27.6962C33.0498 27.8708 33.5333 27.8168 33.8882 27.4642C34.1535 27.2001 34.3154 26.8728 34.3946 26.5053C34.4114 26.4281 34.4274 26.3507 34.4434 26.2733C34.4813 26.0899 34.5193 25.9063 34.5669 25.7254C34.8069 24.8044 35.3421 24.1785 36.3126 23.9901C36.3418 23.9847 36.3707 23.9715 36.3992 23.9585C36.4367 23.9414 36.4736 23.9245 36.5101 23.9258C36.548 23.9271 36.5838 23.9115 36.6193 23.8961C36.6772 23.8709 36.7343 23.8461 36.7984 23.8959C36.7762 23.9224 36.7553 23.9507 36.7345 23.979C36.6885 24.0414 36.6425 24.1036 36.5825 24.1463C36.4343 24.252 36.2712 24.3415 36.107 24.4208C35.4719 24.7286 35.1503 25.2684 35.0033 25.9287C34.9298 26.2572 34.8632 26.5914 34.8368 26.9256C34.7713 27.7353 33.9284 28.329 33.3013 28.4002C32.9745 28.4376 32.6634 28.3977 32.3508 28.3577C32.2404 28.3436 32.1299 28.3295 32.0185 28.3187C31.3248 28.2532 30.6311 28.2222 30.0316 28.7149C29.6618 29.0192 29.2576 29.6107 29.1519 30.1195C29.1466 30.1447 29.1403 30.1696 29.134 30.1945C29.1037 30.3148 29.0741 30.4326 29.1588 30.5582C29.2445 30.6846 29.3682 30.7296 29.4977 30.7767L29.5249 30.7866L29.547 30.7948C29.9153 30.9337 30.2511 30.8132 30.5835 30.694C30.6304 30.6772 30.6773 30.6604 30.7242 30.6443C31.0265 30.5409 31.2846 30.3585 31.5425 30.1763C31.6196 30.1218 31.6967 30.0673 31.775 30.015C31.8846 29.9414 31.9906 29.862 32.0967 29.7827C32.2172 29.6924 32.3383 29.6018 32.4641 29.52C32.943 29.2087 33.4609 29.149 34.0088 29.3052C34.2373 29.3707 34.467 29.4338 34.7001 29.4786C34.9781 29.5315 35.225 29.4522 35.4489 29.2742C35.9669 28.863 36.0794 28.1097 35.7981 27.4929C35.7108 27.3011 35.6235 27.1082 35.5557 26.9095C35.5276 26.8279 35.5239 26.737 35.5201 26.6469C35.5191 26.623 35.5181 26.5989 35.5167 26.5753C35.5159 26.5594 35.5284 26.5429 35.5407 26.5266C35.5461 26.5194 35.5515 26.5123 35.5557 26.5053L35.5673 26.525C35.5775 26.5422 35.5876 26.5593 35.5959 26.5776C35.6124 26.6161 35.6295 26.6544 35.6465 26.6927C35.6863 26.7823 35.726 26.8718 35.759 26.9635C35.8073 27.099 35.8968 27.1484 36.0335 27.1932C36.2 27.2472 36.2954 27.2139 36.3769 27.0749C36.571 26.7407 36.6548 26.3697 36.7088 25.9942C36.7172 25.9358 36.6989 25.8745 36.6803 25.8123C36.666 25.7644 36.6516 25.716 36.6491 25.668C36.6478 25.6412 36.6294 25.6162 36.6116 25.592C36.5806 25.5498 36.5513 25.5101 36.6169 25.467C36.6348 25.4551 36.6873 25.4955 36.7362 25.5332C36.7533 25.5463 36.77 25.5591 36.7846 25.5693C36.8076 25.5853 36.8282 25.6083 36.8409 25.6336L36.8564 25.6624C36.9473 25.8318 37.0394 26.0033 37.2796 25.962C37.5529 25.9149 37.7975 25.815 37.9204 25.5371C37.9281 25.5195 37.9368 25.5029 37.9454 25.4863C37.9498 25.478 37.9541 25.4697 37.9583 25.4613C37.995 25.3867 38.0319 25.3119 38.0674 25.2373C38.0701 25.2619 38.0735 25.2865 38.0769 25.3111C38.085 25.3703 38.0932 25.4293 38.0915 25.4877C38.0881 25.7346 37.9893 25.923 37.7482 26.0229C37.6852 26.0491 37.6245 26.0808 37.564 26.1123C37.4864 26.1528 37.4091 26.1932 37.3278 26.2216C36.9144 26.3651 36.7306 26.6546 36.7122 27.0875C36.6858 27.7077 36.579 28.3175 36.3769 28.9067C36.0771 29.7784 35.3938 30.0414 34.6106 29.915C34.5181 29.9 34.4253 29.8796 34.3327 29.8591C34.1342 29.8154 33.9361 29.7716 33.7412 29.7818C33.3518 29.8013 32.9533 29.8691 32.6536 30.1723C32.6014 30.2252 32.5475 30.2769 32.4936 30.3285C32.3815 30.4359 32.2693 30.5432 32.1724 30.6627C31.7945 31.1267 31.2789 31.3265 30.7253 31.4838C29.818 31.7411 29.1978 32.3153 28.928 33.2352C28.8935 33.3547 28.8912 33.4925 28.9084 33.6165C28.944 33.8807 29.0669 33.968 29.338 33.9817C29.5849 33.9944 29.81 33.9266 30.0351 33.8359C30.5289 33.6361 30.9527 33.3306 31.3225 32.955C31.5384 32.7357 31.7934 32.5921 32.069 32.4773C32.1701 32.4348 32.2884 32.4233 32.3998 32.421C32.5986 32.4177 32.7978 32.4186 32.997 32.4195H32.998C33.1424 32.4201 33.2869 32.4208 33.4311 32.4198C34.1029 32.4141 34.5795 32.0776 34.9252 31.5252C34.9687 31.4562 35.0089 31.385 35.0491 31.3138L35.0496 31.3129C35.0996 31.2244 35.1495 31.1359 35.2055 31.052C35.6465 30.3928 36.3872 30.1884 37.0878 30.5432C37.1136 30.5562 37.1424 30.5669 37.1717 30.5779C37.2703 30.6149 37.3754 30.6542 37.3986 30.786C37.351 30.7757 37.3033 30.7662 37.2555 30.7566C37.1423 30.734 37.0289 30.7113 36.9178 30.6788C36.4022 30.5295 35.8497 30.7821 35.5879 31.245C35.3984 31.5803 35.6155 32.0833 35.8555 32.2809C36.0863 32.4704 36.3447 32.6231 36.6479 32.6472C36.8914 32.6668 37.1188 32.5783 37.2934 32.4049C37.4852 32.2143 37.6678 32.0133 37.8354 31.802C38.0847 31.485 38.4108 31.3012 38.7956 31.2289C38.8979 31.2098 39.0062 31.2226 39.1145 31.2353C39.163 31.241 39.2116 31.2467 39.2595 31.2496C39.2181 31.2653 39.1765 31.2806 39.1348 31.2959C39.0458 31.3286 38.9566 31.3613 38.8691 31.3989C38.5796 31.5217 38.3098 31.663 38.1501 31.9616C38.0364 32.1729 37.9009 32.3739 37.7539 32.5645C37.7308 32.5943 37.7078 32.6247 37.6847 32.6552C37.5606 32.8192 37.4327 32.9881 37.2681 33.0917C36.9155 33.3133 36.5308 33.241 36.1817 33.0457C36.0604 32.9774 35.9529 32.8848 35.8459 32.7925C35.8018 32.7545 35.7579 32.7167 35.7131 32.6805C35.6705 32.6464 35.6288 32.6113 35.5872 32.5762C35.5096 32.511 35.4323 32.4459 35.3502 32.3877C35.1021 32.2108 34.9241 32.2051 34.6944 32.3693C34.6285 32.4163 34.5702 32.4751 34.5121 32.5338C34.4892 32.5569 34.4662 32.58 34.4429 32.6024C34.2074 32.8287 33.9215 32.9343 33.6011 32.9504C33.4912 32.9559 33.381 32.9548 33.2709 32.9537C33.1519 32.9525 33.0329 32.9513 32.9143 32.9585C32.7041 32.9711 32.4916 32.9918 32.2872 33.0389C31.9599 33.1147 31.86 33.3662 31.9817 33.6854C32.1528 34.1333 32.4767 34.4331 32.8706 34.6731C33.3346 34.9545 33.7906 34.9051 34.2258 34.6134C34.4034 34.4945 34.5715 34.3625 34.7399 34.2302C34.8056 34.1786 34.8714 34.1269 34.9379 34.0759C35.2078 33.8692 35.5064 33.7854 35.8497 33.7922C36.1702 33.7991 36.4263 33.9243 36.6514 34.1264C36.7512 34.216 36.8447 34.3132 36.9383 34.4105C37.0439 34.5203 37.1496 34.6302 37.2647 34.7294L37.2857 34.7475C37.5642 34.9882 37.8361 35.2231 38.2282 35.3105C38.4667 35.3637 38.6595 35.3087 38.8604 35.2514C38.8933 35.242 38.9273 35.2323 38.9609 35.2232C38.9879 35.2159 39.016 35.2114 39.0441 35.207C39.0554 35.2052 39.0668 35.2034 39.0781 35.2014C39.0721 35.2145 39.067 35.2292 39.0619 35.2439C39.0506 35.2769 39.0391 35.3103 39.0161 35.3277C38.5877 35.6482 38.1363 35.8434 37.6149 35.5425C37.3956 35.4162 37.1785 35.283 36.9729 35.136C36.8899 35.0772 36.8127 35.0098 36.7355 34.9425C36.6408 34.8599 36.5463 34.7775 36.4412 34.711C36.0048 34.4342 35.5408 34.3768 35.0757 34.6352C34.9541 34.7028 34.8413 34.7858 34.7283 34.8689C34.6588 34.92 34.5892 34.9711 34.5175 35.0188C34.3404 35.1372 34.1603 35.2527 33.9802 35.3682L33.8445 35.4552C33.5138 35.6677 33.1669 35.5942 32.8408 35.469C32.5801 35.3691 32.3332 35.2221 32.0954 35.0716C31.7164 34.8328 31.2926 34.6835 30.8631 34.6869C30.2269 34.6915 29.6446 34.9131 29.2197 35.4311C29.1668 35.4954 29.1106 35.5724 29.0945 35.6516C29.0118 36.0639 29.052 36.2764 29.4907 36.2212C29.7824 36.1845 30.0741 36.1374 30.3635 36.0823C30.7471 36.0099 31.1273 35.9996 31.4798 36.1833C31.6096 36.2509 31.7281 36.3394 31.8465 36.4279C31.9094 36.475 31.9723 36.522 32.0368 36.5658L32.0688 36.5877L32.0786 36.5945C32.1468 36.642 32.2167 36.6907 32.293 36.7116C32.4446 36.753 32.6019 36.7541 32.742 36.6519C32.7963 36.6125 32.8525 36.5753 32.9088 36.5382L32.9096 36.5376C33.0184 36.4657 33.1272 36.3939 33.2209 36.3062C33.5574 35.9916 33.9766 35.8216 34.4061 35.8124C34.8529 35.8021 35.2996 35.9548 35.6327 36.297C35.8704 36.5417 36.0978 36.7989 36.3057 37.0677C36.5756 37.4156 36.9155 37.5971 37.3542 37.5937L37.3774 37.5935C37.4123 37.5932 37.4482 37.5928 37.4829 37.5994C37.4996 37.6024 37.5154 37.6121 37.5314 37.6219C37.5396 37.6269 37.5479 37.6319 37.5564 37.6362C37.5482 37.641 37.5401 37.6462 37.5319 37.6514C37.5169 37.6609 37.5019 37.6705 37.4863 37.6786C37.1004 37.8865 36.4596 37.7889 36.1001 37.4535C35.9462 37.3104 35.8005 37.159 35.6547 37.0077C35.5819 36.932 35.509 36.8563 35.4352 36.7817C35.0447 36.3878 34.5807 36.2798 34.0811 36.5072C33.6332 36.7116 33.1957 36.9471 32.7788 37.2101C32.3458 37.4834 32.3814 37.8946 32.7788 38.2908C33.098 38.6089 33.4931 38.6698 33.8997 38.7077C34.0652 38.7233 34.2317 38.723 34.3986 38.7228C34.4897 38.7226 34.5814 38.7225 34.6726 38.7249C34.6921 38.7249 34.7311 38.7616 34.7277 38.7731C34.7185 38.8087 34.699 38.8662 34.6749 38.8696C34.5546 38.8907 34.4349 38.9161 34.3152 38.9415C33.9663 39.0155 33.6173 39.0896 33.2531 39.0579C32.6639 39.0074 32.2103 38.7536 31.891 38.2448C31.8394 38.1625 31.7917 38.0776 31.744 37.9927C31.626 37.7825 31.5077 37.5718 31.3294 37.3984C30.9895 37.0677 30.6024 36.993 30.1373 37.0458C29.787 37.0849 29.4861 37.2101 29.1806 37.3548C28.5823 37.6373 28.2079 38.1162 27.9885 38.726C27.7324 39.4369 28.0459 40.3971 28.6741 40.8392C29.0244 41.0861 29.4103 41.2297 29.8375 41.3032C30.0533 41.3402 30.2676 41.3556 30.4822 41.371C30.5337 41.3747 30.5853 41.3784 30.6369 41.3824C30.7598 41.3916 30.8907 41.4226 30.9998 41.4789C31.1291 41.5455 31.2552 41.6189 31.3812 41.6923C31.5485 41.7897 31.7156 41.8869 31.8898 41.9682C32.4491 42.2289 33.0222 42.454 33.6298 42.5849C33.8803 42.6384 34.1285 42.7016 34.3768 42.7649C34.4803 42.7912 34.5838 42.8176 34.6875 42.8433C34.7143 42.8502 34.7401 42.8591 34.7659 42.868C34.7788 42.8725 34.7916 42.877 34.8046 42.8812C34.7928 42.8858 34.7809 42.8918 34.769 42.8978C34.7453 42.9098 34.7216 42.9218 34.6978 42.9225C34.5412 42.9234 34.3845 42.9253 34.2278 42.9272C33.7687 42.9329 33.3091 42.9385 32.8511 42.9179C32.5318 42.903 32.2206 42.7893 31.9289 42.6446C31.7054 42.534 31.4818 42.4256 31.2278 42.4143ZM22.2983 41.5431L22.2967 41.5437L22.3036 41.5254C22.3079 41.5142 22.3122 41.503 22.3163 41.4915L22.3173 41.4927C22.3137 41.503 22.3098 41.5131 22.3059 41.5231L22.2983 41.5431ZM22.2983 41.5431L22.3162 41.5358L22.3453 41.5239L22.3461 41.5248C22.3354 41.5294 22.3249 41.5336 22.3145 41.5378L22.2977 41.5447L22.2983 41.5431ZM26.4231 40.8783C26.4266 40.9111 26.4211 40.9461 26.4155 40.9811C26.4026 41.0623 26.3897 41.1437 26.4898 41.1975C26.3863 41.1439 26.3994 41.0628 26.4124 40.9811C26.418 40.9454 26.4237 40.9098 26.4197 40.8765L26.4231 40.8783ZM26.4063 40.8432L26.4063 40.8389L26.3988 40.8278C26.3798 40.8001 26.3607 40.772 26.3439 40.7427C26.3424 40.7398 26.35 40.7321 26.358 40.7239C26.3616 40.7203 26.3652 40.7166 26.3681 40.7132L26.3669 40.7094C26.3636 40.7135 26.359 40.7182 26.3546 40.7227C26.3466 40.7309 26.339 40.7386 26.3405 40.7416C26.3605 40.7767 26.3832 40.8101 26.4063 40.8432ZM31.2143 42.4119L31.1982 42.4126C31.1776 42.4137 31.1569 42.4148 31.1376 42.4125C31.1004 42.408 31.0702 42.3904 31.0611 42.3337C31.0682 42.3337 31.0755 42.3333 31.0829 42.3328L31.0984 42.3315C31.1159 42.33 31.1334 42.3285 31.1496 42.3298C31.1815 42.3351 31.2067 42.3544 31.2143 42.4119Z" fill="#7E7E7E"/>
<path d="M37.3986 30.786L37.4071 30.7879L37.4002 30.7959L37.3986 30.786Z" fill="#7E7E7E"/>
<path d="M22.1058 43.5424L22.1105 43.5299L22.1095 43.5289L22.1178 43.5186L22.1193 43.5338L22.1207 43.535L22.122 43.5359L22.1196 43.5368L22.1199 43.5393L22.118 43.5374L22.1058 43.5424Z" fill="#7E7E7E"/>
<path d="M22.1058 43.5424L22.0998 43.5582L22.0877 43.5898C22.0785 43.5806 22.0693 43.5714 22.0601 43.5611L22.0723 43.5562L22.0912 43.5484L22.1058 43.5424Z" fill="#7E7E7E"/>
<path d="M38.2431 29.8404C38.3936 29.8289 38.6095 29.5739 38.6049 29.4132C38.6003 29.2489 38.335 28.9905 38.1777 28.9986C38.0146 29.0055 37.7573 29.2765 37.7665 29.4304C37.7792 29.621 38.0513 29.8565 38.2431 29.8404Z" fill="#7E7E7E"/>
<path d="M10.9511 28.9986C11.136 29.0032 11.376 29.2639 11.3737 29.4591C11.3726 29.6038 11.1176 29.8496 10.9775 29.8427C10.7329 29.8312 10.587 29.6589 10.5962 29.3902C10.6031 29.1766 10.7685 28.994 10.9511 28.9986Z" fill="#7E7E7E"/>
<path d="M13.9095 22.8819C14.1507 22.8841 14.3011 22.7314 14.2988 22.4891C14.2965 22.2651 14.1461 22.1032 13.9474 22.0997C13.7407 22.0975 13.5271 22.2743 13.5259 22.5258C13.5248 22.7268 13.689 22.8807 13.9095 22.8819Z" fill="#7E7E7E"/>
<path d="M35.9095 23.1414C35.7096 23.138 35.5155 22.9439 35.5328 22.7659C35.55 22.5947 35.7774 22.3593 35.9198 22.3639C36.1185 22.3719 36.378 22.6189 36.3711 22.7957C36.3643 22.976 36.138 23.1449 35.9095 23.1414Z" fill="#7E7E7E"/>
<path d="M23.7553 18.0939C23.7564 17.8504 23.6094 17.7046 23.3637 17.7046C23.1409 17.7046 22.9789 17.8527 22.9789 18.0572C22.9778 18.2616 23.165 18.4752 23.3533 18.4844C23.5692 18.4947 23.7541 18.3156 23.7553 18.0939Z" fill="#7E7E7E"/>
<path d="M17.6604 21.8471C17.8568 21.8551 18.0612 22.0825 18.0394 22.2686C18.013 22.4845 17.8579 22.6223 17.6443 22.6189C17.4364 22.6166 17.2906 22.4512 17.294 22.2238C17.2975 21.9975 17.4537 21.8379 17.6604 21.8471Z" fill="#7E7E7E"/>
<path d="M15.097 40.5085C15.2188 40.4947 15.414 40.2696 15.4037 40.1547C15.391 40.0135 15.1648 39.8228 15.0201 39.8309C14.8708 39.8401 14.7215 40.0204 14.7272 40.1846C14.733 40.3511 14.9328 40.5268 15.097 40.5085Z" fill="#7E7E7E"/>
<path d="M38.5314 27.6491C38.5337 27.8455 38.3752 28.0247 38.211 28.012C38.0479 27.9983 37.917 27.8409 37.9181 27.6583C37.9193 27.4332 38.002 27.3494 38.2213 27.3471C38.4464 27.3448 38.5291 27.4263 38.5314 27.6491Z" fill="#7E7E7E"/>
<path d="M34.4165 40.5096C34.5325 40.5027 34.7472 40.2765 34.7403 40.1674C34.7277 39.979 34.5508 39.8159 34.3751 39.832C34.2293 39.8447 34.0639 40.0387 34.0719 40.188C34.0777 40.3006 34.3074 40.5154 34.4165 40.5096Z" fill="#7E7E7E"/>
<path d="M10.742 33.4661C10.8959 33.4753 11.0441 33.6521 11.0383 33.8187C11.0315 33.9829 10.8569 34.1425 10.7064 34.1184C10.5445 34.0931 10.4228 33.9542 10.4262 33.7991C10.4308 33.6292 10.5939 33.4569 10.742 33.4661Z" fill="#7E7E7E"/>
<path d="M38.7933 34.1425C38.9311 34.1368 39.0517 33.9932 39.0551 33.8313C39.0597 33.6005 38.9759 33.481 38.8001 33.4718C38.6887 33.4649 38.4648 33.6648 38.4522 33.7831C38.4384 33.9163 38.6577 34.1483 38.7933 34.1425Z" fill="#7E7E7E"/>
<path d="M28.3767 24.5931C28.5386 24.585 28.7178 24.7515 28.7132 24.9031C28.7098 25.0352 28.5409 25.1926 28.3997 25.1983C28.2136 25.2052 28.1309 25.1168 28.1229 24.9054C28.1171 24.6953 28.1929 24.6011 28.3767 24.5931Z" fill="#7E7E7E"/>
<path d="M12.629 36.73C12.7679 36.7243 12.9322 36.5451 12.9184 36.4142C12.9035 36.2729 12.7208 36.1144 12.5945 36.1328C12.4578 36.1535 12.3017 36.3487 12.3269 36.4693C12.3522 36.5922 12.5164 36.7346 12.629 36.73Z" fill="#7E7E7E"/>
<path d="M34.2097 23.4021C34.3039 23.3952 34.475 23.564 34.4888 23.6777C34.506 23.8213 34.3705 23.9959 34.2385 24.0005C34.0995 24.005 33.9123 23.8661 33.8962 23.7478C33.8824 23.6479 34.0983 23.4101 34.2097 23.4021Z" fill="#7E7E7E"/>
<path d="M13.0068 25.861C12.9965 25.7013 12.8966 25.6163 12.7277 25.6232C12.5853 25.6301 12.4073 25.7909 12.4165 25.9069C12.4222 25.9942 12.6393 26.2135 12.7163 26.2101C12.8724 26.2032 13.0183 26.0275 13.0068 25.861Z" fill="#7E7E7E"/>
<path d="M19.2154 18.6509C19.3796 18.6601 19.4669 18.76 19.4589 18.93C19.4508 19.0977 19.3532 19.1861 19.1855 19.1804C19.0431 19.1758 18.8479 19.0069 18.8628 18.9001C18.8789 18.7853 19.0787 18.644 19.2154 18.6509Z" fill="#7E7E7E"/>
<path d="M30.8918 19.6041C30.8861 19.6972 31.0871 19.9269 31.1778 19.9292C31.2651 19.9315 31.4718 19.7121 31.473 19.6168C31.4741 19.5134 31.303 19.3503 31.1893 19.3469C31.0825 19.3434 30.8987 19.5019 30.8918 19.6041Z" fill="#7E7E7E"/>
<path d="M16.1214 25.2052C15.9538 25.2121 15.8539 25.1271 15.8447 24.9663C15.8332 24.7826 15.9331 24.6746 16.1157 24.6769C16.2822 24.678 16.3684 24.7665 16.3695 24.9365C16.3695 25.1041 16.2845 25.1972 16.1214 25.2052Z" fill="#7E7E7E"/>
<path d="M16.6233 28.1338C16.7933 28.1326 16.8783 28.0488 16.8817 27.8765C16.884 27.7042 16.8025 27.6158 16.6348 27.6066C16.4637 27.5986 16.3649 27.6801 16.3534 27.8421C16.3397 28.0304 16.4361 28.1349 16.6233 28.1338Z" fill="#7E7E7E"/>
<path d="M28.4869 17.5955C28.4801 17.7792 28.387 17.8906 28.2492 17.8814C28.108 17.8711 27.9495 17.6977 27.961 17.5668C27.9701 17.4588 28.1401 17.3072 28.2584 17.3003C28.3755 17.2946 28.4927 17.445 28.4869 17.5955Z" fill="#7E7E7E"/>
<path d="M37.4082 30.7982L37.4151 30.7913L37.4201 30.8026L37.4082 30.7982Z" fill="#7E7E7E"/>
<path d="M37.4201 30.8026C37.4379 30.8092 37.4556 30.8157 37.4725 30.8223C37.4674 30.8275 37.4625 30.8329 37.4576 30.8384C37.4527 30.8438 37.4478 30.8493 37.4427 30.8545L37.4288 30.8228L37.4201 30.8026Z" fill="#7E7E7E"/>
<path d="M77.9556 26.0228V37.7974H81.2212V26.0228H77.9556Z" fill="#7E7E7E"/>
<path d="M78.3466 24.0221C78.6941 24.3441 79.1106 24.505 79.5961 24.505C80.0816 24.505 80.4955 24.3441 80.8379 24.0221C81.1854 23.695 81.3592 23.3041 81.3592 22.8492C81.3592 22.3995 81.1854 22.0137 80.8379 21.6917C80.4955 21.3646 80.0816 21.2011 79.5961 21.2011C79.1106 21.2011 78.6941 21.3646 78.3466 21.6917C78.0042 22.0137 77.833 22.3995 77.833 22.8492C77.833 23.3041 78.0042 23.695 78.3466 24.0221Z" fill="#7E7E7E"/>
<path fill-rule="evenodd" clip-rule="evenodd" d="M61.1562 34.3172C60.7466 35.081 60.2419 35.7302 59.6421 36.2646L61.8921 39.0852H58.7951L57.5314 37.5323C56.6839 37.8521 55.7662 38.012 54.7783 38.012C53.3831 38.012 52.1311 37.6952 51.0221 37.0615C49.9131 36.4278 49.0367 35.5105 48.3928 34.3095C47.7488 33.1085 47.4269 31.6546 47.4269 29.9477C47.4269 28.2357 47.7488 26.7792 48.3928 25.5782C49.0367 24.3773 49.9131 23.4625 51.0221 22.8339C52.1311 22.2002 53.3831 21.8834 54.7783 21.8834C56.1632 21.8834 57.4102 22.2002 58.5192 22.8339C59.6333 23.4625 60.5123 24.3773 61.1562 25.5782C61.8052 26.7792 62.1297 28.2357 62.1297 29.9477C62.1297 31.6597 61.8052 33.1162 61.1562 34.3172ZM53.6284 32.3394H56.4494L57.6112 33.8339C57.8697 33.5283 58.088 33.1681 58.2662 32.7534C58.5984 31.9919 58.7645 31.0567 58.7645 29.9477C58.7645 28.8387 58.5984 27.9035 58.2662 27.142C57.9391 26.3806 57.4766 25.8031 56.8787 25.4096C56.2808 25.0161 55.5807 24.8193 54.7783 24.8193C53.976 24.8193 53.2758 25.0161 52.6779 25.4096C52.08 25.8031 51.6149 26.3806 51.2827 27.142C50.9557 27.9035 50.7921 28.8387 50.7921 29.9477C50.7921 31.0567 50.9557 31.9919 51.2827 32.7534C51.6149 33.5148 52.08 34.0923 52.6779 34.4858C53.2758 34.8793 53.976 35.0761 54.7783 35.0761C55.0802 35.0761 55.3676 35.0482 55.6405 34.9925L53.6284 32.3394Z" fill="#7E7E7E"/>
<path d="M72.0779 32.784V26.0228H75.3435V37.7974H72.2082V35.6587H72.0856C71.8198 36.3486 71.3778 36.9031 70.7594 37.3221C70.1462 37.7412 69.3975 37.9507 68.5134 37.9507C67.7263 37.9507 67.0339 37.7718 66.4359 37.4141C65.838 37.0564 65.3704 36.5479 65.0331 35.8886C64.7009 35.2294 64.5323 34.4398 64.5272 33.5199V26.0228H67.7928V32.9373C67.7979 33.6324 67.9844 34.1817 68.3524 34.5855C68.7203 34.9892 69.2135 35.191 69.8319 35.191C70.2254 35.191 70.5933 35.1016 70.9357 34.9227C71.2781 34.7388 71.5541 34.4679 71.7636 34.1102C71.9783 33.7524 72.083 33.3104 72.0779 32.784Z" fill="#7E7E7E"/>
<path d="M94.8144 26.0228L90.6979 37.7974H87.0184L82.9019 26.0228H86.3515L88.7969 34.4475H88.9195L91.3572 26.0228H94.8144Z" fill="#7E7E7E"/>
<path d="M96.4856 26.0228V37.7974H99.7512V31.1359C99.7512 30.6555 99.8585 30.2313 100.073 29.8634C100.293 29.4954 100.589 29.2092 100.962 29.0048C101.341 28.7953 101.77 28.6905 102.25 28.6905C102.475 28.6905 102.723 28.7084 102.994 28.7442C103.265 28.78 103.477 28.8208 103.63 28.8668V25.9692C103.487 25.9334 103.321 25.9053 103.132 25.8849C102.943 25.8644 102.766 25.8542 102.603 25.8542C101.944 25.8542 101.361 26.0433 100.855 26.4215C100.349 26.7945 99.9888 27.3465 99.7742 28.0773H99.6515V26.0228H96.4856Z" fill="#7E7E7E"/>
</svg>
