<svg xmlns="http://www.w3.org/2000/svg" width="100" height="60" fill="none" viewBox="0 0 100 60"><path fill="#7e7e7e" d="M10.983 38.903V21.829h7.561q1.586 0 2.878.732a5.25 5.25 0 0 1 2.025 1.927q.756 1.22.756 2.78 0 1.538-.756 2.805a5.37 5.37 0 0 1-2.025 1.976q-1.291.732-2.878.732H14.52v6.122zm9.683 0-4.341-7.708 3.756-.61 4.83 8.342zm-6.146-9.098h3.853q.66 0 1.147-.293a2.1 2.1 0 0 0 .78-.854q.27-.56.269-1.244 0-.73-.317-1.268a2.1 2.1 0 0 0-.927-.83Q18.715 25 17.91 25h-3.39zM32 39.147q-2.097 0-3.683-.854a6.26 6.26 0 0 1-2.439-2.342q-.854-1.488-.854-3.414 0-1.512.488-2.757.487-1.243 1.366-2.146a5.9 5.9 0 0 1 2.073-1.415 6.7 6.7 0 0 1 2.635-.512q1.316 0 2.439.488 1.122.487 1.927 1.366.829.853 1.268 2.049.44 1.17.39 2.536l-.024 1.074H27.22l-.561-2.122h8.073l-.39.439V31a2.15 2.15 0 0 0-.44-1.17 2.47 2.47 0 0 0-.95-.83 2.7 2.7 0 0 0-1.318-.317q-1.073 0-1.829.415a2.73 2.73 0 0 0-1.122 1.219q-.39.805-.39 1.951 0 1.17.488 2.025.512.853 1.415 1.341.925.465 2.17.464.855 0 1.561-.269.708-.267 1.513-.926l1.658 2.317q-.707.633-1.56 1.073a8.7 8.7 0 0 1-1.757.634 7.5 7.5 0 0 1-1.78.22M43.292 39.147q-1.804 0-3.22-.586-1.389-.61-2.244-1.658L40 35.049a4.4 4.4 0 0 0 1.659 1.17 5.3 5.3 0 0 0 1.854.342q.366 0 .658-.073a2 2 0 0 0 .537-.244q.22-.171.317-.39a1.1 1.1 0 0 0 .122-.512.94.94 0 0 0-.44-.83q-.243-.146-.755-.317-.512-.195-1.317-.414-1.245-.318-2.123-.732-.853-.44-1.365-.976a4.1 4.1 0 0 1-.683-1.097 4 4 0 0 1-.22-1.342q0-.878.39-1.585.39-.732 1.074-1.244a5.3 5.3 0 0 1 1.61-.78 6.1 6.1 0 0 1 1.902-.293q1 0 1.951.243a7 7 0 0 1 1.756.708 6 6 0 0 1 1.44 1.049l-1.854 2.048a6 6 0 0 0-1-.756 5 5 0 0 0-1.122-.536 3.4 3.4 0 0 0-1.05-.195q-.414 0-.755.073-.317.073-.537.244-.22.146-.341.366a1.19 1.19 0 0 0 .024 1q.147.243.39.414.27.147.78.342.538.195 1.44.439 1.17.317 1.976.707.83.39 1.317.903.415.439.61 1t.195 1.244q0 1.194-.683 2.122-.66.926-1.83 1.463t-2.634.537M55.81 39.147q-2.097 0-3.682-.854a6.26 6.26 0 0 1-2.44-2.342q-.853-1.488-.853-3.415 0-1.511.488-2.756.487-1.243 1.366-2.146a5.9 5.9 0 0 1 2.073-1.415 6.7 6.7 0 0 1 2.634-.512 6.05 6.05 0 0 1 2.44.488q1.121.487 1.926 1.366.83.853 1.269 2.049.438 1.17.39 2.536l-.025 1.073H51.03l-.56-2.122h8.073l-.39.44V31a2.15 2.15 0 0 0-.44-1.17 2.47 2.47 0 0 0-.95-.83 2.7 2.7 0 0 0-1.318-.317q-1.073 0-1.83.414a2.73 2.73 0 0 0-1.121 1.22q-.39.805-.39 1.951 0 1.17.487 2.025.513.854 1.415 1.341.927.465 2.17.464.855 0 1.562-.269.706-.268 1.512-.927l1.659 2.318q-.708.633-1.561 1.073a8.7 8.7 0 0 1-1.757.634 7.5 7.5 0 0 1-1.78.22M62.76 38.903V26h3.317l.098 2.634-.683.293a3.9 3.9 0 0 1 .951-1.586 5.4 5.4 0 0 1 1.683-1.17 4.9 4.9 0 0 1 2.05-.44q1.463 0 2.438.586 1 .586 1.488 1.78.512 1.172.512 2.903v7.903h-3.463v-7.635q0-.878-.244-1.463-.245-.585-.756-.854-.488-.268-1.22-.244-.585 0-1.097.195-.489.171-.854.513a3 3 0 0 0-.561.78q-.195.44-.195.951v7.757H62.76M81.764 39.147q-1.708 0-3.05-.854-1.316-.878-2.097-2.366-.756-1.512-.756-3.488 0-1.926.756-3.439.78-1.536 2.098-2.39 1.341-.879 3.048-.878.904 0 1.732.292.854.27 1.512.756.684.488 1.098 1.098.415.585.464 1.22l-.879.17v-8.415h3.488v18.05h-3.292l-.147-2.976.683.073a2.36 2.36 0 0 1-.439 1.171 4.2 4.2 0 0 1-1.049 1.024q-.633.44-1.463.708a5.9 5.9 0 0 1-1.708.244m.78-2.878q.976 0 1.707-.488a3.3 3.3 0 0 0 1.147-1.342q.414-.854.414-2 0-1.121-.414-1.976a3.3 3.3 0 0 0-1.147-1.341q-.73-.488-1.707-.488-.976 0-1.707.488-.708.487-1.122 1.342-.39.853-.39 1.975 0 1.146.39 2 .414.855 1.122 1.342.731.488 1.707.488"/></svg>