<svg width="114" height="59" viewBox="0 0 114 59" fill="none" xmlns="http://www.w3.org/2000/svg">
<g clip-path="url(#clip0_2080_14279)">
<path d="M11.3076 39.5651V19.4378H20.2212C21.4671 19.4378 22.5981 19.7253 23.6141 20.3004C24.63 20.8563 25.4256 21.6135 26.0006 22.5719C26.5948 23.5304 26.892 24.623 26.892 25.8498C26.892 27.0574 26.5948 28.1597 26.0006 29.1564C25.4256 30.1341 24.63 30.9104 23.6141 31.4855C22.5981 32.0605 21.4671 32.3481 20.2212 32.3481H15.4769V39.5651H11.3076ZM22.7227 39.5651L17.6046 30.4791L22.0326 29.7603L27.7258 39.5939L22.7227 39.5651ZM15.4769 28.8402H20.0199C20.5375 28.8402 20.9879 28.7251 21.3713 28.4951C21.7738 28.2459 22.0805 27.9105 22.2914 27.4887C22.5023 27.0479 22.6077 26.5591 22.6077 26.0223C22.6077 25.4473 22.4831 24.9489 22.2339 24.5272C21.9847 24.1054 21.6205 23.7796 21.1413 23.5495C20.6621 23.3003 20.1062 23.1757 19.4736 23.1757H15.4769V28.8402Z" fill="#7E7E7E"/>
<path d="M36.0842 39.8526C34.4356 39.8526 32.9883 39.5172 31.7423 38.8462C30.5155 38.1753 29.5572 37.2552 28.867 36.0859C28.1961 34.9167 27.8606 33.5747 27.8606 32.0605C27.8606 30.872 28.0524 29.7889 28.4357 28.8113C28.8191 27.8337 29.3558 26.9903 30.0459 26.281C30.7359 25.5526 31.5507 24.9967 32.49 24.6133C33.4484 24.2108 34.4835 24.0095 35.5954 24.0095C36.6305 24.0095 37.5889 24.2012 38.4707 24.5846C39.3525 24.968 40.1097 25.5047 40.7422 26.1948C41.3939 26.8657 41.8924 27.6708 42.2374 28.6101C42.5825 29.5302 42.7357 30.527 42.6975 31.6004L42.6687 32.8655H30.4485L29.7871 30.364H39.3046L38.8445 30.8816V30.249C38.8061 29.7314 38.6336 29.2714 38.3268 28.8688C38.0394 28.4471 37.6656 28.1213 37.2056 27.8912C36.7455 27.642 36.2278 27.5174 35.6528 27.5174C34.8094 27.5174 34.0906 27.6804 33.4963 28.0062C32.9212 28.3321 32.4804 28.8113 32.1736 29.4439C31.8669 30.0765 31.7135 30.8432 31.7135 31.7442C31.7135 32.6643 31.9053 33.4597 32.2888 34.1307C32.6913 34.8017 33.2471 35.3287 33.9565 35.7121C34.6848 36.0763 35.5377 36.2584 36.5154 36.2584C37.1863 36.2584 37.7998 36.1531 38.3557 35.9422C38.9115 35.7312 39.5057 35.3671 40.1384 34.8495L42.0937 37.5811C41.5377 38.0795 40.9243 38.5012 40.2534 38.8462C39.5825 39.1722 38.8924 39.4213 38.1831 39.5938C37.4739 39.7664 36.7743 39.8526 36.0842 39.8526Z" fill="#7E7E7E"/>
<path d="M49.3953 39.8525C47.9768 39.8525 46.7116 39.6225 45.5999 39.1625C44.5073 38.6833 43.6255 38.0315 42.9546 37.2072L45.5136 35.022C46.0887 35.6546 46.7404 36.1146 47.4689 36.4021C48.1973 36.6706 48.9257 36.8047 49.6541 36.8047C49.9417 36.8047 50.2004 36.7759 50.4305 36.7184C50.6796 36.6418 50.8905 36.5459 51.063 36.4309C51.2356 36.2968 51.3602 36.1434 51.4368 35.9708C51.5327 35.7792 51.5806 35.5779 51.5806 35.367C51.5806 34.9454 51.4081 34.6194 51.063 34.3894C50.8714 34.2744 50.5742 34.1497 50.1717 34.0156C49.7691 33.8622 49.2516 33.6993 48.619 33.5268C47.6414 33.2777 46.8075 32.9901 46.1175 32.6642C45.4465 32.3192 44.9098 31.9358 44.5073 31.5141C44.1622 31.1115 43.8938 30.6802 43.7022 30.2202C43.5297 29.741 43.4434 29.2138 43.4434 28.6387C43.4434 27.9487 43.5968 27.3257 43.9035 26.7698C44.2101 26.1947 44.6319 25.7059 45.1686 25.3034C45.7245 24.9008 46.3571 24.5941 47.0663 24.3832C47.7755 24.1532 48.5231 24.0382 49.3091 24.0382C50.0951 24.0382 50.8618 24.1341 51.6094 24.3257C52.3569 24.5174 53.047 24.7954 53.6796 25.1596C54.3313 25.5046 54.8969 25.9168 55.376 26.396L53.1908 28.8113C52.8457 28.4854 52.4528 28.1883 52.0119 27.9199C51.5902 27.6516 51.1493 27.4407 50.6892 27.2873C50.2292 27.134 49.817 27.0573 49.4529 27.0573C49.1269 27.0573 48.8299 27.0861 48.5615 27.1436C48.3123 27.2011 48.1014 27.2969 47.9289 27.4311C47.7564 27.5461 47.6223 27.6899 47.5264 27.8624C47.4497 28.0349 47.4114 28.2266 47.4114 28.4375C47.4114 28.6483 47.4592 28.8496 47.5551 29.0413C47.6701 29.233 47.8235 29.3959 48.0152 29.5301C48.2261 29.6451 48.5327 29.7793 48.9353 29.9326C49.357 30.086 49.9225 30.2585 50.6317 30.4502C51.5518 30.6994 52.3282 30.9774 52.9608 31.2841C53.6125 31.5908 54.13 31.9454 54.5134 32.3479C54.8394 32.693 55.0789 33.0859 55.2323 33.5268C55.3857 33.9677 55.4623 34.4565 55.4623 34.9932C55.4623 35.9325 55.1939 36.7663 54.6572 37.4948C54.1396 38.2232 53.4208 38.7983 52.5007 39.22C51.5806 39.6416 50.5455 39.8525 49.3953 39.8525Z" fill="#7E7E7E"/>
<path d="M64.1529 39.8524C62.5043 39.8524 61.0572 39.517 59.8111 38.8461C58.5844 38.1751 57.6259 37.255 56.9358 36.0857C56.2649 34.9165 55.9294 33.5746 55.9294 32.0603C55.9294 30.8718 56.1211 29.7888 56.5045 28.8112C56.8879 27.8335 57.4246 26.9901 58.1147 26.2809C58.8048 25.5524 59.6195 24.9965 60.5587 24.6132C61.5172 24.2106 62.5524 24.0093 63.6641 24.0093C64.6992 24.0093 65.6577 24.201 66.5394 24.5844C67.4212 24.9678 68.1784 25.5045 68.811 26.1946C69.4626 26.8655 69.9611 27.6706 70.3061 28.6099C70.6512 29.53 70.8046 30.5268 70.7662 31.6002L70.7374 32.8654H58.5172L57.8559 30.3638H67.3733L66.9132 30.8814V30.2488C66.8748 29.7313 66.7023 29.2712 66.3957 28.8687C66.1081 28.4469 65.7343 28.1211 65.2743 27.891C64.8142 27.6419 64.2967 27.5172 63.7216 27.5172C62.8781 27.5172 62.1593 27.6802 61.5651 28.0061C60.99 28.3319 60.5491 28.8112 60.2424 29.4437C59.9358 30.0763 59.7824 30.8431 59.7824 31.744C59.7824 32.6641 59.974 33.4595 60.3575 34.1305C60.76 34.8015 61.316 35.3285 62.0252 35.7119C62.7536 36.0761 63.6066 36.2583 64.5842 36.2583C65.2552 36.2583 65.8685 36.1529 66.4244 35.942C66.9804 35.7311 67.5746 35.3669 68.2071 34.8493L70.1624 37.5809C69.6064 38.0794 68.9931 38.501 68.3221 38.8461C67.6512 39.172 66.9611 39.4211 66.2519 39.5936C65.5427 39.7662 64.843 39.8524 64.1529 39.8524Z" fill="#7E7E7E"/>
<path d="M72.3452 39.5651V24.3546H76.2557L76.3707 27.46L75.5656 27.805C75.7765 27.1149 76.1503 26.492 76.687 25.9361C77.2429 25.361 77.9042 24.9009 78.671 24.5559C79.4378 24.2109 80.2429 24.0383 81.0862 24.0383C82.2364 24.0383 83.1949 24.2684 83.9616 24.7284C84.7475 25.1885 85.3322 25.8881 85.7155 26.8274C86.1181 27.7475 86.3193 28.8881 86.3193 30.2491V39.5651H82.2364V30.5653C82.2364 29.8753 82.1406 29.3002 81.9488 28.8401C81.7572 28.3801 81.46 28.0446 81.0575 27.8338C80.6742 27.6229 80.1949 27.5271 79.6198 27.5462C79.1598 27.5462 78.7285 27.6229 78.3259 27.7763C77.9426 27.9104 77.6071 28.1117 77.3195 28.3801C77.0513 28.6485 76.8307 28.9552 76.6582 29.3002C76.505 29.6452 76.4282 30.019 76.4282 30.4216V39.5651H74.4155C73.9747 39.5651 73.5816 39.5651 73.2366 39.5651C72.8915 39.5651 72.5945 39.5651 72.3452 39.5651Z" fill="#7E7E7E"/>
<path d="M94.7471 39.8527C93.4054 39.8527 92.2073 39.5173 91.153 38.8464C90.1178 38.1563 89.2936 37.2265 88.6802 36.0573C88.086 34.8688 87.7888 33.4982 87.7888 31.9456C87.7888 30.4312 88.086 29.0798 88.6802 27.8913C89.2936 26.6837 90.1178 25.7444 91.153 25.0735C92.2073 24.3834 93.4054 24.0384 94.7471 24.0384C95.4565 24.0384 96.1369 24.1534 96.7886 24.3834C97.4596 24.5943 98.0538 24.8914 98.5713 25.2748C99.1082 25.6582 99.5395 26.0895 99.8652 26.5687C100.191 27.0287 100.373 27.508 100.412 28.0064L99.3764 28.2076V18.2877H103.488V39.5652H99.6065L99.4339 36.0573L100.239 36.1435C100.201 36.6227 100.028 37.0828 99.7215 37.5237C99.4148 37.9646 99.0026 38.3672 98.4851 38.7313C97.9868 39.0764 97.4117 39.3543 96.7599 39.5652C96.1273 39.7568 95.4565 39.8527 94.7471 39.8527ZM95.6672 36.4598C96.4341 36.4598 97.1049 36.2682 97.68 35.8848C98.255 35.5013 98.7056 34.9743 99.0314 34.3033C99.3573 33.6324 99.5202 32.8465 99.5202 31.9456C99.5202 31.0638 99.3573 30.2875 99.0314 29.6165C98.7056 28.9456 98.255 28.4185 97.68 28.0351C97.1049 27.6517 96.4341 27.46 95.6672 27.46C94.9005 27.46 94.2296 27.6517 93.6545 28.0351C93.0987 28.4185 92.6578 28.9456 92.3319 29.6165C92.0252 30.2875 91.8718 31.0638 91.8718 31.9456C91.8718 32.8465 92.0252 33.6324 92.3319 34.3033C92.6578 34.9743 93.0987 35.5013 93.6545 35.8848C94.2296 36.2682 94.9005 36.4598 95.6672 36.4598Z" fill="#7E7E7E"/>
</g>
<defs>
<clipPath id="clip0_2080_14279">
<rect width="93.4484" height="23.0027" fill="white" transform="translate(10.1299 18)"/>
</clipPath>
</defs>
</svg>
