<svg xmlns="http://www.w3.org/2000/svg" width="94" height="35" viewBox="0 0 94 35" fill="none">
<path d="M31.3722 23.7463L28.4563 26.8189L26.1176 25.5447L26.1056 25.5352L22.4356 23.531L15.6921 19.8298L11.4153 17.5053L0 11.2556L2.91873 8.18295L5.25004 9.45622L8.93022 11.4709L15.6829 15.1711H15.6921L19.9496 17.5053H19.9597L31.3722 23.7463Z" fill="url(#paint0_linear_2650_91606)"/>
<path d="M18.1696 1.07429C17.503 0.381693 16.6283 0 15.6928 0H15.6827C14.7481 0 13.8725 0.38265 13.2059 1.07429L7.4375 7.15076L11.1177 9.16541L15.6827 4.34977L22.4363 11.4699L26.1063 9.46484L26.1165 9.45431L18.1696 1.07429Z" fill="url(#paint1_linear_2650_91606)"/>
<path d="M15.6828 30.6502L8.92921 23.5301L5.24902 25.5447L13.206 33.9257C13.8726 34.6183 14.7473 35 15.6828 35H15.6929C16.6275 35 17.5031 34.6173 18.1697 33.9257L23.9289 27.8492L20.2487 25.8346L15.6837 30.6502H15.6828Z" fill="url(#paint2_linear_2650_91606)"/>
<path d="M31.3722 23.7463L28.4563 26.819L26.1176 25.5457L26.1056 25.5361L22.4356 23.532L15.6921 19.8318L11.4153 17.5072L0 11.2556L2.91873 8.18296L5.25004 9.45623L8.93022 11.4709L15.6829 15.1711H15.6921L19.9496 17.5053H19.9588L31.3713 23.7453L31.3722 23.7463ZM18.1698 1.07525C17.5032 0.38265 16.6276 0 15.693 0H15.6829C14.7484 0 13.8727 0.38265 13.2061 1.07429L7.43771 7.15076L11.1179 9.16541L15.6829 4.34977L22.4365 11.4699L26.1066 9.46484L26.1167 9.45431L18.1698 1.07525ZM15.6829 30.6502L8.9293 23.5301L5.24912 25.5447L13.2061 33.9257C13.8727 34.6183 14.7474 35 15.6829 35H15.693C16.6276 35 17.5032 34.6174 18.1698 33.9257L23.929 27.8492L20.2488 25.8346L15.6838 30.6502H15.6829Z" fill="url(#paint3_linear_2650_91606)"/>
<path d="M48.0995 29C52.8187 29 56.1157 26.5289 56.1157 22.4738C56.1157 18.0702 52.3339 16.9298 48.5844 15.7576C45.2874 14.7438 44.0268 14.0152 44.0268 12.3044C44.0268 10.6253 45.4167 9.54821 47.5824 9.54821C50.1036 9.54821 51.5258 10.8788 52.3339 12.6529L55.4692 10.8788C54.047 7.93251 51.2995 6 47.5824 6C43.7683 6 40.3097 8.31267 40.3097 12.3994C40.3097 16.5813 43.7359 17.8485 47.2591 18.8939C50.6207 19.9077 52.3985 20.573 52.3985 22.5372C52.3985 24.1529 51.1379 25.4518 48.1965 25.4518C45.1258 25.4518 43.3804 23.9628 42.5723 21.7135L39.3723 23.551C40.5683 26.8457 43.639 29 48.0995 29Z" fill="black"/>
<path d="M71.6873 12.7479V14.9972C70.459 13.3499 68.552 12.3361 66.0308 12.3361C61.6348 12.3361 57.9823 15.9477 57.9823 20.668C57.9823 25.3568 61.6348 29 66.0308 29C68.552 29 70.459 27.9862 71.6873 26.3072V28.5882H75.1782V12.7479H71.6873ZM66.5803 25.7369C63.6712 25.7369 61.4732 23.6143 61.4732 20.668C61.4732 17.7218 63.6712 15.5992 66.5803 15.5992C69.4893 15.5992 71.6873 17.7218 71.6873 20.668C71.6873 23.6143 69.4893 25.7369 66.5803 25.7369Z" fill="black"/>
<path d="M89.5582 12.7479L85.0653 24.7865L80.5401 12.7479H76.7259L83.0289 28.5882H87.0693L93.3723 12.7479H89.5582Z" fill="black"/>
<defs>
<linearGradient id="paint0_linear_2650_91606" x1="19.1651" y1="0.106176" x2="11.7323" y2="34.5347" gradientUnits="userSpaceOnUse">
<stop stop-color="#008BE9"/>
<stop offset="1" stop-color="#00E998"/>
</linearGradient>
<linearGradient id="paint1_linear_2650_91606" x1="18.4467" y1="-0.0487881" x2="11.0139" y2="34.3797" gradientUnits="userSpaceOnUse">
<stop stop-color="#008BE9"/>
<stop offset="1" stop-color="#00E998"/>
</linearGradient>
<linearGradient id="paint2_linear_2650_91606" x1="19.8758" y1="0.260181" x2="12.443" y2="34.6887" gradientUnits="userSpaceOnUse">
<stop stop-color="#008BE9"/>
<stop offset="1" stop-color="#00E998"/>
</linearGradient>
<linearGradient id="paint3_linear_2650_91606" x1="15.6857" y1="-0.541464" x2="15.6857" y2="36.3718" gradientUnits="userSpaceOnUse">
<stop stop-color="#2E56BE"/>
<stop offset="1" stop-color="#1FDAED"/>
</linearGradient>
</defs>
</svg>