<svg xmlns="http://www.w3.org/2000/svg" width="134" height="60" fill="none" viewBox="0 0 134 60"><path fill="#7e7e7e" fill-rule="evenodd" d="m20.34 30.42 4.124-5.95a1.62 1.62 0 0 0 0-1.86 2.16 2.16 0 0 0-1.792-.93h-9.905a2.15 2.15 0 0 0-1.758.913 1.64 1.64 0 0 0 0 1.86l10.548 15.331H13.9l2.687-3.888-1.521-2.231-4.057 5.865a1.64 1.64 0 0 0 0 1.86 2.15 2.15 0 0 0 1.758.93h9.905a2.15 2.15 0 0 0 1.758-.93 1.64 1.64 0 0 0 0-1.86L13.9 24.233h7.674l-2.756 3.955zm16.227-3.854c1.86 0 3.296.27 4.31.828s1.64 1.47 1.893 2.772h-2.687a1.64 1.64 0 0 0-1.133-1.285 8 8 0 0 0-2.417-.287c-1.014 0-1.69.118-2.08.321-.388.203-.574.507-.574.845 0 .203.034.338.102.474.084.135.236.236.473.32s.575.17 1.031.22c.456.051 1.065.102 1.809.136q1.577.078 3.127.389c.794.202 1.403.507 1.775.946.371.423.557.98.557 1.69 0 1.1-.44 1.961-1.318 2.57-.879.625-2.265.93-4.124.93-.71 0-1.353-.034-1.91-.102a8.3 8.3 0 0 1-1.539-.321 4.23 4.23 0 0 1-2.062-1.285 5.1 5.1 0 0 1-1.014-2.248h2.738c.17.71.592 1.183 1.251 1.454.66.253 1.521.389 2.586.389.98 0 1.69-.102 2.164-.288.456-.186.693-.507.693-.93 0-.169-.034-.304-.085-.422a.7.7 0 0 0-.253-.287c-.254-.153-.676-.254-1.251-.305-.592-.067-1.437-.118-2.535-.169a16 16 0 0 1-2.705-.422 3.04 3.04 0 0 1-1.572-.947c-.338-.422-.507-1.014-.507-1.724a2.7 2.7 0 0 1 1.318-2.366 6.93 6.93 0 0 1 3.922-.896zm27.417 0c.625 0 1.217.05 1.758.169a7.5 7.5 0 0 1 1.555.456 4.99 4.99 0 0 1 3.127 4.8v.102c0 .554-.074 1.105-.22 1.64a4.5 4.5 0 0 1-.608 1.352 4.9 4.9 0 0 1-2.266 1.74 8.8 8.8 0 0 1-3.33.592q-.901.006-1.791-.135a7.7 7.7 0 0 1-1.572-.422 4.8 4.8 0 0 1-2.231-1.741 5.3 5.3 0 0 1-.795-3.043v-.068a4.92 4.92 0 0 1 3.094-4.817 8 8 0 0 1 3.279-.625m36.612.253v4.547c.005.753.131 1.501.372 2.215.236.54.591.93 1.065 1.149.857.346 1.795.44 2.704.27q.398-.073.761-.253c.456-.22.794-.609 1.014-1.15a5.75 5.75 0 0 0 .338-2.23v-4.548h2.654v4.615c0 .727-.068 1.369-.169 1.96a5.8 5.8 0 0 1-.524 1.522c-.457.879-1.116 1.521-1.978 1.91a9.2 9.2 0 0 1-4.817.44 7 7 0 0 1-1.454-.44 3.95 3.95 0 0 1-1.944-1.91c-.44-.88-.659-2.028-.659-3.482v-4.615zm-10.92-.253c1.742 0 3.144.304 4.226.93a4 4 0 0 1 2.012 2.94h-2.79c-.118-.557-.54-.98-1.064-1.267a4.94 4.94 0 0 0-2.282-.406 4.56 4.56 0 0 0-2.89.795c-.677.507-1.015 1.369-1.015 2.535v.017c.051 1.37.474 1.86.947 2.316 1.065.997 5.764 1.487 6.305-.846h-3.516v-2.01h6.322v1.757c0 1.352-1.319 4.057-5.714 4.057-.574 0-2.248.135-3.989-.676a5.07 5.07 0 0 1-2.975-4.615v-.068c0-.574.085-1.115.22-1.605.13-.48.336-.937.609-1.353.557-.811 1.335-1.436 2.298-1.859a8.05 8.05 0 0 1 3.313-.676zm24.544.253 6.491 7.015.101.135v-7.15h2.417V37.13h-2.417l-6.592-7.065-.085-.152v7.217h-2.434V26.82zm-32.167 0v2.08H78.03v8.231h-2.586v-8.232h-3.837V26.82zm-35.04 0v4.006h6.22V26.82h2.502V37.13h-2.502v-3.989h-6.22v3.99h-2.535V26.818zm16.988 1.944c-1.184 0-2.113.254-2.79.778q-1.013.76-1.014 2.535c0 1.099.338 1.893 1.015 2.4.676.508 1.605.761 2.772.761q.56.007 1.115-.068c.338-.05.66-.135.93-.236.575-.186 1.014-.507 1.318-.98.322-.457.474-1.082.474-1.86a4.4 4.4 0 0 0-.119-1.099 2.64 2.64 0 0 0-1.673-1.91c-.558-.22-1.234-.338-2.028-.338z" clip-rule="evenodd"/></svg>