<svg width="148" height="60" viewBox="0 0 148 60" fill="none" xmlns="http://www.w3.org/2000/svg">
<path d="M24.8232 10.698C29.2746 9.44855 32.8671 10.1513 34.9756 10.698C37.0843 11.2447 42.1601 12.103 46.2988 13.5867C50.4378 15.0705 51.375 17.5699 51.375 19.6003C51.375 21.6307 51.4531 32.4072 51.4531 36.3123C51.4531 40.217 50.9846 42.1701 49.1104 43.1853C47.2357 44.2007 38.4891 48.1047 35.7559 49.198C33.0226 50.2912 30.0549 50.1352 28.2588 49.5105C26.4616 48.8853 15.5291 44.9027 13.0303 43.9656C10.5316 43.0283 10.1406 40.2952 10.1406 37.0935V22.9587C10.1406 17.1017 11.3125 15.3832 13.5771 14.5242C15.8419 13.6651 20.3718 11.9475 24.8232 10.698ZM27.8975 35.5222C27.6274 35.5247 27.3569 35.5277 27.0869 35.532C27.0339 35.638 26.9831 35.7415 26.9316 35.8445C26.868 36.4176 26.8831 36.7023 27.1846 37.2009C27.9608 37.9567 28.6385 38.0827 29.6855 38.0925C30.1402 38.0159 30.3548 37.8879 30.6797 37.5623C30.788 37.1391 30.754 36.741 30.6797 36.3123C30.4534 35.9616 30.3091 35.8772 29.918 35.7468L29.5859 35.6882C29.167 35.5923 28.7841 35.5309 28.3535 35.5164C28.1986 35.5182 28.0479 35.5204 27.8975 35.5222ZM19.2783 34.282C19.2783 34.7506 19.2784 34.7508 19.5322 35.0535C19.6582 35.1629 19.7801 35.2695 19.9023 35.3757C20.3549 35.783 20.6857 35.9836 21.2949 36.0505C22.2818 36.0673 22.9182 36.0388 23.6904 35.3953C23.9638 35.0634 23.9639 35.063 23.9639 34.4382L23.7783 34.6335L23.4951 34.907L23.1924 35.2488C22.6594 35.5642 22.388 35.5854 21.7773 35.6003C20.8085 35.5991 20.3119 35.3053 19.6191 34.6433C19.5031 34.5206 19.391 34.4011 19.2783 34.282ZM27.3857 28.4353C26.0365 28.4353 24.9424 29.8853 24.9424 31.6736C24.9425 33.4617 26.0366 34.9119 27.3857 34.9119C28.7348 34.9116 29.828 33.4616 29.8281 31.6736C29.8281 29.8854 28.7348 28.4356 27.3857 28.4353ZM14.124 32.0955C13.5053 32.0071 13.0472 31.9828 12.7178 32.5642C12.7343 33.3251 12.9747 33.7431 13.499 34.282C14.1395 34.7943 14.8751 34.9389 15.6855 34.907C16.1541 34.5946 16.1546 34.5944 16.2168 34.3015C16.2156 34.1887 16.2141 34.079 16.2129 33.9695C16.2141 33.8567 16.2156 33.7469 16.2168 33.6375C16.1546 33.3449 16.1538 33.3451 15.6855 33.033C15.37 32.939 15.0571 32.834 14.748 32.7205C14.5463 32.5061 14.3388 32.2968 14.124 32.0955ZM16.4717 25.9705C15.1227 25.9708 14.0294 27.4207 14.0293 29.2087C14.0294 30.9967 15.1227 32.4457 16.4717 32.446C17.8209 32.446 18.9149 30.9969 18.915 29.2087C18.915 27.4205 17.8209 25.9705 16.4717 25.9705ZM27.0645 29.3513C27.515 29.3515 27.8807 29.7915 27.8809 30.3347C27.8807 30.878 27.515 31.3189 27.0645 31.3191C26.6137 31.3191 26.2482 30.8781 26.248 30.3347C26.2482 29.7913 26.6138 29.3513 27.0645 29.3513ZM28.6309 30.4744C28.8641 30.4744 29.0537 30.664 29.0537 30.8972C29.0534 31.1302 28.8639 31.3191 28.6309 31.3191C28.3979 31.319 28.2093 31.1301 28.209 30.8972C28.209 30.664 28.3977 30.4745 28.6309 30.4744ZM16.1514 26.8865C16.6018 26.8867 16.9666 27.3267 16.9668 27.8699C16.9668 28.4132 16.602 28.854 16.1514 28.8542C15.7006 28.8542 15.335 28.4134 15.335 27.8699C15.3352 27.3266 15.7007 26.8865 16.1514 26.8865ZM17.7178 28.0095C17.951 28.0095 18.1405 28.1992 18.1406 28.4324C18.1404 28.6655 17.9509 28.8542 17.7178 28.8542C17.4847 28.8542 17.2961 28.6654 17.2959 28.4324C17.296 28.1992 17.4846 28.0096 17.7178 28.0095Z" fill="#7E7E7E"/>
<path d="M70.2531 41.384C68.7385 41.384 67.4265 41.1493 66.3171 40.68C65.2291 40.1893 64.3651 39.528 63.7251 38.696C63.1065 37.864 62.7545 36.9253 62.6691 35.88H67.4371C67.5225 36.2427 67.6718 36.5733 67.8851 36.872C68.1198 37.1493 68.4291 37.3733 68.8131 37.544C69.2185 37.6933 69.6665 37.768 70.1571 37.768C70.6905 37.768 71.1171 37.704 71.4371 37.576C71.7785 37.4267 72.0345 37.2347 72.2051 37C72.3758 36.7653 72.4611 36.52 72.4611 36.264C72.4611 35.8587 72.3331 35.5493 72.0771 35.336C71.8425 35.1227 71.4905 34.952 71.0211 34.824C70.5518 34.6747 69.9865 34.536 69.3251 34.408C68.5571 34.2373 67.7891 34.0453 67.0211 33.832C66.2745 33.5973 65.6025 33.3093 65.0051 32.968C64.4291 32.6267 63.9598 32.1893 63.5971 31.656C63.2558 31.1013 63.0851 30.4293 63.0851 29.64C63.0851 28.68 63.3518 27.816 63.8851 27.048C64.4185 26.2587 65.1865 25.64 66.1891 25.192C67.1918 24.7227 68.4078 24.488 69.8371 24.488C71.8638 24.488 73.4531 24.936 74.6051 25.832C75.7571 26.728 76.4398 27.9333 76.6531 29.448H72.1731C72.0451 29.0213 71.7785 28.7013 71.3731 28.488C70.9678 28.2533 70.4558 28.136 69.8371 28.136C69.1331 28.136 68.5998 28.2533 68.2371 28.488C67.8745 28.7227 67.6931 29.032 67.6931 29.416C67.6931 29.672 67.8105 29.9067 68.0451 30.12C68.3011 30.312 68.6638 30.4827 69.1331 30.632C69.6025 30.7813 70.1785 30.9307 70.8611 31.08C72.1625 31.3573 73.2825 31.656 74.2211 31.976C75.1811 32.296 75.9278 32.7653 76.4611 33.384C76.9945 33.9813 77.2505 34.856 77.2291 36.008C77.2505 37.0533 76.9731 37.9813 76.3971 38.792C75.8425 39.6027 75.0425 40.2427 73.9971 40.712C72.9518 41.16 71.7038 41.384 70.2531 41.384ZM86.4784 41.384C84.921 41.384 83.5237 41.0213 82.2864 40.296C81.049 39.5707 80.0677 38.5787 79.3424 37.32C78.617 36.04 78.2544 34.5893 78.2544 32.968C78.2544 31.304 78.617 29.8427 79.3424 28.584C80.0677 27.304 81.049 26.3013 82.2864 25.576C83.545 24.8507 84.9424 24.488 86.4784 24.488C88.057 24.488 89.465 24.8507 90.7024 25.576C91.9397 26.3013 92.921 27.304 93.6464 28.584C94.3717 29.8427 94.7344 31.2933 94.7344 32.936C94.7344 34.5787 94.3717 36.04 93.6464 37.32C92.921 38.5787 91.9397 39.5707 90.7024 40.296C89.465 41.0213 88.057 41.384 86.4784 41.384ZM86.4784 37.224C87.1184 37.224 87.6837 37.064 88.1744 36.744C88.6864 36.424 89.0917 35.944 89.3904 35.304C89.689 34.664 89.8384 33.8747 89.8384 32.936C89.8384 31.9973 89.689 31.208 89.3904 30.568C89.0917 29.928 88.697 29.448 88.2064 29.128C87.7157 28.808 87.1504 28.648 86.5104 28.648C85.8704 28.648 85.2944 28.808 84.7824 29.128C84.2917 29.448 83.897 29.928 83.5984 30.568C83.2997 31.208 83.1504 31.9973 83.1504 32.936C83.1504 33.8747 83.2997 34.664 83.5984 35.304C83.897 35.944 84.2917 36.424 84.7824 36.744C85.2944 37.064 85.8597 37.224 86.4784 37.224ZM103.062 41.384C101.547 41.384 100.235 41.1493 99.1259 40.68C98.0379 40.1893 97.1739 39.528 96.5339 38.696C95.9152 37.864 95.5632 36.9253 95.4779 35.88H100.246C100.331 36.2427 100.481 36.5733 100.694 36.872C100.929 37.1493 101.238 37.3733 101.622 37.544C102.027 37.6933 102.475 37.768 102.966 37.768C103.499 37.768 103.926 37.704 104.246 37.576C104.587 37.4267 104.843 37.2347 105.014 37C105.185 36.7653 105.27 36.52 105.27 36.264C105.27 35.8587 105.142 35.5493 104.886 35.336C104.651 35.1227 104.299 34.952 103.83 34.824C103.361 34.6747 102.795 34.536 102.134 34.408C101.366 34.2373 100.598 34.0453 99.8299 33.832C99.0832 33.5973 98.4112 33.3093 97.8139 32.968C97.2379 32.6267 96.7685 32.1893 96.4059 31.656C96.0645 31.1013 95.8939 30.4293 95.8939 29.64C95.8939 28.68 96.1605 27.816 96.6939 27.048C97.2272 26.2587 97.9952 25.64 98.9979 25.192C100.001 24.7227 101.217 24.488 102.646 24.488C104.673 24.488 106.262 24.936 107.414 25.832C108.566 26.728 109.249 27.9333 109.462 29.448H104.982C104.854 29.0213 104.587 28.7013 104.182 28.488C103.777 28.2533 103.265 28.136 102.646 28.136C101.942 28.136 101.409 28.2533 101.046 28.488C100.683 28.7227 100.502 29.032 100.502 29.416C100.502 29.672 100.619 29.9067 100.854 30.12C101.11 30.312 101.473 30.4827 101.942 30.632C102.411 30.7813 102.987 30.9307 103.67 31.08C104.971 31.3573 106.091 31.656 107.03 31.976C107.99 32.296 108.737 32.7653 109.27 33.384C109.803 33.9813 110.059 34.856 110.038 36.008C110.059 37.0533 109.782 37.9813 109.206 38.792C108.651 39.6027 107.851 40.2427 106.806 40.712C105.761 41.16 104.513 41.384 103.062 41.384ZM111.543 41V17.96H116.343V27.176C116.855 26.3653 117.548 25.7147 118.423 25.224C119.298 24.7333 120.322 24.488 121.495 24.488C122.86 24.488 124.002 24.776 124.919 25.352C125.836 25.928 126.53 26.7707 126.999 27.88C127.468 28.968 127.703 30.2907 127.703 31.848V41H122.935V32.296C122.935 31.1013 122.679 30.1733 122.167 29.512C121.676 28.8507 120.887 28.52 119.799 28.52C119.159 28.52 118.572 28.68 118.039 29C117.506 29.32 117.09 29.7787 116.791 30.376C116.492 30.952 116.343 31.6453 116.343 32.456V41H111.543ZM129.683 41V24.872H134.483V41H129.683ZM132.083 23.016C131.23 23.016 130.537 22.7707 130.003 22.28C129.47 21.7893 129.203 21.1707 129.203 20.424C129.203 19.656 129.47 19.0267 130.003 18.536C130.537 18.0453 131.23 17.8 132.083 17.8C132.958 17.8 133.662 18.0453 134.195 18.536C134.75 19.0267 135.027 19.656 135.027 20.424C135.027 21.1707 134.75 21.7893 134.195 22.28C133.662 22.7707 132.958 23.016 132.083 23.016Z" fill="#7E7E7E"/>
</svg>
