<svg xmlns="http://www.w3.org/2000/svg" width="156" height="60" fill="none"><path fill="#7e7e7e" d="M34.73 31.72c-.593.597-1.352.903-2.196 1.038-.95.15-1.877.03-2.797-.17-.44-.093-.865-.255-1.335-.398l.793-1.323c.375.16.725.321 1.08.462.69.273 1.407.42 2.154.391 1.218-.045 2.089-.628 2.634-1.689.33-.642.456-1.328.39-2.043-.018-.198-.092-.391-.134-.588-.027-.127.102-.24.318-.3.147-.042.193.05.221.156.459 1.692.123 3.203-1.127 4.463l-.002.001Zm1.59-16.22H16.572c-2.667 0-4.848 2.148-4.848 4.774v7.361q.64-.066 1.28-.092c.835-.032 1.671-.069 2.503-.035 1.013.043 2.027.137 3.036.244.767.083 1.536.187 2.29.343 1.097.227 2.19.476 3.268.777.865.242 1.705.57 2.554.869.144.05.236.04.329-.087.897-1.227 2.838-3.913 2.838-3.913l-2.495-.305 2.258-2.38-.606-3.04 2.904 1.371 2.799-1.502-.455 3.099 2.407 2.196-3.25.538-1.336 2.933-1.187-2.2s-7.445 11.378-8.618 13.174c-.519.794-.526.8-1.039 1.6-.08.124-.137.155-.282.053-.49-.348-.994-.676-1.495-1.011-.177-.12-.187-.176-.064-.342.968-1.314 6.246-8.43 6.277-8.49-.241-.055-.463-.123-.69-.158-.882-.14-1.764-.297-2.651-.394-.82-.089-1.648-.13-2.473-.155a27 27 0 0 0-2.254.011c-.726.037-1.45.12-2.17.211a35 35 0 0 0-1.973.323q-.649.123-1.28.305c-.467.132-.927.282-1.387.435q-.386.129-.762.279c.533.307.965.742 1.262 1.253a3.4 3.4 0 0 1 .462 1.705v4.476c0 2.626 2.18 4.774 4.848 4.774H36.32c2.665 0 4.846-2.148 4.846-4.774V20.274c0-2.626-2.18-4.774-4.846-4.774m10.846 17.984 1.578-2.283c.98 1.036 2.677 2.048 4.445 2.048.932 0 1.483-.283 1.483-.894 0-.61-.67-.847-1.913-1.153l-1.578-.377c-2.102-.542-3.633-1.366-3.633-3.39 0-2.26 1.864-3.601 4.732-3.601 2.533 0 4.374 1.082 5.186 2.095l-1.53 2.26c-1.147-1.178-2.58-1.814-3.943-1.814-.836 0-1.338.305-1.338.871 0 .613.502.848 2.056 1.272l1.315.353c2.58.683 3.704 1.67 3.704 3.436 0 2.237-1.912 3.508-4.636 3.508s-4.924-.941-5.928-2.33Zm11.758-1.389v-8.051h3.417v6.874c0 1.412.383 2.283 1.96 2.283s2.126-.894 2.126-2.777v-6.38h3.418v11.535h-3.418v-3.225c-.406 1.836-1.53 3.46-3.896 3.46-2.222 0-3.609-1.342-3.609-3.72h.002Zm13.095 3.484V19.808h3.417v7.533c.334-1.86 1.29-3.531 3.729-3.531 2.724 0 4.516 2.19 4.516 6.003s-1.792 6.026-4.66 6.026c-2.439 0-3.275-1.647-3.585-3.506v3.249h-3.418zm5.64-2.378c1.553 0 2.532-1.177 2.532-3.39s-.98-3.39-2.533-3.39c-1.433 0-2.222.894-2.222 2.778v1.247c0 1.884.789 2.754 2.222 2.754v.001Zm7.575 2.378V24.044h3.417v3.32c.359-1.884 1.41-3.555 3.823-3.555 2.151 0 3.346 1.341 3.346 3.578.359-1.906 1.41-3.578 3.823-3.578 2.151 0 3.346 1.341 3.346 3.719v8.05h-3.417v-6.873c0-1.506-.478-2.284-1.864-2.284s-1.888.894-1.888 2.778v6.38h-3.417v-6.874c0-1.506-.478-2.284-1.864-2.284s-1.888.894-1.888 2.778v6.38zm19.332-2.566c0-1.742 1.123-2.755 3.346-3.509l3.584-1.317c-.12-.966-.573-1.507-1.864-1.507-1.482 0-2.844.824-3.657 1.978l-1.721-2.448a7.7 7.7 0 0 1 5.617-2.401c2.963 0 4.684 1.554 4.684 4.448v3.955c0 .518.191.682.622.682h.693v2.684h-2.008c-1.267 0-2.414-.565-2.414-2.214v-.777c-.383 1.507-1.41 3.25-3.801 3.25-1.816 0-3.083-.966-3.083-2.824zm4.349.353c1.625 0 2.533-.8 2.533-2.213v-.801l-2.486 1.012c-.932.377-1.243.705-1.243 1.153 0 .542.383.847 1.194.847zm10.609-1.671c-.167.259-.31.612-.31.942 0 .542.287.847 1.219.847h4.111c2.605 0 3.776 1.059 3.776 2.754 0 2.165-2.127 3.954-6.788 3.954-3.608 0-5.497-1.059-5.497-2.424 0-1.107 1.171-1.671 2.582-1.836-.981-.21-1.745-.729-1.745-1.741 0-1.177 1.052-2.143 2.175-2.754-1.219-.73-1.935-1.93-1.935-3.414 0-2.494 2.055-4.213 5.114-4.213.693 0 1.339.094 1.935.259l.526-2.777 3.036 1.012-2.27 2.331c1.195.753 1.912 1.93 1.912 3.39 0 2.494-2.079 4.213-5.138 4.213-1.028 0-1.935-.188-2.7-.542zm5.856 4.944c0-.518-.43-.683-1.339-.683h-4.947c-.144.165-.31.4-.31.683 0 .753.836 1.2 3.036 1.2 2.365 0 3.56-.447 3.56-1.2m-1.219-8.616c0-1.295-.836-1.953-1.935-1.953s-1.936.658-1.936 1.953c0 1.296.861 1.954 1.936 1.954s1.935-.658 1.935-1.954m5.328-5.343v-2.872h3.417v2.872zm0 12.899V24.044h3.417v11.535zm5.041-5.768c0-3.506 2.271-6.002 5.88-6.002 2.796 0 4.732 1.506 5.448 3.484l-2.844 1.624c-.287-1.436-1.052-2.307-2.485-2.307-1.505 0-2.51 1.083-2.51 3.201s1.003 3.202 2.51 3.202 2.199-.872 2.485-2.308l2.844 1.625c-.716 1.978-2.652 3.484-5.448 3.484-3.609 0-5.88-2.472-5.88-6.003"/></svg>