<svg width="85" height="60" viewBox="0 0 85 60" fill="none" xmlns="http://www.w3.org/2000/svg">
<path d="M40.8491 26.2257C39.7163 25.3395 38.1718 24.8311 36.4908 24.8311C31.7567 24.8311 28.3586 28.5065 28.3586 33.4436C28.3586 38.3808 31.7543 42.0562 36.4908 42.0562C38.2054 42.0562 39.7835 41.4765 40.9519 40.5238V41.7141H46.0981V17.0001L40.8491 18.2964V26.2257ZM37.4176 37.3568C35.2552 37.3568 33.6771 35.7221 33.6771 33.4412C33.6771 31.1604 35.2552 29.5258 37.4511 29.5258C39.647 29.5258 41.1555 31.1248 41.1555 33.4412C41.1555 35.7578 39.647 37.3568 37.4151 37.3568H37.4176Z" fill="#7E7E7E"/>
<path d="M54.4648 24.6497L49.2158 25.946V41.7115H54.4648V24.6497Z" fill="#7E7E7E"/>
<path d="M51.8568 17.1686C50.2093 17.1686 49.0095 18.4279 49.0095 20.0292C49.0095 21.6306 50.2093 22.8898 51.8568 22.8898C53.5042 22.8898 54.6704 21.6306 54.6704 20.0292C54.6704 18.4279 53.5042 17.1686 51.8568 17.1686Z" fill="#7E7E7E"/>
<path d="M65.5877 24.7953C60.3723 24.7953 56.4619 28.5065 56.4619 33.408C56.4619 38.3094 60.4082 42.0894 65.5877 42.0894C70.7674 42.0894 74.7136 38.3451 74.7136 33.408C74.7136 28.4708 70.7674 24.7953 65.5877 24.7953ZM65.5877 37.3567C63.3583 37.3567 61.8139 35.7577 61.8139 33.4412C61.8139 31.1247 63.3583 29.5257 65.5877 29.5257C67.8171 29.5257 69.3616 31.0914 69.3616 33.4056C69.3616 35.7197 67.8531 37.3542 65.5877 37.3542V37.3567Z" fill="#7E7E7E"/>
<path d="M21.3135 34.7002C21.3135 36.4371 20.3533 37.4586 18.7752 37.4586H15.4826V25.1682H10.2336V32.2484L15.4826 37.4586H10.2336L15.4826 42.6666V37.4586L20.0635 42.0037C23.9572 41.4977 26.5625 38.6728 26.5625 34.7359V25.1682H21.3135V34.7002Z" fill="#7E7E7E"/>
</svg>
