<?xml version="1.0" encoding="UTF-8"?>
<svg id="Layer_2" xmlns="http://www.w3.org/2000/svg" viewBox="0 0 547.42 88.98">
  <defs>
    <style>
      .cls-1 {
        fill: #004750;
      }
    </style>
  </defs>
  <g id="Layer_1-2" data-name="Layer_1">
    <g>
      <path class="cls-1" d="M66.21,66.21l14.02,4.74c5.49-7.4,8.75-16.56,8.75-26.46C88.98,19.96,69.02,0,44.49,0S0,19.96,0,44.49s19.96,44.49,44.49,44.49c9.9,0,19.06-3.25,26.46-8.75l-4.74-14.02ZM44.49,68.12c-13.03,0-23.64-10.6-23.64-23.63s10.6-23.63,23.64-23.63,23.63,10.6,23.63,23.63-10.6,23.63-23.63,23.63Z"/>
      <circle class="cls-1" cx="82.07" cy="82.07" r="3.94"/>
    </g>
    <g>
      <path class="cls-1" d="M152.62,62.16h-5.72l-7.25-25.09h-.14l-7.32,25.09h-5.72l-13.94-38.68h9.9l7.04,23.63h.14l6.34-23.63h7.39l6.27,23.63h.14l7.11-23.63h9.9l-14.15,38.68Z"/>
      <path class="cls-1" d="M209.5,46.96h-30.04c.21,1.05.7,1.95,1.25,2.79,2.09,3.21,5.58,5.16,9.41,5.16s7.04-1.53,8.92-4.95h9.76c-2.51,7.88-10.46,13.45-18.68,13.45-11.57,0-20.42-8.99-20.42-20.49s8.64-20.77,20.35-20.77,20,8.92,20,20.14c0,1.53-.21,3.14-.56,4.67ZM190.12,30.65c-5.65,0-9.62,3.35-10.94,8.85h21.4c-.91-5.58-4.81-8.85-10.46-8.85Z"/>
      <path class="cls-1" d="M254.67,57.84c0,7.11-2.3,11.64-5.58,14.78-3.69,3.62-9.13,5.79-14.22,5.79-9.34,0-16.17-5.37-18.54-12.13h5.92c.91,1.6,2.23,3.42,4.46,4.95,2.72,1.95,5.92,2.72,8.29,2.72,7.18,0,14.5-5.58,14.5-14.92v-4.81c-2.65,5.3-7.88,8.99-15.12,8.99-11.71,0-19.59-8.92-19.59-19.73s8.16-19.87,19.59-19.87c7.39,0,13.1,4.18,15.19,8.78v-7.74h5.09v33.18ZM219.95,43.41c0,7.6,5.37,14.99,15.06,14.99,4.25,0,7.88-1.6,10.53-4.32,2.58-2.72,4.11-6.48,4.18-10.59,0-3.14-1.05-6.83-3.42-9.83-2.3-3-6.06-5.23-11.43-5.23-8.22,0-14.92,6.13-14.92,14.92v.07Z"/>
      <path class="cls-1" d="M266.93,44.87c.28,9.41,8.29,13.94,14.64,13.87,5.79,0,10.46-2.86,12.9-7.74h5.37c-1.74,4.04-4.39,7.11-7.6,9.13-3.14,2.02-6.83,3.07-10.67,3.07-13.03,0-19.79-10.39-19.79-19.73,0-11.01,8.5-19.87,19.73-19.87,5.3,0,10.18,1.88,13.73,5.3,4.32,4.18,6.41,9.97,5.85,15.96h-34.15ZM296,40.76c-.35-6.55-6.69-12.96-14.43-12.76-8.08,0-14.08,5.92-14.57,12.76h29Z"/>
      <path class="cls-1" d="M311.34,28.77h-7.39v-4.11h7.39v-14.08h5.09v14.08h8.22v4.11h-8.22v33.39h-5.09V28.77Z"/>
      <path class="cls-1" d="M359.85,62.16v-4.74h-.14c-2.58,4.11-7.6,6-12.34,6-11.29,0-19.73-9.55-19.73-20.56,0-8.29,4.46-15.61,12.13-19.03,2.37-1.05,4.95-1.67,7.6-1.67,4.74,0,8.43,1.25,11.71,4.74V10.58h9.27v51.58h-8.5ZM348.35,30.65c-6.27,0-11.43,5.72-11.43,11.85s4.67,12.41,11.43,12.41,11.43-5.79,11.43-12.13-4.88-12.13-11.43-12.13Z"/>
      <path class="cls-1" d="M413.24,46.96h-30.04c.21,1.05.7,1.95,1.25,2.79,2.09,3.21,5.58,5.16,9.41,5.16s7.04-1.53,8.92-4.95h9.76c-2.51,7.88-10.46,13.45-18.68,13.45-11.57,0-20.42-8.99-20.42-20.49s8.64-20.77,20.35-20.77,20,8.92,20,20.14c0,1.53-.21,3.14-.56,4.67ZM393.87,30.65c-5.65,0-9.62,3.35-10.94,8.85h21.4c-.91-5.58-4.81-8.85-10.46-8.85Z"/>
      <path class="cls-1" d="M431.72,63.41c-4.32,0-8.85-1.67-11.57-5.09-2.02-2.58-2.65-5.16-2.93-8.36h9.48c.63,2.79,1.88,4.95,5.09,4.95,2.23,0,4.18-1.53,4.18-3.9,0-.7-.14-1.39-.56-2.02-1.25-1.74-6.2-3.07-8.16-3.76-5.16-1.81-8.64-5.37-8.64-11.08,0-7.04,6.2-11.99,12.96-11.99s12.34,5.09,12.62,11.85h-9.06c-.42-2.02-1.6-3.35-3.69-3.35-1.95,0-3.55,1.39-3.55,3.35s1.6,2.58,3.21,3.21c1.12.42,2.23.77,3.35,1.12,5.99,1.88,10.8,4.39,10.8,11.57,0,7.67-5.86,13.52-13.52,13.52Z"/>
      <path class="cls-1" d="M450.26,19.08v-8.5h9.27v8.5h-9.27ZM450.26,62.16V23.47h9.27v38.68h-9.27Z"/>
      <path class="cls-1" d="M494.31,76.1c-2.72,1.18-5.79,1.81-8.71,1.81-8.57,0-16.31-4.74-19.45-12.83h10.59c2.58,3,5.65,4.32,9.55,4.32,6.9,0,11.5-5.37,11.85-12.06l-.14-.14c-3,4.25-7.53,6.2-12.69,6.2-2.65,0-5.3-.63-7.67-1.74-7.67-3.48-12.13-10.94-12.13-19.24,0-10.87,8.64-20.28,19.73-20.28,4.95,0,9.55,1.88,12.34,6.06h.14v-4.74h8.99v31.58c0,9.27-3.56,17.36-12.41,21.05ZM486.08,30.65c-6.55,0-11.29,5.51-11.29,11.85s4.74,12.41,11.57,12.41,11.08-6.13,11.08-12.48-5.09-11.78-11.36-11.78Z"/>
      <path class="cls-1" d="M538.15,62.16v-19.1c0-5.37-.91-12.41-7.81-12.41-2.44,0-4.95,1.39-6.34,3.42-1.67,2.44-1.67,6.83-1.67,9.69v18.4h-9.27V23.47h8.57v3.35c3.07-3,6.13-4.67,10.59-4.67s8.92,2.09,11.64,5.37c3,3.62,3.55,8.64,3.55,13.17v21.47h-9.27Z"/>
    </g>
  </g>
</svg>