<svg width="570" height="527" viewBox="0 0 570 527" fill="none" xmlns="http://www.w3.org/2000/svg">
<g clip-path="url(#clip0_1709_1536)">
<path fill-rule="evenodd" clip-rule="evenodd" d="M27.0027 21.0027L30.7733 24.7733L44.2293 38.2293L48 42L51.7707 38.2293L65.2267 24.7733L68.9973 21.0027L65.2267 17.2267L51.7707 3.77067L48 0L44.2293 3.77067L30.7733 17.2267L27.0027 21.0027ZM61.456 21.0027L48 34.4533L34.544 20.9973L48 7.54133L61.456 21.0027ZM27.0027 74.9973L30.7733 78.7733L44.2293 92.2293L48 96L51.7707 92.2293L65.2267 78.7733L68.9973 75.0027L65.2267 71.2267L51.7707 57.7707L48 54L44.2293 57.7707L30.7733 71.2267L27.0027 74.9973ZM61.456 74.9973L48 88.464L34.544 75.008L48 61.536L61.456 74.9973ZM3.77067 51.7707L0 48L3.77067 44.2293L17.2267 30.7733L21.0027 27.0027L24.7733 30.7733L38.2293 44.2293L42 48L38.2293 51.7707L24.7733 65.2267L21.0027 68.9973L17.2267 65.2267L3.77067 51.7707ZM20.9973 61.456L34.464 48L20.9973 34.544L7.54133 48L20.9973 61.456ZM54 48L57.7707 51.7707L71.2267 65.2267L74.9973 68.9973L78.7733 65.2267L92.2293 51.7707L96 48L92.2293 44.2293L78.7733 30.7733L75.0027 27.0027L71.2267 30.7733L57.7707 44.2293L54 48ZM88.4533 48L74.9973 61.456L61.5467 48L75.008 34.544L88.4533 48Z" fill="#525252"/>
</g>
<g clip-path="url(#clip1_1709_1536)">
<path fill-rule="evenodd" clip-rule="evenodd" d="M254 48L206 0L158 48L206 96L254 48Z" fill="#525252"/>
</g>
<g clip-path="url(#clip2_1709_1536)">
<path fill-rule="evenodd" clip-rule="evenodd" d="M412 48L364 0L316 48L364 96L412 48ZM323.541 48L364 7.54133L404.459 48L364 88.4587L323.541 48Z" fill="#525252"/>
</g>
<g clip-path="url(#clip3_1709_1536)">
<path fill-rule="evenodd" clip-rule="evenodd" d="M501.003 21.0027L504.773 24.7733L518.229 38.2293L522 42L525.771 38.2293L539.227 24.7733L542.997 21.0027L539.227 17.2267L525.771 3.77067L522 0L518.229 3.77067L504.773 17.2267L501.003 21.0027ZM501.003 74.9973L504.773 78.7733L518.229 92.2293L522 96L525.771 92.2293L539.227 78.7733L542.997 75.0027L539.227 71.2267L525.771 57.7707L522 54L518.229 57.7707L504.773 71.2267L501.003 74.9973ZM477.771 51.7707L474 48L477.771 44.2293L491.227 30.7733L495.003 27.0027L498.773 30.7733L512.229 44.2293L516 48L512.229 51.7707L498.773 65.2267L495.003 68.9973L491.227 65.2267L477.771 51.7707ZM528 48L531.771 51.7707L545.227 65.2267L548.997 68.9973L552.773 65.2267L566.229 51.7707L570 48L566.229 44.2293L552.773 30.7733L549.003 27.0027L545.227 30.7733L531.771 44.2293L528 48Z" fill="#525252"/>
</g>
<g clip-path="url(#clip4_1709_1536)">
<path fill-rule="evenodd" clip-rule="evenodd" d="M96 195L48 147L0 195L48 243L96 195Z" fill="#525252"/>
</g>
<g clip-path="url(#clip5_1709_1536)">
<path fill-rule="evenodd" clip-rule="evenodd" d="M254 195L206 147L158 195L206 243L254 195ZM165.541 195L206 154.541L246.459 195L206 235.459L165.541 195Z" fill="#525252"/>
</g>
<g clip-path="url(#clip6_1709_1536)">
<path fill-rule="evenodd" clip-rule="evenodd" d="M343.003 168.003L346.773 171.773L360.229 185.229L364 189L367.771 185.229L381.227 171.773L384.997 168.003L381.227 164.227L367.771 150.771L364 147L360.229 150.771L346.773 164.227L343.003 168.003ZM377.456 168.003L364 181.453L350.544 167.997L364 154.541L377.456 168.003ZM343.003 221.997L346.773 225.773L360.229 239.229L364 243L367.771 239.229L381.227 225.773L384.997 222.003L381.227 218.227L367.771 204.771L364 201L360.229 204.771L346.773 218.227L343.003 221.997ZM377.456 221.997L364 235.464L350.544 222.008L364 208.536L377.456 221.997ZM319.771 198.771L316 195L319.771 191.229L333.227 177.773L337.003 174.003L340.773 177.773L354.229 191.229L358 195L354.229 198.771L340.773 212.227L337.003 215.997L333.227 212.227L319.771 198.771ZM336.997 208.456L350.464 195L336.997 181.544L323.541 195L336.997 208.456ZM370 195L373.771 198.771L387.227 212.227L390.997 215.997L394.773 212.227L408.229 198.771L412 195L408.229 191.229L394.773 177.773L391.003 174.003L387.227 177.773L373.771 191.229L370 195ZM404.453 195L390.997 208.456L377.547 195L391.008 181.544L404.453 195Z" fill="#525252"/>
</g>
<g clip-path="url(#clip7_1709_1536)">
<path fill-rule="evenodd" clip-rule="evenodd" d="M501.003 168.003L504.773 171.773L518.229 185.229L522 189L525.771 185.229L539.227 171.773L542.997 168.003L539.227 164.227L525.771 150.771L522 147L518.229 150.771L504.773 164.227L501.003 168.003ZM501.003 221.997L504.773 225.773L518.229 239.229L522 243L525.771 239.229L539.227 225.773L542.997 222.003L539.227 218.227L525.771 204.771L522 201L518.229 204.771L504.773 218.227L501.003 221.997ZM477.771 198.771L474 195L477.771 191.229L491.227 177.773L495.003 174.003L498.773 177.773L512.229 191.229L516 195L512.229 198.771L498.773 212.227L495.003 215.997L491.227 212.227L477.771 198.771ZM528 195L531.771 198.771L545.227 212.227L548.997 215.997L552.773 212.227L566.229 198.771L570 195L566.229 191.229L552.773 177.773L549.003 174.003L545.227 177.773L531.771 191.229L528 195Z" fill="#525252"/>
</g>
<g clip-path="url(#clip8_1709_1536)">
<path fill-rule="evenodd" clip-rule="evenodd" d="M96 342L48 294L0 342L48 390L96 342ZM7.54133 342L48 301.541L88.4587 342L48 382.459L7.54133 342Z" fill="#525252"/>
</g>
<g clip-path="url(#clip9_1709_1536)">
<path fill-rule="evenodd" clip-rule="evenodd" d="M185.003 315.003L188.773 318.773L202.229 332.229L206 336L209.771 332.229L223.227 318.773L226.997 315.003L223.227 311.227L209.771 297.771L206 294L202.229 297.771L188.773 311.227L185.003 315.003ZM185.003 368.997L188.773 372.773L202.229 386.229L206 390L209.771 386.229L223.227 372.773L226.997 369.003L223.227 365.227L209.771 351.771L206 348L202.229 351.771L188.773 365.227L185.003 368.997ZM161.771 345.771L158 342L161.771 338.229L175.227 324.773L179.003 321.003L182.773 324.773L196.229 338.229L200 342L196.229 345.771L182.773 359.227L179.003 362.997L175.227 359.227L161.771 345.771ZM212 342L215.771 345.771L229.227 359.227L232.997 362.997L236.773 359.227L250.229 345.771L254 342L250.229 338.229L236.773 324.773L233.003 321.003L229.227 324.773L215.771 338.229L212 342Z" fill="#525252"/>
</g>
<g clip-path="url(#clip10_1709_1536)">
<path fill-rule="evenodd" clip-rule="evenodd" d="M412 342L364 294L316 342L364 390L412 342Z" fill="#525252"/>
</g>
<g clip-path="url(#clip11_1709_1536)">
<path fill-rule="evenodd" clip-rule="evenodd" d="M501.003 315.003L504.773 318.773L518.229 332.229L522 336L525.771 332.229L539.227 318.773L542.997 315.003L539.227 311.227L525.771 297.771L522 294L518.229 297.771L504.773 311.227L501.003 315.003ZM535.456 315.003L522 328.453L508.544 314.997L522 301.541L535.456 315.003ZM501.003 368.997L504.773 372.773L518.229 386.229L522 390L525.771 386.229L539.227 372.773L542.997 369.003L539.227 365.227L525.771 351.771L522 348L518.229 351.771L504.773 365.227L501.003 368.997ZM535.456 368.997L522 382.464L508.544 369.008L522 355.536L535.456 368.997ZM477.771 345.771L474 342L477.771 338.229L491.227 324.773L495.003 321.003L498.773 324.773L512.229 338.229L516 342L512.229 345.771L498.773 359.227L495.003 362.997L491.227 359.227L477.771 345.771ZM494.997 355.456L508.464 342L494.997 328.544L481.541 342L494.997 355.456ZM528 342L531.771 345.771L545.227 359.227L548.997 362.997L552.773 359.227L566.229 345.771L570 342L566.229 338.229L552.773 324.773L549.003 321.003L545.227 324.773L531.771 338.229L528 342ZM562.453 342L548.997 355.456L535.547 342L549.008 328.544L562.453 342Z" fill="#525252"/>
</g>
<g clip-path="url(#clip12_1709_1536)">
<path fill-rule="evenodd" clip-rule="evenodd" d="M96 479L48 431L0 479L48 527L96 479ZM7.54133 479L48 438.541L88.4587 479L48 519.459L7.54133 479Z" fill="#525252"/>
</g>
<g clip-path="url(#clip13_1709_1536)">
<path fill-rule="evenodd" clip-rule="evenodd" d="M185.003 452.003L188.773 455.773L202.229 469.229L206 473L209.771 469.229L223.227 455.773L226.997 452.003L223.227 448.227L209.771 434.771L206 431L202.229 434.771L188.773 448.227L185.003 452.003ZM219.456 452.003L206 465.453L192.544 451.997L206 438.541L219.456 452.003ZM185.003 505.997L188.773 509.773L202.229 523.229L206 527L209.771 523.229L223.227 509.773L226.997 506.003L223.227 502.227L209.771 488.771L206 485L202.229 488.771L188.773 502.227L185.003 505.997ZM219.456 505.997L206 519.464L192.544 506.008L206 492.536L219.456 505.997ZM161.771 482.771L158 479L161.771 475.229L175.227 461.773L179.003 458.003L182.773 461.773L196.229 475.229L200 479L196.229 482.771L182.773 496.227L179.003 499.997L175.227 496.227L161.771 482.771ZM178.997 492.456L192.464 479L178.997 465.544L165.541 479L178.997 492.456ZM212 479L215.771 482.771L229.227 496.227L232.997 499.997L236.773 496.227L250.229 482.771L254 479L250.229 475.229L236.773 461.773L233.003 458.003L229.227 461.773L215.771 475.229L212 479ZM246.453 479L232.997 492.456L219.547 479L233.008 465.544L246.453 479Z" fill="#525252"/>
</g>
<g clip-path="url(#clip14_1709_1536)">
<path fill-rule="evenodd" clip-rule="evenodd" d="M412 479L364 431L316 479L364 527L412 479Z" fill="#525252"/>
</g>
<g clip-path="url(#clip15_1709_1536)">
<path fill-rule="evenodd" clip-rule="evenodd" d="M501.003 452.003L504.773 455.773L518.229 469.229L522 473L525.771 469.229L539.227 455.773L542.997 452.003L539.227 448.227L525.771 434.771L522 431L518.229 434.771L504.773 448.227L501.003 452.003ZM501.003 505.997L504.773 509.773L518.229 523.229L522 527L525.771 523.229L539.227 509.773L542.997 506.003L539.227 502.227L525.771 488.771L522 485L518.229 488.771L504.773 502.227L501.003 505.997ZM477.771 482.771L474 479L477.771 475.229L491.227 461.773L495.003 458.003L498.773 461.773L512.229 475.229L516 479L512.229 482.771L498.773 496.227L495.003 499.997L491.227 496.227L477.771 482.771ZM528 479L531.771 482.771L545.227 496.227L548.997 499.997L552.773 496.227L566.229 482.771L570 479L566.229 475.229L552.773 461.773L549.003 458.003L545.227 461.773L531.771 475.229L528 479Z" fill="#525252"/>
</g>
<defs>
<clipPath id="clip0_1709_1536">
<rect width="96" height="96" fill="white"/>
</clipPath>
<clipPath id="clip1_1709_1536">
<rect width="96" height="96" fill="white" transform="translate(158)"/>
</clipPath>
<clipPath id="clip2_1709_1536">
<rect width="96" height="96" fill="white" transform="translate(316)"/>
</clipPath>
<clipPath id="clip3_1709_1536">
<rect width="96" height="96" fill="white" transform="translate(474)"/>
</clipPath>
<clipPath id="clip4_1709_1536">
<rect width="96" height="96" fill="white" transform="translate(0 147)"/>
</clipPath>
<clipPath id="clip5_1709_1536">
<rect width="96" height="96" fill="white" transform="translate(158 147)"/>
</clipPath>
<clipPath id="clip6_1709_1536">
<rect width="96" height="96" fill="white" transform="translate(316 147)"/>
</clipPath>
<clipPath id="clip7_1709_1536">
<rect width="96" height="96" fill="white" transform="translate(474 147)"/>
</clipPath>
<clipPath id="clip8_1709_1536">
<rect width="96" height="96" fill="white" transform="translate(0 294)"/>
</clipPath>
<clipPath id="clip9_1709_1536">
<rect width="96" height="96" fill="white" transform="translate(158 294)"/>
</clipPath>
<clipPath id="clip10_1709_1536">
<rect width="96" height="96" fill="white" transform="translate(316 294)"/>
</clipPath>
<clipPath id="clip11_1709_1536">
<rect width="96" height="96" fill="white" transform="translate(474 294)"/>
</clipPath>
<clipPath id="clip12_1709_1536">
<rect width="96" height="96" fill="white" transform="translate(0 431)"/>
</clipPath>
<clipPath id="clip13_1709_1536">
<rect width="96" height="96" fill="white" transform="translate(158 431)"/>
</clipPath>
<clipPath id="clip14_1709_1536">
<rect width="96" height="96" fill="white" transform="translate(316 431)"/>
</clipPath>
<clipPath id="clip15_1709_1536">
<rect width="96" height="96" fill="white" transform="translate(474 431)"/>
</clipPath>
</defs>
</svg>
