<svg xmlns="http://www.w3.org/2000/svg" width="137" height="27" fill="none" viewBox="0 0 137 27"><path fill="#b4b4b4" fill-rule="evenodd" d="M13.603 26.137c7.112 0 12.877-5.765 12.877-12.877S20.715.383 13.603.383.726 6.148.726 13.26s5.765 12.877 12.877 12.877m2.465-19.74v7.396a.75.75 0 0 1-.219.529l-.888.888a.15.15 0 0 0 0 .211l.889.889c.14.14.218.33.218.528v3.483a.747.747 0 0 1-.747.747h-3.436a.747.747 0 0 1-.747-.747v-7.357c0-.198.079-.388.219-.528l.869-.869a.15.15 0 0 0 0-.211l-.87-.87a.75.75 0 0 1-.218-.528v-3.56c0-.413.335-.747.747-.747h3.436c.413 0 .747.334.747.747" clip-rule="evenodd"/><path fill="#b4b4b4" d="M85.107 9.43c1.06 0 2.04-.02 3.02.02.1 0 .26.26.3.42l1.56 7.5c.06.28.12.54.22.96.1-.26.16-.36.18-.48.64-2.64 1.28-5.28 1.9-7.94.08-.38.22-.52.62-.5.82.02 1.62.02 2.44 0 .36-.02.48.12.56.46.68 2.68 1.38 5.36 2.06 8.04.04.12.08.24.18.5.3-1.42.56-2.68.84-3.96.32-1.52.64-3.06.94-4.58.079-.36.239-.48.599-.46.88.02 1.76 0 2.7 0-.06.32-.1.58-.16.82-.86 3.52-1.74 7.04-2.6 10.56-.1.4-.26.52-.66.52-1.24-.02-2.5-.02-3.76-.02-.62-2.64-1.24-5.26-1.84-7.86-.04 0-.06-.02-.1-.02-.62 2.62-1.24 5.24-1.88 7.86h-4.16c-1.02-3.92-1.98-7.84-2.96-11.84M133.125 5.01v5.66c-.3-.24-.58-.5-.86-.72-1.92-1.48-5.12-.96-6.62 1.14s-1.66 4.4-.9 6.8c.56 1.8 1.74 3.1 3.62 3.58 1.78.46 3.78-.04 4.64-1.7.02-.04.08-.06.22-.18v1.7h3.16V5.01zm-.12 10.28c.02 1.08-.18 1.98-.86 2.76-.84.96-2.94 1-3.72-.36-.86-1.52-.88-3.1-.02-4.6.88-1.54 3.12-1.52 4.06 0 .44.7.58 1.48.54 2.2M50.049 6.79a5.34 5.34 0 0 0-3.22-1.04c-2.08-.02-4.16-.02-6.24-.02-.12 0-.22.02-.36.04v15.52h3.42v-.56c0-1.34.02-2.7 0-4.04 0-.34.1-.46.46-.46 1 0 2 0 3-.08 3.02-.24 4.82-2.16 4.9-5.16.02-1.72-.56-3.16-1.96-4.2m-3.98 6.42c-.66 0-1.32-.02-2 0-.32 0-.44-.1-.44-.44.02-.62 0-1.22 0-1.84 0-.6.02-1.2 0-1.8 0-.3.08-.46.42-.44.84.04 1.7.02 2.54.06 1 .06 1.7.72 1.82 1.72.24 1.72-.62 2.72-2.34 2.74M63.315 21.29c-.06-2.82-.06-5.6-.22-8.36-.08-1.3-.84-2.36-2-3.06-1.82-1.1-5.12-1.08-6.94.7-.64.64-1.14 1.36-1.36 2.28.84.2 1.64.36 2.4.6.44.12.74.12.92-.4.08-.24.3-.48.5-.66.58-.52 1.26-.64 2-.42.68.22 1.04.74 1.18 1.42.2.92.02 1.14-.92 1.14-.84 0-1.7-.02-2.54 0-.52.02-1.04.06-1.54.18-2.46.58-3.4 3.66-1.7 5.54 1.68 1.84 4.96 1.84 6.64-.04.1-.1.12-.26.18-.38.06.06.14.1.2.16v1.32h3.2zm-5.5-2.28c-.34.04-.7.04-1.04 0-.68-.1-1.1-.6-1.08-1.22.02-.64.42-1.12 1.14-1.14 1-.04 1.98 0 3 0 .2 1.08-.7 2.18-2.02 2.36M109.298 9.13c-3.42-.06-6.06 2.56-6.12 6.06-.06 3.52 2.46 6.28 5.74 6.42 3.48.14 6.42-2.32 6.44-6.2.02-3.66-2.62-6.28-6.06-6.28m2 8.4c-1.12 1.66-3.38 1.52-4.22-.3-.26-.56-.34-1.22-.52-1.86.18-.64.26-1.3.52-1.88.36-.84 1.06-1.36 1.98-1.46.96-.08 1.7.34 2.24 1.14.78 1.18.78 3.2 0 4.36M74.114 12.63c-.94.18-1.88.34-2.8.5-.08.02-.24-.18-.3-.3-.56-1.12-1.7-1.6-2.9-1.18-.44.16-.76.42-.8.92-.06.52.24.84.68.98 1.08.34 2.18.58 3.24.94.7.24 1.44.52 2 .96 1.22.98 1.36 2.8.48 4.14-.72 1.08-1.74 1.66-3 1.88-1.92.34-3.78.2-5.44-.94-.76-.52-1.2-1.26-1.38-2.22.9-.22 1.76-.44 2.62-.64.1-.02.32.1.36.22.68 1.36 2.4 1.44 3.36 1.12.44-.14.78-.44.78-.98.02-.54-.36-.74-.76-.86-.98-.28-1.98-.54-2.96-.82-.36-.1-.72-.24-1.08-.38-1.22-.5-2-1.34-2.08-2.72-.08-1.34.36-2.44 1.5-3.22 1-.7 2.14-.88 3.32-.9 1.46 0 2.86.24 3.96 1.3.6.6 1 1.3 1.2 2.2M74.815 18.29c.88-.22 1.72-.44 2.56-.62.12-.02.36.08.42.18.64 1.26 2.16 1.46 3.26 1.16.56-.14.88-.54.9-1 .02-.56-.38-.76-.8-.88-.98-.3-1.98-.54-2.98-.8-.36-.1-.72-.24-1.08-.38-1.2-.5-1.96-1.34-2.06-2.68-.08-1.32.34-2.42 1.44-3.2 1-.72 2.16-.92 3.36-.92 1.46 0 2.84.24 3.96 1.3.6.56 1.02 1.32 1.22 2.2-.74.14-1.5.24-2.22.42-.5.12-.76.04-1.02-.48-.52-1.02-1.92-1.38-2.96-.86-.36.18-.58.48-.58.9s.22.72.58.84c.84.28 1.72.5 2.56.78.74.24 1.52.42 2.2.78 1.68.9 2.12 2.94 1.06 4.54-.7 1.08-1.74 1.66-2.98 1.88-1.92.34-3.78.2-5.44-.94-.76-.5-1.2-1.24-1.4-2.22M33.51 21.27V9.65h-2.28V6.91c.48-.08.98-.14 1.46-.26.6-.14 1.1-.44 1.48-.94.08-.1.2-.22.3-.22.82-.02 1.66 0 2.52 0v15.78zM119.681 9.47v1.9c.04 0 .06.02.1.02.14-.22.26-.46.4-.68.76-1.22 2.26-1.84 3.62-1.52.36.08.58.2.46.68-.2.76-.34 1.52-.4 2.3-.04.5-.28.46-.64.46-.6-.02-1.22 0-1.82.1-.76.12-1.2.64-1.32 1.38-.08.46-.1.92-.1 1.38-.02 1.74 0 3.5 0 5.24v.58h-3.38V9.49c.98-.02 1.98-.02 3.08-.02"/></svg>