<svg xmlns="http://www.w3.org/2000/svg" width="171" height="36" fill="none" viewBox="0 0 171 36"><g fill-rule="evenodd" clip-path="url(#a)" clip-rule="evenodd"><path fill="#a0a0a0" d="M34.853 18.018c0 9.43-7.644 17.075-17.074 17.075S.705 27.448.705 18.018 8.35.944 17.78.944 34.853 8.59 34.853 18.018m-20.911-6.834a.114.114 0 0 0-.17.1v13.482a.114.114 0 0 0 .113.113q.03 0 .057-.015l11.676-6.741a.115.115 0 0 0 0-.197zm2.037-1.043c-.104 0-.142.14-.051.193h-.002l9.366 5.408c.093.054.196-.049.142-.14l-3.049-5.305a.31.31 0 0 0-.268-.156zm-4.13 13.313c.054.093.194.055.194-.051V12.628c0-.106-.14-.142-.194-.051L8.812 17.86a.31.31 0 0 0 0 .31zm13.434-3.142c.092-.053.195.05.142.14l-.002.002-3.04 5.284a.31.31 0 0 1-.268.156h-6.114c-.105 0-.142-.14-.051-.193zm3.24-2.81c.183.32.183.71 0 1.03l-4.929 8.57a1.03 1.03 0 0 1-.895.52h-9.85a1.04 1.04 0 0 1-.895-.52l-4.929-8.57a1.03 1.03 0 0 1 0-1.03l4.929-8.572c.183-.321.526-.519.895-.519h9.85a1.03 1.03 0 0 1 .895.52z"/><path fill="#b4b4b4" d="M44.117 21.113c0-2.256 1.666-4.05 4.039-4.05s4.039 1.794 4.039 4.05-1.694 4.077-4.04 4.077c-2.344 0-4.038-1.82-4.038-4.077m4.745 6.875c3.842 0 6.469-3.043 6.469-6.875s-2.627-6.848-6.47-6.848c-1.863 0-3.7.842-4.66 2.337V8.64h-3.136v19.02h2.967v-2.336c.903 1.712 2.881 2.662 4.83 2.662zm10.599-8.425c.481-1.74 1.779-2.827 3.7-2.827 1.92 0 3.278 1.087 3.73 2.827zm3.927 8.504c2.769 0 5.199-1.167 6.414-3.777v-.055c-.849.055-2.119-.517-2.628-1.195l-.027.027c-.509 1.36-1.864 2.365-3.7 2.365-2.203 0-3.87-1.386-4.154-3.64h10.593c.51-4.103-2.203-7.61-6.696-7.61-3.984 0-6.865 3.099-6.865 6.929s2.939 6.956 7.063 6.956m7.165-10.786h1.836v10.38h3.166V17.28h2.005v-2.718h-2.005v-4.187h-3.166v4.187h-1.836zm10.717 3.832c0-2.256 1.667-4.05 4.04-4.05 2.372 0 4.068 1.821 4.068 4.05s-1.666 4.077-4.068 4.077c-2.403 0-4.04-1.82-4.04-4.077m3.363 6.848c1.836 0 3.842-.898 4.745-2.582v2.282h3.052V14.563h-3.052v2.282c-.903-1.684-2.909-2.582-4.745-2.582-3.87 0-6.499 3.043-6.499 6.848s2.627 6.848 6.5 6.848zm14.978.108c3.108 0 5.226-1.901 5.226-4.374 0-2.474-1.978-3.56-4.069-3.969l-1.272-.244c-1.13-.245-1.978-.544-1.978-1.412 0-.762.734-1.468 1.893-1.468 1.273 0 2.261.625 2.57 1.957h.028c.536-.625 1.809-1.115 2.655-1.006l.027-.028c-.509-1.848-2.345-3.368-5.199-3.368s-5.029 1.848-5.029 4.076c0 2.012 1.357 3.207 4.096 3.777l1.328.272c1.045.245 1.864.57 1.864 1.523s-.734 1.712-2.119 1.712c-1.694 0-2.909-1.087-3.136-2.446l-.027-.027c-.537.625-1.809 1.087-2.655.978l-.027.028c.508 2.445 2.769 4.021 5.82 4.021zm6.751-.408h3.136v-7.446c0-1.9 1.357-3.151 3.22-3.151s3.052 1.195 3.052 3.043v7.554h3.135v-8.668c0-2.771-2.203-4.755-5.114-4.755-1.723 0-3.418.76-4.293 2.309V8.64h-3.136zm17.182-6.548c0-2.256 1.667-4.05 4.04-4.05 2.372 0 4.068 1.821 4.068 4.05s-1.666 4.077-4.068 4.077c-2.403 0-4.04-1.82-4.04-4.077m3.363 6.848c1.836 0 3.842-.898 4.745-2.582v2.282h3.051V14.563h-3.051v2.282c-.903-1.684-2.909-2.582-4.745-2.582-3.87 0-6.499 3.043-6.499 6.848s2.627 6.848 6.499 6.848zm10.26-9.81v9.51h3.136v-5.814c0-2.282.706-4.403 2.994-4.403.678 0 1.272.164 1.581.409h.028c.028-.843.763-2.065 1.497-2.527v-.055c-.509-.57-1.412-.923-2.627-.923-1.724 0-2.939 1.033-3.56 2.446v-2.23h-3.051v3.589zm11.498 1.412c.48-1.74 1.779-2.827 3.7-2.827s3.278 1.087 3.73 2.827zm3.927 8.504c2.769 0 5.199-1.167 6.414-3.777v-.055c-.848.055-2.118-.517-2.627-1.195l-.028.027c-.509 1.36-1.864 2.365-3.7 2.365-2.203 0-3.869-1.386-4.153-3.64h10.593c.509-4.103-2.203-7.61-6.696-7.61-3.984 0-6.866 3.099-6.866 6.929s2.939 6.956 7.063 6.956m13.116.002c3.108 0 5.226-1.901 5.226-4.374 0-2.474-1.978-3.56-4.068-3.969l-1.273-.244c-1.13-.245-1.978-.544-1.978-1.412 0-.762.734-1.468 1.894-1.468 1.272 0 2.26.625 2.569 1.957h.028c.537-.625 1.809-1.115 2.655-1.006l.027-.028c-.508-1.848-2.345-3.368-5.199-3.368s-5.029 1.848-5.029 4.076c0 2.012 1.357 3.207 4.097 3.777l1.327.272c1.045.245 1.864.57 1.864 1.523s-.734 1.712-2.119 1.712c-1.694 0-2.909-1.087-3.135-2.446l-.028-.027c-.537.625-1.809 1.087-2.655.978l-.027.028c.508 2.445 2.769 4.021 5.82 4.021z"/></g><defs><clipPath id="a"><path fill="#fff" d="M.61.78h170.384V35.25H.61z"/></clipPath></defs></svg>