<svg xmlns="http://www.w3.org/2000/svg" width="114" height="19" fill="none" viewBox="0 0 114 19"><path fill="#b4b4b4" fill-rule="evenodd" d="M3.769 3.194a.933.933 0 0 0-.933.934v10.265c0 .515.418.933.933.933h3.266v2.8H3.769a3.733 3.733 0 0 1-3.733-3.733V4.128A3.733 3.733 0 0 1 3.77.395h3.266v2.8zM22.433 15.326a.933.933 0 0 0 .933-.933V4.128a.933.933 0 0 0-.933-.934h-3.267v-2.8h3.267a3.733 3.733 0 0 1 3.733 3.734v10.265a3.733 3.733 0 0 1-3.733 3.732h-3.267v-2.8z" clip-rule="evenodd"/><path fill="#b4b4b4" d="M21.966 9.219a2.26 2.26 0 0 0-1.94-2.239 5.615 5.615 0 0 1-4.64-4.646 2.276 2.276 0 0 0-2.244-1.94h-.083a2.26 2.26 0 0 0-2.239 1.94 5.61 5.61 0 0 1-4.646 4.64 2.276 2.276 0 0 0-1.94 2.245v.083c0 1.125.826 2.078 1.94 2.238a5.615 5.615 0 0 1 4.64 4.646 2.276 2.276 0 0 0 2.245 1.94h.083a2.26 2.26 0 0 0 2.238-1.94 5.615 5.615 0 0 1 4.646-4.64 2.276 2.276 0 0 0 1.94-2.244zm-3.325.074c0 .023-.03.042-.06.048a6.55 6.55 0 0 0-5.409 5.405c0 .03-.022.055-.039.055h-.069c-.022 0-.041-.03-.047-.061a6.545 6.545 0 0 0-5.405-5.408c-.03 0-.055-.022-.055-.039v-.069c0-.022.03-.041.06-.047a6.55 6.55 0 0 0 5.408-5.405c0-.03.023-.055.04-.055h.068c.023 0 .042.03.048.06a6.54 6.54 0 0 0 5.405 5.408c.03 0 .055.023.055.04zM46.506.395h3.048v17.463h-3.048v-7.637h-8.194v7.637h-3.048V.395h3.048v7.102h8.194zM62.105 5.089v12.769h-2.858v-1.362c-.714.851-1.786 1.63-3.406 1.63-2.62 0-4.24-1.825-4.24-4.573V5.089h2.859v7.832c0 1.556.667 2.553 2.215 2.553 1.286 0 2.572-.973 2.572-2.797V5.09zM66.99 10.367v7.491h-2.858V5.09h2.858v1.362c.69-.851 1.763-1.605 3.43-1.605 1.5 0 2.62.68 3.31 1.775.763-.827 1.954-1.775 3.883-1.775 2.572 0 4.24 1.848 4.24 4.597v8.415h-2.859v-7.564c0-1.58-.571-2.724-2.096-2.724-1.214 0-2.477.973-2.477 2.797v7.491h-2.858v-7.564c0-1.58-.572-2.724-2.096-2.724-1.215 0-2.477.973-2.477 2.797M87.36 18.077c-2.382 0-4.216-1.484-4.216-3.77 0-2.432 1.786-3.502 4.191-4.013l3.454-.73v-.219c0-1.216-.62-1.97-2.144-1.97-1.357 0-2.072.633-2.405 1.873l-2.691-.632c.619-2.116 2.453-3.77 5.216-3.77 3 0 4.81 1.46 4.81 4.402v5.497c0 .73.31.948 1.096.851v2.262c-2.072.243-3.167-.17-3.596-1.216-.786.9-2.096 1.435-3.716 1.435m3.43-4.719v-1.556l-2.692.584c-1.215.267-2.12.656-2.12 1.8 0 .997.715 1.556 1.81 1.556 1.524 0 3.001-.827 3.001-2.384M96.25 14.648V7.57h-1.74V5.089h1.74V1.343h2.81V5.09h2.62v2.48h-2.62v6.616c0 1.143.643 1.265 1.667 1.265.477 0 .739-.024 1.167-.073v2.457c-.524.097-1.238.17-1.977.17-2.381 0-3.668-.754-3.668-3.357M106.631 18.077c-2.381 0-4.215-1.484-4.215-3.77 0-2.432 1.786-3.502 4.192-4.013l3.453-.73v-.219c0-1.216-.619-1.97-2.144-1.97-1.357 0-2.072.633-2.405 1.873l-2.692-.632c.62-2.116 2.454-3.77 5.216-3.77 3.002 0 4.812 1.46 4.812 4.402v5.497c0 .73.31.948 1.096.851v2.262c-2.073.243-3.169-.17-3.597-1.216-.786.9-2.096 1.435-3.716 1.435m3.43-4.719v-1.556l-2.691.584c-1.215.267-2.12.656-2.12 1.8 0 .997.715 1.556 1.81 1.556 1.525 0 3.001-.827 3.001-2.384"/></svg>