<svg xmlns="http://www.w3.org/2000/svg" width="179" height="31" fill="none" viewBox="0 0 179 31"><g fill="#b4b4b4" clip-path="url(#a)"><path d="M45.868 8.305c-.79 0-1.533.306-2.089.862l-2.247 2.24a2.94 2.94 0 0 0-.853 2.305l.014.142c.08.66.37 1.256.84 1.723.323.322.68.527 1.113.67q.035.196.035.393c0 .594-.23 1.152-.65 1.57l-.139.138a4.9 4.9 0 0 1-1.94-1.194 5.13 5.13 0 0 1-1.435-2.732l-.026-.144-.114.093q-.116.094-.218.197l-2.247 2.24a2.946 2.946 0 0 0 2.09 5.03c.758 0 1.513-.288 2.089-.862l2.247-2.24a2.946 2.946 0 0 0 0-4.168 2.9 2.9 0 0 0-1.088-.685 2.42 2.42 0 0 1 .688-2.125 5.1 5.1 0 0 1 1.982 1.233 5.14 5.14 0 0 1 1.434 2.731l.026.144.114-.092q.116-.094.22-.199l2.247-2.24a2.945 2.945 0 0 0-2.09-5.03z"/><path d="M44.664.11H15.267C6.892.11.077 6.908.077 15.26s6.815 15.15 15.19 15.15h29.397c8.376 0 15.19-6.797 15.19-15.15S53.04.11 44.664.11m-14.5 23.752c-.484.1-1.03.118-1.4-.268-.136.313-.456.148-.702.107l-.063.184c-.82.054-1.433-.779-1.823-1.408-.775-.418-1.654-.672-2.446-1.11-.046.721.113 1.615-.576 2.08-.035 1.386 2.103.164 2.299 1.197-.152.016-.32-.025-.442.092-.558.541-1.197-.409-1.84-.017-.863.434-.95.788-2.017.878-.06-.09-.035-.149.015-.203.3-.349.322-.76.835-.908-.528-.083-.97.208-1.415.438-.58.236-.574-.533-1.465.04-.098-.08-.051-.152.005-.214.226-.276.524-.317.86-.302-1.652-.918-2.43 1.123-3.192.108-.23.06-.316.266-.46.412-.125-.136-.03-.302-.024-.462-.15-.07-.338-.103-.293-.341-.292-.098-.496.074-.713.238-.196-.152.132-.373.193-.53.175-.303.573-.062.775-.28.574-.326 1.374.202 2.03.113.506.064 1.132-.454.879-.971-.541-.69-.446-1.59-.458-2.415-.066-.48-1.222-1.092-1.557-1.61-.413-.467-.735-1.008-1.057-1.54-1.162-2.243-.796-5.126-2.26-7.21-.662.366-1.525.193-2.097-.296-.308.28-.322.647-.346 1.036-.74-.738-.647-2.131-.056-2.952.242-.325.53-.591.852-.826.073-.053.097-.105.096-.186.585-2.624 4.574-2.118 5.835-.26.914 1.144 1.19 2.658 2.228 3.72 1.396 1.524 2.986 2.866 4.275 4.489 1.218 1.483 2.088 3.222 2.848 4.975.31.581.313 1.295.771 1.792.227.3 1.333 1.116 1.093 1.406.138.3 1.17.713.812 1.004zm19.374-8.95-2.246 2.24a5.2 5.2 0 0 1-2.14 1.287l-.041.012-.016.039a5.1 5.1 0 0 1-1.18 1.821l-2.247 2.24a5.16 5.16 0 0 1-3.671 1.516 5.16 5.16 0 0 1-3.672-1.515 5.174 5.174 0 0 1 0-7.324l2.247-2.24a5.1 5.1 0 0 1 2.137-1.282l.041-.012.016-.04a5.2 5.2 0 0 1 1.183-1.826l2.247-2.241a5.16 5.16 0 0 1 3.671-1.515c1.389 0 2.692.538 3.672 1.515a5.14 5.14 0 0 1 1.519 3.662c0 1.384-.54 2.686-1.52 3.661z"/><path d="M21.026 21.15c-.197.767-.261 2.071-1.26 2.11-.083.441.306.608.662.466.35-.16.518.127.636.413.542.079 1.345-.18 1.375-.82-.81-.466-1.06-1.35-1.411-2.17zM73.928 8.052h-2.669v16.187h11.446v-2.578h-8.777zM96.12 24.24h2.669v-.03h.035l.005-.118c0-.035.01-.36-.039-.858v-6.025c0-2.266 1.653-3.298 3.188-3.298 1.652 0 2.456.89 2.456 2.722v7.606h2.669v-7.961c0-3.024-1.921-4.903-5.013-4.903-1.314 0-2.486.373-3.407 1.083l-.025-.86h-2.534v12.641zM117.964 12.526c-.928-.754-2.12-1.15-3.466-1.15-3.598 0-5.833 2.48-5.833 6.475s2.235 6.499 5.833 6.499c1.27 0 2.403-.346 3.295-1.004-.077 1.96-1.304 3.124-3.316 3.124-1.692 0-2.649-.539-2.846-1.6l-.025-.133-2.592.791.023.107c.437 2.11 2.412 3.37 5.285 3.37 1.949 0 3.477-.53 4.544-1.578 1.076-1.056 1.621-2.577 1.621-4.52v-11.31h-2.468l-.054.929zm-.167 5.437c0 2.411-1.175 3.852-3.144 3.852-2.11 0-3.32-1.444-3.32-3.963 0-2.518 1.211-3.941 3.32-3.941 1.922 0 3.124 1.434 3.144 3.74zM133.635 19.106c-.553 1.79-1.973 2.775-3.998 2.775-2.895 0-4.695-2.198-4.695-5.736 0-3.539 1.816-5.737 4.74-5.737 2.023 0 3.189.793 3.782 2.57l.277.832 2.52-1.183-.237-.666c-.959-2.704-3.175-4.132-6.408-4.132-2.197 0-4.062.794-5.394 2.294-1.317 1.485-2.015 3.567-2.015 6.023 0 5.051 2.916 8.316 7.43 8.316 3.181 0 5.645-1.664 6.59-4.452l.242-.713-2.589-.984-.246.794zM143.601 11.375c-1.274 0-2.408.35-3.298 1.013V6.5h-2.669v17.74h2.669v-7.03c0-2.28 1.652-3.32 3.188-3.32 1.652 0 2.456.89 2.456 2.723v7.629h2.669v-7.984c0-2.965-1.968-4.88-5.013-4.88zM164.214 6.119c-.992 0-1.712.72-1.712 1.71 0 .992.72 1.712 1.712 1.712.99 0 1.71-.72 1.71-1.711s-.72-1.711-1.71-1.711M173.717 11.375c-1.314 0-2.486.373-3.407 1.083l-.025-.86h-2.534v12.641h2.669v-7.03c0-2.266 1.652-3.298 3.188-3.298 1.652 0 2.456.89 2.456 2.722v7.606h2.668v-7.961c0-3.024-1.921-4.903-5.012-4.903zM165.51 11.597h-2.656v6.267a7.4 7.4 0 0 0-2.584-1.393v-.637c0-2.792-1.833-4.459-4.903-4.459-2.495 0-4.36 1.171-5.12 3.212l-.205.551 2.139 1.577.367-.957c.484-1.26 1.38-1.848 2.819-1.848 1.438 0 2.234.692 2.234 2.056v.07l-.258-.006c-2.857-.046-4.941.622-6.195 1.983-1.283 1.392-1.17 2.955-1.153 3.128l.012.12h.012c.199 1.948 1.9 3.198 4.372 3.198 1.362 0 2.62-.38 3.571-1.072l.011.851h2.297v-3.955l-.05-.036c-.325-.237-.891-.544-1.743-.652a5 5 0 0 0-.758-.046h-.119v.364c0 .836-.961 2.013-3.099 2.013-1.578 0-1.814-.664-1.814-1.06v-.04c.012-.178.087-.612.479-1.017.498-.515 1.619-1.117 4.133-1.078 1.82.028 3.217.537 4.152 1.513 1.147 1.197 1.362 2.836 1.402 3.478v.517h2.655V11.597zM89.22 11.32c-2.494 0-4.36 1.171-5.12 3.212l-.204.551 2.139 1.577.367-.957c.484-1.26 1.38-1.849 2.818-1.849 1.44 0 2.235.693 2.235 2.057v.32l-2.748.485c-3.222.57-4.856 1.947-4.856 4.093s1.724 3.595 4.392 3.595c1.363 0 2.62-.38 3.571-1.072l.012.85h2.296V15.78c0-2.792-1.832-4.459-4.902-4.459m2.235 7.412v1.127c0 .836-.962 2.013-3.1 2.013-1.578 0-1.812-.664-1.812-1.06 0-.351 0-1.174 2.795-1.693l2.117-.386z"/></g><defs><clipPath id="a"><path fill="#fff" d="M.077 0h178.655v30.52H.077z"/></clipPath></defs></svg>