<svg xmlns="http://www.w3.org/2000/svg" width="118" height="28" fill="none" viewBox="0 0 118 28"><path fill="#b4b4b4" d="M15.262.605h-3.606A11.59 11.59 0 0 0 .08 12.185a11.59 11.59 0 0 0 11.576 11.577h3.62a11.59 11.59 0 0 0 11.579-11.577A11.59 11.59 0 0 0 15.262.605m-13.75 11.58A10.136 10.136 0 0 1 13.34 2.188a10.09 10.09 0 0 1 8.443 9.991 6.525 6.525 0 0 1-5.433 6.422 7.95 7.95 0 0 0 3.26-6.422 7.945 7.945 0 0 0-5.97-7.709 8 8 0 0 0-1.99-.252 7.97 7.97 0 0 0-7.945 7.961 11.55 11.55 0 0 0 5.388 9.8 10.15 10.15 0 0 1-7.571-9.794zM13.454 5.93a6.504 6.504 0 0 1 4.703 6.255 6.5 6.5 0 0 1-4.703 6.251 6.504 6.504 0 0 1-4.704-6.251 6.504 6.504 0 0 1 4.704-6.255m1.808 16.385h-.041q-.827-.005-1.644-.14a10.086 10.086 0 0 1-8.432-9.65v-.34a6.52 6.52 0 0 1 5.432-6.422 7.94 7.94 0 0 0-3.263 6.422 7.944 7.944 0 0 0 5.97 7.706 7.97 7.97 0 0 0 9.952-7.706 11.54 11.54 0 0 0-5.388-9.8 10.136 10.136 0 0 1 7.558 9.8 10.135 10.135 0 0 1-10.144 10.13M50.034 21.743h-16.49v-1.86c2.033-.343 2.433-1.058 2.433-1.745V6.486c0-1.315-.4-1.86-2.432-2.003v-1.86h10.363v1.86c-2.033.143-2.433.688-2.433 2.003v12.327c0 .685.2 1.173 1.918 1.173h1.86c1.058 0 2.318-.515 3.205-3.32h1.86zm1.487-7.013c0-4.635 3.35-8.07 8.1-8.07 5.011 0 7.901 3.377 7.901 7.497 0 4.61-3.405 7.988-8.07 7.988-5.096 0-7.93-3.293-7.93-7.415m10.62 1.06c0-4.55-1.574-7.27-3.12-7.27-1.46 0-2.06 1.832-2.06 4.465 0 4.637 1.603 7.3 3.118 7.3 1.436 0 2.063-1.805 2.063-4.495m7.156-1.06c0-4.635 3.35-8.07 8.1-8.07 5.011 0 7.901 3.377 7.901 7.497 0 4.61-3.405 7.988-8.073 7.988-5.092 0-7.928-3.293-7.928-7.415m10.621 1.06c0-4.55-1.575-7.27-3.12-7.27-1.46 0-2.063 1.832-2.063 4.465 0 4.637 1.606 7.3 3.12 7.3 1.433 0 2.063-1.805 2.063-4.495m23.05-1.86c0 5.007-3.033 8.218-7.413 8.218a6.4 6.4 0 0 1-2.578-.488v2.118c0 1.06.43 1.49 2.378 1.775v1.871h-9.36v-1.86c1.487-.342 1.66-.715 1.66-1.775V11.187c0-.745-.258-1.175-1.203-1.602l-.458-.2v-1.49l5.838-1.23h1.145v1.832a3.93 3.93 0 0 1 3.408-1.832c4.55-.006 6.583 3.5 6.583 7.265m-5.495 1.03c0-2.978-.822-5.553-2.805-5.553-.86 0-1.003-.058-1.69.457v5.753c0 3.408.547 4.41 2.032 4.41 1.375 0 2.463-1.69 2.463-5.067m19.329-6.613-2.632 3.608c-1.261-2.52-2.466-3.578-3.893-3.578-.86 0-1.975.515-1.975 1.402 0 3.014 8.958 1.058 8.788 7.701-.088 2.403-2.405 4.657-6.413 4.657-3.493 0-6.41-1.748-7.123-2.378l3.093-3.232c1.718 2.69 3.12 3.892 4.493 3.892.715 0 1.975-.315 2.005-1.717 0-3.236-8.846-.63-8.818-7.123 0-3.062 2.547-4.93 6.613-4.93 3.2.01 5.262 1.125 5.862 1.698"/></svg>