<svg xmlns="http://www.w3.org/2000/svg" width="150" height="22" fill="none" viewBox="0 0 150 22"><path fill="#b4b4b4" d="M46.357 10.3H34.79v11.436h11.567zM.092 21.736V11.669L11.596.293h10.183v10.069L10.275 21.737z"/><path fill="#b4b4b4" d="M17.441 21.737v-10.07L28.945.294h10.183v10.069L27.624 21.737zm53.004-6.38L64.526 1.907h-4.78v17.95h3.57l.007-12.097 5.4 12.096h3.442l5.408-12.093v12.093h3.57V1.905H76.36zm19.321-8.949c-5.951 0-7.2 3.68-7.2 6.767 0 4.714 2.379 7.005 7.27 7.005 4.894 0 7.225-2.271 7.225-6.942 0-4.67-2.454-6.833-7.292-6.833zm-3.49 6.703c0-2.359.539-3.557 3.49-3.557 2.747 0 3.584.872 3.584 3.734 0 2.86-.826 3.752-3.537 3.752s-3.537-.916-3.537-3.927zm20.154-6.68h-.069c-2.143.01-3.817 1.52-4.258 2.204v-6.73h-3.617v17.95h3.617v-.122l.019-1.711c.588.948 2.161 2.16 4.217 2.16 4.497 0 6.417-2.017 6.417-6.744s-1.951-7.006-6.326-7.006zm2.685 6.744c0 3.57-1.666 3.86-3.679 3.86s-3.633-.284-3.633-3.775c0-2.654 1.031-3.688 3.679-3.688s3.633.907 3.633 3.6zm13.018-6.744h-.07c-2.143.01-3.816 1.52-4.257 2.204v-6.73h-3.617v17.95h3.616v-.122l.02-1.711c.587.945 2.16 2.158 4.218 2.158 4.496 0 6.416-2.018 6.416-6.745s-1.952-7.004-6.326-7.004m2.684 6.744c0 3.57-1.666 3.86-3.678 3.86-2.014 0-3.633-.284-3.633-3.775 0-2.654 1.031-3.688 3.679-3.688s3.632.907 3.632 3.6zm8.79-6.462h-3.617v13.142h3.617zm9.694-.287c-2.008 0-3.631 1.245-4.152 2.21V6.712h-3.616v13.142h3.616v-7.658c0-1.717.517-2.537 3.449-2.537 2.221 0 3.009.685 3.009 2.622v7.571h3.617v-6.789c0-4.938-1.495-6.614-5.923-6.641zm-9.694-4.52h-3.617V5.31h3.617z"/></svg>