<svg xmlns="http://www.w3.org/2000/svg" width="104" height="23" fill="none" viewBox="0 0 104 23"><path fill="#b4b4b4" d="M103.703 19.586a2.2 2.2 0 0 1-.606.098c-.675 0-.993-.289-.993-1.12v-6.276c0-3.297-2.627-4.902-5.733-4.902-2.373 0-3.649.289-6.184 1.31l-.565 3.326 3.296.352.468-1.628c.675-.352 1.345-.416 2.21-.416 2.34 0 2.374 1.761 2.374 3.234v.479c-.739-.098-1.57-.127-2.373-.127-3.297 0-6.726.831-6.726 4.388 0 3.008 2.367 4.134 4.451 4.134 2.338 0 3.81-1.409 4.642-2.881.19 1.76 1.247 2.88 3.17 2.88.895 0 1.825-.253 2.592-.675zm-8.868-.092c-1.247 0-1.698-.74-1.698-1.67 0-1.57 1.282-1.985 2.755-1.985.67 0 1.408.098 2.084.19-.098 2.408-1.669 3.465-3.141 3.465M89.286.082 83.04 22.121h-4.07L85.216.083zm-8.389 0L74.65 22.121h-4.065L76.833.083zM63.553 7.675h4.325v5.185h-4.325zm0 9.255h4.325v5.19h-4.325zm-6.293-.19 3.268.317-.895 5.064H47.01l-.415-2.177 7.944-9.128h-4.515l-.64 2.24-2.98-.324.514-5.063h12.685l.323 2.177-8.014 9.134h4.677zM36.56 7.386c-5.19 0-7.754 3.492-7.754 7.719 0 4.613 3.077 7.332 7.529 7.332 4.613 0 7.945-2.915 7.945-7.528 0-4.037-2.535-7.523-7.72-7.523m-.098 11.881c-2.24 0-3.395-1.922-3.395-4.422 0-2.725 1.31-4.29 3.43-4.29 1.951 0 3.522 1.31 3.522 4.227 0 2.753-1.41 4.485-3.557 4.485m-11.374-.288h1.922v3.14h-6.056v-8.135c0-2.5-.831-3.458-2.465-3.458-1.987 0-2.79 1.409-2.79 3.43v5.023h1.924v3.14h-6.051v-8.135c0-2.5-.832-3.458-2.466-3.458-1.986 0-2.789 1.409-2.789 3.43v5.023h2.755v3.14H.268v-3.14H2.19v-8.17H.268V7.669h6.05v2.177C7.185 8.31 8.692 7.38 10.707 7.38c2.084 0 4 .993 4.71 3.107.804-1.923 2.437-3.107 4.712-3.107 2.592 0 4.966 1.57 4.966 4.995v6.605z"/></svg>