<svg xmlns="http://www.w3.org/2000/svg" width="104" height="31" fill="none" viewBox="0 0 104 31"><g clip-path="url(#a)"><mask id="b" width="107" height="62" x="-3" y="0" maskUnits="userSpaceOnUse" style="mask-type:luminance"><path fill="#fff" d="M103.945.494H-2.775v60.532h106.72z"/></mask><g mask="url(#b)"><path fill="#b4b4b4" d="M103.945 26.486H74.652v-7.425h29.293z"/><path fill="#b4b4b4" d="M100.14 26.486H74.652V7.916h25.488z"/><path fill="#b4b4b4" d="M89.61 26.486H74.652V.495H89.61z"/><path fill="#b4b4b4" d="M92.552 26.486h-17.9V3.395h17.9z"/><path fill="#898989" d="M74.648 3.4v23.084h14.96V3.399z"/><path fill="#363636" d="M59.652 26.486h15V30.2h-15z"/><path fill="#898989" d="M89.52 7.912v11.2h3.041v-11.2z"/><path fill="#4d4d4d" d="M74.648 7.912v18.572h14.96V7.912z"/><path fill="#383838" d="M84.006 19.185h-9.354V15.34h9.354z"/><path fill="#898989" d="M74.648 19.066v7.418h25.501v-7.418z"/><path fill="#4d4d4d" d="M89.592 19.066v7.418h2.969v-7.418z"/><path fill="#383838" d="M74.648 19.066v7.418h14.96v-7.418z"/><path fill="#363636" d="M74.648 19.066v7.418h9.367v-7.418z"/><path fill="#b4b4b4" d="M61.82 7.21c-2.553.45-3.914 2.359-3.914 5.672 0 3.37 1.815 5.617 4.48 5.617 1.305 0 2.44-.45 4.821-1.629v2.752c-2.892 1.348-4.593 1.685-6.862 1.685-2.552 0-4.367-.618-5.785-2.134-1.475-1.46-2.269-3.37-2.269-5.56 0-4.774 3.63-8.088 8.905-8.088 3.46 0 5.898 1.629 5.898 3.931 0 1.517-1.134 2.584-2.78 2.584-.85 0-1.53-.28-2.495-.786M49.059 13.613c2.325-2.865 3.176-4.044 3.176-5.448s-1.135-2.64-2.723-2.64c-.907 0-1.758.505-2.155.955v5.897l-3.8 5.055V5.974h-3.63l-6.011 9.829V5.974h-2.042L26.373 7.21v1.404l3.006.28v12.188h3.8l5.784-9.435v9.435h4.254M14.86 19.173h.85c3.063 0 4.765-1.853 4.765-5.56 0-3.09-1.362-4.774-3.914-4.774-.34 0-.85.056-1.701.224zm0 6.627 2.495.562v1.404H7.544v-1.404l2.268-.562V8.84H7.317V7.435l5.955-1.798h1.588V7.66c2.779-1.685 3.743-1.965 5.218-1.965 3.29 0 5.785 3.032 5.785 7.245 0 4.83-3.347 8.143-8.45 8.143-.568 0-1.532-.056-2.553-.112"/></g></g><defs><clipPath id="a"><path fill="#fff" d="M.385.26h103v30h-103z"/></clipPath></defs></svg>