<svg xmlns="http://www.w3.org/2000/svg" width="90" height="22" fill="none" viewBox="0 0 90 22"><g fill="#b4b4b4" clip-path="url(#a)"><path d="M1.437 20.574V1.456h8.467q1.774 0 3.222.819a5.9 5.9 0 0 1 2.267 2.158q.847 1.365.847 3.113 0 1.72-.847 3.14a6 6 0 0 1-2.267 2.213q-1.448.82-3.222.82H5.397v6.855zm10.843 0-4.862-8.63 4.206-.684 5.408 9.34zM5.397 10.386h4.315q.738 0 1.284-.327.573-.356.874-.956.3-.628.3-1.393 0-.82-.355-1.42-.354-.6-1.037-.929-.684-.354-1.585-.355H5.397zM24.97 20.847q-2.348 0-4.123-.956a7 7 0 0 1-2.731-2.622q-.956-1.665-.956-3.824 0-1.693.546-3.086a7.1 7.1 0 0 1 1.53-2.403 6.6 6.6 0 0 1 2.32-1.584 7.5 7.5 0 0 1 2.95-.574q1.475 0 2.732.546a6.3 6.3 0 0 1 2.157 1.53 6.4 6.4 0 0 1 1.42 2.294q.492 1.31.437 2.84l-.027 1.202H19.618l-.628-2.376h9.04l-.437.492v-.601a2.4 2.4 0 0 0-.492-1.311q-.41-.6-1.065-.929a3.05 3.05 0 0 0-1.475-.355q-1.202 0-2.048.464-.82.465-1.257 1.366t-.437 2.185q0 1.311.547 2.267a4.06 4.06 0 0 0 1.584 1.502q1.038.519 2.43.519.956 0 1.748-.3.792-.302 1.694-1.038l1.857 2.594a8.3 8.3 0 0 1-1.748 1.202 9.8 9.8 0 0 1-1.967.71 8.4 8.4 0 0 1-1.993.246M37.614 20.847q-2.022 0-3.605-.656-1.557-.682-2.513-1.857l2.43-2.076q.82.901 1.858 1.311a6 6 0 0 0 2.076.383q.41 0 .737-.082.355-.11.6-.273.247-.192.356-.437.137-.273.137-.574 0-.6-.492-.928-.273-.165-.847-.355-.573-.218-1.475-.465-1.392-.354-2.376-.82-.956-.49-1.53-1.092a4.6 4.6 0 0 1-.764-1.229 4.4 4.4 0 0 1-.246-1.502q0-.983.437-1.775A4.2 4.2 0 0 1 33.6 7.027a5.9 5.9 0 0 1 1.803-.874 6.9 6.9 0 0 1 2.13-.328q1.12 0 2.185.274 1.065.273 1.966.792.929.491 1.612 1.174l-2.076 2.294q-.492-.465-1.12-.847a5.7 5.7 0 0 0-1.256-.6q-.656-.219-1.175-.219-.464 0-.846.082a1.5 1.5 0 0 0-.601.273q-.246.164-.382.41a1.3 1.3 0 0 0-.11.546q0 .3.137.574.165.273.437.464.3.165.874.382.6.219 1.611.492 1.311.355 2.212.792.93.437 1.475 1.01.465.492.683 1.12t.218 1.393q0 1.338-.764 2.376-.738 1.038-2.049 1.639-1.31.6-2.95.6M51.631 20.847q-2.348 0-4.124-.956a7 7 0 0 1-2.73-2.622q-.957-1.665-.957-3.824 0-1.693.547-3.086a7.1 7.1 0 0 1 1.529-2.403 6.6 6.6 0 0 1 2.321-1.584 7.5 7.5 0 0 1 2.95-.574q1.475 0 2.731.546a6.3 6.3 0 0 1 2.158 1.53 6.4 6.4 0 0 1 1.42 2.294q.492 1.31.437 2.84l-.027 1.202H46.278l-.628-2.376h9.04l-.437.492v-.601a2.4 2.4 0 0 0-.491-1.311q-.41-.6-1.065-.929a3.05 3.05 0 0 0-1.475-.355q-1.202 0-2.049.464-.82.465-1.256 1.366t-.437 2.185q0 1.311.546 2.267a4.06 4.06 0 0 0 1.584 1.502q1.038.519 2.431.519.956 0 1.748-.3.792-.302 1.693-1.038l1.857 2.594a8.3 8.3 0 0 1-1.747 1.202 9.8 9.8 0 0 1-1.967.71 8.4 8.4 0 0 1-1.994.246M59.413 20.574V6.126h3.714l.11 2.95-.766.327q.3-.983 1.066-1.775a6 6 0 0 1 1.884-1.31 5.5 5.5 0 0 1 2.294-.493q1.64 0 2.731.656 1.12.655 1.666 1.994.574 1.31.574 3.25v8.849h-3.878v-8.549q0-.983-.273-1.639-.273-.655-.847-.955-.546-.3-1.366-.274-.655 0-1.229.219a2.7 2.7 0 0 0-.956.573 3.3 3.3 0 0 0-.628.874 2.6 2.6 0 0 0-.218 1.066v8.685h-3.878M80.69 20.847q-1.911 0-3.413-.956-1.474-.984-2.349-2.65-.846-1.692-.846-3.905 0-2.158.846-3.85.875-1.722 2.349-2.677 1.502-.984 3.414-.984 1.01 0 1.939.328A5.7 5.7 0 0 1 84.323 7q.765.546 1.23 1.229.464.656.518 1.365l-.983.192V.363h3.906v20.21h-3.687l-.164-3.331.764.081q-.054.684-.491 1.311a4.7 4.7 0 0 1-1.175 1.148 6.2 6.2 0 0 1-1.638.792 6.6 6.6 0 0 1-1.912.273m.875-3.223q1.092 0 1.912-.546a3.7 3.7 0 0 0 1.283-1.502q.465-.957.465-2.24 0-1.257-.465-2.212a3.7 3.7 0 0 0-1.283-1.502q-.82-.546-1.912-.546t-1.912.546q-.792.546-1.256 1.502-.437.955-.437 2.212 0 1.284.437 2.24.464.955 1.256 1.502.82.546 1.912.546"/></g><defs><clipPath id="a"><path fill="#fff" d="M.318.09H89.08v21.85H.318z"/></clipPath></defs></svg>