<svg width="1607" height="962" viewBox="0 0 1607 962" fill="none" xmlns="http://www.w3.org/2000/svg">
<mask id="mask0_445_2849" style="mask-type:alpha" maskUnits="userSpaceOnUse" x="0" y="0" width="1614" height="962">
<rect width="1613.24" height="962" fill="url(#paint0_linear_445_2849)"/>
</mask>
<g mask="url(#mask0_445_2849)">
<path d="M693.098 0.000976562L693.098 957.331" stroke="#242424"/>
<path d="M794.523 0.000976562L794.523 957.331" stroke="#242424"/>
<path d="M860.156 0.000976562L860.156 957.331" stroke="#242424"/>
<path d="M965.57 0.000976562L965.57 957.331" stroke="#242424"/>
<path d="M1031.2 0.000976562L1031.2 957.331" stroke="#242424"/>
<path d="M1106.79 0.000976562L1106.79 957.331" stroke="#242424"/>
<path d="M1242.03 0.000976562L1242.03 957.331" stroke="#242424"/>
<path d="M1328.55 0.000976562L1328.55 957.331" stroke="#242424"/>
<path d="M1465.78 0.000976562L1465.78 957.331" stroke="#242424"/>
<path d="M1531.42 0.000976562L1531.42 957.331" stroke="#242424"/>
<path d="M1597.05 0.000976562L1597.05 957.331" stroke="#242424"/>
<path d="M22.1758 0.000976562L22.1758 957.331" stroke="#242424"/>
<path d="M87.8086 0.000976562L87.8086 957.331" stroke="#242424"/>
<path d="M194.215 0.000976562L194.215 957.331" stroke="#242424"/>
<path d="M301.613 0.000976562L301.613 957.331" stroke="#242424"/>
<path d="M456.75 0.000976562L456.75 957.331" stroke="#242424"/>
<path d="M522.383 0.000976562L522.383 957.331" stroke="#242424"/>
<path d="M1607 31.292L2.2992e-05 31.292" stroke="#242424" stroke-width="1.15532"/>
<path d="M1607 66.292L2.2992e-05 66.292" stroke="#242424" stroke-width="1.15532"/>
<path d="M1607 101.292L2.2992e-05 101.292" stroke="#242424" stroke-width="1.15532"/>
<path d="M1607 136.292L2.2992e-05 136.292" stroke="#242424" stroke-width="1.15532"/>
<path d="M1607 171.292L2.2992e-05 171.292" stroke="#242424" stroke-width="1.15532"/>
<path d="M1607 206.292L2.2992e-05 206.292" stroke="#242424" stroke-width="1.15532"/>
<path d="M1607 241.292L2.2992e-05 241.292" stroke="#242424" stroke-width="1.15532"/>
<path d="M1607 276.292L2.2992e-05 276.292" stroke="#242424" stroke-width="1.15532"/>
<path d="M1607 311.292L2.2992e-05 311.292" stroke="#242424" stroke-width="1.15532"/>
<path d="M1607 346.292L2.2992e-05 346.292" stroke="#242424" stroke-width="1.15532"/>
<path d="M1607 381.292L2.2992e-05 381.292" stroke="#242424" stroke-width="1.15532"/>
<path d="M1607 416.292L2.2992e-05 416.292" stroke="#242424" stroke-width="1.15532"/>
<path d="M1607 451.292L2.2992e-05 451.292" stroke="#242424" stroke-width="1.15532"/>
<path d="M1607 486.292L2.2992e-05 486.292" stroke="#242424" stroke-width="1.15532"/>
<path d="M1607 521.292L2.2992e-05 521.292" stroke="#242424" stroke-width="1.15532"/>
<path d="M1607 556.292L2.2992e-05 556.292" stroke="#242424" stroke-width="1.15532"/>
<path d="M1607 591.292L2.2992e-05 591.292" stroke="#242424" stroke-width="1.15532"/>
<path d="M1607 626.292L2.2992e-05 626.292" stroke="#242424" stroke-width="1.15532"/>
<path d="M1607 661.292L2.2992e-05 661.292" stroke="#242424" stroke-width="1.15532"/>
<path d="M1607 696.292L2.2992e-05 696.292" stroke="#242424" stroke-width="1.15532"/>
<path d="M1607 731.292L2.2992e-05 731.292" stroke="#242424" stroke-width="1.15532"/>
<path d="M1607 766.292L2.2992e-05 766.292" stroke="#242424" stroke-width="1.15532"/>
<path d="M1607 801.292L2.2992e-05 801.292" stroke="#242424" stroke-width="1.15532"/>
<path d="M1607 836.292L2.2992e-05 836.292" stroke="#242424" stroke-width="1.15532"/>
<path d="M1607 871.292L2.2992e-05 871.292" stroke="#242424" stroke-width="1.15532"/>
<path d="M1607 906.292L2.2992e-05 906.292" stroke="#242424" stroke-width="1.15532"/>
<path d="M1607 941.292L2.2992e-05 941.292" stroke="#242424" stroke-width="1.15532"/>
</g>
<defs>
<linearGradient id="paint0_linear_445_2849" x1="0" y1="481" x2="1613.24" y2="481" gradientUnits="userSpaceOnUse">
<stop stop-color="#0F0F0F" stop-opacity="0"/>
<stop offset="1" stop-color="#0F0F0F"/>
</linearGradient>
</defs>
</svg>
