<svg width="1364" height="888" viewBox="0 0 1364 888" fill="none" xmlns="http://www.w3.org/2000/svg">
<mask id="mask0_648_2688" style="mask-type:alpha" maskUnits="userSpaceOnUse" x="0" y="0" width="1364" height="888">
<rect x="0.654297" y="0.671875" width="1363.21" height="886.777" fill="url(#paint0_linear_648_2688)"/>
</mask>
<g mask="url(#mask0_648_2688)">
<path d="M80.3965 2.35547L80.3965 885.775" stroke="#242424"/>
<path d="M146.396 2.35547L146.397 885.775" stroke="#242424"/>
<path d="M278.396 2.35547L278.397 885.775" stroke="#242424"/>
<path d="M689.396 2.35547L689.397 885.775" stroke="#242424"/>
<path d="M887.396 2.35547L887.397 885.775" stroke="#242424"/>
<path d="M953.396 2.35547L953.397 885.775" stroke="#242424"/>
<path d="M1019.4 2.35547L1019.4 885.775" stroke="#242424"/>
<path d="M1670.61 2.25781L0.654215 2.25782" stroke="#242424"/>
<path d="M1670.61 36.2578L0.654215 36.2578" stroke="#242424"/>
<path d="M1670.61 70.2578L0.654215 70.2578" stroke="#242424"/>
<path d="M1670.61 104.258L0.654215 104.258" stroke="#242424"/>
<path d="M1670.61 138.258L0.654215 138.258" stroke="#242424"/>
<path d="M1670.61 172.258L0.654215 172.258" stroke="#242424"/>
<path d="M1670.61 206.258L0.654215 206.258" stroke="#242424"/>
<path d="M1670.61 240.258L0.654215 240.258" stroke="#242424"/>
<path d="M1670.61 274.258L0.654215 274.258" stroke="#242424"/>
<path d="M1670.61 308.258L0.654215 308.258" stroke="#242424"/>
<path d="M1670.61 342.258L0.654215 342.258" stroke="#242424"/>
<path d="M1670.61 376.258L0.654215 376.258" stroke="#242424"/>
<path d="M1670.61 410.258L0.654215 410.258" stroke="#242424"/>
<path d="M1670.61 444.258L0.654215 444.258" stroke="#242424"/>
<path d="M1670.61 478.258L0.654215 478.258" stroke="#242424"/>
<path d="M1670.61 512.258L0.654215 512.258" stroke="#242424"/>
<path d="M1670.61 546.258L0.654215 546.258" stroke="#242424"/>
<path d="M1670.61 580.258L0.654215 580.258" stroke="#242424"/>
<path d="M1670.61 614.258L0.654215 614.258" stroke="#242424"/>
<path d="M1670.61 648.258L0.654215 648.258" stroke="#242424"/>
<path d="M1670.61 682.258L0.654215 682.258" stroke="#242424"/>
<path d="M1670.61 716.258L0.654215 716.258" stroke="#242424"/>
<path d="M1670.61 750.258L0.654215 750.258" stroke="#242424"/>
<path d="M1670.61 784.258L0.654215 784.258" stroke="#242424"/>
<path d="M1670.61 818.258L0.654215 818.258" stroke="#242424"/>
<path d="M1670.61 852.258L0.654215 852.258" stroke="#242424"/>
<path d="M1670.61 886.258L0.654215 886.258" stroke="#242424"/>
</g>
<defs>
<linearGradient id="paint0_linear_648_2688" x1="69.4426" y1="444.061" x2="1299.26" y2="444.061" gradientUnits="userSpaceOnUse">
<stop stop-color="#0F0F0F" stop-opacity="0"/>
<stop offset="0.535" stop-color="#0F0F0F"/>
<stop offset="1" stop-color="#0F0F0F" stop-opacity="0"/>
</linearGradient>
</defs>
</svg>
