<svg xmlns="http://www.w3.org/2000/svg" width="1364" height="886" fill="none" viewBox="0 0 1364 886"><mask id="b" width="1364" height="886" x="0" y="0" maskUnits="userSpaceOnUse" style="mask-type:alpha"><path fill="url(#a)" d="M.275.672h1363.21v885.002H.275z"/></mask><g stroke="#ededed" mask="url(#b)"><path d="M80.018 2.355v883.42M146.018 2.355v883.42M278.018 2.355v883.42M689.018 2.355v883.42M887.018 2.355v883.42M953.018 2.355v883.42M1019.02 2.355v883.42M1670.23 2.258H.275M1670.23 36.258H.275M1670.23 70.258H.275M1670.23 104.258H.275M1670.23 138.258H.275M1670.23 172.258H.275M1670.23 206.258H.275M1670.23 240.258H.275M1670.23 274.258H.275M1670.23 308.258H.275M1670.23 342.258H.275M1670.23 376.258H.275M1670.23 410.258H.275M1670.23 444.258H.275M1670.23 478.258H.275M1670.23 512.258H.275M1670.23 546.258H.275M1670.23 580.258H.275M1670.23 614.258H.275M1670.23 648.258H.275M1670.23 682.258H.275M1670.23 716.258H.275M1670.23 750.258H.275M1670.23 784.258H.275M1670.23 818.258H.275M1670.23 852.258H.275"/></g><defs><linearGradient id="a" x1="77.498" x2="1327.45" y1="443.173" y2="443.173" gradientUnits="userSpaceOnUse"><stop offset=".027" stop-color="#0f0f0f" stop-opacity="0"/><stop offset=".535" stop-color="#fdfdfd"/><stop offset="1" stop-color="#0f0f0f" stop-opacity="0"/></linearGradient></defs></svg>