<svg width="160" height="96" viewBox="0 0 160 96" fill="none" xmlns="http://www.w3.org/2000/svg">
<g clip-path="url(#clip0_4562_79186)">
<rect width="160" height="96" rx="8" fill="#282828"/>
<g clip-path="url(#clip1_4562_79186)">
<g filter="url(#filter0_bd_4562_79186)">
<rect x="144.477" y="32.2969" width="32" height="187.5" rx="16" transform="rotate(90 144.477 32.2969)" fill="url(#paint0_linear_4562_79186)" shape-rendering="crispEdges"/>
<rect x="143.977" y="32.7969" width="31" height="186.5" rx="15.5" transform="rotate(90 143.977 32.7969)" stroke="url(#paint1_linear_4562_79186)" shape-rendering="crispEdges"/>
</g>
<path d="M-2.12294 48.9009V52.2969H-3.25094V43.6089H-2.12294V47.1969C-1.70294 46.5849 -1.03094 46.3569 -0.370937 46.3569C1.00906 46.3569 1.69306 47.3529 1.69306 48.6369V52.2969H0.565063V48.8289C0.565063 48.0249 0.229063 47.3769 -0.778937 47.3769C-1.64294 47.3769 -2.09894 48.0489 -2.12294 48.9009ZM4.99934 44.7009V46.5249H6.24734V47.5449H4.99934V50.5449C4.99934 51.0729 5.21534 51.3369 5.80334 51.3369C5.94734 51.3369 6.15134 51.3129 6.24734 51.2889V52.2489C6.15134 52.2849 5.86334 52.3569 5.47934 52.3569C4.49534 52.3569 3.87134 51.7569 3.87134 50.7129V47.5449H2.76734V46.5249H3.07934C3.70334 46.5249 3.96734 46.1409 3.96734 45.6369V44.7009H4.99934ZM9.26497 44.7009V46.5249H10.513V47.5449H9.26497V50.5449C9.26497 51.0729 9.48097 51.3369 10.069 51.3369C10.213 51.3369 10.417 51.3129 10.513 51.2889V52.2489C10.417 52.2849 10.129 52.3569 9.74497 52.3569C8.76097 52.3569 8.13697 51.7569 8.13697 50.7129V47.5449H7.03297V46.5249H7.34497C7.96897 46.5249 8.23297 46.1409 8.23297 45.6369V44.7009H9.26497ZM13.0174 54.5769H11.9014V46.5249H12.9934V47.4249C13.3054 46.8489 13.9894 46.3929 14.9254 46.3929C16.6534 46.3929 17.5774 47.7249 17.5774 49.4049C17.5774 51.1209 16.5814 52.4529 14.8894 52.4529C14.0014 52.4529 13.3294 52.0329 13.0174 51.5169V54.5769ZM16.4254 49.4049C16.4254 48.2529 15.7774 47.3889 14.7214 47.3889C13.6894 47.3889 13.0054 48.2529 13.0054 49.4049C13.0054 50.5929 13.6894 51.4449 14.7214 51.4449C15.7654 51.4449 16.4254 50.5929 16.4254 49.4049ZM18.4747 50.7969L19.4947 50.4369C19.5667 51.0369 20.0227 51.5169 20.8387 51.5169C21.4747 51.5169 21.8227 51.1569 21.8227 50.7489C21.8227 50.3889 21.5587 50.1129 21.0787 50.0049L20.0947 49.7889C19.1947 49.5969 18.6547 48.9849 18.6547 48.1689C18.6547 47.1849 19.5787 46.3449 20.7067 46.3449C22.2907 46.3449 22.7827 47.3769 22.9027 47.8929L21.9067 48.2649C21.8587 47.9649 21.6187 47.3049 20.7067 47.3049C20.1307 47.3049 19.7467 47.6769 19.7467 48.0729C19.7467 48.4209 19.9627 48.6729 20.4067 48.7689L21.3427 48.9729C22.3867 49.2009 22.9387 49.8369 22.9387 50.6889C22.9387 51.5049 22.2547 52.4769 20.8267 52.4769C19.2427 52.4769 18.5707 51.4569 18.4747 50.7969ZM24.3925 51.5289C24.3925 51.0609 24.7525 50.6889 25.2205 50.6889C25.6885 50.6889 26.0605 51.0609 26.0605 51.5289C26.0605 51.9969 25.6885 52.3569 25.2205 52.3569C24.7525 52.3569 24.3925 51.9969 24.3925 51.5289ZM24.3805 47.3049C24.3805 46.8369 24.7405 46.4649 25.2085 46.4649C25.6765 46.4649 26.0485 46.8369 26.0485 47.3049C26.0485 47.7729 25.6765 48.1329 25.2085 48.1329C24.7405 48.1329 24.3805 47.7729 24.3805 47.3049ZM32.1689 43.7889L28.0529 52.2969H26.9609L31.0769 43.7889H32.1689ZM35.6963 43.7889L31.5803 52.2969H30.4883L34.6043 43.7889H35.6963ZM37.9742 54.7089H36.7382L38.1782 51.6609L35.6942 46.5249H36.9902L38.7902 50.5089L40.5182 46.5249H41.7302L37.9742 54.7089ZM45.0531 51.4689C46.0131 51.4689 46.8531 50.7489 46.8531 49.4049C46.8531 48.0729 46.0131 47.3529 45.0531 47.3529C44.0931 47.3529 43.2531 48.0729 43.2531 49.4049C43.2531 50.7489 44.0931 51.4689 45.0531 51.4689ZM45.0531 46.3449C46.7811 46.3449 48.0051 47.6529 48.0051 49.4049C48.0051 51.1689 46.7811 52.4769 45.0531 52.4769C43.3251 52.4769 42.1011 51.1689 42.1011 49.4049C42.1011 47.6529 43.3251 46.3449 45.0531 46.3449ZM53.1937 51.6009C52.8817 52.2009 52.1617 52.4769 51.4897 52.4769C50.1457 52.4769 49.3297 51.4689 49.3297 50.1609V46.5249H50.4577V49.9929C50.4577 50.7849 50.8177 51.4809 51.7657 51.4809C52.6777 51.4809 53.1337 50.8809 53.1337 50.0049V46.5249H54.2617V51.2289C54.2617 51.6849 54.2977 52.0929 54.3217 52.2969H53.2417C53.2177 52.1649 53.1937 51.8409 53.1937 51.6009ZM59.3906 46.4649V47.6649C59.2226 47.6409 59.0546 47.6289 58.8986 47.6289C57.9506 47.6289 57.3146 48.1329 57.3146 49.4049V52.2969H56.1866V46.5249H57.2906V47.5329C57.7106 46.6449 58.4306 46.4289 59.0186 46.4289C59.1746 46.4289 59.3306 46.4529 59.3906 46.4649ZM61.2062 49.3929C61.2062 50.5809 61.8182 51.4569 62.8982 51.4569C63.9302 51.4569 64.5662 50.5569 64.5662 49.3689C64.5662 48.1809 63.9422 47.3649 62.9102 47.3649C61.8782 47.3649 61.2062 48.2049 61.2062 49.3929ZM64.5782 51.5169V51.4209C64.3022 51.9729 63.6902 52.4529 62.7902 52.4529C61.0982 52.4529 60.0542 51.1089 60.0542 49.3929C60.0542 47.7609 61.1582 46.3689 62.7902 46.3689C63.8102 46.3689 64.3622 46.8729 64.5542 47.3409V43.6089H65.6702V51.2289C65.6702 51.7809 65.7182 52.2009 65.7302 52.2969H64.6382C64.6142 52.1649 64.5782 51.8649 64.5782 51.5169ZM70.0609 51.4689C71.0209 51.4689 71.8609 50.7489 71.8609 49.4049C71.8609 48.0729 71.0209 47.3529 70.0609 47.3529C69.1009 47.3529 68.2609 48.0729 68.2609 49.4049C68.2609 50.7489 69.1009 51.4689 70.0609 51.4689ZM70.0609 46.3449C71.7889 46.3449 73.0129 47.6529 73.0129 49.4049C73.0129 51.1689 71.7889 52.4769 70.0609 52.4769C68.3329 52.4769 67.1089 51.1689 67.1089 49.4049C67.1089 47.6529 68.3329 46.3449 70.0609 46.3449ZM75.5721 52.2969H74.4561V46.5249H75.5361V47.2929C75.8961 46.6569 76.6161 46.3569 77.2881 46.3569C78.0081 46.3569 78.7041 46.7049 79.0161 47.4489C79.4721 46.6209 80.2161 46.3569 80.9481 46.3569C81.9561 46.3569 82.9401 47.0409 82.9401 48.5529V52.2969H81.8241V48.6729C81.8241 47.9169 81.4521 47.3529 80.6001 47.3529C79.8081 47.3529 79.2681 47.9769 79.2681 48.8049V52.2969H78.1401V48.6729C78.1401 47.9289 77.7801 47.3529 76.9161 47.3529C76.1121 47.3529 75.5721 47.9529 75.5721 48.8169V52.2969ZM84.3852 50.7489C84.3852 49.7169 85.1412 49.1409 86.1372 48.9969L87.6972 48.7689C88.0452 48.7209 88.1412 48.5409 88.1412 48.3369C88.1412 47.7729 87.7692 47.3049 86.8932 47.3049C86.1012 47.3049 85.6572 47.7969 85.5852 48.4689L84.5052 48.2169C84.6252 47.1129 85.6212 46.3449 86.8692 46.3449C88.5972 46.3449 89.2692 47.3289 89.2692 48.4569V51.3489C89.2692 51.8529 89.3172 52.1529 89.3412 52.2969H88.2372C88.2132 52.1529 88.1772 51.9369 88.1772 51.5169C87.9252 51.9249 87.3492 52.4769 86.3172 52.4769C85.1412 52.4769 84.3852 51.6609 84.3852 50.7489ZM86.4732 51.5289C87.3972 51.5289 88.1412 51.0849 88.1412 49.8249V49.5609L86.3772 49.8249C85.8972 49.8969 85.5372 50.1729 85.5372 50.6889C85.5372 51.1209 85.8972 51.5289 86.4732 51.5289ZM92.1424 52.2969H91.0264V46.5249H92.1424V52.2969ZM90.7744 44.3409C90.7744 43.8849 91.1344 43.5249 91.5784 43.5249C92.0344 43.5249 92.3944 43.8849 92.3944 44.3409C92.3944 44.7849 92.0344 45.1449 91.5784 45.1449C91.1344 45.1449 90.7744 44.7849 90.7744 44.3409ZM95.1896 48.9609V52.2969H94.0616V46.5249H95.1656V47.3529C95.5856 46.6329 96.2696 46.3569 96.9416 46.3569C98.3216 46.3569 99.0056 47.3529 99.0056 48.6369V52.2969H97.8776V48.8289C97.8776 48.0249 97.5416 47.3769 96.5336 47.3769C95.6456 47.3769 95.1896 48.0849 95.1896 48.9609ZM100.68 51.5289C100.68 51.0609 101.04 50.6889 101.508 50.6889C101.976 50.6889 102.348 51.0609 102.348 51.5289C102.348 51.9969 101.976 52.3569 101.508 52.3569C101.04 52.3569 100.68 51.9969 100.68 51.5289ZM106.4 47.3889C105.488 47.3889 104.648 48.0609 104.648 49.4049C104.648 50.7249 105.476 51.4329 106.412 51.4329C107.492 51.4329 107.888 50.7009 108.02 50.2449L109.016 50.6769C108.74 51.5049 107.912 52.4769 106.412 52.4769C104.732 52.4769 103.496 51.1569 103.496 49.4049C103.496 47.6049 104.756 46.3449 106.4 46.3449C107.936 46.3449 108.728 47.3049 108.968 48.1809L107.948 48.6129C107.804 48.0489 107.384 47.3889 106.4 47.3889ZM112.752 51.4689C113.712 51.4689 114.552 50.7489 114.552 49.4049C114.552 48.0729 113.712 47.3529 112.752 47.3529C111.792 47.3529 110.952 48.0729 110.952 49.4049C110.952 50.7489 111.792 51.4689 112.752 51.4689ZM112.752 46.3449C114.48 46.3449 115.704 47.6529 115.704 49.4049C115.704 51.1689 114.48 52.4769 112.752 52.4769C111.024 52.4769 109.8 51.1689 109.8 49.4049C109.8 47.6529 111.024 46.3449 112.752 46.3449ZM118.264 52.2969H117.148V46.5249H118.228V47.2929C118.588 46.6569 119.308 46.3569 119.98 46.3569C120.7 46.3569 121.396 46.7049 121.708 47.4489C122.164 46.6209 122.908 46.3569 123.64 46.3569C124.648 46.3569 125.632 47.0409 125.632 48.5529V52.2969H124.516V48.6729C124.516 47.9169 124.144 47.3529 123.292 47.3529C122.5 47.3529 121.96 47.9769 121.96 48.8049V52.2969H120.832V48.6729C120.832 47.9289 120.472 47.3529 119.608 47.3529C118.804 47.3529 118.264 47.9529 118.264 48.8169V52.2969Z" fill="white"/>
</g>
</g>
<rect x="0.5" y="0.5" width="159" height="95" rx="7.5" stroke="#2E2E2E"/>
<defs>
<filter id="filter0_bd_4562_79186" x="-56.0234" y="19.2969" width="213.5" height="58" filterUnits="userSpaceOnUse" color-interpolation-filters="sRGB">
<feFlood flood-opacity="0" result="BackgroundImageFix"/>
<feGaussianBlur in="BackgroundImageFix" stdDeviation="6.5"/>
<feComposite in2="SourceAlpha" operator="in" result="effect1_backgroundBlur_4562_79186"/>
<feColorMatrix in="SourceAlpha" type="matrix" values="0 0 0 0 0 0 0 0 0 0 0 0 0 0 0 0 0 0 127 0" result="hardAlpha"/>
<feOffset/>
<feGaussianBlur stdDeviation="4"/>
<feComposite in2="hardAlpha" operator="out"/>
<feColorMatrix type="matrix" values="0 0 0 0 0.360784 0 0 0 0 0.964706 0 0 0 0 0.615686 0 0 0 0.33 0"/>
<feBlend mode="normal" in2="effect1_backgroundBlur_4562_79186" result="effect2_dropShadow_4562_79186"/>
<feBlend mode="normal" in="SourceGraphic" in2="effect2_dropShadow_4562_79186" result="shape"/>
</filter>
<linearGradient id="paint0_linear_4562_79186" x1="144.477" y1="219.797" x2="206.665" y2="209.183" gradientUnits="userSpaceOnUse">
<stop stop-color="#1C1C1C" stop-opacity="0"/>
<stop offset="1" stop-color="#929292" stop-opacity="0.26"/>
</linearGradient>
<linearGradient id="paint1_linear_4562_79186" x1="144.477" y1="219.797" x2="206.665" y2="209.183" gradientUnits="userSpaceOnUse">
<stop stop-color="#707070"/>
<stop offset="1" stop-color="#3E3E3E" stop-opacity="0"/>
</linearGradient>
<clipPath id="clip0_4562_79186">
<rect width="160" height="96" rx="8" fill="white"/>
</clipPath>
<clipPath id="clip1_4562_79186">
<rect width="218" height="124.352" fill="white" transform="translate(-29)"/>
</clipPath>
</defs>
</svg>
