<svg width="160" height="96" viewBox="0 0 160 96" fill="none" xmlns="http://www.w3.org/2000/svg">
<g clip-path="url(#clip0_4562_79184)">
<rect width="160" height="96" rx="8" fill="#282828"/>
<g clip-path="url(#clip1_4562_79184)">
<g filter="url(#filter0_b_4562_79184)">
<rect x="144.477" y="32.2969" width="32" height="187.5" rx="16" transform="rotate(90 144.477 32.2969)" fill="url(#paint0_linear_4562_79184)"/>
<rect x="143.977" y="32.7969" width="31" height="186.5" rx="15.5" transform="rotate(90 143.977 32.7969)" stroke="url(#paint1_linear_4562_79184)"/>
</g>
<path d="M-88.4354 48.9009V52.2969H-89.5634V43.6089H-88.4354V47.1969C-88.0154 46.5849 -87.3434 46.3569 -86.6834 46.3569C-85.3034 46.3569 -84.6194 47.3529 -84.6194 48.6369V52.2969H-85.7474V48.8289C-85.7474 48.0249 -86.0834 47.3769 -87.0914 47.3769C-87.9554 47.3769 -88.4114 48.0489 -88.4354 48.9009ZM-81.3132 44.7009V46.5249H-80.0652V47.5449H-81.3132V50.5449C-81.3132 51.0729 -81.0972 51.3369 -80.5092 51.3369C-80.3652 51.3369 -80.1612 51.3129 -80.0652 51.2889V52.2489C-80.1612 52.2849 -80.4492 52.3569 -80.8332 52.3569C-81.8172 52.3569 -82.4412 51.7569 -82.4412 50.7129V47.5449H-83.5452V46.5249H-83.2332C-82.6092 46.5249 -82.3452 46.1409 -82.3452 45.6369V44.7009H-81.3132ZM-77.0475 44.7009V46.5249H-75.7995V47.5449H-77.0475V50.5449C-77.0475 51.0729 -76.8315 51.3369 -76.2435 51.3369C-76.0995 51.3369 -75.8955 51.3129 -75.7995 51.2889V52.2489C-75.8955 52.2849 -76.1835 52.3569 -76.5675 52.3569C-77.5515 52.3569 -78.1755 51.7569 -78.1755 50.7129V47.5449H-79.2795V46.5249H-78.9675C-78.3435 46.5249 -78.0795 46.1409 -78.0795 45.6369V44.7009H-77.0475ZM-73.2951 54.5769H-74.4111V46.5249H-73.3191V47.4249C-73.0071 46.8489 -72.3231 46.3929 -71.3871 46.3929C-69.6591 46.3929 -68.7351 47.7249 -68.7351 49.4049C-68.7351 51.1209 -69.7311 52.4529 -71.4231 52.4529C-72.3111 52.4529 -72.9831 52.0329 -73.2951 51.5169V54.5769ZM-69.8871 49.4049C-69.8871 48.2529 -70.5351 47.3889 -71.5911 47.3889C-72.6231 47.3889 -73.3071 48.2529 -73.3071 49.4049C-73.3071 50.5929 -72.6231 51.4449 -71.5911 51.4449C-70.5471 51.4449 -69.8871 50.5929 -69.8871 49.4049ZM-67.8378 50.7969L-66.8178 50.4369C-66.7458 51.0369 -66.2898 51.5169 -65.4738 51.5169C-64.8378 51.5169 -64.4898 51.1569 -64.4898 50.7489C-64.4898 50.3889 -64.7538 50.1129 -65.2338 50.0049L-66.2178 49.7889C-67.1178 49.5969 -67.6578 48.9849 -67.6578 48.1689C-67.6578 47.1849 -66.7338 46.3449 -65.6058 46.3449C-64.0218 46.3449 -63.5298 47.3769 -63.4098 47.8929L-64.4058 48.2649C-64.4538 47.9649 -64.6938 47.3049 -65.6058 47.3049C-66.1818 47.3049 -66.5658 47.6769 -66.5658 48.0729C-66.5658 48.4209 -66.3498 48.6729 -65.9058 48.7689L-64.9698 48.9729C-63.9258 49.2009 -63.3738 49.8369 -63.3738 50.6889C-63.3738 51.5049 -64.0578 52.4769 -65.4858 52.4769C-67.0698 52.4769 -67.7418 51.4569 -67.8378 50.7969ZM-61.92 51.5289C-61.92 51.0609 -61.56 50.6889 -61.092 50.6889C-60.624 50.6889 -60.252 51.0609 -60.252 51.5289C-60.252 51.9969 -60.624 52.3569 -61.092 52.3569C-61.56 52.3569 -61.92 51.9969 -61.92 51.5289ZM-61.932 47.3049C-61.932 46.8369 -61.572 46.4649 -61.104 46.4649C-60.636 46.4649 -60.264 46.8369 -60.264 47.3049C-60.264 47.7729 -60.636 48.1329 -61.104 48.1329C-61.572 48.1329 -61.932 47.7729 -61.932 47.3049ZM-54.1436 43.7889L-58.2596 52.2969H-59.3516L-55.2356 43.7889H-54.1436ZM-50.6162 43.7889L-54.7322 52.2969H-55.8242L-51.7082 43.7889H-50.6162ZM-51.162 50.7969L-50.142 50.4369C-50.07 51.0369 -49.614 51.5169 -48.798 51.5169C-48.162 51.5169 -47.814 51.1569 -47.814 50.7489C-47.814 50.3889 -48.078 50.1129 -48.558 50.0049L-49.542 49.7889C-50.442 49.5969 -50.982 48.9849 -50.982 48.1689C-50.982 47.1849 -50.058 46.3449 -48.93 46.3449C-47.346 46.3449 -46.854 47.3769 -46.734 47.8929L-47.73 48.2649C-47.778 47.9649 -48.018 47.3049 -48.93 47.3049C-49.506 47.3049 -49.89 47.6769 -49.89 48.0729C-49.89 48.4209 -49.674 48.6729 -49.23 48.7689L-48.294 48.9729C-47.25 49.2009 -46.698 49.8369 -46.698 50.6889C-46.698 51.5049 -47.382 52.4769 -48.81 52.4769C-50.394 52.4769 -51.066 51.4569 -51.162 50.7969ZM-40.0828 54.5769H-41.1988V51.4809C-41.4988 52.0689 -42.1468 52.4529 -42.9988 52.4529C-44.6548 52.4529 -45.7348 51.0729 -45.7348 49.3929C-45.7348 47.7609 -44.7148 46.3809 -43.0228 46.3809C-42.0268 46.3809 -41.4148 46.8969 -41.1748 47.4129V46.5249H-40.0828V54.5769ZM-44.5828 49.3929C-44.5828 50.5809 -43.9228 51.4569 -42.8908 51.4569C-41.8708 51.4569 -41.1868 50.5809 -41.1868 49.3929C-41.1868 48.2049 -41.8708 47.3769 -42.8908 47.3769C-43.9348 47.3769 -44.5828 48.2049 -44.5828 49.3929ZM-33.3382 46.5249L-35.6422 52.2969H-36.7822L-39.1222 46.5249H-37.8502L-36.2062 50.9769L-34.5502 46.5249H-33.3382ZM-29.179 47.5449H-30.571V52.2969H-31.735V47.5449H-32.803V46.5249H-31.735V45.5529C-31.735 44.2689 -30.883 43.5729 -29.839 43.5729C-29.455 43.5729 -29.215 43.6569 -29.167 43.6929V44.7009C-29.227 44.6769 -29.371 44.6289 -29.659 44.6289C-30.055 44.6289 -30.571 44.8209 -30.571 45.6129V46.5249H-29.179V47.5449ZM-27.5321 49.3929C-27.5321 50.5809 -26.9201 51.4569 -25.8401 51.4569C-24.8081 51.4569 -24.1721 50.5569 -24.1721 49.3689C-24.1721 48.1809 -24.7961 47.3649 -25.8281 47.3649C-26.8601 47.3649 -27.5321 48.2049 -27.5321 49.3929ZM-24.1601 51.5169V51.4209C-24.4361 51.9729 -25.0481 52.4529 -25.9481 52.4529C-27.6401 52.4529 -28.6841 51.1089 -28.6841 49.3929C-28.6841 47.7609 -27.5801 46.3689 -25.9481 46.3689C-24.9281 46.3689 -24.3761 46.8729 -24.1841 47.3409V43.6089H-23.0681V51.2289C-23.0681 51.7809 -23.0201 52.2009 -23.0081 52.2969H-24.1001C-24.1241 52.1649 -24.1601 51.8649 -24.1601 51.5169ZM-17.404 51.6009C-17.716 52.2009 -18.436 52.4769 -19.108 52.4769C-20.452 52.4769 -21.268 51.4689 -21.268 50.1609V46.5249H-20.14V49.9929C-20.14 50.7849 -19.78 51.4809 -18.832 51.4809C-17.92 51.4809 -17.464 50.8809 -17.464 50.0049V46.5249H-16.336V51.2289C-16.336 51.6849 -16.3 52.0929 -16.276 52.2969H-17.356C-17.38 52.1649 -17.404 51.8409 -17.404 51.6009ZM-13.2951 52.2969H-14.4111V46.5249H-13.2951V52.2969ZM-14.6631 44.3409C-14.6631 43.8849 -14.3031 43.5249 -13.8591 43.5249C-13.4031 43.5249 -13.0431 43.8849 -13.0431 44.3409C-13.0431 44.7849 -13.4031 45.1449 -13.8591 45.1449C-14.3031 45.1449 -14.6631 44.7849 -14.6631 44.3409ZM-11.7359 50.7489C-11.7359 49.7169 -10.9799 49.1409 -9.98394 48.9969L-8.42394 48.7689C-8.07594 48.7209 -7.97994 48.5409 -7.97994 48.3369C-7.97994 47.7729 -8.35194 47.3049 -9.22794 47.3049C-10.0199 47.3049 -10.4639 47.7969 -10.5359 48.4689L-11.6159 48.2169C-11.4959 47.1129 -10.4999 46.3449 -9.25194 46.3449C-7.52394 46.3449 -6.85194 47.3289 -6.85194 48.4569V51.3489C-6.85194 51.8529 -6.80394 52.1529 -6.77994 52.2969H-7.88394C-7.90794 52.1529 -7.94394 51.9369 -7.94394 51.5169C-8.19594 51.9249 -8.77194 52.4769 -9.80394 52.4769C-10.9799 52.4769 -11.7359 51.6609 -11.7359 50.7489ZM-9.64794 51.5289C-8.72394 51.5289 -7.97994 51.0849 -7.97994 49.8249V49.5609L-9.74394 49.8249C-10.2239 49.8969 -10.5839 50.1729 -10.5839 50.6889C-10.5839 51.1209 -10.2239 51.5289 -9.64794 51.5289ZM-1.84269 46.5249H-0.678687L0.821313 50.8689L2.09331 46.5249H3.28131L1.40931 52.2969H0.245313L-1.29069 47.9049L-2.79069 52.2969H-3.97869L-5.87469 46.5249H-4.63869L-3.34269 50.8689L-1.84269 46.5249ZM4.97575 49.3929C4.97575 50.5809 5.58775 51.4569 6.66775 51.4569C7.69975 51.4569 8.33575 50.5569 8.33575 49.3689C8.33575 48.1809 7.71175 47.3649 6.67975 47.3649C5.64775 47.3649 4.97575 48.2049 4.97575 49.3929ZM8.34775 51.5169V51.4209C8.07175 51.9729 7.45975 52.4529 6.55975 52.4529C4.86775 52.4529 3.82375 51.1089 3.82375 49.3929C3.82375 47.7609 4.92775 46.3689 6.55975 46.3689C7.57975 46.3689 8.13175 46.8729 8.32375 47.3409V43.6089H9.43975V51.2289C9.43975 51.7809 9.48775 52.2009 9.49975 52.2969H8.40775C8.38375 52.1649 8.34775 51.8649 8.34775 51.5169ZM14.6104 46.5249H15.7744L17.2744 50.8689L18.5464 46.5249H19.7344L17.8624 52.2969H16.6984L15.1624 47.9049L13.6624 52.2969H12.4744L10.5784 46.5249H11.8144L13.1104 50.8689L14.6104 46.5249ZM22.0021 48.9609V52.2969H20.8741V46.5249H21.9781V47.3529C22.3981 46.6329 23.0821 46.3569 23.7541 46.3569C25.1341 46.3569 25.8181 47.3529 25.8181 48.6369V52.2969H24.6901V48.8289C24.6901 48.0249 24.3541 47.3769 23.3461 47.3769C22.4581 47.3769 22.0021 48.0849 22.0021 48.9609ZM28.7403 48.9609V52.2969H27.6123V46.5249H28.7163V47.3529C29.1363 46.6329 29.8203 46.3569 30.4923 46.3569C31.8723 46.3569 32.5563 47.3529 32.5563 48.6369V52.2969H31.4283V48.8289C31.4283 48.0249 31.0923 47.3769 30.0843 47.3769C29.1963 47.3769 28.7403 48.0849 28.7403 48.9609ZM33.9906 50.7489C33.9906 49.7169 34.7466 49.1409 35.7426 48.9969L37.3026 48.7689C37.6506 48.7209 37.7466 48.5409 37.7466 48.3369C37.7466 47.7729 37.3746 47.3049 36.4986 47.3049C35.7066 47.3049 35.2626 47.7969 35.1906 48.4689L34.1106 48.2169C34.2306 47.1129 35.2266 46.3449 36.4746 46.3449C38.2026 46.3449 38.8746 47.3289 38.8746 48.4569V51.3489C38.8746 51.8529 38.9226 52.1529 38.9466 52.2969H37.8426C37.8186 52.1529 37.7826 51.9369 37.7826 51.5169C37.5306 51.9249 36.9546 52.4769 35.9226 52.4769C34.7466 52.4769 33.9906 51.6609 33.9906 50.7489ZM36.0786 51.5289C37.0026 51.5289 37.7466 51.0849 37.7466 49.8249V49.5609L35.9826 49.8249C35.5026 49.8969 35.1426 50.1729 35.1426 50.6889C35.1426 51.1209 35.5026 51.5289 36.0786 51.5289ZM41.3039 49.3929C41.3039 50.5809 41.9159 51.4569 42.9959 51.4569C44.0279 51.4569 44.6639 50.5569 44.6639 49.3689C44.6639 48.1809 44.0399 47.3649 43.0079 47.3649C41.9759 47.3649 41.3039 48.2049 41.3039 49.3929ZM44.6759 51.5169V51.4209C44.3999 51.9729 43.7879 52.4529 42.8879 52.4529C41.1959 52.4529 40.1519 51.1089 40.1519 49.3929C40.1519 47.7609 41.2559 46.3689 42.8879 46.3689C43.9079 46.3689 44.4599 46.8729 44.6519 47.3409V43.6089H45.7679V51.2289C45.7679 51.7809 45.8159 52.2009 45.8279 52.2969H44.7359C44.7119 52.1649 44.6759 51.8649 44.6759 51.5169ZM47.3266 50.7489C47.3266 49.7169 48.0826 49.1409 49.0786 48.9969L50.6386 48.7689C50.9866 48.7209 51.0826 48.5409 51.0826 48.3369C51.0826 47.7729 50.7106 47.3049 49.8346 47.3049C49.0426 47.3049 48.5986 47.7969 48.5266 48.4689L47.4466 48.2169C47.5666 47.1129 48.5626 46.3449 49.8106 46.3449C51.5386 46.3449 52.2106 47.3289 52.2106 48.4569V51.3489C52.2106 51.8529 52.2586 52.1529 52.2826 52.2969H51.1786C51.1546 52.1529 51.1186 51.9369 51.1186 51.5169C50.8666 51.9249 50.2906 52.4769 49.2586 52.4769C48.0826 52.4769 47.3266 51.6609 47.3266 50.7489ZM49.4146 51.5289C50.3386 51.5289 51.0826 51.0849 51.0826 49.8249V49.5609L49.3186 49.8249C48.8386 49.8969 48.4786 50.1729 48.4786 50.6889C48.4786 51.1209 48.8386 51.5289 49.4146 51.5289ZM54.6398 49.3929C54.6398 50.5809 55.2518 51.4569 56.3318 51.4569C57.3638 51.4569 57.9998 50.5569 57.9998 49.3689C57.9998 48.1809 57.3758 47.3649 56.3438 47.3649C55.3118 47.3649 54.6398 48.2049 54.6398 49.3929ZM58.0118 51.5169V51.4209C57.7358 51.9729 57.1238 52.4529 56.2238 52.4529C54.5318 52.4529 53.4878 51.1089 53.4878 49.3929C53.4878 47.7609 54.5918 46.3689 56.2238 46.3689C57.2438 46.3689 57.7958 46.8729 57.9878 47.3409V43.6089H59.1038V51.2289C59.1038 51.7809 59.1518 52.2009 59.1638 52.2969H58.0718C58.0478 52.1649 58.0118 51.8649 58.0118 51.5169ZM60.9025 51.5289C60.9025 51.0609 61.2625 50.6889 61.7305 50.6889C62.1985 50.6889 62.5705 51.0609 62.5705 51.5289C62.5705 51.9969 62.1985 52.3569 61.7305 52.3569C61.2625 52.3569 60.9025 51.9969 60.9025 51.5289ZM63.8341 50.7969L64.8541 50.4369C64.9261 51.0369 65.3821 51.5169 66.1981 51.5169C66.8341 51.5169 67.1821 51.1569 67.1821 50.7489C67.1821 50.3889 66.9181 50.1129 66.4381 50.0049L65.4541 49.7889C64.5541 49.5969 64.0141 48.9849 64.0141 48.1689C64.0141 47.1849 64.9381 46.3449 66.0661 46.3449C67.6501 46.3449 68.1421 47.3769 68.2621 47.8929L67.2661 48.2649C67.2181 47.9649 66.9781 47.3049 66.0661 47.3049C65.4901 47.3049 65.1061 47.6769 65.1061 48.0729C65.1061 48.4209 65.3221 48.6729 65.7661 48.7689L66.7021 48.9729C67.7461 49.2009 68.2981 49.8369 68.2981 50.6889C68.2981 51.5049 67.6141 52.4769 66.1861 52.4769C64.6021 52.4769 63.9301 51.4569 63.8341 50.7969ZM73.5453 51.6009C73.2333 52.2009 72.5133 52.4769 71.8413 52.4769C70.4973 52.4769 69.6813 51.4689 69.6813 50.1609V46.5249H70.8093V49.9929C70.8093 50.7849 71.1693 51.4809 72.1173 51.4809C73.0293 51.4809 73.4853 50.8809 73.4853 50.0049V46.5249H74.6133V51.2289C74.6133 51.6849 74.6493 52.0929 74.6733 52.2969H73.5933C73.5693 52.1649 73.5453 51.8409 73.5453 51.6009ZM77.6541 54.5769H76.5381V46.5249H77.6301V47.4249C77.9421 46.8489 78.6261 46.3929 79.5621 46.3929C81.2901 46.3929 82.2141 47.7249 82.2141 49.4049C82.2141 51.1209 81.2181 52.4529 79.5261 52.4529C78.6381 52.4529 77.9661 52.0329 77.6541 51.5169V54.5769ZM81.0621 49.4049C81.0621 48.2529 80.4141 47.3889 79.3581 47.3889C78.3261 47.3889 77.6421 48.2529 77.6421 49.4049C77.6421 50.5929 78.3261 51.4449 79.3581 51.4449C80.4021 51.4449 81.0621 50.5929 81.0621 49.4049ZM83.2914 50.7489C83.2914 49.7169 84.0474 49.1409 85.0434 48.9969L86.6034 48.7689C86.9514 48.7209 87.0474 48.5409 87.0474 48.3369C87.0474 47.7729 86.6754 47.3049 85.7994 47.3049C85.0074 47.3049 84.5634 47.7969 84.4914 48.4689L83.4114 48.2169C83.5314 47.1129 84.5274 46.3449 85.7754 46.3449C87.5034 46.3449 88.1754 47.3289 88.1754 48.4569V51.3489C88.1754 51.8529 88.2234 52.1529 88.2474 52.2969H87.1434C87.1194 52.1529 87.0834 51.9369 87.0834 51.5169C86.8314 51.9249 86.2554 52.4769 85.2234 52.4769C84.0474 52.4769 83.2914 51.6609 83.2914 50.7489ZM85.3794 51.5289C86.3034 51.5289 87.0474 51.0849 87.0474 49.8249V49.5609L85.2834 49.8249C84.8034 49.8969 84.4434 50.1729 84.4434 50.6889C84.4434 51.1209 84.8034 51.5289 85.3794 51.5289ZM91.0487 52.2969H89.9327V43.6089H91.0487V47.3409C91.3247 46.8249 91.9967 46.3569 92.9567 46.3569C94.7087 46.3569 95.6087 47.7009 95.6087 49.3809C95.6087 51.0969 94.6367 52.4529 92.9207 52.4529C92.0687 52.4529 91.4087 52.0809 91.0487 51.4569V52.2969ZM94.4567 49.3809C94.4567 48.1329 93.7967 47.3529 92.7527 47.3529C91.7567 47.3529 91.0367 48.1329 91.0367 49.3809C91.0367 50.6289 91.7567 51.4449 92.7527 51.4449C93.7847 51.4449 94.4567 50.6289 94.4567 49.3809ZM96.6859 50.7489C96.6859 49.7169 97.4419 49.1409 98.4379 48.9969L99.9979 48.7689C100.346 48.7209 100.442 48.5409 100.442 48.3369C100.442 47.7729 100.07 47.3049 99.1939 47.3049C98.4019 47.3049 97.9579 47.7969 97.8859 48.4689L96.8059 48.2169C96.9259 47.1129 97.9219 46.3449 99.1699 46.3449C100.898 46.3449 101.57 47.3289 101.57 48.4569V51.3489C101.57 51.8529 101.618 52.1529 101.642 52.2969H100.538C100.514 52.1529 100.478 51.9369 100.478 51.5169C100.226 51.9249 99.6499 52.4769 98.6179 52.4769C97.4419 52.4769 96.6859 51.6609 96.6859 50.7489ZM98.7739 51.5289C99.6979 51.5289 100.442 51.0849 100.442 49.8249V49.5609L98.6779 49.8249C98.1979 49.8969 97.8379 50.1729 97.8379 50.6889C97.8379 51.1209 98.1979 51.5289 98.7739 51.5289ZM102.787 50.7969L103.807 50.4369C103.879 51.0369 104.335 51.5169 105.151 51.5169C105.787 51.5169 106.135 51.1569 106.135 50.7489C106.135 50.3889 105.871 50.1129 105.391 50.0049L104.407 49.7889C103.507 49.5969 102.967 48.9849 102.967 48.1689C102.967 47.1849 103.891 46.3449 105.019 46.3449C106.603 46.3449 107.095 47.3769 107.215 47.8929L106.219 48.2649C106.171 47.9649 105.931 47.3049 105.019 47.3049C104.443 47.3049 104.059 47.6769 104.059 48.0729C104.059 48.4209 104.275 48.6729 104.719 48.7689L105.655 48.9729C106.699 49.2009 107.251 49.8369 107.251 50.6889C107.251 51.5049 106.567 52.4769 105.139 52.4769C103.555 52.4769 102.883 51.4569 102.787 50.7969ZM109.426 48.8169H112.582C112.558 47.9889 112.018 47.3409 110.998 47.3409C110.05 47.3409 109.474 48.0729 109.426 48.8169ZM112.75 50.3169L113.722 50.6529C113.398 51.6729 112.474 52.4769 111.13 52.4769C109.582 52.4769 108.226 51.3489 108.226 49.3929C108.226 47.5809 109.534 46.3449 110.986 46.3449C112.762 46.3449 113.758 47.5689 113.758 49.3689C113.758 49.5129 113.746 49.6569 113.734 49.7289H109.39C109.414 50.7609 110.158 51.4809 111.13 51.4809C112.066 51.4809 112.534 50.9649 112.75 50.3169ZM114.903 51.5289C114.903 51.0609 115.263 50.6889 115.731 50.6889C116.199 50.6889 116.571 51.0609 116.571 51.5289C116.571 51.9969 116.199 52.3569 115.731 52.3569C115.263 52.3569 114.903 51.9969 114.903 51.5289ZM120.622 47.3889C119.71 47.3889 118.87 48.0609 118.87 49.4049C118.87 50.7249 119.698 51.4329 120.634 51.4329C121.714 51.4329 122.11 50.7009 122.242 50.2449L123.238 50.6769C122.962 51.5049 122.134 52.4769 120.634 52.4769C118.954 52.4769 117.718 51.1569 117.718 49.4049C117.718 47.6049 118.978 46.3449 120.622 46.3449C122.158 46.3449 122.95 47.3049 123.19 48.1809L122.17 48.6129C122.026 48.0489 121.606 47.3889 120.622 47.3889ZM126.975 51.4689C127.935 51.4689 128.775 50.7489 128.775 49.4049C128.775 48.0729 127.935 47.3529 126.975 47.3529C126.015 47.3529 125.175 48.0729 125.175 49.4049C125.175 50.7489 126.015 51.4689 126.975 51.4689ZM126.975 46.3449C128.703 46.3449 129.927 47.6529 129.927 49.4049C129.927 51.1689 128.703 52.4769 126.975 52.4769C125.247 52.4769 124.023 51.1689 124.023 49.4049C124.023 47.6529 125.247 46.3449 126.975 46.3449Z" fill="white"/>
</g>
</g>
<rect x="0.5" y="0.5" width="159" height="95" rx="7.5" stroke="#2E2E2E"/>
<defs>
<filter id="filter0_b_4562_79184" x="-56.0234" y="19.2969" width="213.5" height="58" filterUnits="userSpaceOnUse" color-interpolation-filters="sRGB">
<feFlood flood-opacity="0" result="BackgroundImageFix"/>
<feGaussianBlur in="BackgroundImageFix" stdDeviation="6.5"/>
<feComposite in2="SourceAlpha" operator="in" result="effect1_backgroundBlur_4562_79184"/>
<feBlend mode="normal" in="SourceGraphic" in2="effect1_backgroundBlur_4562_79184" result="shape"/>
</filter>
<linearGradient id="paint0_linear_4562_79184" x1="144.477" y1="219.797" x2="206.665" y2="209.183" gradientUnits="userSpaceOnUse">
<stop stop-color="#1C1C1C" stop-opacity="0"/>
<stop offset="1" stop-color="#929292" stop-opacity="0.26"/>
</linearGradient>
<linearGradient id="paint1_linear_4562_79184" x1="144.477" y1="219.797" x2="206.665" y2="209.183" gradientUnits="userSpaceOnUse">
<stop stop-color="#707070"/>
<stop offset="1" stop-color="#3E3E3E" stop-opacity="0"/>
</linearGradient>
<clipPath id="clip0_4562_79184">
<rect width="160" height="96" rx="8" fill="white"/>
</clipPath>
<clipPath id="clip1_4562_79184">
<rect width="218" height="124.352" fill="white" transform="translate(-29)"/>
</clipPath>
</defs>
</svg>
