<svg width="24" height="23" viewBox="0 0 24 23" fill="none" xmlns="http://www.w3.org/2000/svg">
<path d="M5.742 8.62465H18.092V14.3747H5.742V8.62465Z" stroke="currentColor" stroke-width="1.4375" stroke-miterlimit="10" stroke-linecap="round" stroke-linejoin="round"/>
<path d="M4.71875 15.815C4.71875 15.021 5.36234 14.3775 6.15625 14.3775H17.6563C18.4502 14.3775 19.0938 15.021 19.0938 15.815V18.69C19.0938 19.4839 18.4502 20.1275 17.6563 20.1275H6.15625C5.36234 20.1275 4.71875 19.4839 4.71875 18.69V15.815Z" stroke="currentColor" stroke-width="1.4375" stroke-miterlimit="10" stroke-linecap="round" stroke-linejoin="round"/>
<path d="M4.71875 4.3125C4.71875 3.51859 5.36234 2.875 6.15625 2.875H17.6563C18.4502 2.875 19.0938 3.51859 19.0938 4.3125V7.1875C19.0938 7.98141 18.4502 8.625 17.6563 8.625H6.15625C5.36234 8.625 4.71875 7.98141 4.71875 7.1875V4.3125Z" stroke="currentColor" stroke-width="1.4375" stroke-miterlimit="10" stroke-linecap="round" stroke-linejoin="round"/>
</svg>
