<svg width="160" height="96" viewBox="0 0 160 96" fill="none" xmlns="http://www.w3.org/2000/svg">
<g clip-path="url(#clip0_4562_77950)">
<rect width="160" height="96" rx="8" fill="#282828"/>
<path d="M165.973 49.8945L144.48 62.1762L165.973 74.4579L187.466 62.1762L165.973 49.8945Z" stroke="#2E2E2E" stroke-width="0.767606"/>
<path d="M15.5203 62.3672L-5.97266 74.6489L15.5203 86.9306L37.0133 74.6489L15.5203 62.3672Z" stroke="#2E2E2E" stroke-width="0.767606"/>
<path d="M37.0125 50.0859L15.5195 62.3676L37.0125 74.6493L58.5054 62.3676L37.0125 50.0859Z" stroke="#2E2E2E" stroke-width="0.767606"/>
<path d="M15.5203 37.8047L-5.97266 50.0864L15.5203 62.3681L37.0133 50.0864L15.5203 37.8047Z" stroke="#2E2E2E" stroke-width="0.767606"/>
<path d="M37.0125 25.5234L15.5195 37.8051L37.0125 50.0868L58.5054 37.8051L37.0125 25.5234Z" stroke="#2E2E2E" stroke-width="0.767606"/>
<path d="M58.5086 62.3672L37.0156 74.6489L58.5086 86.9306L80.0015 74.6489L58.5086 62.3672Z" stroke="#2E2E2E" stroke-width="0.767606"/>
<path d="M80.0008 50.0859L58.5078 62.3676L80.0008 74.6493L101.494 62.3676L80.0008 50.0859Z" stroke="#2E2E2E" stroke-width="0.767606"/>
<path d="M58.5086 37.8047L37.0156 50.0864L58.5086 62.3681L80.0015 50.0864L58.5086 37.8047Z" stroke="#2E2E2E" stroke-width="0.767606"/>
<path d="M101.493 62.3672L80 74.6489L101.493 86.9306L122.986 74.6489L101.493 62.3672Z" stroke="#2E2E2E" stroke-width="0.767606"/>
<path d="M80.0008 74.6484L58.5078 86.9301L80.0008 99.2118L101.494 86.9301L80.0008 74.6484Z" stroke="#2E2E2E" stroke-width="0.767606"/>
<path d="M58.5086 86.9297L37.0156 99.2114L58.5086 111.493L80.0015 99.2114L58.5086 86.9297Z" stroke="#2E2E2E" stroke-width="0.767606"/>
<path d="M37.0125 74.6484L15.5195 86.9301L37.0125 99.2118L58.5054 86.9301L37.0125 74.6484Z" stroke="#2E2E2E" stroke-width="0.767606"/>
<path d="M80.0008 25.5234L58.5078 37.8051L80.0008 50.0868L101.494 37.8051L80.0008 25.5234Z" stroke="#2E2E2E" stroke-width="0.767606"/>
<path d="M101.493 37.8047L80 50.0864L101.493 62.3681L122.986 50.0864L101.493 37.8047Z" stroke="#2E2E2E" stroke-width="0.767606"/>
<path d="M122.985 50.0859L101.492 62.3676L122.985 74.6493L144.478 62.3676L122.985 50.0859Z" stroke="#2E2E2E" stroke-width="0.767606"/>
<path d="M-5.97189 50.0859L-27.4648 62.3676L-5.97189 74.6493L15.5211 62.3676L-5.97189 50.0859Z" stroke="#2E2E2E" stroke-width="0.767606"/>
<path d="M58.5086 13.2422L37.0156 25.5239L58.5086 37.8056L80.0015 25.5239L58.5086 13.2422Z" stroke="#2E2E2E" stroke-width="0.767606"/>
<path d="M80.0008 0.960938L58.5078 13.2426L80.0008 25.5243L101.494 13.2426L80.0008 0.960938Z" stroke="#2E2E2E" stroke-width="0.767606"/>
<path d="M101.493 13.2422L80 25.5239L101.493 37.8056L122.986 25.5239L101.493 13.2422Z" stroke="#2E2E2E" stroke-width="0.767606"/>
<path d="M122.985 25.5234L101.492 37.8051L122.985 50.0868L144.478 37.8051L122.985 25.5234Z" stroke="#2E2E2E" stroke-width="0.767606"/>
<path d="M144.477 37.8047L122.984 50.0864L144.477 62.3681L165.97 50.0864L144.477 37.8047Z" stroke="#2E2E2E" stroke-width="0.767606"/>
<path d="M144.477 62.1758L122.984 74.4575L144.477 86.7392L165.97 74.4575L144.477 62.1758Z" stroke="#2E2E2E" stroke-width="0.767606"/>
<path d="M122.985 74.6484L101.492 86.9301L122.985 99.2118L144.478 86.9301L122.985 74.6484Z" stroke="#2E2E2E" stroke-width="0.767606"/>
<path d="M101.493 86.7383L80 99.02L101.493 111.302L122.986 99.02L101.493 86.7383Z" stroke="#2E2E2E" stroke-width="0.767606"/>
<g filter="url(#filter0_b_4562_77950)">
<path d="M58.5088 50.2772L80.1109 62.7492L80.1109 75.2212L58.5088 62.7492L58.5088 50.2772Z" fill="url(#paint0_linear_4562_77950)" fill-opacity="0.75"/>
<path d="M58.5088 50.2772L80.1109 62.7492L80.1109 75.2212L58.5088 62.7492L58.5088 50.2772Z" stroke="#A0A5A2" stroke-width="0.771505" stroke-linejoin="bevel"/>
</g>
<g filter="url(#filter1_b_4562_77950)">
<path d="M80.1104 62.7498L101.712 50.2778L101.712 62.7497L80.1104 75.2217L80.1104 62.7498Z" fill="url(#paint1_linear_4562_77950)" fill-opacity="0.75"/>
<path d="M80.1104 62.7498L101.712 50.2778L101.712 62.7497L80.1104 75.2217L80.1104 62.7498Z" stroke="#A0A5A2" stroke-width="0.771505" stroke-linejoin="bevel"/>
</g>
<g filter="url(#filter2_b_4562_77950)">
<path d="M80.1143 37.8047L101.716 50.2767L80.1143 62.7487L58.5121 50.2767L80.1143 37.8047Z" fill="url(#paint2_linear_4562_77950)" fill-opacity="0.75"/>
<path d="M80.1143 37.8047L101.716 50.2767L80.1143 62.7487L58.5121 50.2767L80.1143 37.8047Z" stroke="#A0A5A2" stroke-width="0.771505" stroke-linejoin="bevel"/>
</g>
</g>
<rect x="0.5" y="0.5" width="159" height="95" rx="7.5" stroke="#2E2E2E"/>
<defs>
<filter id="filter0_b_4562_77950" x="57.7891" y="49.5049" width="23.042" height="26.4863" filterUnits="userSpaceOnUse" color-interpolation-filters="sRGB">
<feFlood flood-opacity="0" result="BackgroundImageFix"/>
<feGaussianBlur in="BackgroundImageFix" stdDeviation="0.192876"/>
<feComposite in2="SourceAlpha" operator="in" result="effect1_backgroundBlur_4562_77950"/>
<feBlend mode="normal" in="SourceGraphic" in2="effect1_backgroundBlur_4562_77950" result="shape"/>
</filter>
<filter id="filter1_b_4562_77950" x="79.3906" y="49.5049" width="23.042" height="26.4903" filterUnits="userSpaceOnUse" color-interpolation-filters="sRGB">
<feFlood flood-opacity="0" result="BackgroundImageFix"/>
<feGaussianBlur in="BackgroundImageFix" stdDeviation="0.192876"/>
<feComposite in2="SourceAlpha" operator="in" result="effect1_backgroundBlur_4562_77950"/>
<feBlend mode="normal" in="SourceGraphic" in2="effect1_backgroundBlur_4562_77950" result="shape"/>
</filter>
<filter id="filter2_b_4562_77950" x="57.4062" y="36.8418" width="45.4161" height="26.8711" filterUnits="userSpaceOnUse" color-interpolation-filters="sRGB">
<feFlood flood-opacity="0" result="BackgroundImageFix"/>
<feGaussianBlur in="BackgroundImageFix" stdDeviation="0.385753"/>
<feComposite in2="SourceAlpha" operator="in" result="effect1_backgroundBlur_4562_77950"/>
<feBlend mode="normal" in="SourceGraphic" in2="effect1_backgroundBlur_4562_77950" result="shape"/>
</filter>
<linearGradient id="paint0_linear_4562_77950" x1="70.4592" y1="69.7535" x2="73.7992" y2="58.1835" gradientUnits="userSpaceOnUse">
<stop stop-color="#383838"/>
<stop offset="1" stop-color="#2C2C2C"/>
</linearGradient>
<linearGradient id="paint1_linear_4562_77950" x1="92.0607" y1="68.4269" x2="85.858" y2="61.2645" gradientUnits="userSpaceOnUse">
<stop stop-color="#383838"/>
<stop offset="1" stop-color="#2C2C2C"/>
</linearGradient>
<linearGradient id="paint2_linear_4562_77950" x1="70.2811" y1="57.281" x2="73.3825" y2="41.1654" gradientUnits="userSpaceOnUse">
<stop stop-color="#383838"/>
<stop offset="1" stop-color="#2C2C2C"/>
</linearGradient>
<clipPath id="clip0_4562_77950">
<rect width="160" height="96" rx="8" fill="white"/>
</clipPath>
</defs>
</svg>
