<svg width="160" height="96" viewBox="0 0 160 96" fill="none" xmlns="http://www.w3.org/2000/svg">
<g clip-path="url(#clip0_4596_35730)">
<rect width="160" height="96" rx="8" fill="#282828"/>
<path d="M-25 15.4141H177.5" stroke="#2E2E2E"/>
<path d="M-25 31.4141H177.5" stroke="#2E2E2E"/>
<path d="M-25 47.4141H177.5" stroke="#2E2E2E"/>
<path d="M-25 63.4141H177.5" stroke="#2E2E2E"/>
<path d="M-25 79.4141H177.5" stroke="#2E2E2E"/>
<path d="M85.5836 26.5368H84.6476V25.2888C82.9796 25.1208 82.1636 23.9688 82.0316 22.9128L83.1716 22.5528C83.2436 23.3208 83.6996 24.0648 84.6476 24.2328V21.7248L84.3476 21.6648C83.1236 21.4128 82.3556 20.6568 82.3556 19.4808C82.3556 18.3408 83.3036 17.3688 84.6476 17.2008V15.9408H85.5836V17.2128C87.0596 17.4048 87.6356 18.3888 87.8276 19.1688L86.7476 19.5648C86.6756 19.1088 86.3156 18.4848 85.5836 18.2808V20.7408L85.7636 20.7768C87.0956 21.0408 87.8996 21.9288 87.8996 23.0088C87.8996 24.0768 87.1076 25.1088 85.5836 25.2888V26.5368ZM86.7236 23.0688C86.7236 22.5648 86.3636 22.0968 85.5836 21.9168V24.2328C86.3636 24.0888 86.7236 23.6208 86.7236 23.0688ZM83.5436 19.4328C83.5436 19.9368 83.8316 20.3688 84.6476 20.5248V18.2448C83.9516 18.3768 83.5436 18.8448 83.5436 19.4328Z" fill="#FFB224"/>
<path d="M112.584 22.5368H111.648V21.2888C109.98 21.1208 109.164 19.9688 109.032 18.9128L110.172 18.5528C110.244 19.3208 110.7 20.0648 111.648 20.2328V17.7248L111.348 17.6648C110.124 17.4128 109.356 16.6568 109.356 15.4808C109.356 14.3408 110.304 13.3688 111.648 13.2008V11.9408H112.584V13.2128C114.06 13.4048 114.636 14.3888 114.828 15.1688L113.748 15.5648C113.676 15.1088 113.316 14.4848 112.584 14.2808V16.7408L112.764 16.7768C114.096 17.0408 114.9 17.9288 114.9 19.0088C114.9 20.0768 114.108 21.1088 112.584 21.2888V22.5368ZM113.724 19.0688C113.724 18.5648 113.364 18.0968 112.584 17.9168V20.2328C113.364 20.0888 113.724 19.6208 113.724 19.0688ZM110.544 15.4328C110.544 15.9368 110.832 16.3688 111.648 16.5248V14.2448C110.952 14.3768 110.544 14.8448 110.544 15.4328Z" fill="#FFB224"/>
<path d="M139.584 18.5368H138.648V17.2888C136.98 17.1208 136.164 15.9688 136.032 14.9128L137.172 14.5528C137.244 15.3208 137.7 16.0648 138.648 16.2328V13.7248L138.348 13.6648C137.124 13.4128 136.356 12.6568 136.356 11.4808C136.356 10.3408 137.304 9.36881 138.648 9.20081V7.94081H139.584V9.21281C141.06 9.40481 141.636 10.3888 141.828 11.1688L140.748 11.5648C140.676 11.1088 140.316 10.4848 139.584 10.2808V12.7408L139.764 12.7768C141.096 13.0408 141.9 13.9288 141.9 15.0088C141.9 16.0768 141.108 17.1088 139.584 17.2888V18.5368ZM140.724 15.0688C140.724 14.5648 140.364 14.0968 139.584 13.9168V16.2328C140.364 16.0888 140.724 15.6208 140.724 15.0688ZM137.544 11.4328C137.544 11.9368 137.832 12.3688 138.648 12.5248V10.2448C137.952 10.3768 137.544 10.8448 137.544 11.4328Z" fill="#FFB224"/>
<g filter="url(#filter0_b_4596_35730)">
<rect y="63.4141" width="8" height="23.5" rx="2" fill="url(#paint0_linear_4596_35730)"/>
<rect x="0.5" y="63.9141" width="7" height="22.5" rx="1.5" stroke="url(#paint1_linear_4596_35730)"/>
</g>
<g filter="url(#filter1_b_4596_35730)">
<rect x="27" y="57.4141" width="8" height="29.5" rx="2" fill="url(#paint2_linear_4596_35730)"/>
<rect x="27.5" y="57.9141" width="7" height="28.5" rx="1.5" stroke="url(#paint3_linear_4596_35730)"/>
</g>
<g filter="url(#filter2_b_4596_35730)">
<rect x="54" y="52.9141" width="8" height="34" rx="2" fill="url(#paint4_linear_4596_35730)"/>
<rect x="54.5" y="53.4141" width="7" height="33" rx="1.5" stroke="url(#paint5_linear_4596_35730)"/>
</g>
<g filter="url(#filter3_b_4596_35730)">
<path d="M81 46.1641H89V84.9141C89 86.0186 88.1046 86.9141 87 86.9141H83C81.8954 86.9141 81 86.0186 81 84.9141V46.1641Z" fill="url(#paint6_linear_4596_35730)"/>
<path d="M81.5 46.6641H88.5V84.9141C88.5 85.7425 87.8284 86.4141 87 86.4141H83C82.1716 86.4141 81.5 85.7425 81.5 84.9141V46.6641Z" stroke="url(#paint7_linear_4596_35730)" stroke-linejoin="bevel"/>
</g>
<g filter="url(#filter4_b_4596_35730)">
<path d="M108 46.1641H116V84.9141C116 86.0186 115.105 86.9141 114 86.9141H110C108.895 86.9141 108 86.0186 108 84.9141V46.1641Z" fill="url(#paint8_linear_4596_35730)"/>
<path d="M108.5 46.6641H115.5V84.9141C115.5 85.7425 114.828 86.4141 114 86.4141H110C109.172 86.4141 108.5 85.7425 108.5 84.9141V46.6641Z" stroke="url(#paint9_linear_4596_35730)"/>
</g>
<g filter="url(#filter5_b_4596_35730)">
<path d="M135 46.1641H143V84.9141C143 86.0186 142.105 86.9141 141 86.9141H137C135.895 86.9141 135 86.0186 135 84.9141V46.1641Z" fill="url(#paint10_linear_4596_35730)"/>
<path d="M135.5 46.6641H142.5V84.9141C142.5 85.7425 141.828 86.4141 141 86.4141H137C136.172 86.4141 135.5 85.7425 135.5 84.9141V46.6641Z" stroke="url(#paint11_linear_4596_35730)"/>
</g>
<mask id="path-23-inside-1_4596_35730" fill="white">
<path d="M81 34.7734C81 33.6689 81.8954 32.7734 83 32.7734H87C88.1046 32.7734 89 33.6689 89 34.7734V47.4159H81V34.7734Z"/>
</mask>
<path d="M81 34.7734C81 33.6689 81.8954 32.7734 83 32.7734H87C88.1046 32.7734 89 33.6689 89 34.7734V47.4159H81V34.7734Z" fill="#824E00"/>
<path d="M80 34.7734C80 33.1166 81.3431 31.7734 83 31.7734H87C88.6569 31.7734 90 33.1166 90 34.7734H88C88 34.2212 87.5523 33.7734 87 33.7734H83C82.4477 33.7734 82 34.2212 82 34.7734H80ZM89 47.4159H81H89ZM80 47.4159V34.7734C80 33.1166 81.3431 31.7734 83 31.7734V33.7734C82.4477 33.7734 82 34.2212 82 34.7734V47.4159H80ZM87 31.7734C88.6569 31.7734 90 33.1166 90 34.7734V47.4159H88V34.7734C88 34.2212 87.5523 33.7734 87 33.7734V31.7734Z" fill="#FFB224" mask="url(#path-23-inside-1_4596_35730)"/>
<mask id="path-25-inside-2_4596_35730" fill="white">
<path d="M108 29.3828C108 28.2782 108.895 27.3828 110 27.3828H114C115.105 27.3828 116 28.2782 116 29.3828V47.4152H108V29.3828Z"/>
</mask>
<path d="M108 29.3828C108 28.2782 108.895 27.3828 110 27.3828H114C115.105 27.3828 116 28.2782 116 29.3828V47.4152H108V29.3828Z" fill="#824E00"/>
<path d="M107 29.3828C107 27.726 108.343 26.3828 110 26.3828H114C115.657 26.3828 117 27.726 117 29.3828H115C115 28.8305 114.552 28.3828 114 28.3828H110C109.448 28.3828 109 28.8305 109 29.3828H107ZM116 47.4152H108H116ZM107 47.4152V29.3828C107 27.726 108.343 26.3828 110 26.3828V28.3828C109.448 28.3828 109 28.8305 109 29.3828V47.4152H107ZM114 26.3828C115.657 26.3828 117 27.726 117 29.3828V47.4152H115V29.3828C115 28.8305 114.552 28.3828 114 28.3828V26.3828Z" fill="#FFB224" mask="url(#path-25-inside-2_4596_35730)"/>
<mask id="path-27-inside-3_4596_35730" fill="white">
<path d="M135 24.8984C135 23.7939 135.895 22.8984 137 22.8984H141C142.105 22.8984 143 23.7939 143 24.8984V47.8984H135V24.8984Z"/>
</mask>
<path d="M135 24.8984C135 23.7939 135.895 22.8984 137 22.8984H141C142.105 22.8984 143 23.7939 143 24.8984V47.8984H135V24.8984Z" fill="#824E00"/>
<path d="M134 24.8984C134 23.2416 135.343 21.8984 137 21.8984H141C142.657 21.8984 144 23.2416 144 24.8984H142C142 24.3462 141.552 23.8984 141 23.8984H137C136.448 23.8984 136 24.3462 136 24.8984H134ZM143 47.8984H135H143ZM134 47.8984V24.8984C134 23.2416 135.343 21.8984 137 21.8984V23.8984C136.448 23.8984 136 24.3462 136 24.8984V47.8984H134ZM141 21.8984C142.657 21.8984 144 23.2416 144 24.8984V47.8984H142V24.8984C142 24.3462 141.552 23.8984 141 23.8984V21.8984Z" fill="#FFB224" mask="url(#path-27-inside-3_4596_35730)"/>
<path d="M-25 47.4141H177.5" stroke="#FFB224" stroke-dasharray="2 2"/>
</g>
<rect x="0.5" y="0.5" width="159" height="95" rx="7.5" stroke="#2E2E2E"/>
<defs>
<filter id="filter0_b_4596_35730" x="-13" y="50.4141" width="34" height="49.5" filterUnits="userSpaceOnUse" color-interpolation-filters="sRGB">
<feFlood flood-opacity="0" result="BackgroundImageFix"/>
<feGaussianBlur in="BackgroundImageFix" stdDeviation="6.5"/>
<feComposite in2="SourceAlpha" operator="in" result="effect1_backgroundBlur_4596_35730"/>
<feBlend mode="normal" in="SourceGraphic" in2="effect1_backgroundBlur_4596_35730" result="shape"/>
</filter>
<filter id="filter1_b_4596_35730" x="14" y="44.4141" width="34" height="55.5" filterUnits="userSpaceOnUse" color-interpolation-filters="sRGB">
<feFlood flood-opacity="0" result="BackgroundImageFix"/>
<feGaussianBlur in="BackgroundImageFix" stdDeviation="6.5"/>
<feComposite in2="SourceAlpha" operator="in" result="effect1_backgroundBlur_4596_35730"/>
<feBlend mode="normal" in="SourceGraphic" in2="effect1_backgroundBlur_4596_35730" result="shape"/>
</filter>
<filter id="filter2_b_4596_35730" x="41" y="39.9141" width="34" height="60" filterUnits="userSpaceOnUse" color-interpolation-filters="sRGB">
<feFlood flood-opacity="0" result="BackgroundImageFix"/>
<feGaussianBlur in="BackgroundImageFix" stdDeviation="6.5"/>
<feComposite in2="SourceAlpha" operator="in" result="effect1_backgroundBlur_4596_35730"/>
<feBlend mode="normal" in="SourceGraphic" in2="effect1_backgroundBlur_4596_35730" result="shape"/>
</filter>
<filter id="filter3_b_4596_35730" x="68" y="33.1641" width="34" height="66.75" filterUnits="userSpaceOnUse" color-interpolation-filters="sRGB">
<feFlood flood-opacity="0" result="BackgroundImageFix"/>
<feGaussianBlur in="BackgroundImageFix" stdDeviation="6.5"/>
<feComposite in2="SourceAlpha" operator="in" result="effect1_backgroundBlur_4596_35730"/>
<feBlend mode="normal" in="SourceGraphic" in2="effect1_backgroundBlur_4596_35730" result="shape"/>
</filter>
<filter id="filter4_b_4596_35730" x="95" y="33.1641" width="34" height="66.75" filterUnits="userSpaceOnUse" color-interpolation-filters="sRGB">
<feFlood flood-opacity="0" result="BackgroundImageFix"/>
<feGaussianBlur in="BackgroundImageFix" stdDeviation="6.5"/>
<feComposite in2="SourceAlpha" operator="in" result="effect1_backgroundBlur_4596_35730"/>
<feBlend mode="normal" in="SourceGraphic" in2="effect1_backgroundBlur_4596_35730" result="shape"/>
</filter>
<filter id="filter5_b_4596_35730" x="122" y="33.1641" width="34" height="66.75" filterUnits="userSpaceOnUse" color-interpolation-filters="sRGB">
<feFlood flood-opacity="0" result="BackgroundImageFix"/>
<feGaussianBlur in="BackgroundImageFix" stdDeviation="6.5"/>
<feComposite in2="SourceAlpha" operator="in" result="effect1_backgroundBlur_4596_35730"/>
<feBlend mode="normal" in="SourceGraphic" in2="effect1_backgroundBlur_4596_35730" result="shape"/>
</filter>
<linearGradient id="paint0_linear_4596_35730" x1="0" y1="86.9141" x2="14.3383" y2="82.0329" gradientUnits="userSpaceOnUse">
<stop stop-color="#1C1C1C" stop-opacity="0"/>
<stop offset="1" stop-color="#929292" stop-opacity="0.26"/>
</linearGradient>
<linearGradient id="paint1_linear_4596_35730" x1="0" y1="86.9141" x2="14.3383" y2="82.0329" gradientUnits="userSpaceOnUse">
<stop stop-color="#707070"/>
<stop offset="1" stop-color="#3E3E3E" stop-opacity="0"/>
</linearGradient>
<linearGradient id="paint2_linear_4596_35730" x1="27" y1="86.9141" x2="41.9039" y2="82.8723" gradientUnits="userSpaceOnUse">
<stop stop-color="#1C1C1C" stop-opacity="0"/>
<stop offset="1" stop-color="#929292" stop-opacity="0.26"/>
</linearGradient>
<linearGradient id="paint3_linear_4596_35730" x1="27" y1="86.9141" x2="41.9039" y2="82.8723" gradientUnits="userSpaceOnUse">
<stop stop-color="#707070"/>
<stop offset="1" stop-color="#3E3E3E" stop-opacity="0"/>
</linearGradient>
<linearGradient id="paint4_linear_4596_35730" x1="54" y1="86.9141" x2="69.1607" y2="83.3468" gradientUnits="userSpaceOnUse">
<stop stop-color="#1C1C1C" stop-opacity="0"/>
<stop offset="1" stop-color="#929292" stop-opacity="0.26"/>
</linearGradient>
<linearGradient id="paint5_linear_4596_35730" x1="54" y1="86.9141" x2="69.1607" y2="83.3468" gradientUnits="userSpaceOnUse">
<stop stop-color="#707070"/>
<stop offset="1" stop-color="#3E3E3E" stop-opacity="0"/>
</linearGradient>
<linearGradient id="paint6_linear_4596_35730" x1="81" y1="86.9141" x2="96.4062" y2="83.8895" gradientUnits="userSpaceOnUse">
<stop stop-color="#1C1C1C" stop-opacity="0"/>
<stop offset="1" stop-color="#929292" stop-opacity="0.26"/>
</linearGradient>
<linearGradient id="paint7_linear_4596_35730" x1="81" y1="86.9141" x2="96.4062" y2="83.8895" gradientUnits="userSpaceOnUse">
<stop stop-color="#707070"/>
<stop offset="1" stop-color="#3E3E3E" stop-opacity="0"/>
</linearGradient>
<linearGradient id="paint8_linear_4596_35730" x1="108" y1="86.9141" x2="123.406" y2="83.8895" gradientUnits="userSpaceOnUse">
<stop stop-color="#1C1C1C" stop-opacity="0"/>
<stop offset="1" stop-color="#929292" stop-opacity="0.26"/>
</linearGradient>
<linearGradient id="paint9_linear_4596_35730" x1="108" y1="86.9141" x2="123.406" y2="83.8895" gradientUnits="userSpaceOnUse">
<stop stop-color="#707070"/>
<stop offset="1" stop-color="#3E3E3E" stop-opacity="0"/>
</linearGradient>
<linearGradient id="paint10_linear_4596_35730" x1="135" y1="86.9141" x2="150.406" y2="83.8895" gradientUnits="userSpaceOnUse">
<stop stop-color="#1C1C1C" stop-opacity="0"/>
<stop offset="1" stop-color="#929292" stop-opacity="0.26"/>
</linearGradient>
<linearGradient id="paint11_linear_4596_35730" x1="135" y1="86.9141" x2="150.406" y2="83.8895" gradientUnits="userSpaceOnUse">
<stop stop-color="#707070"/>
<stop offset="1" stop-color="#3E3E3E" stop-opacity="0"/>
</linearGradient>
<clipPath id="clip0_4596_35730">
<rect width="160" height="96" rx="8" fill="white"/>
</clipPath>
</defs>
</svg>
