<svg width="160" height="96" viewBox="0 0 160 96" fill="none" xmlns="http://www.w3.org/2000/svg">
<g clip-path="url(#clip0_4561_77476)">
<rect width="160" height="96" rx="8" fill="#282828"/>
<path d="M-25 14.6328H177.5" stroke="#2E2E2E"/>
<path d="M-25 30.6328H177.5" stroke="#2E2E2E"/>
<path d="M-25 46.6328H177.5" stroke="#2E2E2E"/>
<path d="M-25 62.6328H177.5" stroke="#2E2E2E"/>
<path d="M-25 78.6328H177.5" stroke="#2E2E2E"/>
<g filter="url(#filter0_b_4561_77476)">
<rect y="62.6328" width="8" height="23.5" rx="2" fill="url(#paint0_linear_4561_77476)"/>
<rect x="0.5" y="63.1328" width="7" height="22.5" rx="1.5" stroke="url(#paint1_linear_4561_77476)"/>
</g>
<g filter="url(#filter1_b_4561_77476)">
<rect x="27" y="56.6328" width="8" height="29.5" rx="2" fill="url(#paint2_linear_4561_77476)"/>
<rect x="27.5" y="57.1328" width="7" height="28.5" rx="1.5" stroke="url(#paint3_linear_4561_77476)"/>
</g>
<g filter="url(#filter2_b_4561_77476)">
<rect x="54" y="52.1328" width="8" height="34" rx="2" fill="url(#paint4_linear_4561_77476)"/>
<rect x="54.5" y="52.6328" width="7" height="33" rx="1.5" stroke="url(#paint5_linear_4561_77476)"/>
</g>
<g filter="url(#filter3_b_4561_77476)">
<path d="M81 46.6328H89V84.1328C89 85.2374 88.1046 86.1328 87 86.1328H83C81.8954 86.1328 81 85.2374 81 84.1328V46.6328Z" fill="url(#paint6_linear_4561_77476)"/>
<path d="M81.5 47.1328H88.5V84.1328C88.5 84.9612 87.8284 85.6328 87 85.6328H83C82.1716 85.6328 81.5 84.9612 81.5 84.1328V47.1328Z" stroke="url(#paint7_linear_4561_77476)"/>
</g>
<g filter="url(#filter4_b_4561_77476)">
<path d="M108 46.6328H116V84.1328C116 85.2374 115.105 86.1328 114 86.1328H110C108.895 86.1328 108 85.2374 108 84.1328V46.6328Z" fill="url(#paint8_linear_4561_77476)"/>
<path d="M108.5 47.1328H115.5V84.1328C115.5 84.9612 114.828 85.6328 114 85.6328H110C109.172 85.6328 108.5 84.9612 108.5 84.1328V47.1328Z" stroke="url(#paint9_linear_4561_77476)"/>
</g>
<g filter="url(#filter5_b_4561_77476)">
<path d="M135 46.6328H143V84.1328C143 85.2374 142.105 86.1328 141 86.1328H137C135.895 86.1328 135 85.2374 135 84.1328V46.6328Z" fill="url(#paint10_linear_4561_77476)"/>
<path d="M135.5 47.1328H142.5V84.1328C142.5 84.9612 141.828 85.6328 141 85.6328H137C136.172 85.6328 135.5 84.9612 135.5 84.1328V47.1328Z" stroke="url(#paint11_linear_4561_77476)"/>
</g>
<path d="M-25 46.6328H177.5" stroke="#FFB224" stroke-dasharray="2 2"/>
</g>
<rect x="0.5" y="0.5" width="159" height="95" rx="7.5" stroke="#2E2E2E"/>
<defs>
<filter id="filter0_b_4561_77476" x="-13" y="49.6328" width="34" height="49.5" filterUnits="userSpaceOnUse" color-interpolation-filters="sRGB">
<feFlood flood-opacity="0" result="BackgroundImageFix"/>
<feGaussianBlur in="BackgroundImageFix" stdDeviation="6.5"/>
<feComposite in2="SourceAlpha" operator="in" result="effect1_backgroundBlur_4561_77476"/>
<feBlend mode="normal" in="SourceGraphic" in2="effect1_backgroundBlur_4561_77476" result="shape"/>
</filter>
<filter id="filter1_b_4561_77476" x="14" y="43.6328" width="34" height="55.5" filterUnits="userSpaceOnUse" color-interpolation-filters="sRGB">
<feFlood flood-opacity="0" result="BackgroundImageFix"/>
<feGaussianBlur in="BackgroundImageFix" stdDeviation="6.5"/>
<feComposite in2="SourceAlpha" operator="in" result="effect1_backgroundBlur_4561_77476"/>
<feBlend mode="normal" in="SourceGraphic" in2="effect1_backgroundBlur_4561_77476" result="shape"/>
</filter>
<filter id="filter2_b_4561_77476" x="41" y="39.1328" width="34" height="60" filterUnits="userSpaceOnUse" color-interpolation-filters="sRGB">
<feFlood flood-opacity="0" result="BackgroundImageFix"/>
<feGaussianBlur in="BackgroundImageFix" stdDeviation="6.5"/>
<feComposite in2="SourceAlpha" operator="in" result="effect1_backgroundBlur_4561_77476"/>
<feBlend mode="normal" in="SourceGraphic" in2="effect1_backgroundBlur_4561_77476" result="shape"/>
</filter>
<filter id="filter3_b_4561_77476" x="68" y="33.6328" width="34" height="65.5" filterUnits="userSpaceOnUse" color-interpolation-filters="sRGB">
<feFlood flood-opacity="0" result="BackgroundImageFix"/>
<feGaussianBlur in="BackgroundImageFix" stdDeviation="6.5"/>
<feComposite in2="SourceAlpha" operator="in" result="effect1_backgroundBlur_4561_77476"/>
<feBlend mode="normal" in="SourceGraphic" in2="effect1_backgroundBlur_4561_77476" result="shape"/>
</filter>
<filter id="filter4_b_4561_77476" x="95" y="33.6328" width="34" height="65.5" filterUnits="userSpaceOnUse" color-interpolation-filters="sRGB">
<feFlood flood-opacity="0" result="BackgroundImageFix"/>
<feGaussianBlur in="BackgroundImageFix" stdDeviation="6.5"/>
<feComposite in2="SourceAlpha" operator="in" result="effect1_backgroundBlur_4561_77476"/>
<feBlend mode="normal" in="SourceGraphic" in2="effect1_backgroundBlur_4561_77476" result="shape"/>
</filter>
<filter id="filter5_b_4561_77476" x="122" y="33.6328" width="34" height="65.5" filterUnits="userSpaceOnUse" color-interpolation-filters="sRGB">
<feFlood flood-opacity="0" result="BackgroundImageFix"/>
<feGaussianBlur in="BackgroundImageFix" stdDeviation="6.5"/>
<feComposite in2="SourceAlpha" operator="in" result="effect1_backgroundBlur_4561_77476"/>
<feBlend mode="normal" in="SourceGraphic" in2="effect1_backgroundBlur_4561_77476" result="shape"/>
</filter>
<linearGradient id="paint0_linear_4561_77476" x1="0" y1="86.1328" x2="14.3383" y2="81.2517" gradientUnits="userSpaceOnUse">
<stop stop-color="#1C1C1C" stop-opacity="0"/>
<stop offset="1" stop-color="#929292" stop-opacity="0.26"/>
</linearGradient>
<linearGradient id="paint1_linear_4561_77476" x1="0" y1="86.1328" x2="14.3383" y2="81.2517" gradientUnits="userSpaceOnUse">
<stop stop-color="#707070"/>
<stop offset="1" stop-color="#3E3E3E" stop-opacity="0"/>
</linearGradient>
<linearGradient id="paint2_linear_4561_77476" x1="27" y1="86.1328" x2="41.9039" y2="82.0911" gradientUnits="userSpaceOnUse">
<stop stop-color="#1C1C1C" stop-opacity="0"/>
<stop offset="1" stop-color="#929292" stop-opacity="0.26"/>
</linearGradient>
<linearGradient id="paint3_linear_4561_77476" x1="27" y1="86.1328" x2="41.9039" y2="82.0911" gradientUnits="userSpaceOnUse">
<stop stop-color="#707070"/>
<stop offset="1" stop-color="#3E3E3E" stop-opacity="0"/>
</linearGradient>
<linearGradient id="paint4_linear_4561_77476" x1="54" y1="86.1328" x2="69.1607" y2="82.5656" gradientUnits="userSpaceOnUse">
<stop stop-color="#1C1C1C" stop-opacity="0"/>
<stop offset="1" stop-color="#929292" stop-opacity="0.26"/>
</linearGradient>
<linearGradient id="paint5_linear_4561_77476" x1="54" y1="86.1328" x2="69.1607" y2="82.5656" gradientUnits="userSpaceOnUse">
<stop stop-color="#707070"/>
<stop offset="1" stop-color="#3E3E3E" stop-opacity="0"/>
</linearGradient>
<linearGradient id="paint6_linear_4561_77476" x1="81" y1="86.1328" x2="96.3696" y2="83.02" gradientUnits="userSpaceOnUse">
<stop stop-color="#1C1C1C" stop-opacity="0"/>
<stop offset="1" stop-color="#929292" stop-opacity="0.26"/>
</linearGradient>
<linearGradient id="paint7_linear_4561_77476" x1="81" y1="86.1328" x2="96.3696" y2="83.02" gradientUnits="userSpaceOnUse">
<stop stop-color="#707070"/>
<stop offset="1" stop-color="#3E3E3E" stop-opacity="0"/>
</linearGradient>
<linearGradient id="paint8_linear_4561_77476" x1="108" y1="86.1328" x2="123.37" y2="83.02" gradientUnits="userSpaceOnUse">
<stop stop-color="#1C1C1C" stop-opacity="0"/>
<stop offset="1" stop-color="#929292" stop-opacity="0.26"/>
</linearGradient>
<linearGradient id="paint9_linear_4561_77476" x1="108" y1="86.1328" x2="123.37" y2="83.02" gradientUnits="userSpaceOnUse">
<stop stop-color="#707070"/>
<stop offset="1" stop-color="#3E3E3E" stop-opacity="0"/>
</linearGradient>
<linearGradient id="paint10_linear_4561_77476" x1="135" y1="86.1328" x2="150.37" y2="83.02" gradientUnits="userSpaceOnUse">
<stop stop-color="#1C1C1C" stop-opacity="0"/>
<stop offset="1" stop-color="#929292" stop-opacity="0.26"/>
</linearGradient>
<linearGradient id="paint11_linear_4561_77476" x1="135" y1="86.1328" x2="150.37" y2="83.02" gradientUnits="userSpaceOnUse">
<stop stop-color="#707070"/>
<stop offset="1" stop-color="#3E3E3E" stop-opacity="0"/>
</linearGradient>
<clipPath id="clip0_4561_77476">
<rect width="160" height="96" rx="8" fill="white"/>
</clipPath>
</defs>
</svg>
