<svg xmlns="http://www.w3.org/2000/svg" width="353" height="67" fill="none" viewBox="0 0 353 67"><path fill="#ededed" fill-rule="evenodd" d="M20.458 10.43v37.261c0 1.164.073 1.382 1.168 1.454l5.982.51v5.749H2v-5.748l6.273-.51c1.022-.073 1.168-.364 1.168-1.455V22.564c0-1.043-.788-.87-6.272.979l-2.023-5.967L13.68 10.43zm24.18.225h4.306c5.177 0 9.482 1.236 9.482 8.222 0 8.222-5.324 9.313-10.14 9.313h-3.648zm5.326 25.32h-5.326v11.643c0 1.165.074 1.31 1.169 1.455l10.432.582v5.748h-28.6v-5.748l4.597-.51c1.02-.144 1.168-.362 1.168-1.454V10.51c0-1.091-.148-1.383-1.169-1.456l-4.595-.509V2.724H52.37c13.499 0 17.583 7.131 17.583 15.498 0 12.66-7.66 17.754-19.99 17.754zM90.829 45.8c-1.677 1.236-4.158 2.62-6.64 2.62-2.406 0-4.157-1.092-4.157-4.003s1.532-4.002 5.835-4.292l4.962-.364zm33.537-13.897c5.763 1.309 12.257 3.347 12.257 11.86 0 8.876-7.222 12.515-16.488 12.515-6 0-11.866-1.424-13.912-2.344v1.47H92.799l-.73-3.929-.365-.072c-2.772 2.692-6.42 4.875-12.257 4.875-9.192 0-10.653-6.257-10.653-10.77 0-7.275 4.526-10.622 13.645-11.204l8.39-.582V29.72c0-3.42-.364-5.748-4.89-5.748-3.5 0-5.324.509-5.324 4.875l-10.288-.874c0-9.822 8.975-11.206 15.686-11.206 11.09 0 15.54 2.985 15.54 13.171v17.681c0 1.164.073 1.31 1.167 1.455l2.969.493v-6.46l7.806.583.73 4.147c.072.655.22.946.876 1.091.875.292 2.845.728 5.618.728 3.866 0 6.054-1.09 6.054-3.783 0-2.91-2.918-3.784-6.638-4.439-6.128-1.091-14.154-2.4-14.154-11.932 0-9.023 7.733-12.735 16.123-12.735 5.763 0 11.381 1.311 13.425 2.11v10.551l-7.807-.508-.73-3.785c-.072-.582-.219-.872-.728-1.018-.949-.29-2.7-.582-4.67-.582-3.648 0-5.691 1.382-5.691 3.71 0 2.984 4.013 3.638 8.463 4.658m212.023 12.66c-1.97 1.674-4.669 3.129-7.149 3.129-4.598 0-6.64-3.93-6.64-10.987 0-6.476 2.115-11.497 7.515-11.497 2.114 0 4.45.946 6.274 2.184zm12.11 4.584 3.501.51v5.748h-13.57l-.728-4.075-.511-.074c-3.064 2.984-6.638 5.021-11.964 5.021-8.608 0-14.154-5.457-14.154-19.354 0-14.625 7.367-20.155 15.466-20.155 4.232 0 7.514 1.455 10.288 3.493V9.2c0-.728-.293-1.237-.949-1.455l-4.013-1.383.802-5.894h14.665v47.295c0 1.092.073 1.239 1.167 1.384M225.642 23.898c-1.02.145-1.458.51-1.75 1.455l-8.973 30.05H203.39L197.7 31.03h-.437l-5.764 24.374h-13.133l-9.193-30.122c-.29-.874-.657-1.02-1.532-1.238l-.71-.151v5.535l-7.806-.508-.73-3.785c-.072-.582-.219-.872-.728-1.018-.95-.29-2.7-.582-4.67-.582-3.648 0-5.692 1.382-5.692 3.71 0 2.984 4.014 3.64 8.464 4.658 5.763 1.309 12.257 3.347 12.257 11.86 0 8.877-7.222 12.515-16.489 12.515-6.639 0-13.132-1.747-14.446-2.62v-10.55l7.807.582.73 4.147c.072.655.22.946.876 1.091.875.292 2.845.728 5.618.728 3.865 0 6.054-1.09 6.054-3.783 0-2.91-2.918-3.784-6.639-4.439-6.128-1.091-14.153-2.4-14.153-11.932 0-9.023 7.733-12.735 16.123-12.735 4.765 0 9.426.896 12.054 1.659l.184-.93h18.458v6.039l-4.086.437 5.837 20.445h.511l6.492-25.976h11.018l6.275 25.976h.437l5.472-20.445-4.159-.437.947-6.039h15.323v2.145a30 30 0 0 0-2.396 4.213zm75.44 1.819c-1.896 0-4.157 1.6-5.252 2.547v19.281c0 1.164.074 1.382 1.169 1.456l7.221.581v5.822h-23.858V49.51l3.285-.437c1.02-.146 1.166-.364 1.166-1.455v-21.32c0-.8-.219-1.309-.947-1.527l-3.51-1.23c-.113-.238-.237-.468-.356-.7l.729-5.346h12.84l.875 5.82h.438c2.407-3.71 5.618-6.548 10.287-6.548 1.677 0 5.033.291 6.347.655v13.243l-8.754-.291-.729-3.857c-.146-.655-.366-.8-.951-.8" clip-rule="evenodd"/><path fill="#198cff" fill-rule="evenodd" d="M253 12c13.255 0 24 10.745 24 24s-10.745 24-24 24-24-10.745-24-24 10.745-24 24-24" clip-rule="evenodd"/><path fill="#fff" fill-rule="evenodd" d="M223 36c0-16.569 13.431-30 30-30s30 13.431 30 30-13.431 30-30 30-30-13.43-30-30m6 0c0 13.255 10.745 24 24 24s24-10.745 24-24-10.745-24-24-24-24 10.745-24 24" clip-rule="evenodd"/><path fill="#000" d="M222 36c0 17.121 13.88 31 31 31s31-13.879 31-31c0-17.12-13.88-31-31-31s-31 13.88-31 31m1 0c0-16.567 13.43-30 30-30s30 13.433 30 30-13.43 30-30 30-30-13.433-30-30m7-.002c0 12.702 10.298 22.998 23 22.998s23-10.296 23-22.998C276 23.297 265.702 13 253 13s-23 10.297-23 22.998M229 36c0-13.253 10.744-24 24-24s24 10.747 24 24-10.743 24-24 24-24-10.747-24-24" opacity=".5"/><path fill="#000" fill-opacity=".1" fill-rule="evenodd" d="M263.32 61.078c9.129-3.89 15.528-12.927 15.528-23.456 0-14.082-11.446-25.498-25.565-25.498s-25.564 11.416-25.564 25.498c0 14.04 11.378 25.427 25.44 25.494q-.065.003-.129.004c-14.818 0-26.83-11.98-26.83-26.76 0-14.779 12.012-26.76 26.83-26.76s26.83 11.981 26.83 26.76c0 11.143-6.83 20.691-16.54 24.718m-10.808 2.342c16.553 0 29.971-13.383 29.971-29.89 0-1.54-.117-3.053-.342-4.53.557 2.278.859 4.656.859 7.105 0 16.51-13.419 29.891-29.971 29.891-15.01 0-27.441-11.003-29.629-25.362 3.198 13.077 15.015 22.786 29.112 22.786" clip-rule="evenodd"/><path fill="#f2f2f2" fill-rule="evenodd" d="M253 18c9.941 0 18 8.059 18 18s-8.059 18-18 18-18-8.059-18-18 8.059-18 18-18" clip-rule="evenodd"/><path fill="#000" fill-opacity=".25" d="M253 18c-9.941 0-18 8.059-18 18s8.059 18 18 18 18-8.059 18-18-8.059-18-18-18m0-1c10.493 0 19 8.507 19 19s-8.507 19-19 19-19-8.506-19-19 8.507-19 19-19"/><path fill="#000" fill-opacity=".05" fill-rule="evenodd" d="M261 36a8.001 8.001 0 0 1-13.657 5.657 8.001 8.001 0 0 1 11.314-11.314A8 8 0 0 1 261 36" clip-rule="evenodd"/><path fill="#000" fill-opacity=".15" d="M260 36a7.003 7.003 0 0 0-7-7 7 7 0 1 0 7 7m1 0a8.001 8.001 0 0 1-13.657 5.657 8.001 8.001 0 0 1 11.314-11.314A8 8 0 0 1 261 36"/><path fill="#fff" d="M261 36a8.001 8.001 0 0 0-13.657-5.657 8.001 8.001 0 0 0 11.314 11.314A8 8 0 0 0 261 36m1 0a9 9 0 1 1-18 0 9 9 0 0 1 18 0"/><path fill="#fff" fill-rule="evenodd" d="M249 32.358V24h8v13.93l-2 1.856 2 1.856V50h-8V36.071l2-1.857z" clip-rule="evenodd"/><path fill="#4d4d4d" fill-rule="evenodd" d="M249 31.358V23h8v13.93l-2 1.856 2 1.856V49h-8V35.071l2-1.857z" clip-rule="evenodd"/><path fill="gray" fill-rule="evenodd" d="M250 32.215V25h6v12.358l-1.5 1.713v1.008l1.5 1.909V49h-6V36.62l1.5-1.677v-1.014z" clip-rule="evenodd"/></svg>