<svg xmlns="http://www.w3.org/2000/svg" width="532" height="176" fill="none" viewBox="0 0 532 176"><g clip-path="url(#a)"><g clip-path="url(#b)"><path fill="#fff" d="m496.414 55.69-29.325-6.83-5.237-2.102L327.27 47.81v65.146l169.144.526z"/><path fill="#f48120" d="M441.429 107.176a15.04 15.04 0 0 0-1.571-13.66 16.2 16.2 0 0 0-4.925-3.988 16.2 16.2 0 0 0-6.072-1.79l-91.118-1.051c-.524 0-1.048-.526-1.571-.526a.99.99 0 0 1 0-1.576c.523-1.05 1.047-1.576 2.094-1.576l91.642-1.05a32.9 32.9 0 0 0 16.053-6.348 33.03 33.03 0 0 0 10.654-13.617l5.237-13.66c0-.525.524-1.05 0-1.576a59.9 59.9 0 0 0-19.677-32.588A59.57 59.57 0 0 0 406.887.09a59.54 59.54 0 0 0-36.611 10.128 59.85 59.85 0 0 0-23.107 30.236 28.52 28.52 0 0 0-18.852-5.254 27.24 27.24 0 0 0-16.267 7.848 27.4 27.4 0 0 0-7.822 16.32 28.8 28.8 0 0 0 .523 9.456 38.18 38.18 0 0 0-26.354 11.6 38.43 38.43 0 0 0-10.826 26.752c-.086 1.941.09 3.885.524 5.779a1.674 1.674 0 0 0 1.571 1.576h168.097c1.048 0 2.095-.525 2.095-1.576z"/><path fill="#faad3f" d="M470.231 48.335h-2.619c-.523 0-1.047.525-1.571 1.05l-3.665 12.61a15.05 15.05 0 0 0 1.571 13.659 16.2 16.2 0 0 0 4.925 3.988c1.887.992 3.95 1.6 6.072 1.791l19.375 1.05c.524 0 1.048.526 1.571.526q.185.14.29.348a.99.99 0 0 1-.29 1.228c-.523 1.051-1.047 1.576-2.094 1.576l-19.9 1.051a32.9 32.9 0 0 0-16.052 6.348 33.05 33.05 0 0 0-10.655 13.616l-1.047 4.729c-.524.525 0 1.576 1.047 1.576h69.125a1.38 1.38 0 0 0 1.178-.394 1.4 1.4 0 0 0 .393-1.182 57.3 57.3 0 0 0 2.094-13.66 50.31 50.31 0 0 0-14.662-35.2 49.99 49.99 0 0 0-35.086-14.71"/><path fill="#404041" d="M526.787 142.901a4.705 4.705 0 0 1-4.354-2.918 4.74 4.74 0 0 1 1.022-5.153 4.7 4.7 0 0 1 5.136-1.025 4.72 4.72 0 0 1 2.909 4.368 4.71 4.71 0 0 1-1.374 3.349 4.667 4.667 0 0 1-3.339 1.379m0-8.406a3.672 3.672 0 0 0-3.386 2.271 3.69 3.69 0 0 0 .794 4.008 3.67 3.67 0 0 0 3.995.797 3.686 3.686 0 0 0 2.263-3.398 3.6 3.6 0 0 0-2.249-3.422 3.6 3.6 0 0 0-1.417-.256m2.095 6.305h-1.047l-1.048-1.576h-1.047v1.576h-1.047v-4.728h2.618a1.38 1.38 0 0 1 1.178.394 1.4 1.4 0 0 1 .393 1.182c0 .525-.524 1.05-1.047 1.576zm-1.571-2.627c.524 0 .524 0 .524-.525a.52.52 0 0 0-.322-.489.5.5 0 0 0-.202-.037h-1.571v1.576h1.571zm-469.73-4.728H69.1v31.522H89v9.982H57.58zm43.464 20.489a21.6 21.6 0 0 1 6.662-15.606 21.47 21.47 0 0 1 15.855-5.934 21.028 21.028 0 0 1 15.653 5.986 21.1 21.1 0 0 1 4.779 7.117 21.2 21.2 0 0 1 1.563 8.437 21.6 21.6 0 0 1-1.736 8.489 21.6 21.6 0 0 1-4.927 7.118 21.443 21.443 0 0 1-15.855 5.934 21.32 21.32 0 0 1-15.555-6.086 21.479 21.479 0 0 1-6.439-15.455m32.991 0a10.84 10.84 0 0 0-2.773-8.026 10.735 10.735 0 0 0-7.701-3.532 11 11 0 0 0-7.436 3.415 11.07 11.07 0 0 0 0 15.236 11 11 0 0 0 7.436 3.415c6.284 1.05 10.474-4.203 10.474-10.508m25.66 2.627v-23.116h11.52v23.116c0 5.779 3.142 8.932 7.855 8.932a7.32 7.32 0 0 0 5.953-2.299 7.35 7.35 0 0 0 1.648-2.835 7.35 7.35 0 0 0 .254-3.272v-23.642h11.521v23.116c0 13.66-7.855 19.439-19.376 19.439-12.044-.525-19.375-6.305-19.375-19.439m56.032-23.116h16.234c14.663 0 23.565 8.406 23.565 20.489s-8.902 21.015-23.565 21.015h-15.71v-41.504zm16.234 30.997a10.513 10.513 0 0 0 10.621-6.238 10.58 10.58 0 0 0 0-8.54 10.53 10.53 0 0 0-6.299-5.745 10.5 10.5 0 0 0-4.322-.492h-4.713v21.015zm39.799-30.997h32.991v9.982h-21.471v6.83h19.376v9.456h-19.376v15.236h-11.52zm49.225 0h11.52v31.522h19.9v9.982h-31.42zm61.269-.526h11.52l17.805 42.03h-12.568l-3.142-7.355h-16.234l-3.142 7.355H364.45zm10.473 25.744-4.713-11.559-4.713 11.559zm33.515-25.218h19.376a17.8 17.8 0 0 1 7.302.929 17.9 17.9 0 0 1 6.313 3.799 13.8 13.8 0 0 1 3.174 5.719c.585 2.134.649 4.379.187 6.543a13.8 13.8 0 0 1-2.843 5.892 13.74 13.74 0 0 1-5.231 3.912l9.95 14.71h-13.092L443 162.34h-5.236v12.609h-11.521zm18.852 19.964c3.666 0 6.284-2.102 6.284-4.728 0-3.153-2.618-4.729-6.284-4.729h-7.331v9.982h7.331zm34.038-19.964h33.515v9.456h-21.994v6.305h19.9v9.457h-19.9v6.304h22.518v9.982h-34.039zM32.444 159.188a10.37 10.37 0 0 1-3.776 4.562 10.33 10.33 0 0 1-5.65 1.743 11 11 0 0 1-7.436-3.415 11.07 11.07 0 0 1-3.037-7.618c0-2.837 1.087-5.564 3.037-7.618a11 11 0 0 1 7.436-3.415c2.142.041 4.224.71 5.992 1.923a11 11 0 0 1 3.958 4.907h12.044a21.73 21.73 0 0 0-7.832-12.71 21.6 21.6 0 0 0-14.162-4.628 21.8 21.8 0 0 0-8.485 1.427 21.8 21.8 0 0 0-7.275 4.607 21.9 21.9 0 0 0-4.934 7.071A21.95 21.95 0 0 0 .5 154.46a21.5 21.5 0 0 0 1.652 8.384 21.4 21.4 0 0 0 4.787 7.07A21.33 21.33 0 0 0 22.494 176a22.57 22.57 0 0 0 13.857-4.64 22.7 22.7 0 0 0 8.138-12.172z"/></g></g><defs><clipPath id="a"><path fill="#fff" d="M0 0h532v176H0z"/></clipPath><clipPath id="b"><path fill="#fff" d="M.5 0h531v176H.5z"/></clipPath></defs></svg>