<svg xmlns="http://www.w3.org/2000/svg" width="386" height="80" fill="none" viewBox="0 0 386 80"><path fill="#4b39ef" fill-rule="evenodd" d="M63.135 5c2.042 0 3.932 1.105 4.89 2.901a5.54 5.54 0 0 1-.102 5.431l-.034.057-8.592 14.373a5.46 5.46 0 0 1-4.6 2.661h-9.873l4.078 9.336.016.028.025.044c.96 1.736.937 3.8-.059 5.51l-.033.056-8.592 14.373a5.46 5.46 0 0 1-4.6 2.661H23.554l-8.657 9.132-.017.017a4.3 4.3 0 0 1-3.92 1.203 4.33 4.33 0 0 1-3.123-2.571l-.016-.038-4.556-10.458-.024-.04-.025-.044-.012-.023a5.54 5.54 0 0 1 .058-5.509l.034-.057 8.333-13.94-6.14-14.058.112-.057-.001-.009a5.53 5.53 0 0 1 .616-3.822l.037-.064.034-.058L14.88 7.662A5.46 5.46 0 0 1 19.48 5h43.655M18.02 62.323H8.89l2.682 6.202.006.016a.29.29 0 0 0 .224.194.26.26 0 0 0 .245-.067l.013-.012zm26.097-21.324H16.522q-.045 0-.092.003h-.008l7.566 17.308h11.608c.477 0 .937-.256 1.198-.666l.02-.033 8.605-14.382a1.46 1.46 0 0 0 .082-1.375c-.234-.517-.779-.855-1.384-.855m-30.464 3.553-6.829 11.51a1.49 1.49 0 0 0-.044 1.468l.026.048.013.023.028.045.055.082.06.079.059.066.01.011.04.04.034.033c.215.195.48.314.773.344l.066.006.038.002h11.635zm-1.796-14.1 3 6.878.058-.02a5.3 5.3 0 0 1 1.607-.276h26.831l-2.87-6.583zM63.06 9.011H35.365l7.569 17.312h11.603a1.44 1.44 0 0 0 1.2-.666l.02-.034 8.605-14.381c.257-.43.285-.927.082-1.374-.23-.506-.756-.842-1.347-.856zm-31.934 0H19.586a1.43 1.43 0 0 0-1.192.665l-.021.034L9.79 24.093c-.256.43-.284.928-.08 1.376.228.506.752.84 1.339.854h27.625z" clip-rule="evenodd"/><path fill="#ededed" fill-rule="evenodd" d="m108.868 26.558.033-8.812H84.692v40.058h9.114V43.097h11.929l.033-8.813H93.806v-7.726zm5.159 31.246h8.545V16.029h-8.545zm33.209-28.613v15.623c0 4.063-2.165 5.894-5.298 5.894-2.734 0-4.955-1.66-4.955-5.208V29.19h-8.544v17.57c0 7.725 4.898 11.845 10.651 11.845 3.76 0 6.608-1.373 8.146-3.49v2.689h8.544V29.191zm31.499 8.24v-8.24h-5.867v-8.012l-8.544 2.575v5.437h-4.557v8.24h4.557v10.13c0 8.011 3.247 11.388 14.411 10.243v-7.783c-3.759.23-5.867 0-5.867-2.46V37.43zm22.101 0v-8.24h-5.867v-8.012l-8.544 2.575v5.437h-4.557v8.24h4.557v10.13c0 8.011 3.247 11.388 14.411 10.243v-7.783c-3.759.23-5.867 0-5.867-2.46V37.43zm13.045 9.5h20.221q.342-1.63.342-3.434c0-8.64-6.152-15.107-14.469-15.107-8.999 0-15.151 6.58-15.151 15.107s6.038 15.108 15.778 15.108c5.411 0 9.627-2.003 12.418-5.894l-6.836-3.949c-1.139 1.26-3.133 2.175-5.468 2.175-3.133 0-5.753-1.03-6.835-4.006m-.171-6.41c.797-2.918 2.962-4.52 6.209-4.52 2.563 0 5.126 1.202 6.037 4.52zm34.12-6.237v-5.093h-8.545v28.613h8.545V44.871c0-5.666 5.012-7.096 8.544-6.524v-9.728c-3.589 0-7.405 1.83-8.544 5.665m36.991-7.726.033-8.812h-24.208v40.058h9.114V43.097h11.928l.034-8.813H269.76v-7.726zm5.16 31.246h8.544V16.029h-8.544zm28.481.801c8.373 0 15.094-6.58 15.094-15.108 0-8.526-6.721-15.107-15.094-15.107-8.374 0-15.095 6.58-15.095 15.107s6.721 15.108 15.095 15.108m0-8.355c-3.703 0-6.551-2.69-6.551-6.753s2.848-6.752 6.551-6.752c3.702 0 6.55 2.69 6.55 6.752 0 4.063-2.848 6.753-6.55 6.753m51.265-21.06-4.101 15.338-4.443-15.337h-7.975l-4.443 15.337-4.101-15.337h-9.114l9.114 28.613h7.974l4.557-15.28 4.557 15.28h7.975l9.114-28.613z" clip-rule="evenodd"/></svg>