<svg xmlns="http://www.w3.org/2000/svg" width="300" height="89" fill="none" viewBox="0 0 300 89"><g clip-path="url(#a)"><g fill-rule="evenodd" clip-path="url(#b)" clip-rule="evenodd"><path fill="url(#c)" d="M66.522 11.742h10.954c9.743 0 17.653 7.91 17.653 17.653v38.517c0 9.743-7.91 17.653-17.653 17.653h-.863c-5.015-.784-7.19-2.288-8.87-3.559l-13.927-11.45a1.97 1.97 0 0 0-2.466 0l-4.524 3.72-12.743-10.478a1.96 1.96 0 0 0-2.464 0L13.915 79.371c-3.562 2.898-5.919 2.363-7.447 2.195C2.52 78.326 0 73.411 0 67.912V29.395c0-9.743 7.91-17.653 17.654-17.653h10.93l-.02.044-.368 1.074-.115.368-.496 2.201-.068.385-.218 2.204-.029.605-.005.212.021 1.01.05.593.123.926.156.835.186.768.241.832.625 1.761.207.528 1.089 2.301.384.707 1.26 2.162.482.78 1.758 2.588.253.343 2.288 2.977.739.916 2.611 3.053.537.588 2.153 2.316.852.883 1.409 1.4-.282.236-.177.16c-.478.445-.932.92-1.357 1.417q-.308.362-.584.746a10 10 0 0 0-.755 1.233 7 7 0 0 0-.302.685 6.4 6.4 0 0 0-.409 1.86l-.008.551c.02.776.178 1.542.467 2.263.292.73.719 1.4 1.258 1.973.392.417.838.781 1.327 1.08.416.255.86.465 1.321.624a7.4 7.4 0 0 0 3.119.355h.005a7 7 0 0 0 2.573-.764q.519-.274.982-.636a6.3 6.3 0 0 0 1.981-2.635c.325-.81.484-1.675.47-2.546l-.026-.456a6.4 6.4 0 0 0-.426-1.753 7 7 0 0 0-.33-.716 10 10 0 0 0-.777-1.229 12 12 0 0 0-.41-.525 17 17 0 0 0-1.515-1.587l-.382-.325.646-.637 2.774-2.897.959-1.053 1.491-1.678.97-1.134 1.383-1.685.937-1.177 1.375-1.839.694-.95.985-1.474.82-1.254 1.546-2.692.884-1.766.025-.054.677-1.638a1 1 0 0 0 .023-.065l.729-2.274.076-.33.317-1.81.061-.49.019-.3.022-1.134-.006-.21-.058-1.016-.072-.788-.359-2.272a1 1 0 0 0-.021-.09l-.461-1.68-.159-.467zm5.207 48.032a4.26 4.26 0 0 0-4.183 4.183c.033 2.281 1.901 4.148 4.183 4.181 2.281-.033 4.149-1.9 4.184-4.18a4.263 4.263 0 0 0-4.184-4.184"/><path fill="#24175b" d="m207.646 74.498-12.457-26.666c-1.04-2.222-1.66-3.034-2.701-3.976l-1.012-.913c-.808-.783-1.338-1.508-1.338-2.369 0-1.233.976-2.271 2.755-2.271h10.815c1.697 0 2.755.883 2.755 2.201 0 .736-.338 1.288-.766 1.829-.507.643-1.168 1.269-1.168 2.412 0 .716.209 1.43.611 2.342l7.434 17.408 6.668-16.97c.41-1.129.69-2.123.69-2.919 0-1.239-.673-1.744-1.192-2.298-.452-.481-.813-.989-.813-1.804 0-1.331 1.083-2.201 2.541-2.201h6.66c1.867 0 2.755.966 2.755 2.201 0 .79-.455 1.523-1.351 2.313l-.942.774c-1.312 1.072-1.919 2.622-2.608 4.226l-10.099 24.329c-1.193 2.844-2.97 6.793-5.683 10.033-2.757 3.29-6.474 5.849-11.508 5.849-4.215 0-6.767-2.013-6.767-4.913 0-2.657 1.965-4.774 4.547-4.774 1.414 0 2.149.668 2.895 1.355.617.566 1.243 1.148 2.477 1.148 1.144 0 2.21-.484 3.177-1.266 1.476-1.194 2.712-3.073 3.625-5.08M38.136 85.565H17.655a17.58 17.58 0 0 1-11.186-3.999c1.528.168 3.885.703 7.447-2.195l17.704-15.573a1.96 1.96 0 0 1 2.464 0l12.743 10.478 4.524-3.721a1.97 1.97 0 0 1 2.466 0l13.927 11.451c1.68 1.271 3.855 2.775 8.87 3.559h-9.265a3.94 3.94 0 0 1-2.274-.757l-.163-.125-12.256-10.178L40.56 84.683a3.88 3.88 0 0 1-2.423.882m242.708-11.162q8.41-.002 13.784-5.755Q300 62.906 300 54.824c0-5.259-1.702-9.58-5.093-12.966s-7.79-5.085-13.204-5.085c-5.701 0-10.363 1.851-13.994 5.539q-5.449 5.536-5.449 13.415.002 7.808 5.195 13.237c3.464 3.622 7.925 5.439 13.389 5.439m-47.413-.417c3.242 0 5.547-2.183 5.547-5.33 0-3.073-2.381-5.26-5.547-5.26-3.318 0-5.692 2.191-5.692 5.26 0 3.144 2.376 5.33 5.692 5.33m11.544-4.988.79-.834c.938-.912 1.24-1.833 1.24-4.373V48.776c0-2.196-.298-3.176-1.23-4.015l-.928-.832c-.91-.803-1.209-1.302-1.209-2.104 0-1.14.884-2.075 2.306-2.399l6.303-1.53c.603-.146 1.283-.288 1.81-.288.725 0 1.319.238 1.735.652s.662 1.011.662 1.758v23.773c0 2.397.291 3.512 1.292 4.354a1 1 0 0 1 .045.045l.705.821c.885.861 1.252 1.432 1.252 2.217 0 1.401-1.056 2.202-2.754 2.202h-10.672c-1.618 0-2.684-.796-2.684-2.202 0-.789.368-1.365 1.337-2.23m-71.334.001.789-.835c.939-.912 1.241-1.833 1.241-4.373v-31.35c0-2.126-.225-3.17-1.22-4.008l-.953-.922c-.821-.798-1.121-1.293-1.121-2.091 0-1.142.888-2.073 2.232-2.399l6.231-1.529c.604-.146 1.283-.289 1.811-.289.72 0 1.329.217 1.764.628.436.413.704 1.026.704 1.852v40.108c0 2.403.299 3.454 1.304 4.363l.804.851c.891.867 1.188 1.434 1.188 2.223 0 .582-.178 1.051-.494 1.409-.446.504-1.193.793-2.19.793H175.06c-.996 0-1.744-.289-2.191-.793-.315-.358-.492-.827-.492-1.409 0-.79.293-1.362 1.264-2.229m-29.058-16.145v10.798c0 1.627.322 3.129 1.662 4.366l.867.841c.971.942 1.266 1.506 1.266 2.369 0 1.319-1.057 2.202-2.755 2.202h-12.032c-1.698 0-2.755-.883-2.755-2.202 0-1.024.301-1.509 1.271-2.374l.864-.839c1.005-.91 1.661-2.151 1.661-4.363V34.805c0-1.758-.389-3.196-1.662-4.367l-.868-.841c-.892-.866-1.266-1.435-1.266-2.3 0-1.398 1.061-2.271 2.755-2.271h32.23c1.231 0 2.314.274 3.005.952.481.472.788 1.137.823 2.06l.502 7.44c.05.93-.225 1.706-.761 2.184-.37.329-.867.526-1.493.526-.789 0-1.394-.298-1.934-.812-.485-.462-.917-1.111-1.405-1.875-1.177-1.881-1.725-2.558-2.98-3.438-1.746-1.288-4.407-1.731-9.437-1.731-2.903 0-4.735.127-5.889.424-.746.193-1.177.443-1.407.81-.237.376-.262.851-.262 1.431v14.62h7.558c1.808 0 3.08-.327 4.554-2.341l.008-.012c.591-.752 1.019-1.306 1.426-1.673.473-.429.929-.632 1.532-.632a2.21 2.21 0 0 1 2.182 2.203v10.079c0 1.35-1.052 2.271-2.182 2.271-.562 0-1.018-.2-1.493-.62-.409-.359-.838-.898-1.394-1.617-1.613-2.088-2.752-2.421-4.633-2.421zm127.7-.255c0-3.616.788-6.215 2.42-7.778 1.613-1.543 3.346-2.324 5.209-2.324 2.563 0 4.873 1.435 6.956 4.255 2.128 2.884 3.181 6.781 3.181 11.686 0 3.62-.79 6.243-2.425 7.851-1.611 1.586-3.343 2.39-5.205 2.39-2.563 0-4.871-1.446-6.955-4.288-2.129-2.908-3.181-6.841-3.181-11.792M71.729 59.774a4.26 4.26 0 0 0-4.183 4.183c.033 2.281 1.9 4.148 4.183 4.181 2.28-.033 4.149-1.9 4.184-4.181a4.263 4.263 0 0 0-4.184-4.183m-27.04-12.672-1.41-1.4-.851-.883-2.153-2.316-.537-.588-2.611-3.053-.74-.916-2.287-2.977-.253-.343-1.758-2.588-.482-.78-1.26-2.162-.384-.707-1.09-2.301-.206-.528-.625-1.761-.241-.832-.186-.768-.156-.835-.123-.926-.05-.593-.021-1.01.005-.212.029-.605.218-2.204.068-.385.496-2.201.115-.368.368-1.074.118-.278.587-1.289.406-.767.567-.934.564-.831.402-.529.464-.558.51-.561.436-.439 1.064-.936.778-.637q.028-.023.057-.044l.92-.622.732-.466 1.388-.731q.032-.018.067-.033l1.968-.817.182-.068 1.75-.513.739-.165.999-.201.663-.101L44.94.14l.693-.061 1.375-.073.539-.006 1.02.021.266.015 1.478.123 1.956.275.226.048 1.933.481.567.169.63.218.769.291.607.257.892.42.562.289 1.01.593.377.232 1.378 1.006.395.343.96.874.048.048.814.874.28.316.957 1.27.194.303.759 1.282.228.439.428.956.447 1.116.159.467.46 1.68q.015.045.022.09l.359 2.272.072.788.058 1.015.006.211-.022 1.133-.02.3-.06.49-.317 1.81-.076.331-.73 2.274a1 1 0 0 1-.022.065l-.677 1.638-.025.054-.884 1.766-1.546 2.692-.82 1.254-.985 1.473-.694.951-1.375 1.839-.937 1.177-1.383 1.685-.97 1.134-1.491 1.678-.96 1.053-2.773 2.897-.646.637.382.325a17 17 0 0 1 1.515 1.587q.212.256.41.525.434.586.777 1.229.184.349.33.716c.22.561.37 1.154.426 1.753l.026.456a6.6 6.6 0 0 1-.47 2.546 6.3 6.3 0 0 1-1.981 2.635 6.6 6.6 0 0 1-.982.636 7 7 0 0 1-2.573.764h-.005a7.4 7.4 0 0 1-3.12-.355 6.8 6.8 0 0 1-1.32-.624 6.4 6.4 0 0 1-1.327-1.08 6.3 6.3 0 0 1-1.258-1.973 6.5 6.5 0 0 1-.467-2.263l.008-.551c.042-.637.18-1.264.409-1.86q.134-.352.302-.685.331-.645.755-1.233.277-.384.584-.746.638-.747 1.357-1.418l.177-.159zm206.504-14.058c3.249 0 5.547-1.829 5.547-4.983 0-3.079-2.296-4.912-5.547-4.912-3.327 0-5.621 1.834-5.621 4.912s2.295 4.983 5.621 4.983"/><path fill="#fff" d="M52.655 74.505 64.91 84.683c.7.57 1.576.88 2.479.882H38.095c.9 0 1.77-.311 2.465-.882zm-5.03-24.02.112.032c.035.018.066.043.098.065l.093.082q.344.318.666.66.226.241.439.498.271.326.5.68.1.156.186.32.075.143.134.293c.07.174.122.357.138.543l-.003.35a2 2 0 0 1-.947 1.556c-.35.212-.744.342-1.151.379l-.433.013-.365-.032a3 3 0 0 1-.501-.122 2.4 2.4 0 0 1-.475-.222l-.285-.209a1.95 1.95 0 0 1-.65-1.112 3 3 0 0 1-.033-.221l-.01-.333q.008-.135.039-.269.076-.293.212-.563.175-.338.399-.648.37-.5.8-.951.276-.293.57-.565l.14-.127c.098-.065.099-.065.21-.097zm-.717-46.522.045-.004V42.97l-.097-.18a109 109 0 0 1-3.584-7.262 78 78 0 0 1-2.432-6.089 48 48 0 0 1-1.465-5.013c-.31-1.348-.545-2.715-.642-4.096q-.057-.885-.034-1.771.014-.77.063-1.541.075-1.212.25-2.412c.095-.629.21-1.256.354-1.876q.17-.74.397-1.462.327-1.043.782-2.037.166-.359.356-.709c.753-1.395 1.775-2.68 3.113-3.54a6.5 6.5 0 0 1 2.894-1.019m5.059.098 2.624.749a16 16 0 0 1 3.46 1.763 13.9 13.9 0 0 1 3.723 3.712c.582.87 1.065 1.802 1.44 2.779.547 1.444.885 2.96 1.004 4.499q.052.604.063 1.212c.009.375.007.752-.023 1.127-.075.84-.233 1.671-.472 2.48a20 20 0 0 1-.68 1.951 28 28 0 0 1-1.08 2.332c-.875 1.69-1.881 3.306-2.96 4.869a76 76 0 0 1-4.266 5.568 106 106 0 0 1-5.12 5.674 108 108 0 0 0 3.37-6.894 85 85 0 0 0 1.638-3.947 62 62 0 0 0 1.526-4.439q.507-1.684.878-3.404c.209-.984.374-1.978.476-2.978q.127-1.253.096-2.509a36 36 0 0 0-.057-1.536c-.123-2.057-.436-4.108-1.036-6.081a18 18 0 0 0-.827-2.193c-.768-1.673-1.84-3.237-3.291-4.378z"/><path fill="url(#d)" d="M66.515 11.741h10.953c9.742 0 17.651 7.91 17.651 17.651v38.513c0 9.742-7.909 17.652-17.651 17.652h-.863c-5.014-.785-7.189-2.288-8.869-3.559l-13.925-11.45a1.97 1.97 0 0 0-2.466 0l-4.524 3.72L34.08 63.791a1.964 1.964 0 0 0-2.465 0L13.914 79.363c-3.562 2.898-5.919 2.363-7.447 2.195C2.52 78.318 0 73.404 0 67.905V29.392c0-9.742 7.909-17.65 17.653-17.65h10.928l-.02.043-.368 1.074-.115.368-.496 2.2-.068.386-.218 2.203-.029.605-.004.212.021 1.01.049.592.123.927.157.834.185.77.241.83.626 1.761.206.53 1.089 2.3.384.706 1.26 2.162.482.78 1.757 2.588.254.343 2.287 2.976.739.916 2.611 3.053.537.588 2.152 2.316.853.882 1.409 1.4-.283.236-.176.16c-.479.445-.933.92-1.358 1.417q-.306.362-.584.746a9.6 9.6 0 0 0-.754 1.233 7 7 0 0 0-.302.684 6.3 6.3 0 0 0-.409 1.861l-.008.55a6.385 6.385 0 0 0 3.051 5.316c.416.255.86.464 1.321.624a7.4 7.4 0 0 0 3.119.355h.005a7 7 0 0 0 2.572-.764q.52-.275.983-.636a6.3 6.3 0 0 0 1.981-2.634c.324-.81.483-1.676.469-2.547l-.025-.455a6.4 6.4 0 0 0-.427-1.753 7 7 0 0 0-.33-.716 10 10 0 0 0-.776-1.229 12 12 0 0 0-.41-.525 17 17 0 0 0-1.516-1.587l-.381-.325.646-.637 2.773-2.896.959-1.053 1.491-1.678.97-1.134 1.383-1.684.937-1.178 1.375-1.838.694-.95.984-1.474.821-1.255 1.545-2.69.884-1.766.026-.055.676-1.638a1 1 0 0 0 .023-.065l.729-2.273.077-.33.316-1.81.061-.49.019-.3.022-1.134-.006-.21-.058-1.016-.072-.788-.359-2.272q-.007-.045-.021-.09l-.461-1.68-.159-.467zm5.207 48.027a4.26 4.26 0 0 0-4.183 4.182 4.264 4.264 0 0 0 4.183 4.181c2.281-.033 4.148-1.9 4.183-4.18-.033-2.283-1.901-4.15-4.183-4.183"/><path fill="#24175b" d="m207.646 74.498-12.457-26.666c-1.04-2.222-1.66-3.034-2.701-3.976l-1.012-.913c-.808-.783-1.338-1.508-1.338-2.369 0-1.233.976-2.271 2.755-2.271h10.815c1.697 0 2.755.883 2.755 2.201 0 .736-.338 1.288-.766 1.829-.507.643-1.168 1.269-1.168 2.412 0 .716.209 1.43.611 2.342l7.434 17.408 6.668-16.97c.41-1.129.69-2.123.69-2.919 0-1.239-.673-1.744-1.192-2.298-.452-.481-.813-.989-.813-1.804 0-1.331 1.083-2.201 2.541-2.201h6.66c1.867 0 2.755.966 2.755 2.201 0 .79-.455 1.523-1.351 2.313l-.942.774c-1.312 1.072-1.919 2.622-2.608 4.226l-10.099 24.329c-1.193 2.844-2.97 6.793-5.683 10.033-2.757 3.29-6.474 5.849-11.508 5.849-4.215 0-6.767-2.013-6.767-4.913 0-2.657 1.965-4.774 4.547-4.774 1.414 0 2.149.668 2.895 1.355.617.566 1.243 1.148 2.477 1.148 1.144 0 2.21-.484 3.177-1.266 1.476-1.194 2.712-3.073 3.625-5.08M41.294 84.053l-.738.621a3.88 3.88 0 0 1-2.423.883h-20.48a17.6 17.6 0 0 1-11.186-3.999c1.528.167 3.885.703 7.447-2.195l17.7-15.572a1.964 1.964 0 0 1 2.466 0l12.74 10.477 4.525-3.72a1.97 1.97 0 0 1 2.466 0l13.925 11.45c1.68 1.271 3.855 2.774 8.869 3.559H67.34a3.94 3.94 0 0 1-2.274-.758l-.162-.125-.688-.571a1.4 1.4 0 0 0-.182-.185c-.78-.652-10.645-8.826-10.645-8.826a1.16 1.16 0 0 0-1.484.003s.024.03-10.473 8.823q-.075.063-.14.135m239.55-9.65q8.41-.002 13.784-5.755Q300 62.906 300 54.824c0-5.259-1.702-9.58-5.093-12.966s-7.79-5.085-13.204-5.085c-5.701 0-10.363 1.851-13.994 5.539q-5.449 5.536-5.449 13.415.002 7.808 5.195 13.237c3.464 3.622 7.925 5.439 13.389 5.439m-47.413-.417c3.242 0 5.547-2.183 5.547-5.33 0-3.073-2.381-5.26-5.547-5.26-3.318 0-5.692 2.191-5.692 5.26 0 3.144 2.376 5.33 5.692 5.33m11.544-4.988.79-.834c.938-.912 1.24-1.833 1.24-4.373V48.776c0-2.196-.298-3.176-1.23-4.015l-.928-.832c-.91-.803-1.209-1.302-1.209-2.104 0-1.14.884-2.075 2.306-2.399l6.303-1.53c.603-.146 1.283-.288 1.81-.288.725 0 1.319.238 1.735.652s.662 1.011.662 1.758v23.773c0 2.397.291 3.512 1.292 4.354a1 1 0 0 1 .045.045l.705.821c.885.861 1.252 1.432 1.252 2.217 0 1.401-1.056 2.202-2.754 2.202h-10.672c-1.618 0-2.684-.796-2.684-2.202 0-.789.368-1.365 1.337-2.23m-71.334.001.789-.835c.939-.912 1.241-1.833 1.241-4.373v-31.35c0-2.126-.225-3.17-1.22-4.008l-.953-.922c-.821-.798-1.121-1.293-1.121-2.091 0-1.142.888-2.073 2.232-2.399l6.231-1.529c.604-.146 1.283-.289 1.811-.289.72 0 1.329.217 1.764.628.436.413.704 1.026.704 1.852v40.108c0 2.403.299 3.454 1.304 4.363l.804.851c.891.867 1.188 1.434 1.188 2.223 0 .582-.178 1.051-.494 1.409-.446.504-1.193.793-2.19.793H175.06c-.996 0-1.744-.289-2.191-.793-.315-.358-.492-.827-.492-1.409 0-.79.293-1.362 1.264-2.229m-29.058-16.145v10.798c0 1.627.322 3.129 1.662 4.366l.867.841c.971.942 1.266 1.506 1.266 2.369 0 1.319-1.057 2.202-2.755 2.202h-12.032c-1.698 0-2.755-.883-2.755-2.202 0-1.024.301-1.509 1.271-2.374l.864-.839c1.005-.91 1.661-2.151 1.661-4.363V34.805c0-1.758-.389-3.196-1.662-4.367l-.868-.841c-.892-.866-1.266-1.435-1.266-2.3 0-1.398 1.061-2.271 2.755-2.271h32.23c1.231 0 2.314.274 3.005.952.481.472.788 1.137.823 2.06l.502 7.44c.05.93-.225 1.706-.761 2.184-.37.329-.867.526-1.493.526-.789 0-1.394-.298-1.934-.812-.485-.462-.917-1.111-1.405-1.875-1.177-1.881-1.725-2.558-2.98-3.438-1.746-1.288-4.407-1.731-9.437-1.731-2.903 0-4.735.127-5.889.424-.746.193-1.177.443-1.407.81-.237.376-.262.851-.262 1.431v14.62h7.558c1.808 0 3.08-.327 4.554-2.341l.008-.012c.591-.752 1.019-1.306 1.426-1.673.473-.429.929-.632 1.532-.632a2.21 2.21 0 0 1 2.182 2.203v10.079c0 1.35-1.052 2.271-2.182 2.271-.562 0-1.018-.2-1.493-.62-.409-.359-.838-.898-1.394-1.617-1.613-2.088-2.752-2.421-4.633-2.421zm127.7-.255c0-3.616.788-6.215 2.42-7.778 1.613-1.543 3.346-2.324 5.209-2.324 2.563 0 4.873 1.435 6.956 4.255 2.128 2.884 3.181 6.781 3.181 11.686 0 3.62-.79 6.243-2.425 7.851-1.611 1.586-3.343 2.39-5.205 2.39-2.563 0-4.871-1.446-6.955-4.288-2.129-2.908-3.181-6.841-3.181-11.792M71.722 59.768a4.26 4.26 0 0 0-4.183 4.182 4.264 4.264 0 0 0 4.183 4.181c2.28-.033 4.148-1.9 4.183-4.181-.033-2.282-1.901-4.15-4.183-4.182M44.685 47.097l-1.41-1.4-.852-.882-2.152-2.316-.537-.588-2.611-3.053-.74-.916-2.286-2.976-.254-.343-1.757-2.588-.482-.78-1.26-2.162-.384-.707-1.09-2.3-.205-.529-.626-1.761-.241-.831-.185-.769-.157-.834-.123-.927-.05-.592-.02-1.01.004-.212.029-.605.218-2.203.068-.386.496-2.2.115-.368.368-1.074.119-.278.586-1.289.406-.767.567-.933.564-.832.402-.529.464-.558.509-.561.437-.439 1.064-.936.777-.636.058-.044.92-.622.73-.466 1.389-.731q.032-.019.067-.033l1.968-.817.182-.069 1.75-.512.739-.165.998-.201.663-.101L44.936.14l.693-.061 1.375-.073.539-.006 1.02.021.266.015 1.478.123 1.956.275.226.048 1.932.481.568.169.63.218.768.29.607.258.892.42.562.289 1.01.593.377.232 1.377 1.005.395.343.96.875.048.047.815.874.28.316.956 1.27.195.303.759 1.282.228.439.427.956.447 1.115.159.467.46 1.68q.015.045.022.09l.359 2.272.072.788.058 1.015.006.211-.022 1.133-.02.3-.06.49-.316 1.81-.077.331-.73 2.273a1 1 0 0 1-.022.065l-.676 1.638-.026.055-.884 1.765-1.545 2.691-.821 1.255-.984 1.473-.694.951-1.375 1.838-.937 1.177-1.383 1.685-.97 1.134-1.491 1.678-.96 1.053-2.772 2.896-.646.637.38.325q.81.745 1.517 1.587.211.256.41.525.434.586.776 1.229.184.349.33.716c.222.561.37 1.154.427 1.753l.025.455a6.6 6.6 0 0 1-.47 2.547 6.3 6.3 0 0 1-1.98 2.634q-.463.361-.983.636a7 7 0 0 1-2.572.764h-.005a7.4 7.4 0 0 1-3.12-.355 6.8 6.8 0 0 1-1.32-.624 6.4 6.4 0 0 1-1.326-1.08 6.3 6.3 0 0 1-1.26-1.973 6.6 6.6 0 0 1-.465-2.263l.008-.55c.041-.637.18-1.265.409-1.861q.134-.351.302-.684.331-.645.754-1.233.277-.384.584-.746.638-.748 1.358-1.418l.176-.159zm206.508-14.053c3.249 0 5.547-1.829 5.547-4.983 0-3.079-2.296-4.912-5.547-4.912-3.327 0-5.621 1.834-5.621 4.912s2.295 4.983 5.621 4.983"/><path fill="#fff" d="m40.556 84.674 11.35-9.579a1.16 1.16 0 0 1 1.484-.003l11.515 9.582c.7.57 1.575.882 2.478.883H38.092c.899 0 1.77-.312 2.464-.883M47.62 50.48l.112.032c.036.018.066.043.098.065l.093.082q.344.317.666.66.226.24.439.498.271.324.5.68.1.155.186.32.075.143.134.293c.07.173.122.356.138.543l-.003.35a2 2 0 0 1-.947 1.556c-.35.211-.744.341-1.151.379l-.433.012-.364-.032a3 3 0 0 1-.502-.122 2.4 2.4 0 0 1-.475-.222l-.285-.209a1.96 1.96 0 0 1-.65-1.112 3 3 0 0 1-.032-.22l-.011-.334q.01-.135.039-.268.076-.293.213-.563.175-.339.398-.648.619-.819 1.37-1.517l.14-.126c.098-.065.099-.065.21-.097zm-.717-46.518.046-.003v39.006l-.098-.179a109 109 0 0 1-3.583-7.262 78 78 0 0 1-2.432-6.088 48 48 0 0 1-1.465-5.013c-.31-1.347-.545-2.714-.642-4.095a20 20 0 0 1-.034-1.771q.014-.77.063-1.54.075-1.213.25-2.412.141-.945.354-1.876.17-.74.397-1.462.326-1.043.782-2.037.166-.359.355-.709c.753-1.395 1.775-2.68 3.113-3.539a6.5 6.5 0 0 1 2.894-1.02m5.059.099 2.624.748a16 16 0 0 1 3.46 1.763 13.9 13.9 0 0 1 3.72 3.712c.584.87 1.067 1.802 1.443 2.779a16.3 16.3 0 0 1 1.003 4.498q.051.605.062 1.212c.01.375.007.752-.023 1.127-.074.84-.232 1.67-.471 2.479q-.29.993-.68 1.951a28 28 0 0 1-1.08 2.333c-.875 1.689-1.882 3.305-2.96 4.868a76 76 0 0 1-4.266 5.568 106 106 0 0 1-5.118 5.673 109 109 0 0 0 3.369-6.893 86 86 0 0 0 1.638-3.947 63 63 0 0 0 1.526-4.439c.336-1.122.632-2.257.877-3.404.209-.983.374-1.977.476-2.977q.128-1.25.096-2.509a36 36 0 0 0-.057-1.535c-.123-2.058-.435-4.109-1.035-6.082a18 18 0 0 0-.828-2.192c-.768-1.672-1.84-3.236-3.29-4.378z"/></g></g><defs><radialGradient id="c" cx="0" cy="0" r="1" gradientTransform="translate(50.51 48.332)scale(68.9126)" gradientUnits="userSpaceOnUse"><stop stop-color="#ba7bf0"/><stop offset=".45" stop-color="#996bec"/><stop offset="1" stop-color="#5046e4"/></radialGradient><radialGradient id="d" cx="0" cy="0" r="1" gradientTransform="translate(50.504 48.327)scale(68.9056)" gradientUnits="userSpaceOnUse"><stop stop-color="#ba7bf0"/><stop offset=".45" stop-color="#996bec"/><stop offset="1" stop-color="#5046e4"/></radialGradient><clipPath id="a"><path fill="#fff" d="M0 0h300v89H0z"/></clipPath><clipPath id="b"><path fill="#fff" d="M0 0h300v89H0z"/></clipPath></defs></svg>