<svg xmlns="http://www.w3.org/2000/svg" width="333" height="70" fill="none" viewBox="0 0 333 70"><g clip-path="url(#a)"><path fill="#171717" d="M.861 68.988V.486h27.84c15.044 0 25.105 8.905 25.105 22.802 0 8.807-4.591 15.853-11.722 19.278l13.48 26.422H39.35L27.822 45.991H15.514v22.997zm26.668-56.27H15.514v21.04h12.015c6.936 0 11.332-4.11 11.332-10.47 0-6.46-4.396-10.57-11.332-10.57m57.168 56.858c-16.704 0-26.765-10.08-26.765-25.64 0-15.658 10.257-25.835 25.788-25.835 15.044 0 25.203 9.395 25.398 24.171 0 1.468-.097 3.132-.39 4.698H72.291v.685c.294 7.144 4.885 11.45 11.82 11.45 5.568 0 9.476-2.447 10.648-7.144h13.578c-1.563 9.786-10.257 17.615-23.64 17.615m-12.112-31.61h22.662c-.977-6.165-5.177-9.59-11.429-9.59-5.959 0-10.452 3.621-11.233 9.59m41.335 14.288h13.089c.489 4.404 4.298 7.438 11.039 7.438 5.763 0 9.279-1.86 9.279-5.383 0-4.11-3.418-4.403-11.526-5.48-11.722-1.37-20.807-4.012-20.807-14.385 0-9.982 8.694-16.539 21.588-16.441 13.481 0 22.761 5.97 23.444 16.245h-13.187c-.391-4.012-4.2-6.459-9.768-6.459-5.373 0-8.89 1.957-8.89 5.187 0 3.816 4.298 4.208 11.527 5.088 11.527 1.175 21.1 3.817 21.1 15.169 0 9.982-9.378 16.343-22.858 16.343-13.969 0-23.444-6.557-24.03-17.322m78.955 17.322c-16.704 0-26.766-10.08-26.766-25.64 0-15.658 10.258-25.835 25.789-25.835 15.044 0 25.203 9.395 25.398 24.171 0 1.468-.098 3.132-.39 4.698h-36.437v.685c.293 7.144 4.884 11.45 11.82 11.45 5.568 0 9.475-2.447 10.648-7.144h13.578c-1.563 9.786-10.257 17.615-23.64 17.615m-12.113-31.61h22.663c-.977-6.165-5.177-9.59-11.429-9.59-5.959 0-10.452 3.621-11.234 9.59m72.878-19.865c10.844 0 20.123 5.774 20.123 22.997v27.89H259.99v-26.52c0-8.514-3.225-13.015-10.161-13.015-7.13 0-11.233 5.089-11.233 13.798v25.737h-13.773v-50.3h12.015l1.271 6.263c3.222-3.914 7.815-6.85 15.531-6.85m65.048 6.85V.486h13.773v68.502h-12.015l-1.368-6.948c-3.322 4.306-8.205 7.536-15.434 7.536-13.48 0-23.346-9.884-23.346-25.835 0-15.56 9.866-25.64 23.249-25.64 6.934 0 11.916 2.74 15.141 6.85m-12.016 33.37c7.523 0 12.21-5.871 12.21-14.385 0-8.612-4.687-14.581-12.21-14.581-7.522 0-12.308 5.871-12.308 14.483s4.786 14.484 12.308 14.484"/></g><defs><clipPath id="a"><path fill="#fff" d="M0 0h333v70H0z"/></clipPath></defs></svg>