<svg xmlns="http://www.w3.org/2000/svg" width="626" height="190" fill="none" viewBox="0 0 626 190"><g fill="#171717" clip-path="url(#a)"><path d="M441.191 37.933h-33.357a1.79 1.79 0 0 0-1.654 1.654v19.298a1.79 1.79 0 0 0 1.654 1.654h33.357a1.79 1.79 0 0 0 1.655-1.654V39.587q0-1.654-1.655-1.654m-.551 28.671h-63.959c-.827 0-1.929.827-2.205 1.654l-8.271 31.428-.551 1.654-9.649-33.633c-.276-.827-1.103-1.654-2.205-1.654h-24.812c-.827 0-1.93.827-2.206 1.654l-9.373 31.428-.551 1.654-.552-1.654-7.719-30.877c-.275-.827-1.102-1.654-2.205-1.654h-49.899V39.587c0-.827-1.103-1.93-2.206-1.378l-31.703 9.649c-.827.275-1.654.827-1.654 1.654v17.092h-8.271a1.79 1.79 0 0 0-1.654 1.654v23.985a1.79 1.79 0 0 0 1.654 1.654h8.271v29.222c0 20.677 11.303 30.326 32.255 30.326 8.546 0 17.092-1.93 22.606-4.963v-24.811c0-1.379-1.103-1.654-1.654-1.379-3.308 1.379-6.065 1.93-9.098 1.93-5.514 0-8.546-2.205-8.546-8.822V93.897h17.919a1.794 1.794 0 0 0 1.655-1.654V72.118l23.708 78.846c.276.827 1.103 1.654 2.206 1.654h26.19c.827 0 1.93-.827 2.205-1.654l11.303-35.012 11.028 34.736c.275.827 1.378 1.654 2.205 1.654h26.19c.827 0 1.93-.827 2.206-1.654l23.984-79.122v79.122a1.8 1.8 0 0 0 1.654 1.654h31.98a1.79 1.79 0 0 0 1.654-1.654v-82.43c-.276-1.102-1.103-1.654-1.93-1.654m42.18-28.671h-31.98a1.79 1.79 0 0 0-1.654 1.654v111.101a1.8 1.8 0 0 0 1.654 1.654h31.98a1.79 1.79 0 0 0 1.654-1.654V39.587c0-1.103-.827-1.654-1.654-1.654m42.731 0h-33.358a1.79 1.79 0 0 0-1.654 1.654v19.298a1.79 1.79 0 0 0 1.654 1.654h33.358a1.79 1.79 0 0 0 1.654-1.654V39.587q0-1.654-1.654-1.654M525 66.604h-31.98a1.79 1.79 0 0 0-1.654 1.654v82.43a1.79 1.79 0 0 0 1.654 1.654H525a1.79 1.79 0 0 0 1.654-1.654v-82.43c0-1.102-.827-1.654-1.654-1.654m52.931-2.205c-28.12 0-47.969 20.676-47.969 44.661v.275c0 23.985 19.849 44.385 47.693 44.385 28.12 0 47.969-20.676 47.969-44.66v-.276c.276-23.985-19.573-44.385-47.693-44.385m13.784 44.936c0 7.995-5.789 14.887-13.784 14.887-7.719 0-14.06-6.616-14.06-15.162v-.276c0-7.995 5.789-14.887 13.784-14.887 7.719 0 14.06 6.616 14.06 15.163zM94.38.991C42.552.991.372 43.171.372 95s42.18 94.008 94.009 94.008c52.104.276 94.284-41.904 94.284-94.008 0-52.105-42.18-94.009-94.284-94.009m0 163.481c-38.044 0-69.196-31.152-69.196-69.472 0-38.045 31.152-69.197 69.197-69.197 38.32 0 69.472 31.152 69.472 69.197 0 38.32-31.152 69.472-69.473 69.472"/><path d="M117.814 91.14c10.81 0 19.573-8.764 19.573-19.574s-8.763-19.573-19.573-19.573S98.24 60.756 98.24 71.566s8.764 19.574 19.574 19.574M117.814 138.007c10.81 0 19.573-8.764 19.573-19.574s-8.763-19.574-19.573-19.574-19.574 8.764-19.574 19.574 8.764 19.574 19.574 19.574M70.948 138.007c10.81 0 19.573-8.764 19.573-19.574s-8.763-19.574-19.573-19.574-19.574 8.764-19.574 19.574 8.763 19.574 19.574 19.574M70.948 91.14c10.81 0 19.573-8.764 19.573-19.574s-8.763-19.573-19.573-19.573-19.574 8.763-19.574 19.573S60.137 91.14 70.948 91.14"/></g><defs><clipPath id="a"><path fill="#fff" d="M0 0h626v190H0z"/></clipPath></defs></svg>