<?xml version="1.0" standalone="no"?>
<!DOCTYPE svg PUBLIC "-//W3C//DTD SVG 1.1//EN" "http://www.w3.org/Graphics/SVG/1.1/DTD/svg11.dtd" >
<svg xmlns="http://www.w3.org/2000/svg" xmlns:xlink="http://www.w3.org/1999/xlink" version="1.1">
<metadata>
Created by FontForge 20170731 at Thu Jun  9 00:20:48 2016
 By Aleksey,,,
Copyright 2010, 2012 Adobe Systems Incorporated (http://www.adobe.com/), with Reserved Font Name `Source'.
</metadata>
<defs>
<font id="SourceCodePro-Regular" horiz-adv-x="600" >
  <font-face 
    font-family="Source Code Pro"
    font-weight="400"
    font-stretch="normal"
    units-per-em="1000"
    panose-1="2 11 5 9 3 4 3 2 2 4"
    ascent="750"
    descent="-250"
    x-height="486"
    cap-height="656"
    bbox="-193 -454 793 1060"
    underline-thickness="50"
    underline-position="-150"
    unicode-range="U+0020-1F916"
  />
<missing-glyph 
d="M62 0v660h476v-660h-476zM170 58h257l-73 132l-52 103h-4l-54 -103zM127 110l128 230l-128 232v-462zM298 387h4l49 94l66 119h-235l66 -119zM345 340l127 -230v462z" />
    <glyph glyph-name="u1F3B5_uniFE0F" unicode="&#xfe0f;" 
d="M178 -24q-41 0 -71 19t-30 57q0 23 11.5 44t32 37.5t49.5 26t64 9.5q20 0 37 -3.5t24 -8.5v537h50q4 -10 8 -17.5t11.5 -15t19.5 -17t31 -22.5q34 -24 56 -47t35 -46.5t18 -49t5 -53.5q0 -39 -10.5 -73.5t-21.5 -57.5l-35 13q8 24 10.5 44.5t2.5 47.5q0 48 -32.5 89.5
t-92.5 60.5v-407q0 -41 -14 -72.5t-37.5 -52.5t-55 -31.5t-65.5 -10.5z" />
    <glyph glyph-name="u1F3B5_uniFE0F" unicode="&#xfe0f;" 
d="M178 -24q-41 0 -71 19t-30 57q0 23 11.5 44t32 37.5t49.5 26t64 9.5q20 0 37 -3.5t24 -8.5v537h50q4 -10 8 -17.5t11.5 -15t19.5 -17t31 -22.5q34 -24 56 -47t35 -46.5t18 -49t5 -53.5q0 -39 -10.5 -73.5t-21.5 -57.5l-35 13q8 24 10.5 44.5t2.5 47.5q0 48 -32.5 89.5
t-92.5 60.5v-407q0 -41 -14 -72.5t-37.5 -52.5t-55 -31.5t-65.5 -10.5z" />
    <glyph glyph-name="u1F3B6_uniFE0F" unicode="&#xfe0f;" 
d="M104 -24q-40 0 -70 19t-30 57q0 23 11 44t30.5 37.5t47.5 26t61 9.5q20 0 37 -3.5t24 -8.5v517l378 60v-539q0 -41 -13.5 -72t-36.5 -52t-53.5 -31.5t-63.5 -10.5q-40 0 -69.5 19t-29.5 57q0 23 11 44t30.5 37.5t47 26t60.5 9.5q20 0 37 -3.5t24 -8.5v363l-267 -42v-388
q0 -41 -13.5 -72.5t-36.5 -52.5t-53 -31.5t-63 -10.5z" />
    <glyph glyph-name="u1F3B6_uniFE0F" unicode="&#xfe0f;" 
d="M104 -24q-40 0 -70 19t-30 57q0 23 11 44t30.5 37.5t47.5 26t61 9.5q20 0 37 -3.5t24 -8.5v517l378 60v-539q0 -41 -13.5 -72t-36.5 -52t-53.5 -31.5t-63.5 -10.5q-40 0 -69.5 19t-29.5 57q0 23 11 44t30.5 37.5t47 26t60.5 9.5q20 0 37 -3.5t24 -8.5v363l-267 -42v-388
q0 -41 -13.5 -72.5t-36.5 -52.5t-53 -31.5t-63 -10.5z" />
    <glyph glyph-name="uni2611_uniFE0F" unicode="&#xfe0f;" 
d="M250 104q-28 77 -62.5 145t-77.5 132l56 38q37 -58 67.5 -121t50.5 -126h4q32 110 84.5 219t118.5 206h-473v-564h532v532q-68 -95 -123.5 -208.5t-90.5 -242.5zM-25 -10v630l61 51h508q51 67 108 124l54 -50l-40.5 -40.5t-40.5 -43.5v-610l-52 -61h-598z" />
    <glyph glyph-name="uni2713_uniFE0F" unicode="&#xfe0f;" 
d="M145 -20q-30 83 -66.5 154.5t-84.5 140.5l56 38q42 -63 75.5 -130.5t56.5 -134.5h4q27 89 66 178t87 171.5t103 155.5t114 131l54 -50q-59 -55 -115 -124.5t-105 -151.5t-90 -174.5t-69 -193.5z" />
    <glyph glyph-name="uni2665_uniFE0F" unicode="&#xfe0f;" 
d="M302 -12h-4q-90 97 -146.5 171t-88 135.5t-43 114t-11.5 106.5q0 49 11 86t30.5 62t46 37.5t57.5 12.5q49 0 86 -26.5t58 -93.5h4q21 67 58.5 93.5t85.5 26.5q31 0 57.5 -12.5t46 -37.5t30.5 -62t11 -86q0 -54 -11.5 -106.5t-43 -114t-88 -135.5t-146.5 -171z" />
    <glyph glyph-name="uni2663_uniFE0F" unicode="&#xfe0f;" 
d="M105 0v40q33 5 61 17t50 35.5t37.5 61.5t24.5 94h-7q-21 -50 -56.5 -68.5t-72.5 -18.5q-60 0 -96.5 42t-36.5 110q0 35 11 61.5t30 44t45 26.5t55 9q17 0 34 -4.5t40 -15.5l4 4q-25 22 -40 43.5t-22.5 41t-10 36t-2.5 29.5q0 27 11.5 50t31.5 39.5t46.5 26t57.5 9.5
t57.5 -9.5t46.5 -26t31.5 -39.5t11.5 -50q0 -13 -2.5 -29.5t-10 -36t-22.5 -41t-40 -43.5l4 -4q23 11 40 15.5t34 4.5q29 0 55 -9t45 -26.5t30 -44t11 -61.5q0 -34 -9.5 -62t-27 -48t-42 -31t-54.5 -11q-19 0 -37.5 4.5t-35.5 14.5t-31.5 26.5t-24.5 41.5h-7q9 -56 24.5 -94
t37.5 -61.5t50 -35.5t61 -17v-40h-390z" />
    <glyph glyph-name="uni2666_uniFE0F" unicode="&#xfe0f;" 
d="M302 -12h-4l-293 367v4l293 365h4l293 -365v-4z" />
    <glyph glyph-name="uni2660_uniFE0F" unicode="&#xfe0f;" 
d="M105 0v40q33 5 61 17t50 35.5t37.5 61.5t24.5 94h-7q-23 -52 -57 -71t-76 -19q-56 0 -92.5 33t-36.5 103q0 45 13 85t46 87.5t88.5 108.5t141.5 149h4q85 -88 141 -149t89 -108.5t46 -87.5t13 -85q0 -70 -36.5 -103t-92.5 -33q-42 0 -76 19t-57 71h-7q9 -56 24.5 -94
t37.5 -61.5t50 -35.5t61 -17v-40h-390z" />
    <glyph glyph-name="uni263A_uniFE0F" unicode="&#xfe0f;" 
d="M300 39q-64 0 -117.5 21.5t-92 60.5t-60 92.5t-21.5 116.5t21.5 116.5t60 92.5t92 60.5t117.5 21.5t117.5 -21.5t92 -60.5t60 -92.5t21.5 -116.5t-21.5 -116.5t-60 -92.5t-92 -60.5t-117.5 -21.5zM300 84q53 0 97.5 18t76 50.5t49 77.5t17.5 100t-17.5 100t-49 77.5
t-76 50.5t-97.5 18t-97.5 -18t-76 -50.5t-49 -77.5t-17.5 -100t17.5 -100t49 -77.5t76 -50.5t97.5 -18zM221 340q-23 0 -35.5 17.5t-12.5 46.5t12.5 46.5t35.5 17.5t36 -17.5t13 -46.5t-13 -46.5t-36 -17.5zM379 340q-23 0 -36 17.5t-13 46.5t13 46.5t36 17.5t35.5 -17.5
t12.5 -46.5t-12.5 -46.5t-35.5 -17.5zM300 152q-66 0 -106.5 34.5t-48.5 95.5l34 13q14 -39 45 -57t76 -18t76 18t45 57l34 -13q-8 -61 -48.5 -95.5t-106.5 -34.5zM236 397q13 0 13 15t-13 15t-13 -15t13 -15zM393 397q13 0 13 15t-13 15q-12 0 -12 -15t12 -15z" />
    <glyph glyph-name="uni263B_uniFE0F" unicode="&#xfe0f;" 
d="M300 59q-60 0 -110 20.5t-86 56.5t-55.5 85.5t-19.5 108.5t19.5 108.5t55.5 85.5t86 56.5t110 20.5t110 -20.5t86 -56.5t55.5 -85.5t19.5 -108.5t-19.5 -108.5t-55.5 -85.5t-86 -56.5t-110 -20.5zM220 345q23 0 35 18t12 45q0 26 -12 44t-35 18t-35.5 -18t-12.5 -44
q0 -27 12.5 -45t35.5 -18zM380 345q23 0 35.5 18t12.5 45q0 26 -12.5 44t-35.5 18t-35 -18t-12 -44q0 -27 12 -45t35 -18zM300 149q68 0 108 33t51 96l-34 13q-15 -39 -47 -58t-78 -19t-78 19t-47 58l-34 -13q11 -63 51 -96t108 -33zM208 394q-7 0 -12 4.5t-5 13.5t5 14
t12 5q6 0 11 -5t5 -14t-5 -13.5t-11 -4.5zM368 394q-7 0 -12 4.5t-5 13.5t5 14t12 5t12 -5t5 -14t-5 -13.5t-12 -4.5z" />
    <glyph glyph-name="uni2764_uniFE0F" unicode="&#xfe0f;" 
d="M302 9h-4q-24 47 -60.5 78.5t-77.5 57.5t-82 51t-74.5 59t-54 82t-20.5 119q0 49 14.5 86.5t41 63t62.5 38.5t79 13q66 0 109.5 -29.5t62.5 -103.5h4q19 74 62.5 103.5t109.5 29.5q43 0 79 -13t62.5 -38.5t41 -63t14.5 -86.5q0 -71 -20.5 -119t-54 -82t-74.5 -59t-82 -51
t-77.5 -57.5t-60.5 -78.5z" />
    <glyph glyph-name="uni2615_uniFE0F" unicode="&#xfe0f;" 
d="M248 39q-64 0 -115.5 23t-88 71t-56.5 121.5t-20 173.5q0 94 74 143.5t206 49.5q121 0 190 -39.5t83 -114.5q58 -11 92.5 -44.5t34.5 -102.5q0 -38 -15 -69t-40.5 -53.5t-59.5 -34.5t-72 -12q-35 -58 -91 -85t-122 -27zM248 80q61 0 110.5 24.5t76.5 81.5q42 0 73 11
t51.5 29t30.5 42.5t10 51.5q0 46 -29 78t-88 32q0 72 -60.5 112t-174.5 40q-113 0 -173.5 -43.5t-60.5 -118.5q0 -90 17 -154t48 -105.5t74 -61t95 -19.5zM248 326q-93 0 -142.5 22t-73.5 62q15 47 71.5 74.5t144.5 27.5t145 -28t72 -74q-12 -20 -30 -35.5t-44 -26.5
t-61 -16.5t-82 -5.5zM458 250q10 28 14.5 56t6.5 56q29 0 43 -10t14 -38q0 -32 -23 -48t-55 -16zM310 419q-43 29 -73 39.5t-58 10.5q-25 0 -38 -8t-13 -19q0 -8 6.5 -13.5t24.5 -9.5q-18 -5 -24.5 -10t-6.5 -13q0 -11 13 -19.5t38 -8.5q28 0 58 11t73 40zM314 419
q23 -14 40 -18.5t26 -4.5q11 0 18.5 6t7.5 17t-7.5 16.5t-18.5 5.5q-9 0 -26 -4t-40 -18z" />
    <glyph glyph-name="u1F4A9_uniFE0F" unicode="&#xfe0f;" 
d="M300 14q-80 0 -137 6t-94.5 22.5t-55 44.5t-17.5 73q0 95 91 118q-18 14 -27 35.5t-9 54.5q0 54 30.5 83.5t78.5 38.5q-9 9 -15 20t-6 32q0 25 9.5 39.5t24.5 22.5t34.5 12.5t39.5 9.5t39 12.5t33 23.5q142 -39 142 -118q0 -20 -5 -31.5t-16 -22.5q48 -9 78.5 -38.5
t30.5 -83.5q0 -33 -9 -54.5t-27 -35.5q91 -23 91 -118q0 -45 -17.5 -73t-55 -44.5t-95 -22.5t-136.5 -6zM300 109q63 0 100 28t43 87h-286q6 -59 43 -87t100 -28zM148 312l28 -2q2 35 10.5 50.5t26.5 15.5t27 -15.5t11 -50.5l28 2q-1 65 -17.5 92.5t-48.5 27.5t-48 -27.5
t-17 -92.5zM321 312l28 -2q2 35 11 50.5t27 15.5t26.5 -15.5t10.5 -50.5l28 2q-1 65 -17 92.5t-48 27.5t-48.5 -27.5t-17.5 -92.5z" />
    <glyph glyph-name="u1F916_uniFE0F" unicode="&#xfe0f;" 
d="M300 39q-90 0 -159.5 42.5t-103.5 126.5q-63 12 -63 140q0 38 10.5 56.5t35.5 23.5q22 98 96 145.5t184 47.5t184 -47.5t96 -145.5q25 -5 35.5 -23.5t10.5 -56.5q0 -128 -63 -140q-34 -84 -103.5 -126.5t-159.5 -42.5zM300 84q51 0 95 16t76 48.5t50.5 82.5t18.5 119
q0 61 -16.5 104t-48 70t-76 39.5t-99.5 12.5q-56 0 -100 -12.5t-75.5 -39.5t-48 -70t-16.5 -104q0 -69 18.5 -119t50.5 -82.5t76 -48.5t95 -16zM300 258q-98 0 -145.5 21t-47.5 75q0 83 51.5 121.5t141.5 38.5t141.5 -38.5t51.5 -121.5q0 -54 -47.5 -75t-145.5 -21zM147 332
l32 -2q2 33 10 47.5t26 14.5t26 -14.5t10 -47.5l32 2q-2 65 -19 92.5t-49 27.5t-49 -27.5t-19 -92.5zM317 332l32 -2q2 33 10 47.5t26 14.5t26 -14.5t10 -47.5l32 2q-2 65 -19 92.5t-49 27.5t-49 -27.5t-19 -92.5zM300 149q-15 0 -26 5.5t-11 18.5q0 9 7 12t30 3t30 -3
t7 -12q0 -13 -11 -18.5t-26 -5.5z" />
    <glyph glyph-name="u1F512_uniFE0F" unicode="&#xfe0f;" 
d="M85 -70l-40 36v518l40 36h46v153q0 88 44 135.5t125 47.5t125 -47.5t44 -135.5v-153h46l40 -36v-518l-40 -36h-430zM246 59l44 -20h20l44 20l-26 169q29 11 42.5 31.5t13.5 47.5q0 35 -24.5 59t-59.5 24t-59.5 -24t-24.5 -59q0 -27 13.5 -47.5t42.5 -31.5zM199 520h202
v145q0 60 -25 93t-76 33t-76 -33t-25 -93v-145z" />
    <glyph glyph-name=".notdef" 
d="M62 0v660h476v-660h-476zM170 58h257l-73 132l-52 103h-4l-54 -103zM127 110l128 230l-128 232v-462zM298 387h4l49 94l66 119h-235l66 -119zM345 340l127 -230v462z" />
    <glyph glyph-name=".null" horiz-adv-x="0" 
 />
    <glyph glyph-name="nonmarkingreturn" 
 />
    <glyph glyph-name="space" unicode=" " 
 />
    <glyph glyph-name="exclam" unicode="!" 
d="M272 232l-10 344l-2 94h80l-2 -94l-10 -344h-56zM300 -12q-30 0 -51.5 21t-21.5 57q0 35 21.5 55.5t51.5 20.5t51.5 -20.5t21.5 -55.5q0 -36 -21.5 -57t-51.5 -21z" />
    <glyph glyph-name="quotedbl" unicode="&#x22;" 
d="M158 352l-25 225l-2 110h110l-2 -110l-25 -225h-56zM387 352l-25 225l-2 110h110l-2 -110l-25 -225h-56z" />
    <glyph glyph-name="numbersign" unicode="#" 
d="M328 0l25 204h-132l-25 -204h-54l25 204h-80v57h87l18 148h-85v58h92l23 183h53l-22 -183h132l23 183h53l-22 -183h80v-58h-87l-18 -148h85v-57h-92l-25 -204h-54zM360 261l18 148h-132l-18 -148h132z" />
    <glyph glyph-name="dollar" unicode="$" 
d="M85 113l39 57q38 -27 83.5 -47.5t102.5 -20.5q60 0 90.5 24.5t30.5 62.5q0 31 -23.5 51.5t-58.5 36.5t-76.5 31t-76.5 35.5t-58.5 49t-23.5 72.5q0 63 44.5 103t117.5 48v132h60v-131q55 -5 92 -26t67 -50l-44 -48q-17 13 -32.5 23.5t-32.5 18t-37 11.5t-45 4
q-51 0 -80.5 -22.5t-29.5 -60.5q0 -28 23.5 -46t59 -33t76.5 -30t76.5 -36t59 -51t23.5 -76q0 -32 -12.5 -59.5t-36 -48t-56 -34t-71.5 -17.5v-146h-60v145q-56 5 -106 27t-85 51z" />
    <glyph glyph-name="percent" unicode="%" 
d="M167 321q-61 0 -100 44t-39 122t39 120.5t100 42.5t100 -42.5t39 -120.5t-39 -122t-100 -44zM167 371q32 0 55 28.5t23 87.5q0 60 -23 87t-55 27t-55 -27t-23 -87q0 -59 23 -87.5t55 -28.5zM77 32l-49 45l183 188l33 -30zM389 391l-33 30l167 203l49 -45zM434 -12
q-61 0 -100 44t-39 122t39 120.5t100 42.5t100 -42.5t39 -120.5t-39 -122t-100 -44zM434 38q32 0 55 28.5t23 87.5q0 60 -23 87t-55 27t-55 -27t-23 -87q0 -59 23 -87.5t55 -28.5z" />
    <glyph glyph-name="ampersand" unicode="&#x26;" 
d="M238 -12q-44 0 -80 13.5t-61.5 37.5t-40 57.5t-14.5 73.5q0 32 10 59t27.5 49.5t39.5 42t46 37.5q-21 41 -32.5 80.5t-11.5 74.5q0 33 10.5 61t29 49t45 33t59.5 12q61 0 94 -36t33 -94q0 -32 -12.5 -58t-32.5 -49.5t-45 -44t-51 -40.5q32 -51 73.5 -98t86.5 -86
q28 40 48.5 87.5t34.5 104.5h76q-18 -65 -44 -124t-62 -111q60 -46 113 -63l-23 -68q-65 20 -137 75q-36 -35 -79.5 -55t-99.5 -20zM192 514q0 -27 8 -56t22 -59q21 15 39.5 30.5t33 32t22.5 35t8 40.5q0 29 -13.5 50.5t-46.5 21.5q-35 0 -54 -27t-19 -68zM248 54
q31 0 60 14t55 38q-48 42 -90.5 92t-76.5 104q-32 -28 -53 -58.5t-21 -68.5q0 -27 10 -49.5t27 -38.5t40 -24.5t49 -8.5z" />
    <glyph glyph-name="quotesingle" unicode="'" 
d="M272 352l-25 225l-2 110h110l-2 -110l-25 -225h-56z" />
    <glyph glyph-name="parenleft" unicode="(" 
d="M433 -176q-104 81 -164.5 195t-60.5 259t60.5 259t164.5 195l45 -42q-101 -85 -148.5 -185t-47.5 -227t47.5 -227t148.5 -185z" />
    <glyph glyph-name="parenright" unicode=")" 
d="M167 -176l-45 42q101 85 148.5 185t47.5 227t-47.5 227t-148.5 185l45 42q104 -81 164.5 -195t60.5 -259t-60.5 -259t-164.5 -195z" />
    <glyph glyph-name="asterisk" unicode="*" 
d="M180 111l-42 30l108 165l-162 70l16 46l167 -55l9 189h48l9 -189l167 55l16 -46l-162 -70l108 -165l-42 -30l-120 159z" />
    <glyph glyph-name="plus" unicode="+" 
d="M267 104v195h-182v62h182v195h66v-195h182v-62h-182v-195h-66z" />
    <glyph glyph-name="comma" unicode="," 
d="M220 -213l-23 52q62 28 93 67.5t33 99.5q-5 -2 -9.5 -2h-9.5q-32 0 -55 18.5t-23 56.5q0 37 24 56.5t56 19.5q45 0 67.5 -34.5t22.5 -93.5q0 -88 -46.5 -148.5t-129.5 -91.5z" />
    <glyph glyph-name="hyphen" unicode="-" 
d="M85 299v62h430v-62h-430z" />
    <glyph glyph-name="period" unicode="." 
d="M300 -12q-34 0 -57.5 23t-23.5 61t23.5 61.5t57.5 23.5t57.5 -23.5t23.5 -61.5t-23.5 -61t-57.5 -23z" />
    <glyph glyph-name="slash" unicode="/" 
d="M99 -160l328 870h74l-328 -870h-74z" />
    <glyph glyph-name="zero" unicode="0" 
d="M300 -12q-107 0 -168 86.5t-61 246.5q0 161 61 245t168 84t168 -84t61 -245q0 -160 -61 -246.5t-168 -86.5zM300 54q67 0 109.5 65t42.5 202q0 69 -11 118.5t-31.5 82t-48.5 47.5t-61 15t-61 -15t-48.5 -47.5t-31.5 -82t-11 -118.5q0 -137 42.5 -202t109.5 -65zM300 261
q-25 0 -43.5 17.5t-18.5 49.5q0 31 18.5 48.5t43.5 17.5t43.5 -17.5t18.5 -48.5q0 -32 -18.5 -49.5t-43.5 -17.5z" />
    <glyph glyph-name="one" unicode="1" 
d="M97 0v68h184v470h-143v53q57 8 95 19t69 28h61v-570h167v-68h-433z" />
    <glyph glyph-name="two" unicode="2" 
d="M73 0v49q81 72 143.5 130t105 106.5t64.5 90.5t22 82q0 55 -34 90t-105 35q-45 0 -83.5 -22.5t-69.5 -54.5l-47 47q43 44 92.5 70.5t117.5 26.5q48 0 86.5 -13.5t65.5 -38t41.5 -59.5t14.5 -77q0 -45 -21.5 -90.5t-60.5 -94t-93 -101t-119 -111.5l60 4t59 2h210v-71h-449
z" />
    <glyph glyph-name="three" unicode="3" 
d="M287 -12q-83 0 -139 27.5t-91 62.5l42 54q32 -30 76.5 -53t106.5 -23q33 0 61 8.5t48.5 23.5t32 36.5t11.5 48.5q0 28 -12.5 51.5t-40.5 40.5t-72 26t-107 9v63q57 0 96.5 9t64.5 25t36.5 38t11.5 47q0 47 -35.5 74t-94.5 27q-45 0 -85 -18t-72 -47l-44 52q40 35 91 57.5
t113 22.5q45 0 83.5 -11t67 -31.5t44.5 -50.5t16 -69q0 -58 -38 -95t-98 -57v-4q32 -7 60.5 -20.5t50.5 -34t34.5 -47.5t12.5 -60q0 -42 -18 -76t-49.5 -57.5t-73.5 -36t-90 -12.5z" />
    <glyph glyph-name="four" unicode="4" 
d="M368 0v176h-329v55l319 407h88v-396h99v-66h-99v-176h-78zM130 242h238v198q1 26 2 56.5t3 56.5h-5q-15 -23 -32 -46.5t-33 -46.5z" />
    <glyph glyph-name="five" unicode="5" 
d="M286 -12q-43 0 -77.5 7.5t-62 19.5t-50 27.5t-40.5 32.5l41 54q16 -14 34 -27.5t39.5 -23.5t48 -16t58.5 -6q34 0 63.5 10.5t51.5 29.5t34.5 46t12.5 60q0 66 -42.5 103t-114.5 37q-40 0 -68 -10t-62 -29l-44 28l21 307h361v-71h-288l-17 -189q28 12 54.5 19t63.5 7
q46 0 86 -12t69.5 -36.5t46.5 -62t17 -89.5t-19.5 -92t-52.5 -67.5t-75.5 -42t-88.5 -14.5z" />
    <glyph glyph-name="six" unicode="6" 
d="M321 -12q-52 0 -96.5 19t-77.5 57.5t-51.5 96t-18.5 134.5q0 96 22 163.5t59 110t85.5 62t100.5 19.5q59 0 102.5 -19.5t75.5 -48.5l-46 -51q-25 23 -58 36.5t-69 13.5q-38 0 -73 -14t-61.5 -46t-43 -84.5t-17.5 -129.5q39 38 86 60.5t95 22.5q44 0 80.5 -12.5t63 -37
t41 -61.5t14.5 -86q0 -46 -17.5 -83.5t-46.5 -64.5t-67.5 -42t-81.5 -15zM321 53q28 0 53 10t43 28.5t28.5 44t10.5 57.5q0 66 -35 100.5t-101 34.5q-38 0 -81.5 -20t-81.5 -66q9 -93 51.5 -141t112.5 -48z" />
    <glyph glyph-name="seven" unicode="7" 
d="M226 0q4 91 17 165.5t38 141.5t63.5 130t93.5 130h-368v71h462v-51q-63 -72 -104 -138t-66 -134.5t-36 -144.5t-14 -170h-86z" />
    <glyph glyph-name="eight" unicode="8" 
d="M302 -12q-54 0 -97.5 13t-73.5 36.5t-46.5 55.5t-16.5 70q0 33 12 59t31 47t43.5 36.5t50.5 27.5v4q-40 25 -68.5 61.5t-28.5 87.5q0 37 14.5 67t41 51.5t62.5 33.5t79 12q47 0 83.5 -12.5t62 -35t39 -54t13.5 -68.5q0 -45 -28.5 -84.5t-68.5 -67.5v-4q26 -13 49 -28
t40 -34t26.5 -44.5t9.5 -59.5q0 -36 -15.5 -67t-44.5 -54t-71.5 -36t-97.5 -13zM352 348q80 58 80 128q0 48 -33 80.5t-96 32.5q-54 0 -87 -28t-33 -75q0 -29 13 -49.5t36 -36.5t53.5 -28.5t66.5 -23.5zM304 49q72 0 110 31t38 81q0 33 -15.5 55.5t-42.5 38.5t-63.5 28.5
t-78.5 26.5q-47 -26 -78 -58.5t-31 -80.5q0 -54 43.5 -88t117.5 -34z" />
    <glyph glyph-name="nine" unicode="9" 
d="M281 310q38 0 81 20t82 65q-10 94 -51.5 142t-112.5 48q-29 0 -53.5 -10t-42.5 -28.5t-28.5 -44.5t-10.5 -57q0 -66 34.5 -100.5t101.5 -34.5zM257 -12q-59 0 -102.5 19t-75.5 48l46 52q24 -23 57 -37t70 -14q38 0 72.5 14t61 46.5t42.5 84.5t18 129q-39 -38 -85.5 -60
t-95.5 -22q-44 0 -80.5 12.5t-62.5 37t-40.5 61.5t-14.5 86q0 46 17 83.5t46.5 64.5t68 42t80.5 15q52 0 97 -19t78 -57.5t51.5 -96t18.5 -134.5q0 -96 -22.5 -163.5t-59.5 -110t-85 -62t-100 -19.5z" />
    <glyph glyph-name="colon" unicode=":" 
d="M300 346q-34 0 -57.5 23t-23.5 61t23.5 61.5t57.5 23.5t57.5 -23.5t23.5 -61.5t-23.5 -61t-57.5 -23zM300 -12q-34 0 -57.5 23t-23.5 61t23.5 61.5t57.5 23.5t57.5 -23.5t23.5 -61.5t-23.5 -61t-57.5 -23z" />
    <glyph glyph-name="semicolon" unicode=";" 
d="M300 346q-34 0 -57.5 23t-23.5 61t23.5 61.5t57.5 23.5t57.5 -23.5t23.5 -61.5t-23.5 -61t-57.5 -23zM220 -213l-23 52q62 28 93 67.5t33 99.5q-5 -2 -9.5 -2h-9.5q-32 0 -55 18.5t-23 56.5q0 37 24 56.5t56 19.5q45 0 67.5 -34.5t22.5 -93.5q0 -88 -46.5 -148.5
t-129.5 -91.5z" />
    <glyph glyph-name="less" unicode="&#x3c;" 
d="M493 48l-373 253v62l373 253v-79l-301 -203v-4l301 -203v-79z" />
    <glyph glyph-name="equal" unicode="=" 
d="M85 406v62h430v-62h-430zM85 193v62h430v-62h-430z" />
    <glyph glyph-name="greater" unicode="&#x3e;" 
d="M107 48v79l301 203v4l-301 203v79l373 -253v-62z" />
    <glyph glyph-name="question" unicode="?" 
d="M242 232q-6 36 3 64t26.5 51t39.5 43t41.5 39.5t32.5 40.5t13 47q0 42 -27.5 69.5t-82.5 27.5q-38 0 -70.5 -15.5t-59.5 -42.5l-49 45q34 35 80 58t104 23q42 0 76 -11t58.5 -31.5t38 -49t13.5 -64.5q0 -34 -13.5 -60t-33 -48t-42 -41.5t-41 -41t-29 -46.5t-5.5 -57h-73z
M286 -12q-30 0 -51.5 21t-21.5 57q0 35 21.5 55.5t51.5 20.5t51.5 -20.5t21.5 -55.5q0 -36 -21.5 -57t-51.5 -21z" />
    <glyph glyph-name="at" unicode="@" 
d="M341 -144q-59 0 -112 25.5t-93 75t-63.5 123.5t-23.5 170t22.5 168t62.5 120t93.5 72.5t115.5 24.5q52 0 90 -18t63 -50t37.5 -75.5t12.5 -94.5v-297h-50l-7 58h-4q-22 -28 -57.5 -49t-74.5 -21q-27 0 -50.5 9t-41 26t-27.5 41.5t-10 54.5q0 77 68 116t196 55v14
q0 36 -8.5 68t-26.5 56t-46.5 38t-67.5 14q-45 0 -86 -21t-72.5 -62.5t-50 -104t-18.5 -145.5q0 -80 18 -142.5t49 -105.5t73 -65.5t91 -22.5q45 0 78.5 11.5t62.5 33.5l28 -45q-39 -27 -80 -41t-91 -14zM370 146q56 0 112 64v126q-104 -14 -148 -41.5t-44 -73.5
q0 -35 21.5 -55t58.5 -20z" />
    <glyph glyph-name="A" unicode="A" 
d="M232 367l-31 -100h196l-31 100q-17 55 -33.5 109.5t-31.5 111.5h-4q-16 -57 -32 -111.5t-33 -109.5zM32 0l221 656h94l221 -656h-88l-62 200h-238l-63 -200h-85z" />
    <glyph glyph-name="B" unicode="B" 
d="M99 0v656h186q50 0 91.5 -9t71 -28t46 -49.5t16.5 -73.5q0 -49 -28 -88.5t-87 -54.5v-4q72 -11 112 -50t40 -107q0 -48 -18 -84t-50.5 -60t-78 -36t-100.5 -12h-201zM182 380h89q84 0 120.5 27t36.5 82q0 54 -38.5 75.5t-114.5 21.5h-93v-206zM182 70h106q85 0 131 29.5
t46 96.5q0 61 -45 87.5t-132 26.5h-106v-240z" />
    <glyph glyph-name="C" unicode="C" 
d="M351 -12q-61 0 -113 23t-90.5 66.5t-60.5 107t-22 143.5q0 79 22 142t61 107t93 67.5t118 23.5q59 0 104.5 -24t74.5 -56l-47 -53q-26 27 -58 43.5t-74 16.5q-47 0 -85.5 -18.5t-65.5 -53t-42 -83.5t-15 -110q0 -62 15 -111.5t42 -84.5t65.5 -54t85.5 -19q45 0 80.5 19
t67.5 54l47 -51q-39 -45 -88 -70t-115 -25z" />
    <glyph glyph-name="D" unicode="D" 
d="M87 0v656h162q149 0 226.5 -84t77.5 -241t-77.5 -244t-222.5 -87h-166zM170 68h73q113 0 168.5 69t55.5 194t-55.5 191t-168.5 66h-73v-520z" />
    <glyph glyph-name="E" unicode="E" 
d="M114 0v656h406v-70h-322v-206h272v-71h-272v-238h332v-71h-416z" />
    <glyph glyph-name="F" unicode="F" 
d="M133 0v656h403v-70h-319v-222h270v-70h-270v-294h-84z" />
    <glyph glyph-name="G" unicode="G" 
d="M337 -12q-62 0 -114 23t-90 66.5t-59 107t-21 143.5q0 79 21.5 142.5t60 107t92 67t117.5 23.5q33 0 60 -7t49.5 -18.5t40 -25.5t31.5 -29l-47 -53q-24 26 -55 43t-79 17q-46 0 -83.5 -18.5t-64.5 -53t-41.5 -83.5t-14.5 -110q0 -62 13.5 -111.5t39 -84.5t63.5 -54
t86 -19q35 0 65 10.5t49 28.5v171h-131v69h208v-276q-31 -32 -81.5 -54t-114.5 -22z" />
    <glyph glyph-name="H" unicode="H" 
d="M79 0v656h84v-275h274v275h84v-656h-84v309h-274v-309h-84z" />
    <glyph glyph-name="I" unicode="I" 
d="M95 0v71h163v515h-163v70h410v-70h-163v-515h163v-71h-410z" />
    <glyph glyph-name="J" unicode="J" 
d="M276 -12q-55 0 -108 26t-87 83l52 51q28 -45 65.5 -66t75.5 -21q71 0 103.5 37.5t32.5 118.5v370h-275v70h358v-447q0 -46 -11 -86.5t-36.5 -70.5t-67 -47.5t-102.5 -17.5z" />
    <glyph glyph-name="K" unicode="K" 
d="M98 0v656h84v-329h3l276 329h95l-208 -249l232 -407h-94l-191 344l-113 -135v-209h-84z" />
    <glyph glyph-name="L" unicode="L" 
d="M134 0v656h82v-585h325v-71h-407z" />
    <glyph glyph-name="M" unicode="M" 
d="M72 0v656h102l92 -280l32 -106h4l31 106l93 280h102v-656h-80v328q0 24 1.5 55.5t4 63.5t4.5 62t4 51h-3l-37 -128l-94 -258h-60l-92 258l-38 128h-2q2 -21 4.5 -51t4.5 -62t3.5 -63.5t1.5 -55.5v-328h-78z" />
    <glyph glyph-name="N" unicode="N" 
d="M82 0v656h92l210 -412l63 -136h2q-2 49 -6.5 102.5t-4.5 105.5v340h80v-656h-92l-210 412l-63 136h-2q2 -51 6.5 -102.5t4.5 -102.5v-343h-80z" />
    <glyph glyph-name="O" unicode="O" 
d="M300 -12q-56 0 -102 23.5t-79.5 67.5t-52 107.5t-18.5 144.5q0 79 18.5 142t52 106t79.5 66t102 23q55 0 101.5 -23t80 -66t52 -106t18.5 -142q0 -81 -18.5 -144.5t-52 -107.5t-80 -67.5t-101.5 -23.5zM300 61q37 0 68 18.5t52.5 53.5t33.5 85t12 113q0 62 -12 111
t-33.5 83t-52.5 52t-68 18q-38 0 -68.5 -18t-52 -52t-33.5 -83t-12 -111q0 -63 12 -113t33.5 -85t52 -53.5t68.5 -18.5z" />
    <glyph glyph-name="P" unicode="P" 
d="M102 0v656h198q54 0 99 -10t77 -32.5t49.5 -59.5t17.5 -91q0 -52 -17.5 -90t-50 -63t-77 -37.5t-98.5 -12.5h-115v-260h-83zM185 328h105q87 0 128 32.5t41 102.5q0 71 -42 98.5t-127 27.5h-105v-261z" />
    <glyph glyph-name="Q" unicode="Q" 
d="M300 57q76 0 120.5 72t44.5 202q0 124 -44.5 195t-120.5 71t-120.5 -71t-44.5 -195q0 -130 44.5 -202t120.5 -72zM481 -163q-87 0 -142 44t-79 110q-48 8 -86.5 35t-66 70.5t-42.5 102.5t-15 132q0 79 18 142t51 106.5t79 66.5t102 23t102 -23t79 -66.5t51 -106.5
t18 -142q0 -71 -14.5 -129.5t-41 -101.5t-63.5 -70.5t-83 -36.5q17 -43 54 -64t88 -21q15 0 27.5 3t21.5 7l16 -67q-17 -6 -35 -10t-39 -4z" />
    <glyph glyph-name="R" unicode="R" 
d="M100 0v656h204q50 0 92 -9.5t72.5 -31.5t47.5 -57t17 -86q0 -77 -40 -123t-107 -63l167 -286h-95l-158 277h-117v-277h-83zM183 345h109q77 0 117.5 31.5t40.5 95.5q0 65 -40.5 91t-117.5 26h-109v-244z" />
    <glyph glyph-name="S" unicode="S" 
d="M305 -12q-72 0 -132.5 26t-105.5 71l50 58q37 -37 86 -59.5t106 -22.5q68 0 105.5 29t37.5 75q0 26 -9 44t-25 31t-37.5 23t-46.5 21l-94 41q-25 10 -50 24t-45.5 34t-33.5 47.5t-13 63.5q0 37 16 69t44.5 55.5t68 36.5t86.5 13q62 0 114 -22.5t88 -58.5l-44 -54
q-32 29 -71 45.5t-90 16.5q-57 0 -92 -25.5t-35 -70.5q0 -24 10.5 -40.5t27 -29t37.5 -21.5l42 -18l92 -40q30 -12 56.5 -27.5t46 -36t31 -48t11.5 -63.5q0 -39 -16 -73t-46 -59.5t-73 -40t-97 -14.5z" />
    <glyph glyph-name="T" unicode="T" 
d="M258 0v586h-216v70h516v-70h-216v-586h-84z" />
    <glyph glyph-name="U" unicode="U" 
d="M301 -12q-48 0 -89 14t-70.5 45.5t-46 80.5t-16.5 120v408h84v-410q0 -51 10.5 -86.5t29 -57t43.5 -31.5t55 -10t55 10t44 31.5t29.5 57t10.5 86.5v410h81v-408q0 -71 -16.5 -120t-45.5 -80.5t-69.5 -45.5t-88.5 -14z" />
    <glyph glyph-name="V" unicode="V" 
d="M252 0l-209 656h88l106 -354q17 -59 31 -109t32 -108h4q9 29 17 55.5t15.5 52.5t15 53t15.5 56l105 354h85l-208 -656h-97z" />
    <glyph glyph-name="W" unicode="W" 
d="M110 0l-100 657h94l48 -412q2 -21 4 -38t3.5 -34.5t3 -36.5t2.5 -43h3q4 24 8 43t7.5 36.5t7.5 34.5t9 37l64 244h80l62 -244q5 -20 9 -37t7.5 -34.5t7 -36.5t8.5 -43h4q1 24 2.5 43t3 36.5t3 34.5t3.5 37l46 413h90l-96 -657h-104l-64 264q-8 30 -13.5 59t-10.5 59h-3
q-5 -30 -10 -59t-13 -59l-64 -264h-102z" />
    <glyph glyph-name="X" unicode="X" 
d="M54 0l196 339l-183 317h92l92 -168q13 -23 25 -44.5t28 -50.5h4q14 29 24.5 50.5t22.5 44.5l90 168h88l-183 -321l196 -335h-92l-99 177q-14 24 -27.5 49.5t-30.5 55.5h-4q-14 -30 -27 -55.5t-26 -49.5l-98 -177h-88z" />
    <glyph glyph-name="Y" unicode="Y" 
d="M258 0v234l-220 422h88l99 -195q19 -38 37 -75.5t38 -77.5h4l39 78l38 76l95 194h86l-220 -422v-234h-84z" />
    <glyph glyph-name="Z" unicode="Z" 
d="M65 0v50l366 537h-334v70h437v-50l-367 -536h372v-71h-474z" />
    <glyph glyph-name="bracketleft" unicode="[" 
d="M225 -152v860h277v-47h-211v-766h211v-47h-277z" />
    <glyph glyph-name="backslash" unicode="\" 
d="M427 -160l-328 870h74l328 -870h-74z" />
    <glyph glyph-name="bracketright" unicode="]" 
d="M98 -152v47h211v766h-211v47h277v-860h-277z" />
    <glyph glyph-name="asciicircum" unicode="^" 
d="M111 284l153 386h72l153 -386h-72l-66 176l-49 133h-4l-49 -133l-66 -176h-72z" />
    <glyph glyph-name="underscore" unicode="_" 
d="M60 -140v71h480v-71h-480z" />
    <glyph glyph-name="grave" unicode="`" 
d="M321 568l-157 153l58 56l142 -168z" />
    <glyph glyph-name="a" unicode="a" 
d="M246 -12q-34 0 -64 9.5t-52.5 27t-35.5 43t-13 58.5q0 41 19.5 71.5t62 52.5t109.5 36t161 22q-1 25 -8 47t-22 38.5t-39.5 26.5t-59.5 10q-48 0 -92 -18.5t-78 -39.5l-32 56q18 12 42.5 24.5t52 22.5t58.5 16.5t63 6.5q100 0 148.5 -54.5t48.5 -145.5v-298h-67l-7 66h-3
q-41 -32 -90.5 -55t-101.5 -23zM268 54q42 0 82.5 18.5t82.5 53.5v128q-78 -6 -130.5 -17t-84 -26.5t-44.5 -35t-13 -43.5q0 -21 9 -35.5t23.5 -24t34 -14t40.5 -4.5z" />
    <glyph glyph-name="b" unicode="b" 
d="M320 -12q-35 0 -75.5 17.5t-75.5 48.5h-3l-7 -54h-66v712h82v-194l-3 -94h3q33 34 76.5 54t86.5 20q49 0 87 -17.5t63.5 -50t38.5 -78t13 -101.5q0 -62 -18 -111t-48.5 -83t-70.5 -51.5t-83 -17.5zM307 57q32 0 59 13.5t47 38t31 60.5t11 81q0 40 -8 73t-24.5 56.5
t-42.5 36.5t-62 13q-32 0 -68.5 -17.5t-74.5 -55.5v-242q35 -31 70.5 -44t61.5 -13z" />
    <glyph glyph-name="c" unicode="c" 
d="M346 -12q-57 0 -105.5 17t-84.5 49.5t-56 80t-20 107.5q0 61 21.5 108.5t58.5 80.5t86.5 50t104.5 17q60 0 103.5 -21t73.5 -50l-41 -53q-30 26 -62.5 41t-70.5 15q-42 0 -77 -13.5t-59.5 -38.5t-38.5 -59.5t-14 -76.5t13.5 -76t38 -58.5t59 -38t76.5 -13.5
q45 0 82.5 17.5t67.5 43.5l37 -53q-41 -36 -90 -56t-103 -20z" />
    <glyph glyph-name="d" unicode="d" 
d="M271 -12q-48 0 -86.5 17t-66.5 49.5t-43 79.5t-15 108q0 59 18.5 106.5t49 80.5t70.5 51t83 18q44 0 78.5 -16.5t66.5 -46.5h3l-4 90v187h82v-712h-68l-7 64h-3q-30 -31 -71.5 -53.5t-86.5 -22.5zM288 57q72 0 137 73v242q-33 31 -64.5 44t-63.5 13t-59.5 -13.5t-48 -38
t-32.5 -58.5t-12 -76q0 -88 37.5 -137t105.5 -49z" />
    <glyph glyph-name="e" unicode="e" 
d="M330 -12q-55 0 -102.5 17t-83 50t-56 80.5t-20.5 108.5q0 59 20.5 106t55 80t79 50.5t93.5 17.5q52 0 93.5 -16.5t70 -46.5t43.5 -72t15 -93q0 -14 -1 -27t-3 -23h-383q8 -83 60.5 -124.5t128.5 -41.5q44 0 79.5 12.5t68.5 33.5l30 -54q-36 -24 -82.5 -41t-105.5 -17z
M318 433q-30 0 -57.5 -10t-49.5 -28.5t-37 -46.5t-21 -64h310q-5 75 -43.5 112t-101.5 37z" />
    <glyph glyph-name="f" unicode="f" 
d="M242 0v419h-139v62l139 5v41q0 89 47.5 143t148.5 54q72 0 140 -28l-19 -62q-30 14 -55.5 18.5t-57.5 4.5q-66 0 -94.5 -33.5t-28.5 -93.5v-44h204v-67h-204v-419h-81z" />
    <glyph glyph-name="g" unicode="g" 
d="M296 -224q-107 0 -165.5 35t-58.5 100q0 29 20.5 57t59.5 51v4q-20 11 -35 30t-15 50q0 23 15 47.5t43 43.5v4q-25 19 -42.5 50.5t-17.5 75.5q0 40 15.5 72t41.5 54.5t60.5 35t73.5 12.5q40 0 72 -12h201v-67h-126q17 -17 29 -43t12 -55q0 -39 -14.5 -70t-40 -52.5
t-60 -33t-73.5 -11.5q-19 0 -40.5 4.5t-41.5 13.5q-38 -24 -38 -56q0 -29 26.5 -42.5t74.5 -13.5h109q94 0 139.5 -26t45.5 -88q0 -34 -19 -65t-54 -54t-85 -37t-112 -14zM291 209q47 0 79.5 31t32.5 84q0 25 -9 46t-24 36t-35.5 23.5t-43.5 8.5t-43.5 -8.5t-35.5 -23.5
t-24 -36t-9 -46q0 -53 33 -84t79 -31zM302 -164q42 0 76 8t58 21.5t36.5 31t12.5 36.5q0 35 -27.5 47t-83.5 12h-95q-21 0 -39.5 1.5t-34.5 6.5q-35 -19 -48.5 -39.5t-13.5 -41.5q0 -38 40.5 -60.5t118.5 -22.5z" />
    <glyph glyph-name="h" unicode="h" 
d="M93 0v712h82v-194l-5 -115h3q38 41 81.5 68t100.5 27q87 0 127.5 -49.5t40.5 -146.5v-302h-82v291q0 69 -26 102.5t-86 33.5q-22 0 -40.5 -5.5t-36.5 -16.5t-37 -27.5t-40 -38.5v-339h-82z" />
    <glyph glyph-name="i" unicode="i" 
d="M316 0v419h-226v67h308v-486h-82zM348 588q-28 0 -47 17.5t-19 46.5t19 46.5t47 17.5t47 -17.5t19 -46.5t-19 -46.5t-47 -17.5z" />
    <glyph glyph-name="j" unicode="j" 
d="M194 -217q-38 0 -74 9.5t-65 23.5l27 61q26 -13 54.5 -20t56.5 -7q36 0 60 9t38 26t19.5 41.5t5.5 55.5v437h-226v67h308v-498q0 -45 -10 -82.5t-33.5 -65t-62.5 -42.5t-98 -15zM348 588q-28 0 -47 17.5t-19 46.5t19 46.5t47 17.5t47 -17.5t19 -46.5t-19 -46.5t-47 -17.5
z" />
    <glyph glyph-name="k" unicode="k" 
d="M106 0v712h82v-482h4l262 256h94l-194 -191l220 -295h-92l-179 245l-115 -113v-132h-82z" />
    <glyph glyph-name="l" unicode="l" 
d="M407 -12q-78 0 -119 44t-41 131v482h-173v67h255v-555q0 -54 26 -77.5t70 -23.5q43 0 91 22l21 -61q-34 -14 -62 -21.5t-68 -7.5z" />
    <glyph glyph-name="m" unicode="m" 
d="M58 0v486h66l7 -64h2q19 34 44 55t67 21q71 0 92 -84q21 39 46.5 61.5t67.5 22.5q51 0 79.5 -38.5t28.5 -111.5v-348h-82v342q0 85 -52 85q-26 0 -42 -18.5t-36 -56.5v-352h-76v342q0 42 -11.5 63.5t-38.5 21.5q-26 0 -44 -18.5t-36 -56.5v-352h-82z" />
    <glyph glyph-name="n" unicode="n" 
d="M93 0v486h68l7 -83h4q38 41 82 68t101 27q87 0 127.5 -49.5t40.5 -146.5v-302h-82v291q0 69 -26 102.5t-86 33.5q-22 0 -40.5 -5.5t-36.5 -16.5t-37 -27.5t-40 -38.5v-339h-82z" />
    <glyph glyph-name="o" unicode="o" 
d="M300 -12q-48 0 -91.5 17t-76.5 49.5t-52.5 80t-19.5 107.5q0 61 19.5 108.5t52.5 80.5t76.5 50t91.5 17t91.5 -17t76.5 -50t52.5 -80.5t19.5 -108.5q0 -60 -19.5 -107.5t-52.5 -80t-76.5 -49.5t-91.5 -17zM300 56q35 0 63.5 13.5t49 38t31.5 58.5t11 76t-11 76.5
t-31.5 59.5t-49 38.5t-63.5 13.5t-63.5 -13.5t-49 -38.5t-31.5 -59.5t-11 -76.5t11 -76t31.5 -58.5t49 -38t63.5 -13.5z" />
    <glyph glyph-name="p" unicode="p" 
d="M93 -205v691h68l7 -62h3q34 32 78.5 53t89.5 21q49 0 86.5 -17.5t63 -50t38.5 -78t13 -102.5q0 -62 -18 -110.5t-48.5 -82.5t-70.5 -51.5t-84 -17.5q-34 0 -73.5 16.5t-71.5 46.5h-3l4 -92v-164h-82zM305 57q66 0 108 51t42 142q0 40 -8 73t-24.5 56.5t-42.5 36.5t-62 13
q-32 0 -68.5 -17.5t-74.5 -55.5v-242q35 -31 70 -44t60 -13z" />
    <glyph glyph-name="q" unicode="q" 
d="M425 -205v177l4 90h-3q-30 -31 -70.5 -52.5t-85.5 -21.5q-47 0 -86 17t-66.5 49.5t-42.5 79.5t-15 108q0 59 18.5 106.5t49 80.5t70.5 51t83 18q45 0 80 -17t70 -49h3l7 54h66v-691h-82zM288 57q72 0 137 73v242q-33 31 -64.5 44t-63.5 13t-59.5 -13.5t-48 -38
t-32.5 -58.5t-12 -76q0 -88 37.5 -137t105.5 -49z" />
    <glyph glyph-name="r" unicode="r" 
d="M146 0v486h68l7 -115h3q38 59 93.5 93t123.5 34q27 0 50 -4.5t46 -15.5l-19 -71q-26 9 -43.5 13t-46.5 4q-55 0 -105.5 -31.5t-94.5 -107.5v-285h-82z" />
    <glyph glyph-name="s" unicode="s" 
d="M310 -12q-72 0 -133 22.5t-106 53.5l38 54q42 -30 92.5 -48t118.5 -18q62 0 92.5 22.5t30.5 53.5q0 14 -5 26t-21.5 23t-46.5 21t-79 20q-95 20 -142.5 53.5t-47.5 88.5q0 29 13 54.5t38.5 44t63 29t87.5 10.5q56 0 108 -18.5t88 -43.5l-40 -53q-34 23 -75 37t-88 14
q-62 0 -87 -21t-25 -49q0 -32 33 -48.5t108 -32.5q61 -13 100 -27.5t61.5 -32.5t31 -40t8.5 -50q0 -30 -14 -56t-41.5 -46t-68 -31.5t-92.5 -11.5z" />
    <glyph glyph-name="t" unicode="t" 
d="M394 -12q-53 0 -89 14.5t-58 41t-31.5 63.5t-9.5 82v230h-137v62l140 5l11 156h68v-156h239v-67h-239v-231q0 -33 6 -57.5t20 -41.5t38 -25.5t59 -8.5t63 6t54 16l18 -60q-33 -12 -69.5 -20.5t-82.5 -8.5z" />
    <glyph glyph-name="u" unicode="u" 
d="M246 -12q-88 0 -128.5 49.5t-40.5 146.5v302h83v-291q0 -69 25.5 -102.5t86.5 -33.5q42 0 76 21.5t75 68.5v337h82v-486h-67l-7 85h-4q-37 -43 -80.5 -70t-100.5 -27z" />
    <glyph glyph-name="v" unicode="v" 
d="M256 0l-205 486h83l112 -276q15 -37 28.5 -72.5t26.5 -70.5h4q13 35 25.5 70.5t27.5 72.5l112 276h79l-201 -486h-92z" />
    <glyph glyph-name="w" unicode="w" 
d="M114 0l-106 486h82l58 -282q7 -35 12 -67t10 -67h4q5 35 12.5 67.5t15.5 66.5l60 252h82l58 -252q8 -35 16.5 -67t13.5 -67h4q6 35 10.5 67t11.5 67l58 282h76l-104 -486h-106l-56 232q-12 51 -24 144h-4q-12 -93 -24 -144l-54 -232h-106z" />
    <glyph glyph-name="x" unicode="x" 
d="M64 0l185 252l-171 234h91l77 -107q13 -20 27.5 -41t29.5 -41h4q14 20 28 42t27 42l73 105h87l-173 -241l186 -245h-90l-85 112q-15 21 -31.5 44t-32.5 44h-4q-15 -22 -30 -43.5t-30 -44.5l-80 -112h-88z" />
    <glyph glyph-name="y" unicode="y" 
d="M131 -209q-36 0 -64 10l17 65q10 -3 21.5 -5t22.5 -2q51 0 83 29.5t50 74.5l15 36l-227 487h83l119 -269q14 -32 29.5 -69t30.5 -72h4q13 35 26.5 71.5t25.5 69.5l106 269h78l-214 -526q-14 -36 -32 -67t-43 -53.5t-57.5 -35.5t-73.5 -13z" />
    <glyph glyph-name="z" unicode="z" 
d="M71 0v44l333 375h-296v67h414v-44l-334 -375h343v-67h-460z" />
    <glyph glyph-name="braceleft" unicode="{" 
d="M441 -152q-47 0 -82 6.5t-58 21.5t-34 40.5t-11 64.5q0 27 1.5 51.5t3 47.5l3 46t1.5 48q0 15 -6 28.5t-22 24.5t-44.5 18t-72.5 7v52q44 0 72.5 7t44.5 18t22 24.5t6 28.5q0 48 -4.5 94.5t-4.5 98.5q0 39 11 64.5t34 40.5t58 21.5t82 6.5h61v-47h-52q-38 0 -62.5 -5
t-38 -16t-18.5 -28.5t-5 -41.5q0 -43 3 -88.5t3 -92.5q0 -49 -19.5 -74.5t-71.5 -34.5v-4q52 -9 71.5 -34.5t19.5 -74.5q0 -51 -3 -93t-3 -88q0 -24 5 -41.5t18.5 -28.5t38 -16t62.5 -5h52v-47h-61z" />
    <glyph glyph-name="bar" unicode="|" 
d="M263 -250v1000h74v-1000h-74z" />
    <glyph glyph-name="braceright" unicode="}" 
d="M99 -152v47h51q38 0 62.5 5t38.5 16t19 28.5t5 41.5q0 46 -3 88t-3 93q0 49 19 74.5t71 34.5v4q-52 9 -71 34.5t-19 74.5q0 47 3 92.5t3 88.5q0 24 -5 41.5t-19 28.5t-38.5 16t-62.5 5h-51v47h61q47 0 81.5 -6.5t57.5 -21.5t34 -40.5t11 -64.5q0 -52 -4.5 -98.5
t-4.5 -94.5q0 -15 6 -28.5t22 -24.5t44.5 -18t72.5 -7v-52q-44 0 -72.5 -7t-44.5 -18t-22 -24.5t-6 -28.5q0 -25 1.5 -48l3 -46t3 -47.5t1.5 -51.5q0 -39 -11 -64.5t-34 -40.5t-57.5 -21.5t-81.5 -6.5h-61z" />
    <glyph glyph-name="asciitilde" unicode="~" 
d="M388 257q-30 0 -53.5 13t-44 29t-40 29t-40.5 13q-23 0 -43.5 -17t-37.5 -69l-53 23q26 70 62 97.5t74 27.5q30 0 53.5 -13t44 -29t40 -29t40.5 -13q12 0 22.5 3.5t21 13t19.5 26.5t18 43l53 -24q-26 -70 -62 -97t-74 -27z" />
    <glyph glyph-name="uni00A0" unicode="&#xa0;" 
 />
    <glyph glyph-name="exclamdown" unicode="&#xa1;" 
d="M260 -184l2 94l10 344h56l10 -344l2 -94h-80zM300 344q-30 0 -51.5 20.5t-21.5 56.5q0 35 21.5 56t51.5 21t51.5 -21t21.5 -56q0 -36 -21.5 -56.5t-51.5 -20.5z" />
    <glyph glyph-name="cent" unicode="&#xa2;" 
d="M194 310q0 -67 31.5 -111t88.5 -57v335q-56 -13 -88 -57t-32 -110zM314 -33v104q-45 5 -82 23t-63.5 48.5t-41 72.5t-14.5 95q0 52 15.5 93.5t42.5 71.5t64 48t79 24v106h51v-103q44 -2 76 -19t55 -39l-40 -52q-20 18 -42.5 29t-48.5 13v-344q32 2 58 15.5t47 31.5
l36 -52q-30 -26 -66 -43t-75 -20v-103h-51z" />
    <glyph glyph-name="sterling" unicode="&#xa3;" 
d="M78 0v50q63 28 93.5 75.5t30.5 104.5q0 26 -8 55h-117v52l99 4q-11 32 -21.5 62.5t-10.5 62.5q0 42 15 76t42.5 58t66 37t86.5 13q62 0 104.5 -21.5t71.5 -53.5l-48 -47q-23 23 -52.5 38t-71.5 15q-66 0 -100.5 -32.5t-34.5 -84.5q0 -32 9.5 -61.5t20.5 -61.5h189v-56
h-173q6 -27 6 -56q0 -53 -18 -88t-54 -66v-4h328v-71h-453z" />
    <glyph glyph-name="currency" unicode="&#xa4;" 
d="M102 83l-44 45l84 85q-17 23 -26.5 52t-9.5 64t9 64.5t26 52.5l-83 86l44 45l87 -90q48 37 111 37q62 0 111 -37l87 90l44 -45l-84 -86q17 -23 26.5 -52.5t9.5 -64.5t-9.5 -64t-26.5 -52l84 -85l-44 -45l-88 89q-23 -19 -51.5 -28.5t-58.5 -9.5q-62 0 -111 38zM300 195
q24 0 45.5 9.5t37.5 27.5t25.5 42.5t9.5 54.5t-9.5 54.5t-25.5 42.5t-37.5 27.5t-45.5 9.5t-45.5 -9.5t-37.5 -27.5t-25.5 -42.5t-9.5 -54.5t9.5 -54.5t25.5 -42.5t37.5 -27.5t45.5 -9.5z" />
    <glyph glyph-name="yen" unicode="&#xa5;" 
d="M258 0v158h-181v48h181v65h-181v47h161l-185 320h85l92 -171q17 -33 33.5 -66.5t35.5 -68.5h4q18 35 35 68.5t35 66.5l92 171h82l-186 -320h162v-47h-183v-65h183v-48h-183v-158h-82z" />
    <glyph glyph-name="brokenbar" unicode="&#xa6;" 
d="M263 -250v440h74v-440h-74zM263 310v440h74v-440h-74z" />
    <glyph glyph-name="section" unicode="&#xa7;" 
d="M287 -64q-55 0 -101 19t-78 52l50 45q26 -24 56.5 -38t72.5 -14q41 0 63.5 20t22.5 49q0 28 -21 47t-52 34t-68 29.5t-68 35.5t-52 51.5t-21 76.5q0 45 25.5 77t65.5 53q-14 16 -22.5 35.5t-8.5 45.5t9.5 49.5t28.5 41.5t47 28.5t66 10.5q50 0 90.5 -17t70.5 -40l-40 -53
q-26 20 -54 33t-63 13q-42 0 -61 -18.5t-19 -44.5q0 -27 21 -45t52.5 -33t68 -30t68 -36.5t52.5 -52t21 -76.5q0 -48 -24.5 -78t-66.5 -52q14 -16 22 -35.5t8 -45.5q0 -30 -12 -55t-33 -43t-50.5 -28.5t-65.5 -10.5zM162 348q0 -33 20.5 -54.5t52 -38t68 -30.5t68.5 -33
q32 14 49.5 33t17.5 53t-20.5 56t-51.5 38.5t-67.5 31t-68.5 32.5q-31 -16 -49.5 -36.5t-18.5 -51.5z" />
    <glyph glyph-name="dieresis" unicode="&#xa8;" 
d="M203 588q-24 0 -39.5 16t-15.5 40q0 23 15.5 39.5t39.5 16.5t39.5 -16.5t15.5 -39.5q0 -24 -15.5 -40t-39.5 -16zM397 588q-24 0 -39.5 16t-15.5 40q0 23 15.5 39.5t39.5 16.5t39.5 -16.5t15.5 -39.5q0 -24 -15.5 -40t-39.5 -16z" />
    <glyph glyph-name="copyright" unicode="&#xa9;" 
d="M300 -11q-57 0 -106.5 23.5t-86 67t-57 105t-20.5 138.5q0 76 20.5 137.5t57 104t86 65.5t106.5 23t106.5 -23t86 -65.5t57 -104t20.5 -137.5q0 -77 -20.5 -138.5t-57 -105t-86 -67t-106.5 -23.5zM300 31q50 0 91.5 21t71 59.5t45.5 92t16 119.5t-16 119t-45.5 91
t-71 58.5t-91.5 20.5t-91.5 -20.5t-71 -58.5t-45.5 -91t-16 -119t16 -119.5t45.5 -92t71 -59.5t91.5 -21zM308 125q-34 0 -63.5 13.5t-51.5 39t-34.5 62t-12.5 83.5q0 43 13.5 78t36.5 60t52.5 38t62.5 13q35 0 59.5 -13.5t44.5 -33.5l-34 -39q-16 14 -31.5 22.5t-35.5 8.5
q-46 0 -74 -37.5t-28 -96.5q0 -66 26.5 -104.5t71.5 -38.5q26 0 45 10t36 24l30 -42q-23 -20 -49 -33.5t-64 -13.5z" />
    <glyph glyph-name="ordfeminine" unicode="&#xaa;" 
d="M269 387q-45 0 -75.5 24.5t-30.5 67.5q0 53 53 81.5t166 37.5q-2 31 -18 53t-57 22q-29 0 -56 -10t-50 -24l-25 43q26 16 63.5 29t78.5 13q65 0 96.5 -35.5t31.5 -98.5v-195h-53l-4 38h-2q-25 -20 -55 -33t-63 -13zM285 436q26 0 49.5 10.5t47.5 29.5v83
q-86 -8 -121.5 -26.5t-35.5 -47.5q0 -26 18 -37.5t42 -11.5z" />
    <glyph glyph-name="guillemotleft" unicode="&#xab;" 
d="M236 52l-153 160v80l153 160l39 -35l-127 -165l127 -166zM465 52l-153 160v80l153 160l39 -35l-127 -165l127 -166z" />
    <glyph glyph-name="logicalnot" unicode="&#xac;" 
d="M449 104v195h-364v62h430v-257h-66z" />
    <glyph glyph-name="uni00AD" unicode="&#xad;" 
d="M85 299v62h430v-62h-430z" />
    <glyph glyph-name="registered" unicode="&#xae;" 
d="M300 319q-39 0 -73.5 14.5t-60 40.5t-40 62t-14.5 80t14.5 80t40 62t60 40.5t73.5 14.5t73 -14.5t59.5 -40.5t40.5 -62t15 -80t-15 -80t-40.5 -62t-59.5 -40.5t-73 -14.5zM300 356q31 0 58.5 11.5t47 32.5t31 50.5t11.5 65.5q0 35 -11.5 64.5t-31 51t-47 33.5t-58.5 12
q-32 0 -59 -12t-47 -33.5t-31.5 -51t-11.5 -64.5q0 -36 11.5 -65.5t31.5 -50.5t47 -32.5t59 -11.5zM227 417v203h76q32 0 55.5 -14.5t23.5 -50.5q0 -18 -10.5 -33.5t-27.5 -21.5l46 -83h-46l-35 70h-41v-70h-41zM268 519h26q20 0 32 8.5t12 25.5q0 15 -9.5 24t-32.5 9h-28
v-67z" />
    <glyph glyph-name="macron" unicode="&#xaf;" 
d="M167 601v57h266v-57h-266z" />
    <glyph glyph-name="degree" unicode="&#xb0;" 
d="M300 429q-25 0 -47.5 9t-40 25.5t-27.5 40t-10 52.5q0 30 10 53.5t27.5 40.5t40 26t47.5 9t48 -9t40 -26t27.5 -40.5t10.5 -53.5q0 -29 -10.5 -52.5t-27.5 -40t-40 -25.5t-48 -9zM300 475q34 0 55 23t21 58q0 37 -21 60t-55 23q-33 0 -54 -23t-21 -60q0 -35 21 -58
t54 -23z" />
    <glyph glyph-name="plusminus" unicode="&#xb1;" 
d="M267 127v177h-182v62h182v190h66v-190h182v-62h-182v-177h-66zM85 0v62h430v-62h-430z" />
    <glyph glyph-name="two.sups" unicode="&#xb2;" 
d="M162 395l-4 37q50 43 88.5 75.5t64.5 59.5t39 49.5t13 44.5q0 38 -23 60t-62 22q-28 0 -52.5 -16t-41.5 -41l-38 35q23 35 60.5 55.5t80.5 20.5q63 0 101.5 -32t38.5 -95q0 -28 -12.5 -53.5t-34.5 -51.5t-52 -54t-66 -62h184v-54h-284z" />
    <glyph glyph-name="three.sups" unicode="&#xb3;" 
d="M297 383q-51 0 -91.5 21t-63.5 55l42 33q19 -29 47.5 -43.5t61.5 -14.5q36 0 62 18t26 51q0 70 -131 70v40q60 0 88 20.5t28 50.5q0 28 -21.5 45t-58.5 17q-25 0 -49 -13t-41 -35l-38 34q26 31 59.5 48t77.5 17q27 0 51.5 -7.5t43 -21t29.5 -33t11 -43.5q0 -35 -19.5 -58
t-59.5 -38q43 -8 68.5 -33t25.5 -63q0 -27 -11.5 -48.5t-32 -37t-47.5 -23.5t-57 -8z" />
    <glyph glyph-name="acute" unicode="&#xb4;" 
d="M279 568l-43 41l142 168l58 -56z" />
    <glyph glyph-name="uni00B5" unicode="&#xb5;" 
d="M84 -187v673h82v-291q0 -67 24.5 -101.5t78.5 -34.5q19 0 37 4t36.5 15t37 32t37.5 54v322h83q-2 -99 -4 -202.5t-2 -191.5q0 -20 8 -28t20 -8h7.5t10.5 2l11 -62q-18 -8 -47 -8q-38 0 -57.5 22.5t-22.5 81.5h-2q-30 -52 -69.5 -77t-84.5 -25q-33 0 -60.5 10.5
t-47.5 42.5q0 -38 0.5 -67.5t1 -55.5t2 -51.5t3.5 -55.5h-83z" />
    <glyph glyph-name="paragraph" unicode="&#xb6;" 
d="M318 226q-53 0 -98 12.5t-78 39t-51.5 67.5t-18.5 98q0 59 18 99.5t49.5 66t74.5 36.5t93 11h43v-430h-32zM404 -80v736h81v-736h-81z" />
    <glyph glyph-name="periodcentered" unicode="&#xb7;" 
d="M300 263q-34 0 -57.5 23t-23.5 61t23.5 61.5t57.5 23.5t57.5 -23.5t23.5 -61.5t-23.5 -61t-57.5 -23z" />
    <glyph glyph-name="cedilla" unicode="&#xb8;" 
d="M213 -226l-8 40q63 5 86 16.5t23 33.5q0 20 -17 31t-60 17l40 96h54l-26 -72q35 -8 54 -24t19 -47q0 -44 -42.5 -65.5t-122.5 -25.5z" />
    <glyph glyph-name="one.sups" unicode="&#xb9;" 
d="M175 395v54h123v254h-105v41q41 6 67.5 15t49.5 26h52v-336h114v-54h-301z" />
    <glyph glyph-name="ordmasculine" unicode="&#xba;" 
d="M300 387q-32 0 -60.5 11.5t-50 33t-34.5 52.5t-13 71t13 71.5t34.5 53.5t50 33t60.5 11t60.5 -11t50.5 -33t34.5 -53.5t12.5 -71.5t-12.5 -71t-34.5 -52.5t-50.5 -33t-60.5 -11.5zM300 439q43 0 67.5 32t24.5 84q0 53 -24.5 85t-67.5 32t-67.5 -32t-24.5 -85
q0 -52 24.5 -84t67.5 -32z" />
    <glyph glyph-name="guillemotright" unicode="&#xbb;" 
d="M136 52l-39 34l127 166l-127 165l39 35l153 -160v-80zM365 52l-39 34l127 166l-127 165l39 35l153 -160v-80z" />
    <glyph glyph-name="onequarter" unicode="&#xbc;" 
d="M150 333v230h-82v42q33 5 53.5 13t41.5 20h50v-305h-63zM77 32l-49 45l183 188l33 -30zM389 391l-33 30l167 203l49 -45zM468 0v74h-162v31l113 212l46 -20l-97 -181h100v97h57v-97h50v-42h-50v-74h-57z" />
    <glyph glyph-name="onehalf" unicode="&#xbd;" 
d="M150 333v230h-82v42q33 5 53.5 13t41.5 20h50v-305h-63zM77 32l-49 45l183 188l33 -30zM389 391l-33 30l167 203l49 -45zM324 0v36q78 59 119.5 98t41.5 72q0 27 -15.5 43t-44.5 16q-20 0 -39 -11.5t-33 -30.5l-39 33q23 26 52.5 43.5t65.5 17.5q54 0 85 -26.5t31 -76.5
q0 -20 -9.5 -39.5t-26 -39t-38.5 -40t-47 -42.5h136v-53h-239z" />
    <glyph glyph-name="threequarters" unicode="&#xbe;" 
d="M159 321q-35 0 -68.5 14t-58.5 40l32 39q15 -18 39.5 -30.5t51.5 -12.5t44.5 11t17.5 36q0 51 -96 51v38q42 0 61.5 14t19.5 37q0 20 -13 31.5t-42 11.5q-18 0 -38 -9.5t-35 -24.5l-30 38q19 20 49.5 32.5t65.5 12.5q47 0 76.5 -22t29.5 -62q0 -55 -56 -75
q32 -8 51.5 -27t19.5 -50q0 -45 -35 -69t-86 -24zM102 32l-49 45l183 188l33 -30zM414 391l-33 30l167 203l49 -45zM468 0v74h-162v31l113 212l46 -20l-97 -181h100v97h57v-97h50v-42h-50v-74h-57z" />
    <glyph glyph-name="questiondown" unicode="&#xbf;" 
d="M307 -196q-42 0 -76 11t-58.5 31.5t-38 49t-13.5 64.5q0 34 13.5 60t33 48t42 41.5t41 41t28.5 46t6 57.5h73q6 -36 -3 -64t-26.5 -51t-39.5 -43t-41.5 -39.5t-32.5 -41t-13 -46.5q0 -42 27.5 -69t82.5 -27q38 0 70.5 15t59.5 42l49 -45q-34 -35 -80 -58t-104 -23z
M314 344q-30 0 -51.5 20.5t-21.5 56.5q0 35 21.5 56t51.5 21t51.5 -21t21.5 -56q0 -36 -21.5 -56.5t-51.5 -20.5z" />
    <glyph glyph-name="Agrave" unicode="&#xc0;" 
d="M232 367l-31 -100h196l-31 100q-17 55 -33.5 109.5t-31.5 111.5h-4q-16 -57 -32 -111.5t-33 -109.5zM32 0l221 656h94l221 -656h-88l-62 200h-238l-63 -200h-85zM329 697l-152 115l47 55l141 -128z" />
    <glyph glyph-name="Aacute" unicode="&#xc1;" 
d="M232 367l-31 -100h196l-31 100q-17 55 -33.5 109.5t-31.5 111.5h-4q-16 -57 -32 -111.5t-33 -109.5zM32 0l221 656h94l221 -656h-88l-62 200h-238l-63 -200h-85zM271 697l-36 42l141 128l47 -55z" />
    <glyph glyph-name="Acircumflex" unicode="&#xc2;" 
d="M232 367l-31 -100h196l-31 100q-17 55 -33.5 109.5t-31.5 111.5h-4q-16 -57 -32 -111.5t-33 -109.5zM32 0l221 656h94l221 -656h-88l-62 200h-238l-63 -200h-85zM188 699l-36 26l105 113h86l105 -113l-36 -26l-110 93h-4z" />
    <glyph glyph-name="Atilde" unicode="&#xc3;" 
d="M232 367l-31 -100h196l-31 100q-17 55 -33.5 109.5t-31.5 111.5h-4q-16 -57 -32 -111.5t-33 -109.5zM32 0l221 656h94l221 -656h-88l-62 200h-238l-63 -200h-85zM375 709q-28 0 -48 11t-36.5 24.5t-31 24.5t-32.5 11q-19 0 -32 -17t-16 -49l-56 4q3 57 30 90t72 33
q28 0 48 -11t36.5 -24.5t31 -24.5t32.5 -11q40 0 48 66l56 -4q-3 -58 -30 -90.5t-72 -32.5z" />
    <glyph glyph-name="Adieresis" unicode="&#xc4;" 
d="M232 367l-31 -100h196l-31 100q-17 55 -33.5 109.5t-31.5 111.5h-4q-16 -57 -32 -111.5t-33 -109.5zM32 0l221 656h94l221 -656h-88l-62 200h-238l-63 -200h-85zM209 715q-22 0 -36.5 14t-14.5 37t14.5 36.5t36.5 13.5t36 -13.5t14 -36.5t-14 -37t-36 -14zM391 715
q-22 0 -36 14t-14 37t14 36.5t36 13.5t36.5 -13.5t14.5 -36.5t-14.5 -37t-36.5 -14z" />
    <glyph glyph-name="Aring" unicode="&#xc5;" 
d="M232 367l-31 -100h196l-31 100q-17 55 -33.5 109.5t-31.5 111.5h-4q-16 -57 -32 -111.5t-33 -109.5zM32 0l221 656h94l221 -656h-88l-62 200h-238l-63 -200h-85zM300 699q-42 0 -69.5 24.5t-27.5 65.5q0 42 27.5 66.5t69.5 24.5t69.5 -24.5t27.5 -66.5q0 -41 -27.5 -65.5
t-69.5 -24.5zM300 735q20 0 35.5 14t15.5 40t-15.5 40t-35.5 14q-22 0 -37 -14t-15 -40t15 -40t37 -14z" />
    <glyph glyph-name="AE" unicode="&#xc6;" 
d="M231 377l-46 -119h132v332h-3q-20 -54 -41.5 -106.5t-41.5 -106.5zM-1 0l264 656h319v-70h-189v-205h147v-71h-147v-239h198v-71h-274v191h-158l-73 -191h-87z" />
    <glyph glyph-name="Ccedilla" unicode="&#xc7;" 
d="M351 -12q-61 0 -113 23t-90.5 66.5t-60.5 107t-22 143.5q0 79 22 142t61 107t93 67.5t118 23.5q59 0 104.5 -24t74.5 -56l-47 -53q-26 27 -58 43.5t-74 16.5q-47 0 -85.5 -18.5t-65.5 -53t-42 -83.5t-15 -110q0 -62 15 -111.5t42 -84.5t65.5 -54t85.5 -19q45 0 80.5 19
t67.5 54l47 -51q-39 -45 -88 -70t-115 -25zM263 -226l-8 40q63 5 86 16.5t23 33.5q0 20 -17 31t-60 17l40 96h54l-26 -72q35 -8 54 -24t19 -47q0 -44 -42.5 -65.5t-122.5 -25.5z" />
    <glyph glyph-name="Egrave" unicode="&#xc8;" 
d="M114 0v656h406v-70h-322v-206h272v-71h-272v-238h332v-71h-416zM360 697l-152 115l47 55l141 -128z" />
    <glyph glyph-name="Eacute" unicode="&#xc9;" 
d="M114 0v656h406v-70h-322v-206h272v-71h-272v-238h332v-71h-416zM302 697l-36 42l141 128l47 -55z" />
    <glyph glyph-name="Ecircumflex" unicode="&#xca;" 
d="M114 0v656h406v-70h-322v-206h272v-71h-272v-238h332v-71h-416zM219 699l-36 26l105 113h86l105 -113l-36 -26l-110 93h-4z" />
    <glyph glyph-name="Edieresis" unicode="&#xcb;" 
d="M114 0v656h406v-70h-322v-206h272v-71h-272v-238h332v-71h-416zM240 715q-22 0 -36.5 14t-14.5 37t14.5 36.5t36.5 13.5t36 -13.5t14 -36.5t-14 -37t-36 -14zM422 715q-22 0 -36 14t-14 37t14 36.5t36 13.5t36.5 -13.5t14.5 -36.5t-14.5 -37t-36.5 -14z" />
    <glyph glyph-name="Igrave" unicode="&#xcc;" 
d="M95 0v71h163v515h-163v70h410v-70h-163v-515h163v-71h-410zM329 697l-152 115l47 55l141 -128z" />
    <glyph glyph-name="Iacute" unicode="&#xcd;" 
d="M95 0v71h163v515h-163v70h410v-70h-163v-515h163v-71h-410zM271 697l-36 42l141 128l47 -55z" />
    <glyph glyph-name="Icircumflex" unicode="&#xce;" 
d="M95 0v71h163v515h-163v70h410v-70h-163v-515h163v-71h-410zM188 699l-36 26l105 113h86l105 -113l-36 -26l-110 93h-4z" />
    <glyph glyph-name="Idieresis" unicode="&#xcf;" 
d="M95 0v71h163v515h-163v70h410v-70h-163v-515h163v-71h-410zM209 715q-22 0 -36.5 14t-14.5 37t14.5 36.5t36.5 13.5t36 -13.5t14 -36.5t-14 -37t-36 -14zM391 715q-22 0 -36 14t-14 37t14 36.5t36 13.5t36.5 -13.5t14.5 -36.5t-14.5 -37t-36.5 -14z" />
    <glyph glyph-name="Eth" unicode="&#xd0;" 
d="M87 0v314h-75v56l75 6v280h162q149 0 226.5 -84t77.5 -241t-77.5 -244t-222.5 -87h-166zM170 68h73q112 0 167.5 69t55.5 194t-55.5 191t-167.5 66h-73v-212h144v-62h-144v-246z" />
    <glyph glyph-name="Ntilde" unicode="&#xd1;" 
d="M82 0v656h92l210 -412l63 -136h2q-2 49 -6.5 102.5t-4.5 105.5v340h80v-656h-92l-210 412l-63 136h-2q2 -51 6.5 -102.5t4.5 -102.5v-343h-80zM385 709q-28 0 -48 11t-36.5 24.5t-31 24.5t-32.5 11q-19 0 -32 -17t-16 -49l-56 4q3 57 30 90t72 33q28 0 48 -11t36.5 -24.5
t31 -24.5t32.5 -11q40 0 48 66l56 -4q-3 -58 -30 -90.5t-72 -32.5z" />
    <glyph glyph-name="Ograve" unicode="&#xd2;" 
d="M300 -12q-56 0 -102 23.5t-79.5 67.5t-52 107.5t-18.5 144.5q0 79 18.5 142t52 106t79.5 66t102 23q55 0 101.5 -23t80 -66t52 -106t18.5 -142q0 -81 -18.5 -144.5t-52 -107.5t-80 -67.5t-101.5 -23.5zM300 61q37 0 68 18.5t52.5 53.5t33.5 85t12 113q0 62 -12 111
t-33.5 83t-52.5 52t-68 18q-38 0 -68.5 -18t-52 -52t-33.5 -83t-12 -111q0 -63 12 -113t33.5 -85t52 -53.5t68.5 -18.5zM329 697l-152 115l47 55l141 -128z" />
    <glyph glyph-name="Oacute" unicode="&#xd3;" 
d="M300 -12q-56 0 -102 23.5t-79.5 67.5t-52 107.5t-18.5 144.5q0 79 18.5 142t52 106t79.5 66t102 23q55 0 101.5 -23t80 -66t52 -106t18.5 -142q0 -81 -18.5 -144.5t-52 -107.5t-80 -67.5t-101.5 -23.5zM300 61q37 0 68 18.5t52.5 53.5t33.5 85t12 113q0 62 -12 111
t-33.5 83t-52.5 52t-68 18q-38 0 -68.5 -18t-52 -52t-33.5 -83t-12 -111q0 -63 12 -113t33.5 -85t52 -53.5t68.5 -18.5zM271 697l-36 42l141 128l47 -55z" />
    <glyph glyph-name="Ocircumflex" unicode="&#xd4;" 
d="M300 -12q-56 0 -102 23.5t-79.5 67.5t-52 107.5t-18.5 144.5q0 79 18.5 142t52 106t79.5 66t102 23q55 0 101.5 -23t80 -66t52 -106t18.5 -142q0 -81 -18.5 -144.5t-52 -107.5t-80 -67.5t-101.5 -23.5zM300 61q37 0 68 18.5t52.5 53.5t33.5 85t12 113q0 62 -12 111
t-33.5 83t-52.5 52t-68 18q-38 0 -68.5 -18t-52 -52t-33.5 -83t-12 -111q0 -63 12 -113t33.5 -85t52 -53.5t68.5 -18.5zM188 699l-36 26l105 113h86l105 -113l-36 -26l-110 93h-4z" />
    <glyph glyph-name="Otilde" unicode="&#xd5;" 
d="M300 -12q-56 0 -102 23.5t-79.5 67.5t-52 107.5t-18.5 144.5q0 79 18.5 142t52 106t79.5 66t102 23q55 0 101.5 -23t80 -66t52 -106t18.5 -142q0 -81 -18.5 -144.5t-52 -107.5t-80 -67.5t-101.5 -23.5zM300 61q37 0 68 18.5t52.5 53.5t33.5 85t12 113q0 62 -12 111
t-33.5 83t-52.5 52t-68 18q-38 0 -68.5 -18t-52 -52t-33.5 -83t-12 -111q0 -63 12 -113t33.5 -85t52 -53.5t68.5 -18.5zM375 709q-28 0 -48 11t-36.5 24.5t-31 24.5t-32.5 11q-19 0 -32 -17t-16 -49l-56 4q3 57 30 90t72 33q28 0 48 -11t36.5 -24.5t31 -24.5t32.5 -11
q40 0 48 66l56 -4q-3 -58 -30 -90.5t-72 -32.5z" />
    <glyph glyph-name="Odieresis" unicode="&#xd6;" 
d="M300 -12q-56 0 -102 23.5t-79.5 67.5t-52 107.5t-18.5 144.5q0 79 18.5 142t52 106t79.5 66t102 23q55 0 101.5 -23t80 -66t52 -106t18.5 -142q0 -81 -18.5 -144.5t-52 -107.5t-80 -67.5t-101.5 -23.5zM300 61q37 0 68 18.5t52.5 53.5t33.5 85t12 113q0 62 -12 111
t-33.5 83t-52.5 52t-68 18q-38 0 -68.5 -18t-52 -52t-33.5 -83t-12 -111q0 -63 12 -113t33.5 -85t52 -53.5t68.5 -18.5zM209 715q-22 0 -36.5 14t-14.5 37t14.5 36.5t36.5 13.5t36 -13.5t14 -36.5t-14 -37t-36 -14zM391 715q-22 0 -36 14t-14 37t14 36.5t36 13.5t36.5 -13.5
t14.5 -36.5t-14.5 -37t-36.5 -14z" />
    <glyph glyph-name="multiply" unicode="&#xd7;" 
d="M146 126l-44 45l154 159l-154 158l44 45l154 -159l154 159l44 -45l-154 -158l154 -159l-44 -45l-154 160z" />
    <glyph glyph-name="Oslash" unicode="&#xd8;" 
d="M300 -12q-89 0 -154 60l-54 -80l-56 36l67 98q-26 43 -40.5 100.5t-14.5 128.5q0 79 18.5 142t52 106t79.5 66t102 23q87 0 152 -57l52 77l56 -36l-64 -94q27 -42 41.5 -99t14.5 -128q0 -81 -18.5 -144.5t-52 -107.5t-80 -67.5t-101.5 -23.5zM134 331q0 -87 23 -150
l249 364q-44 50 -106 50q-38 0 -68.5 -18t-52 -52t-33.5 -83t-12 -111zM300 61q37 0 68 18.5t52.5 53.5t33.5 85t12 113q0 89 -24 149l-250 -365q43 -54 108 -54z" />
    <glyph glyph-name="Ugrave" unicode="&#xd9;" 
d="M301 -12q-48 0 -89 14t-70.5 45.5t-46 80.5t-16.5 120v408h84v-410q0 -51 10.5 -86.5t29 -57t43.5 -31.5t55 -10t55 10t44 31.5t29.5 57t10.5 86.5v410h81v-408q0 -71 -16.5 -120t-45.5 -80.5t-69.5 -45.5t-88.5 -14zM329 697l-152 115l47 55l141 -128z" />
    <glyph glyph-name="Uacute" unicode="&#xda;" 
d="M301 -12q-48 0 -89 14t-70.5 45.5t-46 80.5t-16.5 120v408h84v-410q0 -51 10.5 -86.5t29 -57t43.5 -31.5t55 -10t55 10t44 31.5t29.5 57t10.5 86.5v410h81v-408q0 -71 -16.5 -120t-45.5 -80.5t-69.5 -45.5t-88.5 -14zM271 697l-36 42l141 128l47 -55z" />
    <glyph glyph-name="Ucircumflex" unicode="&#xdb;" 
d="M301 -12q-48 0 -89 14t-70.5 45.5t-46 80.5t-16.5 120v408h84v-410q0 -51 10.5 -86.5t29 -57t43.5 -31.5t55 -10t55 10t44 31.5t29.5 57t10.5 86.5v410h81v-408q0 -71 -16.5 -120t-45.5 -80.5t-69.5 -45.5t-88.5 -14zM188 699l-36 26l105 113h86l105 -113l-36 -26
l-110 93h-4z" />
    <glyph glyph-name="Udieresis" unicode="&#xdc;" 
d="M301 -12q-48 0 -89 14t-70.5 45.5t-46 80.5t-16.5 120v408h84v-410q0 -51 10.5 -86.5t29 -57t43.5 -31.5t55 -10t55 10t44 31.5t29.5 57t10.5 86.5v410h81v-408q0 -71 -16.5 -120t-45.5 -80.5t-69.5 -45.5t-88.5 -14zM209 715q-22 0 -36.5 14t-14.5 37t14.5 36.5
t36.5 13.5t36 -13.5t14 -36.5t-14 -37t-36 -14zM391 715q-22 0 -36 14t-14 37t14 36.5t36 13.5t36.5 -13.5t14.5 -36.5t-14.5 -37t-36.5 -14z" />
    <glyph glyph-name="Yacute" unicode="&#xdd;" 
d="M258 0v234l-220 422h88l99 -195q19 -38 37 -75.5t38 -77.5h4l39 78l38 76l95 194h86l-220 -422v-234h-84zM271 697l-36 42l141 128l47 -55z" />
    <glyph glyph-name="Thorn" unicode="&#xde;" 
d="M101 0v656h84v-110h118q54 0 99 -10t76.5 -33t49 -59.5t17.5 -90.5q0 -52 -17.5 -90.5t-49.5 -63.5t-76.5 -37t-98.5 -12h-118v-150h-84zM185 218h107q87 0 128.5 32t41.5 103t-42.5 98t-127.5 27h-107v-260z" />
    <glyph glyph-name="germandbls" unicode="&#xdf;" 
d="M401 -12q-42 0 -77 12t-67 33l33 58q28 -20 54 -29.5t55 -9.5q42 0 64.5 23.5t22.5 54.5q0 29 -15 48t-37.5 33.5t-48.5 27t-48.5 29t-37.5 39t-15 57.5q0 34 14 58.5t31 47t31 46t14 55.5q0 37 -22 61.5t-64 24.5q-55 0 -86.5 -37.5t-31.5 -112.5v-507h-82v519
q0 46 14 84t40 65t63 41.5t84 14.5q40 0 70.5 -12t51.5 -32.5t31.5 -47t10.5 -56.5q0 -38 -14 -64.5t-31 -48.5t-31 -42.5t-14 -46.5q0 -24 15 -40t37 -29.5t48.5 -26.5t48.5 -31t37 -44.5t15 -65.5q0 -32 -11.5 -59t-33 -47t-51.5 -31.5t-67 -11.5z" />
    <glyph glyph-name="agrave" unicode="&#xe0;" 
d="M246 -12q-34 0 -64 9.5t-52.5 27t-35.5 43t-13 58.5q0 41 19.5 71.5t62 52.5t109.5 36t161 22q-1 25 -8 47t-22 38.5t-39.5 26.5t-59.5 10q-48 0 -92 -18.5t-78 -39.5l-32 56q18 12 42.5 24.5t52 22.5t58.5 16.5t63 6.5q100 0 148.5 -54.5t48.5 -145.5v-298h-67l-7 66h-3
q-41 -32 -90.5 -55t-101.5 -23zM268 54q42 0 82.5 18.5t82.5 53.5v128q-78 -6 -130.5 -17t-84 -26.5t-44.5 -35t-13 -43.5q0 -21 9 -35.5t23.5 -24t34 -14t40.5 -4.5zM341 568l-157 153l58 56l142 -168z" />
    <glyph glyph-name="aacute" unicode="&#xe1;" 
d="M246 -12q-34 0 -64 9.5t-52.5 27t-35.5 43t-13 58.5q0 41 19.5 71.5t62 52.5t109.5 36t161 22q-1 25 -8 47t-22 38.5t-39.5 26.5t-59.5 10q-48 0 -92 -18.5t-78 -39.5l-32 56q18 12 42.5 24.5t52 22.5t58.5 16.5t63 6.5q100 0 148.5 -54.5t48.5 -145.5v-298h-67l-7 66h-3
q-41 -32 -90.5 -55t-101.5 -23zM268 54q42 0 82.5 18.5t82.5 53.5v128q-78 -6 -130.5 -17t-84 -26.5t-44.5 -35t-13 -43.5q0 -21 9 -35.5t23.5 -24t34 -14t40.5 -4.5zM299 568l-43 41l142 168l58 -56z" />
    <glyph glyph-name="acircumflex" unicode="&#xe2;" 
d="M246 -12q-34 0 -64 9.5t-52.5 27t-35.5 43t-13 58.5q0 41 19.5 71.5t62 52.5t109.5 36t161 22q-1 25 -8 47t-22 38.5t-39.5 26.5t-59.5 10q-48 0 -92 -18.5t-78 -39.5l-32 56q18 12 42.5 24.5t52 22.5t58.5 16.5t63 6.5q100 0 148.5 -54.5t48.5 -145.5v-298h-67l-7 66h-3
q-41 -32 -90.5 -55t-101.5 -23zM268 54q42 0 82.5 18.5t82.5 53.5v128q-78 -6 -130.5 -17t-84 -26.5t-44.5 -35t-13 -43.5q0 -21 9 -35.5t23.5 -24t34 -14t40.5 -4.5zM200 568l-35 32l114 140h82l114 -140l-35 -32l-118 113h-4z" />
    <glyph glyph-name="atilde" unicode="&#xe3;" 
d="M246 -12q-34 0 -64 9.5t-52.5 27t-35.5 43t-13 58.5q0 41 19.5 71.5t62 52.5t109.5 36t161 22q-1 25 -8 47t-22 38.5t-39.5 26.5t-59.5 10q-48 0 -92 -18.5t-78 -39.5l-32 56q18 12 42.5 24.5t52 22.5t58.5 16.5t63 6.5q100 0 148.5 -54.5t48.5 -145.5v-298h-67l-7 66h-3
q-41 -32 -90.5 -55t-101.5 -23zM268 54q42 0 82.5 18.5t82.5 53.5v128q-78 -6 -130.5 -17t-84 -26.5t-44.5 -35t-13 -43.5q0 -21 9 -35.5t23.5 -24t34 -14t40.5 -4.5zM392 577q-27 0 -46 13t-35 29t-30.5 29t-31.5 13q-23 0 -34 -22t-13 -57l-55 3q1 29 7.5 54t18.5 43
t30.5 28.5t44.5 10.5q27 0 46 -13t35 -29t30.5 -29t32.5 -13q22 0 33 22t13 57l55 -4q-1 -29 -7.5 -53.5t-18.5 -42.5t-30.5 -28.5t-44.5 -10.5z" />
    <glyph glyph-name="adieresis" unicode="&#xe4;" 
d="M246 -12q-34 0 -64 9.5t-52.5 27t-35.5 43t-13 58.5q0 41 19.5 71.5t62 52.5t109.5 36t161 22q-1 25 -8 47t-22 38.5t-39.5 26.5t-59.5 10q-48 0 -92 -18.5t-78 -39.5l-32 56q18 12 42.5 24.5t52 22.5t58.5 16.5t63 6.5q100 0 148.5 -54.5t48.5 -145.5v-298h-67l-7 66h-3
q-41 -32 -90.5 -55t-101.5 -23zM268 54q42 0 82.5 18.5t82.5 53.5v128q-78 -6 -130.5 -17t-84 -26.5t-44.5 -35t-13 -43.5q0 -21 9 -35.5t23.5 -24t34 -14t40.5 -4.5zM223 588q-24 0 -39.5 16t-15.5 40q0 23 15.5 39.5t39.5 16.5t39.5 -16.5t15.5 -39.5q0 -24 -15.5 -40
t-39.5 -16zM417 588q-24 0 -39.5 16t-15.5 40q0 23 15.5 39.5t39.5 16.5t39.5 -16.5t15.5 -39.5q0 -24 -15.5 -40t-39.5 -16z" />
    <glyph glyph-name="aring" unicode="&#xe5;" 
d="M246 -12q-34 0 -64 9.5t-52.5 27t-35.5 43t-13 58.5q0 41 19.5 71.5t62 52.5t109.5 36t161 22q-1 25 -8 47t-22 38.5t-39.5 26.5t-59.5 10q-48 0 -92 -18.5t-78 -39.5l-32 56q18 12 42.5 24.5t52 22.5t58.5 16.5t63 6.5q100 0 148.5 -54.5t48.5 -145.5v-298h-67l-7 66h-3
q-41 -32 -90.5 -55t-101.5 -23zM268 54q42 0 82.5 18.5t82.5 53.5v128q-78 -6 -130.5 -17t-84 -26.5t-44.5 -35t-13 -43.5q0 -21 9 -35.5t23.5 -24t34 -14t40.5 -4.5zM320 569q-52 0 -81 27.5t-29 68.5t29 68.5t81 27.5t81 -27.5t29 -68.5t-29 -68.5t-81 -27.5zM320 606
q24 0 40.5 17t16.5 42q0 26 -16.5 42.5t-40.5 16.5t-40.5 -16.5t-16.5 -42.5q0 -25 16.5 -42t40.5 -17z" />
    <glyph glyph-name="ae" unicode="&#xe6;" 
d="M145 -12q-56 0 -92 35t-36 97q0 74 58.5 119.5t190.5 62.5q-2 71 -26 99.5t-62 28.5q-30 0 -60.5 -12t-53.5 -28l-31 56q30 20 69.5 36t82.5 16q44 0 75 -23t48 -77q25 54 62 77t78 23q38 0 66 -18t46.5 -48.5t27.5 -70.5t9 -85q0 -14 -1 -28.5t-3 -27.5h-261
q4 -77 36 -121t89 -44q28 0 51.5 9t43.5 23l30 -56q-25 -18 -57.5 -30.5t-70.5 -12.5q-51 0 -88.5 22.5t-61.5 64.5q-35 -42 -74.5 -64.5t-84.5 -22.5zM167 54q28 0 59 17.5t57 51.5q-17 54 -17 119v7q-51 -8 -84 -19.5t-53 -26.5t-28 -34t-8 -41q0 -35 20.5 -54.5
t53.5 -19.5zM443 433q-38 0 -70 -34t-40 -115h197q-4 149 -87 149z" />
    <glyph glyph-name="ccedilla" unicode="&#xe7;" 
d="M346 -12q-57 0 -105.5 17t-84.5 49.5t-56 80t-20 107.5q0 61 21.5 108.5t58.5 80.5t86.5 50t104.5 17q60 0 103.5 -21t73.5 -50l-41 -53q-30 26 -62.5 41t-70.5 15q-42 0 -77 -13.5t-59.5 -38.5t-38.5 -59.5t-14 -76.5t13.5 -76t38 -58.5t59 -38t76.5 -13.5
q45 0 82.5 17.5t67.5 43.5l37 -53q-41 -36 -90 -56t-103 -20zM259 -226l-8 40q63 5 86 16.5t23 33.5q0 20 -17 31t-60 17l40 96h54l-26 -72q35 -8 54 -24t19 -47q0 -44 -42.5 -65.5t-122.5 -25.5z" />
    <glyph glyph-name="egrave" unicode="&#xe8;" 
d="M330 -12q-55 0 -102.5 17t-83 50t-56 80.5t-20.5 108.5q0 59 20.5 106t55 80t79 50.5t93.5 17.5q52 0 93.5 -16.5t70 -46.5t43.5 -72t15 -93q0 -14 -1 -27t-3 -23h-383q8 -83 60.5 -124.5t128.5 -41.5q44 0 79.5 12.5t68.5 33.5l30 -54q-36 -24 -82.5 -41t-105.5 -17z
M318 433q-30 0 -57.5 -10t-49.5 -28.5t-37 -46.5t-21 -64h310q-5 75 -43.5 112t-101.5 37zM337 568l-157 153l58 56l142 -168z" />
    <glyph glyph-name="eacute" unicode="&#xe9;" 
d="M330 -12q-55 0 -102.5 17t-83 50t-56 80.5t-20.5 108.5q0 59 20.5 106t55 80t79 50.5t93.5 17.5q52 0 93.5 -16.5t70 -46.5t43.5 -72t15 -93q0 -14 -1 -27t-3 -23h-383q8 -83 60.5 -124.5t128.5 -41.5q44 0 79.5 12.5t68.5 33.5l30 -54q-36 -24 -82.5 -41t-105.5 -17z
M318 433q-30 0 -57.5 -10t-49.5 -28.5t-37 -46.5t-21 -64h310q-5 75 -43.5 112t-101.5 37zM295 568l-43 41l142 168l58 -56z" />
    <glyph glyph-name="ecircumflex" unicode="&#xea;" 
d="M330 -12q-55 0 -102.5 17t-83 50t-56 80.5t-20.5 108.5q0 59 20.5 106t55 80t79 50.5t93.5 17.5q52 0 93.5 -16.5t70 -46.5t43.5 -72t15 -93q0 -14 -1 -27t-3 -23h-383q8 -83 60.5 -124.5t128.5 -41.5q44 0 79.5 12.5t68.5 33.5l30 -54q-36 -24 -82.5 -41t-105.5 -17z
M318 433q-30 0 -57.5 -10t-49.5 -28.5t-37 -46.5t-21 -64h310q-5 75 -43.5 112t-101.5 37zM196 568l-35 32l114 140h82l114 -140l-35 -32l-118 113h-4z" />
    <glyph glyph-name="edieresis" unicode="&#xeb;" 
d="M330 -12q-55 0 -102.5 17t-83 50t-56 80.5t-20.5 108.5q0 59 20.5 106t55 80t79 50.5t93.5 17.5q52 0 93.5 -16.5t70 -46.5t43.5 -72t15 -93q0 -14 -1 -27t-3 -23h-383q8 -83 60.5 -124.5t128.5 -41.5q44 0 79.5 12.5t68.5 33.5l30 -54q-36 -24 -82.5 -41t-105.5 -17z
M318 433q-30 0 -57.5 -10t-49.5 -28.5t-37 -46.5t-21 -64h310q-5 75 -43.5 112t-101.5 37zM219 588q-24 0 -39.5 16t-15.5 40q0 23 15.5 39.5t39.5 16.5t39.5 -16.5t15.5 -39.5q0 -24 -15.5 -40t-39.5 -16zM413 588q-24 0 -39.5 16t-15.5 40q0 23 15.5 39.5t39.5 16.5
t39.5 -16.5t15.5 -39.5q0 -24 -15.5 -40t-39.5 -16z" />
    <glyph glyph-name="igrave" unicode="&#xec;" 
d="M316 0v419h-226v67h308v-486h-82zM369 568l-157 153l58 56l142 -168z" />
    <glyph glyph-name="iacute" unicode="&#xed;" 
d="M316 0v419h-226v67h308v-486h-82zM327 568l-43 41l142 168l58 -56z" />
    <glyph glyph-name="icircumflex" unicode="&#xee;" 
d="M316 0v419h-226v67h308v-486h-82zM228 568l-35 32l114 140h82l114 -140l-35 -32l-118 113h-4z" />
    <glyph glyph-name="idieresis" unicode="&#xef;" 
d="M316 0v419h-226v67h308v-486h-82zM251 588q-24 0 -39.5 16t-15.5 40q0 23 15.5 39.5t39.5 16.5t39.5 -16.5t15.5 -39.5q0 -24 -15.5 -40t-39.5 -16zM445 588q-24 0 -39.5 16t-15.5 40q0 23 15.5 39.5t39.5 16.5t39.5 -16.5t15.5 -39.5q0 -24 -15.5 -40t-39.5 -16z" />
    <glyph glyph-name="eth" unicode="&#xf0;" 
d="M298 -12q-47 0 -90 16t-76 46.5t-52.5 74t-19.5 97.5q0 51 17 92.5t47.5 71t72 45.5t91.5 16q47 0 89 -21t70 -59q-14 66 -42.5 116t-72.5 89l-152 -78l-30 52l130 66q-26 18 -54.5 34t-60.5 32l38 52q38 -18 74.5 -38.5t69.5 -45.5l137 70l30 -50l-118 -61
q63 -61 101.5 -145t38.5 -203q0 -60 -16.5 -109.5t-47.5 -85t-75 -55t-99 -19.5zM300 56q40 0 69.5 14.5t49 41t29 62.5t9.5 80v22t-1 22q-35 47 -76 66t-80 19q-40 0 -70.5 -12t-51 -34t-31 -51.5t-10.5 -63.5q0 -38 13 -68.5t35 -52t52 -33.5t63 -12z" />
    <glyph glyph-name="ntilde" unicode="&#xf1;" 
d="M93 0v486h68l7 -83h4q38 41 82 68t101 27q87 0 127.5 -49.5t40.5 -146.5v-302h-82v291q0 69 -26 102.5t-86 33.5q-22 0 -40.5 -5.5t-36.5 -16.5t-37 -27.5t-40 -38.5v-339h-82zM390 577q-27 0 -46 13t-35 29t-30.5 29t-31.5 13q-23 0 -34 -22t-13 -57l-55 3q1 29 7.5 54
t18.5 43t30.5 28.5t44.5 10.5q27 0 46 -13t35 -29t30.5 -29t32.5 -13q22 0 33 22t13 57l55 -4q-1 -29 -7.5 -53.5t-18.5 -42.5t-30.5 -28.5t-44.5 -10.5z" />
    <glyph glyph-name="ograve" unicode="&#xf2;" 
d="M300 -12q-48 0 -91.5 17t-76.5 49.5t-52.5 80t-19.5 107.5q0 61 19.5 108.5t52.5 80.5t76.5 50t91.5 17t91.5 -17t76.5 -50t52.5 -80.5t19.5 -108.5q0 -60 -19.5 -107.5t-52.5 -80t-76.5 -49.5t-91.5 -17zM300 56q35 0 63.5 13.5t49 38t31.5 58.5t11 76t-11 76.5
t-31.5 59.5t-49 38.5t-63.5 13.5t-63.5 -13.5t-49 -38.5t-31.5 -59.5t-11 -76.5t11 -76t31.5 -58.5t49 -38t63.5 -13.5zM321 568l-157 153l58 56l142 -168z" />
    <glyph glyph-name="oacute" unicode="&#xf3;" 
d="M300 -12q-48 0 -91.5 17t-76.5 49.5t-52.5 80t-19.5 107.5q0 61 19.5 108.5t52.5 80.5t76.5 50t91.5 17t91.5 -17t76.5 -50t52.5 -80.5t19.5 -108.5q0 -60 -19.5 -107.5t-52.5 -80t-76.5 -49.5t-91.5 -17zM300 56q35 0 63.5 13.5t49 38t31.5 58.5t11 76t-11 76.5
t-31.5 59.5t-49 38.5t-63.5 13.5t-63.5 -13.5t-49 -38.5t-31.5 -59.5t-11 -76.5t11 -76t31.5 -58.5t49 -38t63.5 -13.5zM279 568l-43 41l142 168l58 -56z" />
    <glyph glyph-name="ocircumflex" unicode="&#xf4;" 
d="M300 -12q-48 0 -91.5 17t-76.5 49.5t-52.5 80t-19.5 107.5q0 61 19.5 108.5t52.5 80.5t76.5 50t91.5 17t91.5 -17t76.5 -50t52.5 -80.5t19.5 -108.5q0 -60 -19.5 -107.5t-52.5 -80t-76.5 -49.5t-91.5 -17zM300 56q35 0 63.5 13.5t49 38t31.5 58.5t11 76t-11 76.5
t-31.5 59.5t-49 38.5t-63.5 13.5t-63.5 -13.5t-49 -38.5t-31.5 -59.5t-11 -76.5t11 -76t31.5 -58.5t49 -38t63.5 -13.5zM180 568l-35 32l114 140h82l114 -140l-35 -32l-118 113h-4z" />
    <glyph glyph-name="otilde" unicode="&#xf5;" 
d="M300 -12q-48 0 -91.5 17t-76.5 49.5t-52.5 80t-19.5 107.5q0 61 19.5 108.5t52.5 80.5t76.5 50t91.5 17t91.5 -17t76.5 -50t52.5 -80.5t19.5 -108.5q0 -60 -19.5 -107.5t-52.5 -80t-76.5 -49.5t-91.5 -17zM300 56q35 0 63.5 13.5t49 38t31.5 58.5t11 76t-11 76.5
t-31.5 59.5t-49 38.5t-63.5 13.5t-63.5 -13.5t-49 -38.5t-31.5 -59.5t-11 -76.5t11 -76t31.5 -58.5t49 -38t63.5 -13.5zM372 577q-27 0 -46 13t-35 29t-30.5 29t-31.5 13q-23 0 -34 -22t-13 -57l-55 3q1 29 7.5 54t18.5 43t30.5 28.5t44.5 10.5q27 0 46 -13t35 -29t30.5 -29
t32.5 -13q22 0 33 22t13 57l55 -4q-1 -29 -7.5 -53.5t-18.5 -42.5t-30.5 -28.5t-44.5 -10.5z" />
    <glyph glyph-name="odieresis" unicode="&#xf6;" 
d="M300 -12q-48 0 -91.5 17t-76.5 49.5t-52.5 80t-19.5 107.5q0 61 19.5 108.5t52.5 80.5t76.5 50t91.5 17t91.5 -17t76.5 -50t52.5 -80.5t19.5 -108.5q0 -60 -19.5 -107.5t-52.5 -80t-76.5 -49.5t-91.5 -17zM300 56q35 0 63.5 13.5t49 38t31.5 58.5t11 76t-11 76.5
t-31.5 59.5t-49 38.5t-63.5 13.5t-63.5 -13.5t-49 -38.5t-31.5 -59.5t-11 -76.5t11 -76t31.5 -58.5t49 -38t63.5 -13.5zM203 588q-24 0 -39.5 16t-15.5 40q0 23 15.5 39.5t39.5 16.5t39.5 -16.5t15.5 -39.5q0 -24 -15.5 -40t-39.5 -16zM397 588q-24 0 -39.5 16t-15.5 40
q0 23 15.5 39.5t39.5 16.5t39.5 -16.5t15.5 -39.5q0 -24 -15.5 -40t-39.5 -16z" />
    <glyph glyph-name="divide" unicode="&#xf7;" 
d="M300 456q-23 0 -38.5 15t-15.5 39q0 23 15.5 38t38.5 15t38.5 -15t15.5 -38q0 -24 -15.5 -39t-38.5 -15zM300 96q-23 0 -38.5 15t-15.5 39q0 23 15.5 38t38.5 15t38.5 -15t15.5 -38q0 -24 -15.5 -39t-38.5 -15zM85 299v62h430v-62h-430z" />
    <glyph glyph-name="oslash" unicode="&#xf8;" 
d="M300 -12q-79 0 -140 43l-52 -61l-46 42l53 62q-26 32 -40.5 74t-14.5 94q0 61 19.5 108.5t52.5 80.5t76.5 50t91.5 17q79 0 140 -43l52 61l46 -42l-53 -62q26 -32 40.5 -74.5t14.5 -95.5q0 -60 -19.5 -107.5t-52.5 -80t-76.5 -49.5t-91.5 -17zM145 242q0 -60 23 -106
l224 263q-38 33 -92 33q-35 0 -63.5 -14t-49 -39t-31.5 -60t-11 -77zM300 54q35 0 63.5 14t49 38.5t31.5 59t11 76.5q0 63 -23 107l-225 -263q19 -15 42.5 -23.5t50.5 -8.5z" />
    <glyph glyph-name="ugrave" unicode="&#xf9;" 
d="M246 -12q-88 0 -128.5 49.5t-40.5 146.5v302h83v-291q0 -69 25.5 -102.5t86.5 -33.5q42 0 76 21.5t75 68.5v337h82v-486h-67l-7 85h-4q-37 -43 -80.5 -70t-100.5 -27zM317 568l-157 153l58 56l142 -168z" />
    <glyph glyph-name="uacute" unicode="&#xfa;" 
d="M246 -12q-88 0 -128.5 49.5t-40.5 146.5v302h83v-291q0 -69 25.5 -102.5t86.5 -33.5q42 0 76 21.5t75 68.5v337h82v-486h-67l-7 85h-4q-37 -43 -80.5 -70t-100.5 -27zM275 568l-43 41l142 168l58 -56z" />
    <glyph glyph-name="ucircumflex" unicode="&#xfb;" 
d="M246 -12q-88 0 -128.5 49.5t-40.5 146.5v302h83v-291q0 -69 25.5 -102.5t86.5 -33.5q42 0 76 21.5t75 68.5v337h82v-486h-67l-7 85h-4q-37 -43 -80.5 -70t-100.5 -27zM176 568l-35 32l114 140h82l114 -140l-35 -32l-118 113h-4z" />
    <glyph glyph-name="udieresis" unicode="&#xfc;" 
d="M246 -12q-88 0 -128.5 49.5t-40.5 146.5v302h83v-291q0 -69 25.5 -102.5t86.5 -33.5q42 0 76 21.5t75 68.5v337h82v-486h-67l-7 85h-4q-37 -43 -80.5 -70t-100.5 -27zM199 588q-24 0 -39.5 16t-15.5 40q0 23 15.5 39.5t39.5 16.5t39.5 -16.5t15.5 -39.5q0 -24 -15.5 -40
t-39.5 -16zM393 588q-24 0 -39.5 16t-15.5 40q0 23 15.5 39.5t39.5 16.5t39.5 -16.5t15.5 -39.5q0 -24 -15.5 -40t-39.5 -16z" />
    <glyph glyph-name="yacute" unicode="&#xfd;" 
d="M131 -209q-36 0 -64 10l17 65q10 -3 21.5 -5t22.5 -2q51 0 83 29.5t50 74.5l15 36l-227 487h83l119 -269q14 -32 29.5 -69t30.5 -72h4q13 35 26.5 71.5t25.5 69.5l106 269h78l-214 -526q-14 -36 -32 -67t-43 -53.5t-57.5 -35.5t-73.5 -13zM283 568l-43 41l142 168l58 -56
z" />
    <glyph glyph-name="thorn" unicode="&#xfe;" 
d="M93 -205v917h82v-201l-3 -87h3q34 34 76.5 54t85.5 20q49 0 87 -17.5t63.5 -50t39 -78t13.5 -102.5q0 -62 -18.5 -110.5t-49 -82.5t-70.5 -51.5t-83 -17.5q-36 0 -74 17t-70 46h-3l3 -92v-164h-82zM305 57q32 0 59.5 13.5t47.5 38t31.5 60.5t11.5 81q0 80 -32.5 129.5
t-105.5 49.5q-32 0 -68 -17.5t-74 -55.5v-242q35 -31 69.5 -44t60.5 -13z" />
    <glyph glyph-name="ydieresis" unicode="&#xff;" 
d="M131 -209q-36 0 -64 10l17 65q10 -3 21.5 -5t22.5 -2q51 0 83 29.5t50 74.5l15 36l-227 487h83l119 -269q14 -32 29.5 -69t30.5 -72h4q13 35 26.5 71.5t25.5 69.5l106 269h78l-214 -526q-14 -36 -32 -67t-43 -53.5t-57.5 -35.5t-73.5 -13zM207 588q-24 0 -39.5 16
t-15.5 40q0 23 15.5 39.5t39.5 16.5t39.5 -16.5t15.5 -39.5q0 -24 -15.5 -40t-39.5 -16zM401 588q-24 0 -39.5 16t-15.5 40q0 23 15.5 39.5t39.5 16.5t39.5 -16.5t15.5 -39.5q0 -24 -15.5 -40t-39.5 -16z" />
    <glyph glyph-name="Amacron" unicode="&#x100;" 
d="M232 367l-31 -100h196l-31 100q-17 55 -33.5 109.5t-31.5 111.5h-4q-16 -57 -32 -111.5t-33 -109.5zM32 0l221 656h94l221 -656h-88l-62 200h-238l-63 -200h-85zM166 735v57h268v-57h-268z" />
    <glyph glyph-name="amacron" unicode="&#x101;" 
d="M246 -12q-34 0 -64 9.5t-52.5 27t-35.5 43t-13 58.5q0 41 19.5 71.5t62 52.5t109.5 36t161 22q-1 25 -8 47t-22 38.5t-39.5 26.5t-59.5 10q-48 0 -92 -18.5t-78 -39.5l-32 56q18 12 42.5 24.5t52 22.5t58.5 16.5t63 6.5q100 0 148.5 -54.5t48.5 -145.5v-298h-67l-7 66h-3
q-41 -32 -90.5 -55t-101.5 -23zM268 54q42 0 82.5 18.5t82.5 53.5v128q-78 -6 -130.5 -17t-84 -26.5t-44.5 -35t-13 -43.5q0 -21 9 -35.5t23.5 -24t34 -14t40.5 -4.5zM187 601v57h266v-57h-266z" />
    <glyph glyph-name="Abreve" unicode="&#x102;" 
d="M232 367l-31 -100h196l-31 100q-17 55 -33.5 109.5t-31.5 111.5h-4q-16 -57 -32 -111.5t-33 -109.5zM32 0l221 656h94l221 -656h-88l-62 200h-238l-63 -200h-85zM300 705q-35 0 -61 10.5t-44 28t-28 41t-13 49.5l50 8q6 -35 29.5 -59.5t66.5 -24.5t66.5 24.5t29.5 59.5
l50 -8q-3 -26 -13 -49.5t-28 -41t-44 -28t-61 -10.5z" />
    <glyph glyph-name="abreve" unicode="&#x103;" 
d="M246 -12q-34 0 -64 9.5t-52.5 27t-35.5 43t-13 58.5q0 41 19.5 71.5t62 52.5t109.5 36t161 22q-1 25 -8 47t-22 38.5t-39.5 26.5t-59.5 10q-48 0 -92 -18.5t-78 -39.5l-32 56q18 12 42.5 24.5t52 22.5t58.5 16.5t63 6.5q100 0 148.5 -54.5t48.5 -145.5v-298h-67l-7 66h-3
q-41 -32 -90.5 -55t-101.5 -23zM268 54q42 0 82.5 18.5t82.5 53.5v128q-78 -6 -130.5 -17t-84 -26.5t-44.5 -35t-13 -43.5q0 -21 9 -35.5t23.5 -24t34 -14t40.5 -4.5zM320 571q-40 0 -69 13t-47.5 34.5t-28 48.5t-11.5 55l51 8q3 -19 10.5 -37.5t20.5 -33.5t31.5 -24
t42.5 -9t42.5 9t31.5 24t20.5 33.5t10.5 37.5l51 -8q-2 -28 -11.5 -55t-28.5 -48.5t-47.5 -34.5t-68.5 -13z" />
    <glyph glyph-name="Aogonek" unicode="&#x104;" 
d="M515 -225q-44 0 -73.5 22.5t-29.5 68.5q0 23 8 43.5t20.5 37t28 30t30.5 23.5h-19l-62 200h-238l-63 -200h-85l221 656h94l221 -656q-38 -17 -64.5 -48t-26.5 -68q0 -26 16 -38.5t38 -12.5q17 0 29 6.5t21 14.5l26 -43q-17 -15 -40 -25.5t-52 -10.5zM232 367l-31 -100
h196l-31 100q-17 55 -33.5 109.5t-31.5 111.5h-4q-16 -57 -32 -111.5t-33 -109.5z" />
    <glyph glyph-name="aogonek" unicode="&#x105;" 
d="M456 -225q-44 0 -73.5 22.5t-29.5 70.5q0 45 28 79t67 58l-7 61h-3q-41 -32 -90.5 -55t-101.5 -23q-34 0 -64 9.5t-52.5 27t-35.5 43t-13 58.5q0 41 19.5 71.5t62 52.5t109.5 36t161 22q-1 25 -8 47t-22 38.5t-39.5 26.5t-59.5 10q-48 0 -92 -18.5t-78 -39.5l-32 56
q18 12 42.5 24.5t52 22.5t58.5 16.5t63 6.5q100 0 148.5 -54.5t48.5 -145.5v-298q-54 -24 -77.5 -54.5t-23.5 -61.5q0 -29 18 -42t41 -13q17 0 30 6t22 15l24 -39q-17 -17 -40.5 -26.5t-52.5 -9.5zM268 54q42 0 82.5 18.5t82.5 53.5v128q-78 -6 -130.5 -17t-84 -26.5
t-44.5 -35t-13 -43.5q0 -21 9 -35.5t23.5 -24t34 -14t40.5 -4.5z" />
    <glyph glyph-name="Cacute" unicode="&#x106;" 
d="M351 -12q-61 0 -113 23t-90.5 66.5t-60.5 107t-22 143.5q0 79 22 142t61 107t93 67.5t118 23.5q59 0 104.5 -24t74.5 -56l-47 -53q-26 27 -58 43.5t-74 16.5q-47 0 -85.5 -18.5t-65.5 -53t-42 -83.5t-15 -110q0 -62 15 -111.5t42 -84.5t65.5 -54t85.5 -19q45 0 80.5 19
t67.5 54l47 -51q-39 -45 -88 -70t-115 -25zM317 697l-36 42l141 128l47 -55z" />
    <glyph glyph-name="cacute" unicode="&#x107;" 
d="M346 -12q-57 0 -105.5 17t-84.5 49.5t-56 80t-20 107.5q0 61 21.5 108.5t58.5 80.5t86.5 50t104.5 17q60 0 103.5 -21t73.5 -50l-41 -53q-30 26 -62.5 41t-70.5 15q-42 0 -77 -13.5t-59.5 -38.5t-38.5 -59.5t-14 -76.5t13.5 -76t38 -58.5t59 -38t76.5 -13.5
q45 0 82.5 17.5t67.5 43.5l37 -53q-41 -36 -90 -56t-103 -20zM325 568l-43 41l142 168l58 -56z" />
    <glyph glyph-name="Ccircumflex" unicode="&#x108;" 
d="M351 -12q-61 0 -113 23t-90.5 66.5t-60.5 107t-22 143.5q0 79 22 142t61 107t93 67.5t118 23.5q59 0 104.5 -24t74.5 -56l-47 -53q-26 27 -58 43.5t-74 16.5q-47 0 -85.5 -18.5t-65.5 -53t-42 -83.5t-15 -110q0 -62 15 -111.5t42 -84.5t65.5 -54t85.5 -19q45 0 80.5 19
t67.5 54l47 -51q-39 -45 -88 -70t-115 -25zM234 699l-36 26l105 113h86l105 -113l-36 -26l-110 93h-4z" />
    <glyph glyph-name="ccircumflex" unicode="&#x109;" 
d="M346 -12q-57 0 -105.5 17t-84.5 49.5t-56 80t-20 107.5q0 61 21.5 108.5t58.5 80.5t86.5 50t104.5 17q60 0 103.5 -21t73.5 -50l-41 -53q-30 26 -62.5 41t-70.5 15q-42 0 -77 -13.5t-59.5 -38.5t-38.5 -59.5t-14 -76.5t13.5 -76t38 -58.5t59 -38t76.5 -13.5
q45 0 82.5 17.5t67.5 43.5l37 -53q-41 -36 -90 -56t-103 -20zM226 568l-35 32l114 140h82l114 -140l-35 -32l-118 113h-4z" />
    <glyph glyph-name="Cdotaccent" unicode="&#x10a;" 
d="M351 -12q-61 0 -113 23t-90.5 66.5t-60.5 107t-22 143.5q0 79 22 142t61 107t93 67.5t118 23.5q59 0 104.5 -24t74.5 -56l-47 -53q-26 27 -58 43.5t-74 16.5q-47 0 -85.5 -18.5t-65.5 -53t-42 -83.5t-15 -110q0 -62 15 -111.5t42 -84.5t65.5 -54t85.5 -19q45 0 80.5 19
t67.5 54l47 -51q-39 -45 -88 -70t-115 -25zM346 714q-25 0 -42 15.5t-17 41.5q0 25 17 40.5t42 15.5t42 -15.5t17 -40.5q0 -26 -17 -41.5t-42 -15.5z" />
    <glyph glyph-name="cdotaccent" unicode="&#x10b;" 
d="M346 -12q-57 0 -105.5 17t-84.5 49.5t-56 80t-20 107.5q0 61 21.5 108.5t58.5 80.5t86.5 50t104.5 17q60 0 103.5 -21t73.5 -50l-41 -53q-30 26 -62.5 41t-70.5 15q-42 0 -77 -13.5t-59.5 -38.5t-38.5 -59.5t-14 -76.5t13.5 -76t38 -58.5t59 -38t76.5 -13.5
q45 0 82.5 17.5t67.5 43.5l37 -53q-41 -36 -90 -56t-103 -20zM346 588q-28 0 -47 17.5t-19 46.5t19 46.5t47 17.5t47 -17.5t19 -46.5t-19 -46.5t-47 -17.5z" />
    <glyph glyph-name="Ccaron" unicode="&#x10c;" 
d="M351 -12q-61 0 -113 23t-90.5 66.5t-60.5 107t-22 143.5q0 79 22 142t61 107t93 67.5t118 23.5q59 0 104.5 -24t74.5 -56l-47 -53q-26 27 -58 43.5t-74 16.5q-47 0 -85.5 -18.5t-65.5 -53t-42 -83.5t-15 -110q0 -62 15 -111.5t42 -84.5t65.5 -54t85.5 -19q45 0 80.5 19
t67.5 54l47 -51q-39 -45 -88 -70t-115 -25zM303 706l-105 113l36 26l110 -92h4l110 92l36 -26l-105 -113h-86z" />
    <glyph glyph-name="ccaron" unicode="&#x10d;" 
d="M346 -12q-57 0 -105.5 17t-84.5 49.5t-56 80t-20 107.5q0 61 21.5 108.5t58.5 80.5t86.5 50t104.5 17q60 0 103.5 -21t73.5 -50l-41 -53q-30 26 -62.5 41t-70.5 15q-42 0 -77 -13.5t-59.5 -38.5t-38.5 -59.5t-14 -76.5t13.5 -76t38 -58.5t59 -38t76.5 -13.5
q45 0 82.5 17.5t67.5 43.5l37 -53q-41 -36 -90 -56t-103 -20zM305 574l-114 140l35 32l118 -113h4l118 113l35 -32l-114 -140h-82z" />
    <glyph glyph-name="Dcaron" unicode="&#x10e;" 
d="M87 0v656h162q149 0 226.5 -84t77.5 -241t-77.5 -244t-222.5 -87h-166zM170 68h73q113 0 168.5 69t55.5 194t-55.5 191t-168.5 66h-73v-520zM257 706l-105 113l36 26l110 -92h4l110 92l36 -26l-105 -113h-86z" />
    <glyph glyph-name="dcaron" unicode="&#x10f;" 
d="M254 -12q-45 0 -82 17t-63 49.5t-40.5 79.5t-14.5 108q0 59 17.5 106.5t46.5 80.5t67 51t79 18q42 0 74 -17t64 -46h3l-5 90v187h79v-712h-64l-7 64h-3q-29 -30 -68 -53t-83 -23zM271 57q65 0 129 73v242q-32 30 -61 43.5t-59 13.5t-56.5 -13.5t-46 -38t-31 -58.5
t-11.5 -76q0 -88 36 -137t100 -49zM548 548l-3 268h74v-81l-14 -187h-57z" />
    <glyph glyph-name="Dcroat" unicode="&#x110;" 
d="M87 0v314h-75v56l75 6v280h162q149 0 226.5 -84t77.5 -241t-77.5 -244t-222.5 -87h-166zM170 68h73q112 0 167.5 69t55.5 194t-55.5 191t-167.5 66h-73v-212h144v-62h-144v-246z" />
    <glyph glyph-name="dcroat" unicode="&#x111;" 
d="M271 -12q-48 0 -86.5 16t-66.5 47.5t-43 76.5t-15 104q0 57 18.5 102.5t49 77.5t70.5 49t83 17q45 0 79 -17t66 -46h3l-4 90v57h-175v64h175v86h82v-86h73v-58l-73 -6v-562h-68l-7 64h-3q-30 -31 -71.5 -53.5t-86.5 -22.5zM288 57q72 0 137 73v222q-33 31 -64.5 44
t-62.5 13q-32 0 -60 -13t-48.5 -36t-32.5 -55.5t-12 -71.5q0 -83 37.5 -129.5t105.5 -46.5z" />
    <glyph glyph-name="Emacron" unicode="&#x112;" 
d="M114 0v656h406v-70h-322v-206h272v-71h-272v-238h332v-71h-416zM197 735v57h268v-57h-268z" />
    <glyph glyph-name="emacron" unicode="&#x113;" 
d="M330 -12q-55 0 -102.5 17t-83 50t-56 80.5t-20.5 108.5q0 59 20.5 106t55 80t79 50.5t93.5 17.5q52 0 93.5 -16.5t70 -46.5t43.5 -72t15 -93q0 -14 -1 -27t-3 -23h-383q8 -83 60.5 -124.5t128.5 -41.5q44 0 79.5 12.5t68.5 33.5l30 -54q-36 -24 -82.5 -41t-105.5 -17z
M318 433q-30 0 -57.5 -10t-49.5 -28.5t-37 -46.5t-21 -64h310q-5 75 -43.5 112t-101.5 37zM183 601v57h266v-57h-266z" />
    <glyph glyph-name="Ebreve" unicode="&#x114;" 
d="M114 0v656h406v-70h-322v-206h272v-71h-272v-238h332v-71h-416zM331 705q-35 0 -61 10.5t-44 28t-28 41t-13 49.5l50 8q6 -35 29.5 -59.5t66.5 -24.5t66.5 24.5t29.5 59.5l50 -8q-3 -26 -13 -49.5t-28 -41t-44 -28t-61 -10.5z" />
    <glyph glyph-name="ebreve" unicode="&#x115;" 
d="M330 -12q-55 0 -102.5 17t-83 50t-56 80.5t-20.5 108.5q0 59 20.5 106t55 80t79 50.5t93.5 17.5q52 0 93.5 -16.5t70 -46.5t43.5 -72t15 -93q0 -14 -1 -27t-3 -23h-383q8 -83 60.5 -124.5t128.5 -41.5q44 0 79.5 12.5t68.5 33.5l30 -54q-36 -24 -82.5 -41t-105.5 -17z
M318 433q-30 0 -57.5 -10t-49.5 -28.5t-37 -46.5t-21 -64h310q-5 75 -43.5 112t-101.5 37zM316 571q-40 0 -69 13t-47.5 34.5t-28 48.5t-11.5 55l51 8q3 -19 10.5 -37.5t20.5 -33.5t31.5 -24t42.5 -9t42.5 9t31.5 24t20.5 33.5t10.5 37.5l51 -8q-2 -28 -11.5 -55
t-28.5 -48.5t-47.5 -34.5t-68.5 -13z" />
    <glyph glyph-name="Edotaccent" unicode="&#x116;" 
d="M114 0v656h406v-70h-322v-206h272v-71h-272v-238h332v-71h-416zM331 714q-25 0 -42 15.5t-17 41.5q0 25 17 40.5t42 15.5t42 -15.5t17 -40.5q0 -26 -17 -41.5t-42 -15.5z" />
    <glyph glyph-name="edotaccent" unicode="&#x117;" 
d="M330 -12q-55 0 -102.5 17t-83 50t-56 80.5t-20.5 108.5q0 59 20.5 106t55 80t79 50.5t93.5 17.5q52 0 93.5 -16.5t70 -46.5t43.5 -72t15 -93q0 -14 -1 -27t-3 -23h-383q8 -83 60.5 -124.5t128.5 -41.5q44 0 79.5 12.5t68.5 33.5l30 -54q-36 -24 -82.5 -41t-105.5 -17z
M318 433q-30 0 -57.5 -10t-49.5 -28.5t-37 -46.5t-21 -64h310q-5 75 -43.5 112t-101.5 37zM316 588q-28 0 -47 17.5t-19 46.5t19 46.5t47 17.5t47 -17.5t19 -46.5t-19 -46.5t-47 -17.5z" />
    <glyph glyph-name="Eogonek" unicode="&#x118;" 
d="M462 -225q-45 0 -74 22.5t-29 68.5q0 45 26.5 79.5t59.5 54.5h-330v656h405v-70h-321v-206h271v-71h-271v-238h331v-71h-4q-19 -3 -37.5 -14t-33 -27t-23.5 -35.5t-9 -39.5q0 -26 17 -38.5t38 -12.5q16 0 28 6.5t22 14.5l25 -43q-17 -15 -39.5 -25.5t-51.5 -10.5z" />
    <glyph glyph-name="eogonek" unicode="&#x119;" 
d="M422 -225q-45 0 -74 22.5t-29 70.5q0 40 21.5 71t54.5 60q-26 -9 -41.5 -10t-23.5 -1q-55 0 -102.5 17t-83 50t-56 80t-20.5 107t20.5 107.5t55 80.5t79 50.5t93.5 17.5q52 0 93.5 -16.5t70 -46.5t43.5 -72t15 -93q0 -14 -1 -27t-3 -23h-383q8 -83 60.5 -124.5
t128.5 -41.5q44 0 79.5 12.5t68.5 33.5l30 -54q-38 -27 -64.5 -48.5t-43 -40t-23.5 -36.5t-7 -37q0 -28 18 -41.5t41 -13.5q17 0 30 6t23 15l24 -39q-18 -17 -41.5 -26.5t-52.5 -9.5zM318 433q-30 0 -57.5 -10t-49.5 -28.5t-37 -46.5t-21 -64h310q-5 75 -43.5 112t-101.5 37
z" />
    <glyph glyph-name="Ecaron" unicode="&#x11a;" 
d="M114 0v656h406v-70h-322v-206h272v-71h-272v-238h332v-71h-416zM288 706l-105 113l36 26l110 -92h4l110 92l36 -26l-105 -113h-86z" />
    <glyph glyph-name="ecaron" unicode="&#x11b;" 
d="M330 -12q-55 0 -102.5 17t-83 50t-56 80.5t-20.5 108.5q0 59 20.5 106t55 80t79 50.5t93.5 17.5q52 0 93.5 -16.5t70 -46.5t43.5 -72t15 -93q0 -14 -1 -27t-3 -23h-383q8 -83 60.5 -124.5t128.5 -41.5q44 0 79.5 12.5t68.5 33.5l30 -54q-36 -24 -82.5 -41t-105.5 -17z
M318 433q-30 0 -57.5 -10t-49.5 -28.5t-37 -46.5t-21 -64h310q-5 75 -43.5 112t-101.5 37zM275 574l-114 140l35 32l118 -113h4l118 113l35 -32l-114 -140h-82z" />
    <glyph glyph-name="Gcircumflex" unicode="&#x11c;" 
d="M337 -12q-62 0 -114 23t-90 66.5t-59 107t-21 143.5q0 79 21.5 142.5t60 107t92 67t117.5 23.5q33 0 60 -7t49.5 -18.5t40 -25.5t31.5 -29l-47 -53q-24 26 -55 43t-79 17q-46 0 -83.5 -18.5t-64.5 -53t-41.5 -83.5t-14.5 -110q0 -62 13.5 -111.5t39 -84.5t63.5 -54
t86 -19q35 0 65 10.5t49 28.5v171h-131v69h208v-276q-31 -32 -81.5 -54t-114.5 -22zM218 699l-36 26l105 113h86l105 -113l-36 -26l-110 93h-4z" />
    <glyph glyph-name="gcircumflex" unicode="&#x11d;" 
d="M296 -224q-107 0 -165.5 35t-58.5 100q0 29 20.5 57t59.5 51v4q-20 11 -35 30t-15 50q0 23 15 47.5t43 43.5v4q-25 19 -42.5 50.5t-17.5 75.5q0 40 15.5 72t41.5 54.5t60.5 35t73.5 12.5q40 0 72 -12h201v-67h-126q17 -17 29 -43t12 -55q0 -39 -14.5 -70t-40 -52.5
t-60 -33t-73.5 -11.5q-19 0 -40.5 4.5t-41.5 13.5q-38 -24 -38 -56q0 -29 26.5 -42.5t74.5 -13.5h109q94 0 139.5 -26t45.5 -88q0 -34 -19 -65t-54 -54t-85 -37t-112 -14zM291 209q47 0 79.5 31t32.5 84q0 25 -9 46t-24 36t-35.5 23.5t-43.5 8.5t-43.5 -8.5t-35.5 -23.5
t-24 -36t-9 -46q0 -53 33 -84t79 -31zM302 -164q42 0 76 8t58 21.5t36.5 31t12.5 36.5q0 35 -27.5 47t-83.5 12h-95q-21 0 -39.5 1.5t-34.5 6.5q-35 -19 -48.5 -39.5t-13.5 -41.5q0 -38 40.5 -60.5t118.5 -22.5zM187 568l-35 32l114 140h82l114 -140l-35 -32l-118 113h-4z
" />
    <glyph glyph-name="Gbreve" unicode="&#x11e;" 
d="M337 -12q-62 0 -114 23t-90 66.5t-59 107t-21 143.5q0 79 21.5 142.5t60 107t92 67t117.5 23.5q33 0 60 -7t49.5 -18.5t40 -25.5t31.5 -29l-47 -53q-24 26 -55 43t-79 17q-46 0 -83.5 -18.5t-64.5 -53t-41.5 -83.5t-14.5 -110q0 -62 13.5 -111.5t39 -84.5t63.5 -54
t86 -19q35 0 65 10.5t49 28.5v171h-131v69h208v-276q-31 -32 -81.5 -54t-114.5 -22zM330 705q-35 0 -61 10.5t-44 28t-28 41t-13 49.5l50 8q6 -35 29.5 -59.5t66.5 -24.5t66.5 24.5t29.5 59.5l50 -8q-3 -26 -13 -49.5t-28 -41t-44 -28t-61 -10.5z" />
    <glyph glyph-name="gbreve" unicode="&#x11f;" 
d="M296 -224q-107 0 -165.5 35t-58.5 100q0 29 20.5 57t59.5 51v4q-20 11 -35 30t-15 50q0 23 15 47.5t43 43.5v4q-25 19 -42.5 50.5t-17.5 75.5q0 40 15.5 72t41.5 54.5t60.5 35t73.5 12.5q40 0 72 -12h201v-67h-126q17 -17 29 -43t12 -55q0 -39 -14.5 -70t-40 -52.5
t-60 -33t-73.5 -11.5q-19 0 -40.5 4.5t-41.5 13.5q-38 -24 -38 -56q0 -29 26.5 -42.5t74.5 -13.5h109q94 0 139.5 -26t45.5 -88q0 -34 -19 -65t-54 -54t-85 -37t-112 -14zM291 209q47 0 79.5 31t32.5 84q0 25 -9 46t-24 36t-35.5 23.5t-43.5 8.5t-43.5 -8.5t-35.5 -23.5
t-24 -36t-9 -46q0 -53 33 -84t79 -31zM302 -164q42 0 76 8t58 21.5t36.5 31t12.5 36.5q0 35 -27.5 47t-83.5 12h-95q-21 0 -39.5 1.5t-34.5 6.5q-35 -19 -48.5 -39.5t-13.5 -41.5q0 -38 40.5 -60.5t118.5 -22.5zM307 571q-40 0 -69 13t-47.5 34.5t-28 48.5t-11.5 55l51 8
q3 -19 10.5 -37.5t20.5 -33.5t31.5 -24t42.5 -9t42.5 9t31.5 24t20.5 33.5t10.5 37.5l51 -8q-2 -28 -11.5 -55t-28.5 -48.5t-47.5 -34.5t-68.5 -13z" />
    <glyph glyph-name="Gdotaccent" unicode="&#x120;" 
d="M337 -12q-62 0 -114 23t-90 66.5t-59 107t-21 143.5q0 79 21.5 142.5t60 107t92 67t117.5 23.5q33 0 60 -7t49.5 -18.5t40 -25.5t31.5 -29l-47 -53q-24 26 -55 43t-79 17q-46 0 -83.5 -18.5t-64.5 -53t-41.5 -83.5t-14.5 -110q0 -62 13.5 -111.5t39 -84.5t63.5 -54
t86 -19q35 0 65 10.5t49 28.5v171h-131v69h208v-276q-31 -32 -81.5 -54t-114.5 -22zM330 714q-25 0 -42 15.5t-17 41.5q0 25 17 40.5t42 15.5t42 -15.5t17 -40.5q0 -26 -17 -41.5t-42 -15.5z" />
    <glyph glyph-name="gdotaccent" unicode="&#x121;" 
d="M296 -224q-107 0 -165.5 35t-58.5 100q0 29 20.5 57t59.5 51v4q-20 11 -35 30t-15 50q0 23 15 47.5t43 43.5v4q-25 19 -42.5 50.5t-17.5 75.5q0 40 15.5 72t41.5 54.5t60.5 35t73.5 12.5q40 0 72 -12h201v-67h-126q17 -17 29 -43t12 -55q0 -39 -14.5 -70t-40 -52.5
t-60 -33t-73.5 -11.5q-19 0 -40.5 4.5t-41.5 13.5q-38 -24 -38 -56q0 -29 26.5 -42.5t74.5 -13.5h109q94 0 139.5 -26t45.5 -88q0 -34 -19 -65t-54 -54t-85 -37t-112 -14zM291 209q47 0 79.5 31t32.5 84q0 25 -9 46t-24 36t-35.5 23.5t-43.5 8.5t-43.5 -8.5t-35.5 -23.5
t-24 -36t-9 -46q0 -53 33 -84t79 -31zM302 -164q42 0 76 8t58 21.5t36.5 31t12.5 36.5q0 35 -27.5 47t-83.5 12h-95q-21 0 -39.5 1.5t-34.5 6.5q-35 -19 -48.5 -39.5t-13.5 -41.5q0 -38 40.5 -60.5t118.5 -22.5zM307 588q-28 0 -47 17.5t-19 46.5t19 46.5t47 17.5t47 -17.5
t19 -46.5t-19 -46.5t-47 -17.5z" />
    <glyph glyph-name="uni0122" unicode="&#x122;" 
d="M337 -12q-62 0 -114 23t-90 66.5t-59 107t-21 143.5q0 79 21.5 142.5t60 107t92 67t117.5 23.5q33 0 60 -7t49.5 -18.5t40 -25.5t31.5 -29l-47 -53q-24 26 -55 43t-79 17q-46 0 -83.5 -18.5t-64.5 -53t-41.5 -83.5t-14.5 -110q0 -62 13.5 -111.5t39 -84.5t63.5 -54
t86 -19q35 0 65 10.5t49 28.5v171h-131v69h208v-276q-31 -32 -81.5 -54t-114.5 -22zM243 -226l-8 40q63 5 86 16.5t23 31.5t-18 29.5t-53 12.5l18 38q65 -8 91 -25.5t26 -51.5q0 -44 -42.5 -65.5t-122.5 -25.5z" />
    <glyph glyph-name="uni0123" unicode="&#x123;" 
d="M296 -224q-107 0 -165.5 35t-58.5 100q0 29 20.5 57t59.5 51v4q-20 11 -35 30t-15 50q0 23 15 47.5t43 43.5v4q-25 19 -42.5 50.5t-17.5 75.5q0 40 15.5 72t41.5 54.5t60.5 35t73.5 12.5q40 0 72 -12h201v-67h-126q17 -17 29 -43t12 -55q0 -39 -14.5 -70t-40 -52.5
t-60 -33t-73.5 -11.5q-19 0 -40.5 4.5t-41.5 13.5q-38 -24 -38 -56q0 -29 26.5 -42.5t74.5 -13.5h109q94 0 139.5 -26t45.5 -88q0 -34 -19 -65t-54 -54t-85 -37t-112 -14zM291 209q47 0 79.5 31t32.5 84q0 25 -9 46t-24 36t-35.5 23.5t-43.5 8.5t-43.5 -8.5t-35.5 -23.5
t-24 -36t-9 -46q0 -53 33 -84t79 -31zM302 -164q42 0 76 8t58 21.5t36.5 31t12.5 36.5q0 35 -27.5 47t-83.5 12h-95q-21 0 -39.5 1.5t-34.5 6.5q-35 -19 -48.5 -39.5t-13.5 -41.5q0 -38 40.5 -60.5t118.5 -22.5zM346 575q-65 7 -91 25t-26 52q0 44 42.5 65.5t122.5 26.5
l8 -41q-63 -4 -86 -15.5t-23 -32.5q0 -20 18 -29.5t53 -12.5z" />
    <glyph glyph-name="Hcircumflex" unicode="&#x124;" 
d="M79 0v656h84v-275h274v275h84v-656h-84v309h-274v-309h-84zM188 699l-36 26l105 113h86l105 -113l-36 -26l-110 93h-4z" />
    <glyph glyph-name="hcircumflex" unicode="&#x125;" 
d="M93 0v712h82v-194l-5 -115h3q38 41 81.5 68t100.5 27q87 0 127.5 -49.5t40.5 -146.5v-302h-82v291q0 69 -26 102.5t-86 33.5q-22 0 -40.5 -5.5t-36.5 -16.5t-37 -27.5t-40 -38.5v-339h-82zM20 759l-36 26l105 113h86l105 -113l-36 -26l-110 93h-4z" />
    <glyph glyph-name="Hbar" unicode="&#x126;" 
d="M10 484v56l69 6v110h84v-110h274v110h84v-110h69v-62h-69v-484h-84v309h-274v-309h-84v484h-69zM163 381h274v103h-274v-103z" />
    <glyph glyph-name="hbar" unicode="&#x127;" 
d="M93 0v562h-73v58l73 6v86h82v-86h213v-64h-213v-64l-5 -115h3q38 41 81.5 68t100.5 27q87 0 127.5 -49.5t40.5 -146.5v-282h-82v271q0 69 -26 102.5t-86 33.5q-22 0 -40.5 -5.5t-36.5 -16.5t-37 -27.5t-40 -38.5v-319h-82z" />
    <glyph glyph-name="Itilde" unicode="&#x128;" 
d="M95 0v71h163v515h-163v70h410v-70h-163v-515h163v-71h-410zM375 709q-28 0 -48 11t-36.5 24.5t-31 24.5t-32.5 11q-19 0 -32 -17t-16 -49l-56 4q3 57 30 90t72 33q28 0 48 -11t36.5 -24.5t31 -24.5t32.5 -11q40 0 48 66l56 -4q-3 -58 -30 -90.5t-72 -32.5z" />
    <glyph glyph-name="itilde" unicode="&#x129;" 
d="M316 0v419h-226v67h308v-486h-82zM420 577q-27 0 -46 13t-35 29t-30.5 29t-31.5 13q-23 0 -34 -22t-13 -57l-55 3q1 29 7.5 54t18.5 43t30.5 28.5t44.5 10.5q27 0 46 -13t35 -29t30.5 -29t32.5 -13q22 0 33 22t13 57l55 -4q-1 -29 -7.5 -53.5t-18.5 -42.5t-30.5 -28.5
t-44.5 -10.5z" />
    <glyph glyph-name="Imacron" unicode="&#x12a;" 
d="M95 0v71h163v515h-163v70h410v-70h-163v-515h163v-71h-410zM166 735v57h268v-57h-268z" />
    <glyph glyph-name="imacron" unicode="&#x12b;" 
d="M316 0v419h-226v67h308v-486h-82zM215 601v57h266v-57h-266z" />
    <glyph glyph-name="Ibreve" unicode="&#x12c;" 
d="M95 0v71h163v515h-163v70h410v-70h-163v-515h163v-71h-410zM300 705q-35 0 -61 10.5t-44 28t-28 41t-13 49.5l50 8q6 -35 29.5 -59.5t66.5 -24.5t66.5 24.5t29.5 59.5l50 -8q-3 -26 -13 -49.5t-28 -41t-44 -28t-61 -10.5z" />
    <glyph glyph-name="ibreve" unicode="&#x12d;" 
d="M316 0v419h-226v67h308v-486h-82zM348 571q-40 0 -69 13t-47.5 34.5t-28 48.5t-11.5 55l51 8q3 -19 10.5 -37.5t20.5 -33.5t31.5 -24t42.5 -9t42.5 9t31.5 24t20.5 33.5t10.5 37.5l51 -8q-2 -28 -11.5 -55t-28.5 -48.5t-47.5 -34.5t-68.5 -13z" />
    <glyph glyph-name="Iogonek" unicode="&#x12e;" 
d="M311 -225q-44 0 -73.5 22.5t-29.5 68.5q0 42 23 76t48 58h-184v71h163v515h-163v70h410v-70h-163v-515h163v-71h-158q-38 -29 -56 -58.5t-18 -57.5q0 -26 17 -38.5t37 -12.5q17 0 29 6.5t21 14.5l25 -43q-17 -15 -39.5 -25.5t-51.5 -10.5z" />
    <glyph glyph-name="iogonek" unicode="&#x12f;" 
d="M353 -225q-45 0 -74.5 22.5t-29.5 70.5q0 42 25.5 75t60.5 57h-19v419h-226v67h308v-491q-45 -22 -66.5 -51.5t-21.5 -59.5q0 -28 18 -41.5t42 -13.5q16 0 28.5 6t23.5 15l24 -39q-18 -17 -41.5 -26.5t-51.5 -9.5zM348 588q-28 0 -47 17.5t-19 46.5t19 46.5t47 17.5
t47 -17.5t19 -46.5t-19 -46.5t-47 -17.5z" />
    <glyph glyph-name="Idotaccent" unicode="&#x130;" 
d="M95 0v71h163v515h-163v70h410v-70h-163v-515h163v-71h-410zM300 714q-25 0 -42 15.5t-17 41.5q0 25 17 40.5t42 15.5t42 -15.5t17 -40.5q0 -26 -17 -41.5t-42 -15.5z" />
    <glyph glyph-name="dotlessi" unicode="&#x131;" 
d="M316 0v419h-226v67h308v-486h-82z" />
    <glyph glyph-name="IJ" unicode="&#x132;" 
d="M112 0v656h83v-656h-83zM351 -165q-23 0 -41.5 4t-32.5 9l16 66q11 -4 23.5 -7t25.5 -3q38 0 50.5 25.5t12.5 70.5v656h83v-659q0 -74 -31.5 -118t-105.5 -44z" />
    <glyph glyph-name="ij" unicode="&#x133;" 
d="M112 0v486h82v-486h-82zM154 586q-26 0 -43.5 16t-17.5 42t17.5 42t43.5 16t43 -16t17 -42t-17 -42t-43 -16zM371 -217q-23 0 -40.5 4t-30.5 9l16 62q10 -3 21.5 -5.5t24.5 -2.5q37 0 48.5 25t11.5 70v541h82v-541q0 -74 -30 -118t-103 -44zM464 586q-26 0 -43.5 16
t-17.5 42t17.5 42t43.5 16t43 -16t17 -42t-17 -42t-43 -16z" />
    <glyph glyph-name="Jcircumflex" unicode="&#x134;" 
d="M276 -12q-55 0 -108 26t-87 83l52 51q28 -45 65.5 -66t75.5 -21q71 0 103.5 37.5t32.5 118.5v370h-275v70h358v-447q0 -46 -11 -86.5t-36.5 -70.5t-67 -47.5t-102.5 -17.5zM212 699l-36 26l105 113h86l105 -113l-36 -26l-110 93h-4z" />
    <glyph glyph-name="jcircumflex" unicode="&#x135;" 
d="M194 -217q-38 0 -74 9.5t-65 23.5l27 61q26 -13 54.5 -20t56.5 -7q36 0 60 9t38 26t19.5 41.5t5.5 55.5v437h-226v67h308v-498q0 -45 -10 -82.5t-33.5 -65t-62.5 -42.5t-98 -15zM228 568l-35 32l114 140h82l114 -140l-35 -32l-118 113h-4z" />
    <glyph glyph-name="uni0136" unicode="&#x136;" 
d="M98 0v656h84v-329h3l276 329h95l-208 -249l232 -407h-94l-191 344l-113 -135v-209h-84zM251 -226l-8 40q63 5 86 16.5t23 31.5t-18 29.5t-53 12.5l18 38q65 -8 91 -25.5t26 -51.5q0 -44 -42.5 -65.5t-122.5 -25.5z" />
    <glyph glyph-name="uni0137" unicode="&#x137;" 
d="M106 0v712h82v-482h4l262 256h94l-194 -191l220 -295h-92l-179 245l-115 -113v-132h-82zM248 -226l-8 40q63 5 86 16.5t23 31.5t-18 29.5t-53 12.5l18 38q65 -8 91 -25.5t26 -51.5q0 -44 -42.5 -65.5t-122.5 -25.5z" />
    <glyph glyph-name="kgreenlandic" unicode="&#x138;" 
d="M106 0v486h82v-256l3 1l263 255h94l-194 -193l220 -293h-92l-179 240l-115 -110v-130h-82z" />
    <glyph glyph-name="Lacute" unicode="&#x139;" 
d="M134 0v656h82v-585h325v-71h-407zM161 697l-36 42l141 128l47 -55z" />
    <glyph glyph-name="lacute" unicode="&#x13a;" 
d="M407 -12q-78 0 -119 44t-41 131v482h-173v67h255v-555q0 -54 26 -77.5t70 -23.5q43 0 91 22l21 -61q-34 -14 -62 -21.5t-68 -7.5zM257 757l-36 42l141 128l47 -55z" />
    <glyph glyph-name="uni013B" unicode="&#x13b;" 
d="M134 0v656h82v-585h325v-71h-407zM262 -226l-8 40q63 5 86 16.5t23 31.5t-18 29.5t-53 12.5l18 38q65 -8 91 -25.5t26 -51.5q0 -44 -42.5 -65.5t-122.5 -25.5z" />
    <glyph glyph-name="uni013C" unicode="&#x13c;" 
d="M407 -12q-78 0 -119 44t-41 131v482h-173v67h255v-555q0 -54 26 -77.5t70 -23.5q43 0 91 22l21 -61q-34 -14 -62 -21.5t-68 -7.5zM298 -226l-8 40q63 5 86 16.5t23 31.5t-18 29.5t-53 12.5l18 38q65 -8 91 -25.5t26 -51.5q0 -44 -42.5 -65.5t-122.5 -25.5z" />
    <glyph glyph-name="Lcaron" unicode="&#x13d;" 
d="M134 0v656h82v-585h325v-71h-407zM382 515l-3 268h74v-81l-14 -187h-57z" />
    <glyph glyph-name="lcaron" unicode="&#x13e;" 
d="M407 -12q-78 0 -119 44t-41 131v482h-173v67h255v-555q0 -54 26 -77.5t70 -23.5q43 0 91 22l21 -61q-34 -14 -62 -21.5t-68 -7.5zM404 548l-3 268h74v-81l-14 -187h-57z" />
    <glyph glyph-name="Ldot" unicode="&#x13f;" 
d="M134 0v656h82v-585h325v-71h-407zM467 287q-28 0 -47 17.5t-19 46.5t19 46.5t47 17.5t47 -17.5t19 -46.5t-19 -46.5t-47 -17.5z" />
    <glyph glyph-name="ldot" unicode="&#x140;" 
d="M369 -12q-78 0 -119 44t-41 131v482h-173v67h255v-555q0 -54 26 -77.5t70 -23.5q43 0 91 22l21 -61q-34 -14 -62 -21.5t-68 -7.5zM569 286q-28 0 -47 17.5t-19 46.5t19 46.5t47 17.5t47 -17.5t19 -46.5t-19 -46.5t-47 -17.5z" />
    <glyph glyph-name="Lslash" unicode="&#x141;" 
d="M39 181l-29 53l124 66v356h82v-319l211 113l29 -53l-240 -128v-198h325v-71h-407v233z" />
    <glyph glyph-name="lslash" unicode="&#x142;" 
d="M407 -12q-78 0 -119 44t-41 131v172l-108 -64l-29 54l137 80v240h-173v67h255v-269l148 84l28 -54l-176 -100v-216q0 -54 26 -77.5t70 -23.5q43 0 91 22l21 -61q-34 -14 -62 -21.5t-68 -7.5z" />
    <glyph glyph-name="Nacute" unicode="&#x143;" 
d="M82 0v656h92l210 -412l63 -136h2q-2 49 -6.5 102.5t-4.5 105.5v340h80v-656h-92l-210 412l-63 136h-2q2 -51 6.5 -102.5t4.5 -102.5v-343h-80zM281 697l-36 42l141 128l47 -55z" />
    <glyph glyph-name="nacute" unicode="&#x144;" 
d="M93 0v486h68l7 -83h4q38 41 82 68t101 27q87 0 127.5 -49.5t40.5 -146.5v-302h-82v291q0 69 -26 102.5t-86 33.5q-22 0 -40.5 -5.5t-36.5 -16.5t-37 -27.5t-40 -38.5v-339h-82zM297 568l-43 41l142 168l58 -56z" />
    <glyph glyph-name="uni0145" unicode="&#x145;" 
d="M82 0v656h92l210 -412l63 -136h2q-2 49 -6.5 102.5t-4.5 105.5v340h80v-656h-92l-210 412l-63 136h-2q2 -51 6.5 -102.5t4.5 -102.5v-343h-80zM213 -226l-8 40q63 5 86 16.5t23 31.5t-18 29.5t-53 12.5l18 38q65 -8 91 -25.5t26 -51.5q0 -44 -42.5 -65.5t-122.5 -25.5z
" />
    <glyph glyph-name="uni0146" unicode="&#x146;" 
d="M93 0v486h68l7 -83h4q38 41 82 68t101 27q87 0 127.5 -49.5t40.5 -146.5v-302h-82v291q0 69 -26 102.5t-86 33.5q-22 0 -40.5 -5.5t-36.5 -16.5t-37 -27.5t-40 -38.5v-339h-82zM226 -226l-8 40q63 5 86 16.5t23 31.5t-18 29.5t-53 12.5l18 38q65 -8 91 -25.5t26 -51.5
q0 -44 -42.5 -65.5t-122.5 -25.5z" />
    <glyph glyph-name="Ncaron" unicode="&#x147;" 
d="M82 0v656h92l210 -412l63 -136h2q-2 49 -6.5 102.5t-4.5 105.5v340h80v-656h-92l-210 412l-63 136h-2q2 -51 6.5 -102.5t4.5 -102.5v-343h-80zM267 706l-105 113l36 26l110 -92h4l110 92l36 -26l-105 -113h-86z" />
    <glyph glyph-name="ncaron" unicode="&#x148;" 
d="M93 0v486h68l7 -83h4q38 41 82 68t101 27q87 0 127.5 -49.5t40.5 -146.5v-302h-82v291q0 69 -26 102.5t-86 33.5q-22 0 -40.5 -5.5t-36.5 -16.5t-37 -27.5t-40 -38.5v-339h-82zM277 574l-114 140l35 32l118 -113h4l118 113l35 -32l-114 -140h-82z" />
    <glyph glyph-name="napostrophe" unicode="&#x149;" 
d="M196 0v486h68l7 -76h4q35 37 75 62.5t93 25.5q79 0 117 -48t38 -142v-308h-83v297q0 66 -23 98t-75 32q-39 0 -69.5 -20.5t-69.5 -60.5v-346h-82zM6 350l-28 48q47 26 74 65.5t30 92.5q-12 -6 -26 -6q-32 0 -51.5 19.5t-19.5 51.5q0 35 21 56.5t53 21.5q40 0 65 -32
t25 -89q0 -75 -38 -134t-105 -94z" />
    <glyph glyph-name="Eng" unicode="&#x14a;" 
d="M378 -12q-19 0 -40 3.5t-35 10.5l21 75q9 -5 20 -7.5t25 -2.5q20 0 37.5 12.5t30 43.5t19.5 82.5t7 129.5q0 74 -10.5 124t-30 80t-47 43t-60.5 13q-37 0 -78 -27t-69 -67v-501h-83v656h81v-77q32 37 75.5 63t91.5 26q46 0 86 -17.5t68.5 -57t45 -103t16.5 -155.5
q0 -95 -11.5 -161t-33.5 -107t-54 -60t-72 -19z" />
    <glyph glyph-name="eng" unicode="&#x14b;" 
d="M387 -183q-23 0 -42.5 4.5t-33.5 9.5l16 63q11 -4 24 -7t27 -3q38 0 50.5 27t12.5 75v305q0 69 -26 102.5t-86 33.5q-22 0 -40.5 -5.5t-36.5 -16.5t-37 -27.5t-40 -38.5v-339h-82v486h68l7 -83h4q38 41 82 68t101 27q87 0 127.5 -49.5t40.5 -146.5v-316
q0 -78 -31.5 -123.5t-104.5 -45.5z" />
    <glyph glyph-name="Omacron" unicode="&#x14c;" 
d="M300 -12q-56 0 -102 23.5t-79.5 67.5t-52 107.5t-18.5 144.5q0 79 18.5 142t52 106t79.5 66t102 23q55 0 101.5 -23t80 -66t52 -106t18.5 -142q0 -81 -18.5 -144.5t-52 -107.5t-80 -67.5t-101.5 -23.5zM300 61q37 0 68 18.5t52.5 53.5t33.5 85t12 113q0 62 -12 111
t-33.5 83t-52.5 52t-68 18q-38 0 -68.5 -18t-52 -52t-33.5 -83t-12 -111q0 -63 12 -113t33.5 -85t52 -53.5t68.5 -18.5zM166 735v57h268v-57h-268z" />
    <glyph glyph-name="omacron" unicode="&#x14d;" 
d="M300 -12q-48 0 -91.5 17t-76.5 49.5t-52.5 80t-19.5 107.5q0 61 19.5 108.5t52.5 80.5t76.5 50t91.5 17t91.5 -17t76.5 -50t52.5 -80.5t19.5 -108.5q0 -60 -19.5 -107.5t-52.5 -80t-76.5 -49.5t-91.5 -17zM300 56q35 0 63.5 13.5t49 38t31.5 58.5t11 76t-11 76.5
t-31.5 59.5t-49 38.5t-63.5 13.5t-63.5 -13.5t-49 -38.5t-31.5 -59.5t-11 -76.5t11 -76t31.5 -58.5t49 -38t63.5 -13.5zM167 601v57h266v-57h-266z" />
    <glyph glyph-name="Obreve" unicode="&#x14e;" 
d="M300 -12q-56 0 -102 23.5t-79.5 67.5t-52 107.5t-18.5 144.5q0 79 18.5 142t52 106t79.5 66t102 23q55 0 101.5 -23t80 -66t52 -106t18.5 -142q0 -81 -18.5 -144.5t-52 -107.5t-80 -67.5t-101.5 -23.5zM300 61q37 0 68 18.5t52.5 53.5t33.5 85t12 113q0 62 -12 111
t-33.5 83t-52.5 52t-68 18q-38 0 -68.5 -18t-52 -52t-33.5 -83t-12 -111q0 -63 12 -113t33.5 -85t52 -53.5t68.5 -18.5zM300 705q-35 0 -61 10.5t-44 28t-28 41t-13 49.5l50 8q6 -35 29.5 -59.5t66.5 -24.5t66.5 24.5t29.5 59.5l50 -8q-3 -26 -13 -49.5t-28 -41t-44 -28
t-61 -10.5z" />
    <glyph glyph-name="obreve" unicode="&#x14f;" 
d="M300 -12q-48 0 -91.5 17t-76.5 49.5t-52.5 80t-19.5 107.5q0 61 19.5 108.5t52.5 80.5t76.5 50t91.5 17t91.5 -17t76.5 -50t52.5 -80.5t19.5 -108.5q0 -60 -19.5 -107.5t-52.5 -80t-76.5 -49.5t-91.5 -17zM300 56q35 0 63.5 13.5t49 38t31.5 58.5t11 76t-11 76.5
t-31.5 59.5t-49 38.5t-63.5 13.5t-63.5 -13.5t-49 -38.5t-31.5 -59.5t-11 -76.5t11 -76t31.5 -58.5t49 -38t63.5 -13.5zM300 571q-40 0 -69 13t-47.5 34.5t-28 48.5t-11.5 55l51 8q3 -19 10.5 -37.5t20.5 -33.5t31.5 -24t42.5 -9t42.5 9t31.5 24t20.5 33.5t10.5 37.5l51 -8
q-2 -28 -11.5 -55t-28.5 -48.5t-47.5 -34.5t-68.5 -13z" />
    <glyph glyph-name="Ohungarumlaut" unicode="&#x150;" 
d="M300 -12q-56 0 -102 23.5t-79.5 67.5t-52 107.5t-18.5 144.5q0 79 18.5 142t52 106t79.5 66t102 23q55 0 101.5 -23t80 -66t52 -106t18.5 -142q0 -81 -18.5 -144.5t-52 -107.5t-80 -67.5t-101.5 -23.5zM300 61q37 0 68 18.5t52.5 53.5t33.5 85t12 113q0 62 -12 111
t-33.5 83t-52.5 52t-68 18q-38 0 -68.5 -18t-52 -52t-33.5 -83t-12 -111q0 -63 12 -113t33.5 -85t52 -53.5t68.5 -18.5zM228 703l-43 21l92 152l57 -32zM388 703l-43 21l93 152l56 -32z" />
    <glyph glyph-name="ohungarumlaut" unicode="&#x151;" 
d="M300 -12q-48 0 -91.5 17t-76.5 49.5t-52.5 80t-19.5 107.5q0 61 19.5 108.5t52.5 80.5t76.5 50t91.5 17t91.5 -17t76.5 -50t52.5 -80.5t19.5 -108.5q0 -60 -19.5 -107.5t-52.5 -80t-76.5 -49.5t-91.5 -17zM300 56q35 0 63.5 13.5t49 38t31.5 58.5t11 76t-11 76.5
t-31.5 59.5t-49 38.5t-63.5 13.5t-63.5 -13.5t-49 -38.5t-31.5 -59.5t-11 -76.5t11 -76t31.5 -58.5t49 -38t63.5 -13.5zM243 568l-46 21l87 172l58 -28zM394 568l-46 21l87 172l58 -28z" />
    <glyph glyph-name="OE" unicode="&#x152;" 
d="M296 0q-125 0 -194 86.5t-69 244.5q0 157 70.5 241.5t195.5 84.5h282v-70h-194v-207h148v-71h-148v-238h204v-71h-295zM289 68h22v520h-22q-86 0 -128 -66t-42 -191q0 -126 42 -194.5t128 -68.5z" />
    <glyph glyph-name="oe" unicode="&#x153;" 
d="M188 56q22 0 39.5 13.5t30 38.5t19.5 59t7 76t-7 76t-19.5 59t-30 38.5t-39.5 13.5q-49 0 -74.5 -51.5t-25.5 -136.5q0 -84 25.5 -135t74.5 -51zM183 -12q-37 0 -68.5 17t-54.5 49.5t-36 80t-13 107.5q0 61 13 108.5t36.5 80.5t55 50t68.5 17q46 0 78.5 -29t52.5 -91
q20 62 55.5 91t82.5 29q36 0 63 -18t45 -48t27 -70.5t9 -85.5q0 -14 -1 -28.5t-3 -27.5h-246q5 -84 37.5 -124.5t81.5 -40.5q26 0 46 9t40 23l30 -56q-23 -18 -53.5 -30.5t-65.5 -12.5q-49 0 -88 28t-59 89q-21 -61 -54 -89t-79 -28zM446 433q-39 0 -66 -37t-32 -112h182
q-4 149 -84 149z" />
    <glyph glyph-name="Racute" unicode="&#x154;" 
d="M100 0v656h204q50 0 92 -9.5t72.5 -31.5t47.5 -57t17 -86q0 -77 -40 -123t-107 -63l167 -286h-95l-158 277h-117v-277h-83zM183 345h109q77 0 117.5 31.5t40.5 95.5q0 65 -40.5 91t-117.5 26h-109v-244zM275 697l-36 42l141 128l47 -55z" />
    <glyph glyph-name="racute" unicode="&#x155;" 
d="M146 0v486h68l7 -115h3q38 59 93.5 93t123.5 34q27 0 50 -4.5t46 -15.5l-19 -71q-26 9 -43.5 13t-46.5 4q-55 0 -105.5 -31.5t-94.5 -107.5v-285h-82zM325 568l-43 41l142 168l58 -56z" />
    <glyph glyph-name="uni0156" unicode="&#x156;" 
d="M100 0v656h204q50 0 92 -9.5t72.5 -31.5t47.5 -57t17 -86q0 -77 -40 -123t-107 -63l167 -286h-95l-158 277h-117v-277h-83zM183 345h109q77 0 117.5 31.5t40.5 95.5q0 65 -40.5 91t-117.5 26h-109v-244zM233 -226l-8 40q63 5 86 16.5t23 31.5t-18 29.5t-53 12.5l18 38
q65 -8 91 -25.5t26 -51.5q0 -44 -42.5 -65.5t-122.5 -25.5z" />
    <glyph glyph-name="uni0157" unicode="&#x157;" 
d="M146 0v486h68l7 -115h3q38 59 93.5 93t123.5 34q27 0 50 -4.5t46 -15.5l-19 -71q-26 9 -43.5 13t-46.5 4q-55 0 -105.5 -31.5t-94.5 -107.5v-285h-82zM111 -226l-8 40q63 5 86 16.5t23 31.5t-18 29.5t-53 12.5l18 38q65 -8 91 -25.5t26 -51.5q0 -44 -42.5 -65.5
t-122.5 -25.5z" />
    <glyph glyph-name="Rcaron" unicode="&#x158;" 
d="M100 0v656h204q50 0 92 -9.5t72.5 -31.5t47.5 -57t17 -86q0 -77 -40 -123t-107 -63l167 -286h-95l-158 277h-117v-277h-83zM183 345h109q77 0 117.5 31.5t40.5 95.5q0 65 -40.5 91t-117.5 26h-109v-244zM261 706l-105 113l36 26l110 -92h4l110 92l36 -26l-105 -113h-86z
" />
    <glyph glyph-name="rcaron" unicode="&#x159;" 
d="M146 0v486h68l7 -115h3q38 59 93.5 93t123.5 34q27 0 50 -4.5t46 -15.5l-19 -71q-26 9 -43.5 13t-46.5 4q-55 0 -105.5 -31.5t-94.5 -107.5v-285h-82zM305 574l-114 140l35 32l118 -113h4l118 113l35 -32l-114 -140h-82z" />
    <glyph glyph-name="Sacute" unicode="&#x15a;" 
d="M305 -12q-72 0 -132.5 26t-105.5 71l50 58q37 -37 86 -59.5t106 -22.5q68 0 105.5 29t37.5 75q0 26 -9 44t-25 31t-37.5 23t-46.5 21l-94 41q-25 10 -50 24t-45.5 34t-33.5 47.5t-13 63.5q0 37 16 69t44.5 55.5t68 36.5t86.5 13q62 0 114 -22.5t88 -58.5l-44 -54
q-32 29 -71 45.5t-90 16.5q-57 0 -92 -25.5t-35 -70.5q0 -24 10.5 -40.5t27 -29t37.5 -21.5l42 -18l92 -40q30 -12 56.5 -27.5t46 -36t31 -48t11.5 -63.5q0 -39 -16 -73t-46 -59.5t-73 -40t-97 -14.5zM287 697l-36 42l141 128l47 -55z" />
    <glyph glyph-name="sacute" unicode="&#x15b;" 
d="M310 -12q-72 0 -133 22.5t-106 53.5l38 54q42 -30 92.5 -48t118.5 -18q62 0 92.5 22.5t30.5 53.5q0 14 -5 26t-21.5 23t-46.5 21t-79 20q-95 20 -142.5 53.5t-47.5 88.5q0 29 13 54.5t38.5 44t63 29t87.5 10.5q56 0 108 -18.5t88 -43.5l-40 -53q-34 23 -75 37t-88 14
q-62 0 -87 -21t-25 -49q0 -32 33 -48.5t108 -32.5q61 -13 100 -27.5t61.5 -32.5t31 -40t8.5 -50q0 -30 -14 -56t-41.5 -46t-68 -31.5t-92.5 -11.5zM282 568l-43 41l142 168l58 -56z" />
    <glyph glyph-name="Scircumflex" unicode="&#x15c;" 
d="M305 -12q-72 0 -132.5 26t-105.5 71l50 58q37 -37 86 -59.5t106 -22.5q68 0 105.5 29t37.5 75q0 26 -9 44t-25 31t-37.5 23t-46.5 21l-94 41q-25 10 -50 24t-45.5 34t-33.5 47.5t-13 63.5q0 37 16 69t44.5 55.5t68 36.5t86.5 13q62 0 114 -22.5t88 -58.5l-44 -54
q-32 29 -71 45.5t-90 16.5q-57 0 -92 -25.5t-35 -70.5q0 -24 10.5 -40.5t27 -29t37.5 -21.5l42 -18l92 -40q30 -12 56.5 -27.5t46 -36t31 -48t11.5 -63.5q0 -39 -16 -73t-46 -59.5t-73 -40t-97 -14.5zM204 699l-36 26l105 113h86l105 -113l-36 -26l-110 93h-4z" />
    <glyph glyph-name="scircumflex" unicode="&#x15d;" 
d="M310 -12q-72 0 -133 22.5t-106 53.5l38 54q42 -30 92.5 -48t118.5 -18q62 0 92.5 22.5t30.5 53.5q0 14 -5 26t-21.5 23t-46.5 21t-79 20q-95 20 -142.5 53.5t-47.5 88.5q0 29 13 54.5t38.5 44t63 29t87.5 10.5q56 0 108 -18.5t88 -43.5l-40 -53q-34 23 -75 37t-88 14
q-62 0 -87 -21t-25 -49q0 -32 33 -48.5t108 -32.5q61 -13 100 -27.5t61.5 -32.5t31 -40t8.5 -50q0 -30 -14 -56t-41.5 -46t-68 -31.5t-92.5 -11.5zM183 568l-35 32l114 140h82l114 -140l-35 -32l-118 113h-4z" />
    <glyph glyph-name="uni015E" unicode="&#x15e;" 
d="M305 -12q-72 0 -132.5 26t-105.5 71l50 58q37 -37 86 -59.5t106 -22.5q68 0 105.5 29t37.5 75q0 26 -9 44t-25 31t-37.5 23t-46.5 21l-94 41q-25 10 -50 24t-45.5 34t-33.5 47.5t-13 63.5q0 37 16 69t44.5 55.5t68 36.5t86.5 13q62 0 114 -22.5t88 -58.5l-44 -54
q-32 29 -71 45.5t-90 16.5q-57 0 -92 -25.5t-35 -70.5q0 -24 10.5 -40.5t27 -29t37.5 -21.5l42 -18l92 -40q30 -12 56.5 -27.5t46 -36t31 -48t11.5 -63.5q0 -39 -16 -73t-46 -59.5t-73 -40t-97 -14.5zM232 -226l-8 40q63 5 86 16.5t23 33.5q0 20 -17 31t-60 17l40 96h54
l-26 -72q35 -8 54 -24t19 -47q0 -44 -42.5 -65.5t-122.5 -25.5z" />
    <glyph glyph-name="uni015F" unicode="&#x15f;" 
d="M310 -12q-72 0 -133 22.5t-106 53.5l38 54q42 -30 92.5 -48t118.5 -18q62 0 92.5 22.5t30.5 53.5q0 14 -5 26t-21.5 23t-46.5 21t-79 20q-95 20 -142.5 53.5t-47.5 88.5q0 29 13 54.5t38.5 44t63 29t87.5 10.5q56 0 108 -18.5t88 -43.5l-40 -53q-34 23 -75 37t-88 14
q-62 0 -87 -21t-25 -49q0 -32 33 -48.5t108 -32.5q61 -13 100 -27.5t61.5 -32.5t31 -40t8.5 -50q0 -30 -14 -56t-41.5 -46t-68 -31.5t-92.5 -11.5zM227 -226l-8 40q63 5 86 16.5t23 33.5q0 20 -17 31t-60 17l40 96h54l-26 -72q35 -8 54 -24t19 -47q0 -44 -42.5 -65.5
t-122.5 -25.5z" />
    <glyph glyph-name="Scaron" unicode="&#x160;" 
d="M305 -12q-72 0 -132.5 26t-105.5 71l50 58q37 -37 86 -59.5t106 -22.5q68 0 105.5 29t37.5 75q0 26 -9 44t-25 31t-37.5 23t-46.5 21l-94 41q-25 10 -50 24t-45.5 34t-33.5 47.5t-13 63.5q0 37 16 69t44.5 55.5t68 36.5t86.5 13q62 0 114 -22.5t88 -58.5l-44 -54
q-32 29 -71 45.5t-90 16.5q-57 0 -92 -25.5t-35 -70.5q0 -24 10.5 -40.5t27 -29t37.5 -21.5l42 -18l92 -40q30 -12 56.5 -27.5t46 -36t31 -48t11.5 -63.5q0 -39 -16 -73t-46 -59.5t-73 -40t-97 -14.5zM273 706l-105 113l36 26l110 -92h4l110 92l36 -26l-105 -113h-86z" />
    <glyph glyph-name="scaron" unicode="&#x161;" 
d="M310 -12q-72 0 -133 22.5t-106 53.5l38 54q42 -30 92.5 -48t118.5 -18q62 0 92.5 22.5t30.5 53.5q0 14 -5 26t-21.5 23t-46.5 21t-79 20q-95 20 -142.5 53.5t-47.5 88.5q0 29 13 54.5t38.5 44t63 29t87.5 10.5q56 0 108 -18.5t88 -43.5l-40 -53q-34 23 -75 37t-88 14
q-62 0 -87 -21t-25 -49q0 -32 33 -48.5t108 -32.5q61 -13 100 -27.5t61.5 -32.5t31 -40t8.5 -50q0 -30 -14 -56t-41.5 -46t-68 -31.5t-92.5 -11.5zM262 574l-114 140l35 32l118 -113h4l118 113l35 -32l-114 -140h-82z" />
    <glyph glyph-name="uni0162" unicode="&#x162;" 
d="M258 0v586h-216v70h516v-70h-216v-586h-84zM213 -226l-8 40q63 5 86 16.5t23 33.5q0 20 -17 31t-60 17l40 96h54l-26 -72q35 -8 54 -24t19 -47q0 -44 -42.5 -65.5t-122.5 -25.5z" />
    <glyph glyph-name="uni0163" unicode="&#x163;" 
d="M394 -12q-53 0 -89 14.5t-58 41t-31.5 63.5t-9.5 82v230h-137v62l140 5l11 156h68v-156h239v-67h-239v-231q0 -33 6 -57.5t20 -41.5t38 -25.5t59 -8.5t63 6t54 16l18 -60q-33 -12 -69.5 -20.5t-82.5 -8.5zM302 -226l-8 40q63 5 86 16.5t23 33.5q0 20 -17 31t-60 17l40 96
h54l-26 -72q35 -8 54 -24t19 -47q0 -44 -42.5 -65.5t-122.5 -25.5z" />
    <glyph glyph-name="Tcaron" unicode="&#x164;" 
d="M258 0v586h-216v70h516v-70h-216v-586h-84zM257 706l-105 113l36 26l110 -92h4l110 92l36 -26l-105 -113h-86z" />
    <glyph glyph-name="tcaron" unicode="&#x165;" 
d="M394 -12q-53 0 -89 14.5t-58 41t-31.5 63.5t-9.5 82v230h-137v62l140 5l11 156h68v-156h239v-67h-239v-231q0 -33 6 -57.5t20 -41.5t38 -25.5t59 -8.5t63 6t54 16l18 -60q-33 -12 -69.5 -20.5t-82.5 -8.5zM399 548l-3 268h74v-81l-14 -187h-57z" />
    <glyph glyph-name="Tbar" unicode="&#x166;" 
d="M116 306v58l90 4h52v218h-216v70h516v-70h-216v-218h142v-62h-142v-306h-84v306h-142z" />
    <glyph glyph-name="tbar" unicode="&#x167;" 
d="M70 220v58l136 6v135h-137v62l140 5l11 156h68v-156h239v-67h-239v-135h220v-64h-220v-32q0 -33 6 -57.5t20 -41.5t38 -25.5t59 -8.5t63 6t54 16l18 -60q-33 -12 -69.5 -20.5t-82.5 -8.5q-53 0 -89 14.5t-58 41t-31.5 63.5t-9.5 82v31h-136z" />
    <glyph glyph-name="Utilde" unicode="&#x168;" 
d="M301 -12q-48 0 -89 14t-70.5 45.5t-46 80.5t-16.5 120v408h84v-410q0 -51 10.5 -86.5t29 -57t43.5 -31.5t55 -10t55 10t44 31.5t29.5 57t10.5 86.5v410h81v-408q0 -71 -16.5 -120t-45.5 -80.5t-69.5 -45.5t-88.5 -14zM375 709q-28 0 -48 11t-36.5 24.5t-31 24.5t-32.5 11
q-19 0 -32 -17t-16 -49l-56 4q3 57 30 90t72 33q28 0 48 -11t36.5 -24.5t31 -24.5t32.5 -11q40 0 48 66l56 -4q-3 -58 -30 -90.5t-72 -32.5z" />
    <glyph glyph-name="utilde" unicode="&#x169;" 
d="M246 -12q-88 0 -128.5 49.5t-40.5 146.5v302h83v-291q0 -69 25.5 -102.5t86.5 -33.5q42 0 76 21.5t75 68.5v337h82v-486h-67l-7 85h-4q-37 -43 -80.5 -70t-100.5 -27zM368 577q-27 0 -46 13t-35 29t-30.5 29t-31.5 13q-23 0 -34 -22t-13 -57l-55 3q1 29 7.5 54t18.5 43
t30.5 28.5t44.5 10.5q27 0 46 -13t35 -29t30.5 -29t32.5 -13q22 0 33 22t13 57l55 -4q-1 -29 -7.5 -53.5t-18.5 -42.5t-30.5 -28.5t-44.5 -10.5z" />
    <glyph glyph-name="Umacron" unicode="&#x16a;" 
d="M301 -12q-48 0 -89 14t-70.5 45.5t-46 80.5t-16.5 120v408h84v-410q0 -51 10.5 -86.5t29 -57t43.5 -31.5t55 -10t55 10t44 31.5t29.5 57t10.5 86.5v410h81v-408q0 -71 -16.5 -120t-45.5 -80.5t-69.5 -45.5t-88.5 -14zM166 735v57h268v-57h-268z" />
    <glyph glyph-name="umacron" unicode="&#x16b;" 
d="M246 -12q-88 0 -128.5 49.5t-40.5 146.5v302h83v-291q0 -69 25.5 -102.5t86.5 -33.5q42 0 76 21.5t75 68.5v337h82v-486h-67l-7 85h-4q-37 -43 -80.5 -70t-100.5 -27zM163 601v57h266v-57h-266z" />
    <glyph glyph-name="Ubreve" unicode="&#x16c;" 
d="M301 -12q-48 0 -89 14t-70.5 45.5t-46 80.5t-16.5 120v408h84v-410q0 -51 10.5 -86.5t29 -57t43.5 -31.5t55 -10t55 10t44 31.5t29.5 57t10.5 86.5v410h81v-408q0 -71 -16.5 -120t-45.5 -80.5t-69.5 -45.5t-88.5 -14zM300 705q-35 0 -61 10.5t-44 28t-28 41t-13 49.5
l50 8q6 -35 29.5 -59.5t66.5 -24.5t66.5 24.5t29.5 59.5l50 -8q-3 -26 -13 -49.5t-28 -41t-44 -28t-61 -10.5z" />
    <glyph glyph-name="ubreve" unicode="&#x16d;" 
d="M246 -12q-88 0 -128.5 49.5t-40.5 146.5v302h83v-291q0 -69 25.5 -102.5t86.5 -33.5q42 0 76 21.5t75 68.5v337h82v-486h-67l-7 85h-4q-37 -43 -80.5 -70t-100.5 -27zM296 571q-40 0 -69 13t-47.5 34.5t-28 48.5t-11.5 55l51 8q3 -19 10.5 -37.5t20.5 -33.5t31.5 -24
t42.5 -9t42.5 9t31.5 24t20.5 33.5t10.5 37.5l51 -8q-2 -28 -11.5 -55t-28.5 -48.5t-47.5 -34.5t-68.5 -13z" />
    <glyph glyph-name="Uring" unicode="&#x16e;" 
d="M301 -12q-48 0 -89 14t-70.5 45.5t-46 80.5t-16.5 120v408h84v-410q0 -51 10.5 -86.5t29 -57t43.5 -31.5t55 -10t55 10t44 31.5t29.5 57t10.5 86.5v410h81v-408q0 -71 -16.5 -120t-45.5 -80.5t-69.5 -45.5t-88.5 -14zM300 699q-42 0 -69.5 24.5t-27.5 65.5
q0 42 27.5 66.5t69.5 24.5t69.5 -24.5t27.5 -66.5q0 -41 -27.5 -65.5t-69.5 -24.5zM300 735q20 0 35.5 14t15.5 40t-15.5 40t-35.5 14q-22 0 -37 -14t-15 -40t15 -40t37 -14z" />
    <glyph glyph-name="uring" unicode="&#x16f;" 
d="M246 -12q-88 0 -128.5 49.5t-40.5 146.5v302h83v-291q0 -69 25.5 -102.5t86.5 -33.5q42 0 76 21.5t75 68.5v337h82v-486h-67l-7 85h-4q-37 -43 -80.5 -70t-100.5 -27zM296 569q-52 0 -81 27.5t-29 68.5t29 68.5t81 27.5t81 -27.5t29 -68.5t-29 -68.5t-81 -27.5zM296 606
q24 0 40.5 17t16.5 42q0 26 -16.5 42.5t-40.5 16.5t-40.5 -16.5t-16.5 -42.5q0 -25 16.5 -42t40.5 -17z" />
    <glyph glyph-name="Uhungarumlaut" unicode="&#x170;" 
d="M301 -12q-48 0 -89 14t-70.5 45.5t-46 80.5t-16.5 120v408h84v-410q0 -51 10.5 -86.5t29 -57t43.5 -31.5t55 -10t55 10t44 31.5t29.5 57t10.5 86.5v410h81v-408q0 -71 -16.5 -120t-45.5 -80.5t-69.5 -45.5t-88.5 -14zM228 703l-43 21l92 152l57 -32zM388 703l-43 21
l93 152l56 -32z" />
    <glyph glyph-name="uhungarumlaut" unicode="&#x171;" 
d="M246 -12q-88 0 -128.5 49.5t-40.5 146.5v302h83v-291q0 -69 25.5 -102.5t86.5 -33.5q42 0 76 21.5t75 68.5v337h82v-486h-67l-7 85h-4q-37 -43 -80.5 -70t-100.5 -27zM239 568l-46 21l87 172l58 -28zM390 568l-46 21l87 172l58 -28z" />
    <glyph glyph-name="Uogonek" unicode="&#x172;" 
d="M318 -225q-45 0 -74 22.5t-29 68.5q0 21 6.5 39.5t16.5 34t22 28t22 21.5q-93 5 -148 68t-55 191v408h84v-410q0 -51 10.5 -86.5t28.5 -57t43 -31.5t55 -10t55.5 10t44 31.5t29.5 57t11 86.5v410h81v-408q0 -106 -35 -163.5t-103 -84.5q-59 -24 -81.5 -55t-22.5 -61
q0 -26 17 -38.5t38 -12.5q16 0 28 6.5t22 14.5l25 -43q-17 -15 -39.5 -25.5t-51.5 -10.5z" />
    <glyph glyph-name="uogonek" unicode="&#x173;" 
d="M446 -225q-44 0 -73.5 22.5t-29.5 70.5q0 43 28 75.5t67 56.5l-7 85h-4q-37 -43 -80.5 -70t-100.5 -27q-88 0 -128.5 49.5t-40.5 146.5v302h83v-291q0 -69 25.5 -102.5t86.5 -33.5q42 0 76 21.5t75 68.5v337h82v-491q-54 -24 -77.5 -53t-23.5 -58q0 -28 18 -41.5
t41 -13.5q17 0 30 6t22 15l24 -39q-17 -17 -40.5 -26.5t-52.5 -9.5z" />
    <glyph glyph-name="Wcircumflex" unicode="&#x174;" 
d="M110 0l-100 657h94l48 -412q2 -21 4 -38t3.5 -34.5t3 -36.5t2.5 -43h3q4 24 8 43t7.5 36.5t7.5 34.5t9 37l64 244h80l62 -244q5 -20 9 -37t7.5 -34.5t7 -36.5t8.5 -43h4q1 24 2.5 43t3 36.5t3 34.5t3.5 37l46 413h90l-96 -657h-104l-64 264q-8 30 -13.5 59t-10.5 59h-3
q-5 -30 -10 -59t-13 -59l-64 -264h-102zM188 699l-36 26l105 113h86l105 -113l-36 -26l-110 93h-4z" />
    <glyph glyph-name="wcircumflex" unicode="&#x175;" 
d="M114 0l-106 486h82l58 -282q7 -35 12 -67t10 -67h4q5 35 12.5 67.5t15.5 66.5l60 252h82l58 -252q8 -35 16.5 -67t13.5 -67h4q6 35 10.5 67t11.5 67l58 282h76l-104 -486h-106l-56 232q-12 51 -24 144h-4q-12 -93 -24 -144l-54 -232h-106zM180 568l-35 32l114 140h82
l114 -140l-35 -32l-118 113h-4z" />
    <glyph glyph-name="Ycircumflex" unicode="&#x176;" 
d="M258 0v234l-220 422h88l99 -195q19 -38 37 -75.5t38 -77.5h4l39 78l38 76l95 194h86l-220 -422v-234h-84zM188 699l-36 26l105 113h86l105 -113l-36 -26l-110 93h-4z" />
    <glyph glyph-name="ycircumflex" unicode="&#x177;" 
d="M131 -209q-36 0 -64 10l17 65q10 -3 21.5 -5t22.5 -2q51 0 83 29.5t50 74.5l15 36l-227 487h83l119 -269q14 -32 29.5 -69t30.5 -72h4q13 35 26.5 71.5t25.5 69.5l106 269h78l-214 -526q-14 -36 -32 -67t-43 -53.5t-57.5 -35.5t-73.5 -13zM184 568l-35 32l114 140h82
l114 -140l-35 -32l-118 113h-4z" />
    <glyph glyph-name="Ydieresis" unicode="&#x178;" 
d="M258 0v234l-220 422h88l99 -195q19 -38 37 -75.5t38 -77.5h4l39 78l38 76l95 194h86l-220 -422v-234h-84zM209 715q-22 0 -36.5 14t-14.5 37t14.5 36.5t36.5 13.5t36 -13.5t14 -36.5t-14 -37t-36 -14zM391 715q-22 0 -36 14t-14 37t14 36.5t36 13.5t36.5 -13.5
t14.5 -36.5t-14.5 -37t-36.5 -14z" />
    <glyph glyph-name="Zacute" unicode="&#x179;" 
d="M65 0v50l366 537h-334v70h437v-50l-367 -536h372v-71h-474zM288 697l-36 42l141 128l47 -55z" />
    <glyph glyph-name="zacute" unicode="&#x17a;" 
d="M71 0v44l333 375h-296v67h414v-44l-334 -375h343v-67h-460zM301 568l-43 41l142 168l58 -56z" />
    <glyph glyph-name="Zdotaccent" unicode="&#x17b;" 
d="M65 0v50l366 537h-334v70h437v-50l-367 -536h372v-71h-474zM317 714q-25 0 -42 15.5t-17 41.5q0 25 17 40.5t42 15.5t42 -15.5t17 -40.5q0 -26 -17 -41.5t-42 -15.5z" />
    <glyph glyph-name="zdotaccent" unicode="&#x17c;" 
d="M71 0v44l333 375h-296v67h414v-44l-334 -375h343v-67h-460zM322 588q-28 0 -47 17.5t-19 46.5t19 46.5t47 17.5t47 -17.5t19 -46.5t-19 -46.5t-47 -17.5z" />
    <glyph glyph-name="Zcaron" unicode="&#x17d;" 
d="M65 0v50l366 537h-334v70h437v-50l-367 -536h372v-71h-474zM274 706l-105 113l36 26l110 -92h4l110 92l36 -26l-105 -113h-86z" />
    <glyph glyph-name="zcaron" unicode="&#x17e;" 
d="M71 0v44l333 375h-296v67h414v-44l-334 -375h343v-67h-460zM281 574l-114 140l35 32l118 -113h4l118 113l35 -32l-114 -140h-82z" />
    <glyph glyph-name="longs" unicode="&#x17f;" 
d="M242 0v419h-139v62l139 5v41q0 89 47.5 143t148.5 54q72 0 140 -28l-19 -62q-30 14 -55.5 18.5t-57.5 4.5q-66 0 -94.5 -33.5t-28.5 -93.5v-530h-81z" />
    <glyph glyph-name="uni0180" unicode="&#x180;" 
d="M320 -12q-35 0 -75.5 17.5t-75.5 48.5h-3l-7 -54h-66v562h-73v59l73 5v86h82v-86h213v-64h-213v-67l-3 -91h3q33 34 76.5 54t86.5 20q49 0 87 -17t63.5 -47.5t38.5 -74.5t13 -98q0 -60 -18 -107t-48.5 -79.5t-70.5 -49.5t-83 -17zM307 57q64 0 106 48.5t42 134.5
q0 76 -32 122.5t-105 46.5q-32 0 -68.5 -17.5t-74.5 -55.5v-222q35 -31 70.5 -44t61.5 -13z" />
    <glyph glyph-name="uni018A" unicode="&#x18a;" 
d="M209 0v595q-57 -11 -86 -51t-29 -95q0 -48 19 -77t57 -52l-40 -58q-51 26 -80.5 70t-29.5 113q0 48 15.5 89t47 71t78 46.5t108.5 16.5q151 0 224.5 -86t73.5 -244q0 -162 -68.5 -250t-190.5 -88h-99zM292 68h21q82 0 125 70.5t43 199.5q0 122 -44.5 189t-144.5 72v-531z
" />
    <glyph glyph-name="uni018F" unicode="&#x18f;" 
d="M300 -12q-55 0 -99.5 24.5t-76 68.5t-48.5 106.5t-17 139.5v11.5t1 11.5h407q-4 118 -47 182t-123 64q-41 0 -74 -16t-58 -42l-40 57q31 32 74.5 52.5t101.5 20.5t104 -23.5t78.5 -67t49.5 -106t17 -141.5t-18.5 -142t-51.5 -107.5t-79 -68.5t-101 -24zM300 60
q69 0 113.5 57t52.5 169h-325q8 -114 49 -170t110 -56z" />
    <glyph glyph-name="uni0192" unicode="&#x192;" 
d="M132 -97q-26 0 -47 5.5t-36 12.5l16 62q14 -5 28.5 -9t30.5 -4q52 0 74.5 39.5t32.5 116.5l24 219h-104v59l70 4h41l6 56q13 100 53 152t124 52q26 0 50 -6t41 -14l-20 -62q-14 7 -29.5 11t-37.5 4q-25 0 -42.5 -11t-29.5 -29t-19 -41.5t-10 -48.5l-7 -63h142v-63h-149
l-27 -237q-6 -46 -17.5 -83.5t-31.5 -64.5t-51 -42t-75 -15z" />
    <glyph glyph-name="uni0193" unicode="&#x193;" 
d="M525 588l-47 -53q-24 26 -55 43t-79 17q-46 0 -83.5 -18.5t-64.5 -53t-41.5 -83.5t-14.5 -110q0 -62 13.5 -111.5t39 -84.5t63.5 -54t86 -19q35 0 65 10.5t49 28.5v171h-131v69h208v-276q-31 -32 -81.5 -54t-114.5 -22q-62 0 -114 23t-90 66.5t-59 107t-21 143.5
q0 79 21.5 142.5t60 107t92 67t117.5 23.5q22 0 41.5 -3.5t36.5 -8.5q-7 20 -7 43q0 47 30.5 76t80.5 29q20 0 35.5 -4t27.5 -9l-16 -63q-8 3 -15.5 6t-18.5 3q-26 0 -40 -15.5t-14 -38.5q0 -27 10 -46.5t30 -48.5z" />
    <glyph glyph-name="Ohorn" unicode="&#x1a0;" 
d="M300 -12q-56 0 -102 23.5t-79.5 67.5t-52 107.5t-18.5 144.5q0 79 18.5 142t52 106t79.5 66t102 23q62 0 111 -28q78 16 78 86q0 15 -4 30.5t-11 27.5l65 29q11 -17 17 -37.5t6 -43.5q0 -51 -28 -82.5t-76 -43.5q45 -43 69.5 -112t24.5 -163q0 -81 -18.5 -144.5
t-52 -107.5t-80 -67.5t-101.5 -23.5zM300 61q37 0 68 18.5t52.5 53.5t33.5 85t12 113q0 62 -12 111t-33.5 83t-52.5 52t-68 18q-38 0 -68.5 -18t-52 -52t-33.5 -83t-12 -111q0 -63 12 -113t33.5 -85t52 -53.5t68.5 -18.5z" />
    <glyph glyph-name="ohorn" unicode="&#x1a1;" 
d="M300 -12q-48 0 -91.5 17t-76.5 49.5t-52.5 80t-19.5 107.5q0 61 19.5 108.5t52.5 80.5t76.5 50t91.5 17q54 0 101 -21q42 9 64 32.5t22 66.5q0 15 -3.5 30.5t-11.5 27.5l64 30q11 -17 17 -38t6 -44q0 -29 -8.5 -51.5t-23 -39t-34 -28t-41.5 -18.5q40 -32 64 -83t24 -120
q0 -60 -19.5 -107.5t-52.5 -80t-76.5 -49.5t-91.5 -17zM300 56q35 0 63.5 13.5t49 38t31.5 58.5t11 76t-11 76.5t-31.5 59.5t-49 38.5t-63.5 13.5t-63.5 -13.5t-49 -38.5t-31.5 -59.5t-11 -76.5t11 -76t31.5 -58.5t49 -38t63.5 -13.5z" />
    <glyph glyph-name="Uhorn" unicode="&#x1af;" 
d="M301 -12q-48 0 -89 14t-70.5 45.5t-46 80.5t-16.5 120v408h84v-410q0 -51 10.5 -86.5t29 -57t43.5 -31.5t55 -10t55 10t44 31.5t29.5 57t10.5 86.5v410h33q41 5 62.5 23t21.5 60q0 15 -4 30.5t-11 27.5l65 28q11 -17 17 -37t6 -43q0 -58 -31.5 -86t-77.5 -39v-372
q0 -71 -16.5 -120t-45.5 -80.5t-69.5 -45.5t-88.5 -14z" />
    <glyph glyph-name="uhorn" unicode="&#x1b0;" 
d="M246 -12q-88 0 -128.5 49.5t-40.5 146.5v302h83v-291q0 -69 25.5 -102.5t86.5 -33.5q42 0 76 21.5t75 68.5v337h16q18 3 33.5 9t27.5 17t18.5 28t6.5 42q0 15 -3 30.5t-11 27.5l64 30q11 -17 17 -38t6 -44q0 -29 -8 -50.5t-21 -37t-29.5 -26t-34.5 -17.5v-457h-67l-7 85
h-4q-37 -43 -80.5 -70t-100.5 -27z" />
    <glyph glyph-name="uni01C2" unicode="&#x1c2;" 
d="M260 -205v359h-176v58l176 4v108h-176v58l176 4v326h80v-326h176v-62h-176v-108h176v-62h-176v-359h-80z" />
    <glyph glyph-name="uni01CD" unicode="&#x1cd;" 
d="M232 367l-31 -100h196l-31 100q-17 55 -33.5 109.5t-31.5 111.5h-4q-16 -57 -32 -111.5t-33 -109.5zM32 0l221 656h94l221 -656h-88l-62 200h-238l-63 -200h-85zM257 706l-105 113l36 26l110 -92h4l110 92l36 -26l-105 -113h-86z" />
    <glyph glyph-name="uni01CE" unicode="&#x1ce;" 
d="M246 -12q-34 0 -64 9.5t-52.5 27t-35.5 43t-13 58.5q0 41 19.5 71.5t62 52.5t109.5 36t161 22q-1 25 -8 47t-22 38.5t-39.5 26.5t-59.5 10q-48 0 -92 -18.5t-78 -39.5l-32 56q18 12 42.5 24.5t52 22.5t58.5 16.5t63 6.5q100 0 148.5 -54.5t48.5 -145.5v-298h-67l-7 66h-3
q-41 -32 -90.5 -55t-101.5 -23zM268 54q42 0 82.5 18.5t82.5 53.5v128q-78 -6 -130.5 -17t-84 -26.5t-44.5 -35t-13 -43.5q0 -21 9 -35.5t23.5 -24t34 -14t40.5 -4.5zM279 574l-114 140l35 32l118 -113h4l118 113l35 -32l-114 -140h-82z" />
    <glyph glyph-name="uni01CF" unicode="&#x1cf;" 
d="M95 0v71h163v515h-163v70h410v-70h-163v-515h163v-71h-410zM257 706l-105 113l36 26l110 -92h4l110 92l36 -26l-105 -113h-86z" />
    <glyph glyph-name="uni01D0" unicode="&#x1d0;" 
d="M316 0v419h-226v67h308v-486h-82zM307 574l-114 140l35 32l118 -113h4l118 113l35 -32l-114 -140h-82z" />
    <glyph glyph-name="uni01D1" unicode="&#x1d1;" 
d="M300 -12q-56 0 -102 23.5t-79.5 67.5t-52 107.5t-18.5 144.5q0 79 18.5 142t52 106t79.5 66t102 23q55 0 101.5 -23t80 -66t52 -106t18.5 -142q0 -81 -18.5 -144.5t-52 -107.5t-80 -67.5t-101.5 -23.5zM300 61q37 0 68 18.5t52.5 53.5t33.5 85t12 113q0 62 -12 111
t-33.5 83t-52.5 52t-68 18q-38 0 -68.5 -18t-52 -52t-33.5 -83t-12 -111q0 -63 12 -113t33.5 -85t52 -53.5t68.5 -18.5zM257 706l-105 113l36 26l110 -92h4l110 92l36 -26l-105 -113h-86z" />
    <glyph glyph-name="uni01D2" unicode="&#x1d2;" 
d="M300 -12q-48 0 -91.5 17t-76.5 49.5t-52.5 80t-19.5 107.5q0 61 19.5 108.5t52.5 80.5t76.5 50t91.5 17t91.5 -17t76.5 -50t52.5 -80.5t19.5 -108.5q0 -60 -19.5 -107.5t-52.5 -80t-76.5 -49.5t-91.5 -17zM300 56q35 0 63.5 13.5t49 38t31.5 58.5t11 76t-11 76.5
t-31.5 59.5t-49 38.5t-63.5 13.5t-63.5 -13.5t-49 -38.5t-31.5 -59.5t-11 -76.5t11 -76t31.5 -58.5t49 -38t63.5 -13.5zM259 574l-114 140l35 32l118 -113h4l118 113l35 -32l-114 -140h-82z" />
    <glyph glyph-name="uni01D3" unicode="&#x1d3;" 
d="M301 -12q-48 0 -89 14t-70.5 45.5t-46 80.5t-16.5 120v408h84v-410q0 -51 10.5 -86.5t29 -57t43.5 -31.5t55 -10t55 10t44 31.5t29.5 57t10.5 86.5v410h81v-408q0 -71 -16.5 -120t-45.5 -80.5t-69.5 -45.5t-88.5 -14zM257 706l-105 113l36 26l110 -92h4l110 92l36 -26
l-105 -113h-86z" />
    <glyph glyph-name="uni01D4" unicode="&#x1d4;" 
d="M246 -12q-88 0 -128.5 49.5t-40.5 146.5v302h83v-291q0 -69 25.5 -102.5t86.5 -33.5q42 0 76 21.5t75 68.5v337h82v-486h-67l-7 85h-4q-37 -43 -80.5 -70t-100.5 -27zM255 574l-114 140l35 32l118 -113h4l118 113l35 -32l-114 -140h-82z" />
    <glyph glyph-name="uni01D5" unicode="&#x1d5;" 
d="M301 -12q-48 0 -89 14t-70.5 45.5t-46 80.5t-16.5 120v408h84v-410q0 -51 10.5 -86.5t29 -57t43.5 -31.5t55 -10t55 10t44 31.5t29.5 57t10.5 86.5v410h81v-408q0 -71 -16.5 -120t-45.5 -80.5t-69.5 -45.5t-88.5 -14zM197 715q-20 0 -32.5 13t-12.5 33t12.5 32.5
t32.5 12.5t33 -12.5t13 -32.5t-13 -33t-33 -13zM403 715q-20 0 -33 13t-13 33t13 32.5t33 12.5t32.5 -12.5t12.5 -32.5t-12.5 -33t-32.5 -13zM166 861v46h268v-46h-268z" />
    <glyph glyph-name="uni01D6" unicode="&#x1d6;" 
d="M246 -12q-88 0 -128.5 49.5t-40.5 146.5v302h83v-291q0 -69 25.5 -102.5t86.5 -33.5q42 0 76 21.5t75 68.5v337h82v-486h-67l-7 85h-4q-37 -43 -80.5 -70t-100.5 -27zM200 588q-20 0 -33 13t-13 32q0 20 13 33t33 13t32.5 -13t12.5 -33q0 -19 -12.5 -32t-32.5 -13z
M392 588q-20 0 -32.5 13t-12.5 32q0 20 12.5 33t32.5 13t33 -13t13 -33q0 -19 -13 -32t-33 -13zM162 750v47h267v-47h-267z" />
    <glyph glyph-name="uni01D7" unicode="&#x1d7;" 
d="M301 -12q-48 0 -89 14t-70.5 45.5t-46 80.5t-16.5 120v408h84v-410q0 -51 10.5 -86.5t29 -57t43.5 -31.5t55 -10t55 10t44 31.5t29.5 57t10.5 86.5v410h81v-408q0 -71 -16.5 -120t-45.5 -80.5t-69.5 -45.5t-88.5 -14zM197 715q-20 0 -32.5 13t-12.5 33t12.5 32.5
t32.5 12.5t33 -12.5t13 -32.5t-13 -33t-33 -13zM403 715q-20 0 -33 13t-13 33t13 32.5t33 12.5t32.5 -12.5t12.5 -32.5t-12.5 -33t-32.5 -13zM299 823l-37 26l95 119l53 -36z" />
    <glyph glyph-name="uni01D8" unicode="&#x1d8;" 
d="M246 -12q-88 0 -128.5 49.5t-40.5 146.5v302h83v-291q0 -69 25.5 -102.5t86.5 -33.5q42 0 76 21.5t75 68.5v337h82v-486h-67l-7 85h-4q-37 -43 -80.5 -70t-100.5 -27zM200 588q-20 0 -33 13t-13 32q0 20 13 33t33 13t32.5 -13t12.5 -33q0 -19 -12.5 -32t-32.5 -13z
M392 588q-20 0 -32.5 13t-12.5 32q0 20 12.5 33t32.5 13t33 -13t13 -33q0 -19 -13 -32t-33 -13zM289 705l-35 24l82 115l49 -34z" />
    <glyph glyph-name="uni01D9" unicode="&#x1d9;" 
d="M301 -12q-48 0 -89 14t-70.5 45.5t-46 80.5t-16.5 120v408h84v-410q0 -51 10.5 -86.5t29 -57t43.5 -31.5t55 -10t55 10t44 31.5t29.5 57t10.5 86.5v410h81v-408q0 -71 -16.5 -120t-45.5 -80.5t-69.5 -45.5t-88.5 -14zM197 715q-20 0 -32.5 13t-12.5 33t12.5 32.5
t32.5 12.5t33 -12.5t13 -32.5t-13 -33t-33 -13zM403 715q-20 0 -33 13t-13 33t13 32.5t33 12.5t32.5 -12.5t12.5 -32.5t-12.5 -33t-32.5 -13zM264 839l-99 96l33 27l100 -75h4l100 75l33 -27l-99 -96h-72z" />
    <glyph glyph-name="uni01DA" unicode="&#x1da;" 
d="M246 -12q-88 0 -128.5 49.5t-40.5 146.5v302h83v-291q0 -69 25.5 -102.5t86.5 -33.5q42 0 76 21.5t75 68.5v337h82v-486h-67l-7 85h-4q-37 -43 -80.5 -70t-100.5 -27zM200 588q-20 0 -33 13t-13 32q0 20 13 33t33 13t32.5 -13t12.5 -33q0 -19 -12.5 -32t-32.5 -13z
M392 588q-20 0 -32.5 13t-12.5 32q0 20 12.5 33t32.5 13t33 -13t13 -33q0 -19 -13 -32t-33 -13zM262 720l-94 92l30 28l96 -73h4l96 73l30 -28l-94 -92h-68z" />
    <glyph glyph-name="uni01DB" unicode="&#x1db;" 
d="M301 -12q-48 0 -89 14t-70.5 45.5t-46 80.5t-16.5 120v408h84v-410q0 -51 10.5 -86.5t29 -57t43.5 -31.5t55 -10t55 10t44 31.5t29.5 57t10.5 86.5v410h81v-408q0 -71 -16.5 -120t-45.5 -80.5t-69.5 -45.5t-88.5 -14zM197 715q-20 0 -32.5 13t-12.5 33t12.5 32.5
t32.5 12.5t33 -12.5t13 -32.5t-13 -33t-33 -13zM403 715q-20 0 -33 13t-13 33t13 32.5t33 12.5t32.5 -12.5t12.5 -32.5t-12.5 -33t-32.5 -13zM301 823l-111 109l53 36l95 -119z" />
    <glyph glyph-name="uni01DC" unicode="&#x1dc;" 
d="M246 -12q-88 0 -128.5 49.5t-40.5 146.5v302h83v-291q0 -69 25.5 -102.5t86.5 -33.5q42 0 76 21.5t75 68.5v337h82v-486h-67l-7 85h-4q-37 -43 -80.5 -70t-100.5 -27zM200 588q-20 0 -33 13t-13 32q0 20 13 33t33 13t32.5 -13t12.5 -33q0 -19 -12.5 -32t-32.5 -13z
M392 588q-20 0 -32.5 13t-12.5 32q0 20 12.5 33t32.5 13t33 -13t13 -33q0 -19 -13 -32t-33 -13zM303 705l-96 105l49 34l82 -115z" />
    <glyph glyph-name="uni01E2" unicode="&#x1e2;" 
d="M231 377l-46 -119h132v332h-3q-20 -54 -41.5 -106.5t-41.5 -106.5zM-1 0l264 656h319v-70h-189v-205h147v-71h-147v-239h198v-71h-274v191h-158l-73 -191h-87zM286 735v57h268v-57h-268z" />
    <glyph glyph-name="uni01E3" unicode="&#x1e3;" 
d="M145 -12q-56 0 -92 35t-36 97q0 74 58.5 119.5t190.5 62.5q-2 71 -26 99.5t-62 28.5q-30 0 -60.5 -12t-53.5 -28l-31 56q30 20 69.5 36t82.5 16q44 0 75 -23t48 -77q25 54 62 77t78 23q38 0 66 -18t46.5 -48.5t27.5 -70.5t9 -85q0 -14 -1 -28.5t-3 -27.5h-261
q4 -77 36 -121t89 -44q28 0 51.5 9t43.5 23l30 -56q-25 -18 -57.5 -30.5t-70.5 -12.5q-51 0 -88.5 22.5t-61.5 64.5q-35 -42 -74.5 -64.5t-84.5 -22.5zM167 54q28 0 59 17.5t57 51.5q-17 54 -17 119v7q-51 -8 -84 -19.5t-53 -26.5t-28 -34t-8 -41q0 -35 20.5 -54.5
t53.5 -19.5zM443 433q-38 0 -70 -34t-40 -115h197q-4 149 -87 149zM183 601v57h266v-57h-266z" />
    <glyph glyph-name="Gcaron" unicode="&#x1e6;" 
d="M337 -12q-62 0 -114 23t-90 66.5t-59 107t-21 143.5q0 79 21.5 142.5t60 107t92 67t117.5 23.5q33 0 60 -7t49.5 -18.5t40 -25.5t31.5 -29l-47 -53q-24 26 -55 43t-79 17q-46 0 -83.5 -18.5t-64.5 -53t-41.5 -83.5t-14.5 -110q0 -62 13.5 -111.5t39 -84.5t63.5 -54
t86 -19q35 0 65 10.5t49 28.5v171h-131v69h208v-276q-31 -32 -81.5 -54t-114.5 -22zM287 706l-105 113l36 26l110 -92h4l110 92l36 -26l-105 -113h-86z" />
    <glyph glyph-name="gcaron" unicode="&#x1e7;" 
d="M296 -224q-107 0 -165.5 35t-58.5 100q0 29 20.5 57t59.5 51v4q-20 11 -35 30t-15 50q0 23 15 47.5t43 43.5v4q-25 19 -42.5 50.5t-17.5 75.5q0 40 15.5 72t41.5 54.5t60.5 35t73.5 12.5q40 0 72 -12h201v-67h-126q17 -17 29 -43t12 -55q0 -39 -14.5 -70t-40 -52.5
t-60 -33t-73.5 -11.5q-19 0 -40.5 4.5t-41.5 13.5q-38 -24 -38 -56q0 -29 26.5 -42.5t74.5 -13.5h109q94 0 139.5 -26t45.5 -88q0 -34 -19 -65t-54 -54t-85 -37t-112 -14zM291 209q47 0 79.5 31t32.5 84q0 25 -9 46t-24 36t-35.5 23.5t-43.5 8.5t-43.5 -8.5t-35.5 -23.5
t-24 -36t-9 -46q0 -53 33 -84t79 -31zM302 -164q42 0 76 8t58 21.5t36.5 31t12.5 36.5q0 35 -27.5 47t-83.5 12h-95q-21 0 -39.5 1.5t-34.5 6.5q-35 -19 -48.5 -39.5t-13.5 -41.5q0 -38 40.5 -60.5t118.5 -22.5zM266 574l-114 140l35 32l118 -113h4l118 113l35 -32
l-114 -140h-82z" />
    <glyph glyph-name="uni01EA" unicode="&#x1ea;" 
d="M318 -225q-45 0 -74 22.5t-29 68.5q0 40 21.5 70t49.5 53q-58 4 -102.5 32t-74.5 73t-45.5 105.5t-15.5 131.5q0 79 18.5 141.5t52 106t79.5 66.5t102 23q55 0 101.5 -23.5t80 -67t52 -106t18.5 -140.5q0 -132 -46.5 -214t-134.5 -119q-46 -20 -69 -51.5t-23 -62.5
q0 -26 17 -38.5t38 -12.5q16 0 28 6.5t22 14.5l25 -43q-17 -15 -39.5 -25.5t-51.5 -10.5zM300 60q75 0 120.5 71t45.5 200q0 62 -12 111t-33.5 83t-52.5 52t-68 18q-38 0 -68.5 -18t-52 -52t-33.5 -83t-12 -111q0 -129 45.5 -200t120.5 -71z" />
    <glyph glyph-name="uni01EB" unicode="&#x1eb;" 
d="M324 -225q-43 0 -72 22.5t-29 70.5q0 39 21 69.5t47 51.5q-50 2 -92.5 21t-73 51.5t-48 78.5t-17.5 102q0 61 19.5 108.5t52.5 80.5t76.5 50t91.5 17t91.5 -17t76.5 -50t52.5 -80.5t19.5 -108.5q0 -51 -12 -89t-34.5 -67t-54 -50.5t-70.5 -38.5q-41 -18 -63 -50t-22 -63
q0 -29 18 -42t39 -13q19 0 32 6.5t22 14.5l24 -39q-17 -16 -40.5 -26t-54.5 -10zM300 55q35 0 63.5 13.5t49 38t31.5 59t11 76.5t-11 76.5t-31.5 59.5t-49 38.5t-63.5 13.5t-63.5 -13.5t-49 -38.5t-31.5 -59.5t-11 -76.5t11 -76.5t31.5 -59t49 -38t63.5 -13.5z" />
    <glyph glyph-name="uni01F4" unicode="&#x1f4;" 
d="M337 -12q-62 0 -114 23t-90 66.5t-59 107t-21 143.5q0 79 21.5 142.5t60 107t92 67t117.5 23.5q33 0 60 -7t49.5 -18.5t40 -25.5t31.5 -29l-47 -53q-24 26 -55 43t-79 17q-46 0 -83.5 -18.5t-64.5 -53t-41.5 -83.5t-14.5 -110q0 -62 13.5 -111.5t39 -84.5t63.5 -54
t86 -19q35 0 65 10.5t49 28.5v171h-131v69h208v-276q-31 -32 -81.5 -54t-114.5 -22zM301 697l-36 42l141 128l47 -55z" />
    <glyph glyph-name="uni01F5" unicode="&#x1f5;" 
d="M296 -224q-107 0 -165.5 35t-58.5 100q0 29 20.5 57t59.5 51v4q-20 11 -35 30t-15 50q0 23 15 47.5t43 43.5v4q-25 19 -42.5 50.5t-17.5 75.5q0 40 15.5 72t41.5 54.5t60.5 35t73.5 12.5q40 0 72 -12h201v-67h-126q17 -17 29 -43t12 -55q0 -39 -14.5 -70t-40 -52.5
t-60 -33t-73.5 -11.5q-19 0 -40.5 4.5t-41.5 13.5q-38 -24 -38 -56q0 -29 26.5 -42.5t74.5 -13.5h109q94 0 139.5 -26t45.5 -88q0 -34 -19 -65t-54 -54t-85 -37t-112 -14zM291 209q47 0 79.5 31t32.5 84q0 25 -9 46t-24 36t-35.5 23.5t-43.5 8.5t-43.5 -8.5t-35.5 -23.5
t-24 -36t-9 -46q0 -53 33 -84t79 -31zM302 -164q42 0 76 8t58 21.5t36.5 31t12.5 36.5q0 35 -27.5 47t-83.5 12h-95q-21 0 -39.5 1.5t-34.5 6.5q-35 -19 -48.5 -39.5t-13.5 -41.5q0 -38 40.5 -60.5t118.5 -22.5zM286 568l-43 41l142 168l58 -56z" />
    <glyph glyph-name="uni01F8" unicode="&#x1f8;" 
d="M82 0v656h92l210 -412l63 -136h2q-2 49 -6.5 102.5t-4.5 105.5v340h80v-656h-92l-210 412l-63 136h-2q2 -51 6.5 -102.5t4.5 -102.5v-343h-80zM339 697l-152 115l47 55l141 -128z" />
    <glyph glyph-name="uni01F9" unicode="&#x1f9;" 
d="M93 0v486h68l7 -83h4q38 41 82 68t101 27q87 0 127.5 -49.5t40.5 -146.5v-302h-82v291q0 69 -26 102.5t-86 33.5q-22 0 -40.5 -5.5t-36.5 -16.5t-37 -27.5t-40 -38.5v-339h-82zM339 568l-157 153l58 56l142 -168z" />
    <glyph glyph-name="Aringacute" unicode="&#x1fa;" 
d="M232 367l-31 -100h196l-31 100q-17 55 -33.5 109.5t-31.5 111.5h-4q-16 -57 -32 -111.5t-33 -109.5zM32 0l221 656h94l221 -656h-88l-62 200h-238l-63 -200h-85zM300 699q-42 0 -69.5 24.5t-27.5 65.5q0 24 10 43t27 31l132 105l37 -50l-79 -42q30 -8 48.5 -31t18.5 -56
q0 -41 -27.5 -65.5t-69.5 -24.5zM300 735q20 0 35.5 14t15.5 40t-15.5 40t-35.5 14q-22 0 -37 -14t-15 -40t15 -40t37 -14z" />
    <glyph glyph-name="aringacute" unicode="&#x1fb;" 
d="M246 -12q-34 0 -64 9.5t-52.5 27t-35.5 43t-13 58.5q0 41 19.5 71.5t62 52.5t109.5 36t161 22q-1 25 -8 47t-22 38.5t-39.5 26.5t-59.5 10q-48 0 -92 -18.5t-78 -39.5l-32 56q18 12 42.5 24.5t52 22.5t58.5 16.5t63 6.5q100 0 148.5 -54.5t48.5 -145.5v-298h-67l-7 66h-3
q-41 -32 -90.5 -55t-101.5 -23zM268 54q42 0 82.5 18.5t82.5 53.5v128q-78 -6 -130.5 -17t-84 -26.5t-44.5 -35t-13 -43.5q0 -21 9 -35.5t23.5 -24t34 -14t40.5 -4.5zM320 569q-52 0 -81 27.5t-29 68.5q0 26 12 47t35 34l133 97l35 -50l-73 -35q37 -8 57.5 -33.5t20.5 -59.5
q0 -41 -29 -68.5t-81 -27.5zM320 606q24 0 40.5 17t16.5 42q0 26 -16.5 42.5t-40.5 16.5t-40.5 -16.5t-16.5 -42.5q0 -25 16.5 -42t40.5 -17z" />
    <glyph glyph-name="AEacute" unicode="&#x1fc;" 
d="M231 377l-46 -119h132v332h-3q-20 -54 -41.5 -106.5t-41.5 -106.5zM-1 0l264 656h319v-70h-189v-205h147v-71h-147v-239h198v-71h-274v191h-158l-73 -191h-87zM391 697l-36 42l141 128l47 -55z" />
    <glyph glyph-name="aeacute" unicode="&#x1fd;" 
d="M145 -12q-56 0 -92 35t-36 97q0 74 58.5 119.5t190.5 62.5q-2 71 -26 99.5t-62 28.5q-30 0 -60.5 -12t-53.5 -28l-31 56q30 20 69.5 36t82.5 16q44 0 75 -23t48 -77q25 54 62 77t78 23q38 0 66 -18t46.5 -48.5t27.5 -70.5t9 -85q0 -14 -1 -28.5t-3 -27.5h-261
q4 -77 36 -121t89 -44q28 0 51.5 9t43.5 23l30 -56q-25 -18 -57.5 -30.5t-70.5 -12.5q-51 0 -88.5 22.5t-61.5 64.5q-35 -42 -74.5 -64.5t-84.5 -22.5zM167 54q28 0 59 17.5t57 51.5q-17 54 -17 119v7q-51 -8 -84 -19.5t-53 -26.5t-28 -34t-8 -41q0 -35 20.5 -54.5
t53.5 -19.5zM443 433q-38 0 -70 -34t-40 -115h197q-4 149 -87 149zM295 568l-43 41l142 168l58 -56z" />
    <glyph glyph-name="Oslashacute" unicode="&#x1fe;" 
d="M300 -12q-89 0 -154 60l-54 -80l-56 36l67 98q-26 43 -40.5 100.5t-14.5 128.5q0 79 18.5 142t52 106t79.5 66t102 23q87 0 152 -57l52 77l56 -36l-64 -94q27 -42 41.5 -99t14.5 -128q0 -81 -18.5 -144.5t-52 -107.5t-80 -67.5t-101.5 -23.5zM134 331q0 -87 23 -150
l249 364q-44 50 -106 50q-38 0 -68.5 -18t-52 -52t-33.5 -83t-12 -111zM300 61q37 0 68 18.5t52.5 53.5t33.5 85t12 113q0 89 -24 149l-250 -365q43 -54 108 -54zM271 697l-36 42l141 128l47 -55z" />
    <glyph glyph-name="oslashacute" unicode="&#x1ff;" 
d="M300 -12q-79 0 -140 43l-52 -61l-46 42l53 62q-26 32 -40.5 74t-14.5 94q0 61 19.5 108.5t52.5 80.5t76.5 50t91.5 17q79 0 140 -43l52 61l46 -42l-53 -62q26 -32 40.5 -74.5t14.5 -95.5q0 -60 -19.5 -107.5t-52.5 -80t-76.5 -49.5t-91.5 -17zM145 242q0 -60 23 -106
l224 263q-38 33 -92 33q-35 0 -63.5 -14t-49 -39t-31.5 -60t-11 -77zM300 54q35 0 63.5 14t49 38.5t31.5 59t11 76.5q0 63 -23 107l-225 -263q19 -15 42.5 -23.5t50.5 -8.5zM279 568l-43 41l142 168l58 -56z" />
    <glyph glyph-name="uni0218" unicode="&#x218;" 
d="M305 -12q-72 0 -132.5 26t-105.5 71l50 58q37 -37 86 -59.5t106 -22.5q68 0 105.5 29t37.5 75q0 26 -9 44t-25 31t-37.5 23t-46.5 21l-94 41q-25 10 -50 24t-45.5 34t-33.5 47.5t-13 63.5q0 37 16 69t44.5 55.5t68 36.5t86.5 13q62 0 114 -22.5t88 -58.5l-44 -54
q-32 29 -71 45.5t-90 16.5q-57 0 -92 -25.5t-35 -70.5q0 -24 10.5 -40.5t27 -29t37.5 -21.5l42 -18l92 -40q30 -12 56.5 -27.5t46 -36t31 -48t11.5 -63.5q0 -39 -16 -73t-46 -59.5t-73 -40t-97 -14.5zM226 -226l-8 40q63 5 86 16.5t23 31.5t-18 29.5t-53 12.5l18 38
q65 -8 91 -25.5t26 -51.5q0 -44 -42.5 -65.5t-122.5 -25.5z" />
    <glyph glyph-name="uni0219" unicode="&#x219;" 
d="M310 -12q-72 0 -133 22.5t-106 53.5l38 54q42 -30 92.5 -48t118.5 -18q62 0 92.5 22.5t30.5 53.5q0 14 -5 26t-21.5 23t-46.5 21t-79 20q-95 20 -142.5 53.5t-47.5 88.5q0 29 13 54.5t38.5 44t63 29t87.5 10.5q56 0 108 -18.5t88 -43.5l-40 -53q-34 23 -75 37t-88 14
q-62 0 -87 -21t-25 -49q0 -32 33 -48.5t108 -32.5q61 -13 100 -27.5t61.5 -32.5t31 -40t8.5 -50q0 -30 -14 -56t-41.5 -46t-68 -31.5t-92.5 -11.5zM222 -226l-8 40q63 5 86 16.5t23 31.5t-18 29.5t-53 12.5l18 38q65 -8 91 -25.5t26 -51.5q0 -44 -42.5 -65.5t-122.5 -25.5z
" />
    <glyph glyph-name="uni021A" unicode="&#x21a;" 
d="M258 0v586h-216v70h516v-70h-216v-586h-84zM213 -226l-8 40q63 5 86 16.5t23 31.5t-18 29.5t-53 12.5l18 38q65 -8 91 -25.5t26 -51.5q0 -44 -42.5 -65.5t-122.5 -25.5z" />
    <glyph glyph-name="uni021B" unicode="&#x21b;" 
d="M394 -12q-53 0 -89 14.5t-58 41t-31.5 63.5t-9.5 82v230h-137v62l140 5l11 156h68v-156h239v-67h-239v-231q0 -33 6 -57.5t20 -41.5t38 -25.5t59 -8.5t63 6t54 16l18 -60q-33 -12 -69.5 -20.5t-82.5 -8.5zM292 -226l-8 40q63 5 86 16.5t23 31.5t-18 29.5t-53 12.5l18 38
q65 -8 91 -25.5t26 -51.5q0 -44 -42.5 -65.5t-122.5 -25.5z" />
    <glyph glyph-name="uni0237" unicode="&#x237;" 
d="M194 -217q-38 0 -74 9.5t-65 23.5l27 61q26 -13 54.5 -20t56.5 -7q36 0 60 9t38 26t19.5 41.5t5.5 55.5v437h-226v67h308v-498q0 -45 -10 -82.5t-33.5 -65t-62.5 -42.5t-98 -15z" />
    <glyph glyph-name="uni0243" unicode="&#x243;" 
d="M105 0v162h-79v56l79 6v432h186q50 0 91.5 -9t71 -28t46 -49.5t16.5 -73.5q0 -49 -28 -88.5t-87 -54.5v-4q72 -11 112 -50t40 -107q0 -48 -18 -84t-50.5 -60t-78 -36t-100.5 -12h-201zM188 70h106q85 0 131 29.5t46 96.5q0 61 -45 87.5t-132 26.5h-106v-86h142v-62h-142
v-92zM188 380h89q84 0 120.5 27t36.5 82q0 54 -38.5 75.5t-114.5 21.5h-93v-206z" />
    <glyph glyph-name="uni0250" unicode="&#x250;" 
d="M292 -12q-100 0 -149 54.5t-49 145.5v298h68l7 -66h3q40 32 90 55t101 23q34 0 64.5 -9t53 -27t35.5 -43.5t13 -58.5q0 -41 -20 -71.5t-62.5 -52.5t-109 -36t-160.5 -21q1 -25 8 -47.5t22 -39t39 -26.5t59 -10q48 0 92.5 18.5t78.5 39.5l32 -56q-18 -12 -42.5 -24.5
t-52 -22.5t-58.5 -16.5t-63 -6.5zM177 232q78 6 130 17t83.5 26.5t45 35t13.5 43.5q0 21 -9 35.5t-23.5 24t-34 14t-40.5 4.5q-42 0 -82.5 -18.5t-82.5 -53.5v-128z" />
    <glyph glyph-name="uni0251" unicode="&#x251;" 
d="M270 -12q-47 0 -85.5 17t-66.5 49.5t-43 79.5t-15 108q0 59 18 106.5t49 80.5t71 51t84 18q43 0 79 -17t70 -49h3l7 54h66v-486h-68l-7 64h-3q-29 -31 -71 -53.5t-88 -22.5zM288 57q72 0 137 73v242q-33 31 -64.5 44t-63.5 13t-59.5 -13.5t-48 -38t-32.5 -58.5t-12 -76
q0 -88 37.5 -137t105.5 -49z" />
    <glyph glyph-name="uni0252" unicode="&#x252;" 
d="M320 -12q-36 0 -76 17.5t-75 48.5h-3l-7 -54h-66v486h68l7 -64h3q29 31 74 53.5t94 22.5t86.5 -17.5t63 -50t38.5 -78t13 -101.5q0 -62 -18 -111t-48.5 -83t-70.5 -51.5t-83 -17.5zM306 57q32 0 59 13t47 38t31.5 60t11.5 79q0 83 -32.5 132.5t-105.5 49.5
q-36 0 -73 -18.5t-69 -54.5v-242q35 -32 69.5 -44.5t61.5 -12.5z" />
    <glyph glyph-name="uni0253" unicode="&#x253;" 
d="M321 -12q-36 0 -76.5 17t-75.5 49h-3l-7 -54h-66v537q0 42 11 76t33.5 59t56.5 38.5t79 13.5q26 0 50 -5.5t43 -13.5l-19 -63q-17 8 -34 11.5t-32 3.5q-54 0 -79 -31t-27 -87l-4 -122h4q33 34 76.5 54t86.5 20q49 0 87 -17.5t63.5 -49t38.5 -77t13 -100.5q0 -62 -18 -110
t-48.5 -81t-70 -50.5t-82.5 -17.5zM307 57q31 0 58.5 13t47 37.5t31 59.5t11.5 79q0 79 -32.5 127.5t-104.5 48.5q-32 0 -69 -17.5t-74 -55.5v-235q35 -32 70.5 -44.5t61.5 -12.5z" />
    <glyph glyph-name="uni0254" unicode="&#x254;" 
d="M257 -12q-57 0 -107 20t-89 56l37 53q29 -26 67.5 -43.5t83.5 -17.5q42 0 76 13.5t58.5 38t38 58.5t13.5 76t-13 76.5t-36.5 59.5t-56 38.5t-71.5 13.5q-44 0 -79 -15t-66 -41l-42 53q31 29 78.5 50t113.5 21q52 0 98.5 -17t82 -50t56 -80.5t20.5 -108.5
q0 -60 -20.5 -107.5t-55.5 -80t-83.5 -49.5t-103.5 -17z" />
    <glyph glyph-name="uni0255" unicode="&#x255;" 
d="M361 54q55 0 83 16t28 41q0 18 -14 29.5t-46 11.5q-29 0 -65 -22t-70 -61q37 -15 84 -15zM185 -102l-67 28q12 32 26.5 61.5t31.5 55.5q-45 32 -70.5 82.5t-25.5 116.5q0 61 21.5 108.5t58 80.5t84.5 50t101 17q63 0 107 -20t76 -51l-40 -51q-29 27 -63.5 42t-76.5 15
q-40 0 -74 -14t-59 -39t-39.5 -60t-14.5 -78q0 -45 15.5 -80t43.5 -59q47 52 98 80t99 28q58 0 89 -27t31 -72q0 -52 -44.5 -88t-133.5 -36q-67 0 -125 23q-15 -26 -27.5 -54t-21.5 -59z" />
    <glyph glyph-name="uni0256" unicode="&#x256;" 
d="M546 -176q-63 0 -92 36.5t-29 100.5l2 100h-3q-29 -30 -69.5 -51.5t-85.5 -21.5q-47 0 -85.5 17t-66 49.5t-42.5 79.5t-15 108q0 59 18.5 106.5t49 80.5t70 51t82.5 18q44 0 78 -17t66 -46h3l-5 90v187h83v-733q0 -42 10.5 -65t39.5 -23q10 0 19 3t17 6l16 -63
q-11 -5 -26.5 -9t-34.5 -4zM288 57q70 0 134 73v242q-33 31 -65 44t-63 13t-58 -13.5t-47.5 -38t-32 -58.5t-11.5 -76q0 -88 38 -137t105 -49z" />
    <glyph glyph-name="uni0257" unicode="&#x257;" 
d="M269 -12q-95 0 -152 66t-57 188q0 59 18 106.5t48.5 80.5t70 51t82.5 18t77.5 -16.5t66.5 -46.5h3l-2 90v56q0 68 32 106.5t98 38.5q17 0 31 -2.5t25 -7.5l-16 -63q-7 2 -14.5 4t-16.5 2q-33 0 -46 -25t-13 -67v-567h-68l-7 64h-3q-29 -31 -70.5 -53.5t-86.5 -22.5z
M287 57q70 0 135 73v242q-33 31 -65 44t-64 13q-30 0 -57 -13.5t-47.5 -38t-32 -58.5t-11.5 -76q0 -88 37.5 -137t104.5 -49z" />
    <glyph glyph-name="uni0258" unicode="&#x258;" 
d="M290 433q-63 0 -105 -37t-48 -112h310q-11 72 -54 110.5t-103 38.5zM270 -12q-59 0 -105 17t-82 40l29 54q34 -21 69.5 -33t79.5 -12q37 0 70 10.5t58 31.5t40.5 52t19.5 72h-383q-2 9 -2.5 23t-0.5 27q0 51 16.5 93t47 72t73.5 46.5t95 16.5q48 0 91 -17.5t75 -50.5
t51 -80.5t19 -107.5t-20.5 -107t-56 -79.5t-83 -50t-101.5 -17.5z" />
    <glyph glyph-name="uni0259" unicode="&#x259;" 
d="M297 -12q-55 0 -97.5 17.5t-71.5 48.5t-44 74.5t-15 95.5q0 13 1 27t3 23h381q-8 79 -54 119t-121 40q-44 0 -80 -12.5t-69 -33.5l-30 54q37 23 83 40t105 17q55 0 101 -17.5t79 -50t51 -79.5t18 -107q0 -61 -18.5 -108.5t-51 -80.5t-76.5 -50t-94 -17zM295 54
q66 0 108.5 39t50.5 117h-311q5 -78 44.5 -117t107.5 -39z" />
    <glyph glyph-name="uni025A" unicode="&#x25a;" 
d="M217 -12q-46 0 -81 16.5t-59 44.5t-37.5 66t-17.5 82l305 131q-17 56 -50.5 80.5t-76.5 24.5q-38 0 -66 -11.5t-54 -29.5l-29 56q32 23 69.5 36.5t86.5 13.5q68 0 118 -35t75 -104l73 32l43 -17q2 -29 6 -46.5t10 -27.5t14 -13.5t19 -3.5q10 0 19 5t15 10l22 -43
q-11 -9 -26.5 -17t-35.5 -8q-29 0 -55.5 20t-36.5 74l-53 -22q2 -16 3.5 -32.5t1.5 -33.5q0 -54 -14.5 -99.5t-41 -78.5t-63.5 -51.5t-83 -18.5zM216 53q28 0 51.5 12t39.5 34t25 53t9 68q0 14 -0.5 26t-1.5 24l-245 -104q14 -60 45.5 -86.5t76.5 -26.5z" />
    <glyph glyph-name="uni025B" unicode="&#x25b;" 
d="M318 -12q-51 0 -92.5 9.5t-71.5 28.5t-46.5 46.5t-16.5 62.5q0 52 33 80t81 41v4q-42 16 -65.5 44t-23.5 64q0 33 15.5 57.5t43.5 40.5t66.5 24t84.5 8q61 0 109.5 -17t87.5 -45l-33 -54q-35 24 -72.5 37.5t-87.5 13.5q-64 0 -98 -18.5t-34 -56.5q0 -74 147 -74h53v-64
h-67q-77 0 -117.5 -18t-40.5 -60q0 -43 41 -65.5t117 -22.5q49 0 90.5 13.5t77.5 45.5l36 -54q-46 -40 -98.5 -55.5t-118.5 -15.5z" />
    <glyph glyph-name="uni025C" unicode="&#x25c;" 
d="M280 -12q-60 0 -113 15.5t-105 57.5l36 54q42 -35 86 -48t89 -13q76 0 117 22.5t41 64.5t-38.5 60.5t-111.5 18.5h-84v64h72q70 0 104.5 19.5t34.5 55.5q0 74 -134 74q-53 0 -90.5 -13.5t-75.5 -41.5l-34 55q42 31 91.5 48t113.5 17q46 0 84.5 -8t66.5 -24t43.5 -41
t15.5 -58q0 -36 -21.5 -63.5t-65.5 -44.5v-4q50 -13 80.5 -40.5t30.5 -80.5q0 -35 -17 -62t-47.5 -46t-73.5 -28.5t-95 -9.5z" />
    <glyph glyph-name="uni025E" unicode="&#x25e;" 
d="M327 -12q-57 0 -105.5 16t-84.5 48t-56 79.5t-20 109.5q0 63 21.5 111.5t57.5 80.5t83 48.5t98 16.5q40 0 75 -8t61 -24t40.5 -41t14.5 -58q0 -36 -21 -65t-63 -43v-4q22 -5 42 -15t35 -25t23.5 -35t8.5 -46q0 -70 -56.5 -108t-153.5 -38zM328 54q61 0 94 22.5t33 64.5
q0 40 -35.5 59.5t-89.5 19.5h-35v64h27q52 0 81 20t29 54q0 38 -29.5 56.5t-78.5 18.5q-38 0 -71 -13t-57 -37.5t-38 -60.5t-14 -81q0 -93 49.5 -140t134.5 -47z" />
    <glyph glyph-name="uni025F" unicode="&#x25f;" 
d="M194 -217q-38 0 -74 9.5t-65 23.5l27 61q26 -13 54.5 -20t56.5 -7q36 0 60 9t38 26t19.5 41.5t5.5 55.5v224h-194v60l194 6v147h-226v67h308v-214h166v-66h-166v-218q0 -45 -10 -82.5t-33.5 -65t-62.5 -42.5t-98 -15z" />
    <glyph glyph-name="uni0260" unicode="&#x260;" 
d="M279 -216q-48 0 -95.5 13.5t-88.5 39.5l31 58q37 -24 76.5 -34.5t76.5 -10.5q70 0 106 34.5t37 93.5l4 97h-3q-28 -29 -68.5 -49.5t-85.5 -20.5q-47 0 -85.5 17t-66 48.5t-42.5 77t-15 102.5t18.5 103t49 78t70.5 49.5t83 17.5t78 -17t64 -46h3l-2 48q0 66 31.5 106
t99.5 40q17 0 31 -2.5t25 -7.5l-16 -63q-14 6 -31 6q-33 0 -46 -25t-13 -67v-494q0 -91 -60 -141.5t-166 -50.5zM288 73q69 0 134 73v226q-33 32 -65 44.5t-63 12.5t-58 -13t-47.5 -37t-32 -56.5t-11.5 -71.5q0 -82 38 -130t105 -48z" />
    <glyph glyph-name="uni0261" unicode="&#x261;" 
d="M280 -217q-48 0 -96.5 13t-88.5 39l30 59q38 -24 78 -34.5t77 -10.5q70 0 107.5 35t39.5 94l2 97h-3q-29 -29 -70 -49.5t-86 -20.5q-47 0 -85.5 17t-66.5 48.5t-43 77t-15 102.5t18 103t48.5 78t71 49.5t84.5 17.5q43 0 80 -17.5t69 -48.5h3l7 54h66v-505q0 -92 -59 -145
t-168 -53zM288 73q70 0 137 73v226q-33 31 -65 44t-64 13q-31 0 -58.5 -13t-48.5 -37t-33 -56.5t-12 -71.5q0 -82 38.5 -130t105.5 -48z" />
    <glyph glyph-name="uni0262" unicode="&#x262;" 
d="M339 -12q-54 0 -101.5 16.5t-83 49t-56 80t-20.5 109.5q0 60 21.5 107t58 80t84.5 50.5t102 17.5q65 0 107.5 -21t72.5 -49l-41 -52q-26 23 -56.5 40t-78.5 17q-38 0 -71.5 -12.5t-59 -37t-40.5 -60t-15 -80.5q0 -44 13.5 -79t38 -59.5t57.5 -37.5t72 -13q33 0 61.5 10
t49.5 27v112h-134v59h206v-205q-31 -29 -79 -49t-108 -20z" />
    <glyph glyph-name="uni0263" unicode="&#x263;" 
d="M302 -224q-56 0 -86 32.5t-30 85.5q0 18 4.5 35t13 35.5t19.5 40t25 47.5l-197 434h84l113 -266q14 -35 25.5 -62t26.5 -61h4q15 34 27 61t26 62l112 266h80l-193 -434q13 -26 24.5 -47.5t20 -40t13 -35.5t4.5 -35q0 -53 -30 -85.5t-86 -32.5zM302 -167q23 0 34 17t11 42
q0 26 -12 55.5t-31 63.5h-5q-18 -34 -30 -64.5t-12 -54.5q0 -25 11 -42t34 -17z" />
    <glyph glyph-name="uni0264" unicode="&#x264;" 
d="M300 -12q-86 0 -136 45t-50 124q0 56 36 107t93 99q-31 34 -56 50.5t-53 16.5t-48 -14l-26 60q16 11 38.5 16.5t45.5 5.5q41 0 78.5 -22.5t77.5 -64.5q39 42 77 64.5t79 22.5q23 0 45.5 -5.5t38.5 -16.5l-26 -60q-20 14 -48 14q-29 0 -53.5 -16.5t-55.5 -50.5
q57 -48 93 -99t36 -107q0 -79 -50 -124t-136 -45zM300 56q50 0 78.5 29t28.5 74q0 44 -30 84.5t-77 80.5q-47 -40 -77 -80.5t-30 -84.5q0 -45 28.5 -74t78.5 -29z" />
    <glyph glyph-name="uni0265" unicode="&#x265;" 
d="M425 -205v174l4 114q-39 -40 -83 -67.5t-101 -27.5q-87 0 -127.5 49.5t-40.5 146.5v302h82v-291q0 -69 26 -102.5t86 -33.5q22 0 40.5 5.5t36.5 16.5t37 27.5t40 38.5v339h82v-691h-82z" />
    <glyph glyph-name="uni0266" unicode="&#x266;" 
d="M93 0v537q0 42 11 76t33.5 59t56.5 38.5t79 13.5q26 0 50 -5.5t43 -13.5l-19 -63q-17 8 -34 11.5t-32 3.5q-54 0 -79 -31t-27 -87l-6 -143h4q38 40 81.5 67.5t100.5 27.5q87 0 127.5 -50t40.5 -147v-294h-82v284q0 69 -26 102t-86 33q-22 0 -40.5 -5.5t-36.5 -16.5
t-37 -27t-40 -38v-332h-82z" />
    <glyph glyph-name="uni0267" unicode="&#x267;" 
d="M384 -183q-24 0 -44 4.5t-34 9.5l16 63q11 -4 24.5 -7t28.5 -3q40 0 53 27t13 75v298q0 69 -26 102t-86 33q-22 0 -40.5 -5.5t-36.5 -16.5t-37 -27t-40 -38v-332h-82v537q0 42 11 76t33.5 59t56.5 38.5t79 13.5q26 0 49.5 -5.5t43.5 -13.5l-19 -63q-35 15 -66 15
q-54 0 -79 -31t-27 -87l-6 -143h4q38 40 81.5 67.5t100.5 27.5q87 0 127.5 -50t40.5 -147v-308q0 -78 -31.5 -123.5t-107.5 -45.5z" />
    <glyph glyph-name="uni0268" unicode="&#x268;" 
d="M132 210v56l184 6v147h-226v67h308v-214h166v-62h-166v-210h-82v210h-184zM348 588q-28 0 -47 17.5t-19 46.5t19 46.5t47 17.5t47 -17.5t19 -46.5t-19 -46.5t-47 -17.5z" />
    <glyph glyph-name="uni026A" unicode="&#x26a;" 
d="M86 0v67h172v352h-172v67h428v-67h-174v-352h174v-67h-428z" />
    <glyph glyph-name="uni026B" unicode="&#x26b;" 
d="M407 -12q-78 0 -119 44t-41 131v482h-173v67h255v-555q0 -54 26 -77.5t70 -23.5q43 0 91 22l21 -61q-34 -14 -62 -21.5t-68 -7.5zM383 315q-33 0 -57 13t-44.5 29t-39.5 29t-41 13t-33 -21.5t-13 -56.5l-55 10q1 27 7 50.5t17.5 40.5t29 27t41.5 10q33 0 57.5 -13t45 -29
t39 -29t40.5 -13t33 21.5t13 55.5l55 -9q-2 -27 -7.5 -50.5t-17 -40.5t-29 -27t-41.5 -10z" />
    <glyph glyph-name="uni026C" unicode="&#x26c;" 
d="M232 302q-84 0 -120 29.5t-36 76.5q0 38 25.5 62t64.5 24q28 0 47.5 -9.5t33.5 -24.5v185h-173v67h255v-346h140v-64h-140v-145q0 -54 26 -77.5t70 -23.5q43 0 91 22l21 -61q-34 -14 -62 -21.5t-68 -7.5q-78 0 -119 44t-41 131v139h-15zM214 366h33v6q0 23 -17.5 43.5
t-55.5 20.5q-14 0 -23 -8.5t-9 -23.5q0 -38 72 -38z" />
    <glyph glyph-name="uni026D" unicode="&#x26d;" 
d="M406 -183q-78 0 -118.5 44t-40.5 131v653h-173v67h255v-726q0 -54 25.5 -77t69.5 -23q21 0 43 5t49 17l21 -62q-33 -12 -62 -20.5t-69 -8.5z" />
    <glyph glyph-name="uni026E" unicode="&#x26e;" 
d="M358 -217q-75 0 -123.5 24t-79.5 54l41 52q26 -25 62.5 -43.5t92.5 -18.5q28 0 53 10.5t43.5 30t29 47t10.5 61.5q0 62 -35 97t-97 35q-26 0 -39.5 -3.5t-30.5 -11.5l-34 44l195 258h-285v-419h-82v712h82v-226h388v-44l-191 -252q52 4 91.5 -9.5t66.5 -39.5t41 -62
t14 -77q0 -53 -18 -93.5t-47.5 -68.5t-68 -42.5t-79.5 -14.5z" />
    <glyph glyph-name="uni026F" unicode="&#x26f;" 
d="M542 486v-486h-66l-7 64h-2q-19 -34 -44 -55t-67 -21q-71 0 -92 84q-21 -39 -46.5 -61.5t-67.5 -22.5q-51 0 -79.5 38.5t-28.5 111.5v348h82v-342q0 -85 52 -85q26 0 42 18.5t36 56.5v352h76v-342q0 -42 11.5 -63.5t38.5 -21.5q26 0 44 18.5t36 56.5v352h82z" />
    <glyph glyph-name="uni0270" unicode="&#x270;" 
d="M464 -205v172l6 100h-4q-20 -37 -44 -58t-66 -21q-71 0 -92 84q-21 -39 -46.5 -61.5t-67.5 -22.5q-51 0 -79.5 38.5t-28.5 111.5v348h82v-342q0 -85 52 -85q26 0 42 18.5t36 56.5v352h76v-342q0 -42 11.5 -63.5t38.5 -21.5q26 0 44 18.5t36 56.5v352h82v-691h-78z" />
    <glyph glyph-name="uni0271" unicode="&#x271;" 
d="M435 -183q-20 0 -37 3.5t-29 8.5l16 63q8 -3 19 -5.5t22 -2.5q32 0 41 24t9 64v370q0 85 -52 85q-26 0 -42 -18.5t-36 -56.5v-352h-76v342q0 42 -11.5 63.5t-38.5 21.5q-26 0 -44 -18.5t-36 -56.5v-352h-82v486h66l7 -64h2q19 34 44 55t67 21q71 0 92 -84
q21 39 46.5 61.5t67.5 22.5q51 0 79.5 -38.5t28.5 -111.5v-380q0 -71 -28.5 -111t-94.5 -40z" />
    <glyph glyph-name="uni0272" unicode="&#x272;" 
d="M56 -183q-19 0 -34.5 4t-26.5 9l16 63q8 -3 17 -6t19 -3q29 0 39.5 23t10.5 65v514h68l7 -83h4q38 41 81 68t99 27q86 0 126.5 -49.5t40.5 -146.5v-302h-82v291q0 72 -26 104t-83 32q-22 0 -40.5 -5.5t-36.5 -16.5t-36 -27.5t-39 -38.5v-367q0 -72 -28 -113.5t-96 -41.5z
" />
    <glyph glyph-name="uni0273" unicode="&#x273;" 
d="M560 -183q-68 0 -95.5 41.5t-27.5 113.5v319q0 72 -26 104t-84 32q-43 0 -76 -22t-76 -66v-339h-82v486h68l7 -83h4q38 41 80.5 68t98.5 27q87 0 127.5 -49.5t40.5 -146.5v-330q0 -42 10.5 -65t39.5 -23q10 0 19 3t17 6l16 -63q-11 -5 -26.5 -9t-34.5 -4z" />
    <glyph glyph-name="uni0274" unicode="&#x274;" 
d="M96 0v486h79l188 -275q15 -23 33 -52t34 -52h4q-3 48 -5.5 93t-2.5 84v202h78v-486h-79l-188 275q-15 23 -33.5 52t-33.5 52h-4q3 -48 5.5 -93t2.5 -84v-202h-78z" />
    <glyph glyph-name="uni0275" unicode="&#x275;" 
d="M300 -12q-48 0 -91.5 16t-76.5 48t-52.5 79.5t-19.5 110.5t19.5 111t52.5 80.5t76.5 48.5t91.5 16t91.5 -16t76.5 -48.5t52.5 -80.5t19.5 -111t-19.5 -110.5t-52.5 -79.5t-76.5 -48t-91.5 -16zM300 434q-63 0 -105.5 -39t-53.5 -111h318q-11 72 -53.5 111t-105.5 39z
M300 53q68 0 111.5 43.5t49.5 123.5h-322q6 -80 49.5 -123.5t111.5 -43.5z" />
    <glyph glyph-name="uni0276" unicode="&#x276;" 
d="M238 -12q-42 0 -79.5 16.5t-65 48.5t-44 79.5t-16.5 110.5t16.5 110.5t44 79.5t65 48.5t79.5 16.5q24 0 46.5 -2t51.5 -10h241v-68h-190v-134h153v-64h-153v-152h200v-68h-251q-28 -7 -51 -9.5t-47 -2.5zM245 55q15 0 32.5 3.5t33.5 8.5v351q-15 5 -32.5 8.5t-33.5 3.5
q-27 0 -50 -11.5t-40 -35t-27 -58.5t-10 -82q0 -48 10 -83.5t27 -59t40 -34.5t50 -11z" />
    <glyph glyph-name="uni0278" unicode="&#x278;" 
d="M128 244q0 -85 37.5 -133.5t94.5 -53.5v372q-57 -5 -94.5 -52.5t-37.5 -132.5zM472 244q0 85 -37.5 132.5t-94.5 52.5v-372q57 5 94.5 53.5t37.5 133.5zM260 -205v196q-44 3 -83 20.5t-68.5 49.5t-47 78t-17.5 105q0 58 17.5 104t47 77.5t68.5 49t83 20.5v217h80v-217
q43 -3 82.5 -20.5t69 -49t47 -77.5t17.5 -104q0 -59 -17.5 -105t-47 -78t-69 -49.5t-82.5 -20.5v-196h-80z" />
    <glyph glyph-name="uni0279" unicode="&#x279;" 
d="M454 486v-486h-68l-7 115h-3q-38 -59 -93.5 -93t-123.5 -34q-27 0 -50 4.5t-46 15.5l19 71q26 -9 43.5 -13t46.5 -4q55 0 105.5 31.5t94.5 107.5v285h82z" />
    <glyph glyph-name="uni027A" unicode="&#x27a;" 
d="M159 -12q-27 0 -50 4.5t-46 15.5l19 71q26 -9 43.5 -13t46.5 -4q55 0 105.5 31.5t94.5 107.5v511h82v-712h-68l-7 115h-3q-38 -59 -93.5 -93t-123.5 -34z" />
    <glyph glyph-name="uni027B" unicode="&#x27b;" 
d="M436 -183q-74 0 -104 41.5t-30 116.5v117h-3q-25 -48 -62.5 -76t-86.5 -28q-21 0 -42.5 4.5t-44.5 15.5l19 71q22 -9 37.5 -13t39.5 -4q37 0 73.5 26.5t62.5 92.5v305h82v-501q0 -54 15 -77.5t53 -23.5q14 0 29.5 4.5t27.5 9.5l18 -62q-15 -8 -38 -13.5t-46 -5.5z" />
    <glyph glyph-name="uni027D" unicode="&#x27d;" 
d="M333 -183q-53 0 -89 14.5t-57.5 41t-31 63.5t-9.5 82v468h68l7 -115h3q38 59 93.5 93t123.5 34q27 0 50 -4.5t46 -15.5l-19 -71q-26 9 -43.5 13t-46.5 4q-55 0 -105.5 -31.5t-94.5 -107.5v-268q0 -33 6 -57.5t20 -41.5t38 -25.5t59 -8.5t63 6t54 16l17 -60
q-33 -12 -68.5 -20.5t-83.5 -8.5z" />
    <glyph glyph-name="uni027E" unicode="&#x27e;" 
d="M146 0v249q0 60 18 106.5t51 78t80 48t106 16.5q81 0 136 -20l-19 -71q-31 11 -55 14.5t-53 3.5q-36 0 -69 -11t-58 -34.5t-40 -60t-15 -87.5v-232h-82z" />
    <glyph glyph-name="uni0280" unicode="&#x280;" 
d="M99 0v486h240q39 0 73 -7.5t58.5 -24.5t38.5 -44.5t14 -67.5q0 -63 -36 -98.5t-87 -47.5l145 -196h-93l-137 190h-133v-190h-83zM182 254h143q55 0 85.5 21.5t30.5 64.5q0 44 -30.5 62t-85.5 18h-143v-166z" />
    <glyph glyph-name="uni0281" unicode="&#x281;" 
d="M501 486v-486h-240q-39 0 -73 7.5t-58.5 24.5t-38.5 44.5t-14 67.5q0 63 36 98.5t87 47.5l-145 196h93l137 -190h133v190h83zM418 232h-143q-55 0 -85.5 -21.5t-30.5 -64.5q0 -44 30.5 -62t85.5 -18h143v166z" />
    <glyph glyph-name="uni0282" unicode="&#x282;" 
d="M197 -183q-67 0 -96.5 41t-29.5 121v85l38 54q42 -30 92.5 -48t118.5 -18q62 0 92.5 22.5t30.5 53.5q0 14 -5 26t-21.5 23t-46.5 21t-79 20q-95 20 -142.5 53.5t-47.5 88.5q0 29 13 54.5t38.5 44t63 29t87.5 10.5q56 0 108 -18.5t88 -43.5l-40 -53q-34 23 -75 37t-88 14
q-62 0 -87 -21t-25 -49q0 -32 33 -48.5t108 -32.5q61 -13 100 -27.5t61.5 -32.5t31 -40t8.5 -50q0 -30 -14 -56t-41.5 -46t-68 -31.5t-92.5 -11.5q-45 0 -87 9.5t-78 25.5v-53q0 -39 12.5 -63t48.5 -24q13 0 25 2.5t21 5.5l16 -61q-12 -5 -30 -9t-41 -4z" />
    <glyph glyph-name="uni0283" unicode="&#x283;" 
d="M187 -217q-40 0 -71 9t-60 23l26 61q23 -11 46 -18.5t49 -7.5q25 0 41.5 8.5t25.5 24.5t12.5 38.5t3.5 49.5v567q0 88 38 138t128 50q36 0 62 -8.5t53 -22.5l-23 -61q-22 11 -41 18t-42 7q-28 0 -46 -8.5t-28.5 -24.5t-14.5 -38.5t-4 -49.5v-568q0 -88 -35 -137.5
t-120 -49.5z" />
    <glyph glyph-name="uni0284" unicode="&#x284;" 
d="M187 -217q-40 0 -71 9t-60 23l26 61q23 -11 46 -18.5t49 -7.5q25 0 41.5 8.5t25.5 24.5t12.5 38.5t3.5 49.5v251h-176v58l176 6v252q0 88 38 138t128 50q36 0 62 -8.5t53 -22.5l-23 -61q-22 11 -41 18t-42 7q-28 0 -46 -8.5t-28.5 -24.5t-14.5 -38.5t-4 -49.5v-252h174
v-64h-174v-252q0 -88 -35 -137.5t-120 -49.5z" />
    <glyph glyph-name="uni0287" unicode="&#x287;" 
d="M206 498q53 0 89 -14.5t58 -41t31.5 -63.5t9.5 -82v-230h137v-62l-140 -5l-11 -156h-68v156h-239v67h239v231q0 65 -26.5 99t-96.5 34q-35 0 -63 -6t-54 -16l-18 60q33 12 69.5 20.5t82.5 8.5z" />
    <glyph glyph-name="uni0288" unicode="&#x288;" 
d="M393 -183q-53 0 -89 14.5t-57.5 41t-31 63.5t-9.5 82v401h-137v62l140 5l11 156h68v-156h239v-67h-239v-402q0 -33 6 -57.5t20 -41.5t38 -25.5t59 -8.5t63 6t54 16l18 -60q-33 -12 -73 -20.5t-80 -8.5z" />
    <glyph glyph-name="uni0289" unicode="&#x289;" 
d="M272 60q38 0 66.5 19t63.5 63v112h-222v-66q0 -68 22 -98t70 -30zM246 -12q-77 0 -112.5 48t-35.5 142v76h-96v58l96 6v168h82v-168h222v168h82v-168h102v-64h-102v-254h-68l-6 76h-2q-35 -41 -73 -64.5t-89 -23.5z" />
    <glyph glyph-name="uni028A" unicode="&#x28a;" 
d="M300 -12q-57 0 -101 18.5t-74.5 49.5t-46.5 71t-16 82q0 37 8.5 68.5t22 57t30 46t33.5 36.5v2h-106v67h195v-53q-43 -36 -71 -85t-28 -122q0 -34 9.5 -65t29 -54t48.5 -37t67 -14t67 14t48.5 37t29 54t9.5 65q0 73 -28 122t-71 85v53h195v-67h-106v-2q16 -16 33 -36.5
t30.5 -46t22 -57t8.5 -68.5q0 -42 -16 -82t-46.5 -71t-74.5 -49.5t-101 -18.5z" />
    <glyph glyph-name="uni028B" unicode="&#x28b;" 
d="M297 -12q-47 0 -87.5 13t-70 40.5t-46 70t-16.5 100.5v274h83v-267q0 -44 11 -75t30 -50.5t44.5 -28.5t54.5 -9q37 0 66 17t49 47.5t30 71.5t10 89q0 74 -21.5 112.5t-66.5 38.5q-14 0 -19.5 -1.5t-15.5 -4.5l-13 64q14 4 27.5 6t37.5 2q71 0 113.5 -50t42.5 -155
q0 -66 -15.5 -122t-46 -96.5t-76 -63.5t-105.5 -23z" />
    <glyph glyph-name="uni028C" unicode="&#x28c;" 
d="M344 486l205 -486h-83l-112 276q-15 37 -28.5 72.5t-26.5 70.5h-4q-13 -35 -25.5 -70.5t-27.5 -72.5l-112 -276h-79l201 486h92z" />
    <glyph glyph-name="uni028D" unicode="&#x28d;" 
d="M486 486l106 -486h-82l-58 282q-7 35 -12 67t-10 67h-4q-5 -35 -12.5 -67.5t-15.5 -66.5l-60 -252h-82l-58 252q-8 35 -16.5 67t-13.5 67h-4q-6 -35 -10.5 -67t-11.5 -67l-58 -282h-76l104 486h106l56 -232q12 -51 24 -144h4q12 93 24 144l54 232h106z" />
    <glyph glyph-name="uni028E" unicode="&#x28e;" 
d="M49 0l226 554q13 36 31 67t42 54t55 36t70 13q17 0 33.5 -2.5t30.5 -7.5l-18 -65q-9 3 -19.5 5t-22.5 2q-48 0 -78.5 -30t-47.5 -76l-27 -63l227 -487h-83l-119 269q-14 32 -29.5 69t-30.5 72h-4q-13 -35 -26.5 -71.5t-25.5 -69.5l-106 -269h-78z" />
    <glyph glyph-name="uni028F" unicode="&#x28f;" 
d="M260 0v164l-203 322h89l85 -138q17 -32 34.5 -60.5t34.5 -61.5h4q17 33 33 61.5t36 60.5l84 138h88l-203 -322v-164h-82z" />
    <glyph glyph-name="uni0290" unicode="&#x290;" 
d="M559 -183q-68 0 -96 40.5t-28 106.5v36h-364v44l326 375h-289v67h407v-44l-327 -375h329v-95q0 -42 11 -65t40 -23q10 0 19 3t17 6l16 -63q-11 -5 -26.5 -9t-34.5 -4z" />
    <glyph glyph-name="uni0291" unicode="&#x291;" 
d="M358 -116l-62 10q5 29 10.5 55.5t12.5 50.5h-248v44l324 375h-287v67h395v-44l-323 -375q45 -1 83.5 -1.5t75.5 -0.5q57 151 153 151q39 0 64.5 -24.5t25.5 -65.5q0 -54 -39 -90t-117 -36h-45q-6 -25 -12 -53.5t-11 -62.5zM445 64q37 0 56 17.5t19 40.5q0 17 -9.5 25.5
t-24.5 8.5q-21 0 -42.5 -21t-41.5 -71h43z" />
    <glyph glyph-name="uni0292" unicode="&#x292;" 
d="M288 -217q-42 0 -76 8t-62 21.5t-50 30t-41 34.5l40 53q16 -15 34.5 -29.5t40.5 -25.5t48.5 -17.5t58.5 -6.5q33 0 63 11t52 31t35 48t13 63q0 65 -43 101.5t-124 36.5q-16 0 -28 -1.5t-22.5 -4.5t-21 -8t-24.5 -11l-33 46l251 256h-300v67h407v-44l-238 -248q24 6 43 6
q51 0 91 -14t67.5 -39.5t42.5 -61.5t15 -79q0 -54 -20 -95.5t-53 -70t-76.5 -43t-89.5 -14.5z" />
    <glyph glyph-name="uni0294" unicode="&#x294;" 
d="M239 0v311q49 28 84.5 52t58 49t33.5 51.5t11 59.5q0 61 -38.5 97t-110.5 36q-57 0 -96.5 -24.5t-65.5 -56.5l-44 53q16 18 37 35.5t47 31t58 21.5t70 8q47 0 88.5 -12.5t72 -38t48.5 -63t18 -86.5q0 -44 -14 -78t-39 -63.5t-60 -55t-76 -52.5v-275h-82z" />
    <glyph glyph-name="uni0295" unicode="&#x295;" 
d="M278 0v275q-42 27 -76.5 52.5t-59.5 55t-39 63.5t-14 78q0 49 17.5 86.5t48.5 63t72 38t88 12.5q39 0 70.5 -8t58 -21.5t47 -31t36.5 -35.5l-43 -53q-27 32 -66.5 56.5t-96.5 24.5q-71 0 -110 -36t-39 -97q0 -33 11 -59.5t34 -51.5t58.5 -49t84.5 -52v-311h-82z" />
    <glyph glyph-name="uni0298" unicode="&#x298;" 
d="M300 -12q-55 0 -99 22t-75.5 67.5t-48.5 115.5t-17 166q0 89 17 157.5t48.5 114.5t75.5 69.5t99 23.5t99.5 -23.5t76 -69.5t48.5 -114.5t17 -157.5q0 -96 -17 -166t-48.5 -115.5t-76 -67.5t-99.5 -22zM300 56q34 0 64 16t51.5 52t34 93.5t12.5 141.5q0 76 -12.5 132
t-34 93t-51.5 54.5t-64 17.5q-35 0 -64.5 -17.5t-51 -54.5t-34 -93t-12.5 -132q0 -84 12.5 -141.5t34 -93.5t51 -52t64.5 -16zM300 296q-25 0 -43.5 18t-18.5 45q0 29 18.5 46.5t43.5 17.5t43.5 -17.5t18.5 -46.5q0 -27 -18.5 -45t-43.5 -18z" />
    <glyph glyph-name="uni0299" unicode="&#x299;" 
d="M115 0v486h225q42 0 77 -7t59.5 -21.5t38.5 -38t14 -56.5q0 -41 -23 -66.5t-62 -37.5v-3q21 -5 40.5 -14t34 -23.5t23 -34t8.5 -45.5q0 -36 -15 -62t-42 -43.5t-64 -25.5t-81 -8h-233zM196 284h130q66 0 94.5 18.5t28.5 52.5t-27.5 49.5t-89.5 15.5h-136v-136zM196 66
h143q66 0 97.5 18.5t31.5 59.5q0 76 -134 76h-138v-154z" />
    <glyph glyph-name="uni029C" unicode="&#x29c;" 
d="M93 0v486h82v-197h250v197h82v-486h-82v216h-250v-216h-82z" />
    <glyph glyph-name="uni029D" unicode="&#x29d;" 
d="M418 -250q-15 29 -30.5 52t-32.5 43q-24 -29 -62 -45.5t-92 -16.5q-70 0 -107.5 33t-37.5 78t33 72.5t96 27.5q32 0 65 -8t66 -25v2v456h-226v67h308v-506q0 -41 -10 -72q26 -24 49.5 -55.5t44.5 -72.5zM200 -152q40 0 64 13.5t36 34.5q-29 21 -58 30t-58 9
q-32 0 -47 -11.5t-15 -28.5q0 -20 20 -33.5t58 -13.5zM348 588q-28 0 -47 17.5t-19 46.5t19 46.5t47 17.5t47 -17.5t19 -46.5t-19 -46.5t-47 -17.5z" />
    <glyph glyph-name="uni029E" unicode="&#x29e;" 
d="M412 -205v461h-4l-281 -256h-99l218 201l-192 285h85l159 -237l114 105v132h82v-691h-82z" />
    <glyph glyph-name="uni029F" unicode="&#x29f;" 
d="M148 0v486h82v-419h302v-67h-384z" />
    <glyph glyph-name="uni02A1" unicode="&#x2a1;" 
d="M239 0v251h-165v58l76 5h102q83 48 128.5 98.5t45.5 110.5q0 61 -37.5 97t-107.5 36q-58 0 -98 -25t-68 -56l-44 53q16 18 37.5 35t48 30.5t59 22t71.5 8.5q46 0 87 -12.5t71 -38t47.5 -63t17.5 -86.5q0 -36 -12 -66t-31.5 -55.5t-46 -47.5t-54.5 -41h152v-63h-197v-251
h-82z" />
    <glyph glyph-name="uni02A2" unicode="&#x2a2;" 
d="M279 0v251h-197v58l76 5h76q-29 19 -55 41t-45.5 47.5t-31.5 55.5t-12 66q0 49 17.5 86.5t47.5 63t70.5 38t87.5 12.5q39 0 71.5 -8.5t59 -22t47.5 -30.5t38 -35l-44 -53q-28 31 -68 56t-98 25q-70 0 -108 -36t-38 -97q0 -60 46 -110.5t128 -98.5h179v-63h-165v-251h-82z
" />
    <glyph glyph-name="uni02A4" unicode="&#x2a4;" 
d="M172 57q26 0 45.5 21t34.5 54v240q-17 27 -33.5 42t-40.5 15q-21 0 -39 -13.5t-30.5 -38t-19.5 -59t-7 -75.5q0 -87 22.5 -136.5t67.5 -49.5zM450 -217q-50 0 -83 16.5t-59 42.5l39 52q20 -20 42.5 -31.5t54.5 -11.5q41 0 66.5 37t25.5 112q0 63 -22.5 97.5t-66.5 34.5
q-16 0 -26 -3.5t-24 -11.5l-33 52l146 250h-182v-419h-59l-7 58h-3q-16 -27 -42.5 -48.5t-61.5 -21.5q-34 0 -62.5 17t-49 50t-32 80t-11.5 107q0 58 13.5 105.5t36 81t52 51.5t62.5 18q30 0 52.5 -15t37.5 -41h2l-4 93v177h76v-226h269v-44l-141 -247q4 1 12 1
q36 0 63.5 -15.5t47 -42t29.5 -62.5t10 -76q0 -52 -13 -92.5t-35.5 -68t-53.5 -42t-66 -14.5z" />
    <glyph glyph-name="uni02A6" unicode="&#x2a6;" 
d="M328 -12q-65 0 -109 12.5t-71 36.5t-38.5 59t-11.5 80v243h-73v62l76 5l10 156h69v-156h188q30 12 68 12q37 0 69.5 -12.5t58.5 -35.5l-32 -48q-22 17 -43 26t-47 9q-29 0 -46.5 -15t-17.5 -43q0 -23 14 -38.5t35.5 -28.5t46.5 -27t46.5 -34t35.5 -48t14 -70
q0 -34 -13 -61t-41.5 -45.5t-74.5 -28.5t-113 -10zM332 52q92 0 127.5 22t35.5 60q0 31 -14.5 52t-36 36.5t-47 29.5t-47 31t-36 40t-14.5 58q0 20 5 38h-125v-244q0 -33 7.5 -56t25.5 -38t47 -22t72 -7z" />
    <glyph glyph-name="uni02A7" unicode="&#x2a7;" 
d="M353 -217q-22 0 -39.5 4t-30.5 9l17 62q9 -3 21 -5.5t25 -2.5q34 0 45 25t11 70v474h-199v-270q0 -45 15 -69.5t54 -24.5q14 0 29 4t29 9l15 -62q-20 -7 -42.5 -12.5t-45.5 -5.5q-38 0 -64.5 12t-42.5 33t-23 51t-7 66v269h-72v62l75 5l11 156h69v-156h199v80
q0 73 32.5 116.5t108.5 43.5q19 0 34 -4t26 -9l-16 -63q-8 3 -17 6t-19 3q-41 0 -54 -25.5t-13 -70.5v-618q0 -74 -30.5 -118t-100.5 -44z" />
    <glyph glyph-name="h.sups" unicode="&#x2b0;" 
d="M175 395v471h64v-129l-4 -69q24 23 52 39.5t64 16.5q57 0 83 -32.5t26 -94.5v-202h-64v194q0 42 -15.5 61.5t-51.5 19.5q-26 0 -45.5 -12.5t-44.5 -36.5v-226h-64z" />
    <glyph glyph-name="j.sups" unicode="&#x2b2;" 
d="M229 254q-26 0 -48.5 6.5t-40.5 15.5l20 47q17 -9 34 -13.5t32 -4.5q47 0 63 21.5t16 61.5v278h-142v50h206v-324q0 -30 -6.5 -55t-23 -43.5t-43.5 -29t-67 -10.5zM332 779q-21 0 -35 12.5t-14 32.5q0 21 14 34t35 13t34.5 -13t13.5 -34q0 -20 -13.5 -32.5t-34.5 -12.5z
" />
    <glyph glyph-name="r.sups" unicode="&#x2b3;" 
d="M243 395v321h54l5 -75h2q23 39 56 61t72 22q35 0 64 -13l-13 -54q-17 5 -29.5 7.5t-30.5 2.5q-31 0 -61.5 -20t-54.5 -70v-182h-64z" />
    <glyph glyph-name="w.sups" unicode="&#x2b7;" 
d="M141 395l-89 321h64l44 -179l20 -91h3l22 91l48 179h56l50 -179l21 -91h4l21 91l43 179h59l-87 -321h-75l-42 163l-22 91h-2l-20 -91l-44 -163h-74z" />
    <glyph glyph-name="y.sups" unicode="&#x2b8;" 
d="M198 258q-13 0 -23.5 2t-19.5 5l13 50q5 -2 12 -3.5t14 -1.5q29 0 47.5 18t29.5 45l7 23l-138 320h64l69 -169q8 -21 16.5 -44.5t17.5 -46.5h2q8 22 14.5 45.5t14.5 45.5l60 169h62l-130 -343q-9 -25 -21 -46t-28 -36.5t-36.5 -24t-46.5 -8.5z" />
    <glyph glyph-name="uni02B9" unicode="&#x2b9;" 
d="M257 434l22 256h81l-15 -100l-34 -156h-54z" />
    <glyph glyph-name="uni02BB" unicode="&#x2bb;" 
d="M299 350q-39 0 -64.5 31.5t-25.5 88.5q0 75 38 134.5t106 94.5l27 -48q-46 -27 -73 -66.5t-30 -91.5q12 6 26 6q31 0 50.5 -20t19.5 -52q0 -35 -21 -56t-53 -21z" />
    <glyph glyph-name="uni02BC" unicode="&#x2bc;" 
d="M245 350l-28 48q47 26 74 65.5t30 92.5q-12 -6 -26 -6q-32 0 -51.5 19.5t-19.5 51.5q0 35 21 56.5t53 21.5q40 0 65 -32t25 -89q0 -75 -38 -134t-105 -94z" />
    <glyph glyph-name="uni02BE" unicode="&#x2be;" 
d="M226 538v50q58 0 88 24.5t30 69.5t-30 70t-88 25v49q91 3 137.5 -36t46.5 -108t-46.5 -108t-137.5 -36z" />
    <glyph glyph-name="uni02BF" unicode="&#x2bf;" 
d="M374 538q-91 -3 -137.5 36t-46.5 108t46.5 108t137.5 36v-49q-58 0 -88 -25t-30 -70t30 -69.5t88 -24.5v-50z" />
    <glyph glyph-name="uni02C1" unicode="&#x2c1;" 
d="M282 438v91q-25 16 -47.5 33.5t-39 37.5t-26 43.5t-9.5 52.5q0 32 12.5 56.5t34 41t49.5 25t59 8.5q48 0 81.5 -18t55.5 -41l-34 -40q-19 19 -42.5 32.5t-55.5 13.5q-43 0 -69.5 -21t-26.5 -58q0 -42 30 -74.5t91 -64.5v-118h-63z" />
    <glyph glyph-name="circumflex" unicode="&#x2c6;" 
d="M180 568l-35 32l114 140h82l114 -140l-35 -32l-118 113h-4z" />
    <glyph glyph-name="caron" unicode="&#x2c7;" 
d="M259 574l-114 140l35 32l118 -113h4l118 113l35 -32l-114 -140h-82z" />
    <glyph glyph-name="uni02C8" unicode="&#x2c8;" 
d="M272 397l-23 319h102l-23 -319h-56z" />
    <glyph glyph-name="uni02C9" unicode="&#x2c9;" 
d="M167 601v57h266v-57h-266z" />
    <glyph glyph-name="uni02CA" unicode="&#x2ca;" 
d="M279 568l-43 41l142 168l58 -56z" />
    <glyph glyph-name="uni02CB" unicode="&#x2cb;" 
d="M321 568l-157 153l58 56l142 -168z" />
    <glyph glyph-name="uni02CC" unicode="&#x2cc;" 
d="M249 -254l23 320h56l23 -320h-102z" />
    <glyph glyph-name="uni02D0" unicode="&#x2d0;" 
d="M202 0l93 162h10l93 -162h-196zM295 343l-93 160h196l-93 -160h-10z" />
    <glyph glyph-name="uni02D1" unicode="&#x2d1;" 
d="M295 343l-93 160h196l-93 -160h-10z" />
    <glyph glyph-name="breve" unicode="&#x2d8;" 
d="M300 571q-40 0 -69 13t-47.5 34.5t-28 48.5t-11.5 55l51 8q3 -19 10.5 -37.5t20.5 -33.5t31.5 -24t42.5 -9t42.5 9t31.5 24t20.5 33.5t10.5 37.5l51 -8q-2 -28 -11.5 -55t-28.5 -48.5t-47.5 -34.5t-68.5 -13z" />
    <glyph glyph-name="dotaccent" unicode="&#x2d9;" 
d="M300 588q-28 0 -47 17.5t-19 46.5t19 46.5t47 17.5t47 -17.5t19 -46.5t-19 -46.5t-47 -17.5z" />
    <glyph glyph-name="ring" unicode="&#x2da;" 
d="M300 569q-52 0 -81 27.5t-29 68.5t29 68.5t81 27.5t81 -27.5t29 -68.5t-29 -68.5t-81 -27.5zM300 606q24 0 40.5 17t16.5 42q0 26 -16.5 42.5t-40.5 16.5t-40.5 -16.5t-16.5 -42.5q0 -25 16.5 -42t40.5 -17z" />
    <glyph glyph-name="ogonek" unicode="&#x2db;" 
d="M312 -225q-44 0 -73 22.5t-29 70.5q0 23 8 43t20.5 37t27.5 30.5t29 24.5h58q-38 -27 -60 -56.5t-22 -62.5q0 -29 18 -42t40 -13q18 0 31.5 6.5t22.5 14.5l24 -39q-17 -16 -41 -26t-54 -10z" />
    <glyph glyph-name="tilde" unicode="&#x2dc;" 
d="M372 577q-27 0 -46 13t-35 29t-30.5 29t-31.5 13q-23 0 -34 -22t-13 -57l-55 3q1 29 7.5 54t18.5 43t30.5 28.5t44.5 10.5q27 0 46 -13t35 -29t30.5 -29t32.5 -13q22 0 33 22t13 57l55 -4q-1 -29 -7.5 -53.5t-18.5 -42.5t-30.5 -28.5t-44.5 -10.5z" />
    <glyph glyph-name="hungarumlaut" unicode="&#x2dd;" 
d="M243 568l-46 21l87 172l58 -28zM394 568l-46 21l87 172l58 -28z" />
    <glyph glyph-name="uni02DE" unicode="&#x2de;" 
d="M329 230q-32 0 -57 21t-39 75l-105 -43v63l146 60q5 -38 11.5 -62.5t14 -38t16.5 -18.5t19 -5q12 0 21 4.5t17 10.5l22 -43q-12 -9 -28 -16.5t-38 -7.5z" />
    <glyph glyph-name="uni02E0" unicode="&#x2e0;" 
d="M301 249q-39 0 -60 21.5t-21 57.5q0 23 10.5 46.5t29.5 58.5l-114 284h65l59 -166q8 -23 15 -41.5t14 -40.5h3q8 22 15 40.5t15 41.5l59 166h63l-113 -283q19 -35 29.5 -59t10.5 -47q0 -36 -20.5 -57.5t-59.5 -21.5zM301 291q14 0 20.5 9t6.5 23q0 34 -26 81h-3
q-12 -23 -19 -44t-7 -37q0 -14 7 -23t21 -9z" />
    <glyph glyph-name="l.sups" unicode="&#x2e1;" 
d="M381 387q-54 0 -79 29.5t-25 86.5v312h-81v51h145v-367q0 -32 14.5 -46t40.5 -14q20 0 50 10l12 -49q-20 -5 -37 -9t-40 -4z" />
    <glyph glyph-name="s.sups" unicode="&#x2e2;" 
d="M308 387q-43 0 -81 13t-65 32l30 41q26 -18 53.5 -28t64.5 -10q40 0 59 13t19 32q0 12 -7.5 20.5t-20 15t-28.5 11.5l-32 10q-21 7 -42.5 15t-38.5 18.5t-28 25.5t-11 35q0 40 35.5 66.5t99.5 26.5q36 0 67.5 -11t54.5 -26l-30 -40q-20 13 -42.5 21t-49.5 8
q-38 0 -54.5 -12.5t-16.5 -29.5q0 -10 7 -17.5t19 -13.5t27 -11t31 -10q22 -7 44 -14.5t39.5 -18.5t28.5 -26.5t11 -38.5q0 -40 -36.5 -68.5t-106.5 -28.5z" />
    <glyph glyph-name="x.sups" unicode="&#x2e3;" 
d="M159 395l111 168l-102 153h68l43 -66q8 -14 16.5 -27t16.5 -27h3q8 14 15.5 27t15.5 27l38 66h68l-104 -160l111 -161h-69l-47 69q-8 15 -18 29.5t-20 28.5h-2q-8 -14 -16.5 -28.5t-17.5 -29.5l-43 -69h-67z" />
    <glyph glyph-name="uni02E4" unicode="&#x2e4;" 
d="M282 395v179q-25 16 -47.5 33.5t-39 37.5t-26 43.5t-9.5 52.5q0 31 12.5 55.5t34 41t49.5 25t59 8.5q48 0 81.5 -18t55.5 -41l-34 -40q-19 19 -42.5 32.5t-55.5 13.5q-43 0 -69.5 -21t-26.5 -58q0 -42 30 -74.5t91 -64.5v-205h-63z" />
    <glyph glyph-name="uni0300" unicode="&#x300;" 
d="M321 568l-157 153l58 56l142 -168z" />
    <glyph glyph-name="uni0301" unicode="&#x301;" 
d="M279 568l-43 41l142 168l58 -56z" />
    <glyph glyph-name="uni0302" unicode="&#x302;" 
d="M180 568l-35 32l114 140h82l114 -140l-35 -32l-118 113h-4z" />
    <glyph glyph-name="uni0303" unicode="&#x303;" 
d="M372 577q-27 0 -46 13t-35 29t-30.5 29t-31.5 13q-23 0 -34 -22t-13 -57l-55 3q1 29 7.5 54t18.5 43t30.5 28.5t44.5 10.5q27 0 46 -13t35 -29t30.5 -29t32.5 -13q22 0 33 22t13 57l55 -4q-1 -29 -7.5 -53.5t-18.5 -42.5t-30.5 -28.5t-44.5 -10.5z" />
    <glyph glyph-name="uni0304" unicode="&#x304;" 
d="M167 601v57h266v-57h-266z" />
    <glyph glyph-name="uni0305" unicode="&#x305;" 
d="M167 601v57h266v-57h-266z" />
    <glyph glyph-name="uni0306" unicode="&#x306;" 
d="M300 571q-40 0 -69 13t-47.5 34.5t-28 48.5t-11.5 55l51 8q3 -19 10.5 -37.5t20.5 -33.5t31.5 -24t42.5 -9t42.5 9t31.5 24t20.5 33.5t10.5 37.5l51 -8q-2 -28 -11.5 -55t-28.5 -48.5t-47.5 -34.5t-68.5 -13z" />
    <glyph glyph-name="uni0307" unicode="&#x307;" 
d="M300 588q-28 0 -47 17.5t-19 46.5t19 46.5t47 17.5t47 -17.5t19 -46.5t-19 -46.5t-47 -17.5z" />
    <glyph glyph-name="uni0308" unicode="&#x308;" 
d="M203 588q-24 0 -39.5 16t-15.5 40q0 23 15.5 39.5t39.5 16.5t39.5 -16.5t15.5 -39.5q0 -24 -15.5 -40t-39.5 -16zM397 588q-24 0 -39.5 16t-15.5 40q0 23 15.5 39.5t39.5 16.5t39.5 -16.5t15.5 -39.5q0 -24 -15.5 -40t-39.5 -16z" />
    <glyph glyph-name="uni0309" unicode="&#x309;" 
d="M268 572l-9 40q24 6 40 16.5t16 30.5q0 43 -83 47l5 54q69 -2 106 -25.5t37 -68.5q0 -22 -9.5 -37.5t-25 -27t-35.5 -18.5t-42 -11z" />
    <glyph glyph-name="uni030A" unicode="&#x30a;" 
d="M300 569q-52 0 -81 27.5t-29 68.5t29 68.5t81 27.5t81 -27.5t29 -68.5t-29 -68.5t-81 -27.5zM300 606q24 0 40.5 17t16.5 42q0 26 -16.5 42.5t-40.5 16.5t-40.5 -16.5t-16.5 -42.5q0 -25 16.5 -42t40.5 -17z" />
    <glyph glyph-name="uni030B" unicode="&#x30b;" 
d="M243 568l-46 21l87 172l58 -28zM394 568l-46 21l87 172l58 -28z" />
    <glyph glyph-name="uni030C" unicode="&#x30c;" 
d="M259 574l-114 140l35 32l118 -113h4l118 113l35 -32l-114 -140h-82z" />
    <glyph glyph-name="uni030F" unicode="&#x30f;" 
d="M206 568l-99 165l58 28l87 -172zM357 568l-99 165l58 28l87 -172z" />
    <glyph glyph-name="uni0310" unicode="&#x310;" 
d="M300 571q-41 0 -70.5 13t-49 34.5t-29.5 48.5t-12 55l48 8q3 -20 11 -39.5t22 -34.5t34 -24.5t46 -9.5q25 0 45 9.5t34.5 24.5t22.5 34.5t11 39.5l48 -8q-2 -28 -12 -55t-29.5 -48.5t-49 -34.5t-70.5 -13zM300 701q-24 0 -40 15t-16 41t16 41t40 15t40 -15t16 -41
t-16 -41t-40 -15z" />
    <glyph glyph-name="uni0311" unicode="&#x311;" 
d="M195 568l-51 8q2 28 11.5 55t28 48.5t47.5 34.5t69 13t68.5 -13t47.5 -34.5t28.5 -48.5t11.5 -55l-51 -8q-3 19 -10.5 37.5t-20.5 33.5t-31.5 24t-42.5 9t-42.5 -9t-31.5 -24t-20.5 -33.5t-10.5 -37.5z" />
    <glyph glyph-name="uni0312" unicode="&#x312;" 
d="M303 553q-26 0 -42 19.5t-16 55.5q0 37 21 68.5t69 50.5l18 -34q-32 -14 -47 -32t-15 -38q8 2 13 2q17 0 31 -10.5t14 -33.5t-13 -35.5t-33 -12.5z" />
    <glyph glyph-name="uni0313" unicode="&#x313;" 
d="M265 553l-18 34q32 14 47 32t15 38q-8 -2 -13 -2q-17 0 -31 10.5t-14 33.5t13 35.5t33 12.5q26 0 42 -19.5t16 -55.5q0 -37 -21 -68.5t-69 -50.5z" />
    <glyph glyph-name="uni0318" unicode="&#x318;" 
d="M339 -249v72h-115v47h115v72h53v-191h-53z" />
    <glyph glyph-name="uni0319" unicode="&#x319;" 
d="M208 -249v191h53v-72h115v-47h-115v-72h-53z" />
    <glyph glyph-name="uni031A" unicode="&#x31a;" 
d="M335 573v94h-111v47h161v-141h-50z" />
    <glyph glyph-name="uni031B" unicode="&#x31b;" 
d="M299 434l-8 41q84 13 84 90q0 15 -4 28t-10 27l64 30q10 -18 16.5 -37t6.5 -42q0 -32 -12 -55.5t-32 -40.5t-47 -27t-58 -14z" />
    <glyph glyph-name="uni031C" unicode="&#x31c;" 
d="M362 -257q-69 -2 -103.5 24t-34.5 71q0 46 34.5 72t103.5 24v-36q-38 0 -57.5 -16t-19.5 -44q0 -27 19.5 -43t57.5 -16v-36z" />
    <glyph glyph-name="uni031D" unicode="&#x31d;" 
d="M184 -211v47h89v106h54v-106h89v-47h-232z" />
    <glyph glyph-name="uni031E" unicode="&#x31e;" 
d="M273 -249v106h-89v47h232v-47h-89v-106h-54z" />
    <glyph glyph-name="uni031F" unicode="&#x31f;" 
d="M273 -249v72h-89v47h89v72h54v-72h89v-47h-89v-72h-54z" />
    <glyph glyph-name="uni0320" unicode="&#x320;" 
d="M184 -150v47h232v-47h-232z" />
    <glyph glyph-name="uni0323" unicode="&#x323;" 
d="M300 -214q-28 0 -47 17.5t-19 46.5t19 46.5t47 17.5t47 -17.5t19 -46.5t-19 -46.5t-47 -17.5z" />
    <glyph glyph-name="uni0324" unicode="&#x324;" 
d="M203 -207q-24 0 -39.5 16t-15.5 40q0 23 15.5 39.5t39.5 16.5t39.5 -16.5t15.5 -39.5q0 -24 -15.5 -40t-39.5 -16zM397 -207q-24 0 -39.5 16t-15.5 40q0 23 15.5 39.5t39.5 16.5t39.5 -16.5t15.5 -39.5q0 -24 -15.5 -40t-39.5 -16z" />
    <glyph glyph-name="uni0325" unicode="&#x325;" 
d="M300 -243q-52 0 -81 27.5t-29 68.5t29 68.5t81 27.5t81 -27.5t29 -68.5t-29 -68.5t-81 -27.5zM300 -206q24 0 40.5 17t16.5 42q0 26 -16.5 42.5t-40.5 16.5t-40.5 -16.5t-16.5 -42.5q0 -25 16.5 -42t40.5 -17z" />
    <glyph glyph-name="uni0326" unicode="&#x326;" 
d="M213 -226l-8 40q63 5 86 16.5t23 31.5t-18 29.5t-53 12.5l18 38q65 -8 91 -25.5t26 -51.5q0 -44 -42.5 -65.5t-122.5 -25.5z" />
    <glyph glyph-name="uni0327" unicode="&#x327;" 
d="M213 -226l-8 40q63 5 86 16.5t23 33.5q0 20 -17 31t-60 17l40 96h54l-26 -72q35 -8 54 -24t19 -47q0 -44 -42.5 -65.5t-122.5 -25.5z" />
    <glyph glyph-name="uni0328" unicode="&#x328;" 
d="M312 -225q-44 0 -73 22.5t-29 70.5q0 23 8 43t20.5 37t27.5 30.5t29 24.5h58q-38 -27 -60 -56.5t-22 -62.5q0 -29 18 -42t40 -13q18 0 31.5 6.5t22.5 14.5l24 -39q-17 -16 -41 -26t-54 -10z" />
    <glyph glyph-name="uni0329" unicode="&#x329;" 
d="M265 -266l6 195h58l6 -195h-70z" />
    <glyph glyph-name="uni032A" unicode="&#x32a;" 
d="M177 -226v144h246v-144h-48v97h-150v-97h-48z" />
    <glyph glyph-name="uni032C" unicode="&#x32c;" 
d="M259 -223l-114 140l35 32l118 -113h4l118 113l35 -32l-114 -140h-82z" />
    <glyph glyph-name="uni032E" unicode="&#x32e;" 
d="M300 -230q-40 0 -69 13t-47.5 34.5t-28 48.5t-11.5 55l51 8q3 -19 10.5 -37.5t20.5 -33.5t31.5 -24t42.5 -9t42.5 9t31.5 24t20.5 33.5t10.5 37.5l51 -8q-2 -28 -11.5 -55t-28.5 -48.5t-47.5 -34.5t-68.5 -13z" />
    <glyph glyph-name="uni032F" unicode="&#x32f;" 
d="M195 -236l-51 8q2 28 11.5 55t28 48.5t47.5 34.5t69 13t68.5 -13t47.5 -34.5t28.5 -48.5t11.5 -55l-51 -8q-3 19 -10.5 37.5t-20.5 33.5t-31.5 24t-42.5 9t-42.5 -9t-31.5 -24t-20.5 -33.5t-10.5 -37.5z" />
    <glyph glyph-name="uni0330" unicode="&#x330;" 
d="M372 -222q-27 0 -46 13t-35 29t-30.5 29t-31.5 13q-23 0 -34 -22t-13 -57l-55 3q1 29 7.5 54t18.5 43t30.5 28.5t44.5 10.5q27 0 46 -13t35 -29t30.5 -29t32.5 -13q22 0 33 22t13 57l55 -4q-1 -29 -7.5 -53.5t-18.5 -42.5t-30.5 -28.5t-44.5 -10.5z" />
    <glyph glyph-name="uni0331" unicode="&#x331;" 
d="M167 -169v57h266v-57h-266z" />
    <glyph glyph-name="uni0334" unicode="&#x334;" 
d="M394 173q-33 0 -57 13t-44.5 29t-39.5 29t-41 13t-33 -21.5t-13 -56.5l-55 10q1 27 7 50.5t17.5 40.5t29 27t41.5 10q33 0 57.5 -13t45 -29t39 -29t40.5 -13t33 21.5t13 55.5l55 -9q-2 -27 -7.5 -50.5t-17 -40.5t-29 -27t-41.5 -10z" />
    <glyph glyph-name="uni0339" unicode="&#x339;" 
d="M238 -257v36q38 0 57.5 16t19.5 43q0 28 -19.5 44t-57.5 16v36q69 2 103.5 -24t34.5 -72q0 -45 -34.5 -71t-103.5 -24z" />
    <glyph glyph-name="uni033A" unicode="&#x33a;" 
d="M177 -225v143h48v-96h150v96h48v-143h-246z" />
    <glyph glyph-name="uni033B" unicode="&#x33b;" 
d="M177 -240v163h246v-163h-246zM225 -200h150v84h-150v-84z" />
    <glyph glyph-name="uni033C" unicode="&#x33c;" 
d="M182 -234l-52 6q-1 78 24 113t73 35q26 0 45 -13t27 -45h2q8 32 27.5 45t44.5 13q48 0 73 -35t24 -113l-52 -6q0 60 -13 80t-36 20t-34 -21t-11 -59v-19h-48v19q0 38 -11.5 59t-34.5 21t-35.5 -20t-12.5 -80z" />
    <glyph glyph-name="uni033D" unicode="&#x33d;" 
d="M238 565l-32 30l61 57l-61 57l32 30l62 -58l62 58l32 -30l-61 -57l61 -57l-32 -30l-62 58z" />
    <glyph glyph-name="uni0342" unicode="&#x342;" 
d="M372 577q-27 0 -46 13t-35 29t-30.5 29t-31.5 13q-23 0 -34 -22t-13 -57l-55 3q1 29 7.5 54t18.5 43t30.5 28.5t44.5 10.5q27 0 46 -13t35 -29t30.5 -29t32.5 -13q22 0 33 22t13 57l55 -4q-1 -29 -7.5 -53.5t-18.5 -42.5t-30.5 -28.5t-44.5 -10.5z" />
    <glyph glyph-name="uni0345" unicode="&#x345;" 
d="M344 -201q-77 0 -77 92v47h64q-2 -13 -2 -27.5v-25.5q0 -17 9 -24t21 -7q4 0 8 0.5t14 2.5l9 -49q-10 -4 -19.5 -6.5t-26.5 -2.5z" />
    <glyph glyph-name="uni035F" unicode="&#x35f;" 
d="M-193 -171v58h986v-58h-986z" />
    <glyph glyph-name="uni0361" unicode="&#x361;" 
d="M-130 600l-24 42q101 62 213.5 94.5t240.5 32.5t240.5 -32.5t213.5 -94.5l-24 -42q-96 58 -208.5 84.5t-221.5 26.5t-221.5 -26.5t-208.5 -84.5z" />
    <glyph glyph-name="uni0374" unicode="&#x374;" 
d="M257 449l22 241h81l-14 -92l-35 -149h-54z" />
    <glyph glyph-name="uni0375" unicode="&#x375;" 
d="M240 0l14 92l35 150h54l-22 -242h-81z" />
    <glyph glyph-name="uni037A" unicode="&#x37a;" 
d="M344 -201q-77 0 -77 92v47h64q-2 -13 -2 -27.5v-25.5q0 -17 9 -24t21 -7q4 0 8 0.5t14 2.5l9 -49q-10 -4 -19.5 -6.5t-26.5 -2.5z" />
    <glyph glyph-name="uni037E" unicode="&#x37e;" 
d="M300 346q-34 0 -57.5 23t-23.5 61t23.5 61.5t57.5 23.5t57.5 -23.5t23.5 -61.5t-23.5 -61t-57.5 -23zM220 -213l-23 52q62 28 93 67.5t33 99.5q-5 -2 -9.5 -2h-9.5q-32 0 -55 18.5t-23 56.5q0 37 24 56.5t56 19.5q45 0 67.5 -34.5t22.5 -93.5q0 -88 -46.5 -148.5
t-129.5 -91.5z" />
    <glyph glyph-name="tonos" unicode="&#x384;" 
d="M322 559l-57 10l47 230l85 -15z" />
    <glyph glyph-name="dieresistonos" unicode="&#x385;" 
d="M185 595q-20 0 -33 11.5t-13 31.5q0 21 13 33.5t33 12.5t33 -12.5t13 -33.5q0 -20 -13 -31.5t-33 -11.5zM258 573l49 226l68 -13l-75 -222zM415 595q-20 0 -33 11.5t-13 31.5q0 21 13 33.5t33 12.5t33 -12.5t13 -33.5q0 -20 -13 -31.5t-33 -11.5z" />
    <glyph glyph-name="Alphatonos" unicode="&#x386;" 
d="M248 367l-30 -100h183l-29 100q-16 55 -30.5 104.5t-29.5 108.5h-4q-16 -59 -30 -108.5t-30 -104.5zM54 0l210 656h94l210 -656h-88l-59 200h-223l-59 -200h-85zM93 389l-57 10l36 291l79 -10z" />
    <glyph glyph-name="anoteleia" unicode="&#x387;" 
d="M300 340q-34 0 -57.5 23t-23.5 61t23.5 61.5t57.5 23.5t57.5 -23.5t23.5 -61.5t-23.5 -61t-57.5 -23z" />
    <glyph glyph-name="Epsilontonos" unicode="&#x388;" 
d="M200 0v656h320v-70h-244v-206h194v-71h-194v-238h254v-71h-330zM81 389l-57 10l36 291l79 -10z" />
    <glyph glyph-name="Etatonos" unicode="&#x389;" 
d="M194 0v656h76v-275h182v275h76v-656h-76v309h-182v-309h-76zM81 389l-57 10l36 291l79 -10z" />
    <glyph glyph-name="Iotatonos" unicode="&#x38a;" 
d="M185 0v71h118v515h-118v70h320v-70h-119v-515h119v-71h-320zM81 389l-57 10l36 291l79 -10z" />
    <glyph glyph-name="Omicrontonos" unicode="&#x38c;" 
d="M348 -12q-45 0 -82 23t-64 67t-42 108t-15 145q0 82 15 145t42 106t64 64.5t82 21.5t82.5 -21.5t64.5 -64.5t42 -106t15 -145q0 -83 -15 -147t-42 -107.5t-64.5 -66t-82.5 -22.5zM348 61q56 0 89.5 66.5t33.5 203.5q0 135 -34 199.5t-89 64.5t-88.5 -64t-33.5 -200
q0 -137 33.5 -203.5t88.5 -66.5zM81 389l-57 10l36 291l79 -10z" />
    <glyph glyph-name="Upsilontonos" unicode="&#x38e;" 
d="M357 0v234l-169 422h77l73 -195q15 -42 28.5 -78.5t27.5 -74.5h4q14 38 27.5 76t27.5 77l75 195h74l-169 -422v-234h-76zM97 389l-57 10l36 291l79 -10z" />
    <glyph glyph-name="Omegatonos" unicode="&#x38f;" 
d="M134 0v68h99v4q-42 60 -65 129.5t-23 163.5q0 66 14.5 121.5t40.5 96t63.5 63t83.5 22.5t83.5 -22.5t64 -63t40.5 -96t14 -121.5q0 -94 -23 -163.5t-65 -129.5v-4h99v-68h-172v61q39 59 59.5 127.5t20.5 163.5q0 55 -8 99.5t-23.5 76.5t-38 49.5t-51.5 17.5t-51.5 -17.5
t-38 -49.5t-23.5 -76.5t-8 -99.5q0 -95 20.5 -163.5t59.5 -127.5v-61h-172zM81 389l-57 10l36 291l79 -10z" />
    <glyph glyph-name="iotadieresistonos" unicode="&#x390;" 
d="M400 -12q-81 0 -117 44t-36 131v256h-166v67h249q-1 -41 -2 -84t-2 -85.5t-1.5 -83t-0.5 -76.5q0 -53 23.5 -77t70.5 -24q19 0 41 4.5t45 15.5l21 -61q-26 -12 -55.5 -19.5t-69.5 -7.5zM168 595q-20 0 -33 11.5t-13 31.5q0 21 13 33.5t33 12.5t33 -12.5t13 -33.5
q0 -20 -13 -31.5t-33 -11.5zM241 573l49 226l68 -13l-75 -222zM398 595q-20 0 -33 11.5t-13 31.5q0 21 13 33.5t33 12.5t33 -12.5t13 -33.5q0 -20 -13 -31.5t-33 -11.5z" />
    <glyph glyph-name="Alpha" unicode="&#x391;" 
d="M232 367l-31 -100h196l-31 100q-17 55 -33.5 109.5t-31.5 111.5h-4q-16 -57 -32 -111.5t-33 -109.5zM32 0l221 656h94l221 -656h-88l-62 200h-238l-63 -200h-85z" />
    <glyph glyph-name="Beta" unicode="&#x392;" 
d="M99 0v656h186q50 0 91.5 -9t71 -28t46 -49.5t16.5 -73.5q0 -49 -28 -88.5t-87 -54.5v-4q72 -11 112 -50t40 -107q0 -48 -18 -84t-50.5 -60t-78 -36t-100.5 -12h-201zM182 380h89q84 0 120.5 27t36.5 82q0 54 -38.5 75.5t-114.5 21.5h-93v-206zM182 70h106q85 0 131 29.5
t46 96.5q0 61 -45 87.5t-132 26.5h-106v-240z" />
    <glyph glyph-name="Gamma" unicode="&#x393;" 
d="M135 0v656h400v-70h-317v-586h-83z" />
    <glyph glyph-name="uni0394" unicode="&#x394;" 
d="M43 0v50l209 606h96l209 -606v-50h-514zM134 71h331l-97 293q-17 54 -33.5 109t-33.5 112h-4q-17 -57 -33.5 -112t-33.5 -109z" />
    <glyph glyph-name="Epsilon" unicode="&#x395;" 
d="M114 0v656h406v-70h-322v-206h272v-71h-272v-238h332v-71h-416z" />
    <glyph glyph-name="Zeta" unicode="&#x396;" 
d="M65 0v50l366 537h-334v70h437v-50l-367 -536h372v-71h-474z" />
    <glyph glyph-name="Eta" unicode="&#x397;" 
d="M79 0v656h84v-275h274v275h84v-656h-84v309h-274v-309h-84z" />
    <glyph glyph-name="Theta" unicode="&#x398;" 
d="M300 -12q-56 0 -102 24t-79.5 68.5t-52 108t-18.5 142.5t18.5 141.5t52 106t79.5 66.5t102 23q55 0 101.5 -23.5t80 -67t52 -106t18.5 -140.5q0 -79 -18.5 -142.5t-52 -108t-80 -68.5t-101.5 -24zM300 61q37 0 68 19t52.5 54.5t33.5 85t12 111.5q0 61 -12 110t-33.5 83
t-52.5 52.5t-68 18.5q-38 0 -68.5 -18.5t-52 -52.5t-33.5 -83t-12 -110q0 -62 12 -111.5t33.5 -85t52 -54.5t68.5 -19zM201 309v72h198v-72h-198z" />
    <glyph glyph-name="Iota" unicode="&#x399;" 
d="M95 0v71h163v515h-163v70h410v-70h-163v-515h163v-71h-410z" />
    <glyph glyph-name="Kappa" unicode="&#x39a;" 
d="M98 0v656h84v-329h3l276 329h95l-208 -249l232 -407h-94l-191 344l-113 -135v-209h-84z" />
    <glyph glyph-name="Lambda" unicode="&#x39b;" 
d="M43 0l208 656h97l209 -656h-88l-106 355q-17 58 -31 108.5t-32 108.5h-4q-18 -58 -32 -108.5t-31 -108.5l-105 -355h-85z" />
    <glyph glyph-name="Mu" unicode="&#x39c;" 
d="M72 0v656h102l92 -280l32 -106h4l31 106l93 280h102v-656h-80v328q0 24 1.5 55.5t4 63.5t4.5 62t4 51h-3l-37 -128l-94 -258h-60l-92 258l-38 128h-2q2 -21 4.5 -51t4.5 -62t3.5 -63.5t1.5 -55.5v-328h-78z" />
    <glyph glyph-name="Nu" unicode="&#x39d;" 
d="M82 0v656h92l210 -412l63 -136h2q-2 49 -6.5 102.5t-4.5 105.5v340h80v-656h-92l-210 412l-63 136h-2q2 -51 6.5 -102.5t4.5 -102.5v-343h-80z" />
    <glyph glyph-name="Xi" unicode="&#x39e;" 
d="M70 0v71h460v-71h-460zM145 309v71h310v-71h-310zM80 586v70h440v-70h-440z" />
    <glyph glyph-name="Omicron" unicode="&#x39f;" 
d="M300 -12q-56 0 -102 23.5t-79.5 67.5t-52 107.5t-18.5 144.5q0 79 18.5 142t52 106t79.5 66t102 23q55 0 101.5 -23t80 -66t52 -106t18.5 -142q0 -81 -18.5 -144.5t-52 -107.5t-80 -67.5t-101.5 -23.5zM300 61q37 0 68 18.5t52.5 53.5t33.5 85t12 113q0 62 -12 111
t-33.5 83t-52.5 52t-68 18q-38 0 -68.5 -18t-52 -52t-33.5 -83t-12 -111q0 -63 12 -113t33.5 -85t52 -53.5t68.5 -18.5z" />
    <glyph glyph-name="Pi" unicode="&#x3a0;" 
d="M79 0v656h442v-656h-84v586h-274v-586h-84z" />
    <glyph glyph-name="Rho" unicode="&#x3a1;" 
d="M102 0v656h198q54 0 99 -10t77 -32.5t49.5 -59.5t17.5 -91q0 -52 -17.5 -90t-50 -63t-77 -37.5t-98.5 -12.5h-115v-260h-83zM185 328h105q87 0 128 32.5t41 102.5q0 71 -42 98.5t-127 27.5h-105v-261z" />
    <glyph glyph-name="Sigma" unicode="&#x3a3;" 
d="M75 0v50l226 283l-222 274v49h423v-70h-317l201 -251l-205 -264h351v-71h-457z" />
    <glyph glyph-name="Tau" unicode="&#x3a4;" 
d="M258 0v586h-216v70h516v-70h-216v-586h-84z" />
    <glyph glyph-name="Upsilon" unicode="&#x3a5;" 
d="M258 0v234l-220 422h88l99 -195q19 -38 37 -75.5t38 -77.5h4l39 78l38 76l95 194h86l-220 -422v-234h-84z" />
    <glyph glyph-name="Phi" unicode="&#x3a6;" 
d="M106 332q0 -87 41.5 -141t114.5 -60v395q-73 -6 -114.5 -57.5t-41.5 -136.5zM494 332q0 85 -42 136.5t-114 57.5v-395q36 3 65 18.5t49 42t31 62t11 78.5zM262 -22v88q-54 3 -97.5 23t-74 54t-47.5 81.5t-17 107.5q0 58 17 105t47.5 80t74 52t97.5 22v87h76v-87
q54 -3 97.5 -22t74 -52t47.5 -80t17 -105q0 -60 -17 -107.5t-47.5 -81.5t-74 -54t-97.5 -23v-88h-76z" />
    <glyph glyph-name="Chi" unicode="&#x3a7;" 
d="M54 0l196 339l-183 317h92l92 -168q13 -23 25 -44.5t28 -50.5h4q14 29 24.5 50.5t22.5 44.5l90 168h88l-183 -321l196 -335h-92l-99 177q-14 24 -27.5 49.5t-30.5 55.5h-4q-14 -30 -27 -55.5t-26 -49.5l-98 -177h-88z" />
    <glyph glyph-name="Psi" unicode="&#x3a8;" 
d="M258 0v243q-100 5 -157 63t-57 174v176h80v-172q0 -164 134 -174v346h84v-346q134 10 134 174v172h80v-176q0 -116 -57 -174t-157 -63v-243h-84z" />
    <glyph glyph-name="uni03A9" unicode="&#x3a9;" 
d="M38 0v68h121v4q-21 20 -40.5 47.5t-35.5 62.5t-25.5 77t-9.5 92q0 69 17.5 127t50.5 100.5t79.5 66t104.5 23.5t104.5 -23.5t79.5 -66t50.5 -100.5t17.5 -127q0 -50 -9.5 -92t-25.5 -77t-35.5 -62.5t-40.5 -47.5v-4h121v-68h-210v61q24 24 45 52t36.5 62.5t24 76.5
t8.5 94q0 53 -11 98.5t-32 79t-52 52.5t-71 19t-71 -19t-52 -52.5t-32 -79t-11 -98.5q0 -52 8.5 -94t24 -76.5t36.5 -62.5t45 -52v-61h-210z" />
    <glyph glyph-name="Iotadieresis" unicode="&#x3aa;" 
d="M95 0v71h163v515h-163v70h410v-70h-163v-515h163v-71h-410zM209 715q-22 0 -36.5 14t-14.5 37t14.5 36.5t36.5 13.5t36 -13.5t14 -36.5t-14 -37t-36 -14zM391 715q-22 0 -36 14t-14 37t14 36.5t36 13.5t36.5 -13.5t14.5 -36.5t-14.5 -37t-36.5 -14z" />
    <glyph glyph-name="Upsilondieresis" unicode="&#x3ab;" 
d="M258 0v234l-220 422h88l99 -195q19 -38 37 -75.5t38 -77.5h4l39 78l38 76l95 194h86l-220 -422v-234h-84zM209 715q-22 0 -36.5 14t-14.5 37t14.5 36.5t36.5 13.5t36 -13.5t14 -36.5t-14 -37t-36 -14zM391 715q-22 0 -36 14t-14 37t14 36.5t36 13.5t36.5 -13.5
t14.5 -36.5t-14.5 -37t-36.5 -14z" />
    <glyph glyph-name="alphatonos" unicode="&#x3ac;" 
d="M253 -12q-44 0 -80 16t-61.5 47.5t-40 77t-14.5 105.5q0 63 18 112t48 82.5t69.5 51.5t82.5 18q25 0 49.5 -6.5t46 -21.5t38.5 -39.5t28 -59.5h3l20 115h82q-10 -48 -20.5 -100.5t-19.5 -103.5t-15 -96.5t-6 -78.5q0 -25 14 -38t34 -13q8 0 17 2.5t17 5.5l12 -63
q-11 -5 -26.5 -9t-37.5 -4q-43 0 -69 24t-26 75h-3q-32 -51 -71 -75t-89 -24zM270 57q25 0 49.5 12t44 32.5t32 48t15.5 58.5l7 91q-10 40 -25 65.5t-33 39.5t-37 19.5t-35 5.5q-28 0 -54 -12.5t-46.5 -36.5t-33 -60.5t-12.5 -84.5q0 -85 34 -131.5t94 -46.5zM346 559
l-57 10l47 230l85 -15z" />
    <glyph glyph-name="epsilontonos" unicode="&#x3ad;" 
d="M320 -12q-107 0 -168 38.5t-61 107.5q0 52 32.5 80t78.5 41v4q-43 16 -65 45t-22 63q0 33 15.5 58t43.5 41t66.5 24t84.5 8q54 0 102.5 -16t90.5 -46l-33 -55q-73 52 -158 52q-61 0 -95.5 -19t-34.5 -57q0 -33 33.5 -53t107.5 -20q14 0 28.5 0.5t32.5 2.5v-68
q-21 2 -39.5 2h-36.5q-150 0 -150 -80q0 -41 38.5 -64t117.5 -23q45 0 85.5 11.5t84.5 46.5l35 -55q-27 -20 -52 -33.5t-51 -21.5t-53 -11t-58 -3zM358 559l-57 10l47 230l85 -15z" />
    <glyph glyph-name="etatonos" unicode="&#x3ae;" 
d="M431 -179q1 60 2 122t2 123t1.5 119.5t0.5 111.5q0 69 -21.5 99.5t-72.5 30.5q-23 0 -42.5 -4.5t-38 -16.5t-38.5 -32t-42 -50v-324h-82v353q0 29 -1 62t-6 71h75l7 -95h3q41 56 85.5 81.5t103.5 25.5q78 0 112.5 -48t34.5 -142v-487h-83zM348 559l-57 10l47 230l85 -15z
" />
    <glyph glyph-name="iotatonos" unicode="&#x3af;" 
d="M400 -12q-81 0 -117 44t-36 131v256h-166v67h249q-1 -41 -2 -84t-2 -85.5t-1.5 -83t-0.5 -76.5q0 -53 23.5 -77t70.5 -24q19 0 41 4.5t45 15.5l21 -61q-26 -12 -55.5 -19.5t-69.5 -7.5zM305 559l-57 10l47 230l85 -15z" />
    <glyph glyph-name="upsilondieresistonos" unicode="&#x3b0;" 
d="M294 -12q-99 0 -155 51.5t-56 157.5q0 39 2 78t2 78q0 29 -1.5 62t-6.5 71h80q5 -26 6 -53.5t1 -59.5q0 -19 -1 -42t-2 -47t-2 -47.5t-1 -44.5q0 -37 11 -63t29.5 -42t43 -23.5t51.5 -7.5q32 0 59 12t47 36.5t31 62.5t11 90q0 51 -9 105t-31 117l80 19q20 -60 32 -119
t12 -120q0 -66 -17 -116.5t-48 -85t-74 -52t-94 -17.5zM182 595q-20 0 -33 11.5t-13 31.5q0 21 13 33.5t33 12.5t33 -12.5t13 -33.5q0 -20 -13 -31.5t-33 -11.5zM255 573l49 226l68 -13l-75 -222zM412 595q-20 0 -33 11.5t-13 31.5q0 21 13 33.5t33 12.5t33 -12.5t13 -33.5
q0 -20 -13 -31.5t-33 -11.5z" />
    <glyph glyph-name="alpha" unicode="&#x3b1;" 
d="M253 -12q-44 0 -80 16t-61.5 47.5t-40 77t-14.5 105.5q0 63 18 112t48 82.5t69.5 51.5t82.5 18q25 0 49.5 -6.5t46 -21.5t38.5 -39.5t28 -59.5h3l20 115h82q-10 -48 -20.5 -100.5t-19.5 -103.5t-15 -96.5t-6 -78.5q0 -25 14 -38t34 -13q8 0 17 2.5t17 5.5l12 -63
q-11 -5 -26.5 -9t-37.5 -4q-43 0 -69 24t-26 75h-3q-32 -51 -71 -75t-89 -24zM270 57q25 0 49.5 12t44 32.5t32 48t15.5 58.5l7 91q-10 40 -25 65.5t-33 39.5t-37 19.5t-35 5.5q-28 0 -54 -12.5t-46.5 -36.5t-33 -60.5t-12.5 -84.5q0 -85 34 -131.5t94 -46.5z" />
    <glyph glyph-name="beta" unicode="&#x3b2;" 
d="M93 -179v674q0 49 12.5 91t37.5 72.5t63 48t89 17.5q37 0 71 -10.5t60.5 -32t42.5 -54t16 -76.5q0 -54 -27 -95t-79 -71v-4q75 -11 120 -61t45 -127q0 -49 -16.5 -87t-44 -64.5t-63 -40t-73.5 -13.5q-47 0 -93 16t-84 58q2 -62 3.5 -120.5t2.5 -120.5h-83zM327 57
q28 0 52.5 9.5t43 27.5t29 44.5t10.5 59.5q0 58 -35 97t-106 39q-26 0 -50 -6l-13 63q40 8 67.5 24t45 37t25.5 45t8 48q0 28 -8.5 49t-23.5 35t-34.5 21t-41.5 7q-57 0 -89.5 -44t-33.5 -133q-1 -88 -1.5 -173.5t-0.5 -173.5q35 -46 76.5 -61t79.5 -15z" />
    <glyph glyph-name="gamma" unicode="&#x3b3;" 
d="M255 -179q1 16 2 29.5t1.5 27t0.5 29v35.5q0 58 -18 130t-47 145.5t-67.5 141.5t-78.5 118l82 21q26 -33 52 -78t49.5 -97.5t43 -110.5t32.5 -115h4q54 95 92.5 191t52.5 198h82q-12 -62 -28 -117t-40 -111t-58.5 -117t-82.5 -136q6 -44 8 -93t2 -91h-84z" />
    <glyph glyph-name="delta" unicode="&#x3b4;" 
d="M300 -12q-45 0 -87.5 15t-75.5 43.5t-52.5 69.5t-19.5 93q0 44 15.5 80.5t42 65.5t62 50t76.5 35q-30 19 -56.5 38t-46 40t-30.5 45t-11 52q0 22 10 41.5t30.5 34.5t51.5 24t74 9q53 0 111.5 -10t129.5 -34l-20 -65q-74 26 -127 35.5t-95 9.5q-45 0 -64.5 -15t-19.5 -35
t12 -37.5t33.5 -34.5t51.5 -36t67 -42q36 -23 68 -47t55 -52.5t36.5 -63t13.5 -78.5q0 -52 -16 -94.5t-46 -73t-74 -47t-99 -16.5zM302 56q75 0 113.5 44.5t38.5 117.5q0 31 -10 57t-27.5 47.5t-41 40.5t-50.5 36q-85 -19 -132.5 -67.5t-47.5 -120.5q0 -36 13 -64.5
t34.5 -48.5t50 -31t59.5 -11z" />
    <glyph glyph-name="epsilon" unicode="&#x3b5;" 
d="M320 -12q-107 0 -168 38.5t-61 107.5q0 52 32.5 80t78.5 41v4q-43 16 -65 45t-22 63q0 33 15.5 58t43.5 41t66.5 24t84.5 8q54 0 102.5 -16t90.5 -46l-33 -55q-73 52 -158 52q-61 0 -95.5 -19t-34.5 -57q0 -33 33.5 -53t107.5 -20q14 0 28.5 0.5t32.5 2.5v-68
q-21 2 -39.5 2h-36.5q-150 0 -150 -80q0 -41 38.5 -64t117.5 -23q45 0 85.5 11.5t84.5 46.5l35 -55q-27 -20 -52 -33.5t-51 -21.5t-53 -11t-58 -3z" />
    <glyph glyph-name="zeta" unicode="&#x3b6;" 
d="M467 -184l-66 27q26 32 37.5 50t11.5 38q0 11 -6 19t-21 15t-40.5 13t-64.5 14q-40 8 -76.5 22.5t-64.5 40.5t-44.5 66.5t-16.5 100.5t27 120.5t71.5 116.5t100 105t112.5 86h-61.5t-75.5 -1t-77.5 -2t-66.5 -2v67h377v-67h-5q-59 -35 -116 -84.5t-101.5 -105.5
t-72 -115.5t-27.5 -113.5q0 -43 11.5 -72t33 -48t52 -30t69.5 -18q40 -8 69.5 -16.5t49 -20.5t29 -29t9.5 -42q0 -23 -13.5 -57.5t-43.5 -76.5z" />
    <glyph glyph-name="eta" unicode="&#x3b7;" 
d="M431 -179q1 60 2 122t2 123t1.5 119.5t0.5 111.5q0 69 -21.5 99.5t-72.5 30.5q-23 0 -42.5 -4.5t-38 -16.5t-38.5 -32t-42 -50v-324h-82v353q0 29 -1 62t-6 71h75l7 -95h3q41 56 85.5 81.5t103.5 25.5q78 0 112.5 -48t34.5 -142v-487h-83z" />
    <glyph glyph-name="theta" unicode="&#x3b8;" 
d="M300 -12q-53 0 -95 22t-71.5 67.5t-45.5 115.5t-16 166q0 180 61 272.5t167 92.5t167 -92.5t61 -272.5q0 -96 -16 -166t-45.5 -115.5t-71.5 -67.5t-95 -22zM300 656q-30 0 -56 -15t-45.5 -47t-31.5 -82.5t-14 -121.5h294q-2 71 -14 121.5t-31.5 82.5t-45.5 47t-56 15z
M300 56q30 0 56 14t45.5 46.5t31.5 85t14 129.5h-294q2 -77 13.5 -129.5t31 -85t46 -46.5t56.5 -14z" />
    <glyph glyph-name="iota" unicode="&#x3b9;" 
d="M400 -12q-81 0 -117 44t-36 131v256h-166v67h249q-1 -41 -2 -84t-2 -85.5t-1.5 -83t-0.5 -76.5q0 -53 23.5 -77t70.5 -24q19 0 41 4.5t45 15.5l21 -61q-26 -12 -55.5 -19.5t-69.5 -7.5z" />
    <glyph glyph-name="kappa" unicode="&#x3ba;" 
d="M484 -8q-22 25 -47.5 56t-51 65t-50 70t-43.5 72q-35 -38 -68 -83q-37 -54 -37 -147v-25h-77v353q0 29 -1.5 65t-8.5 68h82q5 -20 7 -50.5t2 -62.5v-152h4q30 52 69 97.5t83.5 81.5t91.5 61t94 37l9 -78q-48 -14 -97 -41.5t-98 -69.5q20 -38 47.5 -79t58 -81t62.5 -78
t62 -71z" />
    <glyph glyph-name="lambda" unicode="&#x3bb;" 
d="M145 -8l-89 8l224 497l-8 23q-24 71 -52.5 102.5t-73.5 31.5q-20 0 -34.5 -5t-27.5 -11l-21 68q17 8 38.5 13t53.5 5q38 0 67 -12t52.5 -37.5t42.5 -64t38 -91.5l198 -519h-89l-145 403h-4z" />
    <glyph glyph-name="uni03BC" unicode="&#x3bc;" 
d="M84 -187v673h82v-291q0 -67 24.5 -101.5t78.5 -34.5q19 0 37 4t36.5 15t37 32t37.5 54v322h83q-2 -99 -4 -202.5t-2 -191.5q0 -20 8 -28t20 -8h7.5t10.5 2l11 -62q-18 -8 -47 -8q-38 0 -57.5 22.5t-22.5 81.5h-2q-30 -52 -69.5 -77t-84.5 -25q-33 0 -60.5 10.5
t-47.5 42.5q0 -38 0.5 -67.5t1 -55.5t2 -51.5t3.5 -55.5h-83z" />
    <glyph glyph-name="nu" unicode="&#x3bd;" 
d="M257 0q-14 72 -35.5 138t-49.5 126t-60 113t-65 100l82 21q28 -39 56 -88.5t52 -103.5t43 -110.5t29 -110.5h4q25 47 49 97t44 101t33.5 102.5t17.5 100.5h83q-10 -63 -28 -122.5t-43.5 -119t-58 -119.5t-72.5 -125h-81z" />
    <glyph glyph-name="xi" unicode="&#x3be;" 
d="M470 -184l-66 27q26 32 37 50t11 38q0 11 -5.5 19t-20.5 15t-40.5 13t-64.5 14q-42 9 -80 22t-66.5 35t-45.5 55t-17 81q0 36 13 67.5t34.5 56.5t50.5 43t61 27v4q-48 20 -79.5 55.5t-31.5 88.5q0 42 20.5 73t57.5 50h-37.5t-33 -1t-34.5 -2t-41 -2v67h431v-67h-144
q-27 0 -52 -8t-43.5 -23t-29.5 -37.5t-11 -51.5q0 -26 12 -48t31.5 -38t44.5 -25t50 -9q23 0 39 0.5t39 4.5v-72q-23 4 -41.5 4.5t-41.5 0.5q-34 0 -66.5 -10t-57.5 -28.5t-40 -46t-15 -62.5q0 -36 13.5 -59.5t37 -38.5t55.5 -24t70 -16q41 -8 70.5 -16.5t48 -20.5t27 -29
t8.5 -42q0 -23 -13 -57.5t-44 -76.5z" />
    <glyph glyph-name="omicron" unicode="&#x3bf;" 
d="M300 -12q-48 0 -91 17t-75 49.5t-51 80t-19 107.5q0 61 19 108.5t51 80.5t75 50t91 17t91 -17t75 -50t51 -80.5t19 -108.5q0 -60 -19 -107.5t-51 -80t-75 -49.5t-91 -17zM300 56q35 0 63 13.5t47.5 38t30 58.5t10.5 76t-10.5 76.5t-30 59.5t-47.5 38.5t-63 13.5
t-63 -13.5t-47.5 -38.5t-30 -59.5t-10.5 -76.5t10.5 -76t30 -58.5t47.5 -38t63 -13.5z" />
    <glyph glyph-name="pi" unicode="&#x3c0;" 
d="M503 -12q-58 0 -82 31t-24 91q0 19 0.5 54.5t1.5 78.5t2 89t1 86h-197q0 -103 -3.5 -209.5t-11.5 -213.5l-82 5q12 108 16 213.5t4 204.5h-101v63l69 5h477v-68h-92q-2 -41 -3.5 -88.5t-2.5 -92t-1 -80v-53.5q0 -26 11 -37t34 -11q5 0 11 1.5t16 4.5l12 -63
q-11 -5 -24 -8t-31 -3z" />
    <glyph glyph-name="rho" unicode="&#x3c1;" 
d="M93 -179v427q0 63 18 110t48.5 78t71.5 46.5t88 15.5q108 0 164.5 -66t56.5 -182q0 -62 -18 -110.5t-47.5 -82.5t-68 -51.5t-78.5 -17.5q-42 0 -82.5 14t-75.5 55q1 -33 2 -61.5t1.5 -56.5t1.5 -57t1 -61h-83zM314 57q29 0 55 13.5t45 38t30 60.5t11 81q0 40 -8 73
t-25 56.5t-43 36.5t-63 13q-29 0 -55 -11.5t-46 -34t-31.5 -56.5t-11.5 -80v-124q18 -21 35.5 -34t35.5 -20t36 -9.5t35 -2.5z" />
    <glyph glyph-name="uni03C2" unicode="&#x3c2;" 
d="M438 -180l-66 26q26 33 39.5 55t13.5 44q0 12 -4 21.5t-15.5 18t-33 15.5t-56.5 14q-43 9 -84 25.5t-72.5 44t-50.5 69t-19 101.5q0 58 21 103.5t56.5 77t82 47.5t97.5 16q61 0 103 -19.5t74 -48.5l-42 -53q-30 27 -60 40t-71 13q-38 0 -70 -12.5t-55.5 -35.5t-37 -55.5
t-13.5 -72.5q0 -43 13.5 -72.5t37.5 -49t56.5 -31.5t70.5 -20q43 -9 71.5 -19t45 -23.5t23 -32t6.5 -43.5q0 -26 -15 -63.5t-46 -79.5z" />
    <glyph glyph-name="sigma" unicode="&#x3c3;" 
d="M290 -12q-47 0 -88.5 16.5t-73 48t-50 78.5t-18.5 107q0 64 19.5 110.5t52 77t74.5 45.5t88 15h278v-70q-43 3 -79.5 5t-78.5 3v-4q48 -26 74 -75t26 -118q0 -57 -17.5 -101t-47.5 -75t-71 -47t-88 -16zM290 56q31 0 57.5 12.5t45.5 35.5t29.5 56t10.5 74q0 36 -9 69.5
t-27 59t-44.5 40.5t-60.5 15q-63 0 -105 -44.5t-42 -135.5q0 -42 11 -75.5t30.5 -57.5t46 -36.5t57.5 -12.5z" />
    <glyph glyph-name="tau" unicode="&#x3c4;" 
d="M376 -12q-65 0 -91 35.5t-26 103.5v292h-193v62l70 5h398v-67h-194q-2 -78 -3 -153.5t-1 -144.5q0 -35 14.5 -50t43.5 -15q15 0 29.5 3t31.5 8l11 -64q-17 -6 -40.5 -10.5t-49.5 -4.5z" />
    <glyph glyph-name="upsilon" unicode="&#x3c5;" 
d="M294 -12q-99 0 -155 51.5t-56 157.5q0 39 2 78t2 78q0 29 -1.5 62t-6.5 71h80q5 -26 6 -53.5t1 -59.5q0 -19 -1 -42t-2 -47t-2 -47.5t-1 -44.5q0 -37 11 -63t29.5 -42t43 -23.5t51.5 -7.5q32 0 59 12t47 36.5t31 62.5t11 90q0 51 -9 105t-31 117l80 19q20 -60 32 -119
t12 -120q0 -66 -17 -116.5t-48 -85t-74 -52t-94 -17.5z" />
    <glyph glyph-name="phi" unicode="&#x3c6;" 
d="M128 244q0 -85 37.5 -133.5t94.5 -53.5v372q-57 -5 -94.5 -52.5t-37.5 -132.5zM472 244q0 85 -37.5 132.5t-94.5 52.5v-372q57 5 94.5 53.5t37.5 133.5zM260 -179v170q-44 3 -83 20.5t-68.5 49.5t-47 78t-17.5 105q0 58 17.5 104t47 77.5t68.5 49t83 20.5v127h80v-127
q43 -3 82.5 -20.5t69 -49t47 -77.5t17.5 -104q0 -59 -17.5 -105t-47 -78t-69 -49.5t-82.5 -20.5v-170h-80z" />
    <glyph glyph-name="chi" unicode="&#x3c7;" 
d="M139 -191l-83 12l206 342l-203 314l82 21l160 -262h4l137 250h87l-185 -322l216 -334l-80 -21l-175 287h-4z" />
    <glyph glyph-name="psi" unicode="&#x3c8;" 
d="M262 -179v167q-52 1 -90 18t-63 47t-37 71t-12 91v138q0 29 -1 62t-6 71h80q4 -26 5 -53.5t1 -59.5q0 -21 -0.5 -44.5t-0.5 -45.5t-0.5 -41t-0.5 -31q0 -72 30 -114t95 -42v567h80v-566q63 5 97.5 54t34.5 146q0 28 -2 54t-6.5 52.5t-12 55t-19.5 61.5l76 19
q23 -63 33 -118.5t10 -121.5q0 -125 -55.5 -194.5t-155.5 -74.5v-168h-80z" />
    <glyph glyph-name="omega" unicode="&#x3c9;" 
d="M190 -12q-33 0 -61.5 15t-49.5 45t-33 75.5t-12 105.5q0 78 26.5 145t64.5 124l72 -33q-21 -30 -36.5 -59t-26 -59t-15.5 -62.5t-5 -70.5q0 -76 23 -117t58 -41q28 0 48.5 27t20.5 95q0 30 -2 60.5t-6 69.5h85q-4 -39 -5.5 -69.5t-1.5 -60.5q0 -35 5.5 -58.5t14.5 -37.5
t21.5 -20t26.5 -6q36 0 58 41.5t22 129.5q0 37 -4.5 67.5t-13.5 58.5t-23.5 55.5t-34.5 58.5l73 31q19 -29 35 -58t27.5 -61.5t18 -68.5t6.5 -78q0 -123 -42.5 -183.5t-111.5 -60.5q-35 0 -64.5 19.5t-46.5 61.5h-4q-17 -42 -44.5 -61.5t-62.5 -19.5z" />
    <glyph glyph-name="iotadieresis" unicode="&#x3ca;" 
d="M400 -12q-81 0 -117 44t-36 131v256h-166v67h249q-1 -41 -2 -84t-2 -85.5t-1.5 -83t-0.5 -76.5q0 -53 23.5 -77t70.5 -24q19 0 41 4.5t45 15.5l21 -61q-26 -12 -55.5 -19.5t-69.5 -7.5zM186 588q-24 0 -39.5 16t-15.5 40q0 23 15.5 39.5t39.5 16.5t39.5 -16.5t15.5 -39.5
q0 -24 -15.5 -40t-39.5 -16zM380 588q-24 0 -39.5 16t-15.5 40q0 23 15.5 39.5t39.5 16.5t39.5 -16.5t15.5 -39.5q0 -24 -15.5 -40t-39.5 -16z" />
    <glyph glyph-name="upsilondieresis" unicode="&#x3cb;" 
d="M294 -12q-99 0 -155 51.5t-56 157.5q0 39 2 78t2 78q0 29 -1.5 62t-6.5 71h80q5 -26 6 -53.5t1 -59.5q0 -19 -1 -42t-2 -47t-2 -47.5t-1 -44.5q0 -37 11 -63t29.5 -42t43 -23.5t51.5 -7.5q32 0 59 12t47 36.5t31 62.5t11 90q0 51 -9 105t-31 117l80 19q20 -60 32 -119
t12 -120q0 -66 -17 -116.5t-48 -85t-74 -52t-94 -17.5zM200 588q-24 0 -39.5 16t-15.5 40q0 23 15.5 39.5t39.5 16.5t39.5 -16.5t15.5 -39.5q0 -24 -15.5 -40t-39.5 -16zM394 588q-24 0 -39.5 16t-15.5 40q0 23 15.5 39.5t39.5 16.5t39.5 -16.5t15.5 -39.5q0 -24 -15.5 -40
t-39.5 -16z" />
    <glyph glyph-name="omicrontonos" unicode="&#x3cc;" 
d="M300 -12q-48 0 -91 17t-75 49.5t-51 80t-19 107.5q0 61 19 108.5t51 80.5t75 50t91 17t91 -17t75 -50t51 -80.5t19 -108.5q0 -60 -19 -107.5t-51 -80t-75 -49.5t-91 -17zM300 56q35 0 63 13.5t47.5 38t30 58.5t10.5 76t-10.5 76.5t-30 59.5t-47.5 38.5t-63 13.5
t-63 -13.5t-47.5 -38.5t-30 -59.5t-10.5 -76.5t10.5 -76t30 -58.5t47.5 -38t63 -13.5zM322 559l-57 10l47 230l85 -15z" />
    <glyph glyph-name="upsilontonos" unicode="&#x3cd;" 
d="M294 -12q-99 0 -155 51.5t-56 157.5q0 39 2 78t2 78q0 29 -1.5 62t-6.5 71h80q5 -26 6 -53.5t1 -59.5q0 -19 -1 -42t-2 -47t-2 -47.5t-1 -44.5q0 -37 11 -63t29.5 -42t43 -23.5t51.5 -7.5q32 0 59 12t47 36.5t31 62.5t11 90q0 51 -9 105t-31 117l80 19q20 -60 32 -119
t12 -120q0 -66 -17 -116.5t-48 -85t-74 -52t-94 -17.5zM319 559l-57 10l47 230l85 -15z" />
    <glyph glyph-name="omegatonos" unicode="&#x3ce;" 
d="M190 -12q-33 0 -61.5 15t-49.5 45t-33 75.5t-12 105.5q0 78 26.5 145t64.5 124l72 -33q-21 -30 -36.5 -59t-26 -59t-15.5 -62.5t-5 -70.5q0 -76 23 -117t58 -41q28 0 48.5 27t20.5 95q0 30 -2 60.5t-6 69.5h85q-4 -39 -5.5 -69.5t-1.5 -60.5q0 -35 5.5 -58.5t14.5 -37.5
t21.5 -20t26.5 -6q36 0 58 41.5t22 129.5q0 37 -4.5 67.5t-13.5 58.5t-23.5 55.5t-34.5 58.5l73 31q19 -29 35 -58t27.5 -61.5t18 -68.5t6.5 -78q0 -123 -42.5 -183.5t-111.5 -60.5q-35 0 -64.5 19.5t-46.5 61.5h-4q-17 -42 -44.5 -61.5t-62.5 -19.5zM322 559l-57 10l47 230
l85 -15z" />
    <glyph glyph-name="uni03D0" unicode="&#x3d0;" 
d="M329 -12q-41 0 -82.5 12.5t-76 40t-56 72.5t-21.5 111v271q0 49 12.5 91t38 73t64 48t90.5 17q35 0 68.5 -10.5t60 -32t42.5 -54t16 -76.5q0 -54 -29.5 -96t-83.5 -70v-4q40 -4 71.5 -20t54 -41t34.5 -58.5t12 -72.5q0 -47 -16.5 -84t-46 -63t-68.5 -40t-84 -14zM173 480
q0 -33 -0.5 -60t-0.5 -51q64 12 108.5 29t72 39t39.5 49t12 59q0 56 -32 84t-74 28q-60 0 -91.5 -44.5t-33.5 -132.5zM326 60q30 0 55 10t43 28t28 42.5t10 53.5q0 30 -8.5 55.5t-26 44t-44 29.5t-62.5 11q-15 0 -51 -5.5t-99 -22.5v-69q0 -54 16 -88t40 -54t51 -27.5
t48 -7.5z" />
    <glyph glyph-name="uni03D1" unicode="&#x3d1;" 
d="M158 541q0 -32 12.5 -63t45 -53.5t88.5 -31.5t142 3q-2 70 -15 120t-34.5 81t-51 45t-65.5 14q-54 0 -88 -31t-34 -84zM297 -12q-93 0 -144.5 49t-51.5 145q0 39 -1.5 62.5t-6.5 46.5h77q6 -14 7 -39.5t1 -59.5q0 -37 9.5 -63t26.5 -42t39 -23.5t48 -7.5q30 0 56 12.5
t45.5 45t31 87.5t13.5 140q-107 -15 -178 0.5t-113 47t-59.5 73.5t-17.5 80q0 41 15.5 74.5t42.5 57.5t63 37t77 13q125 0 188 -92.5t63 -269.5q0 -103 -16.5 -174.5t-47 -115.5t-73 -64t-94.5 -20z" />
    <glyph glyph-name="uni03D5" unicode="&#x3d5;" 
d="M128 244q0 -85 37.5 -133.5t94.5 -53.5v372q-57 -5 -94.5 -52.5t-37.5 -132.5zM472 244q0 85 -37.5 132.5t-94.5 52.5v-372q57 5 94.5 53.5t37.5 133.5zM260 -179v170q-44 3 -83 20.5t-68.5 49.5t-47 78t-17.5 105q0 58 17.5 104t47 77.5t68.5 49t83 20.5v127h80v-127
q43 -3 82.5 -20.5t69 -49t47 -77.5t17.5 -104q0 -59 -17.5 -105t-47 -78t-69 -49.5t-82.5 -20.5v-170h-80z" />
    <glyph glyph-name="uni03D7" unicode="&#x3d7;" 
d="M441 -187l-95 8q39 41 74 85t63 87q-22 25 -47.5 56t-51 64.5t-49.5 69.5t-43 72q-35 -38 -68 -83q-37 -54 -37 -147v-25h-77v353q0 29 -1.5 65t-8.5 68h82q5 -20 7 -50.5t2 -62.5v-152h4q30 52 69 97.5t83.5 81.5t91.5 61t94 37l9 -78q-48 -14 -97 -41.5t-98 -69.5
q20 -38 47.5 -79t58 -81t62.5 -78t62 -71q-33 -53 -69.5 -102.5t-66.5 -84.5z" />
    <glyph glyph-name="uni03D9" unicode="&#x3d9;" 
d="M300 54q72 0 112.5 51t40.5 137q0 85 -40.5 136.5t-112.5 51.5t-112.5 -51.5t-40.5 -136.5q0 -86 40.5 -137t112.5 -51zM263 -179v170q-42 6 -79 25t-64 51t-42.5 76t-15.5 99q0 61 19 109t51.5 80.5t75.5 49.5t92 17t92 -17t75.5 -49.5t51.5 -80.5t19 -109
q0 -54 -15 -97.5t-41.5 -75.5t-62.5 -51.5t-78 -26.5q1 -23 1.5 -42.5l1 -39t1 -41t1.5 -47.5h-83z" />
    <glyph glyph-name="uni03DB" unicode="&#x3db;" 
d="M438 -180l-65 26q26 33 39 55t13 42q0 12 -3.5 21.5t-14.5 18t-32.5 16t-58.5 15.5q-44 10 -84.5 26.5t-72 43.5t-50 66t-18.5 95q0 62 20.5 107.5t56.5 75t84.5 44t104.5 14.5h156v-70q-31 2 -70 2h-81q-85 0 -135.5 -42.5t-50.5 -130.5q0 -39 13 -66t36 -46t56 -31.5
t72 -20.5q43 -9 71.5 -19.5t45 -24t23 -31.5t6.5 -43q0 -26 -15 -63.5t-46 -79.5z" />
    <glyph glyph-name="uni03DD" unicode="&#x3dd;" 
d="M146 -179v665h377v-67h-301l2 -217h266v-59h-265q0 -81 1 -157.5t3 -164.5h-83z" />
    <glyph glyph-name="uni03E1" unicode="&#x3e1;" 
d="M507 -179l-80 10q10 48 14 94t4 92q0 67 -10 126q-63 -29 -123.5 -57.5t-129.5 -63.5l-34 69l272 122q-15 63 -42 119q-69 -31 -135 -62t-141 -69l-34 69l278 125q-42 72 -100 131t-133 103l51 61q87 -53 154.5 -126t113 -160t69.5 -185.5t24 -202.5q0 -51 -4 -98.5
t-14 -96.5z" />
    <glyph glyph-name="uni0400" unicode="&#x400;" 
d="M114 0v656h406v-70h-322v-206h272v-71h-272v-238h332v-71h-416zM360 697l-152 115l47 55l141 -128z" />
    <glyph glyph-name="uni0401" unicode="&#x401;" 
d="M114 0v656h406v-70h-322v-206h272v-71h-272v-238h332v-71h-416zM240 715q-22 0 -36.5 14t-14.5 37t14.5 36.5t36.5 13.5t36 -13.5t14 -36.5t-14 -37t-36 -14zM422 715q-22 0 -36 14t-14 37t14 36.5t36 13.5t36.5 -13.5t14.5 -36.5t-14.5 -37t-36.5 -14z" />
    <glyph glyph-name="uni0402" unicode="&#x402;" 
d="M411 -12q-17 0 -35 3t-29 7l15 67q7 -3 17.5 -5.5t20.5 -2.5q16 0 32.5 6t30.5 21.5t23 41.5t9 65q0 74 -38.5 107.5t-107.5 33.5q-24 0 -48.5 -2.5t-43.5 -7.5v-322h-84v586h-168v70h462v-70h-210v-195q22 4 49.5 7t54.5 3q46 0 85.5 -12t68.5 -37t45 -65t16 -95
q0 -59 -14 -98t-37.5 -62.5t-53 -33.5t-60.5 -10z" />
    <glyph glyph-name="uni0403" unicode="&#x403;" 
d="M135 0v656h400v-70h-317v-586h-83zM271 697l-36 42l141 128l47 -55z" />
    <glyph glyph-name="uni0404" unicode="&#x404;" 
d="M352 -12q-63 0 -115.5 22t-90.5 64.5t-59 106t-21 147.5q0 83 21.5 146.5t60 106.5t92 65t116.5 22q60 0 106.5 -24.5t75.5 -56.5l-46 -54q-26 28 -59 45t-75 17q-88 0 -142 -55t-65 -160h274v-71h-275q5 -125 58.5 -186.5t147.5 -61.5q47 0 83.5 19.5t68.5 54.5l46 -52
q-39 -45 -88.5 -70t-113.5 -25z" />
    <glyph glyph-name="uni0405" unicode="&#x405;" 
d="M305 -12q-72 0 -132.5 26t-105.5 71l50 58q37 -37 86 -59.5t106 -22.5q68 0 105.5 29t37.5 75q0 26 -9 44t-25 31t-37.5 23t-46.5 21l-94 41q-25 10 -50 24t-45.5 34t-33.5 47.5t-13 63.5q0 37 16 69t44.5 55.5t68 36.5t86.5 13q62 0 114 -22.5t88 -58.5l-44 -54
q-32 29 -71 45.5t-90 16.5q-57 0 -92 -25.5t-35 -70.5q0 -24 10.5 -40.5t27 -29t37.5 -21.5l42 -18l92 -40q30 -12 56.5 -27.5t46 -36t31 -48t11.5 -63.5q0 -39 -16 -73t-46 -59.5t-73 -40t-97 -14.5z" />
    <glyph glyph-name="uni0406" unicode="&#x406;" 
d="M95 0v71h163v515h-163v70h410v-70h-163v-515h163v-71h-410z" />
    <glyph glyph-name="uni0407" unicode="&#x407;" 
d="M95 0v71h163v515h-163v70h410v-70h-163v-515h163v-71h-410zM209 715q-22 0 -36.5 14t-14.5 37t14.5 36.5t36.5 13.5t36 -13.5t14 -36.5t-14 -37t-36 -14zM391 715q-22 0 -36 14t-14 37t14 36.5t36 13.5t36.5 -13.5t14.5 -36.5t-14.5 -37t-36.5 -14z" />
    <glyph glyph-name="uni0408" unicode="&#x408;" 
d="M276 -12q-55 0 -108 26t-87 83l52 51q28 -45 65.5 -66t75.5 -21q71 0 103.5 37.5t32.5 118.5v370h-275v70h358v-447q0 -46 -11 -86.5t-36.5 -70.5t-67 -47.5t-102.5 -17.5z" />
    </font>
</defs>
</svg>
