<svg width="1600" height="941" viewBox="0 0 1600 941" fill="none" xmlns="http://www.w3.org/2000/svg">
<rect width="1600" height="940" transform="translate(0 0.5)" fill="#1C1C1C"/>
<path d="M1219.01 138.788C1215.03 138.788 1212.03 135.86 1212.03 130.628C1212.03 125.42 1215.05 122.372 1219.13 122.372C1221.22 122.372 1222.64 123.356 1223.6 124.34L1222.06 126.068C1221.34 125.3 1220.5 124.772 1219.13 124.772C1216.64 124.772 1214.88 126.956 1214.88 130.532C1214.88 134.156 1216.4 136.388 1219.18 136.388C1220.02 136.388 1220.84 136.124 1221.32 135.668V132.212H1218.6V129.932H1223.81V136.916C1222.78 137.924 1221.03 138.788 1219.01 138.788ZM1229.75 138.5V122.66H1235.03C1238.47 122.66 1240.99 123.86 1240.99 127.532C1240.99 131.036 1238.42 132.644 1235.03 132.644H1232.51V138.5H1229.75ZM1232.51 130.436H1234.79C1237.15 130.436 1238.25 129.476 1238.25 127.532C1238.25 125.54 1237.1 124.868 1234.79 124.868H1232.51V130.436ZM1251.68 138.788C1248.23 138.788 1246.16 136.796 1246.16 132.452V122.66H1248.92V132.644C1248.92 135.26 1249.98 136.388 1251.68 136.388C1253.36 136.388 1254.44 135.26 1254.44 132.644V122.66H1257.13V132.452C1257.13 136.796 1255.11 138.788 1251.68 138.788ZM1286.63 138.788C1282.62 138.788 1279.48 135.86 1279.48 130.628C1279.48 125.444 1282.57 122.372 1286.73 122.372C1288.67 122.372 1290.21 123.308 1291.19 124.34L1289.65 126.068C1288.86 125.276 1287.95 124.772 1286.73 124.772C1284.11 124.772 1282.31 126.956 1282.31 130.532C1282.31 134.156 1284.11 136.388 1286.8 136.388C1288.07 136.388 1289.05 135.788 1289.94 134.804L1291.5 136.484C1290.23 137.972 1288.62 138.788 1286.63 138.788ZM1297.71 138.5V122.66H1300.44V136.148H1307.84V138.5H1297.71ZM1318.84 138.788C1315.39 138.788 1313.32 136.796 1313.32 132.452V122.66H1316.08V132.644C1316.08 135.26 1317.14 136.388 1318.84 136.388C1320.52 136.388 1321.6 135.26 1321.6 132.644V122.66H1324.29V132.452C1324.29 136.796 1322.28 138.788 1318.84 138.788ZM1335.63 138.788C1333.43 138.788 1331.34 137.948 1329.8 136.46L1331.41 134.564C1332.59 135.644 1334.15 136.388 1335.68 136.388C1337.63 136.388 1338.61 135.572 1338.61 134.3C1338.61 132.98 1337.55 132.572 1335.99 131.948L1333.86 131.012C1332.18 130.364 1330.47 129.116 1330.47 126.812C1330.47 124.292 1332.73 122.372 1335.92 122.372C1337.87 122.372 1339.67 123.116 1340.96 124.388L1339.52 126.14C1338.47 125.276 1337.39 124.772 1335.92 124.772C1334.29 124.772 1333.28 125.468 1333.28 126.668C1333.28 127.916 1334.55 128.348 1335.97 128.924L1338.03 129.812C1340.03 130.628 1341.44 131.78 1341.44 134.084C1341.44 136.652 1339.31 138.788 1335.63 138.788ZM1350.98 138.5V124.988H1346.06V122.66H1358.71V124.988H1353.77V138.5H1350.98ZM1364.49 138.5V122.66H1374.5V124.988H1367.25V129.092H1373.39V131.42H1367.25V136.148H1374.74V138.5H1364.49ZM1380.8 138.5V122.66H1386.03C1389.27 122.66 1391.79 123.812 1391.79 127.34C1391.79 129.74 1390.54 131.204 1388.65 131.852L1392.41 138.5H1389.29L1385.89 132.284H1383.56V138.5H1380.8ZM1383.56 130.052H1385.74C1387.9 130.052 1389.05 129.14 1389.05 127.34C1389.05 125.492 1387.9 124.868 1385.74 124.868H1383.56V130.052Z" fill="#EDEDED"/>
<path d="M1245.53 172.772C1242.29 170.084 1240.3 166.388 1240.3 161.828C1240.3 157.244 1242.29 153.572 1245.53 150.884L1247.04 152.18C1244.02 154.916 1242.65 157.916 1242.65 161.828C1242.65 165.74 1244.02 168.74 1247.04 171.476L1245.53 172.772ZM1259.61 168.788C1255.98 168.788 1253.44 165.62 1253.44 160.508C1253.44 155.372 1255.98 152.372 1259.61 152.372C1263.25 152.372 1265.77 155.396 1265.77 160.508C1265.77 165.62 1263.25 168.788 1259.61 168.788ZM1259.61 166.388C1261.62 166.388 1262.94 164.084 1262.94 160.508C1262.94 156.932 1261.62 154.772 1259.61 154.772C1257.59 154.772 1256.29 156.932 1256.29 160.508C1256.29 164.084 1257.59 166.388 1259.61 166.388ZM1272.1 168.5V152.66H1274.84V166.148H1282.23V168.5H1272.1ZM1288.89 168.5V152.66H1291.63V166.148H1299.02V168.5H1288.89ZM1303.28 168.5L1308.37 152.66H1311.61L1316.7 168.5H1313.77L1312.55 164.18H1307.34L1306.09 168.5H1303.28ZM1307.94 161.996H1311.95L1311.39 160.028C1310.91 158.348 1310.43 156.572 1309.98 154.82H1309.88C1309.45 156.572 1308.97 158.348 1308.49 160.028L1307.94 161.996ZM1321.27 168.5V152.66H1324.23L1326.41 158.852L1327.18 161.228H1327.27L1327.99 158.852L1330.18 152.66H1333.13V168.5H1330.78V161.372C1330.78 159.86 1330.99 156.884 1331.14 155.396H1331.04L1329.84 159.26L1327.85 164.228H1326.51L1324.49 159.26L1323.29 155.396H1323.22C1323.34 156.884 1323.58 159.86 1323.58 161.372V168.5H1321.27ZM1337.71 168.5L1342.8 152.66H1346.04L1351.12 168.5H1348.2L1346.97 164.18H1341.76L1340.52 168.5H1337.71ZM1342.36 161.996H1346.37L1345.82 160.028C1345.34 158.348 1344.86 156.572 1344.4 154.82H1344.31C1343.88 156.572 1343.4 158.348 1342.92 160.028L1342.36 161.996ZM1358.51 172.772L1356.97 171.476C1360.02 168.74 1361.36 165.74 1361.36 161.828C1361.36 157.916 1360.02 154.916 1356.97 152.18L1358.51 150.884C1361.72 153.572 1363.74 157.244 1363.74 161.828C1363.74 166.388 1361.72 170.084 1358.51 172.772Z" fill="#A0A0A0"/>
<rect x="1100" y="195.5" width="404" height="631" rx="32" fill="#4D4D4D" fill-opacity="0.1"/>
<rect x="1100" y="195.5" width="404" height="631" rx="32" stroke="#4D4D4D" stroke-width="2" stroke-linecap="round"/>
<rect x="1142" y="231" width="96" height="96" rx="21" fill="#4D4D4D" fill-opacity="0.1" stroke="#343434" stroke-width="2"/>
<path d="M1208.49 255.648H1172.81C1169.53 255.648 1166.86 258.262 1166.86 261.486V296.513C1166.86 299.737 1169.53 302.351 1172.81 302.351H1208.49C1211.77 302.351 1214.43 299.737 1214.43 296.513V261.486C1214.43 258.262 1211.77 255.648 1208.49 255.648Z" stroke="#EDEDED" stroke-width="2" stroke-linecap="round" stroke-linejoin="round"/>
<path d="M1199.57 270.242H1181.73V287.756H1199.57V270.242Z" stroke="#EDEDED" stroke-width="2" stroke-linecap="round" stroke-linejoin="round"/>
<path d="M1181.73 249.811V255.648" stroke="#EDEDED" stroke-width="2" stroke-linecap="round" stroke-linejoin="round"/>
<path d="M1199.57 249.811V255.648" stroke="#EDEDED" stroke-width="2" stroke-linecap="round" stroke-linejoin="round"/>
<path d="M1181.73 305.27V308.188" stroke="#EDEDED" stroke-width="2" stroke-linecap="round" stroke-linejoin="round"/>
<path d="M1199.57 302.352V308.189" stroke="#EDEDED" stroke-width="2" stroke-linecap="round" stroke-linejoin="round"/>
<path d="M1214.43 270.242H1220.38" stroke="#EDEDED" stroke-width="2" stroke-linecap="round" stroke-linejoin="round"/>
<path d="M1214.43 284.838H1220.38" stroke="#EDEDED" stroke-width="2" stroke-linecap="round" stroke-linejoin="round"/>
<path d="M1160.92 270.242H1166.87" stroke="#EDEDED" stroke-width="2" stroke-linecap="round" stroke-linejoin="round"/>
<path d="M1160.92 284.838H1166.87" stroke="#EDEDED" stroke-width="2" stroke-linecap="round" stroke-linejoin="round"/>
<rect x="1254" y="231" width="96" height="96" rx="21" fill="#4D4D4D" fill-opacity="0.1" stroke="#343434" stroke-width="2"/>
<path d="M1320.49 255.648H1284.81C1281.53 255.648 1278.86 258.262 1278.86 261.486V296.513C1278.86 299.737 1281.53 302.351 1284.81 302.351H1320.49C1323.77 302.351 1326.43 299.737 1326.43 296.513V261.486C1326.43 258.262 1323.77 255.648 1320.49 255.648Z" stroke="#EDEDED" stroke-width="2" stroke-linecap="round" stroke-linejoin="round"/>
<path d="M1311.57 270.242H1293.73V287.756H1311.57V270.242Z" stroke="#EDEDED" stroke-width="2" stroke-linecap="round" stroke-linejoin="round"/>
<path d="M1293.73 249.811V255.648" stroke="#EDEDED" stroke-width="2" stroke-linecap="round" stroke-linejoin="round"/>
<path d="M1311.57 249.811V255.648" stroke="#EDEDED" stroke-width="2" stroke-linecap="round" stroke-linejoin="round"/>
<path d="M1293.73 305.27V308.188" stroke="#EDEDED" stroke-width="2" stroke-linecap="round" stroke-linejoin="round"/>
<path d="M1311.57 302.352V308.189" stroke="#EDEDED" stroke-width="2" stroke-linecap="round" stroke-linejoin="round"/>
<path d="M1326.43 270.242H1332.38" stroke="#EDEDED" stroke-width="2" stroke-linecap="round" stroke-linejoin="round"/>
<path d="M1326.43 284.838H1332.38" stroke="#EDEDED" stroke-width="2" stroke-linecap="round" stroke-linejoin="round"/>
<path d="M1272.92 270.242H1278.87" stroke="#EDEDED" stroke-width="2" stroke-linecap="round" stroke-linejoin="round"/>
<path d="M1272.92 284.838H1278.87" stroke="#EDEDED" stroke-width="2" stroke-linecap="round" stroke-linejoin="round"/>
<rect x="1366" y="231" width="96" height="96" rx="21" fill="#4D4D4D" fill-opacity="0.1" stroke="#343434" stroke-width="2"/>
<path d="M1432.49 255.648H1396.81C1393.53 255.648 1390.86 258.262 1390.86 261.486V296.513C1390.86 299.737 1393.53 302.351 1396.81 302.351H1432.49C1435.77 302.351 1438.43 299.737 1438.43 296.513V261.486C1438.43 258.262 1435.77 255.648 1432.49 255.648Z" stroke="#EDEDED" stroke-width="2" stroke-linecap="round" stroke-linejoin="round"/>
<path d="M1423.57 270.242H1405.73V287.756H1423.57V270.242Z" stroke="#EDEDED" stroke-width="2" stroke-linecap="round" stroke-linejoin="round"/>
<path d="M1405.73 249.811V255.648" stroke="#EDEDED" stroke-width="2" stroke-linecap="round" stroke-linejoin="round"/>
<path d="M1423.57 249.811V255.648" stroke="#EDEDED" stroke-width="2" stroke-linecap="round" stroke-linejoin="round"/>
<path d="M1405.73 305.27V308.188" stroke="#EDEDED" stroke-width="2" stroke-linecap="round" stroke-linejoin="round"/>
<path d="M1423.57 302.352V308.189" stroke="#EDEDED" stroke-width="2" stroke-linecap="round" stroke-linejoin="round"/>
<path d="M1438.43 270.242H1444.38" stroke="#EDEDED" stroke-width="2" stroke-linecap="round" stroke-linejoin="round"/>
<path d="M1438.43 284.838H1444.38" stroke="#EDEDED" stroke-width="2" stroke-linecap="round" stroke-linejoin="round"/>
<path d="M1384.92 270.242H1390.87" stroke="#EDEDED" stroke-width="2" stroke-linecap="round" stroke-linejoin="round"/>
<path d="M1384.92 284.838H1390.87" stroke="#EDEDED" stroke-width="2" stroke-linecap="round" stroke-linejoin="round"/>
<rect x="1142" y="348" width="96" height="96" rx="21" fill="#4D4D4D" fill-opacity="0.1" stroke="#343434" stroke-width="2"/>
<path d="M1208.49 372.648H1172.81C1169.53 372.648 1166.86 375.262 1166.86 378.486V413.513C1166.86 416.737 1169.53 419.351 1172.81 419.351H1208.49C1211.77 419.351 1214.43 416.737 1214.43 413.513V378.486C1214.43 375.262 1211.77 372.648 1208.49 372.648Z" stroke="#EDEDED" stroke-width="2" stroke-linecap="round" stroke-linejoin="round"/>
<path d="M1199.57 387.242H1181.73V404.756H1199.57V387.242Z" stroke="#EDEDED" stroke-width="2" stroke-linecap="round" stroke-linejoin="round"/>
<path d="M1181.73 366.811V372.648" stroke="#EDEDED" stroke-width="2" stroke-linecap="round" stroke-linejoin="round"/>
<path d="M1199.57 366.811V372.648" stroke="#EDEDED" stroke-width="2" stroke-linecap="round" stroke-linejoin="round"/>
<path d="M1181.73 422.27V425.188" stroke="#EDEDED" stroke-width="2" stroke-linecap="round" stroke-linejoin="round"/>
<path d="M1199.57 419.352V425.189" stroke="#EDEDED" stroke-width="2" stroke-linecap="round" stroke-linejoin="round"/>
<path d="M1214.43 387.242H1220.38" stroke="#EDEDED" stroke-width="2" stroke-linecap="round" stroke-linejoin="round"/>
<path d="M1214.43 401.838H1220.38" stroke="#EDEDED" stroke-width="2" stroke-linecap="round" stroke-linejoin="round"/>
<path d="M1160.92 387.242H1166.87" stroke="#EDEDED" stroke-width="2" stroke-linecap="round" stroke-linejoin="round"/>
<path d="M1160.92 401.838H1166.87" stroke="#EDEDED" stroke-width="2" stroke-linecap="round" stroke-linejoin="round"/>
<rect x="1254" y="348" width="96" height="96" rx="21" fill="#4D4D4D" fill-opacity="0.1" stroke="#343434" stroke-width="2"/>
<path d="M1320.49 372.648H1284.81C1281.53 372.648 1278.86 375.262 1278.86 378.486V413.513C1278.86 416.737 1281.53 419.351 1284.81 419.351H1320.49C1323.77 419.351 1326.43 416.737 1326.43 413.513V378.486C1326.43 375.262 1323.77 372.648 1320.49 372.648Z" stroke="#EDEDED" stroke-width="2" stroke-linecap="round" stroke-linejoin="round"/>
<path d="M1311.57 387.242H1293.73V404.756H1311.57V387.242Z" stroke="#EDEDED" stroke-width="2" stroke-linecap="round" stroke-linejoin="round"/>
<path d="M1293.73 366.811V372.648" stroke="#EDEDED" stroke-width="2" stroke-linecap="round" stroke-linejoin="round"/>
<path d="M1311.57 366.811V372.648" stroke="#EDEDED" stroke-width="2" stroke-linecap="round" stroke-linejoin="round"/>
<path d="M1293.73 422.27V425.188" stroke="#EDEDED" stroke-width="2" stroke-linecap="round" stroke-linejoin="round"/>
<path d="M1311.57 419.352V425.189" stroke="#EDEDED" stroke-width="2" stroke-linecap="round" stroke-linejoin="round"/>
<path d="M1326.43 387.242H1332.38" stroke="#EDEDED" stroke-width="2" stroke-linecap="round" stroke-linejoin="round"/>
<path d="M1326.43 401.838H1332.38" stroke="#EDEDED" stroke-width="2" stroke-linecap="round" stroke-linejoin="round"/>
<path d="M1272.92 387.242H1278.87" stroke="#EDEDED" stroke-width="2" stroke-linecap="round" stroke-linejoin="round"/>
<path d="M1272.92 401.838H1278.87" stroke="#EDEDED" stroke-width="2" stroke-linecap="round" stroke-linejoin="round"/>
<rect x="1366" y="348" width="96" height="96" rx="21" fill="#4D4D4D" fill-opacity="0.1" stroke="#343434" stroke-width="2"/>
<path d="M1432.49 372.648H1396.81C1393.53 372.648 1390.86 375.262 1390.86 378.486V413.513C1390.86 416.737 1393.53 419.351 1396.81 419.351H1432.49C1435.77 419.351 1438.43 416.737 1438.43 413.513V378.486C1438.43 375.262 1435.77 372.648 1432.49 372.648Z" stroke="#EDEDED" stroke-width="2" stroke-linecap="round" stroke-linejoin="round"/>
<path d="M1423.57 387.242H1405.73V404.756H1423.57V387.242Z" stroke="#EDEDED" stroke-width="2" stroke-linecap="round" stroke-linejoin="round"/>
<path d="M1405.73 366.811V372.648" stroke="#EDEDED" stroke-width="2" stroke-linecap="round" stroke-linejoin="round"/>
<path d="M1423.57 366.811V372.648" stroke="#EDEDED" stroke-width="2" stroke-linecap="round" stroke-linejoin="round"/>
<path d="M1405.73 422.27V425.188" stroke="#EDEDED" stroke-width="2" stroke-linecap="round" stroke-linejoin="round"/>
<path d="M1423.57 419.352V425.189" stroke="#EDEDED" stroke-width="2" stroke-linecap="round" stroke-linejoin="round"/>
<path d="M1438.43 387.242H1444.38" stroke="#EDEDED" stroke-width="2" stroke-linecap="round" stroke-linejoin="round"/>
<path d="M1438.43 401.838H1444.38" stroke="#EDEDED" stroke-width="2" stroke-linecap="round" stroke-linejoin="round"/>
<path d="M1384.92 387.242H1390.87" stroke="#EDEDED" stroke-width="2" stroke-linecap="round" stroke-linejoin="round"/>
<path d="M1384.92 401.838H1390.87" stroke="#EDEDED" stroke-width="2" stroke-linecap="round" stroke-linejoin="round"/>
<rect x="1142" y="465" width="96" height="96" rx="21" fill="#4D4D4D" fill-opacity="0.1" stroke="#343434" stroke-width="2"/>
<path d="M1208.49 489.648H1172.81C1169.53 489.648 1166.86 492.262 1166.86 495.486V530.513C1166.86 533.737 1169.53 536.351 1172.81 536.351H1208.49C1211.77 536.351 1214.43 533.737 1214.43 530.513V495.486C1214.43 492.262 1211.77 489.648 1208.49 489.648Z" stroke="#EDEDED" stroke-width="2" stroke-linecap="round" stroke-linejoin="round"/>
<path d="M1199.57 504.242H1181.73V521.756H1199.57V504.242Z" stroke="#EDEDED" stroke-width="2" stroke-linecap="round" stroke-linejoin="round"/>
<path d="M1181.73 483.811V489.648" stroke="#EDEDED" stroke-width="2" stroke-linecap="round" stroke-linejoin="round"/>
<path d="M1199.57 483.811V489.648" stroke="#EDEDED" stroke-width="2" stroke-linecap="round" stroke-linejoin="round"/>
<path d="M1181.73 539.27V542.188" stroke="#EDEDED" stroke-width="2" stroke-linecap="round" stroke-linejoin="round"/>
<path d="M1199.57 536.352V542.189" stroke="#EDEDED" stroke-width="2" stroke-linecap="round" stroke-linejoin="round"/>
<path d="M1214.43 504.242H1220.38" stroke="#EDEDED" stroke-width="2" stroke-linecap="round" stroke-linejoin="round"/>
<path d="M1214.43 518.838H1220.38" stroke="#EDEDED" stroke-width="2" stroke-linecap="round" stroke-linejoin="round"/>
<path d="M1160.92 504.242H1166.87" stroke="#EDEDED" stroke-width="2" stroke-linecap="round" stroke-linejoin="round"/>
<path d="M1160.92 518.838H1166.87" stroke="#EDEDED" stroke-width="2" stroke-linecap="round" stroke-linejoin="round"/>
<rect x="1254" y="465" width="96" height="96" rx="21" fill="#4D4D4D" fill-opacity="0.1" stroke="#343434" stroke-width="2"/>
<path d="M1320.49 489.648H1284.81C1281.53 489.648 1278.86 492.262 1278.86 495.486V530.513C1278.86 533.737 1281.53 536.351 1284.81 536.351H1320.49C1323.77 536.351 1326.43 533.737 1326.43 530.513V495.486C1326.43 492.262 1323.77 489.648 1320.49 489.648Z" stroke="#EDEDED" stroke-width="2" stroke-linecap="round" stroke-linejoin="round"/>
<path d="M1311.57 504.242H1293.73V521.756H1311.57V504.242Z" stroke="#EDEDED" stroke-width="2" stroke-linecap="round" stroke-linejoin="round"/>
<path d="M1293.73 483.811V489.648" stroke="#EDEDED" stroke-width="2" stroke-linecap="round" stroke-linejoin="round"/>
<path d="M1311.57 483.811V489.648" stroke="#EDEDED" stroke-width="2" stroke-linecap="round" stroke-linejoin="round"/>
<path d="M1293.73 539.27V542.188" stroke="#EDEDED" stroke-width="2" stroke-linecap="round" stroke-linejoin="round"/>
<path d="M1311.57 536.352V542.189" stroke="#EDEDED" stroke-width="2" stroke-linecap="round" stroke-linejoin="round"/>
<path d="M1326.43 504.242H1332.38" stroke="#EDEDED" stroke-width="2" stroke-linecap="round" stroke-linejoin="round"/>
<path d="M1326.43 518.838H1332.38" stroke="#EDEDED" stroke-width="2" stroke-linecap="round" stroke-linejoin="round"/>
<path d="M1272.92 504.242H1278.87" stroke="#EDEDED" stroke-width="2" stroke-linecap="round" stroke-linejoin="round"/>
<path d="M1272.92 518.838H1278.87" stroke="#EDEDED" stroke-width="2" stroke-linecap="round" stroke-linejoin="round"/>
<rect x="1366" y="465" width="96" height="96" rx="21" fill="#4D4D4D" fill-opacity="0.1" stroke="#343434" stroke-width="2"/>
<path d="M1432.49 489.648H1396.81C1393.53 489.648 1390.86 492.262 1390.86 495.486V530.513C1390.86 533.737 1393.53 536.351 1396.81 536.351H1432.49C1435.77 536.351 1438.43 533.737 1438.43 530.513V495.486C1438.43 492.262 1435.77 489.648 1432.49 489.648Z" stroke="#EDEDED" stroke-width="2" stroke-linecap="round" stroke-linejoin="round"/>
<path d="M1423.57 504.242H1405.73V521.756H1423.57V504.242Z" stroke="#EDEDED" stroke-width="2" stroke-linecap="round" stroke-linejoin="round"/>
<path d="M1405.73 483.811V489.648" stroke="#EDEDED" stroke-width="2" stroke-linecap="round" stroke-linejoin="round"/>
<path d="M1423.57 483.811V489.648" stroke="#EDEDED" stroke-width="2" stroke-linecap="round" stroke-linejoin="round"/>
<path d="M1405.73 539.27V542.188" stroke="#EDEDED" stroke-width="2" stroke-linecap="round" stroke-linejoin="round"/>
<path d="M1423.57 536.352V542.189" stroke="#EDEDED" stroke-width="2" stroke-linecap="round" stroke-linejoin="round"/>
<path d="M1438.43 504.242H1444.38" stroke="#EDEDED" stroke-width="2" stroke-linecap="round" stroke-linejoin="round"/>
<path d="M1438.43 518.838H1444.38" stroke="#EDEDED" stroke-width="2" stroke-linecap="round" stroke-linejoin="round"/>
<path d="M1384.92 504.242H1390.87" stroke="#EDEDED" stroke-width="2" stroke-linecap="round" stroke-linejoin="round"/>
<path d="M1384.92 518.838H1390.87" stroke="#EDEDED" stroke-width="2" stroke-linecap="round" stroke-linejoin="round"/>
<rect x="1142" y="582" width="96" height="96" rx="21" fill="#4D4D4D" fill-opacity="0.1" stroke="#343434" stroke-width="2"/>
<path d="M1208.49 606.648H1172.81C1169.53 606.648 1166.86 609.262 1166.86 612.486V647.513C1166.86 650.737 1169.53 653.351 1172.81 653.351H1208.49C1211.77 653.351 1214.43 650.737 1214.43 647.513V612.486C1214.43 609.262 1211.77 606.648 1208.49 606.648Z" stroke="#EDEDED" stroke-width="2" stroke-linecap="round" stroke-linejoin="round"/>
<path d="M1199.57 621.242H1181.73V638.756H1199.57V621.242Z" stroke="#EDEDED" stroke-width="2" stroke-linecap="round" stroke-linejoin="round"/>
<path d="M1181.73 600.811V606.648" stroke="#EDEDED" stroke-width="2" stroke-linecap="round" stroke-linejoin="round"/>
<path d="M1199.57 600.811V606.648" stroke="#EDEDED" stroke-width="2" stroke-linecap="round" stroke-linejoin="round"/>
<path d="M1181.73 656.27V659.188" stroke="#EDEDED" stroke-width="2" stroke-linecap="round" stroke-linejoin="round"/>
<path d="M1199.57 653.352V659.189" stroke="#EDEDED" stroke-width="2" stroke-linecap="round" stroke-linejoin="round"/>
<path d="M1214.43 621.242H1220.38" stroke="#EDEDED" stroke-width="2" stroke-linecap="round" stroke-linejoin="round"/>
<path d="M1214.43 635.838H1220.38" stroke="#EDEDED" stroke-width="2" stroke-linecap="round" stroke-linejoin="round"/>
<path d="M1160.92 621.242H1166.87" stroke="#EDEDED" stroke-width="2" stroke-linecap="round" stroke-linejoin="round"/>
<path d="M1160.92 635.838H1166.87" stroke="#EDEDED" stroke-width="2" stroke-linecap="round" stroke-linejoin="round"/>
<rect x="1254" y="582" width="96" height="96" rx="21" fill="#4D4D4D" fill-opacity="0.1" stroke="#343434" stroke-width="2"/>
<path d="M1320.49 606.648H1284.81C1281.53 606.648 1278.86 609.262 1278.86 612.486V647.513C1278.86 650.737 1281.53 653.351 1284.81 653.351H1320.49C1323.77 653.351 1326.43 650.737 1326.43 647.513V612.486C1326.43 609.262 1323.77 606.648 1320.49 606.648Z" stroke="#EDEDED" stroke-width="2" stroke-linecap="round" stroke-linejoin="round"/>
<path d="M1311.57 621.242H1293.73V638.756H1311.57V621.242Z" stroke="#EDEDED" stroke-width="2" stroke-linecap="round" stroke-linejoin="round"/>
<path d="M1293.73 600.811V606.648" stroke="#EDEDED" stroke-width="2" stroke-linecap="round" stroke-linejoin="round"/>
<path d="M1311.57 600.811V606.648" stroke="#EDEDED" stroke-width="2" stroke-linecap="round" stroke-linejoin="round"/>
<path d="M1293.73 656.27V659.188" stroke="#EDEDED" stroke-width="2" stroke-linecap="round" stroke-linejoin="round"/>
<path d="M1311.57 653.352V659.189" stroke="#EDEDED" stroke-width="2" stroke-linecap="round" stroke-linejoin="round"/>
<path d="M1326.43 621.242H1332.38" stroke="#EDEDED" stroke-width="2" stroke-linecap="round" stroke-linejoin="round"/>
<path d="M1326.43 635.838H1332.38" stroke="#EDEDED" stroke-width="2" stroke-linecap="round" stroke-linejoin="round"/>
<path d="M1272.92 621.242H1278.87" stroke="#EDEDED" stroke-width="2" stroke-linecap="round" stroke-linejoin="round"/>
<path d="M1272.92 635.838H1278.87" stroke="#EDEDED" stroke-width="2" stroke-linecap="round" stroke-linejoin="round"/>
<rect x="1366" y="582" width="96" height="96" rx="21" fill="#4D4D4D" fill-opacity="0.1" stroke="#343434" stroke-width="2"/>
<path d="M1432.49 606.648H1396.81C1393.53 606.648 1390.86 609.262 1390.86 612.486V647.513C1390.86 650.737 1393.53 653.351 1396.81 653.351H1432.49C1435.77 653.351 1438.43 650.737 1438.43 647.513V612.486C1438.43 609.262 1435.77 606.648 1432.49 606.648Z" stroke="#EDEDED" stroke-width="2" stroke-linecap="round" stroke-linejoin="round"/>
<path d="M1423.57 621.242H1405.73V638.756H1423.57V621.242Z" stroke="#EDEDED" stroke-width="2" stroke-linecap="round" stroke-linejoin="round"/>
<path d="M1405.73 600.811V606.648" stroke="#EDEDED" stroke-width="2" stroke-linecap="round" stroke-linejoin="round"/>
<path d="M1423.57 600.811V606.648" stroke="#EDEDED" stroke-width="2" stroke-linecap="round" stroke-linejoin="round"/>
<path d="M1405.73 656.27V659.188" stroke="#EDEDED" stroke-width="2" stroke-linecap="round" stroke-linejoin="round"/>
<path d="M1423.57 653.352V659.189" stroke="#EDEDED" stroke-width="2" stroke-linecap="round" stroke-linejoin="round"/>
<path d="M1438.43 621.242H1444.38" stroke="#EDEDED" stroke-width="2" stroke-linecap="round" stroke-linejoin="round"/>
<path d="M1438.43 635.838H1444.38" stroke="#EDEDED" stroke-width="2" stroke-linecap="round" stroke-linejoin="round"/>
<path d="M1384.92 621.242H1390.87" stroke="#EDEDED" stroke-width="2" stroke-linecap="round" stroke-linejoin="round"/>
<path d="M1384.92 635.838H1390.87" stroke="#EDEDED" stroke-width="2" stroke-linecap="round" stroke-linejoin="round"/>
<rect x="1142" y="699" width="96" height="96" rx="21" fill="#4D4D4D" fill-opacity="0.1" stroke="#343434" stroke-width="2"/>
<path d="M1208.49 723.648H1172.81C1169.53 723.648 1166.86 726.262 1166.86 729.486V764.513C1166.86 767.737 1169.53 770.351 1172.81 770.351H1208.49C1211.77 770.351 1214.43 767.737 1214.43 764.513V729.486C1214.43 726.262 1211.77 723.648 1208.49 723.648Z" stroke="#EDEDED" stroke-width="2" stroke-linecap="round" stroke-linejoin="round"/>
<path d="M1199.57 738.242H1181.73V755.756H1199.57V738.242Z" stroke="#EDEDED" stroke-width="2" stroke-linecap="round" stroke-linejoin="round"/>
<path d="M1181.73 717.811V723.648" stroke="#EDEDED" stroke-width="2" stroke-linecap="round" stroke-linejoin="round"/>
<path d="M1199.57 717.811V723.648" stroke="#EDEDED" stroke-width="2" stroke-linecap="round" stroke-linejoin="round"/>
<path d="M1181.73 773.27V776.188" stroke="#EDEDED" stroke-width="2" stroke-linecap="round" stroke-linejoin="round"/>
<path d="M1199.57 770.352V776.189" stroke="#EDEDED" stroke-width="2" stroke-linecap="round" stroke-linejoin="round"/>
<path d="M1214.43 738.242H1220.38" stroke="#EDEDED" stroke-width="2" stroke-linecap="round" stroke-linejoin="round"/>
<path d="M1214.43 752.838H1220.38" stroke="#EDEDED" stroke-width="2" stroke-linecap="round" stroke-linejoin="round"/>
<path d="M1160.92 738.242H1166.87" stroke="#EDEDED" stroke-width="2" stroke-linecap="round" stroke-linejoin="round"/>
<path d="M1160.92 752.838H1166.87" stroke="#EDEDED" stroke-width="2" stroke-linecap="round" stroke-linejoin="round"/>
<rect x="1254" y="699" width="96" height="96" rx="21" fill="#4D4D4D" fill-opacity="0.1" stroke="#343434" stroke-width="2"/>
<path d="M1320.49 723.648H1284.81C1281.53 723.648 1278.86 726.262 1278.86 729.486V764.513C1278.86 767.737 1281.53 770.351 1284.81 770.351H1320.49C1323.77 770.351 1326.43 767.737 1326.43 764.513V729.486C1326.43 726.262 1323.77 723.648 1320.49 723.648Z" stroke="#EDEDED" stroke-width="2" stroke-linecap="round" stroke-linejoin="round"/>
<path d="M1311.57 738.242H1293.73V755.756H1311.57V738.242Z" stroke="#EDEDED" stroke-width="2" stroke-linecap="round" stroke-linejoin="round"/>
<path d="M1293.73 717.811V723.648" stroke="#EDEDED" stroke-width="2" stroke-linecap="round" stroke-linejoin="round"/>
<path d="M1311.57 717.811V723.648" stroke="#EDEDED" stroke-width="2" stroke-linecap="round" stroke-linejoin="round"/>
<path d="M1293.73 773.27V776.188" stroke="#EDEDED" stroke-width="2" stroke-linecap="round" stroke-linejoin="round"/>
<path d="M1311.57 770.352V776.189" stroke="#EDEDED" stroke-width="2" stroke-linecap="round" stroke-linejoin="round"/>
<path d="M1326.43 738.242H1332.38" stroke="#EDEDED" stroke-width="2" stroke-linecap="round" stroke-linejoin="round"/>
<path d="M1326.43 752.838H1332.38" stroke="#EDEDED" stroke-width="2" stroke-linecap="round" stroke-linejoin="round"/>
<path d="M1272.92 738.242H1278.87" stroke="#EDEDED" stroke-width="2" stroke-linecap="round" stroke-linejoin="round"/>
<path d="M1272.92 752.838H1278.87" stroke="#EDEDED" stroke-width="2" stroke-linecap="round" stroke-linejoin="round"/>
<rect x="1366" y="699" width="96" height="96" rx="21" fill="#4D4D4D" fill-opacity="0.1" stroke="#343434" stroke-width="2"/>
<path d="M1432.49 723.648H1396.81C1393.53 723.648 1390.86 726.262 1390.86 729.486V764.513C1390.86 767.737 1393.53 770.351 1396.81 770.351H1432.49C1435.77 770.351 1438.43 767.737 1438.43 764.513V729.486C1438.43 726.262 1435.77 723.648 1432.49 723.648Z" stroke="#EDEDED" stroke-width="2" stroke-linecap="round" stroke-linejoin="round"/>
<path d="M1423.57 738.242H1405.73V755.756H1423.57V738.242Z" stroke="#EDEDED" stroke-width="2" stroke-linecap="round" stroke-linejoin="round"/>
<path d="M1405.73 717.811V723.648" stroke="#EDEDED" stroke-width="2" stroke-linecap="round" stroke-linejoin="round"/>
<path d="M1423.57 717.811V723.648" stroke="#EDEDED" stroke-width="2" stroke-linecap="round" stroke-linejoin="round"/>
<path d="M1405.73 773.27V776.188" stroke="#EDEDED" stroke-width="2" stroke-linecap="round" stroke-linejoin="round"/>
<path d="M1423.57 770.352V776.189" stroke="#EDEDED" stroke-width="2" stroke-linecap="round" stroke-linejoin="round"/>
<path d="M1438.43 738.242H1444.38" stroke="#EDEDED" stroke-width="2" stroke-linecap="round" stroke-linejoin="round"/>
<path d="M1438.43 752.838H1444.38" stroke="#EDEDED" stroke-width="2" stroke-linecap="round" stroke-linejoin="round"/>
<path d="M1384.92 738.242H1390.87" stroke="#EDEDED" stroke-width="2" stroke-linecap="round" stroke-linejoin="round"/>
<path d="M1384.92 752.838H1390.87" stroke="#EDEDED" stroke-width="2" stroke-linecap="round" stroke-linejoin="round"/>
<path d="M411.293 168.5V152.66H421.301V154.988H414.053V159.092H420.197V161.42H414.053V166.148H421.541V168.5H411.293ZM427.363 168.5V152.66H431.419C436.051 152.66 438.835 155.276 438.835 160.508C438.835 165.74 436.051 168.5 431.563 168.5H427.363ZM430.147 166.244H431.251C434.275 166.244 435.979 164.396 435.979 160.508C435.979 156.62 434.275 154.892 431.251 154.892H430.147V166.244ZM450.514 168.788C446.53 168.788 443.53 165.86 443.53 160.628C443.53 155.42 446.554 152.372 450.634 152.372C452.722 152.372 454.138 153.356 455.098 154.34L453.562 156.068C452.842 155.3 452.002 154.772 450.634 154.772C448.138 154.772 446.386 156.956 446.386 160.532C446.386 164.156 447.898 166.388 450.682 166.388C451.522 166.388 452.338 166.124 452.818 165.668V162.212H450.106V159.932H455.314V166.916C454.282 167.924 452.53 168.788 450.514 168.788ZM461.665 168.5V152.66H471.673V154.988H464.425V159.092H470.569V161.42H464.425V166.148H471.913V168.5H461.665ZM494.766 168.5V152.66H499.998C503.238 152.66 505.758 153.812 505.758 157.34C505.758 159.74 504.51 161.204 502.614 161.852L506.382 168.5H503.262L499.854 162.284H497.526V168.5H494.766ZM497.526 160.052H499.71C501.87 160.052 503.022 159.14 503.022 157.34C503.022 155.492 501.87 154.868 499.71 154.868H497.526V160.052ZM516.764 168.788C513.308 168.788 511.244 166.796 511.244 162.452V152.66H514.004V162.644C514.004 165.26 515.06 166.388 516.764 166.388C518.444 166.388 519.524 165.26 519.524 162.644V152.66H522.212V162.452C522.212 166.796 520.196 168.788 516.764 168.788ZM528.107 168.5V152.66H530.915L535.139 161.636L536.603 164.996H536.675C536.555 163.364 536.291 161.372 536.291 159.62V152.66H538.931V168.5H536.099L531.899 159.5L530.435 156.164H530.363C530.483 157.844 530.747 159.74 530.747 161.492V168.5H528.107ZM548.906 168.5V154.988H543.986V152.66H556.634V154.988H551.69V168.5H548.906ZM561.928 168.5V166.148H565.696V154.988H561.928V152.66H572.272V154.988H568.48V166.148H572.272V168.5H561.928ZM578.383 168.5V152.66H581.335L583.519 158.852L584.287 161.228H584.383L585.103 158.852L587.287 152.66H590.239V168.5H587.887V161.372C587.887 159.86 588.103 156.884 588.247 155.396H588.151L586.951 159.26L584.959 164.228H583.615L581.599 159.26L580.399 155.396H580.327C580.447 156.884 580.687 159.86 580.687 161.372V168.5H578.383ZM596.833 168.5V152.66H606.841V154.988H599.593V159.092H605.737V161.42H599.593V166.148H607.081V168.5H596.833Z" fill="#EDEDED"/>
<rect x="102.738" y="195.5" width="812" height="631" rx="32" stroke="#FD880B" stroke-width="2" stroke-linecap="round"/>
<rect x="650.738" y="243.5" width="220" height="534" rx="32" fill="#4D4D4D" fill-opacity="0.1"/>
<rect x="650.738" y="243.5" width="220" height="534" rx="32" stroke="#4D4D4D" stroke-width="2" stroke-linecap="round" stroke-dasharray="8 16"/>
<rect x="398.738" y="243.5" width="220" height="534" rx="32" fill="#4D4D4D" fill-opacity="0.1"/>
<rect x="398.738" y="243.5" width="220" height="534" rx="32" stroke="#4D4D4D" stroke-width="2" stroke-linecap="round" stroke-dasharray="8 16"/>
<rect x="146.738" y="243.5" width="220" height="534" rx="32" fill="#4D4D4D" fill-opacity="0.1"/>
<rect x="146.738" y="243.5" width="220" height="534" rx="32" stroke="#4D4D4D" stroke-width="2" stroke-linecap="round" stroke-dasharray="8 16"/>
<path d="M201.211 504.5V502.148H204.979V490.988H201.211V488.66H211.555V490.988H207.763V502.148H211.555V504.5H201.211ZM223.21 504.788C221.002 504.788 218.914 503.948 217.378 502.46L218.986 500.564C220.162 501.644 221.722 502.388 223.258 502.388C225.202 502.388 226.186 501.572 226.186 500.3C226.186 498.98 225.13 498.572 223.57 497.948L221.434 497.012C219.754 496.364 218.05 495.116 218.05 492.812C218.05 490.292 220.306 488.372 223.498 488.372C225.442 488.372 227.242 489.116 228.538 490.388L227.098 492.14C226.042 491.276 224.962 490.772 223.498 490.772C221.866 490.772 220.858 491.468 220.858 492.668C220.858 493.916 222.13 494.348 223.546 494.924L225.61 495.812C227.602 496.628 229.018 497.78 229.018 500.084C229.018 502.652 226.882 504.788 223.21 504.788ZM239.952 504.788C236.328 504.788 233.784 501.62 233.784 496.508C233.784 491.372 236.328 488.372 239.952 488.372C243.6 488.372 246.12 491.396 246.12 496.508C246.12 501.62 243.6 504.788 239.952 504.788ZM239.952 502.388C241.968 502.388 243.288 500.084 243.288 496.508C243.288 492.932 241.968 490.772 239.952 490.772C237.936 490.772 236.64 492.932 236.64 496.508C236.64 500.084 237.936 502.388 239.952 502.388ZM252.447 504.5V488.66H255.183V502.148H262.575V504.5H252.447ZM266.838 504.5L271.926 488.66H275.166L280.254 504.5H277.326L276.102 500.18H270.894L269.646 504.5H266.838ZM271.494 497.996H275.502L274.95 496.028C274.47 494.348 273.99 492.572 273.534 490.82H273.438C273.006 492.572 272.526 494.348 272.046 496.028L271.494 497.996ZM288.932 504.5V490.988H284.012V488.66H296.66V490.988H291.716V504.5H288.932ZM302.435 504.5V488.66H312.443V490.988H305.195V495.092H311.339V497.42H305.195V502.148H312.683V504.5H302.435Z" fill="#EDEDED"/>
<path d="M453.211 504.5V502.148H456.979V490.988H453.211V488.66H463.555V490.988H459.763V502.148H463.555V504.5H453.211ZM475.21 504.788C473.002 504.788 470.914 503.948 469.378 502.46L470.986 500.564C472.162 501.644 473.722 502.388 475.258 502.388C477.202 502.388 478.186 501.572 478.186 500.3C478.186 498.98 477.13 498.572 475.57 497.948L473.434 497.012C471.754 496.364 470.05 495.116 470.05 492.812C470.05 490.292 472.306 488.372 475.498 488.372C477.442 488.372 479.242 489.116 480.538 490.388L479.098 492.14C478.042 491.276 476.962 490.772 475.498 490.772C473.866 490.772 472.858 491.468 472.858 492.668C472.858 493.916 474.13 494.348 475.546 494.924L477.61 495.812C479.602 496.628 481.018 497.78 481.018 500.084C481.018 502.652 478.882 504.788 475.21 504.788ZM491.952 504.788C488.328 504.788 485.784 501.62 485.784 496.508C485.784 491.372 488.328 488.372 491.952 488.372C495.6 488.372 498.12 491.396 498.12 496.508C498.12 501.62 495.6 504.788 491.952 504.788ZM491.952 502.388C493.968 502.388 495.288 500.084 495.288 496.508C495.288 492.932 493.968 490.772 491.952 490.772C489.936 490.772 488.64 492.932 488.64 496.508C488.64 500.084 489.936 502.388 491.952 502.388ZM504.447 504.5V488.66H507.183V502.148H514.575V504.5H504.447ZM518.838 504.5L523.926 488.66H527.166L532.254 504.5H529.326L528.102 500.18H522.894L521.646 504.5H518.838ZM523.494 497.996H527.502L526.95 496.028C526.47 494.348 525.99 492.572 525.534 490.82H525.438C525.006 492.572 524.526 494.348 524.046 496.028L523.494 497.996ZM540.932 504.5V490.988H536.012V488.66H548.66V490.988H543.716V504.5H540.932ZM554.435 504.5V488.66H564.443V490.988H557.195V495.092H563.339V497.42H557.195V502.148H564.683V504.5H554.435Z" fill="#EDEDED"/>
<path d="M705.211 504.5V502.148H708.979V490.988H705.211V488.66H715.555V490.988H711.763V502.148H715.555V504.5H705.211ZM727.21 504.788C725.002 504.788 722.914 503.948 721.378 502.46L722.986 500.564C724.162 501.644 725.722 502.388 727.258 502.388C729.202 502.388 730.186 501.572 730.186 500.3C730.186 498.98 729.13 498.572 727.57 497.948L725.434 497.012C723.754 496.364 722.05 495.116 722.05 492.812C722.05 490.292 724.306 488.372 727.498 488.372C729.442 488.372 731.242 489.116 732.538 490.388L731.098 492.14C730.042 491.276 728.962 490.772 727.498 490.772C725.866 490.772 724.858 491.468 724.858 492.668C724.858 493.916 726.13 494.348 727.546 494.924L729.61 495.812C731.602 496.628 733.018 497.78 733.018 500.084C733.018 502.652 730.882 504.788 727.21 504.788ZM743.952 504.788C740.328 504.788 737.784 501.62 737.784 496.508C737.784 491.372 740.328 488.372 743.952 488.372C747.6 488.372 750.12 491.396 750.12 496.508C750.12 501.62 747.6 504.788 743.952 504.788ZM743.952 502.388C745.968 502.388 747.288 500.084 747.288 496.508C747.288 492.932 745.968 490.772 743.952 490.772C741.936 490.772 740.64 492.932 740.64 496.508C740.64 500.084 741.936 502.388 743.952 502.388ZM756.447 504.5V488.66H759.183V502.148H766.575V504.5H756.447ZM770.838 504.5L775.926 488.66H779.166L784.254 504.5H781.326L780.102 500.18H774.894L773.646 504.5H770.838ZM775.494 497.996H779.502L778.95 496.028C778.47 494.348 777.99 492.572 777.534 490.82H777.438C777.006 492.572 776.526 494.348 776.046 496.028L775.494 497.996ZM792.932 504.5V490.988H788.012V488.66H800.66V490.988H795.716V504.5H792.932ZM806.435 504.5V488.66H816.443V490.988H809.195V495.092H815.339V497.42H809.195V502.148H816.683V504.5H806.435Z" fill="#EDEDED"/>
<path d="M936.293 494.793C935.902 495.183 935.902 495.817 936.293 496.207L942.657 502.571C943.047 502.962 943.681 502.962 944.071 502.571C944.462 502.181 944.462 501.547 944.071 501.157L938.414 495.5L944.071 489.843C944.462 489.453 944.462 488.819 944.071 488.429C943.681 488.038 943.047 488.038 942.657 488.429L936.293 494.793ZM1078.45 496.207C1078.84 495.817 1078.84 495.183 1078.45 494.793L1072.08 488.429C1071.69 488.038 1071.06 488.038 1070.67 488.429C1070.28 488.819 1070.28 489.453 1070.67 489.843L1076.32 495.5L1070.67 501.157C1070.28 501.547 1070.28 502.181 1070.67 502.571C1071.06 502.962 1071.69 502.962 1072.08 502.571L1078.45 496.207ZM937 496.5L1077.74 496.5L1077.74 494.5L937 494.5L937 496.5Z" fill="#EDEDED"/>
</svg>
