<svg width="1600" height="940" viewBox="0 0 1600 940" fill="none" xmlns="http://www.w3.org/2000/svg">
<path d="M703.554 128V112.16H713.562V114.488H706.314V118.592H712.458V120.92H706.314V125.648H713.802V128H703.554ZM719.625 128V112.16H723.681C728.313 112.16 731.097 114.776 731.097 120.008C731.097 125.24 728.313 128 723.825 128H719.625ZM722.409 125.744H723.513C726.537 125.744 728.241 123.896 728.241 120.008C728.241 116.12 726.537 114.392 723.513 114.392H722.409V125.744ZM742.776 128.288C738.792 128.288 735.792 125.36 735.792 120.128C735.792 114.92 738.816 111.872 742.896 111.872C744.984 111.872 746.4 112.856 747.36 113.84L745.824 115.568C745.104 114.8 744.264 114.272 742.896 114.272C740.4 114.272 738.648 116.456 738.648 120.032C738.648 123.656 740.16 125.888 742.944 125.888C743.784 125.888 744.6 125.624 745.08 125.168V121.712H742.368V119.432H747.576V126.416C746.544 127.424 744.792 128.288 742.776 128.288ZM753.926 128V112.16H763.934V114.488H756.686V118.592H762.83V120.92H756.686V125.648H764.174V128H753.926ZM787.027 128V112.16H792.259C795.499 112.16 798.019 113.312 798.019 116.84C798.019 119.24 796.771 120.704 794.875 121.352L798.643 128H795.523L792.115 121.784H789.787V128H787.027ZM789.787 119.552H791.971C794.131 119.552 795.283 118.64 795.283 116.84C795.283 114.992 794.131 114.368 791.971 114.368H789.787V119.552ZM809.026 128.288C805.57 128.288 803.506 126.296 803.506 121.952V112.16H806.266V122.144C806.266 124.76 807.322 125.888 809.026 125.888C810.706 125.888 811.786 124.76 811.786 122.144V112.16H814.474V121.952C814.474 126.296 812.458 128.288 809.026 128.288ZM820.369 128V112.16H823.177L827.401 121.136L828.865 124.496H828.937C828.817 122.864 828.553 120.872 828.553 119.12V112.16H831.193V128H828.361L824.161 119L822.697 115.664H822.625C822.745 117.344 823.009 119.24 823.009 120.992V128H820.369ZM841.167 128V114.488H836.247V112.16H848.895V114.488H843.951V128H841.167ZM854.19 128V125.648H857.958V114.488H854.19V112.16H864.534V114.488H860.742V125.648H864.534V128H854.19ZM870.645 128V112.16H873.597L875.781 118.352L876.549 120.728H876.645L877.365 118.352L879.549 112.16H882.501V128H880.149V120.872C880.149 119.36 880.365 116.384 880.509 114.896H880.413L879.213 118.76L877.221 123.728H875.877L873.861 118.76L872.661 114.896H872.589C872.709 116.384 872.949 119.36 872.949 120.872V128H870.645ZM889.095 128V112.16H899.103V114.488H891.855V118.592H897.999V120.92H891.855V125.648H899.343V128H889.095Z" fill="#EDEDED"/>
<rect x="395" y="155" width="812" height="631" rx="32" fill="#FD880B" fill-opacity="0.05"/>
<rect x="395" y="155" width="812" height="631" rx="32" stroke="#FD880B" stroke-width="2" stroke-linecap="round"/>
<rect x="943" y="203" width="220" height="534" rx="32" fill="#4D4D4D" fill-opacity="0.1"/>
<rect x="943" y="203" width="220" height="534" rx="32" stroke="#4D4D4D" stroke-width="2" stroke-linecap="round" stroke-dasharray="8 16"/>
<rect x="691" y="203" width="220" height="534" rx="32" fill="#4D4D4D" fill-opacity="0.1"/>
<rect x="691" y="203" width="220" height="534" rx="32" stroke="#4D4D4D" stroke-width="2" stroke-linecap="round" stroke-dasharray="8 16"/>
<rect x="439" y="203" width="220" height="534" rx="32" fill="#4D4D4D" fill-opacity="0.1"/>
<rect x="439" y="203" width="220" height="534" rx="32" stroke="#4D4D4D" stroke-width="2" stroke-linecap="round" stroke-dasharray="8 16"/>
<path d="M493.473 464V461.648H497.241V450.488H493.473V448.16H503.817V450.488H500.025V461.648H503.817V464H493.473ZM515.471 464.288C513.263 464.288 511.175 463.448 509.639 461.96L511.247 460.064C512.423 461.144 513.983 461.888 515.519 461.888C517.463 461.888 518.447 461.072 518.447 459.8C518.447 458.48 517.391 458.072 515.831 457.448L513.695 456.512C512.015 455.864 510.311 454.616 510.311 452.312C510.311 449.792 512.567 447.872 515.759 447.872C517.703 447.872 519.503 448.616 520.799 449.888L519.359 451.64C518.303 450.776 517.223 450.272 515.759 450.272C514.127 450.272 513.119 450.968 513.119 452.168C513.119 453.416 514.391 453.848 515.807 454.424L517.871 455.312C519.863 456.128 521.279 457.28 521.279 459.584C521.279 462.152 519.143 464.288 515.471 464.288ZM532.214 464.288C528.59 464.288 526.046 461.12 526.046 456.008C526.046 450.872 528.59 447.872 532.214 447.872C535.862 447.872 538.382 450.896 538.382 456.008C538.382 461.12 535.862 464.288 532.214 464.288ZM532.214 461.888C534.23 461.888 535.55 459.584 535.55 456.008C535.55 452.432 534.23 450.272 532.214 450.272C530.198 450.272 528.902 452.432 528.902 456.008C528.902 459.584 530.198 461.888 532.214 461.888ZM544.709 464V448.16H547.445V461.648H554.837V464H544.709ZM559.099 464L564.187 448.16H567.427L572.515 464H569.587L568.363 459.68H563.155L561.907 464H559.099ZM563.755 457.496H567.763L567.211 455.528C566.731 453.848 566.251 452.072 565.795 450.32H565.699C565.267 452.072 564.787 453.848 564.307 455.528L563.755 457.496ZM581.194 464V450.488H576.274V448.16H588.922V450.488H583.978V464H581.194ZM594.697 464V448.16H604.705V450.488H597.457V454.592H603.601V456.92H597.457V461.648H604.945V464H594.697Z" fill="#EDEDED"/>
<path d="M745.473 464V461.648H749.241V450.488H745.473V448.16H755.817V450.488H752.025V461.648H755.817V464H745.473ZM767.471 464.288C765.263 464.288 763.175 463.448 761.639 461.96L763.247 460.064C764.423 461.144 765.983 461.888 767.519 461.888C769.463 461.888 770.447 461.072 770.447 459.8C770.447 458.48 769.391 458.072 767.831 457.448L765.695 456.512C764.015 455.864 762.311 454.616 762.311 452.312C762.311 449.792 764.567 447.872 767.759 447.872C769.703 447.872 771.503 448.616 772.799 449.888L771.359 451.64C770.303 450.776 769.223 450.272 767.759 450.272C766.127 450.272 765.119 450.968 765.119 452.168C765.119 453.416 766.391 453.848 767.807 454.424L769.871 455.312C771.863 456.128 773.279 457.28 773.279 459.584C773.279 462.152 771.143 464.288 767.471 464.288ZM784.214 464.288C780.59 464.288 778.046 461.12 778.046 456.008C778.046 450.872 780.59 447.872 784.214 447.872C787.862 447.872 790.382 450.896 790.382 456.008C790.382 461.12 787.862 464.288 784.214 464.288ZM784.214 461.888C786.23 461.888 787.55 459.584 787.55 456.008C787.55 452.432 786.23 450.272 784.214 450.272C782.198 450.272 780.902 452.432 780.902 456.008C780.902 459.584 782.198 461.888 784.214 461.888ZM796.709 464V448.16H799.445V461.648H806.837V464H796.709ZM811.099 464L816.187 448.16H819.427L824.515 464H821.587L820.363 459.68H815.155L813.907 464H811.099ZM815.755 457.496H819.763L819.211 455.528C818.731 453.848 818.251 452.072 817.795 450.32H817.699C817.267 452.072 816.787 453.848 816.307 455.528L815.755 457.496ZM833.194 464V450.488H828.274V448.16H840.922V450.488H835.978V464H833.194ZM846.697 464V448.16H856.705V450.488H849.457V454.592H855.601V456.92H849.457V461.648H856.945V464H846.697Z" fill="#EDEDED"/>
<path d="M997.473 464V461.648H1001.24V450.488H997.473V448.16H1007.82V450.488H1004.02V461.648H1007.82V464H997.473ZM1019.47 464.288C1017.26 464.288 1015.18 463.448 1013.64 461.96L1015.25 460.064C1016.42 461.144 1017.98 461.888 1019.52 461.888C1021.46 461.888 1022.45 461.072 1022.45 459.8C1022.45 458.48 1021.39 458.072 1019.83 457.448L1017.7 456.512C1016.02 455.864 1014.31 454.616 1014.31 452.312C1014.31 449.792 1016.57 447.872 1019.76 447.872C1021.7 447.872 1023.5 448.616 1024.8 449.888L1023.36 451.64C1022.3 450.776 1021.22 450.272 1019.76 450.272C1018.13 450.272 1017.12 450.968 1017.12 452.168C1017.12 453.416 1018.39 453.848 1019.81 454.424L1021.87 455.312C1023.86 456.128 1025.28 457.28 1025.28 459.584C1025.28 462.152 1023.14 464.288 1019.47 464.288ZM1036.21 464.288C1032.59 464.288 1030.05 461.12 1030.05 456.008C1030.05 450.872 1032.59 447.872 1036.21 447.872C1039.86 447.872 1042.38 450.896 1042.38 456.008C1042.38 461.12 1039.86 464.288 1036.21 464.288ZM1036.21 461.888C1038.23 461.888 1039.55 459.584 1039.55 456.008C1039.55 452.432 1038.23 450.272 1036.21 450.272C1034.2 450.272 1032.9 452.432 1032.9 456.008C1032.9 459.584 1034.2 461.888 1036.21 461.888ZM1048.71 464V448.16H1051.44V461.648H1058.84V464H1048.71ZM1063.1 464L1068.19 448.16H1071.43L1076.52 464H1073.59L1072.36 459.68H1067.16L1065.91 464H1063.1ZM1067.76 457.496H1071.76L1071.21 455.528C1070.73 453.848 1070.25 452.072 1069.8 450.32H1069.7C1069.27 452.072 1068.79 453.848 1068.31 455.528L1067.76 457.496ZM1085.19 464V450.488H1080.27V448.16H1092.92V450.488H1087.98V464H1085.19ZM1098.7 464V448.16H1108.7V450.488H1101.46V454.592H1107.6V456.92H1101.46V461.648H1108.94V464H1098.7Z" fill="#EDEDED"/>
</svg>
