<svg xmlns="http://www.w3.org/2000/svg" width="1600" height="941" fill="none" viewBox="0 0 1600 941"><path fill="#1c1c1c" d="M0 .5h1600v940H0z"/><path fill="#ededed" d="M1219.01 138.788c-3.98 0-6.98-2.928-6.98-8.16 0-5.208 3.02-8.256 7.1-8.256 2.09 0 3.51.984 4.47 1.968l-1.54 1.728c-.72-.768-1.56-1.296-2.93-1.296-2.49 0-4.25 2.184-4.25 5.76 0 3.624 1.52 5.856 4.3 5.856.84 0 1.66-.264 2.14-.72v-3.456h-2.72v-2.28h5.21v6.984c-1.03 1.008-2.78 1.872-4.8 1.872m10.74-.288v-15.84h5.28c3.44 0 5.96 1.2 5.96 4.872 0 3.504-2.57 5.112-5.96 5.112h-2.52v5.856zm2.76-8.064h2.28c2.36 0 3.46-.96 3.46-2.904 0-1.992-1.15-2.664-3.46-2.664h-2.28zm19.17 8.352c-3.45 0-5.52-1.992-5.52-6.336v-9.792h2.76v9.984c0 2.616 1.06 3.744 2.76 3.744 1.68 0 2.76-1.128 2.76-3.744v-9.984h2.69v9.792c0 4.344-2.02 6.336-5.45 6.336m34.95 0c-4.01 0-7.15-2.928-7.15-8.16 0-5.184 3.09-8.256 7.25-8.256 1.94 0 3.48.936 4.46 1.968l-1.54 1.728c-.79-.792-1.7-1.296-2.92-1.296-2.62 0-4.42 2.184-4.42 5.76 0 3.624 1.8 5.856 4.49 5.856 1.27 0 2.25-.6 3.14-1.584l1.56 1.68c-1.27 1.488-2.88 2.304-4.87 2.304m11.08-.288v-15.84h2.73v13.488h7.4v2.352zm21.13.288c-3.45 0-5.52-1.992-5.52-6.336v-9.792h2.76v9.984c0 2.616 1.06 3.744 2.76 3.744 1.68 0 2.76-1.128 2.76-3.744v-9.984h2.69v9.792c0 4.344-2.01 6.336-5.45 6.336m16.79 0c-2.2 0-4.29-.84-5.83-2.328l1.61-1.896c1.18 1.08 2.74 1.824 4.27 1.824 1.95 0 2.93-.816 2.93-2.088 0-1.32-1.06-1.728-2.62-2.352l-2.13-.936c-1.68-.648-3.39-1.896-3.39-4.2 0-2.52 2.26-4.44 5.45-4.44 1.95 0 3.75.744 5.04 2.016l-1.44 1.752c-1.05-.864-2.13-1.368-3.6-1.368-1.63 0-2.64.696-2.64 1.896 0 1.248 1.27 1.68 2.69 2.256l2.06.888c2 .816 3.41 1.968 3.41 4.272 0 2.568-2.13 4.704-5.81 4.704m15.35-.288v-13.512h-4.92v-2.328h12.65v2.328h-4.94V138.5zm13.51 0v-15.84h10.01v2.328h-7.25v4.104h6.14v2.328h-6.14v4.728h7.49v2.352zm16.31 0v-15.84h5.23c3.24 0 5.76 1.152 5.76 4.68 0 2.4-1.25 3.864-3.14 4.512l3.76 6.648h-3.12l-3.4-6.216h-2.33v6.216zm2.76-8.448h2.18c2.16 0 3.31-.912 3.31-2.712 0-1.848-1.15-2.472-3.31-2.472h-2.18z"/><path fill="#a0a0a0" d="M1245.53 172.772c-3.24-2.688-5.23-6.384-5.23-10.944 0-4.584 1.99-8.256 5.23-10.944l1.51 1.296c-3.02 2.736-4.39 5.736-4.39 9.648s1.37 6.912 4.39 9.648zm14.08-3.984c-3.63 0-6.17-3.168-6.17-8.28 0-5.136 2.54-8.136 6.17-8.136 3.64 0 6.16 3.024 6.16 8.136s-2.52 8.28-6.16 8.28m0-2.4c2.01 0 3.33-2.304 3.33-5.88s-1.32-5.736-3.33-5.736c-2.02 0-3.32 2.16-3.32 5.736s1.3 5.88 3.32 5.88m12.49 2.112v-15.84h2.74v13.488h7.39v2.352zm16.79 0v-15.84h2.74v13.488h7.39v2.352zm14.39 0 5.09-15.84h3.24l5.09 15.84h-2.93l-1.22-4.32h-5.21l-1.25 4.32zm4.66-6.504h4.01l-.56-1.968c-.48-1.68-.96-3.456-1.41-5.208h-.1c-.43 1.752-.91 3.528-1.39 5.208zm13.33 6.504v-15.84h2.96l2.18 6.192.77 2.376h.09l.72-2.376 2.19-6.192h2.95v15.84h-2.35v-7.128c0-1.512.21-4.488.36-5.976h-.1l-1.2 3.864-1.99 4.968h-1.34l-2.02-4.968-1.2-3.864h-.07c.12 1.488.36 4.464.36 5.976v7.128zm16.44 0 5.09-15.84h3.24l5.08 15.84h-2.92l-1.23-4.32h-5.21l-1.24 4.32zm4.65-6.504h4.01l-.55-1.968c-.48-1.68-.96-3.456-1.42-5.208h-.09c-.43 1.752-.91 3.528-1.39 5.208zm16.15 10.776-1.54-1.296c3.05-2.736 4.39-5.736 4.39-9.648s-1.34-6.912-4.39-9.648l1.54-1.296c3.21 2.688 5.23 6.36 5.23 10.944 0 4.56-2.02 8.256-5.23 10.944"/><rect width="404" height="631" x="1100" y="195.5" fill="#4d4d4d" fill-opacity=".1" rx="32"/><rect width="404" height="631" x="1100" y="195.5" stroke="#4d4d4d" stroke-linecap="round" stroke-width="2" rx="32"/><rect width="96" height="96" x="1142" y="231" fill="#4d4d4d" fill-opacity=".1" stroke="#343434" stroke-width="2" rx="21"/><path stroke="#ededed" stroke-linecap="round" stroke-linejoin="round" stroke-width="2" d="M1208.49 255.648h-35.68c-3.28 0-5.95 2.614-5.95 5.838v35.027c0 3.224 2.67 5.838 5.95 5.838h35.68c3.28 0 5.94-2.614 5.94-5.838v-35.027c0-3.224-2.66-5.838-5.94-5.838"/><path stroke="#ededed" stroke-linecap="round" stroke-linejoin="round" stroke-width="2" d="M1199.57 270.242h-17.84v17.514h17.84zM1181.73 249.811v5.837M1199.57 249.811v5.837M1181.73 305.27v2.918M1199.57 302.352v5.837M1214.43 270.242h5.95M1214.43 284.838h5.95M1160.92 270.242h5.95M1160.92 284.838h5.95"/><rect width="96" height="96" x="1254" y="231" fill="#4d4d4d" fill-opacity=".1" stroke="#343434" stroke-width="2" rx="21"/><path stroke="#ededed" stroke-linecap="round" stroke-linejoin="round" stroke-width="2" d="M1320.49 255.648h-35.68c-3.28 0-5.95 2.614-5.95 5.838v35.027c0 3.224 2.67 5.838 5.95 5.838h35.68c3.28 0 5.94-2.614 5.94-5.838v-35.027c0-3.224-2.66-5.838-5.94-5.838"/><path stroke="#ededed" stroke-linecap="round" stroke-linejoin="round" stroke-width="2" d="M1311.57 270.242h-17.84v17.514h17.84zM1293.73 249.811v5.837M1311.57 249.811v5.837M1293.73 305.27v2.918M1311.57 302.352v5.837M1326.43 270.242h5.95M1326.43 284.838h5.95M1272.92 270.242h5.95M1272.92 284.838h5.95"/><rect width="96" height="96" x="1366" y="231" fill="#4d4d4d" fill-opacity=".1" stroke="#343434" stroke-width="2" rx="21"/><path stroke="#ededed" stroke-linecap="round" stroke-linejoin="round" stroke-width="2" d="M1432.49 255.648h-35.68c-3.28 0-5.95 2.614-5.95 5.838v35.027c0 3.224 2.67 5.838 5.95 5.838h35.68c3.28 0 5.94-2.614 5.94-5.838v-35.027c0-3.224-2.66-5.838-5.94-5.838"/><path stroke="#ededed" stroke-linecap="round" stroke-linejoin="round" stroke-width="2" d="M1423.57 270.242h-17.84v17.514h17.84zM1405.73 249.811v5.837M1423.57 249.811v5.837M1405.73 305.27v2.918M1423.57 302.352v5.837M1438.43 270.242h5.95M1438.43 284.838h5.95M1384.92 270.242h5.95M1384.92 284.838h5.95"/><rect width="96" height="96" x="1142" y="348" fill="#4d4d4d" fill-opacity=".1" stroke="#343434" stroke-width="2" rx="21"/><path stroke="#ededed" stroke-linecap="round" stroke-linejoin="round" stroke-width="2" d="M1208.49 372.648h-35.68c-3.28 0-5.95 2.614-5.95 5.838v35.027c0 3.224 2.67 5.838 5.95 5.838h35.68c3.28 0 5.94-2.614 5.94-5.838v-35.027c0-3.224-2.66-5.838-5.94-5.838"/><path stroke="#ededed" stroke-linecap="round" stroke-linejoin="round" stroke-width="2" d="M1199.57 387.242h-17.84v17.514h17.84zM1181.73 366.811v5.837M1199.57 366.811v5.837M1181.73 422.27v2.918M1199.57 419.352v5.837M1214.43 387.242h5.95M1214.43 401.838h5.95M1160.92 387.242h5.95M1160.92 401.838h5.95"/><rect width="96" height="96" x="1254" y="348" fill="#4d4d4d" fill-opacity=".1" stroke="#343434" stroke-width="2" rx="21"/><path stroke="#ededed" stroke-linecap="round" stroke-linejoin="round" stroke-width="2" d="M1320.49 372.648h-35.68c-3.28 0-5.95 2.614-5.95 5.838v35.027c0 3.224 2.67 5.838 5.95 5.838h35.68c3.28 0 5.94-2.614 5.94-5.838v-35.027c0-3.224-2.66-5.838-5.94-5.838"/><path stroke="#ededed" stroke-linecap="round" stroke-linejoin="round" stroke-width="2" d="M1311.57 387.242h-17.84v17.514h17.84zM1293.73 366.811v5.837M1311.57 366.811v5.837M1293.73 422.27v2.918M1311.57 419.352v5.837M1326.43 387.242h5.95M1326.43 401.838h5.95M1272.92 387.242h5.95M1272.92 401.838h5.95"/><rect width="96" height="96" x="1366" y="348" fill="#4d4d4d" fill-opacity=".1" stroke="#343434" stroke-width="2" rx="21"/><path stroke="#ededed" stroke-linecap="round" stroke-linejoin="round" stroke-width="2" d="M1432.49 372.648h-35.68c-3.28 0-5.95 2.614-5.95 5.838v35.027c0 3.224 2.67 5.838 5.95 5.838h35.68c3.28 0 5.94-2.614 5.94-5.838v-35.027c0-3.224-2.66-5.838-5.94-5.838"/><path stroke="#ededed" stroke-linecap="round" stroke-linejoin="round" stroke-width="2" d="M1423.57 387.242h-17.84v17.514h17.84zM1405.73 366.811v5.837M1423.57 366.811v5.837M1405.73 422.27v2.918M1423.57 419.352v5.837M1438.43 387.242h5.95M1438.43 401.838h5.95M1384.92 387.242h5.95M1384.92 401.838h5.95"/><rect width="96" height="96" x="1142" y="465" fill="#4d4d4d" fill-opacity=".1" stroke="#343434" stroke-width="2" rx="21"/><path stroke="#ededed" stroke-linecap="round" stroke-linejoin="round" stroke-width="2" d="M1208.49 489.648h-35.68c-3.28 0-5.95 2.614-5.95 5.838v35.027c0 3.224 2.67 5.838 5.95 5.838h35.68c3.28 0 5.94-2.614 5.94-5.838v-35.027c0-3.224-2.66-5.838-5.94-5.838"/><path stroke="#ededed" stroke-linecap="round" stroke-linejoin="round" stroke-width="2" d="M1199.57 504.242h-17.84v17.514h17.84zM1181.73 483.811v5.837M1199.57 483.811v5.837M1181.73 539.27v2.918M1199.57 536.352v5.837M1214.43 504.242h5.95M1214.43 518.838h5.95M1160.92 504.242h5.95M1160.92 518.838h5.95"/><rect width="96" height="96" x="1254" y="465" fill="#4d4d4d" fill-opacity=".1" stroke="#343434" stroke-width="2" rx="21"/><path stroke="#ededed" stroke-linecap="round" stroke-linejoin="round" stroke-width="2" d="M1320.49 489.648h-35.68c-3.28 0-5.95 2.614-5.95 5.838v35.027c0 3.224 2.67 5.838 5.95 5.838h35.68c3.28 0 5.94-2.614 5.94-5.838v-35.027c0-3.224-2.66-5.838-5.94-5.838"/><path stroke="#ededed" stroke-linecap="round" stroke-linejoin="round" stroke-width="2" d="M1311.57 504.242h-17.84v17.514h17.84zM1293.73 483.811v5.837M1311.57 483.811v5.837M1293.73 539.27v2.918M1311.57 536.352v5.837M1326.43 504.242h5.95M1326.43 518.838h5.95M1272.92 504.242h5.95M1272.92 518.838h5.95"/><rect width="96" height="96" x="1366" y="465" fill="#4d4d4d" fill-opacity=".1" stroke="#343434" stroke-width="2" rx="21"/><path stroke="#ededed" stroke-linecap="round" stroke-linejoin="round" stroke-width="2" d="M1432.49 489.648h-35.68c-3.28 0-5.95 2.614-5.95 5.838v35.027c0 3.224 2.67 5.838 5.95 5.838h35.68c3.28 0 5.94-2.614 5.94-5.838v-35.027c0-3.224-2.66-5.838-5.94-5.838"/><path stroke="#ededed" stroke-linecap="round" stroke-linejoin="round" stroke-width="2" d="M1423.57 504.242h-17.84v17.514h17.84zM1405.73 483.811v5.837M1423.57 483.811v5.837M1405.73 539.27v2.918M1423.57 536.352v5.837M1438.43 504.242h5.95M1438.43 518.838h5.95M1384.92 504.242h5.95M1384.92 518.838h5.95"/><rect width="96" height="96" x="1142" y="582" fill="#4d4d4d" fill-opacity=".1" stroke="#343434" stroke-width="2" rx="21"/><path stroke="#ededed" stroke-linecap="round" stroke-linejoin="round" stroke-width="2" d="M1208.49 606.648h-35.68c-3.28 0-5.95 2.614-5.95 5.838v35.027c0 3.224 2.67 5.838 5.95 5.838h35.68c3.28 0 5.94-2.614 5.94-5.838v-35.027c0-3.224-2.66-5.838-5.94-5.838"/><path stroke="#ededed" stroke-linecap="round" stroke-linejoin="round" stroke-width="2" d="M1199.57 621.242h-17.84v17.514h17.84zM1181.73 600.811v5.837M1199.57 600.811v5.837M1181.73 656.27v2.918M1199.57 653.352v5.837M1214.43 621.242h5.95M1214.43 635.838h5.95M1160.92 621.242h5.95M1160.92 635.838h5.95"/><rect width="96" height="96" x="1254" y="582" fill="#4d4d4d" fill-opacity=".1" stroke="#343434" stroke-width="2" rx="21"/><path stroke="#ededed" stroke-linecap="round" stroke-linejoin="round" stroke-width="2" d="M1320.49 606.648h-35.68c-3.28 0-5.95 2.614-5.95 5.838v35.027c0 3.224 2.67 5.838 5.95 5.838h35.68c3.28 0 5.94-2.614 5.94-5.838v-35.027c0-3.224-2.66-5.838-5.94-5.838"/><path stroke="#ededed" stroke-linecap="round" stroke-linejoin="round" stroke-width="2" d="M1311.57 621.242h-17.84v17.514h17.84zM1293.73 600.811v5.837M1311.57 600.811v5.837M1293.73 656.27v2.918M1311.57 653.352v5.837M1326.43 621.242h5.95M1326.43 635.838h5.95M1272.92 621.242h5.95M1272.92 635.838h5.95"/><rect width="96" height="96" x="1366" y="582" fill="#4d4d4d" fill-opacity=".1" stroke="#343434" stroke-width="2" rx="21"/><path stroke="#ededed" stroke-linecap="round" stroke-linejoin="round" stroke-width="2" d="M1432.49 606.648h-35.68c-3.28 0-5.95 2.614-5.95 5.838v35.027c0 3.224 2.67 5.838 5.95 5.838h35.68c3.28 0 5.94-2.614 5.94-5.838v-35.027c0-3.224-2.66-5.838-5.94-5.838"/><path stroke="#ededed" stroke-linecap="round" stroke-linejoin="round" stroke-width="2" d="M1423.57 621.242h-17.84v17.514h17.84zM1405.73 600.811v5.837M1423.57 600.811v5.837M1405.73 656.27v2.918M1423.57 653.352v5.837M1438.43 621.242h5.95M1438.43 635.838h5.95M1384.92 621.242h5.95M1384.92 635.838h5.95"/><rect width="96" height="96" x="1142" y="699" fill="#4d4d4d" fill-opacity=".1" stroke="#343434" stroke-width="2" rx="21"/><path stroke="#ededed" stroke-linecap="round" stroke-linejoin="round" stroke-width="2" d="M1208.49 723.648h-35.68c-3.28 0-5.95 2.614-5.95 5.838v35.027c0 3.224 2.67 5.838 5.95 5.838h35.68c3.28 0 5.94-2.614 5.94-5.838v-35.027c0-3.224-2.66-5.838-5.94-5.838"/><path stroke="#ededed" stroke-linecap="round" stroke-linejoin="round" stroke-width="2" d="M1199.57 738.242h-17.84v17.514h17.84zM1181.73 717.811v5.837M1199.57 717.811v5.837M1181.73 773.27v2.918M1199.57 770.352v5.837M1214.43 738.242h5.95M1214.43 752.838h5.95M1160.92 738.242h5.95M1160.92 752.838h5.95"/><rect width="96" height="96" x="1254" y="699" fill="#4d4d4d" fill-opacity=".1" stroke="#343434" stroke-width="2" rx="21"/><path stroke="#ededed" stroke-linecap="round" stroke-linejoin="round" stroke-width="2" d="M1320.49 723.648h-35.68c-3.28 0-5.95 2.614-5.95 5.838v35.027c0 3.224 2.67 5.838 5.95 5.838h35.68c3.28 0 5.94-2.614 5.94-5.838v-35.027c0-3.224-2.66-5.838-5.94-5.838"/><path stroke="#ededed" stroke-linecap="round" stroke-linejoin="round" stroke-width="2" d="M1311.57 738.242h-17.84v17.514h17.84zM1293.73 717.811v5.837M1311.57 717.811v5.837M1293.73 773.27v2.918M1311.57 770.352v5.837M1326.43 738.242h5.95M1326.43 752.838h5.95M1272.92 738.242h5.95M1272.92 752.838h5.95"/><rect width="96" height="96" x="1366" y="699" fill="#4d4d4d" fill-opacity=".1" stroke="#343434" stroke-width="2" rx="21"/><path stroke="#ededed" stroke-linecap="round" stroke-linejoin="round" stroke-width="2" d="M1432.49 723.648h-35.68c-3.28 0-5.95 2.614-5.95 5.838v35.027c0 3.224 2.67 5.838 5.95 5.838h35.68c3.28 0 5.94-2.614 5.94-5.838v-35.027c0-3.224-2.66-5.838-5.94-5.838"/><path stroke="#ededed" stroke-linecap="round" stroke-linejoin="round" stroke-width="2" d="M1423.57 738.242h-17.84v17.514h17.84zM1405.73 717.811v5.837M1423.57 717.811v5.837M1405.73 773.27v2.918M1423.57 770.352v5.837M1438.43 738.242h5.95M1438.43 752.838h5.95M1384.92 738.242h5.95M1384.92 752.838h5.95"/><path fill="#ededed" d="M411.293 168.5v-15.84h10.008v2.328h-7.248v4.104h6.144v2.328h-6.144v4.728h7.488v2.352zm16.07 0v-15.84h4.056c4.632 0 7.416 2.616 7.416 7.848s-2.784 7.992-7.272 7.992zm2.784-2.256h1.104c3.024 0 4.728-1.848 4.728-5.736s-1.704-5.616-4.728-5.616h-1.104zm20.367 2.544c-3.984 0-6.984-2.928-6.984-8.16 0-5.208 3.024-8.256 7.104-8.256 2.088 0 3.504.984 4.464 1.968l-1.536 1.728c-.72-.768-1.56-1.296-2.928-1.296-2.496 0-4.248 2.184-4.248 5.76 0 3.624 1.512 5.856 4.296 5.856.84 0 1.656-.264 2.136-.72v-3.456h-2.712v-2.28h5.208v6.984c-1.032 1.008-2.784 1.872-4.8 1.872m11.151-.288v-15.84h10.008v2.328h-7.248v4.104h6.144v2.328h-6.144v4.728h7.488v2.352zm33.101 0v-15.84h5.232c3.24 0 5.76 1.152 5.76 4.68 0 2.4-1.248 3.864-3.144 4.512l3.768 6.648h-3.12l-3.408-6.216h-2.328v6.216zm2.76-8.448h2.184c2.16 0 3.312-.912 3.312-2.712 0-1.848-1.152-2.472-3.312-2.472h-2.184zm19.238 8.736c-3.456 0-5.52-1.992-5.52-6.336v-9.792h2.76v9.984c0 2.616 1.056 3.744 2.76 3.744 1.68 0 2.76-1.128 2.76-3.744v-9.984h2.688v9.792c0 4.344-2.016 6.336-5.448 6.336m11.343-.288v-15.84h2.808l4.224 8.976 1.464 3.36h.072c-.12-1.632-.384-3.624-.384-5.376v-6.96h2.64v15.84h-2.832l-4.2-9-1.464-3.336h-.072c.12 1.68.384 3.576.384 5.328v7.008zm20.799 0v-13.512h-4.92v-2.328h12.648v2.328h-4.944V168.5zm13.022 0v-2.352h3.768v-11.16h-3.768v-2.328h10.344v2.328h-3.792v11.16h3.792v2.352zm16.455 0v-15.84h2.952l2.184 6.192.768 2.376h.096l.72-2.376 2.184-6.192h2.952v15.84h-2.352v-7.128c0-1.512.216-4.488.36-5.976h-.096l-1.2 3.864-1.992 4.968h-1.344l-2.016-4.968-1.2-3.864h-.072c.12 1.488.36 4.464.36 5.976v7.128zm18.45 0v-15.84h10.008v2.328h-7.248v4.104h6.144v2.328h-6.144v4.728h7.488v2.352z"/><rect width="812" height="631" x="102.738" y="195.5" stroke="#fd880b" stroke-linecap="round" stroke-width="2" rx="32"/><rect width="220" height="534" x="650.738" y="243.5" fill="#4d4d4d" fill-opacity=".1" rx="32"/><rect width="220" height="534" x="650.738" y="243.5" stroke="#4d4d4d" stroke-dasharray="8 16" stroke-linecap="round" stroke-width="2" rx="32"/><rect width="220" height="534" x="398.738" y="243.5" fill="#4d4d4d" fill-opacity=".1" rx="32"/><rect width="220" height="534" x="398.738" y="243.5" stroke="#4d4d4d" stroke-dasharray="8 16" stroke-linecap="round" stroke-width="2" rx="32"/><rect width="220" height="534" x="146.738" y="243.5" fill="#4d4d4d" fill-opacity=".1" rx="32"/><rect width="220" height="534" x="146.738" y="243.5" stroke="#4d4d4d" stroke-dasharray="8 16" stroke-linecap="round" stroke-width="2" rx="32"/><path fill="#ededed" d="M201.211 504.5v-2.352h3.768v-11.16h-3.768v-2.328h10.344v2.328h-3.792v11.16h3.792v2.352zm21.999.288c-2.208 0-4.296-.84-5.832-2.328l1.608-1.896c1.176 1.08 2.736 1.824 4.272 1.824 1.944 0 2.928-.816 2.928-2.088 0-1.32-1.056-1.728-2.616-2.352l-2.136-.936c-1.68-.648-3.384-1.896-3.384-4.2 0-2.52 2.256-4.44 5.448-4.44 1.944 0 3.744.744 5.04 2.016l-1.44 1.752c-1.056-.864-2.136-1.368-3.6-1.368-1.632 0-2.64.696-2.64 1.896 0 1.248 1.272 1.68 2.688 2.256l2.064.888c1.992.816 3.408 1.968 3.408 4.272 0 2.568-2.136 4.704-5.808 4.704m16.742 0c-3.624 0-6.168-3.168-6.168-8.28 0-5.136 2.544-8.136 6.168-8.136 3.648 0 6.168 3.024 6.168 8.136s-2.52 8.28-6.168 8.28m0-2.4c2.016 0 3.336-2.304 3.336-5.88s-1.32-5.736-3.336-5.736-3.312 2.16-3.312 5.736 1.296 5.88 3.312 5.88m12.495 2.112v-15.84h2.736v13.488h7.392v2.352zm14.391 0 5.088-15.84h3.24l5.088 15.84h-2.928l-1.224-4.32h-5.208l-1.248 4.32zm4.656-6.504h4.008l-.552-1.968c-.48-1.68-.96-3.456-1.416-5.208h-.096a149 149 0 0 1-1.392 5.208zm17.438 6.504v-13.512h-4.92v-2.328h12.648v2.328h-4.944V504.5zm13.503 0v-15.84h10.008v2.328h-7.248v4.104h6.144v2.328h-6.144v4.728h7.488v2.352zM453.211 504.5v-2.352h3.768v-11.16h-3.768v-2.328h10.344v2.328h-3.792v11.16h3.792v2.352zm21.999.288c-2.208 0-4.296-.84-5.832-2.328l1.608-1.896c1.176 1.08 2.736 1.824 4.272 1.824 1.944 0 2.928-.816 2.928-2.088 0-1.32-1.056-1.728-2.616-2.352l-2.136-.936c-1.68-.648-3.384-1.896-3.384-4.2 0-2.52 2.256-4.44 5.448-4.44 1.944 0 3.744.744 5.04 2.016l-1.44 1.752c-1.056-.864-2.136-1.368-3.6-1.368-1.632 0-2.64.696-2.64 1.896 0 1.248 1.272 1.68 2.688 2.256l2.064.888c1.992.816 3.408 1.968 3.408 4.272 0 2.568-2.136 4.704-5.808 4.704m16.742 0c-3.624 0-6.168-3.168-6.168-8.28 0-5.136 2.544-8.136 6.168-8.136 3.648 0 6.168 3.024 6.168 8.136s-2.52 8.28-6.168 8.28m0-2.4c2.016 0 3.336-2.304 3.336-5.88s-1.32-5.736-3.336-5.736-3.312 2.16-3.312 5.736 1.296 5.88 3.312 5.88m12.495 2.112v-15.84h2.736v13.488h7.392v2.352zm14.391 0 5.088-15.84h3.24l5.088 15.84h-2.928l-1.224-4.32h-5.208l-1.248 4.32zm4.656-6.504h4.008l-.552-1.968c-.48-1.68-.96-3.456-1.416-5.208h-.096a149 149 0 0 1-1.392 5.208zm17.438 6.504v-13.512h-4.92v-2.328h12.648v2.328h-4.944V504.5zm13.503 0v-15.84h10.008v2.328h-7.248v4.104h6.144v2.328h-6.144v4.728h7.488v2.352zM705.211 504.5v-2.352h3.768v-11.16h-3.768v-2.328h10.344v2.328h-3.792v11.16h3.792v2.352zm21.999.288c-2.208 0-4.296-.84-5.832-2.328l1.608-1.896c1.176 1.08 2.736 1.824 4.272 1.824 1.944 0 2.928-.816 2.928-2.088 0-1.32-1.056-1.728-2.616-2.352l-2.136-.936c-1.68-.648-3.384-1.896-3.384-4.2 0-2.52 2.256-4.44 5.448-4.44 1.944 0 3.744.744 5.04 2.016l-1.44 1.752c-1.056-.864-2.136-1.368-3.6-1.368-1.632 0-2.64.696-2.64 1.896 0 1.248 1.272 1.68 2.688 2.256l2.064.888c1.992.816 3.408 1.968 3.408 4.272 0 2.568-2.136 4.704-5.808 4.704m16.742 0c-3.624 0-6.168-3.168-6.168-8.28 0-5.136 2.544-8.136 6.168-8.136 3.648 0 6.168 3.024 6.168 8.136s-2.52 8.28-6.168 8.28m0-2.4c2.016 0 3.336-2.304 3.336-5.88s-1.32-5.736-3.336-5.736-3.312 2.16-3.312 5.736 1.296 5.88 3.312 5.88m12.495 2.112v-15.84h2.736v13.488h7.392v2.352zm14.391 0 5.088-15.84h3.24l5.088 15.84h-2.928l-1.224-4.32h-5.208l-1.248 4.32zm4.656-6.504h4.008l-.552-1.968c-.48-1.68-.96-3.456-1.416-5.208h-.096a149 149 0 0 1-1.392 5.208zm17.438 6.504v-13.512h-4.92v-2.328h12.648v2.328h-4.944V504.5zm13.503 0v-15.84h10.008v2.328h-7.248v4.104h6.144v2.328h-6.144v4.728h7.488v2.352zM936.293 494.793a1 1 0 0 0 0 1.414l6.364 6.364a.999.999 0 1 0 1.414-1.414l-5.657-5.657 5.657-5.657a.999.999 0 1 0-1.414-1.414zm142.157 1.414a1 1 0 0 0 0-1.414l-6.37-6.364a.994.994 0 0 0-1.41 0 1 1 0 0 0 0 1.414l5.65 5.657-5.65 5.657a1 1 0 0 0 0 1.414.994.994 0 0 0 1.41 0zM937 496.5h140.74v-2H937z"/></svg>