<svg width="1600" height="940" viewBox="0 0 1600 940" fill="none" xmlns="http://www.w3.org/2000/svg">
<path d="M1219.01 138.288C1215.03 138.288 1212.03 135.36 1212.03 130.128C1212.03 124.92 1215.05 121.872 1219.13 121.872C1221.22 121.872 1222.64 122.856 1223.6 123.84L1222.06 125.568C1221.34 124.8 1220.5 124.272 1219.13 124.272C1216.64 124.272 1214.88 126.456 1214.88 130.032C1214.88 133.656 1216.4 135.888 1219.18 135.888C1220.02 135.888 1220.84 135.624 1221.32 135.168V131.712H1218.6V129.432H1223.81V136.416C1222.78 137.424 1221.03 138.288 1219.01 138.288ZM1229.75 138V122.16H1235.03C1238.47 122.16 1240.99 123.36 1240.99 127.032C1240.99 130.536 1238.42 132.144 1235.03 132.144H1232.51V138H1229.75ZM1232.51 129.936H1234.79C1237.15 129.936 1238.25 128.976 1238.25 127.032C1238.25 125.04 1237.1 124.368 1234.79 124.368H1232.51V129.936ZM1251.68 138.288C1248.23 138.288 1246.16 136.296 1246.16 131.952V122.16H1248.92V132.144C1248.92 134.76 1249.98 135.888 1251.68 135.888C1253.36 135.888 1254.44 134.76 1254.44 132.144V122.16H1257.13V131.952C1257.13 136.296 1255.11 138.288 1251.68 138.288ZM1286.63 138.288C1282.62 138.288 1279.48 135.36 1279.48 130.128C1279.48 124.944 1282.57 121.872 1286.73 121.872C1288.67 121.872 1290.21 122.808 1291.19 123.84L1289.65 125.568C1288.86 124.776 1287.95 124.272 1286.73 124.272C1284.11 124.272 1282.31 126.456 1282.31 130.032C1282.31 133.656 1284.11 135.888 1286.8 135.888C1288.07 135.888 1289.05 135.288 1289.94 134.304L1291.5 135.984C1290.23 137.472 1288.62 138.288 1286.63 138.288ZM1297.71 138V122.16H1300.44V135.648H1307.84V138H1297.71ZM1318.84 138.288C1315.39 138.288 1313.32 136.296 1313.32 131.952V122.16H1316.08V132.144C1316.08 134.76 1317.14 135.888 1318.84 135.888C1320.52 135.888 1321.6 134.76 1321.6 132.144V122.16H1324.29V131.952C1324.29 136.296 1322.28 138.288 1318.84 138.288ZM1335.63 138.288C1333.43 138.288 1331.34 137.448 1329.8 135.96L1331.41 134.064C1332.59 135.144 1334.15 135.888 1335.68 135.888C1337.63 135.888 1338.61 135.072 1338.61 133.8C1338.61 132.48 1337.55 132.072 1335.99 131.448L1333.86 130.512C1332.18 129.864 1330.47 128.616 1330.47 126.312C1330.47 123.792 1332.73 121.872 1335.92 121.872C1337.87 121.872 1339.67 122.616 1340.96 123.888L1339.52 125.64C1338.47 124.776 1337.39 124.272 1335.92 124.272C1334.29 124.272 1333.28 124.968 1333.28 126.168C1333.28 127.416 1334.55 127.848 1335.97 128.424L1338.03 129.312C1340.03 130.128 1341.44 131.28 1341.44 133.584C1341.44 136.152 1339.31 138.288 1335.63 138.288ZM1350.98 138V124.488H1346.06V122.16H1358.71V124.488H1353.77V138H1350.98ZM1364.49 138V122.16H1374.5V124.488H1367.25V128.592H1373.39V130.92H1367.25V135.648H1374.74V138H1364.49ZM1380.8 138V122.16H1386.03C1389.27 122.16 1391.79 123.312 1391.79 126.84C1391.79 129.24 1390.54 130.704 1388.65 131.352L1392.41 138H1389.29L1385.89 131.784H1383.56V138H1380.8ZM1383.56 129.552H1385.74C1387.9 129.552 1389.05 128.64 1389.05 126.84C1389.05 124.992 1387.9 124.368 1385.74 124.368H1383.56V129.552Z" fill="#EDEDED"/>
<path d="M1245.53 172.272C1242.29 169.584 1240.3 165.888 1240.3 161.328C1240.3 156.744 1242.29 153.072 1245.53 150.384L1247.04 151.68C1244.02 154.416 1242.65 157.416 1242.65 161.328C1242.65 165.24 1244.02 168.24 1247.04 170.976L1245.53 172.272ZM1259.61 168.288C1255.98 168.288 1253.44 165.12 1253.44 160.008C1253.44 154.872 1255.98 151.872 1259.61 151.872C1263.25 151.872 1265.77 154.896 1265.77 160.008C1265.77 165.12 1263.25 168.288 1259.61 168.288ZM1259.61 165.888C1261.62 165.888 1262.94 163.584 1262.94 160.008C1262.94 156.432 1261.62 154.272 1259.61 154.272C1257.59 154.272 1256.29 156.432 1256.29 160.008C1256.29 163.584 1257.59 165.888 1259.61 165.888ZM1272.1 168V152.16H1274.84V165.648H1282.23V168H1272.1ZM1288.89 168V152.16H1291.63V165.648H1299.02V168H1288.89ZM1303.28 168L1308.37 152.16H1311.61L1316.7 168H1313.77L1312.55 163.68H1307.34L1306.09 168H1303.28ZM1307.94 161.496H1311.95L1311.39 159.528C1310.91 157.848 1310.43 156.072 1309.98 154.32H1309.88C1309.45 156.072 1308.97 157.848 1308.49 159.528L1307.94 161.496ZM1321.27 168V152.16H1324.23L1326.41 158.352L1327.18 160.728H1327.27L1327.99 158.352L1330.18 152.16H1333.13V168H1330.78V160.872C1330.78 159.36 1330.99 156.384 1331.14 154.896H1331.04L1329.84 158.76L1327.85 163.728H1326.51L1324.49 158.76L1323.29 154.896H1323.22C1323.34 156.384 1323.58 159.36 1323.58 160.872V168H1321.27ZM1337.71 168L1342.8 152.16H1346.04L1351.12 168H1348.2L1346.97 163.68H1341.76L1340.52 168H1337.71ZM1342.36 161.496H1346.37L1345.82 159.528C1345.34 157.848 1344.86 156.072 1344.4 154.32H1344.31C1343.88 156.072 1343.4 157.848 1342.92 159.528L1342.36 161.496ZM1358.51 172.272L1356.97 170.976C1360.02 168.24 1361.36 165.24 1361.36 161.328C1361.36 157.416 1360.02 154.416 1356.97 151.68L1358.51 150.384C1361.72 153.072 1363.74 156.744 1363.74 161.328C1363.74 165.888 1361.72 169.584 1358.51 172.272Z" fill="#A0A0A0"/>
<rect x="1100" y="195" width="404" height="631" rx="32" fill="#4D4D4D" fill-opacity="0.1"/>
<rect x="1100" y="195" width="404" height="631" rx="32" stroke="#4D4D4D" stroke-width="2" stroke-linecap="round"/>
<rect x="1142" y="230.5" width="96" height="96" rx="21" fill="#4D4D4D" fill-opacity="0.1" stroke="#343434" stroke-width="2"/>
<path d="M1208.49 255.148H1172.81C1169.53 255.148 1166.86 257.762 1166.86 260.986V296.013C1166.86 299.237 1169.53 301.851 1172.81 301.851H1208.49C1211.77 301.851 1214.43 299.237 1214.43 296.013V260.986C1214.43 257.762 1211.77 255.148 1208.49 255.148Z" stroke="#EDEDED" stroke-width="2" stroke-linecap="round" stroke-linejoin="round"/>
<path d="M1199.57 269.742H1181.73V287.256H1199.57V269.742Z" stroke="#EDEDED" stroke-width="2" stroke-linecap="round" stroke-linejoin="round"/>
<path d="M1181.73 249.311V255.148" stroke="#EDEDED" stroke-width="2" stroke-linecap="round" stroke-linejoin="round"/>
<path d="M1199.57 249.311V255.148" stroke="#EDEDED" stroke-width="2" stroke-linecap="round" stroke-linejoin="round"/>
<path d="M1181.73 304.77V307.688" stroke="#EDEDED" stroke-width="2" stroke-linecap="round" stroke-linejoin="round"/>
<path d="M1199.57 301.852V307.689" stroke="#EDEDED" stroke-width="2" stroke-linecap="round" stroke-linejoin="round"/>
<path d="M1214.43 269.742H1220.38" stroke="#EDEDED" stroke-width="2" stroke-linecap="round" stroke-linejoin="round"/>
<path d="M1214.43 284.338H1220.38" stroke="#EDEDED" stroke-width="2" stroke-linecap="round" stroke-linejoin="round"/>
<path d="M1160.92 269.742H1166.87" stroke="#EDEDED" stroke-width="2" stroke-linecap="round" stroke-linejoin="round"/>
<path d="M1160.92 284.338H1166.87" stroke="#EDEDED" stroke-width="2" stroke-linecap="round" stroke-linejoin="round"/>
<rect x="1254" y="230.5" width="96" height="96" rx="21" fill="#4D4D4D" fill-opacity="0.1" stroke="#343434" stroke-width="2"/>
<path d="M1320.49 255.148H1284.81C1281.53 255.148 1278.86 257.762 1278.86 260.986V296.013C1278.86 299.237 1281.53 301.851 1284.81 301.851H1320.49C1323.77 301.851 1326.43 299.237 1326.43 296.013V260.986C1326.43 257.762 1323.77 255.148 1320.49 255.148Z" stroke="#EDEDED" stroke-width="2" stroke-linecap="round" stroke-linejoin="round"/>
<path d="M1311.57 269.742H1293.73V287.256H1311.57V269.742Z" stroke="#EDEDED" stroke-width="2" stroke-linecap="round" stroke-linejoin="round"/>
<path d="M1293.73 249.311V255.148" stroke="#EDEDED" stroke-width="2" stroke-linecap="round" stroke-linejoin="round"/>
<path d="M1311.57 249.311V255.148" stroke="#EDEDED" stroke-width="2" stroke-linecap="round" stroke-linejoin="round"/>
<path d="M1293.73 304.77V307.688" stroke="#EDEDED" stroke-width="2" stroke-linecap="round" stroke-linejoin="round"/>
<path d="M1311.57 301.852V307.689" stroke="#EDEDED" stroke-width="2" stroke-linecap="round" stroke-linejoin="round"/>
<path d="M1326.43 269.742H1332.38" stroke="#EDEDED" stroke-width="2" stroke-linecap="round" stroke-linejoin="round"/>
<path d="M1326.43 284.338H1332.38" stroke="#EDEDED" stroke-width="2" stroke-linecap="round" stroke-linejoin="round"/>
<path d="M1272.92 269.742H1278.87" stroke="#EDEDED" stroke-width="2" stroke-linecap="round" stroke-linejoin="round"/>
<path d="M1272.92 284.338H1278.87" stroke="#EDEDED" stroke-width="2" stroke-linecap="round" stroke-linejoin="round"/>
<rect x="1366" y="230.5" width="96" height="96" rx="21" fill="#4D4D4D" fill-opacity="0.1" stroke="#343434" stroke-width="2"/>
<path d="M1432.49 255.148H1396.81C1393.53 255.148 1390.86 257.762 1390.86 260.986V296.013C1390.86 299.237 1393.53 301.851 1396.81 301.851H1432.49C1435.77 301.851 1438.43 299.237 1438.43 296.013V260.986C1438.43 257.762 1435.77 255.148 1432.49 255.148Z" stroke="#EDEDED" stroke-width="2" stroke-linecap="round" stroke-linejoin="round"/>
<path d="M1423.57 269.742H1405.73V287.256H1423.57V269.742Z" stroke="#EDEDED" stroke-width="2" stroke-linecap="round" stroke-linejoin="round"/>
<path d="M1405.73 249.311V255.148" stroke="#EDEDED" stroke-width="2" stroke-linecap="round" stroke-linejoin="round"/>
<path d="M1423.57 249.311V255.148" stroke="#EDEDED" stroke-width="2" stroke-linecap="round" stroke-linejoin="round"/>
<path d="M1405.73 304.77V307.688" stroke="#EDEDED" stroke-width="2" stroke-linecap="round" stroke-linejoin="round"/>
<path d="M1423.57 301.852V307.689" stroke="#EDEDED" stroke-width="2" stroke-linecap="round" stroke-linejoin="round"/>
<path d="M1438.43 269.742H1444.38" stroke="#EDEDED" stroke-width="2" stroke-linecap="round" stroke-linejoin="round"/>
<path d="M1438.43 284.338H1444.38" stroke="#EDEDED" stroke-width="2" stroke-linecap="round" stroke-linejoin="round"/>
<path d="M1384.92 269.742H1390.87" stroke="#EDEDED" stroke-width="2" stroke-linecap="round" stroke-linejoin="round"/>
<path d="M1384.92 284.338H1390.87" stroke="#EDEDED" stroke-width="2" stroke-linecap="round" stroke-linejoin="round"/>
<rect x="1142" y="347.5" width="96" height="96" rx="21" fill="#4D4D4D" fill-opacity="0.1" stroke="#343434" stroke-width="2"/>
<path d="M1208.49 372.148H1172.81C1169.53 372.148 1166.86 374.762 1166.86 377.986V413.013C1166.86 416.237 1169.53 418.851 1172.81 418.851H1208.49C1211.77 418.851 1214.43 416.237 1214.43 413.013V377.986C1214.43 374.762 1211.77 372.148 1208.49 372.148Z" stroke="#EDEDED" stroke-width="2" stroke-linecap="round" stroke-linejoin="round"/>
<path d="M1199.57 386.742H1181.73V404.256H1199.57V386.742Z" stroke="#EDEDED" stroke-width="2" stroke-linecap="round" stroke-linejoin="round"/>
<path d="M1181.73 366.311V372.148" stroke="#EDEDED" stroke-width="2" stroke-linecap="round" stroke-linejoin="round"/>
<path d="M1199.57 366.311V372.148" stroke="#EDEDED" stroke-width="2" stroke-linecap="round" stroke-linejoin="round"/>
<path d="M1181.73 421.77V424.688" stroke="#EDEDED" stroke-width="2" stroke-linecap="round" stroke-linejoin="round"/>
<path d="M1199.57 418.852V424.689" stroke="#EDEDED" stroke-width="2" stroke-linecap="round" stroke-linejoin="round"/>
<path d="M1214.43 386.742H1220.38" stroke="#EDEDED" stroke-width="2" stroke-linecap="round" stroke-linejoin="round"/>
<path d="M1214.43 401.338H1220.38" stroke="#EDEDED" stroke-width="2" stroke-linecap="round" stroke-linejoin="round"/>
<path d="M1160.92 386.742H1166.87" stroke="#EDEDED" stroke-width="2" stroke-linecap="round" stroke-linejoin="round"/>
<path d="M1160.92 401.338H1166.87" stroke="#EDEDED" stroke-width="2" stroke-linecap="round" stroke-linejoin="round"/>
<rect x="1254" y="347.5" width="96" height="96" rx="21" fill="#4D4D4D" fill-opacity="0.1" stroke="#343434" stroke-width="2"/>
<path d="M1320.49 372.148H1284.81C1281.53 372.148 1278.86 374.762 1278.86 377.986V413.013C1278.86 416.237 1281.53 418.851 1284.81 418.851H1320.49C1323.77 418.851 1326.43 416.237 1326.43 413.013V377.986C1326.43 374.762 1323.77 372.148 1320.49 372.148Z" stroke="#EDEDED" stroke-width="2" stroke-linecap="round" stroke-linejoin="round"/>
<path d="M1311.57 386.742H1293.73V404.256H1311.57V386.742Z" stroke="#EDEDED" stroke-width="2" stroke-linecap="round" stroke-linejoin="round"/>
<path d="M1293.73 366.311V372.148" stroke="#EDEDED" stroke-width="2" stroke-linecap="round" stroke-linejoin="round"/>
<path d="M1311.57 366.311V372.148" stroke="#EDEDED" stroke-width="2" stroke-linecap="round" stroke-linejoin="round"/>
<path d="M1293.73 421.77V424.688" stroke="#EDEDED" stroke-width="2" stroke-linecap="round" stroke-linejoin="round"/>
<path d="M1311.57 418.852V424.689" stroke="#EDEDED" stroke-width="2" stroke-linecap="round" stroke-linejoin="round"/>
<path d="M1326.43 386.742H1332.38" stroke="#EDEDED" stroke-width="2" stroke-linecap="round" stroke-linejoin="round"/>
<path d="M1326.43 401.338H1332.38" stroke="#EDEDED" stroke-width="2" stroke-linecap="round" stroke-linejoin="round"/>
<path d="M1272.92 386.742H1278.87" stroke="#EDEDED" stroke-width="2" stroke-linecap="round" stroke-linejoin="round"/>
<path d="M1272.92 401.338H1278.87" stroke="#EDEDED" stroke-width="2" stroke-linecap="round" stroke-linejoin="round"/>
<rect x="1366" y="347.5" width="96" height="96" rx="21" fill="#4D4D4D" fill-opacity="0.1" stroke="#343434" stroke-width="2"/>
<path d="M1432.49 372.148H1396.81C1393.53 372.148 1390.86 374.762 1390.86 377.986V413.013C1390.86 416.237 1393.53 418.851 1396.81 418.851H1432.49C1435.77 418.851 1438.43 416.237 1438.43 413.013V377.986C1438.43 374.762 1435.77 372.148 1432.49 372.148Z" stroke="#EDEDED" stroke-width="2" stroke-linecap="round" stroke-linejoin="round"/>
<path d="M1423.57 386.742H1405.73V404.256H1423.57V386.742Z" stroke="#EDEDED" stroke-width="2" stroke-linecap="round" stroke-linejoin="round"/>
<path d="M1405.73 366.311V372.148" stroke="#EDEDED" stroke-width="2" stroke-linecap="round" stroke-linejoin="round"/>
<path d="M1423.57 366.311V372.148" stroke="#EDEDED" stroke-width="2" stroke-linecap="round" stroke-linejoin="round"/>
<path d="M1405.73 421.77V424.688" stroke="#EDEDED" stroke-width="2" stroke-linecap="round" stroke-linejoin="round"/>
<path d="M1423.57 418.852V424.689" stroke="#EDEDED" stroke-width="2" stroke-linecap="round" stroke-linejoin="round"/>
<path d="M1438.43 386.742H1444.38" stroke="#EDEDED" stroke-width="2" stroke-linecap="round" stroke-linejoin="round"/>
<path d="M1438.43 401.338H1444.38" stroke="#EDEDED" stroke-width="2" stroke-linecap="round" stroke-linejoin="round"/>
<path d="M1384.92 386.742H1390.87" stroke="#EDEDED" stroke-width="2" stroke-linecap="round" stroke-linejoin="round"/>
<path d="M1384.92 401.338H1390.87" stroke="#EDEDED" stroke-width="2" stroke-linecap="round" stroke-linejoin="round"/>
<rect x="1142" y="464.5" width="96" height="96" rx="21" fill="#4D4D4D" fill-opacity="0.1" stroke="#343434" stroke-width="2"/>
<path d="M1208.49 489.148H1172.81C1169.53 489.148 1166.86 491.762 1166.86 494.986V530.013C1166.86 533.237 1169.53 535.851 1172.81 535.851H1208.49C1211.77 535.851 1214.43 533.237 1214.43 530.013V494.986C1214.43 491.762 1211.77 489.148 1208.49 489.148Z" stroke="#EDEDED" stroke-width="2" stroke-linecap="round" stroke-linejoin="round"/>
<path d="M1199.57 503.742H1181.73V521.256H1199.57V503.742Z" stroke="#EDEDED" stroke-width="2" stroke-linecap="round" stroke-linejoin="round"/>
<path d="M1181.73 483.311V489.148" stroke="#EDEDED" stroke-width="2" stroke-linecap="round" stroke-linejoin="round"/>
<path d="M1199.57 483.311V489.148" stroke="#EDEDED" stroke-width="2" stroke-linecap="round" stroke-linejoin="round"/>
<path d="M1181.73 538.77V541.688" stroke="#EDEDED" stroke-width="2" stroke-linecap="round" stroke-linejoin="round"/>
<path d="M1199.57 535.852V541.689" stroke="#EDEDED" stroke-width="2" stroke-linecap="round" stroke-linejoin="round"/>
<path d="M1214.43 503.742H1220.38" stroke="#EDEDED" stroke-width="2" stroke-linecap="round" stroke-linejoin="round"/>
<path d="M1214.43 518.338H1220.38" stroke="#EDEDED" stroke-width="2" stroke-linecap="round" stroke-linejoin="round"/>
<path d="M1160.92 503.742H1166.87" stroke="#EDEDED" stroke-width="2" stroke-linecap="round" stroke-linejoin="round"/>
<path d="M1160.92 518.338H1166.87" stroke="#EDEDED" stroke-width="2" stroke-linecap="round" stroke-linejoin="round"/>
<rect x="1254" y="464.5" width="96" height="96" rx="21" fill="#4D4D4D" fill-opacity="0.1" stroke="#343434" stroke-width="2"/>
<path d="M1320.49 489.148H1284.81C1281.53 489.148 1278.86 491.762 1278.86 494.986V530.013C1278.86 533.237 1281.53 535.851 1284.81 535.851H1320.49C1323.77 535.851 1326.43 533.237 1326.43 530.013V494.986C1326.43 491.762 1323.77 489.148 1320.49 489.148Z" stroke="#EDEDED" stroke-width="2" stroke-linecap="round" stroke-linejoin="round"/>
<path d="M1311.57 503.742H1293.73V521.256H1311.57V503.742Z" stroke="#EDEDED" stroke-width="2" stroke-linecap="round" stroke-linejoin="round"/>
<path d="M1293.73 483.311V489.148" stroke="#EDEDED" stroke-width="2" stroke-linecap="round" stroke-linejoin="round"/>
<path d="M1311.57 483.311V489.148" stroke="#EDEDED" stroke-width="2" stroke-linecap="round" stroke-linejoin="round"/>
<path d="M1293.73 538.77V541.688" stroke="#EDEDED" stroke-width="2" stroke-linecap="round" stroke-linejoin="round"/>
<path d="M1311.57 535.852V541.689" stroke="#EDEDED" stroke-width="2" stroke-linecap="round" stroke-linejoin="round"/>
<path d="M1326.43 503.742H1332.38" stroke="#EDEDED" stroke-width="2" stroke-linecap="round" stroke-linejoin="round"/>
<path d="M1326.43 518.338H1332.38" stroke="#EDEDED" stroke-width="2" stroke-linecap="round" stroke-linejoin="round"/>
<path d="M1272.92 503.742H1278.87" stroke="#EDEDED" stroke-width="2" stroke-linecap="round" stroke-linejoin="round"/>
<path d="M1272.92 518.338H1278.87" stroke="#EDEDED" stroke-width="2" stroke-linecap="round" stroke-linejoin="round"/>
<rect x="1366" y="464.5" width="96" height="96" rx="21" fill="#4D4D4D" fill-opacity="0.1" stroke="#343434" stroke-width="2"/>
<path d="M1432.49 489.148H1396.81C1393.53 489.148 1390.86 491.762 1390.86 494.986V530.013C1390.86 533.237 1393.53 535.851 1396.81 535.851H1432.49C1435.77 535.851 1438.43 533.237 1438.43 530.013V494.986C1438.43 491.762 1435.77 489.148 1432.49 489.148Z" stroke="#EDEDED" stroke-width="2" stroke-linecap="round" stroke-linejoin="round"/>
<path d="M1423.57 503.742H1405.73V521.256H1423.57V503.742Z" stroke="#EDEDED" stroke-width="2" stroke-linecap="round" stroke-linejoin="round"/>
<path d="M1405.73 483.311V489.148" stroke="#EDEDED" stroke-width="2" stroke-linecap="round" stroke-linejoin="round"/>
<path d="M1423.57 483.311V489.148" stroke="#EDEDED" stroke-width="2" stroke-linecap="round" stroke-linejoin="round"/>
<path d="M1405.73 538.77V541.688" stroke="#EDEDED" stroke-width="2" stroke-linecap="round" stroke-linejoin="round"/>
<path d="M1423.57 535.852V541.689" stroke="#EDEDED" stroke-width="2" stroke-linecap="round" stroke-linejoin="round"/>
<path d="M1438.43 503.742H1444.38" stroke="#EDEDED" stroke-width="2" stroke-linecap="round" stroke-linejoin="round"/>
<path d="M1438.43 518.338H1444.38" stroke="#EDEDED" stroke-width="2" stroke-linecap="round" stroke-linejoin="round"/>
<path d="M1384.92 503.742H1390.87" stroke="#EDEDED" stroke-width="2" stroke-linecap="round" stroke-linejoin="round"/>
<path d="M1384.92 518.338H1390.87" stroke="#EDEDED" stroke-width="2" stroke-linecap="round" stroke-linejoin="round"/>
<rect x="1142" y="581.5" width="96" height="96" rx="21" fill="#4D4D4D" fill-opacity="0.1" stroke="#343434" stroke-width="2"/>
<path d="M1208.49 606.148H1172.81C1169.53 606.148 1166.86 608.762 1166.86 611.986V647.013C1166.86 650.237 1169.53 652.851 1172.81 652.851H1208.49C1211.77 652.851 1214.43 650.237 1214.43 647.013V611.986C1214.43 608.762 1211.77 606.148 1208.49 606.148Z" stroke="#EDEDED" stroke-width="2" stroke-linecap="round" stroke-linejoin="round"/>
<path d="M1199.57 620.742H1181.73V638.256H1199.57V620.742Z" stroke="#EDEDED" stroke-width="2" stroke-linecap="round" stroke-linejoin="round"/>
<path d="M1181.73 600.311V606.148" stroke="#EDEDED" stroke-width="2" stroke-linecap="round" stroke-linejoin="round"/>
<path d="M1199.57 600.311V606.148" stroke="#EDEDED" stroke-width="2" stroke-linecap="round" stroke-linejoin="round"/>
<path d="M1181.73 655.77V658.688" stroke="#EDEDED" stroke-width="2" stroke-linecap="round" stroke-linejoin="round"/>
<path d="M1199.57 652.852V658.689" stroke="#EDEDED" stroke-width="2" stroke-linecap="round" stroke-linejoin="round"/>
<path d="M1214.43 620.742H1220.38" stroke="#EDEDED" stroke-width="2" stroke-linecap="round" stroke-linejoin="round"/>
<path d="M1214.43 635.338H1220.38" stroke="#EDEDED" stroke-width="2" stroke-linecap="round" stroke-linejoin="round"/>
<path d="M1160.92 620.742H1166.87" stroke="#EDEDED" stroke-width="2" stroke-linecap="round" stroke-linejoin="round"/>
<path d="M1160.92 635.338H1166.87" stroke="#EDEDED" stroke-width="2" stroke-linecap="round" stroke-linejoin="round"/>
<rect x="1254" y="581.5" width="96" height="96" rx="21" fill="#4D4D4D" fill-opacity="0.1" stroke="#343434" stroke-width="2"/>
<path d="M1320.49 606.148H1284.81C1281.53 606.148 1278.86 608.762 1278.86 611.986V647.013C1278.86 650.237 1281.53 652.851 1284.81 652.851H1320.49C1323.77 652.851 1326.43 650.237 1326.43 647.013V611.986C1326.43 608.762 1323.77 606.148 1320.49 606.148Z" stroke="#EDEDED" stroke-width="2" stroke-linecap="round" stroke-linejoin="round"/>
<path d="M1311.57 620.742H1293.73V638.256H1311.57V620.742Z" stroke="#EDEDED" stroke-width="2" stroke-linecap="round" stroke-linejoin="round"/>
<path d="M1293.73 600.311V606.148" stroke="#EDEDED" stroke-width="2" stroke-linecap="round" stroke-linejoin="round"/>
<path d="M1311.57 600.311V606.148" stroke="#EDEDED" stroke-width="2" stroke-linecap="round" stroke-linejoin="round"/>
<path d="M1293.73 655.77V658.688" stroke="#EDEDED" stroke-width="2" stroke-linecap="round" stroke-linejoin="round"/>
<path d="M1311.57 652.852V658.689" stroke="#EDEDED" stroke-width="2" stroke-linecap="round" stroke-linejoin="round"/>
<path d="M1326.43 620.742H1332.38" stroke="#EDEDED" stroke-width="2" stroke-linecap="round" stroke-linejoin="round"/>
<path d="M1326.43 635.338H1332.38" stroke="#EDEDED" stroke-width="2" stroke-linecap="round" stroke-linejoin="round"/>
<path d="M1272.92 620.742H1278.87" stroke="#EDEDED" stroke-width="2" stroke-linecap="round" stroke-linejoin="round"/>
<path d="M1272.92 635.338H1278.87" stroke="#EDEDED" stroke-width="2" stroke-linecap="round" stroke-linejoin="round"/>
<rect x="1366" y="581.5" width="96" height="96" rx="21" fill="#4D4D4D" fill-opacity="0.1" stroke="#343434" stroke-width="2"/>
<path d="M1432.49 606.148H1396.81C1393.53 606.148 1390.86 608.762 1390.86 611.986V647.013C1390.86 650.237 1393.53 652.851 1396.81 652.851H1432.49C1435.77 652.851 1438.43 650.237 1438.43 647.013V611.986C1438.43 608.762 1435.77 606.148 1432.49 606.148Z" stroke="#EDEDED" stroke-width="2" stroke-linecap="round" stroke-linejoin="round"/>
<path d="M1423.57 620.742H1405.73V638.256H1423.57V620.742Z" stroke="#EDEDED" stroke-width="2" stroke-linecap="round" stroke-linejoin="round"/>
<path d="M1405.73 600.311V606.148" stroke="#EDEDED" stroke-width="2" stroke-linecap="round" stroke-linejoin="round"/>
<path d="M1423.57 600.311V606.148" stroke="#EDEDED" stroke-width="2" stroke-linecap="round" stroke-linejoin="round"/>
<path d="M1405.73 655.77V658.688" stroke="#EDEDED" stroke-width="2" stroke-linecap="round" stroke-linejoin="round"/>
<path d="M1423.57 652.852V658.689" stroke="#EDEDED" stroke-width="2" stroke-linecap="round" stroke-linejoin="round"/>
<path d="M1438.43 620.742H1444.38" stroke="#EDEDED" stroke-width="2" stroke-linecap="round" stroke-linejoin="round"/>
<path d="M1438.43 635.338H1444.38" stroke="#EDEDED" stroke-width="2" stroke-linecap="round" stroke-linejoin="round"/>
<path d="M1384.92 620.742H1390.87" stroke="#EDEDED" stroke-width="2" stroke-linecap="round" stroke-linejoin="round"/>
<path d="M1384.92 635.338H1390.87" stroke="#EDEDED" stroke-width="2" stroke-linecap="round" stroke-linejoin="round"/>
<rect x="1142" y="698.5" width="96" height="96" rx="21" fill="#4D4D4D" fill-opacity="0.1" stroke="#343434" stroke-width="2"/>
<path d="M1208.49 723.148H1172.81C1169.53 723.148 1166.86 725.762 1166.86 728.986V764.013C1166.86 767.237 1169.53 769.851 1172.81 769.851H1208.49C1211.77 769.851 1214.43 767.237 1214.43 764.013V728.986C1214.43 725.762 1211.77 723.148 1208.49 723.148Z" stroke="#EDEDED" stroke-width="2" stroke-linecap="round" stroke-linejoin="round"/>
<path d="M1199.57 737.742H1181.73V755.256H1199.57V737.742Z" stroke="#EDEDED" stroke-width="2" stroke-linecap="round" stroke-linejoin="round"/>
<path d="M1181.73 717.311V723.148" stroke="#EDEDED" stroke-width="2" stroke-linecap="round" stroke-linejoin="round"/>
<path d="M1199.57 717.311V723.148" stroke="#EDEDED" stroke-width="2" stroke-linecap="round" stroke-linejoin="round"/>
<path d="M1181.73 772.77V775.688" stroke="#EDEDED" stroke-width="2" stroke-linecap="round" stroke-linejoin="round"/>
<path d="M1199.57 769.852V775.689" stroke="#EDEDED" stroke-width="2" stroke-linecap="round" stroke-linejoin="round"/>
<path d="M1214.43 737.742H1220.38" stroke="#EDEDED" stroke-width="2" stroke-linecap="round" stroke-linejoin="round"/>
<path d="M1214.43 752.338H1220.38" stroke="#EDEDED" stroke-width="2" stroke-linecap="round" stroke-linejoin="round"/>
<path d="M1160.92 737.742H1166.87" stroke="#EDEDED" stroke-width="2" stroke-linecap="round" stroke-linejoin="round"/>
<path d="M1160.92 752.338H1166.87" stroke="#EDEDED" stroke-width="2" stroke-linecap="round" stroke-linejoin="round"/>
<rect x="1254" y="698.5" width="96" height="96" rx="21" fill="#4D4D4D" fill-opacity="0.1" stroke="#343434" stroke-width="2"/>
<path d="M1320.49 723.148H1284.81C1281.53 723.148 1278.86 725.762 1278.86 728.986V764.013C1278.86 767.237 1281.53 769.851 1284.81 769.851H1320.49C1323.77 769.851 1326.43 767.237 1326.43 764.013V728.986C1326.43 725.762 1323.77 723.148 1320.49 723.148Z" stroke="#EDEDED" stroke-width="2" stroke-linecap="round" stroke-linejoin="round"/>
<path d="M1311.57 737.742H1293.73V755.256H1311.57V737.742Z" stroke="#EDEDED" stroke-width="2" stroke-linecap="round" stroke-linejoin="round"/>
<path d="M1293.73 717.311V723.148" stroke="#EDEDED" stroke-width="2" stroke-linecap="round" stroke-linejoin="round"/>
<path d="M1311.57 717.311V723.148" stroke="#EDEDED" stroke-width="2" stroke-linecap="round" stroke-linejoin="round"/>
<path d="M1293.73 772.77V775.688" stroke="#EDEDED" stroke-width="2" stroke-linecap="round" stroke-linejoin="round"/>
<path d="M1311.57 769.852V775.689" stroke="#EDEDED" stroke-width="2" stroke-linecap="round" stroke-linejoin="round"/>
<path d="M1326.43 737.742H1332.38" stroke="#EDEDED" stroke-width="2" stroke-linecap="round" stroke-linejoin="round"/>
<path d="M1326.43 752.338H1332.38" stroke="#EDEDED" stroke-width="2" stroke-linecap="round" stroke-linejoin="round"/>
<path d="M1272.92 737.742H1278.87" stroke="#EDEDED" stroke-width="2" stroke-linecap="round" stroke-linejoin="round"/>
<path d="M1272.92 752.338H1278.87" stroke="#EDEDED" stroke-width="2" stroke-linecap="round" stroke-linejoin="round"/>
<rect x="1366" y="698.5" width="96" height="96" rx="21" fill="#4D4D4D" fill-opacity="0.1" stroke="#343434" stroke-width="2"/>
<path d="M1432.49 723.148H1396.81C1393.53 723.148 1390.86 725.762 1390.86 728.986V764.013C1390.86 767.237 1393.53 769.851 1396.81 769.851H1432.49C1435.77 769.851 1438.43 767.237 1438.43 764.013V728.986C1438.43 725.762 1435.77 723.148 1432.49 723.148Z" stroke="#EDEDED" stroke-width="2" stroke-linecap="round" stroke-linejoin="round"/>
<path d="M1423.57 737.742H1405.73V755.256H1423.57V737.742Z" stroke="#EDEDED" stroke-width="2" stroke-linecap="round" stroke-linejoin="round"/>
<path d="M1405.73 717.311V723.148" stroke="#EDEDED" stroke-width="2" stroke-linecap="round" stroke-linejoin="round"/>
<path d="M1423.57 717.311V723.148" stroke="#EDEDED" stroke-width="2" stroke-linecap="round" stroke-linejoin="round"/>
<path d="M1405.73 772.77V775.688" stroke="#EDEDED" stroke-width="2" stroke-linecap="round" stroke-linejoin="round"/>
<path d="M1423.57 769.852V775.689" stroke="#EDEDED" stroke-width="2" stroke-linecap="round" stroke-linejoin="round"/>
<path d="M1438.43 737.742H1444.38" stroke="#EDEDED" stroke-width="2" stroke-linecap="round" stroke-linejoin="round"/>
<path d="M1438.43 752.338H1444.38" stroke="#EDEDED" stroke-width="2" stroke-linecap="round" stroke-linejoin="round"/>
<path d="M1384.92 737.742H1390.87" stroke="#EDEDED" stroke-width="2" stroke-linecap="round" stroke-linejoin="round"/>
<path d="M1384.92 752.338H1390.87" stroke="#EDEDED" stroke-width="2" stroke-linecap="round" stroke-linejoin="round"/>
<path d="M411.293 168V152.16H421.301V154.488H414.053V158.592H420.197V160.92H414.053V165.648H421.541V168H411.293ZM427.363 168V152.16H431.419C436.051 152.16 438.835 154.776 438.835 160.008C438.835 165.24 436.051 168 431.563 168H427.363ZM430.147 165.744H431.251C434.275 165.744 435.979 163.896 435.979 160.008C435.979 156.12 434.275 154.392 431.251 154.392H430.147V165.744ZM450.514 168.288C446.53 168.288 443.53 165.36 443.53 160.128C443.53 154.92 446.554 151.872 450.634 151.872C452.722 151.872 454.138 152.856 455.098 153.84L453.562 155.568C452.842 154.8 452.002 154.272 450.634 154.272C448.138 154.272 446.386 156.456 446.386 160.032C446.386 163.656 447.898 165.888 450.682 165.888C451.522 165.888 452.338 165.624 452.818 165.168V161.712H450.106V159.432H455.314V166.416C454.282 167.424 452.53 168.288 450.514 168.288ZM461.665 168V152.16H471.673V154.488H464.425V158.592H470.569V160.92H464.425V165.648H471.913V168H461.665ZM494.766 168V152.16H499.998C503.238 152.16 505.758 153.312 505.758 156.84C505.758 159.24 504.51 160.704 502.614 161.352L506.382 168H503.262L499.854 161.784H497.526V168H494.766ZM497.526 159.552H499.71C501.87 159.552 503.022 158.64 503.022 156.84C503.022 154.992 501.87 154.368 499.71 154.368H497.526V159.552ZM516.764 168.288C513.308 168.288 511.244 166.296 511.244 161.952V152.16H514.004V162.144C514.004 164.76 515.06 165.888 516.764 165.888C518.444 165.888 519.524 164.76 519.524 162.144V152.16H522.212V161.952C522.212 166.296 520.196 168.288 516.764 168.288ZM528.107 168V152.16H530.915L535.139 161.136L536.603 164.496H536.675C536.555 162.864 536.291 160.872 536.291 159.12V152.16H538.931V168H536.099L531.899 159L530.435 155.664H530.363C530.483 157.344 530.747 159.24 530.747 160.992V168H528.107ZM548.906 168V154.488H543.986V152.16H556.634V154.488H551.69V168H548.906ZM561.928 168V165.648H565.696V154.488H561.928V152.16H572.272V154.488H568.48V165.648H572.272V168H561.928ZM578.383 168V152.16H581.335L583.519 158.352L584.287 160.728H584.383L585.103 158.352L587.287 152.16H590.239V168H587.887V160.872C587.887 159.36 588.103 156.384 588.247 154.896H588.151L586.951 158.76L584.959 163.728H583.615L581.599 158.76L580.399 154.896H580.327C580.447 156.384 580.687 159.36 580.687 160.872V168H578.383ZM596.833 168V152.16H606.841V154.488H599.593V158.592H605.737V160.92H599.593V165.648H607.081V168H596.833Z" fill="#EDEDED"/>
<rect x="102.738" y="195" width="812" height="631" rx="32" fill="#FD880B" fill-opacity="0.05"/>
<rect x="102.738" y="195" width="812" height="631" rx="32" stroke="#FD880B" stroke-width="2" stroke-linecap="round"/>
<rect x="650.738" y="243" width="220" height="534" rx="32" fill="#4D4D4D" fill-opacity="0.1"/>
<rect x="650.738" y="243" width="220" height="534" rx="32" stroke="#4D4D4D" stroke-width="2" stroke-linecap="round" stroke-dasharray="8 16"/>
<rect x="398.738" y="243" width="220" height="534" rx="32" fill="#4D4D4D" fill-opacity="0.1"/>
<rect x="398.738" y="243" width="220" height="534" rx="32" stroke="#4D4D4D" stroke-width="2" stroke-linecap="round" stroke-dasharray="8 16"/>
<rect x="146.738" y="243" width="220" height="534" rx="32" fill="#4D4D4D" fill-opacity="0.1"/>
<rect x="146.738" y="243" width="220" height="534" rx="32" stroke="#4D4D4D" stroke-width="2" stroke-linecap="round" stroke-dasharray="8 16"/>
<path d="M201.211 504V501.648H204.979V490.488H201.211V488.16H211.555V490.488H207.763V501.648H211.555V504H201.211ZM223.21 504.288C221.002 504.288 218.914 503.448 217.378 501.96L218.986 500.064C220.162 501.144 221.722 501.888 223.258 501.888C225.202 501.888 226.186 501.072 226.186 499.8C226.186 498.48 225.13 498.072 223.57 497.448L221.434 496.512C219.754 495.864 218.05 494.616 218.05 492.312C218.05 489.792 220.306 487.872 223.498 487.872C225.442 487.872 227.242 488.616 228.538 489.888L227.098 491.64C226.042 490.776 224.962 490.272 223.498 490.272C221.866 490.272 220.858 490.968 220.858 492.168C220.858 493.416 222.13 493.848 223.546 494.424L225.61 495.312C227.602 496.128 229.018 497.28 229.018 499.584C229.018 502.152 226.882 504.288 223.21 504.288ZM239.952 504.288C236.328 504.288 233.784 501.12 233.784 496.008C233.784 490.872 236.328 487.872 239.952 487.872C243.6 487.872 246.12 490.896 246.12 496.008C246.12 501.12 243.6 504.288 239.952 504.288ZM239.952 501.888C241.968 501.888 243.288 499.584 243.288 496.008C243.288 492.432 241.968 490.272 239.952 490.272C237.936 490.272 236.64 492.432 236.64 496.008C236.64 499.584 237.936 501.888 239.952 501.888ZM252.447 504V488.16H255.183V501.648H262.575V504H252.447ZM266.838 504L271.926 488.16H275.166L280.254 504H277.326L276.102 499.68H270.894L269.646 504H266.838ZM271.494 497.496H275.502L274.95 495.528C274.47 493.848 273.99 492.072 273.534 490.32H273.438C273.006 492.072 272.526 493.848 272.046 495.528L271.494 497.496ZM288.932 504V490.488H284.012V488.16H296.66V490.488H291.716V504H288.932ZM302.435 504V488.16H312.443V490.488H305.195V494.592H311.339V496.92H305.195V501.648H312.683V504H302.435Z" fill="#EDEDED"/>
<path d="M453.211 504V501.648H456.979V490.488H453.211V488.16H463.555V490.488H459.763V501.648H463.555V504H453.211ZM475.21 504.288C473.002 504.288 470.914 503.448 469.378 501.96L470.986 500.064C472.162 501.144 473.722 501.888 475.258 501.888C477.202 501.888 478.186 501.072 478.186 499.8C478.186 498.48 477.13 498.072 475.57 497.448L473.434 496.512C471.754 495.864 470.05 494.616 470.05 492.312C470.05 489.792 472.306 487.872 475.498 487.872C477.442 487.872 479.242 488.616 480.538 489.888L479.098 491.64C478.042 490.776 476.962 490.272 475.498 490.272C473.866 490.272 472.858 490.968 472.858 492.168C472.858 493.416 474.13 493.848 475.546 494.424L477.61 495.312C479.602 496.128 481.018 497.28 481.018 499.584C481.018 502.152 478.882 504.288 475.21 504.288ZM491.952 504.288C488.328 504.288 485.784 501.12 485.784 496.008C485.784 490.872 488.328 487.872 491.952 487.872C495.6 487.872 498.12 490.896 498.12 496.008C498.12 501.12 495.6 504.288 491.952 504.288ZM491.952 501.888C493.968 501.888 495.288 499.584 495.288 496.008C495.288 492.432 493.968 490.272 491.952 490.272C489.936 490.272 488.64 492.432 488.64 496.008C488.64 499.584 489.936 501.888 491.952 501.888ZM504.447 504V488.16H507.183V501.648H514.575V504H504.447ZM518.838 504L523.926 488.16H527.166L532.254 504H529.326L528.102 499.68H522.894L521.646 504H518.838ZM523.494 497.496H527.502L526.95 495.528C526.47 493.848 525.99 492.072 525.534 490.32H525.438C525.006 492.072 524.526 493.848 524.046 495.528L523.494 497.496ZM540.932 504V490.488H536.012V488.16H548.66V490.488H543.716V504H540.932ZM554.435 504V488.16H564.443V490.488H557.195V494.592H563.339V496.92H557.195V501.648H564.683V504H554.435Z" fill="#EDEDED"/>
<path d="M705.211 504V501.648H708.979V490.488H705.211V488.16H715.555V490.488H711.763V501.648H715.555V504H705.211ZM727.21 504.288C725.002 504.288 722.914 503.448 721.378 501.96L722.986 500.064C724.162 501.144 725.722 501.888 727.258 501.888C729.202 501.888 730.186 501.072 730.186 499.8C730.186 498.48 729.13 498.072 727.57 497.448L725.434 496.512C723.754 495.864 722.05 494.616 722.05 492.312C722.05 489.792 724.306 487.872 727.498 487.872C729.442 487.872 731.242 488.616 732.538 489.888L731.098 491.64C730.042 490.776 728.962 490.272 727.498 490.272C725.866 490.272 724.858 490.968 724.858 492.168C724.858 493.416 726.13 493.848 727.546 494.424L729.61 495.312C731.602 496.128 733.018 497.28 733.018 499.584C733.018 502.152 730.882 504.288 727.21 504.288ZM743.952 504.288C740.328 504.288 737.784 501.12 737.784 496.008C737.784 490.872 740.328 487.872 743.952 487.872C747.6 487.872 750.12 490.896 750.12 496.008C750.12 501.12 747.6 504.288 743.952 504.288ZM743.952 501.888C745.968 501.888 747.288 499.584 747.288 496.008C747.288 492.432 745.968 490.272 743.952 490.272C741.936 490.272 740.64 492.432 740.64 496.008C740.64 499.584 741.936 501.888 743.952 501.888ZM756.447 504V488.16H759.183V501.648H766.575V504H756.447ZM770.838 504L775.926 488.16H779.166L784.254 504H781.326L780.102 499.68H774.894L773.646 504H770.838ZM775.494 497.496H779.502L778.95 495.528C778.47 493.848 777.99 492.072 777.534 490.32H777.438C777.006 492.072 776.526 493.848 776.046 495.528L775.494 497.496ZM792.932 504V490.488H788.012V488.16H800.66V490.488H795.716V504H792.932ZM806.435 504V488.16H816.443V490.488H809.195V494.592H815.339V496.92H809.195V501.648H816.683V504H806.435Z" fill="#EDEDED"/>
<path d="M936.293 494.293C935.902 494.683 935.902 495.317 936.293 495.707L942.657 502.071C943.047 502.462 943.681 502.462 944.071 502.071C944.462 501.681 944.462 501.047 944.071 500.657L938.414 495L944.071 489.343C944.462 488.953 944.462 488.319 944.071 487.929C943.681 487.538 943.047 487.538 942.657 487.929L936.293 494.293ZM1078.45 495.707C1078.84 495.317 1078.84 494.683 1078.45 494.293L1072.08 487.929C1071.69 487.538 1071.06 487.538 1070.67 487.929C1070.28 488.319 1070.28 488.953 1070.67 489.343L1076.32 495L1070.67 500.657C1070.28 501.047 1070.28 501.681 1070.67 502.071C1071.06 502.462 1071.69 502.462 1072.08 502.071L1078.45 495.707ZM937 496L1077.74 496L1077.74 494L937 494L937 496Z" fill="#EDEDED"/>
</svg>
