<svg width="1601" height="940" viewBox="0 0 1601 940" fill="none" xmlns="http://www.w3.org/2000/svg">
<path d="M704.054 128V112.16H714.062V114.488H706.814V118.592H712.958V120.92H706.814V125.648H714.302V128H704.054ZM720.125 128V112.16H724.181C728.813 112.16 731.597 114.776 731.597 120.008C731.597 125.24 728.813 128 724.325 128H720.125ZM722.909 125.744H724.013C727.037 125.744 728.741 123.896 728.741 120.008C728.741 116.12 727.037 114.392 724.013 114.392H722.909V125.744ZM743.276 128.288C739.292 128.288 736.292 125.36 736.292 120.128C736.292 114.92 739.316 111.872 743.396 111.872C745.484 111.872 746.9 112.856 747.86 113.84L746.324 115.568C745.604 114.8 744.764 114.272 743.396 114.272C740.9 114.272 739.148 116.456 739.148 120.032C739.148 123.656 740.66 125.888 743.444 125.888C744.284 125.888 745.1 125.624 745.58 125.168V121.712H742.868V119.432H748.076V126.416C747.044 127.424 745.292 128.288 743.276 128.288ZM754.426 128V112.16H764.434V114.488H757.186V118.592H763.33V120.92H757.186V125.648H764.674V128H754.426ZM787.527 128V112.16H792.759C795.999 112.16 798.519 113.312 798.519 116.84C798.519 119.24 797.271 120.704 795.375 121.352L799.143 128H796.023L792.615 121.784H790.287V128H787.527ZM790.287 119.552H792.471C794.631 119.552 795.783 118.64 795.783 116.84C795.783 114.992 794.631 114.368 792.471 114.368H790.287V119.552ZM809.526 128.288C806.07 128.288 804.006 126.296 804.006 121.952V112.16H806.766V122.144C806.766 124.76 807.822 125.888 809.526 125.888C811.206 125.888 812.286 124.76 812.286 122.144V112.16H814.974V121.952C814.974 126.296 812.958 128.288 809.526 128.288ZM820.869 128V112.16H823.677L827.901 121.136L829.365 124.496H829.437C829.317 122.864 829.053 120.872 829.053 119.12V112.16H831.693V128H828.861L824.661 119L823.197 115.664H823.125C823.245 117.344 823.509 119.24 823.509 120.992V128H820.869ZM841.667 128V114.488H836.747V112.16H849.395V114.488H844.451V128H841.667ZM854.69 128V125.648H858.458V114.488H854.69V112.16H865.034V114.488H861.242V125.648H865.034V128H854.69ZM871.145 128V112.16H874.097L876.281 118.352L877.049 120.728H877.145L877.865 118.352L880.049 112.16H883.001V128H880.649V120.872C880.649 119.36 880.865 116.384 881.009 114.896H880.913L879.713 118.76L877.721 123.728H876.377L874.361 118.76L873.161 114.896H873.089C873.209 116.384 873.449 119.36 873.449 120.872V128H871.145ZM889.595 128V112.16H899.603V114.488H892.355V118.592H898.499V120.92H892.355V125.648H899.843V128H889.595Z" fill="#171717"/>
<rect x="395.5" y="155" width="812" height="631" rx="32" fill="#FD880B" fill-opacity="0.15"/>
<rect x="395.5" y="155" width="812" height="631" rx="32" stroke="#FD880B" stroke-width="2" stroke-linecap="round"/>
<rect x="943.5" y="203" width="220" height="534" rx="32" fill="#C7C7C7" fill-opacity="0.1"/>
<rect x="943.5" y="203" width="220" height="534" rx="32" stroke="#C7C7C7" stroke-width="2" stroke-linecap="round" stroke-dasharray="8 16"/>
<rect x="691.5" y="203" width="220" height="534" rx="32" fill="#C7C7C7" fill-opacity="0.1"/>
<rect x="691.5" y="203" width="220" height="534" rx="32" stroke="#C7C7C7" stroke-width="2" stroke-linecap="round" stroke-dasharray="8 16"/>
<rect x="439.5" y="203" width="220" height="534" rx="32" fill="#C7C7C7" fill-opacity="0.1"/>
<rect x="439.5" y="203" width="220" height="534" rx="32" stroke="#C7C7C7" stroke-width="2" stroke-linecap="round" stroke-dasharray="8 16"/>
<path d="M493.973 464V461.648H497.741V450.488H493.973V448.16H504.317V450.488H500.525V461.648H504.317V464H493.973ZM515.971 464.288C513.763 464.288 511.675 463.448 510.139 461.96L511.747 460.064C512.923 461.144 514.483 461.888 516.019 461.888C517.963 461.888 518.947 461.072 518.947 459.8C518.947 458.48 517.891 458.072 516.331 457.448L514.195 456.512C512.515 455.864 510.811 454.616 510.811 452.312C510.811 449.792 513.067 447.872 516.259 447.872C518.203 447.872 520.003 448.616 521.299 449.888L519.859 451.64C518.803 450.776 517.723 450.272 516.259 450.272C514.627 450.272 513.619 450.968 513.619 452.168C513.619 453.416 514.891 453.848 516.307 454.424L518.371 455.312C520.363 456.128 521.779 457.28 521.779 459.584C521.779 462.152 519.643 464.288 515.971 464.288ZM532.714 464.288C529.09 464.288 526.546 461.12 526.546 456.008C526.546 450.872 529.09 447.872 532.714 447.872C536.362 447.872 538.882 450.896 538.882 456.008C538.882 461.12 536.362 464.288 532.714 464.288ZM532.714 461.888C534.73 461.888 536.05 459.584 536.05 456.008C536.05 452.432 534.73 450.272 532.714 450.272C530.698 450.272 529.402 452.432 529.402 456.008C529.402 459.584 530.698 461.888 532.714 461.888ZM545.209 464V448.16H547.945V461.648H555.337V464H545.209ZM559.599 464L564.687 448.16H567.927L573.015 464H570.087L568.863 459.68H563.655L562.407 464H559.599ZM564.255 457.496H568.263L567.711 455.528C567.231 453.848 566.751 452.072 566.295 450.32H566.199C565.767 452.072 565.287 453.848 564.807 455.528L564.255 457.496ZM581.694 464V450.488H576.774V448.16H589.422V450.488H584.478V464H581.694ZM595.197 464V448.16H605.205V450.488H597.957V454.592H604.101V456.92H597.957V461.648H605.445V464H595.197Z" fill="#171717"/>
<path d="M745.973 464V461.648H749.741V450.488H745.973V448.16H756.317V450.488H752.525V461.648H756.317V464H745.973ZM767.971 464.288C765.763 464.288 763.675 463.448 762.139 461.96L763.747 460.064C764.923 461.144 766.483 461.888 768.019 461.888C769.963 461.888 770.947 461.072 770.947 459.8C770.947 458.48 769.891 458.072 768.331 457.448L766.195 456.512C764.515 455.864 762.811 454.616 762.811 452.312C762.811 449.792 765.067 447.872 768.259 447.872C770.203 447.872 772.003 448.616 773.299 449.888L771.859 451.64C770.803 450.776 769.723 450.272 768.259 450.272C766.627 450.272 765.619 450.968 765.619 452.168C765.619 453.416 766.891 453.848 768.307 454.424L770.371 455.312C772.363 456.128 773.779 457.28 773.779 459.584C773.779 462.152 771.643 464.288 767.971 464.288ZM784.714 464.288C781.09 464.288 778.546 461.12 778.546 456.008C778.546 450.872 781.09 447.872 784.714 447.872C788.362 447.872 790.882 450.896 790.882 456.008C790.882 461.12 788.362 464.288 784.714 464.288ZM784.714 461.888C786.73 461.888 788.05 459.584 788.05 456.008C788.05 452.432 786.73 450.272 784.714 450.272C782.698 450.272 781.402 452.432 781.402 456.008C781.402 459.584 782.698 461.888 784.714 461.888ZM797.209 464V448.16H799.945V461.648H807.337V464H797.209ZM811.599 464L816.687 448.16H819.927L825.015 464H822.087L820.863 459.68H815.655L814.407 464H811.599ZM816.255 457.496H820.263L819.711 455.528C819.231 453.848 818.751 452.072 818.295 450.32H818.199C817.767 452.072 817.287 453.848 816.807 455.528L816.255 457.496ZM833.694 464V450.488H828.774V448.16H841.422V450.488H836.478V464H833.694ZM847.197 464V448.16H857.205V450.488H849.957V454.592H856.101V456.92H849.957V461.648H857.445V464H847.197Z" fill="#171717"/>
<path d="M997.973 464V461.648H1001.74V450.488H997.973V448.16H1008.32V450.488H1004.52V461.648H1008.32V464H997.973ZM1019.97 464.288C1017.76 464.288 1015.68 463.448 1014.14 461.96L1015.75 460.064C1016.92 461.144 1018.48 461.888 1020.02 461.888C1021.96 461.888 1022.95 461.072 1022.95 459.8C1022.95 458.48 1021.89 458.072 1020.33 457.448L1018.2 456.512C1016.52 455.864 1014.81 454.616 1014.81 452.312C1014.81 449.792 1017.07 447.872 1020.26 447.872C1022.2 447.872 1024 448.616 1025.3 449.888L1023.86 451.64C1022.8 450.776 1021.72 450.272 1020.26 450.272C1018.63 450.272 1017.62 450.968 1017.62 452.168C1017.62 453.416 1018.89 453.848 1020.31 454.424L1022.37 455.312C1024.36 456.128 1025.78 457.28 1025.78 459.584C1025.78 462.152 1023.64 464.288 1019.97 464.288ZM1036.71 464.288C1033.09 464.288 1030.55 461.12 1030.55 456.008C1030.55 450.872 1033.09 447.872 1036.71 447.872C1040.36 447.872 1042.88 450.896 1042.88 456.008C1042.88 461.12 1040.36 464.288 1036.71 464.288ZM1036.71 461.888C1038.73 461.888 1040.05 459.584 1040.05 456.008C1040.05 452.432 1038.73 450.272 1036.71 450.272C1034.7 450.272 1033.4 452.432 1033.4 456.008C1033.4 459.584 1034.7 461.888 1036.71 461.888ZM1049.21 464V448.16H1051.94V461.648H1059.34V464H1049.21ZM1063.6 464L1068.69 448.16H1071.93L1077.02 464H1074.09L1072.86 459.68H1067.66L1066.41 464H1063.6ZM1068.26 457.496H1072.26L1071.71 455.528C1071.23 453.848 1070.75 452.072 1070.3 450.32H1070.2C1069.77 452.072 1069.29 453.848 1068.81 455.528L1068.26 457.496ZM1085.69 464V450.488H1080.77V448.16H1093.42V450.488H1088.48V464H1085.69ZM1099.2 464V448.16H1109.2V450.488H1101.96V454.592H1108.1V456.92H1101.96V461.648H1109.44V464H1099.2Z" fill="#171717"/>
</svg>
