<svg width="1601" height="941" viewBox="0 0 1601 941" fill="none" xmlns="http://www.w3.org/2000/svg">
<rect width="1600" height="940" transform="translate(0.5 0.5)" fill="#FCFCFC"/>
<path d="M1219.51 138.788C1215.53 138.788 1212.53 135.86 1212.53 130.628C1212.53 125.42 1215.55 122.372 1219.63 122.372C1221.72 122.372 1223.14 123.356 1224.1 124.34L1222.56 126.068C1221.84 125.3 1221 124.772 1219.63 124.772C1217.14 124.772 1215.38 126.956 1215.38 130.532C1215.38 134.156 1216.9 136.388 1219.68 136.388C1220.52 136.388 1221.34 136.124 1221.82 135.668V132.212H1219.1V129.932H1224.31V136.916C1223.28 137.924 1221.53 138.788 1219.51 138.788ZM1230.25 138.5V122.66H1235.53C1238.97 122.66 1241.49 123.86 1241.49 127.532C1241.49 131.036 1238.92 132.644 1235.53 132.644H1233.01V138.5H1230.25ZM1233.01 130.436H1235.29C1237.65 130.436 1238.75 129.476 1238.75 127.532C1238.75 125.54 1237.6 124.868 1235.29 124.868H1233.01V130.436ZM1252.18 138.788C1248.73 138.788 1246.66 136.796 1246.66 132.452V122.66H1249.42V132.644C1249.42 135.26 1250.48 136.388 1252.18 136.388C1253.86 136.388 1254.94 135.26 1254.94 132.644V122.66H1257.63V132.452C1257.63 136.796 1255.61 138.788 1252.18 138.788ZM1287.13 138.788C1283.12 138.788 1279.98 135.86 1279.98 130.628C1279.98 125.444 1283.07 122.372 1287.23 122.372C1289.17 122.372 1290.71 123.308 1291.69 124.34L1290.15 126.068C1289.36 125.276 1288.45 124.772 1287.23 124.772C1284.61 124.772 1282.81 126.956 1282.81 130.532C1282.81 134.156 1284.61 136.388 1287.3 136.388C1288.57 136.388 1289.55 135.788 1290.44 134.804L1292 136.484C1290.73 137.972 1289.12 138.788 1287.13 138.788ZM1298.21 138.5V122.66H1300.94V136.148H1308.34V138.5H1298.21ZM1319.34 138.788C1315.89 138.788 1313.82 136.796 1313.82 132.452V122.66H1316.58V132.644C1316.58 135.26 1317.64 136.388 1319.34 136.388C1321.02 136.388 1322.1 135.26 1322.1 132.644V122.66H1324.79V132.452C1324.79 136.796 1322.78 138.788 1319.34 138.788ZM1336.13 138.788C1333.93 138.788 1331.84 137.948 1330.3 136.46L1331.91 134.564C1333.09 135.644 1334.65 136.388 1336.18 136.388C1338.13 136.388 1339.11 135.572 1339.11 134.3C1339.11 132.98 1338.05 132.572 1336.49 131.948L1334.36 131.012C1332.68 130.364 1330.97 129.116 1330.97 126.812C1330.97 124.292 1333.23 122.372 1336.42 122.372C1338.37 122.372 1340.17 123.116 1341.46 124.388L1340.02 126.14C1338.97 125.276 1337.89 124.772 1336.42 124.772C1334.79 124.772 1333.78 125.468 1333.78 126.668C1333.78 127.916 1335.05 128.348 1336.47 128.924L1338.53 129.812C1340.53 130.628 1341.94 131.78 1341.94 134.084C1341.94 136.652 1339.81 138.788 1336.13 138.788ZM1351.48 138.5V124.988H1346.56V122.66H1359.21V124.988H1354.27V138.5H1351.48ZM1364.99 138.5V122.66H1375V124.988H1367.75V129.092H1373.89V131.42H1367.75V136.148H1375.24V138.5H1364.99ZM1381.3 138.5V122.66H1386.53C1389.77 122.66 1392.29 123.812 1392.29 127.34C1392.29 129.74 1391.04 131.204 1389.15 131.852L1392.91 138.5H1389.79L1386.39 132.284H1384.06V138.5H1381.3ZM1384.06 130.052H1386.24C1388.4 130.052 1389.55 129.14 1389.55 127.34C1389.55 125.492 1388.4 124.868 1386.24 124.868H1384.06V130.052Z" fill="#171717"/>
<path d="M1246.03 172.772C1242.79 170.084 1240.8 166.388 1240.8 161.828C1240.8 157.244 1242.79 153.572 1246.03 150.884L1247.54 152.18C1244.52 154.916 1243.15 157.916 1243.15 161.828C1243.15 165.74 1244.52 168.74 1247.54 171.476L1246.03 172.772ZM1260.11 168.788C1256.48 168.788 1253.94 165.62 1253.94 160.508C1253.94 155.372 1256.48 152.372 1260.11 152.372C1263.75 152.372 1266.27 155.396 1266.27 160.508C1266.27 165.62 1263.75 168.788 1260.11 168.788ZM1260.11 166.388C1262.12 166.388 1263.44 164.084 1263.44 160.508C1263.44 156.932 1262.12 154.772 1260.11 154.772C1258.09 154.772 1256.79 156.932 1256.79 160.508C1256.79 164.084 1258.09 166.388 1260.11 166.388ZM1272.6 168.5V152.66H1275.34V166.148H1282.73V168.5H1272.6ZM1289.39 168.5V152.66H1292.13V166.148H1299.52V168.5H1289.39ZM1303.78 168.5L1308.87 152.66H1312.11L1317.2 168.5H1314.27L1313.05 164.18H1307.84L1306.59 168.5H1303.78ZM1308.44 161.996H1312.45L1311.89 160.028C1311.41 158.348 1310.93 156.572 1310.48 154.82H1310.38C1309.95 156.572 1309.47 158.348 1308.99 160.028L1308.44 161.996ZM1321.77 168.5V152.66H1324.73L1326.91 158.852L1327.68 161.228H1327.77L1328.49 158.852L1330.68 152.66H1333.63V168.5H1331.28V161.372C1331.28 159.86 1331.49 156.884 1331.64 155.396H1331.54L1330.34 159.26L1328.35 164.228H1327.01L1324.99 159.26L1323.79 155.396H1323.72C1323.84 156.884 1324.08 159.86 1324.08 161.372V168.5H1321.77ZM1338.21 168.5L1343.3 152.66H1346.54L1351.62 168.5H1348.7L1347.47 164.18H1342.26L1341.02 168.5H1338.21ZM1342.86 161.996H1346.87L1346.32 160.028C1345.84 158.348 1345.36 156.572 1344.9 154.82H1344.81C1344.38 156.572 1343.9 158.348 1343.42 160.028L1342.86 161.996ZM1359.01 172.772L1357.47 171.476C1360.52 168.74 1361.86 165.74 1361.86 161.828C1361.86 157.916 1360.52 154.916 1357.47 152.18L1359.01 150.884C1362.22 153.572 1364.24 157.244 1364.24 161.828C1364.24 166.388 1362.22 170.084 1359.01 172.772Z" fill="#525252"/>
<rect x="1100.5" y="195.5" width="404" height="631" rx="32" fill="#C7C7C7" fill-opacity="0.1"/>
<rect x="1100.5" y="195.5" width="404" height="631" rx="32" stroke="#C7C7C7" stroke-width="2" stroke-linecap="round"/>
<rect x="1142.5" y="231" width="96" height="96" rx="21" fill="#C7C7C7" fill-opacity="0.1" stroke="#DFDFDF" stroke-width="2"/>
<path d="M1208.99 255.648H1173.31C1170.03 255.648 1167.37 258.262 1167.37 261.486V296.513C1167.37 299.737 1170.03 302.351 1173.31 302.351H1208.99C1212.27 302.351 1214.93 299.737 1214.93 296.513V261.486C1214.93 258.262 1212.27 255.648 1208.99 255.648Z" stroke="#171717" stroke-width="2" stroke-linecap="round" stroke-linejoin="round"/>
<path d="M1200.07 270.242H1182.23V287.756H1200.07V270.242Z" stroke="#171717" stroke-width="2" stroke-linecap="round" stroke-linejoin="round"/>
<path d="M1182.23 249.811V255.648" stroke="#171717" stroke-width="2" stroke-linecap="round" stroke-linejoin="round"/>
<path d="M1200.07 249.811V255.648" stroke="#171717" stroke-width="2" stroke-linecap="round" stroke-linejoin="round"/>
<path d="M1182.23 305.27V308.188" stroke="#171717" stroke-width="2" stroke-linecap="round" stroke-linejoin="round"/>
<path d="M1200.07 302.352V308.189" stroke="#171717" stroke-width="2" stroke-linecap="round" stroke-linejoin="round"/>
<path d="M1214.93 270.242H1220.88" stroke="#171717" stroke-width="2" stroke-linecap="round" stroke-linejoin="round"/>
<path d="M1214.93 284.838H1220.88" stroke="#171717" stroke-width="2" stroke-linecap="round" stroke-linejoin="round"/>
<path d="M1161.42 270.242H1167.37" stroke="#171717" stroke-width="2" stroke-linecap="round" stroke-linejoin="round"/>
<path d="M1161.42 284.838H1167.37" stroke="#171717" stroke-width="2" stroke-linecap="round" stroke-linejoin="round"/>
<rect x="1254.5" y="231" width="96" height="96" rx="21" fill="#C7C7C7" fill-opacity="0.1" stroke="#DFDFDF" stroke-width="2"/>
<path d="M1320.99 255.648H1285.31C1282.03 255.648 1279.37 258.262 1279.37 261.486V296.513C1279.37 299.737 1282.03 302.351 1285.31 302.351H1320.99C1324.27 302.351 1326.93 299.737 1326.93 296.513V261.486C1326.93 258.262 1324.27 255.648 1320.99 255.648Z" stroke="#171717" stroke-width="2" stroke-linecap="round" stroke-linejoin="round"/>
<path d="M1312.07 270.242H1294.23V287.756H1312.07V270.242Z" stroke="#171717" stroke-width="2" stroke-linecap="round" stroke-linejoin="round"/>
<path d="M1294.23 249.811V255.648" stroke="#171717" stroke-width="2" stroke-linecap="round" stroke-linejoin="round"/>
<path d="M1312.07 249.811V255.648" stroke="#171717" stroke-width="2" stroke-linecap="round" stroke-linejoin="round"/>
<path d="M1294.23 305.27V308.188" stroke="#171717" stroke-width="2" stroke-linecap="round" stroke-linejoin="round"/>
<path d="M1312.07 302.352V308.189" stroke="#171717" stroke-width="2" stroke-linecap="round" stroke-linejoin="round"/>
<path d="M1326.93 270.242H1332.88" stroke="#171717" stroke-width="2" stroke-linecap="round" stroke-linejoin="round"/>
<path d="M1326.93 284.838H1332.88" stroke="#171717" stroke-width="2" stroke-linecap="round" stroke-linejoin="round"/>
<path d="M1273.42 270.242H1279.37" stroke="#171717" stroke-width="2" stroke-linecap="round" stroke-linejoin="round"/>
<path d="M1273.42 284.838H1279.37" stroke="#171717" stroke-width="2" stroke-linecap="round" stroke-linejoin="round"/>
<rect x="1366.5" y="231" width="96" height="96" rx="21" fill="#C7C7C7" fill-opacity="0.1" stroke="#DFDFDF" stroke-width="2"/>
<path d="M1432.99 255.648H1397.31C1394.03 255.648 1391.37 258.262 1391.37 261.486V296.513C1391.37 299.737 1394.03 302.351 1397.31 302.351H1432.99C1436.27 302.351 1438.93 299.737 1438.93 296.513V261.486C1438.93 258.262 1436.27 255.648 1432.99 255.648Z" stroke="#171717" stroke-width="2" stroke-linecap="round" stroke-linejoin="round"/>
<path d="M1424.07 270.242H1406.23V287.756H1424.07V270.242Z" stroke="#171717" stroke-width="2" stroke-linecap="round" stroke-linejoin="round"/>
<path d="M1406.23 249.811V255.648" stroke="#171717" stroke-width="2" stroke-linecap="round" stroke-linejoin="round"/>
<path d="M1424.07 249.811V255.648" stroke="#171717" stroke-width="2" stroke-linecap="round" stroke-linejoin="round"/>
<path d="M1406.23 305.27V308.188" stroke="#171717" stroke-width="2" stroke-linecap="round" stroke-linejoin="round"/>
<path d="M1424.07 302.352V308.189" stroke="#171717" stroke-width="2" stroke-linecap="round" stroke-linejoin="round"/>
<path d="M1438.93 270.242H1444.88" stroke="#171717" stroke-width="2" stroke-linecap="round" stroke-linejoin="round"/>
<path d="M1438.93 284.838H1444.88" stroke="#171717" stroke-width="2" stroke-linecap="round" stroke-linejoin="round"/>
<path d="M1385.42 270.242H1391.37" stroke="#171717" stroke-width="2" stroke-linecap="round" stroke-linejoin="round"/>
<path d="M1385.42 284.838H1391.37" stroke="#171717" stroke-width="2" stroke-linecap="round" stroke-linejoin="round"/>
<rect x="1142.5" y="348" width="96" height="96" rx="21" fill="#C7C7C7" fill-opacity="0.1" stroke="#DFDFDF" stroke-width="2"/>
<path d="M1208.99 372.648H1173.31C1170.03 372.648 1167.37 375.262 1167.37 378.486V413.513C1167.37 416.737 1170.03 419.351 1173.31 419.351H1208.99C1212.27 419.351 1214.93 416.737 1214.93 413.513V378.486C1214.93 375.262 1212.27 372.648 1208.99 372.648Z" stroke="#171717" stroke-width="2" stroke-linecap="round" stroke-linejoin="round"/>
<path d="M1200.07 387.242H1182.23V404.756H1200.07V387.242Z" stroke="#171717" stroke-width="2" stroke-linecap="round" stroke-linejoin="round"/>
<path d="M1182.23 366.811V372.648" stroke="#171717" stroke-width="2" stroke-linecap="round" stroke-linejoin="round"/>
<path d="M1200.07 366.811V372.648" stroke="#171717" stroke-width="2" stroke-linecap="round" stroke-linejoin="round"/>
<path d="M1182.23 422.27V425.188" stroke="#171717" stroke-width="2" stroke-linecap="round" stroke-linejoin="round"/>
<path d="M1200.07 419.352V425.189" stroke="#171717" stroke-width="2" stroke-linecap="round" stroke-linejoin="round"/>
<path d="M1214.93 387.242H1220.88" stroke="#171717" stroke-width="2" stroke-linecap="round" stroke-linejoin="round"/>
<path d="M1214.93 401.838H1220.88" stroke="#171717" stroke-width="2" stroke-linecap="round" stroke-linejoin="round"/>
<path d="M1161.42 387.242H1167.37" stroke="#171717" stroke-width="2" stroke-linecap="round" stroke-linejoin="round"/>
<path d="M1161.42 401.838H1167.37" stroke="#171717" stroke-width="2" stroke-linecap="round" stroke-linejoin="round"/>
<rect x="1254.5" y="348" width="96" height="96" rx="21" fill="#C7C7C7" fill-opacity="0.1" stroke="#DFDFDF" stroke-width="2"/>
<path d="M1320.99 372.648H1285.31C1282.03 372.648 1279.37 375.262 1279.37 378.486V413.513C1279.37 416.737 1282.03 419.351 1285.31 419.351H1320.99C1324.27 419.351 1326.93 416.737 1326.93 413.513V378.486C1326.93 375.262 1324.27 372.648 1320.99 372.648Z" stroke="#171717" stroke-width="2" stroke-linecap="round" stroke-linejoin="round"/>
<path d="M1312.07 387.242H1294.23V404.756H1312.07V387.242Z" stroke="#171717" stroke-width="2" stroke-linecap="round" stroke-linejoin="round"/>
<path d="M1294.23 366.811V372.648" stroke="#171717" stroke-width="2" stroke-linecap="round" stroke-linejoin="round"/>
<path d="M1312.07 366.811V372.648" stroke="#171717" stroke-width="2" stroke-linecap="round" stroke-linejoin="round"/>
<path d="M1294.23 422.27V425.188" stroke="#171717" stroke-width="2" stroke-linecap="round" stroke-linejoin="round"/>
<path d="M1312.07 419.352V425.189" stroke="#171717" stroke-width="2" stroke-linecap="round" stroke-linejoin="round"/>
<path d="M1326.93 387.242H1332.88" stroke="#171717" stroke-width="2" stroke-linecap="round" stroke-linejoin="round"/>
<path d="M1326.93 401.838H1332.88" stroke="#171717" stroke-width="2" stroke-linecap="round" stroke-linejoin="round"/>
<path d="M1273.42 387.242H1279.37" stroke="#171717" stroke-width="2" stroke-linecap="round" stroke-linejoin="round"/>
<path d="M1273.42 401.838H1279.37" stroke="#171717" stroke-width="2" stroke-linecap="round" stroke-linejoin="round"/>
<rect x="1366.5" y="348" width="96" height="96" rx="21" fill="#C7C7C7" fill-opacity="0.1" stroke="#DFDFDF" stroke-width="2"/>
<path d="M1432.99 372.648H1397.31C1394.03 372.648 1391.37 375.262 1391.37 378.486V413.513C1391.37 416.737 1394.03 419.351 1397.31 419.351H1432.99C1436.27 419.351 1438.93 416.737 1438.93 413.513V378.486C1438.93 375.262 1436.27 372.648 1432.99 372.648Z" stroke="#171717" stroke-width="2" stroke-linecap="round" stroke-linejoin="round"/>
<path d="M1424.07 387.242H1406.23V404.756H1424.07V387.242Z" stroke="#171717" stroke-width="2" stroke-linecap="round" stroke-linejoin="round"/>
<path d="M1406.23 366.811V372.648" stroke="#171717" stroke-width="2" stroke-linecap="round" stroke-linejoin="round"/>
<path d="M1424.07 366.811V372.648" stroke="#171717" stroke-width="2" stroke-linecap="round" stroke-linejoin="round"/>
<path d="M1406.23 422.27V425.188" stroke="#171717" stroke-width="2" stroke-linecap="round" stroke-linejoin="round"/>
<path d="M1424.07 419.352V425.189" stroke="#171717" stroke-width="2" stroke-linecap="round" stroke-linejoin="round"/>
<path d="M1438.93 387.242H1444.88" stroke="#171717" stroke-width="2" stroke-linecap="round" stroke-linejoin="round"/>
<path d="M1438.93 401.838H1444.88" stroke="#171717" stroke-width="2" stroke-linecap="round" stroke-linejoin="round"/>
<path d="M1385.42 387.242H1391.37" stroke="#171717" stroke-width="2" stroke-linecap="round" stroke-linejoin="round"/>
<path d="M1385.42 401.838H1391.37" stroke="#171717" stroke-width="2" stroke-linecap="round" stroke-linejoin="round"/>
<rect x="1142.5" y="465" width="96" height="96" rx="21" fill="#C7C7C7" fill-opacity="0.1" stroke="#DFDFDF" stroke-width="2"/>
<path d="M1208.99 489.648H1173.31C1170.03 489.648 1167.37 492.262 1167.37 495.486V530.513C1167.37 533.737 1170.03 536.351 1173.31 536.351H1208.99C1212.27 536.351 1214.93 533.737 1214.93 530.513V495.486C1214.93 492.262 1212.27 489.648 1208.99 489.648Z" stroke="#171717" stroke-width="2" stroke-linecap="round" stroke-linejoin="round"/>
<path d="M1200.07 504.242H1182.23V521.756H1200.07V504.242Z" stroke="#171717" stroke-width="2" stroke-linecap="round" stroke-linejoin="round"/>
<path d="M1182.23 483.811V489.648" stroke="#171717" stroke-width="2" stroke-linecap="round" stroke-linejoin="round"/>
<path d="M1200.07 483.811V489.648" stroke="#171717" stroke-width="2" stroke-linecap="round" stroke-linejoin="round"/>
<path d="M1182.23 539.27V542.188" stroke="#171717" stroke-width="2" stroke-linecap="round" stroke-linejoin="round"/>
<path d="M1200.07 536.352V542.189" stroke="#171717" stroke-width="2" stroke-linecap="round" stroke-linejoin="round"/>
<path d="M1214.93 504.242H1220.88" stroke="#171717" stroke-width="2" stroke-linecap="round" stroke-linejoin="round"/>
<path d="M1214.93 518.838H1220.88" stroke="#171717" stroke-width="2" stroke-linecap="round" stroke-linejoin="round"/>
<path d="M1161.42 504.242H1167.37" stroke="#171717" stroke-width="2" stroke-linecap="round" stroke-linejoin="round"/>
<path d="M1161.42 518.838H1167.37" stroke="#171717" stroke-width="2" stroke-linecap="round" stroke-linejoin="round"/>
<rect x="1254.5" y="465" width="96" height="96" rx="21" fill="#C7C7C7" fill-opacity="0.1" stroke="#DFDFDF" stroke-width="2"/>
<path d="M1320.99 489.648H1285.31C1282.03 489.648 1279.37 492.262 1279.37 495.486V530.513C1279.37 533.737 1282.03 536.351 1285.31 536.351H1320.99C1324.27 536.351 1326.93 533.737 1326.93 530.513V495.486C1326.93 492.262 1324.27 489.648 1320.99 489.648Z" stroke="#171717" stroke-width="2" stroke-linecap="round" stroke-linejoin="round"/>
<path d="M1312.07 504.242H1294.23V521.756H1312.07V504.242Z" stroke="#171717" stroke-width="2" stroke-linecap="round" stroke-linejoin="round"/>
<path d="M1294.23 483.811V489.648" stroke="#171717" stroke-width="2" stroke-linecap="round" stroke-linejoin="round"/>
<path d="M1312.07 483.811V489.648" stroke="#171717" stroke-width="2" stroke-linecap="round" stroke-linejoin="round"/>
<path d="M1294.23 539.27V542.188" stroke="#171717" stroke-width="2" stroke-linecap="round" stroke-linejoin="round"/>
<path d="M1312.07 536.352V542.189" stroke="#171717" stroke-width="2" stroke-linecap="round" stroke-linejoin="round"/>
<path d="M1326.93 504.242H1332.88" stroke="#171717" stroke-width="2" stroke-linecap="round" stroke-linejoin="round"/>
<path d="M1326.93 518.838H1332.88" stroke="#171717" stroke-width="2" stroke-linecap="round" stroke-linejoin="round"/>
<path d="M1273.42 504.242H1279.37" stroke="#171717" stroke-width="2" stroke-linecap="round" stroke-linejoin="round"/>
<path d="M1273.42 518.838H1279.37" stroke="#171717" stroke-width="2" stroke-linecap="round" stroke-linejoin="round"/>
<rect x="1366.5" y="465" width="96" height="96" rx="21" fill="#C7C7C7" fill-opacity="0.1" stroke="#DFDFDF" stroke-width="2"/>
<path d="M1432.99 489.648H1397.31C1394.03 489.648 1391.37 492.262 1391.37 495.486V530.513C1391.37 533.737 1394.03 536.351 1397.31 536.351H1432.99C1436.27 536.351 1438.93 533.737 1438.93 530.513V495.486C1438.93 492.262 1436.27 489.648 1432.99 489.648Z" stroke="#171717" stroke-width="2" stroke-linecap="round" stroke-linejoin="round"/>
<path d="M1424.07 504.242H1406.23V521.756H1424.07V504.242Z" stroke="#171717" stroke-width="2" stroke-linecap="round" stroke-linejoin="round"/>
<path d="M1406.23 483.811V489.648" stroke="#171717" stroke-width="2" stroke-linecap="round" stroke-linejoin="round"/>
<path d="M1424.07 483.811V489.648" stroke="#171717" stroke-width="2" stroke-linecap="round" stroke-linejoin="round"/>
<path d="M1406.23 539.27V542.188" stroke="#171717" stroke-width="2" stroke-linecap="round" stroke-linejoin="round"/>
<path d="M1424.07 536.352V542.189" stroke="#171717" stroke-width="2" stroke-linecap="round" stroke-linejoin="round"/>
<path d="M1438.93 504.242H1444.88" stroke="#171717" stroke-width="2" stroke-linecap="round" stroke-linejoin="round"/>
<path d="M1438.93 518.838H1444.88" stroke="#171717" stroke-width="2" stroke-linecap="round" stroke-linejoin="round"/>
<path d="M1385.42 504.242H1391.37" stroke="#171717" stroke-width="2" stroke-linecap="round" stroke-linejoin="round"/>
<path d="M1385.42 518.838H1391.37" stroke="#171717" stroke-width="2" stroke-linecap="round" stroke-linejoin="round"/>
<rect x="1142.5" y="582" width="96" height="96" rx="21" fill="#C7C7C7" fill-opacity="0.1" stroke="#DFDFDF" stroke-width="2"/>
<path d="M1208.99 606.648H1173.31C1170.03 606.648 1167.37 609.262 1167.37 612.486V647.513C1167.37 650.737 1170.03 653.351 1173.31 653.351H1208.99C1212.27 653.351 1214.93 650.737 1214.93 647.513V612.486C1214.93 609.262 1212.27 606.648 1208.99 606.648Z" stroke="#171717" stroke-width="2" stroke-linecap="round" stroke-linejoin="round"/>
<path d="M1200.07 621.242H1182.23V638.756H1200.07V621.242Z" stroke="#171717" stroke-width="2" stroke-linecap="round" stroke-linejoin="round"/>
<path d="M1182.23 600.811V606.648" stroke="#171717" stroke-width="2" stroke-linecap="round" stroke-linejoin="round"/>
<path d="M1200.07 600.811V606.648" stroke="#171717" stroke-width="2" stroke-linecap="round" stroke-linejoin="round"/>
<path d="M1182.23 656.27V659.188" stroke="#171717" stroke-width="2" stroke-linecap="round" stroke-linejoin="round"/>
<path d="M1200.07 653.352V659.189" stroke="#171717" stroke-width="2" stroke-linecap="round" stroke-linejoin="round"/>
<path d="M1214.93 621.242H1220.88" stroke="#171717" stroke-width="2" stroke-linecap="round" stroke-linejoin="round"/>
<path d="M1214.93 635.838H1220.88" stroke="#171717" stroke-width="2" stroke-linecap="round" stroke-linejoin="round"/>
<path d="M1161.42 621.242H1167.37" stroke="#171717" stroke-width="2" stroke-linecap="round" stroke-linejoin="round"/>
<path d="M1161.42 635.838H1167.37" stroke="#171717" stroke-width="2" stroke-linecap="round" stroke-linejoin="round"/>
<rect x="1254.5" y="582" width="96" height="96" rx="21" fill="#C7C7C7" fill-opacity="0.1" stroke="#DFDFDF" stroke-width="2"/>
<path d="M1320.99 606.648H1285.31C1282.03 606.648 1279.37 609.262 1279.37 612.486V647.513C1279.37 650.737 1282.03 653.351 1285.31 653.351H1320.99C1324.27 653.351 1326.93 650.737 1326.93 647.513V612.486C1326.93 609.262 1324.27 606.648 1320.99 606.648Z" stroke="#171717" stroke-width="2" stroke-linecap="round" stroke-linejoin="round"/>
<path d="M1312.07 621.242H1294.23V638.756H1312.07V621.242Z" stroke="#171717" stroke-width="2" stroke-linecap="round" stroke-linejoin="round"/>
<path d="M1294.23 600.811V606.648" stroke="#171717" stroke-width="2" stroke-linecap="round" stroke-linejoin="round"/>
<path d="M1312.07 600.811V606.648" stroke="#171717" stroke-width="2" stroke-linecap="round" stroke-linejoin="round"/>
<path d="M1294.23 656.27V659.188" stroke="#171717" stroke-width="2" stroke-linecap="round" stroke-linejoin="round"/>
<path d="M1312.07 653.352V659.189" stroke="#171717" stroke-width="2" stroke-linecap="round" stroke-linejoin="round"/>
<path d="M1326.93 621.242H1332.88" stroke="#171717" stroke-width="2" stroke-linecap="round" stroke-linejoin="round"/>
<path d="M1326.93 635.838H1332.88" stroke="#171717" stroke-width="2" stroke-linecap="round" stroke-linejoin="round"/>
<path d="M1273.42 621.242H1279.37" stroke="#171717" stroke-width="2" stroke-linecap="round" stroke-linejoin="round"/>
<path d="M1273.42 635.838H1279.37" stroke="#171717" stroke-width="2" stroke-linecap="round" stroke-linejoin="round"/>
<rect x="1366.5" y="582" width="96" height="96" rx="21" fill="#C7C7C7" fill-opacity="0.1" stroke="#DFDFDF" stroke-width="2"/>
<path d="M1432.99 606.648H1397.31C1394.03 606.648 1391.37 609.262 1391.37 612.486V647.513C1391.37 650.737 1394.03 653.351 1397.31 653.351H1432.99C1436.27 653.351 1438.93 650.737 1438.93 647.513V612.486C1438.93 609.262 1436.27 606.648 1432.99 606.648Z" stroke="#171717" stroke-width="2" stroke-linecap="round" stroke-linejoin="round"/>
<path d="M1424.07 621.242H1406.23V638.756H1424.07V621.242Z" stroke="#171717" stroke-width="2" stroke-linecap="round" stroke-linejoin="round"/>
<path d="M1406.23 600.811V606.648" stroke="#171717" stroke-width="2" stroke-linecap="round" stroke-linejoin="round"/>
<path d="M1424.07 600.811V606.648" stroke="#171717" stroke-width="2" stroke-linecap="round" stroke-linejoin="round"/>
<path d="M1406.23 656.27V659.188" stroke="#171717" stroke-width="2" stroke-linecap="round" stroke-linejoin="round"/>
<path d="M1424.07 653.352V659.189" stroke="#171717" stroke-width="2" stroke-linecap="round" stroke-linejoin="round"/>
<path d="M1438.93 621.242H1444.88" stroke="#171717" stroke-width="2" stroke-linecap="round" stroke-linejoin="round"/>
<path d="M1438.93 635.838H1444.88" stroke="#171717" stroke-width="2" stroke-linecap="round" stroke-linejoin="round"/>
<path d="M1385.42 621.242H1391.37" stroke="#171717" stroke-width="2" stroke-linecap="round" stroke-linejoin="round"/>
<path d="M1385.42 635.838H1391.37" stroke="#171717" stroke-width="2" stroke-linecap="round" stroke-linejoin="round"/>
<rect x="1142.5" y="699" width="96" height="96" rx="21" fill="#C7C7C7" fill-opacity="0.1" stroke="#DFDFDF" stroke-width="2"/>
<path d="M1208.99 723.648H1173.31C1170.03 723.648 1167.37 726.262 1167.37 729.486V764.513C1167.37 767.737 1170.03 770.351 1173.31 770.351H1208.99C1212.27 770.351 1214.93 767.737 1214.93 764.513V729.486C1214.93 726.262 1212.27 723.648 1208.99 723.648Z" stroke="#171717" stroke-width="2" stroke-linecap="round" stroke-linejoin="round"/>
<path d="M1200.07 738.242H1182.23V755.756H1200.07V738.242Z" stroke="#171717" stroke-width="2" stroke-linecap="round" stroke-linejoin="round"/>
<path d="M1182.23 717.811V723.648" stroke="#171717" stroke-width="2" stroke-linecap="round" stroke-linejoin="round"/>
<path d="M1200.07 717.811V723.648" stroke="#171717" stroke-width="2" stroke-linecap="round" stroke-linejoin="round"/>
<path d="M1182.23 773.27V776.188" stroke="#171717" stroke-width="2" stroke-linecap="round" stroke-linejoin="round"/>
<path d="M1200.07 770.352V776.189" stroke="#171717" stroke-width="2" stroke-linecap="round" stroke-linejoin="round"/>
<path d="M1214.93 738.242H1220.88" stroke="#171717" stroke-width="2" stroke-linecap="round" stroke-linejoin="round"/>
<path d="M1214.93 752.838H1220.88" stroke="#171717" stroke-width="2" stroke-linecap="round" stroke-linejoin="round"/>
<path d="M1161.42 738.242H1167.37" stroke="#171717" stroke-width="2" stroke-linecap="round" stroke-linejoin="round"/>
<path d="M1161.42 752.838H1167.37" stroke="#171717" stroke-width="2" stroke-linecap="round" stroke-linejoin="round"/>
<rect x="1254.5" y="699" width="96" height="96" rx="21" fill="#C7C7C7" fill-opacity="0.1" stroke="#DFDFDF" stroke-width="2"/>
<path d="M1320.99 723.648H1285.31C1282.03 723.648 1279.37 726.262 1279.37 729.486V764.513C1279.37 767.737 1282.03 770.351 1285.31 770.351H1320.99C1324.27 770.351 1326.93 767.737 1326.93 764.513V729.486C1326.93 726.262 1324.27 723.648 1320.99 723.648Z" stroke="#171717" stroke-width="2" stroke-linecap="round" stroke-linejoin="round"/>
<path d="M1312.07 738.242H1294.23V755.756H1312.07V738.242Z" stroke="#171717" stroke-width="2" stroke-linecap="round" stroke-linejoin="round"/>
<path d="M1294.23 717.811V723.648" stroke="#171717" stroke-width="2" stroke-linecap="round" stroke-linejoin="round"/>
<path d="M1312.07 717.811V723.648" stroke="#171717" stroke-width="2" stroke-linecap="round" stroke-linejoin="round"/>
<path d="M1294.23 773.27V776.188" stroke="#171717" stroke-width="2" stroke-linecap="round" stroke-linejoin="round"/>
<path d="M1312.07 770.352V776.189" stroke="#171717" stroke-width="2" stroke-linecap="round" stroke-linejoin="round"/>
<path d="M1326.93 738.242H1332.88" stroke="#171717" stroke-width="2" stroke-linecap="round" stroke-linejoin="round"/>
<path d="M1326.93 752.838H1332.88" stroke="#171717" stroke-width="2" stroke-linecap="round" stroke-linejoin="round"/>
<path d="M1273.42 738.242H1279.37" stroke="#171717" stroke-width="2" stroke-linecap="round" stroke-linejoin="round"/>
<path d="M1273.42 752.838H1279.37" stroke="#171717" stroke-width="2" stroke-linecap="round" stroke-linejoin="round"/>
<rect x="1366.5" y="699" width="96" height="96" rx="21" fill="#C7C7C7" fill-opacity="0.1" stroke="#DFDFDF" stroke-width="2"/>
<path d="M1432.99 723.648H1397.31C1394.03 723.648 1391.37 726.262 1391.37 729.486V764.513C1391.37 767.737 1394.03 770.351 1397.31 770.351H1432.99C1436.27 770.351 1438.93 767.737 1438.93 764.513V729.486C1438.93 726.262 1436.27 723.648 1432.99 723.648Z" stroke="#171717" stroke-width="2" stroke-linecap="round" stroke-linejoin="round"/>
<path d="M1424.07 738.242H1406.23V755.756H1424.07V738.242Z" stroke="#171717" stroke-width="2" stroke-linecap="round" stroke-linejoin="round"/>
<path d="M1406.23 717.811V723.648" stroke="#171717" stroke-width="2" stroke-linecap="round" stroke-linejoin="round"/>
<path d="M1424.07 717.811V723.648" stroke="#171717" stroke-width="2" stroke-linecap="round" stroke-linejoin="round"/>
<path d="M1406.23 773.27V776.188" stroke="#171717" stroke-width="2" stroke-linecap="round" stroke-linejoin="round"/>
<path d="M1424.07 770.352V776.189" stroke="#171717" stroke-width="2" stroke-linecap="round" stroke-linejoin="round"/>
<path d="M1438.93 738.242H1444.88" stroke="#171717" stroke-width="2" stroke-linecap="round" stroke-linejoin="round"/>
<path d="M1438.93 752.838H1444.88" stroke="#171717" stroke-width="2" stroke-linecap="round" stroke-linejoin="round"/>
<path d="M1385.42 738.242H1391.37" stroke="#171717" stroke-width="2" stroke-linecap="round" stroke-linejoin="round"/>
<path d="M1385.42 752.838H1391.37" stroke="#171717" stroke-width="2" stroke-linecap="round" stroke-linejoin="round"/>
<path d="M411.793 168.5V152.66H421.801V154.988H414.553V159.092H420.697V161.42H414.553V166.148H422.041V168.5H411.793ZM427.863 168.5V152.66H431.919C436.551 152.66 439.335 155.276 439.335 160.508C439.335 165.74 436.551 168.5 432.063 168.5H427.863ZM430.647 166.244H431.751C434.775 166.244 436.479 164.396 436.479 160.508C436.479 156.62 434.775 154.892 431.751 154.892H430.647V166.244ZM451.014 168.788C447.03 168.788 444.03 165.86 444.03 160.628C444.03 155.42 447.054 152.372 451.134 152.372C453.222 152.372 454.638 153.356 455.598 154.34L454.062 156.068C453.342 155.3 452.502 154.772 451.134 154.772C448.638 154.772 446.886 156.956 446.886 160.532C446.886 164.156 448.398 166.388 451.182 166.388C452.022 166.388 452.838 166.124 453.318 165.668V162.212H450.606V159.932H455.814V166.916C454.782 167.924 453.03 168.788 451.014 168.788ZM462.165 168.5V152.66H472.173V154.988H464.925V159.092H471.069V161.42H464.925V166.148H472.413V168.5H462.165ZM495.266 168.5V152.66H500.498C503.738 152.66 506.258 153.812 506.258 157.34C506.258 159.74 505.01 161.204 503.114 161.852L506.882 168.5H503.762L500.354 162.284H498.026V168.5H495.266ZM498.026 160.052H500.21C502.37 160.052 503.522 159.14 503.522 157.34C503.522 155.492 502.37 154.868 500.21 154.868H498.026V160.052ZM517.264 168.788C513.808 168.788 511.744 166.796 511.744 162.452V152.66H514.504V162.644C514.504 165.26 515.56 166.388 517.264 166.388C518.944 166.388 520.024 165.26 520.024 162.644V152.66H522.712V162.452C522.712 166.796 520.696 168.788 517.264 168.788ZM528.607 168.5V152.66H531.415L535.639 161.636L537.103 164.996H537.175C537.055 163.364 536.791 161.372 536.791 159.62V152.66H539.431V168.5H536.599L532.399 159.5L530.935 156.164H530.863C530.983 157.844 531.247 159.74 531.247 161.492V168.5H528.607ZM549.406 168.5V154.988H544.486V152.66H557.134V154.988H552.19V168.5H549.406ZM562.428 168.5V166.148H566.196V154.988H562.428V152.66H572.772V154.988H568.98V166.148H572.772V168.5H562.428ZM578.883 168.5V152.66H581.835L584.019 158.852L584.787 161.228H584.883L585.603 158.852L587.787 152.66H590.739V168.5H588.387V161.372C588.387 159.86 588.603 156.884 588.747 155.396H588.651L587.451 159.26L585.459 164.228H584.115L582.099 159.26L580.899 155.396H580.827C580.947 156.884 581.187 159.86 581.187 161.372V168.5H578.883ZM597.333 168.5V152.66H607.341V154.988H600.093V159.092H606.237V161.42H600.093V166.148H607.581V168.5H597.333Z" fill="#171717"/>
<rect x="103.238" y="195.5" width="812" height="631" rx="32" stroke="#FD880B" stroke-width="2" stroke-linecap="round"/>
<rect x="651.238" y="243.5" width="220" height="534" rx="32" fill="#C7C7C7" fill-opacity="0.1"/>
<rect x="651.238" y="243.5" width="220" height="534" rx="32" stroke="#C7C7C7" stroke-width="2" stroke-linecap="round" stroke-dasharray="8 16"/>
<rect x="399.238" y="243.5" width="220" height="534" rx="32" fill="#C7C7C7" fill-opacity="0.1"/>
<rect x="399.238" y="243.5" width="220" height="534" rx="32" stroke="#C7C7C7" stroke-width="2" stroke-linecap="round" stroke-dasharray="8 16"/>
<rect x="147.238" y="243.5" width="220" height="534" rx="32" fill="#C7C7C7" fill-opacity="0.1"/>
<rect x="147.238" y="243.5" width="220" height="534" rx="32" stroke="#C7C7C7" stroke-width="2" stroke-linecap="round" stroke-dasharray="8 16"/>
<path d="M201.711 504.5V502.148H205.479V490.988H201.711V488.66H212.055V490.988H208.263V502.148H212.055V504.5H201.711ZM223.71 504.788C221.502 504.788 219.414 503.948 217.878 502.46L219.486 500.564C220.662 501.644 222.222 502.388 223.758 502.388C225.702 502.388 226.686 501.572 226.686 500.3C226.686 498.98 225.63 498.572 224.07 497.948L221.934 497.012C220.254 496.364 218.55 495.116 218.55 492.812C218.55 490.292 220.806 488.372 223.998 488.372C225.942 488.372 227.742 489.116 229.038 490.388L227.598 492.14C226.542 491.276 225.462 490.772 223.998 490.772C222.366 490.772 221.358 491.468 221.358 492.668C221.358 493.916 222.63 494.348 224.046 494.924L226.11 495.812C228.102 496.628 229.518 497.78 229.518 500.084C229.518 502.652 227.382 504.788 223.71 504.788ZM240.452 504.788C236.828 504.788 234.284 501.62 234.284 496.508C234.284 491.372 236.828 488.372 240.452 488.372C244.1 488.372 246.62 491.396 246.62 496.508C246.62 501.62 244.1 504.788 240.452 504.788ZM240.452 502.388C242.468 502.388 243.788 500.084 243.788 496.508C243.788 492.932 242.468 490.772 240.452 490.772C238.436 490.772 237.14 492.932 237.14 496.508C237.14 500.084 238.436 502.388 240.452 502.388ZM252.947 504.5V488.66H255.683V502.148H263.075V504.5H252.947ZM267.338 504.5L272.426 488.66H275.666L280.754 504.5H277.826L276.602 500.18H271.394L270.146 504.5H267.338ZM271.994 497.996H276.002L275.45 496.028C274.97 494.348 274.49 492.572 274.034 490.82H273.938C273.506 492.572 273.026 494.348 272.546 496.028L271.994 497.996ZM289.432 504.5V490.988H284.512V488.66H297.16V490.988H292.216V504.5H289.432ZM302.935 504.5V488.66H312.943V490.988H305.695V495.092H311.839V497.42H305.695V502.148H313.183V504.5H302.935Z" fill="#171717"/>
<path d="M453.711 504.5V502.148H457.479V490.988H453.711V488.66H464.055V490.988H460.263V502.148H464.055V504.5H453.711ZM475.71 504.788C473.502 504.788 471.414 503.948 469.878 502.46L471.486 500.564C472.662 501.644 474.222 502.388 475.758 502.388C477.702 502.388 478.686 501.572 478.686 500.3C478.686 498.98 477.63 498.572 476.07 497.948L473.934 497.012C472.254 496.364 470.55 495.116 470.55 492.812C470.55 490.292 472.806 488.372 475.998 488.372C477.942 488.372 479.742 489.116 481.038 490.388L479.598 492.14C478.542 491.276 477.462 490.772 475.998 490.772C474.366 490.772 473.358 491.468 473.358 492.668C473.358 493.916 474.63 494.348 476.046 494.924L478.11 495.812C480.102 496.628 481.518 497.78 481.518 500.084C481.518 502.652 479.382 504.788 475.71 504.788ZM492.452 504.788C488.828 504.788 486.284 501.62 486.284 496.508C486.284 491.372 488.828 488.372 492.452 488.372C496.1 488.372 498.62 491.396 498.62 496.508C498.62 501.62 496.1 504.788 492.452 504.788ZM492.452 502.388C494.468 502.388 495.788 500.084 495.788 496.508C495.788 492.932 494.468 490.772 492.452 490.772C490.436 490.772 489.14 492.932 489.14 496.508C489.14 500.084 490.436 502.388 492.452 502.388ZM504.947 504.5V488.66H507.683V502.148H515.075V504.5H504.947ZM519.338 504.5L524.426 488.66H527.666L532.754 504.5H529.826L528.602 500.18H523.394L522.146 504.5H519.338ZM523.994 497.996H528.002L527.45 496.028C526.97 494.348 526.49 492.572 526.034 490.82H525.938C525.506 492.572 525.026 494.348 524.546 496.028L523.994 497.996ZM541.432 504.5V490.988H536.512V488.66H549.16V490.988H544.216V504.5H541.432ZM554.935 504.5V488.66H564.943V490.988H557.695V495.092H563.839V497.42H557.695V502.148H565.183V504.5H554.935Z" fill="#171717"/>
<path d="M705.711 504.5V502.148H709.479V490.988H705.711V488.66H716.055V490.988H712.263V502.148H716.055V504.5H705.711ZM727.71 504.788C725.502 504.788 723.414 503.948 721.878 502.46L723.486 500.564C724.662 501.644 726.222 502.388 727.758 502.388C729.702 502.388 730.686 501.572 730.686 500.3C730.686 498.98 729.63 498.572 728.07 497.948L725.934 497.012C724.254 496.364 722.55 495.116 722.55 492.812C722.55 490.292 724.806 488.372 727.998 488.372C729.942 488.372 731.742 489.116 733.038 490.388L731.598 492.14C730.542 491.276 729.462 490.772 727.998 490.772C726.366 490.772 725.358 491.468 725.358 492.668C725.358 493.916 726.63 494.348 728.046 494.924L730.11 495.812C732.102 496.628 733.518 497.78 733.518 500.084C733.518 502.652 731.382 504.788 727.71 504.788ZM744.452 504.788C740.828 504.788 738.284 501.62 738.284 496.508C738.284 491.372 740.828 488.372 744.452 488.372C748.1 488.372 750.62 491.396 750.62 496.508C750.62 501.62 748.1 504.788 744.452 504.788ZM744.452 502.388C746.468 502.388 747.788 500.084 747.788 496.508C747.788 492.932 746.468 490.772 744.452 490.772C742.436 490.772 741.14 492.932 741.14 496.508C741.14 500.084 742.436 502.388 744.452 502.388ZM756.947 504.5V488.66H759.683V502.148H767.075V504.5H756.947ZM771.338 504.5L776.426 488.66H779.666L784.754 504.5H781.826L780.602 500.18H775.394L774.146 504.5H771.338ZM775.994 497.996H780.002L779.45 496.028C778.97 494.348 778.49 492.572 778.034 490.82H777.938C777.506 492.572 777.026 494.348 776.546 496.028L775.994 497.996ZM793.432 504.5V490.988H788.512V488.66H801.16V490.988H796.216V504.5H793.432ZM806.935 504.5V488.66H816.943V490.988H809.695V495.092H815.839V497.42H809.695V502.148H817.183V504.5H806.935Z" fill="#171717"/>
<path d="M936.793 494.793C936.402 495.183 936.402 495.817 936.793 496.207L943.157 502.571C943.547 502.962 944.181 502.962 944.571 502.571C944.962 502.181 944.962 501.547 944.571 501.157L938.914 495.5L944.571 489.843C944.962 489.453 944.962 488.819 944.571 488.429C944.181 488.038 943.547 488.038 943.157 488.429L936.793 494.793ZM1078.95 496.207C1079.34 495.817 1079.34 495.183 1078.95 494.793L1072.58 488.429C1072.19 488.038 1071.56 488.038 1071.17 488.429C1070.78 488.819 1070.78 489.453 1071.17 489.843L1076.82 495.5L1071.17 501.157C1070.78 501.547 1070.78 502.181 1071.17 502.571C1071.56 502.962 1072.19 502.962 1072.58 502.571L1078.95 496.207ZM937.5 496.5L1078.24 496.5L1078.24 494.5L937.5 494.5L937.5 496.5Z" fill="#8F8F8F"/>
</svg>
