<svg width="1601" height="2089" viewBox="0 0 1601 2089" fill="none" xmlns="http://www.w3.org/2000/svg">
<g clip-path="url(#clip0_504_12427)">
<path d="M219.112 1194.45V1178.61H224.392C227.824 1178.61 230.344 1179.81 230.344 1183.48C230.344 1186.98 227.776 1188.59 224.392 1188.59H221.872V1194.45H219.112ZM221.872 1186.38H224.152C226.504 1186.38 227.608 1185.42 227.608 1183.48C227.608 1181.49 226.456 1180.82 224.152 1180.82H221.872V1186.38ZM240.991 1194.74C237.367 1194.74 234.823 1191.57 234.823 1186.46C234.823 1181.32 237.367 1178.32 240.991 1178.32C244.639 1178.32 247.159 1181.34 247.159 1186.46C247.159 1191.57 244.639 1194.74 240.991 1194.74ZM240.991 1192.34C243.007 1192.34 244.327 1190.03 244.327 1186.46C244.327 1182.88 243.007 1180.72 240.991 1180.72C238.975 1180.72 237.679 1182.88 237.679 1186.46C237.679 1190.03 238.975 1192.34 240.991 1192.34ZM257.829 1194.74C255.621 1194.74 253.533 1193.9 251.997 1192.41L253.605 1190.51C254.781 1191.59 256.341 1192.34 257.877 1192.34C259.821 1192.34 260.805 1191.52 260.805 1190.25C260.805 1188.93 259.749 1188.52 258.189 1187.9L256.053 1186.96C254.373 1186.31 252.669 1185.06 252.669 1182.76C252.669 1180.24 254.925 1178.32 258.117 1178.32C260.061 1178.32 261.861 1179.06 263.157 1180.34L261.717 1182.09C260.661 1181.22 259.581 1180.72 258.117 1180.72C256.485 1180.72 255.477 1181.42 255.477 1182.62C255.477 1183.86 256.749 1184.3 258.165 1184.87L260.229 1185.76C262.221 1186.58 263.637 1187.73 263.637 1190.03C263.637 1192.6 261.501 1194.74 257.829 1194.74ZM273.18 1194.45V1180.94H268.26V1178.61H280.908V1180.94H275.964V1194.45H273.18ZM292.322 1194.74C288.338 1194.74 285.338 1191.81 285.338 1186.58C285.338 1181.37 288.362 1178.32 292.442 1178.32C294.53 1178.32 295.946 1179.3 296.906 1180.29L295.37 1182.02C294.65 1181.25 293.81 1180.72 292.442 1180.72C289.946 1180.72 288.194 1182.9 288.194 1186.48C288.194 1190.1 289.706 1192.34 292.49 1192.34C293.33 1192.34 294.146 1192.07 294.626 1191.62V1188.16H291.914V1185.88H297.122V1192.86C296.09 1193.87 294.338 1194.74 292.322 1194.74ZM302.993 1194.45V1178.61H308.225C311.465 1178.61 313.985 1179.76 313.985 1183.29C313.985 1185.69 312.737 1187.15 310.841 1187.8L314.609 1194.45H311.489L308.081 1188.23H305.753V1194.45H302.993ZM305.753 1186H307.937C310.097 1186 311.249 1185.09 311.249 1183.29C311.249 1181.44 310.097 1180.82 307.937 1180.82H305.753V1186ZM320.264 1194.45V1178.61H330.272V1180.94H323.024V1185.04H329.168V1187.37H323.024V1192.1H330.512V1194.45H320.264ZM341.782 1194.74C339.574 1194.74 337.486 1193.9 335.95 1192.41L337.558 1190.51C338.734 1191.59 340.294 1192.34 341.83 1192.34C343.774 1192.34 344.758 1191.52 344.758 1190.25C344.758 1188.93 343.702 1188.52 342.142 1187.9L340.006 1186.96C338.326 1186.31 336.622 1185.06 336.622 1182.76C336.622 1180.24 338.878 1178.32 342.07 1178.32C344.014 1178.32 345.814 1179.06 347.11 1180.34L345.67 1182.09C344.614 1181.22 343.534 1180.72 342.07 1180.72C340.438 1180.72 339.43 1181.42 339.43 1182.62C339.43 1183.86 340.702 1184.3 342.118 1184.87L344.182 1185.76C346.174 1186.58 347.59 1187.73 347.59 1190.03C347.59 1192.6 345.454 1194.74 341.782 1194.74ZM373.924 1194.45V1180.94H369.004V1178.61H381.652V1180.94H376.708V1194.45H373.924ZM385.41 1194.45L390.498 1178.61H393.738L398.826 1194.45H395.898L394.674 1190.13H389.466L388.218 1194.45H385.41ZM390.066 1187.94H394.074L393.522 1185.98C393.042 1184.3 392.562 1182.52 392.106 1180.77H392.01C391.578 1182.52 391.098 1184.3 390.618 1185.98L390.066 1187.94ZM403.953 1194.45V1178.61H408.561C411.777 1178.61 414.129 1179.59 414.129 1182.5C414.129 1183.98 413.241 1185.45 411.393 1185.95V1186.05C413.673 1186.43 414.921 1187.63 414.921 1189.79C414.921 1192.96 412.401 1194.45 408.969 1194.45H403.953ZM406.713 1185.18H408.297C410.505 1185.18 411.417 1184.32 411.417 1182.83C411.417 1181.37 410.409 1180.77 408.369 1180.77H406.713V1185.18ZM406.713 1192.29H408.681C410.985 1192.29 412.209 1191.42 412.209 1189.62C412.209 1187.92 411.033 1187.18 408.681 1187.18H406.713V1192.29ZM421.392 1194.45V1178.61H424.128V1192.1H431.52V1194.45H421.392ZM437.798 1194.45V1178.61H447.806V1180.94H440.558V1185.04H446.702V1187.37H440.558V1192.1H448.046V1194.45H437.798Z" fill="#525252"/>
<rect x="217" y="1221.45" width="1142" height="345" rx="32" fill="#C7C7C7" fill-opacity="0.1"/>
<rect x="217" y="1221.45" width="1142" height="345" rx="32" stroke="#C7C7C7" stroke-width="2" stroke-linecap="round"/>
<rect x="829" y="1812.45" width="346" height="102" rx="16" fill="#C7C7C7" fill-opacity="0.1"/>
<rect x="829" y="1812.45" width="346" height="102" rx="16" stroke="#C7C7C7" stroke-width="2" stroke-linecap="round"/>
<path d="M219.112 256.225V240.385H224.392C227.824 240.385 230.344 241.585 230.344 245.257C230.344 248.761 227.776 250.369 224.392 250.369H221.872V256.225H219.112ZM221.872 248.161H224.152C226.504 248.161 227.608 247.201 227.608 245.257C227.608 243.265 226.456 242.593 224.152 242.593H221.872V248.161ZM240.991 256.513C237.367 256.513 234.823 253.345 234.823 248.233C234.823 243.097 237.367 240.097 240.991 240.097C244.639 240.097 247.159 243.121 247.159 248.233C247.159 253.345 244.639 256.513 240.991 256.513ZM240.991 254.113C243.007 254.113 244.327 251.809 244.327 248.233C244.327 244.657 243.007 242.497 240.991 242.497C238.975 242.497 237.679 244.657 237.679 248.233C237.679 251.809 238.975 254.113 240.991 254.113ZM257.829 256.513C255.621 256.513 253.533 255.673 251.997 254.185L253.605 252.289C254.781 253.369 256.341 254.113 257.877 254.113C259.821 254.113 260.805 253.297 260.805 252.025C260.805 250.705 259.749 250.297 258.189 249.673L256.053 248.737C254.373 248.089 252.669 246.841 252.669 244.537C252.669 242.017 254.925 240.097 258.117 240.097C260.061 240.097 261.861 240.841 263.157 242.113L261.717 243.865C260.661 243.001 259.581 242.497 258.117 242.497C256.485 242.497 255.477 243.193 255.477 244.393C255.477 245.641 256.749 246.073 258.165 246.649L260.229 247.537C262.221 248.353 263.637 249.505 263.637 251.809C263.637 254.377 261.501 256.513 257.829 256.513ZM273.18 256.225V242.713H268.26V240.385H280.908V242.713H275.964V256.225H273.18ZM292.322 256.513C288.338 256.513 285.338 253.585 285.338 248.353C285.338 243.145 288.362 240.097 292.442 240.097C294.53 240.097 295.946 241.081 296.906 242.065L295.37 243.793C294.65 243.025 293.81 242.497 292.442 242.497C289.946 242.497 288.194 244.681 288.194 248.257C288.194 251.881 289.706 254.113 292.49 254.113C293.33 254.113 294.146 253.849 294.626 253.393V249.937H291.914V247.657H297.122V254.641C296.09 255.649 294.338 256.513 292.322 256.513ZM302.993 256.225V240.385H308.225C311.465 240.385 313.985 241.537 313.985 245.065C313.985 247.465 312.737 248.929 310.841 249.577L314.609 256.225H311.489L308.081 250.009H305.753V256.225H302.993ZM305.753 247.777H307.937C310.097 247.777 311.249 246.865 311.249 245.065C311.249 243.217 310.097 242.593 307.937 242.593H305.753V247.777ZM320.264 256.225V240.385H330.272V242.713H323.024V246.817H329.168V249.145H323.024V253.873H330.512V256.225H320.264ZM341.782 256.513C339.574 256.513 337.486 255.673 335.95 254.185L337.558 252.289C338.734 253.369 340.294 254.113 341.83 254.113C343.774 254.113 344.758 253.297 344.758 252.025C344.758 250.705 343.702 250.297 342.142 249.673L340.006 248.737C338.326 248.089 336.622 246.841 336.622 244.537C336.622 242.017 338.878 240.097 342.07 240.097C344.014 240.097 345.814 240.841 347.11 242.113L345.67 243.865C344.614 243.001 343.534 242.497 342.07 242.497C340.438 242.497 339.43 243.193 339.43 244.393C339.43 245.641 340.702 246.073 342.118 246.649L344.182 247.537C346.174 248.353 347.59 249.505 347.59 251.809C347.59 254.377 345.454 256.513 341.782 256.513ZM373.924 256.225V242.713H369.004V240.385H381.652V242.713H376.708V256.225H373.924ZM385.41 256.225L390.498 240.385H393.738L398.826 256.225H395.898L394.674 251.905H389.466L388.218 256.225H385.41ZM390.066 249.721H394.074L393.522 247.753C393.042 246.073 392.562 244.297 392.106 242.545H392.01C391.578 244.297 391.098 246.073 390.618 247.753L390.066 249.721ZM403.953 256.225V240.385H408.561C411.777 240.385 414.129 241.369 414.129 244.273C414.129 245.761 413.241 247.225 411.393 247.729V247.825C413.673 248.209 414.921 249.409 414.921 251.569C414.921 254.737 412.401 256.225 408.969 256.225H403.953ZM406.713 246.961H408.297C410.505 246.961 411.417 246.097 411.417 244.609C411.417 243.145 410.409 242.545 408.369 242.545H406.713V246.961ZM406.713 254.065H408.681C410.985 254.065 412.209 253.201 412.209 251.401C412.209 249.697 411.033 248.953 408.681 248.953H406.713V254.065ZM421.392 256.225V240.385H424.128V253.873H431.52V256.225H421.392ZM437.798 256.225V240.385H447.806V242.713H440.558V246.817H446.702V249.145H440.558V253.873H448.046V256.225H437.798Z" fill="#525252"/>
<rect x="217" y="283.225" width="1142" height="356" rx="32" fill="#C7C7C7" fill-opacity="0.1"/>
<rect x="217" y="283.225" width="1142" height="356" rx="32" stroke="#C7C7C7" stroke-width="2" stroke-linecap="round"/>
<rect x="249.738" y="360.225" width="710" height="64" rx="16" fill="#C7C7C7" fill-opacity="0.1"/>
<rect x="249.738" y="360.225" width="710" height="64" rx="16" stroke="#C7C7C7" stroke-width="2" stroke-linecap="round"/>
<rect x="249.738" y="1298.45" width="710" height="64" rx="16" fill="#C7C7C7" fill-opacity="0.1"/>
<rect x="249.738" y="1298.45" width="710" height="64" rx="16" stroke="#C7C7C7" stroke-width="2" stroke-linecap="round"/>
<rect x="1027" y="360.225" width="300" height="64" rx="16" fill="#20AC6D" fill-opacity="0.15"/>
<rect x="1027" y="360.225" width="300" height="64" rx="16" stroke="#20AC6D" stroke-width="2" stroke-linecap="round"/>
<rect x="1027" y="1298.45" width="300" height="64" rx="16" fill="#20AC6D" fill-opacity="0.15"/>
<rect x="1027" y="1298.45" width="300" height="64" rx="16" stroke="#20AC6D" stroke-width="2" stroke-linecap="round"/>
<rect x="1027" y="443.225" width="300" height="64" rx="16" fill="#20AC6D" fill-opacity="0.15"/>
<rect x="1027" y="443.225" width="300" height="64" rx="16" stroke="#20AC6D" stroke-width="2" stroke-linecap="round"/>
<rect x="1027" y="1381.45" width="300" height="64" rx="16" fill="#20AC6D" fill-opacity="0.15"/>
<rect x="1027" y="1381.45" width="300" height="64" rx="16" stroke="#20AC6D" stroke-width="2" stroke-linecap="round"/>
<rect x="1027" y="1463.45" width="300" height="64" rx="16" stroke="#C7C7C7" stroke-width="2" stroke-linecap="round" stroke-dasharray="8 16"/>
<rect x="1084" y="1665.45" width="300" height="64" rx="16" fill="#20AC6D" fill-opacity="0.15"/>
<rect x="1084" y="1665.45" width="300" height="64" rx="16" stroke="#20AC6D" stroke-width="2" stroke-linecap="round"/>
<rect x="250" y="443.225" width="710" height="64" rx="16" fill="#C7C7C7" fill-opacity="0.1"/>
<rect x="250" y="443.225" width="710" height="64" rx="16" stroke="#C7C7C7" stroke-width="2" stroke-linecap="round"/>
<rect x="250" y="1381.45" width="710" height="64" rx="16" fill="#C7C7C7" fill-opacity="0.1"/>
<rect x="250" y="1381.45" width="710" height="64" rx="16" stroke="#C7C7C7" stroke-width="2" stroke-linecap="round"/>
<rect x="250" y="531.777" width="710" height="64" rx="16" stroke="#C7C7C7" stroke-width="2" stroke-linecap="round" stroke-dasharray="8 16"/>
<rect x="456" y="724.225" width="710" height="65" rx="16" fill="#C7C7C7" fill-opacity="0.1"/>
<rect x="456" y="724.225" width="710" height="65" rx="16" stroke="#525252" stroke-width="2" stroke-linecap="round"/>
<rect x="250" y="1462.45" width="710" height="65" rx="16" fill="#C7C7C7" fill-opacity="0.1"/>
<rect x="250" y="1462.45" width="710" height="65" rx="16" stroke="#525252" stroke-width="2" stroke-linecap="round"/>
<path d="M555.381 570.5C555.781 570.119 556.414 570.135 556.795 570.536L562.996 577.058C563.376 577.459 563.36 578.092 562.96 578.472C562.56 578.853 561.927 578.837 561.546 578.436L556.034 572.638L550.236 578.15C549.836 578.531 549.203 578.515 548.822 578.115C548.442 577.714 548.458 577.082 548.858 576.701L555.381 570.5ZM593.218 700.848C579.782 684.016 553.466 634.648 555.07 571.199L557.069 571.25C555.479 634.169 581.6 683.087 594.782 699.601L593.218 700.848Z" fill="#8F8F8F"/>
<path d="M801.31 1862.1C801.712 1861.72 801.731 1861.09 801.352 1860.69L795.184 1854.14C794.806 1853.73 794.173 1853.71 793.771 1854.09C793.368 1854.47 793.349 1855.1 793.728 1855.51L799.211 1861.33L793.385 1866.82C792.983 1867.19 792.964 1867.83 793.342 1868.23C793.721 1868.63 794.354 1868.65 794.756 1868.27L801.31 1862.1ZM367.639 1542.01C370.803 1630.11 401.829 1707.92 470.767 1764.85C539.677 1821.76 646.344 1857.7 800.594 1862.37L800.655 1860.38C646.653 1855.71 540.483 1819.83 472.041 1763.31C403.627 1706.81 372.786 1629.59 369.638 1541.93L367.639 1542.01Z" fill="#FD880B"/>
<path d="M1254.08 1747.07C1253.69 1746.68 1253.05 1746.68 1252.66 1747.07L1246.3 1753.43C1245.91 1753.82 1245.91 1754.46 1246.3 1754.85C1246.69 1755.24 1247.32 1755.24 1247.71 1754.85L1253.37 1749.19L1259.03 1754.85C1259.42 1755.24 1260.05 1755.24 1260.44 1754.85C1260.83 1754.46 1260.83 1753.82 1260.44 1753.43L1254.08 1747.07ZM1203.93 1822.34C1231.13 1808.23 1254.37 1782.95 1254.37 1747.78L1252.37 1747.78C1252.37 1781.94 1229.81 1806.66 1203.01 1820.56L1203.93 1822.34Z" fill="#8F8F8F"/>
<path d="M1171.24 1505.99C1170.72 1506.2 1170.48 1506.78 1170.69 1507.3L1174.1 1515.63C1174.3 1516.14 1174.89 1516.38 1175.4 1516.17C1175.91 1515.96 1176.16 1515.38 1175.95 1514.87L1172.92 1507.46L1180.32 1504.44C1180.83 1504.23 1181.08 1503.64 1180.87 1503.13C1180.66 1502.62 1180.08 1502.38 1179.57 1502.59L1171.24 1505.99ZM1256.87 1647.39C1255.76 1629.28 1250.19 1600.53 1237.1 1573.03C1224.02 1545.52 1203.36 1519.15 1172 1506L1171.23 1507.84C1201.97 1520.74 1222.33 1546.64 1235.3 1573.89C1248.26 1601.13 1253.77 1629.63 1254.87 1647.51L1256.87 1647.39Z" fill="#8F8F8F"/>
<path d="M255.808 329.672V316.16H250.888V313.832H263.536V316.16H258.592V329.672H255.808ZM269.311 329.672V313.832H279.319V316.16H272.071V320.264H278.215V322.592H272.071V327.32H279.559V329.672H269.311ZM284.445 329.672L289.077 321.512L284.733 313.832H287.829L289.677 317.36C290.061 318.08 290.421 318.824 290.925 319.784H291.021C291.429 318.824 291.741 318.08 292.101 317.36L293.877 313.832H296.829L292.485 321.632L297.117 329.672H294.045L292.005 325.904C291.573 325.112 291.165 324.296 290.685 323.336H290.589C290.181 324.296 289.797 325.088 289.389 325.88L287.397 329.672H284.445ZM306.18 329.672V316.16H301.26V313.832H313.908V316.16H308.964V329.672H306.18ZM342.569 329.96C338.561 329.96 335.417 327.032 335.417 321.8C335.417 316.616 338.513 313.544 342.665 313.544C344.609 313.544 346.145 314.48 347.129 315.512L345.593 317.24C344.801 316.448 343.889 315.944 342.665 315.944C340.049 315.944 338.249 318.128 338.249 321.704C338.249 325.328 340.049 327.56 342.737 327.56C344.009 327.56 344.993 326.96 345.881 325.976L347.441 327.656C346.169 329.144 344.561 329.96 342.569 329.96ZM357.944 329.96C354.32 329.96 351.776 326.792 351.776 321.68C351.776 316.544 354.32 313.544 357.944 313.544C361.592 313.544 364.112 316.568 364.112 321.68C364.112 326.792 361.592 329.96 357.944 329.96ZM357.944 327.56C359.96 327.56 361.28 325.256 361.28 321.68C361.28 318.104 359.96 315.944 357.944 315.944C355.928 315.944 354.632 318.104 354.632 321.68C354.632 325.256 355.928 327.56 357.944 327.56ZM370.438 329.672V313.832H373.174V327.32H380.566V329.672H370.438ZM391.573 329.96C388.117 329.96 386.053 327.968 386.053 323.624V313.832H388.813V323.816C388.813 326.432 389.869 327.56 391.573 327.56C393.253 327.56 394.333 326.432 394.333 323.816V313.832H397.021V323.624C397.021 327.968 395.005 329.96 391.573 329.96ZM402.82 329.672V313.832H405.772L407.956 320.024L408.724 322.4H408.82L409.54 320.024L411.724 313.832H414.676V329.672H412.324V322.544C412.324 321.032 412.54 318.056 412.684 316.568H412.588L411.388 320.432L409.396 325.4H408.052L406.036 320.432L404.836 316.568H404.764C404.884 318.056 405.124 321.032 405.124 322.544V329.672H402.82ZM420.55 329.672V313.832H423.358L427.582 322.808L429.046 326.168H429.118C428.998 324.536 428.734 322.544 428.734 320.792V313.832H431.374V329.672H428.542L424.342 320.672L422.878 317.336H422.806C422.926 319.016 423.19 320.912 423.19 322.664V329.672H420.55Z" fill="#525252"/>
<path d="M255.808 1267.89V1254.38H250.888V1252.05H263.536V1254.38H258.592V1267.89H255.808ZM269.311 1267.89V1252.05H279.319V1254.38H272.071V1258.49H278.215V1260.81H272.071V1265.54H279.559V1267.89H269.311ZM284.445 1267.89L289.077 1259.73L284.733 1252.05H287.829L289.677 1255.58C290.061 1256.3 290.421 1257.05 290.925 1258.01H291.021C291.429 1257.05 291.741 1256.3 292.101 1255.58L293.877 1252.05H296.829L292.485 1259.85L297.117 1267.89H294.045L292.005 1264.13C291.573 1263.33 291.165 1262.52 290.685 1261.56H290.589C290.181 1262.52 289.797 1263.31 289.389 1264.1L287.397 1267.89H284.445ZM306.18 1267.89V1254.38H301.26V1252.05H313.908V1254.38H308.964V1267.89H306.18ZM342.569 1268.18C338.561 1268.18 335.417 1265.25 335.417 1260.02C335.417 1254.84 338.513 1251.77 342.665 1251.77C344.609 1251.77 346.145 1252.7 347.129 1253.73L345.593 1255.46C344.801 1254.67 343.889 1254.17 342.665 1254.17C340.049 1254.17 338.249 1256.35 338.249 1259.93C338.249 1263.55 340.049 1265.78 342.737 1265.78C344.009 1265.78 344.993 1265.18 345.881 1264.2L347.441 1265.88C346.169 1267.37 344.561 1268.18 342.569 1268.18ZM357.944 1268.18C354.32 1268.18 351.776 1265.01 351.776 1259.9C351.776 1254.77 354.32 1251.77 357.944 1251.77C361.592 1251.77 364.112 1254.79 364.112 1259.9C364.112 1265.01 361.592 1268.18 357.944 1268.18ZM357.944 1265.78C359.96 1265.78 361.28 1263.48 361.28 1259.9C361.28 1256.33 359.96 1254.17 357.944 1254.17C355.928 1254.17 354.632 1256.33 354.632 1259.9C354.632 1263.48 355.928 1265.78 357.944 1265.78ZM370.438 1267.89V1252.05H373.174V1265.54H380.566V1267.89H370.438ZM391.573 1268.18C388.117 1268.18 386.053 1266.19 386.053 1261.85V1252.05H388.813V1262.04C388.813 1264.65 389.869 1265.78 391.573 1265.78C393.253 1265.78 394.333 1264.65 394.333 1262.04V1252.05H397.021V1261.85C397.021 1266.19 395.005 1268.18 391.573 1268.18ZM402.82 1267.89V1252.05H405.772L407.956 1258.25L408.724 1260.62H408.82L409.54 1258.25L411.724 1252.05H414.676V1267.89H412.324V1260.77C412.324 1259.25 412.54 1256.28 412.684 1254.79H412.588L411.388 1258.65L409.396 1263.62H408.052L406.036 1258.65L404.836 1254.79H404.764C404.884 1256.28 405.124 1259.25 405.124 1260.77V1267.89H402.82ZM420.55 1267.89V1252.05H423.358L427.582 1261.03L429.046 1264.39H429.118C428.998 1262.76 428.734 1260.77 428.734 1259.01V1252.05H431.374V1267.89H428.542L424.342 1258.89L422.878 1255.56H422.806C422.926 1257.24 423.19 1259.13 423.19 1260.89V1267.89H420.55Z" fill="#525252"/>
<path d="M1032.57 329.672L1027.7 313.832H1030.62L1032.86 321.824C1033.36 323.624 1033.7 325.16 1034.22 326.984H1034.32C1034.85 325.16 1035.21 323.624 1035.71 321.824L1037.9 313.832H1040.7L1035.86 329.672H1032.57ZM1046.31 329.672V313.832H1056.32V316.16H1049.07V320.264H1055.21V322.592H1049.07V327.32H1056.56V329.672H1046.31ZM1069.2 329.96C1065.19 329.96 1062.05 327.032 1062.05 321.8C1062.05 316.616 1065.14 313.544 1069.29 313.544C1071.24 313.544 1072.77 314.48 1073.76 315.512L1072.22 317.24C1071.43 316.448 1070.52 315.944 1069.29 315.944C1066.68 315.944 1064.88 318.128 1064.88 321.704C1064.88 325.328 1066.68 327.56 1069.37 327.56C1070.64 327.56 1071.62 326.96 1072.51 325.976L1074.07 327.656C1072.8 329.144 1071.19 329.96 1069.2 329.96ZM1083.18 329.672V316.16H1078.26V313.832H1090.91V316.16H1085.96V329.672H1083.18ZM1101.36 329.96C1097.74 329.96 1095.19 326.792 1095.19 321.68C1095.19 316.544 1097.74 313.544 1101.36 313.544C1105.01 313.544 1107.53 316.568 1107.53 321.68C1107.53 326.792 1105.01 329.96 1101.36 329.96ZM1101.36 327.56C1103.38 327.56 1104.7 325.256 1104.7 321.68C1104.7 318.104 1103.38 315.944 1101.36 315.944C1099.35 315.944 1098.05 318.104 1098.05 321.68C1098.05 325.256 1099.35 327.56 1101.36 327.56ZM1112.99 329.672V313.832H1118.23C1121.47 313.832 1123.99 314.984 1123.99 318.512C1123.99 320.912 1122.74 322.376 1120.84 323.024L1124.61 329.672H1121.49L1118.08 323.456H1115.75V329.672H1112.99ZM1115.75 321.224H1117.94C1120.1 321.224 1121.25 320.312 1121.25 318.512C1121.25 316.664 1120.1 316.04 1117.94 316.04H1115.75V321.224ZM1153.15 329.96C1149.14 329.96 1146 327.032 1146 321.8C1146 316.616 1149.09 313.544 1153.25 313.544C1155.19 313.544 1156.73 314.48 1157.71 315.512L1156.17 317.24C1155.38 316.448 1154.47 315.944 1153.25 315.944C1150.63 315.944 1148.83 318.128 1148.83 321.704C1148.83 325.328 1150.63 327.56 1153.32 327.56C1154.59 327.56 1155.57 326.96 1156.46 325.976L1158.02 327.656C1156.75 329.144 1155.14 329.96 1153.15 329.96ZM1168.52 329.96C1164.9 329.96 1162.36 326.792 1162.36 321.68C1162.36 316.544 1164.9 313.544 1168.52 313.544C1172.17 313.544 1174.69 316.568 1174.69 321.68C1174.69 326.792 1172.17 329.96 1168.52 329.96ZM1168.52 327.56C1170.54 327.56 1171.86 325.256 1171.86 321.68C1171.86 318.104 1170.54 315.944 1168.52 315.944C1166.51 315.944 1165.21 318.104 1165.21 321.68C1165.21 325.256 1166.51 327.56 1168.52 327.56ZM1181.02 329.672V313.832H1183.76V327.32H1191.15V329.672H1181.02ZM1202.15 329.96C1198.7 329.96 1196.63 327.968 1196.63 323.624V313.832H1199.39V323.816C1199.39 326.432 1200.45 327.56 1202.15 327.56C1203.83 327.56 1204.91 326.432 1204.91 323.816V313.832H1207.6V323.624C1207.6 327.968 1205.59 329.96 1202.15 329.96ZM1213.4 329.672V313.832H1216.35L1218.54 320.024L1219.3 322.4H1219.4L1220.12 320.024L1222.3 313.832H1225.26V329.672H1222.9V322.544C1222.9 321.032 1223.12 318.056 1223.26 316.568H1223.17L1221.97 320.432L1219.98 325.4H1218.63L1216.62 320.432L1215.42 316.568H1215.34C1215.46 318.056 1215.7 321.032 1215.7 322.544V329.672H1213.4ZM1231.13 329.672V313.832H1233.94L1238.16 322.808L1239.63 326.168H1239.7C1239.58 324.536 1239.32 322.544 1239.32 320.792V313.832H1241.96V329.672H1239.12L1234.92 320.672L1233.46 317.336H1233.39C1233.51 319.016 1233.77 320.912 1233.77 322.664V329.672H1231.13Z" fill="#525252"/>
<path d="M1032.57 1267.89L1027.7 1252.05H1030.62L1032.86 1260.05C1033.36 1261.85 1033.7 1263.38 1034.22 1265.21H1034.32C1034.85 1263.38 1035.21 1261.85 1035.71 1260.05L1037.9 1252.05H1040.7L1035.86 1267.89H1032.57ZM1046.31 1267.89V1252.05H1056.32V1254.38H1049.07V1258.49H1055.21V1260.81H1049.07V1265.54H1056.56V1267.89H1046.31ZM1069.2 1268.18C1065.19 1268.18 1062.05 1265.25 1062.05 1260.02C1062.05 1254.84 1065.14 1251.77 1069.29 1251.77C1071.24 1251.77 1072.77 1252.7 1073.76 1253.73L1072.22 1255.46C1071.43 1254.67 1070.52 1254.17 1069.29 1254.17C1066.68 1254.17 1064.88 1256.35 1064.88 1259.93C1064.88 1263.55 1066.68 1265.78 1069.37 1265.78C1070.64 1265.78 1071.62 1265.18 1072.51 1264.2L1074.07 1265.88C1072.8 1267.37 1071.19 1268.18 1069.2 1268.18ZM1083.18 1267.89V1254.38H1078.26V1252.05H1090.91V1254.38H1085.96V1267.89H1083.18ZM1101.36 1268.18C1097.74 1268.18 1095.19 1265.01 1095.19 1259.9C1095.19 1254.77 1097.74 1251.77 1101.36 1251.77C1105.01 1251.77 1107.53 1254.79 1107.53 1259.9C1107.53 1265.01 1105.01 1268.18 1101.36 1268.18ZM1101.36 1265.78C1103.38 1265.78 1104.7 1263.48 1104.7 1259.9C1104.7 1256.33 1103.38 1254.17 1101.36 1254.17C1099.35 1254.17 1098.05 1256.33 1098.05 1259.9C1098.05 1263.48 1099.35 1265.78 1101.36 1265.78ZM1112.99 1267.89V1252.05H1118.23C1121.47 1252.05 1123.99 1253.21 1123.99 1256.73C1123.99 1259.13 1122.74 1260.6 1120.84 1261.25L1124.61 1267.89H1121.49L1118.08 1261.68H1115.75V1267.89H1112.99ZM1115.75 1259.45H1117.94C1120.1 1259.45 1121.25 1258.53 1121.25 1256.73C1121.25 1254.89 1120.1 1254.26 1117.94 1254.26H1115.75V1259.45ZM1153.15 1268.18C1149.14 1268.18 1146 1265.25 1146 1260.02C1146 1254.84 1149.09 1251.77 1153.25 1251.77C1155.19 1251.77 1156.73 1252.7 1157.71 1253.73L1156.17 1255.46C1155.38 1254.67 1154.47 1254.17 1153.25 1254.17C1150.63 1254.17 1148.83 1256.35 1148.83 1259.93C1148.83 1263.55 1150.63 1265.78 1153.32 1265.78C1154.59 1265.78 1155.57 1265.18 1156.46 1264.2L1158.02 1265.88C1156.75 1267.37 1155.14 1268.18 1153.15 1268.18ZM1168.52 1268.18C1164.9 1268.18 1162.36 1265.01 1162.36 1259.9C1162.36 1254.77 1164.9 1251.77 1168.52 1251.77C1172.17 1251.77 1174.69 1254.79 1174.69 1259.9C1174.69 1265.01 1172.17 1268.18 1168.52 1268.18ZM1168.52 1265.78C1170.54 1265.78 1171.86 1263.48 1171.86 1259.9C1171.86 1256.33 1170.54 1254.17 1168.52 1254.17C1166.51 1254.17 1165.21 1256.33 1165.21 1259.9C1165.21 1263.48 1166.51 1265.78 1168.52 1265.78ZM1181.02 1267.89V1252.05H1183.76V1265.54H1191.15V1267.89H1181.02ZM1202.15 1268.18C1198.7 1268.18 1196.63 1266.19 1196.63 1261.85V1252.05H1199.39V1262.04C1199.39 1264.65 1200.45 1265.78 1202.15 1265.78C1203.83 1265.78 1204.91 1264.65 1204.91 1262.04V1252.05H1207.6V1261.85C1207.6 1266.19 1205.59 1268.18 1202.15 1268.18ZM1213.4 1267.89V1252.05H1216.35L1218.54 1258.25L1219.3 1260.62H1219.4L1220.12 1258.25L1222.3 1252.05H1225.26V1267.89H1222.9V1260.77C1222.9 1259.25 1223.12 1256.28 1223.26 1254.79H1223.17L1221.97 1258.65L1219.98 1263.62H1218.63L1216.62 1258.65L1215.42 1254.79H1215.34C1215.46 1256.28 1215.7 1259.25 1215.7 1260.77V1267.89H1213.4ZM1231.13 1267.89V1252.05H1233.94L1238.16 1261.03L1239.63 1264.39H1239.7C1239.58 1262.76 1239.32 1260.77 1239.32 1259.01V1252.05H1241.96V1267.89H1239.12L1234.92 1258.89L1233.46 1255.56H1233.39C1233.51 1257.24 1233.77 1259.13 1233.77 1260.89V1267.89H1231.13Z" fill="#525252"/>
<path d="M986 320.672L986 612.225" stroke="#C7C7C7" stroke-width="2"/>
<path d="M986 1258.89L986 1550.45" stroke="#C7C7C7" stroke-width="2"/>
<rect x="250.988" y="1698.7" width="466.5" height="101.5" rx="50.75" fill="#FFEDD5"/>
<rect x="250.988" y="1698.7" width="466.5" height="101.5" rx="50.75" stroke="#FD880B" stroke-width="2.5"/>
<rect x="304.738" y="1749.45" width="76" height="37.8066" rx="11" fill="#8F8F8F"/>
<path d="M361.913 1740.45V1724.61H365.969C370.601 1724.61 373.385 1727.22 373.385 1732.46C373.385 1737.69 370.601 1740.45 366.113 1740.45H361.913ZM364.697 1738.19H365.801C368.825 1738.19 370.529 1736.34 370.529 1732.46C370.529 1728.57 368.825 1726.84 365.801 1726.84H364.697V1738.19ZM376.208 1740.45L381.296 1724.61H384.536L389.624 1740.45H386.696L385.472 1736.13H380.264L379.016 1740.45H376.208ZM380.864 1733.94H384.872L384.32 1731.98C383.84 1730.3 383.36 1728.52 382.904 1726.77H382.808C382.376 1728.52 381.896 1730.3 381.416 1731.98L380.864 1733.94ZM397.103 1740.45V1726.94H392.183V1724.61H404.831V1726.94H399.887V1740.45H397.103ZM407.389 1740.45L412.477 1724.61H415.717L420.805 1740.45H417.877L416.653 1736.13H411.445L410.197 1740.45H407.389ZM412.045 1733.94H416.053L415.501 1731.98C415.021 1730.3 414.541 1728.52 414.085 1726.77H413.989C413.557 1728.52 413.077 1730.3 412.597 1731.98L412.045 1733.94ZM424.732 1740.45V1724.61H429.34C432.556 1724.61 434.908 1725.59 434.908 1728.5C434.908 1729.98 434.02 1731.45 432.172 1731.95V1732.05C434.452 1732.43 435.7 1733.63 435.7 1735.79C435.7 1738.96 433.18 1740.45 429.748 1740.45H424.732ZM427.492 1731.18H429.076C431.284 1731.18 432.196 1730.32 432.196 1728.83C432.196 1727.37 431.188 1726.77 429.148 1726.77H427.492V1731.18ZM427.492 1738.29H429.46C431.764 1738.29 432.988 1737.42 432.988 1735.62C432.988 1733.92 431.812 1733.18 429.46 1733.18H427.492V1738.29ZM438.57 1740.45L443.658 1724.61H446.898L451.986 1740.45H449.058L447.834 1736.13H442.626L441.378 1740.45H438.57ZM443.226 1733.94H447.234L446.682 1731.98C446.202 1730.3 445.722 1728.52 445.266 1726.77H445.17C444.738 1728.52 444.258 1730.3 443.778 1731.98L443.226 1733.94ZM460.905 1740.74C458.697 1740.74 456.609 1739.9 455.073 1738.41L456.681 1736.51C457.857 1737.59 459.417 1738.34 460.953 1738.34C462.897 1738.34 463.881 1737.52 463.881 1736.25C463.881 1734.93 462.825 1734.52 461.265 1733.9L459.129 1732.96C457.449 1732.31 455.745 1731.06 455.745 1728.76C455.745 1726.24 458.001 1724.32 461.193 1724.32C463.137 1724.32 464.937 1725.06 466.233 1726.34L464.793 1728.09C463.737 1727.22 462.657 1726.72 461.193 1726.72C459.561 1726.72 458.553 1727.42 458.553 1728.62C458.553 1729.86 459.825 1730.3 461.241 1730.87L463.305 1731.76C465.297 1732.58 466.713 1733.73 466.713 1736.03C466.713 1738.6 464.577 1740.74 460.905 1740.74ZM471.768 1740.45V1724.61H481.776V1726.94H474.528V1731.04H480.672V1733.37H474.528V1738.1H482.016V1740.45H471.768ZM502.853 1740.45L500.597 1724.58H503.405L504.293 1733.8C504.341 1735.14 504.437 1736.46 504.509 1737.78H504.581C504.869 1736.46 505.205 1735.12 505.493 1733.8L506.861 1728.66H508.637L509.981 1733.8C510.245 1735.1 510.605 1736.44 510.893 1737.78H510.989L511.205 1733.8L512.045 1724.58H514.661L512.525 1740.45H509.573L508.181 1734.59C507.989 1733.63 507.797 1732.6 507.677 1731.66H507.605C507.461 1732.6 507.293 1733.63 507.077 1734.59L505.757 1740.45H502.853ZM518.54 1740.45V1724.61H528.548V1726.94H521.3V1731.04H527.444V1733.37H521.3V1738.1H528.788V1740.45H518.54ZM533.866 1740.45V1724.61H538.474C541.69 1724.61 544.042 1725.59 544.042 1728.5C544.042 1729.98 543.154 1731.45 541.306 1731.95V1732.05C543.586 1732.43 544.834 1733.63 544.834 1735.79C544.834 1738.96 542.314 1740.45 538.882 1740.45H533.866ZM536.626 1731.18H538.21C540.418 1731.18 541.33 1730.32 541.33 1728.83C541.33 1727.37 540.322 1726.77 538.282 1726.77H536.626V1731.18ZM536.626 1738.29H538.594C540.898 1738.29 542.122 1737.42 542.122 1735.62C542.122 1733.92 540.946 1733.18 538.594 1733.18H536.626V1738.29ZM548.929 1740.45V1724.61H551.689V1730.99H557.113V1724.61H559.897V1740.45H557.113V1733.39H551.689V1740.45H548.929ZM569.991 1740.74C566.367 1740.74 563.823 1737.57 563.823 1732.46C563.823 1727.32 566.367 1724.32 569.991 1724.32C573.639 1724.32 576.159 1727.34 576.159 1732.46C576.159 1737.57 573.639 1740.74 569.991 1740.74ZM569.991 1738.34C572.007 1738.34 573.327 1736.03 573.327 1732.46C573.327 1728.88 572.007 1726.72 569.991 1726.72C567.975 1726.72 566.679 1728.88 566.679 1732.46C566.679 1736.03 567.975 1738.34 569.991 1738.34ZM585.582 1740.74C581.958 1740.74 579.414 1737.57 579.414 1732.46C579.414 1727.32 581.958 1724.32 585.582 1724.32C589.23 1724.32 591.75 1727.34 591.75 1732.46C591.75 1737.57 589.23 1740.74 585.582 1740.74ZM585.582 1738.34C587.598 1738.34 588.918 1736.03 588.918 1732.46C588.918 1728.88 587.598 1726.72 585.582 1726.72C583.566 1726.72 582.27 1728.88 582.27 1732.46C582.27 1736.03 583.566 1738.34 585.582 1738.34ZM595.965 1740.45V1724.61H598.773V1731.83H598.845L604.461 1724.61H607.533L602.709 1730.78L608.061 1740.45H604.989L601.053 1732.96L598.773 1735.79V1740.45H595.965Z" fill="#FD880B"/>
<path d="M315.032 1776.45V1760.61H320.312C323.744 1760.61 326.264 1761.81 326.264 1765.48C326.264 1768.98 323.696 1770.59 320.312 1770.59H317.792V1776.45H315.032ZM317.792 1768.38H320.072C322.424 1768.38 323.528 1767.42 323.528 1765.48C323.528 1763.49 322.376 1762.82 320.072 1762.82H317.792V1768.38ZM335.71 1776.74C332.086 1776.74 329.542 1773.57 329.542 1768.46C329.542 1763.32 332.086 1760.32 335.71 1760.32C339.358 1760.32 341.878 1763.34 341.878 1768.46C341.878 1773.57 339.358 1776.74 335.71 1776.74ZM335.71 1774.34C337.726 1774.34 339.046 1772.03 339.046 1768.46C339.046 1764.88 337.726 1762.72 335.71 1762.72C333.694 1762.72 332.398 1764.88 332.398 1768.46C332.398 1772.03 333.694 1774.34 335.71 1774.34ZM351.349 1776.74C349.141 1776.74 347.053 1775.9 345.517 1774.41L347.125 1772.51C348.301 1773.59 349.861 1774.34 351.397 1774.34C353.341 1774.34 354.325 1773.52 354.325 1772.25C354.325 1770.93 353.269 1770.52 351.709 1769.9L349.573 1768.96C347.893 1768.31 346.189 1767.06 346.189 1764.76C346.189 1762.24 348.445 1760.32 351.637 1760.32C353.581 1760.32 355.381 1761.06 356.677 1762.34L355.237 1764.09C354.181 1763.22 353.101 1762.72 351.637 1762.72C350.005 1762.72 348.997 1763.42 348.997 1764.62C348.997 1765.86 350.269 1766.3 351.685 1766.87L353.749 1767.76C355.741 1768.58 357.157 1769.73 357.157 1772.03C357.157 1774.6 355.021 1776.74 351.349 1776.74ZM365.499 1776.45V1762.94H360.579V1760.61H373.227V1762.94H368.283V1776.45H365.499Z" fill="#F8F9FA"/>
<path d="M391.761 1777.34L402.033 1759.41H404.409L394.113 1777.34H391.761ZM415.079 1776.74C411.071 1776.74 407.927 1773.81 407.927 1768.58C407.927 1763.39 411.023 1760.32 415.175 1760.32C417.119 1760.32 418.655 1761.26 419.639 1762.29L418.103 1764.02C417.311 1763.22 416.399 1762.72 415.175 1762.72C412.559 1762.72 410.759 1764.9 410.759 1768.48C410.759 1772.1 412.559 1774.34 415.247 1774.34C416.519 1774.34 417.503 1773.74 418.391 1772.75L419.951 1774.43C418.679 1775.92 417.071 1776.74 415.079 1776.74ZM429.254 1776.74C425.63 1776.74 423.086 1773.57 423.086 1768.46C423.086 1763.32 425.63 1760.32 429.254 1760.32C432.902 1760.32 435.422 1763.34 435.422 1768.46C435.422 1773.57 432.902 1776.74 429.254 1776.74ZM429.254 1774.34C431.27 1774.34 432.59 1772.03 432.59 1768.46C432.59 1764.88 431.27 1762.72 429.254 1762.72C427.238 1762.72 425.942 1764.88 425.942 1768.46C425.942 1772.03 427.238 1774.34 429.254 1774.34ZM439.445 1776.45V1760.61H442.253L446.477 1769.58L447.941 1772.94H448.013C447.893 1771.31 447.629 1769.32 447.629 1767.57V1760.61H450.269V1776.45H447.437L443.237 1767.45L441.773 1764.11H441.701C441.821 1765.79 442.085 1767.69 442.085 1769.44V1776.45H439.445ZM458.803 1776.45L453.931 1760.61H456.859L459.091 1768.6C459.595 1770.4 459.931 1771.94 460.459 1773.76H460.555C461.083 1771.94 461.443 1770.4 461.947 1768.6L464.131 1760.61H466.939L462.091 1776.45H458.803ZM471.346 1776.45V1760.61H481.354V1762.94H474.106V1767.04H480.25V1769.37H474.106V1774.1H481.594V1776.45H471.346ZM486.456 1776.45V1760.61H491.688C494.928 1760.61 497.448 1761.76 497.448 1765.29C497.448 1767.69 496.2 1769.15 494.304 1769.8L498.072 1776.45H494.952L491.544 1770.23H489.216V1776.45H486.456ZM489.216 1768H491.4C493.56 1768 494.712 1767.09 494.712 1765.29C494.712 1763.44 493.56 1762.82 491.4 1762.82H489.216V1768ZM505.815 1776.45V1762.94H500.895V1760.61H513.543V1762.94H508.599V1776.45H505.815ZM517.47 1769.51V1767.52H528.15V1769.51H517.47ZM533.708 1776.45V1760.61H543.716V1762.94H536.468V1767.04H542.612V1769.37H536.468V1774.1H543.956V1776.45H533.708ZM548.483 1776.45V1760.61H551.435L553.619 1766.8L554.387 1769.18H554.483L555.203 1766.8L557.387 1760.61H560.339V1776.45H557.987V1769.32C557.987 1767.81 558.203 1764.83 558.347 1763.34H558.251L557.051 1767.21L555.059 1772.18H553.715L551.699 1767.21L550.499 1763.34H550.427C550.547 1764.83 550.787 1767.81 550.787 1769.32V1776.45H548.483ZM565.469 1776.45V1760.61H570.077C573.293 1760.61 575.645 1761.59 575.645 1764.5C575.645 1765.98 574.757 1767.45 572.909 1767.95V1768.05C575.189 1768.43 576.437 1769.63 576.437 1771.79C576.437 1774.96 573.917 1776.45 570.485 1776.45H565.469ZM568.229 1767.18H569.813C572.021 1767.18 572.933 1766.32 572.933 1764.83C572.933 1763.37 571.925 1762.77 569.885 1762.77H568.229V1767.18ZM568.229 1774.29H570.197C572.501 1774.29 573.725 1773.42 573.725 1771.62C573.725 1769.92 572.549 1769.18 570.197 1769.18H568.229V1774.29ZM581.324 1776.45V1760.61H591.332V1762.94H584.084V1767.04H590.228V1769.37H584.084V1774.1H591.572V1776.45H581.324ZM596.195 1776.45V1760.61H600.251C604.883 1760.61 607.667 1763.22 607.667 1768.46C607.667 1773.69 604.883 1776.45 600.395 1776.45H596.195ZM598.979 1774.19H600.083C603.107 1774.19 604.811 1772.34 604.811 1768.46C604.811 1764.57 603.107 1762.84 600.083 1762.84H598.979V1774.19ZM611.785 1776.45V1760.61H615.841C620.473 1760.61 623.257 1763.22 623.257 1768.46C623.257 1773.69 620.473 1776.45 615.985 1776.45H611.785ZM614.569 1774.19H615.673C618.697 1774.19 620.401 1772.34 620.401 1768.46C620.401 1764.57 618.697 1762.84 615.673 1762.84H614.569V1774.19ZM627.616 1776.45V1774.1H631.384V1762.94H627.616V1760.61H637.96V1762.94H634.168V1774.1H637.96V1776.45H627.616ZM642.966 1776.45V1760.61H645.774L649.998 1769.58L651.462 1772.94H651.534C651.414 1771.31 651.15 1769.32 651.15 1767.57V1760.61H653.79V1776.45H650.958L646.758 1767.45L645.294 1764.11H645.222C645.342 1765.79 645.606 1767.69 645.606 1769.44V1776.45H642.966ZM664.917 1776.74C660.933 1776.74 657.933 1773.81 657.933 1768.58C657.933 1763.37 660.957 1760.32 665.037 1760.32C667.125 1760.32 668.541 1761.3 669.501 1762.29L667.965 1764.02C667.245 1763.25 666.405 1762.72 665.037 1762.72C662.541 1762.72 660.789 1764.9 660.789 1768.48C660.789 1772.1 662.301 1774.34 665.085 1774.34C665.925 1774.34 666.741 1774.07 667.221 1773.62V1770.16H664.509V1767.88H669.717V1774.86C668.685 1775.87 666.933 1776.74 664.917 1776.74ZM679.596 1776.74C677.388 1776.74 675.3 1775.9 673.764 1774.41L675.372 1772.51C676.548 1773.59 678.108 1774.34 679.644 1774.34C681.588 1774.34 682.572 1773.52 682.572 1772.25C682.572 1770.93 681.516 1770.52 679.956 1769.9L677.82 1768.96C676.14 1768.31 674.436 1767.06 674.436 1764.76C674.436 1762.24 676.692 1760.32 679.884 1760.32C681.828 1760.32 683.628 1761.06 684.924 1762.34L683.484 1764.09C682.428 1763.22 681.348 1762.72 679.884 1762.72C678.252 1762.72 677.244 1763.42 677.244 1764.62C677.244 1765.86 678.516 1766.3 679.932 1766.87L681.996 1767.76C683.988 1768.58 685.404 1769.73 685.404 1772.03C685.404 1774.6 683.268 1776.74 679.596 1776.74Z" fill="#171717"/>
<rect x="217.5" y="1001.95" width="83" height="83" rx="41.5" fill="#1C1C1C" stroke="#B2B2B2"/>
<rect x="217.5" y="85.5" width="83" height="83" rx="41.5" fill="#1C1C1C" stroke="#B2B2B2"/>
<path d="M836.385 1956.45V1940.61H846.393V1942.94H839.145V1947.04H845.289V1949.37H839.145V1954.1H846.633V1956.45H836.385ZM852.455 1956.45V1940.61H856.511C861.143 1940.61 863.927 1943.22 863.927 1948.46C863.927 1953.69 861.143 1956.45 856.655 1956.45H852.455ZM855.239 1954.19H856.343C859.367 1954.19 861.071 1952.34 861.071 1948.46C861.071 1944.57 859.367 1942.84 856.343 1942.84H855.239V1954.19ZM875.606 1956.74C871.622 1956.74 868.622 1953.81 868.622 1948.58C868.622 1943.37 871.646 1940.32 875.726 1940.32C877.814 1940.32 879.23 1941.3 880.19 1942.29L878.654 1944.02C877.934 1943.25 877.094 1942.72 875.726 1942.72C873.23 1942.72 871.478 1944.9 871.478 1948.48C871.478 1952.1 872.99 1954.34 875.774 1954.34C876.614 1954.34 877.43 1954.07 877.91 1953.62V1950.16H875.198V1947.88H880.406V1954.86C879.374 1955.87 877.622 1956.74 875.606 1956.74ZM886.756 1956.45V1940.61H896.764V1942.94H889.516V1947.04H895.66V1949.37H889.516V1954.1H897.004V1956.45H886.756ZM920.746 1956.45V1940.61H930.706V1942.94H923.506V1947.47H929.626V1949.8H923.506V1956.45H920.746ZM941.856 1956.74C938.4 1956.74 936.336 1954.74 936.336 1950.4V1940.61H939.096V1950.59C939.096 1953.21 940.152 1954.34 941.856 1954.34C943.536 1954.34 944.616 1953.21 944.616 1950.59V1940.61H947.304V1950.4C947.304 1954.74 945.288 1956.74 941.856 1956.74ZM953.199 1956.45V1940.61H956.007L960.231 1949.58L961.695 1952.94H961.767C961.647 1951.31 961.383 1949.32 961.383 1947.57V1940.61H964.023V1956.45H961.191L956.991 1947.45L955.527 1944.11H955.455C955.575 1945.79 955.839 1947.69 955.839 1949.44V1956.45H953.199ZM976.805 1956.74C972.797 1956.74 969.653 1953.81 969.653 1948.58C969.653 1943.39 972.749 1940.32 976.901 1940.32C978.845 1940.32 980.381 1941.26 981.365 1942.29L979.829 1944.02C979.037 1943.22 978.125 1942.72 976.901 1942.72C974.285 1942.72 972.485 1944.9 972.485 1948.48C972.485 1952.1 974.285 1954.34 976.973 1954.34C978.245 1954.34 979.229 1953.74 980.117 1952.75L981.677 1954.43C980.405 1955.92 978.797 1956.74 976.805 1956.74ZM990.788 1956.45V1942.94H985.868V1940.61H998.516V1942.94H993.572V1956.45H990.788ZM1003.81 1956.45V1954.1H1007.58V1942.94H1003.81V1940.61H1014.15V1942.94H1010.36V1954.1H1014.15V1956.45H1003.81ZM1025.76 1956.74C1022.14 1956.74 1019.59 1953.57 1019.59 1948.46C1019.59 1943.32 1022.14 1940.32 1025.76 1940.32C1029.41 1940.32 1031.93 1943.34 1031.93 1948.46C1031.93 1953.57 1029.41 1956.74 1025.76 1956.74ZM1025.76 1954.34C1027.78 1954.34 1029.1 1952.03 1029.1 1948.46C1029.1 1944.88 1027.78 1942.72 1025.76 1942.72C1023.75 1942.72 1022.45 1944.88 1022.45 1948.46C1022.45 1952.03 1023.75 1954.34 1025.76 1954.34ZM1037.15 1956.45V1940.61H1039.96L1044.18 1949.58L1045.65 1952.94H1045.72C1045.6 1951.31 1045.34 1949.32 1045.34 1947.57V1940.61H1047.98V1956.45H1045.14L1040.94 1947.45L1039.48 1944.11H1039.41C1039.53 1945.79 1039.79 1947.69 1039.79 1949.44V1956.45H1037.15Z" fill="#525252"/>
<path d="M834.753 1987.34L845.025 1969.41H847.401L837.105 1987.34H834.753ZM859.271 1986.74C855.263 1986.74 852.119 1983.81 852.119 1978.58C852.119 1973.39 855.215 1970.32 859.367 1970.32C861.311 1970.32 862.847 1971.26 863.831 1972.29L862.295 1974.02C861.503 1973.22 860.591 1972.72 859.367 1972.72C856.751 1972.72 854.951 1974.9 854.951 1978.48C854.951 1982.1 856.751 1984.34 859.439 1984.34C860.711 1984.34 861.695 1983.74 862.583 1982.75L864.143 1984.43C862.871 1985.92 861.263 1986.74 859.271 1986.74ZM874.646 1986.74C871.022 1986.74 868.478 1983.57 868.478 1978.46C868.478 1973.32 871.022 1970.32 874.646 1970.32C878.294 1970.32 880.814 1973.34 880.814 1978.46C880.814 1983.57 878.294 1986.74 874.646 1986.74ZM874.646 1984.34C876.662 1984.34 877.982 1982.03 877.982 1978.46C877.982 1974.88 876.662 1972.72 874.646 1972.72C872.63 1972.72 871.334 1974.88 871.334 1978.46C871.334 1982.03 872.63 1984.34 874.646 1984.34ZM886.036 1986.45V1970.61H888.844L893.068 1979.58L894.532 1982.94H894.604C894.484 1981.31 894.22 1979.32 894.22 1977.57V1970.61H896.86V1986.45H894.028L889.828 1977.45L888.364 1974.11H888.292C888.412 1975.79 888.676 1977.69 888.676 1979.44V1986.45H886.036ZM906.595 1986.45L901.723 1970.61H904.651L906.883 1978.6C907.387 1980.4 907.723 1981.94 908.251 1983.76H908.347C908.875 1981.94 909.235 1980.4 909.739 1978.6L911.923 1970.61H914.731L909.883 1986.45H906.595ZM920.338 1986.45V1970.61H930.346V1972.94H923.098V1977.04H929.242V1979.37H923.098V1984.1H930.586V1986.45H920.338ZM936.648 1986.45V1970.61H941.88C945.12 1970.61 947.64 1971.76 947.64 1975.29C947.64 1977.69 946.392 1979.15 944.496 1979.8L948.264 1986.45H945.144L941.736 1980.23H939.408V1986.45H936.648ZM939.408 1978H941.592C943.752 1978 944.904 1977.09 944.904 1975.29C944.904 1973.44 943.752 1972.82 941.592 1972.82H939.408V1978ZM957.207 1986.45V1972.94H952.287V1970.61H964.935V1972.94H959.991V1986.45H957.207ZM970.061 1979.51V1977.52H980.741V1979.51H970.061ZM987.5 1986.45V1970.61H997.508V1972.94H990.26V1977.04H996.404V1979.37H990.26V1984.1H997.748V1986.45H987.5ZM1003.47 1986.45V1970.61H1006.43L1008.61 1976.8L1009.38 1979.18H1009.47L1010.19 1976.8L1012.38 1970.61H1015.33V1986.45H1012.98V1979.32C1012.98 1977.81 1013.19 1974.83 1013.34 1973.34H1013.24L1012.04 1977.21L1010.05 1982.18H1008.71L1006.69 1977.21L1005.49 1973.34H1005.42C1005.54 1974.83 1005.78 1977.81 1005.78 1979.32V1986.45H1003.47ZM1021.66 1986.45V1970.61H1026.27C1029.49 1970.61 1031.84 1971.59 1031.84 1974.5C1031.84 1975.98 1030.95 1977.45 1029.1 1977.95V1978.05C1031.38 1978.43 1032.63 1979.63 1032.63 1981.79C1032.63 1984.96 1030.11 1986.45 1026.68 1986.45H1021.66ZM1024.42 1977.18H1026.01C1028.21 1977.18 1029.13 1976.32 1029.13 1974.83C1029.13 1973.37 1028.12 1972.77 1026.08 1972.77H1024.42V1977.18ZM1024.42 1984.29H1026.39C1028.69 1984.29 1029.92 1983.42 1029.92 1981.62C1029.92 1979.92 1028.74 1979.18 1026.39 1979.18H1024.42V1984.29ZM1038.72 1986.45V1970.61H1048.72V1972.94H1041.48V1977.04H1047.62V1979.37H1041.48V1984.1H1048.96V1986.45H1038.72ZM1054.79 1986.45V1970.61H1058.84C1063.47 1970.61 1066.26 1973.22 1066.26 1978.46C1066.26 1983.69 1063.47 1986.45 1058.99 1986.45H1054.79ZM1057.57 1984.19H1058.67C1061.7 1984.19 1063.4 1982.34 1063.4 1978.46C1063.4 1974.57 1061.7 1972.84 1058.67 1972.84H1057.57V1984.19ZM1071.58 1986.45V1970.61H1075.63C1080.27 1970.61 1083.05 1973.22 1083.05 1978.46C1083.05 1983.69 1080.27 1986.45 1075.78 1986.45H1071.58ZM1074.36 1984.19H1075.47C1078.49 1984.19 1080.19 1982.34 1080.19 1978.46C1080.19 1974.57 1078.49 1972.84 1075.47 1972.84H1074.36V1984.19ZM1088.61 1986.45V1984.1H1092.38V1972.94H1088.61V1970.61H1098.95V1972.94H1095.16V1984.1H1098.95V1986.45H1088.61ZM1105.16 1986.45V1970.61H1107.97L1112.19 1979.58L1113.65 1982.94H1113.73C1113.61 1981.31 1113.34 1979.32 1113.34 1977.57V1970.61H1115.98V1986.45H1113.15L1108.95 1977.45L1107.49 1974.11H1107.41C1107.53 1975.79 1107.8 1977.69 1107.8 1979.44V1986.45H1105.16ZM1128.31 1986.74C1124.32 1986.74 1121.32 1983.81 1121.32 1978.58C1121.32 1973.37 1124.35 1970.32 1128.43 1970.32C1130.52 1970.32 1131.93 1971.3 1132.89 1972.29L1131.36 1974.02C1130.64 1973.25 1129.8 1972.72 1128.43 1972.72C1125.93 1972.72 1124.18 1974.9 1124.18 1978.48C1124.18 1982.1 1125.69 1984.34 1128.48 1984.34C1129.32 1984.34 1130.13 1984.07 1130.61 1983.62V1980.16H1127.9V1977.88H1133.11V1984.86C1132.08 1985.87 1130.32 1986.74 1128.31 1986.74ZM1144.19 1986.74C1141.98 1986.74 1139.89 1985.9 1138.36 1984.41L1139.96 1982.51C1141.14 1983.59 1142.7 1984.34 1144.24 1984.34C1146.18 1984.34 1147.16 1983.52 1147.16 1982.25C1147.16 1980.93 1146.11 1980.52 1144.55 1979.9L1142.41 1978.96C1140.73 1978.31 1139.03 1977.06 1139.03 1974.76C1139.03 1972.24 1141.28 1970.32 1144.48 1970.32C1146.42 1970.32 1148.22 1971.06 1149.52 1972.34L1148.08 1974.09C1147.02 1973.22 1145.94 1972.72 1144.48 1972.72C1142.84 1972.72 1141.84 1973.42 1141.84 1974.62C1141.84 1975.86 1143.11 1976.3 1144.52 1976.87L1146.59 1977.76C1148.58 1978.58 1150 1979.73 1150 1982.03C1150 1984.6 1147.86 1986.74 1144.19 1986.74Z" fill="#171717"/>
<rect x="484.238" y="614.777" width="157" height="56" rx="28" fill="#1C1C1C"/>
<rect x="485.488" y="616.027" width="154.5" height="53.5" rx="26.75" stroke="#C7C7C7" stroke-opacity="0.1" stroke-width="2.5"/>
<path d="M518.606 651.777V649.425H522.374V638.265H518.606V635.937H528.95V638.265H525.158V649.425H528.95V651.777H518.606ZM533.957 651.777V635.937H536.765L540.989 644.913L542.453 648.273H542.525C542.405 646.641 542.141 644.649 542.141 642.897V635.937H544.781V651.777H541.949L537.749 642.777L536.285 639.441H536.213C536.333 641.121 536.597 643.017 536.597 644.769V651.777H533.957ZM554.996 652.065C552.788 652.065 550.7 651.225 549.164 649.737L550.772 647.841C551.948 648.921 553.508 649.665 555.044 649.665C556.988 649.665 557.972 648.849 557.972 647.577C557.972 646.257 556.916 645.849 555.356 645.225L553.22 644.289C551.54 643.641 549.836 642.393 549.836 640.089C549.836 637.569 552.092 635.649 555.284 635.649C557.228 635.649 559.028 636.393 560.324 637.665L558.884 639.417C557.828 638.553 556.748 638.049 555.284 638.049C553.652 638.049 552.644 638.745 552.644 639.945C552.644 641.193 553.916 641.625 555.332 642.201L557.396 643.089C559.388 643.905 560.804 645.057 560.804 647.361C560.804 649.929 558.668 652.065 554.996 652.065ZM565.858 651.777V635.937H575.866V638.265H568.618V642.369H574.762V644.697H568.618V649.425H576.106V651.777H565.858ZM580.969 651.777V635.937H586.201C589.441 635.937 591.961 637.089 591.961 640.617C591.961 643.017 590.713 644.481 588.817 645.129L592.585 651.777H589.465L586.057 645.561H583.729V651.777H580.969ZM583.729 643.329H585.913C588.073 643.329 589.225 642.417 589.225 640.617C589.225 638.769 588.073 638.145 585.913 638.145H583.729V643.329ZM600.328 651.777V638.265H595.408V635.937H608.056V638.265H603.112V651.777H600.328Z" fill="#FCFCFC"/>
<path d="M331.931 136V120.16H334.739L338.963 129.136L340.427 132.496H340.499C340.379 130.864 340.115 128.872 340.115 127.12V120.16H342.755V136H339.923L335.723 127L334.259 123.664H334.187C334.307 125.344 334.571 127.24 334.571 128.992V136H331.931ZM349.441 136V120.16H359.449V122.488H352.201V126.592H358.345V128.92H352.201V133.648H359.689V136H349.441ZM366.136 136L363.88 120.136H366.688L367.576 129.352C367.624 130.696 367.72 132.016 367.792 133.336H367.864C368.152 132.016 368.488 130.672 368.776 129.352L370.144 124.216H371.92L373.264 129.352C373.528 130.648 373.888 131.992 374.176 133.336H374.272L374.488 129.352L375.328 120.136H377.944L375.808 136H372.856L371.464 130.144C371.272 129.184 371.08 128.152 370.96 127.216H370.888C370.744 128.152 370.576 129.184 370.36 130.144L369.04 136H366.136ZM399.333 136V120.16H404.565C407.805 120.16 410.325 121.312 410.325 124.84C410.325 127.24 409.077 128.704 407.181 129.352L410.949 136H407.829L404.421 129.784H402.093V136H399.333ZM402.093 127.552H404.277C406.437 127.552 407.589 126.64 407.589 124.84C407.589 122.992 406.437 122.368 404.277 122.368H402.093V127.552ZM421.284 136.288C417.66 136.288 415.116 133.12 415.116 128.008C415.116 122.872 417.66 119.872 421.284 119.872C424.932 119.872 427.452 122.896 427.452 128.008C427.452 133.12 424.932 136.288 421.284 136.288ZM421.284 133.888C423.3 133.888 424.62 131.584 424.62 128.008C424.62 124.432 423.3 122.272 421.284 122.272C419.268 122.272 417.972 124.432 417.972 128.008C417.972 131.584 419.268 133.888 421.284 133.888ZM433.299 136L431.043 120.136H433.851L434.739 129.352C434.787 130.696 434.883 132.016 434.955 133.336H435.027C435.315 132.016 435.651 130.672 435.939 129.352L437.307 124.216H439.083L440.427 129.352C440.691 130.648 441.051 131.992 441.339 133.336H441.435L441.651 129.352L442.491 120.136H445.107L442.971 136H440.019L438.627 130.144C438.435 129.184 438.243 128.152 438.123 127.216H438.051C437.907 128.152 437.739 129.184 437.523 130.144L436.203 136H433.299ZM466.496 136V133.648H470.264V122.488H466.496V120.16H476.84V122.488H473.048V133.648H476.84V136H466.496ZM483.046 136V120.16H485.854L490.078 129.136L491.542 132.496H491.614C491.494 130.864 491.23 128.872 491.23 127.12V120.16H493.87V136H491.038L486.838 127L485.374 123.664H485.302C485.422 125.344 485.686 127.24 485.686 128.992V136H483.046ZM505.285 136.288C503.077 136.288 500.989 135.448 499.453 133.96L501.061 132.064C502.237 133.144 503.797 133.888 505.333 133.888C507.277 133.888 508.261 133.072 508.261 131.8C508.261 130.48 507.205 130.072 505.645 129.448L503.509 128.512C501.829 127.864 500.125 126.616 500.125 124.312C500.125 121.792 502.381 119.872 505.573 119.872C507.517 119.872 509.317 120.616 510.613 121.888L509.173 123.64C508.117 122.776 507.037 122.272 505.573 122.272C503.941 122.272 502.933 122.968 502.933 124.168C502.933 125.416 504.205 125.848 505.621 126.424L507.685 127.312C509.677 128.128 511.093 129.28 511.093 131.584C511.093 134.152 508.957 136.288 505.285 136.288ZM517.348 136V120.16H527.356V122.488H520.108V126.592H526.252V128.92H520.108V133.648H527.596V136H517.348ZM533.658 136V120.16H538.89C542.13 120.16 544.65 121.312 544.65 124.84C544.65 127.24 543.402 128.704 541.506 129.352L545.274 136H542.154L538.746 129.784H536.418V136H533.658ZM536.418 127.552H538.602C540.762 127.552 541.914 126.64 541.914 124.84C541.914 122.992 540.762 122.368 538.602 122.368H536.418V127.552ZM554.217 136V122.488H549.297V120.16H561.945V122.488H557.001V136H554.217ZM567.72 136V120.16H577.728V122.488H570.48V126.592H576.624V128.92H570.48V133.648H577.968V136H567.72ZM583.79 136V120.16H587.846C592.478 120.16 595.262 122.776 595.262 128.008C595.262 133.24 592.478 136 587.99 136H583.79ZM586.574 133.744H587.678C590.702 133.744 592.406 131.896 592.406 128.008C592.406 124.12 590.702 122.392 587.678 122.392H586.574V133.744ZM617.611 136V133.648H621.379V122.488H617.611V120.16H627.955V122.488H624.163V133.648H627.955V136H617.611ZM634.162 136V120.16H636.97L641.194 129.136L642.658 132.496H642.73C642.61 130.864 642.346 128.872 642.346 127.12V120.16H644.986V136H642.154L637.954 127L636.49 123.664H636.418C636.538 125.344 636.802 127.24 636.802 128.992V136H634.162ZM654.961 136V122.488H650.041V120.16H662.689V122.488H657.745V136H654.961ZM673.143 136.288C669.519 136.288 666.975 133.12 666.975 128.008C666.975 122.872 669.519 119.872 673.143 119.872C676.791 119.872 679.311 122.896 679.311 128.008C679.311 133.12 676.791 136.288 673.143 136.288ZM673.143 133.888C675.159 133.888 676.479 131.584 676.479 128.008C676.479 124.432 675.159 122.272 673.143 122.272C671.127 122.272 669.831 124.432 669.831 128.008C669.831 131.584 671.127 133.888 673.143 133.888ZM705.333 136V122.488H700.413V120.16H713.061V122.488H708.117V136H705.333ZM716.819 136L721.907 120.16H725.147L730.235 136H727.307L726.083 131.68H720.875L719.627 136H716.819ZM721.475 129.496H725.483L724.931 127.528C724.451 125.848 723.971 124.072 723.515 122.32H723.419C722.987 124.072 722.507 125.848 722.027 127.528L721.475 129.496ZM735.362 136V120.16H739.97C743.186 120.16 745.538 121.144 745.538 124.048C745.538 125.536 744.65 127 742.802 127.504V127.6C745.082 127.984 746.33 129.184 746.33 131.344C746.33 134.512 743.81 136 740.378 136H735.362ZM738.122 126.736H739.706C741.914 126.736 742.826 125.872 742.826 124.384C742.826 122.92 741.818 122.32 739.778 122.32H738.122V126.736ZM738.122 133.84H740.09C742.394 133.84 743.618 132.976 743.618 131.176C743.618 129.472 742.442 128.728 740.09 128.728H738.122V133.84ZM752.8 136V120.16H755.536V133.648H762.928V136H752.8ZM769.207 136V120.16H779.215V122.488H771.967V126.592H778.111V128.92H771.967V133.648H779.455V136H769.207Z" fill="#171717"/>
<path d="M340.8 1037.45V1021.61H343.608L347.832 1030.58L349.296 1033.94H349.368C349.248 1032.31 348.984 1030.32 348.984 1028.57V1021.61H351.624V1037.45H348.792L344.592 1028.45L343.128 1025.11H343.056C343.176 1026.79 343.44 1028.69 343.44 1030.44V1037.45H340.8ZM358.311 1037.45V1021.61H368.319V1023.94H361.071V1028.04H367.215V1030.37H361.071V1035.1H368.559V1037.45H358.311ZM375.005 1037.45L372.749 1021.58H375.557L376.445 1030.8C376.493 1032.14 376.589 1033.46 376.661 1034.78H376.733C377.021 1033.46 377.357 1032.12 377.645 1030.8L379.013 1025.66H380.789L382.133 1030.8C382.397 1032.1 382.757 1033.44 383.045 1034.78H383.141L383.357 1030.8L384.197 1021.58H386.813L384.677 1037.45H381.725L380.333 1031.59C380.141 1030.63 379.949 1029.6 379.829 1028.66H379.757C379.613 1029.6 379.445 1030.63 379.229 1031.59L377.909 1037.45H375.005ZM408.202 1037.45V1021.61H413.434C416.674 1021.61 419.194 1022.76 419.194 1026.29C419.194 1028.69 417.946 1030.15 416.05 1030.8L419.818 1037.45H416.698L413.29 1031.23H410.962V1037.45H408.202ZM410.962 1029H413.146C415.306 1029 416.458 1028.09 416.458 1026.29C416.458 1024.44 415.306 1023.82 413.146 1023.82H410.962V1029ZM430.153 1037.74C426.529 1037.74 423.985 1034.57 423.985 1029.46C423.985 1024.32 426.529 1021.32 430.153 1021.32C433.801 1021.32 436.321 1024.34 436.321 1029.46C436.321 1034.57 433.801 1037.74 430.153 1037.74ZM430.153 1035.34C432.169 1035.34 433.489 1033.03 433.489 1029.46C433.489 1025.88 432.169 1023.72 430.153 1023.72C428.137 1023.72 426.841 1025.88 426.841 1029.46C426.841 1033.03 428.137 1035.34 430.153 1035.34ZM442.168 1037.45L439.912 1021.58H442.72L443.608 1030.8C443.656 1032.14 443.752 1033.46 443.824 1034.78H443.896C444.184 1033.46 444.52 1032.12 444.808 1030.8L446.176 1025.66H447.952L449.296 1030.8C449.56 1032.1 449.92 1033.44 450.208 1034.78H450.304L450.52 1030.8L451.36 1021.58H453.976L451.84 1037.45H448.888L447.496 1031.59C447.304 1030.63 447.112 1029.6 446.992 1028.66H446.92C446.776 1029.6 446.608 1030.63 446.392 1031.59L445.072 1037.45H442.168ZM479.133 1037.45V1023.94H474.213V1021.61H486.861V1023.94H481.917V1037.45H479.133ZM492.156 1037.45V1021.61H497.388C500.628 1021.61 503.148 1022.76 503.148 1026.29C503.148 1028.69 501.9 1030.15 500.004 1030.8L503.772 1037.45H500.652L497.244 1031.23H494.916V1037.45H492.156ZM494.916 1029H497.1C499.26 1029 500.412 1028.09 500.412 1026.29C500.412 1024.44 499.26 1023.82 497.1 1023.82H494.916V1029ZM508.946 1037.45V1035.1H512.714V1023.94H508.946V1021.61H519.29V1023.94H515.498V1035.1H519.29V1037.45H508.946ZM531.857 1037.74C527.873 1037.74 524.873 1034.81 524.873 1029.58C524.873 1024.37 527.897 1021.32 531.977 1021.32C534.065 1021.32 535.481 1022.3 536.441 1023.29L534.905 1025.02C534.185 1024.25 533.345 1023.72 531.977 1023.72C529.481 1023.72 527.729 1025.9 527.729 1029.48C527.729 1033.1 529.241 1035.34 532.025 1035.34C532.865 1035.34 533.681 1035.07 534.161 1034.62V1031.16H531.449V1028.88H536.657V1035.86C535.625 1036.87 533.873 1037.74 531.857 1037.74ZM548.648 1037.74C544.664 1037.74 541.664 1034.81 541.664 1029.58C541.664 1024.37 544.688 1021.32 548.768 1021.32C550.856 1021.32 552.272 1022.3 553.232 1023.29L551.696 1025.02C550.976 1024.25 550.136 1023.72 548.768 1023.72C546.272 1023.72 544.52 1025.9 544.52 1029.48C544.52 1033.1 546.032 1035.34 548.816 1035.34C549.656 1035.34 550.472 1035.07 550.952 1034.62V1031.16H548.24V1028.88H553.448V1035.86C552.416 1036.87 550.664 1037.74 548.648 1037.74ZM559.798 1037.45V1021.61H569.806V1023.94H562.558V1028.04H568.702V1030.37H562.558V1035.1H570.046V1037.45H559.798ZM576.109 1037.45V1021.61H581.341C584.581 1021.61 587.101 1022.76 587.101 1026.29C587.101 1028.69 585.853 1030.15 583.957 1030.8L587.725 1037.45H584.605L581.197 1031.23H578.869V1037.45H576.109ZM578.869 1029H581.053C583.213 1029 584.365 1028.09 584.365 1026.29C584.365 1024.44 583.213 1023.82 581.053 1023.82H578.869V1029ZM598.107 1037.74C595.899 1037.74 593.811 1036.9 592.275 1035.41L593.883 1033.51C595.059 1034.59 596.619 1035.34 598.155 1035.34C600.099 1035.34 601.083 1034.52 601.083 1033.25C601.083 1031.93 600.027 1031.52 598.467 1030.9L596.331 1029.96C594.651 1029.31 592.947 1028.06 592.947 1025.76C592.947 1023.24 595.203 1021.32 598.395 1021.32C600.339 1021.32 602.139 1022.06 603.435 1023.34L601.995 1025.09C600.939 1024.22 599.859 1023.72 598.395 1023.72C596.763 1023.72 595.755 1024.42 595.755 1025.62C595.755 1026.86 597.027 1027.3 598.443 1027.87L600.507 1028.76C602.499 1029.58 603.915 1030.73 603.915 1033.03C603.915 1035.6 601.779 1037.74 598.107 1037.74ZM626.961 1037.45V1021.61H636.969V1023.94H629.721V1028.04H635.865V1030.37H629.721V1035.1H637.209V1037.45H626.961ZM643.031 1037.45V1021.61H647.087C651.719 1021.61 654.503 1024.22 654.503 1029.46C654.503 1034.69 651.719 1037.45 647.231 1037.45H643.031ZM645.815 1035.19H646.919C649.943 1035.19 651.647 1033.34 651.647 1029.46C651.647 1025.57 649.943 1023.84 646.919 1023.84H645.815V1035.19ZM666.182 1037.74C662.198 1037.74 659.198 1034.81 659.198 1029.58C659.198 1024.37 662.222 1021.32 666.302 1021.32C668.39 1021.32 669.806 1022.3 670.766 1023.29L669.23 1025.02C668.51 1024.25 667.67 1023.72 666.302 1023.72C663.806 1023.72 662.054 1025.9 662.054 1029.48C662.054 1033.1 663.566 1035.34 666.35 1035.34C667.19 1035.34 668.006 1035.07 668.486 1034.62V1031.16H665.774V1028.88H670.982V1035.86C669.95 1036.87 668.198 1037.74 666.182 1037.74ZM677.333 1037.45V1021.61H687.341V1023.94H680.093V1028.04H686.237V1030.37H680.093V1035.1H687.581V1037.45H677.333ZM711.322 1037.45V1021.61H721.282V1023.94H714.082V1028.47H720.202V1030.8H714.082V1037.45H711.322ZM732.432 1037.74C728.976 1037.74 726.912 1035.74 726.912 1031.4V1021.61H729.672V1031.59C729.672 1034.21 730.728 1035.34 732.432 1035.34C734.112 1035.34 735.192 1034.21 735.192 1031.59V1021.61H737.88V1031.4C737.88 1035.74 735.864 1037.74 732.432 1037.74ZM743.775 1037.45V1021.61H746.583L750.807 1030.58L752.271 1033.94H752.343C752.223 1032.31 751.959 1030.32 751.959 1028.57V1021.61H754.599V1037.45H751.767L747.567 1028.45L746.103 1025.11H746.031C746.151 1026.79 746.415 1028.69 746.415 1030.44V1037.45H743.775ZM767.382 1037.74C763.374 1037.74 760.23 1034.81 760.23 1029.58C760.23 1024.39 763.326 1021.32 767.478 1021.32C769.422 1021.32 770.958 1022.26 771.942 1023.29L770.406 1025.02C769.614 1024.22 768.702 1023.72 767.478 1023.72C764.862 1023.72 763.062 1025.9 763.062 1029.48C763.062 1033.1 764.862 1035.34 767.55 1035.34C768.822 1035.34 769.806 1034.74 770.694 1033.75L772.254 1035.43C770.982 1036.92 769.374 1037.74 767.382 1037.74ZM781.364 1037.45V1023.94H776.444V1021.61H789.092V1023.94H784.148V1037.45H781.364ZM794.387 1037.45V1035.1H798.155V1023.94H794.387V1021.61H804.731V1023.94H800.939V1035.1H804.731V1037.45H794.387ZM816.338 1037.74C812.714 1037.74 810.17 1034.57 810.17 1029.46C810.17 1024.32 812.714 1021.32 816.338 1021.32C819.986 1021.32 822.506 1024.34 822.506 1029.46C822.506 1034.57 819.986 1037.74 816.338 1037.74ZM816.338 1035.34C818.354 1035.34 819.674 1033.03 819.674 1029.46C819.674 1025.88 818.354 1023.72 816.338 1023.72C814.322 1023.72 813.026 1025.88 813.026 1029.46C813.026 1033.03 814.322 1035.34 816.338 1035.34ZM827.728 1037.45V1021.61H830.536L834.76 1030.58L836.224 1033.94H836.296C836.176 1032.31 835.912 1030.32 835.912 1028.57V1021.61H838.552V1037.45H835.72L831.52 1028.45L830.056 1025.11H829.984C830.104 1026.79 830.368 1028.69 830.368 1030.44V1037.45H827.728ZM865.677 1035.07V1030.51H861.381V1028.52H865.677V1023.98H867.765V1028.52H872.061V1030.51H867.765V1035.07H865.677ZM341.52 1067.45V1051.61H351.528V1053.94H344.28V1058.04H350.424V1060.37H344.28V1065.1H351.768V1067.45H341.52ZM357.591 1067.45V1051.61H361.647C366.279 1051.61 369.063 1054.22 369.063 1059.46C369.063 1064.69 366.279 1067.45 361.791 1067.45H357.591ZM360.375 1065.19H361.479C364.503 1065.19 366.207 1063.34 366.207 1059.46C366.207 1055.57 364.503 1053.84 361.479 1053.84H360.375V1065.19ZM380.741 1067.74C376.757 1067.74 373.757 1064.81 373.757 1059.58C373.757 1054.37 376.781 1051.32 380.861 1051.32C382.949 1051.32 384.365 1052.3 385.325 1053.29L383.789 1055.02C383.069 1054.25 382.229 1053.72 380.861 1053.72C378.365 1053.72 376.613 1055.9 376.613 1059.48C376.613 1063.1 378.125 1065.34 380.909 1065.34C381.749 1065.34 382.565 1065.07 383.045 1064.62V1061.16H380.333V1058.88H385.541V1065.86C384.509 1066.87 382.757 1067.74 380.741 1067.74ZM391.892 1067.45V1051.61H401.9V1053.94H394.652V1058.04H400.796V1060.37H394.652V1065.1H402.14V1067.45H391.892ZM425.881 1067.45V1051.61H435.841V1053.94H428.641V1058.47H434.761V1060.8H428.641V1067.45H425.881ZM446.992 1067.74C443.536 1067.74 441.472 1065.74 441.472 1061.4V1051.61H444.232V1061.59C444.232 1064.21 445.288 1065.34 446.992 1065.34C448.672 1065.34 449.752 1064.21 449.752 1061.59V1051.61H452.44V1061.4C452.44 1065.74 450.424 1067.74 446.992 1067.74ZM458.334 1067.45V1051.61H461.142L465.366 1060.58L466.83 1063.94H466.902C466.782 1062.31 466.518 1060.32 466.518 1058.57V1051.61H469.158V1067.45H466.326L462.126 1058.45L460.662 1055.11H460.59C460.71 1056.79 460.974 1058.69 460.974 1060.44V1067.45H458.334ZM481.941 1067.74C477.933 1067.74 474.789 1064.81 474.789 1059.58C474.789 1054.39 477.885 1051.32 482.037 1051.32C483.981 1051.32 485.517 1052.26 486.501 1053.29L484.965 1055.02C484.173 1054.22 483.261 1053.72 482.037 1053.72C479.421 1053.72 477.621 1055.9 477.621 1059.48C477.621 1063.1 479.421 1065.34 482.109 1065.34C483.381 1065.34 484.365 1064.74 485.253 1063.75L486.813 1065.43C485.541 1066.92 483.933 1067.74 481.941 1067.74ZM495.924 1067.45V1053.94H491.004V1051.61H503.652V1053.94H498.708V1067.45H495.924ZM508.946 1067.45V1065.1H512.714V1053.94H508.946V1051.61H519.29V1053.94H515.498V1065.1H519.29V1067.45H508.946ZM530.897 1067.74C527.273 1067.74 524.729 1064.57 524.729 1059.46C524.729 1054.32 527.273 1051.32 530.897 1051.32C534.545 1051.32 537.065 1054.34 537.065 1059.46C537.065 1064.57 534.545 1067.74 530.897 1067.74ZM530.897 1065.34C532.913 1065.34 534.233 1063.03 534.233 1059.46C534.233 1055.88 532.913 1053.72 530.897 1053.72C528.881 1053.72 527.585 1055.88 527.585 1059.46C527.585 1063.03 528.881 1065.34 530.897 1065.34ZM542.288 1067.45V1051.61H545.096L549.32 1060.58L550.784 1063.94H550.856C550.736 1062.31 550.472 1060.32 550.472 1058.57V1051.61H553.112V1067.45H550.28L546.08 1058.45L544.616 1055.11H544.544C544.664 1056.79 544.928 1058.69 544.928 1060.44V1067.45H542.288ZM582.685 1067.74C578.677 1067.74 575.533 1064.81 575.533 1059.58C575.533 1054.39 578.629 1051.32 582.781 1051.32C584.725 1051.32 586.261 1052.26 587.245 1053.29L585.709 1055.02C584.917 1054.22 584.005 1053.72 582.781 1053.72C580.165 1053.72 578.365 1055.9 578.365 1059.48C578.365 1063.1 580.165 1065.34 582.853 1065.34C584.125 1065.34 585.109 1064.74 585.997 1063.75L587.557 1065.43C586.285 1066.92 584.677 1067.74 582.685 1067.74ZM592.899 1067.45V1051.61H598.131C601.371 1051.61 603.891 1052.76 603.891 1056.29C603.891 1058.69 602.643 1060.15 600.747 1060.8L604.515 1067.45H601.395L597.987 1061.23H595.659V1067.45H592.899ZM595.659 1059H597.843C600.003 1059 601.155 1058.09 601.155 1056.29C601.155 1054.44 600.003 1053.82 597.843 1053.82H595.659V1059ZM610.17 1067.45V1051.61H620.178V1053.94H612.93V1058.04H619.074V1060.37H612.93V1065.1H620.418V1067.45H610.17ZM624.945 1067.45L630.033 1051.61H633.273L638.361 1067.45H635.433L634.209 1063.13H629.001L627.753 1067.45H624.945ZM629.601 1060.94H633.609L633.057 1058.98C632.577 1057.3 632.097 1055.52 631.641 1053.77H631.545C631.113 1055.52 630.633 1057.3 630.153 1058.98L629.601 1060.94ZM647.039 1067.45V1053.94H642.119V1051.61H654.767V1053.94H649.823V1067.45H647.039ZM660.542 1067.45V1051.61H670.55V1053.94H663.302V1058.04H669.446V1060.37H663.302V1065.1H670.79V1067.45H660.542ZM682.061 1067.74C679.853 1067.74 677.765 1066.9 676.229 1065.41L677.837 1063.51C679.013 1064.59 680.573 1065.34 682.109 1065.34C684.053 1065.34 685.037 1064.52 685.037 1063.25C685.037 1061.93 683.981 1061.52 682.421 1060.9L680.285 1059.96C678.605 1059.31 676.901 1058.06 676.901 1055.76C676.901 1053.24 679.157 1051.32 682.349 1051.32C684.293 1051.32 686.093 1052.06 687.389 1053.34L685.949 1055.09C684.893 1054.22 683.813 1053.72 682.349 1053.72C680.717 1053.72 679.709 1054.42 679.709 1055.62C679.709 1056.86 680.98 1057.3 682.397 1057.87L684.461 1058.76C686.453 1059.58 687.869 1060.73 687.869 1063.03C687.869 1065.6 685.733 1067.74 682.061 1067.74ZM710.194 1067.45V1051.61H713.002L717.226 1060.58L718.69 1063.94H718.762C718.642 1062.31 718.378 1060.32 718.378 1058.57V1051.61H721.018V1067.45H718.186L713.986 1058.45L712.522 1055.11H712.45C712.57 1056.79 712.834 1058.69 712.834 1060.44V1067.45H710.194ZM727.704 1067.45V1051.61H737.712V1053.94H730.464V1058.04H736.608V1060.37H730.464V1065.1H737.952V1067.45H727.704ZM744.399 1067.45L742.143 1051.58H744.951L745.839 1060.8C745.887 1062.14 745.983 1063.46 746.055 1064.78H746.127C746.415 1063.46 746.751 1062.12 747.039 1060.8L748.407 1055.66H750.183L751.527 1060.8C751.791 1062.1 752.151 1063.44 752.439 1064.78H752.535L752.751 1060.8L753.591 1051.58H756.207L754.071 1067.45H751.119L749.727 1061.59C749.535 1060.63 749.343 1059.6 749.223 1058.66H749.151C749.007 1059.6 748.839 1060.63 748.623 1061.59L747.303 1067.45H744.399ZM778.076 1067.45V1051.61H788.084V1053.94H780.836V1058.04H786.98V1060.37H780.836V1065.1H788.324V1067.45H778.076ZM794.051 1067.45V1051.61H797.003L799.187 1057.8L799.955 1060.18H800.051L800.771 1057.8L802.955 1051.61H805.907V1067.45H803.555V1060.32C803.555 1058.81 803.771 1055.83 803.915 1054.34H803.819L802.619 1058.21L800.627 1063.18H799.283L797.267 1058.21L796.067 1054.34H795.995C796.115 1055.83 796.355 1058.81 796.355 1060.32V1067.45H794.051ZM812.237 1067.45V1051.61H816.845C820.061 1051.61 822.413 1052.59 822.413 1055.5C822.413 1056.98 821.525 1058.45 819.677 1058.95V1059.05C821.957 1059.43 823.205 1060.63 823.205 1062.79C823.205 1065.96 820.685 1067.45 817.253 1067.45H812.237ZM814.997 1058.18H816.581C818.789 1058.18 819.701 1057.32 819.701 1055.83C819.701 1054.37 818.693 1053.77 816.653 1053.77H814.997V1058.18ZM814.997 1065.29H816.965C819.269 1065.29 820.493 1064.42 820.493 1062.62C820.493 1060.92 819.317 1060.18 816.965 1060.18H814.997V1065.29ZM829.292 1067.45V1051.61H839.3V1053.94H832.052V1058.04H838.196V1060.37H832.052V1065.1H839.54V1067.45H829.292ZM845.363 1067.45V1051.61H849.419C854.051 1051.61 856.835 1054.22 856.835 1059.46C856.835 1064.69 854.051 1067.45 849.562 1067.45H845.363ZM848.147 1065.19H849.251C852.275 1065.19 853.979 1063.34 853.979 1059.46C853.979 1055.57 852.275 1053.84 849.251 1053.84H848.147V1065.19ZM862.153 1067.45V1051.61H866.209C870.841 1051.61 873.625 1054.22 873.625 1059.46C873.625 1064.69 870.841 1067.45 866.353 1067.45H862.153ZM864.937 1065.19H866.041C869.065 1065.19 870.769 1063.34 870.769 1059.46C870.769 1055.57 869.065 1053.84 866.041 1053.84H864.937V1065.19ZM879.184 1067.45V1065.1H882.952V1053.94H879.184V1051.61H889.528V1053.94H885.736V1065.1H889.528V1067.45H879.184ZM895.734 1067.45V1051.61H898.542L902.766 1060.58L904.23 1063.94H904.302C904.182 1062.31 903.918 1060.32 903.918 1058.57V1051.61H906.558V1067.45H903.726L899.526 1058.45L898.062 1055.11H897.99C898.11 1056.79 898.374 1058.69 898.374 1060.44V1067.45H895.734ZM918.885 1067.74C914.901 1067.74 911.901 1064.81 911.901 1059.58C911.901 1054.37 914.925 1051.32 919.005 1051.32C921.093 1051.32 922.509 1052.3 923.469 1053.29L921.933 1055.02C921.213 1054.25 920.373 1053.72 919.005 1053.72C916.509 1053.72 914.757 1055.9 914.757 1059.48C914.757 1063.1 916.269 1065.34 919.053 1065.34C919.893 1065.34 920.709 1065.07 921.189 1064.62V1061.16H918.477V1058.88H923.685V1065.86C922.653 1066.87 920.901 1067.74 918.885 1067.74Z" fill="#171717"/>
<path d="M267.166 1055.45H251.102V1051.06L258.142 1045.21C259.358 1044.16 260.233 1043.26 260.766 1042.49C261.3 1041.72 261.566 1040.91 261.566 1040.06V1039.74C261.566 1038.8 261.289 1038.09 260.734 1037.62C260.18 1037.13 259.433 1036.89 258.494 1036.89C257.428 1036.89 256.606 1037.2 256.03 1037.82C255.454 1038.43 255.049 1039.17 254.814 1040.02L250.622 1038.42C250.878 1037.66 251.23 1036.93 251.678 1036.25C252.126 1035.54 252.692 1034.94 253.374 1034.42C254.078 1033.91 254.889 1033.51 255.806 1033.21C256.724 1032.89 257.78 1032.73 258.974 1032.73C260.19 1032.73 261.278 1032.9 262.238 1033.24C263.198 1033.58 264.009 1034.05 264.67 1034.65C265.332 1035.24 265.833 1035.96 266.174 1036.79C266.516 1037.6 266.686 1038.49 266.686 1039.45C266.686 1040.39 266.526 1041.25 266.206 1042.04C265.908 1042.81 265.481 1043.53 264.926 1044.22C264.393 1044.9 263.753 1045.56 263.006 1046.2C262.281 1046.84 261.502 1047.48 260.67 1048.12L256.414 1051.42H267.166V1055.45Z" fill="#F8F9FA"/>
<path d="M252.414 139V135.128H258.43V120.152H258.142L253.598 126.104L250.526 123.704L255.87 116.664H263.23V135.128H267.966V139H252.414Z" fill="#F8F9FA"/>
<rect x="1174.87" y="1550.45" width="157" height="56" rx="28" fill="#1C1C1C"/>
<rect x="1176.12" y="1551.7" width="154.5" height="53.5" rx="26.75" stroke="#C7C7C7" stroke-opacity="0.1" stroke-width="2.5"/>
<path d="M1209.24 1587.45V1585.1H1213.01V1573.94H1209.24V1571.61H1219.58V1573.94H1215.79V1585.1H1219.58V1587.45H1209.24ZM1224.59 1587.45V1571.61H1227.4L1231.62 1580.58L1233.08 1583.94H1233.16C1233.04 1582.31 1232.77 1580.32 1232.77 1578.57V1571.61H1235.41V1587.45H1232.58L1228.38 1578.45L1226.92 1575.11H1226.84C1226.96 1576.79 1227.23 1578.69 1227.23 1580.44V1587.45H1224.59ZM1245.63 1587.74C1243.42 1587.74 1241.33 1586.9 1239.79 1585.41L1241.4 1583.51C1242.58 1584.59 1244.14 1585.34 1245.67 1585.34C1247.62 1585.34 1248.6 1584.52 1248.6 1583.25C1248.6 1581.93 1247.55 1581.52 1245.99 1580.9L1243.85 1579.96C1242.17 1579.31 1240.47 1578.06 1240.47 1575.76C1240.47 1573.24 1242.72 1571.32 1245.91 1571.32C1247.86 1571.32 1249.66 1572.06 1250.95 1573.34L1249.51 1575.09C1248.46 1574.22 1247.38 1573.72 1245.91 1573.72C1244.28 1573.72 1243.27 1574.42 1243.27 1575.62C1243.27 1576.86 1244.55 1577.3 1245.96 1577.87L1248.03 1578.76C1250.02 1579.58 1251.43 1580.73 1251.43 1583.03C1251.43 1585.6 1249.3 1587.74 1245.63 1587.74ZM1256.49 1587.45V1571.61H1266.5V1573.94H1259.25V1578.04H1265.39V1580.37H1259.25V1585.1H1266.74V1587.45H1256.49ZM1271.6 1587.45V1571.61H1276.83C1280.07 1571.61 1282.59 1572.76 1282.59 1576.29C1282.59 1578.69 1281.34 1580.15 1279.45 1580.8L1283.22 1587.45H1280.1L1276.69 1581.23H1274.36V1587.45H1271.6ZM1274.36 1579H1276.54C1278.7 1579 1279.86 1578.09 1279.86 1576.29C1279.86 1574.44 1278.7 1573.82 1276.54 1573.82H1274.36V1579ZM1290.96 1587.45V1573.94H1286.04V1571.61H1298.69V1573.94H1293.74V1587.45H1290.96Z" fill="#FCFCFC"/>
<rect x="927" y="1835.45" width="314" height="56" rx="28" fill="#1C1C1C"/>
<rect x="928.25" y="1836.7" width="311.5" height="53.5" rx="26.75" stroke="#C7C7C7" stroke-opacity="0.1" stroke-width="2.5"/>
<path d="M968.069 1872.74C964.061 1872.74 960.917 1869.81 960.917 1864.58C960.917 1859.39 964.013 1856.32 968.165 1856.32C970.109 1856.32 971.645 1857.26 972.629 1858.29L971.093 1860.02C970.301 1859.22 969.389 1858.72 968.165 1858.72C965.549 1858.72 963.749 1860.9 963.749 1864.48C963.749 1868.1 965.549 1870.34 968.237 1870.34C969.509 1870.34 970.493 1869.74 971.381 1868.75L972.941 1870.43C971.669 1871.92 970.061 1872.74 968.069 1872.74ZM977.084 1872.45V1856.61H982.316C985.556 1856.61 988.076 1857.76 988.076 1861.29C988.076 1863.69 986.828 1865.15 984.932 1865.8L988.7 1872.45H985.58L982.172 1866.23H979.844V1872.45H977.084ZM979.844 1864H982.028C984.188 1864 985.34 1863.09 985.34 1861.29C985.34 1859.44 984.188 1858.82 982.028 1858.82H979.844V1864ZM993.154 1872.45V1856.61H1003.16V1858.94H995.914V1863.04H1002.06V1865.37H995.914V1870.1H1003.4V1872.45H993.154ZM1006.73 1872.45L1011.82 1856.61H1015.06L1020.14 1872.45H1017.22L1015.99 1868.13H1010.78L1009.54 1872.45H1006.73ZM1011.38 1865.94H1015.39L1014.84 1863.98C1014.36 1862.3 1013.88 1860.52 1013.42 1858.77H1013.33C1012.9 1860.52 1012.42 1862.3 1011.94 1863.98L1011.38 1865.94ZM1027.62 1872.45V1858.94H1022.7V1856.61H1035.35V1858.94H1030.41V1872.45H1027.62ZM1039.93 1872.45V1856.61H1049.93V1858.94H1042.69V1863.04H1048.83V1865.37H1042.69V1870.1H1050.17V1872.45H1039.93ZM1071.11 1872.45V1856.61H1081.12V1858.94H1073.87V1863.04H1080.01V1865.37H1073.87V1870.1H1081.36V1872.45H1071.11ZM1085.88 1872.45V1856.61H1088.83L1091.02 1862.8L1091.79 1865.18H1091.88L1092.6 1862.8L1094.79 1856.61H1097.74V1872.45H1095.39V1865.32C1095.39 1863.81 1095.6 1860.83 1095.75 1859.34H1095.65L1094.45 1863.21L1092.46 1868.18H1091.11L1089.1 1863.21L1087.9 1859.34H1087.83C1087.95 1860.83 1088.19 1863.81 1088.19 1865.32V1872.45H1085.88ZM1102.87 1872.45V1856.61H1107.48C1110.69 1856.61 1113.04 1857.59 1113.04 1860.5C1113.04 1861.98 1112.16 1863.45 1110.31 1863.95V1864.05C1112.59 1864.43 1113.84 1865.63 1113.84 1867.79C1113.84 1870.96 1111.32 1872.45 1107.88 1872.45H1102.87ZM1105.63 1863.18H1107.21C1109.42 1863.18 1110.33 1862.32 1110.33 1860.83C1110.33 1859.37 1109.32 1858.77 1107.28 1858.77H1105.63V1863.18ZM1105.63 1870.29H1107.6C1109.9 1870.29 1111.12 1869.42 1111.12 1867.62C1111.12 1865.92 1109.95 1865.18 1107.6 1865.18H1105.63V1870.29ZM1118.72 1872.45V1856.61H1128.73V1858.94H1121.48V1863.04H1127.63V1865.37H1121.48V1870.1H1128.97V1872.45H1118.72ZM1133.59 1872.45V1856.61H1137.65C1142.28 1856.61 1145.07 1859.22 1145.07 1864.46C1145.07 1869.69 1142.28 1872.45 1137.79 1872.45H1133.59ZM1136.38 1870.19H1137.48C1140.51 1870.19 1142.21 1868.34 1142.21 1864.46C1142.21 1860.57 1140.51 1858.84 1137.48 1858.84H1136.38V1870.19ZM1149.18 1872.45V1856.61H1153.24C1157.87 1856.61 1160.66 1859.22 1160.66 1864.46C1160.66 1869.69 1157.87 1872.45 1153.38 1872.45H1149.18ZM1151.97 1870.19H1153.07C1156.1 1870.19 1157.8 1868.34 1157.8 1864.46C1157.8 1860.57 1156.1 1858.84 1153.07 1858.84H1151.97V1870.19ZM1165.02 1872.45V1870.1H1168.78V1858.94H1165.02V1856.61H1175.36V1858.94H1171.57V1870.1H1175.36V1872.45H1165.02ZM1180.37 1872.45V1856.61H1183.17L1187.4 1865.58L1188.86 1868.94H1188.93C1188.81 1867.31 1188.55 1865.32 1188.55 1863.57V1856.61H1191.19V1872.45H1188.36L1184.16 1863.45L1182.69 1860.11H1182.62C1182.74 1861.79 1183.01 1863.69 1183.01 1865.44V1872.45H1180.37ZM1202.32 1872.74C1198.33 1872.74 1195.33 1869.81 1195.33 1864.58C1195.33 1859.37 1198.36 1856.32 1202.44 1856.32C1204.52 1856.32 1205.94 1857.3 1206.9 1858.29L1205.36 1860.02C1204.64 1859.25 1203.8 1858.72 1202.44 1858.72C1199.94 1858.72 1198.19 1860.9 1198.19 1864.48C1198.19 1868.1 1199.7 1870.34 1202.48 1870.34C1203.32 1870.34 1204.14 1870.07 1204.62 1869.62V1866.16H1201.91V1863.88H1207.12V1870.86C1206.08 1871.87 1204.33 1872.74 1202.32 1872.74Z" fill="#FCFCFC"/>
<path fill-rule="evenodd" clip-rule="evenodd" d="M859.59 1873.59C858.207 1870.5 857.438 1867.06 857.438 1863.45C857.438 1849.92 868.211 1838.95 881.5 1838.95C885.064 1838.95 888.452 1839.74 891.499 1841.16C892.843 1840.27 894.445 1839.75 896.166 1839.75C900.912 1839.75 904.76 1843.67 904.76 1848.5C904.76 1850.25 904.255 1851.88 903.386 1853.25C904.784 1856.36 905.562 1859.81 905.562 1863.45C905.562 1876.98 894.789 1887.95 881.5 1887.95C877.887 1887.95 874.456 1887.14 871.377 1885.68C870.07 1886.5 868.531 1886.97 866.884 1886.97C862.138 1886.97 858.29 1883.05 858.29 1878.22C858.29 1876.52 858.766 1874.93 859.59 1873.59ZM860.875 1863.45C860.875 1851.85 870.109 1842.45 881.5 1842.45C884.109 1842.45 886.602 1842.94 888.896 1843.84C888.058 1845.19 887.572 1846.79 887.572 1848.5C887.572 1848.66 887.576 1848.81 887.584 1848.96C885.717 1848.15 883.66 1847.7 881.5 1847.7C872.957 1847.7 866.031 1854.75 866.031 1863.45C866.031 1865.58 866.448 1867.62 867.204 1869.48C867.098 1869.47 866.991 1869.47 866.884 1869.47C865.158 1869.47 863.55 1869.99 862.203 1870.88C861.345 1868.57 860.875 1866.07 860.875 1863.45ZM874.058 1883.04C876.365 1883.95 878.874 1884.45 881.5 1884.45C892.891 1884.45 902.125 1875.05 902.125 1863.45C902.125 1860.79 901.64 1858.24 900.755 1855.9C899.427 1856.76 897.854 1857.25 896.166 1857.25C896.017 1857.25 895.869 1857.25 895.722 1857.24C896.524 1859.15 896.969 1861.24 896.969 1863.45C896.969 1872.15 890.043 1879.2 881.5 1879.2C879.362 1879.2 877.326 1878.76 875.474 1877.96C875.476 1878.04 875.478 1878.13 875.478 1878.22C875.478 1880 874.955 1881.66 874.058 1883.04ZM891.01 1848.5C891.01 1845.61 893.319 1843.25 896.166 1843.25C899.014 1843.25 901.322 1845.61 901.322 1848.5C901.322 1851.4 899.014 1853.75 896.166 1853.75C893.319 1853.75 891.01 1851.4 891.01 1848.5ZM872.576 1871.66C872.856 1871.92 873.119 1872.19 873.364 1872.47C875.506 1874.47 878.363 1875.7 881.5 1875.7C888.144 1875.7 893.531 1870.21 893.531 1863.45C893.531 1856.68 888.144 1851.2 881.5 1851.2C874.855 1851.2 869.469 1856.68 869.469 1863.45C869.469 1866.61 870.645 1869.49 872.576 1871.66ZM866.884 1872.97C868.138 1872.97 869.287 1873.43 870.181 1874.18C870.404 1874.43 870.635 1874.66 870.873 1874.89C871.602 1875.8 872.04 1876.96 872.04 1878.22C872.04 1881.12 869.732 1883.47 866.884 1883.47C864.036 1883.47 861.728 1881.12 861.728 1878.22C861.728 1875.32 864.036 1872.97 866.884 1872.97Z" fill="#171717"/>
<path d="M0.5 889.447L1600.5 889.447" stroke="#DFDFDF" stroke-width="2"/>
</g>
<defs>
<clipPath id="clip0_504_12427">
<rect width="1600" height="2089" fill="white" transform="translate(0.5)"/>
</clipPath>
</defs>
</svg>
