<svg xmlns="http://www.w3.org/2000/svg" width="1600" height="2089" fill="none" viewBox="0 0 1600 2089"><path fill="#a0a0a0" d="M218.612 1194.45v-15.84h5.28c3.432 0 5.952 1.2 5.952 4.87 0 3.5-2.568 5.11-5.952 5.11h-2.52v5.86zm2.76-8.07h2.28c2.352 0 3.456-.96 3.456-2.9 0-1.99-1.152-2.66-3.456-2.66h-2.28zm19.119 8.36c-3.624 0-6.168-3.17-6.168-8.28 0-5.14 2.544-8.14 6.168-8.14 3.648 0 6.168 3.02 6.168 8.14 0 5.11-2.52 8.28-6.168 8.28m0-2.4c2.016 0 3.336-2.31 3.336-5.88 0-3.58-1.32-5.74-3.336-5.74s-3.312 2.16-3.312 5.74c0 3.57 1.296 5.88 3.312 5.88m16.838 2.4c-2.208 0-4.296-.84-5.832-2.33l1.608-1.9c1.176 1.08 2.736 1.83 4.272 1.83 1.944 0 2.928-.82 2.928-2.09 0-1.32-1.056-1.73-2.616-2.35l-2.136-.94c-1.68-.65-3.384-1.9-3.384-4.2 0-2.52 2.256-4.44 5.448-4.44 1.944 0 3.744.74 5.04 2.02l-1.44 1.75c-1.056-.87-2.136-1.37-3.6-1.37-1.632 0-2.64.7-2.64 1.9 0 1.24 1.272 1.68 2.688 2.25l2.064.89c1.992.82 3.408 1.97 3.408 4.27 0 2.57-2.136 4.71-5.808 4.71m15.351-.29v-13.51h-4.92v-2.33h12.648v2.33h-4.944v13.51zm19.142.29c-3.984 0-6.984-2.93-6.984-8.16 0-5.21 3.024-8.26 7.104-8.26 2.088 0 3.504.98 4.464 1.97l-1.536 1.73c-.72-.77-1.56-1.3-2.928-1.3-2.496 0-4.248 2.18-4.248 5.76 0 3.62 1.512 5.86 4.296 5.86.84 0 1.656-.27 2.136-.72v-3.46h-2.712v-2.28h5.208v6.98c-1.032 1.01-2.784 1.88-4.8 1.88m10.671-.29v-15.84h5.232c3.24 0 5.76 1.15 5.76 4.68 0 2.4-1.248 3.86-3.144 4.51l3.768 6.65h-3.12l-3.408-6.22h-2.328v6.22zm2.76-8.45h2.184c2.16 0 3.312-.91 3.312-2.71 0-1.85-1.152-2.47-3.312-2.47h-2.184zm14.511 8.45v-15.84h10.008v2.33h-7.248v4.1h6.144v2.33h-6.144v4.73h7.488v2.35zm21.518.29c-2.208 0-4.296-.84-5.832-2.33l1.608-1.9c1.176 1.08 2.736 1.83 4.272 1.83 1.944 0 2.928-.82 2.928-2.09 0-1.32-1.056-1.73-2.616-2.35l-2.136-.94c-1.68-.65-3.384-1.9-3.384-4.2 0-2.52 2.256-4.44 5.448-4.44 1.944 0 3.744.74 5.04 2.02l-1.44 1.75c-1.056-.87-2.136-1.37-3.6-1.37-1.632 0-2.64.7-2.64 1.9 0 1.24 1.272 1.68 2.688 2.25l2.064.89c1.992.82 3.408 1.97 3.408 4.27 0 2.57-2.136 4.71-5.808 4.71m32.142-.29v-13.51h-4.92v-2.33h12.648v2.33h-4.944v13.51zm11.486 0 5.088-15.84h3.24l5.088 15.84h-2.928l-1.224-4.32h-5.208l-1.248 4.32zm4.656-6.51h4.008l-.552-1.96c-.48-1.68-.96-3.46-1.416-5.21h-.096c-.432 1.75-.912 3.53-1.392 5.21zm13.887 6.51v-15.84h4.608c3.216 0 5.568.98 5.568 3.89 0 1.48-.888 2.95-2.736 3.45v.1c2.28.38 3.528 1.58 3.528 3.74 0 3.17-2.52 4.66-5.952 4.66zm2.76-9.27h1.584c2.208 0 3.12-.86 3.12-2.35 0-1.46-1.008-2.06-3.048-2.06h-1.656zm0 7.11h1.968c2.304 0 3.528-.87 3.528-2.67 0-1.7-1.176-2.44-3.528-2.44h-1.968zm14.679 2.16v-15.84h2.736v13.49h7.392v2.35zm16.406 0v-15.84h10.008v2.33h-7.248v4.1h6.144v2.33h-6.144v4.73h7.488v2.35z"/><rect width="1142" height="345" x="216.5" y="1221.45" fill="#4d4d4d" fill-opacity=".1" rx="32"/><rect width="1142" height="345" x="216.5" y="1221.45" stroke="#4d4d4d" stroke-linecap="round" stroke-width="2" rx="32"/><rect width="346" height="102" x="828.5" y="1812.45" fill="#4d4d4d" fill-opacity=".1" rx="16"/><rect width="346" height="102" x="828.5" y="1812.45" stroke="#4d4d4d" stroke-linecap="round" stroke-width="2" rx="16"/><path fill="#a0a0a0" d="M218.612 256.225v-15.84h5.28c3.432 0 5.952 1.2 5.952 4.872 0 3.504-2.568 5.112-5.952 5.112h-2.52v5.856zm2.76-8.064h2.28c2.352 0 3.456-.96 3.456-2.904 0-1.992-1.152-2.664-3.456-2.664h-2.28zm19.119 8.352c-3.624 0-6.168-3.168-6.168-8.28 0-5.136 2.544-8.136 6.168-8.136 3.648 0 6.168 3.024 6.168 8.136s-2.52 8.28-6.168 8.28m0-2.4c2.016 0 3.336-2.304 3.336-5.88s-1.32-5.736-3.336-5.736-3.312 2.16-3.312 5.736 1.296 5.88 3.312 5.88m16.838 2.4c-2.208 0-4.296-.84-5.832-2.328l1.608-1.896c1.176 1.08 2.736 1.824 4.272 1.824 1.944 0 2.928-.816 2.928-2.088 0-1.32-1.056-1.728-2.616-2.352l-2.136-.936c-1.68-.648-3.384-1.896-3.384-4.2 0-2.52 2.256-4.44 5.448-4.44 1.944 0 3.744.744 5.04 2.016l-1.44 1.752c-1.056-.864-2.136-1.368-3.6-1.368-1.632 0-2.64.696-2.64 1.896 0 1.248 1.272 1.68 2.688 2.256l2.064.888c1.992.816 3.408 1.968 3.408 4.272 0 2.568-2.136 4.704-5.808 4.704m15.351-.288v-13.512h-4.92v-2.328h12.648v2.328h-4.944v13.512zm19.142.288c-3.984 0-6.984-2.928-6.984-8.16 0-5.208 3.024-8.256 7.104-8.256 2.088 0 3.504.984 4.464 1.968l-1.536 1.728c-.72-.768-1.56-1.296-2.928-1.296-2.496 0-4.248 2.184-4.248 5.76 0 3.624 1.512 5.856 4.296 5.856.84 0 1.656-.264 2.136-.72v-3.456h-2.712v-2.28h5.208v6.984c-1.032 1.008-2.784 1.872-4.8 1.872m10.671-.288v-15.84h5.232c3.24 0 5.76 1.152 5.76 4.68 0 2.4-1.248 3.864-3.144 4.512l3.768 6.648h-3.12l-3.408-6.216h-2.328v6.216zm2.76-8.448h2.184c2.16 0 3.312-.912 3.312-2.712 0-1.848-1.152-2.472-3.312-2.472h-2.184zm14.511 8.448v-15.84h10.008v2.328h-7.248v4.104h6.144v2.328h-6.144v4.728h7.488v2.352zm21.518.288c-2.208 0-4.296-.84-5.832-2.328l1.608-1.896c1.176 1.08 2.736 1.824 4.272 1.824 1.944 0 2.928-.816 2.928-2.088 0-1.32-1.056-1.728-2.616-2.352l-2.136-.936c-1.68-.648-3.384-1.896-3.384-4.2 0-2.52 2.256-4.44 5.448-4.44 1.944 0 3.744.744 5.04 2.016l-1.44 1.752c-1.056-.864-2.136-1.368-3.6-1.368-1.632 0-2.64.696-2.64 1.896 0 1.248 1.272 1.68 2.688 2.256l2.064.888c1.992.816 3.408 1.968 3.408 4.272 0 2.568-2.136 4.704-5.808 4.704m32.142-.288v-13.512h-4.92v-2.328h12.648v2.328h-4.944v13.512zm11.486 0 5.088-15.84h3.24l5.088 15.84h-2.928l-1.224-4.32h-5.208l-1.248 4.32zm4.656-6.504h4.008l-.552-1.968c-.48-1.68-.96-3.456-1.416-5.208h-.096a149 149 0 0 1-1.392 5.208zm13.887 6.504v-15.84h4.608c3.216 0 5.568.984 5.568 3.888 0 1.488-.888 2.952-2.736 3.456v.096c2.28.384 3.528 1.584 3.528 3.744 0 3.168-2.52 4.656-5.952 4.656zm2.76-9.264h1.584c2.208 0 3.12-.864 3.12-2.352 0-1.464-1.008-2.064-3.048-2.064h-1.656zm0 7.104h1.968c2.304 0 3.528-.864 3.528-2.664 0-1.704-1.176-2.448-3.528-2.448h-1.968zm14.679 2.16v-15.84h2.736v13.488h7.392v2.352zm16.406 0v-15.84h10.008v2.328h-7.248v4.104h6.144v2.328h-6.144v4.728h7.488v2.352z"/><rect width="1142" height="356" x="216.5" y="283.225" fill="#4d4d4d" fill-opacity=".1" rx="32"/><rect width="1142" height="356" x="216.5" y="283.225" stroke="#4d4d4d" stroke-linecap="round" stroke-width="2" rx="32"/><rect width="710" height="64" x="249.238" y="360.225" fill="#4d4d4d" fill-opacity=".1" rx="16"/><rect width="710" height="64" x="249.238" y="360.225" stroke="#4d4d4d" stroke-linecap="round" stroke-width="2" rx="16"/><rect width="710" height="64" x="249.238" y="1298.45" fill="#4d4d4d" fill-opacity=".1" rx="16"/><rect width="710" height="64" x="249.238" y="1298.45" stroke="#4d4d4d" stroke-linecap="round" stroke-width="2" rx="16"/><rect width="300" height="64" x="1026.5" y="360.225" fill="#3dcf8e" fill-opacity=".05" rx="16"/><rect width="300" height="64" x="1026.5" y="360.225" stroke="#3ecf8e" stroke-linecap="round" stroke-width="2" rx="16"/><rect width="300" height="64" x="1026.5" y="1298.45" fill="#3dcf8e" fill-opacity=".05" rx="16"/><rect width="300" height="64" x="1026.5" y="1298.45" stroke="#3ecf8e" stroke-linecap="round" stroke-width="2" rx="16"/><rect width="300" height="64" x="1026.5" y="443.225" fill="#3dcf8e" fill-opacity=".05" rx="16"/><rect width="300" height="64" x="1026.5" y="443.225" stroke="#3ecf8e" stroke-linecap="round" stroke-width="2" rx="16"/><rect width="300" height="64" x="1026.5" y="1381.45" fill="#3dcf8e" fill-opacity=".05" rx="16"/><rect width="300" height="64" x="1026.5" y="1381.45" stroke="#3ecf8e" stroke-linecap="round" stroke-width="2" rx="16"/><rect width="300" height="64" x="1026.5" y="1463.45" stroke="#4d4d4d" stroke-dasharray="8 16" stroke-linecap="round" stroke-width="2" rx="16"/><rect width="300" height="64" x="1083.5" y="1665.45" fill="#3dcf8e" fill-opacity=".05" rx="16"/><rect width="300" height="64" x="1083.5" y="1665.45" stroke="#3ecf8e" stroke-linecap="round" stroke-width="2" rx="16"/><rect width="710" height="64" x="249.5" y="443.225" fill="#4d4d4d" fill-opacity=".1" rx="16"/><rect width="710" height="64" x="249.5" y="443.225" stroke="#4d4d4d" stroke-linecap="round" stroke-width="2" rx="16"/><rect width="710" height="64" x="249.5" y="1381.45" fill="#4d4d4d" fill-opacity=".1" rx="16"/><rect width="710" height="64" x="249.5" y="1381.45" stroke="#4d4d4d" stroke-linecap="round" stroke-width="2" rx="16"/><rect width="710" height="64" x="249.5" y="531.777" stroke="#4d4d4d" stroke-dasharray="8 16" stroke-linecap="round" stroke-width="2" rx="16"/><rect width="710" height="65" x="455.5" y="724.225" fill="#4d4d4d" fill-opacity=".1" rx="16"/><rect width="710" height="65" x="455.5" y="724.225" stroke="#a0a0a0" stroke-linecap="round" stroke-width="2" rx="16"/><rect width="710" height="65" x="249.5" y="1462.45" fill="#4d4d4d" fill-opacity=".1" rx="16"/><rect width="710" height="65" x="249.5" y="1462.45" stroke="#a0a0a0" stroke-linecap="round" stroke-width="2" rx="16"/><path fill="#ededed" d="M554.881 570.5a1 1 0 0 1 1.414.036l6.201 6.522a1.001 1.001 0 0 1-1.45 1.378l-5.512-5.798-5.798 5.512a1 1 0 1 1-1.378-1.449zm37.837 130.348c-13.436-16.832-39.752-66.2-38.148-129.649l1.999.051c-1.59 62.919 24.531 111.837 37.713 128.351z"/><path fill="#fd880b" d="M800.81 1862.1a.995.995 0 0 0 .042-1.41l-6.168-6.55a.99.99 0 0 0-1.413-.05 1.006 1.006 0 0 0-.043 1.42l5.483 5.82-5.826 5.49a.996.996 0 0 0-.043 1.41c.379.4 1.012.42 1.414.04zm-433.671-320.09c3.164 88.1 34.19 165.91 103.128 222.84 68.91 56.91 175.577 92.85 329.827 97.52l.061-1.99c-154.002-4.67-260.172-40.55-328.614-97.07-68.414-56.5-99.255-133.72-102.403-221.38z"/><path fill="#ededed" d="M1253.58 1747.07c-.39-.39-1.03-.39-1.42 0l-6.36 6.36c-.39.39-.39 1.03 0 1.42s1.02.39 1.41 0l5.66-5.66 5.66 5.66c.39.39 1.02.39 1.41 0s.39-1.03 0-1.42zm-50.15 75.27c27.2-14.11 50.44-39.39 50.44-74.56h-2c0 34.16-22.56 58.88-49.36 72.78zM1170.74 1505.99c-.52.21-.76.79-.55 1.31l3.41 8.33c.2.51.79.75 1.3.54s.76-.79.55-1.3l-3.03-7.41 7.4-3.02c.51-.21.76-.8.55-1.31a.993.993 0 0 0-1.3-.54zm85.63 141.4c-1.11-18.11-6.68-46.86-19.77-74.36-13.08-27.51-33.74-53.88-65.1-67.03l-.77 1.84c30.74 12.9 51.1 38.8 64.07 66.05 12.96 27.24 18.47 55.74 19.57 73.62z"/><path fill="#a0a0a0" d="M255.308 329.672V316.16h-4.92v-2.328h12.648v2.328h-4.944v13.512zm13.503 0v-15.84h10.008v2.328h-7.248v4.104h6.144v2.328h-6.144v4.728h7.488v2.352zm15.134 0 4.632-8.16-4.344-7.68h3.096l1.848 3.528c.384.72.744 1.464 1.248 2.424h.096c.408-.96.72-1.704 1.08-2.424l1.776-3.528h2.952l-4.344 7.8 4.632 8.04h-3.072l-2.04-3.768c-.432-.792-.84-1.608-1.32-2.568h-.096a37 37 0 0 1-1.2 2.544l-1.992 3.792zm21.735 0V316.16h-4.92v-2.328h12.648v2.328h-4.944v13.512zm36.389.288c-4.008 0-7.152-2.928-7.152-8.16 0-5.184 3.096-8.256 7.248-8.256 1.944 0 3.48.936 4.464 1.968l-1.536 1.728c-.792-.792-1.704-1.296-2.928-1.296-2.616 0-4.416 2.184-4.416 5.76 0 3.624 1.8 5.856 4.488 5.856 1.272 0 2.256-.6 3.144-1.584l1.56 1.68c-1.272 1.488-2.88 2.304-4.872 2.304m15.375 0c-3.624 0-6.168-3.168-6.168-8.28 0-5.136 2.544-8.136 6.168-8.136 3.648 0 6.168 3.024 6.168 8.136s-2.52 8.28-6.168 8.28m0-2.4c2.016 0 3.336-2.304 3.336-5.88s-1.32-5.736-3.336-5.736-3.312 2.16-3.312 5.736 1.296 5.88 3.312 5.88m12.494 2.112v-15.84h2.736v13.488h7.392v2.352zm21.135.288c-3.456 0-5.52-1.992-5.52-6.336v-9.792h2.76v9.984c0 2.616 1.056 3.744 2.76 3.744 1.68 0 2.76-1.128 2.76-3.744v-9.984h2.688v9.792c0 4.344-2.016 6.336-5.448 6.336m11.247-.288v-15.84h2.952l2.184 6.192.768 2.376h.096l.72-2.376 2.184-6.192h2.952v15.84h-2.352v-7.128c0-1.512.216-4.488.36-5.976h-.096l-1.2 3.864-1.992 4.968h-1.344l-2.016-4.968-1.2-3.864h-.072c.12 1.488.36 4.464.36 5.976v7.128zm17.73 0v-15.84h2.808l4.224 8.976 1.464 3.36h.072c-.12-1.632-.384-3.624-.384-5.376v-6.96h2.64v15.84h-2.832l-4.2-9-1.464-3.336h-.072c.12 1.68.384 3.576.384 5.328v7.008zM255.308 1267.89v-13.51h-4.92v-2.33h12.648v2.33h-4.944v13.51zm13.503 0v-15.84h10.008v2.33h-7.248v4.11h6.144v2.32h-6.144v4.73h7.488v2.35zm15.134 0 4.632-8.16-4.344-7.68h3.096l1.848 3.53c.384.72.744 1.47 1.248 2.43h.096c.408-.96.72-1.71 1.08-2.43l1.776-3.53h2.952l-4.344 7.8 4.632 8.04h-3.072l-2.04-3.76c-.432-.8-.84-1.61-1.32-2.57h-.096c-.408.96-.792 1.75-1.2 2.54l-1.992 3.79zm21.735 0v-13.51h-4.92v-2.33h12.648v2.33h-4.944v13.51zm36.389.29c-4.008 0-7.152-2.93-7.152-8.16 0-5.18 3.096-8.25 7.248-8.25 1.944 0 3.48.93 4.464 1.96l-1.536 1.73c-.792-.79-1.704-1.29-2.928-1.29-2.616 0-4.416 2.18-4.416 5.76 0 3.62 1.8 5.85 4.488 5.85 1.272 0 2.256-.6 3.144-1.58l1.56 1.68c-1.272 1.49-2.88 2.3-4.872 2.3m15.375 0c-3.624 0-6.168-3.17-6.168-8.28 0-5.13 2.544-8.13 6.168-8.13 3.648 0 6.168 3.02 6.168 8.13s-2.52 8.28-6.168 8.28m0-2.4c2.016 0 3.336-2.3 3.336-5.88 0-3.57-1.32-5.73-3.336-5.73s-3.312 2.16-3.312 5.73c0 3.58 1.296 5.88 3.312 5.88m12.494 2.11v-15.84h2.736v13.49h7.392v2.35zm21.135.29c-3.456 0-5.52-1.99-5.52-6.33v-9.8h2.76v9.99c0 2.61 1.056 3.74 2.76 3.74 1.68 0 2.76-1.13 2.76-3.74v-9.99h2.688v9.8c0 4.34-2.016 6.33-5.448 6.33m11.247-.29v-15.84h2.952l2.184 6.2.768 2.37h.096l.72-2.37 2.184-6.2h2.952v15.84h-2.352v-7.12c0-1.52.216-4.49.36-5.98h-.096l-1.2 3.86-1.992 4.97h-1.344l-2.016-4.97-1.2-3.86h-.072c.12 1.49.36 4.46.36 5.98v7.12zm17.73 0v-15.84h2.808l4.224 8.98 1.464 3.36h.072c-.12-1.63-.384-3.62-.384-5.38v-6.96h2.64v15.84h-2.832l-4.2-9-1.464-3.33h-.072c.12 1.68.384 3.57.384 5.33v7zM1032.07 329.672l-4.87-15.84h2.92l2.24 7.992c.5 1.8.84 3.336 1.36 5.16h.1c.53-1.824.89-3.36 1.39-5.16l2.19-7.992h2.8l-4.84 15.84zm13.74 0v-15.84h10.01v2.328h-7.25v4.104h6.14v2.328h-6.14v4.728h7.49v2.352zm22.89.288c-4.01 0-7.15-2.928-7.15-8.16 0-5.184 3.09-8.256 7.24-8.256 1.95 0 3.48.936 4.47 1.968l-1.54 1.728c-.79-.792-1.7-1.296-2.93-1.296-2.61 0-4.41 2.184-4.41 5.76 0 3.624 1.8 5.856 4.49 5.856 1.27 0 2.25-.6 3.14-1.584l1.56 1.68c-1.27 1.488-2.88 2.304-4.87 2.304m13.98-.288V316.16h-4.92v-2.328h12.65v2.328h-4.95v13.512zm18.18.288c-3.62 0-6.17-3.168-6.17-8.28 0-5.136 2.55-8.136 6.17-8.136 3.65 0 6.17 3.024 6.17 8.136s-2.52 8.28-6.17 8.28m0-2.4c2.02 0 3.34-2.304 3.34-5.88s-1.32-5.736-3.34-5.736c-2.01 0-3.31 2.16-3.31 5.736s1.3 5.88 3.31 5.88m11.63 2.112v-15.84h5.24c3.24 0 5.76 1.152 5.76 4.68 0 2.4-1.25 3.864-3.15 4.512l3.77 6.648h-3.12l-3.41-6.216h-2.33v6.216zm2.76-8.448h2.19c2.16 0 3.31-.912 3.31-2.712 0-1.848-1.15-2.472-3.31-2.472h-2.19zm37.4 8.736c-4.01 0-7.15-2.928-7.15-8.16 0-5.184 3.09-8.256 7.25-8.256 1.94 0 3.48.936 4.46 1.968l-1.54 1.728c-.79-.792-1.7-1.296-2.92-1.296-2.62 0-4.42 2.184-4.42 5.76 0 3.624 1.8 5.856 4.49 5.856 1.27 0 2.25-.6 3.14-1.584l1.56 1.68c-1.27 1.488-2.88 2.304-4.87 2.304m15.37 0c-3.62 0-6.16-3.168-6.16-8.28 0-5.136 2.54-8.136 6.16-8.136 3.65 0 6.17 3.024 6.17 8.136s-2.52 8.28-6.17 8.28m0-2.4c2.02 0 3.34-2.304 3.34-5.88s-1.32-5.736-3.34-5.736c-2.01 0-3.31 2.16-3.31 5.736s1.3 5.88 3.31 5.88m12.5 2.112v-15.84h2.74v13.488h7.39v2.352zm21.13.288c-3.45 0-5.52-1.992-5.52-6.336v-9.792h2.76v9.984c0 2.616 1.06 3.744 2.76 3.744 1.68 0 2.76-1.128 2.76-3.744v-9.984h2.69v9.792c0 4.344-2.01 6.336-5.45 6.336m11.25-.288v-15.84h2.95l2.19 6.192.76 2.376h.1l.72-2.376 2.18-6.192h2.96v15.84h-2.36v-7.128c0-1.512.22-4.488.36-5.976h-.09l-1.2 3.864-1.99 4.968h-1.35l-2.01-4.968-1.2-3.864h-.08c.12 1.488.36 4.464.36 5.976v7.128zm17.73 0v-15.84h2.81l4.22 8.976 1.47 3.36h.07c-.12-1.632-.38-3.624-.38-5.376v-6.96h2.64v15.84h-2.84l-4.2-9-1.46-3.336h-.07c.12 1.68.38 3.576.38 5.328v7.008zM1032.07 1267.89l-4.87-15.84h2.92l2.24 8c.5 1.8.84 3.33 1.36 5.16h.1c.53-1.83.89-3.36 1.39-5.16l2.19-8h2.8l-4.84 15.84zm13.74 0v-15.84h10.01v2.33h-7.25v4.11h6.14v2.32h-6.14v4.73h7.49v2.35zm22.89.29c-4.01 0-7.15-2.93-7.15-8.16 0-5.18 3.09-8.25 7.24-8.25 1.95 0 3.48.93 4.47 1.96l-1.54 1.73c-.79-.79-1.7-1.29-2.93-1.29-2.61 0-4.41 2.18-4.41 5.76 0 3.62 1.8 5.85 4.49 5.85 1.27 0 2.25-.6 3.14-1.58l1.56 1.68c-1.27 1.49-2.88 2.3-4.87 2.3m13.98-.29v-13.51h-4.92v-2.33h12.65v2.33h-4.95v13.51zm18.18.29c-3.62 0-6.17-3.17-6.17-8.28 0-5.13 2.55-8.13 6.17-8.13 3.65 0 6.17 3.02 6.17 8.13s-2.52 8.28-6.17 8.28m0-2.4c2.02 0 3.34-2.3 3.34-5.88 0-3.57-1.32-5.73-3.34-5.73-2.01 0-3.31 2.16-3.31 5.73 0 3.58 1.3 5.88 3.31 5.88m11.63 2.11v-15.84h5.24c3.24 0 5.76 1.16 5.76 4.68 0 2.4-1.25 3.87-3.15 4.52l3.77 6.64h-3.12l-3.41-6.21h-2.33v6.21zm2.76-8.44h2.19c2.16 0 3.31-.92 3.31-2.72 0-1.84-1.15-2.47-3.31-2.47h-2.19zm37.4 8.73c-4.01 0-7.15-2.93-7.15-8.16 0-5.18 3.09-8.25 7.25-8.25 1.94 0 3.48.93 4.46 1.96l-1.54 1.73c-.79-.79-1.7-1.29-2.92-1.29-2.62 0-4.42 2.18-4.42 5.76 0 3.62 1.8 5.85 4.49 5.85 1.27 0 2.25-.6 3.14-1.58l1.56 1.68c-1.27 1.49-2.88 2.3-4.87 2.3m15.37 0c-3.62 0-6.16-3.17-6.16-8.28 0-5.13 2.54-8.13 6.16-8.13 3.65 0 6.17 3.02 6.17 8.13s-2.52 8.28-6.17 8.28m0-2.4c2.02 0 3.34-2.3 3.34-5.88 0-3.57-1.32-5.73-3.34-5.73-2.01 0-3.31 2.16-3.31 5.73 0 3.58 1.3 5.88 3.31 5.88m12.5 2.11v-15.84h2.74v13.49h7.39v2.35zm21.13.29c-3.45 0-5.52-1.99-5.52-6.33v-9.8h2.76v9.99c0 2.61 1.06 3.74 2.76 3.74 1.68 0 2.76-1.13 2.76-3.74v-9.99h2.69v9.8c0 4.34-2.01 6.33-5.45 6.33m11.25-.29v-15.84h2.95l2.19 6.2.76 2.37h.1l.72-2.37 2.18-6.2h2.96v15.84h-2.36v-7.12c0-1.52.22-4.49.36-5.98h-.09l-1.2 3.86-1.99 4.97h-1.35l-2.01-4.97-1.2-3.86h-.08c.12 1.49.36 4.46.36 5.98v7.12zm17.73 0v-15.84h2.81l4.22 8.98 1.47 3.36h.07c-.12-1.63-.38-3.62-.38-5.38v-6.96h2.64v15.84h-2.84l-4.2-9-1.46-3.33h-.07c.12 1.68.38 3.57.38 5.33v7z"/><path stroke="#2e2e2e" stroke-width="2" d="M985.5 320.672v291.553M985.5 1258.89v291.56"/><rect width="466.5" height="101.5" x="250.488" y="1698.7" fill="#543112" rx="50.75"/><rect width="466.5" height="101.5" x="250.488" y="1698.7" stroke="#fd880b" stroke-width="2.5" rx="50.75"/><rect width="76" height="37.807" x="304.238" y="1749.45" fill="#ededed" rx="11"/><path fill="#fd880b" d="M361.413 1740.45v-15.84h4.056c4.632 0 7.416 2.61 7.416 7.85 0 5.23-2.784 7.99-7.272 7.99zm2.784-2.26h1.104c3.024 0 4.728-1.85 4.728-5.73 0-3.89-1.704-5.62-4.728-5.62h-1.104zm11.511 2.26 5.088-15.84h3.24l5.088 15.84h-2.928l-1.224-4.32h-5.208l-1.248 4.32zm4.656-6.51h4.008l-.552-1.96c-.48-1.68-.96-3.46-1.416-5.21h-.096c-.432 1.75-.912 3.53-1.392 5.21zm16.239 6.51v-13.51h-4.92v-2.33h12.648v2.33h-4.944v13.51zm10.286 0 5.088-15.84h3.24l5.088 15.84h-2.928l-1.224-4.32h-5.208l-1.248 4.32zm4.656-6.51h4.008l-.552-1.96c-.48-1.68-.96-3.46-1.416-5.21h-.096c-.432 1.75-.912 3.53-1.392 5.21zm12.687 6.51v-15.84h4.608c3.216 0 5.568.98 5.568 3.89 0 1.48-.888 2.95-2.736 3.45v.1c2.28.38 3.528 1.58 3.528 3.74 0 3.17-2.52 4.66-5.952 4.66zm2.76-9.27h1.584c2.208 0 3.12-.86 3.12-2.35 0-1.46-1.008-2.06-3.048-2.06h-1.656zm0 7.11h1.968c2.304 0 3.528-.87 3.528-2.67 0-1.7-1.176-2.44-3.528-2.44h-1.968zm11.078 2.16 5.088-15.84h3.24l5.088 15.84h-2.928l-1.224-4.32h-5.208l-1.248 4.32zm4.656-6.51h4.008l-.552-1.96c-.48-1.68-.96-3.46-1.416-5.21h-.096c-.432 1.75-.912 3.53-1.392 5.21zm17.679 6.8c-2.208 0-4.296-.84-5.832-2.33l1.608-1.9c1.176 1.08 2.736 1.83 4.272 1.83 1.944 0 2.928-.82 2.928-2.09 0-1.32-1.056-1.73-2.616-2.35l-2.136-.94c-1.68-.65-3.384-1.9-3.384-4.2 0-2.52 2.256-4.44 5.448-4.44 1.944 0 3.744.74 5.04 2.02l-1.44 1.75c-1.056-.87-2.136-1.37-3.6-1.37-1.632 0-2.64.7-2.64 1.9 0 1.24 1.272 1.68 2.688 2.25l2.064.89c1.992.82 3.408 1.97 3.408 4.27 0 2.57-2.136 4.71-5.808 4.71m10.863-.29v-15.84h10.008v2.33h-7.248v4.1h6.144v2.33h-6.144v4.73h7.488v2.35zm31.085 0-2.256-15.87h2.808l.888 9.22c.048 1.34.144 2.66.216 3.98h.072c.288-1.32.624-2.66.912-3.98l1.368-5.14h1.776l1.344 5.14c.264 1.3.624 2.64.912 3.98h.096l.216-3.98.84-9.22h2.616l-2.136 15.87h-2.952l-1.392-5.86c-.192-.96-.384-1.99-.504-2.93h-.072c-.144.94-.312 1.97-.528 2.93l-1.32 5.86zm15.687 0v-15.84h10.008v2.33H520.8v4.1h6.144v2.33H520.8v4.73h7.488v2.35zm15.326 0v-15.84h4.608c3.216 0 5.568.98 5.568 3.89 0 1.48-.888 2.95-2.736 3.45v.1c2.28.38 3.528 1.58 3.528 3.74 0 3.17-2.52 4.66-5.952 4.66zm2.76-9.27h1.584c2.208 0 3.12-.86 3.12-2.35 0-1.46-1.008-2.06-3.048-2.06h-1.656zm0 7.11h1.968c2.304 0 3.528-.87 3.528-2.67 0-1.7-1.176-2.44-3.528-2.44h-1.968zm12.303 2.16v-15.84h2.76v6.38h5.424v-6.38h2.784v15.84h-2.784v-7.06h-5.424v7.06zm21.062.29c-3.624 0-6.168-3.17-6.168-8.28 0-5.14 2.544-8.14 6.168-8.14 3.648 0 6.168 3.02 6.168 8.14 0 5.11-2.52 8.28-6.168 8.28m0-2.4c2.016 0 3.336-2.31 3.336-5.88 0-3.58-1.32-5.74-3.336-5.74s-3.312 2.16-3.312 5.74c0 3.57 1.296 5.88 3.312 5.88m15.591 2.4c-3.624 0-6.168-3.17-6.168-8.28 0-5.14 2.544-8.14 6.168-8.14 3.648 0 6.168 3.02 6.168 8.14 0 5.11-2.52 8.28-6.168 8.28m0-2.4c2.016 0 3.336-2.31 3.336-5.88 0-3.58-1.32-5.74-3.336-5.74s-3.312 2.16-3.312 5.74c0 3.57 1.296 5.88 3.312 5.88m10.383 2.11v-15.84h2.808v7.22h.072l5.616-7.22h3.072l-4.824 6.17 5.352 9.67h-3.072l-3.936-7.49-2.28 2.83v4.66z"/><path fill="#232323" d="M314.532 1776.45v-15.84h5.28c3.432 0 5.952 1.2 5.952 4.87 0 3.5-2.568 5.11-5.952 5.11h-2.52v5.86zm2.76-8.07h2.28c2.352 0 3.456-.96 3.456-2.9 0-1.99-1.152-2.66-3.456-2.66h-2.28zm17.918 8.36c-3.624 0-6.168-3.17-6.168-8.28 0-5.14 2.544-8.14 6.168-8.14 3.648 0 6.168 3.02 6.168 8.14 0 5.11-2.52 8.28-6.168 8.28m0-2.4c2.016 0 3.336-2.31 3.336-5.88 0-3.58-1.32-5.74-3.336-5.74s-3.312 2.16-3.312 5.74c0 3.57 1.296 5.88 3.312 5.88m15.639 2.4c-2.208 0-4.296-.84-5.832-2.33l1.608-1.9c1.176 1.08 2.736 1.83 4.272 1.83 1.944 0 2.928-.82 2.928-2.09 0-1.32-1.056-1.73-2.616-2.35l-2.136-.94c-1.68-.65-3.384-1.9-3.384-4.2 0-2.52 2.256-4.44 5.448-4.44 1.944 0 3.744.74 5.04 2.02l-1.44 1.75c-1.056-.87-2.136-1.37-3.6-1.37-1.632 0-2.64.7-2.64 1.9 0 1.24 1.272 1.68 2.688 2.25l2.064.89c1.992.82 3.408 1.97 3.408 4.27 0 2.57-2.136 4.71-5.808 4.71m14.15-.29v-13.51h-4.92v-2.33h12.648v2.33h-4.944v13.51z"/><path fill="#ededed" d="m391.261 1777.34 10.272-17.93h2.376l-10.296 17.93zm23.318-.6c-4.008 0-7.152-2.93-7.152-8.16 0-5.19 3.096-8.26 7.248-8.26 1.944 0 3.48.94 4.464 1.97l-1.536 1.73c-.792-.8-1.704-1.3-2.928-1.3-2.616 0-4.416 2.18-4.416 5.76 0 3.62 1.8 5.86 4.488 5.86 1.272 0 2.256-.6 3.144-1.59l1.56 1.68c-1.272 1.49-2.88 2.31-4.872 2.31m14.175 0c-3.624 0-6.168-3.17-6.168-8.28 0-5.14 2.544-8.14 6.168-8.14 3.648 0 6.168 3.02 6.168 8.14 0 5.11-2.52 8.28-6.168 8.28m0-2.4c2.016 0 3.336-2.31 3.336-5.88 0-3.58-1.32-5.74-3.336-5.74s-3.312 2.16-3.312 5.74c0 3.57 1.296 5.88 3.312 5.88m10.191 2.11v-15.84h2.808l4.224 8.97 1.464 3.36h.072c-.12-1.63-.384-3.62-.384-5.37v-6.96h2.64v15.84h-2.832l-4.2-9-1.464-3.34h-.072c.12 1.68.384 3.58.384 5.33v7.01zm19.358 0-4.872-15.84h2.928l2.232 7.99c.504 1.8.84 3.34 1.368 5.16h.096c.528-1.82.888-3.36 1.392-5.16l2.184-7.99h2.808l-4.848 15.84zm12.543 0v-15.84h10.008v2.33h-7.248v4.1h6.144v2.33h-6.144v4.73h7.488v2.35zm15.11 0v-15.84h5.232c3.24 0 5.76 1.15 5.76 4.68 0 2.4-1.248 3.86-3.144 4.51l3.768 6.65h-3.12l-3.408-6.22h-2.328v6.22zm2.76-8.45h2.184c2.16 0 3.312-.91 3.312-2.71 0-1.85-1.152-2.47-3.312-2.47h-2.184zm16.599 8.45v-13.51h-4.92v-2.33h12.648v2.33h-4.944v13.51zm11.655-6.94v-1.99h10.68v1.99zm16.238 6.94v-15.84h10.008v2.33h-7.248v4.1h6.144v2.33h-6.144v4.73h7.488v2.35zm14.775 0v-15.84h2.952l2.184 6.19.768 2.38h.096l.72-2.38 2.184-6.19h2.952v15.84h-2.352v-7.13c0-1.51.216-4.49.36-5.98h-.096l-1.2 3.87-1.992 4.97h-1.344l-2.016-4.97-1.2-3.87h-.072c.12 1.49.36 4.47.36 5.98v7.13zm16.986 0v-15.84h4.608c3.216 0 5.568.98 5.568 3.89 0 1.48-.888 2.95-2.736 3.45v.1c2.28.38 3.528 1.58 3.528 3.74 0 3.17-2.52 4.66-5.952 4.66zm2.76-9.27h1.584c2.208 0 3.12-.86 3.12-2.35 0-1.46-1.008-2.06-3.048-2.06h-1.656zm0 7.11h1.968c2.304 0 3.528-.87 3.528-2.67 0-1.7-1.176-2.44-3.528-2.44h-1.968zm13.095 2.16v-15.84h10.008v2.33h-7.248v4.1h6.144v2.33h-6.144v4.73h7.488v2.35zm14.871 0v-15.84h4.056c4.632 0 7.416 2.61 7.416 7.85 0 5.23-2.784 7.99-7.272 7.99zm2.784-2.26h1.104c3.024 0 4.728-1.85 4.728-5.73 0-3.89-1.704-5.62-4.728-5.62h-1.104zm12.806 2.26v-15.84h4.056c4.632 0 7.416 2.61 7.416 7.85 0 5.23-2.784 7.99-7.272 7.99zm2.784-2.26h1.104c3.024 0 4.728-1.85 4.728-5.73 0-3.89-1.704-5.62-4.728-5.62h-1.104zm13.047 2.26v-2.35h3.768v-11.16h-3.768v-2.33h10.344v2.33h-3.792v11.16h3.792v2.35zm15.35 0v-15.84h2.808l4.224 8.97 1.464 3.36h.072c-.12-1.63-.384-3.62-.384-5.37v-6.96h2.64v15.84h-2.832l-4.2-9-1.464-3.34h-.072c.12 1.68.384 3.58.384 5.33v7.01zm21.951.29c-3.984 0-6.984-2.93-6.984-8.16 0-5.21 3.024-8.26 7.104-8.26 2.088 0 3.504.98 4.464 1.97l-1.536 1.73c-.72-.77-1.56-1.3-2.928-1.3-2.496 0-4.248 2.18-4.248 5.76 0 3.62 1.512 5.86 4.296 5.86.84 0 1.656-.27 2.136-.72v-3.46h-2.712v-2.28h5.208v6.98c-1.032 1.01-2.784 1.88-4.8 1.88m14.679 0c-2.208 0-4.296-.84-5.832-2.33l1.608-1.9c1.176 1.08 2.736 1.83 4.272 1.83 1.944 0 2.928-.82 2.928-2.09 0-1.32-1.056-1.73-2.616-2.35l-2.136-.94c-1.68-.65-3.384-1.9-3.384-4.2 0-2.52 2.256-4.44 5.448-4.44 1.944 0 3.744.74 5.04 2.02l-1.44 1.75c-1.056-.87-2.136-1.37-3.6-1.37-1.632 0-2.64.7-2.64 1.9 0 1.24 1.272 1.68 2.688 2.25l2.064.89c1.992.82 3.408 1.97 3.408 4.27 0 2.57-2.136 4.71-5.808 4.71"/><rect width="83" height="83" x="217" y="1001.95" fill="#ededed" stroke="#707070" rx="41.5"/><rect width="83" height="83" x="217" y="85.5" fill="#ededed" stroke="#707070" rx="41.5"/><path fill="#a0a0a0" d="M835.885 1956.45v-15.84h10.008v2.33h-7.248v4.1h6.144v2.33h-6.144v4.73h7.488v2.35zm16.07 0v-15.84h4.056c4.632 0 7.416 2.61 7.416 7.85 0 5.23-2.784 7.99-7.272 7.99zm2.784-2.26h1.104c3.024 0 4.728-1.85 4.728-5.73 0-3.89-1.704-5.62-4.728-5.62h-1.104zm20.367 2.55c-3.984 0-6.984-2.93-6.984-8.16 0-5.21 3.024-8.26 7.104-8.26 2.088 0 3.504.98 4.464 1.97l-1.536 1.73c-.72-.77-1.56-1.3-2.928-1.3-2.496 0-4.248 2.18-4.248 5.76 0 3.62 1.512 5.86 4.296 5.86.84 0 1.656-.27 2.136-.72v-3.46h-2.712v-2.28h5.208v6.98c-1.032 1.01-2.784 1.88-4.8 1.88m11.15-.29v-15.84h10.008v2.33h-7.248v4.1h6.144v2.33h-6.144v4.73h7.488v2.35zm33.99 0v-15.84h9.96v2.33h-7.2v4.53h6.12v2.33h-6.12v6.65zm21.11.29c-3.456 0-5.52-2-5.52-6.34v-9.79h2.76v9.98c0 2.62 1.056 3.75 2.76 3.75 1.68 0 2.76-1.13 2.76-3.75v-9.98h2.688v9.79c0 4.34-2.016 6.34-5.448 6.34m11.343-.29v-15.84h2.808l4.224 8.97 1.464 3.36h.072c-.12-1.63-.384-3.62-.384-5.37v-6.96h2.64v15.84h-2.832l-4.2-9-1.464-3.34h-.072c.12 1.68.384 3.58.384 5.33v7.01zm23.606.29c-4.008 0-7.152-2.93-7.152-8.16 0-5.19 3.096-8.26 7.248-8.26 1.944 0 3.48.94 4.464 1.97l-1.536 1.73c-.792-.8-1.704-1.3-2.928-1.3-2.616 0-4.416 2.18-4.416 5.76 0 3.62 1.8 5.86 4.488 5.86 1.272 0 2.256-.6 3.144-1.59l1.56 1.68c-1.272 1.49-2.88 2.31-4.872 2.31m13.983-.29v-13.51h-4.92v-2.33h12.648v2.33h-4.944v13.51zm13.022 0v-2.35h3.77v-11.16h-3.77v-2.33h10.34v2.33h-3.79v11.16h3.79v2.35zm21.95.29c-3.62 0-6.17-3.17-6.17-8.28 0-5.14 2.55-8.14 6.17-8.14 3.65 0 6.17 3.02 6.17 8.14 0 5.11-2.52 8.28-6.17 8.28m0-2.4c2.02 0 3.34-2.31 3.34-5.88 0-3.58-1.32-5.74-3.34-5.74-2.01 0-3.31 2.16-3.31 5.74 0 3.57 1.3 5.88 3.31 5.88m11.39 2.11v-15.84h2.81l4.22 8.97 1.47 3.36h.07c-.12-1.63-.38-3.62-.38-5.37v-6.96h2.64v15.84h-2.84l-4.2-9-1.46-3.34h-.07c.12 1.68.38 3.58.38 5.33v7.01z"/><path fill="#ededed" d="m834.253 1987.34 10.272-17.93h2.376l-10.296 17.93zm24.518-.6c-4.008 0-7.152-2.93-7.152-8.16 0-5.19 3.096-8.26 7.248-8.26 1.944 0 3.48.94 4.464 1.97l-1.536 1.73c-.792-.8-1.704-1.3-2.928-1.3-2.616 0-4.416 2.18-4.416 5.76 0 3.62 1.8 5.86 4.488 5.86 1.272 0 2.256-.6 3.144-1.59l1.56 1.68c-1.272 1.49-2.88 2.31-4.872 2.31m15.375 0c-3.624 0-6.168-3.17-6.168-8.28 0-5.14 2.544-8.14 6.168-8.14 3.648 0 6.168 3.02 6.168 8.14 0 5.11-2.52 8.28-6.168 8.28m0-2.4c2.016 0 3.336-2.31 3.336-5.88 0-3.58-1.32-5.74-3.336-5.74s-3.312 2.16-3.312 5.74c0 3.57 1.296 5.88 3.312 5.88m11.39 2.11v-15.84h2.808l4.224 8.97 1.464 3.36h.072c-.12-1.63-.384-3.62-.384-5.37v-6.96h2.64v15.84h-2.832l-4.2-9-1.464-3.34h-.072c.12 1.68.384 3.58.384 5.33v7.01zm20.559 0-4.872-15.84h2.928l2.232 7.99c.504 1.8.84 3.34 1.368 5.16h.096c.528-1.82.888-3.36 1.392-5.16l2.184-7.99h2.808l-4.848 15.84zm13.743 0v-15.84h10.008v2.33h-7.248v4.1h6.144v2.33h-6.144v4.73h7.488v2.35zm16.31 0v-15.84h5.232c3.24 0 5.76 1.15 5.76 4.68 0 2.4-1.248 3.86-3.144 4.51l3.768 6.65h-3.12l-3.408-6.22h-2.328v6.22zm2.76-8.45h2.184c2.16 0 3.312-.91 3.312-2.71 0-1.85-1.152-2.47-3.312-2.47h-2.184zm17.799 8.45v-13.51h-4.92v-2.33h12.648v2.33h-4.944v13.51zm12.854-6.94v-1.99h10.68v1.99zm17.439 6.94v-15.84h10.008v2.33h-7.248v4.1h6.144v2.33h-6.144v4.73h7.488v2.35zm15.97 0v-15.84h2.96l2.18 6.19.77 2.38h.09l.72-2.38 2.19-6.19h2.95v15.84h-2.35v-7.13c0-1.51.21-4.49.36-5.98h-.1l-1.2 3.87-1.99 4.97h-1.34l-2.02-4.97-1.2-3.87h-.07c.12 1.49.36 4.47.36 5.98v7.13zm18.19 0v-15.84h4.61c3.22 0 5.57.98 5.57 3.89 0 1.48-.89 2.95-2.74 3.45v.1c2.28.38 3.53 1.58 3.53 3.74 0 3.17-2.52 4.66-5.95 4.66zm2.76-9.27h1.59c2.2 0 3.12-.86 3.12-2.35 0-1.46-1.01-2.06-3.05-2.06h-1.66zm0 7.11h1.97c2.3 0 3.53-.87 3.53-2.67 0-1.7-1.18-2.44-3.53-2.44h-1.97zm14.3 2.16v-15.84h10v2.33h-7.24v4.1h6.14v2.33h-6.14v4.73h7.48v2.35zm16.07 0v-15.84h4.05c4.63 0 7.42 2.61 7.42 7.85 0 5.23-2.79 7.99-7.27 7.99zm2.78-2.26h1.1c3.03 0 4.73-1.85 4.73-5.73 0-3.89-1.7-5.62-4.73-5.62h-1.1zm14.01 2.26v-15.84h4.05c4.64 0 7.42 2.61 7.42 7.85 0 5.23-2.78 7.99-7.27 7.99zm2.78-2.26h1.11c3.02 0 4.72-1.85 4.72-5.73 0-3.89-1.7-5.62-4.72-5.62h-1.11zm14.25 2.26v-2.35h3.77v-11.16h-3.77v-2.33h10.34v2.33h-3.79v11.16h3.79v2.35zm16.55 0v-15.84h2.81l4.22 8.97 1.46 3.36h.08c-.12-1.63-.39-3.62-.39-5.37v-6.96h2.64v15.84h-2.83l-4.2-9-1.46-3.34h-.08c.12 1.68.39 3.58.39 5.33v7.01zm23.15.29c-3.99 0-6.99-2.93-6.99-8.16 0-5.21 3.03-8.26 7.11-8.26 2.09 0 3.5.98 4.46 1.97l-1.53 1.73c-.72-.77-1.56-1.3-2.93-1.3-2.5 0-4.25 2.18-4.25 5.76 0 3.62 1.51 5.86 4.3 5.86.84 0 1.65-.27 2.13-.72v-3.46h-2.71v-2.28h5.21v6.98c-1.03 1.01-2.79 1.88-4.8 1.88m15.88 0c-2.21 0-4.3-.84-5.83-2.33l1.6-1.9c1.18 1.08 2.74 1.83 4.28 1.83 1.94 0 2.92-.82 2.92-2.09 0-1.32-1.05-1.73-2.61-2.35l-2.14-.94c-1.68-.65-3.38-1.9-3.38-4.2 0-2.52 2.25-4.44 5.45-4.44 1.94 0 3.74.74 5.04 2.02l-1.44 1.75c-1.06-.87-2.14-1.37-3.6-1.37-1.64 0-2.64.7-2.64 1.9 0 1.24 1.27 1.68 2.68 2.25l2.07.89c1.99.82 3.41 1.97 3.41 4.27 0 2.57-2.14 4.71-5.81 4.71"/><rect width="157" height="56" x="483.738" y="614.777" fill="#ededed" rx="28"/><rect width="154.5" height="53.5" x="484.988" y="616.027" stroke="#4d4d4d" stroke-opacity=".1" stroke-width="2.5" rx="26.75"/><path fill="#1e1e1e" d="M518.106 651.777v-2.352h3.768v-11.16h-3.768v-2.328h10.344v2.328h-3.792v11.16h3.792v2.352zm15.351 0v-15.84h2.808l4.224 8.976 1.464 3.36h.072c-.12-1.632-.384-3.624-.384-5.376v-6.96h2.64v15.84h-2.832l-4.2-9-1.464-3.336h-.072c.12 1.68.384 3.576.384 5.328v7.008zm21.039.288c-2.208 0-4.296-.84-5.832-2.328l1.608-1.896c1.176 1.08 2.736 1.824 4.272 1.824 1.944 0 2.928-.816 2.928-2.088 0-1.32-1.056-1.728-2.616-2.352l-2.136-.936c-1.68-.648-3.384-1.896-3.384-4.2 0-2.52 2.256-4.44 5.448-4.44 1.944 0 3.744.744 5.04 2.016l-1.44 1.752c-1.056-.864-2.136-1.368-3.6-1.368-1.632 0-2.64.696-2.64 1.896 0 1.248 1.272 1.68 2.688 2.256l2.064.888c1.992.816 3.408 1.968 3.408 4.272 0 2.568-2.136 4.704-5.808 4.704m10.862-.288v-15.84h10.008v2.328h-7.248v4.104h6.144v2.328h-6.144v4.728h7.488v2.352zm15.111 0v-15.84h5.232c3.24 0 5.76 1.152 5.76 4.68 0 2.4-1.248 3.864-3.144 4.512l3.768 6.648h-3.12l-3.408-6.216h-2.328v6.216zm2.76-8.448h2.184c2.16 0 3.312-.912 3.312-2.712 0-1.848-1.152-2.472-3.312-2.472h-2.184zm16.599 8.448v-13.512h-4.92v-2.328h12.648v2.328h-4.944v13.512z"/><path fill="#ededed" d="M331.431 136v-15.84h2.808l4.224 8.976 1.464 3.36h.072c-.12-1.632-.384-3.624-.384-5.376v-6.96h2.64V136h-2.832l-4.2-9-1.464-3.336h-.072c.12 1.68.384 3.576.384 5.328V136zm17.51 0v-15.84h10.008v2.328h-7.248v4.104h6.144v2.328h-6.144v4.728h7.488V136zm16.695 0-2.256-15.864h2.808l.888 9.216c.048 1.344.144 2.664.216 3.984h.072c.288-1.32.624-2.664.912-3.984l1.368-5.136h1.776l1.344 5.136c.264 1.296.624 2.64.912 3.984h.096l.216-3.984.84-9.216h2.616L375.308 136h-2.952l-1.392-5.856a44 44 0 0 1-.504-2.928h-.072a44 44 0 0 1-.528 2.928L368.54 136zm33.197 0v-15.84h5.232c3.24 0 5.76 1.152 5.76 4.68 0 2.4-1.248 3.864-3.144 4.512l3.768 6.648h-3.12l-3.408-6.216h-2.328V136zm2.76-8.448h2.184c2.16 0 3.312-.912 3.312-2.712 0-1.848-1.152-2.472-3.312-2.472h-2.184zm19.191 8.736c-3.624 0-6.168-3.168-6.168-8.28 0-5.136 2.544-8.136 6.168-8.136 3.648 0 6.168 3.024 6.168 8.136s-2.52 8.28-6.168 8.28m0-2.4c2.016 0 3.336-2.304 3.336-5.88s-1.32-5.736-3.336-5.736-3.312 2.16-3.312 5.736 1.296 5.88 3.312 5.88M432.799 136l-2.256-15.864h2.808l.888 9.216c.048 1.344.144 2.664.216 3.984h.072c.288-1.32.624-2.664.912-3.984l1.368-5.136h1.776l1.344 5.136c.264 1.296.624 2.64.912 3.984h.096l.216-3.984.84-9.216h2.616L442.471 136h-2.952l-1.392-5.856a44 44 0 0 1-.504-2.928h-.072a44 44 0 0 1-.528 2.928l-1.32 5.856zm33.197 0v-2.352h3.768v-11.16h-3.768v-2.328h10.344v2.328h-3.792v11.16h3.792V136zm16.55 0v-15.84h2.808l4.224 8.976 1.464 3.36h.072c-.12-1.632-.384-3.624-.384-5.376v-6.96h2.64V136h-2.832l-4.2-9-1.464-3.336h-.072c.12 1.68.384 3.576.384 5.328V136zm22.239.288c-2.208 0-4.296-.84-5.832-2.328l1.608-1.896c1.176 1.08 2.736 1.824 4.272 1.824 1.944 0 2.928-.816 2.928-2.088 0-1.32-1.056-1.728-2.616-2.352l-2.136-.936c-1.68-.648-3.384-1.896-3.384-4.2 0-2.52 2.256-4.44 5.448-4.44 1.944 0 3.744.744 5.04 2.016l-1.44 1.752c-1.056-.864-2.136-1.368-3.6-1.368-1.632 0-2.64.696-2.64 1.896 0 1.248 1.272 1.68 2.688 2.256l2.064.888c1.992.816 3.408 1.968 3.408 4.272 0 2.568-2.136 4.704-5.808 4.704m12.063-.288v-15.84h10.008v2.328h-7.248v4.104h6.144v2.328h-6.144v4.728h7.488V136zm16.31 0v-15.84h5.232c3.24 0 5.76 1.152 5.76 4.68 0 2.4-1.248 3.864-3.144 4.512l3.768 6.648h-3.12l-3.408-6.216h-2.328V136zm2.76-8.448h2.184c2.16 0 3.312-.912 3.312-2.712 0-1.848-1.152-2.472-3.312-2.472h-2.184zM553.717 136v-13.512h-4.92v-2.328h12.648v2.328h-4.944V136zm13.503 0v-15.84h10.008v2.328h-7.248v4.104h6.144v2.328h-6.144v4.728h7.488V136zm16.07 0v-15.84h4.056c4.632 0 7.416 2.616 7.416 7.848S591.978 136 587.49 136zm2.784-2.256h1.104c3.024 0 4.728-1.848 4.728-5.736s-1.704-5.616-4.728-5.616h-1.104zM617.111 136v-2.352h3.768v-11.16h-3.768v-2.328h10.344v2.328h-3.792v11.16h3.792V136zm16.551 0v-15.84h2.808l4.224 8.976 1.464 3.36h.072c-.12-1.632-.384-3.624-.384-5.376v-6.96h2.64V136h-2.832l-4.2-9-1.464-3.336h-.072c.12 1.68.384 3.576.384 5.328V136zm20.799 0v-13.512h-4.92v-2.328h12.648v2.328h-4.944V136zm18.182.288c-3.624 0-6.168-3.168-6.168-8.28 0-5.136 2.544-8.136 6.168-8.136 3.648 0 6.168 3.024 6.168 8.136s-2.52 8.28-6.168 8.28m0-2.4c2.016 0 3.336-2.304 3.336-5.88s-1.32-5.736-3.336-5.736-3.312 2.16-3.312 5.736 1.296 5.88 3.312 5.88m32.19 2.112v-13.512h-4.92v-2.328h12.648v2.328h-4.944V136zm11.486 0 5.088-15.84h3.24l5.088 15.84h-2.928l-1.224-4.32h-5.208l-1.248 4.32zm4.656-6.504h4.008l-.552-1.968c-.48-1.68-.96-3.456-1.416-5.208h-.096a149 149 0 0 1-1.392 5.208zM734.862 136v-15.84h4.608c3.216 0 5.568.984 5.568 3.888 0 1.488-.888 2.952-2.736 3.456v.096c2.28.384 3.528 1.584 3.528 3.744 0 3.168-2.52 4.656-5.952 4.656zm2.76-9.264h1.584c2.208 0 3.12-.864 3.12-2.352 0-1.464-1.008-2.064-3.048-2.064h-1.656zm0 7.104h1.968c2.304 0 3.528-.864 3.528-2.664 0-1.704-1.176-2.448-3.528-2.448h-1.968zM752.3 136v-15.84h2.736v13.488h7.392V136zm16.407 0v-15.84h10.008v2.328h-7.248v4.104h6.144v2.328h-6.144v4.728h7.488V136zM340.3 1037.45v-15.84h2.808l4.224 8.97 1.464 3.36h.072c-.12-1.63-.384-3.62-.384-5.37v-6.96h2.64v15.84h-2.832l-4.2-9-1.464-3.34h-.072c.12 1.68.384 3.58.384 5.33v7.01zm17.511 0v-15.84h10.008v2.33h-7.248v4.1h6.144v2.33h-6.144v4.73h7.488v2.35zm16.694 0-2.256-15.87h2.808l.888 9.22c.048 1.34.144 2.66.216 3.98h.072c.288-1.32.624-2.66.912-3.98l1.368-5.14h1.776l1.344 5.14c.264 1.3.624 2.64.912 3.98h.096l.216-3.98.84-9.22h2.616l-2.136 15.87h-2.952l-1.392-5.86c-.192-.96-.384-1.99-.504-2.93h-.072c-.144.94-.312 1.97-.528 2.93l-1.32 5.86zm33.197 0v-15.84h5.232c3.24 0 5.76 1.15 5.76 4.68 0 2.4-1.248 3.86-3.144 4.51l3.768 6.65h-3.12l-3.408-6.22h-2.328v6.22zm2.76-8.45h2.184c2.16 0 3.312-.91 3.312-2.71 0-1.85-1.152-2.47-3.312-2.47h-2.184zm19.191 8.74c-3.624 0-6.168-3.17-6.168-8.28 0-5.14 2.544-8.14 6.168-8.14 3.648 0 6.168 3.02 6.168 8.14 0 5.11-2.52 8.28-6.168 8.28m0-2.4c2.016 0 3.336-2.31 3.336-5.88 0-3.58-1.32-5.74-3.336-5.74s-3.312 2.16-3.312 5.74c0 3.57 1.296 5.88 3.312 5.88m12.015 2.11-2.256-15.87h2.808l.888 9.22c.048 1.34.144 2.66.216 3.98h.072c.288-1.32.624-2.66.912-3.98l1.368-5.14h1.776l1.344 5.14c.264 1.3.624 2.64.912 3.98h.096l.216-3.98.84-9.22h2.616l-2.136 15.87h-2.952l-1.392-5.86c-.192-.96-.384-1.99-.504-2.93h-.072c-.144.94-.312 1.97-.528 2.93l-1.32 5.86zm36.965 0v-13.51h-4.92v-2.33h12.648v2.33h-4.944v13.51zm13.023 0v-15.84h5.232c3.24 0 5.76 1.15 5.76 4.68 0 2.4-1.248 3.86-3.144 4.51l3.768 6.65h-3.12l-3.408-6.22h-2.328v6.22zm2.76-8.45h2.184c2.16 0 3.312-.91 3.312-2.71 0-1.85-1.152-2.47-3.312-2.47h-2.184zm14.03 8.45v-2.35h3.768v-11.16h-3.768v-2.33h10.344v2.33h-3.792v11.16h3.792v2.35zm22.911.29c-3.984 0-6.984-2.93-6.984-8.16 0-5.21 3.024-8.26 7.104-8.26 2.088 0 3.504.98 4.464 1.97l-1.536 1.73c-.72-.77-1.56-1.3-2.928-1.3-2.496 0-4.248 2.18-4.248 5.76 0 3.62 1.512 5.86 4.296 5.86.84 0 1.656-.27 2.136-.72v-3.46h-2.712v-2.28h5.208v6.98c-1.032 1.01-2.784 1.88-4.8 1.88m16.791 0c-3.984 0-6.984-2.93-6.984-8.16 0-5.21 3.024-8.26 7.104-8.26 2.088 0 3.504.98 4.464 1.97l-1.536 1.73c-.72-.77-1.56-1.3-2.928-1.3-2.496 0-4.248 2.18-4.248 5.76 0 3.62 1.512 5.86 4.296 5.86.84 0 1.656-.27 2.136-.72v-3.46h-2.712v-2.28h5.208v6.98c-1.032 1.01-2.784 1.88-4.8 1.88m11.15-.29v-15.84h10.008v2.33h-7.248v4.1h6.144v2.33h-6.144v4.73h7.488v2.35zm16.311 0v-15.84h5.232c3.24 0 5.76 1.15 5.76 4.68 0 2.4-1.248 3.86-3.144 4.51l3.768 6.65h-3.12l-3.408-6.22h-2.328v6.22zm2.76-8.45h2.184c2.16 0 3.312-.91 3.312-2.71 0-1.85-1.152-2.47-3.312-2.47h-2.184zm19.238 8.74c-2.208 0-4.296-.84-5.832-2.33l1.608-1.9c1.176 1.08 2.736 1.83 4.272 1.83 1.944 0 2.928-.82 2.928-2.09 0-1.32-1.056-1.73-2.616-2.35l-2.136-.94c-1.68-.65-3.384-1.9-3.384-4.2 0-2.52 2.256-4.44 5.448-4.44 1.944 0 3.744.74 5.04 2.02l-1.44 1.75c-1.056-.87-2.136-1.37-3.6-1.37-1.632 0-2.64.7-2.64 1.9 0 1.24 1.272 1.68 2.688 2.25l2.064.89c1.992.82 3.408 1.97 3.408 4.27 0 2.57-2.136 4.71-5.808 4.71m28.854-.29v-15.84h10.008v2.33h-7.248v4.1h6.144v2.33h-6.144v4.73h7.488v2.35zm16.07 0v-15.84h4.056c4.632 0 7.416 2.61 7.416 7.85 0 5.23-2.784 7.99-7.272 7.99zm2.784-2.26h1.104c3.024 0 4.728-1.85 4.728-5.73 0-3.89-1.704-5.62-4.728-5.62h-1.104zm20.367 2.55c-3.984 0-6.984-2.93-6.984-8.16 0-5.21 3.024-8.26 7.104-8.26 2.088 0 3.504.98 4.464 1.97l-1.536 1.73c-.72-.77-1.56-1.3-2.928-1.3-2.496 0-4.248 2.18-4.248 5.76 0 3.62 1.512 5.86 4.296 5.86.84 0 1.656-.27 2.136-.72v-3.46h-2.712v-2.28h5.208v6.98c-1.032 1.01-2.784 1.88-4.8 1.88m11.151-.29v-15.84h10.008v2.33h-7.248v4.1h6.144v2.33h-6.144v4.73h7.488v2.35zm33.989 0v-15.84h9.96v2.33h-7.2v4.53h6.12v2.33h-6.12v6.65zm21.11.29c-3.456 0-5.52-2-5.52-6.34v-9.79h2.76v9.98c0 2.62 1.056 3.75 2.76 3.75 1.68 0 2.76-1.13 2.76-3.75v-9.98h2.688v9.79c0 4.34-2.016 6.34-5.448 6.34m11.343-.29v-15.84h2.808l4.224 8.97 1.464 3.36h.072c-.12-1.63-.384-3.62-.384-5.37v-6.96h2.64v15.84h-2.832l-4.2-9-1.464-3.34h-.072c.12 1.68.384 3.58.384 5.33v7.01zm23.607.29c-4.008 0-7.152-2.93-7.152-8.16 0-5.19 3.096-8.26 7.248-8.26 1.944 0 3.48.94 4.464 1.97l-1.536 1.73c-.792-.8-1.704-1.3-2.928-1.3-2.616 0-4.416 2.18-4.416 5.76 0 3.62 1.8 5.86 4.488 5.86 1.272 0 2.256-.6 3.144-1.59l1.56 1.68c-1.272 1.49-2.88 2.31-4.872 2.31m13.982-.29v-13.51h-4.92v-2.33h12.648v2.33h-4.944v13.51zm13.023 0v-2.35h3.768v-11.16h-3.768v-2.33h10.344v2.33h-3.792v11.16h3.792v2.35zm21.951.29c-3.624 0-6.168-3.17-6.168-8.28 0-5.14 2.544-8.14 6.168-8.14 3.648 0 6.168 3.02 6.168 8.14 0 5.11-2.52 8.28-6.168 8.28m0-2.4c2.016 0 3.336-2.31 3.336-5.88 0-3.58-1.32-5.74-3.336-5.74s-3.312 2.16-3.312 5.74c0 3.57 1.296 5.88 3.312 5.88m11.39 2.11v-15.84h2.808l4.224 8.97 1.464 3.36h.072c-.12-1.63-.384-3.62-.384-5.37v-6.96h2.64v15.84h-2.832l-4.2-9-1.464-3.34h-.072c.12 1.68.384 3.58.384 5.33v7.01zm37.949-2.38v-4.56h-4.296v-1.99h4.296v-4.54h2.088v4.54h4.296v1.99h-4.296v4.56zm-524.157 32.38v-15.84h10.008v2.33h-7.248v4.1h6.144v2.33h-6.144v4.73h7.488v2.35zm16.071 0v-15.84h4.056c4.632 0 7.416 2.61 7.416 7.85 0 5.23-2.784 7.99-7.272 7.99zm2.784-2.26h1.104c3.024 0 4.728-1.85 4.728-5.73 0-3.89-1.704-5.62-4.728-5.62h-1.104zm20.366 2.55c-3.984 0-6.984-2.93-6.984-8.16 0-5.21 3.024-8.26 7.104-8.26 2.088 0 3.504.98 4.464 1.97l-1.536 1.73c-.72-.77-1.56-1.3-2.928-1.3-2.496 0-4.248 2.18-4.248 5.76 0 3.62 1.512 5.86 4.296 5.86.84 0 1.656-.27 2.136-.72v-3.46h-2.712v-2.28h5.208v6.98c-1.032 1.01-2.784 1.88-4.8 1.88m11.151-.29v-15.84H401.4v2.33h-7.248v4.1h6.144v2.33h-6.144v4.73h7.488v2.35zm33.989 0v-15.84h9.96v2.33h-7.2v4.53h6.12v2.33h-6.12v6.65zm21.111.29c-3.456 0-5.52-2-5.52-6.34v-9.79h2.76v9.98c0 2.62 1.056 3.75 2.76 3.75 1.68 0 2.76-1.13 2.76-3.75v-9.98h2.688v9.79c0 4.34-2.016 6.34-5.448 6.34m11.342-.29v-15.84h2.808l4.224 8.97 1.464 3.36h.072c-.12-1.63-.384-3.62-.384-5.37v-6.96h2.64v15.84h-2.832l-4.2-9-1.464-3.34h-.072c.12 1.68.384 3.58.384 5.33v7.01zm23.607.29c-4.008 0-7.152-2.93-7.152-8.16 0-5.19 3.096-8.26 7.248-8.26 1.944 0 3.48.94 4.464 1.97l-1.536 1.73c-.792-.8-1.704-1.3-2.928-1.3-2.616 0-4.416 2.18-4.416 5.76 0 3.62 1.8 5.86 4.488 5.86 1.272 0 2.256-.6 3.144-1.59l1.56 1.68c-1.272 1.49-2.88 2.31-4.872 2.31m13.983-.29v-13.51h-4.92v-2.33h12.648v2.33h-4.944v13.51zm13.022 0v-2.35h3.768v-11.16h-3.768v-2.33h10.344v2.33h-3.792v11.16h3.792v2.35zm21.951.29c-3.624 0-6.168-3.17-6.168-8.28 0-5.14 2.544-8.14 6.168-8.14 3.648 0 6.168 3.02 6.168 8.14 0 5.11-2.52 8.28-6.168 8.28m0-2.4c2.016 0 3.336-2.31 3.336-5.88 0-3.58-1.32-5.74-3.336-5.74s-3.312 2.16-3.312 5.74c0 3.57 1.296 5.88 3.312 5.88m11.391 2.11v-15.84h2.808l4.224 8.97 1.464 3.36h.072c-.12-1.63-.384-3.62-.384-5.37v-6.96h2.64v15.84h-2.832l-4.2-9-1.464-3.34h-.072c.12 1.68.384 3.58.384 5.33v7.01zm40.397.29c-4.008 0-7.152-2.93-7.152-8.16 0-5.19 3.096-8.26 7.248-8.26 1.944 0 3.48.94 4.464 1.97l-1.536 1.73c-.792-.8-1.704-1.3-2.928-1.3-2.616 0-4.416 2.18-4.416 5.76 0 3.62 1.8 5.86 4.488 5.86 1.272 0 2.256-.6 3.144-1.59l1.56 1.68c-1.272 1.49-2.88 2.31-4.872 2.31m10.214-.29v-15.84h5.232c3.24 0 5.76 1.15 5.76 4.68 0 2.4-1.248 3.86-3.144 4.51l3.768 6.65h-3.12l-3.408-6.22h-2.328v6.22zm2.76-8.45h2.184c2.16 0 3.312-.91 3.312-2.71 0-1.85-1.152-2.47-3.312-2.47h-2.184zm14.511 8.45v-15.84h10.008v2.33h-7.248v4.1h6.144v2.33h-6.144v4.73h7.488v2.35zm14.775 0 5.088-15.84h3.24l5.088 15.84h-2.928l-1.224-4.32h-5.208l-1.248 4.32zm4.656-6.51h4.008l-.552-1.96c-.48-1.68-.96-3.46-1.416-5.21h-.096c-.432 1.75-.912 3.53-1.392 5.21zm17.438 6.51v-13.51h-4.92v-2.33h12.648v2.33h-4.944v13.51zm13.503 0v-15.84h10.008v2.33h-7.248v4.1h6.144v2.33h-6.144v4.73h7.488v2.35zm21.519.29c-2.208 0-4.296-.84-5.832-2.33l1.608-1.9c1.176 1.08 2.736 1.83 4.272 1.83 1.944 0 2.928-.82 2.928-2.09 0-1.32-1.056-1.73-2.616-2.35l-2.136-.94c-1.68-.65-3.384-1.9-3.384-4.2 0-2.52 2.256-4.44 5.448-4.44 1.944 0 3.744.74 5.04 2.02l-1.44 1.75c-1.056-.87-2.136-1.37-3.6-1.37-1.632 0-2.64.7-2.64 1.9 0 1.24 1.271 1.68 2.688 2.25l2.064.89c1.992.82 3.408 1.97 3.408 4.27 0 2.57-2.136 4.71-5.808 4.71m28.133-.29v-15.84h2.808l4.224 8.97 1.464 3.36h.072c-.12-1.63-.384-3.62-.384-5.37v-6.96h2.64v15.84h-2.832l-4.2-9-1.464-3.34h-.072c.12 1.68.384 3.58.384 5.33v7.01zm17.51 0v-15.84h10.008v2.33h-7.248v4.1h6.144v2.33h-6.144v4.73h7.488v2.35zm16.695 0-2.256-15.87h2.808l.888 9.22c.048 1.34.144 2.66.216 3.98h.072c.288-1.32.624-2.66.912-3.98l1.368-5.14h1.776l1.344 5.14c.264 1.3.624 2.64.912 3.98h.096l.216-3.98.84-9.22h2.616l-2.136 15.87h-2.952l-1.392-5.86c-.192-.96-.384-1.99-.504-2.93h-.072c-.144.94-.312 1.97-.528 2.93l-1.32 5.86zm33.677 0v-15.84h10.008v2.33h-7.248v4.1h6.144v2.33h-6.144v4.73h7.488v2.35zm15.975 0v-15.84h2.952l2.184 6.19.768 2.38h.096l.72-2.38 2.184-6.19h2.952v15.84h-2.352v-7.13c0-1.51.216-4.49.36-5.98h-.096l-1.2 3.87-1.992 4.97h-1.344l-2.016-4.97-1.2-3.87h-.072c.12 1.49.36 4.47.36 5.98v7.13zm18.186 0v-15.84h4.608c3.216 0 5.568.98 5.568 3.89 0 1.48-.888 2.95-2.736 3.45v.1c2.28.38 3.528 1.58 3.528 3.74 0 3.17-2.52 4.66-5.952 4.66zm2.76-9.27h1.584c2.208 0 3.12-.86 3.12-2.35 0-1.46-1.008-2.06-3.048-2.06h-1.656zm0 7.11h1.968c2.304 0 3.528-.87 3.528-2.67 0-1.7-1.176-2.44-3.528-2.44h-1.968zm14.295 2.16v-15.84H838.8v2.33h-7.248v4.1h6.144v2.33h-6.144v4.73h7.488v2.35zm16.071 0v-15.84h4.056c4.632 0 7.416 2.61 7.416 7.85 0 5.23-2.784 7.99-7.273 7.99zm2.784-2.26h1.104c3.024 0 4.728-1.85 4.728-5.73 0-3.89-1.704-5.62-4.728-5.62h-1.104zm14.006 2.26v-15.84h4.056c4.632 0 7.416 2.61 7.416 7.85 0 5.23-2.784 7.99-7.272 7.99zm2.784-2.26h1.104c3.024 0 4.728-1.85 4.728-5.73 0-3.89-1.704-5.62-4.728-5.62h-1.104zm14.247 2.26v-2.35h3.768v-11.16h-3.768v-2.33h10.344v2.33h-3.792v11.16h3.792v2.35zm16.55 0v-15.84h2.808l4.224 8.97 1.464 3.36h.072c-.12-1.63-.384-3.62-.384-5.37v-6.96h2.64v15.84h-2.832l-4.2-9-1.464-3.34h-.072c.12 1.68.384 3.58.384 5.33v7.01zm23.151.29c-3.984 0-6.984-2.93-6.984-8.16 0-5.21 3.024-8.26 7.104-8.26 2.088 0 3.504.98 4.464 1.97l-1.536 1.73c-.72-.77-1.56-1.3-2.928-1.3-2.496 0-4.248 2.18-4.248 5.76 0 3.62 1.512 5.86 4.296 5.86.84 0 1.656-.27 2.136-.72v-3.46h-2.712v-2.28h5.208v6.98c-1.032 1.01-2.784 1.88-4.8 1.88"/><path fill="#232323" d="M266.666 1055.45h-16.064v-4.39l7.04-5.85c1.216-1.05 2.091-1.95 2.624-2.72q.8-1.155.8-2.43v-.32c0-.94-.277-1.65-.832-2.12-.554-.49-1.301-.73-2.24-.73q-1.6 0-2.464.93a5.16 5.16 0 0 0-1.216 2.2l-4.192-1.6c.256-.76.608-1.49 1.056-2.17a7 7 0 0 1 1.696-1.83c.704-.51 1.515-.91 2.432-1.21q1.377-.48 3.168-.48 1.824 0 3.264.51t2.432 1.41a5.8 5.8 0 0 1 1.504 2.14c.342.81.512 1.7.512 2.66 0 .94-.16 1.8-.48 2.59a8.2 8.2 0 0 1-1.28 2.18q-.8 1.02-1.92 1.98-1.088.96-2.336 1.92l-4.256 3.3h10.752zM251.914 139v-3.872h6.016v-14.976h-.288l-4.544 5.952-3.072-2.4 5.344-7.04h7.36v18.464h4.736V139z"/><rect width="157" height="56" x="1174.37" y="1550.45" fill="#ededed" rx="28"/><rect width="154.5" height="53.5" x="1175.62" y="1551.7" stroke="#4d4d4d" stroke-opacity=".1" stroke-width="2.5" rx="26.75"/><path fill="#1e1e1e" d="M1208.74 1587.45v-2.35h3.77v-11.16h-3.77v-2.33h10.34v2.33h-3.79v11.16h3.79v2.35zm15.35 0v-15.84h2.81l4.22 8.97 1.46 3.36h.08c-.12-1.63-.39-3.62-.39-5.37v-6.96h2.64v15.84h-2.83l-4.2-9-1.46-3.34h-.08c.12 1.68.39 3.58.39 5.33v7.01zm21.04.29c-2.21 0-4.3-.84-5.84-2.33l1.61-1.9c1.18 1.08 2.74 1.83 4.27 1.83 1.95 0 2.93-.82 2.93-2.09 0-1.32-1.05-1.73-2.61-2.35l-2.14-.94c-1.68-.65-3.38-1.9-3.38-4.2 0-2.52 2.25-4.44 5.44-4.44 1.95 0 3.75.74 5.04 2.02l-1.44 1.75c-1.05-.87-2.13-1.37-3.6-1.37-1.63 0-2.64.7-2.64 1.9 0 1.24 1.28 1.68 2.69 2.25l2.07.89c1.99.82 3.4 1.97 3.4 4.27 0 2.57-2.13 4.71-5.8 4.71m10.86-.29v-15.84H1266v2.33h-7.25v4.1h6.14v2.33h-6.14v4.73h7.49v2.35zm15.11 0v-15.84h5.23c3.24 0 5.76 1.15 5.76 4.68 0 2.4-1.25 3.86-3.14 4.51l3.77 6.65h-3.12l-3.41-6.22h-2.33v6.22zm2.76-8.45h2.18c2.16 0 3.32-.91 3.32-2.71 0-1.85-1.16-2.47-3.32-2.47h-2.18zm16.6 8.45v-13.51h-4.92v-2.33h12.65v2.33h-4.95v13.51z"/><rect width="314" height="56" x="926.5" y="1835.45" fill="#ededed" rx="28"/><rect width="311.5" height="53.5" x="927.75" y="1836.7" stroke="#4d4d4d" stroke-opacity=".1" stroke-width="2.5" rx="26.75"/><path fill="#1e1e1e" d="M967.569 1872.74c-4.008 0-7.152-2.93-7.152-8.16 0-5.19 3.096-8.26 7.248-8.26 1.944 0 3.48.94 4.464 1.97l-1.536 1.73c-.792-.8-1.704-1.3-2.928-1.3-2.616 0-4.416 2.18-4.416 5.76 0 3.62 1.8 5.86 4.488 5.86 1.272 0 2.256-.6 3.144-1.59l1.56 1.68c-1.272 1.49-2.88 2.31-4.872 2.31m9.015-.29v-15.84h5.232c3.24 0 5.76 1.15 5.76 4.68 0 2.4-1.248 3.86-3.144 4.51l3.768 6.65h-3.12l-3.408-6.22h-2.328v6.22zm2.76-8.45h2.184c2.16 0 3.312-.91 3.312-2.71 0-1.85-1.152-2.47-3.312-2.47h-2.184zm13.31 8.45v-15.84h10.006v2.33h-7.246v4.1h6.146v2.33h-6.146v4.73h7.486v2.35zm13.576 0 5.09-15.84h3.24l5.08 15.84h-2.92l-1.23-4.32h-5.21l-1.24 4.32zm4.65-6.51h4.01l-.55-1.96c-.48-1.68-.96-3.46-1.42-5.21h-.09c-.43 1.75-.91 3.53-1.39 5.21zm16.24 6.51v-13.51h-4.92v-2.33h12.65v2.33h-4.94v13.51zm12.31 0v-15.84h10v2.33h-7.24v4.1h6.14v2.33h-6.14v4.73h7.48v2.35zm31.18 0v-15.84h10.01v2.33h-7.25v4.1h6.14v2.33h-6.14v4.73h7.49v2.35zm14.77 0v-15.84h2.95l2.19 6.19.77 2.38h.09l.72-2.38 2.19-6.19h2.95v15.84h-2.35v-7.13c0-1.51.21-4.49.36-5.98h-.1l-1.2 3.87-1.99 4.97h-1.35l-2.01-4.97-1.2-3.87h-.07c.12 1.49.36 4.47.36 5.98v7.13zm16.99 0v-15.84h4.61c3.21 0 5.56.98 5.56 3.89 0 1.48-.88 2.95-2.73 3.45v.1c2.28.38 3.53 1.58 3.53 3.74 0 3.17-2.52 4.66-5.96 4.66zm2.76-9.27h1.58c2.21 0 3.12-.86 3.12-2.35 0-1.46-1.01-2.06-3.05-2.06h-1.65zm0 7.11h1.97c2.3 0 3.52-.87 3.52-2.67 0-1.7-1.17-2.44-3.52-2.44h-1.97zm13.09 2.16v-15.84h10.01v2.33h-7.25v4.1h6.15v2.33h-6.15v4.73h7.49v2.35zm14.87 0v-15.84h4.06c4.63 0 7.42 2.61 7.42 7.85 0 5.23-2.79 7.99-7.28 7.99zm2.79-2.26h1.1c3.03 0 4.73-1.85 4.73-5.73 0-3.89-1.7-5.62-4.73-5.62h-1.1zm12.8 2.26v-15.84h4.06c4.63 0 7.42 2.61 7.42 7.85 0 5.23-2.79 7.99-7.28 7.99zm2.79-2.26h1.1c3.03 0 4.73-1.85 4.73-5.73 0-3.89-1.7-5.62-4.73-5.62h-1.1zm13.05 2.26v-2.35h3.76v-11.16h-3.76v-2.33h10.34v2.33h-3.79v11.16h3.79v2.35zm15.35 0v-15.84h2.8l4.23 8.97 1.46 3.36h.07c-.12-1.63-.38-3.62-.38-5.37v-6.96h2.64v15.84h-2.83l-4.2-9-1.47-3.34h-.07c.12 1.68.39 3.58.39 5.33v7.01zm21.95.29c-3.99 0-6.99-2.93-6.99-8.16 0-5.21 3.03-8.26 7.11-8.26 2.08 0 3.5.98 4.46 1.97l-1.54 1.73c-.72-.77-1.56-1.3-2.92-1.3-2.5 0-4.25 2.18-4.25 5.76 0 3.62 1.51 5.86 4.29 5.86.84 0 1.66-.27 2.14-.72v-3.46h-2.71v-2.28h5.21v6.98c-1.04 1.01-2.79 1.88-4.8 1.88"/><path fill="#ededed" fill-rule="evenodd" d="M859.09 1873.59a24.8 24.8 0 0 1-2.152-10.14c0-13.53 10.773-24.5 24.062-24.5 3.564 0 6.952.79 9.999 2.21a8.42 8.42 0 0 1 4.667-1.41c4.746 0 8.594 3.92 8.594 8.75a8.84 8.84 0 0 1-1.374 4.75 24.8 24.8 0 0 1 2.176 10.2c0 13.53-10.773 24.5-24.062 24.5-3.613 0-7.044-.81-10.123-2.27a8.4 8.4 0 0 1-4.493 1.29c-4.746 0-8.594-3.92-8.594-8.75 0-1.7.476-3.29 1.3-4.63m1.285-10.14c0-11.6 9.234-21 20.625-21 2.609 0 5.102.49 7.396 1.39a8.8 8.8 0 0 0-1.312 5.12 15.25 15.25 0 0 0-6.084-1.26c-8.543 0-15.469 7.05-15.469 15.75 0 2.13.417 4.17 1.173 6.03-.106-.01-.213-.01-.32-.01-1.726 0-3.334.52-4.681 1.41a21.3 21.3 0 0 1-1.328-7.43m13.183 19.59c2.307.91 4.816 1.41 7.442 1.41 11.391 0 20.625-9.4 20.625-21 0-2.66-.485-5.21-1.37-7.55a8.4 8.4 0 0 1-4.589 1.35c-.149 0-.297 0-.444-.01.802 1.91 1.247 4 1.247 6.21 0 8.7-6.926 15.75-15.469 15.75-2.138 0-4.174-.44-6.026-1.24a8.825 8.825 0 0 1-1.416 5.08m16.952-34.54c0-2.89 2.309-5.25 5.156-5.25 2.848 0 5.156 2.36 5.156 5.25 0 2.9-2.308 5.25-5.156 5.25s-5.156-2.35-5.156-5.25m-18.434 23.16q.42.39.788.81c2.142 2 4.999 3.23 8.136 3.23 6.644 0 12.031-5.49 12.031-12.25 0-6.77-5.387-12.25-12.031-12.25s-12.031 5.48-12.031 12.25c0 3.16 1.176 6.04 3.107 8.21m-5.692 1.31c1.254 0 2.403.46 3.297 1.21.223.25.454.48.692.71a5.3 5.3 0 0 1 1.167 3.33c0 2.9-2.308 5.25-5.156 5.25s-5.156-2.35-5.156-5.25 2.308-5.25 5.156-5.25" clip-rule="evenodd"/><path stroke="#343434" stroke-width="2" d="M0 889.447h1600"/></svg>