<svg width="448" height="398" viewBox="0 0 448 398" fill="none" xmlns="http://www.w3.org/2000/svg">
<g filter="url(#filter0_f_2960_50603)">
<path d="M105.474 134.13C86.4035 173.066 106.71 209.238 186.185 248.163C265.66 287.088 370.008 290.498 389.078 251.562C408.148 212.625 417.384 177.153 265.268 172.163C185.862 180.974 124.544 95.1933 105.474 134.13Z" fill="#7032BF" fill-opacity="0.2"/>
</g>
<g filter="url(#filter1_f_2960_50603)">
<path d="M272.099 232.306C279 249.574 296.349 253.52 331.596 239.435C366.843 225.349 397.947 193.134 391.046 175.866C384.146 158.598 375.518 145.455 330.169 192.412C310.128 220.208 265.199 215.038 272.099 232.306Z" fill="#080316"/>
</g>
<g filter="url(#filter2_f_2960_50603)">
<path d="M242.635 244.346C243.888 262.899 259.182 271.991 297.053 269.432C334.924 266.873 374.43 245.789 373.176 227.235C371.923 208.682 367.756 193.522 310.161 224.251C282.541 244.534 241.381 225.792 242.635 244.346Z" fill="#0B84AD" fill-opacity="0.12"/>
</g>
<rect x="402.449" y="123.18" width="157.195" height="314.471" transform="rotate(90 402.449 123.18)" stroke="#CB3FF9" stroke-opacity="0.7" stroke-width="0.523751"/>
<rect x="404.528" y="120.637" width="4.71376" height="4.71376" transform="rotate(90 404.528 120.637)" fill="#F0F9F6" stroke="#CB3FF9" stroke-width="0.523751"/>
<path d="M404.528 278.805L404.528 278.543L404.266 278.543L400.076 278.543L399.814 278.543L399.814 278.805L399.814 282.995L399.814 283.257L400.076 283.257L404.266 283.257L404.528 283.257L404.528 282.995L404.528 278.805Z" fill="#F0F9F6" stroke="#CB3FF9" stroke-width="0.523751"/>
<rect x="90.5509" y="120.562" width="4.71376" height="4.71376" transform="rotate(90 90.5509 120.562)" fill="#F0F9F6" stroke="#CB3FF9" stroke-width="0.523751"/>
<rect x="90.0744" y="278.597" width="4.71376" height="4.71376" transform="rotate(90 90.0744 278.597)" fill="#F0F9F6" stroke="#CB3FF9" stroke-width="0.523751"/>
<circle cx="232.074" cy="235.719" r="0.629111" fill="#A095CF" fill-opacity="0.6"/>
<circle cx="222.848" cy="237.399" r="0.629111" fill="#A095CF" fill-opacity="0.6"/>
<circle cx="260.779" cy="269.052" r="0.629111" transform="rotate(51.6934 260.779 269.052)" fill="#A095CF" fill-opacity="0.6"/>
<circle cx="158.961" cy="245.09" r="0.629111" fill="#A095CF" fill-opacity="0.6"/>
<circle cx="214.461" cy="234.879" r="0.629111" fill="#A095CF" fill-opacity="0.6"/>
<circle cx="275.713" cy="256.837" r="0.629111" transform="rotate(51.6934 275.713 256.837)" fill="#A095CF" fill-opacity="0.6"/>
<circle cx="245.115" cy="244.013" r="0.629111" transform="rotate(51.6934 245.115 244.013)" fill="#A095CF" fill-opacity="0.6"/>
<circle cx="240.461" cy="229.848" r="0.629111" fill="#A095CF" fill-opacity="0.6"/>
<circle cx="237.11" cy="228.168" r="0.629111" fill="#A095CF" fill-opacity="0.6"/>
<circle cx="226.207" cy="224.813" r="0.629111" fill="#A095CF" fill-opacity="0.6"/>
<circle cx="229.555" cy="218.102" r="0.629111" fill="#A095CF" fill-opacity="0.6"/>
<circle cx="213.621" cy="214.746" r="0.629111" fill="#A095CF" fill-opacity="0.6"/>
<circle cx="204.395" cy="222.297" r="0.629111" fill="#A095CF" fill-opacity="0.6"/>
<circle cx="185.942" cy="213.91" r="0.629111" fill="#A095CF" fill-opacity="0.6"/>
<circle cx="189.293" cy="207.199" r="0.629111" fill="#A095CF" fill-opacity="0.6"/>
<circle cx="197.684" cy="198.813" r="0.629111" fill="#A095CF" fill-opacity="0.6"/>
<circle cx="211.809" cy="190.563" r="0.629111" fill="#A095CF" fill-opacity="0.6"/>
<circle cx="179.094" cy="190.563" r="0.629111" fill="#A095CF" fill-opacity="0.6"/>
<circle cx="201.738" cy="178.821" r="0.629111" fill="#A095CF" fill-opacity="0.6"/>
<circle cx="185.801" cy="183.016" r="0.629111" fill="#A095CF" fill-opacity="0.6"/>
<circle cx="189.156" cy="203.145" r="0.629111" fill="#A095CF" fill-opacity="0.6"/>
<circle cx="194.328" cy="197.133" r="0.629111" fill="#A095CF" fill-opacity="0.6"/>
<circle cx="181.606" cy="202.309" r="0.629111" fill="#A095CF" fill-opacity="0.6"/>
<circle cx="168.184" cy="197.278" r="0.629111" fill="#A095CF" fill-opacity="0.6"/>
<circle cx="171.543" cy="183.016" r="0.629111" fill="#A095CF" fill-opacity="0.6"/>
<circle cx="181.606" cy="177.985" r="0.629111" fill="#A095CF" fill-opacity="0.6"/>
<circle cx="184.965" cy="170.434" r="0.629111" fill="#A095CF" fill-opacity="0.6"/>
<circle cx="166.512" cy="174.625" r="0.629111" fill="#A095CF" fill-opacity="0.6"/>
<circle cx="174.899" cy="174.625" r="0.629111" fill="#A095CF" fill-opacity="0.6"/>
<circle cx="186.645" cy="191.403" r="0.629111" fill="#A095CF" fill-opacity="0.6"/>
<circle cx="176.574" cy="162.883" r="0.629111" fill="#A095CF" fill-opacity="0.6"/>
<circle cx="178.25" cy="172.11" r="0.629111" fill="#A095CF" fill-opacity="0.6"/>
<circle cx="185.801" cy="162.047" r="0.629111" fill="#A095CF" fill-opacity="0.6"/>
<circle cx="192.512" cy="162.883" r="0.629111" fill="#A095CF" fill-opacity="0.6"/>
<circle cx="192.512" cy="156.172" r="0.629111" fill="#A095CF" fill-opacity="0.6"/>
<circle cx="190" cy="154.496" r="0.629111" fill="#A095CF" fill-opacity="0.6"/>
<circle cx="171.543" cy="153.656" r="0.629111" fill="#A095CF" fill-opacity="0.6"/>
<circle cx="183.285" cy="158.688" r="0.629111" fill="#A095CF" fill-opacity="0.6"/>
<circle cx="127.293" cy="99.7775" r="0.629111" fill="#A095CF" fill-opacity="0.6"/>
<circle cx="142.387" cy="98.9416" r="0.629111" fill="#A095CF" fill-opacity="0.6"/>
<circle cx="192.512" cy="148.625" r="0.629111" fill="#A095CF" fill-opacity="0.6"/>
<circle cx="144.906" cy="103.973" r="0.629111" fill="#A095CF" fill-opacity="0.6"/>
<circle cx="206.821" cy="134.321" r="0.629111" fill="#A095CF" fill-opacity="0.6"/>
<circle cx="213.485" cy="140.238" r="0.629111" fill="#A095CF" fill-opacity="0.6"/>
<circle cx="180.77" cy="193.082" r="0.629111" fill="#A095CF" fill-opacity="0.6"/>
<circle cx="176.574" cy="195.598" r="0.629111" fill="#A095CF" fill-opacity="0.6"/>
<circle cx="187.617" cy="197.973" r="0.629111" fill="#A095CF" fill-opacity="0.6"/>
<circle cx="192.649" cy="210.559" r="0.629111" fill="#A095CF" fill-opacity="0.6"/>
<circle cx="279.455" cy="281.501" r="0.629111" transform="rotate(51.6934 279.455 281.501)" fill="#A095CF" fill-opacity="0.6"/>
<circle cx="348.433" cy="232.926" r="0.629111" transform="rotate(-180 348.433 232.926)" fill="#A095CF" fill-opacity="0.6"/>
<circle cx="341.726" cy="232.086" r="0.629111" transform="rotate(-180 341.726 232.086)" fill="#A095CF" fill-opacity="0.6"/>
<circle cx="292.332" cy="214.89" r="0.629111" transform="rotate(-180 292.332 214.89)" fill="#A095CF" fill-opacity="0.6"/>
<circle cx="341.726" cy="238.801" r="0.629111" transform="rotate(-180 341.726 238.801)" fill="#A095CF" fill-opacity="0.6"/>
<circle cx="344.234" cy="240.476" r="0.629111" transform="rotate(-180 344.234 240.476)" fill="#A095CF" fill-opacity="0.6"/>
<circle cx="293.172" cy="238.375" r="0.629111" transform="rotate(-180 293.172 238.375)" fill="#A095CF" fill-opacity="0.6"/>
<circle cx="341.726" cy="246.344" r="0.629111" transform="rotate(-180 341.726 246.344)" fill="#A095CF" fill-opacity="0.6"/>
<circle cx="290.656" cy="233.347" r="0.629111" transform="rotate(-180 290.656 233.347)" fill="#A095CF" fill-opacity="0.6"/>
<circle cx="287.301" cy="238.375" r="0.629111" transform="rotate(-180 287.301 238.375)" fill="#A095CF" fill-opacity="0.6"/>
<circle cx="279.75" cy="241.734" r="0.629111" transform="rotate(-180 279.75 241.734)" fill="#A095CF" fill-opacity="0.6"/>
<circle cx="273.879" cy="224.121" r="0.629111" transform="rotate(-180 273.879 224.121)" fill="#A095CF" fill-opacity="0.6"/>
<circle cx="301.916" cy="277.823" r="0.629111" transform="rotate(-128.307 301.916 277.823)" fill="#A095CF" fill-opacity="0.6"/>
<circle cx="273.039" cy="233.347" r="0.629111" transform="rotate(-180 273.039 233.347)" fill="#A095CF" fill-opacity="0.6"/>
<circle cx="320.125" cy="224.254" r="0.629111" transform="rotate(-180 320.125 224.254)" fill="#A095CF" fill-opacity="0.6"/>
<circle cx="307.312" cy="241.105" r="0.629111" transform="rotate(-180 307.312 241.105)" fill="#A095CF" fill-opacity="0.6"/>
<circle cx="264.422" cy="206.679" r="0.629111" transform="rotate(-180 264.422 206.679)" fill="#A095CF" fill-opacity="0.6"/>
<circle cx="268.617" cy="204.168" r="0.629111" transform="rotate(-180 268.617 204.168)" fill="#A095CF" fill-opacity="0.6"/>
<circle cx="346.855" cy="145.265" r="0.629111" transform="rotate(-180 346.855 145.265)" fill="#A095CF" fill-opacity="0.6"/>
<circle cx="249.324" cy="175.648" r="0.629111" transform="rotate(-180 249.324 175.648)" fill="#A095CF" fill-opacity="0.6"/>
<circle cx="264.422" cy="177.328" r="0.629111" transform="rotate(-180 264.422 177.328)" fill="#A095CF" fill-opacity="0.6"/>
<circle cx="39.9764" cy="53.2732" r="0.629111" transform="rotate(-180 39.9764 53.2732)" fill="#A095CF" fill-opacity="0.6"/>
<circle cx="76.0428" cy="58.0467" r="0.629111" transform="rotate(-180 76.0428 58.0467)" fill="#A095CF" fill-opacity="0.6"/>
<circle cx="46.3435" cy="22.5115" r="0.629111" transform="rotate(-180 46.3435 22.5115)" fill="#A095CF" fill-opacity="0.6"/>
<circle cx="49.5271" cy="23.7693" r="0.629111" transform="rotate(-180 49.5271 23.7693)" fill="#A095CF" fill-opacity="0.6"/>
<circle cx="318.618" cy="197.766" r="0.629111" transform="rotate(125.893 318.618 197.766)" fill="#A095CF" fill-opacity="0.6"/>
<circle cx="270.926" cy="206.492" r="0.629111" transform="rotate(125.893 270.926 206.492)" fill="#A095CF" fill-opacity="0.6"/>
<circle cx="313.063" cy="196.852" r="0.629111" transform="rotate(125.893 313.063 196.852)" fill="#A095CF" fill-opacity="0.6"/>
<circle cx="296.778" cy="196.684" r="0.629111" transform="rotate(125.893 296.778 196.684)" fill="#A095CF" fill-opacity="0.6"/>
<circle cx="315.176" cy="202.524" r="0.629111" transform="rotate(125.893 315.176 202.524)" fill="#A095CF" fill-opacity="0.6"/>
<circle cx="354.469" cy="223.606" r="0.629111" transform="rotate(125.893 354.469 223.606)" fill="#A095CF" fill-opacity="0.6"/>
<circle cx="241.793" cy="170.918" r="0.629111" transform="rotate(125.893 241.793 170.918)" fill="#A095CF" fill-opacity="0.6"/>
<circle cx="242.215" cy="166.047" r="0.629111" transform="rotate(125.893 242.215 166.047)" fill="#A095CF" fill-opacity="0.6"/>
<circle cx="257.122" cy="168.344" r="0.629111" transform="rotate(125.893 257.122 168.344)" fill="#A095CF" fill-opacity="0.6"/>
<circle cx="183.039" cy="112.438" r="0.629111" transform="rotate(125.893 183.039 112.438)" fill="#A095CF" fill-opacity="0.6"/>
<circle cx="259.641" cy="187.641" r="0.629111" transform="rotate(125.893 259.641 187.641)" fill="#A095CF" fill-opacity="0.6"/>
<circle cx="256.286" cy="183.446" r="0.629111" transform="rotate(125.893 256.286 183.446)" fill="#A095CF" fill-opacity="0.6"/>
<circle cx="270.543" cy="184.281" r="0.629111" transform="rotate(125.893 270.543 184.281)" fill="#A095CF" fill-opacity="0.6"/>
<circle cx="240.348" cy="191.836" r="0.629111" transform="rotate(125.893 240.348 191.836)" fill="#A095CF" fill-opacity="0.6"/>
<circle cx="205.872" cy="144.215" r="0.629111" transform="rotate(125.893 205.872 144.215)" fill="#A095CF" fill-opacity="0.6"/>
<circle cx="338.719" cy="188.297" r="0.629111" transform="rotate(125.893 338.719 188.297)" fill="#A095CF" fill-opacity="0.6"/>
<circle cx="274.743" cy="175.059" r="0.629111" transform="rotate(125.893 274.743 175.059)" fill="#A095CF" fill-opacity="0.6"/>
<circle cx="285.032" cy="124.547" r="0.629111" transform="rotate(125.893 285.032 124.547)" fill="#A095CF" fill-opacity="0.6"/>
<circle cx="187.59" cy="110.625" r="0.629111" transform="rotate(125.893 187.59 110.625)" fill="#A095CF" fill-opacity="0.6"/>
<circle cx="197.801" cy="99.3791" r="0.629111" transform="rotate(125.893 197.801 99.3791)" fill="#A095CF" fill-opacity="0.6"/>
<circle cx="206.817" cy="174.84" r="0.629111" transform="rotate(125.893 206.817 174.84)" fill="#A095CF" fill-opacity="0.6"/>
<circle cx="206.844" cy="101.325" r="0.629111" transform="rotate(75 206.844 101.325)" fill="#A095CF" fill-opacity="0.6"/>
<circle cx="200.028" cy="95.3408" r="0.629111" transform="rotate(75 200.028 95.3408)" fill="#A095CF" fill-opacity="0.6"/>
<circle cx="202.629" cy="105.063" r="0.629111" transform="rotate(75 202.629 105.063)" fill="#A095CF" fill-opacity="0.6"/>
<circle cx="209.957" cy="104.681" r="0.629111" transform="rotate(75 209.957 104.681)" fill="#A095CF" fill-opacity="0.6"/>
<circle cx="241.079" cy="158.173" r="0.629111" transform="rotate(75 241.079 158.173)" fill="#A095CF" fill-opacity="0.6"/>
<circle cx="243.598" cy="161.528" r="0.629111" transform="rotate(75 243.598 161.528)" fill="#A095CF" fill-opacity="0.6"/>
<circle cx="256.176" cy="161.528" r="0.629111" transform="rotate(75 256.176 161.528)" fill="#A095CF" fill-opacity="0.6"/>
<circle cx="233.77" cy="167.751" r="0.629111" transform="rotate(75 233.77 167.751)" fill="#A095CF" fill-opacity="0.6"/>
<circle cx="133.911" cy="120.091" r="0.629111" transform="rotate(75 133.911 120.091)" fill="#A095CF" fill-opacity="0.6"/>
<circle cx="103.067" cy="90.3721" r="0.629111" transform="rotate(75 103.067 90.3721)" fill="#A095CF" fill-opacity="0.6"/>
<circle cx="93.0044" cy="86.1728" r="0.629111" transform="rotate(75 93.0044 86.1728)" fill="#A095CF" fill-opacity="0.6"/>
<circle cx="116.399" cy="119.571" r="0.629111" transform="rotate(75 116.399 119.571)" fill="#A095CF" fill-opacity="0.6"/>
<circle cx="136.266" cy="94.9814" r="0.629111" transform="rotate(75 136.266 94.9814)" fill="#A095CF" fill-opacity="0.6"/>
<circle cx="212.086" cy="198.271" r="0.629111" transform="rotate(75 212.086 198.271)" fill="#A095CF" fill-opacity="0.6"/>
<circle cx="247.994" cy="244.95" r="0.629111" transform="rotate(51.6934 247.994 244.95)" fill="#A095CF" fill-opacity="0.6"/>
<circle cx="237.946" cy="212.231" r="0.629111" fill="#A095CF" fill-opacity="0.6"/>
<circle cx="203.555" cy="208.039" r="0.629111" fill="#A095CF" fill-opacity="0.6"/>
<circle cx="280.705" cy="273.938" r="0.629111" transform="rotate(51.6934 280.705 273.938)" fill="#A095CF" fill-opacity="0.6"/>
<circle cx="268.848" cy="243.41" r="0.629111" fill="#A095CF" fill-opacity="0.6"/>
<circle cx="328.221" cy="303.087" r="0.629111" transform="rotate(51.6934 328.221 303.087)" fill="#A095CF" fill-opacity="0.6"/>
<circle cx="268.008" cy="237.539" r="0.629111" fill="#A095CF" fill-opacity="0.6"/>
<circle cx="285.967" cy="290.087" r="0.629111" transform="rotate(51.6934 285.967 290.087)" fill="#A095CF" fill-opacity="0.6"/>
<circle cx="158.537" cy="221.345" r="0.724133" fill="#A095CF" fill-opacity="0.6"/>
<circle cx="399.078" cy="327.284" r="0.629111" transform="rotate(-143.307 399.078 327.284)" fill="#A095CF" fill-opacity="0.6"/>
<circle cx="305.104" cy="222.844" r="0.629111" transform="rotate(165 305.104 222.844)" fill="#A095CF" fill-opacity="0.6"/>
<circle cx="361.597" cy="237.368" r="0.629111" transform="rotate(165 361.597 237.368)" fill="#A095CF" fill-opacity="0.6"/>
<circle cx="275.085" cy="216.59" r="0.629111" transform="rotate(165 275.085 216.59)" fill="#A095CF" fill-opacity="0.6"/>
<circle cx="288.862" cy="212.895" r="0.629111" transform="rotate(165 288.862 212.895)" fill="#A095CF" fill-opacity="0.6"/>
<circle cx="295.827" cy="207.481" r="0.629111" transform="rotate(165 295.827 207.481)" fill="#A095CF" fill-opacity="0.6"/>
<circle cx="250.022" cy="192.602" r="0.629111" transform="rotate(165 250.022 192.602)" fill="#A095CF" fill-opacity="0.6"/>
<circle cx="246.937" cy="195.184" r="0.629111" transform="rotate(165 246.937 195.184)" fill="#A095CF" fill-opacity="0.6"/>
<circle cx="252.929" cy="188.368" r="0.629111" transform="rotate(165 252.929 188.368)" fill="#A095CF" fill-opacity="0.6"/>
<circle cx="262.554" cy="191.875" r="0.629111" transform="rotate(165 262.554 191.875)" fill="#A095CF" fill-opacity="0.6"/>
<circle cx="256.241" cy="203.977" r="0.629111" transform="rotate(165 256.241 203.977)" fill="#A095CF" fill-opacity="0.6"/>
<circle cx="255.374" cy="200.739" r="0.629111" transform="rotate(165 255.374 200.739)" fill="#A095CF" fill-opacity="0.6"/>
<circle cx="278.03" cy="234.036" r="0.629111" transform="rotate(165 278.03 234.036)" fill="#A095CF" fill-opacity="0.6"/>
<circle cx="282.714" cy="222.36" r="0.629111" transform="rotate(165 282.714 222.36)" fill="#A095CF" fill-opacity="0.6"/>
<circle cx="284.457" cy="280.768" r="0.629111" transform="rotate(-143.307 284.457 280.768)" fill="#A095CF" fill-opacity="0.6"/>
<circle cx="290.969" cy="286.315" r="0.629111" transform="rotate(-143.307 290.969 286.315)" fill="#A095CF" fill-opacity="0.6"/>
<circle cx="329.985" cy="323.288" r="0.629111" transform="rotate(-143.307 329.985 323.288)" fill="#A095CF" fill-opacity="0.6"/>
<circle cx="281.034" cy="219.336" r="0.629111" transform="rotate(165 281.034 219.336)" fill="#A095CF" fill-opacity="0.6"/>
<circle cx="350.856" cy="286.444" r="0.629111" transform="rotate(-143.307 350.856 286.444)" fill="#A095CF" fill-opacity="0.6"/>
<circle cx="269.288" cy="246.797" r="0.629111" transform="rotate(165 269.288 246.797)" fill="#A095CF" fill-opacity="0.6"/>
<circle cx="291.003" cy="243.586" r="0.629111" transform="rotate(165 291.003 243.586)" fill="#A095CF" fill-opacity="0.6"/>
<circle cx="250.296" cy="258.032" r="0.629111" transform="rotate(165 250.296 258.032)" fill="#A095CF" fill-opacity="0.6"/>
<circle cx="251.835" cy="296.762" r="0.629111" transform="rotate(165 251.835 296.762)" fill="#A095CF" fill-opacity="0.6"/>
<circle cx="340.047" cy="232.086" r="0.629111" transform="rotate(-180 340.047 232.086)" fill="#A095CF" fill-opacity="0.6"/>
<circle cx="300.402" cy="223.855" r="0.629111" transform="rotate(-180 300.402 223.855)" fill="#A095CF" fill-opacity="0.6"/>
<circle cx="255.446" cy="169.184" r="0.629111" transform="rotate(125.893 255.446 169.184)" fill="#A095CF" fill-opacity="0.6"/>
<circle cx="145.567" cy="144.364" r="0.629111" transform="rotate(75 145.567 144.364)" fill="#A095CF" fill-opacity="0.6"/>
<circle cx="257.016" cy="163.204" r="0.629111" transform="rotate(75 257.016 163.204)" fill="#A095CF" fill-opacity="0.6"/>
<circle cx="226.211" cy="127.798" r="0.629111" transform="rotate(75 226.211 127.798)" fill="#A095CF" fill-opacity="0.6"/>
<circle cx="136.938" cy="102.575" r="0.629111" transform="rotate(75 136.938 102.575)" fill="#A095CF" fill-opacity="0.6"/>
<circle cx="60.1841" cy="81.4658" r="0.629111" transform="rotate(75 60.1841 81.4658)" fill="#A095CF" fill-opacity="0.6"/>
<circle cx="277.235" cy="236.703" r="0.629111" fill="#A095CF" fill-opacity="0.6"/>
<circle cx="247.776" cy="196.864" r="0.629111" transform="rotate(165 247.776 196.864)" fill="#A095CF" fill-opacity="0.6"/>
<circle cx="325.379" cy="299.479" r="0.629111" transform="rotate(-143.307 325.379 299.479)" fill="#A095CF" fill-opacity="0.6"/>
<circle cx="239.202" cy="232.844" r="0.629111" transform="rotate(165 239.202 232.844)" fill="#A095CF" fill-opacity="0.6"/>
<circle cx="236.648" cy="325.746" r="0.629111" transform="rotate(-69.1069 236.648 325.746)" fill="#A095CF" fill-opacity="0.6"/>
<circle cx="334.664" cy="328.292" r="0.629111" transform="rotate(-143.307 334.664 328.292)" fill="#A095CF" fill-opacity="0.6"/>
<circle cx="342.352" cy="269.999" r="0.629111" transform="rotate(-143.307 342.352 269.999)" fill="#A095CF" fill-opacity="0.6"/>
<circle cx="219.632" cy="225.793" r="0.629111" transform="rotate(165 219.632 225.793)" fill="#A095CF" fill-opacity="0.6"/>
<circle cx="221.089" cy="234.79" r="0.629111" transform="rotate(165 221.089 234.79)" fill="#A095CF" fill-opacity="0.6"/>
<circle cx="201.952" cy="230.954" r="0.629111" transform="rotate(165 201.952 230.954)" fill="#A095CF" fill-opacity="0.6"/>
<circle cx="208.116" cy="234.516" r="0.629111" transform="rotate(165 208.116 234.516)" fill="#A095CF" fill-opacity="0.6"/>
<circle cx="179.858" cy="236.004" r="0.629111" transform="rotate(165 179.858 236.004)" fill="#A095CF" fill-opacity="0.6"/>
<circle cx="186.933" cy="233.243" r="0.629111" transform="rotate(165 186.933 233.243)" fill="#A095CF" fill-opacity="0.6"/>
<circle cx="190.276" cy="226.27" r="0.629111" transform="rotate(165 190.276 226.27)" fill="#A095CF" fill-opacity="0.6"/>
<circle cx="238.836" cy="206.312" r="0.724133" transform="rotate(165 238.836 206.312)" fill="#A095CF" fill-opacity="0.6"/>
<circle cx="315.308" cy="234.406" r="0.724133" transform="rotate(165 315.308 234.406)" fill="#A095CF" fill-opacity="0.6"/>
<circle cx="292.269" cy="198.023" r="0.724133" transform="rotate(165 292.269 198.023)" fill="#A095CF" fill-opacity="0.6"/>
<circle cx="284.949" cy="205.164" r="0.724133" transform="rotate(165 284.949 205.164)" fill="#A095CF" fill-opacity="0.6"/>
<ellipse cx="0.628907" cy="0.629111" rx="0.628907" ry="0.629111" transform="matrix(0.061383 -0.998114 0.99741 0.07192 223.59 285.66)" fill="#A095CF" fill-opacity="0.6"/>
<ellipse cx="0.628907" cy="0.629111" rx="0.628907" ry="0.629111" transform="matrix(0.061383 -0.998114 0.99741 0.07192 221.617 300.605)" fill="#A095CF" fill-opacity="0.6"/>
<ellipse cx="0.628907" cy="0.629111" rx="0.628907" ry="0.629111" transform="matrix(0.061383 -0.998114 0.99741 0.07192 228.508 291.504)" fill="#A095CF" fill-opacity="0.6"/>
<ellipse cx="0.628907" cy="0.629111" rx="0.628907" ry="0.629111" transform="matrix(0.061383 -0.998114 0.99741 0.07192 210.727 288.855)" fill="#A095CF" fill-opacity="0.6"/>
<ellipse cx="0.628907" cy="0.629111" rx="0.628907" ry="0.629111" transform="matrix(0.061383 -0.998114 0.99741 0.07192 222.312 264.598)" fill="#A095CF" fill-opacity="0.6"/>
<ellipse cx="0.628907" cy="0.629111" rx="0.628907" ry="0.629111" transform="matrix(0.061383 -0.998114 0.99741 0.07192 216.355 283.082)" fill="#A095CF" fill-opacity="0.6"/>
<ellipse cx="0.628907" cy="0.629111" rx="0.628907" ry="0.629111" transform="matrix(0.821275 -0.570532 0.561827 0.827254 326.375 280.766)" fill="#A095CF" fill-opacity="0.6"/>
<ellipse cx="0.628907" cy="0.629111" rx="0.628907" ry="0.629111" transform="matrix(0.061383 -0.998114 0.99741 0.07192 242.773 238.5)" fill="#A095CF" fill-opacity="0.6"/>
<ellipse cx="0.628907" cy="0.629111" rx="0.628907" ry="0.629111" transform="matrix(0.061383 -0.998114 0.99741 0.07192 218.781 253.375)" fill="#A095CF" fill-opacity="0.6"/>
<circle cx="0.629111" cy="0.629111" r="0.629111" transform="matrix(0.873077 0.487583 -0.78755 0.61625 207.047 193.66)" fill="#A095CF" fill-opacity="0.6"/>
<circle cx="0.629111" cy="0.629111" r="0.629111" transform="matrix(0.873077 0.487583 -0.78755 0.61625 195.707 192.559)" fill="#A095CF" fill-opacity="0.6"/>
<circle cx="0.629111" cy="0.629111" r="0.629111" transform="matrix(0.873077 0.487583 -0.78755 0.61625 205.625 198.098)" fill="#A095CF" fill-opacity="0.6"/>
<circle cx="0.629111" cy="0.629111" r="0.629111" transform="matrix(0.873077 0.487583 -0.78755 0.61625 211.664 199.977)" fill="#A095CF" fill-opacity="0.6"/>
<circle cx="0.629111" cy="0.629111" r="0.629111" transform="matrix(0.873077 0.487583 -0.78755 0.61625 160.984 190.082)" fill="#A095CF" fill-opacity="0.6"/>
<circle cx="0.629111" cy="0.629111" r="0.629111" transform="matrix(0.873077 0.487583 -0.78755 0.61625 155.559 192.434)" fill="#A095CF" fill-opacity="0.6"/>
<circle cx="0.629111" cy="0.629111" r="0.629111" transform="matrix(0.994947 -0.100399 0.322552 0.946552 133.883 217.773)" fill="#A095CF" fill-opacity="0.6"/>
<circle cx="0.629111" cy="0.629111" r="0.629111" transform="matrix(0.994947 -0.100399 0.322552 0.946552 133.781 211.777)" fill="#A095CF" fill-opacity="0.6"/>
<circle cx="0.629111" cy="0.629111" r="0.629111" transform="matrix(0.994947 -0.100399 0.322552 0.946552 116.457 201.609)" fill="#A095CF" fill-opacity="0.6"/>
<circle cx="0.629111" cy="0.629111" r="0.629111" transform="matrix(0.994947 -0.100399 0.322552 0.946552 137.609 201.086)" fill="#A095CF" fill-opacity="0.6"/>
<circle cx="0.629111" cy="0.629111" r="0.629111" transform="matrix(0.994947 -0.100399 0.322552 0.946552 138.234 190.84)" fill="#A095CF" fill-opacity="0.6"/>
<circle cx="0.629111" cy="0.629111" r="0.629111" transform="matrix(0.994947 -0.100399 0.322552 0.946552 192.012 243.359)" fill="#A095CF" fill-opacity="0.6"/>
<circle cx="0.629111" cy="0.629111" r="0.629111" transform="matrix(0.994947 -0.100399 0.322552 0.946552 206.141 152.031)" fill="#A095CF" fill-opacity="0.6"/>
<circle cx="0.629111" cy="0.629111" r="0.629111" transform="matrix(0.994947 -0.100399 0.322552 0.946552 191.043 137.773)" fill="#A095CF" fill-opacity="0.6"/>
<circle cx="0.629111" cy="0.629111" r="0.629111" transform="matrix(0.994947 -0.100399 0.322552 0.946552 196.918 128.547)" fill="#A095CF" fill-opacity="0.6"/>
<circle cx="0.629111" cy="0.629111" r="0.629111" transform="matrix(0.994947 -0.100399 0.322552 0.946552 91.4062 242.418)" fill="#A095CF" fill-opacity="0.6"/>
<circle cx="0.629111" cy="0.629111" r="0.629111" transform="matrix(0.994947 -0.100399 0.322552 0.946552 85.6406 250.234)" fill="#A095CF" fill-opacity="0.6"/>
<circle cx="0.629111" cy="0.629111" r="0.629111" transform="matrix(0.994947 -0.100399 0.322552 0.946552 161.867 304.211)" fill="#A095CF" fill-opacity="0.6"/>
<circle cx="0.629111" cy="0.629111" r="0.629111" transform="matrix(0.994947 -0.100399 0.322552 0.946552 130.055 239.961)" fill="#A095CF" fill-opacity="0.6"/>
<ellipse cx="0.628907" cy="0.629111" rx="0.628907" ry="0.629111" transform="matrix(0.821275 -0.570532 0.561827 0.827254 305.57 267.625)" fill="#A095CF" fill-opacity="0.6"/>
<ellipse cx="0.628907" cy="0.629111" rx="0.628907" ry="0.629111" transform="matrix(0.061383 -0.998114 0.99741 0.07192 208.223 148.23)" fill="#A095CF" fill-opacity="0.6"/>
<ellipse cx="0.628907" cy="0.629111" rx="0.628907" ry="0.629111" transform="matrix(0.061383 -0.998114 0.99741 0.07192 207.758 155.742)" fill="#A095CF" fill-opacity="0.6"/>
<ellipse cx="0.628907" cy="0.629111" rx="0.628907" ry="0.629111" transform="matrix(0.061383 -0.998114 0.99741 0.07192 284.254 195.609)" fill="#A095CF" fill-opacity="0.6"/>
<circle cx="0.629111" cy="0.629111" r="0.629111" transform="matrix(0.322553 0.946552 -0.994947 0.100399 156.613 119.547)" fill="#A095CF" fill-opacity="0.6"/>
<circle cx="0.629111" cy="0.629111" r="0.629111" transform="matrix(0.322553 0.946552 -0.994947 0.100399 229.984 195.566)" fill="#A095CF" fill-opacity="0.6"/>
<circle cx="0.629111" cy="0.629111" r="0.629111" transform="matrix(0.322553 0.946552 -0.994947 0.100399 219.477 202.305)" fill="#A095CF" fill-opacity="0.6"/>
<circle cx="0.629111" cy="0.629111" r="0.629111" transform="matrix(0.322553 0.946552 -0.994947 0.100399 181.062 211.199)" fill="#A095CF" fill-opacity="0.6"/>
<circle cx="0.629111" cy="0.629111" r="0.629111" transform="matrix(0.322553 0.946552 -0.994947 0.100399 162.285 195.754)" fill="#A095CF" fill-opacity="0.6"/>
<circle cx="0.629111" cy="0.629111" r="0.629111" transform="matrix(0.322553 0.946552 -0.994947 0.100399 177.695 198.199)" fill="#A095CF" fill-opacity="0.6"/>
<circle cx="0.629111" cy="0.629111" r="0.629111" transform="matrix(0.322553 0.946552 -0.994947 0.100399 277.855 198.125)" fill="#A095CF" fill-opacity="0.6"/>
<circle cx="0.629111" cy="0.629111" r="0.629111" transform="matrix(0.322553 0.946552 -0.994947 0.100399 339.621 196.117)" fill="#A095CF" fill-opacity="0.6"/>
<circle cx="0.629111" cy="0.629111" r="0.629111" transform="matrix(0.322553 0.946552 -0.994947 0.100399 314.141 225.066)" fill="#A095CF" fill-opacity="0.6"/>
<circle cx="0.629111" cy="0.629111" r="0.629111" transform="matrix(-0.542824 0.839847 -0.69552 -0.718507 285.195 254.875)" fill="#A095CF" fill-opacity="0.6"/>
<circle cx="0.629111" cy="0.629111" r="0.629111" transform="matrix(-0.542824 0.839847 -0.69552 -0.718507 282.695 255.777)" fill="#A095CF" fill-opacity="0.6"/>
<circle cx="0.629111" cy="0.629111" r="0.629111" transform="matrix(0.322553 0.946552 -0.994947 0.100399 277.156 222.125)" fill="#A095CF" fill-opacity="0.6"/>
<circle cx="0.629111" cy="0.629111" r="0.629111" transform="matrix(-0.542824 0.839847 -0.69552 -0.718507 291.809 278.703)" fill="#A095CF" fill-opacity="0.6"/>
<circle cx="0.629111" cy="0.629111" r="0.629111" transform="matrix(0.322553 0.946552 -0.994947 0.100399 337.43 262.766)" fill="#A095CF" fill-opacity="0.6"/>
<ellipse cx="0.628907" cy="0.629111" rx="0.628907" ry="0.629111" transform="matrix(-0.0613831 0.998114 -0.99741 -0.0719201 234.391 200.867)" fill="#A095CF" fill-opacity="0.6"/>
<circle cx="0.629111" cy="0.629111" r="0.629111" transform="matrix(0.994947 -0.100399 0.322552 0.946552 89.5469 161.543)" fill="#A095CF" fill-opacity="0.6"/>
<circle cx="0.629111" cy="0.629111" r="0.629111" transform="matrix(0.994947 -0.100399 0.322552 0.946552 206.141 91.6367)" fill="#A095CF" fill-opacity="0.6"/>
<circle cx="0.629111" cy="0.629111" r="0.629111" transform="matrix(0.994947 -0.100399 0.322552 0.946552 132.203 239.43)" fill="#A095CF" fill-opacity="0.6"/>
<circle cx="0.629111" cy="0.629111" r="0.629111" transform="matrix(0.322553 0.946552 -0.994947 0.100399 183.211 210.676)" fill="#A095CF" fill-opacity="0.6"/>
<ellipse cx="0.629111" cy="0.629111" rx="0.629111" ry="0.629111" transform="matrix(-0.95101 -0.309159 0.561017 -0.827804 184.664 93.0039)" fill="#A095CF" fill-opacity="0.6"/>
<ellipse cx="0.629111" cy="0.629111" rx="0.629111" ry="0.629111" transform="matrix(-0.95101 -0.309159 0.561017 -0.827804 328.914 226.914)" fill="#A095CF" fill-opacity="0.6"/>
<circle cx="0.629111" cy="0.629111" r="0.629111" transform="matrix(-0.958827 0.28399 -0.613701 -0.789538 318.617 244.406)" fill="#A095CF" fill-opacity="0.6"/>
<circle cx="0.629111" cy="0.629111" r="0.629111" transform="matrix(-0.958827 0.28399 -0.613701 -0.789538 221.516 72.4336)" fill="#A095CF" fill-opacity="0.6"/>
<circle cx="233.21" cy="232.592" r="0.754933" transform="rotate(-15 233.21 232.592)" fill="#FFFFF9"/>
<circle cx="147.098" cy="225.089" r="0.754933" transform="rotate(89.5676 147.098 225.089)" fill="#FFFFF9"/>
<circle cx="144.007" cy="123.62" r="0.754933" transform="rotate(-15 144.007 123.62)" fill="#FFFFF9"/>
<circle cx="293.464" cy="201.698" r="0.754933" transform="rotate(-15 293.464 201.698)" fill="#FFFFF9"/>
<circle cx="251.3" cy="185.104" r="0.754933" transform="rotate(-15 251.3 185.104)" fill="#FFFFF9"/>
<circle cx="326.655" cy="242.714" r="0.754933" transform="rotate(-15 326.655 242.714)" fill="#FFFFF9"/>
<circle cx="399.206" cy="347.647" r="0.754933" transform="rotate(-15 399.206 347.647)" fill="#FFFFF9"/>
<circle cx="272.636" cy="246.964" r="0.754933" transform="rotate(-15 272.636 246.964)" fill="#FFFFF9"/>
<circle cx="222.819" cy="232.194" r="0.754933" transform="rotate(-15 222.819 232.194)" fill="#FFFFF9"/>
<circle cx="174.866" cy="163.553" r="0.754933" transform="rotate(-15 174.866 163.553)" fill="#FFFFF9"/>
<circle cx="179.061" cy="175.296" r="0.754933" transform="rotate(-15 179.061 175.296)" fill="#FFFFF9"/>
<circle cx="187.448" cy="168.589" r="0.754933" transform="rotate(-15 187.448 168.589)" fill="#FFFFF9"/>
<circle cx="251.415" cy="136.307" r="0.754933" transform="rotate(89.5676 251.415 136.307)" fill="#FFFFF9"/>
<circle cx="271.34" cy="227.36" r="0.754934" transform="rotate(150 271.34 227.36)" fill="#FFFFF9"/>
<circle cx="292.226" cy="209.708" r="0.754933" transform="rotate(-105.432 292.226 209.708)" fill="#FFFFF9"/>
<circle cx="308.836" cy="251.818" r="0.754933" transform="rotate(-53.7389 308.836 251.818)" fill="#FFFFF9"/>
<circle cx="202.171" cy="103.294" r="0.754933" transform="rotate(-105.432 202.171 103.294)" fill="#FFFFF9"/>
<circle cx="246.656" cy="168.657" r="0.754933" transform="rotate(-105.432 246.656 168.657)" fill="#FFFFF9"/>
<circle cx="125.988" cy="152.294" r="0.754933" transform="rotate(-105.432 125.988 152.294)" fill="#FFFFF9"/>
<circle cx="194.097" cy="148.212" r="0.754933" transform="rotate(-105.432 194.097 148.212)" fill="#FFFFF9"/>
<circle cx="172.07" cy="135.247" r="0.754933" transform="rotate(-105.432 172.07 135.247)" fill="#FFFFF9"/>
<circle cx="192.156" cy="195.306" r="0.754933" transform="rotate(-105.432 192.156 195.306)" fill="#FFFFF9"/>
<circle cx="110.312" cy="83.1612" r="0.754933" transform="rotate(-105.432 110.312 83.1612)" fill="#FFFFF9"/>
<circle cx="121.914" cy="139.607" r="0.754933" transform="rotate(-105.432 121.914 139.607)" fill="#FFFFF9"/>
<circle cx="206.304" cy="206.353" r="0.754933" transform="rotate(-105.432 206.304 206.353)" fill="#FFFFF9"/>
<circle cx="223.082" cy="218.931" r="0.754933" transform="rotate(-105.432 223.082 218.931)" fill="#FFFFF9"/>
<circle cx="375.667" cy="340.415" r="0.754933" transform="rotate(-105.432 375.667 340.415)" fill="#FFFFF9"/>
<circle cx="231.085" cy="223.954" r="0.754933" transform="rotate(-105.432 231.085 223.954)" fill="#FFFFF9"/>
<circle cx="282.75" cy="228.271" r="0.754934" transform="rotate(150 282.75 228.271)" fill="#FFFFF9"/>
<circle cx="116.66" cy="237.161" r="0.754934" transform="rotate(150 116.66 237.161)" fill="#FFFFF9"/>
<circle cx="289.957" cy="268.165" r="0.754934" transform="rotate(150 289.957 268.165)" fill="#FFFFF9"/>
<circle cx="248.652" cy="253.622" r="0.754934" transform="rotate(150 248.652 253.622)" fill="#FFFFF9"/>
<circle cx="292.781" cy="218.728" r="0.754933" transform="rotate(-105.432 292.781 218.728)" fill="#FFFFF9"/>
<g filter="url(#filter3_b_2960_50603)">
<rect x="49" y="145.008" width="263.922" height="31.6513" rx="8" fill="url(#paint0_linear_2960_50603)"/>
<path d="M70.8523 159.832C70.7741 159.593 70.6712 159.379 70.5433 159.189C70.4179 158.998 70.2675 158.834 70.0923 158.699C69.9195 158.564 69.723 158.461 69.5028 158.39C69.2827 158.319 69.0412 158.284 68.7784 158.284C68.3475 158.284 67.9557 158.395 67.603 158.618C67.2502 158.84 66.9697 159.168 66.7614 159.601C66.553 160.034 66.4489 160.566 66.4489 161.196C66.4489 161.825 66.5542 162.357 66.7649 162.79C66.9756 163.223 67.2609 163.551 67.6207 163.774C67.9806 163.996 68.3854 164.108 68.8352 164.108C69.2519 164.108 69.6188 164.019 69.9361 163.841C70.2557 163.661 70.5043 163.408 70.6818 163.081C70.8617 162.752 70.9517 162.365 70.9517 161.92L71.2216 161.977H69.0341V161.196H71.804V161.977C71.804 162.576 71.6761 163.097 71.4205 163.539C71.1671 163.982 70.8168 164.325 70.3693 164.569C69.9242 164.811 69.4129 164.931 68.8352 164.931C68.1913 164.931 67.6255 164.78 67.1378 164.477C66.6525 164.174 66.2737 163.743 66.0014 163.184C65.7315 162.626 65.5966 161.963 65.5966 161.196C65.5966 160.62 65.6735 160.103 65.8274 159.644C65.9837 159.182 66.2038 158.789 66.4879 158.465C66.772 158.141 67.1082 157.892 67.4964 157.719C67.8847 157.546 68.312 157.46 68.7784 157.46C69.1619 157.46 69.5194 157.518 69.8509 157.634C70.1847 157.748 70.4818 157.91 70.7422 158.12C71.005 158.329 71.224 158.578 71.3991 158.87C71.5743 159.158 71.6951 159.479 71.7614 159.832H70.8523ZM75.4146 164.946C74.9222 164.946 74.4901 164.828 74.1184 164.594C73.7491 164.36 73.4603 164.032 73.252 163.61C73.046 163.189 72.943 162.697 72.943 162.133C72.943 161.565 73.046 161.069 73.252 160.645C73.4603 160.221 73.7491 159.892 74.1184 159.658C74.4901 159.424 74.9222 159.306 75.4146 159.306C75.907 159.306 76.3379 159.424 76.7072 159.658C77.0789 159.892 77.3677 160.221 77.5737 160.645C77.782 161.069 77.8862 161.565 77.8862 162.133C77.8862 162.697 77.782 163.189 77.5737 163.61C77.3677 164.032 77.0789 164.36 76.7072 164.594C76.3379 164.828 75.907 164.946 75.4146 164.946ZM75.4146 164.193C75.7886 164.193 76.0964 164.097 76.3379 163.905C76.5794 163.713 76.7581 163.461 76.8741 163.149C76.9901 162.836 77.0481 162.498 77.0481 162.133C77.0481 161.769 76.9901 161.429 76.8741 161.114C76.7581 160.799 76.5794 160.545 76.3379 160.35C76.0964 160.156 75.7886 160.059 75.4146 160.059C75.0405 160.059 74.7328 160.156 74.4913 160.35C74.2498 160.545 74.0711 160.799 73.9551 161.114C73.8391 161.429 73.7811 161.769 73.7811 162.133C73.7811 162.498 73.8391 162.836 73.9551 163.149C74.0711 163.461 74.2498 163.713 74.4913 163.905C74.7328 164.097 75.0405 164.193 75.4146 164.193ZM80.0036 157.559V164.832H79.1655V157.559H80.0036ZM83.5982 164.946C83.1436 164.946 82.7424 164.831 82.3944 164.601C82.0463 164.369 81.7741 164.042 81.5776 163.621C81.3811 163.197 81.2828 162.697 81.2828 162.119C81.2828 161.546 81.3811 161.049 81.5776 160.627C81.7741 160.206 82.0475 159.881 82.3979 159.651C82.7483 159.421 83.1531 159.306 83.6124 159.306C83.9675 159.306 84.248 159.366 84.454 159.484C84.6623 159.6 84.821 159.733 84.9299 159.882C85.0411 160.029 85.1275 160.149 85.1891 160.244H85.2601V157.559H86.0982V164.832H85.2885V163.994H85.1891C85.1275 164.093 85.04 164.219 84.9263 164.37C84.8127 164.52 84.6505 164.653 84.4398 164.772C84.2291 164.888 83.9486 164.946 83.5982 164.946ZM83.7118 164.193C84.048 164.193 84.3321 164.105 84.5641 163.93C84.7961 163.752 84.9725 163.507 85.0932 163.195C85.214 162.88 85.2743 162.517 85.2743 162.105C85.2743 161.698 85.2151 161.341 85.0968 161.036C84.9784 160.728 84.8032 160.489 84.5712 160.319C84.3392 160.146 84.0527 160.059 83.7118 160.059C83.3567 160.059 83.0608 160.15 82.824 160.333C82.5897 160.513 82.4133 160.758 82.2949 161.068C82.1789 161.376 82.1209 161.721 82.1209 162.105C82.1209 162.493 82.1801 162.846 82.2985 163.163C82.4192 163.478 82.5968 163.729 82.8311 163.916C83.0679 164.1 83.3614 164.193 83.7118 164.193ZM90.6756 164.832V157.559H93.133C93.7035 157.559 94.1699 157.662 94.5321 157.868C94.8967 158.072 95.1666 158.348 95.3418 158.696C95.517 159.044 95.6046 159.432 95.6046 159.86C95.6046 160.289 95.517 160.678 95.3418 161.029C95.169 161.379 94.9015 161.658 94.5392 161.867C94.177 162.073 93.713 162.176 93.1472 162.176H91.3858V161.395H93.1188C93.5094 161.395 93.8231 161.327 94.0598 161.192C94.2966 161.057 94.4682 160.875 94.5748 160.645C94.6837 160.413 94.7381 160.152 94.7381 159.86C94.7381 159.569 94.6837 159.309 94.5748 159.079C94.4682 158.85 94.2954 158.67 94.0563 158.539C93.8172 158.407 93.4999 158.341 93.1046 158.341H91.5563V164.832H90.6756ZM98.5147 164.96C98.1691 164.96 97.8554 164.895 97.5737 164.765C97.292 164.632 97.0682 164.441 96.9025 164.193C96.7368 163.942 96.6539 163.639 96.6539 163.284C96.6539 162.971 96.7155 162.718 96.8386 162.524C96.9617 162.327 97.1262 162.173 97.3322 162.062C97.5382 161.951 97.7654 161.868 98.014 161.814C98.265 161.757 98.5171 161.712 98.7704 161.679C99.1019 161.636 99.3706 161.604 99.5765 161.583C99.7849 161.559 99.9364 161.52 100.031 161.466C100.128 161.411 100.177 161.316 100.177 161.181V161.153C100.177 160.803 100.081 160.53 99.889 160.336C99.6996 160.142 99.412 160.045 99.0261 160.045C98.626 160.045 98.3123 160.133 98.085 160.308C97.8578 160.483 97.698 160.67 97.6056 160.869L96.8102 160.585C96.9522 160.253 97.1416 159.995 97.3784 159.811C97.6175 159.624 97.8779 159.493 98.1596 159.42C98.4437 159.344 98.7231 159.306 98.9977 159.306C99.1729 159.306 99.3741 159.328 99.6014 159.37C99.831 159.411 100.052 159.495 100.265 159.623C100.481 159.75 100.66 159.943 100.802 160.201C100.944 160.459 101.015 160.805 101.015 161.238V164.832H100.177V164.093H100.134C100.077 164.212 99.9825 164.338 99.85 164.473C99.7174 164.608 99.541 164.723 99.3208 164.818C99.1007 164.913 98.832 164.96 98.5147 164.96ZM98.6426 164.207C98.974 164.207 99.2534 164.142 99.4806 164.012C99.7103 163.882 99.8831 163.713 99.9991 163.507C100.117 163.301 100.177 163.085 100.177 162.858V162.091C100.141 162.133 100.063 162.172 99.9423 162.208C99.8239 162.241 99.6866 162.27 99.5304 162.297C99.3765 162.32 99.2261 162.342 99.0794 162.36C98.935 162.377 98.8178 162.391 98.7278 162.403C98.51 162.431 98.3064 162.478 98.117 162.542C97.93 162.603 97.7785 162.697 97.6625 162.822C97.5488 162.945 97.492 163.113 97.492 163.326C97.492 163.618 97.5997 163.838 97.8152 163.987C98.033 164.134 98.3088 164.207 98.6426 164.207ZM102.544 164.832V159.377H103.354V160.201H103.411C103.51 159.931 103.69 159.712 103.951 159.544C104.211 159.376 104.505 159.292 104.831 159.292C104.893 159.292 104.97 159.293 105.062 159.296C105.154 159.298 105.224 159.302 105.272 159.306V160.159C105.243 160.152 105.178 160.141 105.076 160.127C104.977 160.11 104.872 160.102 104.76 160.102C104.495 160.102 104.258 160.158 104.05 160.269C103.844 160.378 103.681 160.529 103.56 160.723C103.442 160.915 103.382 161.134 103.382 161.38V164.832H102.544ZM108.979 159.377V160.088H106.152V159.377H108.979ZM106.976 158.071H107.814V163.27C107.814 163.506 107.849 163.684 107.917 163.802C107.988 163.918 108.078 163.996 108.187 164.037C108.298 164.074 108.416 164.093 108.539 164.093C108.631 164.093 108.707 164.089 108.766 164.079C108.825 164.067 108.873 164.058 108.908 164.051L109.078 164.804C109.022 164.825 108.942 164.846 108.841 164.868C108.739 164.891 108.61 164.903 108.453 164.903C108.217 164.903 107.985 164.852 107.757 164.75C107.533 164.649 107.346 164.493 107.196 164.285C107.05 164.077 106.976 163.814 106.976 163.497V158.071ZM110.24 164.832V159.377H111.078V164.832H110.24ZM110.666 158.468C110.502 158.468 110.362 158.413 110.243 158.301C110.127 158.19 110.069 158.056 110.069 157.9C110.069 157.744 110.127 157.61 110.243 157.499C110.362 157.388 110.502 157.332 110.666 157.332C110.829 157.332 110.969 157.388 111.085 157.499C111.203 157.61 111.262 157.744 111.262 157.9C111.262 158.056 111.203 158.19 111.085 158.301C110.969 158.413 110.829 158.468 110.666 158.468ZM114.829 164.946C114.317 164.946 113.877 164.825 113.508 164.583C113.138 164.342 112.854 164.009 112.655 163.586C112.456 163.162 112.357 162.678 112.357 162.133C112.357 161.579 112.459 161.09 112.662 160.667C112.868 160.24 113.155 159.908 113.522 159.669C113.891 159.427 114.322 159.306 114.814 159.306C115.198 159.306 115.544 159.377 115.851 159.52C116.159 159.662 116.411 159.86 116.608 160.116C116.804 160.372 116.926 160.67 116.974 161.011H116.135C116.072 160.762 115.93 160.542 115.709 160.35C115.492 160.156 115.198 160.059 114.829 160.059C114.502 160.059 114.215 160.145 113.969 160.315C113.725 160.483 113.535 160.721 113.398 161.029C113.263 161.334 113.195 161.693 113.195 162.105C113.195 162.526 113.261 162.893 113.394 163.206C113.529 163.518 113.718 163.761 113.962 163.934C114.208 164.106 114.497 164.193 114.829 164.193C115.046 164.193 115.244 164.155 115.422 164.079C115.599 164.003 115.75 163.895 115.873 163.752C115.996 163.61 116.083 163.44 116.135 163.241H116.974C116.926 163.563 116.809 163.853 116.622 164.111C116.437 164.367 116.192 164.57 115.887 164.722C115.584 164.871 115.231 164.946 114.829 164.946ZM119.037 157.559V164.832H118.199V157.559H119.037ZM122.859 164.946C122.333 164.946 121.88 164.83 121.499 164.598C121.12 164.363 120.827 164.037 120.621 163.618C120.418 163.196 120.316 162.706 120.316 162.147C120.316 161.589 120.418 161.096 120.621 160.67C120.827 160.242 121.114 159.908 121.481 159.669C121.85 159.427 122.281 159.306 122.773 159.306C123.058 159.306 123.338 159.354 123.615 159.449C123.892 159.543 124.144 159.697 124.371 159.91C124.599 160.121 124.78 160.4 124.915 160.748C125.05 161.096 125.117 161.525 125.117 162.034V162.389H120.913V161.664H124.265C124.265 161.357 124.203 161.082 124.08 160.841C123.96 160.599 123.787 160.408 123.562 160.269C123.339 160.129 123.076 160.059 122.773 160.059C122.44 160.059 122.151 160.142 121.907 160.308C121.665 160.471 121.48 160.684 121.349 160.947C121.219 161.21 121.154 161.492 121.154 161.792V162.275C121.154 162.687 121.225 163.036 121.367 163.323C121.512 163.607 121.712 163.824 121.967 163.973C122.223 164.119 122.52 164.193 122.859 164.193C123.079 164.193 123.278 164.162 123.455 164.1C123.635 164.037 123.79 163.942 123.92 163.816C124.051 163.689 124.151 163.53 124.222 163.341L125.032 163.568C124.947 163.842 124.804 164.084 124.602 164.292C124.401 164.498 124.152 164.659 123.857 164.775C123.561 164.889 123.228 164.946 122.859 164.946ZM130.256 160.599L129.503 160.812C129.455 160.687 129.386 160.565 129.293 160.446C129.203 160.326 129.08 160.226 128.924 160.148C128.768 160.07 128.568 160.031 128.324 160.031C127.99 160.031 127.712 160.108 127.489 160.262C127.269 160.413 127.159 160.606 127.159 160.841C127.159 161.049 127.235 161.213 127.386 161.334C127.538 161.455 127.775 161.556 128.097 161.636L128.906 161.835C129.394 161.953 129.757 162.134 129.996 162.378C130.236 162.62 130.355 162.931 130.355 163.312C130.355 163.625 130.265 163.904 130.085 164.15C129.908 164.396 129.659 164.591 129.339 164.733C129.02 164.875 128.648 164.946 128.224 164.946C127.668 164.946 127.208 164.825 126.843 164.583C126.478 164.342 126.248 163.989 126.151 163.525L126.946 163.326C127.022 163.62 127.165 163.84 127.376 163.987C127.589 164.134 127.867 164.207 128.21 164.207C128.601 164.207 128.911 164.124 129.141 163.958C129.373 163.79 129.489 163.589 129.489 163.355C129.489 163.165 129.422 163.007 129.29 162.879C129.157 162.749 128.954 162.652 128.679 162.588L127.77 162.375C127.27 162.256 126.903 162.073 126.669 161.824C126.437 161.573 126.321 161.26 126.321 160.883C126.321 160.575 126.407 160.303 126.58 160.066C126.755 159.83 126.993 159.644 127.294 159.509C127.597 159.374 127.94 159.306 128.324 159.306C128.864 159.306 129.287 159.425 129.595 159.662C129.905 159.898 130.125 160.211 130.256 160.599ZM138.52 159.377C138.477 159.018 138.305 158.738 138.002 158.539C137.699 158.341 137.327 158.241 136.887 158.241C136.565 158.241 136.283 158.293 136.041 158.397C135.802 158.502 135.615 158.645 135.48 158.827C135.348 159.009 135.281 159.217 135.281 159.449C135.281 159.643 135.328 159.81 135.42 159.949C135.515 160.087 135.635 160.201 135.782 160.294C135.929 160.384 136.083 160.458 136.244 160.517C136.405 160.574 136.553 160.62 136.688 160.656L137.426 160.855C137.616 160.904 137.826 160.973 138.058 161.061C138.293 161.148 138.517 161.268 138.73 161.419C138.945 161.569 139.123 161.76 139.262 161.995C139.402 162.229 139.472 162.517 139.472 162.858C139.472 163.251 139.369 163.606 139.163 163.923C138.959 164.24 138.661 164.492 138.268 164.679C137.877 164.866 137.403 164.96 136.844 164.96C136.323 164.96 135.872 164.876 135.491 164.708C135.112 164.54 134.814 164.305 134.596 164.005C134.381 163.704 134.259 163.355 134.23 162.957H135.139C135.163 163.232 135.255 163.459 135.416 163.639C135.58 163.816 135.786 163.949 136.034 164.037C136.285 164.122 136.555 164.164 136.844 164.164C137.18 164.164 137.482 164.11 137.749 164.001C138.017 163.89 138.229 163.736 138.385 163.539C138.541 163.341 138.619 163.109 138.619 162.843C138.619 162.602 138.552 162.405 138.417 162.254C138.282 162.102 138.105 161.979 137.884 161.885C137.664 161.79 137.426 161.707 137.171 161.636L136.276 161.38C135.708 161.217 135.258 160.984 134.926 160.681C134.595 160.378 134.429 159.981 134.429 159.491C134.429 159.084 134.539 158.729 134.759 158.426C134.982 158.12 135.28 157.884 135.654 157.716C136.031 157.545 136.451 157.46 136.915 157.46C137.384 157.46 137.8 157.544 138.165 157.712C138.53 157.878 138.818 158.105 139.031 158.394C139.247 158.683 139.36 159.011 139.372 159.377H138.52ZM140.806 164.832V159.377H141.644V164.832H140.806ZM141.232 158.468C141.069 158.468 140.928 158.413 140.81 158.301C140.694 158.19 140.636 158.056 140.636 157.9C140.636 157.744 140.694 157.61 140.81 157.499C140.928 157.388 141.069 157.332 141.232 157.332C141.396 157.332 141.535 157.388 141.651 157.499C141.77 157.61 141.829 157.744 141.829 157.9C141.829 158.056 141.77 158.19 141.651 158.301C141.535 158.413 141.396 158.468 141.232 158.468ZM143.023 164.832V164.193L146.119 160.216V160.159H143.122V159.377H147.199V160.045L144.188 163.994V164.051H147.298V164.832H143.023ZM150.72 164.946C150.194 164.946 149.741 164.83 149.36 164.598C148.981 164.363 148.689 164.037 148.483 163.618C148.279 163.196 148.177 162.706 148.177 162.147C148.177 161.589 148.279 161.096 148.483 160.67C148.689 160.242 148.975 159.908 149.342 159.669C149.711 159.427 150.142 159.306 150.635 159.306C150.919 159.306 151.199 159.354 151.476 159.449C151.753 159.543 152.006 159.697 152.233 159.91C152.46 160.121 152.641 160.4 152.776 160.748C152.911 161.096 152.979 161.525 152.979 162.034V162.389H148.774V161.664H152.126C152.126 161.357 152.065 161.082 151.942 160.841C151.821 160.599 151.648 160.408 151.423 160.269C151.201 160.129 150.938 160.059 150.635 160.059C150.301 160.059 150.012 160.142 149.768 160.308C149.527 160.471 149.341 160.684 149.211 160.947C149.081 161.21 149.015 161.492 149.015 161.792V162.275C149.015 162.687 149.086 163.036 149.229 163.323C149.373 163.607 149.573 163.824 149.829 163.973C150.084 164.119 150.381 164.193 150.72 164.193C150.94 164.193 151.139 164.162 151.317 164.1C151.497 164.037 151.652 163.942 151.782 163.816C151.912 163.689 152.013 163.53 152.084 163.341L152.893 163.568C152.808 163.842 152.665 164.084 152.464 164.292C152.262 164.498 152.014 164.659 151.718 164.775C151.422 164.889 151.089 164.946 150.72 164.946Z" fill="white" fill-opacity="0.68"/>
<g filter="url(#filter4_b_2960_50603)">
<rect x="162" y="153.008" width="113.922" height="15.6513" rx="2.98" fill="url(#paint1_linear_2960_50603)"/>
<rect x="162.25" y="153.258" width="113.422" height="15.1513" rx="2.73" stroke="url(#paint2_linear_2960_50603)" stroke-width="0.5"/>
</g>
<g opacity="0.8" filter="url(#filter5_b_2960_50603)">
<rect x="162" y="153.008" width="10.3086" height="15.6513" rx="2.98" fill="url(#paint3_linear_2960_50603)"/>
</g>
<path d="M287.232 157.559V164.832H286.351V158.483H286.308L284.533 159.662V158.767L286.351 157.559H287.232ZM289.518 164.889C289.343 164.889 289.193 164.826 289.067 164.701C288.942 164.575 288.879 164.425 288.879 164.25C288.879 164.074 288.942 163.924 289.067 163.799C289.193 163.673 289.343 163.61 289.518 163.61C289.694 163.61 289.844 163.673 289.969 163.799C290.095 163.924 290.158 164.074 290.158 164.25C290.158 164.366 290.128 164.472 290.069 164.569C290.012 164.666 289.935 164.744 289.838 164.804C289.743 164.86 289.637 164.889 289.518 164.889ZM293.774 164.931C293.357 164.931 292.982 164.849 292.648 164.683C292.314 164.517 292.047 164.29 291.845 164.001C291.644 163.712 291.534 163.383 291.515 163.014H292.367C292.401 163.343 292.55 163.615 292.815 163.831C293.082 164.044 293.402 164.15 293.774 164.15C294.072 164.15 294.337 164.08 294.569 163.941C294.803 163.801 294.987 163.609 295.119 163.365C295.254 163.119 295.322 162.841 295.322 162.531C295.322 162.214 295.252 161.931 295.112 161.682C294.975 161.431 294.786 161.234 294.544 161.089C294.303 160.945 294.027 160.871 293.717 160.869C293.494 160.867 293.266 160.901 293.031 160.972C292.797 161.041 292.604 161.129 292.453 161.238L291.629 161.139L292.069 157.559H295.847V158.341H292.808L292.552 160.485H292.595C292.744 160.367 292.931 160.269 293.156 160.191C293.381 160.113 293.615 160.074 293.859 160.074C294.304 160.074 294.7 160.18 295.048 160.393C295.399 160.604 295.673 160.893 295.872 161.26C296.074 161.627 296.174 162.046 296.174 162.517C296.174 162.981 296.07 163.395 295.862 163.76C295.656 164.122 295.372 164.408 295.009 164.619C294.647 164.827 294.235 164.931 293.774 164.931Z" fill="white" fill-opacity="0.68"/>
<rect x="49.25" y="145.258" width="263.422" height="31.1513" rx="7.75" stroke="url(#paint4_linear_2960_50603)" stroke-width="0.5"/>
</g>
<g filter="url(#filter6_b_2960_50603)">
<rect x="49" y="185.66" width="263.922" height="31.6513" rx="8" fill="url(#paint5_linear_2960_50603)"/>
<path d="M65.8807 198.212H66.9318L69.4034 204.249H69.4886L71.9602 198.212H73.0114V205.484H72.1875V199.959H72.1165L69.8438 205.484H69.0483L66.7756 199.959H66.7045V205.484H65.8807V198.212ZM76.2686 205.612C75.923 205.612 75.6093 205.547 75.3276 205.417C75.0459 205.284 74.8221 205.094 74.6564 204.845C74.4907 204.594 74.4078 204.291 74.4078 203.936C74.4078 203.624 74.4694 203.37 74.5925 203.176C74.7156 202.98 74.8801 202.826 75.0861 202.714C75.2921 202.603 75.5194 202.52 75.7679 202.466C76.0189 202.409 76.271 202.364 76.5243 202.331C76.8558 202.288 77.1245 202.256 77.3304 202.235C77.5388 202.211 77.6903 202.172 77.785 202.118C77.882 202.063 77.9306 201.969 77.9306 201.834V201.805C77.9306 201.455 77.8347 201.183 77.6429 200.989C77.4535 200.795 77.1659 200.697 76.78 200.697C76.3799 200.697 76.0662 200.785 75.839 200.96C75.6117 201.135 75.4519 201.322 75.3596 201.521L74.5641 201.237C74.7061 200.906 74.8955 200.648 75.1323 200.463C75.3714 200.276 75.6318 200.146 75.9135 200.072C76.1976 199.997 76.477 199.959 76.7516 199.959C76.9268 199.959 77.128 199.98 77.3553 200.023C77.5849 200.063 77.8063 200.147 78.0194 200.275C78.2348 200.403 78.4135 200.596 78.5556 200.854C78.6976 201.112 78.7686 201.457 78.7686 201.891V205.484H77.9306V204.746H77.888C77.8311 204.864 77.7364 204.991 77.6039 205.126C77.4713 205.261 77.2949 205.375 77.0748 205.47C76.8546 205.565 76.5859 205.612 76.2686 205.612ZM76.3965 204.859C76.7279 204.859 77.0073 204.794 77.2346 204.664C77.4642 204.534 77.637 204.366 77.753 204.16C77.8714 203.954 77.9306 203.737 77.9306 203.51V202.743C77.8951 202.786 77.8169 202.825 77.6962 202.86C77.5778 202.893 77.4405 202.923 77.2843 202.949C77.1304 202.973 76.9801 202.994 76.8333 203.013C76.6889 203.029 76.5717 203.044 76.4817 203.055C76.2639 203.084 76.0603 203.13 75.8709 203.194C75.6839 203.255 75.5324 203.349 75.4164 203.474C75.3027 203.598 75.2459 203.766 75.2459 203.979C75.2459 204.27 75.3536 204.49 75.5691 204.639C75.7869 204.786 76.0627 204.859 76.3965 204.859ZM80.9233 200.03L82.2301 202.26L83.5369 200.03H84.5028L82.7415 202.757L84.5028 205.484H83.5369L82.2301 203.368L80.9233 205.484H79.9574L81.6903 202.757L79.9574 200.03H80.9233ZM92.3748 201.251L91.622 201.464C91.5746 201.339 91.5048 201.217 91.4125 201.099C91.3225 200.978 91.1994 200.879 91.0431 200.8C90.8869 200.722 90.6868 200.683 90.443 200.683C90.1092 200.683 89.831 200.76 89.6085 200.914C89.3883 201.066 89.2782 201.259 89.2782 201.493C89.2782 201.701 89.354 201.866 89.5055 201.987C89.657 202.107 89.8938 202.208 90.2157 202.288L91.0254 202.487C91.5131 202.606 91.8765 202.787 92.1156 203.031C92.3547 203.272 92.4743 203.583 92.4743 203.964C92.4743 204.277 92.3843 204.556 92.2044 204.803C92.0268 205.049 91.7782 205.243 91.4586 205.385C91.139 205.527 90.7673 205.598 90.3436 205.598C89.7872 205.598 89.3268 205.477 88.9622 205.236C88.5976 204.994 88.3668 204.642 88.2697 204.178L89.0652 203.979C89.1409 204.272 89.2842 204.492 89.4949 204.639C89.7079 204.786 89.9861 204.859 90.3294 204.859C90.72 204.859 91.0301 204.777 91.2598 204.611C91.4918 204.443 91.6078 204.241 91.6078 204.007C91.6078 203.818 91.5415 203.659 91.4089 203.531C91.2763 203.401 91.0727 203.304 90.7981 203.24L89.889 203.027C89.3895 202.909 89.0225 202.725 88.7882 202.477C88.5562 202.226 88.4402 201.912 88.4402 201.536C88.4402 201.228 88.5266 200.955 88.6994 200.719C88.8746 200.482 89.1125 200.296 89.4132 200.161C89.7162 200.026 90.0595 199.959 90.443 199.959C90.9828 199.959 91.4065 200.077 91.7143 200.314C92.0244 200.551 92.2446 200.863 92.3748 201.251ZM93.7358 207.53V200.03H94.5455V200.896H94.6449C94.7064 200.802 94.7917 200.681 94.9006 200.534C95.0118 200.385 95.1705 200.252 95.3764 200.136C95.5848 200.018 95.8665 199.959 96.2216 199.959C96.6809 199.959 97.0857 200.074 97.4361 200.303C97.7865 200.533 98.0599 200.858 98.2564 201.28C98.4529 201.701 98.5511 202.198 98.5511 202.771C98.5511 203.349 98.4529 203.85 98.2564 204.273C98.0599 204.695 97.7876 205.022 97.4396 205.254C97.0916 205.483 96.6903 205.598 96.2358 205.598C95.8854 205.598 95.6049 205.54 95.3942 205.424C95.1835 205.306 95.0213 205.172 94.9077 205.023C94.794 204.871 94.7064 204.746 94.6449 204.646H94.5739V207.53H93.7358ZM94.5597 202.757C94.5597 203.169 94.62 203.532 94.7408 203.847C94.8615 204.16 95.0379 204.405 95.2699 204.582C95.5019 204.758 95.786 204.845 96.1222 204.845C96.4725 204.845 96.7649 204.753 96.9993 204.568C97.236 204.381 97.4136 204.13 97.532 203.815C97.6527 203.498 97.7131 203.145 97.7131 202.757C97.7131 202.374 97.6539 202.028 97.5355 201.72C97.4195 201.41 97.2431 201.165 97.0064 200.985C96.772 200.803 96.4773 200.712 96.1222 200.712C95.7813 200.712 95.4948 200.798 95.2628 200.971C95.0308 201.141 94.8556 201.38 94.7372 201.688C94.6188 201.994 94.5597 202.35 94.5597 202.757ZM102.116 205.598C101.591 205.598 101.138 205.482 100.756 205.25C100.378 205.016 100.085 204.689 99.8793 204.27C99.6757 203.848 99.5739 203.358 99.5739 202.8C99.5739 202.241 99.6757 201.749 99.8793 201.322C100.085 200.894 100.372 200.56 100.739 200.321C101.108 200.08 101.539 199.959 102.031 199.959C102.315 199.959 102.596 200.006 102.873 200.101C103.15 200.196 103.402 200.349 103.629 200.562C103.857 200.773 104.038 201.053 104.173 201.401C104.308 201.749 104.375 202.177 104.375 202.686V203.041H100.17V202.317H103.523C103.523 202.009 103.461 201.734 103.338 201.493C103.217 201.251 103.045 201.061 102.82 200.921C102.597 200.781 102.334 200.712 102.031 200.712C101.697 200.712 101.409 200.795 101.165 200.96C100.923 201.124 100.737 201.337 100.607 201.599C100.477 201.862 100.412 202.144 100.412 202.445V202.928C100.412 203.339 100.483 203.689 100.625 203.975C100.769 204.259 100.969 204.476 101.225 204.625C101.481 204.772 101.778 204.845 102.116 204.845C102.337 204.845 102.536 204.814 102.713 204.753C102.893 204.689 103.048 204.594 103.178 204.469C103.308 204.341 103.409 204.182 103.48 203.993L104.29 204.22C104.205 204.495 104.061 204.736 103.86 204.945C103.659 205.151 103.41 205.312 103.114 205.428C102.818 205.541 102.486 205.598 102.116 205.598ZM107.937 205.598C107.411 205.598 106.958 205.482 106.577 205.25C106.198 205.016 105.906 204.689 105.7 204.27C105.496 203.848 105.394 203.358 105.394 202.8C105.394 202.241 105.496 201.749 105.7 201.322C105.906 200.894 106.192 200.56 106.559 200.321C106.928 200.08 107.359 199.959 107.852 199.959C108.136 199.959 108.416 200.006 108.693 200.101C108.97 200.196 109.222 200.349 109.45 200.562C109.677 200.773 109.858 201.053 109.993 201.401C110.128 201.749 110.195 202.177 110.195 202.686V203.041H105.991V202.317H109.343C109.343 202.009 109.281 201.734 109.158 201.493C109.038 201.251 108.865 201.061 108.64 200.921C108.417 200.781 108.155 200.712 107.852 200.712C107.518 200.712 107.229 200.795 106.985 200.96C106.744 201.124 106.558 201.337 106.428 201.599C106.297 201.862 106.232 202.144 106.232 202.445V202.928C106.232 203.339 106.303 203.689 106.445 203.975C106.59 204.259 106.79 204.476 107.045 204.625C107.301 204.772 107.598 204.845 107.937 204.845C108.157 204.845 108.356 204.814 108.533 204.753C108.713 204.689 108.868 204.594 108.999 204.469C109.129 204.341 109.229 204.182 109.3 203.993L110.11 204.22C110.025 204.495 109.882 204.736 109.68 204.945C109.479 205.151 109.231 205.312 108.935 205.428C108.639 205.541 108.306 205.598 107.937 205.598ZM113.53 205.598C113.075 205.598 112.674 205.483 112.326 205.254C111.978 205.022 111.706 204.695 111.509 204.273C111.313 203.85 111.214 203.349 111.214 202.771C111.214 202.198 111.313 201.701 111.509 201.28C111.706 200.858 111.979 200.533 112.33 200.303C112.68 200.074 113.085 199.959 113.544 199.959C113.899 199.959 114.18 200.018 114.386 200.136C114.594 200.252 114.753 200.385 114.862 200.534C114.973 200.681 115.059 200.802 115.121 200.896H115.192V198.212H116.03V205.484H115.22V204.646H115.121C115.059 204.746 114.972 204.871 114.858 205.023C114.744 205.172 114.582 205.306 114.371 205.424C114.161 205.54 113.88 205.598 113.53 205.598ZM113.643 204.845C113.98 204.845 114.264 204.758 114.496 204.582C114.728 204.405 114.904 204.16 115.025 203.847C115.146 203.532 115.206 203.169 115.206 202.757C115.206 202.35 115.147 201.994 115.028 201.688C114.91 201.38 114.735 201.141 114.503 200.971C114.271 200.798 113.984 200.712 113.643 200.712C113.288 200.712 112.992 200.803 112.756 200.985C112.521 201.165 112.345 201.41 112.227 201.72C112.111 202.028 112.053 202.374 112.053 202.757C112.053 203.145 112.112 203.498 112.23 203.815C112.351 204.13 112.528 204.381 112.763 204.568C113 204.753 113.293 204.845 113.643 204.845Z" fill="white" fill-opacity="0.68"/>
<g filter="url(#filter7_b_2960_50603)">
<rect x="162" y="193.66" width="113.922" height="15.6513" rx="2.98" fill="url(#paint6_linear_2960_50603)"/>
<rect x="162.25" y="193.91" width="113.422" height="15.1513" rx="2.73" stroke="url(#paint7_linear_2960_50603)" stroke-width="0.5"/>
</g>
<g opacity="0.8" filter="url(#filter8_b_2960_50603)">
<rect x="162" y="193.66" width="71.4336" height="15.6513" rx="2.98" fill="url(#paint8_linear_2960_50603)"/>
</g>
<path d="M287.047 205.584C286.512 205.584 286.056 205.438 285.68 205.147C285.303 204.853 285.016 204.429 284.817 203.872C284.618 203.313 284.518 202.639 284.518 201.848C284.518 201.062 284.618 200.391 284.817 199.835C285.018 199.276 285.307 198.85 285.683 198.556C286.062 198.26 286.517 198.112 287.047 198.112C287.577 198.112 288.031 198.26 288.407 198.556C288.786 198.85 289.075 199.276 289.273 199.835C289.475 200.391 289.575 201.062 289.575 201.848C289.575 202.639 289.476 203.313 289.277 203.872C289.078 204.429 288.79 204.853 288.414 205.147C288.038 205.438 287.582 205.584 287.047 205.584ZM287.047 204.803C287.577 204.803 287.989 204.547 288.283 204.036C288.576 203.524 288.723 202.795 288.723 201.848C288.723 201.218 288.656 200.682 288.521 200.239C288.388 199.797 288.196 199.459 287.945 199.227C287.697 198.995 287.397 198.879 287.047 198.879C286.521 198.879 286.111 199.138 285.815 199.657C285.519 200.173 285.371 200.903 285.371 201.848C285.371 202.478 285.437 203.013 285.57 203.453C285.702 203.893 285.893 204.228 286.141 204.458C286.392 204.688 286.694 204.803 287.047 204.803ZM291.296 205.541C291.121 205.541 290.97 205.478 290.845 205.353C290.719 205.228 290.657 205.077 290.657 204.902C290.657 204.727 290.719 204.576 290.845 204.451C290.97 204.326 291.121 204.263 291.296 204.263C291.471 204.263 291.621 204.326 291.747 204.451C291.872 204.576 291.935 204.727 291.935 204.902C291.935 205.018 291.905 205.125 291.846 205.222C291.789 205.319 291.712 205.397 291.615 205.456C291.521 205.513 291.414 205.541 291.296 205.541ZM295.112 198.212V205.484H294.232V199.135H294.189L292.414 200.314V199.419L294.232 198.212H295.112Z" fill="white" fill-opacity="0.68"/>
<rect x="49.25" y="185.91" width="263.422" height="31.1513" rx="7.75" stroke="url(#paint9_linear_2960_50603)" stroke-width="0.5"/>
</g>
<g filter="url(#filter9_b_2960_50603)">
<rect x="49" y="226.309" width="264" height="31.6513" rx="8" fill="url(#paint10_linear_2960_50603)"/>
<path d="M65.8807 246.133V238.86H68.3381C68.9063 238.86 69.3726 238.957 69.7372 239.151C70.1018 239.343 70.3717 239.607 70.5469 239.943C70.7221 240.279 70.8097 240.662 70.8097 241.09C70.8097 241.519 70.7221 241.899 70.5469 242.23C70.3717 242.562 70.103 242.822 69.7408 243.011C69.3786 243.198 68.9157 243.292 68.3523 243.292H66.3636V242.496H68.3239C68.7121 242.496 69.0246 242.44 69.2614 242.326C69.5005 242.212 69.6733 242.051 69.7798 241.843C69.8887 241.632 69.9432 241.381 69.9432 241.09C69.9432 240.799 69.8887 240.545 69.7798 240.327C69.6709 240.109 69.4969 239.941 69.2578 239.822C69.0187 239.702 68.7027 239.641 68.3097 239.641H66.7614V246.133H65.8807ZM69.304 242.866L71.0938 246.133H70.071L68.3097 242.866H69.304ZM73.7686 246.261C73.423 246.261 73.1093 246.196 72.8276 246.065C72.5459 245.933 72.3221 245.742 72.1564 245.494C71.9907 245.243 71.9078 244.94 71.9078 244.585C71.9078 244.272 71.9694 244.019 72.0925 243.825C72.2156 243.628 72.3801 243.474 72.5861 243.363C72.7921 243.252 73.0194 243.169 73.2679 243.114C73.5189 243.058 73.771 243.013 74.0243 242.979C74.3558 242.937 74.6245 242.905 74.8304 242.884C75.0388 242.86 75.1903 242.821 75.285 242.766C75.382 242.712 75.4306 242.617 75.4306 242.482V242.454C75.4306 242.103 75.3347 241.831 75.1429 241.637C74.9535 241.443 74.6659 241.346 74.28 241.346C73.8799 241.346 73.5662 241.433 73.339 241.609C73.1117 241.784 72.9519 241.971 72.8596 242.17L72.0641 241.886C72.2061 241.554 72.3955 241.296 72.6323 241.112C72.8714 240.924 73.1318 240.794 73.4135 240.721C73.6976 240.645 73.977 240.607 74.2516 240.607C74.4268 240.607 74.628 240.629 74.8553 240.671C75.0849 240.711 75.3063 240.795 75.5194 240.923C75.7348 241.051 75.9135 241.244 76.0556 241.502C76.1976 241.76 76.2686 242.106 76.2686 242.539V246.133H75.4306V245.394H75.388C75.3311 245.513 75.2364 245.639 75.1039 245.774C74.9713 245.909 74.7949 246.024 74.5748 246.119C74.3546 246.213 74.0859 246.261 73.7686 246.261ZM73.8965 245.508C74.2279 245.508 74.5073 245.443 74.7346 245.312C74.9642 245.182 75.137 245.014 75.253 244.808C75.3714 244.602 75.4306 244.386 75.4306 244.158V243.391C75.3951 243.434 75.3169 243.473 75.1962 243.509C75.0778 243.542 74.9405 243.571 74.7843 243.597C74.6304 243.621 74.4801 243.642 74.3333 243.661C74.1889 243.678 74.0717 243.692 73.9817 243.704C73.7639 243.732 73.5603 243.778 73.3709 243.842C73.1839 243.904 73.0324 243.997 72.9164 244.123C72.8027 244.246 72.7459 244.414 72.7459 244.627C72.7459 244.918 72.8536 245.138 73.0691 245.288C73.2869 245.434 73.5627 245.508 73.8965 245.508ZM78.6364 242.852V246.133H77.7983V240.678H78.608V241.531H78.679C78.8068 241.254 79.0009 241.031 79.2614 240.863C79.5218 240.692 79.858 240.607 80.2699 240.607C80.6392 240.607 80.9624 240.683 81.2393 240.835C81.5163 240.984 81.7318 241.211 81.8857 241.516C82.0395 241.819 82.1165 242.203 82.1165 242.667V246.133H81.2784V242.724C81.2784 242.295 81.1671 241.961 80.9446 241.722C80.7221 241.481 80.4167 241.36 80.0284 241.36C79.7609 241.36 79.5218 241.418 79.3111 241.534C79.1027 241.65 78.9382 241.819 78.8175 242.042C78.6967 242.264 78.6364 242.534 78.6364 242.852ZM85.7076 246.246C85.253 246.246 84.8517 246.132 84.5037 245.902C84.1557 245.67 83.8835 245.343 83.687 244.922C83.4905 244.498 83.3922 243.997 83.3922 243.42C83.3922 242.847 83.4905 242.35 83.687 241.928C83.8835 241.507 84.1569 241.181 84.5073 240.952C84.8577 240.722 85.2625 240.607 85.7218 240.607C86.0769 240.607 86.3574 240.666 86.5634 240.785C86.7717 240.901 86.9303 241.033 87.0392 241.183C87.1505 241.329 87.2369 241.45 87.2985 241.545H87.3695V238.86H88.2076V246.133H87.3979V245.295H87.2985C87.2369 245.394 87.1493 245.52 87.0357 245.671C86.9221 245.82 86.7599 245.954 86.5492 246.072C86.3385 246.188 86.0579 246.246 85.7076 246.246ZM85.8212 245.494C86.1574 245.494 86.4415 245.406 86.6735 245.231C86.9055 245.053 87.0819 244.808 87.2026 244.496C87.3233 244.181 87.3837 243.817 87.3837 243.406C87.3837 242.998 87.3245 242.642 87.2061 242.337C87.0878 242.029 86.9126 241.79 86.6806 241.619C86.4486 241.446 86.1621 241.36 85.8212 241.36C85.4661 241.36 85.1702 241.451 84.9334 241.634C84.699 241.813 84.5227 242.058 84.4043 242.369C84.2883 242.676 84.2303 243.022 84.2303 243.406C84.2303 243.794 84.2895 244.147 84.4078 244.464C84.5286 244.779 84.7061 245.03 84.9405 245.217C85.1773 245.401 85.4708 245.494 85.8212 245.494ZM92.0748 246.246C91.5823 246.246 91.1503 246.129 90.7786 245.895C90.4093 245.661 90.1204 245.333 89.9121 244.911C89.7061 244.49 89.6032 243.997 89.6032 243.434C89.6032 242.866 89.7061 242.37 89.9121 241.946C90.1204 241.522 90.4093 241.193 90.7786 240.959C91.1503 240.724 91.5823 240.607 92.0748 240.607C92.5672 240.607 92.998 240.724 93.3674 240.959C93.7391 241.193 94.0279 241.522 94.2338 241.946C94.4422 242.37 94.5463 242.866 94.5463 243.434C94.5463 243.997 94.4422 244.49 94.2338 244.911C94.0279 245.333 93.7391 245.661 93.3674 245.895C92.998 246.129 92.5672 246.246 92.0748 246.246ZM92.0748 245.494C92.4488 245.494 92.7566 245.398 92.998 245.206C93.2395 245.014 93.4183 244.762 93.5343 244.45C93.6503 244.137 93.7083 243.799 93.7083 243.434C93.7083 243.069 93.6503 242.73 93.5343 242.415C93.4183 242.1 93.2395 241.845 92.998 241.651C92.7566 241.457 92.4488 241.36 92.0748 241.36C91.7007 241.36 91.3929 241.457 91.1515 241.651C90.91 241.845 90.7312 242.1 90.6152 242.415C90.4992 242.73 90.4412 243.069 90.4412 243.434C90.4412 243.799 90.4992 244.137 90.6152 244.45C90.7312 244.762 90.91 245.014 91.1515 245.206C91.3929 245.398 91.7007 245.494 92.0748 245.494ZM95.8256 246.133V240.678H96.6353V241.531H96.7063C96.82 241.239 97.0034 241.013 97.2567 240.852C97.5101 240.689 97.8143 240.607 98.1694 240.607C98.5292 240.607 98.8287 240.689 99.0678 240.852C99.3093 241.013 99.4975 241.239 99.6325 241.531H99.6893C99.829 241.249 100.038 241.025 100.318 240.859C100.597 240.691 100.932 240.607 101.323 240.607C101.81 240.607 102.209 240.76 102.52 241.065C102.83 241.368 102.985 241.841 102.985 242.482V246.133H102.147V242.482C102.147 242.08 102.037 241.792 101.816 241.619C101.596 241.446 101.337 241.36 101.039 241.36C100.655 241.36 100.358 241.476 100.147 241.708C99.9367 241.938 99.8313 242.229 99.8313 242.582V246.133H98.979V242.397C98.979 242.087 98.8784 241.837 98.6772 241.648C98.476 241.456 98.2167 241.36 97.8995 241.36C97.6817 241.36 97.4781 241.418 97.2887 241.534C97.1017 241.65 96.9502 241.811 96.8342 242.017C96.7205 242.221 96.6637 242.456 96.6637 242.724V246.133H95.8256ZM105.355 242.852V246.133H104.517V240.678H105.327V241.531H105.398C105.526 241.254 105.72 241.031 105.98 240.863C106.241 240.692 106.577 240.607 106.989 240.607C107.358 240.607 107.681 240.683 107.958 240.835C108.235 240.984 108.451 241.211 108.604 241.516C108.758 241.819 108.835 242.203 108.835 242.667V246.133H107.997V242.724C107.997 242.295 107.886 241.961 107.663 241.722C107.441 241.481 107.135 241.36 106.747 241.36C106.48 241.36 106.241 241.418 106.03 241.534C105.821 241.65 105.657 241.819 105.536 242.042C105.415 242.264 105.355 242.534 105.355 242.852ZM112.654 246.246C112.128 246.246 111.675 246.13 111.294 245.898C110.915 245.664 110.622 245.337 110.416 244.918C110.213 244.497 110.111 244.007 110.111 243.448C110.111 242.889 110.213 242.397 110.416 241.971C110.622 241.542 110.909 241.209 111.276 240.969C111.645 240.728 112.076 240.607 112.568 240.607C112.852 240.607 113.133 240.655 113.41 240.749C113.687 240.844 113.939 240.998 114.166 241.211C114.394 241.422 114.575 241.701 114.71 242.049C114.845 242.397 114.912 242.826 114.912 243.335V243.69H110.708V242.965H114.06C114.06 242.657 113.998 242.383 113.875 242.141C113.754 241.9 113.582 241.709 113.357 241.57C113.134 241.43 112.871 241.36 112.568 241.36C112.235 241.36 111.946 241.443 111.702 241.609C111.46 241.772 111.275 241.985 111.144 242.248C111.014 242.511 110.949 242.792 110.949 243.093V243.576C110.949 243.988 111.02 244.337 111.162 244.624C111.307 244.908 111.507 245.124 111.762 245.273C112.018 245.42 112.315 245.494 112.654 245.494C112.874 245.494 113.073 245.463 113.25 245.401C113.43 245.337 113.585 245.243 113.715 245.117C113.846 244.989 113.946 244.831 114.017 244.641L114.827 244.869C114.742 245.143 114.598 245.385 114.397 245.593C114.196 245.799 113.947 245.96 113.651 246.076C113.356 246.19 113.023 246.246 112.654 246.246ZM120.051 241.9L119.298 242.113C119.25 241.987 119.181 241.866 119.088 241.747C118.998 241.626 118.875 241.527 118.719 241.449C118.563 241.371 118.363 241.332 118.119 241.332C117.785 241.332 117.507 241.409 117.284 241.562C117.064 241.714 116.954 241.907 116.954 242.141C116.954 242.35 117.03 242.514 117.181 242.635C117.333 242.756 117.57 242.856 117.892 242.937L118.701 243.136C119.189 243.254 119.552 243.435 119.791 243.679C120.03 243.92 120.15 244.232 120.15 244.613C120.15 244.925 120.06 245.205 119.88 245.451C119.703 245.697 119.454 245.891 119.134 246.033C118.815 246.175 118.443 246.246 118.019 246.246C117.463 246.246 117.003 246.126 116.638 245.884C116.273 245.643 116.043 245.29 115.945 244.826L116.741 244.627C116.817 244.921 116.96 245.141 117.171 245.288C117.384 245.434 117.662 245.508 118.005 245.508C118.396 245.508 118.706 245.425 118.936 245.259C119.168 245.091 119.284 244.89 119.284 244.656C119.284 244.466 119.217 244.308 119.085 244.18C118.952 244.049 118.749 243.952 118.474 243.888L117.565 243.675C117.065 243.557 116.698 243.374 116.464 243.125C116.232 242.874 116.116 242.56 116.116 242.184C116.116 241.876 116.202 241.604 116.375 241.367C116.55 241.13 116.788 240.945 117.089 240.81C117.392 240.675 117.735 240.607 118.119 240.607C118.659 240.607 119.082 240.726 119.39 240.962C119.7 241.199 119.92 241.512 120.051 241.9ZM125.275 241.9L124.522 242.113C124.475 241.987 124.405 241.866 124.313 241.747C124.223 241.626 124.1 241.527 123.944 241.449C123.787 241.371 123.587 241.332 123.343 241.332C123.01 241.332 122.731 241.409 122.509 241.562C122.289 241.714 122.179 241.907 122.179 242.141C122.179 242.35 122.254 242.514 122.406 242.635C122.557 242.756 122.794 242.856 123.116 242.937L123.926 243.136C124.413 243.254 124.777 243.435 125.016 243.679C125.255 243.92 125.375 244.232 125.375 244.613C125.375 244.925 125.285 245.205 125.105 245.451C124.927 245.697 124.679 245.891 124.359 246.033C124.039 246.175 123.668 246.246 123.244 246.246C122.688 246.246 122.227 246.126 121.863 245.884C121.498 245.643 121.267 245.29 121.17 244.826L121.966 244.627C122.041 244.921 122.185 245.141 122.395 245.288C122.608 245.434 122.886 245.508 123.23 245.508C123.62 245.508 123.931 245.425 124.16 245.259C124.392 245.091 124.508 244.89 124.508 244.656C124.508 244.466 124.442 244.308 124.309 244.18C124.177 244.049 123.973 243.952 123.699 243.888L122.789 243.675C122.29 243.557 121.923 243.374 121.689 243.125C121.457 242.874 121.341 242.56 121.341 242.184C121.341 241.876 121.427 241.604 121.6 241.367C121.775 241.13 122.013 240.945 122.314 240.81C122.617 240.675 122.96 240.607 123.343 240.607C123.883 240.607 124.307 240.726 124.615 240.962C124.925 241.199 125.145 241.512 125.275 241.9Z" fill="white" fill-opacity="0.68"/>
<g filter="url(#filter10_b_2960_50603)">
<rect x="162" y="234.309" width="113.922" height="15.6513" rx="2.98" fill="url(#paint11_linear_2960_50603)"/>
<rect x="162.25" y="234.559" width="113.422" height="15.1513" rx="2.73" stroke="url(#paint12_linear_2960_50603)" stroke-width="0.5"/>
</g>
<g opacity="0.8" filter="url(#filter11_b_2960_50603)">
<rect x="162" y="234.309" width="18.5" height="15.6513" rx="2.98" fill="url(#paint13_linear_2960_50603)"/>
</g>
<path d="M286.947 246.232C286.531 246.232 286.156 246.149 285.822 245.984C285.488 245.818 285.22 245.591 285.019 245.302C284.818 245.013 284.708 244.684 284.689 244.315H285.541C285.574 244.644 285.723 244.916 285.989 245.131C286.256 245.344 286.576 245.451 286.947 245.451C287.246 245.451 287.511 245.381 287.743 245.241C287.977 245.102 288.161 244.91 288.293 244.666C288.428 244.42 288.496 244.142 288.496 243.832C288.496 243.514 288.426 243.232 288.286 242.983C288.149 242.732 287.96 242.534 287.718 242.39C287.477 242.246 287.201 242.172 286.891 242.17C286.668 242.167 286.44 242.202 286.205 242.273C285.971 242.341 285.778 242.43 285.626 242.539L284.803 242.44L285.243 238.86H289.021V239.641H285.982L285.726 241.786H285.768C285.918 241.668 286.105 241.57 286.33 241.491C286.554 241.413 286.789 241.374 287.033 241.374C287.478 241.374 287.874 241.481 288.222 241.694C288.573 241.905 288.847 242.193 289.046 242.56C289.247 242.927 289.348 243.346 289.348 243.817C289.348 244.281 289.244 244.696 289.036 245.06C288.83 245.423 288.545 245.709 288.183 245.92C287.821 246.128 287.409 246.232 286.947 246.232Z" fill="white" fill-opacity="0.68"/>
<rect x="49.25" y="226.559" width="263.5" height="31.1513" rx="7.75" stroke="url(#paint14_linear_2960_50603)" stroke-width="0.5"/>
</g>
<defs>
<filter id="filter0_f_2960_50603" x="69.4747" y="94.6075" width="359.355" height="213.84" filterUnits="userSpaceOnUse" color-interpolation-filters="sRGB">
<feFlood flood-opacity="0" result="BackgroundImageFix"/>
<feBlend mode="normal" in="SourceGraphic" in2="BackgroundImageFix" result="shape"/>
<feGaussianBlur stdDeviation="14.665" result="effect1_foregroundBlur_2960_50603"/>
</filter>
<filter id="filter1_f_2960_50603" x="251.057" y="139.709" width="161.285" height="128.613" filterUnits="userSpaceOnUse" color-interpolation-filters="sRGB">
<feFlood flood-opacity="0" result="BackgroundImageFix"/>
<feBlend mode="normal" in="SourceGraphic" in2="BackgroundImageFix" result="shape"/>
<feGaussianBlur stdDeviation="10.165" result="effect1_foregroundBlur_2960_50603"/>
</filter>
<filter id="filter2_f_2960_50603" x="214.275" y="178.334" width="187.262" height="119.851" filterUnits="userSpaceOnUse" color-interpolation-filters="sRGB">
<feFlood flood-opacity="0" result="BackgroundImageFix"/>
<feBlend mode="normal" in="SourceGraphic" in2="BackgroundImageFix" result="shape"/>
<feGaussianBlur stdDeviation="14.165" result="effect1_foregroundBlur_2960_50603"/>
</filter>
<filter id="filter3_b_2960_50603" x="-1.25199" y="94.7558" width="364.426" height="132.156" filterUnits="userSpaceOnUse" color-interpolation-filters="sRGB">
<feFlood flood-opacity="0" result="BackgroundImageFix"/>
<feGaussianBlur in="BackgroundImageFix" stdDeviation="25.126"/>
<feComposite in2="SourceAlpha" operator="in" result="effect1_backgroundBlur_2960_50603"/>
<feBlend mode="normal" in="SourceGraphic" in2="effect1_backgroundBlur_2960_50603" result="shape"/>
</filter>
<filter id="filter4_b_2960_50603" x="111.748" y="102.756" width="214.426" height="116.156" filterUnits="userSpaceOnUse" color-interpolation-filters="sRGB">
<feFlood flood-opacity="0" result="BackgroundImageFix"/>
<feGaussianBlur in="BackgroundImageFix" stdDeviation="25.126"/>
<feComposite in2="SourceAlpha" operator="in" result="effect1_backgroundBlur_2960_50603"/>
<feBlend mode="normal" in="SourceGraphic" in2="effect1_backgroundBlur_2960_50603" result="shape"/>
</filter>
<filter id="filter5_b_2960_50603" x="127.869" y="118.877" width="78.5706" height="83.9144" filterUnits="userSpaceOnUse" color-interpolation-filters="sRGB">
<feFlood flood-opacity="0" result="BackgroundImageFix"/>
<feGaussianBlur in="BackgroundImageFix" stdDeviation="17.0655"/>
<feComposite in2="SourceAlpha" operator="in" result="effect1_backgroundBlur_2960_50603"/>
<feBlend mode="normal" in="SourceGraphic" in2="effect1_backgroundBlur_2960_50603" result="shape"/>
</filter>
<filter id="filter6_b_2960_50603" x="-1.25199" y="135.408" width="364.426" height="132.156" filterUnits="userSpaceOnUse" color-interpolation-filters="sRGB">
<feFlood flood-opacity="0" result="BackgroundImageFix"/>
<feGaussianBlur in="BackgroundImageFix" stdDeviation="25.126"/>
<feComposite in2="SourceAlpha" operator="in" result="effect1_backgroundBlur_2960_50603"/>
<feBlend mode="normal" in="SourceGraphic" in2="effect1_backgroundBlur_2960_50603" result="shape"/>
</filter>
<filter id="filter7_b_2960_50603" x="111.748" y="143.408" width="214.426" height="116.156" filterUnits="userSpaceOnUse" color-interpolation-filters="sRGB">
<feFlood flood-opacity="0" result="BackgroundImageFix"/>
<feGaussianBlur in="BackgroundImageFix" stdDeviation="25.126"/>
<feComposite in2="SourceAlpha" operator="in" result="effect1_backgroundBlur_2960_50603"/>
<feBlend mode="normal" in="SourceGraphic" in2="effect1_backgroundBlur_2960_50603" result="shape"/>
</filter>
<filter id="filter8_b_2960_50603" x="127.869" y="159.529" width="139.696" height="83.9144" filterUnits="userSpaceOnUse" color-interpolation-filters="sRGB">
<feFlood flood-opacity="0" result="BackgroundImageFix"/>
<feGaussianBlur in="BackgroundImageFix" stdDeviation="17.0655"/>
<feComposite in2="SourceAlpha" operator="in" result="effect1_backgroundBlur_2960_50603"/>
<feBlend mode="normal" in="SourceGraphic" in2="effect1_backgroundBlur_2960_50603" result="shape"/>
</filter>
<filter id="filter9_b_2960_50603" x="-1.25199" y="176.057" width="364.504" height="132.156" filterUnits="userSpaceOnUse" color-interpolation-filters="sRGB">
<feFlood flood-opacity="0" result="BackgroundImageFix"/>
<feGaussianBlur in="BackgroundImageFix" stdDeviation="25.126"/>
<feComposite in2="SourceAlpha" operator="in" result="effect1_backgroundBlur_2960_50603"/>
<feBlend mode="normal" in="SourceGraphic" in2="effect1_backgroundBlur_2960_50603" result="shape"/>
</filter>
<filter id="filter10_b_2960_50603" x="111.748" y="184.057" width="214.426" height="116.156" filterUnits="userSpaceOnUse" color-interpolation-filters="sRGB">
<feFlood flood-opacity="0" result="BackgroundImageFix"/>
<feGaussianBlur in="BackgroundImageFix" stdDeviation="25.126"/>
<feComposite in2="SourceAlpha" operator="in" result="effect1_backgroundBlur_2960_50603"/>
<feBlend mode="normal" in="SourceGraphic" in2="effect1_backgroundBlur_2960_50603" result="shape"/>
</filter>
<filter id="filter11_b_2960_50603" x="127.869" y="200.178" width="86.762" height="83.9144" filterUnits="userSpaceOnUse" color-interpolation-filters="sRGB">
<feFlood flood-opacity="0" result="BackgroundImageFix"/>
<feGaussianBlur in="BackgroundImageFix" stdDeviation="17.0655"/>
<feComposite in2="SourceAlpha" operator="in" result="effect1_backgroundBlur_2960_50603"/>
<feBlend mode="normal" in="SourceGraphic" in2="effect1_backgroundBlur_2960_50603" result="shape"/>
</filter>
<linearGradient id="paint0_linear_2960_50603" x1="-69.5475" y1="160.833" x2="312.922" y2="160.833" gradientUnits="userSpaceOnUse">
<stop stop-color="#121212" stop-opacity="0.18"/>
<stop offset="1" stop-color="white" stop-opacity="0.17"/>
</linearGradient>
<linearGradient id="paint1_linear_2960_50603" x1="110.829" y1="160.833" x2="275.922" y2="160.833" gradientUnits="userSpaceOnUse">
<stop stop-color="#343232" stop-opacity="0.1"/>
<stop offset="1" stop-color="white" stop-opacity="0.05"/>
</linearGradient>
<linearGradient id="paint2_linear_2960_50603" x1="162" y1="160.833" x2="275.922" y2="160.833" gradientUnits="userSpaceOnUse">
<stop stop-color="#343232" stop-opacity="0.1"/>
<stop offset="1" stop-color="white" stop-opacity="0"/>
</linearGradient>
<linearGradient id="paint3_linear_2960_50603" x1="162.389" y1="153.008" x2="171.595" y2="153.065" gradientUnits="userSpaceOnUse">
<stop stop-color="#9A41CD" stop-opacity="0.4"/>
<stop offset="1" stop-color="#9A41CD"/>
</linearGradient>
<linearGradient id="paint4_linear_2960_50603" x1="49" y1="160.833" x2="312.922" y2="160.833" gradientUnits="userSpaceOnUse">
<stop stop-color="#343232" stop-opacity="0.1"/>
<stop offset="1" stop-color="white" stop-opacity="0"/>
</linearGradient>
<linearGradient id="paint5_linear_2960_50603" x1="-69.5475" y1="201.486" x2="312.922" y2="201.486" gradientUnits="userSpaceOnUse">
<stop stop-color="#121212" stop-opacity="0.18"/>
<stop offset="1" stop-color="white" stop-opacity="0.17"/>
</linearGradient>
<linearGradient id="paint6_linear_2960_50603" x1="110.829" y1="201.486" x2="275.922" y2="201.486" gradientUnits="userSpaceOnUse">
<stop stop-color="#343232" stop-opacity="0.1"/>
<stop offset="1" stop-color="white" stop-opacity="0.05"/>
</linearGradient>
<linearGradient id="paint7_linear_2960_50603" x1="162" y1="201.486" x2="275.922" y2="201.486" gradientUnits="userSpaceOnUse">
<stop stop-color="#343232" stop-opacity="0.1"/>
<stop offset="1" stop-color="white" stop-opacity="0"/>
</linearGradient>
<linearGradient id="paint8_linear_2960_50603" x1="164.693" y1="193.66" x2="228.368" y2="196.424" gradientUnits="userSpaceOnUse">
<stop stop-color="#9A41CD" stop-opacity="0.4"/>
<stop offset="1" stop-color="#9A41CD"/>
</linearGradient>
<linearGradient id="paint9_linear_2960_50603" x1="49" y1="201.486" x2="312.922" y2="201.486" gradientUnits="userSpaceOnUse">
<stop stop-color="#343232" stop-opacity="0.1"/>
<stop offset="1" stop-color="white" stop-opacity="0"/>
</linearGradient>
<linearGradient id="paint10_linear_2960_50603" x1="-69.5826" y1="242.134" x2="313" y2="242.134" gradientUnits="userSpaceOnUse">
<stop stop-color="#121212" stop-opacity="0.18"/>
<stop offset="1" stop-color="white" stop-opacity="0.17"/>
</linearGradient>
<linearGradient id="paint11_linear_2960_50603" x1="110.829" y1="242.134" x2="275.922" y2="242.134" gradientUnits="userSpaceOnUse">
<stop stop-color="#343232" stop-opacity="0.1"/>
<stop offset="1" stop-color="white" stop-opacity="0.05"/>
</linearGradient>
<linearGradient id="paint12_linear_2960_50603" x1="162" y1="242.134" x2="275.922" y2="242.134" gradientUnits="userSpaceOnUse">
<stop stop-color="#343232" stop-opacity="0.1"/>
<stop offset="1" stop-color="white" stop-opacity="0"/>
</linearGradient>
<linearGradient id="paint13_linear_2960_50603" x1="162.698" y1="234.309" x2="179.217" y2="234.494" gradientUnits="userSpaceOnUse">
<stop stop-color="#9A41CD" stop-opacity="0.4"/>
<stop offset="1" stop-color="#9A41CD"/>
</linearGradient>
<linearGradient id="paint14_linear_2960_50603" x1="49" y1="242.134" x2="313" y2="242.134" gradientUnits="userSpaceOnUse">
<stop stop-color="#343232" stop-opacity="0.1"/>
<stop offset="1" stop-color="white" stop-opacity="0"/>
</linearGradient>
</defs>
</svg>
