<svg width="48" height="48" fill="none" xmlns="http://www.w3.org/2000/svg"><path fill-rule="evenodd" clip-rule="evenodd" d="M23.76 12.48h20.16v8.16H23.76v-8.16z" fill="#fff"/><path fill-rule="evenodd" clip-rule="evenodd" d="M5.52 39.12a4.794 4.794 0 0 1-4.152-2.4 4.773 4.773 0 0 0-.648 2.4 4.8 4.8 0 0 0 4.8 4.8h4.8v-4.8h-4.8z" fill="#3ECC5F"/><path fill-rule="evenodd" clip-rule="evenodd" d="M27.115 13.771L43.92 12.72v-2.4a4.8 4.8 0 0 0-4.8-4.8h-21.6l-.6-1.04a.693.693 0 0 0-1.2 0l-.6 1.04-.6-1.04a.693.693 0 0 0-1.2 0l-.6 1.04-.6-1.04a.693.693 0 0 0-1.2 0l-.6 1.04h-.017l-.994-.994a.694.694 0 0 0-1.159.312l-.326 1.224-1.248-.336a.694.694 0 0 0-.847.85l.333 1.248-1.224.326a.694.694 0 0 0-.312 1.16l.994.995v.015l-1.04.6a.694.694 0 0 0 0 1.2l1.04.6-1.04.6a.694.694 0 0 0 0 1.2l1.04.6-1.04.6a.694.694 0 0 0 0 1.2l1.04.6-1.04.6a.694.694 0 0 0 0 1.2l1.04.6-1.04.6a.694.694 0 0 0 0 1.2l1.04.6-1.04.6a.694.694 0 0 0 0 1.2l1.04.6-1.04.6a.694.694 0 0 0 0 1.2l1.04.6-1.04.6a.694.694 0 0 0 0 1.2l1.04.6-1.04.6a.694.694 0 0 0 0 1.2l1.04.6-1.04.6a.694.694 0 0 0 0 1.2l1.04.6-1.04.6a.694.694 0 0 0 0 1.2l1.04.6-1.04.6a.694.694 0 0 0 0 1.2l1.04.6a4.8 4.8 0 0 0 4.8 4.8h28.8a4.8 4.8 0 0 0 4.8-4.8v-19.2l-16.805-1.051a2.553 2.553 0 0 1 0-5.098z" fill="#3ECC5F"/><path fill-rule="evenodd" clip-rule="evenodd" d="M34.32 43.92h7.2v-9.6h-7.2v9.6z" fill="#3ECC5F"/><path fill-rule="evenodd" clip-rule="evenodd" d="M46.32 37.92c-.053 0-.103.01-.154.014l-.028-.108a1.2 1.2 0 0 0-.461-2.306 1.19 1.19 0 0 0-.725.25 6.115 6.115 0 0 0-.08-.082 1.192 1.192 0 0 0-.027-1.477 1.2 1.2 0 0 0-2.034.289l-.105-.026c.004-.05.014-.101.014-.154a1.2 1.2 0 0 0-2.4 0c0 .053.01.103.014.154l-.105.026a1.2 1.2 0 0 0-2.304.47c0 .272.09.516.242.718a4.8 4.8 0 1 0 8 4.617c.05.005.1.015.153.015a1.2 1.2 0 0 0 0-2.4" fill="#44D860"/><path fill-rule="evenodd" clip-rule="evenodd" d="M36.72 29.52h7.2v-4.8h-7.2v4.8z" fill="#3ECC5F"/><path fill-rule="evenodd" clip-rule="evenodd" d="M46.32 27.72a.6.6 0 0 0 0-1.2l-.077.007-.014-.053a.6.6 0 0 0-.23-1.154.584.584 0 0 0-.36.125 1.388 1.388 0 0 0-.044-.041.587.587 0 0 0-.014-.738.6.6 0 0 0-1.015.145 2.397 2.397 0 0 0-2.461.728 2.4 2.4 0 0 0 2.46 3.89.6.6 0 1 0 1.033-.593l.038-.04c.1.076.226.124.362.124a.6.6 0 0 0 .23-1.152l.015-.055c.024.002.05.007.077.007z" fill="#44D860"/><path fill-rule="evenodd" clip-rule="evenodd" d="M15.12 13.32a.6.6 0 0 1-.6-.6 1.8 1.8 0 0 0-3.6 0 .6.6 0 1 1-1.2 0 3 3 0 1 1 6 0 .6.6 0 0 1-.6.6" fill="#000"/><path fill-rule="evenodd" clip-rule="evenodd" d="M24.72 43.92h14.4a4.8 4.8 0 0 0 4.8-4.8v-16.8h-14.4a4.8 4.8 0 0 0-4.8 4.8v16.8z" fill="#FFFF50"/><path fill-rule="evenodd" clip-rule="evenodd" d="M40.325 29.76h-12.01a.24.24 0 0 1 0-.48h12.01a.24.24 0 1 1 0 .48zm0 4.8h-12.01a.24.24 0 0 1 0-.48h12.01a.24.24 0 1 1 0 .48zm0 4.8h-12.01a.24.24 0 0 1 0-.48h12.01a.24.24 0 1 1 0 .48zm0-11.955h-12.01a.24.24 0 0 1 0-.48h12.01a.24.24 0 1 1 0 .48zm0 4.755h-12.01a.24.24 0 0 1 0-.48h12.01a.24.24 0 1 1 0 .48zm0 4.8h-12.01a.24.24 0 0 1 0-.48h12.01a.24.24 0 1 1 0 .48zm3.595-22.174h-.007c-.744.024-1.095.768-1.404 1.42-.322.685-.572 1.129-.982 1.117-.454-.017-.713-.528-.986-1.07-.317-.624-.677-1.33-1.43-1.304-.733.024-1.086.672-1.395 1.241-.331.605-.557.974-.989.96-.463-.02-.708-.434-.994-.917-.316-.537-.684-1.14-1.423-1.12-.72.024-1.073.573-1.385 1.056-.328.51-.559.823-.998.803-.475-.016-.72-.36-1-.76-.32-.451-.678-.96-1.417-.936-.703.024-1.056.475-1.368.87-.295.375-.525.673-1.013.654a.24.24 0 0 0-.019.48c.725.024 1.092-.432 1.411-.838.281-.36.526-.667 1.006-.684.463-.02.68.267 1.008.73.312.441.662.94 1.375.965.744.024 1.104-.53 1.419-1.023.285-.441.528-.82.996-.838.432-.014.664.324.996.884.312.528.662 1.125 1.39 1.152.748.024 1.11-.63 1.425-1.21.273-.5.533-.972.989-.989.432-.01.655.384.986 1.04.312.611.662 1.305 1.4 1.331h.04c.734 0 1.085-.736 1.392-1.39.274-.575.533-1.122.977-1.144v-.48z" fill="#000"/><path fill-rule="evenodd" clip-rule="evenodd" d="M19.92 43.92h9.6v-9.6h-9.6v9.6z" fill="#3ECC5F"/><path fill-rule="evenodd" clip-rule="evenodd" d="M34.32 37.92c-.053 0-.103.01-.154.014l-.028-.108a1.2 1.2 0 0 0-.461-2.306 1.19 1.19 0 0 0-.725.25 6.115 6.115 0 0 0-.08-.082 1.192 1.192 0 0 0-.027-1.477 1.2 1.2 0 0 0-2.034.289l-.105-.026c.004-.05.014-.101.014-.154a1.2 1.2 0 0 0-2.4 0c0 .053.01.103.014.154l-.105.026a1.2 1.2 0 0 0-2.304.47c0 .272.09.516.242.718a4.8 4.8 0 1 0 8 4.617c.05.005.1.015.153.015a1.2 1.2 0 0 0 0-2.4" fill="#44D860"/><path fill-rule="evenodd" clip-rule="evenodd" d="M19.92 29.52h9.6v-4.8h-9.6v4.8z" fill="#3ECC5F"/><path fill-rule="evenodd" clip-rule="evenodd" d="M31.92 27.72a.6.6 0 0 0 0-1.2l-.077.007-.014-.053a.6.6 0 0 0-.23-1.154.584.584 0 0 0-.36.125 1.388 1.388 0 0 0-.044-.041.587.587 0 0 0-.014-.738.6.6 0 0 0-1.015.145 2.397 2.397 0 0 0-2.461.728 2.4 2.4 0 0 0 2.46 3.89.6.6 0 1 0 1.033-.593l.038-.04c.1.076.226.124.362.124a.6.6 0 0 0 .23-1.152l.015-.055c.024.002.05.007.077.007z" fill="#44D860"/><path fill-rule="evenodd" clip-rule="evenodd" d="M34.32 10.02a.652.652 0 0 1-.23-.046.623.623 0 0 1-.195-.13.63.63 0 0 1-.13-.194.628.628 0 0 1-.045-.23.652.652 0 0 1 .046-.23.63.63 0 0 1 .22-.27.623.623 0 0 1 .216-.088.617.617 0 0 1 .543.163.612.612 0 0 1 .175.425.607.607 0 0 1-.37.554.614.614 0 0 1-.23.046zm4.8-.3a.612.612 0 0 1-.5-.267.628.628 0 0 1-.1-.334.612.612 0 0 1 .264-.498.617.617 0 0 1 .67 0 .612.612 0 0 1 .165.832.622.622 0 0 1-.269.22.615.615 0 0 1-.23.047" fill="#000"/></svg>