<svg width="48" height="48" fill="none" xmlns="http://www.w3.org/2000/svg"><g clip-path="url(#clip0)" fill="#222"><path d="M7.437 32.472c-.281 0-.422-.324-.422-.972V14.816c0-.145-.025-.252-.074-.32-.049-.067-.11-.091-.184-.072-1.054.213-1.587.32-1.599.32-.135.018-.239-.01-.312-.088-.062-.087-.092-.242-.092-.464v-1.117c0-.31.14-.489.422-.537l4.192-.87c.122-.02.202-.03.239-.03.245 0 .367.204.367.61V31.5c0 .648-.147.972-.44.972H7.436zm9.192 0c-.282 0-.423-.324-.423-.972V14.816c0-.145-.025-.252-.074-.32-.049-.067-.11-.091-.184-.072-1.053.213-1.587.32-1.599.32-.135.018-.239-.01-.312-.088-.062-.087-.092-.242-.092-.464v-1.117c0-.31.14-.489.423-.537l4.19-.87c.123-.02.203-.03.24-.03.245 0 .367.204.367.61V31.5c0 .648-.147.972-.44.972h-2.096zm12.242.029c-.453 0-.851-.03-1.194-.087a3.461 3.461 0 0 1-1.03-.392 2.518 2.518 0 0 1-.827-.783c-.209-.339-.38-.784-.515-1.335-.122-.561-.184-1.224-.184-1.988v-7.95c0-.174-.067-.261-.202-.261h-1.176c-.294 0-.441-.213-.441-.638v-.552c0-.425.146-.638.44-.638h1.177c.123 0 .19-.13.202-.392l.313-5.136c.012-.493.165-.74.46-.74h1.286c.147 0 .258.054.331.16.073.097.11.29.11.58v5.136c0 .261.074.392.22.392h2.372c.147 0 .258.043.331.13.074.087.11.257.11.508v.552c0 .251-.036.42-.11.507-.073.087-.184.13-.33.13h-2.372c-.086 0-.147.015-.184.044-.024.03-.037.102-.037.218v7.95c0 .813.086 1.442.258 1.886.183.445.386.726.606.842.233.106.527.16.883.16h1.268c.33 0 .496.145.496.435v.769c0 .329-.177.493-.533.493h-1.728zm7.206 2.031c.331 0 .638-.222.92-.667.293-.445.44-.987.44-1.625 0-.252-.122-.784-.367-1.596l-3.86-11.911a1.918 1.918 0 0 1-.037-.32c0-.357.092-.536.276-.536h1.746c.33 0 .545.242.643.725l2.776 9.924c.049.106.08.16.092.16.049 0 .073-.054.073-.16l2.28-9.88c.086-.513.288-.77.606-.77h1.25c.209 0 .313.194.313.581 0 .02-.019.13-.055.334l-3.309 13.478c-.343 1.499-.778 2.534-1.305 3.105-.515.57-1.201.87-2.059.9h-.239c-.98 0-1.618-.194-1.912-.581-.061-.087-.092-.261-.092-.523 0-.6.135-.9.405-.9.037 0 .245.044.625.131.38.088.643.131.79.131z"/><path d="M6.757 14.424l.183.562.025-.005.025-.006-.233-.551zm-1.599.32v-.581h-.066l-.066.01.132.57zm-.312-.088l-.643.282.024.034.03.032.589-.348zm.33-2.118l.157.567.015-.003.016-.003-.188-.561zm4.192-.87l-.145-.57-.021.004-.022.004.188.561zm-1.93 20.224c.13 0 .25.044.327.103.06.046.065.078.05.046-.03-.07-.065-.235-.065-.541H6.28c0 .341.034.663.145.917.107.248.396.635 1.012.635v-1.16zm.312-.392V14.816H6.28V31.5h1.47zm0-16.684c0-.173-.024-.405-.17-.607l-1.277.575a.242.242 0 0 1-.027-.046l-.003-.007.004.028a.596.596 0 0 1 .002.057h1.47zm-.17-.607a.87.87 0 0 0-.393-.3 1.075 1.075 0 0 0-.662-.036l.465 1.102a.758.758 0 0 1-.46-.028.501.501 0 0 1-.227-.163l1.277-.575zm-1.005-.347a572.4 572.4 0 0 1-1.487.298l-.07.013-.008.002.015-.003.027-.003s.047-.006.106-.006v1.16a.926.926 0 0 0 .198-.02l.085-.017.306-.06 1.193-.24-.365-1.124zm-1.549.31a.495.495 0 0 1 .198.017c.1.027.17.076.21.119l-1.177.696c.114.12.273.222.477.28.199.054.392.053.556.03l-.264-1.142zm.462.202a.23.23 0 0 1 .017.027l.005.01s-.003-.007-.007-.026a1.042 1.042 0 0 1-.014-.193h-1.47c0 .227.023.517.184.746l1.285-.564zm0-.182v-1.117h-1.47v1.117h1.47zm0-1.117c0-.044.006-.069.009-.08.003-.009.002 0-.013.02a.253.253 0 0 1-.079.063.256.256 0 0 1-.072.027l-.313-1.134c-.318.054-.6.197-.785.431a1.06 1.06 0 0 0-.217.673h1.47zm-.124.024l4.19-.87-.374-1.123-4.19.87.374 1.123zm4.148-.863l.119-.017.017-.002-.01.001h-.031v-1.16c-.124 0-.28.024-.384.04l.289 1.138zm.095-.017a.553.553 0 0 1-.261-.067.336.336 0 0 1-.128-.112c-.008-.014-.001-.008.007.032a.916.916 0 0 1 .014.176h1.47c0-.231-.03-.488-.163-.707a.943.943 0 0 0-.357-.34 1.206 1.206 0 0 0-.582-.143v1.16zm-.368.029V31.5h1.47V12.248H9.24zm0 19.252c0 .146-.008.264-.022.356a.705.705 0 0 1-.045.177c-.014.03-.008-.002.053-.047a.535.535 0 0 1 .308-.094v1.16c.264 0 .506-.078.694-.216.171-.126.27-.28.33-.411.116-.258.152-.582.152-.925H9.24zm.294.392H7.437v1.16h2.096v-1.16zm6.415-17.468l.183.562.025-.005.025-.006-.233-.551zm-1.599.32v-.581h-.066l-.065.01.131.57zm-.312-.088l-.643.282.024.034.03.032.589-.348zm.33-2.118l.157.567.015-.003.016-.003-.187-.561zm4.192-.87l-.144-.57-.022.004-.021.004.187.561zm-1.93 20.224c.13 0 .25.044.327.103.06.046.065.078.051.046-.03-.07-.066-.235-.066-.541h-1.47c0 .341.034.663.145.917.108.248.396.635 1.013.635v-1.16zm.312-.392V14.816h-1.47V31.5h1.47zm0-16.684c0-.173-.024-.405-.17-.607l-1.277.575a.237.237 0 0 1-.027-.046l-.003-.007c0 .004.003.013.004.028a.605.605 0 0 1 .002.057h1.471zm-.17-.607a.87.87 0 0 0-.393-.3 1.074 1.074 0 0 0-.662-.036l.465 1.102a.758.758 0 0 1-.46-.028.5.5 0 0 1-.227-.163l1.277-.575zm-1.005-.347a571.934 571.934 0 0 1-1.557.311l-.008.002.015-.003.027-.003s.047-.006.106-.006v1.16a.927.927 0 0 0 .165-.014l.034-.006.085-.017a607.434 607.434 0 0 0 1.498-.3l-.365-1.124zm-1.548.31a.495.495 0 0 1 .197.017c.1.027.17.076.21.119l-1.177.696c.114.12.274.222.477.28.199.054.392.053.556.03l-.263-1.142zm.462.202a.23.23 0 0 1 .02.037l-.006-.026a1.04 1.04 0 0 1-.014-.193h-1.47c0 .227.023.517.184.746l1.286-.564zm0-.182v-1.117h-1.47v1.117h1.47zm0-1.117c0-.044.005-.069.008-.08.003-.009.002 0-.013.02a.252.252 0 0 1-.079.063.256.256 0 0 1-.072.027l-.313-1.134c-.318.054-.6.197-.785.431a1.06 1.06 0 0 0-.216.673h1.47zm-.125.024l4.19-.87-.373-1.123-4.192.87.375 1.123zm4.148-.863a3.57 3.57 0 0 1 .12-.017l.016-.002-.01.001h-.031v-1.16c-.124 0-.28.024-.383.04l.288 1.138zm.095-.017a.553.553 0 0 1-.261-.067.336.336 0 0 1-.127-.112c-.009-.014-.002-.008.006.032a.917.917 0 0 1 .014.176h1.47c0-.231-.03-.488-.163-.707a.944.944 0 0 0-.357-.34c-.18-.1-.385-.143-.582-.143v1.16zm-.368.029V31.5h1.47V12.248h-1.47zm0 19.252c0 .146-.008.264-.022.356a.706.706 0 0 1-.045.177c-.014.03-.007-.002.053-.047a.535.535 0 0 1 .308-.094v1.16c.265 0 .507-.078.694-.216.171-.126.27-.28.33-.411.116-.258.153-.582.153-.925h-1.47zm.294.392H16.63v1.16h2.095v-1.16zm8.952.522l-.178.563.012.002.012.002.154-.567zm-1.029-.392l-.438.467.005.003.006.002.427-.472zm-.827-.783l-.662.253.006.01.006.008.65-.271zm-.515-1.335l-.725.099.002.005.001.006.722-.11zm-.184-12.419l-.734-.028v.007l.734.021zm.313-5.136l.734.028v-.016l-.734-.012zm2.077-.58l-.646.278.008.01.007.01.631-.298zm.147 7.98l-.52-.411-.051.04-.04.049.611.321zm.22 10.053l-.703.17.002.005.003.005.699-.18zm.607.842l-.408.483.02.01.02.01.368-.503zm.386 1.277c-.416 0-.76-.027-1.04-.075l-.309 1.135c.406.069.858.1 1.35.1v-1.16zm-1.016-.07a2.633 2.633 0 0 1-.78-.301l-.855.944c.404.228.83.395 1.278.483l.357-1.126zm-.77-.295a1.877 1.877 0 0 1-.615-.589l-1.3.543a3.16 3.16 0 0 0 1.04.979l.875-.933zm-.604-.57c-.17-.277-.326-.669-.454-1.192l-1.444.22c.142.58.329 1.078.575 1.478l1.323-.507zm-.451-1.18c-.114-.52-.174-1.148-.174-1.89h-1.47c0 .787.063 1.484.194 2.087l1.45-.198zm-.174-1.89v-7.95h-1.47v7.95h1.47zm0-7.95c0-.127-.02-.32-.158-.498-.174-.225-.469-.343-.779-.343v1.16a.675.675 0 0 1-.264-.054.532.532 0 0 1-.212-.158c-.07-.092-.057-.154-.057-.107h1.47zm-.937-.841h-1.176v1.16h1.176v-1.16zm-1.176 0c.042 0 .114.008.19.045.074.035.11.078.124.097.011.016.004.013-.005-.025a.804.804 0 0 1-.015-.175h-1.47c0 .246.038.522.2.756.086.126.215.248.4.337.185.09.386.125.576.125v-1.16zm.294-.058v-.552h-1.47v.552h1.47zm0-.552c0-.081.007-.138.015-.175.01-.038.016-.042.005-.026a.32.32 0 0 1-.124.098.454.454 0 0 1-.19.045v-1.16c-.19 0-.391.035-.577.125a1.015 1.015 0 0 0-.4.337c-.161.233-.2.51-.2.756h1.47zm-.294-.058h1.176v-1.16h-1.176v1.16zm1.176 0c.493 0 .738-.293.823-.46.083-.16.107-.34.114-.49l-1.47-.043c-.005.11-.021.126-.005.096a.411.411 0 0 1 .137-.145.718.718 0 0 1 .401-.118v1.16zm.937-.944l.312-5.136-1.469-.056-.312 5.136 1.469.056zm.313-5.152c.003-.102.012-.18.024-.235.013-.057.026-.078.025-.076-.002.003-.027.042-.098.081a.484.484 0 0 1-.227.059v-1.16c-.212 0-.426.046-.615.15-.182.1-.302.233-.38.359-.148.238-.193.525-.2.799l1.47.023zm-.276-.171h1.287v-1.16h-1.287v1.16zm1.287 0a.453.453 0 0 1-.19-.046.32.32 0 0 1-.125-.097l1.292-.556a1.015 1.015 0 0 0-.4-.337 1.328 1.328 0 0 0-.577-.125v1.16zm-.3-.122c-.021-.029-.027-.046-.025-.042a.292.292 0 0 1 .011.047c.012.058.02.148.02.276h1.47c0-.161-.01-.313-.035-.449a1.012 1.012 0 0 0-.18-.43l-1.26.598zm.006.281v5.136h1.47V12.35h-1.47zm0 5.136c0 .156.018.352.119.53.053.095.145.21.3.302.163.096.352.14.537.14v-1.16c.11 0 .236.027.345.091.099.059.144.125.161.155.017.03.017.044.014.029a.5.5 0 0 1-.005-.087h-1.471zm.956.972h2.371v-1.16h-2.371v1.16zm2.371 0a.387.387 0 0 1-.136-.028.37.37 0 0 1-.145-.1l1.224-.643c-.227-.269-.582-.39-.943-.39v1.161zm-.28-.128a.23.23 0 0 1-.037-.054 1.085 1.085 0 0 1 .023.24h1.47c0-.145-.01-.285-.037-.413a.943.943 0 0 0-.196-.416l-1.224.643zm-.014.186v.552h1.47v-.552h-1.47zm0 .552c0 .106-.008.176-.017.217-.004.02-.007.026-.006.023a.23.23 0 0 1 .036-.055l1.224.644a.943.943 0 0 0 .196-.416c.027-.128.038-.268.038-.413h-1.471zm.013.185a.368.368 0 0 1 .145-.099.385.385 0 0 1 .136-.028v1.16c.361 0 .716-.12.943-.389l-1.224-.644zm.281-.127h-2.371v1.16h2.371v-1.16zm-2.371 0c-.16 0-.463.023-.704.213l1.04.82a.613.613 0 0 1-.336.127v-1.16zm-.796.302a.656.656 0 0 0-.144.32 1.321 1.321 0 0 0-.016.219h1.47l.002-.05.001-.015s-.002.014-.01.037a.483.483 0 0 1-.079.133l-1.224-.644zm-.16.539v7.95h1.47v-7.95h-1.47zm0 7.95c0 .834.086 1.53.29 2.055l1.406-.337c-.14-.364-.226-.927-.226-1.718h-1.47zm.294 2.066c.1.245.215.466.349.652.13.18.305.365.548.493l.816-.966c.023.012-.014-.001-.086-.102a2.199 2.199 0 0 1-.23-.436l-1.397.36zm.937 1.164c.375.172.806.238 1.25.238v-1.16c-.266 0-.423-.04-.513-.082l-.737 1.004zm1.25.238h1.269v-1.16h-1.268v1.16zm1.269 0c.017 0-.001.002-.038-.01a.366.366 0 0 1-.136-.073c-.087-.076-.065-.132-.065-.062h1.47a.916.916 0 0 0-.312-.715c-.265-.232-.619-.3-.919-.3v1.16zm-.239-.145v.769h1.47v-.77h-1.47zm0 .769c0 .042-.006.059-.005.057A.179.179 0 0 1 30.44 32a.333.333 0 0 1 .125-.071c.036-.012.053-.01.034-.01v1.161c.325 0 .692-.08.96-.327a.98.98 0 0 0 .309-.746h-1.471zm.202-.087h-1.728v1.16H30.6v-1.16zm6.397 1.944l-.652-.269-.003.005-.002.004.657.26zm.074-3.221l.715-.134-.001-.005-.002-.005-.712.144zm-3.86-11.911l-.728.082.005.031.01.03.712-.143zm2.628-.13l-.726.09.003.018.005.016.718-.125zm2.776 9.923l-.718.125.01.037.017.036.69-.198zm.165 0l-.723-.104-.012.051v.053h.735zm2.28-9.88l.723.104.003-.014.003-.014-.73-.076zm2.114.145l.722.11.003-.014.003-.014-.728-.082zm-3.31 13.478l-.72-.11-.002.003v.004l.723.103zm-1.304 3.105l-.594-.342-.003.002-.002.003.599.337zm-2.06.899v.58h.032l-.031-.58zm-2.15-.58l-.643.282.006.008.007.008.63-.298zm1.728-.58c.794 0 1.283-.525 1.577-.989l-1.315-.519c-.12.189-.219.288-.282.333-.054.04-.043.014.02.014v1.16zm1.571-.98c.362-.547.525-1.186.525-1.893h-1.47c0 .57-.132 1.014-.359 1.356l1.304.537zm.525-1.893c0-.333-.148-.935-.388-1.73l-1.43.268c.25.83.347 1.291.347 1.462h1.47zm-.39-1.74L33.921 18.59l-1.425.288 3.86 11.91 1.425-.287zm-3.846-11.85c-.022-.125-.029-.2-.029-.236h-1.47c0 .118.017.255.044.4l1.455-.163zm-.029-.236c0-.072.005-.123.01-.158.007-.036.012-.041.005-.027a.362.362 0 0 1-.128.13.648.648 0 0 1-.346.098v-1.16c-.211 0-.418.055-.588.165a.858.858 0 0 0-.3.331c-.1.195-.124.42-.124.62h1.471zm-.46.043h1.747v-1.16h-1.746v1.16zm1.747 0a.344.344 0 0 1-.134-.029c-.045-.02-.062-.04-.06-.037a.321.321 0 0 1 .046.08c.022.053.045.126.065.223l1.452-.183c-.056-.279-.158-.56-.358-.786-.224-.252-.572-.428-1.011-.428v1.16zm-.075.27l2.776 9.924 1.436-.25-2.776-9.924-1.436.25zm2.803 9.997c.026.057.054.114.081.162.012.02.036.06.069.1a.67.67 0 0 0 .107.107c.026.02.212.173.526.173v-1.161c.168 0 .294.045.366.078a.728.728 0 0 1 .148.09.58.58 0 0 1 .093.09c.023.029.033.048.03.042a1.246 1.246 0 0 1-.038-.078l-1.382.397zm.783.542c.2 0 .387-.06.529-.163a.66.66 0 0 0 .28-.577h-1.471c0 .034-.007-.008.026-.079a.516.516 0 0 1 .171-.2.8.8 0 0 1 .465-.142v1.16zm.797-.636l2.28-9.88-1.448-.208-2.279 9.88 1.447.208zm2.285-9.908a1.35 1.35 0 0 1 .062-.248.387.387 0 0 1 .049-.098c.005-.007-.01.016-.062.041a.404.404 0 0 1-.172.04v-1.16c-.467 0-.81.207-1.014.465-.183.232-.273.52-.321.808l1.458.152zm-.123-.265h1.25v-1.16h-1.25v1.16zm1.25 0a.616.616 0 0 1-.317-.087.347.347 0 0 1-.125-.121c-.007-.012 0-.005.007.036a.995.995 0 0 1 .013.172h1.47c0-.217-.026-.456-.136-.662a.892.892 0 0 0-.321-.339 1.124 1.124 0 0 0-.59-.16v1.161zm-.422 0v-.03l.001-.008v.006a16.379 16.379 0 0 1-.049.284l1.456.164.042-.243c.006-.033.02-.115.02-.173h-1.47zm-.042.223l-3.309 13.478 1.444.221 3.309-13.478-1.444-.22zm-3.31 13.486c-.342 1.49-.755 2.41-1.176 2.866l1.188.683c.633-.685 1.09-1.835 1.434-3.343l-1.447-.206zm-1.181 2.871c-.389.43-.869.635-1.492.656l.063 1.16c1.094-.037 1.986-.432 2.627-1.143l-1.198-.673zm-1.46.656h-.239v1.16h.239v-1.16zm-.239 0c-.91 0-1.194-.184-1.281-.299l-1.261.597c.501.66 1.491.862 2.542.862v-1.16zm-1.269-.282c.02.03.027.048.025.045a.282.282 0 0 1-.009-.039 1.509 1.509 0 0 1-.015-.247h-1.471c0 .146.008.284.03.407.02.112.058.26.154.398l1.286-.564zm0-.24c0-.135.008-.242.02-.326a.632.632 0 0 1 .04-.155c.01-.025 0 .012-.064.06a.562.562 0 0 1-.326.101v-1.16c-.26 0-.498.078-.68.213a.992.992 0 0 0-.317.398c-.11.245-.143.55-.143.868h1.47zm-.33-.32a.813.813 0 0 1-.104-.006h.002l.097.02c.096.02.237.05.425.094l.41-1.115a25.203 25.203 0 0 0-.61-.131c-.008-.002-.113-.022-.22-.022v1.16zm.42.108c.37.085.729.153.995.153v-1.16c.003 0-.041-.002-.157-.02a7.363 7.363 0 0 1-.428-.088l-.41 1.115z"/></g><defs><clipPath id="clip0"><path fill="#fff" transform="translate(4 11)" d="M0 0H40V25.882H0z"/></clipPath></defs></svg>