<svg width="48" height="48" fill="none" xmlns="http://www.w3.org/2000/svg"><g clip-path="url(#clip0)"><path d="M23.829.005l-20.735 12 .002 23.964L23.878 47.92l20.736-12V11.97L23.829.004z" fill="#0E83CD"/><path d="M14.101 34.338l.002-10.362.002-10.363 1.882-1.101 1.804 1.067.019 4.235.02 4.234h12.05l.019-4.231.02-4.232 1.83-1.059 1.857 1.087V23.97l-.002 10.355-1.837 1.027-1.849-1.04-.02-4.21-.019-4.212H17.83l-.019 4.21.006 4.23-1.848 1.085-1.866-1.076z" fill="#fff"/></g><defs><clipPath id="clip0"><path fill="#fff" transform="translate(3)" d="M0 0H41.645V48H0z"/></clipPath></defs></svg>