<svg width="48" height="38" viewBox="0 0 48 38" fill="none" xmlns="http://www.w3.org/2000/svg">
<path fill-rule="evenodd" clip-rule="evenodd" d="M14.7599 35.9199L14.6399 35.7999C14.3999 35.3199 14.3999 34.8399 14.3999 34.3599H2.99992L20.0399 4.11988L27.1199 16.9599L29.3999 15.2799L22.3199 2.43988C22.1999 2.19988 21.3599 0.879883 19.9199 0.879883C19.3199 0.879883 18.3599 1.11988 17.6399 2.43988L0.479919 33.0399C0.359919 33.2799 -0.360081 34.7199 0.359919 35.9199C0.599919 36.5199 1.31992 37.1199 2.87992 37.1199H17.2799C15.7199 37.1199 14.9999 36.5199 14.7599 35.9199Z" fill="#00C58E"/>
<path fill-rule="evenodd" clip-rule="evenodd" d="M47.3999 33.1598L33.5999 8.31977C33.3599 8.07977 32.6399 6.75977 31.1999 6.75977C30.5999 6.75977 29.7599 6.99977 28.9199 8.31977L27.1199 11.1998V16.9598L31.1999 9.87977L44.8799 34.3598H39.7199C39.7913 34.853 39.7075 35.3563 39.4799 35.7998V35.9198C38.7599 37.1198 37.1999 37.1198 36.9599 37.1198H45.1199C45.3599 37.1198 46.9199 37.1198 47.6399 35.9198C47.8799 35.3198 48.1199 34.3598 47.3999 33.1598Z" fill="#108775"/>
<path d="M39.84 35.9199V35.7999L39.96 35.5599C40.08 35.1999 40.2 34.7199 40.08 34.3599L39.6 33.0399L28.8 14.08L27.24 11.2H27.12L25.56 14.08L14.64 33.0399L14.28 34.3599C14.1908 34.8922 14.275 35.4391 14.52 35.9199C14.88 36.5199 15.6 37.1199 17.04 37.1199H37.2C37.56 37.1199 39.12 37.1199 39.84 35.9199ZM27.12 16.96L37.08 34.3599H17.28L27.12 16.96Z" fill="#2F495E"/>
</svg>
