<svg width="48" height="48" fill="none" xmlns="http://www.w3.org/2000/svg"><g clip-path="url(#clip0)"><path d="M28.8 40.371L9.6 7.113H19.2l19.201 33.258h-9.6z" fill="#FF4081"/><path d="M28.8 40.371l4.8-8.314 4.802 8.314H28.8z" fill="#fff" fill-opacity=".2"/><path d="M24 32.057l4.8 8.314 4.8-8.314H24z" fill="#fff" fill-opacity=".1"/><path d="M19.2 23.742l4.8 8.315 4.8-8.315h-9.6z" fill="#000" fill-opacity=".1"/><path d="M19.2 23.742l4.8-8.314 4.8 8.314h-9.6z" fill="#000" fill-opacity=".2"/><path d="M14.4 15.428l4.8 8.314 4.8-8.314h-9.6z" fill="#000" fill-opacity=".3"/><path d="M14.4 15.428l4.8-8.315 4.8 8.315h-9.6z" fill="#000" fill-opacity=".4"/><path d="M9.599 7.113l4.801 8.315 4.8-8.315H9.6z" fill="#000" fill-opacity=".5"/><path d="M9.599 40.371L-.002 23.742l4.8-8.314L19.2 40.37H9.599z" fill="#536DFE"/><path d="M9.599 40.371l4.801-8.314 4.8 8.314H9.6z" fill="#fff" fill-opacity=".2"/><path d="M4.799 32.057l4.8 8.314 4.801-8.314H4.8z" fill="#fff" fill-opacity=".1"/><path d="M-.002 23.742l4.8 8.315 4.8-8.315h-9.6z" fill="#000" fill-opacity=".1"/><path d="M-.002 23.742l4.8-8.314 4.8 8.314h-9.6z" fill="#000" fill-opacity=".2"/><path d="M9.599 23.742l-4.8-8.314 4.8-8.315 4.801 8.315L9.6 23.742z" fill="#303F9F"/><path d="M14.4 15.428L9.6 7.113l-4.8 8.315H14.4z" fill="#000" fill-opacity=".2"/><path d="M38.401 40.371l-4.8-8.314 4.8-8.315 4.8 8.315-4.8 8.314z" fill="#3F51B5"/><path d="M43.201 32.057l-4.8 8.314-4.8-8.314h9.6z" fill="#000" fill-opacity=".2"/><path d="M43.201 32.057L28.8 7.113h9.601l9.602 16.63-4.802 8.314z" fill="#7986CB"/><path d="M38.401 23.742l4.8 8.315 4.801-8.315h-9.6z" fill="#fff" fill-opacity=".2"/><path d="M38.401 23.742l4.8-8.314 4.801 8.314h-9.6z" fill="#fff" fill-opacity=".1"/><path d="M33.6 15.428l4.801-8.315 4.8 8.315h-9.6z" fill="#000" fill-opacity=".1"/><path d="M28.8 7.113l4.8 8.315 4.801-8.315H28.8z" fill="#000" fill-opacity=".2"/></g><defs><clipPath id="clip0"><path fill="#fff" transform="translate(0 7)" d="M0 0H48V33.375H0z"/></clipPath></defs></svg>