<svg width="48" height="48" fill="none" xmlns="http://www.w3.org/2000/svg"><g clip-path="url(#clip0)"><path d="M23.757 0l20.756 11.984V35.95L23.758 47.935 3 35.951V11.984L23.757 0z" fill="#673AB8"/><path d="M8.654 35.753c2.76 3.532 11.529.84 19.808-5.628S41.474 15.8 38.714 12.267s-11.529-.84-19.808 5.628S5.894 32.22 8.654 35.753zm1.178-.92c-.915-1.172-.515-3.472 1.229-6.366 1.836-3.048 4.952-6.413 8.766-9.393 3.814-2.98 7.833-5.19 11.235-6.234 3.23-.991 5.558-.823 6.473.348.916 1.172.516 3.471-1.228 6.366-1.836 3.048-4.952 6.413-8.766 9.393-3.814 2.98-7.833 5.19-11.235 6.233-3.23.992-5.558.824-6.474-.348z" fill="#fff"/><path d="M38.714 35.753c2.76-3.532-1.973-11.39-10.252-17.858-8.28-6.468-17.049-9.16-19.808-5.628-2.76 3.532 1.973 11.39 10.252 17.858 8.28 6.469 17.049 9.16 19.808 5.628zm-1.178-.92c-.916 1.17-3.244 1.339-6.474.347-3.402-1.044-7.42-3.254-11.235-6.233-3.814-2.98-6.93-6.345-8.766-9.393-1.744-2.895-2.144-5.194-1.229-6.366.916-1.171 3.243-1.34 6.474-.348 3.402 1.044 7.42 3.254 11.235 6.234 3.814 2.98 6.93 6.345 8.766 9.393 1.744 2.894 2.144 5.194 1.228 6.365z" fill="#fff"/><path d="M23.684 27.19a3.179 3.179 0 1 0 0-6.359 3.179 3.179 0 0 0 0 6.358z" fill="#fff"/></g><defs><clipPath id="clip0"><path fill="#fff" transform="translate(3)" d="M0 0H41.514V48H0z"/></clipPath></defs></svg>