<svg width="47" height="48" fill="none" xmlns="http://www.w3.org/2000/svg"><g clip-path="url(#clip0)"><path d="M39.792 6.09C35.507-.027 27.044-1.84 20.924 2.048L10.177 8.88a12.297 12.297 0 0 0-5.57 8.237 12.922 12.922 0 0 0 1.28 8.315 12.313 12.313 0 0 0-1.844 4.596c-.619 3.47.19 7.043 2.244 9.91 4.287 6.119 12.75 7.931 18.869 4.042l10.747-6.831a12.295 12.295 0 0 0 5.57-8.237 12.927 12.927 0 0 0-1.28-8.315A12.31 12.31 0 0 0 42.037 16c.619-3.47-.19-7.043-2.245-9.91" fill="#FF3E00"/><path d="M19.873 40.52a8.55 8.55 0 0 1-9.165-3.388 7.866 7.866 0 0 1-1.35-5.962c.062-.339.148-.674.257-1.001l.202-.616.55.404a13.881 13.881 0 0 0 4.206 2.095l.4.121-.037.398a2.4 2.4 0 0 0 .433 1.594 2.575 2.575 0 0 0 2.76 1.022 2.37 2.37 0 0 0 .66-.29l10.75-6.833a2.233 2.233 0 0 0 1.011-1.492 2.377 2.377 0 0 0-.407-1.797 2.577 2.577 0 0 0-2.76-1.022 2.37 2.37 0 0 0-.66.289L22.62 26.65c-.675.428-1.411.75-2.183.956a8.55 8.55 0 0 1-9.166-3.388 7.866 7.866 0 0 1-1.35-5.962 7.394 7.394 0 0 1 3.35-4.954l10.75-6.834a7.844 7.844 0 0 1 2.185-.957 8.55 8.55 0 0 1 9.165 3.388 7.866 7.866 0 0 1 1.35 5.962c-.062.34-.148.674-.256 1.001l-.203.616-.55-.403a13.87 13.87 0 0 0-4.206-2.096l-.4-.121.037-.398a2.404 2.404 0 0 0-.433-1.594 2.575 2.575 0 0 0-2.76-1.022 2.37 2.37 0 0 0-.66.29l-10.75 6.833a2.229 2.229 0 0 0-1.01 1.492c-.112.63.034 1.277.406 1.797a2.577 2.577 0 0 0 2.76 1.023c.234-.063.457-.16.661-.29l4.102-2.607a7.834 7.834 0 0 1 2.183-.957 8.55 8.55 0 0 1 9.165 3.388 7.865 7.865 0 0 1 1.35 5.962 7.398 7.398 0 0 1-3.35 4.955l-10.75 6.833a7.842 7.842 0 0 1-2.185.958" fill="#fff"/></g><defs><clipPath id="clip0"><path fill="#fff" transform="translate(3.84)" d="M0 0H38.4V46.08H0z"/></clipPath></defs></svg>