<svg xmlns="http://www.w3.org/2000/svg" width="2978" height="628" fill="none" viewBox="0 0 2978 628"><path fill="#1f1f1f" d="M717 390.353c3.036 28.368 28.841 76.998 103.725 76.998 65.27 0 96.641-41.538 96.641-82.063 0-36.473-24.793-66.36-73.873-76.492l-35.418-7.598c-13.661-2.533-22.769-10.131-22.769-22.289 0-14.184 14.168-24.821 31.877-24.821 28.334 0 38.96 18.742 40.984 33.433l56.163-12.664c-3.036-26.848-26.817-71.932-97.653-71.932-53.633 0-93.099 36.979-93.099 81.556 0 34.953 21.757 63.828 69.824 74.465l32.888 7.599c19.227 4.052 26.817 13.171 26.817 24.315 0 13.171-10.625 24.822-32.888 24.822-29.347 0-44.02-18.237-45.538-37.993zM1132.42 459.753h64.26c-1.01-8.612-2.53-25.835-2.53-45.085V210.523h-67.3V355.4c0 28.875-17.2 49.137-47.05 49.137-31.37 0-45.54-22.289-45.54-50.15V210.523h-67.293v157.542c0 54.202 34.403 98.273 94.613 98.273 26.31 0 55.16-10.131 68.82-33.433 0 10.131 1.01 21.782 2.02 26.848M1333.26 556V435.438c12.14 16.716 37.44 30.394 71.85 30.394 70.33 0 117.38-55.723 117.38-131.201 0-73.958-41.99-129.68-114.85-129.68-37.44 0-65.27 16.716-76.4 35.966v-30.394h-65.27V556zm122.95-220.862c0 44.578-27.32 70.412-61.73 70.412-34.4 0-62.23-26.341-62.23-70.412s27.83-69.906 62.23-69.906c34.41 0 61.73 25.835 61.73 69.906M1560.6 391.873c0 39.006 32.38 74.972 85.51 74.972 36.93 0 60.71-17.224 73.36-36.98 0 9.625 1.01 23.302 2.53 29.888h61.73c-1.52-8.612-3.03-26.342-3.03-39.512V297.652c0-50.15-29.35-94.727-108.28-94.727-66.79 0-102.72 43.057-106.76 82.063l59.7 12.664c2.03-21.782 18.22-40.525 47.56-40.525 28.34 0 42 14.69 42 32.42 0 8.612-4.55 15.704-18.72 17.73l-61.22 9.118c-41.49 6.079-74.38 30.9-74.38 75.478m99.67 24.822c-21.75 0-32.38-14.184-32.38-28.874 0-19.25 13.66-28.875 30.87-31.407l56.16-8.612v11.144c0 44.072-26.31 57.749-54.65 57.749M1913.8 459.753v-30.394c13.15 21.276 39.46 36.473 73.87 36.473 70.84 0 117.39-56.229 117.39-131.707 0-73.959-42-130.187-114.86-130.187-36.94 0-64.26 16.21-75.39 33.939V93h-66.28v366.753zm123.96-125.122c0 45.591-27.32 70.919-61.73 70.919-33.9 0-62.23-25.834-62.23-70.919 0-45.591 28.33-70.412 62.23-70.412 34.41 0 61.73 24.821 61.73 70.412M2143.16 391.873c0 39.006 32.38 74.972 85.51 74.972 36.93 0 60.72-17.224 73.36-36.98 0 9.625 1.02 23.302 2.53 29.888h61.73c-1.51-8.612-3.03-26.342-3.03-39.512V297.652c0-50.15-29.35-94.727-108.28-94.727-66.79 0-102.71 43.057-106.76 82.063l59.7 12.664c2.03-21.782 18.22-40.525 47.56-40.525 28.34 0 42 14.69 42 32.42 0 8.612-4.55 15.704-18.72 17.73l-61.22 9.118c-41.49 6.079-74.38 30.9-74.38 75.478m99.68 24.822c-21.76 0-32.39-14.184-32.39-28.874 0-19.25 13.66-28.875 30.87-31.407l56.16-8.612v11.144c0 44.072-26.31 57.749-54.64 57.749M2409.84 390.353c3.03 28.368 28.84 76.998 103.72 76.998 65.27 0 96.64-41.538 96.64-82.063 0-36.473-24.79-66.36-73.87-76.492l-35.42-7.598c-13.66-2.533-22.76-10.131-22.76-22.289 0-14.184 14.16-24.821 31.87-24.821 28.34 0 38.96 18.742 40.99 33.433l56.16-12.664c-3.04-26.848-26.82-71.932-97.65-71.932-53.64 0-93.1 36.979-93.1 81.556 0 34.953 21.75 63.828 69.82 74.465l32.89 7.599c19.23 4.052 26.82 13.171 26.82 24.315 0 13.171-10.63 24.822-32.89 24.822-29.35 0-44.02-18.237-45.54-37.993zM2712.4 306.77c1.52-22.795 20.75-49.137 55.66-49.137 38.45 0 54.65 24.316 55.66 49.137zm117.9 64.841c-8.1 22.288-25.3 37.992-56.67 37.992-33.4 0-61.23-23.809-62.74-56.735h178.1c0-1.014 1.01-11.145 1.01-20.77 0-80.037-46.04-129.173-122.95-129.173-63.75 0-122.45 51.669-122.45 131.2 0 84.089 60.21 133.226 128.52 133.226 61.22 0 100.69-35.966 113.34-79.024z"/><path fill="#3ecf8e" d="M60.45 376.395c-14.608 0-26.45-11.839-26.45-26.442a26.32 26.32 0 0 1 5.194-15.74l10.187-14.3L280.276 8.145A10.06 10.06 0 0 1 288.424 4c5.565 0 10.076 4.51 10.076 10.073v362.322z"/><path fill="url(#a)" d="M536.55 241.854c14.608 0 26.45 11.839 26.45 26.443 0 5.896-1.93 11.341-5.194 15.739l-10.187 14.3-230.895 311.768a10.07 10.07 0 0 1-8.148 4.145c-5.565 0-10.076-4.51-10.076-10.073V241.854z"/><path fill="url(#b)" fill-opacity=".2" d="M536.55 241.854c14.608 0 26.45 11.839 26.45 26.443 0 5.896-1.93 11.341-5.194 15.739l-10.187 14.3-230.895 311.768a10.07 10.07 0 0 1-8.148 4.145c-5.565 0-10.076-4.51-10.076-10.073V241.854z"/><defs><linearGradient id="a" x1="298.5" x2="495.646" y1="318.891" y2="395.82" gradientUnits="userSpaceOnUse"><stop/><stop offset="1" stop-color="#3ecf8e"/></linearGradient><linearGradient id="b" x1="212.852" x2="311.265" y1="192.853" y2="365.218" gradientUnits="userSpaceOnUse"><stop/><stop offset="1" stop-opacity="0"/></linearGradient></defs></svg>