<svg width="1385" height="400" viewBox="0 0 1385 400" fill="none" xmlns="http://www.w3.org/2000/svg">
<rect x="-23.0234" y="-8.55469" width="1438.31" height="419.234" fill="white"/>
<g clip-path="url(#clip0_1183_96513)">
<rect x="535.875" y="373.354" width="99.3675" height="91.6495" rx="7.84464" fill="white"/>
<path d="M526.801 349.689H633.963V466.237H526.801V349.689Z" fill="url(#paint0_radial_1183_96513)"/>
<g filter="url(#filter0_f_1183_96513)">
<ellipse cx="592.355" cy="242.223" rx="236.421" ry="107.725" fill="url(#paint1_linear_1183_96513)"/>
</g>
</g>
<rect x="536.12" y="373.599" width="98.8772" height="91.1592" rx="7.59949" stroke="url(#paint2_linear_1183_96513)" stroke-width="0.49029"/>
<g clip-path="url(#clip1_1183_96513)">
<rect x="648.867" y="373.354" width="99.3675" height="91.6495" rx="7.84464" fill="white"/>
<path d="M639.797 349.689H746.959V466.237H639.797V349.689Z" fill="url(#paint3_radial_1183_96513)"/>
<g filter="url(#filter1_f_1183_96513)">
<ellipse cx="705.355" cy="242.223" rx="236.421" ry="107.725" fill="url(#paint4_linear_1183_96513)"/>
</g>
</g>
<rect x="649.112" y="373.599" width="98.8772" height="91.1592" rx="7.59949" stroke="url(#paint5_linear_1183_96513)" stroke-width="0.49029"/>
<rect x="761.859" y="373.354" width="99.3675" height="91.6495" rx="7.84464" fill="white"/>
<g clip-path="url(#clip2_1183_96513)">
<rect x="986.848" y="373.354" width="99.3675" height="91.6495" rx="7.84464" fill="white"/>
<path d="M977.773 349.689H1084.94V466.237H977.773V349.689Z" fill="url(#paint6_radial_1183_96513)"/>
<g filter="url(#filter2_f_1183_96513)">
<ellipse cx="1043.34" cy="242.223" rx="236.421" ry="107.725" fill="url(#paint7_linear_1183_96513)"/>
</g>
</g>
<rect x="987.093" y="373.599" width="98.8772" height="91.1592" rx="7.59949" stroke="url(#paint8_linear_1183_96513)" stroke-width="0.49029"/>
<g clip-path="url(#clip3_1183_96513)">
<rect x="1100.84" y="373.354" width="99.3675" height="91.6495" rx="7.84464" fill="white"/>
<path d="M1091.77 349.689H1198.94V466.237H1091.77V349.689Z" fill="url(#paint9_radial_1183_96513)"/>
<g filter="url(#filter3_f_1183_96513)">
<ellipse cx="1157.33" cy="242.223" rx="236.421" ry="107.725" fill="url(#paint10_linear_1183_96513)"/>
</g>
</g>
<rect x="1101.09" y="373.599" width="98.8772" height="91.1592" rx="7.59949" stroke="url(#paint11_linear_1183_96513)" stroke-width="0.49029"/>
<rect x="1213.84" y="373.354" width="99.3675" height="91.6495" rx="7.84464" fill="white"/>
<g clip-path="url(#clip4_1183_96513)">
<rect x="1326.84" y="373.354" width="99.3675" height="91.6495" rx="7.84464" fill="white"/>
<path d="M1317.77 349.689H1424.93V466.237H1317.77V349.689Z" fill="url(#paint12_radial_1183_96513)"/>
<g filter="url(#filter4_f_1183_96513)">
<ellipse cx="1383.32" cy="242.223" rx="236.421" ry="107.725" fill="url(#paint13_linear_1183_96513)"/>
</g>
</g>
<rect x="1327.08" y="373.599" width="98.8772" height="91.1592" rx="7.59949" stroke="url(#paint14_linear_1183_96513)" stroke-width="0.49029"/>
<rect x="386.66" y="268.004" width="99.3675" height="91.6495" rx="7.84464" fill="white"/>
<g clip-path="url(#clip5_1183_96513)">
<rect x="499.652" y="268.004" width="99.3675" height="91.6495" rx="7.84464" fill="white"/>
<path d="M490.586 244.34H597.748V360.887H490.586V244.34Z" fill="url(#paint15_radial_1183_96513)"/>
<g filter="url(#filter5_f_1183_96513)">
<ellipse cx="556.136" cy="136.875" rx="236.421" ry="107.725" fill="url(#paint16_linear_1183_96513)"/>
</g>
</g>
<rect x="499.897" y="268.249" width="98.8772" height="91.1592" rx="7.59949" stroke="url(#paint17_linear_1183_96513)" stroke-width="0.49029"/>
<g clip-path="url(#clip6_1183_96513)">
<rect x="612.652" y="268.004" width="99.3675" height="91.6495" rx="7.84464" fill="white"/>
<path d="M603.586 244.34H710.748V360.887H603.586V244.34Z" fill="url(#paint18_radial_1183_96513)"/>
<g filter="url(#filter6_f_1183_96513)">
<ellipse cx="669.136" cy="136.875" rx="236.421" ry="107.725" fill="url(#paint19_linear_1183_96513)"/>
</g>
</g>
<rect x="612.897" y="268.249" width="98.8772" height="91.1592" rx="7.59949" stroke="url(#paint20_linear_1183_96513)" stroke-width="0.49029"/>
<g clip-path="url(#clip7_1183_96513)">
<rect x="790.453" y="166.047" width="99.3675" height="91.6495" rx="7.84464" fill="white"/>
<circle cx="858.514" cy="201.63" r="0.73958" transform="rotate(-180 858.514 201.63)" fill="#D9ECE8"/>
<circle cx="868.319" cy="186.432" r="0.73958" transform="rotate(-180 868.319 186.432)" fill="#D9ECE8"/>
<ellipse cx="811.931" cy="190.349" rx="0.245145" ry="0.245145" transform="rotate(-180 811.931 190.349)" fill="#D9ECE8"/>
<circle cx="811.448" cy="200.159" r="0.73958" transform="rotate(-180 811.448 200.159)" fill="#D9ECE8"/>
<ellipse cx="803.106" cy="201.626" rx="0.245145" ry="0.245145" transform="rotate(-180 803.106 201.626)" fill="#D9ECE8"/>
<circle cx="800.659" cy="196.727" r="0.73958" transform="rotate(-180 800.659 196.727)" fill="#D9ECE8"/>
<circle cx="801.639" cy="222.712" r="0.73958" transform="rotate(-180 801.639 222.712)" fill="#D9ECE8"/>
<circle cx="796.737" cy="213.397" r="0.73958" transform="rotate(-180 796.737 213.397)" fill="#D9ECE8"/>
<circle cx="810.467" cy="213.397" r="0.73958" transform="rotate(-180 810.467 213.397)" fill="#D9ECE8"/>
<circle cx="834.487" cy="226.145" r="0.73958" transform="rotate(-180 834.487 226.145)" fill="#D9ECE8"/>
<circle cx="821.249" cy="224.184" r="0.73958" transform="rotate(-180 821.249 224.184)" fill="#D9ECE8"/>
<ellipse cx="859.978" cy="237.907" rx="0.245145" ry="0.245145" transform="rotate(-180 859.978 237.907)" fill="#D9ECE8"/>
<ellipse rx="0.245145" ry="0.245145" transform="matrix(-1 -8.18178e-08 -8.18178e-08 1 814.876 232.513)" fill="#D9ECE8"/>
<ellipse rx="0.245145" ry="0.245145" transform="matrix(-1 -8.18178e-08 -8.18178e-08 1 823.212 226.63)" fill="#D9ECE8"/>
<ellipse rx="0.245145" ry="0.245145" transform="matrix(-1 -8.18178e-08 -8.18178e-08 1 816.837 225.159)" fill="#D9ECE8"/>
<circle cx="864.074" cy="223.368" r="0.73958" transform="rotate(-75 864.074 223.368)" fill="#D9ECE8"/>
<circle cx="842.992" cy="234.645" r="0.73958" transform="rotate(-75 842.992 234.645)" fill="#D9ECE8"/>
<circle cx="873.27" cy="198.363" r="0.267292" transform="rotate(105 873.27 198.363)" fill="#D9ECE8"/>
<ellipse cx="847.231" cy="219.276" rx="0.245145" ry="0.245145" transform="rotate(-180 847.231 219.276)" fill="#D9ECE8"/>
<circle cx="865.53" cy="229.608" r="0.73958" transform="rotate(-180 865.53 229.608)" fill="#D9ECE8"/>
<circle cx="878.964" cy="215.206" r="0.73958" transform="rotate(-75 878.964 215.206)" fill="#D9ECE8"/>
<path d="M781.391 142.383H888.553V258.93H781.391V142.383Z" fill="url(#paint21_radial_1183_96513)"/>
<g filter="url(#filter7_f_1183_96513)">
<ellipse cx="846.941" cy="34.9182" rx="236.421" ry="107.725" fill="url(#paint22_linear_1183_96513)"/>
</g>
<path fill-rule="evenodd" clip-rule="evenodd" d="M843.083 220.56C846.256 219.443 848.539 216.445 848.539 212.919C848.539 208.442 844.868 204.8 840.356 204.8C835.843 204.8 832.172 208.442 832.172 212.919C832.172 216.729 834.835 219.924 838.407 220.793V221.59C834.396 220.707 831.393 217.165 831.393 212.919C831.393 208.008 835.406 204.026 840.356 204.026C845.305 204.026 849.318 208.008 849.318 212.919C849.318 216.885 846.698 220.239 843.083 221.384V220.56ZM840.356 208.666C837.992 208.666 836.069 210.574 836.069 212.919C836.069 214.566 837.024 215.987 838.407 216.692V217.552C836.578 216.795 835.29 215.009 835.29 212.919C835.29 210.143 837.558 207.893 840.356 207.893C843.153 207.893 845.421 210.143 845.421 212.919C845.421 214.696 844.486 216.25 843.083 217.144V216.182C844.031 215.401 844.642 214.234 844.642 212.919C844.642 210.574 842.719 208.666 840.356 208.666ZM825.938 212.919C825.938 217.942 828.551 222.352 832.499 224.905C832.737 224.75 832.982 224.605 833.229 224.464C833.406 224.365 833.585 224.269 833.766 224.177C833.983 224.066 834.203 223.961 834.425 223.861C834.648 223.761 834.872 223.669 835.1 223.58C835.286 223.508 835.473 223.44 835.662 223.375C835.926 223.285 836.195 223.202 836.467 223.126C836.671 223.07 836.877 223.017 837.085 222.969C837.295 222.92 837.506 222.874 837.721 222.835C837.948 222.793 838.176 222.754 838.407 222.722C838.666 222.696 838.924 222.665 839.187 222.644V221.728V220.946V217.806V217.007V214.079H838.407V212.532H839.187H841.525H842.304V216.703V217.559V220.797V221.595V222.721C844.461 223.021 846.466 223.776 848.211 224.904C852.16 222.352 854.774 217.942 854.774 212.919C854.774 205.018 848.318 198.613 840.356 198.613C832.393 198.613 825.938 205.018 825.938 212.919Z" fill="url(#paint23_linear_1183_96513)"/>
</g>
<rect x="790.698" y="166.292" width="98.8772" height="91.1592" rx="7.59949" stroke="url(#paint24_linear_1183_96513)" stroke-width="0.49029"/>
<g clip-path="url(#clip8_1183_96513)">
<rect x="838.637" y="268.004" width="99.3675" height="91.6495" rx="7.84464" fill="white"/>
<path d="M829.574 244.34H936.737V360.887H829.574V244.34Z" fill="url(#paint25_radial_1183_96513)"/>
<g filter="url(#filter8_f_1183_96513)">
<ellipse cx="895.121" cy="136.875" rx="236.421" ry="107.725" fill="url(#paint26_linear_1183_96513)"/>
</g>
</g>
<rect x="838.882" y="268.249" width="98.8772" height="91.1592" rx="7.59949" stroke="url(#paint27_linear_1183_96513)" stroke-width="0.49029"/>
<g clip-path="url(#clip9_1183_96513)">
<rect x="951.641" y="268.004" width="99.3675" height="91.6495" rx="7.84464" fill="white"/>
<circle cx="1019.7" cy="303.587" r="0.73958" transform="rotate(-180 1019.7 303.587)" fill="#D9ECE8"/>
<circle cx="1029.5" cy="288.389" r="0.73958" transform="rotate(-180 1029.5 288.389)" fill="#D9ECE8"/>
<ellipse cx="973.114" cy="292.306" rx="0.245145" ry="0.245145" transform="rotate(-180 973.114 292.306)" fill="#D9ECE8"/>
<circle cx="972.632" cy="302.116" r="0.73958" transform="rotate(-180 972.632 302.116)" fill="#D9ECE8"/>
<ellipse cx="964.29" cy="303.583" rx="0.245145" ry="0.245145" transform="rotate(-180 964.29 303.583)" fill="#D9ECE8"/>
<circle cx="961.842" cy="298.684" r="0.73958" transform="rotate(-180 961.842 298.684)" fill="#D9ECE8"/>
<circle cx="962.823" cy="324.669" r="0.73958" transform="rotate(-180 962.823 324.669)" fill="#D9ECE8"/>
<circle cx="957.921" cy="315.354" r="0.73958" transform="rotate(-180 957.921 315.354)" fill="#D9ECE8"/>
<circle cx="971.651" cy="315.354" r="0.73958" transform="rotate(-180 971.651 315.354)" fill="#D9ECE8"/>
<circle cx="995.671" cy="328.102" r="0.73958" transform="rotate(-180 995.671 328.102)" fill="#D9ECE8"/>
<circle cx="982.432" cy="326.141" r="0.73958" transform="rotate(-180 982.432 326.141)" fill="#D9ECE8"/>
<ellipse cx="1021.16" cy="339.864" rx="0.245145" ry="0.245145" transform="rotate(-180 1021.16 339.864)" fill="#D9ECE8"/>
<ellipse rx="0.245145" ry="0.245145" transform="matrix(-1 -8.18178e-08 -8.18178e-08 1 976.06 334.47)" fill="#D9ECE8"/>
<ellipse rx="0.245145" ry="0.245145" transform="matrix(-1 -8.18178e-08 -8.18178e-08 1 984.395 328.587)" fill="#D9ECE8"/>
<ellipse rx="0.245145" ry="0.245145" transform="matrix(-1 -8.18178e-08 -8.18178e-08 1 978.02 327.116)" fill="#D9ECE8"/>
<circle cx="1025.26" cy="325.325" r="0.73958" transform="rotate(-75 1025.26 325.325)" fill="#D9ECE8"/>
<circle cx="1004.18" cy="336.602" r="0.73958" transform="rotate(-75 1004.18 336.602)" fill="#D9ECE8"/>
<circle cx="1034.45" cy="300.32" r="0.267292" transform="rotate(105 1034.45 300.32)" fill="#D9ECE8"/>
<ellipse cx="1008.42" cy="321.233" rx="0.245145" ry="0.245145" transform="rotate(-180 1008.42 321.233)" fill="#D9ECE8"/>
<circle cx="1026.71" cy="331.565" r="0.73958" transform="rotate(-180 1026.71 331.565)" fill="#D9ECE8"/>
<circle cx="1040.15" cy="317.163" r="0.73958" transform="rotate(-75 1040.15 317.163)" fill="#D9ECE8"/>
<path d="M942.574 244.34H1049.74V360.887H942.574V244.34Z" fill="url(#paint28_radial_1183_96513)"/>
<g filter="url(#filter9_f_1183_96513)">
<ellipse cx="1008.13" cy="136.875" rx="236.421" ry="107.725" fill="url(#paint29_linear_1183_96513)"/>
</g>
<path fill-rule="evenodd" clip-rule="evenodd" d="M1002.05 298.439H1001.31L987.945 302.574C988.224 321.652 996.968 328.017 1001.31 328.815H1002.05C1012.94 325.368 1015.29 309.885 1015.1 302.574L1002.05 298.439ZM1008.04 313.541C1008.04 316.927 1005.3 319.673 1001.91 319.673C998.524 319.673 995.778 316.927 995.778 313.541C995.778 310.154 998.524 307.408 1001.91 307.408C1005.3 307.408 1008.04 310.154 1008.04 313.541ZM997.414 311.904C997.414 310.695 998.179 309.636 999.356 309.215C999.901 309.021 1000.86 309.069 1001.41 309.318C1002.76 309.931 1003.44 311.533 1002.93 312.931L1002.82 313.245L1003.62 314.072C1004.07 314.528 1004.68 315.163 1004.98 315.484L1005.53 316.067L1005.51 316.625L1005.49 317.183L1004.55 317.203C1003.69 317.221 1003.6 317.211 1003.47 317.078C1003.37 316.983 1003.32 316.839 1003.32 316.662C1003.32 316.328 1003.22 316.22 1002.91 316.22C1002.52 316.22 1002.4 316.113 1002.4 315.789C1002.4 315.4 1002.21 315.221 1001.8 315.221C1001.55 315.221 1001.41 315.17 1001.16 314.971C1000.85 314.735 1000.8 314.722 1000.27 314.722C999.573 314.722 999.19 314.607 998.643 314.235C997.887 313.72 997.414 312.824 997.414 311.904ZM999.913 310.991C999.913 311.307 999.657 311.563 999.341 311.563C999.024 311.563 998.768 311.307 998.768 310.991C998.768 310.674 999.024 310.418 999.341 310.418C999.657 310.418 999.913 310.674 999.913 310.991Z" fill="url(#paint30_linear_1183_96513)"/>
</g>
<rect x="951.886" y="268.249" width="98.8772" height="91.1592" rx="7.59949" stroke="url(#paint31_linear_1183_96513)" stroke-width="0.49029"/>
<g clip-path="url(#clip10_1183_96513)">
<rect x="1064.63" y="268.004" width="99.3675" height="91.6495" rx="7.84464" fill="white"/>
<path d="M1055.57 244.34H1162.73V360.887H1055.57V244.34Z" fill="url(#paint32_radial_1183_96513)"/>
<g filter="url(#filter10_f_1183_96513)">
<ellipse cx="1121.12" cy="136.875" rx="236.421" ry="107.725" fill="url(#paint33_linear_1183_96513)"/>
</g>
</g>
<rect x="1064.88" y="268.249" width="98.8772" height="91.1592" rx="7.59949" stroke="url(#paint34_linear_1183_96513)" stroke-width="0.49029"/>
<g clip-path="url(#clip11_1183_96513)">
<rect x="1177.62" y="268.004" width="99.3675" height="91.6495" rx="7.84464" fill="white"/>
<circle cx="1245.69" cy="303.587" r="0.73958" transform="rotate(-180 1245.69 303.587)" fill="#D9ECE8"/>
<circle cx="1255.49" cy="288.389" r="0.73958" transform="rotate(-180 1255.49 288.389)" fill="#D9ECE8"/>
<ellipse cx="1199.1" cy="292.306" rx="0.245145" ry="0.245145" transform="rotate(-180 1199.1 292.306)" fill="#D9ECE8"/>
<circle cx="1198.62" cy="302.116" r="0.73958" transform="rotate(-180 1198.62 302.116)" fill="#D9ECE8"/>
<ellipse cx="1190.28" cy="303.583" rx="0.245145" ry="0.245145" transform="rotate(-180 1190.28 303.583)" fill="#D9ECE8"/>
<circle cx="1187.83" cy="298.684" r="0.73958" transform="rotate(-180 1187.83 298.684)" fill="#D9ECE8"/>
<circle cx="1188.81" cy="324.669" r="0.73958" transform="rotate(-180 1188.81 324.669)" fill="#D9ECE8"/>
<circle cx="1183.91" cy="315.354" r="0.73958" transform="rotate(-180 1183.91 315.354)" fill="#D9ECE8"/>
<circle cx="1197.64" cy="315.354" r="0.73958" transform="rotate(-180 1197.64 315.354)" fill="#D9ECE8"/>
<circle cx="1221.66" cy="328.102" r="0.73958" transform="rotate(-180 1221.66 328.102)" fill="#D9ECE8"/>
<circle cx="1208.42" cy="326.141" r="0.73958" transform="rotate(-180 1208.42 326.141)" fill="#D9ECE8"/>
<ellipse cx="1247.15" cy="339.864" rx="0.245145" ry="0.245145" transform="rotate(-180 1247.15 339.864)" fill="#D9ECE8"/>
<ellipse rx="0.245145" ry="0.245145" transform="matrix(-1 -8.18178e-08 -8.18178e-08 1 1202.05 334.47)" fill="#D9ECE8"/>
<ellipse rx="0.245145" ry="0.245145" transform="matrix(-1 -8.18178e-08 -8.18178e-08 1 1210.38 328.587)" fill="#D9ECE8"/>
<ellipse rx="0.245145" ry="0.245145" transform="matrix(-1 -8.18178e-08 -8.18178e-08 1 1204.01 327.116)" fill="#D9ECE8"/>
<circle cx="1251.25" cy="325.325" r="0.73958" transform="rotate(-75 1251.25 325.325)" fill="#D9ECE8"/>
<circle cx="1230.16" cy="336.602" r="0.73958" transform="rotate(-75 1230.16 336.602)" fill="#D9ECE8"/>
<circle cx="1260.44" cy="300.32" r="0.267292" transform="rotate(105 1260.44 300.32)" fill="#D9ECE8"/>
<ellipse cx="1234.4" cy="321.233" rx="0.245145" ry="0.245145" transform="rotate(-180 1234.4 321.233)" fill="#D9ECE8"/>
<circle cx="1252.7" cy="331.565" r="0.73958" transform="rotate(-180 1252.7 331.565)" fill="#D9ECE8"/>
<circle cx="1266.14" cy="317.163" r="0.73958" transform="rotate(-75 1266.14 317.163)" fill="#D9ECE8"/>
<path d="M1168.56 244.34H1275.72V360.887H1168.56V244.34Z" fill="url(#paint35_radial_1183_96513)"/>
<g filter="url(#filter11_f_1183_96513)">
<ellipse cx="1234.11" cy="136.875" rx="236.421" ry="107.725" fill="url(#paint36_linear_1183_96513)"/>
</g>
<path fill-rule="evenodd" clip-rule="evenodd" d="M1230.73 298.333C1230.77 298.318 1230.83 298.297 1230.91 298.272C1231.09 298.215 1231.37 298.134 1231.72 298.052C1232.43 297.886 1233.46 297.709 1234.64 297.698C1237 297.676 1240.01 298.321 1242.19 301.11L1242.19 301.11C1242.66 301.71 1242.82 302.676 1242.81 303.764C1242.79 304.88 1242.58 306.229 1242.2 307.693C1241.47 310.534 1240.08 313.862 1238.13 316.834C1238.39 317.022 1239.21 317.364 1241.54 316.883C1241.77 316.835 1241.98 316.811 1242.16 316.817C1242.33 316.823 1242.54 316.858 1242.71 316.988C1242.91 317.143 1242.99 317.373 1242.96 317.588C1242.95 317.773 1242.86 317.937 1242.78 318.062C1242.61 318.319 1242.33 318.584 1242 318.828C1241.67 319.077 1241.26 319.324 1240.8 319.534C1240.03 319.894 1238.83 320.104 1237.82 320.115C1237.64 320.117 1237.46 320.112 1237.29 320.101C1237.21 320.129 1237.12 320.136 1237.03 320.116C1236.7 320.043 1236.55 320.051 1236.48 320.068C1236.48 320.069 1236.48 320.069 1236.48 320.069C1236.47 320.07 1236.45 320.072 1236.42 320.146C1236.38 320.265 1236.34 320.463 1236.3 320.809C1236.29 320.923 1236.28 321.055 1236.26 321.201C1236.24 321.458 1236.21 321.759 1236.17 322.08C1236.17 322.111 1236.16 322.143 1236.15 322.173L1235.96 322.735C1235.95 323.395 1235.88 323.703 1235.79 324.022L1235.78 324.064C1235.7 324.334 1235.62 324.625 1235.57 325.294L1235.57 325.294C1235.48 326.426 1235.11 327.373 1234.43 328.105C1233.75 328.832 1232.79 329.303 1231.6 329.559C1230.87 329.716 1230.26 329.71 1229.75 329.57C1229.24 329.429 1228.86 329.158 1228.57 328.834C1228.29 328.516 1228.11 328.154 1227.99 327.833C1227.92 327.672 1227.87 327.517 1227.83 327.38L1227.8 327.292L1227.8 327.292C1227.76 327.19 1227.74 327.104 1227.71 327.027C1227.36 326.072 1227.39 324.881 1227.44 323.345L1227.44 323.261C1227.46 322.483 1227.41 321.665 1227.3 321.01C1227.24 320.699 1227.18 320.436 1227.11 320.236C1227.08 320.264 1227.05 320.29 1227.02 320.312C1226.77 320.513 1226.06 320.918 1225.19 321.17C1224.32 321.422 1223.19 321.549 1222.18 321.064C1221.82 320.897 1221.55 320.753 1221.35 320.625C1221.26 320.562 1221.16 320.495 1221.09 320.423C1221.02 320.357 1220.93 320.258 1220.88 320.124C1220.81 319.967 1220.81 319.781 1220.91 319.611C1220.99 319.468 1221.11 319.388 1221.19 319.345C1221.34 319.26 1221.53 319.211 1221.69 319.175C1221.84 319.142 1221.99 319.115 1222.14 319.087C1222.38 319.042 1222.63 318.996 1222.91 318.923C1223.34 318.81 1223.7 318.662 1223.95 318.455C1224.36 318.1 1224.66 317.818 1224.88 317.604C1224.88 317.567 1224.87 317.53 1224.87 317.493C1224.2 317.477 1223.56 317.298 1223 316.992L1222.93 317.058C1222.79 317.214 1222.58 317.439 1222.32 317.72C1221.81 318.281 1221.12 319.06 1220.4 319.933C1219.85 320.59 1219.25 320.974 1218.59 321.002C1217.93 321.03 1217.35 320.699 1216.86 320.225C1215.9 319.289 1215.07 317.582 1214.39 315.737C1213.71 313.87 1213.15 311.78 1212.75 310.009C1212.36 308.247 1212.11 306.763 1212.08 306.114C1211.94 303.184 1212.61 301.215 1213.8 299.958C1214.98 298.704 1216.6 298.239 1218.16 298.149C1219.73 298.059 1221.3 298.341 1222.46 298.639C1223.04 298.789 1223.53 298.944 1223.88 299.062C1223.98 299.096 1224.06 299.126 1224.13 299.153C1225.25 298.345 1226.62 298.06 1227.9 298.03C1228.92 298.005 1229.92 298.144 1230.73 298.333ZM1224.53 300.082C1224.54 300.075 1224.55 300.068 1224.56 300.06C1225.48 299.328 1226.69 299.04 1227.92 299.01C1229.29 298.977 1230.61 299.267 1231.4 299.544C1232.24 299.898 1233.56 300.663 1234.73 301.798C1235.78 302.81 1236.69 304.09 1237.08 305.609C1235.47 305.456 1234.37 305.747 1233.73 306.476C1233.01 307.302 1233.06 308.496 1233.33 309.577C1233.61 310.689 1234.16 311.859 1234.65 312.802C1234.88 313.256 1235.11 313.665 1235.3 313.994L1235.32 314.037C1235.52 314.389 1235.64 314.612 1235.68 314.718C1235.97 315.414 1236.33 315.901 1236.62 316.265C1236.66 316.315 1236.69 316.361 1236.73 316.404L1236.73 316.404C1236.83 316.524 1236.9 316.62 1236.97 316.713L1236.97 316.721L1236.96 316.723C1236.86 316.753 1236.73 316.793 1236.6 316.853C1236.33 316.977 1236.03 317.185 1235.82 317.565C1235.62 317.934 1235.53 318.419 1235.57 319.05C1235.58 319.226 1235.63 319.372 1235.72 319.491C1235.65 319.58 1235.59 319.681 1235.55 319.789C1235.44 320.047 1235.4 320.372 1235.36 320.707C1235.35 320.845 1235.33 320.987 1235.32 321.137C1235.3 321.37 1235.27 321.624 1235.24 321.92L1235.04 322.505C1235.03 322.551 1235.02 322.6 1235.02 322.648C1235.01 323.269 1234.95 323.506 1234.87 323.771L1234.86 323.806C1234.78 324.111 1234.68 324.463 1234.62 325.221C1234.55 326.186 1234.25 326.915 1233.74 327.458C1233.23 328.004 1232.47 328.405 1231.4 328.634C1230.77 328.767 1230.33 328.747 1230 328.658C1229.68 328.57 1229.46 328.409 1229.28 328.21C1229.11 328.006 1228.98 327.755 1228.87 327.485C1228.82 327.351 1228.77 327.217 1228.73 327.084L1228.7 327.007C1228.67 326.903 1228.63 326.795 1228.6 326.7C1228.32 325.94 1228.34 324.941 1228.39 323.289C1228.41 322.453 1228.35 321.573 1228.23 320.853C1228.17 320.494 1228.09 320.163 1228 319.892C1227.94 319.736 1227.87 319.563 1227.77 319.413C1227.79 319.368 1227.82 319.321 1227.84 319.273C1227.94 319.024 1228 318.729 1227.96 318.409C1227.92 318.086 1227.78 317.771 1227.53 317.48C1227.15 317.05 1226.74 316.834 1226.35 316.783C1226.18 316.761 1226.03 316.77 1225.89 316.801C1225.9 316.744 1225.91 316.685 1225.93 316.624C1226.02 316.296 1226.15 315.943 1226.3 315.541L1226.38 315.35C1226.46 315.135 1226.55 314.932 1226.65 314.702L1226.65 314.702C1226.71 314.567 1226.78 314.424 1226.85 314.263C1227.02 313.846 1227.21 313.368 1227.34 312.784C1227.6 311.611 1227.66 310.064 1227.16 307.769L1227.16 307.769C1226.95 306.793 1226.41 306.194 1225.69 305.916C1225.01 305.652 1224.23 305.703 1223.54 305.863C1222.86 306.018 1222.22 306.289 1221.73 306.555C1221.81 305.854 1221.95 305.015 1222.2 304.152C1222.6 302.754 1223.25 301.344 1224.23 300.352C1224.33 300.256 1224.43 300.166 1224.53 300.082ZM1223.33 299.878C1223.03 299.78 1222.66 299.667 1222.23 299.556C1221.11 299.27 1219.65 299.012 1218.22 299.094C1216.79 299.176 1215.44 299.595 1214.49 300.607C1213.53 301.616 1212.89 303.296 1213.03 306.066C1213.06 306.629 1213.28 308.046 1213.67 309.802C1214.06 311.548 1214.62 313.594 1215.28 315.41C1215.96 317.248 1216.73 318.773 1217.52 319.546C1217.91 319.926 1218.25 320.069 1218.55 320.057C1218.84 320.044 1219.21 319.874 1219.67 319.328C1220.41 318.442 1221.11 317.652 1221.62 317.083C1221.86 316.821 1222.06 316.605 1222.21 316.449C1221.02 315.432 1220.33 313.785 1220.57 312.007C1220.8 310.369 1220.72 308.956 1220.67 308.155C1220.66 307.924 1220.65 307.744 1220.65 307.624L1220.65 307.624C1220.65 307.563 1220.66 307.507 1220.68 307.457C1220.71 306.579 1220.86 305.258 1221.26 303.882C1221.66 302.496 1222.3 301.011 1223.33 299.878ZM1238.15 306.407C1238.17 306.359 1238.19 306.304 1238.2 306.245C1238.22 306.147 1238.2 306.051 1238.16 305.967C1237.82 303.946 1236.67 302.309 1235.41 301.093C1234.37 300.083 1233.22 299.342 1232.32 298.89C1232.95 298.765 1233.75 298.653 1234.65 298.644C1236.84 298.624 1239.51 299.219 1241.45 301.693C1241.7 302.023 1241.88 302.703 1241.86 303.749C1241.84 304.768 1241.65 306.04 1241.29 307.456C1240.61 310.087 1239.34 313.161 1237.57 315.946C1237.53 315.895 1237.49 315.844 1237.45 315.793L1237.45 315.793L1237.45 315.793C1237.44 315.775 1237.42 315.758 1237.41 315.741C1237.87 315.051 1238.05 314.147 1238.1 313.276C1238.16 312.287 1238.07 311.251 1237.96 310.418C1237.81 309.269 1238 307.391 1238.15 306.407ZM1237.13 306.566C1235.55 306.391 1234.79 306.699 1234.44 307.099C1234.05 307.549 1233.99 308.318 1234.25 309.348C1234.5 310.348 1235 311.437 1235.49 312.365C1235.72 312.807 1235.94 313.205 1236.12 313.535L1236.15 313.586C1236.33 313.904 1236.49 314.187 1236.56 314.357C1236.63 314.532 1236.71 314.691 1236.79 314.837C1236.98 314.399 1237.08 313.843 1237.12 313.214C1237.18 312.318 1237.1 311.354 1236.99 310.547C1236.83 309.377 1236.99 307.63 1237.13 306.566ZM1226.06 317.767C1225.98 317.876 1225.86 318.013 1225.7 318.177C1225.45 318.425 1225.09 318.762 1224.58 319.199C1224.17 319.554 1223.63 319.748 1223.15 319.872C1222.88 319.942 1222.59 320.001 1222.33 320.049C1222.41 320.089 1222.5 320.132 1222.6 320.178C1223.3 320.514 1224.15 320.45 1224.91 320.228C1225.68 320.006 1226.27 319.654 1226.42 319.542C1226.58 319.413 1226.82 319.169 1226.93 318.895C1226.98 318.765 1227.01 318.644 1226.99 318.53C1226.98 318.42 1226.93 318.285 1226.79 318.127C1226.54 317.839 1226.34 317.77 1226.22 317.755C1226.16 317.747 1226.11 317.753 1226.08 317.762C1226.07 317.764 1226.07 317.765 1226.06 317.767ZM1221.75 319.698L1221.75 319.7L1221.75 319.699L1221.75 319.698ZM1225.02 316.371C1225 316.429 1224.99 316.488 1224.97 316.548C1222.94 316.541 1221.17 314.556 1221.51 312.138C1221.76 310.373 1221.66 308.761 1221.62 308.01C1221.61 307.913 1221.6 307.831 1221.6 307.764C1221.61 307.756 1221.62 307.747 1221.63 307.737C1221.74 307.651 1221.91 307.538 1222.12 307.417C1222.56 307.175 1223.15 306.924 1223.75 306.786C1224.36 306.645 1224.92 306.633 1225.35 306.799C1225.75 306.951 1226.09 307.274 1226.24 307.969C1226.71 310.161 1226.64 311.565 1226.42 312.575C1226.3 313.082 1226.14 313.503 1225.98 313.889C1225.92 314.014 1225.86 314.142 1225.81 314.271L1225.81 314.271L1225.81 314.271C1225.69 314.522 1225.58 314.778 1225.49 315.02L1225.49 315.02L1225.42 315.206C1225.27 315.604 1225.12 316 1225.02 316.371ZM1221.55 307.817C1221.54 307.83 1221.53 307.831 1221.54 307.819L1221.55 307.817ZM1224.2 307.559C1224.18 307.713 1224.49 308.127 1224.89 308.182C1225.28 308.237 1225.62 307.914 1225.64 307.76C1225.67 307.605 1225.36 307.434 1224.96 307.379C1224.57 307.323 1224.23 307.404 1224.2 307.559H1224.2ZM1235.63 307.866C1236.03 307.811 1236.33 307.397 1236.31 307.243V307.243C1236.29 307.088 1235.95 307.007 1235.55 307.063C1235.15 307.118 1234.85 307.289 1234.87 307.444C1234.89 307.598 1235.23 307.921 1235.63 307.866ZM1237.29 317.615L1237.29 317.615L1237.29 317.615L1237.29 317.615C1237.27 317.621 1237.25 317.627 1237.23 317.632C1237.14 317.658 1237.06 317.683 1236.99 317.716C1236.85 317.778 1236.74 317.862 1236.65 318.018C1236.57 318.179 1236.48 318.461 1236.51 318.958C1236.53 318.977 1236.59 319.012 1236.72 319.052C1236.97 319.131 1237.35 319.173 1237.81 319.168C1238.73 319.158 1239.79 318.961 1240.41 318.675C1240.8 318.491 1241.16 318.278 1241.44 318.069C1241.56 317.976 1241.67 317.887 1241.75 317.806L1241.73 317.81C1239.24 318.324 1238.06 318.005 1237.5 317.55C1237.44 317.573 1237.36 317.596 1237.29 317.615ZM1236.49 318.944C1236.5 318.944 1236.5 318.946 1236.5 318.95C1236.5 318.946 1236.49 318.944 1236.49 318.944Z" fill="url(#paint37_linear_1183_96513)"/>
</g>
<rect x="1177.87" y="268.249" width="98.8772" height="91.1592" rx="7.59949" stroke="url(#paint38_linear_1183_96513)" stroke-width="0.49029"/>
<g clip-path="url(#clip12_1183_96513)">
<rect x="1290.62" y="268.004" width="99.3675" height="91.6495" rx="7.84464" fill="white"/>
<path d="M1281.56 244.34H1388.72V360.887H1281.56V244.34Z" fill="url(#paint39_radial_1183_96513)"/>
<g filter="url(#filter12_f_1183_96513)">
<ellipse cx="1347.11" cy="136.875" rx="236.421" ry="107.725" fill="url(#paint40_linear_1183_96513)"/>
</g>
</g>
<rect x="1290.87" y="268.249" width="98.8772" height="91.1592" rx="7.59949" stroke="url(#paint41_linear_1183_96513)" stroke-width="0.49029"/>
<g clip-path="url(#clip13_1183_96513)">
<rect x="421.082" y="62.5098" width="99.3675" height="91.6495" rx="7.84464" fill="white"/>
<path d="M412.016 38.8457H519.178V155.393H412.016V38.8457Z" fill="url(#paint42_radial_1183_96513)"/>
</g>
<rect x="421.327" y="62.7549" width="98.8772" height="91.1592" rx="7.59949" stroke="url(#paint43_linear_1183_96513)" stroke-width="0.49029"/>
<g clip-path="url(#clip14_1183_96513)">
<rect x="534.078" y="62.5098" width="99.3675" height="91.6495" rx="7.84464" fill="white"/>
<path d="M525.012 38.8457H632.174V155.393H525.012V38.8457Z" fill="url(#paint44_radial_1183_96513)"/>
<g filter="url(#filter13_f_1183_96513)">
<ellipse cx="590.562" cy="-68.6189" rx="236.421" ry="107.725" fill="url(#paint45_linear_1183_96513)"/>
</g>
</g>
<rect x="534.323" y="62.7549" width="98.8772" height="91.1592" rx="7.59949" stroke="url(#paint46_linear_1183_96513)" stroke-width="0.49029"/>
<rect x="647.074" y="62.5098" width="99.3675" height="91.6495" rx="7.84464" fill="white"/>
<g clip-path="url(#clip15_1183_96513)">
<rect x="866.516" y="62.5098" width="99.3675" height="91.6495" rx="7.84464" fill="white"/>
<circle cx="934.569" cy="98.0944" r="0.73958" transform="rotate(-180 934.569 98.0944)" fill="#D9ECE8"/>
<circle cx="944.374" cy="82.8971" r="0.73958" transform="rotate(-180 944.374 82.8971)" fill="#D9ECE8"/>
<ellipse cx="887.985" cy="86.8134" rx="0.245145" ry="0.245145" transform="rotate(-180 887.985 86.8134)" fill="#D9ECE8"/>
<circle cx="887.503" cy="96.6237" r="0.73958" transform="rotate(-180 887.503 96.6237)" fill="#D9ECE8"/>
<ellipse cx="879.161" cy="98.0908" rx="0.245145" ry="0.245145" transform="rotate(-180 879.161 98.0908)" fill="#D9ECE8"/>
<circle cx="876.714" cy="93.1921" r="0.73958" transform="rotate(-180 876.714 93.1921)" fill="#D9ECE8"/>
<circle cx="877.694" cy="119.176" r="0.73958" transform="rotate(-180 877.694 119.176)" fill="#D9ECE8"/>
<circle cx="872.792" cy="109.862" r="0.73958" transform="rotate(-180 872.792 109.862)" fill="#D9ECE8"/>
<circle cx="886.522" cy="109.862" r="0.73958" transform="rotate(-180 886.522 109.862)" fill="#D9ECE8"/>
<circle cx="910.542" cy="122.61" r="0.73958" transform="rotate(-180 910.542 122.61)" fill="#D9ECE8"/>
<circle cx="897.303" cy="120.649" r="0.73958" transform="rotate(-180 897.303 120.649)" fill="#D9ECE8"/>
<ellipse cx="936.032" cy="134.372" rx="0.245145" ry="0.245145" transform="rotate(-180 936.032 134.372)" fill="#D9ECE8"/>
<ellipse rx="0.245145" ry="0.245145" transform="matrix(-1 -8.18178e-08 -8.18178e-08 1 890.931 128.978)" fill="#D9ECE8"/>
<ellipse rx="0.245145" ry="0.245145" transform="matrix(-1 -8.18178e-08 -8.18178e-08 1 899.267 123.095)" fill="#D9ECE8"/>
<ellipse rx="0.245145" ry="0.245145" transform="matrix(-1 -8.18178e-08 -8.18178e-08 1 892.892 121.624)" fill="#D9ECE8"/>
<circle cx="940.128" cy="119.833" r="0.73958" transform="rotate(-75 940.128 119.833)" fill="#D9ECE8"/>
<circle cx="919.046" cy="131.11" r="0.73958" transform="rotate(-75 919.046 131.11)" fill="#D9ECE8"/>
<circle cx="949.325" cy="94.8277" r="0.267292" transform="rotate(105 949.325 94.8277)" fill="#D9ECE8"/>
<ellipse cx="923.286" cy="115.741" rx="0.245145" ry="0.245145" transform="rotate(-180 923.286 115.741)" fill="#D9ECE8"/>
<circle cx="941.585" cy="126.073" r="0.73958" transform="rotate(-180 941.585 126.073)" fill="#D9ECE8"/>
<circle cx="955.019" cy="111.67" r="0.73958" transform="rotate(-75 955.019 111.67)" fill="#D9ECE8"/>
<path d="M857.449 38.8457H964.612V155.393H857.449V38.8457Z" fill="url(#paint47_radial_1183_96513)"/>
<g filter="url(#filter14_f_1183_96513)">
<ellipse cx="923.004" cy="-68.6189" rx="236.421" ry="107.725" fill="url(#paint48_linear_1183_96513)"/>
</g>
<path fill-rule="evenodd" clip-rule="evenodd" d="M928.024 94.8848C928.856 94.8848 929.626 95.3318 930.017 96.0584C930.39 96.7544 930.375 97.5746 929.975 98.2554L929.962 98.2783L926.461 104.093C926.065 104.75 925.35 105.161 924.587 105.169L924.562 105.17L920.564 105.17L922.226 108.946L922.232 108.957L922.243 108.975C922.634 109.678 922.624 110.512 922.219 111.204L922.205 111.227L918.704 117.042C918.308 117.699 917.594 118.11 916.83 118.118L916.805 118.118L911.899 118.118L908.371 121.812L908.365 121.819C908.033 122.154 907.584 122.341 907.117 122.341C907 122.341 906.883 122.329 906.767 122.306C906.197 122.19 905.723 121.802 905.495 121.266L905.489 121.25L903.632 117.02L903.623 117.003L903.613 116.986C903.611 116.983 903.609 116.98 903.607 116.977C903.216 116.275 903.226 115.44 903.631 114.748L903.645 114.725L907.04 109.085L904.538 103.398L904.584 103.375L904.584 103.372C904.478 102.849 904.563 102.303 904.835 101.825L904.85 101.799L904.864 101.776L908.364 95.9615C908.76 95.304 909.475 94.8937 910.239 94.8848H910.264H928.024ZM909.643 118.074L905.924 118.074L907.016 120.583L907.019 120.59C907.037 120.635 907.066 120.66 907.11 120.668C907.149 120.676 907.18 120.668 907.21 120.641L907.215 120.636L909.643 118.074ZM920.276 109.448H909.033C909.021 109.448 909.008 109.448 908.996 109.449L908.992 109.449L912.075 116.451H916.804C916.999 116.451 917.186 116.348 917.293 116.182L917.301 116.168L920.807 110.35C920.911 110.176 920.923 109.975 920.84 109.794C920.744 109.585 920.523 109.448 920.276 109.448ZM907.864 110.885L905.082 115.542C904.971 115.727 904.965 115.944 905.064 116.135L905.075 116.155L905.08 116.164L905.091 116.182L905.114 116.215L905.138 116.247L905.162 116.274L905.166 116.279L905.182 116.295L905.196 116.308C905.284 116.387 905.392 116.435 905.511 116.447L905.538 116.45L905.554 116.451L905.573 116.451H910.294L907.864 110.885ZM907.133 105.181L908.355 107.964L908.379 107.956C908.59 107.885 908.81 107.847 909.033 107.844L909.067 107.844L919.965 107.844L918.796 105.181L907.133 105.181ZM927.993 96.508H916.71L919.794 103.511H924.521C924.716 103.511 924.904 103.408 925.01 103.242L925.019 103.228L928.525 97.4102C928.629 97.2367 928.641 97.0354 928.558 96.8544C928.464 96.6497 928.25 96.5139 928.009 96.5082L927.993 96.508ZM914.983 96.508H910.282C910.088 96.508 909.902 96.6112 909.796 96.777L909.787 96.7906L906.291 102.609C906.186 102.782 906.175 102.984 906.257 103.165C906.351 103.37 906.564 103.505 906.803 103.511L906.819 103.511H918.059L914.983 96.508Z" fill="url(#paint49_linear_1183_96513)"/>
</g>
<rect x="866.761" y="62.7549" width="98.8772" height="91.1592" rx="7.59949" stroke="url(#paint50_linear_1183_96513)" stroke-width="0.49029"/>
<g clip-path="url(#clip16_1183_96513)">
<rect x="902.941" y="164.652" width="99.3675" height="91.6495" rx="7.84464" fill="white"/>
<path d="M893.879 140.988H1001.04V257.536H893.879V140.988Z" fill="url(#paint51_radial_1183_96513)"/>
<g filter="url(#filter15_f_1183_96513)">
<ellipse cx="959.429" cy="33.5236" rx="236.421" ry="107.725" fill="url(#paint52_linear_1183_96513)"/>
</g>
</g>
<rect x="903.187" y="164.897" width="98.8772" height="91.1592" rx="7.59949" stroke="url(#paint53_linear_1183_96513)" stroke-width="0.49029"/>
<g clip-path="url(#clip17_1183_96513)">
<rect x="980.812" y="62.5098" width="99.3675" height="91.6495" rx="7.84464" fill="white"/>
<path d="M971.754 38.8457H1078.92V155.393H971.754V38.8457Z" fill="url(#paint54_radial_1183_96513)"/>
<g filter="url(#filter16_f_1183_96513)">
<ellipse cx="1037.3" cy="-68.6189" rx="236.421" ry="107.725" fill="url(#paint55_linear_1183_96513)"/>
</g>
</g>
<rect x="981.058" y="62.7549" width="98.8772" height="91.1592" rx="7.59949" stroke="url(#paint56_linear_1183_96513)" stroke-width="0.49029"/>
<g clip-path="url(#clip18_1183_96513)">
<rect x="1099.05" y="62.5098" width="99.3675" height="91.6495" rx="7.84464" fill="white"/>
<circle cx="1167.1" cy="98.0944" r="0.73958" transform="rotate(-180 1167.1 98.0944)" fill="#D9ECE8"/>
<circle cx="1176.91" cy="82.8971" r="0.73958" transform="rotate(-180 1176.91 82.8971)" fill="#D9ECE8"/>
<ellipse cx="1120.52" cy="86.8134" rx="0.245145" ry="0.245145" transform="rotate(-180 1120.52 86.8134)" fill="#D9ECE8"/>
<circle cx="1120.04" cy="96.6237" r="0.73958" transform="rotate(-180 1120.04 96.6237)" fill="#D9ECE8"/>
<ellipse cx="1111.7" cy="98.0908" rx="0.245145" ry="0.245145" transform="rotate(-180 1111.7 98.0908)" fill="#D9ECE8"/>
<circle cx="1109.25" cy="93.1921" r="0.73958" transform="rotate(-180 1109.25 93.1921)" fill="#D9ECE8"/>
<circle cx="1110.23" cy="119.176" r="0.73958" transform="rotate(-180 1110.23 119.176)" fill="#D9ECE8"/>
<circle cx="1105.33" cy="109.862" r="0.73958" transform="rotate(-180 1105.33 109.862)" fill="#D9ECE8"/>
<circle cx="1119.06" cy="109.862" r="0.73958" transform="rotate(-180 1119.06 109.862)" fill="#D9ECE8"/>
<circle cx="1143.08" cy="122.61" r="0.73958" transform="rotate(-180 1143.08 122.61)" fill="#D9ECE8"/>
<circle cx="1129.84" cy="120.649" r="0.73958" transform="rotate(-180 1129.84 120.649)" fill="#D9ECE8"/>
<ellipse cx="1168.57" cy="134.372" rx="0.245145" ry="0.245145" transform="rotate(-180 1168.57 134.372)" fill="#D9ECE8"/>
<ellipse rx="0.245145" ry="0.245145" transform="matrix(-1 -8.18178e-08 -8.18178e-08 1 1123.47 128.978)" fill="#D9ECE8"/>
<ellipse rx="0.245145" ry="0.245145" transform="matrix(-1 -8.18178e-08 -8.18178e-08 1 1131.8 123.095)" fill="#D9ECE8"/>
<ellipse rx="0.245145" ry="0.245145" transform="matrix(-1 -8.18178e-08 -8.18178e-08 1 1125.43 121.624)" fill="#D9ECE8"/>
<circle cx="1172.66" cy="119.833" r="0.73958" transform="rotate(-75 1172.66 119.833)" fill="#D9ECE8"/>
<circle cx="1151.58" cy="131.11" r="0.73958" transform="rotate(-75 1151.58 131.11)" fill="#D9ECE8"/>
<circle cx="1181.86" cy="94.8277" r="0.267292" transform="rotate(105 1181.86 94.8277)" fill="#D9ECE8"/>
<ellipse cx="1155.82" cy="115.741" rx="0.245145" ry="0.245145" transform="rotate(-180 1155.82 115.741)" fill="#D9ECE8"/>
<circle cx="1174.12" cy="126.073" r="0.73958" transform="rotate(-180 1174.12 126.073)" fill="#D9ECE8"/>
<circle cx="1187.55" cy="111.67" r="0.73958" transform="rotate(-75 1187.55 111.67)" fill="#D9ECE8"/>
<path d="M1089.98 38.8457H1197.15V155.393H1089.98V38.8457Z" fill="url(#paint57_radial_1183_96513)"/>
<g filter="url(#filter17_f_1183_96513)">
<ellipse cx="1155.54" cy="-68.6189" rx="236.421" ry="107.725" fill="url(#paint58_linear_1183_96513)"/>
</g>
<path fill-rule="evenodd" clip-rule="evenodd" d="M1154.17 93.3054C1154.53 93.3 1155.02 93.3268 1155.27 93.3589C1155.52 93.3856 1155.91 93.4498 1156.13 93.4926C1156.35 93.5354 1156.77 93.6531 1157.06 93.7547C1157.36 93.8563 1157.81 94.0328 1158.08 94.1559C1158.35 94.2789 1158.74 94.4875 1158.96 94.6266C1159.18 94.7656 1159.54 95.0117 1159.76 95.1775C1159.98 95.338 1160.39 95.691 1160.67 95.9531C1160.94 96.2152 1161.33 96.6217 1161.53 96.8571C1161.73 97.0924 1162.03 97.5043 1162.21 97.7664C1162.39 98.0285 1162.68 98.5366 1162.86 98.8897C1163.03 99.2427 1163.27 99.8097 1163.37 100.147C1163.48 100.484 1163.62 101.051 1163.68 101.404C1163.77 101.955 1163.79 102.19 1163.76 103.062C1163.74 103.811 1163.7 104.223 1163.62 104.613C1163.56 104.907 1163.42 105.399 1163.31 105.71C1163.2 106.02 1162.99 106.528 1162.83 106.849C1162.67 107.164 1162.43 107.598 1162.29 107.806C1162.16 108.02 1161.91 108.363 1161.75 108.571C1161.59 108.78 1161.3 109.112 1161.11 109.315C1160.91 109.518 1160.54 109.866 1160.27 110.085C1160 110.31 1159.63 110.599 1159.42 110.727C1159.21 110.861 1158.75 111.107 1158.4 111.278C1158.05 111.449 1157.57 111.647 1156.9 111.861L1156.86 112.385C1156.83 112.669 1156.77 113.182 1156.71 113.519C1156.66 113.856 1156.55 114.353 1156.48 114.616C1156.41 114.878 1156.26 115.338 1156.15 115.632C1156.04 115.926 1155.81 116.456 1155.63 116.809C1155.45 117.162 1155.14 117.702 1154.93 118.012C1154.73 118.322 1154.34 118.836 1154.07 119.157C1153.81 119.478 1153.39 119.922 1153.16 120.141C1152.92 120.36 1152.5 120.708 1152.22 120.922C1151.94 121.136 1151.47 121.452 1151.18 121.623C1150.88 121.794 1150.42 122.04 1150.16 122.163C1149.9 122.291 1149.39 122.489 1149.04 122.607C1148.69 122.725 1148.15 122.869 1147.85 122.928C1147.55 122.992 1147.08 123.062 1146.81 123.094C1146.54 123.12 1146.02 123.147 1145.67 123.147C1145.32 123.147 1144.82 123.12 1144.57 123.094C1144.32 123.062 1143.88 122.987 1143.58 122.928C1143.29 122.874 1142.73 122.725 1142.35 122.602C1141.97 122.479 1141.33 122.216 1140.94 122.019C1140.54 121.821 1139.99 121.516 1139.73 121.345C1139.47 121.168 1139.06 120.874 1138.82 120.687C1138.59 120.499 1138.07 120.023 1137.67 119.622C1137.27 119.221 1136.8 118.702 1136.62 118.467C1136.45 118.231 1136.15 117.809 1135.96 117.531C1135.77 117.253 1135.47 116.734 1135.3 116.381C1135.13 116.028 1134.92 115.584 1134.85 115.391C1134.78 115.199 1134.66 114.862 1134.59 114.642C1134.52 114.423 1134.42 114.011 1134.36 113.733C1134.3 113.455 1134.23 113.032 1134.2 112.797C1134.17 112.562 1134.14 111.973 1134.14 111.486C1134.13 110.839 1134.16 110.406 1134.24 109.855C1134.3 109.443 1134.42 108.876 1134.5 108.598C1134.57 108.32 1134.74 107.828 1134.86 107.501C1134.99 107.175 1135.21 106.683 1135.35 106.405C1135.49 106.127 1135.7 105.742 1135.82 105.549C1135.93 105.357 1136.23 104.939 1136.47 104.613C1136.72 104.276 1137.18 103.763 1137.54 103.415C1137.9 103.078 1138.43 102.613 1138.74 102.383C1139.05 102.153 1139.56 101.816 1139.87 101.634C1140.18 101.452 1140.63 101.211 1140.88 101.104C1141.13 100.997 1141.58 100.821 1141.87 100.719C1142.17 100.617 1142.71 100.473 1143.08 100.398C1143.44 100.323 1144.01 100.232 1144.33 100.206C1144.66 100.173 1145.05 100.147 1145.48 100.147L1145.59 99.7562C1145.65 99.5476 1145.86 99.0448 1146.05 98.649C1146.24 98.2531 1146.55 97.6969 1146.74 97.4187C1146.93 97.1406 1147.25 96.7233 1147.45 96.4987C1147.64 96.274 1147.98 95.9317 1148.18 95.7445C1148.39 95.5626 1148.7 95.2952 1148.88 95.1615C1149.06 95.0277 1149.39 94.7977 1149.63 94.6533C1149.86 94.5035 1150.25 94.2949 1150.48 94.1879C1150.72 94.0756 1151.1 93.9152 1151.34 93.8296C1151.57 93.7386 1151.95 93.621 1152.17 93.5675C1152.39 93.5086 1152.79 93.4284 1153.05 93.3856C1153.31 93.3482 1153.82 93.3107 1154.17 93.3054ZM1155.62 95.5676C1156.36 95.5837 1156.6 95.6104 1156.93 95.7013C1157.15 95.7655 1157.52 95.9046 1157.76 96.0116C1157.99 96.1185 1158.38 96.3272 1158.61 96.4823C1158.85 96.632 1159.22 96.9102 1159.43 97.1028C1159.65 97.29 1159.96 97.6163 1160.13 97.8195C1160.3 98.0228 1160.56 98.3598 1160.69 98.5684C1160.82 98.7716 1161.03 99.146 1161.15 99.3974C1161.27 99.6488 1161.43 100.071 1161.51 100.334C1161.64 100.777 1161.66 100.89 1161.66 101.751C1161.66 102.58 1161.65 102.735 1161.54 103.115C1161.47 103.35 1161.3 103.762 1161.18 104.024C1161.05 104.286 1160.8 104.698 1160.63 104.934C1160.45 105.169 1160.14 105.533 1159.92 105.736C1159.7 105.945 1159.38 106.212 1159.2 106.33C1159.03 106.453 1158.74 106.624 1158.56 106.709C1158.38 106.8 1158.08 106.923 1157.89 106.982C1157.7 107.046 1157.2 107.18 1156.77 107.287C1156.34 107.394 1155.85 107.544 1155.68 107.624C1155.48 107.715 1155.28 107.865 1155.14 108.015C1155.02 108.148 1154.84 108.421 1154.55 108.993L1154.52 110.304C1154.49 111.24 1154.46 111.743 1154.39 112.048C1154.34 112.283 1154.23 112.695 1154.14 112.957C1154.06 113.219 1153.87 113.647 1153.74 113.909C1153.59 114.166 1153.32 114.594 1153.13 114.867C1152.94 115.139 1152.55 115.589 1152.27 115.867C1151.99 116.15 1151.55 116.525 1151.28 116.701C1151.02 116.878 1150.62 117.108 1150.4 117.215C1150.18 117.322 1149.84 117.472 1149.63 117.546C1149.42 117.621 1149.11 117.723 1148.93 117.766C1148.76 117.809 1148.39 117.873 1148.13 117.91C1147.84 117.948 1147.34 117.958 1146.9 117.942C1146.49 117.926 1145.97 117.873 1145.75 117.825C1145.53 117.776 1145.12 117.664 1144.84 117.573C1144.56 117.482 1144.15 117.316 1143.92 117.204C1143.69 117.086 1143.36 116.905 1143.19 116.798C1143.03 116.691 1142.71 116.466 1142.49 116.3C1142.27 116.129 1141.86 115.755 1141.58 115.466C1141.3 115.171 1140.95 114.781 1140.81 114.588C1140.67 114.396 1140.42 114.038 1140.27 113.786C1140.11 113.535 1139.89 113.101 1139.77 112.823C1139.65 112.545 1139.51 112.171 1139.45 111.994C1139.39 111.818 1139.3 111.491 1139.25 111.272C1139.2 111.053 1139.15 110.507 1139.13 110.069C1139.12 109.609 1139.13 109.084 1139.16 108.838C1139.19 108.603 1139.28 108.191 1139.36 107.929C1139.43 107.667 1139.6 107.218 1139.74 106.939C1139.87 106.661 1140.12 106.228 1140.29 105.977C1140.47 105.725 1140.83 105.281 1141.11 104.992C1141.38 104.698 1141.79 104.324 1142.01 104.158C1142.22 103.987 1142.64 103.73 1142.91 103.58C1143.19 103.431 1143.62 103.233 1143.85 103.147C1144.09 103.061 1144.43 102.954 1144.63 102.912C1144.82 102.864 1145.14 102.799 1145.35 102.762C1145.56 102.73 1146.26 102.698 1146.93 102.687C1148.08 102.676 1148.15 102.671 1148.56 102.527C1148.79 102.446 1149.08 102.318 1149.2 102.238C1149.34 102.136 1149.45 102.002 1149.53 101.826C1149.59 101.681 1149.7 101.237 1149.76 100.842C1149.83 100.446 1149.93 99.9377 1149.99 99.7184C1150.05 99.4991 1150.18 99.1354 1150.28 98.916C1150.38 98.6967 1150.59 98.3223 1150.75 98.087C1150.91 97.8516 1151.24 97.4558 1151.48 97.2044C1151.72 96.953 1152.09 96.6374 1152.3 96.5037C1152.51 96.3646 1152.82 96.1827 1153 96.0918C1153.17 96.0062 1153.47 95.8832 1153.67 95.819C1153.86 95.7548 1154.17 95.6692 1154.36 95.6264C1154.61 95.5676 1154.96 95.5516 1155.62 95.5676Z" fill="url(#paint59_linear_1183_96513)"/>
</g>
<rect x="1099.3" y="62.7549" width="98.8772" height="91.1592" rx="7.59949" stroke="url(#paint60_linear_1183_96513)" stroke-width="0.49029"/>
<g clip-path="url(#clip19_1183_96513)">
<rect x="1212.05" y="62.5098" width="99.3675" height="91.6495" rx="7.84464" fill="white"/>
<path d="M1202.98 38.8457H1310.14V155.393H1202.98V38.8457Z" fill="url(#paint61_radial_1183_96513)"/>
<g filter="url(#filter18_f_1183_96513)">
<ellipse cx="1268.53" cy="-68.6189" rx="236.421" ry="107.725" fill="url(#paint62_linear_1183_96513)"/>
</g>
</g>
<rect x="1212.29" y="62.7549" width="98.8772" height="91.1592" rx="7.59949" stroke="url(#paint63_linear_1183_96513)" stroke-width="0.49029"/>
<rect x="1325.04" y="62.5098" width="99.3675" height="91.6495" rx="7.84464" fill="white"/>
<g clip-path="url(#clip20_1183_96513)">
<rect x="680.027" y="166.047" width="99.3675" height="91.6495" rx="7.84464" fill="white"/>
<path d="M670.961 142.383H778.123V258.93H670.961V142.383Z" fill="url(#paint64_radial_1183_96513)"/>
<g filter="url(#filter19_f_1183_96513)">
<ellipse cx="736.511" cy="34.9182" rx="236.421" ry="107.725" fill="url(#paint65_linear_1183_96513)"/>
</g>
</g>
<rect x="680.272" y="166.292" width="98.8772" height="91.1592" rx="7.59949" stroke="url(#paint66_linear_1183_96513)" stroke-width="0.49029"/>
<g clip-path="url(#clip21_1183_96513)">
<rect x="1327.08" y="166.047" width="99.3675" height="91.6495" rx="7.84464" fill="white"/>
<path d="M1318.01 142.383H1425.17V258.93H1318.01V142.383Z" fill="url(#paint67_radial_1183_96513)"/>
<g filter="url(#filter20_f_1183_96513)">
<ellipse cx="1383.56" cy="34.9182" rx="236.421" ry="107.725" fill="url(#paint68_linear_1183_96513)"/>
</g>
</g>
<rect x="1327.32" y="166.292" width="98.8772" height="91.1592" rx="7.59949" stroke="url(#paint69_linear_1183_96513)" stroke-width="0.49029"/>
<g clip-path="url(#clip22_1183_96513)">
<rect x="1212.79" y="166.047" width="99.3675" height="91.6495" rx="7.84464" fill="white"/>
<path d="M1203.72 142.383H1310.88V258.93H1203.72V142.383Z" fill="url(#paint70_radial_1183_96513)"/>
<g filter="url(#filter21_f_1183_96513)">
<ellipse cx="1269.27" cy="34.9182" rx="236.421" ry="107.725" fill="url(#paint71_linear_1183_96513)"/>
</g>
</g>
<rect x="1213.03" y="166.292" width="98.8772" height="91.1592" rx="7.59949" stroke="url(#paint72_linear_1183_96513)" stroke-width="0.49029"/>
<g clip-path="url(#clip23_1183_96513)">
<rect x="424.156" y="-43.9961" width="99.3675" height="91.6495" rx="7.84464" fill="white"/>
<path d="M415.078 -67.6602H522.241V48.8871H415.078V-67.6602Z" fill="url(#paint73_radial_1183_96513)"/>
</g>
<rect x="424.401" y="-43.7509" width="98.8772" height="91.1592" rx="7.59949" stroke="url(#paint74_linear_1183_96513)" stroke-width="0.49029"/>
<g clip-path="url(#clip24_1183_96513)">
<rect x="537.156" y="-43.9961" width="99.3675" height="91.6495" rx="7.84464" fill="white"/>
<path d="M528.086 -67.6602H635.248V48.8871H528.086V-67.6602Z" fill="url(#paint75_radial_1183_96513)"/>
</g>
<rect x="537.401" y="-43.7509" width="98.8772" height="91.1592" rx="7.59949" stroke="url(#paint76_linear_1183_96513)" stroke-width="0.49029"/>
<g clip-path="url(#clip25_1183_96513)">
<rect x="650.148" y="-43.9961" width="99.3675" height="91.6495" rx="7.84464" fill="white"/>
<path d="M641.082 -67.6602H748.244V48.8871H641.082V-67.6602Z" fill="url(#paint77_radial_1183_96513)"/>
</g>
<rect x="650.394" y="-43.7509" width="98.8772" height="91.1592" rx="7.59949" stroke="url(#paint78_linear_1183_96513)" stroke-width="0.49029"/>
<g clip-path="url(#clip26_1183_96513)">
<rect x="763.137" y="-43.9961" width="99.3675" height="91.6495" rx="7.84464" fill="white"/>
</g>
<g clip-path="url(#clip27_1183_96513)">
<rect x="876.137" y="-43.9961" width="99.3675" height="91.6495" rx="7.84464" fill="white"/>
<path d="M867.07 -67.6602H974.233V48.8871H867.07V-67.6602Z" fill="url(#paint79_radial_1183_96513)"/>
</g>
<rect x="876.382" y="-43.7509" width="98.8772" height="91.1592" rx="7.59949" stroke="url(#paint80_linear_1183_96513)" stroke-width="0.49029"/>
<g clip-path="url(#clip28_1183_96513)">
<rect x="989.133" y="-43.9961" width="99.3675" height="91.6495" rx="7.84464" fill="white"/>
<path d="M980.062 -67.6602H1087.22V48.8871H980.062V-67.6602Z" fill="url(#paint81_radial_1183_96513)"/>
</g>
<rect x="989.378" y="-43.7509" width="98.8772" height="91.1592" rx="7.59949" stroke="url(#paint82_linear_1183_96513)" stroke-width="0.49029"/>
<g clip-path="url(#clip29_1183_96513)">
<rect x="1102.12" y="-43.9961" width="99.3675" height="91.6495" rx="7.84464" fill="white"/>
</g>
<g clip-path="url(#clip30_1183_96513)">
<rect x="1215.12" y="-43.9961" width="99.3675" height="91.6495" rx="7.84464" fill="white"/>
<path d="M1206.05 -67.6602H1313.21V48.8871H1206.05V-67.6602Z" fill="url(#paint83_radial_1183_96513)"/>
</g>
<rect x="1215.36" y="-43.7509" width="98.8772" height="91.1592" rx="7.59949" stroke="url(#paint84_linear_1183_96513)" stroke-width="0.49029"/>
<g clip-path="url(#clip31_1183_96513)">
<rect x="1328.11" y="-43.9961" width="99.3675" height="91.6495" rx="7.84464" fill="white"/>
<path d="M1319.05 -67.6602H1426.21V48.8871H1319.05V-67.6602Z" fill="url(#paint85_radial_1183_96513)"/>
</g>
<rect x="1328.36" y="-43.7509" width="98.8772" height="91.1592" rx="7.59949" stroke="url(#paint86_linear_1183_96513)" stroke-width="0.49029"/>
<g clip-path="url(#clip32_1183_96513)">
<rect x="1016.96" y="164.652" width="99.3675" height="91.6495" rx="7.84464" fill="white"/>
<circle cx="1085.01" cy="200.235" r="0.73958" transform="rotate(-180 1085.01 200.235)" fill="#D9ECE8"/>
<circle cx="1094.82" cy="185.038" r="0.73958" transform="rotate(-180 1094.82 185.038)" fill="#D9ECE8"/>
<ellipse cx="1038.43" cy="188.954" rx="0.245145" ry="0.245145" transform="rotate(-180 1038.43 188.954)" fill="#D9ECE8"/>
<circle cx="1037.95" cy="198.764" r="0.73958" transform="rotate(-180 1037.95 198.764)" fill="#D9ECE8"/>
<ellipse cx="1029.61" cy="200.231" rx="0.245145" ry="0.245145" transform="rotate(-180 1029.61 200.231)" fill="#D9ECE8"/>
<circle cx="1027.16" cy="195.333" r="0.73958" transform="rotate(-180 1027.16 195.333)" fill="#D9ECE8"/>
<circle cx="1028.14" cy="221.317" r="0.73958" transform="rotate(-180 1028.14 221.317)" fill="#D9ECE8"/>
<circle cx="1023.24" cy="212.003" r="0.73958" transform="rotate(-180 1023.24 212.003)" fill="#D9ECE8"/>
<circle cx="1036.97" cy="212.003" r="0.73958" transform="rotate(-180 1036.97 212.003)" fill="#D9ECE8"/>
<circle cx="1060.99" cy="224.751" r="0.73958" transform="rotate(-180 1060.99 224.751)" fill="#D9ECE8"/>
<circle cx="1047.75" cy="222.79" r="0.73958" transform="rotate(-180 1047.75 222.79)" fill="#D9ECE8"/>
<ellipse cx="1086.48" cy="236.511" rx="0.245145" ry="0.245145" transform="rotate(-180 1086.48 236.511)" fill="#D9ECE8"/>
<ellipse rx="0.245145" ry="0.245145" transform="matrix(-1 -8.18178e-08 -8.18178e-08 1 1041.38 231.118)" fill="#D9ECE8"/>
<ellipse rx="0.245145" ry="0.245145" transform="matrix(-1 -8.18178e-08 -8.18178e-08 1 1049.71 225.235)" fill="#D9ECE8"/>
<ellipse rx="0.245145" ry="0.245145" transform="matrix(-1 -8.18178e-08 -8.18178e-08 1 1043.34 223.765)" fill="#D9ECE8"/>
<circle cx="1090.57" cy="221.973" r="0.73958" transform="rotate(-75 1090.57 221.973)" fill="#D9ECE8"/>
<circle cx="1069.49" cy="233.25" r="0.73958" transform="rotate(-75 1069.49 233.25)" fill="#D9ECE8"/>
<circle cx="1099.77" cy="196.968" r="0.267292" transform="rotate(105 1099.77 196.968)" fill="#D9ECE8"/>
<ellipse cx="1073.73" cy="217.882" rx="0.245145" ry="0.245145" transform="rotate(-180 1073.73 217.882)" fill="#D9ECE8"/>
<circle cx="1092.03" cy="228.214" r="0.73958" transform="rotate(-180 1092.03 228.214)" fill="#D9ECE8"/>
<circle cx="1105.46" cy="213.811" r="0.73958" transform="rotate(-75 1105.46 213.811)" fill="#D9ECE8"/>
<path d="M1007.89 140.988H1115.05V257.536H1007.89V140.988Z" fill="url(#paint87_radial_1183_96513)"/>
<g filter="url(#filter22_f_1183_96513)">
<ellipse cx="1073.44" cy="33.5217" rx="236.421" ry="107.725" fill="url(#paint88_linear_1183_96513)"/>
</g>
<path fill-rule="evenodd" clip-rule="evenodd" d="M1066.73 196.968C1066.72 195.771 1065.2 195.258 1064.46 196.195L1053.2 210.343C1051.87 212.013 1053.06 214.476 1055.2 214.476H1066.84L1066.98 223.593C1067 224.79 1068.51 225.304 1069.25 224.366L1080.51 210.218C1081.84 208.548 1080.65 206.086 1078.51 206.086H1066.79L1066.73 196.968Z" fill="url(#paint89_linear_1183_96513)"/>
</g>
<rect x="1017.2" y="164.897" width="98.8772" height="91.1592" rx="7.59949" stroke="url(#paint90_linear_1183_96513)" stroke-width="0.49029"/>
<rect x="1.21094" y="-2.73242" width="1383.95" height="402.54" fill="url(#paint91_radial_1183_96513)"/>
<defs>
<filter id="filter0_f_1183_96513" x="289.805" y="68.3693" width="605.101" height="347.707" filterUnits="userSpaceOnUse" color-interpolation-filters="sRGB">
<feFlood flood-opacity="0" result="BackgroundImageFix"/>
<feBlend mode="normal" in="SourceGraphic" in2="BackgroundImageFix" result="shape"/>
<feGaussianBlur stdDeviation="33.0644" result="effect1_foregroundBlur_1183_96513"/>
</filter>
<filter id="filter1_f_1183_96513" x="402.805" y="68.3693" width="605.101" height="347.707" filterUnits="userSpaceOnUse" color-interpolation-filters="sRGB">
<feFlood flood-opacity="0" result="BackgroundImageFix"/>
<feBlend mode="normal" in="SourceGraphic" in2="BackgroundImageFix" result="shape"/>
<feGaussianBlur stdDeviation="33.0644" result="effect1_foregroundBlur_1183_96513"/>
</filter>
<filter id="filter2_f_1183_96513" x="740.785" y="68.3693" width="605.101" height="347.707" filterUnits="userSpaceOnUse" color-interpolation-filters="sRGB">
<feFlood flood-opacity="0" result="BackgroundImageFix"/>
<feBlend mode="normal" in="SourceGraphic" in2="BackgroundImageFix" result="shape"/>
<feGaussianBlur stdDeviation="33.0644" result="effect1_foregroundBlur_1183_96513"/>
</filter>
<filter id="filter3_f_1183_96513" x="854.781" y="68.3693" width="605.101" height="347.707" filterUnits="userSpaceOnUse" color-interpolation-filters="sRGB">
<feFlood flood-opacity="0" result="BackgroundImageFix"/>
<feBlend mode="normal" in="SourceGraphic" in2="BackgroundImageFix" result="shape"/>
<feGaussianBlur stdDeviation="33.0644" result="effect1_foregroundBlur_1183_96513"/>
</filter>
<filter id="filter4_f_1183_96513" x="1080.77" y="68.3693" width="605.101" height="347.707" filterUnits="userSpaceOnUse" color-interpolation-filters="sRGB">
<feFlood flood-opacity="0" result="BackgroundImageFix"/>
<feBlend mode="normal" in="SourceGraphic" in2="BackgroundImageFix" result="shape"/>
<feGaussianBlur stdDeviation="33.0644" result="effect1_foregroundBlur_1183_96513"/>
</filter>
<filter id="filter5_f_1183_96513" x="253.586" y="-36.9783" width="605.101" height="347.707" filterUnits="userSpaceOnUse" color-interpolation-filters="sRGB">
<feFlood flood-opacity="0" result="BackgroundImageFix"/>
<feBlend mode="normal" in="SourceGraphic" in2="BackgroundImageFix" result="shape"/>
<feGaussianBlur stdDeviation="33.0644" result="effect1_foregroundBlur_1183_96513"/>
</filter>
<filter id="filter6_f_1183_96513" x="366.586" y="-36.9783" width="605.101" height="347.707" filterUnits="userSpaceOnUse" color-interpolation-filters="sRGB">
<feFlood flood-opacity="0" result="BackgroundImageFix"/>
<feBlend mode="normal" in="SourceGraphic" in2="BackgroundImageFix" result="shape"/>
<feGaussianBlur stdDeviation="33.0644" result="effect1_foregroundBlur_1183_96513"/>
</filter>
<filter id="filter7_f_1183_96513" x="544.391" y="-138.935" width="605.101" height="347.707" filterUnits="userSpaceOnUse" color-interpolation-filters="sRGB">
<feFlood flood-opacity="0" result="BackgroundImageFix"/>
<feBlend mode="normal" in="SourceGraphic" in2="BackgroundImageFix" result="shape"/>
<feGaussianBlur stdDeviation="33.0644" result="effect1_foregroundBlur_1183_96513"/>
</filter>
<filter id="filter8_f_1183_96513" x="592.57" y="-36.9783" width="605.101" height="347.707" filterUnits="userSpaceOnUse" color-interpolation-filters="sRGB">
<feFlood flood-opacity="0" result="BackgroundImageFix"/>
<feBlend mode="normal" in="SourceGraphic" in2="BackgroundImageFix" result="shape"/>
<feGaussianBlur stdDeviation="33.0644" result="effect1_foregroundBlur_1183_96513"/>
</filter>
<filter id="filter9_f_1183_96513" x="705.578" y="-36.9783" width="605.101" height="347.707" filterUnits="userSpaceOnUse" color-interpolation-filters="sRGB">
<feFlood flood-opacity="0" result="BackgroundImageFix"/>
<feBlend mode="normal" in="SourceGraphic" in2="BackgroundImageFix" result="shape"/>
<feGaussianBlur stdDeviation="33.0644" result="effect1_foregroundBlur_1183_96513"/>
</filter>
<filter id="filter10_f_1183_96513" x="818.57" y="-36.9783" width="605.101" height="347.707" filterUnits="userSpaceOnUse" color-interpolation-filters="sRGB">
<feFlood flood-opacity="0" result="BackgroundImageFix"/>
<feBlend mode="normal" in="SourceGraphic" in2="BackgroundImageFix" result="shape"/>
<feGaussianBlur stdDeviation="33.0644" result="effect1_foregroundBlur_1183_96513"/>
</filter>
<filter id="filter11_f_1183_96513" x="931.555" y="-36.9783" width="605.101" height="347.707" filterUnits="userSpaceOnUse" color-interpolation-filters="sRGB">
<feFlood flood-opacity="0" result="BackgroundImageFix"/>
<feBlend mode="normal" in="SourceGraphic" in2="BackgroundImageFix" result="shape"/>
<feGaussianBlur stdDeviation="33.0644" result="effect1_foregroundBlur_1183_96513"/>
</filter>
<filter id="filter12_f_1183_96513" x="1044.56" y="-36.9783" width="605.101" height="347.707" filterUnits="userSpaceOnUse" color-interpolation-filters="sRGB">
<feFlood flood-opacity="0" result="BackgroundImageFix"/>
<feBlend mode="normal" in="SourceGraphic" in2="BackgroundImageFix" result="shape"/>
<feGaussianBlur stdDeviation="33.0644" result="effect1_foregroundBlur_1183_96513"/>
</filter>
<filter id="filter13_f_1183_96513" x="288.012" y="-242.472" width="605.101" height="347.707" filterUnits="userSpaceOnUse" color-interpolation-filters="sRGB">
<feFlood flood-opacity="0" result="BackgroundImageFix"/>
<feBlend mode="normal" in="SourceGraphic" in2="BackgroundImageFix" result="shape"/>
<feGaussianBlur stdDeviation="33.0644" result="effect1_foregroundBlur_1183_96513"/>
</filter>
<filter id="filter14_f_1183_96513" x="620.453" y="-242.472" width="605.101" height="347.707" filterUnits="userSpaceOnUse" color-interpolation-filters="sRGB">
<feFlood flood-opacity="0" result="BackgroundImageFix"/>
<feBlend mode="normal" in="SourceGraphic" in2="BackgroundImageFix" result="shape"/>
<feGaussianBlur stdDeviation="33.0644" result="effect1_foregroundBlur_1183_96513"/>
</filter>
<filter id="filter15_f_1183_96513" x="656.879" y="-140.33" width="605.101" height="347.707" filterUnits="userSpaceOnUse" color-interpolation-filters="sRGB">
<feFlood flood-opacity="0" result="BackgroundImageFix"/>
<feBlend mode="normal" in="SourceGraphic" in2="BackgroundImageFix" result="shape"/>
<feGaussianBlur stdDeviation="33.0644" result="effect1_foregroundBlur_1183_96513"/>
</filter>
<filter id="filter16_f_1183_96513" x="734.754" y="-242.472" width="605.101" height="347.707" filterUnits="userSpaceOnUse" color-interpolation-filters="sRGB">
<feFlood flood-opacity="0" result="BackgroundImageFix"/>
<feBlend mode="normal" in="SourceGraphic" in2="BackgroundImageFix" result="shape"/>
<feGaussianBlur stdDeviation="33.0644" result="effect1_foregroundBlur_1183_96513"/>
</filter>
<filter id="filter17_f_1183_96513" x="852.988" y="-242.472" width="605.101" height="347.707" filterUnits="userSpaceOnUse" color-interpolation-filters="sRGB">
<feFlood flood-opacity="0" result="BackgroundImageFix"/>
<feBlend mode="normal" in="SourceGraphic" in2="BackgroundImageFix" result="shape"/>
<feGaussianBlur stdDeviation="33.0644" result="effect1_foregroundBlur_1183_96513"/>
</filter>
<filter id="filter18_f_1183_96513" x="965.981" y="-242.472" width="605.101" height="347.707" filterUnits="userSpaceOnUse" color-interpolation-filters="sRGB">
<feFlood flood-opacity="0" result="BackgroundImageFix"/>
<feBlend mode="normal" in="SourceGraphic" in2="BackgroundImageFix" result="shape"/>
<feGaussianBlur stdDeviation="33.0644" result="effect1_foregroundBlur_1183_96513"/>
</filter>
<filter id="filter19_f_1183_96513" x="433.961" y="-138.935" width="605.101" height="347.707" filterUnits="userSpaceOnUse" color-interpolation-filters="sRGB">
<feFlood flood-opacity="0" result="BackgroundImageFix"/>
<feBlend mode="normal" in="SourceGraphic" in2="BackgroundImageFix" result="shape"/>
<feGaussianBlur stdDeviation="33.0644" result="effect1_foregroundBlur_1183_96513"/>
</filter>
<filter id="filter20_f_1183_96513" x="1081.01" y="-138.935" width="605.101" height="347.707" filterUnits="userSpaceOnUse" color-interpolation-filters="sRGB">
<feFlood flood-opacity="0" result="BackgroundImageFix"/>
<feBlend mode="normal" in="SourceGraphic" in2="BackgroundImageFix" result="shape"/>
<feGaussianBlur stdDeviation="33.0644" result="effect1_foregroundBlur_1183_96513"/>
</filter>
<filter id="filter21_f_1183_96513" x="966.719" y="-138.935" width="605.101" height="347.707" filterUnits="userSpaceOnUse" color-interpolation-filters="sRGB">
<feFlood flood-opacity="0" result="BackgroundImageFix"/>
<feBlend mode="normal" in="SourceGraphic" in2="BackgroundImageFix" result="shape"/>
<feGaussianBlur stdDeviation="33.0644" result="effect1_foregroundBlur_1183_96513"/>
</filter>
<filter id="filter22_f_1183_96513" x="770.887" y="-140.332" width="605.101" height="347.707" filterUnits="userSpaceOnUse" color-interpolation-filters="sRGB">
<feFlood flood-opacity="0" result="BackgroundImageFix"/>
<feBlend mode="normal" in="SourceGraphic" in2="BackgroundImageFix" result="shape"/>
<feGaussianBlur stdDeviation="33.0644" result="effect1_foregroundBlur_1183_96513"/>
</filter>
<radialGradient id="paint0_radial_1183_96513" cx="0" cy="0" r="1" gradientUnits="userSpaceOnUse" gradientTransform="translate(591.119 419.345) rotate(180) scale(52.7805 28.6397)">
<stop stop-color="white" stop-opacity="0"/>
<stop offset="0.5" stop-color="#F4F2F2" stop-opacity="0.07"/>
<stop offset="1" stop-color="#F4F4F4" stop-opacity="0.43"/>
</radialGradient>
<linearGradient id="paint1_linear_1183_96513" x1="479.421" y1="40.7807" x2="587.551" y2="403.889" gradientUnits="userSpaceOnUse">
<stop stop-color="#92BFDF" stop-opacity="0.32"/>
<stop offset="0.630208" stop-color="#00DED1" stop-opacity="0.12"/>
<stop offset="1" stop-color="white" stop-opacity="0"/>
</linearGradient>
<linearGradient id="paint2_linear_1183_96513" x1="631.281" y1="376.429" x2="534.982" y2="461.142" gradientUnits="userSpaceOnUse">
<stop stop-color="#EDEDED"/>
<stop offset="1" stop-color="#D0D0D0"/>
</linearGradient>
<radialGradient id="paint3_radial_1183_96513" cx="0" cy="0" r="1" gradientUnits="userSpaceOnUse" gradientTransform="translate(704.115 419.345) rotate(180) scale(52.7805 28.6397)">
<stop stop-color="white" stop-opacity="0"/>
<stop offset="0.5" stop-color="#F4F2F2" stop-opacity="0.07"/>
<stop offset="1" stop-color="#F4F4F4" stop-opacity="0.43"/>
</radialGradient>
<linearGradient id="paint4_linear_1183_96513" x1="592.421" y1="40.7807" x2="700.551" y2="403.889" gradientUnits="userSpaceOnUse">
<stop stop-color="#92BFDF" stop-opacity="0.32"/>
<stop offset="0.630208" stop-color="#00DED1" stop-opacity="0.12"/>
<stop offset="1" stop-color="white" stop-opacity="0"/>
</linearGradient>
<linearGradient id="paint5_linear_1183_96513" x1="744.273" y1="376.429" x2="647.974" y2="461.142" gradientUnits="userSpaceOnUse">
<stop stop-color="#EDEDED"/>
<stop offset="1" stop-color="#D0D0D0"/>
</linearGradient>
<radialGradient id="paint6_radial_1183_96513" cx="0" cy="0" r="1" gradientUnits="userSpaceOnUse" gradientTransform="translate(1042.09 419.345) rotate(180) scale(52.7805 28.6397)">
<stop stop-color="white" stop-opacity="0"/>
<stop offset="0.5" stop-color="#F4F2F2" stop-opacity="0.07"/>
<stop offset="1" stop-color="#F4F4F4" stop-opacity="0.43"/>
</radialGradient>
<linearGradient id="paint7_linear_1183_96513" x1="930.401" y1="40.7807" x2="1038.53" y2="403.889" gradientUnits="userSpaceOnUse">
<stop stop-color="#92BFDF" stop-opacity="0.32"/>
<stop offset="0.630208" stop-color="#00DED1" stop-opacity="0.12"/>
<stop offset="1" stop-color="white" stop-opacity="0"/>
</linearGradient>
<linearGradient id="paint8_linear_1183_96513" x1="1082.25" y1="376.429" x2="985.955" y2="461.142" gradientUnits="userSpaceOnUse">
<stop stop-color="#EDEDED"/>
<stop offset="1" stop-color="#D0D0D0"/>
</linearGradient>
<radialGradient id="paint9_radial_1183_96513" cx="0" cy="0" r="1" gradientUnits="userSpaceOnUse" gradientTransform="translate(1156.09 419.345) rotate(180) scale(52.7805 28.6397)">
<stop stop-color="white" stop-opacity="0"/>
<stop offset="0.5" stop-color="#F4F2F2" stop-opacity="0.07"/>
<stop offset="1" stop-color="#F4F4F4" stop-opacity="0.43"/>
</radialGradient>
<linearGradient id="paint10_linear_1183_96513" x1="1044.4" y1="40.7807" x2="1152.53" y2="403.889" gradientUnits="userSpaceOnUse">
<stop stop-color="#92BFDF" stop-opacity="0.32"/>
<stop offset="0.630208" stop-color="#00DED1" stop-opacity="0.12"/>
<stop offset="1" stop-color="white" stop-opacity="0"/>
</linearGradient>
<linearGradient id="paint11_linear_1183_96513" x1="1196.25" y1="376.429" x2="1099.95" y2="461.142" gradientUnits="userSpaceOnUse">
<stop stop-color="#EDEDED"/>
<stop offset="1" stop-color="#D0D0D0"/>
</linearGradient>
<radialGradient id="paint12_radial_1183_96513" cx="0" cy="0" r="1" gradientUnits="userSpaceOnUse" gradientTransform="translate(1382.09 419.345) rotate(180) scale(52.7805 28.6397)">
<stop stop-color="white" stop-opacity="0"/>
<stop offset="0.5" stop-color="#F4F2F2" stop-opacity="0.07"/>
<stop offset="1" stop-color="#F4F4F4" stop-opacity="0.43"/>
</radialGradient>
<linearGradient id="paint13_linear_1183_96513" x1="1270.39" y1="40.7807" x2="1378.52" y2="403.889" gradientUnits="userSpaceOnUse">
<stop stop-color="#92BFDF" stop-opacity="0.32"/>
<stop offset="0.630208" stop-color="#00DED1" stop-opacity="0.12"/>
<stop offset="1" stop-color="white" stop-opacity="0"/>
</linearGradient>
<linearGradient id="paint14_linear_1183_96513" x1="1422.25" y1="376.429" x2="1325.95" y2="461.142" gradientUnits="userSpaceOnUse">
<stop stop-color="#EDEDED"/>
<stop offset="1" stop-color="#D0D0D0"/>
</linearGradient>
<radialGradient id="paint15_radial_1183_96513" cx="0" cy="0" r="1" gradientUnits="userSpaceOnUse" gradientTransform="translate(554.904 313.995) rotate(180) scale(52.7805 28.6397)">
<stop stop-color="white" stop-opacity="0"/>
<stop offset="0.5" stop-color="#F4F2F2" stop-opacity="0.07"/>
<stop offset="1" stop-color="#F4F4F4" stop-opacity="0.43"/>
</radialGradient>
<linearGradient id="paint16_linear_1183_96513" x1="443.202" y1="-64.567" x2="551.332" y2="298.541" gradientUnits="userSpaceOnUse">
<stop stop-color="#92BFDF" stop-opacity="0.32"/>
<stop offset="0.630208" stop-color="#00DED1" stop-opacity="0.12"/>
<stop offset="1" stop-color="white" stop-opacity="0"/>
</linearGradient>
<linearGradient id="paint17_linear_1183_96513" x1="595.059" y1="271.079" x2="498.76" y2="355.792" gradientUnits="userSpaceOnUse">
<stop stop-color="#EDEDED"/>
<stop offset="1" stop-color="#D0D0D0"/>
</linearGradient>
<radialGradient id="paint18_radial_1183_96513" cx="0" cy="0" r="1" gradientUnits="userSpaceOnUse" gradientTransform="translate(667.904 313.995) rotate(180) scale(52.7805 28.6397)">
<stop stop-color="white" stop-opacity="0"/>
<stop offset="0.5" stop-color="#F4F2F2" stop-opacity="0.07"/>
<stop offset="1" stop-color="#F4F4F4" stop-opacity="0.43"/>
</radialGradient>
<linearGradient id="paint19_linear_1183_96513" x1="556.202" y1="-64.567" x2="664.332" y2="298.541" gradientUnits="userSpaceOnUse">
<stop stop-color="#92BFDF" stop-opacity="0.32"/>
<stop offset="0.630208" stop-color="#00DED1" stop-opacity="0.12"/>
<stop offset="1" stop-color="white" stop-opacity="0"/>
</linearGradient>
<linearGradient id="paint20_linear_1183_96513" x1="708.059" y1="271.079" x2="611.76" y2="355.792" gradientUnits="userSpaceOnUse">
<stop stop-color="#EDEDED"/>
<stop offset="1" stop-color="#D0D0D0"/>
</linearGradient>
<radialGradient id="paint21_radial_1183_96513" cx="0" cy="0" r="1" gradientUnits="userSpaceOnUse" gradientTransform="translate(845.709 212.038) rotate(180) scale(52.7805 28.6397)">
<stop stop-color="white" stop-opacity="0"/>
<stop offset="0.5" stop-color="#F4F2F2" stop-opacity="0.07"/>
<stop offset="1" stop-color="#F4F4F4" stop-opacity="0.43"/>
</radialGradient>
<linearGradient id="paint22_linear_1183_96513" x1="734.007" y1="-166.524" x2="842.137" y2="196.584" gradientUnits="userSpaceOnUse">
<stop stop-color="#92BFDF" stop-opacity="0.32"/>
<stop offset="0.630208" stop-color="#00DED1" stop-opacity="0.12"/>
<stop offset="1" stop-color="white" stop-opacity="0"/>
</linearGradient>
<linearGradient id="paint23_linear_1183_96513" x1="854.774" y1="198.613" x2="855.889" y2="237.983" gradientUnits="userSpaceOnUse">
<stop stop-color="#39A9A2" stop-opacity="0.85"/>
<stop offset="1" stop-color="#88D1CD" stop-opacity="0"/>
</linearGradient>
<linearGradient id="paint24_linear_1183_96513" x1="885.859" y1="169.122" x2="789.56" y2="253.835" gradientUnits="userSpaceOnUse">
<stop stop-color="#EDEDED"/>
<stop offset="1" stop-color="#D0D0D0"/>
</linearGradient>
<radialGradient id="paint25_radial_1183_96513" cx="0" cy="0" r="1" gradientUnits="userSpaceOnUse" gradientTransform="translate(893.893 313.995) rotate(180) scale(52.7805 28.6397)">
<stop stop-color="white" stop-opacity="0"/>
<stop offset="0.5" stop-color="#F4F2F2" stop-opacity="0.07"/>
<stop offset="1" stop-color="#F4F4F4" stop-opacity="0.43"/>
</radialGradient>
<linearGradient id="paint26_linear_1183_96513" x1="782.186" y1="-64.567" x2="890.317" y2="298.541" gradientUnits="userSpaceOnUse">
<stop stop-color="#92BFDF" stop-opacity="0.32"/>
<stop offset="0.630208" stop-color="#00DED1" stop-opacity="0.12"/>
<stop offset="1" stop-color="white" stop-opacity="0"/>
</linearGradient>
<linearGradient id="paint27_linear_1183_96513" x1="934.043" y1="271.079" x2="837.744" y2="355.792" gradientUnits="userSpaceOnUse">
<stop stop-color="#EDEDED"/>
<stop offset="1" stop-color="#D0D0D0"/>
</linearGradient>
<radialGradient id="paint28_radial_1183_96513" cx="0" cy="0" r="1" gradientUnits="userSpaceOnUse" gradientTransform="translate(1006.89 313.995) rotate(180) scale(52.7805 28.6397)">
<stop stop-color="white" stop-opacity="0"/>
<stop offset="0.5" stop-color="#F4F2F2" stop-opacity="0.07"/>
<stop offset="1" stop-color="#F4F4F4" stop-opacity="0.43"/>
</radialGradient>
<linearGradient id="paint29_linear_1183_96513" x1="895.194" y1="-64.567" x2="1003.32" y2="298.541" gradientUnits="userSpaceOnUse">
<stop stop-color="#92BFDF" stop-opacity="0.32"/>
<stop offset="0.630208" stop-color="#00DED1" stop-opacity="0.12"/>
<stop offset="1" stop-color="white" stop-opacity="0"/>
</linearGradient>
<linearGradient id="paint30_linear_1183_96513" x1="1015.11" y1="298.439" x2="1016.69" y2="343.905" gradientUnits="userSpaceOnUse">
<stop stop-color="#39A9A2" stop-opacity="0.85"/>
<stop offset="1" stop-color="#88D1CD" stop-opacity="0"/>
</linearGradient>
<linearGradient id="paint31_linear_1183_96513" x1="1047.05" y1="271.079" x2="950.748" y2="355.792" gradientUnits="userSpaceOnUse">
<stop stop-color="#EDEDED"/>
<stop offset="1" stop-color="#D0D0D0"/>
</linearGradient>
<radialGradient id="paint32_radial_1183_96513" cx="0" cy="0" r="1" gradientUnits="userSpaceOnUse" gradientTransform="translate(1119.88 313.995) rotate(180) scale(52.7805 28.6397)">
<stop stop-color="white" stop-opacity="0"/>
<stop offset="0.5" stop-color="#F4F2F2" stop-opacity="0.07"/>
<stop offset="1" stop-color="#F4F4F4" stop-opacity="0.43"/>
</radialGradient>
<linearGradient id="paint33_linear_1183_96513" x1="1008.19" y1="-64.567" x2="1116.32" y2="298.541" gradientUnits="userSpaceOnUse">
<stop stop-color="#92BFDF" stop-opacity="0.32"/>
<stop offset="0.630208" stop-color="#00DED1" stop-opacity="0.12"/>
<stop offset="1" stop-color="white" stop-opacity="0"/>
</linearGradient>
<linearGradient id="paint34_linear_1183_96513" x1="1160.04" y1="271.079" x2="1063.74" y2="355.792" gradientUnits="userSpaceOnUse">
<stop stop-color="#EDEDED"/>
<stop offset="1" stop-color="#D0D0D0"/>
</linearGradient>
<radialGradient id="paint35_radial_1183_96513" cx="0" cy="0" r="1" gradientUnits="userSpaceOnUse" gradientTransform="translate(1232.88 313.995) rotate(180) scale(52.7805 28.6397)">
<stop stop-color="white" stop-opacity="0"/>
<stop offset="0.5" stop-color="#F4F2F2" stop-opacity="0.07"/>
<stop offset="1" stop-color="#F4F4F4" stop-opacity="0.43"/>
</radialGradient>
<linearGradient id="paint36_linear_1183_96513" x1="1121.17" y1="-64.567" x2="1229.3" y2="298.541" gradientUnits="userSpaceOnUse">
<stop stop-color="#92BFDF" stop-opacity="0.32"/>
<stop offset="0.630208" stop-color="#00DED1" stop-opacity="0.12"/>
<stop offset="1" stop-color="white" stop-opacity="0"/>
</linearGradient>
<linearGradient id="paint37_linear_1183_96513" x1="1242.97" y1="297.697" x2="1244.51" y2="345.571" gradientUnits="userSpaceOnUse">
<stop stop-color="#39A9A2" stop-opacity="0.85"/>
<stop offset="1" stop-color="#88D1CD" stop-opacity="0"/>
</linearGradient>
<linearGradient id="paint38_linear_1183_96513" x1="1273.03" y1="271.079" x2="1176.73" y2="355.792" gradientUnits="userSpaceOnUse">
<stop stop-color="#EDEDED"/>
<stop offset="1" stop-color="#D0D0D0"/>
</linearGradient>
<radialGradient id="paint39_radial_1183_96513" cx="0" cy="0" r="1" gradientUnits="userSpaceOnUse" gradientTransform="translate(1345.88 313.995) rotate(180) scale(52.7805 28.6397)">
<stop stop-color="white" stop-opacity="0"/>
<stop offset="0.5" stop-color="#F4F2F2" stop-opacity="0.07"/>
<stop offset="1" stop-color="#F4F4F4" stop-opacity="0.43"/>
</radialGradient>
<linearGradient id="paint40_linear_1183_96513" x1="1234.17" y1="-64.567" x2="1342.31" y2="298.541" gradientUnits="userSpaceOnUse">
<stop stop-color="#92BFDF" stop-opacity="0.32"/>
<stop offset="0.630208" stop-color="#00DED1" stop-opacity="0.12"/>
<stop offset="1" stop-color="white" stop-opacity="0"/>
</linearGradient>
<linearGradient id="paint41_linear_1183_96513" x1="1386.03" y1="271.079" x2="1289.73" y2="355.792" gradientUnits="userSpaceOnUse">
<stop stop-color="#EDEDED"/>
<stop offset="1" stop-color="#D0D0D0"/>
</linearGradient>
<radialGradient id="paint42_radial_1183_96513" cx="0" cy="0" r="1" gradientUnits="userSpaceOnUse" gradientTransform="translate(476.334 108.501) rotate(180) scale(52.7805 28.6397)">
<stop stop-color="white" stop-opacity="0"/>
<stop offset="0.5" stop-color="#F4F2F2" stop-opacity="0.07"/>
<stop offset="1" stop-color="#F4F4F4" stop-opacity="0.43"/>
</radialGradient>
<linearGradient id="paint43_linear_1183_96513" x1="516.488" y1="65.5853" x2="420.189" y2="150.298" gradientUnits="userSpaceOnUse">
<stop stop-color="#EDEDED"/>
<stop offset="1" stop-color="#D0D0D0"/>
</linearGradient>
<radialGradient id="paint44_radial_1183_96513" cx="0" cy="0" r="1" gradientUnits="userSpaceOnUse" gradientTransform="translate(589.33 108.501) rotate(180) scale(52.7805 28.6397)">
<stop stop-color="white" stop-opacity="0"/>
<stop offset="0.5" stop-color="#F4F2F2" stop-opacity="0.07"/>
<stop offset="1" stop-color="#F4F4F4" stop-opacity="0.43"/>
</radialGradient>
<linearGradient id="paint45_linear_1183_96513" x1="477.628" y1="-270.061" x2="585.758" y2="93.0469" gradientUnits="userSpaceOnUse">
<stop stop-color="#92BFDF" stop-opacity="0.32"/>
<stop offset="0.630208" stop-color="#00DED1" stop-opacity="0.12"/>
<stop offset="1" stop-color="white" stop-opacity="0"/>
</linearGradient>
<linearGradient id="paint46_linear_1183_96513" x1="629.484" y1="65.5853" x2="533.185" y2="150.298" gradientUnits="userSpaceOnUse">
<stop stop-color="#EDEDED"/>
<stop offset="1" stop-color="#D0D0D0"/>
</linearGradient>
<radialGradient id="paint47_radial_1183_96513" cx="0" cy="0" r="1" gradientUnits="userSpaceOnUse" gradientTransform="translate(921.768 108.501) rotate(180) scale(52.7805 28.6397)">
<stop stop-color="white" stop-opacity="0"/>
<stop offset="0.5" stop-color="#F4F2F2" stop-opacity="0.07"/>
<stop offset="1" stop-color="#F4F4F4" stop-opacity="0.43"/>
</radialGradient>
<linearGradient id="paint48_linear_1183_96513" x1="810.069" y1="-270.061" x2="918.2" y2="93.0469" gradientUnits="userSpaceOnUse">
<stop stop-color="#92BFDF" stop-opacity="0.32"/>
<stop offset="0.630208" stop-color="#00DED1" stop-opacity="0.12"/>
<stop offset="1" stop-color="white" stop-opacity="0"/>
</linearGradient>
<linearGradient id="paint49_linear_1183_96513" x1="930.286" y1="94.8848" x2="931.587" y2="135.99" gradientUnits="userSpaceOnUse">
<stop stop-color="#39A9A2" stop-opacity="0.85"/>
<stop offset="1" stop-color="#88D1CD" stop-opacity="0"/>
</linearGradient>
<linearGradient id="paint50_linear_1183_96513" x1="961.922" y1="65.5853" x2="865.623" y2="150.298" gradientUnits="userSpaceOnUse">
<stop stop-color="#EDEDED"/>
<stop offset="1" stop-color="#D0D0D0"/>
</linearGradient>
<radialGradient id="paint51_radial_1183_96513" cx="0" cy="0" r="1" gradientUnits="userSpaceOnUse" gradientTransform="translate(958.197 210.643) rotate(180) scale(52.7805 28.6397)">
<stop stop-color="white" stop-opacity="0"/>
<stop offset="0.5" stop-color="#F4F2F2" stop-opacity="0.07"/>
<stop offset="1" stop-color="#F4F4F4" stop-opacity="0.43"/>
</radialGradient>
<linearGradient id="paint52_linear_1183_96513" x1="846.495" y1="-167.919" x2="954.625" y2="195.19" gradientUnits="userSpaceOnUse">
<stop stop-color="#92BFDF" stop-opacity="0.32"/>
<stop offset="0.630208" stop-color="#00DED1" stop-opacity="0.12"/>
<stop offset="1" stop-color="white" stop-opacity="0"/>
</linearGradient>
<linearGradient id="paint53_linear_1183_96513" x1="998.348" y1="167.728" x2="902.049" y2="252.44" gradientUnits="userSpaceOnUse">
<stop stop-color="#EDEDED"/>
<stop offset="1" stop-color="#D0D0D0"/>
</linearGradient>
<radialGradient id="paint54_radial_1183_96513" cx="0" cy="0" r="1" gradientUnits="userSpaceOnUse" gradientTransform="translate(1036.07 108.501) rotate(180) scale(52.7805 28.6397)">
<stop stop-color="white" stop-opacity="0"/>
<stop offset="0.5" stop-color="#F4F2F2" stop-opacity="0.07"/>
<stop offset="1" stop-color="#F4F4F4" stop-opacity="0.43"/>
</radialGradient>
<linearGradient id="paint55_linear_1183_96513" x1="924.37" y1="-270.061" x2="1032.5" y2="93.0469" gradientUnits="userSpaceOnUse">
<stop stop-color="#92BFDF" stop-opacity="0.32"/>
<stop offset="0.630208" stop-color="#00DED1" stop-opacity="0.12"/>
<stop offset="1" stop-color="white" stop-opacity="0"/>
</linearGradient>
<linearGradient id="paint56_linear_1183_96513" x1="1076.22" y1="65.5853" x2="979.92" y2="150.298" gradientUnits="userSpaceOnUse">
<stop stop-color="#EDEDED"/>
<stop offset="1" stop-color="#D0D0D0"/>
</linearGradient>
<radialGradient id="paint57_radial_1183_96513" cx="0" cy="0" r="1" gradientUnits="userSpaceOnUse" gradientTransform="translate(1154.3 108.501) rotate(180) scale(52.7805 28.6397)">
<stop stop-color="white" stop-opacity="0"/>
<stop offset="0.5" stop-color="#F4F2F2" stop-opacity="0.07"/>
<stop offset="1" stop-color="#F4F4F4" stop-opacity="0.43"/>
</radialGradient>
<linearGradient id="paint58_linear_1183_96513" x1="1042.6" y1="-270.061" x2="1150.73" y2="93.0469" gradientUnits="userSpaceOnUse">
<stop stop-color="#92BFDF" stop-opacity="0.32"/>
<stop offset="0.630208" stop-color="#00DED1" stop-opacity="0.12"/>
<stop offset="1" stop-color="white" stop-opacity="0"/>
</linearGradient>
<linearGradient id="paint59_linear_1183_96513" x1="1163.77" y1="93.3047" x2="1165.17" y2="137.983" gradientUnits="userSpaceOnUse">
<stop stop-color="#39A9A2" stop-opacity="0.85"/>
<stop offset="1" stop-color="#88D1CD" stop-opacity="0"/>
</linearGradient>
<linearGradient id="paint60_linear_1183_96513" x1="1194.46" y1="65.5853" x2="1098.16" y2="150.298" gradientUnits="userSpaceOnUse">
<stop stop-color="#EDEDED"/>
<stop offset="1" stop-color="#D0D0D0"/>
</linearGradient>
<radialGradient id="paint61_radial_1183_96513" cx="0" cy="0" r="1" gradientUnits="userSpaceOnUse" gradientTransform="translate(1267.3 108.501) rotate(180) scale(52.7805 28.6397)">
<stop stop-color="white" stop-opacity="0"/>
<stop offset="0.5" stop-color="#F4F2F2" stop-opacity="0.07"/>
<stop offset="1" stop-color="#F4F4F4" stop-opacity="0.43"/>
</radialGradient>
<linearGradient id="paint62_linear_1183_96513" x1="1155.6" y1="-270.061" x2="1263.73" y2="93.0469" gradientUnits="userSpaceOnUse">
<stop stop-color="#92BFDF" stop-opacity="0.32"/>
<stop offset="0.630208" stop-color="#00DED1" stop-opacity="0.12"/>
<stop offset="1" stop-color="white" stop-opacity="0"/>
</linearGradient>
<linearGradient id="paint63_linear_1183_96513" x1="1307.45" y1="65.5853" x2="1211.15" y2="150.298" gradientUnits="userSpaceOnUse">
<stop stop-color="#EDEDED"/>
<stop offset="1" stop-color="#D0D0D0"/>
</linearGradient>
<radialGradient id="paint64_radial_1183_96513" cx="0" cy="0" r="1" gradientUnits="userSpaceOnUse" gradientTransform="translate(735.279 212.038) rotate(180) scale(52.7805 28.6397)">
<stop stop-color="white" stop-opacity="0"/>
<stop offset="0.5" stop-color="#F4F2F2" stop-opacity="0.07"/>
<stop offset="1" stop-color="#F4F4F4" stop-opacity="0.43"/>
</radialGradient>
<linearGradient id="paint65_linear_1183_96513" x1="623.577" y1="-166.524" x2="731.707" y2="196.584" gradientUnits="userSpaceOnUse">
<stop stop-color="#92BFDF" stop-opacity="0.32"/>
<stop offset="0.630208" stop-color="#00DED1" stop-opacity="0.12"/>
<stop offset="1" stop-color="white" stop-opacity="0"/>
</linearGradient>
<linearGradient id="paint66_linear_1183_96513" x1="775.434" y1="169.122" x2="679.135" y2="253.835" gradientUnits="userSpaceOnUse">
<stop stop-color="#EDEDED"/>
<stop offset="1" stop-color="#D0D0D0"/>
</linearGradient>
<radialGradient id="paint67_radial_1183_96513" cx="0" cy="0" r="1" gradientUnits="userSpaceOnUse" gradientTransform="translate(1382.33 212.038) rotate(180) scale(52.7805 28.6397)">
<stop stop-color="white" stop-opacity="0"/>
<stop offset="0.5" stop-color="#F4F2F2" stop-opacity="0.07"/>
<stop offset="1" stop-color="#F4F4F4" stop-opacity="0.43"/>
</radialGradient>
<linearGradient id="paint68_linear_1183_96513" x1="1270.63" y1="-166.524" x2="1378.76" y2="196.584" gradientUnits="userSpaceOnUse">
<stop stop-color="#92BFDF" stop-opacity="0.32"/>
<stop offset="0.630208" stop-color="#00DED1" stop-opacity="0.12"/>
<stop offset="1" stop-color="white" stop-opacity="0"/>
</linearGradient>
<linearGradient id="paint69_linear_1183_96513" x1="1422.48" y1="169.122" x2="1326.19" y2="253.835" gradientUnits="userSpaceOnUse">
<stop stop-color="#EDEDED"/>
<stop offset="1" stop-color="#D0D0D0"/>
</linearGradient>
<radialGradient id="paint70_radial_1183_96513" cx="0" cy="0" r="1" gradientUnits="userSpaceOnUse" gradientTransform="translate(1268.04 212.038) rotate(180) scale(52.7805 28.6397)">
<stop stop-color="white" stop-opacity="0"/>
<stop offset="0.5" stop-color="#F4F2F2" stop-opacity="0.07"/>
<stop offset="1" stop-color="#F4F4F4" stop-opacity="0.43"/>
</radialGradient>
<linearGradient id="paint71_linear_1183_96513" x1="1156.33" y1="-166.524" x2="1264.47" y2="196.584" gradientUnits="userSpaceOnUse">
<stop stop-color="#92BFDF" stop-opacity="0.32"/>
<stop offset="0.630208" stop-color="#00DED1" stop-opacity="0.12"/>
<stop offset="1" stop-color="white" stop-opacity="0"/>
</linearGradient>
<linearGradient id="paint72_linear_1183_96513" x1="1308.2" y1="169.122" x2="1211.9" y2="253.835" gradientUnits="userSpaceOnUse">
<stop stop-color="#EDEDED"/>
<stop offset="1" stop-color="#D0D0D0"/>
</linearGradient>
<radialGradient id="paint73_radial_1183_96513" cx="0" cy="0" r="1" gradientUnits="userSpaceOnUse" gradientTransform="translate(479.396 1.99501) rotate(180) scale(52.7805 28.6397)">
<stop stop-color="white" stop-opacity="0"/>
<stop offset="0.5" stop-color="#F4F2F2" stop-opacity="0.07"/>
<stop offset="1" stop-color="#F4F4F4" stop-opacity="0.43"/>
</radialGradient>
<linearGradient id="paint74_linear_1183_96513" x1="519.563" y1="-40.9206" x2="423.264" y2="43.792" gradientUnits="userSpaceOnUse">
<stop stop-color="#EDEDED"/>
<stop offset="1" stop-color="#D0D0D0"/>
</linearGradient>
<radialGradient id="paint75_radial_1183_96513" cx="0" cy="0" r="1" gradientUnits="userSpaceOnUse" gradientTransform="translate(592.404 1.99501) rotate(180) scale(52.7805 28.6397)">
<stop stop-color="white" stop-opacity="0"/>
<stop offset="0.5" stop-color="#F4F2F2" stop-opacity="0.07"/>
<stop offset="1" stop-color="#F4F4F4" stop-opacity="0.43"/>
</radialGradient>
<linearGradient id="paint76_linear_1183_96513" x1="632.563" y1="-40.9206" x2="536.264" y2="43.792" gradientUnits="userSpaceOnUse">
<stop stop-color="#EDEDED"/>
<stop offset="1" stop-color="#D0D0D0"/>
</linearGradient>
<radialGradient id="paint77_radial_1183_96513" cx="0" cy="0" r="1" gradientUnits="userSpaceOnUse" gradientTransform="translate(705.4 1.99501) rotate(180) scale(52.7805 28.6397)">
<stop stop-color="white" stop-opacity="0"/>
<stop offset="0.5" stop-color="#F4F2F2" stop-opacity="0.07"/>
<stop offset="1" stop-color="#F4F4F4" stop-opacity="0.43"/>
</radialGradient>
<linearGradient id="paint78_linear_1183_96513" x1="745.555" y1="-40.9206" x2="649.256" y2="43.792" gradientUnits="userSpaceOnUse">
<stop stop-color="#EDEDED"/>
<stop offset="1" stop-color="#D0D0D0"/>
</linearGradient>
<radialGradient id="paint79_radial_1183_96513" cx="0" cy="0" r="1" gradientUnits="userSpaceOnUse" gradientTransform="translate(931.389 1.99501) rotate(180) scale(52.7805 28.6397)">
<stop stop-color="white" stop-opacity="0"/>
<stop offset="0.5" stop-color="#F4F2F2" stop-opacity="0.07"/>
<stop offset="1" stop-color="#F4F4F4" stop-opacity="0.43"/>
</radialGradient>
<linearGradient id="paint80_linear_1183_96513" x1="971.543" y1="-40.9206" x2="875.244" y2="43.792" gradientUnits="userSpaceOnUse">
<stop stop-color="#EDEDED"/>
<stop offset="1" stop-color="#D0D0D0"/>
</linearGradient>
<radialGradient id="paint81_radial_1183_96513" cx="0" cy="0" r="1" gradientUnits="userSpaceOnUse" gradientTransform="translate(1044.38 1.99501) rotate(180) scale(52.7805 28.6397)">
<stop stop-color="white" stop-opacity="0"/>
<stop offset="0.5" stop-color="#F4F2F2" stop-opacity="0.07"/>
<stop offset="1" stop-color="#F4F4F4" stop-opacity="0.43"/>
</radialGradient>
<linearGradient id="paint82_linear_1183_96513" x1="1084.54" y1="-40.9206" x2="988.24" y2="43.792" gradientUnits="userSpaceOnUse">
<stop stop-color="#EDEDED"/>
<stop offset="1" stop-color="#D0D0D0"/>
</linearGradient>
<radialGradient id="paint83_radial_1183_96513" cx="0" cy="0" r="1" gradientUnits="userSpaceOnUse" gradientTransform="translate(1270.37 1.99501) rotate(180) scale(52.7805 28.6397)">
<stop stop-color="white" stop-opacity="0"/>
<stop offset="0.5" stop-color="#F4F2F2" stop-opacity="0.07"/>
<stop offset="1" stop-color="#F4F4F4" stop-opacity="0.43"/>
</radialGradient>
<linearGradient id="paint84_linear_1183_96513" x1="1310.52" y1="-40.9206" x2="1214.22" y2="43.792" gradientUnits="userSpaceOnUse">
<stop stop-color="#EDEDED"/>
<stop offset="1" stop-color="#D0D0D0"/>
</linearGradient>
<radialGradient id="paint85_radial_1183_96513" cx="0" cy="0" r="1" gradientUnits="userSpaceOnUse" gradientTransform="translate(1383.37 1.99501) rotate(180) scale(52.7805 28.6397)">
<stop stop-color="white" stop-opacity="0"/>
<stop offset="0.5" stop-color="#F4F2F2" stop-opacity="0.07"/>
<stop offset="1" stop-color="#F4F4F4" stop-opacity="0.43"/>
</radialGradient>
<linearGradient id="paint86_linear_1183_96513" x1="1423.52" y1="-40.9206" x2="1327.22" y2="43.792" gradientUnits="userSpaceOnUse">
<stop stop-color="#EDEDED"/>
<stop offset="1" stop-color="#D0D0D0"/>
</linearGradient>
<radialGradient id="paint87_radial_1183_96513" cx="0" cy="0" r="1" gradientUnits="userSpaceOnUse" gradientTransform="translate(1072.21 210.643) rotate(180) scale(52.7805 28.6397)">
<stop stop-color="white" stop-opacity="0"/>
<stop offset="0.5" stop-color="#F4F2F2" stop-opacity="0.07"/>
<stop offset="1" stop-color="#F4F4F4" stop-opacity="0.43"/>
</radialGradient>
<linearGradient id="paint88_linear_1183_96513" x1="960.503" y1="-167.92" x2="1068.63" y2="195.188" gradientUnits="userSpaceOnUse">
<stop stop-color="#92BFDF" stop-opacity="0.32"/>
<stop offset="0.630208" stop-color="#00DED1" stop-opacity="0.12"/>
<stop offset="1" stop-color="white" stop-opacity="0"/>
</linearGradient>
<linearGradient id="paint89_linear_1183_96513" x1="1081.07" y1="195.711" x2="1082.46" y2="239.335" gradientUnits="userSpaceOnUse">
<stop stop-color="#39A9A2" stop-opacity="0.85"/>
<stop offset="1" stop-color="#88D1CD" stop-opacity="0"/>
</linearGradient>
<linearGradient id="paint90_linear_1183_96513" x1="1112.36" y1="167.728" x2="1016.06" y2="252.44" gradientUnits="userSpaceOnUse">
<stop stop-color="#EDEDED"/>
<stop offset="1" stop-color="#D0D0D0"/>
</linearGradient>
<radialGradient id="paint91_radial_1183_96513" cx="0" cy="0" r="1" gradientUnits="userSpaceOnUse" gradientTransform="translate(1035.61 216.223) rotate(-180) scale(408.147 157.348)">
<stop stop-color="white" stop-opacity="0"/>
<stop offset="0.630208" stop-color="white" stop-opacity="0.35"/>
<stop offset="1" stop-color="white" stop-opacity="0.88"/>
</radialGradient>
<clipPath id="clip0_1183_96513">
<rect x="535.875" y="373.354" width="99.3675" height="91.6495" rx="7.84464" fill="white"/>
</clipPath>
<clipPath id="clip1_1183_96513">
<rect x="648.867" y="373.354" width="99.3675" height="91.6495" rx="7.84464" fill="white"/>
</clipPath>
<clipPath id="clip2_1183_96513">
<rect x="986.848" y="373.354" width="99.3675" height="91.6495" rx="7.84464" fill="white"/>
</clipPath>
<clipPath id="clip3_1183_96513">
<rect x="1100.84" y="373.354" width="99.3675" height="91.6495" rx="7.84464" fill="white"/>
</clipPath>
<clipPath id="clip4_1183_96513">
<rect x="1326.84" y="373.354" width="99.3675" height="91.6495" rx="7.84464" fill="white"/>
</clipPath>
<clipPath id="clip5_1183_96513">
<rect x="499.652" y="268.004" width="99.3675" height="91.6495" rx="7.84464" fill="white"/>
</clipPath>
<clipPath id="clip6_1183_96513">
<rect x="612.652" y="268.004" width="99.3675" height="91.6495" rx="7.84464" fill="white"/>
</clipPath>
<clipPath id="clip7_1183_96513">
<rect x="790.453" y="166.047" width="99.3675" height="91.6495" rx="7.84464" fill="white"/>
</clipPath>
<clipPath id="clip8_1183_96513">
<rect x="838.637" y="268.004" width="99.3675" height="91.6495" rx="7.84464" fill="white"/>
</clipPath>
<clipPath id="clip9_1183_96513">
<rect x="951.641" y="268.004" width="99.3675" height="91.6495" rx="7.84464" fill="white"/>
</clipPath>
<clipPath id="clip10_1183_96513">
<rect x="1064.63" y="268.004" width="99.3675" height="91.6495" rx="7.84464" fill="white"/>
</clipPath>
<clipPath id="clip11_1183_96513">
<rect x="1177.62" y="268.004" width="99.3675" height="91.6495" rx="7.84464" fill="white"/>
</clipPath>
<clipPath id="clip12_1183_96513">
<rect x="1290.62" y="268.004" width="99.3675" height="91.6495" rx="7.84464" fill="white"/>
</clipPath>
<clipPath id="clip13_1183_96513">
<rect x="421.082" y="62.5098" width="99.3675" height="91.6495" rx="7.84464" fill="white"/>
</clipPath>
<clipPath id="clip14_1183_96513">
<rect x="534.078" y="62.5098" width="99.3675" height="91.6495" rx="7.84464" fill="white"/>
</clipPath>
<clipPath id="clip15_1183_96513">
<rect x="866.516" y="62.5098" width="99.3675" height="91.6495" rx="7.84464" fill="white"/>
</clipPath>
<clipPath id="clip16_1183_96513">
<rect x="902.941" y="164.652" width="99.3675" height="91.6495" rx="7.84464" fill="white"/>
</clipPath>
<clipPath id="clip17_1183_96513">
<rect x="980.812" y="62.5098" width="99.3675" height="91.6495" rx="7.84464" fill="white"/>
</clipPath>
<clipPath id="clip18_1183_96513">
<rect x="1099.05" y="62.5098" width="99.3675" height="91.6495" rx="7.84464" fill="white"/>
</clipPath>
<clipPath id="clip19_1183_96513">
<rect x="1212.05" y="62.5098" width="99.3675" height="91.6495" rx="7.84464" fill="white"/>
</clipPath>
<clipPath id="clip20_1183_96513">
<rect x="680.027" y="166.047" width="99.3675" height="91.6495" rx="7.84464" fill="white"/>
</clipPath>
<clipPath id="clip21_1183_96513">
<rect x="1327.08" y="166.047" width="99.3675" height="91.6495" rx="7.84464" fill="white"/>
</clipPath>
<clipPath id="clip22_1183_96513">
<rect x="1212.79" y="166.047" width="99.3675" height="91.6495" rx="7.84464" fill="white"/>
</clipPath>
<clipPath id="clip23_1183_96513">
<rect x="424.156" y="-43.9961" width="99.3675" height="91.6495" rx="7.84464" fill="white"/>
</clipPath>
<clipPath id="clip24_1183_96513">
<rect x="537.156" y="-43.9961" width="99.3675" height="91.6495" rx="7.84464" fill="white"/>
</clipPath>
<clipPath id="clip25_1183_96513">
<rect x="650.148" y="-43.9961" width="99.3675" height="91.6495" rx="7.84464" fill="white"/>
</clipPath>
<clipPath id="clip26_1183_96513">
<rect x="763.137" y="-43.9961" width="99.3675" height="91.6495" rx="7.84464" fill="white"/>
</clipPath>
<clipPath id="clip27_1183_96513">
<rect x="876.137" y="-43.9961" width="99.3675" height="91.6495" rx="7.84464" fill="white"/>
</clipPath>
<clipPath id="clip28_1183_96513">
<rect x="989.133" y="-43.9961" width="99.3675" height="91.6495" rx="7.84464" fill="white"/>
</clipPath>
<clipPath id="clip29_1183_96513">
<rect x="1102.12" y="-43.9961" width="99.3675" height="91.6495" rx="7.84464" fill="white"/>
</clipPath>
<clipPath id="clip30_1183_96513">
<rect x="1215.12" y="-43.9961" width="99.3675" height="91.6495" rx="7.84464" fill="white"/>
</clipPath>
<clipPath id="clip31_1183_96513">
<rect x="1328.11" y="-43.9961" width="99.3675" height="91.6495" rx="7.84464" fill="white"/>
</clipPath>
<clipPath id="clip32_1183_96513">
<rect x="1016.96" y="164.652" width="99.3675" height="91.6495" rx="7.84464" fill="white"/>
</clipPath>
</defs>
</svg>
