<svg width="449" height="401" viewBox="0 0 449 401" fill="none" xmlns="http://www.w3.org/2000/svg">
<rect x="-17.8438" y="-15.1914" width="476.973" height="430.908" fill="white"/>
<rect x="322.27" y="421.289" width="43.6605" height="43.0513" transform="rotate(180 322.27 421.289)" stroke="#EDEDED" stroke-width="0.5"/>
<rect x="278.613" y="421.289" width="43.6605" height="43.0513" transform="rotate(180 278.613 421.289)" stroke="#EDEDED" stroke-width="0.5"/>
<rect x="453.312" y="421.289" width="43.6605" height="43.0513" transform="rotate(180 453.312 421.289)" stroke="#EDEDED" stroke-width="0.5"/>
<rect x="234.949" y="421.289" width="43.6605" height="43.0513" transform="rotate(180 234.949 421.289)" stroke="#EDEDED" stroke-width="0.5"/>
<rect x="409.648" y="421.289" width="43.6605" height="43.0513" transform="rotate(180 409.648 421.289)" stroke="#EDEDED" stroke-width="0.5"/>
<rect x="191.301" y="421.289" width="43.6605" height="43.0513" transform="rotate(180 191.301 421.289)" stroke="#EDEDED" stroke-width="0.5"/>
<rect x="365.98" y="421.289" width="43.6605" height="43.0513" transform="rotate(180 365.98 421.289)" stroke="#EDEDED" stroke-width="0.5"/>
<rect x="322.27" y="378.236" width="43.6605" height="43.0513" transform="rotate(180 322.27 378.236)" stroke="#EDEDED" stroke-width="0.5"/>
<rect x="103.98" y="378.236" width="43.6605" height="43.0513" transform="rotate(180 103.98 378.236)" stroke="#EDEDED" stroke-width="0.5"/>
<rect x="322.27" y="335.188" width="43.6605" height="43.0513" transform="rotate(180 322.27 335.188)" stroke="#EDEDED" stroke-width="0.5"/>
<rect x="103.98" y="335.188" width="43.6605" height="43.0513" transform="rotate(180 103.98 335.188)" stroke="#EDEDED" stroke-width="0.5"/>
<rect x="278.613" y="378.236" width="43.6605" height="43.0513" transform="rotate(180 278.613 378.236)" stroke="#EDEDED" stroke-width="0.5"/>
<rect x="60.3164" y="378.236" width="43.6605" height="43.0513" transform="rotate(180 60.3164 378.236)" stroke="#EDEDED" stroke-width="0.5"/>
<rect x="278.613" y="335.188" width="43.6605" height="43.0513" transform="rotate(180 278.613 335.188)" stroke="#EDEDED" stroke-width="0.5"/>
<rect x="60.3164" y="335.188" width="43.6605" height="43.0513" transform="rotate(180 60.3164 335.188)" stroke="#EDEDED" stroke-width="0.5"/>
<rect x="453.312" y="378.236" width="43.6605" height="43.0513" transform="rotate(180 453.312 378.236)" stroke="#EDEDED" stroke-width="0.5"/>
<rect x="234.949" y="378.236" width="43.6605" height="43.0513" transform="rotate(180 234.949 378.236)" stroke="#EDEDED" stroke-width="0.5"/>
<rect x="453.312" y="335.188" width="43.6605" height="43.0513" transform="rotate(180 453.312 335.188)" stroke="#EDEDED" stroke-width="0.5"/>
<rect x="234.949" y="335.188" width="43.6605" height="43.0513" transform="rotate(180 234.949 335.188)" stroke="#EDEDED" stroke-width="0.5"/>
<rect x="409.648" y="378.236" width="43.6605" height="43.0513" transform="rotate(180 409.648 378.236)" stroke="#EDEDED" stroke-width="0.5"/>
<rect x="409.648" y="335.188" width="43.6605" height="43.0513" transform="rotate(180 409.648 335.188)" stroke="#EDEDED" stroke-width="0.5"/>
<rect x="191.301" y="335.188" width="43.6605" height="43.0513" transform="rotate(180 191.301 335.188)" stroke="#EDEDED" stroke-width="0.5"/>
<rect x="365.98" y="378.236" width="43.6605" height="43.0513" transform="rotate(180 365.98 378.236)" stroke="#EDEDED" stroke-width="0.5"/>
<rect x="147.629" y="378.236" width="43.6605" height="43.0513" transform="rotate(180 147.629 378.236)" stroke="#EDEDED" stroke-width="0.5"/>
<rect x="365.98" y="335.188" width="43.6605" height="43.0513" transform="rotate(180 365.98 335.188)" stroke="#EDEDED" stroke-width="0.5"/>
<rect x="147.629" y="335.188" width="43.6605" height="43.0513" transform="rotate(180 147.629 335.188)" stroke="#EDEDED" stroke-width="0.5"/>
<rect x="322.27" y="292.135" width="43.6605" height="43.0513" transform="rotate(180 322.27 292.135)" stroke="#EDEDED" stroke-width="0.5"/>
<rect x="103.98" y="292.135" width="43.6605" height="43.0513" transform="rotate(180 103.98 292.135)" stroke="#EDEDED" stroke-width="0.5"/>
<rect x="322.27" y="249.082" width="43.6605" height="43.0513" transform="rotate(180 322.27 249.082)" stroke="#EDEDED" stroke-width="0.5"/>
<rect x="278.613" y="292.135" width="43.6605" height="43.0513" transform="rotate(180 278.613 292.135)" stroke="#EDEDED" stroke-width="0.5"/>
<rect x="60.3164" y="292.135" width="43.6605" height="43.0513" transform="rotate(180 60.3164 292.135)" stroke="#EDEDED" stroke-width="0.5"/>
<rect x="278.613" y="249.082" width="43.6605" height="43.0513" transform="rotate(180 278.613 249.082)" stroke="#EDEDED" stroke-width="0.5"/>
<rect x="453.312" y="292.135" width="43.6605" height="43.0513" transform="rotate(180 453.312 292.135)" stroke="#EDEDED" stroke-width="0.5"/>
<rect x="234.949" y="292.135" width="43.6605" height="43.0513" transform="rotate(180 234.949 292.135)" stroke="#EDEDED" stroke-width="0.5"/>
<rect x="16.6602" y="292.135" width="43.6605" height="43.0513" transform="rotate(180 16.6602 292.135)" stroke="#EDEDED" stroke-width="0.5"/>
<rect x="453.312" y="249.082" width="43.6605" height="43.0513" transform="rotate(180 453.312 249.082)" stroke="#EDEDED" stroke-width="0.5"/>
<rect x="234.949" y="249.082" width="43.6605" height="43.0513" transform="rotate(180 234.949 249.082)" stroke="#EDEDED" stroke-width="0.5"/>
<rect x="409.648" y="292.135" width="43.6605" height="43.0513" transform="rotate(180 409.648 292.135)" stroke="#EDEDED" stroke-width="0.5"/>
<rect x="191.293" y="292.135" width="43.6605" height="43.0513" transform="rotate(180 191.293 292.135)" stroke="#EDEDED" stroke-width="0.5"/>
<rect x="409.645" y="249.082" width="43.6605" height="43.0513" transform="rotate(180 409.645 249.082)" stroke="#EDEDED" stroke-width="0.5"/>
<rect x="191.293" y="249.082" width="43.6605" height="43.0513" transform="rotate(180 191.293 249.082)" stroke="#EDEDED" stroke-width="0.5"/>
<rect x="365.98" y="292.135" width="43.6605" height="43.0513" transform="rotate(180 365.98 292.135)" stroke="#EDEDED" stroke-width="0.5"/>
<rect x="147.629" y="292.135" width="43.6605" height="43.0513" transform="rotate(180 147.629 292.135)" stroke="#EDEDED" stroke-width="0.5"/>
<rect x="365.98" y="249.082" width="43.6605" height="43.0513" transform="rotate(180 365.98 249.082)" stroke="#EDEDED" stroke-width="0.5"/>
<rect x="103.98" y="162.982" width="43.6605" height="43.0513" transform="rotate(180 103.98 162.982)" stroke="#EDEDED" stroke-width="0.5"/>
<rect x="278.613" y="206.031" width="43.6605" height="43.0513" transform="rotate(180 278.613 206.031)" stroke="#EDEDED" stroke-width="0.5"/>
<rect x="453.312" y="206.031" width="43.6605" height="43.0513" transform="rotate(180 453.312 206.031)" stroke="#EDEDED" stroke-width="0.5"/>
<rect x="234.949" y="162.982" width="43.6605" height="43.0513" transform="rotate(180 234.949 162.982)" stroke="#EDEDED" stroke-width="0.5"/>
<rect x="16.6602" y="162.982" width="43.6605" height="43.0513" transform="rotate(180 16.6602 162.982)" stroke="#EDEDED" stroke-width="0.5"/>
<rect x="409.645" y="206.031" width="43.6605" height="43.0513" transform="rotate(180 409.645 206.031)" stroke="#EDEDED" stroke-width="0.5"/>
<rect x="191.293" y="206.031" width="43.6605" height="43.0513" transform="rotate(180 191.293 206.031)" stroke="#EDEDED" stroke-width="0.5"/>
<rect x="409.641" y="162.982" width="43.6605" height="43.0513" transform="rotate(180 409.641 162.982)" stroke="#EDEDED" stroke-width="0.5"/>
<rect x="191.293" y="162.982" width="43.6605" height="43.0513" transform="rotate(180 191.293 162.982)" stroke="#EDEDED" stroke-width="0.5"/>
<rect x="365.98" y="162.982" width="43.6605" height="43.0513" transform="rotate(180 365.98 162.982)" stroke="#EDEDED" stroke-width="0.5"/>
<rect x="147.629" y="162.982" width="43.6605" height="43.0513" transform="rotate(180 147.629 162.982)" stroke="#EDEDED" stroke-width="0.5"/>
<rect x="103.98" y="119.93" width="43.6605" height="43.0513" transform="rotate(180 103.98 119.93)" stroke="#EDEDED" stroke-width="0.5"/>
<rect x="103.98" y="76.8789" width="43.6605" height="43.0513" transform="rotate(180 103.98 76.8789)" stroke="#EDEDED" stroke-width="0.5"/>
<rect x="60.3164" y="119.93" width="43.6605" height="43.0513" transform="rotate(180 60.3164 119.93)" stroke="#EDEDED" stroke-width="0.5"/>
<rect x="60.3164" y="76.8789" width="43.6605" height="43.0513" transform="rotate(180 60.3164 76.8789)" stroke="#EDEDED" stroke-width="0.5"/>
<rect x="453.312" y="119.93" width="43.6605" height="43.0513" transform="rotate(180 453.312 119.93)" stroke="#EDEDED" stroke-width="0.5"/>
<rect x="16.6602" y="119.93" width="43.6605" height="43.0513" transform="rotate(180 16.6602 119.93)" stroke="#EDEDED" stroke-width="0.5"/>
<rect x="453.312" y="76.8789" width="43.6605" height="43.0513" transform="rotate(180 453.312 76.8789)" stroke="#EDEDED" stroke-width="0.5"/>
<rect x="409.641" y="119.93" width="43.6605" height="43.0513" transform="rotate(180 409.641 119.93)" stroke="#EDEDED" stroke-width="0.5"/>
<rect x="191.293" y="119.93" width="43.6605" height="43.0513" transform="rotate(180 191.293 119.93)" stroke="#EDEDED" stroke-width="0.5"/>
<rect x="409.641" y="76.8789" width="43.6605" height="43.0513" transform="rotate(180 409.641 76.8789)" stroke="#EDEDED" stroke-width="0.5"/>
<rect x="191.293" y="76.8789" width="43.6605" height="43.0513" transform="rotate(180 191.293 76.8789)" stroke="#EDEDED" stroke-width="0.5"/>
<rect x="147.629" y="76.8789" width="43.6605" height="43.0513" transform="rotate(180 147.629 76.8789)" stroke="#EDEDED" stroke-width="0.5"/>
<rect x="103.98" y="33.8262" width="43.6605" height="43.0513" transform="rotate(180 103.98 33.8262)" stroke="#EDEDED" stroke-width="0.5"/>
<rect x="60.3164" y="33.8262" width="43.6605" height="43.0513" transform="rotate(180 60.3164 33.8262)" stroke="#EDEDED" stroke-width="0.5"/>
<rect x="453.312" y="33.8262" width="43.6605" height="43.0513" transform="rotate(180 453.312 33.8262)" stroke="#EDEDED" stroke-width="0.5"/>
<rect x="191.301" y="378.236" width="43.6605" height="43.0513" transform="rotate(180 191.301 378.236)" stroke="url(#paint0_linear_1200_162172)"/>
<rect x="147.629" y="249.082" width="43.6605" height="43.0513" transform="rotate(180 147.629 249.082)" stroke="url(#paint1_linear_1200_162172)"/>
<rect x="60.3164" y="162.982" width="43.6605" height="43.0513" transform="rotate(180 60.3164 162.982)" stroke="url(#paint2_linear_1200_162172)"/>
<rect x="234.949" y="206.031" width="43.6605" height="43.0513" transform="rotate(180 234.949 206.031)" stroke="url(#paint3_linear_1200_162172)"/>
<rect x="147.629" y="119.93" width="43.6605" height="43.0513" transform="rotate(180 147.629 119.93)" stroke="url(#paint4_linear_1200_162172)"/>
<rect x="409.641" y="163.154" width="43.6605" height="43.0513" transform="rotate(180 409.641 163.154)" stroke="url(#paint5_linear_1200_162172)"/>
<g filter="url(#filter0_b_1200_162172)">
<rect x="80.0703" y="194.129" width="780.105" height="261.435" rx="16.8514" fill="url(#paint6_linear_1200_162172)"/>
<rect x="80.5969" y="194.656" width="779.052" height="260.382" rx="16.3248" stroke="#EDEDED" stroke-width="1.05321"/>
</g>
<g filter="url(#filter1_b_1200_162172)">
<rect x="172.309" y="202.951" width="637.15" height="34.9379" rx="17.4689" fill="#EDEDED"/>
<path fill-rule="evenodd" clip-rule="evenodd" d="M190.618 217.958H193.217V216.623C193.217 215.905 192.635 215.323 191.918 215.323C191.2 215.323 190.618 215.905 190.618 216.623V217.958ZM189.285 217.958H188.306C187.569 217.958 186.973 218.555 186.973 219.291V225.519C186.973 226.255 187.569 226.852 188.306 226.852H195.528C196.264 226.852 196.861 226.255 196.861 225.519V219.291C196.861 218.555 196.264 217.958 195.528 217.958H194.55V216.623C194.55 215.169 193.372 213.99 191.918 213.99C190.464 213.99 189.285 215.169 189.285 216.623V217.958Z" fill="#3E3E3E"/>
<path d="M216.277 221.972C216.306 220.925 216.866 220.099 217.928 220.099C219.167 220.099 219.579 220.895 219.579 221.883V226.145H220.965V221.647C220.965 220.07 220.125 218.846 218.429 218.846C217.618 218.846 216.793 219.126 216.277 219.878V215.469H214.891V226.145H216.277V221.972ZM225.028 216.811H223.76V217.961C223.76 218.58 223.436 219.052 222.669 219.052H222.285V220.306H223.642V224.198C223.642 225.481 224.409 226.218 225.618 226.218C226.09 226.218 226.444 226.13 226.562 226.086V224.906C226.444 224.935 226.193 224.965 226.016 224.965C225.293 224.965 225.028 224.641 225.028 223.992V220.306H226.562V219.052H225.028V216.811ZM230.269 216.811H229.001V217.961C229.001 218.58 228.677 219.052 227.91 219.052H227.527V220.306H228.883V224.198C228.883 225.481 229.65 226.218 230.859 226.218C231.331 226.218 231.685 226.13 231.803 226.086V224.906C231.685 224.935 231.434 224.965 231.257 224.965C230.535 224.965 230.269 224.641 230.269 223.992V220.306H231.803V219.052H230.269V216.811ZM234.88 228.946V225.186C235.264 225.82 236.089 226.336 237.18 226.336C239.259 226.336 240.483 224.7 240.483 222.591C240.483 220.527 239.348 218.89 237.225 218.89C236.075 218.89 235.234 219.45 234.851 220.158V219.052H233.509V228.946H234.88ZM239.068 222.591C239.068 224.051 238.257 225.098 236.974 225.098C235.706 225.098 234.865 224.051 234.865 222.591C234.865 221.175 235.706 220.114 236.974 220.114C238.272 220.114 239.068 221.175 239.068 222.591ZM241.586 224.301C241.704 225.112 242.53 226.366 244.476 226.366C246.231 226.366 247.071 225.171 247.071 224.169C247.071 223.122 246.393 222.34 245.11 222.06L243.96 221.81C243.414 221.692 243.149 221.382 243.149 220.954C243.149 220.468 243.621 220.011 244.328 220.011C245.449 220.011 245.744 220.822 245.803 221.19L247.027 220.733C246.879 220.099 246.275 218.831 244.328 218.831C242.942 218.831 241.807 219.863 241.807 221.072C241.807 222.075 242.471 222.827 243.576 223.063L244.786 223.328C245.375 223.461 245.7 223.8 245.7 224.242C245.7 224.744 245.272 225.186 244.491 225.186C243.488 225.186 242.928 224.596 242.839 223.859L241.586 224.301ZM248.857 225.201C248.857 225.776 249.3 226.218 249.875 226.218C250.45 226.218 250.907 225.776 250.907 225.201C250.907 224.626 250.45 224.169 249.875 224.169C249.3 224.169 248.857 224.626 248.857 225.201ZM248.843 220.011C248.843 220.586 249.285 221.028 249.86 221.028C250.435 221.028 250.892 220.586 250.892 220.011C250.892 219.436 250.435 218.978 249.86 218.978C249.285 218.978 248.843 219.436 248.843 220.011ZM258.413 215.69H257.071L252.013 226.145H253.355L258.413 215.69ZM262.747 215.69H261.405L256.348 226.145H257.689L262.747 215.69ZM262.076 224.301C262.194 225.112 263.02 226.366 264.966 226.366C266.721 226.366 267.561 225.171 267.561 224.169C267.561 223.122 266.883 222.34 265.6 222.06L264.45 221.81C263.905 221.692 263.639 221.382 263.639 220.954C263.639 220.468 264.111 220.011 264.819 220.011C265.939 220.011 266.234 220.822 266.293 221.19L267.517 220.733C267.37 220.099 266.765 218.831 264.819 218.831C263.433 218.831 262.297 219.863 262.297 221.072C262.297 222.075 262.961 222.827 264.067 223.063L265.276 223.328C265.866 223.461 266.19 223.8 266.19 224.242C266.19 224.744 265.762 225.186 264.981 225.186C263.978 225.186 263.418 224.596 263.33 223.859L262.076 224.301ZM274.009 225.289C274.009 225.584 274.038 225.982 274.068 226.145H275.395C275.365 225.894 275.321 225.393 275.321 224.832V219.052H273.935V223.328C273.935 224.405 273.375 225.142 272.254 225.142C271.089 225.142 270.647 224.287 270.647 223.313V219.052H269.261V223.52C269.261 225.127 270.264 226.366 271.915 226.366C272.741 226.366 273.625 226.027 274.009 225.289ZM279.058 228.946V225.186C279.441 225.82 280.267 226.336 281.358 226.336C283.437 226.336 284.661 224.7 284.661 222.591C284.661 220.527 283.525 218.89 281.402 218.89C280.252 218.89 279.411 219.45 279.028 220.158V219.052H277.686V228.946H279.058ZM283.245 222.591C283.245 224.051 282.434 225.098 281.151 225.098C279.883 225.098 279.043 224.051 279.043 222.591C279.043 221.175 279.883 220.114 281.151 220.114C282.449 220.114 283.245 221.175 283.245 222.591ZM285.984 224.242C285.984 225.363 286.913 226.366 288.358 226.366C289.626 226.366 290.334 225.687 290.644 225.186C290.644 225.702 290.688 225.968 290.717 226.145H292.074C292.045 225.968 291.986 225.599 291.986 224.98V221.426C291.986 220.04 291.16 218.831 289.037 218.831C287.503 218.831 286.279 219.775 286.132 221.131L287.459 221.441C287.547 220.615 288.093 220.011 289.066 220.011C290.142 220.011 290.6 220.586 290.6 221.279C290.6 221.529 290.482 221.751 290.054 221.81L288.137 222.09C286.913 222.267 285.984 222.974 285.984 224.242ZM288.55 225.201C287.842 225.201 287.4 224.7 287.4 224.169C287.4 223.535 287.842 223.196 288.432 223.107L290.6 222.783V223.107C290.6 224.655 289.685 225.201 288.55 225.201ZM294.97 222.576C294.97 221.116 295.796 220.084 297.064 220.084C298.332 220.084 299.099 221.087 299.099 222.547C299.099 224.007 298.318 225.112 297.05 225.112C295.722 225.112 294.97 224.036 294.97 222.576ZM299.114 225.186C299.114 225.614 299.158 225.982 299.188 226.145H300.529C300.515 226.027 300.456 225.51 300.456 224.832V215.469H299.084V220.055C298.848 219.48 298.17 218.861 296.917 218.861C294.912 218.861 293.555 220.571 293.555 222.576C293.555 224.685 294.838 226.336 296.917 226.336C298.023 226.336 298.775 225.746 299.114 225.068V225.186ZM305.851 225.127C304.671 225.127 303.639 224.242 303.639 222.591C303.639 220.954 304.671 220.07 305.851 220.07C307.03 220.07 308.062 220.954 308.062 222.591C308.062 224.242 307.03 225.127 305.851 225.127ZM305.851 218.831C303.727 218.831 302.223 220.438 302.223 222.591C302.223 224.759 303.727 226.366 305.851 226.366C307.974 226.366 309.478 224.759 309.478 222.591C309.478 220.438 307.974 218.831 305.851 218.831ZM312.623 226.145V221.868C312.623 220.807 313.286 220.07 314.274 220.07C315.336 220.07 315.778 220.777 315.778 221.692V226.145H317.164V221.854C317.164 220.836 317.828 220.07 318.801 220.07C319.848 220.07 320.305 220.763 320.305 221.692V226.145H321.676V221.544C321.676 219.686 320.467 218.846 319.228 218.846C318.329 218.846 317.415 219.17 316.854 220.188C316.471 219.273 315.616 218.846 314.731 218.846C313.905 218.846 313.021 219.214 312.578 219.996V219.052H311.251V226.145H312.623ZM323.452 224.242C323.452 225.363 324.38 226.366 325.826 226.366C327.094 226.366 327.801 225.687 328.111 225.186C328.111 225.702 328.155 225.968 328.185 226.145H329.541C329.512 225.968 329.453 225.599 329.453 224.98V221.426C329.453 220.04 328.627 218.831 326.504 218.831C324.97 218.831 323.746 219.775 323.599 221.131L324.926 221.441C325.015 220.615 325.56 220.011 326.533 220.011C327.61 220.011 328.067 220.586 328.067 221.279C328.067 221.529 327.949 221.751 327.521 221.81L325.604 222.09C324.38 222.267 323.452 222.974 323.452 224.242ZM326.017 225.201C325.309 225.201 324.867 224.7 324.867 224.169C324.867 223.535 325.309 223.196 325.899 223.107L328.067 222.783V223.107C328.067 224.655 327.153 225.201 326.017 225.201ZM332.983 226.145V219.052H331.612V226.145H332.983ZM331.302 216.369C331.302 216.914 331.745 217.357 332.29 217.357C332.851 217.357 333.293 216.914 333.293 216.369C333.293 215.808 332.851 215.366 332.29 215.366C331.745 215.366 331.302 215.808 331.302 216.369ZM336.727 222.045C336.727 220.969 337.288 220.099 338.379 220.099C339.617 220.099 340.03 220.895 340.03 221.883V226.145H341.416V221.647C341.416 220.07 340.576 218.846 338.88 218.846C338.055 218.846 337.214 219.185 336.698 220.07V219.052H335.341V226.145H336.727V222.045ZM343.474 225.201C343.474 225.776 343.916 226.218 344.491 226.218C345.066 226.218 345.523 225.776 345.523 225.201C345.523 224.626 345.066 224.169 344.491 224.169C343.916 224.169 343.474 224.626 343.474 225.201ZM350.502 220.114C351.711 220.114 352.227 220.925 352.404 221.618L353.657 221.087C353.362 220.011 352.389 218.831 350.502 218.831C348.482 218.831 346.934 220.379 346.934 222.591C346.934 224.744 348.452 226.366 350.517 226.366C352.36 226.366 353.377 225.171 353.716 224.154L352.492 223.623C352.33 224.183 351.844 225.083 350.517 225.083C349.366 225.083 348.349 224.213 348.349 222.591C348.349 220.94 349.381 220.114 350.502 220.114ZM358.308 225.127C357.128 225.127 356.096 224.242 356.096 222.591C356.096 220.954 357.128 220.07 358.308 220.07C359.487 220.07 360.519 220.954 360.519 222.591C360.519 224.242 359.487 225.127 358.308 225.127ZM358.308 218.831C356.184 218.831 354.68 220.438 354.68 222.591C354.68 224.759 356.184 226.366 358.308 226.366C360.431 226.366 361.935 224.759 361.935 222.591C361.935 220.438 360.431 218.831 358.308 218.831ZM365.08 226.145V221.868C365.08 220.807 365.743 220.07 366.731 220.07C367.793 220.07 368.235 220.777 368.235 221.692V226.145H369.621V221.854C369.621 220.836 370.284 220.07 371.258 220.07C372.305 220.07 372.762 220.763 372.762 221.692V226.145H374.133V221.544C374.133 219.686 372.924 218.846 371.685 218.846C370.786 218.846 369.872 219.17 369.311 220.188C368.928 219.273 368.073 218.846 367.188 218.846C366.362 218.846 365.478 219.214 365.035 219.996V219.052H363.708V226.145H365.08Z" fill="#3C3E3E"/>
<rect x="172.309" y="202.951" width="637.15" height="34.9379" rx="17.4689" stroke="#DBDBDB"/>
</g>
<circle cx="105.9" cy="220.425" r="5.20446" fill="#3E3E3E"/>
<circle cx="121.978" cy="220.425" r="5.20446" fill="#3E3E3E"/>
<circle cx="138.056" cy="220.425" r="5.20446" fill="#3E3E3E"/>
<rect x="0.585938" y="-0.835938" width="447.055" height="402.196" fill="url(#paint7_radial_1200_162172)"/>
<g filter="url(#filter2_f_1200_162172)">
<ellipse cx="223.926" cy="-112.641" rx="349" ry="159" fill="url(#paint8_linear_1200_162172)"/>
</g>
<defs>
<filter id="filter0_b_1200_162172" x="24.0864" y="138.145" width="892.073" height="373.403" filterUnits="userSpaceOnUse" color-interpolation-filters="sRGB">
<feFlood flood-opacity="0" result="BackgroundImageFix"/>
<feGaussianBlur in="BackgroundImageFix" stdDeviation="27.992"/>
<feComposite in2="SourceAlpha" operator="in" result="effect1_backgroundBlur_1200_162172"/>
<feBlend mode="normal" in="SourceGraphic" in2="effect1_backgroundBlur_1200_162172" result="shape"/>
</filter>
<filter id="filter1_b_1200_162172" x="171.471" y="202.114" width="638.823" height="36.6122" filterUnits="userSpaceOnUse" color-interpolation-filters="sRGB">
<feFlood flood-opacity="0" result="BackgroundImageFix"/>
<feGaussianBlur in="BackgroundImageFix" stdDeviation="0.168672"/>
<feComposite in2="SourceAlpha" operator="in" result="effect1_backgroundBlur_1200_162172"/>
<feBlend mode="normal" in="SourceGraphic" in2="effect1_backgroundBlur_1200_162172" result="shape"/>
</filter>
<filter id="filter2_f_1200_162172" x="-259.951" y="-406.517" width="967.754" height="587.754" filterUnits="userSpaceOnUse" color-interpolation-filters="sRGB">
<feFlood flood-opacity="0" result="BackgroundImageFix"/>
<feBlend mode="normal" in="SourceGraphic" in2="BackgroundImageFix" result="shape"/>
<feGaussianBlur stdDeviation="67.4384" result="effect1_foregroundBlur_1200_162172"/>
</filter>
<linearGradient id="paint0_linear_1200_162172" x1="213.131" y1="378.236" x2="213.131" y2="421.288" gradientUnits="userSpaceOnUse">
<stop stop-color="#00FFF0" stop-opacity="0.12"/>
<stop offset="1" stop-color="#00C5A1" stop-opacity="0.29"/>
</linearGradient>
<linearGradient id="paint1_linear_1200_162172" x1="169.459" y1="249.082" x2="169.459" y2="292.133" gradientUnits="userSpaceOnUse">
<stop stop-color="#00FFF0" stop-opacity="0.12"/>
<stop offset="1" stop-color="#00C5A1" stop-opacity="0.29"/>
</linearGradient>
<linearGradient id="paint2_linear_1200_162172" x1="82.1466" y1="162.982" x2="82.1466" y2="206.034" gradientUnits="userSpaceOnUse">
<stop stop-color="#00FFF0" stop-opacity="0.12"/>
<stop offset="1" stop-color="#00C5A1" stop-opacity="0.29"/>
</linearGradient>
<linearGradient id="paint3_linear_1200_162172" x1="256.779" y1="206.031" x2="256.779" y2="249.083" gradientUnits="userSpaceOnUse">
<stop stop-color="#00FFF0" stop-opacity="0.12"/>
<stop offset="1" stop-color="#00C5A1" stop-opacity="0.29"/>
</linearGradient>
<linearGradient id="paint4_linear_1200_162172" x1="169.459" y1="119.93" x2="169.459" y2="162.981" gradientUnits="userSpaceOnUse">
<stop stop-color="#00FFF0" stop-opacity="0.12"/>
<stop offset="1" stop-color="#00C5A1" stop-opacity="0.29"/>
</linearGradient>
<linearGradient id="paint5_linear_1200_162172" x1="431.471" y1="163.154" x2="431.471" y2="206.206" gradientUnits="userSpaceOnUse">
<stop stop-color="#00FFF0" stop-opacity="0.12"/>
<stop offset="1" stop-color="#00C5A1" stop-opacity="0.29"/>
</linearGradient>
<linearGradient id="paint6_linear_1200_162172" x1="470.123" y1="194.129" x2="470.123" y2="455.564" gradientUnits="userSpaceOnUse">
<stop stop-color="#EDEDED"/>
<stop offset="1" stop-color="white" stop-opacity="0"/>
</linearGradient>
<radialGradient id="paint7_radial_1200_162172" cx="0" cy="0" r="1" gradientUnits="userSpaceOnUse" gradientTransform="translate(205.599 217.932) rotate(-180) scale(283.814 281.164)">
<stop stop-color="white" stop-opacity="0"/>
<stop offset="0.630208" stop-color="white" stop-opacity="0.35"/>
<stop offset="1" stop-color="white" stop-opacity="0.88"/>
</radialGradient>
<linearGradient id="paint8_linear_1200_162172" x1="57.2148" y1="-409.966" x2="216.796" y2="125.987" gradientUnits="userSpaceOnUse">
<stop stop-color="#39617D" stop-opacity="0.49"/>
<stop offset="0.9999" stop-color="#00DED1" stop-opacity="0.46"/>
<stop offset="1" stop-color="white" stop-opacity="0.51"/>
</linearGradient>
</defs>
</svg>
