<svg width="448" height="400" viewBox="0 0 448 400" fill="none" xmlns="http://www.w3.org/2000/svg">
<rect x="-11.4883" y="-16.6172" width="476.973" height="430.908" fill="white"/>
<path d="M-152.426 223.468C-127.612 219.483 -99.4041 215.842 -67.9502 213.136C29.3002 205.246 127.114 207.72 223.841 220.516" stroke="#6AA99B" stroke-width="0.5" stroke-miterlimit="10"/>
<path d="M-151.594 189.667C-126.509 187.945 -98.1048 186.838 -66.5279 186.986C31.0359 187.828 128.233 199.06 223.419 220.49" stroke="#6AA99B" stroke-width="0.5" stroke-miterlimit="10"/>
<path d="M-147.703 156.113C-122.594 156.63 -94.1896 158.081 -62.7602 161.033C34.3393 170.632 130.142 190.538 223.03 220.415" stroke="#6AA99B" stroke-width="0.5" stroke-miterlimit="10"/>
<path d="M-140.844 123.027C-115.735 125.782 -87.7237 129.767 -56.7124 135.548C39.1391 153.808 132.775 182.224 222.61 220.317" stroke="#6AA99B" stroke-width="0.5" stroke-miterlimit="10"/>
<path d="M-131.059 90.6797C-106.466 95.5995 -78.7255 102.167 -48.3537 110.703C45.4405 137.506 136.122 174.2 222.165 220.169" stroke="#6AA99B" stroke-width="0.5" stroke-miterlimit="10"/>
<path d="M-118.387 59.3398C-94.3106 66.5228 -67.3079 75.5014 -37.7968 86.7186C53.2494 121.807 140.305 166.484 221.901 219.996" stroke="#6AA99B" stroke-width="0.5" stroke-miterlimit="10"/>
<path d="M-102.969 29.2812C-79.6304 38.6043 -53.5376 49.9444 -25.1577 63.7199C62.3757 106.838 145.078 159.142 221.555 219.752" stroke="#6AA99B" stroke-width="0.5" stroke-miterlimit="10"/>
<path d="M-84.9219 0.720703C-62.518 12.0855 -37.5565 25.7133 -10.5292 42.0471C72.7829 92.8288 150.457 152.333 221.182 219.554" stroke="#6AA99B" stroke-width="0.5" stroke-miterlimit="10"/>
<path d="M-64.3828 -26.1172C-43.0856 -12.7845 -19.4521 3.03267 6.00122 21.7033C84.4373 79.7586 156.48 145.991 220.916 219.283" stroke="#6AA99B" stroke-width="0.5" stroke-miterlimit="10"/>
<path d="M-41.5352 -50.9863C-21.4922 -35.8087 0.616574 -17.9498 24.2993 2.93475C97.2186 67.79 163.03 140.224 220.622 219.013" stroke="#6AA99B" stroke-width="0.5" stroke-miterlimit="10"/>
<path d="M-16.5273 -73.7402C2.04007 -56.8161 22.4765 -37.0139 44.118 -14.1122C110.927 57.0252 169.986 135.065 220.299 218.693" stroke="#6AA99B" stroke-width="0.5" stroke-miterlimit="10"/>
<path d="M10.3984 -94.209C27.3919 -75.6859 45.9593 -54.1372 65.5351 -29.3659C125.701 47.4664 177.53 130.479 220.149 218.273" stroke="#6AA99B" stroke-width="0.5" stroke-miterlimit="10"/>
<path d="M39.0508 -112.041C54.3228 -92.0666 71.0212 -68.9435 88.236 -42.5242C141.248 39.4043 185.402 126.738 219.954 218.004" stroke="#6AA99B" stroke-width="0.5" stroke-miterlimit="10"/>
<path d="M69.2031 -127.293C82.6061 -106.039 97.042 -81.5388 111.871 -53.6681C157.363 32.6804 193.538 123.627 219.784 217.635" stroke="#6AA99B" stroke-width="0.5" stroke-miterlimit="10"/>
<path d="M100.68 -139.789C112.14 -117.429 124.313 -91.7226 136.585 -62.6219C174.147 27.4537 202.027 121.269 219.757 217.241" stroke="#6AA99B" stroke-width="0.5" stroke-miterlimit="10"/>
<path d="M132.969 -149.432C142.486 -126.186 152.323 -99.4218 161.816 -69.3618C191.144 23.7264 210.501 119.668 219.559 216.848" stroke="#6AA99B" stroke-width="0.5" stroke-miterlimit="10"/>
<path d="M166.074 -156.123C173.452 -132.065 180.83 -104.465 187.642 -73.7901C208.557 21.5588 219.274 118.862 219.612 216.479" stroke="#6AA99B" stroke-width="0.5" stroke-miterlimit="10"/>
<path d="M199.668 -159.812C204.759 -135.213 209.653 -107.171 213.76 -75.8806C226.005 20.947 227.925 118.802 219.49 216.036" stroke="#6AA99B" stroke-width="0.5" stroke-miterlimit="10"/>
<path d="M233.481 -160.477C236.359 -135.509 238.72 -107.17 239.999 -75.6099C243.512 21.9598 236.637 119.627 219.488 215.741" stroke="#6AA99B" stroke-width="0.5" stroke-miterlimit="10"/>
<path d="M267.126 -158.166C267.741 -133.05 267.568 -104.589 266.019 -73.0534C260.795 24.3999 245.214 121.02 219.539 215.174" stroke="#6AA99B" stroke-width="0.5" stroke-miterlimit="10"/>
<path d="M300.497 -152.756C298.85 -127.665 296.12 -99.3514 291.742 -68.086C277.797 28.4998 253.626 123.329 219.637 214.803" stroke="#6AA99B" stroke-width="0.5" stroke-miterlimit="10"/>
<path d="M333.228 -144.414C329.342 -119.569 324.08 -91.6245 316.923 -60.7773C294.379 34.178 261.807 126.467 219.758 214.535" stroke="#6AA99B" stroke-width="0.5" stroke-miterlimit="10"/>
<path d="M365.076 -133.172C359.002 -108.77 351.255 -81.3909 341.369 -51.4293C310.414 41.1299 269.697 130.13 219.906 214.068" stroke="#6AA99B" stroke-width="0.5" stroke-miterlimit="10"/>
<path d="M395.792 -119.102C387.529 -95.3635 377.372 -68.7965 364.83 -39.8189C325.695 49.5858 277.172 134.577 220.078 213.723" stroke="#6AA99B" stroke-width="0.5" stroke-miterlimit="10"/>
<path d="M425.152 -102.35C414.799 -79.4479 402.306 -53.8895 387.206 -26.0926C340.216 59.3894 284.273 139.632 220.32 213.281" stroke="#6AA99B" stroke-width="0.5" stroke-miterlimit="10"/>
<path d="M452.872 -83.0391C440.576 -61.1459 425.82 -36.8175 408.261 -10.5457C353.797 70.4325 290.88 145.389 220.57 213.06" stroke="#6AA99B" stroke-width="0.5" stroke-miterlimit="10"/>
<path d="M478.745 -61.3203C464.481 -40.6079 447.611 -17.7062 427.764 6.89282C366.263 82.6589 296.882 151.67 220.793 212.762" stroke="#6AA99B" stroke-width="0.5" stroke-miterlimit="10"/>
<path d="M502.572 -37.3574C486.489 -18.0226 467.651 3.28019 445.739 26.0097C377.706 95.9563 302.431 158.469 221.184 212.495" stroke="#6AA99B" stroke-width="0.5" stroke-miterlimit="10"/>
<path d="M524.142 -11.3574C506.41 6.45228 485.728 25.9839 461.873 46.6471C387.837 110.214 307.253 165.726 221.48 212.248" stroke="#6AA99B" stroke-width="0.5" stroke-miterlimit="10"/>
<path d="M543.351 16.4902C524.07 32.6518 501.74 50.2401 476.115 68.6894C396.685 125.364 311.45 173.422 221.852 212.053" stroke="#6AA99B" stroke-width="0.5" stroke-miterlimit="10"/>
<path d="M559.905 46.0059C539.296 60.3471 515.466 75.8691 488.291 91.9569C404.101 141.284 314.901 181.508 222.199 211.951" stroke="#6AA99B" stroke-width="0.5" stroke-miterlimit="10"/>
<path d="M573.79 76.709C551.952 89.1561 526.843 102.489 498.34 116.067C410.067 157.654 317.619 189.723 222.559 211.733" stroke="#6AA99B" stroke-width="0.5" stroke-miterlimit="10"/>
<path d="M584.883 108.637C562.011 119.067 535.697 130.087 506.186 141.058C414.543 174.552 319.598 198.202 222.953 211.608" stroke="#6AA99B" stroke-width="0.5" stroke-miterlimit="10"/>
<path d="M593.046 141.428C569.339 149.767 542.238 158.401 511.891 166.666C417.612 191.808 320.928 206.849 223.469 211.535" stroke="#6AA99B" stroke-width="0.5" stroke-miterlimit="10"/>
<path d="M598.239 174.809C573.892 181.008 546.127 187.108 515.042 192.667C418.851 209.251 321.169 215.559 223.645 211.486" stroke="#6AA99B" stroke-width="0.5" stroke-miterlimit="10"/>
<path d="M600.431 208.533C575.617 212.518 547.409 216.159 515.955 218.84C418.705 226.74 320.891 224.266 224.164 211.46" stroke="#6AA99B" stroke-width="0.5" stroke-miterlimit="10"/>
<path d="M599.571 242.31C574.511 244.056 546.082 245.163 514.53 245.016C416.959 244.16 319.755 232.929 224.559 211.512" stroke="#6AA99B" stroke-width="0.5" stroke-miterlimit="10"/>
<path d="M595.702 275.885C570.569 275.368 542.189 273.917 510.759 270.965C413.66 261.376 317.857 241.479 224.969 211.607" stroke="#6AA99B" stroke-width="0.5" stroke-miterlimit="10"/>
<path d="M588.842 308.973C563.856 306.218 535.697 302.208 504.686 296.427C408.836 278.175 315.2 249.767 225.363 211.684" stroke="#6AA99B" stroke-width="0.5" stroke-miterlimit="10"/>
<path d="M579.036 341.319C554.444 336.4 526.728 329.807 496.331 321.271C402.536 294.483 311.853 257.796 225.812 211.83" stroke="#6AA99B" stroke-width="0.5" stroke-miterlimit="10"/>
<path d="M566.389 372.634C542.289 365.451 515.311 356.497 485.8 345.28C394.758 310.181 307.703 265.504 226.102 212.002" stroke="#6AA99B" stroke-width="0.5" stroke-miterlimit="10"/>
<path d="M550.973 402.693C527.635 393.37 501.542 382.03 473.162 368.254C385.625 325.142 302.922 272.837 226.449 212.223" stroke="#6AA99B" stroke-width="0.5" stroke-miterlimit="10"/>
<path d="M532.926 431.278C510.497 419.914 485.56 406.261 458.533 389.952C375.212 339.172 297.53 279.668 226.797 212.445" stroke="#6AA99B" stroke-width="0.5" stroke-miterlimit="10"/>
<path d="M512.385 458.114C491.063 444.781 467.429 428.964 441.976 410.293C363.539 352.239 291.503 285.998 227.086 212.689" stroke="#6AA99B" stroke-width="0.5" stroke-miterlimit="10"/>
<path d="M489.515 482.983C469.571 467.806 447.437 449.922 423.706 429.038C350.788 364.19 284.976 291.764 227.383 212.984" stroke="#6AA99B" stroke-width="0.5" stroke-miterlimit="10"/>
<path d="M464.652 505.713C446.06 488.788 425.649 469.011 403.933 446.085C337.076 374.958 277.975 296.917 227.629 213.279" stroke="#6AA99B" stroke-width="0.5" stroke-miterlimit="10"/>
<path d="M437.598 526.132C420.604 507.609 402.037 486.06 382.461 461.289C322.296 384.457 270.466 301.444 227.848 213.65" stroke="#6AA99B" stroke-width="0.5" stroke-miterlimit="10"/>
<path d="M408.95 544.015C393.678 524.065 377.102 500.942 359.764 474.523C306.732 392.595 262.553 305.261 227.973 213.994" stroke="#6AA99B" stroke-width="0.5" stroke-miterlimit="10"/>
<path d="M378.795 559.289C365.392 538.035 350.957 513.51 336.127 485.639C290.632 399.301 254.457 308.362 228.215 214.361" stroke="#6AA99B" stroke-width="0.5" stroke-miterlimit="10"/>
<path d="M347.421 571.788C335.961 549.403 323.788 523.697 311.516 494.621C273.954 404.545 246.073 310.73 228.344 214.758" stroke="#6AA99B" stroke-width="0.5" stroke-miterlimit="10"/>
<path d="M315.034 581.43C305.64 558.11 295.803 531.42 286.187 501.336C256.899 408.252 237.583 312.318 228.566 215.15" stroke="#6AA99B" stroke-width="0.5" stroke-miterlimit="10"/>
<path d="M281.933 588.12C274.555 564.038 267.177 536.585 260.365 505.763C239.448 410.414 228.731 313.111 228.395 215.494" stroke="#6AA99B" stroke-width="0.5" stroke-miterlimit="10"/>
<path d="M248.238 591.812C243.147 567.212 238.253 539.17 234.146 507.855C221.95 411.03 220.079 313.183 228.563 215.963" stroke="#6AA99B" stroke-width="0.5" stroke-miterlimit="10"/>
<path d="M214.574 592.475C211.696 567.507 209.336 539.144 208.057 507.608C204.55 410.071 211.426 312.438 228.567 216.355" stroke="#6AA99B" stroke-width="0.5" stroke-miterlimit="10"/>
<path d="M180.852 590.114C180.237 564.974 180.434 536.537 181.983 505.001C187.256 407.538 202.87 310.912 228.561 216.75" stroke="#6AA99B" stroke-width="0.5" stroke-miterlimit="10"/>
<path d="M147.406 584.729C149.054 559.638 151.784 531.324 156.161 500.059C170.091 403.47 194.263 308.639 228.267 217.17" stroke="#6AA99B" stroke-width="0.5" stroke-miterlimit="10"/>
<path d="M114.773 576.389C118.659 551.568 123.897 523.599 131.078 492.752C153.616 397.794 186.187 305.504 228.244 217.439" stroke="#6AA99B" stroke-width="0.5" stroke-miterlimit="10"/>
<path d="M82.9219 565.047C88.9962 540.67 96.7429 513.389 106.629 483.305C137.584 390.753 178.301 301.761 228.092 217.832" stroke="#6AA99B" stroke-width="0.5" stroke-miterlimit="10"/>
<path d="M52.1836 551.1C60.4467 527.362 70.6035 500.795 83.1457 471.817C122.265 382.382 170.789 297.364 227.898 218.201" stroke="#6AA99B" stroke-width="0.5" stroke-miterlimit="10"/>
<path d="M22.8398 534.346C33.1933 511.444 45.6864 485.886 60.7862 458.089C107.77 372.558 163.713 292.267 227.672 218.568" stroke="#6AA99B" stroke-width="0.5" stroke-miterlimit="10"/>
<path d="M-4.86719 515.036C7.42912 493.143 22.1847 468.814 39.7438 442.543C94.2077 361.564 157.125 286.608 227.435 218.938" stroke="#6AA99B" stroke-width="0.5" stroke-miterlimit="10"/>
<path d="M-30.7383 493.315C-16.4746 472.603 0.395961 449.701 20.1684 425.102C81.6772 349.334 151.066 280.323 227.164 219.232" stroke="#6AA99B" stroke-width="0.5" stroke-miterlimit="10"/>
<path d="M-54.5703 469.358C-38.4867 450.023 -19.6488 428.721 2.26321 405.991C70.3036 336.043 145.587 273.53 226.843 219.506" stroke="#6AA99B" stroke-width="0.5" stroke-miterlimit="10"/>
<path d="M-76.1406 443.355C-58.4094 425.545 -37.7516 406.014 -13.8722 385.351C60.1577 321.775 140.743 266.262 226.521 219.75" stroke="#6AA99B" stroke-width="0.5" stroke-miterlimit="10"/>
<path d="M-95.3242 415.534C-76.0682 399.373 -53.7135 381.784 -28.088 363.335C51.3193 306.659 136.528 258.593 226.101 219.947" stroke="#6AA99B" stroke-width="0.5" stroke-miterlimit="10"/>
<path d="M-111.922 386.092C-91.2887 371.726 -67.4584 356.204 -40.2836 340.141C43.9048 290.81 133.105 250.585 225.808 220.146" stroke="#6AA99B" stroke-width="0.5" stroke-miterlimit="10"/>
<path d="M-125.793 355.294C-103.979 342.847 -78.8457 329.515 -50.3429 315.936C37.9346 274.366 130.382 242.306 225.439 220.295" stroke="#6AA99B" stroke-width="0.5" stroke-miterlimit="10"/>
<path d="M-136.883 323.362C-114.012 312.908 -87.6976 301.912 -58.1865 290.941C33.4562 257.444 128.402 233.794 225.047 220.391" stroke="#6AA99B" stroke-width="0.5" stroke-miterlimit="10"/>
<path d="M-145.047 290.572C-121.34 282.233 -94.2385 273.599 -63.7683 265.334C30.5103 240.192 127.195 225.151 224.654 220.465" stroke="#6AA99B" stroke-width="0.5" stroke-miterlimit="10"/>
<path d="M-150.16 257.191C-125.813 250.992 -98.0484 244.892 -66.9634 239.332C29.1863 222.745 126.827 216.436 224.311 220.514" stroke="#6AA99B" stroke-width="0.5" stroke-miterlimit="10"/>
<rect x="-0.0546875" y="-1.09766" width="448.055" height="402.196" fill="url(#paint0_radial_1208_57531)"/>
<g filter="url(#filter0_f_1208_57531)">
<ellipse cx="222.836" cy="-137.582" rx="349" ry="159" fill="url(#paint1_linear_1208_57531)"/>
</g>
<defs>
<filter id="filter0_f_1208_57531" x="-261.041" y="-431.459" width="967.754" height="587.754" filterUnits="userSpaceOnUse" color-interpolation-filters="sRGB">
<feFlood flood-opacity="0" result="BackgroundImageFix"/>
<feBlend mode="normal" in="SourceGraphic" in2="BackgroundImageFix" result="shape"/>
<feGaussianBlur stdDeviation="67.4384" result="effect1_foregroundBlur_1208_57531"/>
</filter>
<radialGradient id="paint0_radial_1208_57531" cx="0" cy="0" r="1" gradientUnits="userSpaceOnUse" gradientTransform="translate(231.088 218.979) rotate(90) scale(221.729 221.729)">
<stop stop-color="white" stop-opacity="0"/>
<stop offset="1" stop-color="white"/>
</radialGradient>
<linearGradient id="paint1_linear_1208_57531" x1="56.125" y1="-434.907" x2="215.706" y2="101.046" gradientUnits="userSpaceOnUse">
<stop stop-color="#39617D" stop-opacity="0.49"/>
<stop offset="0.9999" stop-color="#00DED1" stop-opacity="0.46"/>
<stop offset="1" stop-color="white" stop-opacity="0.51"/>
</linearGradient>
</defs>
</svg>
