<svg width="503" height="43" viewBox="0 0 503 43" fill="none" xmlns="http://www.w3.org/2000/svg">
<path d="M0.6875 26.8131C0.942986 29.2026 3.1161 33.2988 9.42263 33.2988C14.9192 33.2988 17.5615 29.7999 17.5615 26.3864C17.5615 23.3142 15.4732 20.7967 11.3403 19.9432L8.35718 19.3032C7.20686 19.0899 6.43998 18.4499 6.43998 17.4258C6.43998 16.231 7.63295 15.335 9.12449 15.335C11.5104 15.335 12.4053 16.9137 12.5759 18.1512L17.3056 17.0844C17.0501 14.8229 15.0472 11.0254 9.08184 11.0254C4.56499 11.0254 1.24155 14.1403 1.24155 17.8951C1.24155 20.8393 3.07345 23.2716 7.12155 24.1675L9.89138 24.8076C11.5104 25.1489 12.1498 25.9171 12.1498 26.8558C12.1498 27.9652 11.255 28.9466 9.37998 28.9466C6.90872 28.9466 5.67266 27.4104 5.54513 25.7463L0.6875 26.8131Z" fill="white"/>
<path d="M35.6723 32.6595H41.084C40.9986 31.9341 40.8707 30.4833 40.8707 28.8618V11.666H35.2031V23.8695C35.2031 26.3017 33.7546 28.0084 31.2407 28.0084C28.5989 28.0084 27.4055 26.131 27.4055 23.7842V11.666H21.7383V24.9363C21.7383 29.5019 24.6356 33.2142 29.7065 33.2142C31.9219 33.2142 34.3518 32.3608 35.5021 30.398C35.5021 31.2513 35.587 32.2327 35.6723 32.6595Z" fill="white"/>
<path d="M52.5847 40.7672V30.6119C53.6071 32.02 55.738 33.1721 58.6358 33.1721C64.5584 33.1721 68.5208 28.4784 68.5208 22.1206C68.5208 15.8909 64.9845 11.1973 58.8486 11.1973C55.6957 11.1973 53.352 12.6053 52.4145 14.2268V11.6666H46.918V40.7672H52.5847ZM62.9389 22.1633C62.9389 25.9183 60.6383 28.0944 57.7405 28.0944C54.8436 28.0944 52.4998 25.8756 52.4998 22.1633C52.4998 18.4511 54.8436 16.2749 57.7405 16.2749C60.6383 16.2749 62.9389 18.4511 62.9389 22.1633Z" fill="white"/>
<path d="M71.7305 26.9411C71.7305 30.2267 74.4572 33.2562 78.9318 33.2562C82.0416 33.2562 84.0445 31.8054 85.1096 30.1413C85.1096 30.952 85.1949 32.1041 85.3228 32.6588H90.5212C90.3933 31.9334 90.2662 30.44 90.2662 29.3306V19.0045C90.2662 14.7802 87.7945 11.0254 81.1476 11.0254C75.5227 11.0254 72.4969 14.6522 72.1566 17.9378L77.1844 19.0045C77.355 17.1698 78.7186 15.591 81.1894 15.591C83.5762 15.591 84.7265 16.8284 84.7265 18.3218C84.7265 19.0472 84.3435 19.6446 83.1501 19.8153L77.9943 20.5833C74.5003 21.0954 71.7305 23.1861 71.7305 26.9411ZM80.1244 29.0319C78.2925 29.0319 77.3972 27.8372 77.3972 26.5998C77.3972 24.9783 78.5475 24.1675 79.9969 23.9542L84.7265 23.2289V24.1675C84.7265 27.8799 82.5108 29.0319 80.1244 29.0319Z" fill="white"/>
<path d="M101.477 32.6604V30.1002C102.585 31.8923 104.8 33.1724 107.698 33.1724C113.664 33.1724 117.585 28.4361 117.585 22.0783C117.585 15.8485 114.047 11.1122 107.912 11.1122C104.8 11.1122 102.5 12.4777 101.562 13.971V1.76758H95.9805V32.6604H101.477ZM111.917 22.1209C111.917 25.9612 109.616 28.0947 106.718 28.0947C103.863 28.0947 101.477 25.9186 101.477 22.1209C101.477 18.2807 103.863 16.1899 106.718 16.1899C109.616 16.1899 111.917 18.2807 111.917 22.1209Z" fill="white"/>
<path d="M120.793 26.9411C120.793 30.2267 123.52 33.2562 127.994 33.2562C131.104 33.2562 133.107 31.8054 134.172 30.1413C134.172 30.952 134.258 32.1041 134.385 32.6588H139.584C139.457 31.9334 139.329 30.44 139.329 29.3306V19.0045C139.329 14.7802 136.857 11.0254 130.21 11.0254C124.585 11.0254 121.56 14.6522 121.219 17.9378L126.246 19.0045C126.417 17.1698 127.781 15.591 130.252 15.591C132.639 15.591 133.789 16.8284 133.789 18.3218C133.789 19.0472 133.406 19.6446 132.212 19.8153L127.057 20.5833C123.563 21.0954 120.793 23.1861 120.793 26.9411ZM129.187 29.0319C127.355 29.0319 126.46 27.8372 126.46 26.5998C126.46 24.9783 127.61 24.1675 129.059 23.9542L133.789 23.2289V24.1675C133.789 27.8799 131.573 29.0319 129.187 29.0319Z" fill="white"/>
<path d="M143.25 26.8131C143.505 29.2026 145.679 33.2988 151.985 33.2988C157.482 33.2988 160.123 29.7999 160.123 26.3864C160.123 23.3142 158.036 20.7967 153.902 19.9432L150.919 19.3032C149.769 19.0899 149.002 18.4499 149.002 17.4258C149.002 16.231 150.195 15.335 151.687 15.335C154.073 15.335 154.968 16.9137 155.139 18.1512L159.868 17.0844C159.612 14.8229 157.61 11.0254 151.644 11.0254C147.127 11.0254 143.804 14.1403 143.804 17.8951C143.804 20.8393 145.636 23.2716 149.684 24.1675L152.454 24.8076C154.073 25.1489 154.712 25.9171 154.712 26.8558C154.712 27.9652 153.817 28.9466 151.942 28.9466C149.471 28.9466 148.236 27.4104 148.108 25.7463L143.25 26.8131Z" fill="white"/>
<path d="M168.733 19.7726C168.861 17.8525 170.481 15.6336 173.421 15.6336C176.659 15.6336 178.023 17.6818 178.108 19.7726H168.733ZM178.662 25.2343C177.98 27.1117 176.531 28.4345 173.889 28.4345C171.077 28.4345 168.733 26.429 168.606 23.6556H183.605C183.605 23.5701 183.69 22.7168 183.69 21.906C183.69 15.1643 179.813 11.0254 173.335 11.0254C167.967 11.0254 163.023 15.3776 163.023 22.0768C163.023 29.1599 168.094 33.2988 173.847 33.2988C179.003 33.2988 182.326 30.2693 183.392 26.6424L178.662 25.2343Z" fill="white"/>
<path d="M211.785 31.2676V28.0203H202.527V11.0718H199.109V31.2676H211.785ZM233.359 31.2676H237.09L229.228 11.0718H225.269L217.407 31.2676H221.025L222.905 26.1973H231.45L233.359 31.2676ZM227.177 14.7748L230.254 23.0354H224.101L227.177 14.7748ZM250.859 31.6949C255.103 31.6949 258.407 29.1027 258.407 24.2318V11.0718H254.989V24.0324C254.989 26.8809 253.451 28.4476 250.859 28.4476C248.295 28.4476 246.728 26.8809 246.728 24.0324V11.0718H243.338V24.2318C243.338 29.1027 246.643 31.6949 250.859 31.6949ZM284.232 31.2676V11.0718H280.814V25.3997L271.642 11.0718H267.283V31.2676H270.702V15.9712L280.671 31.2676H284.232ZM302.31 31.6949C307.466 31.6949 310.542 28.4191 311.454 25.0009L308.32 23.9754C307.637 26.2542 305.7 28.4191 302.31 28.4191C298.863 28.4191 295.616 25.9124 295.616 21.1839C295.616 16.2845 298.949 13.8633 302.281 13.8633C305.671 13.8633 307.551 15.8287 308.149 18.2784L311.368 17.196C310.457 13.6639 307.409 10.6445 302.281 10.6445C297.04 10.6445 292.112 14.6039 292.112 21.1839C292.112 27.7639 296.869 31.6949 302.31 31.6949ZM335.546 31.2676V11.0718H332.1V19.4178H322.614V11.0718H319.196V31.2676H322.614V22.6366H332.1V31.2676H335.546ZM374.69 25.9409L369.876 11.0718H366.315L361.587 25.827L357.542 11.0718H353.953L359.679 31.2676H363.182L368.082 15.9997L372.981 31.2676H376.513L382.182 11.0718H378.649L374.69 25.9409ZM401.711 31.2676V28.0773H392.653V22.7221H400.856V19.6172H392.653V14.2621H401.711V11.0718H389.235V31.2676H401.711ZM422.563 31.2676V28.0773H413.505V22.7221H421.708V19.6172H413.505V14.2621H422.563V11.0718H410.086V31.2676H422.563ZM443.329 31.2676H447.63L439.37 19.9875L447.545 11.0718H443.044L434.356 20.7566V11.0718H430.938V31.2676H434.356V25.4567L437.034 22.5227L443.329 31.2676Z" fill="url(#paint0_linear_378_49268)"/>
<rect x="467.24" y="3.85292" width="34.8298" height="34.8298" rx="7.44786" fill="url(#paint1_linear_378_49268)"/>
<path d="M490.295 14.2196C489.575 13.7156 488.351 13.3556 486.935 13.3556C482.399 13.3556 478.919 16.6436 478.919 22.4276C478.919 27.5636 482.015 29.6276 484.991 29.6276C488.039 29.6276 490.751 27.6596 490.751 24.3236C490.751 20.9396 488.495 19.0196 485.423 19.0196C483.359 19.0196 481.943 20.0036 481.319 21.0356C481.511 17.8436 483.551 15.4676 486.791 15.4676C487.967 15.4676 488.999 15.8036 489.575 16.1396L490.295 14.2196ZM481.655 24.3236C481.655 22.2356 483.215 21.0356 485.015 21.0356C486.815 21.0356 488.375 22.2356 488.375 24.3236C488.375 26.3876 486.839 27.5876 485.015 27.5876C483.311 27.5876 481.655 26.3636 481.655 24.3236Z" fill="url(#paint2_linear_378_49268)"/>
<rect x="467.24" y="3.85292" width="34.8298" height="34.8298" rx="7.44786" stroke="url(#paint3_linear_378_49268)" stroke-width="1.10428"/>
<defs>
<linearGradient id="paint0_linear_378_49268" x1="258.522" y1="-1.42179" x2="458.156" y2="-1.4218" gradientUnits="userSpaceOnUse">
<stop stop-color="white"/>
<stop offset="1" stop-color="white" stop-opacity="0.62"/>
</linearGradient>
<linearGradient id="paint1_linear_378_49268" x1="477.601" y1="13.7034" x2="496.163" y2="53.099" gradientUnits="userSpaceOnUse">
<stop stop-color="white" stop-opacity="0.42"/>
<stop offset="1" stop-color="#B1B1B1" stop-opacity="0"/>
</linearGradient>
<linearGradient id="paint2_linear_378_49268" x1="453.653" y1="9.12603" x2="504.752" y2="17.0552" gradientUnits="userSpaceOnUse">
<stop stop-color="#F5F5F5"/>
<stop offset="1" stop-color="white" stop-opacity="0.62"/>
</linearGradient>
<linearGradient id="paint3_linear_378_49268" x1="489.48" y1="3.37524" x2="499.361" y2="16.4585" gradientUnits="userSpaceOnUse">
<stop stop-color="white"/>
<stop offset="1" stop-color="white" stop-opacity="0.06"/>
</linearGradient>
</defs>
</svg>
