<svg width="96" height="96" viewBox="0 0 96 96" fill="none" xmlns="http://www.w3.org/2000/svg">
<path d="M0 48L3.771 51.7707L17.227 65.2267L21.003 68.9973L24.773 65.2267L38.229 51.7707L42 48L38.229 44.2293L24.773 30.7733L21.003 27.0027L17.227 30.7733L3.771 44.2293L0 48Z" fill="#E54D2E"/>
<path d="M54 48L57.771 51.7707L71.227 65.2267L75.003 68.9973L78.773 65.2267L92.229 51.7707L96 48L92.229 44.2293L78.773 30.7733L75.003 27.0027L71.227 30.7733L57.771 44.2293L54 48Z" fill="#FFB224"/>
<path d="M27 74.9973L30.771 78.768L44.227 92.224L48.003 95.9946L51.773 92.224L65.229 78.768L69 74.9973L65.229 71.2266L51.773 57.7706L48.003 54L44.227 57.7706L30.771 71.2266L27 74.9973Z" fill="#16B674"/>
<path d="M27 20.9973L30.771 24.768L44.227 38.224L48.003 41.9946L51.773 38.224L65.229 24.768L69 20.9973L65.229 17.2266L51.773 3.7706L48.003 0L44.227 3.7706L30.771 17.2266L27 20.9973Z" fill="#A0A0A0"/>
</svg>
