<svg width="570" height="96" viewBox="0 0 570 96" fill="none" xmlns="http://www.w3.org/2000/svg">
<mask id="mask0_75_361" style="mask-type:luminance" maskUnits="userSpaceOnUse" x="0" y="0" width="96" height="96">
<path d="M96 0H0V96H96V0Z" fill="white"/>
</mask>
<g mask="url(#mask0_75_361)">
<path fill-rule="evenodd" clip-rule="evenodd" d="M27.0027 21.0027L30.7733 24.7733L44.2293 38.2293L48 42L51.7707 38.2293L65.2267 24.7733L68.9973 21.0027L65.2267 17.2267L51.7707 3.77067L48 0L44.2293 3.77067L30.7733 17.2267L27.0027 21.0027ZM61.456 21.0027L48 34.4533L34.544 20.9973L48 7.54133L61.456 21.0027ZM27.0027 74.9973L30.7733 78.7733L44.2293 92.2293L48 96L51.7707 92.2293L65.2267 78.7733L68.9973 75.0027L65.2267 71.2267L51.7707 57.7707L48 54L44.2293 57.7707L30.7733 71.2267L27.0027 74.9973ZM61.456 74.9973L48 88.464L34.544 75.008L48 61.536L61.456 74.9973ZM3.77067 51.7707L0 48L3.77067 44.2293L17.2267 30.7733L21.0027 27.0027L24.7733 30.7733L38.2293 44.2293L42 48L38.2293 51.7707L24.7733 65.2267L21.0027 68.9973L17.2267 65.2267L3.77067 51.7707ZM20.9973 61.456L34.464 48L20.9973 34.544L7.54133 48L20.9973 61.456ZM54 48L57.7707 51.7707L71.2267 65.2267L74.9973 68.9973L78.7733 65.2267L92.2293 51.7707L96 48L92.2293 44.2293L78.7733 30.7733L75.0027 27.0027L71.2267 30.7733L57.7707 44.2293L54 48ZM88.4533 48L74.9973 61.456L61.5467 48L75.008 34.544L88.4533 48Z" fill="#15593B"/>
</g>
<mask id="mask1_75_361" style="mask-type:luminance" maskUnits="userSpaceOnUse" x="158" y="0" width="96" height="96">
<path d="M254 0H158V96H254V0Z" fill="white"/>
</mask>
<g mask="url(#mask1_75_361)">
<path fill-rule="evenodd" clip-rule="evenodd" d="M254 48L206 0L158 48L206 96L254 48Z" fill="#16B674"/>
</g>
<mask id="mask2_75_361" style="mask-type:luminance" maskUnits="userSpaceOnUse" x="316" y="0" width="96" height="96">
<path d="M412 0H316V96H412V0Z" fill="white"/>
</mask>
<g mask="url(#mask2_75_361)">
<path fill-rule="evenodd" clip-rule="evenodd" d="M412 48L364 0L316 48L364 96L412 48ZM323.541 48L364 7.54133L404.459 48L364 88.4587L323.541 48Z" fill="#15593B"/>
</g>
<mask id="mask3_75_361" style="mask-type:luminance" maskUnits="userSpaceOnUse" x="474" y="0" width="96" height="96">
<path d="M570 0H474V96H570V0Z" fill="white"/>
</mask>
<g mask="url(#mask3_75_361)">
<path fill-rule="evenodd" clip-rule="evenodd" d="M501.003 21.0027L504.773 24.7733L518.229 38.2293L522 42L525.771 38.2293L539.227 24.7733L542.997 21.0027L539.227 17.2267L525.771 3.77067L522 0L518.229 3.77067L504.773 17.2267L501.003 21.0027ZM501.003 74.9973L504.773 78.7733L518.229 92.2293L522 96L525.771 92.2293L539.227 78.7733L542.997 75.0027L539.227 71.2267L525.771 57.7707L522 54L518.229 57.7707L504.773 71.2267L501.003 74.9973ZM477.771 51.7707L474 48L477.771 44.2293L491.227 30.7733L495.003 27.0027L498.773 30.7733L512.229 44.2293L516 48L512.229 51.7707L498.773 65.2267L495.003 68.9973L491.227 65.2267L477.771 51.7707ZM528 48L531.771 51.7707L545.227 65.2267L548.997 68.9973L552.773 65.2267L566.229 51.7707L570 48L566.229 44.2293L552.773 30.7733L549.003 27.0027L545.227 30.7733L531.771 44.2293L528 48Z" fill="#16B674"/>
</g>
</svg>
