<svg xmlns="http://www.w3.org/2000/svg" width="764" height="220" fill="none" viewBox="0 0 764 220"><g clip-path="url(#a)"><path fill="#171717" d="M0 .16h764v219H0z"/><mask id="c" width="467" height="230" x="369" y="-6" maskUnits="userSpaceOnUse" style="mask-type:alpha"><path fill="url(#b)" d="M369.965-5.619h465.702v229.171H369.965z"/></mask><g stroke-width=".5" mask="url(#c)"><path stroke="#292929" d="M341.888 186.825h514.963M341.888 29.915h514.963"/><path stroke="#333" stroke-dasharray="1.5 1.5" d="M341.888 107.924h514.963"/><path stroke="#292929" d="M552.864-156.861v512.098M438.864-156.861v512.098M533.864-156.861v512.098M476.864-156.861v512.098M514.864-156.861v512.098M400.864-156.861v512.098"/><path stroke="#333" stroke-dasharray="1.5 1.5" d="M632.546-156.86v512.097"/><path stroke="#292929" d="M710.109-156.861v512.098"/></g><g filter="url(#d)"><rect width="127.613" height="92.273" x="514.704" y="172.582" fill="#171717" rx="16" transform="rotate(-90 514.704 172.582)"/><rect width="126.813" height="91.473" x="515.104" y="172.182" stroke="#2e2e2e" stroke-width=".8" rx="15.6" transform="rotate(-90 515.104 172.182)"/></g><g filter="url(#e)"><rect width="143.438" height="92.273" x="533.4" y="179.923" fill="#171717" rx="16" transform="rotate(-90 533.4 179.923)"/><rect width="142.638" height="91.473" x="533.8" y="179.523" stroke="#2e2e2e" stroke-width=".8" rx="15.6" transform="rotate(-90 533.8 179.523)"/></g><g filter="url(#f)"><rect width="157.216" height="157.801" x="552.822" y="29.303" fill="#171717" rx="16"/><rect width="156.416" height="157.001" x="553.222" y="29.703" stroke="#2e2e2e" stroke-width=".8" rx="15.6"/></g><circle cx="631.352" cy="108.481" r="28.25" stroke="#292929" stroke-width=".5"/><circle cx="631.945" cy="107.887" r="44.156" stroke="#292929" stroke-width=".5"/><circle cx="632.135" cy="108.076" r="39.058" stroke="#292929" stroke-width=".5"/><circle cx="632.101" cy="108.131" r="23.117" stroke="#292929" stroke-width=".5"/><path fill="#292929" fill-rule="evenodd" stroke="#b4b4b4" stroke-dasharray="1.2 1.5" stroke-linecap="round" stroke-linejoin="round" stroke-miterlimit="10" stroke-width=".45" d="M628.934 69.368c7.481 2.303 13.669 7.551 17.212 14.386a28.9 28.9 0 0 1 3.236 13.32c0 3.037-.469 5.97-1.338 8.728-1.602 5.076-1.295 10.202 1.669 13.171l4.008 4.015 9.015 9.061c5.221-6.586 8.223-14.805 8.223-23.938 0-21.46-17.397-38.857-38.857-38.857q-1.613 0-3.168.114m-20.518 1.345c6.967-4.534 14.836-6.852 23.686-6.852 24.438 0 44.25 19.812 44.25 44.25 0 11.523-4.231 21.846-11.48 29.736a2.697 2.697 0 0 1-3.897.077l-9.116-9.162a28.47 28.47 0 0 1-17.63 7.846 28.6 28.6 0 0 1-6.406-.238 23.42 23.42 0 0 0 16.149 6.427c3.346 0 6.522-.698 9.397-1.953a2.695 2.695 0 0 1 2.562 4.723c-7.039 4.634-14.936 6.794-23.829 6.794-24.439 0-44.25-19.811-44.25-44.25 0-11.559 4.179-21.833 11.482-29.739a2.7 2.7 0 0 1 3.889-.075l9.139 9.154a28.47 28.47 0 0 1 17.621-7.838 28.6 28.6 0 0 1 6.563.263 23.5 23.5 0 0 0-16.148-6.393c-3.359 0-6.547.7-9.432 1.961a2.697 2.697 0 0 1-2.55-4.73m33.331 16.308a23.1 23.1 0 0 0-11.364-2.03 23.08 23.08 0 0 0-14.21 6.278l2.369 2.373c5.092 5.1 4.823 12.806 3.003 18.604a23.5 23.5 0 0 0-1.075 7.05c0 3.58.801 6.974 2.233 10.012a23.1 23.1 0 0 0 11.126 1.922 23.07 23.07 0 0 0 14.222-6.288l-2.154-2.159c-5.092-5.1-4.825-12.805-2.996-18.604a23.6 23.6 0 0 0 1.088-7.105c0-3.6-.805-7.006-2.242-10.053m-40.285-2.855c-5.248 6.582-8.218 14.764-8.218 23.945 0 21.46 17.397 38.857 38.858 38.857q1.623 0 3.184-.106c-11.714-3.687-20.209-14.635-20.209-27.566 0-3.015.463-5.927 1.323-8.666 1.595-5.081 1.29-10.208-1.675-13.178z" clip-rule="evenodd"/></g><defs><filter id="d" width="96.629" height="131.968" x="513.071" y="43.336" color-interpolation-filters="sRGB" filterUnits="userSpaceOnUse"><feFlood flood-opacity="0" result="BackgroundImageFix"/><feColorMatrix in="SourceAlpha" result="hardAlpha" values="0 0 0 0 0 0 0 0 0 0 0 0 0 0 0 0 0 0 127 0"/><feOffset dx=".544" dy=".544"/><feGaussianBlur stdDeviation="1.089"/><feComposite in2="hardAlpha" operator="out"/><feColorMatrix values="0 0 0 0 0 0 0 0 0 0 0 0 0 0 0 0 0 0 0.15 0"/><feBlend in2="BackgroundImageFix" result="effect1_dropShadow_1003_6270"/><feBlend in="SourceGraphic" in2="effect1_dropShadow_1003_6270" result="shape"/></filter><filter id="e" width="96.629" height="147.792" x="531.767" y="34.852" color-interpolation-filters="sRGB" filterUnits="userSpaceOnUse"><feFlood flood-opacity="0" result="BackgroundImageFix"/><feColorMatrix in="SourceAlpha" result="hardAlpha" values="0 0 0 0 0 0 0 0 0 0 0 0 0 0 0 0 0 0 127 0"/><feOffset dx=".544" dy=".544"/><feGaussianBlur stdDeviation="1.089"/><feComposite in2="hardAlpha" operator="out"/><feColorMatrix values="0 0 0 0 0 0 0 0 0 0 0 0 0 0 0 0 0 0 0.15 0"/><feBlend in2="BackgroundImageFix" result="effect1_dropShadow_1003_6270"/><feBlend in="SourceGraphic" in2="effect1_dropShadow_1003_6270" result="shape"/></filter><filter id="f" width="161.571" height="162.156" x="551.189" y="27.671" color-interpolation-filters="sRGB" filterUnits="userSpaceOnUse"><feFlood flood-opacity="0" result="BackgroundImageFix"/><feColorMatrix in="SourceAlpha" result="hardAlpha" values="0 0 0 0 0 0 0 0 0 0 0 0 0 0 0 0 0 0 127 0"/><feOffset dx=".544" dy=".544"/><feGaussianBlur stdDeviation="1.089"/><feComposite in2="hardAlpha" operator="out"/><feColorMatrix values="0 0 0 0 0 0 0 0 0 0 0 0 0 0 0 0 0 0 0.15 0"/><feBlend in2="BackgroundImageFix" result="effect1_dropShadow_1003_6270"/><feBlend in="SourceGraphic" in2="effect1_dropShadow_1003_6270" result="shape"/></filter><linearGradient id="b" x1="835.667" x2="369.965" y1="108.967" y2="108.967" gradientUnits="userSpaceOnUse"><stop offset=".831" stop-color="#d9d9d9"/><stop offset="1" stop-color="#737373" stop-opacity="0"/></linearGradient><clipPath id="a"><path fill="#fff" d="M0 .16h764v219H0z"/></clipPath></defs></svg>