<svg xmlns="http://www.w3.org/2000/svg" width="349" height="175" fill="none" viewBox="0 0 349 175"><g clip-path="url(#a)"><path fill="#171717" d="M0 .16h349v174H0z"/><mask id="c" width="407" height="201" x="-47" y="-14" maskUnits="userSpaceOnUse" style="mask-type:alpha"><path fill="url(#b)" d="M-46.014-13.17h405.309v199.452H-46.014z"/></mask><g stroke="#292929" stroke-width=".435" mask="url(#c)"><path d="M-70.45 154.318H377.73M-70.45 17.757H377.73"/><path stroke-dasharray="1.3 1.3" d="M-70.45 85.65H377.73"/><path d="M113.166-144.798V300.89M13.95-144.798V300.89M313.464-144.798V300.89M96.63-144.798V300.89M47.022-144.798V300.89M80.094-144.798V300.89"/><path stroke-dasharray="1.3 1.3" d="M182.515-144.798V300.89"/><path d="M250.02-144.798V300.89M264.229-144.798V300.89M279.091-144.798V300.89"/></g><g filter="url(#d)"><rect width="111.064" height="80.307" x="79.955" y="141.922" fill="#171717" rx="13.925" transform="rotate(-90 79.955 141.922)"/><rect width="110.368" height="79.611" x="80.303" y="141.574" stroke="#2e2e2e" stroke-width=".696" rx="13.577" transform="rotate(-90 80.303 141.574)"/></g><g filter="url(#e)"><rect width="124.836" height="80.307" x="96.227" y="148.311" fill="#171717" rx="13.925" transform="rotate(-90 96.227 148.311)"/><rect width="124.14" height="79.611" x="96.575" y="147.963" stroke="#2e2e2e" stroke-width=".696" rx="13.577" transform="rotate(-90 96.575 147.963)"/></g><g filter="url(#f)"><rect width="136.828" height="137.337" x="113.13" y="17.224" fill="#171717" rx="13.925"/><rect width="136.132" height="136.641" x="113.478" y="17.572" stroke="#2e2e2e" stroke-width=".696" rx="13.577"/></g><circle cx="181.477" cy="86.134" r="24.587" stroke="#292929" stroke-width=".435"/><circle cx="181.993" cy="85.617" r="38.43" stroke="#292929" stroke-width=".435"/><circle cx="182.158" cy="85.782" r="33.993" stroke="#292929" stroke-width=".435"/><circle cx="182.129" cy="85.83" r="20.119" stroke="#292929" stroke-width=".435"/><path fill="#292929" fill-rule="evenodd" stroke="#b4b4b4" stroke-dasharray="1.04 1.31" stroke-linecap="round" stroke-linejoin="round" stroke-miterlimit="10" stroke-width=".392" d="M178.911 51.358a25.3 25.3 0 0 1 14.98 12.52 25.1 25.1 0 0 1 2.816 11.593c0 2.643-.407 5.196-1.165 7.596-1.393 4.418-1.127 8.88 1.453 11.463l3.489 3.495 7.846 7.885c4.543-5.732 7.156-12.885 7.156-20.833 0-18.677-15.141-33.818-33.818-33.818a38 38 0 0 0-2.757.1m-17.857 1.17c6.063-3.945 12.912-5.963 20.614-5.963 21.269 0 38.511 17.243 38.511 38.512 0 10.029-3.681 19.013-9.991 25.879a2.346 2.346 0 0 1-3.391.068l-7.934-7.974a24.78 24.78 0 0 1-15.343 6.829c-1.9.141-3.767.065-5.576-.208a20.38 20.38 0 0 0 14.054 5.594c2.913 0 5.677-.607 8.179-1.7a2.346 2.346 0 0 1 2.23 4.11c-6.126 4.034-12.999 5.913-20.739 5.913-21.27 0-38.512-17.242-38.512-38.511 0-10.06 3.637-19.002 9.994-25.882a2.344 2.344 0 0 1 3.384-.066l7.954 7.967a24.78 24.78 0 0 1 15.336-6.821 25 25 0 0 1 5.712.228 20.46 20.46 0 0 0-14.054-5.563c-2.923 0-5.698.61-8.209 1.706a2.347 2.347 0 0 1-2.219-4.117m29.008 14.194a20.1 20.1 0 0 0-9.89-1.767 20.1 20.1 0 0 0-12.368 5.464l2.063 2.065c4.431 4.44 4.197 11.145 2.613 16.191a20.5 20.5 0 0 0-.936 6.136c0 3.116.697 6.07 1.944 8.714a20.1 20.1 0 0 0 9.683 1.673 20.08 20.08 0 0 0 12.378-5.473l-1.875-1.879c-4.432-4.439-4.199-11.144-2.608-16.191.615-1.949.947-4.025.947-6.184 0-3.133-.7-6.097-1.951-8.749m-35.06-2.485c-4.567 5.729-7.152 12.85-7.152 20.84 0 18.677 15.141 33.818 33.818 33.818q1.412 0 2.772-.093c-10.195-3.209-17.589-12.736-17.589-23.991 0-2.624.403-5.158 1.151-7.542 1.389-4.422 1.123-8.884-1.457-11.469z" clip-rule="evenodd"/></g><defs><filter id="d" width="84.097" height="114.854" x="78.534" y="29.437" color-interpolation-filters="sRGB" filterUnits="userSpaceOnUse"><feFlood flood-opacity="0" result="BackgroundImageFix"/><feColorMatrix in="SourceAlpha" result="hardAlpha" values="0 0 0 0 0 0 0 0 0 0 0 0 0 0 0 0 0 0 127 0"/><feOffset dx=".474" dy=".474"/><feGaussianBlur stdDeviation=".947"/><feComposite in2="hardAlpha" operator="out"/><feColorMatrix values="0 0 0 0 0 0 0 0 0 0 0 0 0 0 0 0 0 0 0.15 0"/><feBlend in2="BackgroundImageFix" result="effect1_dropShadow_1003_6137"/><feBlend in="SourceGraphic" in2="effect1_dropShadow_1003_6137" result="shape"/></filter><filter id="e" width="84.097" height="128.626" x="94.805" y="22.053" color-interpolation-filters="sRGB" filterUnits="userSpaceOnUse"><feFlood flood-opacity="0" result="BackgroundImageFix"/><feColorMatrix in="SourceAlpha" result="hardAlpha" values="0 0 0 0 0 0 0 0 0 0 0 0 0 0 0 0 0 0 127 0"/><feOffset dx=".474" dy=".474"/><feGaussianBlur stdDeviation=".947"/><feComposite in2="hardAlpha" operator="out"/><feColorMatrix values="0 0 0 0 0 0 0 0 0 0 0 0 0 0 0 0 0 0 0.15 0"/><feBlend in2="BackgroundImageFix" result="effect1_dropShadow_1003_6137"/><feBlend in="SourceGraphic" in2="effect1_dropShadow_1003_6137" result="shape"/></filter><filter id="f" width="140.618" height="141.127" x="111.709" y="15.803" color-interpolation-filters="sRGB" filterUnits="userSpaceOnUse"><feFlood flood-opacity="0" result="BackgroundImageFix"/><feColorMatrix in="SourceAlpha" result="hardAlpha" values="0 0 0 0 0 0 0 0 0 0 0 0 0 0 0 0 0 0 127 0"/><feOffset dx=".474" dy=".474"/><feGaussianBlur stdDeviation=".947"/><feComposite in2="hardAlpha" operator="out"/><feColorMatrix values="0 0 0 0 0 0 0 0 0 0 0 0 0 0 0 0 0 0 0.15 0"/><feBlend in2="BackgroundImageFix" result="effect1_dropShadow_1003_6137"/><feBlend in="SourceGraphic" in2="effect1_dropShadow_1003_6137" result="shape"/></filter><linearGradient id="b" x1="359.295" x2="-46.014" y1="86.556" y2="86.556" gradientUnits="userSpaceOnUse"><stop offset=".831" stop-color="#d9d9d9"/><stop offset="1" stop-color="#737373" stop-opacity="0"/></linearGradient><clipPath id="a"><path fill="#fff" d="M0 .16h349v174H0z"/></clipPath></defs></svg>