<svg width="1383" height="1002" viewBox="0 0 1383 1002" fill="none" xmlns="http://www.w3.org/2000/svg">
<g clip-path="url(#clip0_885_8235)">
<rect width="1383" height="1002" fill="#F8F9FA"/>
<path d="M1266.29 759.018C1266.68 759.408 1267.32 759.408 1267.71 759.018L1274.07 752.654C1274.46 752.263 1274.46 751.63 1274.07 751.239C1273.68 750.849 1273.05 750.849 1272.66 751.239L1267 756.896L1261.34 751.239C1260.95 750.849 1260.32 750.849 1259.93 751.239C1259.54 751.63 1259.54 752.263 1259.93 752.654L1266.29 759.018ZM1266 393.529L1266 396.569L1268 396.569L1268 393.529L1266 393.529ZM1266 402.649L1266 408.729L1268 408.729L1268 402.649L1266 402.649ZM1266 414.808L1266 420.888L1268 420.888L1268 414.808L1266 414.808ZM1266 426.968L1266 433.047L1268 433.047L1268 426.968L1266 426.968ZM1266 439.127L1266 445.207L1268 445.207L1268 439.127L1266 439.127ZM1266 451.286L1266 457.366L1268 457.366L1268 451.286L1266 451.286ZM1266 463.446L1266 469.525L1268 469.525L1268 463.446L1266 463.446ZM1266 475.605L1266 481.685L1268 481.685L1268 475.605L1266 475.605ZM1266 487.764L1266 493.844L1268 493.844L1268 487.764L1266 487.764ZM1266 499.924L1266 506.004L1268 506.004L1268 499.924L1266 499.924ZM1266 512.083L1266 518.163L1268 518.163L1268 512.083L1266 512.083ZM1266 524.243L1266 530.322L1268 530.322L1268 524.243L1266 524.243ZM1266 536.402L1266 542.482L1268 542.482L1268 536.402L1266 536.402ZM1266 548.561L1266 554.641L1268 554.641L1268 548.561L1266 548.561ZM1266 560.721L1266 566.8L1268 566.8L1268 560.721L1266 560.721ZM1266 572.88L1266 578.96L1268 578.96L1268 572.88L1266 572.88ZM1266 585.039L1266 591.119L1268 591.119L1268 585.039L1266 585.039ZM1266 597.199L1266 603.278L1268 603.278L1268 597.199L1266 597.199ZM1266 609.358L1266 615.438L1268 615.438L1268 609.358L1266 609.358ZM1266 621.517L1266 627.597L1268 627.597L1268 621.517L1266 621.517ZM1266 633.677L1266 639.757L1268 639.757L1268 633.677L1266 633.677ZM1266 645.836L1266 651.916L1268 651.916L1268 645.836L1266 645.836ZM1266 657.996L1266 664.075L1268 664.075L1268 657.996L1266 657.996ZM1266 670.155L1266 676.235L1268 676.235L1268 670.155L1266 670.155ZM1266 682.314L1266 688.394L1268 688.394L1268 682.314L1266 682.314ZM1266 694.474L1266 700.553L1268 700.553L1268 694.474L1266 694.474ZM1266 706.633L1266 712.713L1268 712.713L1268 706.633L1266 706.633ZM1266 718.792L1266 724.872L1268 724.872L1268 718.792L1266 718.792ZM1266 730.952L1266 737.031L1268 737.031L1268 730.952L1266 730.952ZM1266 743.111L1266 749.191L1268 749.191L1268 743.111L1266 743.111ZM1266 755.271L1266 758.311L1268 758.311L1268 755.271L1266 755.271Z" fill="#171717"/>
<rect x="235" y="61.5" width="1089" height="427" rx="32" fill="#C7C7C7" fill-opacity="0.1"/>
<rect x="235" y="61.5" width="1089" height="427" rx="32" stroke="#C7C7C7" stroke-width="2" stroke-linecap="round" stroke-dasharray="8 16"/>
<rect x="235" y="652.5" width="1089" height="288" rx="32" fill="#C7C7C7" fill-opacity="0.1"/>
<rect x="235" y="652.5" width="1089" height="288" rx="32" stroke="#C7C7C7" stroke-width="2" stroke-linecap="round" stroke-dasharray="8 16"/>
<rect x="459" y="764.5" width="42" height="42" rx="21" fill="#20AC6D" fill-opacity="0.15"/>
<rect x="459" y="764.5" width="42" height="42" rx="21" stroke="#20AC6D" stroke-width="2" stroke-linecap="round"/>
<path d="M478.973 759.018C479.363 759.408 479.996 759.408 480.387 759.018L486.751 752.654C487.141 752.263 487.141 751.63 486.751 751.239C486.36 750.849 485.727 750.849 485.337 751.239L479.68 756.896L474.023 751.239C473.632 750.849 472.999 750.849 472.609 751.239C472.218 751.63 472.218 752.263 472.609 752.654L478.973 759.018ZM478.68 190.386L478.68 193.407L480.68 193.407L480.68 190.386L478.68 190.386ZM478.68 199.448L478.68 205.49L480.68 205.49L480.68 199.448L478.68 199.448ZM478.68 211.532L478.68 217.574L480.68 217.574L480.68 211.532L478.68 211.532ZM478.68 223.615L478.68 229.657L480.68 229.657L480.68 223.615L478.68 223.615ZM478.68 235.699L478.68 241.741L480.68 241.741L480.68 235.699L478.68 235.699ZM478.68 247.782L478.68 253.824L480.68 253.824L480.68 247.782L478.68 247.782ZM478.68 259.866L478.68 265.908L480.68 265.908L480.68 259.866L478.68 259.866ZM478.68 271.949L478.68 277.991L480.68 277.991L480.68 271.949L478.68 271.949ZM478.68 284.033L478.68 290.075L480.68 290.075L480.68 284.033L478.68 284.033ZM478.68 296.116L478.68 302.158L480.68 302.158L480.68 296.116L478.68 296.116ZM478.68 308.2L478.68 314.242L480.68 314.242L480.68 308.2L478.68 308.2ZM478.68 320.283L478.68 326.325L480.68 326.325L480.68 320.283L478.68 320.283ZM478.68 332.367L478.68 338.409L480.68 338.409L480.68 332.367L478.68 332.367ZM478.68 344.45L478.68 350.492L480.68 350.492L480.68 344.45L478.68 344.45ZM478.68 356.534L478.68 362.576L480.68 362.576L480.68 356.534L478.68 356.534ZM478.68 368.617L478.68 374.659L480.68 374.659L480.68 368.617L478.68 368.617ZM478.68 380.701L478.68 386.743L480.68 386.743L480.68 380.701L478.68 380.701ZM478.68 392.784L478.68 398.826L480.68 398.826L480.68 392.784L478.68 392.784ZM478.68 404.868L478.68 410.91L480.68 410.91L480.68 404.868L478.68 404.868ZM478.68 416.951L478.68 422.993L480.68 422.993L480.68 416.951L478.68 416.951ZM478.68 429.035L478.68 435.077L480.68 435.077L480.68 429.035L478.68 429.035ZM478.68 441.118L478.68 447.16L480.68 447.16L480.68 441.118L478.68 441.118ZM478.68 453.202L478.68 459.244L480.68 459.244L480.68 453.202L478.68 453.202ZM478.68 465.285L478.68 471.327L480.68 471.327L480.68 465.285L478.68 465.285ZM478.68 477.369L478.68 483.411L480.68 483.411L480.68 477.369L478.68 477.369ZM478.68 489.452L478.68 495.494L480.68 495.494L480.68 489.452L478.68 489.452ZM478.68 501.536L478.68 507.578L480.68 507.578L480.68 501.536L478.68 501.536ZM478.68 513.619L478.68 519.661L480.68 519.661L480.68 513.619L478.68 513.619ZM478.68 525.703L478.68 531.745L480.68 531.745L480.68 525.703L478.68 525.703ZM478.68 537.786L478.68 543.828L480.68 543.828L480.68 537.786L478.68 537.786ZM478.68 549.87L478.68 555.912L480.68 555.912L480.68 549.87L478.68 549.87ZM478.68 561.953L478.68 567.995L480.68 567.995L480.68 561.953L478.68 561.953ZM478.68 574.037L478.68 580.079L480.68 580.079L480.68 574.037L478.68 574.037ZM478.68 586.12L478.68 592.162L480.68 592.162L480.68 586.12L478.68 586.12ZM478.68 598.204L478.68 604.246L480.68 604.246L480.68 598.204L478.68 598.204ZM478.68 610.287L478.68 616.329L480.68 616.329L480.68 610.287L478.68 610.287ZM478.68 622.371L478.68 628.413L480.68 628.413L480.68 622.371L478.68 622.371ZM478.68 634.454L478.68 640.496L480.68 640.496L480.68 634.454L478.68 634.454ZM478.68 646.538L478.68 652.58L480.68 652.58L480.68 646.538L478.68 646.538ZM478.68 658.621L478.68 664.663L480.68 664.663L480.68 658.621L478.68 658.621ZM478.68 670.705L478.68 676.747L480.68 676.747L480.68 670.705L478.68 670.705ZM478.68 682.788L478.68 688.83L480.68 688.83L480.68 682.788L478.68 682.788ZM478.68 694.872L478.68 700.914L480.68 700.914L480.68 694.872L478.68 694.872ZM478.68 706.955L478.68 712.997L480.68 712.997L480.68 706.955L478.68 706.955ZM478.68 719.039L478.68 725.081L480.68 725.081L480.68 719.039L478.68 719.039ZM478.68 731.122L478.68 737.164L480.68 737.164L480.68 731.122L478.68 731.122ZM478.68 743.206L478.68 749.248L480.68 749.248L480.68 743.206L478.68 743.206ZM478.68 755.289L478.68 758.311L480.68 758.311L480.68 755.289L478.68 755.289Z" fill="#171717"/>
<path d="M762.848 759.018C763.238 759.408 763.871 759.408 764.262 759.018L770.626 752.654C771.016 752.263 771.016 751.63 770.626 751.239C770.235 750.849 769.602 750.849 769.212 751.239L763.555 756.896L757.898 751.239C757.507 750.849 756.874 750.849 756.484 751.239C756.093 751.63 756.093 752.263 756.484 752.654L762.848 759.018ZM762.555 190.386L762.555 193.407L764.555 193.407L764.555 190.386L762.555 190.386ZM762.555 199.448L762.555 205.49L764.555 205.49L764.555 199.448L762.555 199.448ZM762.555 211.532L762.555 217.574L764.555 217.574L764.555 211.532L762.555 211.532ZM762.555 223.615L762.555 229.657L764.555 229.657L764.555 223.615L762.555 223.615ZM762.555 235.699L762.555 241.741L764.555 241.741L764.555 235.699L762.555 235.699ZM762.555 247.782L762.555 253.824L764.555 253.824L764.555 247.782L762.555 247.782ZM762.555 259.866L762.555 265.908L764.555 265.908L764.555 259.866L762.555 259.866ZM762.555 271.949L762.555 277.991L764.555 277.991L764.555 271.949L762.555 271.949ZM762.555 284.033L762.555 290.075L764.555 290.075L764.555 284.033L762.555 284.033ZM762.555 296.116L762.555 302.158L764.555 302.158L764.555 296.116L762.555 296.116ZM762.555 308.2L762.555 314.242L764.555 314.242L764.555 308.2L762.555 308.2ZM762.555 320.283L762.555 326.325L764.555 326.325L764.555 320.283L762.555 320.283ZM762.555 332.367L762.555 338.409L764.555 338.409L764.555 332.367L762.555 332.367ZM762.555 344.45L762.555 350.492L764.555 350.492L764.555 344.45L762.555 344.45ZM762.555 356.534L762.555 362.576L764.555 362.576L764.555 356.534L762.555 356.534ZM762.555 368.617L762.555 374.659L764.555 374.659L764.555 368.617L762.555 368.617ZM762.555 380.701L762.555 386.743L764.555 386.743L764.555 380.701L762.555 380.701ZM762.555 392.784L762.555 398.826L764.555 398.826L764.555 392.784L762.555 392.784ZM762.555 404.868L762.555 410.91L764.555 410.91L764.555 404.868L762.555 404.868ZM762.555 416.951L762.555 422.993L764.555 422.993L764.555 416.951L762.555 416.951ZM762.555 429.035L762.555 435.077L764.555 435.077L764.555 429.035L762.555 429.035ZM762.555 441.118L762.555 447.16L764.555 447.16L764.555 441.118L762.555 441.118ZM762.555 453.202L762.555 459.244L764.555 459.244L764.555 453.202L762.555 453.202ZM762.555 465.285L762.555 471.327L764.555 471.327L764.555 465.285L762.555 465.285ZM762.555 477.369L762.555 483.411L764.555 483.411L764.555 477.369L762.555 477.369ZM762.555 489.452L762.555 495.494L764.555 495.494L764.555 489.452L762.555 489.452ZM762.555 501.536L762.555 507.578L764.555 507.578L764.555 501.536L762.555 501.536ZM762.555 513.619L762.555 519.661L764.555 519.661L764.555 513.619L762.555 513.619ZM762.555 525.703L762.555 531.745L764.555 531.745L764.555 525.703L762.555 525.703ZM762.555 537.786L762.555 543.828L764.555 543.828L764.555 537.786L762.555 537.786ZM762.555 549.87L762.555 555.912L764.555 555.912L764.555 549.87L762.555 549.87ZM762.555 561.953L762.555 567.995L764.555 567.995L764.555 561.953L762.555 561.953ZM762.555 574.037L762.555 580.079L764.555 580.079L764.555 574.037L762.555 574.037ZM762.555 586.12L762.555 592.162L764.555 592.162L764.555 586.12L762.555 586.12ZM762.555 598.204L762.555 604.246L764.555 604.246L764.555 598.204L762.555 598.204ZM762.555 610.287L762.555 616.329L764.555 616.329L764.555 610.287L762.555 610.287ZM762.555 622.371L762.555 628.413L764.555 628.413L764.555 622.371L762.555 622.371ZM762.555 634.454L762.555 640.496L764.555 640.496L764.555 634.454L762.555 634.454ZM762.555 646.538L762.555 652.58L764.555 652.58L764.555 646.538L762.555 646.538ZM762.555 658.621L762.555 664.663L764.555 664.663L764.555 658.621L762.555 658.621ZM762.555 670.705L762.555 676.747L764.555 676.747L764.555 670.705L762.555 670.705ZM762.555 682.788L762.555 688.83L764.555 688.83L764.555 682.788L762.555 682.788ZM762.555 694.872L762.555 700.914L764.555 700.914L764.555 694.872L762.555 694.872ZM762.555 706.955L762.555 712.997L764.555 712.997L764.555 706.955L762.555 706.955ZM762.555 719.039L762.555 725.081L764.555 725.081L764.555 719.039L762.555 719.039ZM762.555 731.122L762.555 737.164L764.555 737.164L764.555 731.122L762.555 731.122ZM762.555 743.206L762.555 749.248L764.555 749.248L764.555 743.206L762.555 743.206ZM762.555 755.289L762.555 758.311L764.555 758.311L764.555 755.289L762.555 755.289Z" fill="#171717"/>
<path d="M998.961 759.018C999.351 759.408 999.985 759.408 1000.38 759.018L1006.74 752.654C1007.13 752.263 1007.13 751.63 1006.74 751.239C1006.35 750.849 1005.72 750.849 1005.32 751.239L999.668 756.896L994.011 751.239C993.621 750.849 992.987 750.849 992.597 751.239C992.206 751.63 992.206 752.263 992.597 752.654L998.961 759.018ZM998.668 292.92L998.668 295.903L1000.67 295.903L1000.67 292.92L998.668 292.92ZM998.668 301.87L998.668 307.836L1000.67 307.836L1000.67 301.87L998.668 301.87ZM998.668 313.803L998.668 319.769L1000.67 319.769L1000.67 313.803L998.668 313.803ZM998.668 325.736L998.668 331.702L1000.67 331.702L1000.67 325.736L998.668 325.736ZM998.668 337.669L998.668 343.636L1000.67 343.636L1000.67 337.669L998.668 337.669ZM998.668 349.602L998.668 355.569L1000.67 355.569L1000.67 349.602L998.668 349.602ZM998.668 361.535L998.668 367.502L1000.67 367.502L1000.67 361.535L998.668 361.535ZM998.668 373.468L998.668 379.435L1000.67 379.435L1000.67 373.468L998.668 373.468ZM998.668 385.401L998.668 391.368L1000.67 391.368L1000.67 385.401L998.668 385.401ZM998.668 397.334L998.668 403.301L1000.67 403.301L1000.67 397.334L998.668 397.334ZM998.668 409.268L998.668 415.234L1000.67 415.234L1000.67 409.268L998.668 409.268ZM998.668 421.201L998.668 427.167L1000.67 427.167L1000.67 421.201L998.668 421.201ZM998.668 433.134L998.668 439.1L1000.67 439.1L1000.67 433.134L998.668 433.134ZM998.668 445.067L998.668 451.033L1000.67 451.033L1000.67 445.067L998.668 445.067ZM998.668 457L998.668 462.967L1000.67 462.967L1000.67 457L998.668 457ZM998.668 468.933L998.668 474.9L1000.67 474.9L1000.67 468.933L998.668 468.933ZM998.668 480.866L998.668 486.833L1000.67 486.833L1000.67 480.866L998.668 480.866ZM998.668 492.799L998.668 498.766L1000.67 498.766L1000.67 492.799L998.668 492.799ZM998.668 504.732L998.668 510.699L1000.67 510.699L1000.67 504.732L998.668 504.732ZM998.668 516.665L998.668 522.632L1000.67 522.632L1000.67 516.665L998.668 516.665ZM998.668 528.599L998.668 534.565L1000.67 534.565L1000.67 528.599L998.668 528.599ZM998.668 540.532L998.668 546.498L1000.67 546.498L1000.67 540.532L998.668 540.532ZM998.668 552.465L998.668 558.431L1000.67 558.431L1000.67 552.465L998.668 552.465ZM998.668 564.398L998.668 570.364L1000.67 570.364L1000.67 564.398L998.668 564.398ZM998.668 576.331L998.668 582.298L1000.67 582.298L1000.67 576.331L998.668 576.331ZM998.668 588.264L998.668 594.231L1000.67 594.231L1000.67 588.264L998.668 588.264ZM998.668 600.197L998.668 606.164L1000.67 606.164L1000.67 600.197L998.668 600.197ZM998.668 612.13L998.668 618.097L1000.67 618.097L1000.67 612.13L998.668 612.13ZM998.668 624.063L998.668 630.03L1000.67 630.03L1000.67 624.063L998.668 624.063ZM998.668 635.997L998.668 641.963L1000.67 641.963L1000.67 635.997L998.668 635.997ZM998.668 647.93L998.668 653.896L1000.67 653.896L1000.67 647.93L998.668 647.93ZM998.668 659.863L998.668 665.829L1000.67 665.829L1000.67 659.863L998.668 659.863ZM998.668 671.796L998.668 677.762L1000.67 677.762L1000.67 671.796L998.668 671.796ZM998.668 683.729L998.668 689.696L1000.67 689.696L1000.67 683.729L998.668 683.729ZM998.668 695.662L998.668 701.629L1000.67 701.629L1000.67 695.662L998.668 695.662ZM998.668 707.595L998.668 713.562L1000.67 713.562L1000.67 707.595L998.668 707.595ZM998.668 719.528L998.668 725.495L1000.67 725.495L1000.67 719.528L998.668 719.528ZM998.668 731.461L998.668 737.428L1000.67 737.428L1000.67 731.461L998.668 731.461ZM998.668 743.394L998.668 749.361L1000.67 749.361L1000.67 743.394L998.668 743.394ZM998.668 755.328L998.668 758.311L1000.67 758.311L1000.67 755.328L998.668 755.328Z" fill="#171717"/>
<rect x="743" y="764.5" width="42" height="42" rx="21" fill="#20AC6D" fill-opacity="0.15"/>
<rect x="743" y="764.5" width="42" height="42" rx="21" stroke="#20AC6D" stroke-width="2" stroke-linecap="round"/>
<rect x="980.023" y="764.5" width="42" height="42" rx="21" fill="#20AC6D" fill-opacity="0.15"/>
<rect x="980.023" y="764.5" width="42" height="42" rx="21" stroke="#20AC6D" stroke-width="2" stroke-linecap="round"/>
<rect x="1247" y="764.5" width="42" height="42" rx="21" fill="#20AC6D" fill-opacity="0.15"/>
<rect x="1247" y="764.5" width="42" height="42" rx="21" stroke="#20AC6D" stroke-width="2" stroke-linecap="round"/>
<rect x="325" y="144.5" width="165" height="42" rx="12" fill="#20AC6D" fill-opacity="0.15"/>
<rect x="325" y="144.5" width="165" height="42" rx="12" stroke="#20AC6D" stroke-width="2" stroke-linecap="round"/>
<rect x="558" y="144.5" width="217" height="42" rx="12" fill="#20AC6D" fill-opacity="0.15"/>
<rect x="558" y="144.5" width="217" height="42" rx="12" stroke="#20AC6D" stroke-width="2" stroke-linecap="round"/>
<rect x="855" y="246.5" width="155" height="42" rx="12" fill="#20AC6D" fill-opacity="0.15"/>
<rect x="855" y="246.5" width="155" height="42" rx="12" stroke="#20AC6D" stroke-width="2" stroke-linecap="round"/>
<path d="M779 164C778.172 164 777.5 164.672 777.5 165.5C777.5 166.328 778.172 167 779 167V164ZM779 167H803V164H779V167ZM813.5 177.5V255.5H816.5V177.5H813.5ZM827 269H851V266H827V269ZM813.5 255.5C813.5 262.956 819.544 269 827 269V266C821.201 266 816.5 261.299 816.5 255.5H813.5ZM803 167C808.799 167 813.5 171.701 813.5 177.5H816.5C816.5 170.044 810.456 164 803 164V167Z" fill="#8F8F8F"/>
<path d="M494 164C493.172 164 492.5 164.672 492.5 165.5C492.5 166.328 493.172 167 494 167V164ZM494 167H554V164H494V167Z" fill="#8F8F8F"/>
<rect x="1089" y="348.5" width="188" height="42" rx="12" fill="#20AC6D" fill-opacity="0.15"/>
<rect x="1089" y="348.5" width="188" height="42" rx="12" stroke="#20AC6D" stroke-width="2" stroke-linecap="round"/>
<path d="M1014 266C1013.17 266 1012.5 266.672 1012.5 267.5C1012.5 268.328 1013.17 269 1014 269V266ZM1014 269H1037.5V266H1014V269ZM1048 279.5V357.5H1051V279.5H1048ZM1061.5 371H1085V368H1061.5V371ZM1048 357.5C1048 364.956 1054.04 371 1061.5 371V368C1055.7 368 1051 363.299 1051 357.5H1048ZM1037.5 269C1043.3 269 1048 273.701 1048 279.5H1051C1051 272.044 1044.96 266 1037.5 266V269Z" fill="#8F8F8F"/>
<path d="M277.562 441.5V427.64H286.277V429.677H279.977V433.646H285.332V435.683H279.977V441.5H277.562ZM290.427 441.5V439.442H293.724V429.677H290.427V427.64H299.478V429.677H296.16V439.442H299.478V441.5H290.427ZM304.069 441.5V427.64H308.647C311.482 427.64 313.687 428.648 313.687 431.735C313.687 433.835 312.595 435.116 310.936 435.683L314.233 441.5H311.503L308.521 436.061H306.484V441.5H304.069ZM306.484 434.108H308.395C310.285 434.108 311.293 433.31 311.293 431.735C311.293 430.118 310.285 429.572 308.395 429.572H306.484V434.108ZM318.13 441.5V427.64H326.887V429.677H320.545V433.268H325.921V435.305H320.545V439.442H327.097V441.5H318.13ZM337.106 441.752C333.599 441.752 330.848 439.19 330.848 434.612C330.848 430.076 333.557 427.388 337.19 427.388C338.891 427.388 340.235 428.207 341.096 429.11L339.752 430.622C339.059 429.929 338.261 429.488 337.19 429.488C334.901 429.488 333.326 431.399 333.326 434.528C333.326 437.699 334.901 439.652 337.253 439.652C338.366 439.652 339.227 439.127 340.004 438.266L341.369 439.736C340.256 441.038 338.849 441.752 337.106 441.752ZM344.994 441.5V427.64H349.572C352.407 427.64 354.612 428.648 354.612 431.735C354.612 433.835 353.52 435.116 351.861 435.683L355.158 441.5H352.428L349.446 436.061H347.409V441.5H344.994ZM347.409 434.108H349.32C351.21 434.108 352.218 433.31 352.218 431.735C352.218 430.118 351.21 429.572 349.32 429.572H347.409V434.108ZM357.292 441.5L361.744 427.64H364.579L369.031 441.5H366.469L365.398 437.72H360.841L359.749 441.5H357.292ZM361.366 435.809H364.873L364.39 434.087C363.97 432.617 363.55 431.063 363.151 429.53H363.067C362.689 431.063 362.269 432.617 361.849 434.087L361.366 435.809ZM378.032 441.752C374.525 441.752 371.774 439.19 371.774 434.612C371.774 430.076 374.483 427.388 378.116 427.388C379.817 427.388 381.161 428.207 382.022 429.11L380.678 430.622C379.985 429.929 379.187 429.488 378.116 429.488C375.827 429.488 374.252 431.399 374.252 434.528C374.252 437.699 375.827 439.652 378.179 439.652C379.292 439.652 380.153 439.127 380.93 438.266L382.295 439.736C381.182 441.038 379.775 441.752 378.032 441.752ZM385.877 441.5V427.64H388.334V433.961H388.397L393.311 427.64H395.999L391.778 433.037L396.461 441.5H393.773L390.329 434.948L388.334 437.426V441.5H385.877ZM399.981 441.5V427.64H408.738V429.677H402.396V433.268H407.772V435.305H402.396V439.442H408.948V441.5H399.981ZM413.203 441.5V427.64H417.781C420.616 427.64 422.821 428.648 422.821 431.735C422.821 433.835 421.729 435.116 420.07 435.683L423.367 441.5H420.637L417.655 436.061H415.618V441.5H413.203ZM415.618 434.108H417.529C419.419 434.108 420.427 433.31 420.427 431.735C420.427 430.118 419.419 429.572 417.529 429.572H415.618V434.108Z" fill="#525252"/>
<path d="M276.848 893.5V879.64H281.468C284.471 879.64 286.676 880.69 286.676 883.903C286.676 886.969 284.429 888.376 281.468 888.376H279.263V893.5H276.848ZM279.263 886.444H281.258C283.316 886.444 284.282 885.604 284.282 883.903C284.282 882.16 283.274 881.572 281.258 881.572H279.263V886.444ZM294.942 893.752C291.771 893.752 289.545 890.98 289.545 886.507C289.545 882.013 291.771 879.388 294.942 879.388C298.134 879.388 300.339 882.034 300.339 886.507C300.339 890.98 298.134 893.752 294.942 893.752ZM294.942 891.652C296.706 891.652 297.861 889.636 297.861 886.507C297.861 883.378 296.706 881.488 294.942 881.488C293.178 881.488 292.044 883.378 292.044 886.507C292.044 889.636 293.178 891.652 294.942 891.652ZM308.626 893.752C306.694 893.752 304.867 893.017 303.523 891.715L304.93 890.056C305.959 891.001 307.324 891.652 308.668 891.652C310.369 891.652 311.23 890.938 311.23 889.825C311.23 888.67 310.306 888.313 308.941 887.767L307.072 886.948C305.602 886.381 304.111 885.289 304.111 883.273C304.111 881.068 306.085 879.388 308.878 879.388C310.579 879.388 312.154 880.039 313.288 881.152L312.028 882.685C311.104 881.929 310.159 881.488 308.878 881.488C307.45 881.488 306.568 882.097 306.568 883.147C306.568 884.239 307.681 884.617 308.92 885.121L310.726 885.898C312.469 886.612 313.708 887.62 313.708 889.636C313.708 891.883 311.839 893.752 308.626 893.752ZM321.007 893.5V881.677H316.702V879.64H327.769V881.677H323.443V893.5H321.007ZM336.707 893.752C333.221 893.752 330.596 891.19 330.596 886.612C330.596 882.055 333.242 879.388 336.812 879.388C338.639 879.388 339.878 880.249 340.718 881.11L339.374 882.622C338.744 881.95 338.009 881.488 336.812 881.488C334.628 881.488 333.095 883.399 333.095 886.528C333.095 889.699 334.418 891.652 336.854 891.652C337.589 891.652 338.303 891.421 338.723 891.022V887.998H336.35V886.003H340.907V892.114C340.004 892.996 338.471 893.752 336.707 893.752ZM344.994 893.5V879.64H349.572C352.407 879.64 354.612 880.648 354.612 883.735C354.612 885.835 353.52 887.116 351.861 887.683L355.158 893.5H352.428L349.446 888.061H347.409V893.5H344.994ZM347.409 886.108H349.32C351.21 886.108 352.218 885.31 352.218 883.735C352.218 882.118 351.21 881.572 349.32 881.572H347.409V886.108ZM359.056 893.5V879.64H367.813V881.677H361.471V885.268H366.847V887.305H361.471V891.442H368.023V893.5H359.056ZM376.835 893.752C374.903 893.752 373.076 893.017 371.732 891.715L373.139 890.056C374.168 891.001 375.533 891.652 376.877 891.652C378.578 891.652 379.439 890.938 379.439 889.825C379.439 888.67 378.515 888.313 377.15 887.767L375.281 886.948C373.811 886.381 372.32 885.289 372.32 883.273C372.32 881.068 374.294 879.388 377.087 879.388C378.788 879.388 380.363 880.039 381.497 881.152L380.237 882.685C379.313 881.929 378.368 881.488 377.087 881.488C375.659 881.488 374.777 882.097 374.777 883.147C374.777 884.239 375.89 884.617 377.129 885.121L378.935 885.898C380.678 886.612 381.917 887.62 381.917 889.636C381.917 891.883 380.048 893.752 376.835 893.752Z" fill="#525252"/>
<path d="M1383 566L0 566" stroke="#C7C7C7" stroke-width="2" stroke-linecap="round" stroke-dasharray="8 16"/>
<path d="M57.9613 676.788C55.7533 676.788 53.6653 675.948 52.1293 674.46L53.7373 672.564C54.9133 673.644 56.4733 674.388 58.0093 674.388C59.9533 674.388 60.9373 673.572 60.9373 672.3C60.9373 670.98 59.8813 670.572 58.3213 669.948L56.1853 669.012C54.5053 668.364 52.8013 667.116 52.8013 664.812C52.8013 662.292 55.0573 660.372 58.2493 660.372C60.1933 660.372 61.9933 661.116 63.2893 662.388L61.8493 664.14C60.7933 663.276 59.7133 662.772 58.2493 662.772C56.6173 662.772 55.6093 663.468 55.6093 664.668C55.6093 665.916 56.8813 666.348 58.2973 666.924L60.3613 667.812C62.3533 668.628 63.7693 669.78 63.7693 672.084C63.7693 674.652 61.6333 676.788 57.9613 676.788ZM74.7519 676.788C71.2959 676.788 69.2319 674.796 69.2319 670.452V660.66H71.9919V670.644C71.9919 673.26 73.0479 674.388 74.7519 674.388C76.4319 674.388 77.5119 673.26 77.5119 670.644V660.66H80.1999V670.452C80.1999 674.796 78.1839 676.788 74.7519 676.788ZM86.4065 676.5V660.66H91.6865C95.1185 660.66 97.6385 661.86 97.6385 665.532C97.6385 669.036 95.0705 670.644 91.6865 670.644H89.1665V676.5H86.4065ZM89.1665 668.436H91.4465C93.7985 668.436 94.9025 667.476 94.9025 665.532C94.9025 663.54 93.7505 662.868 91.4465 662.868H89.1665V668.436ZM101.589 676.5L106.677 660.66H109.917L115.005 676.5H112.077L110.853 672.18H105.645L104.397 676.5H101.589ZM106.245 669.996H110.253L109.701 668.028C109.221 666.348 108.741 664.572 108.285 662.82H108.189C107.757 664.572 107.277 666.348 106.797 668.028L106.245 669.996ZM120.132 676.5V660.66H124.74C127.956 660.66 130.308 661.644 130.308 664.548C130.308 666.036 129.42 667.5 127.572 668.004V668.1C129.852 668.484 131.1 669.684 131.1 671.844C131.1 675.012 128.58 676.5 125.148 676.5H120.132ZM122.892 667.236H124.476C126.684 667.236 127.596 666.372 127.596 664.884C127.596 663.42 126.588 662.82 124.548 662.82H122.892V667.236ZM122.892 674.34H124.86C127.164 674.34 128.388 673.476 128.388 671.676C128.388 669.972 127.212 669.228 124.86 669.228H122.892V674.34ZM135.17 676.5L140.258 660.66H143.498L148.586 676.5H145.658L144.434 672.18H139.226L137.978 676.5H135.17ZM139.826 669.996H143.834L143.282 668.028C142.802 666.348 142.322 664.572 141.866 662.82H141.77C141.338 664.572 140.858 666.348 140.378 668.028L139.826 669.996ZM158.705 676.788C156.497 676.788 154.409 675.948 152.873 674.46L154.481 672.564C155.657 673.644 157.217 674.388 158.753 674.388C160.697 674.388 161.681 673.572 161.681 672.3C161.681 670.98 160.625 670.572 159.065 669.948L156.929 669.012C155.249 668.364 153.545 667.116 153.545 664.812C153.545 662.292 155.801 660.372 158.993 660.372C160.937 660.372 162.737 661.116 164.033 662.388L162.593 664.14C161.537 663.276 160.457 662.772 158.993 662.772C157.361 662.772 156.353 663.468 156.353 664.668C156.353 665.916 157.625 666.348 159.041 666.924L161.105 667.812C163.097 668.628 164.513 669.78 164.513 672.084C164.513 674.652 162.377 676.788 158.705 676.788ZM170.768 676.5V660.66H180.776V662.988H173.528V667.092H179.672V669.42H173.528V674.148H181.016V676.5H170.768Z" fill="#171717"/>
<path d="M128.595 484.5V468.66H132.651C137.283 468.66 140.067 471.276 140.067 476.508C140.067 481.74 137.283 484.5 132.795 484.5H128.595ZM131.379 482.244H132.483C135.507 482.244 137.211 480.396 137.211 476.508C137.211 472.62 135.507 470.892 132.483 470.892H131.379V482.244ZM145.841 484.5V468.66H150.449C153.665 468.66 156.017 469.644 156.017 472.548C156.017 474.036 155.129 475.5 153.281 476.004V476.1C155.561 476.484 156.809 477.684 156.809 479.844C156.809 483.012 154.289 484.5 150.857 484.5H145.841ZM148.601 475.236H150.185C152.393 475.236 153.305 474.372 153.305 472.884C153.305 471.42 152.297 470.82 150.257 470.82H148.601V475.236ZM148.601 482.34H150.569C152.873 482.34 154.097 481.476 154.097 479.676C154.097 477.972 152.921 477.228 150.569 477.228H148.601V482.34ZM167.576 484.788C163.952 484.788 161.408 481.62 161.408 476.508C161.408 471.372 163.952 468.372 167.576 468.372C171.224 468.372 173.744 471.396 173.744 476.508C173.744 481.62 171.224 484.788 167.576 484.788ZM167.576 482.388C169.592 482.388 170.912 480.084 170.912 476.508C170.912 472.932 169.592 470.772 167.576 470.772C165.56 470.772 164.264 472.932 164.264 476.508C164.264 480.084 165.56 482.388 167.576 482.388ZM184.414 484.788C182.206 484.788 180.118 483.948 178.582 482.46L180.19 480.564C181.366 481.644 182.926 482.388 184.462 482.388C186.406 482.388 187.39 481.572 187.39 480.3C187.39 478.98 186.334 478.572 184.774 477.948L182.638 477.012C180.958 476.364 179.254 475.116 179.254 472.812C179.254 470.292 181.51 468.372 184.702 468.372C186.646 468.372 188.446 469.116 189.742 470.388L188.302 472.14C187.246 471.276 186.166 470.772 184.702 470.772C183.07 470.772 182.062 471.468 182.062 472.668C182.062 473.916 183.334 474.348 184.75 474.924L186.814 475.812C188.806 476.628 190.222 477.78 190.222 480.084C190.222 482.652 188.086 484.788 184.414 484.788Z" fill="#171717"/>
</g>
<defs>
<clipPath id="clip0_885_8235">
<rect width="1383" height="1002" fill="white"/>
</clipPath>
</defs>
</svg>
