<svg xmlns="http://www.w3.org/2000/svg" width="1383" height="1002" fill="none" viewBox="0 0 1383 1002"><g clip-path="url(#a)"><path fill="#f8f9fa" d="M0 0h1383v1002H0z"/><path fill="#171717" d="M1266.29 759.018c.39.39 1.03.39 1.42 0l6.36-6.364c.39-.391.39-1.024 0-1.415a.996.996 0 0 0-1.41 0l-5.66 5.657-5.66-5.657a.996.996 0 0 0-1.41 0 1 1 0 0 0 0 1.415zm-.29-365.489v3.04h2v-3.04zm0 9.12v6.08h2v-6.08zm0 12.159v6.08h2v-6.08zm0 12.16v6.079h2v-6.079zm0 12.159v6.08h2v-6.08zm0 12.159v6.08h2v-6.08zm0 12.16v6.079h2v-6.079zm0 12.159v6.08h2v-6.08zm0 12.159v6.08h2v-6.08zm0 12.16v6.08h2v-6.08zm0 12.159v6.08h2v-6.08zm0 12.16v6.079h2v-6.079zm0 12.159v6.08h2v-6.08zm0 12.159v6.08h2v-6.08zm0 12.16v6.079h2v-6.079zm0 12.159v6.08h2v-6.08zm0 12.159v6.08h2v-6.08zm0 12.16v6.079h2v-6.079zm0 12.159v6.08h2v-6.08zm0 12.159v6.08h2v-6.08zm0 12.16v6.08h2v-6.08zm0 12.159v6.08h2v-6.08zm0 12.16v6.079h2v-6.079zm0 12.159v6.08h2v-6.08zm0 12.159v6.08h2v-6.08zm0 12.16v6.079h2v-6.079zm0 12.159v6.08h2v-6.08zm0 12.159v6.08h2v-6.08zm0 12.16v6.079h2v-6.079zm0 12.159v6.08h2v-6.08zm0 12.16v3.04h2v-3.04z"/><rect width="1089" height="427" x="235" y="61.5" fill="#c7c7c7" fill-opacity=".1" rx="32"/><rect width="1089" height="427" x="235" y="61.5" stroke="#c7c7c7" stroke-dasharray="8 16" stroke-linecap="round" stroke-width="2" rx="32"/><rect width="1089" height="288" x="235" y="652.5" fill="#c7c7c7" fill-opacity=".1" rx="32"/><rect width="1089" height="288" x="235" y="652.5" stroke="#c7c7c7" stroke-dasharray="8 16" stroke-linecap="round" stroke-width="2" rx="32"/><rect width="42" height="42" x="459" y="764.5" fill="#20ac6d" fill-opacity=".15" rx="21"/><rect width="42" height="42" x="459" y="764.5" stroke="#20ac6d" stroke-linecap="round" stroke-width="2" rx="21"/><path fill="#171717" d="M478.973 759.018a1 1 0 0 0 1.414 0l6.364-6.364a1 1 0 0 0-1.414-1.415l-5.657 5.657-5.657-5.657a1 1 0 0 0-1.414 1.415zm-.293-568.632v3.021h2v-3.021zm0 9.062v6.042h2v-6.042zm0 12.084v6.042h2v-6.042zm0 12.083v6.042h2v-6.042zm0 12.084v6.042h2v-6.042zm0 12.083v6.042h2v-6.042zm0 12.084v6.042h2v-6.042zm0 12.083v6.042h2v-6.042zm0 12.084v6.042h2v-6.042zm0 12.083v6.042h2v-6.042zm0 12.084v6.042h2V308.2zm0 12.083v6.042h2v-6.042zm0 12.084v6.042h2v-6.042zm0 12.083v6.042h2v-6.042zm0 12.084v6.042h2v-6.042zm0 12.083v6.042h2v-6.042zm0 12.084v6.042h2v-6.042zm0 12.083v6.042h2v-6.042zm0 12.084v6.042h2v-6.042zm0 12.083v6.042h2v-6.042zm0 12.084v6.042h2v-6.042zm0 12.083v6.042h2v-6.042zm0 12.084v6.042h2v-6.042zm0 12.083v6.042h2v-6.042zm0 12.084v6.042h2v-6.042zm0 12.083v6.042h2v-6.042zm0 12.084v6.042h2v-6.042zm0 12.083v6.042h2v-6.042zm0 12.084v6.042h2v-6.042zm0 12.083v6.042h2v-6.042zm0 12.084v6.042h2v-6.042zm0 12.083v6.042h2v-6.042zm0 12.084v6.042h2v-6.042zm0 12.083v6.042h2v-6.042zm0 12.084v6.042h2v-6.042zm0 12.083v6.042h2v-6.042zm0 12.084v6.042h2v-6.042zm0 12.083v6.042h2v-6.042zm0 12.084v6.042h2v-6.042zm0 12.083v6.042h2v-6.042zm0 12.084v6.042h2v-6.042zm0 12.083v6.042h2v-6.042zm0 12.084v6.042h2v-6.042zm0 12.083v6.042h2v-6.042zm0 12.084v6.042h2v-6.042zm0 12.083v6.042h2v-6.042zm0 12.084v6.042h2v-6.042zm0 12.083v3.022h2v-3.022zM762.848 759.018a1 1 0 0 0 1.414 0l6.364-6.364a1 1 0 0 0-1.414-1.415l-5.657 5.657-5.657-5.657a1 1 0 0 0-1.414 1.415zm-.293-568.632v3.021h2v-3.021zm0 9.062v6.042h2v-6.042zm0 12.084v6.042h2v-6.042zm0 12.083v6.042h2v-6.042zm0 12.084v6.042h2v-6.042zm0 12.083v6.042h2v-6.042zm0 12.084v6.042h2v-6.042zm0 12.083v6.042h2v-6.042zm0 12.084v6.042h2v-6.042zm0 12.083v6.042h2v-6.042zm0 12.084v6.042h2V308.2zm0 12.083v6.042h2v-6.042zm0 12.084v6.042h2v-6.042zm0 12.083v6.042h2v-6.042zm0 12.084v6.042h2v-6.042zm0 12.083v6.042h2v-6.042zm0 12.084v6.042h2v-6.042zm0 12.083v6.042h2v-6.042zm0 12.084v6.042h2v-6.042zm0 12.083v6.042h2v-6.042zm0 12.084v6.042h2v-6.042zm0 12.083v6.042h2v-6.042zm0 12.084v6.042h2v-6.042zm0 12.083v6.042h2v-6.042zm0 12.084v6.042h2v-6.042zm0 12.083v6.042h2v-6.042zm0 12.084v6.042h2v-6.042zm0 12.083v6.042h2v-6.042zm0 12.084v6.042h2v-6.042zm0 12.083v6.042h2v-6.042zm0 12.084v6.042h2v-6.042zm0 12.083v6.042h2v-6.042zm0 12.084v6.042h2v-6.042zm0 12.083v6.042h2v-6.042zm0 12.084v6.042h2v-6.042zm0 12.083v6.042h2v-6.042zm0 12.084v6.042h2v-6.042zm0 12.083v6.042h2v-6.042zm0 12.084v6.042h2v-6.042zm0 12.083v6.042h2v-6.042zm0 12.084v6.042h2v-6.042zm0 12.083v6.042h2v-6.042zm0 12.084v6.042h2v-6.042zm0 12.083v6.042h2v-6.042zm0 12.084v6.042h2v-6.042zm0 12.083v6.042h2v-6.042zm0 12.084v6.042h2v-6.042zm0 12.083v3.022h2v-3.022zM998.961 759.018c.39.39 1.024.39 1.419 0l6.36-6.364a1.002 1.002 0 1 0-1.42-1.415l-5.652 5.657-5.657-5.657a1 1 0 0 0-1.414 1.415zm-.293-466.098v2.983h2.002v-2.983zm0 8.95v5.966h2.002v-5.966zm0 11.933v5.966h2.002v-5.966zm0 11.933v5.966h2.002v-5.966zm0 11.933v5.967h2.002v-5.967zm0 11.933v5.967h2.002v-5.967zm0 11.933v5.967h2.002v-5.967zm0 11.933v5.967h2.002v-5.967zm0 11.933v5.967h2.002v-5.967zm0 11.933v5.967h2.002v-5.967zm0 11.934v5.966h2.002v-5.966zm0 11.933v5.966h2.002v-5.966zm0 11.933v5.966h2.002v-5.966zm0 11.933v5.966h2.002v-5.966zm0 11.933v5.967h2.002V457zm0 11.933v5.967h2.002v-5.967zm0 11.933v5.967h2.002v-5.967zm0 11.933v5.967h2.002v-5.967zm0 11.933v5.967h2.002v-5.967zm0 11.933v5.967h2.002v-5.967zm0 11.934v5.966h2.002v-5.966zm0 11.933v5.966h2.002v-5.966zm0 11.933v5.966h2.002v-5.966zm0 11.933v5.966h2.002v-5.966zm0 11.933v5.967h2.002v-5.967zm0 11.933v5.967h2.002v-5.967zm0 11.933v5.967h2.002v-5.967zm0 11.933v5.967h2.002v-5.967zm0 11.933v5.967h2.002v-5.967zm0 11.934v5.966h2.002v-5.966zm0 11.933v5.966h2.002v-5.966zm0 11.933v5.966h2.002v-5.966zm0 11.933v5.966h2.002v-5.966zm0 11.933v5.967h2.002v-5.967zm0 11.933v5.967h2.002v-5.967zm0 11.933v5.967h2.002v-5.967zm0 11.933v5.967h2.002v-5.967zm0 11.933v5.967h2.002v-5.967zm0 11.933v5.967h2.002v-5.967zm0 11.934v2.983h2.002v-2.983z"/><rect width="42" height="42" x="743" y="764.5" fill="#20ac6d" fill-opacity=".15" rx="21"/><rect width="42" height="42" x="743" y="764.5" stroke="#20ac6d" stroke-linecap="round" stroke-width="2" rx="21"/><rect width="42" height="42" x="980.023" y="764.5" fill="#20ac6d" fill-opacity=".15" rx="21"/><rect width="42" height="42" x="980.023" y="764.5" stroke="#20ac6d" stroke-linecap="round" stroke-width="2" rx="21"/><rect width="42" height="42" x="1247" y="764.5" fill="#20ac6d" fill-opacity=".15" rx="21"/><rect width="42" height="42" x="1247" y="764.5" stroke="#20ac6d" stroke-linecap="round" stroke-width="2" rx="21"/><rect width="165" height="42" x="325" y="144.5" fill="#20ac6d" fill-opacity=".15" rx="12"/><rect width="165" height="42" x="325" y="144.5" stroke="#20ac6d" stroke-linecap="round" stroke-width="2" rx="12"/><rect width="217" height="42" x="558" y="144.5" fill="#20ac6d" fill-opacity=".15" rx="12"/><rect width="217" height="42" x="558" y="144.5" stroke="#20ac6d" stroke-linecap="round" stroke-width="2" rx="12"/><rect width="155" height="42" x="855" y="246.5" fill="#20ac6d" fill-opacity=".15" rx="12"/><rect width="155" height="42" x="855" y="246.5" stroke="#20ac6d" stroke-linecap="round" stroke-width="2" rx="12"/><path fill="#8f8f8f" d="M779 164a1.5 1.5 0 0 0 0 3zm0 3h24v-3h-24zm34.5 10.5v78h3v-78zM827 269h24v-3h-24zm-13.5-13.5c0 7.456 6.044 13.5 13.5 13.5v-3c-5.799 0-10.5-4.701-10.5-10.5zM803 167c5.799 0 10.5 4.701 10.5 10.5h3c0-7.456-6.044-13.5-13.5-13.5zM494 164a1.5 1.5 0 0 0 0 3zm0 3h60v-3h-60z"/><rect width="188" height="42" x="1089" y="348.5" fill="#20ac6d" fill-opacity=".15" rx="12"/><rect width="188" height="42" x="1089" y="348.5" stroke="#20ac6d" stroke-linecap="round" stroke-width="2" rx="12"/><path fill="#8f8f8f" d="M1014 266a1.5 1.5 0 1 0 0 3zm0 3h23.5v-3H1014zm34 10.5v78h3v-78zm13.5 91.5h23.5v-3h-23.5zm-13.5-13.5c0 7.456 6.04 13.5 13.5 13.5v-3c-5.8 0-10.5-4.701-10.5-10.5zm-10.5-88.5c5.8 0 10.5 4.701 10.5 10.5h3c0-7.456-6.04-13.5-13.5-13.5z"/><path fill="#525252" d="M277.562 441.5v-13.86h8.715v2.037h-6.3v3.969h5.355v2.037h-5.355v5.817zm12.865 0v-2.058h3.297v-9.765h-3.297v-2.037h9.051v2.037h-3.318v9.765h3.318v2.058zm13.642 0v-13.86h4.578c2.835 0 5.04 1.008 5.04 4.095 0 2.1-1.092 3.381-2.751 3.948l3.297 5.817h-2.73l-2.982-5.439h-2.037v5.439zm2.415-7.392h1.911c1.89 0 2.898-.798 2.898-2.373 0-1.617-1.008-2.163-2.898-2.163h-1.911zm11.646 7.392v-13.86h8.757v2.037h-6.342v3.591h5.376v2.037h-5.376v4.137h6.552v2.058zm18.976.252c-3.507 0-6.258-2.562-6.258-7.14 0-4.536 2.709-7.224 6.342-7.224 1.701 0 3.045.819 3.906 1.722l-1.344 1.512c-.693-.693-1.491-1.134-2.562-1.134-2.289 0-3.864 1.911-3.864 5.04 0 3.171 1.575 5.124 3.927 5.124 1.113 0 1.974-.525 2.751-1.386l1.365 1.47c-1.113 1.302-2.52 2.016-4.263 2.016m7.888-.252v-13.86h4.578c2.835 0 5.04 1.008 5.04 4.095 0 2.1-1.092 3.381-2.751 3.948l3.297 5.817h-2.73l-2.982-5.439h-2.037v5.439zm2.415-7.392h1.911c1.89 0 2.898-.798 2.898-2.373 0-1.617-1.008-2.163-2.898-2.163h-1.911zm9.883 7.392 4.452-13.86h2.835l4.452 13.86h-2.562l-1.071-3.78h-4.557l-1.092 3.78zm4.074-5.691h3.507l-.483-1.722c-.42-1.47-.84-3.024-1.239-4.557h-.084a131 131 0 0 1-1.218 4.557zm16.666 5.943c-3.507 0-6.258-2.562-6.258-7.14 0-4.536 2.709-7.224 6.342-7.224 1.701 0 3.045.819 3.906 1.722l-1.344 1.512c-.693-.693-1.491-1.134-2.562-1.134-2.289 0-3.864 1.911-3.864 5.04 0 3.171 1.575 5.124 3.927 5.124 1.113 0 1.974-.525 2.751-1.386l1.365 1.47c-1.113 1.302-2.52 2.016-4.263 2.016m7.845-.252v-13.86h2.457v6.321h.063l4.914-6.321h2.688l-4.221 5.397 4.683 8.463h-2.688l-3.444-6.552-1.995 2.478v4.074zm14.104 0v-13.86h8.757v2.037h-6.342v3.591h5.376v2.037h-5.376v4.137h6.552v2.058zm13.222 0v-13.86h4.578c2.835 0 5.04 1.008 5.04 4.095 0 2.1-1.092 3.381-2.751 3.948l3.297 5.817h-2.73l-2.982-5.439h-2.037v5.439zm2.415-7.392h1.911c1.89 0 2.898-.798 2.898-2.373 0-1.617-1.008-2.163-2.898-2.163h-1.911zM276.848 893.5v-13.86h4.62c3.003 0 5.208 1.05 5.208 4.263 0 3.066-2.247 4.473-5.208 4.473h-2.205v5.124zm2.415-7.056h1.995c2.058 0 3.024-.84 3.024-2.541 0-1.743-1.008-2.331-3.024-2.331h-1.995zm15.679 7.308c-3.171 0-5.397-2.772-5.397-7.245 0-4.494 2.226-7.119 5.397-7.119 3.192 0 5.397 2.646 5.397 7.119s-2.205 7.245-5.397 7.245m0-2.1c1.764 0 2.919-2.016 2.919-5.145s-1.155-5.019-2.919-5.019-2.898 1.89-2.898 5.019 1.134 5.145 2.898 5.145m13.684 2.1c-1.932 0-3.759-.735-5.103-2.037l1.407-1.659c1.029.945 2.394 1.596 3.738 1.596 1.701 0 2.562-.714 2.562-1.827 0-1.155-.924-1.512-2.289-2.058l-1.869-.819c-1.47-.567-2.961-1.659-2.961-3.675 0-2.205 1.974-3.885 4.767-3.885 1.701 0 3.276.651 4.41 1.764l-1.26 1.533c-.924-.756-1.869-1.197-3.15-1.197-1.428 0-2.31.609-2.31 1.659 0 1.092 1.113 1.47 2.352 1.974l1.806.777c1.743.714 2.982 1.722 2.982 3.738 0 2.247-1.869 4.116-5.082 4.116m12.381-.252v-11.823h-4.305v-2.037h11.067v2.037h-4.326V893.5zm15.7.252c-3.486 0-6.111-2.562-6.111-7.14 0-4.557 2.646-7.224 6.216-7.224 1.827 0 3.066.861 3.906 1.722l-1.344 1.512c-.63-.672-1.365-1.134-2.562-1.134-2.184 0-3.717 1.911-3.717 5.04 0 3.171 1.323 5.124 3.759 5.124.735 0 1.449-.231 1.869-.63v-3.024h-2.373v-1.995h4.557v6.111c-.903.882-2.436 1.638-4.2 1.638m8.287-.252v-13.86h4.578c2.835 0 5.04 1.008 5.04 4.095 0 2.1-1.092 3.381-2.751 3.948l3.297 5.817h-2.73l-2.982-5.439h-2.037v5.439zm2.415-7.392h1.911c1.89 0 2.898-.798 2.898-2.373 0-1.617-1.008-2.163-2.898-2.163h-1.911zm11.647 7.392v-13.86h8.757v2.037h-6.342v3.591h5.376v2.037h-5.376v4.137h6.552v2.058zm17.779.252c-1.932 0-3.759-.735-5.103-2.037l1.407-1.659c1.029.945 2.394 1.596 3.738 1.596 1.701 0 2.562-.714 2.562-1.827 0-1.155-.924-1.512-2.289-2.058l-1.869-.819c-1.47-.567-2.961-1.659-2.961-3.675 0-2.205 1.974-3.885 4.767-3.885 1.701 0 3.276.651 4.41 1.764l-1.26 1.533c-.924-.756-1.869-1.197-3.15-1.197-1.428 0-2.31.609-2.31 1.659 0 1.092 1.113 1.47 2.352 1.974l1.806.777c1.743.714 2.982 1.722 2.982 3.738 0 2.247-1.869 4.116-5.082 4.116"/><path stroke="#c7c7c7" stroke-dasharray="8 16" stroke-linecap="round" stroke-width="2" d="M1383 566H0"/><path fill="#171717" d="M57.961 676.788c-2.208 0-4.296-.84-5.832-2.328l1.608-1.896c1.176 1.08 2.736 1.824 4.272 1.824 1.944 0 2.928-.816 2.928-2.088 0-1.32-1.056-1.728-2.616-2.352l-2.136-.936c-1.68-.648-3.384-1.896-3.384-4.2 0-2.52 2.256-4.44 5.448-4.44 1.944 0 3.744.744 5.04 2.016l-1.44 1.752c-1.056-.864-2.136-1.368-3.6-1.368-1.632 0-2.64.696-2.64 1.896 0 1.248 1.272 1.68 2.688 2.256l2.064.888c1.992.816 3.408 1.968 3.408 4.272 0 2.568-2.136 4.704-5.808 4.704m16.79 0c-3.455 0-5.52-1.992-5.52-6.336v-9.792h2.76v9.984c0 2.616 1.057 3.744 2.76 3.744 1.68 0 2.76-1.128 2.76-3.744v-9.984H80.2v9.792c0 4.344-2.016 6.336-5.448 6.336m11.655-.288v-15.84h5.28c3.432 0 5.952 1.2 5.952 4.872 0 3.504-2.568 5.112-5.952 5.112h-2.52v5.856zm2.76-8.064h2.28c2.353 0 3.457-.96 3.457-2.904 0-1.992-1.153-2.664-3.457-2.664h-2.28zm12.423 8.064 5.088-15.84h3.24l5.088 15.84h-2.928l-1.224-4.32h-5.208l-1.248 4.32zm4.656-6.504h4.008l-.552-1.968c-.48-1.68-.96-3.456-1.416-5.208h-.096a149 149 0 0 1-1.392 5.208zm13.887 6.504v-15.84h4.608c3.216 0 5.568.984 5.568 3.888 0 1.488-.888 2.952-2.736 3.456v.096c2.28.384 3.528 1.584 3.528 3.744 0 3.168-2.52 4.656-5.952 4.656zm2.76-9.264h1.584c2.208 0 3.12-.864 3.12-2.352 0-1.464-1.008-2.064-3.048-2.064h-1.656zm0 7.104h1.968c2.304 0 3.528-.864 3.528-2.664 0-1.704-1.176-2.448-3.528-2.448h-1.968zm12.278 2.16 5.088-15.84h3.24l5.088 15.84h-2.928l-1.224-4.32h-5.208l-1.248 4.32zm4.656-6.504h4.008l-.552-1.968c-.48-1.68-.96-3.456-1.416-5.208h-.096a149 149 0 0 1-1.392 5.208zm18.879 6.792c-2.208 0-4.296-.84-5.832-2.328l1.608-1.896c1.176 1.08 2.736 1.824 4.272 1.824 1.944 0 2.928-.816 2.928-2.088 0-1.32-1.056-1.728-2.616-2.352l-2.136-.936c-1.68-.648-3.384-1.896-3.384-4.2 0-2.52 2.256-4.44 5.448-4.44 1.944 0 3.744.744 5.04 2.016l-1.44 1.752c-1.056-.864-2.136-1.368-3.6-1.368-1.632 0-2.64.696-2.64 1.896 0 1.248 1.272 1.68 2.688 2.256l2.064.888c1.992.816 3.408 1.968 3.408 4.272 0 2.568-2.136 4.704-5.808 4.704m12.063-.288v-15.84h10.008v2.328h-7.248v4.104h6.144v2.328h-6.144v4.728h7.488v2.352zM128.595 484.5v-15.84h4.056c4.632 0 7.416 2.616 7.416 7.848s-2.784 7.992-7.272 7.992zm2.784-2.256h1.104c3.024 0 4.728-1.848 4.728-5.736s-1.704-5.616-4.728-5.616h-1.104zm14.462 2.256v-15.84h4.608c3.216 0 5.568.984 5.568 3.888 0 1.488-.888 2.952-2.736 3.456v.096c2.28.384 3.528 1.584 3.528 3.744 0 3.168-2.52 4.656-5.952 4.656zm2.76-9.264h1.584c2.208 0 3.12-.864 3.12-2.352 0-1.464-1.008-2.064-3.048-2.064h-1.656zm0 7.104h1.968c2.304 0 3.528-.864 3.528-2.664 0-1.704-1.176-2.448-3.528-2.448h-1.968zm18.975 2.448c-3.624 0-6.168-3.168-6.168-8.28 0-5.136 2.544-8.136 6.168-8.136 3.648 0 6.168 3.024 6.168 8.136s-2.52 8.28-6.168 8.28m0-2.4c2.016 0 3.336-2.304 3.336-5.88s-1.32-5.736-3.336-5.736-3.312 2.16-3.312 5.736 1.296 5.88 3.312 5.88m16.838 2.4c-2.208 0-4.296-.84-5.832-2.328l1.608-1.896c1.176 1.08 2.736 1.824 4.272 1.824 1.944 0 2.928-.816 2.928-2.088 0-1.32-1.056-1.728-2.616-2.352l-2.136-.936c-1.68-.648-3.384-1.896-3.384-4.2 0-2.52 2.256-4.44 5.448-4.44 1.944 0 3.744.744 5.04 2.016l-1.44 1.752c-1.056-.864-2.136-1.368-3.6-1.368-1.632 0-2.64.696-2.64 1.896 0 1.248 1.272 1.68 2.688 2.256l2.064.888c1.992.816 3.408 1.968 3.408 4.272 0 2.568-2.136 4.704-5.808 4.704"/></g><defs><clipPath id="a"><path fill="#fff" d="M0 0h1383v1002H0z"/></clipPath></defs></svg>