<svg width="1383" height="883" viewBox="0 0 1383 883" fill="none" xmlns="http://www.w3.org/2000/svg">
<rect width="1383" height="883" fill="#F8F9FA"/>
<path d="M690.793 299.602C691.183 299.993 691.817 299.993 692.207 299.602L698.571 293.238C698.962 292.848 698.962 292.214 698.571 291.824C698.181 291.433 697.547 291.433 697.157 291.824L691.5 297.481L685.843 291.824C685.453 291.433 684.819 291.433 684.429 291.824C684.038 292.214 684.038 292.848 684.429 293.238L690.793 299.602ZM692.5 298.895L692.5 235.031L690.5 235.031L690.5 298.895L692.5 298.895Z" fill="#171717"/>
<path d="M690.793 473.803C691.183 474.194 691.817 474.194 692.207 473.803L698.571 467.439C698.962 467.049 698.962 466.416 698.571 466.025C698.181 465.635 697.547 465.635 697.157 466.025L691.5 471.682L685.843 466.025C685.453 465.635 684.819 465.635 684.429 466.025C684.038 466.416 684.038 467.049 684.429 467.439L690.793 473.803ZM692.5 473.096L692.5 409.232L690.5 409.232L690.5 473.096L692.5 473.096Z" fill="#171717"/>
<path d="M690.793 648.34C691.183 648.73 691.817 648.73 692.207 648.34L698.571 641.976C698.962 641.585 698.962 640.952 698.571 640.562C698.181 640.171 697.547 640.171 697.157 640.562L691.5 646.219L685.843 640.562C685.453 640.171 684.819 640.171 684.429 640.562C684.038 640.952 684.038 641.585 684.429 641.976L690.793 648.34ZM692.5 647.633L692.5 583.769L690.5 583.769L690.5 647.633L692.5 647.633Z" fill="#171717"/>
<g filter="url(#filter0_d_885_7843)">
<rect x="289.836" y="125" width="803" height="110" rx="21" fill="#FCFCFC" shape-rendering="crispEdges"/>
<rect x="290.336" y="125.5" width="802" height="109" rx="20.5" stroke="#C7C7C7" shape-rendering="crispEdges"/>
<path d="M548.548 189V186.744H552.7V176.16H549.484V174.432C551.188 174.168 552.364 173.736 553.42 173.16H555.436V186.744H559.18V189H548.548ZM567.979 189.288C566.611 189.288 565.627 188.256 565.627 186.864C565.627 185.472 566.611 184.44 567.979 184.44C569.347 184.44 570.355 185.472 570.355 186.864C570.355 188.256 569.347 189.288 567.979 189.288ZM587.404 189L582.532 173.16H585.46L587.692 181.152C588.196 182.952 588.532 184.488 589.06 186.312H589.156C589.684 184.488 590.044 182.952 590.548 181.152L592.732 173.16H595.54L590.692 189H587.404ZM603.067 189.312C600.787 189.312 599.131 187.848 599.131 185.736C599.131 182.976 601.459 181.632 607.291 181.176C607.195 179.76 606.403 178.68 604.459 178.68C603.139 178.68 601.939 179.304 601.099 180L600.091 178.176C601.123 177.288 602.947 176.448 604.987 176.448C608.251 176.448 610.027 178.344 610.027 181.704V189H607.795L607.579 187.464H607.483C606.235 188.448 604.675 189.312 603.067 189.312ZM603.907 187.128C605.083 187.128 606.211 186.552 607.291 185.592V182.904C603.043 183.216 601.795 184.152 601.795 185.52C601.795 186.648 602.731 187.128 603.907 187.128ZM622.641 189.312C619.905 189.312 618.465 187.584 618.465 184.584V173.784H614.745V171.6H621.201V184.752C621.201 186.408 622.113 187.056 623.313 187.056C623.913 187.056 624.537 186.912 625.353 186.552L626.001 188.592C624.849 189 624.009 189.312 622.641 189.312ZM636.024 174.672C634.872 174.672 633.984 173.88 633.984 172.656C633.984 171.432 634.872 170.592 636.024 170.592C637.2 170.592 638.064 171.432 638.064 172.656C638.064 173.88 637.2 174.672 636.024 174.672ZM630.552 189V186.744H634.848V178.944H630.552V176.76H637.608V186.744H641.904V189H630.552ZM650.534 189.312C647.486 189.312 645.494 186.936 645.494 182.88C645.494 178.896 648.014 176.448 650.678 176.448C652.07 176.448 653.006 177.024 653.966 177.936L653.87 175.824V171.6H656.63V189H654.374L654.158 187.536H654.086C653.15 188.496 651.854 189.312 650.534 189.312ZM651.182 187.032C652.166 187.032 653.054 186.528 653.87 185.496V179.88C653.03 179.04 652.19 178.728 651.35 178.728C649.694 178.728 648.326 180.264 648.326 182.856C648.326 185.544 649.382 187.032 651.182 187.032ZM665.429 189.312C663.149 189.312 661.493 187.848 661.493 185.736C661.493 182.976 663.821 181.632 669.653 181.176C669.557 179.76 668.765 178.68 666.821 178.68C665.501 178.68 664.301 179.304 663.461 180L662.453 178.176C663.485 177.288 665.309 176.448 667.349 176.448C670.613 176.448 672.389 178.344 672.389 181.704V189H670.157L669.941 187.464H669.845C668.597 188.448 667.037 189.312 665.429 189.312ZM666.269 187.128C667.445 187.128 668.573 186.552 669.653 185.592V182.904C665.405 183.216 664.157 184.152 664.157 185.52C664.157 186.648 665.093 187.128 666.269 187.128ZM684.764 189.312C681.164 189.312 679.94 187.2 679.94 184.104V178.944H676.796V176.76H680.06V173.16L682.7 171.84V176.76H688.076V178.944H682.7V184.104C682.7 186.144 683.42 187.104 685.412 187.104C686.42 187.104 687.26 186.888 688.004 186.6L688.532 188.592C687.476 188.952 686.156 189.312 684.764 189.312ZM698.89 189.312C695.314 189.312 692.458 186.912 692.458 182.88C692.458 178.896 695.434 176.448 698.53 176.448C702.034 176.448 703.978 178.872 703.978 182.256C703.978 182.784 703.906 183.312 703.858 183.624H695.29C695.458 185.88 697.114 187.152 699.25 187.152C700.474 187.152 701.506 186.792 702.562 186.144L703.498 187.872C702.25 188.688 700.618 189.312 698.89 189.312ZM695.266 181.728H701.458C701.458 179.76 700.45 178.584 698.578 178.584C696.994 178.584 695.578 179.688 695.266 181.728ZM724.264 189V173.16H729.544C732.976 173.16 735.496 174.36 735.496 178.032C735.496 181.536 732.928 183.144 729.544 183.144H727.024V189H724.264ZM727.024 180.936H729.304C731.656 180.936 732.76 179.976 732.76 178.032C732.76 176.04 731.608 175.368 729.304 175.368H727.024V180.936ZM743.382 189.312C741.102 189.312 739.446 187.848 739.446 185.736C739.446 182.976 741.774 181.632 747.606 181.176C747.51 179.76 746.718 178.68 744.774 178.68C743.454 178.68 742.254 179.304 741.414 180L740.406 178.176C741.438 177.288 743.262 176.448 745.302 176.448C748.566 176.448 750.342 178.344 750.342 181.704V189H748.11L747.894 187.464H747.798C746.55 188.448 744.99 189.312 743.382 189.312ZM744.222 187.128C745.398 187.128 746.526 186.552 747.606 185.592V182.904C743.358 183.216 742.11 184.152 742.11 185.52C742.11 186.648 743.046 187.128 744.222 187.128ZM756.621 194.208C755.997 194.208 755.397 194.112 754.941 193.968L755.469 191.856C755.781 191.952 756.117 192 756.453 192C757.965 192 758.805 190.92 759.237 189.816L759.597 188.88L754.293 176.76H757.053L759.477 182.88C759.909 183.984 760.365 185.256 760.797 186.48H760.893C761.253 185.304 761.661 184.032 762.045 182.88L764.205 176.76H766.797L761.877 189.792C760.869 192.504 759.453 194.208 756.621 194.208ZM770.075 189V176.76H772.163L772.379 178.344H772.475C772.979 177.24 773.699 176.448 775.043 176.448C776.171 176.448 776.915 177.144 777.203 178.512C777.755 177.312 778.571 176.448 779.891 176.448C781.523 176.448 782.483 177.864 782.483 180.312V189H779.867V180.528C779.867 179.376 779.579 178.8 778.907 178.8C778.259 178.8 777.803 179.352 777.347 180.384V189H775.211V180.528C775.211 179.376 774.851 178.8 774.203 178.8C773.555 178.8 773.147 179.352 772.691 180.384V189H770.075ZM792.434 189.312C788.858 189.312 786.002 186.912 786.002 182.88C786.002 178.896 788.978 176.448 792.074 176.448C795.578 176.448 797.522 178.872 797.522 182.256C797.522 182.784 797.45 183.312 797.402 183.624H788.834C789.002 185.88 790.658 187.152 792.794 187.152C794.018 187.152 795.05 186.792 796.106 186.144L797.042 187.872C795.794 188.688 794.162 189.312 792.434 189.312ZM788.81 181.728H795.002C795.002 179.76 793.994 178.584 792.122 178.584C790.538 178.584 789.122 179.688 788.81 181.728ZM802.097 189V176.76H804.353L804.569 178.656H804.665C805.793 177.432 807.113 176.448 808.913 176.448C811.625 176.448 812.873 178.248 812.873 181.416V189H810.113V181.776C810.113 179.76 809.513 178.8 807.905 178.8C806.729 178.8 805.937 179.424 804.833 180.624V189H802.097ZM825.079 189.312C821.479 189.312 820.255 187.2 820.255 184.104V178.944H817.111V176.76H820.375V173.16L823.015 171.84V176.76H828.391V178.944H823.015V184.104C823.015 186.144 823.735 187.104 825.727 187.104C826.735 187.104 827.575 186.888 828.319 186.6L828.847 188.592C827.791 188.952 826.471 189.312 825.079 189.312Z" fill="#171717"/>
</g>
<g filter="url(#filter1_d_885_7843)">
<rect x="289.836" y="299" width="803" height="110" rx="21" fill="#FCFCFC" shape-rendering="crispEdges"/>
<rect x="290.336" y="299.5" width="802" height="109" rx="20.5" stroke="#C7C7C7" shape-rendering="crispEdges"/>
<path d="M555.972 363V361.392C560.748 357.072 563.628 354.312 563.628 351.84C563.628 350.16 562.644 349.056 560.724 349.056C559.38 349.056 558.276 349.848 557.34 350.832L555.828 349.32C557.316 347.784 558.828 346.872 561.084 346.872C564.204 346.872 566.268 348.768 566.268 351.696C566.268 354.528 563.508 357.432 559.932 360.816C560.844 360.744 561.9 360.648 562.74 360.648H567.084V363H555.972ZM575.979 363.288C574.611 363.288 573.627 362.256 573.627 360.864C573.627 359.472 574.611 358.44 575.979 358.44C577.347 358.44 578.355 359.472 578.355 360.864C578.355 362.256 577.347 363.288 575.979 363.288ZM598.452 363.288C594.444 363.288 591.3 360.36 591.3 355.128C591.3 349.944 594.396 346.872 598.548 346.872C600.492 346.872 602.028 347.808 603.012 348.84L601.476 350.568C600.684 349.776 599.772 349.272 598.548 349.272C595.932 349.272 594.132 351.456 594.132 355.032C594.132 358.656 595.932 360.888 598.62 360.888C599.892 360.888 600.876 360.288 601.764 359.304L603.324 360.984C602.052 362.472 600.444 363.288 598.452 363.288ZM607.419 363V345.6H610.155V349.944L610.011 352.608C611.115 351.432 612.435 350.448 614.235 350.448C616.947 350.448 618.195 352.248 618.195 355.416V363H615.435V355.776C615.435 353.76 614.835 352.8 613.227 352.8C612.051 352.8 611.259 353.424 610.155 354.624V363H607.419ZM628.937 363.312C625.361 363.312 622.505 360.912 622.505 356.88C622.505 352.896 625.481 350.448 628.577 350.448C632.081 350.448 634.025 352.872 634.025 356.256C634.025 356.784 633.953 357.312 633.905 357.624H625.337C625.505 359.88 627.161 361.152 629.297 361.152C630.521 361.152 631.553 360.792 632.609 360.144L633.545 361.872C632.297 362.688 630.665 363.312 628.937 363.312ZM625.313 355.728H631.505C631.505 353.76 630.497 352.584 628.625 352.584C627.041 352.584 625.625 353.688 625.313 355.728ZM644.888 363.312C641.192 363.312 638.384 360.96 638.384 356.88C638.384 352.8 641.48 350.448 645.08 350.448C646.952 350.448 648.44 351.216 649.424 352.2L648.128 353.928C647.192 353.112 646.256 352.704 645.2 352.704C642.848 352.704 641.216 354.384 641.216 356.88C641.216 359.4 642.8 361.056 645.128 361.056C646.472 361.056 647.6 360.432 648.512 359.688L649.664 361.44C648.296 362.64 646.568 363.312 644.888 363.312ZM654.382 363V345.6H657.142V356.544H657.238L662.566 350.76H665.614L661.03 355.68L666.118 363H663.094L659.398 357.36L657.142 359.784V363H654.382ZM685.42 363V360.648H689.188V349.488H685.42V347.16H695.764V349.488H691.972V360.648H695.764V363H685.42ZM700.962 363V350.76H703.218L703.434 352.656H703.53C704.658 351.432 705.978 350.448 707.778 350.448C710.49 350.448 711.738 352.248 711.738 355.416V363H708.978V355.776C708.978 353.76 708.378 352.8 706.77 352.8C705.594 352.8 704.802 353.424 703.698 354.624V363H700.962ZM720.249 363L715.545 350.76H718.329L720.609 357.192C721.041 358.416 721.425 359.664 721.809 360.864H721.905C722.289 359.664 722.625 358.416 723.057 357.192L725.337 350.76H727.977L723.393 363H720.249ZM738.072 363.312C734.496 363.312 731.64 360.912 731.64 356.88C731.64 352.896 734.616 350.448 737.712 350.448C741.216 350.448 743.16 352.872 743.16 356.256C743.16 356.784 743.088 357.312 743.04 357.624H734.472C734.64 359.88 736.296 361.152 738.432 361.152C739.656 361.152 740.688 360.792 741.744 360.144L742.68 361.872C741.432 362.688 739.8 363.312 738.072 363.312ZM734.448 355.728H740.64C740.64 353.76 739.632 352.584 737.76 352.584C736.176 352.584 734.76 353.688 734.448 355.728ZM747.734 363V350.76H749.99L750.206 352.656H750.302C751.43 351.432 752.75 350.448 754.55 350.448C757.262 350.448 758.51 352.248 758.51 355.416V363H755.75V355.776C755.75 353.76 755.15 352.8 753.542 352.8C752.366 352.8 751.574 353.424 750.47 354.624V363H747.734ZM770.717 363.312C767.117 363.312 765.893 361.2 765.893 358.104V352.944H762.749V350.76H766.013V347.16L768.653 345.84V350.76H774.029V352.944H768.653V358.104C768.653 360.144 769.373 361.104 771.365 361.104C772.373 361.104 773.213 360.888 773.957 360.6L774.485 362.592C773.429 362.952 772.109 363.312 770.717 363.312ZM784.123 363.312C781.027 363.312 778.219 360.96 778.219 356.88C778.219 352.8 781.027 350.448 784.123 350.448C787.243 350.448 790.051 352.8 790.051 356.88C790.051 360.96 787.243 363.312 784.123 363.312ZM784.123 361.056C786.067 361.056 787.219 359.4 787.219 356.88C787.219 354.384 786.067 352.704 784.123 352.704C782.203 352.704 781.051 354.384 781.051 356.88C781.051 359.4 782.203 361.056 784.123 361.056ZM795.658 363V350.76H797.914L798.154 353.568H798.226C799.426 351.576 801.202 350.448 803.242 350.448C804.202 350.448 804.826 350.616 805.546 350.952L804.946 353.28C804.178 353.016 803.722 352.896 802.81 352.896C801.202 352.896 799.618 353.784 798.418 356.16V363H795.658ZM811.393 368.208C810.769 368.208 810.169 368.112 809.713 367.968L810.241 365.856C810.553 365.952 810.889 366 811.225 366C812.737 366 813.577 364.92 814.009 363.816L814.369 362.88L809.065 350.76H811.825L814.249 356.88C814.681 357.984 815.137 359.256 815.569 360.48H815.665C816.025 359.304 816.433 358.032 816.817 356.88L818.977 350.76H821.569L816.649 363.792C815.641 366.504 814.225 368.208 811.393 368.208Z" fill="#171717"/>
</g>
<g filter="url(#filter2_d_885_7843)">
<rect x="289.836" y="473" width="803" height="110" rx="21" fill="#FCFCFC" shape-rendering="crispEdges"/>
<rect x="290.336" y="473.5" width="802" height="109" rx="20.5" stroke="#C7C7C7" shape-rendering="crispEdges"/>
<path d="M600.18 537.288C597.564 537.288 595.74 536.304 594.588 535.056L595.908 533.28C596.916 534.264 598.284 535.032 599.964 535.032C601.836 535.032 603.228 534.12 603.228 532.608C603.228 530.928 601.932 529.824 598.14 529.824V527.808C601.452 527.808 602.7 526.728 602.7 525.216C602.7 523.872 601.644 523.056 600.012 523.056C598.692 523.056 597.54 523.656 596.508 524.568L595.092 522.864C596.46 521.664 598.164 520.872 600.132 520.872C603.228 520.872 605.46 522.384 605.46 525.024C605.46 526.824 604.236 528 602.388 528.672V528.792C604.356 529.272 605.988 530.616 605.988 532.728C605.988 535.608 603.324 537.288 600.18 537.288ZM614.979 537.288C613.611 537.288 612.627 536.256 612.627 534.864C612.627 533.472 613.611 532.44 614.979 532.44C616.347 532.44 617.355 533.472 617.355 534.864C617.355 536.256 616.347 537.288 614.979 537.288ZM636.084 537.288C633.876 537.288 631.788 536.448 630.252 534.96L631.86 533.064C633.036 534.144 634.596 534.888 636.132 534.888C638.076 534.888 639.06 534.072 639.06 532.8C639.06 531.48 638.004 531.072 636.444 530.448L634.308 529.512C632.628 528.864 630.924 527.616 630.924 525.312C630.924 522.792 633.18 520.872 636.372 520.872C638.316 520.872 640.116 521.616 641.412 522.888L639.972 524.64C638.916 523.776 637.836 523.272 636.372 523.272C634.74 523.272 633.732 523.968 633.732 525.168C633.732 526.416 635.004 526.848 636.42 527.424L638.484 528.312C640.476 529.128 641.892 530.28 641.892 532.584C641.892 535.152 639.756 537.288 636.084 537.288ZM646.419 537V519.6H649.155V523.944L649.011 526.608C650.115 525.432 651.435 524.448 653.235 524.448C655.947 524.448 657.195 526.248 657.195 529.416V537H654.435V529.776C654.435 527.76 653.835 526.8 652.227 526.8C651.051 526.8 650.259 527.424 649.155 528.624V537H646.419ZM667.433 522.672C666.281 522.672 665.393 521.88 665.393 520.656C665.393 519.432 666.281 518.592 667.433 518.592C668.609 518.592 669.473 519.432 669.473 520.656C669.473 521.88 668.609 522.672 667.433 522.672ZM661.961 537V534.744H666.257V526.944H661.961V524.76H669.017V534.744H673.313V537H661.961ZM677.6 541.92V524.76H679.856L680.072 526.176H680.144C681.152 525.192 682.568 524.448 683.936 524.448C686.984 524.448 688.736 526.896 688.736 530.688C688.736 534.864 686.24 537.312 683.504 537.312C682.424 537.312 681.224 536.76 680.264 535.824L680.336 538.008V541.92H677.6ZM682.928 535.032C684.632 535.032 685.904 533.52 685.904 530.712C685.904 528.24 685.064 526.728 683.168 526.728C682.256 526.728 681.32 527.208 680.336 528.264V533.856C681.224 534.696 682.232 535.032 682.928 535.032ZM713.989 537.288C710.365 537.288 707.821 534.12 707.821 529.008C707.821 523.872 710.365 520.872 713.989 520.872C717.637 520.872 720.157 523.896 720.157 529.008C720.157 534.12 717.637 537.288 713.989 537.288ZM713.989 534.888C716.005 534.888 717.325 532.584 717.325 529.008C717.325 525.432 716.005 523.272 713.989 523.272C711.973 523.272 710.677 525.432 710.677 529.008C710.677 532.584 711.973 534.888 713.989 534.888ZM725.524 537V524.76H727.78L728.02 527.568H728.092C729.292 525.576 731.068 524.448 733.108 524.448C734.068 524.448 734.692 524.616 735.412 524.952L734.812 527.28C734.044 527.016 733.588 526.896 732.676 526.896C731.068 526.896 729.484 527.784 728.284 530.16V537H725.524ZM744.306 537.312C741.258 537.312 739.266 534.936 739.266 530.88C739.266 526.896 741.786 524.448 744.45 524.448C745.842 524.448 746.778 525.024 747.738 525.936L747.642 523.824V519.6H750.402V537H748.146L747.93 535.536H747.858C746.922 536.496 745.626 537.312 744.306 537.312ZM744.954 535.032C745.938 535.032 746.826 534.528 747.642 533.496V527.88C746.802 527.04 745.962 526.728 745.122 526.728C743.466 526.728 742.098 528.264 742.098 530.856C742.098 533.544 743.154 535.032 744.954 535.032ZM761.481 537.312C757.905 537.312 755.049 534.912 755.049 530.88C755.049 526.896 758.025 524.448 761.121 524.448C764.625 524.448 766.569 526.872 766.569 530.256C766.569 530.784 766.497 531.312 766.449 531.624H757.881C758.049 533.88 759.705 535.152 761.841 535.152C763.065 535.152 764.097 534.792 765.153 534.144L766.089 535.872C764.841 536.688 763.209 537.312 761.481 537.312ZM757.857 529.728H764.049C764.049 527.76 763.041 526.584 761.169 526.584C759.585 526.584 758.169 527.688 757.857 529.728ZM772.296 537V524.76H774.552L774.792 527.568H774.864C776.064 525.576 777.84 524.448 779.88 524.448C780.84 524.448 781.464 524.616 782.184 524.952L781.584 527.28C780.816 527.016 780.36 526.896 779.448 526.896C777.84 526.896 776.256 527.784 775.056 530.16V537H772.296Z" fill="#171717"/>
</g>
<g filter="url(#filter3_d_885_7843)">
<rect x="289.836" y="648" width="803" height="110" rx="21" fill="#FCFCFC" shape-rendering="crispEdges"/>
<rect x="290.336" y="648.5" width="802" height="109" rx="20.5" stroke="#C7C7C7" shape-rendering="crispEdges"/>
<path d="M562.908 712V707.872H555.276V706L560.34 696.16H563.148L558.084 705.736H562.908V701.608H565.476V705.736H567.636V707.872H565.476V712H562.908ZM575.979 712.288C574.611 712.288 573.627 711.256 573.627 709.864C573.627 708.472 574.611 707.44 575.979 707.44C577.347 707.44 578.355 708.472 578.355 709.864C578.355 711.256 577.347 712.288 575.979 712.288ZM591.636 712V696.16H594.444L598.668 705.136L600.132 708.496H600.204C600.084 706.864 599.82 704.872 599.82 703.12V696.16H602.46V712H599.628L595.428 703L593.964 699.664H593.892C594.012 701.344 594.276 703.24 594.276 704.992V712H591.636ZM612.627 712.312C609.531 712.312 606.723 709.96 606.723 705.88C606.723 701.8 609.531 699.448 612.627 699.448C615.747 699.448 618.555 701.8 618.555 705.88C618.555 709.96 615.747 712.312 612.627 712.312ZM612.627 710.056C614.571 710.056 615.723 708.4 615.723 705.88C615.723 703.384 614.571 701.704 612.627 701.704C610.707 701.704 609.555 703.384 609.555 705.88C609.555 708.4 610.707 710.056 612.627 710.056ZM630.401 712.312C626.801 712.312 625.577 710.2 625.577 707.104V701.944H622.433V699.76H625.697V696.16L628.337 694.84V699.76H633.713V701.944H628.337V707.104C628.337 709.144 629.057 710.104 631.049 710.104C632.057 710.104 632.897 709.888 633.641 709.6L634.169 711.592C633.113 711.952 631.793 712.312 630.401 712.312ZM644.024 697.672C642.872 697.672 641.984 696.88 641.984 695.656C641.984 694.432 642.872 693.592 644.024 693.592C645.2 693.592 646.064 694.432 646.064 695.656C646.064 696.88 645.2 697.672 644.024 697.672ZM638.552 712V709.744H642.848V701.944H638.552V699.76H645.608V709.744H649.904V712H638.552ZM657.67 712V701.944H654.43V699.904L657.67 699.76V699.28C657.67 696.376 659.206 694.312 662.686 694.312C663.934 694.312 665.11 694.576 666.166 695.008L665.59 697.048C664.75 696.64 663.958 696.496 662.998 696.496C661.198 696.496 660.406 697.48 660.406 699.232V699.76H664.894V701.944H660.406V712H657.67ZM671.077 717.208C670.453 717.208 669.853 717.112 669.397 716.968L669.925 714.856C670.237 714.952 670.573 715 670.909 715C672.421 715 673.261 713.92 673.693 712.816L674.053 711.88L668.749 699.76H671.509L673.933 705.88C674.365 706.984 674.821 708.256 675.253 709.48H675.349C675.709 708.304 676.117 707.032 676.501 705.88L678.661 699.76H681.253L676.333 712.792C675.325 715.504 673.909 717.208 671.077 717.208ZM707.586 712.288C703.578 712.288 700.434 709.36 700.434 704.128C700.434 698.944 703.53 695.872 707.682 695.872C709.626 695.872 711.162 696.808 712.146 697.84L710.61 699.568C709.818 698.776 708.906 698.272 707.682 698.272C705.066 698.272 703.266 700.456 703.266 704.032C703.266 707.656 705.066 709.888 707.754 709.888C709.026 709.888 710.01 709.288 710.898 708.304L712.458 709.984C711.186 711.472 709.578 712.288 707.586 712.288ZM720.201 712.312C717.441 712.312 716.241 710.512 716.241 707.344V699.76H719.001V706.984C719.001 709 719.577 709.936 721.209 709.936C722.313 709.936 723.129 709.408 724.185 708.04V699.76H726.921V712H724.689L724.473 710.032H724.377C723.249 711.376 721.953 712.312 720.201 712.312ZM737.424 712.312C735.216 712.312 733.128 711.424 731.664 710.392L732.936 708.64C734.256 709.6 735.672 710.2 737.496 710.2C739.344 710.2 740.208 709.576 740.208 708.688C740.208 707.824 739.104 707.248 736.704 706.6C734.472 706 732.36 704.92 732.36 703.096C732.36 700.984 734.256 699.448 737.568 699.448C739.488 699.448 741.264 700.24 742.464 701.056L741.192 702.76C740.136 702.04 738.936 701.536 737.592 701.536C735.768 701.536 735.12 702.136 735.12 702.952C735.12 703.84 736.536 704.344 738.432 704.848C741.168 705.592 742.944 706.528 742.944 708.52C742.944 710.608 741 712.312 737.424 712.312ZM755.126 712.312C751.526 712.312 750.302 710.2 750.302 707.104V701.944H747.158V699.76H750.422V696.16L753.062 694.84V699.76H758.438V701.944H753.062V707.104C753.062 709.144 753.782 710.104 755.774 710.104C756.782 710.104 757.622 709.888 758.366 709.6L758.894 711.592C757.838 711.952 756.518 712.312 755.126 712.312ZM768.533 712.312C765.437 712.312 762.629 709.96 762.629 705.88C762.629 701.8 765.437 699.448 768.533 699.448C771.653 699.448 774.461 701.8 774.461 705.88C774.461 709.96 771.653 712.312 768.533 712.312ZM768.533 710.056C770.477 710.056 771.629 708.4 771.629 705.88C771.629 703.384 770.477 701.704 768.533 701.704C766.613 701.704 765.461 703.384 765.461 705.88C765.461 708.4 766.613 710.056 768.533 710.056ZM778.075 712V699.76H780.163L780.379 701.344H780.475C780.979 700.24 781.699 699.448 783.043 699.448C784.171 699.448 784.915 700.144 785.203 701.512C785.755 700.312 786.571 699.448 787.891 699.448C789.523 699.448 790.483 700.864 790.483 703.312V712H787.867V703.528C787.867 702.376 787.579 701.8 786.907 701.8C786.259 701.8 785.803 702.352 785.347 703.384V712H783.211V703.528C783.211 702.376 782.851 701.8 782.203 701.8C781.555 701.8 781.147 702.352 780.691 703.384V712H778.075ZM800.434 712.312C796.858 712.312 794.002 709.912 794.002 705.88C794.002 701.896 796.978 699.448 800.074 699.448C803.578 699.448 805.522 701.872 805.522 705.256C805.522 705.784 805.45 706.312 805.402 706.624H796.834C797.002 708.88 798.658 710.152 800.794 710.152C802.018 710.152 803.05 709.792 804.106 709.144L805.042 710.872C803.794 711.688 802.162 712.312 800.434 712.312ZM796.81 704.728H803.002C803.002 702.76 801.994 701.584 800.122 701.584C798.538 701.584 797.122 702.688 796.81 704.728ZM811.249 712V699.76H813.505L813.745 702.568H813.817C815.017 700.576 816.793 699.448 818.833 699.448C819.793 699.448 820.417 699.616 821.137 699.952L820.537 702.28C819.769 702.016 819.313 701.896 818.401 701.896C816.793 701.896 815.209 702.784 814.009 705.16V712H811.249Z" fill="#171717"/>
</g>
<defs>
<filter id="filter0_d_885_7843" x="285.836" y="125" width="811" height="118" filterUnits="userSpaceOnUse" color-interpolation-filters="sRGB">
<feFlood flood-opacity="0" result="BackgroundImageFix"/>
<feColorMatrix in="SourceAlpha" type="matrix" values="0 0 0 0 0 0 0 0 0 0 0 0 0 0 0 0 0 0 127 0" result="hardAlpha"/>
<feOffset dy="4"/>
<feGaussianBlur stdDeviation="2"/>
<feComposite in2="hardAlpha" operator="out"/>
<feColorMatrix type="matrix" values="0 0 0 0 0 0 0 0 0 0 0 0 0 0 0 0 0 0 0.03 0"/>
<feBlend mode="normal" in2="BackgroundImageFix" result="effect1_dropShadow_885_7843"/>
<feBlend mode="normal" in="SourceGraphic" in2="effect1_dropShadow_885_7843" result="shape"/>
</filter>
<filter id="filter1_d_885_7843" x="285.836" y="299" width="811" height="118" filterUnits="userSpaceOnUse" color-interpolation-filters="sRGB">
<feFlood flood-opacity="0" result="BackgroundImageFix"/>
<feColorMatrix in="SourceAlpha" type="matrix" values="0 0 0 0 0 0 0 0 0 0 0 0 0 0 0 0 0 0 127 0" result="hardAlpha"/>
<feOffset dy="4"/>
<feGaussianBlur stdDeviation="2"/>
<feComposite in2="hardAlpha" operator="out"/>
<feColorMatrix type="matrix" values="0 0 0 0 0 0 0 0 0 0 0 0 0 0 0 0 0 0 0.03 0"/>
<feBlend mode="normal" in2="BackgroundImageFix" result="effect1_dropShadow_885_7843"/>
<feBlend mode="normal" in="SourceGraphic" in2="effect1_dropShadow_885_7843" result="shape"/>
</filter>
<filter id="filter2_d_885_7843" x="285.836" y="473" width="811" height="118" filterUnits="userSpaceOnUse" color-interpolation-filters="sRGB">
<feFlood flood-opacity="0" result="BackgroundImageFix"/>
<feColorMatrix in="SourceAlpha" type="matrix" values="0 0 0 0 0 0 0 0 0 0 0 0 0 0 0 0 0 0 127 0" result="hardAlpha"/>
<feOffset dy="4"/>
<feGaussianBlur stdDeviation="2"/>
<feComposite in2="hardAlpha" operator="out"/>
<feColorMatrix type="matrix" values="0 0 0 0 0 0 0 0 0 0 0 0 0 0 0 0 0 0 0.03 0"/>
<feBlend mode="normal" in2="BackgroundImageFix" result="effect1_dropShadow_885_7843"/>
<feBlend mode="normal" in="SourceGraphic" in2="effect1_dropShadow_885_7843" result="shape"/>
</filter>
<filter id="filter3_d_885_7843" x="285.836" y="648" width="811" height="118" filterUnits="userSpaceOnUse" color-interpolation-filters="sRGB">
<feFlood flood-opacity="0" result="BackgroundImageFix"/>
<feColorMatrix in="SourceAlpha" type="matrix" values="0 0 0 0 0 0 0 0 0 0 0 0 0 0 0 0 0 0 127 0" result="hardAlpha"/>
<feOffset dy="4"/>
<feGaussianBlur stdDeviation="2"/>
<feComposite in2="hardAlpha" operator="out"/>
<feColorMatrix type="matrix" values="0 0 0 0 0 0 0 0 0 0 0 0 0 0 0 0 0 0 0.03 0"/>
<feBlend mode="normal" in2="BackgroundImageFix" result="effect1_dropShadow_885_7843"/>
<feBlend mode="normal" in="SourceGraphic" in2="effect1_dropShadow_885_7843" result="shape"/>
</filter>
</defs>
</svg>
