<svg width="765" height="208" viewBox="0 0 765 208" fill="none" xmlns="http://www.w3.org/2000/svg">
<g clip-path="url(#clip0_998_8650)">
<rect width="764" height="208" transform="translate(0.517578)" fill="#121516"/>
<path d="M549.133 97L563.133 89M549.133 97L563.133 105M549.133 97L535.133 105L549.133 113M549.133 97V113M563.133 89L577.133 97M563.133 89V105M563.133 89L577.133 81M577.133 97L563.133 105M577.133 97L591.133 89M577.133 97V81M577.133 97L591.133 105M577.133 97V113M563.133 105L577.133 113M563.133 105L549.133 113M563.133 105V121M577.133 81L591.133 89M577.133 81L591.133 73M577.133 81L563.133 73M577.133 81V65M591.133 89L605.133 97M591.133 89V105M591.133 89L605.133 81M591.133 89V73M605.133 97L591.133 105M605.133 97L619.133 89M605.133 97V81M605.133 97L619.133 105M605.133 97V113M591.133 105L577.133 113M591.133 105L605.133 113M591.133 105V121M577.133 113L563.133 121M577.133 113L591.133 121M577.133 113V129M549.133 113L563.133 121M549.133 113L535.133 121L549.133 129M549.133 113V129M563.133 121L549.133 129M563.133 121L577.133 129M563.133 121V137M591.133 73L605.133 81M591.133 73L605.133 65M591.133 73L577.133 65M591.133 73V57M605.133 81L619.133 89M605.133 81L619.133 73M605.133 81V65M619.133 89L633.133 97M619.133 89V105M619.133 89L633.133 81M619.133 89V73M619.133 105L605.133 113M619.133 105L633.133 97M619.133 105L633.133 113M619.133 105V121M605.133 113L591.133 121M605.133 113L619.133 121M605.133 113V129M591.133 121L577.133 129M591.133 121L605.133 129M591.133 121V137M563.133 57L549.133 65L563.133 73M563.133 57L577.133 65M563.133 57V73M563.133 57L577.133 49M563.133 57L549.133 49M563.133 57V41M577.133 65L563.133 73M577.133 65L591.133 57M577.133 65V49M577.133 49L591.133 57M577.133 49L591.133 41M577.133 49L563.133 41M577.133 49V33M591.133 57L605.133 65M591.133 57L605.133 49M591.133 57V41M605.133 65L619.133 57M605.133 65V49M605.133 65L619.133 73M591.133 41L605.133 49M591.133 41L605.133 33M591.133 41L577.133 33M591.133 41V25M605.133 49L619.133 57M605.133 49L619.133 41M605.133 49V33M619.133 57L633.133 65M619.133 57V73M619.133 57L633.133 49M619.133 57V41M619.133 73L633.133 81M619.133 73L633.133 65M549.133 33L563.133 25M549.133 33L563.133 41M549.133 33L535.133 41M549.133 33V49M549.133 33L535.133 25M549.133 33V17M563.133 25L577.133 33M563.133 25V41M563.133 25L577.133 17M563.133 25L549.133 17M563.133 25V9M577.133 33L563.133 41M577.133 33L591.133 25M577.133 33V17M563.133 41L549.133 49M577.133 17L591.133 25M577.133 17L563.133 9M577.133 17L591.133 9M577.133 17V1M591.133 25L605.133 33M591.133 25L605.133 17M591.133 25V9M605.133 33L619.133 25M605.133 33V17M605.133 33L619.133 41M549.133 49L535.133 41M535.133 41L521.133 33M535.133 41V25M535.133 41L521.133 49M535.133 25L549.133 17M535.133 25L521.133 17M535.133 25V9M535.133 25L521.133 33M549.133 17L563.133 9M549.133 17L535.133 9M549.133 17V1M563.133 9L577.133 1M563.133 9L549.133 1M563.133 9V-7M591.133 9L605.133 17M591.133 9L605.133 1M591.133 9L577.133 1M591.133 9V-7M605.133 17L619.133 25M605.133 17L619.133 9M605.133 17V1M619.133 25L633.133 33M619.133 25V41M619.133 25L633.133 17M619.133 25V9M619.133 41L633.133 49M619.133 41L633.133 33M549.133 1L563.133 -7M549.133 1L535.133 9M549.133 1L535.133 -7M549.133 1V-15M563.133 -7L577.133 1M563.133 -7L577.133 -15M563.133 -7L549.133 -15M563.133 -7V-23M577.133 1L591.133 -7M577.133 1V-15M577.133 -15L591.133 -7M577.133 -15L563.133 -23M577.133 -15L591.133 -23M591.133 -7L605.133 1M591.133 -7L605.133 -15M591.133 -7V-23M605.133 1L619.133 -7M605.133 1V-15M605.133 1L619.133 9M535.133 9L521.133 1M535.133 9V-7M535.133 9L521.133 17M535.133 -7L549.133 -15M535.133 -7L521.133 -15M535.133 -7L521.133 1M535.133 -7V-23M549.133 -15L563.133 -23M549.133 -15L535.133 -23M591.133 -23L605.133 -15M605.133 -15L619.133 -7M605.133 -15L619.133 -23M619.133 -7L633.133 1M619.133 -7V9M619.133 -7L633.133 -15M619.133 -7V-23M619.133 9L633.133 17M619.133 9L633.133 1M493.133 1L507.133 -7M493.133 1L507.133 9M493.133 1L479.133 9L493.133 17M493.133 1V17M493.133 1L479.133 -7L493.133 -15M493.133 1V-15M507.133 -7L521.133 1M507.133 -7V9M507.133 -7L521.133 -15M507.133 -7L493.133 -15M507.133 -7V-23M521.133 1L507.133 9M521.133 1V-15M521.133 1V17M507.133 9L521.133 17M507.133 9L493.133 17M507.133 9V25M521.133 -15L507.133 -23M521.133 -15L535.133 -23M521.133 17L507.133 25M521.133 17V33M493.133 17L507.133 25M493.133 17L479.133 25L493.133 33M493.133 17V33M507.133 25L493.133 33M507.133 25L521.133 33M507.133 25V41M493.133 -15L507.133 -23M493.133 33L507.133 41M521.133 33L507.133 41M521.133 33V49M507.133 41L521.133 49M549.133 129L563.133 137M549.133 129L535.133 137L549.133 145M549.133 129V145M577.133 129L563.133 137M577.133 129L591.133 137M577.133 129V145M563.133 137L577.133 145M563.133 137L549.133 145M563.133 137V153M605.133 129L591.133 137M605.133 129L619.133 121M605.133 129L619.133 137M605.133 129V145M591.133 137L577.133 145M591.133 137L605.133 145M591.133 137V153M577.133 145L563.133 153M577.133 145L591.133 153M577.133 145V161M549.133 145L563.133 153M563.133 153L549.133 161M563.133 153L577.133 161M563.133 153V169M619.133 121L633.133 113M619.133 121L633.133 129M619.133 121V137M619.133 137L605.133 145M619.133 137L633.133 129M619.133 137L633.133 145M619.133 137V153M605.133 145L591.133 153M605.133 145L619.133 153M605.133 145V161M591.133 153L577.133 161M591.133 153L605.133 161M591.133 153V169M549.133 161L563.133 169M549.133 161L535.133 169M549.133 161V177M577.133 161L563.133 169M577.133 161L591.133 169M577.133 161V177M563.133 169L577.133 177M563.133 169L549.133 177M563.133 169V185M605.133 161L591.133 169M605.133 161L619.133 153M605.133 161L619.133 169M605.133 161V177M591.133 169L577.133 177M591.133 169L605.133 177M591.133 169V185M577.133 177L563.133 185M577.133 177L591.133 185M577.133 177V193M549.133 177L563.133 185M549.133 177L535.133 169M549.133 177L535.133 185M549.133 177V193M563.133 185L549.133 193M563.133 185L577.133 193M563.133 185V201M535.133 169L521.133 177M535.133 169V185M619.133 153L633.133 145M619.133 153L633.133 161M619.133 153V169M619.133 169L605.133 177M619.133 169L633.133 161M619.133 169L633.133 177M619.133 169V185M605.133 177L591.133 185M605.133 177L619.133 185M605.133 177V193M591.133 185L577.133 193M591.133 185L605.133 193M591.133 185V201M521.133 177L535.133 185M521.133 177L507.133 185M521.133 177V193M535.133 185L549.133 193M535.133 185L521.133 193M535.133 185V201M549.133 193L563.133 201M549.133 193L535.133 201M549.133 193V209M577.133 193L563.133 201M577.133 193L591.133 201M577.133 193V209M563.133 201L577.133 209M563.133 201L549.133 209M563.133 201V217M605.133 193L591.133 201M605.133 193L619.133 185M605.133 193L619.133 201M605.133 193V209M591.133 201L577.133 209M591.133 201L605.133 209M591.133 201V217M577.133 209L563.133 217M577.133 209L591.133 217M549.133 209L563.133 217M549.133 209L535.133 201M549.133 209L535.133 217M535.133 201L521.133 193M535.133 201L521.133 209M535.133 201V217M619.133 185L633.133 177M619.133 185L633.133 193M619.133 185V201M619.133 201L605.133 209M619.133 201L633.133 193M619.133 201L633.133 209M619.133 201V217M605.133 209L591.133 217M605.133 209L619.133 217M493.133 193L507.133 185M493.133 193L507.133 201M493.133 193L479.133 201L493.133 209M493.133 193V209M507.133 185L521.133 193M507.133 185V201M521.133 193L507.133 201M521.133 193V209M507.133 201L521.133 209M507.133 201L493.133 209M507.133 201V217M521.133 209L507.133 217M521.133 209L535.133 217M493.133 209L507.133 217M633.133 97L647.133 89M633.133 97V81M633.133 97L647.133 105M633.133 97V113M633.133 81L647.133 89M633.133 81L647.133 73M633.133 81V65M647.133 89L661.133 97M647.133 89V105M647.133 89L661.133 81M647.133 89V73M661.133 97L647.133 105M661.133 97L675.133 89M661.133 97V81M661.133 97L675.133 105M661.133 97V113M647.133 105L633.133 113M647.133 105L661.133 113M647.133 105V121M633.133 113L647.133 121M633.133 113V129M647.133 73L661.133 81M647.133 73L661.133 65M647.133 73L633.133 65M647.133 73V57M661.133 81L675.133 89M661.133 81L675.133 73M661.133 81V65M675.133 89L689.133 97M675.133 89V105M675.133 89L689.133 81M675.133 89V73M675.133 105L661.133 113M675.133 105L689.133 97M675.133 105L689.133 113M675.133 105V121M661.133 113L647.133 121M661.133 113L675.133 121M661.133 113V129M647.133 121L633.133 129M647.133 121L661.133 129M647.133 121V137M633.133 65L647.133 57M633.133 65V49M633.133 49L647.133 57M633.133 49L647.133 41M633.133 49V33M647.133 57L661.133 65M647.133 57L661.133 49M647.133 57V41M661.133 65L675.133 57M661.133 65V49M661.133 65L675.133 73M647.133 41L661.133 49M647.133 41L661.133 33M647.133 41L633.133 33M647.133 41V25M661.133 49L675.133 57M661.133 49L675.133 41M661.133 49V33M675.133 57L689.133 65M675.133 57V73M675.133 57L689.133 49M675.133 57V41M675.133 73L689.133 81M675.133 73L689.133 65M633.133 33L647.133 25M633.133 33V17M633.133 17L647.133 25M633.133 17L647.133 9M633.133 17V1M647.133 25L661.133 33M647.133 25L661.133 17M647.133 25V9M661.133 33L675.133 25M661.133 33V17M661.133 33L675.133 41M647.133 9L661.133 17M647.133 9L661.133 1M647.133 9L633.133 1M647.133 9V-7M661.133 17L675.133 25M661.133 17L675.133 9M661.133 17V1M675.133 25L689.133 33M675.133 25V41M675.133 25L689.133 17M675.133 25V9M675.133 41L689.133 49M675.133 41L689.133 33M633.133 1L647.133 -7M633.133 1V-15M633.133 -15L647.133 -7M633.133 -15L619.133 -23M633.133 -15L647.133 -23M647.133 -7L661.133 1M647.133 -7L661.133 -15M647.133 -7V-23M661.133 1L675.133 -7M661.133 1V-15M661.133 1L675.133 9M647.133 -23L661.133 -15M661.133 -15L675.133 -7M661.133 -15L675.133 -23M675.133 -7L689.133 1M675.133 -7V9M675.133 -7L689.133 -15M675.133 -7V-23M675.133 9L689.133 17M675.133 9L689.133 1M633.133 129L647.133 137M633.133 129V145M661.133 129L647.133 137M661.133 129L675.133 121M661.133 129L675.133 137M661.133 129V145M647.133 137L633.133 145M647.133 137L661.133 145M647.133 137V153M633.133 145L647.133 153M633.133 145V161M675.133 121L689.133 113M675.133 121L689.133 129M675.133 121V137M675.133 137L661.133 145M675.133 137L689.133 129M675.133 137L689.133 145M675.133 137V153M661.133 145L647.133 153M661.133 145L675.133 153M661.133 145V161M647.133 153L633.133 161M647.133 153L661.133 161M647.133 153V169M633.133 161L647.133 169M633.133 161V177M661.133 161L647.133 169M661.133 161L675.133 153M661.133 161L675.133 169M661.133 161V177M647.133 169L633.133 177M647.133 169L661.133 177M647.133 169V185M633.133 177L647.133 185M633.133 177V193M675.133 153L689.133 145M675.133 153L689.133 161M675.133 153V169M675.133 169L661.133 177M675.133 169L689.133 161M675.133 169L689.133 177M675.133 169V185M661.133 177L647.133 185M661.133 177L675.133 185M661.133 177V193M647.133 185L633.133 193M647.133 185L661.133 193M647.133 185V201M633.133 193L647.133 201M633.133 193V209M661.133 193L647.133 201M661.133 193L675.133 185M661.133 193L675.133 201M661.133 193V209M647.133 201L633.133 209M647.133 201L661.133 209M647.133 201V217M633.133 209L619.133 217M633.133 209L647.133 217M675.133 185L689.133 177M675.133 185L689.133 193M675.133 185V201M675.133 201L661.133 209M675.133 201L689.133 193M675.133 201L689.133 209M675.133 201V217M661.133 209L647.133 217M661.133 209L675.133 217M689.133 97L703.133 89M689.133 97V81M689.133 97L703.133 105M689.133 97V113M689.133 81L703.133 89M689.133 81L703.133 73M689.133 81V65M703.133 89L717.133 97M703.133 89V105M703.133 89L717.133 81M703.133 89V73M717.133 97L703.133 105M717.133 97L731.133 89M717.133 97V81M717.133 97L731.133 105M717.133 97V113M703.133 105L689.133 113M703.133 105L717.133 113M703.133 105V121M689.133 113L703.133 121M689.133 113V129M703.133 73L717.133 81M703.133 73L717.133 65M703.133 73L689.133 65M703.133 73V57M717.133 81L731.133 89M717.133 81L731.133 73M717.133 81V65M731.133 89L745.133 97M731.133 89V105M731.133 89L745.133 81M731.133 89V73M731.133 105L717.133 113M731.133 105L745.133 97M731.133 105L745.133 113M731.133 105V121M717.133 113L703.133 121M717.133 113L731.133 121M717.133 113V129M703.133 121L689.133 129M703.133 121L717.133 129M703.133 121V137M689.133 65L703.133 57M689.133 65V49M689.133 49L703.133 57M689.133 49L703.133 41M689.133 49V33M703.133 57L717.133 65M703.133 57L717.133 49M703.133 57V41M717.133 65L731.133 57M717.133 65V49M717.133 65L731.133 73M703.133 41L717.133 49M703.133 41L717.133 33M703.133 41L689.133 33M703.133 41V25M717.133 49L731.133 57M717.133 49L731.133 41M717.133 49V33M731.133 57L745.133 65M731.133 57V73M731.133 57L745.133 49M731.133 57V41M731.133 73L745.133 81M731.133 73L745.133 65M689.133 33L703.133 25M689.133 33V17M689.133 17L703.133 25M689.133 17L703.133 9M689.133 17V1M703.133 25L717.133 33M703.133 25L717.133 17M703.133 25V9M717.133 33L731.133 25M717.133 33V17M717.133 33L731.133 41M703.133 9L717.133 17M703.133 9L717.133 1M703.133 9L689.133 1M703.133 9V-7M717.133 17L731.133 25M717.133 17L731.133 9M717.133 17V1M731.133 25L745.133 33M731.133 25V41M731.133 25L745.133 17M731.133 25V9M731.133 41L745.133 49M731.133 41L745.133 33M689.133 1L703.133 -7M689.133 1V-15M689.133 -15L703.133 -7M689.133 -15L675.133 -23M689.133 -15L703.133 -23M703.133 -7L717.133 1M703.133 -7L717.133 -15M703.133 -7V-23M717.133 1L731.133 -7M717.133 1V-15M717.133 1L731.133 9M703.133 -23L717.133 -15M717.133 -15L731.133 -7M717.133 -15L731.133 -23M731.133 -7L745.133 1M731.133 -7V9M731.133 -7L745.133 -15M731.133 -7V-23M731.133 9L745.133 17M731.133 9L745.133 1M689.133 129L703.133 137M689.133 129V145M717.133 129L703.133 137M717.133 129L731.133 121M717.133 129L731.133 137M717.133 129V145M703.133 137L689.133 145M703.133 137L717.133 145M703.133 137V153M689.133 145L703.133 153M689.133 145V161M731.133 121L745.133 113M731.133 121L745.133 129M731.133 121V137M731.133 137L717.133 145M731.133 137L745.133 129M731.133 137L745.133 145M731.133 137V153M717.133 145L703.133 153M717.133 145L731.133 153M717.133 145V161M703.133 153L689.133 161M703.133 153L717.133 161M703.133 153V169M689.133 161L703.133 169M689.133 161V177M717.133 161L703.133 169M717.133 161L731.133 153M717.133 161L731.133 169M717.133 161V177M703.133 169L689.133 177M703.133 169L717.133 177M703.133 169V185M689.133 177L703.133 185M689.133 177V193M731.133 153L745.133 145M731.133 153L745.133 161M731.133 153V169M731.133 169L717.133 177M731.133 169L745.133 161M731.133 169L745.133 177M731.133 169V185M717.133 177L703.133 185M717.133 177L731.133 185M717.133 177V193M703.133 185L689.133 193M703.133 185L717.133 193M703.133 185V201M689.133 193L703.133 201M689.133 193V209M717.133 193L703.133 201M717.133 193L731.133 185M717.133 193L731.133 201M717.133 193V209M703.133 201L689.133 209M703.133 201L717.133 209M703.133 201V217M689.133 209L675.133 217M689.133 209L703.133 217M731.133 185L745.133 177M731.133 185L745.133 193M731.133 185V201M731.133 201L717.133 209M731.133 201L745.133 193M731.133 201L745.133 209M731.133 201V217M717.133 209L703.133 217M717.133 209L731.133 217M745.133 97L759.133 89M745.133 97V81M745.133 97L759.133 105M745.133 97V113M745.133 81L759.133 89M745.133 81L759.133 73M745.133 81V65M759.133 89L773.133 97M759.133 89V105M759.133 89L773.133 81M759.133 89V73M773.133 97L759.133 105M773.133 97L787.133 89L773.133 81M773.133 97V81M773.133 97L787.133 105L773.133 113M773.133 97V113M759.133 105L745.133 113M759.133 105L773.133 113M759.133 105V121M745.133 113L759.133 121M745.133 113V129M759.133 73L773.133 81M759.133 73L773.133 65M759.133 73L745.133 65M759.133 73V57M773.133 81L787.133 73L773.133 65M773.133 81V65M773.133 113L759.133 121M773.133 113L787.133 121L773.133 129M773.133 113V129M759.133 121L745.133 129M759.133 121L773.133 129M759.133 121V137M745.133 65L759.133 57M745.133 65V49M745.133 49L759.133 57M745.133 49L759.133 41M745.133 49V33M759.133 57L773.133 65M759.133 57L773.133 49M759.133 57V41M773.133 65L787.133 57L773.133 49M773.133 65V49M759.133 41L773.133 49M759.133 41L773.133 33M759.133 41L745.133 33M759.133 41V25M773.133 49L787.133 41L773.133 33M773.133 49V33M745.133 33L759.133 25M745.133 33V17M745.133 17L759.133 25M745.133 17L759.133 9M745.133 17V1M759.133 25L773.133 33M759.133 25L773.133 17M759.133 25V9M773.133 33L787.133 25L773.133 17M773.133 33V17M759.133 9L773.133 17M759.133 9L773.133 1M759.133 9L745.133 1M759.133 9V-7M773.133 17L787.133 9L773.133 1M773.133 17V1M745.133 1L759.133 -7M745.133 1V-15M745.133 -15L759.133 -7M745.133 -15L731.133 -23M745.133 -15L759.133 -23M759.133 -7L773.133 1M759.133 -7L773.133 -15M759.133 -7V-23M773.133 1L787.133 -7L773.133 -15M773.133 1V-15M759.133 -23L773.133 -15M745.133 129L759.133 137M745.133 129V145M773.133 129L759.133 137M773.133 129L787.133 137L773.133 145M773.133 129V145M759.133 137L745.133 145M759.133 137L773.133 145M759.133 137V153M745.133 145L759.133 153M745.133 145V161M773.133 145L759.133 153M773.133 145L787.133 153L773.133 161M773.133 145V161M759.133 153L745.133 161M759.133 153L773.133 161M759.133 153V169M745.133 161L759.133 169M745.133 161V177M773.133 161L759.133 169M773.133 161L787.133 169L773.133 177M773.133 161V177M759.133 169L745.133 177M759.133 169L773.133 177M759.133 169V185M745.133 177L759.133 185M745.133 177V193M773.133 177L759.133 185M773.133 177L787.133 185L773.133 193M773.133 177V193M759.133 185L745.133 193M759.133 185L773.133 193M759.133 185V201M745.133 193L759.133 201M745.133 193V209M773.133 193L759.133 201M773.133 193L787.133 201L773.133 209M773.133 193V209M759.133 201L745.133 209M759.133 201L773.133 209M759.133 201V217M745.133 209L731.133 217M745.133 209L759.133 217M773.133 209L759.133 217" stroke="#181C1D" stroke-opacity="0.6" stroke-width="0.5"/>
<g clip-path="url(#clip1_998_8650)">
<path d="M577.133 81L549.133 97L577.133 113M577.133 81L605.133 97L577.133 113M577.133 81V113" stroke="#22272A" stroke-width="0.5"/>
</g>
<g clip-path="url(#clip2_998_8650)">
<path d="M577.133 49L549.133 65L577.133 81M577.133 49L605.133 65L577.133 81M577.133 49V81" stroke="#22272A" stroke-width="0.5"/>
</g>
<path d="M577.133 17L549.133 33L577.133 49M577.133 17L605.133 33L577.133 49M577.133 17V49" stroke="#22272A" stroke-width="0.5"/>
<g clip-path="url(#clip3_998_8650)">
<path d="M577.133 -15L549.133 1L577.133 17M577.133 -15L605.133 1L577.133 17M577.133 -15V17" stroke="#22272A" stroke-width="0.5"/>
</g>
<g clip-path="url(#clip4_998_8650)">
<path d="M521.133 -15L493.133 1L521.133 17M521.133 -15L549.133 1L521.133 17M521.133 -15V17" stroke="#22272A" stroke-width="0.5"/>
</g>
<g clip-path="url(#clip5_998_8650)">
<path d="M521.133 17L493.133 33L521.133 49M521.133 17L549.133 33L521.133 49M521.133 17V49" stroke="#22272A" stroke-width="0.5"/>
</g>
<g clip-path="url(#clip6_998_8650)">
<path d="M577.133 113L549.133 129L577.133 145M577.133 113L605.133 129L577.133 145M577.133 113V145" stroke="#22272A" stroke-width="0.5"/>
</g>
<g clip-path="url(#clip7_998_8650)">
<path d="M577.133 145L549.133 161L577.133 177M577.133 145L605.133 161L577.133 177M577.133 145V177" stroke="#22272A" stroke-width="0.5"/>
</g>
<g clip-path="url(#clip8_998_8650)">
<path d="M577.133 177L549.133 193L577.133 209M577.133 177L605.133 193L577.133 209M577.133 177V209" stroke="#22272A" stroke-width="0.5"/>
</g>
<g clip-path="url(#clip9_998_8650)">
<path d="M521.133 177L493.133 193L521.133 209M521.133 177L549.133 193L521.133 209M521.133 177V209" stroke="#22272A" stroke-width="0.5"/>
</g>
<g clip-path="url(#clip10_998_8650)">
<path d="M633.133 81L605.133 97L633.133 113M633.133 81L661.133 97L633.133 113M633.133 81V113" stroke="#22272A" stroke-width="0.5"/>
</g>
<g clip-path="url(#clip11_998_8650)">
<path d="M633.133 49L605.133 65L633.133 81M633.133 49L661.133 65L633.133 81M633.133 49V81" stroke="#22272A" stroke-width="0.5"/>
</g>
<g clip-path="url(#clip12_998_8650)">
<path d="M633.133 17L605.133 33L633.133 49M633.133 17L661.133 33L633.133 49M633.133 17V49" stroke="#22272A" stroke-width="0.5"/>
</g>
<g clip-path="url(#clip13_998_8650)">
<path d="M633.133 -15L605.133 1L633.133 17M633.133 -15L661.133 1L633.133 17M633.133 -15V17" stroke="#22272A" stroke-width="0.5"/>
</g>
<g clip-path="url(#clip14_998_8650)">
<path d="M633.133 113L605.133 129L633.133 145M633.133 113L661.133 129L633.133 145M633.133 113V145" stroke="#22272A" stroke-width="0.5"/>
</g>
<g clip-path="url(#clip15_998_8650)">
<path d="M633.133 145L605.133 161L633.133 177M633.133 145L661.133 161L633.133 177M633.133 145V177" stroke="#22272A" stroke-width="0.5"/>
</g>
<g clip-path="url(#clip16_998_8650)">
<path d="M633.133 177L605.133 193L633.133 209M633.133 177L661.133 193L633.133 209M633.133 177V209" stroke="#22272A" stroke-width="0.5"/>
</g>
<g clip-path="url(#clip17_998_8650)">
<path d="M689.133 81L661.133 97L689.133 113M689.133 81L717.133 97L689.133 113M689.133 81V113" stroke="#22272A" stroke-width="0.5"/>
</g>
<g clip-path="url(#clip18_998_8650)">
<path d="M689.133 49L661.133 65L689.133 81M689.133 49L717.133 65L689.133 81M689.133 49V81" stroke="#22272A" stroke-width="0.5"/>
</g>
<g clip-path="url(#clip19_998_8650)">
<path d="M689.133 17L661.133 33L689.133 49M689.133 17L717.133 33L689.133 49M689.133 17V49" stroke="#22272A" stroke-width="0.5"/>
</g>
<g clip-path="url(#clip20_998_8650)">
<path d="M689.133 -15L661.133 1L689.133 17M689.133 -15L717.133 1L689.133 17M689.133 -15V17" stroke="#22272A" stroke-width="0.5"/>
</g>
<g clip-path="url(#clip21_998_8650)">
<path d="M689.133 113L661.133 129L689.133 145M689.133 113L717.133 129L689.133 145M689.133 113V145" stroke="#22272A" stroke-width="0.5"/>
</g>
<g clip-path="url(#clip22_998_8650)">
<path d="M689.133 145L661.133 161L689.133 177M689.133 145L717.133 161L689.133 177M689.133 145V177" stroke="#22272A" stroke-width="0.5"/>
</g>
<g clip-path="url(#clip23_998_8650)">
<path d="M689.133 177L661.133 193L689.133 209M689.133 177L717.133 193L689.133 209M689.133 177V209" stroke="#22272A" stroke-width="0.5"/>
</g>
<g clip-path="url(#clip24_998_8650)">
<path d="M745.133 81L717.133 97L745.133 113M745.133 81L773.133 97L745.133 113M745.133 81V113" stroke="#22272A" stroke-width="0.5"/>
</g>
<g clip-path="url(#clip25_998_8650)">
<path d="M745.133 49L717.133 65L745.133 81M745.133 49L773.133 65L745.133 81M745.133 49V81" stroke="#22272A" stroke-width="0.5"/>
</g>
<g clip-path="url(#clip26_998_8650)">
<path d="M745.133 17L717.133 33L745.133 49M745.133 17L773.133 33L745.133 49M745.133 17V49" stroke="#22272A" stroke-width="0.5"/>
</g>
<g clip-path="url(#clip27_998_8650)">
<path d="M745.133 -15L717.133 1L745.133 17M745.133 -15L773.133 1L745.133 17M745.133 -15V17" stroke="#22272A" stroke-width="0.5"/>
</g>
<g clip-path="url(#clip28_998_8650)">
<path d="M745.133 113L717.133 129L745.133 145M745.133 113L773.133 129L745.133 145M745.133 113V145" stroke="#22272A" stroke-width="0.5"/>
</g>
<g clip-path="url(#clip29_998_8650)">
<path d="M745.133 145L717.133 161L745.133 177M745.133 145L773.133 161L745.133 177M745.133 145V177" stroke="#22272A" stroke-width="0.5"/>
</g>
<g clip-path="url(#clip30_998_8650)">
<path d="M745.133 177L717.133 193L745.133 209M745.133 177L773.133 193L745.133 209M745.133 177V209" stroke="#22272A" stroke-width="0.5"/>
</g>
<path d="M605.069 128.995L577.147 145.366L548.996 129.055L577.154 112.942L605.069 128.995Z" fill="#121516" stroke="#22272A" stroke-width="0.5" stroke-linejoin="round"/>
<path d="M605.116 128.981L605.076 160.979L577.109 177.21L577.149 145.335L605.116 128.981Z" fill="#121516" stroke="#22272A" stroke-width="0.5" stroke-linejoin="round"/>
<path d="M577.148 145.331L577.108 177.195L548.957 160.935L548.996 129.07L577.148 145.331Z" fill="#121516" stroke="#22272A" stroke-width="0.5" stroke-linejoin="round"/>
<path d="M605.069 128.995L577.147 145.366L548.996 129.055L577.154 112.942L605.069 128.995Z" stroke="url(#paint0_linear_998_8650)" stroke-width="0.5" stroke-linejoin="round"/>
<path d="M605.116 128.981L605.076 160.979L577.109 177.21L577.149 145.335L605.116 128.981Z" stroke="url(#paint1_linear_998_8650)" stroke-width="0.5" stroke-linejoin="round"/>
<path d="M577.148 145.331L577.108 177.195L548.957 160.935L548.996 129.07L577.148 145.331Z" stroke="url(#paint2_linear_998_8650)" stroke-width="0.5" stroke-linejoin="round"/>
<path d="M605.069 32.9187L577.147 49.2897L548.996 32.9784L577.154 16.8662L605.069 32.9187Z" fill="#121516" stroke="#22272A" stroke-width="0.5" stroke-linejoin="round"/>
<path d="M605.116 32.9053L605.076 64.9024L577.109 81.1334L577.149 49.2592L605.116 32.9053Z" fill="#121516" stroke="#22272A" stroke-width="0.5" stroke-linejoin="round"/>
<path d="M577.148 49.2544L577.108 81.1186L548.957 64.8584L548.996 32.9941L577.148 49.2544Z" fill="#121516" stroke="#22272A" stroke-width="0.5" stroke-linejoin="round"/>
<path d="M605.069 32.9187L577.147 49.2897L548.996 32.9784L577.154 16.8662L605.069 32.9187Z" stroke="url(#paint3_linear_998_8650)" stroke-width="0.5" stroke-linejoin="round"/>
<path d="M605.116 32.9053L605.076 64.9723L577.109 81.1334L577.149 49.2592L605.116 32.9053Z" stroke="url(#paint4_linear_998_8650)" stroke-width="0.5" stroke-linejoin="round"/>
<path d="M577.148 49.2544L577.108 81.1186L548.957 64.8584L548.996 32.9941L577.148 49.2544Z" stroke="url(#paint5_linear_998_8650)" stroke-width="0.5" stroke-linejoin="round"/>
<path d="M717.086 32.9294L689.165 49.3004L661.013 32.9892L689.171 16.877L717.086 32.9294Z" fill="#121516" stroke="#22272A" stroke-width="0.5" stroke-linejoin="round"/>
<path d="M717.133 32.916L717.093 64.9132L689.126 81.1441L689.166 49.27L717.133 32.916Z" fill="#121516" stroke="#22272A" stroke-width="0.5" stroke-linejoin="round"/>
<path d="M689.165 49.2652L689.125 81.1294L660.974 64.8691L661.013 33.0049L689.165 49.2652Z" fill="#121516" stroke="#22272A" stroke-width="0.5" stroke-linejoin="round"/>
<path d="M717.086 32.9294L689.165 49.3004L661.013 32.9892L689.171 16.877L717.086 32.9294Z" stroke="url(#paint6_linear_998_8650)" stroke-width="0.5" stroke-linejoin="round"/>
<path d="M717.133 32.916L717.093 64.9132L689.126 81.1441L689.166 49.27L717.133 32.916Z" stroke="url(#paint7_linear_998_8650)" stroke-width="0.5" stroke-linejoin="round"/>
<path d="M689.165 49.2652L689.125 81.1293L660.974 64.8691L661.013 33.0049L689.165 49.2652Z" stroke="url(#paint8_linear_998_8650)" stroke-width="0.5" stroke-linejoin="round"/>
<path d="M661.476 128.945L633.234 145L604.93 128.875" stroke="url(#paint9_linear_998_8650)" stroke-width="0.5" stroke-dasharray="0.5 1"/>
<path d="M689.085 80.979L745.134 112.725V176.857L676.515 216.445" stroke="url(#paint10_linear_998_8650)" stroke-width="0.5" stroke-dasharray="0.5 1"/>
<path d="M745.134 112.782L689.196 145.016M689.196 145.016V176.665M689.196 145.016L675.169 137.012" stroke="url(#paint11_linear_998_8650)" stroke-width="0.5" stroke-dasharray="0.5 1"/>
<path d="M633.037 81.0341L605.093 64.9426" stroke="white" stroke-width="0.5" stroke-dasharray="0.5 1"/>
<path d="M689.173 112.996L682.135 108.956L639.888 109.135L633.148 112.982L661.125 129.024L689.173 112.996Z" fill="#D9D9D9" fill-opacity="0.1" stroke="#575E61" stroke-width="0.498739" stroke-linecap="round" stroke-linejoin="round"/>
<path d="M689.086 73.1194L661.165 89.4904L633.013 73.1791L661.171 57.0669L689.086 73.1194Z" fill="#121516" stroke="#22272A" stroke-width="0.5" stroke-linejoin="round"/>
<path d="M689.133 73.106L689.093 105.103L661.126 121.334L661.166 89.4599L689.133 73.106Z" fill="#121516" stroke="#22272A" stroke-width="0.5" stroke-linejoin="round"/>
<path d="M661.165 89.4551L661.125 121.319L632.974 105.059L633.013 73.1948L661.165 89.4551Z" fill="#121516" stroke="#22272A" stroke-width="0.5" stroke-linejoin="round"/>
<path d="M689.086 73.1194L661.165 89.4904L633.013 73.1791L661.171 57.0669L689.086 73.1194Z" stroke="white" stroke-width="0.5" stroke-linejoin="round"/>
<path d="M689.133 73.106L689.093 105.103L661.126 121.334L661.166 89.4599L689.133 73.106Z" stroke="white" stroke-width="0.5" stroke-linejoin="round"/>
<path d="M661.165 89.4551L661.125 121.319L632.974 105.059L633.013 73.1948L661.165 89.4551Z" stroke="white" stroke-width="0.5" stroke-linejoin="round"/>
</g>
<defs>
<linearGradient id="paint0_linear_998_8650" x1="602.347" y1="123.498" x2="568.798" y2="142.084" gradientUnits="userSpaceOnUse">
<stop stop-color="#A1ADAD"/>
<stop offset="1" stop-color="#3B4143"/>
</linearGradient>
<linearGradient id="paint1_linear_998_8650" x1="602.347" y1="123.498" x2="568.798" y2="142.084" gradientUnits="userSpaceOnUse">
<stop stop-color="#A1ADAD"/>
<stop offset="1" stop-color="#3B4143"/>
</linearGradient>
<linearGradient id="paint2_linear_998_8650" x1="602.347" y1="123.498" x2="568.798" y2="142.084" gradientUnits="userSpaceOnUse">
<stop stop-color="#A1ADAD"/>
<stop offset="1" stop-color="#3B4143"/>
</linearGradient>
<linearGradient id="paint3_linear_998_8650" x1="603.795" y1="63.4861" x2="568.798" y2="46.0082" gradientUnits="userSpaceOnUse">
<stop stop-color="#899A9B"/>
<stop offset="1" stop-color="#3B4143"/>
</linearGradient>
<linearGradient id="paint4_linear_998_8650" x1="603.795" y1="63.4861" x2="568.798" y2="46.0082" gradientUnits="userSpaceOnUse">
<stop stop-color="#899A9B"/>
<stop offset="1" stop-color="#3B4143"/>
</linearGradient>
<linearGradient id="paint5_linear_998_8650" x1="603.795" y1="63.4861" x2="568.798" y2="46.0082" gradientUnits="userSpaceOnUse">
<stop stop-color="#899A9B"/>
<stop offset="1" stop-color="#3B4143"/>
</linearGradient>
<linearGradient id="paint6_linear_998_8650" x1="679.803" y1="73.9063" x2="680.919" y2="43.0497" gradientUnits="userSpaceOnUse">
<stop stop-color="white"/>
<stop offset="1" stop-color="#3B4143"/>
</linearGradient>
<linearGradient id="paint7_linear_998_8650" x1="679.803" y1="73.9063" x2="680.919" y2="43.0497" gradientUnits="userSpaceOnUse">
<stop stop-color="white"/>
<stop offset="1" stop-color="#3B4143"/>
</linearGradient>
<linearGradient id="paint8_linear_998_8650" x1="679.803" y1="73.9063" x2="680.919" y2="43.0497" gradientUnits="userSpaceOnUse">
<stop stop-color="white"/>
<stop offset="1" stop-color="#3B4143"/>
</linearGradient>
<linearGradient id="paint9_linear_998_8650" x1="620.36" y1="132.656" x2="608.008" y2="148.906" gradientUnits="userSpaceOnUse">
<stop stop-color="white"/>
<stop offset="1" stop-color="#575E61" stop-opacity="0"/>
</linearGradient>
<linearGradient id="paint10_linear_998_8650" x1="720.033" y1="127.671" x2="679.849" y2="140.573" gradientUnits="userSpaceOnUse">
<stop stop-color="white"/>
<stop offset="1" stop-color="#575E61" stop-opacity="0"/>
</linearGradient>
<linearGradient id="paint11_linear_998_8650" x1="719.541" y1="134.801" x2="689.042" y2="155.973" gradientUnits="userSpaceOnUse">
<stop stop-color="white"/>
<stop offset="1" stop-color="#575E61" stop-opacity="0"/>
</linearGradient>
<clipPath id="clip0_998_8650">
<rect width="764" height="208" fill="white" transform="translate(0.517578)"/>
</clipPath>
<clipPath id="clip1_998_8650">
<rect width="56" height="32" fill="white" transform="translate(549.133 81)"/>
</clipPath>
<clipPath id="clip2_998_8650">
<rect width="56" height="32" fill="white" transform="translate(549.133 49)"/>
</clipPath>
<clipPath id="clip3_998_8650">
<rect width="56" height="32" fill="white" transform="translate(549.133 -15)"/>
</clipPath>
<clipPath id="clip4_998_8650">
<rect width="56" height="32" fill="white" transform="translate(493.133 -15)"/>
</clipPath>
<clipPath id="clip5_998_8650">
<rect width="56" height="32" fill="white" transform="translate(493.133 17)"/>
</clipPath>
<clipPath id="clip6_998_8650">
<rect width="56" height="32" fill="white" transform="translate(549.133 113)"/>
</clipPath>
<clipPath id="clip7_998_8650">
<rect width="56" height="32" fill="white" transform="translate(549.133 145)"/>
</clipPath>
<clipPath id="clip8_998_8650">
<rect width="56" height="32" fill="white" transform="translate(549.133 177)"/>
</clipPath>
<clipPath id="clip9_998_8650">
<rect width="56" height="32" fill="white" transform="translate(493.133 177)"/>
</clipPath>
<clipPath id="clip10_998_8650">
<rect width="56" height="32" fill="white" transform="translate(605.133 81)"/>
</clipPath>
<clipPath id="clip11_998_8650">
<rect width="56" height="32" fill="white" transform="translate(605.133 49)"/>
</clipPath>
<clipPath id="clip12_998_8650">
<rect width="56" height="32" fill="white" transform="translate(605.133 17)"/>
</clipPath>
<clipPath id="clip13_998_8650">
<rect width="56" height="32" fill="white" transform="translate(605.133 -15)"/>
</clipPath>
<clipPath id="clip14_998_8650">
<rect width="56" height="32" fill="white" transform="translate(605.133 113)"/>
</clipPath>
<clipPath id="clip15_998_8650">
<rect width="56" height="32" fill="white" transform="translate(605.133 145)"/>
</clipPath>
<clipPath id="clip16_998_8650">
<rect width="56" height="32" fill="white" transform="translate(605.133 177)"/>
</clipPath>
<clipPath id="clip17_998_8650">
<rect width="56" height="32" fill="white" transform="translate(661.133 81)"/>
</clipPath>
<clipPath id="clip18_998_8650">
<rect width="56" height="32" fill="white" transform="translate(661.133 49)"/>
</clipPath>
<clipPath id="clip19_998_8650">
<rect width="56" height="32" fill="white" transform="translate(661.133 17)"/>
</clipPath>
<clipPath id="clip20_998_8650">
<rect width="56" height="32" fill="white" transform="translate(661.133 -15)"/>
</clipPath>
<clipPath id="clip21_998_8650">
<rect width="56" height="32" fill="white" transform="translate(661.133 113)"/>
</clipPath>
<clipPath id="clip22_998_8650">
<rect width="56" height="32" fill="white" transform="translate(661.133 145)"/>
</clipPath>
<clipPath id="clip23_998_8650">
<rect width="56" height="32" fill="white" transform="translate(661.133 177)"/>
</clipPath>
<clipPath id="clip24_998_8650">
<rect width="56" height="32" fill="white" transform="translate(717.133 81)"/>
</clipPath>
<clipPath id="clip25_998_8650">
<rect width="56" height="32" fill="white" transform="translate(717.133 49)"/>
</clipPath>
<clipPath id="clip26_998_8650">
<rect width="56" height="32" fill="white" transform="translate(717.133 17)"/>
</clipPath>
<clipPath id="clip27_998_8650">
<rect width="56" height="32" fill="white" transform="translate(717.133 -15)"/>
</clipPath>
<clipPath id="clip28_998_8650">
<rect width="56" height="32" fill="white" transform="translate(717.133 113)"/>
</clipPath>
<clipPath id="clip29_998_8650">
<rect width="56" height="32" fill="white" transform="translate(717.133 145)"/>
</clipPath>
<clipPath id="clip30_998_8650">
<rect width="56" height="32" fill="white" transform="translate(717.133 177)"/>
</clipPath>
</defs>
</svg>
