<svg xmlns="http://www.w3.org/2000/svg" width="765" height="208" fill="none" viewBox="0 0 765 208"><g clip-path="url(#a)"><path fill="#121516" d="M.518 0h764v208h-764z"/><path stroke="#181c1d" stroke-opacity=".6" stroke-width=".5" d="m549.133 97 14-8m-14 8 14 8m-14-8-14 8 14 8m0-16v16m14-24 14 8m-14-8v16m0-16 14-8m0 16-14 8m14-8 14-8m-14 8V81m0 16 14 8m-14-8v16m-14-8 14 8m-14-8-14 8m14-8v16m14-40 14 8m-14-8 14-8m-14 8-14-8m14 8V65m14 24 14 8m-14-8v16m0-16 14-8m-14 8V73m14 24-14 8m14-8 14-8m-14 8V81m0 16 14 8m-14-8v16m-14-8-14 8m14-8 14 8m-14-8v16m-14-8-14 8m14-8 14 8m-14-8v16m-28-16 14 8m-14-8-14 8 14 8m0-16v16m14-8-14 8m14-8 14 8m-14-8v16m28-64 14 8m-14-8 14-8m-14 8-14-8m14 8V57m14 24 14 8m-14-8 14-8m-14 8V65m14 24 14 8m-14-8v16m0-16 14-8m-14 8V73m0 32-14 8m14-8 14-8m-14 8 14 8m-14-8v16m-14-8-14 8m14-8 14 8m-14-8v16m-14-8-14 8m14-8 14 8m-14-8v16m-28-80-14 8 14 8m0-16 14 8m-14-8v16m0-16 14-8m-14 8-14-8m14 8V41m14 24-14 8m14-8 14-8m-14 8V49m0 0 14 8m-14-8 14-8m-14 8-14-8m14 8V33m14 24 14 8m-14-8 14-8m-14 8V41m14 24 14-8m-14 8V49m0 16 14 8m-28-32 14 8m-14-8 14-8m-14 8-14-8m14 8V25m14 24 14 8m-14-8 14-8m-14 8V33m14 24 14 8m-14-8v16m0-16 14-8m-14 8V41m0 32 14 8m-14-8 14-8m-84-32 14-8m-14 8 14 8m-14-8-14 8m14-8v16m0-16-14-8m14 8V17m14 8 14 8m-14-8v16m0-16 14-8m-14 8-14-8m14 8V9m14 24-14 8m14-8 14-8m-14 8V17m-14 24-14 8m28-32 14 8m-14-8-14-8m14 8 14-8m-14 8V1m14 24 14 8m-14-8 14-8m-14 8V9m14 24 14-8m-14 8V17m0 16 14 8m-70 8-14-8m0 0-14-8m14 8V25m0 16-14 8m14-24 14-8m-14 8-14-8m14 8V9m0 16-14 8m28-16 14-8m-14 8-14-8m14 8V1m14 8 14-8m-14 8-14-8m14 8V-7m28 16 14 8m-14-8 14-8m-14 8-14-8m14 8V-7m14 24 14 8m-14-8 14-8m-14 8V1m14 24 14 8m-14-8v16m0-16 14-8m-14 8V9m0 32 14 8m-14-8 14-8m-84-32 14-8m-14 8-14 8m14-8-14-8m14 8v-16m14 8 14 8m-14-8 14-8m-14 8-14-8m14 8v-16m14 24 14-8m-14 8v-16m0 0 14 8m-14-8-14-8m14 8 14-8m0 16 14 8m-14-8 14-8m-14 8v-16m14 24 14-8m-14 8v-16m0 16 14 8m-84 0-14-8m14 8V-7m0 16-14 8m14-24 14-8m-14 8-14-8m14 8-14 8m14-8v-16m14 8 14-8m-14 8-14-8m56 0 14 8m0 0 14 8m-14-8 14-8m0 16 14 8m-14-8V9m0-16 14-8m-14 8v-16m0 32 14 8m-14-8 14-8m-140 0 14-8m-14 8 14 8m-14-8-14 8 14 8m0-16v16m0-16-14-8 14-8m0 16v-16m14 8 14 8m-14-8V9m0-16 14-8m-14 8-14-8m14 8v-16m14 24-14 8m14-8v-16m0 16v16m-14-8 14 8m-14-8-14 8m14-8v16m14-40-14-8m14 8 14-8m-14 40-14 8m14-8v16m-28-16 14 8m-14-8-14 8 14 8m0-16v16m14-8-14 8m14-8 14 8m-14-8v16m-14-56 14-8m-14 56 14 8m14-8-14 8m14-8v16m-14-8 14 8m28 80 14 8m-14-8-14 8 14 8m0-16v16m28-16-14 8m14-8 14 8m-14-8v16m-14-8 14 8m-14-8-14 8m14-8v16m42-24-14 8m14-8 14-8m-14 8 14 8m-14-8v16m-14-8-14 8m14-8 14 8m-14-8v16m-14-8-14 8m14-8 14 8m-14-8v16m-28-16 14 8m0 0-14 8m14-8 14 8m-14-8v16m56-48 14-8m-14 8 14 8m-14-8v16m0 0-14 8m14-8 14-8m-14 8 14 8m-14-8v16m-14-8-14 8m14-8 14 8m-14-8v16m-14-8-14 8m14-8 14 8m-14-8v16m-42-8 14 8m-14-8-14 8m14-8v16m28-16-14 8m14-8 14 8m-14-8v16m-14-8 14 8m-14-8-14 8m14-8v16m42-24-14 8m14-8 14-8m-14 8 14 8m-14-8v16m-14-8-14 8m14-8 14 8m-14-8v16m-14-8-14 8m14-8 14 8m-14-8v16m-28-16 14 8m-14-8-14-8m14 8-14 8m14-8v16m14-8-14 8m14-8 14 8m-14-8v16m-28-32-14 8m14-8v16m84-32 14-8m-14 8 14 8m-14-8v16m0 0-14 8m14-8 14-8m-14 8 14 8m-14-8v16m-14-8-14 8m14-8 14 8m-14-8v16m-14-8-14 8m14-8 14 8m-14-8v16m-70-24 14 8m-14-8-14 8m14-8v16m14-8 14 8m-14-8-14 8m14-8v16m14-8 14 8m-14-8-14 8m14-8v16m28-16-14 8m14-8 14 8m-14-8v16m-14-8 14 8m-14-8-14 8m14-8v16m42-24-14 8m14-8 14-8m-14 8 14 8m-14-8v16m-14-8-14 8m14-8 14 8m-14-8v16m-14-8-14 8m14-8 14 8m-42-8 14 8m-14-8-14-8m14 8-14 8m0-16-14-8m14 8-14 8m14-8v16m84-32 14-8m-14 8 14 8m-14-8v16m0 0-14 8m14-8 14-8m-14 8 14 8m-14-8v16m-14-8-14 8m14-8 14 8m-126-24 14-8m-14 8 14 8m-14-8-14 8 14 8m0-16v16m14-24 14 8m-14-8v16m14-8-14 8m14-8v16m-14-8 14 8m-14-8-14 8m14-8v16m14-8-14 8m14-8 14 8m-42-8 14 8m126-120 14-8m-14 8V81m0 16 14 8m-14-8v16m0-32 14 8m-14-8 14-8m-14 8V65m14 24 14 8m-14-8v16m0-16 14-8m-14 8V73m14 24-14 8m14-8 14-8m-14 8V81m0 16 14 8m-14-8v16m-14-8-14 8m14-8 14 8m-14-8v16m-14-8 14 8m-14-8v16m14-56 14 8m-14-8 14-8m-14 8-14-8m14 8V57m14 24 14 8m-14-8 14-8m-14 8V65m14 24 14 8m-14-8v16m0-16 14-8m-14 8V73m0 32-14 8m14-8 14-8m-14 8 14 8m-14-8v16m-14-8-14 8m14-8 14 8m-14-8v16m-14-8-14 8m14-8 14 8m-14-8v16m-14-72 14-8m-14 8V49m0 0 14 8m-14-8 14-8m-14 8V33m14 24 14 8m-14-8 14-8m-14 8V41m14 24 14-8m-14 8V49m0 16 14 8m-28-32 14 8m-14-8 14-8m-14 8-14-8m14 8V25m14 24 14 8m-14-8 14-8m-14 8V33m14 24 14 8m-14-8v16m0-16 14-8m-14 8V41m0 32 14 8m-14-8 14-8m-56-32 14-8m-14 8V17m0 0 14 8m-14-8 14-8m-14 8V1m14 24 14 8m-14-8 14-8m-14 8V9m14 24 14-8m-14 8V17m0 16 14 8m-28-32 14 8m-14-8 14-8m-14 8-14-8m14 8V-7m14 24 14 8m-14-8 14-8m-14 8V1m14 24 14 8m-14-8v16m0-16 14-8m-14 8V9m0 32 14 8m-14-8 14-8m-56-32 14-8m-14 8v-16m0 0 14 8m-14-8-14-8m14 8 14-8m0 16 14 8m-14-8 14-8m-14 8v-16m14 24 14-8m-14 8v-16m0 16 14 8m-28-32 14 8m0 0 14 8m-14-8 14-8m0 16 14 8m-14-8V9m0-16 14-8m-14 8v-16m0 32 14 8m-14-8 14-8m-56 128 14 8m-14-8v16m28-16-14 8m14-8 14-8m-14 8 14 8m-14-8v16m-14-8-14 8m14-8 14 8m-14-8v16m-14-8 14 8m-14-8v16m42-40 14-8m-14 8 14 8m-14-8v16m0 0-14 8m14-8 14-8m-14 8 14 8m-14-8v16m-14-8-14 8m14-8 14 8m-14-8v16m-14-8-14 8m14-8 14 8m-14-8v16m-14-8 14 8m-14-8v16m28-16-14 8m14-8 14-8m-14 8 14 8m-14-8v16m-14-8-14 8m14-8 14 8m-14-8v16m-14-8 14 8m-14-8v16m42-40 14-8m-14 8 14 8m-14-8v16m0 0-14 8m14-8 14-8m-14 8 14 8m-14-8v16m-14-8-14 8m14-8 14 8m-14-8v16m-14-8-14 8m14-8 14 8m-14-8v16m-14-8 14 8m-14-8v16m28-16-14 8m14-8 14-8m-14 8 14 8m-14-8v16m-14-8-14 8m14-8 14 8m-14-8v16m-14-8-14 8m14-8 14 8m28-32 14-8m-14 8 14 8m-14-8v16m0 0-14 8m14-8 14-8m-14 8 14 8m-14-8v16m-14-8-14 8m14-8 14 8m14-120 14-8m-14 8V81m0 16 14 8m-14-8v16m0-32 14 8m-14-8 14-8m-14 8V65m14 24 14 8m-14-8v16m0-16 14-8m-14 8V73m14 24-14 8m14-8 14-8m-14 8V81m0 16 14 8m-14-8v16m-14-8-14 8m14-8 14 8m-14-8v16m-14-8 14 8m-14-8v16m14-56 14 8m-14-8 14-8m-14 8-14-8m14 8V57m14 24 14 8m-14-8 14-8m-14 8V65m14 24 14 8m-14-8v16m0-16 14-8m-14 8V73m0 32-14 8m14-8 14-8m-14 8 14 8m-14-8v16m-14-8-14 8m14-8 14 8m-14-8v16m-14-8-14 8m14-8 14 8m-14-8v16m-14-72 14-8m-14 8V49m0 0 14 8m-14-8 14-8m-14 8V33m14 24 14 8m-14-8 14-8m-14 8V41m14 24 14-8m-14 8V49m0 16 14 8m-28-32 14 8m-14-8 14-8m-14 8-14-8m14 8V25m14 24 14 8m-14-8 14-8m-14 8V33m14 24 14 8m-14-8v16m0-16 14-8m-14 8V41m0 32 14 8m-14-8 14-8m-56-32 14-8m-14 8V17m0 0 14 8m-14-8 14-8m-14 8V1m14 24 14 8m-14-8 14-8m-14 8V9m14 24 14-8m-14 8V17m0 16 14 8m-28-32 14 8m-14-8 14-8m-14 8-14-8m14 8V-7m14 24 14 8m-14-8 14-8m-14 8V1m14 24 14 8m-14-8v16m0-16 14-8m-14 8V9m0 32 14 8m-14-8 14-8m-56-32 14-8m-14 8v-16m0 0 14 8m-14-8-14-8m14 8 14-8m0 16 14 8m-14-8 14-8m-14 8v-16m14 24 14-8m-14 8v-16m0 16 14 8m-28-32 14 8m0 0 14 8m-14-8 14-8m0 16 14 8m-14-8V9m0-16 14-8m-14 8v-16m0 32 14 8m-14-8 14-8m-56 128 14 8m-14-8v16m28-16-14 8m14-8 14-8m-14 8 14 8m-14-8v16m-14-8-14 8m14-8 14 8m-14-8v16m-14-8 14 8m-14-8v16m42-40 14-8m-14 8 14 8m-14-8v16m0 0-14 8m14-8 14-8m-14 8 14 8m-14-8v16m-14-8-14 8m14-8 14 8m-14-8v16m-14-8-14 8m14-8 14 8m-14-8v16m-14-8 14 8m-14-8v16m28-16-14 8m14-8 14-8m-14 8 14 8m-14-8v16m-14-8-14 8m14-8 14 8m-14-8v16m-14-8 14 8m-14-8v16m42-40 14-8m-14 8 14 8m-14-8v16m0 0-14 8m14-8 14-8m-14 8 14 8m-14-8v16m-14-8-14 8m14-8 14 8m-14-8v16m-14-8-14 8m14-8 14 8m-14-8v16m-14-8 14 8m-14-8v16m28-16-14 8m14-8 14-8m-14 8 14 8m-14-8v16m-14-8-14 8m14-8 14 8m-14-8v16m-14-8-14 8m14-8 14 8m28-32 14-8m-14 8 14 8m-14-8v16m0 0-14 8m14-8 14-8m-14 8 14 8m-14-8v16m-14-8-14 8m14-8 14 8m14-120 14-8m-14 8V81m0 16 14 8m-14-8v16m0-32 14 8m-14-8 14-8m-14 8V65m14 24 14 8m-14-8v16m0-16 14-8m-14 8V73m14 24-14 8m14-8 14-8-14-8m0 16V81m0 16 14 8-14 8m0-16v16m-14-8-14 8m14-8 14 8m-14-8v16m-14-8 14 8m-14-8v16m14-56 14 8m-14-8 14-8m-14 8-14-8m14 8V57m14 24 14-8-14-8m0 16V65m0 48-14 8m14-8 14 8-14 8m0-16v16m-14-8-14 8m14-8 14 8m-14-8v16m-14-72 14-8m-14 8V49m0 0 14 8m-14-8 14-8m-14 8V33m14 24 14 8m-14-8 14-8m-14 8V41m14 24 14-8-14-8m0 16V49m-14-8 14 8m-14-8 14-8m-14 8-14-8m14 8V25m14 24 14-8-14-8m0 16V33m-28 0 14-8m-14 8V17m0 0 14 8m-14-8 14-8m-14 8V1m14 24 14 8m-14-8 14-8m-14 8V9m14 24 14-8-14-8m0 16V17m-14-8 14 8m-14-8 14-8m-14 8-14-8m14 8V-7m14 24 14-8-14-8m0 16V1m-28 0 14-8m-14 8v-16m0 0 14 8m-14-8-14-8m14 8 14-8m0 16 14 8m-14-8 14-8m-14 8v-16m14 24 14-8-14-8m0 16v-16m-14-8 14 8m-28 144 14 8m-14-8v16m28-16-14 8m14-8 14 8-14 8m0-16v16m-14-8-14 8m14-8 14 8m-14-8v16m-14-8 14 8m-14-8v16m28-16-14 8m14-8 14 8-14 8m0-16v16m-14-8-14 8m14-8 14 8m-14-8v16m-14-8 14 8m-14-8v16m28-16-14 8m14-8 14 8-14 8m0-16v16m-14-8-14 8m14-8 14 8m-14-8v16m-14-8 14 8m-14-8v16m28-16-14 8m14-8 14 8-14 8m0-16v16m-14-8-14 8m14-8 14 8m-14-8v16m-14-8 14 8m-14-8v16m28-16-14 8m14-8 14 8-14 8m0-16v16m-14-8-14 8m14-8 14 8m-14-8v16m-14-8-14 8m14-8 14 8m14-8-14 8"/><g clip-path="url(#b)"><path stroke="#22272a" stroke-width=".5" d="m577.133 81-28 16 28 16m0-32 28 16-28 16m0-32v32"/></g><g clip-path="url(#c)"><path stroke="#22272a" stroke-width=".5" d="m577.133 49-28 16 28 16m0-32 28 16-28 16m0-32v32"/></g><path stroke="#22272a" stroke-width=".5" d="m577.133 17-28 16 28 16m0-32 28 16-28 16m0-32v32"/><g clip-path="url(#d)"><path stroke="#22272a" stroke-width=".5" d="m577.133-15-28 16 28 16m0-32 28 16-28 16m0-32v32"/></g><g clip-path="url(#e)"><path stroke="#22272a" stroke-width=".5" d="m521.133-15-28 16 28 16m0-32 28 16-28 16m0-32v32"/></g><g clip-path="url(#f)"><path stroke="#22272a" stroke-width=".5" d="m521.133 17-28 16 28 16m0-32 28 16-28 16m0-32v32"/></g><g clip-path="url(#g)"><path stroke="#22272a" stroke-width=".5" d="m577.133 113-28 16 28 16m0-32 28 16-28 16m0-32v32"/></g><g clip-path="url(#h)"><path stroke="#22272a" stroke-width=".5" d="m577.133 145-28 16 28 16m0-32 28 16-28 16m0-32v32"/></g><g clip-path="url(#i)"><path stroke="#22272a" stroke-width=".5" d="m577.133 177-28 16 28 16m0-32 28 16-28 16m0-32v32"/></g><g clip-path="url(#j)"><path stroke="#22272a" stroke-width=".5" d="m521.133 177-28 16 28 16m0-32 28 16-28 16m0-32v32"/></g><g clip-path="url(#k)"><path stroke="#22272a" stroke-width=".5" d="m633.133 81-28 16 28 16m0-32 28 16-28 16m0-32v32"/></g><g clip-path="url(#l)"><path stroke="#22272a" stroke-width=".5" d="m633.133 49-28 16 28 16m0-32 28 16-28 16m0-32v32"/></g><g clip-path="url(#m)"><path stroke="#22272a" stroke-width=".5" d="m633.133 17-28 16 28 16m0-32 28 16-28 16m0-32v32"/></g><g clip-path="url(#n)"><path stroke="#22272a" stroke-width=".5" d="m633.133-15-28 16 28 16m0-32 28 16-28 16m0-32v32"/></g><g clip-path="url(#o)"><path stroke="#22272a" stroke-width=".5" d="m633.133 113-28 16 28 16m0-32 28 16-28 16m0-32v32"/></g><g clip-path="url(#p)"><path stroke="#22272a" stroke-width=".5" d="m633.133 145-28 16 28 16m0-32 28 16-28 16m0-32v32"/></g><g clip-path="url(#q)"><path stroke="#22272a" stroke-width=".5" d="m633.133 177-28 16 28 16m0-32 28 16-28 16m0-32v32"/></g><g clip-path="url(#r)"><path stroke="#22272a" stroke-width=".5" d="m689.133 81-28 16 28 16m0-32 28 16-28 16m0-32v32"/></g><g clip-path="url(#s)"><path stroke="#22272a" stroke-width=".5" d="m689.133 49-28 16 28 16m0-32 28 16-28 16m0-32v32"/></g><g clip-path="url(#t)"><path stroke="#22272a" stroke-width=".5" d="m689.133 17-28 16 28 16m0-32 28 16-28 16m0-32v32"/></g><g clip-path="url(#u)"><path stroke="#22272a" stroke-width=".5" d="m689.133-15-28 16 28 16m0-32 28 16-28 16m0-32v32"/></g><g clip-path="url(#v)"><path stroke="#22272a" stroke-width=".5" d="m689.133 113-28 16 28 16m0-32 28 16-28 16m0-32v32"/></g><g clip-path="url(#w)"><path stroke="#22272a" stroke-width=".5" d="m689.133 145-28 16 28 16m0-32 28 16-28 16m0-32v32"/></g><g clip-path="url(#x)"><path stroke="#22272a" stroke-width=".5" d="m689.133 177-28 16 28 16m0-32 28 16-28 16m0-32v32"/></g><g clip-path="url(#y)"><path stroke="#22272a" stroke-width=".5" d="m745.133 81-28 16 28 16m0-32 28 16-28 16m0-32v32"/></g><g clip-path="url(#z)"><path stroke="#22272a" stroke-width=".5" d="m745.133 49-28 16 28 16m0-32 28 16-28 16m0-32v32"/></g><g clip-path="url(#A)"><path stroke="#22272a" stroke-width=".5" d="m745.133 17-28 16 28 16m0-32 28 16-28 16m0-32v32"/></g><g clip-path="url(#B)"><path stroke="#22272a" stroke-width=".5" d="m745.133-15-28 16 28 16m0-32 28 16-28 16m0-32v32"/></g><g clip-path="url(#C)"><path stroke="#22272a" stroke-width=".5" d="m745.133 113-28 16 28 16m0-32 28 16-28 16m0-32v32"/></g><g clip-path="url(#D)"><path stroke="#22272a" stroke-width=".5" d="m745.133 145-28 16 28 16m0-32 28 16-28 16m0-32v32"/></g><g clip-path="url(#E)"><path stroke="#22272a" stroke-width=".5" d="m745.133 177-28 16 28 16m0-32 28 16-28 16m0-32v32"/></g><path fill="#121516" stroke="#22272a" stroke-linejoin="round" stroke-width=".5" d="m605.069 128.995-27.922 16.371-28.151-16.311 28.158-16.113z"/><path fill="#121516" stroke="#22272a" stroke-linejoin="round" stroke-width=".5" d="m605.116 128.981-.04 31.998-27.967 16.231.04-31.875zM577.148 145.331l-.04 31.864-28.151-16.26.039-31.865z"/><path stroke="url(#F)" stroke-linejoin="round" stroke-width=".5" d="m605.069 128.995-27.922 16.371-28.151-16.311 28.158-16.113z"/><path stroke="url(#G)" stroke-linejoin="round" stroke-width=".5" d="m605.116 128.981-.04 31.998-27.967 16.231.04-31.875z"/><path stroke="url(#H)" stroke-linejoin="round" stroke-width=".5" d="m577.148 145.331-.04 31.864-28.151-16.26.039-31.865z"/><path fill="#121516" stroke="#22272a" stroke-linejoin="round" stroke-width=".5" d="m605.069 32.919-27.922 16.37-28.151-16.31 28.158-16.113z"/><path fill="#121516" stroke="#22272a" stroke-linejoin="round" stroke-width=".5" d="m605.116 32.905-.04 31.997-27.967 16.231.04-31.874zM577.148 49.254l-.04 31.865-28.151-16.26.039-31.865z"/><path stroke="url(#I)" stroke-linejoin="round" stroke-width=".5" d="m605.069 32.919-27.922 16.37-28.151-16.31 28.158-16.113z"/><path stroke="url(#J)" stroke-linejoin="round" stroke-width=".5" d="m605.116 32.905-.04 32.067-27.967 16.161.04-31.874z"/><path stroke="url(#K)" stroke-linejoin="round" stroke-width=".5" d="m577.148 49.254-.04 31.865-28.151-16.26.039-31.865z"/><path fill="#121516" stroke="#22272a" stroke-linejoin="round" stroke-width=".5" d="M717.086 32.93 689.165 49.3l-28.152-16.31 28.158-16.113z"/><path fill="#121516" stroke="#22272a" stroke-linejoin="round" stroke-width=".5" d="m717.133 32.916-.04 31.997-27.967 16.231.04-31.874zM689.165 49.265l-.04 31.864-28.151-16.26.039-31.864z"/><path stroke="url(#L)" stroke-linejoin="round" stroke-width=".5" d="M717.086 32.93 689.165 49.3l-28.152-16.31 28.158-16.113z"/><path stroke="url(#M)" stroke-linejoin="round" stroke-width=".5" d="m717.133 32.916-.04 31.997-27.967 16.231.04-31.874z"/><path stroke="url(#N)" stroke-linejoin="round" stroke-width=".5" d="m689.165 49.265-.04 31.864-28.151-16.26.039-31.864z"/><path stroke="url(#O)" stroke-dasharray="0.5 1" stroke-width=".5" d="M661.476 128.945 633.234 145l-28.304-16.125"/><path stroke="url(#P)" stroke-dasharray="0.5 1" stroke-width=".5" d="m689.085 80.979 56.049 31.746v64.132l-68.619 39.588"/><path stroke="url(#Q)" stroke-dasharray="0.5 1" stroke-width=".5" d="m745.134 112.782-55.938 32.234m0 0v31.649m0-31.649-14.027-8.004"/><path stroke="#fff" stroke-dasharray="0.5 1" stroke-width=".5" d="m633.037 81.034-27.944-16.091"/><path fill="#d9d9d9" fill-opacity=".1" stroke="#575e61" stroke-linecap="round" stroke-linejoin="round" stroke-width=".499" d="m689.173 112.996-7.038-4.04-42.247.179-6.74 3.847 27.977 16.042z"/><path fill="#121516" stroke="#22272a" stroke-linejoin="round" stroke-width=".5" d="m689.086 73.12-27.921 16.37-28.152-16.31 28.158-16.113z"/><path fill="#121516" stroke="#22272a" stroke-linejoin="round" stroke-width=".5" d="m689.133 73.106-.04 31.997-27.967 16.231.04-31.874zM661.165 89.455l-.04 31.864-28.151-16.26.039-31.864z"/><path stroke="#fff" stroke-linejoin="round" stroke-width=".5" d="m689.086 73.12-27.921 16.37-28.152-16.31 28.158-16.113z"/><path stroke="#fff" stroke-linejoin="round" stroke-width=".5" d="m689.133 73.106-.04 31.997-27.967 16.231.04-31.874zM661.165 89.455l-.04 31.864-28.151-16.26.039-31.864z"/></g><defs><clipPath id="a"><path fill="#fff" d="M.518 0h764v208h-764z"/></clipPath><clipPath id="b"><path fill="#fff" d="M549.133 81h56v32h-56z"/></clipPath><clipPath id="c"><path fill="#fff" d="M549.133 49h56v32h-56z"/></clipPath><clipPath id="d"><path fill="#fff" d="M549.133-15h56v32h-56z"/></clipPath><clipPath id="e"><path fill="#fff" d="M493.133-15h56v32h-56z"/></clipPath><clipPath id="f"><path fill="#fff" d="M493.133 17h56v32h-56z"/></clipPath><clipPath id="g"><path fill="#fff" d="M549.133 113h56v32h-56z"/></clipPath><clipPath id="h"><path fill="#fff" d="M549.133 145h56v32h-56z"/></clipPath><clipPath id="i"><path fill="#fff" d="M549.133 177h56v32h-56z"/></clipPath><clipPath id="j"><path fill="#fff" d="M493.133 177h56v32h-56z"/></clipPath><clipPath id="k"><path fill="#fff" d="M605.133 81h56v32h-56z"/></clipPath><clipPath id="l"><path fill="#fff" d="M605.133 49h56v32h-56z"/></clipPath><clipPath id="m"><path fill="#fff" d="M605.133 17h56v32h-56z"/></clipPath><clipPath id="n"><path fill="#fff" d="M605.133-15h56v32h-56z"/></clipPath><clipPath id="o"><path fill="#fff" d="M605.133 113h56v32h-56z"/></clipPath><clipPath id="p"><path fill="#fff" d="M605.133 145h56v32h-56z"/></clipPath><clipPath id="q"><path fill="#fff" d="M605.133 177h56v32h-56z"/></clipPath><clipPath id="r"><path fill="#fff" d="M661.133 81h56v32h-56z"/></clipPath><clipPath id="s"><path fill="#fff" d="M661.133 49h56v32h-56z"/></clipPath><clipPath id="t"><path fill="#fff" d="M661.133 17h56v32h-56z"/></clipPath><clipPath id="u"><path fill="#fff" d="M661.133-15h56v32h-56z"/></clipPath><clipPath id="v"><path fill="#fff" d="M661.133 113h56v32h-56z"/></clipPath><clipPath id="w"><path fill="#fff" d="M661.133 145h56v32h-56z"/></clipPath><clipPath id="x"><path fill="#fff" d="M661.133 177h56v32h-56z"/></clipPath><clipPath id="y"><path fill="#fff" d="M717.133 81h56v32h-56z"/></clipPath><clipPath id="z"><path fill="#fff" d="M717.133 49h56v32h-56z"/></clipPath><clipPath id="A"><path fill="#fff" d="M717.133 17h56v32h-56z"/></clipPath><clipPath id="B"><path fill="#fff" d="M717.133-15h56v32h-56z"/></clipPath><clipPath id="C"><path fill="#fff" d="M717.133 113h56v32h-56z"/></clipPath><clipPath id="D"><path fill="#fff" d="M717.133 145h56v32h-56z"/></clipPath><clipPath id="E"><path fill="#fff" d="M717.133 177h56v32h-56z"/></clipPath><linearGradient id="F" x1="602.347" x2="568.798" y1="123.498" y2="142.084" gradientUnits="userSpaceOnUse"><stop stop-color="#a1adad"/><stop offset="1" stop-color="#3b4143"/></linearGradient><linearGradient id="G" x1="602.347" x2="568.798" y1="123.498" y2="142.084" gradientUnits="userSpaceOnUse"><stop stop-color="#a1adad"/><stop offset="1" stop-color="#3b4143"/></linearGradient><linearGradient id="H" x1="602.347" x2="568.798" y1="123.498" y2="142.084" gradientUnits="userSpaceOnUse"><stop stop-color="#a1adad"/><stop offset="1" stop-color="#3b4143"/></linearGradient><linearGradient id="I" x1="603.795" x2="568.798" y1="63.486" y2="46.008" gradientUnits="userSpaceOnUse"><stop stop-color="#899a9b"/><stop offset="1" stop-color="#3b4143"/></linearGradient><linearGradient id="J" x1="603.795" x2="568.798" y1="63.486" y2="46.008" gradientUnits="userSpaceOnUse"><stop stop-color="#899a9b"/><stop offset="1" stop-color="#3b4143"/></linearGradient><linearGradient id="K" x1="603.795" x2="568.798" y1="63.486" y2="46.008" gradientUnits="userSpaceOnUse"><stop stop-color="#899a9b"/><stop offset="1" stop-color="#3b4143"/></linearGradient><linearGradient id="L" x1="679.803" x2="680.919" y1="73.906" y2="43.05" gradientUnits="userSpaceOnUse"><stop stop-color="#fff"/><stop offset="1" stop-color="#3b4143"/></linearGradient><linearGradient id="M" x1="679.803" x2="680.919" y1="73.906" y2="43.05" gradientUnits="userSpaceOnUse"><stop stop-color="#fff"/><stop offset="1" stop-color="#3b4143"/></linearGradient><linearGradient id="N" x1="679.803" x2="680.919" y1="73.906" y2="43.05" gradientUnits="userSpaceOnUse"><stop stop-color="#fff"/><stop offset="1" stop-color="#3b4143"/></linearGradient><linearGradient id="O" x1="620.36" x2="608.008" y1="132.656" y2="148.906" gradientUnits="userSpaceOnUse"><stop stop-color="#fff"/><stop offset="1" stop-color="#575e61" stop-opacity="0"/></linearGradient><linearGradient id="P" x1="720.033" x2="679.849" y1="127.671" y2="140.573" gradientUnits="userSpaceOnUse"><stop stop-color="#fff"/><stop offset="1" stop-color="#575e61" stop-opacity="0"/></linearGradient><linearGradient id="Q" x1="719.541" x2="689.042" y1="134.801" y2="155.973" gradientUnits="userSpaceOnUse"><stop stop-color="#fff"/><stop offset="1" stop-color="#575e61" stop-opacity="0"/></linearGradient></defs></svg>