<svg xmlns="http://www.w3.org/2000/svg" width="669" height="360" fill="none" viewBox="0 0 669 360"><g clip-path="url(#a)"><path fill="url(#b)" d="m-211.503-39.321-.198-.095-.043-1.001.197.095-2.082-45.429 17.456 7.545-.022-.49.402.176.022.49 17.908 7.741-.022-.497.424.183.022.497 18.376 7.939-.022-.504.431.19.022.504 18.872 8.158-.022-.511.439.19.021.51 19.384 8.378-.022-.519.453.198.022.518 19.917 8.604-.022-.526.468.204.022.526 20.464 8.845-.022-.533.483.212.022.533 21.049 9.093-.015-.54.49.211.021.54 21.655 9.357-.014-.548.504.219.014.548 22.284 9.626-.015-.555.526.226.015.555 22.933 9.911-.014-.562.54.234.014.562 23.628 10.21-.015-.57.548.235.015.57 24.343 10.516-.015-.577.562.242.015.576L86.01 43.736l-.014-.584.591.256.015.584 25.869 11.175-.014-.592.613.263.015.592 26.709 11.54-.014-.607.62.27.015.606 27.571 11.913v-.614l.628.278.015.613 28.477 12.307v-.62l.665.291v.621l29.426 12.708v-.628l.686.3v.635l30.435 13.147.694 59.89.343.16.014 1.315-.343-.161.687 59.35.343.167.015 1.308-.344-.175.68 58.823.343.183.014 1.27-.343-.182.672 58.319.343.19.015 1.264-.343-.19.664 57.779.344.205.014 1.27-.343-.204.665 57.268.336.211.014 1.235-.336-.212.657 56.786.336.219.015 1.227-.336-.219.65 56.267.336.234.015 1.241-.336-.233.642 55.777.336.241.015 1.227-.336-.241.635 55.296.336.249.015 1.197-.336-.248.635 54.814.336.255.015 1.206-.336-.256.628 54.346.329.263.015 1.198-.329-.263.621 53.879.328.277.015 1.169-.329-.277.621 53.418.329.285.014 1.176-.328-.285.613 52.966.329.292.014 1.169-.328-.292.606 52.518.329.3.014 1.14-.328-.3.598 52.1.322.31.014 1.12-.321-.31.599 51.65.321.31.015 1.14-.321-.31.591 51.21-28.243-28.31v.56l-.643-.65v-.56l-27.381-27.43v.55l-.621-.63v-.55l-26.57-26.63v.54l-.592-.6v-.54l-25.789-25.84v.54l-.57-.59v-.53l-25.044-25.1.014.53-.576-.58-.015-.52-24.307-24.37.015.53-.555-.57-.015-.51-23.634-23.69.014.52-.533-.53-.014-.52-22.978-23.032.015.511-.519-.518-.014-.511-22.342-22.393.015.504-.512-.512-.014-.504-21.729-21.779.015.497-.497-.504-.014-.497-21.159-21.21.015.49-.475-.482-.015-.49-20.603-20.647.015.489-.468-.467-.015-.49-20.063-20.114.015.482-.46-.46-.015-.482-19.544-19.588.014.474-.453-.452-.014-.475-19.055-19.099.022.467-.431-.431-.015-.467-18.58-18.617.014.467-.416-.423-.022-.468-18.12-18.157.022.461-.417-.417-.022-.46-17.667-17.711.022.453-.409-.409-.022-.453-17.251-17.288.022.453-.388-.387-.021-.453-16.843-16.879-1.84-40.374-.197-.19-.044-.898.197.19-1.855-40.631-.197-.182-.044-.884.197.183-1.87-40.908-.197-.182-.044-.892.198.183-1.877-41.156-.198-.175-.044-.913.198.175-1.892-41.419-.197-.168-.044-.92.197.168-1.906-41.689-.197-.161-.044-.906.197.161-1.913-41.959-.198-.161-.043-.935.197.161-1.928-42.237-.198-.153-.043-.935.197.153-1.943-42.514-.197-.146-.044-.928.197.146-1.957-42.792-.197-.139-.044-.949.197.139-1.965-43.07-.197-.139-.044-.957.198.132-1.98-43.354-.197-.132-.044-.942.197.131-1.993-43.661-.198-.124-.043-.949.197.124-2.009-43.939-.197-.117-.044-.971.197.117-2.023-44.231-.197-.11-.044-.964.197.11-2.037-44.545-.197-.11-.044-.971.197.102-2.045-44.822-.197-.102-.044-.994.197.103-2.06-45.13m-2.541-47.612 38.044 832.432 447.45 448.76-12.394-1077.114z"/><path fill="url(#c)" d="m241.156 1113 .701 50.53v.55l.657.65v-.55l-.701-50.55-.65-.63m-.73-52.08.708 50.95.65.64-.701-50.97-.65-.62m-.73-52.51.708 51.4.65.62-.708-51.41-.657-.6m-.724-52.935.716 51.805.658.6-.716-51.821zm-.744-53.39.723 52.243.657.585-.723-52.258zm-.745-53.842.73 52.681.657.57-.73-52.696-.665-.555m-.745-54.281.738 53.127.665.555-.731-53.141-.664-.533m-.76-54.763.738 53.579.664.534-.737-53.594zm-.767-55.223.745 54.04.665.518-.745-54.054-.672-.497m-.76-55.69.753 54.5.671.497-.752-54.515zm-.781-56.179.759 54.967.672.482-.759-54.989-.68-.46m-.774-56.662.767 55.442.672.46-.767-55.464-.679-.445m-.789-57.151.774 55.946.68.445-.775-55.968zm-.796-57.633.782 56.413.679.424-.782-56.435-.686-.402m-.796-58.159.788 56.91.687.402-.789-56.925zm-.811-58.677.796 57.428.687.387-.811-58.699-.687-.365m-.818-59.204.818 59.204.687.365-.811-59.225zm-.81-58.429.81 58.429.694.344-.832-59.751-.694-.322m-.826-59.576v.629l.826 58.947.694.322-.811-58.97v-.635l-.709-.3"/><path fill="url(#d)" d="m213.057 1085.59.803 49.87v.55l.635.63v-.55l-.803-49.89-.628-.61m-.833-51.39.804 50.28.628.62-.804-50.3-.635-.6m-.818-51.815.811 50.715.635.6-.811-50.731zm-.84-52.214.818 51.111.635.584-.818-51.125zm-.847-52.674.825 51.535.636.569-.826-51.549-.642-.555m-.84-53.104.832 51.965.643.548-.833-51.98zm-.862-53.529.84 52.397.642.533-.839-52.411zm-.869-53.996.847 52.835.643.519-.848-52.85-.65-.504m-.861-54.448.854 53.28.65.504-.854-53.295-.65-.482m-.884-54.901.862 53.725.65.482-.862-53.747-.65-.468m-.884-55.368.869 54.185.65.468-.869-54.201-.657-.445m-.891-55.851.876 54.646.657.445-.876-54.66zm-.906-56.326.884 55.135.657.431-.884-55.149-.657-.409m-.906-56.793.891 55.58.658.409-.891-55.602-.665-.395m-.913-57.282.898 56.063.665.394-.898-56.085zm-.949-59.028.927 57.801.665.372-.928-57.823zm-.913-57.042.913 57.042.664.35-.913-57.056-.336-.168-.336-.168m-.956-60.079.964 60.079.672.336-.964-60.101zm-.943-58.663v.62l.943 58.043.672.314-.928-58.064v-.621z"/><path fill="url(#e)" d="m185.801 1059 .891 49.23v.54l.607.6v-.54l-.906-49.25-.599-.58m-.913-50.72.898 49.62.599.59-.898-49.64-.606-.57m-.92-51.136.905 50.056.606.57-.905-50.071zm-.935-51.527.913 50.439.606.555-.913-50.454zm-.95-51.966.92 50.848.607.541-.921-50.863zm-.949-52.389.927 51.265.606.525-.927-51.278-.614-.512m-.949-52.798.942 51.681.614.511-.935-51.695-.614-.497m-.978-53.258.949 52.112.614.496-.943-52.126-.613-.474m-.979-53.704.957 52.542.613.475-.949-52.557zm-.986-54.12.964 52.973.621.46-.957-52.995-.621-.445m-1-54.588.971 53.419.621.446-.971-53.434-.621-.423m-1.001-55.055.979 53.864.621.424-.979-53.879-.628-.409m-1.001-55.515.986 54.339.628.409-.986-54.361-.628-.394m-1.015-55.954.993 54.778.629.387-.994-54.792zm-1.03-56.457 1.001 55.238.628.372-1.001-55.259-.635-.351m-1.022-56.939 1.015 55.734.628.351-1.03-56.969-.635-.336m-1.023-56.186 1.023 56.186.635.336-1.044-57.457-.636-.314m-1.03-56.669 1.03 56.669.636.314-1.03-57.93-.636-.299m-1.073-57.782v.613l1.052 57.159.635.299-1.037-57.18-.015-.614-.643-.277"/><path fill="url(#f)" d="m159.341 1033.2.986 48.62v.53l.591.58v-.53l-.993-48.62-.584-.57m-1.008-50.081.993 48.991.585.57-.986-49.006-.585-.555m-1.029-50.468 1 49.402.584.555-.993-49.416-.584-.541m-1.037-50.855 1.008 49.774.584.541-1.008-49.789-.592-.526m-1.029-51.279 1.015 50.176.591.526-1.015-50.191zm-1.045-51.695 1.023 50.578.591.511-1.022-50.593zm-1.052-52.097 1.03 50.987.592.496-1.03-51.001zm-1.066-52.535 1.037 51.403.599.482-1.037-51.418-.599-.46m-1.066-52.966 1.044 51.82.599.46-1.044-51.834zm-1.081-53.375 1.059 52.243.599.446-1.052-52.258-.599-.431m-1.095-53.835 1.066 52.674.599.431-1.067-52.688-.606-.417m-1.095-54.273 1.073 53.105.607.416-1.074-53.127zm-1.103-54.726 1.081 53.572.606.394-1.081-53.586zm-1.118-55.165 1.096 53.996.606.38-1.088-54.01-.614-.358m-1.124-55.647 1.103 54.442.613.358-1.096-54.464-.613-.343m-1.139-56.106 1.11 54.923.613.343-1.139-56.143-.614-.321m-1.117-55.362 1.117 55.362.614.321-1.139-56.603-.614-.307m-1.154-57.07 1.154 57.07.614.307-1.147-57.093zm-1.154-56.91.015.606 1.139 56.304.621.284-1.14-56.325-.014-.606-.621-.27"/><path fill="url(#g)" d="m133.65 1008.14 1.066 48 .015.53.577.58-.015-.53-1.066-48.01zm-1.096-49.434 1.074 48.374.577.56-1.074-48.387zm-1.103-49.826 1.081 48.774.577.548-1.081-48.789zm-1.117-50.198 1.088 49.132.577.533-1.088-49.146-.584-.519m-1.118-50.614 1.103 49.526.584.519-1.095-49.541-.584-.504m-1.14-51.016 1.11 49.913.585.504-1.111-49.927zm-1.139-51.395 1.117 50.314.585.49-1.118-50.33-.592-.474m-1.146-51.834 1.125 50.716.591.475-1.125-50.731zm-1.161-52.25 1.132 51.118.591.46-1.132-51.14zm-1.169-52.645 1.147 51.534.591.439-1.139-51.549-.592-.424m-1.183-53.098 1.154 51.951.592.424-1.154-51.965-.599-.41m-1.183-53.521 1.161 52.375.599.409-1.162-52.389zm-1.198-53.966 1.176 52.82.599.394-1.169-52.834-.599-.373m-1.22-54.383 1.184 53.229.598.373-1.183-53.251-.599-.358m-1.219-54.843 1.19 53.667.599.358-1.19-53.689-.607-.336m-1.219-55.31 1.205 54.134.606.336-1.198-54.149-.606-.321m-1.271-56.954 1.271 56.954.606.321-1.271-56.976zm-1.22-55.011 1.22 55.011.606.299-1.234-56.245-.613-.285m-1.249-56.063.014.592 1.235 55.471.613.285-1.227-55.493-.015-.592-.613-.263"/><path fill="url(#h)" d="m108.711 983.817 1.147 47.403.015.52.555.56-.015-.53-1.139-47.413-.563-.547M107.536 935l1.154 47.765.562.548-1.154-47.78zm-1.191-49.198 1.161 48.153.563.533-1.162-48.167zm-1.19-49.555 1.168 48.511.563.518-1.169-48.525zm-1.213-49.964 1.183 48.883.563.504-1.176-48.898zm-1.212-50.351 1.19 49.27.57.489-1.191-49.285zm-1.227-50.731 1.198 49.657.569.475-1.198-49.672zm-1.235-51.148 1.206 50.045.569.46-1.205-50.059zm-1.241-51.549 1.219 50.439.57.446-1.212-50.454zm-1.256-51.943 1.227 50.84.577.431-1.228-50.855-.576-.409m-1.264-52.382 1.234 51.25.577.409-1.234-51.264zm-1.27-52.79 1.248 51.658.577.395-1.242-51.673-.576-.38m-1.293-53.222 1.256 52.09.577.379-1.256-52.104-.585-.365m-1.285-53.623 1.263 52.491.585.365-1.264-52.506-.584-.343m-1.307-54.091 1.278 52.915.584.344-1.278-52.93zm-1.315-54.521 1.285 53.367.585.329-1.286-53.382zm-1.322-54.945 1.3 53.784.584.314-1.329-54.997-.592-.292m-1.329-55.427 1.33 55.427.591.292-1.33-55.442zM86.012 43.13l.014.584 1.322 54.668.592.277-1.315-54.69-.014-.584-.592-.255"/><path fill="url(#i)" d="m84.468 960.175 1.22 46.825.014.52.533.53-.014-.52-1.213-46.829-.533-.519m-1.256-48.218 1.227 47.174.533.519-1.227-47.189-.533-.512m-1.264-48.576 1.234 47.554.534.504-1.235-47.569-.54-.496m-1.264-48.927 1.242 47.897.54.497-1.241-47.912zM79.4 765.117l1.256 48.262.54.482-1.256-48.277zm-1.293-49.709 1.264 48.635.54.468-1.263-48.65zm-1.3-50.073 1.271 49.014.54.453-1.27-49.029zm-1.314-50.476 1.285 49.395.548.438-1.286-49.409zm-1.323-50.877 1.293 49.774.548.424-1.293-49.789zm-1.329-51.25 1.308 50.169.547.409-1.3-50.183-.547-.395m-1.352-51.68 1.315 50.563.548.394-1.315-50.577zm-1.35-52.075 1.321 50.957.548.38-1.322-50.972-.555-.365m-1.359-52.499 1.337 51.381.555.358-1.337-51.395zm-1.373-52.885 1.344 51.768.555.343-1.344-51.79-.555-.328m-1.387-53.324 1.358 52.184.555.329-1.35-52.199-.556-.314M64.624 196.5l1.366 52.622.555.314-1.366-52.637-.563-.299m-1.402-54.172 1.38 53.025.563.299-1.417-54.229-.562-.278M61.79 87.697l1.388 53.448.562.278-1.417-54.646-.562-.263m-1.417-54.463.014.577 1.403 53.886.562.263-1.395-53.9-.015-.578-.562-.24"/><path fill="url(#j)" d="m60.906 937.197 1.286 46.254.014.511.519.519-.015-.511-1.285-46.269zm-1.322-47.627 1.293 46.597.519.504-1.293-46.611-.519-.497m-1.336-47.978 1.307 46.97.519.497-1.308-46.977-.526-.482m-1.329-48.328 1.315 47.298.526.482-1.315-47.313zm-1.358-48.716 1.322 47.656.526.468-1.322-47.671zm-1.366-49.073 1.337 48.022.525.452-1.336-48.036zm-1.373-49.438 1.344 48.386.526.439-1.344-48.402zm-1.38-49.833 1.358 48.759.526.424-1.351-48.774zm-1.403-50.212 1.366 49.131.533.409-1.366-49.146zm-1.402-50.578 1.373 49.511.533.395-1.373-49.526zm-1.417-50.994 1.388 49.891.533.38-1.388-49.906zm-1.431-51.388 1.395 50.278.533.365-1.395-50.293-.54-.35m-1.432-51.791 1.41 50.695.54.351-1.41-50.71zm-1.447-52.169 1.417 51.067.54.336-1.416-51.089-.54-.322m-1.461-52.601 1.431 51.469.54.322-1.43-51.484zm-1.476-53.017 1.447 51.9.54.307-1.439-51.914-.54-.285m-1.498-53.426 1.454 52.286.54.285-1.453-52.301-.548-.27m-1.49-53.865 1.468 52.703.548.271-1.497-53.88-.548-.255m-1.49-53.696.015.57 1.475 53.126.548.256-1.475-53.142-.015-.57-.548-.233"/><path fill="url(#k)" d="m37.983 914.842 1.351 45.699.015.504.51.511-.014-.504-1.35-45.714-.512-.503m-1.388-47.043 1.359 46.035.51.504-1.358-46.05-.518-.489m-1.395-47.401 1.373 46.393.518.489-1.365-46.407-.519-.475m-1.417-47.729 1.38 46.721.52.475-1.381-46.736zm-1.424-48.109 1.388 47.072.518.46-1.387-47.079-.519-.446m-1.432-48.467 1.403 47.423.518.445-1.402-47.437-.526-.438m-1.431-48.803 1.41 47.78.525.439-1.41-47.788-.525-.424m-1.454-49.204 1.424 48.138.526.424-1.424-48.153zm-1.468-49.57L28 577.019l.526.409-1.432-48.518zm-1.475-49.928 1.446 48.869.526.394-1.439-48.883-.526-.38m-1.49-50.329 1.454 49.241.526.38-1.454-49.256-.533-.365m-1.49-50.709 1.468 49.621.533.365-1.468-49.636zM20.6 326.446l1.476 50.023.533.351-1.476-50.038zm-1.519-51.476 1.49 50.388.533.329-1.49-50.403zm-1.534-51.899 1.497 50.775.534.314-1.498-50.79zM16 170.777l1.512 51.191.533.299-1.512-51.205-.54-.285m-1.549-52.689 1.527 51.571.54.285-1.519-51.586-.54-.27m-1.615-54.273 1.57 53.127.541.27-1.57-53.149zM11.273 10.87l.015.562 1.548 52.382.54.248-1.547-52.396-.015-.562z"/><path fill="url(#l)" d="m15.706 893.099 1.41 45.158.014.497.497.503-.015-.496-1.41-45.173-.503-.489m-1.446-46.488 1.424 45.487.504.489-1.417-45.494-.504-.475m-1.468-46.831 1.431 45.838.504.475-1.431-45.845-.504-.46m-1.475-47.16 1.438 46.152.504.46-1.438-46.166-.504-.453m-1.483-47.511 1.453 46.496.504.452-1.453-46.502-.504-.438m-1.497-47.876 1.46 46.839.504.438-1.46-46.846-.512-.423m-1.497-48.212 1.476 47.182.51.424-1.475-47.197zm-1.519-48.576 1.483 47.532.51.409-1.482-47.547zm-1.526-48.942 1.497 47.89.511.395-1.497-47.898-.511-.379m-1.542-49.3 1.505 48.248.511.38L2.757 462.6zM.697 412.556l1.52 48.613.51.365-1.519-48.62-.51-.351m-1.564-50.059 1.527 48.978.51.351-1.526-48.993-.518-.336m-1.57-50.439 1.54 49.365.52.336-1.542-49.38zm-1.585-50.797 1.555 49.723.519.322-1.548-49.738-.519-.307m-1.607-51.206 1.563 50.103.519.307-1.563-50.117zm-1.614-51.592 1.578 50.504.518.292-1.577-50.519zm-1.621-51.98 1.592 50.877.518.277-1.584-50.891zM-10.5 54.1l1.6 51.265.525.263-1.6-51.286zM-12.172.74l.015.555 1.614 51.666.526.241-1.614-51.68-.015-.555z"/><path fill="url(#m)" d="m-211.762-44.103.044 1 .205.089 17.419 8.1.409.19 17.872 8.303.423.197 18.34 8.524.431.204 18.836 8.75.438.205 19.34 8.99.453.205 19.866 9.239.475.22 20.413 9.487.482.219 20.998 9.757.482.227 21.597 10.042.504.234 22.225 10.327.526.241 22.86 10.627.54.248 23.555 10.949.548.255 24.27 11.277.562.263 25.015 11.627.592.278 25.789 11.978.606.285 26.614 12.372.621.285 27.469 12.767.636.299 28.374 13.183.672.314 29.302 13.614.694.322 30.303 14.088.343.161-.014-1.322-.344-.161-30.31-14.059-.694-.322-29.302-13.599-.672-.314-28.374-13.168-.636-.293-27.476-12.752-.613-.285-26.615-12.35-.613-.285-25.79-11.963-.591-.278-25.015-11.605-.562-.263-24.27-11.262-.548-.256-23.554-10.934-.541-.248-22.868-10.612-.525-.241-22.226-10.313-.503-.233L-54.872 28.7l-.482-.226-21.006-9.744-.482-.226-20.413-9.473-.468-.219-19.873-9.224-.453-.205-19.34-8.976-.438-.205-18.836-8.735-.431-.204-18.339-8.509-.424-.197-17.872-8.297-.409-.183-17.419-8.092z"/><path fill="url(#n)" d="m-209.645-.44.044.993.197.095 17.39 8.647.409.198 17.836 8.873.424.205 18.295 9.1.438.212 18.793 9.349.431.212 19.303 9.596.446.22 19.829 9.86.467.233 20.363 10.123.482.234 20.94 10.415.489.24 21.538 10.708.504.248 22.16 11.014.518.263 22.802 11.335.54.271 23.482 11.671.547.27 24.197 12.029.563.278 24.934 12.394.585.299 25.701 12.774.606.3 26.52 13.183.621.307 27.366 13.606.636.314 28.265 14.053.672.336 29.185 14.505.687.343 30.186 15.009.343.168-.015-1.308-.343-.168-30.186-14.987-.694-.343-29.185-14.49-.672-.329-28.265-14.03-.636-.322-27.374-13.584-.613-.307-26.527-13.169-.606-.299-25.702-12.759-.584-.293-24.942-12.379-.555-.278-24.197-12.014-.548-.271-23.488-11.656-.54-.27-22.795-11.314-.526-.263-22.16-10.999-.503-.248-21.539-10.7-.489-.241-20.947-10.393-.475-.241-20.37-10.108-.467-.234-19.822-9.845-.453-.22-19.296-9.582-.438-.212-18.792-9.334-.431-.212-18.303-9.085-.424-.212-17.843-8.852-.401-.205-17.39-8.632z"/><path fill="url(#o)" d="m-207.566 42.902.043.971.205.103 17.353 9.188.402.212 17.806 9.421.424.227 18.259 9.662.431.227 18.756 9.925.431.227 19.259 10.188.446.241 19.778 10.466.468.249 20.31 10.743.483.256 20.888 11.058.49.255 21.48 11.365.496.27 22.101 11.693.519.27 22.736 12.037.54.285 23.416 12.387.54.285 24.124 12.766.555.3 24.855 13.146.591.314 25.607 13.549.606.321 26.432 13.986.613.329 27.272 14.432.635.336 28.156 14.899.665.351 29.075 15.381.687.366 30.062 15.907.343.183-.015-1.271-.343-.183-30.062-15.885-.686-.365-29.083-15.367-.665-.351-28.155-14.885-.636-.336-27.272-14.41-.62-.328-26.425-13.965-.606-.321-25.614-13.534-.592-.314-24.854-13.132-.562-.299-24.117-12.745-.548-.292-23.415-12.373-.533-.285-22.737-12.014-.525-.278-22.101-11.678-.497-.263-21.48-11.357-.49-.256-20.888-11.043-.482-.248-20.318-10.737-.46-.248-19.786-10.451-.446-.242-19.252-10.173-.438-.234-18.756-9.911-.431-.227-18.259-9.648-.424-.226-17.806-9.407-.401-.212-17.354-9.173z"/><path fill="url(#p)" d="m-205.477 97.034.044.964.197.11 17.325 9.72.401.227 17.77 9.962.424.234 18.222 10.225.431.241 18.712 10.495.431.249 19.216 10.772.445.249 19.735 11.072.46.263 20.268 11.364.474.271 20.838 11.685.489.271 21.422 12.021.496.278 22.043 12.358.518.292 22.67 12.716.534.299 23.35 13.095.54.307 24.044 13.49.555.307L91.35 264.47l.584.328 25.526 14.323.606.336 26.337 14.775.614.343 27.169 15.243.636.35 28.053 15.74.664.372 28.959 16.244.687.379 29.938 16.799.343.19-.015-1.257-.343-.197-29.938-16.776-.686-.38-28.966-16.229-.665-.372-28.053-15.718-.628-.35-27.177-15.228-.614-.344-26.337-14.753-.606-.343-25.526-14.301-.592-.328-24.774-13.877-.555-.314-24.05-13.476-.541-.299-23.343-13.081-.54-.299-22.67-12.701-.519-.292-22.042-12.351-.497-.277-21.422-12.008-.489-.27-20.837-11.671-.475-.27-20.267-11.35-.468-.263-19.734-11.058-.446-.248-19.208-10.766-.439-.241-18.712-10.488-.431-.241-18.222-10.21-.416-.234-17.777-9.955-.402-.226-17.324-9.707z"/><path fill="url(#q)" d="m-203.406 142.218.044.972.197.117 17.295 10.247.394.233 17.741 10.51.416.249 18.186 10.772.431.256 18.668 11.058.438.255 19.165 11.358.446.263 19.683 11.656.467.278 20.217 11.978.474.277 20.787 12.314.482.285 21.37 12.657.497.3 21.976 13.015.519.306 22.605 13.395.533.314 23.277 13.79.54.321 23.97 14.198.556.329L92.66 318.55l.585.343 25.438 15.075.606.351 26.242 15.549.614.365 27.074 16.039.628.372 27.951 16.551.658.394 28.849 17.09.687.402 29.82 17.668.336.204-.014-1.278-.336-.197-29.828-17.646-.679-.409-28.85-17.068-.664-.395-27.951-16.535-.629-.373-27.081-16.024-.607-.358-26.249-15.527-.599-.358-25.446-15.053-.584-.351-24.693-14.614-.556-.329-23.977-14.183-.54-.314-23.278-13.775-.533-.314-22.605-13.38-.518-.307-21.977-13.001-.496-.299-21.37-12.643-.483-.285-20.786-12.299-.475-.285-20.223-11.956-.46-.277-19.691-11.65-.438-.263-19.173-11.342-.43-.256-18.676-11.05-.431-.256-18.186-10.758-.416-.248-17.741-10.496-.394-.233-17.295-10.233z"/><path fill="url(#r)" d="m-201.359 187.118.036.949.205.125 17.258 10.758.402.255 17.697 11.036.416.256 18.149 11.321.431.262 18.632 11.62.431.271 19.121 11.919.445.278 19.64 12.248.467.285 20.165 12.577.475.299 20.735 12.928.475.299 21.312 13.285.497.307 21.918 13.665.518.322 22.54 14.059.533.329 23.203 14.468.54.336 23.898 14.9.555.35L93.95 372.17l.584.365 25.358 15.805.599.38 26.154 16.309.606.373 26.98 16.827.628.387 27.842 17.361.664.416 28.733 17.916.686.424 29.697 18.522.343.212-.014-1.242-.344-.212-29.704-18.5-.679-.423-28.74-17.902-.657-.409-27.849-17.346-.628-.387-26.979-16.806-.607-.379-26.161-16.295-.599-.372-25.358-15.798-.585-.358L69.306 355.7l-.555-.343-23.898-14.885-.54-.336-23.21-14.454-.534-.328-22.54-14.045-.518-.321-21.918-13.651-.49-.307-21.319-13.278-.474-.299-20.735-12.913-.475-.299-20.173-12.555-.46-.293-19.639-12.233-.446-.278-19.128-11.912-.431-.27-18.632-11.606-.43-.262-18.15-11.307-.416-.262-17.697-11.022-.402-.248-17.258-10.751z"/><path fill="url(#s)" d="m-199.324 231.726.036.949.205.132 17.222 11.269.401.263 17.661 11.554.416.278 18.113 11.846.431.285 18.588 12.161.431.285 19.084 12.489.445.285 19.589 12.825.467.299 20.114 13.169.475.307 20.677 13.533.482.314 21.254 13.906.496.322 21.86 14.308.511.336 22.48 14.709.527.343 23.138 15.141.54.35 23.824 15.594.548.358 24.54 16.06.577.38 25.278 16.535.599.388 26.06 17.061.606.394 26.884 17.595.629.409 27.739 18.149.657.431 28.63 18.734.68.445 29.579 19.355.336.219-.014-1.227-.336-.219-29.587-19.34-.672-.445-28.638-18.712-.657-.431-27.739-18.135-.628-.409-26.885-17.58-.606-.394-26.067-17.04-.599-.394-25.27-16.521-.585-.38-24.54-16.039-.548-.358-23.824-15.578-.54-.351-23.139-15.126-.533-.35-22.473-14.688-.519-.343-21.86-14.286-.489-.321-21.26-13.899-.475-.314-20.684-13.519-.475-.307-20.114-13.154-.468-.299-19.595-12.811-.439-.292-19.084-12.475-.431-.277-18.595-12.153-.424-.285-18.113-11.839-.416-.271-17.667-11.547-.402-.263-17.222-11.262z"/><path fill="url(#t)" d="m-197.293 276.021.044.957.197.139 17.193 11.773.394.278 17.631 12.073.416.285 18.077 12.379.424.293 18.551 12.701.431.299 19.04 13.037.439.307 19.551 13.387.46.314 20.07 13.746.476.321 20.625 14.133.475.328 21.202 14.52.49.336L.694 412.556l.511.35 22.415 15.352.526.366 23.072 15.797.533.366 23.752 16.265.555.38 24.452 16.754.585.395 25.19 17.251.592.409 25.979 17.791.598.417 26.79 18.346.621.424 27.644 18.931.65.453 28.521 19.53.679.467 29.463 20.18.336.227-.015-1.235-.336-.233-29.47-20.166-.672-.46-28.52-19.515-.658-.446-27.644-18.916-.621-.424-26.789-18.332-.607-.416-25.971-17.777-.599-.409-25.19-17.237-.578-.394-24.467-16.74-.547-.373-23.752-16.25-.533-.365-23.072-15.791-.533-.365-22.415-15.33-.512-.358-21.8-14.914-.49-.336-21.203-14.505-.474-.329-20.626-14.118-.475-.321-20.07-13.731-.46-.321-19.552-13.373-.438-.3-19.041-13.03-.431-.299-18.551-12.694-.431-.292-18.076-12.365-.417-.285-17.623-12.065-.402-.271-17.193-11.766z"/><path fill="url(#u)" d="m-195.297 320.049.044.949.197.139 17.164 12.277.394.285 17.595 12.584.416.293 18.033 12.898.43.307 18.508 13.241.431.307 18.997 13.585.438.314 19.508 13.95.46.328 20.02 14.315.467.336 20.574 14.717.482.343 21.144 15.119.49.351L2.23 462.236l.511.365 22.35 15.988.532.372 23 16.455.533.38 23.678 16.937.548.387 24.38 17.441.576.409 25.11 17.96.592.424 25.891 18.514.599.431 26.695 19.092.621.446 27.535 19.69.657.468 28.411 20.318.672.482 29.346 20.991.336.241-.015-1.227-.336-.241-29.353-20.976-.672-.475-28.411-20.304-.65-.467-27.542-19.676-.621-.446-26.695-19.077-.599-.431-25.891-18.493-.592-.431-25.11-17.937-.576-.409-24.387-17.427-.548-.394-23.678-16.915-.534-.387-23.006-16.434-.526-.379-22.349-15.966-.511-.373-21.743-15.527-.49-.351-21.143-15.111-.483-.343-20.574-14.702-.467-.336-20.027-14.308-.46-.329-19.501-13.935-.438-.314-18.997-13.57-.431-.307-18.514-13.234-.424-.3-18.04-12.891-.416-.292-17.595-12.577-.394-.285-17.164-12.262z"/><path fill="url(#v)" d="m526.036-137.59-.277-.073.81-.059.278.073 36.511-2.52 24.679 6.223.387-.029.57.146-.387.029 25.263 6.369.394-.029.592.153-.395.029 25.855 6.515.395-.029.613.153-.394.03 26.49 6.675.402-.029.613.153-.401.03 27.133 6.836.401-.029.628.16-.401.029 27.805 7.012.409-.03.657.169-.409.029 28.491 7.18.409-.03.672.168-.409.03 29.23 7.369.416-.03.679.168-.416.03 29.981 7.559.416-.037.694.176-.416.036 30.756 7.75.423-.037.723.183-.423.036 31.559 7.954.423-.037.745.19-.423.037 32.413 8.172.431-.036.752.19-.431.036 33.29 8.392.431-.036.775.197-.431.036 34.21 8.626.438-.037.811.205-.438.036 35.142 8.86.44-.037.83.212-.43.037 36.15 9.114.44-.043.84.211-.44.044 37.19 9.37.44-.043.87.22-.46.043 38.27 9.648.46-.044.9.227-.45.043 39.38 9.926.46-.044.93.234-.46.044 40.58 10.225-43.47 4.287.46.117-.97.095-.46-.117-44.02 4.338.45.117-.98.095-.45-.117-44.59 4.397.44.124-.97.095-.44-.124-45.19 4.455.44.124-.98.095-.45-.124-45.754 4.514.438.124-1.015.102-.438-.124-46.356 4.572.431.124-1.016.103-.431-.124-46.984 4.63.431.124-1.03.102-.431-.124-47.59 4.697.424.131-1.06.102-.423-.131-48.226 4.754.416.132-1.073.11-.417-.132-48.876 4.82.409.132-1.066.102-.409-.131-49.533 4.886.401.131-1.102.11-.402-.132-50.205 4.952.401.139-1.117.11-.402-.14-50.899 5.018.395.14-1.111.109-.394-.14-51.6 5.091.387.14-1.147.116-.387-.139-52.323 5.164.38.139-1.169.117-.38-.14-53.053 5.23.372.146-1.161.117-.372-.146-53.821 5.31.365.146-1.176.117-.365-.146-54.565 5.383.358.146-1.213.116-.358-.146-55.347 5.456-30.441-13.124-.606.058-.694-.299.606-.059-29.434-12.694-.599.059-.672-.292.599-.059-28.491-12.284-.592.058-.642-.278.591-.058-27.586-11.89-.584.05-.621-.27.585-.05-26.717-11.518-.577.05-.614-.262.577-.051-25.884-11.16-.57.05-.591-.255.57-.05-25.11-10.825-.563.051-.562-.24.562-.052-24.357-10.503-.555.044-.548-.233.555-.044-23.642-10.196-.548.044-.54-.234.548-.044L-10.737.53l-.548.044-.526-.227.548-.044-22.298-9.611-.54.044-.504-.22.54-.043-21.662-9.342-.534.044-.489-.212.533-.043-21.064-9.079-.525.044-.482-.212.525-.044-20.472-8.83-.518.037-.468-.205.519-.036-19.932-8.597-.511.037-.453-.197.511-.037-19.398-8.363-.511.037-.438-.19.511-.036-18.887-8.144-.504.037-.439-.19.504-.037-18.383-7.924-.497.036-.423-.182.497-.037-17.924-7.727-.489.036-.402-.175.49-.037-17.485-7.537 43.851-3.024-.205-.087.964-.066.205.088 43.384-2.995-.212-.087.935-.066.211.088 42.946-2.959-.22-.08.928-.066.22.08 42.477-2.928-.219-.08.935-.066.22.08L5.593-101.7l-.227-.081.928-.065.226.08 41.602-2.87-.234-.081.898-.058.234.08 41.17-2.841-.233-.08.906-.066.233.08 40.755-2.811-.241-.081.898-.058.241.08 40.338-2.783-.248-.08.869-.058.248.08 39.929-2.754-.248-.08.876-.058.249.08 39.527-2.724-.256-.081.869-.058.256.08 39.126-2.695-.256-.073.847-.058.256.073 38.753-2.673-.263-.073.833-.059.263.073 38.351-2.644-.263-.073.84-.058.263.073 37.971-2.615-.27-.073.818-.058.27.073 37.614-2.593-.27-.073.811-.058.27.073 37.227-2.564-.278-.073.818-.058.278.073 36.868-2.542m37.541-2.775-777.815 53.616 473.056 204.136 954.172-94.151z"/><path fill="url(#w)" d="m282.831 98.267-54.639 5.273-.606.059.694.299.606-.058 54.66-5.28-.715-.3m55.084-5.31-53.879 5.2.715.3 53.901-5.208-.73-.292m54.317-5.244-53.163 5.134.73.292 53.178-5.134zm53.558-5.171-52.411 5.061.745.285 52.425-5.061zm52.849-5.105-51.703 4.995.76.285 51.717-4.995-.774-.278m52.14-5.047-51.001 4.923.774.277 51.016-4.93-.789-.277m51.418-4.952-50.315 4.857.789.278 50.329-4.865zm50.753-4.9-49.65 4.79.803.27 49.658-4.798-.811-.27m50.081-4.828-48.993 4.733.811.27 49-4.733-.825-.262m49.409-4.784-48.343 4.667.825.263 48.358-4.675-.84-.263m48.781-4.703-47.715 4.608.84.263 47.729-4.608-.847-.263m48.131-4.645-47.094 4.55.847.263 47.109-4.55-.862-.256m47.525-4.594-46.51 4.492.862.255 46.517-4.491zm46.897-4.528-45.897 4.433.87.256 45.903-4.434-.884-.248m46.327-4.484-45.312 4.375.884.248 45.319-4.375zm45.73-4.412-44.758 4.324.891.248 44.767-4.323-.91-.241m45.14-4.368-44.17 4.265.91.241 44.18-4.265-.91-.241m44.59-4.31-43.62 4.215.91.241 43.63-4.214zm44.49-4.294-.46.044-43.07 4.163.92.241 43.09-4.163.46-.044-.93-.233"/><path fill="url(#x)" d="m252.039 85.462-53.952 5.105-.599.059.672.292.599-.059 53.967-5.105-.687-.285m54.398-5.156-53.215 5.032.694.285 53.229-5.04-.708-.285m53.659-5.068-52.513 4.966.709.285 52.527-4.974zm52.923-5.003-51.79 4.9.723.278 51.797-4.9-.738-.278m52.236-4.937-51.096 4.835.737.277 51.104-4.835-.752-.27m51.549-4.886-50.417 4.769.752.27 50.424-4.77zm50.833-4.806-49.752 4.703.766.27 49.76-4.71zm50.191-4.748-49.095 4.646.774.263 49.109-4.646zm49.533-4.688-48.46 4.579.789.263 48.467-4.587-.803-.255m48.883-4.624-47.832 4.521.804.256 47.838-4.528-.81-.256m48.262-4.557-47.218 4.462.811.256 47.225-4.47-.825-.248m47.656-4.507-46.612 4.412.826.248 46.619-4.411zm47.043-4.448-46.035 4.353.833.249 46.049-4.36-.847-.249m46.429-4.382-45.436 4.294.847.249 45.451-4.302-.855-.241m45.86-4.338-44.866 4.243.854.24 44.881-4.242zm45.297-4.288-44.326 4.192.869.242 44.341-4.193-.877-.233m44.714-4.236-43.764 4.14.876.234 43.768-4.14zm44.18-4.178-43.22 4.09.88.233 43.23-4.09-.9-.233m44.1-4.17-.45.043-42.69 4.04.9.233 42.7-4.04.45-.043-.9-.226"/><path fill="url(#y)" d="M222.239 73.061 168.959 78l-.592.058.643.278.592-.059 53.294-4.944zm53.733-4.98-52.565 4.87.658.271 52.579-4.872zm53.009-4.909-51.877 4.806.672.27 51.892-4.813zm52.294-4.85-51.176 4.74.686.264 51.184-4.748-.701-.263m51.63-4.776L382.4 58.22l.701.263 50.512-4.681-.715-.256m50.95-4.725-49.84 4.615.715.256 49.848-4.623-.723-.256m50.263-4.652-49.19 4.557.723.256 49.205-4.565-.738-.255m49.636-4.595-48.555 4.5.738.255 48.569-4.506zm49-4.542-47.934 4.44.752.249 47.942-4.448-.76-.249m48.357-4.47-47.32 4.383.76.248 47.334-4.39zm47.759-4.433-46.722 4.331.775.241 46.736-4.33zm47.159-4.367-46.129 4.272.788.241 46.145-4.28-.796-.233m46.568-4.317-45.575 4.222.796.233 45.582-4.228-.803-.234m45.969-4.25-44.991 4.17.804.233 44.997-4.17-.818-.234m45.429-4.214-44.435 4.12.818.233 44.442-4.12-.825-.226m44.866-4.163-43.909 4.068.825.227 43.917-4.076-.84-.226M1003.16.69l-43.356 4.017.84.226L1004.01.909zm43.78-4.061L1004.11.602l.84.219 42.84-3.973zm43.69-4.046-.44.043-42.31 3.922.85.22 42.32-3.923.45-.043-.86-.22"/><path fill="url(#z)" d="m193.375 61.06-52.623 4.784-.584.051.621.27.584-.05 52.637-4.785-.635-.262m53.083-4.828-51.922 4.718.636.263 51.936-4.718zm52.381-4.762-51.264 4.66.65.262 51.272-4.66-.665-.255m51.681-4.703-50.571 4.594.665.255 50.585-4.601-.679-.256m51.03-4.63-49.92 4.535.679.256 49.928-4.536-.694-.248m50.373-4.58-49.27 4.478.694.248 49.285-4.477-.702-.248m49.702-4.521-48.643 4.418.702.249 48.656-4.419zm49.095-4.456-48.022 4.36.716.25 48.036-4.368zm48.474-4.404-47.415 4.31.73.24 47.43-4.309-.738-.24m47.832-4.346-46.824 4.25.738.241 46.831-4.257-.753-.234m47.277-4.295-46.239 4.2.752.233 46.246-4.206-.759-.234m46.677-4.236-45.662 4.148.76.234 45.677-4.148zm46.108-4.185-45.122 4.097.775.227 45.129-4.105-.782-.226m45.524-4.134-44.552 4.046.781.226 44.56-4.046-.796-.226m44.99-4.083-44.004 3.995.796.226L878.39-.882zM922.03-5.14l-43.494 3.951.804.22 43.5-3.952zm43.887-3.988-42.953 3.9.811.22 42.96-3.908-.818-.22m43.373-3.936-42.431 3.857.818.219 42.453-3.857-.84-.211m43.31-3.937-.44.044-41.93 3.812.83.212 41.94-3.812.44-.044z"/><path fill="url(#A)" d="m165.401 49.426-51.98 4.63-.577.052.613.263.577-.051 51.995-4.63zm52.44-4.674-51.301 4.572.628.263 51.316-4.572-.643-.256m51.761-4.616-50.658 4.514.642.256 50.666-4.514-.658-.256m51.082-4.55-49.986 4.455.657.256 50.001-4.455-.672-.249m50.446-4.506-49.343 4.397.672.248 49.358-4.397-.679-.248m49.796-4.433-48.723 4.338.679.248 48.73-4.345-.694-.249m49.161-4.374-48.102 4.287.694.248 48.117-4.287-.709-.241m48.562-4.331-47.503 4.229.709.24 47.517-4.235-.716-.241m47.949-4.266-46.911 4.178.723.24 46.925-4.184-.73-.234m47.335-4.221-46.327 4.126.73.234 46.342-4.134-.745-.234m46.78-4.155-45.765 4.075.745.234 45.772-4.083-.752-.234m46.21-4.112-45.202 4.025.752.226 45.209-4.032-.766-.226m45.655-4.06-44.67 3.98.767.226 44.684-3.98-.774-.227m45.063-4.017-44.114 3.93.775.226 44.121-3.937zm44.552-3.966-43.58 3.886.781.219 43.596-3.885zm44.027-3.922-43.084 3.835.796.219 43.091-3.842-.803-.219m43.478-3.87-42.551 3.79.804.219 42.565-3.79-.81-.213m42.982-3.834-42.055 3.747.811.212 42.062-3.747zm42.926-3.82-.44.037-41.559 3.703.818.211L1016-26.072l.44-.036-.83-.212"/><path fill="url(#B)" d="m138.285 38.153-51.344 4.484-.57.051.592.256.57-.051 51.359-4.492-.607-.256m51.82-4.52-50.688 4.433.607.255 50.701-4.433-.62-.248m51.154-4.477L191.2 33.53l.621.248 50.074-4.375zm50.483-4.412-49.409 4.317.635.248 49.424-4.324zm49.877-4.36-48.789 4.265.65.241 48.803-4.265zm49.248-4.302-48.175 4.214.665.241 48.189-4.214-.672-.233m48.613-4.258-47.576 4.155.672.234 47.591-4.163-.687-.234m48.036-4.192-46.991 4.105.686.233 46.999-4.112-.701-.233m47.452-4.142-46.415 4.054.701.234 46.429-4.061-.708-.227m46.845-4.09-45.844 4.01.708.226 45.86-4.01zm46.298-4.046L582.821-.695l.723.226 45.305-3.958zm45.743-4.002L629.112-4.75l.73.227 44.757-3.915-.745-.22m45.202-3.95-44.231 3.863.745.22 44.238-3.872-.752-.219m44.64-3.893-43.683 3.82.752.22 43.698-3.82-.76-.22m44.121-3.856-43.164 3.776.759.22 43.179-3.777-.774-.212m43.61-3.82-42.675 3.733.774.211 42.69-3.732-.781-.212m43.076-3.76-42.164 3.688.782.211 42.171-3.688zm42.595-3.726-41.667 3.645.789.212 41.682-3.645-.796-.204m42.536-3.725-.438.036-41.186 3.601.797.204 41.199-3.6.439-.037z"/><path fill="url(#C)" d="m112.004 27.216-50.73 4.353-.563.051.562.241.563-.05 50.745-4.354zm51.199-4.39-50.088 4.295.577.241 50.102-4.301-.591-.241m50.563-4.332-49.482 4.244.591.24 49.497-4.242-.606-.234m49.913-4.287L214.832 18.4l.606.234 48.862-4.193zm49.314-4.23-48.24 4.135.62.233 48.256-4.14L313 9.98m48.701-4.178-47.642 4.083.629.226 47.656-4.09-.643-.226m48.087-4.12-47.064 4.04.642.226 47.072-4.04-.657-.225M457.313-2.4l-46.488 3.988.658.226 46.502-3.988-.665-.219m46.941-4.031-45.926 3.936.665.22 45.94-3.944-.679-.22m46.363-3.973-45.377 3.893.679.22 45.385-3.894zm45.831-3.93-44.837 3.843.686.219 44.844-3.85-.701-.211m45.297-3.886-44.296 3.798.701.212 44.311-3.805-.708-.212m44.742-3.827L642.701-18.3l.709.212 43.807-3.761-.716-.212m44.202-3.784-43.267 3.71.716.213 43.274-3.71-.731-.205m43.713-3.754-42.756 3.666.73.205 42.771-3.667-.738-.204m43.201-3.71-42.281 3.63.738.204 42.288-3.63zm42.682-3.66-41.776 3.586.745.205 41.784-3.586-.753-.197m42.215-3.63-41.294 3.542.752.197 41.302-3.542-.767-.197m42.171-3.616-.431.037-40.827 3.498.767.197 40.835-3.505.43-.037-.774-.197"/><path fill="url(#D)" d="M86.492 16.613 36.36 20.834l-.555.044.547.234.556-.044 50.146-4.222zm50.607-4.266-49.504 4.17.562.234 49.519-4.17zm49.979-4.207-48.913 4.12.577.233 48.927-4.119-.591-.226m49.35-4.163-48.291 4.068.591.226 48.306-4.068-.598-.226M285.195-.12l-47.7 4.017.599.226L285.808.106l-.613-.219m48.167-4.06L286.239-.209l.614.22 47.137-3.974-.628-.219m47.576-4.002-46.553 3.922.628.219 46.568-3.922-.636-.22m47.014-3.958L381.961-8.27l.635.22 46.006-3.88-.65-.21m46.465-3.908-45.45 3.827.65.212 45.458-3.828zm45.889-3.864-44.91 3.783.657.212 44.918-3.783-.672-.212m45.377-3.82-44.384 3.74.672.211 44.391-3.739-.679-.204m44.83-3.784-43.858 3.696.679.204 43.873-3.695-.687-.205m44.311-3.732-43.369 3.652.687.204 43.376-3.651-.701-.205m43.793-3.688-42.851 3.608.701.204 42.858-3.608-.708-.197m43.296-3.652-42.354 3.564.708.198 42.361-3.565zm42.799-3.6-41.886 3.527.715.197 41.894-3.527zM827-45.74l-41.397 3.484.731.197 41.404-3.49-.738-.198m41.836-3.513-40.923 3.447.738.197 40.929-3.447-.744-.19m41.791-3.527-.431.036-40.462 3.404.745.19 40.469-3.411.431-.037-.752-.19"/><path fill="url(#E)" d="m61.717 6.31-49.54 4.097-.548.043.54.234.548-.044 49.555-4.097zm50.023-4.135L62.806 6.222l.555.233L112.31 2.41l-.57-.226m49.416-4.098L112.799 2.08l.57.227 48.364-4.003-.584-.226m48.803-4.024-47.751 3.944.584.226 47.766-3.951-.592-.227m48.219-3.98-47.174 3.9.591.22 47.189-3.901zm47.649-3.937-46.612 3.857.606.219 46.626-3.857zm47.057-3.893-46.057 3.806.621.219 46.071-3.813-.628-.212m46.524-3.841-45.516 3.761.628.212 45.524-3.769-.643-.212m45.984-3.797-44.976 3.717.643.212 44.99-3.718-.65-.211m45.414-3.755-44.45 3.674.65.212 44.465-3.681zm44.917-3.71-43.938 3.63.664.205 43.946-3.638-.672-.204m44.392-3.666-43.427 3.593.671.204 43.435-3.593zm43.88-3.63-42.945 3.55.679.204 42.953-3.55-.694-.197m43.376-3.593L624.93-40.26l.694.197 42.448-3.513-.701-.197m42.887-3.535-41.959 3.47.701.197 41.967-3.47zm42.405-3.505-41.499 3.432.708.197 41.507-3.432-.723-.197m41.923-3.47-41.018 3.39.723.196 41.025-3.396zm41.462-3.425-40.557 3.352.731.19 40.564-3.352zm41.419-3.426-.423.037-40.112 3.316.738.19 40.119-3.316.423-.037z"/><path fill="url(#F)" d="M37.672-3.694-11.292.279l-.548.044.526.226.548-.044 48.978-3.98-.54-.227m49.452-4.01-48.372 3.93.54.226L87.68-7.485l-.556-.22m48.854-3.972-47.81 3.885.556.22 47.824-3.886-.562-.22m48.248-3.921-47.218 3.834.562.22 47.233-3.835zm47.692-3.871-46.663 3.79.577.22 46.671-3.791-.592-.212m47.145-3.834-46.108 3.746.592.212 46.122-3.747-.599-.211m46.561-3.784-45.567 3.703.598.212 45.583-3.703zm46.042-3.74-45.034 3.66.613.212 45.049-3.66-.621-.204m45.495-3.703L372.66-30.9l.621.205 44.523-3.615-.636-.205m44.969-3.652-44.004 3.572.635.204 44.012-3.578-.643-.205m44.472-3.6-43.501 3.534.643.205 43.508-3.535-.658-.197m43.961-3.58-43.004 3.492.658.197 43.011-3.49zm43.464-3.527-42.529 3.455.665.197 42.543-3.455-.672-.197m42.946-3.49-42.04 3.41.672.197 42.047-3.418-.679-.197m42.492-3.44-41.565 3.374.687.19 41.572-3.374zm42.011-3.411-41.12 3.338.694.19 41.127-3.338zm41.536-3.374-40.645 3.301.701.19 40.652-3.301zm41.09-3.338-40.199 3.265.708.19 40.207-3.265-.716-.183m41.068-3.345-.423.037-39.761 3.228.715.183 39.769-3.229.423-.036z"/><path fill="url(#G)" d="m526.549-137.715-.811.058.285.066 24.372 6.281.563.146 24.956 6.435.585.146 25.54 6.58.607.161 26.169 6.741.606.154 26.811 6.909.621.161 27.476 7.077.65.168 28.163 7.26.665.168 28.893 7.45.665.167 29.638 7.64.686.175 30.413 7.837.723.183 31.208 8.04.731.19 32.063 8.261.745.19 32.932 8.487.759.197 33.845 8.72.796.205 34.78 8.962.818.212 35.778 9.217.84.219 36.81 9.48.85.22 37.88 9.764.9.234 39 10.042.92.241 40.18 10.35.46.124.97-.095-.46-.124-40.2-10.35-.92-.233-39-10.05-.9-.227-37.89-9.765-.85-.219-36.82-9.48-.83-.212-35.79-9.217-.825-.212-34.78-8.961-.804-.205-33.845-8.713-.767-.197-32.939-8.487-.745-.19-32.063-8.26-.738-.19-31.215-8.041-.723-.183-30.42-7.837-.687-.175-29.645-7.632-.665-.176-28.9-7.442-.665-.168-28.17-7.26-.65-.16-27.484-7.085-.62-.161-26.819-6.902-.607-.16-26.183-6.742-.599-.153-25.548-6.581-.584-.153-24.964-6.427-.563-.146-24.379-6.274z"/><path fill="url(#H)" d="m488.888-135.115-.818.051.278.073 24.058 6.347.562.146 24.636 6.493.577.146 25.219 6.646.592.161 25.847 6.807.599.16 26.483 6.983.614.16 27.14 7.15.643.169 27.819 7.332.657.176 28.543 7.522.665.176 29.287 7.72.68.175 30.054 7.924.708.183 30.851 8.129.73.197 31.691 8.348.737.197 32.56 8.582.752.197 33.473 8.823.789.205 34.393 9.063.818.22 35.393 9.326.818.22L1003.16.687l.84.22 37.5 9.881.88.234 38.59 10.174.92.241 39.78 10.48.45.125.98-.102-.45-.117-39.79-10.48-.92-.242-38.6-10.167-.89-.233L1004.96.82l-.85-.22-36.432-9.596-.818-.22-35.401-9.326-.818-.212-34.4-9.064-.789-.204-33.479-8.823-.753-.197-32.574-8.582-.73-.19-31.705-8.348-.731-.197-30.85-8.129-.709-.183-30.069-7.917-.679-.182-29.295-7.72-.664-.168-28.55-7.523-.658-.175-27.827-7.333-.642-.168-27.148-7.15-.613-.161-26.491-6.975-.599-.161-25.855-6.807-.591-.16-25.227-6.647-.577-.153-24.642-6.486-.555-.146-24.073-6.339z"/><path fill="url(#I)" d="m450.842-132.495-.811.051.27.073 23.745 6.405.547.146 24.314 6.559.57.153 24.891 6.712.584.161 25.512 6.88.591.161 26.14 7.047.606.169 26.804 7.223.629.175 27.468 7.406.651.175 28.192 7.603.65.176 28.929 7.8.672.183 29.69 8.012.701.182 30.478 8.224.723.19 31.318 8.45.723.198 32.187 8.676.745.205 33.078 8.917.782.212 34.005 9.174.804.219 34.999 9.436.81.22 36.015 9.713.84.226 37.08 9.999.877.241 38.179 10.298.91.241 39.36 10.62.45.117.97-.095-.45-.125-39.37-10.612-.9-.24-38.193-10.299-.876-.234-37.095-9.998-.833-.227-36.029-9.714-.81-.219-35.007-9.436-.803-.212-34.013-9.173-.782-.212-33.085-8.918-.752-.204-32.188-8.677-.73-.19-31.325-8.45-.716-.19-30.485-8.217-.701-.19-29.704-8.012-.672-.175-28.93-7.8-.657-.175-28.2-7.603-.642-.176-27.484-7.406-.628-.175-26.812-7.223-.606-.16-26.147-7.056-.592-.154-25.518-6.88-.585-.16-24.898-6.712-.57-.154-24.321-6.551-.547-.153-23.745-6.398z"/><path fill="url(#J)" d="m412.419-129.849-.825.059.27.073 23.415 6.471.541.146 23.978 6.624.562.153 24.555 6.778.577.161 25.168 6.953.585.161 25.796 7.12.592.169 26.446 7.303.628.168 27.111 7.494.643.175 27.827 7.683.643.176 28.557 7.888.664.182 29.317 8.1.687.19 30.098 8.312.708.197 30.939 8.538.715.204 31.786 8.78.738.196 32.683 9.028.774.211 33.597 9.283.796.22L877.58-1.1l.804.219 35.598 9.83.832.227 36.657 10.13.869.241 37.76 10.422.891.249 38.929 10.75.45.125.98-.095-.44-.124-38.94-10.751-.898-.249-37.76-10.422-.869-.241-36.672-10.123-.825-.226-35.613-9.83-.803-.22-34.598-9.553-.796-.22-33.611-9.275-.767-.212-32.691-9.02-.738-.204-31.8-8.78-.715-.196-30.939-8.546-.715-.19-30.106-8.311-.686-.19-29.332-8.092-.657-.19-28.572-7.88-.643-.176-27.834-7.684-.635-.182-27.126-7.486-.621-.168-26.454-7.304-.599-.16-25.803-7.129-.585-.161-25.168-6.946-.584-.16-24.555-6.778-.57-.153-23.977-6.625-.548-.146-23.423-6.464z"/><path fill="url(#K)" d="m373.636-127.169-.847.059.27.073 23.08 6.529.533.154 23.635 6.683.555.16 24.204 6.851.577.161 24.81 7.018.577.161 25.439 7.202.591.168 26.082 7.376.613.175 26.746 7.567.628.175 27.455 7.771.635.176 28.177 7.975.658.183 28.929 8.187.687.198 29.704 8.399.701.204 30.537 8.633.701.204 31.391 8.882.723.204 32.275 9.13.766.219 33.181 9.385.789.227 34.166 9.662.789.227 35.174 9.955.818.226 36.226 10.254.862.241 37.314 10.561.884.249 38.483 10.89.438.123 1.023-.102-.439-.124-38.497-10.89-.884-.248-37.329-10.554-.854-.24-36.241-10.248-.81-.233-35.189-9.948-.789-.226-34.174-9.663-.789-.22-33.195-9.392-.759-.212-32.282-9.13-.731-.204-31.398-8.88-.709-.198-30.536-8.64-.701-.197-29.719-8.407-.679-.19-28.944-8.187-.65-.183-28.192-7.968-.636-.183-27.461-7.763-.628-.183-26.754-7.56-.613-.174-26.096-7.385-.584-.16-25.446-7.201-.577-.161-24.825-7.019-.57-.161-24.212-6.851-.555-.153-23.649-6.69-.533-.146-23.087-6.53z"/><path fill="url(#L)" d="m334.438-124.475-.84.058.263.081 22.736 6.595.526.153 23.291 6.749.548.161 23.853 6.916.563.168 24.452 7.092.57.168 25.066 7.267.584.168 25.709 7.464.606.176 26.367 7.647.628.175 27.067 7.851.628.183 27.79 8.063.643.19 28.535 8.275.672.197 29.302 8.494.694.205 30.128 8.735.694.204 30.974 8.984.716.204 31.851 9.24.753.219 32.764 9.502.774.226 33.728 9.787.782.226 34.736 10.072.803.234 35.781 10.378.847.249 36.861 10.692.877.248 38.022 11.029.431.131 1.016-.102-.439-.124-38.03-11.029-.876-.255-36.869-10.685-.847-.249-35.788-10.37-.811-.235-34.743-10.071-.782-.234-33.742-9.78-.774-.226-32.765-9.495-.752-.219-31.858-9.239-.723-.204-30.975-8.984-.701-.204-30.135-8.736-.694-.197-29.309-8.501-.672-.19-28.55-8.275-.643-.19-27.798-8.056-.628-.183-27.074-7.85-.621-.184-26.381-7.646-.606-.176-25.716-7.457-.584-.168-25.081-7.267-.563-.168-24.467-7.092-.562-.16-23.861-6.917-.548-.161-23.291-6.748-.526-.153-22.743-6.596z"/><path fill="url(#M)" d="m294.863-121.738-.847.059.263.08 22.378 6.661.518.153 22.934 6.822.54.161 23.489 6.989.555.161 24.087 7.172.555.16 24.701 7.355.57.168 25.329 7.538.599.175 25.979 7.735.613.182 26.673 7.932.621.182 27.389 8.151.635.19 28.126 8.37.665.197 28.893 8.597.68.204 29.703 8.838.694.204 30.544 9.086.708.212 31.413 9.348.745.22 32.319 9.618.76.227 33.282 9.904.774.233 34.276 10.196.796.234 35.321 10.51.84.248 36.387 10.831.861.256 37.548 11.175.431.124 1.023-.102-.424-.125-37.562-11.167-.862-.256-36.402-10.83-.832-.25-35.328-10.502-.796-.24-34.291-10.197-.774-.226-33.29-9.904-.767-.226-32.326-9.612-.737-.219-31.428-9.349-.708-.211-30.559-9.086-.686-.205-29.711-8.837-.687-.205-28.9-8.589-.665-.197-28.134-8.37-.635-.19-27.396-8.143-.621-.19-26.68-7.932-.613-.182-25.987-7.728-.599-.175-25.343-7.537-.57-.176-24.708-7.34-.555-.168-24.095-7.165-.555-.168-23.496-6.982-.54-.168-22.941-6.814-.519-.161-22.393-6.653z"/><path fill="url(#N)" d="m254.889-118.987-.869.066.255.073 22.021 6.726.511.161 22.561 6.887.533.168 23.116 7.056.548.168 23.707 7.245.548.168 24.314 7.42.562.176 24.942 7.617.592.176 25.577 7.814.606.19 26.272 8.02.606.19 26.979 8.238.628.19 27.71 8.465.65.197 28.47 8.699.672.204 29.273 8.94.679.204 30.098 9.196.702.212 30.967 9.465.738.22 31.858 9.735.752.226 32.823 10.028.76.234 33.808 10.32.789.241 34.838 10.641.826.256 35.912 10.963.847.263 37.051 11.32.424.125 1.059-.103-.424-.131-37.066-11.314-.847-.255-35.919-10.97-.826-.249-34.845-10.641-.789-.241-33.816-10.32-.767-.234-32.83-10.02-.752-.234-31.873-9.728-.73-.22-30.982-9.458-.702-.212-30.112-9.195-.68-.204-29.28-8.94-.672-.205-28.477-8.69-.657-.205-27.717-8.458-.621-.197-26.987-8.239-.614-.182-26.278-8.02-.606-.19-25.592-7.807-.585-.183-24.949-7.61-.562-.175-24.321-7.428-.548-.16-23.722-7.246-.541-.168-23.123-7.055-.533-.161-22.576-6.895-.511-.153-22.028-6.727z"/><path fill="url(#O)" d="m214.498-116.196-.877.058.248.081 21.656 6.792.504.161 22.188 6.96.519.161 22.736 7.135.54.168 23.321 7.319.54.168 23.92 7.508.547.168 24.541 7.705.584.183 25.168 7.895.599.19 25.855 8.107.599.19 26.556 8.333.613.19 27.28 8.56.65.204 28.024 8.794.664.204 28.828 9.05.664.211 29.653 9.298.687.22L581.819-.61l.723.227 31.391 9.845.745.234 32.341 10.152.752.233 33.327 10.46.774.24 34.349 10.773.81.256 35.408 11.109.84.262 36.548 11.467.416.132 1.074-.103-.417-.131-36.562-11.467-.832-.263-35.423-11.101-.81-.256-34.364-10.773-.774-.248-33.334-10.452-.752-.233-32.356-10.145-.737-.234L583.55-.47l-.723-.226-30.522-9.575-.686-.212-29.66-9.305-.672-.212-28.835-9.042-.665-.204-28.038-8.794-.643-.205-27.294-8.552-.613-.197-26.564-8.326-.598-.19-25.87-8.107-.592-.19-25.182-7.895-.577-.183-24.548-7.698-.555-.175-23.927-7.501-.54-.168-23.335-7.318-.534-.168-22.743-7.129-.526-.168-22.196-6.96-.504-.153-21.662-6.8z"/><path fill="url(#P)" d="m173.701-113.389-.877.059.249.08 21.275 6.866.497.153 21.801 7.033.519.168 22.341 7.21.534.167 22.918 7.399.534.168 23.51 7.588.548.175 24.131 7.779.57.182 24.752 7.99.584.183 25.431 8.202.592.197 26.118 8.421.606.198 26.841 8.654.635.205 27.579 8.896.65.212 28.374 9.151.658.212 29.185 9.414.679.22 30.033 9.684.715.234 30.909 9.97.731.233 31.858 10.276.738.241 32.823 10.583.766.248 33.838 10.912.804.263 34.889 11.255.825.263 36.022 11.62.409.131 1.066-.11-.409-.13-36.029-11.613-.825-.263-34.904-11.255-.803-.256-33.853-10.912-.759-.248-32.838-10.583-.737-.24-31.866-10.27-.73-.24-30.924-9.963-.708-.234-30.055-9.684-.672-.22-29.2-9.407-.657-.211-28.382-9.152-.65-.212-27.593-8.895-.628-.205-26.856-8.655-.606-.19-26.125-8.428-.592-.19-25.438-8.195-.584-.19-24.767-7.982-.57-.183-24.138-7.786-.541-.175-23.525-7.581-.533-.168-22.933-7.399-.526-.168-22.357-7.201-.511-.168-21.816-7.033-.489-.161-21.29-6.858z"/><path fill="url(#Q)" d="m132.497-110.544-.892.058.234.081 20.896 6.938.482.161 21.414 7.1.504.167 21.948 7.29.518.167 22.517 7.472.519.175 23.101 7.662.541.182 23.7 7.866.562.183 24.329 8.078.569.19 24.993 8.289.585.197 25.672 8.516.599.197 26.388 8.758.621.204 27.118 9.005.636.212 27.907 9.254.643.219 28.71 9.524.665.22 29.55 9.808.701.234 30.413 10.093.723.234 31.347 10.408.73.24 32.304 10.722.753.249 33.319 11.057.789.263 34.356 11.401.811.27 35.481 11.774.401.132 1.103-.11-.401-.132-35.489-11.773-.818-.27-34.363-11.394-.789-.263-33.334-11.058-.752-.248-32.319-10.714-.73-.241-31.355-10.4-.723-.242-30.427-10.093-.701-.227-29.558-9.809-.664-.219-28.718-9.524-.65-.211-27.915-9.261-.635-.212-27.133-8.998-.621-.205-26.395-8.75-.599-.204-25.687-8.516-.577-.19-25-8.297-.577-.19-24.336-8.07-.555-.183-23.722-7.866-.534-.175-23.108-7.662-.519-.175-22.532-7.472-.518-.175-21.955-7.274-.504-.168-21.421-7.107-.482-.16-20.903-6.932z"/><path fill="url(#R)" d="m90.854-107.672-.913.065.241.081 20.494 7.004.475.16 21.013 7.18.496.168 21.539 7.362.504.168 22.101 7.552.511.175 22.678 7.75.525.182 23.27 7.954.555.182 23.883 8.166.562.19 24.548 8.384.569.197 25.22 8.619.584.197 25.921 8.86.613.21 26.637 9.101.635.22 27.418 9.363.635.219 28.214 9.64.658.227 29.046 9.926.687.233 29.901 10.218.708.241 30.829 10.532.716.248 31.778 10.86.737.25 32.779 11.203.774.263 33.809 11.554.803.27 34.912 11.935.401.131 1.118-.11-.402-.131-34.926-11.934-.803-.27-33.816-11.547-.774-.263-32.786-11.197-.745-.255L503.4 33.207l-.716-.248-30.843-10.532-.708-.24-29.916-10.219-.686-.233-29.062-9.919-.65-.226-28.228-9.64-.636-.213-27.432-9.37-.628-.212-26.651-9.108-.614-.204-25.928-8.86-.591-.197-25.227-8.61-.57-.198-24.554-8.385-.563-.19-23.897-8.165-.548-.182-23.284-7.954-.526-.183-22.685-7.742-.511-.175-22.108-7.552-.512-.175-21.538-7.355-.497-.168-21.02-7.179-.474-.161-20.509-7.004z"/><path fill="url(#S)" d="m48.781-104.774-.898.066.226.08 20.1 7.077.46.16 20.603 7.253.483.176 21.122 7.435.496.175 21.67 7.632.504.176 22.24 7.836.518.176 22.824 8.041.541.19 23.437 8.253.548.197 24.087 8.48.555.197 24.752 8.713.577.205 25.439 8.961.599.212 26.161 9.21.614.219 26.921 9.48.628.22 27.71 9.757.643.226 28.528 10.05.672.234 29.382 10.35.694.24 30.288 10.67.709.249 31.23 11 .723.255 32.224 11.343.759.27 33.239 11.7.789.278 34.334 12.094.388.14 1.117-.11-.394-.14-34.349-12.087-.782-.277-33.253-11.7-.767-.27-32.224-11.343-.73-.256-31.245-11-.701-.24-30.303-10.67-.694-.242-29.39-10.342-.679-.24-28.543-10.043-.642-.227-27.718-9.757-.628-.22-26.928-9.48-.621-.211-26.162-9.21-.606-.212-25.446-8.962-.577-.197-24.759-8.713-.562-.197-24.088-8.48-.555-.197-23.445-8.253-.54-.19-22.839-8.034-.518-.183-22.247-7.83-.504-.174-21.677-7.633-.504-.175-21.122-7.435-.49-.175-20.603-7.253-.467-.16-20.107-7.078z"/><path fill="url(#T)" d="m6.284-101.849-.92.066.226.08 19.676 7.15.46.168 20.173 7.333.481.168 20.684 7.516.49.175 21.231 7.72.497.175 21.794 7.917.504.183 22.371 8.129.533.197 22.97 8.34.541.198 23.612 8.582.548.197 24.263 8.815.562.205 24.949 9.064.592.211 25.658 9.32.606.219 26.41 9.597.613.226 27.184 9.875.629.226 28.002 10.174.664.241 28.835 10.474.679.248 29.741 10.802.694.256 30.66 11.138.716.263 31.639 11.496.753.27 32.647 11.86.774.279 33.736 12.255.387.146 1.146-.117-.379-.139-33.751-12.255-.774-.278-32.662-11.86-.752-.271-31.654-11.496-.716-.255-30.675-11.139-.694-.248-29.747-10.802-.687-.248-28.849-10.474-.658-.24-28.009-10.167-.635-.234L286.853.007l-.614-.219-26.417-9.59-.606-.219-25.665-9.319-.592-.22-24.964-9.056-.562-.204-24.277-8.816-.548-.197-23.62-8.574-.54-.197-22.985-8.349-.526-.19-22.386-8.128-.503-.183-21.81-7.91-.489-.182-21.246-7.713-.49-.175-20.69-7.516-.475-.175-20.187-7.326-.46-.168L6.51-101.76z"/><path fill="url(#U)" d="m-36.67-98.88-.935.065.219.08 19.26 7.224.445.168L2.06-83.937l.467.175 20.246 7.596.482.182 20.786 7.793.482.183 21.334 8.005.49.182 21.91 8.224.519.19 22.495 8.443.533.197 23.123 8.677.533.197 23.774 8.918.548.212 24.452 9.166.577.22 25.139 9.428.592.226 25.884 9.707.599.226 26.651 10 .621.233 27.447 10.298.65.241 28.279 10.612.672.248 29.164 10.941.679.256 30.084 11.284.701.263 31.048 11.65.737.277L445.8 82.535l.76.285 33.115 12.423.379.139 1.169-.117-.38-.139-33.129-12.423-.76-.285-32.063-12.015-.73-.277-31.062-11.642-.702-.263-30.098-11.284-.679-.256-29.178-10.933-.665-.256-28.294-10.605-.65-.241-27.462-10.298-.621-.234-26.658-9.991-.606-.227-25.891-9.706-.599-.227-25.147-9.429-.577-.211-24.46-9.174-.547-.204-23.788-8.918-.533-.197-23.138-8.677-.534-.197L89.77-51.48l-.519-.197-21.918-8.217-.496-.182-21.342-8.005-.482-.175-20.793-7.8-.482-.176-20.253-7.596-.468-.175-19.756-7.406-.445-.168-19.268-7.223z"/><path fill="url(#V)" d="m-80.08-95.885-.928.059.212.087 18.822 7.297.438.167 19.303 7.487.453.175 19.8 7.683.468.176 20.326 7.888.467.182 20.867 8.093.482.182 21.429 8.312.51.197 22.007 8.538.518.197 22.627 8.78.526.196 23.262 9.028.54.204 23.927 9.283.562.22 24.614 9.538.577.226 25.343 9.83.592.227L213.76 18.49l.606.234 26.892 10.43.635.248 27.703 10.743.65.249 28.586 11.087.658.255 29.485 11.438.686.263 30.434 11.802.723.278 31.421 12.19.745.285 32.479 12.598.365.139 1.161-.11-.372-.146-32.487-12.591-.745-.285-31.435-12.182-.723-.278-30.441-11.803-.687-.263L300.6 51.634l-.665-.256-28.594-11.08-.657-.255-27.71-10.736-.635-.249-26.907-10.422-.606-.234L188.715 8.28l-.584-.227-25.358-9.823-.577-.227-24.628-9.545-.562-.22-23.934-9.275-.541-.212-23.277-9.013-.525-.204-22.634-8.772-.526-.204-22.013-8.531-.504-.197-21.444-8.312-.482-.182-20.88-8.093-.468-.182-20.334-7.881-.467-.183-19.807-7.676-.453-.175-19.318-7.486-.431-.168-18.836-7.297z"/><path fill="url(#W)" d="m-123.952-92.862-.935.065.212.08 18.376 7.377.424.168 18.85 7.567.446.182 19.333 7.757.46.182 19.851 7.969.46.19 20.385 8.18.474.19 20.94 8.399.49.204 21.508 8.626.512.204 22.115 8.881.511.205 22.737 9.122.533.212 23.393 9.393.548.219 24.065 9.662.57.227 24.789 9.947.577.234 25.526 10.247.599.234 26.307 10.56.621.25 27.111 10.882.636.255 27.98 11.233.65.256 28.864 11.583.672.27 29.799 11.964.708.285 30.771 12.35.73.292 31.815 12.767.365.146 1.176-.109-.366-.146-31.829-12.767-.73-.292-30.785-12.35-.709-.286-29.813-11.956-.672-.27-28.878-11.583-.65-.256-27.988-11.226-.643-.255-27.118-10.883-.628-.248-26.315-10.554-.599-.24-25.541-10.248-.577-.226-24.796-9.948-.569-.226-24.08-9.656-.548-.226-23.409-9.385-.525-.212-22.751-9.122-.519-.205-22.122-8.874-.512-.204-21.516-8.633-.49-.197-20.954-8.4-.474-.19-20.392-8.18-.46-.19-19.866-7.96-.453-.183-19.347-7.764-.446-.175-18.858-7.567-.423-.168-18.391-7.376z"/><path fill="url(#X)" d="m-168.259-89.807-.964.066.205.088 17.923 7.45.416.175 18.384 7.647.43.182 18.866 7.844.445.183 19.37 8.056.445.19 19.895 8.267.46.198 20.436 8.494.482.204 20.99 8.728.497.205 21.59 8.983.496.205 22.21 9.231.512.22L37.675-3.69l.54.226 23.503 9.772.563.234 24.211 10.072.563.233 24.949 10.372.577.24 25.709 10.693.606.256 26.505 11.02.621.256 27.352 11.38.635.263 28.229 11.736.657.278 29.149 12.124.686.285 30.106 12.518.716.3 31.135 12.949.358.146 1.212-.124-.358-.146-31.15-12.942-.708-.3-30.12-12.51-.694-.293-29.163-12.117-.658-.27-28.243-11.737-.635-.27-27.36-11.372-.628-.255-26.512-11.022-.614-.248-25.723-10.692-.577-.241-24.957-10.372-.562-.233L63.37 6.448l-.562-.226-23.518-9.773-.54-.226-22.854-9.502-.518-.212-22.218-9.232-.497-.212-21.604-8.976-.496-.204-20.998-8.728-.482-.197-20.45-8.502-.46-.19-19.903-8.275-.446-.182-19.383-8.056-.446-.183-18.873-7.844-.43-.182-18.398-7.64-.417-.175-17.93-7.45z"/><path fill="url(#Y)" d="m1167.39 28.657.03-.592.96-.095-.04.592 43.48-4.295-2.94 50.432.46-.051-.07 1.146-.46.052-2.92 50.051.46-.051-.06 1.162-.46.051-2.9 49.657.45-.058-.07 1.154-.45.058-2.88 49.307.46-.059-.07 1.125-.45.059-2.86 48.941.45-.058-.06 1.117-.45.059-2.84 48.576.46-.065-.07 1.124-.45.066-2.82 48.197.46-.066-.07 1.117-.45.066-2.79 47.861.44-.073-.06 1.088-.45.073-2.77 47.51.44-.073-.06 1.081-.45.073-2.75 47.167.44-.073-.06 1.096-.45.073-2.73 46.801.45-.08-.07 1.088-.44.081-2.71 46.48.44-.08-.06 1.059-.44.08-2.7 46.144.44-.08-.06 1.052-.44.08-2.67 45.816.44-.088-.06 1.066-.44.088-2.65 45.465.44-.087-.06 1.059-.44.087-2.63 45.159.43-.095-.05 1.029-.44.095-2.62 44.837.44-.094-.06 1.022-.44.095-2.6 44.516.44-.095-.06 1.037-.44.095-2.58 44.187.43-.095-.06 1.022-.43.095-2.56 43.895-40.72 9.539-.03.496-.9.212.03-.497-41.2 9.645-.03.5-.91.21.02-.49-41.69 9.76-.03.5-.91.21.02-.5-42.205 9.88-.021.51-.921.22.022-.51-42.704 10-.022.51-.949.21.021-.5-43.223 10.12-.021.51-.943.22.022-.51-43.763 10.25-.015.51-.957.23.015-.51-44.289 10.37-.015.51-.986.23.015-.51-44.837 10.5-.015.51-.993.24.015-.52-45.393 10.63-.014.52-.993.23.014-.52-45.962 10.77v.51l-1.029.25v-.52l-46.532 10.89v.53l-1.044.24v-.52l-47.123 11.03v.53l-1.037.24v-.53l-47.722 11.18v.52l-1.067.25v-.53L476.347 1145v.53l-1.081.25v-.53l-48.964 11.47v.53l-1.074.25v-.53l-49.628 11.62v.54l-1.081.25v-.54l-50.256 11.77v.54l-1.118.26v-.54l-50.92 11.93-.556-48.6-.569.13-.015-1.14.57-.13-.563-48.96-.569.12-.015-1.15.57-.12-.563-49.38-.577.12-.014-1.13.577-.12-.57-49.784-.577.117-.014-1.147.577-.116-.577-50.184-.577.117-.015-1.176.577-.117-.577-50.57-.577.117-.015-1.183.577-.117-.584-51.001-.584.109-.015-1.168.584-.11-.584-51.418-.584.11-.015-1.183.585-.11-.592-51.841-.584.102-.015-1.212.592-.102-.599-52.251-.592.103-.014-1.22.591-.102-.606-52.703-.592.095-.014-1.213.591-.095-.606-53.141-.591.095-.015-1.22.592-.095-.614-53.586-.599.087-.014-1.256.598-.088-.62-54.017-.599.087-.015-1.263.599-.088-.621-54.492-.606.08-.015-1.249.607-.08-.628-54.953-.607.081-.014-1.264.606-.08-.636-55.42-.606.073-.014-1.3.606-.073-.636-55.873-.613.073-.015-1.307.614-.073-.643-56.377-.613.065-.015-1.292.614-.066-.651-56.866 55.355-5.471v-.657l1.212-.117v.658l54.58-5.39v-.658l1.176-.117v.658l53.835-5.317v-.65l1.161-.117v.65l53.061-5.244v-.65l1.169-.117v.65l52.323-5.171v-.643l1.154-.117v.643l51.6-5.098v-.643l1.118-.11v.644l50.899-5.033v-.635l1.132-.11v.636l50.205-4.96.015-.627 1.103-.11-.015.628 49.541-4.893.014-.628 1.066-.103-.014.628 48.876-4.827.014-.621 1.074-.11-.015.621 48.234-4.762.022-.62 1.059-.103-.022.62 47.597-4.703.022-.613 1.03-.102-.022.613 46.992-4.645.022-.614 1.015-.102-.022.614 46.364-4.58.021-.606 1.016-.102-.022.606 45.753-4.52.03-.607.99-.095-.03.606 45.19-4.462.03-.6.97-.094-.03.599 44.59-4.404.03-.6.98-.094-.03.599zm45.45-5.66L258.684 117.11 271.1 1194.19l885.43-207.457 56.3-963.736"/><path fill="url(#Z)" d="m317.781 451.079-53.952 7.64-.599.088.015 1.263.599-.087 53.945-7.647v-1.257m54.382-7.705-53.206 7.537v1.257l53.206-7.545zm53.653-7.596-52.499 7.435v1.249l52.499-7.442zm52.9-7.493-51.768 7.333v1.241l51.761-7.34v-1.234m52.206-7.399-51.067 7.231v1.234l51.06-7.238v-1.227m51.513-7.289-50.381 7.136v1.227l50.366-7.143zm50.804-7.201-49.716 7.04-.015 1.22 49.709-7.048zm50.146-7.099-49.058 6.945-.022 1.213 49.051-6.953.022-1.205m49.497-7.012-48.416 6.858-.022 1.205 48.409-6.865zm48.832-6.916-47.78 6.77-.03 1.198 47.781-6.778.036-1.19m48.204-6.829-47.159 6.683-.029 1.19 47.159-6.69.037-1.183m47.583-6.742-46.554 6.596-.036 1.183 46.553-6.603.044-1.176m46.97-6.653-45.977 6.515-.043 1.176 45.976-6.523zm46.371-6.566-45.378 6.427-.044 1.169 45.37-6.435zm45.789-6.486-44.796 6.347-.051 1.161 44.797-6.354zm45.23-6.405-44.26 6.266-.05 1.154 44.25-6.273zm44.64-6.325-43.69 6.186-.06 1.147 43.68-6.194.06-1.139m44.11-6.245-43.14 6.114-.06 1.139 43.15-6.121.06-1.132m44.01-6.237-.46.066-42.61 6.033-.07 1.132 42.61-6.04.45-.066.07-1.125"/><path fill="url(#aa)" d="m317.386 395.682-54.178 7.297-.606.08.014 1.249.606-.08 54.179-7.304v-1.242m54.602-7.354-53.434 7.194v1.241l53.434-7.201zm53.871-7.253-52.717 7.099v1.234l52.717-7.106zm53.112-7.15-51.98 6.997v1.227l51.973-7.005v-1.219m52.426-7.056-51.272 6.902v1.22l51.264-6.909v-1.213m51.717-6.96-50.585 6.807v1.212l50.571-6.814zm51.002-6.865-49.913 6.719-.015 1.205 49.906-6.727zm50.344-6.778-49.249 6.632-.022 1.197 49.241-6.639.022-1.19m49.687-6.69-48.599 6.544-.021 1.19 48.591-6.551zm49.007-6.595-47.963 6.456-.029 1.183 47.956-6.464.029-1.175m48.401-6.515-47.335 6.376-.029 1.176 47.335-6.384.037-1.168m47.758-6.435-46.729 6.289-.036 1.168 46.721-6.295zm47.152-6.347-46.144 6.216-.044 1.161 46.137-6.215.044-1.154m46.539-6.274-45.538 6.128-.044 1.154 45.531-6.135zm45.95-6.186-44.957 6.054-.051 1.147 44.958-6.062zm45.39-6.106-44.41 5.982-.06 1.139 44.41-5.989zm44.79-6.033-43.83 5.901-.06 1.132 43.83-5.908.06-1.132m44.25-5.953-43.28 5.829-.06 1.132 43.29-5.836zm44.16-5.945-.45.059-42.76 5.755-.05 1.125 42.75-5.763.45-.058.07-1.118"/><path fill="url(#ab)" d="m316.975 339.814-54.412 6.938-.606.081.015 1.263.606-.08 54.405-6.946v-1.256m54.843-6.997-53.66 6.843v1.257l53.66-6.851zm54.098-6.902-52.937 6.749v1.248l52.937-6.763v-1.241m53.331-6.793-52.192 6.654v1.241l52.185-6.668v-1.234m52.637-6.705-51.483 6.566v1.235l51.468-6.574v-1.227m51.936-6.624-50.789 6.478v1.22l50.775-6.486zm51.199-6.53-50.103 6.391-.015 1.212 50.103-6.398.022-1.205m50.534-6.441-49.438 6.303-.022 1.205 49.431-6.311.022-1.197m49.876-6.362-48.781 6.223-.022 1.198 48.781-6.23.03-1.191m49.19-6.281-48.146 6.142-.029 1.191 48.138-6.15.029-1.183m48.577-6.194-47.518 6.063-.029 1.183 47.51-6.07zm47.941-6.113-46.897 5.982-.036 1.176 46.896-5.989.044-1.169m47.313-6.032-46.312 5.908-.044 1.169 46.305-5.916.044-1.161m46.706-5.96-45.698 5.828-.044 1.161 45.699-5.835.051-1.162m46.11-5.872-45.11 5.756-.051 1.154 45.111-5.763.05-1.154m45.54-5.806-44.56 5.682-.05 1.154 44.55-5.69zm44.95-5.734-43.99 5.61-.06 1.146 43.98-5.616.06-1.14m44.42-5.66-43.44 5.543-.06 1.14 43.44-5.544.06-1.132m44.3-5.66-.45.058-42.9 5.471-.07 1.132 42.89-5.478.46-.058.06-1.125"/><path fill="url(#ac)" d="m316.553 283.454-54.646 6.581-.606.073.014 1.3.607-.073 54.638-6.588v-1.293m55.077-6.632-53.886 6.486v1.293l53.886-6.493v-1.278m54.317-6.544-53.156 6.398v1.278l53.156-6.406zm53.558-6.45-52.411 6.311v1.271l52.403-6.318v-1.264m52.849-6.361-51.695 6.223v1.263l51.681-6.23zm52.126-6.281-50.994 6.142v1.256l50.98-6.149zm51.403-6.186-50.307 6.054-.015 1.249 50.3-6.062zm50.739-6.113-49.636 5.974-.022 1.242 49.629-5.982.021-1.234m50.074-6.026-48.971 5.894-.022 1.234 48.971-5.901.029-1.227m49.373-5.945-48.328 5.821-.029 1.227 48.321-5.828zm48.752-5.872-47.693 5.74-.036 1.22 47.685-5.748.036-1.212m48.124-5.792-47.072 5.668-.036 1.212 47.064-5.675zm47.496-5.719-46.481 5.595-.043 1.205 46.473-5.602.043-1.198m46.875-5.646-45.867 5.522-.044 1.198 45.86-5.529zm46.282-5.572-45.274 5.448-.051 1.191 45.275-5.456zm45.7-5.5-44.72 5.383-.05 1.183 44.72-5.39.06-1.176m45.1-5.434-44.14 5.317-.06 1.176 44.14-5.324zm44.55-5.368-43.59 5.251-.06 1.169 43.58-5.251.07-1.162m44.46-5.353-.46.058-43.04 5.186-.06 1.161 43.04-5.193.45-.058z"/><path fill="url(#ad)" d="m316.129 226.641-54.887 6.215-.613.073.015 1.308.613-.073 54.88-6.223v-1.3m55.317-6.259-54.112 6.127v1.3l54.12-6.135v-1.292m54.536-6.179-53.382 6.04v1.293l53.382-6.055v-1.286m53.776-6.076-52.622 5.96v1.285l52.622-5.967v-1.271m53.061-6.018-51.907 5.879v1.271l51.893-5.887v-1.263m52.352-5.923-51.198 5.799v1.263l51.184-5.806zm51.608-5.843-50.505 5.718-.014 1.257 50.497-5.726zm50.935-5.77-49.825 5.638-.022 1.249 49.825-5.646zm50.257-5.69-49.161 5.566-.022 1.241 49.161-5.572.029-1.235m49.57-5.609-48.511 5.492-.029 1.235 48.503-5.5zm48.934-5.543-47.875 5.419-.037 1.227 47.868-5.427.037-1.219m48.306-5.463-47.247 5.346-.037 1.22 47.24-5.354zm47.664-5.398-46.649 5.281-.044 1.212 46.649-5.288zm47.035-5.324-46.028 5.215-.043 1.205 46.027-5.215.051-1.198m46.441-5.266-45.433 5.142-.051 1.198 45.434-5.149zm45.86-5.193-44.88 5.084-.05 1.19 44.87-5.091zm45.26-5.127-44.29 5.018-.05 1.183 44.28-5.025zm44.71-5.061-43.74 4.952-.05 1.175 43.72-4.959zm44.6-5.047-.46.051-43.18 4.886-.07 1.169 43.19-4.894.46-.051z"/><path fill="url(#ae)" d="m315.718 169.343-55.12 5.843-.614.066.015 1.292.613-.065 55.114-5.851v-1.285m55.544-5.887-54.346 5.756v1.285l54.346-5.77v-1.278m54.784-5.792-53.608 5.682v1.279l53.608-5.69zm53.996-5.726-52.842 5.602v1.271l52.842-5.609zm53.28-5.646-52.118 5.522v1.264l52.104-5.529v-1.257m52.564-5.565-51.403 5.449-.015 1.256 51.403-5.456zm51.812-5.492-50.709 5.375-.015 1.249 50.702-5.383.022-1.234m51.14-5.427-50.023 5.303-.022 1.234 50.016-5.31.022-1.227m50.461-5.346-49.351 5.23-.022 1.227 49.351-5.237.029-1.22m49.752-5.273-48.693 5.164-.029 1.219 48.693-5.163.036-1.213m49.11-5.207-48.05 5.09-.037 1.213 48.051-5.098zm48.482-5.142-47.423 5.025-.036 1.205 47.415-5.032zm47.846-5.069-46.824 4.959-.044 1.198 46.817-4.966.044-1.191m47.21-4.995-46.195 4.893-.044 1.191 46.195-4.901.052-1.183m46.609-4.945-45.609 4.835-.051 1.183 45.6-4.842.05-1.176m46.03-4.871-45.04 4.769-.05 1.176 45.03-4.777zm45.42-4.813-44.45 4.711-.05 1.169 44.44-4.718zm44.86-4.754-43.88 4.652-.06 1.162 43.88-4.66zm44.74-4.74-.46.05-43.33 4.595-.06 1.154 43.33-4.602.46-.05z"/><path fill="url(#af)" d="m639.706 80.163-1.118.11-.007.635-.898 54.317-.015 1.242-.891 53.872-.014 1.249-.884 53.418-.015 1.242-.876 53.002-.022 1.206-.862 52.586-.022 1.198-.854 52.155-.022 1.212-.848 51.725-.021 1.197-.84 51.338-.022 1.168-.84 50.921-.015 1.161-.832 50.527-.022 1.169-.818 50.11-.022 1.161-.818 49.738-.015 1.132-.818 49.351-.014 1.124-.804 48.964-.022 1.139-.796 48.562-.022 1.132-.789 48.211-.022 1.103-.781 47.839-.022 1.088-.781 47.483-.015 1.1-.774 47.09-.022 1.1-.767 46.76-.007.52 1.037-.24.007-.52.774-46.76.015-1.09.781-47.09.015-1.11.789-47.462.014-1.095.789-47.839.022-1.096.796-48.204.015-1.132.803-48.562.022-1.132.811-48.963.014-1.125.818-49.336.015-1.139.825-49.723.015-1.169.833-50.096.014-1.176.84-50.519.015-1.161.84-50.921.022-1.169.847-51.322.022-1.198.854-51.717.022-1.213.862-52.148.015-1.205.869-52.571.022-1.205.876-53.003.022-1.241.876-53.405.022-1.248.891-53.872.022-1.234.899-54.31z"/><path fill="url(#ag)" d="m587.698 85.296-1.118.11-.007.642-.687 54.668-.014 1.241-.687 54.222-.014 1.257-.68 53.754-.014 1.249-.672 53.339-.015 1.22-.672 52.907-.014 1.205-.665 52.484-.014 1.213-.658 52.038-.014 1.212-.65 51.644-.015 1.176-.643 51.235-.014 1.161-.643 50.826-.015 1.184-.635 50.402-.015 1.169-.635 50.03-.015 1.139-.621 49.635-.014 1.133-.628 49.248-.015 1.139-.613 48.847-.015 1.132-.613 48.482-.015 1.11-.606 48.109-.015 1.095-.599 47.747-.014 1.11-.599 47.35-.015 1.1-.592 47.01-.007.53 1.03-.24.007-.53.599-47 .015-1.11.599-47.35.014-1.11.606-47.726.015-1.103.614-48.101.014-1.103.614-48.482.014-1.132.621-48.839.015-1.147.621-49.241.014-1.125.636-49.635.014-1.14.636-50.015.014-1.176.636-50.395.014-1.176.65-50.818.015-1.169.65-51.228.014-1.176.658-51.636.014-1.213.658-52.031.014-1.212.672-52.477.015-1.205.672-52.9.014-1.22.68-53.331.014-1.249.68-53.747.014-1.257.694-54.215.015-1.241.693-54.66z"/><path fill="url(#ah)" d="m534.96 90.505-1.146.11-.008.642-.482 55.026-.007 1.256-.482 54.566-.007 1.271-.475 54.098-.007 1.256-.475 53.674-.007 1.22-.468 53.243-.007 1.213-.468 52.805-.007 1.227-.46 52.36-.007 1.22-.453 51.958-.015 1.183-.445 51.542-.015 1.175-.445 51.133-.008 1.183-.445 50.702-.015 1.176-.438 50.322-.007 1.147-.439 49.928-.007 1.139-.431 49.533-.014 1.147-.431 49.124-.008 1.139-.423 48.767-.015 1.11-.423 48.379-.008 1.103-.416 48.008-.015 1.12-.416 47.62-.007 1.1-.417 47.27v.53l1.059-.25.008-.53.416-47.26.007-1.11.424-47.61.007-1.11.424-48.012.007-1.095.431-48.379.007-1.111.431-48.759.015-1.139.431-49.117.007-1.147.438-49.533.015-1.132.438-49.92.007-1.147.446-50.315.007-1.176.453-50.701.007-1.184.453-51.125.008-1.176.46-51.534.007-1.184.46-51.95.007-1.22.468-52.353.007-1.219.468-52.806.007-1.212.475-53.229.007-1.227.475-53.667.007-1.256.482-54.091.007-1.263.482-54.566.015-1.249.482-55.018z"/><path fill="url(#ai)" d="m481.477 95.785-1.168.11v.65l-.271 55.383-.007 1.264-.263 54.923v1.271l-.263 54.449-.007 1.263-.263 54.018v1.234l-.263 53.572v1.22l-.256 53.141-.007 1.235-.256 52.681-.007 1.227-.248 52.279-.008 1.183-.248 51.863-.007 1.184-.248 51.432v1.198l-.249 51.008-.007 1.183-.241 50.622-.007 1.154-.241 50.212-.008 1.147-.233 49.825-.008 1.154-.241 49.409v1.147l-.241 49.037v1.117l-.234 48.657-.007 1.11-.234 48.273-.007 1.13-.226 47.88-.008 1.11-.226 47.53-.007.54 1.081-.26v-.53l.233-47.53.008-1.11.233-47.87.008-1.13.233-48.266.008-1.111.233-48.649.008-1.118.241-49.036.007-1.147.241-49.402v-1.154l.248-49.818.008-1.139.241-50.213.007-1.154.248-50.614.008-1.183.248-51.001.007-1.191.249-51.439.007-1.176.256-51.856v-1.191l.255-52.272.007-1.219.256-52.674.007-1.234.263-53.134.008-1.22.263-53.565v-1.234l.27-54.011v-1.263l.27-54.442.007-1.27.263-54.916.008-1.264.27-55.376z"/><path fill="url(#aj)" d="m427.257 101.142-1.161.11v.657l-.044 55.749v1.271l-.051 55.273v1.286l-.044 54.799v1.271l-.043 54.361v1.241l-.044 53.916v1.227l-.044 53.477v1.242l-.044 53.01v1.227l-.044 52.608v1.197l-.043 52.17v1.191l-.044 51.753v1.198l-.044 51.315v1.191l-.044 50.921v1.161l-.044 50.519v1.147l-.036 50.118v1.161l-.044 49.694v1.154l-.044 49.321v1.125l-.036 48.937v1.11l-.044 48.55v1.13l-.037 48.15v1.12l-.044 47.79v.54l1.074-.25v-.54l.044-47.79v-1.12l.044-48.14v-1.13l.043-48.54v-1.12l.044-48.923v-1.125l.044-49.314.007-1.154.044-49.694v-1.161l.044-50.103v-1.154l.044-50.505v-1.161l.051-50.921v-1.191l.044-51.308v-1.198l.051-51.746v-1.183l.044-52.17v-1.198l.051-52.593v-1.234l.051-53.003v-1.242l.044-53.469v-1.227l.051-53.909v-1.241l.051-54.354v-1.271l.051-54.792v-1.278l.051-55.274v-1.27l.051-55.742z"/><path fill="url(#ak)" d="m372.262 106.566-1.176.117v.658l.183 56.113.007 1.279.182 55.646v1.293l.183 55.149v1.286l.175 54.711.008 1.249.175 54.259.007 1.234.168 53.814.007 1.248.176 53.346v1.242l.175 52.929v1.205l.175 52.492v1.197l.168 52.068.008 1.205.168 51.63v1.197l.168 51.228v1.169l.168 50.811v1.161l.168 50.41v1.169l.16 49.978.008 1.162.16 49.613.008 1.125.153 49.221.007 1.12.161 48.82v1.14l.153 48.42.008 1.12.153 48.07.007.54 1.081-.26v-.54l-.153-48.06v-1.12l-.154-48.42-.007-1.13-.153-48.82v-1.12l-.161-49.207v-1.132l-.161-49.6v-1.161l-.16-49.978v-1.169l-.161-50.403v-1.161l-.161-50.804-.007-1.168-.161-51.221v-1.198l-.168-51.622v-1.205l-.168-52.06v-1.198l-.168-52.491v-1.205l-.168-52.922-.007-1.235-.168-53.338v-1.249l-.175-53.806v-1.234l-.175-54.252v-1.249l-.176-54.711v-1.278l-.175-55.143-.007-1.293-.176-55.639v-1.278l-.175-56.106z"/><path fill="url(#al)" d="m316.509 112.074-1.22.117.007.665.417 56.486.007 1.293.409 56.004.015 1.3.409 55.515.007 1.293.402 55.069.014 1.257.402 54.609.007 1.242.395 54.156.014 1.256.395 53.682.007 1.249.394 53.258.008 1.212.387 52.82.007 1.205.387 52.389.007 1.213.387 51.943.008 1.205.38 51.535.007 1.176.372 51.118.008 1.168.372 50.702.015 1.176.365 50.279.007 1.168.373 49.898.007 1.14.365 49.498.008 1.12.357 49.11.008 1.14.358 48.7.014 1.13.351 48.33.007.54 1.118-.27-.008-.54-.35-48.32-.008-1.13-.35-48.69-.008-1.14-.357-49.1-.008-1.13-.365-49.489-.007-1.14-.358-49.891-.007-1.161-.366-50.271-.014-1.176-.365-50.702-.008-1.168-.372-51.111-.007-1.176-.373-51.527-.015-1.205-.372-51.936-.015-1.213-.379-52.381-.008-1.206-.38-52.812-.014-1.213-.387-53.25-.008-1.249-.387-53.675-.007-1.256-.394-54.149-.015-1.242-.394-54.602-.008-1.256-.401-55.062-.008-1.285-.401-55.508-.015-1.3-.402-56.004-.014-1.286-.409-56.486z"/><path fill="url(#am)" d="m261.014 484.483-.616-366.287 531.269-53.557v419.844z"/><path fill="url(#an)" d="M257.939 118.812-6.156 3.078v482.636h270.251z"/><path fill="url(#ao)" d="M258.554 116.965-11.082 1.847l794.133-35.09v98.497z"/><path stroke="url(#ap)" stroke-width="1.231" d="m-211.507-39.32-.197-.096-.044-1 .197.095-2.082-45.429 17.456 7.545-.022-.49.402.176.022.489 17.908 7.742-.022-.497.424.183.022.496 18.376 7.94-.022-.505.431.19.022.504 18.872 8.158-.022-.51.439.19.022.51 19.383 8.378-.021-.519.452.197.022.519 19.917 8.604-.022-.526.468.204.022.526L-78.64-27.4l-.022-.533.482.211.022.534 21.049 9.093-.015-.54.49.21.021.541 21.656 9.356-.015-.547.504.219.014.547 22.284 9.627-.015-.555.526.226.015.555 22.933 9.911-.014-.562.54.234.015.562 23.627 10.21-.015-.57.548.234.015.57 24.343 10.517-.015-.577.563.241.014.577 25.095 10.846-.014-.584.591.255.015.585 25.869 11.174-.014-.591.613.263.015.591 26.709 11.54-.014-.606.621.27.014.606 27.571 11.912v-.613l.629.278.014.613 28.477 12.307v-.621l.665.292v.62l29.426 12.709v-.628l.687.299v.636l30.434 13.146.694 59.89.343.161.015 1.315-.344-.161.687 59.349.343.168.015 1.308-.344-.176.68 58.824.343.182.014 1.271-.343-.182.672 58.319.343.19.015 1.264-.343-.19.664 57.779.344.204.014 1.271-.343-.204.665 57.267.336.212.014 1.234-.336-.211.658 56.785.336.22.014 1.227-.336-.22.65 56.268.336.233.015 1.242-.336-.234.642 55.778.336.241.015 1.227-.336-.241.635 55.296.336.248.015 1.198-.336-.248.636 54.814.336.255.014 1.205-.336-.255.628 54.346.329.263.015 1.198-.329-.263.621 53.879.328.277.015 1.169-.329-.278.621 53.419.329.285.014 1.176-.328-.285.613 52.966.329.292.014 1.169-.328-.293.606 52.518.329.3.014 1.14-.328-.3.599 52.1.321.31.015 1.12-.322-.31.599 51.65.321.31.015 1.14-.321-.31.591 51.21-28.243-28.31v.56l-.643-.65v-.56l-27.381-27.43v.55l-.621-.63v-.55l-26.57-26.63v.54l-.592-.6v-.54l-25.789-25.84v.54l-.57-.59v-.53l-25.044-25.1.015.53-.577-.58-.015-.52-24.307-24.37.015.53-.555-.57-.015-.51-23.634-23.69.014.52-.533-.53-.014-.52L62.7 983.999l.014.511-.519-.519-.014-.511-22.342-22.393.015.504-.512-.511-.014-.504L17.6 938.797l.014.496-.496-.504-.015-.496-21.159-21.21.015.489-.475-.482-.015-.489-20.603-20.647.015.489-.468-.467-.015-.49-20.063-20.114.015.482-.46-.46-.015-.482-19.544-19.589.014.475-.453-.453-.014-.474-19.055-19.099.022.467-.431-.431-.015-.467-18.58-18.617.014.467-.416-.423-.022-.468-18.12-18.157.022.46-.417-.416-.022-.46-17.667-17.711.022.453-.409-.41-.022-.452-17.251-17.288.022.453-.387-.387-.022-.453-16.843-16.879-1.84-40.374-.197-.19-.044-.899.197.19-1.855-40.63-.197-.182-.044-.884.197.182-1.87-40.907-.197-.183-.044-.891.198.183-1.877-41.156-.198-.176-.043-.912.197.175-1.892-41.419-.197-.168-.044-.92.197.168-1.906-41.69-.197-.16-.044-.906.197.161-1.913-41.96-.197-.16-.044-.935.197.161-1.928-42.237-.197-.154-.044-.935.197.154-1.943-42.515-.197-.146-.044-.927.197.146-1.957-42.792-.197-.139-.044-.949.197.138-1.965-43.069-.197-.139-.044-.957.198.132-1.98-43.355-.197-.131-.044-.942.198.131-1.994-43.661-.198-.124-.043-.95.197.125-2.009-43.939-.197-.117-.044-.971.197.116-2.023-44.23-.197-.11-.044-.964.198.11-2.038-44.545-.197-.11-.044-.971.197.102-2.045-44.822-.197-.103-.044-.993.197.102-2.059-45.129m-2.542-47.612 38.045 832.432 447.45 448.759-12.395-1077.113z"/><path stroke="url(#aq)" stroke-width="1.231" d="m1212.7 23.393-954.149 94.115 12.416 1077.082 885.423-207.46 56.31-963.737m-45.45 5.66.03-.591.97-.095-.04.591 43.48-4.294-2.94 50.432.46-.052-.07 1.147-.46.051-2.92 50.052.46-.051-.07 1.161-.46.051-2.9 49.658.46-.059-.07 1.154-.45.059-2.88 49.307.45-.059-.06 1.125-.46.058-2.85 48.942.45-.058-.06 1.117-.46.058-2.83 48.577.45-.066-.06 1.125-.46.066-2.81 48.196.45-.065-.06 1.117-.45.066-2.79 47.86.44-.073-.06 1.089-.45.073-2.77 47.51.44-.073-.07 1.081-.44.073-2.75 47.167.44-.073-.06 1.095-.45.073-2.73 46.802.44-.08-.06 1.088-.45.08-2.71 46.481.45-.081-.06 1.059-.45.081-2.69 46.144.44-.08-.06 1.051-.44.081-2.67 45.815.44-.087-.06 1.066-.44.088-2.65 45.465.44-.088-.06 1.059-.44.088-2.64 45.158.44-.095-.06 1.03-.43.095-2.62 44.837.44-.095-.06 1.023-.44.095-2.6 44.515.43-.095-.06 1.037-.43.095-2.58 44.187.43-.095-.06 1.023-.43.095-2.56 43.895-40.72 9.538-.03.497-.91.212.03-.497-41.2 9.648-.02.5-.91.21.02-.5-41.7 9.77-.02.49-.91.22.02-.5-42.207 9.88-.022.5-.92.22.021-.5-42.704 10-.022.5-.949.22.022-.5-43.223 10.12-.022.5-.942.22.021-.5-43.763 10.25-.015.51-.956.22.014-.51-44.289 10.37-.014.52-.987.23.015-.51-44.837 10.49-.014.52-.994.24.015-.52-45.392 10.62-.015.52-.993.24.014-.52-45.961 10.76v.52l-1.03.24v-.52l-46.532 10.9v.53l-1.044.24v-.53l-47.123 11.04v.52l-1.037.24v-.52l-47.722 11.17v.53l-1.067.25v-.53l-48.342 11.32v.54l-1.081.25v-.53l-48.964 11.46v.54l-1.073.25v-.54l-49.629 11.62v.54l-1.081.26v-.54L324.13 1181v.55l-1.117.26v-.54l-50.921 11.92-.555-48.59-.57.13-.015-1.14.57-.13-.562-48.97-.57.13-.015-1.15.57-.12-.562-49.38-.577.12-.015-1.13.577-.13-.57-49.777-.577.117-.014-1.147.577-.117-.577-50.183-.577.117-.015-1.176.577-.117-.577-50.57-.577.117-.014-1.184.577-.116-.585-51.002-.584.11-.015-1.169.585-.109-.585-51.418-.584.11-.015-1.184.585-.109-.592-51.841-.584.102-.015-1.212.592-.103-.599-52.25-.592.102-.014-1.219.591-.103-.606-52.703-.591.095-.015-1.212.592-.095-.607-53.141-.591.095-.015-1.22.592-.095-.614-53.587-.599.088-.014-1.256.599-.088-.621-54.018-.599.088-.015-1.264.599-.087-.621-54.493-.606.081-.014-1.249.606-.081-.628-54.952-.607.08-.014-1.263.606-.081-.635-55.42-.607.073-.014-1.3.606-.073-.635-55.872-.614.073-.014-1.308.613-.073-.643-56.377-.613.066-.015-1.293.614-.065-.65-56.866 55.354-5.471v-.657l1.212-.117v.657l54.58-5.39v-.657l1.176-.117v.657l53.835-5.317v-.65l1.162-.117v.65l53.061-5.244v-.65l1.168-.117v.65l52.323-5.17v-.643l1.154-.117v.643l51.601-5.098v-.643l1.117-.11v.643l50.899-5.032v-.635l1.132-.11v.635l50.205-4.959.015-.628 1.103-.11-.015.629 49.541-4.894.014-.628 1.067-.102-.015.628 48.876-4.828.015-.62 1.073-.11-.014.62 48.233-4.761.022-.621 1.059-.102-.022.62 47.598-4.703.022-.614 1.029-.102-.022.614 46.992-4.645.022-.614 1.015-.102-.022.613 46.364-4.579.022-.606 1.015-.102-.022.606 45.756-4.521.03-.606.99-.095-.03.606L1076.67 38l.03-.599.98-.095-.03.6 44.59-4.405.03-.599.98-.095-.03.6z"/><path fill="url(#ar)" d="M371.5 164.267V106.5L427 101v57.5z" opacity=".7"/><g opacity=".8" style="mix-blend-mode:soft-light"><path fill="#3fcf8e" d="M371.5 164.267V106.5L427 101v57.5z"/><path stroke="#3ecf8e" d="M371.5 164.267V106.5L427 101v57.5z"/></g><path fill="url(#as)" d="M261.5 233.722V175.5l55-5.789v57.615z" opacity=".7"/><g opacity=".8" style="mix-blend-mode:soft-light"><path fill="#3fcf8e" d="M261.5 233.722V175.5l55-5.789v57.615z"/><path stroke="#3ecf8e" d="M261.5 233.722V175.5l55-5.789v57.615z"/></g><path fill="url(#at)" d="m229.5 218-1-57.5 32 15.147V233.5z" opacity=".7"/><g opacity=".8" style="mix-blend-mode:soft-light"><path fill="#3fcf8e" d="m229.5 218-1-57.5 32 15.147V233.5z"/><path stroke="#3ecf8e" d="m229.5 218-1-57.5 32 15.147V233.5z"/></g><path fill="url(#au)" d="M370.5 105.5 339 93l54-5 32.5 12.5z" opacity=".7"/><g opacity=".8" style="mix-blend-mode:soft-light"><path fill="#3fcf8e" d="M370.5 105.5 339 93l54-5 32.5 12.5z"/><path stroke="#3ecf8e" d="M370.5 105.5 339 93l54-5 32.5 12.5z"/></g><path fill="url(#av)" d="M426.5 271v-56.5l54-6-.5 56z" opacity=".7"/><g opacity=".8" style="mix-blend-mode:screen"><path fill="#3fcf8e" d="M426.5 271v-56.5l54-6-.5 56z"/><path stroke="#3ecf8e" d="M426.5 271v-56.5l54-6-.5 56z"/></g></g><defs><radialGradient id="b" cx="0" cy="0" r="1" gradientTransform="matrix(0 640.595 -242.747 0 28.673 553.683)" gradientUnits="userSpaceOnUse"><stop stop-color="#fff"/><stop offset="1" stop-color="#d6d6d6"/></radialGradient><radialGradient id="c" cx="0" cy="0" r="1" gradientTransform="matrix(0 530.328 -7.66153 0 234.853 634.406)" gradientUnits="userSpaceOnUse"><stop stop-color="#fff"/><stop offset="1" stop-color="#d6d6d6"/></radialGradient><radialGradient id="d" cx="0" cy="0" r="1" gradientTransform="matrix(0 522.772 -8.69498 0 205.8 613.865)" gradientUnits="userSpaceOnUse"><stop stop-color="#fff"/><stop offset=".293" stop-color="#969696"/><stop offset=".428" stop-color="#cecece"/><stop offset=".587" stop-color="#a7a7a7"/><stop offset=".918" stop-color="#828282"/><stop offset="1" stop-color="#f1f1f1"/><stop offset="1" stop-color="#d6d6d6"/></radialGradient><radialGradient id="e" cx="0" cy="0" r="1" gradientTransform="matrix(0 515.425 -9.65906 0 177.64 593.949)" gradientUnits="userSpaceOnUse"><stop stop-color="#fff"/><stop offset=".192" stop-color="#969696"/><stop offset=".582" stop-color="#cecece"/><stop offset=".832" stop-color="#828282"/><stop offset="1" stop-color="#d6d6d6"/><stop offset="1" stop-color="#c5c5c5"/></radialGradient><radialGradient id="f" cx="0" cy="0" r="1" gradientTransform="matrix(0 508.297 -10.5647 0 150.354 574.637)" gradientUnits="userSpaceOnUse"><stop stop-color="#fff"/><stop offset="1" stop-color="#d6d6d6"/></radialGradient><radialGradient id="g" cx="0" cy="0" r="1" gradientTransform="matrix(0 501.343 -11.4156 0 123.892 555.903)" gradientUnits="userSpaceOnUse"><stop stop-color="#fff"/><stop offset="1" stop-color="#d6d6d6"/></radialGradient><radialGradient id="h" cx="0" cy="0" r="1" gradientTransform="matrix(0 494.584 -12.208 0 98.22 537.715)" gradientUnits="userSpaceOnUse"><stop stop-color="#fff"/><stop offset="1" stop-color="#d6d6d6"/></radialGradient><radialGradient id="i" cx="0" cy="0" r="1" gradientTransform="matrix(0 488 -12.9457 0 73.29 520.051)" gradientUnits="userSpaceOnUse"><stop stop-color="#fff"/><stop offset="1" stop-color="#d6d6d6"/></radialGradient><radialGradient id="j" cx="0" cy="0" r="1" gradientTransform="matrix(0 481.587 -13.6359 0 49.089 502.894)" gradientUnits="userSpaceOnUse"><stop stop-color="#fff"/><stop offset="1" stop-color="#d6d6d6"/></radialGradient><radialGradient id="k" cx="0" cy="0" r="1" gradientTransform="matrix(0 475.342 -14.2932 0 25.567 486.213)" gradientUnits="userSpaceOnUse"><stop stop-color="#fff"/><stop offset="1" stop-color="#d6d6d6"/></radialGradient><radialGradient id="l" cx="0" cy="0" r="1" gradientTransform="matrix(0 469.259 -14.8994 0 2.728 469.999)" gradientUnits="userSpaceOnUse"><stop stop-color="#fff"/><stop offset="1" stop-color="#d6d6d6"/></radialGradient><radialGradient id="m" cx="0" cy="0" r="1" gradientTransform="matrix(0 109.971 -235.571 0 23.81 65.868)" gradientUnits="userSpaceOnUse"><stop stop-color="#fff"/><stop offset="1" stop-color="#d6d6d6"/></radialGradient><radialGradient id="n" cx="0" cy="0" r="1" gradientTransform="matrix(0 117.242 -234.867 0 25.222 116.801)" gradientUnits="userSpaceOnUse"><stop stop-color="#fff"/><stop offset="1" stop-color="#d6d6d6"/></radialGradient><radialGradient id="o" cx="0" cy="0" r="1" gradientTransform="matrix(0 124.388 -234.169 0 26.603 167.29)" gradientUnits="userSpaceOnUse"><stop stop-color="#fff"/><stop offset=".654" stop-color="#828282"/><stop offset=".822" stop-color="#cecece"/><stop offset=".909" stop-color="#a7a7a7"/><stop offset="1" stop-color="#d6d6d6"/></radialGradient><radialGradient id="p" cx="0" cy="0" r="1" gradientTransform="matrix(0 131.429 -233.472 0 27.995 228.463)" gradientUnits="userSpaceOnUse"><stop stop-color="#fff"/><stop offset="1" stop-color="#d6d6d6"/></radialGradient><radialGradient id="q" cx="0" cy="0" r="1" gradientTransform="matrix(0 138.367 -232.778 0 29.372 280.586)" gradientUnits="userSpaceOnUse"><stop stop-color="#fff"/><stop offset="1" stop-color="#d6d6d6"/></radialGradient><radialGradient id="r" cx="0" cy="0" r="1" gradientTransform="matrix(0 145.174 -232.091 0 30.732 332.292)" gradientUnits="userSpaceOnUse"><stop stop-color="#fff"/><stop offset="1" stop-color="#d6d6d6"/></radialGradient><radialGradient id="s" cx="0" cy="0" r="1" gradientTransform="matrix(0 151.883 -231.405 0 32.08 383.608)" gradientUnits="userSpaceOnUse"><stop stop-color="#fff"/><stop offset="1" stop-color="#d6d6d6"/></radialGradient><radialGradient id="t" cx="0" cy="0" r="1" gradientTransform="matrix(0 158.493 -230.726 0 33.432 434.514)" gradientUnits="userSpaceOnUse"><stop stop-color="#fff"/><stop offset="1" stop-color="#d6d6d6"/></radialGradient><radialGradient id="u" cx="0" cy="0" r="1" gradientTransform="matrix(0 164.989 -230.05 0 34.753 485.038)" gradientUnits="userSpaceOnUse"><stop stop-color="#fff"/><stop offset="1" stop-color="#d6d6d6"/></radialGradient><radialGradient id="v" cx="0" cy="0" r="1" gradientTransform="matrix(0 128.876 -713.616 0 499.378 -11.482)" gradientUnits="userSpaceOnUse"><stop stop-color="#fff"/><stop offset="1" stop-color="#d6d6d6"/></radialGradient><radialGradient id="w" cx="0" cy="0" r="1" gradientTransform="matrix(0 45.6514 -471.702 0 699.288 58.247)" gradientUnits="userSpaceOnUse"><stop stop-color="#fff"/><stop offset="1" stop-color="#d6d6d6"/></radialGradient><radialGradient id="x" cx="0" cy="0" r="1" gradientTransform="matrix(0 44.2381 -466.593 0 664.081 46.68)" gradientUnits="userSpaceOnUse"><stop stop-color="#fff"/><stop offset="1" stop-color="#d6d6d6"/></radialGradient><radialGradient id="y" cx="0" cy="0" r="1" gradientTransform="matrix(0 42.876 -461.568 0 629.935 35.459)" gradientUnits="userSpaceOnUse"><stop stop-color="#fff"/><stop offset="1" stop-color="#d6d6d6"/></radialGradient><radialGradient id="z" cx="0" cy="0" r="1" gradientTransform="matrix(0 41.5833 -456.638 0 596.806 24.582)" gradientUnits="userSpaceOnUse"><stop stop-color="#fff"/><stop offset="1" stop-color="#d6d6d6"/></radialGradient><radialGradient id="A" cx="0" cy="0" r="1" gradientTransform="matrix(0 40.3453 -451.799 0 564.643 14.025)" gradientUnits="userSpaceOnUse"><stop stop-color="#fff"/><stop offset="1" stop-color="#d6d6d6"/></radialGradient><radialGradient id="B" cx="0" cy="0" r="1" gradientTransform="matrix(0 39.1621 -447.048 0 533.419 3.782)" gradientUnits="userSpaceOnUse"><stop stop-color="#fff"/><stop offset="1" stop-color="#d6d6d6"/></radialGradient><radialGradient id="C" cx="0" cy="0" r="1" gradientTransform="matrix(0 38.0337 -442.37 0 503.081 -6.172)" gradientUnits="userSpaceOnUse"><stop stop-color="#fff"/><stop offset="1" stop-color="#d6d6d6"/></radialGradient><radialGradient id="D" cx="0" cy="0" r="1" gradientTransform="matrix(0 36.9491 -437.787 0 473.592 -15.838)" gradientUnits="userSpaceOnUse"><stop stop-color="#fff"/><stop offset="1" stop-color="#d6d6d6"/></radialGradient><radialGradient id="E" cx="0" cy="0" r="1" gradientTransform="matrix(0 35.9083 -433.288 0 444.917 -25.224)" gradientUnits="userSpaceOnUse"><stop stop-color="#fff"/><stop offset="1" stop-color="#d6d6d6"/></radialGradient><radialGradient id="F" cx="0" cy="0" r="1" gradientTransform="matrix(0 34.9114 -428.87 0 417.03 -34.362)" gradientUnits="userSpaceOnUse"><stop stop-color="#fff"/><stop offset="1" stop-color="#d6d6d6"/></radialGradient><radialGradient id="G" cx="0" cy="0" r="1" gradientTransform="matrix(0 82.6589 -321.174 0 846.912 -55.056)" gradientUnits="userSpaceOnUse"><stop stop-color="#fff"/><stop offset="1" stop-color="#d6d6d6"/></radialGradient><radialGradient id="H" cx="0" cy="0" r="1" gradientTransform="matrix(0 83.5792 -317.515 0 805.585 -51.536)" gradientUnits="userSpaceOnUse"><stop stop-color="#fff"/><stop offset="1" stop-color="#d6d6d6"/></radialGradient><radialGradient id="I" cx="0" cy="0" r="1" gradientTransform="matrix(0 84.514 -313.746 0 763.777 -47.981)" gradientUnits="userSpaceOnUse"><stop stop-color="#fff"/><stop offset="1" stop-color="#d6d6d6"/></radialGradient><radialGradient id="J" cx="0" cy="0" r="1" gradientTransform="matrix(0 85.4708 -309.879 0 721.472 -44.378)" gradientUnits="userSpaceOnUse"><stop stop-color="#fff"/><stop offset="1" stop-color="#d6d6d6"/></radialGradient><radialGradient id="K" cx="0" cy="0" r="1" gradientTransform="matrix(0 86.4385 -305.913 0 678.702 -40.73)" gradientUnits="userSpaceOnUse"><stop stop-color="#fff"/><stop offset="1" stop-color="#d6d6d6"/></radialGradient><radialGradient id="L" cx="0" cy="0" r="1" gradientTransform="matrix(0 87.4282 -301.815 0 635.413 -37.047)" gradientUnits="userSpaceOnUse"><stop stop-color="#fff"/><stop offset="1" stop-color="#d6d6d6"/></radialGradient><radialGradient id="M" cx="0" cy="0" r="1" gradientTransform="matrix(0 88.4288 -297.609 0 591.624 -33.309)" gradientUnits="userSpaceOnUse"><stop stop-color="#fff"/><stop offset="1" stop-color="#d6d6d6"/></radialGradient><radialGradient id="N" cx="0" cy="0" r="1" gradientTransform="matrix(0 89.4513 -293.292 0 547.312 -29.536)" gradientUnits="userSpaceOnUse"><stop stop-color="#fff"/><stop offset="1" stop-color="#d6d6d6"/></radialGradient><radialGradient id="O" cx="0" cy="0" r="1" gradientTransform="matrix(0 90.4884 -288.848 0 502.469 -25.708)" gradientUnits="userSpaceOnUse"><stop stop-color="#fff"/><stop offset="1" stop-color="#d6d6d6"/></radialGradient><radialGradient id="P" cx="0" cy="0" r="1" gradientTransform="matrix(0 91.5474 -284.268 0 457.093 -21.841)" gradientUnits="userSpaceOnUse"><stop stop-color="#fff"/><stop offset="1" stop-color="#d6d6d6"/></radialGradient><radialGradient id="Q" cx="0" cy="0" r="1" gradientTransform="matrix(0 92.6247 -279.576 0 411.181 -17.92)" gradientUnits="userSpaceOnUse"><stop stop-color="#fff"/><stop offset="1" stop-color="#d6d6d6"/></radialGradient><radialGradient id="R" cx="0" cy="0" r="1" gradientTransform="matrix(0 93.7203 -274.748 0 364.69 -13.952)" gradientUnits="userSpaceOnUse"><stop stop-color="#fff"/><stop offset="1" stop-color="#d6d6d6"/></radialGradient><radialGradient id="S" cx="0" cy="0" r="1" gradientTransform="matrix(0 94.8377 -269.767 0 317.65 -9.936)" gradientUnits="userSpaceOnUse"><stop stop-color="#fff"/><stop offset="1" stop-color="#d6d6d6"/></radialGradient><radialGradient id="T" cx="0" cy="0" r="1" gradientTransform="matrix(0 95.9771 -264.666 0 270.029 -5.872)" gradientUnits="userSpaceOnUse"><stop stop-color="#fff"/><stop offset="1" stop-color="#d6d6d6"/></radialGradient><radialGradient id="U" cx="0" cy="0" r="1" gradientTransform="matrix(0 97.131 -259.414 0 221.809 -1.75)" gradientUnits="userSpaceOnUse"><stop stop-color="#fff"/><stop offset="1" stop-color="#d6d6d6"/></radialGradient><radialGradient id="V" cx="0" cy="0" r="1" gradientTransform="matrix(0 98.3069 -253.999 0 172.991 2.422)" gradientUnits="userSpaceOnUse"><stop stop-color="#fff"/><stop offset=".303" stop-color="#cecece"/><stop offset="1" stop-color="#d6d6d6"/></radialGradient><radialGradient id="W" cx="0" cy="0" r="1" gradientTransform="matrix(0 99.5084 -248.444 0 123.557 6.646)" gradientUnits="userSpaceOnUse"><stop stop-color="#fff"/><stop offset="1" stop-color="#d6d6d6"/></radialGradient><radialGradient id="X" cx="0" cy="0" r="1" gradientTransform="matrix(0 100.735 -242.74 0 73.517 10.929)" gradientUnits="userSpaceOnUse"><stop stop-color="#fff"/><stop offset="1" stop-color="#d6d6d6"/></radialGradient><radialGradient id="Y" cx="0" cy="0" r="1" gradientTransform="matrix(0 585.598 -477.077 0 735.761 608.595)" gradientUnits="userSpaceOnUse"><stop stop-color="#fff"/><stop offset="1" stop-color="#d6d6d6"/></radialGradient><radialGradient id="Z" cx="0" cy="0" r="1" gradientTransform="matrix(0 66.5945 -465.698 0 728.929 393.476)" gradientUnits="userSpaceOnUse"><stop stop-color="#fff"/><stop offset="1" stop-color="#d6d6d6"/></radialGradient><radialGradient id="aa" cx="0" cy="0" r="1" gradientTransform="matrix(0 63.5599 -467.469 0 730.071 340.748)" gradientUnits="userSpaceOnUse"><stop stop-color="#fff"/><stop offset="1" stop-color="#d6d6d6"/></radialGradient><radialGradient id="ab" cx="0" cy="0" r="1" gradientTransform="matrix(0 60.4851 -469.251 0 731.208 287.611)" gradientUnits="userSpaceOnUse"><stop stop-color="#fff"/><stop offset="1" stop-color="#d6d6d6"/></radialGradient><radialGradient id="ac" cx="0" cy="0" r="1" gradientTransform="matrix(0 57.3664 -471.048 0 732.349 234.041)" gradientUnits="userSpaceOnUse"><stop stop-color="#fff"/><stop offset="1" stop-color="#d6d6d6"/></radialGradient><radialGradient id="ad" cx="0" cy="0" r="1" gradientTransform="matrix(0 54.1893 -472.867 0 733.495 180.047)" gradientUnits="userSpaceOnUse"><stop stop-color="#fff"/><stop offset="1" stop-color="#d6d6d6"/></radialGradient><radialGradient id="ae" cx="0" cy="0" r="1" gradientTransform="matrix(0 50.9429 -474.685 0 734.67 125.602)" gradientUnits="userSpaceOnUse"><stop stop-color="#fff"/><stop offset="1" stop-color="#d6d6d6"/></radialGradient><radialGradient id="af" cx="0" cy="0" r="1" gradientTransform="matrix(0 515.677 -9.03459 0 630.671 595.84)" gradientUnits="userSpaceOnUse"><stop stop-color="#fff"/><stop offset="1" stop-color="#d6d6d6"/></radialGradient><radialGradient id="ag" cx="0" cy="0" r="1" gradientTransform="matrix(0 518.752 -7.10277 0 580.595 604.047)" gradientUnits="userSpaceOnUse"><stop stop-color="#fff"/><stop offset="1" stop-color="#d6d6d6"/></radialGradient><radialGradient id="ah" cx="0" cy="0" r="1" gradientTransform="matrix(0 521.863 -5.13448 0 529.826 612.368)" gradientUnits="userSpaceOnUse"><stop stop-color="#fff"/><stop offset="1" stop-color="#d6d6d6"/></radialGradient><radialGradient id="ai" cx="0" cy="0" r="1" gradientTransform="matrix(0 525.011 -3.1077 0 478.369 620.796)" gradientUnits="userSpaceOnUse"><stop stop-color="#fff"/><stop offset="1" stop-color="#d6d6d6"/></radialGradient><radialGradient id="aj" cx="0" cy="0" r="1" gradientTransform="matrix(0 528.192 -1.01156 0 426.246 629.334)" gradientUnits="userSpaceOnUse"><stop stop-color="#fff"/><stop offset=".178" stop-color="#969696"/><stop offset=".298" stop-color="#cecece"/><stop offset=".567" stop-color="#a7a7a7"/><stop offset=".707" stop-color="#828282"/><stop offset=".933" stop-color="#f1f1f1"/><stop offset="1" stop-color="#d6d6d6"/></radialGradient><radialGradient id="ak" cx="0" cy="0" r="1" gradientTransform="matrix(0 531.42 -2.26413 0 373.35 637.986)" gradientUnits="userSpaceOnUse"><stop stop-color="#fff"/><stop offset="1" stop-color="#d6d6d6"/></radialGradient><radialGradient id="al" cx="0" cy="0" r="1" gradientTransform="matrix(0 534.681 -4.49173 0 319.781 646.755)" gradientUnits="userSpaceOnUse"><stop stop-color="#fff"/><stop offset="1" stop-color="#d6d6d6"/></radialGradient><radialGradient id="am" cx="0" cy="0" r="1" gradientTransform="rotate(69.167 69.57 342.626)scale(148.86 290.409)" gradientUnits="userSpaceOnUse"><stop offset=".204" stop-color="#fcfcfc" stop-opacity="0"/><stop offset=".416" stop-color="#fcfcfc" stop-opacity=".5"/><stop offset="1" stop-color="#fcfcfc"/></radialGradient><radialGradient id="an" cx="0" cy="0" r="1" gradientTransform="rotate(165.069 120.682 89.703)scale(191.136 236.533)" gradientUnits="userSpaceOnUse"><stop offset=".204" stop-color="#fcfcfc" stop-opacity="0"/><stop offset=".411" stop-color="#fcfcfc" stop-opacity=".5"/><stop offset="1" stop-color="#fcfcfc"/></radialGradient><radialGradient id="ao" cx="0" cy="0" r="1" gradientTransform="rotate(-28.521 391.209 -453.662)scale(379.044 260.432)" gradientUnits="userSpaceOnUse"><stop offset=".204" stop-color="#fcfcfc" stop-opacity="0"/><stop offset=".451" stop-color="#fcfcfc" stop-opacity=".5"/><stop offset=".82" stop-color="#fcfcfc"/></radialGradient><radialGradient id="ap" cx="0" cy="0" r="1" gradientTransform="rotate(193.33 137.504 53.367)scale(255.894 137.042)" gradientUnits="userSpaceOnUse"><stop offset=".173" stop-color="#393636" stop-opacity=".2"/><stop offset="1" stop-color="#fcfcfc"/></radialGradient><radialGradient id="aq" cx="0" cy="0" r="1" gradientTransform="rotate(99.398 139.665 176.903)scale(293.946 331.364)" gradientUnits="userSpaceOnUse"><stop stop-color="#393636" stop-opacity=".4"/><stop offset=".216" stop-color="#6f6b6b" stop-opacity=".8"/><stop offset=".471" stop-color="#6f6b6b" stop-opacity=".2"/><stop offset=".611" stop-color="#c9c9c9"/><stop offset="1" stop-color="#fcfcfc"/></radialGradient><linearGradient id="ar" x1="376.041" x2="409.794" y1="106.722" y2="165.154" gradientUnits="userSpaceOnUse"><stop stop-color="#d9d9d9"/><stop offset="1" stop-color="#737373"/></linearGradient><linearGradient id="as" x1="266" x2="300.5" y1="175.5" y2="234" gradientUnits="userSpaceOnUse"><stop stop-color="#d9d9d9"/><stop offset="1" stop-color="#737373"/></linearGradient><linearGradient id="at" x1="256" x2="268.498" y1="171" y2="219.071" gradientUnits="userSpaceOnUse"><stop stop-color="#d9d9d9"/><stop offset="1" stop-color="#737373"/></linearGradient><linearGradient id="au" x1="375.5" x2="384.5" y1="109" y2="83.5" gradientUnits="userSpaceOnUse"><stop stop-color="#d9d9d9"/><stop offset="1" stop-color="#737373"/></linearGradient><linearGradient id="av" x1="430.918" x2="464.513" y1="214.152" y2="271.434" gradientUnits="userSpaceOnUse"><stop stop-color="#d9d9d9"/><stop offset="1" stop-color="#737373"/></linearGradient><clipPath id="a"><path fill="#fff" d="M0 0h669v360H0z"/></clipPath></defs></svg>